tick,type,time,meta,track,numerator,denominator,clocks_per_click,notated_32nd_notes_per_beat,key,tempo,port,program,channel,control,value,note,velocity
0,track_name,0,1,0,,,,,,,,,,,,,
0,note_on,0,0,1,,,,,,,,,0,,,74,100
0,track_name,0,1,5,,,,,,,,,,,,,
0,program_change,0,0,5,,,,,,,,56,4,,,,
0,control_change,0,0,5,,,,,,,,,4,7,100,,
0,control_change,0,0,5,,,,,,,,,4,10,115,,
0,note_on,0,0,11,,,,,,,,,11,,,38,100
0,control_change,0,0,11,,,,,,,,,11,10,120,,
0,control_change,0,0,11,,,,,,,,,11,7,110,,
0,program_change,0,0,11,,,,,,,,48,11,,,,
0,midi_port,0,1,4,,,,,,,0,,,,,,
0,track_name,0,1,4,,,,,,,,,,,,,
0,midi_port,0,1,6,,,,,,,0,,,,,,
0,control_change,0,0,4,,,,,,,,,3,7,100,,
0,control_change,0,0,4,,,,,,,,,3,10,29,,
0,note_on,0,0,4,,,,,,,,,3,,,50,100
0,control_change,0,0,1,,,,,,,,,0,10,80,,
0,note_on,0,0,4,,,,,,,,,3,,,62,100
0,control_change,0,0,1,,,,,,,,,0,7,90,,
0,track_name,0,1,1,,,,,,,,,,,,,
0,track_name,0,1,6,,,,,,,,,,,,,
0,program_change,0,0,6,,,,,,,,47,5,,,,
0,control_change,0,0,6,,,,,,,,,5,7,127,,
0,control_change,0,0,6,,,,,,,,,5,10,64,,
0,note_on,0,0,6,,,,,,,,,5,,,50,100
0,track_name,0,1,9,,,,,,,,,,,,,
0,program_change,0,0,9,,,,,,,,48,8,,,,
0,control_change,0,0,9,,,,,,,,,8,7,110,,
0,control_change,0,0,9,,,,,,,,,8,10,86,,
0,note_on,0,0,9,,,,,,,,,8,,,62,100
0,program_change,0,0,8,,,,,,,,48,7,,,,
0,control_change,0,0,8,,,,,,,,,7,7,110,,
0,control_change,0,0,8,,,,,,,,,7,10,44,,
0,note_on,0,0,8,,,,,,,,,7,,,62,100
0,midi_port,0,1,1,,,,,,,0,,,,,,
0,program_change,0,0,1,,,,,,,,73,0,,,,
0,track_name,0,1,11,,,,,,,,,,,,,
0,program_change,0,0,4,,,,,,,,60,3,,,,
0,track_name,0,1,8,,,,,,,,,,,,,
0,program_change,0,0,7,,,,,,,,48,6,,,,
0,control_change,0,0,7,,,,,,,,,6,7,127,,
0,control_change,0,0,7,,,,,,,,,6,10,25,,
0,midi_port,0,1,11,,,,,,,0,,,,,,
0,control_change,0,0,2,,,,,,,,,1,10,40,,
0,note_on,0,0,2,,,,,,,,,1,,,74,100
0,note_on,0,0,5,,,,,,,,,4,,,62,100
0,note_on,0,0,5,,,,,,,,,4,,,74,100
0,midi_port,0,1,5,,,,,,,0,,,,,,
0,marker,0,1,0,,,,,,,,,,,,,
0,set_tempo,0,1,0,,,,,,1200000,,,,,,,
0,key_signature,0,1,0,,,,,D,,,,,,,,
0,time_signature,0,1,0,4,4,24,8,,,,,,,,,
0,text,0,1,0,,,,,,,,,,,,,
0,copyright,0,1,0,,,,,,,,,,,,,
0,track_name,0,1,7,,,,,,,,,,,,,
0,midi_port,0,1,7,,,,,,,0,,,,,,
0,note_on,0,0,7,,,,,,,,,6,,,62,100
0,program_change,0,0,2,,,,,,,,68,1,,,,
0,midi_port,0,1,8,,,,,,,0,,,,,,
0,midi_port,0,1,2,,,,,,,0,,,,,,
0,track_name,0,1,2,,,,,,,,,,,,,
0,note_on,0,0,3,,,,,,,,,2,,,50,100
0,control_change,0,0,3,,,,,,,,,2,10,70,,
0,control_change,0,0,2,,,,,,,,,1,7,90,,
0,control_change,0,0,3,,,,,,,,,2,7,90,,
0,program_change,0,0,3,,,,,,,,70,2,,,,
0,midi_port,0,1,9,,,,,,,0,,,,,,
0,midi_port,0,1,3,,,,,,,0,,,,,,
0,note_on,0,0,10,,,,,,,,,10,,,50,100
0,control_change,0,0,10,,,,,,,,,10,10,105,,
0,midi_port,0,1,10,,,,,,,0,,,,,,
0,control_change,0,0,10,,,,,,,,,10,7,110,,
0,program_change,0,0,10,,,,,,,,48,10,,,,
0,track_name,0,1,10,,,,,,,,,,,,,
0,track_name,0,1,3,,,,,,,,,,,,,
15,note_on,15,0,6,,,,,,,,,5,,,50,0
15,note_on,0,0,6,,,,,,,,,5,,,50,100
30,note_on,15,0,6,,,,,,,,,5,,,50,0
30,note_on,0,0,6,,,,,,,,,5,,,50,100
45,note_on,15,0,6,,,,,,,,,5,,,50,0
45,note_on,0,0,6,,,,,,,,,5,,,50,100
60,note_on,15,0,6,,,,,,,,,5,,,50,0
60,note_on,0,0,6,,,,,,,,,5,,,50,100
75,note_on,15,0,6,,,,,,,,,5,,,50,0
75,note_on,0,0,6,,,,,,,,,5,,,50,100
90,note_on,0,0,6,,,,,,,,,5,,,50,100
90,note_on,15,0,6,,,,,,,,,5,,,50,0
105,note_on,15,0,6,,,,,,,,,5,,,50,0
105,note_on,0,0,6,,,,,,,,,5,,,50,100
120,note_on,0,0,6,,,,,,,,,5,,,50,100
120,note_on,15,0,6,,,,,,,,,5,,,50,0
135,note_on,0,0,6,,,,,,,,,5,,,50,100
135,note_on,15,0,6,,,,,,,,,5,,,50,0
150,note_on,15,0,6,,,,,,,,,5,,,50,0
150,note_on,0,0,6,,,,,,,,,5,,,50,100
165,note_on,15,0,6,,,,,,,,,5,,,50,0
165,note_on,0,0,6,,,,,,,,,5,,,50,100
180,note_on,0,0,6,,,,,,,,,5,,,50,100
180,note_on,15,0,6,,,,,,,,,5,,,50,0
195,note_on,0,0,6,,,,,,,,,5,,,50,100
195,note_on,15,0,6,,,,,,,,,5,,,50,0
210,note_on,15,0,6,,,,,,,,,5,,,50,0
210,note_on,0,0,6,,,,,,,,,5,,,50,100
225,note_on,0,0,6,,,,,,,,,5,,,50,100
225,note_on,15,0,6,,,,,,,,,5,,,50,0
240,note_on,0,0,6,,,,,,,,,5,,,50,100
240,note_on,15,0,6,,,,,,,,,5,,,50,0
360,note_on,360,0,4,,,,,,,,,3,,,62,0
360,note_on,0,0,4,,,,,,,,,3,,,50,0
360,note_on,120,0,6,,,,,,,,,5,,,50,0
360,note_on,360,0,3,,,,,,,,,2,,,50,0
360,note_on,360,0,10,,,,,,,,,10,,,50,0
360,note_on,360,0,7,,,,,,,,,6,,,62,0
360,note_on,360,0,2,,,,,,,,,1,,,74,0
360,note_on,360,0,5,,,,,,,,,4,,,74,0
360,note_on,0,0,5,,,,,,,,,4,,,62,0
360,note_on,360,0,1,,,,,,,,,0,,,74,0
360,note_on,360,0,8,,,,,,,,,7,,,62,0
360,note_on,360,0,11,,,,,,,,,11,,,38,0
360,note_on,360,0,9,,,,,,,,,8,,,62,0
450,note_on,90,0,11,,,,,,,,,11,,,33,100
450,note_on,90,0,1,,,,,,,,,0,,,69,100
450,note_on,90,0,8,,,,,,,,,7,,,57,100
450,note_on,90,0,3,,,,,,,,,2,,,45,100
450,note_on,90,0,10,,,,,,,,,10,,,45,100
450,note_on,90,0,9,,,,,,,,,8,,,57,100
450,note_on,90,0,7,,,,,,,,,6,,,57,100
450,note_on,90,0,2,,,,,,,,,1,,,69,100
460,note_on,0,0,7,,,,,,,,,6,,,59,100
460,note_on,10,0,7,,,,,,,,,6,,,57,0
460,note_on,10,0,9,,,,,,,,,8,,,57,0
460,note_on,10,0,1,,,,,,,,,0,,,69,0
460,note_on,0,0,9,,,,,,,,,8,,,59,100
460,note_on,0,0,1,,,,,,,,,0,,,71,100
460,note_on,10,0,11,,,,,,,,,11,,,33,0
460,note_on,10,0,3,,,,,,,,,2,,,45,0
460,note_on,0,0,8,,,,,,,,,7,,,59,100
460,note_on,10,0,8,,,,,,,,,7,,,57,0
460,note_on,0,0,2,,,,,,,,,1,,,71,100
460,note_on,10,0,2,,,,,,,,,1,,,69,0
460,note_on,0,0,11,,,,,,,,,11,,,35,100
460,note_on,0,0,3,,,,,,,,,2,,,47,100
460,note_on,10,0,10,,,,,,,,,10,,,45,0
460,note_on,0,0,10,,,,,,,,,10,,,47,100
470,note_on,10,0,8,,,,,,,,,7,,,59,0
470,note_on,0,0,9,,,,,,,,,8,,,61,100
470,note_on,0,0,3,,,,,,,,,2,,,49,100
470,note_on,10,0,3,,,,,,,,,2,,,47,0
470,note_on,10,0,1,,,,,,,,,0,,,71,0
470,note_on,0,0,1,,,,,,,,,0,,,73,100
470,note_on,0,0,8,,,,,,,,,7,,,61,100
470,note_on,10,0,9,,,,,,,,,8,,,59,0
470,note_on,0,0,10,,,,,,,,,10,,,49,100
470,note_on,0,0,11,,,,,,,,,11,,,37,100
470,note_on,10,0,11,,,,,,,,,11,,,35,0
470,note_on,0,0,7,,,,,,,,,6,,,61,100
470,note_on,10,0,2,,,,,,,,,1,,,71,0
470,note_on,0,0,2,,,,,,,,,1,,,73,100
470,note_on,10,0,7,,,,,,,,,6,,,59,0
470,note_on,10,0,10,,,,,,,,,10,,,47,0
480,note_on,0,0,7,,,,,,,,,6,,,62,100
480,note_on,10,0,7,,,,,,,,,6,,,61,0
480,note_on,10,0,9,,,,,,,,,8,,,61,0
480,note_on,10,0,2,,,,,,,,,1,,,73,0
480,note_on,0,0,3,,,,,,,,,2,,,50,100
480,note_on,120,0,6,,,,,,,,,5,,,50,100
480,note_on,10,0,3,,,,,,,,,2,,,49,0
480,note_on,120,0,4,,,,,,,,,3,,,50,100
480,note_on,0,0,10,,,,,,,,,10,,,50,100
480,note_on,0,0,4,,,,,,,,,3,,,62,100
480,note_on,10,0,10,,,,,,,,,10,,,49,0
480,note_on,0,0,8,,,,,,,,,7,,,62,100
480,note_on,0,0,9,,,,,,,,,8,,,62,100
480,note_on,0,0,2,,,,,,,,,1,,,74,100
480,note_on,10,0,11,,,,,,,,,11,,,37,0
480,note_on,0,0,1,,,,,,,,,0,,,74,100
480,note_on,10,0,8,,,,,,,,,7,,,61,0
480,note_on,0,0,5,,,,,,,,,4,,,74,100
480,note_on,120,0,5,,,,,,,,,4,,,62,100
480,note_on,10,0,1,,,,,,,,,0,,,73,0
480,note_on,0,0,11,,,,,,,,,11,,,38,100
600,note_on,120,0,1,,,,,,,,,0,,,74,0
600,note_on,0,0,4,,,,,,,,,3,,,50,0
600,note_on,120,0,4,,,,,,,,,3,,,62,0
600,note_on,120,0,11,,,,,,,,,11,,,38,0
600,note_on,120,0,3,,,,,,,,,2,,,50,0
600,note_on,120,0,6,,,,,,,,,5,,,50,0
600,note_on,120,0,2,,,,,,,,,1,,,74,0
600,note_on,120,0,10,,,,,,,,,10,,,50,0
600,note_on,120,0,9,,,,,,,,,8,,,62,0
600,note_on,0,0,5,,,,,,,,,4,,,62,0
600,note_on,120,0,5,,,,,,,,,4,,,74,0
600,note_on,120,0,7,,,,,,,,,6,,,62,0
600,note_on,120,0,8,,,,,,,,,7,,,62,0
690,note_on,90,0,2,,,,,,,,,1,,,69,100
690,note_on,90,0,1,,,,,,,,,0,,,69,100
690,note_on,90,0,9,,,,,,,,,8,,,57,100
690,note_on,90,0,7,,,,,,,,,6,,,57,100
690,note_on,90,0,3,,,,,,,,,2,,,45,100
690,note_on,90,0,11,,,,,,,,,11,,,33,100
690,note_on,90,0,8,,,,,,,,,7,,,57,100
690,note_on,90,0,10,,,,,,,,,10,,,45,100
700,note_on,0,0,7,,,,,,,,,6,,,59,100
700,note_on,10,0,7,,,,,,,,,6,,,57,0
700,note_on,0,0,10,,,,,,,,,10,,,47,100
700,note_on,0,0,2,,,,,,,,,1,,,71,100
700,note_on,10,0,10,,,,,,,,,10,,,45,0
700,note_on,10,0,2,,,,,,,,,1,,,69,0
700,note_on,10,0,9,,,,,,,,,8,,,57,0
700,note_on,0,0,3,,,,,,,,,2,,,47,100
700,note_on,10,0,8,,,,,,,,,7,,,57,0
700,note_on,0,0,8,,,,,,,,,7,,,59,100
700,note_on,10,0,1,,,,,,,,,0,,,69,0
700,note_on,0,0,9,,,,,,,,,8,,,59,100
700,note_on,10,0,11,,,,,,,,,11,,,33,0
700,note_on,10,0,3,,,,,,,,,2,,,45,0
700,note_on,0,0,11,,,,,,,,,11,,,35,100
700,note_on,0,0,1,,,,,,,,,0,,,71,100
710,note_on,10,0,8,,,,,,,,,7,,,59,0
710,note_on,0,0,8,,,,,,,,,7,,,61,100
710,note_on,10,0,1,,,,,,,,,0,,,71,0
710,note_on,0,0,3,,,,,,,,,2,,,49,100
710,note_on,10,0,3,,,,,,,,,2,,,47,0
710,note_on,10,0,7,,,,,,,,,6,,,59,0
710,note_on,0,0,1,,,,,,,,,0,,,73,100
710,note_on,10,0,10,,,,,,,,,10,,,47,0
710,note_on,0,0,7,,,,,,,,,6,,,61,100
710,note_on,0,0,10,,,,,,,,,10,,,49,100
710,note_on,0,0,11,,,,,,,,,11,,,37,100
710,note_on,0,0,9,,,,,,,,,8,,,61,100
710,note_on,10,0,11,,,,,,,,,11,,,35,0
710,note_on,10,0,2,,,,,,,,,1,,,71,0
710,note_on,0,0,2,,,,,,,,,1,,,73,100
710,note_on,10,0,9,,,,,,,,,8,,,59,0
720,note_on,0,0,2,,,,,,,,,1,,,74,100
720,note_on,0,0,11,,,,,,,,,11,,,38,100
720,note_on,10,0,11,,,,,,,,,11,,,37,0
720,note_on,10,0,2,,,,,,,,,1,,,73,0
720,note_on,120,0,6,,,,,,,,,5,,,50,100
720,note_on,0,0,3,,,,,,,,,2,,,50,100
720,note_on,10,0,3,,,,,,,,,2,,,49,0
720,note_on,10,0,10,,,,,,,,,10,,,49,0
720,note_on,0,0,1,,,,,,,,,0,,,74,100
720,note_on,10,0,1,,,,,,,,,0,,,73,0
720,note_on,10,0,9,,,,,,,,,8,,,61,0
720,note_on,10,0,7,,,,,,,,,6,,,61,0
720,note_on,0,0,9,,,,,,,,,8,,,62,100
720,note_on,120,0,5,,,,,,,,,4,,,62,100
720,note_on,0,0,5,,,,,,,,,4,,,74,100
720,note_on,0,0,7,,,,,,,,,6,,,62,100
720,note_on,0,0,10,,,,,,,,,10,,,50,100
720,note_on,0,0,8,,,,,,,,,7,,,62,100
720,note_on,120,0,4,,,,,,,,,3,,,50,100
720,note_on,0,0,4,,,,,,,,,3,,,62,100
720,note_on,10,0,8,,,,,,,,,7,,,61,0
780,note_on,60,0,9,,,,,,,,,8,,,62,0
780,note_on,60,0,3,,,,,,,,,2,,,50,0
780,note_on,60,0,4,,,,,,,,,3,,,62,0
780,note_on,60,0,2,,,,,,,,,1,,,74,0
780,note_on,60,0,6,,,,,,,,,5,,,50,0
780,note_on,60,0,7,,,,,,,,,6,,,62,0
780,note_on,60,0,10,,,,,,,,,10,,,50,0
780,note_on,60,0,8,,,,,,,,,7,,,62,0
780,note_on,60,0,5,,,,,,,,,4,,,74,0
780,note_on,0,0,5,,,,,,,,,4,,,62,0
780,note_on,60,0,1,,,,,,,,,0,,,74,0
780,note_on,60,0,11,,,,,,,,,11,,,38,0
780,note_on,0,0,4,,,,,,,,,3,,,50,0
810,note_on,30,0,8,,,,,,,,,7,,,57,100
810,note_on,30,0,1,,,,,,,,,0,,,69,100
810,note_on,30,0,3,,,,,,,,,2,,,45,100
810,note_on,30,0,9,,,,,,,,,8,,,57,100
810,note_on,30,0,2,,,,,,,,,1,,,69,100
810,note_on,30,0,11,,,,,,,,,11,,,33,100
810,note_on,30,0,7,,,,,,,,,6,,,57,100
810,note_on,30,0,10,,,,,,,,,10,,,45,100
820,note_on,0,0,10,,,,,,,,,10,,,47,100
820,note_on,0,0,11,,,,,,,,,11,,,35,100
820,note_on,0,0,9,,,,,,,,,8,,,59,100
820,note_on,10,0,9,,,,,,,,,8,,,57,0
820,note_on,0,0,7,,,,,,,,,6,,,59,100
820,note_on,10,0,7,,,,,,,,,6,,,57,0
820,note_on,10,0,10,,,,,,,,,10,,,45,0
820,note_on,10,0,1,,,,,,,,,0,,,69,0
820,note_on,0,0,3,,,,,,,,,2,,,47,100
820,note_on,0,0,2,,,,,,,,,1,,,71,100
820,note_on,10,0,11,,,,,,,,,11,,,33,0
820,note_on,10,0,3,,,,,,,,,2,,,45,0
820,note_on,10,0,8,,,,,,,,,7,,,57,0
820,note_on,0,0,8,,,,,,,,,7,,,59,100
820,note_on,10,0,2,,,,,,,,,1,,,69,0
820,note_on,0,0,1,,,,,,,,,0,,,71,100
830,note_on,0,0,11,,,,,,,,,11,,,37,100
830,note_on,10,0,7,,,,,,,,,6,,,59,0
830,note_on,0,0,7,,,,,,,,,6,,,61,100
830,note_on,10,0,8,,,,,,,,,7,,,59,0
830,note_on,10,0,1,,,,,,,,,0,,,71,0
830,note_on,0,0,9,,,,,,,,,8,,,61,100
830,note_on,0,0,8,,,,,,,,,7,,,61,100
830,note_on,0,0,3,,,,,,,,,2,,,49,100
830,note_on,10,0,3,,,,,,,,,2,,,47,0
830,note_on,0,0,2,,,,,,,,,1,,,73,100
830,note_on,10,0,2,,,,,,,,,1,,,71,0
830,note_on,10,0,11,,,,,,,,,11,,,35,0
830,note_on,10,0,10,,,,,,,,,10,,,47,0
830,note_on,0,0,10,,,,,,,,,10,,,49,100
830,note_on,10,0,9,,,,,,,,,8,,,59,0
830,note_on,0,0,1,,,,,,,,,0,,,73,100
840,note_on,10,0,3,,,,,,,,,2,,,49,0
840,note_on,0,0,9,,,,,,,,,8,,,62,100
840,note_on,10,0,2,,,,,,,,,1,,,73,0
840,note_on,10,0,1,,,,,,,,,0,,,73,0
840,note_on,0,0,1,,,,,,,,,0,,,74,100
840,note_on,60,0,4,,,,,,,,,3,,,50,100
840,note_on,0,0,3,,,,,,,,,2,,,50,100
840,note_on,60,0,5,,,,,,,,,4,,,62,100
840,note_on,0,0,5,,,,,,,,,4,,,74,100
840,note_on,10,0,11,,,,,,,,,11,,,37,0
840,note_on,0,0,11,,,,,,,,,11,,,38,100
840,note_on,10,0,8,,,,,,,,,7,,,61,0
840,note_on,0,0,8,,,,,,,,,7,,,62,100
840,note_on,10,0,9,,,,,,,,,8,,,61,0
840,note_on,0,0,4,,,,,,,,,3,,,62,100
840,note_on,0,0,2,,,,,,,,,1,,,74,100
840,note_on,60,0,6,,,,,,,,,5,,,50,100
840,note_on,0,0,10,,,,,,,,,10,,,50,100
840,note_on,10,0,7,,,,,,,,,6,,,61,0
840,note_on,0,0,7,,,,,,,,,6,,,62,100
840,note_on,10,0,10,,,,,,,,,10,,,49,0
900,note_on,60,0,4,,,,,,,,,3,,,62,0
900,note_on,60,0,1,,,,,,,,,0,,,74,0
900,note_on,60,0,11,,,,,,,,,11,,,38,0
900,note_on,0,0,5,,,,,,,,,4,,,62,0
900,note_on,60,0,10,,,,,,,,,10,,,50,0
900,note_on,60,0,2,,,,,,,,,1,,,74,0
900,note_on,60,0,5,,,,,,,,,4,,,74,0
900,note_on,60,0,9,,,,,,,,,8,,,62,0
900,note_on,60,0,3,,,,,,,,,2,,,50,0
900,note_on,0,0,4,,,,,,,,,3,,,50,0
900,note_on,60,0,6,,,,,,,,,5,,,50,0
900,note_on,60,0,7,,,,,,,,,6,,,62,0
900,note_on,60,0,8,,,,,,,,,7,,,62,0
930,note_on,30,0,3,,,,,,,,,2,,,45,100
930,note_on,30,0,7,,,,,,,,,6,,,57,100
930,note_on,30,0,9,,,,,,,,,8,,,57,100
930,note_on,30,0,10,,,,,,,,,10,,,45,100
930,note_on,30,0,1,,,,,,,,,0,,,69,100
930,note_on,30,0,8,,,,,,,,,7,,,57,100
930,note_on,30,0,11,,,,,,,,,11,,,33,100
930,note_on,30,0,2,,,,,,,,,1,,,69,100
940,note_on,0,0,11,,,,,,,,,11,,,35,100
940,note_on,0,0,7,,,,,,,,,6,,,59,100
940,note_on,0,0,2,,,,,,,,,1,,,71,100
940,note_on,10,0,1,,,,,,,,,0,,,69,0
940,note_on,10,0,11,,,,,,,,,11,,,33,0
940,note_on,10,0,2,,,,,,,,,1,,,69,0
940,note_on,10,0,10,,,,,,,,,10,,,45,0
940,note_on,0,0,10,,,,,,,,,10,,,47,100
940,note_on,10,0,7,,,,,,,,,6,,,57,0
940,note_on,0,0,8,,,,,,,,,7,,,59,100
940,note_on,10,0,8,,,,,,,,,7,,,57,0
940,note_on,10,0,3,,,,,,,,,2,,,45,0
940,note_on,0,0,1,,,,,,,,,0,,,71,100
940,note_on,0,0,9,,,,,,,,,8,,,59,100
940,note_on,10,0,9,,,,,,,,,8,,,57,0
940,note_on,0,0,3,,,,,,,,,2,,,47,100
950,note_on,10,0,3,,,,,,,,,2,,,47,0
950,note_on,10,0,2,,,,,,,,,1,,,71,0
950,note_on,0,0,3,,,,,,,,,2,,,49,100
950,note_on,0,0,2,,,,,,,,,1,,,73,100
950,note_on,0,0,1,,,,,,,,,0,,,73,100
950,note_on,0,0,10,,,,,,,,,10,,,49,100
950,note_on,10,0,9,,,,,,,,,8,,,59,0
950,note_on,10,0,11,,,,,,,,,11,,,35,0
950,note_on,0,0,8,,,,,,,,,7,,,61,100
950,note_on,10,0,8,,,,,,,,,7,,,59,0
950,note_on,0,0,11,,,,,,,,,11,,,37,100
950,note_on,10,0,10,,,,,,,,,10,,,47,0
950,note_on,0,0,9,,,,,,,,,8,,,61,100
950,note_on,10,0,1,,,,,,,,,0,,,71,0
950,note_on,0,0,7,,,,,,,,,6,,,61,100
950,note_on,10,0,7,,,,,,,,,6,,,59,0
960,note_on,0,0,8,,,,,,,,,7,,,62,100
960,note_on,10,0,8,,,,,,,,,7,,,61,0
960,note_on,10,0,2,,,,,,,,,1,,,73,0
960,note_on,0,0,5,,,,,,,,,4,,,74,100
960,note_on,10,0,10,,,,,,,,,10,,,49,0
960,note_on,0,0,10,,,,,,,,,10,,,50,100
960,note_on,0,0,2,,,,,,,,,1,,,74,100
960,note_on,60,0,5,,,,,,,,,4,,,62,100
960,note_on,0,0,9,,,,,,,,,8,,,62,100
960,note_on,60,0,6,,,,,,,,,5,,,50,100
960,note_on,0,0,4,,,,,,,,,3,,,62,100
960,note_on,10,0,1,,,,,,,,,0,,,73,0
960,note_on,60,0,4,,,,,,,,,3,,,50,100
960,note_on,0,0,7,,,,,,,,,6,,,62,100
960,note_on,10,0,9,,,,,,,,,8,,,61,0
960,note_on,10,0,7,,,,,,,,,6,,,61,0
960,note_on,0,0,11,,,,,,,,,11,,,38,100
960,note_on,0,0,1,,,,,,,,,0,,,74,100
960,note_on,0,0,3,,,,,,,,,2,,,50,100
960,note_on,10,0,11,,,,,,,,,11,,,37,0
960,note_on,10,0,3,,,,,,,,,2,,,49,0
1020,note_on,0,0,4,,,,,,,,,3,,,50,0
1020,note_on,60,0,2,,,,,,,,,1,,,74,0
1020,note_on,60,0,4,,,,,,,,,3,,,62,0
1020,note_on,60,0,8,,,,,,,,,7,,,62,0
1020,note_on,0,0,5,,,,,,,,,4,,,62,0
1020,note_on,60,0,5,,,,,,,,,4,,,74,0
1020,note_on,60,0,10,,,,,,,,,10,,,50,0
1020,note_on,60,0,1,,,,,,,,,0,,,74,0
1020,note_on,60,0,7,,,,,,,,,6,,,62,0
1020,note_on,60,0,3,,,,,,,,,2,,,50,0
1020,note_on,60,0,9,,,,,,,,,8,,,62,0
1020,note_on,60,0,6,,,,,,,,,5,,,50,0
1020,note_on,60,0,11,,,,,,,,,11,,,38,0
1080,note_on,60,0,8,,,,,,,,,7,,,66,50
1080,note_on,60,0,10,,,,,,,,,10,,,54,50
1080,note_on,60,0,7,,,,,,,,,6,,,66,50
1080,note_on,60,0,3,,,,,,,,,2,,,54,50
1080,note_on,60,0,9,,,,,,,,,8,,,66,50
1080,note_on,60,0,11,,,,,,,,,11,,,42,50
1125,note_on,45,0,11,,,,,,,,,11,,,42,0
1125,note_on,45,0,10,,,,,,,,,10,,,54,0
1125,note_on,45,0,7,,,,,,,,,6,,,66,0
1125,note_on,45,0,3,,,,,,,,,2,,,54,0
1125,note_on,45,0,9,,,,,,,,,8,,,66,0
1125,note_on,45,0,8,,,,,,,,,7,,,66,0
1200,note_on,75,0,11,,,,,,,,,11,,,45,50
1200,note_on,75,0,3,,,,,,,,,2,,,57,50
1200,note_on,75,0,9,,,,,,,,,8,,,69,50
1200,note_on,75,0,7,,,,,,,,,6,,,69,50
1200,note_on,75,0,10,,,,,,,,,10,,,57,50
1200,note_on,75,0,8,,,,,,,,,7,,,69,50
1245,note_on,45,0,9,,,,,,,,,8,,,69,0
1245,note_on,45,0,11,,,,,,,,,11,,,45,0
1245,note_on,45,0,7,,,,,,,,,6,,,69,0
1245,note_on,45,0,3,,,,,,,,,2,,,57,0
1245,note_on,45,0,8,,,,,,,,,7,,,69,0
1245,note_on,45,0,10,,,,,,,,,10,,,57,0
1320,note_on,75,0,3,,,,,,,,,2,,,62,50
1320,note_on,75,0,8,,,,,,,,,7,,,74,50
1320,note_on,75,0,9,,,,,,,,,8,,,74,50
1320,note_on,75,0,7,,,,,,,,,6,,,74,50
1320,note_on,75,0,11,,,,,,,,,11,,,50,50
1320,note_on,75,0,10,,,,,,,,,10,,,62,50
1365,note_on,45,0,8,,,,,,,,,7,,,74,0
1365,note_on,45,0,7,,,,,,,,,6,,,74,0
1365,note_on,45,0,10,,,,,,,,,10,,,62,0
1365,note_on,45,0,9,,,,,,,,,8,,,74,0
1365,note_on,45,0,11,,,,,,,,,11,,,50,0
1365,note_on,45,0,3,,,,,,,,,2,,,62,0
1440,note_on,0,0,4,,,,,,,,,3,,,66,80
1440,note_on,420,0,2,,,,,,,,,1,,,85,100
1440,note_on,420,0,4,,,,,,,,,3,,,54,80
1440,note_on,0,0,1,,,,,,,,,0,,,85,100
1440,note_on,75,0,8,,,,,,,,,7,,,58,100
1440,note_on,0,0,5,,,,,,,,,4,,,78,80
1440,note_on,0,0,3,,,,,,,,,2,,,61,100
1440,note_on,75,0,7,,,,,,,,,6,,,58,100
1440,note_on,420,0,1,,,,,,,,,0,,,90,100
1440,note_on,75,0,11,,,,,,,,,11,,,34,100
1440,note_on,75,0,3,,,,,,,,,2,,,66,100
1440,note_on,75,0,10,,,,,,,,,10,,,46,100
1440,note_on,420,0,5,,,,,,,,,4,,,66,80
1440,note_on,75,0,9,,,,,,,,,8,,,58,100
1440,note_on,0,0,2,,,,,,,,,1,,,78,100
1680,note_on,240,0,3,,,,,,,,,2,,,61,0
1680,note_on,0,0,3,,,,,,,,,2,,,66,0
1680,note_on,240,0,10,,,,,,,,,10,,,46,0
1680,note_on,0,0,10,,,,,,,,,10,,,47,80
1680,note_on,0,0,9,,,,,,,,,8,,,59,80
1680,note_on,240,0,9,,,,,,,,,8,,,58,0
1680,note_on,240,0,11,,,,,,,,,11,,,34,0
1680,note_on,0,0,11,,,,,,,,,11,,,35,80
1680,note_on,0,0,3,,,,,,,,,2,,,62,80
1680,note_on,0,0,3,,,,,,,,,2,,,59,80
1680,note_on,0,0,8,,,,,,,,,7,,,59,80
1680,note_on,0,0,7,,,,,,,,,6,,,59,80
1680,note_on,240,0,2,,,,,,,,,1,,,78,0
1680,note_on,0,0,2,,,,,,,,,1,,,85,0
1680,note_on,0,0,2,,,,,,,,,1,,,83,80
1680,note_on,0,0,2,,,,,,,,,1,,,74,80
1680,note_on,240,0,7,,,,,,,,,6,,,58,0
1680,note_on,240,0,8,,,,,,,,,7,,,58,0
1680,note_on,240,0,1,,,,,,,,,0,,,85,0
1680,note_on,0,0,1,,,,,,,,,0,,,90,0
1680,note_on,0,0,1,,,,,,,,,0,,,83,80
1680,note_on,0,0,1,,,,,,,,,0,,,86,80
1740,note_on,60,0,8,,,,,,,,,7,,,59,0
1740,note_on,0,0,4,,,,,,,,,3,,,54,0
1740,note_on,300,0,4,,,,,,,,,3,,,66,0
1740,note_on,0,0,1,,,,,,,,,0,,,83,0
1740,note_on,60,0,7,,,,,,,,,6,,,59,0
1740,note_on,0,0,3,,,,,,,,,2,,,62,0
1740,note_on,60,0,3,,,,,,,,,2,,,59,0
1740,note_on,0,0,2,,,,,,,,,1,,,83,0
1740,note_on,60,0,2,,,,,,,,,1,,,74,0
1740,note_on,300,0,5,,,,,,,,,4,,,78,0
1740,note_on,60,0,1,,,,,,,,,0,,,86,0
1740,note_on,60,0,11,,,,,,,,,11,,,35,0
1740,note_on,0,0,5,,,,,,,,,4,,,66,0
1740,note_on,60,0,9,,,,,,,,,8,,,59,0
1740,note_on,60,0,10,,,,,,,,,10,,,47,0
1920,note_on,180,0,8,,,,,,,,,7,,,74,50
1920,note_on,180,0,11,,,,,,,,,11,,,42,50
1920,note_on,180,0,10,,,,,,,,,10,,,54,50
1920,note_on,180,0,9,,,,,,,,,8,,,69,50
1920,note_on,180,0,7,,,,,,,,,6,,,86,50
2160,note_on,240,0,8,,,,,,,,,7,,,74,0
2160,note_on,0,0,8,,,,,,,,,7,,,71,50
2160,note_on,240,0,10,,,,,,,,,10,,,54,0
2160,note_on,0,0,10,,,,,,,,,10,,,55,50
2160,note_on,0,0,9,,,,,,,,,8,,,59,50
2160,note_on,240,0,9,,,,,,,,,8,,,69,0
2160,note_on,240,0,7,,,,,,,,,6,,,86,0
2160,note_on,0,0,7,,,,,,,,,6,,,83,50
2160,note_on,0,0,11,,,,,,,,,11,,,43,50
2160,note_on,240,0,11,,,,,,,,,11,,,42,0
2220,note_on,60,0,10,,,,,,,,,10,,,55,0
2220,note_on,60,0,7,,,,,,,,,6,,,83,0
2220,note_on,60,0,8,,,,,,,,,7,,,71,0
2220,note_on,60,0,11,,,,,,,,,11,,,43,0
2220,note_on,60,0,9,,,,,,,,,8,,,59,0
2400,note_on,660,0,1,,,,,,,,,0,,,83,50
2400,note_on,660,0,2,,,,,,,,,1,,,71,50
2400,note_on,660,0,3,,,,,,,,,2,,,63,50
2400,note_on,0,0,2,,,,,,,,,1,,,78,50
2640,note_on,240,0,3,,,,,,,,,2,,,63,0
2640,note_on,240,0,2,,,,,,,,,1,,,78,0
2640,note_on,0,0,3,,,,,,,,,2,,,64,50
2640,note_on,0,0,2,,,,,,,,,1,,,76,50
2640,note_on,0,0,1,,,,,,,,,0,,,79,50
2640,note_on,240,0,1,,,,,,,,,0,,,83,0
2640,note_on,0,0,2,,,,,,,,,1,,,71,0
2640,note_on,0,0,2,,,,,,,,,1,,,71,50
2700,note_on,60,0,2,,,,,,,,,1,,,76,0
2700,note_on,0,0,2,,,,,,,,,1,,,71,0
2700,note_on,60,0,1,,,,,,,,,0,,,79,0
2700,note_on,60,0,3,,,,,,,,,2,,,64,0
2760,note_on,540,0,7,,,,,,,,,6,,,81,50
2790,note_on,0,0,7,,,,,,,,,6,,,79,50
2790,note_on,30,0,7,,,,,,,,,6,,,81,0
2820,note_on,30,0,7,,,,,,,,,6,,,79,0
2820,note_on,0,0,7,,,,,,,,,6,,,78,50
2850,note_on,0,0,7,,,,,,,,,6,,,76,50
2850,note_on,30,0,7,,,,,,,,,6,,,78,0
2880,note_on,0,0,7,,,,,,,,,6,,,74,50
2880,note_on,30,0,7,,,,,,,,,6,,,76,0
2940,note_on,720,0,9,,,,,,,,,8,,,64,50
2940,note_on,720,0,10,,,,,,,,,10,,,57,50
2940,note_on,720,0,11,,,,,,,,,11,,,45,50
2940,note_on,720,0,8,,,,,,,,,7,,,67,50
2970,note_on,30,0,10,,,,,,,,,10,,,57,0
2970,note_on,30,0,9,,,,,,,,,8,,,64,0
2970,note_on,30,0,8,,,,,,,,,7,,,67,0
2970,note_on,30,0,11,,,,,,,,,11,,,45,0
3000,note_on,30,0,10,,,,,,,,,10,,,57,50
3000,note_on,30,0,9,,,,,,,,,8,,,64,50
3000,note_on,30,0,8,,,,,,,,,7,,,67,50
3000,note_on,30,0,11,,,,,,,,,11,,,45,50
3030,note_on,30,0,8,,,,,,,,,7,,,67,0
3030,note_on,30,0,9,,,,,,,,,8,,,64,0
3030,note_on,30,0,11,,,,,,,,,11,,,45,0
3030,note_on,30,0,10,,,,,,,,,10,,,57,0
3060,note_on,30,0,11,,,,,,,,,11,,,45,50
3060,note_on,30,0,8,,,,,,,,,7,,,67,50
3060,note_on,30,0,10,,,,,,,,,10,,,57,50
3060,note_on,30,0,9,,,,,,,,,8,,,64,50
3090,note_on,30,0,8,,,,,,,,,7,,,67,0
3090,note_on,30,0,9,,,,,,,,,8,,,64,0
3090,note_on,30,0,11,,,,,,,,,11,,,45,0
3090,note_on,30,0,10,,,,,,,,,10,,,57,0
3120,note_on,30,0,10,,,,,,,,,10,,,57,50
3120,note_on,30,0,9,,,,,,,,,8,,,64,50
3120,note_on,30,0,11,,,,,,,,,11,,,45,50
3120,note_on,30,0,8,,,,,,,,,7,,,67,50
3150,note_on,270,0,7,,,,,,,,,6,,,74,0
3150,note_on,0,0,7,,,,,,,,,6,,,73,50
3180,note_on,0,0,7,,,,,,,,,6,,,81,50
3180,note_on,30,0,7,,,,,,,,,6,,,73,0
3210,note_on,0,0,7,,,,,,,,,6,,,80,50
3210,note_on,30,0,7,,,,,,,,,6,,,81,0
3240,note_on,0,0,7,,,,,,,,,6,,,83,50
3240,note_on,120,0,8,,,,,,,,,7,,,67,0
3240,note_on,30,0,7,,,,,,,,,6,,,80,0
3240,note_on,120,0,11,,,,,,,,,11,,,45,0
3240,note_on,120,0,9,,,,,,,,,8,,,64,0
3240,note_on,120,0,10,,,,,,,,,10,,,57,0
3270,note_on,0,0,7,,,,,,,,,6,,,81,50
3270,note_on,30,0,7,,,,,,,,,6,,,83,0
3300,note_on,30,0,7,,,,,,,,,6,,,81,0
3300,note_on,0,0,7,,,,,,,,,6,,,79,50
3330,note_on,30,0,7,,,,,,,,,6,,,79,0
3330,note_on,0,0,7,,,,,,,,,6,,,78,50
3360,note_on,0,0,7,,,,,,,,,6,,,76,50
3360,note_on,30,0,7,,,,,,,,,6,,,78,0
3420,note_on,180,0,9,,,,,,,,,8,,,60,50
3420,note_on,180,0,11,,,,,,,,,11,,,42,50
3420,note_on,180,0,10,,,,,,,,,10,,,54,50
3420,note_on,180,0,8,,,,,,,,,7,,,69,50
3450,note_on,30,0,11,,,,,,,,,11,,,42,0
3450,note_on,30,0,10,,,,,,,,,10,,,54,0
3450,note_on,30,0,9,,,,,,,,,8,,,60,0
3450,note_on,30,0,8,,,,,,,,,7,,,69,0
3480,note_on,30,0,9,,,,,,,,,8,,,60,50
3480,note_on,30,0,8,,,,,,,,,7,,,69,50
3480,note_on,30,0,10,,,,,,,,,10,,,54,50
3480,note_on,30,0,11,,,,,,,,,11,,,42,50
3510,note_on,30,0,11,,,,,,,,,11,,,42,0
3510,note_on,30,0,9,,,,,,,,,8,,,60,0
3510,note_on,30,0,8,,,,,,,,,7,,,69,0
3510,note_on,30,0,10,,,,,,,,,10,,,54,0
3540,note_on,30,0,8,,,,,,,,,7,,,69,50
3540,note_on,30,0,9,,,,,,,,,8,,,60,50
3540,note_on,30,0,11,,,,,,,,,11,,,42,50
3540,note_on,30,0,10,,,,,,,,,10,,,54,50
3570,note_on,30,0,11,,,,,,,,,11,,,42,0
3570,note_on,30,0,10,,,,,,,,,10,,,54,0
3570,note_on,30,0,8,,,,,,,,,7,,,69,0
3570,note_on,30,0,9,,,,,,,,,8,,,60,0
3600,note_on,30,0,8,,,,,,,,,7,,,69,50
3600,note_on,30,0,9,,,,,,,,,8,,,60,50
3600,note_on,30,0,10,,,,,,,,,10,,,54,50
3600,note_on,30,0,11,,,,,,,,,11,,,42,50
3630,note_on,0,0,7,,,,,,,,,6,,,75,50
3630,note_on,270,0,7,,,,,,,,,6,,,76,0
3660,note_on,30,0,7,,,,,,,,,6,,,75,0
3660,note_on,0,0,7,,,,,,,,,6,,,83,50
3690,note_on,0,0,7,,,,,,,,,6,,,82,50
3690,note_on,30,0,7,,,,,,,,,6,,,83,0
3720,note_on,120,0,9,,,,,,,,,8,,,60,0
3720,note_on,120,0,11,,,,,,,,,11,,,42,0
3720,note_on,30,0,7,,,,,,,,,6,,,82,0
3720,note_on,120,0,10,,,,,,,,,10,,,54,0
3720,note_on,120,0,8,,,,,,,,,7,,,69,0
3720,note_on,0,0,7,,,,,,,,,6,,,84,50
3750,note_on,30,0,7,,,,,,,,,6,,,84,0
3750,note_on,0,0,7,,,,,,,,,6,,,83,50
3780,note_on,30,0,7,,,,,,,,,6,,,83,0
3780,note_on,0,0,7,,,,,,,,,6,,,81,50
3810,note_on,0,0,7,,,,,,,,,6,,,78,50
3810,note_on,30,0,7,,,,,,,,,6,,,81,0
3840,note_on,1140,0,1,,,,,,,,,0,,,83,50
3840,note_on,0,0,3,,,,,,,,,2,,,59,50
3840,note_on,1140,0,3,,,,,,,,,2,,,64,50
3840,note_on,0,0,7,,,,,,,,,6,,,76,50
3840,note_on,1140,0,2,,,,,,,,,1,,,76,50
3840,note_on,120,0,9,,,,,,,,,8,,,55,50
3840,note_on,120,0,10,,,,,,,,,10,,,55,50
3840,note_on,120,0,11,,,,,,,,,11,,,43,50
3840,note_on,30,0,7,,,,,,,,,6,,,78,0
3900,note_on,60,0,7,,,,,,,,,6,,,76,0
3900,note_on,0,0,7,,,,,,,,,6,,,79,57
3900,note_on,180,0,8,,,,,,,,,7,,,71,57
3945,note_on,45,0,8,,,,,,,,,7,,,71,0
3945,note_on,0,0,8,,,,,,,,,7,,,64,63
3960,note_on,120,0,9,,,,,,,,,8,,,55,0
3960,note_on,0,0,9,,,,,,,,,8,,,57,65
3960,note_on,60,0,7,,,,,,,,,6,,,79,0
3960,note_on,0,0,10,,,,,,,,,10,,,57,65
3960,note_on,120,0,10,,,,,,,,,10,,,55,0
3960,note_on,0,0,1,,,,,,,,,0,,,84,65
3960,note_on,0,0,2,,,,,,,,,1,,,75,65
3960,note_on,120,0,3,,,,,,,,,2,,,59,0
3960,note_on,120,0,11,,,,,,,,,11,,,43,0
3960,note_on,0,0,11,,,,,,,,,11,,,45,65
3960,note_on,0,0,3,,,,,,,,,2,,,64,0
3960,note_on,120,0,2,,,,,,,,,1,,,76,0
3960,note_on,0,0,3,,,,,,,,,2,,,60,65
3960,note_on,15,0,8,,,,,,,,,7,,,64,0
3960,note_on,0,0,3,,,,,,,,,2,,,63,65
3960,note_on,120,0,1,,,,,,,,,0,,,83,0
3960,note_on,0,0,8,,,,,,,,,7,,,72,65
4020,note_on,60,0,7,,,,,,,,,6,,,78,58
4020,note_on,60,0,8,,,,,,,,,7,,,72,0
4020,note_on,0,0,8,,,,,,,,,7,,,63,58
4065,note_on,45,0,7,,,,,,,,,6,,,78,0
4065,note_on,0,0,7,,,,,,,,,6,,,75,52
4080,note_on,60,0,8,,,,,,,,,7,,,63,0
4080,note_on,15,0,7,,,,,,,,,6,,,75,0
4080,note_on,0,0,3,,,,,,,,,2,,,60,0
4080,note_on,0,0,3,,,,,,,,,2,,,64,50
4080,note_on,120,0,3,,,,,,,,,2,,,63,0
4080,note_on,120,0,1,,,,,,,,,0,,,84,0
4080,note_on,0,0,2,,,,,,,,,1,,,76,50
4080,note_on,120,0,10,,,,,,,,,10,,,57,0
4080,note_on,0,0,11,,,,,,,,,11,,,43,50
4080,note_on,120,0,9,,,,,,,,,8,,,57,0
4080,note_on,0,0,9,,,,,,,,,8,,,55,50
4080,note_on,0,0,1,,,,,,,,,0,,,83,50
4080,note_on,0,0,10,,,,,,,,,10,,,55,50
4080,note_on,120,0,2,,,,,,,,,1,,,75,0
4080,note_on,0,0,3,,,,,,,,,2,,,59,50
4080,note_on,0,0,7,,,,,,,,,6,,,76,50
4080,note_on,120,0,11,,,,,,,,,11,,,45,0
4140,note_on,60,0,8,,,,,,,,,7,,,71,57
4140,note_on,0,0,7,,,,,,,,,6,,,79,57
4140,note_on,60,0,7,,,,,,,,,6,,,76,0
4185,note_on,0,0,8,,,,,,,,,7,,,64,63
4185,note_on,45,0,8,,,,,,,,,7,,,71,0
4200,note_on,120,0,1,,,,,,,,,0,,,83,0
4200,note_on,0,0,1,,,,,,,,,0,,,84,65
4200,note_on,60,0,7,,,,,,,,,6,,,79,0
4200,note_on,0,0,11,,,,,,,,,11,,,45,65
4200,note_on,0,0,3,,,,,,,,,2,,,64,0
4200,note_on,0,0,3,,,,,,,,,2,,,60,65
4200,note_on,0,0,3,,,,,,,,,2,,,63,65
4200,note_on,120,0,11,,,,,,,,,11,,,43,0
4200,note_on,120,0,9,,,,,,,,,8,,,55,0
4200,note_on,0,0,9,,,,,,,,,8,,,57,65
4200,note_on,0,0,10,,,,,,,,,10,,,57,65
4200,note_on,120,0,10,,,,,,,,,10,,,55,0
4200,note_on,0,0,2,,,,,,,,,1,,,75,65
4200,note_on,120,0,2,,,,,,,,,1,,,76,0
4200,note_on,120,0,3,,,,,,,,,2,,,59,0
4200,note_on,0,0,8,,,,,,,,,7,,,72,65
4200,note_on,15,0,8,,,,,,,,,7,,,64,0
4260,note_on,0,0,8,,,,,,,,,7,,,63,58
4260,note_on,60,0,7,,,,,,,,,6,,,78,58
4260,note_on,60,0,8,,,,,,,,,7,,,72,0
4305,note_on,0,0,7,,,,,,,,,6,,,75,52
4305,note_on,45,0,7,,,,,,,,,6,,,78,0
4320,note_on,0,0,3,,,,,,,,,2,,,64,50
4320,note_on,0,0,3,,,,,,,,,2,,,60,0
4320,note_on,120,0,3,,,,,,,,,2,,,63,0
4320,note_on,0,0,3,,,,,,,,,2,,,59,50
4320,note_on,0,0,9,,,,,,,,,8,,,55,50
4320,note_on,0,0,10,,,,,,,,,10,,,55,50
4320,note_on,0,0,2,,,,,,,,,1,,,76,50
4320,note_on,120,0,2,,,,,,,,,1,,,75,0
4320,note_on,0,0,11,,,,,,,,,11,,,43,50
4320,note_on,120,0,11,,,,,,,,,11,,,45,0
4320,note_on,120,0,9,,,,,,,,,8,,,57,0
4320,note_on,0,0,7,,,,,,,,,6,,,76,50
4320,note_on,15,0,7,,,,,,,,,6,,,75,0
4320,note_on,120,0,1,,,,,,,,,0,,,84,0
4320,note_on,0,0,1,,,,,,,,,0,,,83,50
4320,note_on,120,0,10,,,,,,,,,10,,,57,0
4320,note_on,60,0,8,,,,,,,,,7,,,63,0
4380,note_on,0,0,7,,,,,,,,,6,,,83,70
4380,note_on,60,0,7,,,,,,,,,6,,,76,0
4380,note_on,60,0,1,,,,,,,,,0,,,83,0
4380,note_on,60,0,3,,,,,,,,,2,,,59,0
4380,note_on,60,0,8,,,,,,,,,7,,,71,70
4380,note_on,60,0,2,,,,,,,,,1,,,76,0
4380,note_on,0,0,3,,,,,,,,,2,,,64,0
4440,note_on,60,0,7,,,,,,,,,6,,,83,0
4440,note_on,60,0,8,,,,,,,,,7,,,71,0
4440,note_on,0,0,8,,,,,,,,,7,,,70,68
4440,note_on,120,0,11,,,,,,,,,11,,,43,0
4440,note_on,0,0,7,,,,,,,,,6,,,82,68
4440,note_on,120,0,9,,,,,,,,,8,,,55,0
4440,note_on,120,0,10,,,,,,,,,10,,,55,0
4500,note_on,60,0,8,,,,,,,,,7,,,70,0
4500,note_on,0,0,7,,,,,,,,,6,,,81,65
4500,note_on,60,0,7,,,,,,,,,6,,,82,0
4500,note_on,0,0,8,,,,,,,,,7,,,69,65
4560,note_on,0,0,7,,,,,,,,,6,,,80,62
4560,note_on,60,0,7,,,,,,,,,6,,,81,0
4560,note_on,60,0,8,,,,,,,,,7,,,69,0
4560,note_on,0,0,8,,,,,,,,,7,,,68,62
4620,note_on,0,0,7,,,,,,,,,6,,,79,59
4620,note_on,60,0,7,,,,,,,,,6,,,80,0
4620,note_on,0,0,8,,,,,,,,,7,,,67,59
4620,note_on,60,0,8,,,,,,,,,7,,,68,0
4680,note_on,0,0,7,,,,,,,,,6,,,78,56
4680,note_on,0,0,8,,,,,,,,,7,,,66,56
4680,note_on,60,0,7,,,,,,,,,6,,,79,0
4680,note_on,60,0,8,,,,,,,,,7,,,67,0
4740,note_on,60,0,8,,,,,,,,,7,,,66,0
4740,note_on,0,0,7,,,,,,,,,6,,,76,53
4740,note_on,60,0,7,,,,,,,,,6,,,78,0
4740,note_on,0,0,8,,,,,,,,,7,,,64,53
4800,note_on,0,0,8,,,,,,,,,7,,,62,50
4800,note_on,60,0,8,,,,,,,,,7,,,64,0
4800,note_on,60,0,7,,,,,,,,,6,,,76,0
4800,note_on,0,0,7,,,,,,,,,6,,,74,50
4800,note_on,3060,0,4,,,,,,,,,3,,,62,50
4800,note_on,0,0,4,,,,,,,,,3,,,66,50
4800,note_on,360,0,9,,,,,,,,,8,,,54,50
4860,note_on,420,0,11,,,,,,,,,11,,,45,50
4860,note_on,420,0,10,,,,,,,,,10,,,57,50
4920,note_on,60,0,10,,,,,,,,,10,,,57,0
4920,note_on,0,0,10,,,,,,,,,10,,,57,50
4920,note_on,0,0,11,,,,,,,,,11,,,45,50
4920,note_on,60,0,11,,,,,,,,,11,,,45,0
4980,note_on,60,0,11,,,,,,,,,11,,,45,0
4980,note_on,0,0,10,,,,,,,,,10,,,57,50
4980,note_on,0,0,11,,,,,,,,,11,,,45,50
4980,note_on,60,0,10,,,,,,,,,10,,,57,0
5010,note_on,0,0,7,,,,,,,,,6,,,78,50
5010,note_on,210,0,7,,,,,,,,,6,,,74,0
5025,note_on,0,0,7,,,,,,,,,6,,,74,50
5025,note_on,15,0,7,,,,,,,,,6,,,78,0
5040,note_on,240,0,8,,,,,,,,,7,,,62,0
5040,note_on,0,0,8,,,,,,,,,7,,,61,50
5040,note_on,60,0,10,,,,,,,,,10,,,57,0
5040,note_on,60,0,11,,,,,,,,,11,,,45,0
5040,note_on,0,0,7,,,,,,,,,6,,,69,50
5040,note_on,15,0,7,,,,,,,,,6,,,74,0
5040,note_on,0,0,9,,,,,,,,,8,,,52,50
5040,note_on,240,0,9,,,,,,,,,8,,,54,0
5040,note_on,0,0,4,,,,,,,,,3,,,64,50
5040,note_on,0,0,4,,,,,,,,,3,,,57,50
5040,note_on,0,0,4,,,,,,,,,3,,,62,0
5040,note_on,240,0,4,,,,,,,,,3,,,66,0
5070,note_on,30,0,7,,,,,,,,,6,,,69,0
5100,note_on,30,0,7,,,,,,,,,6,,,69,50
5100,note_on,60,0,11,,,,,,,,,11,,,33,50
5100,note_on,60,0,10,,,,,,,,,10,,,45,50
5130,note_on,30,0,7,,,,,,,,,6,,,69,0
5160,note_on,60,0,10,,,,,,,,,10,,,45,0
5160,note_on,0,0,10,,,,,,,,,10,,,45,50
5160,note_on,30,0,7,,,,,,,,,6,,,69,50
5160,note_on,0,0,11,,,,,,,,,11,,,33,50
5160,note_on,60,0,11,,,,,,,,,11,,,33,0
5190,note_on,30,0,7,,,,,,,,,6,,,69,0
5220,note_on,30,0,7,,,,,,,,,6,,,69,50
5220,note_on,0,0,11,,,,,,,,,11,,,33,50
5220,note_on,60,0,10,,,,,,,,,10,,,45,0
5220,note_on,0,0,10,,,,,,,,,10,,,45,50
5220,note_on,60,0,11,,,,,,,,,11,,,33,0
5250,note_on,30,0,7,,,,,,,,,6,,,69,0
5280,note_on,0,0,11,,,,,,,,,11,,,34,50
5280,note_on,0,0,10,,,,,,,,,10,,,46,50
5280,note_on,240,0,4,,,,,,,,,3,,,64,0
5280,note_on,60,0,11,,,,,,,,,11,,,33,0
5280,note_on,60,0,10,,,,,,,,,10,,,45,0
5280,note_on,30,0,7,,,,,,,,,6,,,67,50
5280,note_on,0,0,4,,,,,,,,,3,,,57,0
5400,note_on,120,0,7,,,,,,,,,6,,,67,0
5400,note_on,0,0,9,,,,,,,,,8,,,50,50
5400,note_on,0,0,10,,,,,,,,,10,,,47,50
5400,note_on,120,0,10,,,,,,,,,10,,,46,0
5400,note_on,0,0,7,,,,,,,,,6,,,66,50
5400,note_on,0,0,11,,,,,,,,,11,,,35,50
5400,note_on,120,0,11,,,,,,,,,11,,,34,0
5400,note_on,360,0,8,,,,,,,,,7,,,61,0
5400,note_on,360,0,9,,,,,,,,,8,,,52,0
5400,note_on,0,0,8,,,,,,,,,7,,,62,50
5460,note_on,60,0,9,,,,,,,,,8,,,50,0
5460,note_on,60,0,7,,,,,,,,,6,,,66,0
5460,note_on,60,0,11,,,,,,,,,11,,,35,0
5460,note_on,60,0,10,,,,,,,,,10,,,47,0
5460,note_on,60,0,8,,,,,,,,,7,,,62,0
5520,note_on,1140,0,1,,,,,,,,,0,,,76,50
5520,note_on,0,0,1,,,,,,,,,0,,,79,50
5520,note_on,1140,0,2,,,,,,,,,1,,,70,50
5520,note_on,0,0,2,,,,,,,,,1,,,73,50
5640,note_on,0,0,2,,,,,,,,,1,,,71,50
5640,note_on,120,0,2,,,,,,,,,1,,,73,0
5640,note_on,0,0,2,,,,,,,,,1,,,74,50
5640,note_on,0,0,1,,,,,,,,,0,,,78,50
5640,note_on,0,0,1,,,,,,,,,0,,,74,50
5640,note_on,0,0,1,,,,,,,,,0,,,76,0
5640,note_on,0,0,2,,,,,,,,,1,,,70,0
5640,note_on,120,0,1,,,,,,,,,0,,,79,0
5700,note_on,60,0,1,,,,,,,,,0,,,78,0
5700,note_on,0,0,1,,,,,,,,,0,,,74,0
5700,note_on,0,0,2,,,,,,,,,1,,,71,0
5700,note_on,60,0,2,,,,,,,,,1,,,74,0
5760,note_on,300,0,7,,,,,,,,,6,,,60,100
5760,note_on,0,0,3,,,,,,,,,2,,,66,100
5760,note_on,1380,0,3,,,,,,,,,2,,,57,100
5760,note_on,480,0,4,,,,,,,,,3,,,50,100
5760,note_on,0,0,4,,,,,,,,,3,,,62,100
5760,note_on,300,0,8,,,,,,,,,7,,,60,100
5760,note_on,0,0,2,,,,,,,,,1,,,81,100
5760,note_on,60,0,1,,,,,,,,,0,,,90,100
5760,note_on,60,0,2,,,,,,,,,1,,,78,100
5760,note_on,300,0,11,,,,,,,,,11,,,36,100
5760,note_on,300,0,10,,,,,,,,,10,,,48,100
5760,note_on,4740,0,6,,,,,,,,,5,,,50,100
5760,note_on,4020,0,5,,,,,,,,,4,,,62,100
5760,note_on,0,0,5,,,,,,,,,4,,,74,100
5760,note_on,300,0,9,,,,,,,,,8,,,60,100
5760,note_on,0,0,1,,,,,,,,,0,,,86,100
5775,note_on,15,0,6,,,,,,,,,5,,,50,0
5775,note_on,0,0,6,,,,,,,,,5,,,50,100
5790,note_on,0,0,6,,,,,,,,,5,,,50,100
5790,note_on,15,0,6,,,,,,,,,5,,,50,0
5805,note_on,15,0,6,,,,,,,,,5,,,50,0
5805,note_on,0,0,6,,,,,,,,,5,,,50,100
5820,note_on,0,0,6,,,,,,,,,5,,,50,100
5820,note_on,15,0,6,,,,,,,,,5,,,50,0
5835,note_on,0,0,6,,,,,,,,,5,,,50,100
5835,note_on,15,0,6,,,,,,,,,5,,,50,0
5850,note_on,0,0,6,,,,,,,,,5,,,50,100
5850,note_on,15,0,6,,,,,,,,,5,,,50,0
5865,note_on,15,0,6,,,,,,,,,5,,,50,0
5865,note_on,0,0,6,,,,,,,,,5,,,50,100
5880,note_on,0,0,6,,,,,,,,,5,,,50,100
5880,note_on,15,0,6,,,,,,,,,5,,,50,0
5895,note_on,15,0,6,,,,,,,,,5,,,50,0
5895,note_on,0,0,6,,,,,,,,,5,,,50,100
5910,note_on,0,0,6,,,,,,,,,5,,,50,100
5910,note_on,15,0,6,,,,,,,,,5,,,50,0
5925,note_on,0,0,6,,,,,,,,,5,,,50,100
5925,note_on,15,0,6,,,,,,,,,5,,,50,0
5940,note_on,15,0,6,,,,,,,,,5,,,50,0
5940,note_on,0,0,6,,,,,,,,,5,,,50,100
5955,note_on,15,0,6,,,,,,,,,5,,,50,0
5955,note_on,0,0,6,,,,,,,,,5,,,50,100
5970,note_on,0,0,6,,,,,,,,,5,,,50,100
5970,note_on,15,0,6,,,,,,,,,5,,,50,0
5985,note_on,15,0,6,,,,,,,,,5,,,50,0
5985,note_on,0,0,6,,,,,,,,,5,,,50,100
6000,note_on,240,0,11,,,,,,,,,11,,,36,0
6000,note_on,0,0,1,,,,,,,,,0,,,86,80
6000,note_on,0,0,9,,,,,,,,,8,,,59,80
6000,note_on,240,0,9,,,,,,,,,8,,,60,0
6000,note_on,0,0,10,,,,,,,,,10,,,47,80
6000,note_on,0,0,6,,,,,,,,,5,,,50,80
6000,note_on,0,0,11,,,,,,,,,11,,,35,80
6000,note_on,0,0,8,,,,,,,,,7,,,59,80
6000,note_on,0,0,1,,,,,,,,,0,,,91,80
6000,note_on,0,0,1,,,,,,,,,0,,,90,0
6000,note_on,240,0,1,,,,,,,,,0,,,86,0
6000,note_on,240,0,10,,,,,,,,,10,,,48,0
6000,note_on,240,0,2,,,,,,,,,1,,,81,0
6000,note_on,0,0,2,,,,,,,,,1,,,78,0
6000,note_on,0,0,2,,,,,,,,,1,,,79,80
6000,note_on,0,0,2,,,,,,,,,1,,,83,80
6000,note_on,0,0,7,,,,,,,,,6,,,59,80
6000,note_on,240,0,7,,,,,,,,,6,,,60,0
6000,note_on,15,0,6,,,,,,,,,5,,,50,0
6000,note_on,240,0,3,,,,,,,,,2,,,66,0
6000,note_on,0,0,3,,,,,,,,,2,,,57,0
6000,note_on,0,0,3,,,,,,,,,2,,,67,80
6000,note_on,240,0,8,,,,,,,,,7,,,60,0
6000,note_on,0,0,3,,,,,,,,,2,,,59,80
6060,note_on,0,0,2,,,,,,,,,1,,,79,0
6060,note_on,60,0,9,,,,,,,,,8,,,59,0
6060,note_on,60,0,10,,,,,,,,,10,,,47,0
6060,note_on,300,0,5,,,,,,,,,4,,,74,0
6060,note_on,0,0,5,,,,,,,,,4,,,62,0
6060,note_on,60,0,11,,,,,,,,,11,,,35,0
6060,note_on,60,0,2,,,,,,,,,1,,,83,0
6060,note_on,0,0,1,,,,,,,,,0,,,91,0
6060,note_on,60,0,1,,,,,,,,,0,,,86,0
6060,note_on,60,0,7,,,,,,,,,6,,,59,0
6060,note_on,300,0,4,,,,,,,,,3,,,62,0
6060,note_on,0,0,4,,,,,,,,,3,,,50,0
6060,note_on,0,0,3,,,,,,,,,2,,,67,0
6060,note_on,60,0,8,,,,,,,,,7,,,59,0
6060,note_on,60,0,3,,,,,,,,,2,,,59,0
6120,note_on,120,0,6,,,,,,,,,5,,,50,0
6240,note_on,180,0,1,,,,,,,,,0,,,87,50
6240,note_on,180,0,2,,,,,,,,,1,,,78,50
6240,note_on,180,0,3,,,,,,,,,2,,,60,50
6240,note_on,0,0,3,,,,,,,,,2,,,57,50
6480,note_on,240,0,1,,,,,,,,,0,,,87,0
6480,note_on,0,0,1,,,,,,,,,0,,,86,50
6480,note_on,0,0,3,,,,,,,,,2,,,59,50
6480,note_on,240,0,3,,,,,,,,,2,,,57,0
6480,note_on,0,0,3,,,,,,,,,2,,,56,50
6480,note_on,0,0,3,,,,,,,,,2,,,60,0
6480,note_on,240,0,2,,,,,,,,,1,,,78,0
6480,note_on,0,0,2,,,,,,,,,1,,,77,50
6510,note_on,450,0,7,,,,,,,,,6,,,70,30
6510,note_on,450,0,8,,,,,,,,,7,,,70,30
6540,note_on,0,0,8,,,,,,,,,7,,,71,32
6540,note_on,30,0,8,,,,,,,,,7,,,70,0
6540,note_on,0,0,7,,,,,,,,,6,,,71,32
6540,note_on,30,0,7,,,,,,,,,6,,,70,0
6570,note_on,0,0,7,,,,,,,,,6,,,73,35
6570,note_on,30,0,7,,,,,,,,,6,,,71,0
6570,note_on,0,0,8,,,,,,,,,7,,,73,35
6570,note_on,30,0,8,,,,,,,,,7,,,71,0
6600,note_on,0,0,7,,,,,,,,,6,,,74,38
6600,note_on,30,0,7,,,,,,,,,6,,,73,0
6600,note_on,30,0,8,,,,,,,,,7,,,73,0
6600,note_on,0,0,8,,,,,,,,,7,,,74,38
6630,note_on,30,0,7,,,,,,,,,6,,,74,0
6630,note_on,0,0,7,,,,,,,,,6,,,76,41
6630,note_on,30,0,8,,,,,,,,,7,,,74,0
6630,note_on,0,0,8,,,,,,,,,7,,,76,41
6660,note_on,30,0,8,,,,,,,,,7,,,76,0
6660,note_on,30,0,7,,,,,,,,,6,,,76,0
6660,note_on,0,0,7,,,,,,,,,6,,,77,44
6660,note_on,0,0,8,,,,,,,,,7,,,77,44
6690,note_on,0,0,7,,,,,,,,,6,,,74,47
6690,note_on,0,0,8,,,,,,,,,7,,,74,47
6690,note_on,30,0,8,,,,,,,,,7,,,77,0
6690,note_on,30,0,7,,,,,,,,,6,,,77,0
6720,note_on,0,0,2,,,,,,,,,1,,,78,50
6720,note_on,0,0,8,,,,,,,,,7,,,57,50
6720,note_on,30,0,8,,,,,,,,,7,,,74,0
6720,note_on,240,0,3,,,,,,,,,2,,,59,0
6720,note_on,0,0,3,,,,,,,,,2,,,56,0
6720,note_on,0,0,3,,,,,,,,,2,,,57,50
6720,note_on,660,0,11,,,,,,,,,11,,,33,50
6720,note_on,660,0,4,,,,,,,,,3,,,62,50
6720,note_on,600,0,6,,,,,,,,,5,,,45,50
6720,note_on,0,0,4,,,,,,,,,3,,,66,50
6720,note_on,0,0,7,,,,,,,,,6,,,81,50
6720,note_on,30,0,7,,,,,,,,,6,,,74,0
6720,note_on,660,0,10,,,,,,,,,10,,,45,50
6720,note_on,0,0,1,,,,,,,,,0,,,86,50
6720,note_on,0,0,1,,,,,,,,,0,,,81,50
6720,note_on,240,0,1,,,,,,,,,0,,,86,0
6720,note_on,660,0,9,,,,,,,,,8,,,57,50
6720,note_on,240,0,2,,,,,,,,,1,,,77,0
6720,note_on,0,0,2,,,,,,,,,1,,,74,50
6750,note_on,30,0,8,,,,,,,,,7,,,57,0
6750,note_on,0,0,8,,,,,,,,,7,,,62,50
6780,note_on,60,0,11,,,,,,,,,11,,,33,0
6780,note_on,60,0,10,,,,,,,,,10,,,45,0
6780,note_on,30,0,8,,,,,,,,,7,,,62,0
6780,note_on,0,0,10,,,,,,,,,10,,,45,50
6780,note_on,0,0,11,,,,,,,,,11,,,33,50
6780,note_on,0,0,8,,,,,,,,,7,,,66,50
6780,note_on,0,0,9,,,,,,,,,8,,,57,50
6780,note_on,60,0,9,,,,,,,,,8,,,57,0
6810,note_on,30,0,8,,,,,,,,,7,,,66,0
6810,note_on,0,0,8,,,,,,,,,7,,,62,50
6840,note_on,0,0,11,,,,,,,,,11,,,33,50
6840,note_on,60,0,10,,,,,,,,,10,,,45,0
6840,note_on,0,0,10,,,,,,,,,10,,,45,50
6840,note_on,60,0,11,,,,,,,,,11,,,33,0
6840,note_on,120,0,6,,,,,,,,,5,,,45,0
6840,note_on,0,0,6,,,,,,,,,5,,,45,50
6840,note_on,0,0,8,,,,,,,,,7,,,66,50
6840,note_on,60,0,9,,,,,,,,,8,,,57,0
6840,note_on,0,0,9,,,,,,,,,8,,,57,50
6840,note_on,0,0,4,,,,,,,,,3,,,66,50
6840,note_on,0,0,4,,,,,,,,,3,,,62,50
6840,note_on,0,0,4,,,,,,,,,3,,,62,0
6840,note_on,120,0,4,,,,,,,,,3,,,66,0
6840,note_on,30,0,8,,,,,,,,,7,,,62,0
6870,note_on,30,0,8,,,,,,,,,7,,,66,0
6870,note_on,0,0,8,,,,,,,,,7,,,62,50
6885,note_on,0,0,7,,,,,,,,,6,,,78,50
6885,note_on,165,0,7,,,,,,,,,6,,,81,0
6900,note_on,0,0,8,,,,,,,,,7,,,69,50
6900,note_on,60,0,9,,,,,,,,,8,,,57,0
6900,note_on,0,0,9,,,,,,,,,8,,,57,50
6900,note_on,0,0,10,,,,,,,,,10,,,45,50
6900,note_on,60,0,10,,,,,,,,,10,,,45,0
6900,note_on,0,0,11,,,,,,,,,11,,,33,50
6900,note_on,60,0,11,,,,,,,,,11,,,33,0
6900,note_on,0,0,7,,,,,,,,,6,,,81,50
6900,note_on,15,0,7,,,,,,,,,6,,,78,0
6900,note_on,30,0,8,,,,,,,,,7,,,62,0
6920,note_on,0,0,7,,,,,,,,,6,,,78,50
6920,note_on,20,0,7,,,,,,,,,6,,,81,0
6930,note_on,0,0,8,,,,,,,,,7,,,66,50
6930,note_on,90,0,6,,,,,,,,,5,,,45,0
6930,note_on,90,0,4,,,,,,,,,3,,,66,0
6930,note_on,0,0,6,,,,,,,,,5,,,45,50
6930,note_on,0,0,4,,,,,,,,,3,,,62,50
6930,note_on,0,0,4,,,,,,,,,3,,,66,50
6930,note_on,0,0,4,,,,,,,,,3,,,62,0
6930,note_on,30,0,8,,,,,,,,,7,,,69,0
6940,note_on,20,0,7,,,,,,,,,6,,,78,0
6940,note_on,0,0,7,,,,,,,,,6,,,74,50
6960,note_on,60,0,11,,,,,,,,,11,,,33,0
6960,note_on,20,0,7,,,,,,,,,6,,,74,0
6960,note_on,0,0,7,,,,,,,,,6,,,69,50
6960,note_on,0,0,11,,,,,,,,,11,,,33,50
6960,note_on,0,0,3,,,,,,,,,2,,,45,50
6960,note_on,0,0,4,,,,,,,,,3,,,66,0
6960,note_on,60,0,10,,,,,,,,,10,,,45,0
6960,note_on,0,0,10,,,,,,,,,10,,,45,50
6960,note_on,0,0,6,,,,,,,,,5,,,45,50
6960,note_on,30,0,6,,,,,,,,,5,,,45,0
6960,note_on,0,0,2,,,,,,,,,1,,,79,50
6960,note_on,0,0,2,,,,,,,,,1,,,73,50
6960,note_on,0,0,2,,,,,,,,,1,,,74,0
6960,note_on,240,0,2,,,,,,,,,1,,,78,0
6960,note_on,30,0,4,,,,,,,,,3,,,62,0
6960,note_on,30,0,8,,,,,,,,,7,,,66,0
6960,note_on,240,0,3,,,,,,,,,2,,,57,0
6960,note_on,0,0,9,,,,,,,,,8,,,57,50
6960,note_on,0,0,8,,,,,,,,,7,,,61,50
6960,note_on,0,0,1,,,,,,,,,0,,,85,50
6960,note_on,240,0,1,,,,,,,,,0,,,86,0
6960,note_on,0,0,4,,,,,,,,,3,,,64,50
6960,note_on,0,0,4,,,,,,,,,3,,,57,50
6960,note_on,60,0,9,,,,,,,,,8,,,57,0
6990,note_on,0,0,8,,,,,,,,,7,,,64,50
6990,note_on,30,0,8,,,,,,,,,7,,,61,0
7020,note_on,0,0,11,,,,,,,,,11,,,33,50
7020,note_on,60,0,7,,,,,,,,,6,,,69,0
7020,note_on,0,0,8,,,,,,,,,7,,,67,50
7020,note_on,60,0,9,,,,,,,,,8,,,57,0
7020,note_on,30,0,8,,,,,,,,,7,,,64,0
7020,note_on,0,0,10,,,,,,,,,10,,,45,50
7020,note_on,60,0,10,,,,,,,,,10,,,45,0
7020,note_on,0,0,9,,,,,,,,,8,,,57,50
7020,note_on,60,0,11,,,,,,,,,11,,,33,0
7050,note_on,30,0,8,,,,,,,,,7,,,67,0
7050,note_on,0,0,8,,,,,,,,,7,,,64,50
7080,note_on,0,0,4,,,,,,,,,3,,,64,50
7080,note_on,60,0,11,,,,,,,,,11,,,33,0
7080,note_on,0,0,11,,,,,,,,,11,,,33,50
7080,note_on,0,0,6,,,,,,,,,5,,,45,50
7080,note_on,120,0,6,,,,,,,,,5,,,45,0
7080,note_on,120,0,4,,,,,,,,,3,,,64,0
7080,note_on,0,0,4,,,,,,,,,3,,,57,0
7080,note_on,0,0,4,,,,,,,,,3,,,57,50
7080,note_on,60,0,10,,,,,,,,,10,,,45,0
7080,note_on,0,0,10,,,,,,,,,10,,,45,50
7080,note_on,0,0,8,,,,,,,,,7,,,67,50
7080,note_on,60,0,7,,,,,,,,,6,,,73,50
7080,note_on,30,0,8,,,,,,,,,7,,,64,0
7080,note_on,60,0,9,,,,,,,,,8,,,57,0
7080,note_on,0,0,9,,,,,,,,,8,,,57,50
7110,note_on,0,0,8,,,,,,,,,7,,,64,50
7110,note_on,30,0,8,,,,,,,,,7,,,67,0
7140,note_on,60,0,10,,,,,,,,,10,,,45,0
7140,note_on,0,0,10,,,,,,,,,10,,,45,50
7140,note_on,0,0,9,,,,,,,,,8,,,57,50
7140,note_on,60,0,9,,,,,,,,,8,,,57,0
7140,note_on,60,0,11,,,,,,,,,11,,,33,0
7140,note_on,30,0,8,,,,,,,,,7,,,64,0
7140,note_on,0,0,11,,,,,,,,,11,,,33,50
7140,note_on,60,0,7,,,,,,,,,6,,,73,0
7140,note_on,0,0,8,,,,,,,,,7,,,67,50
7170,note_on,0,0,4,,,,,,,,,3,,,64,50
7170,note_on,0,0,6,,,,,,,,,5,,,45,50
7170,note_on,30,0,8,,,,,,,,,7,,,67,0
7170,note_on,0,0,4,,,,,,,,,3,,,57,50
7170,note_on,90,0,4,,,,,,,,,3,,,64,0
7170,note_on,0,0,8,,,,,,,,,7,,,61,50
7170,note_on,90,0,6,,,,,,,,,5,,,45,0
7170,note_on,0,0,4,,,,,,,,,3,,,57,0
7200,note_on,60,0,10,,,,,,,,,10,,,45,0
7200,note_on,240,0,3,,,,,,,,,2,,,45,0
7200,note_on,0,0,3,,,,,,,,,2,,,65,100
7200,note_on,0,0,3,,,,,,,,,2,,,57,100
7200,note_on,0,0,9,,,,,,,,,8,,,53,100
7200,note_on,60,0,9,,,,,,,,,8,,,57,0
7200,note_on,0,0,2,,,,,,,,,1,,,77,100
7200,note_on,0,0,2,,,,,,,,,1,,,69,100
7200,note_on,0,0,2,,,,,,,,,1,,,73,0
7200,note_on,240,0,2,,,,,,,,,1,,,79,0
7200,note_on,60,0,11,,,,,,,,,11,,,33,0
7200,note_on,0,0,5,,,,,,,,,4,,,74,100
7200,note_on,0,0,4,,,,,,,,,3,,,57,0
7200,note_on,0,0,6,,,,,,,,,5,,,50,100
7200,note_on,30,0,6,,,,,,,,,5,,,45,0
7200,note_on,0,0,8,,,,,,,,,7,,,57,100
7200,note_on,30,0,8,,,,,,,,,7,,,61,0
7200,note_on,0,0,1,,,,,,,,,0,,,86,100
7200,note_on,0,0,1,,,,,,,,,0,,,81,100
7200,note_on,0,0,1,,,,,,,,,0,,,81,0
7200,note_on,240,0,1,,,,,,,,,0,,,85,0
7200,note_on,60,0,7,,,,,,,,,6,,,62,100
7200,marker,7200,1,0,,,,,,,,,,,,,
7200,note_on,1140,0,5,,,,,,,,,4,,,62,100
7200,note_on,30,0,4,,,,,,,,,3,,,64,0
7200,note_on,0,0,4,,,,,,,,,3,,,62,100
7200,note_on,0,0,4,,,,,,,,,3,,,50,100
7260,note_on,60,0,10,,,,,,,,,10,,,50,127
7260,note_on,60,0,11,,,,,,,,,11,,,38,127
7290,note_on,30,0,11,,,,,,,,,11,,,38,0
7290,note_on,30,0,10,,,,,,,,,10,,,50,0
7320,note_on,30,0,10,,,,,,,,,10,,,53,127
7320,note_on,120,0,6,,,,,,,,,5,,,50,0
7320,note_on,0,0,6,,,,,,,,,5,,,50,100
7320,note_on,30,0,11,,,,,,,,,11,,,41,127
7350,note_on,30,0,10,,,,,,,,,10,,,53,0
7350,note_on,30,0,11,,,,,,,,,11,,,41,0
7380,note_on,30,0,11,,,,,,,,,11,,,45,127
7380,note_on,0,0,9,,,,,,,,,8,,,53,100
7380,note_on,30,0,10,,,,,,,,,10,,,57,127
7380,note_on,0,0,8,,,,,,,,,7,,,57,100
7380,note_on,180,0,8,,,,,,,,,7,,,57,0
7380,note_on,0,0,7,,,,,,,,,6,,,62,100
7380,note_on,180,0,7,,,,,,,,,6,,,62,0
7380,note_on,180,0,9,,,,,,,,,8,,,53,0
7410,note_on,30,0,10,,,,,,,,,10,,,57,0
7410,note_on,0,0,6,,,,,,,,,5,,,50,100
7410,note_on,90,0,6,,,,,,,,,5,,,50,0
7410,note_on,30,0,11,,,,,,,,,11,,,45,0
7440,note_on,30,0,6,,,,,,,,,5,,,50,0
7440,note_on,0,0,6,,,,,,,,,5,,,50,100
7440,note_on,30,0,11,,,,,,,,,11,,,50,127
7440,note_on,30,0,10,,,,,,,,,10,,,62,127
7470,note_on,30,0,10,,,,,,,,,10,,,62,0
7470,note_on,30,0,11,,,,,,,,,11,,,50,0
7500,note_on,30,0,10,,,,,,,,,10,,,57,127
7500,note_on,30,0,11,,,,,,,,,11,,,45,127
7500,note_on,60,0,6,,,,,,,,,5,,,50,0
7500,note_on,0,0,8,,,,,,,,,7,,,57,100
7500,note_on,120,0,8,,,,,,,,,7,,,57,0
7500,note_on,0,0,7,,,,,,,,,6,,,62,100
7500,note_on,0,0,6,,,,,,,,,5,,,50,100
7500,note_on,120,0,7,,,,,,,,,6,,,62,0
7500,note_on,120,0,9,,,,,,,,,8,,,53,0
7500,note_on,0,0,9,,,,,,,,,8,,,53,100
7530,note_on,30,0,11,,,,,,,,,11,,,45,0
7530,note_on,30,0,10,,,,,,,,,10,,,57,0
7560,note_on,0,0,6,,,,,,,,,5,,,50,100
7560,note_on,60,0,6,,,,,,,,,5,,,50,0
7560,note_on,30,0,11,,,,,,,,,11,,,41,127
7560,note_on,30,0,10,,,,,,,,,10,,,53,127
7590,note_on,30,0,10,,,,,,,,,10,,,53,0
7590,note_on,30,0,11,,,,,,,,,11,,,41,0
7620,note_on,120,0,7,,,,,,,,,6,,,62,0
7620,note_on,0,0,6,,,,,,,,,5,,,50,100
7620,note_on,120,0,8,,,,,,,,,7,,,57,0
7620,note_on,0,0,8,,,,,,,,,7,,,57,100
7620,note_on,60,0,6,,,,,,,,,5,,,50,0
7620,note_on,0,0,9,,,,,,,,,8,,,53,100
7620,note_on,30,0,11,,,,,,,,,11,,,45,127
7620,note_on,30,0,10,,,,,,,,,10,,,57,127
7620,note_on,120,0,9,,,,,,,,,8,,,53,0
7620,note_on,0,0,7,,,,,,,,,6,,,62,100
7650,note_on,30,0,10,,,,,,,,,10,,,57,0
7650,note_on,30,0,11,,,,,,,,,11,,,45,0
7680,note_on,0,0,6,,,,,,,,,5,,,50,100
7680,note_on,30,0,10,,,,,,,,,10,,,50,127
7680,note_on,30,0,11,,,,,,,,,11,,,38,50
7680,note_on,0,0,3,,,,,,,,,2,,,50,50
7680,note_on,0,0,3,,,,,,,,,2,,,65,0
7680,note_on,60,0,6,,,,,,,,,5,,,50,0
7680,note_on,480,0,3,,,,,,,,,2,,,57,0
7710,note_on,510,0,4,,,,,,,,,3,,,62,0
7710,note_on,510,0,2,,,,,,,,,1,,,77,0
7710,note_on,510,0,1,,,,,,,,,0,,,86,0
7710,note_on,0,0,8,,,,,,,,,7,,,57,50
7710,note_on,90,0,8,,,,,,,,,7,,,57,0
7710,note_on,90,0,7,,,,,,,,,6,,,62,0
7710,note_on,90,0,9,,,,,,,,,8,,,53,0
7710,note_on,0,0,2,,,,,,,,,1,,,69,0
7710,note_on,0,0,1,,,,,,,,,0,,,81,0
7710,note_on,0,0,4,,,,,,,,,3,,,50,0
7710,note_on,510,0,5,,,,,,,,,4,,,74,0
7710,note_on,0,0,5,,,,,,,,,4,,,62,0
7710,note_on,0,0,9,,,,,,,,,8,,,53,50
7734,note_on,24,0,8,,,,,,,,,7,,,57,0
7734,note_on,24,0,9,,,,,,,,,8,,,53,0
7740,note_on,30,0,7,,,,,,,,,6,,,67,50
7740,note_on,60,0,10,,,,,,,,,10,,,50,0
7740,note_on,60,0,11,,,,,,,,,11,,,38,0
7740,note_on,6,0,8,,,,,,,,,7,,,57,50
7740,note_on,6,0,9,,,,,,,,,8,,,53,50
7755,note_on,0,0,7,,,,,,,,,6,,,65,50
7755,note_on,15,0,7,,,,,,,,,6,,,67,0
7764,note_on,24,0,8,,,,,,,,,7,,,57,0
7764,note_on,24,0,9,,,,,,,,,8,,,53,0
7770,note_on,6,0,9,,,,,,,,,8,,,53,50
7770,note_on,15,0,7,,,,,,,,,6,,,65,0
7770,note_on,6,0,8,,,,,,,,,7,,,57,50
7770,note_on,0,0,7,,,,,,,,,6,,,64,50
7785,note_on,15,0,7,,,,,,,,,6,,,64,0
7785,note_on,0,0,7,,,,,,,,,6,,,65,50
7794,note_on,24,0,9,,,,,,,,,8,,,53,0
7794,note_on,24,0,8,,,,,,,,,7,,,57,0
7800,note_on,6,0,8,,,,,,,,,7,,,57,50
7800,note_on,120,0,6,,,,,,,,,5,,,50,0
7800,note_on,15,0,7,,,,,,,,,6,,,65,0
7800,note_on,6,0,9,,,,,,,,,8,,,53,50
7800,note_on,0,0,7,,,,,,,,,6,,,69,50
7824,note_on,24,0,9,,,,,,,,,8,,,53,0
7824,note_on,24,0,8,,,,,,,,,7,,,57,0
7830,note_on,6,0,9,,,,,,,,,8,,,53,50
7830,note_on,6,0,8,,,,,,,,,7,,,57,50
7830,note_on,30,0,7,,,,,,,,,6,,,69,0
7854,note_on,24,0,8,,,,,,,,,7,,,57,0
7854,note_on,24,0,9,,,,,,,,,8,,,53,0
7860,note_on,6,0,9,,,,,,,,,8,,,53,50
7860,note_on,30,0,7,,,,,,,,,6,,,74,50
7860,note_on,6,0,8,,,,,,,,,7,,,57,50
7875,note_on,15,0,7,,,,,,,,,6,,,74,0
7875,note_on,0,0,7,,,,,,,,,6,,,73,50
7884,note_on,24,0,9,,,,,,,,,8,,,53,0
7884,note_on,24,0,8,,,,,,,,,7,,,57,0
7890,note_on,0,0,7,,,,,,,,,6,,,71,50
7890,note_on,15,0,7,,,,,,,,,6,,,73,0
7890,note_on,6,0,8,,,,,,,,,7,,,57,50
7890,note_on,6,0,9,,,,,,,,,8,,,53,50
7905,note_on,0,0,7,,,,,,,,,6,,,73,50
7905,note_on,15,0,7,,,,,,,,,6,,,71,0
7914,note_on,24,0,8,,,,,,,,,7,,,57,0
7914,note_on,24,0,9,,,,,,,,,8,,,53,0
7920,note_on,15,0,7,,,,,,,,,6,,,73,0
7920,note_on,6,0,9,,,,,,,,,8,,,53,50
7920,note_on,0,0,7,,,,,,,,,6,,,74,50
7920,note_on,6,0,8,,,,,,,,,7,,,57,50
7944,note_on,24,0,8,,,,,,,,,7,,,57,0
7944,note_on,24,0,9,,,,,,,,,8,,,53,0
7950,note_on,6,0,8,,,,,,,,,7,,,57,50
7950,note_on,6,0,9,,,,,,,,,8,,,53,50
7950,note_on,30,0,7,,,,,,,,,6,,,74,0
7974,note_on,24,0,9,,,,,,,,,8,,,53,0
7974,note_on,24,0,8,,,,,,,,,7,,,57,0
7980,note_on,30,0,7,,,,,,,,,6,,,79,50
7980,note_on,6,0,8,,,,,,,,,7,,,57,50
7980,note_on,6,0,9,,,,,,,,,8,,,53,50
7995,note_on,15,0,7,,,,,,,,,6,,,79,0
7995,note_on,0,0,7,,,,,,,,,6,,,77,50
8004,note_on,24,0,8,,,,,,,,,7,,,57,0
8004,note_on,24,0,9,,,,,,,,,8,,,53,0
8010,note_on,6,0,9,,,,,,,,,8,,,53,50
8010,note_on,0,0,7,,,,,,,,,6,,,76,50
8010,note_on,6,0,8,,,,,,,,,7,,,57,50
8010,note_on,15,0,7,,,,,,,,,6,,,77,0
8025,note_on,15,0,7,,,,,,,,,6,,,76,0
8025,note_on,0,0,7,,,,,,,,,6,,,77,50
8034,note_on,24,0,9,,,,,,,,,8,,,53,0
8034,note_on,24,0,8,,,,,,,,,7,,,57,0
8040,note_on,6,0,9,,,,,,,,,8,,,53,50
8040,note_on,0,0,7,,,,,,,,,6,,,81,50
8040,note_on,6,0,8,,,,,,,,,7,,,57,50
8040,note_on,15,0,7,,,,,,,,,6,,,77,0
8064,note_on,24,0,9,,,,,,,,,8,,,53,0
8064,note_on,24,0,8,,,,,,,,,7,,,57,0
8070,note_on,6,0,8,,,,,,,,,7,,,57,50
8070,note_on,30,0,7,,,,,,,,,6,,,81,0
8070,note_on,6,0,9,,,,,,,,,8,,,53,50
8094,note_on,24,0,8,,,,,,,,,7,,,57,0
8094,note_on,24,0,9,,,,,,,,,8,,,53,0
8100,note_on,6,0,8,,,,,,,,,7,,,57,50
8100,note_on,6,0,9,,,,,,,,,8,,,53,50
8100,note_on,30,0,7,,,,,,,,,6,,,86,50
8124,note_on,24,0,8,,,,,,,,,7,,,57,0
8124,note_on,24,0,9,,,,,,,,,8,,,53,0
8130,note_on,6,0,8,,,,,,,,,7,,,57,50
8130,note_on,6,0,9,,,,,,,,,8,,,53,50
8130,note_on,30,0,7,,,,,,,,,6,,,86,0
8154,note_on,24,0,9,,,,,,,,,8,,,53,0
8154,note_on,24,0,8,,,,,,,,,7,,,57,0
8160,note_on,0,0,2,,,,,,,,,1,,,77,100
8160,note_on,450,0,2,,,,,,,,,1,,,70,100
8160,note_on,0,0,8,,,,,,,,,7,,,62,100
8160,note_on,6,0,8,,,,,,,,,7,,,58,100
8160,note_on,0,0,3,,,,,,,,,2,,,65,100
8160,note_on,480,0,3,,,,,,,,,2,,,50,0
8160,note_on,360,0,6,,,,,,,,,5,,,50,100
8160,note_on,0,0,3,,,,,,,,,2,,,53,100
8160,note_on,0,0,4,,,,,,,,,3,,,62,100
8160,note_on,0,0,5,,,,,,,,,4,,,74,100
8160,note_on,450,0,5,,,,,,,,,4,,,62,100
8160,note_on,0,0,1,,,,,,,,,0,,,82,100
8160,note_on,450,0,1,,,,,,,,,0,,,86,100
8160,note_on,450,0,4,,,,,,,,,3,,,50,100
8160,note_on,0,0,7,,,,,,,,,6,,,62,100
8160,note_on,6,0,9,,,,,,,,,8,,,53,100
8160,note_on,30,0,7,,,,,,,,,6,,,58,100
8220,note_on,480,0,10,,,,,,,,,10,,,46,127
8220,note_on,480,0,11,,,,,,,,,11,,,34,127
8250,note_on,30,0,10,,,,,,,,,10,,,46,0
8250,note_on,30,0,11,,,,,,,,,11,,,34,0
8280,note_on,30,0,11,,,,,,,,,11,,,38,127
8280,note_on,0,0,6,,,,,,,,,5,,,50,100
8280,note_on,30,0,10,,,,,,,,,10,,,50,127
8280,note_on,120,0,6,,,,,,,,,5,,,50,0
8310,note_on,30,0,11,,,,,,,,,11,,,38,0
8310,note_on,30,0,10,,,,,,,,,10,,,50,0
8340,note_on,0,0,8,,,,,,,,,7,,,58,0
8340,note_on,0,0,8,,,,,,,,,7,,,58,100
8340,note_on,0,0,8,,,,,,,,,7,,,62,100
8340,note_on,30,0,11,,,,,,,,,11,,,41,127
8340,note_on,30,0,10,,,,,,,,,10,,,53,127
8340,note_on,180,0,8,,,,,,,,,7,,,62,0
8340,note_on,60,0,6,,,,,,,,,5,,,50,0
8340,note_on,180,0,9,,,,,,,,,8,,,53,0
8340,note_on,0,0,7,,,,,,,,,6,,,62,100
8340,note_on,0,0,7,,,,,,,,,6,,,58,100
8340,note_on,0,0,7,,,,,,,,,6,,,58,0
8340,note_on,180,0,7,,,,,,,,,6,,,62,0
8340,note_on,0,0,9,,,,,,,,,8,,,53,100
8370,note_on,30,0,6,,,,,,,,,5,,,50,100
8370,note_on,30,0,10,,,,,,,,,10,,,53,0
8370,note_on,30,0,11,,,,,,,,,11,,,41,0
8400,note_on,30,0,11,,,,,,,,,11,,,46,127
8400,note_on,30,0,6,,,,,,,,,5,,,50,0
8400,note_on,30,0,10,,,,,,,,,10,,,58,127
8400,note_on,0,0,6,,,,,,,,,5,,,50,100
8430,note_on,30,0,10,,,,,,,,,10,,,58,0
8430,note_on,30,0,11,,,,,,,,,11,,,46,0
8460,note_on,120,0,8,,,,,,,,,7,,,62,0
8460,note_on,0,0,8,,,,,,,,,7,,,58,0
8460,note_on,120,0,9,,,,,,,,,8,,,53,0
8460,note_on,0,0,9,,,,,,,,,8,,,53,100
8460,note_on,0,0,7,,,,,,,,,6,,,62,100
8460,note_on,60,0,6,,,,,,,,,5,,,50,0
8460,note_on,0,0,6,,,,,,,,,5,,,50,100
8460,note_on,30,0,10,,,,,,,,,10,,,53,127
8460,note_on,0,0,8,,,,,,,,,7,,,58,100
8460,note_on,120,0,7,,,,,,,,,6,,,62,0
8460,note_on,0,0,7,,,,,,,,,6,,,58,0
8460,note_on,0,0,7,,,,,,,,,6,,,58,100
8460,note_on,30,0,11,,,,,,,,,11,,,41,127
8460,note_on,0,0,8,,,,,,,,,7,,,62,100
8490,note_on,30,0,10,,,,,,,,,10,,,53,0
8490,note_on,30,0,11,,,,,,,,,11,,,41,0
8520,note_on,60,0,6,,,,,,,,,5,,,50,0
8520,note_on,0,0,6,,,,,,,,,5,,,50,100
8520,note_on,30,0,10,,,,,,,,,10,,,50,127
8520,note_on,30,0,11,,,,,,,,,11,,,38,127
8550,note_on,30,0,10,,,,,,,,,10,,,50,0
8550,note_on,30,0,11,,,,,,,,,11,,,38,0
8580,note_on,0,0,7,,,,,,,,,6,,,58,100
8580,note_on,120,0,7,,,,,,,,,6,,,62,0
8580,note_on,120,0,9,,,,,,,,,8,,,53,0
8580,note_on,0,0,7,,,,,,,,,6,,,58,0
8580,note_on,0,0,7,,,,,,,,,6,,,62,100
8580,note_on,0,0,8,,,,,,,,,7,,,62,100
8580,note_on,0,0,8,,,,,,,,,7,,,58,100
8580,note_on,120,0,8,,,,,,,,,7,,,62,0
8580,note_on,0,0,8,,,,,,,,,7,,,58,0
8580,note_on,0,0,6,,,,,,,,,5,,,50,100
8580,note_on,60,0,6,,,,,,,,,5,,,50,0
8580,note_on,30,0,10,,,,,,,,,10,,,53,127
8580,note_on,0,0,9,,,,,,,,,8,,,53,100
8580,note_on,30,0,11,,,,,,,,,11,,,41,127
8610,note_on,30,0,11,,,,,,,,,11,,,41,0
8610,note_on,30,0,10,,,,,,,,,10,,,53,0
8640,note_on,60,0,6,,,,,,,,,5,,,50,0
8640,note_on,480,0,3,,,,,,,,,2,,,53,0
8640,note_on,30,0,11,,,,,,,,,11,,,34,127
8640,note_on,30,0,10,,,,,,,,,10,,,46,127
8640,note_on,0,0,3,,,,,,,,,2,,,46,50
8640,note_on,0,0,3,,,,,,,,,2,,,65,0
8640,note_on,0,0,6,,,,,,,,,5,,,50,100
8670,note_on,90,0,9,,,,,,,,,8,,,53,0
8670,note_on,0,0,8,,,,,,,,,7,,,58,50
8670,note_on,0,0,8,,,,,,,,,7,,,58,0
8670,note_on,90,0,8,,,,,,,,,7,,,62,0
8670,note_on,0,0,5,,,,,,,,,4,,,62,0
8670,note_on,510,0,5,,,,,,,,,4,,,74,0
8670,note_on,0,0,8,,,,,,,,,7,,,62,50
8670,note_on,0,0,9,,,,,,,,,8,,,53,50
8670,note_on,0,0,1,,,,,,,,,0,,,86,0
8670,note_on,510,0,4,,,,,,,,,3,,,62,0
8670,note_on,0,0,4,,,,,,,,,3,,,50,0
8670,note_on,510,0,1,,,,,,,,,0,,,82,0
8670,note_on,90,0,7,,,,,,,,,6,,,62,0
8670,note_on,0,0,7,,,,,,,,,6,,,58,0
8670,note_on,510,0,2,,,,,,,,,1,,,77,0
8670,note_on,0,0,2,,,,,,,,,1,,,70,0
8694,note_on,0,0,8,,,,,,,,,7,,,58,0
8694,note_on,24,0,8,,,,,,,,,7,,,62,0
8694,note_on,24,0,9,,,,,,,,,8,,,53,0
8700,note_on,6,0,9,,,,,,,,,8,,,53,50
8700,note_on,0,0,8,,,,,,,,,7,,,62,50
8700,note_on,6,0,8,,,,,,,,,7,,,58,50
8700,note_on,60,0,11,,,,,,,,,11,,,34,0
8700,note_on,30,0,7,,,,,,,,,6,,,63,50
8700,note_on,60,0,10,,,,,,,,,10,,,46,0
8715,note_on,15,0,7,,,,,,,,,6,,,63,0
8715,note_on,0,0,7,,,,,,,,,6,,,62,50
8724,note_on,24,0,9,,,,,,,,,8,,,53,0
8724,note_on,24,0,8,,,,,,,,,7,,,62,0
8724,note_on,0,0,8,,,,,,,,,7,,,58,0
8730,note_on,6,0,9,,,,,,,,,8,,,53,50
8730,note_on,6,0,8,,,,,,,,,7,,,58,50
8730,note_on,15,0,7,,,,,,,,,6,,,62,0
8730,note_on,0,0,7,,,,,,,,,6,,,60,50
8730,note_on,0,0,8,,,,,,,,,7,,,62,50
8745,note_on,15,0,7,,,,,,,,,6,,,60,0
8745,note_on,0,0,7,,,,,,,,,6,,,62,50
8754,note_on,24,0,9,,,,,,,,,8,,,53,0
8754,note_on,24,0,8,,,,,,,,,7,,,62,0
8754,note_on,0,0,8,,,,,,,,,7,,,58,0
8760,note_on,15,0,7,,,,,,,,,6,,,62,0
8760,note_on,0,0,7,,,,,,,,,6,,,65,50
8760,note_on,0,0,8,,,,,,,,,7,,,62,50
8760,note_on,120,0,6,,,,,,,,,5,,,50,0
8760,note_on,6,0,9,,,,,,,,,8,,,53,50
8760,note_on,6,0,8,,,,,,,,,7,,,58,50
8784,note_on,24,0,8,,,,,,,,,7,,,62,0
8784,note_on,24,0,9,,,,,,,,,8,,,53,0
8784,note_on,0,0,8,,,,,,,,,7,,,58,0
8790,note_on,30,0,7,,,,,,,,,6,,,65,0
8790,note_on,6,0,8,,,,,,,,,7,,,58,50
8790,note_on,0,0,8,,,,,,,,,7,,,62,50
8790,note_on,6,0,9,,,,,,,,,8,,,53,50
8814,note_on,24,0,8,,,,,,,,,7,,,62,0
8814,note_on,0,0,8,,,,,,,,,7,,,58,0
8814,note_on,24,0,9,,,,,,,,,8,,,53,0
8820,note_on,30,0,7,,,,,,,,,6,,,72,50
8820,note_on,0,0,8,,,,,,,,,7,,,62,50
8820,note_on,6,0,8,,,,,,,,,7,,,58,50
8820,note_on,6,0,9,,,,,,,,,8,,,53,50
8835,note_on,15,0,7,,,,,,,,,6,,,72,0
8835,note_on,0,0,7,,,,,,,,,6,,,70,50
8844,note_on,24,0,9,,,,,,,,,8,,,53,0
8844,note_on,24,0,8,,,,,,,,,7,,,62,0
8844,note_on,0,0,8,,,,,,,,,7,,,58,0
8850,note_on,6,0,8,,,,,,,,,7,,,58,50
8850,note_on,6,0,9,,,,,,,,,8,,,53,50
8850,note_on,15,0,7,,,,,,,,,6,,,70,0
8850,note_on,0,0,7,,,,,,,,,6,,,69,50
8850,note_on,0,0,8,,,,,,,,,7,,,62,50
8865,note_on,15,0,7,,,,,,,,,6,,,69,0
8865,note_on,0,0,7,,,,,,,,,6,,,70,50
8874,note_on,0,0,8,,,,,,,,,7,,,58,0
8874,note_on,24,0,9,,,,,,,,,8,,,53,0
8874,note_on,24,0,8,,,,,,,,,7,,,62,0
8880,note_on,6,0,9,,,,,,,,,8,,,53,50
8880,note_on,0,0,7,,,,,,,,,6,,,74,50
8880,note_on,6,0,8,,,,,,,,,7,,,58,50
8880,note_on,15,0,7,,,,,,,,,6,,,70,0
8880,note_on,0,0,8,,,,,,,,,7,,,62,50
8904,note_on,0,0,8,,,,,,,,,7,,,58,0
8904,note_on,24,0,9,,,,,,,,,8,,,53,0
8904,note_on,24,0,8,,,,,,,,,7,,,62,0
8910,note_on,30,0,7,,,,,,,,,6,,,74,0
8910,note_on,6,0,8,,,,,,,,,7,,,58,50
8910,note_on,0,0,8,,,,,,,,,7,,,62,50
8910,note_on,6,0,9,,,,,,,,,8,,,53,50
8934,note_on,24,0,8,,,,,,,,,7,,,62,0
8934,note_on,0,0,8,,,,,,,,,7,,,58,0
8934,note_on,24,0,9,,,,,,,,,8,,,53,0
8940,note_on,0,0,8,,,,,,,,,7,,,62,50
8940,note_on,6,0,8,,,,,,,,,7,,,58,50
8940,note_on,6,0,9,,,,,,,,,8,,,53,50
8940,note_on,30,0,7,,,,,,,,,6,,,79,50
8955,note_on,0,0,7,,,,,,,,,6,,,77,50
8955,note_on,15,0,7,,,,,,,,,6,,,79,0
8964,note_on,0,0,8,,,,,,,,,7,,,58,0
8964,note_on,24,0,8,,,,,,,,,7,,,62,0
8964,note_on,24,0,9,,,,,,,,,8,,,53,0
8970,note_on,6,0,8,,,,,,,,,7,,,58,50
8970,note_on,0,0,7,,,,,,,,,6,,,75,50
8970,note_on,15,0,7,,,,,,,,,6,,,77,0
8970,note_on,6,0,9,,,,,,,,,8,,,53,50
8970,note_on,0,0,8,,,,,,,,,7,,,62,50
8985,note_on,15,0,7,,,,,,,,,6,,,75,0
8985,note_on,0,0,7,,,,,,,,,6,,,77,50
8994,note_on,24,0,9,,,,,,,,,8,,,53,0
8994,note_on,0,0,8,,,,,,,,,7,,,58,0
8994,note_on,24,0,8,,,,,,,,,7,,,62,0
9000,note_on,0,0,7,,,,,,,,,6,,,82,50
9000,note_on,15,0,7,,,,,,,,,6,,,77,0
9000,note_on,0,0,8,,,,,,,,,7,,,62,50
9000,note_on,6,0,9,,,,,,,,,8,,,53,50
9000,note_on,6,0,8,,,,,,,,,7,,,58,50
9024,note_on,24,0,8,,,,,,,,,7,,,62,0
9024,note_on,0,0,8,,,,,,,,,7,,,58,0
9024,note_on,24,0,9,,,,,,,,,8,,,53,0
9030,note_on,30,0,7,,,,,,,,,6,,,82,0
9030,note_on,6,0,9,,,,,,,,,8,,,53,50
9030,note_on,6,0,8,,,,,,,,,7,,,58,50
9030,note_on,0,0,8,,,,,,,,,7,,,62,50
9054,note_on,24,0,9,,,,,,,,,8,,,53,0
9054,note_on,0,0,8,,,,,,,,,7,,,58,0
9054,note_on,24,0,8,,,,,,,,,7,,,62,0
9060,note_on,0,0,8,,,,,,,,,7,,,62,50
9060,note_on,6,0,9,,,,,,,,,8,,,53,50
9060,note_on,30,0,7,,,,,,,,,6,,,86,50
9060,note_on,6,0,8,,,,,,,,,7,,,58,50
9084,note_on,24,0,9,,,,,,,,,8,,,53,0
9084,note_on,24,0,8,,,,,,,,,7,,,62,0
9084,note_on,0,0,8,,,,,,,,,7,,,58,0
9090,note_on,0,0,8,,,,,,,,,7,,,62,50
9090,note_on,6,0,8,,,,,,,,,7,,,58,50
9090,note_on,6,0,9,,,,,,,,,8,,,53,50
9090,note_on,30,0,7,,,,,,,,,6,,,86,0
9114,note_on,24,0,9,,,,,,,,,8,,,53,0
9114,note_on,0,0,8,,,,,,,,,7,,,58,0
9114,note_on,24,0,8,,,,,,,,,7,,,62,0
9120,note_on,0,0,7,,,,,,,,,6,,,63,100
9120,note_on,0,0,8,,,,,,,,,7,,,63,100
9120,note_on,450,0,4,,,,,,,,,3,,,45,100
9120,note_on,0,0,4,,,,,,,,,3,,,57,100
9120,note_on,6,0,8,,,,,,,,,7,,,60,100
9120,note_on,30,0,7,,,,,,,,,6,,,60,100
9120,note_on,0,0,2,,,,,,,,,1,,,81,100
9120,note_on,450,0,5,,,,,,,,,4,,,57,100
9120,note_on,0,0,5,,,,,,,,,4,,,69,100
9120,note_on,360,0,6,,,,,,,,,5,,,45,100
9120,note_on,0,0,1,,,,,,,,,0,,,84,100
9120,note_on,450,0,1,,,,,,,,,0,,,87,100
9120,note_on,480,0,3,,,,,,,,,2,,,46,0
9120,note_on,0,0,3,,,,,,,,,2,,,51,100
9120,note_on,0,0,3,,,,,,,,,2,,,48,100
9120,note_on,6,0,9,,,,,,,,,8,,,53,100
9120,note_on,0,0,9,,,,,,,,,8,,,57,100
9120,note_on,450,0,2,,,,,,,,,1,,,72,100
9180,note_on,480,0,10,,,,,,,,,10,,,41,127
9180,note_on,480,0,11,,,,,,,,,11,,,29,127
9210,note_on,30,0,10,,,,,,,,,10,,,41,0
9210,note_on,30,0,11,,,,,,,,,11,,,29,0
9240,note_on,30,0,10,,,,,,,,,10,,,45,127
9240,note_on,30,0,11,,,,,,,,,11,,,33,127
9240,note_on,0,0,6,,,,,,,,,5,,,45,100
9240,note_on,120,0,6,,,,,,,,,5,,,45,0
9270,note_on,30,0,10,,,,,,,,,10,,,45,0
9270,note_on,30,0,11,,,,,,,,,11,,,33,0
9300,note_on,0,0,9,,,,,,,,,8,,,53,0
9300,note_on,180,0,9,,,,,,,,,8,,,57,0
9300,note_on,30,0,11,,,,,,,,,11,,,36,127
9300,note_on,0,0,9,,,,,,,,,8,,,57,100
9300,note_on,0,0,9,,,,,,,,,8,,,53,100
9300,note_on,180,0,8,,,,,,,,,7,,,63,0
9300,note_on,30,0,10,,,,,,,,,10,,,48,127
9300,note_on,0,0,8,,,,,,,,,7,,,60,0
9300,note_on,0,0,7,,,,,,,,,6,,,60,0
9300,note_on,60,0,6,,,,,,,,,5,,,45,0
9300,note_on,0,0,8,,,,,,,,,7,,,63,100
9300,note_on,0,0,8,,,,,,,,,7,,,60,100
9300,note_on,0,0,7,,,,,,,,,6,,,63,100
9300,note_on,180,0,7,,,,,,,,,6,,,63,0
9300,note_on,0,0,7,,,,,,,,,6,,,60,100
9330,note_on,30,0,11,,,,,,,,,11,,,36,0
9330,note_on,30,0,6,,,,,,,,,5,,,45,100
9330,note_on,30,0,10,,,,,,,,,10,,,48,0
9360,note_on,30,0,11,,,,,,,,,11,,,41,127
9360,note_on,30,0,6,,,,,,,,,5,,,45,0
9360,note_on,30,0,10,,,,,,,,,10,,,53,127
9360,note_on,0,0,6,,,,,,,,,5,,,45,100
9390,note_on,30,0,11,,,,,,,,,11,,,41,0
9390,note_on,30,0,10,,,,,,,,,10,,,53,0
9420,note_on,0,0,9,,,,,,,,,8,,,57,0
9420,note_on,0,0,9,,,,,,,,,8,,,57,100
9420,note_on,0,0,9,,,,,,,,,8,,,53,100
9420,note_on,0,0,8,,,,,,,,,7,,,60,100
9420,note_on,0,0,8,,,,,,,,,7,,,63,100
9420,note_on,120,0,9,,,,,,,,,8,,,53,0
9420,note_on,120,0,8,,,,,,,,,7,,,63,0
9420,note_on,60,0,6,,,,,,,,,5,,,45,0
9420,note_on,0,0,6,,,,,,,,,5,,,45,100
9420,note_on,0,0,7,,,,,,,,,6,,,60,100
9420,note_on,0,0,8,,,,,,,,,7,,,60,0
9420,note_on,0,0,7,,,,,,,,,6,,,60,0
9420,note_on,120,0,7,,,,,,,,,6,,,63,0
9420,note_on,30,0,11,,,,,,,,,11,,,36,127
9420,note_on,30,0,10,,,,,,,,,10,,,48,127
9420,note_on,0,0,7,,,,,,,,,6,,,63,100
9450,note_on,30,0,11,,,,,,,,,11,,,36,0
9450,note_on,30,0,10,,,,,,,,,10,,,48,0
9480,note_on,30,0,10,,,,,,,,,10,,,45,127
9480,note_on,30,0,11,,,,,,,,,11,,,33,127
9480,note_on,0,0,6,,,,,,,,,5,,,45,100
9480,note_on,60,0,6,,,,,,,,,5,,,45,0
9510,note_on,30,0,10,,,,,,,,,10,,,45,0
9510,note_on,30,0,11,,,,,,,,,11,,,33,0
9540,note_on,60,0,6,,,,,,,,,5,,,45,0
9540,note_on,30,0,10,,,,,,,,,10,,,48,127
9540,note_on,0,0,6,,,,,,,,,5,,,45,100
9540,note_on,0,0,9,,,,,,,,,8,,,57,100
9540,note_on,120,0,7,,,,,,,,,6,,,60,0
9540,note_on,0,0,7,,,,,,,,,6,,,63,0
9540,note_on,30,0,11,,,,,,,,,11,,,36,127
9540,note_on,0,0,7,,,,,,,,,6,,,63,100
9540,note_on,0,0,8,,,,,,,,,7,,,63,100
9540,note_on,0,0,8,,,,,,,,,7,,,60,100
9540,note_on,0,0,9,,,,,,,,,8,,,53,100
9540,note_on,0,0,9,,,,,,,,,8,,,53,0
9540,note_on,0,0,8,,,,,,,,,7,,,60,0
9540,note_on,120,0,8,,,,,,,,,7,,,63,0
9540,note_on,120,0,9,,,,,,,,,8,,,57,0
9540,note_on,0,0,7,,,,,,,,,6,,,60,100
9570,note_on,30,0,10,,,,,,,,,10,,,48,0
9570,note_on,30,0,11,,,,,,,,,11,,,36,0
9600,note_on,30,0,10,,,,,,,,,10,,,41,127
9600,note_on,0,0,6,,,,,,,,,5,,,45,100
9600,note_on,60,0,6,,,,,,,,,5,,,45,0
9600,note_on,480,0,3,,,,,,,,,2,,,48,0
9600,note_on,0,0,3,,,,,,,,,2,,,51,0
9600,note_on,30,0,11,,,,,,,,,11,,,29,127
9600,note_on,0,0,3,,,,,,,,,2,,,41,50
9630,note_on,0,0,7,,,,,,,,,6,,,60,0
9630,note_on,90,0,9,,,,,,,,,8,,,57,0
9630,note_on,0,0,1,,,,,,,,,0,,,87,0
9630,note_on,510,0,1,,,,,,,,,0,,,84,0
9630,note_on,0,0,9,,,,,,,,,8,,,53,50
9630,note_on,0,0,9,,,,,,,,,8,,,53,0
9630,note_on,90,0,7,,,,,,,,,6,,,63,0
9630,note_on,0,0,9,,,,,,,,,8,,,57,50
9630,note_on,0,0,5,,,,,,,,,4,,,57,0
9630,note_on,510,0,5,,,,,,,,,4,,,69,0
9630,note_on,0,0,4,,,,,,,,,3,,,45,0
9630,note_on,0,0,2,,,,,,,,,1,,,72,0
9630,note_on,510,0,2,,,,,,,,,1,,,81,0
9630,note_on,0,0,8,,,,,,,,,7,,,63,50
9630,note_on,0,0,8,,,,,,,,,7,,,60,50
9630,note_on,0,0,8,,,,,,,,,7,,,60,0
9630,note_on,510,0,4,,,,,,,,,3,,,57,0
9630,note_on,90,0,8,,,,,,,,,7,,,63,0
9654,note_on,24,0,9,,,,,,,,,8,,,53,0
9654,note_on,0,0,9,,,,,,,,,8,,,57,0
9654,note_on,24,0,8,,,,,,,,,7,,,63,0
9654,note_on,0,0,8,,,,,,,,,7,,,60,0
9660,note_on,30,0,7,,,,,,,,,6,,,65,50
9660,note_on,60,0,11,,,,,,,,,11,,,29,0
9660,note_on,60,0,6,,,,,,,,,5,,,45,0
9660,note_on,6,0,9,,,,,,,,,8,,,57,50
9660,note_on,6,0,8,,,,,,,,,7,,,60,50
9660,note_on,0,0,8,,,,,,,,,7,,,63,50
9660,note_on,0,0,9,,,,,,,,,8,,,53,50
9660,note_on,60,0,10,,,,,,,,,10,,,41,0
9675,note_on,0,0,7,,,,,,,,,6,,,63,50
9675,note_on,15,0,7,,,,,,,,,6,,,65,0
9684,note_on,24,0,9,,,,,,,,,8,,,53,0
9684,note_on,0,0,9,,,,,,,,,8,,,57,0
9684,note_on,0,0,8,,,,,,,,,7,,,60,0
9684,note_on,24,0,8,,,,,,,,,7,,,63,0
9690,note_on,0,0,7,,,,,,,,,6,,,62,50
9690,note_on,0,0,8,,,,,,,,,7,,,63,50
9690,note_on,6,0,8,,,,,,,,,7,,,60,50
9690,note_on,15,0,7,,,,,,,,,6,,,63,0
9690,note_on,0,0,9,,,,,,,,,8,,,53,50
9690,note_on,6,0,9,,,,,,,,,8,,,57,50
9705,note_on,15,0,7,,,,,,,,,6,,,62,0
9705,note_on,0,0,7,,,,,,,,,6,,,63,50
9714,note_on,24,0,9,,,,,,,,,8,,,53,0
9714,note_on,24,0,8,,,,,,,,,7,,,63,0
9714,note_on,0,0,9,,,,,,,,,8,,,57,0
9714,note_on,0,0,8,,,,,,,,,7,,,60,0
9720,note_on,6,0,8,,,,,,,,,7,,,60,50
9720,note_on,15,0,7,,,,,,,,,6,,,63,0
9720,note_on,0,0,8,,,,,,,,,7,,,63,50
9720,note_on,0,0,7,,,,,,,,,6,,,69,50
9720,note_on,6,0,9,,,,,,,,,8,,,57,50
9720,note_on,0,0,9,,,,,,,,,8,,,53,50
9744,note_on,24,0,8,,,,,,,,,7,,,63,0
9744,note_on,0,0,8,,,,,,,,,7,,,60,0
9744,note_on,24,0,9,,,,,,,,,8,,,53,0
9744,note_on,0,0,9,,,,,,,,,8,,,57,0
9750,note_on,30,0,7,,,,,,,,,6,,,69,0
9750,note_on,6,0,8,,,,,,,,,7,,,60,50
9750,note_on,0,0,8,,,,,,,,,7,,,63,50
9750,note_on,6,0,9,,,,,,,,,8,,,57,50
9750,note_on,0,0,9,,,,,,,,,8,,,53,50
9774,note_on,24,0,8,,,,,,,,,7,,,63,0
9774,note_on,0,0,8,,,,,,,,,7,,,60,0
9774,note_on,24,0,9,,,,,,,,,8,,,53,0
9774,note_on,0,0,9,,,,,,,,,8,,,57,0
9780,note_on,6,0,9,,,,,,,,,8,,,57,50
9780,note_on,0,0,9,,,,,,,,,8,,,53,50
9780,note_on,30,0,7,,,,,,,,,6,,,74,50
9780,note_on,6,0,8,,,,,,,,,7,,,60,50
9780,note_on,0,0,8,,,,,,,,,7,,,63,50
9795,note_on,15,0,7,,,,,,,,,6,,,74,0
9795,note_on,0,0,7,,,,,,,,,6,,,72,50
9804,note_on,0,0,9,,,,,,,,,8,,,57,0
9804,note_on,24,0,9,,,,,,,,,8,,,53,0
9804,note_on,0,0,8,,,,,,,,,7,,,60,0
9804,note_on,24,0,8,,,,,,,,,7,,,63,0
9810,note_on,0,0,7,,,,,,,,,6,,,70,50
9810,note_on,15,0,7,,,,,,,,,6,,,72,0
9810,note_on,6,0,8,,,,,,,,,7,,,60,50
9810,note_on,0,0,8,,,,,,,,,7,,,63,50
9810,note_on,0,0,9,,,,,,,,,8,,,53,50
9810,note_on,6,0,9,,,,,,,,,8,,,57,50
9825,note_on,15,0,7,,,,,,,,,6,,,70,0
9825,note_on,0,0,7,,,,,,,,,6,,,72,50
9834,note_on,0,0,9,,,,,,,,,8,,,57,0
9834,note_on,0,0,8,,,,,,,,,7,,,60,0
9834,note_on,24,0,8,,,,,,,,,7,,,63,0
9834,note_on,24,0,9,,,,,,,,,8,,,53,0
9840,note_on,0,0,8,,,,,,,,,7,,,63,50
9840,note_on,15,0,7,,,,,,,,,6,,,72,0
9840,note_on,6,0,8,,,,,,,,,7,,,60,50
9840,note_on,0,0,7,,,,,,,,,6,,,75,50
9840,note_on,6,0,9,,,,,,,,,8,,,57,50
9840,note_on,0,0,9,,,,,,,,,8,,,53,50
9864,note_on,0,0,8,,,,,,,,,7,,,60,0
9864,note_on,24,0,8,,,,,,,,,7,,,63,0
9864,note_on,24,0,9,,,,,,,,,8,,,53,0
9864,note_on,0,0,9,,,,,,,,,8,,,57,0
9870,note_on,6,0,8,,,,,,,,,7,,,60,50
9870,note_on,30,0,7,,,,,,,,,6,,,75,0
9870,note_on,6,0,9,,,,,,,,,8,,,57,50
9870,note_on,0,0,9,,,,,,,,,8,,,53,50
9870,note_on,0,0,8,,,,,,,,,7,,,63,50
9894,note_on,0,0,9,,,,,,,,,8,,,57,0
9894,note_on,0,0,8,,,,,,,,,7,,,60,0
9894,note_on,24,0,8,,,,,,,,,7,,,63,0
9894,note_on,24,0,9,,,,,,,,,8,,,53,0
9900,note_on,6,0,9,,,,,,,,,8,,,57,50
9900,note_on,0,0,9,,,,,,,,,8,,,53,50
9900,note_on,0,0,8,,,,,,,,,7,,,63,50
9900,note_on,6,0,8,,,,,,,,,7,,,60,50
9900,note_on,30,0,7,,,,,,,,,6,,,82,50
9915,note_on,0,0,7,,,,,,,,,6,,,81,50
9915,note_on,15,0,7,,,,,,,,,6,,,82,0
9924,note_on,24,0,9,,,,,,,,,8,,,53,0
9924,note_on,0,0,9,,,,,,,,,8,,,57,0
9924,note_on,0,0,8,,,,,,,,,7,,,60,0
9924,note_on,24,0,8,,,,,,,,,7,,,63,0
9930,note_on,6,0,8,,,,,,,,,7,,,60,50
9930,note_on,0,0,8,,,,,,,,,7,,,63,50
9930,note_on,6,0,9,,,,,,,,,8,,,57,50
9930,note_on,0,0,9,,,,,,,,,8,,,53,50
9930,note_on,0,0,7,,,,,,,,,6,,,79,50
9930,note_on,15,0,7,,,,,,,,,6,,,81,0
9945,note_on,15,0,7,,,,,,,,,6,,,79,0
9945,note_on,0,0,7,,,,,,,,,6,,,81,50
9954,note_on,0,0,9,,,,,,,,,8,,,57,0
9954,note_on,24,0,9,,,,,,,,,8,,,53,0
9954,note_on,24,0,8,,,,,,,,,7,,,63,0
9954,note_on,0,0,8,,,,,,,,,7,,,60,0
9960,note_on,0,0,9,,,,,,,,,8,,,53,50
9960,note_on,0,0,7,,,,,,,,,6,,,84,50
9960,note_on,6,0,9,,,,,,,,,8,,,57,50
9960,note_on,15,0,7,,,,,,,,,6,,,81,0
9960,note_on,6,0,8,,,,,,,,,7,,,60,50
9960,note_on,0,0,8,,,,,,,,,7,,,63,50
9984,note_on,0,0,8,,,,,,,,,7,,,60,0
9984,note_on,0,0,9,,,,,,,,,8,,,57,0
9984,note_on,24,0,8,,,,,,,,,7,,,63,0
9984,note_on,24,0,9,,,,,,,,,8,,,53,0
9990,note_on,30,0,7,,,,,,,,,6,,,84,0
9990,note_on,6,0,8,,,,,,,,,7,,,60,50
9990,note_on,0,0,8,,,,,,,,,7,,,63,50
9990,note_on,6,0,9,,,,,,,,,8,,,57,50
9990,note_on,0,0,9,,,,,,,,,8,,,53,50
10014,note_on,24,0,8,,,,,,,,,7,,,63,0
10014,note_on,0,0,8,,,,,,,,,7,,,60,0
10014,note_on,24,0,9,,,,,,,,,8,,,53,0
10014,note_on,0,0,9,,,,,,,,,8,,,57,0
10020,note_on,0,0,8,,,,,,,,,7,,,63,50
10020,note_on,6,0,8,,,,,,,,,7,,,60,50
10020,note_on,30,0,7,,,,,,,,,6,,,87,50
10020,note_on,0,0,9,,,,,,,,,8,,,53,50
10020,note_on,6,0,9,,,,,,,,,8,,,57,50
10044,note_on,0,0,8,,,,,,,,,7,,,60,0
10044,note_on,0,0,9,,,,,,,,,8,,,57,0
10044,note_on,24,0,8,,,,,,,,,7,,,63,0
10044,note_on,24,0,9,,,,,,,,,8,,,53,0
10050,note_on,6,0,9,,,,,,,,,8,,,57,50
10050,note_on,0,0,9,,,,,,,,,8,,,53,50
10050,note_on,30,0,7,,,,,,,,,6,,,87,0
10050,note_on,0,0,8,,,,,,,,,7,,,63,50
10050,note_on,6,0,8,,,,,,,,,7,,,60,50
10074,note_on,24,0,9,,,,,,,,,8,,,53,0
10074,note_on,24,0,8,,,,,,,,,7,,,63,0
10074,note_on,0,0,8,,,,,,,,,7,,,60,0
10074,note_on,0,0,9,,,,,,,,,8,,,57,0
10080,note_on,6,0,9,,,,,,,,,8,,,54,100
10080,note_on,480,0,3,,,,,,,,,2,,,41,0
10080,note_on,450,0,1,,,,,,,,,0,,,86,100
10080,note_on,0,0,1,,,,,,,,,0,,,84,100
10080,note_on,450,0,5,,,,,,,,,4,,,62,100
10080,note_on,0,0,5,,,,,,,,,4,,,74,100
10080,note_on,6,0,8,,,,,,,,,7,,,60,100
10080,note_on,0,0,4,,,,,,,,,3,,,62,100
10080,note_on,450,0,4,,,,,,,,,3,,,50,100
10080,note_on,450,0,2,,,,,,,,,1,,,72,100
10080,note_on,0,0,2,,,,,,,,,1,,,81,100
10080,note_on,420,0,6,,,,,,,,,5,,,50,100
10080,note_on,0,0,3,,,,,,,,,2,,,69,100
10080,note_on,0,0,3,,,,,,,,,2,,,60,100
10080,note_on,0,0,8,,,,,,,,,7,,,62,100
10080,note_on,30,0,7,,,,,,,,,6,,,60,100
10080,note_on,0,0,7,,,,,,,,,6,,,62,100
10080,note_on,0,0,9,,,,,,,,,8,,,57,100
10140,note_on,480,0,10,,,,,,,,,10,,,42,127
10140,note_on,480,0,11,,,,,,,,,11,,,30,127
10170,note_on,30,0,10,,,,,,,,,10,,,42,0
10170,note_on,30,0,11,,,,,,,,,11,,,30,0
10200,note_on,30,0,10,,,,,,,,,10,,,45,127
10200,note_on,30,0,11,,,,,,,,,11,,,33,127
10200,note_on,120,0,6,,,,,,,,,5,,,50,0
10200,note_on,0,0,6,,,,,,,,,5,,,50,100
10230,note_on,30,0,10,,,,,,,,,10,,,45,0
10230,note_on,30,0,11,,,,,,,,,11,,,33,0
10260,note_on,180,0,7,,,,,,,,,6,,,62,0
10260,note_on,0,0,7,,,,,,,,,6,,,60,0
10260,note_on,0,0,7,,,,,,,,,6,,,62,100
10260,note_on,0,0,7,,,,,,,,,6,,,60,100
10260,note_on,0,0,8,,,,,,,,,7,,,60,0
10260,note_on,0,0,8,,,,,,,,,7,,,60,100
10260,note_on,0,0,8,,,,,,,,,7,,,62,100
10260,note_on,30,0,11,,,,,,,,,11,,,38,127
10260,note_on,180,0,9,,,,,,,,,8,,,57,0
10260,note_on,0,0,9,,,,,,,,,8,,,54,0
10260,note_on,0,0,9,,,,,,,,,8,,,54,100
10260,note_on,0,0,9,,,,,,,,,8,,,57,100
10260,note_on,30,0,10,,,,,,,,,10,,,50,127
10260,note_on,180,0,8,,,,,,,,,7,,,62,0
10290,note_on,0,0,6,,,,,,,,,5,,,50,100
10290,note_on,30,0,11,,,,,,,,,11,,,38,0
10290,note_on,90,0,6,,,,,,,,,5,,,50,0
10290,note_on,30,0,10,,,,,,,,,10,,,50,0
10320,note_on,30,0,6,,,,,,,,,5,,,50,0
10320,note_on,0,0,6,,,,,,,,,5,,,50,100
10320,note_on,30,0,11,,,,,,,,,11,,,42,127
10320,note_on,30,0,10,,,,,,,,,10,,,54,127
10350,note_on,30,0,10,,,,,,,,,10,,,54,0
10350,note_on,30,0,11,,,,,,,,,11,,,42,0
10380,note_on,60,0,6,,,,,,,,,5,,,50,0
10380,note_on,0,0,6,,,,,,,,,5,,,50,100
10380,note_on,0,0,9,,,,,,,,,8,,,54,100
10380,note_on,30,0,10,,,,,,,,,10,,,50,127
10380,note_on,120,0,7,,,,,,,,,6,,,62,0
10380,note_on,0,0,7,,,,,,,,,6,,,60,0
10380,note_on,120,0,8,,,,,,,,,7,,,62,0
10380,note_on,0,0,8,,,,,,,,,7,,,60,0
10380,note_on,0,0,8,,,,,,,,,7,,,60,100
10380,note_on,0,0,8,,,,,,,,,7,,,62,100
10380,note_on,0,0,7,,,,,,,,,6,,,60,100
10380,note_on,0,0,7,,,,,,,,,6,,,62,100
10380,note_on,120,0,9,,,,,,,,,8,,,57,0
10380,note_on,0,0,9,,,,,,,,,8,,,57,100
10380,note_on,30,0,11,,,,,,,,,11,,,38,127
10380,note_on,0,0,9,,,,,,,,,8,,,54,0
10410,note_on,30,0,10,,,,,,,,,10,,,50,0
10410,note_on,30,0,11,,,,,,,,,11,,,38,0
10440,note_on,30,0,11,,,,,,,,,11,,,33,127
10440,note_on,60,0,6,,,,,,,,,5,,,50,0
10440,note_on,0,0,6,,,,,,,,,5,,,50,100
10440,note_on,30,0,10,,,,,,,,,10,,,45,127
10470,note_on,30,0,11,,,,,,,,,11,,,33,0
10470,note_on,30,0,10,,,,,,,,,10,,,45,0
10500,note_on,120,0,9,,,,,,,,,8,,,54,0
10500,note_on,0,0,6,,,,,,,,,5,,,50,100
10500,note_on,120,0,7,,,,,,,,,6,,,62,0
10500,note_on,60,0,6,,,,,,,,,5,,,50,0
10500,note_on,0,0,9,,,,,,,,,8,,,57,0
10500,note_on,120,0,8,,,,,,,,,7,,,62,0
10500,note_on,0,0,8,,,,,,,,,7,,,60,0
10500,note_on,0,0,8,,,,,,,,,7,,,62,100
10500,note_on,0,0,8,,,,,,,,,7,,,60,100
10500,note_on,0,0,7,,,,,,,,,6,,,62,100
10500,note_on,0,0,7,,,,,,,,,6,,,60,0
10500,note_on,0,0,9,,,,,,,,,8,,,54,100
10500,note_on,0,0,9,,,,,,,,,8,,,57,100
10500,note_on,0,0,7,,,,,,,,,6,,,60,100
10500,note_on,30,0,10,,,,,,,,,10,,,50,127
10500,note_on,30,0,11,,,,,,,,,11,,,38,127
10530,note_on,30,0,10,,,,,,,,,10,,,50,0
10530,note_on,30,0,11,,,,,,,,,11,,,38,0
10560,note_on,60,0,6,,,,,,,,,5,,,50,0
10560,note_on,0,0,6,,,,,,,,,5,,,50,100
10560,note_on,30,0,10,,,,,,,,,10,,,42,127
10560,note_on,0,0,3,,,,,,,,,2,,,42,50
10560,note_on,0,0,3,,,,,,,,,2,,,69,0
10560,note_on,480,0,3,,,,,,,,,2,,,60,0
10560,note_on,30,0,11,,,,,,,,,11,,,30,127
10590,note_on,0,0,7,,,,,,,,,6,,,60,0
10590,note_on,90,0,7,,,,,,,,,6,,,62,0
10590,note_on,510,0,4,,,,,,,,,3,,,62,0
10590,note_on,90,0,9,,,,,,,,,8,,,57,0
10590,note_on,0,0,9,,,,,,,,,8,,,54,0
10590,note_on,0,0,9,,,,,,,,,8,,,54,50
10590,note_on,510,0,2,,,,,,,,,1,,,81,0
10590,note_on,510,0,1,,,,,,,,,0,,,84,0
10590,note_on,0,0,4,,,,,,,,,3,,,50,0
10590,note_on,510,0,5,,,,,,,,,4,,,74,0
10590,note_on,0,0,5,,,,,,,,,4,,,62,0
10590,note_on,0,0,1,,,,,,,,,0,,,86,0
10590,note_on,0,0,8,,,,,,,,,7,,,62,50
10590,note_on,0,0,9,,,,,,,,,8,,,57,50
10590,note_on,90,0,8,,,,,,,,,7,,,60,0
10590,note_on,0,0,8,,,,,,,,,7,,,62,0
10590,note_on,0,0,8,,,,,,,,,7,,,60,50
10590,note_on,0,0,2,,,,,,,,,1,,,72,0
10614,note_on,24,0,9,,,,,,,,,8,,,57,0
10614,note_on,0,0,8,,,,,,,,,7,,,60,0
10614,note_on,0,0,9,,,,,,,,,8,,,54,0
10614,note_on,24,0,8,,,,,,,,,7,,,62,0
10620,note_on,30,0,7,,,,,,,,,6,,,64,50
10620,note_on,60,0,11,,,,,,,,,11,,,30,0
10620,note_on,0,0,8,,,,,,,,,7,,,62,50
10620,note_on,0,0,9,,,,,,,,,8,,,57,50
10620,note_on,6,0,9,,,,,,,,,8,,,54,50
10620,note_on,6,0,8,,,,,,,,,7,,,60,50
10620,note_on,60,0,6,,,,,,,,,5,,,50,0
10620,note_on,60,0,10,,,,,,,,,10,,,42,0
10635,note_on,0,0,7,,,,,,,,,6,,,62,50
10635,note_on,15,0,7,,,,,,,,,6,,,64,0
10644,note_on,0,0,9,,,,,,,,,8,,,54,0
10644,note_on,24,0,9,,,,,,,,,8,,,57,0
10644,note_on,0,0,8,,,,,,,,,7,,,60,0
10644,note_on,24,0,8,,,,,,,,,7,,,62,0
10650,note_on,0,0,7,,,,,,,,,6,,,61,50
10650,note_on,15,0,7,,,,,,,,,6,,,62,0
10650,note_on,0,0,8,,,,,,,,,7,,,62,50
10650,note_on,6,0,8,,,,,,,,,7,,,60,50
10650,note_on,0,0,9,,,,,,,,,8,,,57,50
10650,note_on,6,0,9,,,,,,,,,8,,,54,50
10665,note_on,15,0,7,,,,,,,,,6,,,61,0
10665,note_on,0,0,7,,,,,,,,,6,,,62,50
10674,note_on,24,0,8,,,,,,,,,7,,,62,0
10674,note_on,0,0,8,,,,,,,,,7,,,60,0
10674,note_on,24,0,9,,,,,,,,,8,,,57,0
10674,note_on,0,0,9,,,,,,,,,8,,,54,0
10680,note_on,0,0,7,,,,,,,,,6,,,66,50
10680,note_on,6,0,8,,,,,,,,,7,,,60,50
10680,note_on,0,0,8,,,,,,,,,7,,,62,50
10680,note_on,6,0,9,,,,,,,,,8,,,54,50
10680,note_on,0,0,9,,,,,,,,,8,,,57,50
10680,note_on,15,0,7,,,,,,,,,6,,,62,0
10704,note_on,24,0,8,,,,,,,,,7,,,62,0
10704,note_on,0,0,9,,,,,,,,,8,,,54,0
10704,note_on,0,0,8,,,,,,,,,7,,,60,0
10704,note_on,24,0,9,,,,,,,,,8,,,57,0
10710,note_on,30,0,7,,,,,,,,,6,,,66,0
10710,note_on,6,0,9,,,,,,,,,8,,,54,50
10710,note_on,6,0,8,,,,,,,,,7,,,60,50
10710,note_on,0,0,9,,,,,,,,,8,,,57,50
10710,note_on,0,0,8,,,,,,,,,7,,,62,50
10734,note_on,24,0,8,,,,,,,,,7,,,62,0
10734,note_on,0,0,9,,,,,,,,,8,,,54,0
10734,note_on,24,0,9,,,,,,,,,8,,,57,0
10734,note_on,0,0,8,,,,,,,,,7,,,60,0
10740,note_on,6,0,8,,,,,,,,,7,,,60,50
10740,note_on,0,0,8,,,,,,,,,7,,,62,50
10740,note_on,30,0,7,,,,,,,,,6,,,70,50
10740,note_on,6,0,9,,,,,,,,,8,,,54,50
10740,note_on,0,0,9,,,,,,,,,8,,,57,50
10755,note_on,15,0,7,,,,,,,,,6,,,70,0
10755,note_on,0,0,7,,,,,,,,,6,,,69,50
10764,note_on,24,0,9,,,,,,,,,8,,,57,0
10764,note_on,0,0,9,,,,,,,,,8,,,54,0
10764,note_on,24,0,8,,,,,,,,,7,,,62,0
10764,note_on,0,0,8,,,,,,,,,7,,,60,0
10770,note_on,6,0,8,,,,,,,,,7,,,60,50
10770,note_on,0,0,9,,,,,,,,,8,,,57,50
10770,note_on,15,0,7,,,,,,,,,6,,,69,0
10770,note_on,0,0,7,,,,,,,,,6,,,67,50
10770,note_on,6,0,9,,,,,,,,,8,,,54,50
10770,note_on,0,0,8,,,,,,,,,7,,,62,50
10785,note_on,15,0,7,,,,,,,,,6,,,67,0
10785,note_on,0,0,7,,,,,,,,,6,,,69,50
10794,note_on,24,0,9,,,,,,,,,8,,,57,0
10794,note_on,0,0,9,,,,,,,,,8,,,54,0
10794,note_on,0,0,8,,,,,,,,,7,,,60,0
10794,note_on,24,0,8,,,,,,,,,7,,,62,0
10800,note_on,0,0,7,,,,,,,,,6,,,74,50
10800,note_on,0,0,9,,,,,,,,,8,,,57,50
10800,note_on,6,0,9,,,,,,,,,8,,,54,50
10800,note_on,0,0,8,,,,,,,,,7,,,62,50
10800,note_on,6,0,8,,,,,,,,,7,,,60,50
10800,note_on,15,0,7,,,,,,,,,6,,,69,0
10824,note_on,0,0,8,,,,,,,,,7,,,60,0
10824,note_on,24,0,8,,,,,,,,,7,,,62,0
10824,note_on,0,0,9,,,,,,,,,8,,,54,0
10824,note_on,24,0,9,,,,,,,,,8,,,57,0
10830,note_on,6,0,9,,,,,,,,,8,,,54,50
10830,note_on,0,0,8,,,,,,,,,7,,,62,50
10830,note_on,30,0,7,,,,,,,,,6,,,74,0
10830,note_on,6,0,8,,,,,,,,,7,,,60,50
10830,note_on,0,0,9,,,,,,,,,8,,,57,50
10854,note_on,0,0,8,,,,,,,,,7,,,60,0
10854,note_on,24,0,8,,,,,,,,,7,,,62,0
10854,note_on,0,0,9,,,,,,,,,8,,,54,0
10854,note_on,24,0,9,,,,,,,,,8,,,57,0
10860,note_on,0,0,8,,,,,,,,,7,,,62,50
10860,note_on,0,0,9,,,,,,,,,8,,,57,50
10860,note_on,30,0,7,,,,,,,,,6,,,79,50
10860,note_on,6,0,8,,,,,,,,,7,,,60,50
10860,note_on,6,0,9,,,,,,,,,8,,,54,50
10875,note_on,15,0,7,,,,,,,,,6,,,79,0
10875,note_on,0,0,7,,,,,,,,,6,,,78,50
10884,note_on,0,0,9,,,,,,,,,8,,,54,0
10884,note_on,0,0,8,,,,,,,,,7,,,60,0
10884,note_on,24,0,9,,,,,,,,,8,,,57,0
10884,note_on,24,0,8,,,,,,,,,7,,,62,0
10890,note_on,15,0,7,,,,,,,,,6,,,78,0
10890,note_on,0,0,7,,,,,,,,,6,,,76,50
10890,note_on,0,0,8,,,,,,,,,7,,,62,50
10890,note_on,6,0,8,,,,,,,,,7,,,60,50
10890,note_on,0,0,9,,,,,,,,,8,,,57,50
10890,note_on,6,0,9,,,,,,,,,8,,,54,50
10905,note_on,0,0,7,,,,,,,,,6,,,78,50
10905,note_on,15,0,7,,,,,,,,,6,,,76,0
10914,note_on,24,0,9,,,,,,,,,8,,,57,0
10914,note_on,0,0,8,,,,,,,,,7,,,60,0
10914,note_on,24,0,8,,,,,,,,,7,,,62,0
10914,note_on,0,0,9,,,,,,,,,8,,,54,0
10920,note_on,6,0,9,,,,,,,,,8,,,54,50
10920,note_on,6,0,8,,,,,,,,,7,,,60,50
10920,note_on,0,0,9,,,,,,,,,8,,,57,50
10920,note_on,0,0,7,,,,,,,,,6,,,81,50
10920,note_on,15,0,7,,,,,,,,,6,,,78,0
10920,note_on,0,0,8,,,,,,,,,7,,,62,50
10944,note_on,24,0,9,,,,,,,,,8,,,57,0
10944,note_on,0,0,9,,,,,,,,,8,,,54,0
10944,note_on,0,0,8,,,,,,,,,7,,,60,0
10944,note_on,24,0,8,,,,,,,,,7,,,62,0
10950,note_on,30,0,7,,,,,,,,,6,,,81,0
10950,note_on,6,0,8,,,,,,,,,7,,,60,50
10950,note_on,0,0,8,,,,,,,,,7,,,62,50
10950,note_on,6,0,9,,,,,,,,,8,,,54,50
10950,note_on,0,0,9,,,,,,,,,8,,,57,50
10974,note_on,24,0,8,,,,,,,,,7,,,62,0
10974,note_on,24,0,9,,,,,,,,,8,,,57,0
10974,note_on,0,0,9,,,,,,,,,8,,,54,0
10974,note_on,0,0,8,,,,,,,,,7,,,60,0
10980,note_on,6,0,9,,,,,,,,,8,,,54,50
10980,note_on,30,0,7,,,,,,,,,6,,,84,50
10980,note_on,0,0,9,,,,,,,,,8,,,57,50
10980,note_on,6,0,8,,,,,,,,,7,,,60,50
10980,note_on,0,0,8,,,,,,,,,7,,,62,50
11004,note_on,24,0,8,,,,,,,,,7,,,62,0
11004,note_on,0,0,8,,,,,,,,,7,,,60,0
11004,note_on,0,0,9,,,,,,,,,8,,,54,0
11004,note_on,24,0,9,,,,,,,,,8,,,57,0
11010,note_on,30,0,7,,,,,,,,,6,,,84,0
11010,note_on,0,0,8,,,,,,,,,7,,,62,50
11010,note_on,6,0,8,,,,,,,,,7,,,60,50
11010,note_on,0,0,9,,,,,,,,,8,,,57,50
11010,note_on,6,0,9,,,,,,,,,8,,,54,50
11034,note_on,24,0,9,,,,,,,,,8,,,57,0
11034,note_on,24,0,8,,,,,,,,,7,,,62,0
11034,note_on,0,0,9,,,,,,,,,8,,,54,0
11034,note_on,0,0,8,,,,,,,,,7,,,60,0
11040,note_on,0,0,2,,,,,,,,,1,,,79,100
11040,note_on,30,0,7,,,,,,,,,6,,,58,100
11040,note_on,0,0,8,,,,,,,,,7,,,62,100
11040,note_on,480,0,3,,,,,,,,,2,,,42,0
11040,note_on,0,0,3,,,,,,,,,2,,,67,100
11040,note_on,0,0,3,,,,,,,,,2,,,58,100
11040,note_on,420,0,6,,,,,,,,,5,,,50,100
11040,note_on,450,0,2,,,,,,,,,1,,,70,100
11040,note_on,0,0,7,,,,,,,,,6,,,62,100
11040,note_on,450,0,5,,,,,,,,,4,,,62,100
11040,note_on,0,0,5,,,,,,,,,4,,,74,100
11040,note_on,6,0,9,,,,,,,,,8,,,55,100
11040,note_on,450,0,1,,,,,,,,,0,,,86,100
11040,note_on,0,0,1,,,,,,,,,0,,,82,100
11040,note_on,0,0,4,,,,,,,,,3,,,62,100
11040,note_on,450,0,4,,,,,,,,,3,,,50,100
11040,note_on,6,0,8,,,,,,,,,7,,,58,100
11100,note_on,480,0,10,,,,,,,,,10,,,43,127
11100,note_on,480,0,11,,,,,,,,,11,,,31,127
11130,note_on,30,0,10,,,,,,,,,10,,,43,0
11130,note_on,30,0,11,,,,,,,,,11,,,31,0
11160,note_on,0,0,6,,,,,,,,,5,,,50,100
11160,note_on,30,0,10,,,,,,,,,10,,,46,127
11160,note_on,120,0,6,,,,,,,,,5,,,50,0
11160,note_on,30,0,11,,,,,,,,,11,,,34,127
11190,note_on,30,0,10,,,,,,,,,10,,,46,0
11190,note_on,30,0,11,,,,,,,,,11,,,34,0
11220,note_on,180,0,7,,,,,,,,,6,,,62,0
11220,note_on,0,0,7,,,,,,,,,6,,,58,0
11220,note_on,0,0,7,,,,,,,,,6,,,58,100
11220,note_on,0,0,7,,,,,,,,,6,,,62,100
11220,note_on,30,0,11,,,,,,,,,11,,,38,127
11220,note_on,180,0,9,,,,,,,,,8,,,55,0
11220,note_on,0,0,9,,,,,,,,,8,,,55,100
11220,note_on,0,0,8,,,,,,,,,7,,,62,100
11220,note_on,0,0,8,,,,,,,,,7,,,58,100
11220,note_on,0,0,8,,,,,,,,,7,,,58,0
11220,note_on,180,0,8,,,,,,,,,7,,,62,0
11220,note_on,30,0,10,,,,,,,,,10,,,50,127
11250,note_on,30,0,11,,,,,,,,,11,,,38,0
11250,note_on,30,0,10,,,,,,,,,10,,,50,0
11250,note_on,90,0,6,,,,,,,,,5,,,50,0
11250,note_on,0,0,6,,,,,,,,,5,,,50,100
11280,note_on,30,0,11,,,,,,,,,11,,,43,127
11280,note_on,30,0,10,,,,,,,,,10,,,55,127
11280,note_on,0,0,6,,,,,,,,,5,,,50,100
11280,note_on,30,0,6,,,,,,,,,5,,,50,0
11310,note_on,30,0,11,,,,,,,,,11,,,43,0
11310,note_on,30,0,10,,,,,,,,,10,,,55,0
11340,note_on,0,0,7,,,,,,,,,6,,,58,0
11340,note_on,120,0,7,,,,,,,,,6,,,62,0
11340,note_on,30,0,11,,,,,,,,,11,,,38,127
11340,note_on,0,0,8,,,,,,,,,7,,,62,100
11340,note_on,0,0,8,,,,,,,,,7,,,58,100
11340,note_on,0,0,8,,,,,,,,,7,,,58,0
11340,note_on,120,0,8,,,,,,,,,7,,,62,0
11340,note_on,0,0,9,,,,,,,,,8,,,55,100
11340,note_on,60,0,6,,,,,,,,,5,,,50,0
11340,note_on,0,0,6,,,,,,,,,5,,,50,100
11340,note_on,120,0,9,,,,,,,,,8,,,55,0
11340,note_on,0,0,7,,,,,,,,,6,,,58,100
11340,note_on,30,0,10,,,,,,,,,10,,,50,127
11340,note_on,0,0,7,,,,,,,,,6,,,62,100
11370,note_on,30,0,10,,,,,,,,,10,,,50,0
11370,note_on,30,0,11,,,,,,,,,11,,,38,0
11400,note_on,0,0,6,,,,,,,,,5,,,50,100
11400,note_on,60,0,6,,,,,,,,,5,,,50,0
11400,note_on,30,0,10,,,,,,,,,10,,,46,127
11400,note_on,30,0,11,,,,,,,,,11,,,34,127
11430,note_on,30,0,10,,,,,,,,,10,,,46,0
11430,note_on,30,0,11,,,,,,,,,11,,,34,0
11460,note_on,60,0,6,,,,,,,,,5,,,50,0
11460,note_on,30,0,10,,,,,,,,,10,,,50,127
11460,note_on,30,0,11,,,,,,,,,11,,,38,127
11460,note_on,0,0,8,,,,,,,,,7,,,62,100
11460,note_on,0,0,8,,,,,,,,,7,,,58,100
11460,note_on,120,0,8,,,,,,,,,7,,,62,0
11460,note_on,0,0,6,,,,,,,,,5,,,50,100
11460,note_on,120,0,7,,,,,,,,,6,,,62,0
11460,note_on,0,0,7,,,,,,,,,6,,,58,0
11460,note_on,0,0,7,,,,,,,,,6,,,58,100
11460,note_on,0,0,7,,,,,,,,,6,,,62,100
11460,note_on,120,0,9,,,,,,,,,8,,,55,0
11460,note_on,0,0,9,,,,,,,,,8,,,55,100
11460,note_on,0,0,8,,,,,,,,,7,,,58,0
11490,note_on,30,0,10,,,,,,,,,10,,,50,0
11490,note_on,30,0,11,,,,,,,,,11,,,38,0
11520,note_on,0,0,6,,,,,,,,,5,,,50,100
11520,note_on,60,0,6,,,,,,,,,5,,,50,0
11520,note_on,30,0,10,,,,,,,,,10,,,43,127
11520,note_on,30,0,11,,,,,,,,,11,,,31,127
11520,note_on,0,0,3,,,,,,,,,2,,,67,0
11520,note_on,480,0,3,,,,,,,,,2,,,58,0
11520,note_on,0,0,3,,,,,,,,,2,,,43,50
11550,note_on,0,0,1,,,,,,,,,0,,,86,0
11550,note_on,0,0,8,,,,,,,,,7,,,58,50
11550,note_on,0,0,8,,,,,,,,,7,,,58,0
11550,note_on,90,0,8,,,,,,,,,7,,,62,0
11550,note_on,0,0,7,,,,,,,,,6,,,58,0
11550,note_on,510,0,1,,,,,,,,,0,,,82,0
11550,note_on,0,0,5,,,,,,,,,4,,,62,0
11550,note_on,510,0,5,,,,,,,,,4,,,74,0
11550,note_on,0,0,4,,,,,,,,,3,,,50,0
11550,note_on,510,0,4,,,,,,,,,3,,,62,0
11550,note_on,510,0,2,,,,,,,,,1,,,79,0
11550,note_on,90,0,9,,,,,,,,,8,,,55,0
11550,note_on,0,0,2,,,,,,,,,1,,,70,0
11550,note_on,0,0,9,,,,,,,,,8,,,55,50
11550,note_on,90,0,7,,,,,,,,,6,,,62,0
11550,note_on,0,0,8,,,,,,,,,7,,,62,50
11574,note_on,24,0,9,,,,,,,,,8,,,55,0
11574,note_on,0,0,8,,,,,,,,,7,,,58,0
11574,note_on,24,0,8,,,,,,,,,7,,,62,0
11580,note_on,60,0,11,,,,,,,,,11,,,31,0
11580,note_on,0,0,8,,,,,,,,,7,,,62,50
11580,note_on,6,0,8,,,,,,,,,7,,,58,50
11580,note_on,6,0,9,,,,,,,,,8,,,55,50
11580,note_on,60,0,10,,,,,,,,,10,,,43,0
11580,note_on,60,0,6,,,,,,,,,5,,,50,0
11580,note_on,30,0,7,,,,,,,,,6,,,63,50
11595,note_on,0,0,7,,,,,,,,,6,,,62,50
11595,note_on,15,0,7,,,,,,,,,6,,,63,0
11604,note_on,24,0,9,,,,,,,,,8,,,55,0
11604,note_on,0,0,8,,,,,,,,,7,,,58,0
11604,note_on,24,0,8,,,,,,,,,7,,,62,0
11610,note_on,0,0,8,,,,,,,,,7,,,62,50
11610,note_on,6,0,9,,,,,,,,,8,,,55,50
11610,note_on,6,0,8,,,,,,,,,7,,,58,50
11610,note_on,0,0,7,,,,,,,,,6,,,61,50
11610,note_on,15,0,7,,,,,,,,,6,,,62,0
11625,note_on,15,0,7,,,,,,,,,6,,,61,0
11625,note_on,0,0,7,,,,,,,,,6,,,62,50
11634,note_on,0,0,8,,,,,,,,,7,,,58,0
11634,note_on,24,0,9,,,,,,,,,8,,,55,0
11634,note_on,24,0,8,,,,,,,,,7,,,62,0
11640,note_on,6,0,8,,,,,,,,,7,,,58,50
11640,note_on,0,0,8,,,,,,,,,7,,,62,50
11640,note_on,15,0,7,,,,,,,,,6,,,62,0
11640,note_on,0,0,7,,,,,,,,,6,,,67,50
11640,note_on,6,0,9,,,,,,,,,8,,,55,50
11664,note_on,0,0,8,,,,,,,,,7,,,58,0
11664,note_on,24,0,8,,,,,,,,,7,,,62,0
11664,note_on,24,0,9,,,,,,,,,8,,,55,0
11670,note_on,0,0,8,,,,,,,,,7,,,62,50
11670,note_on,6,0,8,,,,,,,,,7,,,58,50
11670,note_on,30,0,7,,,,,,,,,6,,,67,0
11670,note_on,6,0,9,,,,,,,,,8,,,55,50
11694,note_on,0,0,8,,,,,,,,,7,,,58,0
11694,note_on,24,0,9,,,,,,,,,8,,,55,0
11694,note_on,24,0,8,,,,,,,,,7,,,62,0
11700,note_on,6,0,9,,,,,,,,,8,,,55,50
11700,note_on,30,0,7,,,,,,,,,6,,,72,50
11700,note_on,0,0,8,,,,,,,,,7,,,62,50
11700,note_on,6,0,8,,,,,,,,,7,,,58,50
11715,note_on,15,0,7,,,,,,,,,6,,,72,0
11715,note_on,0,0,7,,,,,,,,,6,,,70,50
11724,note_on,24,0,9,,,,,,,,,8,,,55,0
11724,note_on,0,0,8,,,,,,,,,7,,,58,0
11724,note_on,24,0,8,,,,,,,,,7,,,62,0
11730,note_on,6,0,9,,,,,,,,,8,,,55,50
11730,note_on,15,0,7,,,,,,,,,6,,,70,0
11730,note_on,0,0,7,,,,,,,,,6,,,69,50
11730,note_on,0,0,8,,,,,,,,,7,,,62,50
11730,note_on,6,0,8,,,,,,,,,7,,,58,50
11745,note_on,15,0,7,,,,,,,,,6,,,69,0
11745,note_on,0,0,7,,,,,,,,,6,,,70,50
11754,note_on,0,0,8,,,,,,,,,7,,,58,0
11754,note_on,24,0,9,,,,,,,,,8,,,55,0
11754,note_on,24,0,8,,,,,,,,,7,,,62,0
11760,note_on,15,0,7,,,,,,,,,6,,,70,0
11760,note_on,0,0,7,,,,,,,,,6,,,74,50
11760,note_on,6,0,9,,,,,,,,,8,,,55,50
11760,note_on,0,0,8,,,,,,,,,7,,,62,50
11760,note_on,6,0,8,,,,,,,,,7,,,58,50
11784,note_on,0,0,8,,,,,,,,,7,,,58,0
11784,note_on,24,0,8,,,,,,,,,7,,,62,0
11784,note_on,24,0,9,,,,,,,,,8,,,55,0
11790,note_on,0,0,8,,,,,,,,,7,,,62,50
11790,note_on,6,0,8,,,,,,,,,7,,,58,50
11790,note_on,30,0,7,,,,,,,,,6,,,74,0
11790,note_on,6,0,9,,,,,,,,,8,,,55,50
11814,note_on,0,0,8,,,,,,,,,7,,,58,0
11814,note_on,24,0,8,,,,,,,,,7,,,62,0
11814,note_on,24,0,9,,,,,,,,,8,,,55,0
11820,note_on,30,0,7,,,,,,,,,6,,,81,50
11820,note_on,6,0,9,,,,,,,,,8,,,55,50
11820,note_on,0,0,8,,,,,,,,,7,,,62,50
11820,note_on,6,0,8,,,,,,,,,7,,,58,50
11835,note_on,0,0,7,,,,,,,,,6,,,79,50
11835,note_on,15,0,7,,,,,,,,,6,,,81,0
11844,note_on,0,0,8,,,,,,,,,7,,,58,0
11844,note_on,24,0,8,,,,,,,,,7,,,62,0
11844,note_on,24,0,9,,,,,,,,,8,,,55,0
11850,note_on,15,0,7,,,,,,,,,6,,,79,0
11850,note_on,6,0,8,,,,,,,,,7,,,58,50
11850,note_on,0,0,8,,,,,,,,,7,,,62,50
11850,note_on,6,0,9,,,,,,,,,8,,,55,50
11850,note_on,0,0,7,,,,,,,,,6,,,78,50
11865,note_on,0,0,7,,,,,,,,,6,,,79,50
11865,note_on,15,0,7,,,,,,,,,6,,,78,0
11874,note_on,24,0,9,,,,,,,,,8,,,55,0
11874,note_on,0,0,8,,,,,,,,,7,,,58,0
11874,note_on,24,0,8,,,,,,,,,7,,,62,0
11880,note_on,0,0,7,,,,,,,,,6,,,82,50
11880,note_on,6,0,8,,,,,,,,,7,,,58,50
11880,note_on,0,0,8,,,,,,,,,7,,,62,50
11880,note_on,15,0,7,,,,,,,,,6,,,79,0
11880,note_on,6,0,9,,,,,,,,,8,,,55,50
11904,note_on,24,0,8,,,,,,,,,7,,,62,0
11904,note_on,0,0,8,,,,,,,,,7,,,58,0
11904,note_on,24,0,9,,,,,,,,,8,,,55,0
11910,note_on,30,0,7,,,,,,,,,6,,,82,0
11910,note_on,6,0,8,,,,,,,,,7,,,58,50
11910,note_on,0,0,8,,,,,,,,,7,,,62,50
11910,note_on,6,0,9,,,,,,,,,8,,,55,50
11934,note_on,24,0,9,,,,,,,,,8,,,55,0
11934,note_on,0,0,8,,,,,,,,,7,,,58,0
11934,note_on,24,0,8,,,,,,,,,7,,,62,0
11940,note_on,6,0,9,,,,,,,,,8,,,55,50
11940,note_on,30,0,7,,,,,,,,,6,,,86,50
11940,note_on,0,0,8,,,,,,,,,7,,,62,50
11940,note_on,6,0,8,,,,,,,,,7,,,58,50
11964,note_on,24,0,8,,,,,,,,,7,,,62,0
11964,note_on,0,0,8,,,,,,,,,7,,,58,0
11964,note_on,24,0,9,,,,,,,,,8,,,55,0
11970,note_on,30,0,7,,,,,,,,,6,,,86,0
11970,note_on,6,0,8,,,,,,,,,7,,,58,50
11970,note_on,0,0,8,,,,,,,,,7,,,62,50
11970,note_on,6,0,9,,,,,,,,,8,,,55,50
11994,note_on,0,0,8,,,,,,,,,7,,,58,0
11994,note_on,24,0,8,,,,,,,,,7,,,62,0
11994,note_on,24,0,9,,,,,,,,,8,,,55,0
12000,note_on,6,0,9,,,,,,,,,8,,,53,100
12000,note_on,0,0,2,,,,,,,,,1,,,77,100
12000,note_on,450,0,2,,,,,,,,,1,,,71,100
12000,note_on,480,0,3,,,,,,,,,2,,,43,0
12000,note_on,450,0,4,,,,,,,,,3,,,50,100
12000,note_on,0,0,3,,,,,,,,,2,,,44,100
12000,note_on,420,0,6,,,,,,,,,5,,,50,100
12000,note_on,0,0,4,,,,,,,,,3,,,62,100
12000,note_on,0,0,5,,,,,,,,,4,,,74,100
12000,note_on,450,0,5,,,,,,,,,4,,,62,100
12000,note_on,450,0,1,,,,,,,,,0,,,86,100
12000,note_on,0,0,1,,,,,,,,,0,,,83,100
12000,note_on,0,0,8,,,,,,,,,7,,,62,100
12000,note_on,0,0,7,,,,,,,,,6,,,62,100
12000,note_on,30,0,7,,,,,,,,,6,,,59,100
12000,note_on,6,0,8,,,,,,,,,7,,,59,100
12060,note_on,480,0,11,,,,,,,,,11,,,32,127
12060,note_on,480,0,10,,,,,,,,,10,,,44,127
12090,note_on,30,0,10,,,,,,,,,10,,,44,0
12090,note_on,30,0,11,,,,,,,,,11,,,32,0
12120,note_on,30,0,10,,,,,,,,,10,,,47,127
12120,note_on,0,0,6,,,,,,,,,5,,,50,100
12120,note_on,120,0,6,,,,,,,,,5,,,50,0
12120,note_on,30,0,11,,,,,,,,,11,,,35,127
12150,note_on,30,0,11,,,,,,,,,11,,,35,0
12150,note_on,30,0,10,,,,,,,,,10,,,47,0
12180,note_on,0,0,8,,,,,,,,,7,,,62,100
12180,note_on,0,0,8,,,,,,,,,7,,,59,100
12180,note_on,0,0,8,,,,,,,,,7,,,59,0
12180,note_on,180,0,8,,,,,,,,,7,,,62,0
12180,note_on,180,0,9,,,,,,,,,8,,,53,0
12180,note_on,30,0,11,,,,,,,,,11,,,38,127
12180,note_on,0,0,7,,,,,,,,,6,,,62,100
12180,note_on,0,0,7,,,,,,,,,6,,,59,100
12180,note_on,0,0,7,,,,,,,,,6,,,59,0
12180,note_on,180,0,7,,,,,,,,,6,,,62,0
12180,note_on,30,0,10,,,,,,,,,10,,,50,127
12180,note_on,0,0,9,,,,,,,,,8,,,53,100
12210,note_on,90,0,6,,,,,,,,,5,,,50,0
12210,note_on,30,0,11,,,,,,,,,11,,,38,0
12210,note_on,0,0,6,,,,,,,,,5,,,50,100
12210,note_on,30,0,10,,,,,,,,,10,,,50,0
12240,note_on,30,0,11,,,,,,,,,11,,,44,127
12240,note_on,0,0,6,,,,,,,,,5,,,50,100
12240,note_on,30,0,6,,,,,,,,,5,,,50,0
12240,note_on,30,0,10,,,,,,,,,10,,,56,127
12270,note_on,30,0,10,,,,,,,,,10,,,56,0
12270,note_on,30,0,11,,,,,,,,,11,,,44,0
12300,note_on,30,0,10,,,,,,,,,10,,,50,127
12300,note_on,120,0,8,,,,,,,,,7,,,62,0
12300,note_on,0,0,8,,,,,,,,,7,,,59,0
12300,note_on,0,0,8,,,,,,,,,7,,,62,100
12300,note_on,0,0,7,,,,,,,,,6,,,62,100
12300,note_on,0,0,8,,,,,,,,,7,,,59,100
12300,note_on,60,0,6,,,,,,,,,5,,,50,0
12300,note_on,30,0,11,,,,,,,,,11,,,38,127
12300,note_on,120,0,9,,,,,,,,,8,,,53,0
12300,note_on,120,0,7,,,,,,,,,6,,,62,0
12300,note_on,0,0,7,,,,,,,,,6,,,59,0
12300,note_on,0,0,9,,,,,,,,,8,,,53,100
12300,note_on,0,0,6,,,,,,,,,5,,,50,100
12300,note_on,0,0,7,,,,,,,,,6,,,59,100
12330,note_on,30,0,11,,,,,,,,,11,,,38,0
12330,note_on,30,0,10,,,,,,,,,10,,,50,0
12360,note_on,0,0,6,,,,,,,,,5,,,50,100
12360,note_on,30,0,10,,,,,,,,,10,,,47,127
12360,note_on,30,0,11,,,,,,,,,11,,,35,127
12360,note_on,60,0,6,,,,,,,,,5,,,50,0
12390,note_on,30,0,10,,,,,,,,,10,,,47,0
12390,note_on,30,0,11,,,,,,,,,11,,,35,0
12420,note_on,0,0,8,,,,,,,,,7,,,59,100
12420,note_on,0,0,8,,,,,,,,,7,,,62,0
12420,note_on,120,0,8,,,,,,,,,7,,,59,0
12420,note_on,120,0,9,,,,,,,,,8,,,53,0
12420,note_on,0,0,9,,,,,,,,,8,,,53,100
12420,note_on,0,0,6,,,,,,,,,5,,,50,100
12420,note_on,0,0,7,,,,,,,,,6,,,59,100
12420,note_on,30,0,11,,,,,,,,,11,,,38,127
12420,note_on,120,0,7,,,,,,,,,6,,,59,0
12420,note_on,0,0,7,,,,,,,,,6,,,62,0
12420,note_on,60,0,6,,,,,,,,,5,,,50,0
12420,note_on,0,0,8,,,,,,,,,7,,,62,100
12420,note_on,30,0,10,,,,,,,,,10,,,50,127
12420,note_on,0,0,7,,,,,,,,,6,,,62,100
12450,note_on,30,0,11,,,,,,,,,11,,,38,0
12450,note_on,30,0,10,,,,,,,,,10,,,50,0
12480,note_on,0,0,3,,,,,,,,,2,,,44,50
12480,note_on,30,0,10,,,,,,,,,10,,,44,127
12480,note_on,0,0,6,,,,,,,,,5,,,50,100
12480,note_on,30,0,11,,,,,,,,,11,,,32,127
12480,note_on,60,0,6,,,,,,,,,5,,,50,0
12480,note_on,480,0,3,,,,,,,,,2,,,44,0
12510,note_on,90,0,7,,,,,,,,,6,,,62,0
12510,note_on,0,0,2,,,,,,,,,1,,,71,0
12510,note_on,0,0,8,,,,,,,,,7,,,62,50
12510,note_on,0,0,8,,,,,,,,,7,,,59,50
12510,note_on,0,0,8,,,,,,,,,7,,,59,0
12510,note_on,510,0,2,,,,,,,,,1,,,77,0
12510,note_on,90,0,8,,,,,,,,,7,,,62,0
12510,note_on,0,0,5,,,,,,,,,4,,,62,0
12510,note_on,0,0,1,,,,,,,,,0,,,86,0
12510,note_on,0,0,9,,,,,,,,,8,,,53,50
12510,note_on,90,0,9,,,,,,,,,8,,,53,0
12510,note_on,0,0,7,,,,,,,,,6,,,59,0
12510,note_on,0,0,4,,,,,,,,,3,,,50,0
12510,note_on,510,0,4,,,,,,,,,3,,,62,0
12510,note_on,510,0,5,,,,,,,,,4,,,74,0
12510,note_on,510,0,1,,,,,,,,,0,,,83,0
12534,note_on,24,0,9,,,,,,,,,8,,,53,0
12534,note_on,0,0,8,,,,,,,,,7,,,59,0
12534,note_on,24,0,8,,,,,,,,,7,,,62,0
12540,note_on,6,0,9,,,,,,,,,8,,,53,50
12540,note_on,60,0,10,,,,,,,,,10,,,44,0
12540,note_on,0,0,8,,,,,,,,,7,,,62,50
12540,note_on,60,0,11,,,,,,,,,11,,,32,0
12540,note_on,6,0,8,,,,,,,,,7,,,59,50
12540,note_on,60,0,6,,,,,,,,,5,,,50,0
12540,note_on,30,0,7,,,,,,,,,6,,,64,50
12555,note_on,0,0,7,,,,,,,,,6,,,62,50
12555,note_on,15,0,7,,,,,,,,,6,,,64,0
12564,note_on,24,0,8,,,,,,,,,7,,,62,0
12564,note_on,0,0,8,,,,,,,,,7,,,59,0
12564,note_on,24,0,9,,,,,,,,,8,,,53,0
12570,note_on,6,0,9,,,,,,,,,8,,,53,50
12570,note_on,15,0,7,,,,,,,,,6,,,62,0
12570,note_on,6,0,8,,,,,,,,,7,,,59,50
12570,note_on,0,0,8,,,,,,,,,7,,,62,50
12570,note_on,0,0,7,,,,,,,,,6,,,61,50
12585,note_on,0,0,7,,,,,,,,,6,,,62,50
12585,note_on,15,0,7,,,,,,,,,6,,,61,0
12594,note_on,24,0,8,,,,,,,,,7,,,62,0
12594,note_on,0,0,8,,,,,,,,,7,,,59,0
12594,note_on,24,0,9,,,,,,,,,8,,,53,0
12600,note_on,6,0,8,,,,,,,,,7,,,59,50
12600,note_on,6,0,9,,,,,,,,,8,,,53,50
12600,note_on,15,0,7,,,,,,,,,6,,,62,0
12600,note_on,0,0,7,,,,,,,,,6,,,65,50
12600,note_on,0,0,8,,,,,,,,,7,,,62,50
12624,note_on,24,0,8,,,,,,,,,7,,,62,0
12624,note_on,0,0,8,,,,,,,,,7,,,59,0
12624,note_on,24,0,9,,,,,,,,,8,,,53,0
12630,note_on,0,0,8,,,,,,,,,7,,,62,50
12630,note_on,30,0,7,,,,,,,,,6,,,65,0
12630,note_on,6,0,9,,,,,,,,,8,,,53,50
12630,note_on,6,0,8,,,,,,,,,7,,,59,50
12654,note_on,0,0,8,,,,,,,,,7,,,59,0
12654,note_on,24,0,9,,,,,,,,,8,,,53,0
12654,note_on,24,0,8,,,,,,,,,7,,,62,0
12660,note_on,6,0,8,,,,,,,,,7,,,59,50
12660,note_on,30,0,7,,,,,,,,,6,,,72,50
12660,note_on,6,0,9,,,,,,,,,8,,,53,50
12660,note_on,0,0,8,,,,,,,,,7,,,62,50
12675,note_on,15,0,7,,,,,,,,,6,,,72,0
12675,note_on,0,0,7,,,,,,,,,6,,,71,50
12684,note_on,0,0,8,,,,,,,,,7,,,59,0
12684,note_on,24,0,8,,,,,,,,,7,,,62,0
12684,note_on,24,0,9,,,,,,,,,8,,,53,0
12690,note_on,0,0,8,,,,,,,,,7,,,62,50
12690,note_on,6,0,8,,,,,,,,,7,,,59,50
12690,note_on,15,0,7,,,,,,,,,6,,,71,0
12690,note_on,0,0,7,,,,,,,,,6,,,69,50
12690,note_on,6,0,9,,,,,,,,,8,,,53,50
12705,note_on,15,0,7,,,,,,,,,6,,,69,0
12705,note_on,0,0,7,,,,,,,,,6,,,71,50
12714,note_on,24,0,9,,,,,,,,,8,,,53,0
12714,note_on,0,0,8,,,,,,,,,7,,,59,0
12714,note_on,24,0,8,,,,,,,,,7,,,62,0
12720,note_on,6,0,8,,,,,,,,,7,,,59,50
12720,note_on,15,0,7,,,,,,,,,6,,,71,0
12720,note_on,0,0,8,,,,,,,,,7,,,62,50
12720,note_on,0,0,7,,,,,,,,,6,,,74,50
12720,note_on,6,0,9,,,,,,,,,8,,,53,50
12744,note_on,24,0,8,,,,,,,,,7,,,62,0
12744,note_on,24,0,9,,,,,,,,,8,,,53,0
12744,note_on,0,0,8,,,,,,,,,7,,,59,0
12750,note_on,30,0,7,,,,,,,,,6,,,74,0
12750,note_on,6,0,9,,,,,,,,,8,,,53,50
12750,note_on,0,0,8,,,,,,,,,7,,,62,50
12750,note_on,6,0,8,,,,,,,,,7,,,59,50
12774,note_on,0,0,8,,,,,,,,,7,,,59,0
12774,note_on,24,0,8,,,,,,,,,7,,,62,0
12774,note_on,24,0,9,,,,,,,,,8,,,53,0
12780,note_on,6,0,8,,,,,,,,,7,,,59,50
12780,note_on,0,0,8,,,,,,,,,7,,,62,50
12780,note_on,30,0,7,,,,,,,,,6,,,79,50
12780,note_on,6,0,9,,,,,,,,,8,,,53,50
12795,note_on,15,0,7,,,,,,,,,6,,,79,0
12795,note_on,0,0,7,,,,,,,,,6,,,77,50
12804,note_on,0,0,8,,,,,,,,,7,,,59,0
12804,note_on,24,0,8,,,,,,,,,7,,,62,0
12804,note_on,24,0,9,,,,,,,,,8,,,53,0
12810,note_on,6,0,9,,,,,,,,,8,,,53,50
12810,note_on,0,0,8,,,,,,,,,7,,,62,50
12810,note_on,6,0,8,,,,,,,,,7,,,59,50
12810,note_on,0,0,7,,,,,,,,,6,,,76,50
12810,note_on,15,0,7,,,,,,,,,6,,,77,0
12825,note_on,0,0,7,,,,,,,,,6,,,77,50
12825,note_on,15,0,7,,,,,,,,,6,,,76,0
12834,note_on,0,0,8,,,,,,,,,7,,,59,0
12834,note_on,24,0,9,,,,,,,,,8,,,53,0
12834,note_on,24,0,8,,,,,,,,,7,,,62,0
12840,note_on,0,0,7,,,,,,,,,6,,,83,50
12840,note_on,6,0,9,,,,,,,,,8,,,53,50
12840,note_on,15,0,7,,,,,,,,,6,,,77,0
12840,note_on,0,0,8,,,,,,,,,7,,,62,50
12840,note_on,6,0,8,,,,,,,,,7,,,59,50
12864,note_on,0,0,8,,,,,,,,,7,,,59,0
12864,note_on,24,0,8,,,,,,,,,7,,,62,0
12864,note_on,24,0,9,,,,,,,,,8,,,53,0
12870,note_on,0,0,8,,,,,,,,,7,,,62,50
12870,note_on,30,0,7,,,,,,,,,6,,,83,0
12870,note_on,6,0,9,,,,,,,,,8,,,53,50
12870,note_on,6,0,8,,,,,,,,,7,,,59,50
12894,note_on,24,0,8,,,,,,,,,7,,,62,0
12894,note_on,0,0,8,,,,,,,,,7,,,59,0
12894,note_on,24,0,9,,,,,,,,,8,,,53,0
12900,note_on,6,0,8,,,,,,,,,7,,,59,50
12900,note_on,30,0,7,,,,,,,,,6,,,86,50
12900,note_on,0,0,8,,,,,,,,,7,,,62,50
12900,note_on,6,0,9,,,,,,,,,8,,,53,50
12924,note_on,24,0,9,,,,,,,,,8,,,53,0
12924,note_on,0,0,8,,,,,,,,,7,,,59,0
12924,note_on,24,0,8,,,,,,,,,7,,,62,0
12930,note_on,6,0,9,,,,,,,,,8,,,53,50
12930,note_on,6,0,8,,,,,,,,,7,,,59,50
12930,note_on,0,0,8,,,,,,,,,7,,,62,50
12930,note_on,30,0,7,,,,,,,,,6,,,86,0
12954,note_on,24,0,9,,,,,,,,,8,,,53,0
12954,note_on,24,0,8,,,,,,,,,7,,,62,0
12954,note_on,0,0,8,,,,,,,,,7,,,59,0
12960,note_on,6,0,8,,,,,,,,,7,,,57,80
12960,note_on,0,0,3,,,,,,,,,2,,,45,80
12960,note_on,480,0,3,,,,,,,,,2,,,44,0
12960,note_on,30,0,7,,,,,,,,,6,,,57,80
12960,marker,5760,1,0,,,,,,,,,,,,,
12960,note_on,0,0,5,,,,,,,,,4,,,69,80
12960,note_on,450,0,2,,,,,,,,,1,,,69,80
12960,note_on,450,0,1,,,,,,,,,0,,,81,80
12960,note_on,0,0,4,,,,,,,,,3,,,57,80
12960,note_on,420,0,10,,,,,,,,,10,,,45,80
12960,note_on,450,0,4,,,,,,,,,3,,,45,80
12960,note_on,420,0,6,,,,,,,,,5,,,45,80
12960,note_on,420,0,11,,,,,,,,,11,,,33,80
12960,note_on,6,0,9,,,,,,,,,8,,,57,80
12960,note_on,450,0,5,,,,,,,,,4,,,57,80
12975,note_on,0,0,6,,,,,,,,,5,,,45,80
12975,note_on,15,0,6,,,,,,,,,5,,,45,0
12990,note_on,15,0,6,,,,,,,,,5,,,45,0
12990,note_on,0,0,6,,,,,,,,,5,,,45,80
13005,note_on,0,0,6,,,,,,,,,5,,,45,80
13005,note_on,15,0,6,,,,,,,,,5,,,45,0
13020,note_on,0,0,11,,,,,,,,,11,,,33,80
13020,note_on,0,0,10,,,,,,,,,10,,,45,80
13020,note_on,60,0,10,,,,,,,,,10,,,45,0
13020,note_on,60,0,11,,,,,,,,,11,,,33,0
13020,note_on,0,0,6,,,,,,,,,5,,,45,80
13020,note_on,15,0,6,,,,,,,,,5,,,45,0
13035,note_on,15,0,6,,,,,,,,,5,,,45,0
13035,note_on,0,0,6,,,,,,,,,5,,,45,80
13050,note_on,15,0,6,,,,,,,,,5,,,45,0
13050,note_on,0,0,6,,,,,,,,,5,,,45,80
13065,note_on,0,0,6,,,,,,,,,5,,,45,80
13065,note_on,15,0,6,,,,,,,,,5,,,45,0
13080,note_on,15,0,6,,,,,,,,,5,,,45,0
13080,note_on,0,0,6,,,,,,,,,5,,,45,80
13080,note_on,60,0,11,,,,,,,,,11,,,33,0
13080,note_on,120,0,5,,,,,,,,,4,,,69,0
13080,note_on,0,0,5,,,,,,,,,4,,,57,0
13080,note_on,0,0,10,,,,,,,,,10,,,45,80
13080,note_on,60,0,10,,,,,,,,,10,,,45,0
13080,note_on,0,0,11,,,,,,,,,11,,,33,80
13095,note_on,15,0,6,,,,,,,,,5,,,45,0
13095,note_on,0,0,6,,,,,,,,,5,,,45,80
13110,note_on,0,0,6,,,,,,,,,5,,,45,80
13110,note_on,15,0,6,,,,,,,,,5,,,45,0
13125,note_on,15,0,6,,,,,,,,,5,,,45,0
13125,note_on,0,0,6,,,,,,,,,5,,,45,80
13140,note_on,180,0,8,,,,,,,,,7,,,57,0
13140,note_on,60,0,11,,,,,,,,,11,,,33,0
13140,note_on,0,0,10,,,,,,,,,10,,,45,80
13140,note_on,60,0,10,,,,,,,,,10,,,45,0
13140,note_on,180,0,7,,,,,,,,,6,,,57,0
13140,note_on,180,0,3,,,,,,,,,2,,,45,0
13140,note_on,0,0,11,,,,,,,,,11,,,33,80
13140,note_on,180,0,1,,,,,,,,,0,,,81,0
13140,note_on,180,0,9,,,,,,,,,8,,,57,0
13140,note_on,180,0,2,,,,,,,,,1,,,69,0
13140,note_on,0,0,6,,,,,,,,,5,,,45,80
13140,note_on,15,0,6,,,,,,,,,5,,,45,0
13155,note_on,0,0,6,,,,,,,,,5,,,45,80
13155,note_on,15,0,6,,,,,,,,,5,,,45,0
13170,note_on,15,0,6,,,,,,,,,5,,,45,0
13170,note_on,0,0,6,,,,,,,,,5,,,45,80
13185,note_on,15,0,6,,,,,,,,,5,,,45,0
13185,note_on,0,0,6,,,,,,,,,5,,,45,80
13200,note_on,0,0,10,,,,,,,,,10,,,45,80
13200,note_on,0,0,6,,,,,,,,,5,,,45,80
13200,note_on,60,0,2,,,,,,,,,1,,,76,80
13200,note_on,15,0,6,,,,,,,,,5,,,45,0
13200,note_on,60,0,8,,,,,,,,,7,,,73,80
13200,note_on,60,0,11,,,,,,,,,11,,,33,0
13200,note_on,0,0,11,,,,,,,,,11,,,33,80
13200,note_on,60,0,9,,,,,,,,,8,,,67,80
13200,note_on,60,0,10,,,,,,,,,10,,,45,0
13200,note_on,60,0,7,,,,,,,,,6,,,82,80
13215,note_on,15,0,6,,,,,,,,,5,,,45,0
13215,note_on,0,0,6,,,,,,,,,5,,,45,80
13230,note_on,0,0,6,,,,,,,,,5,,,45,80
13230,note_on,15,0,6,,,,,,,,,5,,,45,0
13245,note_on,15,0,6,,,,,,,,,5,,,45,0
13245,note_on,0,0,6,,,,,,,,,5,,,45,80
13260,note_on,60,0,10,,,,,,,,,10,,,45,0
13260,note_on,0,0,10,,,,,,,,,10,,,45,80
13260,note_on,60,0,11,,,,,,,,,11,,,33,0
13260,note_on,0,0,6,,,,,,,,,5,,,45,80
13260,note_on,0,0,11,,,,,,,,,11,,,33,80
13260,note_on,15,0,6,,,,,,,,,5,,,45,0
13275,note_on,0,0,6,,,,,,,,,5,,,45,80
13275,note_on,15,0,6,,,,,,,,,5,,,45,0
13290,note_on,0,0,6,,,,,,,,,5,,,45,80
13290,note_on,15,0,6,,,,,,,,,5,,,45,0
13305,note_on,0,0,6,,,,,,,,,5,,,45,80
13305,note_on,15,0,6,,,,,,,,,5,,,45,0
13320,note_on,0,0,11,,,,,,,,,11,,,33,80
13320,note_on,60,0,11,,,,,,,,,11,,,33,0
13320,note_on,0,0,10,,,,,,,,,10,,,45,80
13320,note_on,60,0,10,,,,,,,,,10,,,45,0
13320,note_on,15,0,6,,,,,,,,,5,,,45,0
13320,note_on,0,0,6,,,,,,,,,5,,,45,80
13335,note_on,15,0,6,,,,,,,,,5,,,45,0
13335,note_on,0,0,6,,,,,,,,,5,,,45,80
13350,note_on,15,0,6,,,,,,,,,5,,,45,0
13350,note_on,0,0,6,,,,,,,,,5,,,45,80
13365,note_on,15,0,6,,,,,,,,,5,,,45,0
13365,note_on,0,0,6,,,,,,,,,5,,,45,80
13380,note_on,0,0,6,,,,,,,,,5,,,45,80
13380,note_on,0,0,11,,,,,,,,,11,,,33,80
13380,note_on,15,0,6,,,,,,,,,5,,,45,0
13380,note_on,0,0,10,,,,,,,,,10,,,45,80
13380,note_on,60,0,10,,,,,,,,,10,,,45,0
13380,note_on,60,0,11,,,,,,,,,11,,,33,0
13395,note_on,0,0,6,,,,,,,,,5,,,45,80
13395,note_on,15,0,6,,,,,,,,,5,,,45,0
13410,note_on,0,0,9,,,,,,,,,8,,,65,80
13410,note_on,210,0,9,,,,,,,,,8,,,67,0
13410,note_on,0,0,8,,,,,,,,,7,,,74,80
13410,note_on,210,0,2,,,,,,,,,1,,,76,0
13410,note_on,0,0,2,,,,,,,,,1,,,77,80
13410,note_on,0,0,7,,,,,,,,,6,,,81,80
13410,note_on,210,0,7,,,,,,,,,6,,,82,0
13410,note_on,0,0,6,,,,,,,,,5,,,45,80
13410,note_on,210,0,8,,,,,,,,,7,,,73,0
13410,note_on,15,0,6,,,,,,,,,5,,,45,0
13425,note_on,0,0,6,,,,,,,,,5,,,45,80
13425,note_on,15,0,6,,,,,,,,,5,,,45,0
13440,note_on,60,0,10,,,,,,,,,10,,,45,0
13440,note_on,0,0,10,,,,,,,,,10,,,45,80
13440,note_on,0,0,7,,,,,,,,,6,,,79,80
13440,note_on,30,0,2,,,,,,,,,1,,,77,0
13440,note_on,0,0,2,,,,,,,,,1,,,79,80
13440,note_on,30,0,7,,,,,,,,,6,,,81,0
13440,note_on,30,0,9,,,,,,,,,8,,,65,0
13440,note_on,300,0,1,,,,,,,,,0,,,88,80
13440,note_on,0,0,6,,,,,,,,,5,,,45,80
13440,note_on,15,0,6,,,,,,,,,5,,,45,0
13440,note_on,60,0,11,,,,,,,,,11,,,33,0
13440,note_on,0,0,11,,,,,,,,,11,,,33,80
13440,note_on,30,0,8,,,,,,,,,7,,,74,0
13440,note_on,0,0,8,,,,,,,,,7,,,70,80
13440,note_on,0,0,9,,,,,,,,,8,,,61,80
13455,note_on,15,0,6,,,,,,,,,5,,,45,0
13455,note_on,0,0,6,,,,,,,,,5,,,45,80
13470,note_on,0,0,6,,,,,,,,,5,,,45,80
13470,note_on,15,0,6,,,,,,,,,5,,,45,0
13485,note_on,0,0,6,,,,,,,,,5,,,45,80
13485,note_on,15,0,6,,,,,,,,,5,,,45,0
13500,note_on,0,0,6,,,,,,,,,5,,,45,80
13500,note_on,0,0,10,,,,,,,,,10,,,45,80
13500,note_on,15,0,6,,,,,,,,,5,,,45,0
13500,note_on,60,0,10,,,,,,,,,10,,,45,0
13500,note_on,60,0,11,,,,,,,,,11,,,33,0
13500,note_on,0,0,11,,,,,,,,,11,,,33,80
13500,note_on,60,0,2,,,,,,,,,1,,,79,0
13515,note_on,15,0,6,,,,,,,,,5,,,45,0
13515,note_on,0,0,6,,,,,,,,,5,,,45,80
13530,note_on,15,0,6,,,,,,,,,5,,,45,0
13530,note_on,0,0,6,,,,,,,,,5,,,45,80
13545,note_on,0,0,6,,,,,,,,,5,,,45,80
13545,note_on,15,0,6,,,,,,,,,5,,,45,0
13560,note_on,60,0,10,,,,,,,,,10,,,45,0
13560,note_on,0,0,10,,,,,,,,,10,,,45,80
13560,note_on,0,0,11,,,,,,,,,11,,,33,80
13560,note_on,60,0,11,,,,,,,,,11,,,33,0
13560,note_on,15,0,6,,,,,,,,,5,,,45,0
13560,note_on,0,0,6,,,,,,,,,5,,,45,80
13575,note_on,15,0,6,,,,,,,,,5,,,45,0
13575,note_on,0,0,6,,,,,,,,,5,,,45,80
13590,note_on,0,0,6,,,,,,,,,5,,,45,80
13590,note_on,15,0,6,,,,,,,,,5,,,45,0
13605,note_on,15,0,6,,,,,,,,,5,,,45,0
13605,note_on,0,0,6,,,,,,,,,5,,,45,80
13620,note_on,60,0,11,,,,,,,,,11,,,33,0
13620,note_on,15,0,6,,,,,,,,,5,,,45,0
13620,note_on,0,0,6,,,,,,,,,5,,,45,80
13620,note_on,0,0,10,,,,,,,,,10,,,45,80
13620,note_on,60,0,10,,,,,,,,,10,,,45,0
13620,note_on,0,0,11,,,,,,,,,11,,,33,80
13635,note_on,15,0,6,,,,,,,,,5,,,45,0
13635,note_on,0,0,6,,,,,,,,,5,,,45,80
13650,note_on,210,0,8,,,,,,,,,7,,,70,0
13650,note_on,0,0,9,,,,,,,,,8,,,62,80
13650,note_on,0,0,1,,,,,,,,,0,,,89,80
13650,note_on,15,0,6,,,,,,,,,5,,,45,0
13650,note_on,0,0,6,,,,,,,,,5,,,45,80
13650,note_on,0,0,7,,,,,,,,,6,,,77,80
13650,note_on,210,0,7,,,,,,,,,6,,,79,0
13650,note_on,210,0,1,,,,,,,,,0,,,88,0
13650,note_on,0,0,8,,,,,,,,,7,,,69,80
13650,note_on,210,0,9,,,,,,,,,8,,,61,0
13665,note_on,15,0,6,,,,,,,,,5,,,45,0
13665,note_on,0,0,6,,,,,,,,,5,,,45,80
13680,note_on,540,0,3,,,,,,,,,2,,,49,70
13680,note_on,30,0,9,,,,,,,,,8,,,62,0
13680,note_on,0,0,9,,,,,,,,,8,,,57,80
13680,note_on,0,0,6,,,,,,,,,5,,,45,80
13680,note_on,15,0,6,,,,,,,,,5,,,45,0
13680,note_on,0,0,10,,,,,,,,,10,,,45,80
13680,note_on,60,0,10,,,,,,,,,10,,,45,0
13680,note_on,30,0,8,,,,,,,,,7,,,69,0
13680,note_on,0,0,7,,,,,,,,,6,,,76,80
13680,note_on,30,0,7,,,,,,,,,6,,,77,0
13680,note_on,0,0,8,,,,,,,,,7,,,67,80
13680,note_on,60,0,11,,,,,,,,,11,,,33,0
13680,note_on,0,0,1,,,,,,,,,0,,,85,80
13680,note_on,0,0,11,,,,,,,,,11,,,33,80
13680,note_on,180,0,2,,,,,,,,,1,,,73,70
13680,note_on,30,0,1,,,,,,,,,0,,,89,0
13695,note_on,0,0,6,,,,,,,,,5,,,45,80
13695,note_on,15,0,6,,,,,,,,,5,,,45,0
13710,note_on,30,0,3,,,,,,,,,2,,,49,0
13710,note_on,0,0,3,,,,,,,,,2,,,50,72
13710,note_on,15,0,6,,,,,,,,,5,,,45,0
13710,note_on,0,0,6,,,,,,,,,5,,,45,80
13710,note_on,0,0,2,,,,,,,,,1,,,74,72
13710,note_on,30,0,2,,,,,,,,,1,,,73,0
13725,note_on,15,0,6,,,,,,,,,5,,,45,0
13725,note_on,45,0,1,,,,,,,,,0,,,85,0
13725,note_on,45,0,9,,,,,,,,,8,,,57,0
13725,note_on,45,0,8,,,,,,,,,7,,,67,0
13725,note_on,45,0,7,,,,,,,,,6,,,76,0
13725,note_on,0,0,6,,,,,,,,,5,,,45,80
13740,note_on,15,0,6,,,,,,,,,5,,,45,0
13740,note_on,0,0,11,,,,,,,,,11,,,33,80
13740,note_on,60,0,11,,,,,,,,,11,,,33,0
13740,note_on,0,0,6,,,,,,,,,5,,,45,80
13740,note_on,0,0,3,,,,,,,,,2,,,51,74
13740,note_on,60,0,10,,,,,,,,,10,,,45,0
13740,note_on,0,0,10,,,,,,,,,10,,,45,80
13740,note_on,30,0,2,,,,,,,,,1,,,74,0
13740,note_on,30,0,3,,,,,,,,,2,,,50,0
13740,note_on,0,0,2,,,,,,,,,1,,,75,74
13755,note_on,15,0,6,,,,,,,,,5,,,45,0
13755,note_on,0,0,6,,,,,,,,,5,,,45,80
13770,note_on,15,0,6,,,,,,,,,5,,,45,0
13770,note_on,0,0,6,,,,,,,,,5,,,45,80
13770,note_on,0,0,3,,,,,,,,,2,,,52,76
13770,note_on,30,0,3,,,,,,,,,2,,,51,0
13770,note_on,0,0,2,,,,,,,,,1,,,76,76
13770,note_on,30,0,2,,,,,,,,,1,,,75,0
13785,note_on,0,0,6,,,,,,,,,5,,,45,80
13785,note_on,15,0,6,,,,,,,,,5,,,45,0
13800,note_on,0,0,3,,,,,,,,,2,,,53,78
13800,note_on,75,0,9,,,,,,,,,8,,,57,80
13800,note_on,30,0,3,,,,,,,,,2,,,52,0
13800,note_on,75,0,8,,,,,,,,,7,,,65,80
13800,note_on,0,0,2,,,,,,,,,1,,,77,78
13800,note_on,75,0,7,,,,,,,,,6,,,74,80
13800,note_on,0,0,11,,,,,,,,,11,,,33,80
13800,note_on,0,0,6,,,,,,,,,5,,,45,80
13800,note_on,60,0,11,,,,,,,,,11,,,33,0
13800,note_on,75,0,1,,,,,,,,,0,,,86,80
13800,note_on,15,0,6,,,,,,,,,5,,,45,0
13800,note_on,60,0,10,,,,,,,,,10,,,45,0
13800,note_on,30,0,2,,,,,,,,,1,,,76,0
13800,note_on,0,0,10,,,,,,,,,10,,,45,80
13815,note_on,15,0,6,,,,,,,,,5,,,45,0
13815,note_on,0,0,6,,,,,,,,,5,,,45,80
13830,note_on,0,0,3,,,,,,,,,2,,,54,80
13830,note_on,0,0,2,,,,,,,,,1,,,78,80
13830,note_on,0,0,6,,,,,,,,,5,,,45,80
13830,note_on,30,0,2,,,,,,,,,1,,,77,0
13830,note_on,15,0,6,,,,,,,,,5,,,45,0
13830,note_on,30,0,3,,,,,,,,,2,,,53,0
13845,note_on,15,0,6,,,,,,,,,5,,,45,0
13845,note_on,0,0,6,,,,,,,,,5,,,45,80
13845,note_on,45,0,9,,,,,,,,,8,,,57,0
13845,note_on,45,0,7,,,,,,,,,6,,,74,0
13845,note_on,45,0,1,,,,,,,,,0,,,86,0
13845,note_on,45,0,8,,,,,,,,,7,,,65,0
13860,note_on,60,0,10,,,,,,,,,10,,,45,0
13860,note_on,0,0,10,,,,,,,,,10,,,45,80
13860,note_on,15,0,6,,,,,,,,,5,,,45,0
13860,note_on,0,0,6,,,,,,,,,5,,,45,80
13860,note_on,60,0,11,,,,,,,,,11,,,33,0
13860,note_on,30,0,2,,,,,,,,,1,,,78,0
13860,note_on,0,0,2,,,,,,,,,1,,,79,82
13860,note_on,0,0,11,,,,,,,,,11,,,33,80
13860,note_on,0,0,3,,,,,,,,,2,,,55,82
13860,note_on,30,0,3,,,,,,,,,2,,,54,0
13875,note_on,15,0,6,,,,,,,,,5,,,45,0
13875,note_on,0,0,6,,,,,,,,,5,,,45,80
13890,note_on,30,0,2,,,,,,,,,1,,,79,0
13890,note_on,0,0,2,,,,,,,,,1,,,80,84
13890,note_on,30,0,3,,,,,,,,,2,,,55,0
13890,note_on,0,0,3,,,,,,,,,2,,,56,84
13890,note_on,0,0,6,,,,,,,,,5,,,45,80
13890,note_on,15,0,6,,,,,,,,,5,,,45,0
13905,note_on,15,0,6,,,,,,,,,5,,,45,0
13905,note_on,0,0,6,,,,,,,,,5,,,45,80
13920,note_on,0,0,2,,,,,,,,,1,,,81,80
13920,note_on,30,0,2,,,,,,,,,1,,,80,0
13920,note_on,0,0,2,,,,,,,,,1,,,69,80
13920,note_on,0,0,10,,,,,,,,,10,,,45,80
13920,note_on,960,0,4,,,,,,,,,3,,,57,0
13920,note_on,75,0,9,,,,,,,,,8,,,57,80
13920,note_on,60,0,10,,,,,,,,,10,,,45,0
13920,note_on,75,0,1,,,,,,,,,0,,,81,80
13920,note_on,60,0,11,,,,,,,,,11,,,33,0
13920,note_on,0,0,11,,,,,,,,,11,,,33,80
13920,note_on,0,0,6,,,,,,,,,5,,,45,80
13920,note_on,75,0,7,,,,,,,,,6,,,57,80
13920,note_on,75,0,8,,,,,,,,,7,,,57,80
13920,note_on,30,0,3,,,,,,,,,2,,,56,0
13920,note_on,15,0,6,,,,,,,,,5,,,45,0
13920,note_on,0,0,3,,,,,,,,,2,,,45,80
13920,note_on,0,0,5,,,,,,,,,4,,,69,80
13920,note_on,840,0,5,,,,,,,,,4,,,57,80
13920,note_on,0,0,4,,,,,,,,,3,,,57,80
13920,note_on,0,0,4,,,,,,,,,3,,,45,80
13920,note_on,0,0,4,,,,,,,,,3,,,45,0
13920,note_on,0,0,3,,,,,,,,,2,,,57,80
13935,note_on,15,0,6,,,,,,,,,5,,,45,0
13935,note_on,0,0,6,,,,,,,,,5,,,45,80
13950,note_on,15,0,6,,,,,,,,,5,,,45,0
13950,note_on,0,0,6,,,,,,,,,5,,,45,80
13965,note_on,0,0,6,,,,,,,,,5,,,45,80
13965,note_on,15,0,6,,,,,,,,,5,,,45,0
13980,note_on,0,0,10,,,,,,,,,10,,,45,80
13980,note_on,60,0,10,,,,,,,,,10,,,45,0
13980,note_on,15,0,6,,,,,,,,,5,,,45,0
13980,note_on,0,0,6,,,,,,,,,5,,,45,80
13980,note_on,60,0,11,,,,,,,,,11,,,33,0
13980,note_on,0,0,11,,,,,,,,,11,,,33,80
13995,note_on,0,0,6,,,,,,,,,5,,,45,80
13995,note_on,15,0,6,,,,,,,,,5,,,45,0
14010,note_on,15,0,6,,,,,,,,,5,,,45,0
14010,note_on,0,0,6,,,,,,,,,5,,,45,80
14025,note_on,15,0,6,,,,,,,,,5,,,45,0
14025,note_on,0,0,6,,,,,,,,,5,,,45,80
14040,note_on,15,0,6,,,,,,,,,5,,,45,0
14040,note_on,60,0,11,,,,,,,,,11,,,33,0
14040,note_on,0,0,11,,,,,,,,,11,,,33,80
14040,note_on,0,0,10,,,,,,,,,10,,,45,80
14040,note_on,60,0,10,,,,,,,,,10,,,45,0
14040,note_on,0,0,5,,,,,,,,,4,,,57,0
14040,note_on,120,0,5,,,,,,,,,4,,,69,0
14040,note_on,0,0,6,,,,,,,,,5,,,45,80
14055,note_on,15,0,6,,,,,,,,,5,,,45,0
14055,note_on,0,0,6,,,,,,,,,5,,,45,80
14070,note_on,15,0,6,,,,,,,,,5,,,45,0
14070,note_on,0,0,6,,,,,,,,,5,,,45,80
14085,note_on,15,0,6,,,,,,,,,5,,,45,0
14085,note_on,0,0,6,,,,,,,,,5,,,45,80
14100,note_on,180,0,2,,,,,,,,,1,,,69,0
14100,note_on,60,0,10,,,,,,,,,10,,,45,0
14100,note_on,0,0,10,,,,,,,,,10,,,45,80
14100,note_on,15,0,6,,,,,,,,,5,,,45,0
14100,note_on,0,0,6,,,,,,,,,5,,,45,80
14100,note_on,0,0,2,,,,,,,,,1,,,81,0
14100,note_on,180,0,7,,,,,,,,,6,,,57,0
14100,note_on,180,0,1,,,,,,,,,0,,,81,0
14100,note_on,60,0,11,,,,,,,,,11,,,33,0
14100,note_on,0,0,11,,,,,,,,,11,,,33,80
14100,note_on,180,0,8,,,,,,,,,7,,,57,0
14100,note_on,180,0,3,,,,,,,,,2,,,45,0
14100,note_on,0,0,3,,,,,,,,,2,,,57,0
14100,note_on,180,0,9,,,,,,,,,8,,,57,0
14115,note_on,15,0,6,,,,,,,,,5,,,45,0
14115,note_on,0,0,6,,,,,,,,,5,,,45,80
14130,note_on,0,0,6,,,,,,,,,5,,,45,80
14130,note_on,15,0,6,,,,,,,,,5,,,45,0
14145,note_on,0,0,6,,,,,,,,,5,,,45,80
14145,note_on,15,0,6,,,,,,,,,5,,,45,0
14160,note_on,60,0,9,,,,,,,,,8,,,67,80
14160,note_on,60,0,10,,,,,,,,,10,,,45,0
14160,note_on,0,0,10,,,,,,,,,10,,,45,80
14160,note_on,15,0,6,,,,,,,,,5,,,45,0
14160,note_on,0,0,6,,,,,,,,,5,,,45,80
14160,note_on,60,0,2,,,,,,,,,1,,,76,80
14160,note_on,60,0,7,,,,,,,,,6,,,82,80
14160,note_on,60,0,11,,,,,,,,,11,,,33,0
14160,note_on,0,0,11,,,,,,,,,11,,,33,80
14160,note_on,60,0,8,,,,,,,,,7,,,73,80
14175,note_on,0,0,6,,,,,,,,,5,,,45,80
14175,note_on,15,0,6,,,,,,,,,5,,,45,0
14190,note_on,0,0,6,,,,,,,,,5,,,45,80
14190,note_on,15,0,6,,,,,,,,,5,,,45,0
14205,note_on,0,0,6,,,,,,,,,5,,,45,80
14205,note_on,15,0,6,,,,,,,,,5,,,45,0
14220,note_on,15,0,6,,,,,,,,,5,,,45,0
14220,note_on,0,0,6,,,,,,,,,5,,,45,80
14220,note_on,60,0,10,,,,,,,,,10,,,45,0
14220,note_on,0,0,10,,,,,,,,,10,,,45,80
14220,note_on,0,0,11,,,,,,,,,11,,,33,80
14220,note_on,60,0,11,,,,,,,,,11,,,33,0
14235,note_on,15,0,6,,,,,,,,,5,,,45,0
14235,note_on,0,0,6,,,,,,,,,5,,,45,80
14250,note_on,0,0,6,,,,,,,,,5,,,45,80
14250,note_on,15,0,6,,,,,,,,,5,,,45,0
14265,note_on,15,0,6,,,,,,,,,5,,,45,0
14265,note_on,0,0,6,,,,,,,,,5,,,45,80
14280,note_on,0,0,6,,,,,,,,,5,,,45,80
14280,note_on,15,0,6,,,,,,,,,5,,,45,0
14280,note_on,60,0,10,,,,,,,,,10,,,45,0
14280,note_on,0,0,11,,,,,,,,,11,,,33,80
14280,note_on,0,0,10,,,,,,,,,10,,,45,80
14280,note_on,60,0,11,,,,,,,,,11,,,33,0
14295,note_on,15,0,6,,,,,,,,,5,,,45,0
14295,note_on,0,0,6,,,,,,,,,5,,,45,80
14310,note_on,0,0,6,,,,,,,,,5,,,45,80
14310,note_on,15,0,6,,,,,,,,,5,,,45,0
14325,note_on,0,0,6,,,,,,,,,5,,,45,80
14325,note_on,15,0,6,,,,,,,,,5,,,45,0
14340,note_on,0,0,6,,,,,,,,,5,,,45,80
14340,note_on,0,0,11,,,,,,,,,11,,,33,80
14340,note_on,60,0,10,,,,,,,,,10,,,45,0
14340,note_on,0,0,10,,,,,,,,,10,,,45,80
14340,note_on,15,0,6,,,,,,,,,5,,,45,0
14340,note_on,60,0,11,,,,,,,,,11,,,33,0
14355,note_on,0,0,6,,,,,,,,,5,,,45,80
14355,note_on,15,0,6,,,,,,,,,5,,,45,0
14370,note_on,210,0,9,,,,,,,,,8,,,67,0
14370,note_on,210,0,8,,,,,,,,,7,,,73,0
14370,note_on,15,0,6,,,,,,,,,5,,,45,0
14370,note_on,0,0,6,,,,,,,,,5,,,45,80
14370,note_on,0,0,9,,,,,,,,,8,,,65,80
14370,note_on,0,0,8,,,,,,,,,7,,,74,80
14370,note_on,0,0,2,,,,,,,,,1,,,77,80
14370,note_on,210,0,2,,,,,,,,,1,,,76,0
14370,note_on,210,0,7,,,,,,,,,6,,,82,0
14370,note_on,0,0,7,,,,,,,,,6,,,81,80
14385,note_on,0,0,6,,,,,,,,,5,,,45,80
14385,note_on,15,0,6,,,,,,,,,5,,,45,0
14400,note_on,0,0,10,,,,,,,,,10,,,45,80
14400,note_on,60,0,10,,,,,,,,,10,,,45,0
14400,note_on,0,0,11,,,,,,,,,11,,,33,80
14400,note_on,30,0,2,,,,,,,,,1,,,77,0
14400,note_on,0,0,2,,,,,,,,,1,,,79,80
14400,note_on,60,0,11,,,,,,,,,11,,,33,0
14400,note_on,30,0,7,,,,,,,,,6,,,81,0
14400,note_on,30,0,8,,,,,,,,,7,,,74,0
14400,note_on,0,0,8,,,,,,,,,7,,,70,80
14400,note_on,15,0,6,,,,,,,,,5,,,45,0
14400,note_on,0,0,6,,,,,,,,,5,,,45,80
14400,note_on,0,0,9,,,,,,,,,8,,,61,80
14400,note_on,30,0,9,,,,,,,,,8,,,65,0
14400,note_on,300,0,1,,,,,,,,,0,,,88,80
14400,note_on,0,0,7,,,,,,,,,6,,,79,80
14415,note_on,15,0,6,,,,,,,,,5,,,45,0
14415,note_on,0,0,6,,,,,,,,,5,,,45,80
14430,note_on,15,0,6,,,,,,,,,5,,,45,0
14430,note_on,0,0,6,,,,,,,,,5,,,45,80
14445,note_on,0,0,6,,,,,,,,,5,,,45,80
14445,note_on,15,0,6,,,,,,,,,5,,,45,0
14460,note_on,0,0,6,,,,,,,,,5,,,45,80
14460,note_on,15,0,6,,,,,,,,,5,,,45,0
14460,note_on,0,0,10,,,,,,,,,10,,,45,80
14460,note_on,60,0,10,,,,,,,,,10,,,45,0
14460,note_on,60,0,2,,,,,,,,,1,,,79,0
14460,note_on,60,0,11,,,,,,,,,11,,,33,0
14460,note_on,0,0,11,,,,,,,,,11,,,33,80
14475,note_on,15,0,6,,,,,,,,,5,,,45,0
14475,note_on,0,0,6,,,,,,,,,5,,,45,80
14490,note_on,15,0,6,,,,,,,,,5,,,45,0
14490,note_on,0,0,6,,,,,,,,,5,,,45,80
14505,note_on,15,0,6,,,,,,,,,5,,,45,0
14505,note_on,0,0,6,,,,,,,,,5,,,45,80
14520,note_on,60,0,11,,,,,,,,,11,,,33,0
14520,note_on,0,0,6,,,,,,,,,5,,,45,80
14520,note_on,0,0,10,,,,,,,,,10,,,45,80
14520,note_on,0,0,11,,,,,,,,,11,,,33,80
14520,note_on,15,0,6,,,,,,,,,5,,,45,0
14520,note_on,60,0,10,,,,,,,,,10,,,45,0
14535,note_on,15,0,6,,,,,,,,,5,,,45,0
14535,note_on,0,0,6,,,,,,,,,5,,,45,80
14550,note_on,15,0,6,,,,,,,,,5,,,45,0
14550,note_on,0,0,6,,,,,,,,,5,,,45,80
14565,note_on,15,0,6,,,,,,,,,5,,,45,0
14565,note_on,0,0,6,,,,,,,,,5,,,45,80
14580,note_on,0,0,11,,,,,,,,,11,,,33,80
14580,note_on,15,0,6,,,,,,,,,5,,,45,0
14580,note_on,60,0,10,,,,,,,,,10,,,45,0
14580,note_on,0,0,10,,,,,,,,,10,,,45,80
14580,note_on,60,0,11,,,,,,,,,11,,,33,0
14580,note_on,0,0,6,,,,,,,,,5,,,45,80
14595,note_on,0,0,6,,,,,,,,,5,,,45,80
14595,note_on,15,0,6,,,,,,,,,5,,,45,0
14610,note_on,0,0,6,,,,,,,,,5,,,45,80
14610,note_on,210,0,9,,,,,,,,,8,,,61,0
14610,note_on,0,0,9,,,,,,,,,8,,,62,80
14610,note_on,0,0,8,,,,,,,,,7,,,69,80
14610,note_on,210,0,8,,,,,,,,,7,,,70,0
14610,note_on,0,0,7,,,,,,,,,6,,,77,80
14610,note_on,210,0,7,,,,,,,,,6,,,79,0
14610,note_on,0,0,1,,,,,,,,,0,,,89,80
14610,note_on,210,0,1,,,,,,,,,0,,,88,0
14610,note_on,15,0,6,,,,,,,,,5,,,45,0
14625,note_on,15,0,6,,,,,,,,,5,,,45,0
14625,note_on,0,0,6,,,,,,,,,5,,,45,80
14640,note_on,60,0,10,,,,,,,,,10,,,45,0
14640,note_on,30,0,8,,,,,,,,,7,,,69,0
14640,note_on,0,0,7,,,,,,,,,6,,,76,80
14640,note_on,30,0,7,,,,,,,,,6,,,77,0
14640,note_on,0,0,11,,,,,,,,,11,,,33,80
14640,note_on,60,0,11,,,,,,,,,11,,,33,0
14640,note_on,0,0,8,,,,,,,,,7,,,67,80
14640,note_on,0,0,10,,,,,,,,,10,,,45,80
14640,note_on,540,0,3,,,,,,,,,2,,,49,70
14640,note_on,0,0,6,,,,,,,,,5,,,45,80
14640,note_on,0,0,1,,,,,,,,,0,,,85,80
14640,note_on,30,0,1,,,,,,,,,0,,,89,0
14640,note_on,180,0,2,,,,,,,,,1,,,73,70
14640,note_on,30,0,9,,,,,,,,,8,,,62,0
14640,note_on,0,0,9,,,,,,,,,8,,,57,80
14640,note_on,15,0,6,,,,,,,,,5,,,45,0
14655,note_on,15,0,6,,,,,,,,,5,,,45,0
14655,note_on,0,0,6,,,,,,,,,5,,,45,80
14670,note_on,0,0,3,,,,,,,,,2,,,50,72
14670,note_on,15,0,6,,,,,,,,,5,,,45,0
14670,note_on,0,0,6,,,,,,,,,5,,,45,80
14670,note_on,30,0,2,,,,,,,,,1,,,73,0
14670,note_on,0,0,2,,,,,,,,,1,,,74,72
14670,note_on,30,0,3,,,,,,,,,2,,,49,0
14685,note_on,45,0,1,,,,,,,,,0,,,85,0
14685,note_on,45,0,9,,,,,,,,,8,,,57,0
14685,note_on,0,0,6,,,,,,,,,5,,,45,80
14685,note_on,15,0,6,,,,,,,,,5,,,45,0
14685,note_on,45,0,8,,,,,,,,,7,,,67,0
14685,note_on,45,0,7,,,,,,,,,6,,,76,0
14700,note_on,60,0,11,,,,,,,,,11,,,33,0
14700,note_on,0,0,2,,,,,,,,,1,,,75,74
14700,note_on,30,0,2,,,,,,,,,1,,,74,0
14700,note_on,60,0,10,,,,,,,,,10,,,45,0
14700,note_on,0,0,3,,,,,,,,,2,,,51,74
14700,note_on,30,0,3,,,,,,,,,2,,,50,0
14700,note_on,0,0,10,,,,,,,,,10,,,45,80
14700,note_on,0,0,11,,,,,,,,,11,,,33,80
14700,note_on,0,0,6,,,,,,,,,5,,,45,80
14700,note_on,15,0,6,,,,,,,,,5,,,45,0
14715,note_on,0,0,6,,,,,,,,,5,,,45,80
14715,note_on,15,0,6,,,,,,,,,5,,,45,0
14730,note_on,30,0,3,,,,,,,,,2,,,51,0
14730,note_on,0,0,3,,,,,,,,,2,,,52,76
14730,note_on,30,0,2,,,,,,,,,1,,,75,0
14730,note_on,15,0,6,,,,,,,,,5,,,45,0
14730,note_on,0,0,2,,,,,,,,,1,,,76,76
14730,note_on,0,0,6,,,,,,,,,5,,,45,80
14745,note_on,0,0,6,,,,,,,,,5,,,45,80
14745,note_on,15,0,6,,,,,,,,,5,,,45,0
14760,note_on,60,0,11,,,,,,,,,11,,,33,0
14760,note_on,0,0,11,,,,,,,,,11,,,33,80
14760,note_on,75,0,1,,,,,,,,,0,,,86,80
14760,note_on,0,0,2,,,,,,,,,1,,,77,78
14760,note_on,30,0,2,,,,,,,,,1,,,76,0
14760,note_on,75,0,7,,,,,,,,,6,,,74,80
14760,note_on,75,0,9,,,,,,,,,8,,,57,80
14760,note_on,60,0,10,,,,,,,,,10,,,45,0
14760,note_on,0,0,10,,,,,,,,,10,,,45,80
14760,note_on,75,0,8,,,,,,,,,7,,,65,80
14760,note_on,0,0,3,,,,,,,,,2,,,53,78
14760,note_on,30,0,3,,,,,,,,,2,,,52,0
14760,note_on,0,0,6,,,,,,,,,5,,,45,80
14760,note_on,15,0,6,,,,,,,,,5,,,45,0
14775,note_on,0,0,6,,,,,,,,,5,,,45,80
14775,note_on,15,0,6,,,,,,,,,5,,,45,0
14790,note_on,15,0,6,,,,,,,,,5,,,45,0
14790,note_on,0,0,2,,,,,,,,,1,,,78,80
14790,note_on,30,0,2,,,,,,,,,1,,,77,0
14790,note_on,0,0,3,,,,,,,,,2,,,54,80
14790,note_on,30,0,3,,,,,,,,,2,,,53,0
14790,note_on,0,0,6,,,,,,,,,5,,,45,80
14805,note_on,45,0,9,,,,,,,,,8,,,57,0
14805,note_on,45,0,1,,,,,,,,,0,,,86,0
14805,note_on,45,0,8,,,,,,,,,7,,,65,0
14805,note_on,15,0,6,,,,,,,,,5,,,45,0
14805,note_on,0,0,6,,,,,,,,,5,,,45,80
14805,note_on,45,0,7,,,,,,,,,6,,,74,0
14820,note_on,30,0,3,,,,,,,,,2,,,54,0
14820,note_on,0,0,3,,,,,,,,,2,,,55,82
14820,note_on,0,0,10,,,,,,,,,10,,,45,80
14820,note_on,0,0,6,,,,,,,,,5,,,45,80
14820,note_on,60,0,11,,,,,,,,,11,,,33,0
14820,note_on,0,0,11,,,,,,,,,11,,,33,80
14820,note_on,0,0,2,,,,,,,,,1,,,79,82
14820,note_on,30,0,2,,,,,,,,,1,,,78,0
14820,note_on,60,0,10,,,,,,,,,10,,,45,0
14820,note_on,15,0,6,,,,,,,,,5,,,45,0
14835,note_on,0,0,6,,,,,,,,,5,,,45,80
14835,note_on,15,0,6,,,,,,,,,5,,,45,0
14850,note_on,30,0,2,,,,,,,,,1,,,79,0
14850,note_on,0,0,2,,,,,,,,,1,,,80,84
14850,note_on,0,0,3,,,,,,,,,2,,,56,84
14850,note_on,0,0,6,,,,,,,,,5,,,45,80
14850,note_on,15,0,6,,,,,,,,,5,,,45,0
14850,note_on,30,0,3,,,,,,,,,2,,,55,0
14865,note_on,0,0,6,,,,,,,,,5,,,45,80
14865,note_on,15,0,6,,,,,,,,,5,,,45,0
14880,note_on,30,0,3,,,,,,,,,2,,,56,0
14880,note_on,0,0,3,,,,,,,,,2,,,57,50
14880,note_on,0,0,4,,,,,,,,,3,,,45,50
14880,note_on,60,0,10,,,,,,,,,10,,,45,0
14880,note_on,0,0,10,,,,,,,,,10,,,45,50
14880,note_on,0,0,5,,,,,,,,,4,,,69,50
14880,note_on,840,0,5,,,,,,,,,4,,,57,50
14880,note_on,75,0,7,,,,,,,,,6,,,73,50
14880,note_on,0,0,4,,,,,,,,,3,,,57,50
14880,note_on,75,0,9,,,,,,,,,8,,,64,50
14880,note_on,0,0,9,,,,,,,,,8,,,61,50
14880,note_on,0,0,4,,,,,,,,,3,,,45,0
14880,note_on,0,0,2,,,,,,,,,1,,,81,50
14880,note_on,75,0,1,,,,,,,,,0,,,81,50
14880,note_on,30,0,2,,,,,,,,,1,,,80,0
14880,note_on,0,0,1,,,,,,,,,0,,,69,50
14880,note_on,960,0,4,,,,,,,,,3,,,57,0
14880,note_on,0,0,6,,,,,,,,,5,,,45,50
14880,note_on,15,0,6,,,,,,,,,5,,,45,0
14880,note_on,60,0,11,,,,,,,,,11,,,33,0
14910,note_on,0,0,3,,,,,,,,,2,,,45,50
14910,note_on,30,0,3,,,,,,,,,2,,,57,0
14940,note_on,60,0,7,,,,,,,,,6,,,73,0
14940,note_on,60,0,10,,,,,,,,,10,,,45,0
14940,note_on,60,0,6,,,,,,,,,5,,,45,0
14940,note_on,60,0,5,,,,,,,,,4,,,69,0
14940,note_on,135,0,8,,,,,,,,,7,,,71,52
14940,note_on,0,0,3,,,,,,,,,2,,,49,50
14940,note_on,30,0,3,,,,,,,,,2,,,45,0
14940,note_on,0,0,5,,,,,,,,,4,,,57,0
14955,note_on,15,0,8,,,,,,,,,7,,,71,0
14955,note_on,0,0,8,,,,,,,,,7,,,69,53
14970,note_on,15,0,8,,,,,,,,,7,,,69,0
14970,note_on,0,0,3,,,,,,,,,2,,,52,50
14970,note_on,30,0,3,,,,,,,,,2,,,49,0
14970,note_on,0,0,8,,,,,,,,,7,,,68,55
14985,note_on,0,0,8,,,,,,,,,7,,,69,56
14985,note_on,15,0,8,,,,,,,,,7,,,68,0
15000,note_on,30,0,3,,,,,,,,,2,,,52,0
15000,note_on,0,0,8,,,,,,,,,7,,,73,57
15000,note_on,15,0,8,,,,,,,,,7,,,69,0
15000,note_on,0,0,3,,,,,,,,,2,,,57,50
15000,note_on,120,0,2,,,,,,,,,1,,,81,0
15030,note_on,30,0,8,,,,,,,,,7,,,73,0
15030,note_on,30,0,3,,,,,,,,,2,,,57,0
15030,note_on,0,0,3,,,,,,,,,2,,,52,50
15060,note_on,0,0,3,,,,,,,,,2,,,49,50
15060,note_on,30,0,8,,,,,,,,,7,,,77,62
15060,note_on,30,0,3,,,,,,,,,2,,,52,0
15075,note_on,0,0,8,,,,,,,,,7,,,76,63
15075,note_on,15,0,8,,,,,,,,,7,,,77,0
15090,note_on,30,0,3,,,,,,,,,2,,,49,0
15090,note_on,15,0,8,,,,,,,,,7,,,76,0
15090,note_on,0,0,3,,,,,,,,,2,,,45,50
15090,note_on,0,0,8,,,,,,,,,7,,,74,65
15105,note_on,15,0,8,,,,,,,,,7,,,74,0
15105,note_on,0,0,8,,,,,,,,,7,,,76,66
15120,note_on,30,0,3,,,,,,,,,2,,,45,0
15120,note_on,240,0,9,,,,,,,,,8,,,61,0
15120,note_on,0,0,9,,,,,,,,,8,,,64,0
15120,note_on,0,0,9,,,,,,,,,8,,,65,49
15120,note_on,0,0,9,,,,,,,,,8,,,62,49
15120,note_on,0,0,5,,,,,,,,,4,,,74,49
15120,note_on,180,0,10,,,,,,,,,10,,,50,49
15120,note_on,180,0,5,,,,,,,,,4,,,62,49
15120,note_on,15,0,8,,,,,,,,,7,,,76,0
15120,note_on,0,0,8,,,,,,,,,7,,,77,67
15120,note_on,180,0,6,,,,,,,,,5,,,50,49
15150,note_on,30,0,8,,,,,,,,,7,,,77,0
15150,note_on,30,0,3,,,,,,,,,2,,,50,49
15180,note_on,0,0,3,,,,,,,,,2,,,53,49
15180,note_on,0,0,5,,,,,,,,,4,,,62,0
15180,note_on,60,0,5,,,,,,,,,4,,,74,0
15180,note_on,60,0,10,,,,,,,,,10,,,50,0
15180,note_on,30,0,3,,,,,,,,,2,,,50,0
15180,note_on,240,0,7,,,,,,,,,6,,,82,49
15180,note_on,60,0,6,,,,,,,,,5,,,50,0
15195,note_on,15,0,7,,,,,,,,,6,,,82,0
15195,note_on,0,0,7,,,,,,,,,6,,,81,49
15210,note_on,30,0,3,,,,,,,,,2,,,53,0
15210,note_on,0,0,3,,,,,,,,,2,,,57,49
15210,note_on,0,0,7,,,,,,,,,6,,,80,49
15210,note_on,15,0,7,,,,,,,,,6,,,81,0
15225,note_on,0,0,7,,,,,,,,,6,,,81,49
15225,note_on,15,0,7,,,,,,,,,6,,,80,0
15240,note_on,15,0,7,,,,,,,,,6,,,81,0
15240,note_on,0,0,7,,,,,,,,,6,,,77,49
15240,note_on,0,0,3,,,,,,,,,2,,,62,49
15240,note_on,30,0,3,,,,,,,,,2,,,57,0
15270,note_on,30,0,7,,,,,,,,,6,,,77,0
15270,note_on,0,0,3,,,,,,,,,2,,,57,49
15270,note_on,30,0,3,,,,,,,,,2,,,62,0
15300,note_on,0,0,3,,,,,,,,,2,,,53,49
15300,note_on,30,0,3,,,,,,,,,2,,,57,0
15300,note_on,30,0,7,,,,,,,,,6,,,76,49
15315,note_on,0,0,7,,,,,,,,,6,,,74,49
15315,note_on,15,0,7,,,,,,,,,6,,,76,0
15330,note_on,15,0,7,,,,,,,,,6,,,74,0
15330,note_on,30,0,3,,,,,,,,,2,,,53,0
15330,note_on,0,0,3,,,,,,,,,2,,,50,49
15330,note_on,0,0,7,,,,,,,,,6,,,73,49
15345,note_on,15,0,7,,,,,,,,,6,,,73,0
15345,note_on,0,0,7,,,,,,,,,6,,,74,49
15360,note_on,180,0,5,,,,,,,,,4,,,57,48
15360,note_on,0,0,9,,,,,,,,,8,,,65,0
15360,note_on,0,0,9,,,,,,,,,8,,,64,48
15360,note_on,0,0,9,,,,,,,,,8,,,61,48
15360,note_on,0,0,2,,,,,,,,,1,,,73,48
15360,note_on,180,0,6,,,,,,,,,5,,,45,48
15360,note_on,180,0,10,,,,,,,,,10,,,45,48
15360,note_on,0,0,7,,,,,,,,,6,,,73,48
15360,note_on,0,0,5,,,,,,,,,4,,,69,48
15360,note_on,240,0,9,,,,,,,,,8,,,62,0
15360,note_on,15,0,7,,,,,,,,,6,,,74,0
15360,note_on,360,0,2,,,,,,,,,1,,,76,48
15360,note_on,30,0,3,,,,,,,,,2,,,50,0
15390,note_on,30,0,7,,,,,,,,,6,,,73,0
15390,note_on,30,0,3,,,,,,,,,2,,,45,48
15420,note_on,270,0,8,,,,,,,,,7,,,71,50
15420,note_on,60,0,10,,,,,,,,,10,,,45,0
15420,note_on,0,0,5,,,,,,,,,4,,,57,0
15420,note_on,30,0,3,,,,,,,,,2,,,45,0
15420,note_on,60,0,6,,,,,,,,,5,,,45,0
15420,note_on,0,0,3,,,,,,,,,2,,,49,48
15420,note_on,60,0,5,,,,,,,,,4,,,69,0
15435,note_on,15,0,8,,,,,,,,,7,,,71,0
15435,note_on,0,0,8,,,,,,,,,7,,,69,51
15450,note_on,30,0,3,,,,,,,,,2,,,49,0
15450,note_on,15,0,8,,,,,,,,,7,,,69,0
15450,note_on,0,0,8,,,,,,,,,7,,,68,52
15450,note_on,0,0,3,,,,,,,,,2,,,52,48
15465,note_on,15,0,8,,,,,,,,,7,,,68,0
15465,note_on,0,0,8,,,,,,,,,7,,,69,54
15480,note_on,15,0,8,,,,,,,,,7,,,69,0
15480,note_on,0,0,8,,,,,,,,,7,,,73,55
15480,note_on,30,0,3,,,,,,,,,2,,,52,0
15480,note_on,0,0,3,,,,,,,,,2,,,57,48
15510,note_on,30,0,8,,,,,,,,,7,,,73,0
15510,note_on,30,0,3,,,,,,,,,2,,,57,0
15510,note_on,0,0,3,,,,,,,,,2,,,52,48
15540,note_on,30,0,8,,,,,,,,,7,,,77,61
15540,note_on,30,0,3,,,,,,,,,2,,,52,0
15540,note_on,0,0,3,,,,,,,,,2,,,49,48
15555,note_on,0,0,8,,,,,,,,,7,,,76,62
15555,note_on,15,0,8,,,,,,,,,7,,,77,0
15570,note_on,15,0,8,,,,,,,,,7,,,76,0
15570,note_on,0,0,8,,,,,,,,,7,,,74,64
15570,note_on,30,0,3,,,,,,,,,2,,,49,0
15570,note_on,0,0,3,,,,,,,,,2,,,45,48
15585,note_on,0,0,8,,,,,,,,,7,,,76,65
15585,note_on,15,0,8,,,,,,,,,7,,,74,0
15600,note_on,30,0,3,,,,,,,,,2,,,45,0
15600,note_on,240,0,9,,,,,,,,,8,,,61,0
15600,note_on,0,0,9,,,,,,,,,8,,,64,0
15600,note_on,0,0,9,,,,,,,,,8,,,65,47
15600,note_on,0,0,9,,,,,,,,,8,,,62,47
15600,note_on,240,0,2,,,,,,,,,1,,,73,0
15600,note_on,0,0,2,,,,,,,,,1,,,76,0
15600,note_on,0,0,2,,,,,,,,,1,,,77,47
15600,note_on,0,0,2,,,,,,,,,1,,,74,47
15600,note_on,180,0,6,,,,,,,,,5,,,50,47
15600,note_on,0,0,8,,,,,,,,,7,,,77,67
15600,note_on,15,0,8,,,,,,,,,7,,,76,0
15600,note_on,180,0,5,,,,,,,,,4,,,74,47
15600,note_on,180,0,10,,,,,,,,,10,,,50,47
15600,note_on,0,0,5,,,,,,,,,4,,,62,47
15630,note_on,30,0,8,,,,,,,,,7,,,77,0
15630,note_on,30,0,3,,,,,,,,,2,,,50,47
15660,note_on,60,0,6,,,,,,,,,5,,,50,0
15660,note_on,270,0,7,,,,,,,,,6,,,82,47
15660,note_on,60,0,10,,,,,,,,,10,,,50,0
15660,note_on,60,0,5,,,,,,,,,4,,,62,0
15660,note_on,0,0,5,,,,,,,,,4,,,74,0
15660,note_on,30,0,3,,,,,,,,,2,,,50,0
15660,note_on,0,0,3,,,,,,,,,2,,,53,47
15675,note_on,0,0,7,,,,,,,,,6,,,81,47
15675,note_on,15,0,7,,,,,,,,,6,,,82,0
15690,note_on,30,0,3,,,,,,,,,2,,,53,0
15690,note_on,0,0,3,,,,,,,,,2,,,57,47
15690,note_on,0,0,7,,,,,,,,,6,,,80,47
15690,note_on,15,0,7,,,,,,,,,6,,,81,0
15705,note_on,0,0,7,,,,,,,,,6,,,81,47
15705,note_on,15,0,7,,,,,,,,,6,,,80,0
15720,note_on,0,0,7,,,,,,,,,6,,,77,47
15720,note_on,15,0,7,,,,,,,,,6,,,81,0
15720,note_on,30,0,3,,,,,,,,,2,,,57,0
15720,note_on,0,0,3,,,,,,,,,2,,,62,47
15750,note_on,0,0,3,,,,,,,,,2,,,57,47
15750,note_on,30,0,3,,,,,,,,,2,,,62,0
15750,note_on,30,0,7,,,,,,,,,6,,,77,0
15780,note_on,30,0,7,,,,,,,,,6,,,76,47
15780,note_on,30,0,3,,,,,,,,,2,,,57,0
15780,note_on,0,0,3,,,,,,,,,2,,,53,47
15795,note_on,0,0,7,,,,,,,,,6,,,74,47
15795,note_on,15,0,7,,,,,,,,,6,,,76,0
15810,note_on,30,0,3,,,,,,,,,2,,,53,0
15810,note_on,0,0,7,,,,,,,,,6,,,73,47
15810,note_on,15,0,7,,,,,,,,,6,,,74,0
15810,note_on,0,0,3,,,,,,,,,2,,,50,47
15825,note_on,15,0,7,,,,,,,,,6,,,73,0
15825,note_on,0,0,7,,,,,,,,,6,,,74,47
15840,note_on,960,0,4,,,,,,,,,3,,,57,0
15840,note_on,0,0,2,,,,,,,,,1,,,77,0
15840,note_on,210,0,8,,,,,,,,,7,,,64,46
15840,note_on,0,0,4,,,,,,,,,3,,,45,0
15840,note_on,180,0,6,,,,,,,,,5,,,45,46
15840,note_on,960,0,11,,,,,,,,,11,,,33,46
15840,note_on,15,0,7,,,,,,,,,6,,,74,0
15840,note_on,0,0,2,,,,,,,,,1,,,73,46
15840,note_on,0,0,2,,,,,,,,,1,,,76,46
15840,note_on,180,0,5,,,,,,,,,4,,,57,46
15840,note_on,0,0,7,,,,,,,,,6,,,69,46
15840,note_on,0,0,5,,,,,,,,,4,,,69,46
15840,note_on,0,0,4,,,,,,,,,3,,,57,46
15840,note_on,0,0,4,,,,,,,,,3,,,45,46
15840,note_on,240,0,9,,,,,,,,,8,,,62,0
15840,note_on,0,0,9,,,,,,,,,8,,,65,0
15840,note_on,0,0,3,,,,,,,,,2,,,49,46
15840,note_on,0,0,3,,,,,,,,,2,,,52,46
15840,note_on,30,0,3,,,,,,,,,2,,,50,0
15840,note_on,240,0,2,,,,,,,,,1,,,74,0
15840,note_on,0,0,9,,,,,,,,,8,,,64,46
15840,note_on,180,0,10,,,,,,,,,10,,,45,46
15840,note_on,0,0,9,,,,,,,,,8,,,61,46
15885,note_on,0,0,4,,,,,,,,,3,,,45,0
15885,note_on,45,0,4,,,,,,,,,3,,,57,0
15900,note_on,60,0,9,,,,,,,,,8,,,64,0
15900,note_on,0,0,5,,,,,,,,,4,,,57,0
15900,note_on,60,0,5,,,,,,,,,4,,,69,0
15900,note_on,0,0,9,,,,,,,,,8,,,61,0
15900,note_on,60,0,8,,,,,,,,,7,,,64,0
15900,note_on,60,0,11,,,,,,,,,11,,,33,0
15900,note_on,60,0,10,,,,,,,,,10,,,45,0
15900,note_on,60,0,6,,,,,,,,,5,,,45,0
15945,note_on,45,0,8,,,,,,,,,7,,,64,46
15945,note_on,45,0,9,,,,,,,,,8,,,61,46
15945,note_on,45,0,10,,,,,,,,,10,,,45,46
15945,note_on,45,0,11,,,,,,,,,11,,,33,46
15945,note_on,60,0,4,,,,,,,,,3,,,45,46
15945,note_on,0,0,4,,,,,,,,,3,,,57,46
15960,note_on,0,0,4,,,,,,,,,3,,,62,46
15960,note_on,0,0,4,,,,,,,,,3,,,50,46
15960,note_on,15,0,4,,,,,,,,,3,,,57,0
15960,note_on,0,0,8,,,,,,,,,7,,,65,46
15960,note_on,0,0,4,,,,,,,,,3,,,45,0
15960,note_on,15,0,8,,,,,,,,,7,,,64,0
15960,note_on,120,0,2,,,,,,,,,1,,,76,0
15960,note_on,120,0,3,,,,,,,,,2,,,49,0
15960,note_on,0,0,3,,,,,,,,,2,,,52,0
15960,note_on,60,0,6,,,,,,,,,5,,,50,46
15960,note_on,0,0,9,,,,,,,,,8,,,62,46
15960,note_on,15,0,10,,,,,,,,,10,,,45,0
15960,note_on,15,0,9,,,,,,,,,8,,,61,0
15960,note_on,0,0,3,,,,,,,,,2,,,53,46
15960,note_on,1080,0,1,,,,,,,,,0,,,69,0
15960,note_on,0,0,10,,,,,,,,,10,,,50,46
15960,note_on,0,0,5,,,,,,,,,4,,,62,46
15960,note_on,60,0,5,,,,,,,,,4,,,74,46
15960,note_on,15,0,11,,,,,,,,,11,,,33,0
15960,note_on,0,0,11,,,,,,,,,11,,,38,46
15960,note_on,0,0,2,,,,,,,,,1,,,73,0
15960,note_on,0,0,3,,,,,,,,,2,,,50,46
15980,note_on,20,0,1,,,,,,,,,0,,,81,0
15980,note_on,0,0,7,,,,,,,,,6,,,74,46
15980,note_on,0,0,1,,,,,,,,,0,,,86,46
15980,note_on,140,0,7,,,,,,,,,6,,,69,0
16000,note_on,0,0,7,,,,,,,,,6,,,73,46
16000,note_on,0,0,1,,,,,,,,,0,,,85,46
16000,note_on,20,0,7,,,,,,,,,6,,,74,0
16000,note_on,20,0,1,,,,,,,,,0,,,86,0
16005,note_on,45,0,4,,,,,,,,,3,,,50,0
16005,note_on,0,0,4,,,,,,,,,3,,,62,0
16020,note_on,60,0,6,,,,,,,,,5,,,50,0
16020,note_on,20,0,1,,,,,,,,,0,,,85,0
16020,note_on,0,0,1,,,,,,,,,0,,,84,46
16020,note_on,60,0,9,,,,,,,,,8,,,62,0
16020,note_on,60,0,8,,,,,,,,,7,,,65,0
16020,note_on,20,0,7,,,,,,,,,6,,,73,0
16020,note_on,60,0,10,,,,,,,,,10,,,50,0
16020,note_on,0,0,5,,,,,,,,,4,,,74,0
16020,note_on,60,0,5,,,,,,,,,4,,,62,0
16020,note_on,60,0,11,,,,,,,,,11,,,38,0
16020,note_on,0,0,7,,,,,,,,,6,,,72,46
16040,note_on,20,0,7,,,,,,,,,6,,,72,0
16040,note_on,0,0,7,,,,,,,,,6,,,71,46
16040,note_on,0,0,1,,,,,,,,,0,,,83,46
16040,note_on,20,0,1,,,,,,,,,0,,,84,0
16060,note_on,0,0,7,,,,,,,,,6,,,70,46
16060,note_on,20,0,7,,,,,,,,,6,,,71,0
16060,note_on,0,0,1,,,,,,,,,0,,,82,46
16060,note_on,20,0,1,,,,,,,,,0,,,83,0
16065,note_on,45,0,9,,,,,,,,,8,,,62,46
16065,note_on,45,0,8,,,,,,,,,7,,,65,46
16065,note_on,60,0,4,,,,,,,,,3,,,50,46
16065,note_on,0,0,4,,,,,,,,,3,,,62,46
16065,note_on,45,0,10,,,,,,,,,10,,,50,46
16065,note_on,45,0,11,,,,,,,,,11,,,38,46
16080,note_on,0,0,11,,,,,,,,,11,,,33,45
16080,note_on,15,0,11,,,,,,,,,11,,,38,0
16080,note_on,20,0,1,,,,,,,,,0,,,82,0
16080,note_on,15,0,4,,,,,,,,,3,,,62,0
16080,note_on,15,0,9,,,,,,,,,8,,,62,0
16080,note_on,0,0,5,,,,,,,,,4,,,69,45
16080,note_on,120,0,2,,,,,,,,,1,,,69,45
16080,note_on,60,0,5,,,,,,,,,4,,,57,45
16080,note_on,0,0,4,,,,,,,,,3,,,50,0
16080,note_on,60,0,6,,,,,,,,,5,,,45,45
16080,note_on,0,0,9,,,,,,,,,8,,,61,45
16080,note_on,0,0,1,,,,,,,,,0,,,81,45
16080,note_on,0,0,7,,,,,,,,,6,,,69,45
16080,note_on,15,0,10,,,,,,,,,10,,,50,0
16080,note_on,0,0,4,,,,,,,,,3,,,45,45
16080,note_on,120,0,3,,,,,,,,,2,,,50,0
16080,note_on,0,0,3,,,,,,,,,2,,,53,0
16080,note_on,0,0,4,,,,,,,,,3,,,57,45
16080,note_on,0,0,8,,,,,,,,,7,,,64,45
16080,note_on,0,0,3,,,,,,,,,2,,,49,45
16080,note_on,0,0,3,,,,,,,,,2,,,52,45
16080,note_on,20,0,7,,,,,,,,,6,,,70,0
16080,note_on,0,0,10,,,,,,,,,10,,,45,45
16080,note_on,15,0,8,,,,,,,,,7,,,65,0
16125,note_on,45,0,4,,,,,,,,,3,,,57,0
16125,note_on,0,0,4,,,,,,,,,3,,,45,0
16140,note_on,60,0,8,,,,,,,,,7,,,64,0
16140,note_on,60,0,9,,,,,,,,,8,,,61,0
16140,note_on,60,0,10,,,,,,,,,10,,,45,0
16140,note_on,60,0,6,,,,,,,,,5,,,45,0
16140,note_on,0,0,5,,,,,,,,,4,,,57,0
16140,note_on,60,0,11,,,,,,,,,11,,,33,0
16140,note_on,60,0,5,,,,,,,,,4,,,69,0
16185,note_on,60,0,4,,,,,,,,,3,,,45,45
16185,note_on,45,0,8,,,,,,,,,7,,,61,45
16185,note_on,0,0,4,,,,,,,,,3,,,57,45
16185,note_on,45,0,9,,,,,,,,,8,,,52,45
16185,note_on,45,0,11,,,,,,,,,11,,,33,45
16185,note_on,45,0,10,,,,,,,,,10,,,45,45
16200,note_on,0,0,9,,,,,,,,,8,,,53,45
16200,note_on,15,0,9,,,,,,,,,8,,,52,0
16200,note_on,15,0,8,,,,,,,,,7,,,61,0
16200,note_on,0,0,8,,,,,,,,,7,,,62,45
16200,note_on,0,0,3,,,,,,,,,2,,,49,0
16200,note_on,120,0,3,,,,,,,,,2,,,52,0
16200,note_on,0,0,10,,,,,,,,,10,,,50,45
16200,note_on,15,0,10,,,,,,,,,10,,,45,0
16200,note_on,0,0,5,,,,,,,,,4,,,62,45
16200,note_on,60,0,5,,,,,,,,,4,,,74,45
16200,note_on,0,0,3,,,,,,,,,2,,,53,45
16200,note_on,0,0,11,,,,,,,,,11,,,38,45
16200,note_on,15,0,11,,,,,,,,,11,,,33,0
16200,note_on,15,0,4,,,,,,,,,3,,,57,0
16200,note_on,0,0,4,,,,,,,,,3,,,45,0
16200,note_on,0,0,3,,,,,,,,,2,,,50,45
16200,note_on,0,0,4,,,,,,,,,3,,,50,45
16200,note_on,0,0,4,,,,,,,,,3,,,62,45
16200,note_on,60,0,6,,,,,,,,,5,,,50,45
16220,note_on,0,0,1,,,,,,,,,0,,,86,45
16220,note_on,140,0,1,,,,,,,,,0,,,81,0
16220,note_on,140,0,2,,,,,,,,,1,,,69,0
16220,note_on,0,0,2,,,,,,,,,1,,,74,45
16220,note_on,0,0,7,,,,,,,,,6,,,62,45
16220,note_on,140,0,7,,,,,,,,,6,,,69,0
16240,note_on,0,0,7,,,,,,,,,6,,,61,45
16240,note_on,20,0,7,,,,,,,,,6,,,62,0
16240,note_on,0,0,1,,,,,,,,,0,,,85,45
16240,note_on,20,0,2,,,,,,,,,1,,,74,0
16240,note_on,20,0,1,,,,,,,,,0,,,86,0
16240,note_on,0,0,2,,,,,,,,,1,,,73,45
16245,note_on,45,0,4,,,,,,,,,3,,,62,0
16245,note_on,0,0,4,,,,,,,,,3,,,50,0
16260,note_on,60,0,8,,,,,,,,,7,,,62,0
16260,note_on,0,0,5,,,,,,,,,4,,,74,0
16260,note_on,60,0,5,,,,,,,,,4,,,62,0
16260,note_on,20,0,7,,,,,,,,,6,,,61,0
16260,note_on,0,0,7,,,,,,,,,6,,,60,45
16260,note_on,20,0,1,,,,,,,,,0,,,85,0
16260,note_on,60,0,11,,,,,,,,,11,,,38,0
16260,note_on,60,0,6,,,,,,,,,5,,,50,0
16260,note_on,0,0,1,,,,,,,,,0,,,84,45
16260,note_on,20,0,2,,,,,,,,,1,,,73,0
16260,note_on,0,0,2,,,,,,,,,1,,,72,45
16260,note_on,60,0,10,,,,,,,,,10,,,50,0
16260,note_on,60,0,9,,,,,,,,,8,,,53,0
16280,note_on,20,0,1,,,,,,,,,0,,,84,0
16280,note_on,0,0,7,,,,,,,,,6,,,59,45
16280,note_on,20,0,7,,,,,,,,,6,,,60,0
16280,note_on,0,0,1,,,,,,,,,0,,,83,45
16280,note_on,0,0,2,,,,,,,,,1,,,71,45
16280,note_on,20,0,2,,,,,,,,,1,,,72,0
16300,note_on,0,0,7,,,,,,,,,6,,,58,45
16300,note_on,20,0,1,,,,,,,,,0,,,83,0
16300,note_on,0,0,1,,,,,,,,,0,,,82,45
16300,note_on,20,0,2,,,,,,,,,1,,,71,0
16300,note_on,0,0,2,,,,,,,,,1,,,70,45
16300,note_on,20,0,7,,,,,,,,,6,,,59,0
16305,note_on,45,0,9,,,,,,,,,8,,,53,45
16305,note_on,60,0,4,,,,,,,,,3,,,50,45
16305,note_on,0,0,4,,,,,,,,,3,,,62,45
16305,note_on,45,0,11,,,,,,,,,11,,,38,45
16305,note_on,45,0,8,,,,,,,,,7,,,62,45
16305,note_on,45,0,10,,,,,,,,,10,,,50,45
16318,set_tempo,3358,1,0,,,,,,1182965,,,,,,,
16320,note_on,0,0,7,,,,,,,,,6,,,57,44
16320,note_on,20,0,2,,,,,,,,,1,,,70,0
16320,note_on,0,0,2,,,,,,,,,1,,,69,44
16320,note_on,0,0,2,,,,,,,,,1,,,73,44
16320,note_on,20,0,7,,,,,,,,,6,,,58,0
16320,note_on,15,0,8,,,,,,,,,7,,,62,0
16320,note_on,0,0,11,,,,,,,,,11,,,33,44
16320,note_on,0,0,4,,,,,,,,,3,,,57,44
16320,note_on,0,0,4,,,,,,,,,3,,,45,44
16320,note_on,0,0,3,,,,,,,,,2,,,49,44
16320,note_on,0,0,3,,,,,,,,,2,,,52,44
16320,note_on,0,0,3,,,,,,,,,2,,,53,0
16320,note_on,120,0,3,,,,,,,,,2,,,50,0
16320,note_on,0,0,4,,,,,,,,,3,,,50,0
16320,note_on,15,0,4,,,,,,,,,3,,,62,0
16320,note_on,0,0,8,,,,,,,,,7,,,61,44
16320,note_on,0,0,5,,,,,,,,,4,,,69,44
16320,note_on,15,0,11,,,,,,,,,11,,,38,0
16320,note_on,15,0,10,,,,,,,,,10,,,50,0
16320,note_on,0,0,10,,,,,,,,,10,,,45,44
16320,note_on,60,0,6,,,,,,,,,5,,,45,44
16320,note_on,60,0,5,,,,,,,,,4,,,57,44
16320,note_on,0,0,1,,,,,,,,,0,,,81,44
16320,note_on,15,0,9,,,,,,,,,8,,,53,0
16320,note_on,0,0,1,,,,,,,,,0,,,76,44
16320,note_on,0,0,9,,,,,,,,,8,,,52,44
16320,note_on,20,0,1,,,,,,,,,0,,,82,0
16352,set_tempo,34,1,0,,,,,,1205303,,,,,,,
16365,note_on,0,0,4,,,,,,,,,3,,,45,0
16365,note_on,45,0,4,,,,,,,,,3,,,57,0
16380,note_on,0,0,8,,,,,,,,,7,,,57,44
16380,note_on,60,0,9,,,,,,,,,8,,,52,0
16380,note_on,60,0,7,,,,,,,,,6,,,57,0
16380,note_on,60,0,11,,,,,,,,,11,,,33,0
16380,note_on,0,0,7,,,,,,,,,6,,,57,44
16380,note_on,60,0,6,,,,,,,,,5,,,45,0
16380,note_on,0,0,5,,,,,,,,,4,,,57,0
16380,note_on,60,0,5,,,,,,,,,4,,,69,0
16380,note_on,60,0,10,,,,,,,,,10,,,45,0
16380,note_on,60,0,8,,,,,,,,,7,,,61,0
16384,set_tempo,32,1,0,,,,,,1228501,,,,,,,
16419,set_tempo,35,1,0,,,,,,1252610,,,,,,,
16425,note_on,0,0,9,,,,,,,,,8,,,52,44
16425,note_on,0,0,4,,,,,,,,,3,,,57,44
16425,note_on,60,0,4,,,,,,,,,3,,,45,44
16425,note_on,45,0,6,,,,,,,,,5,,,45,44
16425,note_on,45,0,9,,,,,,,,,8,,,49,44
16440,note_on,0,0,4,,,,,,,,,3,,,45,0
16440,note_on,0,0,6,,,,,,,,,5,,,50,44
16440,note_on,15,0,6,,,,,,,,,5,,,45,0
16440,note_on,60,0,5,,,,,,,,,4,,,62,44
16440,note_on,0,0,5,,,,,,,,,4,,,74,44
16440,note_on,15,0,4,,,,,,,,,3,,,57,0
16440,note_on,0,0,9,,,,,,,,,8,,,49,0
16440,note_on,0,0,4,,,,,,,,,3,,,62,44
16440,note_on,0,0,3,,,,,,,,,2,,,50,44
16440,note_on,0,0,3,,,,,,,,,2,,,52,0
16440,note_on,120,0,3,,,,,,,,,2,,,49,0
16440,note_on,0,0,4,,,,,,,,,3,,,50,44
16440,note_on,0,0,9,,,,,,,,,8,,,50,44
16440,note_on,120,0,2,,,,,,,,,1,,,73,0
16440,note_on,60,0,10,,,,,,,,,10,,,50,44
16440,note_on,0,0,9,,,,,,,,,8,,,53,44
16440,note_on,0,0,1,,,,,,,,,0,,,77,44
16440,note_on,60,0,11,,,,,,,,,11,,,38,44
16440,note_on,120,0,1,,,,,,,,,0,,,76,0
16440,note_on,0,0,2,,,,,,,,,1,,,74,44
16440,note_on,0,0,3,,,,,,,,,2,,,53,44
16440,note_on,15,0,9,,,,,,,,,8,,,52,0
16450,set_tempo,31,1,0,,,,,,1277683,,,,,,,
16485,note_on,0,0,4,,,,,,,,,3,,,62,0
16485,note_on,45,0,4,,,,,,,,,3,,,50,0
16485,set_tempo,35,1,0,,,,,,1303781,,,,,,,
16500,note_on,0,0,9,,,,,,,,,8,,,50,0
16500,note_on,60,0,9,,,,,,,,,8,,,53,0
16500,note_on,0,0,7,,,,,,,,,6,,,57,44
16500,note_on,60,0,11,,,,,,,,,11,,,38,0
16500,note_on,120,0,7,,,,,,,,,6,,,57,0
16500,note_on,60,0,5,,,,,,,,,4,,,74,0
16500,note_on,0,0,5,,,,,,,,,4,,,62,0
16500,note_on,60,0,10,,,,,,,,,10,,,50,0
16500,note_on,120,0,8,,,,,,,,,7,,,57,0
16500,note_on,0,0,8,,,,,,,,,7,,,57,44
16500,note_on,60,0,6,,,,,,,,,5,,,50,0
16517,set_tempo,32,1,0,,,,,,1330967,,,,,,,
16545,note_on,0,0,4,,,,,,,,,3,,,62,44
16545,note_on,60,0,4,,,,,,,,,3,,,50,44
16545,note_on,45,0,6,,,,,,,,,5,,,50,44
16545,note_on,0,0,9,,,,,,,,,8,,,53,44
16545,note_on,45,0,9,,,,,,,,,8,,,50,44
16551,set_tempo,34,1,0,,,,,,1359311,,,,,,,
16560,note_on,15,0,6,,,,,,,,,5,,,50,0
16560,note_on,0,0,6,,,,,,,,,5,,,45,43
16560,note_on,0,0,1,,,,,,,,,0,,,76,43
16560,note_on,120,0,1,,,,,,,,,0,,,77,0
16560,note_on,60,0,10,,,,,,,,,10,,,45,43
16560,note_on,15,0,9,,,,,,,,,8,,,53,0
16560,note_on,0,0,9,,,,,,,,,8,,,50,0
16560,note_on,0,0,9,,,,,,,,,8,,,49,43
16560,note_on,0,0,9,,,,,,,,,8,,,52,43
16560,note_on,120,0,3,,,,,,,,,2,,,50,0
16560,note_on,0,0,3,,,,,,,,,2,,,53,0
16560,note_on,0,0,3,,,,,,,,,2,,,49,43
16560,note_on,0,0,5,,,,,,,,,4,,,69,43
16560,note_on,60,0,5,,,,,,,,,4,,,57,43
16560,note_on,0,0,4,,,,,,,,,3,,,57,43
16560,note_on,0,0,4,,,,,,,,,3,,,45,43
16560,note_on,0,0,4,,,,,,,,,3,,,50,0
16560,note_on,15,0,4,,,,,,,,,3,,,62,0
16560,note_on,60,0,11,,,,,,,,,11,,,33,43
16560,note_on,0,0,3,,,,,,,,,2,,,52,43
16560,note_on,120,0,2,,,,,,,,,1,,,74,0
16560,note_on,0,0,2,,,,,,,,,1,,,73,43
16583,set_tempo,32,1,0,,,,,,1388889,,,,,,,
16605,note_on,0,0,4,,,,,,,,,3,,,45,0
16605,note_on,45,0,4,,,,,,,,,3,,,57,0
16618,set_tempo,35,1,0,,,,,,1419782,,,,,,,
16620,note_on,60,0,11,,,,,,,,,11,,,33,0
16620,note_on,120,0,8,,,,,,,,,7,,,57,0
16620,note_on,0,0,8,,,,,,,,,7,,,57,43
16620,note_on,60,0,10,,,,,,,,,10,,,45,0
16620,note_on,0,0,5,,,,,,,,,4,,,57,0
16620,note_on,60,0,5,,,,,,,,,4,,,69,0
16620,note_on,120,0,7,,,,,,,,,6,,,57,0
16620,note_on,60,0,6,,,,,,,,,5,,,45,0
16620,note_on,0,0,7,,,,,,,,,6,,,57,43
16620,note_on,60,0,9,,,,,,,,,8,,,52,0
16620,note_on,0,0,9,,,,,,,,,8,,,49,0
16649,set_tempo,31,1,0,,,,,,1452081,,,,,,,
16665,note_on,60,0,4,,,,,,,,,3,,,45,43
16665,note_on,0,0,9,,,,,,,,,8,,,52,43
16665,note_on,45,0,9,,,,,,,,,8,,,49,43
16665,note_on,0,0,4,,,,,,,,,3,,,57,43
16665,note_on,45,0,6,,,,,,,,,5,,,45,43
16680,note_on,0,0,9,,,,,,,,,8,,,50,43
16680,note_on,0,0,1,,,,,,,,,0,,,77,43
16680,note_on,120,0,3,,,,,,,,,2,,,49,0
16680,note_on,0,0,3,,,,,,,,,2,,,52,0
16680,note_on,0,0,3,,,,,,,,,2,,,53,43
16680,note_on,0,0,3,,,,,,,,,2,,,50,43
16680,note_on,0,0,9,,,,,,,,,8,,,53,43
16680,note_on,60,0,10,,,,,,,,,10,,,50,43
16680,note_on,0,0,5,,,,,,,,,4,,,74,43
16680,note_on,0,0,2,,,,,,,,,1,,,74,43
16680,note_on,0,0,9,,,,,,,,,8,,,49,0
16680,note_on,15,0,6,,,,,,,,,5,,,45,0
16680,note_on,60,0,11,,,,,,,,,11,,,38,43
16680,note_on,0,0,4,,,,,,,,,3,,,62,43
16680,note_on,0,0,4,,,,,,,,,3,,,50,43
16680,note_on,0,0,4,,,,,,,,,3,,,45,0
16680,note_on,15,0,4,,,,,,,,,3,,,57,0
16680,note_on,0,0,6,,,,,,,,,5,,,50,43
16680,note_on,120,0,2,,,,,,,,,1,,,73,0
16680,note_on,60,0,5,,,,,,,,,4,,,62,43
16680,note_on,15,0,9,,,,,,,,,8,,,52,0
16680,note_on,120,0,1,,,,,,,,,0,,,76,0
16684,set_tempo,35,1,0,,,,,,1485884,,,,,,,
16716,set_tempo,32,1,0,,,,,,1521298,,,,,,,
16725,note_on,0,0,4,,,,,,,,,3,,,50,0
16725,note_on,45,0,4,,,,,,,,,3,,,62,0
16740,note_on,60,0,9,,,,,,,,,8,,,50,0
16740,note_on,60,0,11,,,,,,,,,11,,,38,0
16740,note_on,60,0,10,,,,,,,,,10,,,50,0
16740,note_on,0,0,5,,,,,,,,,4,,,62,0
16740,note_on,60,0,5,,,,,,,,,4,,,74,0
16740,note_on,0,0,7,,,,,,,,,6,,,57,43
16740,note_on,120,0,8,,,,,,,,,7,,,57,0
16740,note_on,60,0,6,,,,,,,,,5,,,50,0
16740,note_on,0,0,9,,,,,,,,,8,,,53,0
16740,note_on,0,0,8,,,,,,,,,7,,,57,43
16740,note_on,120,0,7,,,,,,,,,6,,,57,0
16750,set_tempo,34,1,0,,,,,,1558442,,,,,,,
16782,set_tempo,32,1,0,,,,,,1597444,,,,,,,
16785,note_on,60,0,4,,,,,,,,,3,,,50,43
16785,note_on,0,0,4,,,,,,,,,3,,,62,43
16785,note_on,45,0,6,,,,,,,,,5,,,50,43
16785,note_on,0,0,9,,,,,,,,,8,,,53,43
16785,note_on,45,0,9,,,,,,,,,8,,,50,43
16800,note_on,60,0,8,,,,,,,,,7,,,57,0
16800,note_on,0,0,8,,,,,,,,,7,,,57,42
16800,note_on,120,0,3,,,,,,,,,2,,,50,0
16800,set_tempo,18,1,0,,,,,,1714286,,,,,,,
16800,note_on,0,0,3,,,,,,,,,2,,,53,0
16800,note_on,60,0,10,,,,,,,,,10,,,45,42
16800,note_on,0,0,3,,,,,,,,,2,,,52,42
16800,note_on,60,0,11,,,,,,,,,11,,,33,42
16800,note_on,0,0,1,,,,,,,,,0,,,76,42
16800,note_on,0,0,5,,,,,,,,,4,,,69,42
16800,note_on,60,0,5,,,,,,,,,4,,,57,42
16800,note_on,0,0,4,,,,,,,,,3,,,57,42
16800,note_on,0,0,4,,,,,,,,,3,,,45,42
16800,note_on,0,0,4,,,,,,,,,3,,,50,0
16800,note_on,15,0,4,,,,,,,,,3,,,62,0
16800,note_on,0,0,6,,,,,,,,,5,,,45,42
16800,note_on,120,0,2,,,,,,,,,1,,,74,0
16800,note_on,0,0,2,,,,,,,,,1,,,73,42
16800,note_on,0,0,9,,,,,,,,,8,,,52,42
16800,note_on,0,0,3,,,,,,,,,2,,,49,42
16800,note_on,120,0,1,,,,,,,,,0,,,77,0
16800,note_on,15,0,6,,,,,,,,,5,,,50,0
16800,note_on,0,0,9,,,,,,,,,8,,,49,42
16800,note_on,60,0,7,,,,,,,,,6,,,57,0
16800,note_on,15,0,9,,,,,,,,,8,,,53,0
16800,note_on,0,0,7,,,,,,,,,6,,,57,42
16800,note_on,0,0,9,,,,,,,,,8,,,50,0
16815,note_on,15,0,6,,,,,,,,,5,,,45,0
16815,note_on,0,0,6,,,,,,,,,5,,,45,42
16830,note_on,15,0,6,,,,,,,,,5,,,45,0
16830,note_on,0,0,6,,,,,,,,,5,,,45,42
16845,note_on,15,0,6,,,,,,,,,5,,,45,0
16845,note_on,0,0,6,,,,,,,,,5,,,45,42
16860,note_on,15,0,6,,,,,,,,,5,,,45,0
16860,note_on,0,0,6,,,,,,,,,5,,,45,42
16875,note_on,0,0,6,,,,,,,,,5,,,45,42
16875,note_on,15,0,6,,,,,,,,,5,,,45,0
16890,note_on,15,0,6,,,,,,,,,5,,,45,0
16890,note_on,0,0,6,,,,,,,,,5,,,45,42
16905,note_on,0,0,6,,,,,,,,,5,,,45,42
16905,note_on,15,0,6,,,,,,,,,5,,,45,0
16920,note_on,15,0,6,,,,,,,,,5,,,45,0
16920,note_on,0,0,6,,,,,,,,,5,,,45,42
16935,note_on,15,0,6,,,,,,,,,5,,,45,0
16935,note_on,0,0,6,,,,,,,,,5,,,45,42
16950,note_on,0,0,6,,,,,,,,,5,,,45,42
16950,note_on,15,0,6,,,,,,,,,5,,,45,0
16965,note_on,0,0,6,,,,,,,,,5,,,45,42
16965,note_on,15,0,6,,,,,,,,,5,,,45,0
16980,note_on,0,0,6,,,,,,,,,5,,,45,42
16980,note_on,15,0,6,,,,,,,,,5,,,45,0
16995,note_on,15,0,6,,,,,,,,,5,,,45,0
16995,note_on,0,0,6,,,,,,,,,5,,,45,42
17010,note_on,0,0,6,,,,,,,,,5,,,45,42
17010,note_on,15,0,6,,,,,,,,,5,,,45,0
17025,note_on,0,0,6,,,,,,,,,5,,,45,42
17025,note_on,15,0,6,,,,,,,,,5,,,45,0
17040,note_on,15,0,6,,,,,,,,,5,,,45,0
17040,note_on,0,0,6,,,,,,,,,5,,,45,41
17055,note_on,15,0,6,,,,,,,,,5,,,45,0
17055,note_on,0,0,6,,,,,,,,,5,,,45,41
17070,note_on,15,0,6,,,,,,,,,5,,,45,0
17070,note_on,0,0,6,,,,,,,,,5,,,45,41
17085,note_on,15,0,6,,,,,,,,,5,,,45,0
17085,note_on,0,0,6,,,,,,,,,5,,,45,41
17100,note_on,0,0,6,,,,,,,,,5,,,45,41
17100,note_on,15,0,6,,,,,,,,,5,,,45,0
17115,note_on,0,0,6,,,,,,,,,5,,,45,41
17115,note_on,15,0,6,,,,,,,,,5,,,45,0
17130,note_on,0,0,6,,,,,,,,,5,,,45,41
17130,note_on,15,0,6,,,,,,,,,5,,,45,0
17145,note_on,15,0,6,,,,,,,,,5,,,45,0
17145,note_on,0,0,6,,,,,,,,,5,,,45,41
17160,note_on,0,0,6,,,,,,,,,5,,,45,41
17160,note_on,15,0,6,,,,,,,,,5,,,45,0
17175,note_on,0,0,6,,,,,,,,,5,,,45,41
17175,note_on,15,0,6,,,,,,,,,5,,,45,0
17190,note_on,15,0,6,,,,,,,,,5,,,45,0
17190,note_on,0,0,6,,,,,,,,,5,,,45,41
17205,note_on,0,0,6,,,,,,,,,5,,,45,41
17205,note_on,15,0,6,,,,,,,,,5,,,45,0
17220,note_on,15,0,6,,,,,,,,,5,,,45,0
17220,note_on,0,0,6,,,,,,,,,5,,,45,41
17232,note_on,432,0,8,,,,,,,,,7,,,57,0
17232,note_on,0,0,2,,,,,,,,,1,,,69,0
17232,note_on,432,0,2,,,,,,,,,1,,,73,0
17232,note_on,0,0,3,,,,,,,,,2,,,49,0
17232,note_on,432,0,7,,,,,,,,,6,,,57,0
17232,note_on,0,0,4,,,,,,,,,3,,,45,0
17232,note_on,432,0,3,,,,,,,,,2,,,52,0
17232,note_on,432,0,10,,,,,,,,,10,,,45,0
17232,note_on,0,0,5,,,,,,,,,4,,,57,0
17232,note_on,432,0,5,,,,,,,,,4,,,69,0
17232,note_on,0,0,9,,,,,,,,,8,,,49,0
17232,note_on,432,0,9,,,,,,,,,8,,,52,0
17232,note_on,432,0,11,,,,,,,,,11,,,33,0
17232,note_on,432,0,4,,,,,,,,,3,,,57,0
17232,note_on,432,0,1,,,,,,,,,0,,,76,0
17232,note_on,0,0,1,,,,,,,,,0,,,81,0
17235,note_on,15,0,6,,,,,,,,,5,,,45,0
17280,marker,0,1,0,,,,,,,,,,,,,
17280,note_on,48,0,7,,,,,,,,,6,,,62,50
17280,set_tempo,480,1,0,,,,,,352941,,,,,,,
17328,note_on,48,0,7,,,,,,,,,6,,,62,0
17340,note_on,12,0,7,,,,,,,,,6,,,62,50
17436,note_on,96,0,7,,,,,,,,,6,,,62,0
17460,note_on,24,0,7,,,,,,,,,6,,,62,50
17556,note_on,96,0,7,,,,,,,,,6,,,62,0
17580,note_on,24,0,7,,,,,,,,,6,,,62,50
17676,note_on,96,0,7,,,,,,,,,6,,,62,0
17700,note_on,24,0,7,,,,,,,,,6,,,62,50
17760,note_on,528,0,9,,,,,,,,,8,,,54,50
17760,note_on,528,0,11,,,,,,,,,11,,,42,50
17760,note_on,528,0,10,,,,,,,,,10,,,54,50
17760,note_on,528,0,8,,,,,,,,,7,,,57,50
17796,note_on,96,0,7,,,,,,,,,6,,,62,0
17820,note_on,24,0,7,,,,,,,,,6,,,62,50
17916,note_on,96,0,7,,,,,,,,,6,,,62,0
17940,note_on,24,0,7,,,,,,,,,6,,,62,50
18036,note_on,96,0,7,,,,,,,,,6,,,62,0
18060,note_on,24,0,7,,,,,,,,,6,,,62,50
18156,note_on,96,0,7,,,,,,,,,6,,,62,0
18180,note_on,24,0,7,,,,,,,,,6,,,62,50
18240,note_on,480,0,8,,,,,,,,,7,,,57,0
18240,note_on,0,0,10,,,,,,,,,10,,,55,50
18240,note_on,0,0,11,,,,,,,,,11,,,43,50
18240,note_on,0,0,9,,,,,,,,,8,,,55,50
18240,note_on,480,0,9,,,,,,,,,8,,,54,0
18240,note_on,480,0,11,,,,,,,,,11,,,42,0
18240,note_on,0,0,8,,,,,,,,,7,,,59,50
18240,note_on,480,0,10,,,,,,,,,10,,,54,0
18276,note_on,96,0,7,,,,,,,,,6,,,62,0
18300,note_on,24,0,7,,,,,,,,,6,,,62,50
18360,note_on,0,0,9,,,,,,,,,8,,,57,60
18360,note_on,120,0,9,,,,,,,,,8,,,55,0
18360,note_on,0,0,10,,,,,,,,,10,,,57,50
18360,note_on,120,0,10,,,,,,,,,10,,,55,0
18360,note_on,0,0,11,,,,,,,,,11,,,45,50
18360,note_on,120,0,11,,,,,,,,,11,,,43,0
18360,note_on,120,0,8,,,,,,,,,7,,,59,0
18360,note_on,0,0,8,,,,,,,,,7,,,60,60
18396,note_on,96,0,7,,,,,,,,,6,,,62,0
18420,note_on,24,0,7,,,,,,,,,6,,,62,50
18516,note_on,96,0,7,,,,,,,,,6,,,62,0
18540,note_on,24,0,7,,,,,,,,,6,,,62,50
18600,note_on,0,0,10,,,,,,,,,10,,,54,50
18600,note_on,240,0,8,,,,,,,,,7,,,60,0
18600,note_on,240,0,9,,,,,,,,,8,,,57,0
18600,note_on,0,0,8,,,,,,,,,7,,,57,50
18600,note_on,240,0,11,,,,,,,,,11,,,45,0
18600,note_on,240,0,10,,,,,,,,,10,,,57,0
18600,note_on,0,0,9,,,,,,,,,8,,,54,50
18600,note_on,0,0,11,,,,,,,,,11,,,42,50
18636,note_on,96,0,7,,,,,,,,,6,,,62,0
18660,note_on,24,0,7,,,,,,,,,6,,,62,50
18720,note_on,120,0,9,,,,,,,,,8,,,54,0
18720,note_on,0,0,10,,,,,,,,,10,,,55,50
18720,note_on,0,0,8,,,,,,,,,7,,,59,50
18720,note_on,120,0,8,,,,,,,,,7,,,57,0
18720,note_on,120,0,10,,,,,,,,,10,,,54,0
18720,note_on,0,0,9,,,,,,,,,8,,,55,50
18720,note_on,0,0,11,,,,,,,,,11,,,43,50
18720,note_on,120,0,11,,,,,,,,,11,,,42,0
18756,note_on,96,0,7,,,,,,,,,6,,,62,0
18780,note_on,24,0,7,,,,,,,,,6,,,62,50
18840,note_on,0,0,10,,,,,,,,,10,,,57,50
18840,note_on,0,0,9,,,,,,,,,8,,,57,60
18840,note_on,120,0,10,,,,,,,,,10,,,55,0
18840,note_on,120,0,9,,,,,,,,,8,,,55,0
18840,note_on,0,0,8,,,,,,,,,7,,,60,60
18840,note_on,120,0,8,,,,,,,,,7,,,59,0
18840,note_on,120,0,11,,,,,,,,,11,,,43,0
18840,note_on,0,0,11,,,,,,,,,11,,,45,50
18876,note_on,96,0,7,,,,,,,,,6,,,62,0
18900,note_on,24,0,7,,,,,,,,,6,,,62,50
18996,note_on,96,0,7,,,,,,,,,6,,,62,0
19020,note_on,24,0,7,,,,,,,,,6,,,62,50
19080,note_on,240,0,10,,,,,,,,,10,,,57,0
19080,note_on,240,0,11,,,,,,,,,11,,,45,0
19080,note_on,0,0,11,,,,,,,,,11,,,42,50
19080,note_on,240,0,8,,,,,,,,,7,,,60,0
19080,note_on,0,0,8,,,,,,,,,7,,,57,50
19080,note_on,0,0,9,,,,,,,,,8,,,54,50
19080,note_on,240,0,9,,,,,,,,,8,,,57,0
19080,note_on,0,0,10,,,,,,,,,10,,,54,50
19116,note_on,96,0,7,,,,,,,,,6,,,62,0
19140,note_on,24,0,7,,,,,,,,,6,,,62,50
19200,note_on,0,0,10,,,,,,,,,10,,,55,50
19200,note_on,120,0,9,,,,,,,,,8,,,54,0
19200,note_on,0,0,9,,,,,,,,,8,,,55,50
19200,note_on,120,0,11,,,,,,,,,11,,,42,0
19200,note_on,0,0,11,,,,,,,,,11,,,43,50
19200,note_on,120,0,10,,,,,,,,,10,,,54,0
19200,note_on,0,0,8,,,,,,,,,7,,,59,50
19200,note_on,120,0,8,,,,,,,,,7,,,57,0
19236,note_on,96,0,7,,,,,,,,,6,,,62,0
19260,note_on,24,0,7,,,,,,,,,6,,,62,52
19300,note_on,40,0,7,,,,,,,,,6,,,62,0
19320,note_on,20,0,7,,,,,,,,,6,,,62,55
19360,note_on,40,0,7,,,,,,,,,6,,,62,0
19380,note_on,20,0,7,,,,,,,,,6,,,62,57
19420,note_on,40,0,7,,,,,,,,,6,,,62,0
19440,note_on,240,0,8,,,,,,,,,7,,,59,0
19440,note_on,0,0,11,,,,,,,,,11,,,42,50
19440,note_on,240,0,11,,,,,,,,,11,,,43,0
19440,note_on,0,0,8,,,,,,,,,7,,,57,50
19440,note_on,240,0,10,,,,,,,,,10,,,55,0
19440,note_on,0,0,10,,,,,,,,,10,,,54,50
19440,note_on,240,0,9,,,,,,,,,8,,,55,0
19440,note_on,0,0,9,,,,,,,,,8,,,54,50
19440,note_on,20,0,7,,,,,,,,,6,,,62,60
19480,note_on,40,0,7,,,,,,,,,6,,,62,0
19500,note_on,20,0,7,,,,,,,,,6,,,62,62
19540,note_on,40,0,7,,,,,,,,,6,,,62,0
19560,note_on,20,0,7,,,,,,,,,6,,,62,65
19610,note_on,50,0,7,,,,,,,,,6,,,62,0
19620,note_on,10,0,7,,,,,,,,,6,,,64,67
19650,note_on,30,0,7,,,,,,,,,6,,,64,0
19650,note_on,0,0,7,,,,,,,,,6,,,66,68
19680,note_on,0,0,9,,,,,,,,,8,,,52,50
19680,note_on,240,0,9,,,,,,,,,8,,,54,0
19680,note_on,0,0,10,,,,,,,,,10,,,52,50
19680,note_on,240,0,8,,,,,,,,,7,,,57,0
19680,note_on,240,0,10,,,,,,,,,10,,,54,0
19680,note_on,30,0,7,,,,,,,,,6,,,66,0
19680,note_on,0,0,7,,,,,,,,,6,,,67,50
19680,note_on,0,0,8,,,,,,,,,7,,,59,50
19680,note_on,0,0,11,,,,,,,,,11,,,40,50
19680,note_on,240,0,11,,,,,,,,,11,,,42,0
19720,note_on,40,0,7,,,,,,,,,6,,,67,0
19740,note_on,20,0,7,,,,,,,,,6,,,67,52
19780,note_on,40,0,7,,,,,,,,,6,,,67,0
19800,note_on,20,0,7,,,,,,,,,6,,,67,55
19840,note_on,40,0,7,,,,,,,,,6,,,67,0
19860,note_on,20,0,7,,,,,,,,,6,,,67,57
19900,note_on,40,0,7,,,,,,,,,6,,,67,0
19920,note_on,0,0,10,,,,,,,,,10,,,45,50
19920,note_on,240,0,10,,,,,,,,,10,,,52,0
19920,note_on,240,0,8,,,,,,,,,7,,,59,0
19920,note_on,0,0,11,,,,,,,,,11,,,33,50
19920,note_on,240,0,11,,,,,,,,,11,,,40,0
19920,note_on,0,0,8,,,,,,,,,7,,,61,50
19920,note_on,20,0,7,,,,,,,,,6,,,67,60
19960,note_on,40,0,7,,,,,,,,,6,,,67,0
19980,note_on,20,0,7,,,,,,,,,6,,,67,62
20020,note_on,40,0,7,,,,,,,,,6,,,67,0
20040,note_on,20,0,7,,,,,,,,,6,,,69,65
20070,note_on,0,0,7,,,,,,,,,6,,,67,66
20070,note_on,30,0,7,,,,,,,,,6,,,69,0
20100,note_on,30,0,7,,,,,,,,,6,,,67,0
20100,note_on,0,0,7,,,,,,,,,6,,,66,67
20130,note_on,30,0,7,,,,,,,,,6,,,66,0
20130,note_on,0,0,7,,,,,,,,,6,,,67,68
20160,note_on,30,0,7,,,,,,,,,6,,,67,0
20160,note_on,0,0,11,,,,,,,,,11,,,38,50
20160,note_on,240,0,11,,,,,,,,,11,,,33,0
20160,note_on,2925,0,6,,,,,,,,,5,,,50,100
20160,note_on,0,0,1,,,,,,,,,0,,,74,100
20160,note_on,2928,0,1,,,,,,,,,0,,,69,100
20160,note_on,240,0,8,,,,,,,,,7,,,61,0
20160,note_on,0,0,9,,,,,,,,,8,,,50,50
20160,note_on,0,0,8,,,,,,,,,7,,,62,50
20160,note_on,0,0,5,,,,,,,,,4,,,74,100
20160,note_on,2928,0,3,,,,,,,,,2,,,50,100
20160,note_on,0,0,2,,,,,,,,,1,,,74,100
20160,note_on,2928,0,2,,,,,,,,,1,,,69,100
20160,note_on,2928,0,4,,,,,,,,,3,,,50,100
20160,note_on,480,0,9,,,,,,,,,8,,,52,0
20160,note_on,0,0,7,,,,,,,,,6,,,66,70
20160,note_on,2928,0,5,,,,,,,,,4,,,66,100
20160,note_on,0,0,10,,,,,,,,,10,,,50,50
20160,note_on,240,0,10,,,,,,,,,10,,,45,0
20160,note_on,0,0,4,,,,,,,,,3,,,62,100
20280,note_on,120,0,11,,,,,,,,,11,,,38,0
20280,note_on,120,0,8,,,,,,,,,7,,,62,0
20280,note_on,0,0,4,,,,,,,,,3,,,57,100
20280,note_on,0,0,4,,,,,,,,,3,,,45,100
20280,note_on,120,0,4,,,,,,,,,3,,,62,0
20280,note_on,0,0,3,,,,,,,,,2,,,45,100
20280,note_on,120,0,3,,,,,,,,,2,,,50,0
20280,note_on,120,0,10,,,,,,,,,10,,,50,0
20280,note_on,0,0,4,,,,,,,,,3,,,50,0
20280,note_on,120,0,9,,,,,,,,,8,,,50,0
20280,note_on,120,0,7,,,,,,,,,6,,,66,0
20370,note_on,90,0,4,,,,,,,,,3,,,57,0
20370,note_on,0,0,4,,,,,,,,,3,,,45,0
20370,note_on,90,0,3,,,,,,,,,2,,,45,0
20370,note_on,0,0,3,,,,,,,,,2,,,50,100
20370,note_on,0,0,4,,,,,,,,,3,,,62,100
20370,note_on,0,0,4,,,,,,,,,3,,,50,100
20400,note_on,0,0,2,,,,,,,,,1,,,86,100
20400,note_on,240,0,6,,,,,,,,,5,,,50,0
20400,note_on,0,0,1,,,,,,,,,0,,,78,100
20400,note_on,240,0,1,,,,,,,,,0,,,74,0
20400,note_on,0,0,1,,,,,,,,,0,,,69,0
20400,note_on,0,0,6,,,,,,,,,5,,,50,100
20400,note_on,0,0,5,,,,,,,,,4,,,78,100
20400,note_on,0,0,5,,,,,,,,,4,,,62,100
20400,note_on,0,0,5,,,,,,,,,4,,,66,0
20400,note_on,0,0,1,,,,,,,,,0,,,86,100
20400,note_on,240,0,5,,,,,,,,,4,,,74,0
20400,note_on,0,0,2,,,,,,,,,1,,,78,100
20400,note_on,0,0,2,,,,,,,,,1,,,69,0
20400,note_on,0,0,4,,,,,,,,,3,,,66,100
20400,note_on,0,0,4,,,,,,,,,3,,,54,100
20400,note_on,0,0,4,,,,,,,,,3,,,50,0
20400,note_on,30,0,4,,,,,,,,,3,,,62,0
20400,note_on,0,0,3,,,,,,,,,2,,,54,100
20400,note_on,240,0,2,,,,,,,,,1,,,74,0
20400,note_on,30,0,3,,,,,,,,,2,,,50,0
20520,note_on,0,0,4,,,,,,,,,3,,,50,100
20520,note_on,120,0,4,,,,,,,,,3,,,66,0
20520,note_on,0,0,4,,,,,,,,,3,,,62,100
20520,note_on,0,0,3,,,,,,,,,2,,,50,100
20520,note_on,120,0,3,,,,,,,,,2,,,54,0
20520,note_on,0,0,4,,,,,,,,,3,,,54,0
20580,note_on,180,0,5,,,,,,,,,4,,,78,0
20580,note_on,0,0,5,,,,,,,,,4,,,62,0
20580,note_on,0,0,6,,,,,,,,,5,,,50,100
20580,note_on,0,0,5,,,,,,,,,4,,,74,100
20580,note_on,180,0,6,,,,,,,,,5,,,50,0
20580,note_on,0,0,5,,,,,,,,,4,,,66,100
20610,note_on,0,0,4,,,,,,,,,3,,,54,100
20610,note_on,0,0,4,,,,,,,,,3,,,50,0
20610,note_on,90,0,4,,,,,,,,,3,,,62,0
20610,note_on,0,0,4,,,,,,,,,3,,,66,100
20610,note_on,90,0,3,,,,,,,,,2,,,50,0
20610,note_on,0,0,3,,,,,,,,,2,,,54,100
20640,note_on,60,0,6,,,,,,,,,5,,,50,0
20640,note_on,0,0,3,,,,,,,,,2,,,57,100
20640,note_on,0,0,5,,,,,,,,,4,,,69,100
20640,note_on,0,0,5,,,,,,,,,4,,,66,0
20640,note_on,60,0,5,,,,,,,,,4,,,74,0
20640,note_on,30,0,3,,,,,,,,,2,,,54,0
20640,note_on,30,0,4,,,,,,,,,3,,,66,0
20640,note_on,0,0,4,,,,,,,,,3,,,57,100
20640,note_on,0,0,4,,,,,,,,,3,,,69,100
20640,note_on,0,0,6,,,,,,,,,5,,,45,100
20640,note_on,0,0,2,,,,,,,,,1,,,74,100
20640,note_on,240,0,2,,,,,,,,,1,,,78,0
20640,note_on,0,0,4,,,,,,,,,3,,,54,0
20700,note_on,0,0,1,,,,,,,,,0,,,76,100
20700,note_on,0,0,2,,,,,,,,,1,,,85,100
20700,note_on,0,0,1,,,,,,,,,0,,,85,100
20700,note_on,0,0,1,,,,,,,,,0,,,86,0
20700,note_on,0,0,2,,,,,,,,,1,,,86,0
20700,note_on,0,0,2,,,,,,,,,1,,,76,100
20700,note_on,60,0,2,,,,,,,,,1,,,74,0
20700,note_on,300,0,1,,,,,,,,,0,,,78,0
20700,note_on,60,0,6,,,,,,,,,5,,,45,0
20730,note_on,30,0,1,,,,,,,,,0,,,85,0
20730,note_on,0,0,1,,,,,,,,,0,,,76,0
20730,note_on,90,0,5,,,,,,,,,4,,,69,0
20730,note_on,30,0,2,,,,,,,,,1,,,85,0
20730,note_on,0,0,2,,,,,,,,,1,,,76,0
20760,note_on,0,0,2,,,,,,,,,1,,,83,100
20760,note_on,30,0,2,,,,,,,,,1,,,79,100
20760,note_on,0,0,1,,,,,,,,,0,,,83,100
20760,note_on,60,0,6,,,,,,,,,5,,,45,100
20760,note_on,30,0,5,,,,,,,,,4,,,69,100
20760,note_on,30,0,1,,,,,,,,,0,,,79,100
20790,note_on,0,0,2,,,,,,,,,1,,,79,0
20790,note_on,30,0,2,,,,,,,,,1,,,83,0
20790,note_on,0,0,1,,,,,,,,,0,,,79,0
20790,note_on,30,0,1,,,,,,,,,0,,,83,0
20820,note_on,30,0,1,,,,,,,,,0,,,78,100
20820,note_on,60,0,6,,,,,,,,,5,,,45,0
20820,note_on,0,0,2,,,,,,,,,1,,,81,100
20820,note_on,30,0,2,,,,,,,,,1,,,78,100
20820,note_on,0,0,1,,,,,,,,,0,,,81,100
20850,note_on,90,0,5,,,,,,,,,4,,,69,0
20850,note_on,30,0,2,,,,,,,,,1,,,81,0
20850,note_on,0,0,2,,,,,,,,,1,,,78,0
20850,note_on,30,0,1,,,,,,,,,0,,,81,0
20850,note_on,0,0,1,,,,,,,,,0,,,78,0
20880,note_on,240,0,3,,,,,,,,,2,,,57,0
20880,note_on,60,0,6,,,,,,,,,5,,,45,100
20880,note_on,0,0,3,,,,,,,,,2,,,45,100
20880,note_on,0,0,2,,,,,,,,,1,,,81,100
20880,note_on,0,0,1,,,,,,,,,0,,,81,100
20880,note_on,30,0,5,,,,,,,,,4,,,69,100
20880,note_on,240,0,4,,,,,,,,,3,,,69,0
20880,note_on,0,0,4,,,,,,,,,3,,,57,0
20880,note_on,0,0,4,,,,,,,,,3,,,45,100
20880,note_on,0,0,4,,,,,,,,,3,,,57,100
20880,note_on,30,0,2,,,,,,,,,1,,,78,100
20880,note_on,30,0,1,,,,,,,,,0,,,78,100
20940,note_on,60,0,2,,,,,,,,,1,,,81,0
20940,note_on,0,0,2,,,,,,,,,1,,,79,100
20940,note_on,0,0,2,,,,,,,,,1,,,78,0
20940,note_on,60,0,6,,,,,,,,,5,,,45,0
20940,note_on,0,0,2,,,,,,,,,1,,,76,100
20940,note_on,0,0,1,,,,,,,,,0,,,78,0
20940,note_on,0,0,1,,,,,,,,,0,,,76,100
20940,note_on,60,0,1,,,,,,,,,0,,,81,0
20940,note_on,0,0,1,,,,,,,,,0,,,79,100
20970,note_on,0,0,2,,,,,,,,,1,,,79,0
20970,note_on,30,0,2,,,,,,,,,1,,,76,0
20970,note_on,90,0,5,,,,,,,,,4,,,69,0
20970,note_on,0,0,1,,,,,,,,,0,,,76,0
20970,note_on,30,0,1,,,,,,,,,0,,,79,0
21000,note_on,30,0,5,,,,,,,,,4,,,69,100
21000,note_on,60,0,6,,,,,,,,,5,,,45,100
21000,note_on,30,0,2,,,,,,,,,1,,,78,100
21000,note_on,0,0,2,,,,,,,,,1,,,74,100
21000,note_on,0,0,1,,,,,,,,,0,,,78,100
21000,note_on,30,0,1,,,,,,,,,0,,,74,100
21030,note_on,30,0,1,,,,,,,,,0,,,78,0
21030,note_on,0,0,1,,,,,,,,,0,,,74,0
21030,note_on,0,0,2,,,,,,,,,1,,,78,0
21030,note_on,30,0,2,,,,,,,,,1,,,74,0
21060,note_on,60,0,6,,,,,,,,,5,,,45,0
21060,note_on,0,0,2,,,,,,,,,1,,,73,100
21060,note_on,30,0,2,,,,,,,,,1,,,76,100
21060,note_on,30,0,1,,,,,,,,,0,,,73,100
21060,note_on,0,0,1,,,,,,,,,0,,,76,100
21090,note_on,30,0,2,,,,,,,,,1,,,73,0
21090,note_on,0,0,2,,,,,,,,,1,,,76,0
21090,note_on,90,0,5,,,,,,,,,4,,,69,0
21090,note_on,30,0,1,,,,,,,,,0,,,76,0
21090,note_on,0,0,1,,,,,,,,,0,,,73,0
21120,note_on,0,0,3,,,,,,,,,2,,,50,100
21120,note_on,240,0,3,,,,,,,,,2,,,45,0
21120,note_on,30,0,5,,,,,,,,,4,,,62,100
21120,note_on,0,0,5,,,,,,,,,4,,,66,100
21120,note_on,840,0,7,,,,,,,,,6,,,62,50
21120,note_on,30,0,1,,,,,,,,,0,,,74,100
21120,note_on,30,0,2,,,,,,,,,1,,,74,100
21120,note_on,0,0,4,,,,,,,,,3,,,62,50
21120,note_on,0,0,4,,,,,,,,,3,,,50,50
21120,note_on,0,0,4,,,,,,,,,3,,,45,0
21120,note_on,240,0,4,,,,,,,,,3,,,57,0
21120,note_on,60,0,6,,,,,,,,,5,,,50,100
21168,note_on,48,0,7,,,,,,,,,6,,,62,0
21180,note_on,12,0,7,,,,,,,,,6,,,62,50
21180,note_on,60,0,6,,,,,,,,,5,,,50,0
21210,note_on,90,0,5,,,,,,,,,4,,,66,0
21210,note_on,0,0,5,,,,,,,,,4,,,62,0
21240,note_on,120,0,1,,,,,,,,,0,,,74,0
21240,note_on,120,0,3,,,,,,,,,2,,,50,0
21240,note_on,120,0,2,,,,,,,,,1,,,74,0
21276,note_on,96,0,7,,,,,,,,,6,,,62,0
21300,note_on,24,0,7,,,,,,,,,6,,,62,50
21396,note_on,96,0,7,,,,,,,,,6,,,62,0
21420,note_on,24,0,7,,,,,,,,,6,,,62,50
21516,note_on,96,0,7,,,,,,,,,6,,,62,0
21540,note_on,24,0,7,,,,,,,,,6,,,62,50
21600,note_on,1320,0,8,,,,,,,,,7,,,57,50
21600,note_on,360,0,2,,,,,,,,,1,,,84,70
21600,note_on,1320,0,11,,,,,,,,,11,,,42,50
21600,note_on,1320,0,9,,,,,,,,,8,,,54,50
21600,note_on,1320,0,10,,,,,,,,,10,,,54,50
21625,control_change,25,0,2,,,,,,,,,1,7,90,,
21636,note_on,96,0,7,,,,,,,,,6,,,62,0
21660,note_on,24,0,7,,,,,,,,,6,,,62,50
21756,note_on,96,0,7,,,,,,,,,6,,,62,0
21780,note_on,24,0,7,,,,,,,,,6,,,62,50
21795,control_change,170,0,2,,,,,,,,,1,7,95,,
21800,control_change,5,0,2,,,,,,,,,1,7,100,,
21835,control_change,35,0,2,,,,,,,,,1,7,102,,
21850,control_change,15,0,2,,,,,,,,,1,7,103,,
21876,note_on,96,0,7,,,,,,,,,6,,,62,0
21881,control_change,31,0,2,,,,,,,,,1,7,104,,
21900,note_on,24,0,7,,,,,,,,,6,,,62,50
21905,control_change,24,0,2,,,,,,,,,1,7,105,,
21920,control_change,15,0,2,,,,,,,,,1,7,106,,
21945,control_change,25,0,2,,,,,,,,,1,7,107,,
21960,control_change,15,0,2,,,,,,,,,1,7,108,,
21996,note_on,96,0,7,,,,,,,,,6,,,62,0
22011,control_change,51,0,2,,,,,,,,,1,7,109,,
22020,note_on,24,0,7,,,,,,,,,6,,,62,50
22025,control_change,14,0,2,,,,,,,,,1,7,110,,
22080,control_change,0,0,2,,,,,,,,,1,7,111,,
22080,note_on,0,0,10,,,,,,,,,10,,,55,50
22080,note_on,480,0,9,,,,,,,,,8,,,54,0
22080,note_on,0,0,9,,,,,,,,,8,,,55,50
22080,note_on,55,0,2,,,,,,,,,1,,,84,0
22080,note_on,480,0,8,,,,,,,,,7,,,57,0
22080,note_on,480,0,10,,,,,,,,,10,,,54,0
22080,note_on,480,0,11,,,,,,,,,11,,,42,0
22080,note_on,0,0,8,,,,,,,,,7,,,59,50
22080,note_on,0,0,11,,,,,,,,,11,,,43,50
22080,note_on,0,0,2,,,,,,,,,1,,,83,50
22116,note_on,96,0,7,,,,,,,,,6,,,62,0
22131,control_change,51,0,2,,,,,,,,,1,7,111,,
22140,note_on,9,0,2,,,,,,,,,1,,,83,0
22140,note_on,0,0,2,,,,,,,,,1,,,79,50
22140,note_on,24,0,7,,,,,,,,,6,,,62,50
22180,control_change,40,0,2,,,,,,,,,1,7,112,,
22200,note_on,0,0,11,,,,,,,,,11,,,45,50
22200,note_on,20,0,2,,,,,,,,,1,,,79,0
22200,note_on,0,0,2,,,,,,,,,1,,,78,50
22200,note_on,120,0,8,,,,,,,,,7,,,59,0
22200,note_on,0,0,10,,,,,,,,,10,,,57,50
22200,note_on,0,0,8,,,,,,,,,7,,,60,50
22200,note_on,0,0,9,,,,,,,,,8,,,57,50
22200,note_on,120,0,9,,,,,,,,,8,,,55,0
22200,note_on,120,0,11,,,,,,,,,11,,,43,0
22200,note_on,120,0,10,,,,,,,,,10,,,55,0
22211,control_change,11,0,2,,,,,,,,,1,7,112,,
22236,note_on,96,0,7,,,,,,,,,6,,,62,0
22251,control_change,40,0,2,,,,,,,,,1,7,112,,
22260,note_on,24,0,7,,,,,,,,,6,,,62,50
22330,control_change,79,0,2,,,,,,,,,1,7,113,,
22356,note_on,96,0,7,,,,,,,,,6,,,62,0
22376,control_change,46,0,2,,,,,,,,,1,7,113,,
22380,note_on,24,0,7,,,,,,,,,6,,,62,50
22440,note_on,0,0,10,,,,,,,,,10,,,54,50
22440,note_on,240,0,10,,,,,,,,,10,,,57,0
22440,note_on,64,0,2,,,,,,,,,1,,,78,0
22440,note_on,0,0,2,,,,,,,,,1,,,84,50
22440,note_on,0,0,9,,,,,,,,,8,,,54,50
22440,note_on,240,0,9,,,,,,,,,8,,,57,0
22440,note_on,0,0,8,,,,,,,,,7,,,57,50
22440,note_on,240,0,8,,,,,,,,,7,,,60,0
22440,note_on,0,0,11,,,,,,,,,11,,,42,50
22440,note_on,240,0,11,,,,,,,,,11,,,45,0
22465,control_change,25,0,2,,,,,,,,,1,7,113,,
22476,note_on,96,0,7,,,,,,,,,6,,,62,0
22500,note_on,24,0,7,,,,,,,,,6,,,62,50
22551,control_change,86,0,2,,,,,,,,,1,7,115,,
22560,note_on,9,0,2,,,,,,,,,1,,,84,0
22560,note_on,0,0,2,,,,,,,,,1,,,83,50
22560,note_on,0,0,10,,,,,,,,,10,,,55,50
22560,note_on,0,0,9,,,,,,,,,8,,,55,50
22560,note_on,120,0,9,,,,,,,,,8,,,54,0
22560,note_on,0,0,11,,,,,,,,,11,,,43,50
22560,note_on,120,0,11,,,,,,,,,11,,,42,0
22560,note_on,120,0,10,,,,,,,,,10,,,54,0
22560,note_on,0,0,8,,,,,,,,,7,,,59,50
22560,note_on,120,0,8,,,,,,,,,7,,,57,0
22596,note_on,96,0,7,,,,,,,,,6,,,62,0
22601,control_change,41,0,2,,,,,,,,,1,7,117,,
22620,note_on,24,0,7,,,,,,,,,6,,,62,50
22620,note_on,0,0,2,,,,,,,,,1,,,79,50
22620,note_on,19,0,2,,,,,,,,,1,,,83,0
22650,control_change,30,0,2,,,,,,,,,1,7,118,,
22680,note_on,0,0,9,,,,,,,,,8,,,57,50
22680,note_on,120,0,9,,,,,,,,,8,,,55,0
22680,note_on,0,0,10,,,,,,,,,10,,,57,50
22680,note_on,0,0,11,,,,,,,,,11,,,45,50
22680,note_on,120,0,11,,,,,,,,,11,,,43,0
22680,note_on,30,0,2,,,,,,,,,1,,,79,0
22680,note_on,120,0,10,,,,,,,,,10,,,55,0
22680,note_on,0,0,8,,,,,,,,,7,,,60,50
22680,note_on,120,0,8,,,,,,,,,7,,,59,0
22680,note_on,0,0,2,,,,,,,,,1,,,78,50
22716,note_on,96,0,7,,,,,,,,,6,,,62,0
22740,note_on,24,0,7,,,,,,,,,6,,,62,50
22745,control_change,65,0,2,,,,,,,,,1,7,119,,
22836,note_on,96,0,7,,,,,,,,,6,,,62,0
22841,control_change,96,0,2,,,,,,,,,1,7,120,,
22860,note_on,24,0,7,,,,,,,,,6,,,62,50
22880,control_change,39,0,2,,,,,,,,,1,7,122,,
22920,note_on,0,0,10,,,,,,,,,10,,,54,50
22920,note_on,240,0,10,,,,,,,,,10,,,57,0
22920,note_on,240,0,11,,,,,,,,,11,,,45,0
22920,note_on,0,0,9,,,,,,,,,8,,,54,50
22920,note_on,0,0,2,,,,,,,,,1,,,84,50
22920,note_on,40,0,2,,,,,,,,,1,,,78,0
22920,note_on,0,0,11,,,,,,,,,11,,,42,50
22920,note_on,240,0,9,,,,,,,,,8,,,57,0
22920,note_on,240,0,8,,,,,,,,,7,,,60,0
22920,note_on,0,0,8,,,,,,,,,7,,,57,50
22956,note_on,96,0,7,,,,,,,,,6,,,62,0
22980,note_on,24,0,7,,,,,,,,,6,,,62,50
22985,control_change,65,0,2,,,,,,,,,1,7,124,,
23040,note_on,0,0,11,,,,,,,,,11,,,43,50
23040,note_on,0,0,2,,,,,,,,,1,,,83,50
23040,note_on,0,0,2,,,,,,,,,1,,,74,50
23040,note_on,55,0,2,,,,,,,,,1,,,84,0
23040,note_on,0,0,10,,,,,,,,,10,,,55,50
23040,note_on,120,0,10,,,,,,,,,10,,,54,0
23040,note_on,120,0,11,,,,,,,,,11,,,42,0
23040,note_on,120,0,9,,,,,,,,,8,,,54,0
23040,note_on,0,0,9,,,,,,,,,8,,,55,50
23040,note_on,0,0,8,,,,,,,,,7,,,59,50
23040,note_on,120,0,8,,,,,,,,,7,,,57,0
23071,control_change,31,0,2,,,,,,,,,1,7,123,,
23076,note_on,96,0,7,,,,,,,,,6,,,62,0
23096,control_change,25,0,2,,,,,,,,,1,7,122,,
23100,note_on,24,0,7,,,,,,,,,6,,,62,50
23110,control_change,14,0,2,,,,,,,,,1,7,121,,
23135,control_change,25,0,2,,,,,,,,,1,7,120,,
23140,note_on,40,0,7,,,,,,,,,6,,,62,0
23150,control_change,15,0,2,,,,,,,,,1,7,118,,
23160,note_on,20,0,7,,,,,,,,,6,,,62,50
23200,control_change,50,0,2,,,,,,,,,1,7,117,,
23200,note_on,40,0,7,,,,,,,,,6,,,62,0
23220,note_on,20,0,7,,,,,,,,,6,,,62,50
23220,control_change,20,0,2,,,,,,,,,1,7,116,,
23256,control_change,36,0,2,,,,,,,,,1,7,115,,
23260,note_on,40,0,7,,,,,,,,,6,,,62,0
23270,control_change,14,0,2,,,,,,,,,1,7,114,,
23280,note_on,240,0,9,,,,,,,,,8,,,55,0
23280,note_on,10,0,2,,,,,,,,,1,,,83,0
23280,note_on,0,0,9,,,,,,,,,8,,,54,50
23280,note_on,0,0,2,,,,,,,,,1,,,81,56
23280,note_on,0,0,11,,,,,,,,,11,,,42,50
23280,note_on,240,0,11,,,,,,,,,11,,,43,0
23280,note_on,240,0,10,,,,,,,,,10,,,55,0
23280,note_on,0,0,8,,,,,,,,,7,,,57,50
23280,note_on,0,0,10,,,,,,,,,10,,,54,50
23280,note_on,20,0,7,,,,,,,,,6,,,62,50
23280,note_on,240,0,8,,,,,,,,,7,,,59,0
23295,control_change,15,0,2,,,,,,,,,1,7,113,,
23310,control_change,15,0,2,,,,,,,,,1,7,111,,
23320,note_on,40,0,7,,,,,,,,,6,,,62,0
23325,control_change,15,0,2,,,,,,,,,1,7,110,,
23340,note_on,20,0,7,,,,,,,,,6,,,62,50
23350,control_change,25,0,2,,,,,,,,,1,7,109,,
23375,control_change,25,0,2,,,,,,,,,1,7,108,,
23380,note_on,40,0,7,,,,,,,,,6,,,62,0
23400,note_on,20,0,7,,,,,,,,,6,,,62,50
23406,control_change,31,0,2,,,,,,,,,1,7,107,,
23431,control_change,25,0,2,,,,,,,,,1,7,106,,
23446,control_change,15,0,2,,,,,,,,,1,7,104,,
23450,note_on,50,0,7,,,,,,,,,6,,,62,0
23460,note_on,10,0,7,,,,,,,,,6,,,64,50
23480,control_change,34,0,2,,,,,,,,,1,7,103,,
23490,note_on,30,0,7,,,,,,,,,6,,,64,0
23490,note_on,0,0,7,,,,,,,,,6,,,66,50
23520,note_on,0,0,7,,,,,,,,,6,,,67,50
23520,note_on,240,0,9,,,,,,,,,8,,,54,0
23520,note_on,240,0,10,,,,,,,,,10,,,54,0
23520,note_on,0,0,11,,,,,,,,,11,,,40,50
23520,note_on,0,0,2,,,,,,,,,1,,,79,63
23520,note_on,0,0,10,,,,,,,,,10,,,52,50
23520,note_on,240,0,11,,,,,,,,,11,,,42,0
23520,note_on,0,0,9,,,,,,,,,8,,,52,50
23520,note_on,240,0,8,,,,,,,,,7,,,57,0
23520,note_on,0,0,8,,,,,,,,,7,,,59,50
23520,note_on,30,0,7,,,,,,,,,6,,,66,0
23520,note_on,40,0,2,,,,,,,,,1,,,81,0
23525,control_change,5,0,2,,,,,,,,,1,7,102,,
23560,note_on,40,0,7,,,,,,,,,6,,,67,0
23580,note_on,20,0,7,,,,,,,,,6,,,67,50
23590,control_change,65,0,2,,,,,,,,,1,7,101,,
23620,note_on,40,0,7,,,,,,,,,6,,,67,0
23640,note_on,20,0,7,,,,,,,,,6,,,67,50
23640,control_change,50,0,2,,,,,,,,,1,7,99,,
23680,note_on,40,0,7,,,,,,,,,6,,,67,0
23695,control_change,55,0,2,,,,,,,,,1,7,97,,
23700,note_on,20,0,7,,,,,,,,,6,,,67,50
23740,note_on,40,0,7,,,,,,,,,6,,,67,0
23741,control_change,46,0,2,,,,,,,,,1,7,96,,
23760,note_on,0,0,4,,,,,,,,,3,,,57,50
23760,note_on,20,0,7,,,,,,,,,6,,,67,50
23760,note_on,240,0,8,,,,,,,,,7,,,59,0
23760,note_on,0,0,8,,,,,,,,,7,,,61,50
23760,note_on,0,0,4,,,,,,,,,3,,,64,50
23760,note_on,0,0,11,,,,,,,,,11,,,33,50
23760,note_on,19,0,2,,,,,,,,,1,,,74,0
23760,note_on,240,0,10,,,,,,,,,10,,,52,0
23760,note_on,2640,0,4,,,,,,,,,3,,,62,0
23760,note_on,0,0,2,,,,,,,,,1,,,73,60
23760,note_on,240,0,11,,,,,,,,,11,,,40,0
23760,note_on,0,0,4,,,,,,,,,3,,,50,0
23760,note_on,0,0,10,,,,,,,,,10,,,45,50
23800,note_on,40,0,7,,,,,,,,,6,,,67,0
23815,control_change,55,0,2,,,,,,,,,1,7,95,,
23820,note_on,20,0,7,,,,,,,,,6,,,67,50
23855,control_change,40,0,2,,,,,,,,,1,7,94,,
23860,note_on,40,0,7,,,,,,,,,6,,,67,0
23880,control_change,25,0,2,,,,,,,,,1,7,92,,
23880,note_on,20,0,7,,,,,,,,,6,,,69,50
23910,note_on,30,0,7,,,,,,,,,6,,,69,0
23910,note_on,0,0,7,,,,,,,,,6,,,67,50
23936,control_change,56,0,2,,,,,,,,,1,7,90,,
23940,note_on,0,0,7,,,,,,,,,6,,,66,50
23940,note_on,30,0,7,,,,,,,,,6,,,67,0
23970,note_on,30,0,7,,,,,,,,,6,,,66,0
23970,note_on,0,0,7,,,,,,,,,6,,,67,50
24000,note_on,0,0,8,,,,,,,,,7,,,62,50
24000,note_on,480,0,9,,,,,,,,,8,,,52,0
24000,note_on,0,0,11,,,,,,,,,11,,,38,50
24000,note_on,240,0,11,,,,,,,,,11,,,33,0
24000,note_on,240,0,10,,,,,,,,,10,,,45,0
24000,note_on,0,0,10,,,,,,,,,10,,,50,50
24000,note_on,240,0,8,,,,,,,,,7,,,61,0
24000,note_on,0,0,7,,,,,,,,,6,,,66,50
24000,note_on,30,0,7,,,,,,,,,6,,,67,0
24000,note_on,0,0,2,,,,,,,,,1,,,78,50
24000,note_on,0,0,2,,,,,,,,,1,,,74,50
24000,note_on,0,0,2,,,,,,,,,1,,,79,0
24000,note_on,64,0,2,,,,,,,,,1,,,73,0
24000,note_on,0,0,4,,,,,,,,,3,,,66,50
24000,note_on,0,0,4,,,,,,,,,3,,,62,50
24000,note_on,0,0,4,,,,,,,,,3,,,57,0
24000,note_on,240,0,4,,,,,,,,,3,,,64,0
24000,note_on,0,0,9,,,,,,,,,8,,,50,50
24040,note_on,40,0,9,,,,,,,,,8,,,50,0
24040,note_on,40,0,8,,,,,,,,,7,,,62,0
24060,note_on,20,0,9,,,,,,,,,8,,,62,50
24060,note_on,60,0,7,,,,,,,,,6,,,66,0
24060,note_on,20,0,8,,,,,,,,,7,,,66,50
24100,note_on,40,0,9,,,,,,,,,8,,,62,0
24100,note_on,40,0,8,,,,,,,,,7,,,66,0
24120,note_on,60,0,7,,,,,,,,,6,,,81,50
24120,note_on,120,0,10,,,,,,,,,10,,,50,0
24120,note_on,20,0,8,,,,,,,,,7,,,66,50
24120,note_on,120,0,11,,,,,,,,,11,,,38,0
24120,note_on,0,0,2,,,,,,,,,1,,,74,0
24120,note_on,120,0,2,,,,,,,,,1,,,78,0
24120,note_on,20,0,9,,,,,,,,,8,,,62,50
24120,note_on,120,0,4,,,,,,,,,3,,,66,0
24120,note_on,0,0,4,,,,,,,,,3,,,62,0
24160,note_on,40,0,8,,,,,,,,,7,,,66,0
24160,note_on,40,0,9,,,,,,,,,8,,,62,0
24165,note_on,45,0,7,,,,,,,,,6,,,81,0
24180,note_on,20,0,8,,,,,,,,,7,,,66,50
24180,note_on,20,0,9,,,,,,,,,8,,,62,50
24220,note_on,40,0,9,,,,,,,,,8,,,62,0
24220,note_on,40,0,8,,,,,,,,,7,,,66,0
24240,note_on,20,0,9,,,,,,,,,8,,,62,50
24240,note_on,75,0,7,,,,,,,,,6,,,78,50
24240,note_on,20,0,8,,,,,,,,,7,,,66,50
24280,note_on,40,0,9,,,,,,,,,8,,,62,0
24280,note_on,40,0,8,,,,,,,,,7,,,66,0
24285,note_on,45,0,7,,,,,,,,,6,,,78,0
24300,note_on,20,0,9,,,,,,,,,8,,,62,50
24300,note_on,20,0,8,,,,,,,,,7,,,66,50
24340,note_on,40,0,9,,,,,,,,,8,,,62,0
24340,note_on,40,0,8,,,,,,,,,7,,,66,0
24360,note_on,75,0,7,,,,,,,,,6,,,74,50
24360,note_on,20,0,8,,,,,,,,,7,,,67,50
24360,note_on,20,0,9,,,,,,,,,8,,,64,50
24390,note_on,30,0,9,,,,,,,,,8,,,64,0
24390,note_on,0,0,9,,,,,,,,,8,,,62,50
24390,note_on,0,0,8,,,,,,,,,7,,,66,50
24390,note_on,30,0,8,,,,,,,,,7,,,67,0
24405,note_on,45,0,7,,,,,,,,,6,,,74,0
24420,note_on,0,0,8,,,,,,,,,7,,,64,50
24420,note_on,30,0,8,,,,,,,,,7,,,66,0
24420,note_on,0,0,9,,,,,,,,,8,,,61,50
24420,note_on,30,0,9,,,,,,,,,8,,,62,0
24450,note_on,30,0,9,,,,,,,,,8,,,61,0
24450,note_on,0,0,8,,,,,,,,,7,,,66,50
24450,note_on,30,0,8,,,,,,,,,7,,,64,0
24450,note_on,0,0,9,,,,,,,,,8,,,62,50
24480,note_on,0,0,9,,,,,,,,,8,,,64,50
24480,note_on,30,0,9,,,,,,,,,8,,,62,0
24480,note_on,75,0,7,,,,,,,,,6,,,74,50
24480,note_on,0,0,8,,,,,,,,,7,,,67,50
24480,note_on,30,0,8,,,,,,,,,7,,,66,0
24520,note_on,40,0,8,,,,,,,,,7,,,67,0
24520,note_on,40,0,9,,,,,,,,,8,,,64,0
24540,note_on,20,0,8,,,,,,,,,7,,,67,50
24540,note_on,20,0,9,,,,,,,,,8,,,64,50
24580,note_on,40,0,8,,,,,,,,,7,,,67,0
24580,note_on,40,0,9,,,,,,,,,8,,,64,0
24600,note_on,20,0,8,,,,,,,,,7,,,67,50
24600,note_on,20,0,9,,,,,,,,,8,,,64,50
24640,note_on,40,0,9,,,,,,,,,8,,,64,0
24640,note_on,40,0,8,,,,,,,,,7,,,67,0
24660,note_on,20,0,9,,,,,,,,,8,,,64,50
24660,note_on,20,0,8,,,,,,,,,7,,,67,50
24700,note_on,40,0,8,,,,,,,,,7,,,67,0
24700,note_on,40,0,9,,,,,,,,,8,,,64,0
24720,note_on,20,0,9,,,,,,,,,8,,,64,50
24720,note_on,240,0,7,,,,,,,,,6,,,74,0
24720,note_on,20,0,8,,,,,,,,,7,,,67,50
24720,note_on,0,0,7,,,,,,,,,6,,,73,50
24760,note_on,40,0,9,,,,,,,,,8,,,64,0
24760,note_on,40,0,8,,,,,,,,,7,,,67,0
24780,note_on,20,0,9,,,,,,,,,8,,,64,50
24780,note_on,20,0,8,,,,,,,,,7,,,67,50
24810,note_on,90,0,7,,,,,,,,,6,,,73,0
24820,note_on,40,0,9,,,,,,,,,8,,,64,0
24820,note_on,40,0,8,,,,,,,,,7,,,67,0
24840,note_on,20,0,9,,,,,,,,,8,,,66,50
24840,note_on,20,0,8,,,,,,,,,7,,,69,50
24870,note_on,0,0,9,,,,,,,,,8,,,64,50
24870,note_on,30,0,9,,,,,,,,,8,,,66,0
24870,note_on,0,0,8,,,,,,,,,7,,,67,50
24870,note_on,30,0,8,,,,,,,,,7,,,69,0
24900,note_on,30,0,9,,,,,,,,,8,,,64,0
24900,note_on,0,0,9,,,,,,,,,8,,,62,50
24900,note_on,30,0,8,,,,,,,,,7,,,67,0
24900,note_on,0,0,8,,,,,,,,,7,,,66,50
24930,note_on,0,0,9,,,,,,,,,8,,,64,50
24930,note_on,30,0,8,,,,,,,,,7,,,66,0
24930,note_on,30,0,9,,,,,,,,,8,,,62,0
24930,note_on,0,0,8,,,,,,,,,7,,,67,50
24960,note_on,30,0,8,,,,,,,,,7,,,67,0
24960,note_on,0,0,8,,,,,,,,,7,,,69,50
24960,note_on,30,0,9,,,,,,,,,8,,,64,0
24960,note_on,0,0,9,,,,,,,,,8,,,66,50
25000,note_on,40,0,9,,,,,,,,,8,,,66,0
25000,note_on,40,0,8,,,,,,,,,7,,,69,0
25020,note_on,20,0,8,,,,,,,,,7,,,69,50
25020,note_on,20,0,9,,,,,,,,,8,,,66,50
25060,note_on,40,0,9,,,,,,,,,8,,,66,0
25060,note_on,40,0,8,,,,,,,,,7,,,69,0
25080,note_on,270,0,7,,,,,,,,,6,,,74,50
25080,note_on,20,0,9,,,,,,,,,8,,,66,50
25080,note_on,20,0,8,,,,,,,,,7,,,69,50
25120,note_on,40,0,8,,,,,,,,,7,,,69,0
25120,note_on,40,0,9,,,,,,,,,8,,,66,0
25140,note_on,20,0,9,,,,,,,,,8,,,66,50
25140,note_on,20,0,8,,,,,,,,,7,,,69,50
25170,note_on,90,0,7,,,,,,,,,6,,,74,0
25170,note_on,0,0,7,,,,,,,,,6,,,73,50
25180,note_on,40,0,8,,,,,,,,,7,,,69,0
25180,note_on,40,0,9,,,,,,,,,8,,,66,0
25200,note_on,20,0,8,,,,,,,,,7,,,69,50
25200,note_on,0,0,7,,,,,,,,,6,,,74,50
25200,note_on,30,0,7,,,,,,,,,6,,,73,0
25200,note_on,20,0,9,,,,,,,,,8,,,66,50
25240,note_on,40,0,8,,,,,,,,,7,,,69,0
25240,note_on,40,0,9,,,,,,,,,8,,,66,0
25260,note_on,20,0,8,,,,,,,,,7,,,69,50
25260,note_on,60,0,7,,,,,,,,,6,,,74,0
25260,note_on,20,0,9,,,,,,,,,8,,,66,50
25300,note_on,40,0,9,,,,,,,,,8,,,66,0
25300,note_on,40,0,8,,,,,,,,,7,,,69,0
25320,note_on,20,0,9,,,,,,,,,8,,,67,50
25320,note_on,20,0,8,,,,,,,,,7,,,71,50
25320,note_on,60,0,7,,,,,,,,,6,,,78,65
25350,note_on,30,0,9,,,,,,,,,8,,,67,0
25350,note_on,0,0,9,,,,,,,,,8,,,66,50
25350,note_on,0,0,8,,,,,,,,,7,,,69,50
25350,note_on,30,0,8,,,,,,,,,7,,,71,0
25380,note_on,60,0,7,,,,,,,,,6,,,78,0
25380,note_on,0,0,9,,,,,,,,,8,,,64,50
25380,note_on,30,0,9,,,,,,,,,8,,,66,0
25380,note_on,30,0,8,,,,,,,,,7,,,69,0
25380,note_on,0,0,8,,,,,,,,,7,,,67,50
25410,note_on,0,0,9,,,,,,,,,8,,,62,50
25410,note_on,0,0,8,,,,,,,,,7,,,66,50
25410,note_on,30,0,9,,,,,,,,,8,,,64,0
25410,note_on,30,0,8,,,,,,,,,7,,,67,0
25440,note_on,60,0,7,,,,,,,,,6,,,81,60
25440,note_on,30,0,9,,,,,,,,,8,,,62,0
25440,note_on,0,0,9,,,,,,,,,8,,,61,50
25440,note_on,30,0,8,,,,,,,,,7,,,66,0
25440,note_on,0,0,8,,,,,,,,,7,,,64,50
25480,note_on,40,0,8,,,,,,,,,7,,,64,0
25480,note_on,40,0,9,,,,,,,,,8,,,61,0
25500,note_on,20,0,8,,,,,,,,,7,,,64,50
25500,note_on,20,0,9,,,,,,,,,8,,,61,50
25540,note_on,40,0,8,,,,,,,,,7,,,64,0
25540,note_on,40,0,9,,,,,,,,,8,,,61,0
25560,note_on,20,0,8,,,,,,,,,7,,,64,50
25560,note_on,20,0,9,,,,,,,,,8,,,61,50
25600,note_on,40,0,8,,,,,,,,,7,,,64,0
25600,note_on,40,0,9,,,,,,,,,8,,,61,0
25620,note_on,20,0,8,,,,,,,,,7,,,64,50
25620,note_on,20,0,9,,,,,,,,,8,,,61,50
25660,note_on,40,0,9,,,,,,,,,8,,,61,0
25660,note_on,40,0,8,,,,,,,,,7,,,64,0
25680,note_on,0,0,7,,,,,,,,,6,,,79,50
25680,note_on,20,0,9,,,,,,,,,8,,,61,50
25680,note_on,240,0,7,,,,,,,,,6,,,81,0
25680,note_on,20,0,8,,,,,,,,,7,,,64,50
25720,note_on,40,0,9,,,,,,,,,8,,,61,0
25720,note_on,40,0,8,,,,,,,,,7,,,64,0
25740,note_on,20,0,9,,,,,,,,,8,,,61,50
25740,note_on,20,0,8,,,,,,,,,7,,,64,50
25770,note_on,90,0,7,,,,,,,,,6,,,79,0
25780,note_on,40,0,9,,,,,,,,,8,,,61,0
25780,note_on,40,0,8,,,,,,,,,7,,,64,0
25800,note_on,20,0,9,,,,,,,,,8,,,62,50
25800,note_on,20,0,8,,,,,,,,,7,,,66,50
25830,note_on,30,0,8,,,,,,,,,7,,,66,0
25830,note_on,0,0,8,,,,,,,,,7,,,64,50
25830,note_on,0,0,9,,,,,,,,,8,,,61,50
25830,note_on,30,0,9,,,,,,,,,8,,,62,0
25860,note_on,0,0,9,,,,,,,,,8,,,59,50
25860,note_on,30,0,9,,,,,,,,,8,,,61,0
25860,note_on,0,0,8,,,,,,,,,7,,,62,50
25860,note_on,30,0,8,,,,,,,,,7,,,64,0
25890,note_on,0,0,8,,,,,,,,,7,,,64,50
25890,note_on,30,0,8,,,,,,,,,7,,,62,0
25890,note_on,30,0,9,,,,,,,,,8,,,59,0
25890,note_on,0,0,9,,,,,,,,,8,,,61,50
25920,note_on,150,0,7,,,,,,,,,6,,,78,100
25920,marker,8640,1,0,,,,,,,,,,,,,
25920,note_on,30,0,8,,,,,,,,,7,,,64,0
25920,note_on,30,0,9,,,,,,,,,8,,,61,0
25920,note_on,0,0,9,,,,,,,,,8,,,62,100
25920,note_on,0,0,8,,,,,,,,,7,,,66,100
25950,note_on,30,0,7,,,,,,,,,6,,,78,0
25950,note_on,0,0,7,,,,,,,,,6,,,81,100
25980,note_on,0,0,7,,,,,,,,,6,,,79,100
25980,note_on,30,0,7,,,,,,,,,6,,,81,0
26010,note_on,0,0,7,,,,,,,,,6,,,78,100
26010,note_on,90,0,8,,,,,,,,,7,,,66,0
26010,note_on,30,0,7,,,,,,,,,6,,,79,0
26040,note_on,120,0,9,,,,,,,,,8,,,62,0
26040,note_on,0,0,9,,,,,,,,,8,,,62,120
26040,note_on,1920,0,10,,,,,,,,,10,,,62,120
26040,note_on,0,0,7,,,,,,,,,6,,,83,120
26040,note_on,30,0,8,,,,,,,,,7,,,83,120
26040,note_on,0,0,5,,,,,,,,,4,,,74,120
26040,note_on,4860,0,6,,,,,,,,,5,,,50,120
26040,note_on,1920,0,2,,,,,,,,,1,,,83,120
26040,note_on,0,0,2,,,,,,,,,1,,,78,120
26040,note_on,4830,0,5,,,,,,,,,4,,,62,120
26040,note_on,4800,0,3,,,,,,,,,2,,,62,120
26040,note_on,30,0,7,,,,,,,,,6,,,78,0
26040,note_on,0,0,4,,,,,,,,,3,,,62,120
26040,note_on,4800,0,1,,,,,,,,,0,,,83,120
26040,note_on,0,0,1,,,,,,,,,0,,,78,120
26040,note_on,1920,0,11,,,,,,,,,11,,,50,120
26040,note_on,1920,0,4,,,,,,,,,3,,,66,120
26130,note_on,0,0,4,,,,,,,,,3,,,66,0
26130,note_on,0,0,5,,,,,,,,,4,,,62,0
26130,note_on,90,0,8,,,,,,,,,7,,,83,0
26130,note_on,90,0,4,,,,,,,,,3,,,62,0
26130,note_on,90,0,7,,,,,,,,,6,,,83,0
26130,note_on,90,0,1,,,,,,,,,0,,,78,0
26130,note_on,0,0,1,,,,,,,,,0,,,83,0
26130,note_on,0,0,2,,,,,,,,,1,,,83,0
26130,note_on,90,0,2,,,,,,,,,1,,,78,0
26130,note_on,90,0,11,,,,,,,,,11,,,50,0
26130,note_on,90,0,9,,,,,,,,,8,,,62,0
26130,note_on,90,0,5,,,,,,,,,4,,,74,0
26130,note_on,90,0,3,,,,,,,,,2,,,62,0
26130,note_on,90,0,10,,,,,,,,,10,,,62,0
26160,note_on,120,0,6,,,,,,,,,5,,,50,0
26160,note_on,30,0,8,,,,,,,,,7,,,76,100
26160,note_on,30,0,7,,,,,,,,,6,,,76,100
26190,note_on,30,0,8,,,,,,,,,7,,,76,0
26190,note_on,0,0,8,,,,,,,,,7,,,79,100
26190,note_on,0,0,7,,,,,,,,,6,,,79,100
26190,note_on,30,0,7,,,,,,,,,6,,,76,0
26220,note_on,30,0,8,,,,,,,,,7,,,79,0
26220,note_on,0,0,7,,,,,,,,,6,,,78,100
26220,note_on,30,0,7,,,,,,,,,6,,,79,0
26220,note_on,0,0,8,,,,,,,,,7,,,78,100
26250,note_on,30,0,8,,,,,,,,,7,,,78,0
26250,note_on,0,0,8,,,,,,,,,7,,,76,100
26250,note_on,30,0,7,,,,,,,,,6,,,78,0
26250,note_on,0,0,7,,,,,,,,,6,,,76,100
26280,note_on,150,0,2,,,,,,,,,1,,,76,120
26280,note_on,150,0,10,,,,,,,,,10,,,61,120
26280,note_on,0,0,2,,,,,,,,,1,,,81,120
26280,note_on,150,0,3,,,,,,,,,2,,,61,120
26280,note_on,150,0,4,,,,,,,,,3,,,57,120
26280,note_on,150,0,1,,,,,,,,,0,,,81,120
26280,note_on,30,0,7,,,,,,,,,6,,,76,0
26280,note_on,0,0,7,,,,,,,,,6,,,81,120
26280,note_on,0,0,1,,,,,,,,,0,,,76,120
26280,note_on,0,0,5,,,,,,,,,4,,,69,120
26280,note_on,120,0,6,,,,,,,,,5,,,45,120
26280,note_on,0,0,8,,,,,,,,,7,,,81,120
26280,note_on,150,0,5,,,,,,,,,4,,,57,120
26280,note_on,150,0,9,,,,,,,,,8,,,61,120
26280,note_on,150,0,11,,,,,,,,,11,,,49,120
26280,note_on,0,0,4,,,,,,,,,3,,,64,120
26280,note_on,30,0,8,,,,,,,,,7,,,76,0
26370,note_on,90,0,4,,,,,,,,,3,,,64,0
26370,note_on,90,0,9,,,,,,,,,8,,,61,0
26370,note_on,90,0,10,,,,,,,,,10,,,61,0
26370,note_on,90,0,8,,,,,,,,,7,,,81,0
26370,note_on,0,0,2,,,,,,,,,1,,,76,0
26370,note_on,90,0,2,,,,,,,,,1,,,81,0
26370,note_on,90,0,7,,,,,,,,,6,,,81,0
26370,note_on,90,0,11,,,,,,,,,11,,,49,0
26370,note_on,90,0,1,,,,,,,,,0,,,76,0
26370,note_on,0,0,1,,,,,,,,,0,,,81,0
26370,note_on,90,0,3,,,,,,,,,2,,,61,0
26370,note_on,0,0,5,,,,,,,,,4,,,57,0
26370,note_on,90,0,5,,,,,,,,,4,,,69,0
26370,note_on,0,0,4,,,,,,,,,3,,,57,0
26400,note_on,30,0,7,,,,,,,,,6,,,74,100
26400,note_on,120,0,6,,,,,,,,,5,,,45,0
26400,note_on,30,0,8,,,,,,,,,7,,,74,100
26430,note_on,30,0,7,,,,,,,,,6,,,74,0
26430,note_on,0,0,7,,,,,,,,,6,,,78,100
26430,note_on,0,0,8,,,,,,,,,7,,,78,100
26430,note_on,30,0,8,,,,,,,,,7,,,74,0
26460,note_on,30,0,8,,,,,,,,,7,,,78,0
26460,note_on,0,0,7,,,,,,,,,6,,,76,100
26460,note_on,30,0,7,,,,,,,,,6,,,78,0
26460,note_on,0,0,8,,,,,,,,,7,,,76,100
26490,note_on,30,0,7,,,,,,,,,6,,,76,0
26490,note_on,30,0,8,,,,,,,,,7,,,76,0
26490,note_on,0,0,8,,,,,,,,,7,,,74,100
26490,note_on,0,0,7,,,,,,,,,6,,,74,100
26520,note_on,150,0,3,,,,,,,,,2,,,59,100
26520,note_on,150,0,5,,,,,,,,,4,,,62,100
26520,note_on,0,0,5,,,,,,,,,4,,,74,100
26520,note_on,0,0,7,,,,,,,,,6,,,79,100
26520,note_on,0,0,8,,,,,,,,,7,,,79,100
26520,note_on,150,0,9,,,,,,,,,8,,,59,100
26520,note_on,0,0,4,,,,,,,,,3,,,62,100
26520,note_on,150,0,4,,,,,,,,,3,,,50,100
26520,note_on,150,0,10,,,,,,,,,10,,,59,100
26520,note_on,120,0,6,,,,,,,,,5,,,50,100
26520,note_on,30,0,7,,,,,,,,,6,,,74,0
26520,note_on,0,0,2,,,,,,,,,1,,,74,100
26520,note_on,150,0,2,,,,,,,,,1,,,79,100
26520,note_on,150,0,1,,,,,,,,,0,,,79,100
26520,note_on,30,0,8,,,,,,,,,7,,,74,0
26520,note_on,150,0,11,,,,,,,,,11,,,47,100
26520,note_on,0,0,1,,,,,,,,,0,,,74,100
26610,note_on,90,0,2,,,,,,,,,1,,,74,0
26610,note_on,90,0,4,,,,,,,,,3,,,62,0
26610,note_on,90,0,11,,,,,,,,,11,,,47,0
26610,note_on,90,0,3,,,,,,,,,2,,,59,0
26610,note_on,90,0,5,,,,,,,,,4,,,74,0
26610,note_on,0,0,5,,,,,,,,,4,,,62,0
26610,note_on,0,0,4,,,,,,,,,3,,,50,0
26610,note_on,90,0,10,,,,,,,,,10,,,59,0
26610,note_on,90,0,9,,,,,,,,,8,,,59,0
26610,note_on,90,0,1,,,,,,,,,0,,,74,0
26640,note_on,30,0,9,,,,,,,,,8,,,57,120
26640,note_on,30,0,3,,,,,,,,,2,,,57,120
26640,note_on,30,0,11,,,,,,,,,11,,,45,120
26640,note_on,0,0,5,,,,,,,,,4,,,76,120
26640,note_on,30,0,4,,,,,,,,,3,,,57,120
26640,note_on,120,0,6,,,,,,,,,5,,,50,0
26640,note_on,30,0,1,,,,,,,,,0,,,73,120
26640,note_on,30,0,5,,,,,,,,,4,,,69,120
26640,note_on,30,0,2,,,,,,,,,1,,,73,120
26640,note_on,30,0,10,,,,,,,,,10,,,57,120
26640,note_on,0,0,4,,,,,,,,,3,,,64,120
26640,note_on,0,0,6,,,,,,,,,5,,,45,120
26700,note_on,0,0,7,,,,,,,,,6,,,76,100
26700,note_on,0,0,8,,,,,,,,,7,,,76,100
26700,note_on,180,0,8,,,,,,,,,7,,,79,0
26700,note_on,180,0,7,,,,,,,,,6,,,79,0
26760,note_on,0,0,8,,,,,,,,,7,,,73,100
26760,note_on,60,0,8,,,,,,,,,7,,,76,0
26760,note_on,0,0,7,,,,,,,,,6,,,73,100
26760,note_on,60,0,7,,,,,,,,,6,,,76,0
26760,note_on,120,0,6,,,,,,,,,5,,,45,0
26820,note_on,0,0,8,,,,,,,,,7,,,69,100
26820,note_on,60,0,8,,,,,,,,,7,,,73,0
26820,note_on,0,0,7,,,,,,,,,6,,,69,100
26820,note_on,60,0,7,,,,,,,,,6,,,73,0
26880,note_on,240,0,11,,,,,,,,,11,,,45,0
26880,note_on,0,0,2,,,,,,,,,1,,,79,0
26880,note_on,240,0,1,,,,,,,,,0,,,73,0
26880,note_on,0,0,1,,,,,,,,,0,,,79,0
26880,note_on,240,0,2,,,,,,,,,1,,,73,0
26880,note_on,240,0,3,,,,,,,,,2,,,57,0
26880,note_on,240,0,4,,,,,,,,,3,,,64,0
26880,note_on,0,0,4,,,,,,,,,3,,,57,0
26880,note_on,240,0,9,,,,,,,,,8,,,57,0
26880,note_on,0,0,5,,,,,,,,,4,,,69,0
26880,note_on,240,0,5,,,,,,,,,4,,,76,0
26880,note_on,60,0,7,,,,,,,,,6,,,69,0
26880,note_on,0,0,7,,,,,,,,,6,,,78,100
26880,note_on,240,0,10,,,,,,,,,10,,,57,0
26880,note_on,60,0,8,,,,,,,,,7,,,69,0
26880,note_on,0,0,8,,,,,,,,,7,,,78,100
26910,note_on,0,0,8,,,,,,,,,7,,,81,100
26910,note_on,30,0,8,,,,,,,,,7,,,78,0
26910,note_on,30,0,7,,,,,,,,,6,,,78,0
26910,note_on,0,0,7,,,,,,,,,6,,,81,100
26940,note_on,0,0,8,,,,,,,,,7,,,79,100
26940,note_on,30,0,8,,,,,,,,,7,,,81,0
26940,note_on,30,0,7,,,,,,,,,6,,,81,0
26940,note_on,0,0,7,,,,,,,,,6,,,79,100
26970,note_on,30,0,8,,,,,,,,,7,,,79,0
26970,note_on,0,0,8,,,,,,,,,7,,,78,100
26970,note_on,0,0,7,,,,,,,,,6,,,78,100
26970,note_on,30,0,7,,,,,,,,,6,,,79,0
27000,note_on,120,0,3,,,,,,,,,2,,,62,120
27000,note_on,0,0,1,,,,,,,,,0,,,78,120
27000,note_on,120,0,5,,,,,,,,,4,,,62,120
27000,note_on,0,0,8,,,,,,,,,7,,,83,120
27000,note_on,30,0,8,,,,,,,,,7,,,78,0
27000,note_on,0,0,5,,,,,,,,,4,,,74,120
27000,note_on,120,0,9,,,,,,,,,8,,,62,120
27000,note_on,120,0,4,,,,,,,,,3,,,66,120
27000,note_on,240,0,6,,,,,,,,,5,,,50,120
27000,note_on,120,0,11,,,,,,,,,11,,,50,120
27000,note_on,120,0,1,,,,,,,,,0,,,83,120
27000,note_on,0,0,4,,,,,,,,,3,,,62,120
27000,note_on,120,0,2,,,,,,,,,1,,,83,120
27000,note_on,0,0,2,,,,,,,,,1,,,78,120
27000,note_on,30,0,7,,,,,,,,,6,,,78,0
27000,note_on,0,0,7,,,,,,,,,6,,,83,120
27000,note_on,120,0,10,,,,,,,,,10,,,62,120
27090,note_on,0,0,1,,,,,,,,,0,,,83,0
27090,note_on,90,0,1,,,,,,,,,0,,,78,0
27090,note_on,90,0,10,,,,,,,,,10,,,62,0
27090,note_on,0,0,2,,,,,,,,,1,,,83,0
27090,note_on,0,0,4,,,,,,,,,3,,,66,0
27090,note_on,90,0,4,,,,,,,,,3,,,62,0
27090,note_on,90,0,9,,,,,,,,,8,,,62,0
27090,note_on,90,0,8,,,,,,,,,7,,,83,0
27090,note_on,90,0,7,,,,,,,,,6,,,83,0
27090,note_on,90,0,5,,,,,,,,,4,,,74,0
27090,note_on,0,0,5,,,,,,,,,4,,,62,0
27090,note_on,90,0,2,,,,,,,,,1,,,78,0
27090,note_on,90,0,11,,,,,,,,,11,,,50,0
27090,note_on,90,0,3,,,,,,,,,2,,,62,0
27120,note_on,30,0,8,,,,,,,,,7,,,76,100
27120,note_on,120,0,6,,,,,,,,,5,,,50,0
27120,note_on,30,0,7,,,,,,,,,6,,,76,100
27150,note_on,30,0,7,,,,,,,,,6,,,76,0
27150,note_on,0,0,7,,,,,,,,,6,,,79,100
27150,note_on,0,0,8,,,,,,,,,7,,,79,100
27150,note_on,30,0,8,,,,,,,,,7,,,76,0
27180,note_on,0,0,8,,,,,,,,,7,,,78,100
27180,note_on,0,0,7,,,,,,,,,6,,,78,100
27180,note_on,30,0,8,,,,,,,,,7,,,79,0
27180,note_on,30,0,7,,,,,,,,,6,,,79,0
27210,note_on,30,0,7,,,,,,,,,6,,,78,0
27210,note_on,30,0,8,,,,,,,,,7,,,78,0
27210,note_on,0,0,8,,,,,,,,,7,,,76,100
27210,note_on,0,0,7,,,,,,,,,6,,,76,100
27240,note_on,30,0,8,,,,,,,,,7,,,76,0
27240,note_on,0,0,8,,,,,,,,,7,,,81,120
27240,note_on,150,0,3,,,,,,,,,2,,,61,120
27240,note_on,150,0,10,,,,,,,,,10,,,61,120
27240,note_on,0,0,4,,,,,,,,,3,,,64,120
27240,note_on,0,0,7,,,,,,,,,6,,,81,120
27240,note_on,150,0,2,,,,,,,,,1,,,76,120
27240,note_on,0,0,1,,,,,,,,,0,,,81,120
27240,note_on,150,0,1,,,,,,,,,0,,,76,120
27240,note_on,150,0,9,,,,,,,,,8,,,61,120
27240,note_on,150,0,5,,,,,,,,,4,,,57,120
27240,note_on,120,0,6,,,,,,,,,5,,,45,120
27240,note_on,0,0,5,,,,,,,,,4,,,69,120
27240,note_on,150,0,11,,,,,,,,,11,,,49,120
27240,note_on,0,0,2,,,,,,,,,1,,,81,120
27240,note_on,30,0,7,,,,,,,,,6,,,76,0
27240,note_on,150,0,4,,,,,,,,,3,,,57,120
27330,note_on,0,0,1,,,,,,,,,0,,,76,0
27330,note_on,90,0,1,,,,,,,,,0,,,81,0
27330,note_on,90,0,8,,,,,,,,,7,,,81,0
27330,note_on,90,0,3,,,,,,,,,2,,,61,0
27330,note_on,90,0,11,,,,,,,,,11,,,49,0
27330,note_on,90,0,10,,,,,,,,,10,,,61,0
27330,note_on,0,0,4,,,,,,,,,3,,,57,0
27330,note_on,90,0,4,,,,,,,,,3,,,64,0
27330,note_on,90,0,9,,,,,,,,,8,,,61,0
27330,note_on,90,0,2,,,,,,,,,1,,,81,0
27330,note_on,0,0,2,,,,,,,,,1,,,76,0
27330,note_on,90,0,5,,,,,,,,,4,,,69,0
27330,note_on,0,0,5,,,,,,,,,4,,,57,0
27330,note_on,90,0,7,,,,,,,,,6,,,81,0
27360,note_on,120,0,6,,,,,,,,,5,,,45,0
27360,note_on,30,0,7,,,,,,,,,6,,,74,100
27360,note_on,30,0,8,,,,,,,,,7,,,74,100
27390,note_on,0,0,7,,,,,,,,,6,,,78,100
27390,note_on,0,0,8,,,,,,,,,7,,,78,100
27390,note_on,30,0,7,,,,,,,,,6,,,74,0
27390,note_on,30,0,8,,,,,,,,,7,,,74,0
27420,note_on,0,0,8,,,,,,,,,7,,,76,100
27420,note_on,30,0,8,,,,,,,,,7,,,78,0
27420,note_on,30,0,7,,,,,,,,,6,,,78,0
27420,note_on,0,0,7,,,,,,,,,6,,,76,100
27450,note_on,0,0,7,,,,,,,,,6,,,74,100
27450,note_on,30,0,8,,,,,,,,,7,,,76,0
27450,note_on,0,0,8,,,,,,,,,7,,,74,100
27450,note_on,30,0,7,,,,,,,,,6,,,76,0
27480,note_on,0,0,2,,,,,,,,,1,,,74,100
27480,note_on,150,0,5,,,,,,,,,4,,,62,100
27480,note_on,0,0,5,,,,,,,,,4,,,74,100
27480,note_on,0,0,1,,,,,,,,,0,,,74,100
27480,note_on,150,0,1,,,,,,,,,0,,,79,100
27480,note_on,0,0,7,,,,,,,,,6,,,79,100
27480,note_on,150,0,2,,,,,,,,,1,,,79,100
27480,note_on,150,0,11,,,,,,,,,11,,,47,100
27480,note_on,120,0,6,,,,,,,,,5,,,50,100
27480,note_on,150,0,9,,,,,,,,,8,,,59,100
27480,note_on,150,0,3,,,,,,,,,2,,,59,100
27480,note_on,30,0,8,,,,,,,,,7,,,74,0
27480,note_on,30,0,7,,,,,,,,,6,,,74,0
27480,note_on,0,0,4,,,,,,,,,3,,,62,100
27480,note_on,150,0,10,,,,,,,,,10,,,59,100
27480,note_on,150,0,4,,,,,,,,,3,,,50,100
27480,note_on,0,0,8,,,,,,,,,7,,,79,100
27570,note_on,90,0,5,,,,,,,,,4,,,74,0
27570,note_on,0,0,5,,,,,,,,,4,,,62,0
27570,note_on,90,0,11,,,,,,,,,11,,,47,0
27570,note_on,90,0,1,,,,,,,,,0,,,74,0
27570,note_on,90,0,4,,,,,,,,,3,,,62,0
27570,note_on,90,0,2,,,,,,,,,1,,,74,0
27570,note_on,0,0,4,,,,,,,,,3,,,50,0
27570,note_on,90,0,10,,,,,,,,,10,,,59,0
27570,note_on,90,0,9,,,,,,,,,8,,,59,0
27570,note_on,90,0,3,,,,,,,,,2,,,59,0
27600,note_on,0,0,6,,,,,,,,,5,,,45,120
27600,note_on,0,0,5,,,,,,,,,4,,,69,120
27600,note_on,30,0,3,,,,,,,,,2,,,57,120
27600,note_on,30,0,5,,,,,,,,,4,,,76,120
27600,note_on,30,0,11,,,,,,,,,11,,,45,120
27600,note_on,30,0,1,,,,,,,,,0,,,73,120
27600,note_on,30,0,9,,,,,,,,,8,,,57,120
27600,note_on,30,0,10,,,,,,,,,10,,,57,120
27600,note_on,30,0,2,,,,,,,,,1,,,73,120
27600,note_on,120,0,6,,,,,,,,,5,,,50,0
27600,note_on,0,0,4,,,,,,,,,3,,,57,120
27600,note_on,30,0,4,,,,,,,,,3,,,64,120
27660,note_on,0,0,8,,,,,,,,,7,,,78,100
27660,note_on,180,0,8,,,,,,,,,7,,,79,0
27660,note_on,180,0,7,,,,,,,,,6,,,79,0
27660,note_on,0,0,7,,,,,,,,,6,,,78,100
27690,note_on,0,0,8,,,,,,,,,7,,,76,100
27690,note_on,0,0,7,,,,,,,,,6,,,76,100
27690,note_on,30,0,8,,,,,,,,,7,,,78,0
27690,note_on,30,0,7,,,,,,,,,6,,,78,0
27720,note_on,30,0,7,,,,,,,,,6,,,76,0
27720,note_on,120,0,6,,,,,,,,,5,,,45,0
27720,note_on,0,0,8,,,,,,,,,7,,,74,100
27720,note_on,30,0,8,,,,,,,,,7,,,76,0
27720,note_on,0,0,7,,,,,,,,,6,,,74,100
27750,note_on,0,0,7,,,,,,,,,6,,,73,100
27750,note_on,30,0,7,,,,,,,,,6,,,74,0
27750,note_on,0,0,8,,,,,,,,,7,,,73,100
27750,note_on,30,0,8,,,,,,,,,7,,,74,0
27780,note_on,0,0,8,,,,,,,,,7,,,71,100
27780,note_on,30,0,8,,,,,,,,,7,,,73,0
27780,note_on,0,0,7,,,,,,,,,6,,,71,100
27780,note_on,30,0,7,,,,,,,,,6,,,73,0
27810,note_on,30,0,8,,,,,,,,,7,,,71,0
27810,note_on,0,0,7,,,,,,,,,6,,,69,100
27810,note_on,30,0,7,,,,,,,,,6,,,71,0
27810,note_on,0,0,8,,,,,,,,,7,,,69,100
27840,note_on,240,0,3,,,,,,,,,2,,,57,0
27840,note_on,0,0,2,,,,,,,,,1,,,79,0
27840,note_on,0,0,2,,,,,,,,,1,,,78,100
27840,note_on,240,0,2,,,,,,,,,1,,,73,0
27840,note_on,0,0,1,,,,,,,,,0,,,74,100
27840,note_on,0,0,1,,,,,,,,,0,,,78,100
27840,note_on,0,0,1,,,,,,,,,0,,,79,0
27840,note_on,240,0,1,,,,,,,,,0,,,73,0
27840,note_on,0,0,2,,,,,,,,,1,,,74,100
27840,note_on,240,0,9,,,,,,,,,8,,,57,0
27840,note_on,240,0,4,,,,,,,,,3,,,57,0
27840,note_on,0,0,4,,,,,,,,,3,,,64,0
27840,note_on,240,0,11,,,,,,,,,11,,,45,0
27840,note_on,0,0,7,,,,,,,,,6,,,78,100
27840,note_on,0,0,8,,,,,,,,,7,,,78,100
27840,note_on,30,0,8,,,,,,,,,7,,,69,0
27840,note_on,0,0,5,,,,,,,,,4,,,76,0
27840,note_on,240,0,5,,,,,,,,,4,,,69,0
27840,note_on,240,0,10,,,,,,,,,10,,,57,0
27840,note_on,30,0,7,,,,,,,,,6,,,69,0
27870,note_on,30,0,8,,,,,,,,,7,,,78,0
27870,note_on,0,0,7,,,,,,,,,6,,,81,100
27870,note_on,0,0,8,,,,,,,,,7,,,81,100
27870,note_on,30,0,7,,,,,,,,,6,,,78,0
27900,note_on,0,0,8,,,,,,,,,7,,,79,100
27900,note_on,30,0,8,,,,,,,,,7,,,81,0
27900,note_on,0,0,7,,,,,,,,,6,,,79,100
27900,note_on,30,0,7,,,,,,,,,6,,,81,0
27930,note_on,30,0,8,,,,,,,,,7,,,79,0
27930,note_on,0,0,7,,,,,,,,,6,,,78,100
27930,note_on,0,0,8,,,,,,,,,7,,,78,100
27930,note_on,30,0,7,,,,,,,,,6,,,79,0
27960,note_on,0,0,5,,,,,,,,,4,,,62,100
27960,note_on,120,0,5,,,,,,,,,4,,,74,100
27960,note_on,120,0,11,,,,,,,,,11,,,50,100
27960,note_on,0,0,7,,,,,,,,,6,,,83,100
27960,note_on,120,0,4,,,,,,,,,3,,,62,100
27960,note_on,0,0,4,,,,,,,,,3,,,66,100
27960,note_on,240,0,6,,,,,,,,,5,,,50,100
27960,note_on,120,0,10,,,,,,,,,10,,,62,100
27960,note_on,30,0,7,,,,,,,,,6,,,78,0
27960,note_on,120,0,3,,,,,,,,,2,,,62,100
27960,note_on,0,0,1,,,,,,,,,0,,,83,100
27960,note_on,30,0,8,,,,,,,,,7,,,78,0
27960,note_on,120,0,1,,,,,,,,,0,,,74,0
27960,note_on,0,0,8,,,,,,,,,7,,,83,100
27960,note_on,0,0,2,,,,,,,,,1,,,83,100
27960,note_on,120,0,2,,,,,,,,,1,,,78,0
27960,note_on,0,0,1,,,,,,,,,0,,,78,0
27960,note_on,120,0,9,,,,,,,,,8,,,62,100
27960,note_on,0,0,1,,,,,,,,,0,,,78,100
28050,note_on,90,0,7,,,,,,,,,6,,,83,0
28050,note_on,90,0,8,,,,,,,,,7,,,83,0
28080,note_on,120,0,4,,,,,,,,,3,,,66,0
28080,note_on,0,0,4,,,,,,,,,3,,,64,100
28080,note_on,0,0,1,,,,,,,,,0,,,79,100
28080,note_on,120,0,6,,,,,,,,,5,,,50,0
28080,note_on,120,0,2,,,,,,,,,1,,,74,0
28080,note_on,30,0,7,,,,,,,,,6,,,76,100
28080,note_on,30,0,8,,,,,,,,,7,,,76,100
28080,note_on,120,0,1,,,,,,,,,0,,,78,0
28080,note_on,0,0,2,,,,,,,,,1,,,76,100
28110,note_on,0,0,7,,,,,,,,,6,,,79,100
28110,note_on,0,0,8,,,,,,,,,7,,,79,100
28110,note_on,30,0,7,,,,,,,,,6,,,76,0
28110,note_on,30,0,8,,,,,,,,,7,,,76,0
28140,note_on,30,0,7,,,,,,,,,6,,,79,0
28140,note_on,0,0,8,,,,,,,,,7,,,78,100
28140,note_on,0,0,7,,,,,,,,,6,,,78,100
28140,note_on,30,0,8,,,,,,,,,7,,,79,0
28170,note_on,30,0,7,,,,,,,,,6,,,78,0
28170,note_on,30,0,8,,,,,,,,,7,,,78,0
28170,note_on,0,0,7,,,,,,,,,6,,,76,100
28170,note_on,0,0,8,,,,,,,,,7,,,76,100
28200,note_on,240,0,5,,,,,,,,,4,,,62,0
28200,note_on,0,0,1,,,,,,,,,0,,,81,100
28200,note_on,240,0,11,,,,,,,,,11,,,50,0
28200,note_on,0,0,2,,,,,,,,,1,,,81,100
28200,note_on,120,0,2,,,,,,,,,1,,,83,0
28200,note_on,240,0,9,,,,,,,,,8,,,62,0
28200,note_on,0,0,9,,,,,,,,,8,,,61,100
28200,note_on,0,0,5,,,,,,,,,4,,,74,0
28200,note_on,0,0,8,,,,,,,,,7,,,81,100
28200,note_on,0,0,1,,,,,,,,,0,,,83,0
28200,note_on,0,0,5,,,,,,,,,4,,,69,100
28200,note_on,0,0,5,,,,,,,,,4,,,57,100
28200,note_on,0,0,11,,,,,,,,,11,,,49,100
28200,note_on,240,0,3,,,,,,,,,2,,,62,0
28200,note_on,0,0,3,,,,,,,,,2,,,61,100
28200,note_on,30,0,8,,,,,,,,,7,,,76,0
28200,note_on,0,0,7,,,,,,,,,6,,,81,100
28200,note_on,0,0,10,,,,,,,,,10,,,61,100
28200,note_on,120,0,1,,,,,,,,,0,,,79,0
28200,note_on,120,0,4,,,,,,,,,3,,,64,0
28200,note_on,120,0,6,,,,,,,,,5,,,45,100
28200,note_on,30,0,7,,,,,,,,,6,,,76,0
28200,note_on,0,0,4,,,,,,,,,3,,,57,100
28200,note_on,0,0,4,,,,,,,,,3,,,69,100
28200,note_on,240,0,10,,,,,,,,,10,,,62,0
28200,note_on,0,0,4,,,,,,,,,3,,,62,0
28320,note_on,120,0,10,,,,,,,,,10,,,61,0
28320,note_on,0,0,5,,,,,,,,,4,,,57,0
28320,note_on,120,0,5,,,,,,,,,4,,,69,0
28320,note_on,120,0,1,,,,,,,,,0,,,86,100
28320,note_on,0,0,10,,,,,,,,,10,,,59,100
28320,note_on,120,0,11,,,,,,,,,11,,,49,0
28320,note_on,0,0,11,,,,,,,,,11,,,47,100
28320,note_on,0,0,3,,,,,,,,,2,,,59,100
28320,note_on,120,0,2,,,,,,,,,1,,,81,0
28320,note_on,120,0,4,,,,,,,,,3,,,57,0
28320,note_on,0,0,2,,,,,,,,,1,,,76,0
28320,note_on,0,0,2,,,,,,,,,1,,,74,100
28320,note_on,0,0,2,,,,,,,,,1,,,78,100
28320,note_on,120,0,9,,,,,,,,,8,,,61,0
28320,note_on,120,0,6,,,,,,,,,5,,,45,0
28320,note_on,120,0,3,,,,,,,,,2,,,61,0
28320,note_on,0,0,9,,,,,,,,,8,,,59,100
28320,note_on,0,0,4,,,,,,,,,3,,,62,100
28350,note_on,0,0,9,,,,,,,,,8,,,62,100
28350,note_on,30,0,3,,,,,,,,,2,,,59,0
28350,note_on,0,0,3,,,,,,,,,2,,,62,100
28350,note_on,30,0,10,,,,,,,,,10,,,59,0
28350,note_on,0,0,10,,,,,,,,,10,,,62,100
28350,note_on,30,0,9,,,,,,,,,8,,,59,0
28350,note_on,0,0,11,,,,,,,,,11,,,50,100
28350,note_on,30,0,11,,,,,,,,,11,,,47,0
28380,note_on,0,0,3,,,,,,,,,2,,,61,100
28380,note_on,30,0,11,,,,,,,,,11,,,50,0
28380,note_on,30,0,3,,,,,,,,,2,,,62,0
28380,note_on,30,0,10,,,,,,,,,10,,,62,0
28380,note_on,0,0,9,,,,,,,,,8,,,61,100
28380,note_on,0,0,11,,,,,,,,,11,,,49,100
28380,note_on,30,0,9,,,,,,,,,8,,,62,0
28380,note_on,0,0,10,,,,,,,,,10,,,61,100
28410,note_on,30,0,3,,,,,,,,,2,,,61,0
28410,note_on,0,0,9,,,,,,,,,8,,,59,100
28410,note_on,30,0,9,,,,,,,,,8,,,61,0
28410,note_on,30,0,11,,,,,,,,,11,,,49,0
28410,note_on,0,0,11,,,,,,,,,11,,,47,100
28410,note_on,0,0,3,,,,,,,,,2,,,59,100
28410,note_on,30,0,10,,,,,,,,,10,,,61,0
28410,note_on,0,0,10,,,,,,,,,10,,,59,100
28440,note_on,0,0,2,,,,,,,,,1,,,76,100
28440,note_on,30,0,10,,,,,,,,,10,,,59,0
28440,note_on,0,0,10,,,,,,,,,10,,,64,100
28440,note_on,0,0,4,,,,,,,,,3,,,69,0
28440,note_on,0,0,4,,,,,,,,,3,,,67,100
28440,note_on,120,0,1,,,,,,,,,0,,,81,0
28440,note_on,0,0,1,,,,,,,,,0,,,79,100
28440,note_on,120,0,4,,,,,,,,,3,,,62,0
28440,note_on,0,0,2,,,,,,,,,1,,,79,100
28440,note_on,30,0,9,,,,,,,,,8,,,59,0
28440,note_on,0,0,8,,,,,,,,,7,,,79,100
28440,note_on,120,0,2,,,,,,,,,1,,,78,0
28440,note_on,0,0,2,,,,,,,,,1,,,74,0
28440,note_on,30,0,3,,,,,,,,,2,,,59,0
28440,note_on,0,0,4,,,,,,,,,3,,,64,100
28440,note_on,30,0,11,,,,,,,,,11,,,47,0
28440,note_on,0,0,11,,,,,,,,,11,,,52,100
28440,note_on,120,0,5,,,,,,,,,4,,,69,100
28440,note_on,0,0,5,,,,,,,,,4,,,76,100
28440,note_on,0,0,9,,,,,,,,,8,,,64,100
28440,note_on,0,0,3,,,,,,,,,2,,,64,100
28440,note_on,0,0,7,,,,,,,,,6,,,79,100
28440,note_on,240,0,7,,,,,,,,,6,,,81,0
28440,note_on,120,0,6,,,,,,,,,5,,,45,100
28440,note_on,240,0,8,,,,,,,,,7,,,81,0
28530,note_on,90,0,9,,,,,,,,,8,,,64,0
28530,note_on,90,0,3,,,,,,,,,2,,,64,0
28530,note_on,90,0,10,,,,,,,,,10,,,64,0
28530,note_on,90,0,11,,,,,,,,,11,,,52,0
28560,note_on,0,0,5,,,,,,,,,4,,,74,100
28560,note_on,30,0,10,,,,,,,,,10,,,57,100
28560,note_on,120,0,6,,,,,,,,,5,,,45,0
28560,note_on,30,0,11,,,,,,,,,11,,,45,100
28560,note_on,0,0,5,,,,,,,,,4,,,69,0
28560,note_on,30,0,3,,,,,,,,,2,,,57,100
28560,note_on,0,0,6,,,,,,,,,5,,,50,100
28560,note_on,0,0,5,,,,,,,,,4,,,78,100
28560,note_on,120,0,1,,,,,,,,,0,,,79,0
28560,note_on,0,0,1,,,,,,,,,0,,,86,0
28560,note_on,120,0,5,,,,,,,,,4,,,76,0
28560,note_on,0,0,1,,,,,,,,,0,,,85,100
28560,note_on,0,0,1,,,,,,,,,0,,,81,100
28560,note_on,30,0,9,,,,,,,,,8,,,57,100
28590,note_on,0,0,11,,,,,,,,,11,,,49,100
28590,note_on,0,0,9,,,,,,,,,8,,,61,100
28590,note_on,30,0,9,,,,,,,,,8,,,57,0
28590,note_on,0,0,10,,,,,,,,,10,,,61,100
28590,note_on,30,0,11,,,,,,,,,11,,,45,0
28590,note_on,30,0,3,,,,,,,,,2,,,57,0
28590,note_on,0,0,3,,,,,,,,,2,,,61,100
28590,note_on,30,0,10,,,,,,,,,10,,,57,0
28620,note_on,30,0,11,,,,,,,,,11,,,49,0
28620,note_on,30,0,9,,,,,,,,,8,,,61,0
28620,note_on,0,0,9,,,,,,,,,8,,,59,100
28620,note_on,0,0,11,,,,,,,,,11,,,47,100
28620,note_on,0,0,3,,,,,,,,,2,,,59,100
28620,note_on,0,0,10,,,,,,,,,10,,,59,100
28620,note_on,30,0,3,,,,,,,,,2,,,61,0
28620,note_on,30,0,10,,,,,,,,,10,,,61,0
28650,note_on,30,0,9,,,,,,,,,8,,,59,0
28650,note_on,0,0,3,,,,,,,,,2,,,57,100
28650,note_on,0,0,9,,,,,,,,,8,,,57,100
28650,note_on,0,0,10,,,,,,,,,10,,,57,100
28650,note_on,0,0,11,,,,,,,,,11,,,45,100
28650,note_on,30,0,3,,,,,,,,,2,,,59,0
28650,note_on,30,0,11,,,,,,,,,11,,,47,0
28650,note_on,30,0,10,,,,,,,,,10,,,59,0
28680,note_on,240,0,2,,,,,,,,,1,,,76,0
28680,note_on,30,0,10,,,,,,,,,10,,,57,0
28680,note_on,0,0,10,,,,,,,,,10,,,62,100
28680,note_on,0,0,3,,,,,,,,,2,,,62,100
28680,note_on,0,0,9,,,,,,,,,8,,,62,100
28680,note_on,30,0,9,,,,,,,,,8,,,57,0
28680,note_on,240,0,4,,,,,,,,,3,,,67,0
28680,note_on,120,0,6,,,,,,,,,5,,,50,0
28680,note_on,0,0,7,,,,,,,,,6,,,78,100
28680,note_on,240,0,7,,,,,,,,,6,,,79,0
28680,note_on,120,0,1,,,,,,,,,0,,,85,0
28680,note_on,0,0,1,,,,,,,,,0,,,90,100
28680,note_on,0,0,5,,,,,,,,,4,,,74,0
28680,note_on,120,0,5,,,,,,,,,4,,,78,0
28680,note_on,30,0,3,,,,,,,,,2,,,57,0
28680,note_on,240,0,8,,,,,,,,,7,,,79,0
28680,note_on,0,0,4,,,,,,,,,3,,,64,0
28680,note_on,0,0,4,,,,,,,,,3,,,66,100
28680,note_on,0,0,2,,,,,,,,,1,,,74,100
28680,note_on,0,0,11,,,,,,,,,11,,,50,100
28680,note_on,30,0,11,,,,,,,,,11,,,45,0
28680,note_on,0,0,2,,,,,,,,,1,,,78,100
28680,note_on,0,0,2,,,,,,,,,1,,,79,0
28680,note_on,0,0,8,,,,,,,,,7,,,78,100
28680,note_on,0,0,4,,,,,,,,,3,,,62,100
28710,note_on,0,0,8,,,,,,,,,7,,,81,100
28710,note_on,30,0,7,,,,,,,,,6,,,78,0
28710,note_on,30,0,8,,,,,,,,,7,,,78,0
28710,note_on,0,0,7,,,,,,,,,6,,,81,100
28740,note_on,0,0,8,,,,,,,,,7,,,79,100
28740,note_on,0,0,7,,,,,,,,,6,,,79,100
28740,note_on,30,0,7,,,,,,,,,6,,,81,0
28740,note_on,30,0,8,,,,,,,,,7,,,81,0
28770,note_on,90,0,3,,,,,,,,,2,,,62,0
28770,note_on,90,0,10,,,,,,,,,10,,,62,0
28770,note_on,90,0,11,,,,,,,,,11,,,50,0
28770,note_on,0,0,8,,,,,,,,,7,,,78,100
28770,note_on,30,0,7,,,,,,,,,6,,,79,0
28770,note_on,30,0,8,,,,,,,,,7,,,79,0
28770,note_on,0,0,7,,,,,,,,,6,,,78,100
28770,note_on,90,0,9,,,,,,,,,8,,,62,0
28800,note_on,0,0,2,,,,,,,,,1,,,71,100
28800,note_on,120,0,2,,,,,,,,,1,,,74,0
28800,note_on,30,0,11,,,,,,,,,11,,,43,100
28800,note_on,0,0,1,,,,,,,,,0,,,83,100
28800,note_on,0,0,7,,,,,,,,,6,,,83,100
28800,note_on,30,0,7,,,,,,,,,6,,,78,0
28800,note_on,30,0,9,,,,,,,,,8,,,67,100
28800,note_on,120,0,1,,,,,,,,,0,,,81,0
28800,note_on,0,0,8,,,,,,,,,7,,,83,100
28800,note_on,30,0,8,,,,,,,,,7,,,78,0
28800,note_on,30,0,10,,,,,,,,,10,,,55,100
28800,note_on,30,0,3,,,,,,,,,2,,,55,100
28830,note_on,30,0,9,,,,,,,,,8,,,67,0
28830,note_on,0,0,11,,,,,,,,,11,,,47,100
28830,note_on,30,0,3,,,,,,,,,2,,,55,0
28830,note_on,30,0,11,,,,,,,,,11,,,43,0
28830,note_on,0,0,3,,,,,,,,,2,,,59,100
28830,note_on,0,0,10,,,,,,,,,10,,,59,100
28830,note_on,30,0,10,,,,,,,,,10,,,55,0
28830,note_on,0,0,9,,,,,,,,,8,,,71,100
28860,note_on,30,0,10,,,,,,,,,10,,,59,0
28860,note_on,30,0,9,,,,,,,,,8,,,71,0
28860,note_on,0,0,11,,,,,,,,,11,,,45,100
28860,note_on,0,0,10,,,,,,,,,10,,,57,100
28860,note_on,0,0,9,,,,,,,,,8,,,69,100
28860,note_on,30,0,11,,,,,,,,,11,,,47,0
28860,note_on,0,0,3,,,,,,,,,2,,,57,100
28860,note_on,30,0,3,,,,,,,,,2,,,59,0
28890,note_on,30,0,3,,,,,,,,,2,,,57,0
28890,note_on,30,0,10,,,,,,,,,10,,,57,0
28890,note_on,0,0,10,,,,,,,,,10,,,55,100
28890,note_on,30,0,11,,,,,,,,,11,,,45,0
28890,note_on,30,0,9,,,,,,,,,8,,,69,0
28890,note_on,0,0,9,,,,,,,,,8,,,67,100
28890,note_on,90,0,7,,,,,,,,,6,,,83,0
28890,note_on,0,0,11,,,,,,,,,11,,,43,100
28890,note_on,0,0,3,,,,,,,,,2,,,55,100
28890,note_on,90,0,8,,,,,,,,,7,,,83,0
28920,note_on,0,0,1,,,,,,,,,0,,,88,100
28920,note_on,240,0,4,,,,,,,,,3,,,66,0
28920,note_on,0,0,2,,,,,,,,,1,,,76,100
28920,note_on,120,0,2,,,,,,,,,1,,,78,0
28920,note_on,30,0,9,,,,,,,,,8,,,67,0
28920,note_on,0,0,9,,,,,,,,,8,,,73,100
28920,note_on,0,0,4,,,,,,,,,3,,,62,0
28920,note_on,0,0,4,,,,,,,,,3,,,67,100
28920,note_on,0,0,4,,,,,,,,,3,,,64,100
28920,note_on,30,0,8,,,,,,,,,7,,,76,100
28920,note_on,0,0,11,,,,,,,,,11,,,49,100
28920,note_on,30,0,3,,,,,,,,,2,,,55,0
28920,note_on,0,0,3,,,,,,,,,2,,,61,100
28920,note_on,30,0,10,,,,,,,,,10,,,55,0
28920,note_on,0,0,10,,,,,,,,,10,,,61,100
28920,note_on,30,0,7,,,,,,,,,6,,,76,100
28920,note_on,120,0,1,,,,,,,,,0,,,90,0
28920,note_on,30,0,11,,,,,,,,,11,,,43,0
28950,note_on,0,0,8,,,,,,,,,7,,,79,100
28950,note_on,30,0,7,,,,,,,,,6,,,76,0
28950,note_on,0,0,7,,,,,,,,,6,,,79,100
28950,note_on,30,0,8,,,,,,,,,7,,,76,0
28980,note_on,30,0,7,,,,,,,,,6,,,79,0
28980,note_on,0,0,7,,,,,,,,,6,,,78,100
28980,note_on,0,0,8,,,,,,,,,7,,,78,100
28980,note_on,30,0,8,,,,,,,,,7,,,79,0
29010,note_on,90,0,10,,,,,,,,,10,,,61,0
29010,note_on,30,0,8,,,,,,,,,7,,,78,0
29010,note_on,30,0,7,,,,,,,,,6,,,78,0
29010,note_on,0,0,7,,,,,,,,,6,,,76,100
29010,note_on,0,0,8,,,,,,,,,7,,,76,100
29010,note_on,90,0,11,,,,,,,,,11,,,49,0
29010,note_on,90,0,3,,,,,,,,,2,,,61,0
29010,note_on,90,0,9,,,,,,,,,8,,,73,0
29040,note_on,30,0,11,,,,,,,,,11,,,42,100
29040,note_on,30,0,7,,,,,,,,,6,,,76,0
29040,note_on,30,0,10,,,,,,,,,10,,,54,100
29040,note_on,0,0,7,,,,,,,,,6,,,81,100
29040,note_on,30,0,8,,,,,,,,,7,,,76,0
29040,note_on,30,0,3,,,,,,,,,2,,,54,100
29040,note_on,0,0,1,,,,,,,,,0,,,81,100
29040,note_on,30,0,9,,,,,,,,,8,,,66,100
29040,note_on,0,0,8,,,,,,,,,7,,,81,100
29040,note_on,120,0,2,,,,,,,,,1,,,71,0
29040,note_on,0,0,2,,,,,,,,,1,,,69,100
29040,note_on,120,0,1,,,,,,,,,0,,,83,0
29070,note_on,30,0,11,,,,,,,,,11,,,42,0
29070,note_on,0,0,11,,,,,,,,,11,,,45,100
29070,note_on,30,0,10,,,,,,,,,10,,,54,0
29070,note_on,0,0,10,,,,,,,,,10,,,57,100
29070,note_on,0,0,3,,,,,,,,,2,,,57,100
29070,note_on,0,0,9,,,,,,,,,8,,,69,100
29070,note_on,30,0,9,,,,,,,,,8,,,66,0
29070,note_on,30,0,3,,,,,,,,,2,,,54,0
29100,note_on,30,0,3,,,,,,,,,2,,,57,0
29100,note_on,30,0,10,,,,,,,,,10,,,57,0
29100,note_on,0,0,10,,,,,,,,,10,,,55,100
29100,note_on,0,0,9,,,,,,,,,8,,,67,100
29100,note_on,30,0,11,,,,,,,,,11,,,45,0
29100,note_on,0,0,11,,,,,,,,,11,,,43,100
29100,note_on,0,0,3,,,,,,,,,2,,,55,100
29100,note_on,30,0,9,,,,,,,,,8,,,69,0
29130,note_on,0,0,10,,,,,,,,,10,,,54,100
29130,note_on,0,0,9,,,,,,,,,8,,,66,100
29130,note_on,0,0,11,,,,,,,,,11,,,42,100
29130,note_on,30,0,11,,,,,,,,,11,,,43,0
29130,note_on,90,0,7,,,,,,,,,6,,,81,0
29130,note_on,30,0,9,,,,,,,,,8,,,67,0
29130,note_on,30,0,10,,,,,,,,,10,,,55,0
29130,note_on,0,0,3,,,,,,,,,2,,,54,100
29130,note_on,30,0,3,,,,,,,,,2,,,55,0
29130,note_on,90,0,8,,,,,,,,,7,,,81,0
29160,note_on,240,0,4,,,,,,,,,3,,,64,0
29160,note_on,0,0,4,,,,,,,,,3,,,67,0
29160,note_on,120,0,1,,,,,,,,,0,,,81,0
29160,note_on,30,0,7,,,,,,,,,6,,,74,100
29160,note_on,0,0,1,,,,,,,,,0,,,86,100
29160,note_on,0,0,1,,,,,,,,,0,,,88,0
29160,note_on,0,0,4,,,,,,,,,3,,,62,100
29160,note_on,0,0,4,,,,,,,,,3,,,66,100
29160,note_on,30,0,11,,,,,,,,,11,,,42,0
29160,note_on,30,0,3,,,,,,,,,2,,,54,0
29160,note_on,0,0,11,,,,,,,,,11,,,47,100
29160,note_on,0,0,2,,,,,,,,,1,,,81,100
29160,note_on,0,0,9,,,,,,,,,8,,,71,100
29160,note_on,30,0,9,,,,,,,,,8,,,66,0
29160,note_on,30,0,10,,,,,,,,,10,,,54,0
29160,note_on,0,0,10,,,,,,,,,10,,,59,100
29160,note_on,0,0,2,,,,,,,,,1,,,74,100
29160,note_on,0,0,2,,,,,,,,,1,,,76,0
29160,note_on,120,0,2,,,,,,,,,1,,,69,0
29160,note_on,30,0,8,,,,,,,,,7,,,74,100
29160,note_on,0,0,3,,,,,,,,,2,,,59,100
29190,note_on,0,0,8,,,,,,,,,7,,,78,100
29190,note_on,30,0,8,,,,,,,,,7,,,74,0
29190,note_on,30,0,7,,,,,,,,,6,,,74,0
29190,note_on,0,0,7,,,,,,,,,6,,,78,100
29220,note_on,0,0,7,,,,,,,,,6,,,76,100
29220,note_on,30,0,7,,,,,,,,,6,,,78,0
29220,note_on,30,0,8,,,,,,,,,7,,,78,0
29220,note_on,0,0,8,,,,,,,,,7,,,76,100
29250,note_on,0,0,7,,,,,,,,,6,,,74,100
29250,note_on,90,0,11,,,,,,,,,11,,,47,0
29250,note_on,90,0,9,,,,,,,,,8,,,71,0
29250,note_on,90,0,10,,,,,,,,,10,,,59,0
29250,note_on,30,0,7,,,,,,,,,6,,,76,0
29250,note_on,30,0,8,,,,,,,,,7,,,76,0
29250,note_on,0,0,8,,,,,,,,,7,,,74,100
29250,note_on,90,0,3,,,,,,,,,2,,,59,0
29280,note_on,30,0,8,,,,,,,,,7,,,74,0
29280,note_on,30,0,10,,,,,,,,,10,,,52,100
29280,note_on,30,0,3,,,,,,,,,2,,,52,100
29280,note_on,0,0,7,,,,,,,,,6,,,79,100
29280,note_on,120,0,2,,,,,,,,,1,,,81,0
29280,note_on,0,0,2,,,,,,,,,1,,,74,0
29280,note_on,0,0,2,,,,,,,,,1,,,83,100
29280,note_on,0,0,2,,,,,,,,,1,,,79,100
29280,note_on,30,0,11,,,,,,,,,11,,,40,100
29280,note_on,30,0,7,,,,,,,,,6,,,74,0
29280,note_on,30,0,9,,,,,,,,,8,,,64,100
29280,note_on,120,0,4,,,,,,,,,3,,,66,0
29280,note_on,120,0,1,,,,,,,,,0,,,91,100
29280,note_on,0,0,4,,,,,,,,,3,,,62,0
29280,note_on,0,0,4,,,,,,,,,3,,,62,100
29280,note_on,0,0,8,,,,,,,,,7,,,79,100
29280,note_on,0,0,4,,,,,,,,,3,,,50,100
29310,note_on,0,0,7,,,,,,,,,6,,,81,100
29310,note_on,30,0,7,,,,,,,,,6,,,79,0
29310,note_on,30,0,8,,,,,,,,,7,,,79,0
29310,note_on,0,0,8,,,,,,,,,7,,,81,100
29340,note_on,0,0,8,,,,,,,,,7,,,83,100
29340,note_on,30,0,7,,,,,,,,,6,,,81,0
29340,note_on,30,0,8,,,,,,,,,7,,,81,0
29340,note_on,0,0,7,,,,,,,,,6,,,83,100
29370,note_on,0,0,8,,,,,,,,,7,,,81,100
29370,note_on,30,0,8,,,,,,,,,7,,,83,0
29370,note_on,30,0,7,,,,,,,,,6,,,83,0
29370,note_on,0,0,7,,,,,,,,,6,,,81,100
29400,note_on,30,0,8,,,,,,,,,7,,,81,0
29400,note_on,0,0,8,,,,,,,,,7,,,79,100
29400,note_on,30,0,7,,,,,,,,,6,,,81,0
29400,note_on,0,0,7,,,,,,,,,6,,,79,100
29430,note_on,0,0,7,,,,,,,,,6,,,78,100
29430,note_on,30,0,7,,,,,,,,,6,,,79,0
29430,note_on,30,0,8,,,,,,,,,7,,,79,0
29430,note_on,0,0,8,,,,,,,,,7,,,78,100
29460,note_on,0,0,3,,,,,,,,,2,,,54,100
29460,note_on,0,0,10,,,,,,,,,10,,,54,100
29460,note_on,180,0,10,,,,,,,,,10,,,52,0
29460,note_on,180,0,11,,,,,,,,,11,,,40,0
29460,note_on,0,0,11,,,,,,,,,11,,,42,100
29460,note_on,0,0,7,,,,,,,,,6,,,76,100
29460,note_on,180,0,9,,,,,,,,,8,,,64,0
29460,note_on,30,0,7,,,,,,,,,6,,,78,0
29460,note_on,0,0,9,,,,,,,,,8,,,66,100
29460,note_on,180,0,3,,,,,,,,,2,,,52,0
29460,note_on,0,0,8,,,,,,,,,7,,,76,100
29460,note_on,30,0,8,,,,,,,,,7,,,78,0
29490,note_on,0,0,3,,,,,,,,,2,,,55,100
29490,note_on,30,0,7,,,,,,,,,6,,,76,0
29490,note_on,30,0,3,,,,,,,,,2,,,54,0
29490,note_on,30,0,8,,,,,,,,,7,,,76,0
29490,note_on,30,0,11,,,,,,,,,11,,,42,0
29490,note_on,0,0,10,,,,,,,,,10,,,57,100
29490,note_on,30,0,10,,,,,,,,,10,,,54,0
29490,note_on,0,0,11,,,,,,,,,11,,,45,100
29490,note_on,0,0,8,,,,,,,,,7,,,74,100
29490,note_on,0,0,7,,,,,,,,,6,,,74,100
29490,note_on,0,0,9,,,,,,,,,8,,,69,100
29490,note_on,30,0,9,,,,,,,,,8,,,66,0
29520,note_on,0,0,5,,,,,,,,,4,,,69,100
29520,note_on,840,0,6,,,,,,,,,5,,,45,100
29520,note_on,0,0,9,,,,,,,,,8,,,57,100
29520,note_on,30,0,9,,,,,,,,,8,,,69,0
29520,note_on,0,0,4,,,,,,,,,3,,,50,0
29520,note_on,840,0,5,,,,,,,,,4,,,57,100
29520,note_on,0,0,4,,,,,,,,,3,,,57,100
29520,note_on,0,0,4,,,,,,,,,3,,,64,100
29520,note_on,30,0,10,,,,,,,,,10,,,57,0
29520,note_on,0,0,10,,,,,,,,,10,,,57,100
29520,note_on,240,0,4,,,,,,,,,3,,,62,0
29520,note_on,30,0,7,,,,,,,,,6,,,74,0
29520,note_on,240,0,1,,,,,,,,,0,,,86,0
29520,note_on,30,0,8,,,,,,,,,7,,,74,0
29520,note_on,30,0,3,,,,,,,,,2,,,55,0
29520,note_on,0,0,3,,,,,,,,,2,,,57,100
29520,note_on,0,0,8,,,,,,,,,7,,,73,100
29520,note_on,240,0,2,,,,,,,,,1,,,79,0
29520,note_on,0,0,2,,,,,,,,,1,,,83,0
29520,note_on,0,0,7,,,,,,,,,6,,,73,100
29520,note_on,0,0,11,,,,,,,,,11,,,45,100
29520,note_on,30,0,11,,,,,,,,,11,,,45,0
29520,note_on,0,0,1,,,,,,,,,0,,,85,100
29520,note_on,0,0,2,,,,,,,,,1,,,81,100
29550,note_on,30,0,8,,,,,,,,,7,,,73,0
29550,note_on,0,0,8,,,,,,,,,7,,,74,100
29550,note_on,0,0,7,,,,,,,,,6,,,74,100
29550,note_on,30,0,7,,,,,,,,,6,,,73,0
29580,note_on,0,0,8,,,,,,,,,7,,,76,100
29580,note_on,30,0,8,,,,,,,,,7,,,74,0
29580,note_on,30,0,7,,,,,,,,,6,,,74,0
29580,note_on,0,0,7,,,,,,,,,6,,,76,100
29610,note_on,30,0,8,,,,,,,,,7,,,76,0
29610,note_on,0,0,7,,,,,,,,,6,,,74,100
29610,note_on,0,0,8,,,,,,,,,7,,,74,100
29610,note_on,30,0,7,,,,,,,,,6,,,76,0
29640,note_on,0,0,8,,,,,,,,,7,,,73,100
29640,note_on,30,0,7,,,,,,,,,6,,,74,0
29640,note_on,0,0,7,,,,,,,,,6,,,73,100
29640,note_on,30,0,8,,,,,,,,,7,,,74,0
29670,note_on,0,0,8,,,,,,,,,7,,,71,100
29670,note_on,30,0,8,,,,,,,,,7,,,73,0
29670,note_on,0,0,7,,,,,,,,,6,,,71,100
29670,note_on,30,0,7,,,,,,,,,6,,,73,0
29700,note_on,0,0,9,,,,,,,,,8,,,59,100
29700,note_on,180,0,11,,,,,,,,,11,,,45,0
29700,note_on,0,0,11,,,,,,,,,11,,,47,100
29700,note_on,0,0,2,,,,,,,,,1,,,79,100
29700,note_on,180,0,2,,,,,,,,,1,,,81,0
29700,note_on,180,0,9,,,,,,,,,8,,,57,0
29700,note_on,0,0,8,,,,,,,,,7,,,69,100
29700,note_on,180,0,1,,,,,,,,,0,,,85,0
29700,note_on,0,0,1,,,,,,,,,0,,,88,100
29700,note_on,30,0,7,,,,,,,,,6,,,71,0
29700,note_on,0,0,7,,,,,,,,,6,,,69,100
29700,note_on,180,0,3,,,,,,,,,2,,,57,0
29700,note_on,0,0,10,,,,,,,,,10,,,59,100
29700,note_on,0,0,3,,,,,,,,,2,,,59,100
29700,note_on,30,0,8,,,,,,,,,7,,,71,0
29700,note_on,180,0,10,,,,,,,,,10,,,57,0
29730,note_on,0,0,11,,,,,,,,,11,,,49,100
29730,note_on,30,0,11,,,,,,,,,11,,,47,0
29730,note_on,30,0,3,,,,,,,,,2,,,59,0
29730,note_on,0,0,8,,,,,,,,,7,,,67,100
29730,note_on,30,0,9,,,,,,,,,8,,,59,0
29730,note_on,0,0,9,,,,,,,,,8,,,61,100
29730,note_on,30,0,8,,,,,,,,,7,,,69,0
29730,note_on,0,0,3,,,,,,,,,2,,,61,100
29730,note_on,30,0,7,,,,,,,,,6,,,69,0
29730,note_on,0,0,7,,,,,,,,,6,,,67,100
29730,note_on,30,0,10,,,,,,,,,10,,,59,0
29730,note_on,0,0,10,,,,,,,,,10,,,61,100
29760,note_on,30,0,11,,,,,,,,,11,,,49,0
29760,note_on,60,0,2,,,,,,,,,1,,,79,0
29760,note_on,0,0,2,,,,,,,,,1,,,74,100
29760,note_on,0,0,2,,,,,,,,,1,,,78,100
29760,note_on,240,0,6,,,,,,,,,5,,,45,0
29760,note_on,0,0,6,,,,,,,,,5,,,50,100
29760,note_on,0,0,10,,,,,,,,,10,,,62,100
29760,note_on,0,0,5,,,,,,,,,4,,,69,100
29760,note_on,30,0,10,,,,,,,,,10,,,61,0
29760,note_on,0,0,3,,,,,,,,,2,,,62,100
29760,note_on,30,0,3,,,,,,,,,2,,,61,0
29760,note_on,0,0,11,,,,,,,,,11,,,50,100
29760,note_on,0,0,5,,,,,,,,,4,,,62,100
29760,note_on,240,0,5,,,,,,,,,4,,,69,0
29760,note_on,30,0,9,,,,,,,,,8,,,61,0
29760,note_on,240,0,4,,,,,,,,,3,,,64,0
29760,note_on,0,0,4,,,,,,,,,3,,,57,0
29760,note_on,0,0,4,,,,,,,,,3,,,66,100
29760,note_on,0,0,4,,,,,,,,,3,,,62,100
29760,note_on,0,0,8,,,,,,,,,7,,,66,100
29760,note_on,30,0,8,,,,,,,,,7,,,67,0
29760,note_on,60,0,1,,,,,,,,,0,,,88,0
29760,note_on,0,0,1,,,,,,,,,0,,,91,0
29760,note_on,0,0,1,,,,,,,,,0,,,90,100
29760,note_on,0,0,1,,,,,,,,,0,,,86,100
29760,note_on,0,0,7,,,,,,,,,6,,,66,100
29760,note_on,30,0,7,,,,,,,,,6,,,67,0
29760,note_on,0,0,5,,,,,,,,,4,,,57,0
29760,note_on,0,0,9,,,,,,,,,8,,,62,100
29790,note_on,0,0,8,,,,,,,,,7,,,69,100
29790,note_on,30,0,8,,,,,,,,,7,,,66,0
29790,note_on,30,0,7,,,,,,,,,6,,,66,0
29790,note_on,0,0,7,,,,,,,,,6,,,69,100
29820,note_on,30,0,7,,,,,,,,,6,,,69,0
29820,note_on,0,0,7,,,,,,,,,6,,,74,100
29820,note_on,30,0,8,,,,,,,,,7,,,69,0
29820,note_on,0,0,8,,,,,,,,,7,,,74,100
29850,note_on,30,0,7,,,,,,,,,6,,,74,0
29850,note_on,0,0,7,,,,,,,,,6,,,78,100
29850,note_on,30,0,8,,,,,,,,,7,,,74,0
29850,note_on,0,0,8,,,,,,,,,7,,,78,100
29880,note_on,120,0,3,,,,,,,,,2,,,62,0
29880,note_on,120,0,9,,,,,,,,,8,,,62,0
29880,note_on,30,0,8,,,,,,,,,7,,,78,0
29880,note_on,30,0,7,,,,,,,,,6,,,78,0
29880,note_on,0,0,4,,,,,,,,,3,,,66,0
29880,note_on,120,0,4,,,,,,,,,3,,,62,0
29880,note_on,0,0,7,,,,,,,,,6,,,81,100
29880,note_on,0,0,8,,,,,,,,,7,,,81,100
29880,note_on,120,0,11,,,,,,,,,11,,,50,0
29880,note_on,120,0,10,,,,,,,,,10,,,62,0
29880,note_on,120,0,1,,,,,,,,,0,,,86,0
29880,note_on,0,0,2,,,,,,,,,1,,,74,0
29880,note_on,120,0,2,,,,,,,,,1,,,78,0
29880,note_on,0,0,5,,,,,,,,,4,,,62,0
29880,note_on,120,0,5,,,,,,,,,4,,,69,0
29880,note_on,0,0,1,,,,,,,,,0,,,90,0
29916,note_on,36,0,7,,,,,,,,,6,,,81,0
29916,note_on,36,0,8,,,,,,,,,7,,,81,0
29940,note_on,60,0,3,,,,,,,,,2,,,50,100
29940,note_on,24,0,8,,,,,,,,,7,,,81,100
29940,note_on,0,0,3,,,,,,,,,2,,,54,100
29940,note_on,60,0,2,,,,,,,,,1,,,74,100
29940,note_on,24,0,7,,,,,,,,,6,,,81,100
29940,note_on,60,0,4,,,,,,,,,3,,,62,100
29940,note_on,0,0,4,,,,,,,,,3,,,66,100
29940,note_on,0,0,2,,,,,,,,,1,,,78,100
29940,note_on,60,0,1,,,,,,,,,0,,,90,100
29940,note_on,0,0,1,,,,,,,,,0,,,86,100
29976,note_on,36,0,8,,,,,,,,,7,,,81,0
29976,note_on,36,0,7,,,,,,,,,6,,,81,0
30000,note_on,60,0,1,,,,,,,,,0,,,86,0
30000,note_on,60,0,3,,,,,,,,,2,,,54,0
30000,note_on,0,0,1,,,,,,,,,0,,,88,100
30000,note_on,0,0,1,,,,,,,,,0,,,91,100
30000,note_on,0,0,3,,,,,,,,,2,,,50,0
30000,note_on,60,0,4,,,,,,,,,3,,,66,0
30000,note_on,0,0,3,,,,,,,,,2,,,52,100
30000,note_on,0,0,3,,,,,,,,,2,,,55,100
30000,note_on,0,0,1,,,,,,,,,0,,,90,0
30000,note_on,0,0,4,,,,,,,,,3,,,62,0
30000,note_on,240,0,6,,,,,,,,,5,,,50,0
30000,note_on,0,0,4,,,,,,,,,3,,,64,100
30000,note_on,0,0,2,,,,,,,,,1,,,76,100
30000,note_on,0,0,2,,,,,,,,,1,,,79,100
30000,note_on,0,0,2,,,,,,,,,1,,,74,0
30000,note_on,60,0,2,,,,,,,,,1,,,78,0
30000,note_on,0,0,4,,,,,,,,,3,,,67,100
30000,note_on,24,0,7,,,,,,,,,6,,,81,100
30000,note_on,24,0,8,,,,,,,,,7,,,81,100
30036,note_on,36,0,7,,,,,,,,,6,,,81,0
30036,note_on,36,0,8,,,,,,,,,7,,,81,0
30060,note_on,0,0,1,,,,,,,,,0,,,88,0
30060,note_on,0,0,2,,,,,,,,,1,,,74,100
30060,note_on,0,0,2,,,,,,,,,1,,,78,100
30060,note_on,60,0,4,,,,,,,,,3,,,64,0
30060,note_on,0,0,4,,,,,,,,,3,,,67,0
30060,note_on,0,0,4,,,,,,,,,3,,,66,100
30060,note_on,0,0,4,,,,,,,,,3,,,62,100
30060,note_on,60,0,1,,,,,,,,,0,,,91,0
30060,note_on,24,0,7,,,,,,,,,6,,,81,100
30060,note_on,60,0,2,,,,,,,,,1,,,76,0
30060,note_on,60,0,3,,,,,,,,,2,,,52,0
30060,note_on,24,0,8,,,,,,,,,7,,,81,100
30060,note_on,0,0,2,,,,,,,,,1,,,79,0
30060,note_on,0,0,1,,,,,,,,,0,,,90,100
30060,note_on,0,0,3,,,,,,,,,2,,,55,0
30060,note_on,0,0,3,,,,,,,,,2,,,50,100
30060,note_on,0,0,3,,,,,,,,,2,,,54,100
30060,note_on,0,0,1,,,,,,,,,0,,,86,100
30096,note_on,36,0,7,,,,,,,,,6,,,81,0
30096,note_on,36,0,8,,,,,,,,,7,,,81,0
30120,note_on,0,0,3,,,,,,,,,2,,,50,0
30120,note_on,60,0,3,,,,,,,,,2,,,54,0
30120,note_on,0,0,2,,,,,,,,,1,,,79,100
30120,note_on,60,0,2,,,,,,,,,1,,,78,0
30120,note_on,0,0,2,,,,,,,,,1,,,74,0
30120,note_on,0,0,2,,,,,,,,,1,,,76,100
30120,note_on,240,0,11,,,,,,,,,11,,,45,100
30120,note_on,120,0,6,,,,,,,,,5,,,45,100
30120,note_on,0,0,5,,,,,,,,,4,,,69,100
30120,note_on,240,0,5,,,,,,,,,4,,,57,100
30120,note_on,24,0,8,,,,,,,,,7,,,81,100
30120,note_on,0,0,3,,,,,,,,,2,,,55,100
30120,note_on,0,0,4,,,,,,,,,3,,,64,100
30120,note_on,0,0,4,,,,,,,,,3,,,67,100
30120,note_on,0,0,4,,,,,,,,,3,,,66,0
30120,note_on,60,0,4,,,,,,,,,3,,,62,0
30120,note_on,240,0,9,,,,,,,,,8,,,69,100
30120,note_on,0,0,3,,,,,,,,,2,,,52,100
30120,note_on,240,0,10,,,,,,,,,10,,,57,100
30120,note_on,60,0,1,,,,,,,,,0,,,90,0
30120,note_on,0,0,1,,,,,,,,,0,,,86,0
30120,note_on,0,0,1,,,,,,,,,0,,,91,100
30120,note_on,24,0,7,,,,,,,,,6,,,81,100
30120,note_on,0,0,1,,,,,,,,,0,,,88,100
30156,note_on,36,0,8,,,,,,,,,7,,,81,0
30156,note_on,36,0,7,,,,,,,,,6,,,81,0
30180,note_on,60,0,1,,,,,,,,,0,,,91,0
30180,note_on,0,0,3,,,,,,,,,2,,,52,100
30180,note_on,0,0,3,,,,,,,,,2,,,49,100
30180,note_on,60,0,3,,,,,,,,,2,,,52,0
30180,note_on,24,0,7,,,,,,,,,6,,,81,100
30180,note_on,0,0,1,,,,,,,,,0,,,88,0
30180,note_on,60,0,2,,,,,,,,,1,,,79,0
30180,note_on,0,0,2,,,,,,,,,1,,,76,0
30180,note_on,24,0,8,,,,,,,,,7,,,81,100
30180,note_on,0,0,3,,,,,,,,,2,,,55,0
30180,note_on,0,0,2,,,,,,,,,1,,,73,100
30180,note_on,0,0,2,,,,,,,,,1,,,76,100
30180,note_on,0,0,4,,,,,,,,,3,,,64,100
30180,note_on,0,0,1,,,,,,,,,0,,,85,100
30180,note_on,0,0,1,,,,,,,,,0,,,88,100
30180,note_on,0,0,4,,,,,,,,,3,,,67,0
30180,note_on,60,0,4,,,,,,,,,3,,,64,0
30180,note_on,0,0,4,,,,,,,,,3,,,57,100
30216,note_on,36,0,8,,,,,,,,,7,,,81,0
30216,note_on,36,0,7,,,,,,,,,6,,,81,0
30240,note_on,60,0,4,,,,,,,,,3,,,57,0
30240,note_on,60,0,1,,,,,,,,,0,,,88,0
30240,note_on,0,0,1,,,,,,,,,0,,,85,0
30240,note_on,0,0,1,,,,,,,,,0,,,86,100
30240,note_on,24,0,7,,,,,,,,,6,,,81,100
30240,note_on,120,0,6,,,,,,,,,5,,,45,0
30240,note_on,0,0,6,,,,,,,,,5,,,50,100
30240,note_on,0,0,10,,,,,,,,,10,,,50,100
30240,note_on,120,0,9,,,,,,,,,8,,,69,0
30240,note_on,0,0,9,,,,,,,,,8,,,62,100
30240,note_on,120,0,10,,,,,,,,,10,,,57,0
30240,note_on,0,0,4,,,,,,,,,3,,,62,100
30240,note_on,0,0,1,,,,,,,,,0,,,90,100
30240,note_on,0,0,4,,,,,,,,,3,,,64,0
30240,note_on,0,0,4,,,,,,,,,3,,,66,100
30240,note_on,24,0,8,,,,,,,,,7,,,81,100
30240,note_on,0,0,2,,,,,,,,,1,,,74,100
30240,note_on,0,0,2,,,,,,,,,1,,,78,100
30240,note_on,0,0,5,,,,,,,,,4,,,62,100
30240,note_on,0,0,5,,,,,,,,,4,,,69,100
30240,note_on,60,0,2,,,,,,,,,1,,,76,0
30240,note_on,0,0,3,,,,,,,,,2,,,54,100
30240,note_on,0,0,3,,,,,,,,,2,,,50,100
30240,note_on,0,0,11,,,,,,,,,11,,,38,100
30240,note_on,60,0,3,,,,,,,,,2,,,52,0
30240,note_on,0,0,5,,,,,,,,,4,,,57,0
30240,note_on,120,0,5,,,,,,,,,4,,,69,0
30240,note_on,0,0,3,,,,,,,,,2,,,49,0
30240,note_on,120,0,11,,,,,,,,,11,,,45,0
30240,note_on,0,0,2,,,,,,,,,1,,,73,0
30270,note_on,30,0,8,,,,,,,,,7,,,81,0
30270,note_on,0,0,8,,,,,,,,,7,,,78,100
30270,note_on,30,0,7,,,,,,,,,6,,,81,0
30270,note_on,0,0,7,,,,,,,,,6,,,78,100
30300,note_on,0,0,8,,,,,,,,,7,,,74,100
30300,note_on,30,0,8,,,,,,,,,7,,,78,0
30300,note_on,0,0,7,,,,,,,,,6,,,74,100
30300,note_on,30,0,7,,,,,,,,,6,,,78,0
30330,note_on,0,0,7,,,,,,,,,6,,,78,100
30330,note_on,30,0,8,,,,,,,,,7,,,74,0
30330,note_on,0,0,8,,,,,,,,,7,,,78,100
30330,note_on,30,0,7,,,,,,,,,6,,,74,0
30360,note_on,120,0,6,,,,,,,,,5,,,50,0
30360,note_on,0,0,2,,,,,,,,,1,,,74,0
30360,note_on,30,0,8,,,,,,,,,7,,,78,0
30360,note_on,120,0,2,,,,,,,,,1,,,78,0
30360,note_on,0,0,8,,,,,,,,,7,,,81,100
30360,note_on,120,0,1,,,,,,,,,0,,,90,0
30360,note_on,0,0,3,,,,,,,,,2,,,50,0
30360,note_on,0,0,5,,,,,,,,,4,,,69,0
30360,note_on,30,0,7,,,,,,,,,6,,,78,0
30360,note_on,120,0,11,,,,,,,,,11,,,38,0
30360,note_on,120,0,9,,,,,,,,,8,,,62,0
30360,note_on,120,0,10,,,,,,,,,10,,,50,0
30360,note_on,0,0,4,,,,,,,,,3,,,62,0
30360,note_on,120,0,3,,,,,,,,,2,,,54,0
30360,note_on,120,0,5,,,,,,,,,4,,,62,0
30360,note_on,0,0,1,,,,,,,,,0,,,86,0
30360,note_on,120,0,4,,,,,,,,,3,,,66,0
30360,note_on,0,0,7,,,,,,,,,6,,,81,100
30396,note_on,36,0,8,,,,,,,,,7,,,81,0
30396,note_on,36,0,7,,,,,,,,,6,,,81,0
30420,note_on,60,0,2,,,,,,,,,1,,,78,100
30420,note_on,0,0,2,,,,,,,,,1,,,74,100
30420,note_on,60,0,4,,,,,,,,,3,,,62,100
30420,note_on,0,0,4,,,,,,,,,3,,,66,100
30420,note_on,24,0,7,,,,,,,,,6,,,81,100
30420,note_on,24,0,8,,,,,,,,,7,,,81,100
30420,note_on,60,0,1,,,,,,,,,0,,,90,100
30420,note_on,60,0,3,,,,,,,,,2,,,54,100
30420,note_on,0,0,3,,,,,,,,,2,,,50,100
30420,note_on,0,0,1,,,,,,,,,0,,,86,100
30456,note_on,36,0,8,,,,,,,,,7,,,81,0
30456,note_on,36,0,7,,,,,,,,,6,,,81,0
30480,note_on,0,0,2,,,,,,,,,1,,,76,100
30480,note_on,0,0,3,,,,,,,,,2,,,52,100
30480,note_on,0,0,3,,,,,,,,,2,,,55,100
30480,note_on,60,0,4,,,,,,,,,3,,,66,0
30480,note_on,0,0,4,,,,,,,,,3,,,62,0
30480,note_on,60,0,3,,,,,,,,,2,,,50,0
30480,note_on,0,0,3,,,,,,,,,2,,,54,0
30480,note_on,24,0,7,,,,,,,,,6,,,81,100
30480,note_on,0,0,1,,,,,,,,,0,,,88,100
30480,note_on,0,0,1,,,,,,,,,0,,,91,100
30480,note_on,0,0,4,,,,,,,,,3,,,67,100
30480,note_on,0,0,2,,,,,,,,,1,,,79,100
30480,note_on,0,0,4,,,,,,,,,3,,,64,100
30480,note_on,24,0,8,,,,,,,,,7,,,81,100
30480,note_on,0,0,2,,,,,,,,,1,,,78,0
30480,note_on,60,0,2,,,,,,,,,1,,,74,0
30480,note_on,60,0,1,,,,,,,,,0,,,86,0
30480,note_on,0,0,1,,,,,,,,,0,,,90,0
30516,note_on,36,0,8,,,,,,,,,7,,,81,0
30516,note_on,36,0,7,,,,,,,,,6,,,81,0
30540,note_on,0,0,1,,,,,,,,,0,,,86,100
30540,note_on,0,0,1,,,,,,,,,0,,,88,0
30540,note_on,60,0,1,,,,,,,,,0,,,91,0
30540,note_on,60,0,2,,,,,,,,,1,,,79,0
30540,note_on,0,0,2,,,,,,,,,1,,,76,0
30540,note_on,0,0,1,,,,,,,,,0,,,90,100
30540,note_on,0,0,2,,,,,,,,,1,,,74,100
30540,note_on,0,0,2,,,,,,,,,1,,,78,100
30540,note_on,24,0,7,,,,,,,,,6,,,81,100
30540,note_on,24,0,8,,,,,,,,,7,,,81,100
30540,note_on,0,0,3,,,,,,,,,2,,,55,0
30540,note_on,0,0,4,,,,,,,,,3,,,67,0
30540,note_on,60,0,3,,,,,,,,,2,,,52,0
30540,note_on,0,0,3,,,,,,,,,2,,,50,100
30540,note_on,0,0,3,,,,,,,,,2,,,54,100
30540,note_on,0,0,4,,,,,,,,,3,,,66,100
30540,note_on,0,0,4,,,,,,,,,3,,,62,100
30540,note_on,60,0,4,,,,,,,,,3,,,64,0
30576,note_on,36,0,8,,,,,,,,,7,,,81,0
30576,note_on,36,0,7,,,,,,,,,6,,,81,0
30600,note_on,60,0,3,,,,,,,,,2,,,54,0
30600,note_on,0,0,3,,,,,,,,,2,,,50,0
30600,note_on,0,0,2,,,,,,,,,1,,,74,0
30600,note_on,60,0,1,,,,,,,,,0,,,90,0
30600,note_on,60,0,2,,,,,,,,,1,,,78,0
30600,note_on,24,0,7,,,,,,,,,6,,,81,100
30600,note_on,0,0,1,,,,,,,,,0,,,86,0
30600,note_on,0,0,1,,,,,,,,,0,,,88,100
30600,note_on,0,0,1,,,,,,,,,0,,,91,100
30600,note_on,0,0,2,,,,,,,,,1,,,79,100
30600,note_on,0,0,2,,,,,,,,,1,,,76,100
30600,note_on,240,0,11,,,,,,,,,11,,,45,100
30600,note_on,240,0,6,,,,,,,,,5,,,45,100
30600,note_on,240,0,9,,,,,,,,,8,,,69,100
30600,note_on,0,0,4,,,,,,,,,3,,,62,0
30600,note_on,0,0,4,,,,,,,,,3,,,64,100
30600,note_on,0,0,3,,,,,,,,,2,,,55,100
30600,note_on,24,0,8,,,,,,,,,7,,,81,100
30600,note_on,0,0,3,,,,,,,,,2,,,52,100
30600,note_on,0,0,4,,,,,,,,,3,,,67,100
30600,note_on,240,0,10,,,,,,,,,10,,,57,100
30600,note_on,60,0,4,,,,,,,,,3,,,66,0
30600,note_on,0,0,5,,,,,,,,,4,,,69,100
30600,note_on,240,0,5,,,,,,,,,4,,,57,100
30636,note_on,36,0,7,,,,,,,,,6,,,81,0
30636,note_on,36,0,8,,,,,,,,,7,,,81,0
30660,note_on,24,0,8,,,,,,,,,7,,,81,100
30660,note_on,60,0,4,,,,,,,,,3,,,67,0
30660,note_on,0,0,4,,,,,,,,,3,,,64,0
30660,note_on,24,0,7,,,,,,,,,6,,,81,100
30660,note_on,0,0,1,,,,,,,,,0,,,88,100
30660,note_on,0,0,1,,,,,,,,,0,,,85,100
30660,note_on,0,0,1,,,,,,,,,0,,,88,0
30660,note_on,0,0,2,,,,,,,,,1,,,76,100
30660,note_on,0,0,4,,,,,,,,,3,,,57,100
30660,note_on,0,0,4,,,,,,,,,3,,,64,100
30660,note_on,0,0,2,,,,,,,,,1,,,73,100
30660,note_on,60,0,3,,,,,,,,,2,,,52,0
30660,note_on,0,0,3,,,,,,,,,2,,,55,0
30660,note_on,0,0,3,,,,,,,,,2,,,49,100
30660,note_on,0,0,3,,,,,,,,,2,,,52,100
30660,note_on,0,0,2,,,,,,,,,1,,,76,0
30660,note_on,60,0,2,,,,,,,,,1,,,79,0
30660,note_on,60,0,1,,,,,,,,,0,,,91,0
30696,note_on,36,0,8,,,,,,,,,7,,,81,0
30696,note_on,36,0,7,,,,,,,,,6,,,81,0
30720,note_on,0,0,3,,,,,,,,,2,,,54,100
30720,note_on,0,0,3,,,,,,,,,2,,,49,0
30720,note_on,60,0,3,,,,,,,,,2,,,52,0
30720,note_on,0,0,2,,,,,,,,,1,,,74,100
30720,note_on,0,0,5,,,,,,,,,4,,,62,100
30720,note_on,0,0,9,,,,,,,,,8,,,62,100
30720,note_on,120,0,9,,,,,,,,,8,,,69,0
30720,note_on,0,0,2,,,,,,,,,1,,,78,100
30720,note_on,0,0,2,,,,,,,,,1,,,73,0
30720,note_on,60,0,2,,,,,,,,,1,,,76,0
30720,note_on,0,0,6,,,,,,,,,5,,,50,100
30720,note_on,120,0,6,,,,,,,,,5,,,45,0
30720,note_on,0,0,3,,,,,,,,,2,,,50,100
30720,note_on,0,0,5,,,,,,,,,4,,,57,0
30720,note_on,24,0,8,,,,,,,,,7,,,81,100
30720,note_on,0,0,1,,,,,,,,,0,,,85,0
30720,note_on,120,0,5,,,,,,,,,4,,,69,0
30720,note_on,0,0,4,,,,,,,,,3,,,66,100
30720,note_on,0,0,4,,,,,,,,,3,,,62,100
30720,note_on,0,0,4,,,,,,,,,3,,,57,0
30720,note_on,60,0,4,,,,,,,,,3,,,64,0
30720,note_on,60,0,1,,,,,,,,,0,,,88,0
30720,note_on,0,0,1,,,,,,,,,0,,,90,100
30720,note_on,0,0,1,,,,,,,,,0,,,86,100
30720,note_on,120,0,11,,,,,,,,,11,,,45,0
30720,note_on,0,0,11,,,,,,,,,11,,,38,100
30720,note_on,120,0,10,,,,,,,,,10,,,57,0
30720,note_on,24,0,7,,,,,,,,,6,,,81,100
30720,note_on,0,0,10,,,,,,,,,10,,,50,100
30720,note_on,0,0,5,,,,,,,,,4,,,69,100
30750,note_on,30,0,8,,,,,,,,,7,,,81,0
30750,note_on,0,0,8,,,,,,,,,7,,,86,100
30750,note_on,0,0,7,,,,,,,,,6,,,86,100
30750,note_on,30,0,7,,,,,,,,,6,,,81,0
30780,note_on,30,0,8,,,,,,,,,7,,,86,0
30780,note_on,0,0,7,,,,,,,,,6,,,85,100
30780,note_on,30,0,7,,,,,,,,,6,,,86,0
30780,note_on,0,0,8,,,,,,,,,7,,,85,100
30810,note_on,0,0,8,,,,,,,,,7,,,83,100
30810,note_on,0,0,7,,,,,,,,,6,,,83,100
30810,note_on,30,0,7,,,,,,,,,6,,,85,0
30810,note_on,30,0,8,,,,,,,,,7,,,85,0
30840,note_on,0,0,5,,,,,,,,,4,,,62,0
30840,note_on,120,0,5,,,,,,,,,4,,,69,0
30840,note_on,120,0,4,,,,,,,,,3,,,66,0
30840,note_on,0,0,2,,,,,,,,,1,,,78,0
30840,note_on,0,0,8,,,,,,,,,7,,,81,100
30840,note_on,30,0,8,,,,,,,,,7,,,83,0
30840,note_on,0,0,1,,,,,,,,,0,,,90,0
30840,note_on,120,0,1,,,,,,,,,0,,,86,0
30840,note_on,120,0,9,,,,,,,,,8,,,62,0
30840,note_on,120,0,6,,,,,,,,,5,,,50,0
30840,note_on,0,0,4,,,,,,,,,3,,,62,0
30840,note_on,120,0,10,,,,,,,,,10,,,50,0
30840,note_on,120,0,3,,,,,,,,,2,,,50,0
30840,note_on,120,0,2,,,,,,,,,1,,,74,0
30840,note_on,0,0,3,,,,,,,,,2,,,54,0
30840,note_on,30,0,7,,,,,,,,,6,,,83,0
30840,note_on,0,0,7,,,,,,,,,6,,,81,100
30840,note_on,120,0,11,,,,,,,,,11,,,38,0
30876,note_on,36,0,8,,,,,,,,,7,,,81,0
30876,note_on,36,0,7,,,,,,,,,6,,,81,0
30900,note_on,60,0,3,,,,,,,,,2,,,50,100
30900,note_on,60,0,4,,,,,,,,,3,,,62,100
30900,note_on,0,0,4,,,,,,,,,3,,,66,100
30900,note_on,24,0,7,,,,,,,,,6,,,81,100
30900,note_on,0,0,3,,,,,,,,,2,,,54,100
30900,note_on,0,0,1,,,,,,,,,0,,,90,100
30900,note_on,0,0,2,,,,,,,,,1,,,78,100
30900,note_on,60,0,2,,,,,,,,,1,,,74,100
30900,note_on,24,0,8,,,,,,,,,7,,,81,100
30900,note_on,60,0,1,,,,,,,,,0,,,86,100
30936,note_on,36,0,8,,,,,,,,,7,,,81,0
30936,note_on,36,0,7,,,,,,,,,6,,,81,0
30960,note_on,60,0,2,,,,,,,,,1,,,78,0
30960,note_on,0,0,2,,,,,,,,,1,,,74,0
30960,note_on,0,0,2,,,,,,,,,1,,,76,100
30960,note_on,0,0,1,,,,,,,,,0,,,91,100
30960,note_on,0,0,1,,,,,,,,,0,,,88,100
30960,note_on,0,0,1,,,,,,,,,0,,,86,0
30960,note_on,60,0,4,,,,,,,,,3,,,66,0
30960,note_on,0,0,4,,,,,,,,,3,,,62,0
30960,note_on,0,0,4,,,,,,,,,3,,,67,100
30960,note_on,0,0,4,,,,,,,,,3,,,64,100
30960,note_on,60,0,3,,,,,,,,,2,,,54,0
30960,note_on,0,0,3,,,,,,,,,2,,,50,0
30960,note_on,0,0,3,,,,,,,,,2,,,52,100
30960,note_on,0,0,3,,,,,,,,,2,,,55,100
30960,note_on,24,0,8,,,,,,,,,7,,,81,100
30960,note_on,24,0,7,,,,,,,,,6,,,81,100
30960,note_on,0,0,2,,,,,,,,,1,,,79,100
30960,note_on,60,0,1,,,,,,,,,0,,,90,0
30996,note_on,36,0,8,,,,,,,,,7,,,81,0
30996,note_on,36,0,7,,,,,,,,,6,,,81,0
31020,note_on,0,0,3,,,,,,,,,2,,,50,100
31020,note_on,60,0,2,,,,,,,,,1,,,79,0
31020,note_on,0,0,1,,,,,,,,,0,,,90,100
31020,note_on,0,0,2,,,,,,,,,1,,,74,100
31020,note_on,0,0,2,,,,,,,,,1,,,78,100
31020,note_on,0,0,2,,,,,,,,,1,,,76,0
31020,note_on,0,0,3,,,,,,,,,2,,,52,0
31020,note_on,0,0,3,,,,,,,,,2,,,54,100
31020,note_on,60,0,1,,,,,,,,,0,,,91,0
31020,note_on,60,0,3,,,,,,,,,2,,,55,0
31020,note_on,24,0,7,,,,,,,,,6,,,81,100
31020,note_on,24,0,8,,,,,,,,,7,,,81,100
31020,note_on,60,0,4,,,,,,,,,3,,,64,0
31020,note_on,0,0,4,,,,,,,,,3,,,67,0
31020,note_on,0,0,4,,,,,,,,,3,,,62,100
31020,note_on,0,0,4,,,,,,,,,3,,,66,100
31020,note_on,0,0,1,,,,,,,,,0,,,86,100
31020,note_on,0,0,1,,,,,,,,,0,,,88,0
31056,note_on,36,0,7,,,,,,,,,6,,,81,0
31056,note_on,36,0,8,,,,,,,,,7,,,81,0
31080,note_on,0,0,3,,,,,,,,,2,,,50,0
31080,note_on,0,0,3,,,,,,,,,2,,,52,100
31080,note_on,0,0,3,,,,,,,,,2,,,55,100
31080,note_on,60,0,3,,,,,,,,,2,,,54,0
31080,note_on,240,0,10,,,,,,,,,10,,,57,100
31080,note_on,0,0,4,,,,,,,,,3,,,64,100
31080,note_on,240,0,6,,,,,,,,,5,,,45,100
31080,note_on,240,0,5,,,,,,,,,4,,,57,100
31080,note_on,240,0,11,,,,,,,,,11,,,45,100
31080,note_on,60,0,4,,,,,,,,,3,,,66,0
31080,note_on,0,0,2,,,,,,,,,1,,,78,0
31080,note_on,0,0,2,,,,,,,,,1,,,76,100
31080,note_on,0,0,2,,,,,,,,,1,,,79,100
31080,note_on,0,0,5,,,,,,,,,4,,,69,100
31080,note_on,24,0,7,,,,,,,,,6,,,81,100
31080,note_on,60,0,1,,,,,,,,,0,,,90,0
31080,note_on,24,0,8,,,,,,,,,7,,,81,100
31080,note_on,0,0,1,,,,,,,,,0,,,86,0
31080,note_on,0,0,1,,,,,,,,,0,,,88,100
31080,note_on,0,0,1,,,,,,,,,0,,,91,100
31080,note_on,0,0,4,,,,,,,,,3,,,67,100
31080,note_on,0,0,4,,,,,,,,,3,,,62,0
31080,note_on,240,0,9,,,,,,,,,8,,,69,100
31080,note_on,60,0,2,,,,,,,,,1,,,74,0
31116,note_on,36,0,8,,,,,,,,,7,,,81,0
31116,note_on,36,0,7,,,,,,,,,6,,,81,0
31140,note_on,60,0,2,,,,,,,,,1,,,79,0
31140,note_on,0,0,2,,,,,,,,,1,,,76,0
31140,note_on,0,0,4,,,,,,,,,3,,,67,0
31140,note_on,0,0,4,,,,,,,,,3,,,57,100
31140,note_on,0,0,4,,,,,,,,,3,,,64,100
31140,note_on,0,0,2,,,,,,,,,1,,,76,100
31140,note_on,60,0,4,,,,,,,,,3,,,64,0
31140,note_on,0,0,1,,,,,,,,,0,,,85,100
31140,note_on,0,0,1,,,,,,,,,0,,,88,100
31140,note_on,0,0,2,,,,,,,,,1,,,73,100
31140,note_on,0,0,1,,,,,,,,,0,,,88,0
31140,note_on,60,0,1,,,,,,,,,0,,,91,0
31140,note_on,24,0,8,,,,,,,,,7,,,81,100
31140,note_on,60,0,3,,,,,,,,,2,,,55,0
31140,note_on,0,0,3,,,,,,,,,2,,,52,0
31140,note_on,0,0,3,,,,,,,,,2,,,52,100
31140,note_on,24,0,7,,,,,,,,,6,,,81,100
31140,note_on,0,0,3,,,,,,,,,2,,,49,100
31176,note_on,36,0,8,,,,,,,,,7,,,81,0
31176,note_on,36,0,7,,,,,,,,,6,,,81,0
31200,note_on,0,0,10,,,,,,,,,10,,,62,100
31200,note_on,0,0,9,,,,,,,,,8,,,74,100
31200,note_on,120,0,10,,,,,,,,,10,,,57,0
31200,note_on,60,0,3,,,,,,,,,2,,,52,0
31200,note_on,0,0,3,,,,,,,,,2,,,49,0
31200,note_on,120,0,9,,,,,,,,,8,,,69,0
31200,note_on,60,0,4,,,,,,,,,3,,,64,0
31200,note_on,0,0,4,,,,,,,,,3,,,57,0
31200,note_on,0,0,6,,,,,,,,,5,,,50,100
31200,note_on,120,0,6,,,,,,,,,5,,,45,0
31200,note_on,0,0,4,,,,,,,,,3,,,62,100
31200,note_on,0,0,3,,,,,,,,,2,,,50,100
31200,note_on,60,0,2,,,,,,,,,1,,,76,0
31200,note_on,24,0,8,,,,,,,,,7,,,81,100
31200,note_on,24,0,7,,,,,,,,,6,,,81,100
31200,note_on,60,0,1,,,,,,,,,0,,,88,0
31200,note_on,0,0,5,,,,,,,,,4,,,69,100
31200,note_on,0,0,4,,,,,,,,,3,,,66,100
31200,note_on,0,0,5,,,,,,,,,4,,,57,0
31200,note_on,120,0,5,,,,,,,,,4,,,69,0
31200,note_on,120,0,11,,,,,,,,,11,,,45,0
31200,note_on,0,0,11,,,,,,,,,11,,,50,100
31200,note_on,0,0,5,,,,,,,,,4,,,62,100
31200,note_on,0,0,1,,,,,,,,,0,,,90,100
31200,note_on,0,0,1,,,,,,,,,0,,,86,100
31200,note_on,0,0,2,,,,,,,,,1,,,73,0
31200,note_on,0,0,3,,,,,,,,,2,,,54,100
31200,note_on,0,0,2,,,,,,,,,1,,,74,100
31200,note_on,0,0,2,,,,,,,,,1,,,78,100
31200,note_on,0,0,1,,,,,,,,,0,,,85,0
31245,note_on,45,0,8,,,,,,,,,7,,,81,0
31245,note_on,45,0,7,,,,,,,,,6,,,81,0
31260,note_on,15,0,8,,,,,,,,,7,,,69,100
31260,note_on,15,0,7,,,,,,,,,6,,,78,100
31290,note_on,30,0,8,,,,,,,,,7,,,69,0
31290,note_on,0,0,8,,,,,,,,,7,,,74,100
31290,note_on,30,0,7,,,,,,,,,6,,,78,0
31290,note_on,0,0,7,,,,,,,,,6,,,81,100
31320,note_on,30,0,7,,,,,,,,,6,,,81,0
31320,note_on,0,0,7,,,,,,,,,6,,,86,100
31320,note_on,120,0,2,,,,,,,,,1,,,74,0
31320,note_on,0,0,2,,,,,,,,,1,,,78,0
31320,note_on,120,0,1,,,,,,,,,0,,,86,0
31320,note_on,0,0,1,,,,,,,,,0,,,90,0
31320,note_on,0,0,4,,,,,,,,,3,,,62,0
31320,note_on,0,0,3,,,,,,,,,2,,,54,0
31320,note_on,120,0,3,,,,,,,,,2,,,50,0
31320,note_on,120,0,10,,,,,,,,,10,,,62,0
31320,note_on,120,0,6,,,,,,,,,5,,,50,0
31320,note_on,120,0,11,,,,,,,,,11,,,50,0
31320,note_on,120,0,5,,,,,,,,,4,,,69,0
31320,note_on,120,0,4,,,,,,,,,3,,,66,0
31320,note_on,0,0,5,,,,,,,,,4,,,62,0
31320,note_on,120,0,9,,,,,,,,,8,,,74,0
31320,note_on,0,0,8,,,,,,,,,7,,,78,100
31320,note_on,30,0,8,,,,,,,,,7,,,74,0
31350,note_on,30,0,7,,,,,,,,,6,,,86,0
31350,note_on,30,0,8,,,,,,,,,7,,,78,0
31380,note_on,0,0,5,,,,,,,,,4,,,81,100
31380,note_on,60,0,5,,,,,,,,,4,,,69,100
31380,note_on,30,0,8,,,,,,,,,7,,,76,100
31380,note_on,60,0,11,,,,,,,,,11,,,45,100
31380,note_on,60,0,1,,,,,,,,,0,,,88,100
31380,note_on,0,0,2,,,,,,,,,1,,,73,100
31380,note_on,30,0,7,,,,,,,,,6,,,85,100
31380,note_on,60,0,2,,,,,,,,,1,,,76,100
31380,note_on,0,0,1,,,,,,,,,0,,,85,100
31380,note_on,60,0,10,,,,,,,,,10,,,57,100
31380,note_on,60,0,3,,,,,,,,,2,,,57,100
31380,note_on,0,0,4,,,,,,,,,3,,,69,100
31380,note_on,60,0,9,,,,,,,,,8,,,69,100
31380,note_on,60,0,4,,,,,,,,,3,,,57,100
31410,note_on,30,0,8,,,,,,,,,7,,,76,0
31410,note_on,30,0,7,,,,,,,,,6,,,85,0
31440,note_on,0,0,1,,,,,,,,,0,,,86,100
31440,note_on,0,0,5,,,,,,,,,4,,,69,0
31440,note_on,0,0,5,,,,,,,,,4,,,69,100
31440,note_on,60,0,4,,,,,,,,,3,,,69,0
31440,note_on,0,0,1,,,,,,,,,0,,,90,100
31440,note_on,60,0,9,,,,,,,,,8,,,69,0
31440,note_on,0,0,3,,,,,,,,,2,,,62,100
31440,note_on,60,0,3,,,,,,,,,2,,,57,0
31440,note_on,0,0,5,,,,,,,,,4,,,81,100
31440,note_on,0,0,9,,,,,,,,,8,,,74,100
31440,note_on,60,0,5,,,,,,,,,4,,,81,0
31440,note_on,0,0,11,,,,,,,,,11,,,50,100
31440,note_on,0,0,4,,,,,,,,,3,,,57,0
31440,note_on,60,0,10,,,,,,,,,10,,,57,0
31440,note_on,0,0,4,,,,,,,,,3,,,57,100
31440,note_on,0,0,4,,,,,,,,,3,,,69,100
31440,note_on,0,0,10,,,,,,,,,10,,,62,100
31440,note_on,60,0,1,,,,,,,,,0,,,85,0
31440,note_on,0,0,1,,,,,,,,,0,,,88,0
31440,note_on,0,0,2,,,,,,,,,1,,,78,100
31440,note_on,60,0,2,,,,,,,,,1,,,73,0
31440,note_on,0,0,2,,,,,,,,,1,,,76,0
31440,note_on,0,0,2,,,,,,,,,1,,,74,100
31440,note_on,60,0,11,,,,,,,,,11,,,45,0
31500,note_on,90,0,8,,,,,,,,,7,,,69,100
31500,note_on,90,0,7,,,,,,,,,6,,,78,100
31530,note_on,0,0,7,,,,,,,,,6,,,81,100
31530,note_on,30,0,7,,,,,,,,,6,,,78,0
31530,note_on,0,0,8,,,,,,,,,7,,,74,100
31530,note_on,30,0,8,,,,,,,,,7,,,69,0
31560,note_on,0,0,5,,,,,,,,,4,,,69,0
31560,note_on,0,0,8,,,,,,,,,7,,,78,100
31560,note_on,30,0,8,,,,,,,,,7,,,74,0
31560,note_on,0,0,7,,,,,,,,,6,,,86,100
31560,note_on,30,0,7,,,,,,,,,6,,,81,0
31560,note_on,120,0,9,,,,,,,,,8,,,74,0
31560,note_on,120,0,10,,,,,,,,,10,,,62,0
31560,note_on,120,0,4,,,,,,,,,3,,,69,0
31560,note_on,0,0,1,,,,,,,,,0,,,90,0
31560,note_on,120,0,1,,,,,,,,,0,,,86,0
31560,note_on,0,0,4,,,,,,,,,3,,,57,0
31560,note_on,120,0,5,,,,,,,,,4,,,81,0
31560,note_on,120,0,3,,,,,,,,,2,,,62,0
31560,note_on,120,0,11,,,,,,,,,11,,,50,0
31560,note_on,0,0,2,,,,,,,,,1,,,74,0
31560,note_on,120,0,2,,,,,,,,,1,,,78,0
31590,note_on,30,0,8,,,,,,,,,7,,,78,0
31590,note_on,30,0,7,,,,,,,,,6,,,86,0
31620,note_on,0,0,5,,,,,,,,,4,,,81,100
31620,note_on,60,0,5,,,,,,,,,4,,,69,100
31620,note_on,60,0,10,,,,,,,,,10,,,57,100
31620,note_on,0,0,2,,,,,,,,,1,,,76,100
31620,note_on,60,0,2,,,,,,,,,1,,,73,100
31620,note_on,60,0,3,,,,,,,,,2,,,57,100
31620,note_on,60,0,1,,,,,,,,,0,,,88,100
31620,note_on,0,0,4,,,,,,,,,3,,,57,100
31620,note_on,60,0,4,,,,,,,,,3,,,69,100
31620,note_on,30,0,8,,,,,,,,,7,,,76,100
31620,note_on,60,0,9,,,,,,,,,8,,,69,100
31620,note_on,30,0,7,,,,,,,,,6,,,85,100
31620,note_on,60,0,11,,,,,,,,,11,,,45,100
31620,note_on,0,0,1,,,,,,,,,0,,,85,100
31650,note_on,30,0,8,,,,,,,,,7,,,76,0
31650,note_on,30,0,7,,,,,,,,,6,,,85,0
31680,note_on,0,0,11,,,,,,,,,11,,,47,100
31680,note_on,0,0,1,,,,,,,,,0,,,88,0
31680,note_on,60,0,1,,,,,,,,,0,,,85,0
31680,note_on,60,0,2,,,,,,,,,1,,,76,0
31680,note_on,0,0,2,,,,,,,,,1,,,73,0
31680,note_on,0,0,2,,,,,,,,,1,,,71,100
31680,note_on,60,0,11,,,,,,,,,11,,,45,0
31680,note_on,60,0,10,,,,,,,,,10,,,57,0
31680,note_on,0,0,10,,,,,,,,,10,,,59,100
31680,note_on,60,0,5,,,,,,,,,4,,,81,0
31680,note_on,0,0,5,,,,,,,,,4,,,69,0
31680,note_on,0,0,5,,,,,,,,,4,,,78,100
31680,note_on,0,0,5,,,,,,,,,4,,,66,100
31680,note_on,0,0,1,,,,,,,,,0,,,83,100
31680,note_on,0,0,1,,,,,,,,,0,,,86,100
31680,note_on,0,0,2,,,,,,,,,1,,,74,100
31680,note_on,0,0,4,,,,,,,,,3,,,69,0
31680,note_on,60,0,3,,,,,,,,,2,,,57,0
31680,note_on,0,0,3,,,,,,,,,2,,,59,100
31680,note_on,60,0,4,,,,,,,,,3,,,57,0
31680,note_on,0,0,9,,,,,,,,,8,,,71,100
31680,note_on,0,0,4,,,,,,,,,3,,,54,100
31680,note_on,0,0,4,,,,,,,,,3,,,66,100
31680,note_on,60,0,9,,,,,,,,,8,,,69,0
31740,note_on,90,0,8,,,,,,,,,7,,,66,100
31740,note_on,90,0,7,,,,,,,,,6,,,74,100
31770,note_on,30,0,8,,,,,,,,,7,,,66,0
31770,note_on,0,0,8,,,,,,,,,7,,,69,100
31770,note_on,0,0,7,,,,,,,,,6,,,78,100
31770,note_on,30,0,7,,,,,,,,,6,,,74,0
31800,note_on,0,0,2,,,,,,,,,1,,,71,0
31800,note_on,30,0,8,,,,,,,,,7,,,69,0
31800,note_on,0,0,5,,,,,,,,,4,,,66,0
31800,note_on,120,0,11,,,,,,,,,11,,,47,0
31800,note_on,30,0,7,,,,,,,,,6,,,78,0
31800,note_on,120,0,5,,,,,,,,,4,,,78,0
31800,note_on,120,0,10,,,,,,,,,10,,,59,0
31800,note_on,120,0,2,,,,,,,,,1,,,74,0
31800,note_on,0,0,4,,,,,,,,,3,,,54,0
31800,note_on,120,0,3,,,,,,,,,2,,,59,0
31800,note_on,0,0,1,,,,,,,,,0,,,83,0
31800,note_on,120,0,1,,,,,,,,,0,,,86,0
31800,note_on,0,0,8,,,,,,,,,7,,,74,100
31800,note_on,120,0,4,,,,,,,,,3,,,66,0
31800,note_on,0,0,7,,,,,,,,,6,,,83,100
31800,note_on,120,0,9,,,,,,,,,8,,,71,0
31830,note_on,30,0,8,,,,,,,,,7,,,74,0
31830,note_on,30,0,7,,,,,,,,,6,,,83,0
31860,note_on,30,0,7,,,,,,,,,6,,,81,100
31860,note_on,60,0,9,,,,,,,,,8,,,66,100
31860,note_on,0,0,1,,,,,,,,,0,,,81,100
31860,note_on,60,0,11,,,,,,,,,11,,,42,100
31860,note_on,60,0,1,,,,,,,,,0,,,85,100
31860,note_on,60,0,5,,,,,,,,,4,,,78,100
31860,note_on,60,0,4,,,,,,,,,3,,,54,100
31860,note_on,60,0,10,,,,,,,,,10,,,54,100
31860,note_on,0,0,2,,,,,,,,,1,,,73,100
31860,note_on,60,0,3,,,,,,,,,2,,,54,100
31860,note_on,0,0,4,,,,,,,,,3,,,66,100
31860,note_on,0,0,5,,,,,,,,,4,,,66,100
31860,note_on,60,0,2,,,,,,,,,1,,,69,100
31860,note_on,30,0,8,,,,,,,,,7,,,73,100
31890,note_on,30,0,8,,,,,,,,,7,,,73,0
31890,note_on,30,0,7,,,,,,,,,6,,,81,0
31920,note_on,60,0,4,,,,,,,,,3,,,66,0
31920,note_on,0,0,10,,,,,,,,,10,,,59,100
31920,note_on,60,0,10,,,,,,,,,10,,,54,0
31920,note_on,0,0,9,,,,,,,,,8,,,71,100
31920,note_on,0,0,2,,,,,,,,,1,,,71,100
31920,note_on,0,0,2,,,,,,,,,1,,,74,100
31920,note_on,0,0,2,,,,,,,,,1,,,69,0
31920,note_on,60,0,2,,,,,,,,,1,,,73,0
31920,note_on,0,0,4,,,,,,,,,3,,,54,100
31920,note_on,60,0,1,,,,,,,,,0,,,81,0
31920,note_on,0,0,1,,,,,,,,,0,,,85,0
31920,note_on,0,0,1,,,,,,,,,0,,,86,100
31920,note_on,0,0,1,,,,,,,,,0,,,83,100
31920,note_on,0,0,4,,,,,,,,,3,,,54,0
31920,note_on,0,0,4,,,,,,,,,3,,,66,100
31920,note_on,60,0,9,,,,,,,,,8,,,66,0
31920,note_on,60,0,5,,,,,,,,,4,,,66,0
31920,note_on,0,0,5,,,,,,,,,4,,,66,100
31920,note_on,0,0,5,,,,,,,,,4,,,78,100
31920,note_on,0,0,5,,,,,,,,,4,,,78,0
31920,note_on,60,0,3,,,,,,,,,2,,,54,0
31920,note_on,0,0,3,,,,,,,,,2,,,59,100
31920,note_on,60,0,11,,,,,,,,,11,,,42,0
31920,note_on,0,0,11,,,,,,,,,11,,,47,100
31980,note_on,90,0,8,,,,,,,,,7,,,66,100
31980,note_on,90,0,7,,,,,,,,,6,,,74,100
32010,note_on,30,0,8,,,,,,,,,7,,,66,0
32010,note_on,0,0,8,,,,,,,,,7,,,69,100
32010,note_on,0,0,7,,,,,,,,,6,,,78,100
32010,note_on,30,0,7,,,,,,,,,6,,,74,0
32040,note_on,120,0,9,,,,,,,,,8,,,71,0
32040,note_on,0,0,7,,,,,,,,,6,,,83,100
32040,note_on,30,0,7,,,,,,,,,6,,,78,0
32040,note_on,0,0,2,,,,,,,,,1,,,74,0
32040,note_on,120,0,10,,,,,,,,,10,,,59,0
32040,note_on,0,0,5,,,,,,,,,4,,,78,0
32040,note_on,0,0,1,,,,,,,,,0,,,86,0
32040,note_on,120,0,1,,,,,,,,,0,,,83,0
32040,note_on,120,0,11,,,,,,,,,11,,,47,0
32040,note_on,120,0,3,,,,,,,,,2,,,59,0
32040,note_on,30,0,8,,,,,,,,,7,,,69,0
32040,note_on,0,0,8,,,,,,,,,7,,,74,100
32040,note_on,120,0,4,,,,,,,,,3,,,66,0
32040,note_on,0,0,4,,,,,,,,,3,,,54,0
32040,note_on,120,0,5,,,,,,,,,4,,,66,0
32040,note_on,120,0,2,,,,,,,,,1,,,71,0
32070,note_on,30,0,8,,,,,,,,,7,,,74,0
32070,note_on,30,0,7,,,,,,,,,6,,,83,0
32100,note_on,0,0,5,,,,,,,,,4,,,66,100
32100,note_on,60,0,3,,,,,,,,,2,,,54,100
32100,note_on,60,0,4,,,,,,,,,3,,,66,100
32100,note_on,30,0,8,,,,,,,,,7,,,73,100
32100,note_on,60,0,11,,,,,,,,,11,,,42,100
32100,note_on,60,0,10,,,,,,,,,10,,,54,100
32100,note_on,0,0,1,,,,,,,,,0,,,81,100
32100,note_on,60,0,1,,,,,,,,,0,,,85,100
32100,note_on,60,0,5,,,,,,,,,4,,,78,100
32100,note_on,0,0,4,,,,,,,,,3,,,54,100
32100,note_on,30,0,7,,,,,,,,,6,,,81,100
32100,note_on,0,0,2,,,,,,,,,1,,,69,100
32100,note_on,60,0,2,,,,,,,,,1,,,73,100
32100,note_on,60,0,9,,,,,,,,,8,,,66,100
32130,note_on,30,0,7,,,,,,,,,6,,,81,0
32130,note_on,30,0,8,,,,,,,,,7,,,73,0
32160,note_on,0,0,4,,,,,,,,,3,,,62,100
32160,note_on,60,0,11,,,,,,,,,11,,,42,0
32160,note_on,0,0,11,,,,,,,,,11,,,43,100
32160,note_on,840,0,6,,,,,,,,,5,,,50,100
32160,note_on,60,0,4,,,,,,,,,3,,,54,0
32160,note_on,0,0,2,,,,,,,,,1,,,71,100
32160,note_on,0,0,3,,,,,,,,,2,,,55,100
32160,note_on,0,0,5,,,,,,,,,4,,,62,100
32160,note_on,60,0,10,,,,,,,,,10,,,54,0
32160,note_on,0,0,4,,,,,,,,,3,,,66,0
32160,note_on,0,0,5,,,,,,,,,4,,,78,0
32160,note_on,60,0,5,,,,,,,,,4,,,66,0
32160,note_on,60,0,9,,,,,,,,,8,,,66,0
32160,note_on,0,0,9,,,,,,,,,8,,,67,100
32160,note_on,60,0,2,,,,,,,,,1,,,69,0
32160,note_on,0,0,5,,,,,,,,,4,,,74,100
32160,note_on,0,0,2,,,,,,,,,1,,,73,0
32160,note_on,0,0,2,,,,,,,,,1,,,67,100
32160,note_on,0,0,1,,,,,,,,,0,,,83,100
32160,note_on,0,0,1,,,,,,,,,0,,,79,100
32160,note_on,0,0,1,,,,,,,,,0,,,85,0
32160,note_on,60,0,1,,,,,,,,,0,,,81,0
32160,note_on,0,0,10,,,,,,,,,10,,,55,100
32160,note_on,60,0,3,,,,,,,,,2,,,54,0
32160,note_on,0,0,4,,,,,,,,,3,,,50,100
32220,note_on,90,0,8,,,,,,,,,7,,,62,100
32220,note_on,90,0,7,,,,,,,,,6,,,71,100
32250,note_on,30,0,7,,,,,,,,,6,,,71,0
32250,note_on,0,0,8,,,,,,,,,7,,,67,100
32250,note_on,30,0,8,,,,,,,,,7,,,62,0
32250,note_on,0,0,7,,,,,,,,,6,,,74,100
32280,note_on,30,0,8,,,,,,,,,7,,,67,0
32280,note_on,120,0,11,,,,,,,,,11,,,43,0
32280,note_on,120,0,3,,,,,,,,,2,,,55,0
32280,note_on,120,0,1,,,,,,,,,0,,,83,0
32280,note_on,0,0,1,,,,,,,,,0,,,79,0
32280,note_on,120,0,9,,,,,,,,,8,,,67,0
32280,note_on,0,0,6,,,,,,,,,5,,,50,100
32280,note_on,0,0,8,,,,,,,,,7,,,71,100
32280,note_on,120,0,6,,,,,,,,,5,,,50,0
32280,note_on,0,0,4,,,,,,,,,3,,,50,0
32280,note_on,0,0,2,,,,,,,,,1,,,67,0
32280,note_on,120,0,4,,,,,,,,,3,,,62,0
32280,note_on,120,0,10,,,,,,,,,10,,,55,0
32280,note_on,120,0,2,,,,,,,,,1,,,71,0
32280,note_on,0,0,5,,,,,,,,,4,,,62,0
32280,note_on,120,0,5,,,,,,,,,4,,,74,0
32280,note_on,30,0,7,,,,,,,,,6,,,74,0
32280,note_on,0,0,7,,,,,,,,,6,,,79,100
32310,note_on,30,0,7,,,,,,,,,6,,,79,0
32310,note_on,30,0,8,,,,,,,,,7,,,71,0
32340,note_on,60,0,3,,,,,,,,,2,,,50,100
32340,note_on,60,0,10,,,,,,,,,10,,,50,100
32340,note_on,60,0,9,,,,,,,,,8,,,62,100
32340,note_on,30,0,7,,,,,,,,,6,,,78,100
32340,note_on,30,0,8,,,,,,,,,7,,,69,100
32340,note_on,60,0,5,,,,,,,,,4,,,62,100
32340,note_on,0,0,5,,,,,,,,,4,,,74,100
32340,note_on,0,0,1,,,,,,,,,0,,,81,100
32340,note_on,60,0,1,,,,,,,,,0,,,78,100
32340,note_on,0,0,4,,,,,,,,,3,,,62,100
32340,note_on,60,0,11,,,,,,,,,11,,,38,100
32340,note_on,60,0,4,,,,,,,,,3,,,50,100
32340,note_on,0,0,2,,,,,,,,,1,,,69,100
32340,note_on,60,0,2,,,,,,,,,1,,,66,100
32370,note_on,90,0,6,,,,,,,,,5,,,50,0
32370,note_on,30,0,8,,,,,,,,,7,,,69,0
32370,note_on,30,0,7,,,,,,,,,6,,,78,0
32370,note_on,0,0,6,,,,,,,,,5,,,50,100
32400,note_on,30,0,6,,,,,,,,,5,,,50,0
32400,note_on,60,0,10,,,,,,,,,10,,,50,0
32400,note_on,0,0,10,,,,,,,,,10,,,55,100
32400,note_on,60,0,9,,,,,,,,,8,,,62,0
32400,note_on,60,0,4,,,,,,,,,3,,,62,0
32400,note_on,0,0,4,,,,,,,,,3,,,50,0
32400,note_on,0,0,4,,,,,,,,,3,,,50,100
32400,note_on,0,0,4,,,,,,,,,3,,,62,100
32400,note_on,0,0,9,,,,,,,,,8,,,67,100
32400,note_on,0,0,6,,,,,,,,,5,,,50,100
32400,note_on,60,0,3,,,,,,,,,2,,,50,0
32400,note_on,0,0,1,,,,,,,,,0,,,78,0
32400,note_on,60,0,1,,,,,,,,,0,,,81,0
32400,note_on,60,0,5,,,,,,,,,4,,,74,0
32400,note_on,0,0,1,,,,,,,,,0,,,79,100
32400,note_on,0,0,2,,,,,,,,,1,,,71,100
32400,note_on,0,0,1,,,,,,,,,0,,,83,100
32400,note_on,0,0,2,,,,,,,,,1,,,66,0
32400,note_on,0,0,2,,,,,,,,,1,,,67,100
32400,note_on,60,0,11,,,,,,,,,11,,,38,0
32400,note_on,0,0,5,,,,,,,,,4,,,62,100
32400,note_on,0,0,11,,,,,,,,,11,,,43,100
32400,note_on,0,0,5,,,,,,,,,4,,,74,100
32400,note_on,0,0,5,,,,,,,,,4,,,62,0
32400,note_on,0,0,3,,,,,,,,,2,,,55,100
32400,note_on,60,0,2,,,,,,,,,1,,,69,0
32460,note_on,90,0,7,,,,,,,,,6,,,71,100
32460,note_on,90,0,8,,,,,,,,,7,,,62,100
32490,note_on,30,0,7,,,,,,,,,6,,,71,0
32490,note_on,30,0,8,,,,,,,,,7,,,62,0
32490,note_on,0,0,8,,,,,,,,,7,,,67,100
32490,note_on,0,0,7,,,,,,,,,6,,,74,100
32520,note_on,0,0,5,,,,,,,,,4,,,74,0
32520,note_on,0,0,8,,,,,,,,,7,,,71,100
32520,note_on,30,0,8,,,,,,,,,7,,,67,0
32520,note_on,120,0,1,,,,,,,,,0,,,83,0
32520,note_on,0,0,1,,,,,,,,,0,,,79,0
32520,note_on,120,0,5,,,,,,,,,4,,,62,0
32520,note_on,120,0,10,,,,,,,,,10,,,55,0
32520,note_on,120,0,9,,,,,,,,,8,,,67,0
32520,note_on,120,0,11,,,,,,,,,11,,,43,0
32520,note_on,120,0,6,,,,,,,,,5,,,50,0
32520,note_on,120,0,4,,,,,,,,,3,,,62,0
32520,note_on,0,0,2,,,,,,,,,1,,,71,0
32520,note_on,0,0,7,,,,,,,,,6,,,79,100
32520,note_on,120,0,3,,,,,,,,,2,,,55,0
32520,note_on,30,0,7,,,,,,,,,6,,,74,0
32520,note_on,0,0,6,,,,,,,,,5,,,50,100
32520,note_on,0,0,4,,,,,,,,,3,,,50,0
32520,note_on,120,0,2,,,,,,,,,1,,,67,0
32550,note_on,30,0,8,,,,,,,,,7,,,71,0
32550,note_on,30,0,7,,,,,,,,,6,,,79,0
32580,note_on,60,0,1,,,,,,,,,0,,,78,100
32580,note_on,0,0,4,,,,,,,,,3,,,50,100
32580,note_on,60,0,4,,,,,,,,,3,,,62,100
32580,note_on,0,0,1,,,,,,,,,0,,,81,100
32580,note_on,0,0,2,,,,,,,,,1,,,69,100
32580,note_on,60,0,10,,,,,,,,,10,,,50,100
32580,note_on,60,0,3,,,,,,,,,2,,,50,100
32580,note_on,0,0,5,,,,,,,,,4,,,74,100
32580,note_on,60,0,9,,,,,,,,,8,,,62,100
32580,note_on,30,0,7,,,,,,,,,6,,,78,100
32580,note_on,60,0,11,,,,,,,,,11,,,38,100
32580,note_on,30,0,8,,,,,,,,,7,,,69,100
32580,note_on,60,0,5,,,,,,,,,4,,,62,100
32580,note_on,60,0,2,,,,,,,,,1,,,66,100
32610,note_on,30,0,7,,,,,,,,,6,,,78,0
32610,note_on,30,0,8,,,,,,,,,7,,,69,0
32640,note_on,0,0,10,,,,,,,,,10,,,45,100
32640,note_on,60,0,10,,,,,,,,,10,,,50,0
32640,note_on,60,0,11,,,,,,,,,11,,,38,0
32640,note_on,120,0,6,,,,,,,,,5,,,50,0
32640,note_on,30,0,8,,,,,,,,,7,,,73,100
32640,note_on,30,0,7,,,,,,,,,6,,,69,100
32640,note_on,60,0,4,,,,,,,,,3,,,50,0
32640,note_on,0,0,4,,,,,,,,,3,,,62,0
32640,note_on,0,0,5,,,,,,,,,4,,,69,100
32640,note_on,0,0,5,,,,,,,,,4,,,62,0
32640,note_on,60,0,5,,,,,,,,,4,,,74,0
32640,note_on,0,0,11,,,,,,,,,11,,,33,100
32640,note_on,0,0,7,,,,,,,,,6,,,76,100
32640,note_on,0,0,4,,,,,,,,,3,,,57,100
32640,note_on,0,0,2,,,,,,,,,1,,,69,100
32640,note_on,0,0,1,,,,,,,,,0,,,85,100
32640,note_on,0,0,1,,,,,,,,,0,,,76,100
32640,note_on,0,0,1,,,,,,,,,0,,,78,0
32640,note_on,60,0,1,,,,,,,,,0,,,81,0
32640,note_on,0,0,2,,,,,,,,,1,,,73,100
32640,note_on,0,0,2,,,,,,,,,1,,,66,0
32640,note_on,60,0,2,,,,,,,,,1,,,69,0
32640,note_on,0,0,3,,,,,,,,,2,,,45,100
32640,note_on,60,0,3,,,,,,,,,2,,,50,0
32640,note_on,0,0,9,,,,,,,,,8,,,57,100
32640,note_on,60,0,9,,,,,,,,,8,,,62,0
32640,note_on,0,0,6,,,,,,,,,5,,,45,100
32670,note_on,30,0,4,,,,,,,,,3,,,57,0
32670,note_on,30,0,5,,,,,,,,,4,,,69,0
32676,note_on,36,0,8,,,,,,,,,7,,,73,0
32676,note_on,0,0,7,,,,,,,,,6,,,69,0
32676,note_on,36,0,7,,,,,,,,,6,,,76,0
32682,note_on,42,0,1,,,,,,,,,0,,,85,0
32682,note_on,42,0,3,,,,,,,,,2,,,45,0
32682,note_on,42,0,2,,,,,,,,,1,,,69,0
32682,note_on,0,0,2,,,,,,,,,1,,,73,0
32682,note_on,0,0,1,,,,,,,,,0,,,76,0
32700,note_on,0,0,7,,,,,,,,,6,,,81,100
32700,note_on,30,0,4,,,,,,,,,3,,,57,100
32700,note_on,0,0,1,,,,,,,,,0,,,90,100
32700,note_on,30,0,5,,,,,,,,,4,,,69,100
32700,note_on,60,0,9,,,,,,,,,8,,,57,0
32700,note_on,0,0,9,,,,,,,,,8,,,69,100
32700,note_on,24,0,8,,,,,,,,,7,,,78,100
32700,note_on,18,0,3,,,,,,,,,2,,,57,100
32700,note_on,0,0,11,,,,,,,,,11,,,45,100
32700,note_on,60,0,11,,,,,,,,,11,,,33,0
32700,note_on,18,0,2,,,,,,,,,1,,,78,100
32700,note_on,18,0,1,,,,,,,,,0,,,81,100
32700,note_on,0,0,2,,,,,,,,,1,,,81,100
32700,note_on,24,0,7,,,,,,,,,6,,,69,100
32700,note_on,60,0,10,,,,,,,,,10,,,45,0
32700,note_on,0,0,10,,,,,,,,,10,,,57,100
32730,note_on,30,0,5,,,,,,,,,4,,,69,0
32730,note_on,30,0,4,,,,,,,,,3,,,57,0
32736,note_on,36,0,8,,,,,,,,,7,,,78,0
32736,note_on,36,0,7,,,,,,,,,6,,,81,0
32736,note_on,0,0,7,,,,,,,,,6,,,69,0
32742,note_on,42,0,2,,,,,,,,,1,,,81,0
32742,note_on,42,0,1,,,,,,,,,0,,,90,0
32742,note_on,42,0,3,,,,,,,,,2,,,57,0
32742,note_on,0,0,1,,,,,,,,,0,,,81,0
32742,note_on,0,0,2,,,,,,,,,1,,,78,0
32760,note_on,0,0,9,,,,,,,,,8,,,69,100
32760,note_on,0,0,2,,,,,,,,,1,,,79,100
32760,note_on,18,0,2,,,,,,,,,1,,,76,100
32760,note_on,18,0,1,,,,,,,,,0,,,79,100
32760,note_on,24,0,8,,,,,,,,,7,,,76,100
32760,note_on,60,0,9,,,,,,,,,8,,,69,0
32760,note_on,0,0,1,,,,,,,,,0,,,88,100
32760,note_on,30,0,5,,,,,,,,,4,,,69,100
32760,note_on,18,0,3,,,,,,,,,2,,,57,100
32760,note_on,0,0,6,,,,,,,,,5,,,45,100
32760,note_on,120,0,6,,,,,,,,,5,,,45,0
32760,note_on,0,0,11,,,,,,,,,11,,,45,100
32760,note_on,60,0,11,,,,,,,,,11,,,45,0
32760,note_on,60,0,10,,,,,,,,,10,,,57,0
32760,note_on,0,0,10,,,,,,,,,10,,,57,100
32760,note_on,30,0,4,,,,,,,,,3,,,57,100
32760,note_on,24,0,7,,,,,,,,,6,,,69,100
32760,note_on,0,0,7,,,,,,,,,6,,,79,100
32790,note_on,30,0,4,,,,,,,,,3,,,57,0
32790,note_on,30,0,5,,,,,,,,,4,,,69,0
32796,note_on,36,0,8,,,,,,,,,7,,,76,0
32796,note_on,36,0,7,,,,,,,,,6,,,79,0
32796,note_on,0,0,7,,,,,,,,,6,,,69,0
32802,note_on,42,0,2,,,,,,,,,1,,,79,0
32802,note_on,42,0,1,,,,,,,,,0,,,88,0
32802,note_on,0,0,1,,,,,,,,,0,,,79,0
32802,note_on,0,0,2,,,,,,,,,1,,,76,0
32802,note_on,42,0,3,,,,,,,,,2,,,57,0
32820,note_on,30,0,5,,,,,,,,,4,,,69,100
32820,note_on,24,0,8,,,,,,,,,7,,,74,100
32820,note_on,0,0,11,,,,,,,,,11,,,45,100
32820,note_on,60,0,11,,,,,,,,,11,,,45,0
32820,note_on,18,0,3,,,,,,,,,2,,,57,100
32820,note_on,0,0,7,,,,,,,,,6,,,78,100
32820,note_on,30,0,4,,,,,,,,,3,,,57,100
32820,note_on,24,0,7,,,,,,,,,6,,,69,100
32820,note_on,0,0,2,,,,,,,,,1,,,78,100
32820,note_on,60,0,9,,,,,,,,,8,,,69,0
32820,note_on,0,0,9,,,,,,,,,8,,,69,100
32820,note_on,18,0,2,,,,,,,,,1,,,73,100
32820,note_on,18,0,1,,,,,,,,,0,,,78,100
32820,note_on,0,0,10,,,,,,,,,10,,,57,100
32820,note_on,60,0,10,,,,,,,,,10,,,57,0
32820,note_on,0,0,1,,,,,,,,,0,,,86,100
32850,note_on,30,0,5,,,,,,,,,4,,,69,0
32850,note_on,30,0,4,,,,,,,,,3,,,57,0
32856,note_on,36,0,8,,,,,,,,,7,,,74,0
32856,note_on,36,0,7,,,,,,,,,6,,,78,0
32856,note_on,0,0,7,,,,,,,,,6,,,69,0
32862,note_on,42,0,1,,,,,,,,,0,,,86,0
32862,note_on,0,0,1,,,,,,,,,0,,,78,0
32862,note_on,42,0,3,,,,,,,,,2,,,57,0
32862,note_on,42,0,2,,,,,,,,,1,,,78,0
32862,note_on,0,0,2,,,,,,,,,1,,,73,0
32880,note_on,0,0,10,,,,,,,,,10,,,57,100
32880,note_on,60,0,9,,,,,,,,,8,,,69,0
32880,note_on,60,0,11,,,,,,,,,11,,,45,0
32880,note_on,60,0,10,,,,,,,,,10,,,57,0
32880,note_on,30,0,4,,,,,,,,,3,,,57,100
32880,note_on,0,0,1,,,,,,,,,0,,,85,100
32880,note_on,0,0,11,,,,,,,,,11,,,45,100
32880,note_on,0,0,9,,,,,,,,,8,,,69,100
32880,note_on,24,0,8,,,,,,,,,7,,,73,100
32880,note_on,120,0,6,,,,,,,,,5,,,45,0
32880,note_on,18,0,1,,,,,,,,,0,,,76,100
32880,note_on,30,0,5,,,,,,,,,4,,,69,100
32880,note_on,24,0,7,,,,,,,,,6,,,69,100
32880,note_on,18,0,2,,,,,,,,,1,,,69,100
32880,note_on,0,0,2,,,,,,,,,1,,,73,100
32880,note_on,0,0,7,,,,,,,,,6,,,76,100
32880,note_on,18,0,3,,,,,,,,,2,,,57,100
32880,note_on,0,0,6,,,,,,,,,5,,,45,100
32910,note_on,30,0,5,,,,,,,,,4,,,69,0
32910,note_on,30,0,4,,,,,,,,,3,,,57,0
32916,note_on,36,0,8,,,,,,,,,7,,,73,0
32916,note_on,36,0,7,,,,,,,,,6,,,76,0
32916,note_on,0,0,7,,,,,,,,,6,,,69,0
32922,note_on,42,0,3,,,,,,,,,2,,,57,0
32922,note_on,42,0,2,,,,,,,,,1,,,73,0
32922,note_on,0,0,1,,,,,,,,,0,,,76,0
32922,note_on,0,0,2,,,,,,,,,1,,,69,0
32922,note_on,42,0,1,,,,,,,,,0,,,85,0
32940,note_on,18,0,3,,,,,,,,,2,,,57,100
32940,note_on,0,0,2,,,,,,,,,1,,,81,100
32940,note_on,18,0,2,,,,,,,,,1,,,78,100
32940,note_on,24,0,8,,,,,,,,,7,,,78,100
32940,note_on,30,0,5,,,,,,,,,4,,,69,100
32940,note_on,0,0,11,,,,,,,,,11,,,45,100
32940,note_on,24,0,7,,,,,,,,,6,,,69,100
32940,note_on,0,0,10,,,,,,,,,10,,,57,100
32940,note_on,60,0,10,,,,,,,,,10,,,57,0
32940,note_on,0,0,9,,,,,,,,,8,,,69,100
32940,note_on,30,0,4,,,,,,,,,3,,,57,100
32940,note_on,60,0,11,,,,,,,,,11,,,45,0
32940,note_on,0,0,1,,,,,,,,,0,,,90,100
32940,note_on,60,0,9,,,,,,,,,8,,,69,0
32940,note_on,18,0,1,,,,,,,,,0,,,81,100
32940,note_on,0,0,7,,,,,,,,,6,,,81,100
32970,note_on,30,0,4,,,,,,,,,3,,,57,0
32970,note_on,30,0,5,,,,,,,,,4,,,69,0
32976,note_on,0,0,7,,,,,,,,,6,,,69,0
32976,note_on,36,0,7,,,,,,,,,6,,,81,0
32976,note_on,36,0,8,,,,,,,,,7,,,78,0
32982,note_on,0,0,2,,,,,,,,,1,,,78,0
32982,note_on,42,0,2,,,,,,,,,1,,,81,0
32982,note_on,42,0,3,,,,,,,,,2,,,57,0
32982,note_on,0,0,1,,,,,,,,,0,,,81,0
32982,note_on,42,0,1,,,,,,,,,0,,,90,0
33000,note_on,0,0,9,,,,,,,,,8,,,69,100
33000,note_on,60,0,9,,,,,,,,,8,,,69,0
33000,note_on,24,0,8,,,,,,,,,7,,,76,100
33000,note_on,0,0,6,,,,,,,,,5,,,45,100
33000,note_on,120,0,6,,,,,,,,,5,,,45,0
33000,note_on,30,0,4,,,,,,,,,3,,,57,100
33000,note_on,18,0,1,,,,,,,,,0,,,79,100
33000,note_on,0,0,1,,,,,,,,,0,,,88,100
33000,note_on,18,0,3,,,,,,,,,2,,,57,100
33000,note_on,0,0,11,,,,,,,,,11,,,45,100
33000,note_on,60,0,11,,,,,,,,,11,,,45,0
33000,note_on,0,0,10,,,,,,,,,10,,,57,100
33000,note_on,60,0,10,,,,,,,,,10,,,57,0
33000,note_on,30,0,5,,,,,,,,,4,,,69,100
33000,note_on,18,0,2,,,,,,,,,1,,,76,100
33000,note_on,0,0,2,,,,,,,,,1,,,79,100
33000,note_on,24,0,7,,,,,,,,,6,,,69,100
33000,note_on,0,0,7,,,,,,,,,6,,,79,100
33030,note_on,30,0,4,,,,,,,,,3,,,57,0
33030,note_on,30,0,5,,,,,,,,,4,,,69,0
33036,note_on,36,0,8,,,,,,,,,7,,,76,0
33036,note_on,36,0,7,,,,,,,,,6,,,79,0
33036,note_on,0,0,7,,,,,,,,,6,,,69,0
33042,note_on,42,0,3,,,,,,,,,2,,,57,0
33042,note_on,0,0,1,,,,,,,,,0,,,79,0
33042,note_on,42,0,1,,,,,,,,,0,,,88,0
33042,note_on,0,0,2,,,,,,,,,1,,,76,0
33042,note_on,42,0,2,,,,,,,,,1,,,79,0
33060,note_on,30,0,5,,,,,,,,,4,,,69,100
33060,note_on,0,0,1,,,,,,,,,0,,,86,100
33060,note_on,30,0,4,,,,,,,,,3,,,57,100
33060,note_on,0,0,2,,,,,,,,,1,,,78,100
33060,note_on,24,0,8,,,,,,,,,7,,,74,100
33060,note_on,18,0,1,,,,,,,,,0,,,78,100
33060,note_on,18,0,2,,,,,,,,,1,,,74,100
33060,note_on,60,0,10,,,,,,,,,10,,,57,0
33060,note_on,60,0,9,,,,,,,,,8,,,69,0
33060,note_on,18,0,3,,,,,,,,,2,,,57,100
33060,note_on,0,0,7,,,,,,,,,6,,,78,100
33060,note_on,24,0,7,,,,,,,,,6,,,69,100
33060,note_on,60,0,11,,,,,,,,,11,,,45,0
33060,note_on,0,0,9,,,,,,,,,8,,,69,100
33060,note_on,0,0,10,,,,,,,,,10,,,57,100
33060,note_on,0,0,11,,,,,,,,,11,,,45,100
33090,note_on,30,0,4,,,,,,,,,3,,,57,0
33090,note_on,30,0,5,,,,,,,,,4,,,69,0
33096,note_on,0,0,7,,,,,,,,,6,,,69,0
33096,note_on,36,0,7,,,,,,,,,6,,,78,0
33096,note_on,36,0,8,,,,,,,,,7,,,74,0
33102,note_on,42,0,2,,,,,,,,,1,,,78,0
33102,note_on,42,0,1,,,,,,,,,0,,,86,0
33102,note_on,0,0,1,,,,,,,,,0,,,78,0
33102,note_on,0,0,2,,,,,,,,,1,,,74,0
33102,note_on,42,0,3,,,,,,,,,2,,,57,0
33120,note_on,30,0,5,,,,,,,,,4,,,69,100
33120,note_on,0,0,2,,,,,,,,,1,,,76,100
33120,note_on,18,0,2,,,,,,,,,1,,,73,100
33120,note_on,0,0,7,,,,,,,,,6,,,69,100
33120,note_on,60,0,10,,,,,,,,,10,,,57,0
33120,note_on,0,0,10,,,,,,,,,10,,,57,100
33120,note_on,0,0,1,,,,,,,,,0,,,85,100
33120,note_on,60,0,11,,,,,,,,,11,,,45,0
33120,note_on,0,0,11,,,,,,,,,11,,,45,100
33120,note_on,24,0,7,,,,,,,,,6,,,76,100
33120,note_on,30,0,4,,,,,,,,,3,,,57,100
33120,note_on,18,0,1,,,,,,,,,0,,,76,100
33120,note_on,60,0,9,,,,,,,,,8,,,69,0
33120,note_on,18,0,3,,,,,,,,,2,,,57,100
33120,note_on,24,0,8,,,,,,,,,7,,,73,100
33120,note_on,0,0,6,,,,,,,,,5,,,45,100
33120,note_on,0,0,9,,,,,,,,,8,,,69,100
33120,note_on,120,0,6,,,,,,,,,5,,,45,0
33150,note_on,30,0,4,,,,,,,,,3,,,57,0
33150,note_on,30,0,5,,,,,,,,,4,,,69,0
33156,note_on,36,0,8,,,,,,,,,7,,,73,0
33156,note_on,36,0,7,,,,,,,,,6,,,69,0
33156,note_on,0,0,7,,,,,,,,,6,,,76,0
33162,note_on,42,0,1,,,,,,,,,0,,,85,0
33162,note_on,0,0,1,,,,,,,,,0,,,76,0
33162,note_on,42,0,3,,,,,,,,,2,,,57,0
33162,note_on,0,0,2,,,,,,,,,1,,,73,0
33162,note_on,42,0,2,,,,,,,,,1,,,76,0
33180,note_on,60,0,10,,,,,,,,,10,,,57,0
33180,note_on,60,0,9,,,,,,,,,8,,,69,0
33180,note_on,60,0,11,,,,,,,,,11,,,45,0
33180,note_on,0,0,5,,,,,,,,,4,,,69,100
33180,note_on,24,0,8,,,,,,,,,7,,,81,100
33180,note_on,18,0,1,,,,,,,,,0,,,81,100
33180,note_on,30,0,5,,,,,,,,,4,,,57,100
33180,note_on,24,0,7,,,,,,,,,6,,,81,100
33180,note_on,18,0,2,,,,,,,,,1,,,81,100
33180,note_on,30,0,4,,,,,,,,,3,,,45,100
33180,note_on,18,0,3,,,,,,,,,2,,,45,100
33180,note_on,0,0,4,,,,,,,,,3,,,57,100
33210,note_on,30,0,5,,,,,,,,,4,,,69,0
33210,note_on,0,0,5,,,,,,,,,4,,,57,0
33210,note_on,30,0,4,,,,,,,,,3,,,57,0
33210,note_on,0,0,4,,,,,,,,,3,,,45,0
33216,note_on,36,0,7,,,,,,,,,6,,,81,0
33216,note_on,36,0,8,,,,,,,,,7,,,81,0
33222,note_on,42,0,3,,,,,,,,,2,,,45,0
33222,note_on,42,0,2,,,,,,,,,1,,,81,0
33222,note_on,42,0,1,,,,,,,,,0,,,81,0
33240,note_on,18,0,1,,,,,,,,,0,,,81,100
33240,note_on,30,0,4,,,,,,,,,3,,,45,100
33240,note_on,0,0,5,,,,,,,,,4,,,69,100
33240,note_on,30,0,5,,,,,,,,,4,,,57,100
33240,note_on,18,0,2,,,,,,,,,1,,,69,100
33240,note_on,60,0,9,,,,,,,,,8,,,57,100
33240,note_on,0,0,6,,,,,,,,,5,,,45,100
33240,note_on,18,0,3,,,,,,,,,2,,,45,100
33240,note_on,0,0,4,,,,,,,,,3,,,57,100
33240,note_on,60,0,10,,,,,,,,,10,,,45,100
33240,note_on,24,0,7,,,,,,,,,6,,,69,100
33240,note_on,24,0,8,,,,,,,,,7,,,69,100
33240,note_on,60,0,11,,,,,,,,,11,,,33,100
33240,note_on,120,0,6,,,,,,,,,5,,,45,0
33270,note_on,30,0,5,,,,,,,,,4,,,69,0
33270,note_on,0,0,5,,,,,,,,,4,,,57,0
33270,note_on,30,0,4,,,,,,,,,3,,,57,0
33270,note_on,0,0,4,,,,,,,,,3,,,45,0
33276,note_on,36,0,8,,,,,,,,,7,,,69,0
33276,note_on,36,0,7,,,,,,,,,6,,,69,0
33282,note_on,42,0,2,,,,,,,,,1,,,69,0
33282,note_on,42,0,3,,,,,,,,,2,,,45,0
33282,note_on,42,0,1,,,,,,,,,0,,,81,0
33300,note_on,18,0,1,,,,,,,,,0,,,81,100
33300,note_on,30,0,5,,,,,,,,,4,,,57,100
33300,note_on,24,0,7,,,,,,,,,6,,,69,100
33300,note_on,18,0,3,,,,,,,,,2,,,45,100
33300,note_on,60,0,11,,,,,,,,,11,,,33,0
33300,note_on,0,0,11,,,,,,,,,11,,,33,100
33300,note_on,0,0,5,,,,,,,,,4,,,69,100
33300,note_on,0,0,9,,,,,,,,,8,,,57,100
33300,note_on,24,0,8,,,,,,,,,7,,,69,100
33300,note_on,60,0,9,,,,,,,,,8,,,57,0
33300,note_on,0,0,10,,,,,,,,,10,,,45,100
33300,note_on,60,0,10,,,,,,,,,10,,,45,0
33300,note_on,18,0,2,,,,,,,,,1,,,69,100
33300,note_on,0,0,6,,,,,,,,,5,,,45,100
33300,note_on,0,0,4,,,,,,,,,3,,,57,100
33300,note_on,60,0,6,,,,,,,,,5,,,45,0
33300,note_on,30,0,4,,,,,,,,,3,,,45,100
33330,note_on,0,0,4,,,,,,,,,3,,,45,0
33330,note_on,30,0,4,,,,,,,,,3,,,57,0
33330,note_on,0,0,5,,,,,,,,,4,,,57,0
33330,note_on,30,0,5,,,,,,,,,4,,,69,0
33336,note_on,36,0,8,,,,,,,,,7,,,69,0
33336,note_on,36,0,7,,,,,,,,,6,,,69,0
33342,note_on,42,0,3,,,,,,,,,2,,,45,0
33342,note_on,42,0,2,,,,,,,,,1,,,69,0
33342,note_on,42,0,1,,,,,,,,,0,,,81,0
33360,note_on,60,0,9,,,,,,,,,8,,,57,0
33360,note_on,60,0,11,,,,,,,,,11,,,33,0
33360,note_on,0,0,11,,,,,,,,,11,,,33,100
33360,note_on,0,0,9,,,,,,,,,8,,,57,100
33360,note_on,0,0,10,,,,,,,,,10,,,45,100
33360,note_on,0,0,5,,,,,,,,,4,,,69,100
33360,note_on,24,0,7,,,,,,,,,6,,,69,100
33360,note_on,60,0,10,,,,,,,,,10,,,45,0
33360,note_on,30,0,5,,,,,,,,,4,,,57,100
33360,note_on,18,0,3,,,,,,,,,2,,,45,100
33360,note_on,24,0,8,,,,,,,,,7,,,69,100
33360,note_on,0,0,4,,,,,,,,,3,,,57,100
33360,note_on,18,0,2,,,,,,,,,1,,,69,100
33360,note_on,18,0,1,,,,,,,,,0,,,81,100
33360,note_on,60,0,6,,,,,,,,,5,,,45,0
33360,note_on,0,0,6,,,,,,,,,5,,,45,100
33360,note_on,30,0,4,,,,,,,,,3,,,45,100
33390,note_on,0,0,4,,,,,,,,,3,,,45,0
33390,note_on,0,0,5,,,,,,,,,4,,,57,0
33390,note_on,30,0,5,,,,,,,,,4,,,69,0
33390,note_on,30,0,4,,,,,,,,,3,,,57,0
33396,note_on,36,0,8,,,,,,,,,7,,,69,0
33396,note_on,36,0,7,,,,,,,,,6,,,69,0
33402,note_on,42,0,2,,,,,,,,,1,,,69,0
33402,note_on,42,0,3,,,,,,,,,2,,,45,0
33402,note_on,42,0,1,,,,,,,,,0,,,81,0
33420,note_on,18,0,2,,,,,,,,,1,,,69,100
33420,note_on,60,0,10,,,,,,,,,10,,,45,0
33420,note_on,0,0,10,,,,,,,,,10,,,45,100
33420,note_on,18,0,1,,,,,,,,,0,,,81,100
33420,note_on,60,0,6,,,,,,,,,5,,,45,0
33420,note_on,0,0,6,,,,,,,,,5,,,45,100
33420,note_on,60,0,9,,,,,,,,,8,,,57,0
33420,note_on,0,0,9,,,,,,,,,8,,,57,100
33420,note_on,0,0,11,,,,,,,,,11,,,33,100
33420,note_on,60,0,11,,,,,,,,,11,,,33,0
33420,note_on,0,0,5,,,,,,,,,4,,,69,100
33420,note_on,24,0,8,,,,,,,,,7,,,69,100
33420,note_on,18,0,3,,,,,,,,,2,,,45,100
33420,note_on,24,0,7,,,,,,,,,6,,,69,100
33420,note_on,30,0,4,,,,,,,,,3,,,45,100
33420,note_on,0,0,4,,,,,,,,,3,,,57,100
33420,note_on,30,0,5,,,,,,,,,4,,,57,100
33450,note_on,0,0,4,,,,,,,,,3,,,45,0
33450,note_on,30,0,5,,,,,,,,,4,,,69,0
33450,note_on,0,0,5,,,,,,,,,4,,,57,0
33450,note_on,30,0,4,,,,,,,,,3,,,57,0
33456,note_on,36,0,8,,,,,,,,,7,,,69,0
33456,note_on,36,0,7,,,,,,,,,6,,,69,0
33462,note_on,42,0,1,,,,,,,,,0,,,81,0
33462,note_on,42,0,3,,,,,,,,,2,,,45,0
33462,note_on,42,0,2,,,,,,,,,1,,,69,0
33480,note_on,0,0,4,,,,,,,,,3,,,57,100
33480,note_on,24,0,7,,,,,,,,,6,,,69,100
33480,note_on,0,0,10,,,,,,,,,10,,,45,100
33480,note_on,0,0,5,,,,,,,,,4,,,69,100
33480,note_on,30,0,5,,,,,,,,,4,,,57,100
33480,note_on,18,0,2,,,,,,,,,1,,,69,100
33480,note_on,24,0,8,,,,,,,,,7,,,69,100
33480,note_on,60,0,6,,,,,,,,,5,,,45,0
33480,note_on,0,0,6,,,,,,,,,5,,,45,100
33480,note_on,30,0,4,,,,,,,,,3,,,45,100
33480,note_on,18,0,1,,,,,,,,,0,,,81,100
33480,note_on,60,0,10,,,,,,,,,10,,,45,0
33480,note_on,0,0,11,,,,,,,,,11,,,33,100
33480,note_on,0,0,9,,,,,,,,,8,,,57,100
33480,note_on,60,0,9,,,,,,,,,8,,,57,0
33480,note_on,18,0,3,,,,,,,,,2,,,45,100
33480,note_on,60,0,11,,,,,,,,,11,,,33,0
33510,note_on,0,0,4,,,,,,,,,3,,,45,0
33510,note_on,30,0,4,,,,,,,,,3,,,57,0
33510,note_on,0,0,5,,,,,,,,,4,,,57,0
33510,note_on,30,0,5,,,,,,,,,4,,,69,0
33516,note_on,36,0,7,,,,,,,,,6,,,69,0
33516,note_on,36,0,8,,,,,,,,,7,,,69,0
33522,note_on,42,0,3,,,,,,,,,2,,,45,0
33522,note_on,42,0,1,,,,,,,,,0,,,81,0
33522,note_on,42,0,2,,,,,,,,,1,,,69,0
33540,note_on,0,0,4,,,,,,,,,3,,,57,100
33540,note_on,30,0,4,,,,,,,,,3,,,45,100
33540,note_on,18,0,1,,,,,,,,,0,,,81,100
33540,note_on,18,0,2,,,,,,,,,1,,,69,100
33540,note_on,0,0,6,,,,,,,,,5,,,45,100
33540,note_on,0,0,9,,,,,,,,,8,,,57,100
33540,note_on,60,0,6,,,,,,,,,5,,,45,0
33540,note_on,0,0,11,,,,,,,,,11,,,33,100
33540,note_on,24,0,7,,,,,,,,,6,,,69,100
33540,note_on,60,0,11,,,,,,,,,11,,,33,0
33540,note_on,0,0,10,,,,,,,,,10,,,45,100
33540,note_on,18,0,3,,,,,,,,,2,,,45,100
33540,note_on,24,0,8,,,,,,,,,7,,,69,100
33540,note_on,0,0,5,,,,,,,,,4,,,69,100
33540,note_on,30,0,5,,,,,,,,,4,,,57,100
33540,note_on,60,0,10,,,,,,,,,10,,,45,0
33540,note_on,60,0,9,,,,,,,,,8,,,57,0
33570,note_on,0,0,4,,,,,,,,,3,,,45,0
33570,note_on,30,0,4,,,,,,,,,3,,,57,0
33570,note_on,0,0,5,,,,,,,,,4,,,57,0
33570,note_on,30,0,5,,,,,,,,,4,,,69,0
33576,note_on,36,0,7,,,,,,,,,6,,,69,0
33576,note_on,36,0,8,,,,,,,,,7,,,69,0
33582,note_on,42,0,2,,,,,,,,,1,,,69,0
33582,note_on,42,0,1,,,,,,,,,0,,,81,0
33582,note_on,42,0,3,,,,,,,,,2,,,45,0
33600,note_on,18,0,2,,,,,,,,,1,,,69,100
33600,note_on,30,0,4,,,,,,,,,3,,,45,50
33600,note_on,0,0,4,,,,,,,,,3,,,57,50
33600,note_on,24,0,8,,,,,,,,,7,,,69,100
33600,note_on,60,0,6,,,,,,,,,5,,,45,0
33600,marker,7680,1,0,,,,,,,,,,,,,
33600,note_on,0,0,9,,,,,,,,,8,,,57,100
33600,note_on,60,0,9,,,,,,,,,8,,,57,0
33600,note_on,18,0,3,,,,,,,,,2,,,45,100
33600,note_on,0,0,6,,,,,,,,,5,,,45,100
33600,note_on,30,0,5,,,,,,,,,4,,,57,100
33600,note_on,0,0,10,,,,,,,,,10,,,45,100
33600,note_on,24,0,7,,,,,,,,,6,,,69,100
33600,note_on,18,0,1,,,,,,,,,0,,,81,100
33600,note_on,0,0,5,,,,,,,,,4,,,69,100
33600,note_on,60,0,10,,,,,,,,,10,,,45,0
33600,note_on,0,0,11,,,,,,,,,11,,,33,100
33600,note_on,60,0,11,,,,,,,,,11,,,33,0
33648,note_on,48,0,7,,,,,,,,,6,,,69,0
33660,note_on,12,0,7,,,,,,,,,6,,,69,50
33720,note_on,120,0,5,,,,,,,,,4,,,69,0
33720,note_on,0,0,5,,,,,,,,,4,,,57,0
33720,note_on,120,0,6,,,,,,,,,5,,,45,0
33720,note_on,120,0,3,,,,,,,,,2,,,45,0
33720,note_on,120,0,11,,,,,,,,,11,,,33,0
33720,note_on,120,0,2,,,,,,,,,1,,,69,0
33720,note_on,120,0,9,,,,,,,,,8,,,57,0
33720,note_on,120,0,1,,,,,,,,,0,,,81,0
33720,note_on,120,0,8,,,,,,,,,7,,,69,0
33720,note_on,120,0,10,,,,,,,,,10,,,45,0
33756,note_on,96,0,7,,,,,,,,,6,,,69,0
33780,note_on,24,0,7,,,,,,,,,6,,,69,50
33876,note_on,96,0,7,,,,,,,,,6,,,69,0
33900,note_on,24,0,7,,,,,,,,,6,,,69,50
33996,note_on,96,0,7,,,,,,,,,6,,,69,0
34020,note_on,24,0,7,,,,,,,,,6,,,69,50
34080,note_on,360,0,8,,,,,,,,,7,,,65,50
34080,note_on,360,0,9,,,,,,,,,8,,,61,50
34116,note_on,96,0,7,,,,,,,,,6,,,69,0
34140,note_on,24,0,7,,,,,,,,,6,,,69,50
34236,note_on,96,0,7,,,,,,,,,6,,,69,0
34260,note_on,24,0,7,,,,,,,,,6,,,69,50
34356,note_on,96,0,7,,,,,,,,,6,,,69,0
34380,note_on,24,0,7,,,,,,,,,6,,,69,50
34476,note_on,96,0,7,,,,,,,,,6,,,69,0
34500,note_on,24,0,7,,,,,,,,,6,,,69,50
34560,note_on,480,0,9,,,,,,,,,8,,,61,0
34560,note_on,0,0,9,,,,,,,,,8,,,62,50
34560,note_on,0,0,8,,,,,,,,,7,,,66,50
34560,note_on,480,0,8,,,,,,,,,7,,,65,0
34596,note_on,96,0,7,,,,,,,,,6,,,69,0
34620,note_on,24,0,7,,,,,,,,,6,,,69,50
34680,note_on,0,0,9,,,,,,,,,8,,,64,50
34680,note_on,120,0,9,,,,,,,,,8,,,62,0
34680,note_on,0,0,8,,,,,,,,,7,,,67,50
34680,note_on,120,0,8,,,,,,,,,7,,,66,0
34716,note_on,96,0,7,,,,,,,,,6,,,69,0
34740,note_on,24,0,7,,,,,,,,,6,,,69,50
34836,note_on,96,0,7,,,,,,,,,6,,,69,0
34860,note_on,24,0,7,,,,,,,,,6,,,69,50
34920,note_on,0,0,9,,,,,,,,,8,,,61,50
34920,note_on,240,0,9,,,,,,,,,8,,,64,0
34920,note_on,240,0,8,,,,,,,,,7,,,67,0
34920,note_on,0,0,8,,,,,,,,,7,,,65,50
34956,note_on,96,0,7,,,,,,,,,6,,,69,0
34980,note_on,24,0,7,,,,,,,,,6,,,69,50
35040,note_on,0,0,9,,,,,,,,,8,,,62,50
35040,note_on,120,0,9,,,,,,,,,8,,,61,0
35040,note_on,0,0,8,,,,,,,,,7,,,66,50
35040,note_on,120,0,8,,,,,,,,,7,,,65,0
35076,note_on,96,0,7,,,,,,,,,6,,,69,0
35100,note_on,24,0,7,,,,,,,,,6,,,69,50
35160,note_on,120,0,9,,,,,,,,,8,,,62,0
35160,note_on,0,0,9,,,,,,,,,8,,,64,50
35160,note_on,120,0,8,,,,,,,,,7,,,66,0
35160,note_on,0,0,8,,,,,,,,,7,,,67,50
35196,note_on,96,0,7,,,,,,,,,6,,,69,0
35220,note_on,24,0,7,,,,,,,,,6,,,69,50
35316,note_on,96,0,7,,,,,,,,,6,,,69,0
35340,note_on,24,0,7,,,,,,,,,6,,,69,50
35400,note_on,240,0,9,,,,,,,,,8,,,64,0
35400,note_on,0,0,9,,,,,,,,,8,,,61,50
35400,note_on,0,0,8,,,,,,,,,7,,,65,50
35400,note_on,240,0,8,,,,,,,,,7,,,67,0
35436,note_on,96,0,7,,,,,,,,,6,,,69,0
35460,note_on,24,0,7,,,,,,,,,6,,,69,50
35520,note_on,120,0,8,,,,,,,,,7,,,65,0
35520,note_on,0,0,8,,,,,,,,,7,,,66,50
35520,note_on,0,0,4,,,,,,,,,3,,,45,0
35520,note_on,1920,0,4,,,,,,,,,3,,,57,0
35520,note_on,0,0,2,,,,,,,,,1,,,69,65
35520,note_on,120,0,9,,,,,,,,,8,,,61,0
35520,note_on,1800,0,2,,,,,,,,,1,,,78,65
35520,note_on,0,0,9,,,,,,,,,8,,,62,50
35556,note_on,96,0,7,,,,,,,,,6,,,69,0
35580,note_on,24,0,7,,,,,,,,,6,,,69,50
35601,control_change,81,0,2,,,,,,,,,1,7,91,,
35620,note_on,40,0,7,,,,,,,,,6,,,69,0
35625,control_change,24,0,2,,,,,,,,,1,7,92,,
35635,control_change,10,0,2,,,,,,,,,1,7,96,,
35640,note_on,20,0,7,,,,,,,,,6,,,69,50
35645,control_change,10,0,2,,,,,,,,,1,7,97,,
35650,control_change,5,0,2,,,,,,,,,1,7,98,,
35680,note_on,40,0,7,,,,,,,,,6,,,69,0
35700,note_on,20,0,7,,,,,,,,,6,,,69,50
35720,control_change,70,0,2,,,,,,,,,1,7,99,,
35740,control_change,20,0,2,,,,,,,,,1,7,100,,
35740,note_on,40,0,7,,,,,,,,,6,,,69,0
35755,control_change,15,0,2,,,,,,,,,1,7,101,,
35760,note_on,20,0,7,,,,,,,,,6,,,69,50
35760,note_on,240,0,9,,,,,,,,,8,,,62,0
35760,note_on,0,0,2,,,,,,,,,1,,,76,65
35760,note_on,5,0,2,,,,,,,,,1,,,78,0
35760,note_on,0,0,8,,,,,,,,,7,,,64,50
35760,note_on,240,0,8,,,,,,,,,7,,,66,0
35760,note_on,0,0,9,,,,,,,,,8,,,61,50
35761,control_change,1,0,2,,,,,,,,,1,7,103,,
35771,control_change,10,0,2,,,,,,,,,1,7,104,,
35776,control_change,5,0,2,,,,,,,,,1,7,105,,
35800,note_on,40,0,7,,,,,,,,,6,,,69,0
35820,note_on,20,0,7,,,,,,,,,6,,,69,50
35820,control_change,44,0,2,,,,,,,,,1,7,106,,
35845,control_change,25,0,2,,,,,,,,,1,7,108,,
35860,note_on,40,0,7,,,,,,,,,6,,,69,0
35865,control_change,20,0,2,,,,,,,,,1,7,110,,
35880,note_on,20,0,7,,,,,,,,,6,,,69,50
35885,control_change,20,0,2,,,,,,,,,1,7,111,,
35900,control_change,15,0,2,,,,,,,,,1,7,112,,
35925,control_change,25,0,2,,,,,,,,,1,7,113,,
35930,note_on,50,0,7,,,,,,,,,6,,,69,0
35940,note_on,10,0,7,,,,,,,,,6,,,71,50
35965,control_change,40,0,2,,,,,,,,,1,7,115,,
35970,note_on,30,0,7,,,,,,,,,6,,,71,0
35970,note_on,0,0,7,,,,,,,,,6,,,73,50
35980,control_change,15,0,2,,,,,,,,,1,7,117,,
35985,control_change,5,0,2,,,,,,,,,1,7,118,,
36000,control_change,0,0,2,,,,,,,,,1,7,119,,
36000,note_on,240,0,9,,,,,,,,,8,,,61,0
36000,note_on,0,0,7,,,,,,,,,6,,,74,50
36000,note_on,30,0,7,,,,,,,,,6,,,73,0
36000,note_on,0,0,8,,,,,,,,,7,,,66,50
36000,note_on,240,0,8,,,,,,,,,7,,,64,0
36000,note_on,0,0,9,,,,,,,,,8,,,59,50
36000,note_on,15,0,2,,,,,,,,,1,,,76,0
36000,note_on,0,0,2,,,,,,,,,1,,,74,65
36025,control_change,25,0,2,,,,,,,,,1,7,120,,
36040,note_on,40,0,7,,,,,,,,,6,,,74,0
36060,note_on,20,0,7,,,,,,,,,6,,,74,50
36065,control_change,40,0,2,,,,,,,,,1,7,122,,
36090,control_change,25,0,2,,,,,,,,,1,7,124,,
36100,note_on,40,0,7,,,,,,,,,6,,,74,0
36106,control_change,16,0,2,,,,,,,,,1,7,125,,
36120,note_on,20,0,7,,,,,,,,,6,,,74,50
36120,control_change,14,0,2,,,,,,,,,1,7,126,,
36145,control_change,25,0,2,,,,,,,,,1,7,127,,
36160,note_on,40,0,7,,,,,,,,,6,,,74,0
36180,note_on,20,0,7,,,,,,,,,6,,,74,50
36220,note_on,40,0,7,,,,,,,,,6,,,74,0
36240,note_on,95,0,2,,,,,,,,,1,,,69,0
36240,note_on,20,0,7,,,,,,,,,6,,,74,50
36240,note_on,0,0,8,,,,,,,,,7,,,68,50
36240,note_on,240,0,8,,,,,,,,,7,,,66,0
36240,note_on,0,0,2,,,,,,,,,1,,,71,65
36240,note_on,0,0,9,,,,,,,,,8,,,52,50
36240,note_on,240,0,9,,,,,,,,,8,,,59,0
36280,note_on,40,0,7,,,,,,,,,6,,,74,0
36300,note_on,20,0,7,,,,,,,,,6,,,74,50
36340,note_on,40,0,7,,,,,,,,,6,,,74,0
36360,note_on,20,0,7,,,,,,,,,6,,,76,50
36370,control_change,130,0,2,,,,,,,,,1,7,125,,
36375,control_change,5,0,2,,,,,,,,,1,7,124,,
36385,control_change,10,0,2,,,,,,,,,1,7,123,,
36390,note_on,0,0,7,,,,,,,,,6,,,74,50
36390,note_on,30,0,7,,,,,,,,,6,,,76,0
36395,control_change,10,0,2,,,,,,,,,1,7,122,,
36400,control_change,5,0,2,,,,,,,,,1,7,121,,
36410,control_change,10,0,2,,,,,,,,,1,7,120,,
36420,note_on,30,0,7,,,,,,,,,6,,,74,0
36420,control_change,10,0,2,,,,,,,,,1,7,118,,
36420,note_on,0,0,7,,,,,,,,,6,,,73,50
36425,control_change,5,0,2,,,,,,,,,1,7,117,,
36435,control_change,10,0,2,,,,,,,,,1,7,116,,
36450,control_change,15,0,2,,,,,,,,,1,7,115,,
36450,note_on,0,0,7,,,,,,,,,6,,,74,50
36450,note_on,30,0,7,,,,,,,,,6,,,73,0
36455,control_change,5,0,2,,,,,,,,,1,7,114,,
36465,control_change,10,0,2,,,,,,,,,1,7,111,,
36475,control_change,10,0,2,,,,,,,,,1,7,110,,
36480,note_on,0,0,9,,,,,,,,,8,,,57,50
36480,note_on,240,0,9,,,,,,,,,8,,,52,0
36480,note_on,0,0,2,,,,,,,,,1,,,69,65
36480,note_on,5,0,2,,,,,,,,,1,,,71,0
36480,note_on,0,0,2,,,,,,,,,1,,,73,65
36480,note_on,0,0,7,,,,,,,,,6,,,73,50
36480,note_on,0,0,2,,,,,,,,,1,,,74,0
36480,note_on,30,0,7,,,,,,,,,6,,,74,0
36480,note_on,0,0,8,,,,,,,,,7,,,69,50
36480,note_on,240,0,8,,,,,,,,,7,,,68,0
36505,control_change,25,0,2,,,,,,,,,1,7,109,,
36520,control_change,15,0,2,,,,,,,,,1,7,106,,
36530,note_on,50,0,7,,,,,,,,,6,,,73,0
36530,control_change,10,0,2,,,,,,,,,1,7,104,,
36530,note_on,50,0,9,,,,,,,,,8,,,57,0
36540,note_on,10,0,9,,,,,,,,,8,,,57,50
36545,control_change,15,0,2,,,,,,,,,1,7,103,,
36555,control_change,10,0,2,,,,,,,,,1,7,99,,
36570,control_change,15,0,2,,,,,,,,,1,7,97,,
36590,note_on,50,0,9,,,,,,,,,8,,,57,0
36595,control_change,25,0,2,,,,,,,,,1,7,96,,
36600,note_on,10,0,9,,,,,,,,,8,,,57,50
36600,note_on,5,0,2,,,,,,,,,1,,,69,0
36600,note_on,120,0,8,,,,,,,,,7,,,69,0
36600,note_on,70,0,7,,,,,,,,,6,,,76,50
36600,note_on,0,0,2,,,,,,,,,1,,,73,0
36611,control_change,11,0,2,,,,,,,,,1,7,95,,
36616,control_change,5,0,2,,,,,,,,,1,7,94,,
36650,note_on,50,0,7,,,,,,,,,6,,,76,0
36650,note_on,50,0,9,,,,,,,,,8,,,57,0
36660,note_on,10,0,9,,,,,,,,,8,,,57,50
36710,note_on,50,0,9,,,,,,,,,8,,,57,0
36720,note_on,10,0,9,,,,,,,,,8,,,57,50
36720,note_on,120,0,8,,,,,,,,,7,,,73,50
36720,note_on,70,0,7,,,,,,,,,6,,,73,50
36770,note_on,50,0,9,,,,,,,,,8,,,57,0
36770,note_on,50,0,7,,,,,,,,,6,,,73,0
36780,note_on,10,0,9,,,,,,,,,8,,,57,50
36830,note_on,50,0,9,,,,,,,,,8,,,57,0
36840,note_on,10,0,9,,,,,,,,,8,,,57,50
36840,note_on,70,0,7,,,,,,,,,6,,,69,50
36865,control_change,249,0,2,,,,,,,,,1,7,90,,
36890,note_on,50,0,9,,,,,,,,,8,,,57,0
36890,note_on,50,0,7,,,,,,,,,6,,,69,0
36900,note_on,10,0,9,,,,,,,,,8,,,59,50
36930,note_on,30,0,9,,,,,,,,,8,,,59,0
36930,note_on,0,0,9,,,,,,,,,8,,,61,50
36960,note_on,0,0,9,,,,,,,,,8,,,62,50
36960,note_on,70,0,7,,,,,,,,,6,,,78,50
36960,note_on,30,0,9,,,,,,,,,8,,,61,0
37010,note_on,50,0,9,,,,,,,,,8,,,62,0
37020,note_on,10,0,9,,,,,,,,,8,,,62,50
37070,note_on,50,0,9,,,,,,,,,8,,,62,0
37080,note_on,10,0,9,,,,,,,,,8,,,62,50
37130,note_on,50,0,9,,,,,,,,,8,,,62,0
37140,note_on,10,0,9,,,,,,,,,8,,,62,50
37190,note_on,50,0,9,,,,,,,,,8,,,62,0
37200,note_on,0,0,8,,,,,,,,,7,,,71,50
37200,note_on,480,0,8,,,,,,,,,7,,,73,0
37200,note_on,10,0,9,,,,,,,,,8,,,62,50
37250,note_on,50,0,9,,,,,,,,,8,,,62,0
37260,note_on,10,0,9,,,,,,,,,8,,,62,50
37310,note_on,50,0,9,,,,,,,,,8,,,62,0
37320,note_on,10,0,9,,,,,,,,,8,,,64,50
37350,note_on,0,0,9,,,,,,,,,8,,,62,50
37350,note_on,30,0,9,,,,,,,,,8,,,64,0
37380,note_on,30,0,9,,,,,,,,,8,,,62,0
37380,note_on,0,0,9,,,,,,,,,8,,,61,50
37410,note_on,30,0,9,,,,,,,,,8,,,61,0
37410,note_on,0,0,9,,,,,,,,,8,,,62,50
37440,note_on,30,0,9,,,,,,,,,8,,,62,0
37440,note_on,0,0,9,,,,,,,,,8,,,61,50
37440,note_on,0,0,7,,,,,,,,,6,,,76,50
37440,note_on,480,0,7,,,,,,,,,6,,,78,0
37480,note_on,40,0,7,,,,,,,,,6,,,76,0
37490,note_on,50,0,9,,,,,,,,,8,,,61,0
37500,note_on,20,0,7,,,,,,,,,6,,,76,52
37500,note_on,3780,0,3,,,,,,,,,2,,,49,52
37500,note_on,3780,0,10,,,,,,,,,10,,,49,52
37540,note_on,40,0,7,,,,,,,,,6,,,76,0
37550,note_on,50,0,10,,,,,,,,,10,,,49,0
37550,note_on,50,0,3,,,,,,,,,2,,,49,0
37560,note_on,10,0,10,,,,,,,,,10,,,49,55
37560,note_on,0,0,8,,,,,,,,,7,,,69,55
37560,note_on,360,0,8,,,,,,,,,7,,,71,0
37560,note_on,10,0,3,,,,,,,,,2,,,49,55
37560,note_on,20,0,7,,,,,,,,,6,,,76,55
37560,note_on,70,0,9,,,,,,,,,8,,,64,55
37600,note_on,40,0,7,,,,,,,,,6,,,76,0
37610,note_on,50,0,3,,,,,,,,,2,,,49,0
37610,note_on,50,0,10,,,,,,,,,10,,,49,0
37610,note_on,50,0,9,,,,,,,,,8,,,64,0
37620,note_on,20,0,7,,,,,,,,,6,,,76,58
37620,note_on,10,0,10,,,,,,,,,10,,,49,58
37620,note_on,10,0,3,,,,,,,,,2,,,49,58
37650,note_on,90,0,8,,,,,,,,,7,,,69,0
37650,note_on,0,0,8,,,,,,,,,7,,,68,60
37660,note_on,40,0,7,,,,,,,,,6,,,76,0
37670,note_on,50,0,3,,,,,,,,,2,,,49,0
37670,note_on,50,0,10,,,,,,,,,10,,,49,0
37680,note_on,30,0,8,,,,,,,,,7,,,68,0
37680,note_on,10,0,3,,,,,,,,,2,,,49,61
37680,note_on,20,0,7,,,,,,,,,6,,,76,61
37680,note_on,10,0,10,,,,,,,,,10,,,49,61
37680,note_on,0,0,8,,,,,,,,,7,,,69,61
37680,note_on,70,0,9,,,,,,,,,8,,,61,61
37720,note_on,40,0,7,,,,,,,,,6,,,76,0
37730,note_on,50,0,3,,,,,,,,,2,,,49,0
37730,note_on,50,0,10,,,,,,,,,10,,,49,0
37730,note_on,50,0,9,,,,,,,,,8,,,61,0
37740,note_on,10,0,10,,,,,,,,,10,,,49,64
37740,note_on,20,0,7,,,,,,,,,6,,,76,64
37740,note_on,10,0,3,,,,,,,,,2,,,49,64
37780,note_on,40,0,7,,,,,,,,,6,,,76,0
37790,note_on,50,0,3,,,,,,,,,2,,,49,0
37790,note_on,50,0,10,,,,,,,,,10,,,49,0
37800,note_on,20,0,7,,,,,,,,,6,,,76,67
37800,note_on,70,0,9,,,,,,,,,8,,,57,67
37800,note_on,10,0,10,,,,,,,,,10,,,49,67
37800,note_on,0,0,8,,,,,,,,,7,,,76,67
37800,note_on,120,0,8,,,,,,,,,7,,,69,0
37800,note_on,10,0,3,,,,,,,,,2,,,49,67
37850,note_on,50,0,7,,,,,,,,,6,,,76,0
37850,note_on,50,0,9,,,,,,,,,8,,,57,0
37850,note_on,50,0,3,,,,,,,,,2,,,49,0
37850,note_on,50,0,10,,,,,,,,,10,,,49,0
37860,note_on,10,0,10,,,,,,,,,10,,,50,70
37860,note_on,10,0,3,,,,,,,,,2,,,50,70
37860,note_on,10,0,7,,,,,,,,,6,,,78,70
37890,note_on,30,0,7,,,,,,,,,6,,,78,0
37890,note_on,0,0,7,,,,,,,,,6,,,80,72
37890,note_on,0,0,10,,,,,,,,,10,,,52,72
37890,note_on,0,0,3,,,,,,,,,2,,,52,72
37890,note_on,30,0,3,,,,,,,,,2,,,50,0
37890,note_on,30,0,10,,,,,,,,,10,,,50,0
37920,note_on,0,0,3,,,,,,,,,2,,,54,73
37920,note_on,70,0,9,,,,,,,,,8,,,61,73
37920,note_on,0,0,10,,,,,,,,,10,,,54,73
37920,note_on,0,0,7,,,,,,,,,6,,,81,73
37920,note_on,30,0,10,,,,,,,,,10,,,52,0
37920,note_on,30,0,7,,,,,,,,,6,,,80,0
37920,note_on,30,0,3,,,,,,,,,2,,,52,0
37960,note_on,40,0,7,,,,,,,,,6,,,81,0
37970,note_on,50,0,10,,,,,,,,,10,,,54,0
37970,note_on,50,0,3,,,,,,,,,2,,,54,0
37980,note_on,10,0,3,,,,,,,,,2,,,54,76
37980,note_on,10,0,10,,,,,,,,,10,,,54,76
37980,note_on,20,0,7,,,,,,,,,6,,,81,76
38020,note_on,40,0,7,,,,,,,,,6,,,81,0
38030,note_on,50,0,3,,,,,,,,,2,,,54,0
38030,note_on,50,0,10,,,,,,,,,10,,,54,0
38040,note_on,20,0,7,,,,,,,,,6,,,81,79
38040,note_on,10,0,3,,,,,,,,,2,,,54,79
38040,note_on,120,0,9,,,,,,,,,8,,,61,0
38040,note_on,0,0,8,,,,,,,,,7,,,75,79
38040,note_on,240,0,8,,,,,,,,,7,,,76,0
38040,note_on,0,0,9,,,,,,,,,8,,,63,79
38040,note_on,10,0,10,,,,,,,,,10,,,54,79
38080,note_on,40,0,7,,,,,,,,,6,,,81,0
38090,note_on,50,0,10,,,,,,,,,10,,,54,0
38090,note_on,50,0,3,,,,,,,,,2,,,54,0
38100,note_on,10,0,10,,,,,,,,,10,,,54,82
38100,note_on,10,0,3,,,,,,,,,2,,,54,82
38100,note_on,20,0,7,,,,,,,,,6,,,81,82
38130,note_on,0,0,8,,,,,,,,,7,,,73,83
38130,note_on,0,0,9,,,,,,,,,8,,,64,83
38130,note_on,90,0,8,,,,,,,,,7,,,75,0
38130,note_on,90,0,9,,,,,,,,,8,,,63,0
38140,note_on,40,0,7,,,,,,,,,6,,,81,0
38150,note_on,50,0,10,,,,,,,,,10,,,54,0
38150,note_on,50,0,3,,,,,,,,,2,,,54,0
38160,note_on,30,0,9,,,,,,,,,8,,,64,0
38160,note_on,10,0,10,,,,,,,,,10,,,54,85
38160,note_on,0,0,9,,,,,,,,,8,,,66,85
38160,note_on,20,0,7,,,,,,,,,6,,,81,85
38160,note_on,30,0,8,,,,,,,,,7,,,73,0
38160,note_on,0,0,8,,,,,,,,,7,,,75,85
38160,note_on,10,0,3,,,,,,,,,2,,,54,85
38175,note_on,15,0,8,,,,,,,,,7,,,75,0
38175,note_on,0,0,8,,,,,,,,,7,,,73,86
38190,note_on,15,0,8,,,,,,,,,7,,,73,0
38190,note_on,0,0,8,,,,,,,,,7,,,75,86
38200,note_on,40,0,7,,,,,,,,,6,,,81,0
38205,note_on,15,0,8,,,,,,,,,7,,,75,0
38205,note_on,0,0,8,,,,,,,,,7,,,73,87
38210,note_on,50,0,3,,,,,,,,,2,,,54,0
38210,note_on,50,0,10,,,,,,,,,10,,,54,0
38220,note_on,10,0,3,,,,,,,,,2,,,54,88
38220,note_on,10,0,10,,,,,,,,,10,,,54,88
38220,note_on,20,0,7,,,,,,,,,6,,,81,88
38220,note_on,15,0,8,,,,,,,,,7,,,73,0
38220,note_on,0,0,8,,,,,,,,,7,,,75,88
38235,note_on,15,0,8,,,,,,,,,7,,,75,0
38235,note_on,0,0,8,,,,,,,,,7,,,73,88
38250,note_on,15,0,8,,,,,,,,,7,,,73,0
38250,note_on,0,0,8,,,,,,,,,7,,,75,89
38260,note_on,40,0,7,,,,,,,,,6,,,81,0
38265,note_on,15,0,8,,,,,,,,,7,,,75,0
38265,note_on,0,0,8,,,,,,,,,7,,,73,90
38270,note_on,50,0,3,,,,,,,,,2,,,54,0
38270,note_on,50,0,10,,,,,,,,,10,,,54,0
38280,note_on,10,0,10,,,,,,,,,10,,,56,91
38280,note_on,10,0,3,,,,,,,,,2,,,56,91
38280,note_on,20,0,7,,,,,,,,,6,,,83,91
38280,note_on,15,0,8,,,,,,,,,7,,,73,0
38280,note_on,0,0,8,,,,,,,,,7,,,75,91
38295,note_on,15,0,8,,,,,,,,,7,,,75,0
38295,note_on,0,0,8,,,,,,,,,7,,,73,91
38310,note_on,0,0,10,,,,,,,,,10,,,54,92
38310,note_on,0,0,7,,,,,,,,,6,,,81,92
38310,note_on,30,0,7,,,,,,,,,6,,,83,0
38310,note_on,15,0,8,,,,,,,,,7,,,73,0
38310,note_on,30,0,3,,,,,,,,,2,,,56,0
38310,note_on,0,0,3,,,,,,,,,2,,,54,92
38310,note_on,30,0,10,,,,,,,,,10,,,56,0
38310,note_on,0,0,8,,,,,,,,,7,,,75,92
38325,note_on,15,0,8,,,,,,,,,7,,,75,0
38325,note_on,0,0,8,,,,,,,,,7,,,73,93
38340,note_on,0,0,10,,,,,,,,,10,,,52,94
38340,note_on,30,0,3,,,,,,,,,2,,,54,0
38340,note_on,0,0,3,,,,,,,,,2,,,52,94
38340,note_on,0,0,8,,,,,,,,,7,,,73,94
38340,note_on,0,0,7,,,,,,,,,6,,,80,94
38340,note_on,15,0,8,,,,,,,,,7,,,73,0
38340,note_on,30,0,10,,,,,,,,,10,,,54,0
38340,note_on,30,0,7,,,,,,,,,6,,,81,0
38370,note_on,30,0,3,,,,,,,,,2,,,52,0
38370,note_on,30,0,7,,,,,,,,,6,,,80,0
38370,note_on,0,0,3,,,,,,,,,2,,,54,95
38370,note_on,30,0,10,,,,,,,,,10,,,52,0
38370,note_on,0,0,10,,,,,,,,,10,,,54,95
38370,note_on,0,0,7,,,,,,,,,6,,,81,95
38370,note_on,30,0,8,,,,,,,,,7,,,73,0
38370,note_on,0,0,8,,,,,,,,,7,,,76,95
38400,note_on,0,0,9,,,,,,,,,8,,,59,97
38400,note_on,240,0,9,,,,,,,,,8,,,66,0
38400,note_on,30,0,7,,,,,,,,,6,,,81,0
38400,note_on,0,0,3,,,,,,,,,2,,,52,97
38400,note_on,30,0,8,,,,,,,,,7,,,76,0
38400,note_on,0,0,10,,,,,,,,,10,,,52,97
38400,note_on,0,0,8,,,,,,,,,7,,,76,97
38400,note_on,0,0,7,,,,,,,,,6,,,80,97
38400,note_on,1535,0,2,,,,,,,,,1,,,76,97
38400,note_on,30,0,3,,,,,,,,,2,,,54,0
38400,note_on,30,0,10,,,,,,,,,10,,,54,0
38450,note_on,50,0,3,,,,,,,,,2,,,52,0
38450,note_on,50,0,10,,,,,,,,,10,,,52,0
38460,note_on,10,0,3,,,,,,,,,2,,,52,100
38460,note_on,10,0,10,,,,,,,,,10,,,52,100
38460,note_on,4740,0,11,,,,,,,,,11,,,40,100
38460,note_on,2940,0,4,,,,,,,,,3,,,64,100
38460,note_on,60,0,7,,,,,,,,,6,,,80,0
38510,note_on,50,0,11,,,,,,,,,11,,,40,0
38510,note_on,50,0,3,,,,,,,,,2,,,52,0
38510,note_on,50,0,10,,,,,,,,,10,,,52,0
38510,note_on,50,0,4,,,,,,,,,3,,,64,0
38520,note_on,10,0,10,,,,,,,,,10,,,52,100
38520,note_on,120,0,9,,,,,,,,,8,,,59,0
38520,note_on,10,0,3,,,,,,,,,2,,,52,100
38520,note_on,120,0,8,,,,,,,,,7,,,76,0
38520,note_on,10,0,4,,,,,,,,,3,,,64,100
38520,note_on,10,0,11,,,,,,,,,11,,,40,100
38520,note_on,60,0,7,,,,,,,,,6,,,83,110
38570,note_on,50,0,10,,,,,,,,,10,,,52,0
38570,note_on,50,0,3,,,,,,,,,2,,,52,0
38570,note_on,50,0,11,,,,,,,,,11,,,40,0
38570,note_on,50,0,4,,,,,,,,,3,,,64,0
38570,note_on,50,0,7,,,,,,,,,6,,,83,0
38580,note_on,10,0,4,,,,,,,,,3,,,64,100
38580,note_on,10,0,11,,,,,,,,,11,,,40,100
38580,note_on,10,0,10,,,,,,,,,10,,,52,100
38580,note_on,10,0,3,,,,,,,,,2,,,52,100
38630,note_on,50,0,3,,,,,,,,,2,,,52,0
38630,note_on,50,0,11,,,,,,,,,11,,,40,0
38630,note_on,50,0,4,,,,,,,,,3,,,64,0
38630,note_on,50,0,10,,,,,,,,,10,,,52,0
38640,note_on,10,0,3,,,,,,,,,2,,,52,100
38640,note_on,10,0,10,,,,,,,,,10,,,52,100
38640,note_on,70,0,7,,,,,,,,,6,,,80,110
38640,note_on,10,0,4,,,,,,,,,3,,,64,100
38640,note_on,10,0,11,,,,,,,,,11,,,40,100
38690,note_on,50,0,11,,,,,,,,,11,,,40,0
38690,note_on,50,0,4,,,,,,,,,3,,,64,0
38690,note_on,50,0,3,,,,,,,,,2,,,52,0
38690,note_on,50,0,7,,,,,,,,,6,,,80,0
38690,note_on,50,0,10,,,,,,,,,10,,,52,0
38700,note_on,10,0,10,,,,,,,,,10,,,52,100
38700,note_on,10,0,3,,,,,,,,,2,,,52,100
38700,note_on,10,0,11,,,,,,,,,11,,,40,100
38700,note_on,10,0,4,,,,,,,,,3,,,64,100
38750,note_on,50,0,4,,,,,,,,,3,,,64,0
38750,note_on,50,0,3,,,,,,,,,2,,,52,0
38750,note_on,50,0,11,,,,,,,,,11,,,40,0
38750,note_on,50,0,10,,,,,,,,,10,,,52,0
38760,note_on,10,0,3,,,,,,,,,2,,,52,100
38760,note_on,70,0,7,,,,,,,,,6,,,76,110
38760,note_on,10,0,4,,,,,,,,,3,,,64,100
38760,note_on,10,0,11,,,,,,,,,11,,,40,100
38760,note_on,10,0,10,,,,,,,,,10,,,52,100
38810,note_on,50,0,7,,,,,,,,,6,,,76,0
38810,note_on,50,0,3,,,,,,,,,2,,,52,0
38810,note_on,50,0,11,,,,,,,,,11,,,40,0
38810,note_on,50,0,10,,,,,,,,,10,,,52,0
38810,note_on,50,0,4,,,,,,,,,3,,,64,0
38820,note_on,10,0,10,,,,,,,,,10,,,54,100
38820,note_on,10,0,3,,,,,,,,,2,,,54,100
38820,note_on,10,0,4,,,,,,,,,3,,,64,100
38820,note_on,10,0,11,,,,,,,,,11,,,42,100
38850,note_on,0,0,3,,,,,,,,,2,,,56,100
38850,note_on,30,0,10,,,,,,,,,10,,,54,0
38850,note_on,0,0,10,,,,,,,,,10,,,56,100
38850,note_on,30,0,11,,,,,,,,,11,,,42,0
38850,note_on,30,0,3,,,,,,,,,2,,,54,0
38850,note_on,0,0,11,,,,,,,,,11,,,44,100
38870,note_on,50,0,4,,,,,,,,,3,,,64,0
38880,note_on,0,0,4,,,,,,,,,3,,,64,100
38880,note_on,10,0,4,,,,,,,,,3,,,57,100
38880,note_on,30,0,10,,,,,,,,,10,,,56,0
38880,note_on,0,0,10,,,,,,,,,10,,,57,100
38880,note_on,5160,0,1,,,,,,,,,0,,,85,100
38880,note_on,30,0,3,,,,,,,,,2,,,56,0
38880,note_on,0,0,3,,,,,,,,,2,,,57,100
38880,note_on,30,0,11,,,,,,,,,11,,,44,0
38880,note_on,0,0,11,,,,,,,,,11,,,45,100
38880,note_on,70,0,7,,,,,,,,,6,,,85,100
38880,note_on,480,0,2,,,,,,,,,1,,,81,100
38880,note_on,5160,0,5,,,,,,,,,4,,,69,100
38880,note_on,0,0,5,,,,,,,,,4,,,76,100
38880,note_on,5160,0,6,,,,,,,,,5,,,45,100
38930,note_on,50,0,3,,,,,,,,,2,,,57,0
38930,note_on,50,0,7,,,,,,,,,6,,,85,0
38940,note_on,420,0,9,,,,,,,,,8,,,57,100
38940,note_on,10,0,7,,,,,,,,,6,,,61,100
38940,note_on,10,0,3,,,,,,,,,2,,,57,100
38990,note_on,50,0,7,,,,,,,,,6,,,61,0
38990,note_on,50,0,3,,,,,,,,,2,,,57,0
38990,note_on,50,0,9,,,,,,,,,8,,,57,0
39000,note_on,0,0,4,,,,,,,,,3,,,57,0
39000,note_on,10,0,3,,,,,,,,,2,,,57,100
39000,note_on,120,0,10,,,,,,,,,10,,,57,0
39000,note_on,120,0,6,,,,,,,,,5,,,45,0
39000,note_on,120,0,4,,,,,,,,,3,,,64,0
39000,note_on,120,0,5,,,,,,,,,4,,,76,0
39000,note_on,0,0,5,,,,,,,,,4,,,69,0
39000,note_on,480,0,8,,,,,,,,,7,,,76,115
39000,note_on,120,0,11,,,,,,,,,11,,,45,0
39000,note_on,10,0,9,,,,,,,,,8,,,57,100
39000,note_on,10,0,7,,,,,,,,,6,,,61,100
39050,note_on,50,0,7,,,,,,,,,6,,,61,0
39050,note_on,50,0,9,,,,,,,,,8,,,57,0
39050,note_on,50,0,3,,,,,,,,,2,,,57,0
39050,note_on,50,0,8,,,,,,,,,7,,,76,0
39060,note_on,10,0,7,,,,,,,,,6,,,61,100
39060,note_on,10,0,9,,,,,,,,,8,,,57,100
39060,note_on,10,0,3,,,,,,,,,2,,,57,100
39110,note_on,50,0,7,,,,,,,,,6,,,61,0
39110,note_on,50,0,9,,,,,,,,,8,,,57,0
39110,note_on,50,0,3,,,,,,,,,2,,,57,0
39120,note_on,10,0,7,,,,,,,,,6,,,61,100
39120,note_on,10,0,3,,,,,,,,,2,,,57,100
39120,note_on,70,0,8,,,,,,,,,7,,,73,115
39120,note_on,10,0,9,,,,,,,,,8,,,57,100
39170,note_on,50,0,3,,,,,,,,,2,,,57,0
39170,note_on,50,0,7,,,,,,,,,6,,,61,0
39170,note_on,50,0,8,,,,,,,,,7,,,73,0
39170,note_on,50,0,9,,,,,,,,,8,,,57,0
39180,note_on,10,0,9,,,,,,,,,8,,,57,100
39180,note_on,10,0,7,,,,,,,,,6,,,61,100
39180,note_on,10,0,3,,,,,,,,,2,,,57,100
39230,note_on,50,0,9,,,,,,,,,8,,,57,0
39230,note_on,50,0,7,,,,,,,,,6,,,61,0
39230,note_on,50,0,3,,,,,,,,,2,,,57,0
39240,note_on,70,0,8,,,,,,,,,7,,,69,115
39240,note_on,10,0,3,,,,,,,,,2,,,57,100
39240,note_on,10,0,9,,,,,,,,,8,,,57,100
39240,note_on,10,0,7,,,,,,,,,6,,,61,100
39290,note_on,50,0,8,,,,,,,,,7,,,69,0
39290,note_on,50,0,9,,,,,,,,,8,,,57,0
39290,note_on,50,0,3,,,,,,,,,2,,,57,0
39290,note_on,50,0,7,,,,,,,,,6,,,61,0
39300,note_on,10,0,7,,,,,,,,,6,,,62,100
39300,note_on,10,0,9,,,,,,,,,8,,,59,100
39300,note_on,10,0,3,,,,,,,,,2,,,59,100
39330,note_on,30,0,3,,,,,,,,,2,,,59,0
39330,note_on,0,0,3,,,,,,,,,2,,,61,100
39330,note_on,0,0,9,,,,,,,,,8,,,61,100
39330,note_on,0,0,7,,,,,,,,,6,,,64,100
39330,note_on,30,0,7,,,,,,,,,6,,,62,0
39330,note_on,30,0,9,,,,,,,,,8,,,59,0
39360,note_on,480,0,2,,,,,,,,,1,,,76,0
39360,note_on,480,0,1,,,,,,,,,0,,,90,100
39360,note_on,70,0,8,,,,,,,,,7,,,78,100
39360,note_on,0,0,9,,,,,,,,,8,,,62,100
39360,note_on,30,0,9,,,,,,,,,8,,,61,0
39360,note_on,360,0,6,,,,,,,,,5,,,50,100
39360,note_on,0,0,3,,,,,,,,,2,,,62,100
39360,note_on,30,0,7,,,,,,,,,6,,,64,0
39360,note_on,0,0,7,,,,,,,,,6,,,66,100
39360,note_on,0,0,5,,,,,,,,,4,,,74,100
39360,note_on,360,0,5,,,,,,,,,4,,,66,100
39360,note_on,30,0,3,,,,,,,,,2,,,61,0
39360,note_on,0,0,2,,,,,,,,,1,,,74,100
39410,note_on,50,0,7,,,,,,,,,6,,,66,0
39410,note_on,50,0,8,,,,,,,,,7,,,78,0
39410,note_on,50,0,3,,,,,,,,,2,,,62,0
39420,note_on,420,0,11,,,,,,,,,11,,,38,100
39420,note_on,420,0,10,,,,,,,,,10,,,50,100
39420,note_on,420,0,4,,,,,,,,,3,,,50,100
39420,note_on,0,0,4,,,,,,,,,3,,,62,100
39420,note_on,10,0,8,,,,,,,,,7,,,66,100
39420,note_on,10,0,3,,,,,,,,,2,,,50,100
39470,note_on,50,0,4,,,,,,,,,3,,,62,0
39470,note_on,0,0,4,,,,,,,,,3,,,50,0
39470,note_on,50,0,11,,,,,,,,,11,,,38,0
39470,note_on,50,0,8,,,,,,,,,7,,,66,0
39470,note_on,50,0,10,,,,,,,,,10,,,50,0
39470,note_on,50,0,3,,,,,,,,,2,,,50,0
39480,note_on,10,0,8,,,,,,,,,7,,,66,100
39480,note_on,0,0,5,,,,,,,,,4,,,66,0
39480,note_on,10,0,3,,,,,,,,,2,,,50,100
39480,note_on,70,0,7,,,,,,,,,6,,,81,110
39480,note_on,120,0,6,,,,,,,,,5,,,50,0
39480,note_on,10,0,11,,,,,,,,,11,,,38,100
39480,note_on,120,0,9,,,,,,,,,8,,,62,0
39480,note_on,10,0,10,,,,,,,,,10,,,50,100
39480,note_on,120,0,5,,,,,,,,,4,,,74,0
39480,note_on,10,0,4,,,,,,,,,3,,,50,100
39480,note_on,0,0,4,,,,,,,,,3,,,62,100
39530,note_on,0,0,4,,,,,,,,,3,,,50,0
39530,note_on,50,0,3,,,,,,,,,2,,,50,0
39530,note_on,50,0,8,,,,,,,,,7,,,66,0
39530,note_on,50,0,7,,,,,,,,,6,,,81,0
39530,note_on,50,0,11,,,,,,,,,11,,,38,0
39530,note_on,50,0,10,,,,,,,,,10,,,50,0
39530,note_on,50,0,4,,,,,,,,,3,,,62,0
39540,note_on,10,0,3,,,,,,,,,2,,,50,100
39540,note_on,10,0,8,,,,,,,,,7,,,66,100
39540,note_on,10,0,10,,,,,,,,,10,,,50,100
39540,note_on,0,0,4,,,,,,,,,3,,,62,100
39540,note_on,10,0,4,,,,,,,,,3,,,50,100
39540,note_on,10,0,11,,,,,,,,,11,,,38,100
39590,note_on,50,0,3,,,,,,,,,2,,,50,0
39590,note_on,0,0,4,,,,,,,,,3,,,50,0
39590,note_on,50,0,11,,,,,,,,,11,,,38,0
39590,note_on,50,0,8,,,,,,,,,7,,,66,0
39590,note_on,50,0,10,,,,,,,,,10,,,50,0
39590,note_on,50,0,4,,,,,,,,,3,,,62,0
39600,note_on,10,0,4,,,,,,,,,3,,,50,100
39600,note_on,10,0,3,,,,,,,,,2,,,50,100
39600,note_on,70,0,7,,,,,,,,,6,,,78,110
39600,note_on,10,0,8,,,,,,,,,7,,,66,100
39600,note_on,10,0,10,,,,,,,,,10,,,50,100
39600,note_on,10,0,11,,,,,,,,,11,,,38,100
39600,note_on,0,0,4,,,,,,,,,3,,,62,100
39650,note_on,50,0,8,,,,,,,,,7,,,66,0
39650,note_on,50,0,7,,,,,,,,,6,,,78,0
39650,note_on,50,0,3,,,,,,,,,2,,,50,0
39650,note_on,50,0,4,,,,,,,,,3,,,62,0
39650,note_on,50,0,11,,,,,,,,,11,,,38,0
39650,note_on,50,0,10,,,,,,,,,10,,,50,0
39650,note_on,0,0,4,,,,,,,,,3,,,50,0
39660,note_on,10,0,3,,,,,,,,,2,,,50,100
39660,note_on,10,0,11,,,,,,,,,11,,,38,100
39660,note_on,10,0,8,,,,,,,,,7,,,66,100
39660,note_on,10,0,10,,,,,,,,,10,,,50,100
39660,note_on,0,0,4,,,,,,,,,3,,,62,100
39660,note_on,10,0,4,,,,,,,,,3,,,50,100
39710,note_on,0,0,4,,,,,,,,,3,,,50,0
39710,note_on,50,0,11,,,,,,,,,11,,,38,0
39710,note_on,50,0,8,,,,,,,,,7,,,66,0
39710,note_on,50,0,3,,,,,,,,,2,,,50,0
39710,note_on,50,0,4,,,,,,,,,3,,,62,0
39710,note_on,50,0,10,,,,,,,,,10,,,50,0
39720,note_on,10,0,11,,,,,,,,,11,,,38,100
39720,note_on,10,0,10,,,,,,,,,10,,,50,100
39720,note_on,10,0,4,,,,,,,,,3,,,50,100
39720,note_on,0,0,4,,,,,,,,,3,,,62,100
39720,note_on,70,0,7,,,,,,,,,6,,,74,110
39720,note_on,10,0,8,,,,,,,,,7,,,66,100
39720,note_on,10,0,3,,,,,,,,,2,,,50,100
39770,note_on,50,0,10,,,,,,,,,10,,,50,0
39770,note_on,50,0,8,,,,,,,,,7,,,66,0
39770,note_on,0,0,4,,,,,,,,,3,,,50,0
39770,note_on,50,0,4,,,,,,,,,3,,,62,0
39770,note_on,50,0,7,,,,,,,,,6,,,74,0
39770,note_on,50,0,3,,,,,,,,,2,,,50,0
39770,note_on,50,0,11,,,,,,,,,11,,,38,0
39780,note_on,10,0,4,,,,,,,,,3,,,50,100
39780,note_on,10,0,11,,,,,,,,,11,,,40,100
39780,note_on,0,0,4,,,,,,,,,3,,,62,100
39780,note_on,10,0,3,,,,,,,,,2,,,52,100
39780,note_on,10,0,10,,,,,,,,,10,,,52,100
39780,note_on,10,0,8,,,,,,,,,7,,,68,100
39810,note_on,30,0,11,,,,,,,,,11,,,40,0
39810,note_on,0,0,11,,,,,,,,,11,,,42,100
39810,note_on,30,0,3,,,,,,,,,2,,,52,0
39810,note_on,0,0,3,,,,,,,,,2,,,54,100
39810,note_on,0,0,10,,,,,,,,,10,,,54,100
39810,note_on,30,0,8,,,,,,,,,7,,,68,0
39810,note_on,0,0,8,,,,,,,,,7,,,69,100
39810,note_on,30,0,10,,,,,,,,,10,,,52,0
39830,note_on,50,0,4,,,,,,,,,3,,,62,0
39830,note_on,0,0,4,,,,,,,,,3,,,50,0
39840,note_on,0,0,1,,,,,,,,,0,,,83,100
39840,note_on,0,0,8,,,,,,,,,7,,,71,100
39840,note_on,30,0,11,,,,,,,,,11,,,42,0
39840,note_on,0,0,11,,,,,,,,,11,,,44,100
39840,note_on,30,0,8,,,,,,,,,7,,,69,0
39840,note_on,0,0,2,,,,,,,,,1,,,80,100
39840,note_on,480,0,2,,,,,,,,,1,,,81,0
39840,note_on,70,0,7,,,,,,,,,6,,,83,100
39840,note_on,480,0,1,,,,,,,,,0,,,85,0
39840,note_on,30,0,3,,,,,,,,,2,,,54,0
39840,note_on,0,0,3,,,,,,,,,2,,,56,100
39840,note_on,0,0,4,,,,,,,,,3,,,62,100
39840,note_on,10,0,4,,,,,,,,,3,,,50,100
39840,note_on,0,0,10,,,,,,,,,10,,,56,100
39840,note_on,30,0,10,,,,,,,,,10,,,54,0
39890,note_on,50,0,7,,,,,,,,,6,,,83,0
39890,note_on,50,0,3,,,,,,,,,2,,,56,0
39890,note_on,50,0,8,,,,,,,,,7,,,71,0
39900,note_on,10,0,7,,,,,,,,,6,,,59,100
39900,note_on,420,0,9,,,,,,,,,8,,,56,100
39900,note_on,10,0,3,,,,,,,,,2,,,56,100
39950,note_on,50,0,7,,,,,,,,,6,,,59,0
39950,note_on,50,0,3,,,,,,,,,2,,,56,0
39950,note_on,50,0,9,,,,,,,,,8,,,56,0
39960,note_on,70,0,8,,,,,,,,,7,,,74,115
39960,note_on,120,0,11,,,,,,,,,11,,,44,0
39960,note_on,120,0,10,,,,,,,,,10,,,56,0
39960,note_on,120,0,4,,,,,,,,,3,,,62,0
39960,note_on,0,0,4,,,,,,,,,3,,,50,0
39960,note_on,10,0,9,,,,,,,,,8,,,56,100
39960,note_on,10,0,7,,,,,,,,,6,,,59,100
39960,note_on,10,0,3,,,,,,,,,2,,,56,100
40005,note_on,45,0,7,,,,,,,,,6,,,59,0
40010,note_on,50,0,9,,,,,,,,,8,,,56,0
40010,note_on,50,0,8,,,,,,,,,7,,,74,0
40010,note_on,50,0,3,,,,,,,,,2,,,56,0
40020,note_on,10,0,3,,,,,,,,,2,,,56,100
40020,note_on,15,0,7,,,,,,,,,6,,,59,100
40020,note_on,10,0,9,,,,,,,,,8,,,56,100
40070,note_on,50,0,3,,,,,,,,,2,,,56,0
40070,note_on,50,0,7,,,,,,,,,6,,,59,0
40070,note_on,50,0,9,,,,,,,,,8,,,56,0
40080,note_on,10,0,7,,,,,,,,,6,,,59,100
40080,note_on,10,0,3,,,,,,,,,2,,,56,100
40080,note_on,10,0,9,,,,,,,,,8,,,56,100
40080,note_on,70,0,8,,,,,,,,,7,,,71,115
40130,note_on,50,0,7,,,,,,,,,6,,,59,0
40130,note_on,50,0,3,,,,,,,,,2,,,56,0
40130,note_on,50,0,8,,,,,,,,,7,,,71,0
40130,note_on,50,0,9,,,,,,,,,8,,,56,0
40140,note_on,10,0,3,,,,,,,,,2,,,56,100
40140,note_on,10,0,7,,,,,,,,,6,,,59,100
40140,note_on,10,0,9,,,,,,,,,8,,,56,100
40190,note_on,50,0,3,,,,,,,,,2,,,56,0
40190,note_on,50,0,7,,,,,,,,,6,,,59,0
40190,note_on,50,0,9,,,,,,,,,8,,,56,0
40200,note_on,10,0,3,,,,,,,,,2,,,56,100
40200,note_on,70,0,8,,,,,,,,,7,,,68,115
40200,note_on,10,0,7,,,,,,,,,6,,,59,100
40200,note_on,10,0,9,,,,,,,,,8,,,56,100
40250,note_on,50,0,8,,,,,,,,,7,,,68,0
40250,note_on,50,0,3,,,,,,,,,2,,,56,0
40250,note_on,50,0,9,,,,,,,,,8,,,56,0
40250,note_on,50,0,7,,,,,,,,,6,,,59,0
40260,note_on,10,0,7,,,,,,,,,6,,,61,100
40260,note_on,10,0,3,,,,,,,,,2,,,57,100
40260,note_on,10,0,9,,,,,,,,,8,,,57,100
40290,note_on,0,0,9,,,,,,,,,8,,,59,100
40290,note_on,30,0,9,,,,,,,,,8,,,57,0
40290,note_on,30,0,7,,,,,,,,,6,,,61,0
40290,note_on,0,0,7,,,,,,,,,6,,,62,100
40290,note_on,0,0,3,,,,,,,,,2,,,59,100
40290,note_on,30,0,3,,,,,,,,,2,,,57,0
40320,note_on,480,0,2,,,,,,,,,1,,,74,0
40320,note_on,0,0,9,,,,,,,,,8,,,61,100
40320,note_on,30,0,9,,,,,,,,,8,,,59,0
40320,note_on,0,0,3,,,,,,,,,2,,,61,100
40320,note_on,30,0,7,,,,,,,,,6,,,62,0
40320,note_on,0,0,7,,,,,,,,,6,,,64,100
40320,note_on,30,0,3,,,,,,,,,2,,,59,0
40320,note_on,480,0,1,,,,,,,,,0,,,90,0
40320,note_on,0,0,1,,,,,,,,,0,,,88,100
40320,note_on,0,0,2,,,,,,,,,1,,,73,100
40320,note_on,70,0,8,,,,,,,,,7,,,76,100
40370,note_on,50,0,8,,,,,,,,,7,,,76,0
40370,note_on,50,0,3,,,,,,,,,2,,,61,0
40370,note_on,50,0,7,,,,,,,,,6,,,64,0
40380,note_on,10,0,3,,,,,,,,,2,,,49,100
40380,note_on,420,0,4,,,,,,,,,3,,,64,100
40380,note_on,420,0,10,,,,,,,,,10,,,49,100
40380,note_on,10,0,8,,,,,,,,,7,,,64,100
40380,note_on,420,0,11,,,,,,,,,11,,,37,100
40430,note_on,50,0,11,,,,,,,,,11,,,37,0
40430,note_on,50,0,10,,,,,,,,,10,,,49,0
40430,note_on,50,0,3,,,,,,,,,2,,,49,0
40430,note_on,50,0,4,,,,,,,,,3,,,64,0
40430,note_on,50,0,8,,,,,,,,,7,,,64,0
40440,note_on,10,0,11,,,,,,,,,11,,,37,100
40440,note_on,10,0,3,,,,,,,,,2,,,49,100
40440,note_on,70,0,7,,,,,,,,,6,,,80,110
40440,note_on,10,0,10,,,,,,,,,10,,,49,100
40440,note_on,10,0,4,,,,,,,,,3,,,64,100
40440,note_on,10,0,8,,,,,,,,,7,,,64,100
40440,note_on,120,0,9,,,,,,,,,8,,,61,0
40490,note_on,50,0,4,,,,,,,,,3,,,64,0
40490,note_on,50,0,11,,,,,,,,,11,,,37,0
40490,note_on,50,0,3,,,,,,,,,2,,,49,0
40490,note_on,50,0,10,,,,,,,,,10,,,49,0
40490,note_on,50,0,7,,,,,,,,,6,,,80,0
40490,note_on,50,0,8,,,,,,,,,7,,,64,0
40500,note_on,10,0,4,,,,,,,,,3,,,64,100
40500,note_on,10,0,11,,,,,,,,,11,,,37,100
40500,note_on,10,0,10,,,,,,,,,10,,,49,100
40500,note_on,10,0,3,,,,,,,,,2,,,49,100
40500,note_on,10,0,8,,,,,,,,,7,,,64,100
40550,note_on,50,0,11,,,,,,,,,11,,,37,0
40550,note_on,50,0,4,,,,,,,,,3,,,64,0
40550,note_on,50,0,3,,,,,,,,,2,,,49,0
40550,note_on,50,0,10,,,,,,,,,10,,,49,0
40550,note_on,50,0,8,,,,,,,,,7,,,64,0
40560,note_on,10,0,10,,,,,,,,,10,,,49,100
40560,note_on,70,0,7,,,,,,,,,6,,,76,110
40560,note_on,10,0,11,,,,,,,,,11,,,37,100
40560,note_on,10,0,3,,,,,,,,,2,,,49,100
40560,note_on,10,0,8,,,,,,,,,7,,,64,100
40560,note_on,10,0,4,,,,,,,,,3,,,64,100
40610,note_on,50,0,4,,,,,,,,,3,,,64,0
40610,note_on,50,0,3,,,,,,,,,2,,,49,0
40610,note_on,50,0,10,,,,,,,,,10,,,49,0
40610,note_on,50,0,7,,,,,,,,,6,,,76,0
40610,note_on,50,0,8,,,,,,,,,7,,,64,0
40610,note_on,50,0,11,,,,,,,,,11,,,37,0
40620,note_on,10,0,8,,,,,,,,,7,,,64,100
40620,note_on,10,0,4,,,,,,,,,3,,,64,100
40620,note_on,10,0,3,,,,,,,,,2,,,49,100
40620,note_on,10,0,11,,,,,,,,,11,,,37,100
40620,note_on,10,0,10,,,,,,,,,10,,,49,100
40670,note_on,50,0,8,,,,,,,,,7,,,64,0
40670,note_on,50,0,10,,,,,,,,,10,,,49,0
40670,note_on,50,0,11,,,,,,,,,11,,,37,0
40670,note_on,50,0,4,,,,,,,,,3,,,64,0
40670,note_on,50,0,3,,,,,,,,,2,,,49,0
40680,note_on,10,0,8,,,,,,,,,7,,,64,100
40680,note_on,70,0,7,,,,,,,,,6,,,73,110
40680,note_on,10,0,11,,,,,,,,,11,,,37,100
40680,note_on,10,0,10,,,,,,,,,10,,,49,100
40680,note_on,10,0,4,,,,,,,,,3,,,64,100
40680,note_on,10,0,3,,,,,,,,,2,,,49,100
40730,note_on,50,0,11,,,,,,,,,11,,,37,0
40730,note_on,50,0,8,,,,,,,,,7,,,64,0
40730,note_on,50,0,4,,,,,,,,,3,,,64,0
40730,note_on,50,0,7,,,,,,,,,6,,,73,0
40730,note_on,50,0,3,,,,,,,,,2,,,49,0
40730,note_on,50,0,10,,,,,,,,,10,,,49,0
40740,note_on,10,0,4,,,,,,,,,3,,,64,100
40740,note_on,10,0,10,,,,,,,,,10,,,50,100
40740,note_on,10,0,3,,,,,,,,,2,,,50,100
40740,note_on,10,0,8,,,,,,,,,7,,,66,100
40740,note_on,10,0,11,,,,,,,,,11,,,38,100
40770,note_on,0,0,8,,,,,,,,,7,,,68,100
40770,note_on,30,0,10,,,,,,,,,10,,,50,0
40770,note_on,0,0,10,,,,,,,,,10,,,52,100
40770,note_on,30,0,11,,,,,,,,,11,,,38,0
40770,note_on,0,0,11,,,,,,,,,11,,,40,100
40770,note_on,30,0,3,,,,,,,,,2,,,50,0
40770,note_on,0,0,3,,,,,,,,,2,,,52,100
40770,note_on,30,0,8,,,,,,,,,7,,,66,0
40790,note_on,50,0,4,,,,,,,,,3,,,64,0
40800,note_on,30,0,11,,,,,,,,,11,,,40,0
40800,note_on,0,0,11,,,,,,,,,11,,,42,100
40800,note_on,0,0,3,,,,,,,,,2,,,54,100
40800,note_on,30,0,3,,,,,,,,,2,,,52,0
40800,note_on,0,0,4,,,,,,,,,3,,,64,100
40800,note_on,10,0,4,,,,,,,,,3,,,57,100
40800,note_on,480,0,1,,,,,,,,,0,,,83,0
40800,note_on,30,0,10,,,,,,,,,10,,,52,0
40800,note_on,70,0,7,,,,,,,,,6,,,81,100
40800,note_on,480,0,2,,,,,,,,,1,,,80,0
40800,note_on,0,0,2,,,,,,,,,1,,,78,100
40800,note_on,0,0,10,,,,,,,,,10,,,54,100
40800,note_on,0,0,8,,,,,,,,,7,,,69,100
40800,note_on,0,0,1,,,,,,,,,0,,,81,100
40800,note_on,30,0,8,,,,,,,,,7,,,68,0
40850,note_on,50,0,8,,,,,,,,,7,,,69,0
40850,note_on,50,0,7,,,,,,,,,6,,,81,0
40850,note_on,50,0,3,,,,,,,,,2,,,54,0
40860,note_on,420,0,9,,,,,,,,,8,,,54,100
40860,note_on,10,0,3,,,,,,,,,2,,,54,100
40860,note_on,10,0,7,,,,,,,,,6,,,57,100
40910,note_on,50,0,3,,,,,,,,,2,,,54,0
40910,note_on,50,0,9,,,,,,,,,8,,,54,0
40910,note_on,50,0,7,,,,,,,,,6,,,57,0
40920,note_on,10,0,3,,,,,,,,,2,,,54,100
40920,note_on,120,0,4,,,,,,,,,3,,,64,0
40920,note_on,120,0,11,,,,,,,,,11,,,42,0
40920,note_on,70,0,8,,,,,,,,,7,,,73,115
40920,note_on,0,0,4,,,,,,,,,3,,,57,0
40920,note_on,10,0,7,,,,,,,,,6,,,57,100
40920,note_on,120,0,10,,,,,,,,,10,,,54,0
40920,note_on,10,0,9,,,,,,,,,8,,,54,100
40970,note_on,50,0,3,,,,,,,,,2,,,54,0
40970,note_on,50,0,7,,,,,,,,,6,,,57,0
40970,note_on,50,0,8,,,,,,,,,7,,,73,0
40970,note_on,50,0,9,,,,,,,,,8,,,54,0
40980,note_on,10,0,3,,,,,,,,,2,,,54,100
40980,note_on,10,0,7,,,,,,,,,6,,,57,100
40980,note_on,10,0,9,,,,,,,,,8,,,54,100
41030,note_on,50,0,9,,,,,,,,,8,,,54,0
41030,note_on,50,0,3,,,,,,,,,2,,,54,0
41030,note_on,50,0,7,,,,,,,,,6,,,57,0
41040,note_on,10,0,7,,,,,,,,,6,,,57,100
41040,note_on,10,0,3,,,,,,,,,2,,,54,100
41040,note_on,70,0,8,,,,,,,,,7,,,69,115
41040,note_on,10,0,9,,,,,,,,,8,,,54,100
41090,note_on,50,0,7,,,,,,,,,6,,,57,0
41090,note_on,50,0,8,,,,,,,,,7,,,69,0
41090,note_on,50,0,9,,,,,,,,,8,,,54,0
41090,note_on,50,0,3,,,,,,,,,2,,,54,0
41100,note_on,10,0,3,,,,,,,,,2,,,54,100
41100,note_on,10,0,9,,,,,,,,,8,,,54,100
41100,note_on,10,0,7,,,,,,,,,6,,,57,100
41150,note_on,50,0,3,,,,,,,,,2,,,54,0
41150,note_on,50,0,9,,,,,,,,,8,,,54,0
41150,note_on,50,0,7,,,,,,,,,6,,,57,0
41160,note_on,10,0,3,,,,,,,,,2,,,54,100
41160,note_on,10,0,9,,,,,,,,,8,,,54,100
41160,note_on,70,0,8,,,,,,,,,7,,,66,115
41160,note_on,10,0,7,,,,,,,,,6,,,57,100
41210,note_on,50,0,9,,,,,,,,,8,,,54,0
41210,note_on,50,0,7,,,,,,,,,6,,,57,0
41210,note_on,50,0,3,,,,,,,,,2,,,54,0
41210,note_on,50,0,8,,,,,,,,,7,,,66,0
41220,note_on,10,0,3,,,,,,,,,2,,,56,100
41220,note_on,10,0,9,,,,,,,,,8,,,56,100
41220,note_on,10,0,7,,,,,,,,,6,,,59,100
41250,note_on,30,0,3,,,,,,,,,2,,,56,0
41250,note_on,30,0,7,,,,,,,,,6,,,59,0
41250,note_on,30,0,9,,,,,,,,,8,,,56,0
41250,note_on,0,0,7,,,,,,,,,6,,,61,100
41250,note_on,0,0,9,,,,,,,,,8,,,57,100
41250,note_on,0,0,3,,,,,,,,,2,,,57,100
41280,note_on,0,0,1,,,,,,,,,0,,,86,100
41280,note_on,30,0,7,,,,,,,,,6,,,61,0
41280,note_on,0,0,9,,,,,,,,,8,,,59,100
41280,note_on,1800,0,5,,,,,,,,,4,,,66,100
41280,note_on,0,0,5,,,,,,,,,4,,,74,100
41280,note_on,1800,0,6,,,,,,,,,5,,,50,100
41280,note_on,480,0,1,,,,,,,,,0,,,88,0
41280,note_on,0,0,2,,,,,,,,,1,,,71,100
41280,note_on,30,0,9,,,,,,,,,8,,,57,0
41280,note_on,0,0,7,,,,,,,,,6,,,62,100
41280,note_on,30,0,3,,,,,,,,,2,,,57,0
41280,note_on,70,0,8,,,,,,,,,7,,,74,100
41280,note_on,0,0,3,,,,,,,,,2,,,59,100
41280,note_on,480,0,2,,,,,,,,,1,,,73,0
41330,note_on,50,0,3,,,,,,,,,2,,,59,0
41330,note_on,50,0,9,,,,,,,,,8,,,59,0
41330,note_on,50,0,8,,,,,,,,,7,,,74,0
41340,note_on,420,0,11,,,,,,,,,11,,,35,100
41340,note_on,420,0,4,,,,,,,,,3,,,50,100
41340,note_on,10,0,3,,,,,,,,,2,,,47,100
41340,note_on,10,0,9,,,,,,,,,8,,,62,100
41340,note_on,0,0,4,,,,,,,,,3,,,62,100
41340,note_on,420,0,10,,,,,,,,,10,,,47,100
41390,note_on,50,0,11,,,,,,,,,11,,,35,0
41390,note_on,50,0,3,,,,,,,,,2,,,47,0
41390,note_on,50,0,4,,,,,,,,,3,,,62,0
41390,note_on,0,0,4,,,,,,,,,3,,,50,0
41390,note_on,50,0,10,,,,,,,,,10,,,47,0
41390,note_on,50,0,9,,,,,,,,,8,,,62,0
41400,note_on,10,0,3,,,,,,,,,2,,,47,100
41400,note_on,10,0,9,,,,,,,,,8,,,62,100
41400,note_on,120,0,6,,,,,,,,,5,,,50,0
41400,note_on,120,0,5,,,,,,,,,4,,,74,0
41400,note_on,10,0,10,,,,,,,,,10,,,47,100
41400,note_on,10,0,4,,,,,,,,,3,,,50,100
41400,note_on,120,0,7,,,,,,,,,6,,,62,0
41400,note_on,0,0,4,,,,,,,,,3,,,62,100
41400,note_on,10,0,11,,,,,,,,,11,,,35,100
41400,note_on,0,0,5,,,,,,,,,4,,,66,0
41400,note_on,70,0,8,,,,,,,,,7,,,78,115
41450,note_on,50,0,9,,,,,,,,,8,,,62,0
41450,note_on,50,0,10,,,,,,,,,10,,,47,0
41450,note_on,0,0,4,,,,,,,,,3,,,50,0
41450,note_on,50,0,8,,,,,,,,,7,,,78,0
41450,note_on,50,0,4,,,,,,,,,3,,,62,0
41450,note_on,50,0,11,,,,,,,,,11,,,35,0
41450,note_on,50,0,3,,,,,,,,,2,,,47,0
41460,note_on,10,0,3,,,,,,,,,2,,,47,100
41460,note_on,10,0,11,,,,,,,,,11,,,35,100
41460,note_on,10,0,4,,,,,,,,,3,,,50,100
41460,note_on,0,0,4,,,,,,,,,3,,,62,100
41460,note_on,10,0,10,,,,,,,,,10,,,47,100
41460,note_on,10,0,9,,,,,,,,,8,,,62,100
41510,note_on,50,0,3,,,,,,,,,2,,,47,0
41510,note_on,50,0,10,,,,,,,,,10,,,47,0
41510,note_on,50,0,4,,,,,,,,,3,,,62,0
41510,note_on,0,0,4,,,,,,,,,3,,,50,0
41510,note_on,50,0,11,,,,,,,,,11,,,35,0
41510,note_on,50,0,9,,,,,,,,,8,,,62,0
41520,note_on,10,0,9,,,,,,,,,8,,,62,100
41520,note_on,10,0,10,,,,,,,,,10,,,47,100
41520,note_on,10,0,3,,,,,,,,,2,,,47,100
41520,note_on,10,0,4,,,,,,,,,3,,,50,100
41520,note_on,0,0,4,,,,,,,,,3,,,62,100
41520,note_on,10,0,11,,,,,,,,,11,,,35,100
41520,note_on,70,0,8,,,,,,,,,7,,,74,115
41570,note_on,50,0,10,,,,,,,,,10,,,47,0
41570,note_on,50,0,9,,,,,,,,,8,,,62,0
41570,note_on,50,0,8,,,,,,,,,7,,,74,0
41570,note_on,50,0,11,,,,,,,,,11,,,35,0
41570,note_on,50,0,3,,,,,,,,,2,,,47,0
41570,note_on,50,0,4,,,,,,,,,3,,,62,0
41570,note_on,0,0,4,,,,,,,,,3,,,50,0
41580,note_on,10,0,10,,,,,,,,,10,,,47,100
41580,note_on,180,0,7,,,,,,,,,6,,,74,100
41580,note_on,10,0,4,,,,,,,,,3,,,50,100
41580,note_on,0,0,4,,,,,,,,,3,,,62,100
41580,note_on,10,0,9,,,,,,,,,8,,,62,100
41580,note_on,10,0,11,,,,,,,,,11,,,35,100
41580,note_on,10,0,3,,,,,,,,,2,,,47,100
41630,note_on,50,0,4,,,,,,,,,3,,,62,0
41630,note_on,0,0,4,,,,,,,,,3,,,50,0
41630,note_on,50,0,11,,,,,,,,,11,,,35,0
41630,note_on,50,0,9,,,,,,,,,8,,,62,0
41630,note_on,50,0,10,,,,,,,,,10,,,47,0
41630,note_on,50,0,3,,,,,,,,,2,,,47,0
41640,note_on,10,0,11,,,,,,,,,11,,,35,100
41640,note_on,10,0,10,,,,,,,,,10,,,47,100
41640,note_on,0,0,4,,,,,,,,,3,,,62,100
41640,note_on,10,0,3,,,,,,,,,2,,,47,100
41640,note_on,70,0,8,,,,,,,,,7,,,71,115
41640,note_on,60,0,7,,,,,,,,,6,,,74,0
41640,note_on,0,0,7,,,,,,,,,6,,,74,100
41640,note_on,10,0,9,,,,,,,,,8,,,62,100
41640,note_on,10,0,4,,,,,,,,,3,,,50,100
41690,note_on,50,0,8,,,,,,,,,7,,,71,0
41690,note_on,50,0,11,,,,,,,,,11,,,35,0
41690,note_on,50,0,4,,,,,,,,,3,,,62,0
41690,note_on,0,0,4,,,,,,,,,3,,,50,0
41690,note_on,50,0,3,,,,,,,,,2,,,47,0
41690,note_on,50,0,9,,,,,,,,,8,,,62,0
41690,note_on,50,0,10,,,,,,,,,10,,,47,0
41700,note_on,60,0,7,,,,,,,,,6,,,74,0
41700,note_on,0,0,4,,,,,,,,,3,,,62,100
41700,note_on,10,0,3,,,,,,,,,2,,,49,100
41700,note_on,10,0,10,,,,,,,,,10,,,49,100
41700,note_on,10,0,9,,,,,,,,,8,,,64,100
41700,note_on,10,0,11,,,,,,,,,11,,,37,100
41700,note_on,10,0,4,,,,,,,,,3,,,50,100
41700,note_on,0,0,7,,,,,,,,,6,,,74,100
41730,note_on,0,0,10,,,,,,,,,10,,,50,100
41730,note_on,30,0,11,,,,,,,,,11,,,37,0
41730,note_on,0,0,3,,,,,,,,,2,,,50,100
41730,note_on,30,0,3,,,,,,,,,2,,,49,0
41730,note_on,30,0,9,,,,,,,,,8,,,64,0
41730,note_on,30,0,10,,,,,,,,,10,,,49,0
41730,note_on,0,0,11,,,,,,,,,11,,,38,100
41730,note_on,0,0,9,,,,,,,,,8,,,66,100
41750,note_on,0,0,4,,,,,,,,,3,,,50,0
41750,note_on,50,0,4,,,,,,,,,3,,,62,0
41760,note_on,0,0,9,,,,,,,,,8,,,64,100
41760,note_on,480,0,1,,,,,,,,,0,,,81,0
41760,note_on,0,0,1,,,,,,,,,0,,,80,100
41760,note_on,10,0,4,,,,,,,,,3,,,50,100
41760,note_on,30,0,9,,,,,,,,,8,,,66,0
41760,note_on,0,0,5,,,,,,,,,4,,,74,100
41760,note_on,360,0,5,,,,,,,,,4,,,62,100
41760,note_on,480,0,2,,,,,,,,,1,,,71,0
41760,note_on,60,0,7,,,,,,,,,6,,,74,0
41760,note_on,0,0,7,,,,,,,,,6,,,74,100
41760,note_on,0,0,2,,,,,,,,,1,,,68,100
41760,note_on,0,0,2,,,,,,,,,1,,,71,100
41760,note_on,30,0,10,,,,,,,,,10,,,50,0
41760,note_on,0,0,10,,,,,,,,,10,,,52,100
41760,note_on,0,0,2,,,,,,,,,1,,,78,0
41760,note_on,30,0,3,,,,,,,,,2,,,50,0
41760,note_on,0,0,4,,,,,,,,,3,,,62,100
41760,note_on,70,0,8,,,,,,,,,7,,,59,100
41760,note_on,0,0,8,,,,,,,,,7,,,68,100
41760,note_on,0,0,11,,,,,,,,,11,,,40,100
41760,note_on,360,0,6,,,,,,,,,5,,,50,100
41760,note_on,30,0,11,,,,,,,,,11,,,38,0
41760,note_on,0,0,3,,,,,,,,,2,,,52,100
41820,note_on,60,0,7,,,,,,,,,6,,,74,0
41820,note_on,0,0,7,,,,,,,,,6,,,76,104
41850,note_on,0,0,7,,,,,,,,,6,,,78,106
41850,note_on,30,0,7,,,,,,,,,6,,,76,0
41880,note_on,120,0,11,,,,,,,,,11,,,40,0
41880,note_on,0,0,8,,,,,,,,,7,,,59,0
41880,note_on,120,0,8,,,,,,,,,7,,,68,0
41880,note_on,120,0,6,,,,,,,,,5,,,50,0
41880,note_on,120,0,10,,,,,,,,,10,,,52,0
41880,note_on,120,0,3,,,,,,,,,2,,,52,0
41880,note_on,0,0,7,,,,,,,,,6,,,80,108
41880,note_on,30,0,7,,,,,,,,,6,,,78,0
41880,note_on,120,0,9,,,,,,,,,8,,,64,0
41910,note_on,30,0,7,,,,,,,,,6,,,80,0
41910,note_on,0,0,7,,,,,,,,,6,,,81,111
41940,note_on,0,0,7,,,,,,,,,6,,,83,113
41940,note_on,30,0,7,,,,,,,,,6,,,81,0
41970,note_on,0,0,7,,,,,,,,,6,,,85,115
41970,note_on,30,0,7,,,,,,,,,6,,,83,0
42000,note_on,0,0,7,,,,,,,,,6,,,86,117
42000,note_on,30,0,7,,,,,,,,,6,,,85,0
42060,note_on,0,0,8,,,,,,,,,7,,,68,100
42060,note_on,0,0,7,,,,,,,,,6,,,74,100
42060,note_on,60,0,7,,,,,,,,,6,,,86,0
42060,note_on,180,0,8,,,,,,,,,7,,,59,100
42060,note_on,180,0,10,,,,,,,,,10,,,52,100
42060,note_on,180,0,11,,,,,,,,,11,,,40,100
42060,note_on,180,0,9,,,,,,,,,8,,,64,100
42060,note_on,180,0,3,,,,,,,,,2,,,52,100
42120,note_on,60,0,3,,,,,,,,,2,,,52,0
42120,note_on,60,0,11,,,,,,,,,11,,,40,0
42120,note_on,0,0,3,,,,,,,,,2,,,52,100
42120,note_on,0,0,9,,,,,,,,,8,,,64,100
42120,note_on,60,0,9,,,,,,,,,8,,,64,0
42120,note_on,0,0,10,,,,,,,,,10,,,52,100
42120,note_on,60,0,10,,,,,,,,,10,,,52,0
42120,note_on,60,0,8,,,,,,,,,7,,,68,0
42120,note_on,0,0,11,,,,,,,,,11,,,40,100
42120,note_on,0,0,8,,,,,,,,,7,,,59,0
42120,note_on,60,0,7,,,,,,,,,6,,,74,0
42120,note_on,0,0,7,,,,,,,,,6,,,74,100
42120,note_on,0,0,8,,,,,,,,,7,,,59,100
42120,note_on,0,0,8,,,,,,,,,7,,,68,100
42180,note_on,60,0,7,,,,,,,,,6,,,74,0
42180,note_on,60,0,10,,,,,,,,,10,,,52,0
42180,note_on,0,0,10,,,,,,,,,10,,,52,100
42180,note_on,0,0,7,,,,,,,,,6,,,74,100
42180,note_on,0,0,8,,,,,,,,,7,,,68,100
42180,note_on,0,0,8,,,,,,,,,7,,,59,100
42180,note_on,0,0,11,,,,,,,,,11,,,40,100
42180,note_on,0,0,8,,,,,,,,,7,,,59,0
42180,note_on,60,0,11,,,,,,,,,11,,,40,0
42180,note_on,60,0,3,,,,,,,,,2,,,52,0
42180,note_on,0,0,3,,,,,,,,,2,,,52,100
42180,note_on,0,0,9,,,,,,,,,8,,,64,100
42180,note_on,60,0,9,,,,,,,,,8,,,64,0
42180,note_on,60,0,8,,,,,,,,,7,,,68,0
42240,note_on,60,0,11,,,,,,,,,11,,,40,0
42240,note_on,60,0,9,,,,,,,,,8,,,64,0
42240,note_on,0,0,9,,,,,,,,,8,,,65,100
42240,note_on,0,0,8,,,,,,,,,7,,,69,100
42240,note_on,60,0,3,,,,,,,,,2,,,52,0
42240,note_on,0,0,10,,,,,,,,,10,,,53,100
42240,note_on,0,0,3,,,,,,,,,2,,,53,100
42240,note_on,60,0,10,,,,,,,,,10,,,52,0
42240,note_on,0,0,1,,,,,,,,,0,,,81,100
42240,note_on,480,0,1,,,,,,,,,0,,,80,0
42240,note_on,0,0,8,,,,,,,,,7,,,57,100
42240,note_on,360,0,6,,,,,,,,,5,,,50,100
42240,note_on,60,0,8,,,,,,,,,7,,,68,0
42240,note_on,60,0,7,,,,,,,,,6,,,74,0
42240,note_on,480,0,2,,,,,,,,,1,,,71,0
42240,note_on,0,0,8,,,,,,,,,7,,,59,0
42240,note_on,0,0,2,,,,,,,,,1,,,68,0
42240,note_on,0,0,2,,,,,,,,,1,,,74,100
42240,note_on,0,0,7,,,,,,,,,6,,,74,100
42240,note_on,0,0,11,,,,,,,,,11,,,41,100
42240,note_on,0,0,2,,,,,,,,,1,,,69,100
42300,note_on,0,0,7,,,,,,,,,6,,,76,104
42300,note_on,60,0,7,,,,,,,,,6,,,74,0
42330,note_on,30,0,7,,,,,,,,,6,,,76,0
42330,note_on,0,0,7,,,,,,,,,6,,,77,106
42360,note_on,120,0,9,,,,,,,,,8,,,65,0
42360,note_on,120,0,6,,,,,,,,,5,,,50,0
42360,note_on,0,0,8,,,,,,,,,7,,,57,0
42360,note_on,120,0,8,,,,,,,,,7,,,69,0
42360,note_on,120,0,10,,,,,,,,,10,,,53,0
42360,note_on,0,0,7,,,,,,,,,6,,,79,108
42360,note_on,120,0,11,,,,,,,,,11,,,41,0
42360,note_on,120,0,3,,,,,,,,,2,,,53,0
42360,note_on,30,0,7,,,,,,,,,6,,,77,0
42390,note_on,0,0,7,,,,,,,,,6,,,81,111
42390,note_on,30,0,7,,,,,,,,,6,,,79,0
42420,note_on,0,0,7,,,,,,,,,6,,,83,113
42420,note_on,30,0,7,,,,,,,,,6,,,81,0
42450,note_on,30,0,7,,,,,,,,,6,,,83,0
42450,note_on,0,0,7,,,,,,,,,6,,,85,115
42480,note_on,0,0,7,,,,,,,,,6,,,86,117
42480,note_on,30,0,7,,,,,,,,,6,,,85,0
42540,note_on,180,0,10,,,,,,,,,10,,,53,100
42540,note_on,0,0,8,,,,,,,,,7,,,57,100
42540,note_on,180,0,8,,,,,,,,,7,,,69,100
42540,note_on,180,0,3,,,,,,,,,2,,,53,100
42540,note_on,0,0,7,,,,,,,,,6,,,74,100
42540,note_on,60,0,7,,,,,,,,,6,,,86,0
42540,note_on,180,0,9,,,,,,,,,8,,,65,100
42540,note_on,180,0,11,,,,,,,,,11,,,41,100
42600,note_on,0,0,7,,,,,,,,,6,,,74,100
42600,note_on,60,0,7,,,,,,,,,6,,,74,0
42600,note_on,60,0,9,,,,,,,,,8,,,65,0
42600,note_on,0,0,11,,,,,,,,,11,,,41,100
42600,note_on,60,0,11,,,,,,,,,11,,,41,0
42600,note_on,0,0,8,,,,,,,,,7,,,69,100
42600,note_on,0,0,8,,,,,,,,,7,,,69,0
42600,note_on,0,0,8,,,,,,,,,7,,,57,100
42600,note_on,0,0,3,,,,,,,,,2,,,53,100
42600,note_on,60,0,3,,,,,,,,,2,,,53,0
42600,note_on,0,0,10,,,,,,,,,10,,,53,100
42600,note_on,60,0,8,,,,,,,,,7,,,57,0
42600,note_on,60,0,10,,,,,,,,,10,,,53,0
42600,note_on,0,0,9,,,,,,,,,8,,,65,100
42660,note_on,0,0,8,,,,,,,,,7,,,69,0
42660,note_on,60,0,8,,,,,,,,,7,,,57,0
42660,note_on,0,0,8,,,,,,,,,7,,,69,100
42660,note_on,0,0,8,,,,,,,,,7,,,57,100
42660,note_on,0,0,3,,,,,,,,,2,,,53,100
42660,note_on,60,0,3,,,,,,,,,2,,,53,0
42660,note_on,60,0,7,,,,,,,,,6,,,74,0
42660,note_on,0,0,7,,,,,,,,,6,,,74,100
42660,note_on,60,0,11,,,,,,,,,11,,,41,0
42660,note_on,60,0,10,,,,,,,,,10,,,53,0
42660,note_on,0,0,10,,,,,,,,,10,,,53,100
42660,note_on,0,0,11,,,,,,,,,11,,,41,100
42660,note_on,0,0,9,,,,,,,,,8,,,65,100
42660,note_on,60,0,9,,,,,,,,,8,,,65,0
42720,note_on,480,0,1,,,,,,,,,0,,,81,0
42720,note_on,0,0,10,,,,,,,,,10,,,54,100
42720,note_on,60,0,10,,,,,,,,,10,,,53,0
42720,note_on,0,0,11,,,,,,,,,11,,,42,100
42720,note_on,60,0,11,,,,,,,,,11,,,41,0
42720,note_on,0,0,8,,,,,,,,,7,,,69,100
42720,note_on,480,0,2,,,,,,,,,1,,,69,0
42720,note_on,60,0,9,,,,,,,,,8,,,65,0
42720,note_on,0,0,2,,,,,,,,,1,,,74,0
42720,note_on,0,0,2,,,,,,,,,1,,,72,100
42720,note_on,60,0,8,,,,,,,,,7,,,57,0
42720,note_on,0,0,3,,,,,,,,,2,,,54,100
42720,note_on,60,0,3,,,,,,,,,2,,,53,0
42720,note_on,0,0,1,,,,,,,,,0,,,84,100
42720,note_on,360,0,6,,,,,,,,,5,,,50,100
42720,note_on,0,0,8,,,,,,,,,7,,,69,0
42720,note_on,60,0,7,,,,,,,,,6,,,74,0
42720,note_on,0,0,7,,,,,,,,,6,,,74,100
42720,note_on,0,0,8,,,,,,,,,7,,,72,100
42720,note_on,0,0,2,,,,,,,,,1,,,81,100
42720,note_on,0,0,9,,,,,,,,,8,,,66,100
42780,note_on,0,0,7,,,,,,,,,6,,,76,104
42780,note_on,60,0,7,,,,,,,,,6,,,74,0
42810,note_on,0,0,7,,,,,,,,,6,,,78,106
42810,note_on,30,0,7,,,,,,,,,6,,,76,0
42840,note_on,30,0,7,,,,,,,,,6,,,78,0
42840,note_on,0,0,7,,,,,,,,,6,,,79,108
42840,note_on,0,0,8,,,,,,,,,7,,,72,0
42840,note_on,120,0,9,,,,,,,,,8,,,66,0
42840,note_on,120,0,10,,,,,,,,,10,,,54,0
42840,note_on,120,0,11,,,,,,,,,11,,,42,0
42840,note_on,120,0,8,,,,,,,,,7,,,69,0
42840,note_on,120,0,3,,,,,,,,,2,,,54,0
42840,note_on,120,0,6,,,,,,,,,5,,,50,0
42870,note_on,30,0,7,,,,,,,,,6,,,79,0
42870,note_on,0,0,7,,,,,,,,,6,,,81,111
42900,note_on,0,0,7,,,,,,,,,6,,,82,113
42900,note_on,30,0,7,,,,,,,,,6,,,81,0
42930,note_on,0,0,7,,,,,,,,,6,,,84,115
42930,note_on,30,0,7,,,,,,,,,6,,,82,0
42960,note_on,0,0,7,,,,,,,,,6,,,86,117
42960,note_on,30,0,7,,,,,,,,,6,,,84,0
43020,note_on,60,0,7,,,,,,,,,6,,,86,0
43020,note_on,0,0,7,,,,,,,,,6,,,74,100
43020,note_on,180,0,10,,,,,,,,,10,,,54,100
43020,note_on,180,0,3,,,,,,,,,2,,,54,100
43020,note_on,0,0,8,,,,,,,,,7,,,69,100
43020,note_on,180,0,8,,,,,,,,,7,,,72,100
43020,note_on,180,0,9,,,,,,,,,8,,,66,100
43020,note_on,180,0,11,,,,,,,,,11,,,42,100
43080,note_on,60,0,9,,,,,,,,,8,,,66,0
43080,note_on,60,0,8,,,,,,,,,7,,,69,0
43080,note_on,0,0,8,,,,,,,,,7,,,69,100
43080,note_on,0,0,10,,,,,,,,,10,,,54,100
43080,note_on,0,0,9,,,,,,,,,8,,,66,100
43080,note_on,0,0,3,,,,,,,,,2,,,54,100
43080,note_on,60,0,10,,,,,,,,,10,,,54,0
43080,note_on,0,0,8,,,,,,,,,7,,,72,0
43080,note_on,60,0,11,,,,,,,,,11,,,42,0
43080,note_on,0,0,11,,,,,,,,,11,,,42,100
43080,note_on,0,0,7,,,,,,,,,6,,,74,100
43080,note_on,60,0,7,,,,,,,,,6,,,74,0
43080,note_on,60,0,3,,,,,,,,,2,,,54,0
43080,note_on,0,0,8,,,,,,,,,7,,,72,100
43140,note_on,60,0,10,,,,,,,,,10,,,54,0
43140,note_on,60,0,9,,,,,,,,,8,,,66,0
43140,note_on,0,0,9,,,,,,,,,8,,,66,100
43140,note_on,0,0,10,,,,,,,,,10,,,54,100
43140,note_on,60,0,7,,,,,,,,,6,,,74,0
43140,note_on,0,0,7,,,,,,,,,6,,,74,100
43140,note_on,60,0,11,,,,,,,,,11,,,42,0
43140,note_on,0,0,11,,,,,,,,,11,,,42,100
43140,note_on,0,0,8,,,,,,,,,7,,,69,100
43140,note_on,0,0,8,,,,,,,,,7,,,72,100
43140,note_on,0,0,8,,,,,,,,,7,,,72,0
43140,note_on,60,0,8,,,,,,,,,7,,,69,0
43140,note_on,0,0,3,,,,,,,,,2,,,54,100
43140,note_on,60,0,3,,,,,,,,,2,,,54,0
43200,note_on,480,0,2,,,,,,,,,1,,,72,0
43200,note_on,60,0,11,,,,,,,,,11,,,42,0
43200,note_on,0,0,11,,,,,,,,,11,,,43,100
43200,note_on,0,0,2,,,,,,,,,1,,,70,100
43200,note_on,0,0,3,,,,,,,,,2,,,55,100
43200,note_on,60,0,3,,,,,,,,,2,,,54,0
43200,note_on,60,0,8,,,,,,,,,7,,,69,0
43200,note_on,0,0,2,,,,,,,,,1,,,81,0
43200,note_on,60,0,7,,,,,,,,,6,,,74,0
43200,note_on,0,0,7,,,,,,,,,6,,,74,100
43200,note_on,60,0,10,,,,,,,,,10,,,54,0
43200,note_on,0,0,10,,,,,,,,,10,,,55,100
43200,note_on,0,0,9,,,,,,,,,8,,,67,100
43200,note_on,480,0,1,,,,,,,,,0,,,84,0
43200,note_on,0,0,1,,,,,,,,,0,,,82,100
43200,note_on,360,0,6,,,,,,,,,5,,,50,100
43200,note_on,0,0,8,,,,,,,,,7,,,72,0
43200,note_on,60,0,9,,,,,,,,,8,,,66,0
43200,note_on,0,0,2,,,,,,,,,1,,,79,100
43260,note_on,60,0,7,,,,,,,,,6,,,74,0
43260,note_on,0,0,7,,,,,,,,,6,,,76,104
43290,note_on,0,0,7,,,,,,,,,6,,,78,106
43290,note_on,30,0,7,,,,,,,,,6,,,76,0
43320,note_on,120,0,10,,,,,,,,,10,,,55,0
43320,note_on,120,0,6,,,,,,,,,5,,,50,0
43320,note_on,0,0,7,,,,,,,,,6,,,79,108
43320,note_on,30,0,7,,,,,,,,,6,,,78,0
43320,note_on,120,0,9,,,,,,,,,8,,,67,0
43320,note_on,120,0,3,,,,,,,,,2,,,55,0
43320,note_on,120,0,11,,,,,,,,,11,,,43,0
43350,note_on,30,0,7,,,,,,,,,6,,,79,0
43350,note_on,0,0,7,,,,,,,,,6,,,81,111
43380,note_on,0,0,7,,,,,,,,,6,,,82,113
43380,note_on,30,0,7,,,,,,,,,6,,,81,0
43410,note_on,30,0,7,,,,,,,,,6,,,82,0
43410,note_on,0,0,7,,,,,,,,,6,,,84,115
43440,note_on,30,0,7,,,,,,,,,6,,,84,0
43440,note_on,0,0,7,,,,,,,,,6,,,86,117
43500,note_on,180,0,10,,,,,,,,,10,,,55,100
43500,note_on,300,0,8,,,,,,,,,7,,,67,100
43500,note_on,180,0,3,,,,,,,,,2,,,55,100
43500,note_on,180,0,9,,,,,,,,,8,,,55,100
43500,note_on,0,0,7,,,,,,,,,6,,,74,100
43500,note_on,60,0,7,,,,,,,,,6,,,86,0
43500,note_on,180,0,11,,,,,,,,,11,,,43,100
43500,note_on,0,0,8,,,,,,,,,7,,,70,100
43560,note_on,60,0,7,,,,,,,,,6,,,74,0
43560,note_on,0,0,7,,,,,,,,,6,,,74,100
43560,note_on,0,0,8,,,,,,,,,7,,,70,100
43560,note_on,0,0,8,,,,,,,,,7,,,67,100
43560,note_on,0,0,10,,,,,,,,,10,,,55,100
43560,note_on,60,0,10,,,,,,,,,10,,,55,0
43560,note_on,0,0,8,,,,,,,,,7,,,67,0
43560,note_on,60,0,3,,,,,,,,,2,,,55,0
43560,note_on,0,0,11,,,,,,,,,11,,,43,100
43560,note_on,60,0,11,,,,,,,,,11,,,43,0
43560,note_on,0,0,9,,,,,,,,,8,,,55,100
43560,note_on,0,0,3,,,,,,,,,2,,,55,100
43560,note_on,60,0,9,,,,,,,,,8,,,55,0
43560,note_on,60,0,8,,,,,,,,,7,,,70,0
43620,note_on,0,0,11,,,,,,,,,11,,,43,100
43620,note_on,60,0,11,,,,,,,,,11,,,43,0
43620,note_on,60,0,3,,,,,,,,,2,,,55,0
43620,note_on,60,0,10,,,,,,,,,10,,,55,0
43620,note_on,0,0,7,,,,,,,,,6,,,74,100
43620,note_on,0,0,8,,,,,,,,,7,,,70,100
43620,note_on,0,0,8,,,,,,,,,7,,,67,100
43620,note_on,0,0,8,,,,,,,,,7,,,67,0
43620,note_on,60,0,8,,,,,,,,,7,,,70,0
43620,note_on,0,0,10,,,,,,,,,10,,,55,100
43620,note_on,60,0,7,,,,,,,,,6,,,74,0
43620,note_on,60,0,9,,,,,,,,,8,,,55,0
43620,note_on,0,0,3,,,,,,,,,2,,,55,100
43620,note_on,0,0,9,,,,,,,,,8,,,55,100
43680,note_on,0,0,1,,,,,,,,,0,,,86,0
43680,note_on,480,0,1,,,,,,,,,0,,,82,0
43680,note_on,0,0,2,,,,,,,,,1,,,71,100
43680,note_on,0,0,2,,,,,,,,,1,,,77,100
43680,note_on,0,0,4,,,,,,,,,3,,,62,100
43680,note_on,0,0,4,,,,,,,,,3,,,50,100
43680,note_on,0,0,4,,,,,,,,,3,,,50,0
43680,note_on,1920,0,4,,,,,,,,,3,,,62,0
43680,note_on,60,0,10,,,,,,,,,10,,,55,0
43680,note_on,0,0,2,,,,,,,,,1,,,79,0
43680,note_on,480,0,2,,,,,,,,,1,,,70,0
43680,note_on,0,0,10,,,,,,,,,10,,,56,100
43680,note_on,0,0,3,,,,,,,,,2,,,56,100
43680,note_on,60,0,3,,,,,,,,,2,,,55,0
43680,note_on,60,0,7,,,,,,,,,6,,,74,0
43680,note_on,0,0,7,,,,,,,,,6,,,86,100
43680,note_on,0,0,7,,,,,,,,,6,,,74,100
43680,note_on,0,0,1,,,,,,,,,0,,,89,100
43680,note_on,0,0,8,,,,,,,,,7,,,77,100
43680,note_on,360,0,6,,,,,,,,,5,,,50,100
43680,note_on,60,0,8,,,,,,,,,7,,,70,0
43680,note_on,0,0,11,,,,,,,,,11,,,44,100
43680,note_on,0,0,8,,,,,,,,,7,,,67,0
43680,note_on,60,0,9,,,,,,,,,8,,,55,0
43680,note_on,0,0,9,,,,,,,,,8,,,56,100
43680,note_on,0,0,1,,,,,,,,,0,,,83,100
43680,note_on,1920,0,5,,,,,,,,,4,,,74,0
43680,note_on,60,0,11,,,,,,,,,11,,,43,0
43680,note_on,0,0,5,,,,,,,,,4,,,62,100
43680,note_on,0,0,5,,,,,,,,,4,,,74,100
43680,note_on,0,0,5,,,,,,,,,4,,,62,0
43710,note_on,0,0,9,,,,,,,,,8,,,56,100
43710,note_on,30,0,9,,,,,,,,,8,,,56,0
43710,note_on,0,0,8,,,,,,,,,7,,,77,100
43710,note_on,30,0,8,,,,,,,,,7,,,77,0
43710,note_on,30,0,11,,,,,,,,,11,,,44,0
43710,note_on,0,0,11,,,,,,,,,11,,,44,100
43710,note_on,0,0,7,,,,,,,,,6,,,74,100
43710,note_on,0,0,10,,,,,,,,,10,,,56,100
43710,note_on,30,0,10,,,,,,,,,10,,,56,0
43710,note_on,30,0,7,,,,,,,,,6,,,74,0
43710,note_on,0,0,7,,,,,,,,,6,,,86,0
43710,note_on,0,0,7,,,,,,,,,6,,,86,100
43740,note_on,0,0,9,,,,,,,,,8,,,56,100
43740,note_on,0,0,10,,,,,,,,,10,,,56,100
43740,note_on,30,0,9,,,,,,,,,8,,,56,0
43740,note_on,30,0,10,,,,,,,,,10,,,56,0
43740,note_on,0,0,7,,,,,,,,,6,,,74,100
43740,note_on,60,0,3,,,,,,,,,2,,,56,0
43740,note_on,0,0,7,,,,,,,,,6,,,86,0
43740,note_on,30,0,7,,,,,,,,,6,,,74,0
43740,note_on,0,0,11,,,,,,,,,11,,,44,100
43740,note_on,30,0,11,,,,,,,,,11,,,44,0
43740,note_on,0,0,3,,,,,,,,,2,,,56,100
43740,note_on,30,0,8,,,,,,,,,7,,,77,0
43740,note_on,0,0,8,,,,,,,,,7,,,77,100
43740,note_on,0,0,7,,,,,,,,,6,,,86,100
43770,note_on,30,0,7,,,,,,,,,6,,,74,0
43770,note_on,0,0,11,,,,,,,,,11,,,44,101
43770,note_on,30,0,11,,,,,,,,,11,,,44,0
43770,note_on,30,0,10,,,,,,,,,10,,,56,0
43770,note_on,0,0,8,,,,,,,,,7,,,77,101
43770,note_on,30,0,8,,,,,,,,,7,,,77,0
43770,note_on,0,0,9,,,,,,,,,8,,,56,101
43770,note_on,30,0,9,,,,,,,,,8,,,56,0
43770,note_on,0,0,7,,,,,,,,,6,,,74,101
43770,note_on,0,0,7,,,,,,,,,6,,,86,101
43770,note_on,0,0,10,,,,,,,,,10,,,56,101
43770,note_on,0,0,7,,,,,,,,,6,,,86,0
43800,note_on,60,0,3,,,,,,,,,2,,,56,0
43800,note_on,0,0,3,,,,,,,,,2,,,56,101
43800,note_on,30,0,11,,,,,,,,,11,,,44,0
43800,note_on,0,0,7,,,,,,,,,6,,,74,101
43800,note_on,0,0,11,,,,,,,,,11,,,44,101
43800,note_on,30,0,9,,,,,,,,,8,,,56,0
43800,note_on,0,0,9,,,,,,,,,8,,,56,101
43800,note_on,30,0,10,,,,,,,,,10,,,56,0
43800,note_on,0,0,10,,,,,,,,,10,,,56,101
43800,note_on,0,0,7,,,,,,,,,6,,,86,101
43800,note_on,0,0,7,,,,,,,,,6,,,86,0
43800,note_on,30,0,7,,,,,,,,,6,,,74,0
43800,note_on,0,0,8,,,,,,,,,7,,,77,101
43800,note_on,30,0,8,,,,,,,,,7,,,77,0
43800,note_on,120,0,6,,,,,,,,,5,,,50,0
43830,note_on,0,0,8,,,,,,,,,7,,,77,102
43830,note_on,0,0,7,,,,,,,,,6,,,86,102
43830,note_on,0,0,7,,,,,,,,,6,,,74,102
43830,note_on,30,0,8,,,,,,,,,7,,,77,0
43830,note_on,0,0,7,,,,,,,,,6,,,86,0
43830,note_on,0,0,10,,,,,,,,,10,,,56,102
43830,note_on,30,0,7,,,,,,,,,6,,,74,0
43830,note_on,0,0,11,,,,,,,,,11,,,44,102
43830,note_on,30,0,10,,,,,,,,,10,,,56,0
43830,note_on,0,0,9,,,,,,,,,8,,,56,102
43830,note_on,30,0,9,,,,,,,,,8,,,56,0
43830,note_on,30,0,11,,,,,,,,,11,,,44,0
43860,note_on,30,0,11,,,,,,,,,11,,,44,0
43860,note_on,0,0,11,,,,,,,,,11,,,44,102
43860,note_on,30,0,10,,,,,,,,,10,,,56,0
43860,note_on,0,0,7,,,,,,,,,6,,,74,102
43860,note_on,0,0,7,,,,,,,,,6,,,86,102
43860,note_on,0,0,7,,,,,,,,,6,,,86,0
43860,note_on,0,0,10,,,,,,,,,10,,,56,102
43860,note_on,30,0,7,,,,,,,,,6,,,74,0
43860,note_on,0,0,3,,,,,,,,,2,,,56,102
43860,note_on,30,0,8,,,,,,,,,7,,,77,0
43860,note_on,60,0,3,,,,,,,,,2,,,56,0
43860,note_on,0,0,9,,,,,,,,,8,,,56,102
43860,note_on,30,0,9,,,,,,,,,8,,,56,0
43860,note_on,0,0,8,,,,,,,,,7,,,77,102
43890,note_on,30,0,11,,,,,,,,,11,,,44,0
43890,note_on,0,0,9,,,,,,,,,8,,,56,103
43890,note_on,30,0,9,,,,,,,,,8,,,56,0
43890,note_on,0,0,7,,,,,,,,,6,,,74,103
43890,note_on,0,0,7,,,,,,,,,6,,,86,103
43890,note_on,0,0,7,,,,,,,,,6,,,86,0
43890,note_on,30,0,7,,,,,,,,,6,,,74,0
43890,note_on,30,0,10,,,,,,,,,10,,,56,0
43890,note_on,0,0,10,,,,,,,,,10,,,56,103
43890,note_on,0,0,11,,,,,,,,,11,,,44,103
43890,note_on,0,0,8,,,,,,,,,7,,,77,103
43890,note_on,30,0,8,,,,,,,,,7,,,77,0
43920,note_on,120,0,6,,,,,,,,,5,,,50,103
43920,note_on,30,0,9,,,,,,,,,8,,,56,0
43920,note_on,0,0,5,,,,,,,,,4,,,62,0
43920,note_on,240,0,5,,,,,,,,,4,,,74,0
43920,note_on,0,0,5,,,,,,,,,4,,,62,103
43920,note_on,0,0,5,,,,,,,,,4,,,74,103
43920,note_on,0,0,2,,,,,,,,,1,,,78,103
43920,note_on,0,0,2,,,,,,,,,1,,,77,0
43920,note_on,240,0,2,,,,,,,,,1,,,71,0
43920,note_on,0,0,4,,,,,,,,,3,,,50,0
43920,note_on,30,0,10,,,,,,,,,10,,,56,0
43920,note_on,0,0,9,,,,,,,,,8,,,57,103
43920,note_on,0,0,2,,,,,,,,,1,,,72,103
43920,note_on,0,0,11,,,,,,,,,11,,,45,103
43920,note_on,0,0,8,,,,,,,,,7,,,78,103
43920,note_on,0,0,3,,,,,,,,,2,,,57,103
43920,note_on,60,0,3,,,,,,,,,2,,,56,0
43920,note_on,30,0,7,,,,,,,,,6,,,74,0
43920,note_on,0,0,7,,,,,,,,,6,,,86,0
43920,note_on,0,0,7,,,,,,,,,6,,,86,103
43920,note_on,0,0,7,,,,,,,,,6,,,74,103
43920,note_on,30,0,8,,,,,,,,,7,,,77,0
43920,note_on,240,0,4,,,,,,,,,3,,,62,0
43920,note_on,0,0,1,,,,,,,,,0,,,84,103
43920,note_on,0,0,1,,,,,,,,,0,,,89,0
43920,note_on,240,0,1,,,,,,,,,0,,,83,0
43920,note_on,0,0,4,,,,,,,,,3,,,62,103
43920,note_on,0,0,4,,,,,,,,,3,,,50,103
43920,note_on,0,0,10,,,,,,,,,10,,,57,103
43920,note_on,30,0,11,,,,,,,,,11,,,44,0
43920,note_on,0,0,1,,,,,,,,,0,,,90,103
43950,note_on,30,0,10,,,,,,,,,10,,,57,0
43950,note_on,30,0,8,,,,,,,,,7,,,78,0
43950,note_on,0,0,8,,,,,,,,,7,,,78,104
43950,note_on,0,0,10,,,,,,,,,10,,,57,104
43950,note_on,30,0,9,,,,,,,,,8,,,57,0
43950,note_on,0,0,9,,,,,,,,,8,,,57,104
43950,note_on,0,0,11,,,,,,,,,11,,,45,104
43950,note_on,30,0,7,,,,,,,,,6,,,74,0
43950,note_on,0,0,7,,,,,,,,,6,,,86,0
43950,note_on,0,0,7,,,,,,,,,6,,,86,104
43950,note_on,0,0,7,,,,,,,,,6,,,74,104
43950,note_on,30,0,11,,,,,,,,,11,,,45,0
43980,note_on,0,0,7,,,,,,,,,6,,,86,104
43980,note_on,0,0,8,,,,,,,,,7,,,78,104
43980,note_on,30,0,8,,,,,,,,,7,,,78,0
43980,note_on,30,0,7,,,,,,,,,6,,,74,0
43980,note_on,0,0,7,,,,,,,,,6,,,86,0
43980,note_on,0,0,7,,,,,,,,,6,,,74,104
43980,note_on,60,0,3,,,,,,,,,2,,,57,0
43980,note_on,0,0,11,,,,,,,,,11,,,45,104
43980,note_on,0,0,9,,,,,,,,,8,,,57,104
43980,note_on,30,0,9,,,,,,,,,8,,,57,0
43980,note_on,0,0,3,,,,,,,,,2,,,57,104
43980,note_on,0,0,10,,,,,,,,,10,,,57,104
43980,note_on,30,0,10,,,,,,,,,10,,,57,0
43980,note_on,30,0,11,,,,,,,,,11,,,45,0
44010,note_on,0,0,8,,,,,,,,,7,,,78,105
44010,note_on,30,0,8,,,,,,,,,7,,,78,0
44010,note_on,30,0,11,,,,,,,,,11,,,45,0
44010,note_on,0,0,7,,,,,,,,,6,,,86,0
44010,note_on,0,0,11,,,,,,,,,11,,,45,105
44010,note_on,0,0,10,,,,,,,,,10,,,57,105
44010,note_on,30,0,10,,,,,,,,,10,,,57,0
44010,note_on,0,0,9,,,,,,,,,8,,,57,105
44010,note_on,0,0,7,,,,,,,,,6,,,74,105
44010,note_on,30,0,7,,,,,,,,,6,,,74,0
44010,note_on,0,0,7,,,,,,,,,6,,,86,105
44010,note_on,30,0,9,,,,,,,,,8,,,57,0
44040,note_on,30,0,11,,,,,,,,,11,,,45,0
44040,note_on,0,0,11,,,,,,,,,11,,,45,105
44040,note_on,30,0,10,,,,,,,,,10,,,57,0
44040,note_on,60,0,3,,,,,,,,,2,,,57,0
44040,note_on,0,0,8,,,,,,,,,7,,,78,105
44040,note_on,30,0,8,,,,,,,,,7,,,78,0
44040,note_on,0,0,7,,,,,,,,,6,,,74,105
44040,note_on,0,0,7,,,,,,,,,6,,,86,105
44040,note_on,0,0,7,,,,,,,,,6,,,86,0
44040,note_on,30,0,7,,,,,,,,,6,,,74,0
44040,note_on,0,0,3,,,,,,,,,2,,,57,105
44040,note_on,0,0,9,,,,,,,,,8,,,57,105
44040,note_on,30,0,9,,,,,,,,,8,,,57,0
44040,note_on,120,0,6,,,,,,,,,5,,,50,0
44040,note_on,0,0,10,,,,,,,,,10,,,57,105
44070,note_on,0,0,7,,,,,,,,,6,,,74,106
44070,note_on,0,0,8,,,,,,,,,7,,,78,106
44070,note_on,0,0,7,,,,,,,,,6,,,86,0
44070,note_on,0,0,7,,,,,,,,,6,,,86,106
44070,note_on,30,0,7,,,,,,,,,6,,,74,0
44070,note_on,30,0,8,,,,,,,,,7,,,78,0
44070,note_on,0,0,11,,,,,,,,,11,,,45,106
44070,note_on,0,0,9,,,,,,,,,8,,,57,106
44070,note_on,30,0,9,,,,,,,,,8,,,57,0
44070,note_on,0,0,10,,,,,,,,,10,,,57,106
44070,note_on,30,0,10,,,,,,,,,10,,,57,0
44070,note_on,30,0,11,,,,,,,,,11,,,45,0
44100,note_on,60,0,3,,,,,,,,,2,,,57,0
44100,note_on,0,0,3,,,,,,,,,2,,,57,106
44100,note_on,0,0,10,,,,,,,,,10,,,57,106
44100,note_on,30,0,10,,,,,,,,,10,,,57,0
44100,note_on,30,0,11,,,,,,,,,11,,,45,0
44100,note_on,0,0,8,,,,,,,,,7,,,78,106
44100,note_on,0,0,11,,,,,,,,,11,,,45,106
44100,note_on,30,0,8,,,,,,,,,7,,,78,0
44100,note_on,0,0,7,,,,,,,,,6,,,86,0
44100,note_on,0,0,7,,,,,,,,,6,,,86,106
44100,note_on,0,0,7,,,,,,,,,6,,,74,106
44100,note_on,0,0,9,,,,,,,,,8,,,57,106
44100,note_on,30,0,9,,,,,,,,,8,,,57,0
44100,note_on,30,0,7,,,,,,,,,6,,,74,0
44130,note_on,0,0,11,,,,,,,,,11,,,45,107
44130,note_on,30,0,7,,,,,,,,,6,,,74,0
44130,note_on,0,0,7,,,,,,,,,6,,,86,0
44130,note_on,0,0,7,,,,,,,,,6,,,86,107
44130,note_on,0,0,10,,,,,,,,,10,,,57,107
44130,note_on,0,0,8,,,,,,,,,7,,,78,107
44130,note_on,30,0,8,,,,,,,,,7,,,78,0
44130,note_on,0,0,7,,,,,,,,,6,,,74,107
44130,note_on,30,0,11,,,,,,,,,11,,,45,0
44130,note_on,30,0,10,,,,,,,,,10,,,57,0
44130,note_on,30,0,9,,,,,,,,,8,,,57,0
44130,note_on,0,0,9,,,,,,,,,8,,,57,107
44160,note_on,240,0,4,,,,,,,,,3,,,62,0
44160,note_on,0,0,1,,,,,,,,,0,,,91,107
44160,note_on,0,0,1,,,,,,,,,0,,,86,107
44160,note_on,0,0,4,,,,,,,,,3,,,50,0
44160,note_on,0,0,7,,,,,,,,,6,,,86,107
44160,note_on,30,0,10,,,,,,,,,10,,,57,0
44160,note_on,0,0,10,,,,,,,,,10,,,58,107
44160,note_on,0,0,11,,,,,,,,,11,,,46,107
44160,note_on,30,0,11,,,,,,,,,11,,,45,0
44160,note_on,0,0,9,,,,,,,,,8,,,58,107
44160,note_on,30,0,9,,,,,,,,,8,,,57,0
44160,note_on,0,0,1,,,,,,,,,0,,,84,0
44160,note_on,30,0,8,,,,,,,,,7,,,78,0
44160,note_on,240,0,2,,,,,,,,,1,,,72,0
44160,note_on,0,0,8,,,,,,,,,7,,,79,107
44160,note_on,0,0,2,,,,,,,,,1,,,74,107
44160,note_on,0,0,5,,,,,,,,,4,,,74,107
44160,note_on,0,0,5,,,,,,,,,4,,,62,107
44160,note_on,0,0,5,,,,,,,,,4,,,62,0
44160,note_on,240,0,5,,,,,,,,,4,,,74,0
44160,note_on,0,0,4,,,,,,,,,3,,,50,107
44160,note_on,0,0,4,,,,,,,,,3,,,62,107
44160,note_on,60,0,3,,,,,,,,,2,,,57,0
44160,note_on,0,0,3,,,,,,,,,2,,,58,107
44160,note_on,0,0,2,,,,,,,,,1,,,78,0
44160,note_on,240,0,1,,,,,,,,,0,,,90,0
44160,note_on,120,0,6,,,,,,,,,5,,,50,107
44160,note_on,0,0,7,,,,,,,,,6,,,86,0
44160,note_on,30,0,7,,,,,,,,,6,,,74,0
44160,note_on,0,0,2,,,,,,,,,1,,,79,107
44160,note_on,0,0,7,,,,,,,,,6,,,74,107
44190,note_on,30,0,9,,,,,,,,,8,,,58,0
44190,note_on,0,0,7,,,,,,,,,6,,,86,107
44190,note_on,0,0,7,,,,,,,,,6,,,74,107
44190,note_on,30,0,11,,,,,,,,,11,,,46,0
44190,note_on,0,0,7,,,,,,,,,6,,,74,0
44190,note_on,0,0,8,,,,,,,,,7,,,79,107
44190,note_on,0,0,11,,,,,,,,,11,,,46,107
44190,note_on,30,0,8,,,,,,,,,7,,,79,0
44190,note_on,0,0,9,,,,,,,,,8,,,58,107
44190,note_on,30,0,7,,,,,,,,,6,,,86,0
44190,note_on,0,0,10,,,,,,,,,10,,,58,107
44190,note_on,30,0,10,,,,,,,,,10,,,58,0
44220,note_on,30,0,11,,,,,,,,,11,,,46,0
44220,note_on,60,0,3,,,,,,,,,2,,,58,0
44220,note_on,0,0,7,,,,,,,,,6,,,86,108
44220,note_on,0,0,11,,,,,,,,,11,,,46,108
44220,note_on,0,0,7,,,,,,,,,6,,,74,0
44220,note_on,30,0,10,,,,,,,,,10,,,58,0
44220,note_on,0,0,9,,,,,,,,,8,,,58,108
44220,note_on,30,0,7,,,,,,,,,6,,,86,0
44220,note_on,0,0,3,,,,,,,,,2,,,58,108
44220,note_on,0,0,10,,,,,,,,,10,,,58,108
44220,note_on,0,0,8,,,,,,,,,7,,,79,108
44220,note_on,30,0,8,,,,,,,,,7,,,79,0
44220,note_on,30,0,9,,,,,,,,,8,,,58,0
44220,note_on,0,0,7,,,,,,,,,6,,,74,108
44250,note_on,30,0,9,,,,,,,,,8,,,58,0
44250,note_on,0,0,9,,,,,,,,,8,,,58,108
44250,note_on,30,0,10,,,,,,,,,10,,,58,0
44250,note_on,0,0,10,,,,,,,,,10,,,58,108
44250,note_on,30,0,7,,,,,,,,,6,,,86,0
44250,note_on,0,0,7,,,,,,,,,6,,,86,108
44250,note_on,30,0,11,,,,,,,,,11,,,46,0
44250,note_on,0,0,11,,,,,,,,,11,,,46,108
44250,note_on,0,0,8,,,,,,,,,7,,,79,108
44250,note_on,30,0,8,,,,,,,,,7,,,79,0
44250,note_on,0,0,7,,,,,,,,,6,,,74,108
44250,note_on,0,0,7,,,,,,,,,6,,,74,0
44280,note_on,0,0,10,,,,,,,,,10,,,58,109
44280,note_on,0,0,8,,,,,,,,,7,,,79,109
44280,note_on,30,0,8,,,,,,,,,7,,,79,0
44280,note_on,120,0,6,,,,,,,,,5,,,50,0
44280,note_on,0,0,3,,,,,,,,,2,,,58,109
44280,note_on,30,0,9,,,,,,,,,8,,,58,0
44280,note_on,60,0,3,,,,,,,,,2,,,58,0
44280,note_on,0,0,7,,,,,,,,,6,,,86,109
44280,note_on,0,0,7,,,,,,,,,6,,,74,109
44280,note_on,30,0,7,,,,,,,,,6,,,86,0
44280,note_on,0,0,7,,,,,,,,,6,,,74,0
44280,note_on,30,0,10,,,,,,,,,10,,,58,0
44280,note_on,0,0,9,,,,,,,,,8,,,58,109
44280,note_on,30,0,11,,,,,,,,,11,,,46,0
44280,note_on,0,0,11,,,,,,,,,11,,,46,109
44310,note_on,0,0,7,,,,,,,,,6,,,86,109
44310,note_on,0,0,7,,,,,,,,,6,,,74,109
44310,note_on,0,0,7,,,,,,,,,6,,,74,0
44310,note_on,30,0,10,,,,,,,,,10,,,58,0
44310,note_on,0,0,10,,,,,,,,,10,,,58,109
44310,note_on,30,0,11,,,,,,,,,11,,,46,0
44310,note_on,30,0,9,,,,,,,,,8,,,58,0
44310,note_on,0,0,11,,,,,,,,,11,,,46,109
44310,note_on,30,0,8,,,,,,,,,7,,,79,0
44310,note_on,0,0,8,,,,,,,,,7,,,79,109
44310,note_on,0,0,9,,,,,,,,,8,,,58,109
44310,note_on,30,0,7,,,,,,,,,6,,,86,0
44340,note_on,30,0,7,,,,,,,,,6,,,86,0
44340,note_on,0,0,7,,,,,,,,,6,,,74,0
44340,note_on,0,0,7,,,,,,,,,6,,,74,110
44340,note_on,0,0,7,,,,,,,,,6,,,86,110
44340,note_on,60,0,3,,,,,,,,,2,,,58,0
44340,note_on,0,0,8,,,,,,,,,7,,,79,110
44340,note_on,30,0,10,,,,,,,,,10,,,58,0
44340,note_on,0,0,11,,,,,,,,,11,,,46,110
44340,note_on,30,0,11,,,,,,,,,11,,,46,0
44340,note_on,0,0,10,,,,,,,,,10,,,58,110
44340,note_on,30,0,8,,,,,,,,,7,,,79,0
44340,note_on,0,0,9,,,,,,,,,8,,,58,110
44340,note_on,0,0,3,,,,,,,,,2,,,58,110
44340,note_on,30,0,9,,,,,,,,,8,,,58,0
44370,note_on,0,0,7,,,,,,,,,6,,,86,110
44370,note_on,0,0,7,,,,,,,,,6,,,74,110
44370,note_on,30,0,9,,,,,,,,,8,,,58,0
44370,note_on,0,0,11,,,,,,,,,11,,,46,110
44370,note_on,30,0,11,,,,,,,,,11,,,46,0
44370,note_on,0,0,7,,,,,,,,,6,,,74,0
44370,note_on,0,0,9,,,,,,,,,8,,,58,110
44370,note_on,30,0,7,,,,,,,,,6,,,86,0
44370,note_on,0,0,8,,,,,,,,,7,,,79,110
44370,note_on,30,0,8,,,,,,,,,7,,,79,0
44370,note_on,0,0,10,,,,,,,,,10,,,58,110
44370,note_on,30,0,10,,,,,,,,,10,,,58,0
44400,note_on,30,0,10,,,,,,,,,10,,,58,0
44400,note_on,0,0,5,,,,,,,,,4,,,74,111
44400,note_on,30,0,7,,,,,,,,,6,,,86,0
44400,note_on,0,0,7,,,,,,,,,6,,,74,0
44400,note_on,0,0,7,,,,,,,,,6,,,74,111
44400,note_on,0,0,7,,,,,,,,,6,,,86,111
44400,note_on,240,0,4,,,,,,,,,3,,,62,0
44400,note_on,0,0,4,,,,,,,,,3,,,50,0
44400,note_on,0,0,4,,,,,,,,,3,,,50,111
44400,note_on,0,0,4,,,,,,,,,3,,,62,111
44400,note_on,0,0,9,,,,,,,,,8,,,59,111
44400,note_on,30,0,9,,,,,,,,,8,,,58,0
44400,note_on,0,0,8,,,,,,,,,7,,,80,111
44400,note_on,30,0,8,,,,,,,,,7,,,79,0
44400,note_on,0,0,3,,,,,,,,,2,,,59,111
44400,note_on,60,0,3,,,,,,,,,2,,,58,0
44400,note_on,0,0,5,,,,,,,,,4,,,62,0
44400,note_on,240,0,5,,,,,,,,,4,,,74,0
44400,note_on,0,0,5,,,,,,,,,4,,,62,111
44400,note_on,120,0,6,,,,,,,,,5,,,50,111
44400,note_on,0,0,11,,,,,,,,,11,,,47,111
44400,note_on,0,0,10,,,,,,,,,10,,,59,111
44400,note_on,30,0,11,,,,,,,,,11,,,46,0
44400,note_on,0,0,1,,,,,,,,,0,,,92,111
44400,note_on,0,0,1,,,,,,,,,0,,,89,111
44400,note_on,0,0,1,,,,,,,,,0,,,91,0
44400,note_on,0,0,2,,,,,,,,,1,,,80,111
44400,note_on,240,0,2,,,,,,,,,1,,,79,0
44400,note_on,240,0,1,,,,,,,,,0,,,86,0
44400,note_on,0,0,2,,,,,,,,,1,,,77,111
44400,note_on,0,0,2,,,,,,,,,1,,,74,0
44430,note_on,0,0,9,,,,,,,,,8,,,59,111
44430,note_on,30,0,9,,,,,,,,,8,,,59,0
44430,note_on,30,0,11,,,,,,,,,11,,,47,0
44430,note_on,0,0,10,,,,,,,,,10,,,59,111
44430,note_on,30,0,10,,,,,,,,,10,,,59,0
44430,note_on,30,0,8,,,,,,,,,7,,,80,0
44430,note_on,0,0,11,,,,,,,,,11,,,47,111
44430,note_on,0,0,7,,,,,,,,,6,,,74,0
44430,note_on,0,0,8,,,,,,,,,7,,,80,111
44430,note_on,30,0,7,,,,,,,,,6,,,86,0
44430,note_on,0,0,7,,,,,,,,,6,,,74,111
44430,note_on,0,0,7,,,,,,,,,6,,,86,111
44460,note_on,0,0,7,,,,,,,,,6,,,74,0
44460,note_on,0,0,8,,,,,,,,,7,,,80,112
44460,note_on,30,0,8,,,,,,,,,7,,,80,0
44460,note_on,60,0,3,,,,,,,,,2,,,59,0
44460,note_on,0,0,3,,,,,,,,,2,,,59,112
44460,note_on,30,0,10,,,,,,,,,10,,,59,0
44460,note_on,30,0,7,,,,,,,,,6,,,86,0
44460,note_on,30,0,11,,,,,,,,,11,,,47,0
44460,note_on,30,0,9,,,,,,,,,8,,,59,0
44460,note_on,0,0,7,,,,,,,,,6,,,86,112
44460,note_on,0,0,10,,,,,,,,,10,,,59,112
44460,note_on,0,0,9,,,,,,,,,8,,,59,112
44460,note_on,0,0,11,,,,,,,,,11,,,47,112
44460,note_on,0,0,7,,,,,,,,,6,,,74,112
44490,note_on,0,0,7,,,,,,,,,6,,,74,0
44490,note_on,30,0,10,,,,,,,,,10,,,59,0
44490,note_on,0,0,10,,,,,,,,,10,,,59,112
44490,note_on,30,0,11,,,,,,,,,11,,,47,0
44490,note_on,30,0,7,,,,,,,,,6,,,86,0
44490,note_on,0,0,7,,,,,,,,,6,,,86,112
44490,note_on,0,0,7,,,,,,,,,6,,,74,112
44490,note_on,0,0,11,,,,,,,,,11,,,47,112
44490,note_on,30,0,9,,,,,,,,,8,,,59,0
44490,note_on,30,0,8,,,,,,,,,7,,,80,0
44490,note_on,0,0,8,,,,,,,,,7,,,80,112
44490,note_on,0,0,9,,,,,,,,,8,,,59,112
44520,note_on,30,0,9,,,,,,,,,8,,,59,0
44520,note_on,0,0,9,,,,,,,,,8,,,59,113
44520,note_on,120,0,6,,,,,,,,,5,,,50,0
44520,note_on,0,0,10,,,,,,,,,10,,,59,113
44520,note_on,30,0,7,,,,,,,,,6,,,86,0
44520,note_on,0,0,3,,,,,,,,,2,,,59,113
44520,note_on,0,0,8,,,,,,,,,7,,,80,113
44520,note_on,30,0,8,,,,,,,,,7,,,80,0
44520,note_on,30,0,11,,,,,,,,,11,,,47,0
44520,note_on,60,0,3,,,,,,,,,2,,,59,0
44520,note_on,0,0,7,,,,,,,,,6,,,86,113
44520,note_on,0,0,7,,,,,,,,,6,,,74,0
44520,note_on,0,0,7,,,,,,,,,6,,,74,113
44520,note_on,30,0,10,,,,,,,,,10,,,59,0
44520,note_on,0,0,11,,,,,,,,,11,,,47,113
44550,note_on,0,0,7,,,,,,,,,6,,,74,0
44550,note_on,0,0,10,,,,,,,,,10,,,59,113
44550,note_on,30,0,7,,,,,,,,,6,,,86,0
44550,note_on,0,0,11,,,,,,,,,11,,,47,113
44550,note_on,30,0,10,,,,,,,,,10,,,59,0
44550,note_on,0,0,8,,,,,,,,,7,,,80,113
44550,note_on,30,0,8,,,,,,,,,7,,,80,0
44550,note_on,0,0,7,,,,,,,,,6,,,74,113
44550,note_on,0,0,7,,,,,,,,,6,,,86,113
44550,note_on,30,0,9,,,,,,,,,8,,,59,0
44550,note_on,0,0,9,,,,,,,,,8,,,59,113
44550,note_on,30,0,11,,,,,,,,,11,,,47,0
44580,note_on,0,0,7,,,,,,,,,6,,,86,114
44580,note_on,30,0,10,,,,,,,,,10,,,59,0
44580,note_on,0,0,10,,,,,,,,,10,,,59,114
44580,note_on,60,0,3,,,,,,,,,2,,,59,0
44580,note_on,0,0,11,,,,,,,,,11,,,47,114
44580,note_on,30,0,11,,,,,,,,,11,,,47,0
44580,note_on,30,0,7,,,,,,,,,6,,,86,0
44580,note_on,0,0,7,,,,,,,,,6,,,74,0
44580,note_on,30,0,8,,,,,,,,,7,,,80,0
44580,note_on,0,0,7,,,,,,,,,6,,,74,114
44580,note_on,0,0,9,,,,,,,,,8,,,59,114
44580,note_on,30,0,9,,,,,,,,,8,,,59,0
44580,note_on,0,0,3,,,,,,,,,2,,,59,114
44580,note_on,0,0,8,,,,,,,,,7,,,80,114
44610,note_on,0,0,8,,,,,,,,,7,,,80,114
44610,note_on,30,0,8,,,,,,,,,7,,,80,0
44610,note_on,30,0,10,,,,,,,,,10,,,59,0
44610,note_on,0,0,10,,,,,,,,,10,,,59,114
44610,note_on,30,0,7,,,,,,,,,6,,,86,0
44610,note_on,0,0,7,,,,,,,,,6,,,74,0
44610,note_on,30,0,9,,,,,,,,,8,,,59,0
44610,note_on,0,0,9,,,,,,,,,8,,,59,114
44610,note_on,0,0,7,,,,,,,,,6,,,74,114
44610,note_on,0,0,11,,,,,,,,,11,,,47,114
44610,note_on,0,0,7,,,,,,,,,6,,,86,114
44610,note_on,30,0,11,,,,,,,,,11,,,47,0
44640,note_on,30,0,7,,,,,,,,,6,,,86,0
44640,note_on,0,0,7,,,,,,,,,6,,,74,0
44640,note_on,0,0,7,,,,,,,,,6,,,85,115
44640,note_on,0,0,7,,,,,,,,,6,,,76,115
44640,note_on,0,0,2,,,,,,,,,1,,,77,0
44640,note_on,0,0,2,,,,,,,,,1,,,76,115
44640,note_on,0,0,2,,,,,,,,,1,,,81,115
44640,note_on,240,0,2,,,,,,,,,1,,,80,0
44640,note_on,60,0,3,,,,,,,,,2,,,59,0
44640,note_on,0,0,11,,,,,,,,,11,,,49,115
44640,note_on,0,0,5,,,,,,,,,4,,,76,115
44640,note_on,30,0,11,,,,,,,,,11,,,47,0
44640,note_on,0,0,5,,,,,,,,,4,,,62,0
44640,note_on,240,0,5,,,,,,,,,4,,,74,0
44640,note_on,0,0,4,,,,,,,,,3,,,57,115
44640,note_on,0,0,4,,,,,,,,,3,,,64,115
44640,note_on,0,0,4,,,,,,,,,3,,,50,0
44640,note_on,240,0,4,,,,,,,,,3,,,62,0
44640,note_on,120,0,6,,,,,,,,,5,,,45,115
44640,note_on,30,0,9,,,,,,,,,8,,,59,0
44640,note_on,0,0,9,,,,,,,,,8,,,61,115
44640,note_on,0,0,3,,,,,,,,,2,,,61,115
44640,note_on,0,0,10,,,,,,,,,10,,,61,115
44640,note_on,240,0,1,,,,,,,,,0,,,92,0
44640,note_on,0,0,1,,,,,,,,,0,,,89,0
44640,note_on,0,0,1,,,,,,,,,0,,,93,115
44640,note_on,0,0,1,,,,,,,,,0,,,88,115
44640,note_on,0,0,8,,,,,,,,,7,,,81,115
44640,note_on,0,0,5,,,,,,,,,4,,,69,115
44640,note_on,30,0,10,,,,,,,,,10,,,59,0
44640,note_on,30,0,8,,,,,,,,,7,,,80,0
44641,set_tempo,11041,1,0,,,,,,352734,,,,,,,
44657,set_tempo,16,1,0,,,,,,354694,,,,,,,
44669,set_tempo,12,1,0,,,,,,356676,,,,,,,
44682,set_tempo,13,1,0,,,,,,358680,,,,,,,
44695,set_tempo,13,1,0,,,,,,360707,,,,,,,
44700,note_on,60,0,2,,,,,,,,,1,,,81,0
44700,note_on,0,0,2,,,,,,,,,1,,,76,0
44700,note_on,0,0,1,,,,,,,,,0,,,93,0
44700,note_on,0,0,7,,,,,,,,,6,,,85,0
44700,note_on,60,0,8,,,,,,,,,7,,,81,0
44700,note_on,60,0,5,,,,,,,,,4,,,76,0
44700,note_on,60,0,1,,,,,,,,,0,,,88,0
44700,note_on,60,0,10,,,,,,,,,10,,,61,0
44700,note_on,60,0,9,,,,,,,,,8,,,61,0
44700,note_on,60,0,4,,,,,,,,,3,,,57,0
44700,note_on,0,0,4,,,,,,,,,3,,,64,0
44700,note_on,60,0,11,,,,,,,,,11,,,49,0
44700,note_on,60,0,3,,,,,,,,,2,,,61,0
44700,note_on,60,0,7,,,,,,,,,6,,,76,0
44700,note_on,0,0,5,,,,,,,,,4,,,69,0
44707,set_tempo,12,1,0,,,,,,362757,,,,,,,
44720,set_tempo,13,1,0,,,,,,364830,,,,,,,
44732,set_tempo,12,1,0,,,,,,366928,,,,,,,
44745,set_tempo,13,1,0,,,,,,369049,,,,,,,
44758,set_tempo,13,1,0,,,,,,371195,,,,,,,
44760,note_on,60,0,2,,,,,,,,,1,,,78,107
44760,note_on,0,0,2,,,,,,,,,1,,,83,107
44760,note_on,60,0,11,,,,,,,,,11,,,50,107
44760,note_on,60,0,8,,,,,,,,,7,,,78,107
44760,note_on,60,0,7,,,,,,,,,6,,,74,107
44760,note_on,0,0,4,,,,,,,,,3,,,62,107
44760,note_on,60,0,4,,,,,,,,,3,,,66,107
44760,note_on,0,0,7,,,,,,,,,6,,,83,107
44760,note_on,60,0,1,,,,,,,,,0,,,86,107
44760,note_on,60,0,3,,,,,,,,,2,,,62,107
44760,note_on,120,0,6,,,,,,,,,5,,,45,0
44760,note_on,0,0,5,,,,,,,,,4,,,74,107
44760,note_on,60,0,5,,,,,,,,,4,,,78,107
44760,note_on,60,0,10,,,,,,,,,10,,,62,107
44760,note_on,0,0,1,,,,,,,,,0,,,83,107
44760,note_on,60,0,9,,,,,,,,,8,,,62,107
44770,set_tempo,12,1,0,,,,,,373367,,,,,,,
44783,set_tempo,13,1,0,,,,,,375563,,,,,,,
44796,set_tempo,13,1,0,,,,,,377786,,,,,,,
44808,set_tempo,12,1,0,,,,,,380035,,,,,,,
44820,note_on,60,0,1,,,,,,,,,0,,,83,0
44820,note_on,0,0,7,,,,,,,,,6,,,74,0
44820,note_on,0,0,5,,,,,,,,,4,,,78,0
44820,note_on,60,0,11,,,,,,,,,11,,,50,0
44820,note_on,0,0,4,,,,,,,,,3,,,66,0
44820,note_on,60,0,4,,,,,,,,,3,,,62,0
44820,note_on,60,0,10,,,,,,,,,10,,,62,0
44820,note_on,0,0,1,,,,,,,,,0,,,86,0
44820,note_on,60,0,9,,,,,,,,,8,,,62,0
44820,note_on,60,0,8,,,,,,,,,7,,,78,0
44820,note_on,60,0,5,,,,,,,,,4,,,74,0
44820,note_on,60,0,7,,,,,,,,,6,,,83,0
44820,note_on,60,0,3,,,,,,,,,2,,,62,0
44820,note_on,60,0,2,,,,,,,,,1,,,83,0
44820,note_on,0,0,2,,,,,,,,,1,,,78,0
44821,set_tempo,13,1,0,,,,,,382312,,,,,,,
44833,set_tempo,12,1,0,,,,,,384615,,,,,,,
44846,set_tempo,13,1,0,,,,,,386947,,,,,,,
44859,set_tempo,13,1,0,,,,,,389307,,,,,,,
44871,set_tempo,12,1,0,,,,,,391696,,,,,,,
44880,note_on,60,0,10,,,,,,,,,10,,,64,98
44880,note_on,60,0,4,,,,,,,,,3,,,64,98
44880,note_on,60,0,7,,,,,,,,,6,,,81,98
44880,note_on,0,0,7,,,,,,,,,6,,,73,98
44880,note_on,60,0,1,,,,,,,,,0,,,81,98
44880,note_on,0,0,1,,,,,,,,,0,,,85,98
44880,note_on,60,0,11,,,,,,,,,11,,,52,98
44880,note_on,60,0,3,,,,,,,,,2,,,64,98
44880,note_on,60,0,2,,,,,,,,,1,,,76,98
44880,note_on,60,0,8,,,,,,,,,7,,,76,98
44880,note_on,0,0,2,,,,,,,,,1,,,81,98
44880,note_on,60,0,9,,,,,,,,,8,,,64,98
44880,note_on,60,0,5,,,,,,,,,4,,,76,98
44887,set_tempo,16,1,0,,,,,,394115,,,,,,,
44900,set_tempo,13,1,0,,,,,,396563,,,,,,,
44912,set_tempo,12,1,0,,,,,,399042,,,,,,,
44925,set_tempo,13,1,0,,,,,,401553,,,,,,,
44938,set_tempo,13,1,0,,,,,,404095,,,,,,,
44940,note_on,60,0,3,,,,,,,,,2,,,64,0
44940,note_on,60,0,9,,,,,,,,,8,,,64,0
44940,note_on,60,0,4,,,,,,,,,3,,,64,0
44940,note_on,0,0,1,,,,,,,,,0,,,81,0
44940,note_on,60,0,11,,,,,,,,,11,,,52,0
44940,note_on,60,0,1,,,,,,,,,0,,,85,0
44940,note_on,60,0,5,,,,,,,,,4,,,76,0
44940,note_on,60,0,8,,,,,,,,,7,,,76,0
44940,note_on,0,0,7,,,,,,,,,6,,,81,0
44940,note_on,60,0,7,,,,,,,,,6,,,73,0
44940,note_on,0,0,2,,,,,,,,,1,,,76,0
44940,note_on,60,0,10,,,,,,,,,10,,,64,0
44940,note_on,60,0,2,,,,,,,,,1,,,81,0
44950,set_tempo,12,1,0,,,,,,406669,,,,,,,
44963,set_tempo,13,1,0,,,,,,409277,,,,,,,
44976,set_tempo,13,1,0,,,,,,411918,,,,,,,
44988,set_tempo,12,1,0,,,,,,414594,,,,,,,
45000,note_on,240,0,6,,,,,,,,,5,,,50,89
45000,note_on,60,0,8,,,,,,,,,7,,,74,89
45000,note_on,60,0,9,,,,,,,,,8,,,65,89
45000,note_on,60,0,1,,,,,,,,,0,,,83,89
45000,note_on,0,0,1,,,,,,,,,0,,,80,89
45000,note_on,60,0,10,,,,,,,,,10,,,65,89
45000,note_on,0,0,5,,,,,,,,,4,,,74,89
45000,note_on,60,0,3,,,,,,,,,2,,,65,89
45000,note_on,60,0,5,,,,,,,,,4,,,62,89
45000,note_on,60,0,4,,,,,,,,,3,,,50,89
45000,note_on,60,0,2,,,,,,,,,1,,,74,89
45000,note_on,0,0,4,,,,,,,,,3,,,62,89
45000,note_on,0,0,7,,,,,,,,,6,,,80,89
45000,note_on,60,0,7,,,,,,,,,6,,,71,89
45000,note_on,0,0,2,,,,,,,,,1,,,80,89
45000,note_on,60,0,11,,,,,,,,,11,,,53,89
45001,set_tempo,13,1,0,,,,,,417304,,,,,,,
45013,set_tempo,12,1,0,,,,,,420050,,,,,,,
45026,set_tempo,13,1,0,,,,,,422833,,,,,,,
45039,set_tempo,13,1,0,,,,,,425653,,,,,,,
45051,set_tempo,12,1,0,,,,,,428510,,,,,,,
45060,note_on,60,0,8,,,,,,,,,7,,,74,0
45060,note_on,60,0,9,,,,,,,,,8,,,65,0
45060,note_on,60,0,10,,,,,,,,,10,,,65,0
45060,note_on,60,0,5,,,,,,,,,4,,,74,0
45060,note_on,0,0,5,,,,,,,,,4,,,62,0
45060,note_on,0,0,4,,,,,,,,,3,,,50,0
45060,note_on,60,0,7,,,,,,,,,6,,,80,0
45060,note_on,0,0,7,,,,,,,,,6,,,71,0
45060,note_on,60,0,11,,,,,,,,,11,,,53,0
45060,note_on,60,0,1,,,,,,,,,0,,,80,0
45060,note_on,0,0,1,,,,,,,,,0,,,83,0
45060,note_on,60,0,3,,,,,,,,,2,,,65,0
45060,note_on,60,0,2,,,,,,,,,1,,,80,0
45060,note_on,0,0,2,,,,,,,,,1,,,74,0
45060,note_on,60,0,4,,,,,,,,,3,,,62,0
45064,set_tempo,13,1,0,,,,,,431406,,,,,,,
45077,set_tempo,13,1,0,,,,,,434342,,,,,,,
45089,set_tempo,12,1,0,,,,,,437318,,,,,,,
45102,set_tempo,13,1,0,,,,,,440335,,,,,,,
45115,set_tempo,13,1,0,,,,,,443393,,,,,,,
45120,note_on,60,0,4,,,,,,,,,3,,,45,80
45120,note_on,0,0,4,,,,,,,,,3,,,57,80
45120,note_on,0,0,6,,,,,,,,,5,,,45,80
45120,note_on,60,0,10,,,,,,,,,10,,,66,80
45120,note_on,60,0,3,,,,,,,,,2,,,66,80
45120,note_on,120,0,6,,,,,,,,,5,,,50,0
45120,note_on,60,0,11,,,,,,,,,11,,,54,80
45120,note_on,60,0,9,,,,,,,,,8,,,66,80
45120,note_on,60,0,7,,,,,,,,,6,,,69,80
45120,note_on,0,0,5,,,,,,,,,4,,,69,80
45120,note_on,0,0,7,,,,,,,,,6,,,81,80
45120,note_on,60,0,1,,,,,,,,,0,,,81,80
45120,marker,5,1,0,,,,,,,,,,,,,
45120,note_on,60,0,2,,,,,,,,,1,,,81,80
45120,note_on,60,0,5,,,,,,,,,4,,,57,80
45120,note_on,0,0,2,,,,,,,,,1,,,73,80
45120,note_on,60,0,8,,,,,,,,,7,,,73,80
45240,note_on,0,0,5,,,,,,,,,4,,,57,0
45240,note_on,120,0,5,,,,,,,,,4,,,69,0
45240,note_on,0,0,7,,,,,,,,,6,,,69,0
45240,note_on,120,0,2,,,,,,,,,1,,,73,0
45240,note_on,0,0,2,,,,,,,,,1,,,81,0
45240,note_on,120,0,4,,,,,,,,,3,,,57,0
45240,note_on,120,0,10,,,,,,,,,10,,,66,0
45240,note_on,120,0,6,,,,,,,,,5,,,45,0
45240,note_on,120,0,7,,,,,,,,,6,,,81,0
45240,note_on,120,0,8,,,,,,,,,7,,,73,0
45240,note_on,120,0,3,,,,,,,,,2,,,66,0
45240,note_on,120,0,1,,,,,,,,,0,,,81,0
45240,note_on,0,0,4,,,,,,,,,3,,,45,0
45240,note_on,120,0,9,,,,,,,,,8,,,66,0
45240,note_on,120,0,11,,,,,,,,,11,,,54,0
45360,note_on,120,0,8,,,,,,,,,7,,,71,50
45360,note_on,120,0,9,,,,,,,,,8,,,62,50
45360,note_on,120,0,10,,,,,,,,,10,,,62,50
45360,note_on,120,0,11,,,,,,,,,11,,,50,50
45362,set_tempo,242,1,0,,,,,,386947,,,,,,,
45420,note_on,180,0,7,,,,,,,,,6,,,78,50
45480,note_on,120,0,10,,,,,,,,,10,,,62,0
45480,note_on,120,0,11,,,,,,,,,11,,,50,0
45480,note_on,60,0,7,,,,,,,,,6,,,78,0
45480,note_on,0,0,7,,,,,,,,,6,,,83,50
45540,note_on,60,0,7,,,,,,,,,6,,,83,0
45540,note_on,0,0,7,,,,,,,,,6,,,81,50
45600,note_on,60,0,7,,,,,,,,,6,,,81,0
45600,note_on,240,0,8,,,,,,,,,7,,,71,0
45600,note_on,120,0,10,,,,,,,,,10,,,64,50
45600,note_on,0,0,8,,,,,,,,,7,,,69,50
45600,note_on,120,0,11,,,,,,,,,11,,,52,50
45600,note_on,0,0,9,,,,,,,,,8,,,61,50
45600,note_on,240,0,9,,,,,,,,,8,,,62,0
45660,note_on,60,0,7,,,,,,,,,6,,,73,50
45720,note_on,120,0,10,,,,,,,,,10,,,64,0
45720,note_on,0,0,7,,,,,,,,,6,,,78,50
45720,note_on,60,0,7,,,,,,,,,6,,,73,0
45720,note_on,120,0,11,,,,,,,,,11,,,52,0
45780,note_on,0,0,7,,,,,,,,,6,,,76,50
45780,note_on,60,0,7,,,,,,,,,6,,,78,0
45840,note_on,60,0,7,,,,,,,,,6,,,76,0
45840,note_on,120,0,11,,,,,,,,,11,,,40,50
45840,note_on,120,0,10,,,,,,,,,10,,,52,50
45840,note_on,0,0,8,,,,,,,,,7,,,64,50
45840,note_on,0,0,9,,,,,,,,,8,,,56,50
45840,note_on,240,0,8,,,,,,,,,7,,,69,0
45840,note_on,240,0,9,,,,,,,,,8,,,61,0
45900,note_on,60,0,7,,,,,,,,,6,,,64,50
45960,note_on,0,0,7,,,,,,,,,6,,,73,50
45960,note_on,120,0,11,,,,,,,,,11,,,40,0
45960,note_on,120,0,10,,,,,,,,,10,,,52,0
45960,note_on,60,0,7,,,,,,,,,6,,,64,0
46020,note_on,60,0,7,,,,,,,,,6,,,73,0
46020,note_on,0,0,7,,,,,,,,,6,,,71,50
46080,note_on,0,0,8,,,,,,,,,7,,,61,50
46080,note_on,240,0,9,,,,,,,,,8,,,56,0
46080,note_on,0,0,7,,,,,,,,,6,,,69,50
46080,note_on,60,0,7,,,,,,,,,6,,,71,0
46080,note_on,0,0,9,,,,,,,,,8,,,57,50
46080,note_on,240,0,8,,,,,,,,,7,,,64,0
46140,note_on,60,0,9,,,,,,,,,8,,,57,0
46140,note_on,180,0,11,,,,,,,,,11,,,45,50
46140,note_on,0,0,9,,,,,,,,,8,,,61,50
46140,note_on,0,0,8,,,,,,,,,7,,,64,50
46140,note_on,60,0,8,,,,,,,,,7,,,61,0
46140,note_on,180,0,10,,,,,,,,,10,,,57,50
46170,note_on,30,0,8,,,,,,,,,7,,,64,0
46170,note_on,30,0,11,,,,,,,,,11,,,45,0
46170,note_on,30,0,10,,,,,,,,,10,,,57,0
46170,note_on,30,0,9,,,,,,,,,8,,,61,0
46200,note_on,30,0,10,,,,,,,,,10,,,57,50
46200,note_on,30,0,8,,,,,,,,,7,,,64,50
46200,note_on,30,0,9,,,,,,,,,8,,,61,50
46200,note_on,30,0,11,,,,,,,,,11,,,45,50
46230,note_on,30,0,9,,,,,,,,,8,,,61,0
46230,note_on,30,0,10,,,,,,,,,10,,,57,0
46230,note_on,30,0,8,,,,,,,,,7,,,64,0
46230,note_on,30,0,11,,,,,,,,,11,,,45,0
46260,note_on,30,0,11,,,,,,,,,11,,,45,50
46260,note_on,30,0,10,,,,,,,,,10,,,57,50
46260,note_on,30,0,9,,,,,,,,,8,,,61,50
46260,note_on,30,0,8,,,,,,,,,7,,,64,50
46290,note_on,30,0,11,,,,,,,,,11,,,45,0
46290,note_on,30,0,8,,,,,,,,,7,,,64,0
46290,note_on,30,0,10,,,,,,,,,10,,,57,0
46290,note_on,30,0,9,,,,,,,,,8,,,61,0
46320,note_on,30,0,10,,,,,,,,,10,,,57,50
46320,note_on,30,0,8,,,,,,,,,7,,,64,50
46320,note_on,30,0,9,,,,,,,,,8,,,61,50
46320,note_on,30,0,11,,,,,,,,,11,,,45,50
46380,note_on,0,0,7,,,,,,,,,6,,,64,50
46380,note_on,300,0,7,,,,,,,,,6,,,69,0
46440,note_on,120,0,11,,,,,,,,,11,,,45,0
46440,note_on,120,0,10,,,,,,,,,10,,,57,0
46440,note_on,0,0,7,,,,,,,,,6,,,73,50
46440,note_on,60,0,7,,,,,,,,,6,,,64,0
46440,note_on,120,0,8,,,,,,,,,7,,,64,0
46440,note_on,120,0,9,,,,,,,,,8,,,61,0
46500,note_on,0,0,7,,,,,,,,,6,,,71,50
46500,note_on,60,0,7,,,,,,,,,6,,,73,0
46560,note_on,0,0,7,,,,,,,,,6,,,69,50
46560,note_on,120,0,10,,,,,,,,,10,,,57,50
46560,note_on,120,0,8,,,,,,,,,7,,,64,50
46560,note_on,60,0,7,,,,,,,,,6,,,71,0
46560,note_on,120,0,11,,,,,,,,,11,,,45,50
46560,note_on,120,0,9,,,,,,,,,8,,,61,50
46620,note_on,0,0,7,,,,,,,,,6,,,64,50
46620,note_on,60,0,7,,,,,,,,,6,,,69,0
46680,note_on,120,0,11,,,,,,,,,11,,,45,0
46680,note_on,0,0,7,,,,,,,,,6,,,73,50
46680,note_on,60,0,7,,,,,,,,,6,,,64,0
46680,note_on,120,0,9,,,,,,,,,8,,,61,0
46680,note_on,120,0,8,,,,,,,,,7,,,64,0
46680,note_on,120,0,10,,,,,,,,,10,,,57,0
46740,note_on,0,0,7,,,,,,,,,6,,,71,50
46740,note_on,60,0,7,,,,,,,,,6,,,73,0
46800,note_on,60,0,7,,,,,,,,,6,,,71,0
46800,note_on,120,0,9,,,,,,,,,8,,,61,50
46800,note_on,120,0,8,,,,,,,,,7,,,64,50
46800,note_on,120,0,10,,,,,,,,,10,,,57,50
46800,note_on,0,0,7,,,,,,,,,6,,,69,50
46800,note_on,120,0,11,,,,,,,,,11,,,45,50
46860,note_on,0,0,7,,,,,,,,,6,,,64,50
46860,note_on,60,0,7,,,,,,,,,6,,,69,0
46920,note_on,120,0,9,,,,,,,,,8,,,61,0
46920,note_on,120,0,11,,,,,,,,,11,,,45,0
46920,note_on,120,0,10,,,,,,,,,10,,,57,0
46920,note_on,0,0,7,,,,,,,,,6,,,74,65
46920,note_on,60,0,7,,,,,,,,,6,,,64,0
46920,note_on,120,0,8,,,,,,,,,7,,,64,0
46980,note_on,0,0,7,,,,,,,,,6,,,73,60
46980,note_on,60,0,7,,,,,,,,,6,,,74,0
47040,note_on,0,0,7,,,,,,,,,6,,,71,50
47040,note_on,60,0,7,,,,,,,,,6,,,73,0
47100,note_on,180,0,10,,,,,,,,,10,,,56,50
47100,note_on,180,0,9,,,,,,,,,8,,,62,50
47100,note_on,180,0,8,,,,,,,,,7,,,64,50
47100,note_on,180,0,11,,,,,,,,,11,,,44,50
47130,note_on,30,0,10,,,,,,,,,10,,,56,0
47130,note_on,30,0,11,,,,,,,,,11,,,44,0
47145,note_on,45,0,9,,,,,,,,,8,,,62,0
47145,note_on,45,0,8,,,,,,,,,7,,,64,0
47160,note_on,30,0,10,,,,,,,,,10,,,56,50
47160,note_on,15,0,9,,,,,,,,,8,,,62,50
47160,note_on,30,0,11,,,,,,,,,11,,,44,50
47160,note_on,15,0,8,,,,,,,,,7,,,64,50
47190,note_on,30,0,10,,,,,,,,,10,,,56,0
47190,note_on,30,0,11,,,,,,,,,11,,,44,0
47205,note_on,45,0,8,,,,,,,,,7,,,64,0
47205,note_on,45,0,9,,,,,,,,,8,,,62,0
47220,note_on,30,0,11,,,,,,,,,11,,,44,50
47220,note_on,30,0,10,,,,,,,,,10,,,56,50
47220,note_on,15,0,9,,,,,,,,,8,,,62,50
47220,note_on,15,0,8,,,,,,,,,7,,,64,50
47250,note_on,30,0,11,,,,,,,,,11,,,44,0
47250,note_on,30,0,10,,,,,,,,,10,,,56,0
47265,note_on,45,0,9,,,,,,,,,8,,,62,0
47265,note_on,45,0,8,,,,,,,,,7,,,64,0
47280,note_on,15,0,9,,,,,,,,,8,,,62,50
47280,note_on,15,0,8,,,,,,,,,7,,,64,50
47280,note_on,30,0,10,,,,,,,,,10,,,56,50
47280,note_on,30,0,11,,,,,,,,,11,,,44,50
47340,note_on,300,0,7,,,,,,,,,6,,,71,0
47340,note_on,0,0,7,,,,,,,,,6,,,64,50
47400,note_on,120,0,10,,,,,,,,,10,,,56,0
47400,note_on,120,0,8,,,,,,,,,7,,,64,0
47400,note_on,120,0,11,,,,,,,,,11,,,44,0
47400,note_on,120,0,9,,,,,,,,,8,,,62,0
47400,note_on,60,0,7,,,,,,,,,6,,,64,0
47400,note_on,0,0,7,,,,,,,,,6,,,74,50
47460,note_on,0,0,7,,,,,,,,,6,,,73,50
47460,note_on,60,0,7,,,,,,,,,6,,,74,0
47520,note_on,120,0,8,,,,,,,,,7,,,64,50
47520,note_on,60,0,7,,,,,,,,,6,,,73,0
47520,note_on,0,0,7,,,,,,,,,6,,,71,50
47520,note_on,120,0,10,,,,,,,,,10,,,56,50
47520,note_on,120,0,9,,,,,,,,,8,,,62,50
47520,note_on,120,0,11,,,,,,,,,11,,,44,50
47580,note_on,60,0,7,,,,,,,,,6,,,71,0
47580,note_on,0,0,7,,,,,,,,,6,,,64,50
47640,note_on,120,0,10,,,,,,,,,10,,,56,0
47640,note_on,60,0,7,,,,,,,,,6,,,64,0
47640,note_on,0,0,7,,,,,,,,,6,,,74,50
47640,note_on,120,0,8,,,,,,,,,7,,,64,0
47640,note_on,120,0,11,,,,,,,,,11,,,44,0
47640,note_on,120,0,9,,,,,,,,,8,,,62,0
47700,note_on,0,0,7,,,,,,,,,6,,,73,50
47700,note_on,60,0,7,,,,,,,,,6,,,74,0
47760,note_on,120,0,11,,,,,,,,,11,,,44,50
47760,note_on,120,0,10,,,,,,,,,10,,,56,50
47760,note_on,120,0,9,,,,,,,,,8,,,62,50
47760,note_on,120,0,8,,,,,,,,,7,,,64,50
47760,note_on,60,0,7,,,,,,,,,6,,,73,0
47760,note_on,0,0,7,,,,,,,,,6,,,71,50
47820,note_on,60,0,7,,,,,,,,,6,,,71,0
47820,note_on,0,0,7,,,,,,,,,6,,,64,50
47880,note_on,120,0,10,,,,,,,,,10,,,56,0
47880,note_on,120,0,9,,,,,,,,,8,,,62,0
47880,note_on,120,0,8,,,,,,,,,7,,,64,0
47880,note_on,120,0,11,,,,,,,,,11,,,44,0
47880,note_on,60,0,7,,,,,,,,,6,,,64,0
47880,note_on,0,0,7,,,,,,,,,6,,,76,65
47940,note_on,0,0,7,,,,,,,,,6,,,74,65
47940,note_on,60,0,7,,,,,,,,,6,,,76,0
48000,note_on,0,0,7,,,,,,,,,6,,,73,50
48000,note_on,120,0,9,,,,,,,,,8,,,61,50
48000,note_on,120,0,8,,,,,,,,,7,,,64,50
48000,note_on,120,0,10,,,,,,,,,10,,,57,50
48000,note_on,120,0,11,,,,,,,,,11,,,45,50
48000,note_on,60,0,7,,,,,,,,,6,,,74,0
48060,note_on,0,0,7,,,,,,,,,6,,,78,50
48060,note_on,60,0,7,,,,,,,,,6,,,73,0
48120,note_on,120,0,11,,,,,,,,,11,,,45,0
48120,note_on,60,0,7,,,,,,,,,6,,,78,0
48120,note_on,0,0,7,,,,,,,,,6,,,76,50
48120,note_on,120,0,10,,,,,,,,,10,,,57,0
48120,note_on,120,0,9,,,,,,,,,8,,,61,0
48120,note_on,120,0,8,,,,,,,,,7,,,64,0
48180,note_on,60,0,7,,,,,,,,,6,,,76,0
48180,note_on,60,0,8,,,,,,,,,7,,,72,50
48180,note_on,0,0,7,,,,,,,,,6,,,75,50
48180,note_on,60,0,9,,,,,,,,,8,,,69,50
48240,note_on,0,0,9,,,,,,,,,8,,,68,50
48240,note_on,60,0,9,,,,,,,,,8,,,69,0
48240,note_on,60,0,8,,,,,,,,,7,,,72,0
48240,note_on,0,0,8,,,,,,,,,7,,,71,50
48240,note_on,60,0,7,,,,,,,,,6,,,75,0
48240,note_on,0,0,7,,,,,,,,,6,,,76,50
48300,note_on,60,0,7,,,,,,,,,6,,,76,0
48300,note_on,0,0,7,,,,,,,,,6,,,74,50
48360,note_on,120,0,9,,,,,,,,,8,,,68,0
48360,note_on,60,0,7,,,,,,,,,6,,,74,0
48360,note_on,0,0,7,,,,,,,,,6,,,73,50
48360,note_on,120,0,8,,,,,,,,,7,,,71,0
48420,note_on,60,0,8,,,,,,,,,7,,,69,50
48420,note_on,0,0,7,,,,,,,,,6,,,72,50
48420,note_on,60,0,7,,,,,,,,,6,,,73,0
48420,note_on,60,0,9,,,,,,,,,8,,,66,50
48480,note_on,0,0,9,,,,,,,,,8,,,64,50
48480,note_on,0,0,7,,,,,,,,,6,,,73,50
48480,note_on,60,0,9,,,,,,,,,8,,,66,0
48480,note_on,60,0,8,,,,,,,,,7,,,69,0
48480,note_on,0,0,8,,,,,,,,,7,,,68,50
48480,note_on,60,0,7,,,,,,,,,6,,,72,0
48540,note_on,0,0,7,,,,,,,,,6,,,71,50
48540,note_on,60,0,7,,,,,,,,,6,,,73,0
48600,note_on,60,0,7,,,,,,,,,6,,,71,0
48600,note_on,0,0,7,,,,,,,,,6,,,69,50
48600,note_on,120,0,9,,,,,,,,,8,,,64,0
48600,note_on,120,0,8,,,,,,,,,7,,,68,0
48660,note_on,60,0,8,,,,,,,,,7,,,65,50
48660,note_on,60,0,7,,,,,,,,,6,,,69,0
48660,note_on,60,0,9,,,,,,,,,8,,,62,50
48660,note_on,0,0,7,,,,,,,,,6,,,68,50
48720,note_on,0,0,7,,,,,,,,,6,,,69,50
48720,note_on,0,0,8,,,,,,,,,7,,,64,50
48720,note_on,60,0,8,,,,,,,,,7,,,65,0
48720,note_on,60,0,9,,,,,,,,,8,,,62,0
48720,note_on,0,0,9,,,,,,,,,8,,,61,50
48720,note_on,60,0,7,,,,,,,,,6,,,68,0
48780,note_on,60,0,8,,,,,,,,,7,,,64,0
48780,note_on,0,0,8,,,,,,,,,7,,,68,50
48780,note_on,0,0,7,,,,,,,,,6,,,71,50
48780,note_on,60,0,7,,,,,,,,,6,,,69,0
48780,note_on,60,0,9,,,,,,,,,8,,,61,0
48780,note_on,0,0,9,,,,,,,,,8,,,62,50
48840,note_on,0,0,9,,,,,,,,,8,,,61,50
48840,note_on,0,0,8,,,,,,,,,7,,,69,50
48840,note_on,60,0,7,,,,,,,,,6,,,71,0
48840,note_on,0,0,7,,,,,,,,,6,,,73,50
48840,note_on,60,0,9,,,,,,,,,8,,,62,0
48840,note_on,60,0,8,,,,,,,,,7,,,68,0
48900,note_on,0,0,9,,,,,,,,,8,,,59,50
48900,note_on,60,0,9,,,,,,,,,8,,,61,0
48900,note_on,0,0,7,,,,,,,,,6,,,74,50
48900,note_on,60,0,8,,,,,,,,,7,,,69,0
48900,note_on,60,0,7,,,,,,,,,6,,,73,0
48900,note_on,0,0,8,,,,,,,,,7,,,71,50
48958,set_tempo,3596,1,0,,,,,,384615,,,,,,,
48960,note_on,60,0,7,,,,,,,,,6,,,74,0
48960,note_on,840,0,10,,,,,,,,,10,,,49,50
48960,note_on,0,0,7,,,,,,,,,6,,,76,50
48960,note_on,840,0,11,,,,,,,,,11,,,37,50
48960,note_on,0,0,8,,,,,,,,,7,,,69,50
48960,note_on,60,0,9,,,,,,,,,8,,,59,0
48960,note_on,0,0,9,,,,,,,,,8,,,61,50
48960,note_on,60,0,8,,,,,,,,,7,,,71,0
48973,set_tempo,15,1,0,,,,,,386947,,,,,,,
48986,set_tempo,13,1,0,,,,,,389307,,,,,,,
49002,set_tempo,16,1,0,,,,,,391696,,,,,,,
49015,set_tempo,13,1,0,,,,,,394115,,,,,,,
49020,note_on,60,0,11,,,,,,,,,11,,,37,0
49020,note_on,60,0,10,,,,,,,,,10,,,49,0
49020,note_on,60,0,7,,,,,,,,,6,,,76,0
49030,set_tempo,15,1,0,,,,,,396563,,,,,,,
49043,set_tempo,13,1,0,,,,,,399042,,,,,,,
49050,note_on,90,0,9,,,,,,,,,8,,,61,0
49050,note_on,90,0,8,,,,,,,,,7,,,69,0
49059,set_tempo,16,1,0,,,,,,401553,,,,,,,
49071,set_tempo,12,1,0,,,,,,404095,,,,,,,
49080,note_on,60,0,11,,,,,,,,,11,,,37,55
49080,note_on,60,0,7,,,,,,,,,6,,,76,55
49080,note_on,30,0,9,,,,,,,,,8,,,61,55
49080,note_on,60,0,10,,,,,,,,,10,,,49,55
49080,note_on,30,0,8,,,,,,,,,7,,,69,55
49087,set_tempo,16,1,0,,,,,,406669,,,,,,,
49100,set_tempo,13,1,0,,,,,,409277,,,,,,,
49116,set_tempo,16,1,0,,,,,,411918,,,,,,,
49128,set_tempo,12,1,0,,,,,,414594,,,,,,,
49140,note_on,60,0,10,,,,,,,,,10,,,49,0
49140,note_on,60,0,11,,,,,,,,,11,,,37,0
49144,set_tempo,16,1,0,,,,,,417304,,,,,,,
49157,set_tempo,13,1,0,,,,,,420050,,,,,,,
49169,set_tempo,12,1,0,,,,,,422833,,,,,,,
49170,note_on,90,0,8,,,,,,,,,7,,,69,0
49170,note_on,90,0,7,,,,,,,,,6,,,76,0
49170,note_on,90,0,9,,,,,,,,,8,,,61,0
49185,set_tempo,16,1,0,,,,,,425653,,,,,,,
49198,set_tempo,13,1,0,,,,,,428510,,,,,,,
49200,note_on,30,0,7,,,,,,,,,6,,,78,60
49200,note_on,60,0,10,,,,,,,,,10,,,51,60
49200,note_on,60,0,11,,,,,,,,,11,,,39,60
49200,note_on,30,0,8,,,,,,,,,7,,,69,60
49200,note_on,30,0,9,,,,,,,,,8,,,60,60
49213,set_tempo,15,1,0,,,,,,431406,,,,,,,
49226,set_tempo,13,1,0,,,,,,434342,,,,,,,
49242,set_tempo,16,1,0,,,,,,437318,,,,,,,
49255,set_tempo,13,1,0,,,,,,440335,,,,,,,
49260,note_on,60,0,11,,,,,,,,,11,,,39,0
49260,note_on,60,0,10,,,,,,,,,10,,,51,0
49270,set_tempo,15,1,0,,,,,,443393,,,,,,,
49283,set_tempo,13,1,0,,,,,,446495,,,,,,,
49290,note_on,90,0,8,,,,,,,,,7,,,69,0
49290,note_on,90,0,7,,,,,,,,,6,,,78,0
49290,note_on,90,0,9,,,,,,,,,8,,,60,0
49299,set_tempo,16,1,0,,,,,,449640,,,,,,,
49311,set_tempo,12,1,0,,,,,,452830,,,,,,,
49320,note_on,60,0,11,,,,,,,,,11,,,39,65
49320,note_on,30,0,7,,,,,,,,,6,,,78,65
49320,note_on,30,0,9,,,,,,,,,8,,,60,65
49320,note_on,60,0,10,,,,,,,,,10,,,51,65
49320,note_on,30,0,8,,,,,,,,,7,,,69,65
49327,set_tempo,16,1,0,,,,,,456066,,,,,,,
49340,set_tempo,13,1,0,,,,,,459348,,,,,,,
49352,set_tempo,12,1,0,,,,,,462677,,,,,,,
49380,note_on,60,0,11,,,,,,,,,11,,,39,0
49380,note_on,60,0,10,,,,,,,,,10,,,51,0
49410,note_on,90,0,7,,,,,,,,,6,,,78,0
49410,note_on,90,0,8,,,,,,,,,7,,,69,0
49410,note_on,90,0,9,,,,,,,,,8,,,60,0
49440,note_on,30,0,9,,,,,,,,,8,,,64,70
49440,note_on,30,0,7,,,,,,,,,6,,,73,70
49440,note_on,60,0,10,,,,,,,,,10,,,52,70
49440,note_on,60,0,11,,,,,,,,,11,,,40,70
49440,note_on,30,0,8,,,,,,,,,7,,,69,70
49500,note_on,0,0,9,,,,,,,,,8,,,63,65
49500,note_on,60,0,9,,,,,,,,,8,,,64,0
49560,note_on,0,0,9,,,,,,,,,8,,,64,60
49560,note_on,60,0,9,,,,,,,,,8,,,63,0
49560,note_on,120,0,10,,,,,,,,,10,,,52,0
49560,note_on,120,0,11,,,,,,,,,11,,,40,0
49620,note_on,60,0,9,,,,,,,,,8,,,64,0
49620,note_on,0,0,9,,,,,,,,,8,,,63,55
49680,note_on,0,0,9,,,,,,,,,8,,,64,50
49680,note_on,0,0,8,,,,,,,,,7,,,68,50
49680,note_on,60,0,9,,,,,,,,,8,,,63,0
49680,note_on,240,0,7,,,,,,,,,6,,,73,0
49680,note_on,240,0,8,,,,,,,,,7,,,69,0
49680,note_on,0,0,7,,,,,,,,,6,,,71,50
49680,set_tempo,328,1,0,,,,,,387097,,,,,,,
49740,note_on,0,0,7,,,,,,,,,6,,,64,50
49740,note_on,60,0,7,,,,,,,,,6,,,71,0
49740,note_on,60,0,8,,,,,,,,,7,,,68,0
49800,note_on,0,0,7,,,,,,,,,6,,,72,50
49800,note_on,60,0,7,,,,,,,,,6,,,64,0
49800,note_on,120,0,9,,,,,,,,,8,,,64,0
49800,note_on,60,0,8,,,,,,,,,7,,,64,50
49860,note_on,0,0,7,,,,,,,,,6,,,71,50
49860,note_on,60,0,7,,,,,,,,,6,,,72,0
49860,note_on,60,0,8,,,,,,,,,7,,,64,0
49860,note_on,0,0,8,,,,,,,,,7,,,62,50
49920,note_on,60,0,7,,,,,,,,,6,,,71,0
49920,note_on,60,0,8,,,,,,,,,7,,,62,0
49920,note_on,360,0,10,,,,,,,,,10,,,45,50
49920,note_on,360,0,11,,,,,,,,,11,,,33,50
49920,note_on,0,0,8,,,,,,,,,7,,,60,50
49920,note_on,120,0,9,,,,,,,,,8,,,64,50
49920,note_on,0,0,7,,,,,,,,,6,,,69,50
49980,note_on,0,0,3,,,,,,,,,2,,,48,70
49980,note_on,4740,0,3,,,,,,,,,2,,,52,70
50040,note_on,120,0,10,,,,,,,,,10,,,45,0
50040,note_on,0,0,3,,,,,,,,,2,,,60,70
50040,note_on,0,0,3,,,,,,,,,2,,,52,0
50040,note_on,0,0,3,,,,,,,,,2,,,52,70
50040,note_on,120,0,11,,,,,,,,,11,,,33,0
50040,note_on,60,0,3,,,,,,,,,2,,,48,0
50100,note_on,60,0,3,,,,,,,,,2,,,52,0
50100,note_on,0,0,3,,,,,,,,,2,,,59,70
50100,note_on,0,0,3,,,,,,,,,2,,,50,70
50100,note_on,0,0,3,,,,,,,,,2,,,60,0
50160,note_on,0,0,3,,,,,,,,,2,,,57,70
50160,note_on,0,0,3,,,,,,,,,2,,,48,70
50160,note_on,0,0,3,,,,,,,,,2,,,50,0
50160,note_on,60,0,3,,,,,,,,,2,,,59,0
50220,note_on,0,0,8,,,,,,,,,7,,,57,50
50220,note_on,300,0,8,,,,,,,,,7,,,60,0
50220,note_on,0,0,7,,,,,,,,,6,,,64,50
50220,note_on,60,0,3,,,,,,,,,2,,,57,0
50220,note_on,0,0,3,,,,,,,,,2,,,48,0
50220,note_on,300,0,7,,,,,,,,,6,,,69,0
50280,note_on,60,0,3,,,,,,,,,2,,,57,70
50280,note_on,0,0,3,,,,,,,,,2,,,48,70
50280,note_on,60,0,8,,,,,,,,,7,,,57,0
50280,note_on,0,0,8,,,,,,,,,7,,,64,50
50280,note_on,0,0,7,,,,,,,,,6,,,72,50
50280,note_on,60,0,7,,,,,,,,,6,,,64,0
50340,note_on,60,0,3,,,,,,,,,2,,,48,0
50340,note_on,0,0,3,,,,,,,,,2,,,57,0
50340,note_on,0,0,8,,,,,,,,,7,,,62,50
50340,note_on,0,0,3,,,,,,,,,2,,,59,70
50340,note_on,0,0,7,,,,,,,,,6,,,71,50
50340,note_on,60,0,8,,,,,,,,,7,,,64,0
50340,note_on,0,0,3,,,,,,,,,2,,,50,70
50340,note_on,60,0,7,,,,,,,,,6,,,72,0
50400,note_on,60,0,7,,,,,,,,,6,,,71,0
50400,note_on,60,0,3,,,,,,,,,2,,,50,0
50400,note_on,0,0,3,,,,,,,,,2,,,59,0
50400,note_on,0,0,3,,,,,,,,,2,,,52,70
50400,note_on,0,0,3,,,,,,,,,2,,,60,70
50400,note_on,0,0,8,,,,,,,,,7,,,60,50
50400,note_on,360,0,11,,,,,,,,,11,,,45,50
50400,note_on,0,0,7,,,,,,,,,6,,,69,50
50400,note_on,360,0,10,,,,,,,,,10,,,57,50
50400,note_on,60,0,8,,,,,,,,,7,,,62,0
50460,note_on,60,0,7,,,,,,,,,6,,,69,0
50460,note_on,0,0,7,,,,,,,,,6,,,64,50
50460,note_on,60,0,3,,,,,,,,,2,,,60,0
50460,note_on,0,0,3,,,,,,,,,2,,,52,0
50460,note_on,60,0,8,,,,,,,,,7,,,60,0
50460,note_on,0,0,8,,,,,,,,,7,,,57,50
50520,note_on,0,0,7,,,,,,,,,6,,,72,50
50520,note_on,120,0,11,,,,,,,,,11,,,45,0
50520,note_on,60,0,7,,,,,,,,,6,,,64,0
50520,note_on,120,0,10,,,,,,,,,10,,,57,0
50520,note_on,60,0,8,,,,,,,,,7,,,57,0
50520,note_on,0,0,3,,,,,,,,,2,,,48,70
50520,note_on,60,0,3,,,,,,,,,2,,,57,70
50520,note_on,0,0,8,,,,,,,,,7,,,64,50
50580,note_on,0,0,7,,,,,,,,,6,,,71,50
50580,note_on,60,0,8,,,,,,,,,7,,,64,0
50580,note_on,0,0,8,,,,,,,,,7,,,62,50
50580,note_on,60,0,7,,,,,,,,,6,,,72,0
50580,note_on,60,0,3,,,,,,,,,2,,,48,0
50580,note_on,0,0,3,,,,,,,,,2,,,57,0
50580,note_on,0,0,3,,,,,,,,,2,,,50,70
50580,note_on,0,0,3,,,,,,,,,2,,,59,70
50640,note_on,60,0,7,,,,,,,,,6,,,71,0
50640,note_on,0,0,7,,,,,,,,,6,,,69,50
50640,note_on,0,0,3,,,,,,,,,2,,,60,70
50640,note_on,120,0,11,,,,,,,,,11,,,33,50
50640,note_on,120,0,10,,,,,,,,,10,,,45,50
50640,note_on,0,0,3,,,,,,,,,2,,,52,70
50640,note_on,0,0,3,,,,,,,,,2,,,50,0
50640,note_on,60,0,8,,,,,,,,,7,,,62,0
50640,note_on,60,0,3,,,,,,,,,2,,,59,0
50640,note_on,0,0,8,,,,,,,,,7,,,60,50
50700,note_on,60,0,8,,,,,,,,,7,,,60,0
50700,note_on,0,0,8,,,,,,,,,7,,,64,50
50700,note_on,60,0,7,,,,,,,,,6,,,69,0
50700,note_on,0,0,7,,,,,,,,,6,,,64,50
50700,note_on,0,0,3,,,,,,,,,2,,,52,0
50700,note_on,60,0,3,,,,,,,,,2,,,60,0
50760,note_on,0,0,7,,,,,,,,,6,,,74,65
50760,note_on,60,0,7,,,,,,,,,6,,,64,0
50760,note_on,0,0,8,,,,,,,,,7,,,71,65
50760,note_on,120,0,10,,,,,,,,,10,,,45,0
50760,note_on,60,0,8,,,,,,,,,7,,,64,0
50760,note_on,120,0,11,,,,,,,,,11,,,33,0
50820,note_on,0,0,7,,,,,,,,,6,,,72,60
50820,note_on,0,0,8,,,,,,,,,7,,,69,60
50820,note_on,60,0,7,,,,,,,,,6,,,74,0
50820,note_on,60,0,8,,,,,,,,,7,,,71,0
50880,note_on,60,0,7,,,,,,,,,6,,,72,0
50880,note_on,0,0,7,,,,,,,,,6,,,71,50
50880,note_on,120,0,10,,,,,,,,,10,,,52,50
50880,note_on,120,0,11,,,,,,,,,11,,,40,50
50880,note_on,60,0,8,,,,,,,,,7,,,69,0
50880,note_on,0,0,8,,,,,,,,,7,,,68,50
50940,note_on,240,0,3,,,,,,,,,2,,,52,70
51000,note_on,0,0,3,,,,,,,,,2,,,59,70
51000,note_on,0,0,3,,,,,,,,,2,,,62,70
51000,note_on,60,0,3,,,,,,,,,2,,,52,0
51000,note_on,120,0,11,,,,,,,,,11,,,40,0
51000,note_on,120,0,10,,,,,,,,,10,,,52,0
51060,note_on,0,0,3,,,,,,,,,2,,,60,70
51060,note_on,60,0,3,,,,,,,,,2,,,59,0
51060,note_on,0,0,3,,,,,,,,,2,,,62,0
51060,note_on,0,0,3,,,,,,,,,2,,,57,70
51120,note_on,0,0,3,,,,,,,,,2,,,57,0
51120,note_on,60,0,3,,,,,,,,,2,,,60,0
51120,note_on,0,0,3,,,,,,,,,2,,,56,70
51120,note_on,0,0,3,,,,,,,,,2,,,59,70
51180,note_on,0,0,3,,,,,,,,,2,,,59,0
51180,note_on,300,0,8,,,,,,,,,7,,,68,0
51180,note_on,0,0,8,,,,,,,,,7,,,64,50
51180,note_on,60,0,3,,,,,,,,,2,,,56,0
51180,note_on,0,0,7,,,,,,,,,6,,,64,50
51180,note_on,300,0,7,,,,,,,,,6,,,71,0
51240,note_on,60,0,3,,,,,,,,,2,,,56,70
51240,note_on,0,0,3,,,,,,,,,2,,,59,70
51240,note_on,60,0,7,,,,,,,,,6,,,64,0
51240,note_on,0,0,7,,,,,,,,,6,,,74,50
51240,note_on,0,0,8,,,,,,,,,7,,,71,50
51240,note_on,60,0,8,,,,,,,,,7,,,64,0
51300,note_on,0,0,3,,,,,,,,,2,,,60,70
51300,note_on,0,0,8,,,,,,,,,7,,,69,50
51300,note_on,0,0,3,,,,,,,,,2,,,56,0
51300,note_on,0,0,3,,,,,,,,,2,,,57,70
51300,note_on,0,0,7,,,,,,,,,6,,,72,50
51300,note_on,60,0,8,,,,,,,,,7,,,71,0
51300,note_on,60,0,7,,,,,,,,,6,,,74,0
51300,note_on,60,0,3,,,,,,,,,2,,,59,0
51360,note_on,360,0,11,,,,,,,,,11,,,52,50
51360,note_on,0,0,7,,,,,,,,,6,,,71,50
51360,note_on,60,0,7,,,,,,,,,6,,,72,0
51360,note_on,360,0,10,,,,,,,,,10,,,64,50
51360,note_on,0,0,8,,,,,,,,,7,,,68,50
51360,note_on,60,0,3,,,,,,,,,2,,,60,0
51360,note_on,0,0,3,,,,,,,,,2,,,57,0
51360,note_on,0,0,3,,,,,,,,,2,,,62,70
51360,note_on,0,0,3,,,,,,,,,2,,,59,70
51360,note_on,60,0,8,,,,,,,,,7,,,69,0
51420,note_on,0,0,8,,,,,,,,,7,,,64,50
51420,note_on,60,0,3,,,,,,,,,2,,,59,0
51420,note_on,0,0,3,,,,,,,,,2,,,62,0
51420,note_on,60,0,8,,,,,,,,,7,,,68,0
51420,note_on,60,0,7,,,,,,,,,6,,,71,0
51420,note_on,0,0,7,,,,,,,,,6,,,64,50
51480,note_on,0,0,8,,,,,,,,,7,,,71,50
51480,note_on,60,0,8,,,,,,,,,7,,,64,0
51480,note_on,120,0,10,,,,,,,,,10,,,64,0
51480,note_on,60,0,7,,,,,,,,,6,,,64,0
51480,note_on,120,0,11,,,,,,,,,11,,,52,0
51480,note_on,0,0,3,,,,,,,,,2,,,59,70
51480,note_on,0,0,7,,,,,,,,,6,,,74,50
51480,note_on,60,0,3,,,,,,,,,2,,,56,70
51540,note_on,0,0,3,,,,,,,,,2,,,60,70
51540,note_on,60,0,8,,,,,,,,,7,,,71,0
51540,note_on,0,0,7,,,,,,,,,6,,,72,50
51540,note_on,60,0,7,,,,,,,,,6,,,74,0
51540,note_on,0,0,3,,,,,,,,,2,,,56,0
51540,note_on,0,0,8,,,,,,,,,7,,,69,50
51540,note_on,60,0,3,,,,,,,,,2,,,59,0
51540,note_on,0,0,3,,,,,,,,,2,,,57,70
51600,note_on,0,0,7,,,,,,,,,6,,,71,50
51600,note_on,0,0,3,,,,,,,,,2,,,59,70
51600,note_on,0,0,3,,,,,,,,,2,,,62,70
51600,note_on,120,0,10,,,,,,,,,10,,,52,50
51600,note_on,120,0,11,,,,,,,,,11,,,40,50
51600,note_on,0,0,3,,,,,,,,,2,,,60,0
51600,note_on,60,0,8,,,,,,,,,7,,,69,0
51600,note_on,0,0,8,,,,,,,,,7,,,68,50
51600,note_on,60,0,3,,,,,,,,,2,,,57,0
51600,note_on,60,0,7,,,,,,,,,6,,,72,0
51660,note_on,0,0,7,,,,,,,,,6,,,64,50
51660,note_on,60,0,7,,,,,,,,,6,,,71,0
51660,note_on,0,0,3,,,,,,,,,2,,,62,0
51660,note_on,60,0,8,,,,,,,,,7,,,68,0
51660,note_on,60,0,3,,,,,,,,,2,,,59,0
51660,note_on,0,0,8,,,,,,,,,7,,,64,50
51720,note_on,60,0,8,,,,,,,,,7,,,64,0
51720,note_on,60,0,7,,,,,,,,,6,,,64,0
51720,note_on,0,0,8,,,,,,,,,7,,,68,65
51720,note_on,120,0,11,,,,,,,,,11,,,40,0
51720,note_on,120,0,10,,,,,,,,,10,,,52,0
51720,note_on,0,0,7,,,,,,,,,6,,,76,65
51780,note_on,60,0,7,,,,,,,,,6,,,76,0
51780,note_on,0,0,7,,,,,,,,,6,,,74,60
51780,note_on,0,0,8,,,,,,,,,7,,,71,50
51780,note_on,60,0,8,,,,,,,,,7,,,68,0
51840,note_on,60,0,7,,,,,,,,,6,,,74,0
51840,note_on,0,0,7,,,,,,,,,6,,,72,50
51840,note_on,120,0,11,,,,,,,,,11,,,45,50
51840,note_on,120,0,10,,,,,,,,,10,,,57,50
51840,note_on,60,0,8,,,,,,,,,7,,,71,0
51840,note_on,0,0,8,,,,,,,,,7,,,69,50
51900,note_on,60,0,7,,,,,,,,,6,,,72,0
51900,note_on,0,0,7,,,,,,,,,6,,,77,50
51960,note_on,120,0,11,,,,,,,,,11,,,45,0
51960,note_on,120,0,10,,,,,,,,,10,,,57,0
51960,note_on,2040,0,9,,,,,,,,,8,,,64,0
51960,note_on,120,0,8,,,,,,,,,7,,,69,0
51960,note_on,60,0,7,,,,,,,,,6,,,77,0
51960,note_on,0,0,7,,,,,,,,,6,,,76,50
52020,note_on,60,0,9,,,,,,,,,8,,,69,50
52020,note_on,60,0,8,,,,,,,,,7,,,72,50
52020,note_on,0,0,7,,,,,,,,,6,,,75,60
52020,note_on,60,0,7,,,,,,,,,6,,,76,0
52080,note_on,0,0,7,,,,,,,,,6,,,76,60
52080,note_on,60,0,7,,,,,,,,,6,,,75,0
52080,note_on,60,0,8,,,,,,,,,7,,,72,0
52080,note_on,60,0,9,,,,,,,,,8,,,69,0
52080,note_on,0,0,9,,,,,,,,,8,,,67,50
52080,note_on,0,0,8,,,,,,,,,7,,,71,50
52140,note_on,60,0,7,,,,,,,,,6,,,76,0
52140,note_on,0,0,7,,,,,,,,,6,,,74,50
52200,note_on,0,0,7,,,,,,,,,6,,,72,50
52200,note_on,120,0,8,,,,,,,,,7,,,71,0
52200,note_on,120,0,9,,,,,,,,,8,,,67,0
52200,note_on,60,0,7,,,,,,,,,6,,,74,0
52260,note_on,60,0,9,,,,,,,,,8,,,65,50
52260,note_on,60,0,7,,,,,,,,,6,,,72,0
52260,note_on,0,0,7,,,,,,,,,6,,,71,60
52260,note_on,60,0,8,,,,,,,,,7,,,68,50
52320,note_on,60,0,7,,,,,,,,,6,,,71,0
52320,note_on,0,0,7,,,,,,,,,6,,,72,60
52320,note_on,60,0,8,,,,,,,,,7,,,68,0
52320,note_on,0,0,8,,,,,,,,,7,,,67,50
52320,note_on,60,0,9,,,,,,,,,8,,,65,0
52320,note_on,0,0,9,,,,,,,,,8,,,64,50
52380,note_on,60,0,7,,,,,,,,,6,,,72,0
52380,note_on,0,0,7,,,,,,,,,6,,,70,50
52440,note_on,120,0,8,,,,,,,,,7,,,67,0
52440,note_on,120,0,9,,,,,,,,,8,,,64,0
52440,note_on,0,0,7,,,,,,,,,6,,,69,50
52440,note_on,60,0,7,,,,,,,,,6,,,70,0
52500,note_on,60,0,7,,,,,,,,,6,,,69,0
52500,note_on,0,0,7,,,,,,,,,6,,,68,50
52500,note_on,60,0,8,,,,,,,,,7,,,65,50
52500,note_on,60,0,9,,,,,,,,,8,,,62,50
52560,note_on,7320,0,1,,,,,,,,,0,,,84,60
52560,note_on,0,0,1,,,,,,,,,0,,,81,60
52560,note_on,0,0,11,,,,,,,,,11,,,36,50
52560,program_change,600,0,11,,,,,,,,45,11,,,,
52560,program_change,600,0,10,,,,,,,,45,10,,,,
52560,note_on,0,0,10,,,,,,,,,10,,,48,50
52560,note_on,0,0,2,,,,,,,,,1,,,69,60
52560,note_on,0,0,9,,,,,,,,,8,,,60,50
52560,note_on,60,0,8,,,,,,,,,7,,,65,0
52560,note_on,0,0,8,,,,,,,,,7,,,64,50
52560,note_on,0,0,7,,,,,,,,,6,,,69,50
52560,note_on,60,0,7,,,,,,,,,6,,,68,0
52560,note_on,60,0,9,,,,,,,,,8,,,62,0
52560,note_on,7320,0,2,,,,,,,,,1,,,76,60
52620,note_on,60,0,10,,,,,,,,,10,,,48,0
52620,note_on,60,0,11,,,,,,,,,11,,,36,0
52680,note_on,120,0,9,,,,,,,,,8,,,60,0
52680,note_on,120,0,8,,,,,,,,,7,,,64,0
52680,note_on,60,0,10,,,,,,,,,10,,,53,50
52680,note_on,60,0,11,,,,,,,,,11,,,41,50
52680,note_on,120,0,7,,,,,,,,,6,,,69,0
52680,note_on,0,0,2,,,,,,,,,1,,,72,60
52680,note_on,120,0,2,,,,,,,,,1,,,76,0
52740,note_on,60,0,11,,,,,,,,,11,,,41,0
52740,note_on,60,0,10,,,,,,,,,10,,,53,0
52800,note_on,0,0,1,,,,,,,,,0,,,83,60
52800,note_on,120,0,2,,,,,,,,,1,,,72,0
52800,note_on,240,0,1,,,,,,,,,0,,,84,0
52800,note_on,60,0,10,,,,,,,,,10,,,50,50
52800,note_on,0,0,2,,,,,,,,,1,,,77,60
52800,note_on,60,0,11,,,,,,,,,11,,,38,50
52860,note_on,60,0,10,,,,,,,,,10,,,50,0
52860,note_on,60,0,11,,,,,,,,,11,,,38,0
52920,note_on,120,0,2,,,,,,,,,1,,,69,0
52920,note_on,0,0,2,,,,,,,,,1,,,74,60
52920,note_on,60,0,10,,,,,,,,,10,,,47,50
52920,note_on,60,0,11,,,,,,,,,11,,,35,50
52980,note_on,60,0,10,,,,,,,,,10,,,47,0
52980,note_on,60,0,11,,,,,,,,,11,,,35,0
53040,note_on,0,0,1,,,,,,,,,0,,,80,60
53040,note_on,240,0,1,,,,,,,,,0,,,81,0
53040,note_on,60,0,11,,,,,,,,,11,,,40,50
53040,note_on,120,0,2,,,,,,,,,1,,,77,0
53040,note_on,60,0,10,,,,,,,,,10,,,52,50
53040,note_on,0,0,2,,,,,,,,,1,,,76,60
53100,note_on,60,0,10,,,,,,,,,10,,,52,0
53100,note_on,1440,0,3,,,,,,,,,2,,,52,70
53100,note_on,60,0,11,,,,,,,,,11,,,40,0
53160,note_on,0,0,2,,,,,,,,,1,,,71,60
53160,note_on,120,0,2,,,,,,,,,1,,,74,0
53160,note_on,60,0,11,,,,,,,,,11,,,28,50
53160,note_on,0,0,3,,,,,,,,,2,,,61,70
53160,note_on,60,0,3,,,,,,,,,2,,,52,0
53160,note_on,0,0,3,,,,,,,,,2,,,64,70
53160,note_on,60,0,10,,,,,,,,,10,,,40,50
53220,note_on,60,0,10,,,,,,,,,10,,,40,0
53220,note_on,0,0,3,,,,,,,,,2,,,62,70
53220,note_on,0,0,3,,,,,,,,,2,,,59,70
53220,note_on,0,0,3,,,,,,,,,2,,,64,0
53220,note_on,60,0,11,,,,,,,,,11,,,28,0
53220,note_on,60,0,3,,,,,,,,,2,,,61,0
53280,note_on,240,0,1,,,,,,,,,0,,,80,0
53280,note_on,0,0,1,,,,,,,,,0,,,83,0
53280,note_on,0,0,1,,,,,,,,,0,,,81,60
53280,note_on,60,0,10,,,,,,,,,10,,,45,50
53280,note_on,600,0,8,,,,,,,,,7,,,69,60
53280,note_on,600,0,7,,,,,,,,,6,,,81,60
53280,note_on,60,0,11,,,,,,,,,11,,,33,50
53280,note_on,0,0,2,,,,,,,,,1,,,76,60
53280,note_on,0,0,9,,,,,,,,,8,,,57,50
53280,program_change,600,0,9,,,,,,,,45,8,,,,
53280,note_on,60,0,3,,,,,,,,,2,,,62,0
53280,note_on,0,0,3,,,,,,,,,2,,,59,0
53280,note_on,0,0,3,,,,,,,,,2,,,61,70
53280,note_on,0,0,2,,,,,,,,,1,,,73,60
53280,note_on,0,0,2,,,,,,,,,1,,,76,0
53280,note_on,120,0,2,,,,,,,,,1,,,71,0
53280,note_on,0,0,3,,,,,,,,,2,,,57,70
53340,note_on,60,0,3,,,,,,,,,2,,,57,0
53340,note_on,0,0,3,,,,,,,,,2,,,61,0
53340,note_on,0,0,3,,,,,,,,,2,,,52,70
53340,note_on,0,0,3,,,,,,,,,2,,,57,70
53400,note_on,120,0,9,,,,,,,,,8,,,57,0
53400,note_on,60,0,3,,,,,,,,,2,,,57,0
53400,note_on,0,0,3,,,,,,,,,2,,,64,70
53400,note_on,120,0,1,,,,,,,,,0,,,81,0
53400,note_on,120,0,11,,,,,,,,,11,,,33,0
53400,note_on,0,0,3,,,,,,,,,2,,,61,70
53400,note_on,120,0,2,,,,,,,,,1,,,76,0
53400,note_on,0,0,2,,,,,,,,,1,,,73,0
53400,note_on,120,0,10,,,,,,,,,10,,,45,0
53400,note_on,0,0,3,,,,,,,,,2,,,52,0
53460,note_on,60,0,3,,,,,,,,,2,,,61,0
53460,note_on,0,0,3,,,,,,,,,2,,,64,0
53460,note_on,0,0,3,,,,,,,,,2,,,59,70
53460,note_on,0,0,3,,,,,,,,,2,,,62,70
53520,note_on,0,0,3,,,,,,,,,2,,,59,0
53520,note_on,0,0,3,,,,,,,,,2,,,57,70
53520,note_on,0,0,3,,,,,,,,,2,,,61,70
53520,note_on,60,0,3,,,,,,,,,2,,,62,0
53580,note_on,60,0,3,,,,,,,,,2,,,61,0
53580,note_on,0,0,3,,,,,,,,,2,,,57,0
53580,note_on,0,0,3,,,,,,,,,2,,,52,70
53580,note_on,0,0,3,,,,,,,,,2,,,57,70
53640,note_on,0,0,8,,,,,,,,,7,,,71,75
53640,note_on,60,0,3,,,,,,,,,2,,,57,0
53640,note_on,0,0,3,,,,,,,,,2,,,52,0
53640,note_on,0,0,3,,,,,,,,,2,,,66,70
53640,note_on,0,0,7,,,,,,,,,6,,,83,75
53640,note_on,360,0,7,,,,,,,,,6,,,81,0
53640,note_on,360,0,8,,,,,,,,,7,,,69,0
53640,note_on,0,0,3,,,,,,,,,2,,,62,70
53700,note_on,60,0,3,,,,,,,,,2,,,62,0
53700,note_on,0,0,3,,,,,,,,,2,,,66,0
53700,note_on,0,0,3,,,,,,,,,2,,,61,70
53700,note_on,0,0,3,,,,,,,,,2,,,64,70
53760,note_on,0,0,7,,,,,,,,,6,,,81,80
53760,note_on,120,0,7,,,,,,,,,6,,,83,0
53760,note_on,360,0,10,,,,,,,,,10,,,52,50
53760,note_on,360,0,9,,,,,,,,,8,,,64,50
53760,note_on,0,0,3,,,,,,,,,2,,,59,70
53760,note_on,0,0,3,,,,,,,,,2,,,62,70
53760,note_on,0,0,3,,,,,,,,,2,,,61,0
53760,note_on,0,0,8,,,,,,,,,7,,,69,80
53760,note_on,120,0,8,,,,,,,,,7,,,71,0
53760,note_on,360,0,11,,,,,,,,,11,,,40,50
53760,note_on,60,0,3,,,,,,,,,2,,,64,0
53820,note_on,0,0,8,,,,,,,,,7,,,68,78
53820,note_on,60,0,8,,,,,,,,,7,,,69,0
53820,note_on,60,0,7,,,,,,,,,6,,,81,0
53820,note_on,0,0,7,,,,,,,,,6,,,80,78
53880,note_on,0,0,8,,,,,,,,,7,,,66,75
53880,note_on,0,0,7,,,,,,,,,6,,,78,75
53880,note_on,120,0,10,,,,,,,,,10,,,52,0
53880,note_on,120,0,9,,,,,,,,,8,,,64,0
53880,note_on,60,0,8,,,,,,,,,7,,,68,0
53880,note_on,60,0,7,,,,,,,,,6,,,80,0
53880,note_on,120,0,11,,,,,,,,,11,,,40,0
53940,note_on,60,0,8,,,,,,,,,7,,,66,0
53940,note_on,60,0,7,,,,,,,,,6,,,78,0
53940,note_on,0,0,8,,,,,,,,,7,,,64,73
53940,note_on,0,0,7,,,,,,,,,6,,,76,73
53985,note_on,45,0,7,,,,,,,,,6,,,76,0
53985,note_on,45,0,8,,,,,,,,,7,,,64,0
54000,note_on,15,0,7,,,,,,,,,6,,,76,70
54000,note_on,0,0,3,,,,,,,,,2,,,62,0
54000,note_on,240,0,3,,,,,,,,,2,,,59,0
54000,note_on,15,0,8,,,,,,,,,7,,,64,70
54060,note_on,60,0,3,,,,,,,,,2,,,52,70
54090,note_on,90,0,7,,,,,,,,,6,,,76,0
54090,note_on,90,0,8,,,,,,,,,7,,,64,0
54120,note_on,30,0,7,,,,,,,,,6,,,76,65
54120,note_on,0,0,3,,,,,,,,,2,,,64,70
54120,note_on,60,0,3,,,,,,,,,2,,,52,0
54120,note_on,30,0,8,,,,,,,,,7,,,64,65
54120,note_on,0,0,3,,,,,,,,,2,,,61,70
54180,note_on,0,0,3,,,,,,,,,2,,,64,0
54180,note_on,0,0,3,,,,,,,,,2,,,59,70
54180,note_on,0,0,3,,,,,,,,,2,,,62,70
54180,note_on,60,0,3,,,,,,,,,2,,,61,0
54210,note_on,90,0,7,,,,,,,,,6,,,76,0
54210,note_on,90,0,8,,,,,,,,,7,,,64,0
54240,note_on,30,0,8,,,,,,,,,7,,,64,60
54240,note_on,30,0,7,,,,,,,,,6,,,76,60
54240,note_on,360,0,11,,,,,,,,,11,,,45,50
54240,note_on,360,0,10,,,,,,,,,10,,,57,50
54240,note_on,360,0,9,,,,,,,,,8,,,69,50
54240,note_on,60,0,3,,,,,,,,,2,,,62,0
54240,note_on,0,0,3,,,,,,,,,2,,,59,0
54240,note_on,0,0,3,,,,,,,,,2,,,61,70
54240,note_on,0,0,3,,,,,,,,,2,,,57,70
54300,note_on,0,0,3,,,,,,,,,2,,,61,0
54300,note_on,0,0,3,,,,,,,,,2,,,52,70
54300,note_on,0,0,3,,,,,,,,,2,,,57,70
54300,note_on,60,0,3,,,,,,,,,2,,,57,0
54360,note_on,120,0,8,,,,,,,,,7,,,64,0
54360,note_on,60,0,3,,,,,,,,,2,,,57,0
54360,note_on,120,0,9,,,,,,,,,8,,,69,0
54360,note_on,0,0,3,,,,,,,,,2,,,61,70
54360,note_on,120,0,10,,,,,,,,,10,,,57,0
54360,note_on,120,0,11,,,,,,,,,11,,,45,0
54360,note_on,0,0,3,,,,,,,,,2,,,64,70
54360,note_on,0,0,8,,,,,,,,,7,,,69,65
54360,note_on,0,0,3,,,,,,,,,2,,,52,0
54360,note_on,120,0,7,,,,,,,,,6,,,76,0
54360,note_on,0,0,7,,,,,,,,,6,,,81,65
54420,note_on,0,0,3,,,,,,,,,2,,,59,70
54420,note_on,60,0,3,,,,,,,,,2,,,61,0
54420,note_on,0,0,3,,,,,,,,,2,,,62,70
54420,note_on,0,0,3,,,,,,,,,2,,,64,0
54480,note_on,0,0,3,,,,,,,,,2,,,61,70
54480,note_on,0,0,3,,,,,,,,,2,,,57,70
54480,note_on,0,0,3,,,,,,,,,2,,,59,0
54480,note_on,60,0,3,,,,,,,,,2,,,62,0
54540,note_on,60,0,3,,,,,,,,,2,,,61,0
54540,note_on,0,0,3,,,,,,,,,2,,,57,0
54540,note_on,0,0,3,,,,,,,,,2,,,52,70
54540,note_on,0,0,3,,,,,,,,,2,,,57,70
54600,note_on,0,0,3,,,,,,,,,2,,,66,70
54600,note_on,60,0,3,,,,,,,,,2,,,57,0
54600,note_on,0,0,3,,,,,,,,,2,,,52,0
54600,note_on,0,0,8,,,,,,,,,7,,,71,75
54600,note_on,0,0,3,,,,,,,,,2,,,62,70
54600,note_on,240,0,8,,,,,,,,,7,,,69,0
54600,note_on,0,0,7,,,,,,,,,6,,,83,75
54600,note_on,240,0,7,,,,,,,,,6,,,81,0
54660,note_on,60,0,3,,,,,,,,,2,,,62,0
54660,note_on,0,0,3,,,,,,,,,2,,,61,70
54660,note_on,0,0,3,,,,,,,,,2,,,66,0
54660,note_on,0,0,3,,,,,,,,,2,,,64,70
54720,note_on,360,0,9,,,,,,,,,8,,,64,50
54720,note_on,60,0,3,,,,,,,,,2,,,64,0
54720,note_on,0,0,3,,,,,,,,,2,,,61,0
54720,note_on,0,0,3,,,,,,,,,2,,,59,70
54720,note_on,0,0,3,,,,,,,,,2,,,62,70
54720,note_on,360,0,10,,,,,,,,,10,,,52,50
54720,note_on,0,0,7,,,,,,,,,6,,,81,80
54720,note_on,0,0,8,,,,,,,,,7,,,69,80
54720,note_on,360,0,11,,,,,,,,,11,,,40,50
54720,note_on,120,0,8,,,,,,,,,7,,,71,0
54720,note_on,120,0,7,,,,,,,,,6,,,83,0
54780,note_on,60,0,8,,,,,,,,,7,,,69,0
54780,note_on,0,0,8,,,,,,,,,7,,,68,78
54780,note_on,0,0,7,,,,,,,,,6,,,80,78
54780,note_on,60,0,7,,,,,,,,,6,,,81,0
54840,note_on,120,0,11,,,,,,,,,11,,,40,0
54840,note_on,120,0,10,,,,,,,,,10,,,52,0
54840,note_on,0,0,7,,,,,,,,,6,,,78,75
54840,note_on,60,0,7,,,,,,,,,6,,,80,0
54840,note_on,120,0,9,,,,,,,,,8,,,64,0
54840,note_on,60,0,8,,,,,,,,,7,,,68,0
54840,note_on,0,0,8,,,,,,,,,7,,,66,75
54900,note_on,0,0,7,,,,,,,,,6,,,76,73
54900,note_on,0,0,8,,,,,,,,,7,,,64,73
54900,note_on,60,0,8,,,,,,,,,7,,,66,0
54900,note_on,60,0,7,,,,,,,,,6,,,78,0
54945,note_on,45,0,8,,,,,,,,,7,,,64,0
54945,note_on,45,0,7,,,,,,,,,6,,,76,0
54960,note_on,15,0,8,,,,,,,,,7,,,64,70
54960,note_on,0,0,3,,,,,,,,,2,,,59,0
54960,note_on,15,0,7,,,,,,,,,6,,,76,70
54960,note_on,240,0,3,,,,,,,,,2,,,62,0
55080,note_on,120,0,8,,,,,,,,,7,,,64,0
55080,note_on,0,0,8,,,,,,,,,7,,,74,65
55080,note_on,0,0,7,,,,,,,,,6,,,76,65
55080,note_on,120,0,7,,,,,,,,,6,,,76,0
55200,note_on,0,0,7,,,,,,,,,6,,,76,50
55200,note_on,120,0,7,,,,,,,,,6,,,76,0
55260,note_on,180,0,8,,,,,,,,,7,,,74,0
55260,note_on,0,0,8,,,,,,,,,7,,,73,50
55320,note_on,60,0,8,,,,,,,,,7,,,73,0
55320,note_on,0,0,8,,,,,,,,,7,,,71,50
55380,note_on,180,0,7,,,,,,,,,6,,,76,0
55380,note_on,60,0,8,,,,,,,,,7,,,71,0
55380,note_on,0,0,7,,,,,,,,,6,,,78,50
55380,note_on,0,0,8,,,,,,,,,7,,,69,50
55425,note_on,45,0,8,,,,,,,,,7,,,69,0
55440,note_on,15,0,8,,,,,,,,,7,,,69,50
55440,note_on,0,0,7,,,,,,,,,6,,,79,50
55440,note_on,60,0,7,,,,,,,,,6,,,78,0
55560,note_on,0,0,7,,,,,,,,,6,,,73,50
55560,note_on,120,0,7,,,,,,,,,6,,,79,0
55560,note_on,0,0,9,,,,,,,,,8,,,67,50
55560,note_on,0,0,8,,,,,,,,,7,,,69,50
55560,note_on,120,0,8,,,,,,,,,7,,,69,0
55560,program_change,720,0,9,,,,,,,,48,8,,,,
55680,note_on,0,0,8,,,,,,,,,7,,,69,50
55680,note_on,120,0,8,,,,,,,,,7,,,69,0
55680,note_on,120,0,7,,,,,,,,,6,,,73,0
55680,note_on,0,0,7,,,,,,,,,6,,,74,50
55680,note_on,10440,0,4,,,,,,,,,3,,,50,50
55680,note_on,0,0,4,,,,,,,,,3,,,62,50
55740,note_on,180,0,9,,,,,,,,,8,,,67,0
55740,note_on,0,0,9,,,,,,,,,8,,,66,50
55800,note_on,0,0,9,,,,,,,,,8,,,64,50
55800,note_on,60,0,9,,,,,,,,,8,,,66,0
55860,note_on,0,0,7,,,,,,,,,6,,,76,55
55860,note_on,180,0,7,,,,,,,,,6,,,74,0
55860,note_on,0,0,9,,,,,,,,,8,,,62,50
55860,note_on,60,0,9,,,,,,,,,8,,,64,0
55905,note_on,45,0,9,,,,,,,,,8,,,62,0
55920,note_on,15,0,9,,,,,,,,,8,,,62,50
55920,note_on,0,0,7,,,,,,,,,6,,,78,57
55920,note_on,60,0,7,,,,,,,,,6,,,76,0
56040,note_on,0,0,11,,,,,,,,,11,,,49,50
56040,program_change,1200,0,11,,,,,,,,48,11,,,,
56040,program_change,1200,0,10,,,,,,,,48,10,,,,
56040,note_on,0,0,10,,,,,,,,,10,,,61,50
56040,note_on,360,0,8,,,,,,,,,7,,,69,0
56040,note_on,120,0,7,,,,,,,,,6,,,78,0
56040,note_on,0,0,7,,,,,,,,,6,,,81,61
56040,note_on,120,0,9,,,,,,,,,8,,,62,0
56040,note_on,0,0,9,,,,,,,,,8,,,62,50
56040,note_on,0,0,8,,,,,,,,,7,,,78,61
56160,note_on,120,0,7,,,,,,,,,6,,,81,0
56160,note_on,0,0,7,,,,,,,,,6,,,83,65
56160,note_on,0,0,8,,,,,,,,,7,,,80,65
56160,note_on,120,0,8,,,,,,,,,7,,,78,0
56220,note_on,180,0,11,,,,,,,,,11,,,49,0
56220,note_on,180,0,10,,,,,,,,,10,,,61,0
56220,note_on,0,0,10,,,,,,,,,10,,,59,50
56220,note_on,0,0,11,,,,,,,,,11,,,47,50
56280,note_on,0,0,11,,,,,,,,,11,,,45,50
56280,note_on,60,0,10,,,,,,,,,10,,,59,0
56280,note_on,240,0,9,,,,,,,,,8,,,62,0
56280,note_on,0,0,10,,,,,,,,,10,,,57,50
56280,note_on,0,0,9,,,,,,,,,8,,,61,50
56280,note_on,60,0,11,,,,,,,,,11,,,47,0
56340,note_on,60,0,11,,,,,,,,,11,,,45,0
56340,note_on,0,0,9,,,,,,,,,8,,,59,50
56340,note_on,180,0,8,,,,,,,,,7,,,80,0
56340,note_on,180,0,7,,,,,,,,,6,,,83,0
56340,note_on,0,0,7,,,,,,,,,6,,,85,70
56340,note_on,0,0,8,,,,,,,,,7,,,81,70
56340,note_on,0,0,10,,,,,,,,,10,,,56,50
56340,note_on,60,0,10,,,,,,,,,10,,,57,0
56340,note_on,60,0,9,,,,,,,,,8,,,61,0
56340,note_on,0,0,11,,,,,,,,,11,,,44,50
56385,note_on,45,0,10,,,,,,,,,10,,,56,0
56385,note_on,45,0,11,,,,,,,,,11,,,44,0
56400,note_on,15,0,10,,,,,,,,,10,,,56,50
56400,note_on,15,0,11,,,,,,,,,11,,,44,50
56400,note_on,0,0,9,,,,,,,,,8,,,64,50
56400,note_on,60,0,9,,,,,,,,,8,,,59,0
56400,note_on,0,0,8,,,,,,,,,7,,,83,72
56400,note_on,0,0,7,,,,,,,,,6,,,86,72
56400,note_on,60,0,7,,,,,,,,,6,,,85,0
56400,note_on,60,0,8,,,,,,,,,7,,,81,0
56520,note_on,120,0,10,,,,,,,,,10,,,56,0
56520,note_on,0,0,10,,,,,,,,,10,,,56,50
56520,note_on,0,0,7,,,,,,,,,6,,,76,76
56520,note_on,120,0,11,,,,,,,,,11,,,44,0
56520,note_on,0,0,11,,,,,,,,,11,,,44,50
56520,note_on,120,0,8,,,,,,,,,7,,,83,0
56520,note_on,120,0,9,,,,,,,,,8,,,64,0
56520,note_on,0,0,9,,,,,,,,,8,,,71,50
56520,note_on,0,0,8,,,,,,,,,7,,,74,76
56520,note_on,120,0,7,,,,,,,,,6,,,86,0
56640,note_on,0,0,10,,,,,,,,,10,,,57,50
56640,note_on,120,0,10,,,,,,,,,10,,,56,0
56640,note_on,0,0,8,,,,,,,,,7,,,73,70
56640,note_on,960,0,4,,,,,,,,,3,,,62,0
56640,note_on,0,0,4,,,,,,,,,3,,,50,0
56640,note_on,0,0,4,,,,,,,,,3,,,45,50
56640,note_on,0,0,4,,,,,,,,,3,,,57,50
56640,note_on,0,0,7,,,,,,,,,6,,,76,70
56640,note_on,120,0,8,,,,,,,,,7,,,74,0
56640,note_on,0,0,11,,,,,,,,,11,,,45,50
56640,note_on,120,0,9,,,,,,,,,8,,,71,0
56640,note_on,0,0,9,,,,,,,,,8,,,69,50
56640,note_on,120,0,7,,,,,,,,,6,,,76,0
56640,note_on,120,0,11,,,,,,,,,11,,,44,0
56700,note_on,0,0,7,,,,,,,,,6,,,81,69
56700,note_on,60,0,7,,,,,,,,,6,,,76,0
56730,note_on,30,0,7,,,,,,,,,6,,,81,0
56760,note_on,120,0,11,,,,,,,,,11,,,45,0
56760,note_on,120,0,8,,,,,,,,,7,,,73,0
56760,note_on,120,0,10,,,,,,,,,10,,,57,0
56760,note_on,120,0,4,,,,,,,,,3,,,57,0
56760,note_on,0,0,4,,,,,,,,,3,,,45,0
56760,note_on,120,0,9,,,,,,,,,8,,,69,0
56760,note_on,30,0,7,,,,,,,,,6,,,81,68
56790,note_on,30,0,7,,,,,,,,,6,,,81,0
56820,note_on,30,0,7,,,,,,,,,6,,,81,67
56850,note_on,30,0,7,,,,,,,,,6,,,81,0
56880,note_on,30,0,7,,,,,,,,,6,,,71,65
56880,note_on,120,0,11,,,,,,,,,11,,,38,50
56880,note_on,120,0,10,,,,,,,,,10,,,50,50
56880,note_on,120,0,8,,,,,,,,,7,,,66,65
56880,note_on,120,0,9,,,,,,,,,8,,,62,50
56940,note_on,60,0,7,,,,,,,,,6,,,71,0
56940,note_on,0,0,7,,,,,,,,,6,,,78,64
56970,note_on,30,0,7,,,,,,,,,6,,,78,0
57000,note_on,30,0,7,,,,,,,,,6,,,78,63
57000,note_on,120,0,11,,,,,,,,,11,,,38,0
57000,note_on,120,0,9,,,,,,,,,8,,,62,0
57000,note_on,120,0,8,,,,,,,,,7,,,66,0
57000,note_on,120,0,10,,,,,,,,,10,,,50,0
57030,note_on,30,0,7,,,,,,,,,6,,,78,0
57060,note_on,30,0,7,,,,,,,,,6,,,78,62
57090,note_on,30,0,7,,,,,,,,,6,,,78,0
57120,note_on,120,0,10,,,,,,,,,10,,,52,50
57120,note_on,120,0,11,,,,,,,,,11,,,40,50
57120,note_on,120,0,8,,,,,,,,,7,,,61,60
57120,note_on,30,0,7,,,,,,,,,6,,,76,60
57120,note_on,120,0,9,,,,,,,,,8,,,57,50
57180,note_on,60,0,8,,,,,,,,,7,,,61,0
57180,note_on,0,0,7,,,,,,,,,6,,,73,59
57180,note_on,60,0,9,,,,,,,,,8,,,57,0
57180,note_on,60,0,7,,,,,,,,,6,,,76,0
57210,note_on,30,0,7,,,,,,,,,6,,,73,0
57240,note_on,60,0,8,,,,,,,,,7,,,64,58
57240,note_on,120,0,11,,,,,,,,,11,,,40,0
57240,note_on,60,0,9,,,,,,,,,8,,,61,50
57240,note_on,120,0,10,,,,,,,,,10,,,52,0
57240,note_on,30,0,7,,,,,,,,,6,,,69,58
57270,note_on,30,0,7,,,,,,,,,6,,,69,0
57300,note_on,60,0,9,,,,,,,,,8,,,61,0
57300,note_on,60,0,8,,,,,,,,,7,,,64,0
57300,note_on,30,0,7,,,,,,,,,6,,,69,57
57330,note_on,30,0,7,,,,,,,,,6,,,69,0
57360,note_on,120,0,11,,,,,,,,,11,,,40,50
57360,note_on,60,0,8,,,,,,,,,7,,,59,55
57360,note_on,60,0,9,,,,,,,,,8,,,56,50
57360,note_on,30,0,7,,,,,,,,,6,,,74,55
57360,note_on,120,0,10,,,,,,,,,10,,,52,50
57420,note_on,60,0,9,,,,,,,,,8,,,56,0
57420,note_on,60,0,7,,,,,,,,,6,,,74,0
57420,note_on,60,0,8,,,,,,,,,7,,,59,0
57420,note_on,0,0,7,,,,,,,,,6,,,71,54
57450,note_on,30,0,7,,,,,,,,,6,,,71,0
57480,note_on,120,0,10,,,,,,,,,10,,,52,0
57480,note_on,120,0,11,,,,,,,,,11,,,40,0
57480,note_on,60,0,9,,,,,,,,,8,,,59,50
57480,note_on,30,0,7,,,,,,,,,6,,,68,53
57480,note_on,60,0,8,,,,,,,,,7,,,62,53
57510,note_on,30,0,7,,,,,,,,,6,,,68,0
57540,note_on,60,0,8,,,,,,,,,7,,,62,0
57540,note_on,30,0,7,,,,,,,,,6,,,68,52
57540,note_on,60,0,9,,,,,,,,,8,,,59,0
57570,note_on,30,0,7,,,,,,,,,6,,,68,0
57600,note_on,4200,0,2,,,,,,,,,1,,,73,100
57600,note_on,60,0,8,,,,,,,,,7,,,73,100
57600,note_on,30,0,7,,,,,,,,,6,,,69,50
57600,note_on,120,0,11,,,,,,,,,11,,,33,50
57600,set_tempo,7920,1,0,,,,,,352941,,,,,,,
57600,note_on,120,0,10,,,,,,,,,10,,,45,50
57630,note_on,30,0,8,,,,,,,,,7,,,73,0
57630,note_on,0,0,8,,,,,,,,,7,,,76,100
57660,note_on,0,0,8,,,,,,,,,7,,,74,100
57660,note_on,30,0,8,,,,,,,,,7,,,76,0
57690,note_on,30,0,8,,,,,,,,,7,,,74,0
57690,note_on,0,0,8,,,,,,,,,7,,,73,100
57720,note_on,180,0,9,,,,,,,,,8,,,69,100
57720,note_on,120,0,2,,,,,,,,,1,,,73,0
57720,note_on,30,0,8,,,,,,,,,7,,,73,0
57720,note_on,120,0,7,,,,,,,,,6,,,69,0
57720,note_on,0,0,2,,,,,,,,,1,,,78,100
57720,note_on,120,0,11,,,,,,,,,11,,,33,0
57720,note_on,960,0,4,,,,,,,,,3,,,69,100
57720,note_on,120,0,10,,,,,,,,,10,,,45,0
57720,note_on,0,0,8,,,,,,,,,7,,,78,100
57720,note_on,0,0,2,,,,,,,,,1,,,69,100
57840,note_on,0,0,2,,,,,,,,,1,,,71,100
57840,note_on,120,0,8,,,,,,,,,7,,,78,0
57840,note_on,0,0,8,,,,,,,,,7,,,71,100
57840,note_on,120,0,2,,,,,,,,,1,,,78,0
57870,note_on,30,0,8,,,,,,,,,7,,,71,0
57870,note_on,0,0,8,,,,,,,,,7,,,74,100
57900,note_on,0,0,8,,,,,,,,,7,,,73,100
57900,note_on,30,0,8,,,,,,,,,7,,,74,0
57930,note_on,0,0,8,,,,,,,,,7,,,71,100
57930,note_on,30,0,8,,,,,,,,,7,,,73,0
57960,note_on,0,0,4,,,,,,,,,3,,,68,100
57960,note_on,4560,0,1,,,,,,,,,0,,,76,100
57960,note_on,120,0,2,,,,,,,,,1,,,71,0
57960,note_on,0,0,2,,,,,,,,,1,,,69,0
57960,note_on,0,0,8,,,,,,,,,7,,,76,100
57960,note_on,30,0,8,,,,,,,,,7,,,71,0
57960,note_on,0,0,2,,,,,,,,,1,,,68,100
57960,note_on,0,0,2,,,,,,,,,1,,,76,100
57960,note_on,0,0,9,,,,,,,,,8,,,68,100
57960,note_on,240,0,9,,,,,,,,,8,,,69,0
57960,note_on,240,0,4,,,,,,,,,3,,,69,0
58080,note_on,0,0,4,,,,,,,,,3,,,66,100
58080,note_on,120,0,4,,,,,,,,,3,,,68,0
58080,note_on,0,0,9,,,,,,,,,8,,,66,100
58080,note_on,120,0,2,,,,,,,,,1,,,68,0
58080,note_on,0,0,2,,,,,,,,,1,,,66,100
58080,note_on,360,0,7,,,,,,,,,6,,,81,100
58080,note_on,0,0,1,,,,,,,,,0,,,81,100
58080,note_on,120,0,1,,,,,,,,,0,,,76,0
58080,note_on,120,0,9,,,,,,,,,8,,,68,0
58110,note_on,30,0,7,,,,,,,,,6,,,81,0
58110,note_on,0,0,7,,,,,,,,,6,,,85,100
58110,note_on,30,0,9,,,,,,,,,8,,,66,0
58110,note_on,0,0,9,,,,,,,,,8,,,69,100
58140,note_on,30,0,7,,,,,,,,,6,,,85,0
58140,note_on,0,0,7,,,,,,,,,6,,,83,100
58140,note_on,30,0,9,,,,,,,,,8,,,69,0
58140,note_on,0,0,9,,,,,,,,,8,,,68,100
58170,note_on,0,0,7,,,,,,,,,6,,,81,100
58170,note_on,30,0,7,,,,,,,,,6,,,83,0
58170,note_on,30,0,9,,,,,,,,,8,,,68,0
58170,note_on,0,0,9,,,,,,,,,8,,,66,100
58200,note_on,0,0,7,,,,,,,,,6,,,86,100
58200,note_on,30,0,7,,,,,,,,,6,,,81,0
58200,note_on,30,0,9,,,,,,,,,8,,,66,0
58200,note_on,120,0,1,,,,,,,,,0,,,86,100
58200,note_on,0,0,8,,,,,,,,,7,,,74,100
58200,note_on,240,0,8,,,,,,,,,7,,,76,0
58200,note_on,0,0,2,,,,,,,,,1,,,71,100
58200,note_on,0,0,2,,,,,,,,,1,,,76,0
58200,note_on,120,0,2,,,,,,,,,1,,,66,0
58200,note_on,0,0,9,,,,,,,,,8,,,71,100
58290,note_on,90,0,7,,,,,,,,,6,,,86,0
58320,note_on,0,0,4,,,,,,,,,3,,,64,100
58320,note_on,120,0,9,,,,,,,,,8,,,71,0
58320,note_on,0,0,9,,,,,,,,,8,,,64,100
58320,note_on,240,0,4,,,,,,,,,3,,,66,0
58320,note_on,0,0,1,,,,,,,,,0,,,80,100
58320,note_on,30,0,7,,,,,,,,,6,,,80,100
58320,note_on,120,0,1,,,,,,,,,0,,,81,0
58320,note_on,120,0,2,,,,,,,,,1,,,71,0
58320,note_on,0,0,2,,,,,,,,,1,,,64,100
58350,note_on,30,0,9,,,,,,,,,8,,,64,0
58350,note_on,30,0,7,,,,,,,,,6,,,80,0
58350,note_on,0,0,7,,,,,,,,,6,,,83,100
58350,note_on,0,0,9,,,,,,,,,8,,,68,100
58380,note_on,0,0,9,,,,,,,,,8,,,66,100
58380,note_on,30,0,9,,,,,,,,,8,,,68,0
58380,note_on,0,0,7,,,,,,,,,6,,,81,100
58380,note_on,30,0,7,,,,,,,,,6,,,83,0
58410,note_on,30,0,7,,,,,,,,,6,,,81,0
58410,note_on,0,0,9,,,,,,,,,8,,,64,100
58410,note_on,30,0,9,,,,,,,,,8,,,66,0
58410,note_on,0,0,7,,,,,,,,,6,,,80,100
58440,note_on,0,0,7,,,,,,,,,6,,,85,100
58440,note_on,0,0,2,,,,,,,,,1,,,73,100
58440,note_on,0,0,2,,,,,,,,,1,,,69,100
58440,note_on,120,0,2,,,,,,,,,1,,,64,0
58440,note_on,0,0,4,,,,,,,,,3,,,57,100
58440,note_on,30,0,7,,,,,,,,,6,,,80,0
58440,note_on,120,0,4,,,,,,,,,3,,,64,0
58440,note_on,0,0,4,,,,,,,,,3,,,69,100
58440,note_on,240,0,8,,,,,,,,,7,,,74,0
58440,note_on,0,0,8,,,,,,,,,7,,,73,100
58440,note_on,120,0,1,,,,,,,,,0,,,80,0
58440,note_on,0,0,1,,,,,,,,,0,,,86,0
58440,note_on,0,0,1,,,,,,,,,0,,,85,100
58440,note_on,30,0,9,,,,,,,,,8,,,64,0
58440,note_on,0,0,9,,,,,,,,,8,,,69,100
58470,note_on,0,0,8,,,,,,,,,7,,,76,100
58470,note_on,30,0,8,,,,,,,,,7,,,73,0
58500,note_on,0,0,8,,,,,,,,,7,,,74,100
58500,note_on,30,0,8,,,,,,,,,7,,,76,0
58530,note_on,30,0,8,,,,,,,,,7,,,74,0
58530,note_on,0,0,8,,,,,,,,,7,,,73,100
58560,note_on,120,0,2,,,,,,,,,1,,,73,0
58560,note_on,840,0,11,,,,,,,,,11,,,38,100
58560,note_on,0,0,8,,,,,,,,,7,,,78,100
58560,note_on,120,0,1,,,,,,,,,0,,,90,100
58560,note_on,840,0,10,,,,,,,,,10,,,50,100
58560,note_on,30,0,8,,,,,,,,,7,,,73,0
58560,note_on,0,0,2,,,,,,,,,1,,,78,100
58560,note_on,0,0,4,,,,,,,,,3,,,50,100
58560,note_on,120,0,4,,,,,,,,,3,,,57,0
58560,note_on,3600,0,3,,,,,,,,,2,,,50,100
58590,note_on,0,0,3,,,,,,,,,2,,,54,100
58590,note_on,30,0,3,,,,,,,,,2,,,50,0
58590,note_on,0,0,11,,,,,,,,,11,,,42,100
58590,note_on,30,0,11,,,,,,,,,11,,,38,0
58590,note_on,30,0,10,,,,,,,,,10,,,50,0
58590,note_on,0,0,10,,,,,,,,,10,,,54,100
58620,note_on,30,0,10,,,,,,,,,10,,,54,0
58620,note_on,0,0,11,,,,,,,,,11,,,40,100
58620,note_on,30,0,11,,,,,,,,,11,,,42,0
58620,note_on,30,0,3,,,,,,,,,2,,,54,0
58620,note_on,0,0,10,,,,,,,,,10,,,52,100
58620,note_on,0,0,3,,,,,,,,,2,,,52,100
58650,note_on,0,0,10,,,,,,,,,10,,,50,100
58650,note_on,30,0,11,,,,,,,,,11,,,40,0
58650,note_on,0,0,11,,,,,,,,,11,,,38,100
58650,note_on,30,0,10,,,,,,,,,10,,,52,0
58650,note_on,30,0,3,,,,,,,,,2,,,52,0
58650,note_on,0,0,3,,,,,,,,,2,,,50,100
58680,note_on,120,0,2,,,,,,,,,1,,,69,0
58680,note_on,0,0,9,,,,,,,,,8,,,68,100
58680,note_on,240,0,9,,,,,,,,,8,,,69,0
58680,note_on,120,0,4,,,,,,,,,3,,,50,0
58680,note_on,30,0,10,,,,,,,,,10,,,50,0
58680,note_on,0,0,1,,,,,,,,,0,,,83,100
58680,note_on,0,0,4,,,,,,,,,3,,,69,0
58680,note_on,0,0,4,,,,,,,,,3,,,68,100
58680,note_on,30,0,11,,,,,,,,,11,,,38,0
58680,note_on,0,0,11,,,,,,,,,11,,,44,100
58680,note_on,120,0,1,,,,,,,,,0,,,85,0
58680,note_on,0,0,2,,,,,,,,,1,,,71,100
58680,note_on,0,0,8,,,,,,,,,7,,,71,100
58680,note_on,120,0,8,,,,,,,,,7,,,78,0
58680,note_on,240,0,7,,,,,,,,,6,,,85,0
58680,note_on,0,0,4,,,,,,,,,3,,,62,100
58680,note_on,0,0,7,,,,,,,,,6,,,83,100
58680,note_on,30,0,3,,,,,,,,,2,,,50,0
58680,note_on,0,0,3,,,,,,,,,2,,,56,100
58710,note_on,30,0,8,,,,,,,,,7,,,71,0
58710,note_on,0,0,8,,,,,,,,,7,,,74,100
58740,note_on,30,0,8,,,,,,,,,7,,,74,0
58740,note_on,0,0,8,,,,,,,,,7,,,73,100
58770,note_on,0,0,8,,,,,,,,,7,,,71,100
58770,note_on,30,0,8,,,,,,,,,7,,,73,0
58800,note_on,120,0,1,,,,,,,,,0,,,90,0
58800,note_on,0,0,2,,,,,,,,,1,,,76,100
58800,note_on,120,0,3,,,,,,,,,2,,,56,0
58800,note_on,0,0,3,,,,,,,,,2,,,49,100
58800,note_on,120,0,2,,,,,,,,,1,,,78,0
58800,note_on,0,0,11,,,,,,,,,11,,,37,100
58800,note_on,120,0,11,,,,,,,,,11,,,44,0
58800,note_on,0,0,1,,,,,,,,,0,,,88,100
58800,note_on,30,0,8,,,,,,,,,7,,,71,0
58800,note_on,0,0,8,,,,,,,,,7,,,76,100
58800,note_on,0,0,4,,,,,,,,,3,,,64,100
58800,note_on,120,0,4,,,,,,,,,3,,,62,0
58800,note_on,120,0,10,,,,,,,,,10,,,49,100
58830,note_on,0,0,10,,,,,,,,,10,,,52,100
58830,note_on,0,0,3,,,,,,,,,2,,,52,100
58830,note_on,30,0,10,,,,,,,,,10,,,49,0
58830,note_on,30,0,3,,,,,,,,,2,,,49,0
58830,note_on,0,0,11,,,,,,,,,11,,,40,100
58830,note_on,30,0,11,,,,,,,,,11,,,37,0
58860,note_on,30,0,11,,,,,,,,,11,,,40,0
58860,note_on,0,0,11,,,,,,,,,11,,,38,100
58860,note_on,0,0,10,,,,,,,,,10,,,50,100
58860,note_on,30,0,10,,,,,,,,,10,,,52,0
58860,note_on,0,0,3,,,,,,,,,2,,,50,100
58860,note_on,30,0,3,,,,,,,,,2,,,52,0
58890,note_on,0,0,10,,,,,,,,,10,,,49,100
58890,note_on,30,0,10,,,,,,,,,10,,,50,0
58890,note_on,30,0,3,,,,,,,,,2,,,50,0
58890,note_on,0,0,3,,,,,,,,,2,,,49,100
58890,note_on,30,0,11,,,,,,,,,11,,,38,0
58890,note_on,0,0,11,,,,,,,,,11,,,37,100
58920,note_on,0,0,4,,,,,,,,,3,,,57,100
58920,note_on,120,0,1,,,,,,,,,0,,,83,0
58920,note_on,0,0,1,,,,,,,,,0,,,81,100
58920,note_on,30,0,10,,,,,,,,,10,,,49,0
58920,note_on,30,0,11,,,,,,,,,11,,,37,0
58920,note_on,0,0,11,,,,,,,,,11,,,42,100
58920,note_on,0,0,2,,,,,,,,,1,,,69,100
58920,note_on,120,0,2,,,,,,,,,1,,,71,0
58920,note_on,120,0,8,,,,,,,,,7,,,76,0
58920,note_on,0,0,4,,,,,,,,,3,,,66,100
58920,note_on,0,0,4,,,,,,,,,3,,,68,0
58920,note_on,120,0,4,,,,,,,,,3,,,64,0
58920,note_on,240,0,9,,,,,,,,,8,,,68,0
58920,note_on,30,0,3,,,,,,,,,2,,,49,0
58920,note_on,0,0,3,,,,,,,,,2,,,54,100
58920,note_on,0,0,9,,,,,,,,,8,,,66,100
58920,note_on,240,0,7,,,,,,,,,6,,,83,0
58920,note_on,0,0,7,,,,,,,,,6,,,81,100
58920,note_on,0,0,8,,,,,,,,,7,,,69,100
58950,note_on,0,0,8,,,,,,,,,7,,,73,100
58950,note_on,30,0,8,,,,,,,,,7,,,69,0
58980,note_on,0,0,8,,,,,,,,,7,,,71,100
58980,note_on,30,0,8,,,,,,,,,7,,,73,0
59010,note_on,0,0,8,,,,,,,,,7,,,69,100
59010,note_on,30,0,8,,,,,,,,,7,,,71,0
59040,note_on,120,0,2,,,,,,,,,1,,,69,0
59040,note_on,0,0,1,,,,,,,,,0,,,86,100
59040,note_on,0,0,1,,,,,,,,,0,,,78,100
59040,note_on,0,0,7,,,,,,,,,6,,,86,100
59040,note_on,0,0,1,,,,,,,,,0,,,88,0
59040,note_on,120,0,1,,,,,,,,,0,,,81,0
59040,note_on,30,0,8,,,,,,,,,7,,,69,0
59040,note_on,120,0,10,,,,,,,,,10,,,47,100
59040,note_on,0,0,8,,,,,,,,,7,,,78,100
59040,note_on,120,0,7,,,,,,,,,6,,,81,0
59040,note_on,0,0,2,,,,,,,,,1,,,74,100
59040,note_on,120,0,3,,,,,,,,,2,,,54,0
59040,note_on,120,0,11,,,,,,,,,11,,,42,0
59040,note_on,0,0,11,,,,,,,,,11,,,35,100
59040,note_on,120,0,9,,,,,,,,,8,,,66,0
59040,note_on,0,0,2,,,,,,,,,1,,,76,0
59040,note_on,0,0,2,,,,,,,,,1,,,78,100
59040,note_on,0,0,3,,,,,,,,,2,,,47,100
59040,note_on,0,0,4,,,,,,,,,3,,,57,0
59040,note_on,120,0,4,,,,,,,,,3,,,66,0
59040,note_on,0,0,9,,,,,,,,,8,,,59,100
59070,note_on,0,0,1,,,,,,,,,0,,,78,0
59070,note_on,30,0,2,,,,,,,,,1,,,74,0
59070,note_on,0,0,2,,,,,,,,,1,,,78,0
59070,note_on,30,0,1,,,,,,,,,0,,,86,0
59070,note_on,30,0,8,,,,,,,,,7,,,78,0
59070,note_on,30,0,11,,,,,,,,,11,,,35,0
59070,note_on,30,0,3,,,,,,,,,2,,,47,0
59070,note_on,30,0,7,,,,,,,,,6,,,86,0
59070,note_on,30,0,9,,,,,,,,,8,,,59,0
59070,note_on,30,0,10,,,,,,,,,10,,,47,0
59100,note_on,0,0,1,,,,,,,,,0,,,85,101
59100,note_on,30,0,1,,,,,,,,,0,,,76,101
59100,note_on,30,0,11,,,,,,,,,11,,,37,101
59100,note_on,30,0,7,,,,,,,,,6,,,85,101
59100,note_on,30,0,8,,,,,,,,,7,,,76,101
59100,note_on,30,0,9,,,,,,,,,8,,,61,101
59100,note_on,30,0,10,,,,,,,,,10,,,49,101
59100,note_on,0,0,2,,,,,,,,,1,,,76,101
59100,note_on,30,0,2,,,,,,,,,1,,,73,101
59100,note_on,30,0,3,,,,,,,,,2,,,49,101
59130,note_on,30,0,1,,,,,,,,,0,,,85,0
59130,note_on,30,0,9,,,,,,,,,8,,,61,0
59130,note_on,0,0,2,,,,,,,,,1,,,73,0
59130,note_on,30,0,2,,,,,,,,,1,,,76,0
59130,note_on,30,0,10,,,,,,,,,10,,,49,0
59130,note_on,30,0,3,,,,,,,,,2,,,49,0
59130,note_on,30,0,11,,,,,,,,,11,,,37,0
59130,note_on,0,0,1,,,,,,,,,0,,,76,0
59130,note_on,30,0,7,,,,,,,,,6,,,85,0
59130,note_on,30,0,8,,,,,,,,,7,,,76,0
59160,note_on,30,0,2,,,,,,,,,1,,,71,103
59160,note_on,30,0,9,,,,,,,,,8,,,62,103
59160,note_on,0,0,2,,,,,,,,,1,,,74,103
59160,note_on,30,0,11,,,,,,,,,11,,,38,103
59160,note_on,30,0,8,,,,,,,,,7,,,74,103
59160,note_on,30,0,1,,,,,,,,,0,,,74,103
59160,note_on,30,0,7,,,,,,,,,6,,,83,103
59160,note_on,0,0,1,,,,,,,,,0,,,83,103
59160,note_on,30,0,3,,,,,,,,,2,,,50,103
59160,note_on,30,0,10,,,,,,,,,10,,,50,103
59190,note_on,30,0,1,,,,,,,,,0,,,83,0
59190,note_on,30,0,8,,,,,,,,,7,,,74,0
59190,note_on,30,0,9,,,,,,,,,8,,,62,0
59190,note_on,30,0,10,,,,,,,,,10,,,50,0
59190,note_on,30,0,3,,,,,,,,,2,,,50,0
59190,note_on,30,0,11,,,,,,,,,11,,,38,0
59190,note_on,30,0,2,,,,,,,,,1,,,74,0
59190,note_on,0,0,2,,,,,,,,,1,,,71,0
59190,note_on,0,0,1,,,,,,,,,0,,,74,0
59190,note_on,30,0,7,,,,,,,,,6,,,83,0
59220,note_on,0,0,1,,,,,,,,,0,,,81,105
59220,note_on,30,0,1,,,,,,,,,0,,,73,105
59220,note_on,30,0,8,,,,,,,,,7,,,73,105
59220,note_on,0,0,2,,,,,,,,,1,,,73,105
59220,note_on,30,0,11,,,,,,,,,11,,,39,105
59220,note_on,30,0,3,,,,,,,,,2,,,51,105
59220,note_on,30,0,9,,,,,,,,,8,,,63,105
59220,note_on,30,0,7,,,,,,,,,6,,,81,105
59220,note_on,30,0,2,,,,,,,,,1,,,69,105
59220,note_on,30,0,10,,,,,,,,,10,,,51,105
59250,note_on,30,0,2,,,,,,,,,1,,,73,0
59250,note_on,30,0,8,,,,,,,,,7,,,73,0
59250,note_on,30,0,9,,,,,,,,,8,,,63,0
59250,note_on,0,0,2,,,,,,,,,1,,,69,0
59250,note_on,30,0,10,,,,,,,,,10,,,51,0
59250,note_on,30,0,11,,,,,,,,,11,,,39,0
59250,note_on,30,0,3,,,,,,,,,2,,,51,0
59250,note_on,30,0,1,,,,,,,,,0,,,81,0
59250,note_on,0,0,1,,,,,,,,,0,,,73,0
59250,note_on,30,0,7,,,,,,,,,6,,,81,0
59280,note_on,30,0,11,,,,,,,,,11,,,40,107
59280,note_on,30,0,10,,,,,,,,,10,,,52,107
59280,note_on,30,0,1,,,,,,,,,0,,,71,107
59280,note_on,0,0,1,,,,,,,,,0,,,80,107
59280,note_on,0,0,2,,,,,,,,,1,,,71,107
59280,note_on,30,0,9,,,,,,,,,8,,,64,107
59280,note_on,30,0,7,,,,,,,,,6,,,80,107
59280,note_on,30,0,3,,,,,,,,,2,,,52,107
59280,note_on,30,0,8,,,,,,,,,7,,,71,107
59280,note_on,30,0,2,,,,,,,,,1,,,68,107
59310,note_on,0,0,2,,,,,,,,,1,,,68,0
59310,note_on,0,0,1,,,,,,,,,0,,,71,0
59310,note_on,30,0,1,,,,,,,,,0,,,80,0
59310,note_on,30,0,9,,,,,,,,,8,,,64,0
59310,note_on,30,0,2,,,,,,,,,1,,,71,0
59310,note_on,30,0,8,,,,,,,,,7,,,71,0
59310,note_on,30,0,3,,,,,,,,,2,,,52,0
59310,note_on,30,0,7,,,,,,,,,6,,,80,0
59310,note_on,30,0,11,,,,,,,,,11,,,40,0
59310,note_on,30,0,10,,,,,,,,,10,,,52,0
59340,note_on,30,0,2,,,,,,,,,1,,,78,109
59340,note_on,30,0,10,,,,,,,,,10,,,54,109
59340,note_on,0,0,2,,,,,,,,,1,,,69,109
59340,note_on,30,0,9,,,,,,,,,8,,,66,109
59340,note_on,30,0,3,,,,,,,,,2,,,54,109
59340,note_on,30,0,7,,,,,,,,,6,,,78,109
59340,note_on,0,0,1,,,,,,,,,0,,,90,109
59340,note_on,30,0,8,,,,,,,,,7,,,69,109
59340,note_on,30,0,1,,,,,,,,,0,,,81,109
59340,note_on,30,0,11,,,,,,,,,11,,,42,109
59370,note_on,30,0,1,,,,,,,,,0,,,90,0
59370,note_on,30,0,3,,,,,,,,,2,,,54,0
59370,note_on,30,0,2,,,,,,,,,1,,,69,0
59370,note_on,0,0,2,,,,,,,,,1,,,78,0
59370,note_on,0,0,1,,,,,,,,,0,,,81,0
59370,note_on,30,0,10,,,,,,,,,10,,,54,0
59370,note_on,30,0,8,,,,,,,,,7,,,69,0
59370,note_on,30,0,9,,,,,,,,,8,,,66,0
59370,note_on,30,0,7,,,,,,,,,6,,,78,0
59370,note_on,30,0,11,,,,,,,,,11,,,42,0
59400,note_on,30,0,2,,,,,,,,,1,,,76,111
59400,note_on,30,0,3,,,,,,,,,2,,,56,111
59400,note_on,30,0,9,,,,,,,,,8,,,68,111
59400,note_on,30,0,11,,,,,,,,,11,,,44,111
59400,note_on,0,0,2,,,,,,,,,1,,,71,111
59400,note_on,30,0,10,,,,,,,,,10,,,56,111
59400,note_on,30,0,7,,,,,,,,,6,,,76,111
59400,note_on,30,0,8,,,,,,,,,7,,,71,111
59400,note_on,30,0,1,,,,,,,,,0,,,83,111
59400,note_on,0,0,1,,,,,,,,,0,,,88,111
59430,note_on,30,0,1,,,,,,,,,0,,,88,0
59430,note_on,30,0,9,,,,,,,,,8,,,68,0
59430,note_on,0,0,2,,,,,,,,,1,,,76,0
59430,note_on,30,0,2,,,,,,,,,1,,,71,0
59430,note_on,0,0,1,,,,,,,,,0,,,83,0
59430,note_on,30,0,10,,,,,,,,,10,,,56,0
59430,note_on,30,0,8,,,,,,,,,7,,,71,0
59430,note_on,30,0,3,,,,,,,,,2,,,56,0
59430,note_on,30,0,7,,,,,,,,,6,,,76,0
59430,note_on,30,0,11,,,,,,,,,11,,,44,0
59460,note_on,30,0,10,,,,,,,,,10,,,52,113
59460,note_on,30,0,3,,,,,,,,,2,,,52,113
59460,note_on,30,0,2,,,,,,,,,1,,,74,113
59460,note_on,0,0,2,,,,,,,,,1,,,68,113
59460,note_on,30,0,7,,,,,,,,,6,,,74,113
59460,note_on,0,0,1,,,,,,,,,0,,,86,113
59460,note_on,30,0,11,,,,,,,,,11,,,40,113
59460,note_on,30,0,8,,,,,,,,,7,,,68,113
59460,note_on,30,0,9,,,,,,,,,8,,,64,113
59460,note_on,30,0,1,,,,,,,,,0,,,80,113
59490,note_on,30,0,9,,,,,,,,,8,,,64,0
59490,note_on,30,0,7,,,,,,,,,6,,,74,0
59490,note_on,30,0,10,,,,,,,,,10,,,52,0
59490,note_on,30,0,8,,,,,,,,,7,,,68,0
59490,note_on,30,0,1,,,,,,,,,0,,,86,0
59490,note_on,0,0,1,,,,,,,,,0,,,80,0
59490,note_on,30,0,2,,,,,,,,,1,,,68,0
59490,note_on,0,0,2,,,,,,,,,1,,,74,0
59490,note_on,30,0,3,,,,,,,,,2,,,52,0
59490,note_on,30,0,11,,,,,,,,,11,,,40,0
59520,note_on,0,0,1,,,,,,,,,0,,,81,100
59520,note_on,30,0,2,,,,,,,,,1,,,69,100
59520,note_on,0,0,2,,,,,,,,,1,,,73,100
59520,note_on,30,0,11,,,,,,,,,11,,,45,100
59520,note_on,480,0,4,,,,,,,,,3,,,57,100
59520,note_on,30,0,7,,,,,,,,,6,,,73,100
59520,note_on,30,0,10,,,,,,,,,10,,,57,100
59520,marker,1920,1,0,,,,,,,,,,,,,
59520,note_on,14280,0,5,,,,,,,,,4,,,57,100
59520,note_on,0,0,5,,,,,,,,,4,,,69,100
59520,note_on,30,0,1,,,,,,,,,0,,,85,100
59520,note_on,14280,0,6,,,,,,,,,5,,,45,100
59520,note_on,30,0,3,,,,,,,,,2,,,57,100
59520,note_on,30,0,8,,,,,,,,,7,,,69,100
59520,note_on,30,0,9,,,,,,,,,8,,,69,100
59520,note_on,0,0,4,,,,,,,,,3,,,69,100
59580,note_on,0,0,8,,,,,,,,,7,,,73,100
59580,note_on,60,0,8,,,,,,,,,7,,,69,0
59580,note_on,0,0,7,,,,,,,,,6,,,76,100
59580,note_on,60,0,7,,,,,,,,,6,,,73,0
59610,note_on,30,0,8,,,,,,,,,7,,,73,0
59610,note_on,0,0,8,,,,,,,,,7,,,76,100
59610,note_on,30,0,7,,,,,,,,,6,,,76,0
59610,note_on,0,0,7,,,,,,,,,6,,,81,100
59640,note_on,0,0,8,,,,,,,,,7,,,81,100
59640,note_on,120,0,4,,,,,,,,,3,,,69,0
59640,note_on,30,0,8,,,,,,,,,7,,,76,0
59640,note_on,120,0,9,,,,,,,,,8,,,69,0
59640,note_on,120,0,1,,,,,,,,,0,,,81,0
59640,note_on,0,0,1,,,,,,,,,0,,,85,0
59640,note_on,120,0,10,,,,,,,,,10,,,57,0
59640,note_on,120,0,5,,,,,,,,,4,,,69,0
59640,note_on,0,0,5,,,,,,,,,4,,,57,0
59640,note_on,120,0,6,,,,,,,,,5,,,45,0
59640,note_on,120,0,11,,,,,,,,,11,,,45,0
59640,note_on,120,0,3,,,,,,,,,2,,,57,0
59640,note_on,0,0,2,,,,,,,,,1,,,69,0
59640,note_on,120,0,2,,,,,,,,,1,,,73,0
59640,note_on,30,0,7,,,,,,,,,6,,,81,0
59640,note_on,0,0,7,,,,,,,,,6,,,85,100
59640,note_on,0,0,4,,,,,,,,,3,,,57,0
59670,note_on,30,0,8,,,,,,,,,7,,,81,0
59670,note_on,30,0,7,,,,,,,,,6,,,85,0
59700,note_on,30,0,8,,,,,,,,,7,,,80,100
59700,note_on,60,0,4,,,,,,,,,3,,,64,100
59700,note_on,60,0,9,,,,,,,,,8,,,64,100
59700,note_on,60,0,2,,,,,,,,,1,,,76,100
59700,note_on,0,0,2,,,,,,,,,1,,,80,100
59700,note_on,60,0,10,,,,,,,,,10,,,52,100
59700,note_on,60,0,1,,,,,,,,,0,,,88,100
59700,note_on,0,0,1,,,,,,,,,0,,,83,100
59700,note_on,30,0,7,,,,,,,,,6,,,83,100
59700,note_on,60,0,11,,,,,,,,,11,,,40,100
59700,note_on,60,0,3,,,,,,,,,2,,,52,100
59730,note_on,30,0,8,,,,,,,,,7,,,80,0
59730,note_on,30,0,7,,,,,,,,,6,,,83,0
59760,note_on,60,0,11,,,,,,,,,11,,,40,0
59760,note_on,60,0,10,,,,,,,,,10,,,52,0
59760,note_on,0,0,10,,,,,,,,,10,,,57,100
59760,note_on,0,0,11,,,,,,,,,11,,,45,100
59760,note_on,60,0,3,,,,,,,,,2,,,52,0
59760,note_on,0,0,2,,,,,,,,,1,,,76,0
59760,note_on,0,0,3,,,,,,,,,2,,,57,100
59760,note_on,0,0,4,,,,,,,,,3,,,69,100
59760,note_on,0,0,1,,,,,,,,,0,,,88,100
59760,note_on,0,0,1,,,,,,,,,0,,,88,0
59760,note_on,0,0,9,,,,,,,,,8,,,69,100
59760,note_on,60,0,9,,,,,,,,,8,,,64,0
59760,note_on,60,0,1,,,,,,,,,0,,,83,0
59760,note_on,0,0,2,,,,,,,,,1,,,76,100
59760,note_on,0,0,1,,,,,,,,,0,,,85,100
59760,note_on,60,0,4,,,,,,,,,3,,,64,0
59760,note_on,0,0,2,,,,,,,,,1,,,81,100
59760,note_on,0,0,4,,,,,,,,,3,,,57,100
59760,note_on,60,0,2,,,,,,,,,1,,,80,0
59820,note_on,90,0,8,,,,,,,,,7,,,73,100
59820,note_on,90,0,7,,,,,,,,,6,,,76,100
59850,note_on,0,0,8,,,,,,,,,7,,,76,100
59850,note_on,0,0,7,,,,,,,,,6,,,81,100
59850,note_on,30,0,8,,,,,,,,,7,,,73,0
59850,note_on,30,0,7,,,,,,,,,6,,,76,0
59880,note_on,30,0,7,,,,,,,,,6,,,81,0
59880,note_on,120,0,1,,,,,,,,,0,,,85,0
59880,note_on,0,0,1,,,,,,,,,0,,,88,0
59880,note_on,120,0,9,,,,,,,,,8,,,69,0
59880,note_on,120,0,11,,,,,,,,,11,,,45,0
59880,note_on,120,0,4,,,,,,,,,3,,,69,0
59880,note_on,0,0,7,,,,,,,,,6,,,85,100
59880,note_on,120,0,10,,,,,,,,,10,,,57,0
59880,note_on,120,0,3,,,,,,,,,2,,,57,0
59880,note_on,120,0,2,,,,,,,,,1,,,81,0
59880,note_on,0,0,2,,,,,,,,,1,,,76,0
59880,note_on,0,0,8,,,,,,,,,7,,,81,100
59880,note_on,30,0,8,,,,,,,,,7,,,76,0
59880,note_on,0,0,4,,,,,,,,,3,,,57,0
59910,note_on,30,0,7,,,,,,,,,6,,,85,0
59910,note_on,30,0,8,,,,,,,,,7,,,81,0
59940,note_on,0,0,1,,,,,,,,,0,,,83,100
59940,note_on,60,0,1,,,,,,,,,0,,,88,100
59940,note_on,60,0,10,,,,,,,,,10,,,52,100
59940,note_on,0,0,2,,,,,,,,,1,,,80,100
59940,note_on,60,0,4,,,,,,,,,3,,,64,100
59940,note_on,60,0,9,,,,,,,,,8,,,64,100
59940,note_on,30,0,8,,,,,,,,,7,,,80,100
59940,note_on,60,0,2,,,,,,,,,1,,,76,100
59940,note_on,60,0,3,,,,,,,,,2,,,52,100
59940,note_on,60,0,11,,,,,,,,,11,,,40,100
59940,note_on,30,0,7,,,,,,,,,6,,,83,100
59970,note_on,30,0,7,,,,,,,,,6,,,83,0
59970,note_on,30,0,8,,,,,,,,,7,,,80,0
60000,note_on,60,0,9,,,,,,,,,8,,,64,0
60000,note_on,0,0,1,,,,,,,,,0,,,85,100
60000,note_on,60,0,10,,,,,,,,,10,,,52,0
60000,note_on,0,0,10,,,,,,,,,10,,,54,100
60000,note_on,360,0,5,,,,,,,,,4,,,69,100
60000,note_on,0,0,1,,,,,,,,,0,,,81,100
60000,note_on,0,0,5,,,,,,,,,4,,,57,100
60000,note_on,60,0,3,,,,,,,,,2,,,52,0
60000,note_on,60,0,11,,,,,,,,,11,,,40,0
60000,note_on,60,0,1,,,,,,,,,0,,,83,0
60000,note_on,360,0,6,,,,,,,,,5,,,45,100
60000,note_on,0,0,3,,,,,,,,,2,,,54,100
60000,note_on,0,0,9,,,,,,,,,8,,,66,100
60000,note_on,60,0,4,,,,,,,,,3,,,64,0
60000,note_on,0,0,4,,,,,,,,,3,,,66,100
60000,note_on,60,0,2,,,,,,,,,1,,,80,0
60000,note_on,0,0,2,,,,,,,,,1,,,76,0
60000,note_on,0,0,2,,,,,,,,,1,,,73,100
60000,note_on,0,0,2,,,,,,,,,1,,,78,100
60000,note_on,0,0,11,,,,,,,,,11,,,42,100
60000,note_on,0,0,1,,,,,,,,,0,,,88,0
60060,note_on,90,0,8,,,,,,,,,7,,,69,100
60060,note_on,90,0,7,,,,,,,,,6,,,73,100
60090,note_on,0,0,7,,,,,,,,,6,,,76,100
60090,note_on,0,0,8,,,,,,,,,7,,,73,100
60090,note_on,30,0,7,,,,,,,,,6,,,73,0
60090,note_on,30,0,8,,,,,,,,,7,,,69,0
60120,note_on,30,0,8,,,,,,,,,7,,,73,0
60120,note_on,0,0,8,,,,,,,,,7,,,78,100
60120,note_on,120,0,11,,,,,,,,,11,,,42,0
60120,note_on,120,0,1,,,,,,,,,0,,,81,0
60120,note_on,0,0,1,,,,,,,,,0,,,85,0
60120,note_on,120,0,2,,,,,,,,,1,,,78,0
60120,note_on,0,0,2,,,,,,,,,1,,,73,0
60120,note_on,120,0,4,,,,,,,,,3,,,66,0
60120,note_on,120,0,3,,,,,,,,,2,,,54,0
60120,note_on,120,0,5,,,,,,,,,4,,,57,0
60120,note_on,0,0,5,,,,,,,,,4,,,69,0
60120,note_on,0,0,7,,,,,,,,,6,,,81,100
60120,note_on,30,0,7,,,,,,,,,6,,,76,0
60120,note_on,120,0,6,,,,,,,,,5,,,45,0
60120,note_on,120,0,10,,,,,,,,,10,,,54,0
60120,note_on,120,0,9,,,,,,,,,8,,,66,0
60150,note_on,30,0,7,,,,,,,,,6,,,81,0
60150,note_on,30,0,8,,,,,,,,,7,,,78,0
60180,note_on,60,0,11,,,,,,,,,11,,,38,100
60180,note_on,60,0,10,,,,,,,,,10,,,50,100
60180,note_on,30,0,7,,,,,,,,,6,,,80,100
60180,note_on,0,0,1,,,,,,,,,0,,,85,100
60180,note_on,60,0,1,,,,,,,,,0,,,80,100
60180,note_on,60,0,4,,,,,,,,,3,,,64,100
60180,note_on,30,0,8,,,,,,,,,7,,,76,100
60180,note_on,60,0,3,,,,,,,,,2,,,49,100
60180,note_on,60,0,2,,,,,,,,,1,,,73,100
60180,note_on,0,0,2,,,,,,,,,1,,,76,100
60180,note_on,60,0,9,,,,,,,,,8,,,61,100
60210,note_on,30,0,8,,,,,,,,,7,,,76,0
60210,note_on,30,0,7,,,,,,,,,6,,,80,0
60240,note_on,0,0,10,,,,,,,,,10,,,54,100
60240,note_on,0,0,9,,,,,,,,,8,,,66,100
60240,note_on,60,0,9,,,,,,,,,8,,,61,0
60240,note_on,0,0,3,,,,,,,,,2,,,54,100
60240,note_on,60,0,3,,,,,,,,,2,,,49,0
60240,note_on,0,0,2,,,,,,,,,1,,,73,100
60240,note_on,60,0,2,,,,,,,,,1,,,76,0
60240,note_on,0,0,2,,,,,,,,,1,,,73,0
60240,note_on,0,0,11,,,,,,,,,11,,,42,100
60240,note_on,60,0,1,,,,,,,,,0,,,85,0
60240,note_on,0,0,1,,,,,,,,,0,,,80,0
60240,note_on,0,0,1,,,,,,,,,0,,,85,100
60240,note_on,0,0,1,,,,,,,,,0,,,81,100
60240,note_on,60,0,4,,,,,,,,,3,,,64,0
60240,note_on,0,0,4,,,,,,,,,3,,,66,100
60240,note_on,0,0,2,,,,,,,,,1,,,78,100
60240,note_on,60,0,10,,,,,,,,,10,,,50,0
60240,note_on,60,0,11,,,,,,,,,11,,,38,0
60300,note_on,90,0,8,,,,,,,,,7,,,69,100
60300,note_on,90,0,7,,,,,,,,,6,,,73,100
60330,note_on,0,0,7,,,,,,,,,6,,,76,100
60330,note_on,30,0,7,,,,,,,,,6,,,73,0
60330,note_on,0,0,8,,,,,,,,,7,,,73,100
60330,note_on,30,0,8,,,,,,,,,7,,,69,0
60360,note_on,120,0,10,,,,,,,,,10,,,54,0
60360,note_on,120,0,11,,,,,,,,,11,,,42,0
60360,note_on,0,0,1,,,,,,,,,0,,,85,0
60360,note_on,120,0,4,,,,,,,,,3,,,66,0
60360,note_on,0,0,7,,,,,,,,,6,,,81,100
60360,note_on,30,0,7,,,,,,,,,6,,,76,0
60360,note_on,120,0,9,,,,,,,,,8,,,66,0
60360,note_on,120,0,1,,,,,,,,,0,,,81,0
60360,note_on,120,0,3,,,,,,,,,2,,,54,0
60360,note_on,120,0,2,,,,,,,,,1,,,73,0
60360,note_on,30,0,8,,,,,,,,,7,,,73,0
60360,note_on,0,0,8,,,,,,,,,7,,,78,100
60360,note_on,0,0,2,,,,,,,,,1,,,78,0
60390,note_on,30,0,7,,,,,,,,,6,,,81,0
60390,note_on,30,0,8,,,,,,,,,7,,,78,0
60420,note_on,0,0,1,,,,,,,,,0,,,80,100
60420,note_on,60,0,4,,,,,,,,,3,,,64,100
60420,note_on,60,0,1,,,,,,,,,0,,,85,100
60420,note_on,60,0,11,,,,,,,,,11,,,38,100
60420,note_on,60,0,2,,,,,,,,,1,,,76,100
60420,note_on,60,0,3,,,,,,,,,2,,,49,100
60420,note_on,30,0,7,,,,,,,,,6,,,80,100
60420,note_on,0,0,2,,,,,,,,,1,,,73,100
60420,note_on,60,0,9,,,,,,,,,8,,,61,100
60420,note_on,30,0,8,,,,,,,,,7,,,76,100
60420,note_on,60,0,10,,,,,,,,,10,,,50,100
60450,note_on,30,0,7,,,,,,,,,6,,,80,0
60450,note_on,30,0,8,,,,,,,,,7,,,76,0
60480,note_on,0,0,4,,,,,,,,,3,,,66,100
60480,note_on,0,0,1,,,,,,,,,0,,,85,0
60480,note_on,0,0,1,,,,,,,,,0,,,78,100
60480,note_on,0,0,1,,,,,,,,,0,,,81,100
60480,note_on,0,0,4,,,,,,,,,3,,,62,100
60480,note_on,60,0,4,,,,,,,,,3,,,64,0
60480,note_on,0,0,10,,,,,,,,,10,,,50,100
60480,note_on,60,0,10,,,,,,,,,10,,,50,0
60480,note_on,60,0,1,,,,,,,,,0,,,80,0
60480,note_on,360,0,5,,,,,,,,,4,,,62,100
60480,note_on,0,0,2,,,,,,,,,1,,,76,0
60480,note_on,0,0,9,,,,,,,,,8,,,62,100
60480,note_on,60,0,3,,,,,,,,,2,,,49,0
60480,note_on,0,0,3,,,,,,,,,2,,,50,100
60480,note_on,60,0,9,,,,,,,,,8,,,61,0
60480,note_on,60,0,11,,,,,,,,,11,,,38,0
60480,note_on,0,0,5,,,,,,,,,4,,,74,100
60480,note_on,0,0,11,,,,,,,,,11,,,38,100
60480,note_on,60,0,2,,,,,,,,,1,,,73,0
60480,note_on,0,0,2,,,,,,,,,1,,,69,100
60480,note_on,0,0,2,,,,,,,,,1,,,74,100
60480,note_on,360,0,6,,,,,,,,,5,,,50,100
60540,note_on,90,0,8,,,,,,,,,7,,,66,100
60540,note_on,90,0,7,,,,,,,,,6,,,69,100
60570,note_on,0,0,8,,,,,,,,,7,,,69,100
60570,note_on,0,0,7,,,,,,,,,6,,,74,100
60570,note_on,30,0,7,,,,,,,,,6,,,69,0
60570,note_on,30,0,8,,,,,,,,,7,,,66,0
60600,note_on,120,0,1,,,,,,,,,0,,,81,0
60600,note_on,30,0,7,,,,,,,,,6,,,74,0
60600,note_on,120,0,11,,,,,,,,,11,,,38,0
60600,note_on,0,0,7,,,,,,,,,6,,,78,100
60600,note_on,120,0,9,,,,,,,,,8,,,62,0
60600,note_on,120,0,5,,,,,,,,,4,,,74,0
60600,note_on,0,0,2,,,,,,,,,1,,,69,0
60600,note_on,0,0,5,,,,,,,,,4,,,62,0
60600,note_on,0,0,1,,,,,,,,,0,,,78,0
60600,note_on,120,0,6,,,,,,,,,5,,,50,0
60600,note_on,120,0,10,,,,,,,,,10,,,50,0
60600,note_on,120,0,2,,,,,,,,,1,,,74,0
60600,note_on,30,0,8,,,,,,,,,7,,,69,0
60600,note_on,0,0,8,,,,,,,,,7,,,74,100
60600,note_on,120,0,3,,,,,,,,,2,,,50,0
60600,note_on,0,0,4,,,,,,,,,3,,,62,0
60600,note_on,120,0,4,,,,,,,,,3,,,66,0
60630,note_on,30,0,8,,,,,,,,,7,,,74,0
60630,note_on,30,0,7,,,,,,,,,6,,,78,0
60660,note_on,0,0,1,,,,,,,,,0,,,76,100
60660,note_on,60,0,1,,,,,,,,,0,,,81,100
60660,note_on,0,0,4,,,,,,,,,3,,,64,100
60660,note_on,30,0,7,,,,,,,,,6,,,76,100
60660,note_on,60,0,2,,,,,,,,,1,,,69,100
60660,note_on,60,0,4,,,,,,,,,3,,,57,100
60660,note_on,0,0,2,,,,,,,,,1,,,73,100
60660,note_on,60,0,6,,,,,,,,,5,,,45,100
60660,note_on,60,0,3,,,,,,,,,2,,,45,100
60660,note_on,30,0,8,,,,,,,,,7,,,73,100
60660,note_on,60,0,9,,,,,,,,,8,,,57,100
60660,note_on,60,0,5,,,,,,,,,4,,,57,100
60660,note_on,0,0,5,,,,,,,,,4,,,69,100
60660,note_on,60,0,10,,,,,,,,,10,,,47,100
60660,note_on,60,0,11,,,,,,,,,11,,,35,100
60690,note_on,30,0,8,,,,,,,,,7,,,73,0
60690,note_on,30,0,7,,,,,,,,,6,,,76,0
60720,note_on,0,0,10,,,,,,,,,10,,,50,100
60720,note_on,60,0,6,,,,,,,,,5,,,45,0
60720,note_on,0,0,6,,,,,,,,,5,,,50,100
60720,note_on,60,0,10,,,,,,,,,10,,,47,0
60720,note_on,0,0,1,,,,,,,,,0,,,81,0
60720,note_on,0,0,3,,,,,,,,,2,,,50,100
60720,note_on,0,0,5,,,,,,,,,4,,,57,0
60720,note_on,60,0,5,,,,,,,,,4,,,69,0
60720,note_on,60,0,4,,,,,,,,,3,,,64,0
60720,note_on,0,0,4,,,,,,,,,3,,,57,0
60720,note_on,60,0,11,,,,,,,,,11,,,35,0
60720,note_on,0,0,4,,,,,,,,,3,,,66,100
60720,note_on,0,0,2,,,,,,,,,1,,,69,0
60720,note_on,60,0,2,,,,,,,,,1,,,73,0
60720,note_on,0,0,5,,,,,,,,,4,,,62,100
60720,note_on,0,0,1,,,,,,,,,0,,,78,100
60720,note_on,0,0,1,,,,,,,,,0,,,81,100
60720,note_on,0,0,2,,,,,,,,,1,,,74,100
60720,note_on,0,0,2,,,,,,,,,1,,,69,100
60720,note_on,0,0,11,,,,,,,,,11,,,38,100
60720,note_on,0,0,4,,,,,,,,,3,,,62,100
60720,note_on,0,0,5,,,,,,,,,4,,,74,100
60720,note_on,0,0,9,,,,,,,,,8,,,62,100
60720,note_on,60,0,3,,,,,,,,,2,,,45,0
60720,note_on,60,0,1,,,,,,,,,0,,,76,0
60720,note_on,60,0,9,,,,,,,,,8,,,57,0
60780,note_on,90,0,8,,,,,,,,,7,,,66,100
60780,note_on,90,0,7,,,,,,,,,6,,,69,100
60810,note_on,30,0,7,,,,,,,,,6,,,69,0
60810,note_on,0,0,7,,,,,,,,,6,,,74,100
60810,note_on,30,0,8,,,,,,,,,7,,,66,0
60810,note_on,0,0,8,,,,,,,,,7,,,69,100
60840,note_on,120,0,11,,,,,,,,,11,,,38,0
60840,note_on,120,0,4,,,,,,,,,3,,,62,0
60840,note_on,30,0,8,,,,,,,,,7,,,69,0
60840,note_on,120,0,2,,,,,,,,,1,,,69,0
60840,note_on,0,0,5,,,,,,,,,4,,,62,0
60840,note_on,120,0,5,,,,,,,,,4,,,74,0
60840,note_on,0,0,2,,,,,,,,,1,,,74,0
60840,note_on,120,0,6,,,,,,,,,5,,,50,0
60840,note_on,0,0,4,,,,,,,,,3,,,66,0
60840,note_on,120,0,10,,,,,,,,,10,,,50,0
60840,note_on,120,0,1,,,,,,,,,0,,,78,0
60840,note_on,0,0,1,,,,,,,,,0,,,81,0
60840,note_on,120,0,3,,,,,,,,,2,,,50,0
60840,note_on,30,0,7,,,,,,,,,6,,,74,0
60840,note_on,0,0,7,,,,,,,,,6,,,78,100
60840,note_on,120,0,9,,,,,,,,,8,,,62,0
60840,note_on,0,0,8,,,,,,,,,7,,,74,100
60870,note_on,30,0,8,,,,,,,,,7,,,74,0
60870,note_on,30,0,7,,,,,,,,,6,,,78,0
60900,note_on,60,0,9,,,,,,,,,8,,,57,100
60900,note_on,60,0,6,,,,,,,,,5,,,45,100
60900,note_on,60,0,11,,,,,,,,,11,,,35,100
60900,note_on,60,0,5,,,,,,,,,4,,,57,100
60900,note_on,0,0,4,,,,,,,,,3,,,64,100
60900,note_on,60,0,4,,,,,,,,,3,,,57,100
60900,note_on,0,0,2,,,,,,,,,1,,,73,100
60900,note_on,0,0,5,,,,,,,,,4,,,69,100
60900,note_on,60,0,2,,,,,,,,,1,,,69,100
60900,note_on,60,0,10,,,,,,,,,10,,,47,100
60900,note_on,60,0,1,,,,,,,,,0,,,76,100
60900,note_on,0,0,1,,,,,,,,,0,,,81,100
60900,note_on,30,0,7,,,,,,,,,6,,,76,100
60900,note_on,30,0,8,,,,,,,,,7,,,73,100
60900,note_on,60,0,3,,,,,,,,,2,,,45,100
60930,note_on,30,0,7,,,,,,,,,6,,,76,0
60930,note_on,30,0,8,,,,,,,,,7,,,73,0
60960,note_on,0,0,9,,,,,,,,,8,,,62,100
60960,note_on,30,0,8,,,,,,,,,7,,,74,100
60960,note_on,0,0,2,,,,,,,,,1,,,74,100
60960,note_on,0,0,2,,,,,,,,,1,,,69,100
60960,note_on,60,0,2,,,,,,,,,1,,,73,0
60960,note_on,60,0,9,,,,,,,,,8,,,57,0
60960,note_on,0,0,2,,,,,,,,,1,,,69,0
60960,note_on,0,0,5,,,,,,,,,4,,,74,100
60960,note_on,0,0,11,,,,,,,,,11,,,38,100
60960,note_on,0,0,1,,,,,,,,,0,,,78,100
60960,note_on,0,0,1,,,,,,,,,0,,,81,100
60960,note_on,0,0,1,,,,,,,,,0,,,76,0
60960,note_on,60,0,1,,,,,,,,,0,,,81,0
60960,note_on,60,0,10,,,,,,,,,10,,,47,0
60960,note_on,0,0,10,,,,,,,,,10,,,50,100
60960,note_on,60,0,5,,,,,,,,,4,,,69,0
60960,note_on,0,0,5,,,,,,,,,4,,,57,0
60960,note_on,0,0,5,,,,,,,,,4,,,62,100
60960,note_on,60,0,11,,,,,,,,,11,,,35,0
60960,note_on,0,0,4,,,,,,,,,3,,,57,0
60960,note_on,0,0,4,,,,,,,,,3,,,66,100
60960,note_on,0,0,4,,,,,,,,,3,,,62,100
60960,note_on,60,0,6,,,,,,,,,5,,,45,0
60960,note_on,60,0,4,,,,,,,,,3,,,64,0
60960,note_on,30,0,7,,,,,,,,,6,,,78,100
60960,note_on,60,0,3,,,,,,,,,2,,,45,0
60960,note_on,0,0,3,,,,,,,,,2,,,50,100
60960,note_on,0,0,6,,,,,,,,,5,,,50,100
61005,note_on,45,0,9,,,,,,,,,8,,,62,0
61005,note_on,45,0,11,,,,,,,,,11,,,38,0
61005,note_on,45,0,3,,,,,,,,,2,,,50,0
61005,note_on,45,0,10,,,,,,,,,10,,,50,0
61020,note_on,15,0,11,,,,,,,,,11,,,38,101
61020,note_on,15,0,10,,,,,,,,,10,,,50,101
61020,note_on,15,0,3,,,,,,,,,2,,,50,101
61020,note_on,60,0,4,,,,,,,,,3,,,62,0
61020,note_on,60,0,5,,,,,,,,,4,,,74,0
61020,note_on,0,0,5,,,,,,,,,4,,,62,0
61020,note_on,0,0,4,,,,,,,,,3,,,66,0
61020,note_on,15,0,9,,,,,,,,,8,,,62,101
61065,note_on,45,0,10,,,,,,,,,10,,,50,0
61065,note_on,45,0,11,,,,,,,,,11,,,38,0
61065,note_on,45,0,9,,,,,,,,,8,,,62,0
61065,note_on,45,0,3,,,,,,,,,2,,,50,0
61080,note_on,0,0,8,,,,,,,,,7,,,66,103
61080,note_on,0,0,8,,,,,,,,,7,,,74,103
61080,note_on,0,0,8,,,,,,,,,7,,,83,103
61080,note_on,120,0,8,,,,,,,,,7,,,74,0
61080,note_on,120,0,1,,,,,,,,,0,,,78,0
61080,note_on,120,0,6,,,,,,,,,5,,,50,0
61080,note_on,0,0,7,,,,,,,,,6,,,83,103
61080,note_on,120,0,7,,,,,,,,,6,,,78,0
61080,note_on,0,0,1,,,,,,,,,0,,,83,103
61080,note_on,0,0,1,,,,,,,,,0,,,86,103
61080,note_on,0,0,1,,,,,,,,,0,,,81,0
61080,note_on,60,0,5,,,,,,,,,4,,,78,103
61080,note_on,0,0,5,,,,,,,,,4,,,74,103
61080,note_on,60,0,4,,,,,,,,,3,,,62,103
61080,note_on,15,0,3,,,,,,,,,2,,,50,103
61080,note_on,15,0,11,,,,,,,,,11,,,38,103
61080,note_on,15,0,9,,,,,,,,,8,,,62,103
61080,note_on,0,0,2,,,,,,,,,1,,,83,103
61080,note_on,0,0,2,,,,,,,,,1,,,74,103
61080,note_on,0,0,2,,,,,,,,,1,,,69,0
61080,note_on,120,0,2,,,,,,,,,1,,,74,0
61080,note_on,0,0,7,,,,,,,,,6,,,74,103
61080,note_on,0,0,7,,,,,,,,,6,,,66,103
61080,note_on,0,0,4,,,,,,,,,3,,,66,103
61080,note_on,15,0,10,,,,,,,,,10,,,50,103
61125,note_on,45,0,9,,,,,,,,,8,,,62,0
61125,note_on,45,0,11,,,,,,,,,11,,,38,0
61125,note_on,45,0,3,,,,,,,,,2,,,50,0
61125,note_on,45,0,10,,,,,,,,,10,,,50,0
61140,note_on,60,0,4,,,,,,,,,3,,,66,0
61140,note_on,15,0,9,,,,,,,,,8,,,62,105
61140,note_on,15,0,11,,,,,,,,,11,,,38,105
61140,note_on,15,0,3,,,,,,,,,2,,,50,105
61140,note_on,0,0,4,,,,,,,,,3,,,62,0
61140,note_on,0,0,5,,,,,,,,,4,,,78,0
61140,note_on,60,0,5,,,,,,,,,4,,,74,0
61140,note_on,15,0,10,,,,,,,,,10,,,50,105
61170,note_on,0,0,8,,,,,,,,,7,,,83,0
61170,note_on,90,0,8,,,,,,,,,7,,,66,0
61170,note_on,0,0,8,,,,,,,,,7,,,74,0
61170,note_on,0,0,7,,,,,,,,,6,,,83,0
61170,note_on,90,0,7,,,,,,,,,6,,,66,0
61170,note_on,0,0,7,,,,,,,,,6,,,74,0
61185,note_on,45,0,9,,,,,,,,,8,,,62,0
61185,note_on,45,0,11,,,,,,,,,11,,,38,0
61185,note_on,45,0,10,,,,,,,,,10,,,50,0
61185,note_on,45,0,3,,,,,,,,,2,,,50,0
61200,note_on,30,0,7,,,,,,,,,6,,,81,106
61200,note_on,0,0,7,,,,,,,,,6,,,73,106
61200,note_on,0,0,7,,,,,,,,,6,,,64,106
61200,note_on,60,0,4,,,,,,,,,3,,,64,106
61200,note_on,0,0,8,,,,,,,,,7,,,73,106
61200,note_on,15,0,3,,,,,,,,,2,,,52,106
61200,note_on,0,0,2,,,,,,,,,1,,,73,106
61200,note_on,0,0,2,,,,,,,,,1,,,81,106
61200,note_on,15,0,11,,,,,,,,,11,,,40,106
61200,note_on,15,0,9,,,,,,,,,8,,,64,106
61200,note_on,120,0,2,,,,,,,,,1,,,83,0
61200,note_on,0,0,8,,,,,,,,,7,,,81,106
61200,note_on,0,0,2,,,,,,,,,1,,,74,0
61200,note_on,15,0,10,,,,,,,,,10,,,52,106
61200,note_on,30,0,8,,,,,,,,,7,,,64,106
61200,note_on,60,0,5,,,,,,,,,4,,,76,106
61200,note_on,120,0,1,,,,,,,,,0,,,83,0
61200,note_on,0,0,1,,,,,,,,,0,,,85,106
61200,note_on,0,0,1,,,,,,,,,0,,,81,106
61200,note_on,0,0,1,,,,,,,,,0,,,86,0
61245,note_on,45,0,9,,,,,,,,,8,,,64,0
61245,note_on,45,0,11,,,,,,,,,11,,,40,0
61245,note_on,45,0,10,,,,,,,,,10,,,52,0
61245,note_on,45,0,3,,,,,,,,,2,,,52,0
61260,note_on,60,0,5,,,,,,,,,4,,,76,0
61260,note_on,15,0,9,,,,,,,,,8,,,64,108
61260,note_on,15,0,11,,,,,,,,,11,,,40,108
61260,note_on,15,0,3,,,,,,,,,2,,,52,108
61260,note_on,15,0,10,,,,,,,,,10,,,52,108
61260,note_on,60,0,4,,,,,,,,,3,,,64,0
61290,note_on,90,0,8,,,,,,,,,7,,,81,0
61290,note_on,0,0,8,,,,,,,,,7,,,64,0
61290,note_on,0,0,8,,,,,,,,,7,,,73,0
61290,note_on,0,0,7,,,,,,,,,6,,,73,0
61290,note_on,90,0,7,,,,,,,,,6,,,64,0
61290,note_on,0,0,7,,,,,,,,,6,,,81,0
61305,note_on,45,0,9,,,,,,,,,8,,,64,0
61305,note_on,45,0,3,,,,,,,,,2,,,52,0
61305,note_on,45,0,11,,,,,,,,,11,,,40,0
61305,note_on,45,0,10,,,,,,,,,10,,,52,0
61320,note_on,15,0,9,,,,,,,,,8,,,64,110
61320,note_on,30,0,7,,,,,,,,,6,,,80,110
61320,note_on,0,0,2,,,,,,,,,1,,,73,0
61320,note_on,0,0,7,,,,,,,,,6,,,64,110
61320,note_on,0,0,7,,,,,,,,,6,,,71,110
61320,note_on,15,0,10,,,,,,,,,10,,,52,110
61320,note_on,60,0,5,,,,,,,,,4,,,76,110
61320,note_on,0,0,8,,,,,,,,,7,,,71,110
61320,note_on,0,0,2,,,,,,,,,1,,,80,110
61320,note_on,0,0,1,,,,,,,,,0,,,83,110
61320,note_on,0,0,8,,,,,,,,,7,,,80,110
61320,note_on,0,0,2,,,,,,,,,1,,,71,110
61320,note_on,15,0,11,,,,,,,,,11,,,40,110
61320,note_on,120,0,2,,,,,,,,,1,,,81,0
61320,note_on,0,0,1,,,,,,,,,0,,,80,110
61320,note_on,0,0,1,,,,,,,,,0,,,81,0
61320,note_on,120,0,1,,,,,,,,,0,,,85,0
61320,note_on,60,0,4,,,,,,,,,3,,,64,110
61320,note_on,15,0,3,,,,,,,,,2,,,52,110
61320,note_on,30,0,8,,,,,,,,,7,,,64,110
61365,note_on,45,0,11,,,,,,,,,11,,,40,0
61365,note_on,45,0,10,,,,,,,,,10,,,52,0
61365,note_on,45,0,9,,,,,,,,,8,,,64,0
61365,note_on,45,0,3,,,,,,,,,2,,,52,0
61380,note_on,15,0,10,,,,,,,,,10,,,52,111
61380,note_on,15,0,3,,,,,,,,,2,,,52,111
61380,note_on,15,0,9,,,,,,,,,8,,,64,111
61380,note_on,15,0,11,,,,,,,,,11,,,40,111
61380,note_on,60,0,4,,,,,,,,,3,,,64,0
61380,note_on,60,0,5,,,,,,,,,4,,,76,0
61410,note_on,0,0,8,,,,,,,,,7,,,64,0
61410,note_on,90,0,8,,,,,,,,,7,,,80,0
61410,note_on,0,0,7,,,,,,,,,6,,,71,0
61410,note_on,0,0,7,,,,,,,,,6,,,80,0
61410,note_on,0,0,8,,,,,,,,,7,,,71,0
61410,note_on,90,0,7,,,,,,,,,6,,,64,0
61425,note_on,45,0,9,,,,,,,,,8,,,64,0
61425,note_on,45,0,11,,,,,,,,,11,,,40,0
61425,note_on,45,0,3,,,,,,,,,2,,,52,0
61425,note_on,45,0,10,,,,,,,,,10,,,52,0
61440,note_on,30,0,8,,,,,,,,,7,,,81,113
61440,note_on,0,0,8,,,,,,,,,7,,,73,113
61440,note_on,15,0,10,,,,,,,,,10,,,45,113
61440,note_on,0,0,7,,,,,,,,,6,,,81,113
61440,note_on,0,0,7,,,,,,,,,6,,,73,113
61440,note_on,30,0,7,,,,,,,,,6,,,64,113
61440,note_on,0,0,1,,,,,,,,,0,,,81,113
61440,note_on,0,0,1,,,,,,,,,0,,,80,0
61440,note_on,120,0,1,,,,,,,,,0,,,83,0
61440,note_on,60,0,5,,,,,,,,,4,,,69,113
61440,note_on,15,0,3,,,,,,,,,2,,,45,113
61440,note_on,0,0,2,,,,,,,,,1,,,73,113
61440,note_on,0,0,2,,,,,,,,,1,,,71,0
61440,note_on,120,0,2,,,,,,,,,1,,,80,0
61440,note_on,15,0,11,,,,,,,,,11,,,33,113
61440,note_on,360,0,6,,,,,,,,,5,,,45,113
61440,note_on,0,0,8,,,,,,,,,7,,,64,113
61440,note_on,0,0,2,,,,,,,,,1,,,81,113
61440,note_on,60,0,4,,,,,,,,,3,,,57,113
61440,note_on,15,0,9,,,,,,,,,8,,,57,113
61485,note_on,45,0,4,,,,,,,,,3,,,57,0
61485,note_on,45,0,10,,,,,,,,,10,,,45,0
61485,note_on,45,0,5,,,,,,,,,4,,,69,0
61485,note_on,45,0,11,,,,,,,,,11,,,33,0
61500,note_on,15,0,10,,,,,,,,,10,,,57,115
61500,note_on,0,0,4,,,,,,,,,3,,,57,115
61500,note_on,15,0,4,,,,,,,,,3,,,45,115
61500,note_on,0,0,5,,,,,,,,,4,,,69,115
61500,note_on,15,0,11,,,,,,,,,11,,,45,115
61500,note_on,15,0,5,,,,,,,,,4,,,57,115
61545,note_on,45,0,4,,,,,,,,,3,,,57,0
61545,note_on,0,0,5,,,,,,,,,4,,,57,0
61545,note_on,45,0,11,,,,,,,,,11,,,45,0
61545,note_on,0,0,4,,,,,,,,,3,,,45,0
61545,note_on,45,0,5,,,,,,,,,4,,,69,0
61545,note_on,45,0,10,,,,,,,,,10,,,57,0
61560,note_on,0,0,7,,,,,,,,,6,,,73,0
61560,note_on,120,0,7,,,,,,,,,6,,,81,0
61560,note_on,0,0,2,,,,,,,,,1,,,73,0
61560,note_on,120,0,3,,,,,,,,,2,,,45,0
61560,note_on,120,0,9,,,,,,,,,8,,,57,0
61560,note_on,15,0,4,,,,,,,,,3,,,45,116
61560,note_on,15,0,10,,,,,,,,,10,,,57,116
61560,note_on,0,0,5,,,,,,,,,4,,,69,116
61560,note_on,0,0,7,,,,,,,,,6,,,64,0
61560,note_on,0,0,8,,,,,,,,,7,,,81,0
61560,note_on,120,0,6,,,,,,,,,5,,,45,0
61560,note_on,0,0,8,,,,,,,,,7,,,73,0
61560,note_on,120,0,8,,,,,,,,,7,,,64,0
61560,note_on,120,0,1,,,,,,,,,0,,,81,0
61560,note_on,15,0,11,,,,,,,,,11,,,45,116
61560,note_on,0,0,4,,,,,,,,,3,,,57,116
61560,note_on,15,0,5,,,,,,,,,4,,,57,116
61560,note_on,0,0,6,,,,,,,,,5,,,45,116
61560,note_on,120,0,2,,,,,,,,,1,,,81,0
61605,note_on,45,0,4,,,,,,,,,3,,,57,0
61605,note_on,45,0,10,,,,,,,,,10,,,57,0
61605,note_on,45,0,5,,,,,,,,,4,,,69,0
61605,note_on,0,0,4,,,,,,,,,3,,,45,0
61605,note_on,0,0,5,,,,,,,,,4,,,57,0
61605,note_on,45,0,11,,,,,,,,,11,,,45,0
61620,note_on,15,0,5,,,,,,,,,4,,,57,118
61620,note_on,15,0,10,,,,,,,,,10,,,57,118
61620,note_on,0,0,5,,,,,,,,,4,,,69,118
61620,note_on,15,0,4,,,,,,,,,3,,,45,118
61620,note_on,60,0,6,,,,,,,,,5,,,45,0
61620,note_on,0,0,4,,,,,,,,,3,,,57,118
61620,note_on,15,0,11,,,,,,,,,11,,,45,118
61620,note_on,0,0,6,,,,,,,,,5,,,45,118
61665,note_on,45,0,4,,,,,,,,,3,,,57,0
61665,note_on,0,0,4,,,,,,,,,3,,,45,0
61665,note_on,0,0,5,,,,,,,,,4,,,57,0
61665,note_on,45,0,5,,,,,,,,,4,,,69,0
61665,note_on,45,0,11,,,,,,,,,11,,,45,0
61665,note_on,45,0,10,,,,,,,,,10,,,57,0
61680,note_on,15,0,5,,,,,,,,,4,,,57,120
61680,note_on,15,0,11,,,,,,,,,11,,,45,120
61680,note_on,0,0,6,,,,,,,,,5,,,45,120
61680,note_on,60,0,6,,,,,,,,,5,,,45,0
61680,note_on,0,0,5,,,,,,,,,4,,,69,120
61680,note_on,15,0,10,,,,,,,,,10,,,57,120
61680,note_on,15,0,4,,,,,,,,,3,,,45,120
61680,note_on,0,0,4,,,,,,,,,3,,,57,120
61725,note_on,45,0,11,,,,,,,,,11,,,45,0
61725,note_on,0,0,5,,,,,,,,,4,,,57,0
61725,note_on,0,0,4,,,,,,,,,3,,,45,0
61725,note_on,45,0,5,,,,,,,,,4,,,69,0
61725,note_on,45,0,10,,,,,,,,,10,,,57,0
61725,note_on,45,0,4,,,,,,,,,3,,,57,0
61740,note_on,15,0,5,,,,,,,,,4,,,57,121
61740,note_on,0,0,5,,,,,,,,,4,,,69,121
61740,note_on,15,0,11,,,,,,,,,11,,,45,121
61740,note_on,60,0,6,,,,,,,,,5,,,45,0
61740,note_on,15,0,10,,,,,,,,,10,,,57,121
61740,note_on,0,0,6,,,,,,,,,5,,,45,121
61740,note_on,15,0,4,,,,,,,,,3,,,45,121
61740,note_on,0,0,4,,,,,,,,,3,,,57,121
61785,note_on,45,0,10,,,,,,,,,10,,,57,0
61785,note_on,45,0,11,,,,,,,,,11,,,45,0
61785,note_on,0,0,5,,,,,,,,,4,,,57,0
61785,note_on,45,0,5,,,,,,,,,4,,,69,0
61785,note_on,0,0,4,,,,,,,,,3,,,45,0
61785,note_on,45,0,4,,,,,,,,,3,,,57,0
61800,note_on,15,0,11,,,,,,,,,11,,,45,123
61800,note_on,0,0,6,,,,,,,,,5,,,45,123
61800,note_on,60,0,6,,,,,,,,,5,,,45,0
61800,note_on,15,0,10,,,,,,,,,10,,,57,123
61800,note_on,0,0,5,,,,,,,,,4,,,69,123
61800,note_on,15,0,5,,,,,,,,,4,,,57,123
61800,note_on,15,0,4,,,,,,,,,3,,,45,123
61800,note_on,0,0,4,,,,,,,,,3,,,57,123
61845,note_on,0,0,4,,,,,,,,,3,,,45,0
61845,note_on,45,0,11,,,,,,,,,11,,,45,0
61845,note_on,45,0,4,,,,,,,,,3,,,57,0
61845,note_on,45,0,5,,,,,,,,,4,,,69,0
61845,note_on,0,0,5,,,,,,,,,4,,,57,0
61845,note_on,45,0,10,,,,,,,,,10,,,57,0
61860,note_on,15,0,11,,,,,,,,,11,,,45,125
61860,note_on,0,0,6,,,,,,,,,5,,,45,125
61860,note_on,60,0,6,,,,,,,,,5,,,45,0
61860,note_on,0,0,4,,,,,,,,,3,,,57,125
61860,note_on,15,0,4,,,,,,,,,3,,,45,125
61860,note_on,15,0,5,,,,,,,,,4,,,57,125
61860,note_on,15,0,10,,,,,,,,,10,,,57,125
61860,note_on,0,0,5,,,,,,,,,4,,,69,125
61905,note_on,45,0,11,,,,,,,,,11,,,45,0
61905,note_on,45,0,10,,,,,,,,,10,,,57,0
61905,note_on,45,0,5,,,,,,,,,4,,,69,0
61905,note_on,0,0,5,,,,,,,,,4,,,57,0
61905,note_on,45,0,4,,,,,,,,,3,,,57,0
61905,note_on,0,0,4,,,,,,,,,3,,,45,0
61920,note_on,0,0,6,,,,,,,,,5,,,45,115
61920,note_on,360,0,1,,,,,,,,,0,,,85,115
61920,note_on,0,0,3,,,,,,,,,2,,,55,115
61920,note_on,15,0,10,,,,,,,,,10,,,57,115
61920,note_on,360,0,3,,,,,,,,,2,,,52,115
61920,note_on,0,0,5,,,,,,,,,4,,,69,115
61920,note_on,15,0,5,,,,,,,,,4,,,57,115
61920,note_on,360,0,2,,,,,,,,,1,,,76,115
61920,note_on,60,0,6,,,,,,,,,5,,,45,0
61920,note_on,15,0,4,,,,,,,,,3,,,45,115
61920,note_on,0,0,4,,,,,,,,,3,,,57,115
61920,note_on,360,0,9,,,,,,,,,8,,,64,115
61920,note_on,360,0,8,,,,,,,,,7,,,67,115
61920,note_on,360,0,7,,,,,,,,,6,,,85,115
61920,note_on,15,0,11,,,,,,,,,11,,,45,115
61920,note_on,0,0,2,,,,,,,,,1,,,73,115
61965,note_on,45,0,10,,,,,,,,,10,,,57,0
61965,note_on,45,0,11,,,,,,,,,11,,,45,0
61980,note_on,15,0,10,,,,,,,,,10,,,57,115
61980,note_on,15,0,11,,,,,,,,,11,,,45,115
62025,note_on,45,0,10,,,,,,,,,10,,,57,0
62025,note_on,45,0,11,,,,,,,,,11,,,45,0
62040,note_on,120,0,6,,,,,,,,,5,,,45,0
62040,note_on,15,0,11,,,,,,,,,11,,,45,115
62040,note_on,15,0,10,,,,,,,,,10,,,57,115
62085,note_on,45,0,10,,,,,,,,,10,,,57,0
62085,note_on,45,0,11,,,,,,,,,11,,,45,0
62100,note_on,15,0,10,,,,,,,,,10,,,57,115
62100,note_on,15,0,11,,,,,,,,,11,,,45,115
62145,note_on,45,0,11,,,,,,,,,11,,,45,0
62145,note_on,45,0,10,,,,,,,,,10,,,57,0
62160,note_on,15,0,11,,,,,,,,,11,,,45,115
62160,note_on,15,0,10,,,,,,,,,10,,,57,115
62205,note_on,45,0,10,,,,,,,,,10,,,57,0
62205,note_on,45,0,11,,,,,,,,,11,,,45,0
62220,note_on,15,0,11,,,,,,,,,11,,,45,115
62220,note_on,15,0,10,,,,,,,,,10,,,57,115
62265,note_on,45,0,10,,,,,,,,,10,,,57,0
62265,note_on,45,0,11,,,,,,,,,11,,,45,0
62280,note_on,15,0,10,,,,,,,,,10,,,57,115
62280,note_on,15,0,11,,,,,,,,,11,,,45,115
62325,note_on,45,0,10,,,,,,,,,10,,,57,0
62325,note_on,45,0,11,,,,,,,,,11,,,45,0
62340,note_on,15,0,10,,,,,,,,,10,,,57,115
62340,note_on,15,0,11,,,,,,,,,11,,,45,115
62385,note_on,45,0,11,,,,,,,,,11,,,45,0
62385,note_on,45,0,10,,,,,,,,,10,,,57,0
62400,note_on,360,0,6,,,,,,,,,5,,,45,115
62400,note_on,480,0,7,,,,,,,,,6,,,85,0
62400,note_on,0,0,9,,,,,,,,,8,,,62,115
62400,note_on,0,0,7,,,,,,,,,6,,,86,115
62400,note_on,480,0,9,,,,,,,,,8,,,64,0
62400,note_on,480,0,4,,,,,,,,,3,,,57,0
62400,note_on,0,0,2,,,,,,,,,1,,,74,115
62400,note_on,0,0,4,,,,,,,,,3,,,45,0
62400,note_on,0,0,4,,,,,,,,,3,,,45,115
62400,note_on,0,0,4,,,,,,,,,3,,,57,115
62400,note_on,480,0,8,,,,,,,,,7,,,67,0
62400,note_on,0,0,2,,,,,,,,,1,,,78,115
62400,note_on,0,0,5,,,,,,,,,4,,,69,115
62400,note_on,0,0,5,,,,,,,,,4,,,57,0
62400,note_on,0,0,5,,,,,,,,,4,,,57,115
62400,note_on,15,0,10,,,,,,,,,10,,,57,115
62400,note_on,0,0,3,,,,,,,,,2,,,50,115
62400,note_on,480,0,2,,,,,,,,,1,,,73,0
62400,note_on,0,0,3,,,,,,,,,2,,,54,115
62400,note_on,0,0,2,,,,,,,,,1,,,76,0
62400,note_on,480,0,3,,,,,,,,,2,,,55,0
62400,note_on,0,0,1,,,,,,,,,0,,,86,115
62400,note_on,0,0,8,,,,,,,,,7,,,66,115
62400,note_on,480,0,1,,,,,,,,,0,,,85,0
62400,note_on,0,0,3,,,,,,,,,2,,,52,0
62400,note_on,15,0,11,,,,,,,,,11,,,45,115
62400,note_on,480,0,5,,,,,,,,,4,,,69,0
62445,note_on,45,0,10,,,,,,,,,10,,,57,0
62445,note_on,45,0,11,,,,,,,,,11,,,45,0
62460,note_on,15,0,10,,,,,,,,,10,,,57,115
62460,note_on,15,0,11,,,,,,,,,11,,,45,115
62505,note_on,45,0,10,,,,,,,,,10,,,57,0
62505,note_on,45,0,11,,,,,,,,,11,,,45,0
62520,note_on,15,0,11,,,,,,,,,11,,,45,127
62520,note_on,0,0,2,,,,,,,,,1,,,79,127
62520,note_on,0,0,2,,,,,,,,,1,,,76,127
62520,note_on,120,0,8,,,,,,,,,7,,,66,0
62520,note_on,0,0,8,,,,,,,,,7,,,64,127
62520,note_on,0,0,4,,,,,,,,,3,,,57,127
62520,note_on,0,0,2,,,,,,,,,1,,,78,0
62520,note_on,120,0,2,,,,,,,,,1,,,74,0
62520,note_on,120,0,7,,,,,,,,,6,,,86,0
62520,note_on,0,0,7,,,,,,,,,6,,,88,127
62520,note_on,0,0,3,,,,,,,,,2,,,52,127
62520,note_on,0,0,4,,,,,,,,,3,,,45,0
62520,note_on,120,0,5,,,,,,,,,4,,,69,0
62520,note_on,0,0,5,,,,,,,,,4,,,57,0
62520,note_on,0,0,5,,,,,,,,,4,,,57,127
62520,note_on,0,0,5,,,,,,,,,4,,,69,127
62520,note_on,120,0,9,,,,,,,,,8,,,62,0
62520,note_on,0,0,9,,,,,,,,,8,,,61,127
62520,note_on,0,0,3,,,,,,,,,2,,,50,0
62520,note_on,120,0,3,,,,,,,,,2,,,54,0
62520,note_on,0,0,4,,,,,,,,,3,,,45,127
62520,note_on,15,0,10,,,,,,,,,10,,,57,127
62520,note_on,0,0,6,,,,,,,,,5,,,45,127
62520,note_on,0,0,3,,,,,,,,,2,,,49,127
62520,note_on,120,0,4,,,,,,,,,3,,,57,0
62520,note_on,120,0,6,,,,,,,,,5,,,45,0
62520,note_on,0,0,1,,,,,,,,,0,,,88,127
62520,note_on,120,0,1,,,,,,,,,0,,,86,0
62565,note_on,45,0,10,,,,,,,,,10,,,57,0
62565,note_on,45,0,11,,,,,,,,,11,,,45,0
62580,note_on,15,0,10,,,,,,,,,10,,,57,127
62580,note_on,15,0,11,,,,,,,,,11,,,45,127
62625,note_on,45,0,10,,,,,,,,,10,,,57,0
62625,note_on,45,0,11,,,,,,,,,11,,,45,0
62640,note_on,15,0,11,,,,,,,,,11,,,45,127
62640,note_on,15,0,10,,,,,,,,,10,,,57,127
62640,note_on,120,0,6,,,,,,,,,5,,,45,0
62685,note_on,45,0,10,,,,,,,,,10,,,57,0
62685,note_on,45,0,11,,,,,,,,,11,,,45,0
62700,note_on,15,0,11,,,,,,,,,11,,,45,127
62700,note_on,15,0,10,,,,,,,,,10,,,57,127
62745,note_on,45,0,11,,,,,,,,,11,,,45,0
62745,note_on,45,0,10,,,,,,,,,10,,,57,0
62760,note_on,0,0,3,,,,,,,,,2,,,55,115
62760,note_on,0,0,3,,,,,,,,,2,,,49,0
62760,note_on,0,0,3,,,,,,,,,2,,,52,115
62760,note_on,240,0,3,,,,,,,,,2,,,52,0
62760,note_on,0,0,1,,,,,,,,,0,,,85,115
62760,note_on,15,0,10,,,,,,,,,10,,,57,115
62760,note_on,240,0,9,,,,,,,,,8,,,61,0
62760,note_on,0,0,9,,,,,,,,,8,,,64,115
62760,note_on,240,0,7,,,,,,,,,6,,,88,0
62760,note_on,240,0,1,,,,,,,,,0,,,88,0
62760,note_on,15,0,11,,,,,,,,,11,,,45,115
62760,note_on,0,0,7,,,,,,,,,6,,,85,115
62760,note_on,0,0,8,,,,,,,,,7,,,67,115
62760,note_on,0,0,2,,,,,,,,,1,,,76,115
62760,note_on,0,0,2,,,,,,,,,1,,,73,115
62760,note_on,0,0,2,,,,,,,,,1,,,76,0
62760,note_on,240,0,8,,,,,,,,,7,,,64,0
62760,note_on,240,0,2,,,,,,,,,1,,,79,0
62805,note_on,45,0,10,,,,,,,,,10,,,57,0
62805,note_on,45,0,11,,,,,,,,,11,,,45,0
62820,note_on,15,0,11,,,,,,,,,11,,,45,115
62820,note_on,15,0,10,,,,,,,,,10,,,57,115
62865,note_on,45,0,10,,,,,,,,,10,,,57,0
62865,note_on,45,0,11,,,,,,,,,11,,,45,0
62880,note_on,120,0,8,,,,,,,,,7,,,67,0
62880,note_on,0,0,8,,,,,,,,,7,,,66,115
62880,note_on,360,0,4,,,,,,,,,3,,,57,0
62880,note_on,240,0,6,,,,,,,,,5,,,45,115
62880,note_on,120,0,9,,,,,,,,,8,,,64,0
62880,note_on,0,0,7,,,,,,,,,6,,,86,115
62880,note_on,0,0,4,,,,,,,,,3,,,57,115
62880,note_on,120,0,2,,,,,,,,,1,,,76,0
62880,note_on,15,0,10,,,,,,,,,10,,,57,115
62880,note_on,0,0,4,,,,,,,,,3,,,45,115
62880,note_on,120,0,7,,,,,,,,,6,,,85,0
62880,note_on,0,0,5,,,,,,,,,4,,,57,115
62880,note_on,120,0,3,,,,,,,,,2,,,52,0
62880,note_on,0,0,3,,,,,,,,,2,,,55,0
62880,note_on,0,0,3,,,,,,,,,2,,,50,115
62880,note_on,0,0,3,,,,,,,,,2,,,54,115
62880,note_on,0,0,9,,,,,,,,,8,,,62,115
62880,note_on,0,0,1,,,,,,,,,0,,,86,115
62880,note_on,0,0,5,,,,,,,,,4,,,69,115
62880,note_on,0,0,2,,,,,,,,,1,,,74,115
62880,note_on,120,0,1,,,,,,,,,0,,,85,0
62880,note_on,0,0,2,,,,,,,,,1,,,73,0
62880,note_on,15,0,11,,,,,,,,,11,,,45,115
62880,note_on,360,0,5,,,,,,,,,4,,,69,0
62880,note_on,0,0,5,,,,,,,,,4,,,57,0
62880,note_on,0,0,2,,,,,,,,,1,,,78,115
62880,note_on,0,0,4,,,,,,,,,3,,,45,0
62925,note_on,45,0,10,,,,,,,,,10,,,57,0
62925,note_on,45,0,11,,,,,,,,,11,,,45,0
62940,note_on,15,0,10,,,,,,,,,10,,,57,115
62940,note_on,15,0,11,,,,,,,,,11,,,45,115
62985,note_on,45,0,10,,,,,,,,,10,,,57,0
62985,note_on,45,0,11,,,,,,,,,11,,,45,0
63000,note_on,0,0,9,,,,,,,,,8,,,61,127
63000,note_on,120,0,9,,,,,,,,,8,,,62,0
63000,note_on,120,0,1,,,,,,,,,0,,,86,0
63000,note_on,0,0,6,,,,,,,,,5,,,45,127
63000,note_on,120,0,4,,,,,,,,,3,,,57,0
63000,note_on,15,0,11,,,,,,,,,11,,,45,127
63000,note_on,120,0,2,,,,,,,,,1,,,74,0
63000,note_on,0,0,2,,,,,,,,,1,,,78,0
63000,note_on,0,0,2,,,,,,,,,1,,,76,127
63000,note_on,0,0,4,,,,,,,,,3,,,57,127
63000,note_on,120,0,6,,,,,,,,,5,,,45,0
63000,note_on,120,0,8,,,,,,,,,7,,,66,0
63000,note_on,0,0,4,,,,,,,,,3,,,45,0
63000,note_on,120,0,5,,,,,,,,,4,,,69,0
63000,note_on,0,0,5,,,,,,,,,4,,,69,127
63000,note_on,0,0,5,,,,,,,,,4,,,57,127
63000,note_on,0,0,5,,,,,,,,,4,,,57,0
63000,note_on,15,0,10,,,,,,,,,10,,,57,127
63000,note_on,120,0,7,,,,,,,,,6,,,86,0
63000,note_on,0,0,7,,,,,,,,,6,,,88,127
63000,note_on,0,0,8,,,,,,,,,7,,,64,127
63000,note_on,0,0,3,,,,,,,,,2,,,49,127
63000,note_on,0,0,3,,,,,,,,,2,,,52,127
63000,note_on,0,0,3,,,,,,,,,2,,,50,0
63000,note_on,0,0,4,,,,,,,,,3,,,45,127
63000,note_on,0,0,1,,,,,,,,,0,,,88,127
63000,note_on,120,0,3,,,,,,,,,2,,,54,0
63000,note_on,0,0,2,,,,,,,,,1,,,79,127
63045,note_on,45,0,10,,,,,,,,,10,,,57,0
63045,note_on,45,0,11,,,,,,,,,11,,,45,0
63060,note_on,15,0,11,,,,,,,,,11,,,45,127
63060,note_on,15,0,10,,,,,,,,,10,,,57,127
63105,note_on,45,0,11,,,,,,,,,11,,,45,0
63105,note_on,45,0,10,,,,,,,,,10,,,57,0
63120,note_on,15,0,11,,,,,,,,,11,,,45,127
63120,note_on,15,0,10,,,,,,,,,10,,,57,127
63120,note_on,120,0,6,,,,,,,,,5,,,45,0
63165,note_on,45,0,10,,,,,,,,,10,,,57,0
63165,note_on,45,0,11,,,,,,,,,11,,,45,0
63180,note_on,15,0,11,,,,,,,,,11,,,45,127
63180,note_on,15,0,10,,,,,,,,,10,,,57,127
63225,note_on,45,0,10,,,,,,,,,10,,,57,0
63225,note_on,45,0,11,,,,,,,,,11,,,45,0
63240,note_on,0,0,3,,,,,,,,,2,,,55,115
63240,note_on,0,0,3,,,,,,,,,2,,,52,0
63240,note_on,240,0,3,,,,,,,,,2,,,49,0
63240,note_on,0,0,1,,,,,,,,,0,,,85,115
63240,note_on,0,0,2,,,,,,,,,1,,,76,0
63240,note_on,0,0,7,,,,,,,,,6,,,85,115
63240,note_on,240,0,7,,,,,,,,,6,,,88,0
63240,note_on,0,0,2,,,,,,,,,1,,,76,115
63240,note_on,0,0,2,,,,,,,,,1,,,73,115
63240,note_on,15,0,10,,,,,,,,,10,,,57,115
63240,note_on,15,0,11,,,,,,,,,11,,,45,115
63240,note_on,240,0,2,,,,,,,,,1,,,79,0
63240,note_on,0,0,8,,,,,,,,,7,,,67,115
63240,note_on,240,0,9,,,,,,,,,8,,,61,0
63240,note_on,240,0,8,,,,,,,,,7,,,64,0
63240,note_on,240,0,1,,,,,,,,,0,,,88,0
63240,note_on,0,0,3,,,,,,,,,2,,,52,115
63240,note_on,0,0,9,,,,,,,,,8,,,64,115
63285,note_on,45,0,11,,,,,,,,,11,,,45,0
63285,note_on,45,0,10,,,,,,,,,10,,,57,0
63300,note_on,15,0,10,,,,,,,,,10,,,57,115
63300,note_on,15,0,11,,,,,,,,,11,,,45,115
63345,note_on,45,0,11,,,,,,,,,11,,,45,0
63345,note_on,45,0,10,,,,,,,,,10,,,57,0
63360,note_on,120,0,3,,,,,,,,,2,,,52,0
63360,note_on,0,0,3,,,,,,,,,2,,,55,0
63360,note_on,0,0,3,,,,,,,,,2,,,50,127
63360,note_on,0,0,3,,,,,,,,,2,,,54,127
63360,note_on,360,0,5,,,,,,,,,4,,,69,0
63360,note_on,0,0,5,,,,,,,,,4,,,57,0
63360,note_on,0,0,5,,,,,,,,,4,,,57,127
63360,note_on,15,0,11,,,,,,,,,11,,,45,127
63360,note_on,240,0,6,,,,,,,,,5,,,45,127
63360,note_on,15,0,10,,,,,,,,,10,,,57,127
63360,note_on,120,0,1,,,,,,,,,0,,,85,0
63360,note_on,0,0,1,,,,,,,,,0,,,86,127
63360,note_on,120,0,7,,,,,,,,,6,,,85,0
63360,note_on,120,0,9,,,,,,,,,8,,,64,0
63360,note_on,0,0,9,,,,,,,,,8,,,62,127
63360,note_on,0,0,5,,,,,,,,,4,,,69,127
63360,note_on,0,0,7,,,,,,,,,6,,,86,115
63360,note_on,120,0,2,,,,,,,,,1,,,76,0
63360,note_on,0,0,2,,,,,,,,,1,,,74,127
63360,note_on,0,0,2,,,,,,,,,1,,,78,127
63360,note_on,0,0,2,,,,,,,,,1,,,73,0
63360,note_on,0,0,8,,,,,,,,,7,,,66,127
63360,note_on,120,0,8,,,,,,,,,7,,,67,0
63360,note_on,360,0,4,,,,,,,,,3,,,57,0
63360,note_on,0,0,4,,,,,,,,,3,,,45,0
63360,note_on,0,0,4,,,,,,,,,3,,,45,127
63360,note_on,0,0,4,,,,,,,,,3,,,57,127
63405,note_on,45,0,10,,,,,,,,,10,,,57,0
63405,note_on,45,0,11,,,,,,,,,11,,,45,0
63420,note_on,15,0,11,,,,,,,,,11,,,45,124
63420,note_on,15,0,10,,,,,,,,,10,,,57,124
63465,note_on,45,0,11,,,,,,,,,11,,,45,0
63465,note_on,45,0,10,,,,,,,,,10,,,57,0
63480,note_on,0,0,8,,,,,,,,,7,,,64,121
63480,note_on,120,0,4,,,,,,,,,3,,,57,0
63480,note_on,0,0,4,,,,,,,,,3,,,45,0
63480,note_on,0,0,4,,,,,,,,,3,,,45,121
63480,note_on,0,0,4,,,,,,,,,3,,,57,121
63480,note_on,0,0,3,,,,,,,,,2,,,52,121
63480,note_on,0,0,3,,,,,,,,,2,,,49,121
63480,note_on,15,0,10,,,,,,,,,10,,,57,121
63480,note_on,120,0,7,,,,,,,,,6,,,86,0
63480,note_on,0,0,3,,,,,,,,,2,,,50,0
63480,note_on,120,0,3,,,,,,,,,2,,,54,0
63480,note_on,0,0,7,,,,,,,,,6,,,88,115
63480,note_on,120,0,8,,,,,,,,,7,,,66,0
63480,note_on,15,0,11,,,,,,,,,11,,,45,121
63480,note_on,120,0,9,,,,,,,,,8,,,62,0
63480,note_on,120,0,5,,,,,,,,,4,,,69,0
63480,note_on,0,0,5,,,,,,,,,4,,,57,0
63480,note_on,0,0,2,,,,,,,,,1,,,76,121
63480,note_on,0,0,2,,,,,,,,,1,,,79,121
63480,note_on,120,0,6,,,,,,,,,5,,,45,0
63480,note_on,0,0,5,,,,,,,,,4,,,57,121
63480,note_on,0,0,2,,,,,,,,,1,,,78,0
63480,note_on,120,0,2,,,,,,,,,1,,,74,0
63480,note_on,0,0,5,,,,,,,,,4,,,69,121
63480,note_on,120,0,1,,,,,,,,,0,,,86,0
63480,note_on,0,0,9,,,,,,,,,8,,,61,121
63480,note_on,0,0,1,,,,,,,,,0,,,88,121
63525,note_on,45,0,11,,,,,,,,,11,,,45,0
63525,note_on,45,0,10,,,,,,,,,10,,,57,0
63540,note_on,15,0,11,,,,,,,,,11,,,45,117
63540,note_on,15,0,10,,,,,,,,,10,,,57,117
63585,note_on,45,0,10,,,,,,,,,10,,,57,0
63585,note_on,45,0,11,,,,,,,,,11,,,45,0
63600,note_on,0,0,5,,,,,,,,,4,,,66,114
63600,note_on,0,0,5,,,,,,,,,4,,,78,114
63600,note_on,0,0,8,,,,,,,,,7,,,76,114
63600,note_on,0,0,8,,,,,,,,,7,,,78,114
63600,note_on,0,0,4,,,,,,,,,3,,,66,114
63600,note_on,0,0,4,,,,,,,,,3,,,54,114
63600,note_on,120,0,1,,,,,,,,,0,,,85,114
63600,note_on,120,0,5,,,,,,,,,4,,,69,0
63600,note_on,0,0,5,,,,,,,,,4,,,57,0
63600,note_on,0,0,4,,,,,,,,,3,,,45,0
63600,note_on,120,0,9,,,,,,,,,8,,,61,0
63600,note_on,0,0,9,,,,,,,,,8,,,73,114
63600,note_on,15,0,10,,,,,,,,,10,,,58,114
63600,note_on,120,0,4,,,,,,,,,3,,,57,0
63600,note_on,15,0,11,,,,,,,,,11,,,46,114
63600,note_on,120,0,8,,,,,,,,,7,,,64,0
63600,note_on,0,0,3,,,,,,,,,2,,,49,0
63600,note_on,120,0,3,,,,,,,,,2,,,52,0
63600,note_on,0,0,2,,,,,,,,,1,,,76,114
63600,note_on,0,0,2,,,,,,,,,1,,,73,114
63600,note_on,0,0,2,,,,,,,,,1,,,79,0
63600,note_on,120,0,2,,,,,,,,,1,,,76,0
63600,note_on,0,0,3,,,,,,,,,2,,,58,114
63630,note_on,0,0,8,,,,,,,,,7,,,76,112
63630,note_on,30,0,8,,,,,,,,,7,,,76,0
63630,note_on,0,0,8,,,,,,,,,7,,,78,0
63630,note_on,0,0,8,,,,,,,,,7,,,78,112
63645,note_on,45,0,11,,,,,,,,,11,,,46,0
63645,note_on,45,0,10,,,,,,,,,10,,,58,0
63645,note_on,45,0,3,,,,,,,,,2,,,58,0
63645,note_on,45,0,9,,,,,,,,,8,,,73,0
63660,note_on,0,0,8,,,,,,,,,7,,,78,111
63660,note_on,15,0,10,,,,,,,,,10,,,58,111
63660,note_on,0,0,8,,,,,,,,,7,,,76,111
63660,note_on,0,0,8,,,,,,,,,7,,,78,0
63660,note_on,15,0,3,,,,,,,,,2,,,58,111
63660,note_on,30,0,8,,,,,,,,,7,,,76,0
63660,note_on,15,0,9,,,,,,,,,8,,,73,111
63660,note_on,15,0,11,,,,,,,,,11,,,46,111
63690,note_on,30,0,8,,,,,,,,,7,,,76,0
63690,note_on,0,0,8,,,,,,,,,7,,,78,0
63690,note_on,0,0,8,,,,,,,,,7,,,78,109
63690,note_on,0,0,8,,,,,,,,,7,,,76,109
63705,note_on,45,0,3,,,,,,,,,2,,,58,0
63705,note_on,45,0,11,,,,,,,,,11,,,46,0
63705,note_on,45,0,10,,,,,,,,,10,,,58,0
63705,note_on,45,0,9,,,,,,,,,8,,,73,0
63720,note_on,30,0,8,,,,,,,,,7,,,76,0
63720,note_on,15,0,9,,,,,,,,,8,,,73,107
63720,note_on,0,0,8,,,,,,,,,7,,,78,107
63720,note_on,0,0,8,,,,,,,,,7,,,76,107
63720,note_on,0,0,5,,,,,,,,,4,,,66,107
63720,note_on,0,0,4,,,,,,,,,3,,,66,107
63720,note_on,0,0,4,,,,,,,,,3,,,54,107
63720,note_on,0,0,4,,,,,,,,,3,,,54,0
63720,note_on,120,0,4,,,,,,,,,3,,,66,0
63720,note_on,15,0,11,,,,,,,,,11,,,46,107
63720,note_on,15,0,10,,,,,,,,,10,,,58,107
63720,note_on,0,0,8,,,,,,,,,7,,,78,0
63720,note_on,0,0,5,,,,,,,,,4,,,66,0
63720,note_on,120,0,5,,,,,,,,,4,,,78,0
63720,note_on,0,0,5,,,,,,,,,4,,,78,107
63720,note_on,15,0,3,,,,,,,,,2,,,58,107
63720,note_on,0,0,7,,,,,,,,,6,,,85,115
63720,note_on,240,0,7,,,,,,,,,6,,,88,0
63735,note_on,0,0,7,,,,,,,,,6,,,83,115
63735,note_on,15,0,7,,,,,,,,,6,,,85,0
63750,note_on,0,0,8,,,,,,,,,7,,,76,106
63750,note_on,15,0,7,,,,,,,,,6,,,83,0
63750,note_on,0,0,8,,,,,,,,,7,,,78,106
63750,note_on,0,0,8,,,,,,,,,7,,,78,0
63750,note_on,30,0,8,,,,,,,,,7,,,76,0
63750,note_on,0,0,7,,,,,,,,,6,,,85,115
63765,note_on,15,0,7,,,,,,,,,6,,,85,0
63765,note_on,45,0,9,,,,,,,,,8,,,73,0
63765,note_on,45,0,3,,,,,,,,,2,,,58,0
63765,note_on,0,0,7,,,,,,,,,6,,,83,115
63765,note_on,45,0,10,,,,,,,,,10,,,58,0
63765,note_on,45,0,11,,,,,,,,,11,,,46,0
63780,note_on,15,0,7,,,,,,,,,6,,,83,0
63780,note_on,0,0,8,,,,,,,,,7,,,76,104
63780,note_on,15,0,10,,,,,,,,,10,,,58,104
63780,note_on,15,0,11,,,,,,,,,11,,,46,104
63780,note_on,15,0,9,,,,,,,,,8,,,73,104
63780,note_on,0,0,8,,,,,,,,,7,,,78,0
63780,note_on,30,0,8,,,,,,,,,7,,,76,0
63780,note_on,0,0,8,,,,,,,,,7,,,78,104
63780,note_on,15,0,3,,,,,,,,,2,,,58,104
63780,note_on,0,0,7,,,,,,,,,6,,,83,115
63795,note_on,15,0,7,,,,,,,,,6,,,83,0
63810,note_on,30,0,8,,,,,,,,,7,,,76,0
63810,note_on,0,0,8,,,,,,,,,7,,,78,0
63810,note_on,90,0,5,,,,,,,,,4,,,78,0
63810,note_on,0,0,5,,,,,,,,,4,,,78,102
63810,note_on,0,0,8,,,,,,,,,7,,,76,102
63810,note_on,0,0,5,,,,,,,,,4,,,66,0
63810,note_on,0,0,5,,,,,,,,,4,,,66,102
63810,note_on,0,0,8,,,,,,,,,7,,,78,102
63810,note_on,90,0,4,,,,,,,,,3,,,66,0
63810,note_on,0,0,4,,,,,,,,,3,,,54,0
63810,note_on,0,0,4,,,,,,,,,3,,,54,102
63810,note_on,15,0,7,,,,,,,,,6,,,85,115
63810,note_on,0,0,4,,,,,,,,,3,,,66,102
63825,note_on,45,0,10,,,,,,,,,10,,,58,0
63825,note_on,45,0,11,,,,,,,,,11,,,46,0
63825,note_on,45,0,9,,,,,,,,,8,,,73,0
63825,note_on,45,0,3,,,,,,,,,2,,,58,0
63840,note_on,30,0,7,,,,,,,,,6,,,85,0
63840,note_on,15,0,9,,,,,,,,,8,,,71,100
63840,note_on,0,0,7,,,,,,,,,6,,,86,100
63840,note_on,0,0,8,,,,,,,,,7,,,74,100
63840,note_on,0,0,1,,,,,,,,,0,,,83,100
63840,note_on,0,0,8,,,,,,,,,7,,,78,0
63840,note_on,30,0,8,,,,,,,,,7,,,76,0
63840,note_on,0,0,2,,,,,,,,,1,,,74,100
63840,note_on,30,0,4,,,,,,,,,3,,,66,0
63840,note_on,0,0,4,,,,,,,,,3,,,54,0
63840,note_on,15,0,3,,,,,,,,,2,,,59,100
63840,note_on,0,0,4,,,,,,,,,3,,,66,100
63840,note_on,0,0,5,,,,,,,,,4,,,66,100
63840,note_on,0,0,2,,,,,,,,,1,,,71,100
63840,note_on,0,0,2,,,,,,,,,1,,,73,0
63840,note_on,240,0,2,,,,,,,,,1,,,76,0
63840,note_on,0,0,5,,,,,,,,,4,,,78,100
63840,note_on,0,0,5,,,,,,,,,4,,,78,0
63840,note_on,30,0,5,,,,,,,,,4,,,66,0
63840,note_on,15,0,10,,,,,,,,,10,,,59,100
63840,note_on,0,0,8,,,,,,,,,7,,,78,100
63840,note_on,240,0,1,,,,,,,,,0,,,85,0
63840,note_on,0,0,1,,,,,,,,,0,,,88,0
63840,note_on,0,0,1,,,,,,,,,0,,,86,100
63840,note_on,15,0,11,,,,,,,,,11,,,47,100
63840,note_on,0,0,4,,,,,,,,,3,,,54,100
63870,note_on,0,0,8,,,,,,,,,7,,,74,0
63870,note_on,30,0,8,,,,,,,,,7,,,78,0
63870,note_on,0,0,8,,,,,,,,,7,,,78,100
63870,note_on,0,0,8,,,,,,,,,7,,,74,100
63885,note_on,45,0,10,,,,,,,,,10,,,59,0
63885,note_on,45,0,9,,,,,,,,,8,,,71,0
63885,note_on,45,0,11,,,,,,,,,11,,,47,0
63885,note_on,45,0,3,,,,,,,,,2,,,59,0
63900,note_on,15,0,10,,,,,,,,,10,,,59,100
63900,note_on,15,0,9,,,,,,,,,8,,,71,100
63900,note_on,15,0,11,,,,,,,,,11,,,47,100
63900,note_on,60,0,7,,,,,,,,,6,,,86,0
63900,note_on,15,0,3,,,,,,,,,2,,,59,100
63900,note_on,0,0,8,,,,,,,,,7,,,74,0
63900,note_on,0,0,8,,,,,,,,,7,,,74,100
63900,note_on,0,0,8,,,,,,,,,7,,,78,100
63900,note_on,30,0,8,,,,,,,,,7,,,78,0
63930,note_on,0,0,8,,,,,,,,,7,,,74,0
63930,note_on,0,0,8,,,,,,,,,7,,,74,100
63930,note_on,0,0,8,,,,,,,,,7,,,78,100
63930,note_on,30,0,8,,,,,,,,,7,,,78,0
63945,note_on,45,0,9,,,,,,,,,8,,,71,0
63945,note_on,45,0,11,,,,,,,,,11,,,47,0
63945,note_on,45,0,10,,,,,,,,,10,,,59,0
63945,note_on,45,0,3,,,,,,,,,2,,,59,0
63960,note_on,120,0,5,,,,,,,,,4,,,66,0
63960,note_on,15,0,10,,,,,,,,,10,,,56,100
63960,note_on,0,0,8,,,,,,,,,7,,,76,100
63960,note_on,15,0,3,,,,,,,,,2,,,56,100
63960,note_on,15,0,9,,,,,,,,,8,,,71,100
63960,note_on,60,0,7,,,,,,,,,6,,,83,100
63960,note_on,0,0,8,,,,,,,,,7,,,74,100
63960,note_on,30,0,8,,,,,,,,,7,,,78,0
63960,note_on,120,0,4,,,,,,,,,3,,,66,0
63960,note_on,15,0,11,,,,,,,,,11,,,44,100
63960,note_on,0,0,4,,,,,,,,,3,,,62,100
63960,note_on,0,0,5,,,,,,,,,4,,,78,0
63960,note_on,0,0,5,,,,,,,,,4,,,74,100
63960,note_on,0,0,5,,,,,,,,,4,,,76,100
63960,note_on,0,0,4,,,,,,,,,3,,,64,100
63960,note_on,0,0,4,,,,,,,,,3,,,54,0
63960,note_on,0,0,8,,,,,,,,,7,,,74,0
63975,note_on,15,0,7,,,,,,,,,6,,,83,0
63975,note_on,0,0,7,,,,,,,,,6,,,81,100
63990,note_on,0,0,7,,,,,,,,,6,,,83,100
63990,note_on,15,0,7,,,,,,,,,6,,,81,0
63990,note_on,30,0,8,,,,,,,,,7,,,74,0
63990,note_on,0,0,8,,,,,,,,,7,,,76,0
63990,note_on,0,0,8,,,,,,,,,7,,,76,100
63990,note_on,0,0,8,,,,,,,,,7,,,74,100
64005,note_on,45,0,9,,,,,,,,,8,,,71,0
64005,note_on,45,0,3,,,,,,,,,2,,,56,0
64005,note_on,45,0,11,,,,,,,,,11,,,44,0
64005,note_on,45,0,10,,,,,,,,,10,,,56,0
64005,note_on,0,0,7,,,,,,,,,6,,,81,100
64005,note_on,15,0,7,,,,,,,,,6,,,83,0
64020,note_on,15,0,10,,,,,,,,,10,,,56,100
64020,note_on,0,0,7,,,,,,,,,6,,,81,100
64020,note_on,15,0,7,,,,,,,,,6,,,81,0
64020,note_on,15,0,3,,,,,,,,,2,,,56,100
64020,note_on,0,0,8,,,,,,,,,7,,,76,0
64020,note_on,0,0,8,,,,,,,,,7,,,76,100
64020,note_on,0,0,8,,,,,,,,,7,,,74,100
64020,note_on,15,0,11,,,,,,,,,11,,,44,100
64020,note_on,15,0,9,,,,,,,,,8,,,71,100
64020,note_on,30,0,8,,,,,,,,,7,,,74,0
64050,note_on,30,0,8,,,,,,,,,7,,,74,0
64050,note_on,30,0,7,,,,,,,,,6,,,81,0
64050,note_on,0,0,7,,,,,,,,,6,,,83,100
64050,note_on,0,0,8,,,,,,,,,7,,,76,0
64050,note_on,0,0,8,,,,,,,,,7,,,76,100
64050,note_on,0,0,8,,,,,,,,,7,,,74,100
64065,note_on,45,0,10,,,,,,,,,10,,,56,0
64065,note_on,45,0,9,,,,,,,,,8,,,71,0
64065,note_on,45,0,11,,,,,,,,,11,,,44,0
64065,note_on,45,0,3,,,,,,,,,2,,,56,0
64080,note_on,0,0,1,,,,,,,,,0,,,81,100
64080,note_on,0,0,4,,,,,,,,,3,,,64,100
64080,note_on,0,0,1,,,,,,,,,0,,,85,100
64080,note_on,15,0,3,,,,,,,,,2,,,57,100
64080,note_on,0,0,8,,,,,,,,,7,,,73,100
64080,note_on,0,0,8,,,,,,,,,7,,,76,100
64080,note_on,0,0,8,,,,,,,,,7,,,76,0
64080,note_on,30,0,7,,,,,,,,,6,,,83,0
64080,note_on,15,0,10,,,,,,,,,10,,,57,100
64080,note_on,240,0,1,,,,,,,,,0,,,83,0
64080,note_on,15,0,9,,,,,,,,,8,,,69,100
64080,note_on,0,0,4,,,,,,,,,3,,,57,100
64080,note_on,30,0,8,,,,,,,,,7,,,74,0
64080,note_on,0,0,2,,,,,,,,,1,,,69,100
64080,note_on,0,0,2,,,,,,,,,1,,,73,100
64080,note_on,120,0,4,,,,,,,,,3,,,64,0
64080,note_on,0,0,7,,,,,,,,,6,,,85,100
64080,note_on,240,0,2,,,,,,,,,1,,,74,0
64080,note_on,0,0,5,,,,,,,,,4,,,76,100
64080,note_on,0,0,5,,,,,,,,,4,,,69,100
64080,note_on,0,0,5,,,,,,,,,4,,,74,0
64080,note_on,120,0,5,,,,,,,,,4,,,76,0
64080,note_on,15,0,11,,,,,,,,,11,,,45,100
64080,note_on,0,0,4,,,,,,,,,3,,,62,0
64080,note_on,0,0,1,,,,,,,,,0,,,86,0
64080,note_on,0,0,2,,,,,,,,,1,,,71,0
64110,note_on,0,0,8,,,,,,,,,7,,,73,100
64110,note_on,30,0,8,,,,,,,,,7,,,73,0
64110,note_on,0,0,8,,,,,,,,,7,,,76,0
64110,note_on,0,0,8,,,,,,,,,7,,,76,100
64125,note_on,45,0,3,,,,,,,,,2,,,57,0
64125,note_on,45,0,10,,,,,,,,,10,,,57,0
64125,note_on,45,0,11,,,,,,,,,11,,,45,0
64125,note_on,45,0,7,,,,,,,,,6,,,85,0
64125,note_on,45,0,9,,,,,,,,,8,,,69,0
64140,note_on,30,0,8,,,,,,,,,7,,,73,0
64140,note_on,15,0,3,,,,,,,,,2,,,57,100
64140,note_on,0,0,8,,,,,,,,,7,,,73,100
64140,note_on,0,0,8,,,,,,,,,7,,,76,100
64140,note_on,15,0,9,,,,,,,,,8,,,69,100
64140,note_on,15,0,11,,,,,,,,,11,,,45,100
64140,note_on,15,0,10,,,,,,,,,10,,,57,100
64140,note_on,0,0,8,,,,,,,,,7,,,76,0
64170,note_on,0,0,8,,,,,,,,,7,,,73,100
64170,note_on,0,0,8,,,,,,,,,7,,,76,100
64170,note_on,0,0,8,,,,,,,,,7,,,76,0
64170,note_on,30,0,8,,,,,,,,,7,,,73,0
64185,note_on,45,0,3,,,,,,,,,2,,,57,0
64185,note_on,45,0,10,,,,,,,,,10,,,57,0
64185,note_on,45,0,9,,,,,,,,,8,,,69,0
64185,note_on,45,0,11,,,,,,,,,11,,,45,0
64200,note_on,0,0,5,,,,,,,,,4,,,78,100
64200,note_on,15,0,10,,,,,,,,,10,,,54,100
64200,note_on,15,0,9,,,,,,,,,8,,,66,100
64200,note_on,120,0,4,,,,,,,,,3,,,64,0
64200,note_on,0,0,5,,,,,,,,,4,,,66,100
64200,note_on,30,0,8,,,,,,,,,7,,,73,0
64200,note_on,0,0,8,,,,,,,,,7,,,76,0
64200,note_on,0,0,8,,,,,,,,,7,,,73,100
64200,note_on,0,0,8,,,,,,,,,7,,,81,100
64200,note_on,15,0,11,,,,,,,,,11,,,42,100
64200,note_on,0,0,4,,,,,,,,,3,,,57,0
64200,note_on,0,0,4,,,,,,,,,3,,,66,100
64200,note_on,0,0,4,,,,,,,,,3,,,54,100
64200,note_on,120,0,5,,,,,,,,,4,,,76,0
64200,note_on,15,0,3,,,,,,,,,2,,,54,100
64200,note_on,75,0,7,,,,,,,,,6,,,81,100
64200,note_on,0,0,5,,,,,,,,,4,,,69,0
64230,note_on,0,0,8,,,,,,,,,7,,,73,100
64230,note_on,0,0,8,,,,,,,,,7,,,81,100
64230,note_on,0,0,8,,,,,,,,,7,,,73,0
64230,note_on,30,0,8,,,,,,,,,7,,,81,0
64245,note_on,45,0,10,,,,,,,,,10,,,54,0
64245,note_on,45,0,9,,,,,,,,,8,,,66,0
64245,note_on,45,0,3,,,,,,,,,2,,,54,0
64245,note_on,45,0,7,,,,,,,,,6,,,81,0
64245,note_on,45,0,11,,,,,,,,,11,,,42,0
64260,note_on,15,0,11,,,,,,,,,11,,,42,100
64260,note_on,0,0,8,,,,,,,,,7,,,81,100
64260,note_on,30,0,8,,,,,,,,,7,,,81,0
64260,note_on,0,0,8,,,,,,,,,7,,,73,0
64260,note_on,15,0,3,,,,,,,,,2,,,54,100
64260,note_on,15,0,9,,,,,,,,,8,,,66,100
64260,note_on,0,0,8,,,,,,,,,7,,,73,100
64260,note_on,15,0,10,,,,,,,,,10,,,54,100
64290,note_on,30,0,8,,,,,,,,,7,,,81,0
64290,note_on,0,0,8,,,,,,,,,7,,,73,0
64290,note_on,0,0,8,,,,,,,,,7,,,81,100
64290,note_on,0,0,8,,,,,,,,,7,,,73,100
64305,note_on,45,0,3,,,,,,,,,2,,,54,0
64305,note_on,45,0,11,,,,,,,,,11,,,42,0
64305,note_on,45,0,10,,,,,,,,,10,,,54,0
64305,note_on,45,0,9,,,,,,,,,8,,,66,0
64320,note_on,0,0,5,,,,,,,,,4,,,66,0
64320,note_on,30,0,8,,,,,,,,,7,,,81,0
64320,note_on,0,0,8,,,,,,,,,7,,,74,100
64320,note_on,0,0,5,,,,,,,,,4,,,78,100
64320,note_on,15,0,9,,,,,,,,,8,,,62,100
64320,note_on,0,0,8,,,,,,,,,7,,,73,0
64320,note_on,0,0,2,,,,,,,,,1,,,69,0
64320,note_on,240,0,2,,,,,,,,,1,,,73,0
64320,note_on,15,0,11,,,,,,,,,11,,,38,100
64320,note_on,0,0,2,,,,,,,,,1,,,71,100
64320,note_on,0,0,2,,,,,,,,,1,,,74,100
64320,note_on,15,0,10,,,,,,,,,10,,,50,100
64320,note_on,0,0,5,,,,,,,,,4,,,74,100
64320,note_on,120,0,5,,,,,,,,,4,,,78,0
64320,note_on,75,0,7,,,,,,,,,6,,,66,100
64320,note_on,0,0,7,,,,,,,,,6,,,74,100
64320,note_on,0,0,7,,,,,,,,,6,,,83,100
64320,note_on,120,0,4,,,,,,,,,3,,,54,0
64320,note_on,0,0,1,,,,,,,,,0,,,83,100
64320,note_on,0,0,1,,,,,,,,,0,,,86,100
64320,note_on,0,0,1,,,,,,,,,0,,,81,0
64320,note_on,240,0,1,,,,,,,,,0,,,85,0
64320,note_on,0,0,4,,,,,,,,,3,,,66,0
64320,note_on,0,0,4,,,,,,,,,3,,,66,100
64320,note_on,0,0,4,,,,,,,,,3,,,62,100
64320,note_on,15,0,3,,,,,,,,,2,,,50,100
64320,note_on,0,0,8,,,,,,,,,7,,,78,100
64365,note_on,45,0,9,,,,,,,,,8,,,62,0
64365,note_on,45,0,11,,,,,,,,,11,,,38,0
64365,note_on,45,0,10,,,,,,,,,10,,,50,0
64365,note_on,45,0,3,,,,,,,,,2,,,50,0
64380,note_on,15,0,10,,,,,,,,,10,,,50,100
64380,note_on,15,0,11,,,,,,,,,11,,,38,100
64380,note_on,15,0,3,,,,,,,,,2,,,50,100
64380,note_on,15,0,9,,,,,,,,,8,,,62,100
64425,note_on,45,0,11,,,,,,,,,11,,,38,0
64425,note_on,45,0,9,,,,,,,,,8,,,62,0
64425,note_on,45,0,10,,,,,,,,,10,,,50,0
64425,note_on,45,0,3,,,,,,,,,2,,,50,0
64440,note_on,0,0,2,,,,,,,,,1,,,74,0
64440,note_on,0,0,5,,,,,,,,,4,,,74,0
64440,note_on,120,0,5,,,,,,,,,4,,,78,0
64440,note_on,120,0,2,,,,,,,,,1,,,71,0
64440,note_on,0,0,4,,,,,,,,,3,,,66,0
64440,note_on,15,0,10,,,,,,,,,10,,,50,100
64440,note_on,0,0,7,,,,,,,,,6,,,66,0
64440,note_on,120,0,8,,,,,,,,,7,,,74,0
64440,note_on,0,0,8,,,,,,,,,7,,,78,0
64440,note_on,0,0,7,,,,,,,,,6,,,74,0
64440,note_on,120,0,7,,,,,,,,,6,,,83,0
64440,note_on,120,0,4,,,,,,,,,3,,,62,0
64440,note_on,15,0,9,,,,,,,,,8,,,62,100
64440,note_on,120,0,1,,,,,,,,,0,,,83,0
64440,note_on,0,0,1,,,,,,,,,0,,,86,0
64440,note_on,15,0,3,,,,,,,,,2,,,50,100
64440,note_on,15,0,11,,,,,,,,,11,,,38,100
64485,note_on,45,0,3,,,,,,,,,2,,,50,0
64485,note_on,45,0,11,,,,,,,,,11,,,38,0
64485,note_on,45,0,9,,,,,,,,,8,,,62,0
64485,note_on,45,0,10,,,,,,,,,10,,,50,0
64500,note_on,15,0,9,,,,,,,,,8,,,62,100
64500,note_on,15,0,10,,,,,,,,,10,,,50,100
64500,note_on,15,0,3,,,,,,,,,2,,,50,100
64500,note_on,15,0,11,,,,,,,,,11,,,38,100
64545,note_on,45,0,3,,,,,,,,,2,,,50,0
64545,note_on,45,0,9,,,,,,,,,8,,,62,0
64545,note_on,45,0,11,,,,,,,,,11,,,38,0
64545,note_on,45,0,10,,,,,,,,,10,,,50,0
64560,note_on,0,0,2,,,,,,,,,1,,,71,100
64560,note_on,0,0,7,,,,,,,,,6,,,71,100
64560,note_on,120,0,2,,,,,,,,,1,,,68,100
64560,note_on,0,0,7,,,,,,,,,6,,,80,100
64560,note_on,120,0,7,,,,,,,,,6,,,64,100
64560,note_on,15,0,9,,,,,,,,,8,,,64,100
64560,note_on,0,0,8,,,,,,,,,7,,,71,100
64560,note_on,15,0,11,,,,,,,,,11,,,40,100
64560,note_on,120,0,8,,,,,,,,,7,,,64,100
64560,note_on,15,0,10,,,,,,,,,10,,,52,100
64560,note_on,0,0,1,,,,,,,,,0,,,83,100
64560,note_on,120,0,1,,,,,,,,,0,,,80,100
64560,note_on,120,0,4,,,,,,,,,3,,,64,100
64560,note_on,120,0,5,,,,,,,,,4,,,76,100
64560,note_on,15,0,3,,,,,,,,,2,,,52,100
64560,note_on,0,0,8,,,,,,,,,7,,,80,100
64605,note_on,45,0,11,,,,,,,,,11,,,40,0
64605,note_on,45,0,10,,,,,,,,,10,,,52,0
64605,note_on,45,0,9,,,,,,,,,8,,,64,0
64605,note_on,45,0,3,,,,,,,,,2,,,52,0
64620,note_on,15,0,9,,,,,,,,,8,,,64,100
64620,note_on,15,0,3,,,,,,,,,2,,,52,100
64620,note_on,15,0,11,,,,,,,,,11,,,40,100
64620,note_on,15,0,10,,,,,,,,,10,,,52,100
64665,note_on,45,0,10,,,,,,,,,10,,,52,0
64665,note_on,45,0,11,,,,,,,,,11,,,40,0
64665,note_on,45,0,9,,,,,,,,,8,,,64,0
64665,note_on,45,0,3,,,,,,,,,2,,,52,0
64680,note_on,120,0,8,,,,,,,,,7,,,80,0
64680,note_on,120,0,1,,,,,,,,,0,,,83,0
64680,note_on,15,0,11,,,,,,,,,11,,,40,100
64680,note_on,0,0,1,,,,,,,,,0,,,80,0
64680,note_on,15,0,3,,,,,,,,,2,,,52,100
64680,note_on,0,0,8,,,,,,,,,7,,,64,0
64680,note_on,15,0,9,,,,,,,,,8,,,64,100
64680,note_on,0,0,8,,,,,,,,,7,,,71,0
64680,note_on,120,0,4,,,,,,,,,3,,,64,0
64680,note_on,15,0,10,,,,,,,,,10,,,52,100
64680,note_on,120,0,7,,,,,,,,,6,,,80,0
64680,note_on,0,0,2,,,,,,,,,1,,,68,0
64680,note_on,120,0,2,,,,,,,,,1,,,71,0
64680,note_on,0,0,7,,,,,,,,,6,,,64,0
64680,note_on,0,0,7,,,,,,,,,6,,,71,0
64680,note_on,120,0,5,,,,,,,,,4,,,76,0
64725,note_on,45,0,11,,,,,,,,,11,,,40,0
64725,note_on,45,0,3,,,,,,,,,2,,,52,0
64725,note_on,45,0,9,,,,,,,,,8,,,64,0
64725,note_on,45,0,10,,,,,,,,,10,,,52,0
64740,note_on,15,0,3,,,,,,,,,2,,,52,100
64740,note_on,15,0,10,,,,,,,,,10,,,52,100
64740,note_on,15,0,11,,,,,,,,,11,,,40,100
64740,note_on,15,0,9,,,,,,,,,8,,,64,100
64785,note_on,45,0,11,,,,,,,,,11,,,40,0
64785,note_on,45,0,10,,,,,,,,,10,,,52,0
64785,note_on,45,0,9,,,,,,,,,8,,,64,0
64785,note_on,45,0,3,,,,,,,,,2,,,52,0
64800,note_on,120,0,1,,,,,,,,,0,,,81,100
64800,note_on,15,0,10,,,,,,,,,10,,,45,100
64800,note_on,120,0,4,,,,,,,,,3,,,57,100
64800,note_on,120,0,7,,,,,,,,,6,,,81,100
64800,note_on,15,0,3,,,,,,,,,2,,,45,100
64800,note_on,0,0,4,,,,,,,,,3,,,64,100
64800,note_on,120,0,2,,,,,,,,,1,,,69,100
64800,note_on,120,0,5,,,,,,,,,4,,,69,100
64800,note_on,0,0,5,,,,,,,,,4,,,76,100
64800,note_on,120,0,8,,,,,,,,,7,,,81,100
64800,note_on,1320,0,6,,,,,,,,,5,,,45,100
64800,note_on,15,0,9,,,,,,,,,8,,,57,100
64800,note_on,15,0,11,,,,,,,,,11,,,33,100
64860,note_on,0,0,8,,,,,,,,,7,,,85,100
64860,note_on,60,0,8,,,,,,,,,7,,,81,0
64860,note_on,0,0,7,,,,,,,,,6,,,85,100
64860,note_on,60,0,7,,,,,,,,,6,,,81,0
64890,note_on,0,0,7,,,,,,,,,6,,,81,100
64890,note_on,0,0,8,,,,,,,,,7,,,81,100
64890,note_on,30,0,7,,,,,,,,,6,,,85,0
64890,note_on,30,0,8,,,,,,,,,7,,,85,0
64920,note_on,120,0,2,,,,,,,,,1,,,69,0
64920,note_on,0,0,5,,,,,,,,,4,,,69,0
64920,note_on,30,0,7,,,,,,,,,6,,,81,0
64920,note_on,120,0,9,,,,,,,,,8,,,57,0
64920,note_on,120,0,3,,,,,,,,,2,,,45,0
64920,note_on,0,0,7,,,,,,,,,6,,,76,100
64920,note_on,0,0,4,,,,,,,,,3,,,57,0
64920,note_on,120,0,4,,,,,,,,,3,,,64,0
64920,note_on,120,0,1,,,,,,,,,0,,,81,0
64920,note_on,30,0,8,,,,,,,,,7,,,81,0
64920,note_on,0,0,8,,,,,,,,,7,,,76,100
64920,note_on,120,0,6,,,,,,,,,5,,,45,0
64920,note_on,120,0,10,,,,,,,,,10,,,45,0
64920,note_on,120,0,5,,,,,,,,,4,,,76,0
64920,note_on,120,0,11,,,,,,,,,11,,,33,0
64960,note_on,40,0,8,,,,,,,,,7,,,76,0
64960,note_on,40,0,7,,,,,,,,,6,,,76,0
64980,note_on,60,0,2,,,,,,,,,1,,,69,100
64980,note_on,60,0,1,,,,,,,,,0,,,81,100
64980,note_on,0,0,2,,,,,,,,,1,,,73,100
64980,note_on,20,0,8,,,,,,,,,7,,,76,100
64980,note_on,0,0,1,,,,,,,,,0,,,85,100
64980,note_on,0,0,3,,,,,,,,,2,,,57,100
64980,note_on,20,0,7,,,,,,,,,6,,,76,100
64980,note_on,60,0,3,,,,,,,,,2,,,61,100
65020,note_on,40,0,7,,,,,,,,,6,,,76,0
65020,note_on,40,0,8,,,,,,,,,7,,,76,0
65040,note_on,20,0,8,,,,,,,,,7,,,76,100
65040,note_on,0,0,2,,,,,,,,,1,,,71,100
65040,note_on,60,0,1,,,,,,,,,0,,,85,0
65040,note_on,0,0,1,,,,,,,,,0,,,81,0
65040,note_on,0,0,1,,,,,,,,,0,,,86,100
65040,note_on,0,0,2,,,,,,,,,1,,,74,100
65040,note_on,60,0,3,,,,,,,,,2,,,57,0
65040,note_on,0,0,2,,,,,,,,,1,,,69,0
65040,note_on,0,0,3,,,,,,,,,2,,,62,100
65040,note_on,0,0,3,,,,,,,,,2,,,59,100
65040,note_on,60,0,2,,,,,,,,,1,,,73,0
65040,note_on,0,0,3,,,,,,,,,2,,,61,0
65040,note_on,20,0,7,,,,,,,,,6,,,76,100
65040,note_on,0,0,1,,,,,,,,,0,,,83,100
65080,note_on,40,0,8,,,,,,,,,7,,,76,0
65080,note_on,40,0,7,,,,,,,,,6,,,76,0
65100,note_on,0,0,2,,,,,,,,,1,,,69,100
65100,note_on,0,0,1,,,,,,,,,0,,,81,100
65100,note_on,0,0,1,,,,,,,,,0,,,86,0
65100,note_on,0,0,1,,,,,,,,,0,,,85,100
65100,note_on,20,0,8,,,,,,,,,7,,,76,100
65100,note_on,20,0,7,,,,,,,,,6,,,76,100
65100,note_on,60,0,1,,,,,,,,,0,,,83,0
65100,note_on,0,0,2,,,,,,,,,1,,,73,100
65100,note_on,60,0,2,,,,,,,,,1,,,71,0
65100,note_on,60,0,3,,,,,,,,,2,,,59,0
65100,note_on,0,0,3,,,,,,,,,2,,,57,100
65100,note_on,0,0,3,,,,,,,,,2,,,61,100
65100,note_on,0,0,3,,,,,,,,,2,,,62,0
65100,note_on,0,0,2,,,,,,,,,1,,,74,0
65140,note_on,40,0,8,,,,,,,,,7,,,76,0
65140,note_on,40,0,7,,,,,,,,,6,,,76,0
65160,note_on,0,0,2,,,,,,,,,1,,,74,100
65160,note_on,240,0,10,,,,,,,,,10,,,52,100
65160,note_on,0,0,2,,,,,,,,,1,,,69,0
65160,note_on,240,0,5,,,,,,,,,4,,,76,100
65160,note_on,240,0,9,,,,,,,,,8,,,64,100
65160,note_on,20,0,7,,,,,,,,,6,,,76,100
65160,note_on,60,0,2,,,,,,,,,1,,,73,0
65160,note_on,0,0,2,,,,,,,,,1,,,71,100
65160,note_on,60,0,1,,,,,,,,,0,,,85,0
65160,note_on,60,0,3,,,,,,,,,2,,,61,0
65160,note_on,240,0,11,,,,,,,,,11,,,40,100
65160,note_on,0,0,3,,,,,,,,,2,,,57,0
65160,note_on,0,0,3,,,,,,,,,2,,,62,100
65160,note_on,0,0,3,,,,,,,,,2,,,59,100
65160,note_on,240,0,4,,,,,,,,,3,,,64,100
65160,note_on,20,0,8,,,,,,,,,7,,,76,100
65160,note_on,0,0,1,,,,,,,,,0,,,83,100
65160,note_on,0,0,1,,,,,,,,,0,,,86,100
65160,note_on,0,0,1,,,,,,,,,0,,,81,0
65200,note_on,40,0,8,,,,,,,,,7,,,76,0
65200,note_on,40,0,7,,,,,,,,,6,,,76,0
65220,note_on,0,0,3,,,,,,,,,2,,,56,100
65220,note_on,0,0,3,,,,,,,,,2,,,62,0
65220,note_on,60,0,3,,,,,,,,,2,,,59,0
65220,note_on,20,0,7,,,,,,,,,6,,,76,100
65220,note_on,60,0,1,,,,,,,,,0,,,83,0
65220,note_on,0,0,3,,,,,,,,,2,,,59,100
65220,note_on,20,0,8,,,,,,,,,7,,,76,100
65220,note_on,0,0,2,,,,,,,,,1,,,74,0
65220,note_on,60,0,2,,,,,,,,,1,,,71,0
65220,note_on,0,0,1,,,,,,,,,0,,,80,100
65220,note_on,0,0,1,,,,,,,,,0,,,83,100
65220,note_on,0,0,1,,,,,,,,,0,,,86,0
65220,note_on,0,0,2,,,,,,,,,1,,,71,100
65220,note_on,0,0,2,,,,,,,,,1,,,68,100
65260,note_on,40,0,8,,,,,,,,,7,,,76,0
65260,note_on,40,0,7,,,,,,,,,6,,,76,0
65280,note_on,0,0,4,,,,,,,,,3,,,57,100
65280,note_on,120,0,4,,,,,,,,,3,,,64,0
65280,note_on,0,0,11,,,,,,,,,11,,,45,100
65280,note_on,0,0,5,,,,,,,,,4,,,76,100
65280,note_on,0,0,5,,,,,,,,,4,,,69,100
65280,note_on,120,0,5,,,,,,,,,4,,,76,0
65280,note_on,120,0,11,,,,,,,,,11,,,40,0
65280,note_on,0,0,9,,,,,,,,,8,,,69,100
65280,note_on,0,0,4,,,,,,,,,3,,,64,100
65280,note_on,120,0,9,,,,,,,,,8,,,64,0
65280,note_on,0,0,3,,,,,,,,,2,,,56,0
65280,note_on,0,0,3,,,,,,,,,2,,,61,100
65280,note_on,0,0,1,,,,,,,,,0,,,85,100
65280,note_on,0,0,1,,,,,,,,,0,,,81,100
65280,note_on,0,0,2,,,,,,,,,1,,,73,100
65280,note_on,0,0,2,,,,,,,,,1,,,69,100
65280,note_on,0,0,2,,,,,,,,,1,,,68,0
65280,note_on,60,0,2,,,,,,,,,1,,,71,0
65280,note_on,20,0,8,,,,,,,,,7,,,76,100
65280,note_on,0,0,1,,,,,,,,,0,,,80,0
65280,note_on,120,0,10,,,,,,,,,10,,,52,0
65280,note_on,0,0,10,,,,,,,,,10,,,57,100
65280,note_on,20,0,7,,,,,,,,,6,,,76,100
65280,note_on,360,0,6,,,,,,,,,5,,,45,100
65280,note_on,60,0,3,,,,,,,,,2,,,59,0
65280,note_on,60,0,1,,,,,,,,,0,,,83,0
65280,note_on,0,0,3,,,,,,,,,2,,,57,100
65310,note_on,30,0,7,,,,,,,,,6,,,76,0
65310,note_on,0,0,8,,,,,,,,,7,,,81,100
65310,note_on,0,0,7,,,,,,,,,6,,,81,100
65310,note_on,30,0,8,,,,,,,,,7,,,76,0
65340,note_on,30,0,7,,,,,,,,,6,,,81,0
65340,note_on,0,0,7,,,,,,,,,6,,,85,100
65340,note_on,30,0,8,,,,,,,,,7,,,81,0
65340,note_on,0,0,8,,,,,,,,,7,,,85,100
65370,note_on,30,0,7,,,,,,,,,6,,,85,0
65370,note_on,0,0,7,,,,,,,,,6,,,81,100
65370,note_on,30,0,8,,,,,,,,,7,,,85,0
65370,note_on,0,0,8,,,,,,,,,7,,,81,100
65400,note_on,120,0,4,,,,,,,,,3,,,64,0
65400,note_on,120,0,1,,,,,,,,,0,,,81,0
65400,note_on,0,0,3,,,,,,,,,2,,,61,0
65400,note_on,120,0,2,,,,,,,,,1,,,73,0
65400,note_on,120,0,5,,,,,,,,,4,,,76,0
65400,note_on,0,0,5,,,,,,,,,4,,,69,0
65400,note_on,30,0,8,,,,,,,,,7,,,81,0
65400,note_on,120,0,10,,,,,,,,,10,,,57,0
65400,note_on,0,0,2,,,,,,,,,1,,,69,0
65400,note_on,120,0,3,,,,,,,,,2,,,57,0
65400,note_on,0,0,1,,,,,,,,,0,,,85,0
65400,note_on,0,0,4,,,,,,,,,3,,,57,0
65400,note_on,0,0,8,,,,,,,,,7,,,76,100
65400,note_on,30,0,7,,,,,,,,,6,,,81,0
65400,note_on,120,0,9,,,,,,,,,8,,,69,0
65400,note_on,120,0,11,,,,,,,,,11,,,45,0
65400,note_on,0,0,7,,,,,,,,,6,,,76,100
65400,note_on,120,0,6,,,,,,,,,5,,,45,0
65440,note_on,40,0,7,,,,,,,,,6,,,76,0
65440,note_on,40,0,8,,,,,,,,,7,,,76,0
65460,note_on,20,0,7,,,,,,,,,6,,,76,100
65460,note_on,20,0,8,,,,,,,,,7,,,76,100
65460,note_on,0,0,2,,,,,,,,,1,,,73,100
65460,note_on,60,0,1,,,,,,,,,0,,,81,100
65460,note_on,60,0,2,,,,,,,,,1,,,69,100
65460,note_on,60,0,3,,,,,,,,,2,,,61,100
65460,note_on,0,0,3,,,,,,,,,2,,,57,100
65460,note_on,0,0,1,,,,,,,,,0,,,85,100
65500,note_on,40,0,8,,,,,,,,,7,,,76,0
65500,note_on,40,0,7,,,,,,,,,6,,,76,0
65520,note_on,60,0,1,,,,,,,,,0,,,85,0
65520,note_on,60,0,2,,,,,,,,,1,,,73,0
65520,note_on,0,0,2,,,,,,,,,1,,,69,0
65520,note_on,0,0,2,,,,,,,,,1,,,74,100
65520,note_on,0,0,2,,,,,,,,,1,,,71,100
65520,note_on,0,0,3,,,,,,,,,2,,,61,0
65520,note_on,60,0,3,,,,,,,,,2,,,57,0
65520,note_on,0,0,1,,,,,,,,,0,,,83,100
65520,note_on,0,0,1,,,,,,,,,0,,,86,100
65520,note_on,20,0,7,,,,,,,,,6,,,76,100
65520,note_on,0,0,1,,,,,,,,,0,,,81,0
65520,note_on,0,0,3,,,,,,,,,2,,,62,100
65520,note_on,20,0,8,,,,,,,,,7,,,76,100
65520,note_on,0,0,3,,,,,,,,,2,,,59,100
65560,note_on,40,0,8,,,,,,,,,7,,,76,0
65560,note_on,40,0,7,,,,,,,,,6,,,76,0
65580,note_on,60,0,1,,,,,,,,,0,,,83,0
65580,note_on,0,0,1,,,,,,,,,0,,,86,0
65580,note_on,0,0,1,,,,,,,,,0,,,85,100
65580,note_on,0,0,1,,,,,,,,,0,,,81,100
65580,note_on,0,0,3,,,,,,,,,2,,,57,100
65580,note_on,0,0,3,,,,,,,,,2,,,61,100
65580,note_on,60,0,2,,,,,,,,,1,,,71,0
65580,note_on,0,0,2,,,,,,,,,1,,,74,0
65580,note_on,0,0,2,,,,,,,,,1,,,69,100
65580,note_on,0,0,2,,,,,,,,,1,,,73,100
65580,note_on,20,0,7,,,,,,,,,6,,,76,100
65580,note_on,20,0,8,,,,,,,,,7,,,76,100
65580,note_on,0,0,3,,,,,,,,,2,,,62,0
65580,note_on,60,0,3,,,,,,,,,2,,,59,0
65620,note_on,40,0,8,,,,,,,,,7,,,76,0
65620,note_on,40,0,7,,,,,,,,,6,,,76,0
65640,note_on,0,0,3,,,,,,,,,2,,,62,100
65640,note_on,0,0,3,,,,,,,,,2,,,59,100
65640,note_on,0,0,2,,,,,,,,,1,,,69,0
65640,note_on,0,0,2,,,,,,,,,1,,,74,100
65640,note_on,60,0,2,,,,,,,,,1,,,73,0
65640,note_on,0,0,2,,,,,,,,,1,,,71,100
65640,note_on,0,0,1,,,,,,,,,0,,,81,0
65640,note_on,0,0,3,,,,,,,,,2,,,57,0
65640,note_on,60,0,1,,,,,,,,,0,,,85,0
65640,note_on,20,0,7,,,,,,,,,6,,,76,100
65640,note_on,240,0,10,,,,,,,,,10,,,52,100
65640,note_on,20,0,8,,,,,,,,,7,,,76,100
65640,note_on,240,0,5,,,,,,,,,4,,,76,100
65640,note_on,240,0,11,,,,,,,,,11,,,40,100
65640,note_on,240,0,4,,,,,,,,,3,,,64,100
65640,note_on,60,0,3,,,,,,,,,2,,,61,0
65640,note_on,0,0,1,,,,,,,,,0,,,83,100
65640,note_on,0,0,1,,,,,,,,,0,,,86,100
65640,note_on,240,0,9,,,,,,,,,8,,,64,100
65680,note_on,40,0,8,,,,,,,,,7,,,76,0
65680,note_on,40,0,7,,,,,,,,,6,,,76,0
65700,note_on,0,0,1,,,,,,,,,0,,,83,100
65700,note_on,0,0,1,,,,,,,,,0,,,80,100
65700,note_on,0,0,1,,,,,,,,,0,,,86,0
65700,note_on,20,0,8,,,,,,,,,7,,,76,100
65700,note_on,60,0,1,,,,,,,,,0,,,83,0
65700,note_on,0,0,2,,,,,,,,,1,,,71,100
65700,note_on,0,0,2,,,,,,,,,1,,,68,100
65700,note_on,0,0,2,,,,,,,,,1,,,74,0
65700,note_on,60,0,2,,,,,,,,,1,,,71,0
65700,note_on,60,0,3,,,,,,,,,2,,,59,0
65700,note_on,0,0,3,,,,,,,,,2,,,62,0
65700,note_on,0,0,3,,,,,,,,,2,,,56,100
65700,note_on,0,0,3,,,,,,,,,2,,,59,100
65700,note_on,20,0,7,,,,,,,,,6,,,76,100
65740,note_on,40,0,8,,,,,,,,,7,,,76,0
65740,note_on,40,0,7,,,,,,,,,6,,,76,0
65760,note_on,0,0,2,,,,,,,,,1,,,68,0
65760,note_on,0,0,1,,,,,,,,,0,,,85,100
65760,note_on,0,0,1,,,,,,,,,0,,,81,100
65760,note_on,0,0,2,,,,,,,,,1,,,73,100
65760,note_on,0,0,5,,,,,,,,,4,,,69,100
65760,note_on,0,0,4,,,,,,,,,3,,,57,100
65760,note_on,120,0,5,,,,,,,,,4,,,76,0
65760,note_on,0,0,1,,,,,,,,,0,,,80,0
65760,note_on,0,0,4,,,,,,,,,3,,,64,100
65760,note_on,120,0,4,,,,,,,,,3,,,64,0
65760,note_on,0,0,3,,,,,,,,,2,,,57,100
65760,note_on,0,0,2,,,,,,,,,1,,,69,100
65760,note_on,0,0,5,,,,,,,,,4,,,76,100
65760,note_on,60,0,1,,,,,,,,,0,,,83,0
65760,note_on,120,0,10,,,,,,,,,10,,,52,0
65760,note_on,60,0,3,,,,,,,,,2,,,59,0
65760,note_on,0,0,11,,,,,,,,,11,,,45,100
65760,note_on,0,0,10,,,,,,,,,10,,,57,100
65760,note_on,20,0,7,,,,,,,,,6,,,76,100
65760,note_on,0,0,9,,,,,,,,,8,,,69,100
65760,note_on,120,0,9,,,,,,,,,8,,,64,0
65760,note_on,0,0,3,,,,,,,,,2,,,61,100
65760,note_on,0,0,3,,,,,,,,,2,,,56,0
65760,note_on,20,0,8,,,,,,,,,7,,,76,100
65760,note_on,120,0,11,,,,,,,,,11,,,40,0
65760,note_on,60,0,2,,,,,,,,,1,,,71,0
65760,note_on,360,0,6,,,,,,,,,5,,,45,100
65820,note_on,60,0,8,,,,,,,,,7,,,76,0
65820,note_on,0,0,7,,,,,,,,,6,,,81,100
65820,note_on,60,0,7,,,,,,,,,6,,,76,0
65820,note_on,0,0,8,,,,,,,,,7,,,81,100
65850,note_on,30,0,8,,,,,,,,,7,,,81,0
65850,note_on,0,0,8,,,,,,,,,7,,,85,100
65850,note_on,30,0,7,,,,,,,,,6,,,81,0
65850,note_on,0,0,7,,,,,,,,,6,,,85,100
65880,note_on,0,0,2,,,,,,,,,1,,,69,0
65880,note_on,0,0,5,,,,,,,,,4,,,76,0
65880,note_on,120,0,5,,,,,,,,,4,,,69,0
65880,note_on,120,0,1,,,,,,,,,0,,,81,0
65880,note_on,120,0,10,,,,,,,,,10,,,57,0
65880,note_on,0,0,4,,,,,,,,,3,,,64,0
65880,note_on,120,0,4,,,,,,,,,3,,,57,0
65880,note_on,0,0,3,,,,,,,,,2,,,61,0
65880,note_on,120,0,9,,,,,,,,,8,,,69,0
65880,note_on,30,0,7,,,,,,,,,6,,,85,0
65880,note_on,120,0,3,,,,,,,,,2,,,57,0
65880,note_on,30,0,8,,,,,,,,,7,,,85,0
65880,note_on,0,0,8,,,,,,,,,7,,,88,100
65880,note_on,0,0,7,,,,,,,,,6,,,88,100
65880,note_on,120,0,11,,,,,,,,,11,,,45,0
65880,note_on,120,0,6,,,,,,,,,5,,,45,0
65880,note_on,0,0,1,,,,,,,,,0,,,85,0
65880,note_on,120,0,2,,,,,,,,,1,,,73,0
65920,note_on,40,0,7,,,,,,,,,6,,,88,0
65920,note_on,40,0,8,,,,,,,,,7,,,88,0
65940,note_on,60,0,2,,,,,,,,,1,,,69,100
65940,note_on,0,0,2,,,,,,,,,1,,,73,100
65940,note_on,20,0,7,,,,,,,,,6,,,88,100
65940,note_on,20,0,8,,,,,,,,,7,,,88,100
65940,note_on,0,0,1,,,,,,,,,0,,,85,100
65940,note_on,0,0,3,,,,,,,,,2,,,57,100
65940,note_on,60,0,1,,,,,,,,,0,,,81,100
65940,note_on,60,0,3,,,,,,,,,2,,,61,100
65980,note_on,40,0,7,,,,,,,,,6,,,88,0
65980,note_on,40,0,8,,,,,,,,,7,,,88,0
66000,note_on,20,0,7,,,,,,,,,6,,,88,100
66000,note_on,0,0,3,,,,,,,,,2,,,59,100
66000,note_on,0,0,3,,,,,,,,,2,,,62,100
66000,note_on,0,0,1,,,,,,,,,0,,,83,100
66000,note_on,0,0,1,,,,,,,,,0,,,86,100
66000,note_on,0,0,1,,,,,,,,,0,,,81,0
66000,note_on,60,0,3,,,,,,,,,2,,,57,0
66000,note_on,0,0,3,,,,,,,,,2,,,61,0
66000,note_on,60,0,1,,,,,,,,,0,,,85,0
66000,note_on,0,0,2,,,,,,,,,1,,,71,100
66000,note_on,0,0,2,,,,,,,,,1,,,74,100
66000,note_on,0,0,2,,,,,,,,,1,,,69,0
66000,note_on,20,0,8,,,,,,,,,7,,,88,100
66000,note_on,60,0,2,,,,,,,,,1,,,73,0
66040,note_on,40,0,8,,,,,,,,,7,,,88,0
66040,note_on,40,0,7,,,,,,,,,6,,,88,0
66060,note_on,0,0,3,,,,,,,,,2,,,57,100
66060,note_on,20,0,8,,,,,,,,,7,,,88,100
66060,note_on,0,0,3,,,,,,,,,2,,,62,0
66060,note_on,0,0,2,,,,,,,,,1,,,74,0
66060,note_on,0,0,1,,,,,,,,,0,,,85,100
66060,note_on,0,0,3,,,,,,,,,2,,,61,100
66060,note_on,0,0,1,,,,,,,,,0,,,81,100
66060,note_on,60,0,3,,,,,,,,,2,,,59,0
66060,note_on,0,0,1,,,,,,,,,0,,,86,0
66060,note_on,0,0,2,,,,,,,,,1,,,73,100
66060,note_on,0,0,2,,,,,,,,,1,,,69,100
66060,note_on,60,0,1,,,,,,,,,0,,,83,0
66060,note_on,20,0,7,,,,,,,,,6,,,88,100
66060,note_on,60,0,2,,,,,,,,,1,,,71,0
66100,note_on,40,0,7,,,,,,,,,6,,,88,0
66100,note_on,40,0,8,,,,,,,,,7,,,88,0
66120,note_on,0,0,3,,,,,,,,,2,,,62,100
66120,note_on,60,0,3,,,,,,,,,2,,,61,0
66120,note_on,240,0,9,,,,,,,,,8,,,64,100
66120,note_on,0,0,3,,,,,,,,,2,,,59,100
66120,note_on,240,0,11,,,,,,,,,11,,,40,100
66120,note_on,0,0,3,,,,,,,,,2,,,57,0
66120,note_on,0,0,1,,,,,,,,,0,,,81,0
66120,note_on,20,0,7,,,,,,,,,6,,,88,100
66120,note_on,60,0,1,,,,,,,,,0,,,85,0
66120,note_on,20,0,8,,,,,,,,,7,,,88,100
66120,note_on,0,0,2,,,,,,,,,1,,,71,100
66120,note_on,0,0,2,,,,,,,,,1,,,74,100
66120,note_on,0,0,2,,,,,,,,,1,,,69,0
66120,note_on,60,0,2,,,,,,,,,1,,,73,0
66120,note_on,240,0,5,,,,,,,,,4,,,76,100
66120,note_on,240,0,4,,,,,,,,,3,,,64,100
66120,note_on,0,0,1,,,,,,,,,0,,,83,100
66120,note_on,0,0,1,,,,,,,,,0,,,86,100
66120,note_on,240,0,10,,,,,,,,,10,,,52,100
66160,note_on,40,0,8,,,,,,,,,7,,,88,0
66160,note_on,40,0,7,,,,,,,,,6,,,88,0
66180,note_on,20,0,8,,,,,,,,,7,,,88,100
66180,note_on,60,0,2,,,,,,,,,1,,,71,0
66180,note_on,0,0,1,,,,,,,,,0,,,83,100
66180,note_on,0,0,3,,,,,,,,,2,,,59,100
66180,note_on,0,0,3,,,,,,,,,2,,,56,100
66180,note_on,0,0,3,,,,,,,,,2,,,62,0
66180,note_on,60,0,3,,,,,,,,,2,,,59,0
66180,note_on,0,0,1,,,,,,,,,0,,,80,100
66180,note_on,60,0,1,,,,,,,,,0,,,83,0
66180,note_on,0,0,2,,,,,,,,,1,,,71,100
66180,note_on,0,0,2,,,,,,,,,1,,,68,100
66180,note_on,0,0,2,,,,,,,,,1,,,74,0
66180,note_on,20,0,7,,,,,,,,,6,,,88,100
66180,note_on,0,0,1,,,,,,,,,0,,,86,0
66220,note_on,40,0,8,,,,,,,,,7,,,88,0
66220,note_on,40,0,7,,,,,,,,,6,,,88,0
66240,note_on,120,0,11,,,,,,,,,11,,,40,0
66240,note_on,0,0,4,,,,,,,,,3,,,57,100
66240,note_on,120,0,4,,,,,,,,,3,,,64,0
66240,note_on,60,0,2,,,,,,,,,1,,,71,0
66240,note_on,0,0,2,,,,,,,,,1,,,68,0
66240,note_on,0,0,2,,,,,,,,,1,,,69,100
66240,note_on,0,0,2,,,,,,,,,1,,,73,100
66240,note_on,0,0,9,,,,,,,,,8,,,57,100
66240,note_on,0,0,1,,,,,,,,,0,,,85,100
66240,note_on,120,0,9,,,,,,,,,8,,,64,0
66240,note_on,0,0,1,,,,,,,,,0,,,80,0
66240,note_on,60,0,1,,,,,,,,,0,,,83,0
66240,note_on,0,0,4,,,,,,,,,3,,,64,100
66240,note_on,0,0,11,,,,,,,,,11,,,33,100
66240,note_on,0,0,1,,,,,,,,,0,,,81,100
66240,note_on,360,0,6,,,,,,,,,5,,,45,100
66240,note_on,0,0,5,,,,,,,,,4,,,76,100
66240,note_on,20,0,8,,,,,,,,,7,,,85,100
66240,note_on,0,0,10,,,,,,,,,10,,,45,100
66240,note_on,0,0,3,,,,,,,,,2,,,56,0
66240,note_on,60,0,3,,,,,,,,,2,,,59,0
66240,note_on,120,0,5,,,,,,,,,4,,,76,0
66240,note_on,0,0,5,,,,,,,,,4,,,69,100
66240,note_on,0,0,3,,,,,,,,,2,,,57,100
66240,note_on,20,0,7,,,,,,,,,6,,,85,100
66240,note_on,0,0,3,,,,,,,,,2,,,61,100
66240,note_on,120,0,10,,,,,,,,,10,,,52,0
66300,note_on,0,0,7,,,,,,,,,6,,,81,101
66300,note_on,60,0,7,,,,,,,,,6,,,85,0
66300,note_on,60,0,8,,,,,,,,,7,,,85,0
66300,note_on,0,0,8,,,,,,,,,7,,,81,101
66330,note_on,30,0,7,,,,,,,,,6,,,81,0
66330,note_on,30,0,8,,,,,,,,,7,,,81,0
66360,note_on,120,0,9,,,,,,,,,8,,,57,0
66360,note_on,30,0,7,,,,,,,,,6,,,88,102
66360,note_on,30,0,8,,,,,,,,,7,,,88,102
66360,note_on,0,0,2,,,,,,,,,1,,,69,0
66360,note_on,120,0,10,,,,,,,,,10,,,45,0
66360,note_on,0,0,4,,,,,,,,,3,,,57,0
66360,note_on,120,0,4,,,,,,,,,3,,,64,0
66360,note_on,120,0,11,,,,,,,,,11,,,33,0
66360,note_on,0,0,3,,,,,,,,,2,,,61,0
66360,note_on,120,0,3,,,,,,,,,2,,,57,0
66360,note_on,0,0,5,,,,,,,,,4,,,69,0
66360,note_on,120,0,5,,,,,,,,,4,,,76,0
66360,note_on,120,0,1,,,,,,,,,0,,,85,0
66360,note_on,120,0,2,,,,,,,,,1,,,73,0
66360,note_on,0,0,1,,,,,,,,,0,,,81,0
66360,note_on,120,0,6,,,,,,,,,5,,,45,0
66390,note_on,30,0,8,,,,,,,,,7,,,88,0
66390,note_on,30,0,7,,,,,,,,,6,,,88,0
66420,note_on,30,0,8,,,,,,,,,7,,,88,103
66420,note_on,30,0,7,,,,,,,,,6,,,88,103
66450,note_on,30,0,7,,,,,,,,,6,,,88,0
66450,note_on,30,0,8,,,,,,,,,7,,,88,0
66480,note_on,30,0,8,,,,,,,,,7,,,85,104
66480,note_on,30,0,7,,,,,,,,,6,,,85,104
66540,note_on,0,0,8,,,,,,,,,7,,,81,105
66540,note_on,60,0,8,,,,,,,,,7,,,85,0
66540,note_on,60,0,7,,,,,,,,,6,,,85,0
66540,note_on,0,0,7,,,,,,,,,6,,,81,105
66570,note_on,30,0,8,,,,,,,,,7,,,81,0
66570,note_on,30,0,7,,,,,,,,,6,,,81,0
66600,note_on,240,0,4,,,,,,,,,3,,,64,106
66600,note_on,30,0,7,,,,,,,,,6,,,76,106
66600,note_on,30,0,8,,,,,,,,,7,,,76,106
66600,note_on,240,0,2,,,,,,,,,1,,,76,106
66600,note_on,240,0,10,,,,,,,,,10,,,64,106
66600,note_on,240,0,5,,,,,,,,,4,,,76,106
66600,note_on,240,0,9,,,,,,,,,8,,,76,106
66600,note_on,240,0,3,,,,,,,,,2,,,64,106
66600,note_on,240,0,1,,,,,,,,,0,,,88,106
66600,note_on,240,0,11,,,,,,,,,11,,,52,106
66630,note_on,30,0,2,,,,,,,,,1,,,76,0
66630,note_on,30,0,8,,,,,,,,,7,,,76,0
66630,note_on,30,0,11,,,,,,,,,11,,,52,0
66630,note_on,30,0,1,,,,,,,,,0,,,88,0
66630,note_on,30,0,3,,,,,,,,,2,,,64,0
66630,note_on,30,0,9,,,,,,,,,8,,,76,0
66630,note_on,30,0,10,,,,,,,,,10,,,64,0
66630,note_on,30,0,7,,,,,,,,,6,,,76,0
66660,note_on,30,0,10,,,,,,,,,10,,,64,107
66660,note_on,30,0,3,,,,,,,,,2,,,64,107
66660,note_on,30,0,9,,,,,,,,,8,,,76,107
66660,note_on,30,0,7,,,,,,,,,6,,,76,107
66660,note_on,30,0,2,,,,,,,,,1,,,76,107
66660,note_on,30,0,8,,,,,,,,,7,,,76,107
66660,note_on,30,0,1,,,,,,,,,0,,,88,107
66660,note_on,30,0,11,,,,,,,,,11,,,52,107
66690,note_on,30,0,9,,,,,,,,,8,,,76,0
66690,note_on,30,0,3,,,,,,,,,2,,,64,0
66690,note_on,30,0,2,,,,,,,,,1,,,76,0
66690,note_on,30,0,10,,,,,,,,,10,,,64,0
66690,note_on,30,0,8,,,,,,,,,7,,,76,0
66690,note_on,30,0,7,,,,,,,,,6,,,76,0
66690,note_on,30,0,11,,,,,,,,,11,,,52,0
66690,note_on,30,0,1,,,,,,,,,0,,,88,0
66720,note_on,0,0,5,,,,,,,,,4,,,81,109
66720,note_on,30,0,10,,,,,,,,,10,,,61,109
66720,note_on,30,0,8,,,,,,,,,7,,,73,109
66720,note_on,0,0,4,,,,,,,,,3,,,57,109
66720,note_on,0,0,4,,,,,,,,,3,,,69,109
66720,note_on,120,0,4,,,,,,,,,3,,,64,0
66720,note_on,30,0,2,,,,,,,,,1,,,73,109
66720,note_on,0,0,5,,,,,,,,,4,,,69,109
66720,note_on,30,0,3,,,,,,,,,2,,,61,109
66720,note_on,30,0,7,,,,,,,,,6,,,73,109
66720,note_on,30,0,1,,,,,,,,,0,,,85,109
66720,note_on,30,0,9,,,,,,,,,8,,,73,109
66720,note_on,30,0,11,,,,,,,,,11,,,49,109
66720,note_on,360,0,6,,,,,,,,,5,,,45,109
66720,note_on,120,0,5,,,,,,,,,4,,,76,0
66780,note_on,0,0,11,,,,,,,,,11,,,45,110
66780,note_on,0,0,10,,,,,,,,,10,,,57,110
66780,note_on,60,0,11,,,,,,,,,11,,,49,0
66780,note_on,60,0,1,,,,,,,,,0,,,85,0
66780,note_on,0,0,9,,,,,,,,,8,,,69,110
66780,note_on,60,0,2,,,,,,,,,1,,,73,0
66780,note_on,60,0,10,,,,,,,,,10,,,61,0
66780,note_on,60,0,9,,,,,,,,,8,,,73,0
66780,note_on,0,0,1,,,,,,,,,0,,,81,110
66780,note_on,60,0,8,,,,,,,,,7,,,73,0
66780,note_on,0,0,8,,,,,,,,,7,,,69,110
66780,note_on,0,0,7,,,,,,,,,6,,,69,110
66780,note_on,60,0,7,,,,,,,,,6,,,73,0
66780,note_on,0,0,2,,,,,,,,,1,,,69,110
66780,note_on,60,0,3,,,,,,,,,2,,,61,0
66780,note_on,0,0,3,,,,,,,,,2,,,57,110
66810,note_on,30,0,1,,,,,,,,,0,,,81,0
66810,note_on,30,0,2,,,,,,,,,1,,,69,0
66810,note_on,30,0,11,,,,,,,,,11,,,45,0
66810,note_on,30,0,7,,,,,,,,,6,,,69,0
66810,note_on,30,0,10,,,,,,,,,10,,,57,0
66810,note_on,30,0,9,,,,,,,,,8,,,69,0
66810,note_on,30,0,8,,,,,,,,,7,,,69,0
66810,note_on,30,0,3,,,,,,,,,2,,,57,0
66840,note_on,120,0,6,,,,,,,,,5,,,45,0
66840,note_on,120,0,4,,,,,,,,,3,,,69,0
66840,note_on,30,0,8,,,,,,,,,7,,,76,111
66840,note_on,0,0,5,,,,,,,,,4,,,69,0
66840,note_on,120,0,5,,,,,,,,,4,,,81,0
66840,note_on,0,0,4,,,,,,,,,3,,,57,0
66840,note_on,30,0,7,,,,,,,,,6,,,76,111
66870,note_on,30,0,8,,,,,,,,,7,,,76,0
66870,note_on,30,0,7,,,,,,,,,6,,,76,0
66900,note_on,30,0,8,,,,,,,,,7,,,76,112
66900,note_on,30,0,7,,,,,,,,,6,,,76,112
66930,note_on,30,0,8,,,,,,,,,7,,,76,0
66930,note_on,30,0,7,,,,,,,,,6,,,76,0
66960,note_on,30,0,8,,,,,,,,,7,,,73,113
66960,note_on,30,0,7,,,,,,,,,6,,,73,113
66982,set_tempo,7462,1,0,,,,,,350795,,,,,,,
67013,set_tempo,31,1,0,,,,,,352734,,,,,,,
67020,note_on,0,0,7,,,,,,,,,6,,,69,114
67020,note_on,60,0,8,,,,,,,,,7,,,73,0
67020,note_on,0,0,8,,,,,,,,,7,,,69,114
67020,note_on,60,0,7,,,,,,,,,6,,,73,0
67045,set_tempo,32,1,0,,,,,,354694,,,,,,,
67050,note_on,30,0,7,,,,,,,,,6,,,69,0
67050,note_on,30,0,8,,,,,,,,,7,,,69,0
67073,set_tempo,28,1,0,,,,,,356676,,,,,,,
67080,note_on,270,0,11,,,,,,,,,11,,,40,115
67080,note_on,270,0,2,,,,,,,,,1,,,76,115
67080,note_on,270,0,10,,,,,,,,,10,,,52,115
67080,note_on,270,0,9,,,,,,,,,8,,,64,115
67080,note_on,240,0,5,,,,,,,,,4,,,76,115
67080,note_on,240,0,4,,,,,,,,,3,,,64,115
67080,note_on,30,0,8,,,,,,,,,7,,,64,115
67080,note_on,270,0,3,,,,,,,,,2,,,52,115
67080,note_on,270,0,1,,,,,,,,,0,,,88,115
67080,note_on,30,0,7,,,,,,,,,6,,,64,115
67105,set_tempo,32,1,0,,,,,,358680,,,,,,,
67110,note_on,30,0,9,,,,,,,,,8,,,64,0
67110,note_on,30,0,10,,,,,,,,,10,,,52,0
67110,note_on,30,0,1,,,,,,,,,0,,,88,0
67110,note_on,30,0,3,,,,,,,,,2,,,52,0
67110,note_on,30,0,8,,,,,,,,,7,,,64,0
67110,note_on,30,0,2,,,,,,,,,1,,,76,0
67110,note_on,30,0,11,,,,,,,,,11,,,40,0
67110,note_on,30,0,7,,,,,,,,,6,,,64,0
67133,set_tempo,28,1,0,,,,,,360707,,,,,,,
67140,note_on,30,0,3,,,,,,,,,2,,,52,116
67140,note_on,30,0,11,,,,,,,,,11,,,40,116
67140,note_on,30,0,2,,,,,,,,,1,,,76,116
67140,note_on,30,0,1,,,,,,,,,0,,,88,116
67140,note_on,30,0,10,,,,,,,,,10,,,52,116
67140,note_on,30,0,9,,,,,,,,,8,,,64,116
67140,note_on,30,0,7,,,,,,,,,6,,,64,116
67140,note_on,30,0,8,,,,,,,,,7,,,64,116
67165,set_tempo,32,1,0,,,,,,362757,,,,,,,
67170,note_on,30,0,9,,,,,,,,,8,,,64,0
67170,note_on,30,0,10,,,,,,,,,10,,,52,0
67170,note_on,30,0,11,,,,,,,,,11,,,40,0
67170,note_on,30,0,7,,,,,,,,,6,,,64,0
67170,note_on,30,0,1,,,,,,,,,0,,,88,0
67170,note_on,30,0,8,,,,,,,,,7,,,64,0
67170,note_on,30,0,3,,,,,,,,,2,,,52,0
67170,note_on,30,0,2,,,,,,,,,1,,,76,0
67196,set_tempo,31,1,0,,,,,,364830,,,,,,,
67200,note_on,30,0,3,,,,,,,,,2,,,49,118
67200,note_on,360,0,6,,,,,,,,,5,,,45,118
67200,note_on,30,0,9,,,,,,,,,8,,,61,118
67200,note_on,0,0,5,,,,,,,,,4,,,69,118
67200,note_on,120,0,5,,,,,,,,,4,,,76,0
67200,note_on,30,0,8,,,,,,,,,7,,,61,118
67200,note_on,30,0,10,,,,,,,,,10,,,49,118
67200,note_on,120,0,4,,,,,,,,,3,,,64,0
67200,note_on,30,0,2,,,,,,,,,1,,,73,118
67200,note_on,30,0,1,,,,,,,,,0,,,85,118
67200,note_on,30,0,11,,,,,,,,,11,,,37,118
67200,note_on,0,0,4,,,,,,,,,3,,,69,118
67200,note_on,0,0,4,,,,,,,,,3,,,57,118
67200,note_on,0,0,5,,,,,,,,,4,,,81,118
67200,note_on,30,0,7,,,,,,,,,6,,,61,118
67225,set_tempo,29,1,0,,,,,,366928,,,,,,,
67256,set_tempo,31,1,0,,,,,,369049,,,,,,,
67260,note_on,0,0,10,,,,,,,,,10,,,45,119
67260,note_on,60,0,8,,,,,,,,,7,,,61,0
67260,note_on,0,0,8,,,,,,,,,7,,,57,119
67260,note_on,60,0,3,,,,,,,,,2,,,49,0
67260,note_on,60,0,10,,,,,,,,,10,,,49,0
67260,note_on,0,0,9,,,,,,,,,8,,,57,119
67260,note_on,60,0,9,,,,,,,,,8,,,61,0
67260,note_on,0,0,3,,,,,,,,,2,,,45,119
67260,note_on,0,0,7,,,,,,,,,6,,,57,119
67260,note_on,60,0,1,,,,,,,,,0,,,85,0
67260,note_on,0,0,1,,,,,,,,,0,,,81,119
67260,note_on,0,0,2,,,,,,,,,1,,,69,119
67260,note_on,60,0,7,,,,,,,,,6,,,61,0
67260,note_on,0,0,11,,,,,,,,,11,,,33,119
67260,note_on,60,0,11,,,,,,,,,11,,,37,0
67260,note_on,60,0,2,,,,,,,,,1,,,73,0
67285,set_tempo,29,1,0,,,,,,371195,,,,,,,
67290,note_on,30,0,7,,,,,,,,,6,,,57,0
67290,note_on,30,0,2,,,,,,,,,1,,,69,0
67290,note_on,30,0,8,,,,,,,,,7,,,57,0
67290,note_on,30,0,11,,,,,,,,,11,,,33,0
67290,note_on,30,0,1,,,,,,,,,0,,,81,0
67290,note_on,30,0,10,,,,,,,,,10,,,45,0
67290,note_on,30,0,9,,,,,,,,,8,,,57,0
67290,note_on,30,0,3,,,,,,,,,2,,,45,0
67316,set_tempo,31,1,0,,,,,,373367,,,,,,,
67320,note_on,30,0,7,,,,,,,,,6,,,64,120
67320,note_on,120,0,5,,,,,,,,,4,,,81,0
67320,note_on,30,0,8,,,,,,,,,7,,,64,120
67320,note_on,0,0,4,,,,,,,,,3,,,64,120
67320,note_on,0,0,4,,,,,,,,,3,,,57,0
67320,note_on,120,0,4,,,,,,,,,3,,,69,0
67320,note_on,30,0,10,,,,,,,,,10,,,52,120
67320,note_on,0,0,5,,,,,,,,,4,,,69,0
67320,note_on,0,0,5,,,,,,,,,4,,,76,120
67320,note_on,30,0,9,,,,,,,,,8,,,64,120
67320,note_on,30,0,1,,,,,,,,,0,,,88,120
67320,note_on,30,0,11,,,,,,,,,11,,,40,120
67320,note_on,30,0,2,,,,,,,,,1,,,76,120
67320,note_on,30,0,3,,,,,,,,,2,,,52,120
67320,note_on,120,0,6,,,,,,,,,5,,,45,0
67348,set_tempo,32,1,0,,,,,,375563,,,,,,,
67350,note_on,30,0,9,,,,,,,,,8,,,64,0
67350,note_on,30,0,10,,,,,,,,,10,,,52,0
67350,note_on,30,0,2,,,,,,,,,1,,,76,0
67350,note_on,30,0,11,,,,,,,,,11,,,40,0
67350,note_on,30,0,7,,,,,,,,,6,,,64,0
67350,note_on,30,0,8,,,,,,,,,7,,,64,0
67350,note_on,30,0,3,,,,,,,,,2,,,52,0
67350,note_on,30,0,1,,,,,,,,,0,,,88,0
67376,set_tempo,28,1,0,,,,,,377786,,,,,,,
67380,note_on,30,0,3,,,,,,,,,2,,,52,121
67380,note_on,30,0,10,,,,,,,,,10,,,52,121
67380,note_on,30,0,11,,,,,,,,,11,,,40,121
67380,note_on,30,0,7,,,,,,,,,6,,,64,121
67380,note_on,30,0,8,,,,,,,,,7,,,64,121
67380,note_on,30,0,9,,,,,,,,,8,,,64,121
67380,note_on,30,0,1,,,,,,,,,0,,,88,121
67380,note_on,30,0,2,,,,,,,,,1,,,76,121
67408,set_tempo,32,1,0,,,,,,380035,,,,,,,
67410,note_on,30,0,8,,,,,,,,,7,,,64,0
67410,note_on,30,0,9,,,,,,,,,8,,,64,0
67410,note_on,30,0,1,,,,,,,,,0,,,88,0
67410,note_on,30,0,10,,,,,,,,,10,,,52,0
67410,note_on,30,0,7,,,,,,,,,6,,,64,0
67410,note_on,30,0,3,,,,,,,,,2,,,52,0
67410,note_on,30,0,11,,,,,,,,,11,,,40,0
67410,note_on,30,0,2,,,,,,,,,1,,,76,0
67436,set_tempo,28,1,0,,,,,,382312,,,,,,,
67440,note_on,120,0,4,,,,,,,,,3,,,64,0
67440,note_on,30,0,10,,,,,,,,,10,,,49,122
67440,note_on,30,0,11,,,,,,,,,11,,,37,122
67440,note_on,30,0,2,,,,,,,,,1,,,73,122
67440,note_on,30,0,1,,,,,,,,,0,,,85,122
67440,note_on,120,0,6,,,,,,,,,5,,,45,122
67440,note_on,30,0,9,,,,,,,,,8,,,61,122
67440,note_on,0,0,4,,,,,,,,,3,,,57,122
67440,note_on,0,0,4,,,,,,,,,3,,,69,122
67440,note_on,30,0,3,,,,,,,,,2,,,49,122
67440,note_on,0,0,5,,,,,,,,,4,,,81,122
67440,note_on,30,0,8,,,,,,,,,7,,,61,122
67440,note_on,30,0,7,,,,,,,,,6,,,61,122
67440,note_on,120,0,5,,,,,,,,,4,,,76,0
67440,note_on,0,0,5,,,,,,,,,4,,,69,122
67468,set_tempo,32,1,0,,,,,,384615,,,,,,,
67500,note_on,60,0,11,,,,,,,,,11,,,37,0
67500,note_on,60,0,1,,,,,,,,,0,,,85,0
67500,note_on,0,0,3,,,,,,,,,2,,,45,123
67500,note_on,60,0,3,,,,,,,,,2,,,49,0
67500,note_on,0,0,8,,,,,,,,,7,,,57,123
67500,note_on,0,0,1,,,,,,,,,0,,,81,123
67500,note_on,0,0,9,,,,,,,,,8,,,57,123
67500,note_on,60,0,9,,,,,,,,,8,,,61,0
67500,note_on,0,0,10,,,,,,,,,10,,,45,123
67500,note_on,0,0,11,,,,,,,,,11,,,33,123
67500,note_on,60,0,10,,,,,,,,,10,,,49,0
67500,note_on,60,0,7,,,,,,,,,6,,,61,0
67500,note_on,60,0,8,,,,,,,,,7,,,61,0
67500,note_on,0,0,2,,,,,,,,,1,,,69,123
67500,note_on,60,0,2,,,,,,,,,1,,,73,0
67500,note_on,0,0,7,,,,,,,,,6,,,57,123
67500,set_tempo,32,1,0,,,,,,386947,,,,,,,
67528,set_tempo,28,1,0,,,,,,389307,,,,,,,
67530,note_on,30,0,7,,,,,,,,,6,,,57,0
67530,note_on,30,0,3,,,,,,,,,2,,,45,0
67530,note_on,30,0,9,,,,,,,,,8,,,57,0
67530,note_on,30,0,11,,,,,,,,,11,,,33,0
67530,note_on,30,0,10,,,,,,,,,10,,,45,0
67530,note_on,30,0,2,,,,,,,,,1,,,69,0
67530,note_on,30,0,8,,,,,,,,,7,,,57,0
67530,note_on,30,0,1,,,,,,,,,0,,,81,0
67560,note_on,30,0,3,,,,,,,,,2,,,52,124
67560,note_on,120,0,6,,,,,,,,,5,,,45,0
67560,note_on,30,0,9,,,,,,,,,8,,,64,124
67560,note_on,30,0,10,,,,,,,,,10,,,52,124
67560,note_on,30,0,7,,,,,,,,,6,,,64,124
67560,note_on,30,0,1,,,,,,,,,0,,,88,124
67560,note_on,30,0,2,,,,,,,,,1,,,76,124
67560,note_on,30,0,8,,,,,,,,,7,,,64,124
67560,note_on,0,0,4,,,,,,,,,3,,,64,124
67560,note_on,0,0,4,,,,,,,,,3,,,57,0
67560,note_on,0,0,5,,,,,,,,,4,,,76,124
67560,note_on,0,0,5,,,,,,,,,4,,,69,0
67560,set_tempo,32,1,0,,,,,,391696,,,,,,,
67560,note_on,120,0,4,,,,,,,,,3,,,69,0
67560,note_on,30,0,11,,,,,,,,,11,,,40,124
67560,note_on,120,0,5,,,,,,,,,4,,,81,0
67588,set_tempo,28,1,0,,,,,,394115,,,,,,,
67590,note_on,30,0,7,,,,,,,,,6,,,64,0
67590,note_on,30,0,9,,,,,,,,,8,,,64,0
67590,note_on,30,0,10,,,,,,,,,10,,,52,0
67590,note_on,30,0,11,,,,,,,,,11,,,40,0
67590,note_on,30,0,8,,,,,,,,,7,,,64,0
67590,note_on,30,0,3,,,,,,,,,2,,,52,0
67590,note_on,30,0,1,,,,,,,,,0,,,88,0
67590,note_on,30,0,2,,,,,,,,,1,,,76,0
67620,note_on,30,0,8,,,,,,,,,7,,,64,125
67620,note_on,30,0,10,,,,,,,,,10,,,52,125
67620,note_on,30,0,2,,,,,,,,,1,,,76,125
67620,note_on,30,0,3,,,,,,,,,2,,,52,125
67620,note_on,30,0,7,,,,,,,,,6,,,64,125
67620,set_tempo,32,1,0,,,,,,396563,,,,,,,
67620,note_on,30,0,1,,,,,,,,,0,,,88,125
67620,note_on,30,0,9,,,,,,,,,8,,,64,125
67620,note_on,30,0,11,,,,,,,,,11,,,40,125
67650,note_on,30,0,8,,,,,,,,,7,,,64,0
67650,note_on,30,0,2,,,,,,,,,1,,,76,0
67650,note_on,30,0,7,,,,,,,,,6,,,64,0
67650,note_on,30,0,11,,,,,,,,,11,,,40,0
67650,note_on,30,0,9,,,,,,,,,8,,,64,0
67650,note_on,30,0,1,,,,,,,,,0,,,88,0
67650,note_on,30,0,10,,,,,,,,,10,,,52,0
67650,note_on,30,0,3,,,,,,,,,2,,,52,0
67651,set_tempo,31,1,0,,,,,,399042,,,,,,,
67680,note_on,30,0,1,,,,,,,,,0,,,85,127
67680,note_on,0,0,4,,,,,,,,,3,,,57,127
67680,note_on,0,0,4,,,,,,,,,3,,,69,127
67680,note_on,30,0,2,,,,,,,,,1,,,73,127
67680,note_on,30,0,7,,,,,,,,,6,,,69,127
67680,note_on,120,0,6,,,,,,,,,5,,,45,127
67680,note_on,30,0,9,,,,,,,,,8,,,57,127
67680,note_on,0,0,1,,,,,,,,,0,,,81,127
67680,note_on,120,0,4,,,,,,,,,3,,,64,0
67680,note_on,0,0,2,,,,,,,,,1,,,81,127
67680,note_on,30,0,10,,,,,,,,,10,,,45,127
67680,note_on,30,0,8,,,,,,,,,7,,,69,127
67680,note_on,30,0,3,,,,,,,,,2,,,45,127
67680,note_on,30,0,11,,,,,,,,,11,,,33,127
67680,note_on,120,0,5,,,,,,,,,4,,,76,0
67680,set_tempo,29,1,0,,,,,,401553,,,,,,,
67680,note_on,0,0,5,,,,,,,,,4,,,81,127
67680,note_on,0,0,5,,,,,,,,,4,,,69,127
67711,set_tempo,31,1,0,,,,,,404095,,,,,,,
67740,set_tempo,29,1,0,,,,,,406669,,,,,,,
67770,note_on,0,0,1,,,,,,,,,0,,,85,0
67770,note_on,90,0,10,,,,,,,,,10,,,45,0
67770,note_on,90,0,4,,,,,,,,,3,,,69,0
67770,note_on,0,0,2,,,,,,,,,1,,,73,0
67770,note_on,90,0,9,,,,,,,,,8,,,57,0
67770,note_on,0,0,4,,,,,,,,,3,,,57,0
67770,note_on,90,0,2,,,,,,,,,1,,,81,0
67770,note_on,90,0,1,,,,,,,,,0,,,81,0
67770,note_on,90,0,3,,,,,,,,,2,,,45,0
67770,note_on,90,0,5,,,,,,,,,4,,,81,0
67770,note_on,90,0,8,,,,,,,,,7,,,69,0
67770,note_on,90,0,11,,,,,,,,,11,,,33,0
67770,note_on,0,0,5,,,,,,,,,4,,,69,0
67770,note_on,90,0,7,,,,,,,,,6,,,69,0
67771,set_tempo,31,1,0,,,,,,409277,,,,,,,
67800,note_on,0,0,6,,,,,,,,,5,,,45,127
67800,note_on,0,0,4,,,,,,,,,3,,,57,127
67800,note_on,30,0,1,,,,,,,,,0,,,88,127
67800,note_on,0,0,1,,,,,,,,,0,,,85,127
67800,note_on,30,0,4,,,,,,,,,3,,,45,127
67800,note_on,0,0,5,,,,,,,,,4,,,69,127
67800,note_on,30,0,5,,,,,,,,,4,,,57,127
67800,note_on,0,0,7,,,,,,,,,6,,,69,127
67800,note_on,30,0,3,,,,,,,,,2,,,57,127
67800,note_on,30,0,11,,,,,,,,,11,,,45,127
67800,note_on,30,0,7,,,,,,,,,6,,,76,127
67800,note_on,0,0,7,,,,,,,,,6,,,73,127
67800,note_on,30,0,8,,,,,,,,,7,,,76,127
67800,note_on,0,0,8,,,,,,,,,7,,,73,127
67800,note_on,0,0,8,,,,,,,,,7,,,69,127
67800,note_on,120,0,6,,,,,,,,,5,,,45,0
67800,note_on,30,0,9,,,,,,,,,8,,,69,127
67800,note_on,30,0,10,,,,,,,,,10,,,57,127
67800,note_on,30,0,2,,,,,,,,,1,,,76,127
67800,note_on,0,0,2,,,,,,,,,1,,,85,127
67803,set_tempo,32,1,0,,,,,,411918,,,,,,,
67831,set_tempo,28,1,0,,,,,,414594,,,,,,,
67863,set_tempo,32,1,0,,,,,,417304,,,,,,,
67890,note_on,0,0,8,,,,,,,,,7,,,73,0
67890,note_on,90,0,8,,,,,,,,,7,,,69,0
67890,note_on,0,0,8,,,,,,,,,7,,,76,0
67890,note_on,90,0,1,,,,,,,,,0,,,85,0
67890,note_on,0,0,1,,,,,,,,,0,,,88,0
67890,note_on,90,0,2,,,,,,,,,1,,,85,0
67890,note_on,0,0,2,,,,,,,,,1,,,76,0
67890,note_on,0,0,4,,,,,,,,,3,,,45,0
67890,note_on,90,0,11,,,,,,,,,11,,,45,0
67890,note_on,90,0,7,,,,,,,,,6,,,69,0
67890,note_on,0,0,7,,,,,,,,,6,,,73,0
67890,note_on,0,0,7,,,,,,,,,6,,,76,0
67890,note_on,90,0,10,,,,,,,,,10,,,57,0
67890,note_on,90,0,3,,,,,,,,,2,,,57,0
67890,note_on,90,0,4,,,,,,,,,3,,,57,0
67890,note_on,90,0,9,,,,,,,,,8,,,69,0
67890,note_on,90,0,5,,,,,,,,,4,,,69,0
67890,note_on,0,0,5,,,,,,,,,4,,,57,0
67891,set_tempo,28,1,0,,,,,,420050,,,,,,,
67920,note_on,30,0,5,,,,,,,,,4,,,57,127
67920,note_on,30,0,4,,,,,,,,,3,,,45,127
67920,note_on,0,0,4,,,,,,,,,3,,,57,127
67920,note_on,30,0,2,,,,,,,,,1,,,73,127
67920,note_on,0,0,8,,,,,,,,,7,,,64,127
67920,note_on,30,0,7,,,,,,,,,6,,,81,127
67920,note_on,0,0,7,,,,,,,,,6,,,73,127
67920,note_on,0,0,7,,,,,,,,,6,,,64,127
67920,note_on,30,0,10,,,,,,,,,10,,,45,127
67920,note_on,0,0,8,,,,,,,,,7,,,73,127
67920,note_on,30,0,11,,,,,,,,,11,,,33,127
67920,note_on,30,0,3,,,,,,,,,2,,,45,127
67920,note_on,30,0,8,,,,,,,,,7,,,81,127
67920,note_on,30,0,9,,,,,,,,,8,,,57,127
67920,note_on,120,0,6,,,,,,,,,5,,,45,0
67920,note_on,0,0,1,,,,,,,,,0,,,85,127
67920,note_on,30,0,1,,,,,,,,,0,,,81,127
67920,note_on,0,0,6,,,,,,,,,5,,,45,127
67920,note_on,0,0,2,,,,,,,,,1,,,81,127
67920,note_on,0,0,5,,,,,,,,,4,,,69,127
67923,set_tempo,32,1,0,,,,,,422833,,,,,,,
67954,set_tempo,31,1,0,,,,,,425653,,,,,,,
67983,set_tempo,29,1,0,,,,,,428510,,,,,,,
68010,note_on,0,0,2,,,,,,,,,1,,,73,0
68010,note_on,90,0,2,,,,,,,,,1,,,81,0
68010,note_on,90,0,7,,,,,,,,,6,,,64,0
68010,note_on,0,0,7,,,,,,,,,6,,,73,0
68010,note_on,90,0,5,,,,,,,,,4,,,69,0
68010,note_on,0,0,5,,,,,,,,,4,,,57,0
68010,note_on,90,0,3,,,,,,,,,2,,,45,0
68010,note_on,90,0,10,,,,,,,,,10,,,45,0
68010,note_on,90,0,11,,,,,,,,,11,,,33,0
68010,note_on,0,0,8,,,,,,,,,7,,,81,0
68010,note_on,0,0,7,,,,,,,,,6,,,81,0
68010,note_on,0,0,4,,,,,,,,,3,,,45,0
68010,note_on,90,0,4,,,,,,,,,3,,,57,0
68010,note_on,90,0,1,,,,,,,,,0,,,85,0
68010,note_on,0,0,1,,,,,,,,,0,,,81,0
68010,note_on,90,0,8,,,,,,,,,7,,,64,0
68010,note_on,90,0,9,,,,,,,,,8,,,57,0
68010,note_on,0,0,8,,,,,,,,,7,,,73,0
68014,set_tempo,31,1,0,,,,,,431406,,,,,,,
68040,note_on,120,0,6,,,,,,,,,5,,,45,0
68043,set_tempo,29,1,0,,,,,,434342,,,,,,,
68160,marker,0,1,0,,,,,,,,,,,,,
68160,note_on,150,0,7,,,,,,,,,6,,,62,50
68160,set_tempo,117,1,0,,,,,,352941,,,,,,,
68208,note_on,48,0,7,,,,,,,,,6,,,62,0
68220,note_on,12,0,7,,,,,,,,,6,,,62,50
68316,note_on,96,0,7,,,,,,,,,6,,,62,0
68340,note_on,24,0,7,,,,,,,,,6,,,62,50
68436,note_on,96,0,7,,,,,,,,,6,,,62,0
68460,note_on,24,0,7,,,,,,,,,6,,,62,50
68556,note_on,96,0,7,,,,,,,,,6,,,62,0
68580,note_on,24,0,7,,,,,,,,,6,,,62,50
68640,note_on,630,0,11,,,,,,,,,11,,,42,50
68640,note_on,630,0,9,,,,,,,,,8,,,54,50
68640,note_on,630,0,8,,,,,,,,,7,,,57,50
68640,note_on,630,0,10,,,,,,,,,10,,,54,50
68676,note_on,96,0,7,,,,,,,,,6,,,62,0
68700,note_on,24,0,7,,,,,,,,,6,,,62,50
68796,note_on,96,0,7,,,,,,,,,6,,,62,0
68820,note_on,24,0,7,,,,,,,,,6,,,62,50
68916,note_on,96,0,7,,,,,,,,,6,,,62,0
68940,note_on,24,0,7,,,,,,,,,6,,,62,50
69036,note_on,96,0,7,,,,,,,,,6,,,62,0
69060,note_on,24,0,7,,,,,,,,,6,,,62,50
69120,note_on,0,0,9,,,,,,,,,8,,,55,50
69120,note_on,480,0,8,,,,,,,,,7,,,57,0
69120,note_on,480,0,9,,,,,,,,,8,,,54,0
69120,note_on,0,0,11,,,,,,,,,11,,,43,50
69120,note_on,0,0,10,,,,,,,,,10,,,55,50
69120,note_on,480,0,11,,,,,,,,,11,,,42,0
69120,note_on,0,0,8,,,,,,,,,7,,,59,50
69120,note_on,480,0,10,,,,,,,,,10,,,54,0
69156,note_on,96,0,7,,,,,,,,,6,,,62,0
69180,note_on,24,0,7,,,,,,,,,6,,,62,50
69240,note_on,120,0,10,,,,,,,,,10,,,55,0
69240,note_on,120,0,8,,,,,,,,,7,,,59,0
69240,note_on,120,0,9,,,,,,,,,8,,,55,0
69240,note_on,0,0,9,,,,,,,,,8,,,57,60
69240,note_on,0,0,10,,,,,,,,,10,,,57,50
69240,note_on,0,0,11,,,,,,,,,11,,,45,50
69240,note_on,120,0,11,,,,,,,,,11,,,43,0
69240,note_on,0,0,8,,,,,,,,,7,,,60,60
69276,note_on,96,0,7,,,,,,,,,6,,,62,0
69300,note_on,24,0,7,,,,,,,,,6,,,62,50
69396,note_on,96,0,7,,,,,,,,,6,,,62,0
69420,note_on,24,0,7,,,,,,,,,6,,,62,50
69480,note_on,240,0,10,,,,,,,,,10,,,57,0
69480,note_on,240,0,9,,,,,,,,,8,,,57,0
69480,note_on,0,0,9,,,,,,,,,8,,,54,50
69480,note_on,240,0,8,,,,,,,,,7,,,60,0
69480,note_on,0,0,8,,,,,,,,,7,,,57,50
69480,note_on,0,0,11,,,,,,,,,11,,,42,50
69480,note_on,0,0,10,,,,,,,,,10,,,54,50
69480,note_on,240,0,11,,,,,,,,,11,,,45,0
69516,note_on,96,0,7,,,,,,,,,6,,,62,0
69540,note_on,24,0,7,,,,,,,,,6,,,62,50
69600,note_on,0,0,10,,,,,,,,,10,,,55,50
69600,note_on,0,0,8,,,,,,,,,7,,,59,50
69600,note_on,120,0,11,,,,,,,,,11,,,42,0
69600,note_on,0,0,11,,,,,,,,,11,,,43,50
69600,note_on,120,0,10,,,,,,,,,10,,,54,0
69600,note_on,0,0,9,,,,,,,,,8,,,55,50
69600,note_on,120,0,9,,,,,,,,,8,,,54,0
69600,note_on,120,0,8,,,,,,,,,7,,,57,0
69636,note_on,96,0,7,,,,,,,,,6,,,62,0
69660,note_on,24,0,7,,,,,,,,,6,,,62,50
69720,note_on,120,0,11,,,,,,,,,11,,,43,0
69720,note_on,0,0,11,,,,,,,,,11,,,45,50
69720,note_on,0,0,9,,,,,,,,,8,,,57,60
69720,note_on,120,0,10,,,,,,,,,10,,,55,0
69720,note_on,0,0,10,,,,,,,,,10,,,57,50
69720,note_on,120,0,9,,,,,,,,,8,,,55,0
69720,note_on,0,0,8,,,,,,,,,7,,,60,60
69720,note_on,120,0,8,,,,,,,,,7,,,59,0
69756,note_on,96,0,7,,,,,,,,,6,,,62,0
69780,note_on,24,0,7,,,,,,,,,6,,,62,50
69876,note_on,96,0,7,,,,,,,,,6,,,62,0
69900,note_on,24,0,7,,,,,,,,,6,,,62,50
69960,note_on,0,0,10,,,,,,,,,10,,,54,50
69960,note_on,0,0,8,,,,,,,,,7,,,57,50
69960,note_on,240,0,8,,,,,,,,,7,,,60,0
69960,note_on,240,0,11,,,,,,,,,11,,,45,0
69960,note_on,0,0,11,,,,,,,,,11,,,42,50
69960,note_on,240,0,9,,,,,,,,,8,,,57,0
69960,note_on,0,0,9,,,,,,,,,8,,,54,50
69960,note_on,240,0,10,,,,,,,,,10,,,57,0
69996,note_on,96,0,7,,,,,,,,,6,,,62,0
70020,note_on,24,0,7,,,,,,,,,6,,,62,50
70080,note_on,120,0,10,,,,,,,,,10,,,54,0
70080,note_on,120,0,11,,,,,,,,,11,,,42,0
70080,note_on,0,0,11,,,,,,,,,11,,,43,50
70080,note_on,120,0,9,,,,,,,,,8,,,54,0
70080,note_on,0,0,10,,,,,,,,,10,,,55,50
70080,note_on,0,0,8,,,,,,,,,7,,,59,50
70080,note_on,0,0,9,,,,,,,,,8,,,55,50
70080,note_on,120,0,8,,,,,,,,,7,,,57,0
70116,note_on,96,0,7,,,,,,,,,6,,,62,0
70140,note_on,24,0,7,,,,,,,,,6,,,62,52
70180,note_on,40,0,7,,,,,,,,,6,,,62,0
70200,note_on,20,0,7,,,,,,,,,6,,,62,55
70240,note_on,40,0,7,,,,,,,,,6,,,62,0
70260,note_on,20,0,7,,,,,,,,,6,,,62,57
70300,note_on,40,0,7,,,,,,,,,6,,,62,0
70320,note_on,0,0,9,,,,,,,,,8,,,54,50
70320,note_on,240,0,9,,,,,,,,,8,,,55,0
70320,note_on,240,0,10,,,,,,,,,10,,,55,0
70320,note_on,0,0,8,,,,,,,,,7,,,57,50
70320,note_on,240,0,8,,,,,,,,,7,,,59,0
70320,note_on,20,0,7,,,,,,,,,6,,,62,60
70320,note_on,0,0,10,,,,,,,,,10,,,54,50
70320,note_on,0,0,11,,,,,,,,,11,,,42,50
70320,note_on,240,0,11,,,,,,,,,11,,,43,0
70360,note_on,40,0,7,,,,,,,,,6,,,62,0
70380,note_on,20,0,7,,,,,,,,,6,,,62,62
70420,note_on,40,0,7,,,,,,,,,6,,,62,0
70440,note_on,20,0,7,,,,,,,,,6,,,62,65
70490,note_on,50,0,7,,,,,,,,,6,,,62,0
70500,note_on,10,0,7,,,,,,,,,6,,,64,67
70530,note_on,30,0,7,,,,,,,,,6,,,64,0
70530,note_on,0,0,7,,,,,,,,,6,,,66,68
70560,note_on,0,0,9,,,,,,,,,8,,,52,50
70560,note_on,0,0,7,,,,,,,,,6,,,67,50
70560,note_on,30,0,7,,,,,,,,,6,,,66,0
70560,note_on,240,0,9,,,,,,,,,8,,,54,0
70560,note_on,240,0,8,,,,,,,,,7,,,57,0
70560,note_on,0,0,8,,,,,,,,,7,,,59,50
70560,note_on,240,0,11,,,,,,,,,11,,,42,0
70560,note_on,240,0,10,,,,,,,,,10,,,54,0
70560,note_on,0,0,10,,,,,,,,,10,,,52,50
70560,note_on,0,0,11,,,,,,,,,11,,,40,50
70600,note_on,40,0,7,,,,,,,,,6,,,67,0
70620,note_on,20,0,7,,,,,,,,,6,,,67,52
70660,note_on,40,0,7,,,,,,,,,6,,,67,0
70680,note_on,20,0,7,,,,,,,,,6,,,67,55
70720,note_on,40,0,7,,,,,,,,,6,,,67,0
70740,note_on,20,0,7,,,,,,,,,6,,,67,57
70780,note_on,40,0,7,,,,,,,,,6,,,67,0
70800,note_on,0,0,10,,,,,,,,,10,,,45,50
70800,note_on,0,0,11,,,,,,,,,11,,,33,50
70800,note_on,240,0,11,,,,,,,,,11,,,40,0
70800,note_on,240,0,8,,,,,,,,,7,,,59,0
70800,note_on,0,0,8,,,,,,,,,7,,,61,50
70800,note_on,240,0,10,,,,,,,,,10,,,52,0
70800,note_on,20,0,7,,,,,,,,,6,,,67,60
70840,note_on,40,0,7,,,,,,,,,6,,,67,0
70860,note_on,20,0,7,,,,,,,,,6,,,67,62
70900,note_on,40,0,7,,,,,,,,,6,,,67,0
70920,note_on,20,0,7,,,,,,,,,6,,,69,65
70950,note_on,30,0,7,,,,,,,,,6,,,69,0
70950,note_on,0,0,7,,,,,,,,,6,,,67,66
70980,note_on,30,0,7,,,,,,,,,6,,,67,0
70980,note_on,0,0,7,,,,,,,,,6,,,66,67
71010,note_on,30,0,7,,,,,,,,,6,,,66,0
71010,note_on,0,0,7,,,,,,,,,6,,,67,68
71040,note_on,240,0,8,,,,,,,,,7,,,61,0
71040,note_on,0,0,5,,,,,,,,,4,,,74,100
71040,note_on,3030,0,2,,,,,,,,,1,,,69,100
71040,note_on,0,0,2,,,,,,,,,1,,,74,100
71040,note_on,240,0,11,,,,,,,,,11,,,33,0
71040,note_on,0,0,4,,,,,,,,,3,,,62,100
71040,note_on,0,0,1,,,,,,,,,0,,,74,100
71040,note_on,3030,0,1,,,,,,,,,0,,,69,100
71040,note_on,0,0,8,,,,,,,,,7,,,62,50
71040,note_on,3030,0,5,,,,,,,,,4,,,66,100
71040,note_on,0,0,11,,,,,,,,,11,,,38,50
71040,note_on,240,0,10,,,,,,,,,10,,,45,0
71040,note_on,0,0,7,,,,,,,,,6,,,66,70
71040,note_on,3030,0,4,,,,,,,,,3,,,50,100
71040,note_on,3030,0,3,,,,,,,,,2,,,50,100
71040,note_on,0,0,10,,,,,,,,,10,,,50,50
71040,note_on,30,0,7,,,,,,,,,6,,,67,0
71040,note_on,480,0,9,,,,,,,,,8,,,52,0
71040,note_on,0,0,9,,,,,,,,,8,,,50,50
71040,note_on,3000,0,6,,,,,,,,,5,,,50,100
71160,note_on,120,0,8,,,,,,,,,7,,,62,0
71160,note_on,0,0,4,,,,,,,,,3,,,45,100
71160,note_on,0,0,4,,,,,,,,,3,,,50,0
71160,note_on,120,0,4,,,,,,,,,3,,,62,0
71160,note_on,0,0,4,,,,,,,,,3,,,57,100
71160,note_on,120,0,3,,,,,,,,,2,,,50,0
71160,note_on,120,0,10,,,,,,,,,10,,,50,0
71160,note_on,120,0,7,,,,,,,,,6,,,66,0
71160,note_on,120,0,11,,,,,,,,,11,,,38,0
71160,note_on,120,0,9,,,,,,,,,8,,,50,0
71160,note_on,0,0,3,,,,,,,,,2,,,45,100
71250,note_on,90,0,3,,,,,,,,,2,,,45,0
71250,note_on,0,0,4,,,,,,,,,3,,,62,100
71250,note_on,0,0,4,,,,,,,,,3,,,50,100
71250,note_on,0,0,4,,,,,,,,,3,,,45,0
71250,note_on,0,0,3,,,,,,,,,2,,,50,100
71250,note_on,90,0,4,,,,,,,,,3,,,57,0
71280,note_on,0,0,1,,,,,,,,,0,,,78,100
71280,note_on,0,0,1,,,,,,,,,0,,,86,100
71280,note_on,240,0,1,,,,,,,,,0,,,74,0
71280,note_on,0,0,4,,,,,,,,,3,,,50,0
71280,note_on,0,0,4,,,,,,,,,3,,,66,100
71280,note_on,0,0,1,,,,,,,,,0,,,69,0
71280,note_on,0,0,4,,,,,,,,,3,,,54,100
71280,note_on,0,0,5,,,,,,,,,4,,,78,100
71280,note_on,240,0,6,,,,,,,,,5,,,50,0
71280,note_on,0,0,5,,,,,,,,,4,,,62,100
71280,note_on,0,0,5,,,,,,,,,4,,,66,0
71280,note_on,240,0,5,,,,,,,,,4,,,74,0
71280,note_on,0,0,3,,,,,,,,,2,,,54,100
71280,note_on,30,0,3,,,,,,,,,2,,,50,0
71280,note_on,0,0,6,,,,,,,,,5,,,50,100
71280,note_on,30,0,4,,,,,,,,,3,,,62,0
71280,note_on,0,0,2,,,,,,,,,1,,,78,100
71280,note_on,240,0,2,,,,,,,,,1,,,74,0
71280,note_on,0,0,2,,,,,,,,,1,,,69,0
71280,note_on,0,0,2,,,,,,,,,1,,,86,100
71400,note_on,120,0,4,,,,,,,,,3,,,66,0
71400,note_on,0,0,4,,,,,,,,,3,,,50,100
71400,note_on,0,0,4,,,,,,,,,3,,,62,100
71400,note_on,120,0,3,,,,,,,,,2,,,54,0
71400,note_on,0,0,3,,,,,,,,,2,,,50,100
71400,note_on,0,0,4,,,,,,,,,3,,,54,0
71460,note_on,180,0,5,,,,,,,,,4,,,78,0
71460,note_on,0,0,5,,,,,,,,,4,,,74,100
71460,note_on,0,0,5,,,,,,,,,4,,,66,100
71460,note_on,0,0,5,,,,,,,,,4,,,62,0
71460,note_on,0,0,6,,,,,,,,,5,,,50,100
71460,note_on,180,0,6,,,,,,,,,5,,,50,0
71490,note_on,0,0,4,,,,,,,,,3,,,66,100
71490,note_on,0,0,3,,,,,,,,,2,,,54,100
71490,note_on,90,0,3,,,,,,,,,2,,,50,0
71490,note_on,90,0,4,,,,,,,,,3,,,62,0
71490,note_on,0,0,4,,,,,,,,,3,,,50,0
71490,note_on,0,0,4,,,,,,,,,3,,,54,100
71520,note_on,0,0,3,,,,,,,,,2,,,57,100
71520,note_on,0,0,5,,,,,,,,,4,,,66,0
71520,note_on,30,0,3,,,,,,,,,2,,,54,0
71520,note_on,0,0,4,,,,,,,,,3,,,57,100
71520,note_on,240,0,2,,,,,,,,,1,,,78,0
71520,note_on,0,0,2,,,,,,,,,1,,,74,100
71520,note_on,0,0,6,,,,,,,,,5,,,45,100
71520,note_on,60,0,5,,,,,,,,,4,,,74,0
71520,note_on,0,0,5,,,,,,,,,4,,,69,100
71520,note_on,30,0,4,,,,,,,,,3,,,66,0
71520,note_on,0,0,4,,,,,,,,,3,,,54,0
71520,note_on,0,0,4,,,,,,,,,3,,,69,100
71520,note_on,60,0,6,,,,,,,,,5,,,50,0
71580,note_on,60,0,6,,,,,,,,,5,,,45,0
71580,note_on,0,0,1,,,,,,,,,0,,,76,100
71580,note_on,0,0,2,,,,,,,,,1,,,85,100
71580,note_on,0,0,1,,,,,,,,,0,,,86,0
71580,note_on,0,0,1,,,,,,,,,0,,,85,100
71580,note_on,300,0,1,,,,,,,,,0,,,78,0
71580,note_on,0,0,2,,,,,,,,,1,,,76,100
71580,note_on,60,0,2,,,,,,,,,1,,,74,0
71580,note_on,0,0,2,,,,,,,,,1,,,86,0
71610,note_on,0,0,2,,,,,,,,,1,,,76,0
71610,note_on,0,0,1,,,,,,,,,0,,,76,0
71610,note_on,90,0,5,,,,,,,,,4,,,69,0
71610,note_on,30,0,2,,,,,,,,,1,,,85,0
71610,note_on,30,0,1,,,,,,,,,0,,,85,0
71640,note_on,30,0,1,,,,,,,,,0,,,79,100
71640,note_on,0,0,1,,,,,,,,,0,,,83,100
71640,note_on,60,0,6,,,,,,,,,5,,,45,100
71640,note_on,30,0,5,,,,,,,,,4,,,69,100
71640,note_on,30,0,2,,,,,,,,,1,,,79,100
71640,note_on,0,0,2,,,,,,,,,1,,,83,100
71670,note_on,30,0,2,,,,,,,,,1,,,83,0
71670,note_on,0,0,1,,,,,,,,,0,,,79,0
71670,note_on,30,0,1,,,,,,,,,0,,,83,0
71670,note_on,0,0,2,,,,,,,,,1,,,79,0
71700,note_on,60,0,6,,,,,,,,,5,,,45,0
71700,note_on,0,0,1,,,,,,,,,0,,,81,100
71700,note_on,30,0,1,,,,,,,,,0,,,78,100
71700,note_on,30,0,2,,,,,,,,,1,,,78,100
71700,note_on,0,0,2,,,,,,,,,1,,,81,100
71730,note_on,0,0,2,,,,,,,,,1,,,78,0
71730,note_on,90,0,5,,,,,,,,,4,,,69,0
71730,note_on,30,0,2,,,,,,,,,1,,,81,0
71730,note_on,0,0,1,,,,,,,,,0,,,78,0
71730,note_on,30,0,1,,,,,,,,,0,,,81,0
71760,note_on,240,0,4,,,,,,,,,3,,,69,0
71760,note_on,0,0,4,,,,,,,,,3,,,57,0
71760,note_on,0,0,4,,,,,,,,,3,,,45,100
71760,note_on,0,0,4,,,,,,,,,3,,,57,100
71760,note_on,60,0,6,,,,,,,,,5,,,45,100
71760,note_on,0,0,2,,,,,,,,,1,,,81,100
71760,note_on,30,0,2,,,,,,,,,1,,,78,100
71760,note_on,30,0,5,,,,,,,,,4,,,69,100
71760,note_on,240,0,3,,,,,,,,,2,,,57,0
71760,note_on,30,0,1,,,,,,,,,0,,,78,100
71760,note_on,0,0,3,,,,,,,,,2,,,45,100
71760,note_on,0,0,1,,,,,,,,,0,,,81,100
71820,note_on,0,0,2,,,,,,,,,1,,,76,100
71820,note_on,0,0,1,,,,,,,,,0,,,76,100
71820,note_on,0,0,1,,,,,,,,,0,,,78,0
71820,note_on,0,0,1,,,,,,,,,0,,,79,100
71820,note_on,0,0,2,,,,,,,,,1,,,79,100
71820,note_on,0,0,2,,,,,,,,,1,,,78,0
71820,note_on,60,0,2,,,,,,,,,1,,,81,0
71820,note_on,60,0,1,,,,,,,,,0,,,81,0
71820,note_on,60,0,6,,,,,,,,,5,,,45,0
71850,note_on,30,0,1,,,,,,,,,0,,,79,0
71850,note_on,0,0,1,,,,,,,,,0,,,76,0
71850,note_on,30,0,2,,,,,,,,,1,,,76,0
71850,note_on,0,0,2,,,,,,,,,1,,,79,0
71850,note_on,90,0,5,,,,,,,,,4,,,69,0
71880,note_on,60,0,6,,,,,,,,,5,,,45,100
71880,note_on,0,0,1,,,,,,,,,0,,,78,100
71880,note_on,30,0,1,,,,,,,,,0,,,74,100
71880,note_on,0,0,2,,,,,,,,,1,,,74,100
71880,note_on,30,0,2,,,,,,,,,1,,,78,100
71880,note_on,30,0,5,,,,,,,,,4,,,69,100
71910,note_on,30,0,2,,,,,,,,,1,,,74,0
71910,note_on,0,0,1,,,,,,,,,0,,,74,0
71910,note_on,30,0,1,,,,,,,,,0,,,78,0
71910,note_on,0,0,2,,,,,,,,,1,,,78,0
71940,note_on,60,0,6,,,,,,,,,5,,,45,0
71940,note_on,30,0,1,,,,,,,,,0,,,73,100
71940,note_on,0,0,1,,,,,,,,,0,,,76,100
71940,note_on,0,0,2,,,,,,,,,1,,,73,100
71940,note_on,30,0,2,,,,,,,,,1,,,76,100
71970,note_on,30,0,2,,,,,,,,,1,,,73,0
71970,note_on,0,0,2,,,,,,,,,1,,,76,0
71970,note_on,0,0,1,,,,,,,,,0,,,73,0
71970,note_on,30,0,1,,,,,,,,,0,,,76,0
71970,note_on,90,0,5,,,,,,,,,4,,,69,0
72000,note_on,60,0,6,,,,,,,,,5,,,50,100
72000,note_on,240,0,3,,,,,,,,,2,,,45,0
72000,note_on,0,0,3,,,,,,,,,2,,,50,100
72000,note_on,240,0,4,,,,,,,,,3,,,57,0
72000,note_on,30,0,5,,,,,,,,,4,,,62,100
72000,note_on,0,0,4,,,,,,,,,3,,,50,50
72000,note_on,0,0,4,,,,,,,,,3,,,45,0
72000,note_on,0,0,4,,,,,,,,,3,,,62,50
72000,note_on,0,0,5,,,,,,,,,4,,,66,100
72000,note_on,840,0,7,,,,,,,,,6,,,62,50
72000,note_on,30,0,2,,,,,,,,,1,,,74,100
72000,note_on,30,0,1,,,,,,,,,0,,,74,100
72048,note_on,48,0,7,,,,,,,,,6,,,62,0
72060,note_on,60,0,6,,,,,,,,,5,,,50,0
72060,note_on,12,0,7,,,,,,,,,6,,,62,50
72090,note_on,0,0,5,,,,,,,,,4,,,62,0
72090,note_on,90,0,5,,,,,,,,,4,,,66,0
72120,note_on,120,0,3,,,,,,,,,2,,,50,0
72120,note_on,120,0,1,,,,,,,,,0,,,74,0
72120,note_on,120,0,2,,,,,,,,,1,,,74,0
72156,note_on,96,0,7,,,,,,,,,6,,,62,0
72180,note_on,24,0,7,,,,,,,,,6,,,62,50
72276,note_on,96,0,7,,,,,,,,,6,,,62,0
72300,note_on,24,0,7,,,,,,,,,6,,,62,50
72396,note_on,96,0,7,,,,,,,,,6,,,62,0
72420,note_on,24,0,7,,,,,,,,,6,,,62,50
72480,note_on,360,0,2,,,,,,,,,1,,,84,70
72480,note_on,1320,0,11,,,,,,,,,11,,,42,50
72480,note_on,1320,0,8,,,,,,,,,7,,,57,50
72480,note_on,1320,0,9,,,,,,,,,8,,,54,50
72480,note_on,1320,0,10,,,,,,,,,10,,,54,50
72505,control_change,25,0,2,,,,,,,,,1,7,90,,
72516,note_on,96,0,7,,,,,,,,,6,,,62,0
72540,note_on,24,0,7,,,,,,,,,6,,,62,50
72636,note_on,96,0,7,,,,,,,,,6,,,62,0
72660,note_on,24,0,7,,,,,,,,,6,,,62,50
72675,control_change,170,0,2,,,,,,,,,1,7,95,,
72680,control_change,5,0,2,,,,,,,,,1,7,100,,
72715,control_change,35,0,2,,,,,,,,,1,7,102,,
72730,control_change,15,0,2,,,,,,,,,1,7,103,,
72756,note_on,96,0,7,,,,,,,,,6,,,62,0
72761,control_change,31,0,2,,,,,,,,,1,7,104,,
72780,note_on,24,0,7,,,,,,,,,6,,,62,50
72785,control_change,24,0,2,,,,,,,,,1,7,105,,
72800,control_change,15,0,2,,,,,,,,,1,7,106,,
72825,control_change,25,0,2,,,,,,,,,1,7,107,,
72840,control_change,15,0,2,,,,,,,,,1,7,108,,
72876,note_on,96,0,7,,,,,,,,,6,,,62,0
72891,control_change,51,0,2,,,,,,,,,1,7,109,,
72900,note_on,24,0,7,,,,,,,,,6,,,62,50
72905,control_change,14,0,2,,,,,,,,,1,7,110,,
72960,note_on,0,0,11,,,,,,,,,11,,,43,50
72960,note_on,0,0,10,,,,,,,,,10,,,55,50
72960,note_on,480,0,10,,,,,,,,,10,,,54,0
72960,control_change,0,0,2,,,,,,,,,1,7,111,,
72960,note_on,0,0,2,,,,,,,,,1,,,83,50
72960,note_on,480,0,9,,,,,,,,,8,,,54,0
72960,note_on,0,0,9,,,,,,,,,8,,,55,50
72960,note_on,480,0,8,,,,,,,,,7,,,57,0
72960,note_on,0,0,8,,,,,,,,,7,,,59,50
72960,note_on,55,0,2,,,,,,,,,1,,,84,0
72960,note_on,480,0,11,,,,,,,,,11,,,42,0
72996,note_on,96,0,7,,,,,,,,,6,,,62,0
73011,control_change,51,0,2,,,,,,,,,1,7,111,,
73020,note_on,24,0,7,,,,,,,,,6,,,62,50
73020,note_on,9,0,2,,,,,,,,,1,,,83,0
73020,note_on,0,0,2,,,,,,,,,1,,,79,50
73060,control_change,40,0,2,,,,,,,,,1,7,112,,
73080,note_on,20,0,2,,,,,,,,,1,,,79,0
73080,note_on,120,0,11,,,,,,,,,11,,,43,0
73080,note_on,120,0,10,,,,,,,,,10,,,55,0
73080,note_on,0,0,11,,,,,,,,,11,,,45,50
73080,note_on,120,0,9,,,,,,,,,8,,,55,0
73080,note_on,0,0,2,,,,,,,,,1,,,78,50
73080,note_on,0,0,9,,,,,,,,,8,,,57,50
73080,note_on,0,0,8,,,,,,,,,7,,,60,50
73080,note_on,120,0,8,,,,,,,,,7,,,59,0
73080,note_on,0,0,10,,,,,,,,,10,,,57,50
73091,control_change,11,0,2,,,,,,,,,1,7,112,,
73116,note_on,96,0,7,,,,,,,,,6,,,62,0
73131,control_change,40,0,2,,,,,,,,,1,7,112,,
73140,note_on,24,0,7,,,,,,,,,6,,,62,50
73210,control_change,79,0,2,,,,,,,,,1,7,113,,
73236,note_on,96,0,7,,,,,,,,,6,,,62,0
73256,control_change,46,0,2,,,,,,,,,1,7,113,,
73260,note_on,24,0,7,,,,,,,,,6,,,62,50
73320,note_on,0,0,10,,,,,,,,,10,,,54,50
73320,note_on,64,0,2,,,,,,,,,1,,,78,0
73320,note_on,0,0,2,,,,,,,,,1,,,84,50
73320,note_on,0,0,9,,,,,,,,,8,,,54,50
73320,note_on,240,0,9,,,,,,,,,8,,,57,0
73320,note_on,240,0,11,,,,,,,,,11,,,45,0
73320,note_on,0,0,11,,,,,,,,,11,,,42,50
73320,note_on,0,0,8,,,,,,,,,7,,,57,50
73320,note_on,240,0,10,,,,,,,,,10,,,57,0
73320,note_on,240,0,8,,,,,,,,,7,,,60,0
73345,control_change,25,0,2,,,,,,,,,1,7,113,,
73356,note_on,96,0,7,,,,,,,,,6,,,62,0
73380,note_on,24,0,7,,,,,,,,,6,,,62,50
73431,control_change,86,0,2,,,,,,,,,1,7,115,,
73440,note_on,0,0,2,,,,,,,,,1,,,83,50
73440,note_on,9,0,2,,,,,,,,,1,,,84,0
73440,note_on,120,0,10,,,,,,,,,10,,,54,0
73440,note_on,0,0,10,,,,,,,,,10,,,55,50
73440,note_on,0,0,11,,,,,,,,,11,,,43,50
73440,note_on,120,0,11,,,,,,,,,11,,,42,0
73440,note_on,0,0,8,,,,,,,,,7,,,59,50
73440,note_on,120,0,8,,,,,,,,,7,,,57,0
73440,note_on,0,0,9,,,,,,,,,8,,,55,50
73440,note_on,120,0,9,,,,,,,,,8,,,54,0
73476,note_on,96,0,7,,,,,,,,,6,,,62,0
73481,control_change,41,0,2,,,,,,,,,1,7,117,,
73500,note_on,24,0,7,,,,,,,,,6,,,62,50
73500,note_on,19,0,2,,,,,,,,,1,,,83,0
73500,note_on,0,0,2,,,,,,,,,1,,,79,50
73530,control_change,30,0,2,,,,,,,,,1,7,118,,
73560,note_on,30,0,2,,,,,,,,,1,,,79,0
73560,note_on,0,0,2,,,,,,,,,1,,,78,50
73560,note_on,120,0,8,,,,,,,,,7,,,59,0
73560,note_on,120,0,10,,,,,,,,,10,,,55,0
73560,note_on,0,0,8,,,,,,,,,7,,,60,50
73560,note_on,120,0,11,,,,,,,,,11,,,43,0
73560,note_on,0,0,11,,,,,,,,,11,,,45,50
73560,note_on,0,0,10,,,,,,,,,10,,,57,50
73560,note_on,0,0,9,,,,,,,,,8,,,57,50
73560,note_on,120,0,9,,,,,,,,,8,,,55,0
73596,note_on,96,0,7,,,,,,,,,6,,,62,0
73620,note_on,24,0,7,,,,,,,,,6,,,62,50
73625,control_change,65,0,2,,,,,,,,,1,7,119,,
73716,note_on,96,0,7,,,,,,,,,6,,,62,0
73721,control_change,96,0,2,,,,,,,,,1,7,120,,
73740,note_on,24,0,7,,,,,,,,,6,,,62,50
73760,control_change,39,0,2,,,,,,,,,1,7,122,,
73800,note_on,240,0,10,,,,,,,,,10,,,57,0
73800,note_on,0,0,9,,,,,,,,,8,,,54,50
73800,note_on,240,0,11,,,,,,,,,11,,,45,0
73800,note_on,0,0,10,,,,,,,,,10,,,54,50
73800,note_on,0,0,8,,,,,,,,,7,,,57,50
73800,note_on,240,0,8,,,,,,,,,7,,,60,0
73800,note_on,0,0,2,,,,,,,,,1,,,84,50
73800,note_on,40,0,2,,,,,,,,,1,,,78,0
73800,note_on,0,0,11,,,,,,,,,11,,,42,50
73800,note_on,240,0,9,,,,,,,,,8,,,57,0
73836,note_on,96,0,7,,,,,,,,,6,,,62,0
73860,note_on,24,0,7,,,,,,,,,6,,,62,50
73865,control_change,65,0,2,,,,,,,,,1,7,124,,
73920,note_on,0,0,10,,,,,,,,,10,,,55,50
73920,note_on,120,0,9,,,,,,,,,8,,,54,0
73920,note_on,0,0,9,,,,,,,,,8,,,55,50
73920,note_on,120,0,8,,,,,,,,,7,,,57,0
73920,note_on,55,0,2,,,,,,,,,1,,,84,0
73920,note_on,0,0,2,,,,,,,,,1,,,74,50
73920,note_on,0,0,2,,,,,,,,,1,,,83,50
73920,note_on,0,0,8,,,,,,,,,7,,,59,50
73920,note_on,120,0,10,,,,,,,,,10,,,54,0
73920,note_on,0,0,11,,,,,,,,,11,,,43,50
73920,note_on,120,0,11,,,,,,,,,11,,,42,0
73951,control_change,31,0,2,,,,,,,,,1,7,123,,
73956,note_on,96,0,7,,,,,,,,,6,,,62,0
73976,control_change,25,0,2,,,,,,,,,1,7,122,,
73980,note_on,24,0,7,,,,,,,,,6,,,62,50
73990,control_change,14,0,2,,,,,,,,,1,7,121,,
74015,control_change,25,0,2,,,,,,,,,1,7,120,,
74020,note_on,40,0,7,,,,,,,,,6,,,62,0
74030,control_change,15,0,2,,,,,,,,,1,7,118,,
74040,note_on,20,0,7,,,,,,,,,6,,,62,50
74080,note_on,40,0,7,,,,,,,,,6,,,62,0
74080,control_change,50,0,2,,,,,,,,,1,7,117,,
74100,control_change,20,0,2,,,,,,,,,1,7,116,,
74100,note_on,20,0,7,,,,,,,,,6,,,62,50
74136,control_change,36,0,2,,,,,,,,,1,7,115,,
74140,note_on,40,0,7,,,,,,,,,6,,,62,0
74150,control_change,14,0,2,,,,,,,,,1,7,114,,
74160,note_on,0,0,10,,,,,,,,,10,,,54,50
74160,note_on,240,0,8,,,,,,,,,7,,,59,0
74160,note_on,0,0,8,,,,,,,,,7,,,57,50
74160,note_on,0,0,11,,,,,,,,,11,,,42,50
74160,note_on,240,0,11,,,,,,,,,11,,,43,0
74160,note_on,0,0,9,,,,,,,,,8,,,54,50
74160,note_on,240,0,9,,,,,,,,,8,,,55,0
74160,note_on,240,0,10,,,,,,,,,10,,,55,0
74160,note_on,20,0,7,,,,,,,,,6,,,62,50
74160,note_on,10,0,2,,,,,,,,,1,,,83,0
74160,note_on,0,0,2,,,,,,,,,1,,,81,56
74175,control_change,15,0,2,,,,,,,,,1,7,113,,
74190,control_change,15,0,2,,,,,,,,,1,7,111,,
74200,note_on,40,0,7,,,,,,,,,6,,,62,0
74205,control_change,15,0,2,,,,,,,,,1,7,110,,
74220,note_on,20,0,7,,,,,,,,,6,,,62,50
74230,control_change,25,0,2,,,,,,,,,1,7,109,,
74255,control_change,25,0,2,,,,,,,,,1,7,108,,
74260,note_on,40,0,7,,,,,,,,,6,,,62,0
74280,note_on,20,0,7,,,,,,,,,6,,,62,50
74286,control_change,31,0,2,,,,,,,,,1,7,107,,
74311,control_change,25,0,2,,,,,,,,,1,7,106,,
74326,control_change,15,0,2,,,,,,,,,1,7,104,,
74330,note_on,50,0,7,,,,,,,,,6,,,62,0
74340,note_on,10,0,7,,,,,,,,,6,,,64,50
74360,control_change,34,0,2,,,,,,,,,1,7,103,,
74370,note_on,0,0,7,,,,,,,,,6,,,66,50
74370,note_on,30,0,7,,,,,,,,,6,,,64,0
74400,note_on,30,0,7,,,,,,,,,6,,,66,0
74400,note_on,0,0,10,,,,,,,,,10,,,52,50
74400,note_on,0,0,9,,,,,,,,,8,,,52,50
74400,note_on,0,0,7,,,,,,,,,6,,,67,50
74400,note_on,240,0,10,,,,,,,,,10,,,54,0
74400,note_on,240,0,9,,,,,,,,,8,,,54,0
74400,note_on,240,0,8,,,,,,,,,7,,,57,0
74400,note_on,0,0,8,,,,,,,,,7,,,59,50
74400,note_on,0,0,11,,,,,,,,,11,,,40,50
74400,note_on,240,0,11,,,,,,,,,11,,,42,0
74400,note_on,0,0,2,,,,,,,,,1,,,79,63
74400,note_on,40,0,2,,,,,,,,,1,,,81,0
74405,control_change,5,0,2,,,,,,,,,1,7,102,,
74440,note_on,40,0,7,,,,,,,,,6,,,67,0
74460,note_on,20,0,7,,,,,,,,,6,,,67,50
74470,control_change,65,0,2,,,,,,,,,1,7,101,,
74500,note_on,40,0,7,,,,,,,,,6,,,67,0
74520,note_on,20,0,7,,,,,,,,,6,,,67,50
74520,control_change,50,0,2,,,,,,,,,1,7,99,,
74560,note_on,40,0,7,,,,,,,,,6,,,67,0
74575,control_change,55,0,2,,,,,,,,,1,7,97,,
74580,note_on,20,0,7,,,,,,,,,6,,,67,50
74620,note_on,40,0,7,,,,,,,,,6,,,67,0
74621,control_change,46,0,2,,,,,,,,,1,7,96,,
74640,note_on,0,0,8,,,,,,,,,7,,,61,50
74640,note_on,240,0,8,,,,,,,,,7,,,59,0
74640,note_on,0,0,10,,,,,,,,,10,,,45,50
74640,note_on,0,0,4,,,,,,,,,3,,,50,0
74640,note_on,240,0,10,,,,,,,,,10,,,52,0
74640,note_on,2640,0,4,,,,,,,,,3,,,62,0
74640,note_on,0,0,11,,,,,,,,,11,,,33,50
74640,note_on,20,0,7,,,,,,,,,6,,,67,50
74640,note_on,0,0,4,,,,,,,,,3,,,64,50
74640,note_on,0,0,4,,,,,,,,,3,,,57,50
74640,note_on,19,0,2,,,,,,,,,1,,,74,0
74640,note_on,0,0,2,,,,,,,,,1,,,73,60
74640,note_on,240,0,11,,,,,,,,,11,,,40,0
74680,note_on,40,0,7,,,,,,,,,6,,,67,0
74695,control_change,55,0,2,,,,,,,,,1,7,95,,
74700,note_on,20,0,7,,,,,,,,,6,,,67,50
74735,control_change,40,0,2,,,,,,,,,1,7,94,,
74740,note_on,40,0,7,,,,,,,,,6,,,67,0
74760,note_on,20,0,7,,,,,,,,,6,,,69,50
74760,control_change,25,0,2,,,,,,,,,1,7,92,,
74790,note_on,30,0,7,,,,,,,,,6,,,69,0
74790,note_on,0,0,7,,,,,,,,,6,,,67,50
74816,control_change,56,0,2,,,,,,,,,1,7,90,,
74820,note_on,30,0,7,,,,,,,,,6,,,67,0
74820,note_on,0,0,7,,,,,,,,,6,,,66,50
74850,note_on,0,0,7,,,,,,,,,6,,,67,50
74850,note_on,30,0,7,,,,,,,,,6,,,66,0
74880,note_on,480,0,9,,,,,,,,,8,,,52,0
74880,note_on,0,0,10,,,,,,,,,10,,,50,50
74880,note_on,30,0,7,,,,,,,,,6,,,67,0
74880,note_on,240,0,10,,,,,,,,,10,,,45,0
74880,note_on,0,0,11,,,,,,,,,11,,,38,50
74880,note_on,0,0,9,,,,,,,,,8,,,50,50
74880,note_on,0,0,7,,,,,,,,,6,,,66,50
74880,note_on,240,0,4,,,,,,,,,3,,,64,0
74880,note_on,0,0,4,,,,,,,,,3,,,57,0
74880,note_on,0,0,4,,,,,,,,,3,,,62,50
74880,note_on,0,0,4,,,,,,,,,3,,,66,50
74880,note_on,240,0,8,,,,,,,,,7,,,61,0
74880,note_on,0,0,8,,,,,,,,,7,,,62,50
74880,note_on,0,0,2,,,,,,,,,1,,,78,50
74880,note_on,0,0,2,,,,,,,,,1,,,74,50
74880,note_on,240,0,11,,,,,,,,,11,,,33,0
74880,note_on,0,0,2,,,,,,,,,1,,,79,0
74880,note_on,64,0,2,,,,,,,,,1,,,73,0
74920,note_on,40,0,8,,,,,,,,,7,,,62,0
74920,note_on,40,0,9,,,,,,,,,8,,,50,0
74940,note_on,20,0,8,,,,,,,,,7,,,66,50
74940,note_on,20,0,9,,,,,,,,,8,,,62,50
74940,note_on,60,0,7,,,,,,,,,6,,,66,0
74980,note_on,40,0,8,,,,,,,,,7,,,66,0
74980,note_on,40,0,9,,,,,,,,,8,,,62,0
75000,note_on,20,0,9,,,,,,,,,8,,,62,50
75000,note_on,0,0,2,,,,,,,,,1,,,74,0
75000,note_on,60,0,7,,,,,,,,,6,,,81,50
75000,note_on,120,0,2,,,,,,,,,1,,,78,0
75000,note_on,120,0,10,,,,,,,,,10,,,50,0
75000,note_on,120,0,11,,,,,,,,,11,,,38,0
75000,note_on,120,0,4,,,,,,,,,3,,,66,0
75000,note_on,0,0,4,,,,,,,,,3,,,62,0
75000,note_on,20,0,8,,,,,,,,,7,,,66,50
75040,note_on,40,0,9,,,,,,,,,8,,,62,0
75040,note_on,40,0,8,,,,,,,,,7,,,66,0
75045,note_on,45,0,7,,,,,,,,,6,,,81,0
75060,note_on,20,0,9,,,,,,,,,8,,,62,50
75060,note_on,20,0,8,,,,,,,,,7,,,66,50
75100,note_on,40,0,9,,,,,,,,,8,,,62,0
75100,note_on,40,0,8,,,,,,,,,7,,,66,0
75120,note_on,75,0,7,,,,,,,,,6,,,78,50
75120,note_on,20,0,9,,,,,,,,,8,,,62,50
75120,note_on,20,0,8,,,,,,,,,7,,,66,50
75160,note_on,40,0,8,,,,,,,,,7,,,66,0
75160,note_on,40,0,9,,,,,,,,,8,,,62,0
75165,note_on,45,0,7,,,,,,,,,6,,,78,0
75180,note_on,20,0,9,,,,,,,,,8,,,62,50
75180,note_on,20,0,8,,,,,,,,,7,,,66,50
75220,note_on,40,0,8,,,,,,,,,7,,,66,0
75220,note_on,40,0,9,,,,,,,,,8,,,62,0
75240,note_on,20,0,8,,,,,,,,,7,,,67,50
75240,note_on,20,0,9,,,,,,,,,8,,,64,50
75240,note_on,75,0,7,,,,,,,,,6,,,74,50
75270,note_on,0,0,9,,,,,,,,,8,,,62,50
75270,note_on,30,0,9,,,,,,,,,8,,,64,0
75270,note_on,0,0,8,,,,,,,,,7,,,66,50
75270,note_on,30,0,8,,,,,,,,,7,,,67,0
75285,note_on,45,0,7,,,,,,,,,6,,,74,0
75300,note_on,30,0,8,,,,,,,,,7,,,66,0
75300,note_on,0,0,8,,,,,,,,,7,,,64,50
75300,note_on,30,0,9,,,,,,,,,8,,,62,0
75300,note_on,0,0,9,,,,,,,,,8,,,61,50
75330,note_on,30,0,9,,,,,,,,,8,,,61,0
75330,note_on,0,0,9,,,,,,,,,8,,,62,50
75330,note_on,0,0,8,,,,,,,,,7,,,66,50
75330,note_on,30,0,8,,,,,,,,,7,,,64,0
75360,note_on,0,0,8,,,,,,,,,7,,,67,50
75360,note_on,30,0,8,,,,,,,,,7,,,66,0
75360,note_on,75,0,7,,,,,,,,,6,,,74,50
75360,note_on,30,0,9,,,,,,,,,8,,,62,0
75360,note_on,0,0,9,,,,,,,,,8,,,64,50
75400,note_on,40,0,8,,,,,,,,,7,,,67,0
75400,note_on,40,0,9,,,,,,,,,8,,,64,0
75420,note_on,20,0,9,,,,,,,,,8,,,64,50
75420,note_on,20,0,8,,,,,,,,,7,,,67,50
75460,note_on,40,0,8,,,,,,,,,7,,,67,0
75460,note_on,40,0,9,,,,,,,,,8,,,64,0
75480,note_on,20,0,8,,,,,,,,,7,,,67,50
75480,note_on,20,0,9,,,,,,,,,8,,,64,50
75520,note_on,40,0,8,,,,,,,,,7,,,67,0
75520,note_on,40,0,9,,,,,,,,,8,,,64,0
75540,note_on,20,0,8,,,,,,,,,7,,,67,50
75540,note_on,20,0,9,,,,,,,,,8,,,64,50
75580,note_on,40,0,8,,,,,,,,,7,,,67,0
75580,note_on,40,0,9,,,,,,,,,8,,,64,0
75600,note_on,20,0,9,,,,,,,,,8,,,64,50
75600,note_on,20,0,8,,,,,,,,,7,,,67,50
75600,note_on,240,0,7,,,,,,,,,6,,,74,0
75600,note_on,0,0,7,,,,,,,,,6,,,73,50
75640,note_on,40,0,9,,,,,,,,,8,,,64,0
75640,note_on,40,0,8,,,,,,,,,7,,,67,0
75660,note_on,20,0,8,,,,,,,,,7,,,67,50
75660,note_on,20,0,9,,,,,,,,,8,,,64,50
75690,note_on,90,0,7,,,,,,,,,6,,,73,0
75700,note_on,40,0,8,,,,,,,,,7,,,67,0
75700,note_on,40,0,9,,,,,,,,,8,,,64,0
75720,note_on,20,0,9,,,,,,,,,8,,,66,50
75720,note_on,20,0,8,,,,,,,,,7,,,69,50
75750,note_on,30,0,8,,,,,,,,,7,,,69,0
75750,note_on,30,0,9,,,,,,,,,8,,,66,0
75750,note_on,0,0,9,,,,,,,,,8,,,64,50
75750,note_on,0,0,8,,,,,,,,,7,,,67,50
75780,note_on,30,0,9,,,,,,,,,8,,,64,0
75780,note_on,0,0,9,,,,,,,,,8,,,62,50
75780,note_on,0,0,8,,,,,,,,,7,,,66,50
75780,note_on,30,0,8,,,,,,,,,7,,,67,0
75810,note_on,0,0,8,,,,,,,,,7,,,67,50
75810,note_on,30,0,8,,,,,,,,,7,,,66,0
75810,note_on,0,0,9,,,,,,,,,8,,,64,50
75810,note_on,30,0,9,,,,,,,,,8,,,62,0
75840,note_on,0,0,9,,,,,,,,,8,,,66,50
75840,note_on,0,0,8,,,,,,,,,7,,,69,50
75840,note_on,30,0,9,,,,,,,,,8,,,64,0
75840,note_on,30,0,8,,,,,,,,,7,,,67,0
75880,note_on,40,0,9,,,,,,,,,8,,,66,0
75880,note_on,40,0,8,,,,,,,,,7,,,69,0
75900,note_on,20,0,9,,,,,,,,,8,,,66,50
75900,note_on,20,0,8,,,,,,,,,7,,,69,50
75940,note_on,40,0,8,,,,,,,,,7,,,69,0
75940,note_on,40,0,9,,,,,,,,,8,,,66,0
75960,note_on,20,0,8,,,,,,,,,7,,,69,50
75960,note_on,20,0,9,,,,,,,,,8,,,66,50
75960,note_on,270,0,7,,,,,,,,,6,,,74,50
76000,note_on,40,0,8,,,,,,,,,7,,,69,0
76000,note_on,40,0,9,,,,,,,,,8,,,66,0
76020,note_on,20,0,9,,,,,,,,,8,,,66,50
76020,note_on,20,0,8,,,,,,,,,7,,,69,50
76050,note_on,90,0,7,,,,,,,,,6,,,74,0
76050,note_on,0,0,7,,,,,,,,,6,,,73,50
76060,note_on,40,0,8,,,,,,,,,7,,,69,0
76060,note_on,40,0,9,,,,,,,,,8,,,66,0
76080,note_on,20,0,9,,,,,,,,,8,,,66,50
76080,note_on,30,0,7,,,,,,,,,6,,,73,0
76080,note_on,20,0,8,,,,,,,,,7,,,69,50
76080,note_on,0,0,7,,,,,,,,,6,,,74,50
76120,note_on,40,0,8,,,,,,,,,7,,,69,0
76120,note_on,40,0,9,,,,,,,,,8,,,66,0
76140,note_on,20,0,9,,,,,,,,,8,,,66,50
76140,note_on,60,0,7,,,,,,,,,6,,,74,0
76140,note_on,20,0,8,,,,,,,,,7,,,69,50
76180,note_on,40,0,8,,,,,,,,,7,,,69,0
76180,note_on,40,0,9,,,,,,,,,8,,,66,0
76200,note_on,60,0,7,,,,,,,,,6,,,78,65
76200,note_on,20,0,8,,,,,,,,,7,,,71,50
76200,note_on,20,0,9,,,,,,,,,8,,,67,50
76230,note_on,30,0,9,,,,,,,,,8,,,67,0
76230,note_on,30,0,8,,,,,,,,,7,,,71,0
76230,note_on,0,0,8,,,,,,,,,7,,,69,50
76230,note_on,0,0,9,,,,,,,,,8,,,66,50
76260,note_on,0,0,8,,,,,,,,,7,,,67,50
76260,note_on,30,0,8,,,,,,,,,7,,,69,0
76260,note_on,60,0,7,,,,,,,,,6,,,78,0
76260,note_on,30,0,9,,,,,,,,,8,,,66,0
76260,note_on,0,0,9,,,,,,,,,8,,,64,50
76290,note_on,30,0,8,,,,,,,,,7,,,67,0
76290,note_on,0,0,8,,,,,,,,,7,,,66,50
76290,note_on,0,0,9,,,,,,,,,8,,,62,50
76290,note_on,30,0,9,,,,,,,,,8,,,64,0
76320,note_on,0,0,9,,,,,,,,,8,,,61,50
76320,note_on,30,0,8,,,,,,,,,7,,,66,0
76320,note_on,60,0,7,,,,,,,,,6,,,81,60
76320,note_on,0,0,8,,,,,,,,,7,,,64,50
76320,note_on,30,0,9,,,,,,,,,8,,,62,0
76360,note_on,40,0,9,,,,,,,,,8,,,61,0
76360,note_on,40,0,8,,,,,,,,,7,,,64,0
76380,note_on,20,0,9,,,,,,,,,8,,,61,50
76380,note_on,20,0,8,,,,,,,,,7,,,64,50
76420,note_on,40,0,8,,,,,,,,,7,,,64,0
76420,note_on,40,0,9,,,,,,,,,8,,,61,0
76440,note_on,20,0,9,,,,,,,,,8,,,61,50
76440,note_on,20,0,8,,,,,,,,,7,,,64,50
76480,note_on,40,0,9,,,,,,,,,8,,,61,0
76480,note_on,40,0,8,,,,,,,,,7,,,64,0
76500,note_on,20,0,9,,,,,,,,,8,,,61,50
76500,note_on,20,0,8,,,,,,,,,7,,,64,50
76540,note_on,40,0,9,,,,,,,,,8,,,61,0
76540,note_on,40,0,8,,,,,,,,,7,,,64,0
76560,note_on,20,0,9,,,,,,,,,8,,,61,50
76560,note_on,240,0,7,,,,,,,,,6,,,81,0
76560,note_on,0,0,7,,,,,,,,,6,,,79,50
76560,note_on,20,0,8,,,,,,,,,7,,,64,50
76600,note_on,40,0,9,,,,,,,,,8,,,61,0
76600,note_on,40,0,8,,,,,,,,,7,,,64,0
76620,note_on,20,0,8,,,,,,,,,7,,,64,50
76620,note_on,20,0,9,,,,,,,,,8,,,61,50
76650,note_on,90,0,7,,,,,,,,,6,,,79,0
76660,note_on,40,0,8,,,,,,,,,7,,,64,0
76660,note_on,40,0,9,,,,,,,,,8,,,61,0
76680,note_on,20,0,8,,,,,,,,,7,,,66,50
76680,note_on,20,0,9,,,,,,,,,8,,,62,50
76710,note_on,0,0,8,,,,,,,,,7,,,64,50
76710,note_on,0,0,9,,,,,,,,,8,,,61,50
76710,note_on,30,0,9,,,,,,,,,8,,,62,0
76710,note_on,30,0,8,,,,,,,,,7,,,66,0
76740,note_on,0,0,8,,,,,,,,,7,,,62,50
76740,note_on,0,0,9,,,,,,,,,8,,,59,50
76740,note_on,30,0,9,,,,,,,,,8,,,61,0
76740,note_on,30,0,8,,,,,,,,,7,,,64,0
76770,note_on,0,0,9,,,,,,,,,8,,,61,50
76770,note_on,30,0,9,,,,,,,,,8,,,59,0
76770,note_on,0,0,8,,,,,,,,,7,,,64,50
76770,note_on,30,0,8,,,,,,,,,7,,,62,0
76800,note_on,0,0,8,,,,,,,,,7,,,66,100
76800,note_on,0,0,9,,,,,,,,,8,,,62,100
76800,note_on,30,0,9,,,,,,,,,8,,,61,0
76800,note_on,150,0,7,,,,,,,,,6,,,78,100
76800,marker,8640,1,0,,,,,,,,,,,,,
76800,note_on,30,0,8,,,,,,,,,7,,,64,0
76830,note_on,30,0,7,,,,,,,,,6,,,78,0
76830,note_on,0,0,7,,,,,,,,,6,,,81,100
76860,note_on,0,0,7,,,,,,,,,6,,,79,100
76860,note_on,30,0,7,,,,,,,,,6,,,81,0
76890,note_on,30,0,7,,,,,,,,,6,,,79,0
76890,note_on,90,0,8,,,,,,,,,7,,,66,0
76890,note_on,0,0,7,,,,,,,,,6,,,78,100
76920,note_on,30,0,7,,,,,,,,,6,,,78,0
76920,note_on,0,0,1,,,,,,,,,0,,,78,120
76920,note_on,4800,0,1,,,,,,,,,0,,,83,120
76920,note_on,0,0,9,,,,,,,,,8,,,62,120
76920,note_on,120,0,9,,,,,,,,,8,,,62,0
76920,note_on,30,0,8,,,,,,,,,7,,,83,120
76920,note_on,1920,0,11,,,,,,,,,11,,,50,120
76920,note_on,4860,0,6,,,,,,,,,5,,,50,120
76920,note_on,1920,0,2,,,,,,,,,1,,,83,120
76920,note_on,4830,0,5,,,,,,,,,4,,,62,120
76920,note_on,1920,0,4,,,,,,,,,3,,,66,120
76920,note_on,0,0,4,,,,,,,,,3,,,62,120
76920,note_on,0,0,7,,,,,,,,,6,,,83,120
76920,note_on,1920,0,10,,,,,,,,,10,,,62,120
76920,note_on,0,0,5,,,,,,,,,4,,,74,120
76920,note_on,0,0,2,,,,,,,,,1,,,78,120
76920,note_on,4800,0,3,,,,,,,,,2,,,62,120
77010,note_on,0,0,2,,,,,,,,,1,,,83,0
77010,note_on,90,0,7,,,,,,,,,6,,,83,0
77010,note_on,90,0,9,,,,,,,,,8,,,62,0
77010,note_on,90,0,5,,,,,,,,,4,,,74,0
77010,note_on,0,0,5,,,,,,,,,4,,,62,0
77010,note_on,90,0,1,,,,,,,,,0,,,78,0
77010,note_on,90,0,2,,,,,,,,,1,,,78,0
77010,note_on,90,0,3,,,,,,,,,2,,,62,0
77010,note_on,0,0,1,,,,,,,,,0,,,83,0
77010,note_on,0,0,4,,,,,,,,,3,,,66,0
77010,note_on,90,0,10,,,,,,,,,10,,,62,0
77010,note_on,90,0,4,,,,,,,,,3,,,62,0
77010,note_on,90,0,8,,,,,,,,,7,,,83,0
77010,note_on,90,0,11,,,,,,,,,11,,,50,0
77040,note_on,30,0,8,,,,,,,,,7,,,76,100
77040,note_on,120,0,6,,,,,,,,,5,,,50,0
77040,note_on,30,0,7,,,,,,,,,6,,,76,100
77070,note_on,0,0,8,,,,,,,,,7,,,79,100
77070,note_on,0,0,7,,,,,,,,,6,,,79,100
77070,note_on,30,0,7,,,,,,,,,6,,,76,0
77070,note_on,30,0,8,,,,,,,,,7,,,76,0
77100,note_on,0,0,8,,,,,,,,,7,,,78,100
77100,note_on,0,0,7,,,,,,,,,6,,,78,100
77100,note_on,30,0,7,,,,,,,,,6,,,79,0
77100,note_on,30,0,8,,,,,,,,,7,,,79,0
77130,note_on,30,0,7,,,,,,,,,6,,,78,0
77130,note_on,30,0,8,,,,,,,,,7,,,78,0
77130,note_on,0,0,8,,,,,,,,,7,,,76,100
77130,note_on,0,0,7,,,,,,,,,6,,,76,100
77160,note_on,0,0,4,,,,,,,,,3,,,64,120
77160,note_on,30,0,7,,,,,,,,,6,,,76,0
77160,note_on,150,0,10,,,,,,,,,10,,,61,120
77160,note_on,150,0,11,,,,,,,,,11,,,49,120
77160,note_on,0,0,7,,,,,,,,,6,,,81,120
77160,note_on,0,0,2,,,,,,,,,1,,,81,120
77160,note_on,150,0,2,,,,,,,,,1,,,76,120
77160,note_on,150,0,1,,,,,,,,,0,,,81,120
77160,note_on,150,0,9,,,,,,,,,8,,,61,120
77160,note_on,120,0,6,,,,,,,,,5,,,45,120
77160,note_on,0,0,1,,,,,,,,,0,,,76,120
77160,note_on,150,0,5,,,,,,,,,4,,,57,120
77160,note_on,30,0,8,,,,,,,,,7,,,76,0
77160,note_on,0,0,8,,,,,,,,,7,,,81,120
77160,note_on,150,0,3,,,,,,,,,2,,,61,120
77160,note_on,0,0,5,,,,,,,,,4,,,69,120
77160,note_on,150,0,4,,,,,,,,,3,,,57,120
77250,note_on,90,0,4,,,,,,,,,3,,,64,0
77250,note_on,0,0,4,,,,,,,,,3,,,57,0
77250,note_on,90,0,8,,,,,,,,,7,,,81,0
77250,note_on,90,0,11,,,,,,,,,11,,,49,0
77250,note_on,90,0,5,,,,,,,,,4,,,69,0
77250,note_on,0,0,5,,,,,,,,,4,,,57,0
77250,note_on,90,0,7,,,,,,,,,6,,,81,0
77250,note_on,0,0,2,,,,,,,,,1,,,76,0
77250,note_on,90,0,2,,,,,,,,,1,,,81,0
77250,note_on,90,0,10,,,,,,,,,10,,,61,0
77250,note_on,90,0,1,,,,,,,,,0,,,76,0
77250,note_on,0,0,1,,,,,,,,,0,,,81,0
77250,note_on,90,0,9,,,,,,,,,8,,,61,0
77250,note_on,90,0,3,,,,,,,,,2,,,61,0
77280,note_on,30,0,7,,,,,,,,,6,,,74,100
77280,note_on,30,0,8,,,,,,,,,7,,,74,100
77280,note_on,120,0,6,,,,,,,,,5,,,45,0
77310,note_on,30,0,8,,,,,,,,,7,,,74,0
77310,note_on,0,0,8,,,,,,,,,7,,,78,100
77310,note_on,30,0,7,,,,,,,,,6,,,74,0
77310,note_on,0,0,7,,,,,,,,,6,,,78,100
77340,note_on,0,0,7,,,,,,,,,6,,,76,100
77340,note_on,30,0,7,,,,,,,,,6,,,78,0
77340,note_on,0,0,8,,,,,,,,,7,,,76,100
77340,note_on,30,0,8,,,,,,,,,7,,,78,0
77370,note_on,30,0,8,,,,,,,,,7,,,76,0
77370,note_on,0,0,8,,,,,,,,,7,,,74,100
77370,note_on,0,0,7,,,,,,,,,6,,,74,100
77370,note_on,30,0,7,,,,,,,,,6,,,76,0
77400,note_on,0,0,4,,,,,,,,,3,,,62,100
77400,note_on,120,0,6,,,,,,,,,5,,,50,100
77400,note_on,150,0,2,,,,,,,,,1,,,79,100
77400,note_on,0,0,8,,,,,,,,,7,,,79,100
77400,note_on,30,0,8,,,,,,,,,7,,,74,0
77400,note_on,0,0,7,,,,,,,,,6,,,79,100
77400,note_on,30,0,7,,,,,,,,,6,,,74,0
77400,note_on,150,0,4,,,,,,,,,3,,,50,100
77400,note_on,0,0,2,,,,,,,,,1,,,74,100
77400,note_on,150,0,10,,,,,,,,,10,,,59,100
77400,note_on,0,0,1,,,,,,,,,0,,,74,100
77400,note_on,150,0,3,,,,,,,,,2,,,59,100
77400,note_on,150,0,5,,,,,,,,,4,,,62,100
77400,note_on,150,0,11,,,,,,,,,11,,,47,100
77400,note_on,150,0,9,,,,,,,,,8,,,59,100
77400,note_on,150,0,1,,,,,,,,,0,,,79,100
77400,note_on,0,0,5,,,,,,,,,4,,,74,100
77490,note_on,90,0,3,,,,,,,,,2,,,59,0
77490,note_on,0,0,4,,,,,,,,,3,,,50,0
77490,note_on,90,0,11,,,,,,,,,11,,,47,0
77490,note_on,90,0,5,,,,,,,,,4,,,74,0
77490,note_on,90,0,9,,,,,,,,,8,,,59,0
77490,note_on,90,0,10,,,,,,,,,10,,,59,0
77490,note_on,90,0,2,,,,,,,,,1,,,74,0
77490,note_on,0,0,5,,,,,,,,,4,,,62,0
77490,note_on,90,0,1,,,,,,,,,0,,,74,0
77490,note_on,90,0,4,,,,,,,,,3,,,62,0
77520,note_on,30,0,11,,,,,,,,,11,,,45,120
77520,note_on,30,0,3,,,,,,,,,2,,,57,120
77520,note_on,30,0,1,,,,,,,,,0,,,73,120
77520,note_on,30,0,2,,,,,,,,,1,,,73,120
77520,note_on,30,0,9,,,,,,,,,8,,,57,120
77520,note_on,120,0,6,,,,,,,,,5,,,50,0
77520,note_on,0,0,5,,,,,,,,,4,,,76,120
77520,note_on,30,0,10,,,,,,,,,10,,,57,120
77520,note_on,0,0,6,,,,,,,,,5,,,45,120
77520,note_on,30,0,5,,,,,,,,,4,,,69,120
77520,note_on,30,0,4,,,,,,,,,3,,,57,120
77520,note_on,0,0,4,,,,,,,,,3,,,64,120
77580,note_on,180,0,8,,,,,,,,,7,,,79,0
77580,note_on,180,0,7,,,,,,,,,6,,,79,0
77580,note_on,0,0,7,,,,,,,,,6,,,76,100
77580,note_on,0,0,8,,,,,,,,,7,,,76,100
77640,note_on,60,0,7,,,,,,,,,6,,,76,0
77640,note_on,0,0,7,,,,,,,,,6,,,73,100
77640,note_on,0,0,8,,,,,,,,,7,,,73,100
77640,note_on,120,0,6,,,,,,,,,5,,,45,0
77640,note_on,60,0,8,,,,,,,,,7,,,76,0
77700,note_on,0,0,8,,,,,,,,,7,,,69,100
77700,note_on,60,0,8,,,,,,,,,7,,,73,0
77700,note_on,0,0,7,,,,,,,,,6,,,69,100
77700,note_on,60,0,7,,,,,,,,,6,,,73,0
77760,note_on,240,0,11,,,,,,,,,11,,,45,0
77760,note_on,240,0,10,,,,,,,,,10,,,57,0
77760,note_on,60,0,8,,,,,,,,,7,,,69,0
77760,note_on,0,0,5,,,,,,,,,4,,,69,0
77760,note_on,240,0,3,,,,,,,,,2,,,57,0
77760,note_on,240,0,9,,,,,,,,,8,,,57,0
77760,note_on,240,0,4,,,,,,,,,3,,,64,0
77760,note_on,0,0,4,,,,,,,,,3,,,57,0
77760,note_on,240,0,1,,,,,,,,,0,,,73,0
77760,note_on,0,0,2,,,,,,,,,1,,,79,0
77760,note_on,240,0,2,,,,,,,,,1,,,73,0
77760,note_on,240,0,5,,,,,,,,,4,,,76,0
77760,note_on,60,0,7,,,,,,,,,6,,,69,0
77760,note_on,0,0,8,,,,,,,,,7,,,78,100
77760,note_on,0,0,7,,,,,,,,,6,,,78,100
77760,note_on,0,0,1,,,,,,,,,0,,,79,0
77790,note_on,30,0,8,,,,,,,,,7,,,78,0
77790,note_on,0,0,7,,,,,,,,,6,,,81,100
77790,note_on,30,0,7,,,,,,,,,6,,,78,0
77790,note_on,0,0,8,,,,,,,,,7,,,81,100
77820,note_on,30,0,8,,,,,,,,,7,,,81,0
77820,note_on,0,0,8,,,,,,,,,7,,,79,100
77820,note_on,30,0,7,,,,,,,,,6,,,81,0
77820,note_on,0,0,7,,,,,,,,,6,,,79,100
77850,note_on,30,0,8,,,,,,,,,7,,,79,0
77850,note_on,0,0,8,,,,,,,,,7,,,78,100
77850,note_on,30,0,7,,,,,,,,,6,,,79,0
77850,note_on,0,0,7,,,,,,,,,6,,,78,100
77880,note_on,120,0,3,,,,,,,,,2,,,62,120
77880,note_on,0,0,1,,,,,,,,,0,,,78,120
77880,note_on,30,0,7,,,,,,,,,6,,,78,0
77880,note_on,120,0,1,,,,,,,,,0,,,83,120
77880,note_on,0,0,5,,,,,,,,,4,,,74,120
77880,note_on,120,0,9,,,,,,,,,8,,,62,120
77880,note_on,240,0,6,,,,,,,,,5,,,50,120
77880,note_on,120,0,11,,,,,,,,,11,,,50,120
77880,note_on,120,0,2,,,,,,,,,1,,,83,120
77880,note_on,0,0,2,,,,,,,,,1,,,78,120
77880,note_on,120,0,4,,,,,,,,,3,,,66,120
77880,note_on,0,0,4,,,,,,,,,3,,,62,120
77880,note_on,120,0,10,,,,,,,,,10,,,62,120
77880,note_on,30,0,8,,,,,,,,,7,,,78,0
77880,note_on,0,0,8,,,,,,,,,7,,,83,120
77880,note_on,120,0,5,,,,,,,,,4,,,62,120
77880,note_on,0,0,7,,,,,,,,,6,,,83,120
77970,note_on,90,0,3,,,,,,,,,2,,,62,0
77970,note_on,90,0,7,,,,,,,,,6,,,83,0
77970,note_on,90,0,2,,,,,,,,,1,,,78,0
77970,note_on,0,0,2,,,,,,,,,1,,,83,0
77970,note_on,90,0,8,,,,,,,,,7,,,83,0
77970,note_on,0,0,5,,,,,,,,,4,,,62,0
77970,note_on,90,0,10,,,,,,,,,10,,,62,0
77970,note_on,90,0,5,,,,,,,,,4,,,74,0
77970,note_on,90,0,4,,,,,,,,,3,,,62,0
77970,note_on,90,0,11,,,,,,,,,11,,,50,0
77970,note_on,0,0,1,,,,,,,,,0,,,83,0
77970,note_on,90,0,1,,,,,,,,,0,,,78,0
77970,note_on,0,0,4,,,,,,,,,3,,,66,0
77970,note_on,90,0,9,,,,,,,,,8,,,62,0
78000,note_on,30,0,7,,,,,,,,,6,,,76,100
78000,note_on,120,0,6,,,,,,,,,5,,,50,0
78000,note_on,30,0,8,,,,,,,,,7,,,76,100
78030,note_on,0,0,7,,,,,,,,,6,,,79,100
78030,note_on,30,0,7,,,,,,,,,6,,,76,0
78030,note_on,0,0,8,,,,,,,,,7,,,79,100
78030,note_on,30,0,8,,,,,,,,,7,,,76,0
78060,note_on,0,0,7,,,,,,,,,6,,,78,100
78060,note_on,30,0,7,,,,,,,,,6,,,79,0
78060,note_on,30,0,8,,,,,,,,,7,,,79,0
78060,note_on,0,0,8,,,,,,,,,7,,,78,100
78090,note_on,30,0,8,,,,,,,,,7,,,78,0
78090,note_on,0,0,8,,,,,,,,,7,,,76,100
78090,note_on,30,0,7,,,,,,,,,6,,,78,0
78090,note_on,0,0,7,,,,,,,,,6,,,76,100
78120,note_on,150,0,4,,,,,,,,,3,,,57,120
78120,note_on,150,0,5,,,,,,,,,4,,,57,120
78120,note_on,0,0,5,,,,,,,,,4,,,69,120
78120,note_on,30,0,7,,,,,,,,,6,,,76,0
78120,note_on,0,0,4,,,,,,,,,3,,,64,120
78120,note_on,150,0,11,,,,,,,,,11,,,49,120
78120,note_on,150,0,1,,,,,,,,,0,,,76,120
78120,note_on,0,0,1,,,,,,,,,0,,,81,120
78120,note_on,150,0,9,,,,,,,,,8,,,61,120
78120,note_on,0,0,7,,,,,,,,,6,,,81,120
78120,note_on,150,0,2,,,,,,,,,1,,,76,120
78120,note_on,0,0,2,,,,,,,,,1,,,81,120
78120,note_on,30,0,8,,,,,,,,,7,,,76,0
78120,note_on,0,0,8,,,,,,,,,7,,,81,120
78120,note_on,120,0,6,,,,,,,,,5,,,45,120
78120,note_on,150,0,10,,,,,,,,,10,,,61,120
78120,note_on,150,0,3,,,,,,,,,2,,,61,120
78210,note_on,90,0,5,,,,,,,,,4,,,69,0
78210,note_on,0,0,5,,,,,,,,,4,,,57,0
78210,note_on,90,0,10,,,,,,,,,10,,,61,0
78210,note_on,90,0,7,,,,,,,,,6,,,81,0
78210,note_on,90,0,11,,,,,,,,,11,,,49,0
78210,note_on,90,0,1,,,,,,,,,0,,,81,0
78210,note_on,0,0,4,,,,,,,,,3,,,57,0
78210,note_on,0,0,1,,,,,,,,,0,,,76,0
78210,note_on,90,0,3,,,,,,,,,2,,,61,0
78210,note_on,90,0,2,,,,,,,,,1,,,81,0
78210,note_on,90,0,9,,,,,,,,,8,,,61,0
78210,note_on,0,0,2,,,,,,,,,1,,,76,0
78210,note_on,90,0,4,,,,,,,,,3,,,64,0
78210,note_on,90,0,8,,,,,,,,,7,,,81,0
78240,note_on,30,0,8,,,,,,,,,7,,,74,100
78240,note_on,30,0,7,,,,,,,,,6,,,74,100
78240,note_on,120,0,6,,,,,,,,,5,,,45,0
78270,note_on,30,0,8,,,,,,,,,7,,,74,0
78270,note_on,0,0,8,,,,,,,,,7,,,78,100
78270,note_on,0,0,7,,,,,,,,,6,,,78,100
78270,note_on,30,0,7,,,,,,,,,6,,,74,0
78300,note_on,0,0,7,,,,,,,,,6,,,76,100
78300,note_on,30,0,7,,,,,,,,,6,,,78,0
78300,note_on,0,0,8,,,,,,,,,7,,,76,100
78300,note_on,30,0,8,,,,,,,,,7,,,78,0
78330,note_on,30,0,8,,,,,,,,,7,,,76,0
78330,note_on,0,0,8,,,,,,,,,7,,,74,100
78330,note_on,0,0,7,,,,,,,,,6,,,74,100
78330,note_on,30,0,7,,,,,,,,,6,,,76,0
78360,note_on,0,0,8,,,,,,,,,7,,,79,100
78360,note_on,150,0,1,,,,,,,,,0,,,79,100
78360,note_on,0,0,2,,,,,,,,,1,,,74,100
78360,note_on,150,0,2,,,,,,,,,1,,,79,100
78360,note_on,150,0,9,,,,,,,,,8,,,59,100
78360,note_on,0,0,5,,,,,,,,,4,,,74,100
78360,note_on,0,0,1,,,,,,,,,0,,,74,100
78360,note_on,120,0,6,,,,,,,,,5,,,50,100
78360,note_on,150,0,5,,,,,,,,,4,,,62,100
78360,note_on,30,0,7,,,,,,,,,6,,,74,0
78360,note_on,150,0,11,,,,,,,,,11,,,47,100
78360,note_on,0,0,7,,,,,,,,,6,,,79,100
78360,note_on,0,0,4,,,,,,,,,3,,,62,100
78360,note_on,150,0,4,,,,,,,,,3,,,50,100
78360,note_on,150,0,10,,,,,,,,,10,,,59,100
78360,note_on,30,0,8,,,,,,,,,7,,,74,0
78360,note_on,150,0,3,,,,,,,,,2,,,59,100
78450,note_on,0,0,4,,,,,,,,,3,,,50,0
78450,note_on,90,0,9,,,,,,,,,8,,,59,0
78450,note_on,90,0,4,,,,,,,,,3,,,62,0
78450,note_on,90,0,2,,,,,,,,,1,,,74,0
78450,note_on,90,0,5,,,,,,,,,4,,,74,0
78450,note_on,90,0,3,,,,,,,,,2,,,59,0
78450,note_on,0,0,5,,,,,,,,,4,,,62,0
78450,note_on,90,0,1,,,,,,,,,0,,,74,0
78450,note_on,90,0,11,,,,,,,,,11,,,47,0
78450,note_on,90,0,10,,,,,,,,,10,,,59,0
78480,note_on,30,0,10,,,,,,,,,10,,,57,120
78480,note_on,0,0,6,,,,,,,,,5,,,45,120
78480,note_on,120,0,6,,,,,,,,,5,,,50,0
78480,note_on,30,0,1,,,,,,,,,0,,,73,120
78480,note_on,30,0,9,,,,,,,,,8,,,57,120
78480,note_on,0,0,5,,,,,,,,,4,,,69,120
78480,note_on,30,0,11,,,,,,,,,11,,,45,120
78480,note_on,30,0,5,,,,,,,,,4,,,76,120
78480,note_on,30,0,4,,,,,,,,,3,,,64,120
78480,note_on,30,0,3,,,,,,,,,2,,,57,120
78480,note_on,30,0,2,,,,,,,,,1,,,73,120
78480,note_on,0,0,4,,,,,,,,,3,,,57,120
78540,note_on,180,0,7,,,,,,,,,6,,,79,0
78540,note_on,0,0,7,,,,,,,,,6,,,78,100
78540,note_on,0,0,8,,,,,,,,,7,,,78,100
78540,note_on,180,0,8,,,,,,,,,7,,,79,0
78570,note_on,30,0,7,,,,,,,,,6,,,78,0
78570,note_on,0,0,7,,,,,,,,,6,,,76,100
78570,note_on,30,0,8,,,,,,,,,7,,,78,0
78570,note_on,0,0,8,,,,,,,,,7,,,76,100
78600,note_on,120,0,6,,,,,,,,,5,,,45,0
78600,note_on,30,0,7,,,,,,,,,6,,,76,0
78600,note_on,0,0,7,,,,,,,,,6,,,74,100
78600,note_on,0,0,8,,,,,,,,,7,,,74,100
78600,note_on,30,0,8,,,,,,,,,7,,,76,0
78630,note_on,30,0,8,,,,,,,,,7,,,74,0
78630,note_on,0,0,8,,,,,,,,,7,,,73,100
78630,note_on,30,0,7,,,,,,,,,6,,,74,0
78630,note_on,0,0,7,,,,,,,,,6,,,73,100
78660,note_on,0,0,7,,,,,,,,,6,,,71,100
78660,note_on,30,0,8,,,,,,,,,7,,,73,0
78660,note_on,0,0,8,,,,,,,,,7,,,71,100
78660,note_on,30,0,7,,,,,,,,,6,,,73,0
78690,note_on,30,0,7,,,,,,,,,6,,,71,0
78690,note_on,0,0,7,,,,,,,,,6,,,69,100
78690,note_on,30,0,8,,,,,,,,,7,,,71,0
78690,note_on,0,0,8,,,,,,,,,7,,,69,100
78720,note_on,240,0,11,,,,,,,,,11,,,45,0
78720,note_on,240,0,1,,,,,,,,,0,,,73,0
78720,note_on,0,0,1,,,,,,,,,0,,,79,0
78720,note_on,240,0,4,,,,,,,,,3,,,57,0
78720,note_on,0,0,1,,,,,,,,,0,,,74,100
78720,note_on,0,0,1,,,,,,,,,0,,,78,100
78720,note_on,0,0,5,,,,,,,,,4,,,76,0
78720,note_on,240,0,5,,,,,,,,,4,,,69,0
78720,note_on,0,0,4,,,,,,,,,3,,,64,0
78720,note_on,30,0,7,,,,,,,,,6,,,69,0
78720,note_on,240,0,2,,,,,,,,,1,,,73,0
78720,note_on,240,0,10,,,,,,,,,10,,,57,0
78720,note_on,0,0,2,,,,,,,,,1,,,79,0
78720,note_on,30,0,8,,,,,,,,,7,,,69,0
78720,note_on,0,0,8,,,,,,,,,7,,,78,100
78720,note_on,0,0,2,,,,,,,,,1,,,74,100
78720,note_on,0,0,2,,,,,,,,,1,,,78,100
78720,note_on,240,0,9,,,,,,,,,8,,,57,0
78720,note_on,240,0,3,,,,,,,,,2,,,57,0
78720,note_on,0,0,7,,,,,,,,,6,,,78,100
78750,note_on,0,0,7,,,,,,,,,6,,,81,100
78750,note_on,0,0,8,,,,,,,,,7,,,81,100
78750,note_on,30,0,8,,,,,,,,,7,,,78,0
78750,note_on,30,0,7,,,,,,,,,6,,,78,0
78780,note_on,0,0,8,,,,,,,,,7,,,79,100
78780,note_on,0,0,7,,,,,,,,,6,,,79,100
78780,note_on,30,0,8,,,,,,,,,7,,,81,0
78780,note_on,30,0,7,,,,,,,,,6,,,81,0
78810,note_on,0,0,8,,,,,,,,,7,,,78,100
78810,note_on,30,0,7,,,,,,,,,6,,,79,0
78810,note_on,0,0,7,,,,,,,,,6,,,78,100
78810,note_on,30,0,8,,,,,,,,,7,,,79,0
78840,note_on,120,0,11,,,,,,,,,11,,,50,100
78840,note_on,120,0,5,,,,,,,,,4,,,74,100
78840,note_on,30,0,7,,,,,,,,,6,,,78,0
78840,note_on,120,0,9,,,,,,,,,8,,,62,100
78840,note_on,120,0,4,,,,,,,,,3,,,62,100
78840,note_on,0,0,2,,,,,,,,,1,,,83,100
78840,note_on,0,0,8,,,,,,,,,7,,,83,100
78840,note_on,30,0,8,,,,,,,,,7,,,78,0
78840,note_on,0,0,1,,,,,,,,,0,,,83,100
78840,note_on,0,0,1,,,,,,,,,0,,,78,0
78840,note_on,120,0,1,,,,,,,,,0,,,74,0
78840,note_on,240,0,6,,,,,,,,,5,,,50,100
78840,note_on,0,0,7,,,,,,,,,6,,,83,100
78840,note_on,120,0,2,,,,,,,,,1,,,78,0
78840,note_on,0,0,1,,,,,,,,,0,,,78,100
78840,note_on,0,0,5,,,,,,,,,4,,,62,100
78840,note_on,120,0,3,,,,,,,,,2,,,62,100
78840,note_on,0,0,4,,,,,,,,,3,,,66,100
78840,note_on,120,0,10,,,,,,,,,10,,,62,100
78930,note_on,90,0,8,,,,,,,,,7,,,83,0
78930,note_on,90,0,7,,,,,,,,,6,,,83,0
78960,note_on,0,0,4,,,,,,,,,3,,,64,100
78960,note_on,120,0,4,,,,,,,,,3,,,66,0
78960,note_on,0,0,1,,,,,,,,,0,,,79,100
78960,note_on,0,0,2,,,,,,,,,1,,,76,100
78960,note_on,120,0,1,,,,,,,,,0,,,78,0
78960,note_on,30,0,7,,,,,,,,,6,,,76,100
78960,note_on,120,0,2,,,,,,,,,1,,,74,0
78960,note_on,30,0,8,,,,,,,,,7,,,76,100
78960,note_on,120,0,6,,,,,,,,,5,,,50,0
78990,note_on,0,0,7,,,,,,,,,6,,,79,100
78990,note_on,30,0,8,,,,,,,,,7,,,76,0
78990,note_on,0,0,8,,,,,,,,,7,,,79,100
78990,note_on,30,0,7,,,,,,,,,6,,,76,0
79020,note_on,30,0,8,,,,,,,,,7,,,79,0
79020,note_on,0,0,7,,,,,,,,,6,,,78,100
79020,note_on,30,0,7,,,,,,,,,6,,,79,0
79020,note_on,0,0,8,,,,,,,,,7,,,78,100
79050,note_on,30,0,8,,,,,,,,,7,,,78,0
79050,note_on,0,0,8,,,,,,,,,7,,,76,100
79050,note_on,30,0,7,,,,,,,,,6,,,78,0
79050,note_on,0,0,7,,,,,,,,,6,,,76,100
79080,note_on,0,0,7,,,,,,,,,6,,,81,100
79080,note_on,240,0,5,,,,,,,,,4,,,62,0
79080,note_on,120,0,6,,,,,,,,,5,,,45,100
79080,note_on,0,0,5,,,,,,,,,4,,,74,0
79080,note_on,240,0,10,,,,,,,,,10,,,62,0
79080,note_on,0,0,10,,,,,,,,,10,,,61,100
79080,note_on,0,0,5,,,,,,,,,4,,,57,100
79080,note_on,0,0,5,,,,,,,,,4,,,69,100
79080,note_on,0,0,2,,,,,,,,,1,,,81,100
79080,note_on,240,0,11,,,,,,,,,11,,,50,0
79080,note_on,30,0,7,,,,,,,,,6,,,76,0
79080,note_on,0,0,9,,,,,,,,,8,,,61,100
79080,note_on,120,0,2,,,,,,,,,1,,,83,0
79080,note_on,0,0,1,,,,,,,,,0,,,81,100
79080,note_on,0,0,1,,,,,,,,,0,,,83,0
79080,note_on,240,0,3,,,,,,,,,2,,,62,0
79080,note_on,0,0,8,,,,,,,,,7,,,81,100
79080,note_on,240,0,9,,,,,,,,,8,,,62,0
79080,note_on,120,0,4,,,,,,,,,3,,,64,0
79080,note_on,0,0,4,,,,,,,,,3,,,62,0
79080,note_on,0,0,4,,,,,,,,,3,,,69,100
79080,note_on,0,0,4,,,,,,,,,3,,,57,100
79080,note_on,0,0,3,,,,,,,,,2,,,61,100
79080,note_on,120,0,1,,,,,,,,,0,,,79,0
79080,note_on,30,0,8,,,,,,,,,7,,,76,0
79080,note_on,0,0,11,,,,,,,,,11,,,49,100
79200,note_on,0,0,2,,,,,,,,,1,,,78,100
79200,note_on,120,0,2,,,,,,,,,1,,,81,0
79200,note_on,0,0,3,,,,,,,,,2,,,59,100
79200,note_on,120,0,3,,,,,,,,,2,,,61,0
79200,note_on,0,0,2,,,,,,,,,1,,,74,100
79200,note_on,0,0,9,,,,,,,,,8,,,59,100
79200,note_on,120,0,6,,,,,,,,,5,,,45,0
79200,note_on,120,0,10,,,,,,,,,10,,,61,0
79200,note_on,0,0,10,,,,,,,,,10,,,59,100
79200,note_on,120,0,5,,,,,,,,,4,,,69,0
79200,note_on,0,0,5,,,,,,,,,4,,,57,0
79200,note_on,120,0,11,,,,,,,,,11,,,49,0
79200,note_on,0,0,11,,,,,,,,,11,,,47,100
79200,note_on,120,0,1,,,,,,,,,0,,,86,100
79200,note_on,120,0,4,,,,,,,,,3,,,57,0
79200,note_on,0,0,2,,,,,,,,,1,,,76,0
79200,note_on,120,0,9,,,,,,,,,8,,,61,0
79200,note_on,0,0,4,,,,,,,,,3,,,62,100
79230,note_on,0,0,11,,,,,,,,,11,,,50,100
79230,note_on,0,0,9,,,,,,,,,8,,,62,100
79230,note_on,30,0,3,,,,,,,,,2,,,59,0
79230,note_on,0,0,3,,,,,,,,,2,,,62,100
79230,note_on,0,0,10,,,,,,,,,10,,,62,100
79230,note_on,30,0,10,,,,,,,,,10,,,59,0
79230,note_on,30,0,11,,,,,,,,,11,,,47,0
79230,note_on,30,0,9,,,,,,,,,8,,,59,0
79260,note_on,30,0,3,,,,,,,,,2,,,62,0
79260,note_on,0,0,10,,,,,,,,,10,,,61,100
79260,note_on,0,0,3,,,,,,,,,2,,,61,100
79260,note_on,0,0,9,,,,,,,,,8,,,61,100
79260,note_on,30,0,9,,,,,,,,,8,,,62,0
79260,note_on,30,0,10,,,,,,,,,10,,,62,0
79260,note_on,30,0,11,,,,,,,,,11,,,50,0
79260,note_on,0,0,11,,,,,,,,,11,,,49,100
79290,note_on,30,0,9,,,,,,,,,8,,,61,0
79290,note_on,0,0,9,,,,,,,,,8,,,59,100
79290,note_on,30,0,10,,,,,,,,,10,,,61,0
79290,note_on,0,0,3,,,,,,,,,2,,,59,100
79290,note_on,30,0,3,,,,,,,,,2,,,61,0
79290,note_on,30,0,11,,,,,,,,,11,,,49,0
79290,note_on,0,0,11,,,,,,,,,11,,,47,100
79290,note_on,0,0,10,,,,,,,,,10,,,59,100
79320,note_on,0,0,11,,,,,,,,,11,,,52,100
79320,note_on,0,0,2,,,,,,,,,1,,,79,100
79320,note_on,120,0,6,,,,,,,,,5,,,45,100
79320,note_on,30,0,10,,,,,,,,,10,,,59,0
79320,note_on,0,0,10,,,,,,,,,10,,,64,100
79320,note_on,120,0,4,,,,,,,,,3,,,62,0
79320,note_on,120,0,1,,,,,,,,,0,,,81,0
79320,note_on,30,0,11,,,,,,,,,11,,,47,0
79320,note_on,0,0,2,,,,,,,,,1,,,74,0
79320,note_on,240,0,7,,,,,,,,,6,,,81,0
79320,note_on,0,0,9,,,,,,,,,8,,,64,100
79320,note_on,30,0,9,,,,,,,,,8,,,59,0
79320,note_on,0,0,8,,,,,,,,,7,,,79,100
79320,note_on,240,0,8,,,,,,,,,7,,,81,0
79320,note_on,0,0,5,,,,,,,,,4,,,76,100
79320,note_on,120,0,5,,,,,,,,,4,,,69,100
79320,note_on,0,0,2,,,,,,,,,1,,,76,100
79320,note_on,0,0,7,,,,,,,,,6,,,79,100
79320,note_on,0,0,4,,,,,,,,,3,,,69,0
79320,note_on,0,0,1,,,,,,,,,0,,,79,100
79320,note_on,0,0,3,,,,,,,,,2,,,64,100
79320,note_on,30,0,3,,,,,,,,,2,,,59,0
79320,note_on,120,0,2,,,,,,,,,1,,,78,0
79320,note_on,0,0,4,,,,,,,,,3,,,67,100
79320,note_on,0,0,4,,,,,,,,,3,,,64,100
79410,note_on,90,0,11,,,,,,,,,11,,,52,0
79410,note_on,90,0,3,,,,,,,,,2,,,64,0
79410,note_on,90,0,10,,,,,,,,,10,,,64,0
79410,note_on,90,0,9,,,,,,,,,8,,,64,0
79440,note_on,0,0,5,,,,,,,,,4,,,78,100
79440,note_on,120,0,1,,,,,,,,,0,,,79,0
79440,note_on,0,0,1,,,,,,,,,0,,,86,0
79440,note_on,0,0,5,,,,,,,,,4,,,74,100
79440,note_on,0,0,5,,,,,,,,,4,,,69,0
79440,note_on,30,0,9,,,,,,,,,8,,,57,100
79440,note_on,0,0,1,,,,,,,,,0,,,81,100
79440,note_on,30,0,10,,,,,,,,,10,,,57,100
79440,note_on,0,0,1,,,,,,,,,0,,,85,100
79440,note_on,30,0,3,,,,,,,,,2,,,57,100
79440,note_on,30,0,11,,,,,,,,,11,,,45,100
79440,note_on,120,0,6,,,,,,,,,5,,,45,0
79440,note_on,0,0,6,,,,,,,,,5,,,50,100
79440,note_on,120,0,5,,,,,,,,,4,,,76,0
79470,note_on,30,0,9,,,,,,,,,8,,,57,0
79470,note_on,30,0,3,,,,,,,,,2,,,57,0
79470,note_on,0,0,3,,,,,,,,,2,,,61,100
79470,note_on,30,0,11,,,,,,,,,11,,,45,0
79470,note_on,0,0,9,,,,,,,,,8,,,61,100
79470,note_on,0,0,11,,,,,,,,,11,,,49,100
79470,note_on,30,0,10,,,,,,,,,10,,,57,0
79470,note_on,0,0,10,,,,,,,,,10,,,61,100
79500,note_on,0,0,3,,,,,,,,,2,,,59,100
79500,note_on,30,0,3,,,,,,,,,2,,,61,0
79500,note_on,0,0,9,,,,,,,,,8,,,59,100
79500,note_on,30,0,11,,,,,,,,,11,,,49,0
79500,note_on,30,0,10,,,,,,,,,10,,,61,0
79500,note_on,0,0,10,,,,,,,,,10,,,59,100
79500,note_on,30,0,9,,,,,,,,,8,,,61,0
79500,note_on,0,0,11,,,,,,,,,11,,,47,100
79530,note_on,30,0,11,,,,,,,,,11,,,47,0
79530,note_on,30,0,10,,,,,,,,,10,,,59,0
79530,note_on,0,0,3,,,,,,,,,2,,,57,100
79530,note_on,30,0,3,,,,,,,,,2,,,59,0
79530,note_on,30,0,9,,,,,,,,,8,,,59,0
79530,note_on,0,0,10,,,,,,,,,10,,,57,100
79530,note_on,0,0,9,,,,,,,,,8,,,57,100
79530,note_on,0,0,11,,,,,,,,,11,,,45,100
79560,note_on,30,0,9,,,,,,,,,8,,,57,0
79560,note_on,0,0,5,,,,,,,,,4,,,74,0
79560,note_on,0,0,1,,,,,,,,,0,,,90,100
79560,note_on,120,0,5,,,,,,,,,4,,,78,0
79560,note_on,30,0,11,,,,,,,,,11,,,45,0
79560,note_on,30,0,3,,,,,,,,,2,,,57,0
79560,note_on,0,0,3,,,,,,,,,2,,,62,100
79560,note_on,240,0,4,,,,,,,,,3,,,67,0
79560,note_on,120,0,1,,,,,,,,,0,,,85,0
79560,note_on,0,0,9,,,,,,,,,8,,,62,100
79560,note_on,240,0,8,,,,,,,,,7,,,79,0
79560,note_on,0,0,4,,,,,,,,,3,,,64,0
79560,note_on,0,0,4,,,,,,,,,3,,,62,100
79560,note_on,0,0,2,,,,,,,,,1,,,74,100
79560,note_on,0,0,2,,,,,,,,,1,,,78,100
79560,note_on,0,0,10,,,,,,,,,10,,,62,100
79560,note_on,30,0,10,,,,,,,,,10,,,57,0
79560,note_on,0,0,4,,,,,,,,,3,,,66,100
79560,note_on,0,0,7,,,,,,,,,6,,,78,100
79560,note_on,0,0,2,,,,,,,,,1,,,79,0
79560,note_on,240,0,2,,,,,,,,,1,,,76,0
79560,note_on,120,0,6,,,,,,,,,5,,,50,0
79560,note_on,0,0,11,,,,,,,,,11,,,50,100
79560,note_on,240,0,7,,,,,,,,,6,,,79,0
79560,note_on,0,0,8,,,,,,,,,7,,,78,100
79590,note_on,30,0,8,,,,,,,,,7,,,78,0
79590,note_on,0,0,8,,,,,,,,,7,,,81,100
79590,note_on,0,0,7,,,,,,,,,6,,,81,100
79590,note_on,30,0,7,,,,,,,,,6,,,78,0
79620,note_on,0,0,8,,,,,,,,,7,,,79,100
79620,note_on,30,0,7,,,,,,,,,6,,,81,0
79620,note_on,0,0,7,,,,,,,,,6,,,79,100
79620,note_on,30,0,8,,,,,,,,,7,,,81,0
79650,note_on,30,0,8,,,,,,,,,7,,,79,0
79650,note_on,0,0,8,,,,,,,,,7,,,78,100
79650,note_on,90,0,11,,,,,,,,,11,,,50,0
79650,note_on,90,0,10,,,,,,,,,10,,,62,0
79650,note_on,90,0,9,,,,,,,,,8,,,62,0
79650,note_on,90,0,3,,,,,,,,,2,,,62,0
79650,note_on,30,0,7,,,,,,,,,6,,,79,0
79650,note_on,0,0,7,,,,,,,,,6,,,78,100
79680,note_on,120,0,2,,,,,,,,,1,,,74,0
79680,note_on,30,0,10,,,,,,,,,10,,,55,100
79680,note_on,30,0,7,,,,,,,,,6,,,78,0
79680,note_on,0,0,7,,,,,,,,,6,,,83,100
79680,note_on,0,0,2,,,,,,,,,1,,,71,100
79680,note_on,30,0,3,,,,,,,,,2,,,55,100
79680,note_on,30,0,11,,,,,,,,,11,,,43,100
79680,note_on,0,0,8,,,,,,,,,7,,,83,100
79680,note_on,30,0,8,,,,,,,,,7,,,78,0
79680,note_on,0,0,1,,,,,,,,,0,,,83,100
79680,note_on,30,0,9,,,,,,,,,8,,,67,100
79680,note_on,120,0,1,,,,,,,,,0,,,81,0
79710,note_on,30,0,9,,,,,,,,,8,,,67,0
79710,note_on,0,0,9,,,,,,,,,8,,,71,100
79710,note_on,0,0,10,,,,,,,,,10,,,59,100
79710,note_on,30,0,10,,,,,,,,,10,,,55,0
79710,note_on,0,0,11,,,,,,,,,11,,,47,100
79710,note_on,30,0,11,,,,,,,,,11,,,43,0
79710,note_on,0,0,3,,,,,,,,,2,,,59,100
79710,note_on,30,0,3,,,,,,,,,2,,,55,0
79740,note_on,0,0,3,,,,,,,,,2,,,57,100
79740,note_on,30,0,3,,,,,,,,,2,,,59,0
79740,note_on,0,0,9,,,,,,,,,8,,,69,100
79740,note_on,0,0,10,,,,,,,,,10,,,57,100
79740,note_on,30,0,11,,,,,,,,,11,,,47,0
79740,note_on,0,0,11,,,,,,,,,11,,,45,100
79740,note_on,30,0,10,,,,,,,,,10,,,59,0
79740,note_on,30,0,9,,,,,,,,,8,,,71,0
79770,note_on,0,0,10,,,,,,,,,10,,,55,100
79770,note_on,30,0,9,,,,,,,,,8,,,69,0
79770,note_on,30,0,10,,,,,,,,,10,,,57,0
79770,note_on,90,0,7,,,,,,,,,6,,,83,0
79770,note_on,0,0,9,,,,,,,,,8,,,67,100
79770,note_on,90,0,8,,,,,,,,,7,,,83,0
79770,note_on,0,0,11,,,,,,,,,11,,,43,100
79770,note_on,30,0,11,,,,,,,,,11,,,45,0
79770,note_on,30,0,3,,,,,,,,,2,,,57,0
79770,note_on,0,0,3,,,,,,,,,2,,,55,100
79800,note_on,30,0,9,,,,,,,,,8,,,67,0
79800,note_on,30,0,11,,,,,,,,,11,,,43,0
79800,note_on,0,0,4,,,,,,,,,3,,,62,0
79800,note_on,0,0,11,,,,,,,,,11,,,49,100
79800,note_on,240,0,4,,,,,,,,,3,,,66,0
79800,note_on,0,0,9,,,,,,,,,8,,,73,100
79800,note_on,0,0,2,,,,,,,,,1,,,76,100
79800,note_on,0,0,4,,,,,,,,,3,,,67,100
79800,note_on,120,0,2,,,,,,,,,1,,,78,0
79800,note_on,0,0,3,,,,,,,,,2,,,61,100
79800,note_on,30,0,10,,,,,,,,,10,,,55,0
79800,note_on,0,0,10,,,,,,,,,10,,,61,100
79800,note_on,0,0,1,,,,,,,,,0,,,88,100
79800,note_on,30,0,7,,,,,,,,,6,,,76,100
79800,note_on,120,0,1,,,,,,,,,0,,,90,0
79800,note_on,0,0,4,,,,,,,,,3,,,64,100
79800,note_on,30,0,3,,,,,,,,,2,,,55,0
79800,note_on,30,0,8,,,,,,,,,7,,,76,100
79830,note_on,30,0,8,,,,,,,,,7,,,76,0
79830,note_on,30,0,7,,,,,,,,,6,,,76,0
79830,note_on,0,0,7,,,,,,,,,6,,,79,100
79830,note_on,0,0,8,,,,,,,,,7,,,79,100
79860,note_on,30,0,7,,,,,,,,,6,,,79,0
79860,note_on,30,0,8,,,,,,,,,7,,,79,0
79860,note_on,0,0,8,,,,,,,,,7,,,78,100
79860,note_on,0,0,7,,,,,,,,,6,,,78,100
79890,note_on,30,0,8,,,,,,,,,7,,,78,0
79890,note_on,0,0,8,,,,,,,,,7,,,76,100
79890,note_on,90,0,9,,,,,,,,,8,,,73,0
79890,note_on,0,0,7,,,,,,,,,6,,,76,100
79890,note_on,90,0,3,,,,,,,,,2,,,61,0
79890,note_on,30,0,7,,,,,,,,,6,,,78,0
79890,note_on,90,0,10,,,,,,,,,10,,,61,0
79890,note_on,90,0,11,,,,,,,,,11,,,49,0
79920,note_on,120,0,1,,,,,,,,,0,,,83,0
79920,note_on,120,0,2,,,,,,,,,1,,,71,0
79920,note_on,0,0,2,,,,,,,,,1,,,69,100
79920,note_on,0,0,1,,,,,,,,,0,,,81,100
79920,note_on,30,0,3,,,,,,,,,2,,,54,100
79920,note_on,0,0,8,,,,,,,,,7,,,81,100
79920,note_on,30,0,8,,,,,,,,,7,,,76,0
79920,note_on,30,0,10,,,,,,,,,10,,,54,100
79920,note_on,30,0,11,,,,,,,,,11,,,42,100
79920,note_on,30,0,9,,,,,,,,,8,,,66,100
79920,note_on,30,0,7,,,,,,,,,6,,,76,0
79920,note_on,0,0,7,,,,,,,,,6,,,81,100
79950,note_on,0,0,10,,,,,,,,,10,,,57,100
79950,note_on,30,0,3,,,,,,,,,2,,,54,0
79950,note_on,30,0,11,,,,,,,,,11,,,42,0
79950,note_on,30,0,9,,,,,,,,,8,,,66,0
79950,note_on,0,0,3,,,,,,,,,2,,,57,100
79950,note_on,0,0,9,,,,,,,,,8,,,69,100
79950,note_on,30,0,10,,,,,,,,,10,,,54,0
79950,note_on,0,0,11,,,,,,,,,11,,,45,100
79980,note_on,30,0,9,,,,,,,,,8,,,69,0
79980,note_on,0,0,9,,,,,,,,,8,,,67,100
79980,note_on,0,0,3,,,,,,,,,2,,,55,100
79980,note_on,30,0,3,,,,,,,,,2,,,57,0
79980,note_on,0,0,10,,,,,,,,,10,,,55,100
79980,note_on,30,0,10,,,,,,,,,10,,,57,0
79980,note_on,0,0,11,,,,,,,,,11,,,43,100
79980,note_on,30,0,11,,,,,,,,,11,,,45,0
80010,note_on,0,0,9,,,,,,,,,8,,,66,100
80010,note_on,90,0,7,,,,,,,,,6,,,81,0
80010,note_on,30,0,9,,,,,,,,,8,,,67,0
80010,note_on,0,0,11,,,,,,,,,11,,,42,100
80010,note_on,30,0,11,,,,,,,,,11,,,43,0
80010,note_on,0,0,3,,,,,,,,,2,,,54,100
80010,note_on,30,0,3,,,,,,,,,2,,,55,0
80010,note_on,0,0,10,,,,,,,,,10,,,54,100
80010,note_on,90,0,8,,,,,,,,,7,,,81,0
80010,note_on,30,0,10,,,,,,,,,10,,,55,0
80040,note_on,0,0,4,,,,,,,,,3,,,66,100
80040,note_on,0,0,4,,,,,,,,,3,,,62,100
80040,note_on,0,0,4,,,,,,,,,3,,,67,0
80040,note_on,30,0,10,,,,,,,,,10,,,54,0
80040,note_on,0,0,10,,,,,,,,,10,,,59,100
80040,note_on,30,0,7,,,,,,,,,6,,,74,100
80040,note_on,30,0,11,,,,,,,,,11,,,42,0
80040,note_on,30,0,9,,,,,,,,,8,,,66,0
80040,note_on,240,0,4,,,,,,,,,3,,,64,0
80040,note_on,0,0,9,,,,,,,,,8,,,71,100
80040,note_on,0,0,11,,,,,,,,,11,,,47,100
80040,note_on,0,0,3,,,,,,,,,2,,,59,100
80040,note_on,30,0,8,,,,,,,,,7,,,74,100
80040,note_on,30,0,3,,,,,,,,,2,,,54,0
80040,note_on,0,0,2,,,,,,,,,1,,,81,100
80040,note_on,0,0,2,,,,,,,,,1,,,74,100
80040,note_on,0,0,1,,,,,,,,,0,,,86,100
80040,note_on,0,0,2,,,,,,,,,1,,,76,0
80040,note_on,120,0,1,,,,,,,,,0,,,81,0
80040,note_on,120,0,2,,,,,,,,,1,,,69,0
80040,note_on,0,0,1,,,,,,,,,0,,,88,0
80070,note_on,0,0,7,,,,,,,,,6,,,78,100
80070,note_on,30,0,8,,,,,,,,,7,,,74,0
80070,note_on,30,0,7,,,,,,,,,6,,,74,0
80070,note_on,0,0,8,,,,,,,,,7,,,78,100
80100,note_on,30,0,8,,,,,,,,,7,,,78,0
80100,note_on,0,0,7,,,,,,,,,6,,,76,100
80100,note_on,30,0,7,,,,,,,,,6,,,78,0
80100,note_on,0,0,8,,,,,,,,,7,,,76,100
80130,note_on,90,0,11,,,,,,,,,11,,,47,0
80130,note_on,90,0,9,,,,,,,,,8,,,71,0
80130,note_on,0,0,8,,,,,,,,,7,,,74,100
80130,note_on,90,0,3,,,,,,,,,2,,,59,0
80130,note_on,90,0,10,,,,,,,,,10,,,59,0
80130,note_on,30,0,7,,,,,,,,,6,,,76,0
80130,note_on,30,0,8,,,,,,,,,7,,,76,0
80130,note_on,0,0,7,,,,,,,,,6,,,74,100
80160,note_on,30,0,10,,,,,,,,,10,,,52,100
80160,note_on,30,0,3,,,,,,,,,2,,,52,100
80160,note_on,120,0,1,,,,,,,,,0,,,91,100
80160,note_on,30,0,11,,,,,,,,,11,,,40,100
80160,note_on,0,0,7,,,,,,,,,6,,,79,100
80160,note_on,30,0,7,,,,,,,,,6,,,74,0
80160,note_on,0,0,2,,,,,,,,,1,,,83,100
80160,note_on,0,0,4,,,,,,,,,3,,,62,100
80160,note_on,0,0,2,,,,,,,,,1,,,79,100
80160,note_on,0,0,2,,,,,,,,,1,,,74,0
80160,note_on,0,0,8,,,,,,,,,7,,,79,100
80160,note_on,30,0,8,,,,,,,,,7,,,74,0
80160,note_on,120,0,2,,,,,,,,,1,,,81,0
80160,note_on,120,0,4,,,,,,,,,3,,,66,0
80160,note_on,0,0,4,,,,,,,,,3,,,62,0
80160,note_on,30,0,9,,,,,,,,,8,,,64,100
80160,note_on,0,0,4,,,,,,,,,3,,,50,100
80190,note_on,0,0,8,,,,,,,,,7,,,81,100
80190,note_on,30,0,8,,,,,,,,,7,,,79,0
80190,note_on,0,0,7,,,,,,,,,6,,,81,100
80190,note_on,30,0,7,,,,,,,,,6,,,79,0
80220,note_on,0,0,7,,,,,,,,,6,,,83,100
80220,note_on,30,0,7,,,,,,,,,6,,,81,0
80220,note_on,0,0,8,,,,,,,,,7,,,83,100
80220,note_on,30,0,8,,,,,,,,,7,,,81,0
80250,note_on,30,0,7,,,,,,,,,6,,,83,0
80250,note_on,30,0,8,,,,,,,,,7,,,83,0
80250,note_on,0,0,8,,,,,,,,,7,,,81,100
80250,note_on,0,0,7,,,,,,,,,6,,,81,100
80280,note_on,30,0,8,,,,,,,,,7,,,81,0
80280,note_on,0,0,8,,,,,,,,,7,,,79,100
80280,note_on,30,0,7,,,,,,,,,6,,,81,0
80280,note_on,0,0,7,,,,,,,,,6,,,79,100
80310,note_on,30,0,7,,,,,,,,,6,,,79,0
80310,note_on,0,0,7,,,,,,,,,6,,,78,100
80310,note_on,30,0,8,,,,,,,,,7,,,79,0
80310,note_on,0,0,8,,,,,,,,,7,,,78,100
80340,note_on,180,0,3,,,,,,,,,2,,,52,0
80340,note_on,0,0,3,,,,,,,,,2,,,54,100
80340,note_on,0,0,7,,,,,,,,,6,,,76,100
80340,note_on,30,0,7,,,,,,,,,6,,,78,0
80340,note_on,180,0,10,,,,,,,,,10,,,52,0
80340,note_on,0,0,10,,,,,,,,,10,,,54,100
80340,note_on,0,0,8,,,,,,,,,7,,,76,100
80340,note_on,0,0,11,,,,,,,,,11,,,42,100
80340,note_on,180,0,11,,,,,,,,,11,,,40,0
80340,note_on,30,0,8,,,,,,,,,7,,,78,0
80340,note_on,180,0,9,,,,,,,,,8,,,64,0
80340,note_on,0,0,9,,,,,,,,,8,,,66,100
80370,note_on,30,0,11,,,,,,,,,11,,,42,0
80370,note_on,0,0,3,,,,,,,,,2,,,55,100
80370,note_on,30,0,3,,,,,,,,,2,,,54,0
80370,note_on,30,0,8,,,,,,,,,7,,,76,0
80370,note_on,30,0,9,,,,,,,,,8,,,66,0
80370,note_on,0,0,10,,,,,,,,,10,,,57,100
80370,note_on,0,0,11,,,,,,,,,11,,,45,100
80370,note_on,0,0,9,,,,,,,,,8,,,69,100
80370,note_on,30,0,10,,,,,,,,,10,,,54,0
80370,note_on,0,0,7,,,,,,,,,6,,,74,100
80370,note_on,30,0,7,,,,,,,,,6,,,76,0
80370,note_on,0,0,8,,,,,,,,,7,,,74,100
80400,note_on,30,0,9,,,,,,,,,8,,,69,0
80400,note_on,0,0,9,,,,,,,,,8,,,57,100
80400,note_on,0,0,5,,,,,,,,,4,,,69,100
80400,note_on,0,0,7,,,,,,,,,6,,,73,100
80400,note_on,30,0,7,,,,,,,,,6,,,74,0
80400,note_on,840,0,5,,,,,,,,,4,,,57,100
80400,note_on,30,0,8,,,,,,,,,7,,,74,0
80400,note_on,30,0,3,,,,,,,,,2,,,55,0
80400,note_on,0,0,3,,,,,,,,,2,,,57,100
80400,note_on,0,0,4,,,,,,,,,3,,,50,0
80400,note_on,0,0,8,,,,,,,,,7,,,73,100
80400,note_on,840,0,6,,,,,,,,,5,,,45,100
80400,note_on,0,0,4,,,,,,,,,3,,,57,100
80400,note_on,30,0,11,,,,,,,,,11,,,45,0
80400,note_on,240,0,1,,,,,,,,,0,,,86,0
80400,note_on,0,0,2,,,,,,,,,1,,,81,100
80400,note_on,0,0,2,,,,,,,,,1,,,83,0
80400,note_on,0,0,1,,,,,,,,,0,,,85,100
80400,note_on,0,0,11,,,,,,,,,11,,,45,100
80400,note_on,0,0,10,,,,,,,,,10,,,57,100
80400,note_on,30,0,10,,,,,,,,,10,,,57,0
80400,note_on,240,0,2,,,,,,,,,1,,,79,0
80400,note_on,240,0,4,,,,,,,,,3,,,62,0
80400,note_on,0,0,4,,,,,,,,,3,,,64,100
80430,note_on,30,0,7,,,,,,,,,6,,,73,0
80430,note_on,30,0,8,,,,,,,,,7,,,73,0
80430,note_on,0,0,8,,,,,,,,,7,,,74,100
80430,note_on,0,0,7,,,,,,,,,6,,,74,100
80460,note_on,30,0,7,,,,,,,,,6,,,74,0
80460,note_on,30,0,8,,,,,,,,,7,,,74,0
80460,note_on,0,0,8,,,,,,,,,7,,,76,100
80460,note_on,0,0,7,,,,,,,,,6,,,76,100
80490,note_on,30,0,7,,,,,,,,,6,,,76,0
80490,note_on,0,0,7,,,,,,,,,6,,,74,100
80490,note_on,30,0,8,,,,,,,,,7,,,76,0
80490,note_on,0,0,8,,,,,,,,,7,,,74,100
80520,note_on,0,0,7,,,,,,,,,6,,,73,100
80520,note_on,30,0,7,,,,,,,,,6,,,74,0
80520,note_on,0,0,8,,,,,,,,,7,,,73,100
80520,note_on,30,0,8,,,,,,,,,7,,,74,0
80550,note_on,0,0,8,,,,,,,,,7,,,71,100
80550,note_on,30,0,8,,,,,,,,,7,,,73,0
80550,note_on,0,0,7,,,,,,,,,6,,,71,100
80550,note_on,30,0,7,,,,,,,,,6,,,73,0
80580,note_on,180,0,1,,,,,,,,,0,,,85,0
80580,note_on,0,0,2,,,,,,,,,1,,,79,100
80580,note_on,180,0,11,,,,,,,,,11,,,45,0
80580,note_on,0,0,11,,,,,,,,,11,,,47,100
80580,note_on,0,0,8,,,,,,,,,7,,,69,100
80580,note_on,180,0,9,,,,,,,,,8,,,57,0
80580,note_on,180,0,2,,,,,,,,,1,,,81,0
80580,note_on,0,0,9,,,,,,,,,8,,,59,100
80580,note_on,0,0,1,,,,,,,,,0,,,88,100
80580,note_on,180,0,10,,,,,,,,,10,,,57,0
80580,note_on,30,0,7,,,,,,,,,6,,,71,0
80580,note_on,30,0,8,,,,,,,,,7,,,71,0
80580,note_on,0,0,10,,,,,,,,,10,,,59,100
80580,note_on,0,0,3,,,,,,,,,2,,,59,100
80580,note_on,180,0,3,,,,,,,,,2,,,57,0
80580,note_on,0,0,7,,,,,,,,,6,,,69,100
80610,note_on,0,0,3,,,,,,,,,2,,,61,100
80610,note_on,30,0,3,,,,,,,,,2,,,59,0
80610,note_on,0,0,8,,,,,,,,,7,,,67,100
80610,note_on,30,0,8,,,,,,,,,7,,,69,0
80610,note_on,30,0,11,,,,,,,,,11,,,47,0
80610,note_on,30,0,7,,,,,,,,,6,,,69,0
80610,note_on,0,0,11,,,,,,,,,11,,,49,100
80610,note_on,30,0,10,,,,,,,,,10,,,59,0
80610,note_on,0,0,9,,,,,,,,,8,,,61,100
80610,note_on,0,0,10,,,,,,,,,10,,,61,100
80610,note_on,30,0,9,,,,,,,,,8,,,59,0
80610,note_on,0,0,7,,,,,,,,,6,,,67,100
80640,note_on,30,0,11,,,,,,,,,11,,,49,0
80640,note_on,0,0,11,,,,,,,,,11,,,50,100
80640,note_on,30,0,3,,,,,,,,,2,,,61,0
80640,note_on,0,0,3,,,,,,,,,2,,,62,100
80640,note_on,30,0,10,,,,,,,,,10,,,61,0
80640,note_on,0,0,10,,,,,,,,,10,,,62,100
80640,note_on,0,0,5,,,,,,,,,4,,,62,100
80640,note_on,0,0,5,,,,,,,,,4,,,57,0
80640,note_on,240,0,5,,,,,,,,,4,,,69,0
80640,note_on,0,0,2,,,,,,,,,1,,,74,100
80640,note_on,60,0,2,,,,,,,,,1,,,79,0
80640,note_on,0,0,5,,,,,,,,,4,,,69,100
80640,note_on,0,0,2,,,,,,,,,1,,,78,100
80640,note_on,30,0,8,,,,,,,,,7,,,67,0
80640,note_on,0,0,8,,,,,,,,,7,,,66,100
80640,note_on,0,0,6,,,,,,,,,5,,,50,100
80640,note_on,240,0,6,,,,,,,,,5,,,45,0
80640,note_on,240,0,4,,,,,,,,,3,,,64,0
80640,note_on,0,0,4,,,,,,,,,3,,,57,0
80640,note_on,0,0,7,,,,,,,,,6,,,66,100
80640,note_on,30,0,7,,,,,,,,,6,,,67,0
80640,note_on,30,0,9,,,,,,,,,8,,,61,0
80640,note_on,0,0,4,,,,,,,,,3,,,62,100
80640,note_on,0,0,4,,,,,,,,,3,,,66,100
80640,note_on,60,0,1,,,,,,,,,0,,,88,0
80640,note_on,0,0,1,,,,,,,,,0,,,91,0
80640,note_on,0,0,1,,,,,,,,,0,,,90,100
80640,note_on,0,0,1,,,,,,,,,0,,,86,100
80640,note_on,0,0,9,,,,,,,,,8,,,62,100
80670,note_on,30,0,7,,,,,,,,,6,,,66,0
80670,note_on,0,0,7,,,,,,,,,6,,,69,100
80670,note_on,0,0,8,,,,,,,,,7,,,69,100
80670,note_on,30,0,8,,,,,,,,,7,,,66,0
80700,note_on,30,0,8,,,,,,,,,7,,,69,0
80700,note_on,0,0,8,,,,,,,,,7,,,74,100
80700,note_on,30,0,7,,,,,,,,,6,,,69,0
80700,note_on,0,0,7,,,,,,,,,6,,,74,100
80730,note_on,30,0,8,,,,,,,,,7,,,74,0
80730,note_on,0,0,8,,,,,,,,,7,,,78,100
80730,note_on,30,0,7,,,,,,,,,6,,,74,0
80730,note_on,0,0,7,,,,,,,,,6,,,78,100
80760,note_on,30,0,8,,,,,,,,,7,,,78,0
80760,note_on,120,0,9,,,,,,,,,8,,,62,0
80760,note_on,0,0,4,,,,,,,,,3,,,66,0
80760,note_on,120,0,1,,,,,,,,,0,,,86,0
80760,note_on,0,0,1,,,,,,,,,0,,,90,0
80760,note_on,120,0,4,,,,,,,,,3,,,62,0
80760,note_on,120,0,11,,,,,,,,,11,,,50,0
80760,note_on,120,0,3,,,,,,,,,2,,,62,0
80760,note_on,120,0,10,,,,,,,,,10,,,62,0
80760,note_on,0,0,7,,,,,,,,,6,,,81,100
80760,note_on,30,0,7,,,,,,,,,6,,,78,0
80760,note_on,0,0,5,,,,,,,,,4,,,62,0
80760,note_on,120,0,5,,,,,,,,,4,,,69,0
80760,note_on,120,0,2,,,,,,,,,1,,,78,0
80760,note_on,0,0,2,,,,,,,,,1,,,74,0
80760,note_on,0,0,8,,,,,,,,,7,,,81,100
80796,note_on,36,0,7,,,,,,,,,6,,,81,0
80796,note_on,36,0,8,,,,,,,,,7,,,81,0
80820,note_on,24,0,7,,,,,,,,,6,,,81,100
80820,note_on,0,0,2,,,,,,,,,1,,,78,100
80820,note_on,60,0,1,,,,,,,,,0,,,90,100
80820,note_on,0,0,1,,,,,,,,,0,,,86,100
80820,note_on,60,0,4,,,,,,,,,3,,,62,100
80820,note_on,0,0,4,,,,,,,,,3,,,66,100
80820,note_on,60,0,3,,,,,,,,,2,,,50,100
80820,note_on,0,0,3,,,,,,,,,2,,,54,100
80820,note_on,60,0,2,,,,,,,,,1,,,74,100
80820,note_on,24,0,8,,,,,,,,,7,,,81,100
80856,note_on,36,0,8,,,,,,,,,7,,,81,0
80856,note_on,36,0,7,,,,,,,,,6,,,81,0
80880,note_on,60,0,2,,,,,,,,,1,,,78,0
80880,note_on,0,0,2,,,,,,,,,1,,,74,0
80880,note_on,240,0,6,,,,,,,,,5,,,50,0
80880,note_on,0,0,2,,,,,,,,,1,,,79,100
80880,note_on,0,0,2,,,,,,,,,1,,,76,100
80880,note_on,0,0,3,,,,,,,,,2,,,55,100
80880,note_on,0,0,4,,,,,,,,,3,,,67,100
80880,note_on,0,0,1,,,,,,,,,0,,,91,100
80880,note_on,0,0,1,,,,,,,,,0,,,88,100
80880,note_on,0,0,1,,,,,,,,,0,,,90,0
80880,note_on,0,0,4,,,,,,,,,3,,,64,100
80880,note_on,0,0,3,,,,,,,,,2,,,52,100
80880,note_on,0,0,3,,,,,,,,,2,,,50,0
80880,note_on,60,0,1,,,,,,,,,0,,,86,0
80880,note_on,24,0,8,,,,,,,,,7,,,81,100
80880,note_on,60,0,4,,,,,,,,,3,,,66,0
80880,note_on,0,0,4,,,,,,,,,3,,,62,0
80880,note_on,24,0,7,,,,,,,,,6,,,81,100
80880,note_on,60,0,3,,,,,,,,,2,,,54,0
80916,note_on,36,0,7,,,,,,,,,6,,,81,0
80916,note_on,36,0,8,,,,,,,,,7,,,81,0
80940,note_on,60,0,3,,,,,,,,,2,,,52,0
80940,note_on,0,0,3,,,,,,,,,2,,,55,0
80940,note_on,0,0,3,,,,,,,,,2,,,50,100
80940,note_on,0,0,3,,,,,,,,,2,,,54,100
80940,note_on,60,0,1,,,,,,,,,0,,,91,0
80940,note_on,0,0,1,,,,,,,,,0,,,88,0
80940,note_on,0,0,1,,,,,,,,,0,,,86,100
80940,note_on,0,0,1,,,,,,,,,0,,,90,100
80940,note_on,0,0,2,,,,,,,,,1,,,79,0
80940,note_on,24,0,7,,,,,,,,,6,,,81,100
80940,note_on,60,0,4,,,,,,,,,3,,,64,0
80940,note_on,60,0,2,,,,,,,,,1,,,76,0
80940,note_on,0,0,2,,,,,,,,,1,,,78,100
80940,note_on,0,0,4,,,,,,,,,3,,,62,100
80940,note_on,0,0,4,,,,,,,,,3,,,66,100
80940,note_on,0,0,4,,,,,,,,,3,,,67,0
80940,note_on,0,0,2,,,,,,,,,1,,,74,100
80940,note_on,24,0,8,,,,,,,,,7,,,81,100
80976,note_on,36,0,7,,,,,,,,,6,,,81,0
80976,note_on,36,0,8,,,,,,,,,7,,,81,0
81000,note_on,60,0,2,,,,,,,,,1,,,78,0
81000,note_on,0,0,2,,,,,,,,,1,,,74,0
81000,note_on,0,0,2,,,,,,,,,1,,,76,100
81000,note_on,0,0,1,,,,,,,,,0,,,91,100
81000,note_on,240,0,9,,,,,,,,,8,,,69,100
81000,note_on,60,0,4,,,,,,,,,3,,,62,0
81000,note_on,60,0,1,,,,,,,,,0,,,90,0
81000,note_on,0,0,1,,,,,,,,,0,,,86,0
81000,note_on,0,0,1,,,,,,,,,0,,,88,100
81000,note_on,0,0,2,,,,,,,,,1,,,79,100
81000,note_on,0,0,4,,,,,,,,,3,,,66,0
81000,note_on,0,0,4,,,,,,,,,3,,,67,100
81000,note_on,0,0,5,,,,,,,,,4,,,69,100
81000,note_on,24,0,8,,,,,,,,,7,,,81,100
81000,note_on,60,0,3,,,,,,,,,2,,,54,0
81000,note_on,0,0,3,,,,,,,,,2,,,50,0
81000,note_on,0,0,3,,,,,,,,,2,,,55,100
81000,note_on,0,0,3,,,,,,,,,2,,,52,100
81000,note_on,0,0,4,,,,,,,,,3,,,64,100
81000,note_on,240,0,11,,,,,,,,,11,,,45,100
81000,note_on,240,0,5,,,,,,,,,4,,,57,100
81000,note_on,240,0,10,,,,,,,,,10,,,57,100
81000,note_on,120,0,6,,,,,,,,,5,,,45,100
81000,note_on,24,0,7,,,,,,,,,6,,,81,100
81036,note_on,36,0,8,,,,,,,,,7,,,81,0
81036,note_on,36,0,7,,,,,,,,,6,,,81,0
81060,note_on,60,0,1,,,,,,,,,0,,,91,0
81060,note_on,0,0,4,,,,,,,,,3,,,64,100
81060,note_on,0,0,2,,,,,,,,,1,,,76,100
81060,note_on,0,0,2,,,,,,,,,1,,,76,0
81060,note_on,0,0,2,,,,,,,,,1,,,73,100
81060,note_on,0,0,1,,,,,,,,,0,,,88,100
81060,note_on,0,0,1,,,,,,,,,0,,,85,100
81060,note_on,60,0,2,,,,,,,,,1,,,79,0
81060,note_on,60,0,4,,,,,,,,,3,,,64,0
81060,note_on,0,0,4,,,,,,,,,3,,,67,0
81060,note_on,24,0,8,,,,,,,,,7,,,81,100
81060,note_on,60,0,3,,,,,,,,,2,,,52,0
81060,note_on,0,0,3,,,,,,,,,2,,,55,0
81060,note_on,0,0,3,,,,,,,,,2,,,49,100
81060,note_on,0,0,3,,,,,,,,,2,,,52,100
81060,note_on,0,0,4,,,,,,,,,3,,,57,100
81060,note_on,0,0,1,,,,,,,,,0,,,88,0
81060,note_on,24,0,7,,,,,,,,,6,,,81,100
81096,note_on,36,0,7,,,,,,,,,6,,,81,0
81096,note_on,36,0,8,,,,,,,,,7,,,81,0
81120,note_on,120,0,5,,,,,,,,,4,,,69,0
81120,note_on,0,0,4,,,,,,,,,3,,,62,100
81120,note_on,60,0,1,,,,,,,,,0,,,88,0
81120,note_on,0,0,1,,,,,,,,,0,,,85,0
81120,note_on,24,0,8,,,,,,,,,7,,,81,100
81120,note_on,0,0,5,,,,,,,,,4,,,62,100
81120,note_on,0,0,4,,,,,,,,,3,,,64,0
81120,note_on,60,0,4,,,,,,,,,3,,,57,0
81120,note_on,0,0,5,,,,,,,,,4,,,69,100
81120,note_on,0,0,1,,,,,,,,,0,,,90,100
81120,note_on,0,0,2,,,,,,,,,1,,,78,100
81120,note_on,0,0,9,,,,,,,,,8,,,62,100
81120,note_on,120,0,9,,,,,,,,,8,,,69,0
81120,note_on,0,0,5,,,,,,,,,4,,,57,0
81120,note_on,0,0,1,,,,,,,,,0,,,86,100
81120,note_on,0,0,3,,,,,,,,,2,,,54,100
81120,note_on,0,0,2,,,,,,,,,1,,,73,0
81120,note_on,24,0,7,,,,,,,,,6,,,81,100
81120,note_on,0,0,3,,,,,,,,,2,,,50,100
81120,note_on,120,0,11,,,,,,,,,11,,,45,0
81120,note_on,120,0,6,,,,,,,,,5,,,45,0
81120,note_on,0,0,3,,,,,,,,,2,,,49,0
81120,note_on,0,0,11,,,,,,,,,11,,,38,100
81120,note_on,0,0,6,,,,,,,,,5,,,50,100
81120,note_on,0,0,10,,,,,,,,,10,,,50,100
81120,note_on,120,0,10,,,,,,,,,10,,,57,0
81120,note_on,0,0,4,,,,,,,,,3,,,66,100
81120,note_on,60,0,2,,,,,,,,,1,,,76,0
81120,note_on,60,0,3,,,,,,,,,2,,,52,0
81120,note_on,0,0,2,,,,,,,,,1,,,74,100
81150,note_on,30,0,8,,,,,,,,,7,,,81,0
81150,note_on,0,0,8,,,,,,,,,7,,,78,100
81150,note_on,30,0,7,,,,,,,,,6,,,81,0
81150,note_on,0,0,7,,,,,,,,,6,,,78,100
81180,note_on,30,0,8,,,,,,,,,7,,,78,0
81180,note_on,0,0,8,,,,,,,,,7,,,74,100
81180,note_on,0,0,7,,,,,,,,,6,,,74,100
81180,note_on,30,0,7,,,,,,,,,6,,,78,0
81210,note_on,0,0,8,,,,,,,,,7,,,78,100
81210,note_on,30,0,8,,,,,,,,,7,,,74,0
81210,note_on,30,0,7,,,,,,,,,6,,,74,0
81210,note_on,0,0,7,,,,,,,,,6,,,78,100
81240,note_on,30,0,8,,,,,,,,,7,,,78,0
81240,note_on,0,0,5,,,,,,,,,4,,,69,0
81240,note_on,120,0,5,,,,,,,,,4,,,62,0
81240,note_on,0,0,7,,,,,,,,,6,,,81,100
81240,note_on,0,0,3,,,,,,,,,2,,,50,0
81240,note_on,120,0,3,,,,,,,,,2,,,54,0
81240,note_on,120,0,9,,,,,,,,,8,,,62,0
81240,note_on,0,0,2,,,,,,,,,1,,,74,0
81240,note_on,120,0,2,,,,,,,,,1,,,78,0
81240,note_on,120,0,10,,,,,,,,,10,,,50,0
81240,note_on,0,0,8,,,,,,,,,7,,,81,100
81240,note_on,30,0,7,,,,,,,,,6,,,78,0
81240,note_on,120,0,6,,,,,,,,,5,,,50,0
81240,note_on,120,0,11,,,,,,,,,11,,,38,0
81240,note_on,0,0,4,,,,,,,,,3,,,62,0
81240,note_on,120,0,1,,,,,,,,,0,,,90,0
81240,note_on,0,0,1,,,,,,,,,0,,,86,0
81240,note_on,120,0,4,,,,,,,,,3,,,66,0
81276,note_on,36,0,7,,,,,,,,,6,,,81,0
81276,note_on,36,0,8,,,,,,,,,7,,,81,0
81300,note_on,60,0,4,,,,,,,,,3,,,62,100
81300,note_on,24,0,8,,,,,,,,,7,,,81,100
81300,note_on,0,0,3,,,,,,,,,2,,,50,100
81300,note_on,60,0,3,,,,,,,,,2,,,54,100
81300,note_on,0,0,2,,,,,,,,,1,,,74,100
81300,note_on,60,0,1,,,,,,,,,0,,,90,100
81300,note_on,24,0,7,,,,,,,,,6,,,81,100
81300,note_on,0,0,4,,,,,,,,,3,,,66,100
81300,note_on,60,0,2,,,,,,,,,1,,,78,100
81300,note_on,0,0,1,,,,,,,,,0,,,86,100
81336,note_on,36,0,7,,,,,,,,,6,,,81,0
81336,note_on,36,0,8,,,,,,,,,7,,,81,0
81360,note_on,0,0,3,,,,,,,,,2,,,52,100
81360,note_on,0,0,1,,,,,,,,,0,,,91,100
81360,note_on,0,0,1,,,,,,,,,0,,,88,100
81360,note_on,0,0,3,,,,,,,,,2,,,55,100
81360,note_on,0,0,1,,,,,,,,,0,,,90,0
81360,note_on,0,0,2,,,,,,,,,1,,,76,100
81360,note_on,24,0,8,,,,,,,,,7,,,81,100
81360,note_on,0,0,3,,,,,,,,,2,,,54,0
81360,note_on,0,0,2,,,,,,,,,1,,,78,0
81360,note_on,60,0,2,,,,,,,,,1,,,74,0
81360,note_on,24,0,7,,,,,,,,,6,,,81,100
81360,note_on,60,0,1,,,,,,,,,0,,,86,0
81360,note_on,60,0,3,,,,,,,,,2,,,50,0
81360,note_on,0,0,2,,,,,,,,,1,,,79,100
81360,note_on,0,0,4,,,,,,,,,3,,,64,100
81360,note_on,0,0,4,,,,,,,,,3,,,62,0
81360,note_on,0,0,4,,,,,,,,,3,,,67,100
81360,note_on,60,0,4,,,,,,,,,3,,,66,0
81396,note_on,36,0,7,,,,,,,,,6,,,81,0
81396,note_on,36,0,8,,,,,,,,,7,,,81,0
81420,note_on,60,0,4,,,,,,,,,3,,,64,0
81420,note_on,0,0,1,,,,,,,,,0,,,90,100
81420,note_on,0,0,1,,,,,,,,,0,,,86,100
81420,note_on,24,0,7,,,,,,,,,6,,,81,100
81420,note_on,60,0,1,,,,,,,,,0,,,91,0
81420,note_on,0,0,3,,,,,,,,,2,,,54,100
81420,note_on,0,0,3,,,,,,,,,2,,,55,0
81420,note_on,60,0,3,,,,,,,,,2,,,52,0
81420,note_on,24,0,8,,,,,,,,,7,,,81,100
81420,note_on,0,0,1,,,,,,,,,0,,,88,0
81420,note_on,0,0,3,,,,,,,,,2,,,50,100
81420,note_on,0,0,2,,,,,,,,,1,,,74,100
81420,note_on,0,0,2,,,,,,,,,1,,,76,0
81420,note_on,60,0,2,,,,,,,,,1,,,79,0
81420,note_on,0,0,4,,,,,,,,,3,,,67,0
81420,note_on,0,0,4,,,,,,,,,3,,,62,100
81420,note_on,0,0,4,,,,,,,,,3,,,66,100
81420,note_on,0,0,2,,,,,,,,,1,,,78,100
81456,note_on,36,0,8,,,,,,,,,7,,,81,0
81456,note_on,36,0,7,,,,,,,,,6,,,81,0
81480,note_on,0,0,4,,,,,,,,,3,,,64,100
81480,note_on,24,0,7,,,,,,,,,6,,,81,100
81480,note_on,60,0,4,,,,,,,,,3,,,66,0
81480,note_on,240,0,9,,,,,,,,,8,,,69,100
81480,note_on,24,0,8,,,,,,,,,7,,,81,100
81480,note_on,60,0,1,,,,,,,,,0,,,90,0
81480,note_on,0,0,1,,,,,,,,,0,,,86,0
81480,note_on,0,0,1,,,,,,,,,0,,,88,100
81480,note_on,240,0,10,,,,,,,,,10,,,57,100
81480,note_on,0,0,4,,,,,,,,,3,,,67,100
81480,note_on,0,0,4,,,,,,,,,3,,,62,0
81480,note_on,0,0,3,,,,,,,,,2,,,55,100
81480,note_on,240,0,11,,,,,,,,,11,,,45,100
81480,note_on,60,0,3,,,,,,,,,2,,,54,0
81480,note_on,60,0,2,,,,,,,,,1,,,78,0
81480,note_on,0,0,1,,,,,,,,,0,,,91,100
81480,note_on,240,0,6,,,,,,,,,5,,,45,100
81480,note_on,240,0,5,,,,,,,,,4,,,57,100
81480,note_on,0,0,5,,,,,,,,,4,,,69,100
81480,note_on,0,0,3,,,,,,,,,2,,,52,100
81480,note_on,0,0,2,,,,,,,,,1,,,74,0
81480,note_on,0,0,2,,,,,,,,,1,,,76,100
81480,note_on,0,0,2,,,,,,,,,1,,,79,100
81480,note_on,0,0,3,,,,,,,,,2,,,50,0
81516,note_on,36,0,8,,,,,,,,,7,,,81,0
81516,note_on,36,0,7,,,,,,,,,6,,,81,0
81540,note_on,0,0,2,,,,,,,,,1,,,76,100
81540,note_on,0,0,4,,,,,,,,,3,,,64,100
81540,note_on,0,0,1,,,,,,,,,0,,,88,0
81540,note_on,60,0,1,,,,,,,,,0,,,91,0
81540,note_on,0,0,2,,,,,,,,,1,,,73,100
81540,note_on,0,0,4,,,,,,,,,3,,,57,100
81540,note_on,0,0,1,,,,,,,,,0,,,85,100
81540,note_on,0,0,2,,,,,,,,,1,,,76,0
81540,note_on,24,0,8,,,,,,,,,7,,,81,100
81540,note_on,60,0,2,,,,,,,,,1,,,79,0
81540,note_on,60,0,4,,,,,,,,,3,,,67,0
81540,note_on,0,0,3,,,,,,,,,2,,,52,100
81540,note_on,0,0,3,,,,,,,,,2,,,49,100
81540,note_on,0,0,3,,,,,,,,,2,,,55,0
81540,note_on,60,0,3,,,,,,,,,2,,,52,0
81540,note_on,0,0,4,,,,,,,,,3,,,64,0
81540,note_on,0,0,1,,,,,,,,,0,,,88,100
81540,note_on,24,0,7,,,,,,,,,6,,,81,100
81576,note_on,36,0,8,,,,,,,,,7,,,81,0
81576,note_on,36,0,7,,,,,,,,,6,,,81,0
81600,note_on,0,0,10,,,,,,,,,10,,,50,100
81600,note_on,120,0,6,,,,,,,,,5,,,45,0
81600,note_on,24,0,7,,,,,,,,,6,,,81,100
81600,note_on,60,0,4,,,,,,,,,3,,,64,0
81600,note_on,0,0,4,,,,,,,,,3,,,57,0
81600,note_on,0,0,4,,,,,,,,,3,,,62,100
81600,note_on,0,0,2,,,,,,,,,1,,,73,0
81600,note_on,120,0,10,,,,,,,,,10,,,57,0
81600,note_on,60,0,2,,,,,,,,,1,,,76,0
81600,note_on,0,0,6,,,,,,,,,5,,,50,100
81600,note_on,0,0,4,,,,,,,,,3,,,66,100
81600,note_on,0,0,11,,,,,,,,,11,,,38,100
81600,note_on,120,0,11,,,,,,,,,11,,,45,0
81600,note_on,0,0,2,,,,,,,,,1,,,78,100
81600,note_on,24,0,8,,,,,,,,,7,,,81,100
81600,note_on,0,0,2,,,,,,,,,1,,,74,100
81600,note_on,0,0,1,,,,,,,,,0,,,90,100
81600,note_on,0,0,9,,,,,,,,,8,,,62,100
81600,note_on,120,0,9,,,,,,,,,8,,,69,0
81600,note_on,0,0,5,,,,,,,,,4,,,69,100
81600,note_on,0,0,5,,,,,,,,,4,,,57,0
81600,note_on,120,0,5,,,,,,,,,4,,,69,0
81600,note_on,60,0,1,,,,,,,,,0,,,88,0
81600,note_on,0,0,1,,,,,,,,,0,,,85,0
81600,note_on,0,0,5,,,,,,,,,4,,,62,100
81600,note_on,0,0,1,,,,,,,,,0,,,86,100
81600,note_on,60,0,3,,,,,,,,,2,,,52,0
81600,note_on,0,0,3,,,,,,,,,2,,,49,0
81600,note_on,0,0,3,,,,,,,,,2,,,54,100
81600,note_on,0,0,3,,,,,,,,,2,,,50,100
81630,note_on,30,0,7,,,,,,,,,6,,,81,0
81630,note_on,0,0,8,,,,,,,,,7,,,86,100
81630,note_on,30,0,8,,,,,,,,,7,,,81,0
81630,note_on,0,0,7,,,,,,,,,6,,,86,100
81660,note_on,0,0,8,,,,,,,,,7,,,85,100
81660,note_on,30,0,8,,,,,,,,,7,,,86,0
81660,note_on,30,0,7,,,,,,,,,6,,,86,0
81660,note_on,0,0,7,,,,,,,,,6,,,85,100
81690,note_on,30,0,7,,,,,,,,,6,,,85,0
81690,note_on,0,0,7,,,,,,,,,6,,,83,100
81690,note_on,0,0,8,,,,,,,,,7,,,83,100
81690,note_on,30,0,8,,,,,,,,,7,,,85,0
81720,note_on,120,0,3,,,,,,,,,2,,,50,0
81720,note_on,0,0,3,,,,,,,,,2,,,54,0
81720,note_on,120,0,1,,,,,,,,,0,,,86,0
81720,note_on,0,0,1,,,,,,,,,0,,,90,0
81720,note_on,120,0,11,,,,,,,,,11,,,38,0
81720,note_on,120,0,5,,,,,,,,,4,,,69,0
81720,note_on,0,0,5,,,,,,,,,4,,,62,0
81720,note_on,120,0,6,,,,,,,,,5,,,50,0
81720,note_on,120,0,9,,,,,,,,,8,,,62,0
81720,note_on,120,0,2,,,,,,,,,1,,,74,0
81720,note_on,30,0,8,,,,,,,,,7,,,83,0
81720,note_on,0,0,7,,,,,,,,,6,,,81,100
81720,note_on,30,0,7,,,,,,,,,6,,,83,0
81720,note_on,0,0,4,,,,,,,,,3,,,62,0
81720,note_on,120,0,4,,,,,,,,,3,,,66,0
81720,note_on,120,0,10,,,,,,,,,10,,,50,0
81720,note_on,0,0,8,,,,,,,,,7,,,81,100
81720,note_on,0,0,2,,,,,,,,,1,,,78,0
81756,note_on,36,0,8,,,,,,,,,7,,,81,0
81756,note_on,36,0,7,,,,,,,,,6,,,81,0
81780,note_on,60,0,1,,,,,,,,,0,,,86,100
81780,note_on,60,0,3,,,,,,,,,2,,,50,100
81780,note_on,0,0,3,,,,,,,,,2,,,54,100
81780,note_on,0,0,2,,,,,,,,,1,,,78,100
81780,note_on,60,0,2,,,,,,,,,1,,,74,100
81780,note_on,24,0,7,,,,,,,,,6,,,81,100
81780,note_on,24,0,8,,,,,,,,,7,,,81,100
81780,note_on,0,0,4,,,,,,,,,3,,,66,100
81780,note_on,0,0,1,,,,,,,,,0,,,90,100
81780,note_on,60,0,4,,,,,,,,,3,,,62,100
81816,note_on,36,0,8,,,,,,,,,7,,,81,0
81816,note_on,36,0,7,,,,,,,,,6,,,81,0
81840,note_on,24,0,8,,,,,,,,,7,,,81,100
81840,note_on,0,0,1,,,,,,,,,0,,,91,100
81840,note_on,24,0,7,,,,,,,,,6,,,81,100
81840,note_on,0,0,1,,,,,,,,,0,,,88,100
81840,note_on,0,0,1,,,,,,,,,0,,,86,0
81840,note_on,0,0,4,,,,,,,,,3,,,62,0
81840,note_on,0,0,2,,,,,,,,,1,,,76,100
81840,note_on,0,0,2,,,,,,,,,1,,,74,0
81840,note_on,60,0,4,,,,,,,,,3,,,66,0
81840,note_on,60,0,3,,,,,,,,,2,,,54,0
81840,note_on,0,0,3,,,,,,,,,2,,,50,0
81840,note_on,0,0,3,,,,,,,,,2,,,52,100
81840,note_on,0,0,3,,,,,,,,,2,,,55,100
81840,note_on,0,0,2,,,,,,,,,1,,,79,100
81840,note_on,0,0,4,,,,,,,,,3,,,64,100
81840,note_on,0,0,4,,,,,,,,,3,,,67,100
81840,note_on,60,0,2,,,,,,,,,1,,,78,0
81840,note_on,60,0,1,,,,,,,,,0,,,90,0
81876,note_on,36,0,7,,,,,,,,,6,,,81,0
81876,note_on,36,0,8,,,,,,,,,7,,,81,0
81900,note_on,24,0,8,,,,,,,,,7,,,81,100
81900,note_on,0,0,3,,,,,,,,,2,,,54,100
81900,note_on,24,0,7,,,,,,,,,6,,,81,100
81900,note_on,60,0,1,,,,,,,,,0,,,91,0
81900,note_on,0,0,3,,,,,,,,,2,,,50,100
81900,note_on,0,0,1,,,,,,,,,0,,,88,0
81900,note_on,0,0,1,,,,,,,,,0,,,86,100
81900,note_on,60,0,3,,,,,,,,,2,,,55,0
81900,note_on,0,0,1,,,,,,,,,0,,,90,100
81900,note_on,0,0,2,,,,,,,,,1,,,74,100
81900,note_on,60,0,4,,,,,,,,,3,,,64,0
81900,note_on,0,0,2,,,,,,,,,1,,,78,100
81900,note_on,0,0,2,,,,,,,,,1,,,76,0
81900,note_on,60,0,2,,,,,,,,,1,,,79,0
81900,note_on,0,0,4,,,,,,,,,3,,,67,0
81900,note_on,0,0,4,,,,,,,,,3,,,62,100
81900,note_on,0,0,4,,,,,,,,,3,,,66,100
81900,note_on,0,0,3,,,,,,,,,2,,,52,0
81936,note_on,36,0,8,,,,,,,,,7,,,81,0
81936,note_on,36,0,7,,,,,,,,,6,,,81,0
81960,note_on,0,0,4,,,,,,,,,3,,,62,0
81960,note_on,0,0,1,,,,,,,,,0,,,91,100
81960,note_on,0,0,1,,,,,,,,,0,,,88,100
81960,note_on,0,0,1,,,,,,,,,0,,,86,0
81960,note_on,0,0,2,,,,,,,,,1,,,79,100
81960,note_on,0,0,2,,,,,,,,,1,,,76,100
81960,note_on,0,0,2,,,,,,,,,1,,,78,0
81960,note_on,60,0,2,,,,,,,,,1,,,74,0
81960,note_on,240,0,11,,,,,,,,,11,,,45,100
81960,note_on,60,0,1,,,,,,,,,0,,,90,0
81960,note_on,240,0,5,,,,,,,,,4,,,57,100
81960,note_on,0,0,3,,,,,,,,,2,,,52,100
81960,note_on,0,0,3,,,,,,,,,2,,,50,0
81960,note_on,60,0,4,,,,,,,,,3,,,66,0
81960,note_on,0,0,4,,,,,,,,,3,,,67,100
81960,note_on,0,0,4,,,,,,,,,3,,,64,100
81960,note_on,240,0,10,,,,,,,,,10,,,57,100
81960,note_on,60,0,3,,,,,,,,,2,,,54,0
81960,note_on,24,0,8,,,,,,,,,7,,,81,100
81960,note_on,24,0,7,,,,,,,,,6,,,81,100
81960,note_on,0,0,5,,,,,,,,,4,,,69,100
81960,note_on,240,0,9,,,,,,,,,8,,,69,100
81960,note_on,0,0,3,,,,,,,,,2,,,55,100
81960,note_on,240,0,6,,,,,,,,,5,,,45,100
81996,note_on,36,0,7,,,,,,,,,6,,,81,0
81996,note_on,36,0,8,,,,,,,,,7,,,81,0
82020,note_on,0,0,3,,,,,,,,,2,,,52,100
82020,note_on,0,0,3,,,,,,,,,2,,,49,100
82020,note_on,0,0,4,,,,,,,,,3,,,64,100
82020,note_on,0,0,4,,,,,,,,,3,,,57,100
82020,note_on,0,0,4,,,,,,,,,3,,,67,0
82020,note_on,0,0,3,,,,,,,,,2,,,52,0
82020,note_on,60,0,4,,,,,,,,,3,,,64,0
82020,note_on,60,0,3,,,,,,,,,2,,,55,0
82020,note_on,24,0,8,,,,,,,,,7,,,81,100
82020,note_on,0,0,2,,,,,,,,,1,,,73,100
82020,note_on,0,0,2,,,,,,,,,1,,,76,100
82020,note_on,60,0,1,,,,,,,,,0,,,91,0
82020,note_on,0,0,1,,,,,,,,,0,,,88,0
82020,note_on,0,0,1,,,,,,,,,0,,,85,100
82020,note_on,0,0,1,,,,,,,,,0,,,88,100
82020,note_on,0,0,2,,,,,,,,,1,,,76,0
82020,note_on,24,0,7,,,,,,,,,6,,,81,100
82020,note_on,60,0,2,,,,,,,,,1,,,79,0
82056,note_on,36,0,8,,,,,,,,,7,,,81,0
82056,note_on,36,0,7,,,,,,,,,6,,,81,0
82080,note_on,0,0,6,,,,,,,,,5,,,50,100
82080,note_on,0,0,4,,,,,,,,,3,,,66,100
82080,note_on,24,0,8,,,,,,,,,7,,,81,100
82080,note_on,60,0,3,,,,,,,,,2,,,52,0
82080,note_on,0,0,9,,,,,,,,,8,,,74,100
82080,note_on,0,0,3,,,,,,,,,2,,,50,100
82080,note_on,24,0,7,,,,,,,,,6,,,81,100
82080,note_on,120,0,10,,,,,,,,,10,,,57,0
82080,note_on,0,0,10,,,,,,,,,10,,,62,100
82080,note_on,120,0,9,,,,,,,,,8,,,69,0
82080,note_on,0,0,3,,,,,,,,,2,,,54,100
82080,note_on,0,0,3,,,,,,,,,2,,,49,0
82080,note_on,60,0,2,,,,,,,,,1,,,76,0
82080,note_on,60,0,1,,,,,,,,,0,,,88,0
82080,note_on,0,0,1,,,,,,,,,0,,,85,0
82080,note_on,0,0,1,,,,,,,,,0,,,90,100
82080,note_on,0,0,1,,,,,,,,,0,,,86,100
82080,note_on,0,0,4,,,,,,,,,3,,,62,100
82080,note_on,0,0,4,,,,,,,,,3,,,57,0
82080,note_on,120,0,11,,,,,,,,,11,,,45,0
82080,note_on,0,0,5,,,,,,,,,4,,,62,100
82080,note_on,0,0,5,,,,,,,,,4,,,69,100
82080,note_on,0,0,5,,,,,,,,,4,,,57,0
82080,note_on,120,0,5,,,,,,,,,4,,,69,0
82080,note_on,60,0,4,,,,,,,,,3,,,64,0
82080,note_on,120,0,6,,,,,,,,,5,,,45,0
82080,note_on,0,0,2,,,,,,,,,1,,,74,100
82080,note_on,0,0,2,,,,,,,,,1,,,78,100
82080,note_on,0,0,2,,,,,,,,,1,,,73,0
82080,note_on,0,0,11,,,,,,,,,11,,,50,100
82125,note_on,45,0,7,,,,,,,,,6,,,81,0
82125,note_on,45,0,8,,,,,,,,,7,,,81,0
82140,note_on,15,0,7,,,,,,,,,6,,,78,100
82140,note_on,15,0,8,,,,,,,,,7,,,69,100
82170,note_on,30,0,8,,,,,,,,,7,,,69,0
82170,note_on,30,0,7,,,,,,,,,6,,,78,0
82170,note_on,0,0,7,,,,,,,,,6,,,81,100
82170,note_on,0,0,8,,,,,,,,,7,,,74,100
82200,note_on,120,0,6,,,,,,,,,5,,,50,0
82200,note_on,30,0,7,,,,,,,,,6,,,81,0
82200,note_on,0,0,7,,,,,,,,,6,,,86,100
82200,note_on,120,0,2,,,,,,,,,1,,,74,0
82200,note_on,0,0,2,,,,,,,,,1,,,78,0
82200,note_on,0,0,1,,,,,,,,,0,,,90,0
82200,note_on,120,0,1,,,,,,,,,0,,,86,0
82200,note_on,120,0,10,,,,,,,,,10,,,62,0
82200,note_on,120,0,4,,,,,,,,,3,,,66,0
82200,note_on,120,0,11,,,,,,,,,11,,,50,0
82200,note_on,0,0,3,,,,,,,,,2,,,54,0
82200,note_on,120,0,9,,,,,,,,,8,,,74,0
82200,note_on,0,0,4,,,,,,,,,3,,,62,0
82200,note_on,120,0,3,,,,,,,,,2,,,50,0
82200,note_on,30,0,8,,,,,,,,,7,,,74,0
82200,note_on,0,0,8,,,,,,,,,7,,,78,100
82200,note_on,120,0,5,,,,,,,,,4,,,69,0
82200,note_on,0,0,5,,,,,,,,,4,,,62,0
82230,note_on,30,0,8,,,,,,,,,7,,,78,0
82230,note_on,30,0,7,,,,,,,,,6,,,86,0
82260,note_on,0,0,1,,,,,,,,,0,,,85,100
82260,note_on,0,0,2,,,,,,,,,1,,,73,100
82260,note_on,60,0,2,,,,,,,,,1,,,76,100
82260,note_on,60,0,9,,,,,,,,,8,,,69,100
82260,note_on,30,0,8,,,,,,,,,7,,,76,100
82260,note_on,60,0,5,,,,,,,,,4,,,69,100
82260,note_on,60,0,3,,,,,,,,,2,,,57,100
82260,note_on,30,0,7,,,,,,,,,6,,,85,100
82260,note_on,0,0,5,,,,,,,,,4,,,81,100
82260,note_on,60,0,1,,,,,,,,,0,,,88,100
82260,note_on,60,0,10,,,,,,,,,10,,,57,100
82260,note_on,60,0,4,,,,,,,,,3,,,57,100
82260,note_on,60,0,11,,,,,,,,,11,,,45,100
82260,note_on,0,0,4,,,,,,,,,3,,,69,100
82290,note_on,30,0,8,,,,,,,,,7,,,76,0
82290,note_on,30,0,7,,,,,,,,,6,,,85,0
82320,note_on,0,0,4,,,,,,,,,3,,,69,100
82320,note_on,60,0,11,,,,,,,,,11,,,45,0
82320,note_on,60,0,2,,,,,,,,,1,,,73,0
82320,note_on,0,0,2,,,,,,,,,1,,,76,0
82320,note_on,0,0,2,,,,,,,,,1,,,74,100
82320,note_on,0,0,1,,,,,,,,,0,,,86,100
82320,note_on,0,0,1,,,,,,,,,0,,,90,100
82320,note_on,0,0,1,,,,,,,,,0,,,88,0
82320,note_on,60,0,1,,,,,,,,,0,,,85,0
82320,note_on,0,0,11,,,,,,,,,11,,,50,100
82320,note_on,0,0,4,,,,,,,,,3,,,57,0
82320,note_on,60,0,4,,,,,,,,,3,,,69,0
82320,note_on,60,0,5,,,,,,,,,4,,,81,0
82320,note_on,0,0,5,,,,,,,,,4,,,69,0
82320,note_on,0,0,5,,,,,,,,,4,,,69,100
82320,note_on,0,0,5,,,,,,,,,4,,,81,100
82320,note_on,60,0,10,,,,,,,,,10,,,57,0
82320,note_on,0,0,4,,,,,,,,,3,,,57,100
82320,note_on,0,0,2,,,,,,,,,1,,,78,100
82320,note_on,0,0,3,,,,,,,,,2,,,62,100
82320,note_on,60,0,3,,,,,,,,,2,,,57,0
82320,note_on,0,0,10,,,,,,,,,10,,,62,100
82320,note_on,0,0,9,,,,,,,,,8,,,74,100
82320,note_on,60,0,9,,,,,,,,,8,,,69,0
82380,note_on,90,0,8,,,,,,,,,7,,,69,100
82380,note_on,90,0,7,,,,,,,,,6,,,78,100
82410,note_on,30,0,7,,,,,,,,,6,,,78,0
82410,note_on,0,0,7,,,,,,,,,6,,,81,100
82410,note_on,0,0,8,,,,,,,,,7,,,74,100
82410,note_on,30,0,8,,,,,,,,,7,,,69,0
82440,note_on,120,0,9,,,,,,,,,8,,,74,0
82440,note_on,30,0,8,,,,,,,,,7,,,74,0
82440,note_on,120,0,11,,,,,,,,,11,,,50,0
82440,note_on,120,0,5,,,,,,,,,4,,,81,0
82440,note_on,120,0,10,,,,,,,,,10,,,62,0
82440,note_on,120,0,2,,,,,,,,,1,,,78,0
82440,note_on,30,0,7,,,,,,,,,6,,,81,0
82440,note_on,0,0,7,,,,,,,,,6,,,86,100
82440,note_on,120,0,1,,,,,,,,,0,,,86,0
82440,note_on,0,0,1,,,,,,,,,0,,,90,0
82440,note_on,0,0,2,,,,,,,,,1,,,74,0
82440,note_on,0,0,4,,,,,,,,,3,,,57,0
82440,note_on,120,0,4,,,,,,,,,3,,,69,0
82440,note_on,0,0,5,,,,,,,,,4,,,69,0
82440,note_on,120,0,3,,,,,,,,,2,,,62,0
82440,note_on,0,0,8,,,,,,,,,7,,,78,100
82470,note_on,30,0,8,,,,,,,,,7,,,78,0
82470,note_on,30,0,7,,,,,,,,,6,,,86,0
82500,note_on,60,0,2,,,,,,,,,1,,,73,100
82500,note_on,30,0,8,,,,,,,,,7,,,76,100
82500,note_on,60,0,11,,,,,,,,,11,,,45,100
82500,note_on,0,0,2,,,,,,,,,1,,,76,100
82500,note_on,60,0,5,,,,,,,,,4,,,69,100
82500,note_on,60,0,10,,,,,,,,,10,,,57,100
82500,note_on,60,0,1,,,,,,,,,0,,,88,100
82500,note_on,0,0,1,,,,,,,,,0,,,85,100
82500,note_on,60,0,3,,,,,,,,,2,,,57,100
82500,note_on,60,0,9,,,,,,,,,8,,,69,100
82500,note_on,60,0,4,,,,,,,,,3,,,69,100
82500,note_on,0,0,4,,,,,,,,,3,,,57,100
82500,note_on,30,0,7,,,,,,,,,6,,,85,100
82500,note_on,0,0,5,,,,,,,,,4,,,81,100
82530,note_on,30,0,8,,,,,,,,,7,,,76,0
82530,note_on,30,0,7,,,,,,,,,6,,,85,0
82560,note_on,0,0,2,,,,,,,,,1,,,73,0
82560,note_on,60,0,2,,,,,,,,,1,,,76,0
82560,note_on,60,0,9,,,,,,,,,8,,,69,0
82560,note_on,60,0,11,,,,,,,,,11,,,45,0
82560,note_on,0,0,11,,,,,,,,,11,,,47,100
82560,note_on,0,0,4,,,,,,,,,3,,,69,0
82560,note_on,60,0,3,,,,,,,,,2,,,57,0
82560,note_on,0,0,4,,,,,,,,,3,,,54,100
82560,note_on,0,0,4,,,,,,,,,3,,,66,100
82560,note_on,0,0,5,,,,,,,,,4,,,78,100
82560,note_on,0,0,5,,,,,,,,,4,,,66,100
82560,note_on,0,0,5,,,,,,,,,4,,,69,0
82560,note_on,60,0,5,,,,,,,,,4,,,81,0
82560,note_on,60,0,4,,,,,,,,,3,,,57,0
82560,note_on,0,0,3,,,,,,,,,2,,,59,100
82560,note_on,0,0,9,,,,,,,,,8,,,71,100
82560,note_on,0,0,2,,,,,,,,,1,,,71,100
82560,note_on,0,0,10,,,,,,,,,10,,,59,100
82560,note_on,60,0,10,,,,,,,,,10,,,57,0
82560,note_on,0,0,2,,,,,,,,,1,,,74,100
82560,note_on,60,0,1,,,,,,,,,0,,,85,0
82560,note_on,0,0,1,,,,,,,,,0,,,88,0
82560,note_on,0,0,1,,,,,,,,,0,,,83,100
82560,note_on,0,0,1,,,,,,,,,0,,,86,100
82620,note_on,90,0,7,,,,,,,,,6,,,74,100
82620,note_on,90,0,8,,,,,,,,,7,,,66,100
82650,note_on,30,0,8,,,,,,,,,7,,,66,0
82650,note_on,0,0,8,,,,,,,,,7,,,69,100
82650,note_on,30,0,7,,,,,,,,,6,,,74,0
82650,note_on,0,0,7,,,,,,,,,6,,,78,100
82680,note_on,30,0,8,,,,,,,,,7,,,69,0
82680,note_on,120,0,9,,,,,,,,,8,,,71,0
82680,note_on,120,0,2,,,,,,,,,1,,,74,0
82680,note_on,0,0,2,,,,,,,,,1,,,71,0
82680,note_on,120,0,5,,,,,,,,,4,,,78,0
82680,note_on,0,0,5,,,,,,,,,4,,,66,0
82680,note_on,0,0,7,,,,,,,,,6,,,83,100
82680,note_on,0,0,8,,,,,,,,,7,,,74,100
82680,note_on,120,0,11,,,,,,,,,11,,,47,0
82680,note_on,120,0,4,,,,,,,,,3,,,66,0
82680,note_on,30,0,7,,,,,,,,,6,,,78,0
82680,note_on,120,0,1,,,,,,,,,0,,,86,0
82680,note_on,0,0,1,,,,,,,,,0,,,83,0
82680,note_on,120,0,3,,,,,,,,,2,,,59,0
82680,note_on,0,0,4,,,,,,,,,3,,,54,0
82680,note_on,120,0,10,,,,,,,,,10,,,59,0
82710,note_on,30,0,7,,,,,,,,,6,,,83,0
82710,note_on,30,0,8,,,,,,,,,7,,,74,0
82740,note_on,60,0,3,,,,,,,,,2,,,54,100
82740,note_on,0,0,5,,,,,,,,,4,,,66,100
82740,note_on,60,0,10,,,,,,,,,10,,,54,100
82740,note_on,30,0,7,,,,,,,,,6,,,81,100
82740,note_on,60,0,9,,,,,,,,,8,,,66,100
82740,note_on,0,0,1,,,,,,,,,0,,,81,100
82740,note_on,60,0,1,,,,,,,,,0,,,85,100
82740,note_on,60,0,5,,,,,,,,,4,,,78,100
82740,note_on,30,0,8,,,,,,,,,7,,,73,100
82740,note_on,0,0,4,,,,,,,,,3,,,66,100
82740,note_on,60,0,4,,,,,,,,,3,,,54,100
82740,note_on,0,0,2,,,,,,,,,1,,,73,100
82740,note_on,60,0,2,,,,,,,,,1,,,69,100
82740,note_on,60,0,11,,,,,,,,,11,,,42,100
82770,note_on,30,0,7,,,,,,,,,6,,,81,0
82770,note_on,30,0,8,,,,,,,,,7,,,73,0
82800,note_on,0,0,2,,,,,,,,,1,,,74,100
82800,note_on,0,0,2,,,,,,,,,1,,,71,100
82800,note_on,60,0,2,,,,,,,,,1,,,73,0
82800,note_on,60,0,10,,,,,,,,,10,,,54,0
82800,note_on,60,0,1,,,,,,,,,0,,,81,0
82800,note_on,0,0,1,,,,,,,,,0,,,85,0
82800,note_on,0,0,1,,,,,,,,,0,,,86,100
82800,note_on,0,0,1,,,,,,,,,0,,,83,100
82800,note_on,0,0,2,,,,,,,,,1,,,69,0
82800,note_on,0,0,10,,,,,,,,,10,,,59,100
82800,note_on,0,0,3,,,,,,,,,2,,,59,100
82800,note_on,60,0,4,,,,,,,,,3,,,66,0
82800,note_on,0,0,4,,,,,,,,,3,,,54,0
82800,note_on,0,0,4,,,,,,,,,3,,,54,100
82800,note_on,0,0,4,,,,,,,,,3,,,66,100
82800,note_on,60,0,5,,,,,,,,,4,,,66,0
82800,note_on,0,0,5,,,,,,,,,4,,,78,0
82800,note_on,0,0,5,,,,,,,,,4,,,66,100
82800,note_on,60,0,9,,,,,,,,,8,,,66,0
82800,note_on,0,0,5,,,,,,,,,4,,,78,100
82800,note_on,0,0,11,,,,,,,,,11,,,47,100
82800,note_on,60,0,3,,,,,,,,,2,,,54,0
82800,note_on,0,0,9,,,,,,,,,8,,,71,100
82800,note_on,60,0,11,,,,,,,,,11,,,42,0
82860,note_on,90,0,7,,,,,,,,,6,,,74,100
82860,note_on,90,0,8,,,,,,,,,7,,,66,100
82890,note_on,30,0,7,,,,,,,,,6,,,74,0
82890,note_on,0,0,7,,,,,,,,,6,,,78,100
82890,note_on,0,0,8,,,,,,,,,7,,,69,100
82890,note_on,30,0,8,,,,,,,,,7,,,66,0
82920,note_on,120,0,10,,,,,,,,,10,,,59,0
82920,note_on,30,0,7,,,,,,,,,6,,,78,0
82920,note_on,0,0,7,,,,,,,,,6,,,83,100
82920,note_on,120,0,9,,,,,,,,,8,,,71,0
82920,note_on,120,0,1,,,,,,,,,0,,,83,0
82920,note_on,120,0,4,,,,,,,,,3,,,66,0
82920,note_on,30,0,8,,,,,,,,,7,,,69,0
82920,note_on,0,0,8,,,,,,,,,7,,,74,100
82920,note_on,120,0,3,,,,,,,,,2,,,59,0
82920,note_on,120,0,5,,,,,,,,,4,,,66,0
82920,note_on,0,0,5,,,,,,,,,4,,,78,0
82920,note_on,0,0,4,,,,,,,,,3,,,54,0
82920,note_on,0,0,2,,,,,,,,,1,,,74,0
82920,note_on,120,0,2,,,,,,,,,1,,,71,0
82920,note_on,0,0,1,,,,,,,,,0,,,86,0
82920,note_on,120,0,11,,,,,,,,,11,,,47,0
82950,note_on,30,0,8,,,,,,,,,7,,,74,0
82950,note_on,30,0,7,,,,,,,,,6,,,83,0
82980,note_on,30,0,7,,,,,,,,,6,,,81,100
82980,note_on,60,0,11,,,,,,,,,11,,,42,100
82980,note_on,0,0,4,,,,,,,,,3,,,54,100
82980,note_on,60,0,9,,,,,,,,,8,,,66,100
82980,note_on,60,0,1,,,,,,,,,0,,,85,100
82980,note_on,0,0,1,,,,,,,,,0,,,81,100
82980,note_on,60,0,4,,,,,,,,,3,,,66,100
82980,note_on,60,0,3,,,,,,,,,2,,,54,100
82980,note_on,30,0,8,,,,,,,,,7,,,73,100
82980,note_on,60,0,5,,,,,,,,,4,,,78,100
82980,note_on,60,0,10,,,,,,,,,10,,,54,100
82980,note_on,0,0,5,,,,,,,,,4,,,66,100
82980,note_on,60,0,2,,,,,,,,,1,,,73,100
82980,note_on,0,0,2,,,,,,,,,1,,,69,100
83010,note_on,30,0,7,,,,,,,,,6,,,81,0
83010,note_on,30,0,8,,,,,,,,,7,,,73,0
83040,note_on,0,0,5,,,,,,,,,4,,,62,100
83040,note_on,60,0,3,,,,,,,,,2,,,54,0
83040,note_on,0,0,2,,,,,,,,,1,,,71,100
83040,note_on,60,0,4,,,,,,,,,3,,,54,0
83040,note_on,0,0,4,,,,,,,,,3,,,66,0
83040,note_on,0,0,2,,,,,,,,,1,,,73,0
83040,note_on,0,0,4,,,,,,,,,3,,,62,100
83040,note_on,0,0,2,,,,,,,,,1,,,67,100
83040,note_on,0,0,5,,,,,,,,,4,,,74,100
83040,note_on,60,0,2,,,,,,,,,1,,,69,0
83040,note_on,60,0,5,,,,,,,,,4,,,66,0
83040,note_on,0,0,10,,,,,,,,,10,,,55,100
83040,note_on,840,0,6,,,,,,,,,5,,,50,100
83040,note_on,0,0,5,,,,,,,,,4,,,78,0
83040,note_on,0,0,9,,,,,,,,,8,,,67,100
83040,note_on,60,0,9,,,,,,,,,8,,,66,0
83040,note_on,0,0,11,,,,,,,,,11,,,43,100
83040,note_on,60,0,11,,,,,,,,,11,,,42,0
83040,note_on,0,0,4,,,,,,,,,3,,,50,100
83040,note_on,60,0,10,,,,,,,,,10,,,54,0
83040,note_on,0,0,3,,,,,,,,,2,,,55,100
83040,note_on,0,0,1,,,,,,,,,0,,,79,100
83040,note_on,60,0,1,,,,,,,,,0,,,81,0
83040,note_on,0,0,1,,,,,,,,,0,,,85,0
83040,note_on,0,0,1,,,,,,,,,0,,,83,100
83100,note_on,90,0,8,,,,,,,,,7,,,62,100
83100,note_on,90,0,7,,,,,,,,,6,,,71,100
83130,note_on,30,0,8,,,,,,,,,7,,,62,0
83130,note_on,0,0,8,,,,,,,,,7,,,67,100
83130,note_on,30,0,7,,,,,,,,,6,,,71,0
83130,note_on,0,0,7,,,,,,,,,6,,,74,100
83160,note_on,30,0,8,,,,,,,,,7,,,67,0
83160,note_on,120,0,10,,,,,,,,,10,,,55,0
83160,note_on,120,0,6,,,,,,,,,5,,,50,0
83160,note_on,0,0,6,,,,,,,,,5,,,50,100
83160,note_on,0,0,2,,,,,,,,,1,,,67,0
83160,note_on,120,0,2,,,,,,,,,1,,,71,0
83160,note_on,0,0,4,,,,,,,,,3,,,50,0
83160,note_on,120,0,9,,,,,,,,,8,,,67,0
83160,note_on,120,0,3,,,,,,,,,2,,,55,0
83160,note_on,120,0,11,,,,,,,,,11,,,43,0
83160,note_on,0,0,7,,,,,,,,,6,,,79,100
83160,note_on,30,0,7,,,,,,,,,6,,,74,0
83160,note_on,120,0,1,,,,,,,,,0,,,83,0
83160,note_on,0,0,1,,,,,,,,,0,,,79,0
83160,note_on,0,0,5,,,,,,,,,4,,,62,0
83160,note_on,120,0,5,,,,,,,,,4,,,74,0
83160,note_on,120,0,4,,,,,,,,,3,,,62,0
83160,note_on,0,0,8,,,,,,,,,7,,,71,100
83190,note_on,30,0,7,,,,,,,,,6,,,79,0
83190,note_on,30,0,8,,,,,,,,,7,,,71,0
83220,note_on,60,0,2,,,,,,,,,1,,,66,100
83220,note_on,60,0,10,,,,,,,,,10,,,50,100
83220,note_on,0,0,1,,,,,,,,,0,,,81,100
83220,note_on,60,0,11,,,,,,,,,11,,,38,100
83220,note_on,0,0,5,,,,,,,,,4,,,74,100
83220,note_on,60,0,5,,,,,,,,,4,,,62,100
83220,note_on,60,0,3,,,,,,,,,2,,,50,100
83220,note_on,0,0,2,,,,,,,,,1,,,69,100
83220,note_on,60,0,9,,,,,,,,,8,,,62,100
83220,note_on,60,0,4,,,,,,,,,3,,,50,100
83220,note_on,0,0,4,,,,,,,,,3,,,62,100
83220,note_on,60,0,1,,,,,,,,,0,,,78,100
83220,note_on,30,0,7,,,,,,,,,6,,,78,100
83220,note_on,30,0,8,,,,,,,,,7,,,69,100
83250,note_on,30,0,8,,,,,,,,,7,,,69,0
83250,note_on,90,0,6,,,,,,,,,5,,,50,0
83250,note_on,0,0,6,,,,,,,,,5,,,50,100
83250,note_on,30,0,7,,,,,,,,,6,,,78,0
83280,note_on,60,0,4,,,,,,,,,3,,,62,0
83280,note_on,60,0,9,,,,,,,,,8,,,62,0
83280,note_on,0,0,2,,,,,,,,,1,,,66,0
83280,note_on,0,0,2,,,,,,,,,1,,,67,100
83280,note_on,0,0,5,,,,,,,,,4,,,62,100
83280,note_on,0,0,5,,,,,,,,,4,,,74,100
83280,note_on,0,0,5,,,,,,,,,4,,,62,0
83280,note_on,60,0,11,,,,,,,,,11,,,38,0
83280,note_on,0,0,11,,,,,,,,,11,,,43,100
83280,note_on,0,0,9,,,,,,,,,8,,,67,100
83280,note_on,30,0,6,,,,,,,,,5,,,50,0
83280,note_on,0,0,6,,,,,,,,,5,,,50,100
83280,note_on,0,0,1,,,,,,,,,0,,,83,100
83280,note_on,0,0,1,,,,,,,,,0,,,79,100
83280,note_on,0,0,3,,,,,,,,,2,,,55,100
83280,note_on,60,0,3,,,,,,,,,2,,,50,0
83280,note_on,0,0,1,,,,,,,,,0,,,78,0
83280,note_on,60,0,5,,,,,,,,,4,,,74,0
83280,note_on,0,0,10,,,,,,,,,10,,,55,100
83280,note_on,0,0,2,,,,,,,,,1,,,71,100
83280,note_on,60,0,1,,,,,,,,,0,,,81,0
83280,note_on,60,0,2,,,,,,,,,1,,,69,0
83280,note_on,0,0,4,,,,,,,,,3,,,62,100
83280,note_on,60,0,10,,,,,,,,,10,,,50,0
83280,note_on,0,0,4,,,,,,,,,3,,,50,0
83280,note_on,0,0,4,,,,,,,,,3,,,50,100
83340,note_on,90,0,7,,,,,,,,,6,,,71,100
83340,note_on,90,0,8,,,,,,,,,7,,,62,100
83370,note_on,0,0,7,,,,,,,,,6,,,74,100
83370,note_on,0,0,8,,,,,,,,,7,,,67,100
83370,note_on,30,0,8,,,,,,,,,7,,,62,0
83370,note_on,30,0,7,,,,,,,,,6,,,71,0
83400,note_on,30,0,8,,,,,,,,,7,,,67,0
83400,note_on,120,0,2,,,,,,,,,1,,,67,0
83400,note_on,0,0,2,,,,,,,,,1,,,71,0
83400,note_on,120,0,3,,,,,,,,,2,,,55,0
83400,note_on,0,0,1,,,,,,,,,0,,,79,0
83400,note_on,120,0,1,,,,,,,,,0,,,83,0
83400,note_on,120,0,6,,,,,,,,,5,,,50,0
83400,note_on,0,0,6,,,,,,,,,5,,,50,100
83400,note_on,0,0,4,,,,,,,,,3,,,50,0
83400,note_on,120,0,4,,,,,,,,,3,,,62,0
83400,note_on,0,0,8,,,,,,,,,7,,,71,100
83400,note_on,120,0,5,,,,,,,,,4,,,62,0
83400,note_on,120,0,11,,,,,,,,,11,,,43,0
83400,note_on,120,0,10,,,,,,,,,10,,,55,0
83400,note_on,0,0,5,,,,,,,,,4,,,74,0
83400,note_on,120,0,9,,,,,,,,,8,,,67,0
83400,note_on,0,0,7,,,,,,,,,6,,,79,100
83400,note_on,30,0,7,,,,,,,,,6,,,74,0
83430,note_on,30,0,8,,,,,,,,,7,,,71,0
83430,note_on,30,0,7,,,,,,,,,6,,,79,0
83460,note_on,30,0,7,,,,,,,,,6,,,78,100
83460,note_on,0,0,1,,,,,,,,,0,,,81,100
83460,note_on,60,0,1,,,,,,,,,0,,,78,100
83460,note_on,60,0,3,,,,,,,,,2,,,50,100
83460,note_on,60,0,10,,,,,,,,,10,,,50,100
83460,note_on,0,0,2,,,,,,,,,1,,,69,100
83460,note_on,60,0,2,,,,,,,,,1,,,66,100
83460,note_on,60,0,4,,,,,,,,,3,,,62,100
83460,note_on,60,0,9,,,,,,,,,8,,,62,100
83460,note_on,0,0,5,,,,,,,,,4,,,74,100
83460,note_on,60,0,5,,,,,,,,,4,,,62,100
83460,note_on,30,0,8,,,,,,,,,7,,,69,100
83460,note_on,60,0,11,,,,,,,,,11,,,38,100
83460,note_on,0,0,4,,,,,,,,,3,,,50,100
83490,note_on,30,0,7,,,,,,,,,6,,,78,0
83490,note_on,30,0,8,,,,,,,,,7,,,69,0
83520,note_on,0,0,5,,,,,,,,,4,,,69,100
83520,note_on,60,0,1,,,,,,,,,0,,,81,0
83520,note_on,0,0,1,,,,,,,,,0,,,85,100
83520,note_on,0,0,1,,,,,,,,,0,,,76,100
83520,note_on,0,0,2,,,,,,,,,1,,,73,100
83520,note_on,0,0,2,,,,,,,,,1,,,66,0
83520,note_on,60,0,2,,,,,,,,,1,,,69,0
83520,note_on,60,0,10,,,,,,,,,10,,,50,0
83520,note_on,0,0,10,,,,,,,,,10,,,45,100
83520,note_on,60,0,5,,,,,,,,,4,,,74,0
83520,note_on,0,0,5,,,,,,,,,4,,,62,0
83520,note_on,0,0,2,,,,,,,,,1,,,69,100
83520,note_on,0,0,1,,,,,,,,,0,,,78,0
83520,note_on,0,0,11,,,,,,,,,11,,,33,100
83520,note_on,0,0,3,,,,,,,,,2,,,45,100
83520,note_on,60,0,9,,,,,,,,,8,,,62,0
83520,note_on,0,0,9,,,,,,,,,8,,,57,100
83520,note_on,60,0,3,,,,,,,,,2,,,50,0
83520,note_on,0,0,4,,,,,,,,,3,,,57,100
83520,note_on,60,0,4,,,,,,,,,3,,,50,0
83520,note_on,60,0,11,,,,,,,,,11,,,38,0
83520,note_on,0,0,7,,,,,,,,,6,,,76,100
83520,note_on,30,0,7,,,,,,,,,6,,,69,100
83520,note_on,30,0,8,,,,,,,,,7,,,73,100
83520,note_on,0,0,4,,,,,,,,,3,,,62,0
83520,note_on,120,0,6,,,,,,,,,5,,,50,0
83520,note_on,0,0,6,,,,,,,,,5,,,45,100
83550,note_on,30,0,4,,,,,,,,,3,,,57,0
83550,note_on,30,0,5,,,,,,,,,4,,,69,0
83556,note_on,36,0,7,,,,,,,,,6,,,76,0
83556,note_on,36,0,8,,,,,,,,,7,,,73,0
83556,note_on,0,0,7,,,,,,,,,6,,,69,0
83562,note_on,0,0,1,,,,,,,,,0,,,76,0
83562,note_on,42,0,2,,,,,,,,,1,,,69,0
83562,note_on,42,0,3,,,,,,,,,2,,,45,0
83562,note_on,0,0,2,,,,,,,,,1,,,73,0
83562,note_on,42,0,1,,,,,,,,,0,,,85,0
83580,note_on,0,0,2,,,,,,,,,1,,,81,100
83580,note_on,60,0,9,,,,,,,,,8,,,57,0
83580,note_on,0,0,7,,,,,,,,,6,,,81,100
83580,note_on,24,0,7,,,,,,,,,6,,,69,100
83580,note_on,24,0,8,,,,,,,,,7,,,78,100
83580,note_on,18,0,2,,,,,,,,,1,,,78,100
83580,note_on,0,0,1,,,,,,,,,0,,,90,100
83580,note_on,30,0,4,,,,,,,,,3,,,57,100
83580,note_on,60,0,10,,,,,,,,,10,,,45,0
83580,note_on,0,0,9,,,,,,,,,8,,,69,100
83580,note_on,0,0,10,,,,,,,,,10,,,57,100
83580,note_on,18,0,1,,,,,,,,,0,,,81,100
83580,note_on,60,0,11,,,,,,,,,11,,,33,0
83580,note_on,0,0,11,,,,,,,,,11,,,45,100
83580,note_on,30,0,5,,,,,,,,,4,,,69,100
83580,note_on,18,0,3,,,,,,,,,2,,,57,100
83610,note_on,30,0,4,,,,,,,,,3,,,57,0
83610,note_on,30,0,5,,,,,,,,,4,,,69,0
83616,note_on,36,0,7,,,,,,,,,6,,,81,0
83616,note_on,36,0,8,,,,,,,,,7,,,78,0
83616,note_on,0,0,7,,,,,,,,,6,,,69,0
83622,note_on,42,0,3,,,,,,,,,2,,,57,0
83622,note_on,0,0,2,,,,,,,,,1,,,78,0
83622,note_on,0,0,1,,,,,,,,,0,,,81,0
83622,note_on,42,0,1,,,,,,,,,0,,,90,0
83622,note_on,42,0,2,,,,,,,,,1,,,81,0
83640,note_on,0,0,11,,,,,,,,,11,,,45,100
83640,note_on,60,0,11,,,,,,,,,11,,,45,0
83640,note_on,0,0,10,,,,,,,,,10,,,57,100
83640,note_on,60,0,10,,,,,,,,,10,,,57,0
83640,note_on,120,0,6,,,,,,,,,5,,,45,0
83640,note_on,0,0,6,,,,,,,,,5,,,45,100
83640,note_on,18,0,3,,,,,,,,,2,,,57,100
83640,note_on,18,0,2,,,,,,,,,1,,,76,100
83640,note_on,0,0,2,,,,,,,,,1,,,79,100
83640,note_on,24,0,8,,,,,,,,,7,,,76,100
83640,note_on,0,0,1,,,,,,,,,0,,,88,100
83640,note_on,30,0,4,,,,,,,,,3,,,57,100
83640,note_on,60,0,9,,,,,,,,,8,,,69,0
83640,note_on,30,0,5,,,,,,,,,4,,,69,100
83640,note_on,24,0,7,,,,,,,,,6,,,69,100
83640,note_on,0,0,7,,,,,,,,,6,,,79,100
83640,note_on,18,0,1,,,,,,,,,0,,,79,100
83640,note_on,0,0,9,,,,,,,,,8,,,69,100
83670,note_on,30,0,5,,,,,,,,,4,,,69,0
83670,note_on,30,0,4,,,,,,,,,3,,,57,0
83676,note_on,36,0,7,,,,,,,,,6,,,79,0
83676,note_on,36,0,8,,,,,,,,,7,,,76,0
83676,note_on,0,0,7,,,,,,,,,6,,,69,0
83682,note_on,0,0,2,,,,,,,,,1,,,76,0
83682,note_on,42,0,2,,,,,,,,,1,,,79,0
83682,note_on,42,0,3,,,,,,,,,2,,,57,0
83682,note_on,42,0,1,,,,,,,,,0,,,88,0
83682,note_on,0,0,1,,,,,,,,,0,,,79,0
83700,note_on,24,0,8,,,,,,,,,7,,,74,100
83700,note_on,30,0,5,,,,,,,,,4,,,69,100
83700,note_on,0,0,1,,,,,,,,,0,,,86,100
83700,note_on,0,0,9,,,,,,,,,8,,,69,100
83700,note_on,60,0,10,,,,,,,,,10,,,57,0
83700,note_on,18,0,1,,,,,,,,,0,,,78,100
83700,note_on,18,0,3,,,,,,,,,2,,,57,100
83700,note_on,18,0,2,,,,,,,,,1,,,73,100
83700,note_on,30,0,4,,,,,,,,,3,,,57,100
83700,note_on,0,0,10,,,,,,,,,10,,,57,100
83700,note_on,0,0,7,,,,,,,,,6,,,78,100
83700,note_on,60,0,9,,,,,,,,,8,,,69,0
83700,note_on,60,0,11,,,,,,,,,11,,,45,0
83700,note_on,24,0,7,,,,,,,,,6,,,69,100
83700,note_on,0,0,2,,,,,,,,,1,,,78,100
83700,note_on,0,0,11,,,,,,,,,11,,,45,100
83730,note_on,30,0,4,,,,,,,,,3,,,57,0
83730,note_on,30,0,5,,,,,,,,,4,,,69,0
83736,note_on,36,0,8,,,,,,,,,7,,,74,0
83736,note_on,0,0,7,,,,,,,,,6,,,69,0
83736,note_on,36,0,7,,,,,,,,,6,,,78,0
83742,note_on,42,0,1,,,,,,,,,0,,,86,0
83742,note_on,42,0,2,,,,,,,,,1,,,78,0
83742,note_on,0,0,2,,,,,,,,,1,,,73,0
83742,note_on,42,0,3,,,,,,,,,2,,,57,0
83742,note_on,0,0,1,,,,,,,,,0,,,78,0
83760,note_on,24,0,7,,,,,,,,,6,,,69,100
83760,note_on,0,0,9,,,,,,,,,8,,,69,100
83760,note_on,120,0,6,,,,,,,,,5,,,45,0
83760,note_on,60,0,9,,,,,,,,,8,,,69,0
83760,note_on,0,0,7,,,,,,,,,6,,,76,100
83760,note_on,60,0,10,,,,,,,,,10,,,57,0
83760,note_on,0,0,10,,,,,,,,,10,,,57,100
83760,note_on,0,0,6,,,,,,,,,5,,,45,100
83760,note_on,0,0,2,,,,,,,,,1,,,73,100
83760,note_on,30,0,5,,,,,,,,,4,,,69,100
83760,note_on,0,0,1,,,,,,,,,0,,,85,100
83760,note_on,18,0,1,,,,,,,,,0,,,76,100
83760,note_on,18,0,3,,,,,,,,,2,,,57,100
83760,note_on,24,0,8,,,,,,,,,7,,,73,100
83760,note_on,30,0,4,,,,,,,,,3,,,57,100
83760,note_on,60,0,11,,,,,,,,,11,,,45,0
83760,note_on,0,0,11,,,,,,,,,11,,,45,100
83760,note_on,18,0,2,,,,,,,,,1,,,69,100
83790,note_on,30,0,5,,,,,,,,,4,,,69,0
83790,note_on,30,0,4,,,,,,,,,3,,,57,0
83796,note_on,0,0,7,,,,,,,,,6,,,69,0
83796,note_on,36,0,7,,,,,,,,,6,,,76,0
83796,note_on,36,0,8,,,,,,,,,7,,,73,0
83802,note_on,42,0,2,,,,,,,,,1,,,73,0
83802,note_on,0,0,1,,,,,,,,,0,,,76,0
83802,note_on,42,0,1,,,,,,,,,0,,,85,0
83802,note_on,0,0,2,,,,,,,,,1,,,69,0
83802,note_on,42,0,3,,,,,,,,,2,,,57,0
83820,note_on,30,0,5,,,,,,,,,4,,,69,100
83820,note_on,24,0,8,,,,,,,,,7,,,78,100
83820,note_on,24,0,7,,,,,,,,,6,,,69,100
83820,note_on,0,0,10,,,,,,,,,10,,,57,100
83820,note_on,18,0,3,,,,,,,,,2,,,57,100
83820,note_on,30,0,4,,,,,,,,,3,,,57,100
83820,note_on,0,0,7,,,,,,,,,6,,,81,100
83820,note_on,0,0,9,,,,,,,,,8,,,69,100
83820,note_on,60,0,9,,,,,,,,,8,,,69,0
83820,note_on,0,0,11,,,,,,,,,11,,,45,100
83820,note_on,60,0,10,,,,,,,,,10,,,57,0
83820,note_on,60,0,11,,,,,,,,,11,,,45,0
83820,note_on,0,0,2,,,,,,,,,1,,,81,100
83820,note_on,18,0,2,,,,,,,,,1,,,78,100
83820,note_on,18,0,1,,,,,,,,,0,,,81,100
83820,note_on,0,0,1,,,,,,,,,0,,,90,100
83850,note_on,30,0,4,,,,,,,,,3,,,57,0
83850,note_on,30,0,5,,,,,,,,,4,,,69,0
83856,note_on,36,0,7,,,,,,,,,6,,,81,0
83856,note_on,0,0,7,,,,,,,,,6,,,69,0
83856,note_on,36,0,8,,,,,,,,,7,,,78,0
83862,note_on,42,0,3,,,,,,,,,2,,,57,0
83862,note_on,42,0,1,,,,,,,,,0,,,90,0
83862,note_on,0,0,1,,,,,,,,,0,,,81,0
83862,note_on,0,0,2,,,,,,,,,1,,,78,0
83862,note_on,42,0,2,,,,,,,,,1,,,81,0
83880,note_on,18,0,3,,,,,,,,,2,,,57,100
83880,note_on,60,0,11,,,,,,,,,11,,,45,0
83880,note_on,60,0,9,,,,,,,,,8,,,69,0
83880,note_on,0,0,11,,,,,,,,,11,,,45,100
83880,note_on,0,0,6,,,,,,,,,5,,,45,100
83880,note_on,24,0,7,,,,,,,,,6,,,69,100
83880,note_on,120,0,6,,,,,,,,,5,,,45,0
83880,note_on,30,0,4,,,,,,,,,3,,,57,100
83880,note_on,0,0,2,,,,,,,,,1,,,79,100
83880,note_on,18,0,2,,,,,,,,,1,,,76,100
83880,note_on,0,0,7,,,,,,,,,6,,,79,100
83880,note_on,0,0,9,,,,,,,,,8,,,69,100
83880,note_on,30,0,5,,,,,,,,,4,,,69,100
83880,note_on,0,0,10,,,,,,,,,10,,,57,100
83880,note_on,60,0,10,,,,,,,,,10,,,57,0
83880,note_on,18,0,1,,,,,,,,,0,,,79,100
83880,note_on,0,0,1,,,,,,,,,0,,,88,100
83880,note_on,24,0,8,,,,,,,,,7,,,76,100
83910,note_on,30,0,4,,,,,,,,,3,,,57,0
83910,note_on,30,0,5,,,,,,,,,4,,,69,0
83916,note_on,36,0,8,,,,,,,,,7,,,76,0
83916,note_on,36,0,7,,,,,,,,,6,,,79,0
83916,note_on,0,0,7,,,,,,,,,6,,,69,0
83922,note_on,42,0,2,,,,,,,,,1,,,79,0
83922,note_on,0,0,1,,,,,,,,,0,,,79,0
83922,note_on,42,0,3,,,,,,,,,2,,,57,0
83922,note_on,0,0,2,,,,,,,,,1,,,76,0
83922,note_on,42,0,1,,,,,,,,,0,,,88,0
83940,note_on,18,0,1,,,,,,,,,0,,,78,100
83940,note_on,0,0,9,,,,,,,,,8,,,69,100
83940,note_on,30,0,4,,,,,,,,,3,,,57,100
83940,note_on,18,0,2,,,,,,,,,1,,,74,100
83940,note_on,60,0,9,,,,,,,,,8,,,69,0
83940,note_on,30,0,5,,,,,,,,,4,,,69,100
83940,note_on,0,0,11,,,,,,,,,11,,,45,100
83940,note_on,18,0,3,,,,,,,,,2,,,57,100
83940,note_on,0,0,1,,,,,,,,,0,,,86,100
83940,note_on,60,0,11,,,,,,,,,11,,,45,0
83940,note_on,0,0,2,,,,,,,,,1,,,78,100
83940,note_on,24,0,7,,,,,,,,,6,,,69,100
83940,note_on,0,0,7,,,,,,,,,6,,,78,100
83940,note_on,60,0,10,,,,,,,,,10,,,57,0
83940,note_on,0,0,10,,,,,,,,,10,,,57,100
83940,note_on,24,0,8,,,,,,,,,7,,,74,100
83970,note_on,30,0,5,,,,,,,,,4,,,69,0
83970,note_on,30,0,4,,,,,,,,,3,,,57,0
83976,note_on,36,0,7,,,,,,,,,6,,,78,0
83976,note_on,0,0,7,,,,,,,,,6,,,69,0
83976,note_on,36,0,8,,,,,,,,,7,,,74,0
83982,note_on,42,0,3,,,,,,,,,2,,,57,0
83982,note_on,42,0,1,,,,,,,,,0,,,86,0
83982,note_on,0,0,1,,,,,,,,,0,,,78,0
83982,note_on,42,0,2,,,,,,,,,1,,,78,0
83982,note_on,0,0,2,,,,,,,,,1,,,74,0
84000,note_on,24,0,7,,,,,,,,,6,,,76,100
84000,note_on,30,0,5,,,,,,,,,4,,,69,100
84000,note_on,120,0,6,,,,,,,,,5,,,45,0
84000,note_on,60,0,10,,,,,,,,,10,,,57,0
84000,note_on,0,0,10,,,,,,,,,10,,,57,100
84000,note_on,18,0,1,,,,,,,,,0,,,76,100
84000,note_on,0,0,1,,,,,,,,,0,,,85,100
84000,note_on,24,0,8,,,,,,,,,7,,,73,100
84000,note_on,0,0,7,,,,,,,,,6,,,69,100
84000,note_on,30,0,4,,,,,,,,,3,,,57,100
84000,note_on,0,0,6,,,,,,,,,5,,,45,100
84000,note_on,0,0,11,,,,,,,,,11,,,45,100
84000,note_on,0,0,2,,,,,,,,,1,,,76,100
84000,note_on,60,0,9,,,,,,,,,8,,,69,0
84000,note_on,0,0,9,,,,,,,,,8,,,69,100
84000,note_on,18,0,2,,,,,,,,,1,,,73,100
84000,note_on,18,0,3,,,,,,,,,2,,,57,100
84000,note_on,60,0,11,,,,,,,,,11,,,45,0
84030,note_on,30,0,5,,,,,,,,,4,,,69,0
84030,note_on,30,0,4,,,,,,,,,3,,,57,0
84036,note_on,36,0,8,,,,,,,,,7,,,73,0
84036,note_on,0,0,7,,,,,,,,,6,,,76,0
84036,note_on,36,0,7,,,,,,,,,6,,,69,0
84042,note_on,42,0,1,,,,,,,,,0,,,85,0
84042,note_on,42,0,3,,,,,,,,,2,,,57,0
84042,note_on,42,0,2,,,,,,,,,1,,,76,0
84042,note_on,0,0,2,,,,,,,,,1,,,73,0
84042,note_on,0,0,1,,,,,,,,,0,,,76,0
84060,note_on,24,0,8,,,,,,,,,7,,,81,100
84060,note_on,0,0,5,,,,,,,,,4,,,69,100
84060,note_on,60,0,9,,,,,,,,,8,,,69,0
84060,note_on,30,0,4,,,,,,,,,3,,,45,100
84060,note_on,0,0,4,,,,,,,,,3,,,57,100
84060,note_on,18,0,1,,,,,,,,,0,,,81,100
84060,note_on,24,0,7,,,,,,,,,6,,,81,100
84060,note_on,18,0,3,,,,,,,,,2,,,45,100
84060,note_on,30,0,5,,,,,,,,,4,,,57,100
84060,note_on,60,0,11,,,,,,,,,11,,,45,0
84060,note_on,60,0,10,,,,,,,,,10,,,57,0
84060,note_on,18,0,2,,,,,,,,,1,,,81,100
84090,note_on,0,0,4,,,,,,,,,3,,,45,0
84090,note_on,30,0,4,,,,,,,,,3,,,57,0
84090,note_on,30,0,5,,,,,,,,,4,,,69,0
84090,note_on,0,0,5,,,,,,,,,4,,,57,0
84096,note_on,36,0,7,,,,,,,,,6,,,81,0
84096,note_on,36,0,8,,,,,,,,,7,,,81,0
84102,note_on,42,0,1,,,,,,,,,0,,,81,0
84102,note_on,42,0,3,,,,,,,,,2,,,45,0
84102,note_on,42,0,2,,,,,,,,,1,,,81,0
84120,note_on,0,0,4,,,,,,,,,3,,,57,100
84120,note_on,60,0,11,,,,,,,,,11,,,33,100
84120,note_on,0,0,5,,,,,,,,,4,,,69,100
84120,note_on,18,0,2,,,,,,,,,1,,,69,100
84120,note_on,60,0,9,,,,,,,,,8,,,57,100
84120,note_on,30,0,4,,,,,,,,,3,,,45,100
84120,note_on,60,0,10,,,,,,,,,10,,,45,100
84120,note_on,18,0,1,,,,,,,,,0,,,81,100
84120,note_on,24,0,8,,,,,,,,,7,,,69,100
84120,note_on,18,0,3,,,,,,,,,2,,,45,100
84120,note_on,30,0,5,,,,,,,,,4,,,57,100
84120,note_on,0,0,6,,,,,,,,,5,,,45,100
84120,note_on,120,0,6,,,,,,,,,5,,,45,0
84120,note_on,24,0,7,,,,,,,,,6,,,69,100
84150,note_on,0,0,4,,,,,,,,,3,,,45,0
84150,note_on,30,0,4,,,,,,,,,3,,,57,0
84150,note_on,30,0,5,,,,,,,,,4,,,69,0
84150,note_on,0,0,5,,,,,,,,,4,,,57,0
84156,note_on,36,0,7,,,,,,,,,6,,,69,0
84156,note_on,36,0,8,,,,,,,,,7,,,69,0
84162,note_on,42,0,1,,,,,,,,,0,,,81,0
84162,note_on,42,0,2,,,,,,,,,1,,,69,0
84162,note_on,42,0,3,,,,,,,,,2,,,45,0
84180,note_on,60,0,6,,,,,,,,,5,,,45,0
84180,note_on,24,0,7,,,,,,,,,6,,,69,100
84180,note_on,18,0,2,,,,,,,,,1,,,69,100
84180,note_on,60,0,10,,,,,,,,,10,,,45,0
84180,note_on,0,0,10,,,,,,,,,10,,,45,100
84180,note_on,0,0,9,,,,,,,,,8,,,57,100
84180,note_on,60,0,9,,,,,,,,,8,,,57,0
84180,note_on,30,0,4,,,,,,,,,3,,,45,100
84180,note_on,18,0,3,,,,,,,,,2,,,45,100
84180,note_on,0,0,4,,,,,,,,,3,,,57,100
84180,note_on,0,0,6,,,,,,,,,5,,,45,100
84180,note_on,24,0,8,,,,,,,,,7,,,69,100
84180,note_on,18,0,1,,,,,,,,,0,,,81,100
84180,note_on,0,0,5,,,,,,,,,4,,,69,100
84180,note_on,30,0,5,,,,,,,,,4,,,57,100
84180,note_on,60,0,11,,,,,,,,,11,,,33,0
84180,note_on,0,0,11,,,,,,,,,11,,,33,100
84210,note_on,30,0,5,,,,,,,,,4,,,69,0
84210,note_on,0,0,5,,,,,,,,,4,,,57,0
84210,note_on,0,0,4,,,,,,,,,3,,,45,0
84210,note_on,30,0,4,,,,,,,,,3,,,57,0
84216,note_on,36,0,8,,,,,,,,,7,,,69,0
84216,note_on,36,0,7,,,,,,,,,6,,,69,0
84222,note_on,42,0,3,,,,,,,,,2,,,45,0
84222,note_on,42,0,1,,,,,,,,,0,,,81,0
84222,note_on,42,0,2,,,,,,,,,1,,,69,0
84240,note_on,60,0,10,,,,,,,,,10,,,45,0
84240,note_on,0,0,10,,,,,,,,,10,,,45,100
84240,note_on,0,0,4,,,,,,,,,3,,,57,100
84240,note_on,60,0,9,,,,,,,,,8,,,57,0
84240,note_on,24,0,7,,,,,,,,,6,,,69,100
84240,note_on,0,0,5,,,,,,,,,4,,,69,100
84240,note_on,0,0,9,,,,,,,,,8,,,57,100
84240,note_on,18,0,3,,,,,,,,,2,,,45,100
84240,note_on,30,0,5,,,,,,,,,4,,,57,100
84240,note_on,18,0,1,,,,,,,,,0,,,81,100
84240,note_on,60,0,6,,,,,,,,,5,,,45,0
84240,note_on,24,0,8,,,,,,,,,7,,,69,100
84240,note_on,0,0,6,,,,,,,,,5,,,45,100
84240,note_on,0,0,11,,,,,,,,,11,,,33,100
84240,note_on,60,0,11,,,,,,,,,11,,,33,0
84240,note_on,30,0,4,,,,,,,,,3,,,45,100
84240,note_on,18,0,2,,,,,,,,,1,,,69,100
84270,note_on,30,0,4,,,,,,,,,3,,,57,0
84270,note_on,0,0,4,,,,,,,,,3,,,45,0
84270,note_on,30,0,5,,,,,,,,,4,,,69,0
84270,note_on,0,0,5,,,,,,,,,4,,,57,0
84276,note_on,36,0,8,,,,,,,,,7,,,69,0
84276,note_on,36,0,7,,,,,,,,,6,,,69,0
84282,note_on,42,0,2,,,,,,,,,1,,,69,0
84282,note_on,42,0,3,,,,,,,,,2,,,45,0
84282,note_on,42,0,1,,,,,,,,,0,,,81,0
84300,note_on,0,0,10,,,,,,,,,10,,,45,100
84300,note_on,60,0,6,,,,,,,,,5,,,45,0
84300,note_on,0,0,6,,,,,,,,,5,,,45,100
84300,note_on,60,0,10,,,,,,,,,10,,,45,0
84300,note_on,24,0,7,,,,,,,,,6,,,69,100
84300,note_on,0,0,4,,,,,,,,,3,,,57,100
84300,note_on,24,0,8,,,,,,,,,7,,,69,100
84300,note_on,0,0,9,,,,,,,,,8,,,57,100
84300,note_on,18,0,3,,,,,,,,,2,,,45,100
84300,note_on,60,0,11,,,,,,,,,11,,,33,0
84300,note_on,0,0,11,,,,,,,,,11,,,33,100
84300,note_on,30,0,4,,,,,,,,,3,,,45,100
84300,note_on,18,0,1,,,,,,,,,0,,,81,100
84300,note_on,60,0,9,,,,,,,,,8,,,57,0
84300,note_on,18,0,2,,,,,,,,,1,,,69,100
84300,note_on,30,0,5,,,,,,,,,4,,,57,100
84300,note_on,0,0,5,,,,,,,,,4,,,69,100
84330,note_on,30,0,4,,,,,,,,,3,,,57,0
84330,note_on,30,0,5,,,,,,,,,4,,,69,0
84330,note_on,0,0,5,,,,,,,,,4,,,57,0
84330,note_on,0,0,4,,,,,,,,,3,,,45,0
84336,note_on,36,0,8,,,,,,,,,7,,,69,0
84336,note_on,36,0,7,,,,,,,,,6,,,69,0
84342,note_on,42,0,2,,,,,,,,,1,,,69,0
84342,note_on,42,0,1,,,,,,,,,0,,,81,0
84342,note_on,42,0,3,,,,,,,,,2,,,45,0
84360,note_on,30,0,5,,,,,,,,,4,,,57,100
84360,note_on,0,0,11,,,,,,,,,11,,,33,100
84360,note_on,18,0,2,,,,,,,,,1,,,69,100
84360,note_on,60,0,9,,,,,,,,,8,,,57,0
84360,note_on,0,0,9,,,,,,,,,8,,,57,100
84360,note_on,24,0,8,,,,,,,,,7,,,69,100
84360,note_on,24,0,7,,,,,,,,,6,,,69,100
84360,note_on,30,0,4,,,,,,,,,3,,,45,100
84360,note_on,0,0,10,,,,,,,,,10,,,45,100
84360,note_on,18,0,3,,,,,,,,,2,,,45,100
84360,note_on,0,0,5,,,,,,,,,4,,,69,100
84360,note_on,60,0,6,,,,,,,,,5,,,45,0
84360,note_on,60,0,10,,,,,,,,,10,,,45,0
84360,note_on,60,0,11,,,,,,,,,11,,,33,0
84360,note_on,0,0,4,,,,,,,,,3,,,57,100
84360,note_on,18,0,1,,,,,,,,,0,,,81,100
84360,note_on,0,0,6,,,,,,,,,5,,,45,100
84390,note_on,30,0,5,,,,,,,,,4,,,69,0
84390,note_on,0,0,4,,,,,,,,,3,,,45,0
84390,note_on,0,0,5,,,,,,,,,4,,,57,0
84390,note_on,30,0,4,,,,,,,,,3,,,57,0
84396,note_on,36,0,7,,,,,,,,,6,,,69,0
84396,note_on,36,0,8,,,,,,,,,7,,,69,0
84402,note_on,42,0,2,,,,,,,,,1,,,69,0
84402,note_on,42,0,3,,,,,,,,,2,,,45,0
84402,note_on,42,0,1,,,,,,,,,0,,,81,0
84420,note_on,24,0,8,,,,,,,,,7,,,69,100
84420,note_on,60,0,6,,,,,,,,,5,,,45,0
84420,note_on,60,0,10,,,,,,,,,10,,,45,0
84420,note_on,24,0,7,,,,,,,,,6,,,69,100
84420,note_on,0,0,6,,,,,,,,,5,,,45,100
84420,note_on,0,0,5,,,,,,,,,4,,,69,100
84420,note_on,0,0,4,,,,,,,,,3,,,57,100
84420,note_on,18,0,3,,,,,,,,,2,,,45,100
84420,note_on,30,0,4,,,,,,,,,3,,,45,100
84420,note_on,30,0,5,,,,,,,,,4,,,57,100
84420,note_on,0,0,10,,,,,,,,,10,,,45,100
84420,note_on,18,0,2,,,,,,,,,1,,,69,100
84420,note_on,18,0,1,,,,,,,,,0,,,81,100
84420,note_on,0,0,9,,,,,,,,,8,,,57,100
84420,note_on,60,0,9,,,,,,,,,8,,,57,0
84420,note_on,60,0,11,,,,,,,,,11,,,33,0
84420,note_on,0,0,11,,,,,,,,,11,,,33,100
84450,note_on,30,0,5,,,,,,,,,4,,,69,0
84450,note_on,0,0,5,,,,,,,,,4,,,57,0
84450,note_on,30,0,4,,,,,,,,,3,,,57,0
84450,note_on,0,0,4,,,,,,,,,3,,,45,0
84456,note_on,36,0,7,,,,,,,,,6,,,69,0
84456,note_on,36,0,8,,,,,,,,,7,,,69,0
84462,note_on,42,0,2,,,,,,,,,1,,,69,0
84462,note_on,42,0,3,,,,,,,,,2,,,45,0
84462,note_on,42,0,1,,,,,,,,,0,,,81,0
84480,note_on,18,0,3,,,,,,,,,2,,,45,100
84480,note_on,60,0,6,,,,,,,,,5,,,45,0
84480,note_on,0,0,4,,,,,,,,,3,,,57,50
84480,note_on,30,0,4,,,,,,,,,3,,,45,50
84480,note_on,60,0,10,,,,,,,,,10,,,45,0
84480,note_on,0,0,10,,,,,,,,,10,,,45,100
84480,note_on,0,0,6,,,,,,,,,5,,,45,100
84480,note_on,60,0,11,,,,,,,,,11,,,33,0
84480,note_on,18,0,2,,,,,,,,,1,,,69,100
84480,note_on,0,0,11,,,,,,,,,11,,,33,100
84480,note_on,0,0,5,,,,,,,,,4,,,69,100
84480,note_on,24,0,8,,,,,,,,,7,,,69,100
84480,note_on,24,0,7,,,,,,,,,6,,,69,100
84480,note_on,0,0,9,,,,,,,,,8,,,57,100
84480,note_on,60,0,9,,,,,,,,,8,,,57,0
84480,marker,7680,1,0,,,,,,,,,,,,,
84480,note_on,18,0,1,,,,,,,,,0,,,81,100
84480,note_on,30,0,5,,,,,,,,,4,,,57,100
84528,note_on,48,0,7,,,,,,,,,6,,,69,0
84540,note_on,12,0,7,,,,,,,,,6,,,69,50
84600,note_on,120,0,10,,,,,,,,,10,,,45,0
84600,note_on,120,0,6,,,,,,,,,5,,,45,0
84600,note_on,120,0,2,,,,,,,,,1,,,69,0
84600,note_on,120,0,5,,,,,,,,,4,,,69,0
84600,note_on,120,0,3,,,,,,,,,2,,,45,0
84600,note_on,0,0,5,,,,,,,,,4,,,57,0
84600,note_on,120,0,1,,,,,,,,,0,,,81,0
84600,note_on,120,0,11,,,,,,,,,11,,,33,0
84600,note_on,120,0,9,,,,,,,,,8,,,57,0
84600,note_on,120,0,8,,,,,,,,,7,,,69,0
84636,note_on,96,0,7,,,,,,,,,6,,,69,0
84660,note_on,24,0,7,,,,,,,,,6,,,69,50
84756,note_on,96,0,7,,,,,,,,,6,,,69,0
84780,note_on,24,0,7,,,,,,,,,6,,,69,50
84876,note_on,96,0,7,,,,,,,,,6,,,69,0
84900,note_on,24,0,7,,,,,,,,,6,,,69,50
84960,note_on,360,0,8,,,,,,,,,7,,,65,50
84960,note_on,360,0,9,,,,,,,,,8,,,61,50
84996,note_on,96,0,7,,,,,,,,,6,,,69,0
85020,note_on,24,0,7,,,,,,,,,6,,,69,50
85116,note_on,96,0,7,,,,,,,,,6,,,69,0
85140,note_on,24,0,7,,,,,,,,,6,,,69,50
85236,note_on,96,0,7,,,,,,,,,6,,,69,0
85260,note_on,24,0,7,,,,,,,,,6,,,69,50
85356,note_on,96,0,7,,,,,,,,,6,,,69,0
85380,note_on,24,0,7,,,,,,,,,6,,,69,50
85440,note_on,0,0,9,,,,,,,,,8,,,62,50
85440,note_on,0,0,8,,,,,,,,,7,,,66,50
85440,note_on,480,0,8,,,,,,,,,7,,,65,0
85440,note_on,480,0,9,,,,,,,,,8,,,61,0
85476,note_on,96,0,7,,,,,,,,,6,,,69,0
85500,note_on,24,0,7,,,,,,,,,6,,,69,50
85560,note_on,120,0,8,,,,,,,,,7,,,66,0
85560,note_on,0,0,8,,,,,,,,,7,,,67,50
85560,note_on,120,0,9,,,,,,,,,8,,,62,0
85560,note_on,0,0,9,,,,,,,,,8,,,64,50
85596,note_on,96,0,7,,,,,,,,,6,,,69,0
85620,note_on,24,0,7,,,,,,,,,6,,,69,50
85716,note_on,96,0,7,,,,,,,,,6,,,69,0
85740,note_on,24,0,7,,,,,,,,,6,,,69,50
85800,note_on,240,0,9,,,,,,,,,8,,,64,0
85800,note_on,0,0,9,,,,,,,,,8,,,61,50
85800,note_on,240,0,8,,,,,,,,,7,,,67,0
85800,note_on,0,0,8,,,,,,,,,7,,,65,50
85836,note_on,96,0,7,,,,,,,,,6,,,69,0
85860,note_on,24,0,7,,,,,,,,,6,,,69,50
85920,note_on,0,0,8,,,,,,,,,7,,,66,50
85920,note_on,120,0,9,,,,,,,,,8,,,61,0
85920,note_on,0,0,9,,,,,,,,,8,,,62,50
85920,note_on,120,0,8,,,,,,,,,7,,,65,0
85956,note_on,96,0,7,,,,,,,,,6,,,69,0
85980,note_on,24,0,7,,,,,,,,,6,,,69,50
86040,note_on,120,0,8,,,,,,,,,7,,,66,0
86040,note_on,0,0,8,,,,,,,,,7,,,67,50
86040,note_on,0,0,9,,,,,,,,,8,,,64,50
86040,note_on,120,0,9,,,,,,,,,8,,,62,0
86076,note_on,96,0,7,,,,,,,,,6,,,69,0
86100,note_on,24,0,7,,,,,,,,,6,,,69,50
86196,note_on,96,0,7,,,,,,,,,6,,,69,0
86220,note_on,24,0,7,,,,,,,,,6,,,69,50
86280,note_on,0,0,9,,,,,,,,,8,,,61,50
86280,note_on,0,0,8,,,,,,,,,7,,,65,50
86280,note_on,240,0,9,,,,,,,,,8,,,64,0
86280,note_on,240,0,8,,,,,,,,,7,,,67,0
86316,note_on,96,0,7,,,,,,,,,6,,,69,0
86340,note_on,24,0,7,,,,,,,,,6,,,69,50
86400,note_on,1920,0,4,,,,,,,,,3,,,57,0
86400,note_on,0,0,4,,,,,,,,,3,,,45,0
86400,note_on,0,0,8,,,,,,,,,7,,,66,50
86400,note_on,1800,0,2,,,,,,,,,1,,,78,65
86400,note_on,0,0,2,,,,,,,,,1,,,69,65
86400,note_on,120,0,8,,,,,,,,,7,,,65,0
86400,note_on,0,0,9,,,,,,,,,8,,,62,50
86400,note_on,120,0,9,,,,,,,,,8,,,61,0
86436,note_on,96,0,7,,,,,,,,,6,,,69,0
86460,note_on,24,0,7,,,,,,,,,6,,,69,50
86481,control_change,81,0,2,,,,,,,,,1,7,91,,
86500,note_on,40,0,7,,,,,,,,,6,,,69,0
86505,control_change,24,0,2,,,,,,,,,1,7,92,,
86515,control_change,10,0,2,,,,,,,,,1,7,96,,
86520,note_on,20,0,7,,,,,,,,,6,,,69,50
86525,control_change,10,0,2,,,,,,,,,1,7,97,,
86530,control_change,5,0,2,,,,,,,,,1,7,98,,
86560,note_on,40,0,7,,,,,,,,,6,,,69,0
86580,note_on,20,0,7,,,,,,,,,6,,,69,50
86600,control_change,70,0,2,,,,,,,,,1,7,99,,
86620,control_change,20,0,2,,,,,,,,,1,7,100,,
86620,note_on,40,0,7,,,,,,,,,6,,,69,0
86635,control_change,15,0,2,,,,,,,,,1,7,101,,
86640,note_on,240,0,9,,,,,,,,,8,,,62,0
86640,note_on,0,0,9,,,,,,,,,8,,,61,50
86640,note_on,240,0,8,,,,,,,,,7,,,66,0
86640,note_on,0,0,8,,,,,,,,,7,,,64,50
86640,note_on,0,0,2,,,,,,,,,1,,,76,65
86640,note_on,5,0,2,,,,,,,,,1,,,78,0
86640,note_on,20,0,7,,,,,,,,,6,,,69,50
86641,control_change,1,0,2,,,,,,,,,1,7,103,,
86651,control_change,10,0,2,,,,,,,,,1,7,104,,
86656,control_change,5,0,2,,,,,,,,,1,7,105,,
86680,note_on,40,0,7,,,,,,,,,6,,,69,0
86700,note_on,20,0,7,,,,,,,,,6,,,69,50
86700,control_change,44,0,2,,,,,,,,,1,7,106,,
86725,control_change,25,0,2,,,,,,,,,1,7,108,,
86740,note_on,40,0,7,,,,,,,,,6,,,69,0
86745,control_change,20,0,2,,,,,,,,,1,7,110,,
86760,note_on,20,0,7,,,,,,,,,6,,,69,50
86765,control_change,20,0,2,,,,,,,,,1,7,111,,
86780,control_change,15,0,2,,,,,,,,,1,7,112,,
86805,control_change,25,0,2,,,,,,,,,1,7,113,,
86810,note_on,50,0,7,,,,,,,,,6,,,69,0
86820,note_on,10,0,7,,,,,,,,,6,,,71,50
86845,control_change,40,0,2,,,,,,,,,1,7,115,,
86850,note_on,0,0,7,,,,,,,,,6,,,73,50
86850,note_on,30,0,7,,,,,,,,,6,,,71,0
86860,control_change,15,0,2,,,,,,,,,1,7,117,,
86865,control_change,5,0,2,,,,,,,,,1,7,118,,
86880,control_change,0,0,2,,,,,,,,,1,7,119,,
86880,note_on,0,0,7,,,,,,,,,6,,,74,50
86880,note_on,30,0,7,,,,,,,,,6,,,73,0
86880,note_on,15,0,2,,,,,,,,,1,,,76,0
86880,note_on,0,0,2,,,,,,,,,1,,,74,65
86880,note_on,0,0,8,,,,,,,,,7,,,66,50
86880,note_on,240,0,9,,,,,,,,,8,,,61,0
86880,note_on,0,0,9,,,,,,,,,8,,,59,50
86880,note_on,240,0,8,,,,,,,,,7,,,64,0
86905,control_change,25,0,2,,,,,,,,,1,7,120,,
86920,note_on,40,0,7,,,,,,,,,6,,,74,0
86940,note_on,20,0,7,,,,,,,,,6,,,74,50
86945,control_change,40,0,2,,,,,,,,,1,7,122,,
86970,control_change,25,0,2,,,,,,,,,1,7,124,,
86980,note_on,40,0,7,,,,,,,,,6,,,74,0
86986,control_change,16,0,2,,,,,,,,,1,7,125,,
87000,note_on,20,0,7,,,,,,,,,6,,,74,50
87000,control_change,14,0,2,,,,,,,,,1,7,126,,
87025,control_change,25,0,2,,,,,,,,,1,7,127,,
87040,note_on,40,0,7,,,,,,,,,6,,,74,0
87060,note_on,20,0,7,,,,,,,,,6,,,74,50
87100,note_on,40,0,7,,,,,,,,,6,,,74,0
87120,note_on,95,0,2,,,,,,,,,1,,,69,0
87120,note_on,0,0,2,,,,,,,,,1,,,71,65
87120,note_on,0,0,9,,,,,,,,,8,,,52,50
87120,note_on,240,0,8,,,,,,,,,7,,,66,0
87120,note_on,20,0,7,,,,,,,,,6,,,74,50
87120,note_on,0,0,8,,,,,,,,,7,,,68,50
87120,note_on,240,0,9,,,,,,,,,8,,,59,0
87160,note_on,40,0,7,,,,,,,,,6,,,74,0
87180,note_on,20,0,7,,,,,,,,,6,,,74,50
87220,note_on,40,0,7,,,,,,,,,6,,,74,0
87240,note_on,20,0,7,,,,,,,,,6,,,76,50
87250,control_change,130,0,2,,,,,,,,,1,7,125,,
87255,control_change,5,0,2,,,,,,,,,1,7,124,,
87265,control_change,10,0,2,,,,,,,,,1,7,123,,
87270,note_on,30,0,7,,,,,,,,,6,,,76,0
87270,note_on,0,0,7,,,,,,,,,6,,,74,50
87275,control_change,10,0,2,,,,,,,,,1,7,122,,
87280,control_change,5,0,2,,,,,,,,,1,7,121,,
87290,control_change,10,0,2,,,,,,,,,1,7,120,,
87300,note_on,30,0,7,,,,,,,,,6,,,74,0
87300,control_change,10,0,2,,,,,,,,,1,7,118,,
87300,note_on,0,0,7,,,,,,,,,6,,,73,50
87305,control_change,5,0,2,,,,,,,,,1,7,117,,
87315,control_change,10,0,2,,,,,,,,,1,7,116,,
87330,note_on,30,0,7,,,,,,,,,6,,,73,0
87330,control_change,15,0,2,,,,,,,,,1,7,115,,
87330,note_on,0,0,7,,,,,,,,,6,,,74,50
87335,control_change,5,0,2,,,,,,,,,1,7,114,,
87345,control_change,10,0,2,,,,,,,,,1,7,111,,
87355,control_change,10,0,2,,,,,,,,,1,7,110,,
87360,note_on,30,0,7,,,,,,,,,6,,,74,0
87360,note_on,0,0,9,,,,,,,,,8,,,57,50
87360,note_on,240,0,8,,,,,,,,,7,,,68,0
87360,note_on,0,0,8,,,,,,,,,7,,,69,50
87360,note_on,0,0,2,,,,,,,,,1,,,69,65
87360,note_on,0,0,2,,,,,,,,,1,,,74,0
87360,note_on,5,0,2,,,,,,,,,1,,,71,0
87360,note_on,240,0,9,,,,,,,,,8,,,52,0
87360,note_on,0,0,7,,,,,,,,,6,,,73,50
87360,note_on,0,0,2,,,,,,,,,1,,,73,65
87385,control_change,25,0,2,,,,,,,,,1,7,109,,
87400,control_change,15,0,2,,,,,,,,,1,7,106,,
87410,note_on,50,0,9,,,,,,,,,8,,,57,0
87410,note_on,50,0,7,,,,,,,,,6,,,73,0
87410,control_change,10,0,2,,,,,,,,,1,7,104,,
87420,note_on,10,0,9,,,,,,,,,8,,,57,50
87425,control_change,15,0,2,,,,,,,,,1,7,103,,
87435,control_change,10,0,2,,,,,,,,,1,7,99,,
87450,control_change,15,0,2,,,,,,,,,1,7,97,,
87470,note_on,50,0,9,,,,,,,,,8,,,57,0
87475,control_change,25,0,2,,,,,,,,,1,7,96,,
87480,note_on,120,0,8,,,,,,,,,7,,,69,0
87480,note_on,0,0,2,,,,,,,,,1,,,73,0
87480,note_on,5,0,2,,,,,,,,,1,,,69,0
87480,note_on,10,0,9,,,,,,,,,8,,,57,50
87480,note_on,70,0,7,,,,,,,,,6,,,76,50
87491,control_change,11,0,2,,,,,,,,,1,7,95,,
87496,control_change,5,0,2,,,,,,,,,1,7,94,,
87530,note_on,50,0,9,,,,,,,,,8,,,57,0
87530,note_on,50,0,7,,,,,,,,,6,,,76,0
87540,note_on,10,0,9,,,,,,,,,8,,,57,50
87590,note_on,50,0,9,,,,,,,,,8,,,57,0
87600,note_on,10,0,9,,,,,,,,,8,,,57,50
87600,note_on,120,0,8,,,,,,,,,7,,,73,50
87600,note_on,70,0,7,,,,,,,,,6,,,73,50
87650,note_on,50,0,7,,,,,,,,,6,,,73,0
87650,note_on,50,0,9,,,,,,,,,8,,,57,0
87660,note_on,10,0,9,,,,,,,,,8,,,57,50
87710,note_on,50,0,9,,,,,,,,,8,,,57,0
87720,note_on,70,0,7,,,,,,,,,6,,,69,50
87720,note_on,10,0,9,,,,,,,,,8,,,57,50
87745,control_change,249,0,2,,,,,,,,,1,7,90,,
87770,note_on,50,0,7,,,,,,,,,6,,,69,0
87770,note_on,50,0,9,,,,,,,,,8,,,57,0
87780,note_on,10,0,9,,,,,,,,,8,,,59,50
87810,note_on,0,0,9,,,,,,,,,8,,,61,50
87810,note_on,30,0,9,,,,,,,,,8,,,59,0
87840,note_on,0,0,9,,,,,,,,,8,,,62,50
87840,note_on,70,0,7,,,,,,,,,6,,,78,50
87840,note_on,30,0,9,,,,,,,,,8,,,61,0
87890,note_on,50,0,9,,,,,,,,,8,,,62,0
87900,note_on,10,0,9,,,,,,,,,8,,,62,50
87950,note_on,50,0,9,,,,,,,,,8,,,62,0
87960,note_on,10,0,9,,,,,,,,,8,,,62,50
88010,note_on,50,0,9,,,,,,,,,8,,,62,0
88020,note_on,10,0,9,,,,,,,,,8,,,62,50
88070,note_on,50,0,9,,,,,,,,,8,,,62,0
88080,note_on,10,0,9,,,,,,,,,8,,,62,50
88080,note_on,0,0,8,,,,,,,,,7,,,71,50
88080,note_on,480,0,8,,,,,,,,,7,,,73,0
88130,note_on,50,0,9,,,,,,,,,8,,,62,0
88140,note_on,10,0,9,,,,,,,,,8,,,62,50
88190,note_on,50,0,9,,,,,,,,,8,,,62,0
88200,note_on,10,0,9,,,,,,,,,8,,,64,50
88230,note_on,30,0,9,,,,,,,,,8,,,64,0
88230,note_on,0,0,9,,,,,,,,,8,,,62,50
88260,note_on,0,0,9,,,,,,,,,8,,,61,50
88260,note_on,30,0,9,,,,,,,,,8,,,62,0
88290,note_on,30,0,9,,,,,,,,,8,,,61,0
88290,note_on,0,0,9,,,,,,,,,8,,,62,50
88320,note_on,30,0,9,,,,,,,,,8,,,62,0
88320,note_on,0,0,9,,,,,,,,,8,,,61,50
88320,note_on,480,0,7,,,,,,,,,6,,,78,0
88320,note_on,0,0,7,,,,,,,,,6,,,76,50
88360,note_on,40,0,7,,,,,,,,,6,,,76,0
88370,note_on,50,0,9,,,,,,,,,8,,,61,0
88380,note_on,3780,0,10,,,,,,,,,10,,,49,52
88380,note_on,20,0,7,,,,,,,,,6,,,76,52
88380,note_on,3780,0,3,,,,,,,,,2,,,49,52
88420,note_on,40,0,7,,,,,,,,,6,,,76,0
88430,note_on,50,0,3,,,,,,,,,2,,,49,0
88430,note_on,50,0,10,,,,,,,,,10,,,49,0
88440,note_on,10,0,3,,,,,,,,,2,,,49,55
88440,note_on,0,0,8,,,,,,,,,7,,,69,55
88440,note_on,20,0,7,,,,,,,,,6,,,76,55
88440,note_on,70,0,9,,,,,,,,,8,,,64,55
88440,note_on,360,0,8,,,,,,,,,7,,,71,0
88440,note_on,10,0,10,,,,,,,,,10,,,49,55
88480,note_on,40,0,7,,,,,,,,,6,,,76,0
88490,note_on,50,0,3,,,,,,,,,2,,,49,0
88490,note_on,50,0,10,,,,,,,,,10,,,49,0
88490,note_on,50,0,9,,,,,,,,,8,,,64,0
88500,note_on,10,0,10,,,,,,,,,10,,,49,58
88500,note_on,10,0,3,,,,,,,,,2,,,49,58
88500,note_on,20,0,7,,,,,,,,,6,,,76,58
88530,note_on,0,0,8,,,,,,,,,7,,,68,60
88530,note_on,90,0,8,,,,,,,,,7,,,69,0
88540,note_on,40,0,7,,,,,,,,,6,,,76,0
88550,note_on,50,0,10,,,,,,,,,10,,,49,0
88550,note_on,50,0,3,,,,,,,,,2,,,49,0
88560,note_on,10,0,10,,,,,,,,,10,,,49,61
88560,note_on,70,0,9,,,,,,,,,8,,,61,61
88560,note_on,10,0,3,,,,,,,,,2,,,49,61
88560,note_on,0,0,8,,,,,,,,,7,,,69,61
88560,note_on,30,0,8,,,,,,,,,7,,,68,0
88560,note_on,20,0,7,,,,,,,,,6,,,76,61
88600,note_on,40,0,7,,,,,,,,,6,,,76,0
88610,note_on,50,0,9,,,,,,,,,8,,,61,0
88610,note_on,50,0,3,,,,,,,,,2,,,49,0
88610,note_on,50,0,10,,,,,,,,,10,,,49,0
88620,note_on,20,0,7,,,,,,,,,6,,,76,64
88620,note_on,10,0,3,,,,,,,,,2,,,49,64
88620,note_on,10,0,10,,,,,,,,,10,,,49,64
88660,note_on,40,0,7,,,,,,,,,6,,,76,0
88670,note_on,50,0,3,,,,,,,,,2,,,49,0
88670,note_on,50,0,10,,,,,,,,,10,,,49,0
88680,note_on,120,0,8,,,,,,,,,7,,,69,0
88680,note_on,70,0,9,,,,,,,,,8,,,57,67
88680,note_on,20,0,7,,,,,,,,,6,,,76,67
88680,note_on,10,0,3,,,,,,,,,2,,,49,67
88680,note_on,10,0,10,,,,,,,,,10,,,49,67
88680,note_on,0,0,8,,,,,,,,,7,,,76,67
88730,note_on,50,0,3,,,,,,,,,2,,,49,0
88730,note_on,50,0,7,,,,,,,,,6,,,76,0
88730,note_on,50,0,9,,,,,,,,,8,,,57,0
88730,note_on,50,0,10,,,,,,,,,10,,,49,0
88740,note_on,10,0,10,,,,,,,,,10,,,50,70
88740,note_on,10,0,3,,,,,,,,,2,,,50,70
88740,note_on,10,0,7,,,,,,,,,6,,,78,70
88770,note_on,30,0,10,,,,,,,,,10,,,50,0
88770,note_on,0,0,10,,,,,,,,,10,,,52,72
88770,note_on,0,0,3,,,,,,,,,2,,,52,72
88770,note_on,30,0,3,,,,,,,,,2,,,50,0
88770,note_on,30,0,7,,,,,,,,,6,,,78,0
88770,note_on,0,0,7,,,,,,,,,6,,,80,72
88800,note_on,0,0,3,,,,,,,,,2,,,54,73
88800,note_on,70,0,9,,,,,,,,,8,,,61,73
88800,note_on,30,0,3,,,,,,,,,2,,,52,0
88800,note_on,30,0,7,,,,,,,,,6,,,80,0
88800,note_on,0,0,10,,,,,,,,,10,,,54,73
88800,note_on,30,0,10,,,,,,,,,10,,,52,0
88800,note_on,0,0,7,,,,,,,,,6,,,81,73
88840,note_on,40,0,7,,,,,,,,,6,,,81,0
88850,note_on,50,0,10,,,,,,,,,10,,,54,0
88850,note_on,50,0,3,,,,,,,,,2,,,54,0
88860,note_on,20,0,7,,,,,,,,,6,,,81,76
88860,note_on,10,0,10,,,,,,,,,10,,,54,76
88860,note_on,10,0,3,,,,,,,,,2,,,54,76
88900,note_on,40,0,7,,,,,,,,,6,,,81,0
88910,note_on,50,0,3,,,,,,,,,2,,,54,0
88910,note_on,50,0,10,,,,,,,,,10,,,54,0
88920,note_on,0,0,8,,,,,,,,,7,,,75,79
88920,note_on,20,0,7,,,,,,,,,6,,,81,79
88920,note_on,10,0,3,,,,,,,,,2,,,54,79
88920,note_on,240,0,8,,,,,,,,,7,,,76,0
88920,note_on,120,0,9,,,,,,,,,8,,,61,0
88920,note_on,10,0,10,,,,,,,,,10,,,54,79
88920,note_on,0,0,9,,,,,,,,,8,,,63,79
88960,note_on,40,0,7,,,,,,,,,6,,,81,0
88970,note_on,50,0,3,,,,,,,,,2,,,54,0
88970,note_on,50,0,10,,,,,,,,,10,,,54,0
88980,note_on,10,0,3,,,,,,,,,2,,,54,82
88980,note_on,20,0,7,,,,,,,,,6,,,81,82
88980,note_on,10,0,10,,,,,,,,,10,,,54,82
89010,note_on,0,0,9,,,,,,,,,8,,,64,83
89010,note_on,90,0,9,,,,,,,,,8,,,63,0
89010,note_on,90,0,8,,,,,,,,,7,,,75,0
89010,note_on,0,0,8,,,,,,,,,7,,,73,83
89020,note_on,40,0,7,,,,,,,,,6,,,81,0
89030,note_on,50,0,3,,,,,,,,,2,,,54,0
89030,note_on,50,0,10,,,,,,,,,10,,,54,0
89040,note_on,0,0,9,,,,,,,,,8,,,66,85
89040,note_on,30,0,8,,,,,,,,,7,,,73,0
89040,note_on,10,0,10,,,,,,,,,10,,,54,85
89040,note_on,30,0,9,,,,,,,,,8,,,64,0
89040,note_on,10,0,3,,,,,,,,,2,,,54,85
89040,note_on,0,0,8,,,,,,,,,7,,,75,85
89040,note_on,20,0,7,,,,,,,,,6,,,81,85
89055,note_on,15,0,8,,,,,,,,,7,,,75,0
89055,note_on,0,0,8,,,,,,,,,7,,,73,86
89070,note_on,15,0,8,,,,,,,,,7,,,73,0
89070,note_on,0,0,8,,,,,,,,,7,,,75,86
89080,note_on,40,0,7,,,,,,,,,6,,,81,0
89085,note_on,15,0,8,,,,,,,,,7,,,75,0
89085,note_on,0,0,8,,,,,,,,,7,,,73,87
89090,note_on,50,0,3,,,,,,,,,2,,,54,0
89090,note_on,50,0,10,,,,,,,,,10,,,54,0
89100,note_on,15,0,8,,,,,,,,,7,,,73,0
89100,note_on,20,0,7,,,,,,,,,6,,,81,88
89100,note_on,10,0,10,,,,,,,,,10,,,54,88
89100,note_on,10,0,3,,,,,,,,,2,,,54,88
89100,note_on,0,0,8,,,,,,,,,7,,,75,88
89115,note_on,15,0,8,,,,,,,,,7,,,75,0
89115,note_on,0,0,8,,,,,,,,,7,,,73,88
89130,note_on,0,0,8,,,,,,,,,7,,,75,89
89130,note_on,15,0,8,,,,,,,,,7,,,73,0
89140,note_on,40,0,7,,,,,,,,,6,,,81,0
89145,note_on,15,0,8,,,,,,,,,7,,,75,0
89145,note_on,0,0,8,,,,,,,,,7,,,73,90
89150,note_on,50,0,3,,,,,,,,,2,,,54,0
89150,note_on,50,0,10,,,,,,,,,10,,,54,0
89160,note_on,20,0,7,,,,,,,,,6,,,83,91
89160,note_on,10,0,3,,,,,,,,,2,,,56,91
89160,note_on,10,0,10,,,,,,,,,10,,,56,91
89160,note_on,15,0,8,,,,,,,,,7,,,73,0
89160,note_on,0,0,8,,,,,,,,,7,,,75,91
89175,note_on,15,0,8,,,,,,,,,7,,,75,0
89175,note_on,0,0,8,,,,,,,,,7,,,73,91
89190,note_on,15,0,8,,,,,,,,,7,,,73,0
89190,note_on,0,0,8,,,,,,,,,7,,,75,92
89190,note_on,30,0,3,,,,,,,,,2,,,56,0
89190,note_on,30,0,10,,,,,,,,,10,,,56,0
89190,note_on,0,0,3,,,,,,,,,2,,,54,92
89190,note_on,0,0,10,,,,,,,,,10,,,54,92
89190,note_on,0,0,7,,,,,,,,,6,,,81,92
89190,note_on,30,0,7,,,,,,,,,6,,,83,0
89205,note_on,15,0,8,,,,,,,,,7,,,75,0
89205,note_on,0,0,8,,,,,,,,,7,,,73,93
89220,note_on,0,0,8,,,,,,,,,7,,,73,94
89220,note_on,0,0,7,,,,,,,,,6,,,80,94
89220,note_on,0,0,3,,,,,,,,,2,,,52,94
89220,note_on,30,0,3,,,,,,,,,2,,,54,0
89220,note_on,15,0,8,,,,,,,,,7,,,73,0
89220,note_on,30,0,7,,,,,,,,,6,,,81,0
89220,note_on,30,0,10,,,,,,,,,10,,,54,0
89220,note_on,0,0,10,,,,,,,,,10,,,52,94
89250,note_on,0,0,8,,,,,,,,,7,,,76,95
89250,note_on,30,0,7,,,,,,,,,6,,,80,0
89250,note_on,30,0,10,,,,,,,,,10,,,52,0
89250,note_on,0,0,10,,,,,,,,,10,,,54,95
89250,note_on,0,0,7,,,,,,,,,6,,,81,95
89250,note_on,0,0,3,,,,,,,,,2,,,54,95
89250,note_on,30,0,3,,,,,,,,,2,,,52,0
89250,note_on,30,0,8,,,,,,,,,7,,,73,0
89280,note_on,0,0,8,,,,,,,,,7,,,76,97
89280,note_on,30,0,10,,,,,,,,,10,,,54,0
89280,note_on,1535,0,2,,,,,,,,,1,,,76,97
89280,note_on,30,0,7,,,,,,,,,6,,,81,0
89280,note_on,0,0,7,,,,,,,,,6,,,80,97
89280,note_on,0,0,10,,,,,,,,,10,,,52,97
89280,note_on,30,0,8,,,,,,,,,7,,,76,0
89280,note_on,240,0,9,,,,,,,,,8,,,66,0
89280,note_on,30,0,3,,,,,,,,,2,,,54,0
89280,note_on,0,0,3,,,,,,,,,2,,,52,97
89280,note_on,0,0,9,,,,,,,,,8,,,59,97
89330,note_on,50,0,10,,,,,,,,,10,,,52,0
89330,note_on,50,0,3,,,,,,,,,2,,,52,0
89340,note_on,4740,0,11,,,,,,,,,11,,,40,100
89340,note_on,10,0,10,,,,,,,,,10,,,52,100
89340,note_on,10,0,3,,,,,,,,,2,,,52,100
89340,note_on,2940,0,4,,,,,,,,,3,,,64,100
89340,note_on,60,0,7,,,,,,,,,6,,,80,0
89390,note_on,50,0,4,,,,,,,,,3,,,64,0
89390,note_on,50,0,10,,,,,,,,,10,,,52,0
89390,note_on,50,0,11,,,,,,,,,11,,,40,0
89390,note_on,50,0,3,,,,,,,,,2,,,52,0
89400,note_on,10,0,11,,,,,,,,,11,,,40,100
89400,note_on,120,0,9,,,,,,,,,8,,,59,0
89400,note_on,60,0,7,,,,,,,,,6,,,83,110
89400,note_on,10,0,3,,,,,,,,,2,,,52,100
89400,note_on,10,0,4,,,,,,,,,3,,,64,100
89400,note_on,120,0,8,,,,,,,,,7,,,76,0
89400,note_on,10,0,10,,,,,,,,,10,,,52,100
89450,note_on,50,0,7,,,,,,,,,6,,,83,0
89450,note_on,50,0,3,,,,,,,,,2,,,52,0
89450,note_on,50,0,11,,,,,,,,,11,,,40,0
89450,note_on,50,0,10,,,,,,,,,10,,,52,0
89450,note_on,50,0,4,,,,,,,,,3,,,64,0
89460,note_on,10,0,4,,,,,,,,,3,,,64,100
89460,note_on,10,0,11,,,,,,,,,11,,,40,100
89460,note_on,10,0,3,,,,,,,,,2,,,52,100
89460,note_on,10,0,10,,,,,,,,,10,,,52,100
89510,note_on,50,0,4,,,,,,,,,3,,,64,0
89510,note_on,50,0,10,,,,,,,,,10,,,52,0
89510,note_on,50,0,3,,,,,,,,,2,,,52,0
89510,note_on,50,0,11,,,,,,,,,11,,,40,0
89520,note_on,10,0,10,,,,,,,,,10,,,52,100
89520,note_on,10,0,3,,,,,,,,,2,,,52,100
89520,note_on,10,0,4,,,,,,,,,3,,,64,100
89520,note_on,10,0,11,,,,,,,,,11,,,40,100
89520,note_on,70,0,7,,,,,,,,,6,,,80,110
89570,note_on,50,0,4,,,,,,,,,3,,,64,0
89570,note_on,50,0,3,,,,,,,,,2,,,52,0
89570,note_on,50,0,11,,,,,,,,,11,,,40,0
89570,note_on,50,0,10,,,,,,,,,10,,,52,0
89570,note_on,50,0,7,,,,,,,,,6,,,80,0
89580,note_on,10,0,3,,,,,,,,,2,,,52,100
89580,note_on,10,0,4,,,,,,,,,3,,,64,100
89580,note_on,10,0,10,,,,,,,,,10,,,52,100
89580,note_on,10,0,11,,,,,,,,,11,,,40,100
89630,note_on,50,0,10,,,,,,,,,10,,,52,0
89630,note_on,50,0,3,,,,,,,,,2,,,52,0
89630,note_on,50,0,4,,,,,,,,,3,,,64,0
89630,note_on,50,0,11,,,,,,,,,11,,,40,0
89640,note_on,10,0,3,,,,,,,,,2,,,52,100
89640,note_on,70,0,7,,,,,,,,,6,,,76,110
89640,note_on,10,0,11,,,,,,,,,11,,,40,100
89640,note_on,10,0,10,,,,,,,,,10,,,52,100
89640,note_on,10,0,4,,,,,,,,,3,,,64,100
89690,note_on,50,0,11,,,,,,,,,11,,,40,0
89690,note_on,50,0,7,,,,,,,,,6,,,76,0
89690,note_on,50,0,10,,,,,,,,,10,,,52,0
89690,note_on,50,0,4,,,,,,,,,3,,,64,0
89690,note_on,50,0,3,,,,,,,,,2,,,52,0
89700,note_on,10,0,10,,,,,,,,,10,,,54,100
89700,note_on,10,0,3,,,,,,,,,2,,,54,100
89700,note_on,10,0,4,,,,,,,,,3,,,64,100
89700,note_on,10,0,11,,,,,,,,,11,,,42,100
89730,note_on,30,0,11,,,,,,,,,11,,,42,0
89730,note_on,0,0,11,,,,,,,,,11,,,44,100
89730,note_on,0,0,3,,,,,,,,,2,,,56,100
89730,note_on,30,0,10,,,,,,,,,10,,,54,0
89730,note_on,0,0,10,,,,,,,,,10,,,56,100
89730,note_on,30,0,3,,,,,,,,,2,,,54,0
89750,note_on,50,0,4,,,,,,,,,3,,,64,0
89760,note_on,10,0,4,,,,,,,,,3,,,57,100
89760,note_on,0,0,4,,,,,,,,,3,,,64,100
89760,note_on,5160,0,1,,,,,,,,,0,,,85,100
89760,note_on,30,0,10,,,,,,,,,10,,,56,0
89760,note_on,0,0,10,,,,,,,,,10,,,57,100
89760,note_on,30,0,11,,,,,,,,,11,,,44,0
89760,note_on,0,0,11,,,,,,,,,11,,,45,100
89760,note_on,5160,0,6,,,,,,,,,5,,,45,100
89760,note_on,70,0,7,,,,,,,,,6,,,85,100
89760,note_on,0,0,5,,,,,,,,,4,,,76,100
89760,note_on,5160,0,5,,,,,,,,,4,,,69,100
89760,note_on,480,0,2,,,,,,,,,1,,,81,100
89760,note_on,0,0,3,,,,,,,,,2,,,57,100
89760,note_on,30,0,3,,,,,,,,,2,,,56,0
89810,note_on,50,0,7,,,,,,,,,6,,,85,0
89810,note_on,50,0,3,,,,,,,,,2,,,57,0
89820,note_on,420,0,9,,,,,,,,,8,,,57,100
89820,note_on,10,0,7,,,,,,,,,6,,,61,100
89820,note_on,10,0,3,,,,,,,,,2,,,57,100
89870,note_on,50,0,9,,,,,,,,,8,,,57,0
89870,note_on,50,0,3,,,,,,,,,2,,,57,0
89870,note_on,50,0,7,,,,,,,,,6,,,61,0
89880,note_on,120,0,11,,,,,,,,,11,,,45,0
89880,note_on,10,0,9,,,,,,,,,8,,,57,100
89880,note_on,10,0,3,,,,,,,,,2,,,57,100
89880,note_on,120,0,6,,,,,,,,,5,,,45,0
89880,note_on,120,0,10,,,,,,,,,10,,,57,0
89880,note_on,120,0,4,,,,,,,,,3,,,64,0
89880,note_on,0,0,4,,,,,,,,,3,,,57,0
89880,note_on,480,0,8,,,,,,,,,7,,,76,115
89880,note_on,10,0,7,,,,,,,,,6,,,61,100
89880,note_on,120,0,5,,,,,,,,,4,,,76,0
89880,note_on,0,0,5,,,,,,,,,4,,,69,0
89930,note_on,50,0,9,,,,,,,,,8,,,57,0
89930,note_on,50,0,7,,,,,,,,,6,,,61,0
89930,note_on,50,0,3,,,,,,,,,2,,,57,0
89930,note_on,50,0,8,,,,,,,,,7,,,76,0
89940,note_on,10,0,3,,,,,,,,,2,,,57,100
89940,note_on,10,0,7,,,,,,,,,6,,,61,100
89940,note_on,10,0,9,,,,,,,,,8,,,57,100
89990,note_on,50,0,9,,,,,,,,,8,,,57,0
89990,note_on,50,0,3,,,,,,,,,2,,,57,0
89990,note_on,50,0,7,,,,,,,,,6,,,61,0
90000,note_on,10,0,7,,,,,,,,,6,,,61,100
90000,note_on,10,0,3,,,,,,,,,2,,,57,100
90000,note_on,10,0,9,,,,,,,,,8,,,57,100
90000,note_on,70,0,8,,,,,,,,,7,,,73,115
90050,note_on,50,0,7,,,,,,,,,6,,,61,0
90050,note_on,50,0,9,,,,,,,,,8,,,57,0
90050,note_on,50,0,3,,,,,,,,,2,,,57,0
90050,note_on,50,0,8,,,,,,,,,7,,,73,0
90060,note_on,10,0,7,,,,,,,,,6,,,61,100
90060,note_on,10,0,3,,,,,,,,,2,,,57,100
90060,note_on,10,0,9,,,,,,,,,8,,,57,100
90110,note_on,50,0,9,,,,,,,,,8,,,57,0
90110,note_on,50,0,7,,,,,,,,,6,,,61,0
90110,note_on,50,0,3,,,,,,,,,2,,,57,0
90120,note_on,70,0,8,,,,,,,,,7,,,69,115
90120,note_on,10,0,9,,,,,,,,,8,,,57,100
90120,note_on,10,0,7,,,,,,,,,6,,,61,100
90120,note_on,10,0,3,,,,,,,,,2,,,57,100
90170,note_on,50,0,3,,,,,,,,,2,,,57,0
90170,note_on,50,0,8,,,,,,,,,7,,,69,0
90170,note_on,50,0,7,,,,,,,,,6,,,61,0
90170,note_on,50,0,9,,,,,,,,,8,,,57,0
90180,note_on,10,0,3,,,,,,,,,2,,,59,100
90180,note_on,10,0,7,,,,,,,,,6,,,62,100
90180,note_on,10,0,9,,,,,,,,,8,,,59,100
90210,note_on,30,0,9,,,,,,,,,8,,,59,0
90210,note_on,0,0,3,,,,,,,,,2,,,61,100
90210,note_on,30,0,3,,,,,,,,,2,,,59,0
90210,note_on,0,0,7,,,,,,,,,6,,,64,100
90210,note_on,30,0,7,,,,,,,,,6,,,62,0
90210,note_on,0,0,9,,,,,,,,,8,,,61,100
90240,note_on,480,0,1,,,,,,,,,0,,,90,100
90240,note_on,360,0,6,,,,,,,,,5,,,50,100
90240,note_on,0,0,2,,,,,,,,,1,,,74,100
90240,note_on,480,0,2,,,,,,,,,1,,,76,0
90240,note_on,70,0,8,,,,,,,,,7,,,78,100
90240,note_on,0,0,3,,,,,,,,,2,,,62,100
90240,note_on,30,0,9,,,,,,,,,8,,,61,0
90240,note_on,0,0,9,,,,,,,,,8,,,62,100
90240,note_on,0,0,5,,,,,,,,,4,,,74,100
90240,note_on,360,0,5,,,,,,,,,4,,,66,100
90240,note_on,30,0,7,,,,,,,,,6,,,64,0
90240,note_on,0,0,7,,,,,,,,,6,,,66,100
90240,note_on,30,0,3,,,,,,,,,2,,,61,0
90290,note_on,50,0,8,,,,,,,,,7,,,78,0
90290,note_on,50,0,7,,,,,,,,,6,,,66,0
90290,note_on,50,0,3,,,,,,,,,2,,,62,0
90300,note_on,10,0,3,,,,,,,,,2,,,50,100
90300,note_on,420,0,11,,,,,,,,,11,,,38,100
90300,note_on,420,0,10,,,,,,,,,10,,,50,100
90300,note_on,420,0,4,,,,,,,,,3,,,50,100
90300,note_on,10,0,8,,,,,,,,,7,,,66,100
90300,note_on,0,0,4,,,,,,,,,3,,,62,100
90350,note_on,50,0,3,,,,,,,,,2,,,50,0
90350,note_on,50,0,10,,,,,,,,,10,,,50,0
90350,note_on,50,0,8,,,,,,,,,7,,,66,0
90350,note_on,0,0,4,,,,,,,,,3,,,50,0
90350,note_on,50,0,4,,,,,,,,,3,,,62,0
90350,note_on,50,0,11,,,,,,,,,11,,,38,0
90360,note_on,120,0,6,,,,,,,,,5,,,50,0
90360,note_on,70,0,7,,,,,,,,,6,,,81,110
90360,note_on,10,0,10,,,,,,,,,10,,,50,100
90360,note_on,10,0,4,,,,,,,,,3,,,50,100
90360,note_on,10,0,11,,,,,,,,,11,,,38,100
90360,note_on,120,0,5,,,,,,,,,4,,,74,0
90360,note_on,10,0,8,,,,,,,,,7,,,66,100
90360,note_on,0,0,5,,,,,,,,,4,,,66,0
90360,note_on,10,0,3,,,,,,,,,2,,,50,100
90360,note_on,120,0,9,,,,,,,,,8,,,62,0
90360,note_on,0,0,4,,,,,,,,,3,,,62,100
90410,note_on,50,0,4,,,,,,,,,3,,,62,0
90410,note_on,50,0,7,,,,,,,,,6,,,81,0
90410,note_on,50,0,11,,,,,,,,,11,,,38,0
90410,note_on,50,0,8,,,,,,,,,7,,,66,0
90410,note_on,50,0,10,,,,,,,,,10,,,50,0
90410,note_on,50,0,3,,,,,,,,,2,,,50,0
90410,note_on,0,0,4,,,,,,,,,3,,,50,0
90420,note_on,10,0,11,,,,,,,,,11,,,38,100
90420,note_on,10,0,4,,,,,,,,,3,,,50,100
90420,note_on,10,0,8,,,,,,,,,7,,,66,100
90420,note_on,10,0,3,,,,,,,,,2,,,50,100
90420,note_on,10,0,10,,,,,,,,,10,,,50,100
90420,note_on,0,0,4,,,,,,,,,3,,,62,100
90470,note_on,50,0,10,,,,,,,,,10,,,50,0
90470,note_on,50,0,8,,,,,,,,,7,,,66,0
90470,note_on,0,0,4,,,,,,,,,3,,,50,0
90470,note_on,50,0,4,,,,,,,,,3,,,62,0
90470,note_on,50,0,3,,,,,,,,,2,,,50,0
90470,note_on,50,0,11,,,,,,,,,11,,,38,0
90480,note_on,10,0,10,,,,,,,,,10,,,50,100
90480,note_on,70,0,7,,,,,,,,,6,,,78,110
90480,note_on,10,0,3,,,,,,,,,2,,,50,100
90480,note_on,10,0,11,,,,,,,,,11,,,38,100
90480,note_on,10,0,4,,,,,,,,,3,,,50,100
90480,note_on,0,0,4,,,,,,,,,3,,,62,100
90480,note_on,10,0,8,,,,,,,,,7,,,66,100
90530,note_on,0,0,4,,,,,,,,,3,,,50,0
90530,note_on,50,0,4,,,,,,,,,3,,,62,0
90530,note_on,50,0,8,,,,,,,,,7,,,66,0
90530,note_on,50,0,7,,,,,,,,,6,,,78,0
90530,note_on,50,0,11,,,,,,,,,11,,,38,0
90530,note_on,50,0,3,,,,,,,,,2,,,50,0
90530,note_on,50,0,10,,,,,,,,,10,,,50,0
90540,note_on,10,0,8,,,,,,,,,7,,,66,100
90540,note_on,10,0,3,,,,,,,,,2,,,50,100
90540,note_on,10,0,4,,,,,,,,,3,,,50,100
90540,note_on,0,0,4,,,,,,,,,3,,,62,100
90540,note_on,10,0,10,,,,,,,,,10,,,50,100
90540,note_on,10,0,11,,,,,,,,,11,,,38,100
90590,note_on,50,0,4,,,,,,,,,3,,,62,0
90590,note_on,0,0,4,,,,,,,,,3,,,50,0
90590,note_on,50,0,11,,,,,,,,,11,,,38,0
90590,note_on,50,0,3,,,,,,,,,2,,,50,0
90590,note_on,50,0,8,,,,,,,,,7,,,66,0
90590,note_on,50,0,10,,,,,,,,,10,,,50,0
90600,note_on,10,0,3,,,,,,,,,2,,,50,100
90600,note_on,70,0,7,,,,,,,,,6,,,74,110
90600,note_on,10,0,10,,,,,,,,,10,,,50,100
90600,note_on,10,0,4,,,,,,,,,3,,,50,100
90600,note_on,10,0,11,,,,,,,,,11,,,38,100
90600,note_on,0,0,4,,,,,,,,,3,,,62,100
90600,note_on,10,0,8,,,,,,,,,7,,,66,100
90650,note_on,50,0,4,,,,,,,,,3,,,62,0
90650,note_on,0,0,4,,,,,,,,,3,,,50,0
90650,note_on,50,0,7,,,,,,,,,6,,,74,0
90650,note_on,50,0,11,,,,,,,,,11,,,38,0
90650,note_on,50,0,3,,,,,,,,,2,,,50,0
90650,note_on,50,0,10,,,,,,,,,10,,,50,0
90650,note_on,50,0,8,,,,,,,,,7,,,66,0
90660,note_on,10,0,8,,,,,,,,,7,,,68,100
90660,note_on,10,0,4,,,,,,,,,3,,,50,100
90660,note_on,10,0,10,,,,,,,,,10,,,52,100
90660,note_on,10,0,3,,,,,,,,,2,,,52,100
90660,note_on,10,0,11,,,,,,,,,11,,,40,100
90660,note_on,0,0,4,,,,,,,,,3,,,62,100
90690,note_on,30,0,8,,,,,,,,,7,,,68,0
90690,note_on,0,0,8,,,,,,,,,7,,,69,100
90690,note_on,0,0,11,,,,,,,,,11,,,42,100
90690,note_on,30,0,11,,,,,,,,,11,,,40,0
90690,note_on,0,0,10,,,,,,,,,10,,,54,100
90690,note_on,30,0,10,,,,,,,,,10,,,52,0
90690,note_on,30,0,3,,,,,,,,,2,,,52,0
90690,note_on,0,0,3,,,,,,,,,2,,,54,100
90710,note_on,0,0,4,,,,,,,,,3,,,50,0
90710,note_on,50,0,4,,,,,,,,,3,,,62,0
90720,note_on,0,0,1,,,,,,,,,0,,,83,100
90720,note_on,0,0,8,,,,,,,,,7,,,71,100
90720,note_on,30,0,11,,,,,,,,,11,,,42,0
90720,note_on,30,0,8,,,,,,,,,7,,,69,0
90720,note_on,0,0,4,,,,,,,,,3,,,62,100
90720,note_on,0,0,3,,,,,,,,,2,,,56,100
90720,note_on,30,0,3,,,,,,,,,2,,,54,0
90720,note_on,0,0,11,,,,,,,,,11,,,44,100
90720,note_on,70,0,7,,,,,,,,,6,,,83,100
90720,note_on,30,0,10,,,,,,,,,10,,,54,0
90720,note_on,0,0,10,,,,,,,,,10,,,56,100
90720,note_on,0,0,2,,,,,,,,,1,,,80,100
90720,note_on,480,0,2,,,,,,,,,1,,,81,0
90720,note_on,10,0,4,,,,,,,,,3,,,50,100
90720,note_on,480,0,1,,,,,,,,,0,,,85,0
90770,note_on,50,0,7,,,,,,,,,6,,,83,0
90770,note_on,50,0,3,,,,,,,,,2,,,56,0
90770,note_on,50,0,8,,,,,,,,,7,,,71,0
90780,note_on,10,0,3,,,,,,,,,2,,,56,100
90780,note_on,10,0,7,,,,,,,,,6,,,59,100
90780,note_on,420,0,9,,,,,,,,,8,,,56,100
90830,note_on,50,0,3,,,,,,,,,2,,,56,0
90830,note_on,50,0,9,,,,,,,,,8,,,56,0
90830,note_on,50,0,7,,,,,,,,,6,,,59,0
90840,note_on,120,0,10,,,,,,,,,10,,,56,0
90840,note_on,10,0,9,,,,,,,,,8,,,56,100
90840,note_on,120,0,11,,,,,,,,,11,,,44,0
90840,note_on,120,0,4,,,,,,,,,3,,,62,0
90840,note_on,70,0,8,,,,,,,,,7,,,74,115
90840,note_on,0,0,4,,,,,,,,,3,,,50,0
90840,note_on,10,0,3,,,,,,,,,2,,,56,100
90840,note_on,10,0,7,,,,,,,,,6,,,59,100
90885,note_on,45,0,7,,,,,,,,,6,,,59,0
90890,note_on,50,0,9,,,,,,,,,8,,,56,0
90890,note_on,50,0,8,,,,,,,,,7,,,74,0
90890,note_on,50,0,3,,,,,,,,,2,,,56,0
90900,note_on,10,0,3,,,,,,,,,2,,,56,100
90900,note_on,10,0,9,,,,,,,,,8,,,56,100
90900,note_on,15,0,7,,,,,,,,,6,,,59,100
90950,note_on,50,0,7,,,,,,,,,6,,,59,0
90950,note_on,50,0,3,,,,,,,,,2,,,56,0
90950,note_on,50,0,9,,,,,,,,,8,,,56,0
90960,note_on,10,0,3,,,,,,,,,2,,,56,100
90960,note_on,10,0,7,,,,,,,,,6,,,59,100
90960,note_on,70,0,8,,,,,,,,,7,,,71,115
90960,note_on,10,0,9,,,,,,,,,8,,,56,100
91010,note_on,50,0,8,,,,,,,,,7,,,71,0
91010,note_on,50,0,3,,,,,,,,,2,,,56,0
91010,note_on,50,0,7,,,,,,,,,6,,,59,0
91010,note_on,50,0,9,,,,,,,,,8,,,56,0
91020,note_on,10,0,9,,,,,,,,,8,,,56,100
91020,note_on,10,0,7,,,,,,,,,6,,,59,100
91020,note_on,10,0,3,,,,,,,,,2,,,56,100
91070,note_on,50,0,9,,,,,,,,,8,,,56,0
91070,note_on,50,0,3,,,,,,,,,2,,,56,0
91070,note_on,50,0,7,,,,,,,,,6,,,59,0
91080,note_on,70,0,8,,,,,,,,,7,,,68,115
91080,note_on,10,0,7,,,,,,,,,6,,,59,100
91080,note_on,10,0,3,,,,,,,,,2,,,56,100
91080,note_on,10,0,9,,,,,,,,,8,,,56,100
91130,note_on,50,0,9,,,,,,,,,8,,,56,0
91130,note_on,50,0,3,,,,,,,,,2,,,56,0
91130,note_on,50,0,8,,,,,,,,,7,,,68,0
91130,note_on,50,0,7,,,,,,,,,6,,,59,0
91140,note_on,10,0,3,,,,,,,,,2,,,57,100
91140,note_on,10,0,7,,,,,,,,,6,,,61,100
91140,note_on,10,0,9,,,,,,,,,8,,,57,100
91170,note_on,30,0,9,,,,,,,,,8,,,57,0
91170,note_on,0,0,9,,,,,,,,,8,,,59,100
91170,note_on,0,0,3,,,,,,,,,2,,,59,100
91170,note_on,30,0,7,,,,,,,,,6,,,61,0
91170,note_on,30,0,3,,,,,,,,,2,,,57,0
91170,note_on,0,0,7,,,,,,,,,6,,,62,100
91200,note_on,480,0,2,,,,,,,,,1,,,74,0
91200,note_on,0,0,1,,,,,,,,,0,,,88,100
91200,note_on,480,0,1,,,,,,,,,0,,,90,0
91200,note_on,0,0,2,,,,,,,,,1,,,73,100
91200,note_on,30,0,9,,,,,,,,,8,,,59,0
91200,note_on,70,0,8,,,,,,,,,7,,,76,100
91200,note_on,0,0,9,,,,,,,,,8,,,61,100
91200,note_on,0,0,7,,,,,,,,,6,,,64,100
91200,note_on,30,0,7,,,,,,,,,6,,,62,0
91200,note_on,30,0,3,,,,,,,,,2,,,59,0
91200,note_on,0,0,3,,,,,,,,,2,,,61,100
91250,note_on,50,0,7,,,,,,,,,6,,,64,0
91250,note_on,50,0,3,,,,,,,,,2,,,61,0
91250,note_on,50,0,8,,,,,,,,,7,,,76,0
91260,note_on,420,0,4,,,,,,,,,3,,,64,100
91260,note_on,10,0,8,,,,,,,,,7,,,64,100
91260,note_on,10,0,3,,,,,,,,,2,,,49,100
91260,note_on,420,0,10,,,,,,,,,10,,,49,100
91260,note_on,420,0,11,,,,,,,,,11,,,37,100
91310,note_on,50,0,4,,,,,,,,,3,,,64,0
91310,note_on,50,0,10,,,,,,,,,10,,,49,0
91310,note_on,50,0,11,,,,,,,,,11,,,37,0
91310,note_on,50,0,8,,,,,,,,,7,,,64,0
91310,note_on,50,0,3,,,,,,,,,2,,,49,0
91320,note_on,10,0,8,,,,,,,,,7,,,64,100
91320,note_on,10,0,10,,,,,,,,,10,,,49,100
91320,note_on,70,0,7,,,,,,,,,6,,,80,110
91320,note_on,120,0,9,,,,,,,,,8,,,61,0
91320,note_on,10,0,11,,,,,,,,,11,,,37,100
91320,note_on,10,0,3,,,,,,,,,2,,,49,100
91320,note_on,10,0,4,,,,,,,,,3,,,64,100
91370,note_on,50,0,8,,,,,,,,,7,,,64,0
91370,note_on,50,0,7,,,,,,,,,6,,,80,0
91370,note_on,50,0,10,,,,,,,,,10,,,49,0
91370,note_on,50,0,4,,,,,,,,,3,,,64,0
91370,note_on,50,0,11,,,,,,,,,11,,,37,0
91370,note_on,50,0,3,,,,,,,,,2,,,49,0
91380,note_on,10,0,4,,,,,,,,,3,,,64,100
91380,note_on,10,0,11,,,,,,,,,11,,,37,100
91380,note_on,10,0,3,,,,,,,,,2,,,49,100
91380,note_on,10,0,10,,,,,,,,,10,,,49,100
91380,note_on,10,0,8,,,,,,,,,7,,,64,100
91430,note_on,50,0,4,,,,,,,,,3,,,64,0
91430,note_on,50,0,11,,,,,,,,,11,,,37,0
91430,note_on,50,0,10,,,,,,,,,10,,,49,0
91430,note_on,50,0,3,,,,,,,,,2,,,49,0
91430,note_on,50,0,8,,,,,,,,,7,,,64,0
91440,note_on,70,0,7,,,,,,,,,6,,,76,110
91440,note_on,10,0,4,,,,,,,,,3,,,64,100
91440,note_on,10,0,10,,,,,,,,,10,,,49,100
91440,note_on,10,0,8,,,,,,,,,7,,,64,100
91440,note_on,10,0,11,,,,,,,,,11,,,37,100
91440,note_on,10,0,3,,,,,,,,,2,,,49,100
91490,note_on,50,0,10,,,,,,,,,10,,,49,0
91490,note_on,50,0,11,,,,,,,,,11,,,37,0
91490,note_on,50,0,8,,,,,,,,,7,,,64,0
91490,note_on,50,0,7,,,,,,,,,6,,,76,0
91490,note_on,50,0,4,,,,,,,,,3,,,64,0
91490,note_on,50,0,3,,,,,,,,,2,,,49,0
91500,note_on,10,0,11,,,,,,,,,11,,,37,100
91500,note_on,10,0,8,,,,,,,,,7,,,64,100
91500,note_on,10,0,4,,,,,,,,,3,,,64,100
91500,note_on,10,0,3,,,,,,,,,2,,,49,100
91500,note_on,10,0,10,,,,,,,,,10,,,49,100
91550,note_on,50,0,3,,,,,,,,,2,,,49,0
91550,note_on,50,0,8,,,,,,,,,7,,,64,0
91550,note_on,50,0,10,,,,,,,,,10,,,49,0
91550,note_on,50,0,11,,,,,,,,,11,,,37,0
91550,note_on,50,0,4,,,,,,,,,3,,,64,0
91560,note_on,10,0,8,,,,,,,,,7,,,64,100
91560,note_on,10,0,4,,,,,,,,,3,,,64,100
91560,note_on,70,0,7,,,,,,,,,6,,,73,110
91560,note_on,10,0,10,,,,,,,,,10,,,49,100
91560,note_on,10,0,11,,,,,,,,,11,,,37,100
91560,note_on,10,0,3,,,,,,,,,2,,,49,100
91610,note_on,50,0,3,,,,,,,,,2,,,49,0
91610,note_on,50,0,8,,,,,,,,,7,,,64,0
91610,note_on,50,0,7,,,,,,,,,6,,,73,0
91610,note_on,50,0,11,,,,,,,,,11,,,37,0
91610,note_on,50,0,10,,,,,,,,,10,,,49,0
91610,note_on,50,0,4,,,,,,,,,3,,,64,0
91620,note_on,10,0,11,,,,,,,,,11,,,38,100
91620,note_on,10,0,8,,,,,,,,,7,,,66,100
91620,note_on,10,0,10,,,,,,,,,10,,,50,100
91620,note_on,10,0,3,,,,,,,,,2,,,50,100
91620,note_on,10,0,4,,,,,,,,,3,,,64,100
91650,note_on,0,0,8,,,,,,,,,7,,,68,100
91650,note_on,30,0,3,,,,,,,,,2,,,50,0
91650,note_on,30,0,8,,,,,,,,,7,,,66,0
91650,note_on,30,0,10,,,,,,,,,10,,,50,0
91650,note_on,0,0,10,,,,,,,,,10,,,52,100
91650,note_on,0,0,11,,,,,,,,,11,,,40,100
91650,note_on,30,0,11,,,,,,,,,11,,,38,0
91650,note_on,0,0,3,,,,,,,,,2,,,52,100
91670,note_on,50,0,4,,,,,,,,,3,,,64,0
91680,note_on,30,0,11,,,,,,,,,11,,,40,0
91680,note_on,30,0,3,,,,,,,,,2,,,52,0
91680,note_on,0,0,3,,,,,,,,,2,,,54,100
91680,note_on,0,0,11,,,,,,,,,11,,,42,100
91680,note_on,70,0,7,,,,,,,,,6,,,81,100
91680,note_on,480,0,2,,,,,,,,,1,,,80,0
91680,note_on,0,0,8,,,,,,,,,7,,,69,100
91680,note_on,10,0,4,,,,,,,,,3,,,57,100
91680,note_on,0,0,2,,,,,,,,,1,,,78,100
91680,note_on,0,0,10,,,,,,,,,10,,,54,100
91680,note_on,30,0,8,,,,,,,,,7,,,68,0
91680,note_on,0,0,4,,,,,,,,,3,,,64,100
91680,note_on,0,0,1,,,,,,,,,0,,,81,100
91680,note_on,30,0,10,,,,,,,,,10,,,52,0
91680,note_on,480,0,1,,,,,,,,,0,,,83,0
91730,note_on,50,0,7,,,,,,,,,6,,,81,0
91730,note_on,50,0,3,,,,,,,,,2,,,54,0
91730,note_on,50,0,8,,,,,,,,,7,,,69,0
91740,note_on,10,0,7,,,,,,,,,6,,,57,100
91740,note_on,420,0,9,,,,,,,,,8,,,54,100
91740,note_on,10,0,3,,,,,,,,,2,,,54,100
91790,note_on,50,0,9,,,,,,,,,8,,,54,0
91790,note_on,50,0,7,,,,,,,,,6,,,57,0
91790,note_on,50,0,3,,,,,,,,,2,,,54,0
91800,note_on,10,0,7,,,,,,,,,6,,,57,100
91800,note_on,10,0,3,,,,,,,,,2,,,54,100
91800,note_on,70,0,8,,,,,,,,,7,,,73,115
91800,note_on,120,0,4,,,,,,,,,3,,,64,0
91800,note_on,120,0,11,,,,,,,,,11,,,42,0
91800,note_on,10,0,9,,,,,,,,,8,,,54,100
91800,note_on,0,0,4,,,,,,,,,3,,,57,0
91800,note_on,120,0,10,,,,,,,,,10,,,54,0
91850,note_on,50,0,7,,,,,,,,,6,,,57,0
91850,note_on,50,0,3,,,,,,,,,2,,,54,0
91850,note_on,50,0,9,,,,,,,,,8,,,54,0
91850,note_on,50,0,8,,,,,,,,,7,,,73,0
91860,note_on,10,0,9,,,,,,,,,8,,,54,100
91860,note_on,10,0,3,,,,,,,,,2,,,54,100
91860,note_on,10,0,7,,,,,,,,,6,,,57,100
91910,note_on,50,0,7,,,,,,,,,6,,,57,0
91910,note_on,50,0,3,,,,,,,,,2,,,54,0
91910,note_on,50,0,9,,,,,,,,,8,,,54,0
91920,note_on,10,0,9,,,,,,,,,8,,,54,100
91920,note_on,10,0,3,,,,,,,,,2,,,54,100
91920,note_on,70,0,8,,,,,,,,,7,,,69,115
91920,note_on,10,0,7,,,,,,,,,6,,,57,100
91970,note_on,50,0,9,,,,,,,,,8,,,54,0
91970,note_on,50,0,3,,,,,,,,,2,,,54,0
91970,note_on,50,0,8,,,,,,,,,7,,,69,0
91970,note_on,50,0,7,,,,,,,,,6,,,57,0
91980,note_on,10,0,9,,,,,,,,,8,,,54,100
91980,note_on,10,0,7,,,,,,,,,6,,,57,100
91980,note_on,10,0,3,,,,,,,,,2,,,54,100
92030,note_on,50,0,9,,,,,,,,,8,,,54,0
92030,note_on,50,0,7,,,,,,,,,6,,,57,0
92030,note_on,50,0,3,,,,,,,,,2,,,54,0
92040,note_on,10,0,7,,,,,,,,,6,,,57,100
92040,note_on,10,0,9,,,,,,,,,8,,,54,100
92040,note_on,70,0,8,,,,,,,,,7,,,66,115
92040,note_on,10,0,3,,,,,,,,,2,,,54,100
92090,note_on,50,0,9,,,,,,,,,8,,,54,0
92090,note_on,50,0,8,,,,,,,,,7,,,66,0
92090,note_on,50,0,3,,,,,,,,,2,,,54,0
92090,note_on,50,0,7,,,,,,,,,6,,,57,0
92100,note_on,10,0,7,,,,,,,,,6,,,59,100
92100,note_on,10,0,9,,,,,,,,,8,,,56,100
92100,note_on,10,0,3,,,,,,,,,2,,,56,100
92130,note_on,30,0,3,,,,,,,,,2,,,56,0
92130,note_on,0,0,3,,,,,,,,,2,,,57,100
92130,note_on,0,0,7,,,,,,,,,6,,,61,100
92130,note_on,30,0,7,,,,,,,,,6,,,59,0
92130,note_on,30,0,9,,,,,,,,,8,,,56,0
92130,note_on,0,0,9,,,,,,,,,8,,,57,100
92160,note_on,480,0,2,,,,,,,,,1,,,73,0
92160,note_on,1800,0,6,,,,,,,,,5,,,50,100
92160,note_on,0,0,2,,,,,,,,,1,,,71,100
92160,note_on,30,0,9,,,,,,,,,8,,,57,0
92160,note_on,30,0,3,,,,,,,,,2,,,57,0
92160,note_on,480,0,1,,,,,,,,,0,,,88,0
92160,note_on,0,0,1,,,,,,,,,0,,,86,100
92160,note_on,70,0,8,,,,,,,,,7,,,74,100
92160,note_on,30,0,7,,,,,,,,,6,,,61,0
92160,note_on,0,0,7,,,,,,,,,6,,,62,100
92160,note_on,1800,0,5,,,,,,,,,4,,,66,100
92160,note_on,0,0,5,,,,,,,,,4,,,74,100
92160,note_on,0,0,3,,,,,,,,,2,,,59,100
92160,note_on,0,0,9,,,,,,,,,8,,,59,100
92210,note_on,50,0,3,,,,,,,,,2,,,59,0
92210,note_on,50,0,8,,,,,,,,,7,,,74,0
92210,note_on,50,0,9,,,,,,,,,8,,,59,0
92220,note_on,10,0,3,,,,,,,,,2,,,47,100
92220,note_on,420,0,10,,,,,,,,,10,,,47,100
92220,note_on,0,0,4,,,,,,,,,3,,,62,100
92220,note_on,420,0,4,,,,,,,,,3,,,50,100
92220,note_on,10,0,9,,,,,,,,,8,,,62,100
92220,note_on,420,0,11,,,,,,,,,11,,,35,100
92270,note_on,50,0,3,,,,,,,,,2,,,47,0
92270,note_on,0,0,4,,,,,,,,,3,,,50,0
92270,note_on,50,0,10,,,,,,,,,10,,,47,0
92270,note_on,50,0,4,,,,,,,,,3,,,62,0
92270,note_on,50,0,11,,,,,,,,,11,,,35,0
92270,note_on,50,0,9,,,,,,,,,8,,,62,0
92280,note_on,0,0,5,,,,,,,,,4,,,66,0
92280,note_on,10,0,10,,,,,,,,,10,,,47,100
92280,note_on,10,0,9,,,,,,,,,8,,,62,100
92280,note_on,120,0,5,,,,,,,,,4,,,74,0
92280,note_on,10,0,3,,,,,,,,,2,,,47,100
92280,note_on,120,0,6,,,,,,,,,5,,,50,0
92280,note_on,70,0,8,,,,,,,,,7,,,78,115
92280,note_on,10,0,4,,,,,,,,,3,,,50,100
92280,note_on,120,0,7,,,,,,,,,6,,,62,0
92280,note_on,10,0,11,,,,,,,,,11,,,35,100
92280,note_on,0,0,4,,,,,,,,,3,,,62,100
92330,note_on,50,0,4,,,,,,,,,3,,,62,0
92330,note_on,50,0,10,,,,,,,,,10,,,47,0
92330,note_on,50,0,3,,,,,,,,,2,,,47,0
92330,note_on,50,0,8,,,,,,,,,7,,,78,0
92330,note_on,50,0,11,,,,,,,,,11,,,35,0
92330,note_on,50,0,9,,,,,,,,,8,,,62,0
92330,note_on,0,0,4,,,,,,,,,3,,,50,0
92340,note_on,10,0,10,,,,,,,,,10,,,47,100
92340,note_on,0,0,4,,,,,,,,,3,,,62,100
92340,note_on,10,0,4,,,,,,,,,3,,,50,100
92340,note_on,10,0,11,,,,,,,,,11,,,35,100
92340,note_on,10,0,9,,,,,,,,,8,,,62,100
92340,note_on,10,0,3,,,,,,,,,2,,,47,100
92390,note_on,50,0,4,,,,,,,,,3,,,62,0
92390,note_on,0,0,4,,,,,,,,,3,,,50,0
92390,note_on,50,0,9,,,,,,,,,8,,,62,0
92390,note_on,50,0,11,,,,,,,,,11,,,35,0
92390,note_on,50,0,3,,,,,,,,,2,,,47,0
92390,note_on,50,0,10,,,,,,,,,10,,,47,0
92400,note_on,70,0,8,,,,,,,,,7,,,74,115
92400,note_on,10,0,10,,,,,,,,,10,,,47,100
92400,note_on,0,0,4,,,,,,,,,3,,,62,100
92400,note_on,10,0,9,,,,,,,,,8,,,62,100
92400,note_on,10,0,11,,,,,,,,,11,,,35,100
92400,note_on,10,0,3,,,,,,,,,2,,,47,100
92400,note_on,10,0,4,,,,,,,,,3,,,50,100
92450,note_on,50,0,4,,,,,,,,,3,,,62,0
92450,note_on,50,0,9,,,,,,,,,8,,,62,0
92450,note_on,50,0,11,,,,,,,,,11,,,35,0
92450,note_on,50,0,3,,,,,,,,,2,,,47,0
92450,note_on,50,0,8,,,,,,,,,7,,,74,0
92450,note_on,0,0,4,,,,,,,,,3,,,50,0
92450,note_on,50,0,10,,,,,,,,,10,,,47,0
92460,note_on,10,0,4,,,,,,,,,3,,,50,100
92460,note_on,0,0,4,,,,,,,,,3,,,62,100
92460,note_on,180,0,7,,,,,,,,,6,,,74,100
92460,note_on,10,0,10,,,,,,,,,10,,,47,100
92460,note_on,10,0,3,,,,,,,,,2,,,47,100
92460,note_on,10,0,9,,,,,,,,,8,,,62,100
92460,note_on,10,0,11,,,,,,,,,11,,,35,100
92510,note_on,50,0,4,,,,,,,,,3,,,62,0
92510,note_on,0,0,4,,,,,,,,,3,,,50,0
92510,note_on,50,0,10,,,,,,,,,10,,,47,0
92510,note_on,50,0,3,,,,,,,,,2,,,47,0
92510,note_on,50,0,11,,,,,,,,,11,,,35,0
92510,note_on,50,0,9,,,,,,,,,8,,,62,0
92520,note_on,70,0,8,,,,,,,,,7,,,71,115
92520,note_on,10,0,3,,,,,,,,,2,,,47,100
92520,note_on,60,0,7,,,,,,,,,6,,,74,0
92520,note_on,0,0,4,,,,,,,,,3,,,62,100
92520,note_on,10,0,4,,,,,,,,,3,,,50,100
92520,note_on,10,0,11,,,,,,,,,11,,,35,100
92520,note_on,0,0,7,,,,,,,,,6,,,74,100
92520,note_on,10,0,10,,,,,,,,,10,,,47,100
92520,note_on,10,0,9,,,,,,,,,8,,,62,100
92570,note_on,50,0,9,,,,,,,,,8,,,62,0
92570,note_on,50,0,8,,,,,,,,,7,,,71,0
92570,note_on,50,0,10,,,,,,,,,10,,,47,0
92570,note_on,0,0,4,,,,,,,,,3,,,50,0
92570,note_on,50,0,11,,,,,,,,,11,,,35,0
92570,note_on,50,0,3,,,,,,,,,2,,,47,0
92570,note_on,50,0,4,,,,,,,,,3,,,62,0
92580,note_on,10,0,4,,,,,,,,,3,,,50,100
92580,note_on,0,0,4,,,,,,,,,3,,,62,100
92580,note_on,0,0,7,,,,,,,,,6,,,74,100
92580,note_on,60,0,7,,,,,,,,,6,,,74,0
92580,note_on,10,0,10,,,,,,,,,10,,,49,100
92580,note_on,10,0,3,,,,,,,,,2,,,49,100
92580,note_on,10,0,9,,,,,,,,,8,,,64,100
92580,note_on,10,0,11,,,,,,,,,11,,,37,100
92610,note_on,30,0,3,,,,,,,,,2,,,49,0
92610,note_on,30,0,10,,,,,,,,,10,,,49,0
92610,note_on,0,0,9,,,,,,,,,8,,,66,100
92610,note_on,30,0,9,,,,,,,,,8,,,64,0
92610,note_on,0,0,3,,,,,,,,,2,,,50,100
92610,note_on,30,0,11,,,,,,,,,11,,,37,0
92610,note_on,0,0,11,,,,,,,,,11,,,38,100
92610,note_on,0,0,10,,,,,,,,,10,,,50,100
92630,note_on,0,0,4,,,,,,,,,3,,,50,0
92630,note_on,50,0,4,,,,,,,,,3,,,62,0
92640,note_on,360,0,5,,,,,,,,,4,,,62,100
92640,note_on,0,0,4,,,,,,,,,3,,,62,100
92640,note_on,10,0,4,,,,,,,,,3,,,50,100
92640,note_on,0,0,5,,,,,,,,,4,,,74,100
92640,note_on,480,0,1,,,,,,,,,0,,,81,0
92640,note_on,0,0,2,,,,,,,,,1,,,71,100
92640,note_on,0,0,2,,,,,,,,,1,,,68,100
92640,note_on,0,0,2,,,,,,,,,1,,,78,0
92640,note_on,0,0,1,,,,,,,,,0,,,80,100
92640,note_on,30,0,10,,,,,,,,,10,,,50,0
92640,note_on,0,0,3,,,,,,,,,2,,,52,100
92640,note_on,0,0,9,,,,,,,,,8,,,64,100
92640,note_on,0,0,7,,,,,,,,,6,,,74,100
92640,note_on,60,0,7,,,,,,,,,6,,,74,0
92640,note_on,360,0,6,,,,,,,,,5,,,50,100
92640,note_on,0,0,8,,,,,,,,,7,,,68,100
92640,note_on,70,0,8,,,,,,,,,7,,,59,100
92640,note_on,0,0,10,,,,,,,,,10,,,52,100
92640,note_on,30,0,11,,,,,,,,,11,,,38,0
92640,note_on,480,0,2,,,,,,,,,1,,,71,0
92640,note_on,30,0,3,,,,,,,,,2,,,50,0
92640,note_on,30,0,9,,,,,,,,,8,,,66,0
92640,note_on,0,0,11,,,,,,,,,11,,,40,100
92700,note_on,60,0,7,,,,,,,,,6,,,74,0
92700,note_on,0,0,7,,,,,,,,,6,,,76,104
92730,note_on,30,0,7,,,,,,,,,6,,,76,0
92730,note_on,0,0,7,,,,,,,,,6,,,78,106
92760,note_on,0,0,8,,,,,,,,,7,,,59,0
92760,note_on,120,0,8,,,,,,,,,7,,,68,0
92760,note_on,0,0,7,,,,,,,,,6,,,80,108
92760,note_on,120,0,6,,,,,,,,,5,,,50,0
92760,note_on,120,0,3,,,,,,,,,2,,,52,0
92760,note_on,120,0,11,,,,,,,,,11,,,40,0
92760,note_on,30,0,7,,,,,,,,,6,,,78,0
92760,note_on,120,0,10,,,,,,,,,10,,,52,0
92760,note_on,120,0,9,,,,,,,,,8,,,64,0
92790,note_on,30,0,7,,,,,,,,,6,,,80,0
92790,note_on,0,0,7,,,,,,,,,6,,,81,111
92820,note_on,0,0,7,,,,,,,,,6,,,83,113
92820,note_on,30,0,7,,,,,,,,,6,,,81,0
92850,note_on,30,0,7,,,,,,,,,6,,,83,0
92850,note_on,0,0,7,,,,,,,,,6,,,85,115
92880,note_on,30,0,7,,,,,,,,,6,,,85,0
92880,note_on,0,0,7,,,,,,,,,6,,,86,117
92940,note_on,60,0,7,,,,,,,,,6,,,86,0
92940,note_on,0,0,7,,,,,,,,,6,,,74,100
92940,note_on,0,0,8,,,,,,,,,7,,,68,100
92940,note_on,180,0,8,,,,,,,,,7,,,59,100
92940,note_on,180,0,10,,,,,,,,,10,,,52,100
92940,note_on,180,0,9,,,,,,,,,8,,,64,100
92940,note_on,180,0,11,,,,,,,,,11,,,40,100
92940,note_on,180,0,3,,,,,,,,,2,,,52,100
93000,note_on,0,0,8,,,,,,,,,7,,,68,100
93000,note_on,0,0,9,,,,,,,,,8,,,64,100
93000,note_on,60,0,9,,,,,,,,,8,,,64,0
93000,note_on,0,0,10,,,,,,,,,10,,,52,100
93000,note_on,60,0,10,,,,,,,,,10,,,52,0
93000,note_on,60,0,3,,,,,,,,,2,,,52,0
93000,note_on,0,0,3,,,,,,,,,2,,,52,100
93000,note_on,0,0,7,,,,,,,,,6,,,74,100
93000,note_on,60,0,7,,,,,,,,,6,,,74,0
93000,note_on,60,0,11,,,,,,,,,11,,,40,0
93000,note_on,0,0,11,,,,,,,,,11,,,40,100
93000,note_on,60,0,8,,,,,,,,,7,,,68,0
93000,note_on,0,0,8,,,,,,,,,7,,,59,0
93000,note_on,0,0,8,,,,,,,,,7,,,59,100
93060,note_on,60,0,3,,,,,,,,,2,,,52,0
93060,note_on,0,0,3,,,,,,,,,2,,,52,100
93060,note_on,60,0,9,,,,,,,,,8,,,64,0
93060,note_on,0,0,9,,,,,,,,,8,,,64,100
93060,note_on,60,0,8,,,,,,,,,7,,,68,0
93060,note_on,0,0,8,,,,,,,,,7,,,59,0
93060,note_on,0,0,8,,,,,,,,,7,,,59,100
93060,note_on,0,0,8,,,,,,,,,7,,,68,100
93060,note_on,0,0,10,,,,,,,,,10,,,52,100
93060,note_on,60,0,10,,,,,,,,,10,,,52,0
93060,note_on,0,0,11,,,,,,,,,11,,,40,100
93060,note_on,60,0,11,,,,,,,,,11,,,40,0
93060,note_on,60,0,7,,,,,,,,,6,,,74,0
93060,note_on,0,0,7,,,,,,,,,6,,,74,100
93120,note_on,0,0,2,,,,,,,,,1,,,69,100
93120,note_on,0,0,11,,,,,,,,,11,,,41,100
93120,note_on,60,0,11,,,,,,,,,11,,,40,0
93120,note_on,0,0,3,,,,,,,,,2,,,53,100
93120,note_on,60,0,3,,,,,,,,,2,,,52,0
93120,note_on,60,0,7,,,,,,,,,6,,,74,0
93120,note_on,480,0,1,,,,,,,,,0,,,80,0
93120,note_on,0,0,1,,,,,,,,,0,,,81,100
93120,note_on,0,0,7,,,,,,,,,6,,,74,100
93120,note_on,60,0,10,,,,,,,,,10,,,52,0
93120,note_on,0,0,10,,,,,,,,,10,,,53,100
93120,note_on,60,0,9,,,,,,,,,8,,,64,0
93120,note_on,0,0,9,,,,,,,,,8,,,65,100
93120,note_on,360,0,6,,,,,,,,,5,,,50,100
93120,note_on,480,0,2,,,,,,,,,1,,,71,0
93120,note_on,0,0,2,,,,,,,,,1,,,68,0
93120,note_on,0,0,2,,,,,,,,,1,,,74,100
93120,note_on,60,0,8,,,,,,,,,7,,,68,0
93120,note_on,0,0,8,,,,,,,,,7,,,59,0
93120,note_on,0,0,8,,,,,,,,,7,,,69,100
93120,note_on,0,0,8,,,,,,,,,7,,,57,100
93180,note_on,60,0,7,,,,,,,,,6,,,74,0
93180,note_on,0,0,7,,,,,,,,,6,,,76,104
93210,note_on,0,0,7,,,,,,,,,6,,,77,106
93210,note_on,30,0,7,,,,,,,,,6,,,76,0
93240,note_on,120,0,3,,,,,,,,,2,,,53,0
93240,note_on,0,0,7,,,,,,,,,6,,,79,108
93240,note_on,30,0,7,,,,,,,,,6,,,77,0
93240,note_on,0,0,8,,,,,,,,,7,,,57,0
93240,note_on,120,0,8,,,,,,,,,7,,,69,0
93240,note_on,120,0,9,,,,,,,,,8,,,65,0
93240,note_on,120,0,11,,,,,,,,,11,,,41,0
93240,note_on,120,0,6,,,,,,,,,5,,,50,0
93240,note_on,120,0,10,,,,,,,,,10,,,53,0
93270,note_on,30,0,7,,,,,,,,,6,,,79,0
93270,note_on,0,0,7,,,,,,,,,6,,,81,111
93300,note_on,30,0,7,,,,,,,,,6,,,81,0
93300,note_on,0,0,7,,,,,,,,,6,,,83,113
93330,note_on,30,0,7,,,,,,,,,6,,,83,0
93330,note_on,0,0,7,,,,,,,,,6,,,85,115
93360,note_on,30,0,7,,,,,,,,,6,,,85,0
93360,note_on,0,0,7,,,,,,,,,6,,,86,117
93420,note_on,180,0,10,,,,,,,,,10,,,53,100
93420,note_on,180,0,3,,,,,,,,,2,,,53,100
93420,note_on,180,0,9,,,,,,,,,8,,,65,100
93420,note_on,60,0,7,,,,,,,,,6,,,86,0
93420,note_on,0,0,8,,,,,,,,,7,,,57,100
93420,note_on,180,0,11,,,,,,,,,11,,,41,100
93420,note_on,0,0,7,,,,,,,,,6,,,74,100
93420,note_on,180,0,8,,,,,,,,,7,,,69,100
93480,note_on,60,0,9,,,,,,,,,8,,,65,0
93480,note_on,0,0,9,,,,,,,,,8,,,65,100
93480,note_on,0,0,3,,,,,,,,,2,,,53,100
93480,note_on,0,0,10,,,,,,,,,10,,,53,100
93480,note_on,60,0,10,,,,,,,,,10,,,53,0
93480,note_on,60,0,3,,,,,,,,,2,,,53,0
93480,note_on,0,0,8,,,,,,,,,7,,,69,0
93480,note_on,0,0,8,,,,,,,,,7,,,57,100
93480,note_on,0,0,8,,,,,,,,,7,,,69,100
93480,note_on,60,0,8,,,,,,,,,7,,,57,0
93480,note_on,60,0,7,,,,,,,,,6,,,74,0
93480,note_on,0,0,7,,,,,,,,,6,,,74,100
93480,note_on,60,0,11,,,,,,,,,11,,,41,0
93480,note_on,0,0,11,,,,,,,,,11,,,41,100
93540,note_on,60,0,3,,,,,,,,,2,,,53,0
93540,note_on,0,0,10,,,,,,,,,10,,,53,100
93540,note_on,60,0,10,,,,,,,,,10,,,53,0
93540,note_on,60,0,11,,,,,,,,,11,,,41,0
93540,note_on,60,0,9,,,,,,,,,8,,,65,0
93540,note_on,0,0,9,,,,,,,,,8,,,65,100
93540,note_on,0,0,3,,,,,,,,,2,,,53,100
93540,note_on,0,0,8,,,,,,,,,7,,,57,100
93540,note_on,0,0,8,,,,,,,,,7,,,69,0
93540,note_on,0,0,11,,,,,,,,,11,,,41,100
93540,note_on,0,0,7,,,,,,,,,6,,,74,100
93540,note_on,60,0,7,,,,,,,,,6,,,74,0
93540,note_on,60,0,8,,,,,,,,,7,,,57,0
93540,note_on,0,0,8,,,,,,,,,7,,,69,100
93600,note_on,0,0,9,,,,,,,,,8,,,66,100
93600,note_on,60,0,9,,,,,,,,,8,,,65,0
93600,note_on,60,0,11,,,,,,,,,11,,,41,0
93600,note_on,0,0,11,,,,,,,,,11,,,42,100
93600,note_on,360,0,6,,,,,,,,,5,,,50,100
93600,note_on,480,0,2,,,,,,,,,1,,,69,0
93600,note_on,0,0,2,,,,,,,,,1,,,74,0
93600,note_on,0,0,1,,,,,,,,,0,,,84,100
93600,note_on,0,0,2,,,,,,,,,1,,,72,100
93600,note_on,0,0,7,,,,,,,,,6,,,74,100
93600,note_on,60,0,7,,,,,,,,,6,,,74,0
93600,note_on,0,0,3,,,,,,,,,2,,,54,100
93600,note_on,60,0,3,,,,,,,,,2,,,53,0
93600,note_on,0,0,10,,,,,,,,,10,,,54,100
93600,note_on,60,0,10,,,,,,,,,10,,,53,0
93600,note_on,0,0,2,,,,,,,,,1,,,81,100
93600,note_on,480,0,1,,,,,,,,,0,,,81,0
93600,note_on,0,0,8,,,,,,,,,7,,,69,100
93600,note_on,0,0,8,,,,,,,,,7,,,72,100
93600,note_on,0,0,8,,,,,,,,,7,,,69,0
93600,note_on,60,0,8,,,,,,,,,7,,,57,0
93660,note_on,0,0,7,,,,,,,,,6,,,76,104
93660,note_on,60,0,7,,,,,,,,,6,,,74,0
93690,note_on,0,0,7,,,,,,,,,6,,,78,106
93690,note_on,30,0,7,,,,,,,,,6,,,76,0
93720,note_on,120,0,6,,,,,,,,,5,,,50,0
93720,note_on,120,0,11,,,,,,,,,11,,,42,0
93720,note_on,120,0,10,,,,,,,,,10,,,54,0
93720,note_on,120,0,8,,,,,,,,,7,,,69,0
93720,note_on,0,0,8,,,,,,,,,7,,,72,0
93720,note_on,120,0,9,,,,,,,,,8,,,66,0
93720,note_on,0,0,7,,,,,,,,,6,,,79,108
93720,note_on,30,0,7,,,,,,,,,6,,,78,0
93720,note_on,120,0,3,,,,,,,,,2,,,54,0
93750,note_on,30,0,7,,,,,,,,,6,,,79,0
93750,note_on,0,0,7,,,,,,,,,6,,,81,111
93780,note_on,30,0,7,,,,,,,,,6,,,81,0
93780,note_on,0,0,7,,,,,,,,,6,,,82,113
93810,note_on,30,0,7,,,,,,,,,6,,,82,0
93810,note_on,0,0,7,,,,,,,,,6,,,84,115
93840,note_on,30,0,7,,,,,,,,,6,,,84,0
93840,note_on,0,0,7,,,,,,,,,6,,,86,117
93900,note_on,180,0,8,,,,,,,,,7,,,72,100
93900,note_on,0,0,8,,,,,,,,,7,,,69,100
93900,note_on,60,0,7,,,,,,,,,6,,,86,0
93900,note_on,180,0,9,,,,,,,,,8,,,66,100
93900,note_on,180,0,10,,,,,,,,,10,,,54,100
93900,note_on,180,0,11,,,,,,,,,11,,,42,100
93900,note_on,180,0,3,,,,,,,,,2,,,54,100
93900,note_on,0,0,7,,,,,,,,,6,,,74,100
93960,note_on,0,0,7,,,,,,,,,6,,,74,100
93960,note_on,60,0,9,,,,,,,,,8,,,66,0
93960,note_on,0,0,9,,,,,,,,,8,,,66,100
93960,note_on,0,0,8,,,,,,,,,7,,,72,0
93960,note_on,60,0,10,,,,,,,,,10,,,54,0
93960,note_on,0,0,8,,,,,,,,,7,,,72,100
93960,note_on,60,0,3,,,,,,,,,2,,,54,0
93960,note_on,0,0,8,,,,,,,,,7,,,69,100
93960,note_on,0,0,10,,,,,,,,,10,,,54,100
93960,note_on,60,0,8,,,,,,,,,7,,,69,0
93960,note_on,0,0,11,,,,,,,,,11,,,42,100
93960,note_on,60,0,11,,,,,,,,,11,,,42,0
93960,note_on,0,0,3,,,,,,,,,2,,,54,100
93960,note_on,60,0,7,,,,,,,,,6,,,74,0
94020,note_on,60,0,10,,,,,,,,,10,,,54,0
94020,note_on,0,0,7,,,,,,,,,6,,,74,100
94020,note_on,60,0,7,,,,,,,,,6,,,74,0
94020,note_on,0,0,10,,,,,,,,,10,,,54,100
94020,note_on,60,0,3,,,,,,,,,2,,,54,0
94020,note_on,60,0,9,,,,,,,,,8,,,66,0
94020,note_on,0,0,9,,,,,,,,,8,,,66,100
94020,note_on,60,0,8,,,,,,,,,7,,,69,0
94020,note_on,0,0,8,,,,,,,,,7,,,72,0
94020,note_on,0,0,11,,,,,,,,,11,,,42,100
94020,note_on,60,0,11,,,,,,,,,11,,,42,0
94020,note_on,0,0,8,,,,,,,,,7,,,72,100
94020,note_on,0,0,8,,,,,,,,,7,,,69,100
94020,note_on,0,0,3,,,,,,,,,2,,,54,100
94080,note_on,0,0,1,,,,,,,,,0,,,82,100
94080,note_on,480,0,1,,,,,,,,,0,,,84,0
94080,note_on,0,0,8,,,,,,,,,7,,,72,0
94080,note_on,60,0,10,,,,,,,,,10,,,54,0
94080,note_on,480,0,2,,,,,,,,,1,,,72,0
94080,note_on,60,0,3,,,,,,,,,2,,,54,0
94080,note_on,0,0,3,,,,,,,,,2,,,55,100
94080,note_on,60,0,11,,,,,,,,,11,,,42,0
94080,note_on,0,0,11,,,,,,,,,11,,,43,100
94080,note_on,0,0,7,,,,,,,,,6,,,74,100
94080,note_on,60,0,7,,,,,,,,,6,,,74,0
94080,note_on,60,0,8,,,,,,,,,7,,,69,0
94080,note_on,0,0,10,,,,,,,,,10,,,55,100
94080,note_on,0,0,2,,,,,,,,,1,,,81,0
94080,note_on,0,0,2,,,,,,,,,1,,,70,100
94080,note_on,360,0,6,,,,,,,,,5,,,50,100
94080,note_on,60,0,9,,,,,,,,,8,,,66,0
94080,note_on,0,0,9,,,,,,,,,8,,,67,100
94080,note_on,0,0,2,,,,,,,,,1,,,79,100
94140,note_on,60,0,7,,,,,,,,,6,,,74,0
94140,note_on,0,0,7,,,,,,,,,6,,,76,104
94170,note_on,30,0,7,,,,,,,,,6,,,76,0
94170,note_on,0,0,7,,,,,,,,,6,,,78,106
94200,note_on,120,0,6,,,,,,,,,5,,,50,0
94200,note_on,120,0,3,,,,,,,,,2,,,55,0
94200,note_on,120,0,11,,,,,,,,,11,,,43,0
94200,note_on,30,0,7,,,,,,,,,6,,,78,0
94200,note_on,0,0,7,,,,,,,,,6,,,79,108
94200,note_on,120,0,10,,,,,,,,,10,,,55,0
94200,note_on,120,0,9,,,,,,,,,8,,,67,0
94230,note_on,0,0,7,,,,,,,,,6,,,81,111
94230,note_on,30,0,7,,,,,,,,,6,,,79,0
94260,note_on,30,0,7,,,,,,,,,6,,,81,0
94260,note_on,0,0,7,,,,,,,,,6,,,82,113
94290,note_on,30,0,7,,,,,,,,,6,,,82,0
94290,note_on,0,0,7,,,,,,,,,6,,,84,115
94320,note_on,0,0,7,,,,,,,,,6,,,86,117
94320,note_on,30,0,7,,,,,,,,,6,,,84,0
94380,note_on,300,0,8,,,,,,,,,7,,,67,100
94380,note_on,0,0,8,,,,,,,,,7,,,70,100
94380,note_on,180,0,3,,,,,,,,,2,,,55,100
94380,note_on,180,0,11,,,,,,,,,11,,,43,100
94380,note_on,180,0,10,,,,,,,,,10,,,55,100
94380,note_on,60,0,7,,,,,,,,,6,,,86,0
94380,note_on,0,0,7,,,,,,,,,6,,,74,100
94380,note_on,180,0,9,,,,,,,,,8,,,55,100
94440,note_on,60,0,7,,,,,,,,,6,,,74,0
94440,note_on,0,0,3,,,,,,,,,2,,,55,100
94440,note_on,60,0,3,,,,,,,,,2,,,55,0
94440,note_on,0,0,7,,,,,,,,,6,,,74,100
94440,note_on,0,0,10,,,,,,,,,10,,,55,100
94440,note_on,0,0,8,,,,,,,,,7,,,67,100
94440,note_on,60,0,10,,,,,,,,,10,,,55,0
94440,note_on,0,0,11,,,,,,,,,11,,,43,100
94440,note_on,60,0,11,,,,,,,,,11,,,43,0
94440,note_on,60,0,9,,,,,,,,,8,,,55,0
94440,note_on,0,0,9,,,,,,,,,8,,,55,100
94440,note_on,0,0,8,,,,,,,,,7,,,70,100
94440,note_on,0,0,8,,,,,,,,,7,,,67,0
94440,note_on,60,0,8,,,,,,,,,7,,,70,0
94500,note_on,0,0,8,,,,,,,,,7,,,70,100
94500,note_on,0,0,10,,,,,,,,,10,,,55,100
94500,note_on,0,0,11,,,,,,,,,11,,,43,100
94500,note_on,60,0,11,,,,,,,,,11,,,43,0
94500,note_on,0,0,8,,,,,,,,,7,,,67,0
94500,note_on,0,0,3,,,,,,,,,2,,,55,100
94500,note_on,0,0,7,,,,,,,,,6,,,74,100
94500,note_on,60,0,7,,,,,,,,,6,,,74,0
94500,note_on,60,0,3,,,,,,,,,2,,,55,0
94500,note_on,60,0,8,,,,,,,,,7,,,70,0
94500,note_on,0,0,9,,,,,,,,,8,,,55,100
94500,note_on,60,0,10,,,,,,,,,10,,,55,0
94500,note_on,0,0,8,,,,,,,,,7,,,67,100
94500,note_on,60,0,9,,,,,,,,,8,,,55,0
94560,note_on,0,0,8,,,,,,,,,7,,,77,100
94560,note_on,0,0,8,,,,,,,,,7,,,67,0
94560,note_on,60,0,11,,,,,,,,,11,,,43,0
94560,note_on,0,0,11,,,,,,,,,11,,,44,100
94560,note_on,60,0,8,,,,,,,,,7,,,70,0
94560,note_on,360,0,6,,,,,,,,,5,,,50,100
94560,note_on,0,0,7,,,,,,,,,6,,,86,100
94560,note_on,60,0,10,,,,,,,,,10,,,55,0
94560,note_on,0,0,10,,,,,,,,,10,,,56,100
94560,note_on,0,0,1,,,,,,,,,0,,,83,100
94560,note_on,0,0,1,,,,,,,,,0,,,89,100
94560,note_on,0,0,1,,,,,,,,,0,,,86,0
94560,note_on,480,0,1,,,,,,,,,0,,,82,0
94560,note_on,0,0,5,,,,,,,,,4,,,74,100
94560,note_on,0,0,5,,,,,,,,,4,,,62,100
94560,note_on,0,0,5,,,,,,,,,4,,,62,0
94560,note_on,60,0,7,,,,,,,,,6,,,74,0
94560,note_on,0,0,4,,,,,,,,,3,,,62,100
94560,note_on,1920,0,5,,,,,,,,,4,,,74,0
94560,note_on,0,0,4,,,,,,,,,3,,,50,0
94560,note_on,1920,0,4,,,,,,,,,3,,,62,0
94560,note_on,60,0,9,,,,,,,,,8,,,55,0
94560,note_on,0,0,9,,,,,,,,,8,,,56,100
94560,note_on,60,0,3,,,,,,,,,2,,,55,0
94560,note_on,0,0,3,,,,,,,,,2,,,56,100
94560,note_on,0,0,2,,,,,,,,,1,,,71,100
94560,note_on,0,0,2,,,,,,,,,1,,,79,0
94560,note_on,480,0,2,,,,,,,,,1,,,70,0
94560,note_on,0,0,7,,,,,,,,,6,,,74,100
94560,note_on,0,0,4,,,,,,,,,3,,,50,100
94560,note_on,0,0,2,,,,,,,,,1,,,77,100
94590,note_on,30,0,11,,,,,,,,,11,,,44,0
94590,note_on,0,0,11,,,,,,,,,11,,,44,100
94590,note_on,0,0,8,,,,,,,,,7,,,77,100
94590,note_on,0,0,7,,,,,,,,,6,,,86,0
94590,note_on,0,0,10,,,,,,,,,10,,,56,100
94590,note_on,30,0,7,,,,,,,,,6,,,74,0
94590,note_on,30,0,10,,,,,,,,,10,,,56,0
94590,note_on,30,0,9,,,,,,,,,8,,,56,0
94590,note_on,0,0,9,,,,,,,,,8,,,56,100
94590,note_on,0,0,7,,,,,,,,,6,,,74,100
94590,note_on,0,0,7,,,,,,,,,6,,,86,100
94590,note_on,30,0,8,,,,,,,,,7,,,77,0
94620,note_on,60,0,3,,,,,,,,,2,,,56,0
94620,note_on,0,0,11,,,,,,,,,11,,,44,100
94620,note_on,0,0,8,,,,,,,,,7,,,77,100
94620,note_on,30,0,9,,,,,,,,,8,,,56,0
94620,note_on,0,0,9,,,,,,,,,8,,,56,100
94620,note_on,30,0,8,,,,,,,,,7,,,77,0
94620,note_on,0,0,10,,,,,,,,,10,,,56,100
94620,note_on,30,0,10,,,,,,,,,10,,,56,0
94620,note_on,0,0,3,,,,,,,,,2,,,56,100
94620,note_on,30,0,11,,,,,,,,,11,,,44,0
94620,note_on,30,0,7,,,,,,,,,6,,,74,0
94620,note_on,0,0,7,,,,,,,,,6,,,86,100
94620,note_on,0,0,7,,,,,,,,,6,,,74,100
94620,note_on,0,0,7,,,,,,,,,6,,,86,0
94650,note_on,30,0,10,,,,,,,,,10,,,56,0
94650,note_on,30,0,11,,,,,,,,,11,,,44,0
94650,note_on,0,0,9,,,,,,,,,8,,,56,101
94650,note_on,30,0,9,,,,,,,,,8,,,56,0
94650,note_on,0,0,7,,,,,,,,,6,,,74,101
94650,note_on,0,0,7,,,,,,,,,6,,,86,101
94650,note_on,0,0,11,,,,,,,,,11,,,44,101
94650,note_on,0,0,7,,,,,,,,,6,,,86,0
94650,note_on,30,0,7,,,,,,,,,6,,,74,0
94650,note_on,0,0,8,,,,,,,,,7,,,77,101
94650,note_on,30,0,8,,,,,,,,,7,,,77,0
94650,note_on,0,0,10,,,,,,,,,10,,,56,101
94680,note_on,30,0,9,,,,,,,,,8,,,56,0
94680,note_on,0,0,9,,,,,,,,,8,,,56,101
94680,note_on,120,0,6,,,,,,,,,5,,,50,0
94680,note_on,60,0,3,,,,,,,,,2,,,56,0
94680,note_on,30,0,11,,,,,,,,,11,,,44,0
94680,note_on,0,0,11,,,,,,,,,11,,,44,101
94680,note_on,0,0,7,,,,,,,,,6,,,86,0
94680,note_on,0,0,10,,,,,,,,,10,,,56,101
94680,note_on,30,0,10,,,,,,,,,10,,,56,0
94680,note_on,0,0,7,,,,,,,,,6,,,86,101
94680,note_on,0,0,7,,,,,,,,,6,,,74,101
94680,note_on,0,0,8,,,,,,,,,7,,,77,101
94680,note_on,30,0,8,,,,,,,,,7,,,77,0
94680,note_on,30,0,7,,,,,,,,,6,,,74,0
94680,note_on,0,0,3,,,,,,,,,2,,,56,101
94710,note_on,0,0,8,,,,,,,,,7,,,77,102
94710,note_on,30,0,8,,,,,,,,,7,,,77,0
94710,note_on,30,0,10,,,,,,,,,10,,,56,0
94710,note_on,30,0,9,,,,,,,,,8,,,56,0
94710,note_on,0,0,9,,,,,,,,,8,,,56,102
94710,note_on,0,0,10,,,,,,,,,10,,,56,102
94710,note_on,30,0,7,,,,,,,,,6,,,74,0
94710,note_on,0,0,7,,,,,,,,,6,,,86,0
94710,note_on,0,0,7,,,,,,,,,6,,,86,102
94710,note_on,30,0,11,,,,,,,,,11,,,44,0
94710,note_on,0,0,11,,,,,,,,,11,,,44,102
94710,note_on,0,0,7,,,,,,,,,6,,,74,102
94740,note_on,30,0,11,,,,,,,,,11,,,44,0
94740,note_on,0,0,9,,,,,,,,,8,,,56,102
94740,note_on,0,0,8,,,,,,,,,7,,,77,102
94740,note_on,30,0,9,,,,,,,,,8,,,56,0
94740,note_on,0,0,10,,,,,,,,,10,,,56,102
94740,note_on,30,0,10,,,,,,,,,10,,,56,0
94740,note_on,0,0,7,,,,,,,,,6,,,86,102
94740,note_on,0,0,7,,,,,,,,,6,,,86,0
94740,note_on,30,0,7,,,,,,,,,6,,,74,0
94740,note_on,30,0,8,,,,,,,,,7,,,77,0
94740,note_on,0,0,11,,,,,,,,,11,,,44,102
94740,note_on,0,0,7,,,,,,,,,6,,,74,102
94740,note_on,0,0,3,,,,,,,,,2,,,56,102
94740,note_on,60,0,3,,,,,,,,,2,,,56,0
94770,note_on,30,0,8,,,,,,,,,7,,,77,0
94770,note_on,30,0,11,,,,,,,,,11,,,44,0
94770,note_on,0,0,11,,,,,,,,,11,,,44,103
94770,note_on,0,0,8,,,,,,,,,7,,,77,103
94770,note_on,0,0,7,,,,,,,,,6,,,74,103
94770,note_on,0,0,7,,,,,,,,,6,,,86,103
94770,note_on,0,0,7,,,,,,,,,6,,,86,0
94770,note_on,30,0,7,,,,,,,,,6,,,74,0
94770,note_on,30,0,10,,,,,,,,,10,,,56,0
94770,note_on,30,0,9,,,,,,,,,8,,,56,0
94770,note_on,0,0,9,,,,,,,,,8,,,56,103
94770,note_on,0,0,10,,,,,,,,,10,,,56,103
94800,note_on,0,0,3,,,,,,,,,2,,,57,103
94800,note_on,240,0,4,,,,,,,,,3,,,62,0
94800,note_on,0,0,4,,,,,,,,,3,,,50,0
94800,note_on,0,0,4,,,,,,,,,3,,,50,103
94800,note_on,0,0,4,,,,,,,,,3,,,62,103
94800,note_on,240,0,2,,,,,,,,,1,,,71,0
94800,note_on,30,0,10,,,,,,,,,10,,,56,0
94800,note_on,0,0,2,,,,,,,,,1,,,77,0
94800,note_on,0,0,10,,,,,,,,,10,,,57,103
94800,note_on,240,0,5,,,,,,,,,4,,,74,0
94800,note_on,0,0,5,,,,,,,,,4,,,62,0
94800,note_on,0,0,5,,,,,,,,,4,,,62,103
94800,note_on,0,0,5,,,,,,,,,4,,,74,103
94800,note_on,30,0,9,,,,,,,,,8,,,56,0
94800,note_on,0,0,9,,,,,,,,,8,,,57,103
94800,note_on,60,0,3,,,,,,,,,2,,,56,0
94800,note_on,0,0,7,,,,,,,,,6,,,86,0
94800,note_on,30,0,7,,,,,,,,,6,,,74,0
94800,note_on,0,0,7,,,,,,,,,6,,,74,103
94800,note_on,0,0,1,,,,,,,,,0,,,90,103
94800,note_on,0,0,1,,,,,,,,,0,,,84,103
94800,note_on,0,0,1,,,,,,,,,0,,,89,0
94800,note_on,240,0,1,,,,,,,,,0,,,83,0
94800,note_on,0,0,2,,,,,,,,,1,,,78,103
94800,note_on,0,0,2,,,,,,,,,1,,,72,103
94800,note_on,0,0,11,,,,,,,,,11,,,45,103
94800,note_on,30,0,11,,,,,,,,,11,,,44,0
94800,note_on,0,0,8,,,,,,,,,7,,,78,103
94800,note_on,0,0,7,,,,,,,,,6,,,86,103
94800,note_on,120,0,6,,,,,,,,,5,,,50,103
94800,note_on,30,0,8,,,,,,,,,7,,,77,0
94830,note_on,0,0,7,,,,,,,,,6,,,74,104
94830,note_on,30,0,10,,,,,,,,,10,,,57,0
94830,note_on,0,0,10,,,,,,,,,10,,,57,104
94830,note_on,0,0,7,,,,,,,,,6,,,86,104
94830,note_on,0,0,7,,,,,,,,,6,,,86,0
94830,note_on,30,0,7,,,,,,,,,6,,,74,0
94830,note_on,30,0,9,,,,,,,,,8,,,57,0
94830,note_on,30,0,8,,,,,,,,,7,,,78,0
94830,note_on,0,0,9,,,,,,,,,8,,,57,104
94830,note_on,0,0,8,,,,,,,,,7,,,78,104
94830,note_on,30,0,11,,,,,,,,,11,,,45,0
94830,note_on,0,0,11,,,,,,,,,11,,,45,104
94860,note_on,30,0,11,,,,,,,,,11,,,45,0
94860,note_on,0,0,8,,,,,,,,,7,,,78,104
94860,note_on,30,0,8,,,,,,,,,7,,,78,0
94860,note_on,0,0,11,,,,,,,,,11,,,45,104
94860,note_on,30,0,9,,,,,,,,,8,,,57,0
94860,note_on,0,0,3,,,,,,,,,2,,,57,104
94860,note_on,60,0,3,,,,,,,,,2,,,57,0
94860,note_on,0,0,9,,,,,,,,,8,,,57,104
94860,note_on,30,0,7,,,,,,,,,6,,,74,0
94860,note_on,0,0,7,,,,,,,,,6,,,86,0
94860,note_on,0,0,7,,,,,,,,,6,,,86,104
94860,note_on,0,0,7,,,,,,,,,6,,,74,104
94860,note_on,30,0,10,,,,,,,,,10,,,57,0
94860,note_on,0,0,10,,,,,,,,,10,,,57,104
94890,note_on,0,0,9,,,,,,,,,8,,,57,105
94890,note_on,0,0,11,,,,,,,,,11,,,45,105
94890,note_on,30,0,10,,,,,,,,,10,,,57,0
94890,note_on,30,0,11,,,,,,,,,11,,,45,0
94890,note_on,30,0,8,,,,,,,,,7,,,78,0
94890,note_on,30,0,7,,,,,,,,,6,,,74,0
94890,note_on,0,0,7,,,,,,,,,6,,,86,0
94890,note_on,0,0,8,,,,,,,,,7,,,78,105
94890,note_on,0,0,10,,,,,,,,,10,,,57,105
94890,note_on,0,0,7,,,,,,,,,6,,,74,105
94890,note_on,30,0,9,,,,,,,,,8,,,57,0
94890,note_on,0,0,7,,,,,,,,,6,,,86,105
94920,note_on,30,0,7,,,,,,,,,6,,,74,0
94920,note_on,60,0,3,,,,,,,,,2,,,57,0
94920,note_on,30,0,8,,,,,,,,,7,,,78,0
94920,note_on,30,0,9,,,,,,,,,8,,,57,0
94920,note_on,120,0,6,,,,,,,,,5,,,50,0
94920,note_on,0,0,8,,,,,,,,,7,,,78,105
94920,note_on,0,0,7,,,,,,,,,6,,,86,0
94920,note_on,0,0,9,,,,,,,,,8,,,57,105
94920,note_on,0,0,3,,,,,,,,,2,,,57,105
94920,note_on,0,0,11,,,,,,,,,11,,,45,105
94920,note_on,0,0,7,,,,,,,,,6,,,74,105
94920,note_on,0,0,7,,,,,,,,,6,,,86,105
94920,note_on,30,0,10,,,,,,,,,10,,,57,0
94920,note_on,0,0,10,,,,,,,,,10,,,57,105
94920,note_on,30,0,11,,,,,,,,,11,,,45,0
94950,note_on,0,0,8,,,,,,,,,7,,,78,106
94950,note_on,30,0,11,,,,,,,,,11,,,45,0
94950,note_on,0,0,11,,,,,,,,,11,,,45,106
94950,note_on,30,0,8,,,,,,,,,7,,,78,0
94950,note_on,30,0,10,,,,,,,,,10,,,57,0
94950,note_on,30,0,9,,,,,,,,,8,,,57,0
94950,note_on,0,0,10,,,,,,,,,10,,,57,106
94950,note_on,0,0,7,,,,,,,,,6,,,74,106
94950,note_on,0,0,7,,,,,,,,,6,,,86,106
94950,note_on,0,0,7,,,,,,,,,6,,,86,0
94950,note_on,30,0,7,,,,,,,,,6,,,74,0
94950,note_on,0,0,9,,,,,,,,,8,,,57,106
94980,note_on,0,0,7,,,,,,,,,6,,,74,106
94980,note_on,0,0,7,,,,,,,,,6,,,86,106
94980,note_on,0,0,7,,,,,,,,,6,,,86,0
94980,note_on,30,0,7,,,,,,,,,6,,,74,0
94980,note_on,30,0,11,,,,,,,,,11,,,45,0
94980,note_on,0,0,11,,,,,,,,,11,,,45,106
94980,note_on,0,0,8,,,,,,,,,7,,,78,106
94980,note_on,30,0,10,,,,,,,,,10,,,57,0
94980,note_on,0,0,10,,,,,,,,,10,,,57,106
94980,note_on,0,0,9,,,,,,,,,8,,,57,106
94980,note_on,60,0,3,,,,,,,,,2,,,57,0
94980,note_on,30,0,8,,,,,,,,,7,,,78,0
94980,note_on,30,0,9,,,,,,,,,8,,,57,0
94980,note_on,0,0,3,,,,,,,,,2,,,57,106
95010,note_on,0,0,11,,,,,,,,,11,,,45,107
95010,note_on,30,0,11,,,,,,,,,11,,,45,0
95010,note_on,0,0,7,,,,,,,,,6,,,74,107
95010,note_on,0,0,7,,,,,,,,,6,,,86,107
95010,note_on,0,0,7,,,,,,,,,6,,,86,0
95010,note_on,30,0,7,,,,,,,,,6,,,74,0
95010,note_on,0,0,8,,,,,,,,,7,,,78,107
95010,note_on,30,0,8,,,,,,,,,7,,,78,0
95010,note_on,0,0,10,,,,,,,,,10,,,57,107
95010,note_on,30,0,10,,,,,,,,,10,,,57,0
95010,note_on,30,0,9,,,,,,,,,8,,,57,0
95010,note_on,0,0,9,,,,,,,,,8,,,57,107
95040,note_on,0,0,4,,,,,,,,,3,,,62,107
95040,note_on,0,0,4,,,,,,,,,3,,,50,107
95040,note_on,0,0,4,,,,,,,,,3,,,50,0
95040,note_on,240,0,4,,,,,,,,,3,,,62,0
95040,note_on,240,0,5,,,,,,,,,4,,,74,0
95040,note_on,0,0,2,,,,,,,,,1,,,79,107
95040,note_on,0,0,9,,,,,,,,,8,,,58,107
95040,note_on,240,0,2,,,,,,,,,1,,,72,0
95040,note_on,0,0,2,,,,,,,,,1,,,78,0
95040,note_on,0,0,2,,,,,,,,,1,,,74,107
95040,note_on,120,0,6,,,,,,,,,5,,,50,107
95040,note_on,0,0,8,,,,,,,,,7,,,79,107
95040,note_on,30,0,8,,,,,,,,,7,,,78,0
95040,note_on,240,0,1,,,,,,,,,0,,,90,0
95040,note_on,0,0,1,,,,,,,,,0,,,84,0
95040,note_on,30,0,9,,,,,,,,,8,,,57,0
95040,note_on,0,0,5,,,,,,,,,4,,,62,0
95040,note_on,0,0,1,,,,,,,,,0,,,86,107
95040,note_on,0,0,5,,,,,,,,,4,,,74,107
95040,note_on,30,0,10,,,,,,,,,10,,,57,0
95040,note_on,0,0,10,,,,,,,,,10,,,58,107
95040,note_on,60,0,3,,,,,,,,,2,,,57,0
95040,note_on,30,0,7,,,,,,,,,6,,,74,0
95040,note_on,0,0,7,,,,,,,,,6,,,86,0
95040,note_on,0,0,5,,,,,,,,,4,,,62,107
95040,note_on,0,0,7,,,,,,,,,6,,,86,107
95040,note_on,0,0,3,,,,,,,,,2,,,58,107
95040,note_on,0,0,7,,,,,,,,,6,,,74,107
95040,note_on,0,0,1,,,,,,,,,0,,,91,107
95040,note_on,30,0,11,,,,,,,,,11,,,45,0
95040,note_on,0,0,11,,,,,,,,,11,,,46,107
95070,note_on,30,0,10,,,,,,,,,10,,,58,0
95070,note_on,0,0,10,,,,,,,,,10,,,58,107
95070,note_on,30,0,11,,,,,,,,,11,,,46,0
95070,note_on,0,0,11,,,,,,,,,11,,,46,107
95070,note_on,30,0,8,,,,,,,,,7,,,79,0
95070,note_on,0,0,7,,,,,,,,,6,,,86,107
95070,note_on,0,0,9,,,,,,,,,8,,,58,107
95070,note_on,30,0,9,,,,,,,,,8,,,58,0
95070,note_on,30,0,7,,,,,,,,,6,,,86,0
95070,note_on,0,0,7,,,,,,,,,6,,,74,0
95070,note_on,0,0,7,,,,,,,,,6,,,74,107
95070,note_on,0,0,8,,,,,,,,,7,,,79,107
95100,note_on,0,0,9,,,,,,,,,8,,,58,108
95100,note_on,60,0,3,,,,,,,,,2,,,58,0
95100,note_on,30,0,11,,,,,,,,,11,,,46,0
95100,note_on,0,0,11,,,,,,,,,11,,,46,108
95100,note_on,0,0,3,,,,,,,,,2,,,58,108
95100,note_on,30,0,9,,,,,,,,,8,,,58,0
95100,note_on,0,0,7,,,,,,,,,6,,,74,0
95100,note_on,0,0,7,,,,,,,,,6,,,74,108
95100,note_on,0,0,10,,,,,,,,,10,,,58,108
95100,note_on,0,0,7,,,,,,,,,6,,,86,108
95100,note_on,0,0,8,,,,,,,,,7,,,79,108
95100,note_on,30,0,10,,,,,,,,,10,,,58,0
95100,note_on,30,0,7,,,,,,,,,6,,,86,0
95100,note_on,30,0,8,,,,,,,,,7,,,79,0
95130,note_on,30,0,9,,,,,,,,,8,,,58,0
95130,note_on,0,0,9,,,,,,,,,8,,,58,108
95130,note_on,0,0,7,,,,,,,,,6,,,86,108
95130,note_on,0,0,10,,,,,,,,,10,,,58,108
95130,note_on,0,0,11,,,,,,,,,11,,,46,108
95130,note_on,30,0,11,,,,,,,,,11,,,46,0
95130,note_on,30,0,7,,,,,,,,,6,,,86,0
95130,note_on,0,0,7,,,,,,,,,6,,,74,0
95130,note_on,0,0,7,,,,,,,,,6,,,74,108
95130,note_on,30,0,10,,,,,,,,,10,,,58,0
95130,note_on,30,0,8,,,,,,,,,7,,,79,0
95130,note_on,0,0,8,,,,,,,,,7,,,79,108
95160,note_on,30,0,7,,,,,,,,,6,,,86,0
95160,note_on,30,0,10,,,,,,,,,10,,,58,0
95160,note_on,30,0,9,,,,,,,,,8,,,58,0
95160,note_on,0,0,11,,,,,,,,,11,,,46,109
95160,note_on,30,0,11,,,,,,,,,11,,,46,0
95160,note_on,30,0,8,,,,,,,,,7,,,79,0
95160,note_on,0,0,8,,,,,,,,,7,,,79,109
95160,note_on,0,0,9,,,,,,,,,8,,,58,109
95160,note_on,0,0,10,,,,,,,,,10,,,58,109
95160,note_on,0,0,7,,,,,,,,,6,,,74,0
95160,note_on,0,0,7,,,,,,,,,6,,,74,109
95160,note_on,0,0,7,,,,,,,,,6,,,86,109
95160,note_on,0,0,3,,,,,,,,,2,,,58,109
95160,note_on,60,0,3,,,,,,,,,2,,,58,0
95160,note_on,120,0,6,,,,,,,,,5,,,50,0
95190,note_on,0,0,8,,,,,,,,,7,,,79,109
95190,note_on,0,0,9,,,,,,,,,8,,,58,109
95190,note_on,30,0,9,,,,,,,,,8,,,58,0
95190,note_on,30,0,8,,,,,,,,,7,,,79,0
95190,note_on,0,0,7,,,,,,,,,6,,,74,109
95190,note_on,0,0,7,,,,,,,,,6,,,86,109
95190,note_on,0,0,10,,,,,,,,,10,,,58,109
95190,note_on,30,0,10,,,,,,,,,10,,,58,0
95190,note_on,30,0,7,,,,,,,,,6,,,86,0
95190,note_on,0,0,7,,,,,,,,,6,,,74,0
95190,note_on,0,0,11,,,,,,,,,11,,,46,109
95190,note_on,30,0,11,,,,,,,,,11,,,46,0
95220,note_on,0,0,10,,,,,,,,,10,,,58,110
95220,note_on,30,0,10,,,,,,,,,10,,,58,0
95220,note_on,30,0,8,,,,,,,,,7,,,79,0
95220,note_on,0,0,8,,,,,,,,,7,,,79,110
95220,note_on,0,0,11,,,,,,,,,11,,,46,110
95220,note_on,0,0,3,,,,,,,,,2,,,58,110
95220,note_on,30,0,11,,,,,,,,,11,,,46,0
95220,note_on,30,0,7,,,,,,,,,6,,,86,0
95220,note_on,0,0,7,,,,,,,,,6,,,74,0
95220,note_on,0,0,7,,,,,,,,,6,,,74,110
95220,note_on,0,0,7,,,,,,,,,6,,,86,110
95220,note_on,0,0,9,,,,,,,,,8,,,58,110
95220,note_on,60,0,3,,,,,,,,,2,,,58,0
95220,note_on,30,0,9,,,,,,,,,8,,,58,0
95250,note_on,30,0,8,,,,,,,,,7,,,79,0
95250,note_on,0,0,9,,,,,,,,,8,,,58,110
95250,note_on,30,0,9,,,,,,,,,8,,,58,0
95250,note_on,0,0,7,,,,,,,,,6,,,86,110
95250,note_on,30,0,10,,,,,,,,,10,,,58,0
95250,note_on,0,0,7,,,,,,,,,6,,,74,0
95250,note_on,0,0,10,,,,,,,,,10,,,58,110
95250,note_on,30,0,7,,,,,,,,,6,,,86,0
95250,note_on,0,0,8,,,,,,,,,7,,,79,110
95250,note_on,30,0,11,,,,,,,,,11,,,46,0
95250,note_on,0,0,11,,,,,,,,,11,,,46,110
95250,note_on,0,0,7,,,,,,,,,6,,,74,110
95280,note_on,30,0,8,,,,,,,,,7,,,79,0
95280,note_on,0,0,1,,,,,,,,,0,,,91,0
95280,note_on,240,0,4,,,,,,,,,3,,,62,0
95280,note_on,0,0,1,,,,,,,,,0,,,89,111
95280,note_on,0,0,1,,,,,,,,,0,,,92,111
95280,note_on,120,0,6,,,,,,,,,5,,,50,111
95280,note_on,0,0,2,,,,,,,,,1,,,80,111
95280,note_on,0,0,2,,,,,,,,,1,,,77,111
95280,note_on,0,0,2,,,,,,,,,1,,,74,0
95280,note_on,240,0,2,,,,,,,,,1,,,79,0
95280,note_on,30,0,11,,,,,,,,,11,,,46,0
95280,note_on,0,0,11,,,,,,,,,11,,,47,111
95280,note_on,0,0,3,,,,,,,,,2,,,59,111
95280,note_on,60,0,3,,,,,,,,,2,,,58,0
95280,note_on,240,0,1,,,,,,,,,0,,,86,0
95280,note_on,30,0,9,,,,,,,,,8,,,58,0
95280,note_on,30,0,10,,,,,,,,,10,,,58,0
95280,note_on,0,0,10,,,,,,,,,10,,,59,111
95280,note_on,0,0,5,,,,,,,,,4,,,74,111
95280,note_on,0,0,5,,,,,,,,,4,,,62,111
95280,note_on,0,0,5,,,,,,,,,4,,,62,0
95280,note_on,240,0,5,,,,,,,,,4,,,74,0
95280,note_on,0,0,4,,,,,,,,,3,,,62,111
95280,note_on,0,0,4,,,,,,,,,3,,,50,0
95280,note_on,0,0,8,,,,,,,,,7,,,80,111
95280,note_on,0,0,9,,,,,,,,,8,,,59,111
95280,note_on,0,0,4,,,,,,,,,3,,,50,111
95280,note_on,0,0,7,,,,,,,,,6,,,86,111
95280,note_on,30,0,7,,,,,,,,,6,,,86,0
95280,note_on,0,0,7,,,,,,,,,6,,,74,0
95280,note_on,0,0,7,,,,,,,,,6,,,74,111
95310,note_on,0,0,10,,,,,,,,,10,,,59,111
95310,note_on,30,0,10,,,,,,,,,10,,,59,0
95310,note_on,0,0,11,,,,,,,,,11,,,47,111
95310,note_on,30,0,7,,,,,,,,,6,,,86,0
95310,note_on,0,0,7,,,,,,,,,6,,,74,0
95310,note_on,0,0,7,,,,,,,,,6,,,74,111
95310,note_on,30,0,9,,,,,,,,,8,,,59,0
95310,note_on,0,0,9,,,,,,,,,8,,,59,111
95310,note_on,0,0,7,,,,,,,,,6,,,86,111
95310,note_on,30,0,11,,,,,,,,,11,,,47,0
95310,note_on,0,0,8,,,,,,,,,7,,,80,111
95310,note_on,30,0,8,,,,,,,,,7,,,80,0
95340,note_on,0,0,9,,,,,,,,,8,,,59,112
95340,note_on,30,0,9,,,,,,,,,8,,,59,0
95340,note_on,60,0,3,,,,,,,,,2,,,59,0
95340,note_on,0,0,3,,,,,,,,,2,,,59,112
95340,note_on,30,0,7,,,,,,,,,6,,,86,0
95340,note_on,0,0,7,,,,,,,,,6,,,74,0
95340,note_on,0,0,8,,,,,,,,,7,,,80,112
95340,note_on,30,0,8,,,,,,,,,7,,,80,0
95340,note_on,0,0,10,,,,,,,,,10,,,59,112
95340,note_on,0,0,7,,,,,,,,,6,,,74,112
95340,note_on,0,0,7,,,,,,,,,6,,,86,112
95340,note_on,0,0,11,,,,,,,,,11,,,47,112
95340,note_on,30,0,11,,,,,,,,,11,,,47,0
95340,note_on,30,0,10,,,,,,,,,10,,,59,0
95370,note_on,30,0,9,,,,,,,,,8,,,59,0
95370,note_on,30,0,10,,,,,,,,,10,,,59,0
95370,note_on,0,0,10,,,,,,,,,10,,,59,112
95370,note_on,30,0,8,,,,,,,,,7,,,80,0
95370,note_on,0,0,8,,,,,,,,,7,,,80,112
95370,note_on,0,0,7,,,,,,,,,6,,,86,112
95370,note_on,30,0,11,,,,,,,,,11,,,47,0
95370,note_on,0,0,9,,,,,,,,,8,,,59,112
95370,note_on,0,0,11,,,,,,,,,11,,,47,112
95370,note_on,0,0,7,,,,,,,,,6,,,74,0
95370,note_on,0,0,7,,,,,,,,,6,,,74,112
95370,note_on,30,0,7,,,,,,,,,6,,,86,0
95400,note_on,0,0,9,,,,,,,,,8,,,59,113
95400,note_on,0,0,10,,,,,,,,,10,,,59,113
95400,note_on,30,0,10,,,,,,,,,10,,,59,0
95400,note_on,30,0,7,,,,,,,,,6,,,86,0
95400,note_on,0,0,7,,,,,,,,,6,,,74,0
95400,note_on,0,0,7,,,,,,,,,6,,,74,113
95400,note_on,30,0,8,,,,,,,,,7,,,80,0
95400,note_on,0,0,8,,,,,,,,,7,,,80,113
95400,note_on,30,0,9,,,,,,,,,8,,,59,0
95400,note_on,0,0,11,,,,,,,,,11,,,47,113
95400,note_on,0,0,3,,,,,,,,,2,,,59,113
95400,note_on,60,0,3,,,,,,,,,2,,,59,0
95400,note_on,30,0,11,,,,,,,,,11,,,47,0
95400,note_on,120,0,6,,,,,,,,,5,,,50,0
95400,note_on,0,0,7,,,,,,,,,6,,,86,113
95430,note_on,30,0,8,,,,,,,,,7,,,80,0
95430,note_on,30,0,9,,,,,,,,,8,,,59,0
95430,note_on,0,0,10,,,,,,,,,10,,,59,113
95430,note_on,30,0,10,,,,,,,,,10,,,59,0
95430,note_on,0,0,9,,,,,,,,,8,,,59,113
95430,note_on,0,0,8,,,,,,,,,7,,,80,113
95430,note_on,0,0,7,,,,,,,,,6,,,74,113
95430,note_on,0,0,7,,,,,,,,,6,,,74,0
95430,note_on,30,0,7,,,,,,,,,6,,,86,0
95430,note_on,0,0,7,,,,,,,,,6,,,86,113
95430,note_on,0,0,11,,,,,,,,,11,,,47,113
95430,note_on,30,0,11,,,,,,,,,11,,,47,0
95460,note_on,0,0,11,,,,,,,,,11,,,47,114
95460,note_on,0,0,7,,,,,,,,,6,,,86,114
95460,note_on,30,0,11,,,,,,,,,11,,,47,0
95460,note_on,30,0,7,,,,,,,,,6,,,86,0
95460,note_on,0,0,7,,,,,,,,,6,,,74,114
95460,note_on,30,0,9,,,,,,,,,8,,,59,0
95460,note_on,30,0,8,,,,,,,,,7,,,80,0
95460,note_on,0,0,9,,,,,,,,,8,,,59,114
95460,note_on,60,0,3,,,,,,,,,2,,,59,0
95460,note_on,0,0,3,,,,,,,,,2,,,59,114
95460,note_on,0,0,10,,,,,,,,,10,,,59,114
95460,note_on,0,0,8,,,,,,,,,7,,,80,114
95460,note_on,0,0,7,,,,,,,,,6,,,74,0
95460,note_on,30,0,10,,,,,,,,,10,,,59,0
95490,note_on,30,0,9,,,,,,,,,8,,,59,0
95490,note_on,0,0,9,,,,,,,,,8,,,59,114
95490,note_on,30,0,11,,,,,,,,,11,,,47,0
95490,note_on,0,0,11,,,,,,,,,11,,,47,114
95490,note_on,30,0,8,,,,,,,,,7,,,80,0
95490,note_on,0,0,7,,,,,,,,,6,,,74,0
95490,note_on,30,0,10,,,,,,,,,10,,,59,0
95490,note_on,0,0,10,,,,,,,,,10,,,59,114
95490,note_on,30,0,7,,,,,,,,,6,,,86,0
95490,note_on,0,0,7,,,,,,,,,6,,,74,114
95490,note_on,0,0,7,,,,,,,,,6,,,86,114
95490,note_on,0,0,8,,,,,,,,,7,,,80,114
95520,note_on,0,0,2,,,,,,,,,1,,,76,115
95520,note_on,0,0,2,,,,,,,,,1,,,81,115
95520,note_on,240,0,2,,,,,,,,,1,,,80,0
95520,note_on,0,0,7,,,,,,,,,6,,,85,115
95520,note_on,0,0,1,,,,,,,,,0,,,93,115
95520,note_on,240,0,1,,,,,,,,,0,,,92,0
95520,note_on,0,0,1,,,,,,,,,0,,,89,0
95520,note_on,0,0,10,,,,,,,,,10,,,61,115
95520,note_on,30,0,10,,,,,,,,,10,,,59,0
95520,note_on,30,0,7,,,,,,,,,6,,,86,0
95520,note_on,0,0,1,,,,,,,,,0,,,88,115
95520,note_on,120,0,6,,,,,,,,,5,,,45,115
95520,note_on,0,0,2,,,,,,,,,1,,,77,0
95520,note_on,0,0,7,,,,,,,,,6,,,74,0
95520,note_on,0,0,7,,,,,,,,,6,,,76,115
95520,note_on,30,0,11,,,,,,,,,11,,,47,0
95520,note_on,60,0,3,,,,,,,,,2,,,59,0
95520,note_on,30,0,9,,,,,,,,,8,,,59,0
95520,note_on,240,0,4,,,,,,,,,3,,,62,0
95520,note_on,0,0,4,,,,,,,,,3,,,50,0
95520,note_on,0,0,4,,,,,,,,,3,,,64,115
95520,note_on,0,0,4,,,,,,,,,3,,,57,115
95520,note_on,0,0,9,,,,,,,,,8,,,61,115
95520,note_on,0,0,3,,,,,,,,,2,,,61,115
95520,note_on,0,0,5,,,,,,,,,4,,,62,0
95520,note_on,0,0,5,,,,,,,,,4,,,69,115
95520,note_on,0,0,5,,,,,,,,,4,,,76,115
95520,note_on,240,0,5,,,,,,,,,4,,,74,0
95520,note_on,0,0,11,,,,,,,,,11,,,49,115
95520,note_on,30,0,8,,,,,,,,,7,,,80,0
95520,note_on,0,0,8,,,,,,,,,7,,,81,115
95521,set_tempo,11041,1,0,,,,,,352734,,,,,,,
95537,set_tempo,16,1,0,,,,,,354694,,,,,,,
95549,set_tempo,12,1,0,,,,,,356676,,,,,,,
95562,set_tempo,13,1,0,,,,,,358680,,,,,,,
95575,set_tempo,13,1,0,,,,,,360707,,,,,,,
95580,note_on,60,0,1,,,,,,,,,0,,,88,0
95580,note_on,60,0,4,,,,,,,,,3,,,57,0
95580,note_on,0,0,4,,,,,,,,,3,,,64,0
95580,note_on,60,0,9,,,,,,,,,8,,,61,0
95580,note_on,60,0,2,,,,,,,,,1,,,81,0
95580,note_on,0,0,2,,,,,,,,,1,,,76,0
95580,note_on,0,0,1,,,,,,,,,0,,,93,0
95580,note_on,60,0,3,,,,,,,,,2,,,61,0
95580,note_on,0,0,5,,,,,,,,,4,,,69,0
95580,note_on,60,0,5,,,,,,,,,4,,,76,0
95580,note_on,60,0,11,,,,,,,,,11,,,49,0
95580,note_on,60,0,8,,,,,,,,,7,,,81,0
95580,note_on,60,0,10,,,,,,,,,10,,,61,0
95580,note_on,0,0,7,,,,,,,,,6,,,85,0
95580,note_on,60,0,7,,,,,,,,,6,,,76,0
95587,set_tempo,12,1,0,,,,,,362757,,,,,,,
95600,set_tempo,13,1,0,,,,,,364830,,,,,,,
95612,set_tempo,12,1,0,,,,,,366928,,,,,,,
95625,set_tempo,13,1,0,,,,,,369049,,,,,,,
95638,set_tempo,13,1,0,,,,,,371195,,,,,,,
95640,note_on,60,0,2,,,,,,,,,1,,,78,107
95640,note_on,0,0,2,,,,,,,,,1,,,83,107
95640,note_on,120,0,6,,,,,,,,,5,,,45,0
95640,note_on,60,0,1,,,,,,,,,0,,,86,107
95640,note_on,0,0,1,,,,,,,,,0,,,83,107
95640,note_on,60,0,9,,,,,,,,,8,,,62,107
95640,note_on,60,0,8,,,,,,,,,7,,,78,107
95640,note_on,60,0,3,,,,,,,,,2,,,62,107
95640,note_on,0,0,5,,,,,,,,,4,,,74,107
95640,note_on,60,0,11,,,,,,,,,11,,,50,107
95640,note_on,60,0,10,,,,,,,,,10,,,62,107
95640,note_on,60,0,5,,,,,,,,,4,,,78,107
95640,note_on,0,0,4,,,,,,,,,3,,,62,107
95640,note_on,0,0,7,,,,,,,,,6,,,83,107
95640,note_on,60,0,7,,,,,,,,,6,,,74,107
95640,note_on,60,0,4,,,,,,,,,3,,,66,107
95650,set_tempo,12,1,0,,,,,,373367,,,,,,,
95663,set_tempo,13,1,0,,,,,,375563,,,,,,,
95676,set_tempo,13,1,0,,,,,,377786,,,,,,,
95688,set_tempo,12,1,0,,,,,,380035,,,,,,,
95700,note_on,0,0,7,,,,,,,,,6,,,74,0
95700,note_on,60,0,5,,,,,,,,,4,,,74,0
95700,note_on,60,0,8,,,,,,,,,7,,,78,0
95700,note_on,60,0,10,,,,,,,,,10,,,62,0
95700,note_on,0,0,5,,,,,,,,,4,,,78,0
95700,note_on,60,0,11,,,,,,,,,11,,,50,0
95700,note_on,60,0,3,,,,,,,,,2,,,62,0
95700,note_on,60,0,2,,,,,,,,,1,,,83,0
95700,note_on,0,0,4,,,,,,,,,3,,,66,0
95700,note_on,60,0,1,,,,,,,,,0,,,83,0
95700,note_on,60,0,9,,,,,,,,,8,,,62,0
95700,note_on,60,0,4,,,,,,,,,3,,,62,0
95700,note_on,0,0,1,,,,,,,,,0,,,86,0
95700,note_on,0,0,2,,,,,,,,,1,,,78,0
95700,note_on,60,0,7,,,,,,,,,6,,,83,0
95701,set_tempo,13,1,0,,,,,,382312,,,,,,,
95713,set_tempo,12,1,0,,,,,,384615,,,,,,,
95726,set_tempo,13,1,0,,,,,,386947,,,,,,,
95739,set_tempo,13,1,0,,,,,,389307,,,,,,,
95751,set_tempo,12,1,0,,,,,,391696,,,,,,,
95760,note_on,0,0,7,,,,,,,,,6,,,73,98
95760,note_on,60,0,5,,,,,,,,,4,,,76,98
95760,note_on,60,0,7,,,,,,,,,6,,,81,98
95760,note_on,60,0,10,,,,,,,,,10,,,64,98
95760,note_on,60,0,1,,,,,,,,,0,,,81,98
95760,note_on,0,0,2,,,,,,,,,1,,,81,98
95760,note_on,60,0,2,,,,,,,,,1,,,76,98
95760,note_on,60,0,11,,,,,,,,,11,,,52,98
95760,note_on,60,0,4,,,,,,,,,3,,,64,98
95760,note_on,60,0,9,,,,,,,,,8,,,64,98
95760,note_on,60,0,3,,,,,,,,,2,,,64,98
95760,note_on,60,0,8,,,,,,,,,7,,,76,98
95760,note_on,0,0,1,,,,,,,,,0,,,85,98
95767,set_tempo,16,1,0,,,,,,394115,,,,,,,
95780,set_tempo,13,1,0,,,,,,396563,,,,,,,
95792,set_tempo,12,1,0,,,,,,399042,,,,,,,
95805,set_tempo,13,1,0,,,,,,401553,,,,,,,
95818,set_tempo,13,1,0,,,,,,404095,,,,,,,
95820,note_on,0,0,1,,,,,,,,,0,,,81,0
95820,note_on,60,0,8,,,,,,,,,7,,,76,0
95820,note_on,60,0,11,,,,,,,,,11,,,52,0
95820,note_on,0,0,2,,,,,,,,,1,,,76,0
95820,note_on,60,0,2,,,,,,,,,1,,,81,0
95820,note_on,60,0,10,,,,,,,,,10,,,64,0
95820,note_on,60,0,5,,,,,,,,,4,,,76,0
95820,note_on,60,0,4,,,,,,,,,3,,,64,0
95820,note_on,60,0,7,,,,,,,,,6,,,73,0
95820,note_on,0,0,7,,,,,,,,,6,,,81,0
95820,note_on,60,0,9,,,,,,,,,8,,,64,0
95820,note_on,60,0,3,,,,,,,,,2,,,64,0
95820,note_on,60,0,1,,,,,,,,,0,,,85,0
95830,set_tempo,12,1,0,,,,,,406669,,,,,,,
95843,set_tempo,13,1,0,,,,,,409277,,,,,,,
95856,set_tempo,13,1,0,,,,,,411918,,,,,,,
95868,set_tempo,12,1,0,,,,,,414594,,,,,,,
95880,note_on,60,0,9,,,,,,,,,8,,,65,89
95880,note_on,60,0,8,,,,,,,,,7,,,74,89
95880,note_on,60,0,3,,,,,,,,,2,,,65,89
95880,note_on,60,0,4,,,,,,,,,3,,,50,89
95880,note_on,60,0,5,,,,,,,,,4,,,62,89
95880,note_on,60,0,11,,,,,,,,,11,,,53,89
95880,note_on,0,0,5,,,,,,,,,4,,,74,89
95880,note_on,0,0,7,,,,,,,,,6,,,80,89
95880,note_on,60,0,7,,,,,,,,,6,,,71,89
95880,note_on,60,0,10,,,,,,,,,10,,,65,89
95880,note_on,60,0,2,,,,,,,,,1,,,74,89
95880,note_on,0,0,2,,,,,,,,,1,,,80,89
95880,note_on,240,0,6,,,,,,,,,5,,,50,89
95880,note_on,0,0,1,,,,,,,,,0,,,80,89
95880,note_on,60,0,1,,,,,,,,,0,,,83,89
95880,note_on,0,0,4,,,,,,,,,3,,,62,89
95881,set_tempo,13,1,0,,,,,,417304,,,,,,,
95893,set_tempo,12,1,0,,,,,,420050,,,,,,,
95906,set_tempo,13,1,0,,,,,,422833,,,,,,,
95919,set_tempo,13,1,0,,,,,,425653,,,,,,,
95931,set_tempo,12,1,0,,,,,,428510,,,,,,,
95940,note_on,60,0,11,,,,,,,,,11,,,53,0
95940,note_on,60,0,4,,,,,,,,,3,,,62,0
95940,note_on,0,0,4,,,,,,,,,3,,,50,0
95940,note_on,60,0,10,,,,,,,,,10,,,65,0
95940,note_on,60,0,2,,,,,,,,,1,,,80,0
95940,note_on,0,0,2,,,,,,,,,1,,,74,0
95940,note_on,60,0,5,,,,,,,,,4,,,74,0
95940,note_on,0,0,5,,,,,,,,,4,,,62,0
95940,note_on,60,0,9,,,,,,,,,8,,,65,0
95940,note_on,60,0,8,,,,,,,,,7,,,74,0
95940,note_on,0,0,7,,,,,,,,,6,,,71,0
95940,note_on,60,0,7,,,,,,,,,6,,,80,0
95940,note_on,0,0,1,,,,,,,,,0,,,83,0
95940,note_on,60,0,1,,,,,,,,,0,,,80,0
95940,note_on,60,0,3,,,,,,,,,2,,,65,0
95944,set_tempo,13,1,0,,,,,,431406,,,,,,,
95957,set_tempo,13,1,0,,,,,,434342,,,,,,,
95969,set_tempo,12,1,0,,,,,,437318,,,,,,,
95982,set_tempo,13,1,0,,,,,,440335,,,,,,,
95995,set_tempo,13,1,0,,,,,,443393,,,,,,,
96000,note_on,60,0,9,,,,,,,,,8,,,66,80
96000,note_on,0,0,7,,,,,,,,,6,,,81,80
96000,note_on,60,0,5,,,,,,,,,4,,,57,80
96000,note_on,0,0,4,,,,,,,,,3,,,57,80
96000,note_on,60,0,4,,,,,,,,,3,,,45,80
96000,note_on,0,0,5,,,,,,,,,4,,,69,80
96000,note_on,60,0,11,,,,,,,,,11,,,54,80
96000,note_on,60,0,7,,,,,,,,,6,,,69,80
96000,note_on,60,0,8,,,,,,,,,7,,,73,80
96000,note_on,60,0,3,,,,,,,,,2,,,66,80
96000,note_on,60,0,10,,,,,,,,,10,,,66,80
96000,note_on,60,0,2,,,,,,,,,1,,,81,80
96000,note_on,0,0,2,,,,,,,,,1,,,73,80
96000,marker,5,1,0,,,,,,,,,,,,,
96000,note_on,60,0,1,,,,,,,,,0,,,81,80
96000,note_on,0,0,6,,,,,,,,,5,,,45,80
96000,note_on,120,0,6,,,,,,,,,5,,,50,0
96120,note_on,120,0,8,,,,,,,,,7,,,73,0
96120,note_on,0,0,5,,,,,,,,,4,,,57,0
96120,note_on,120,0,5,,,,,,,,,4,,,69,0
96120,note_on,120,0,3,,,,,,,,,2,,,66,0
96120,note_on,0,0,7,,,,,,,,,6,,,69,0
96120,note_on,120,0,7,,,,,,,,,6,,,81,0
96120,note_on,120,0,1,,,,,,,,,0,,,81,0
96120,note_on,120,0,6,,,,,,,,,5,,,45,0
96120,note_on,0,0,2,,,,,,,,,1,,,81,0
96120,note_on,120,0,2,,,,,,,,,1,,,73,0
96120,note_on,0,0,4,,,,,,,,,3,,,45,0
96120,note_on,120,0,11,,,,,,,,,11,,,54,0
96120,note_on,120,0,9,,,,,,,,,8,,,66,0
96120,note_on,120,0,4,,,,,,,,,3,,,57,0
96120,note_on,120,0,10,,,,,,,,,10,,,66,0
96240,note_on,120,0,11,,,,,,,,,11,,,50,50
96240,note_on,120,0,9,,,,,,,,,8,,,62,50
96240,note_on,120,0,10,,,,,,,,,10,,,62,50
96240,note_on,120,0,8,,,,,,,,,7,,,71,50
96242,set_tempo,242,1,0,,,,,,386947,,,,,,,
96300,note_on,180,0,7,,,,,,,,,6,,,78,50
96360,note_on,120,0,11,,,,,,,,,11,,,50,0
96360,note_on,60,0,7,,,,,,,,,6,,,78,0
96360,note_on,120,0,10,,,,,,,,,10,,,62,0
96360,note_on,0,0,7,,,,,,,,,6,,,83,50
96420,note_on,60,0,7,,,,,,,,,6,,,83,0
96420,note_on,0,0,7,,,,,,,,,6,,,81,50
96480,note_on,120,0,11,,,,,,,,,11,,,52,50
96480,note_on,240,0,8,,,,,,,,,7,,,71,0
96480,note_on,0,0,8,,,,,,,,,7,,,69,50
96480,note_on,120,0,10,,,,,,,,,10,,,64,50
96480,note_on,60,0,7,,,,,,,,,6,,,81,0
96480,note_on,0,0,9,,,,,,,,,8,,,61,50
96480,note_on,240,0,9,,,,,,,,,8,,,62,0
96540,note_on,60,0,7,,,,,,,,,6,,,73,50
96600,note_on,120,0,10,,,,,,,,,10,,,64,0
96600,note_on,120,0,11,,,,,,,,,11,,,52,0
96600,note_on,0,0,7,,,,,,,,,6,,,78,50
96600,note_on,60,0,7,,,,,,,,,6,,,73,0
96660,note_on,60,0,7,,,,,,,,,6,,,78,0
96660,note_on,0,0,7,,,,,,,,,6,,,76,50
96720,note_on,240,0,8,,,,,,,,,7,,,69,0
96720,note_on,0,0,8,,,,,,,,,7,,,64,50
96720,note_on,60,0,7,,,,,,,,,6,,,76,0
96720,note_on,120,0,11,,,,,,,,,11,,,40,50
96720,note_on,120,0,10,,,,,,,,,10,,,52,50
96720,note_on,240,0,9,,,,,,,,,8,,,61,0
96720,note_on,0,0,9,,,,,,,,,8,,,56,50
96780,note_on,60,0,7,,,,,,,,,6,,,64,50
96840,note_on,120,0,10,,,,,,,,,10,,,52,0
96840,note_on,120,0,11,,,,,,,,,11,,,40,0
96840,note_on,60,0,7,,,,,,,,,6,,,64,0
96840,note_on,0,0,7,,,,,,,,,6,,,73,50
96900,note_on,60,0,7,,,,,,,,,6,,,73,0
96900,note_on,0,0,7,,,,,,,,,6,,,71,50
96960,note_on,0,0,8,,,,,,,,,7,,,61,50
96960,note_on,240,0,8,,,,,,,,,7,,,64,0
96960,note_on,240,0,9,,,,,,,,,8,,,56,0
96960,note_on,0,0,9,,,,,,,,,8,,,57,50
96960,note_on,60,0,7,,,,,,,,,6,,,71,0
96960,note_on,0,0,7,,,,,,,,,6,,,69,50
97020,note_on,180,0,10,,,,,,,,,10,,,57,50
97020,note_on,60,0,9,,,,,,,,,8,,,57,0
97020,note_on,60,0,8,,,,,,,,,7,,,61,0
97020,note_on,0,0,8,,,,,,,,,7,,,64,50
97020,note_on,180,0,11,,,,,,,,,11,,,45,50
97020,note_on,0,0,9,,,,,,,,,8,,,61,50
97050,note_on,30,0,8,,,,,,,,,7,,,64,0
97050,note_on,30,0,11,,,,,,,,,11,,,45,0
97050,note_on,30,0,9,,,,,,,,,8,,,61,0
97050,note_on,30,0,10,,,,,,,,,10,,,57,0
97080,note_on,30,0,8,,,,,,,,,7,,,64,50
97080,note_on,30,0,9,,,,,,,,,8,,,61,50
97080,note_on,30,0,11,,,,,,,,,11,,,45,50
97080,note_on,30,0,10,,,,,,,,,10,,,57,50
97110,note_on,30,0,8,,,,,,,,,7,,,64,0
97110,note_on,30,0,9,,,,,,,,,8,,,61,0
97110,note_on,30,0,11,,,,,,,,,11,,,45,0
97110,note_on,30,0,10,,,,,,,,,10,,,57,0
97140,note_on,30,0,8,,,,,,,,,7,,,64,50
97140,note_on,30,0,10,,,,,,,,,10,,,57,50
97140,note_on,30,0,11,,,,,,,,,11,,,45,50
97140,note_on,30,0,9,,,,,,,,,8,,,61,50
97170,note_on,30,0,10,,,,,,,,,10,,,57,0
97170,note_on,30,0,8,,,,,,,,,7,,,64,0
97170,note_on,30,0,11,,,,,,,,,11,,,45,0
97170,note_on,30,0,9,,,,,,,,,8,,,61,0
97200,note_on,30,0,10,,,,,,,,,10,,,57,50
97200,note_on,30,0,11,,,,,,,,,11,,,45,50
97200,note_on,30,0,9,,,,,,,,,8,,,61,50
97200,note_on,30,0,8,,,,,,,,,7,,,64,50
97260,note_on,300,0,7,,,,,,,,,6,,,69,0
97260,note_on,0,0,7,,,,,,,,,6,,,64,50
97320,note_on,120,0,11,,,,,,,,,11,,,45,0
97320,note_on,120,0,8,,,,,,,,,7,,,64,0
97320,note_on,60,0,7,,,,,,,,,6,,,64,0
97320,note_on,0,0,7,,,,,,,,,6,,,73,50
97320,note_on,120,0,10,,,,,,,,,10,,,57,0
97320,note_on,120,0,9,,,,,,,,,8,,,61,0
97380,note_on,60,0,7,,,,,,,,,6,,,73,0
97380,note_on,0,0,7,,,,,,,,,6,,,71,50
97440,note_on,120,0,11,,,,,,,,,11,,,45,50
97440,note_on,0,0,7,,,,,,,,,6,,,69,50
97440,note_on,60,0,7,,,,,,,,,6,,,71,0
97440,note_on,120,0,8,,,,,,,,,7,,,64,50
97440,note_on,120,0,10,,,,,,,,,10,,,57,50
97440,note_on,120,0,9,,,,,,,,,8,,,61,50
97500,note_on,0,0,7,,,,,,,,,6,,,64,50
97500,note_on,60,0,7,,,,,,,,,6,,,69,0
97560,note_on,0,0,7,,,,,,,,,6,,,73,50
97560,note_on,120,0,9,,,,,,,,,8,,,61,0
97560,note_on,120,0,8,,,,,,,,,7,,,64,0
97560,note_on,120,0,10,,,,,,,,,10,,,57,0
97560,note_on,60,0,7,,,,,,,,,6,,,64,0
97560,note_on,120,0,11,,,,,,,,,11,,,45,0
97620,note_on,60,0,7,,,,,,,,,6,,,73,0
97620,note_on,0,0,7,,,,,,,,,6,,,71,50
97680,note_on,120,0,11,,,,,,,,,11,,,45,50
97680,note_on,120,0,8,,,,,,,,,7,,,64,50
97680,note_on,120,0,9,,,,,,,,,8,,,61,50
97680,note_on,120,0,10,,,,,,,,,10,,,57,50
97680,note_on,0,0,7,,,,,,,,,6,,,69,50
97680,note_on,60,0,7,,,,,,,,,6,,,71,0
97740,note_on,0,0,7,,,,,,,,,6,,,64,50
97740,note_on,60,0,7,,,,,,,,,6,,,69,0
97800,note_on,60,0,7,,,,,,,,,6,,,64,0
97800,note_on,0,0,7,,,,,,,,,6,,,74,65
97800,note_on,120,0,11,,,,,,,,,11,,,45,0
97800,note_on,120,0,8,,,,,,,,,7,,,64,0
97800,note_on,120,0,9,,,,,,,,,8,,,61,0
97800,note_on,120,0,10,,,,,,,,,10,,,57,0
97860,note_on,60,0,7,,,,,,,,,6,,,74,0
97860,note_on,0,0,7,,,,,,,,,6,,,73,60
97920,note_on,60,0,7,,,,,,,,,6,,,73,0
97920,note_on,0,0,7,,,,,,,,,6,,,71,50
97980,note_on,180,0,10,,,,,,,,,10,,,56,50
97980,note_on,180,0,11,,,,,,,,,11,,,44,50
97980,note_on,180,0,8,,,,,,,,,7,,,64,50
97980,note_on,180,0,9,,,,,,,,,8,,,62,50
98010,note_on,30,0,10,,,,,,,,,10,,,56,0
98010,note_on,30,0,11,,,,,,,,,11,,,44,0
98025,note_on,45,0,8,,,,,,,,,7,,,64,0
98025,note_on,45,0,9,,,,,,,,,8,,,62,0
98040,note_on,30,0,11,,,,,,,,,11,,,44,50
98040,note_on,15,0,9,,,,,,,,,8,,,62,50
98040,note_on,15,0,8,,,,,,,,,7,,,64,50
98040,note_on,30,0,10,,,,,,,,,10,,,56,50
98070,note_on,30,0,11,,,,,,,,,11,,,44,0
98070,note_on,30,0,10,,,,,,,,,10,,,56,0
98085,note_on,45,0,9,,,,,,,,,8,,,62,0
98085,note_on,45,0,8,,,,,,,,,7,,,64,0
98100,note_on,30,0,11,,,,,,,,,11,,,44,50
98100,note_on,30,0,10,,,,,,,,,10,,,56,50
98100,note_on,15,0,9,,,,,,,,,8,,,62,50
98100,note_on,15,0,8,,,,,,,,,7,,,64,50
98130,note_on,30,0,10,,,,,,,,,10,,,56,0
98130,note_on,30,0,11,,,,,,,,,11,,,44,0
98145,note_on,45,0,9,,,,,,,,,8,,,62,0
98145,note_on,45,0,8,,,,,,,,,7,,,64,0
98160,note_on,15,0,9,,,,,,,,,8,,,62,50
98160,note_on,15,0,8,,,,,,,,,7,,,64,50
98160,note_on,30,0,11,,,,,,,,,11,,,44,50
98160,note_on,30,0,10,,,,,,,,,10,,,56,50
98220,note_on,0,0,7,,,,,,,,,6,,,64,50
98220,note_on,300,0,7,,,,,,,,,6,,,71,0
98280,note_on,120,0,10,,,,,,,,,10,,,56,0
98280,note_on,0,0,7,,,,,,,,,6,,,74,50
98280,note_on,120,0,11,,,,,,,,,11,,,44,0
98280,note_on,120,0,9,,,,,,,,,8,,,62,0
98280,note_on,120,0,8,,,,,,,,,7,,,64,0
98280,note_on,60,0,7,,,,,,,,,6,,,64,0
98340,note_on,60,0,7,,,,,,,,,6,,,74,0
98340,note_on,0,0,7,,,,,,,,,6,,,73,50
98400,note_on,60,0,7,,,,,,,,,6,,,73,0
98400,note_on,120,0,8,,,,,,,,,7,,,64,50
98400,note_on,120,0,9,,,,,,,,,8,,,62,50
98400,note_on,0,0,7,,,,,,,,,6,,,71,50
98400,note_on,120,0,11,,,,,,,,,11,,,44,50
98400,note_on,120,0,10,,,,,,,,,10,,,56,50
98460,note_on,0,0,7,,,,,,,,,6,,,64,50
98460,note_on,60,0,7,,,,,,,,,6,,,71,0
98520,note_on,60,0,7,,,,,,,,,6,,,64,0
98520,note_on,0,0,7,,,,,,,,,6,,,74,50
98520,note_on,120,0,8,,,,,,,,,7,,,64,0
98520,note_on,120,0,10,,,,,,,,,10,,,56,0
98520,note_on,120,0,11,,,,,,,,,11,,,44,0
98520,note_on,120,0,9,,,,,,,,,8,,,62,0
98580,note_on,60,0,7,,,,,,,,,6,,,74,0
98580,note_on,0,0,7,,,,,,,,,6,,,73,50
98640,note_on,120,0,9,,,,,,,,,8,,,62,50
98640,note_on,120,0,8,,,,,,,,,7,,,64,50
98640,note_on,0,0,7,,,,,,,,,6,,,71,50
98640,note_on,60,0,7,,,,,,,,,6,,,73,0
98640,note_on,120,0,10,,,,,,,,,10,,,56,50
98640,note_on,120,0,11,,,,,,,,,11,,,44,50
98700,note_on,0,0,7,,,,,,,,,6,,,64,50
98700,note_on,60,0,7,,,,,,,,,6,,,71,0
98760,note_on,120,0,8,,,,,,,,,7,,,64,0
98760,note_on,120,0,9,,,,,,,,,8,,,62,0
98760,note_on,0,0,7,,,,,,,,,6,,,76,65
98760,note_on,60,0,7,,,,,,,,,6,,,64,0
98760,note_on,120,0,10,,,,,,,,,10,,,56,0
98760,note_on,120,0,11,,,,,,,,,11,,,44,0
98820,note_on,0,0,7,,,,,,,,,6,,,74,65
98820,note_on,60,0,7,,,,,,,,,6,,,76,0
98880,note_on,120,0,8,,,,,,,,,7,,,64,50
98880,note_on,120,0,10,,,,,,,,,10,,,57,50
98880,note_on,60,0,7,,,,,,,,,6,,,74,0
98880,note_on,0,0,7,,,,,,,,,6,,,73,50
98880,note_on,120,0,11,,,,,,,,,11,,,45,50
98880,note_on,120,0,9,,,,,,,,,8,,,61,50
98940,note_on,60,0,7,,,,,,,,,6,,,73,0
98940,note_on,0,0,7,,,,,,,,,6,,,78,50
99000,note_on,120,0,11,,,,,,,,,11,,,45,0
99000,note_on,60,0,7,,,,,,,,,6,,,78,0
99000,note_on,0,0,7,,,,,,,,,6,,,76,50
99000,note_on,120,0,8,,,,,,,,,7,,,64,0
99000,note_on,120,0,9,,,,,,,,,8,,,61,0
99000,note_on,120,0,10,,,,,,,,,10,,,57,0
99060,note_on,60,0,7,,,,,,,,,6,,,76,0
99060,note_on,0,0,7,,,,,,,,,6,,,75,50
99060,note_on,60,0,8,,,,,,,,,7,,,72,50
99060,note_on,60,0,9,,,,,,,,,8,,,69,50
99120,note_on,0,0,9,,,,,,,,,8,,,68,50
99120,note_on,60,0,9,,,,,,,,,8,,,69,0
99120,note_on,60,0,8,,,,,,,,,7,,,72,0
99120,note_on,0,0,7,,,,,,,,,6,,,76,50
99120,note_on,60,0,7,,,,,,,,,6,,,75,0
99120,note_on,0,0,8,,,,,,,,,7,,,71,50
99180,note_on,0,0,7,,,,,,,,,6,,,74,50
99180,note_on,60,0,7,,,,,,,,,6,,,76,0
99240,note_on,0,0,7,,,,,,,,,6,,,73,50
99240,note_on,60,0,7,,,,,,,,,6,,,74,0
99240,note_on,120,0,9,,,,,,,,,8,,,68,0
99240,note_on,120,0,8,,,,,,,,,7,,,71,0
99300,note_on,60,0,7,,,,,,,,,6,,,73,0
99300,note_on,60,0,9,,,,,,,,,8,,,66,50
99300,note_on,60,0,8,,,,,,,,,7,,,69,50
99300,note_on,0,0,7,,,,,,,,,6,,,72,50
99360,note_on,60,0,9,,,,,,,,,8,,,66,0
99360,note_on,0,0,8,,,,,,,,,7,,,68,50
99360,note_on,0,0,9,,,,,,,,,8,,,64,50
99360,note_on,0,0,7,,,,,,,,,6,,,73,50
99360,note_on,60,0,7,,,,,,,,,6,,,72,0
99360,note_on,60,0,8,,,,,,,,,7,,,69,0
99420,note_on,60,0,7,,,,,,,,,6,,,73,0
99420,note_on,0,0,7,,,,,,,,,6,,,71,50
99480,note_on,120,0,9,,,,,,,,,8,,,64,0
99480,note_on,120,0,8,,,,,,,,,7,,,68,0
99480,note_on,60,0,7,,,,,,,,,6,,,71,0
99480,note_on,0,0,7,,,,,,,,,6,,,69,50
99540,note_on,0,0,7,,,,,,,,,6,,,68,50
99540,note_on,60,0,8,,,,,,,,,7,,,65,50
99540,note_on,60,0,9,,,,,,,,,8,,,62,50
99540,note_on,60,0,7,,,,,,,,,6,,,69,0
99600,note_on,0,0,7,,,,,,,,,6,,,69,50
99600,note_on,60,0,7,,,,,,,,,6,,,68,0
99600,note_on,0,0,9,,,,,,,,,8,,,61,50
99600,note_on,60,0,9,,,,,,,,,8,,,62,0
99600,note_on,60,0,8,,,,,,,,,7,,,65,0
99600,note_on,0,0,8,,,,,,,,,7,,,64,50
99660,note_on,0,0,9,,,,,,,,,8,,,62,50
99660,note_on,60,0,8,,,,,,,,,7,,,64,0
99660,note_on,60,0,7,,,,,,,,,6,,,69,0
99660,note_on,0,0,7,,,,,,,,,6,,,71,50
99660,note_on,60,0,9,,,,,,,,,8,,,61,0
99660,note_on,0,0,8,,,,,,,,,7,,,68,50
99720,note_on,0,0,8,,,,,,,,,7,,,69,50
99720,note_on,60,0,9,,,,,,,,,8,,,62,0
99720,note_on,0,0,9,,,,,,,,,8,,,61,50
99720,note_on,0,0,7,,,,,,,,,6,,,73,50
99720,note_on,60,0,7,,,,,,,,,6,,,71,0
99720,note_on,60,0,8,,,,,,,,,7,,,68,0
99780,note_on,60,0,8,,,,,,,,,7,,,69,0
99780,note_on,0,0,9,,,,,,,,,8,,,59,50
99780,note_on,60,0,9,,,,,,,,,8,,,61,0
99780,note_on,0,0,8,,,,,,,,,7,,,71,50
99780,note_on,0,0,7,,,,,,,,,6,,,74,50
99780,note_on,60,0,7,,,,,,,,,6,,,73,0
99838,set_tempo,3596,1,0,,,,,,384615,,,,,,,
99840,note_on,0,0,8,,,,,,,,,7,,,69,50
99840,note_on,0,0,9,,,,,,,,,8,,,61,50
99840,note_on,60,0,9,,,,,,,,,8,,,59,0
99840,note_on,60,0,7,,,,,,,,,6,,,74,0
99840,note_on,840,0,10,,,,,,,,,10,,,49,50
99840,note_on,840,0,11,,,,,,,,,11,,,37,50
99840,note_on,60,0,8,,,,,,,,,7,,,71,0
99840,note_on,0,0,7,,,,,,,,,6,,,76,50
99853,set_tempo,15,1,0,,,,,,386947,,,,,,,
99866,set_tempo,13,1,0,,,,,,389307,,,,,,,
99882,set_tempo,16,1,0,,,,,,391696,,,,,,,
99895,set_tempo,13,1,0,,,,,,394115,,,,,,,
99900,note_on,60,0,7,,,,,,,,,6,,,76,0
99900,note_on,60,0,11,,,,,,,,,11,,,37,0
99900,note_on,60,0,10,,,,,,,,,10,,,49,0
99910,set_tempo,15,1,0,,,,,,396563,,,,,,,
99923,set_tempo,13,1,0,,,,,,399042,,,,,,,
99930,note_on,90,0,8,,,,,,,,,7,,,69,0
99930,note_on,90,0,9,,,,,,,,,8,,,61,0
99939,set_tempo,16,1,0,,,,,,401553,,,,,,,
99951,set_tempo,12,1,0,,,,,,404095,,,,,,,
99960,note_on,30,0,9,,,,,,,,,8,,,61,55
99960,note_on,60,0,11,,,,,,,,,11,,,37,55
99960,note_on,60,0,10,,,,,,,,,10,,,49,55
99960,note_on,30,0,8,,,,,,,,,7,,,69,55
99960,note_on,60,0,7,,,,,,,,,6,,,76,55
99967,set_tempo,16,1,0,,,,,,406669,,,,,,,
99980,set_tempo,13,1,0,,,,,,409277,,,,,,,
99996,set_tempo,16,1,0,,,,,,411918,,,,,,,
100008,set_tempo,12,1,0,,,,,,414594,,,,,,,
100020,note_on,60,0,10,,,,,,,,,10,,,49,0
100020,note_on,60,0,11,,,,,,,,,11,,,37,0
100024,set_tempo,16,1,0,,,,,,417304,,,,,,,
100037,set_tempo,13,1,0,,,,,,420050,,,,,,,
100049,set_tempo,12,1,0,,,,,,422833,,,,,,,
100050,note_on,90,0,8,,,,,,,,,7,,,69,0
100050,note_on,90,0,7,,,,,,,,,6,,,76,0
100050,note_on,90,0,9,,,,,,,,,8,,,61,0
100065,set_tempo,16,1,0,,,,,,425653,,,,,,,
100078,set_tempo,13,1,0,,,,,,428510,,,,,,,
100080,note_on,60,0,11,,,,,,,,,11,,,39,60
100080,note_on,30,0,8,,,,,,,,,7,,,69,60
100080,note_on,30,0,7,,,,,,,,,6,,,78,60
100080,note_on,60,0,10,,,,,,,,,10,,,51,60
100080,note_on,30,0,9,,,,,,,,,8,,,60,60
100093,set_tempo,15,1,0,,,,,,431406,,,,,,,
100106,set_tempo,13,1,0,,,,,,434342,,,,,,,
100122,set_tempo,16,1,0,,,,,,437318,,,,,,,
100135,set_tempo,13,1,0,,,,,,440335,,,,,,,
100140,note_on,60,0,10,,,,,,,,,10,,,51,0
100140,note_on,60,0,11,,,,,,,,,11,,,39,0
100150,set_tempo,15,1,0,,,,,,443393,,,,,,,
100163,set_tempo,13,1,0,,,,,,446495,,,,,,,
100170,note_on,90,0,7,,,,,,,,,6,,,78,0
100170,note_on,90,0,8,,,,,,,,,7,,,69,0
100170,note_on,90,0,9,,,,,,,,,8,,,60,0
100179,set_tempo,16,1,0,,,,,,449640,,,,,,,
100191,set_tempo,12,1,0,,,,,,452830,,,,,,,
100200,note_on,30,0,7,,,,,,,,,6,,,78,65
100200,note_on,60,0,11,,,,,,,,,11,,,39,65
100200,note_on,30,0,9,,,,,,,,,8,,,60,65
100200,note_on,60,0,10,,,,,,,,,10,,,51,65
100200,note_on,30,0,8,,,,,,,,,7,,,69,65
100207,set_tempo,16,1,0,,,,,,456066,,,,,,,
100220,set_tempo,13,1,0,,,,,,459348,,,,,,,
100232,set_tempo,12,1,0,,,,,,462677,,,,,,,
100260,note_on,60,0,10,,,,,,,,,10,,,51,0
100260,note_on,60,0,11,,,,,,,,,11,,,39,0
100290,note_on,90,0,9,,,,,,,,,8,,,60,0
100290,note_on,90,0,8,,,,,,,,,7,,,69,0
100290,note_on,90,0,7,,,,,,,,,6,,,78,0
100320,note_on,30,0,9,,,,,,,,,8,,,64,70
100320,note_on,60,0,10,,,,,,,,,10,,,52,70
100320,note_on,30,0,8,,,,,,,,,7,,,69,70
100320,note_on,60,0,11,,,,,,,,,11,,,40,70
100320,note_on,30,0,7,,,,,,,,,6,,,73,70
100380,note_on,60,0,9,,,,,,,,,8,,,64,0
100380,note_on,0,0,9,,,,,,,,,8,,,63,65
100440,note_on,60,0,9,,,,,,,,,8,,,63,0
100440,note_on,120,0,11,,,,,,,,,11,,,40,0
100440,note_on,120,0,10,,,,,,,,,10,,,52,0
100440,note_on,0,0,9,,,,,,,,,8,,,64,60
100500,note_on,0,0,9,,,,,,,,,8,,,63,55
100500,note_on,60,0,9,,,,,,,,,8,,,64,0
100560,note_on,240,0,7,,,,,,,,,6,,,73,0
100560,note_on,0,0,7,,,,,,,,,6,,,71,50
100560,note_on,60,0,9,,,,,,,,,8,,,63,0
100560,note_on,240,0,8,,,,,,,,,7,,,69,0
100560,note_on,0,0,8,,,,,,,,,7,,,68,50
100560,note_on,0,0,9,,,,,,,,,8,,,64,50
100560,set_tempo,328,1,0,,,,,,387097,,,,,,,
100620,note_on,0,0,7,,,,,,,,,6,,,64,50
100620,note_on,60,0,7,,,,,,,,,6,,,71,0
100620,note_on,60,0,8,,,,,,,,,7,,,68,0
100680,note_on,0,0,7,,,,,,,,,6,,,72,50
100680,note_on,60,0,7,,,,,,,,,6,,,64,0
100680,note_on,60,0,8,,,,,,,,,7,,,64,50
100680,note_on,120,0,9,,,,,,,,,8,,,64,0
100740,note_on,0,0,7,,,,,,,,,6,,,71,50
100740,note_on,60,0,7,,,,,,,,,6,,,72,0
100740,note_on,60,0,8,,,,,,,,,7,,,64,0
100740,note_on,0,0,8,,,,,,,,,7,,,62,50
100800,note_on,120,0,9,,,,,,,,,8,,,64,50
100800,note_on,0,0,8,,,,,,,,,7,,,60,50
100800,note_on,0,0,7,,,,,,,,,6,,,69,50
100800,note_on,360,0,11,,,,,,,,,11,,,33,50
100800,note_on,360,0,10,,,,,,,,,10,,,45,50
100800,note_on,60,0,7,,,,,,,,,6,,,71,0
100800,note_on,60,0,8,,,,,,,,,7,,,62,0
100860,note_on,4740,0,3,,,,,,,,,2,,,52,70
100860,note_on,0,0,3,,,,,,,,,2,,,48,70
100920,note_on,60,0,3,,,,,,,,,2,,,48,0
100920,note_on,0,0,3,,,,,,,,,2,,,52,0
100920,note_on,120,0,10,,,,,,,,,10,,,45,0
100920,note_on,120,0,11,,,,,,,,,11,,,33,0
100920,note_on,0,0,3,,,,,,,,,2,,,60,70
100920,note_on,0,0,3,,,,,,,,,2,,,52,70
100980,note_on,60,0,3,,,,,,,,,2,,,52,0
100980,note_on,0,0,3,,,,,,,,,2,,,60,0
100980,note_on,0,0,3,,,,,,,,,2,,,50,70
100980,note_on,0,0,3,,,,,,,,,2,,,59,70
101040,note_on,0,0,3,,,,,,,,,2,,,50,0
101040,note_on,60,0,3,,,,,,,,,2,,,59,0
101040,note_on,0,0,3,,,,,,,,,2,,,48,70
101040,note_on,0,0,3,,,,,,,,,2,,,57,70
101100,note_on,0,0,8,,,,,,,,,7,,,57,50
101100,note_on,300,0,8,,,,,,,,,7,,,60,0
101100,note_on,0,0,3,,,,,,,,,2,,,48,0
101100,note_on,60,0,3,,,,,,,,,2,,,57,0
101100,note_on,0,0,7,,,,,,,,,6,,,64,50
101100,note_on,300,0,7,,,,,,,,,6,,,69,0
101160,note_on,60,0,3,,,,,,,,,2,,,57,70
101160,note_on,0,0,3,,,,,,,,,2,,,48,70
101160,note_on,60,0,8,,,,,,,,,7,,,57,0
101160,note_on,0,0,7,,,,,,,,,6,,,72,50
101160,note_on,0,0,8,,,,,,,,,7,,,64,50
101160,note_on,60,0,7,,,,,,,,,6,,,64,0
101220,note_on,0,0,3,,,,,,,,,2,,,57,0
101220,note_on,60,0,3,,,,,,,,,2,,,48,0
101220,note_on,0,0,3,,,,,,,,,2,,,50,70
101220,note_on,0,0,3,,,,,,,,,2,,,59,70
101220,note_on,0,0,8,,,,,,,,,7,,,62,50
101220,note_on,60,0,7,,,,,,,,,6,,,72,0
101220,note_on,0,0,7,,,,,,,,,6,,,71,50
101220,note_on,60,0,8,,,,,,,,,7,,,64,0
101280,note_on,0,0,8,,,,,,,,,7,,,60,50
101280,note_on,60,0,3,,,,,,,,,2,,,50,0
101280,note_on,0,0,3,,,,,,,,,2,,,59,0
101280,note_on,0,0,3,,,,,,,,,2,,,52,70
101280,note_on,360,0,11,,,,,,,,,11,,,45,50
101280,note_on,360,0,10,,,,,,,,,10,,,57,50
101280,note_on,0,0,7,,,,,,,,,6,,,69,50
101280,note_on,60,0,7,,,,,,,,,6,,,71,0
101280,note_on,60,0,8,,,,,,,,,7,,,62,0
101280,note_on,0,0,3,,,,,,,,,2,,,60,70
101340,note_on,60,0,3,,,,,,,,,2,,,60,0
101340,note_on,0,0,3,,,,,,,,,2,,,52,0
101340,note_on,60,0,7,,,,,,,,,6,,,69,0
101340,note_on,60,0,8,,,,,,,,,7,,,60,0
101340,note_on,0,0,8,,,,,,,,,7,,,57,50
101340,note_on,0,0,7,,,,,,,,,6,,,64,50
101400,note_on,0,0,8,,,,,,,,,7,,,64,50
101400,note_on,120,0,11,,,,,,,,,11,,,45,0
101400,note_on,0,0,7,,,,,,,,,6,,,72,50
101400,note_on,60,0,7,,,,,,,,,6,,,64,0
101400,note_on,120,0,10,,,,,,,,,10,,,57,0
101400,note_on,60,0,3,,,,,,,,,2,,,57,70
101400,note_on,0,0,3,,,,,,,,,2,,,48,70
101400,note_on,60,0,8,,,,,,,,,7,,,57,0
101460,note_on,60,0,3,,,,,,,,,2,,,48,0
101460,note_on,60,0,8,,,,,,,,,7,,,64,0
101460,note_on,0,0,3,,,,,,,,,2,,,57,0
101460,note_on,0,0,8,,,,,,,,,7,,,62,50
101460,note_on,60,0,7,,,,,,,,,6,,,72,0
101460,note_on,0,0,7,,,,,,,,,6,,,71,50
101460,note_on,0,0,3,,,,,,,,,2,,,59,70
101460,note_on,0,0,3,,,,,,,,,2,,,50,70
101520,note_on,0,0,3,,,,,,,,,2,,,60,70
101520,note_on,120,0,10,,,,,,,,,10,,,45,50
101520,note_on,0,0,3,,,,,,,,,2,,,50,0
101520,note_on,60,0,3,,,,,,,,,2,,,59,0
101520,note_on,120,0,11,,,,,,,,,11,,,33,50
101520,note_on,0,0,8,,,,,,,,,7,,,60,50
101520,note_on,60,0,7,,,,,,,,,6,,,71,0
101520,note_on,0,0,7,,,,,,,,,6,,,69,50
101520,note_on,0,0,3,,,,,,,,,2,,,52,70
101520,note_on,60,0,8,,,,,,,,,7,,,62,0
101580,note_on,0,0,8,,,,,,,,,7,,,64,50
101580,note_on,60,0,8,,,,,,,,,7,,,60,0
101580,note_on,0,0,7,,,,,,,,,6,,,64,50
101580,note_on,60,0,7,,,,,,,,,6,,,69,0
101580,note_on,60,0,3,,,,,,,,,2,,,60,0
101580,note_on,0,0,3,,,,,,,,,2,,,52,0
101640,note_on,120,0,11,,,,,,,,,11,,,33,0
101640,note_on,0,0,7,,,,,,,,,6,,,74,65
101640,note_on,60,0,7,,,,,,,,,6,,,64,0
101640,note_on,120,0,10,,,,,,,,,10,,,45,0
101640,note_on,0,0,8,,,,,,,,,7,,,71,65
101640,note_on,60,0,8,,,,,,,,,7,,,64,0
101700,note_on,60,0,8,,,,,,,,,7,,,71,0
101700,note_on,0,0,7,,,,,,,,,6,,,72,60
101700,note_on,60,0,7,,,,,,,,,6,,,74,0
101700,note_on,0,0,8,,,,,,,,,7,,,69,60
101760,note_on,120,0,11,,,,,,,,,11,,,40,50
101760,note_on,0,0,8,,,,,,,,,7,,,68,50
101760,note_on,60,0,7,,,,,,,,,6,,,72,0
101760,note_on,0,0,7,,,,,,,,,6,,,71,50
101760,note_on,120,0,10,,,,,,,,,10,,,52,50
101760,note_on,60,0,8,,,,,,,,,7,,,69,0
101820,note_on,240,0,3,,,,,,,,,2,,,52,70
101880,note_on,120,0,10,,,,,,,,,10,,,52,0
101880,note_on,120,0,11,,,,,,,,,11,,,40,0
101880,note_on,0,0,3,,,,,,,,,2,,,59,70
101880,note_on,60,0,3,,,,,,,,,2,,,52,0
101880,note_on,0,0,3,,,,,,,,,2,,,62,70
101940,note_on,60,0,3,,,,,,,,,2,,,59,0
101940,note_on,0,0,3,,,,,,,,,2,,,62,0
101940,note_on,0,0,3,,,,,,,,,2,,,57,70
101940,note_on,0,0,3,,,,,,,,,2,,,60,70
102000,note_on,0,0,3,,,,,,,,,2,,,57,0
102000,note_on,0,0,3,,,,,,,,,2,,,59,70
102000,note_on,0,0,3,,,,,,,,,2,,,56,70
102000,note_on,60,0,3,,,,,,,,,2,,,60,0
102060,note_on,300,0,8,,,,,,,,,7,,,68,0
102060,note_on,0,0,3,,,,,,,,,2,,,59,0
102060,note_on,0,0,8,,,,,,,,,7,,,64,50
102060,note_on,300,0,7,,,,,,,,,6,,,71,0
102060,note_on,0,0,7,,,,,,,,,6,,,64,50
102060,note_on,60,0,3,,,,,,,,,2,,,56,0
102120,note_on,60,0,8,,,,,,,,,7,,,64,0
102120,note_on,0,0,8,,,,,,,,,7,,,71,50
102120,note_on,60,0,7,,,,,,,,,6,,,64,0
102120,note_on,0,0,3,,,,,,,,,2,,,59,70
102120,note_on,60,0,3,,,,,,,,,2,,,56,70
102120,note_on,0,0,7,,,,,,,,,6,,,74,50
102180,note_on,60,0,8,,,,,,,,,7,,,71,0
102180,note_on,0,0,3,,,,,,,,,2,,,56,0
102180,note_on,60,0,3,,,,,,,,,2,,,59,0
102180,note_on,0,0,8,,,,,,,,,7,,,69,50
102180,note_on,0,0,3,,,,,,,,,2,,,60,70
102180,note_on,60,0,7,,,,,,,,,6,,,74,0
102180,note_on,0,0,3,,,,,,,,,2,,,57,70
102180,note_on,0,0,7,,,,,,,,,6,,,72,50
102240,note_on,60,0,8,,,,,,,,,7,,,69,0
102240,note_on,0,0,8,,,,,,,,,7,,,68,50
102240,note_on,360,0,11,,,,,,,,,11,,,52,50
102240,note_on,0,0,7,,,,,,,,,6,,,71,50
102240,note_on,60,0,7,,,,,,,,,6,,,72,0
102240,note_on,360,0,10,,,,,,,,,10,,,64,50
102240,note_on,60,0,3,,,,,,,,,2,,,60,0
102240,note_on,0,0,3,,,,,,,,,2,,,57,0
102240,note_on,0,0,3,,,,,,,,,2,,,62,70
102240,note_on,0,0,3,,,,,,,,,2,,,59,70
102300,note_on,60,0,8,,,,,,,,,7,,,68,0
102300,note_on,0,0,8,,,,,,,,,7,,,64,50
102300,note_on,0,0,7,,,,,,,,,6,,,64,50
102300,note_on,60,0,7,,,,,,,,,6,,,71,0
102300,note_on,60,0,3,,,,,,,,,2,,,59,0
102300,note_on,0,0,3,,,,,,,,,2,,,62,0
102360,note_on,60,0,3,,,,,,,,,2,,,56,70
102360,note_on,0,0,3,,,,,,,,,2,,,59,70
102360,note_on,120,0,10,,,,,,,,,10,,,64,0
102360,note_on,0,0,7,,,,,,,,,6,,,74,50
102360,note_on,60,0,7,,,,,,,,,6,,,64,0
102360,note_on,120,0,11,,,,,,,,,11,,,52,0
102360,note_on,60,0,8,,,,,,,,,7,,,64,0
102360,note_on,0,0,8,,,,,,,,,7,,,71,50
102420,note_on,0,0,7,,,,,,,,,6,,,72,50
102420,note_on,60,0,3,,,,,,,,,2,,,59,0
102420,note_on,0,0,3,,,,,,,,,2,,,56,0
102420,note_on,0,0,3,,,,,,,,,2,,,60,70
102420,note_on,0,0,3,,,,,,,,,2,,,57,70
102420,note_on,60,0,8,,,,,,,,,7,,,71,0
102420,note_on,0,0,8,,,,,,,,,7,,,69,50
102420,note_on,60,0,7,,,,,,,,,6,,,74,0
102480,note_on,120,0,10,,,,,,,,,10,,,52,50
102480,note_on,60,0,8,,,,,,,,,7,,,69,0
102480,note_on,0,0,8,,,,,,,,,7,,,68,50
102480,note_on,0,0,3,,,,,,,,,2,,,60,0
102480,note_on,0,0,3,,,,,,,,,2,,,62,70
102480,note_on,0,0,3,,,,,,,,,2,,,59,70
102480,note_on,0,0,7,,,,,,,,,6,,,71,50
102480,note_on,60,0,7,,,,,,,,,6,,,72,0
102480,note_on,120,0,11,,,,,,,,,11,,,40,50
102480,note_on,60,0,3,,,,,,,,,2,,,57,0
102540,note_on,0,0,3,,,,,,,,,2,,,62,0
102540,note_on,60,0,3,,,,,,,,,2,,,59,0
102540,note_on,0,0,8,,,,,,,,,7,,,64,50
102540,note_on,60,0,8,,,,,,,,,7,,,68,0
102540,note_on,0,0,7,,,,,,,,,6,,,64,50
102540,note_on,60,0,7,,,,,,,,,6,,,71,0
102600,note_on,60,0,8,,,,,,,,,7,,,64,0
102600,note_on,0,0,7,,,,,,,,,6,,,76,65
102600,note_on,60,0,7,,,,,,,,,6,,,64,0
102600,note_on,120,0,11,,,,,,,,,11,,,40,0
102600,note_on,0,0,8,,,,,,,,,7,,,68,65
102600,note_on,120,0,10,,,,,,,,,10,,,52,0
102660,note_on,60,0,8,,,,,,,,,7,,,68,0
102660,note_on,0,0,8,,,,,,,,,7,,,71,50
102660,note_on,60,0,7,,,,,,,,,6,,,76,0
102660,note_on,0,0,7,,,,,,,,,6,,,74,60
102720,note_on,120,0,10,,,,,,,,,10,,,57,50
102720,note_on,60,0,8,,,,,,,,,7,,,71,0
102720,note_on,0,0,8,,,,,,,,,7,,,69,50
102720,note_on,120,0,11,,,,,,,,,11,,,45,50
102720,note_on,0,0,7,,,,,,,,,6,,,72,50
102720,note_on,60,0,7,,,,,,,,,6,,,74,0
102780,note_on,60,0,7,,,,,,,,,6,,,72,0
102780,note_on,0,0,7,,,,,,,,,6,,,77,50
102840,note_on,120,0,11,,,,,,,,,11,,,45,0
102840,note_on,120,0,8,,,,,,,,,7,,,69,0
102840,note_on,60,0,7,,,,,,,,,6,,,77,0
102840,note_on,0,0,7,,,,,,,,,6,,,76,50
102840,note_on,2040,0,9,,,,,,,,,8,,,64,0
102840,note_on,120,0,10,,,,,,,,,10,,,57,0
102900,note_on,60,0,9,,,,,,,,,8,,,69,50
102900,note_on,0,0,7,,,,,,,,,6,,,75,60
102900,note_on,60,0,8,,,,,,,,,7,,,72,50
102900,note_on,60,0,7,,,,,,,,,6,,,76,0
102960,note_on,0,0,8,,,,,,,,,7,,,71,50
102960,note_on,60,0,8,,,,,,,,,7,,,72,0
102960,note_on,0,0,7,,,,,,,,,6,,,76,60
102960,note_on,60,0,7,,,,,,,,,6,,,75,0
102960,note_on,0,0,9,,,,,,,,,8,,,67,50
102960,note_on,60,0,9,,,,,,,,,8,,,69,0
103020,note_on,0,0,7,,,,,,,,,6,,,74,50
103020,note_on,60,0,7,,,,,,,,,6,,,76,0
103080,note_on,120,0,8,,,,,,,,,7,,,71,0
103080,note_on,120,0,9,,,,,,,,,8,,,67,0
103080,note_on,0,0,7,,,,,,,,,6,,,72,50
103080,note_on,60,0,7,,,,,,,,,6,,,74,0
103140,note_on,60,0,9,,,,,,,,,8,,,65,50
103140,note_on,0,0,7,,,,,,,,,6,,,71,60
103140,note_on,60,0,7,,,,,,,,,6,,,72,0
103140,note_on,60,0,8,,,,,,,,,7,,,68,50
103200,note_on,60,0,9,,,,,,,,,8,,,65,0
103200,note_on,0,0,9,,,,,,,,,8,,,64,50
103200,note_on,60,0,7,,,,,,,,,6,,,71,0
103200,note_on,0,0,8,,,,,,,,,7,,,67,50
103200,note_on,60,0,8,,,,,,,,,7,,,68,0
103200,note_on,0,0,7,,,,,,,,,6,,,72,60
103260,note_on,0,0,7,,,,,,,,,6,,,70,50
103260,note_on,60,0,7,,,,,,,,,6,,,72,0
103320,note_on,120,0,9,,,,,,,,,8,,,64,0
103320,note_on,60,0,7,,,,,,,,,6,,,70,0
103320,note_on,0,0,7,,,,,,,,,6,,,69,50
103320,note_on,120,0,8,,,,,,,,,7,,,67,0
103380,note_on,60,0,7,,,,,,,,,6,,,69,0
103380,note_on,60,0,9,,,,,,,,,8,,,62,50
103380,note_on,60,0,8,,,,,,,,,7,,,65,50
103380,note_on,0,0,7,,,,,,,,,6,,,68,50
103440,note_on,60,0,8,,,,,,,,,7,,,65,0
103440,note_on,7320,0,2,,,,,,,,,1,,,76,60
103440,note_on,0,0,2,,,,,,,,,1,,,69,60
103440,program_change,600,0,10,,,,,,,,45,10,,,,
103440,note_on,0,0,8,,,,,,,,,7,,,64,50
103440,note_on,7320,0,1,,,,,,,,,0,,,84,60
103440,note_on,0,0,11,,,,,,,,,11,,,36,50
103440,note_on,0,0,1,,,,,,,,,0,,,81,60
103440,note_on,0,0,7,,,,,,,,,6,,,69,50
103440,note_on,60,0,7,,,,,,,,,6,,,68,0
103440,note_on,0,0,9,,,,,,,,,8,,,60,50
103440,note_on,60,0,9,,,,,,,,,8,,,62,0
103440,program_change,600,0,11,,,,,,,,45,11,,,,
103440,note_on,0,0,10,,,,,,,,,10,,,48,50
103500,note_on,60,0,10,,,,,,,,,10,,,48,0
103500,note_on,60,0,11,,,,,,,,,11,,,36,0
103560,note_on,120,0,7,,,,,,,,,6,,,69,0
103560,note_on,60,0,10,,,,,,,,,10,,,53,50
103560,note_on,120,0,8,,,,,,,,,7,,,64,0
103560,note_on,0,0,2,,,,,,,,,1,,,72,60
103560,note_on,120,0,2,,,,,,,,,1,,,76,0
103560,note_on,60,0,11,,,,,,,,,11,,,41,50
103560,note_on,120,0,9,,,,,,,,,8,,,60,0
103620,note_on,60,0,11,,,,,,,,,11,,,41,0
103620,note_on,60,0,10,,,,,,,,,10,,,53,0
103680,note_on,0,0,1,,,,,,,,,0,,,83,60
103680,note_on,240,0,1,,,,,,,,,0,,,84,0
103680,note_on,60,0,11,,,,,,,,,11,,,38,50
103680,note_on,60,0,10,,,,,,,,,10,,,50,50
103680,note_on,120,0,2,,,,,,,,,1,,,72,0
103680,note_on,0,0,2,,,,,,,,,1,,,77,60
103740,note_on,60,0,11,,,,,,,,,11,,,38,0
103740,note_on,60,0,10,,,,,,,,,10,,,50,0
103800,note_on,60,0,10,,,,,,,,,10,,,47,50
103800,note_on,60,0,11,,,,,,,,,11,,,35,50
103800,note_on,120,0,2,,,,,,,,,1,,,69,0
103800,note_on,0,0,2,,,,,,,,,1,,,74,60
103860,note_on,60,0,10,,,,,,,,,10,,,47,0
103860,note_on,60,0,11,,,,,,,,,11,,,35,0
103920,note_on,0,0,2,,,,,,,,,1,,,76,60
103920,note_on,0,0,1,,,,,,,,,0,,,80,60
103920,note_on,240,0,1,,,,,,,,,0,,,81,0
103920,note_on,60,0,10,,,,,,,,,10,,,52,50
103920,note_on,120,0,2,,,,,,,,,1,,,77,0
103920,note_on,60,0,11,,,,,,,,,11,,,40,50
103980,note_on,60,0,10,,,,,,,,,10,,,52,0
103980,note_on,60,0,11,,,,,,,,,11,,,40,0
103980,note_on,1440,0,3,,,,,,,,,2,,,52,70
104040,note_on,60,0,10,,,,,,,,,10,,,40,50
104040,note_on,60,0,11,,,,,,,,,11,,,28,50
104040,note_on,0,0,3,,,,,,,,,2,,,61,70
104040,note_on,0,0,3,,,,,,,,,2,,,64,70
104040,note_on,60,0,3,,,,,,,,,2,,,52,0
104040,note_on,120,0,2,,,,,,,,,1,,,74,0
104040,note_on,0,0,2,,,,,,,,,1,,,71,60
104100,note_on,60,0,10,,,,,,,,,10,,,40,0
104100,note_on,0,0,3,,,,,,,,,2,,,62,70
104100,note_on,0,0,3,,,,,,,,,2,,,59,70
104100,note_on,0,0,3,,,,,,,,,2,,,64,0
104100,note_on,60,0,3,,,,,,,,,2,,,61,0
104100,note_on,60,0,11,,,,,,,,,11,,,28,0
104160,note_on,0,0,2,,,,,,,,,1,,,76,60
104160,note_on,0,0,3,,,,,,,,,2,,,61,70
104160,note_on,0,0,3,,,,,,,,,2,,,59,0
104160,note_on,60,0,3,,,,,,,,,2,,,62,0
104160,note_on,0,0,9,,,,,,,,,8,,,57,50
104160,note_on,60,0,11,,,,,,,,,11,,,33,50
104160,program_change,600,0,9,,,,,,,,45,8,,,,
104160,note_on,0,0,3,,,,,,,,,2,,,57,70
104160,note_on,600,0,7,,,,,,,,,6,,,81,60
104160,note_on,240,0,1,,,,,,,,,0,,,80,0
104160,note_on,0,0,1,,,,,,,,,0,,,83,0
104160,note_on,0,0,1,,,,,,,,,0,,,81,60
104160,note_on,120,0,2,,,,,,,,,1,,,71,0
104160,note_on,0,0,2,,,,,,,,,1,,,76,0
104160,note_on,0,0,2,,,,,,,,,1,,,73,60
104160,note_on,600,0,8,,,,,,,,,7,,,69,60
104160,note_on,60,0,10,,,,,,,,,10,,,45,50
104220,note_on,0,0,3,,,,,,,,,2,,,57,70
104220,note_on,0,0,3,,,,,,,,,2,,,52,70
104220,note_on,60,0,3,,,,,,,,,2,,,57,0
104220,note_on,0,0,3,,,,,,,,,2,,,61,0
104280,note_on,120,0,9,,,,,,,,,8,,,57,0
104280,note_on,120,0,10,,,,,,,,,10,,,45,0
104280,note_on,60,0,3,,,,,,,,,2,,,57,0
104280,note_on,0,0,3,,,,,,,,,2,,,52,0
104280,note_on,0,0,3,,,,,,,,,2,,,64,70
104280,note_on,0,0,3,,,,,,,,,2,,,61,70
104280,note_on,120,0,2,,,,,,,,,1,,,76,0
104280,note_on,120,0,11,,,,,,,,,11,,,33,0
104280,note_on,0,0,2,,,,,,,,,1,,,73,0
104280,note_on,120,0,1,,,,,,,,,0,,,81,0
104340,note_on,0,0,3,,,,,,,,,2,,,64,0
104340,note_on,0,0,3,,,,,,,,,2,,,62,70
104340,note_on,60,0,3,,,,,,,,,2,,,61,0
104340,note_on,0,0,3,,,,,,,,,2,,,59,70
104400,note_on,0,0,3,,,,,,,,,2,,,57,70
104400,note_on,0,0,3,,,,,,,,,2,,,61,70
104400,note_on,60,0,3,,,,,,,,,2,,,62,0
104400,note_on,0,0,3,,,,,,,,,2,,,59,0
104460,note_on,0,0,3,,,,,,,,,2,,,52,70
104460,note_on,0,0,3,,,,,,,,,2,,,57,70
104460,note_on,0,0,3,,,,,,,,,2,,,57,0
104460,note_on,60,0,3,,,,,,,,,2,,,61,0
104520,note_on,0,0,3,,,,,,,,,2,,,66,70
104520,note_on,0,0,3,,,,,,,,,2,,,62,70
104520,note_on,60,0,3,,,,,,,,,2,,,57,0
104520,note_on,360,0,7,,,,,,,,,6,,,81,0
104520,note_on,360,0,8,,,,,,,,,7,,,69,0
104520,note_on,0,0,8,,,,,,,,,7,,,71,75
104520,note_on,0,0,3,,,,,,,,,2,,,52,0
104520,note_on,0,0,7,,,,,,,,,6,,,83,75
104580,note_on,60,0,3,,,,,,,,,2,,,62,0
104580,note_on,0,0,3,,,,,,,,,2,,,66,0
104580,note_on,0,0,3,,,,,,,,,2,,,61,70
104580,note_on,0,0,3,,,,,,,,,2,,,64,70
104640,note_on,0,0,8,,,,,,,,,7,,,69,80
104640,note_on,0,0,3,,,,,,,,,2,,,62,70
104640,note_on,360,0,9,,,,,,,,,8,,,64,50
104640,note_on,0,0,3,,,,,,,,,2,,,59,70
104640,note_on,0,0,3,,,,,,,,,2,,,61,0
104640,note_on,60,0,3,,,,,,,,,2,,,64,0
104640,note_on,360,0,11,,,,,,,,,11,,,40,50
104640,note_on,360,0,10,,,,,,,,,10,,,52,50
104640,note_on,120,0,7,,,,,,,,,6,,,83,0
104640,note_on,0,0,7,,,,,,,,,6,,,81,80
104640,note_on,120,0,8,,,,,,,,,7,,,71,0
104700,note_on,60,0,8,,,,,,,,,7,,,69,0
104700,note_on,60,0,7,,,,,,,,,6,,,81,0
104700,note_on,0,0,8,,,,,,,,,7,,,68,78
104700,note_on,0,0,7,,,,,,,,,6,,,80,78
104760,note_on,120,0,10,,,,,,,,,10,,,52,0
104760,note_on,60,0,8,,,,,,,,,7,,,68,0
104760,note_on,0,0,8,,,,,,,,,7,,,66,75
104760,note_on,0,0,7,,,,,,,,,6,,,78,75
104760,note_on,60,0,7,,,,,,,,,6,,,80,0
104760,note_on,120,0,9,,,,,,,,,8,,,64,0
104760,note_on,120,0,11,,,,,,,,,11,,,40,0
104820,note_on,60,0,8,,,,,,,,,7,,,66,0
104820,note_on,60,0,7,,,,,,,,,6,,,78,0
104820,note_on,0,0,7,,,,,,,,,6,,,76,73
104820,note_on,0,0,8,,,,,,,,,7,,,64,73
104865,note_on,45,0,8,,,,,,,,,7,,,64,0
104865,note_on,45,0,7,,,,,,,,,6,,,76,0
104880,note_on,15,0,8,,,,,,,,,7,,,64,70
104880,note_on,0,0,3,,,,,,,,,2,,,62,0
104880,note_on,15,0,7,,,,,,,,,6,,,76,70
104880,note_on,240,0,3,,,,,,,,,2,,,59,0
104940,note_on,60,0,3,,,,,,,,,2,,,52,70
104970,note_on,90,0,8,,,,,,,,,7,,,64,0
104970,note_on,90,0,7,,,,,,,,,6,,,76,0
105000,note_on,30,0,7,,,,,,,,,6,,,76,65
105000,note_on,30,0,8,,,,,,,,,7,,,64,65
105000,note_on,0,0,3,,,,,,,,,2,,,64,70
105000,note_on,60,0,3,,,,,,,,,2,,,52,0
105000,note_on,0,0,3,,,,,,,,,2,,,61,70
105060,note_on,0,0,3,,,,,,,,,2,,,59,70
105060,note_on,0,0,3,,,,,,,,,2,,,62,70
105060,note_on,0,0,3,,,,,,,,,2,,,64,0
105060,note_on,60,0,3,,,,,,,,,2,,,61,0
105090,note_on,90,0,8,,,,,,,,,7,,,64,0
105090,note_on,90,0,7,,,,,,,,,6,,,76,0
105120,note_on,30,0,8,,,,,,,,,7,,,64,60
105120,note_on,0,0,3,,,,,,,,,2,,,57,70
105120,note_on,30,0,7,,,,,,,,,6,,,76,60
105120,note_on,0,0,3,,,,,,,,,2,,,61,70
105120,note_on,0,0,3,,,,,,,,,2,,,59,0
105120,note_on,360,0,10,,,,,,,,,10,,,57,50
105120,note_on,360,0,9,,,,,,,,,8,,,69,50
105120,note_on,360,0,11,,,,,,,,,11,,,45,50
105120,note_on,60,0,3,,,,,,,,,2,,,62,0
105180,note_on,60,0,3,,,,,,,,,2,,,57,0
105180,note_on,0,0,3,,,,,,,,,2,,,61,0
105180,note_on,0,0,3,,,,,,,,,2,,,52,70
105180,note_on,0,0,3,,,,,,,,,2,,,57,70
105240,note_on,120,0,11,,,,,,,,,11,,,45,0
105240,note_on,120,0,8,,,,,,,,,7,,,64,0
105240,note_on,0,0,8,,,,,,,,,7,,,69,65
105240,note_on,0,0,3,,,,,,,,,2,,,61,70
105240,note_on,0,0,3,,,,,,,,,2,,,64,70
105240,note_on,0,0,7,,,,,,,,,6,,,81,65
105240,note_on,120,0,7,,,,,,,,,6,,,76,0
105240,note_on,120,0,9,,,,,,,,,8,,,69,0
105240,note_on,120,0,10,,,,,,,,,10,,,57,0
105240,note_on,0,0,3,,,,,,,,,2,,,52,0
105240,note_on,60,0,3,,,,,,,,,2,,,57,0
105300,note_on,0,0,3,,,,,,,,,2,,,59,70
105300,note_on,0,0,3,,,,,,,,,2,,,62,70
105300,note_on,0,0,3,,,,,,,,,2,,,64,0
105300,note_on,60,0,3,,,,,,,,,2,,,61,0
105360,note_on,0,0,3,,,,,,,,,2,,,61,70
105360,note_on,0,0,3,,,,,,,,,2,,,57,70
105360,note_on,0,0,3,,,,,,,,,2,,,59,0
105360,note_on,60,0,3,,,,,,,,,2,,,62,0
105420,note_on,0,0,3,,,,,,,,,2,,,52,70
105420,note_on,0,0,3,,,,,,,,,2,,,57,70
105420,note_on,60,0,3,,,,,,,,,2,,,61,0
105420,note_on,0,0,3,,,,,,,,,2,,,57,0
105480,note_on,0,0,7,,,,,,,,,6,,,83,75
105480,note_on,240,0,8,,,,,,,,,7,,,69,0
105480,note_on,0,0,8,,,,,,,,,7,,,71,75
105480,note_on,240,0,7,,,,,,,,,6,,,81,0
105480,note_on,0,0,3,,,,,,,,,2,,,62,70
105480,note_on,0,0,3,,,,,,,,,2,,,66,70
105480,note_on,0,0,3,,,,,,,,,2,,,52,0
105480,note_on,60,0,3,,,,,,,,,2,,,57,0
105540,note_on,60,0,3,,,,,,,,,2,,,62,0
105540,note_on,0,0,3,,,,,,,,,2,,,64,70
105540,note_on,0,0,3,,,,,,,,,2,,,61,70
105540,note_on,0,0,3,,,,,,,,,2,,,66,0
105600,note_on,0,0,3,,,,,,,,,2,,,59,70
105600,note_on,0,0,3,,,,,,,,,2,,,62,70
105600,note_on,360,0,11,,,,,,,,,11,,,40,50
105600,note_on,360,0,10,,,,,,,,,10,,,52,50
105600,note_on,0,0,7,,,,,,,,,6,,,81,80
105600,note_on,120,0,7,,,,,,,,,6,,,83,0
105600,note_on,0,0,3,,,,,,,,,2,,,61,0
105600,note_on,60,0,3,,,,,,,,,2,,,64,0
105600,note_on,120,0,8,,,,,,,,,7,,,71,0
105600,note_on,360,0,9,,,,,,,,,8,,,64,50
105600,note_on,0,0,8,,,,,,,,,7,,,69,80
105660,note_on,60,0,7,,,,,,,,,6,,,81,0
105660,note_on,0,0,8,,,,,,,,,7,,,68,78
105660,note_on,60,0,8,,,,,,,,,7,,,69,0
105660,note_on,0,0,7,,,,,,,,,6,,,80,78
105720,note_on,60,0,7,,,,,,,,,6,,,80,0
105720,note_on,0,0,7,,,,,,,,,6,,,78,75
105720,note_on,120,0,9,,,,,,,,,8,,,64,0
105720,note_on,120,0,11,,,,,,,,,11,,,40,0
105720,note_on,120,0,10,,,,,,,,,10,,,52,0
105720,note_on,60,0,8,,,,,,,,,7,,,68,0
105720,note_on,0,0,8,,,,,,,,,7,,,66,75
105780,note_on,0,0,8,,,,,,,,,7,,,64,73
105780,note_on,0,0,7,,,,,,,,,6,,,76,73
105780,note_on,60,0,7,,,,,,,,,6,,,78,0
105780,note_on,60,0,8,,,,,,,,,7,,,66,0
105825,note_on,45,0,7,,,,,,,,,6,,,76,0
105825,note_on,45,0,8,,,,,,,,,7,,,64,0
105840,note_on,15,0,8,,,,,,,,,7,,,64,70
105840,note_on,240,0,3,,,,,,,,,2,,,62,0
105840,note_on,0,0,3,,,,,,,,,2,,,59,0
105840,note_on,15,0,7,,,,,,,,,6,,,76,70
105960,note_on,120,0,7,,,,,,,,,6,,,76,0
105960,note_on,0,0,8,,,,,,,,,7,,,74,65
105960,note_on,120,0,8,,,,,,,,,7,,,64,0
105960,note_on,0,0,7,,,,,,,,,6,,,76,65
106080,note_on,120,0,7,,,,,,,,,6,,,76,0
106080,note_on,0,0,7,,,,,,,,,6,,,76,50
106140,note_on,180,0,8,,,,,,,,,7,,,74,0
106140,note_on,0,0,8,,,,,,,,,7,,,73,50
106200,note_on,60,0,8,,,,,,,,,7,,,73,0
106200,note_on,0,0,8,,,,,,,,,7,,,71,50
106260,note_on,60,0,8,,,,,,,,,7,,,71,0
106260,note_on,0,0,8,,,,,,,,,7,,,69,50
106260,note_on,0,0,7,,,,,,,,,6,,,78,50
106260,note_on,180,0,7,,,,,,,,,6,,,76,0
106305,note_on,45,0,8,,,,,,,,,7,,,69,0
106320,note_on,15,0,8,,,,,,,,,7,,,69,50
106320,note_on,60,0,7,,,,,,,,,6,,,78,0
106320,note_on,0,0,7,,,,,,,,,6,,,79,50
106440,note_on,0,0,9,,,,,,,,,8,,,67,50
106440,note_on,0,0,7,,,,,,,,,6,,,73,50
106440,program_change,720,0,9,,,,,,,,48,8,,,,
106440,note_on,120,0,7,,,,,,,,,6,,,79,0
106440,note_on,0,0,8,,,,,,,,,7,,,69,50
106440,note_on,120,0,8,,,,,,,,,7,,,69,0
106560,note_on,10440,0,4,,,,,,,,,3,,,50,50
106560,note_on,0,0,4,,,,,,,,,3,,,62,50
106560,note_on,0,0,7,,,,,,,,,6,,,74,50
106560,note_on,120,0,7,,,,,,,,,6,,,73,0
106560,note_on,0,0,8,,,,,,,,,7,,,69,50
106560,note_on,120,0,8,,,,,,,,,7,,,69,0
106620,note_on,0,0,9,,,,,,,,,8,,,66,50
106620,note_on,180,0,9,,,,,,,,,8,,,67,0
106680,note_on,60,0,9,,,,,,,,,8,,,66,0
106680,note_on,0,0,9,,,,,,,,,8,,,64,50
106740,note_on,0,0,7,,,,,,,,,6,,,76,55
106740,note_on,180,0,7,,,,,,,,,6,,,74,0
106740,note_on,0,0,9,,,,,,,,,8,,,62,50
106740,note_on,60,0,9,,,,,,,,,8,,,64,0
106785,note_on,45,0,9,,,,,,,,,8,,,62,0
106800,note_on,15,0,9,,,,,,,,,8,,,62,50
106800,note_on,0,0,7,,,,,,,,,6,,,78,57
106800,note_on,60,0,7,,,,,,,,,6,,,76,0
106920,note_on,120,0,9,,,,,,,,,8,,,62,0
106920,program_change,1200,0,10,,,,,,,,48,10,,,,
106920,note_on,0,0,7,,,,,,,,,6,,,81,61
106920,note_on,120,0,7,,,,,,,,,6,,,78,0
106920,note_on,0,0,9,,,,,,,,,8,,,62,50
106920,note_on,0,0,10,,,,,,,,,10,,,61,50
106920,note_on,0,0,11,,,,,,,,,11,,,49,50
106920,program_change,1200,0,11,,,,,,,,48,11,,,,
106920,note_on,0,0,8,,,,,,,,,7,,,78,61
106920,note_on,360,0,8,,,,,,,,,7,,,69,0
107040,note_on,0,0,7,,,,,,,,,6,,,83,65
107040,note_on,120,0,7,,,,,,,,,6,,,81,0
107040,note_on,120,0,8,,,,,,,,,7,,,78,0
107040,note_on,0,0,8,,,,,,,,,7,,,80,65
107100,note_on,180,0,10,,,,,,,,,10,,,61,0
107100,note_on,180,0,11,,,,,,,,,11,,,49,0
107100,note_on,0,0,10,,,,,,,,,10,,,59,50
107100,note_on,0,0,11,,,,,,,,,11,,,47,50
107160,note_on,0,0,10,,,,,,,,,10,,,57,50
107160,note_on,60,0,10,,,,,,,,,10,,,59,0
107160,note_on,60,0,11,,,,,,,,,11,,,47,0
107160,note_on,0,0,9,,,,,,,,,8,,,61,50
107160,note_on,240,0,9,,,,,,,,,8,,,62,0
107160,note_on,0,0,11,,,,,,,,,11,,,45,50
107220,note_on,180,0,8,,,,,,,,,7,,,80,0
107220,note_on,0,0,8,,,,,,,,,7,,,81,70
107220,note_on,0,0,11,,,,,,,,,11,,,44,50
107220,note_on,180,0,7,,,,,,,,,6,,,83,0
107220,note_on,60,0,11,,,,,,,,,11,,,45,0
107220,note_on,60,0,10,,,,,,,,,10,,,57,0
107220,note_on,0,0,10,,,,,,,,,10,,,56,50
107220,note_on,0,0,9,,,,,,,,,8,,,59,50
107220,note_on,60,0,9,,,,,,,,,8,,,61,0
107220,note_on,0,0,7,,,,,,,,,6,,,85,70
107265,note_on,45,0,10,,,,,,,,,10,,,56,0
107265,note_on,45,0,11,,,,,,,,,11,,,44,0
107280,note_on,15,0,10,,,,,,,,,10,,,56,50
107280,note_on,0,0,7,,,,,,,,,6,,,86,72
107280,note_on,60,0,8,,,,,,,,,7,,,81,0
107280,note_on,15,0,11,,,,,,,,,11,,,44,50
107280,note_on,0,0,9,,,,,,,,,8,,,64,50
107280,note_on,60,0,9,,,,,,,,,8,,,59,0
107280,note_on,0,0,8,,,,,,,,,7,,,83,72
107280,note_on,60,0,7,,,,,,,,,6,,,85,0
107400,note_on,120,0,7,,,,,,,,,6,,,86,0
107400,note_on,0,0,7,,,,,,,,,6,,,76,76
107400,note_on,0,0,11,,,,,,,,,11,,,44,50
107400,note_on,120,0,11,,,,,,,,,11,,,44,0
107400,note_on,120,0,10,,,,,,,,,10,,,56,0
107400,note_on,0,0,10,,,,,,,,,10,,,56,50
107400,note_on,120,0,8,,,,,,,,,7,,,83,0
107400,note_on,0,0,8,,,,,,,,,7,,,74,76
107400,note_on,120,0,9,,,,,,,,,8,,,64,0
107400,note_on,0,0,9,,,,,,,,,8,,,71,50
107520,note_on,120,0,10,,,,,,,,,10,,,56,0
107520,note_on,120,0,7,,,,,,,,,6,,,76,0
107520,note_on,0,0,7,,,,,,,,,6,,,76,70
107520,note_on,0,0,4,,,,,,,,,3,,,57,50
107520,note_on,0,0,10,,,,,,,,,10,,,57,50
107520,note_on,0,0,11,,,,,,,,,11,,,45,50
107520,note_on,0,0,9,,,,,,,,,8,,,69,50
107520,note_on,0,0,4,,,,,,,,,3,,,45,50
107520,note_on,120,0,9,,,,,,,,,8,,,71,0
107520,note_on,0,0,8,,,,,,,,,7,,,73,70
107520,note_on,120,0,8,,,,,,,,,7,,,74,0
107520,note_on,120,0,11,,,,,,,,,11,,,44,0
107520,note_on,960,0,4,,,,,,,,,3,,,62,0
107520,note_on,0,0,4,,,,,,,,,3,,,50,0
107580,note_on,0,0,7,,,,,,,,,6,,,81,69
107580,note_on,60,0,7,,,,,,,,,6,,,76,0
107610,note_on,30,0,7,,,,,,,,,6,,,81,0
107640,note_on,120,0,10,,,,,,,,,10,,,57,0
107640,note_on,120,0,9,,,,,,,,,8,,,69,0
107640,note_on,120,0,8,,,,,,,,,7,,,73,0
107640,note_on,0,0,4,,,,,,,,,3,,,45,0
107640,note_on,30,0,7,,,,,,,,,6,,,81,68
107640,note_on,120,0,11,,,,,,,,,11,,,45,0
107640,note_on,120,0,4,,,,,,,,,3,,,57,0
107670,note_on,30,0,7,,,,,,,,,6,,,81,0
107700,note_on,30,0,7,,,,,,,,,6,,,81,67
107730,note_on,30,0,7,,,,,,,,,6,,,81,0
107760,note_on,120,0,10,,,,,,,,,10,,,50,50
107760,note_on,30,0,7,,,,,,,,,6,,,71,65
107760,note_on,120,0,9,,,,,,,,,8,,,62,50
107760,note_on,120,0,11,,,,,,,,,11,,,38,50
107760,note_on,120,0,8,,,,,,,,,7,,,66,65
107820,note_on,0,0,7,,,,,,,,,6,,,78,64
107820,note_on,60,0,7,,,,,,,,,6,,,71,0
107850,note_on,30,0,7,,,,,,,,,6,,,78,0
107880,note_on,30,0,7,,,,,,,,,6,,,78,63
107880,note_on,120,0,9,,,,,,,,,8,,,62,0
107880,note_on,120,0,8,,,,,,,,,7,,,66,0
107880,note_on,120,0,10,,,,,,,,,10,,,50,0
107880,note_on,120,0,11,,,,,,,,,11,,,38,0
107910,note_on,30,0,7,,,,,,,,,6,,,78,0
107940,note_on,30,0,7,,,,,,,,,6,,,78,62
107970,note_on,30,0,7,,,,,,,,,6,,,78,0
108000,note_on,120,0,10,,,,,,,,,10,,,52,50
108000,note_on,120,0,8,,,,,,,,,7,,,61,60
108000,note_on,30,0,7,,,,,,,,,6,,,76,60
108000,note_on,120,0,11,,,,,,,,,11,,,40,50
108000,note_on,120,0,9,,,,,,,,,8,,,57,50
108060,note_on,0,0,7,,,,,,,,,6,,,73,59
108060,note_on,60,0,7,,,,,,,,,6,,,76,0
108060,note_on,60,0,8,,,,,,,,,7,,,61,0
108060,note_on,60,0,9,,,,,,,,,8,,,57,0
108090,note_on,30,0,7,,,,,,,,,6,,,73,0
108120,note_on,120,0,11,,,,,,,,,11,,,40,0
108120,note_on,30,0,7,,,,,,,,,6,,,69,58
108120,note_on,120,0,10,,,,,,,,,10,,,52,0
108120,note_on,60,0,8,,,,,,,,,7,,,64,58
108120,note_on,60,0,9,,,,,,,,,8,,,61,50
108150,note_on,30,0,7,,,,,,,,,6,,,69,0
108180,note_on,60,0,9,,,,,,,,,8,,,61,0
108180,note_on,30,0,7,,,,,,,,,6,,,69,57
108180,note_on,60,0,8,,,,,,,,,7,,,64,0
108210,note_on,30,0,7,,,,,,,,,6,,,69,0
108240,note_on,60,0,9,,,,,,,,,8,,,56,50
108240,note_on,120,0,11,,,,,,,,,11,,,40,50
108240,note_on,120,0,10,,,,,,,,,10,,,52,50
108240,note_on,60,0,8,,,,,,,,,7,,,59,55
108240,note_on,30,0,7,,,,,,,,,6,,,74,55
108300,note_on,60,0,8,,,,,,,,,7,,,59,0
108300,note_on,60,0,7,,,,,,,,,6,,,74,0
108300,note_on,60,0,9,,,,,,,,,8,,,56,0
108300,note_on,0,0,7,,,,,,,,,6,,,71,54
108330,note_on,30,0,7,,,,,,,,,6,,,71,0
108360,note_on,30,0,7,,,,,,,,,6,,,68,53
108360,note_on,120,0,10,,,,,,,,,10,,,52,0
108360,note_on,60,0,8,,,,,,,,,7,,,62,53
108360,note_on,120,0,11,,,,,,,,,11,,,40,0
108360,note_on,60,0,9,,,,,,,,,8,,,59,50
108390,note_on,30,0,7,,,,,,,,,6,,,68,0
108420,note_on,30,0,7,,,,,,,,,6,,,68,52
108420,note_on,60,0,8,,,,,,,,,7,,,62,0
108420,note_on,60,0,9,,,,,,,,,8,,,59,0
108450,note_on,30,0,7,,,,,,,,,6,,,68,0
108480,note_on,60,0,8,,,,,,,,,7,,,73,100
108480,note_on,30,0,7,,,,,,,,,6,,,69,50
108480,set_tempo,7920,1,0,,,,,,352941,,,,,,,
108480,note_on,120,0,10,,,,,,,,,10,,,45,50
108480,note_on,4200,0,2,,,,,,,,,1,,,73,100
108480,note_on,120,0,11,,,,,,,,,11,,,33,50
108510,note_on,30,0,8,,,,,,,,,7,,,73,0
108510,note_on,0,0,8,,,,,,,,,7,,,76,100
108540,note_on,0,0,8,,,,,,,,,7,,,74,100
108540,note_on,30,0,8,,,,,,,,,7,,,76,0
108570,note_on,0,0,8,,,,,,,,,7,,,73,100
108570,note_on,30,0,8,,,,,,,,,7,,,74,0
108600,note_on,120,0,11,,,,,,,,,11,,,33,0
108600,note_on,0,0,8,,,,,,,,,7,,,78,100
108600,note_on,0,0,2,,,,,,,,,1,,,69,100
108600,note_on,960,0,4,,,,,,,,,3,,,69,100
108600,note_on,180,0,9,,,,,,,,,8,,,69,100
108600,note_on,120,0,7,,,,,,,,,6,,,69,0
108600,note_on,30,0,8,,,,,,,,,7,,,73,0
108600,note_on,0,0,2,,,,,,,,,1,,,78,100
108600,note_on,120,0,10,,,,,,,,,10,,,45,0
108600,note_on,120,0,2,,,,,,,,,1,,,73,0
108720,note_on,0,0,8,,,,,,,,,7,,,71,100
108720,note_on,120,0,8,,,,,,,,,7,,,78,0
108720,note_on,0,0,2,,,,,,,,,1,,,71,100
108720,note_on,120,0,2,,,,,,,,,1,,,78,0
108750,note_on,0,0,8,,,,,,,,,7,,,74,100
108750,note_on,30,0,8,,,,,,,,,7,,,71,0
108780,note_on,0,0,8,,,,,,,,,7,,,73,100
108780,note_on,30,0,8,,,,,,,,,7,,,74,0
108810,note_on,0,0,8,,,,,,,,,7,,,71,100
108810,note_on,30,0,8,,,,,,,,,7,,,73,0
108840,note_on,0,0,8,,,,,,,,,7,,,76,100
108840,note_on,0,0,9,,,,,,,,,8,,,68,100
108840,note_on,120,0,2,,,,,,,,,1,,,71,0
108840,note_on,0,0,2,,,,,,,,,1,,,69,0
108840,note_on,0,0,2,,,,,,,,,1,,,76,100
108840,note_on,30,0,8,,,,,,,,,7,,,71,0
108840,note_on,4560,0,1,,,,,,,,,0,,,76,100
108840,note_on,0,0,4,,,,,,,,,3,,,68,100
108840,note_on,240,0,4,,,,,,,,,3,,,69,0
108840,note_on,0,0,2,,,,,,,,,1,,,68,100
108840,note_on,240,0,9,,,,,,,,,8,,,69,0
108960,note_on,120,0,1,,,,,,,,,0,,,76,0
108960,note_on,0,0,1,,,,,,,,,0,,,81,100
108960,note_on,0,0,9,,,,,,,,,8,,,66,100
108960,note_on,360,0,7,,,,,,,,,6,,,81,100
108960,note_on,0,0,4,,,,,,,,,3,,,66,100
108960,note_on,120,0,9,,,,,,,,,8,,,68,0
108960,note_on,0,0,2,,,,,,,,,1,,,66,100
108960,note_on,120,0,2,,,,,,,,,1,,,68,0
108960,note_on,120,0,4,,,,,,,,,3,,,68,0
108990,note_on,30,0,9,,,,,,,,,8,,,66,0
108990,note_on,30,0,7,,,,,,,,,6,,,81,0
108990,note_on,0,0,7,,,,,,,,,6,,,85,100
108990,note_on,0,0,9,,,,,,,,,8,,,69,100
109020,note_on,30,0,9,,,,,,,,,8,,,69,0
109020,note_on,30,0,7,,,,,,,,,6,,,85,0
109020,note_on,0,0,7,,,,,,,,,6,,,83,100
109020,note_on,0,0,9,,,,,,,,,8,,,68,100
109050,note_on,30,0,9,,,,,,,,,8,,,68,0
109050,note_on,0,0,9,,,,,,,,,8,,,66,100
109050,note_on,30,0,7,,,,,,,,,6,,,83,0
109050,note_on,0,0,7,,,,,,,,,6,,,81,100
109080,note_on,240,0,8,,,,,,,,,7,,,76,0
109080,note_on,0,0,2,,,,,,,,,1,,,71,100
109080,note_on,0,0,2,,,,,,,,,1,,,76,0
109080,note_on,120,0,2,,,,,,,,,1,,,66,0
109080,note_on,30,0,7,,,,,,,,,6,,,81,0
109080,note_on,0,0,9,,,,,,,,,8,,,71,100
109080,note_on,120,0,1,,,,,,,,,0,,,86,100
109080,note_on,0,0,7,,,,,,,,,6,,,86,100
109080,note_on,0,0,8,,,,,,,,,7,,,74,100
109080,note_on,30,0,9,,,,,,,,,8,,,66,0
109170,note_on,90,0,7,,,,,,,,,6,,,86,0
109200,note_on,120,0,2,,,,,,,,,1,,,71,0
109200,note_on,30,0,7,,,,,,,,,6,,,80,100
109200,note_on,0,0,2,,,,,,,,,1,,,64,100
109200,note_on,120,0,9,,,,,,,,,8,,,71,0
109200,note_on,240,0,4,,,,,,,,,3,,,66,0
109200,note_on,0,0,4,,,,,,,,,3,,,64,100
109200,note_on,120,0,1,,,,,,,,,0,,,81,0
109200,note_on,0,0,1,,,,,,,,,0,,,80,100
109200,note_on,0,0,9,,,,,,,,,8,,,64,100
109230,note_on,30,0,9,,,,,,,,,8,,,64,0
109230,note_on,0,0,9,,,,,,,,,8,,,68,100
109230,note_on,0,0,7,,,,,,,,,6,,,83,100
109230,note_on,30,0,7,,,,,,,,,6,,,80,0
109260,note_on,0,0,7,,,,,,,,,6,,,81,100
109260,note_on,30,0,7,,,,,,,,,6,,,83,0
109260,note_on,30,0,9,,,,,,,,,8,,,68,0
109260,note_on,0,0,9,,,,,,,,,8,,,66,100
109290,note_on,30,0,7,,,,,,,,,6,,,81,0
109290,note_on,30,0,9,,,,,,,,,8,,,66,0
109290,note_on,0,0,7,,,,,,,,,6,,,80,100
109290,note_on,0,0,9,,,,,,,,,8,,,64,100
109320,note_on,0,0,1,,,,,,,,,0,,,86,0
109320,note_on,120,0,1,,,,,,,,,0,,,80,0
109320,note_on,0,0,4,,,,,,,,,3,,,69,100
109320,note_on,240,0,8,,,,,,,,,7,,,74,0
109320,note_on,0,0,9,,,,,,,,,8,,,69,100
109320,note_on,30,0,9,,,,,,,,,8,,,64,0
109320,note_on,0,0,7,,,,,,,,,6,,,85,100
109320,note_on,30,0,7,,,,,,,,,6,,,80,0
109320,note_on,120,0,2,,,,,,,,,1,,,64,0
109320,note_on,0,0,2,,,,,,,,,1,,,69,100
109320,note_on,0,0,2,,,,,,,,,1,,,73,100
109320,note_on,0,0,1,,,,,,,,,0,,,85,100
109320,note_on,120,0,4,,,,,,,,,3,,,64,0
109320,note_on,0,0,8,,,,,,,,,7,,,73,100
109320,note_on,0,0,4,,,,,,,,,3,,,57,100
109350,note_on,0,0,8,,,,,,,,,7,,,76,100
109350,note_on,30,0,8,,,,,,,,,7,,,73,0
109380,note_on,0,0,8,,,,,,,,,7,,,74,100
109380,note_on,30,0,8,,,,,,,,,7,,,76,0
109410,note_on,0,0,8,,,,,,,,,7,,,73,100
109410,note_on,30,0,8,,,,,,,,,7,,,74,0
109440,note_on,120,0,1,,,,,,,,,0,,,90,100
109440,note_on,0,0,4,,,,,,,,,3,,,50,100
109440,note_on,840,0,10,,,,,,,,,10,,,50,100
109440,note_on,840,0,11,,,,,,,,,11,,,38,100
109440,note_on,120,0,4,,,,,,,,,3,,,57,0
109440,note_on,120,0,2,,,,,,,,,1,,,73,0
109440,note_on,0,0,2,,,,,,,,,1,,,78,100
109440,note_on,3600,0,3,,,,,,,,,2,,,50,100
109440,note_on,0,0,8,,,,,,,,,7,,,78,100
109440,note_on,30,0,8,,,,,,,,,7,,,73,0
109470,note_on,0,0,10,,,,,,,,,10,,,54,100
109470,note_on,30,0,11,,,,,,,,,11,,,38,0
109470,note_on,0,0,11,,,,,,,,,11,,,42,100
109470,note_on,30,0,3,,,,,,,,,2,,,50,0
109470,note_on,30,0,10,,,,,,,,,10,,,50,0
109470,note_on,0,0,3,,,,,,,,,2,,,54,100
109500,note_on,30,0,10,,,,,,,,,10,,,54,0
109500,note_on,30,0,11,,,,,,,,,11,,,42,0
109500,note_on,0,0,11,,,,,,,,,11,,,40,100
109500,note_on,30,0,3,,,,,,,,,2,,,54,0
109500,note_on,0,0,10,,,,,,,,,10,,,52,100
109500,note_on,0,0,3,,,,,,,,,2,,,52,100
109530,note_on,30,0,10,,,,,,,,,10,,,52,0
109530,note_on,0,0,10,,,,,,,,,10,,,50,100
109530,note_on,0,0,11,,,,,,,,,11,,,38,100
109530,note_on,0,0,3,,,,,,,,,2,,,50,100
109530,note_on,30,0,11,,,,,,,,,11,,,40,0
109530,note_on,30,0,3,,,,,,,,,2,,,52,0
109560,note_on,0,0,11,,,,,,,,,11,,,44,100
109560,note_on,30,0,11,,,,,,,,,11,,,38,0
109560,note_on,240,0,9,,,,,,,,,8,,,69,0
109560,note_on,0,0,4,,,,,,,,,3,,,69,0
109560,note_on,0,0,9,,,,,,,,,8,,,68,100
109560,note_on,120,0,2,,,,,,,,,1,,,69,0
109560,note_on,0,0,2,,,,,,,,,1,,,71,100
109560,note_on,0,0,8,,,,,,,,,7,,,71,100
109560,note_on,120,0,8,,,,,,,,,7,,,78,0
109560,note_on,120,0,4,,,,,,,,,3,,,50,0
109560,note_on,240,0,7,,,,,,,,,6,,,85,0
109560,note_on,30,0,10,,,,,,,,,10,,,50,0
109560,note_on,0,0,4,,,,,,,,,3,,,62,100
109560,note_on,0,0,7,,,,,,,,,6,,,83,100
109560,note_on,0,0,3,,,,,,,,,2,,,56,100
109560,note_on,30,0,3,,,,,,,,,2,,,50,0
109560,note_on,0,0,4,,,,,,,,,3,,,68,100
109560,note_on,120,0,1,,,,,,,,,0,,,85,0
109560,note_on,0,0,1,,,,,,,,,0,,,83,100
109590,note_on,0,0,8,,,,,,,,,7,,,74,100
109590,note_on,30,0,8,,,,,,,,,7,,,71,0
109620,note_on,30,0,8,,,,,,,,,7,,,74,0
109620,note_on,0,0,8,,,,,,,,,7,,,73,100
109650,note_on,30,0,8,,,,,,,,,7,,,73,0
109650,note_on,0,0,8,,,,,,,,,7,,,71,100
109680,note_on,120,0,1,,,,,,,,,0,,,90,0
109680,note_on,30,0,8,,,,,,,,,7,,,71,0
109680,note_on,0,0,8,,,,,,,,,7,,,76,100
109680,note_on,0,0,1,,,,,,,,,0,,,88,100
109680,note_on,0,0,4,,,,,,,,,3,,,64,100
109680,note_on,0,0,2,,,,,,,,,1,,,76,100
109680,note_on,120,0,2,,,,,,,,,1,,,78,0
109680,note_on,120,0,11,,,,,,,,,11,,,44,0
109680,note_on,0,0,3,,,,,,,,,2,,,49,100
109680,note_on,120,0,10,,,,,,,,,10,,,49,100
109680,note_on,120,0,4,,,,,,,,,3,,,62,0
109680,note_on,0,0,11,,,,,,,,,11,,,37,100
109680,note_on,120,0,3,,,,,,,,,2,,,56,0
109710,note_on,0,0,11,,,,,,,,,11,,,40,100
109710,note_on,30,0,11,,,,,,,,,11,,,37,0
109710,note_on,0,0,10,,,,,,,,,10,,,52,100
109710,note_on,0,0,3,,,,,,,,,2,,,52,100
109710,note_on,30,0,10,,,,,,,,,10,,,49,0
109710,note_on,30,0,3,,,,,,,,,2,,,49,0
109740,note_on,0,0,10,,,,,,,,,10,,,50,100
109740,note_on,30,0,3,,,,,,,,,2,,,52,0
109740,note_on,0,0,3,,,,,,,,,2,,,50,100
109740,note_on,30,0,11,,,,,,,,,11,,,40,0
109740,note_on,0,0,11,,,,,,,,,11,,,38,100
109740,note_on,30,0,10,,,,,,,,,10,,,52,0
109770,note_on,0,0,11,,,,,,,,,11,,,37,100
109770,note_on,0,0,10,,,,,,,,,10,,,49,100
109770,note_on,30,0,10,,,,,,,,,10,,,50,0
109770,note_on,0,0,3,,,,,,,,,2,,,49,100
109770,note_on,30,0,3,,,,,,,,,2,,,50,0
109770,note_on,30,0,11,,,,,,,,,11,,,38,0
109800,note_on,120,0,4,,,,,,,,,3,,,64,0
109800,note_on,120,0,1,,,,,,,,,0,,,83,0
109800,note_on,0,0,1,,,,,,,,,0,,,81,100
109800,note_on,120,0,2,,,,,,,,,1,,,71,0
109800,note_on,0,0,2,,,,,,,,,1,,,69,100
109800,note_on,30,0,10,,,,,,,,,10,,,49,0
109800,note_on,0,0,4,,,,,,,,,3,,,68,0
109800,note_on,30,0,3,,,,,,,,,2,,,49,0
109800,note_on,0,0,4,,,,,,,,,3,,,66,100
109800,note_on,240,0,7,,,,,,,,,6,,,83,0
109800,note_on,0,0,7,,,,,,,,,6,,,81,100
109800,note_on,0,0,8,,,,,,,,,7,,,69,100
109800,note_on,120,0,8,,,,,,,,,7,,,76,0
109800,note_on,0,0,9,,,,,,,,,8,,,66,100
109800,note_on,240,0,9,,,,,,,,,8,,,68,0
109800,note_on,0,0,4,,,,,,,,,3,,,57,100
109800,note_on,30,0,11,,,,,,,,,11,,,37,0
109800,note_on,0,0,11,,,,,,,,,11,,,42,100
109800,note_on,0,0,3,,,,,,,,,2,,,54,100
109830,note_on,0,0,8,,,,,,,,,7,,,73,100
109830,note_on,30,0,8,,,,,,,,,7,,,69,0
109860,note_on,30,0,8,,,,,,,,,7,,,73,0
109860,note_on,0,0,8,,,,,,,,,7,,,71,100
109890,note_on,30,0,8,,,,,,,,,7,,,71,0
109890,note_on,0,0,8,,,,,,,,,7,,,69,100
109920,note_on,0,0,1,,,,,,,,,0,,,88,0
109920,note_on,0,0,8,,,,,,,,,7,,,78,100
109920,note_on,30,0,8,,,,,,,,,7,,,69,0
109920,note_on,120,0,4,,,,,,,,,3,,,66,0
109920,note_on,0,0,4,,,,,,,,,3,,,57,0
109920,note_on,120,0,7,,,,,,,,,6,,,81,0
109920,note_on,0,0,7,,,,,,,,,6,,,86,100
109920,note_on,120,0,2,,,,,,,,,1,,,69,0
109920,note_on,120,0,9,,,,,,,,,8,,,66,0
109920,note_on,120,0,1,,,,,,,,,0,,,81,0
109920,note_on,0,0,2,,,,,,,,,1,,,74,100
109920,note_on,0,0,2,,,,,,,,,1,,,78,100
109920,note_on,0,0,2,,,,,,,,,1,,,76,0
109920,note_on,120,0,3,,,,,,,,,2,,,54,0
109920,note_on,0,0,3,,,,,,,,,2,,,47,100
109920,note_on,0,0,11,,,,,,,,,11,,,35,100
109920,note_on,120,0,11,,,,,,,,,11,,,42,0
109920,note_on,0,0,1,,,,,,,,,0,,,86,100
109920,note_on,120,0,10,,,,,,,,,10,,,47,100
109920,note_on,0,0,1,,,,,,,,,0,,,78,100
109920,note_on,0,0,9,,,,,,,,,8,,,59,100
109950,note_on,30,0,7,,,,,,,,,6,,,86,0
109950,note_on,30,0,1,,,,,,,,,0,,,86,0
109950,note_on,0,0,2,,,,,,,,,1,,,78,0
109950,note_on,30,0,2,,,,,,,,,1,,,74,0
109950,note_on,30,0,3,,,,,,,,,2,,,47,0
109950,note_on,30,0,9,,,,,,,,,8,,,59,0
109950,note_on,0,0,1,,,,,,,,,0,,,78,0
109950,note_on,30,0,10,,,,,,,,,10,,,47,0
109950,note_on,30,0,8,,,,,,,,,7,,,78,0
109950,note_on,30,0,11,,,,,,,,,11,,,35,0
109980,note_on,30,0,2,,,,,,,,,1,,,73,101
109980,note_on,30,0,10,,,,,,,,,10,,,49,101
109980,note_on,30,0,7,,,,,,,,,6,,,85,101
109980,note_on,30,0,8,,,,,,,,,7,,,76,101
109980,note_on,30,0,1,,,,,,,,,0,,,76,101
109980,note_on,0,0,1,,,,,,,,,0,,,85,101
109980,note_on,30,0,9,,,,,,,,,8,,,61,101
109980,note_on,0,0,2,,,,,,,,,1,,,76,101
109980,note_on,30,0,11,,,,,,,,,11,,,37,101
109980,note_on,30,0,3,,,,,,,,,2,,,49,101
110010,note_on,30,0,3,,,,,,,,,2,,,49,0
110010,note_on,0,0,1,,,,,,,,,0,,,76,0
110010,note_on,30,0,1,,,,,,,,,0,,,85,0
110010,note_on,30,0,11,,,,,,,,,11,,,37,0
110010,note_on,30,0,10,,,,,,,,,10,,,49,0
110010,note_on,30,0,8,,,,,,,,,7,,,76,0
110010,note_on,0,0,2,,,,,,,,,1,,,73,0
110010,note_on,30,0,2,,,,,,,,,1,,,76,0
110010,note_on,30,0,7,,,,,,,,,6,,,85,0
110010,note_on,30,0,9,,,,,,,,,8,,,61,0
110040,note_on,30,0,3,,,,,,,,,2,,,50,103
110040,note_on,30,0,7,,,,,,,,,6,,,83,103
110040,note_on,30,0,9,,,,,,,,,8,,,62,103
110040,note_on,30,0,11,,,,,,,,,11,,,38,103
110040,note_on,30,0,2,,,,,,,,,1,,,71,103
110040,note_on,30,0,8,,,,,,,,,7,,,74,103
110040,note_on,30,0,10,,,,,,,,,10,,,50,103
110040,note_on,0,0,2,,,,,,,,,1,,,74,103
110040,note_on,30,0,1,,,,,,,,,0,,,74,103
110040,note_on,0,0,1,,,,,,,,,0,,,83,103
110070,note_on,30,0,7,,,,,,,,,6,,,83,0
110070,note_on,30,0,10,,,,,,,,,10,,,50,0
110070,note_on,30,0,1,,,,,,,,,0,,,83,0
110070,note_on,0,0,1,,,,,,,,,0,,,74,0
110070,note_on,30,0,11,,,,,,,,,11,,,38,0
110070,note_on,30,0,8,,,,,,,,,7,,,74,0
110070,note_on,0,0,2,,,,,,,,,1,,,71,0
110070,note_on,30,0,2,,,,,,,,,1,,,74,0
110070,note_on,30,0,3,,,,,,,,,2,,,50,0
110070,note_on,30,0,9,,,,,,,,,8,,,62,0
110100,note_on,30,0,2,,,,,,,,,1,,,69,105
110100,note_on,0,0,2,,,,,,,,,1,,,73,105
110100,note_on,30,0,11,,,,,,,,,11,,,39,105
110100,note_on,30,0,7,,,,,,,,,6,,,81,105
110100,note_on,30,0,10,,,,,,,,,10,,,51,105
110100,note_on,0,0,1,,,,,,,,,0,,,81,105
110100,note_on,30,0,1,,,,,,,,,0,,,73,105
110100,note_on,30,0,3,,,,,,,,,2,,,51,105
110100,note_on,30,0,8,,,,,,,,,7,,,73,105
110100,note_on,30,0,9,,,,,,,,,8,,,63,105
110130,note_on,30,0,11,,,,,,,,,11,,,39,0
110130,note_on,30,0,10,,,,,,,,,10,,,51,0
110130,note_on,30,0,2,,,,,,,,,1,,,73,0
110130,note_on,30,0,3,,,,,,,,,2,,,51,0
110130,note_on,30,0,7,,,,,,,,,6,,,81,0
110130,note_on,30,0,9,,,,,,,,,8,,,63,0
110130,note_on,0,0,1,,,,,,,,,0,,,73,0
110130,note_on,30,0,1,,,,,,,,,0,,,81,0
110130,note_on,0,0,2,,,,,,,,,1,,,69,0
110130,note_on,30,0,8,,,,,,,,,7,,,73,0
110160,note_on,0,0,1,,,,,,,,,0,,,80,107
110160,note_on,30,0,1,,,,,,,,,0,,,71,107
110160,note_on,30,0,2,,,,,,,,,1,,,68,107
110160,note_on,30,0,10,,,,,,,,,10,,,52,107
110160,note_on,30,0,8,,,,,,,,,7,,,71,107
110160,note_on,30,0,11,,,,,,,,,11,,,40,107
110160,note_on,30,0,7,,,,,,,,,6,,,80,107
110160,note_on,0,0,2,,,,,,,,,1,,,71,107
110160,note_on,30,0,9,,,,,,,,,8,,,64,107
110160,note_on,30,0,3,,,,,,,,,2,,,52,107
110190,note_on,30,0,2,,,,,,,,,1,,,71,0
110190,note_on,0,0,2,,,,,,,,,1,,,68,0
110190,note_on,30,0,11,,,,,,,,,11,,,40,0
110190,note_on,30,0,9,,,,,,,,,8,,,64,0
110190,note_on,30,0,7,,,,,,,,,6,,,80,0
110190,note_on,30,0,3,,,,,,,,,2,,,52,0
110190,note_on,30,0,10,,,,,,,,,10,,,52,0
110190,note_on,30,0,1,,,,,,,,,0,,,80,0
110190,note_on,30,0,8,,,,,,,,,7,,,71,0
110190,note_on,0,0,1,,,,,,,,,0,,,71,0
110220,note_on,30,0,10,,,,,,,,,10,,,54,109
110220,note_on,0,0,1,,,,,,,,,0,,,90,109
110220,note_on,30,0,9,,,,,,,,,8,,,66,109
110220,note_on,30,0,3,,,,,,,,,2,,,54,109
110220,note_on,30,0,1,,,,,,,,,0,,,81,109
110220,note_on,30,0,8,,,,,,,,,7,,,69,109
110220,note_on,30,0,2,,,,,,,,,1,,,78,109
110220,note_on,0,0,2,,,,,,,,,1,,,69,109
110220,note_on,30,0,11,,,,,,,,,11,,,42,109
110220,note_on,30,0,7,,,,,,,,,6,,,78,109
110250,note_on,30,0,1,,,,,,,,,0,,,90,0
110250,note_on,30,0,11,,,,,,,,,11,,,42,0
110250,note_on,30,0,3,,,,,,,,,2,,,54,0
110250,note_on,30,0,7,,,,,,,,,6,,,78,0
110250,note_on,30,0,9,,,,,,,,,8,,,66,0
110250,note_on,30,0,8,,,,,,,,,7,,,69,0
110250,note_on,0,0,1,,,,,,,,,0,,,81,0
110250,note_on,30,0,2,,,,,,,,,1,,,69,0
110250,note_on,30,0,10,,,,,,,,,10,,,54,0
110250,note_on,0,0,2,,,,,,,,,1,,,78,0
110280,note_on,0,0,2,,,,,,,,,1,,,71,111
110280,note_on,30,0,3,,,,,,,,,2,,,56,111
110280,note_on,30,0,7,,,,,,,,,6,,,76,111
110280,note_on,30,0,10,,,,,,,,,10,,,56,111
110280,note_on,30,0,2,,,,,,,,,1,,,76,111
110280,note_on,30,0,1,,,,,,,,,0,,,83,111
110280,note_on,0,0,1,,,,,,,,,0,,,88,111
110280,note_on,30,0,9,,,,,,,,,8,,,68,111
110280,note_on,30,0,8,,,,,,,,,7,,,71,111
110280,note_on,30,0,11,,,,,,,,,11,,,44,111
110310,note_on,0,0,1,,,,,,,,,0,,,83,0
110310,note_on,30,0,9,,,,,,,,,8,,,68,0
110310,note_on,30,0,8,,,,,,,,,7,,,71,0
110310,note_on,0,0,2,,,,,,,,,1,,,76,0
110310,note_on,30,0,7,,,,,,,,,6,,,76,0
110310,note_on,30,0,2,,,,,,,,,1,,,71,0
110310,note_on,30,0,11,,,,,,,,,11,,,44,0
110310,note_on,30,0,10,,,,,,,,,10,,,56,0
110310,note_on,30,0,1,,,,,,,,,0,,,88,0
110310,note_on,30,0,3,,,,,,,,,2,,,56,0
110340,note_on,0,0,2,,,,,,,,,1,,,68,113
110340,note_on,30,0,2,,,,,,,,,1,,,74,113
110340,note_on,30,0,3,,,,,,,,,2,,,52,113
110340,note_on,30,0,10,,,,,,,,,10,,,52,113
110340,note_on,30,0,11,,,,,,,,,11,,,40,113
110340,note_on,0,0,1,,,,,,,,,0,,,86,113
110340,note_on,30,0,1,,,,,,,,,0,,,80,113
110340,note_on,30,0,9,,,,,,,,,8,,,64,113
110340,note_on,30,0,8,,,,,,,,,7,,,68,113
110340,note_on,30,0,7,,,,,,,,,6,,,74,113
110370,note_on,30,0,8,,,,,,,,,7,,,68,0
110370,note_on,30,0,1,,,,,,,,,0,,,86,0
110370,note_on,30,0,3,,,,,,,,,2,,,52,0
110370,note_on,0,0,1,,,,,,,,,0,,,80,0
110370,note_on,30,0,2,,,,,,,,,1,,,68,0
110370,note_on,30,0,7,,,,,,,,,6,,,74,0
110370,note_on,30,0,10,,,,,,,,,10,,,52,0
110370,note_on,30,0,9,,,,,,,,,8,,,64,0
110370,note_on,30,0,11,,,,,,,,,11,,,40,0
110370,note_on,0,0,2,,,,,,,,,1,,,74,0
110400,note_on,30,0,10,,,,,,,,,10,,,57,100
110400,note_on,480,0,4,,,,,,,,,3,,,57,100
110400,note_on,30,0,1,,,,,,,,,0,,,85,100
110400,note_on,0,0,4,,,,,,,,,3,,,69,100
110400,note_on,30,0,8,,,,,,,,,7,,,69,100
110400,note_on,30,0,11,,,,,,,,,11,,,45,100
110400,note_on,0,0,2,,,,,,,,,1,,,73,100
110400,note_on,0,0,1,,,,,,,,,0,,,81,100
110400,note_on,30,0,7,,,,,,,,,6,,,73,100
110400,note_on,30,0,3,,,,,,,,,2,,,57,100
110400,note_on,14280,0,6,,,,,,,,,5,,,45,100
110400,note_on,30,0,9,,,,,,,,,8,,,69,100
110400,note_on,0,0,5,,,,,,,,,4,,,69,100
110400,note_on,14280,0,5,,,,,,,,,4,,,57,100
110400,marker,1920,1,0,,,,,,,,,,,,,
110400,note_on,30,0,2,,,,,,,,,1,,,69,100
110460,note_on,0,0,7,,,,,,,,,6,,,76,100
110460,note_on,60,0,7,,,,,,,,,6,,,73,0
110460,note_on,60,0,8,,,,,,,,,7,,,69,0
110460,note_on,0,0,8,,,,,,,,,7,,,73,100
110490,note_on,30,0,8,,,,,,,,,7,,,73,0
110490,note_on,30,0,7,,,,,,,,,6,,,76,0
110490,note_on,0,0,7,,,,,,,,,6,,,81,100
110490,note_on,0,0,8,,,,,,,,,7,,,76,100
110520,note_on,120,0,5,,,,,,,,,4,,,69,0
110520,note_on,120,0,10,,,,,,,,,10,,,57,0
110520,note_on,120,0,9,,,,,,,,,8,,,69,0
110520,note_on,120,0,6,,,,,,,,,5,,,45,0
110520,note_on,120,0,1,,,,,,,,,0,,,81,0
110520,note_on,30,0,7,,,,,,,,,6,,,81,0
110520,note_on,0,0,1,,,,,,,,,0,,,85,0
110520,note_on,120,0,11,,,,,,,,,11,,,45,0
110520,note_on,0,0,5,,,,,,,,,4,,,57,0
110520,note_on,0,0,8,,,,,,,,,7,,,81,100
110520,note_on,120,0,4,,,,,,,,,3,,,69,0
110520,note_on,120,0,2,,,,,,,,,1,,,73,0
110520,note_on,0,0,2,,,,,,,,,1,,,69,0
110520,note_on,30,0,8,,,,,,,,,7,,,76,0
110520,note_on,120,0,3,,,,,,,,,2,,,57,0
110520,note_on,0,0,7,,,,,,,,,6,,,85,100
110520,note_on,0,0,4,,,,,,,,,3,,,57,0
110550,note_on,30,0,7,,,,,,,,,6,,,85,0
110550,note_on,30,0,8,,,,,,,,,7,,,81,0
110580,note_on,0,0,2,,,,,,,,,1,,,80,100
110580,note_on,60,0,4,,,,,,,,,3,,,64,100
110580,note_on,60,0,1,,,,,,,,,0,,,88,100
110580,note_on,0,0,1,,,,,,,,,0,,,83,100
110580,note_on,30,0,8,,,,,,,,,7,,,80,100
110580,note_on,60,0,9,,,,,,,,,8,,,64,100
110580,note_on,60,0,2,,,,,,,,,1,,,76,100
110580,note_on,60,0,10,,,,,,,,,10,,,52,100
110580,note_on,30,0,7,,,,,,,,,6,,,83,100
110580,note_on,60,0,3,,,,,,,,,2,,,52,100
110580,note_on,60,0,11,,,,,,,,,11,,,40,100
110610,note_on,30,0,7,,,,,,,,,6,,,83,0
110610,note_on,30,0,8,,,,,,,,,7,,,80,0
110640,note_on,60,0,9,,,,,,,,,8,,,64,0
110640,note_on,0,0,9,,,,,,,,,8,,,69,100
110640,note_on,0,0,11,,,,,,,,,11,,,45,100
110640,note_on,60,0,1,,,,,,,,,0,,,83,0
110640,note_on,0,0,2,,,,,,,,,1,,,81,100
110640,note_on,0,0,2,,,,,,,,,1,,,76,100
110640,note_on,0,0,2,,,,,,,,,1,,,76,0
110640,note_on,60,0,2,,,,,,,,,1,,,80,0
110640,note_on,0,0,3,,,,,,,,,2,,,57,100
110640,note_on,60,0,3,,,,,,,,,2,,,52,0
110640,note_on,0,0,1,,,,,,,,,0,,,85,100
110640,note_on,0,0,1,,,,,,,,,0,,,88,100
110640,note_on,0,0,1,,,,,,,,,0,,,88,0
110640,note_on,0,0,4,,,,,,,,,3,,,69,100
110640,note_on,0,0,10,,,,,,,,,10,,,57,100
110640,note_on,60,0,4,,,,,,,,,3,,,64,0
110640,note_on,60,0,11,,,,,,,,,11,,,40,0
110640,note_on,0,0,4,,,,,,,,,3,,,57,100
110640,note_on,60,0,10,,,,,,,,,10,,,52,0
110700,note_on,90,0,7,,,,,,,,,6,,,76,100
110700,note_on,90,0,8,,,,,,,,,7,,,73,100
110730,note_on,30,0,7,,,,,,,,,6,,,76,0
110730,note_on,30,0,8,,,,,,,,,7,,,73,0
110730,note_on,0,0,8,,,,,,,,,7,,,76,100
110730,note_on,0,0,7,,,,,,,,,6,,,81,100
110760,note_on,120,0,2,,,,,,,,,1,,,81,0
110760,note_on,120,0,11,,,,,,,,,11,,,45,0
110760,note_on,120,0,1,,,,,,,,,0,,,85,0
110760,note_on,0,0,1,,,,,,,,,0,,,88,0
110760,note_on,120,0,3,,,,,,,,,2,,,57,0
110760,note_on,30,0,8,,,,,,,,,7,,,76,0
110760,note_on,0,0,7,,,,,,,,,6,,,85,100
110760,note_on,120,0,9,,,,,,,,,8,,,69,0
110760,note_on,30,0,7,,,,,,,,,6,,,81,0
110760,note_on,0,0,2,,,,,,,,,1,,,76,0
110760,note_on,0,0,4,,,,,,,,,3,,,57,0
110760,note_on,120,0,4,,,,,,,,,3,,,69,0
110760,note_on,0,0,8,,,,,,,,,7,,,81,100
110760,note_on,120,0,10,,,,,,,,,10,,,57,0
110790,note_on,30,0,8,,,,,,,,,7,,,81,0
110790,note_on,30,0,7,,,,,,,,,6,,,85,0
110820,note_on,60,0,3,,,,,,,,,2,,,52,100
110820,note_on,60,0,9,,,,,,,,,8,,,64,100
110820,note_on,60,0,10,,,,,,,,,10,,,52,100
110820,note_on,60,0,4,,,,,,,,,3,,,64,100
110820,note_on,60,0,2,,,,,,,,,1,,,76,100
110820,note_on,0,0,1,,,,,,,,,0,,,83,100
110820,note_on,30,0,8,,,,,,,,,7,,,80,100
110820,note_on,60,0,1,,,,,,,,,0,,,88,100
110820,note_on,30,0,7,,,,,,,,,6,,,83,100
110820,note_on,0,0,2,,,,,,,,,1,,,80,100
110820,note_on,60,0,11,,,,,,,,,11,,,40,100
110850,note_on,30,0,7,,,,,,,,,6,,,83,0
110850,note_on,30,0,8,,,,,,,,,7,,,80,0
110880,note_on,60,0,4,,,,,,,,,3,,,64,0
110880,note_on,60,0,11,,,,,,,,,11,,,40,0
110880,note_on,360,0,6,,,,,,,,,5,,,45,100
110880,note_on,0,0,4,,,,,,,,,3,,,66,100
110880,note_on,360,0,5,,,,,,,,,4,,,69,100
110880,note_on,0,0,1,,,,,,,,,0,,,81,100
110880,note_on,60,0,10,,,,,,,,,10,,,52,0
110880,note_on,0,0,10,,,,,,,,,10,,,54,100
110880,note_on,0,0,11,,,,,,,,,11,,,42,100
110880,note_on,60,0,2,,,,,,,,,1,,,80,0
110880,note_on,0,0,5,,,,,,,,,4,,,57,100
110880,note_on,0,0,1,,,,,,,,,0,,,88,0
110880,note_on,0,0,2,,,,,,,,,1,,,76,0
110880,note_on,0,0,9,,,,,,,,,8,,,66,100
110880,note_on,60,0,9,,,,,,,,,8,,,64,0
110880,note_on,60,0,1,,,,,,,,,0,,,83,0
110880,note_on,60,0,3,,,,,,,,,2,,,52,0
110880,note_on,0,0,2,,,,,,,,,1,,,73,100
110880,note_on,0,0,1,,,,,,,,,0,,,85,100
110880,note_on,0,0,3,,,,,,,,,2,,,54,100
110880,note_on,0,0,2,,,,,,,,,1,,,78,100
110940,note_on,90,0,8,,,,,,,,,7,,,69,100
110940,note_on,90,0,7,,,,,,,,,6,,,73,100
110970,note_on,0,0,8,,,,,,,,,7,,,73,100
110970,note_on,30,0,8,,,,,,,,,7,,,69,0
110970,note_on,0,0,7,,,,,,,,,6,,,76,100
110970,note_on,30,0,7,,,,,,,,,6,,,73,0
111000,note_on,0,0,1,,,,,,,,,0,,,85,0
111000,note_on,120,0,1,,,,,,,,,0,,,81,0
111000,note_on,120,0,10,,,,,,,,,10,,,54,0
111000,note_on,120,0,3,,,,,,,,,2,,,54,0
111000,note_on,120,0,6,,,,,,,,,5,,,45,0
111000,note_on,120,0,4,,,,,,,,,3,,,66,0
111000,note_on,0,0,7,,,,,,,,,6,,,81,100
111000,note_on,0,0,8,,,,,,,,,7,,,78,100
111000,note_on,120,0,9,,,,,,,,,8,,,66,0
111000,note_on,120,0,2,,,,,,,,,1,,,78,0
111000,note_on,30,0,7,,,,,,,,,6,,,76,0
111000,note_on,0,0,2,,,,,,,,,1,,,73,0
111000,note_on,120,0,11,,,,,,,,,11,,,42,0
111000,note_on,30,0,8,,,,,,,,,7,,,73,0
111000,note_on,0,0,5,,,,,,,,,4,,,69,0
111000,note_on,120,0,5,,,,,,,,,4,,,57,0
111030,note_on,30,0,7,,,,,,,,,6,,,81,0
111030,note_on,30,0,8,,,,,,,,,7,,,78,0
111060,note_on,30,0,8,,,,,,,,,7,,,76,100
111060,note_on,60,0,1,,,,,,,,,0,,,80,100
111060,note_on,0,0,1,,,,,,,,,0,,,85,100
111060,note_on,60,0,3,,,,,,,,,2,,,49,100
111060,note_on,60,0,4,,,,,,,,,3,,,64,100
111060,note_on,30,0,7,,,,,,,,,6,,,80,100
111060,note_on,0,0,2,,,,,,,,,1,,,76,100
111060,note_on,60,0,9,,,,,,,,,8,,,61,100
111060,note_on,60,0,11,,,,,,,,,11,,,38,100
111060,note_on,60,0,10,,,,,,,,,10,,,50,100
111060,note_on,60,0,2,,,,,,,,,1,,,73,100
111090,note_on,30,0,8,,,,,,,,,7,,,76,0
111090,note_on,30,0,7,,,,,,,,,6,,,80,0
111120,note_on,0,0,1,,,,,,,,,0,,,85,100
111120,note_on,60,0,1,,,,,,,,,0,,,85,0
111120,note_on,0,0,1,,,,,,,,,0,,,81,100
111120,note_on,60,0,11,,,,,,,,,11,,,38,0
111120,note_on,0,0,1,,,,,,,,,0,,,80,0
111120,note_on,60,0,4,,,,,,,,,3,,,64,0
111120,note_on,0,0,11,,,,,,,,,11,,,42,100
111120,note_on,0,0,4,,,,,,,,,3,,,66,100
111120,note_on,0,0,3,,,,,,,,,2,,,54,100
111120,note_on,60,0,3,,,,,,,,,2,,,49,0
111120,note_on,60,0,2,,,,,,,,,1,,,76,0
111120,note_on,0,0,2,,,,,,,,,1,,,73,0
111120,note_on,0,0,2,,,,,,,,,1,,,78,100
111120,note_on,0,0,2,,,,,,,,,1,,,73,100
111120,note_on,60,0,10,,,,,,,,,10,,,50,0
111120,note_on,60,0,9,,,,,,,,,8,,,61,0
111120,note_on,0,0,9,,,,,,,,,8,,,66,100
111120,note_on,0,0,10,,,,,,,,,10,,,54,100
111180,note_on,90,0,8,,,,,,,,,7,,,69,100
111180,note_on,90,0,7,,,,,,,,,6,,,73,100
111210,note_on,30,0,7,,,,,,,,,6,,,73,0
111210,note_on,0,0,7,,,,,,,,,6,,,76,100
111210,note_on,30,0,8,,,,,,,,,7,,,69,0
111210,note_on,0,0,8,,,,,,,,,7,,,73,100
111240,note_on,120,0,1,,,,,,,,,0,,,81,0
111240,note_on,120,0,2,,,,,,,,,1,,,73,0
111240,note_on,0,0,2,,,,,,,,,1,,,78,0
111240,note_on,0,0,1,,,,,,,,,0,,,85,0
111240,note_on,30,0,8,,,,,,,,,7,,,73,0
111240,note_on,120,0,3,,,,,,,,,2,,,54,0
111240,note_on,120,0,11,,,,,,,,,11,,,42,0
111240,note_on,120,0,10,,,,,,,,,10,,,54,0
111240,note_on,120,0,4,,,,,,,,,3,,,66,0
111240,note_on,30,0,7,,,,,,,,,6,,,76,0
111240,note_on,0,0,8,,,,,,,,,7,,,78,100
111240,note_on,120,0,9,,,,,,,,,8,,,66,0
111240,note_on,0,0,7,,,,,,,,,6,,,81,100
111270,note_on,30,0,7,,,,,,,,,6,,,81,0
111270,note_on,30,0,8,,,,,,,,,7,,,78,0
111300,note_on,30,0,8,,,,,,,,,7,,,76,100
111300,note_on,60,0,9,,,,,,,,,8,,,61,100
111300,note_on,0,0,2,,,,,,,,,1,,,73,100
111300,note_on,30,0,7,,,,,,,,,6,,,80,100
111300,note_on,60,0,3,,,,,,,,,2,,,49,100
111300,note_on,60,0,2,,,,,,,,,1,,,76,100
111300,note_on,60,0,11,,,,,,,,,11,,,38,100
111300,note_on,60,0,4,,,,,,,,,3,,,64,100
111300,note_on,60,0,10,,,,,,,,,10,,,50,100
111300,note_on,60,0,1,,,,,,,,,0,,,85,100
111300,note_on,0,0,1,,,,,,,,,0,,,80,100
111330,note_on,30,0,7,,,,,,,,,6,,,80,0
111330,note_on,30,0,8,,,,,,,,,7,,,76,0
111360,note_on,60,0,3,,,,,,,,,2,,,49,0
111360,note_on,0,0,9,,,,,,,,,8,,,62,100
111360,note_on,60,0,9,,,,,,,,,8,,,61,0
111360,note_on,0,0,2,,,,,,,,,1,,,69,100
111360,note_on,60,0,1,,,,,,,,,0,,,80,0
111360,note_on,0,0,1,,,,,,,,,0,,,85,0
111360,note_on,0,0,1,,,,,,,,,0,,,78,100
111360,note_on,0,0,2,,,,,,,,,1,,,76,0
111360,note_on,0,0,4,,,,,,,,,3,,,62,100
111360,note_on,60,0,4,,,,,,,,,3,,,64,0
111360,note_on,0,0,4,,,,,,,,,3,,,66,100
111360,note_on,360,0,5,,,,,,,,,4,,,62,100
111360,note_on,0,0,1,,,,,,,,,0,,,81,100
111360,note_on,360,0,6,,,,,,,,,5,,,50,100
111360,note_on,60,0,2,,,,,,,,,1,,,73,0
111360,note_on,60,0,10,,,,,,,,,10,,,50,0
111360,note_on,0,0,10,,,,,,,,,10,,,50,100
111360,note_on,60,0,11,,,,,,,,,11,,,38,0
111360,note_on,0,0,11,,,,,,,,,11,,,38,100
111360,note_on,0,0,3,,,,,,,,,2,,,50,100
111360,note_on,0,0,5,,,,,,,,,4,,,74,100
111360,note_on,0,0,2,,,,,,,,,1,,,74,100
111420,note_on,90,0,7,,,,,,,,,6,,,69,100
111420,note_on,90,0,8,,,,,,,,,7,,,66,100
111450,note_on,0,0,7,,,,,,,,,6,,,74,100
111450,note_on,30,0,7,,,,,,,,,6,,,69,0
111450,note_on,0,0,8,,,,,,,,,7,,,69,100
111450,note_on,30,0,8,,,,,,,,,7,,,66,0
111480,note_on,0,0,2,,,,,,,,,1,,,69,0
111480,note_on,0,0,4,,,,,,,,,3,,,62,0
111480,note_on,120,0,11,,,,,,,,,11,,,38,0
111480,note_on,120,0,4,,,,,,,,,3,,,66,0
111480,note_on,120,0,6,,,,,,,,,5,,,50,0
111480,note_on,120,0,10,,,,,,,,,10,,,50,0
111480,note_on,120,0,3,,,,,,,,,2,,,50,0
111480,note_on,120,0,2,,,,,,,,,1,,,74,0
111480,note_on,30,0,8,,,,,,,,,7,,,69,0
111480,note_on,0,0,8,,,,,,,,,7,,,74,100
111480,note_on,0,0,7,,,,,,,,,6,,,78,100
111480,note_on,0,0,5,,,,,,,,,4,,,62,0
111480,note_on,120,0,5,,,,,,,,,4,,,74,0
111480,note_on,120,0,1,,,,,,,,,0,,,81,0
111480,note_on,0,0,1,,,,,,,,,0,,,78,0
111480,note_on,120,0,9,,,,,,,,,8,,,62,0
111480,note_on,30,0,7,,,,,,,,,6,,,74,0
111510,note_on,30,0,8,,,,,,,,,7,,,74,0
111510,note_on,30,0,7,,,,,,,,,6,,,78,0
111540,note_on,60,0,6,,,,,,,,,5,,,45,100
111540,note_on,0,0,2,,,,,,,,,1,,,73,100
111540,note_on,60,0,1,,,,,,,,,0,,,81,100
111540,note_on,0,0,1,,,,,,,,,0,,,76,100
111540,note_on,60,0,10,,,,,,,,,10,,,47,100
111540,note_on,60,0,3,,,,,,,,,2,,,45,100
111540,note_on,30,0,8,,,,,,,,,7,,,73,100
111540,note_on,60,0,5,,,,,,,,,4,,,57,100
111540,note_on,0,0,5,,,,,,,,,4,,,69,100
111540,note_on,60,0,4,,,,,,,,,3,,,57,100
111540,note_on,30,0,7,,,,,,,,,6,,,76,100
111540,note_on,0,0,4,,,,,,,,,3,,,64,100
111540,note_on,60,0,11,,,,,,,,,11,,,35,100
111540,note_on,60,0,2,,,,,,,,,1,,,69,100
111540,note_on,60,0,9,,,,,,,,,8,,,57,100
111570,note_on,30,0,7,,,,,,,,,6,,,76,0
111570,note_on,30,0,8,,,,,,,,,7,,,73,0
111600,note_on,0,0,1,,,,,,,,,0,,,78,100
111600,note_on,60,0,11,,,,,,,,,11,,,35,0
111600,note_on,0,0,2,,,,,,,,,1,,,74,100
111600,note_on,0,0,11,,,,,,,,,11,,,38,100
111600,note_on,0,0,2,,,,,,,,,1,,,69,0
111600,note_on,0,0,2,,,,,,,,,1,,,69,100
111600,note_on,0,0,1,,,,,,,,,0,,,81,100
111600,note_on,0,0,1,,,,,,,,,0,,,81,0
111600,note_on,0,0,3,,,,,,,,,2,,,50,100
111600,note_on,60,0,3,,,,,,,,,2,,,45,0
111600,note_on,60,0,1,,,,,,,,,0,,,76,0
111600,note_on,60,0,2,,,,,,,,,1,,,73,0
111600,note_on,0,0,6,,,,,,,,,5,,,50,100
111600,note_on,0,0,10,,,,,,,,,10,,,50,100
111600,note_on,0,0,5,,,,,,,,,4,,,57,0
111600,note_on,60,0,5,,,,,,,,,4,,,69,0
111600,note_on,0,0,5,,,,,,,,,4,,,62,100
111600,note_on,60,0,9,,,,,,,,,8,,,57,0
111600,note_on,0,0,9,,,,,,,,,8,,,62,100
111600,note_on,0,0,4,,,,,,,,,3,,,62,100
111600,note_on,0,0,5,,,,,,,,,4,,,74,100
111600,note_on,0,0,4,,,,,,,,,3,,,66,100
111600,note_on,60,0,6,,,,,,,,,5,,,45,0
111600,note_on,0,0,4,,,,,,,,,3,,,57,0
111600,note_on,60,0,4,,,,,,,,,3,,,64,0
111600,note_on,60,0,10,,,,,,,,,10,,,47,0
111660,note_on,90,0,7,,,,,,,,,6,,,69,100
111660,note_on,90,0,8,,,,,,,,,7,,,66,100
111690,note_on,30,0,8,,,,,,,,,7,,,66,0
111690,note_on,0,0,7,,,,,,,,,6,,,74,100
111690,note_on,30,0,7,,,,,,,,,6,,,69,0
111690,note_on,0,0,8,,,,,,,,,7,,,69,100
111720,note_on,30,0,8,,,,,,,,,7,,,69,0
111720,note_on,0,0,8,,,,,,,,,7,,,74,100
111720,note_on,120,0,9,,,,,,,,,8,,,62,0
111720,note_on,0,0,5,,,,,,,,,4,,,62,0
111720,note_on,0,0,2,,,,,,,,,1,,,74,0
111720,note_on,120,0,11,,,,,,,,,11,,,38,0
111720,note_on,120,0,10,,,,,,,,,10,,,50,0
111720,note_on,120,0,2,,,,,,,,,1,,,69,0
111720,note_on,120,0,1,,,,,,,,,0,,,78,0
111720,note_on,30,0,7,,,,,,,,,6,,,74,0
111720,note_on,0,0,7,,,,,,,,,6,,,78,100
111720,note_on,0,0,4,,,,,,,,,3,,,66,0
111720,note_on,120,0,4,,,,,,,,,3,,,62,0
111720,note_on,120,0,6,,,,,,,,,5,,,50,0
111720,note_on,120,0,3,,,,,,,,,2,,,50,0
111720,note_on,120,0,5,,,,,,,,,4,,,74,0
111720,note_on,0,0,1,,,,,,,,,0,,,81,0
111750,note_on,30,0,7,,,,,,,,,6,,,78,0
111750,note_on,30,0,8,,,,,,,,,7,,,74,0
111780,note_on,60,0,11,,,,,,,,,11,,,35,100
111780,note_on,60,0,10,,,,,,,,,10,,,47,100
111780,note_on,60,0,6,,,,,,,,,5,,,45,100
111780,note_on,30,0,7,,,,,,,,,6,,,76,100
111780,note_on,0,0,4,,,,,,,,,3,,,64,100
111780,note_on,60,0,4,,,,,,,,,3,,,57,100
111780,note_on,60,0,3,,,,,,,,,2,,,45,100
111780,note_on,60,0,2,,,,,,,,,1,,,69,100
111780,note_on,60,0,5,,,,,,,,,4,,,57,100
111780,note_on,0,0,5,,,,,,,,,4,,,69,100
111780,note_on,0,0,2,,,,,,,,,1,,,73,100
111780,note_on,60,0,1,,,,,,,,,0,,,76,100
111780,note_on,0,0,1,,,,,,,,,0,,,81,100
111780,note_on,30,0,8,,,,,,,,,7,,,73,100
111780,note_on,60,0,9,,,,,,,,,8,,,57,100
111810,note_on,30,0,7,,,,,,,,,6,,,76,0
111810,note_on,30,0,8,,,,,,,,,7,,,73,0
111840,note_on,0,0,2,,,,,,,,,1,,,74,100
111840,note_on,0,0,10,,,,,,,,,10,,,50,100
111840,note_on,60,0,10,,,,,,,,,10,,,47,0
111840,note_on,0,0,9,,,,,,,,,8,,,62,100
111840,note_on,60,0,6,,,,,,,,,5,,,45,0
111840,note_on,60,0,11,,,,,,,,,11,,,35,0
111840,note_on,0,0,6,,,,,,,,,5,,,50,100
111840,note_on,30,0,8,,,,,,,,,7,,,74,100
111840,note_on,0,0,11,,,,,,,,,11,,,38,100
111840,note_on,0,0,2,,,,,,,,,1,,,69,100
111840,note_on,60,0,9,,,,,,,,,8,,,57,0
111840,note_on,0,0,2,,,,,,,,,1,,,69,0
111840,note_on,60,0,2,,,,,,,,,1,,,73,0
111840,note_on,0,0,3,,,,,,,,,2,,,50,100
111840,note_on,0,0,5,,,,,,,,,4,,,74,100
111840,note_on,0,0,5,,,,,,,,,4,,,62,100
111840,note_on,0,0,5,,,,,,,,,4,,,57,0
111840,note_on,0,0,1,,,,,,,,,0,,,78,100
111840,note_on,0,0,1,,,,,,,,,0,,,81,100
111840,note_on,0,0,1,,,,,,,,,0,,,76,0
111840,note_on,60,0,5,,,,,,,,,4,,,69,0
111840,note_on,60,0,4,,,,,,,,,3,,,64,0
111840,note_on,0,0,4,,,,,,,,,3,,,57,0
111840,note_on,60,0,1,,,,,,,,,0,,,81,0
111840,note_on,0,0,4,,,,,,,,,3,,,62,100
111840,note_on,60,0,3,,,,,,,,,2,,,45,0
111840,note_on,30,0,7,,,,,,,,,6,,,78,100
111840,note_on,0,0,4,,,,,,,,,3,,,66,100
111885,note_on,45,0,3,,,,,,,,,2,,,50,0
111885,note_on,45,0,9,,,,,,,,,8,,,62,0
111885,note_on,45,0,11,,,,,,,,,11,,,38,0
111885,note_on,45,0,10,,,,,,,,,10,,,50,0
111900,note_on,0,0,4,,,,,,,,,3,,,66,0
111900,note_on,15,0,10,,,,,,,,,10,,,50,101
111900,note_on,60,0,5,,,,,,,,,4,,,74,0
111900,note_on,60,0,4,,,,,,,,,3,,,62,0
111900,note_on,15,0,9,,,,,,,,,8,,,62,101
111900,note_on,15,0,3,,,,,,,,,2,,,50,101
111900,note_on,15,0,11,,,,,,,,,11,,,38,101
111900,note_on,0,0,5,,,,,,,,,4,,,62,0
111945,note_on,45,0,10,,,,,,,,,10,,,50,0
111945,note_on,45,0,9,,,,,,,,,8,,,62,0
111945,note_on,45,0,3,,,,,,,,,2,,,50,0
111945,note_on,45,0,11,,,,,,,,,11,,,38,0
111960,note_on,0,0,1,,,,,,,,,0,,,83,103
111960,note_on,0,0,2,,,,,,,,,1,,,74,103
111960,note_on,0,0,2,,,,,,,,,1,,,83,103
111960,note_on,15,0,10,,,,,,,,,10,,,50,103
111960,note_on,0,0,7,,,,,,,,,6,,,74,103
111960,note_on,0,0,7,,,,,,,,,6,,,83,103
111960,note_on,0,0,4,,,,,,,,,3,,,66,103
111960,note_on,120,0,6,,,,,,,,,5,,,50,0
111960,note_on,60,0,4,,,,,,,,,3,,,62,103
111960,note_on,120,0,7,,,,,,,,,6,,,78,0
111960,note_on,0,0,8,,,,,,,,,7,,,66,103
111960,note_on,0,0,8,,,,,,,,,7,,,74,103
111960,note_on,0,0,8,,,,,,,,,7,,,83,103
111960,note_on,120,0,8,,,,,,,,,7,,,74,0
111960,note_on,0,0,2,,,,,,,,,1,,,69,0
111960,note_on,120,0,2,,,,,,,,,1,,,74,0
111960,note_on,15,0,11,,,,,,,,,11,,,38,103
111960,note_on,0,0,1,,,,,,,,,0,,,86,103
111960,note_on,0,0,1,,,,,,,,,0,,,81,0
111960,note_on,120,0,1,,,,,,,,,0,,,78,0
111960,note_on,15,0,3,,,,,,,,,2,,,50,103
111960,note_on,60,0,5,,,,,,,,,4,,,78,103
111960,note_on,15,0,9,,,,,,,,,8,,,62,103
111960,note_on,0,0,7,,,,,,,,,6,,,66,103
111960,note_on,0,0,5,,,,,,,,,4,,,74,103
112005,note_on,45,0,11,,,,,,,,,11,,,38,0
112005,note_on,45,0,3,,,,,,,,,2,,,50,0
112005,note_on,45,0,10,,,,,,,,,10,,,50,0
112005,note_on,45,0,9,,,,,,,,,8,,,62,0
112020,note_on,60,0,5,,,,,,,,,4,,,74,0
112020,note_on,0,0,5,,,,,,,,,4,,,78,0
112020,note_on,15,0,3,,,,,,,,,2,,,50,105
112020,note_on,60,0,4,,,,,,,,,3,,,66,0
112020,note_on,0,0,4,,,,,,,,,3,,,62,0
112020,note_on,15,0,10,,,,,,,,,10,,,50,105
112020,note_on,15,0,11,,,,,,,,,11,,,38,105
112020,note_on,15,0,9,,,,,,,,,8,,,62,105
112050,note_on,90,0,7,,,,,,,,,6,,,66,0
112050,note_on,0,0,7,,,,,,,,,6,,,83,0
112050,note_on,0,0,8,,,,,,,,,7,,,83,0
112050,note_on,0,0,8,,,,,,,,,7,,,74,0
112050,note_on,0,0,7,,,,,,,,,6,,,74,0
112050,note_on,90,0,8,,,,,,,,,7,,,66,0
112065,note_on,45,0,9,,,,,,,,,8,,,62,0
112065,note_on,45,0,11,,,,,,,,,11,,,38,0
112065,note_on,45,0,3,,,,,,,,,2,,,50,0
112065,note_on,45,0,10,,,,,,,,,10,,,50,0
112080,note_on,0,0,1,,,,,,,,,0,,,85,106
112080,note_on,0,0,1,,,,,,,,,0,,,81,106
112080,note_on,0,0,1,,,,,,,,,0,,,86,0
112080,note_on,0,0,7,,,,,,,,,6,,,64,106
112080,note_on,0,0,7,,,,,,,,,6,,,73,106
112080,note_on,15,0,9,,,,,,,,,8,,,64,106
112080,note_on,60,0,5,,,,,,,,,4,,,76,106
112080,note_on,15,0,3,,,,,,,,,2,,,52,106
112080,note_on,0,0,2,,,,,,,,,1,,,74,0
112080,note_on,60,0,4,,,,,,,,,3,,,64,106
112080,note_on,30,0,7,,,,,,,,,6,,,81,106
112080,note_on,120,0,2,,,,,,,,,1,,,83,0
112080,note_on,15,0,10,,,,,,,,,10,,,52,106
112080,note_on,0,0,8,,,,,,,,,7,,,81,106
112080,note_on,0,0,8,,,,,,,,,7,,,73,106
112080,note_on,30,0,8,,,,,,,,,7,,,64,106
112080,note_on,120,0,1,,,,,,,,,0,,,83,0
112080,note_on,15,0,11,,,,,,,,,11,,,40,106
112080,note_on,0,0,2,,,,,,,,,1,,,81,106
112080,note_on,0,0,2,,,,,,,,,1,,,73,106
112125,note_on,45,0,3,,,,,,,,,2,,,52,0
112125,note_on,45,0,9,,,,,,,,,8,,,64,0
112125,note_on,45,0,11,,,,,,,,,11,,,40,0
112125,note_on,45,0,10,,,,,,,,,10,,,52,0
112140,note_on,60,0,4,,,,,,,,,3,,,64,0
112140,note_on,60,0,5,,,,,,,,,4,,,76,0
112140,note_on,15,0,11,,,,,,,,,11,,,40,108
112140,note_on,15,0,3,,,,,,,,,2,,,52,108
112140,note_on,15,0,9,,,,,,,,,8,,,64,108
112140,note_on,15,0,10,,,,,,,,,10,,,52,108
112170,note_on,90,0,7,,,,,,,,,6,,,64,0
112170,note_on,0,0,8,,,,,,,,,7,,,64,0
112170,note_on,0,0,8,,,,,,,,,7,,,73,0
112170,note_on,90,0,8,,,,,,,,,7,,,81,0
112170,note_on,0,0,7,,,,,,,,,6,,,73,0
112170,note_on,0,0,7,,,,,,,,,6,,,81,0
112185,note_on,45,0,10,,,,,,,,,10,,,52,0
112185,note_on,45,0,3,,,,,,,,,2,,,52,0
112185,note_on,45,0,11,,,,,,,,,11,,,40,0
112185,note_on,45,0,9,,,,,,,,,8,,,64,0
112200,note_on,30,0,8,,,,,,,,,7,,,64,110
112200,note_on,15,0,9,,,,,,,,,8,,,64,110
112200,note_on,0,0,1,,,,,,,,,0,,,83,110
112200,note_on,0,0,1,,,,,,,,,0,,,80,110
112200,note_on,0,0,7,,,,,,,,,6,,,71,110
112200,note_on,30,0,7,,,,,,,,,6,,,80,110
112200,note_on,15,0,10,,,,,,,,,10,,,52,110
112200,note_on,60,0,4,,,,,,,,,3,,,64,110
112200,note_on,15,0,3,,,,,,,,,2,,,52,110
112200,note_on,15,0,11,,,,,,,,,11,,,40,110
112200,note_on,0,0,7,,,,,,,,,6,,,64,110
112200,note_on,120,0,2,,,,,,,,,1,,,81,0
112200,note_on,120,0,1,,,,,,,,,0,,,85,0
112200,note_on,0,0,1,,,,,,,,,0,,,81,0
112200,note_on,0,0,8,,,,,,,,,7,,,71,110
112200,note_on,0,0,2,,,,,,,,,1,,,73,0
112200,note_on,0,0,2,,,,,,,,,1,,,71,110
112200,note_on,60,0,5,,,,,,,,,4,,,76,110
112200,note_on,0,0,2,,,,,,,,,1,,,80,110
112200,note_on,0,0,8,,,,,,,,,7,,,80,110
112245,note_on,45,0,3,,,,,,,,,2,,,52,0
112245,note_on,45,0,9,,,,,,,,,8,,,64,0
112245,note_on,45,0,11,,,,,,,,,11,,,40,0
112245,note_on,45,0,10,,,,,,,,,10,,,52,0
112260,note_on,60,0,4,,,,,,,,,3,,,64,0
112260,note_on,15,0,11,,,,,,,,,11,,,40,111
112260,note_on,15,0,9,,,,,,,,,8,,,64,111
112260,note_on,15,0,10,,,,,,,,,10,,,52,111
112260,note_on,60,0,5,,,,,,,,,4,,,76,0
112260,note_on,15,0,3,,,,,,,,,2,,,52,111
112290,note_on,0,0,7,,,,,,,,,6,,,80,0
112290,note_on,0,0,8,,,,,,,,,7,,,64,0
112290,note_on,0,0,8,,,,,,,,,7,,,71,0
112290,note_on,90,0,8,,,,,,,,,7,,,80,0
112290,note_on,90,0,7,,,,,,,,,6,,,64,0
112290,note_on,0,0,7,,,,,,,,,6,,,71,0
112305,note_on,45,0,11,,,,,,,,,11,,,40,0
112305,note_on,45,0,9,,,,,,,,,8,,,64,0
112305,note_on,45,0,3,,,,,,,,,2,,,52,0
112305,note_on,45,0,10,,,,,,,,,10,,,52,0
112320,note_on,0,0,1,,,,,,,,,0,,,80,0
112320,note_on,120,0,1,,,,,,,,,0,,,83,0
112320,note_on,15,0,3,,,,,,,,,2,,,45,113
112320,note_on,0,0,1,,,,,,,,,0,,,81,113
112320,note_on,15,0,9,,,,,,,,,8,,,57,113
112320,note_on,60,0,4,,,,,,,,,3,,,57,113
112320,note_on,0,0,8,,,,,,,,,7,,,73,113
112320,note_on,0,0,2,,,,,,,,,1,,,73,113
112320,note_on,0,0,8,,,,,,,,,7,,,64,113
112320,note_on,30,0,8,,,,,,,,,7,,,81,113
112320,note_on,30,0,7,,,,,,,,,6,,,64,113
112320,note_on,0,0,7,,,,,,,,,6,,,73,113
112320,note_on,15,0,10,,,,,,,,,10,,,45,113
112320,note_on,15,0,11,,,,,,,,,11,,,33,113
112320,note_on,120,0,2,,,,,,,,,1,,,80,0
112320,note_on,0,0,2,,,,,,,,,1,,,71,0
112320,note_on,0,0,2,,,,,,,,,1,,,81,113
112320,note_on,360,0,6,,,,,,,,,5,,,45,113
112320,note_on,0,0,7,,,,,,,,,6,,,81,113
112320,note_on,60,0,5,,,,,,,,,4,,,69,113
112365,note_on,45,0,4,,,,,,,,,3,,,57,0
112365,note_on,45,0,5,,,,,,,,,4,,,69,0
112365,note_on,45,0,11,,,,,,,,,11,,,33,0
112365,note_on,45,0,10,,,,,,,,,10,,,45,0
112380,note_on,15,0,4,,,,,,,,,3,,,45,115
112380,note_on,15,0,10,,,,,,,,,10,,,57,115
112380,note_on,0,0,4,,,,,,,,,3,,,57,115
112380,note_on,15,0,11,,,,,,,,,11,,,45,115
112380,note_on,0,0,5,,,,,,,,,4,,,69,115
112380,note_on,15,0,5,,,,,,,,,4,,,57,115
112425,note_on,45,0,11,,,,,,,,,11,,,45,0
112425,note_on,45,0,4,,,,,,,,,3,,,57,0
112425,note_on,0,0,4,,,,,,,,,3,,,45,0
112425,note_on,0,0,5,,,,,,,,,4,,,57,0
112425,note_on,45,0,10,,,,,,,,,10,,,57,0
112425,note_on,45,0,5,,,,,,,,,4,,,69,0
112440,note_on,0,0,6,,,,,,,,,5,,,45,116
112440,note_on,120,0,7,,,,,,,,,6,,,81,0
112440,note_on,120,0,2,,,,,,,,,1,,,81,0
112440,note_on,0,0,2,,,,,,,,,1,,,73,0
112440,note_on,15,0,5,,,,,,,,,4,,,57,116
112440,note_on,120,0,1,,,,,,,,,0,,,81,0
112440,note_on,120,0,6,,,,,,,,,5,,,45,0
112440,note_on,120,0,9,,,,,,,,,8,,,57,0
112440,note_on,15,0,11,,,,,,,,,11,,,45,116
112440,note_on,15,0,10,,,,,,,,,10,,,57,116
112440,note_on,0,0,7,,,,,,,,,6,,,73,0
112440,note_on,0,0,4,,,,,,,,,3,,,57,116
112440,note_on,15,0,4,,,,,,,,,3,,,45,116
112440,note_on,120,0,3,,,,,,,,,2,,,45,0
112440,note_on,120,0,8,,,,,,,,,7,,,64,0
112440,note_on,0,0,8,,,,,,,,,7,,,73,0
112440,note_on,0,0,8,,,,,,,,,7,,,81,0
112440,note_on,0,0,5,,,,,,,,,4,,,69,116
112440,note_on,0,0,7,,,,,,,,,6,,,64,0
112485,note_on,45,0,10,,,,,,,,,10,,,57,0
112485,note_on,0,0,5,,,,,,,,,4,,,57,0
112485,note_on,45,0,11,,,,,,,,,11,,,45,0
112485,note_on,0,0,4,,,,,,,,,3,,,45,0
112485,note_on,45,0,4,,,,,,,,,3,,,57,0
112485,note_on,45,0,5,,,,,,,,,4,,,69,0
112500,note_on,15,0,10,,,,,,,,,10,,,57,118
112500,note_on,15,0,11,,,,,,,,,11,,,45,118
112500,note_on,0,0,5,,,,,,,,,4,,,69,118
112500,note_on,0,0,6,,,,,,,,,5,,,45,118
112500,note_on,15,0,5,,,,,,,,,4,,,57,118
112500,note_on,15,0,4,,,,,,,,,3,,,45,118
112500,note_on,0,0,4,,,,,,,,,3,,,57,118
112500,note_on,60,0,6,,,,,,,,,5,,,45,0
112545,note_on,45,0,5,,,,,,,,,4,,,69,0
112545,note_on,0,0,4,,,,,,,,,3,,,45,0
112545,note_on,45,0,10,,,,,,,,,10,,,57,0
112545,note_on,45,0,4,,,,,,,,,3,,,57,0
112545,note_on,0,0,5,,,,,,,,,4,,,57,0
112545,note_on,45,0,11,,,,,,,,,11,,,45,0
112560,note_on,0,0,4,,,,,,,,,3,,,57,120
112560,note_on,15,0,4,,,,,,,,,3,,,45,120
112560,note_on,15,0,5,,,,,,,,,4,,,57,120
112560,note_on,0,0,5,,,,,,,,,4,,,69,120
112560,note_on,15,0,10,,,,,,,,,10,,,57,120
112560,note_on,0,0,6,,,,,,,,,5,,,45,120
112560,note_on,15,0,11,,,,,,,,,11,,,45,120
112560,note_on,60,0,6,,,,,,,,,5,,,45,0
112605,note_on,45,0,5,,,,,,,,,4,,,69,0
112605,note_on,0,0,5,,,,,,,,,4,,,57,0
112605,note_on,45,0,10,,,,,,,,,10,,,57,0
112605,note_on,0,0,4,,,,,,,,,3,,,45,0
112605,note_on,45,0,11,,,,,,,,,11,,,45,0
112605,note_on,45,0,4,,,,,,,,,3,,,57,0
112620,note_on,15,0,4,,,,,,,,,3,,,45,121
112620,note_on,0,0,4,,,,,,,,,3,,,57,121
112620,note_on,60,0,6,,,,,,,,,5,,,45,0
112620,note_on,15,0,10,,,,,,,,,10,,,57,121
112620,note_on,0,0,6,,,,,,,,,5,,,45,121
112620,note_on,15,0,11,,,,,,,,,11,,,45,121
112620,note_on,0,0,5,,,,,,,,,4,,,69,121
112620,note_on,15,0,5,,,,,,,,,4,,,57,121
112665,note_on,45,0,5,,,,,,,,,4,,,69,0
112665,note_on,0,0,5,,,,,,,,,4,,,57,0
112665,note_on,45,0,11,,,,,,,,,11,,,45,0
112665,note_on,45,0,10,,,,,,,,,10,,,57,0
112665,note_on,0,0,4,,,,,,,,,3,,,45,0
112665,note_on,45,0,4,,,,,,,,,3,,,57,0
112680,note_on,0,0,6,,,,,,,,,5,,,45,123
112680,note_on,60,0,6,,,,,,,,,5,,,45,0
112680,note_on,0,0,4,,,,,,,,,3,,,57,123
112680,note_on,15,0,10,,,,,,,,,10,,,57,123
112680,note_on,15,0,11,,,,,,,,,11,,,45,123
112680,note_on,15,0,4,,,,,,,,,3,,,45,123
112680,note_on,15,0,5,,,,,,,,,4,,,57,123
112680,note_on,0,0,5,,,,,,,,,4,,,69,123
112725,note_on,45,0,11,,,,,,,,,11,,,45,0
112725,note_on,45,0,4,,,,,,,,,3,,,57,0
112725,note_on,0,0,4,,,,,,,,,3,,,45,0
112725,note_on,45,0,10,,,,,,,,,10,,,57,0
112725,note_on,45,0,5,,,,,,,,,4,,,69,0
112725,note_on,0,0,5,,,,,,,,,4,,,57,0
112740,note_on,15,0,11,,,,,,,,,11,,,45,125
112740,note_on,60,0,6,,,,,,,,,5,,,45,0
112740,note_on,0,0,6,,,,,,,,,5,,,45,125
112740,note_on,0,0,5,,,,,,,,,4,,,69,125
112740,note_on,15,0,5,,,,,,,,,4,,,57,125
112740,note_on,15,0,4,,,,,,,,,3,,,45,125
112740,note_on,15,0,10,,,,,,,,,10,,,57,125
112740,note_on,0,0,4,,,,,,,,,3,,,57,125
112785,note_on,45,0,10,,,,,,,,,10,,,57,0
112785,note_on,45,0,4,,,,,,,,,3,,,57,0
112785,note_on,45,0,11,,,,,,,,,11,,,45,0
112785,note_on,0,0,5,,,,,,,,,4,,,57,0
112785,note_on,0,0,4,,,,,,,,,3,,,45,0
112785,note_on,45,0,5,,,,,,,,,4,,,69,0
112800,note_on,360,0,8,,,,,,,,,7,,,67,115
112800,note_on,0,0,6,,,,,,,,,5,,,45,115
112800,note_on,15,0,10,,,,,,,,,10,,,57,115
112800,note_on,360,0,3,,,,,,,,,2,,,52,115
112800,note_on,15,0,5,,,,,,,,,4,,,57,115
112800,note_on,0,0,3,,,,,,,,,2,,,55,115
112800,note_on,0,0,4,,,,,,,,,3,,,57,115
112800,note_on,15,0,4,,,,,,,,,3,,,45,115
112800,note_on,15,0,11,,,,,,,,,11,,,45,115
112800,note_on,0,0,5,,,,,,,,,4,,,69,115
112800,note_on,360,0,9,,,,,,,,,8,,,64,115
112800,note_on,360,0,1,,,,,,,,,0,,,85,115
112800,note_on,360,0,7,,,,,,,,,6,,,85,115
112800,note_on,360,0,2,,,,,,,,,1,,,76,115
112800,note_on,0,0,2,,,,,,,,,1,,,73,115
112800,note_on,60,0,6,,,,,,,,,5,,,45,0
112845,note_on,45,0,10,,,,,,,,,10,,,57,0
112845,note_on,45,0,11,,,,,,,,,11,,,45,0
112860,note_on,15,0,10,,,,,,,,,10,,,57,115
112860,note_on,15,0,11,,,,,,,,,11,,,45,115
112905,note_on,45,0,10,,,,,,,,,10,,,57,0
112905,note_on,45,0,11,,,,,,,,,11,,,45,0
112920,note_on,120,0,6,,,,,,,,,5,,,45,0
112920,note_on,15,0,11,,,,,,,,,11,,,45,115
112920,note_on,15,0,10,,,,,,,,,10,,,57,115
112965,note_on,45,0,11,,,,,,,,,11,,,45,0
112965,note_on,45,0,10,,,,,,,,,10,,,57,0
112980,note_on,15,0,11,,,,,,,,,11,,,45,115
112980,note_on,15,0,10,,,,,,,,,10,,,57,115
113025,note_on,45,0,11,,,,,,,,,11,,,45,0
113025,note_on,45,0,10,,,,,,,,,10,,,57,0
113040,note_on,15,0,11,,,,,,,,,11,,,45,115
113040,note_on,15,0,10,,,,,,,,,10,,,57,115
113085,note_on,45,0,10,,,,,,,,,10,,,57,0
113085,note_on,45,0,11,,,,,,,,,11,,,45,0
113100,note_on,15,0,11,,,,,,,,,11,,,45,115
113100,note_on,15,0,10,,,,,,,,,10,,,57,115
113145,note_on,45,0,11,,,,,,,,,11,,,45,0
113145,note_on,45,0,10,,,,,,,,,10,,,57,0
113160,note_on,15,0,10,,,,,,,,,10,,,57,115
113160,note_on,15,0,11,,,,,,,,,11,,,45,115
113205,note_on,45,0,10,,,,,,,,,10,,,57,0
113205,note_on,45,0,11,,,,,,,,,11,,,45,0
113220,note_on,15,0,11,,,,,,,,,11,,,45,115
113220,note_on,15,0,10,,,,,,,,,10,,,57,115
113265,note_on,45,0,11,,,,,,,,,11,,,45,0
113265,note_on,45,0,10,,,,,,,,,10,,,57,0
113280,note_on,0,0,8,,,,,,,,,7,,,66,115
113280,note_on,480,0,5,,,,,,,,,4,,,69,0
113280,note_on,15,0,11,,,,,,,,,11,,,45,115
113280,note_on,0,0,4,,,,,,,,,3,,,45,0
113280,note_on,0,0,3,,,,,,,,,2,,,54,115
113280,note_on,0,0,3,,,,,,,,,2,,,50,115
113280,note_on,0,0,3,,,,,,,,,2,,,52,0
113280,note_on,480,0,3,,,,,,,,,2,,,55,0
113280,note_on,0,0,4,,,,,,,,,3,,,57,115
113280,note_on,0,0,4,,,,,,,,,3,,,45,115
113280,note_on,0,0,5,,,,,,,,,4,,,57,0
113280,note_on,0,0,9,,,,,,,,,8,,,62,115
113280,note_on,480,0,9,,,,,,,,,8,,,64,0
113280,note_on,0,0,5,,,,,,,,,4,,,57,115
113280,note_on,0,0,5,,,,,,,,,4,,,69,115
113280,note_on,0,0,7,,,,,,,,,6,,,86,115
113280,note_on,480,0,7,,,,,,,,,6,,,85,0
113280,note_on,480,0,1,,,,,,,,,0,,,85,0
113280,note_on,0,0,1,,,,,,,,,0,,,86,115
113280,note_on,15,0,10,,,,,,,,,10,,,57,115
113280,note_on,480,0,2,,,,,,,,,1,,,73,0
113280,note_on,0,0,2,,,,,,,,,1,,,76,0
113280,note_on,0,0,2,,,,,,,,,1,,,78,115
113280,note_on,0,0,2,,,,,,,,,1,,,74,115
113280,note_on,360,0,6,,,,,,,,,5,,,45,115
113280,note_on,480,0,8,,,,,,,,,7,,,67,0
113280,note_on,480,0,4,,,,,,,,,3,,,57,0
113325,note_on,45,0,11,,,,,,,,,11,,,45,0
113325,note_on,45,0,10,,,,,,,,,10,,,57,0
113340,note_on,15,0,11,,,,,,,,,11,,,45,115
113340,note_on,15,0,10,,,,,,,,,10,,,57,115
113385,note_on,45,0,11,,,,,,,,,11,,,45,0
113385,note_on,45,0,10,,,,,,,,,10,,,57,0
113400,note_on,0,0,3,,,,,,,,,2,,,49,127
113400,note_on,0,0,3,,,,,,,,,2,,,50,0
113400,note_on,120,0,3,,,,,,,,,2,,,54,0
113400,note_on,0,0,6,,,,,,,,,5,,,45,127
113400,note_on,120,0,5,,,,,,,,,4,,,69,0
113400,note_on,0,0,5,,,,,,,,,4,,,57,0
113400,note_on,0,0,5,,,,,,,,,4,,,57,127
113400,note_on,0,0,5,,,,,,,,,4,,,69,127
113400,note_on,120,0,4,,,,,,,,,3,,,57,0
113400,note_on,15,0,11,,,,,,,,,11,,,45,127
113400,note_on,0,0,3,,,,,,,,,2,,,52,127
113400,note_on,15,0,10,,,,,,,,,10,,,57,127
113400,note_on,0,0,4,,,,,,,,,3,,,45,0
113400,note_on,0,0,2,,,,,,,,,1,,,79,127
113400,note_on,0,0,4,,,,,,,,,3,,,45,127
113400,note_on,0,0,4,,,,,,,,,3,,,57,127
113400,note_on,120,0,1,,,,,,,,,0,,,86,0
113400,note_on,0,0,1,,,,,,,,,0,,,88,127
113400,note_on,120,0,7,,,,,,,,,6,,,86,0
113400,note_on,0,0,7,,,,,,,,,6,,,88,127
113400,note_on,120,0,2,,,,,,,,,1,,,74,0
113400,note_on,0,0,2,,,,,,,,,1,,,78,0
113400,note_on,120,0,9,,,,,,,,,8,,,62,0
113400,note_on,120,0,8,,,,,,,,,7,,,66,0
113400,note_on,0,0,8,,,,,,,,,7,,,64,127
113400,note_on,0,0,2,,,,,,,,,1,,,76,127
113400,note_on,0,0,9,,,,,,,,,8,,,61,127
113400,note_on,120,0,6,,,,,,,,,5,,,45,0
113445,note_on,45,0,10,,,,,,,,,10,,,57,0
113445,note_on,45,0,11,,,,,,,,,11,,,45,0
113460,note_on,15,0,10,,,,,,,,,10,,,57,127
113460,note_on,15,0,11,,,,,,,,,11,,,45,127
113505,note_on,45,0,10,,,,,,,,,10,,,57,0
113505,note_on,45,0,11,,,,,,,,,11,,,45,0
113520,note_on,15,0,10,,,,,,,,,10,,,57,127
113520,note_on,120,0,6,,,,,,,,,5,,,45,0
113520,note_on,15,0,11,,,,,,,,,11,,,45,127
113565,note_on,45,0,11,,,,,,,,,11,,,45,0
113565,note_on,45,0,10,,,,,,,,,10,,,57,0
113580,note_on,15,0,11,,,,,,,,,11,,,45,127
113580,note_on,15,0,10,,,,,,,,,10,,,57,127
113625,note_on,45,0,10,,,,,,,,,10,,,57,0
113625,note_on,45,0,11,,,,,,,,,11,,,45,0
113640,note_on,0,0,2,,,,,,,,,1,,,73,115
113640,note_on,0,0,2,,,,,,,,,1,,,76,0
113640,note_on,240,0,2,,,,,,,,,1,,,79,0
113640,note_on,0,0,1,,,,,,,,,0,,,85,115
113640,note_on,240,0,1,,,,,,,,,0,,,88,0
113640,note_on,0,0,2,,,,,,,,,1,,,76,115
113640,note_on,15,0,10,,,,,,,,,10,,,57,115
113640,note_on,0,0,3,,,,,,,,,2,,,52,115
113640,note_on,240,0,7,,,,,,,,,6,,,88,0
113640,note_on,0,0,7,,,,,,,,,6,,,85,115
113640,note_on,0,0,9,,,,,,,,,8,,,64,115
113640,note_on,240,0,9,,,,,,,,,8,,,61,0
113640,note_on,240,0,8,,,,,,,,,7,,,64,0
113640,note_on,0,0,8,,,,,,,,,7,,,67,115
113640,note_on,15,0,11,,,,,,,,,11,,,45,115
113640,note_on,0,0,3,,,,,,,,,2,,,55,115
113640,note_on,0,0,3,,,,,,,,,2,,,49,0
113640,note_on,240,0,3,,,,,,,,,2,,,52,0
113685,note_on,45,0,11,,,,,,,,,11,,,45,0
113685,note_on,45,0,10,,,,,,,,,10,,,57,0
113700,note_on,15,0,10,,,,,,,,,10,,,57,115
113700,note_on,15,0,11,,,,,,,,,11,,,45,115
113745,note_on,45,0,11,,,,,,,,,11,,,45,0
113745,note_on,45,0,10,,,,,,,,,10,,,57,0
113760,note_on,240,0,6,,,,,,,,,5,,,45,115
113760,note_on,0,0,5,,,,,,,,,4,,,57,0
113760,note_on,0,0,8,,,,,,,,,7,,,66,115
113760,note_on,120,0,8,,,,,,,,,7,,,67,0
113760,note_on,0,0,5,,,,,,,,,4,,,57,115
113760,note_on,0,0,5,,,,,,,,,4,,,69,115
113760,note_on,15,0,10,,,,,,,,,10,,,57,115
113760,note_on,0,0,1,,,,,,,,,0,,,86,115
113760,note_on,0,0,4,,,,,,,,,3,,,57,115
113760,note_on,0,0,4,,,,,,,,,3,,,45,115
113760,note_on,0,0,4,,,,,,,,,3,,,45,0
113760,note_on,360,0,4,,,,,,,,,3,,,57,0
113760,note_on,360,0,5,,,,,,,,,4,,,69,0
113760,note_on,120,0,1,,,,,,,,,0,,,85,0
113760,note_on,0,0,7,,,,,,,,,6,,,86,115
113760,note_on,120,0,7,,,,,,,,,6,,,85,0
113760,note_on,0,0,9,,,,,,,,,8,,,62,115
113760,note_on,120,0,9,,,,,,,,,8,,,64,0
113760,note_on,15,0,11,,,,,,,,,11,,,45,115
113760,note_on,120,0,3,,,,,,,,,2,,,52,0
113760,note_on,0,0,3,,,,,,,,,2,,,50,115
113760,note_on,0,0,3,,,,,,,,,2,,,54,115
113760,note_on,120,0,2,,,,,,,,,1,,,76,0
113760,note_on,0,0,2,,,,,,,,,1,,,73,0
113760,note_on,0,0,3,,,,,,,,,2,,,55,0
113760,note_on,0,0,2,,,,,,,,,1,,,74,115
113760,note_on,0,0,2,,,,,,,,,1,,,78,115
113805,note_on,45,0,10,,,,,,,,,10,,,57,0
113805,note_on,45,0,11,,,,,,,,,11,,,45,0
113820,note_on,15,0,10,,,,,,,,,10,,,57,115
113820,note_on,15,0,11,,,,,,,,,11,,,45,115
113865,note_on,45,0,11,,,,,,,,,11,,,45,0
113865,note_on,45,0,10,,,,,,,,,10,,,57,0
113880,note_on,0,0,4,,,,,,,,,3,,,45,127
113880,note_on,0,0,4,,,,,,,,,3,,,57,127
113880,note_on,0,0,5,,,,,,,,,4,,,57,0
113880,note_on,0,0,5,,,,,,,,,4,,,57,127
113880,note_on,0,0,9,,,,,,,,,8,,,61,127
113880,note_on,120,0,9,,,,,,,,,8,,,62,0
113880,note_on,0,0,5,,,,,,,,,4,,,69,127
113880,note_on,120,0,8,,,,,,,,,7,,,66,0
113880,note_on,15,0,10,,,,,,,,,10,,,57,127
113880,note_on,120,0,2,,,,,,,,,1,,,74,0
113880,note_on,0,0,3,,,,,,,,,2,,,49,127
113880,note_on,0,0,6,,,,,,,,,5,,,45,127
113880,note_on,0,0,8,,,,,,,,,7,,,64,127
113880,note_on,120,0,1,,,,,,,,,0,,,86,0
113880,note_on,0,0,1,,,,,,,,,0,,,88,127
113880,note_on,0,0,2,,,,,,,,,1,,,79,127
113880,note_on,0,0,4,,,,,,,,,3,,,45,0
113880,note_on,0,0,2,,,,,,,,,1,,,76,127
113880,note_on,0,0,2,,,,,,,,,1,,,78,0
113880,note_on,120,0,3,,,,,,,,,2,,,54,0
113880,note_on,0,0,3,,,,,,,,,2,,,50,0
113880,note_on,0,0,3,,,,,,,,,2,,,52,127
113880,note_on,120,0,6,,,,,,,,,5,,,45,0
113880,note_on,120,0,4,,,,,,,,,3,,,57,0
113880,note_on,120,0,5,,,,,,,,,4,,,69,0
113880,note_on,120,0,7,,,,,,,,,6,,,86,0
113880,note_on,0,0,7,,,,,,,,,6,,,88,127
113880,note_on,15,0,11,,,,,,,,,11,,,45,127
113925,note_on,45,0,10,,,,,,,,,10,,,57,0
113925,note_on,45,0,11,,,,,,,,,11,,,45,0
113940,note_on,15,0,10,,,,,,,,,10,,,57,127
113940,note_on,15,0,11,,,,,,,,,11,,,45,127
113985,note_on,45,0,10,,,,,,,,,10,,,57,0
113985,note_on,45,0,11,,,,,,,,,11,,,45,0
114000,note_on,15,0,10,,,,,,,,,10,,,57,127
114000,note_on,120,0,6,,,,,,,,,5,,,45,0
114000,note_on,15,0,11,,,,,,,,,11,,,45,127
114045,note_on,45,0,10,,,,,,,,,10,,,57,0
114045,note_on,45,0,11,,,,,,,,,11,,,45,0
114060,note_on,15,0,10,,,,,,,,,10,,,57,127
114060,note_on,15,0,11,,,,,,,,,11,,,45,127
114105,note_on,45,0,11,,,,,,,,,11,,,45,0
114105,note_on,45,0,10,,,,,,,,,10,,,57,0
114120,note_on,0,0,2,,,,,,,,,1,,,76,115
114120,note_on,0,0,2,,,,,,,,,1,,,73,115
114120,note_on,0,0,2,,,,,,,,,1,,,76,0
114120,note_on,240,0,2,,,,,,,,,1,,,79,0
114120,note_on,240,0,1,,,,,,,,,0,,,88,0
114120,note_on,0,0,1,,,,,,,,,0,,,85,115
114120,note_on,0,0,3,,,,,,,,,2,,,52,115
114120,note_on,0,0,3,,,,,,,,,2,,,55,115
114120,note_on,15,0,10,,,,,,,,,10,,,57,115
114120,note_on,0,0,3,,,,,,,,,2,,,52,0
114120,note_on,240,0,3,,,,,,,,,2,,,49,0
114120,note_on,15,0,11,,,,,,,,,11,,,45,115
114120,note_on,0,0,9,,,,,,,,,8,,,64,115
114120,note_on,240,0,9,,,,,,,,,8,,,61,0
114120,note_on,240,0,7,,,,,,,,,6,,,88,0
114120,note_on,0,0,7,,,,,,,,,6,,,85,115
114120,note_on,0,0,8,,,,,,,,,7,,,67,115
114120,note_on,240,0,8,,,,,,,,,7,,,64,0
114165,note_on,45,0,10,,,,,,,,,10,,,57,0
114165,note_on,45,0,11,,,,,,,,,11,,,45,0
114180,note_on,15,0,11,,,,,,,,,11,,,45,115
114180,note_on,15,0,10,,,,,,,,,10,,,57,115
114225,note_on,45,0,11,,,,,,,,,11,,,45,0
114225,note_on,45,0,10,,,,,,,,,10,,,57,0
114240,note_on,120,0,8,,,,,,,,,7,,,67,0
114240,note_on,120,0,1,,,,,,,,,0,,,85,0
114240,note_on,0,0,4,,,,,,,,,3,,,57,127
114240,note_on,0,0,4,,,,,,,,,3,,,45,127
114240,note_on,0,0,4,,,,,,,,,3,,,45,0
114240,note_on,360,0,4,,,,,,,,,3,,,57,0
114240,note_on,15,0,10,,,,,,,,,10,,,57,127
114240,note_on,15,0,11,,,,,,,,,11,,,45,127
114240,note_on,120,0,3,,,,,,,,,2,,,52,0
114240,note_on,0,0,3,,,,,,,,,2,,,55,0
114240,note_on,0,0,3,,,,,,,,,2,,,50,127
114240,note_on,0,0,1,,,,,,,,,0,,,86,127
114240,note_on,0,0,9,,,,,,,,,8,,,62,127
114240,note_on,0,0,3,,,,,,,,,2,,,54,127
114240,note_on,0,0,7,,,,,,,,,6,,,86,115
114240,note_on,240,0,6,,,,,,,,,5,,,45,127
114240,note_on,0,0,8,,,,,,,,,7,,,66,127
114240,note_on,0,0,2,,,,,,,,,1,,,74,127
114240,note_on,0,0,2,,,,,,,,,1,,,78,127
114240,note_on,0,0,2,,,,,,,,,1,,,73,0
114240,note_on,120,0,2,,,,,,,,,1,,,76,0
114240,note_on,120,0,9,,,,,,,,,8,,,64,0
114240,note_on,0,0,5,,,,,,,,,4,,,69,127
114240,note_on,0,0,5,,,,,,,,,4,,,57,127
114240,note_on,360,0,5,,,,,,,,,4,,,69,0
114240,note_on,120,0,7,,,,,,,,,6,,,85,0
114240,note_on,0,0,5,,,,,,,,,4,,,57,0
114285,note_on,45,0,10,,,,,,,,,10,,,57,0
114285,note_on,45,0,11,,,,,,,,,11,,,45,0
114300,note_on,15,0,10,,,,,,,,,10,,,57,124
114300,note_on,15,0,11,,,,,,,,,11,,,45,124
114345,note_on,45,0,10,,,,,,,,,10,,,57,0
114345,note_on,45,0,11,,,,,,,,,11,,,45,0
114360,note_on,0,0,4,,,,,,,,,3,,,45,121
114360,note_on,15,0,10,,,,,,,,,10,,,57,121
114360,note_on,0,0,5,,,,,,,,,4,,,57,121
114360,note_on,120,0,8,,,,,,,,,7,,,66,0
114360,note_on,0,0,8,,,,,,,,,7,,,64,121
114360,note_on,0,0,5,,,,,,,,,4,,,57,0
114360,note_on,120,0,5,,,,,,,,,4,,,69,0
114360,note_on,0,0,4,,,,,,,,,3,,,57,121
114360,note_on,0,0,3,,,,,,,,,2,,,52,121
114360,note_on,0,0,3,,,,,,,,,2,,,49,121
114360,note_on,0,0,3,,,,,,,,,2,,,50,0
114360,note_on,120,0,3,,,,,,,,,2,,,54,0
114360,note_on,120,0,6,,,,,,,,,5,,,45,0
114360,note_on,120,0,9,,,,,,,,,8,,,62,0
114360,note_on,0,0,9,,,,,,,,,8,,,61,121
114360,note_on,0,0,5,,,,,,,,,4,,,69,121
114360,note_on,0,0,2,,,,,,,,,1,,,79,121
114360,note_on,15,0,11,,,,,,,,,11,,,45,121
114360,note_on,0,0,1,,,,,,,,,0,,,88,121
114360,note_on,120,0,1,,,,,,,,,0,,,86,0
114360,note_on,0,0,4,,,,,,,,,3,,,45,0
114360,note_on,120,0,4,,,,,,,,,3,,,57,0
114360,note_on,0,0,2,,,,,,,,,1,,,76,121
114360,note_on,120,0,7,,,,,,,,,6,,,86,0
114360,note_on,0,0,7,,,,,,,,,6,,,88,115
114360,note_on,120,0,2,,,,,,,,,1,,,74,0
114360,note_on,0,0,2,,,,,,,,,1,,,78,0
114405,note_on,45,0,10,,,,,,,,,10,,,57,0
114405,note_on,45,0,11,,,,,,,,,11,,,45,0
114420,note_on,15,0,10,,,,,,,,,10,,,57,117
114420,note_on,15,0,11,,,,,,,,,11,,,45,117
114465,note_on,45,0,11,,,,,,,,,11,,,45,0
114465,note_on,45,0,10,,,,,,,,,10,,,57,0
114480,note_on,0,0,9,,,,,,,,,8,,,73,114
114480,note_on,120,0,9,,,,,,,,,8,,,61,0
114480,note_on,120,0,3,,,,,,,,,2,,,52,0
114480,note_on,0,0,5,,,,,,,,,4,,,57,0
114480,note_on,0,0,5,,,,,,,,,4,,,66,114
114480,note_on,0,0,3,,,,,,,,,2,,,58,114
114480,note_on,0,0,3,,,,,,,,,2,,,49,0
114480,note_on,0,0,2,,,,,,,,,1,,,76,114
114480,note_on,0,0,2,,,,,,,,,1,,,73,114
114480,note_on,0,0,2,,,,,,,,,1,,,79,0
114480,note_on,120,0,2,,,,,,,,,1,,,76,0
114480,note_on,0,0,8,,,,,,,,,7,,,76,114
114480,note_on,0,0,8,,,,,,,,,7,,,78,114
114480,note_on,120,0,8,,,,,,,,,7,,,64,0
114480,note_on,120,0,1,,,,,,,,,0,,,85,114
114480,note_on,120,0,5,,,,,,,,,4,,,69,0
114480,note_on,0,0,5,,,,,,,,,4,,,78,114
114480,note_on,15,0,10,,,,,,,,,10,,,58,114
114480,note_on,15,0,11,,,,,,,,,11,,,46,114
114480,note_on,120,0,4,,,,,,,,,3,,,57,0
114480,note_on,0,0,4,,,,,,,,,3,,,66,114
114480,note_on,0,0,4,,,,,,,,,3,,,54,114
114480,note_on,0,0,4,,,,,,,,,3,,,45,0
114510,note_on,30,0,8,,,,,,,,,7,,,76,0
114510,note_on,0,0,8,,,,,,,,,7,,,78,112
114510,note_on,0,0,8,,,,,,,,,7,,,78,0
114510,note_on,0,0,8,,,,,,,,,7,,,76,112
114525,note_on,45,0,9,,,,,,,,,8,,,73,0
114525,note_on,45,0,11,,,,,,,,,11,,,46,0
114525,note_on,45,0,10,,,,,,,,,10,,,58,0
114525,note_on,45,0,3,,,,,,,,,2,,,58,0
114540,note_on,30,0,8,,,,,,,,,7,,,76,0
114540,note_on,0,0,8,,,,,,,,,7,,,78,0
114540,note_on,15,0,3,,,,,,,,,2,,,58,111
114540,note_on,0,0,8,,,,,,,,,7,,,76,111
114540,note_on,15,0,10,,,,,,,,,10,,,58,111
114540,note_on,15,0,11,,,,,,,,,11,,,46,111
114540,note_on,15,0,9,,,,,,,,,8,,,73,111
114540,note_on,0,0,8,,,,,,,,,7,,,78,111
114570,note_on,0,0,8,,,,,,,,,7,,,78,109
114570,note_on,0,0,8,,,,,,,,,7,,,76,109
114570,note_on,0,0,8,,,,,,,,,7,,,78,0
114570,note_on,30,0,8,,,,,,,,,7,,,76,0
114585,note_on,45,0,10,,,,,,,,,10,,,58,0
114585,note_on,45,0,9,,,,,,,,,8,,,73,0
114585,note_on,45,0,11,,,,,,,,,11,,,46,0
114585,note_on,45,0,3,,,,,,,,,2,,,58,0
114600,note_on,0,0,8,,,,,,,,,7,,,78,0
114600,note_on,30,0,8,,,,,,,,,7,,,76,0
114600,note_on,15,0,11,,,,,,,,,11,,,46,107
114600,note_on,0,0,4,,,,,,,,,3,,,54,107
114600,note_on,240,0,7,,,,,,,,,6,,,88,0
114600,note_on,0,0,7,,,,,,,,,6,,,85,115
114600,note_on,0,0,8,,,,,,,,,7,,,78,107
114600,note_on,15,0,3,,,,,,,,,2,,,58,107
114600,note_on,15,0,9,,,,,,,,,8,,,73,107
114600,note_on,0,0,5,,,,,,,,,4,,,66,0
114600,note_on,0,0,5,,,,,,,,,4,,,66,107
114600,note_on,0,0,5,,,,,,,,,4,,,78,107
114600,note_on,120,0,4,,,,,,,,,3,,,66,0
114600,note_on,0,0,4,,,,,,,,,3,,,54,0
114600,note_on,120,0,5,,,,,,,,,4,,,78,0
114600,note_on,0,0,8,,,,,,,,,7,,,76,107
114600,note_on,0,0,4,,,,,,,,,3,,,66,107
114600,note_on,15,0,10,,,,,,,,,10,,,58,107
114615,note_on,0,0,7,,,,,,,,,6,,,83,115
114615,note_on,15,0,7,,,,,,,,,6,,,85,0
114630,note_on,0,0,8,,,,,,,,,7,,,78,106
114630,note_on,0,0,8,,,,,,,,,7,,,78,0
114630,note_on,30,0,8,,,,,,,,,7,,,76,0
114630,note_on,0,0,8,,,,,,,,,7,,,76,106
114630,note_on,0,0,7,,,,,,,,,6,,,85,115
114630,note_on,15,0,7,,,,,,,,,6,,,83,0
114645,note_on,45,0,9,,,,,,,,,8,,,73,0
114645,note_on,45,0,3,,,,,,,,,2,,,58,0
114645,note_on,0,0,7,,,,,,,,,6,,,83,115
114645,note_on,15,0,7,,,,,,,,,6,,,85,0
114645,note_on,45,0,11,,,,,,,,,11,,,46,0
114645,note_on,45,0,10,,,,,,,,,10,,,58,0
114660,note_on,0,0,8,,,,,,,,,7,,,78,104
114660,note_on,0,0,8,,,,,,,,,7,,,76,104
114660,note_on,15,0,11,,,,,,,,,11,,,46,104
114660,note_on,15,0,3,,,,,,,,,2,,,58,104
114660,note_on,30,0,8,,,,,,,,,7,,,76,0
114660,note_on,15,0,10,,,,,,,,,10,,,58,104
114660,note_on,15,0,9,,,,,,,,,8,,,73,104
114660,note_on,0,0,8,,,,,,,,,7,,,78,0
114660,note_on,15,0,7,,,,,,,,,6,,,83,0
114660,note_on,0,0,7,,,,,,,,,6,,,83,115
114675,note_on,15,0,7,,,,,,,,,6,,,83,0
114690,note_on,0,0,8,,,,,,,,,7,,,78,0
114690,note_on,0,0,8,,,,,,,,,7,,,76,102
114690,note_on,0,0,5,,,,,,,,,4,,,66,0
114690,note_on,0,0,4,,,,,,,,,3,,,66,102
114690,note_on,0,0,4,,,,,,,,,3,,,54,0
114690,note_on,0,0,4,,,,,,,,,3,,,54,102
114690,note_on,30,0,8,,,,,,,,,7,,,76,0
114690,note_on,15,0,7,,,,,,,,,6,,,85,115
114690,note_on,0,0,5,,,,,,,,,4,,,66,102
114690,note_on,0,0,5,,,,,,,,,4,,,78,102
114690,note_on,90,0,4,,,,,,,,,3,,,66,0
114690,note_on,90,0,5,,,,,,,,,4,,,78,0
114690,note_on,0,0,8,,,,,,,,,7,,,78,102
114705,note_on,45,0,10,,,,,,,,,10,,,58,0
114705,note_on,45,0,11,,,,,,,,,11,,,46,0
114705,note_on,45,0,3,,,,,,,,,2,,,58,0
114705,note_on,45,0,9,,,,,,,,,8,,,73,0
114720,note_on,0,0,4,,,,,,,,,3,,,66,100
114720,note_on,30,0,4,,,,,,,,,3,,,66,0
114720,note_on,0,0,4,,,,,,,,,3,,,54,100
114720,note_on,0,0,4,,,,,,,,,3,,,54,0
114720,note_on,0,0,5,,,,,,,,,4,,,66,100
114720,note_on,0,0,5,,,,,,,,,4,,,78,0
114720,note_on,15,0,3,,,,,,,,,2,,,59,100
114720,note_on,0,0,5,,,,,,,,,4,,,78,100
114720,note_on,0,0,7,,,,,,,,,6,,,86,100
114720,note_on,240,0,1,,,,,,,,,0,,,85,0
114720,note_on,240,0,2,,,,,,,,,1,,,76,0
114720,note_on,15,0,10,,,,,,,,,10,,,59,100
114720,note_on,30,0,8,,,,,,,,,7,,,76,0
114720,note_on,0,0,8,,,,,,,,,7,,,78,0
114720,note_on,0,0,8,,,,,,,,,7,,,74,100
114720,note_on,0,0,8,,,,,,,,,7,,,78,100
114720,note_on,15,0,11,,,,,,,,,11,,,47,100
114720,note_on,30,0,7,,,,,,,,,6,,,85,0
114720,note_on,30,0,5,,,,,,,,,4,,,66,0
114720,note_on,0,0,2,,,,,,,,,1,,,71,100
114720,note_on,0,0,1,,,,,,,,,0,,,88,0
114720,note_on,0,0,2,,,,,,,,,1,,,74,100
114720,note_on,15,0,9,,,,,,,,,8,,,71,100
114720,note_on,0,0,2,,,,,,,,,1,,,73,0
114720,note_on,0,0,1,,,,,,,,,0,,,86,100
114720,note_on,0,0,1,,,,,,,,,0,,,83,100
114750,note_on,0,0,8,,,,,,,,,7,,,78,100
114750,note_on,0,0,8,,,,,,,,,7,,,74,0
114750,note_on,30,0,8,,,,,,,,,7,,,78,0
114750,note_on,0,0,8,,,,,,,,,7,,,74,100
114765,note_on,45,0,9,,,,,,,,,8,,,71,0
114765,note_on,45,0,3,,,,,,,,,2,,,59,0
114765,note_on,45,0,10,,,,,,,,,10,,,59,0
114765,note_on,45,0,11,,,,,,,,,11,,,47,0
114780,note_on,60,0,7,,,,,,,,,6,,,86,0
114780,note_on,15,0,3,,,,,,,,,2,,,59,100
114780,note_on,0,0,8,,,,,,,,,7,,,74,100
114780,note_on,15,0,9,,,,,,,,,8,,,71,100
114780,note_on,0,0,8,,,,,,,,,7,,,78,100
114780,note_on,15,0,10,,,,,,,,,10,,,59,100
114780,note_on,30,0,8,,,,,,,,,7,,,78,0
114780,note_on,0,0,8,,,,,,,,,7,,,74,0
114780,note_on,15,0,11,,,,,,,,,11,,,47,100
114810,note_on,0,0,8,,,,,,,,,7,,,74,100
114810,note_on,0,0,8,,,,,,,,,7,,,74,0
114810,note_on,30,0,8,,,,,,,,,7,,,78,0
114810,note_on,0,0,8,,,,,,,,,7,,,78,100
114825,note_on,45,0,9,,,,,,,,,8,,,71,0
114825,note_on,45,0,10,,,,,,,,,10,,,59,0
114825,note_on,45,0,3,,,,,,,,,2,,,59,0
114825,note_on,45,0,11,,,,,,,,,11,,,47,0
114840,note_on,15,0,10,,,,,,,,,10,,,56,100
114840,note_on,15,0,3,,,,,,,,,2,,,56,100
114840,note_on,0,0,8,,,,,,,,,7,,,74,100
114840,note_on,15,0,9,,,,,,,,,8,,,71,100
114840,note_on,0,0,8,,,,,,,,,7,,,76,100
114840,note_on,0,0,8,,,,,,,,,7,,,74,0
114840,note_on,15,0,11,,,,,,,,,11,,,44,100
114840,note_on,60,0,7,,,,,,,,,6,,,83,100
114840,note_on,120,0,4,,,,,,,,,3,,,66,0
114840,note_on,0,0,4,,,,,,,,,3,,,54,0
114840,note_on,0,0,4,,,,,,,,,3,,,62,100
114840,note_on,0,0,4,,,,,,,,,3,,,64,100
114840,note_on,0,0,5,,,,,,,,,4,,,76,100
114840,note_on,120,0,5,,,,,,,,,4,,,66,0
114840,note_on,0,0,5,,,,,,,,,4,,,74,100
114840,note_on,0,0,5,,,,,,,,,4,,,78,0
114840,note_on,30,0,8,,,,,,,,,7,,,78,0
114855,note_on,0,0,7,,,,,,,,,6,,,81,100
114855,note_on,15,0,7,,,,,,,,,6,,,83,0
114870,note_on,0,0,7,,,,,,,,,6,,,83,100
114870,note_on,0,0,8,,,,,,,,,7,,,74,100
114870,note_on,30,0,8,,,,,,,,,7,,,74,0
114870,note_on,0,0,8,,,,,,,,,7,,,76,0
114870,note_on,15,0,7,,,,,,,,,6,,,81,0
114870,note_on,0,0,8,,,,,,,,,7,,,76,100
114885,note_on,45,0,3,,,,,,,,,2,,,56,0
114885,note_on,45,0,9,,,,,,,,,8,,,71,0
114885,note_on,45,0,11,,,,,,,,,11,,,44,0
114885,note_on,45,0,10,,,,,,,,,10,,,56,0
114885,note_on,0,0,7,,,,,,,,,6,,,81,100
114885,note_on,15,0,7,,,,,,,,,6,,,83,0
114900,note_on,30,0,8,,,,,,,,,7,,,74,0
114900,note_on,0,0,8,,,,,,,,,7,,,76,0
114900,note_on,0,0,8,,,,,,,,,7,,,76,100
114900,note_on,0,0,8,,,,,,,,,7,,,74,100
114900,note_on,15,0,11,,,,,,,,,11,,,44,100
114900,note_on,15,0,7,,,,,,,,,6,,,81,0
114900,note_on,0,0,7,,,,,,,,,6,,,81,100
114900,note_on,15,0,3,,,,,,,,,2,,,56,100
114900,note_on,15,0,9,,,,,,,,,8,,,71,100
114900,note_on,15,0,10,,,,,,,,,10,,,56,100
114930,note_on,30,0,7,,,,,,,,,6,,,81,0
114930,note_on,0,0,7,,,,,,,,,6,,,83,100
114930,note_on,0,0,8,,,,,,,,,7,,,74,100
114930,note_on,0,0,8,,,,,,,,,7,,,76,100
114930,note_on,0,0,8,,,,,,,,,7,,,76,0
114930,note_on,30,0,8,,,,,,,,,7,,,74,0
114945,note_on,45,0,10,,,,,,,,,10,,,56,0
114945,note_on,45,0,9,,,,,,,,,8,,,71,0
114945,note_on,45,0,3,,,,,,,,,2,,,56,0
114945,note_on,45,0,11,,,,,,,,,11,,,44,0
114960,note_on,240,0,2,,,,,,,,,1,,,74,0
114960,note_on,0,0,2,,,,,,,,,1,,,73,100
114960,note_on,0,0,2,,,,,,,,,1,,,69,100
114960,note_on,0,0,2,,,,,,,,,1,,,71,0
114960,note_on,15,0,11,,,,,,,,,11,,,45,100
114960,note_on,0,0,8,,,,,,,,,7,,,73,100
114960,note_on,0,0,5,,,,,,,,,4,,,69,100
114960,note_on,15,0,3,,,,,,,,,2,,,57,100
114960,note_on,120,0,4,,,,,,,,,3,,,64,0
114960,note_on,120,0,5,,,,,,,,,4,,,76,0
114960,note_on,0,0,5,,,,,,,,,4,,,74,0
114960,note_on,0,0,5,,,,,,,,,4,,,76,100
114960,note_on,0,0,8,,,,,,,,,7,,,76,100
114960,note_on,0,0,7,,,,,,,,,6,,,85,100
114960,note_on,30,0,7,,,,,,,,,6,,,83,0
114960,note_on,0,0,4,,,,,,,,,3,,,62,0
114960,note_on,240,0,1,,,,,,,,,0,,,83,0
114960,note_on,0,0,1,,,,,,,,,0,,,81,100
114960,note_on,0,0,1,,,,,,,,,0,,,85,100
114960,note_on,30,0,8,,,,,,,,,7,,,74,0
114960,note_on,0,0,8,,,,,,,,,7,,,76,0
114960,note_on,0,0,4,,,,,,,,,3,,,64,100
114960,note_on,15,0,9,,,,,,,,,8,,,69,100
114960,note_on,15,0,10,,,,,,,,,10,,,57,100
114960,note_on,0,0,1,,,,,,,,,0,,,86,0
114960,note_on,0,0,4,,,,,,,,,3,,,57,100
114990,note_on,30,0,8,,,,,,,,,7,,,73,0
114990,note_on,0,0,8,,,,,,,,,7,,,76,100
114990,note_on,0,0,8,,,,,,,,,7,,,76,0
114990,note_on,0,0,8,,,,,,,,,7,,,73,100
115005,note_on,45,0,3,,,,,,,,,2,,,57,0
115005,note_on,45,0,11,,,,,,,,,11,,,45,0
115005,note_on,45,0,7,,,,,,,,,6,,,85,0
115005,note_on,45,0,9,,,,,,,,,8,,,69,0
115005,note_on,45,0,10,,,,,,,,,10,,,57,0
115020,note_on,15,0,11,,,,,,,,,11,,,45,100
115020,note_on,15,0,9,,,,,,,,,8,,,69,100
115020,note_on,30,0,8,,,,,,,,,7,,,73,0
115020,note_on,0,0,8,,,,,,,,,7,,,76,0
115020,note_on,0,0,8,,,,,,,,,7,,,73,100
115020,note_on,0,0,8,,,,,,,,,7,,,76,100
115020,note_on,15,0,10,,,,,,,,,10,,,57,100
115020,note_on,15,0,3,,,,,,,,,2,,,57,100
115050,note_on,30,0,8,,,,,,,,,7,,,73,0
115050,note_on,0,0,8,,,,,,,,,7,,,76,100
115050,note_on,0,0,8,,,,,,,,,7,,,73,100
115050,note_on,0,0,8,,,,,,,,,7,,,76,0
115065,note_on,45,0,3,,,,,,,,,2,,,57,0
115065,note_on,45,0,9,,,,,,,,,8,,,69,0
115065,note_on,45,0,10,,,,,,,,,10,,,57,0
115065,note_on,45,0,11,,,,,,,,,11,,,45,0
115080,note_on,15,0,10,,,,,,,,,10,,,54,100
115080,note_on,0,0,4,,,,,,,,,3,,,54,100
115080,note_on,0,0,4,,,,,,,,,3,,,66,100
115080,note_on,0,0,4,,,,,,,,,3,,,57,0
115080,note_on,75,0,7,,,,,,,,,6,,,81,100
115080,note_on,15,0,3,,,,,,,,,2,,,54,100
115080,note_on,0,0,8,,,,,,,,,7,,,81,100
115080,note_on,120,0,5,,,,,,,,,4,,,76,0
115080,note_on,0,0,5,,,,,,,,,4,,,69,0
115080,note_on,0,0,5,,,,,,,,,4,,,66,100
115080,note_on,0,0,5,,,,,,,,,4,,,78,100
115080,note_on,30,0,8,,,,,,,,,7,,,73,0
115080,note_on,0,0,8,,,,,,,,,7,,,76,0
115080,note_on,0,0,8,,,,,,,,,7,,,73,100
115080,note_on,15,0,11,,,,,,,,,11,,,42,100
115080,note_on,120,0,4,,,,,,,,,3,,,64,0
115080,note_on,15,0,9,,,,,,,,,8,,,66,100
115110,note_on,0,0,8,,,,,,,,,7,,,81,100
115110,note_on,0,0,8,,,,,,,,,7,,,73,100
115110,note_on,0,0,8,,,,,,,,,7,,,73,0
115110,note_on,30,0,8,,,,,,,,,7,,,81,0
115125,note_on,45,0,11,,,,,,,,,11,,,42,0
115125,note_on,45,0,7,,,,,,,,,6,,,81,0
115125,note_on,45,0,3,,,,,,,,,2,,,54,0
115125,note_on,45,0,9,,,,,,,,,8,,,66,0
115125,note_on,45,0,10,,,,,,,,,10,,,54,0
115140,note_on,30,0,8,,,,,,,,,7,,,81,0
115140,note_on,15,0,11,,,,,,,,,11,,,42,100
115140,note_on,15,0,3,,,,,,,,,2,,,54,100
115140,note_on,15,0,10,,,,,,,,,10,,,54,100
115140,note_on,0,0,8,,,,,,,,,7,,,73,0
115140,note_on,15,0,9,,,,,,,,,8,,,66,100
115140,note_on,0,0,8,,,,,,,,,7,,,81,100
115140,note_on,0,0,8,,,,,,,,,7,,,73,100
115170,note_on,0,0,8,,,,,,,,,7,,,73,100
115170,note_on,30,0,8,,,,,,,,,7,,,81,0
115170,note_on,0,0,8,,,,,,,,,7,,,73,0
115170,note_on,0,0,8,,,,,,,,,7,,,81,100
115185,note_on,45,0,11,,,,,,,,,11,,,42,0
115185,note_on,45,0,3,,,,,,,,,2,,,54,0
115185,note_on,45,0,10,,,,,,,,,10,,,54,0
115185,note_on,45,0,9,,,,,,,,,8,,,66,0
115200,note_on,15,0,10,,,,,,,,,10,,,50,100
115200,note_on,0,0,1,,,,,,,,,0,,,86,100
115200,note_on,0,0,1,,,,,,,,,0,,,81,0
115200,note_on,30,0,8,,,,,,,,,7,,,81,0
115200,note_on,240,0,2,,,,,,,,,1,,,73,0
115200,note_on,0,0,2,,,,,,,,,1,,,69,0
115200,note_on,0,0,2,,,,,,,,,1,,,74,100
115200,note_on,0,0,8,,,,,,,,,7,,,73,0
115200,note_on,0,0,2,,,,,,,,,1,,,71,100
115200,note_on,75,0,7,,,,,,,,,6,,,66,100
115200,note_on,0,0,8,,,,,,,,,7,,,74,100
115200,note_on,0,0,7,,,,,,,,,6,,,83,100
115200,note_on,15,0,11,,,,,,,,,11,,,38,100
115200,note_on,15,0,9,,,,,,,,,8,,,62,100
115200,note_on,0,0,5,,,,,,,,,4,,,78,100
115200,note_on,0,0,5,,,,,,,,,4,,,74,100
115200,note_on,0,0,5,,,,,,,,,4,,,66,0
115200,note_on,240,0,1,,,,,,,,,0,,,85,0
115200,note_on,120,0,4,,,,,,,,,3,,,54,0
115200,note_on,120,0,5,,,,,,,,,4,,,78,0
115200,note_on,0,0,4,,,,,,,,,3,,,66,100
115200,note_on,0,0,4,,,,,,,,,3,,,62,100
115200,note_on,15,0,3,,,,,,,,,2,,,50,100
115200,note_on,0,0,7,,,,,,,,,6,,,74,100
115200,note_on,0,0,8,,,,,,,,,7,,,78,100
115200,note_on,0,0,4,,,,,,,,,3,,,66,0
115200,note_on,0,0,1,,,,,,,,,0,,,83,100
115245,note_on,45,0,3,,,,,,,,,2,,,50,0
115245,note_on,45,0,9,,,,,,,,,8,,,62,0
115245,note_on,45,0,11,,,,,,,,,11,,,38,0
115245,note_on,45,0,10,,,,,,,,,10,,,50,0
115260,note_on,15,0,9,,,,,,,,,8,,,62,100
115260,note_on,15,0,3,,,,,,,,,2,,,50,100
115260,note_on,15,0,11,,,,,,,,,11,,,38,100
115260,note_on,15,0,10,,,,,,,,,10,,,50,100
115305,note_on,45,0,11,,,,,,,,,11,,,38,0
115305,note_on,45,0,9,,,,,,,,,8,,,62,0
115305,note_on,45,0,3,,,,,,,,,2,,,50,0
115305,note_on,45,0,10,,,,,,,,,10,,,50,0
115320,note_on,0,0,7,,,,,,,,,6,,,66,0
115320,note_on,0,0,7,,,,,,,,,6,,,74,0
115320,note_on,120,0,7,,,,,,,,,6,,,83,0
115320,note_on,15,0,11,,,,,,,,,11,,,38,100
115320,note_on,15,0,9,,,,,,,,,8,,,62,100
115320,note_on,0,0,5,,,,,,,,,4,,,74,0
115320,note_on,120,0,5,,,,,,,,,4,,,78,0
115320,note_on,120,0,4,,,,,,,,,3,,,62,0
115320,note_on,0,0,4,,,,,,,,,3,,,66,0
115320,note_on,120,0,1,,,,,,,,,0,,,83,0
115320,note_on,0,0,1,,,,,,,,,0,,,86,0
115320,note_on,0,0,8,,,,,,,,,7,,,78,0
115320,note_on,120,0,2,,,,,,,,,1,,,71,0
115320,note_on,0,0,2,,,,,,,,,1,,,74,0
115320,note_on,15,0,3,,,,,,,,,2,,,50,100
115320,note_on,120,0,8,,,,,,,,,7,,,74,0
115320,note_on,15,0,10,,,,,,,,,10,,,50,100
115365,note_on,45,0,11,,,,,,,,,11,,,38,0
115365,note_on,45,0,9,,,,,,,,,8,,,62,0
115365,note_on,45,0,10,,,,,,,,,10,,,50,0
115365,note_on,45,0,3,,,,,,,,,2,,,50,0
115380,note_on,15,0,11,,,,,,,,,11,,,38,100
115380,note_on,15,0,3,,,,,,,,,2,,,50,100
115380,note_on,15,0,10,,,,,,,,,10,,,50,100
115380,note_on,15,0,9,,,,,,,,,8,,,62,100
115425,note_on,45,0,9,,,,,,,,,8,,,62,0
115425,note_on,45,0,11,,,,,,,,,11,,,38,0
115425,note_on,45,0,3,,,,,,,,,2,,,50,0
115425,note_on,45,0,10,,,,,,,,,10,,,50,0
115440,note_on,15,0,9,,,,,,,,,8,,,64,100
115440,note_on,120,0,5,,,,,,,,,4,,,76,100
115440,note_on,120,0,8,,,,,,,,,7,,,64,100
115440,note_on,0,0,8,,,,,,,,,7,,,80,100
115440,note_on,0,0,8,,,,,,,,,7,,,71,100
115440,note_on,15,0,11,,,,,,,,,11,,,40,100
115440,note_on,15,0,10,,,,,,,,,10,,,52,100
115440,note_on,120,0,4,,,,,,,,,3,,,64,100
115440,note_on,120,0,1,,,,,,,,,0,,,80,100
115440,note_on,120,0,7,,,,,,,,,6,,,64,100
115440,note_on,0,0,1,,,,,,,,,0,,,83,100
115440,note_on,15,0,3,,,,,,,,,2,,,52,100
115440,note_on,0,0,7,,,,,,,,,6,,,71,100
115440,note_on,120,0,2,,,,,,,,,1,,,68,100
115440,note_on,0,0,7,,,,,,,,,6,,,80,100
115440,note_on,0,0,2,,,,,,,,,1,,,71,100
115485,note_on,45,0,9,,,,,,,,,8,,,64,0
115485,note_on,45,0,11,,,,,,,,,11,,,40,0
115485,note_on,45,0,3,,,,,,,,,2,,,52,0
115485,note_on,45,0,10,,,,,,,,,10,,,52,0
115500,note_on,15,0,9,,,,,,,,,8,,,64,100
115500,note_on,15,0,3,,,,,,,,,2,,,52,100
115500,note_on,15,0,10,,,,,,,,,10,,,52,100
115500,note_on,15,0,11,,,,,,,,,11,,,40,100
115545,note_on,45,0,10,,,,,,,,,10,,,52,0
115545,note_on,45,0,9,,,,,,,,,8,,,64,0
115545,note_on,45,0,11,,,,,,,,,11,,,40,0
115545,note_on,45,0,3,,,,,,,,,2,,,52,0
115560,note_on,120,0,8,,,,,,,,,7,,,80,0
115560,note_on,120,0,1,,,,,,,,,0,,,83,0
115560,note_on,15,0,9,,,,,,,,,8,,,64,100
115560,note_on,15,0,3,,,,,,,,,2,,,52,100
115560,note_on,0,0,8,,,,,,,,,7,,,71,0
115560,note_on,120,0,2,,,,,,,,,1,,,71,0
115560,note_on,0,0,2,,,,,,,,,1,,,68,0
115560,note_on,120,0,4,,,,,,,,,3,,,64,0
115560,note_on,120,0,5,,,,,,,,,4,,,76,0
115560,note_on,15,0,11,,,,,,,,,11,,,40,100
115560,note_on,0,0,1,,,,,,,,,0,,,80,0
115560,note_on,0,0,8,,,,,,,,,7,,,64,0
115560,note_on,120,0,7,,,,,,,,,6,,,80,0
115560,note_on,15,0,10,,,,,,,,,10,,,52,100
115560,note_on,0,0,7,,,,,,,,,6,,,71,0
115560,note_on,0,0,7,,,,,,,,,6,,,64,0
115605,note_on,45,0,9,,,,,,,,,8,,,64,0
115605,note_on,45,0,10,,,,,,,,,10,,,52,0
115605,note_on,45,0,3,,,,,,,,,2,,,52,0
115605,note_on,45,0,11,,,,,,,,,11,,,40,0
115620,note_on,15,0,10,,,,,,,,,10,,,52,100
115620,note_on,15,0,9,,,,,,,,,8,,,64,100
115620,note_on,15,0,3,,,,,,,,,2,,,52,100
115620,note_on,15,0,11,,,,,,,,,11,,,40,100
115665,note_on,45,0,9,,,,,,,,,8,,,64,0
115665,note_on,45,0,11,,,,,,,,,11,,,40,0
115665,note_on,45,0,10,,,,,,,,,10,,,52,0
115665,note_on,45,0,3,,,,,,,,,2,,,52,0
115680,note_on,15,0,9,,,,,,,,,8,,,57,100
115680,note_on,1320,0,6,,,,,,,,,5,,,45,100
115680,note_on,120,0,5,,,,,,,,,4,,,69,100
115680,note_on,0,0,5,,,,,,,,,4,,,76,100
115680,note_on,120,0,4,,,,,,,,,3,,,57,100
115680,note_on,120,0,2,,,,,,,,,1,,,69,100
115680,note_on,120,0,7,,,,,,,,,6,,,81,100
115680,note_on,15,0,3,,,,,,,,,2,,,45,100
115680,note_on,15,0,10,,,,,,,,,10,,,45,100
115680,note_on,120,0,8,,,,,,,,,7,,,81,100
115680,note_on,15,0,11,,,,,,,,,11,,,33,100
115680,note_on,0,0,4,,,,,,,,,3,,,64,100
115680,note_on,120,0,1,,,,,,,,,0,,,81,100
115740,note_on,0,0,8,,,,,,,,,7,,,85,100
115740,note_on,0,0,7,,,,,,,,,6,,,85,100
115740,note_on,60,0,7,,,,,,,,,6,,,81,0
115740,note_on,60,0,8,,,,,,,,,7,,,81,0
115770,note_on,0,0,8,,,,,,,,,7,,,81,100
115770,note_on,0,0,7,,,,,,,,,6,,,81,100
115770,note_on,30,0,7,,,,,,,,,6,,,85,0
115770,note_on,30,0,8,,,,,,,,,7,,,85,0
115800,note_on,120,0,6,,,,,,,,,5,,,45,0
115800,note_on,120,0,2,,,,,,,,,1,,,69,0
115800,note_on,120,0,3,,,,,,,,,2,,,45,0
115800,note_on,0,0,7,,,,,,,,,6,,,76,100
115800,note_on,30,0,7,,,,,,,,,6,,,81,0
115800,note_on,120,0,4,,,,,,,,,3,,,64,0
115800,note_on,0,0,4,,,,,,,,,3,,,57,0
115800,note_on,120,0,5,,,,,,,,,4,,,76,0
115800,note_on,0,0,5,,,,,,,,,4,,,69,0
115800,note_on,120,0,1,,,,,,,,,0,,,81,0
115800,note_on,120,0,10,,,,,,,,,10,,,45,0
115800,note_on,120,0,11,,,,,,,,,11,,,33,0
115800,note_on,30,0,8,,,,,,,,,7,,,81,0
115800,note_on,0,0,8,,,,,,,,,7,,,76,100
115800,note_on,120,0,9,,,,,,,,,8,,,57,0
115840,note_on,40,0,7,,,,,,,,,6,,,76,0
115840,note_on,40,0,8,,,,,,,,,7,,,76,0
115860,note_on,60,0,3,,,,,,,,,2,,,61,100
115860,note_on,0,0,3,,,,,,,,,2,,,57,100
115860,note_on,0,0,2,,,,,,,,,1,,,73,100
115860,note_on,20,0,8,,,,,,,,,7,,,76,100
115860,note_on,20,0,7,,,,,,,,,6,,,76,100
115860,note_on,60,0,1,,,,,,,,,0,,,81,100
115860,note_on,0,0,1,,,,,,,,,0,,,85,100
115860,note_on,60,0,2,,,,,,,,,1,,,69,100
115900,note_on,40,0,8,,,,,,,,,7,,,76,0
115900,note_on,40,0,7,,,,,,,,,6,,,76,0
115920,note_on,0,0,3,,,,,,,,,2,,,59,100
115920,note_on,20,0,8,,,,,,,,,7,,,76,100
115920,note_on,0,0,1,,,,,,,,,0,,,83,100
115920,note_on,0,0,1,,,,,,,,,0,,,81,0
115920,note_on,0,0,1,,,,,,,,,0,,,86,100
115920,note_on,0,0,3,,,,,,,,,2,,,62,100
115920,note_on,0,0,3,,,,,,,,,2,,,61,0
115920,note_on,60,0,3,,,,,,,,,2,,,57,0
115920,note_on,60,0,1,,,,,,,,,0,,,85,0
115920,note_on,0,0,2,,,,,,,,,1,,,69,0
115920,note_on,20,0,7,,,,,,,,,6,,,76,100
115920,note_on,60,0,2,,,,,,,,,1,,,73,0
115920,note_on,0,0,2,,,,,,,,,1,,,74,100
115920,note_on,0,0,2,,,,,,,,,1,,,71,100
115960,note_on,40,0,8,,,,,,,,,7,,,76,0
115960,note_on,40,0,7,,,,,,,,,6,,,76,0
115980,note_on,0,0,1,,,,,,,,,0,,,85,100
115980,note_on,0,0,1,,,,,,,,,0,,,81,100
115980,note_on,0,0,1,,,,,,,,,0,,,86,0
115980,note_on,60,0,1,,,,,,,,,0,,,83,0
115980,note_on,20,0,8,,,,,,,,,7,,,76,100
115980,note_on,0,0,2,,,,,,,,,1,,,74,0
115980,note_on,0,0,2,,,,,,,,,1,,,69,100
115980,note_on,0,0,2,,,,,,,,,1,,,73,100
115980,note_on,60,0,3,,,,,,,,,2,,,59,0
115980,note_on,0,0,3,,,,,,,,,2,,,62,0
115980,note_on,0,0,3,,,,,,,,,2,,,57,100
115980,note_on,0,0,3,,,,,,,,,2,,,61,100
115980,note_on,60,0,2,,,,,,,,,1,,,71,0
115980,note_on,20,0,7,,,,,,,,,6,,,76,100
116020,note_on,40,0,8,,,,,,,,,7,,,76,0
116020,note_on,40,0,7,,,,,,,,,6,,,76,0
116040,note_on,0,0,3,,,,,,,,,2,,,62,100
116040,note_on,240,0,10,,,,,,,,,10,,,52,100
116040,note_on,0,0,3,,,,,,,,,2,,,59,100
116040,note_on,60,0,3,,,,,,,,,2,,,61,0
116040,note_on,0,0,3,,,,,,,,,2,,,57,0
116040,note_on,20,0,8,,,,,,,,,7,,,76,100
116040,note_on,20,0,7,,,,,,,,,6,,,76,100
116040,note_on,240,0,5,,,,,,,,,4,,,76,100
116040,note_on,0,0,1,,,,,,,,,0,,,86,100
116040,note_on,240,0,4,,,,,,,,,3,,,64,100
116040,note_on,0,0,2,,,,,,,,,1,,,71,100
116040,note_on,0,0,2,,,,,,,,,1,,,74,100
116040,note_on,240,0,11,,,,,,,,,11,,,40,100
116040,note_on,60,0,2,,,,,,,,,1,,,73,0
116040,note_on,240,0,9,,,,,,,,,8,,,64,100
116040,note_on,0,0,2,,,,,,,,,1,,,69,0
116040,note_on,0,0,1,,,,,,,,,0,,,81,0
116040,note_on,0,0,1,,,,,,,,,0,,,83,100
116040,note_on,60,0,1,,,,,,,,,0,,,85,0
116080,note_on,40,0,7,,,,,,,,,6,,,76,0
116080,note_on,40,0,8,,,,,,,,,7,,,76,0
116100,note_on,0,0,3,,,,,,,,,2,,,62,0
116100,note_on,60,0,3,,,,,,,,,2,,,59,0
116100,note_on,20,0,7,,,,,,,,,6,,,76,100
116100,note_on,0,0,1,,,,,,,,,0,,,83,100
116100,note_on,0,0,2,,,,,,,,,1,,,71,100
116100,note_on,0,0,2,,,,,,,,,1,,,74,0
116100,note_on,60,0,2,,,,,,,,,1,,,71,0
116100,note_on,0,0,1,,,,,,,,,0,,,80,100
116100,note_on,0,0,1,,,,,,,,,0,,,86,0
116100,note_on,0,0,3,,,,,,,,,2,,,56,100
116100,note_on,60,0,1,,,,,,,,,0,,,83,0
116100,note_on,0,0,2,,,,,,,,,1,,,68,100
116100,note_on,0,0,3,,,,,,,,,2,,,59,100
116100,note_on,20,0,8,,,,,,,,,7,,,76,100
116140,note_on,40,0,7,,,,,,,,,6,,,76,0
116140,note_on,40,0,8,,,,,,,,,7,,,76,0
116160,note_on,0,0,3,,,,,,,,,2,,,56,0
116160,note_on,0,0,2,,,,,,,,,1,,,68,0
116160,note_on,60,0,2,,,,,,,,,1,,,71,0
116160,note_on,0,0,3,,,,,,,,,2,,,61,100
116160,note_on,20,0,7,,,,,,,,,6,,,76,100
116160,note_on,0,0,11,,,,,,,,,11,,,45,100
116160,note_on,0,0,2,,,,,,,,,1,,,69,100
116160,note_on,120,0,11,,,,,,,,,11,,,40,0
116160,note_on,120,0,10,,,,,,,,,10,,,52,0
116160,note_on,120,0,9,,,,,,,,,8,,,64,0
116160,note_on,0,0,9,,,,,,,,,8,,,69,100
116160,note_on,0,0,1,,,,,,,,,0,,,81,100
116160,note_on,0,0,1,,,,,,,,,0,,,85,100
116160,note_on,0,0,5,,,,,,,,,4,,,76,100
116160,note_on,0,0,5,,,,,,,,,4,,,69,100
116160,note_on,0,0,10,,,,,,,,,10,,,57,100
116160,note_on,120,0,4,,,,,,,,,3,,,64,0
116160,note_on,0,0,1,,,,,,,,,0,,,80,0
116160,note_on,360,0,6,,,,,,,,,5,,,45,100
116160,note_on,0,0,4,,,,,,,,,3,,,64,100
116160,note_on,0,0,3,,,,,,,,,2,,,57,100
116160,note_on,60,0,3,,,,,,,,,2,,,59,0
116160,note_on,0,0,2,,,,,,,,,1,,,73,100
116160,note_on,60,0,1,,,,,,,,,0,,,83,0
116160,note_on,0,0,4,,,,,,,,,3,,,57,100
116160,note_on,20,0,8,,,,,,,,,7,,,76,100
116160,note_on,120,0,5,,,,,,,,,4,,,76,0
116190,note_on,30,0,7,,,,,,,,,6,,,76,0
116190,note_on,0,0,7,,,,,,,,,6,,,81,100
116190,note_on,30,0,8,,,,,,,,,7,,,76,0
116190,note_on,0,0,8,,,,,,,,,7,,,81,100
116220,note_on,0,0,7,,,,,,,,,6,,,85,100
116220,note_on,30,0,7,,,,,,,,,6,,,81,0
116220,note_on,30,0,8,,,,,,,,,7,,,81,0
116220,note_on,0,0,8,,,,,,,,,7,,,85,100
116250,note_on,0,0,7,,,,,,,,,6,,,81,100
116250,note_on,30,0,7,,,,,,,,,6,,,85,0
116250,note_on,30,0,8,,,,,,,,,7,,,85,0
116250,note_on,0,0,8,,,,,,,,,7,,,81,100
116280,note_on,0,0,1,,,,,,,,,0,,,85,0
116280,note_on,120,0,9,,,,,,,,,8,,,69,0
116280,note_on,120,0,3,,,,,,,,,2,,,57,0
116280,note_on,30,0,7,,,,,,,,,6,,,81,0
116280,note_on,0,0,7,,,,,,,,,6,,,76,100
116280,note_on,0,0,2,,,,,,,,,1,,,69,0
116280,note_on,120,0,2,,,,,,,,,1,,,73,0
116280,note_on,120,0,1,,,,,,,,,0,,,81,0
116280,note_on,0,0,3,,,,,,,,,2,,,61,0
116280,note_on,120,0,10,,,,,,,,,10,,,57,0
116280,note_on,30,0,8,,,,,,,,,7,,,81,0
116280,note_on,120,0,5,,,,,,,,,4,,,76,0
116280,note_on,0,0,5,,,,,,,,,4,,,69,0
116280,note_on,120,0,11,,,,,,,,,11,,,45,0
116280,note_on,120,0,4,,,,,,,,,3,,,64,0
116280,note_on,0,0,4,,,,,,,,,3,,,57,0
116280,note_on,120,0,6,,,,,,,,,5,,,45,0
116280,note_on,0,0,8,,,,,,,,,7,,,76,100
116320,note_on,40,0,7,,,,,,,,,6,,,76,0
116320,note_on,40,0,8,,,,,,,,,7,,,76,0
116340,note_on,20,0,7,,,,,,,,,6,,,76,100
116340,note_on,60,0,2,,,,,,,,,1,,,69,100
116340,note_on,0,0,2,,,,,,,,,1,,,73,100
116340,note_on,20,0,8,,,,,,,,,7,,,76,100
116340,note_on,60,0,3,,,,,,,,,2,,,61,100
116340,note_on,0,0,3,,,,,,,,,2,,,57,100
116340,note_on,60,0,1,,,,,,,,,0,,,81,100
116340,note_on,0,0,1,,,,,,,,,0,,,85,100
116380,note_on,40,0,7,,,,,,,,,6,,,76,0
116380,note_on,40,0,8,,,,,,,,,7,,,76,0
116400,note_on,0,0,1,,,,,,,,,0,,,81,0
116400,note_on,0,0,2,,,,,,,,,1,,,71,100
116400,note_on,0,0,2,,,,,,,,,1,,,74,100
116400,note_on,20,0,7,,,,,,,,,6,,,76,100
116400,note_on,0,0,1,,,,,,,,,0,,,86,100
116400,note_on,0,0,1,,,,,,,,,0,,,83,100
116400,note_on,0,0,2,,,,,,,,,1,,,69,0
116400,note_on,60,0,2,,,,,,,,,1,,,73,0
116400,note_on,0,0,3,,,,,,,,,2,,,59,100
116400,note_on,0,0,3,,,,,,,,,2,,,62,100
116400,note_on,0,0,3,,,,,,,,,2,,,61,0
116400,note_on,60,0,3,,,,,,,,,2,,,57,0
116400,note_on,20,0,8,,,,,,,,,7,,,76,100
116400,note_on,60,0,1,,,,,,,,,0,,,85,0
116440,note_on,40,0,8,,,,,,,,,7,,,76,0
116440,note_on,40,0,7,,,,,,,,,6,,,76,0
116460,note_on,60,0,3,,,,,,,,,2,,,59,0
116460,note_on,60,0,2,,,,,,,,,1,,,71,0
116460,note_on,0,0,2,,,,,,,,,1,,,74,0
116460,note_on,0,0,2,,,,,,,,,1,,,69,100
116460,note_on,0,0,2,,,,,,,,,1,,,73,100
116460,note_on,0,0,1,,,,,,,,,0,,,81,100
116460,note_on,20,0,8,,,,,,,,,7,,,76,100
116460,note_on,0,0,1,,,,,,,,,0,,,85,100
116460,note_on,0,0,1,,,,,,,,,0,,,86,0
116460,note_on,20,0,7,,,,,,,,,6,,,76,100
116460,note_on,0,0,3,,,,,,,,,2,,,62,0
116460,note_on,0,0,3,,,,,,,,,2,,,57,100
116460,note_on,60,0,1,,,,,,,,,0,,,83,0
116460,note_on,0,0,3,,,,,,,,,2,,,61,100
116500,note_on,40,0,7,,,,,,,,,6,,,76,0
116500,note_on,40,0,8,,,,,,,,,7,,,76,0
116520,note_on,60,0,1,,,,,,,,,0,,,85,0
116520,note_on,0,0,2,,,,,,,,,1,,,69,0
116520,note_on,60,0,2,,,,,,,,,1,,,73,0
116520,note_on,0,0,3,,,,,,,,,2,,,57,0
116520,note_on,0,0,3,,,,,,,,,2,,,62,100
116520,note_on,0,0,3,,,,,,,,,2,,,59,100
116520,note_on,0,0,2,,,,,,,,,1,,,74,100
116520,note_on,60,0,3,,,,,,,,,2,,,61,0
116520,note_on,20,0,7,,,,,,,,,6,,,76,100
116520,note_on,0,0,2,,,,,,,,,1,,,71,100
116520,note_on,0,0,1,,,,,,,,,0,,,86,100
116520,note_on,0,0,1,,,,,,,,,0,,,83,100
116520,note_on,0,0,1,,,,,,,,,0,,,81,0
116520,note_on,240,0,4,,,,,,,,,3,,,64,100
116520,note_on,240,0,5,,,,,,,,,4,,,76,100
116520,note_on,240,0,10,,,,,,,,,10,,,52,100
116520,note_on,20,0,8,,,,,,,,,7,,,76,100
116520,note_on,240,0,11,,,,,,,,,11,,,40,100
116520,note_on,240,0,9,,,,,,,,,8,,,64,100
116560,note_on,40,0,7,,,,,,,,,6,,,76,0
116560,note_on,40,0,8,,,,,,,,,7,,,76,0
116580,note_on,20,0,8,,,,,,,,,7,,,76,100
116580,note_on,0,0,3,,,,,,,,,2,,,59,100
116580,note_on,0,0,2,,,,,,,,,1,,,71,100
116580,note_on,0,0,2,,,,,,,,,1,,,68,100
116580,note_on,0,0,3,,,,,,,,,2,,,62,0
116580,note_on,60,0,2,,,,,,,,,1,,,71,0
116580,note_on,0,0,3,,,,,,,,,2,,,56,100
116580,note_on,60,0,3,,,,,,,,,2,,,59,0
116580,note_on,0,0,1,,,,,,,,,0,,,83,100
116580,note_on,0,0,1,,,,,,,,,0,,,80,100
116580,note_on,0,0,1,,,,,,,,,0,,,86,0
116580,note_on,60,0,1,,,,,,,,,0,,,83,0
116580,note_on,0,0,2,,,,,,,,,1,,,74,0
116580,note_on,20,0,7,,,,,,,,,6,,,76,100
116620,note_on,40,0,8,,,,,,,,,7,,,76,0
116620,note_on,40,0,7,,,,,,,,,6,,,76,0
116640,note_on,20,0,7,,,,,,,,,6,,,76,100
116640,note_on,120,0,5,,,,,,,,,4,,,76,0
116640,note_on,0,0,5,,,,,,,,,4,,,76,100
116640,note_on,0,0,1,,,,,,,,,0,,,80,0
116640,note_on,0,0,1,,,,,,,,,0,,,85,100
116640,note_on,0,0,1,,,,,,,,,0,,,81,100
116640,note_on,0,0,5,,,,,,,,,4,,,69,100
116640,note_on,120,0,11,,,,,,,,,11,,,40,0
116640,note_on,0,0,11,,,,,,,,,11,,,45,100
116640,note_on,0,0,2,,,,,,,,,1,,,68,0
116640,note_on,0,0,2,,,,,,,,,1,,,69,100
116640,note_on,0,0,3,,,,,,,,,2,,,56,0
116640,note_on,0,0,3,,,,,,,,,2,,,61,100
116640,note_on,0,0,3,,,,,,,,,2,,,57,100
116640,note_on,360,0,6,,,,,,,,,5,,,45,100
116640,note_on,60,0,2,,,,,,,,,1,,,71,0
116640,note_on,0,0,2,,,,,,,,,1,,,73,100
116640,note_on,60,0,3,,,,,,,,,2,,,59,0
116640,note_on,0,0,10,,,,,,,,,10,,,57,100
116640,note_on,60,0,1,,,,,,,,,0,,,83,0
116640,note_on,120,0,10,,,,,,,,,10,,,52,0
116640,note_on,120,0,9,,,,,,,,,8,,,64,0
116640,note_on,0,0,9,,,,,,,,,8,,,69,100
116640,note_on,20,0,8,,,,,,,,,7,,,76,100
116640,note_on,0,0,4,,,,,,,,,3,,,57,100
116640,note_on,0,0,4,,,,,,,,,3,,,64,100
116640,note_on,120,0,4,,,,,,,,,3,,,64,0
116700,note_on,0,0,7,,,,,,,,,6,,,81,100
116700,note_on,60,0,7,,,,,,,,,6,,,76,0
116700,note_on,60,0,8,,,,,,,,,7,,,76,0
116700,note_on,0,0,8,,,,,,,,,7,,,81,100
116730,note_on,0,0,7,,,,,,,,,6,,,85,100
116730,note_on,0,0,8,,,,,,,,,7,,,85,100
116730,note_on,30,0,8,,,,,,,,,7,,,81,0
116730,note_on,30,0,7,,,,,,,,,6,,,81,0
116760,note_on,120,0,9,,,,,,,,,8,,,69,0
116760,note_on,30,0,7,,,,,,,,,6,,,85,0
116760,note_on,120,0,2,,,,,,,,,1,,,73,0
116760,note_on,0,0,2,,,,,,,,,1,,,69,0
116760,note_on,30,0,8,,,,,,,,,7,,,85,0
116760,note_on,0,0,8,,,,,,,,,7,,,88,100
116760,note_on,120,0,10,,,,,,,,,10,,,57,0
116760,note_on,120,0,6,,,,,,,,,5,,,45,0
116760,note_on,0,0,4,,,,,,,,,3,,,64,0
116760,note_on,0,0,1,,,,,,,,,0,,,85,0
116760,note_on,120,0,11,,,,,,,,,11,,,45,0
116760,note_on,0,0,7,,,,,,,,,6,,,88,100
116760,note_on,120,0,4,,,,,,,,,3,,,57,0
116760,note_on,120,0,3,,,,,,,,,2,,,57,0
116760,note_on,0,0,5,,,,,,,,,4,,,76,0
116760,note_on,0,0,3,,,,,,,,,2,,,61,0
116760,note_on,120,0,5,,,,,,,,,4,,,69,0
116760,note_on,120,0,1,,,,,,,,,0,,,81,0
116800,note_on,40,0,8,,,,,,,,,7,,,88,0
116800,note_on,40,0,7,,,,,,,,,6,,,88,0
116820,note_on,60,0,1,,,,,,,,,0,,,81,100
116820,note_on,20,0,8,,,,,,,,,7,,,88,100
116820,note_on,0,0,3,,,,,,,,,2,,,57,100
116820,note_on,60,0,3,,,,,,,,,2,,,61,100
116820,note_on,0,0,2,,,,,,,,,1,,,73,100
116820,note_on,20,0,7,,,,,,,,,6,,,88,100
116820,note_on,0,0,1,,,,,,,,,0,,,85,100
116820,note_on,60,0,2,,,,,,,,,1,,,69,100
116860,note_on,40,0,8,,,,,,,,,7,,,88,0
116860,note_on,40,0,7,,,,,,,,,6,,,88,0
116880,note_on,0,0,1,,,,,,,,,0,,,86,100
116880,note_on,0,0,1,,,,,,,,,0,,,81,0
116880,note_on,0,0,1,,,,,,,,,0,,,83,100
116880,note_on,20,0,8,,,,,,,,,7,,,88,100
116880,note_on,60,0,1,,,,,,,,,0,,,85,0
116880,note_on,0,0,3,,,,,,,,,2,,,59,100
116880,note_on,0,0,3,,,,,,,,,2,,,61,0
116880,note_on,60,0,2,,,,,,,,,1,,,73,0
116880,note_on,0,0,2,,,,,,,,,1,,,69,0
116880,note_on,0,0,2,,,,,,,,,1,,,74,100
116880,note_on,0,0,2,,,,,,,,,1,,,71,100
116880,note_on,60,0,3,,,,,,,,,2,,,57,0
116880,note_on,20,0,7,,,,,,,,,6,,,88,100
116880,note_on,0,0,3,,,,,,,,,2,,,62,100
116920,note_on,40,0,7,,,,,,,,,6,,,88,0
116920,note_on,40,0,8,,,,,,,,,7,,,88,0
116940,note_on,0,0,3,,,,,,,,,2,,,57,100
116940,note_on,60,0,3,,,,,,,,,2,,,59,0
116940,note_on,20,0,7,,,,,,,,,6,,,88,100
116940,note_on,0,0,3,,,,,,,,,2,,,62,0
116940,note_on,0,0,3,,,,,,,,,2,,,61,100
116940,note_on,0,0,1,,,,,,,,,0,,,81,100
116940,note_on,0,0,2,,,,,,,,,1,,,69,100
116940,note_on,60,0,1,,,,,,,,,0,,,83,0
116940,note_on,0,0,1,,,,,,,,,0,,,86,0
116940,note_on,0,0,1,,,,,,,,,0,,,85,100
116940,note_on,0,0,2,,,,,,,,,1,,,73,100
116940,note_on,20,0,8,,,,,,,,,7,,,88,100
116940,note_on,0,0,2,,,,,,,,,1,,,74,0
116940,note_on,60,0,2,,,,,,,,,1,,,71,0
116980,note_on,40,0,7,,,,,,,,,6,,,88,0
116980,note_on,40,0,8,,,,,,,,,7,,,88,0
117000,note_on,240,0,11,,,,,,,,,11,,,40,100
117000,note_on,240,0,5,,,,,,,,,4,,,76,100
117000,note_on,240,0,10,,,,,,,,,10,,,52,100
117000,note_on,60,0,1,,,,,,,,,0,,,85,0
117000,note_on,20,0,7,,,,,,,,,6,,,88,100
117000,note_on,0,0,2,,,,,,,,,1,,,74,100
117000,note_on,0,0,2,,,,,,,,,1,,,69,0
117000,note_on,60,0,2,,,,,,,,,1,,,73,0
117000,note_on,240,0,9,,,,,,,,,8,,,64,100
117000,note_on,0,0,1,,,,,,,,,0,,,86,100
117000,note_on,0,0,1,,,,,,,,,0,,,81,0
117000,note_on,0,0,2,,,,,,,,,1,,,71,100
117000,note_on,20,0,8,,,,,,,,,7,,,88,100
117000,note_on,240,0,4,,,,,,,,,3,,,64,100
117000,note_on,0,0,1,,,,,,,,,0,,,83,100
117000,note_on,60,0,3,,,,,,,,,2,,,61,0
117000,note_on,0,0,3,,,,,,,,,2,,,57,0
117000,note_on,0,0,3,,,,,,,,,2,,,62,100
117000,note_on,0,0,3,,,,,,,,,2,,,59,100
117040,note_on,40,0,8,,,,,,,,,7,,,88,0
117040,note_on,40,0,7,,,,,,,,,6,,,88,0
117060,note_on,0,0,3,,,,,,,,,2,,,59,100
117060,note_on,20,0,8,,,,,,,,,7,,,88,100
117060,note_on,0,0,1,,,,,,,,,0,,,83,100
117060,note_on,0,0,1,,,,,,,,,0,,,80,100
117060,note_on,0,0,3,,,,,,,,,2,,,56,100
117060,note_on,60,0,1,,,,,,,,,0,,,83,0
117060,note_on,0,0,2,,,,,,,,,1,,,71,100
117060,note_on,0,0,1,,,,,,,,,0,,,86,0
117060,note_on,0,0,2,,,,,,,,,1,,,74,0
117060,note_on,20,0,7,,,,,,,,,6,,,88,100
117060,note_on,0,0,2,,,,,,,,,1,,,68,100
117060,note_on,60,0,3,,,,,,,,,2,,,59,0
117060,note_on,0,0,3,,,,,,,,,2,,,62,0
117060,note_on,60,0,2,,,,,,,,,1,,,71,0
117100,note_on,40,0,8,,,,,,,,,7,,,88,0
117100,note_on,40,0,7,,,,,,,,,6,,,88,0
117120,note_on,20,0,8,,,,,,,,,7,,,85,100
117120,note_on,0,0,11,,,,,,,,,11,,,33,100
117120,note_on,60,0,1,,,,,,,,,0,,,83,0
117120,note_on,0,0,1,,,,,,,,,0,,,80,0
117120,note_on,120,0,9,,,,,,,,,8,,,64,0
117120,note_on,0,0,9,,,,,,,,,8,,,57,100
117120,note_on,0,0,5,,,,,,,,,4,,,69,100
117120,note_on,120,0,5,,,,,,,,,4,,,76,0
117120,note_on,20,0,7,,,,,,,,,6,,,85,100
117120,note_on,0,0,1,,,,,,,,,0,,,85,100
117120,note_on,120,0,11,,,,,,,,,11,,,40,0
117120,note_on,0,0,1,,,,,,,,,0,,,81,100
117120,note_on,0,0,5,,,,,,,,,4,,,76,100
117120,note_on,120,0,4,,,,,,,,,3,,,64,0
117120,note_on,0,0,4,,,,,,,,,3,,,64,100
117120,note_on,60,0,3,,,,,,,,,2,,,59,0
117120,note_on,0,0,3,,,,,,,,,2,,,56,0
117120,note_on,0,0,10,,,,,,,,,10,,,45,100
117120,note_on,120,0,10,,,,,,,,,10,,,52,0
117120,note_on,0,0,3,,,,,,,,,2,,,61,100
117120,note_on,0,0,3,,,,,,,,,2,,,57,100
117120,note_on,0,0,4,,,,,,,,,3,,,57,100
117120,note_on,0,0,2,,,,,,,,,1,,,69,100
117120,note_on,0,0,2,,,,,,,,,1,,,68,0
117120,note_on,0,0,2,,,,,,,,,1,,,73,100
117120,note_on,60,0,2,,,,,,,,,1,,,71,0
117120,note_on,360,0,6,,,,,,,,,5,,,45,100
117180,note_on,60,0,8,,,,,,,,,7,,,85,0
117180,note_on,0,0,8,,,,,,,,,7,,,81,101
117180,note_on,60,0,7,,,,,,,,,6,,,85,0
117180,note_on,0,0,7,,,,,,,,,6,,,81,101
117210,note_on,30,0,8,,,,,,,,,7,,,81,0
117210,note_on,30,0,7,,,,,,,,,6,,,81,0
117240,note_on,120,0,6,,,,,,,,,5,,,45,0
117240,note_on,120,0,4,,,,,,,,,3,,,64,0
117240,note_on,120,0,11,,,,,,,,,11,,,33,0
117240,note_on,30,0,7,,,,,,,,,6,,,88,102
117240,note_on,120,0,3,,,,,,,,,2,,,57,0
117240,note_on,120,0,10,,,,,,,,,10,,,45,0
117240,note_on,120,0,1,,,,,,,,,0,,,85,0
117240,note_on,0,0,1,,,,,,,,,0,,,81,0
117240,note_on,0,0,3,,,,,,,,,2,,,61,0
117240,note_on,120,0,5,,,,,,,,,4,,,76,0
117240,note_on,0,0,5,,,,,,,,,4,,,69,0
117240,note_on,30,0,8,,,,,,,,,7,,,88,102
117240,note_on,0,0,4,,,,,,,,,3,,,57,0
117240,note_on,120,0,9,,,,,,,,,8,,,57,0
117240,note_on,0,0,2,,,,,,,,,1,,,69,0
117240,note_on,120,0,2,,,,,,,,,1,,,73,0
117270,note_on,30,0,8,,,,,,,,,7,,,88,0
117270,note_on,30,0,7,,,,,,,,,6,,,88,0
117300,note_on,30,0,8,,,,,,,,,7,,,88,103
117300,note_on,30,0,7,,,,,,,,,6,,,88,103
117330,note_on,30,0,8,,,,,,,,,7,,,88,0
117330,note_on,30,0,7,,,,,,,,,6,,,88,0
117360,note_on,30,0,7,,,,,,,,,6,,,85,104
117360,note_on,30,0,8,,,,,,,,,7,,,85,104
117420,note_on,60,0,7,,,,,,,,,6,,,85,0
117420,note_on,0,0,7,,,,,,,,,6,,,81,105
117420,note_on,60,0,8,,,,,,,,,7,,,85,0
117420,note_on,0,0,8,,,,,,,,,7,,,81,105
117450,note_on,30,0,7,,,,,,,,,6,,,81,0
117450,note_on,30,0,8,,,,,,,,,7,,,81,0
117480,note_on,240,0,11,,,,,,,,,11,,,52,106
117480,note_on,240,0,3,,,,,,,,,2,,,64,106
117480,note_on,240,0,9,,,,,,,,,8,,,76,106
117480,note_on,240,0,2,,,,,,,,,1,,,76,106
117480,note_on,30,0,7,,,,,,,,,6,,,76,106
117480,note_on,30,0,8,,,,,,,,,7,,,76,106
117480,note_on,240,0,10,,,,,,,,,10,,,64,106
117480,note_on,240,0,1,,,,,,,,,0,,,88,106
117480,note_on,240,0,5,,,,,,,,,4,,,76,106
117480,note_on,240,0,4,,,,,,,,,3,,,64,106
117510,note_on,30,0,3,,,,,,,,,2,,,64,0
117510,note_on,30,0,1,,,,,,,,,0,,,88,0
117510,note_on,30,0,2,,,,,,,,,1,,,76,0
117510,note_on,30,0,7,,,,,,,,,6,,,76,0
117510,note_on,30,0,11,,,,,,,,,11,,,52,0
117510,note_on,30,0,8,,,,,,,,,7,,,76,0
117510,note_on,30,0,10,,,,,,,,,10,,,64,0
117510,note_on,30,0,9,,,,,,,,,8,,,76,0
117540,note_on,30,0,7,,,,,,,,,6,,,76,107
117540,note_on,30,0,9,,,,,,,,,8,,,76,107
117540,note_on,30,0,2,,,,,,,,,1,,,76,107
117540,note_on,30,0,1,,,,,,,,,0,,,88,107
117540,note_on,30,0,8,,,,,,,,,7,,,76,107
117540,note_on,30,0,11,,,,,,,,,11,,,52,107
117540,note_on,30,0,3,,,,,,,,,2,,,64,107
117540,note_on,30,0,10,,,,,,,,,10,,,64,107
117570,note_on,30,0,9,,,,,,,,,8,,,76,0
117570,note_on,30,0,8,,,,,,,,,7,,,76,0
117570,note_on,30,0,3,,,,,,,,,2,,,64,0
117570,note_on,30,0,11,,,,,,,,,11,,,52,0
117570,note_on,30,0,7,,,,,,,,,6,,,76,0
117570,note_on,30,0,1,,,,,,,,,0,,,88,0
117570,note_on,30,0,2,,,,,,,,,1,,,76,0
117570,note_on,30,0,10,,,,,,,,,10,,,64,0
117600,note_on,0,0,4,,,,,,,,,3,,,57,109
117600,note_on,30,0,3,,,,,,,,,2,,,61,109
117600,note_on,30,0,1,,,,,,,,,0,,,85,109
117600,note_on,360,0,6,,,,,,,,,5,,,45,109
117600,note_on,30,0,2,,,,,,,,,1,,,73,109
117600,note_on,120,0,4,,,,,,,,,3,,,64,0
117600,note_on,30,0,7,,,,,,,,,6,,,73,109
117600,note_on,0,0,4,,,,,,,,,3,,,69,109
117600,note_on,30,0,10,,,,,,,,,10,,,61,109
117600,note_on,120,0,5,,,,,,,,,4,,,76,0
117600,note_on,0,0,5,,,,,,,,,4,,,69,109
117600,note_on,0,0,5,,,,,,,,,4,,,81,109
117600,note_on,30,0,8,,,,,,,,,7,,,73,109
117600,note_on,30,0,9,,,,,,,,,8,,,73,109
117600,note_on,30,0,11,,,,,,,,,11,,,49,109
117660,note_on,60,0,1,,,,,,,,,0,,,85,0
117660,note_on,0,0,1,,,,,,,,,0,,,81,110
117660,note_on,0,0,11,,,,,,,,,11,,,45,110
117660,note_on,60,0,11,,,,,,,,,11,,,49,0
117660,note_on,60,0,3,,,,,,,,,2,,,61,0
117660,note_on,60,0,8,,,,,,,,,7,,,73,0
117660,note_on,60,0,2,,,,,,,,,1,,,73,0
117660,note_on,0,0,2,,,,,,,,,1,,,69,110
117660,note_on,0,0,9,,,,,,,,,8,,,69,110
117660,note_on,60,0,9,,,,,,,,,8,,,73,0
117660,note_on,60,0,10,,,,,,,,,10,,,61,0
117660,note_on,0,0,10,,,,,,,,,10,,,57,110
117660,note_on,0,0,8,,,,,,,,,7,,,69,110
117660,note_on,0,0,3,,,,,,,,,2,,,57,110
117660,note_on,60,0,7,,,,,,,,,6,,,73,0
117660,note_on,0,0,7,,,,,,,,,6,,,69,110
117690,note_on,30,0,3,,,,,,,,,2,,,57,0
117690,note_on,30,0,2,,,,,,,,,1,,,69,0
117690,note_on,30,0,10,,,,,,,,,10,,,57,0
117690,note_on,30,0,8,,,,,,,,,7,,,69,0
117690,note_on,30,0,7,,,,,,,,,6,,,69,0
117690,note_on,30,0,1,,,,,,,,,0,,,81,0
117690,note_on,30,0,9,,,,,,,,,8,,,69,0
117690,note_on,30,0,11,,,,,,,,,11,,,45,0
117720,note_on,0,0,4,,,,,,,,,3,,,57,0
117720,note_on,120,0,6,,,,,,,,,5,,,45,0
117720,note_on,30,0,7,,,,,,,,,6,,,76,111
117720,note_on,120,0,5,,,,,,,,,4,,,81,0
117720,note_on,0,0,5,,,,,,,,,4,,,69,0
117720,note_on,120,0,4,,,,,,,,,3,,,69,0
117720,note_on,30,0,8,,,,,,,,,7,,,76,111
117750,note_on,30,0,7,,,,,,,,,6,,,76,0
117750,note_on,30,0,8,,,,,,,,,7,,,76,0
117780,note_on,30,0,7,,,,,,,,,6,,,76,112
117780,note_on,30,0,8,,,,,,,,,7,,,76,112
117810,note_on,30,0,8,,,,,,,,,7,,,76,0
117810,note_on,30,0,7,,,,,,,,,6,,,76,0
117840,note_on,30,0,7,,,,,,,,,6,,,73,113
117840,note_on,30,0,8,,,,,,,,,7,,,73,113
117862,set_tempo,7462,1,0,,,,,,350795,,,,,,,
117893,set_tempo,31,1,0,,,,,,352734,,,,,,,
117900,note_on,60,0,8,,,,,,,,,7,,,73,0
117900,note_on,0,0,7,,,,,,,,,6,,,69,114
117900,note_on,0,0,8,,,,,,,,,7,,,69,114
117900,note_on,60,0,7,,,,,,,,,6,,,73,0
117925,set_tempo,32,1,0,,,,,,354694,,,,,,,
117930,note_on,30,0,8,,,,,,,,,7,,,69,0
117930,note_on,30,0,7,,,,,,,,,6,,,69,0
117953,set_tempo,28,1,0,,,,,,356676,,,,,,,
117960,note_on,270,0,3,,,,,,,,,2,,,52,115
117960,note_on,270,0,1,,,,,,,,,0,,,88,115
117960,note_on,270,0,9,,,,,,,,,8,,,64,115
117960,note_on,240,0,4,,,,,,,,,3,,,64,115
117960,note_on,270,0,10,,,,,,,,,10,,,52,115
117960,note_on,270,0,11,,,,,,,,,11,,,40,115
117960,note_on,30,0,7,,,,,,,,,6,,,64,115
117960,note_on,30,0,8,,,,,,,,,7,,,64,115
117960,note_on,240,0,5,,,,,,,,,4,,,76,115
117960,note_on,270,0,2,,,,,,,,,1,,,76,115
117985,set_tempo,32,1,0,,,,,,358680,,,,,,,
117990,note_on,30,0,7,,,,,,,,,6,,,64,0
117990,note_on,30,0,9,,,,,,,,,8,,,64,0
117990,note_on,30,0,8,,,,,,,,,7,,,64,0
117990,note_on,30,0,10,,,,,,,,,10,,,52,0
117990,note_on,30,0,11,,,,,,,,,11,,,40,0
117990,note_on,30,0,2,,,,,,,,,1,,,76,0
117990,note_on,30,0,3,,,,,,,,,2,,,52,0
117990,note_on,30,0,1,,,,,,,,,0,,,88,0
118013,set_tempo,28,1,0,,,,,,360707,,,,,,,
118020,note_on,30,0,3,,,,,,,,,2,,,52,116
118020,note_on,30,0,11,,,,,,,,,11,,,40,116
118020,note_on,30,0,9,,,,,,,,,8,,,64,116
118020,note_on,30,0,7,,,,,,,,,6,,,64,116
118020,note_on,30,0,1,,,,,,,,,0,,,88,116
118020,note_on,30,0,2,,,,,,,,,1,,,76,116
118020,note_on,30,0,10,,,,,,,,,10,,,52,116
118020,note_on,30,0,8,,,,,,,,,7,,,64,116
118045,set_tempo,32,1,0,,,,,,362757,,,,,,,
118050,note_on,30,0,3,,,,,,,,,2,,,52,0
118050,note_on,30,0,10,,,,,,,,,10,,,52,0
118050,note_on,30,0,11,,,,,,,,,11,,,40,0
118050,note_on,30,0,1,,,,,,,,,0,,,88,0
118050,note_on,30,0,7,,,,,,,,,6,,,64,0
118050,note_on,30,0,9,,,,,,,,,8,,,64,0
118050,note_on,30,0,8,,,,,,,,,7,,,64,0
118050,note_on,30,0,2,,,,,,,,,1,,,76,0
118076,set_tempo,31,1,0,,,,,,364830,,,,,,,
118080,note_on,30,0,8,,,,,,,,,7,,,61,118
118080,note_on,30,0,7,,,,,,,,,6,,,61,118
118080,note_on,30,0,9,,,,,,,,,8,,,61,118
118080,note_on,0,0,4,,,,,,,,,3,,,69,118
118080,note_on,0,0,4,,,,,,,,,3,,,57,118
118080,note_on,120,0,4,,,,,,,,,3,,,64,0
118080,note_on,30,0,11,,,,,,,,,11,,,37,118
118080,note_on,120,0,5,,,,,,,,,4,,,76,0
118080,note_on,30,0,3,,,,,,,,,2,,,49,118
118080,note_on,30,0,2,,,,,,,,,1,,,73,118
118080,note_on,30,0,10,,,,,,,,,10,,,49,118
118080,note_on,360,0,6,,,,,,,,,5,,,45,118
118080,note_on,30,0,1,,,,,,,,,0,,,85,118
118080,note_on,0,0,5,,,,,,,,,4,,,69,118
118080,note_on,0,0,5,,,,,,,,,4,,,81,118
118105,set_tempo,29,1,0,,,,,,366928,,,,,,,
118136,set_tempo,31,1,0,,,,,,369049,,,,,,,
118140,note_on,60,0,1,,,,,,,,,0,,,85,0
118140,note_on,0,0,8,,,,,,,,,7,,,57,119
118140,note_on,60,0,7,,,,,,,,,6,,,61,0
118140,note_on,60,0,9,,,,,,,,,8,,,61,0
118140,note_on,0,0,9,,,,,,,,,8,,,57,119
118140,note_on,60,0,11,,,,,,,,,11,,,37,0
118140,note_on,60,0,8,,,,,,,,,7,,,61,0
118140,note_on,60,0,10,,,,,,,,,10,,,49,0
118140,note_on,0,0,10,,,,,,,,,10,,,45,119
118140,note_on,0,0,11,,,,,,,,,11,,,33,119
118140,note_on,0,0,2,,,,,,,,,1,,,69,119
118140,note_on,0,0,3,,,,,,,,,2,,,45,119
118140,note_on,60,0,3,,,,,,,,,2,,,49,0
118140,note_on,60,0,2,,,,,,,,,1,,,73,0
118140,note_on,0,0,7,,,,,,,,,6,,,57,119
118140,note_on,0,0,1,,,,,,,,,0,,,81,119
118165,set_tempo,29,1,0,,,,,,371195,,,,,,,
118170,note_on,30,0,7,,,,,,,,,6,,,57,0
118170,note_on,30,0,8,,,,,,,,,7,,,57,0
118170,note_on,30,0,9,,,,,,,,,8,,,57,0
118170,note_on,30,0,11,,,,,,,,,11,,,33,0
118170,note_on,30,0,2,,,,,,,,,1,,,69,0
118170,note_on,30,0,3,,,,,,,,,2,,,45,0
118170,note_on,30,0,10,,,,,,,,,10,,,45,0
118170,note_on,30,0,1,,,,,,,,,0,,,81,0
118196,set_tempo,31,1,0,,,,,,373367,,,,,,,
118200,note_on,30,0,9,,,,,,,,,8,,,64,120
118200,note_on,0,0,4,,,,,,,,,3,,,64,120
118200,note_on,30,0,7,,,,,,,,,6,,,64,120
118200,note_on,30,0,2,,,,,,,,,1,,,76,120
118200,note_on,30,0,11,,,,,,,,,11,,,40,120
118200,note_on,120,0,4,,,,,,,,,3,,,69,0
118200,note_on,30,0,1,,,,,,,,,0,,,88,120
118200,note_on,0,0,5,,,,,,,,,4,,,76,120
118200,note_on,30,0,8,,,,,,,,,7,,,64,120
118200,note_on,0,0,5,,,,,,,,,4,,,69,0
118200,note_on,120,0,5,,,,,,,,,4,,,81,0
118200,note_on,30,0,3,,,,,,,,,2,,,52,120
118200,note_on,30,0,10,,,,,,,,,10,,,52,120
118200,note_on,120,0,6,,,,,,,,,5,,,45,0
118200,note_on,0,0,4,,,,,,,,,3,,,57,0
118228,set_tempo,32,1,0,,,,,,375563,,,,,,,
118230,note_on,30,0,10,,,,,,,,,10,,,52,0
118230,note_on,30,0,3,,,,,,,,,2,,,52,0
118230,note_on,30,0,1,,,,,,,,,0,,,88,0
118230,note_on,30,0,2,,,,,,,,,1,,,76,0
118230,note_on,30,0,11,,,,,,,,,11,,,40,0
118230,note_on,30,0,8,,,,,,,,,7,,,64,0
118230,note_on,30,0,7,,,,,,,,,6,,,64,0
118230,note_on,30,0,9,,,,,,,,,8,,,64,0
118256,set_tempo,28,1,0,,,,,,377786,,,,,,,
118260,note_on,30,0,2,,,,,,,,,1,,,76,121
118260,note_on,30,0,10,,,,,,,,,10,,,52,121
118260,note_on,30,0,3,,,,,,,,,2,,,52,121
118260,note_on,30,0,1,,,,,,,,,0,,,88,121
118260,note_on,30,0,11,,,,,,,,,11,,,40,121
118260,note_on,30,0,7,,,,,,,,,6,,,64,121
118260,note_on,30,0,9,,,,,,,,,8,,,64,121
118260,note_on,30,0,8,,,,,,,,,7,,,64,121
118288,set_tempo,32,1,0,,,,,,380035,,,,,,,
118290,note_on,30,0,10,,,,,,,,,10,,,52,0
118290,note_on,30,0,7,,,,,,,,,6,,,64,0
118290,note_on,30,0,11,,,,,,,,,11,,,40,0
118290,note_on,30,0,9,,,,,,,,,8,,,64,0
118290,note_on,30,0,1,,,,,,,,,0,,,88,0
118290,note_on,30,0,8,,,,,,,,,7,,,64,0
118290,note_on,30,0,3,,,,,,,,,2,,,52,0
118290,note_on,30,0,2,,,,,,,,,1,,,76,0
118316,set_tempo,28,1,0,,,,,,382312,,,,,,,
118320,note_on,30,0,7,,,,,,,,,6,,,61,122
118320,note_on,0,0,5,,,,,,,,,4,,,69,122
118320,note_on,30,0,8,,,,,,,,,7,,,61,122
118320,note_on,30,0,3,,,,,,,,,2,,,49,122
118320,note_on,0,0,4,,,,,,,,,3,,,69,122
118320,note_on,120,0,4,,,,,,,,,3,,,64,0
118320,note_on,30,0,10,,,,,,,,,10,,,49,122
118320,note_on,0,0,5,,,,,,,,,4,,,81,122
118320,note_on,120,0,6,,,,,,,,,5,,,45,122
118320,note_on,30,0,11,,,,,,,,,11,,,37,122
118320,note_on,30,0,1,,,,,,,,,0,,,85,122
118320,note_on,30,0,9,,,,,,,,,8,,,61,122
118320,note_on,30,0,2,,,,,,,,,1,,,73,122
118320,note_on,0,0,4,,,,,,,,,3,,,57,122
118320,note_on,120,0,5,,,,,,,,,4,,,76,0
118348,set_tempo,32,1,0,,,,,,384615,,,,,,,
118380,note_on,60,0,7,,,,,,,,,6,,,61,0
118380,note_on,0,0,9,,,,,,,,,8,,,57,123
118380,note_on,60,0,2,,,,,,,,,1,,,73,0
118380,note_on,0,0,2,,,,,,,,,1,,,69,123
118380,note_on,60,0,9,,,,,,,,,8,,,61,0
118380,note_on,0,0,10,,,,,,,,,10,,,45,123
118380,set_tempo,32,1,0,,,,,,386947,,,,,,,
118380,note_on,60,0,11,,,,,,,,,11,,,37,0
118380,note_on,0,0,11,,,,,,,,,11,,,33,123
118380,note_on,60,0,1,,,,,,,,,0,,,85,0
118380,note_on,0,0,1,,,,,,,,,0,,,81,123
118380,note_on,0,0,8,,,,,,,,,7,,,57,123
118380,note_on,60,0,8,,,,,,,,,7,,,61,0
118380,note_on,60,0,10,,,,,,,,,10,,,49,0
118380,note_on,60,0,3,,,,,,,,,2,,,49,0
118380,note_on,0,0,7,,,,,,,,,6,,,57,123
118380,note_on,0,0,3,,,,,,,,,2,,,45,123
118408,set_tempo,28,1,0,,,,,,389307,,,,,,,
118410,note_on,30,0,3,,,,,,,,,2,,,45,0
118410,note_on,30,0,1,,,,,,,,,0,,,81,0
118410,note_on,30,0,10,,,,,,,,,10,,,45,0
118410,note_on,30,0,2,,,,,,,,,1,,,69,0
118410,note_on,30,0,9,,,,,,,,,8,,,57,0
118410,note_on,30,0,7,,,,,,,,,6,,,57,0
118410,note_on,30,0,11,,,,,,,,,11,,,33,0
118410,note_on,30,0,8,,,,,,,,,7,,,57,0
118440,note_on,120,0,6,,,,,,,,,5,,,45,0
118440,note_on,30,0,2,,,,,,,,,1,,,76,124
118440,note_on,0,0,4,,,,,,,,,3,,,64,124
118440,note_on,30,0,8,,,,,,,,,7,,,64,124
118440,note_on,30,0,3,,,,,,,,,2,,,52,124
118440,note_on,30,0,11,,,,,,,,,11,,,40,124
118440,set_tempo,32,1,0,,,,,,391696,,,,,,,
118440,note_on,30,0,9,,,,,,,,,8,,,64,124
118440,note_on,120,0,5,,,,,,,,,4,,,81,0
118440,note_on,0,0,5,,,,,,,,,4,,,69,0
118440,note_on,0,0,5,,,,,,,,,4,,,76,124
118440,note_on,0,0,4,,,,,,,,,3,,,57,0
118440,note_on,120,0,4,,,,,,,,,3,,,69,0
118440,note_on,30,0,10,,,,,,,,,10,,,52,124
118440,note_on,30,0,7,,,,,,,,,6,,,64,124
118440,note_on,30,0,1,,,,,,,,,0,,,88,124
118468,set_tempo,28,1,0,,,,,,394115,,,,,,,
118470,note_on,30,0,1,,,,,,,,,0,,,88,0
118470,note_on,30,0,10,,,,,,,,,10,,,52,0
118470,note_on,30,0,9,,,,,,,,,8,,,64,0
118470,note_on,30,0,11,,,,,,,,,11,,,40,0
118470,note_on,30,0,8,,,,,,,,,7,,,64,0
118470,note_on,30,0,7,,,,,,,,,6,,,64,0
118470,note_on,30,0,2,,,,,,,,,1,,,76,0
118470,note_on,30,0,3,,,,,,,,,2,,,52,0
118500,note_on,30,0,3,,,,,,,,,2,,,52,125
118500,set_tempo,32,1,0,,,,,,396563,,,,,,,
118500,note_on,30,0,11,,,,,,,,,11,,,40,125
118500,note_on,30,0,8,,,,,,,,,7,,,64,125
118500,note_on,30,0,1,,,,,,,,,0,,,88,125
118500,note_on,30,0,9,,,,,,,,,8,,,64,125
118500,note_on,30,0,10,,,,,,,,,10,,,52,125
118500,note_on,30,0,7,,,,,,,,,6,,,64,125
118500,note_on,30,0,2,,,,,,,,,1,,,76,125
118530,note_on,30,0,7,,,,,,,,,6,,,64,0
118530,note_on,30,0,8,,,,,,,,,7,,,64,0
118530,note_on,30,0,9,,,,,,,,,8,,,64,0
118530,note_on,30,0,10,,,,,,,,,10,,,52,0
118530,note_on,30,0,2,,,,,,,,,1,,,76,0
118530,note_on,30,0,11,,,,,,,,,11,,,40,0
118530,note_on,30,0,1,,,,,,,,,0,,,88,0
118530,note_on,30,0,3,,,,,,,,,2,,,52,0
118531,set_tempo,31,1,0,,,,,,399042,,,,,,,
118560,note_on,120,0,4,,,,,,,,,3,,,64,0
118560,note_on,30,0,10,,,,,,,,,10,,,45,127
118560,note_on,30,0,1,,,,,,,,,0,,,85,127
118560,note_on,0,0,1,,,,,,,,,0,,,81,127
118560,note_on,0,0,4,,,,,,,,,3,,,69,127
118560,note_on,30,0,7,,,,,,,,,6,,,69,127
118560,note_on,120,0,6,,,,,,,,,5,,,45,127
118560,note_on,0,0,5,,,,,,,,,4,,,81,127
118560,note_on,30,0,8,,,,,,,,,7,,,69,127
118560,note_on,0,0,5,,,,,,,,,4,,,69,127
118560,note_on,0,0,4,,,,,,,,,3,,,57,127
118560,set_tempo,29,1,0,,,,,,401553,,,,,,,
118560,note_on,30,0,2,,,,,,,,,1,,,73,127
118560,note_on,120,0,5,,,,,,,,,4,,,76,0
118560,note_on,0,0,2,,,,,,,,,1,,,81,127
118560,note_on,30,0,3,,,,,,,,,2,,,45,127
118560,note_on,30,0,11,,,,,,,,,11,,,33,127
118560,note_on,30,0,9,,,,,,,,,8,,,57,127
118591,set_tempo,31,1,0,,,,,,404095,,,,,,,
118620,set_tempo,29,1,0,,,,,,406669,,,,,,,
118650,note_on,90,0,2,,,,,,,,,1,,,81,0
118650,note_on,0,0,1,,,,,,,,,0,,,85,0
118650,note_on,90,0,1,,,,,,,,,0,,,81,0
118650,note_on,90,0,9,,,,,,,,,8,,,57,0
118650,note_on,0,0,4,,,,,,,,,3,,,57,0
118650,note_on,90,0,4,,,,,,,,,3,,,69,0
118650,note_on,90,0,11,,,,,,,,,11,,,33,0
118650,note_on,0,0,2,,,,,,,,,1,,,73,0
118650,note_on,90,0,8,,,,,,,,,7,,,69,0
118650,note_on,90,0,7,,,,,,,,,6,,,69,0
118650,note_on,90,0,10,,,,,,,,,10,,,45,0
118650,note_on,90,0,5,,,,,,,,,4,,,81,0
118650,note_on,0,0,5,,,,,,,,,4,,,69,0
118650,note_on,90,0,3,,,,,,,,,2,,,45,0
118651,set_tempo,31,1,0,,,,,,409277,,,,,,,
118680,note_on,30,0,10,,,,,,,,,10,,,57,127
118680,note_on,30,0,3,,,,,,,,,2,,,57,127
118680,note_on,0,0,8,,,,,,,,,7,,,69,127
118680,note_on,0,0,6,,,,,,,,,5,,,45,127
118680,note_on,120,0,6,,,,,,,,,5,,,45,0
118680,note_on,0,0,2,,,,,,,,,1,,,85,127
118680,note_on,30,0,4,,,,,,,,,3,,,45,127
118680,note_on,0,0,7,,,,,,,,,6,,,73,127
118680,note_on,0,0,8,,,,,,,,,7,,,73,127
118680,note_on,30,0,11,,,,,,,,,11,,,45,127
118680,note_on,0,0,5,,,,,,,,,4,,,69,127
118680,note_on,30,0,5,,,,,,,,,4,,,57,127
118680,note_on,30,0,1,,,,,,,,,0,,,88,127
118680,note_on,0,0,1,,,,,,,,,0,,,85,127
118680,note_on,0,0,4,,,,,,,,,3,,,57,127
118680,note_on,30,0,2,,,,,,,,,1,,,76,127
118680,note_on,30,0,8,,,,,,,,,7,,,76,127
118680,note_on,30,0,9,,,,,,,,,8,,,69,127
118680,note_on,0,0,7,,,,,,,,,6,,,69,127
118680,note_on,30,0,7,,,,,,,,,6,,,76,127
118683,set_tempo,32,1,0,,,,,,411918,,,,,,,
118711,set_tempo,28,1,0,,,,,,414594,,,,,,,
118743,set_tempo,32,1,0,,,,,,417304,,,,,,,
118770,note_on,90,0,9,,,,,,,,,8,,,69,0
118770,note_on,90,0,3,,,,,,,,,2,,,57,0
118770,note_on,90,0,11,,,,,,,,,11,,,45,0
118770,note_on,90,0,7,,,,,,,,,6,,,69,0
118770,note_on,0,0,4,,,,,,,,,3,,,45,0
118770,note_on,90,0,4,,,,,,,,,3,,,57,0
118770,note_on,0,0,8,,,,,,,,,7,,,76,0
118770,note_on,90,0,2,,,,,,,,,1,,,85,0
118770,note_on,0,0,8,,,,,,,,,7,,,73,0
118770,note_on,0,0,7,,,,,,,,,6,,,73,0
118770,note_on,90,0,8,,,,,,,,,7,,,69,0
118770,note_on,90,0,10,,,,,,,,,10,,,57,0
118770,note_on,0,0,5,,,,,,,,,4,,,57,0
118770,note_on,90,0,5,,,,,,,,,4,,,69,0
118770,note_on,90,0,1,,,,,,,,,0,,,85,0
118770,note_on,0,0,1,,,,,,,,,0,,,88,0
118770,note_on,0,0,2,,,,,,,,,1,,,76,0
118770,note_on,0,0,7,,,,,,,,,6,,,76,0
118771,set_tempo,28,1,0,,,,,,420050,,,,,,,
118800,note_on,30,0,4,,,,,,,,,3,,,45,127
118800,note_on,0,0,4,,,,,,,,,3,,,57,127
118800,note_on,30,0,10,,,,,,,,,10,,,45,127
118800,note_on,30,0,8,,,,,,,,,7,,,81,127
118800,note_on,30,0,9,,,,,,,,,8,,,57,127
118800,note_on,0,0,7,,,,,,,,,6,,,73,127
118800,note_on,0,0,7,,,,,,,,,6,,,64,127
118800,note_on,0,0,1,,,,,,,,,0,,,85,127
118800,note_on,30,0,11,,,,,,,,,11,,,33,127
118800,note_on,30,0,1,,,,,,,,,0,,,81,127
118800,note_on,30,0,3,,,,,,,,,2,,,45,127
118800,note_on,30,0,5,,,,,,,,,4,,,57,127
118800,note_on,0,0,5,,,,,,,,,4,,,69,127
118800,note_on,0,0,2,,,,,,,,,1,,,81,127
118800,note_on,30,0,2,,,,,,,,,1,,,73,127
118800,note_on,0,0,8,,,,,,,,,7,,,73,127
118800,note_on,0,0,8,,,,,,,,,7,,,64,127
118800,note_on,30,0,7,,,,,,,,,6,,,81,127
118800,note_on,120,0,6,,,,,,,,,5,,,45,0
118800,note_on,0,0,6,,,,,,,,,5,,,45,127
118803,set_tempo,32,1,0,,,,,,422833,,,,,,,
118834,set_tempo,31,1,0,,,,,,425653,,,,,,,
118863,set_tempo,29,1,0,,,,,,428510,,,,,,,
118890,note_on,0,0,8,,,,,,,,,7,,,73,0
118890,note_on,0,0,8,,,,,,,,,7,,,81,0
118890,note_on,0,0,7,,,,,,,,,6,,,81,0
118890,note_on,0,0,7,,,,,,,,,6,,,73,0
118890,note_on,90,0,7,,,,,,,,,6,,,64,0
118890,note_on,90,0,8,,,,,,,,,7,,,64,0
118890,note_on,90,0,1,,,,,,,,,0,,,85,0
118890,note_on,0,0,1,,,,,,,,,0,,,81,0
118890,note_on,0,0,5,,,,,,,,,4,,,57,0
118890,note_on,90,0,3,,,,,,,,,2,,,45,0
118890,note_on,90,0,11,,,,,,,,,11,,,33,0
118890,note_on,0,0,2,,,,,,,,,1,,,73,0
118890,note_on,0,0,4,,,,,,,,,3,,,45,0
118890,note_on,90,0,4,,,,,,,,,3,,,57,0
118890,note_on,90,0,5,,,,,,,,,4,,,69,0
118890,note_on,90,0,2,,,,,,,,,1,,,81,0
118890,note_on,90,0,9,,,,,,,,,8,,,57,0
118890,note_on,90,0,10,,,,,,,,,10,,,45,0
118894,set_tempo,31,1,0,,,,,,431406,,,,,,,
118920,note_on,120,0,6,,,,,,,,,5,,,45,0
119040,note_on,150,0,7,,,,,,,,,6,,,69,50
119040,set_tempo,146,1,0,,,,,,352941,,,,,,,
119160,note_on,270,0,9,,,,,,,,,8,,,61,50
119160,note_on,270,0,11,,,,,,,,,11,,,49,50
119160,note_on,270,0,10,,,,,,,,,10,,,61,50
119220,note_on,60,0,9,,,,,,,,,8,,,61,0
119250,note_on,90,0,10,,,,,,,,,10,,,61,0
119250,note_on,90,0,11,,,,,,,,,11,,,49,0
119280,note_on,30,0,10,,,,,,,,,10,,,57,50
119280,note_on,60,0,9,,,,,,,,,8,,,57,50
119280,note_on,240,0,7,,,,,,,,,6,,,69,0
119280,note_on,0,0,7,,,,,,,,,6,,,81,50
119280,note_on,30,0,11,,,,,,,,,11,,,45,50
119340,note_on,60,0,9,,,,,,,,,8,,,57,0
119370,note_on,90,0,11,,,,,,,,,11,,,45,0
119370,note_on,90,0,10,,,,,,,,,10,,,57,0
119400,note_on,30,0,11,,,,,,,,,11,,,49,50
119400,note_on,60,0,9,,,,,,,,,8,,,61,50
119400,note_on,30,0,10,,,,,,,,,10,,,61,50
119460,note_on,60,0,9,,,,,,,,,8,,,61,0
119490,note_on,90,0,11,,,,,,,,,11,,,49,0
119490,note_on,90,0,10,,,,,,,,,10,,,61,0
119520,note_on,30,0,11,,,,,,,,,11,,,52,50
119520,note_on,630,0,8,,,,,,,,,7,,,59,50
119520,note_on,60,0,9,,,,,,,,,8,,,64,50
119520,note_on,30,0,10,,,,,,,,,10,,,64,50
119580,note_on,0,0,7,,,,,,,,,6,,,80,50
119580,note_on,300,0,7,,,,,,,,,6,,,81,0
119610,note_on,30,0,7,,,,,,,,,6,,,80,0
119640,note_on,120,0,10,,,,,,,,,10,,,64,0
119640,note_on,0,0,11,,,,,,,,,11,,,40,50
119640,note_on,0,0,9,,,,,,,,,8,,,52,50
119640,note_on,120,0,11,,,,,,,,,11,,,52,0
119640,note_on,120,0,9,,,,,,,,,8,,,64,0
119640,note_on,30,0,7,,,,,,,,,6,,,78,50
119640,note_on,0,0,10,,,,,,,,,10,,,52,50
119670,note_on,30,0,7,,,,,,,,,6,,,78,0
119700,note_on,30,0,7,,,,,,,,,6,,,76,50
119730,note_on,30,0,7,,,,,,,,,6,,,76,0
119760,note_on,120,0,11,,,,,,,,,11,,,40,0
119760,note_on,240,0,8,,,,,,,,,7,,,59,0
119760,note_on,0,0,8,,,,,,,,,7,,,71,50
119760,note_on,120,0,9,,,,,,,,,8,,,52,0
119760,note_on,120,0,10,,,,,,,,,10,,,52,0
119760,note_on,30,0,7,,,,,,,,,6,,,76,50
119820,note_on,60,0,7,,,,,,,,,6,,,76,0
119820,note_on,0,0,7,,,,,,,,,6,,,74,50
119850,note_on,30,0,7,,,,,,,,,6,,,74,0
119880,note_on,120,0,10,,,,,,,,,10,,,56,50
119880,note_on,120,0,9,,,,,,,,,8,,,56,50
119880,note_on,120,0,11,,,,,,,,,11,,,44,50
119880,note_on,30,0,7,,,,,,,,,6,,,73,50
119910,note_on,30,0,7,,,,,,,,,6,,,73,0
119940,note_on,30,0,7,,,,,,,,,6,,,71,50
119970,note_on,30,0,7,,,,,,,,,6,,,71,0
120000,note_on,0,0,11,,,,,,,,,11,,,45,50
120000,note_on,120,0,11,,,,,,,,,11,,,44,0
120000,note_on,0,0,9,,,,,,,,,8,,,57,50
120000,note_on,30,0,7,,,,,,,,,6,,,73,50
120000,note_on,0,0,10,,,,,,,,,10,,,57,50
120000,note_on,120,0,10,,,,,,,,,10,,,56,0
120000,note_on,120,0,9,,,,,,,,,8,,,56,0
120060,note_on,300,0,8,,,,,,,,,7,,,71,0
120060,note_on,0,0,8,,,,,,,,,7,,,69,50
120090,note_on,90,0,10,,,,,,,,,10,,,57,0
120090,note_on,90,0,11,,,,,,,,,11,,,45,0
120090,note_on,30,0,8,,,,,,,,,7,,,69,0
120120,note_on,30,0,8,,,,,,,,,7,,,68,50
120120,note_on,30,0,11,,,,,,,,,11,,,33,50
120120,note_on,30,0,10,,,,,,,,,10,,,45,50
120150,note_on,30,0,8,,,,,,,,,7,,,68,0
120180,note_on,30,0,8,,,,,,,,,7,,,66,50
120210,note_on,90,0,10,,,,,,,,,10,,,45,0
120210,note_on,90,0,11,,,,,,,,,11,,,33,0
120210,note_on,30,0,8,,,,,,,,,7,,,66,0
120240,note_on,0,0,7,,,,,,,,,6,,,85,50
120240,note_on,30,0,8,,,,,,,,,7,,,66,50
120240,note_on,240,0,7,,,,,,,,,6,,,73,0
120300,note_on,60,0,8,,,,,,,,,7,,,66,0
120300,note_on,0,0,8,,,,,,,,,7,,,64,50
120330,note_on,30,0,8,,,,,,,,,7,,,64,0
120360,note_on,150,0,10,,,,,,,,,10,,,58,50
120360,note_on,0,0,9,,,,,,,,,8,,,58,50
120360,note_on,150,0,11,,,,,,,,,11,,,46,50
120360,note_on,30,0,8,,,,,,,,,7,,,62,50
120360,note_on,360,0,9,,,,,,,,,8,,,57,0
120390,note_on,30,0,8,,,,,,,,,7,,,62,0
120420,note_on,30,0,8,,,,,,,,,7,,,61,50
120450,note_on,30,0,8,,,,,,,,,7,,,61,0
120480,note_on,120,0,10,,,,,,,,,10,,,58,0
120480,note_on,0,0,10,,,,,,,,,10,,,59,50
120480,note_on,120,0,11,,,,,,,,,11,,,46,0
120480,note_on,120,0,9,,,,,,,,,8,,,58,0
120480,note_on,0,0,9,,,,,,,,,8,,,59,50
120480,note_on,30,0,8,,,,,,,,,7,,,62,50
120480,note_on,0,0,11,,,,,,,,,11,,,47,50
120540,note_on,300,0,7,,,,,,,,,6,,,85,0
120540,note_on,0,0,7,,,,,,,,,6,,,83,50
120570,note_on,30,0,7,,,,,,,,,6,,,83,0
120570,note_on,90,0,11,,,,,,,,,11,,,47,0
120570,note_on,90,0,10,,,,,,,,,10,,,59,0
120600,note_on,30,0,11,,,,,,,,,11,,,35,50
120600,note_on,30,0,7,,,,,,,,,6,,,81,50
120600,note_on,30,0,10,,,,,,,,,10,,,47,50
120630,note_on,30,0,7,,,,,,,,,6,,,81,0
120660,note_on,30,0,7,,,,,,,,,6,,,80,50
120690,note_on,90,0,11,,,,,,,,,11,,,35,0
120690,note_on,30,0,7,,,,,,,,,6,,,80,0
120690,note_on,90,0,10,,,,,,,,,10,,,47,0
120720,note_on,240,0,8,,,,,,,,,7,,,62,0
120720,note_on,0,0,8,,,,,,,,,7,,,74,50
120720,note_on,30,0,7,,,,,,,,,6,,,80,50
120780,note_on,0,0,7,,,,,,,,,6,,,78,50
120780,note_on,60,0,7,,,,,,,,,6,,,80,0
120810,note_on,30,0,7,,,,,,,,,6,,,78,0
120840,note_on,30,0,7,,,,,,,,,6,,,76,50
120840,note_on,150,0,10,,,,,,,,,10,,,59,50
120840,note_on,150,0,11,,,,,,,,,11,,,47,50
120870,note_on,30,0,7,,,,,,,,,6,,,76,0
120900,note_on,30,0,7,,,,,,,,,6,,,74,50
120930,note_on,30,0,7,,,,,,,,,6,,,74,0
120960,note_on,0,0,9,,,,,,,,,8,,,61,50
120960,note_on,120,0,10,,,,,,,,,10,,,59,0
120960,note_on,480,0,9,,,,,,,,,8,,,59,0
120960,note_on,0,0,10,,,,,,,,,10,,,61,50
120960,note_on,30,0,7,,,,,,,,,6,,,76,50
120960,note_on,120,0,11,,,,,,,,,11,,,47,0
120960,note_on,0,0,11,,,,,,,,,11,,,49,50
121020,note_on,300,0,8,,,,,,,,,7,,,74,0
121020,note_on,0,0,8,,,,,,,,,7,,,73,50
121050,note_on,90,0,11,,,,,,,,,11,,,49,0
121050,note_on,90,0,10,,,,,,,,,10,,,61,0
121050,note_on,30,0,8,,,,,,,,,7,,,73,0
121080,note_on,30,0,11,,,,,,,,,11,,,37,50
121080,note_on,30,0,10,,,,,,,,,10,,,49,50
121080,note_on,30,0,8,,,,,,,,,7,,,71,50
121110,note_on,30,0,8,,,,,,,,,7,,,71,0
121140,note_on,30,0,8,,,,,,,,,7,,,69,50
121170,note_on,30,0,8,,,,,,,,,7,,,69,0
121170,note_on,90,0,11,,,,,,,,,11,,,37,0
121170,note_on,90,0,10,,,,,,,,,10,,,49,0
121200,note_on,30,0,8,,,,,,,,,7,,,69,50
121200,note_on,0,0,7,,,,,,,,,6,,,88,50
121200,note_on,240,0,7,,,,,,,,,6,,,76,0
121260,note_on,0,0,8,,,,,,,,,7,,,68,50
121260,note_on,60,0,8,,,,,,,,,7,,,69,0
121290,note_on,30,0,8,,,,,,,,,7,,,68,0
121320,note_on,150,0,11,,,,,,,,,11,,,49,50
121320,note_on,30,0,8,,,,,,,,,7,,,66,50
121320,note_on,150,0,10,,,,,,,,,10,,,61,50
121350,note_on,30,0,8,,,,,,,,,7,,,66,0
121380,note_on,30,0,8,,,,,,,,,7,,,64,50
121410,note_on,30,0,8,,,,,,,,,7,,,64,0
121440,note_on,120,0,10,,,,,,,,,10,,,61,0
121440,note_on,0,0,10,,,,,,,,,10,,,62,50
121440,note_on,0,0,11,,,,,,,,,11,,,50,50
121440,note_on,480,0,9,,,,,,,,,8,,,61,0
121440,note_on,0,0,9,,,,,,,,,8,,,62,50
121440,note_on,30,0,8,,,,,,,,,7,,,66,50
121440,note_on,120,0,11,,,,,,,,,11,,,49,0
121500,note_on,300,0,7,,,,,,,,,6,,,88,0
121500,note_on,0,0,7,,,,,,,,,6,,,86,50
121530,note_on,90,0,11,,,,,,,,,11,,,50,0
121530,note_on,90,0,10,,,,,,,,,10,,,62,0
121530,note_on,30,0,7,,,,,,,,,6,,,86,0
121560,note_on,30,0,10,,,,,,,,,10,,,50,50
121560,note_on,30,0,11,,,,,,,,,11,,,38,50
121560,note_on,30,0,7,,,,,,,,,6,,,85,50
121590,note_on,30,0,7,,,,,,,,,6,,,85,0
121620,note_on,30,0,7,,,,,,,,,6,,,83,50
121650,note_on,90,0,11,,,,,,,,,11,,,38,0
121650,note_on,90,0,10,,,,,,,,,10,,,50,0
121650,note_on,30,0,7,,,,,,,,,6,,,83,0
121680,note_on,240,0,8,,,,,,,,,7,,,66,0
121680,note_on,0,0,8,,,,,,,,,7,,,78,50
121680,note_on,30,0,7,,,,,,,,,6,,,86,50
121740,note_on,0,0,7,,,,,,,,,6,,,85,50
121740,note_on,60,0,7,,,,,,,,,6,,,86,0
121770,note_on,30,0,7,,,,,,,,,6,,,85,0
121800,note_on,150,0,11,,,,,,,,,11,,,50,50
121800,note_on,30,0,7,,,,,,,,,6,,,83,50
121800,note_on,150,0,10,,,,,,,,,10,,,62,50
121830,note_on,30,0,7,,,,,,,,,6,,,83,0
121860,note_on,30,0,7,,,,,,,,,6,,,81,50
121890,note_on,30,0,7,,,,,,,,,6,,,81,0
121920,note_on,0,0,11,,,,,,,,,11,,,52,50
121920,note_on,120,0,11,,,,,,,,,11,,,50,0
121920,note_on,480,0,9,,,,,,,,,8,,,62,0
121920,note_on,0,0,9,,,,,,,,,8,,,64,50
121920,note_on,30,0,7,,,,,,,,,6,,,80,50
121920,note_on,120,0,10,,,,,,,,,10,,,62,0
121920,note_on,0,0,10,,,,,,,,,10,,,64,50
121980,note_on,300,0,8,,,,,,,,,7,,,78,0
121980,note_on,0,0,8,,,,,,,,,7,,,76,50
122010,note_on,90,0,11,,,,,,,,,11,,,52,0
122010,note_on,90,0,10,,,,,,,,,10,,,64,0
122010,note_on,30,0,8,,,,,,,,,7,,,76,0
122010,note_on,90,0,9,,,,,,,,,8,,,64,0
122040,note_on,30,0,8,,,,,,,,,7,,,74,50
122040,note_on,30,0,11,,,,,,,,,11,,,54,50
122040,note_on,0,0,7,,,,,,,,,6,,,81,50
122040,note_on,30,0,9,,,,,,,,,8,,,66,50
122040,note_on,30,0,10,,,,,,,,,10,,,66,50
122040,note_on,120,0,7,,,,,,,,,6,,,80,0
122055,note_on,15,0,7,,,,,,,,,6,,,81,0
122055,note_on,0,0,7,,,,,,,,,6,,,80,50
122070,note_on,15,0,7,,,,,,,,,6,,,80,0
122070,note_on,0,0,7,,,,,,,,,6,,,81,50
122070,note_on,30,0,8,,,,,,,,,7,,,74,0
122085,note_on,15,0,7,,,,,,,,,6,,,81,0
122085,note_on,0,0,7,,,,,,,,,6,,,80,50
122100,note_on,0,0,7,,,,,,,,,6,,,80,50
122100,note_on,15,0,7,,,,,,,,,6,,,80,0
122100,note_on,30,0,8,,,,,,,,,7,,,73,50
122130,note_on,90,0,9,,,,,,,,,8,,,66,0
122130,note_on,30,0,8,,,,,,,,,7,,,73,0
122130,note_on,30,0,7,,,,,,,,,6,,,80,0
122130,note_on,90,0,10,,,,,,,,,10,,,66,0
122130,note_on,0,0,7,,,,,,,,,6,,,81,50
122130,note_on,90,0,11,,,,,,,,,11,,,54,0
122160,note_on,30,0,8,,,,,,,,,7,,,76,50
122160,note_on,30,0,10,,,,,,,,,10,,,62,50
122160,note_on,30,0,9,,,,,,,,,8,,,62,50
122160,note_on,0,0,7,,,,,,,,,6,,,83,50
122160,note_on,30,0,7,,,,,,,,,6,,,81,0
122160,note_on,30,0,11,,,,,,,,,11,,,50,50
122220,note_on,0,0,8,,,,,,,,,7,,,74,50
122220,note_on,60,0,8,,,,,,,,,7,,,76,0
122250,note_on,90,0,11,,,,,,,,,11,,,50,0
122250,note_on,30,0,8,,,,,,,,,7,,,74,0
122250,note_on,90,0,10,,,,,,,,,10,,,62,0
122250,note_on,90,0,9,,,,,,,,,8,,,62,0
122280,note_on,30,0,10,,,,,,,,,10,,,64,50
122280,note_on,30,0,11,,,,,,,,,11,,,52,50
122280,note_on,0,0,7,,,,,,,,,6,,,80,50
122280,note_on,120,0,7,,,,,,,,,6,,,83,0
122280,note_on,30,0,9,,,,,,,,,8,,,64,50
122280,note_on,30,0,8,,,,,,,,,7,,,73,50
122310,note_on,30,0,8,,,,,,,,,7,,,73,0
122340,note_on,30,0,8,,,,,,,,,7,,,71,50
122370,note_on,90,0,11,,,,,,,,,11,,,52,0
122370,note_on,90,0,10,,,,,,,,,10,,,64,0
122370,note_on,90,0,9,,,,,,,,,8,,,64,0
122370,note_on,30,0,8,,,,,,,,,7,,,71,0
122400,note_on,0,0,7,,,,,,,,,6,,,83,50
122400,note_on,120,0,7,,,,,,,,,6,,,80,0
122400,note_on,30,0,9,,,,,,,,,8,,,57,50
122400,note_on,30,0,10,,,,,,,,,10,,,57,50
122400,note_on,30,0,8,,,,,,,,,7,,,73,50
122400,note_on,30,0,11,,,,,,,,,11,,,45,50
122460,note_on,60,0,7,,,,,,,,,6,,,83,0
122460,note_on,0,0,7,,,,,,,,,6,,,81,50
122490,note_on,90,0,8,,,,,,,,,7,,,73,0
122490,note_on,30,0,7,,,,,,,,,6,,,81,0
122520,note_on,30,0,8,,,,,,,,,7,,,75,50
122520,note_on,30,0,7,,,,,,,,,6,,,79,50
122535,note_on,0,0,8,,,,,,,,,7,,,73,50
122535,note_on,15,0,8,,,,,,,,,7,,,75,0
122550,note_on,15,0,8,,,,,,,,,7,,,73,0
122550,note_on,30,0,7,,,,,,,,,6,,,79,0
122550,note_on,0,0,8,,,,,,,,,7,,,75,50
122565,note_on,0,0,8,,,,,,,,,7,,,73,50
122565,note_on,15,0,8,,,,,,,,,7,,,75,0
122580,note_on,0,0,8,,,,,,,,,7,,,73,50
122580,note_on,30,0,7,,,,,,,,,6,,,78,50
122580,note_on,15,0,8,,,,,,,,,7,,,73,0
122610,note_on,30,0,7,,,,,,,,,6,,,78,0
122610,note_on,30,0,8,,,,,,,,,7,,,73,0
122610,note_on,0,0,8,,,,,,,,,7,,,75,50
122640,note_on,30,0,7,,,,,,,,,6,,,81,50
122640,note_on,30,0,8,,,,,,,,,7,,,75,0
122640,note_on,0,0,8,,,,,,,,,7,,,76,50
122700,note_on,0,0,7,,,,,,,,,6,,,79,50
122700,note_on,60,0,7,,,,,,,,,6,,,81,0
122730,note_on,30,0,7,,,,,,,,,6,,,79,0
122730,note_on,90,0,8,,,,,,,,,7,,,76,0
122760,note_on,30,0,8,,,,,,,,,7,,,73,50
122760,note_on,30,0,7,,,,,,,,,6,,,78,50
122790,note_on,30,0,7,,,,,,,,,6,,,78,0
122820,note_on,30,0,7,,,,,,,,,6,,,76,50
122850,note_on,90,0,8,,,,,,,,,7,,,73,0
122850,note_on,30,0,7,,,,,,,,,6,,,76,0
122880,note_on,0,0,10,,,,,,,,,10,,,50,100
122880,note_on,3990,0,3,,,,,,,,,2,,,50,100
122880,note_on,0,0,11,,,,,,,,,11,,,38,100
122880,note_on,480,0,11,,,,,,,,,11,,,45,0
122880,note_on,0,0,9,,,,,,,,,8,,,50,100
122880,note_on,480,0,9,,,,,,,,,8,,,57,0
122880,note_on,480,0,10,,,,,,,,,10,,,57,0
122880,note_on,30,0,8,,,,,,,,,7,,,62,100
122880,note_on,0,0,7,,,,,,,,,6,,,74,100
122880,note_on,30,0,7,,,,,,,,,6,,,62,100
122880,note_on,0,0,8,,,,,,,,,7,,,74,100
123120,note_on,0,0,3,,,,,,,,,2,,,62,100
123120,note_on,0,0,8,,,,,,,,,7,,,62,0
123120,note_on,240,0,8,,,,,,,,,7,,,74,0
123120,note_on,240,0,3,,,,,,,,,2,,,50,0
123120,note_on,240,0,11,,,,,,,,,11,,,38,0
123120,note_on,240,0,10,,,,,,,,,10,,,50,0
123120,note_on,0,0,11,,,,,,,,,11,,,50,100
123120,note_on,240,0,7,,,,,,,,,6,,,74,0
123120,note_on,0,0,7,,,,,,,,,6,,,62,0
123120,note_on,240,0,9,,,,,,,,,8,,,50,0
123120,note_on,0,0,10,,,,,,,,,10,,,62,100
123120,note_on,0,0,9,,,,,,,,,8,,,62,100
123240,note_on,120,0,8,,,,,,,,,7,,,78,100
123240,note_on,120,0,7,,,,,,,,,6,,,78,100
123255,note_on,15,0,7,,,,,,,,,6,,,78,0
123255,note_on,0,0,7,,,,,,,,,6,,,76,100
123255,note_on,15,0,8,,,,,,,,,7,,,78,0
123255,note_on,0,0,8,,,,,,,,,7,,,76,100
123270,note_on,15,0,8,,,,,,,,,7,,,76,0
123270,note_on,0,0,8,,,,,,,,,7,,,78,100
123270,note_on,15,0,7,,,,,,,,,6,,,76,0
123270,note_on,0,0,7,,,,,,,,,6,,,78,100
123285,note_on,15,0,8,,,,,,,,,7,,,78,0
123285,note_on,0,0,8,,,,,,,,,7,,,76,100
123285,note_on,15,0,7,,,,,,,,,6,,,78,0
123285,note_on,0,0,7,,,,,,,,,6,,,76,100
123300,note_on,0,0,8,,,,,,,,,7,,,76,100
123300,note_on,15,0,8,,,,,,,,,7,,,76,0
123300,note_on,0,0,7,,,,,,,,,6,,,76,100
123300,note_on,15,0,7,,,,,,,,,6,,,76,0
123330,note_on,30,0,7,,,,,,,,,6,,,76,0
123330,note_on,0,0,8,,,,,,,,,7,,,78,100
123330,note_on,30,0,8,,,,,,,,,7,,,76,0
123330,note_on,0,0,7,,,,,,,,,6,,,78,100
123360,note_on,30,0,8,,,,,,,,,7,,,78,0
123360,note_on,30,0,7,,,,,,,,,6,,,78,0
123360,note_on,0,0,7,,,,,,,,,6,,,79,100
123360,note_on,0,0,8,,,,,,,,,7,,,79,100
123360,note_on,0,0,9,,,,,,,,,8,,,52,100
123360,note_on,240,0,9,,,,,,,,,8,,,62,0
123420,note_on,0,0,3,,,,,,,,,2,,,61,100
123420,note_on,300,0,3,,,,,,,,,2,,,62,0
123420,note_on,0,0,10,,,,,,,,,10,,,61,100
123420,note_on,300,0,10,,,,,,,,,10,,,62,0
123420,note_on,300,0,11,,,,,,,,,11,,,50,0
123420,note_on,0,0,11,,,,,,,,,11,,,49,100
123450,note_on,30,0,3,,,,,,,,,2,,,61,0
123450,note_on,30,0,11,,,,,,,,,11,,,49,0
123450,note_on,90,0,8,,,,,,,,,7,,,79,0
123450,note_on,90,0,7,,,,,,,,,6,,,79,0
123450,note_on,30,0,10,,,,,,,,,10,,,61,0
123480,note_on,30,0,10,,,,,,,,,10,,,59,100
123480,note_on,30,0,7,,,,,,,,,6,,,67,100
123480,note_on,30,0,11,,,,,,,,,11,,,47,100
123480,note_on,30,0,3,,,,,,,,,2,,,59,100
123480,note_on,30,0,8,,,,,,,,,7,,,67,100
123510,note_on,30,0,11,,,,,,,,,11,,,47,0
123510,note_on,30,0,3,,,,,,,,,2,,,59,0
123510,note_on,30,0,10,,,,,,,,,10,,,59,0
123540,note_on,30,0,11,,,,,,,,,11,,,45,100
123540,note_on,30,0,3,,,,,,,,,2,,,57,100
123540,note_on,30,0,10,,,,,,,,,10,,,57,100
123570,note_on,30,0,11,,,,,,,,,11,,,45,0
123570,note_on,90,0,8,,,,,,,,,7,,,67,0
123570,note_on,90,0,7,,,,,,,,,6,,,67,0
123570,note_on,30,0,10,,,,,,,,,10,,,57,0
123570,note_on,30,0,3,,,,,,,,,2,,,57,0
123600,note_on,30,0,10,,,,,,,,,10,,,57,100
123600,note_on,30,0,3,,,,,,,,,2,,,57,100
123600,note_on,0,0,9,,,,,,,,,8,,,64,100
123600,note_on,30,0,11,,,,,,,,,11,,,45,100
123600,note_on,240,0,9,,,,,,,,,8,,,52,0
123660,note_on,60,0,11,,,,,,,,,11,,,45,0
123660,note_on,0,0,11,,,,,,,,,11,,,43,100
123660,note_on,0,0,3,,,,,,,,,2,,,55,100
123660,note_on,0,0,10,,,,,,,,,10,,,55,100
123660,note_on,60,0,3,,,,,,,,,2,,,57,0
123660,note_on,60,0,10,,,,,,,,,10,,,57,0
123690,note_on,30,0,10,,,,,,,,,10,,,55,0
123690,note_on,30,0,11,,,,,,,,,11,,,43,0
123690,note_on,30,0,3,,,,,,,,,2,,,55,0
123720,note_on,30,0,11,,,,,,,,,11,,,42,100
123720,note_on,30,0,10,,,,,,,,,10,,,54,100
123720,note_on,150,0,7,,,,,,,,,6,,,79,100
123720,note_on,30,0,3,,,,,,,,,2,,,54,100
123720,note_on,150,0,8,,,,,,,,,7,,,79,100
123735,note_on,15,0,8,,,,,,,,,7,,,79,0
123735,note_on,0,0,7,,,,,,,,,6,,,78,100
123735,note_on,15,0,7,,,,,,,,,6,,,79,0
123735,note_on,0,0,8,,,,,,,,,7,,,78,100
123750,note_on,30,0,11,,,,,,,,,11,,,42,0
123750,note_on,15,0,8,,,,,,,,,7,,,78,0
123750,note_on,0,0,8,,,,,,,,,7,,,79,100
123750,note_on,30,0,3,,,,,,,,,2,,,54,0
123750,note_on,30,0,10,,,,,,,,,10,,,54,0
123750,note_on,15,0,7,,,,,,,,,6,,,78,0
123750,note_on,0,0,7,,,,,,,,,6,,,79,100
123765,note_on,0,0,7,,,,,,,,,6,,,78,100
123765,note_on,0,0,8,,,,,,,,,7,,,78,100
123765,note_on,15,0,8,,,,,,,,,7,,,79,0
123765,note_on,15,0,7,,,,,,,,,6,,,79,0
123780,note_on,30,0,10,,,,,,,,,10,,,52,100
123780,note_on,30,0,3,,,,,,,,,2,,,52,100
123780,note_on,15,0,7,,,,,,,,,6,,,78,0
123780,note_on,15,0,8,,,,,,,,,7,,,78,0
123780,note_on,30,0,11,,,,,,,,,11,,,40,100
123780,note_on,0,0,8,,,,,,,,,7,,,78,100
123780,note_on,0,0,7,,,,,,,,,6,,,78,100
123810,note_on,30,0,7,,,,,,,,,6,,,78,0
123810,note_on,30,0,11,,,,,,,,,11,,,40,0
123810,note_on,0,0,7,,,,,,,,,6,,,79,100
123810,note_on,30,0,3,,,,,,,,,2,,,52,0
123810,note_on,0,0,8,,,,,,,,,7,,,79,100
123810,note_on,30,0,8,,,,,,,,,7,,,78,0
123810,note_on,30,0,10,,,,,,,,,10,,,52,0
123840,note_on,30,0,3,,,,,,,,,2,,,54,100
123840,note_on,0,0,8,,,,,,,,,7,,,81,100
123840,note_on,0,0,7,,,,,,,,,6,,,81,100
123840,note_on,30,0,7,,,,,,,,,6,,,79,0
123840,note_on,30,0,11,,,,,,,,,11,,,42,100
123840,note_on,30,0,10,,,,,,,,,10,,,54,100
123840,note_on,30,0,8,,,,,,,,,7,,,79,0
123900,note_on,300,0,9,,,,,,,,,8,,,64,0
123900,note_on,0,0,9,,,,,,,,,8,,,62,100
123930,note_on,90,0,8,,,,,,,,,7,,,81,0
123930,note_on,90,0,7,,,,,,,,,6,,,81,0
123930,note_on,30,0,9,,,,,,,,,8,,,62,0
123960,note_on,30,0,8,,,,,,,,,7,,,69,100
123960,note_on,30,0,9,,,,,,,,,8,,,61,100
123960,note_on,30,0,7,,,,,,,,,6,,,69,100
123990,note_on,30,0,9,,,,,,,,,8,,,61,0
124020,note_on,30,0,9,,,,,,,,,8,,,59,100
124050,note_on,90,0,7,,,,,,,,,6,,,69,0
124050,note_on,30,0,9,,,,,,,,,8,,,59,0
124050,note_on,90,0,8,,,,,,,,,7,,,69,0
124080,note_on,240,0,11,,,,,,,,,11,,,42,0
124080,note_on,30,0,9,,,,,,,,,8,,,59,100
124080,note_on,240,0,3,,,,,,,,,2,,,54,0
124080,note_on,0,0,3,,,,,,,,,2,,,66,100
124080,note_on,0,0,11,,,,,,,,,11,,,54,100
124080,note_on,240,0,10,,,,,,,,,10,,,54,0
124080,note_on,0,0,10,,,,,,,,,10,,,66,100
124140,note_on,0,0,9,,,,,,,,,8,,,57,100
124140,note_on,60,0,9,,,,,,,,,8,,,59,0
124170,note_on,30,0,9,,,,,,,,,8,,,57,0
124200,note_on,150,0,8,,,,,,,,,7,,,81,100
124200,note_on,30,0,9,,,,,,,,,8,,,55,100
124200,note_on,150,0,7,,,,,,,,,6,,,81,100
124215,note_on,0,0,8,,,,,,,,,7,,,79,100
124215,note_on,15,0,8,,,,,,,,,7,,,81,0
124215,note_on,0,0,7,,,,,,,,,6,,,79,100
124215,note_on,15,0,7,,,,,,,,,6,,,81,0
124230,note_on,15,0,7,,,,,,,,,6,,,79,0
124230,note_on,0,0,7,,,,,,,,,6,,,81,100
124230,note_on,0,0,8,,,,,,,,,7,,,81,100
124230,note_on,15,0,8,,,,,,,,,7,,,79,0
124230,note_on,30,0,9,,,,,,,,,8,,,55,0
124245,note_on,15,0,7,,,,,,,,,6,,,81,0
124245,note_on,0,0,7,,,,,,,,,6,,,79,100
124245,note_on,15,0,8,,,,,,,,,7,,,81,0
124245,note_on,0,0,8,,,,,,,,,7,,,79,100
124260,note_on,15,0,7,,,,,,,,,6,,,79,0
124260,note_on,0,0,7,,,,,,,,,6,,,79,100
124260,note_on,30,0,9,,,,,,,,,8,,,54,100
124260,note_on,15,0,8,,,,,,,,,7,,,79,0
124260,note_on,0,0,8,,,,,,,,,7,,,79,100
124290,note_on,0,0,7,,,,,,,,,6,,,81,100
124290,note_on,30,0,7,,,,,,,,,6,,,79,0
124290,note_on,30,0,8,,,,,,,,,7,,,79,0
124290,note_on,0,0,8,,,,,,,,,7,,,81,100
124290,note_on,30,0,9,,,,,,,,,8,,,54,0
124320,note_on,30,0,9,,,,,,,,,8,,,55,100
124320,note_on,0,0,7,,,,,,,,,6,,,83,100
124320,note_on,30,0,7,,,,,,,,,6,,,81,0
124320,note_on,30,0,8,,,,,,,,,7,,,81,0
124320,note_on,0,0,8,,,,,,,,,7,,,83,100
124380,note_on,0,0,11,,,,,,,,,11,,,52,100
124380,note_on,300,0,3,,,,,,,,,2,,,66,0
124380,note_on,300,0,11,,,,,,,,,11,,,54,0
124380,note_on,300,0,10,,,,,,,,,10,,,66,0
124380,note_on,0,0,10,,,,,,,,,10,,,64,100
124380,note_on,0,0,3,,,,,,,,,2,,,64,100
124410,note_on,30,0,11,,,,,,,,,11,,,52,0
124410,note_on,30,0,3,,,,,,,,,2,,,64,0
124410,note_on,90,0,7,,,,,,,,,6,,,83,0
124410,note_on,30,0,10,,,,,,,,,10,,,64,0
124410,note_on,90,0,8,,,,,,,,,7,,,83,0
124440,note_on,30,0,8,,,,,,,,,7,,,71,100
124440,note_on,30,0,11,,,,,,,,,11,,,50,100
124440,note_on,30,0,7,,,,,,,,,6,,,71,100
124440,note_on,30,0,10,,,,,,,,,10,,,62,100
124440,note_on,30,0,3,,,,,,,,,2,,,62,100
124470,note_on,30,0,11,,,,,,,,,11,,,50,0
124470,note_on,30,0,3,,,,,,,,,2,,,62,0
124470,note_on,30,0,10,,,,,,,,,10,,,62,0
124500,note_on,30,0,10,,,,,,,,,10,,,61,100
124500,note_on,30,0,11,,,,,,,,,11,,,49,100
124500,note_on,30,0,3,,,,,,,,,2,,,61,100
124530,note_on,90,0,8,,,,,,,,,7,,,71,0
124530,note_on,30,0,11,,,,,,,,,11,,,49,0
124530,note_on,90,0,7,,,,,,,,,6,,,71,0
124530,note_on,30,0,3,,,,,,,,,2,,,61,0
124530,note_on,30,0,10,,,,,,,,,10,,,61,0
124560,note_on,30,0,11,,,,,,,,,11,,,52,100
124560,note_on,30,0,3,,,,,,,,,2,,,64,100
124560,note_on,30,0,10,,,,,,,,,10,,,64,100
124560,note_on,240,0,9,,,,,,,,,8,,,55,0
124560,note_on,0,0,9,,,,,,,,,8,,,67,100
124620,note_on,0,0,11,,,,,,,,,11,,,50,100
124620,note_on,60,0,10,,,,,,,,,10,,,64,0
124620,note_on,0,0,10,,,,,,,,,10,,,62,100
124620,note_on,60,0,11,,,,,,,,,11,,,52,0
124620,note_on,0,0,3,,,,,,,,,2,,,62,100
124620,note_on,60,0,3,,,,,,,,,2,,,64,0
124650,note_on,30,0,10,,,,,,,,,10,,,62,0
124650,note_on,30,0,11,,,,,,,,,11,,,50,0
124650,note_on,30,0,3,,,,,,,,,2,,,62,0
124680,note_on,30,0,11,,,,,,,,,11,,,49,100
124680,note_on,30,0,3,,,,,,,,,2,,,61,100
124680,note_on,30,0,10,,,,,,,,,10,,,61,100
124680,note_on,150,0,8,,,,,,,,,7,,,83,100
124680,note_on,150,0,7,,,,,,,,,6,,,83,100
124695,note_on,15,0,8,,,,,,,,,7,,,83,0
124695,note_on,0,0,8,,,,,,,,,7,,,81,100
124695,note_on,15,0,7,,,,,,,,,6,,,83,0
124695,note_on,0,0,7,,,,,,,,,6,,,81,100
124710,note_on,30,0,11,,,,,,,,,11,,,49,0
124710,note_on,0,0,8,,,,,,,,,7,,,83,100
124710,note_on,30,0,10,,,,,,,,,10,,,61,0
124710,note_on,15,0,8,,,,,,,,,7,,,81,0
124710,note_on,15,0,7,,,,,,,,,6,,,81,0
124710,note_on,0,0,7,,,,,,,,,6,,,83,100
124710,note_on,30,0,3,,,,,,,,,2,,,61,0
124725,note_on,0,0,8,,,,,,,,,7,,,81,100
124725,note_on,0,0,7,,,,,,,,,6,,,81,100
124725,note_on,15,0,7,,,,,,,,,6,,,83,0
124725,note_on,15,0,8,,,,,,,,,7,,,83,0
124740,note_on,30,0,3,,,,,,,,,2,,,59,100
124740,note_on,15,0,7,,,,,,,,,6,,,81,0
124740,note_on,0,0,8,,,,,,,,,7,,,81,100
124740,note_on,30,0,11,,,,,,,,,11,,,47,100
124740,note_on,0,0,7,,,,,,,,,6,,,81,100
124740,note_on,30,0,10,,,,,,,,,10,,,59,100
124740,note_on,15,0,8,,,,,,,,,7,,,81,0
124770,note_on,30,0,11,,,,,,,,,11,,,47,0
124770,note_on,0,0,8,,,,,,,,,7,,,83,100
124770,note_on,30,0,10,,,,,,,,,10,,,59,0
124770,note_on,0,0,7,,,,,,,,,6,,,83,100
124770,note_on,30,0,7,,,,,,,,,6,,,81,0
124770,note_on,30,0,8,,,,,,,,,7,,,81,0
124770,note_on,30,0,3,,,,,,,,,2,,,59,0
124800,note_on,30,0,10,,,,,,,,,10,,,58,100
124800,note_on,0,0,7,,,,,,,,,6,,,85,100
124800,note_on,30,0,8,,,,,,,,,7,,,83,0
124800,note_on,0,0,8,,,,,,,,,7,,,85,100
124800,note_on,30,0,7,,,,,,,,,6,,,83,0
124800,note_on,30,0,11,,,,,,,,,11,,,46,100
124800,note_on,30,0,3,,,,,,,,,2,,,58,100
124860,note_on,300,0,9,,,,,,,,,8,,,67,0
124860,note_on,0,0,9,,,,,,,,,8,,,66,100
124890,note_on,90,0,8,,,,,,,,,7,,,85,0
124890,note_on,30,0,9,,,,,,,,,8,,,66,0
124890,note_on,90,0,7,,,,,,,,,6,,,85,0
124920,note_on,0,0,11,,,,,,,,,11,,,47,100
124920,note_on,120,0,11,,,,,,,,,11,,,46,0
124920,note_on,30,0,9,,,,,,,,,8,,,64,100
124920,note_on,30,0,8,,,,,,,,,7,,,78,100
124920,note_on,0,0,3,,,,,,,,,2,,,59,100
124920,note_on,120,0,3,,,,,,,,,2,,,58,0
124920,note_on,30,0,7,,,,,,,,,6,,,78,100
124920,note_on,0,0,10,,,,,,,,,10,,,59,100
124920,note_on,120,0,10,,,,,,,,,10,,,58,0
124935,note_on,0,0,8,,,,,,,,,7,,,76,100
124935,note_on,0,0,7,,,,,,,,,6,,,76,100
124935,note_on,15,0,8,,,,,,,,,7,,,78,0
124935,note_on,15,0,7,,,,,,,,,6,,,78,0
124950,note_on,15,0,7,,,,,,,,,6,,,76,0
124950,note_on,30,0,9,,,,,,,,,8,,,64,0
124950,note_on,15,0,8,,,,,,,,,7,,,76,0
124950,note_on,0,0,8,,,,,,,,,7,,,78,100
124950,note_on,0,0,7,,,,,,,,,6,,,78,100
124965,note_on,15,0,7,,,,,,,,,6,,,78,0
124965,note_on,0,0,7,,,,,,,,,6,,,76,100
124965,note_on,15,0,8,,,,,,,,,7,,,78,0
124965,note_on,0,0,8,,,,,,,,,7,,,76,100
124980,note_on,15,0,8,,,,,,,,,7,,,76,0
124980,note_on,0,0,8,,,,,,,,,7,,,76,100
124980,note_on,15,0,7,,,,,,,,,6,,,76,0
124980,note_on,0,0,7,,,,,,,,,6,,,76,100
124980,note_on,30,0,9,,,,,,,,,8,,,62,100
124995,note_on,15,0,7,,,,,,,,,6,,,76,0
124995,note_on,15,0,8,,,,,,,,,7,,,76,0
125010,note_on,15,0,7,,,,,,,,,6,,,78,100
125010,note_on,15,0,8,,,,,,,,,7,,,78,100
125010,note_on,30,0,9,,,,,,,,,8,,,62,0
125040,note_on,0,0,8,,,,,,,,,7,,,80,100
125040,note_on,0,0,11,,,,,,,,,11,,,40,100
125040,note_on,30,0,8,,,,,,,,,7,,,78,0
125040,note_on,0,0,3,,,,,,,,,2,,,52,100
125040,note_on,120,0,3,,,,,,,,,2,,,59,0
125040,note_on,120,0,11,,,,,,,,,11,,,47,0
125040,note_on,120,0,10,,,,,,,,,10,,,59,0
125040,note_on,0,0,10,,,,,,,,,10,,,52,100
125040,note_on,30,0,7,,,,,,,,,6,,,78,0
125040,note_on,0,0,7,,,,,,,,,6,,,80,100
125040,note_on,30,0,9,,,,,,,,,8,,,66,100
125100,note_on,60,0,9,,,,,,,,,8,,,66,0
125100,note_on,0,0,9,,,,,,,,,8,,,64,100
125130,note_on,90,0,8,,,,,,,,,7,,,80,0
125130,note_on,30,0,9,,,,,,,,,8,,,64,0
125130,note_on,90,0,7,,,,,,,,,6,,,80,0
125160,note_on,120,0,10,,,,,,,,,10,,,52,0
125160,note_on,0,0,10,,,,,,,,,10,,,54,100
125160,note_on,120,0,3,,,,,,,,,2,,,52,0
125160,note_on,0,0,3,,,,,,,,,2,,,54,100
125160,note_on,30,0,8,,,,,,,,,7,,,82,100
125160,note_on,120,0,11,,,,,,,,,11,,,40,0
125160,note_on,0,0,11,,,,,,,,,11,,,42,100
125160,note_on,30,0,9,,,,,,,,,8,,,62,100
125160,note_on,30,0,7,,,,,,,,,6,,,82,100
125190,note_on,30,0,9,,,,,,,,,8,,,62,0
125220,note_on,30,0,9,,,,,,,,,8,,,61,100
125250,note_on,30,0,9,,,,,,,,,8,,,61,0
125250,note_on,90,0,7,,,,,,,,,6,,,82,0
125250,note_on,90,0,8,,,,,,,,,7,,,82,0
125280,note_on,0,0,5,,,,,,,,,4,,,74,100
125280,note_on,6390,0,5,,,,,,,,,4,,,62,100
125280,note_on,120,0,11,,,,,,,,,11,,,42,0
125280,note_on,0,0,3,,,,,,,,,2,,,47,100
125280,note_on,120,0,3,,,,,,,,,2,,,54,0
125280,note_on,30,0,9,,,,,,,,,8,,,59,100
125280,note_on,120,0,10,,,,,,,,,10,,,54,0
125280,note_on,0,0,10,,,,,,,,,10,,,55,100
125280,note_on,6360,0,6,,,,,,,,,5,,,50,100
125280,marker,6240,1,0,,,,,,,,,,,,,
125280,note_on,30,0,8,,,,,,,,,7,,,83,100
125280,note_on,6390,0,4,,,,,,,,,3,,,50,100
125280,note_on,0,0,11,,,,,,,,,11,,,43,100
125280,note_on,0,0,4,,,,,,,,,3,,,62,100
125280,note_on,30,0,7,,,,,,,,,6,,,83,100
125320,note_on,40,0,7,,,,,,,,,6,,,83,0
125340,note_on,20,0,7,,,,,,,,,6,,,71,100
125370,note_on,90,0,8,,,,,,,,,7,,,83,0
125380,note_on,40,0,7,,,,,,,,,6,,,71,0
125400,note_on,30,0,8,,,,,,,,,7,,,62,100
125400,note_on,120,0,10,,,,,,,,,10,,,55,0
125400,note_on,20,0,7,,,,,,,,,6,,,71,100
125400,note_on,120,0,6,,,,,,,,,5,,,50,0
125400,note_on,120,0,11,,,,,,,,,11,,,43,0
125400,note_on,0,0,5,,,,,,,,,4,,,62,0
125400,note_on,120,0,5,,,,,,,,,4,,,74,0
125440,note_on,40,0,7,,,,,,,,,6,,,71,0
125460,note_on,20,0,7,,,,,,,,,6,,,71,100
125490,note_on,90,0,8,,,,,,,,,7,,,62,0
125500,note_on,40,0,7,,,,,,,,,6,,,71,0
125520,note_on,240,0,3,,,,,,,,,2,,,47,0
125520,note_on,0,0,9,,,,,,,,,8,,,55,100
125520,note_on,30,0,8,,,,,,,,,7,,,71,100
125520,note_on,240,0,9,,,,,,,,,8,,,59,0
125520,note_on,0,0,3,,,,,,,,,2,,,59,100
125520,note_on,20,0,7,,,,,,,,,6,,,71,100
125560,note_on,40,0,7,,,,,,,,,6,,,71,0
125580,note_on,20,0,7,,,,,,,,,6,,,71,100
125620,note_on,40,0,7,,,,,,,,,6,,,71,0
125640,note_on,20,0,7,,,,,,,,,6,,,71,100
125680,note_on,40,0,7,,,,,,,,,6,,,71,0
125700,note_on,20,0,7,,,,,,,,,6,,,73,100
125730,note_on,0,0,7,,,,,,,,,6,,,74,100
125730,note_on,30,0,7,,,,,,,,,6,,,73,0
125760,note_on,6870,0,2,,,,,,,,,1,,,64,100
125760,note_on,6870,0,1,,,,,,,,,0,,,76,100
125760,note_on,360,0,11,,,,,,,,,11,,,37,100
125760,note_on,0,0,7,,,,,,,,,6,,,76,100
125760,note_on,480,0,4,,,,,,,,,3,,,62,0
125760,note_on,30,0,7,,,,,,,,,6,,,74,0
125760,note_on,240,0,9,,,,,,,,,8,,,55,0
125760,note_on,0,0,9,,,,,,,,,8,,,49,100
125760,note_on,0,0,4,,,,,,,,,3,,,50,0
125760,note_on,360,0,10,,,,,,,,,10,,,49,100
125760,note_on,0,0,4,,,,,,,,,3,,,54,100
125760,note_on,0,0,4,,,,,,,,,3,,,66,100
125800,note_on,40,0,7,,,,,,,,,6,,,76,0
125820,note_on,300,0,3,,,,,,,,,2,,,59,0
125820,note_on,0,0,3,,,,,,,,,2,,,58,100
125820,note_on,20,0,7,,,,,,,,,6,,,76,100
125820,note_on,0,0,8,,,,,,,,,7,,,70,100
125820,note_on,300,0,8,,,,,,,,,7,,,71,0
125850,note_on,30,0,8,,,,,,,,,7,,,70,0
125850,note_on,30,0,3,,,,,,,,,2,,,58,0
125860,note_on,40,0,7,,,,,,,,,6,,,76,0
125880,note_on,20,0,7,,,,,,,,,6,,,76,100
125880,note_on,30,0,3,,,,,,,,,2,,,55,100
125880,note_on,30,0,8,,,,,,,,,7,,,67,100
125910,note_on,30,0,3,,,,,,,,,2,,,55,0
125910,note_on,30,0,8,,,,,,,,,7,,,67,0
125920,note_on,40,0,7,,,,,,,,,6,,,76,0
125940,note_on,20,0,7,,,,,,,,,6,,,76,100
125940,note_on,30,0,8,,,,,,,,,7,,,66,100
125940,note_on,30,0,3,,,,,,,,,2,,,54,100
125970,note_on,30,0,3,,,,,,,,,2,,,54,0
125970,note_on,30,0,8,,,,,,,,,7,,,66,0
125980,note_on,40,0,7,,,,,,,,,6,,,76,0
126000,note_on,0,0,10,,,,,,,,,10,,,61,100
126000,note_on,240,0,2,,,,,,,,,1,,,64,0
126000,note_on,240,0,10,,,,,,,,,10,,,49,0
126000,note_on,240,0,9,,,,,,,,,8,,,49,0
126000,note_on,0,0,9,,,,,,,,,8,,,61,100
126000,note_on,30,0,3,,,,,,,,,2,,,54,100
126000,note_on,0,0,11,,,,,,,,,11,,,49,100
126000,note_on,30,0,8,,,,,,,,,7,,,66,100
126000,note_on,0,0,2,,,,,,,,,1,,,70,100
126000,note_on,0,0,1,,,,,,,,,0,,,88,100
126000,note_on,0,0,2,,,,,,,,,1,,,76,100
126000,note_on,240,0,1,,,,,,,,,0,,,76,0
126000,note_on,0,0,4,,,,,,,,,3,,,66,100
126000,note_on,0,0,4,,,,,,,,,3,,,54,100
126000,note_on,0,0,1,,,,,,,,,0,,,82,100
126000,note_on,240,0,4,,,,,,,,,3,,,66,0
126000,note_on,0,0,4,,,,,,,,,3,,,54,0
126000,note_on,20,0,7,,,,,,,,,6,,,76,100
126000,note_on,240,0,11,,,,,,,,,11,,,37,0
126040,note_on,40,0,7,,,,,,,,,6,,,76,0
126060,note_on,20,0,7,,,,,,,,,6,,,76,100
126060,note_on,60,0,3,,,,,,,,,2,,,54,0
126060,note_on,0,0,3,,,,,,,,,2,,,52,100
126060,note_on,0,0,8,,,,,,,,,7,,,64,100
126060,note_on,60,0,8,,,,,,,,,7,,,66,0
126090,note_on,30,0,3,,,,,,,,,2,,,52,0
126090,note_on,30,0,8,,,,,,,,,7,,,64,0
126100,note_on,40,0,7,,,,,,,,,6,,,76,0
126120,note_on,30,0,3,,,,,,,,,2,,,50,100
126120,note_on,0,0,4,,,,,,,,,3,,,54,100
126120,note_on,0,0,4,,,,,,,,,3,,,54,0
126120,note_on,120,0,4,,,,,,,,,3,,,66,0
126120,note_on,0,0,4,,,,,,,,,3,,,66,100
126120,note_on,30,0,8,,,,,,,,,7,,,62,100
126120,note_on,20,0,7,,,,,,,,,6,,,78,100
126150,note_on,30,0,3,,,,,,,,,2,,,50,0
126150,note_on,30,0,8,,,,,,,,,7,,,62,0
126150,note_on,0,0,7,,,,,,,,,6,,,76,100
126150,note_on,30,0,7,,,,,,,,,6,,,78,0
126180,note_on,30,0,7,,,,,,,,,6,,,76,0
126180,note_on,30,0,3,,,,,,,,,2,,,49,100
126180,note_on,30,0,8,,,,,,,,,7,,,61,100
126180,note_on,0,0,7,,,,,,,,,6,,,74,100
126210,note_on,30,0,8,,,,,,,,,7,,,61,0
126210,note_on,30,0,3,,,,,,,,,2,,,49,0
126210,note_on,30,0,7,,,,,,,,,6,,,74,0
126210,note_on,0,0,7,,,,,,,,,6,,,76,100
126240,note_on,0,0,4,,,,,,,,,3,,,54,0
126240,note_on,120,0,4,,,,,,,,,3,,,66,0
126240,note_on,840,0,5,,,,,,,,,4,,,78,100
126240,note_on,0,0,5,,,,,,,,,4,,,66,100
126240,note_on,0,0,7,,,,,,,,,6,,,74,100
126240,note_on,30,0,7,,,,,,,,,6,,,76,0
126240,note_on,0,0,4,,,,,,,,,3,,,54,100
126240,note_on,0,0,4,,,,,,,,,3,,,66,100
126240,note_on,0,0,1,,,,,,,,,0,,,83,100
126240,note_on,840,0,6,,,,,,,,,5,,,50,100
126240,note_on,30,0,3,,,,,,,,,2,,,50,100
126240,note_on,240,0,2,,,,,,,,,1,,,70,0
126240,note_on,0,0,2,,,,,,,,,1,,,71,100
126240,note_on,30,0,8,,,,,,,,,7,,,62,100
126240,note_on,240,0,1,,,,,,,,,0,,,82,0
126280,note_on,40,0,7,,,,,,,,,6,,,74,0
126300,note_on,300,0,11,,,,,,,,,11,,,49,0
126300,note_on,60,0,2,,,,,,,,,1,,,76,0
126300,note_on,0,0,2,,,,,,,,,1,,,74,100
126300,note_on,0,0,9,,,,,,,,,8,,,59,100
126300,note_on,0,0,1,,,,,,,,,0,,,86,100
126300,note_on,60,0,1,,,,,,,,,0,,,88,0
126300,note_on,300,0,9,,,,,,,,,8,,,61,0
126300,note_on,20,0,7,,,,,,,,,6,,,74,100
126300,note_on,0,0,11,,,,,,,,,11,,,47,100
126300,note_on,300,0,10,,,,,,,,,10,,,61,0
126300,note_on,0,0,10,,,,,,,,,10,,,59,100
126330,note_on,30,0,1,,,,,,,,,0,,,86,0
126330,note_on,30,0,11,,,,,,,,,11,,,47,0
126330,note_on,30,0,2,,,,,,,,,1,,,74,0
126330,note_on,30,0,10,,,,,,,,,10,,,59,0
126330,note_on,30,0,9,,,,,,,,,8,,,59,0
126340,note_on,40,0,7,,,,,,,,,6,,,74,0
126360,note_on,20,0,7,,,,,,,,,6,,,74,100
126360,note_on,30,0,11,,,,,,,,,11,,,45,100
126360,note_on,120,0,5,,,,,,,,,4,,,66,0
126360,note_on,0,0,5,,,,,,,,,4,,,78,0
126360,note_on,120,0,6,,,,,,,,,5,,,50,0
126360,note_on,30,0,2,,,,,,,,,1,,,71,0
126360,note_on,0,0,2,,,,,,,,,1,,,73,100
126360,note_on,0,0,1,,,,,,,,,0,,,85,100
126360,note_on,30,0,9,,,,,,,,,8,,,57,100
126360,note_on,30,0,10,,,,,,,,,10,,,57,100
126360,note_on,30,0,1,,,,,,,,,0,,,83,0
126390,note_on,30,0,2,,,,,,,,,1,,,73,0
126390,note_on,30,0,1,,,,,,,,,0,,,85,0
126390,note_on,30,0,9,,,,,,,,,8,,,57,0
126390,note_on,30,0,10,,,,,,,,,10,,,57,0
126390,note_on,30,0,11,,,,,,,,,11,,,45,0
126400,note_on,40,0,7,,,,,,,,,6,,,74,0
126420,note_on,30,0,1,,,,,,,,,0,,,83,100
126420,note_on,30,0,10,,,,,,,,,10,,,55,100
126420,note_on,20,0,7,,,,,,,,,6,,,74,100
126420,note_on,30,0,11,,,,,,,,,11,,,43,100
126420,note_on,30,0,2,,,,,,,,,1,,,71,100
126420,note_on,30,0,9,,,,,,,,,8,,,55,100
126450,note_on,30,0,1,,,,,,,,,0,,,83,0
126450,note_on,30,0,9,,,,,,,,,8,,,55,0
126450,note_on,30,0,11,,,,,,,,,11,,,43,0
126450,note_on,30,0,10,,,,,,,,,10,,,55,0
126450,note_on,30,0,2,,,,,,,,,1,,,71,0
126460,note_on,40,0,7,,,,,,,,,6,,,74,0
126480,note_on,30,0,9,,,,,,,,,8,,,55,100
126480,note_on,30,0,10,,,,,,,,,10,,,55,100
126480,note_on,30,0,1,,,,,,,,,0,,,83,100
126480,note_on,30,0,11,,,,,,,,,11,,,43,100
126480,note_on,20,0,7,,,,,,,,,6,,,74,100
126480,note_on,0,0,3,,,,,,,,,2,,,62,100
126480,note_on,240,0,8,,,,,,,,,7,,,62,0
126480,note_on,0,0,8,,,,,,,,,7,,,74,100
126480,note_on,240,0,3,,,,,,,,,2,,,50,0
126480,note_on,30,0,2,,,,,,,,,1,,,71,100
126520,note_on,40,0,7,,,,,,,,,6,,,74,0
126540,note_on,0,0,1,,,,,,,,,0,,,81,100
126540,note_on,60,0,1,,,,,,,,,0,,,83,0
126540,note_on,0,0,2,,,,,,,,,1,,,69,100
126540,note_on,20,0,7,,,,,,,,,6,,,74,100
126540,note_on,60,0,9,,,,,,,,,8,,,55,0
126540,note_on,60,0,10,,,,,,,,,10,,,55,0
126540,note_on,0,0,10,,,,,,,,,10,,,54,100
126540,note_on,0,0,11,,,,,,,,,11,,,42,100
126540,note_on,60,0,11,,,,,,,,,11,,,43,0
126540,note_on,0,0,9,,,,,,,,,8,,,54,100
126540,note_on,60,0,2,,,,,,,,,1,,,71,0
126570,note_on,30,0,10,,,,,,,,,10,,,54,0
126570,note_on,30,0,1,,,,,,,,,0,,,81,0
126570,note_on,30,0,2,,,,,,,,,1,,,69,0
126570,note_on,30,0,11,,,,,,,,,11,,,42,0
126570,note_on,30,0,9,,,,,,,,,8,,,54,0
126580,note_on,40,0,7,,,,,,,,,6,,,74,0
126600,note_on,30,0,2,,,,,,,,,1,,,67,100
126600,note_on,30,0,10,,,,,,,,,10,,,52,100
126600,note_on,30,0,11,,,,,,,,,11,,,40,100
126600,note_on,20,0,7,,,,,,,,,6,,,74,100
126600,note_on,30,0,9,,,,,,,,,8,,,52,100
126600,note_on,30,0,1,,,,,,,,,0,,,79,100
126630,note_on,30,0,9,,,,,,,,,8,,,52,0
126630,note_on,30,0,10,,,,,,,,,10,,,52,0
126630,note_on,30,0,2,,,,,,,,,1,,,67,0
126630,note_on,30,0,1,,,,,,,,,0,,,79,0
126630,note_on,30,0,11,,,,,,,,,11,,,40,0
126640,note_on,40,0,7,,,,,,,,,6,,,74,0
126660,note_on,30,0,11,,,,,,,,,11,,,38,100
126660,note_on,20,0,7,,,,,,,,,6,,,76,100
126660,note_on,30,0,2,,,,,,,,,1,,,66,100
126660,note_on,30,0,1,,,,,,,,,0,,,78,100
126660,note_on,30,0,9,,,,,,,,,8,,,50,100
126660,note_on,30,0,10,,,,,,,,,10,,,50,100
126690,note_on,0,0,7,,,,,,,,,6,,,78,100
126690,note_on,30,0,7,,,,,,,,,6,,,76,0
126690,note_on,30,0,9,,,,,,,,,8,,,50,0
126690,note_on,30,0,10,,,,,,,,,10,,,50,0
126690,note_on,30,0,1,,,,,,,,,0,,,78,0
126690,note_on,30,0,2,,,,,,,,,1,,,66,0
126690,note_on,30,0,11,,,,,,,,,11,,,38,0
126720,note_on,0,0,4,,,,,,,,,3,,,54,0
126720,note_on,30,0,1,,,,,,,,,0,,,79,100
126720,note_on,30,0,9,,,,,,,,,8,,,52,100
126720,note_on,30,0,7,,,,,,,,,6,,,78,0
126720,note_on,30,0,2,,,,,,,,,1,,,67,100
126720,note_on,30,0,10,,,,,,,,,10,,,52,100
126720,note_on,0,0,7,,,,,,,,,6,,,79,100
126720,note_on,480,0,4,,,,,,,,,3,,,66,0
126720,note_on,0,0,4,,,,,,,,,3,,,57,100
126720,note_on,0,0,4,,,,,,,,,3,,,69,100
126720,note_on,30,0,11,,,,,,,,,11,,,40,100
126760,note_on,40,0,7,,,,,,,,,6,,,79,0
126780,note_on,20,0,7,,,,,,,,,6,,,79,100
126780,note_on,0,0,8,,,,,,,,,7,,,73,100
126780,note_on,300,0,8,,,,,,,,,7,,,74,0
126780,note_on,300,0,3,,,,,,,,,2,,,62,0
126780,note_on,0,0,3,,,,,,,,,2,,,61,100
126810,note_on,30,0,3,,,,,,,,,2,,,61,0
126810,note_on,30,0,8,,,,,,,,,7,,,73,0
126820,note_on,40,0,7,,,,,,,,,6,,,79,0
126840,note_on,30,0,3,,,,,,,,,2,,,59,100
126840,note_on,30,0,8,,,,,,,,,7,,,71,100
126840,note_on,20,0,7,,,,,,,,,6,,,79,100
126870,note_on,30,0,3,,,,,,,,,2,,,59,0
126870,note_on,30,0,8,,,,,,,,,7,,,71,0
126880,note_on,40,0,7,,,,,,,,,6,,,79,0
126900,note_on,30,0,8,,,,,,,,,7,,,69,100
126900,note_on,20,0,7,,,,,,,,,6,,,79,100
126900,note_on,30,0,3,,,,,,,,,2,,,57,100
126930,note_on,30,0,8,,,,,,,,,7,,,69,0
126930,note_on,30,0,3,,,,,,,,,2,,,57,0
126940,note_on,40,0,7,,,,,,,,,6,,,79,0
126960,note_on,30,0,3,,,,,,,,,2,,,57,100
126960,note_on,20,0,7,,,,,,,,,6,,,79,100
126960,note_on,240,0,1,,,,,,,,,0,,,79,0
126960,note_on,0,0,2,,,,,,,,,1,,,73,100
126960,note_on,0,0,2,,,,,,,,,1,,,79,100
126960,note_on,0,0,1,,,,,,,,,0,,,91,100
126960,note_on,0,0,1,,,,,,,,,0,,,85,100
126960,note_on,240,0,11,,,,,,,,,11,,,40,0
126960,note_on,0,0,11,,,,,,,,,11,,,52,100
126960,note_on,240,0,2,,,,,,,,,1,,,67,0
126960,note_on,240,0,10,,,,,,,,,10,,,52,0
126960,note_on,0,0,9,,,,,,,,,8,,,64,100
126960,note_on,240,0,9,,,,,,,,,8,,,52,0
126960,note_on,240,0,4,,,,,,,,,3,,,69,0
126960,note_on,0,0,4,,,,,,,,,3,,,57,0
126960,note_on,0,0,4,,,,,,,,,3,,,57,100
126960,note_on,0,0,4,,,,,,,,,3,,,69,100
126960,note_on,30,0,8,,,,,,,,,7,,,69,100
126960,note_on,0,0,10,,,,,,,,,10,,,64,100
127000,note_on,40,0,7,,,,,,,,,6,,,79,0
127020,note_on,60,0,3,,,,,,,,,2,,,57,0
127020,note_on,0,0,3,,,,,,,,,2,,,55,100
127020,note_on,20,0,7,,,,,,,,,6,,,79,100
127020,note_on,60,0,8,,,,,,,,,7,,,69,0
127020,note_on,0,0,8,,,,,,,,,7,,,67,100
127050,note_on,30,0,3,,,,,,,,,2,,,55,0
127050,note_on,30,0,8,,,,,,,,,7,,,67,0
127060,note_on,40,0,7,,,,,,,,,6,,,79,0
127080,note_on,0,0,4,,,,,,,,,3,,,57,0
127080,note_on,20,0,7,,,,,,,,,6,,,81,100
127080,note_on,120,0,4,,,,,,,,,3,,,69,0
127080,note_on,30,0,3,,,,,,,,,2,,,54,100
127080,note_on,0,0,4,,,,,,,,,3,,,57,100
127080,note_on,30,0,8,,,,,,,,,7,,,66,100
127080,note_on,0,0,4,,,,,,,,,3,,,69,100
127110,note_on,30,0,3,,,,,,,,,2,,,54,0
127110,note_on,30,0,8,,,,,,,,,7,,,66,0
127110,note_on,0,0,7,,,,,,,,,6,,,79,100
127110,note_on,30,0,7,,,,,,,,,6,,,81,0
127140,note_on,30,0,3,,,,,,,,,2,,,52,100
127140,note_on,30,0,7,,,,,,,,,6,,,79,0
127140,note_on,30,0,8,,,,,,,,,7,,,64,100
127140,note_on,0,0,7,,,,,,,,,6,,,78,100
127170,note_on,0,0,7,,,,,,,,,6,,,79,100
127170,note_on,30,0,7,,,,,,,,,6,,,78,0
127170,note_on,30,0,8,,,,,,,,,7,,,64,0
127170,note_on,30,0,3,,,,,,,,,2,,,52,0
127200,note_on,0,0,4,,,,,,,,,3,,,57,0
127200,note_on,0,0,4,,,,,,,,,3,,,45,100
127200,note_on,0,0,4,,,,,,,,,3,,,57,100
127200,note_on,30,0,8,,,,,,,,,7,,,66,100
127200,note_on,0,0,1,,,,,,,,,0,,,86,100
127200,note_on,240,0,2,,,,,,,,,1,,,73,0
127200,note_on,0,0,2,,,,,,,,,1,,,74,100
127200,note_on,120,0,4,,,,,,,,,3,,,69,0
127200,note_on,240,0,1,,,,,,,,,0,,,85,0
127200,note_on,840,0,5,,,,,,,,,4,,,57,100
127200,note_on,30,0,7,,,,,,,,,6,,,79,0
127200,note_on,0,0,7,,,,,,,,,6,,,78,100
127200,note_on,840,0,6,,,,,,,,,5,,,45,100
127200,note_on,30,0,3,,,,,,,,,2,,,54,100
127200,note_on,0,0,5,,,,,,,,,4,,,69,100
127240,note_on,40,0,7,,,,,,,,,6,,,78,0
127260,note_on,300,0,10,,,,,,,,,10,,,64,0
127260,note_on,60,0,1,,,,,,,,,0,,,91,0
127260,note_on,0,0,1,,,,,,,,,0,,,90,100
127260,note_on,0,0,10,,,,,,,,,10,,,62,100
127260,note_on,20,0,7,,,,,,,,,6,,,78,100
127260,note_on,60,0,2,,,,,,,,,1,,,79,0
127260,note_on,0,0,2,,,,,,,,,1,,,78,100
127260,note_on,300,0,9,,,,,,,,,8,,,64,0
127260,note_on,0,0,9,,,,,,,,,8,,,62,100
127260,note_on,0,0,11,,,,,,,,,11,,,50,100
127260,note_on,300,0,11,,,,,,,,,11,,,52,0
127290,note_on,30,0,9,,,,,,,,,8,,,62,0
127290,note_on,30,0,10,,,,,,,,,10,,,62,0
127290,note_on,30,0,2,,,,,,,,,1,,,78,0
127290,note_on,30,0,11,,,,,,,,,11,,,50,0
127290,note_on,30,0,1,,,,,,,,,0,,,90,0
127300,note_on,40,0,7,,,,,,,,,6,,,78,0
127320,note_on,30,0,10,,,,,,,,,10,,,61,100
127320,note_on,120,0,5,,,,,,,,,4,,,69,0
127320,note_on,0,0,2,,,,,,,,,1,,,76,100
127320,note_on,0,0,5,,,,,,,,,4,,,57,0
127320,note_on,30,0,2,,,,,,,,,1,,,74,0
127320,note_on,20,0,7,,,,,,,,,6,,,78,100
127320,note_on,0,0,1,,,,,,,,,0,,,88,100
127320,note_on,30,0,1,,,,,,,,,0,,,86,0
127320,note_on,30,0,9,,,,,,,,,8,,,61,100
127320,note_on,120,0,6,,,,,,,,,5,,,45,0
127320,note_on,30,0,11,,,,,,,,,11,,,49,100
127350,note_on,30,0,1,,,,,,,,,0,,,88,0
127350,note_on,30,0,10,,,,,,,,,10,,,61,0
127350,note_on,30,0,9,,,,,,,,,8,,,61,0
127350,note_on,30,0,11,,,,,,,,,11,,,49,0
127350,note_on,30,0,2,,,,,,,,,1,,,76,0
127360,note_on,40,0,7,,,,,,,,,6,,,78,0
127380,note_on,30,0,11,,,,,,,,,11,,,47,100
127380,note_on,20,0,7,,,,,,,,,6,,,78,100
127380,note_on,30,0,10,,,,,,,,,10,,,59,100
127380,note_on,30,0,2,,,,,,,,,1,,,74,100
127380,note_on,30,0,1,,,,,,,,,0,,,86,100
127380,note_on,30,0,9,,,,,,,,,8,,,59,100
127410,note_on,30,0,9,,,,,,,,,8,,,59,0
127410,note_on,30,0,2,,,,,,,,,1,,,74,0
127410,note_on,30,0,10,,,,,,,,,10,,,59,0
127410,note_on,30,0,11,,,,,,,,,11,,,47,0
127410,note_on,30,0,1,,,,,,,,,0,,,86,0
127420,note_on,40,0,7,,,,,,,,,6,,,78,0
127440,note_on,30,0,2,,,,,,,,,1,,,74,100
127440,note_on,30,0,10,,,,,,,,,10,,,57,100
127440,note_on,240,0,8,,,,,,,,,7,,,66,0
127440,note_on,0,0,8,,,,,,,,,7,,,78,100
127440,note_on,20,0,7,,,,,,,,,6,,,78,100
127440,note_on,30,0,9,,,,,,,,,8,,,59,100
127440,note_on,30,0,11,,,,,,,,,11,,,45,100
127440,note_on,240,0,3,,,,,,,,,2,,,54,0
127440,note_on,0,0,3,,,,,,,,,2,,,66,100
127440,note_on,30,0,1,,,,,,,,,0,,,86,100
127480,note_on,40,0,7,,,,,,,,,6,,,78,0
127500,note_on,20,0,7,,,,,,,,,6,,,78,100
127500,note_on,0,0,2,,,,,,,,,1,,,73,100
127500,note_on,60,0,2,,,,,,,,,1,,,74,0
127500,note_on,0,0,9,,,,,,,,,8,,,57,100
127500,note_on,60,0,9,,,,,,,,,8,,,59,0
127500,note_on,0,0,11,,,,,,,,,11,,,45,100
127500,note_on,60,0,1,,,,,,,,,0,,,86,0
127500,note_on,0,0,1,,,,,,,,,0,,,85,100
127500,note_on,60,0,11,,,,,,,,,11,,,45,0
127500,note_on,0,0,10,,,,,,,,,10,,,57,100
127500,note_on,60,0,10,,,,,,,,,10,,,57,0
127530,note_on,30,0,1,,,,,,,,,0,,,85,0
127530,note_on,30,0,10,,,,,,,,,10,,,57,0
127530,note_on,30,0,11,,,,,,,,,11,,,45,0
127530,note_on,30,0,9,,,,,,,,,8,,,57,0
127530,note_on,30,0,2,,,,,,,,,1,,,73,0
127540,note_on,40,0,7,,,,,,,,,6,,,78,0
127560,note_on,30,0,11,,,,,,,,,11,,,44,100
127560,note_on,30,0,9,,,,,,,,,8,,,56,100
127560,note_on,20,0,7,,,,,,,,,6,,,78,100
127560,note_on,30,0,2,,,,,,,,,1,,,71,100
127560,note_on,30,0,1,,,,,,,,,0,,,83,100
127560,note_on,30,0,10,,,,,,,,,10,,,56,100
127590,note_on,30,0,11,,,,,,,,,11,,,44,0
127590,note_on,30,0,2,,,,,,,,,1,,,71,0
127590,note_on,30,0,10,,,,,,,,,10,,,56,0
127590,note_on,30,0,9,,,,,,,,,8,,,56,0
127590,note_on,30,0,1,,,,,,,,,0,,,83,0
127600,note_on,40,0,7,,,,,,,,,6,,,78,0
127620,note_on,30,0,1,,,,,,,,,0,,,81,100
127620,note_on,30,0,9,,,,,,,,,8,,,54,100
127620,note_on,30,0,10,,,,,,,,,10,,,54,100
127620,note_on,30,0,11,,,,,,,,,11,,,42,100
127620,note_on,30,0,2,,,,,,,,,1,,,69,100
127620,note_on,20,0,7,,,,,,,,,6,,,80,100
127650,note_on,30,0,7,,,,,,,,,6,,,80,0
127650,note_on,30,0,9,,,,,,,,,8,,,54,0
127650,note_on,30,0,10,,,,,,,,,10,,,54,0
127650,note_on,30,0,2,,,,,,,,,1,,,69,0
127650,note_on,30,0,1,,,,,,,,,0,,,81,0
127650,note_on,0,0,7,,,,,,,,,6,,,81,100
127650,note_on,30,0,11,,,,,,,,,11,,,42,0
127680,note_on,30,0,9,,,,,,,,,8,,,56,100
127680,note_on,30,0,2,,,,,,,,,1,,,71,100
127680,note_on,0,0,4,,,,,,,,,3,,,45,0
127680,note_on,30,0,1,,,,,,,,,0,,,83,100
127680,note_on,480,0,4,,,,,,,,,3,,,57,0
127680,note_on,30,0,7,,,,,,,,,6,,,81,0
127680,note_on,0,0,7,,,,,,,,,6,,,83,100
127680,note_on,30,0,10,,,,,,,,,10,,,56,100
127680,note_on,30,0,11,,,,,,,,,11,,,44,100
127720,note_on,40,0,7,,,,,,,,,6,,,83,0
127740,note_on,0,0,3,,,,,,,,,2,,,65,100
127740,note_on,300,0,3,,,,,,,,,2,,,66,0
127740,note_on,20,0,7,,,,,,,,,6,,,83,100
127740,note_on,300,0,8,,,,,,,,,7,,,78,0
127740,note_on,0,0,8,,,,,,,,,7,,,77,100
127770,note_on,30,0,3,,,,,,,,,2,,,65,0
127770,note_on,30,0,8,,,,,,,,,7,,,77,0
127780,note_on,40,0,7,,,,,,,,,6,,,83,0
127800,note_on,20,0,7,,,,,,,,,6,,,83,100
127800,note_on,30,0,3,,,,,,,,,2,,,62,100
127800,note_on,30,0,8,,,,,,,,,7,,,74,100
127830,note_on,30,0,3,,,,,,,,,2,,,62,0
127830,note_on,30,0,8,,,,,,,,,7,,,74,0
127840,note_on,40,0,7,,,,,,,,,6,,,83,0
127860,note_on,30,0,8,,,,,,,,,7,,,73,100
127860,note_on,20,0,7,,,,,,,,,6,,,83,100
127860,note_on,30,0,3,,,,,,,,,2,,,61,100
127890,note_on,30,0,8,,,,,,,,,7,,,73,0
127890,note_on,30,0,3,,,,,,,,,2,,,61,0
127900,note_on,40,0,7,,,,,,,,,6,,,83,0
127920,note_on,20,0,7,,,,,,,,,6,,,83,100
127920,note_on,0,0,11,,,,,,,,,11,,,56,100
127920,note_on,240,0,11,,,,,,,,,11,,,44,0
127920,note_on,30,0,8,,,,,,,,,7,,,71,100
127920,note_on,240,0,1,,,,,,,,,0,,,83,0
127920,note_on,240,0,9,,,,,,,,,8,,,56,0
127920,note_on,0,0,1,,,,,,,,,0,,,89,100
127920,note_on,0,0,10,,,,,,,,,10,,,68,100
127920,note_on,240,0,10,,,,,,,,,10,,,56,0
127920,note_on,0,0,9,,,,,,,,,8,,,68,100
127920,note_on,30,0,3,,,,,,,,,2,,,59,100
127920,note_on,0,0,1,,,,,,,,,0,,,83,100
127920,note_on,0,0,2,,,,,,,,,1,,,71,100
127920,note_on,240,0,2,,,,,,,,,1,,,71,0
127920,note_on,0,0,2,,,,,,,,,1,,,77,100
127960,note_on,40,0,7,,,,,,,,,6,,,83,0
127980,note_on,0,0,3,,,,,,,,,2,,,59,100
127980,note_on,20,0,7,,,,,,,,,6,,,83,100
127980,note_on,60,0,3,,,,,,,,,2,,,59,0
127980,note_on,60,0,8,,,,,,,,,7,,,71,0
127980,note_on,0,0,8,,,,,,,,,7,,,71,100
128010,note_on,30,0,3,,,,,,,,,2,,,59,0
128010,note_on,30,0,8,,,,,,,,,7,,,71,0
128020,note_on,40,0,7,,,,,,,,,6,,,83,0
128040,note_on,30,0,3,,,,,,,,,2,,,56,100
128040,note_on,20,0,7,,,,,,,,,6,,,85,100
128040,note_on,30,0,8,,,,,,,,,7,,,68,100
128070,note_on,30,0,8,,,,,,,,,7,,,68,0
128070,note_on,30,0,3,,,,,,,,,2,,,56,0
128070,note_on,0,0,7,,,,,,,,,6,,,83,100
128070,note_on,30,0,7,,,,,,,,,6,,,85,0
128100,note_on,30,0,7,,,,,,,,,6,,,83,0
128100,note_on,0,0,7,,,,,,,,,6,,,81,100
128100,note_on,30,0,3,,,,,,,,,2,,,53,100
128100,note_on,30,0,8,,,,,,,,,7,,,65,100
128130,note_on,30,0,7,,,,,,,,,6,,,81,0
128130,note_on,0,0,7,,,,,,,,,6,,,83,100
128130,note_on,30,0,3,,,,,,,,,2,,,53,0
128130,note_on,30,0,8,,,,,,,,,7,,,65,0
128160,note_on,0,0,7,,,,,,,,,6,,,81,100
128160,note_on,0,0,2,,,,,,,,,1,,,69,100
128160,note_on,30,0,7,,,,,,,,,6,,,83,0
128160,note_on,0,0,2,,,,,,,,,1,,,78,100
128160,note_on,0,0,9,,,,,,,,,8,,,66,100
128160,note_on,240,0,10,,,,,,,,,10,,,68,0
128160,note_on,0,0,10,,,,,,,,,10,,,66,100
128160,note_on,240,0,9,,,,,,,,,8,,,68,0
128160,note_on,240,0,2,,,,,,,,,1,,,71,0
128160,note_on,0,0,2,,,,,,,,,1,,,77,0
128160,note_on,0,0,11,,,,,,,,,11,,,54,100
128160,note_on,0,0,1,,,,,,,,,0,,,90,100
128160,note_on,30,0,3,,,,,,,,,2,,,54,100
128160,note_on,30,0,8,,,,,,,,,7,,,61,100
128160,note_on,0,0,1,,,,,,,,,0,,,81,100
128160,note_on,240,0,11,,,,,,,,,11,,,56,0
128160,note_on,240,0,1,,,,,,,,,0,,,83,0
128160,note_on,0,0,1,,,,,,,,,0,,,89,0
128190,note_on,30,0,7,,,,,,,,,6,,,81,0
128190,note_on,0,0,7,,,,,,,,,6,,,85,100
128220,note_on,30,0,7,,,,,,,,,6,,,85,0
128220,note_on,0,0,7,,,,,,,,,6,,,83,101
128250,note_on,30,0,7,,,,,,,,,6,,,83,0
128250,note_on,0,0,7,,,,,,,,,6,,,81,101
128250,note_on,90,0,9,,,,,,,,,8,,,66,0
128250,note_on,90,0,10,,,,,,,,,10,,,66,0
128250,note_on,90,0,11,,,,,,,,,11,,,54,0
128280,note_on,0,0,2,,,,,,,,,1,,,69,0
128280,note_on,0,0,1,,,,,,,,,0,,,81,0
128280,note_on,120,0,2,,,,,,,,,1,,,78,0
128280,note_on,120,0,1,,,,,,,,,0,,,90,0
128280,note_on,30,0,9,,,,,,,,,8,,,66,100
128280,note_on,0,0,7,,,,,,,,,6,,,86,102
128280,note_on,30,0,7,,,,,,,,,6,,,81,0
128280,note_on,120,0,8,,,,,,,,,7,,,61,0
128280,note_on,120,0,3,,,,,,,,,2,,,54,0
128280,note_on,30,0,11,,,,,,,,,11,,,54,100
128280,note_on,0,0,8,,,,,,,,,7,,,69,102
128280,note_on,30,0,10,,,,,,,,,10,,,66,100
128310,note_on,30,0,8,,,,,,,,,7,,,69,0
128310,note_on,0,0,8,,,,,,,,,7,,,73,103
128340,note_on,30,0,8,,,,,,,,,7,,,73,0
128340,note_on,0,0,8,,,,,,,,,7,,,71,103
128370,note_on,30,0,8,,,,,,,,,7,,,71,0
128370,note_on,0,0,8,,,,,,,,,7,,,69,104
128400,note_on,0,0,7,,,,,,,,,6,,,80,105
128400,note_on,120,0,7,,,,,,,,,6,,,86,0
128400,note_on,0,0,8,,,,,,,,,7,,,74,105
128400,note_on,30,0,8,,,,,,,,,7,,,69,0
128430,note_on,0,0,7,,,,,,,,,6,,,83,105
128430,note_on,30,0,7,,,,,,,,,6,,,80,0
128460,note_on,30,0,7,,,,,,,,,6,,,83,0
128460,note_on,0,0,7,,,,,,,,,6,,,81,106
128490,note_on,0,0,7,,,,,,,,,6,,,80,106
128490,note_on,30,0,7,,,,,,,,,6,,,81,0
128520,note_on,120,0,8,,,,,,,,,7,,,74,0
128520,note_on,0,0,7,,,,,,,,,6,,,85,107
128520,note_on,30,0,7,,,,,,,,,6,,,80,0
128520,note_on,240,0,9,,,,,,,,,8,,,66,0
128520,note_on,0,0,8,,,,,,,,,7,,,68,107
128520,note_on,240,0,11,,,,,,,,,11,,,54,0
128520,note_on,0,0,11,,,,,,,,,11,,,53,100
128520,note_on,0,0,10,,,,,,,,,10,,,65,100
128520,note_on,240,0,10,,,,,,,,,10,,,66,0
128520,note_on,0,0,9,,,,,,,,,8,,,65,100
128550,note_on,30,0,8,,,,,,,,,7,,,68,0
128550,note_on,0,0,8,,,,,,,,,7,,,71,108
128580,note_on,30,0,8,,,,,,,,,7,,,71,0
128580,note_on,0,0,8,,,,,,,,,7,,,69,108
128610,note_on,90,0,9,,,,,,,,,8,,,65,0
128610,note_on,0,0,8,,,,,,,,,7,,,68,109
128610,note_on,30,0,8,,,,,,,,,7,,,69,0
128610,note_on,90,0,11,,,,,,,,,11,,,53,0
128610,note_on,90,0,10,,,,,,,,,10,,,65,0
128640,note_on,30,0,9,,,,,,,,,8,,,66,100
128640,note_on,30,0,11,,,,,,,,,11,,,54,100
128640,note_on,30,0,8,,,,,,,,,7,,,68,0
128640,note_on,0,0,8,,,,,,,,,7,,,73,110
128640,note_on,30,0,10,,,,,,,,,10,,,66,100
128640,note_on,120,0,7,,,,,,,,,6,,,85,0
128640,note_on,0,0,7,,,,,,,,,6,,,82,110
128680,note_on,40,0,9,,,,,,,,,8,,,66,0
128700,note_on,420,0,3,,,,,,,,,2,,,54,100
128700,note_on,60,0,10,,,,,,,,,10,,,66,0
128700,note_on,60,0,11,,,,,,,,,11,,,54,0
128700,note_on,20,0,9,,,,,,,,,8,,,54,100
128740,note_on,40,0,3,,,,,,,,,2,,,54,0
128740,note_on,40,0,9,,,,,,,,,8,,,54,0
128760,note_on,120,0,8,,,,,,,,,7,,,73,0
128760,note_on,0,0,8,,,,,,,,,7,,,74,113
128760,note_on,20,0,3,,,,,,,,,2,,,54,100
128760,note_on,20,0,9,,,,,,,,,8,,,54,100
128760,note_on,120,0,7,,,,,,,,,6,,,82,0
128760,note_on,0,0,7,,,,,,,,,6,,,83,113
128800,note_on,40,0,9,,,,,,,,,8,,,54,0
128800,note_on,40,0,3,,,,,,,,,2,,,54,0
128820,note_on,20,0,9,,,,,,,,,8,,,54,100
128820,note_on,20,0,3,,,,,,,,,2,,,54,100
128860,note_on,40,0,9,,,,,,,,,8,,,54,0
128860,note_on,40,0,3,,,,,,,,,2,,,54,0
128880,note_on,20,0,3,,,,,,,,,2,,,54,100
128880,note_on,0,0,8,,,,,,,,,7,,,76,116
128880,note_on,120,0,8,,,,,,,,,7,,,74,0
128880,note_on,120,0,7,,,,,,,,,6,,,83,0
128880,note_on,20,0,9,,,,,,,,,8,,,54,100
128880,note_on,0,0,7,,,,,,,,,6,,,85,116
128920,note_on,40,0,3,,,,,,,,,2,,,54,0
128920,note_on,40,0,9,,,,,,,,,8,,,54,0
128940,note_on,20,0,9,,,,,,,,,8,,,54,100
128940,note_on,20,0,3,,,,,,,,,2,,,54,100
128980,note_on,40,0,9,,,,,,,,,8,,,54,0
128980,note_on,40,0,3,,,,,,,,,2,,,54,0
129000,note_on,20,0,9,,,,,,,,,8,,,54,100
129000,note_on,20,0,3,,,,,,,,,2,,,54,100
129040,note_on,40,0,3,,,,,,,,,2,,,54,0
129040,note_on,40,0,9,,,,,,,,,8,,,54,0
129060,note_on,20,0,3,,,,,,,,,2,,,56,100
129060,note_on,20,0,9,,,,,,,,,8,,,56,100
129090,note_on,30,0,3,,,,,,,,,2,,,56,0
129090,note_on,30,0,9,,,,,,,,,8,,,56,0
129090,note_on,0,0,9,,,,,,,,,8,,,58,100
129090,note_on,0,0,3,,,,,,,,,2,,,58,100
129120,note_on,0,0,8,,,,,,,,,7,,,74,100
129120,note_on,0,0,3,,,,,,,,,2,,,59,100
129120,note_on,840,0,2,,,,,,,,,1,,,71,100
129120,note_on,30,0,3,,,,,,,,,2,,,58,0
129120,note_on,240,0,8,,,,,,,,,7,,,76,0
129120,note_on,840,0,1,,,,,,,,,0,,,71,100
129120,note_on,30,0,9,,,,,,,,,8,,,58,0
129120,note_on,0,0,9,,,,,,,,,8,,,59,100
129150,note_on,30,0,8,,,,,,,,,7,,,74,0
129150,note_on,0,0,8,,,,,,,,,7,,,78,100
129180,note_on,30,0,8,,,,,,,,,7,,,78,0
129180,note_on,0,0,8,,,,,,,,,7,,,76,100
129210,note_on,30,0,8,,,,,,,,,7,,,76,0
129210,note_on,0,0,8,,,,,,,,,7,,,74,100
129240,note_on,0,0,8,,,,,,,,,7,,,79,100
129240,note_on,0,0,7,,,,,,,,,6,,,83,100
129240,note_on,360,0,7,,,,,,,,,6,,,85,0
129240,note_on,30,0,8,,,,,,,,,7,,,74,0
129360,note_on,0,0,2,,,,,,,,,1,,,76,100
129360,note_on,240,0,2,,,,,,,,,1,,,71,0
129360,note_on,120,0,8,,,,,,,,,7,,,79,0
129360,note_on,2040,0,5,,,,,,,,,4,,,66,100
129360,note_on,0,0,5,,,,,,,,,4,,,78,100
129360,note_on,0,0,3,,,,,,,,,2,,,54,100
129360,note_on,240,0,3,,,,,,,,,2,,,59,0
129360,note_on,0,0,1,,,,,,,,,0,,,88,100
129360,note_on,240,0,1,,,,,,,,,0,,,71,0
129360,note_on,0,0,4,,,,,,,,,3,,,66,100
129360,note_on,1680,0,4,,,,,,,,,3,,,54,100
129360,note_on,0,0,9,,,,,,,,,8,,,66,100
129360,note_on,240,0,9,,,,,,,,,8,,,59,0
129360,note_on,0,0,8,,,,,,,,,7,,,73,100
129390,note_on,30,0,8,,,,,,,,,7,,,73,0
129390,note_on,0,0,8,,,,,,,,,7,,,76,100
129420,note_on,0,0,8,,,,,,,,,7,,,74,100
129420,note_on,30,0,8,,,,,,,,,7,,,76,0
129450,note_on,0,0,8,,,,,,,,,7,,,73,100
129450,note_on,30,0,8,,,,,,,,,7,,,74,0
129480,note_on,240,0,7,,,,,,,,,6,,,83,0
129480,note_on,0,0,7,,,,,,,,,6,,,82,100
129480,note_on,0,0,8,,,,,,,,,7,,,78,100
129480,note_on,30,0,8,,,,,,,,,7,,,73,0
129600,note_on,240,0,3,,,,,,,,,2,,,54,0
129600,note_on,0,0,3,,,,,,,,,2,,,47,100
129600,note_on,120,0,7,,,,,,,,,6,,,82,0
129600,note_on,0,0,7,,,,,,,,,6,,,81,100
129600,note_on,0,0,9,,,,,,,,,8,,,71,100
129600,note_on,240,0,9,,,,,,,,,8,,,66,0
129640,note_on,40,0,3,,,,,,,,,2,,,47,0
129640,note_on,40,0,9,,,,,,,,,8,,,71,0
129660,note_on,960,0,10,,,,,,,,,10,,,47,100
129660,note_on,960,0,11,,,,,,,,,11,,,35,100
129660,note_on,20,0,9,,,,,,,,,8,,,59,100
129660,note_on,300,0,1,,,,,,,,,0,,,88,0
129660,note_on,0,0,1,,,,,,,,,0,,,87,100
129660,note_on,20,0,3,,,,,,,,,2,,,47,100
129660,note_on,0,0,2,,,,,,,,,1,,,75,100
129660,note_on,300,0,2,,,,,,,,,1,,,76,0
129690,note_on,30,0,1,,,,,,,,,0,,,87,0
129690,note_on,30,0,2,,,,,,,,,1,,,75,0
129700,note_on,40,0,10,,,,,,,,,10,,,47,0
129700,note_on,40,0,9,,,,,,,,,8,,,59,0
129700,note_on,40,0,11,,,,,,,,,11,,,35,0
129700,note_on,40,0,3,,,,,,,,,2,,,47,0
129720,note_on,240,0,8,,,,,,,,,7,,,78,0
129720,note_on,20,0,9,,,,,,,,,8,,,59,100
129720,note_on,0,0,8,,,,,,,,,7,,,63,100
129720,note_on,0,0,4,,,,,,,,,3,,,54,0
129720,note_on,0,0,7,,,,,,,,,6,,,59,100
129720,note_on,120,0,7,,,,,,,,,6,,,81,0
129720,note_on,0,0,8,,,,,,,,,7,,,66,100
129720,note_on,20,0,11,,,,,,,,,11,,,35,100
129720,note_on,360,0,4,,,,,,,,,3,,,66,0
129720,note_on,30,0,1,,,,,,,,,0,,,84,100
129720,note_on,0,0,5,,,,,,,,,4,,,66,0
129720,note_on,360,0,5,,,,,,,,,4,,,78,0
129720,note_on,30,0,2,,,,,,,,,1,,,72,100
129720,note_on,20,0,10,,,,,,,,,10,,,47,100
129720,note_on,20,0,3,,,,,,,,,2,,,47,100
129720,note_on,0,0,7,,,,,,,,,6,,,69,100
129750,note_on,30,0,2,,,,,,,,,1,,,72,0
129750,note_on,30,0,1,,,,,,,,,0,,,84,0
129760,note_on,40,0,3,,,,,,,,,2,,,47,0
129760,note_on,40,0,9,,,,,,,,,8,,,59,0
129760,note_on,40,0,10,,,,,,,,,10,,,47,0
129760,note_on,40,0,11,,,,,,,,,11,,,35,0
129780,note_on,20,0,10,,,,,,,,,10,,,47,100
129780,note_on,30,0,1,,,,,,,,,0,,,83,100
129780,note_on,20,0,9,,,,,,,,,8,,,59,100
129780,note_on,20,0,11,,,,,,,,,11,,,35,100
129780,note_on,30,0,2,,,,,,,,,1,,,71,100
129780,note_on,20,0,3,,,,,,,,,2,,,47,100
129810,note_on,30,0,1,,,,,,,,,0,,,83,0
129810,note_on,30,0,2,,,,,,,,,1,,,71,0
129820,note_on,40,0,9,,,,,,,,,8,,,59,0
129820,note_on,40,0,11,,,,,,,,,11,,,35,0
129820,note_on,40,0,10,,,,,,,,,10,,,47,0
129820,note_on,40,0,3,,,,,,,,,2,,,47,0
129840,note_on,30,0,2,,,,,,,,,1,,,71,100
129840,note_on,20,0,3,,,,,,,,,2,,,47,100
129840,note_on,20,0,9,,,,,,,,,8,,,59,100
129840,note_on,20,0,11,,,,,,,,,11,,,35,100
129840,note_on,30,0,1,,,,,,,,,0,,,83,100
129840,note_on,20,0,10,,,,,,,,,10,,,47,100
129880,note_on,40,0,10,,,,,,,,,10,,,47,0
129880,note_on,40,0,9,,,,,,,,,8,,,59,0
129880,note_on,40,0,11,,,,,,,,,11,,,35,0
129880,note_on,40,0,3,,,,,,,,,2,,,47,0
129900,note_on,20,0,10,,,,,,,,,10,,,47,100
129900,note_on,20,0,11,,,,,,,,,11,,,35,100
129900,note_on,60,0,1,,,,,,,,,0,,,83,0
129900,note_on,0,0,1,,,,,,,,,0,,,81,100
129900,note_on,60,0,2,,,,,,,,,1,,,71,0
129900,note_on,0,0,2,,,,,,,,,1,,,69,100
129900,note_on,20,0,9,,,,,,,,,8,,,59,100
129900,note_on,20,0,3,,,,,,,,,2,,,47,100
129930,note_on,30,0,2,,,,,,,,,1,,,69,0
129930,note_on,30,0,1,,,,,,,,,0,,,81,0
129940,note_on,40,0,3,,,,,,,,,2,,,47,0
129940,note_on,40,0,9,,,,,,,,,8,,,59,0
129940,note_on,40,0,10,,,,,,,,,10,,,47,0
129940,note_on,40,0,11,,,,,,,,,11,,,35,0
129960,note_on,20,0,9,,,,,,,,,8,,,59,100
129960,note_on,20,0,3,,,,,,,,,2,,,47,100
129960,note_on,20,0,11,,,,,,,,,11,,,35,100
129960,note_on,20,0,10,,,,,,,,,10,,,47,100
129960,note_on,30,0,2,,,,,,,,,1,,,67,100
129960,note_on,30,0,1,,,,,,,,,0,,,79,100
129990,note_on,30,0,1,,,,,,,,,0,,,79,0
129990,note_on,30,0,2,,,,,,,,,1,,,67,0
130000,note_on,40,0,3,,,,,,,,,2,,,47,0
130000,note_on,40,0,9,,,,,,,,,8,,,59,0
130000,note_on,40,0,10,,,,,,,,,10,,,47,0
130000,note_on,40,0,11,,,,,,,,,11,,,35,0
130020,note_on,20,0,9,,,,,,,,,8,,,61,100
130020,note_on,30,0,1,,,,,,,,,0,,,78,100
130020,note_on,20,0,11,,,,,,,,,11,,,37,100
130020,note_on,20,0,3,,,,,,,,,2,,,49,100
130020,note_on,30,0,2,,,,,,,,,1,,,66,100
130020,note_on,20,0,10,,,,,,,,,10,,,49,100
130050,note_on,30,0,11,,,,,,,,,11,,,37,0
130050,note_on,30,0,1,,,,,,,,,0,,,78,0
130050,note_on,30,0,10,,,,,,,,,10,,,49,0
130050,note_on,0,0,9,,,,,,,,,8,,,63,100
130050,note_on,30,0,9,,,,,,,,,8,,,61,0
130050,note_on,0,0,10,,,,,,,,,10,,,51,100
130050,note_on,0,0,11,,,,,,,,,11,,,39,100
130050,note_on,30,0,3,,,,,,,,,2,,,49,0
130050,note_on,30,0,2,,,,,,,,,1,,,66,0
130050,note_on,0,0,3,,,,,,,,,2,,,51,100
130080,note_on,360,0,7,,,,,,,,,6,,,69,0
130080,note_on,30,0,2,,,,,,,,,1,,,64,100
130080,note_on,30,0,1,,,,,,,,,0,,,76,100
130080,note_on,30,0,10,,,,,,,,,10,,,51,0
130080,note_on,0,0,10,,,,,,,,,10,,,52,100
130080,note_on,0,0,8,,,,,,,,,7,,,63,0
130080,note_on,30,0,11,,,,,,,,,11,,,39,0
130080,note_on,0,0,11,,,,,,,,,11,,,40,100
130080,note_on,0,0,7,,,,,,,,,6,,,79,100
130080,note_on,360,0,8,,,,,,,,,7,,,66,0
130080,note_on,30,0,3,,,,,,,,,2,,,51,0
130080,note_on,0,0,3,,,,,,,,,2,,,52,100
130080,note_on,0,0,7,,,,,,,,,6,,,59,0
130080,note_on,0,0,8,,,,,,,,,7,,,59,100
130080,note_on,0,0,9,,,,,,,,,8,,,64,100
130080,note_on,30,0,9,,,,,,,,,8,,,63,0
130110,note_on,30,0,7,,,,,,,,,6,,,79,0
130110,note_on,0,0,7,,,,,,,,,6,,,83,100
130140,note_on,30,0,7,,,,,,,,,6,,,83,0
130140,note_on,0,0,7,,,,,,,,,6,,,81,100
130170,note_on,0,0,7,,,,,,,,,6,,,79,100
130170,note_on,30,0,7,,,,,,,,,6,,,81,0
130200,note_on,0,0,11,,,,,,,,,11,,,52,100
130200,note_on,0,0,8,,,,,,,,,7,,,67,100
130200,note_on,120,0,3,,,,,,,,,2,,,52,0
130200,note_on,120,0,9,,,,,,,,,8,,,64,0
130200,note_on,120,0,2,,,,,,,,,1,,,64,0
130200,note_on,120,0,1,,,,,,,,,0,,,76,0
130200,note_on,0,0,9,,,,,,,,,8,,,64,100
130200,note_on,120,0,8,,,,,,,,,7,,,59,0
130200,note_on,120,0,11,,,,,,,,,11,,,40,0
130200,note_on,120,0,10,,,,,,,,,10,,,52,0
130200,note_on,30,0,7,,,,,,,,,6,,,79,0
130200,note_on,0,0,7,,,,,,,,,6,,,84,100
130200,note_on,0,0,10,,,,,,,,,10,,,64,100
130230,note_on,0,0,8,,,,,,,,,7,,,71,100
130230,note_on,30,0,8,,,,,,,,,7,,,67,0
130260,note_on,0,0,8,,,,,,,,,7,,,69,100
130260,note_on,30,0,8,,,,,,,,,7,,,71,0
130290,note_on,0,0,8,,,,,,,,,7,,,67,100
130290,note_on,30,0,8,,,,,,,,,7,,,69,0
130320,note_on,30,0,8,,,,,,,,,7,,,67,0
130320,note_on,0,0,7,,,,,,,,,6,,,78,100
130320,note_on,120,0,7,,,,,,,,,6,,,84,0
130320,note_on,0,0,8,,,,,,,,,7,,,72,100
130350,note_on,30,0,7,,,,,,,,,6,,,78,0
130350,note_on,0,0,7,,,,,,,,,6,,,81,100
130380,note_on,30,0,7,,,,,,,,,6,,,81,0
130380,note_on,0,0,7,,,,,,,,,6,,,79,100
130410,note_on,30,0,7,,,,,,,,,6,,,79,0
130410,note_on,0,0,7,,,,,,,,,6,,,78,100
130440,note_on,0,0,8,,,,,,,,,7,,,66,100
130440,note_on,30,0,7,,,,,,,,,6,,,78,0
130440,note_on,0,0,7,,,,,,,,,6,,,83,100
130440,note_on,120,0,8,,,,,,,,,7,,,72,0
130440,note_on,240,0,11,,,,,,,,,11,,,52,0
130440,note_on,240,0,9,,,,,,,,,8,,,64,0
130440,note_on,0,0,9,,,,,,,,,8,,,63,100
130440,note_on,0,0,11,,,,,,,,,11,,,51,100
130440,note_on,0,0,10,,,,,,,,,10,,,63,100
130440,note_on,240,0,10,,,,,,,,,10,,,64,0
130470,note_on,30,0,8,,,,,,,,,7,,,66,0
130470,note_on,0,0,8,,,,,,,,,7,,,69,100
130500,note_on,30,0,8,,,,,,,,,7,,,69,0
130500,note_on,0,0,8,,,,,,,,,7,,,67,100
130530,note_on,0,0,8,,,,,,,,,7,,,66,100
130530,note_on,30,0,8,,,,,,,,,7,,,67,0
130560,note_on,120,0,11,,,,,,,,,11,,,51,0
130560,note_on,0,0,11,,,,,,,,,11,,,52,100
130560,note_on,120,0,10,,,,,,,,,10,,,63,0
130560,note_on,0,0,7,,,,,,,,,6,,,80,100
130560,note_on,0,0,10,,,,,,,,,10,,,64,100
130560,note_on,120,0,7,,,,,,,,,6,,,83,0
130560,note_on,30,0,8,,,,,,,,,7,,,66,0
130560,note_on,120,0,9,,,,,,,,,8,,,63,0
130560,note_on,0,0,8,,,,,,,,,7,,,71,100
130560,note_on,0,0,9,,,,,,,,,8,,,64,100
130600,note_on,40,0,9,,,,,,,,,8,,,64,0
130620,note_on,420,0,3,,,,,,,,,2,,,52,100
130620,note_on,60,0,10,,,,,,,,,10,,,64,0
130620,note_on,60,0,11,,,,,,,,,11,,,52,0
130620,note_on,20,0,9,,,,,,,,,8,,,52,100
130660,note_on,40,0,9,,,,,,,,,8,,,52,0
130660,note_on,40,0,3,,,,,,,,,2,,,52,0
130680,note_on,0,0,7,,,,,,,,,6,,,81,100
130680,note_on,20,0,9,,,,,,,,,8,,,52,100
130680,note_on,20,0,3,,,,,,,,,2,,,52,100
130680,note_on,120,0,7,,,,,,,,,6,,,80,0
130680,note_on,0,0,8,,,,,,,,,7,,,73,100
130680,note_on,120,0,8,,,,,,,,,7,,,71,0
130720,note_on,40,0,9,,,,,,,,,8,,,52,0
130720,note_on,40,0,3,,,,,,,,,2,,,52,0
130740,note_on,20,0,9,,,,,,,,,8,,,52,100
130740,note_on,20,0,3,,,,,,,,,2,,,52,100
130780,note_on,40,0,3,,,,,,,,,2,,,52,0
130780,note_on,40,0,9,,,,,,,,,8,,,52,0
130800,note_on,120,0,8,,,,,,,,,7,,,73,0
130800,note_on,20,0,3,,,,,,,,,2,,,52,100
130800,note_on,0,0,8,,,,,,,,,7,,,74,100
130800,note_on,20,0,9,,,,,,,,,8,,,52,100
130800,note_on,120,0,7,,,,,,,,,6,,,81,0
130800,note_on,0,0,7,,,,,,,,,6,,,83,100
130840,note_on,40,0,9,,,,,,,,,8,,,52,0
130840,note_on,40,0,3,,,,,,,,,2,,,52,0
130860,note_on,20,0,9,,,,,,,,,8,,,52,100
130860,note_on,20,0,3,,,,,,,,,2,,,52,100
130900,note_on,40,0,9,,,,,,,,,8,,,52,0
130900,note_on,40,0,3,,,,,,,,,2,,,52,0
130920,note_on,20,0,3,,,,,,,,,2,,,52,100
130920,note_on,20,0,9,,,,,,,,,8,,,52,100
130960,note_on,40,0,3,,,,,,,,,2,,,52,0
130960,note_on,40,0,9,,,,,,,,,8,,,52,0
130980,note_on,20,0,3,,,,,,,,,2,,,54,100
130980,note_on,20,0,9,,,,,,,,,8,,,54,100
131010,note_on,30,0,3,,,,,,,,,2,,,54,0
131010,note_on,0,0,3,,,,,,,,,2,,,56,100
131010,note_on,0,0,9,,,,,,,,,8,,,56,100
131010,note_on,30,0,9,,,,,,,,,8,,,54,0
131040,note_on,0,0,9,,,,,,,,,8,,,57,100
131040,note_on,0,0,4,,,,,,,,,3,,,69,100
131040,note_on,0,0,3,,,,,,,,,2,,,57,100
131040,note_on,30,0,3,,,,,,,,,2,,,56,0
131040,note_on,30,0,9,,,,,,,,,8,,,56,0
131040,note_on,1320,0,4,,,,,,,,,3,,,57,100
131040,note_on,240,0,8,,,,,,,,,7,,,74,0
131040,note_on,840,0,2,,,,,,,,,1,,,69,100
131040,note_on,1320,0,5,,,,,,,,,4,,,69,100
131040,note_on,840,0,1,,,,,,,,,0,,,69,100
131040,note_on,0,0,8,,,,,,,,,7,,,73,100
131070,note_on,0,0,8,,,,,,,,,7,,,76,100
131070,note_on,30,0,8,,,,,,,,,7,,,73,0
131100,note_on,30,0,8,,,,,,,,,7,,,76,0
131100,note_on,0,0,8,,,,,,,,,7,,,74,100
131130,note_on,0,0,8,,,,,,,,,7,,,73,100
131130,note_on,30,0,8,,,,,,,,,7,,,74,0
131160,note_on,0,0,7,,,,,,,,,6,,,81,100
131160,note_on,360,0,7,,,,,,,,,6,,,83,0
131160,note_on,30,0,8,,,,,,,,,7,,,73,0
131160,note_on,0,0,8,,,,,,,,,7,,,78,100
131280,note_on,0,0,4,,,,,,,,,3,,,64,100
131280,note_on,0,0,4,,,,,,,,,3,,,57,0
131280,note_on,0,0,3,,,,,,,,,2,,,52,100
131280,note_on,240,0,3,,,,,,,,,2,,,57,0
131280,note_on,240,0,4,,,,,,,,,3,,,69,0
131280,note_on,0,0,9,,,,,,,,,8,,,64,100
131280,note_on,0,0,8,,,,,,,,,7,,,71,100
131280,note_on,120,0,8,,,,,,,,,7,,,78,0
131280,note_on,240,0,1,,,,,,,,,0,,,69,0
131280,note_on,0,0,2,,,,,,,,,1,,,74,100
131280,note_on,240,0,2,,,,,,,,,1,,,69,0
131280,note_on,0,0,1,,,,,,,,,0,,,86,100
131280,note_on,240,0,5,,,,,,,,,4,,,69,0
131280,note_on,240,0,9,,,,,,,,,8,,,57,0
131280,note_on,0,0,5,,,,,,,,,4,,,76,100
131310,note_on,30,0,8,,,,,,,,,7,,,71,0
131310,note_on,0,0,8,,,,,,,,,7,,,74,100
131340,note_on,30,0,8,,,,,,,,,7,,,74,0
131340,note_on,0,0,8,,,,,,,,,7,,,73,100
131370,note_on,30,0,8,,,,,,,,,7,,,73,0
131370,note_on,0,0,8,,,,,,,,,7,,,71,100
131400,note_on,240,0,7,,,,,,,,,6,,,81,0
131400,note_on,0,0,8,,,,,,,,,7,,,76,100
131400,note_on,0,0,7,,,,,,,,,6,,,80,100
131400,note_on,30,0,8,,,,,,,,,7,,,71,0
131520,note_on,240,0,4,,,,,,,,,3,,,64,0
131520,note_on,0,0,4,,,,,,,,,3,,,57,100
131520,note_on,0,0,4,,,,,,,,,3,,,64,100
131520,note_on,120,0,7,,,,,,,,,6,,,80,0
131520,note_on,240,0,5,,,,,,,,,4,,,76,0
131520,note_on,0,0,5,,,,,,,,,4,,,69,100
131520,note_on,0,0,5,,,,,,,,,4,,,76,100
131520,note_on,240,0,9,,,,,,,,,8,,,64,0
131520,note_on,240,0,3,,,,,,,,,2,,,52,0
131520,note_on,0,0,9,,,,,,,,,8,,,69,100
131520,note_on,0,0,7,,,,,,,,,6,,,79,100
131520,note_on,0,0,3,,,,,,,,,2,,,45,100
131560,note_on,40,0,9,,,,,,,,,8,,,69,0
131560,note_on,40,0,3,,,,,,,,,2,,,45,0
131580,note_on,300,0,2,,,,,,,,,1,,,74,0
131580,note_on,20,0,9,,,,,,,,,8,,,57,100
131580,note_on,960,0,11,,,,,,,,,11,,,33,100
131580,note_on,0,0,2,,,,,,,,,1,,,73,100
131580,note_on,960,0,10,,,,,,,,,10,,,45,100
131580,note_on,0,0,1,,,,,,,,,0,,,85,100
131580,note_on,300,0,1,,,,,,,,,0,,,86,0
131580,note_on,20,0,3,,,,,,,,,2,,,45,100
131610,note_on,30,0,2,,,,,,,,,1,,,73,0
131610,note_on,30,0,1,,,,,,,,,0,,,85,0
131620,note_on,40,0,10,,,,,,,,,10,,,45,0
131620,note_on,40,0,11,,,,,,,,,11,,,33,0
131620,note_on,40,0,3,,,,,,,,,2,,,45,0
131620,note_on,40,0,9,,,,,,,,,8,,,57,0
131640,note_on,0,0,8,,,,,,,,,7,,,61,100
131640,note_on,20,0,11,,,,,,,,,11,,,33,100
131640,note_on,20,0,10,,,,,,,,,10,,,45,100
131640,note_on,120,0,4,,,,,,,,,3,,,64,0
131640,note_on,0,0,4,,,,,,,,,3,,,57,0
131640,note_on,20,0,3,,,,,,,,,2,,,45,100
131640,note_on,0,0,7,,,,,,,,,6,,,67,100
131640,note_on,0,0,7,,,,,,,,,6,,,57,100
131640,note_on,120,0,7,,,,,,,,,6,,,79,0
131640,note_on,240,0,8,,,,,,,,,7,,,76,0
131640,note_on,120,0,5,,,,,,,,,4,,,76,0
131640,note_on,0,0,5,,,,,,,,,4,,,69,0
131640,note_on,30,0,1,,,,,,,,,0,,,83,100
131640,note_on,30,0,2,,,,,,,,,1,,,71,100
131640,note_on,0,0,8,,,,,,,,,7,,,64,100
131640,note_on,20,0,9,,,,,,,,,8,,,57,100
131670,note_on,30,0,2,,,,,,,,,1,,,71,0
131670,note_on,30,0,1,,,,,,,,,0,,,83,0
131680,note_on,40,0,11,,,,,,,,,11,,,33,0
131680,note_on,40,0,9,,,,,,,,,8,,,57,0
131680,note_on,40,0,3,,,,,,,,,2,,,45,0
131680,note_on,40,0,10,,,,,,,,,10,,,45,0
131700,note_on,20,0,3,,,,,,,,,2,,,45,100
131700,note_on,30,0,2,,,,,,,,,1,,,69,100
131700,note_on,20,0,9,,,,,,,,,8,,,57,100
131700,note_on,20,0,10,,,,,,,,,10,,,45,100
131700,note_on,20,0,11,,,,,,,,,11,,,33,100
131700,note_on,30,0,1,,,,,,,,,0,,,81,100
131730,note_on,30,0,2,,,,,,,,,1,,,69,0
131730,note_on,30,0,1,,,,,,,,,0,,,81,0
131740,note_on,40,0,3,,,,,,,,,2,,,45,0
131740,note_on,40,0,11,,,,,,,,,11,,,33,0
131740,note_on,40,0,10,,,,,,,,,10,,,45,0
131740,note_on,40,0,9,,,,,,,,,8,,,57,0
131760,note_on,30,0,2,,,,,,,,,1,,,69,100
131760,note_on,20,0,11,,,,,,,,,11,,,33,100
131760,note_on,30,0,1,,,,,,,,,0,,,81,100
131760,note_on,20,0,10,,,,,,,,,10,,,45,100
131760,note_on,20,0,3,,,,,,,,,2,,,45,100
131760,note_on,20,0,9,,,,,,,,,8,,,57,100
131800,note_on,40,0,9,,,,,,,,,8,,,57,0
131800,note_on,40,0,10,,,,,,,,,10,,,45,0
131800,note_on,40,0,3,,,,,,,,,2,,,45,0
131800,note_on,40,0,11,,,,,,,,,11,,,33,0
131820,note_on,20,0,10,,,,,,,,,10,,,45,100
131820,note_on,20,0,11,,,,,,,,,11,,,33,100
131820,note_on,0,0,2,,,,,,,,,1,,,67,100
131820,note_on,0,0,1,,,,,,,,,0,,,79,100
131820,note_on,60,0,1,,,,,,,,,0,,,81,0
131820,note_on,20,0,9,,,,,,,,,8,,,57,100
131820,note_on,20,0,3,,,,,,,,,2,,,45,100
131820,note_on,60,0,2,,,,,,,,,1,,,69,0
131850,note_on,30,0,2,,,,,,,,,1,,,67,0
131850,note_on,30,0,1,,,,,,,,,0,,,79,0
131860,note_on,40,0,3,,,,,,,,,2,,,45,0
131860,note_on,40,0,10,,,,,,,,,10,,,45,0
131860,note_on,40,0,9,,,,,,,,,8,,,57,0
131860,note_on,40,0,11,,,,,,,,,11,,,33,0
131880,note_on,20,0,10,,,,,,,,,10,,,45,100
131880,note_on,20,0,9,,,,,,,,,8,,,57,100
131880,note_on,30,0,1,,,,,,,,,0,,,78,100
131880,note_on,20,0,3,,,,,,,,,2,,,45,100
131880,note_on,30,0,2,,,,,,,,,1,,,66,100
131880,note_on,20,0,11,,,,,,,,,11,,,33,100
131910,note_on,30,0,1,,,,,,,,,0,,,78,0
131910,note_on,30,0,2,,,,,,,,,1,,,66,0
131920,note_on,40,0,10,,,,,,,,,10,,,45,0
131920,note_on,40,0,3,,,,,,,,,2,,,45,0
131920,note_on,40,0,11,,,,,,,,,11,,,33,0
131920,note_on,40,0,9,,,,,,,,,8,,,57,0
131940,note_on,20,0,11,,,,,,,,,11,,,35,100
131940,note_on,30,0,2,,,,,,,,,1,,,64,100
131940,note_on,30,0,1,,,,,,,,,0,,,76,100
131940,note_on,20,0,10,,,,,,,,,10,,,47,100
131940,note_on,20,0,9,,,,,,,,,8,,,59,100
131940,note_on,20,0,3,,,,,,,,,2,,,47,100
131970,note_on,30,0,2,,,,,,,,,1,,,64,0
131970,note_on,0,0,10,,,,,,,,,10,,,49,100
131970,note_on,30,0,10,,,,,,,,,10,,,47,0
131970,note_on,30,0,3,,,,,,,,,2,,,47,0
131970,note_on,0,0,11,,,,,,,,,11,,,37,100
131970,note_on,30,0,9,,,,,,,,,8,,,59,0
131970,note_on,30,0,1,,,,,,,,,0,,,76,0
131970,note_on,0,0,9,,,,,,,,,8,,,61,100
131970,note_on,30,0,11,,,,,,,,,11,,,35,0
131970,note_on,0,0,3,,,,,,,,,2,,,49,100
132000,note_on,30,0,3,,,,,,,,,2,,,49,0
132000,note_on,30,0,9,,,,,,,,,8,,,61,0
132000,note_on,30,0,10,,,,,,,,,10,,,49,0
132000,note_on,0,0,10,,,,,,,,,10,,,50,100
132000,note_on,30,0,2,,,,,,,,,1,,,62,100
132000,note_on,0,0,11,,,,,,,,,11,,,38,100
132000,note_on,30,0,11,,,,,,,,,11,,,37,0
132000,note_on,0,0,4,,,,,,,,,3,,,66,100
132000,note_on,360,0,4,,,,,,,,,3,,,62,100
132000,note_on,30,0,1,,,,,,,,,0,,,74,100
132000,note_on,0,0,3,,,,,,,,,2,,,50,100
132000,note_on,0,0,9,,,,,,,,,8,,,62,100
132000,note_on,360,0,8,,,,,,,,,7,,,64,0
132000,note_on,0,0,8,,,,,,,,,7,,,61,0
132000,note_on,360,0,7,,,,,,,,,6,,,67,0
132000,note_on,0,0,7,,,,,,,,,6,,,78,100
132000,note_on,0,0,8,,,,,,,,,7,,,57,100
132000,note_on,0,0,7,,,,,,,,,6,,,57,0
132030,note_on,30,0,7,,,,,,,,,6,,,78,0
132030,note_on,0,0,7,,,,,,,,,6,,,81,100
132060,note_on,30,0,7,,,,,,,,,6,,,81,0
132060,note_on,0,0,7,,,,,,,,,6,,,79,100
132090,note_on,0,0,7,,,,,,,,,6,,,78,100
132090,note_on,30,0,7,,,,,,,,,6,,,79,0
132120,note_on,480,0,5,,,,,,,,,4,,,62,100
132120,note_on,0,0,5,,,,,,,,,4,,,74,100
132120,note_on,0,0,2,,,,,,,,,1,,,74,100
132120,note_on,0,0,1,,,,,,,,,0,,,83,100
132120,note_on,120,0,3,,,,,,,,,2,,,50,0
132120,note_on,0,0,7,,,,,,,,,6,,,83,100
132120,note_on,30,0,7,,,,,,,,,6,,,78,0
132120,note_on,0,0,3,,,,,,,,,2,,,62,100
132120,note_on,120,0,1,,,,,,,,,0,,,74,0
132120,note_on,4800,0,6,,,,,,,,,5,,,50,100
132120,note_on,0,0,1,,,,,,,,,0,,,78,100
132120,note_on,120,0,9,,,,,,,,,8,,,62,0
132120,note_on,0,0,11,,,,,,,,,11,,,50,100
132120,note_on,120,0,8,,,,,,,,,7,,,57,0
132120,note_on,120,0,2,,,,,,,,,1,,,62,0
132120,note_on,0,0,2,,,,,,,,,1,,,71,100
132120,note_on,0,0,8,,,,,,,,,7,,,66,100
132120,note_on,120,0,10,,,,,,,,,10,,,50,0
132120,note_on,120,0,11,,,,,,,,,11,,,38,0
132120,note_on,0,0,10,,,,,,,,,10,,,62,100
132120,note_on,0,0,9,,,,,,,,,8,,,62,100
132150,note_on,30,0,8,,,,,,,,,7,,,66,0
132150,note_on,0,0,8,,,,,,,,,7,,,69,100
132180,note_on,30,0,8,,,,,,,,,7,,,69,0
132180,note_on,0,0,8,,,,,,,,,7,,,67,100
132210,note_on,0,0,8,,,,,,,,,7,,,66,100
132210,note_on,30,0,8,,,,,,,,,7,,,67,0
132240,note_on,120,0,7,,,,,,,,,6,,,83,0
132240,note_on,0,0,7,,,,,,,,,6,,,76,100
132240,note_on,120,0,1,,,,,,,,,0,,,78,0
132240,note_on,0,0,1,,,,,,,,,0,,,79,100
132240,note_on,0,0,8,,,,,,,,,7,,,71,100
132240,note_on,0,0,5,,,,,,,,,4,,,62,0
132240,note_on,120,0,5,,,,,,,,,4,,,74,0
132240,note_on,120,0,6,,,,,,,,,5,,,50,0
132240,note_on,30,0,8,,,,,,,,,7,,,66,0
132240,note_on,120,0,2,,,,,,,,,1,,,74,0
132240,note_on,0,0,4,,,,,,,,,3,,,62,0
132240,note_on,0,0,4,,,,,,,,,3,,,64,100
132240,note_on,0,0,4,,,,,,,,,3,,,67,100
132240,note_on,240,0,4,,,,,,,,,3,,,66,0
132240,note_on,0,0,2,,,,,,,,,1,,,76,100
132270,note_on,30,0,7,,,,,,,,,6,,,76,0
132270,note_on,0,0,7,,,,,,,,,6,,,79,100
132300,note_on,0,0,7,,,,,,,,,6,,,78,100
132300,note_on,30,0,7,,,,,,,,,6,,,79,0
132330,note_on,30,0,7,,,,,,,,,6,,,78,0
132330,note_on,0,0,7,,,,,,,,,6,,,76,100
132360,note_on,0,0,4,,,,,,,,,3,,,57,100
132360,note_on,0,0,7,,,,,,,,,6,,,81,100
132360,note_on,0,0,10,,,,,,,,,10,,,61,100
132360,note_on,240,0,9,,,,,,,,,8,,,62,0
132360,note_on,0,0,8,,,,,,,,,7,,,64,100
132360,note_on,0,0,9,,,,,,,,,8,,,61,100
132360,note_on,0,0,1,,,,,,,,,0,,,81,100
132360,note_on,120,0,1,,,,,,,,,0,,,83,0
132360,note_on,240,0,10,,,,,,,,,10,,,62,0
132360,note_on,0,0,2,,,,,,,,,1,,,69,100
132360,note_on,120,0,4,,,,,,,,,3,,,67,0
132360,note_on,0,0,4,,,,,,,,,3,,,69,100
132360,note_on,30,0,7,,,,,,,,,6,,,76,0
132360,note_on,0,0,5,,,,,,,,,4,,,69,100
132360,note_on,120,0,6,,,,,,,,,5,,,45,100
132360,note_on,120,0,2,,,,,,,,,1,,,71,0
132360,note_on,0,0,4,,,,,,,,,3,,,64,0
132360,note_on,120,0,5,,,,,,,,,4,,,57,100
132360,note_on,0,0,3,,,,,,,,,2,,,61,100
132360,note_on,240,0,3,,,,,,,,,2,,,62,0
132360,note_on,0,0,11,,,,,,,,,11,,,49,100
132360,note_on,240,0,11,,,,,,,,,11,,,50,0
132360,note_on,120,0,8,,,,,,,,,7,,,71,0
132390,note_on,0,0,8,,,,,,,,,7,,,67,100
132390,note_on,30,0,8,,,,,,,,,7,,,64,0
132420,note_on,30,0,8,,,,,,,,,7,,,67,0
132420,note_on,0,0,8,,,,,,,,,7,,,66,100
132450,note_on,30,0,8,,,,,,,,,7,,,66,0
132450,note_on,0,0,8,,,,,,,,,7,,,64,100
132480,note_on,120,0,7,,,,,,,,,6,,,81,0
132480,note_on,120,0,11,,,,,,,,,11,,,49,0
132480,note_on,0,0,6,,,,,,,,,5,,,50,100
132480,note_on,0,0,7,,,,,,,,,6,,,78,100
132480,note_on,0,0,9,,,,,,,,,8,,,62,100
132480,note_on,0,0,2,,,,,,,,,1,,,66,100
132480,note_on,0,0,8,,,,,,,,,7,,,69,100
132480,note_on,0,0,2,,,,,,,,,1,,,69,100
132480,note_on,120,0,6,,,,,,,,,5,,,45,0
132480,note_on,120,0,9,,,,,,,,,8,,,61,0
132480,note_on,0,0,2,,,,,,,,,1,,,76,0
132480,note_on,120,0,10,,,,,,,,,10,,,61,0
132480,note_on,120,0,4,,,,,,,,,3,,,69,0
132480,note_on,0,0,4,,,,,,,,,3,,,57,0
132480,note_on,120,0,3,,,,,,,,,2,,,61,0
132480,note_on,0,0,3,,,,,,,,,2,,,62,100
132480,note_on,30,0,8,,,,,,,,,7,,,64,0
132480,note_on,120,0,5,,,,,,,,,4,,,69,0
132480,note_on,0,0,4,,,,,,,,,3,,,66,100
132480,note_on,0,0,4,,,,,,,,,3,,,62,100
132480,note_on,0,0,10,,,,,,,,,10,,,62,100
132480,note_on,0,0,5,,,,,,,,,4,,,57,0
132480,note_on,0,0,5,,,,,,,,,4,,,74,100
132480,note_on,120,0,2,,,,,,,,,1,,,69,0
132480,note_on,0,0,11,,,,,,,,,11,,,50,100
132480,note_on,120,0,1,,,,,,,,,0,,,81,0
132480,note_on,0,0,1,,,,,,,,,0,,,79,0
132480,note_on,0,0,1,,,,,,,,,0,,,81,100
132480,note_on,0,0,1,,,,,,,,,0,,,78,100
132480,note_on,0,0,5,,,,,,,,,4,,,62,100
132520,note_on,40,0,9,,,,,,,,,8,,,62,0
132520,note_on,40,0,10,,,,,,,,,10,,,62,0
132520,note_on,40,0,11,,,,,,,,,11,,,50,0
132520,note_on,40,0,3,,,,,,,,,2,,,62,0
132520,note_on,0,0,4,,,,,,,,,3,,,66,0
132520,note_on,40,0,4,,,,,,,,,3,,,62,0
132540,note_on,20,0,4,,,,,,,,,3,,,50,100
132540,note_on,20,0,9,,,,,,,,,8,,,50,100
132540,note_on,0,0,4,,,,,,,,,3,,,62,100
132540,note_on,20,0,10,,,,,,,,,10,,,50,100
132540,note_on,20,0,11,,,,,,,,,11,,,38,100
132540,note_on,20,0,3,,,,,,,,,2,,,50,100
132580,note_on,40,0,4,,,,,,,,,3,,,62,0
132580,note_on,40,0,9,,,,,,,,,8,,,50,0
132580,note_on,0,0,4,,,,,,,,,3,,,50,0
132580,note_on,40,0,11,,,,,,,,,11,,,38,0
132580,note_on,40,0,10,,,,,,,,,10,,,50,0
132580,note_on,40,0,3,,,,,,,,,2,,,50,0
132585,note_on,105,0,2,,,,,,,,,1,,,66,0
132585,note_on,105,0,1,,,,,,,,,0,,,78,0
132585,note_on,0,0,1,,,,,,,,,0,,,81,0
132585,note_on,0,0,2,,,,,,,,,1,,,69,0
132600,note_on,120,0,5,,,,,,,,,4,,,74,0
132600,note_on,0,0,2,,,,,,,,,1,,,67,100
132600,note_on,20,0,4,,,,,,,,,3,,,50,100
132600,note_on,20,0,3,,,,,,,,,2,,,50,100
132600,note_on,15,0,1,,,,,,,,,0,,,79,100
132600,note_on,120,0,7,,,,,,,,,6,,,78,0
132600,note_on,120,0,8,,,,,,,,,7,,,69,0
132600,note_on,0,0,4,,,,,,,,,3,,,62,100
132600,note_on,0,0,6,,,,,,,,,5,,,50,100
132600,note_on,120,0,6,,,,,,,,,5,,,50,0
132600,note_on,15,0,2,,,,,,,,,1,,,71,100
132600,note_on,20,0,10,,,,,,,,,10,,,50,100
132600,note_on,0,0,5,,,,,,,,,4,,,74,100
132600,note_on,0,0,5,,,,,,,,,4,,,62,100
132600,note_on,0,0,7,,,,,,,,,6,,,79,100
132600,note_on,0,0,5,,,,,,,,,4,,,62,0
132600,note_on,0,0,1,,,,,,,,,0,,,83,100
132600,note_on,20,0,9,,,,,,,,,8,,,50,100
132600,note_on,0,0,8,,,,,,,,,7,,,71,100
132600,note_on,20,0,11,,,,,,,,,11,,,38,100
132640,note_on,40,0,9,,,,,,,,,8,,,50,0
132640,note_on,40,0,3,,,,,,,,,2,,,50,0
132640,note_on,0,0,4,,,,,,,,,3,,,50,0
132640,note_on,40,0,11,,,,,,,,,11,,,38,0
132640,note_on,40,0,10,,,,,,,,,10,,,50,0
132640,note_on,40,0,4,,,,,,,,,3,,,62,0
132660,note_on,20,0,9,,,,,,,,,8,,,50,100
132660,note_on,20,0,11,,,,,,,,,11,,,38,100
132660,note_on,20,0,4,,,,,,,,,3,,,50,100
132660,note_on,0,0,4,,,,,,,,,3,,,62,100
132660,note_on,20,0,3,,,,,,,,,2,,,50,100
132660,note_on,20,0,10,,,,,,,,,10,,,50,100
132700,note_on,40,0,11,,,,,,,,,11,,,38,0
132700,note_on,40,0,4,,,,,,,,,3,,,62,0
132700,note_on,0,0,4,,,,,,,,,3,,,50,0
132700,note_on,40,0,9,,,,,,,,,8,,,50,0
132700,note_on,40,0,3,,,,,,,,,2,,,50,0
132700,note_on,40,0,10,,,,,,,,,10,,,50,0
132705,note_on,105,0,1,,,,,,,,,0,,,83,0
132705,note_on,0,0,2,,,,,,,,,1,,,71,0
132705,note_on,105,0,2,,,,,,,,,1,,,67,0
132705,note_on,0,0,1,,,,,,,,,0,,,79,0
132720,note_on,15,0,1,,,,,,,,,0,,,84,100
132720,note_on,120,0,8,,,,,,,,,7,,,71,0
132720,note_on,0,0,6,,,,,,,,,5,,,50,100
132720,note_on,0,0,5,,,,,,,,,4,,,62,100
132720,note_on,0,0,5,,,,,,,,,4,,,74,100
132720,note_on,0,0,1,,,,,,,,,0,,,81,100
132720,note_on,120,0,6,,,,,,,,,5,,,50,0
132720,note_on,0,0,4,,,,,,,,,3,,,62,100
132720,note_on,0,0,5,,,,,,,,,4,,,62,0
132720,note_on,20,0,11,,,,,,,,,11,,,38,100
132720,note_on,0,0,7,,,,,,,,,6,,,81,100
132720,note_on,20,0,9,,,,,,,,,8,,,50,100
132720,note_on,20,0,10,,,,,,,,,10,,,50,100
132720,note_on,120,0,5,,,,,,,,,4,,,74,0
132720,note_on,0,0,2,,,,,,,,,1,,,72,100
132720,note_on,120,0,7,,,,,,,,,6,,,79,0
132720,note_on,20,0,4,,,,,,,,,3,,,50,100
132720,note_on,15,0,2,,,,,,,,,1,,,69,100
132720,note_on,0,0,8,,,,,,,,,7,,,72,100
132720,note_on,20,0,3,,,,,,,,,2,,,50,100
132760,note_on,40,0,9,,,,,,,,,8,,,50,0
132760,note_on,40,0,11,,,,,,,,,11,,,38,0
132760,note_on,0,0,4,,,,,,,,,3,,,50,0
132760,note_on,40,0,4,,,,,,,,,3,,,62,0
132760,note_on,40,0,10,,,,,,,,,10,,,50,0
132760,note_on,40,0,3,,,,,,,,,2,,,50,0
132780,note_on,20,0,11,,,,,,,,,11,,,38,100
132780,note_on,20,0,4,,,,,,,,,3,,,50,100
132780,note_on,0,0,4,,,,,,,,,3,,,62,100
132780,note_on,20,0,3,,,,,,,,,2,,,50,100
132780,note_on,20,0,9,,,,,,,,,8,,,50,100
132780,note_on,20,0,10,,,,,,,,,10,,,50,100
132820,note_on,40,0,11,,,,,,,,,11,,,38,0
132820,note_on,40,0,9,,,,,,,,,8,,,50,0
132820,note_on,40,0,10,,,,,,,,,10,,,50,0
132820,note_on,0,0,4,,,,,,,,,3,,,50,0
132820,note_on,40,0,4,,,,,,,,,3,,,62,0
132820,note_on,40,0,3,,,,,,,,,2,,,50,0
132840,note_on,120,0,6,,,,,,,,,5,,,50,0
132840,note_on,20,0,4,,,,,,,,,3,,,50,100
132840,note_on,20,0,11,,,,,,,,,11,,,38,100
132840,note_on,0,0,5,,,,,,,,,4,,,62,0
132840,note_on,120,0,5,,,,,,,,,4,,,74,0
132840,note_on,20,0,3,,,,,,,,,2,,,50,100
132840,note_on,20,0,9,,,,,,,,,8,,,50,100
132840,note_on,20,0,10,,,,,,,,,10,,,50,100
132840,note_on,0,0,4,,,,,,,,,3,,,62,100
132880,note_on,40,0,3,,,,,,,,,2,,,50,0
132880,note_on,40,0,4,,,,,,,,,3,,,62,0
132880,note_on,40,0,11,,,,,,,,,11,,,38,0
132880,note_on,0,0,4,,,,,,,,,3,,,50,0
132880,note_on,40,0,9,,,,,,,,,8,,,50,0
132880,note_on,40,0,10,,,,,,,,,10,,,50,0
132900,note_on,20,0,10,,,,,,,,,10,,,52,100
132900,note_on,20,0,3,,,,,,,,,2,,,52,100
132900,note_on,0,0,4,,,,,,,,,3,,,62,100
132900,note_on,20,0,4,,,,,,,,,3,,,50,100
132900,note_on,20,0,9,,,,,,,,,8,,,52,100
132900,note_on,20,0,11,,,,,,,,,11,,,40,100
132930,note_on,30,0,3,,,,,,,,,2,,,52,0
132930,note_on,0,0,3,,,,,,,,,2,,,54,100
132930,note_on,30,0,9,,,,,,,,,8,,,52,0
132930,note_on,30,0,10,,,,,,,,,10,,,52,0
132930,note_on,30,0,11,,,,,,,,,11,,,40,0
132930,note_on,0,0,11,,,,,,,,,11,,,42,100
132930,note_on,0,0,10,,,,,,,,,10,,,54,100
132930,note_on,0,0,9,,,,,,,,,8,,,54,100
132940,note_on,40,0,4,,,,,,,,,3,,,62,0
132940,note_on,0,0,4,,,,,,,,,3,,,50,0
132960,note_on,240,0,8,,,,,,,,,7,,,72,0
132960,note_on,0,0,2,,,,,,,,,1,,,71,100
132960,note_on,0,0,2,,,,,,,,,1,,,67,100
132960,note_on,0,0,2,,,,,,,,,1,,,69,0
132960,note_on,240,0,2,,,,,,,,,1,,,72,0
132960,note_on,0,0,4,,,,,,,,,3,,,62,100
132960,note_on,20,0,4,,,,,,,,,3,,,50,100
132960,note_on,0,0,8,,,,,,,,,7,,,71,100
132960,note_on,240,0,7,,,,,,,,,6,,,81,0
132960,note_on,0,0,3,,,,,,,,,2,,,55,100
132960,note_on,0,0,1,,,,,,,,,0,,,83,100
132960,note_on,0,0,1,,,,,,,,,0,,,84,0
132960,note_on,240,0,1,,,,,,,,,0,,,81,0
132960,note_on,0,0,11,,,,,,,,,11,,,43,100
132960,note_on,30,0,10,,,,,,,,,10,,,54,0
132960,marker,7680,1,0,,,,,,,,,,,,,
132960,note_on,30,0,9,,,,,,,,,8,,,54,0
132960,note_on,0,0,1,,,,,,,,,0,,,79,100
132960,note_on,0,0,9,,,,,,,,,8,,,55,100
132960,note_on,0,0,10,,,,,,,,,10,,,55,100
132960,note_on,30,0,3,,,,,,,,,2,,,54,0
132960,note_on,30,0,11,,,,,,,,,11,,,42,0
132990,note_on,0,0,8,,,,,,,,,7,,,74,100
132990,note_on,30,0,8,,,,,,,,,7,,,71,0
133020,note_on,30,0,8,,,,,,,,,7,,,74,0
133020,note_on,0,0,8,,,,,,,,,7,,,73,100
133050,note_on,30,0,8,,,,,,,,,7,,,73,0
133050,note_on,0,0,8,,,,,,,,,7,,,71,100
133080,note_on,120,0,3,,,,,,,,,2,,,55,0
133080,note_on,0,0,9,,,,,,,,,8,,,67,100
133080,note_on,120,0,9,,,,,,,,,8,,,55,0
133080,note_on,0,0,1,,,,,,,,,0,,,83,0
133080,note_on,120,0,11,,,,,,,,,11,,,43,0
133080,note_on,0,0,3,,,,,,,,,2,,,67,100
133080,note_on,120,0,1,,,,,,,,,0,,,79,0
133080,note_on,0,0,2,,,,,,,,,1,,,67,0
133080,note_on,0,0,2,,,,,,,,,1,,,76,100
133080,note_on,0,0,2,,,,,,,,,1,,,71,100
133080,note_on,120,0,10,,,,,,,,,10,,,55,0
133080,note_on,0,0,4,,,,,,,,,3,,,50,0
133080,note_on,120,0,4,,,,,,,,,3,,,62,0
133080,note_on,30,0,8,,,,,,,,,7,,,71,0
133080,note_on,0,0,8,,,,,,,,,7,,,76,100
133080,note_on,0,0,10,,,,,,,,,10,,,67,100
133080,note_on,120,0,2,,,,,,,,,1,,,71,0
133140,note_on,60,0,8,,,,,,,,,7,,,76,0
133200,note_on,0,0,2,,,,,,,,,1,,,72,100
133200,note_on,60,0,8,,,,,,,,,7,,,69,100
133200,note_on,120,0,2,,,,,,,,,1,,,71,0
133230,note_on,30,0,8,,,,,,,,,7,,,69,0
133230,note_on,0,0,8,,,,,,,,,7,,,73,100
133260,note_on,0,0,8,,,,,,,,,7,,,71,100
133260,note_on,30,0,8,,,,,,,,,7,,,73,0
133290,note_on,0,0,8,,,,,,,,,7,,,69,100
133290,note_on,30,0,8,,,,,,,,,7,,,71,0
133320,note_on,0,0,9,,,,,,,,,8,,,66,100
133320,note_on,240,0,9,,,,,,,,,8,,,67,0
133320,note_on,0,0,8,,,,,,,,,7,,,74,100
133320,note_on,30,0,8,,,,,,,,,7,,,69,0
133320,note_on,240,0,3,,,,,,,,,2,,,67,0
133320,note_on,120,0,2,,,,,,,,,1,,,76,0
133320,note_on,0,0,2,,,,,,,,,1,,,74,100
133320,note_on,240,0,10,,,,,,,,,10,,,67,0
133320,note_on,0,0,10,,,,,,,,,10,,,66,100
133320,note_on,0,0,3,,,,,,,,,2,,,66,100
133380,note_on,60,0,8,,,,,,,,,7,,,74,0
133440,note_on,60,0,8,,,,,,,,,7,,,71,100
133440,note_on,0,0,10,,,,,,,,,10,,,67,100
133440,note_on,0,0,9,,,,,,,,,8,,,67,100
133440,note_on,480,0,7,,,,,,,,,6,,,71,100
133440,note_on,0,0,2,,,,,,,,,1,,,71,100
133440,note_on,120,0,2,,,,,,,,,1,,,72,0
133440,note_on,120,0,3,,,,,,,,,2,,,66,0
133440,note_on,120,0,9,,,,,,,,,8,,,66,0
133440,note_on,0,0,3,,,,,,,,,2,,,67,100
133440,note_on,120,0,10,,,,,,,,,10,,,66,0
133470,note_on,0,0,7,,,,,,,,,6,,,74,100
133470,note_on,30,0,7,,,,,,,,,6,,,71,0
133500,note_on,0,0,7,,,,,,,,,6,,,73,100
133500,note_on,30,0,7,,,,,,,,,6,,,74,0
133530,note_on,0,0,7,,,,,,,,,6,,,71,100
133530,note_on,30,0,7,,,,,,,,,6,,,73,0
133560,note_on,0,0,2,,,,,,,,,1,,,77,100
133560,note_on,0,0,2,,,,,,,,,1,,,72,100
133560,note_on,0,0,9,,,,,,,,,8,,,57,100
133560,note_on,480,0,1,,,,,,,,,0,,,89,100
133560,note_on,120,0,8,,,,,,,,,7,,,71,0
133560,note_on,480,0,11,,,,,,,,,11,,,45,100
133560,note_on,0,0,1,,,,,,,,,0,,,84,100
133560,note_on,0,0,10,,,,,,,,,10,,,57,100
133560,note_on,120,0,9,,,,,,,,,8,,,67,0
133560,note_on,0,0,3,,,,,,,,,2,,,57,100
133560,note_on,0,0,2,,,,,,,,,1,,,74,0
133560,note_on,120,0,3,,,,,,,,,2,,,67,0
133560,note_on,120,0,10,,,,,,,,,10,,,67,0
133560,note_on,30,0,7,,,,,,,,,6,,,71,0
133560,note_on,120,0,2,,,,,,,,,1,,,71,0
133560,note_on,0,0,7,,,,,,,,,6,,,77,100
133620,note_on,60,0,7,,,,,,,,,6,,,77,0
133680,note_on,120,0,2,,,,,,,,,1,,,72,0
133680,note_on,0,0,2,,,,,,,,,1,,,74,100
133680,note_on,0,0,1,,,,,,,,,0,,,86,100
133680,note_on,120,0,1,,,,,,,,,0,,,84,0
133680,note_on,60,0,7,,,,,,,,,6,,,71,100
133710,note_on,30,0,7,,,,,,,,,6,,,71,0
133710,note_on,0,0,7,,,,,,,,,6,,,74,100
133740,note_on,30,0,7,,,,,,,,,6,,,74,0
133740,note_on,0,0,7,,,,,,,,,6,,,73,100
133770,note_on,30,0,7,,,,,,,,,6,,,73,0
133770,note_on,0,0,7,,,,,,,,,6,,,71,100
133800,note_on,240,0,11,,,,,,,,,11,,,45,0
133800,note_on,0,0,11,,,,,,,,,11,,,44,100
133800,note_on,0,0,3,,,,,,,,,2,,,56,100
133800,note_on,240,0,3,,,,,,,,,2,,,57,0
133800,note_on,30,0,7,,,,,,,,,6,,,71,0
133800,note_on,0,0,7,,,,,,,,,6,,,77,100
133800,note_on,0,0,1,,,,,,,,,0,,,88,100
133800,note_on,120,0,1,,,,,,,,,0,,,89,0
133800,note_on,120,0,2,,,,,,,,,1,,,77,0
133800,note_on,240,0,10,,,,,,,,,10,,,57,0
133800,note_on,0,0,2,,,,,,,,,1,,,76,100
133800,note_on,240,0,9,,,,,,,,,8,,,57,0
133800,note_on,0,0,9,,,,,,,,,8,,,56,100
133800,note_on,0,0,10,,,,,,,,,10,,,56,100
133860,note_on,60,0,7,,,,,,,,,6,,,77,0
133920,note_on,0,0,11,,,,,,,,,11,,,45,100
133920,note_on,120,0,11,,,,,,,,,11,,,44,0
133920,note_on,120,0,2,,,,,,,,,1,,,74,0
133920,note_on,0,0,2,,,,,,,,,1,,,72,100
133920,note_on,60,0,7,,,,,,,,,6,,,72,100
133920,note_on,120,0,1,,,,,,,,,0,,,88,0
133920,note_on,120,0,9,,,,,,,,,8,,,56,0
133920,note_on,0,0,10,,,,,,,,,10,,,57,100
133920,note_on,120,0,10,,,,,,,,,10,,,56,0
133920,note_on,0,0,9,,,,,,,,,8,,,57,100
133920,note_on,360,0,8,,,,,,,,,7,,,72,100
133920,note_on,0,0,1,,,,,,,,,0,,,88,100
133920,note_on,0,0,1,,,,,,,,,0,,,84,100
133920,note_on,0,0,1,,,,,,,,,0,,,86,0
133920,note_on,120,0,3,,,,,,,,,2,,,56,0
133920,note_on,0,0,3,,,,,,,,,2,,,57,100
133950,note_on,30,0,8,,,,,,,,,7,,,72,0
133950,note_on,0,0,8,,,,,,,,,7,,,76,100
133980,note_on,30,0,8,,,,,,,,,7,,,76,0
133980,note_on,0,0,8,,,,,,,,,7,,,74,100
134010,note_on,30,0,8,,,,,,,,,7,,,74,0
134010,note_on,0,0,8,,,,,,,,,7,,,73,100
134040,note_on,120,0,9,,,,,,,,,8,,,57,0
134040,note_on,120,0,3,,,,,,,,,2,,,57,0
134040,note_on,0,0,3,,,,,,,,,2,,,69,100
134040,note_on,0,0,9,,,,,,,,,8,,,69,100
134040,note_on,120,0,1,,,,,,,,,0,,,88,0
134040,note_on,30,0,8,,,,,,,,,7,,,73,0
134040,note_on,0,0,1,,,,,,,,,0,,,84,0
134040,note_on,0,0,10,,,,,,,,,10,,,69,100
134040,note_on,120,0,11,,,,,,,,,11,,,45,0
134040,note_on,120,0,10,,,,,,,,,10,,,57,0
134040,note_on,0,0,2,,,,,,,,,1,,,77,100
134040,note_on,120,0,2,,,,,,,,,1,,,76,0
134040,note_on,120,0,7,,,,,,,,,6,,,72,0
134040,note_on,0,0,8,,,,,,,,,7,,,77,100
134100,note_on,60,0,8,,,,,,,,,7,,,77,0
134160,note_on,60,0,8,,,,,,,,,7,,,71,100
134160,note_on,120,0,2,,,,,,,,,1,,,72,0
134160,note_on,0,0,2,,,,,,,,,1,,,74,100
134190,note_on,30,0,8,,,,,,,,,7,,,71,0
134190,note_on,0,0,8,,,,,,,,,7,,,74,100
134220,note_on,30,0,8,,,,,,,,,7,,,74,0
134220,note_on,0,0,8,,,,,,,,,7,,,73,100
134250,note_on,30,0,8,,,,,,,,,7,,,73,0
134250,note_on,0,0,8,,,,,,,,,7,,,71,100
134280,note_on,0,0,9,,,,,,,,,8,,,68,100
134280,note_on,240,0,9,,,,,,,,,8,,,69,0
134280,note_on,0,0,2,,,,,,,,,1,,,76,100
134280,note_on,240,0,10,,,,,,,,,10,,,69,0
134280,note_on,0,0,3,,,,,,,,,2,,,68,100
134280,note_on,240,0,3,,,,,,,,,2,,,69,0
134280,note_on,0,0,8,,,,,,,,,7,,,76,100
134280,note_on,30,0,8,,,,,,,,,7,,,71,0
134280,note_on,120,0,2,,,,,,,,,1,,,77,0
134280,note_on,0,0,10,,,,,,,,,10,,,68,100
134340,note_on,60,0,8,,,,,,,,,7,,,76,0
134400,note_on,120,0,3,,,,,,,,,2,,,68,0
134400,note_on,60,0,8,,,,,,,,,7,,,72,100
134400,note_on,0,0,9,,,,,,,,,8,,,69,100
134400,note_on,120,0,9,,,,,,,,,8,,,68,0
134400,note_on,0,0,10,,,,,,,,,10,,,69,100
134400,note_on,120,0,10,,,,,,,,,10,,,68,0
134400,note_on,120,0,2,,,,,,,,,1,,,74,0
134400,note_on,0,0,2,,,,,,,,,1,,,72,100
134400,note_on,0,0,3,,,,,,,,,2,,,69,100
134400,note_on,360,0,7,,,,,,,,,6,,,72,100
134430,note_on,0,0,7,,,,,,,,,6,,,76,100
134430,note_on,30,0,7,,,,,,,,,6,,,72,0
134460,note_on,0,0,7,,,,,,,,,6,,,74,100
134460,note_on,30,0,7,,,,,,,,,6,,,76,0
134490,note_on,0,0,7,,,,,,,,,6,,,72,100
134490,note_on,30,0,7,,,,,,,,,6,,,74,0
134520,note_on,480,0,1,,,,,,,,,0,,,91,100
134520,note_on,0,0,1,,,,,,,,,0,,,86,100
134520,note_on,0,0,9,,,,,,,,,8,,,59,100
134520,note_on,120,0,8,,,,,,,,,7,,,72,0
134520,note_on,120,0,9,,,,,,,,,8,,,69,0
134520,note_on,0,0,2,,,,,,,,,1,,,79,100
134520,note_on,30,0,7,,,,,,,,,6,,,72,0
134520,note_on,480,0,11,,,,,,,,,11,,,47,100
134520,note_on,120,0,3,,,,,,,,,2,,,69,0
134520,note_on,0,0,3,,,,,,,,,2,,,59,100
134520,note_on,0,0,7,,,,,,,,,6,,,79,100
134520,note_on,120,0,10,,,,,,,,,10,,,69,0
134520,note_on,0,0,2,,,,,,,,,1,,,74,100
134520,note_on,0,0,10,,,,,,,,,10,,,59,100
134520,note_on,120,0,2,,,,,,,,,1,,,72,0
134520,note_on,0,0,2,,,,,,,,,1,,,76,0
134640,note_on,0,0,7,,,,,,,,,6,,,73,100
134640,note_on,120,0,7,,,,,,,,,6,,,79,0
134640,note_on,120,0,1,,,,,,,,,0,,,86,0
134640,note_on,120,0,2,,,,,,,,,1,,,74,0
134640,note_on,0,0,2,,,,,,,,,1,,,76,100
134670,note_on,30,0,7,,,,,,,,,6,,,73,0
134670,note_on,0,0,7,,,,,,,,,6,,,76,100
134700,note_on,0,0,7,,,,,,,,,6,,,74,100
134700,note_on,30,0,7,,,,,,,,,6,,,76,0
134730,note_on,0,0,7,,,,,,,,,6,,,73,100
134730,note_on,30,0,7,,,,,,,,,6,,,74,0
134760,note_on,0,0,1,,,,,,,,,0,,,90,100
134760,note_on,0,0,11,,,,,,,,,11,,,46,100
134760,note_on,240,0,3,,,,,,,,,2,,,59,0
134760,note_on,0,0,3,,,,,,,,,2,,,58,100
134760,note_on,0,0,7,,,,,,,,,6,,,78,100
134760,note_on,30,0,7,,,,,,,,,6,,,73,0
134760,note_on,240,0,11,,,,,,,,,11,,,47,0
134760,note_on,0,0,2,,,,,,,,,1,,,78,100
134760,note_on,120,0,2,,,,,,,,,1,,,79,0
134760,note_on,120,0,1,,,,,,,,,0,,,91,0
134760,note_on,0,0,9,,,,,,,,,8,,,58,100
134760,note_on,240,0,10,,,,,,,,,10,,,59,0
134760,note_on,0,0,10,,,,,,,,,10,,,58,100
134760,note_on,240,0,9,,,,,,,,,8,,,59,0
134880,note_on,120,0,2,,,,,,,,,1,,,76,0
134880,note_on,0,0,2,,,,,,,,,1,,,74,100
134880,note_on,360,0,8,,,,,,,,,7,,,74,100
134880,note_on,120,0,3,,,,,,,,,2,,,58,0
134880,note_on,0,0,3,,,,,,,,,2,,,59,100
134880,note_on,120,0,1,,,,,,,,,0,,,86,100
134880,note_on,120,0,10,,,,,,,,,10,,,58,0
134880,note_on,0,0,9,,,,,,,,,8,,,59,100
134880,note_on,120,0,9,,,,,,,,,8,,,58,0
134880,note_on,0,0,10,,,,,,,,,10,,,59,100
134880,note_on,120,0,11,,,,,,,,,11,,,46,0
134880,note_on,120,0,7,,,,,,,,,6,,,78,0
134880,note_on,0,0,7,,,,,,,,,6,,,74,100
134880,note_on,0,0,11,,,,,,,,,11,,,47,100
134910,note_on,0,0,8,,,,,,,,,7,,,78,100
134910,note_on,30,0,8,,,,,,,,,7,,,74,0
134940,note_on,30,0,8,,,,,,,,,7,,,78,0
134940,note_on,0,0,8,,,,,,,,,7,,,76,100
134970,note_on,30,0,8,,,,,,,,,7,,,76,0
134970,note_on,0,0,8,,,,,,,,,7,,,74,100
135000,note_on,0,0,9,,,,,,,,,8,,,71,100
135000,note_on,120,0,9,,,,,,,,,8,,,59,0
135000,note_on,0,0,2,,,,,,,,,1,,,79,100
135000,note_on,0,0,3,,,,,,,,,2,,,71,100
135000,note_on,120,0,2,,,,,,,,,1,,,78,0
135000,note_on,0,0,10,,,,,,,,,10,,,71,100
135000,note_on,0,0,8,,,,,,,,,7,,,79,100
135000,note_on,120,0,3,,,,,,,,,2,,,59,0
135000,note_on,30,0,8,,,,,,,,,7,,,74,0
135000,note_on,120,0,11,,,,,,,,,11,,,47,0
135000,note_on,0,0,1,,,,,,,,,0,,,90,0
135000,note_on,120,0,1,,,,,,,,,0,,,86,0
135000,note_on,120,0,10,,,,,,,,,10,,,59,0
135000,note_on,120,0,7,,,,,,,,,6,,,74,0
135120,note_on,120,0,2,,,,,,,,,1,,,74,0
135120,note_on,120,0,8,,,,,,,,,7,,,79,0
135120,note_on,0,0,8,,,,,,,,,7,,,73,100
135120,note_on,0,0,2,,,,,,,,,1,,,76,100
135150,note_on,0,0,8,,,,,,,,,7,,,76,100
135150,note_on,30,0,8,,,,,,,,,7,,,73,0
135180,note_on,0,0,8,,,,,,,,,7,,,74,100
135180,note_on,30,0,8,,,,,,,,,7,,,76,0
135210,note_on,0,0,8,,,,,,,,,7,,,73,100
135210,note_on,30,0,8,,,,,,,,,7,,,74,0
135240,note_on,0,0,2,,,,,,,,,1,,,78,100
135240,note_on,120,0,2,,,,,,,,,1,,,79,0
135240,note_on,0,0,8,,,,,,,,,7,,,78,100
135240,note_on,30,0,8,,,,,,,,,7,,,73,0
135240,note_on,240,0,10,,,,,,,,,10,,,71,0
135240,note_on,240,0,3,,,,,,,,,2,,,71,0
135240,note_on,0,0,3,,,,,,,,,2,,,70,100
135240,note_on,240,0,9,,,,,,,,,8,,,71,0
135240,note_on,0,0,9,,,,,,,,,8,,,70,100
135240,note_on,0,0,10,,,,,,,,,10,,,70,100
135360,note_on,0,0,2,,,,,,,,,1,,,74,100
135360,note_on,360,0,7,,,,,,,,,6,,,78,100
135360,note_on,120,0,9,,,,,,,,,8,,,70,0
135360,note_on,0,0,2,,,,,,,,,1,,,78,100
135360,note_on,120,0,3,,,,,,,,,2,,,70,0
135360,note_on,120,0,2,,,,,,,,,1,,,76,0
135360,note_on,120,0,10,,,,,,,,,10,,,70,0
135360,note_on,360,0,1,,,,,,,,,0,,,78,100
135360,note_on,0,0,1,,,,,,,,,0,,,74,100
135360,note_on,120,0,8,,,,,,,,,7,,,78,0
135360,note_on,0,0,8,,,,,,,,,7,,,78,100
135390,note_on,30,0,7,,,,,,,,,6,,,78,0
135390,note_on,0,0,8,,,,,,,,,7,,,81,100
135390,note_on,0,0,7,,,,,,,,,6,,,81,100
135390,note_on,30,0,8,,,,,,,,,7,,,78,0
135420,note_on,30,0,7,,,,,,,,,6,,,81,0
135420,note_on,30,0,8,,,,,,,,,7,,,81,0
135420,note_on,0,0,7,,,,,,,,,6,,,79,100
135420,note_on,0,0,8,,,,,,,,,7,,,79,100
135450,note_on,30,0,7,,,,,,,,,6,,,79,0
135450,note_on,30,0,8,,,,,,,,,7,,,79,0
135450,note_on,0,0,8,,,,,,,,,7,,,78,100
135450,note_on,0,0,7,,,,,,,,,6,,,78,100
135480,note_on,30,0,8,,,,,,,,,7,,,78,0
135480,note_on,120,0,3,,,,,,,,,2,,,62,100
135480,note_on,0,0,5,,,,,,,,,4,,,62,100
135480,note_on,480,0,11,,,,,,,,,11,,,50,100
135480,note_on,120,0,2,,,,,,,,,1,,,78,0
135480,note_on,120,0,9,,,,,,,,,8,,,62,100
135480,note_on,0,0,2,,,,,,,,,1,,,78,0
135480,note_on,0,0,8,,,,,,,,,7,,,83,100
135480,note_on,2640,0,6,,,,,,,,,5,,,50,100
135480,note_on,0,0,2,,,,,,,,,1,,,83,100
135480,note_on,0,0,7,,,,,,,,,6,,,83,100
135480,note_on,30,0,7,,,,,,,,,6,,,78,0
135480,note_on,2400,0,4,,,,,,,,,3,,,62,100
135480,note_on,0,0,4,,,,,,,,,3,,,66,100
135480,note_on,120,0,1,,,,,,,,,0,,,74,0
135480,note_on,0,0,1,,,,,,,,,0,,,78,0
135480,note_on,120,0,10,,,,,,,,,10,,,62,100
135480,note_on,2640,0,5,,,,,,,,,4,,,74,100
135480,note_on,0,0,1,,,,,,,,,0,,,83,100
135480,note_on,0,0,1,,,,,,,,,0,,,78,100
135570,note_on,90,0,7,,,,,,,,,6,,,83,0
135570,note_on,90,0,8,,,,,,,,,7,,,83,0
135600,note_on,30,0,7,,,,,,,,,6,,,76,100
135600,note_on,0,0,1,,,,,,,,,0,,,79,100
135600,note_on,0,0,4,,,,,,,,,3,,,64,100
135600,note_on,120,0,4,,,,,,,,,3,,,66,0
135600,note_on,0,0,2,,,,,,,,,1,,,76,100
135600,note_on,30,0,8,,,,,,,,,7,,,76,100
135600,note_on,120,0,6,,,,,,,,,5,,,50,0
135600,note_on,120,0,1,,,,,,,,,0,,,78,0
135600,note_on,120,0,2,,,,,,,,,1,,,74,0
135630,note_on,30,0,7,,,,,,,,,6,,,76,0
135630,note_on,0,0,7,,,,,,,,,6,,,79,100
135630,note_on,0,0,8,,,,,,,,,7,,,79,100
135630,note_on,30,0,8,,,,,,,,,7,,,76,0
135660,note_on,0,0,8,,,,,,,,,7,,,78,100
135660,note_on,30,0,8,,,,,,,,,7,,,79,0
135660,note_on,30,0,7,,,,,,,,,6,,,79,0
135660,note_on,0,0,7,,,,,,,,,6,,,78,100
135690,note_on,0,0,8,,,,,,,,,7,,,76,100
135690,note_on,30,0,8,,,,,,,,,7,,,78,0
135690,note_on,30,0,7,,,,,,,,,6,,,78,0
135690,note_on,0,0,7,,,,,,,,,6,,,76,100
135720,note_on,120,0,6,,,,,,,,,5,,,45,100
135720,note_on,0,0,10,,,,,,,,,10,,,61,100
135720,note_on,0,0,1,,,,,,,,,0,,,81,100
135720,note_on,120,0,1,,,,,,,,,0,,,79,0
135720,note_on,0,0,8,,,,,,,,,7,,,81,100
135720,note_on,30,0,8,,,,,,,,,7,,,76,0
135720,note_on,120,0,4,,,,,,,,,3,,,64,0
135720,note_on,0,0,4,,,,,,,,,3,,,62,0
135720,note_on,0,0,4,,,,,,,,,3,,,69,100
135720,note_on,30,0,7,,,,,,,,,6,,,76,0
135720,note_on,0,0,7,,,,,,,,,6,,,81,100
135720,note_on,0,0,9,,,,,,,,,8,,,61,100
135720,note_on,240,0,9,,,,,,,,,8,,,62,0
135720,note_on,240,0,11,,,,,,,,,11,,,50,0
135720,note_on,120,0,2,,,,,,,,,1,,,83,0
135720,note_on,0,0,2,,,,,,,,,1,,,81,100
135720,note_on,0,0,11,,,,,,,,,11,,,49,100
135720,note_on,0,0,4,,,,,,,,,3,,,57,100
135720,note_on,240,0,3,,,,,,,,,2,,,62,0
135720,note_on,0,0,3,,,,,,,,,2,,,61,100
135720,note_on,240,0,5,,,,,,,,,4,,,62,0
135720,note_on,0,0,5,,,,,,,,,4,,,74,0
135720,note_on,0,0,5,,,,,,,,,4,,,57,100
135720,note_on,0,0,5,,,,,,,,,4,,,69,100
135720,note_on,240,0,10,,,,,,,,,10,,,62,0
135720,note_on,0,0,1,,,,,,,,,0,,,83,0
135840,note_on,120,0,5,,,,,,,,,4,,,69,0
135840,note_on,0,0,2,,,,,,,,,1,,,74,100
135840,note_on,120,0,6,,,,,,,,,5,,,45,0
135840,note_on,0,0,5,,,,,,,,,4,,,57,0
135840,note_on,120,0,4,,,,,,,,,3,,,57,0
135840,note_on,120,0,1,,,,,,,,,0,,,86,100
135840,note_on,0,0,4,,,,,,,,,3,,,62,100
135840,note_on,0,0,2,,,,,,,,,1,,,78,100
135840,note_on,0,0,10,,,,,,,,,10,,,59,100
135840,note_on,0,0,3,,,,,,,,,2,,,59,100
135840,note_on,120,0,3,,,,,,,,,2,,,61,0
135840,note_on,0,0,9,,,,,,,,,8,,,59,100
135840,note_on,0,0,2,,,,,,,,,1,,,76,0
135840,note_on,120,0,10,,,,,,,,,10,,,61,0
135840,note_on,120,0,9,,,,,,,,,8,,,61,0
135840,note_on,120,0,2,,,,,,,,,1,,,81,0
135840,note_on,120,0,11,,,,,,,,,11,,,49,0
135840,note_on,0,0,11,,,,,,,,,11,,,47,100
135870,note_on,30,0,9,,,,,,,,,8,,,59,0
135870,note_on,0,0,9,,,,,,,,,8,,,62,100
135870,note_on,30,0,10,,,,,,,,,10,,,59,0
135870,note_on,0,0,10,,,,,,,,,10,,,62,100
135870,note_on,30,0,3,,,,,,,,,2,,,59,0
135870,note_on,30,0,11,,,,,,,,,11,,,47,0
135870,note_on,0,0,3,,,,,,,,,2,,,62,100
135870,note_on,0,0,11,,,,,,,,,11,,,50,100
135900,note_on,0,0,9,,,,,,,,,8,,,61,100
135900,note_on,30,0,11,,,,,,,,,11,,,50,0
135900,note_on,30,0,9,,,,,,,,,8,,,62,0
135900,note_on,0,0,10,,,,,,,,,10,,,61,100
135900,note_on,30,0,10,,,,,,,,,10,,,62,0
135900,note_on,30,0,3,,,,,,,,,2,,,62,0
135900,note_on,0,0,3,,,,,,,,,2,,,61,100
135900,note_on,0,0,11,,,,,,,,,11,,,49,100
135930,note_on,30,0,9,,,,,,,,,8,,,61,0
135930,note_on,30,0,10,,,,,,,,,10,,,61,0
135930,note_on,0,0,9,,,,,,,,,8,,,59,100
135930,note_on,0,0,10,,,,,,,,,10,,,59,100
135930,note_on,0,0,11,,,,,,,,,11,,,47,100
135930,note_on,30,0,11,,,,,,,,,11,,,49,0
135930,note_on,0,0,3,,,,,,,,,2,,,59,100
135930,note_on,30,0,3,,,,,,,,,2,,,61,0
135960,note_on,0,0,3,,,,,,,,,2,,,64,100
135960,note_on,30,0,3,,,,,,,,,2,,,59,0
135960,note_on,120,0,5,,,,,,,,,4,,,69,100
135960,note_on,0,0,5,,,,,,,,,4,,,76,100
135960,note_on,120,0,4,,,,,,,,,3,,,62,0
135960,note_on,240,0,7,,,,,,,,,6,,,81,0
135960,note_on,240,0,8,,,,,,,,,7,,,81,0
135960,note_on,0,0,8,,,,,,,,,7,,,79,100
135960,note_on,30,0,9,,,,,,,,,8,,,59,0
135960,note_on,0,0,1,,,,,,,,,0,,,79,100
135960,note_on,120,0,1,,,,,,,,,0,,,81,0
135960,note_on,0,0,9,,,,,,,,,8,,,64,100
135960,note_on,0,0,2,,,,,,,,,1,,,76,100
135960,note_on,0,0,2,,,,,,,,,1,,,79,100
135960,note_on,0,0,2,,,,,,,,,1,,,74,0
135960,note_on,120,0,2,,,,,,,,,1,,,78,0
135960,note_on,0,0,4,,,,,,,,,3,,,69,0
135960,note_on,0,0,7,,,,,,,,,6,,,79,100
135960,note_on,30,0,11,,,,,,,,,11,,,47,0
135960,note_on,0,0,4,,,,,,,,,3,,,64,100
135960,note_on,0,0,4,,,,,,,,,3,,,67,100
135960,note_on,0,0,11,,,,,,,,,11,,,52,100
135960,note_on,0,0,10,,,,,,,,,10,,,64,100
135960,note_on,30,0,10,,,,,,,,,10,,,59,0
135960,note_on,120,0,6,,,,,,,,,5,,,45,100
136050,note_on,90,0,11,,,,,,,,,11,,,52,0
136050,note_on,90,0,3,,,,,,,,,2,,,64,0
136050,note_on,90,0,10,,,,,,,,,10,,,64,0
136050,note_on,90,0,9,,,,,,,,,8,,,64,0
136080,note_on,30,0,11,,,,,,,,,11,,,45,100
136080,note_on,30,0,10,,,,,,,,,10,,,57,100
136080,note_on,120,0,6,,,,,,,,,5,,,45,0
136080,note_on,0,0,1,,,,,,,,,0,,,81,100
136080,note_on,0,0,1,,,,,,,,,0,,,85,100
136080,note_on,0,0,1,,,,,,,,,0,,,86,0
136080,note_on,0,0,5,,,,,,,,,4,,,74,100
136080,note_on,0,0,6,,,,,,,,,5,,,50,100
136080,note_on,30,0,9,,,,,,,,,8,,,57,100
136080,note_on,0,0,5,,,,,,,,,4,,,78,100
136080,note_on,120,0,1,,,,,,,,,0,,,79,0
136080,note_on,30,0,3,,,,,,,,,2,,,57,100
136080,note_on,120,0,5,,,,,,,,,4,,,76,0
136080,note_on,0,0,5,,,,,,,,,4,,,69,0
136110,note_on,0,0,10,,,,,,,,,10,,,61,100
136110,note_on,30,0,10,,,,,,,,,10,,,57,0
136110,note_on,30,0,9,,,,,,,,,8,,,57,0
136110,note_on,0,0,3,,,,,,,,,2,,,61,100
136110,note_on,30,0,3,,,,,,,,,2,,,57,0
136110,note_on,0,0,11,,,,,,,,,11,,,49,100
136110,note_on,0,0,9,,,,,,,,,8,,,61,100
136110,note_on,30,0,11,,,,,,,,,11,,,45,0
136140,note_on,30,0,9,,,,,,,,,8,,,61,0
136140,note_on,0,0,3,,,,,,,,,2,,,59,100
136140,note_on,30,0,3,,,,,,,,,2,,,61,0
136140,note_on,30,0,10,,,,,,,,,10,,,61,0
136140,note_on,0,0,10,,,,,,,,,10,,,59,100
136140,note_on,0,0,11,,,,,,,,,11,,,47,100
136140,note_on,30,0,11,,,,,,,,,11,,,49,0
136140,note_on,0,0,9,,,,,,,,,8,,,59,100
136170,note_on,30,0,9,,,,,,,,,8,,,59,0
136170,note_on,30,0,10,,,,,,,,,10,,,59,0
136170,note_on,30,0,11,,,,,,,,,11,,,47,0
136170,note_on,30,0,3,,,,,,,,,2,,,59,0
136170,note_on,0,0,9,,,,,,,,,8,,,57,100
136170,note_on,0,0,10,,,,,,,,,10,,,57,100
136170,note_on,0,0,3,,,,,,,,,2,,,57,100
136170,note_on,0,0,11,,,,,,,,,11,,,45,100
136200,note_on,0,0,9,,,,,,,,,8,,,62,100
136200,note_on,0,0,11,,,,,,,,,11,,,50,100
136200,note_on,0,0,2,,,,,,,,,1,,,74,100
136200,note_on,30,0,9,,,,,,,,,8,,,57,0
136200,note_on,0,0,2,,,,,,,,,1,,,78,100
136200,note_on,0,0,2,,,,,,,,,1,,,79,0
136200,note_on,240,0,2,,,,,,,,,1,,,76,0
136200,note_on,0,0,4,,,,,,,,,3,,,64,0
136200,note_on,240,0,4,,,,,,,,,3,,,67,0
136200,note_on,30,0,11,,,,,,,,,11,,,45,0
136200,note_on,0,0,4,,,,,,,,,3,,,62,100
136200,note_on,0,0,7,,,,,,,,,6,,,78,100
136200,note_on,120,0,6,,,,,,,,,5,,,50,0
136200,note_on,120,0,5,,,,,,,,,4,,,78,0
136200,note_on,0,0,1,,,,,,,,,0,,,90,100
136200,note_on,120,0,1,,,,,,,,,0,,,85,0
136200,note_on,30,0,3,,,,,,,,,2,,,57,0
136200,note_on,0,0,3,,,,,,,,,2,,,62,100
136200,note_on,0,0,4,,,,,,,,,3,,,66,100
136200,note_on,0,0,10,,,,,,,,,10,,,62,100
136200,note_on,30,0,10,,,,,,,,,10,,,57,0
136200,note_on,240,0,7,,,,,,,,,6,,,79,0
136200,note_on,240,0,8,,,,,,,,,7,,,79,0
136200,note_on,0,0,8,,,,,,,,,7,,,78,100
136200,note_on,0,0,5,,,,,,,,,4,,,74,0
136230,note_on,30,0,8,,,,,,,,,7,,,78,0
136230,note_on,0,0,8,,,,,,,,,7,,,81,100
136230,note_on,0,0,7,,,,,,,,,6,,,81,100
136230,note_on,30,0,7,,,,,,,,,6,,,78,0
136260,note_on,30,0,8,,,,,,,,,7,,,81,0
136260,note_on,0,0,8,,,,,,,,,7,,,79,100
136260,note_on,0,0,7,,,,,,,,,6,,,79,100
136260,note_on,30,0,7,,,,,,,,,6,,,81,0
136290,note_on,90,0,9,,,,,,,,,8,,,62,0
136290,note_on,90,0,11,,,,,,,,,11,,,50,0
136290,note_on,90,0,10,,,,,,,,,10,,,62,0
136290,note_on,0,0,8,,,,,,,,,7,,,78,100
136290,note_on,30,0,7,,,,,,,,,6,,,79,0
136290,note_on,30,0,8,,,,,,,,,7,,,79,0
136290,note_on,90,0,3,,,,,,,,,2,,,62,0
136290,note_on,0,0,7,,,,,,,,,6,,,78,100
136320,note_on,30,0,3,,,,,,,,,2,,,55,100
136320,note_on,30,0,9,,,,,,,,,8,,,67,100
136320,note_on,120,0,2,,,,,,,,,1,,,74,0
136320,note_on,0,0,2,,,,,,,,,1,,,71,100
136320,note_on,0,0,1,,,,,,,,,0,,,83,100
136320,note_on,30,0,7,,,,,,,,,6,,,78,0
136320,note_on,30,0,8,,,,,,,,,7,,,78,0
136320,note_on,0,0,8,,,,,,,,,7,,,83,100
136320,note_on,30,0,10,,,,,,,,,10,,,55,100
136320,note_on,30,0,11,,,,,,,,,11,,,43,100
136320,note_on,0,0,7,,,,,,,,,6,,,83,100
136320,note_on,120,0,1,,,,,,,,,0,,,81,0
136350,note_on,30,0,10,,,,,,,,,10,,,55,0
136350,note_on,30,0,3,,,,,,,,,2,,,55,0
136350,note_on,0,0,3,,,,,,,,,2,,,59,100
136350,note_on,0,0,10,,,,,,,,,10,,,59,100
136350,note_on,0,0,9,,,,,,,,,8,,,71,100
136350,note_on,30,0,11,,,,,,,,,11,,,43,0
136350,note_on,0,0,11,,,,,,,,,11,,,47,100
136350,note_on,30,0,9,,,,,,,,,8,,,67,0
136380,note_on,0,0,11,,,,,,,,,11,,,45,100
136380,note_on,0,0,9,,,,,,,,,8,,,69,100
136380,note_on,30,0,9,,,,,,,,,8,,,71,0
136380,note_on,0,0,10,,,,,,,,,10,,,57,100
136380,note_on,30,0,10,,,,,,,,,10,,,59,0
136380,note_on,30,0,3,,,,,,,,,2,,,59,0
136380,note_on,0,0,3,,,,,,,,,2,,,57,100
136380,note_on,30,0,11,,,,,,,,,11,,,47,0
136410,note_on,90,0,7,,,,,,,,,6,,,83,0
136410,note_on,30,0,9,,,,,,,,,8,,,69,0
136410,note_on,0,0,11,,,,,,,,,11,,,43,100
136410,note_on,30,0,11,,,,,,,,,11,,,45,0
136410,note_on,0,0,9,,,,,,,,,8,,,67,100
136410,note_on,0,0,10,,,,,,,,,10,,,55,100
136410,note_on,30,0,10,,,,,,,,,10,,,57,0
136410,note_on,90,0,8,,,,,,,,,7,,,83,0
136410,note_on,0,0,3,,,,,,,,,2,,,55,100
136410,note_on,30,0,3,,,,,,,,,2,,,57,0
136440,note_on,0,0,3,,,,,,,,,2,,,61,100
136440,note_on,30,0,10,,,,,,,,,10,,,55,0
136440,note_on,30,0,7,,,,,,,,,6,,,76,100
136440,note_on,240,0,4,,,,,,,,,3,,,66,0
136440,note_on,0,0,4,,,,,,,,,3,,,62,0
136440,note_on,0,0,4,,,,,,,,,3,,,67,100
136440,note_on,120,0,2,,,,,,,,,1,,,78,0
136440,note_on,0,0,2,,,,,,,,,1,,,76,100
136440,note_on,30,0,9,,,,,,,,,8,,,67,0
136440,note_on,30,0,3,,,,,,,,,2,,,55,0
136440,note_on,0,0,9,,,,,,,,,8,,,73,100
136440,note_on,0,0,10,,,,,,,,,10,,,61,100
136440,note_on,0,0,4,,,,,,,,,3,,,64,100
136440,note_on,30,0,8,,,,,,,,,7,,,76,100
136440,note_on,30,0,11,,,,,,,,,11,,,43,0
136440,note_on,120,0,1,,,,,,,,,0,,,90,0
136440,note_on,0,0,11,,,,,,,,,11,,,49,100
136440,note_on,0,0,1,,,,,,,,,0,,,88,100
136470,note_on,30,0,8,,,,,,,,,7,,,76,0
136470,note_on,30,0,7,,,,,,,,,6,,,76,0
136470,note_on,0,0,7,,,,,,,,,6,,,79,100
136470,note_on,0,0,8,,,,,,,,,7,,,79,100
136500,note_on,30,0,8,,,,,,,,,7,,,79,0
136500,note_on,0,0,8,,,,,,,,,7,,,78,100
136500,note_on,30,0,7,,,,,,,,,6,,,79,0
136500,note_on,0,0,7,,,,,,,,,6,,,78,100
136530,note_on,30,0,8,,,,,,,,,7,,,78,0
136530,note_on,0,0,8,,,,,,,,,7,,,76,100
136530,note_on,90,0,10,,,,,,,,,10,,,61,0
136530,note_on,90,0,3,,,,,,,,,2,,,61,0
136530,note_on,90,0,11,,,,,,,,,11,,,49,0
136530,note_on,0,0,7,,,,,,,,,6,,,76,100
136530,note_on,90,0,9,,,,,,,,,8,,,73,0
136530,note_on,30,0,7,,,,,,,,,6,,,78,0
136560,note_on,120,0,1,,,,,,,,,0,,,83,0
136560,note_on,0,0,1,,,,,,,,,0,,,81,100
136560,note_on,30,0,8,,,,,,,,,7,,,76,0
136560,note_on,0,0,8,,,,,,,,,7,,,81,100
136560,note_on,0,0,7,,,,,,,,,6,,,81,100
136560,note_on,30,0,3,,,,,,,,,2,,,54,100
136560,note_on,120,0,2,,,,,,,,,1,,,71,0
136560,note_on,30,0,9,,,,,,,,,8,,,66,100
136560,note_on,0,0,2,,,,,,,,,1,,,69,100
136560,note_on,30,0,7,,,,,,,,,6,,,76,0
136560,note_on,30,0,11,,,,,,,,,11,,,42,100
136560,note_on,30,0,10,,,,,,,,,10,,,54,100
136590,note_on,0,0,11,,,,,,,,,11,,,45,100
136590,note_on,0,0,9,,,,,,,,,8,,,69,100
136590,note_on,30,0,9,,,,,,,,,8,,,66,0
136590,note_on,0,0,10,,,,,,,,,10,,,57,100
136590,note_on,30,0,3,,,,,,,,,2,,,54,0
136590,note_on,0,0,3,,,,,,,,,2,,,57,100
136590,note_on,30,0,11,,,,,,,,,11,,,42,0
136590,note_on,30,0,10,,,,,,,,,10,,,54,0
136620,note_on,0,0,10,,,,,,,,,10,,,55,100
136620,note_on,30,0,3,,,,,,,,,2,,,57,0
136620,note_on,0,0,3,,,,,,,,,2,,,55,100
136620,note_on,30,0,10,,,,,,,,,10,,,57,0
136620,note_on,30,0,11,,,,,,,,,11,,,45,0
136620,note_on,0,0,11,,,,,,,,,11,,,43,100
136620,note_on,0,0,9,,,,,,,,,8,,,67,100
136620,note_on,30,0,9,,,,,,,,,8,,,69,0
136650,note_on,0,0,9,,,,,,,,,8,,,66,100
136650,note_on,30,0,10,,,,,,,,,10,,,55,0
136650,note_on,0,0,10,,,,,,,,,10,,,54,100
136650,note_on,90,0,7,,,,,,,,,6,,,81,0
136650,note_on,30,0,9,,,,,,,,,8,,,67,0
136650,note_on,0,0,3,,,,,,,,,2,,,54,100
136650,note_on,30,0,3,,,,,,,,,2,,,55,0
136650,note_on,0,0,11,,,,,,,,,11,,,42,100
136650,note_on,30,0,11,,,,,,,,,11,,,43,0
136650,note_on,90,0,8,,,,,,,,,7,,,81,0
136680,note_on,30,0,3,,,,,,,,,2,,,54,0
136680,note_on,0,0,2,,,,,,,,,1,,,81,100
136680,note_on,30,0,8,,,,,,,,,7,,,74,100
136680,note_on,0,0,1,,,,,,,,,0,,,86,100
136680,note_on,0,0,2,,,,,,,,,1,,,74,100
136680,note_on,0,0,2,,,,,,,,,1,,,76,0
136680,note_on,120,0,2,,,,,,,,,1,,,69,0
136680,note_on,30,0,7,,,,,,,,,6,,,74,100
136680,note_on,0,0,4,,,,,,,,,3,,,62,100
136680,note_on,0,0,10,,,,,,,,,10,,,59,100
136680,note_on,30,0,10,,,,,,,,,10,,,54,0
136680,note_on,0,0,9,,,,,,,,,8,,,71,100
136680,note_on,0,0,3,,,,,,,,,2,,,59,100
136680,note_on,0,0,4,,,,,,,,,3,,,66,100
136680,note_on,0,0,4,,,,,,,,,3,,,67,0
136680,note_on,30,0,11,,,,,,,,,11,,,42,0
136680,note_on,0,0,11,,,,,,,,,11,,,47,100
136680,note_on,240,0,4,,,,,,,,,3,,,64,0
136680,note_on,120,0,1,,,,,,,,,0,,,81,0
136680,note_on,0,0,1,,,,,,,,,0,,,88,0
136680,note_on,30,0,9,,,,,,,,,8,,,66,0
136710,note_on,30,0,7,,,,,,,,,6,,,74,0
136710,note_on,0,0,7,,,,,,,,,6,,,78,100
136710,note_on,0,0,8,,,,,,,,,7,,,78,100
136710,note_on,30,0,8,,,,,,,,,7,,,74,0
136740,note_on,0,0,7,,,,,,,,,6,,,76,100
136740,note_on,30,0,8,,,,,,,,,7,,,78,0
136740,note_on,0,0,8,,,,,,,,,7,,,76,100
136740,note_on,30,0,7,,,,,,,,,6,,,78,0
136770,note_on,90,0,9,,,,,,,,,8,,,71,0
136770,note_on,30,0,8,,,,,,,,,7,,,76,0
136770,note_on,0,0,8,,,,,,,,,7,,,74,100
136770,note_on,90,0,11,,,,,,,,,11,,,47,0
136770,note_on,90,0,3,,,,,,,,,2,,,59,0
136770,note_on,90,0,10,,,,,,,,,10,,,59,0
136770,note_on,0,0,7,,,,,,,,,6,,,74,100
136770,note_on,30,0,7,,,,,,,,,6,,,76,0
136800,note_on,120,0,2,,,,,,,,,1,,,81,0
136800,note_on,30,0,7,,,,,,,,,6,,,74,0
136800,note_on,30,0,10,,,,,,,,,10,,,52,100
136800,note_on,0,0,4,,,,,,,,,3,,,50,100
136800,note_on,0,0,4,,,,,,,,,3,,,62,0
136800,note_on,0,0,8,,,,,,,,,7,,,79,100
136800,note_on,120,0,4,,,,,,,,,3,,,66,0
136800,note_on,30,0,9,,,,,,,,,8,,,64,100
136800,note_on,0,0,4,,,,,,,,,3,,,62,100
136800,note_on,0,0,2,,,,,,,,,1,,,74,0
136800,note_on,0,0,2,,,,,,,,,1,,,79,100
136800,note_on,30,0,8,,,,,,,,,7,,,74,0
136800,note_on,0,0,2,,,,,,,,,1,,,83,100
136800,note_on,120,0,1,,,,,,,,,0,,,91,100
136800,note_on,0,0,7,,,,,,,,,6,,,79,100
136800,note_on,30,0,11,,,,,,,,,11,,,40,100
136800,note_on,30,0,3,,,,,,,,,2,,,52,100
136830,note_on,0,0,7,,,,,,,,,6,,,81,100
136830,note_on,0,0,8,,,,,,,,,7,,,81,100
136830,note_on,30,0,7,,,,,,,,,6,,,79,0
136830,note_on,30,0,8,,,,,,,,,7,,,79,0
136860,note_on,30,0,7,,,,,,,,,6,,,81,0
136860,note_on,30,0,8,,,,,,,,,7,,,81,0
136860,note_on,0,0,8,,,,,,,,,7,,,83,100
136860,note_on,0,0,7,,,,,,,,,6,,,83,100
136890,note_on,0,0,8,,,,,,,,,7,,,81,100
136890,note_on,30,0,8,,,,,,,,,7,,,83,0
136890,note_on,30,0,7,,,,,,,,,6,,,83,0
136890,note_on,0,0,7,,,,,,,,,6,,,81,100
136920,note_on,30,0,8,,,,,,,,,7,,,81,0
136920,note_on,0,0,7,,,,,,,,,6,,,79,100
136920,note_on,30,0,7,,,,,,,,,6,,,81,0
136920,note_on,0,0,8,,,,,,,,,7,,,79,100
136950,note_on,0,0,7,,,,,,,,,6,,,78,100
136950,note_on,30,0,7,,,,,,,,,6,,,79,0
136950,note_on,0,0,8,,,,,,,,,7,,,78,100
136950,note_on,30,0,8,,,,,,,,,7,,,79,0
136980,note_on,180,0,3,,,,,,,,,2,,,52,0
136980,note_on,180,0,9,,,,,,,,,8,,,64,0
136980,note_on,0,0,11,,,,,,,,,11,,,42,100
136980,note_on,180,0,11,,,,,,,,,11,,,40,0
136980,note_on,0,0,7,,,,,,,,,6,,,76,100
136980,note_on,30,0,7,,,,,,,,,6,,,78,0
136980,note_on,0,0,3,,,,,,,,,2,,,54,100
136980,note_on,0,0,9,,,,,,,,,8,,,66,100
136980,note_on,0,0,10,,,,,,,,,10,,,54,100
136980,note_on,0,0,8,,,,,,,,,7,,,76,100
136980,note_on,180,0,10,,,,,,,,,10,,,52,0
136980,note_on,30,0,8,,,,,,,,,7,,,78,0
137010,note_on,0,0,10,,,,,,,,,10,,,57,100
137010,note_on,30,0,10,,,,,,,,,10,,,54,0
137010,note_on,0,0,3,,,,,,,,,2,,,55,100
137010,note_on,30,0,3,,,,,,,,,2,,,54,0
137010,note_on,0,0,7,,,,,,,,,6,,,74,100
137010,note_on,0,0,9,,,,,,,,,8,,,69,100
137010,note_on,30,0,9,,,,,,,,,8,,,66,0
137010,note_on,30,0,7,,,,,,,,,6,,,76,0
137010,note_on,30,0,8,,,,,,,,,7,,,76,0
137010,note_on,0,0,8,,,,,,,,,7,,,74,100
137010,note_on,0,0,11,,,,,,,,,11,,,45,100
137010,note_on,30,0,11,,,,,,,,,11,,,42,0
137040,note_on,0,0,1,,,,,,,,,0,,,85,100
137040,note_on,840,0,6,,,,,,,,,5,,,45,100
137040,note_on,30,0,7,,,,,,,,,6,,,74,0
137040,note_on,30,0,9,,,,,,,,,8,,,69,0
137040,note_on,240,0,1,,,,,,,,,0,,,86,0
137040,note_on,0,0,7,,,,,,,,,6,,,73,100
137040,note_on,0,0,4,,,,,,,,,3,,,50,0
137040,note_on,0,0,4,,,,,,,,,3,,,64,100
137040,note_on,0,0,4,,,,,,,,,3,,,57,100
137040,note_on,30,0,10,,,,,,,,,10,,,57,0
137040,note_on,240,0,4,,,,,,,,,3,,,62,0
137040,note_on,30,0,11,,,,,,,,,11,,,45,0
137040,note_on,0,0,11,,,,,,,,,11,,,45,100
137040,note_on,0,0,5,,,,,,,,,4,,,69,100
137040,note_on,840,0,5,,,,,,,,,4,,,57,100
137040,note_on,30,0,3,,,,,,,,,2,,,55,0
137040,note_on,0,0,3,,,,,,,,,2,,,57,100
137040,note_on,0,0,2,,,,,,,,,1,,,81,100
137040,note_on,0,0,2,,,,,,,,,1,,,83,0
137040,note_on,0,0,10,,,,,,,,,10,,,57,100
137040,note_on,240,0,2,,,,,,,,,1,,,79,0
137040,note_on,0,0,8,,,,,,,,,7,,,73,100
137040,note_on,30,0,8,,,,,,,,,7,,,74,0
137040,note_on,0,0,9,,,,,,,,,8,,,57,100
137070,note_on,0,0,7,,,,,,,,,6,,,74,100
137070,note_on,0,0,8,,,,,,,,,7,,,74,100
137070,note_on,30,0,8,,,,,,,,,7,,,73,0
137070,note_on,30,0,7,,,,,,,,,6,,,73,0
137100,note_on,0,0,8,,,,,,,,,7,,,76,100
137100,note_on,30,0,8,,,,,,,,,7,,,74,0
137100,note_on,0,0,7,,,,,,,,,6,,,76,100
137100,note_on,30,0,7,,,,,,,,,6,,,74,0
137130,note_on,30,0,8,,,,,,,,,7,,,76,0
137130,note_on,30,0,7,,,,,,,,,6,,,76,0
137130,note_on,0,0,8,,,,,,,,,7,,,74,100
137130,note_on,0,0,7,,,,,,,,,6,,,74,100
137160,note_on,30,0,7,,,,,,,,,6,,,74,0
137160,note_on,30,0,8,,,,,,,,,7,,,74,0
137160,note_on,0,0,8,,,,,,,,,7,,,73,100
137160,note_on,0,0,7,,,,,,,,,6,,,73,100
137190,note_on,30,0,7,,,,,,,,,6,,,73,0
137190,note_on,0,0,8,,,,,,,,,7,,,71,100
137190,note_on,30,0,8,,,,,,,,,7,,,73,0
137190,note_on,0,0,7,,,,,,,,,6,,,71,100
137220,note_on,180,0,10,,,,,,,,,10,,,57,0
137220,note_on,0,0,7,,,,,,,,,6,,,69,100
137220,note_on,0,0,11,,,,,,,,,11,,,47,100
137220,note_on,180,0,11,,,,,,,,,11,,,45,0
137220,note_on,180,0,9,,,,,,,,,8,,,57,0
137220,note_on,30,0,7,,,,,,,,,6,,,71,0
137220,note_on,0,0,9,,,,,,,,,8,,,59,100
137220,note_on,0,0,10,,,,,,,,,10,,,59,100
137220,note_on,0,0,8,,,,,,,,,7,,,69,100
137220,note_on,0,0,2,,,,,,,,,1,,,79,100
137220,note_on,0,0,3,,,,,,,,,2,,,59,100
137220,note_on,180,0,3,,,,,,,,,2,,,57,0
137220,note_on,0,0,1,,,,,,,,,0,,,88,100
137220,note_on,180,0,2,,,,,,,,,1,,,81,0
137220,note_on,30,0,8,,,,,,,,,7,,,71,0
137220,note_on,180,0,1,,,,,,,,,0,,,85,0
137250,note_on,0,0,3,,,,,,,,,2,,,61,100
137250,note_on,0,0,9,,,,,,,,,8,,,61,100
137250,note_on,0,0,8,,,,,,,,,7,,,67,100
137250,note_on,30,0,8,,,,,,,,,7,,,69,0
137250,note_on,30,0,7,,,,,,,,,6,,,69,0
137250,note_on,30,0,3,,,,,,,,,2,,,59,0
137250,note_on,0,0,11,,,,,,,,,11,,,49,100
137250,note_on,30,0,11,,,,,,,,,11,,,47,0
137250,note_on,30,0,10,,,,,,,,,10,,,59,0
137250,note_on,0,0,10,,,,,,,,,10,,,61,100
137250,note_on,30,0,9,,,,,,,,,8,,,59,0
137250,note_on,0,0,7,,,,,,,,,6,,,67,100
137280,note_on,30,0,10,,,,,,,,,10,,,61,0
137280,note_on,0,0,8,,,,,,,,,7,,,66,100
137280,note_on,0,0,10,,,,,,,,,10,,,62,100
137280,note_on,0,0,6,,,,,,,,,5,,,50,100
137280,note_on,240,0,4,,,,,,,,,3,,,64,0
137280,note_on,0,0,4,,,,,,,,,3,,,57,0
137280,note_on,0,0,4,,,,,,,,,3,,,66,100
137280,note_on,60,0,2,,,,,,,,,1,,,79,0
137280,note_on,0,0,2,,,,,,,,,1,,,74,100
137280,note_on,0,0,7,,,,,,,,,6,,,66,100
137280,note_on,30,0,8,,,,,,,,,7,,,67,0
137280,note_on,0,0,1,,,,,,,,,0,,,91,0
137280,note_on,0,0,2,,,,,,,,,1,,,78,100
137280,note_on,0,0,1,,,,,,,,,0,,,90,100
137280,note_on,0,0,1,,,,,,,,,0,,,86,100
137280,note_on,0,0,11,,,,,,,,,11,,,50,100
137280,note_on,240,0,5,,,,,,,,,4,,,69,0
137280,note_on,0,0,5,,,,,,,,,4,,,57,0
137280,note_on,0,0,4,,,,,,,,,3,,,62,100
137280,note_on,30,0,7,,,,,,,,,6,,,67,0
137280,note_on,0,0,5,,,,,,,,,4,,,69,100
137280,note_on,240,0,6,,,,,,,,,5,,,45,0
137280,note_on,30,0,9,,,,,,,,,8,,,61,0
137280,note_on,0,0,9,,,,,,,,,8,,,62,100
137280,note_on,60,0,1,,,,,,,,,0,,,88,0
137280,note_on,30,0,3,,,,,,,,,2,,,61,0
137280,note_on,0,0,3,,,,,,,,,2,,,62,100
137280,note_on,30,0,11,,,,,,,,,11,,,49,0
137280,note_on,0,0,5,,,,,,,,,4,,,62,100
137310,note_on,0,0,7,,,,,,,,,6,,,69,100
137310,note_on,30,0,8,,,,,,,,,7,,,66,0
137310,note_on,0,0,8,,,,,,,,,7,,,69,100
137310,note_on,30,0,7,,,,,,,,,6,,,66,0
137340,note_on,30,0,8,,,,,,,,,7,,,69,0
137340,note_on,0,0,8,,,,,,,,,7,,,74,100
137340,note_on,0,0,7,,,,,,,,,6,,,74,100
137340,note_on,30,0,7,,,,,,,,,6,,,69,0
137370,note_on,30,0,8,,,,,,,,,7,,,74,0
137370,note_on,0,0,8,,,,,,,,,7,,,78,100
137370,note_on,0,0,7,,,,,,,,,6,,,78,100
137370,note_on,30,0,7,,,,,,,,,6,,,74,0
137400,note_on,30,0,8,,,,,,,,,7,,,78,0
137400,note_on,120,0,4,,,,,,,,,3,,,62,0
137400,note_on,0,0,4,,,,,,,,,3,,,66,0
137400,note_on,30,0,7,,,,,,,,,6,,,78,0
137400,note_on,0,0,2,,,,,,,,,1,,,74,0
137400,note_on,120,0,1,,,,,,,,,0,,,86,0
137400,note_on,120,0,5,,,,,,,,,4,,,69,0
137400,note_on,0,0,1,,,,,,,,,0,,,90,0
137400,note_on,0,0,7,,,,,,,,,6,,,81,100
137400,note_on,120,0,11,,,,,,,,,11,,,50,0
137400,note_on,120,0,2,,,,,,,,,1,,,78,0
137400,note_on,120,0,3,,,,,,,,,2,,,62,0
137400,note_on,120,0,9,,,,,,,,,8,,,62,0
137400,note_on,120,0,10,,,,,,,,,10,,,62,0
137400,note_on,0,0,5,,,,,,,,,4,,,62,0
137400,note_on,0,0,8,,,,,,,,,7,,,81,100
137436,note_on,36,0,8,,,,,,,,,7,,,81,0
137436,note_on,36,0,7,,,,,,,,,6,,,81,0
137460,note_on,24,0,7,,,,,,,,,6,,,81,100
137460,note_on,24,0,8,,,,,,,,,7,,,81,100
137460,note_on,60,0,4,,,,,,,,,3,,,62,100
137460,note_on,0,0,4,,,,,,,,,3,,,66,100
137460,note_on,60,0,1,,,,,,,,,0,,,90,100
137460,note_on,0,0,2,,,,,,,,,1,,,78,100
137460,note_on,0,0,1,,,,,,,,,0,,,86,100
137460,note_on,60,0,2,,,,,,,,,1,,,74,100
137460,note_on,0,0,3,,,,,,,,,2,,,54,100
137460,note_on,60,0,3,,,,,,,,,2,,,50,100
137496,note_on,36,0,7,,,,,,,,,6,,,81,0
137496,note_on,36,0,8,,,,,,,,,7,,,81,0
137520,note_on,24,0,7,,,,,,,,,6,,,81,100
137520,note_on,60,0,2,,,,,,,,,1,,,78,0
137520,note_on,0,0,2,,,,,,,,,1,,,76,100
137520,note_on,0,0,2,,,,,,,,,1,,,79,100
137520,note_on,24,0,8,,,,,,,,,7,,,81,100
137520,note_on,240,0,6,,,,,,,,,5,,,50,0
137520,note_on,0,0,2,,,,,,,,,1,,,74,0
137520,note_on,60,0,1,,,,,,,,,0,,,86,0
137520,note_on,0,0,1,,,,,,,,,0,,,88,100
137520,note_on,0,0,3,,,,,,,,,2,,,52,100
137520,note_on,60,0,3,,,,,,,,,2,,,54,0
137520,note_on,0,0,4,,,,,,,,,3,,,64,100
137520,note_on,0,0,4,,,,,,,,,3,,,67,100
137520,note_on,0,0,4,,,,,,,,,3,,,62,0
137520,note_on,60,0,4,,,,,,,,,3,,,66,0
137520,note_on,0,0,3,,,,,,,,,2,,,55,100
137520,note_on,0,0,3,,,,,,,,,2,,,50,0
137520,note_on,0,0,1,,,,,,,,,0,,,90,0
137520,note_on,0,0,1,,,,,,,,,0,,,91,100
137556,note_on,36,0,7,,,,,,,,,6,,,81,0
137556,note_on,36,0,8,,,,,,,,,7,,,81,0
137580,note_on,0,0,3,,,,,,,,,2,,,55,0
137580,note_on,0,0,3,,,,,,,,,2,,,50,100
137580,note_on,60,0,3,,,,,,,,,2,,,52,0
137580,note_on,0,0,3,,,,,,,,,2,,,54,100
137580,note_on,0,0,1,,,,,,,,,0,,,90,100
137580,note_on,0,0,4,,,,,,,,,3,,,62,100
137580,note_on,0,0,1,,,,,,,,,0,,,86,100
137580,note_on,60,0,1,,,,,,,,,0,,,91,0
137580,note_on,0,0,1,,,,,,,,,0,,,88,0
137580,note_on,24,0,7,,,,,,,,,6,,,81,100
137580,note_on,0,0,2,,,,,,,,,1,,,78,100
137580,note_on,60,0,4,,,,,,,,,3,,,64,0
137580,note_on,0,0,4,,,,,,,,,3,,,67,0
137580,note_on,0,0,4,,,,,,,,,3,,,66,100
137580,note_on,24,0,8,,,,,,,,,7,,,81,100
137580,note_on,60,0,2,,,,,,,,,1,,,76,0
137580,note_on,0,0,2,,,,,,,,,1,,,79,0
137580,note_on,0,0,2,,,,,,,,,1,,,74,100
137616,note_on,36,0,8,,,,,,,,,7,,,81,0
137616,note_on,36,0,7,,,,,,,,,6,,,81,0
137640,note_on,60,0,2,,,,,,,,,1,,,78,0
137640,note_on,0,0,2,,,,,,,,,1,,,79,100
137640,note_on,0,0,2,,,,,,,,,1,,,76,100
137640,note_on,0,0,2,,,,,,,,,1,,,74,0
137640,note_on,0,0,1,,,,,,,,,0,,,86,0
137640,note_on,60,0,1,,,,,,,,,0,,,90,0
137640,note_on,120,0,6,,,,,,,,,5,,,45,100
137640,note_on,0,0,4,,,,,,,,,3,,,64,100
137640,note_on,240,0,10,,,,,,,,,10,,,57,100
137640,note_on,24,0,8,,,,,,,,,7,,,81,100
137640,note_on,24,0,7,,,,,,,,,6,,,81,100
137640,note_on,0,0,1,,,,,,,,,0,,,88,100
137640,note_on,0,0,1,,,,,,,,,0,,,91,100
137640,note_on,0,0,4,,,,,,,,,3,,,67,100
137640,note_on,0,0,4,,,,,,,,,3,,,66,0
137640,note_on,240,0,9,,,,,,,,,8,,,69,100
137640,note_on,0,0,5,,,,,,,,,4,,,69,100
137640,note_on,240,0,5,,,,,,,,,4,,,57,100
137640,note_on,240,0,11,,,,,,,,,11,,,45,100
137640,note_on,60,0,3,,,,,,,,,2,,,54,0
137640,note_on,0,0,3,,,,,,,,,2,,,50,0
137640,note_on,0,0,3,,,,,,,,,2,,,52,100
137640,note_on,60,0,4,,,,,,,,,3,,,62,0
137640,note_on,0,0,3,,,,,,,,,2,,,55,100
137676,note_on,36,0,7,,,,,,,,,6,,,81,0
137676,note_on,36,0,8,,,,,,,,,7,,,81,0
137700,note_on,0,0,3,,,,,,,,,2,,,55,0
137700,note_on,60,0,3,,,,,,,,,2,,,52,0
137700,note_on,60,0,4,,,,,,,,,3,,,64,0
137700,note_on,0,0,4,,,,,,,,,3,,,67,0
137700,note_on,0,0,4,,,,,,,,,3,,,64,100
137700,note_on,0,0,4,,,,,,,,,3,,,57,100
137700,note_on,0,0,2,,,,,,,,,1,,,76,0
137700,note_on,0,0,2,,,,,,,,,1,,,76,100
137700,note_on,0,0,2,,,,,,,,,1,,,73,100
137700,note_on,60,0,2,,,,,,,,,1,,,79,0
137700,note_on,24,0,7,,,,,,,,,6,,,81,100
137700,note_on,0,0,3,,,,,,,,,2,,,52,100
137700,note_on,60,0,1,,,,,,,,,0,,,91,0
137700,note_on,0,0,1,,,,,,,,,0,,,88,0
137700,note_on,0,0,1,,,,,,,,,0,,,85,100
137700,note_on,0,0,1,,,,,,,,,0,,,88,100
137700,note_on,24,0,8,,,,,,,,,7,,,81,100
137700,note_on,0,0,3,,,,,,,,,2,,,49,100
137736,note_on,36,0,8,,,,,,,,,7,,,81,0
137736,note_on,36,0,7,,,,,,,,,6,,,81,0
137760,note_on,120,0,5,,,,,,,,,4,,,69,0
137760,note_on,0,0,5,,,,,,,,,4,,,57,0
137760,note_on,0,0,5,,,,,,,,,4,,,69,100
137760,note_on,0,0,5,,,,,,,,,4,,,62,100
137760,note_on,24,0,8,,,,,,,,,7,,,81,100
137760,note_on,0,0,2,,,,,,,,,1,,,78,100
137760,note_on,0,0,2,,,,,,,,,1,,,74,100
137760,note_on,0,0,2,,,,,,,,,1,,,73,0
137760,note_on,60,0,2,,,,,,,,,1,,,76,0
137760,note_on,120,0,10,,,,,,,,,10,,,57,0
137760,note_on,60,0,4,,,,,,,,,3,,,57,0
137760,note_on,0,0,4,,,,,,,,,3,,,64,0
137760,note_on,0,0,4,,,,,,,,,3,,,62,100
137760,note_on,0,0,4,,,,,,,,,3,,,66,100
137760,note_on,0,0,11,,,,,,,,,11,,,38,100
137760,note_on,0,0,10,,,,,,,,,10,,,50,100
137760,note_on,24,0,7,,,,,,,,,6,,,81,100
137760,note_on,120,0,11,,,,,,,,,11,,,45,0
137760,note_on,0,0,1,,,,,,,,,0,,,90,100
137760,note_on,0,0,1,,,,,,,,,0,,,86,100
137760,note_on,0,0,9,,,,,,,,,8,,,62,100
137760,note_on,120,0,9,,,,,,,,,8,,,69,0
137760,note_on,120,0,6,,,,,,,,,5,,,45,0
137760,note_on,0,0,6,,,,,,,,,5,,,50,100
137760,note_on,0,0,3,,,,,,,,,2,,,54,100
137760,note_on,0,0,3,,,,,,,,,2,,,50,100
137760,note_on,0,0,3,,,,,,,,,2,,,49,0
137760,note_on,0,0,1,,,,,,,,,0,,,85,0
137760,note_on,60,0,1,,,,,,,,,0,,,88,0
137760,note_on,60,0,3,,,,,,,,,2,,,52,0
137790,note_on,0,0,8,,,,,,,,,7,,,78,100
137790,note_on,0,0,7,,,,,,,,,6,,,78,100
137790,note_on,30,0,7,,,,,,,,,6,,,81,0
137790,note_on,30,0,8,,,,,,,,,7,,,81,0
137820,note_on,0,0,7,,,,,,,,,6,,,74,100
137820,note_on,30,0,8,,,,,,,,,7,,,78,0
137820,note_on,0,0,8,,,,,,,,,7,,,74,100
137820,note_on,30,0,7,,,,,,,,,6,,,78,0
137850,note_on,30,0,8,,,,,,,,,7,,,74,0
137850,note_on,0,0,8,,,,,,,,,7,,,78,100
137850,note_on,0,0,7,,,,,,,,,6,,,78,100
137850,note_on,30,0,7,,,,,,,,,6,,,74,0
137880,note_on,120,0,4,,,,,,,,,3,,,66,0
137880,note_on,0,0,7,,,,,,,,,6,,,81,100
137880,note_on,30,0,7,,,,,,,,,6,,,78,0
137880,note_on,120,0,1,,,,,,,,,0,,,90,0
137880,note_on,0,0,1,,,,,,,,,0,,,86,0
137880,note_on,120,0,10,,,,,,,,,10,,,50,0
137880,note_on,0,0,4,,,,,,,,,3,,,62,0
137880,note_on,0,0,3,,,,,,,,,2,,,50,0
137880,note_on,0,0,8,,,,,,,,,7,,,81,100
137880,note_on,120,0,9,,,,,,,,,8,,,62,0
137880,note_on,30,0,8,,,,,,,,,7,,,78,0
137880,note_on,120,0,6,,,,,,,,,5,,,50,0
137880,note_on,0,0,5,,,,,,,,,4,,,69,0
137880,note_on,120,0,5,,,,,,,,,4,,,62,0
137880,note_on,0,0,2,,,,,,,,,1,,,74,0
137880,note_on,120,0,2,,,,,,,,,1,,,78,0
137880,note_on,120,0,11,,,,,,,,,11,,,38,0
137880,note_on,120,0,3,,,,,,,,,2,,,54,0
137916,note_on,36,0,7,,,,,,,,,6,,,81,0
137916,note_on,36,0,8,,,,,,,,,7,,,81,0
137940,note_on,60,0,1,,,,,,,,,0,,,90,100
137940,note_on,24,0,8,,,,,,,,,7,,,81,100
137940,note_on,0,0,4,,,,,,,,,3,,,66,100
137940,note_on,0,0,1,,,,,,,,,0,,,86,100
137940,note_on,24,0,7,,,,,,,,,6,,,81,100
137940,note_on,60,0,3,,,,,,,,,2,,,54,100
137940,note_on,0,0,3,,,,,,,,,2,,,50,100
137940,note_on,0,0,2,,,,,,,,,1,,,74,100
137940,note_on,60,0,2,,,,,,,,,1,,,78,100
137940,note_on,60,0,4,,,,,,,,,3,,,62,100
137976,note_on,36,0,8,,,,,,,,,7,,,81,0
137976,note_on,36,0,7,,,,,,,,,6,,,81,0
138000,note_on,60,0,3,,,,,,,,,2,,,50,0
138000,note_on,0,0,3,,,,,,,,,2,,,54,0
138000,note_on,0,0,3,,,,,,,,,2,,,55,100
138000,note_on,24,0,8,,,,,,,,,7,,,81,100
138000,note_on,0,0,3,,,,,,,,,2,,,52,100
138000,note_on,0,0,4,,,,,,,,,3,,,67,100
138000,note_on,0,0,4,,,,,,,,,3,,,62,0
138000,note_on,60,0,4,,,,,,,,,3,,,66,0
138000,note_on,24,0,7,,,,,,,,,6,,,81,100
138000,note_on,0,0,4,,,,,,,,,3,,,64,100
138000,note_on,60,0,1,,,,,,,,,0,,,86,0
138000,note_on,0,0,2,,,,,,,,,1,,,76,100
138000,note_on,0,0,2,,,,,,,,,1,,,78,0
138000,note_on,60,0,2,,,,,,,,,1,,,74,0
138000,note_on,0,0,1,,,,,,,,,0,,,90,0
138000,note_on,0,0,2,,,,,,,,,1,,,79,100
138000,note_on,0,0,1,,,,,,,,,0,,,88,100
138000,note_on,0,0,1,,,,,,,,,0,,,91,100
138036,note_on,36,0,7,,,,,,,,,6,,,81,0
138036,note_on,36,0,8,,,,,,,,,7,,,81,0
138060,note_on,0,0,2,,,,,,,,,1,,,78,100
138060,note_on,0,0,4,,,,,,,,,3,,,66,100
138060,note_on,0,0,2,,,,,,,,,1,,,74,100
138060,note_on,0,0,2,,,,,,,,,1,,,76,0
138060,note_on,24,0,7,,,,,,,,,6,,,81,100
138060,note_on,60,0,3,,,,,,,,,2,,,52,0
138060,note_on,0,0,4,,,,,,,,,3,,,62,100
138060,note_on,60,0,4,,,,,,,,,3,,,64,0
138060,note_on,24,0,8,,,,,,,,,7,,,81,100
138060,note_on,60,0,1,,,,,,,,,0,,,91,0
138060,note_on,0,0,1,,,,,,,,,0,,,88,0
138060,note_on,0,0,1,,,,,,,,,0,,,86,100
138060,note_on,0,0,3,,,,,,,,,2,,,55,0
138060,note_on,0,0,3,,,,,,,,,2,,,50,100
138060,note_on,0,0,3,,,,,,,,,2,,,54,100
138060,note_on,0,0,1,,,,,,,,,0,,,90,100
138060,note_on,0,0,4,,,,,,,,,3,,,67,0
138060,note_on,60,0,2,,,,,,,,,1,,,79,0
138096,note_on,36,0,8,,,,,,,,,7,,,81,0
138096,note_on,36,0,7,,,,,,,,,6,,,81,0
138120,note_on,0,0,4,,,,,,,,,3,,,67,100
138120,note_on,0,0,4,,,,,,,,,3,,,64,100
138120,note_on,60,0,1,,,,,,,,,0,,,90,0
138120,note_on,0,0,5,,,,,,,,,4,,,69,100
138120,note_on,60,0,3,,,,,,,,,2,,,54,0
138120,note_on,0,0,3,,,,,,,,,2,,,52,100
138120,note_on,240,0,5,,,,,,,,,4,,,57,100
138120,note_on,60,0,2,,,,,,,,,1,,,78,0
138120,note_on,0,0,3,,,,,,,,,2,,,50,0
138120,note_on,0,0,2,,,,,,,,,1,,,74,0
138120,note_on,0,0,1,,,,,,,,,0,,,86,0
138120,note_on,0,0,1,,,,,,,,,0,,,88,100
138120,note_on,0,0,1,,,,,,,,,0,,,91,100
138120,note_on,24,0,8,,,,,,,,,7,,,81,100
138120,note_on,60,0,4,,,,,,,,,3,,,66,0
138120,note_on,0,0,4,,,,,,,,,3,,,62,0
138120,note_on,240,0,10,,,,,,,,,10,,,57,100
138120,note_on,240,0,11,,,,,,,,,11,,,45,100
138120,note_on,240,0,9,,,,,,,,,8,,,69,100
138120,note_on,0,0,3,,,,,,,,,2,,,55,100
138120,note_on,240,0,6,,,,,,,,,5,,,45,100
138120,note_on,0,0,2,,,,,,,,,1,,,79,100
138120,note_on,0,0,2,,,,,,,,,1,,,76,100
138120,note_on,24,0,7,,,,,,,,,6,,,81,100
138156,note_on,36,0,7,,,,,,,,,6,,,81,0
138156,note_on,36,0,8,,,,,,,,,7,,,81,0
138180,note_on,0,0,2,,,,,,,,,1,,,76,100
138180,note_on,0,0,2,,,,,,,,,1,,,76,0
138180,note_on,24,0,8,,,,,,,,,7,,,81,100
138180,note_on,60,0,2,,,,,,,,,1,,,79,0
138180,note_on,0,0,2,,,,,,,,,1,,,73,100
138180,note_on,60,0,3,,,,,,,,,2,,,52,0
138180,note_on,0,0,3,,,,,,,,,2,,,49,100
138180,note_on,0,0,3,,,,,,,,,2,,,52,100
138180,note_on,0,0,1,,,,,,,,,0,,,88,0
138180,note_on,0,0,1,,,,,,,,,0,,,85,100
138180,note_on,0,0,1,,,,,,,,,0,,,88,100
138180,note_on,24,0,7,,,,,,,,,6,,,81,100
138180,note_on,0,0,3,,,,,,,,,2,,,55,0
138180,note_on,60,0,1,,,,,,,,,0,,,91,0
138180,note_on,60,0,4,,,,,,,,,3,,,67,0
138180,note_on,0,0,4,,,,,,,,,3,,,64,0
138180,note_on,0,0,4,,,,,,,,,3,,,57,100
138180,note_on,0,0,4,,,,,,,,,3,,,64,100
138216,note_on,36,0,7,,,,,,,,,6,,,81,0
138216,note_on,36,0,8,,,,,,,,,7,,,81,0
138240,note_on,0,0,3,,,,,,,,,2,,,50,100
138240,note_on,60,0,3,,,,,,,,,2,,,52,0
138240,note_on,0,0,3,,,,,,,,,2,,,49,0
138240,note_on,0,0,4,,,,,,,,,3,,,66,100
138240,note_on,24,0,8,,,,,,,,,7,,,81,100
138240,note_on,0,0,11,,,,,,,,,11,,,38,100
138240,note_on,0,0,9,,,,,,,,,8,,,62,100
138240,note_on,120,0,9,,,,,,,,,8,,,69,0
138240,note_on,120,0,10,,,,,,,,,10,,,57,0
138240,note_on,0,0,1,,,,,,,,,0,,,90,100
138240,note_on,0,0,1,,,,,,,,,0,,,85,0
138240,note_on,60,0,2,,,,,,,,,1,,,76,0
138240,note_on,0,0,2,,,,,,,,,1,,,73,0
138240,note_on,0,0,2,,,,,,,,,1,,,78,100
138240,note_on,0,0,2,,,,,,,,,1,,,74,100
138240,note_on,24,0,7,,,,,,,,,6,,,81,100
138240,note_on,120,0,6,,,,,,,,,5,,,45,0
138240,note_on,0,0,6,,,,,,,,,5,,,50,100
138240,note_on,0,0,4,,,,,,,,,3,,,62,100
138240,note_on,0,0,4,,,,,,,,,3,,,57,0
138240,note_on,60,0,4,,,,,,,,,3,,,64,0
138240,note_on,120,0,5,,,,,,,,,4,,,69,0
138240,note_on,0,0,5,,,,,,,,,4,,,57,0
138240,note_on,0,0,5,,,,,,,,,4,,,62,100
138240,note_on,0,0,3,,,,,,,,,2,,,54,100
138240,note_on,0,0,5,,,,,,,,,4,,,69,100
138240,note_on,0,0,10,,,,,,,,,10,,,50,100
138240,note_on,60,0,1,,,,,,,,,0,,,88,0
138240,note_on,0,0,1,,,,,,,,,0,,,86,100
138240,note_on,120,0,11,,,,,,,,,11,,,45,0
138270,note_on,0,0,8,,,,,,,,,7,,,86,100
138270,note_on,30,0,8,,,,,,,,,7,,,81,0
138270,note_on,0,0,7,,,,,,,,,6,,,86,100
138270,note_on,30,0,7,,,,,,,,,6,,,81,0
138300,note_on,30,0,7,,,,,,,,,6,,,86,0
138300,note_on,0,0,7,,,,,,,,,6,,,85,100
138300,note_on,30,0,8,,,,,,,,,7,,,86,0
138300,note_on,0,0,8,,,,,,,,,7,,,85,100
138330,note_on,0,0,8,,,,,,,,,7,,,83,100
138330,note_on,30,0,8,,,,,,,,,7,,,85,0
138330,note_on,0,0,7,,,,,,,,,6,,,83,100
138330,note_on,30,0,7,,,,,,,,,6,,,85,0
138360,note_on,30,0,8,,,,,,,,,7,,,83,0
138360,note_on,0,0,8,,,,,,,,,7,,,81,100
138360,note_on,0,0,5,,,,,,,,,4,,,62,0
138360,note_on,0,0,4,,,,,,,,,3,,,62,0
138360,note_on,120,0,4,,,,,,,,,3,,,66,0
138360,note_on,0,0,7,,,,,,,,,6,,,81,100
138360,note_on,120,0,1,,,,,,,,,0,,,86,0
138360,note_on,0,0,1,,,,,,,,,0,,,90,0
138360,note_on,30,0,7,,,,,,,,,6,,,83,0
138360,note_on,120,0,10,,,,,,,,,10,,,50,0
138360,note_on,120,0,6,,,,,,,,,5,,,50,0
138360,note_on,120,0,5,,,,,,,,,4,,,69,0
138360,note_on,120,0,11,,,,,,,,,11,,,38,0
138360,note_on,120,0,9,,,,,,,,,8,,,62,0
138360,note_on,120,0,3,,,,,,,,,2,,,50,0
138360,note_on,120,0,2,,,,,,,,,1,,,74,0
138360,note_on,0,0,2,,,,,,,,,1,,,78,0
138360,note_on,0,0,3,,,,,,,,,2,,,54,0
138396,note_on,36,0,7,,,,,,,,,6,,,81,0
138396,note_on,36,0,8,,,,,,,,,7,,,81,0
138420,note_on,0,0,2,,,,,,,,,1,,,78,100
138420,note_on,60,0,2,,,,,,,,,1,,,74,100
138420,note_on,60,0,1,,,,,,,,,0,,,86,100
138420,note_on,60,0,3,,,,,,,,,2,,,50,100
138420,note_on,0,0,1,,,,,,,,,0,,,90,100
138420,note_on,60,0,4,,,,,,,,,3,,,62,100
138420,note_on,0,0,4,,,,,,,,,3,,,66,100
138420,note_on,24,0,7,,,,,,,,,6,,,81,100
138420,note_on,24,0,8,,,,,,,,,7,,,81,100
138420,note_on,0,0,3,,,,,,,,,2,,,54,100
138456,note_on,36,0,8,,,,,,,,,7,,,81,0
138456,note_on,36,0,7,,,,,,,,,6,,,81,0
138480,note_on,0,0,4,,,,,,,,,3,,,64,100
138480,note_on,0,0,1,,,,,,,,,0,,,88,100
138480,note_on,60,0,2,,,,,,,,,1,,,78,0
138480,note_on,0,0,2,,,,,,,,,1,,,79,100
138480,note_on,0,0,1,,,,,,,,,0,,,91,100
138480,note_on,0,0,1,,,,,,,,,0,,,86,0
138480,note_on,24,0,8,,,,,,,,,7,,,81,100
138480,note_on,60,0,1,,,,,,,,,0,,,90,0
138480,note_on,0,0,2,,,,,,,,,1,,,76,100
138480,note_on,0,0,4,,,,,,,,,3,,,67,100
138480,note_on,0,0,4,,,,,,,,,3,,,62,0
138480,note_on,60,0,4,,,,,,,,,3,,,66,0
138480,note_on,60,0,3,,,,,,,,,2,,,54,0
138480,note_on,0,0,3,,,,,,,,,2,,,50,0
138480,note_on,0,0,3,,,,,,,,,2,,,52,100
138480,note_on,0,0,3,,,,,,,,,2,,,55,100
138480,note_on,0,0,2,,,,,,,,,1,,,74,0
138480,note_on,24,0,7,,,,,,,,,6,,,81,100
138516,note_on,36,0,7,,,,,,,,,6,,,81,0
138516,note_on,36,0,8,,,,,,,,,7,,,81,0
138540,note_on,24,0,8,,,,,,,,,7,,,81,100
138540,note_on,60,0,1,,,,,,,,,0,,,91,0
138540,note_on,0,0,1,,,,,,,,,0,,,88,0
138540,note_on,0,0,1,,,,,,,,,0,,,86,100
138540,note_on,0,0,1,,,,,,,,,0,,,90,100
138540,note_on,24,0,7,,,,,,,,,6,,,81,100
138540,note_on,0,0,2,,,,,,,,,1,,,78,100
138540,note_on,0,0,2,,,,,,,,,1,,,76,0
138540,note_on,60,0,2,,,,,,,,,1,,,79,0
138540,note_on,0,0,2,,,,,,,,,1,,,74,100
138540,note_on,0,0,3,,,,,,,,,2,,,52,0
138540,note_on,60,0,3,,,,,,,,,2,,,55,0
138540,note_on,60,0,4,,,,,,,,,3,,,64,0
138540,note_on,0,0,4,,,,,,,,,3,,,67,0
138540,note_on,0,0,4,,,,,,,,,3,,,62,100
138540,note_on,0,0,4,,,,,,,,,3,,,66,100
138540,note_on,0,0,3,,,,,,,,,2,,,54,100
138540,note_on,0,0,3,,,,,,,,,2,,,50,100
138576,note_on,36,0,8,,,,,,,,,7,,,81,0
138576,note_on,36,0,7,,,,,,,,,6,,,81,0
138600,note_on,0,0,2,,,,,,,,,1,,,79,100
138600,note_on,0,0,1,,,,,,,,,0,,,86,0
138600,note_on,60,0,1,,,,,,,,,0,,,90,0
138600,note_on,240,0,6,,,,,,,,,5,,,45,100
138600,note_on,0,0,5,,,,,,,,,4,,,69,100
138600,note_on,0,0,4,,,,,,,,,3,,,67,100
138600,note_on,0,0,4,,,,,,,,,3,,,64,100
138600,note_on,0,0,1,,,,,,,,,0,,,88,100
138600,note_on,24,0,8,,,,,,,,,7,,,81,100
138600,note_on,0,0,4,,,,,,,,,3,,,62,0
138600,note_on,60,0,4,,,,,,,,,3,,,66,0
138600,note_on,240,0,11,,,,,,,,,11,,,45,100
138600,note_on,240,0,5,,,,,,,,,4,,,57,100
138600,note_on,0,0,1,,,,,,,,,0,,,91,100
138600,note_on,240,0,9,,,,,,,,,8,,,69,100
138600,note_on,0,0,2,,,,,,,,,1,,,76,100
138600,note_on,0,0,2,,,,,,,,,1,,,78,0
138600,note_on,60,0,2,,,,,,,,,1,,,74,0
138600,note_on,0,0,3,,,,,,,,,2,,,55,100
138600,note_on,0,0,3,,,,,,,,,2,,,52,100
138600,note_on,240,0,10,,,,,,,,,10,,,57,100
138600,note_on,0,0,3,,,,,,,,,2,,,50,0
138600,note_on,60,0,3,,,,,,,,,2,,,54,0
138600,note_on,24,0,7,,,,,,,,,6,,,81,100
138636,note_on,36,0,8,,,,,,,,,7,,,81,0
138636,note_on,36,0,7,,,,,,,,,6,,,81,0
138660,note_on,60,0,1,,,,,,,,,0,,,91,0
138660,note_on,0,0,3,,,,,,,,,2,,,49,100
138660,note_on,0,0,3,,,,,,,,,2,,,52,100
138660,note_on,0,0,1,,,,,,,,,0,,,88,0
138660,note_on,24,0,8,,,,,,,,,7,,,81,100
138660,note_on,60,0,3,,,,,,,,,2,,,55,0
138660,note_on,60,0,4,,,,,,,,,3,,,64,0
138660,note_on,24,0,7,,,,,,,,,6,,,81,100
138660,note_on,0,0,4,,,,,,,,,3,,,67,0
138660,note_on,0,0,4,,,,,,,,,3,,,57,100
138660,note_on,0,0,1,,,,,,,,,0,,,85,100
138660,note_on,0,0,1,,,,,,,,,0,,,88,100
138660,note_on,0,0,2,,,,,,,,,1,,,76,100
138660,note_on,0,0,2,,,,,,,,,1,,,73,100
138660,note_on,0,0,2,,,,,,,,,1,,,76,0
138660,note_on,0,0,4,,,,,,,,,3,,,64,100
138660,note_on,60,0,2,,,,,,,,,1,,,79,0
138660,note_on,0,0,3,,,,,,,,,2,,,52,0
138696,note_on,36,0,8,,,,,,,,,7,,,81,0
138696,note_on,36,0,7,,,,,,,,,6,,,81,0
138720,note_on,0,0,4,,,,,,,,,3,,,62,100
138720,note_on,0,0,4,,,,,,,,,3,,,66,100
138720,note_on,24,0,7,,,,,,,,,6,,,81,100
138720,note_on,0,0,10,,,,,,,,,10,,,62,100
138720,note_on,0,0,4,,,,,,,,,3,,,57,0
138720,note_on,120,0,10,,,,,,,,,10,,,57,0
138720,note_on,120,0,5,,,,,,,,,4,,,69,0
138720,note_on,0,0,3,,,,,,,,,2,,,50,100
138720,note_on,0,0,5,,,,,,,,,4,,,57,0
138720,note_on,0,0,3,,,,,,,,,2,,,54,100
138720,note_on,0,0,3,,,,,,,,,2,,,49,0
138720,note_on,60,0,3,,,,,,,,,2,,,52,0
138720,note_on,0,0,5,,,,,,,,,4,,,69,100
138720,note_on,0,0,5,,,,,,,,,4,,,62,100
138720,note_on,60,0,4,,,,,,,,,3,,,64,0
138720,note_on,60,0,2,,,,,,,,,1,,,76,0
138720,note_on,0,0,2,,,,,,,,,1,,,73,0
138720,note_on,0,0,1,,,,,,,,,0,,,90,100
138720,note_on,24,0,8,,,,,,,,,7,,,81,100
138720,note_on,60,0,1,,,,,,,,,0,,,88,0
138720,note_on,0,0,1,,,,,,,,,0,,,85,0
138720,note_on,0,0,2,,,,,,,,,1,,,74,100
138720,note_on,0,0,2,,,,,,,,,1,,,78,100
138720,note_on,0,0,1,,,,,,,,,0,,,86,100
138720,note_on,120,0,6,,,,,,,,,5,,,45,0
138720,note_on,0,0,9,,,,,,,,,8,,,74,100
138720,note_on,120,0,9,,,,,,,,,8,,,69,0
138720,note_on,120,0,11,,,,,,,,,11,,,45,0
138720,note_on,0,0,11,,,,,,,,,11,,,50,100
138720,note_on,0,0,6,,,,,,,,,5,,,50,100
138765,note_on,45,0,8,,,,,,,,,7,,,81,0
138765,note_on,45,0,7,,,,,,,,,6,,,81,0
138780,note_on,15,0,7,,,,,,,,,6,,,78,100
138780,note_on,15,0,8,,,,,,,,,7,,,69,100
138810,note_on,0,0,8,,,,,,,,,7,,,74,100
138810,note_on,30,0,8,,,,,,,,,7,,,69,0
138810,note_on,30,0,7,,,,,,,,,6,,,78,0
138810,note_on,0,0,7,,,,,,,,,6,,,81,100
138840,note_on,120,0,1,,,,,,,,,0,,,86,0
138840,note_on,120,0,3,,,,,,,,,2,,,50,0
138840,note_on,0,0,3,,,,,,,,,2,,,54,0
138840,note_on,120,0,11,,,,,,,,,11,,,50,0
138840,note_on,120,0,6,,,,,,,,,5,,,50,0
138840,note_on,120,0,4,,,,,,,,,3,,,66,0
138840,note_on,120,0,2,,,,,,,,,1,,,74,0
138840,note_on,0,0,2,,,,,,,,,1,,,78,0
138840,note_on,0,0,8,,,,,,,,,7,,,78,100
138840,note_on,30,0,8,,,,,,,,,7,,,74,0
138840,note_on,120,0,10,,,,,,,,,10,,,62,0
138840,note_on,120,0,9,,,,,,,,,8,,,74,0
138840,note_on,0,0,1,,,,,,,,,0,,,90,0
138840,note_on,0,0,5,,,,,,,,,4,,,62,0
138840,note_on,0,0,4,,,,,,,,,3,,,62,0
138840,note_on,30,0,7,,,,,,,,,6,,,81,0
138840,note_on,0,0,7,,,,,,,,,6,,,86,100
138840,note_on,120,0,5,,,,,,,,,4,,,69,0
138870,note_on,30,0,8,,,,,,,,,7,,,78,0
138870,note_on,30,0,7,,,,,,,,,6,,,86,0
138900,note_on,60,0,10,,,,,,,,,10,,,57,100
138900,note_on,60,0,5,,,,,,,,,4,,,69,100
138900,note_on,0,0,5,,,,,,,,,4,,,81,100
138900,note_on,30,0,7,,,,,,,,,6,,,85,100
138900,note_on,60,0,3,,,,,,,,,2,,,57,100
138900,note_on,60,0,11,,,,,,,,,11,,,45,100
138900,note_on,0,0,2,,,,,,,,,1,,,73,100
138900,note_on,30,0,8,,,,,,,,,7,,,76,100
138900,note_on,60,0,9,,,,,,,,,8,,,69,100
138900,note_on,60,0,1,,,,,,,,,0,,,88,100
138900,note_on,0,0,1,,,,,,,,,0,,,85,100
138900,note_on,60,0,4,,,,,,,,,3,,,57,100
138900,note_on,0,0,4,,,,,,,,,3,,,69,100
138900,note_on,60,0,2,,,,,,,,,1,,,76,100
138930,note_on,30,0,8,,,,,,,,,7,,,76,0
138930,note_on,30,0,7,,,,,,,,,6,,,85,0
138960,note_on,0,0,10,,,,,,,,,10,,,62,100
138960,note_on,60,0,3,,,,,,,,,2,,,57,0
138960,note_on,0,0,4,,,,,,,,,3,,,69,100
138960,note_on,60,0,10,,,,,,,,,10,,,57,0
138960,note_on,0,0,4,,,,,,,,,3,,,57,100
138960,note_on,0,0,2,,,,,,,,,1,,,78,100
138960,note_on,60,0,1,,,,,,,,,0,,,85,0
138960,note_on,0,0,1,,,,,,,,,0,,,88,0
138960,note_on,0,0,4,,,,,,,,,3,,,57,0
138960,note_on,0,0,1,,,,,,,,,0,,,86,100
138960,note_on,0,0,3,,,,,,,,,2,,,62,100
138960,note_on,0,0,1,,,,,,,,,0,,,90,100
138960,note_on,60,0,2,,,,,,,,,1,,,73,0
138960,note_on,0,0,11,,,,,,,,,11,,,50,100
138960,note_on,0,0,5,,,,,,,,,4,,,81,100
138960,note_on,0,0,5,,,,,,,,,4,,,69,100
138960,note_on,0,0,5,,,,,,,,,4,,,69,0
138960,note_on,60,0,5,,,,,,,,,4,,,81,0
138960,note_on,0,0,2,,,,,,,,,1,,,76,0
138960,note_on,0,0,2,,,,,,,,,1,,,74,100
138960,note_on,60,0,9,,,,,,,,,8,,,69,0
138960,note_on,60,0,11,,,,,,,,,11,,,45,0
138960,note_on,0,0,9,,,,,,,,,8,,,74,100
138960,note_on,60,0,4,,,,,,,,,3,,,69,0
139020,note_on,90,0,7,,,,,,,,,6,,,78,100
139020,note_on,90,0,8,,,,,,,,,7,,,69,100
139050,note_on,0,0,8,,,,,,,,,7,,,74,100
139050,note_on,0,0,7,,,,,,,,,6,,,81,100
139050,note_on,30,0,7,,,,,,,,,6,,,78,0
139050,note_on,30,0,8,,,,,,,,,7,,,69,0
139080,note_on,30,0,7,,,,,,,,,6,,,81,0
139080,note_on,0,0,7,,,,,,,,,6,,,86,100
139080,note_on,0,0,1,,,,,,,,,0,,,90,0
139080,note_on,0,0,8,,,,,,,,,7,,,78,100
139080,note_on,30,0,8,,,,,,,,,7,,,74,0
139080,note_on,120,0,11,,,,,,,,,11,,,50,0
139080,note_on,0,0,4,,,,,,,,,3,,,57,0
139080,note_on,120,0,4,,,,,,,,,3,,,69,0
139080,note_on,120,0,3,,,,,,,,,2,,,62,0
139080,note_on,120,0,1,,,,,,,,,0,,,86,0
139080,note_on,0,0,5,,,,,,,,,4,,,69,0
139080,note_on,120,0,9,,,,,,,,,8,,,74,0
139080,note_on,120,0,10,,,,,,,,,10,,,62,0
139080,note_on,120,0,2,,,,,,,,,1,,,78,0
139080,note_on,0,0,2,,,,,,,,,1,,,74,0
139080,note_on,120,0,5,,,,,,,,,4,,,81,0
139110,note_on,30,0,7,,,,,,,,,6,,,86,0
139110,note_on,30,0,8,,,,,,,,,7,,,78,0
139140,note_on,30,0,7,,,,,,,,,6,,,85,100
139140,note_on,60,0,3,,,,,,,,,2,,,57,100
139140,note_on,0,0,4,,,,,,,,,3,,,57,100
139140,note_on,60,0,4,,,,,,,,,3,,,69,100
139140,note_on,60,0,9,,,,,,,,,8,,,69,100
139140,note_on,60,0,5,,,,,,,,,4,,,69,100
139140,note_on,60,0,10,,,,,,,,,10,,,57,100
139140,note_on,30,0,8,,,,,,,,,7,,,76,100
139140,note_on,60,0,11,,,,,,,,,11,,,45,100
139140,note_on,0,0,2,,,,,,,,,1,,,76,100
139140,note_on,60,0,2,,,,,,,,,1,,,73,100
139140,note_on,0,0,5,,,,,,,,,4,,,81,100
139140,note_on,0,0,1,,,,,,,,,0,,,85,100
139140,note_on,60,0,1,,,,,,,,,0,,,88,100
139170,note_on,30,0,8,,,,,,,,,7,,,76,0
139170,note_on,30,0,7,,,,,,,,,6,,,85,0
139200,note_on,0,0,2,,,,,,,,,1,,,73,0
139200,note_on,60,0,2,,,,,,,,,1,,,76,0
139200,note_on,0,0,2,,,,,,,,,1,,,71,100
139200,note_on,0,0,3,,,,,,,,,2,,,59,100
139200,note_on,60,0,9,,,,,,,,,8,,,69,0
139200,note_on,0,0,9,,,,,,,,,8,,,71,100
139200,note_on,0,0,10,,,,,,,,,10,,,59,100
139200,note_on,60,0,11,,,,,,,,,11,,,45,0
139200,note_on,0,0,11,,,,,,,,,11,,,47,100
139200,note_on,0,0,2,,,,,,,,,1,,,74,100
139200,note_on,60,0,3,,,,,,,,,2,,,57,0
139200,note_on,0,0,5,,,,,,,,,4,,,69,0
139200,note_on,60,0,5,,,,,,,,,4,,,81,0
139200,note_on,0,0,5,,,,,,,,,4,,,78,100
139200,note_on,0,0,5,,,,,,,,,4,,,66,100
139200,note_on,0,0,1,,,,,,,,,0,,,86,100
139200,note_on,60,0,10,,,,,,,,,10,,,57,0
139200,note_on,0,0,1,,,,,,,,,0,,,83,100
139200,note_on,0,0,4,,,,,,,,,3,,,66,100
139200,note_on,0,0,4,,,,,,,,,3,,,54,100
139200,note_on,0,0,4,,,,,,,,,3,,,69,0
139200,note_on,0,0,1,,,,,,,,,0,,,88,0
139200,note_on,60,0,1,,,,,,,,,0,,,85,0
139200,note_on,60,0,4,,,,,,,,,3,,,57,0
139260,note_on,90,0,7,,,,,,,,,6,,,74,100
139260,note_on,90,0,8,,,,,,,,,7,,,66,100
139290,note_on,0,0,8,,,,,,,,,7,,,69,100
139290,note_on,30,0,7,,,,,,,,,6,,,74,0
139290,note_on,0,0,7,,,,,,,,,6,,,78,100
139290,note_on,30,0,8,,,,,,,,,7,,,66,0
139320,note_on,120,0,11,,,,,,,,,11,,,47,0
139320,note_on,120,0,10,,,,,,,,,10,,,59,0
139320,note_on,120,0,2,,,,,,,,,1,,,74,0
139320,note_on,0,0,2,,,,,,,,,1,,,71,0
139320,note_on,120,0,9,,,,,,,,,8,,,71,0
139320,note_on,120,0,3,,,,,,,,,2,,,59,0
139320,note_on,0,0,1,,,,,,,,,0,,,83,0
139320,note_on,30,0,8,,,,,,,,,7,,,69,0
139320,note_on,0,0,8,,,,,,,,,7,,,74,100
139320,note_on,0,0,4,,,,,,,,,3,,,54,0
139320,note_on,120,0,4,,,,,,,,,3,,,66,0
139320,note_on,0,0,7,,,,,,,,,6,,,83,100
139320,note_on,30,0,7,,,,,,,,,6,,,78,0
139320,note_on,0,0,5,,,,,,,,,4,,,66,0
139320,note_on,120,0,5,,,,,,,,,4,,,78,0
139320,note_on,120,0,1,,,,,,,,,0,,,86,0
139350,note_on,30,0,8,,,,,,,,,7,,,74,0
139350,note_on,30,0,7,,,,,,,,,6,,,83,0
139380,note_on,30,0,8,,,,,,,,,7,,,73,100
139380,note_on,60,0,2,,,,,,,,,1,,,69,100
139380,note_on,0,0,2,,,,,,,,,1,,,73,100
139380,note_on,60,0,3,,,,,,,,,2,,,54,100
139380,note_on,0,0,5,,,,,,,,,4,,,66,100
139380,note_on,0,0,4,,,,,,,,,3,,,66,100
139380,note_on,60,0,5,,,,,,,,,4,,,78,100
139380,note_on,60,0,9,,,,,,,,,8,,,66,100
139380,note_on,60,0,10,,,,,,,,,10,,,54,100
139380,note_on,60,0,4,,,,,,,,,3,,,54,100
139380,note_on,30,0,7,,,,,,,,,6,,,81,100
139380,note_on,0,0,1,,,,,,,,,0,,,81,100
139380,note_on,60,0,1,,,,,,,,,0,,,85,100
139380,note_on,60,0,11,,,,,,,,,11,,,42,100
139410,note_on,30,0,7,,,,,,,,,6,,,81,0
139410,note_on,30,0,8,,,,,,,,,7,,,73,0
139440,note_on,0,0,1,,,,,,,,,0,,,83,100
139440,note_on,0,0,2,,,,,,,,,1,,,71,100
139440,note_on,0,0,2,,,,,,,,,1,,,74,100
139440,note_on,60,0,9,,,,,,,,,8,,,66,0
139440,note_on,0,0,9,,,,,,,,,8,,,71,100
139440,note_on,0,0,2,,,,,,,,,1,,,69,0
139440,note_on,60,0,2,,,,,,,,,1,,,73,0
139440,note_on,60,0,3,,,,,,,,,2,,,54,0
139440,note_on,0,0,3,,,,,,,,,2,,,59,100
139440,note_on,0,0,11,,,,,,,,,11,,,47,100
139440,note_on,60,0,5,,,,,,,,,4,,,66,0
139440,note_on,60,0,11,,,,,,,,,11,,,42,0
139440,note_on,60,0,1,,,,,,,,,0,,,81,0
139440,note_on,0,0,1,,,,,,,,,0,,,85,0
139440,note_on,0,0,1,,,,,,,,,0,,,86,100
139440,note_on,0,0,10,,,,,,,,,10,,,59,100
139440,note_on,0,0,5,,,,,,,,,4,,,78,0
139440,note_on,60,0,10,,,,,,,,,10,,,54,0
139440,note_on,0,0,5,,,,,,,,,4,,,66,100
139440,note_on,0,0,4,,,,,,,,,3,,,54,100
139440,note_on,0,0,5,,,,,,,,,4,,,78,100
139440,note_on,0,0,4,,,,,,,,,3,,,54,0
139440,note_on,0,0,4,,,,,,,,,3,,,66,100
139440,note_on,60,0,4,,,,,,,,,3,,,66,0
139500,note_on,90,0,8,,,,,,,,,7,,,66,100
139500,note_on,90,0,7,,,,,,,,,6,,,74,100
139530,note_on,30,0,7,,,,,,,,,6,,,74,0
139530,note_on,0,0,8,,,,,,,,,7,,,69,100
139530,note_on,30,0,8,,,,,,,,,7,,,66,0
139530,note_on,0,0,7,,,,,,,,,6,,,78,100
139560,note_on,0,0,4,,,,,,,,,3,,,54,0
139560,note_on,120,0,5,,,,,,,,,4,,,66,0
139560,note_on,0,0,7,,,,,,,,,6,,,83,100
139560,note_on,0,0,5,,,,,,,,,4,,,78,0
139560,note_on,0,0,1,,,,,,,,,0,,,86,0
139560,note_on,120,0,1,,,,,,,,,0,,,83,0
139560,note_on,30,0,7,,,,,,,,,6,,,78,0
139560,note_on,120,0,11,,,,,,,,,11,,,47,0
139560,note_on,120,0,10,,,,,,,,,10,,,59,0
139560,note_on,120,0,9,,,,,,,,,8,,,71,0
139560,note_on,30,0,8,,,,,,,,,7,,,69,0
139560,note_on,0,0,8,,,,,,,,,7,,,74,100
139560,note_on,120,0,2,,,,,,,,,1,,,71,0
139560,note_on,0,0,2,,,,,,,,,1,,,74,0
139560,note_on,120,0,4,,,,,,,,,3,,,66,0
139560,note_on,120,0,3,,,,,,,,,2,,,59,0
139590,note_on,30,0,7,,,,,,,,,6,,,83,0
139590,note_on,30,0,8,,,,,,,,,7,,,74,0
139620,note_on,60,0,4,,,,,,,,,3,,,66,100
139620,note_on,60,0,11,,,,,,,,,11,,,42,100
139620,note_on,0,0,1,,,,,,,,,0,,,81,100
139620,note_on,60,0,1,,,,,,,,,0,,,85,100
139620,note_on,60,0,2,,,,,,,,,1,,,73,100
139620,note_on,0,0,4,,,,,,,,,3,,,54,100
139620,note_on,0,0,5,,,,,,,,,4,,,66,100
139620,note_on,60,0,5,,,,,,,,,4,,,78,100
139620,note_on,30,0,8,,,,,,,,,7,,,73,100
139620,note_on,30,0,7,,,,,,,,,6,,,81,100
139620,note_on,60,0,3,,,,,,,,,2,,,54,100
139620,note_on,60,0,10,,,,,,,,,10,,,54,100
139620,note_on,60,0,9,,,,,,,,,8,,,66,100
139620,note_on,0,0,2,,,,,,,,,1,,,69,100
139650,note_on,30,0,8,,,,,,,,,7,,,73,0
139650,note_on,30,0,7,,,,,,,,,6,,,81,0
139680,note_on,60,0,3,,,,,,,,,2,,,54,0
139680,note_on,60,0,2,,,,,,,,,1,,,69,0
139680,note_on,0,0,2,,,,,,,,,1,,,71,100
139680,note_on,60,0,10,,,,,,,,,10,,,54,0
139680,note_on,0,0,2,,,,,,,,,1,,,67,100
139680,note_on,0,0,10,,,,,,,,,10,,,55,100
139680,note_on,0,0,3,,,,,,,,,2,,,55,100
139680,note_on,840,0,6,,,,,,,,,5,,,50,100
139680,note_on,0,0,2,,,,,,,,,1,,,73,0
139680,note_on,60,0,11,,,,,,,,,11,,,42,0
139680,note_on,0,0,5,,,,,,,,,4,,,74,100
139680,note_on,0,0,9,,,,,,,,,8,,,67,100
139680,note_on,60,0,9,,,,,,,,,8,,,66,0
139680,note_on,60,0,5,,,,,,,,,4,,,66,0
139680,note_on,0,0,5,,,,,,,,,4,,,78,0
139680,note_on,0,0,5,,,,,,,,,4,,,62,100
139680,note_on,60,0,1,,,,,,,,,0,,,81,0
139680,note_on,0,0,4,,,,,,,,,3,,,62,100
139680,note_on,0,0,1,,,,,,,,,0,,,85,0
139680,note_on,0,0,1,,,,,,,,,0,,,83,100
139680,note_on,0,0,4,,,,,,,,,3,,,50,100
139680,note_on,0,0,4,,,,,,,,,3,,,66,0
139680,note_on,60,0,4,,,,,,,,,3,,,54,0
139680,note_on,0,0,11,,,,,,,,,11,,,43,100
139680,note_on,0,0,1,,,,,,,,,0,,,79,100
139740,note_on,90,0,8,,,,,,,,,7,,,62,100
139740,note_on,90,0,7,,,,,,,,,6,,,71,100
139770,note_on,30,0,7,,,,,,,,,6,,,71,0
139770,note_on,0,0,8,,,,,,,,,7,,,67,100
139770,note_on,30,0,8,,,,,,,,,7,,,62,0
139770,note_on,0,0,7,,,,,,,,,6,,,74,100
139800,note_on,0,0,8,,,,,,,,,7,,,71,100
139800,note_on,30,0,8,,,,,,,,,7,,,67,0
139800,note_on,120,0,5,,,,,,,,,4,,,74,0
139800,note_on,0,0,5,,,,,,,,,4,,,62,0
139800,note_on,0,0,7,,,,,,,,,6,,,79,100
139800,note_on,30,0,7,,,,,,,,,6,,,74,0
139800,note_on,0,0,6,,,,,,,,,5,,,50,100
139800,note_on,120,0,6,,,,,,,,,5,,,50,0
139800,note_on,120,0,1,,,,,,,,,0,,,83,0
139800,note_on,0,0,4,,,,,,,,,3,,,50,0
139800,note_on,120,0,4,,,,,,,,,3,,,62,0
139800,note_on,120,0,2,,,,,,,,,1,,,71,0
139800,note_on,120,0,9,,,,,,,,,8,,,67,0
139800,note_on,0,0,2,,,,,,,,,1,,,67,0
139800,note_on,120,0,3,,,,,,,,,2,,,55,0
139800,note_on,120,0,10,,,,,,,,,10,,,55,0
139800,note_on,120,0,11,,,,,,,,,11,,,43,0
139800,note_on,0,0,1,,,,,,,,,0,,,79,0
139830,note_on,30,0,7,,,,,,,,,6,,,79,0
139830,note_on,30,0,8,,,,,,,,,7,,,71,0
139860,note_on,60,0,10,,,,,,,,,10,,,50,100
139860,note_on,0,0,1,,,,,,,,,0,,,81,100
139860,note_on,60,0,1,,,,,,,,,0,,,78,100
139860,note_on,30,0,7,,,,,,,,,6,,,78,100
139860,note_on,30,0,8,,,,,,,,,7,,,69,100
139860,note_on,0,0,4,,,,,,,,,3,,,62,100
139860,note_on,60,0,2,,,,,,,,,1,,,66,100
139860,note_on,0,0,2,,,,,,,,,1,,,69,100
139860,note_on,60,0,3,,,,,,,,,2,,,50,100
139860,note_on,60,0,4,,,,,,,,,3,,,50,100
139860,note_on,60,0,11,,,,,,,,,11,,,38,100
139860,note_on,60,0,9,,,,,,,,,8,,,62,100
139860,note_on,60,0,5,,,,,,,,,4,,,62,100
139860,note_on,0,0,5,,,,,,,,,4,,,74,100
139890,note_on,30,0,7,,,,,,,,,6,,,78,0
139890,note_on,0,0,6,,,,,,,,,5,,,50,100
139890,note_on,90,0,6,,,,,,,,,5,,,50,0
139890,note_on,30,0,8,,,,,,,,,7,,,69,0
139920,note_on,0,0,4,,,,,,,,,3,,,62,100
139920,note_on,0,0,10,,,,,,,,,10,,,55,100
139920,note_on,60,0,11,,,,,,,,,11,,,38,0
139920,note_on,0,0,11,,,,,,,,,11,,,43,100
139920,note_on,60,0,2,,,,,,,,,1,,,69,0
139920,note_on,0,0,2,,,,,,,,,1,,,66,0
139920,note_on,0,0,2,,,,,,,,,1,,,71,100
139920,note_on,60,0,3,,,,,,,,,2,,,50,0
139920,note_on,0,0,3,,,,,,,,,2,,,55,100
139920,note_on,60,0,9,,,,,,,,,8,,,62,0
139920,note_on,60,0,4,,,,,,,,,3,,,62,0
139920,note_on,0,0,4,,,,,,,,,3,,,50,0
139920,note_on,0,0,4,,,,,,,,,3,,,50,100
139920,note_on,30,0,6,,,,,,,,,5,,,50,0
139920,note_on,0,0,6,,,,,,,,,5,,,50,100
139920,note_on,0,0,2,,,,,,,,,1,,,67,100
139920,note_on,0,0,9,,,,,,,,,8,,,67,100
139920,note_on,60,0,10,,,,,,,,,10,,,50,0
139920,note_on,0,0,5,,,,,,,,,4,,,62,0
139920,note_on,60,0,5,,,,,,,,,4,,,74,0
139920,note_on,60,0,1,,,,,,,,,0,,,81,0
139920,note_on,0,0,1,,,,,,,,,0,,,78,0
139920,note_on,0,0,1,,,,,,,,,0,,,79,100
139920,note_on,0,0,1,,,,,,,,,0,,,83,100
139920,note_on,0,0,5,,,,,,,,,4,,,74,100
139920,note_on,0,0,5,,,,,,,,,4,,,62,100
139980,note_on,90,0,7,,,,,,,,,6,,,71,100
139980,note_on,90,0,8,,,,,,,,,7,,,62,100
140010,note_on,30,0,7,,,,,,,,,6,,,71,0
140010,note_on,30,0,8,,,,,,,,,7,,,62,0
140010,note_on,0,0,8,,,,,,,,,7,,,67,100
140010,note_on,0,0,7,,,,,,,,,6,,,74,100
140040,note_on,0,0,8,,,,,,,,,7,,,71,100
140040,note_on,0,0,1,,,,,,,,,0,,,79,0
140040,note_on,30,0,8,,,,,,,,,7,,,67,0
140040,note_on,120,0,9,,,,,,,,,8,,,67,0
140040,note_on,0,0,4,,,,,,,,,3,,,50,0
140040,note_on,120,0,3,,,,,,,,,2,,,55,0
140040,note_on,120,0,10,,,,,,,,,10,,,55,0
140040,note_on,0,0,6,,,,,,,,,5,,,50,100
140040,note_on,120,0,11,,,,,,,,,11,,,43,0
140040,note_on,120,0,1,,,,,,,,,0,,,83,0
140040,note_on,30,0,7,,,,,,,,,6,,,74,0
140040,note_on,120,0,6,,,,,,,,,5,,,50,0
140040,note_on,0,0,2,,,,,,,,,1,,,71,0
140040,note_on,120,0,2,,,,,,,,,1,,,67,0
140040,note_on,120,0,4,,,,,,,,,3,,,62,0
140040,note_on,120,0,5,,,,,,,,,4,,,62,0
140040,note_on,0,0,5,,,,,,,,,4,,,74,0
140040,note_on,0,0,7,,,,,,,,,6,,,79,100
140070,note_on,30,0,7,,,,,,,,,6,,,79,0
140070,note_on,30,0,8,,,,,,,,,7,,,71,0
140100,note_on,60,0,9,,,,,,,,,8,,,62,100
140100,note_on,0,0,5,,,,,,,,,4,,,74,100
140100,note_on,60,0,5,,,,,,,,,4,,,62,100
140100,note_on,30,0,8,,,,,,,,,7,,,69,100
140100,note_on,60,0,4,,,,,,,,,3,,,62,100
140100,note_on,60,0,2,,,,,,,,,1,,,66,100
140100,note_on,60,0,1,,,,,,,,,0,,,78,100
140100,note_on,60,0,3,,,,,,,,,2,,,50,100
140100,note_on,0,0,4,,,,,,,,,3,,,50,100
140100,note_on,60,0,10,,,,,,,,,10,,,50,100
140100,note_on,60,0,11,,,,,,,,,11,,,38,100
140100,note_on,30,0,7,,,,,,,,,6,,,78,100
140100,note_on,0,0,1,,,,,,,,,0,,,81,100
140100,note_on,0,0,2,,,,,,,,,1,,,69,100
140130,note_on,30,0,8,,,,,,,,,7,,,69,0
140130,note_on,30,0,7,,,,,,,,,6,,,78,0
140160,note_on,60,0,5,,,,,,,,,4,,,74,0
140160,note_on,0,0,2,,,,,,,,,1,,,73,100
140160,note_on,0,0,2,,,,,,,,,1,,,66,0
140160,note_on,0,0,4,,,,,,,,,3,,,62,0
140160,note_on,0,0,5,,,,,,,,,4,,,69,100
140160,note_on,120,0,6,,,,,,,,,5,,,50,0
140160,note_on,0,0,10,,,,,,,,,10,,,45,100
140160,note_on,60,0,10,,,,,,,,,10,,,50,0
140160,note_on,30,0,7,,,,,,,,,6,,,69,100
140160,note_on,0,0,5,,,,,,,,,4,,,62,0
140160,note_on,0,0,7,,,,,,,,,6,,,76,100
140160,note_on,60,0,4,,,,,,,,,3,,,50,0
140160,note_on,60,0,3,,,,,,,,,2,,,50,0
140160,note_on,0,0,3,,,,,,,,,2,,,45,100
140160,note_on,0,0,6,,,,,,,,,5,,,45,100
140160,note_on,60,0,11,,,,,,,,,11,,,38,0
140160,note_on,0,0,11,,,,,,,,,11,,,33,100
140160,note_on,60,0,2,,,,,,,,,1,,,69,0
140160,note_on,0,0,1,,,,,,,,,0,,,85,100
140160,note_on,0,0,1,,,,,,,,,0,,,76,100
140160,note_on,0,0,1,,,,,,,,,0,,,78,0
140160,note_on,60,0,1,,,,,,,,,0,,,81,0
140160,note_on,30,0,8,,,,,,,,,7,,,73,100
140160,note_on,0,0,2,,,,,,,,,1,,,69,100
140160,note_on,60,0,9,,,,,,,,,8,,,62,0
140160,note_on,0,0,4,,,,,,,,,3,,,57,100
140160,note_on,0,0,9,,,,,,,,,8,,,57,100
140190,note_on,30,0,4,,,,,,,,,3,,,57,0
140190,note_on,30,0,5,,,,,,,,,4,,,69,0
140196,note_on,0,0,7,,,,,,,,,6,,,69,0
140196,note_on,36,0,7,,,,,,,,,6,,,76,0
140196,note_on,36,0,8,,,,,,,,,7,,,73,0
140202,note_on,42,0,3,,,,,,,,,2,,,45,0
140202,note_on,42,0,2,,,,,,,,,1,,,69,0
140202,note_on,0,0,2,,,,,,,,,1,,,73,0
140202,note_on,0,0,1,,,,,,,,,0,,,76,0
140202,note_on,42,0,1,,,,,,,,,0,,,85,0
140220,note_on,0,0,1,,,,,,,,,0,,,90,100
140220,note_on,60,0,11,,,,,,,,,11,,,33,0
140220,note_on,0,0,7,,,,,,,,,6,,,81,100
140220,note_on,0,0,2,,,,,,,,,1,,,81,100
140220,note_on,18,0,2,,,,,,,,,1,,,78,100
140220,note_on,18,0,1,,,,,,,,,0,,,81,100
140220,note_on,0,0,11,,,,,,,,,11,,,45,100
140220,note_on,24,0,7,,,,,,,,,6,,,69,100
140220,note_on,30,0,5,,,,,,,,,4,,,69,100
140220,note_on,60,0,9,,,,,,,,,8,,,57,0
140220,note_on,0,0,10,,,,,,,,,10,,,57,100
140220,note_on,30,0,4,,,,,,,,,3,,,57,100
140220,note_on,60,0,10,,,,,,,,,10,,,45,0
140220,note_on,18,0,3,,,,,,,,,2,,,57,100
140220,note_on,0,0,9,,,,,,,,,8,,,69,100
140220,note_on,24,0,8,,,,,,,,,7,,,78,100
140250,note_on,30,0,4,,,,,,,,,3,,,57,0
140250,note_on,30,0,5,,,,,,,,,4,,,69,0
140256,note_on,0,0,7,,,,,,,,,6,,,69,0
140256,note_on,36,0,7,,,,,,,,,6,,,81,0
140256,note_on,36,0,8,,,,,,,,,7,,,78,0
140262,note_on,0,0,1,,,,,,,,,0,,,81,0
140262,note_on,42,0,2,,,,,,,,,1,,,81,0
140262,note_on,0,0,2,,,,,,,,,1,,,78,0
140262,note_on,42,0,1,,,,,,,,,0,,,90,0
140262,note_on,42,0,3,,,,,,,,,2,,,57,0
140280,note_on,0,0,11,,,,,,,,,11,,,45,100
140280,note_on,60,0,9,,,,,,,,,8,,,69,0
140280,note_on,120,0,6,,,,,,,,,5,,,45,0
140280,note_on,0,0,6,,,,,,,,,5,,,45,100
140280,note_on,0,0,10,,,,,,,,,10,,,57,100
140280,note_on,60,0,10,,,,,,,,,10,,,57,0
140280,note_on,0,0,9,,,,,,,,,8,,,69,100
140280,note_on,0,0,7,,,,,,,,,6,,,79,100
140280,note_on,18,0,2,,,,,,,,,1,,,76,100
140280,note_on,0,0,2,,,,,,,,,1,,,79,100
140280,note_on,60,0,11,,,,,,,,,11,,,45,0
140280,note_on,30,0,4,,,,,,,,,3,,,57,100
140280,note_on,0,0,1,,,,,,,,,0,,,88,100
140280,note_on,18,0,1,,,,,,,,,0,,,79,100
140280,note_on,30,0,5,,,,,,,,,4,,,69,100
140280,note_on,24,0,8,,,,,,,,,7,,,76,100
140280,note_on,18,0,3,,,,,,,,,2,,,57,100
140280,note_on,24,0,7,,,,,,,,,6,,,69,100
140310,note_on,30,0,5,,,,,,,,,4,,,69,0
140310,note_on,30,0,4,,,,,,,,,3,,,57,0
140316,note_on,36,0,7,,,,,,,,,6,,,79,0
140316,note_on,0,0,7,,,,,,,,,6,,,69,0
140316,note_on,36,0,8,,,,,,,,,7,,,76,0
140322,note_on,42,0,1,,,,,,,,,0,,,88,0
140322,note_on,42,0,3,,,,,,,,,2,,,57,0
140322,note_on,0,0,1,,,,,,,,,0,,,79,0
140322,note_on,0,0,2,,,,,,,,,1,,,76,0
140322,note_on,42,0,2,,,,,,,,,1,,,79,0
140340,note_on,60,0,11,,,,,,,,,11,,,45,0
140340,note_on,0,0,11,,,,,,,,,11,,,45,100
140340,note_on,24,0,8,,,,,,,,,7,,,74,100
140340,note_on,24,0,7,,,,,,,,,6,,,69,100
140340,note_on,0,0,7,,,,,,,,,6,,,78,100
140340,note_on,0,0,2,,,,,,,,,1,,,78,100
140340,note_on,18,0,2,,,,,,,,,1,,,73,100
140340,note_on,60,0,10,,,,,,,,,10,,,57,0
140340,note_on,0,0,10,,,,,,,,,10,,,57,100
140340,note_on,0,0,1,,,,,,,,,0,,,86,100
140340,note_on,60,0,9,,,,,,,,,8,,,69,0
140340,note_on,0,0,9,,,,,,,,,8,,,69,100
140340,note_on,30,0,5,,,,,,,,,4,,,69,100
140340,note_on,30,0,4,,,,,,,,,3,,,57,100
140340,note_on,18,0,1,,,,,,,,,0,,,78,100
140340,note_on,18,0,3,,,,,,,,,2,,,57,100
140370,note_on,30,0,5,,,,,,,,,4,,,69,0
140370,note_on,30,0,4,,,,,,,,,3,,,57,0
140376,note_on,36,0,7,,,,,,,,,6,,,78,0
140376,note_on,0,0,7,,,,,,,,,6,,,69,0
140376,note_on,36,0,8,,,,,,,,,7,,,74,0
140382,note_on,42,0,3,,,,,,,,,2,,,57,0
140382,note_on,0,0,1,,,,,,,,,0,,,78,0
140382,note_on,42,0,1,,,,,,,,,0,,,86,0
140382,note_on,42,0,2,,,,,,,,,1,,,78,0
140382,note_on,0,0,2,,,,,,,,,1,,,73,0
140400,note_on,18,0,3,,,,,,,,,2,,,57,100
140400,note_on,0,0,9,,,,,,,,,8,,,69,100
140400,note_on,60,0,9,,,,,,,,,8,,,69,0
140400,note_on,0,0,1,,,,,,,,,0,,,85,100
140400,note_on,18,0,1,,,,,,,,,0,,,76,100
140400,note_on,24,0,7,,,,,,,,,6,,,69,100
140400,note_on,0,0,7,,,,,,,,,6,,,76,100
140400,note_on,0,0,11,,,,,,,,,11,,,45,100
140400,note_on,60,0,10,,,,,,,,,10,,,57,0
140400,note_on,120,0,6,,,,,,,,,5,,,45,0
140400,note_on,24,0,8,,,,,,,,,7,,,73,100
140400,note_on,18,0,2,,,,,,,,,1,,,69,100
140400,note_on,0,0,2,,,,,,,,,1,,,73,100
140400,note_on,60,0,11,,,,,,,,,11,,,45,0
140400,note_on,30,0,5,,,,,,,,,4,,,69,100
140400,note_on,0,0,10,,,,,,,,,10,,,57,100
140400,note_on,30,0,4,,,,,,,,,3,,,57,100
140400,note_on,0,0,6,,,,,,,,,5,,,45,100
140430,note_on,30,0,5,,,,,,,,,4,,,69,0
140430,note_on,30,0,4,,,,,,,,,3,,,57,0
140436,note_on,36,0,8,,,,,,,,,7,,,73,0
140436,note_on,36,0,7,,,,,,,,,6,,,76,0
140436,note_on,0,0,7,,,,,,,,,6,,,69,0
140442,note_on,42,0,3,,,,,,,,,2,,,57,0
140442,note_on,0,0,1,,,,,,,,,0,,,76,0
140442,note_on,42,0,1,,,,,,,,,0,,,85,0
140442,note_on,42,0,2,,,,,,,,,1,,,73,0
140442,note_on,0,0,2,,,,,,,,,1,,,69,0
140460,note_on,0,0,1,,,,,,,,,0,,,90,100
140460,note_on,0,0,10,,,,,,,,,10,,,57,100
140460,note_on,60,0,9,,,,,,,,,8,,,69,0
140460,note_on,0,0,9,,,,,,,,,8,,,69,100
140460,note_on,24,0,8,,,,,,,,,7,,,78,100
140460,note_on,0,0,11,,,,,,,,,11,,,45,100
140460,note_on,60,0,11,,,,,,,,,11,,,45,0
140460,note_on,0,0,7,,,,,,,,,6,,,81,100
140460,note_on,24,0,7,,,,,,,,,6,,,69,100
140460,note_on,30,0,4,,,,,,,,,3,,,57,100
140460,note_on,60,0,10,,,,,,,,,10,,,57,0
140460,note_on,18,0,1,,,,,,,,,0,,,81,100
140460,note_on,30,0,5,,,,,,,,,4,,,69,100
140460,note_on,18,0,3,,,,,,,,,2,,,57,100
140460,note_on,0,0,2,,,,,,,,,1,,,81,100
140460,note_on,18,0,2,,,,,,,,,1,,,78,100
140490,note_on,30,0,5,,,,,,,,,4,,,69,0
140490,note_on,30,0,4,,,,,,,,,3,,,57,0
140496,note_on,36,0,8,,,,,,,,,7,,,78,0
140496,note_on,0,0,7,,,,,,,,,6,,,69,0
140496,note_on,36,0,7,,,,,,,,,6,,,81,0
140502,note_on,42,0,2,,,,,,,,,1,,,81,0
140502,note_on,0,0,2,,,,,,,,,1,,,78,0
140502,note_on,0,0,1,,,,,,,,,0,,,81,0
140502,note_on,42,0,1,,,,,,,,,0,,,90,0
140502,note_on,42,0,3,,,,,,,,,2,,,57,0
140520,note_on,0,0,11,,,,,,,,,11,,,45,100
140520,note_on,18,0,2,,,,,,,,,1,,,76,100
140520,note_on,0,0,2,,,,,,,,,1,,,79,100
140520,note_on,60,0,11,,,,,,,,,11,,,45,0
140520,note_on,0,0,10,,,,,,,,,10,,,57,100
140520,note_on,0,0,6,,,,,,,,,5,,,45,100
140520,note_on,60,0,10,,,,,,,,,10,,,57,0
140520,note_on,60,0,9,,,,,,,,,8,,,69,0
140520,note_on,18,0,1,,,,,,,,,0,,,79,100
140520,note_on,120,0,6,,,,,,,,,5,,,45,0
140520,note_on,18,0,3,,,,,,,,,2,,,57,100
140520,note_on,24,0,8,,,,,,,,,7,,,76,100
140520,note_on,0,0,7,,,,,,,,,6,,,79,100
140520,note_on,24,0,7,,,,,,,,,6,,,69,100
140520,note_on,30,0,4,,,,,,,,,3,,,57,100
140520,note_on,0,0,9,,,,,,,,,8,,,69,100
140520,note_on,0,0,1,,,,,,,,,0,,,88,100
140520,note_on,30,0,5,,,,,,,,,4,,,69,100
140550,note_on,30,0,5,,,,,,,,,4,,,69,0
140550,note_on,30,0,4,,,,,,,,,3,,,57,0
140556,note_on,36,0,8,,,,,,,,,7,,,76,0
140556,note_on,36,0,7,,,,,,,,,6,,,79,0
140556,note_on,0,0,7,,,,,,,,,6,,,69,0
140562,note_on,42,0,1,,,,,,,,,0,,,88,0
140562,note_on,0,0,2,,,,,,,,,1,,,76,0
140562,note_on,42,0,2,,,,,,,,,1,,,79,0
140562,note_on,0,0,1,,,,,,,,,0,,,79,0
140562,note_on,42,0,3,,,,,,,,,2,,,57,0
140580,note_on,0,0,11,,,,,,,,,11,,,45,100
140580,note_on,24,0,7,,,,,,,,,6,,,69,100
140580,note_on,0,0,2,,,,,,,,,1,,,78,100
140580,note_on,18,0,2,,,,,,,,,1,,,74,100
140580,note_on,60,0,11,,,,,,,,,11,,,45,0
140580,note_on,0,0,7,,,,,,,,,6,,,78,100
140580,note_on,30,0,5,,,,,,,,,4,,,69,100
140580,note_on,18,0,1,,,,,,,,,0,,,78,100
140580,note_on,60,0,9,,,,,,,,,8,,,69,0
140580,note_on,0,0,9,,,,,,,,,8,,,69,100
140580,note_on,0,0,10,,,,,,,,,10,,,57,100
140580,note_on,60,0,10,,,,,,,,,10,,,57,0
140580,note_on,18,0,3,,,,,,,,,2,,,57,100
140580,note_on,30,0,4,,,,,,,,,3,,,57,100
140580,note_on,24,0,8,,,,,,,,,7,,,74,100
140580,note_on,0,0,1,,,,,,,,,0,,,86,100
140610,note_on,30,0,4,,,,,,,,,3,,,57,0
140610,note_on,30,0,5,,,,,,,,,4,,,69,0
140616,note_on,0,0,7,,,,,,,,,6,,,69,0
140616,note_on,36,0,7,,,,,,,,,6,,,78,0
140616,note_on,36,0,8,,,,,,,,,7,,,74,0
140622,note_on,0,0,1,,,,,,,,,0,,,78,0
140622,note_on,42,0,2,,,,,,,,,1,,,78,0
140622,note_on,42,0,3,,,,,,,,,2,,,57,0
140622,note_on,0,0,2,,,,,,,,,1,,,74,0
140622,note_on,42,0,1,,,,,,,,,0,,,86,0
140640,note_on,0,0,7,,,,,,,,,6,,,69,100
140640,note_on,0,0,10,,,,,,,,,10,,,57,100
140640,note_on,60,0,10,,,,,,,,,10,,,57,0
140640,note_on,30,0,5,,,,,,,,,4,,,69,100
140640,note_on,24,0,7,,,,,,,,,6,,,76,100
140640,note_on,18,0,1,,,,,,,,,0,,,76,100
140640,note_on,18,0,3,,,,,,,,,2,,,57,100
140640,note_on,0,0,2,,,,,,,,,1,,,76,100
140640,note_on,30,0,4,,,,,,,,,3,,,57,100
140640,note_on,0,0,9,,,,,,,,,8,,,69,100
140640,note_on,24,0,8,,,,,,,,,7,,,73,100
140640,note_on,0,0,11,,,,,,,,,11,,,45,100
140640,note_on,60,0,9,,,,,,,,,8,,,69,0
140640,note_on,0,0,6,,,,,,,,,5,,,45,100
140640,note_on,120,0,6,,,,,,,,,5,,,45,0
140640,note_on,18,0,2,,,,,,,,,1,,,73,100
140640,note_on,0,0,1,,,,,,,,,0,,,85,100
140640,note_on,60,0,11,,,,,,,,,11,,,45,0
140670,note_on,30,0,4,,,,,,,,,3,,,57,0
140670,note_on,30,0,5,,,,,,,,,4,,,69,0
140676,note_on,0,0,7,,,,,,,,,6,,,76,0
140676,note_on,36,0,7,,,,,,,,,6,,,69,0
140676,note_on,36,0,8,,,,,,,,,7,,,73,0
140682,note_on,42,0,3,,,,,,,,,2,,,57,0
140682,note_on,0,0,1,,,,,,,,,0,,,76,0
140682,note_on,42,0,2,,,,,,,,,1,,,76,0
140682,note_on,0,0,2,,,,,,,,,1,,,73,0
140682,note_on,42,0,1,,,,,,,,,0,,,85,0
140700,note_on,30,0,5,,,,,,,,,4,,,57,100
140700,note_on,18,0,2,,,,,,,,,1,,,81,100
140700,note_on,0,0,4,,,,,,,,,3,,,57,100
140700,note_on,60,0,11,,,,,,,,,11,,,45,0
140700,note_on,18,0,1,,,,,,,,,0,,,81,100
140700,note_on,30,0,4,,,,,,,,,3,,,45,100
140700,note_on,24,0,8,,,,,,,,,7,,,81,100
140700,note_on,60,0,10,,,,,,,,,10,,,57,0
140700,note_on,60,0,9,,,,,,,,,8,,,69,0
140700,note_on,18,0,3,,,,,,,,,2,,,45,100
140700,note_on,24,0,7,,,,,,,,,6,,,81,100
140700,note_on,0,0,5,,,,,,,,,4,,,69,100
140730,note_on,30,0,4,,,,,,,,,3,,,57,0
140730,note_on,0,0,5,,,,,,,,,4,,,57,0
140730,note_on,30,0,5,,,,,,,,,4,,,69,0
140730,note_on,0,0,4,,,,,,,,,3,,,45,0
140736,note_on,36,0,7,,,,,,,,,6,,,81,0
140736,note_on,36,0,8,,,,,,,,,7,,,81,0
140742,note_on,42,0,3,,,,,,,,,2,,,45,0
140742,note_on,42,0,1,,,,,,,,,0,,,81,0
140742,note_on,42,0,2,,,,,,,,,1,,,81,0
140760,note_on,0,0,5,,,,,,,,,4,,,69,100
140760,note_on,60,0,11,,,,,,,,,11,,,33,100
140760,note_on,18,0,1,,,,,,,,,0,,,81,100
140760,note_on,60,0,9,,,,,,,,,8,,,57,100
140760,note_on,120,0,6,,,,,,,,,5,,,45,0
140760,note_on,24,0,7,,,,,,,,,6,,,69,100
140760,note_on,30,0,4,,,,,,,,,3,,,45,100
140760,note_on,0,0,4,,,,,,,,,3,,,57,100
140760,note_on,18,0,3,,,,,,,,,2,,,45,100
140760,note_on,60,0,10,,,,,,,,,10,,,45,100
140760,note_on,18,0,2,,,,,,,,,1,,,69,100
140760,note_on,0,0,6,,,,,,,,,5,,,45,100
140760,note_on,24,0,8,,,,,,,,,7,,,69,100
140760,note_on,30,0,5,,,,,,,,,4,,,57,100
140790,note_on,0,0,4,,,,,,,,,3,,,45,0
140790,note_on,30,0,4,,,,,,,,,3,,,57,0
140790,note_on,0,0,5,,,,,,,,,4,,,57,0
140790,note_on,30,0,5,,,,,,,,,4,,,69,0
140796,note_on,36,0,8,,,,,,,,,7,,,69,0
140796,note_on,36,0,7,,,,,,,,,6,,,69,0
140802,note_on,42,0,3,,,,,,,,,2,,,45,0
140802,note_on,42,0,2,,,,,,,,,1,,,69,0
140802,note_on,42,0,1,,,,,,,,,0,,,81,0
140820,note_on,30,0,4,,,,,,,,,3,,,45,100
140820,note_on,0,0,4,,,,,,,,,3,,,57,100
140820,note_on,0,0,10,,,,,,,,,10,,,45,100
140820,note_on,24,0,7,,,,,,,,,6,,,69,100
140820,note_on,60,0,6,,,,,,,,,5,,,45,0
140820,note_on,18,0,1,,,,,,,,,0,,,81,100
140820,note_on,60,0,10,,,,,,,,,10,,,45,0
140820,note_on,18,0,2,,,,,,,,,1,,,69,100
140820,note_on,24,0,8,,,,,,,,,7,,,69,100
140820,note_on,0,0,9,,,,,,,,,8,,,57,100
140820,note_on,60,0,9,,,,,,,,,8,,,57,0
140820,note_on,30,0,5,,,,,,,,,4,,,57,100
140820,note_on,0,0,11,,,,,,,,,11,,,33,100
140820,note_on,60,0,11,,,,,,,,,11,,,33,0
140820,note_on,18,0,3,,,,,,,,,2,,,45,100
140820,note_on,0,0,6,,,,,,,,,5,,,45,100
140820,note_on,0,0,5,,,,,,,,,4,,,69,100
140850,note_on,0,0,4,,,,,,,,,3,,,45,0
140850,note_on,30,0,4,,,,,,,,,3,,,57,0
140850,note_on,0,0,5,,,,,,,,,4,,,57,0
140850,note_on,30,0,5,,,,,,,,,4,,,69,0
140856,note_on,36,0,7,,,,,,,,,6,,,69,0
140856,note_on,36,0,8,,,,,,,,,7,,,69,0
140862,note_on,42,0,1,,,,,,,,,0,,,81,0
140862,note_on,42,0,2,,,,,,,,,1,,,69,0
140862,note_on,42,0,3,,,,,,,,,2,,,45,0
140880,note_on,30,0,5,,,,,,,,,4,,,57,100
140880,note_on,0,0,5,,,,,,,,,4,,,69,100
140880,note_on,60,0,10,,,,,,,,,10,,,45,0
140880,note_on,18,0,1,,,,,,,,,0,,,81,100
140880,note_on,60,0,9,,,,,,,,,8,,,57,0
140880,note_on,18,0,2,,,,,,,,,1,,,69,100
140880,note_on,0,0,9,,,,,,,,,8,,,57,100
140880,note_on,0,0,10,,,,,,,,,10,,,45,100
140880,note_on,24,0,7,,,,,,,,,6,,,69,100
140880,note_on,60,0,6,,,,,,,,,5,,,45,0
140880,note_on,0,0,4,,,,,,,,,3,,,57,100
140880,note_on,60,0,11,,,,,,,,,11,,,33,0
140880,note_on,0,0,11,,,,,,,,,11,,,33,100
140880,note_on,24,0,8,,,,,,,,,7,,,69,100
140880,note_on,30,0,4,,,,,,,,,3,,,45,100
140880,note_on,0,0,6,,,,,,,,,5,,,45,100
140880,note_on,18,0,3,,,,,,,,,2,,,45,100
140910,note_on,30,0,5,,,,,,,,,4,,,69,0
140910,note_on,0,0,4,,,,,,,,,3,,,45,0
140910,note_on,0,0,5,,,,,,,,,4,,,57,0
140910,note_on,30,0,4,,,,,,,,,3,,,57,0
140916,note_on,36,0,7,,,,,,,,,6,,,69,0
140916,note_on,36,0,8,,,,,,,,,7,,,69,0
140922,note_on,42,0,3,,,,,,,,,2,,,45,0
140922,note_on,42,0,2,,,,,,,,,1,,,69,0
140922,note_on,42,0,1,,,,,,,,,0,,,81,0
140940,note_on,24,0,8,,,,,,,,,7,,,69,100
140940,note_on,18,0,3,,,,,,,,,2,,,45,100
140940,note_on,0,0,4,,,,,,,,,3,,,57,100
140940,note_on,30,0,5,,,,,,,,,4,,,57,100
140940,note_on,0,0,5,,,,,,,,,4,,,69,100
140940,note_on,60,0,11,,,,,,,,,11,,,33,0
140940,note_on,0,0,11,,,,,,,,,11,,,33,100
140940,note_on,18,0,2,,,,,,,,,1,,,69,100
140940,note_on,24,0,7,,,,,,,,,6,,,69,100
140940,note_on,0,0,9,,,,,,,,,8,,,57,100
140940,note_on,18,0,1,,,,,,,,,0,,,81,100
140940,note_on,60,0,6,,,,,,,,,5,,,45,0
140940,note_on,60,0,10,,,,,,,,,10,,,45,0
140940,note_on,0,0,10,,,,,,,,,10,,,45,100
140940,note_on,60,0,9,,,,,,,,,8,,,57,0
140940,note_on,30,0,4,,,,,,,,,3,,,45,100
140940,note_on,0,0,6,,,,,,,,,5,,,45,100
140970,note_on,0,0,4,,,,,,,,,3,,,45,0
140970,note_on,0,0,5,,,,,,,,,4,,,57,0
140970,note_on,30,0,5,,,,,,,,,4,,,69,0
140970,note_on,30,0,4,,,,,,,,,3,,,57,0
140976,note_on,36,0,8,,,,,,,,,7,,,69,0
140976,note_on,36,0,7,,,,,,,,,6,,,69,0
140982,note_on,42,0,2,,,,,,,,,1,,,69,0
140982,note_on,42,0,1,,,,,,,,,0,,,81,0
140982,note_on,42,0,3,,,,,,,,,2,,,45,0
141000,note_on,18,0,3,,,,,,,,,2,,,45,100
141000,note_on,18,0,2,,,,,,,,,1,,,69,100
141000,note_on,24,0,8,,,,,,,,,7,,,69,100
141000,note_on,60,0,10,,,,,,,,,10,,,45,0
141000,note_on,24,0,7,,,,,,,,,6,,,69,100
141000,note_on,0,0,10,,,,,,,,,10,,,45,100
141000,note_on,0,0,4,,,,,,,,,3,,,57,100
141000,note_on,0,0,11,,,,,,,,,11,,,33,100
141000,note_on,60,0,6,,,,,,,,,5,,,45,0
141000,note_on,0,0,5,,,,,,,,,4,,,69,100
141000,note_on,18,0,1,,,,,,,,,0,,,81,100
141000,note_on,60,0,11,,,,,,,,,11,,,33,0
141000,note_on,30,0,5,,,,,,,,,4,,,57,100
141000,note_on,60,0,9,,,,,,,,,8,,,57,0
141000,note_on,30,0,4,,,,,,,,,3,,,45,100
141000,note_on,0,0,6,,,,,,,,,5,,,45,100
141000,note_on,0,0,9,,,,,,,,,8,,,57,100
141030,note_on,30,0,4,,,,,,,,,3,,,57,0
141030,note_on,0,0,4,,,,,,,,,3,,,45,0
141030,note_on,30,0,5,,,,,,,,,4,,,69,0
141030,note_on,0,0,5,,,,,,,,,4,,,57,0
141036,note_on,36,0,8,,,,,,,,,7,,,69,0
141036,note_on,36,0,7,,,,,,,,,6,,,69,0
141042,note_on,42,0,3,,,,,,,,,2,,,45,0
141042,note_on,42,0,2,,,,,,,,,1,,,69,0
141042,note_on,42,0,1,,,,,,,,,0,,,81,0
141060,note_on,60,0,11,,,,,,,,,11,,,33,0
141060,note_on,60,0,6,,,,,,,,,5,,,45,0
141060,note_on,0,0,4,,,,,,,,,3,,,57,100
141060,note_on,0,0,10,,,,,,,,,10,,,45,100
141060,note_on,60,0,10,,,,,,,,,10,,,45,0
141060,note_on,60,0,9,,,,,,,,,8,,,57,0
141060,note_on,0,0,9,,,,,,,,,8,,,57,100
141060,note_on,30,0,5,,,,,,,,,4,,,57,100
141060,note_on,0,0,6,,,,,,,,,5,,,45,100
141060,note_on,18,0,1,,,,,,,,,0,,,81,100
141060,note_on,24,0,8,,,,,,,,,7,,,69,100
141060,note_on,18,0,3,,,,,,,,,2,,,45,100
141060,note_on,18,0,2,,,,,,,,,1,,,69,100
141060,note_on,30,0,4,,,,,,,,,3,,,45,100
141060,note_on,24,0,7,,,,,,,,,6,,,69,100
141060,note_on,0,0,5,,,,,,,,,4,,,69,100
141060,note_on,0,0,11,,,,,,,,,11,,,33,100
141090,note_on,0,0,4,,,,,,,,,3,,,45,0
141090,note_on,0,0,5,,,,,,,,,4,,,57,0
141090,note_on,30,0,5,,,,,,,,,4,,,69,0
141090,note_on,30,0,4,,,,,,,,,3,,,57,0
141096,note_on,36,0,7,,,,,,,,,6,,,69,0
141096,note_on,36,0,8,,,,,,,,,7,,,69,0
141102,note_on,42,0,1,,,,,,,,,0,,,81,0
141102,note_on,42,0,2,,,,,,,,,1,,,69,0
141102,note_on,42,0,3,,,,,,,,,2,,,45,0
141120,note_on,0,0,11,,,,,,,,,11,,,33,100
141120,note_on,0,0,6,,,,,,,,,5,,,45,100
141120,note_on,60,0,6,,,,,,,,,5,,,45,0
141120,note_on,24,0,8,,,,,,,,,7,,,69,100
141120,note_on,18,0,3,,,,,,,,,2,,,45,100
141120,note_on,60,0,11,,,,,,,,,11,,,33,0
141120,note_on,24,0,7,,,,,,,,,6,,,69,100
141120,marker,8160,1,0,,,,,,,,,,,,,
141120,note_on,0,0,4,,,,,,,,,3,,,57,50
141120,note_on,0,0,5,,,,,,,,,4,,,69,100
141120,note_on,18,0,2,,,,,,,,,1,,,69,100
141120,note_on,60,0,9,,,,,,,,,8,,,57,0
141120,note_on,0,0,9,,,,,,,,,8,,,57,100
141120,note_on,30,0,5,,,,,,,,,4,,,57,100
141120,note_on,0,0,10,,,,,,,,,10,,,45,100
141120,note_on,18,0,1,,,,,,,,,0,,,81,100
141120,note_on,60,0,10,,,,,,,,,10,,,45,0
141120,note_on,30,0,4,,,,,,,,,3,,,45,50
141168,note_on,48,0,7,,,,,,,,,6,,,69,0
141180,note_on,12,0,7,,,,,,,,,6,,,69,50
141240,note_on,120,0,5,,,,,,,,,4,,,69,0
141240,note_on,120,0,1,,,,,,,,,0,,,81,0
141240,note_on,120,0,10,,,,,,,,,10,,,45,0
141240,note_on,120,0,9,,,,,,,,,8,,,57,0
141240,note_on,120,0,2,,,,,,,,,1,,,69,0
141240,note_on,120,0,8,,,,,,,,,7,,,69,0
141240,note_on,120,0,11,,,,,,,,,11,,,33,0
141240,note_on,0,0,5,,,,,,,,,4,,,57,0
141240,note_on,120,0,3,,,,,,,,,2,,,45,0
141240,note_on,120,0,6,,,,,,,,,5,,,45,0
141276,note_on,96,0,7,,,,,,,,,6,,,69,0
141300,note_on,24,0,7,,,,,,,,,6,,,69,50
141396,note_on,96,0,7,,,,,,,,,6,,,69,0
141420,note_on,24,0,7,,,,,,,,,6,,,69,50
141516,note_on,96,0,7,,,,,,,,,6,,,69,0
141540,note_on,24,0,7,,,,,,,,,6,,,69,50
141600,note_on,360,0,8,,,,,,,,,7,,,64,50
141600,note_on,360,0,9,,,,,,,,,8,,,61,50
141636,note_on,96,0,7,,,,,,,,,6,,,69,0
141660,note_on,24,0,7,,,,,,,,,6,,,69,50
141756,note_on,96,0,7,,,,,,,,,6,,,69,0
141780,note_on,24,0,7,,,,,,,,,6,,,69,50
141876,note_on,96,0,7,,,,,,,,,6,,,69,0
141900,note_on,24,0,7,,,,,,,,,6,,,69,50
141996,note_on,96,0,7,,,,,,,,,6,,,69,0
142020,note_on,24,0,7,,,,,,,,,6,,,69,50
142080,note_on,480,0,8,,,,,,,,,7,,,64,0
142080,note_on,0,0,8,,,,,,,,,7,,,65,50
142080,note_on,0,0,9,,,,,,,,,8,,,62,50
142080,note_on,480,0,9,,,,,,,,,8,,,61,0
142116,note_on,96,0,7,,,,,,,,,6,,,69,0
142140,note_on,24,0,7,,,,,,,,,6,,,69,50
142200,note_on,120,0,9,,,,,,,,,8,,,62,0
142200,note_on,0,0,9,,,,,,,,,8,,,64,50
142200,note_on,120,0,8,,,,,,,,,7,,,65,0
142200,note_on,0,0,8,,,,,,,,,7,,,67,50
142236,note_on,96,0,7,,,,,,,,,6,,,69,0
142260,note_on,24,0,7,,,,,,,,,6,,,69,50
142356,note_on,96,0,7,,,,,,,,,6,,,69,0
142380,note_on,24,0,7,,,,,,,,,6,,,69,50
142440,note_on,0,0,9,,,,,,,,,8,,,61,50
142440,note_on,240,0,9,,,,,,,,,8,,,64,0
142440,note_on,0,0,8,,,,,,,,,7,,,64,50
142440,note_on,240,0,8,,,,,,,,,7,,,67,0
142476,note_on,96,0,7,,,,,,,,,6,,,69,0
142500,note_on,24,0,7,,,,,,,,,6,,,69,50
142560,note_on,0,0,8,,,,,,,,,7,,,65,50
142560,note_on,120,0,9,,,,,,,,,8,,,61,0
142560,note_on,120,0,8,,,,,,,,,7,,,64,0
142560,note_on,0,0,9,,,,,,,,,8,,,62,50
142560,note_on,1320,0,2,,,,,,,,,1,,,69,50
142560,note_on,1320,0,1,,,,,,,,,0,,,81,50
142596,note_on,96,0,7,,,,,,,,,6,,,69,0
142620,note_on,24,0,7,,,,,,,,,6,,,69,50
142680,note_on,120,0,9,,,,,,,,,8,,,62,0
142680,note_on,0,0,9,,,,,,,,,8,,,64,50
142680,note_on,120,0,8,,,,,,,,,7,,,65,0
142680,note_on,0,0,8,,,,,,,,,7,,,67,50
142716,note_on,96,0,7,,,,,,,,,6,,,69,0
142740,note_on,24,0,7,,,,,,,,,6,,,69,50
142800,note_on,0,0,2,,,,,,,,,1,,,79,50
142800,note_on,240,0,2,,,,,,,,,1,,,69,0
142800,note_on,0,0,1,,,,,,,,,0,,,91,50
142800,note_on,240,0,1,,,,,,,,,0,,,81,0
142836,note_on,96,0,7,,,,,,,,,6,,,69,0
142860,note_on,24,0,7,,,,,,,,,6,,,69,50
142920,note_on,0,0,8,,,,,,,,,7,,,64,50
142920,note_on,0,0,9,,,,,,,,,8,,,61,50
142920,note_on,240,0,9,,,,,,,,,8,,,64,0
142920,note_on,240,0,8,,,,,,,,,7,,,67,0
142956,note_on,96,0,7,,,,,,,,,6,,,69,0
142980,note_on,24,0,7,,,,,,,,,6,,,69,50
143040,note_on,120,0,9,,,,,,,,,8,,,61,0
143040,note_on,0,0,9,,,,,,,,,8,,,62,50
143040,note_on,120,0,8,,,,,,,,,7,,,64,0
143040,note_on,0,0,8,,,,,,,,,7,,,65,50
143076,note_on,96,0,7,,,,,,,,,6,,,69,0
143100,note_on,0,0,2,,,,,,,,,1,,,77,50
143100,note_on,24,0,7,,,,,,,,,6,,,69,50
143100,note_on,300,0,2,,,,,,,,,1,,,79,0
143100,note_on,300,0,1,,,,,,,,,0,,,91,0
143100,note_on,0,0,1,,,,,,,,,0,,,89,50
143130,note_on,30,0,2,,,,,,,,,1,,,77,0
143130,note_on,30,0,1,,,,,,,,,0,,,89,0
143140,note_on,40,0,7,,,,,,,,,6,,,69,0
143160,note_on,20,0,7,,,,,,,,,6,,,69,50
143160,note_on,30,0,2,,,,,,,,,1,,,76,50
143160,note_on,30,0,1,,,,,,,,,0,,,88,50
143190,note_on,30,0,1,,,,,,,,,0,,,88,0
143190,note_on,30,0,2,,,,,,,,,1,,,76,0
143200,note_on,40,0,7,,,,,,,,,6,,,69,0
143220,note_on,30,0,1,,,,,,,,,0,,,86,50
143220,note_on,20,0,7,,,,,,,,,6,,,69,50
143220,note_on,30,0,2,,,,,,,,,1,,,74,50
143250,note_on,30,0,1,,,,,,,,,0,,,86,0
143250,note_on,30,0,2,,,,,,,,,1,,,74,0
143260,note_on,40,0,7,,,,,,,,,6,,,69,0
143280,note_on,30,0,2,,,,,,,,,1,,,74,50
143280,note_on,20,0,7,,,,,,,,,6,,,69,50
143280,note_on,0,0,9,,,,,,,,,8,,,57,50
143280,note_on,240,0,9,,,,,,,,,8,,,62,0
143280,note_on,240,0,8,,,,,,,,,7,,,65,0
143280,note_on,30,0,1,,,,,,,,,0,,,86,50
143280,note_on,0,0,8,,,,,,,,,7,,,64,50
143320,note_on,40,0,7,,,,,,,,,6,,,69,0
143340,note_on,60,0,2,,,,,,,,,1,,,74,0
143340,note_on,60,0,1,,,,,,,,,0,,,86,0
143340,note_on,20,0,7,,,,,,,,,6,,,69,50
143340,note_on,0,0,1,,,,,,,,,0,,,85,50
143340,note_on,0,0,2,,,,,,,,,1,,,73,50
143370,note_on,30,0,1,,,,,,,,,0,,,85,0
143370,note_on,30,0,2,,,,,,,,,1,,,73,0
143380,note_on,40,0,7,,,,,,,,,6,,,69,0
143400,note_on,30,0,1,,,,,,,,,0,,,83,50
143400,note_on,30,0,2,,,,,,,,,1,,,71,50
143400,note_on,20,0,7,,,,,,,,,6,,,69,50
143430,note_on,30,0,2,,,,,,,,,1,,,71,0
143430,note_on,30,0,1,,,,,,,,,0,,,83,0
143440,note_on,40,0,7,,,,,,,,,6,,,69,0
143460,note_on,30,0,1,,,,,,,,,0,,,81,50
143460,note_on,20,0,7,,,,,,,,,6,,,71,50
143460,note_on,30,0,2,,,,,,,,,1,,,69,50
143490,note_on,0,0,7,,,,,,,,,6,,,73,50
143490,note_on,30,0,7,,,,,,,,,6,,,71,0
143490,note_on,30,0,2,,,,,,,,,1,,,69,0
143490,note_on,30,0,1,,,,,,,,,0,,,81,0
143520,note_on,240,0,9,,,,,,,,,8,,,57,0
143520,note_on,0,0,9,,,,,,,,,8,,,53,50
143520,note_on,0,0,4,,,,,,,,,3,,,50,50
143520,note_on,0,0,4,,,,,,,,,3,,,45,0
143520,note_on,2400,0,4,,,,,,,,,3,,,57,0
143520,note_on,2280,0,11,,,,,,,,,11,,,34,50
143520,note_on,0,0,4,,,,,,,,,3,,,62,50
143520,note_on,0,0,7,,,,,,,,,6,,,74,50
143520,note_on,2280,0,10,,,,,,,,,10,,,46,50
143520,note_on,30,0,7,,,,,,,,,6,,,73,0
143520,note_on,30,0,2,,,,,,,,,1,,,69,50
143520,note_on,240,0,8,,,,,,,,,7,,,64,0
143520,note_on,0,0,8,,,,,,,,,7,,,62,50
143520,note_on,30,0,1,,,,,,,,,0,,,81,50
143560,note_on,40,0,7,,,,,,,,,6,,,74,0
143580,note_on,20,0,7,,,,,,,,,6,,,74,50
143620,note_on,40,0,7,,,,,,,,,6,,,74,0
143640,note_on,20,0,7,,,,,,,,,6,,,74,50
143680,note_on,40,0,7,,,,,,,,,6,,,74,0
143700,note_on,20,0,7,,,,,,,,,6,,,74,50
143740,note_on,40,0,7,,,,,,,,,6,,,74,0
143760,note_on,20,0,7,,,,,,,,,6,,,74,50
143760,note_on,240,0,1,,,,,,,,,0,,,81,0
143760,note_on,0,0,1,,,,,,,,,0,,,80,50
143760,note_on,0,0,2,,,,,,,,,1,,,68,50
143760,note_on,240,0,2,,,,,,,,,1,,,69,0
143800,note_on,40,0,7,,,,,,,,,6,,,74,0
143820,note_on,20,0,7,,,,,,,,,6,,,74,50
143860,note_on,40,0,7,,,,,,,,,6,,,74,0
143880,note_on,360,0,9,,,,,,,,,8,,,53,0
143880,note_on,0,0,9,,,,,,,,,8,,,50,50
143880,note_on,20,0,7,,,,,,,,,6,,,76,50
143910,note_on,0,0,7,,,,,,,,,6,,,74,50
143910,note_on,30,0,7,,,,,,,,,6,,,76,0
143940,note_on,30,0,7,,,,,,,,,6,,,74,0
143940,note_on,0,0,7,,,,,,,,,6,,,73,50
143970,note_on,30,0,7,,,,,,,,,6,,,73,0
143970,note_on,0,0,7,,,,,,,,,6,,,74,50
144000,note_on,240,0,2,,,,,,,,,1,,,68,0
144000,note_on,0,0,7,,,,,,,,,6,,,73,50
144000,note_on,30,0,7,,,,,,,,,6,,,74,0
144000,note_on,0,0,9,,,,,,,,,8,,,57,50
144000,note_on,0,0,2,,,,,,,,,1,,,69,50
144000,note_on,0,0,8,,,,,,,,,7,,,64,50
144000,note_on,480,0,8,,,,,,,,,7,,,62,0
144000,note_on,0,0,10,,,,,,,,,10,,,45,50
144000,note_on,480,0,10,,,,,,,,,10,,,46,0
144000,note_on,0,0,1,,,,,,,,,0,,,81,50
144000,note_on,240,0,1,,,,,,,,,0,,,80,0
144000,note_on,0,0,4,,,,,,,,,3,,,57,50
144000,note_on,0,0,4,,,,,,,,,3,,,45,50
144000,note_on,0,0,4,,,,,,,,,3,,,50,0
144000,note_on,0,0,11,,,,,,,,,11,,,33,50
144000,note_on,480,0,4,,,,,,,,,3,,,62,0
144000,note_on,480,0,11,,,,,,,,,11,,,34,0
144000,note_on,120,0,9,,,,,,,,,8,,,50,0
144060,note_on,2820,0,3,,,,,,,,,2,,,61,70
144060,note_on,0,0,3,,,,,,,,,2,,,57,70
144100,note_on,40,0,3,,,,,,,,,2,,,57,0
144100,note_on,0,0,3,,,,,,,,,2,,,61,0
144120,note_on,120,0,9,,,,,,,,,8,,,57,0
144120,note_on,20,0,3,,,,,,,,,2,,,61,70
144120,note_on,0,0,3,,,,,,,,,2,,,57,70
144120,note_on,120,0,1,,,,,,,,,0,,,81,0
144120,note_on,120,0,8,,,,,,,,,7,,,64,0
144120,note_on,120,0,7,,,,,,,,,6,,,73,0
144120,note_on,120,0,2,,,,,,,,,1,,,69,0
144160,note_on,40,0,3,,,,,,,,,2,,,57,0
144160,note_on,0,0,3,,,,,,,,,2,,,61,0
144180,note_on,0,0,3,,,,,,,,,2,,,57,70
144180,note_on,20,0,3,,,,,,,,,2,,,61,70
144220,note_on,0,0,3,,,,,,,,,2,,,61,0
144220,note_on,40,0,3,,,,,,,,,2,,,57,0
144240,note_on,20,0,3,,,,,,,,,2,,,61,70
144240,note_on,0,0,3,,,,,,,,,2,,,57,70
144280,note_on,0,0,3,,,,,,,,,2,,,61,0
144280,note_on,40,0,3,,,,,,,,,2,,,57,0
144300,note_on,0,0,3,,,,,,,,,2,,,57,70
144300,note_on,20,0,3,,,,,,,,,2,,,61,70
144340,note_on,0,0,3,,,,,,,,,2,,,61,0
144340,note_on,40,0,3,,,,,,,,,2,,,57,0
144360,note_on,0,0,3,,,,,,,,,2,,,57,70
144360,note_on,20,0,3,,,,,,,,,2,,,61,70
144400,note_on,0,0,3,,,,,,,,,2,,,61,0
144400,note_on,40,0,3,,,,,,,,,2,,,57,0
144420,note_on,0,0,3,,,,,,,,,2,,,61,70
144420,note_on,20,0,3,,,,,,,,,2,,,64,70
144450,note_on,0,0,3,,,,,,,,,2,,,64,0
144450,note_on,0,0,3,,,,,,,,,2,,,65,70
144450,note_on,30,0,3,,,,,,,,,2,,,61,0
144450,note_on,0,0,3,,,,,,,,,2,,,62,70
144480,note_on,0,0,3,,,,,,,,,2,,,64,50
144480,note_on,0,0,3,,,,,,,,,2,,,67,50
144480,note_on,0,0,3,,,,,,,,,2,,,62,0
144480,note_on,30,0,3,,,,,,,,,2,,,65,0
144480,note_on,360,0,7,,,,,,,,,6,,,61,50
144480,note_on,360,0,8,,,,,,,,,7,,,61,50
144540,note_on,420,0,2,,,,,,,,,1,,,76,70
144540,note_on,0,0,2,,,,,,,,,1,,,73,70
144580,note_on,0,0,2,,,,,,,,,1,,,76,0
144580,note_on,40,0,2,,,,,,,,,1,,,73,0
144600,note_on,20,0,2,,,,,,,,,1,,,76,70
144600,note_on,0,0,2,,,,,,,,,1,,,73,70
144640,note_on,40,0,2,,,,,,,,,1,,,73,0
144640,note_on,0,0,2,,,,,,,,,1,,,76,0
144660,note_on,20,0,2,,,,,,,,,1,,,76,70
144660,note_on,0,0,2,,,,,,,,,1,,,73,70
144700,note_on,40,0,2,,,,,,,,,1,,,73,0
144700,note_on,0,0,2,,,,,,,,,1,,,76,0
144720,note_on,0,0,8,,,,,,,,,7,,,70,50
144720,note_on,240,0,8,,,,,,,,,7,,,61,0
144720,note_on,240,0,7,,,,,,,,,6,,,61,0
144720,note_on,0,0,2,,,,,,,,,1,,,73,70
144720,note_on,0,0,7,,,,,,,,,6,,,82,50
144720,note_on,20,0,2,,,,,,,,,1,,,76,70
144760,note_on,0,0,2,,,,,,,,,1,,,76,0
144760,note_on,40,0,2,,,,,,,,,1,,,73,0
144780,note_on,20,0,2,,,,,,,,,1,,,76,70
144780,note_on,0,0,2,,,,,,,,,1,,,73,70
144820,note_on,40,0,2,,,,,,,,,1,,,73,0
144820,note_on,0,0,2,,,,,,,,,1,,,76,0
144840,note_on,20,0,2,,,,,,,,,1,,,76,70
144840,note_on,0,0,2,,,,,,,,,1,,,73,70
144880,note_on,40,0,2,,,,,,,,,1,,,73,0
144880,note_on,0,0,2,,,,,,,,,1,,,76,0
144900,note_on,20,0,2,,,,,,,,,1,,,77,70
144900,note_on,0,0,2,,,,,,,,,1,,,74,70
144930,note_on,0,0,2,,,,,,,,,1,,,76,70
144930,note_on,30,0,2,,,,,,,,,1,,,74,0
144930,note_on,0,0,2,,,,,,,,,1,,,79,70
144930,note_on,0,0,2,,,,,,,,,1,,,77,0
144960,note_on,30,0,2,,,,,,,,,1,,,76,0
144960,note_on,0,0,2,,,,,,,,,1,,,79,0
144960,note_on,0,0,2,,,,,,,,,1,,,81,50
144960,note_on,0,0,2,,,,,,,,,1,,,77,50
144960,note_on,480,0,3,,,,,,,,,2,,,67,0
144960,note_on,0,0,3,,,,,,,,,2,,,65,50
145020,note_on,300,0,8,,,,,,,,,7,,,70,0
145020,note_on,300,0,7,,,,,,,,,6,,,82,0
145020,note_on,0,0,7,,,,,,,,,6,,,81,50
145020,note_on,900,0,1,,,,,,,,,0,,,81,70
145020,note_on,0,0,8,,,,,,,,,7,,,69,50
145060,note_on,40,0,1,,,,,,,,,0,,,81,0
145080,note_on,60,0,7,,,,,,,,,6,,,81,0
145080,note_on,0,0,7,,,,,,,,,6,,,79,50
145080,note_on,0,0,3,,,,,,,,,2,,,62,50
145080,note_on,120,0,3,,,,,,,,,2,,,64,0
145080,note_on,60,0,8,,,,,,,,,7,,,69,0
145080,note_on,0,0,8,,,,,,,,,7,,,67,50
145080,note_on,20,0,1,,,,,,,,,0,,,81,70
145120,note_on,40,0,1,,,,,,,,,0,,,81,0
145140,note_on,60,0,8,,,,,,,,,7,,,67,0
145140,note_on,0,0,8,,,,,,,,,7,,,65,50
145140,note_on,20,0,1,,,,,,,,,0,,,81,70
145140,note_on,60,0,7,,,,,,,,,6,,,79,0
145140,note_on,0,0,7,,,,,,,,,6,,,77,50
145180,note_on,40,0,1,,,,,,,,,0,,,81,0
145200,note_on,0,0,2,,,,,,,,,1,,,81,0
145200,note_on,240,0,2,,,,,,,,,1,,,77,0
145200,note_on,0,0,2,,,,,,,,,1,,,76,50
145200,note_on,60,0,7,,,,,,,,,6,,,77,0
145200,note_on,0,0,7,,,,,,,,,6,,,81,50
145200,note_on,0,0,3,,,,,,,,,2,,,64,50
145200,note_on,120,0,3,,,,,,,,,2,,,65,0
145200,note_on,0,0,8,,,,,,,,,7,,,69,50
145200,note_on,60,0,8,,,,,,,,,7,,,65,0
145200,note_on,0,0,2,,,,,,,,,1,,,79,50
145200,note_on,20,0,1,,,,,,,,,0,,,81,70
145240,note_on,40,0,1,,,,,,,,,0,,,81,0
145260,note_on,60,0,7,,,,,,,,,6,,,81,0
145260,note_on,0,0,7,,,,,,,,,6,,,79,50
145260,note_on,20,0,1,,,,,,,,,0,,,81,70
145260,note_on,60,0,8,,,,,,,,,7,,,69,0
145260,note_on,0,0,8,,,,,,,,,7,,,67,50
145300,note_on,40,0,1,,,,,,,,,0,,,81,0
145320,note_on,0,0,8,,,,,,,,,7,,,66,50
145320,note_on,60,0,8,,,,,,,,,7,,,67,0
145320,note_on,120,0,3,,,,,,,,,2,,,62,0
145320,note_on,0,0,3,,,,,,,,,2,,,61,50
145320,note_on,60,0,7,,,,,,,,,6,,,79,0
145320,note_on,0,0,7,,,,,,,,,6,,,77,50
145320,note_on,20,0,1,,,,,,,,,0,,,81,70
145360,note_on,40,0,1,,,,,,,,,0,,,81,0
145380,note_on,60,0,8,,,,,,,,,7,,,66,0
145380,note_on,60,0,7,,,,,,,,,6,,,77,0
145380,note_on,20,0,1,,,,,,,,,0,,,83,70
145380,note_on,0,0,7,,,,,,,,,6,,,76,50
145380,note_on,0,0,8,,,,,,,,,7,,,64,50
145410,note_on,0,0,1,,,,,,,,,0,,,85,70
145410,note_on,30,0,1,,,,,,,,,0,,,83,0
145440,note_on,60,0,7,,,,,,,,,6,,,76,0
145440,note_on,0,0,2,,,,,,,,,1,,,74,50
145440,note_on,240,0,2,,,,,,,,,1,,,79,0
145440,note_on,0,0,2,,,,,,,,,1,,,76,0
145440,note_on,0,0,2,,,,,,,,,1,,,77,50
145440,note_on,0,0,7,,,,,,,,,6,,,74,50
145440,note_on,0,0,1,,,,,,,,,0,,,86,70
145440,note_on,60,0,8,,,,,,,,,7,,,64,0
145440,note_on,30,0,1,,,,,,,,,0,,,85,0
145440,note_on,0,0,8,,,,,,,,,7,,,62,50
145440,note_on,120,0,3,,,,,,,,,2,,,61,0
145440,note_on,0,0,3,,,,,,,,,2,,,64,0
145500,note_on,60,0,3,,,,,,,,,2,,,50,50
145540,note_on,40,0,3,,,,,,,,,2,,,50,0
145560,note_on,20,0,3,,,,,,,,,2,,,50,50
145600,note_on,40,0,3,,,,,,,,,2,,,50,0
145620,note_on,20,0,3,,,,,,,,,2,,,50,50
145660,note_on,40,0,3,,,,,,,,,2,,,50,0
145680,note_on,20,0,3,,,,,,,,,2,,,50,50
145680,note_on,240,0,7,,,,,,,,,6,,,74,0
145680,note_on,0,0,8,,,,,,,,,7,,,77,50
145680,note_on,240,0,8,,,,,,,,,7,,,62,0
145680,note_on,0,0,1,,,,,,,,,0,,,80,70
145680,note_on,240,0,1,,,,,,,,,0,,,86,0
145680,note_on,0,0,7,,,,,,,,,6,,,86,50
145680,note_on,1560,0,9,,,,,,,,,8,,,68,50
145720,note_on,40,0,3,,,,,,,,,2,,,50,0
145740,note_on,20,0,3,,,,,,,,,2,,,50,50
145780,note_on,40,0,3,,,,,,,,,2,,,50,0
145800,note_on,20,0,3,,,,,,,,,2,,,50,50
145840,note_on,40,0,3,,,,,,,,,2,,,50,0
145860,note_on,20,0,3,,,,,,,,,2,,,53,50
145890,note_on,0,0,3,,,,,,,,,2,,,50,50
145890,note_on,30,0,3,,,,,,,,,2,,,53,0
145920,note_on,240,0,1,,,,,,,,,0,,,80,0
145920,note_on,0,0,1,,,,,,,,,0,,,81,70
145920,note_on,480,0,2,,,,,,,,,1,,,77,0
145920,note_on,0,0,2,,,,,,,,,1,,,74,0
145920,note_on,0,0,2,,,,,,,,,1,,,73,50
145920,note_on,0,0,2,,,,,,,,,1,,,76,50
145920,note_on,30,0,3,,,,,,,,,2,,,50,0
145920,note_on,240,0,9,,,,,,,,,8,,,68,0
145920,note_on,0,0,9,,,,,,,,,8,,,69,50
145920,note_on,0,0,3,,,,,,,,,2,,,57,50
145980,note_on,0,0,8,,,,,,,,,7,,,76,50
145980,note_on,300,0,8,,,,,,,,,7,,,77,0
145980,note_on,300,0,7,,,,,,,,,6,,,86,0
145980,note_on,0,0,7,,,,,,,,,6,,,85,50
146040,note_on,0,0,2,,,,,,,,,1,,,73,0
146040,note_on,120,0,1,,,,,,,,,0,,,81,0
146040,note_on,120,0,2,,,,,,,,,1,,,76,0
146040,note_on,120,0,9,,,,,,,,,8,,,69,0
146040,note_on,120,0,3,,,,,,,,,2,,,57,0
146040,note_on,60,0,8,,,,,,,,,7,,,76,0
146040,note_on,0,0,8,,,,,,,,,7,,,74,50
146040,note_on,0,0,7,,,,,,,,,6,,,83,50
146040,note_on,60,0,7,,,,,,,,,6,,,85,0
146100,note_on,60,0,8,,,,,,,,,7,,,74,0
146100,note_on,0,0,8,,,,,,,,,7,,,73,50
146100,note_on,0,0,7,,,,,,,,,6,,,81,50
146100,note_on,60,0,7,,,,,,,,,6,,,83,0
146160,note_on,60,0,7,,,,,,,,,6,,,81,0
146160,note_on,2160,0,10,,,,,,,,,10,,,45,0
146160,note_on,0,0,7,,,,,,,,,6,,,86,50
146160,note_on,0,0,8,,,,,,,,,7,,,77,50
146160,note_on,60,0,8,,,,,,,,,7,,,73,0
146220,note_on,60,0,10,,,,,,,,,10,,,68,50
146220,note_on,180,0,9,,,,,,,,,8,,,68,50
146280,note_on,0,0,9,,,,,,,,,8,,,69,50
146280,note_on,60,0,10,,,,,,,,,10,,,68,0
146280,note_on,0,0,10,,,,,,,,,10,,,69,50
146280,note_on,60,0,9,,,,,,,,,8,,,68,0
146340,note_on,60,0,9,,,,,,,,,8,,,69,0
146340,note_on,0,0,9,,,,,,,,,8,,,68,50
146340,note_on,0,0,10,,,,,,,,,10,,,68,50
146340,note_on,60,0,10,,,,,,,,,10,,,69,0
146400,note_on,60,0,9,,,,,,,,,8,,,68,0
146400,note_on,0,0,10,,,,,,,,,10,,,69,50
146400,note_on,60,0,10,,,,,,,,,10,,,68,0
146400,note_on,2400,0,11,,,,,,,,,11,,,33,0
146400,note_on,0,0,11,,,,,,,,,11,,,33,50
146400,note_on,0,0,9,,,,,,,,,8,,,69,50
146460,note_on,60,0,10,,,,,,,,,10,,,69,0
146460,note_on,300,0,8,,,,,,,,,7,,,77,0
146460,note_on,0,0,8,,,,,,,,,7,,,76,50
146460,note_on,300,0,7,,,,,,,,,6,,,86,0
146460,note_on,60,0,9,,,,,,,,,8,,,69,0
146460,note_on,0,0,7,,,,,,,,,6,,,85,50
146520,note_on,0,0,7,,,,,,,,,6,,,83,50
146520,note_on,60,0,7,,,,,,,,,6,,,85,0
146520,note_on,0,0,8,,,,,,,,,7,,,74,50
146520,note_on,60,0,8,,,,,,,,,7,,,76,0
146580,note_on,0,0,8,,,,,,,,,7,,,72,50
146580,note_on,60,0,8,,,,,,,,,7,,,74,0
146580,note_on,0,0,7,,,,,,,,,6,,,81,50
146580,note_on,60,0,7,,,,,,,,,6,,,83,0
146640,note_on,60,0,8,,,,,,,,,7,,,72,0
146640,note_on,0,0,7,,,,,,,,,6,,,84,50
146640,note_on,60,0,7,,,,,,,,,6,,,81,0
146640,note_on,0,0,8,,,,,,,,,7,,,75,50
146700,note_on,240,0,9,,,,,,,,,8,,,66,50
146700,note_on,240,0,10,,,,,,,,,10,,,66,50
146760,note_on,0,0,10,,,,,,,,,10,,,67,50
146760,note_on,0,0,9,,,,,,,,,8,,,67,50
146760,note_on,60,0,9,,,,,,,,,8,,,66,0
146760,note_on,60,0,10,,,,,,,,,10,,,66,0
146820,note_on,60,0,9,,,,,,,,,8,,,67,0
146820,note_on,0,0,9,,,,,,,,,8,,,66,50
146820,note_on,60,0,10,,,,,,,,,10,,,67,0
146820,note_on,0,0,10,,,,,,,,,10,,,66,50
146880,note_on,0,0,9,,,,,,,,,8,,,67,50
146880,note_on,60,0,9,,,,,,,,,8,,,66,0
146880,note_on,60,0,10,,,,,,,,,10,,,66,0
146880,note_on,0,0,10,,,,,,,,,10,,,67,50
146940,note_on,0,0,8,,,,,,,,,7,,,74,50
146940,note_on,300,0,8,,,,,,,,,7,,,75,0
146940,note_on,60,0,9,,,,,,,,,8,,,67,0
146940,note_on,0,0,7,,,,,,,,,6,,,83,50
146940,note_on,300,0,7,,,,,,,,,6,,,84,0
146940,note_on,60,0,10,,,,,,,,,10,,,67,0
147000,note_on,60,0,7,,,,,,,,,6,,,83,0
147000,note_on,60,0,8,,,,,,,,,7,,,74,0
147000,note_on,0,0,8,,,,,,,,,7,,,72,50
147000,note_on,0,0,7,,,,,,,,,6,,,81,50
147060,note_on,0,0,7,,,,,,,,,6,,,79,50
147060,note_on,60,0,8,,,,,,,,,7,,,72,0
147060,note_on,0,0,8,,,,,,,,,7,,,71,50
147060,note_on,60,0,7,,,,,,,,,6,,,81,0
147120,note_on,0,0,7,,,,,,,,,6,,,82,50
147120,note_on,60,0,8,,,,,,,,,7,,,71,0
147120,note_on,60,0,7,,,,,,,,,6,,,79,0
147120,note_on,0,0,8,,,,,,,,,7,,,73,50
147180,note_on,240,0,9,,,,,,,,,8,,,64,50
147180,note_on,240,0,10,,,,,,,,,10,,,64,50
147240,note_on,0,0,9,,,,,,,,,8,,,65,50
147240,note_on,60,0,9,,,,,,,,,8,,,64,0
147240,note_on,0,0,10,,,,,,,,,10,,,65,50
147240,note_on,60,0,10,,,,,,,,,10,,,64,0
147300,note_on,60,0,9,,,,,,,,,8,,,65,0
147300,note_on,0,0,9,,,,,,,,,8,,,64,50
147300,note_on,60,0,10,,,,,,,,,10,,,65,0
147300,note_on,0,0,10,,,,,,,,,10,,,64,50
147360,note_on,0,0,9,,,,,,,,,8,,,65,50
147360,note_on,60,0,9,,,,,,,,,8,,,64,0
147360,note_on,0,0,10,,,,,,,,,10,,,65,50
147360,note_on,60,0,10,,,,,,,,,10,,,64,0
147420,note_on,60,0,9,,,,,,,,,8,,,65,0
147420,note_on,0,0,7,,,,,,,,,6,,,81,50
147420,note_on,0,0,8,,,,,,,,,7,,,74,50
147420,note_on,60,0,10,,,,,,,,,10,,,65,0
147420,note_on,300,0,7,,,,,,,,,6,,,82,0
147420,note_on,300,0,8,,,,,,,,,7,,,73,0
147480,note_on,60,0,7,,,,,,,,,6,,,81,0
147480,note_on,0,0,7,,,,,,,,,6,,,79,50
147480,note_on,0,0,8,,,,,,,,,7,,,76,50
147480,note_on,60,0,8,,,,,,,,,7,,,74,0
147540,note_on,0,0,8,,,,,,,,,7,,,74,50
147540,note_on,0,0,7,,,,,,,,,6,,,77,50
147540,note_on,60,0,7,,,,,,,,,6,,,79,0
147540,note_on,60,0,8,,,,,,,,,7,,,76,0
147600,note_on,60,0,7,,,,,,,,,6,,,77,0
147600,note_on,0,0,7,,,,,,,,,6,,,81,50
147600,note_on,0,0,8,,,,,,,,,7,,,72,50
147600,note_on,60,0,8,,,,,,,,,7,,,74,0
147660,note_on,240,0,10,,,,,,,,,10,,,63,50
147660,note_on,240,0,9,,,,,,,,,8,,,63,50
147720,note_on,60,0,10,,,,,,,,,10,,,63,0
147720,note_on,0,0,10,,,,,,,,,10,,,64,50
147720,note_on,60,0,9,,,,,,,,,8,,,63,0
147720,note_on,0,0,9,,,,,,,,,8,,,64,50
147780,note_on,0,0,9,,,,,,,,,8,,,63,50
147780,note_on,60,0,9,,,,,,,,,8,,,64,0
147780,note_on,0,0,10,,,,,,,,,10,,,63,50
147780,note_on,60,0,10,,,,,,,,,10,,,64,0
147840,note_on,60,0,9,,,,,,,,,8,,,63,0
147840,note_on,0,0,10,,,,,,,,,10,,,64,50
147840,note_on,0,0,9,,,,,,,,,8,,,64,50
147840,note_on,60,0,10,,,,,,,,,10,,,63,0
147900,note_on,0,0,7,,,,,,,,,6,,,80,50
147900,note_on,300,0,7,,,,,,,,,6,,,81,0
147900,note_on,60,0,10,,,,,,,,,10,,,64,0
147900,note_on,60,0,9,,,,,,,,,8,,,64,0
147900,note_on,0,0,8,,,,,,,,,7,,,71,50
147900,note_on,300,0,8,,,,,,,,,7,,,72,0
147960,note_on,60,0,8,,,,,,,,,7,,,71,0
147960,note_on,0,0,7,,,,,,,,,6,,,78,50
147960,note_on,60,0,7,,,,,,,,,6,,,80,0
147960,note_on,0,0,8,,,,,,,,,7,,,69,50
148020,note_on,60,0,8,,,,,,,,,7,,,69,0
148020,note_on,60,0,7,,,,,,,,,6,,,78,0
148020,note_on,0,0,7,,,,,,,,,6,,,76,50
148020,note_on,0,0,8,,,,,,,,,7,,,68,50
148080,note_on,60,0,8,,,,,,,,,7,,,68,0
148080,note_on,0,0,8,,,,,,,,,7,,,70,50
148080,note_on,60,0,7,,,,,,,,,6,,,76,0
148080,note_on,0,0,7,,,,,,,,,6,,,79,50
148140,note_on,240,0,10,,,,,,,,,10,,,61,50
148140,note_on,240,0,9,,,,,,,,,8,,,61,50
148200,note_on,60,0,10,,,,,,,,,10,,,61,0
148200,note_on,0,0,10,,,,,,,,,10,,,62,50
148200,note_on,60,0,9,,,,,,,,,8,,,61,0
148200,note_on,0,0,9,,,,,,,,,8,,,62,50
148260,note_on,60,0,10,,,,,,,,,10,,,62,0
148260,note_on,0,0,10,,,,,,,,,10,,,61,50
148260,note_on,0,0,9,,,,,,,,,8,,,61,50
148260,note_on,60,0,9,,,,,,,,,8,,,62,0
148320,note_on,60,0,9,,,,,,,,,8,,,61,0
148320,note_on,0,0,9,,,,,,,,,8,,,62,50
148320,note_on,60,0,10,,,,,,,,,10,,,61,0
148320,note_on,0,0,10,,,,,,,,,10,,,62,50
148380,note_on,0,0,7,,,,,,,,,6,,,78,50
148380,note_on,300,0,7,,,,,,,,,6,,,79,0
148380,note_on,60,0,10,,,,,,,,,10,,,62,0
148380,note_on,300,0,8,,,,,,,,,7,,,70,0
148380,note_on,0,0,8,,,,,,,,,7,,,69,50
148380,note_on,60,0,9,,,,,,,,,8,,,62,0
148440,note_on,60,0,7,,,,,,,,,6,,,78,0
148440,note_on,60,0,8,,,,,,,,,7,,,69,0
148440,note_on,0,0,8,,,,,,,,,7,,,67,50
148440,note_on,0,0,7,,,,,,,,,6,,,76,50
148500,note_on,60,0,7,,,,,,,,,6,,,76,0
148500,note_on,60,0,8,,,,,,,,,7,,,67,0
148500,note_on,0,0,7,,,,,,,,,6,,,74,50
148500,note_on,0,0,8,,,,,,,,,7,,,65,50
148560,note_on,0,0,8,,,,,,,,,7,,,74,50
148560,note_on,0,0,3,,,,,,,,,2,,,62,50
148560,note_on,2520,0,3,,,,,,,,,2,,,65,50
148560,note_on,0,0,7,,,,,,,,,6,,,77,50
148560,note_on,60,0,7,,,,,,,,,6,,,74,0
148560,note_on,60,0,8,,,,,,,,,7,,,65,0
148620,note_on,240,0,10,,,,,,,,,10,,,56,50
148620,note_on,240,0,9,,,,,,,,,8,,,56,50
148680,note_on,0,0,10,,,,,,,,,10,,,57,50
148680,note_on,60,0,10,,,,,,,,,10,,,56,0
148680,note_on,0,0,9,,,,,,,,,8,,,57,50
148680,note_on,60,0,9,,,,,,,,,8,,,56,0
148740,note_on,60,0,10,,,,,,,,,10,,,57,0
148740,note_on,0,0,10,,,,,,,,,10,,,56,50
148740,note_on,60,0,9,,,,,,,,,8,,,57,0
148740,note_on,0,0,9,,,,,,,,,8,,,56,50
148800,note_on,60,0,9,,,,,,,,,8,,,56,0
148800,note_on,0,0,9,,,,,,,,,8,,,57,50
148800,note_on,2400,0,11,,,,,,,,,11,,,33,0
148800,note_on,0,0,10,,,,,,,,,10,,,57,50
148800,note_on,0,0,11,,,,,,,,,11,,,45,50
148800,note_on,60,0,10,,,,,,,,,10,,,56,0
148860,note_on,0,0,3,,,,,,,,,2,,,61,50
148860,note_on,300,0,8,,,,,,,,,7,,,74,0
148860,note_on,0,0,8,,,,,,,,,7,,,73,50
148860,note_on,0,0,3,,,,,,,,,2,,,65,0
148860,note_on,300,0,3,,,,,,,,,2,,,62,0
148860,note_on,60,0,10,,,,,,,,,10,,,57,0
148860,note_on,0,0,3,,,,,,,,,2,,,64,50
148860,note_on,300,0,7,,,,,,,,,6,,,77,0
148860,note_on,0,0,7,,,,,,,,,6,,,76,50
148860,note_on,60,0,9,,,,,,,,,8,,,57,0
148920,note_on,120,0,11,,,,,,,,,11,,,45,0
148920,note_on,60,0,8,,,,,,,,,7,,,73,0
148920,note_on,0,0,8,,,,,,,,,7,,,71,50
148920,note_on,60,0,7,,,,,,,,,6,,,76,0
148920,note_on,0,0,7,,,,,,,,,6,,,74,50
148920,note_on,0,0,3,,,,,,,,,2,,,62,50
148920,note_on,0,0,3,,,,,,,,,2,,,59,50
148920,note_on,0,0,3,,,,,,,,,2,,,61,0
148920,note_on,60,0,3,,,,,,,,,2,,,64,0
148980,note_on,0,0,3,,,,,,,,,2,,,57,50
148980,note_on,0,0,3,,,,,,,,,2,,,61,50
148980,note_on,0,0,3,,,,,,,,,2,,,59,0
148980,note_on,60,0,7,,,,,,,,,6,,,74,0
148980,note_on,60,0,8,,,,,,,,,7,,,71,0
148980,note_on,0,0,8,,,,,,,,,7,,,69,50
148980,note_on,60,0,3,,,,,,,,,2,,,62,0
148980,note_on,0,0,7,,,,,,,,,6,,,73,50
149040,note_on,60,0,3,,,,,,,,,2,,,61,0
149040,note_on,0,0,3,,,,,,,,,2,,,57,0
149040,note_on,0,0,3,,,,,,,,,2,,,61,50
149040,note_on,0,0,3,,,,,,,,,2,,,64,50
149040,note_on,120,0,11,,,,,,,,,11,,,33,50
149040,note_on,0,0,7,,,,,,,,,6,,,76,50
149040,note_on,60,0,7,,,,,,,,,6,,,73,0
149040,note_on,0,0,8,,,,,,,,,7,,,73,50
149040,note_on,60,0,8,,,,,,,,,7,,,69,0
149040,note_on,180,0,9,,,,,,,,,8,,,55,50
149040,note_on,180,0,10,,,,,,,,,10,,,45,50
149100,note_on,0,0,3,,,,,,,,,2,,,62,50
149100,note_on,0,0,3,,,,,,,,,2,,,61,0
149100,note_on,60,0,3,,,,,,,,,2,,,64,0
149100,note_on,0,0,8,,,,,,,,,7,,,71,50
149100,note_on,60,0,8,,,,,,,,,7,,,73,0
149100,note_on,60,0,7,,,,,,,,,6,,,76,0
149100,note_on,0,0,7,,,,,,,,,6,,,74,50
149100,note_on,0,0,3,,,,,,,,,2,,,59,50
149160,note_on,120,0,10,,,,,,,,,10,,,45,0
149160,note_on,0,0,7,,,,,,,,,6,,,73,50
149160,note_on,60,0,3,,,,,,,,,2,,,62,0
149160,note_on,0,0,3,,,,,,,,,2,,,59,0
149160,note_on,0,0,3,,,,,,,,,2,,,57,50
149160,note_on,60,0,7,,,,,,,,,6,,,74,0
149160,note_on,60,0,8,,,,,,,,,7,,,71,0
149160,note_on,0,0,8,,,,,,,,,7,,,69,50
149160,note_on,120,0,9,,,,,,,,,8,,,55,0
149160,note_on,120,0,11,,,,,,,,,11,,,33,0
149160,note_on,0,0,3,,,,,,,,,2,,,61,50
149220,note_on,60,0,3,,,,,,,,,2,,,61,0
149220,note_on,0,0,7,,,,,,,,,6,,,71,50
149220,note_on,60,0,7,,,,,,,,,6,,,73,0
149220,note_on,60,0,8,,,,,,,,,7,,,69,0
149220,note_on,0,0,8,,,,,,,,,7,,,67,50
149220,note_on,0,0,3,,,,,,,,,2,,,55,50
149220,note_on,0,0,3,,,,,,,,,2,,,57,0
149220,note_on,0,0,3,,,,,,,,,2,,,59,50
149280,note_on,60,0,8,,,,,,,,,7,,,67,0
149280,note_on,60,0,3,,,,,,,,,2,,,59,0
149280,note_on,0,0,3,,,,,,,,,2,,,55,0
149280,note_on,0,0,3,,,,,,,,,2,,,62,50
149280,note_on,0,0,3,,,,,,,,,2,,,59,50
149280,note_on,3240,0,1,,,,,,,,,0,,,86,50
149280,note_on,0,0,1,,,,,,,,,0,,,83,50
149280,note_on,120,0,11,,,,,,,,,11,,,33,50
149280,note_on,120,0,9,,,,,,,,,8,,,57,50
149280,note_on,0,0,8,,,,,,,,,7,,,71,50
149280,note_on,120,0,10,,,,,,,,,10,,,45,50
149280,note_on,60,0,7,,,,,,,,,6,,,71,0
149280,note_on,0,0,7,,,,,,,,,6,,,74,50
149340,note_on,0,0,1,,,,,,,,,0,,,86,0
149340,note_on,0,0,8,,,,,,,,,7,,,69,50
149340,note_on,60,0,8,,,,,,,,,7,,,71,0
149340,note_on,0,0,3,,,,,,,,,2,,,61,50
149340,note_on,0,0,3,,,,,,,,,2,,,57,50
149340,note_on,0,0,3,,,,,,,,,2,,,62,0
149340,note_on,0,0,1,,,,,,,,,0,,,81,50
149340,note_on,60,0,3,,,,,,,,,2,,,59,0
149340,note_on,60,0,7,,,,,,,,,6,,,74,0
149340,note_on,60,0,1,,,,,,,,,0,,,83,0
149340,note_on,0,0,1,,,,,,,,,0,,,85,50
149340,note_on,0,0,7,,,,,,,,,6,,,73,50
149400,note_on,60,0,7,,,,,,,,,6,,,73,0
149400,note_on,120,0,9,,,,,,,,,8,,,57,0
149400,note_on,120,0,10,,,,,,,,,10,,,45,0
149400,note_on,60,0,1,,,,,,,,,0,,,85,0
149400,note_on,0,0,1,,,,,,,,,0,,,79,50
149400,note_on,60,0,8,,,,,,,,,7,,,69,0
149400,note_on,0,0,3,,,,,,,,,2,,,59,50
149400,note_on,0,0,3,,,,,,,,,2,,,57,0
149400,note_on,60,0,3,,,,,,,,,2,,,61,0
149400,note_on,0,0,1,,,,,,,,,0,,,83,50
149400,note_on,0,0,8,,,,,,,,,7,,,67,50
149400,note_on,120,0,11,,,,,,,,,11,,,33,0
149400,note_on,0,0,7,,,,,,,,,6,,,71,50
149400,note_on,0,0,3,,,,,,,,,2,,,55,50
149400,note_on,0,0,1,,,,,,,,,0,,,81,0
149460,note_on,0,0,1,,,,,,,,,0,,,79,0
149460,note_on,0,0,1,,,,,,,,,0,,,78,50
149460,note_on,0,0,8,,,,,,,,,7,,,66,50
149460,note_on,60,0,8,,,,,,,,,7,,,67,0
149460,note_on,60,0,3,,,,,,,,,2,,,59,0
149460,note_on,0,0,3,,,,,,,,,2,,,55,0
149460,note_on,0,0,3,,,,,,,,,2,,,54,50
149460,note_on,0,0,3,,,,,,,,,2,,,57,50
149460,note_on,0,0,7,,,,,,,,,6,,,69,50
149460,note_on,60,0,1,,,,,,,,,0,,,83,0
149460,note_on,0,0,1,,,,,,,,,0,,,81,50
149460,note_on,60,0,7,,,,,,,,,6,,,71,0
149520,note_on,0,0,1,,,,,,,,,0,,,85,50
149520,note_on,0,0,8,,,,,,,,,7,,,69,50
149520,note_on,60,0,8,,,,,,,,,7,,,66,0
149520,note_on,60,0,1,,,,,,,,,0,,,81,0
149520,note_on,120,0,10,,,,,,,,,10,,,45,50
149520,note_on,120,0,9,,,,,,,,,8,,,57,50
149520,note_on,0,0,1,,,,,,,,,0,,,78,0
149520,note_on,0,0,1,,,,,,,,,0,,,81,50
149520,note_on,0,0,3,,,,,,,,,2,,,57,50
149520,note_on,60,0,3,,,,,,,,,2,,,57,0
149520,note_on,0,0,3,,,,,,,,,2,,,54,0
149520,note_on,120,0,11,,,,,,,,,11,,,33,50
149520,note_on,0,0,3,,,,,,,,,2,,,61,50
149520,note_on,0,0,7,,,,,,,,,6,,,73,50
149520,note_on,60,0,7,,,,,,,,,6,,,69,0
149580,note_on,0,0,8,,,,,,,,,7,,,67,50
149580,note_on,60,0,3,,,,,,,,,2,,,61,0
149580,note_on,0,0,3,,,,,,,,,2,,,57,0
149580,note_on,60,0,8,,,,,,,,,7,,,69,0
149580,note_on,0,0,3,,,,,,,,,2,,,59,50
149580,note_on,0,0,3,,,,,,,,,2,,,55,50
149580,note_on,0,0,1,,,,,,,,,0,,,79,50
149580,note_on,0,0,1,,,,,,,,,0,,,83,50
149580,note_on,0,0,7,,,,,,,,,6,,,71,50
149580,note_on,60,0,7,,,,,,,,,6,,,73,0
149580,note_on,0,0,1,,,,,,,,,0,,,81,0
149580,note_on,60,0,1,,,,,,,,,0,,,85,0
149640,note_on,120,0,11,,,,,,,,,11,,,33,0
149640,note_on,120,0,10,,,,,,,,,10,,,45,0
149640,note_on,60,0,1,,,,,,,,,0,,,83,0
149640,note_on,0,0,1,,,,,,,,,0,,,79,0
149640,note_on,0,0,7,,,,,,,,,6,,,69,50
149640,note_on,60,0,7,,,,,,,,,6,,,71,0
149640,note_on,60,0,3,,,,,,,,,2,,,59,0
149640,note_on,0,0,3,,,,,,,,,2,,,54,50
149640,note_on,0,0,3,,,,,,,,,2,,,57,50
149640,note_on,0,0,1,,,,,,,,,0,,,78,50
149640,note_on,0,0,1,,,,,,,,,0,,,81,50
149640,note_on,60,0,8,,,,,,,,,7,,,67,0
149640,note_on,0,0,8,,,,,,,,,7,,,66,50
149640,note_on,0,0,3,,,,,,,,,2,,,55,0
149640,note_on,120,0,9,,,,,,,,,8,,,57,0
149700,note_on,0,0,1,,,,,,,,,0,,,79,50
149700,note_on,60,0,1,,,,,,,,,0,,,81,0
149700,note_on,0,0,1,,,,,,,,,0,,,78,0
149700,note_on,0,0,1,,,,,,,,,0,,,76,50
149700,note_on,0,0,8,,,,,,,,,7,,,64,50
149700,note_on,60,0,8,,,,,,,,,7,,,66,0
149700,note_on,0,0,7,,,,,,,,,6,,,67,50
149700,note_on,60,0,7,,,,,,,,,6,,,69,0
149700,note_on,60,0,3,,,,,,,,,2,,,57,0
149700,note_on,0,0,3,,,,,,,,,2,,,54,0
149700,note_on,0,0,3,,,,,,,,,2,,,52,50
149700,note_on,0,0,3,,,,,,,,,2,,,55,50
149760,note_on,0,0,7,,,,,,,,,6,,,71,50
149760,note_on,60,0,7,,,,,,,,,6,,,67,0
149760,note_on,120,0,11,,,,,,,,,11,,,33,50
149760,note_on,60,0,8,,,,,,,,,7,,,64,0
149760,note_on,60,0,3,,,,,,,,,2,,,55,0
149760,note_on,0,0,3,,,,,,,,,2,,,52,0
149760,note_on,0,0,3,,,,,,,,,2,,,55,50
149760,note_on,0,0,3,,,,,,,,,2,,,59,50
149760,note_on,120,0,9,,,,,,,,,8,,,57,50
149760,note_on,0,0,8,,,,,,,,,7,,,67,50
149760,note_on,60,0,1,,,,,,,,,0,,,79,0
149760,note_on,120,0,10,,,,,,,,,10,,,45,50
149760,note_on,0,0,1,,,,,,,,,0,,,79,50
149760,note_on,0,0,1,,,,,,,,,0,,,76,0
149760,note_on,0,0,1,,,,,,,,,0,,,83,50
149820,note_on,0,0,1,,,,,,,,,0,,,79,0
149820,note_on,0,0,7,,,,,,,,,6,,,69,50
149820,note_on,0,0,1,,,,,,,,,0,,,81,50
149820,note_on,0,0,1,,,,,,,,,0,,,78,50
149820,note_on,60,0,1,,,,,,,,,0,,,83,0
149820,note_on,60,0,7,,,,,,,,,6,,,71,0
149820,note_on,60,0,3,,,,,,,,,2,,,59,0
149820,note_on,0,0,3,,,,,,,,,2,,,55,0
149820,note_on,0,0,3,,,,,,,,,2,,,54,50
149820,note_on,60,0,8,,,,,,,,,7,,,67,0
149820,note_on,0,0,8,,,,,,,,,7,,,66,50
149820,note_on,0,0,3,,,,,,,,,2,,,57,50
149880,note_on,60,0,8,,,,,,,,,7,,,66,0
149880,note_on,60,0,7,,,,,,,,,6,,,69,0
149880,note_on,0,0,1,,,,,,,,,0,,,76,50
149880,note_on,120,0,9,,,,,,,,,8,,,57,0
149880,note_on,0,0,1,,,,,,,,,0,,,78,0
149880,note_on,60,0,1,,,,,,,,,0,,,81,0
149880,note_on,0,0,7,,,,,,,,,6,,,67,50
149880,note_on,0,0,3,,,,,,,,,2,,,55,50
149880,note_on,0,0,3,,,,,,,,,2,,,52,50
149880,note_on,120,0,10,,,,,,,,,10,,,45,0
149880,note_on,0,0,3,,,,,,,,,2,,,54,0
149880,note_on,120,0,11,,,,,,,,,11,,,33,0
149880,note_on,60,0,3,,,,,,,,,2,,,57,0
149880,note_on,0,0,8,,,,,,,,,7,,,64,50
149880,note_on,0,0,1,,,,,,,,,0,,,79,50
149940,note_on,0,0,1,,,,,,,,,0,,,76,0
149940,note_on,0,0,1,,,,,,,,,0,,,74,50
149940,note_on,0,0,1,,,,,,,,,0,,,78,50
149940,note_on,0,0,3,,,,,,,,,2,,,52,0
149940,note_on,0,0,3,,,,,,,,,2,,,50,50
149940,note_on,0,0,3,,,,,,,,,2,,,54,50
149940,note_on,60,0,3,,,,,,,,,2,,,55,0
149940,note_on,60,0,1,,,,,,,,,0,,,79,0
149940,note_on,0,0,7,,,,,,,,,6,,,66,50
149940,note_on,60,0,7,,,,,,,,,6,,,67,0
149940,note_on,60,0,8,,,,,,,,,7,,,64,0
149940,note_on,0,0,8,,,,,,,,,7,,,62,50
150000,note_on,60,0,7,,,,,,,,,6,,,66,0
150000,note_on,0,0,3,,,,,,,,,2,,,57,50
150000,note_on,0,0,3,,,,,,,,,2,,,54,50
150000,note_on,0,0,3,,,,,,,,,2,,,50,0
150000,note_on,60,0,3,,,,,,,,,2,,,54,0
150000,note_on,0,0,1,,,,,,,,,0,,,81,50
150000,note_on,0,0,1,,,,,,,,,0,,,78,50
150000,note_on,0,0,7,,,,,,,,,6,,,69,50
150000,note_on,60,0,8,,,,,,,,,7,,,62,0
150000,note_on,120,0,10,,,,,,,,,10,,,45,50
150000,note_on,0,0,1,,,,,,,,,0,,,74,0
150000,note_on,0,0,8,,,,,,,,,7,,,66,50
150000,note_on,120,0,11,,,,,,,,,11,,,33,50
150000,note_on,120,0,9,,,,,,,,,8,,,57,50
150000,note_on,60,0,1,,,,,,,,,0,,,78,0
150060,note_on,60,0,3,,,,,,,,,2,,,57,0
150060,note_on,0,0,3,,,,,,,,,2,,,54,0
150060,note_on,0,0,1,,,,,,,,,0,,,79,50
150060,note_on,0,0,1,,,,,,,,,0,,,76,50
150060,note_on,0,0,1,,,,,,,,,0,,,78,0
150060,note_on,60,0,1,,,,,,,,,0,,,81,0
150060,note_on,0,0,3,,,,,,,,,2,,,52,50
150060,note_on,0,0,3,,,,,,,,,2,,,55,50
150060,note_on,0,0,7,,,,,,,,,6,,,67,50
150060,note_on,0,0,8,,,,,,,,,7,,,64,50
150060,note_on,60,0,8,,,,,,,,,7,,,66,0
150060,note_on,60,0,7,,,,,,,,,6,,,69,0
150120,note_on,0,0,3,,,,,,,,,2,,,52,0
150120,note_on,0,0,3,,,,,,,,,2,,,50,50
150120,note_on,0,0,3,,,,,,,,,2,,,54,50
150120,note_on,120,0,9,,,,,,,,,8,,,57,0
150120,note_on,60,0,3,,,,,,,,,2,,,55,0
150120,note_on,60,0,1,,,,,,,,,0,,,79,0
150120,note_on,0,0,1,,,,,,,,,0,,,76,0
150120,note_on,120,0,10,,,,,,,,,10,,,45,0
150120,note_on,120,0,11,,,,,,,,,11,,,33,0
150120,note_on,0,0,8,,,,,,,,,7,,,62,50
150120,note_on,60,0,8,,,,,,,,,7,,,64,0
150120,note_on,60,0,7,,,,,,,,,6,,,67,0
150120,note_on,0,0,7,,,,,,,,,6,,,66,50
150120,note_on,0,0,1,,,,,,,,,0,,,74,50
150120,note_on,0,0,1,,,,,,,,,0,,,78,50
150180,note_on,60,0,7,,,,,,,,,6,,,66,0
150180,note_on,0,0,7,,,,,,,,,6,,,64,50
150180,note_on,0,0,3,,,,,,,,,2,,,50,0
150180,note_on,0,0,3,,,,,,,,,2,,,49,50
150180,note_on,0,0,1,,,,,,,,,0,,,76,50
150180,note_on,0,0,1,,,,,,,,,0,,,73,50
150180,note_on,0,0,1,,,,,,,,,0,,,74,0
150180,note_on,60,0,3,,,,,,,,,2,,,54,0
150180,note_on,0,0,3,,,,,,,,,2,,,52,50
150180,note_on,0,0,8,,,,,,,,,7,,,61,50
150180,note_on,60,0,8,,,,,,,,,7,,,62,0
150180,note_on,60,0,1,,,,,,,,,0,,,78,0
150240,note_on,120,0,11,,,,,,,,,11,,,38,50
150240,note_on,60,0,1,,,,,,,,,0,,,76,0
150240,note_on,0,0,8,,,,,,,,,7,,,62,50
150240,note_on,60,0,8,,,,,,,,,7,,,61,0
150240,note_on,60,0,7,,,,,,,,,6,,,64,0
150240,note_on,6240,0,4,,,,,,,,,3,,,57,0
150240,note_on,0,0,4,,,,,,,,,3,,,45,0
150240,note_on,0,0,1,,,,,,,,,0,,,73,0
150240,note_on,0,0,4,,,,,,,,,3,,,50,50
150240,note_on,0,0,4,,,,,,,,,3,,,62,50
150240,note_on,0,0,3,,,,,,,,,2,,,50,50
150240,note_on,0,0,3,,,,,,,,,2,,,49,0
150240,note_on,60,0,3,,,,,,,,,2,,,52,0
150240,note_on,120,0,9,,,,,,,,,8,,,62,50
150240,note_on,0,0,7,,,,,,,,,6,,,62,50
150240,note_on,120,0,10,,,,,,,,,10,,,50,50
150240,note_on,0,0,1,,,,,,,,,0,,,74,50
150288,note_on,48,0,7,,,,,,,,,6,,,62,0
150300,note_on,12,0,7,,,,,,,,,6,,,62,50
150360,note_on,120,0,1,,,,,,,,,0,,,74,0
150360,note_on,120,0,11,,,,,,,,,11,,,38,0
150360,note_on,120,0,8,,,,,,,,,7,,,62,0
150360,note_on,120,0,10,,,,,,,,,10,,,50,0
150360,note_on,120,0,3,,,,,,,,,2,,,50,0
150360,note_on,120,0,9,,,,,,,,,8,,,62,0
150396,note_on,96,0,7,,,,,,,,,6,,,62,0
150420,note_on,24,0,7,,,,,,,,,6,,,62,50
150516,note_on,96,0,7,,,,,,,,,6,,,62,0
150540,note_on,24,0,7,,,,,,,,,6,,,62,50
150636,note_on,96,0,7,,,,,,,,,6,,,62,0
150660,note_on,24,0,7,,,,,,,,,6,,,62,50
150720,note_on,360,0,9,,,,,,,,,8,,,54,50
150720,note_on,360,0,11,,,,,,,,,11,,,42,50
150720,note_on,360,0,8,,,,,,,,,7,,,58,50
150720,note_on,360,0,10,,,,,,,,,10,,,54,50
150756,note_on,96,0,7,,,,,,,,,6,,,62,0
150780,note_on,24,0,7,,,,,,,,,6,,,62,50
150876,note_on,96,0,7,,,,,,,,,6,,,62,0
150900,note_on,24,0,7,,,,,,,,,6,,,62,50
150996,note_on,96,0,7,,,,,,,,,6,,,62,0
151020,note_on,24,0,7,,,,,,,,,6,,,62,50
151116,note_on,96,0,7,,,,,,,,,6,,,62,0
151140,note_on,24,0,7,,,,,,,,,6,,,62,50
151200,note_on,480,0,10,,,,,,,,,10,,,54,0
151200,note_on,0,0,10,,,,,,,,,10,,,55,50
151200,note_on,480,0,8,,,,,,,,,7,,,58,0
151200,note_on,0,0,8,,,,,,,,,7,,,59,50
151200,note_on,0,0,9,,,,,,,,,8,,,55,50
151200,note_on,480,0,11,,,,,,,,,11,,,42,0
151200,note_on,0,0,11,,,,,,,,,11,,,43,50
151200,note_on,480,0,9,,,,,,,,,8,,,54,0
151236,note_on,96,0,7,,,,,,,,,6,,,62,0
151260,note_on,24,0,7,,,,,,,,,6,,,62,50
151320,note_on,120,0,9,,,,,,,,,8,,,55,0
151320,note_on,0,0,9,,,,,,,,,8,,,57,65
151320,note_on,120,0,11,,,,,,,,,11,,,43,0
151320,note_on,0,0,11,,,,,,,,,11,,,45,65
151320,note_on,120,0,10,,,,,,,,,10,,,55,0
151320,note_on,0,0,10,,,,,,,,,10,,,57,65
151320,note_on,120,0,8,,,,,,,,,7,,,59,0
151320,note_on,0,0,8,,,,,,,,,7,,,60,65
151356,note_on,96,0,7,,,,,,,,,6,,,62,0
151380,note_on,24,0,7,,,,,,,,,6,,,62,50
151476,note_on,96,0,7,,,,,,,,,6,,,62,0
151500,note_on,24,0,7,,,,,,,,,6,,,62,50
151560,note_on,0,0,9,,,,,,,,,8,,,54,50
151560,note_on,240,0,10,,,,,,,,,10,,,57,0
151560,note_on,0,0,10,,,,,,,,,10,,,54,50
151560,note_on,0,0,11,,,,,,,,,11,,,42,50
151560,note_on,240,0,11,,,,,,,,,11,,,45,0
151560,note_on,240,0,9,,,,,,,,,8,,,57,0
151560,note_on,0,0,8,,,,,,,,,7,,,58,50
151560,note_on,240,0,8,,,,,,,,,7,,,60,0
151596,note_on,96,0,7,,,,,,,,,6,,,62,0
151620,note_on,24,0,7,,,,,,,,,6,,,62,50
151680,note_on,120,0,8,,,,,,,,,7,,,58,0
151680,note_on,120,0,10,,,,,,,,,10,,,54,0
151680,note_on,0,0,8,,,,,,,,,7,,,59,50
151680,note_on,0,0,9,,,,,,,,,8,,,55,50
151680,note_on,120,0,9,,,,,,,,,8,,,54,0
151680,note_on,0,0,10,,,,,,,,,10,,,55,50
151680,note_on,0,0,11,,,,,,,,,11,,,43,50
151680,note_on,120,0,11,,,,,,,,,11,,,42,0
151716,note_on,96,0,7,,,,,,,,,6,,,62,0
151740,note_on,24,0,7,,,,,,,,,6,,,62,50
151800,note_on,0,0,8,,,,,,,,,7,,,60,65
151800,note_on,120,0,11,,,,,,,,,11,,,43,0
151800,note_on,120,0,10,,,,,,,,,10,,,55,0
151800,note_on,120,0,9,,,,,,,,,8,,,55,0
151800,note_on,0,0,9,,,,,,,,,8,,,57,65
151800,note_on,120,0,8,,,,,,,,,7,,,59,0
151800,note_on,0,0,11,,,,,,,,,11,,,45,65
151800,note_on,0,0,10,,,,,,,,,10,,,57,65
151836,note_on,96,0,7,,,,,,,,,6,,,62,0
151860,note_on,24,0,7,,,,,,,,,6,,,62,50
151956,note_on,96,0,7,,,,,,,,,6,,,62,0
151980,note_on,24,0,7,,,,,,,,,6,,,62,50
152040,note_on,0,0,10,,,,,,,,,10,,,54,50
152040,note_on,240,0,8,,,,,,,,,7,,,60,0
152040,note_on,0,0,8,,,,,,,,,7,,,58,50
152040,note_on,0,0,11,,,,,,,,,11,,,42,50
152040,note_on,240,0,11,,,,,,,,,11,,,45,0
152040,note_on,240,0,10,,,,,,,,,10,,,57,0
152040,note_on,0,0,9,,,,,,,,,8,,,54,50
152040,note_on,240,0,9,,,,,,,,,8,,,57,0
152076,note_on,96,0,7,,,,,,,,,6,,,62,0
152100,note_on,24,0,7,,,,,,,,,6,,,62,50
152160,note_on,0,0,9,,,,,,,,,8,,,55,50
152160,note_on,120,0,8,,,,,,,,,7,,,58,0
152160,note_on,120,0,9,,,,,,,,,8,,,54,0
152160,note_on,120,0,10,,,,,,,,,10,,,54,0
152160,note_on,120,0,11,,,,,,,,,11,,,42,0
152160,note_on,0,0,11,,,,,,,,,11,,,43,50
152160,note_on,0,0,10,,,,,,,,,10,,,55,50
152160,note_on,0,0,8,,,,,,,,,7,,,59,50
152196,note_on,96,0,7,,,,,,,,,6,,,62,0
152220,note_on,24,0,7,,,,,,,,,6,,,62,52
152260,note_on,40,0,7,,,,,,,,,6,,,62,0
152280,note_on,20,0,7,,,,,,,,,6,,,62,55
152320,note_on,40,0,7,,,,,,,,,6,,,62,0
152340,note_on,20,0,7,,,,,,,,,6,,,62,57
152380,note_on,40,0,7,,,,,,,,,6,,,62,0
152400,note_on,0,0,9,,,,,,,,,8,,,54,53
152400,note_on,240,0,9,,,,,,,,,8,,,55,0
152400,note_on,0,0,8,,,,,,,,,7,,,57,53
152400,note_on,20,0,7,,,,,,,,,6,,,62,60
152400,note_on,0,0,10,,,,,,,,,10,,,54,53
152400,note_on,240,0,10,,,,,,,,,10,,,55,0
152400,note_on,0,0,11,,,,,,,,,11,,,42,53
152400,note_on,240,0,11,,,,,,,,,11,,,43,0
152400,note_on,240,0,8,,,,,,,,,7,,,59,0
152440,note_on,40,0,7,,,,,,,,,6,,,62,0
152460,note_on,20,0,7,,,,,,,,,6,,,62,62
152500,note_on,40,0,7,,,,,,,,,6,,,62,0
152520,note_on,20,0,7,,,,,,,,,6,,,62,65
152570,note_on,50,0,7,,,,,,,,,6,,,62,0
152580,note_on,10,0,7,,,,,,,,,6,,,64,67
152610,note_on,0,0,7,,,,,,,,,6,,,66,68
152610,note_on,30,0,7,,,,,,,,,6,,,64,0
152640,note_on,240,0,11,,,,,,,,,11,,,42,0
152640,note_on,0,0,11,,,,,,,,,11,,,40,57
152640,note_on,240,0,10,,,,,,,,,10,,,54,0
152640,note_on,0,0,10,,,,,,,,,10,,,52,57
152640,note_on,240,0,8,,,,,,,,,7,,,57,0
152640,note_on,0,0,8,,,,,,,,,7,,,59,57
152640,note_on,2400,0,4,,,,,,,,,3,,,62,0
152640,note_on,0,0,7,,,,,,,,,6,,,67,50
152640,note_on,0,0,4,,,,,,,,,3,,,50,0
152640,note_on,240,0,9,,,,,,,,,8,,,54,0
152640,note_on,0,0,9,,,,,,,,,8,,,52,57
152640,note_on,0,0,4,,,,,,,,,3,,,50,50
152640,note_on,0,0,4,,,,,,,,,3,,,62,50
152640,note_on,30,0,7,,,,,,,,,6,,,66,0
152680,note_on,40,0,7,,,,,,,,,6,,,67,0
152700,note_on,20,0,7,,,,,,,,,6,,,67,52
152740,note_on,40,0,7,,,,,,,,,6,,,67,0
152760,note_on,20,0,7,,,,,,,,,6,,,67,55
152800,note_on,40,0,7,,,,,,,,,6,,,67,0
152820,note_on,20,0,7,,,,,,,,,6,,,67,57
152860,note_on,40,0,7,,,,,,,,,6,,,67,0
152880,note_on,0,0,11,,,,,,,,,11,,,33,61
152880,note_on,0,0,4,,,,,,,,,3,,,57,50
152880,note_on,20,0,7,,,,,,,,,6,,,67,60
152880,note_on,0,0,10,,,,,,,,,10,,,45,61
152880,note_on,240,0,10,,,,,,,,,10,,,52,0
152880,note_on,0,0,4,,,,,,,,,3,,,50,0
152880,note_on,240,0,4,,,,,,,,,3,,,62,0
152880,note_on,240,0,8,,,,,,,,,7,,,59,0
152880,note_on,0,0,8,,,,,,,,,7,,,61,61
152880,note_on,0,0,4,,,,,,,,,3,,,64,50
152880,note_on,240,0,11,,,,,,,,,11,,,40,0
152920,note_on,40,0,7,,,,,,,,,6,,,67,0
152940,note_on,20,0,7,,,,,,,,,6,,,67,62
152980,note_on,40,0,7,,,,,,,,,6,,,67,0
153000,note_on,20,0,7,,,,,,,,,6,,,69,65
153030,note_on,0,0,7,,,,,,,,,6,,,67,66
153030,note_on,30,0,7,,,,,,,,,6,,,69,0
153060,note_on,0,0,7,,,,,,,,,6,,,66,67
153060,note_on,30,0,7,,,,,,,,,6,,,67,0
153090,note_on,0,0,7,,,,,,,,,6,,,67,68
153090,note_on,30,0,7,,,,,,,,,6,,,66,0
153120,note_on,2760,0,3,,,,,,,,,2,,,50,100
153120,note_on,240,0,10,,,,,,,,,10,,,45,0
153120,note_on,0,0,10,,,,,,,,,10,,,50,65
153120,note_on,30,0,7,,,,,,,,,6,,,67,0
153120,note_on,240,0,8,,,,,,,,,7,,,61,0
153120,note_on,0,0,8,,,,,,,,,7,,,62,65
153120,note_on,0,0,9,,,,,,,,,8,,,50,65
153120,note_on,11880,0,5,,,,,,,,,4,,,66,100
153120,note_on,480,0,9,,,,,,,,,8,,,52,0
153120,note_on,0,0,2,,,,,,,,,1,,,74,100
153120,note_on,7080,0,2,,,,,,,,,1,,,69,100
153120,note_on,0,0,4,,,,,,,,,3,,,62,100
153120,note_on,0,0,4,,,,,,,,,3,,,50,100
153120,note_on,0,0,4,,,,,,,,,3,,,64,0
153120,note_on,240,0,4,,,,,,,,,3,,,57,0
153120,note_on,2760,0,1,,,,,,,,,0,,,69,100
153120,note_on,0,0,1,,,,,,,,,0,,,74,100
153120,note_on,0,0,11,,,,,,,,,11,,,38,65
153120,note_on,240,0,11,,,,,,,,,11,,,33,0
153120,note_on,11880,0,6,,,,,,,,,5,,,50,100
153120,marker,12000,1,0,,,,,,,,,,,,,
153120,note_on,0,0,7,,,,,,,,,6,,,66,70
153120,note_on,0,0,5,,,,,,,,,4,,,74,100
153240,note_on,120,0,8,,,,,,,,,7,,,62,0
153240,note_on,120,0,10,,,,,,,,,10,,,50,0
153240,note_on,120,0,7,,,,,,,,,6,,,66,0
153240,note_on,120,0,3,,,,,,,,,2,,,50,0
153240,note_on,120,0,9,,,,,,,,,8,,,50,0
153240,note_on,0,0,4,,,,,,,,,3,,,50,0
153240,note_on,0,0,4,,,,,,,,,3,,,45,100
153240,note_on,0,0,4,,,,,,,,,3,,,57,100
153240,note_on,0,0,3,,,,,,,,,2,,,45,100
153240,note_on,120,0,4,,,,,,,,,3,,,62,0
153240,note_on,120,0,11,,,,,,,,,11,,,38,0
153330,note_on,0,0,4,,,,,,,,,3,,,45,0
153330,note_on,0,0,4,,,,,,,,,3,,,50,100
153330,note_on,0,0,4,,,,,,,,,3,,,62,100
153330,note_on,90,0,4,,,,,,,,,3,,,57,0
153330,note_on,0,0,3,,,,,,,,,2,,,50,100
153330,note_on,90,0,3,,,,,,,,,2,,,45,0
153360,note_on,240,0,5,,,,,,,,,4,,,74,0
153360,note_on,240,0,2,,,,,,,,,1,,,74,0
153360,note_on,0,0,3,,,,,,,,,2,,,54,100
153360,note_on,0,0,5,,,,,,,,,4,,,66,0
153360,note_on,30,0,3,,,,,,,,,2,,,50,0
153360,note_on,0,0,2,,,,,,,,,1,,,69,0
153360,note_on,0,0,2,,,,,,,,,1,,,78,100
153360,note_on,0,0,2,,,,,,,,,1,,,86,100
153360,note_on,0,0,6,,,,,,,,,5,,,50,100
153360,note_on,240,0,6,,,,,,,,,5,,,50,0
153360,note_on,0,0,5,,,,,,,,,4,,,62,100
153360,note_on,30,0,4,,,,,,,,,3,,,62,0
153360,note_on,0,0,4,,,,,,,,,3,,,66,100
153360,note_on,0,0,4,,,,,,,,,3,,,54,100
153360,note_on,0,0,4,,,,,,,,,3,,,50,0
153360,note_on,0,0,5,,,,,,,,,4,,,78,100
153360,note_on,0,0,1,,,,,,,,,0,,,86,100
153360,note_on,0,0,1,,,,,,,,,0,,,78,100
153360,note_on,0,0,1,,,,,,,,,0,,,69,0
153360,note_on,240,0,1,,,,,,,,,0,,,74,0
153480,note_on,0,0,3,,,,,,,,,2,,,50,100
153480,note_on,120,0,3,,,,,,,,,2,,,54,0
153480,note_on,120,0,4,,,,,,,,,3,,,66,0
153480,note_on,0,0,4,,,,,,,,,3,,,54,0
153480,note_on,0,0,4,,,,,,,,,3,,,50,100
153480,note_on,0,0,4,,,,,,,,,3,,,62,100
153540,note_on,0,0,5,,,,,,,,,4,,,62,0
153540,note_on,0,0,5,,,,,,,,,4,,,66,100
153540,note_on,180,0,5,,,,,,,,,4,,,78,0
153540,note_on,0,0,5,,,,,,,,,4,,,74,100
153540,note_on,180,0,6,,,,,,,,,5,,,50,0
153540,note_on,0,0,6,,,,,,,,,5,,,50,100
153570,note_on,90,0,3,,,,,,,,,2,,,50,0
153570,note_on,0,0,3,,,,,,,,,2,,,54,100
153570,note_on,0,0,4,,,,,,,,,3,,,66,100
153570,note_on,0,0,4,,,,,,,,,3,,,54,100
153570,note_on,0,0,4,,,,,,,,,3,,,50,0
153570,note_on,90,0,4,,,,,,,,,3,,,62,0
153600,note_on,60,0,6,,,,,,,,,5,,,50,0
153600,note_on,0,0,4,,,,,,,,,3,,,54,0
153600,note_on,30,0,4,,,,,,,,,3,,,66,0
153600,note_on,0,0,6,,,,,,,,,5,,,45,100
153600,note_on,0,0,2,,,,,,,,,1,,,74,100
153600,note_on,0,0,4,,,,,,,,,3,,,69,100
153600,note_on,0,0,5,,,,,,,,,4,,,69,100
153600,note_on,0,0,4,,,,,,,,,3,,,57,100
153600,note_on,30,0,3,,,,,,,,,2,,,54,0
153600,note_on,0,0,5,,,,,,,,,4,,,66,0
153600,note_on,0,0,3,,,,,,,,,2,,,57,100
153600,note_on,240,0,2,,,,,,,,,1,,,78,0
153600,note_on,60,0,5,,,,,,,,,4,,,74,0
153660,note_on,60,0,6,,,,,,,,,5,,,45,0
153660,note_on,0,0,1,,,,,,,,,0,,,76,100
153660,note_on,0,0,1,,,,,,,,,0,,,85,100
153660,note_on,300,0,1,,,,,,,,,0,,,78,0
153660,note_on,0,0,2,,,,,,,,,1,,,85,100
153660,note_on,0,0,2,,,,,,,,,1,,,86,0
153660,note_on,60,0,2,,,,,,,,,1,,,74,0
153660,note_on,0,0,1,,,,,,,,,0,,,86,0
153660,note_on,0,0,2,,,,,,,,,1,,,76,100
153690,note_on,90,0,5,,,,,,,,,4,,,69,0
153690,note_on,30,0,1,,,,,,,,,0,,,85,0
153690,note_on,0,0,1,,,,,,,,,0,,,76,0
153690,note_on,0,0,2,,,,,,,,,1,,,76,0
153690,note_on,30,0,2,,,,,,,,,1,,,85,0
153720,note_on,30,0,1,,,,,,,,,0,,,79,100
153720,note_on,30,0,5,,,,,,,,,4,,,69,100
153720,note_on,0,0,1,,,,,,,,,0,,,83,100
153720,note_on,0,0,2,,,,,,,,,1,,,83,100
153720,note_on,60,0,6,,,,,,,,,5,,,45,100
153720,note_on,30,0,2,,,,,,,,,1,,,79,100
153750,note_on,30,0,2,,,,,,,,,1,,,83,0
153750,note_on,0,0,2,,,,,,,,,1,,,79,0
153750,note_on,0,0,1,,,,,,,,,0,,,79,0
153750,note_on,30,0,1,,,,,,,,,0,,,83,0
153780,note_on,0,0,1,,,,,,,,,0,,,81,100
153780,note_on,30,0,2,,,,,,,,,1,,,78,100
153780,note_on,0,0,2,,,,,,,,,1,,,81,100
153780,note_on,60,0,6,,,,,,,,,5,,,45,0
153780,note_on,30,0,1,,,,,,,,,0,,,78,100
153810,note_on,30,0,1,,,,,,,,,0,,,81,0
153810,note_on,0,0,2,,,,,,,,,1,,,78,0
153810,note_on,30,0,2,,,,,,,,,1,,,81,0
153810,note_on,90,0,5,,,,,,,,,4,,,69,0
153810,note_on,0,0,1,,,,,,,,,0,,,78,0
153840,note_on,240,0,4,,,,,,,,,3,,,69,0
153840,note_on,0,0,2,,,,,,,,,1,,,81,100
153840,note_on,30,0,2,,,,,,,,,1,,,78,100
153840,note_on,0,0,4,,,,,,,,,3,,,57,0
153840,note_on,0,0,1,,,,,,,,,0,,,81,100
153840,note_on,0,0,4,,,,,,,,,3,,,45,100
153840,note_on,0,0,4,,,,,,,,,3,,,57,100
153840,note_on,30,0,1,,,,,,,,,0,,,78,100
153840,note_on,30,0,5,,,,,,,,,4,,,69,100
153840,note_on,0,0,3,,,,,,,,,2,,,45,100
153840,note_on,240,0,3,,,,,,,,,2,,,57,0
153840,note_on,60,0,6,,,,,,,,,5,,,45,100
153900,note_on,60,0,6,,,,,,,,,5,,,45,0
153900,note_on,0,0,2,,,,,,,,,1,,,76,100
153900,note_on,0,0,1,,,,,,,,,0,,,78,0
153900,note_on,60,0,1,,,,,,,,,0,,,81,0
153900,note_on,60,0,2,,,,,,,,,1,,,81,0
153900,note_on,0,0,1,,,,,,,,,0,,,79,100
153900,note_on,0,0,1,,,,,,,,,0,,,76,100
153900,note_on,0,0,2,,,,,,,,,1,,,79,100
153900,note_on,0,0,2,,,,,,,,,1,,,78,0
153930,note_on,90,0,5,,,,,,,,,4,,,69,0
153930,note_on,0,0,1,,,,,,,,,0,,,76,0
153930,note_on,30,0,1,,,,,,,,,0,,,79,0
153930,note_on,30,0,2,,,,,,,,,1,,,76,0
153930,note_on,0,0,2,,,,,,,,,1,,,79,0
153960,note_on,30,0,5,,,,,,,,,4,,,69,100
153960,note_on,0,0,2,,,,,,,,,1,,,74,100
153960,note_on,0,0,1,,,,,,,,,0,,,78,100
153960,note_on,30,0,1,,,,,,,,,0,,,74,100
153960,note_on,30,0,2,,,,,,,,,1,,,78,100
153960,note_on,60,0,6,,,,,,,,,5,,,45,100
153990,note_on,30,0,1,,,,,,,,,0,,,78,0
153990,note_on,0,0,2,,,,,,,,,1,,,78,0
153990,note_on,30,0,2,,,,,,,,,1,,,74,0
153990,note_on,0,0,1,,,,,,,,,0,,,74,0
154020,note_on,60,0,6,,,,,,,,,5,,,45,0
154020,note_on,30,0,1,,,,,,,,,0,,,73,100
154020,note_on,0,0,1,,,,,,,,,0,,,76,100
154020,note_on,30,0,2,,,,,,,,,1,,,76,100
154020,note_on,0,0,2,,,,,,,,,1,,,73,100
154050,note_on,0,0,2,,,,,,,,,1,,,76,0
154050,note_on,30,0,2,,,,,,,,,1,,,73,0
154050,note_on,90,0,5,,,,,,,,,4,,,69,0
154050,note_on,0,0,1,,,,,,,,,0,,,73,0
154050,note_on,30,0,1,,,,,,,,,0,,,76,0
154080,note_on,60,0,6,,,,,,,,,5,,,50,100
154080,note_on,240,0,4,,,,,,,,,3,,,57,0
154080,note_on,0,0,4,,,,,,,,,3,,,45,0
154080,note_on,840,0,7,,,,,,,,,6,,,62,50
154080,note_on,0,0,4,,,,,,,,,3,,,62,50
154080,note_on,0,0,4,,,,,,,,,3,,,50,50
154080,note_on,0,0,5,,,,,,,,,4,,,66,100
154080,note_on,30,0,5,,,,,,,,,4,,,62,100
154080,note_on,0,0,3,,,,,,,,,2,,,50,100
154080,note_on,30,0,1,,,,,,,,,0,,,74,100
154080,note_on,240,0,3,,,,,,,,,2,,,45,0
154080,note_on,30,0,2,,,,,,,,,1,,,74,100
154128,note_on,48,0,7,,,,,,,,,6,,,62,0
154140,note_on,60,0,6,,,,,,,,,5,,,50,0
154140,note_on,12,0,7,,,,,,,,,6,,,62,50
154170,note_on,0,0,5,,,,,,,,,4,,,62,0
154170,note_on,90,0,5,,,,,,,,,4,,,66,0
154200,note_on,120,0,2,,,,,,,,,1,,,74,0
154200,note_on,120,0,1,,,,,,,,,0,,,74,0
154200,note_on,120,0,3,,,,,,,,,2,,,50,0
154236,note_on,96,0,7,,,,,,,,,6,,,62,0
154260,note_on,24,0,7,,,,,,,,,6,,,62,50
154356,note_on,96,0,7,,,,,,,,,6,,,62,0
154380,note_on,24,0,7,,,,,,,,,6,,,62,50
154476,note_on,96,0,7,,,,,,,,,6,,,62,0
154500,note_on,24,0,7,,,,,,,,,6,,,62,50
154560,note_on,1320,0,11,,,,,,,,,11,,,42,50
154560,note_on,1320,0,10,,,,,,,,,10,,,54,50
154560,note_on,360,0,2,,,,,,,,,1,,,84,70
154560,note_on,1320,0,8,,,,,,,,,7,,,57,50
154560,note_on,1320,0,9,,,,,,,,,8,,,54,50
154596,note_on,96,0,7,,,,,,,,,6,,,62,0
154620,note_on,24,0,7,,,,,,,,,6,,,62,50
154716,note_on,96,0,7,,,,,,,,,6,,,62,0
154740,note_on,24,0,7,,,,,,,,,6,,,62,50
154836,note_on,96,0,7,,,,,,,,,6,,,62,0
154860,note_on,24,0,7,,,,,,,,,6,,,62,50
154956,note_on,96,0,7,,,,,,,,,6,,,62,0
154980,note_on,24,0,7,,,,,,,,,6,,,62,50
155040,note_on,480,0,8,,,,,,,,,7,,,57,0
155040,note_on,0,0,8,,,,,,,,,7,,,59,50
155040,note_on,480,0,9,,,,,,,,,8,,,54,0
155040,note_on,0,0,11,,,,,,,,,11,,,43,50
155040,note_on,0,0,2,,,,,,,,,1,,,82,70
155040,note_on,480,0,11,,,,,,,,,11,,,42,0
155040,note_on,0,0,9,,,,,,,,,8,,,55,50
155040,note_on,480,0,10,,,,,,,,,10,,,54,0
155040,note_on,0,0,10,,,,,,,,,10,,,55,50
155040,note_on,480,0,2,,,,,,,,,1,,,84,0
155076,note_on,96,0,7,,,,,,,,,6,,,62,0
155100,note_on,24,0,7,,,,,,,,,6,,,62,50
155100,note_on,0,0,2,,,,,,,,,1,,,79,70
155100,note_on,60,0,2,,,,,,,,,1,,,82,0
155160,note_on,0,0,2,,,,,,,,,1,,,78,70
155160,note_on,60,0,2,,,,,,,,,1,,,79,0
155160,note_on,0,0,9,,,,,,,,,8,,,57,65
155160,note_on,0,0,8,,,,,,,,,7,,,60,65
155160,note_on,120,0,8,,,,,,,,,7,,,59,0
155160,note_on,0,0,11,,,,,,,,,11,,,45,65
155160,note_on,120,0,9,,,,,,,,,8,,,55,0
155160,note_on,0,0,10,,,,,,,,,10,,,57,65
155160,note_on,120,0,10,,,,,,,,,10,,,55,0
155160,note_on,120,0,11,,,,,,,,,11,,,43,0
155196,note_on,96,0,7,,,,,,,,,6,,,62,0
155220,note_on,24,0,7,,,,,,,,,6,,,62,50
155316,note_on,96,0,7,,,,,,,,,6,,,62,0
155340,note_on,24,0,7,,,,,,,,,6,,,62,50
155400,note_on,0,0,2,,,,,,,,,1,,,84,70
155400,note_on,240,0,2,,,,,,,,,1,,,78,0
155400,note_on,240,0,9,,,,,,,,,8,,,57,0
155400,note_on,0,0,10,,,,,,,,,10,,,54,50
155400,note_on,240,0,10,,,,,,,,,10,,,57,0
155400,note_on,240,0,8,,,,,,,,,7,,,60,0
155400,note_on,0,0,9,,,,,,,,,8,,,54,50
155400,note_on,240,0,11,,,,,,,,,11,,,45,0
155400,note_on,0,0,11,,,,,,,,,11,,,42,50
155400,note_on,0,0,8,,,,,,,,,7,,,57,50
155436,note_on,96,0,7,,,,,,,,,6,,,62,0
155460,note_on,24,0,7,,,,,,,,,6,,,62,50
155520,note_on,120,0,2,,,,,,,,,1,,,84,0
155520,note_on,120,0,11,,,,,,,,,11,,,42,0
155520,note_on,0,0,2,,,,,,,,,1,,,82,70
155520,note_on,0,0,11,,,,,,,,,11,,,43,50
155520,note_on,0,0,9,,,,,,,,,8,,,55,50
155520,note_on,120,0,9,,,,,,,,,8,,,54,0
155520,note_on,0,0,8,,,,,,,,,7,,,59,50
155520,note_on,120,0,8,,,,,,,,,7,,,57,0
155520,note_on,0,0,10,,,,,,,,,10,,,55,50
155520,note_on,120,0,10,,,,,,,,,10,,,54,0
155556,note_on,96,0,7,,,,,,,,,6,,,62,0
155580,note_on,24,0,7,,,,,,,,,6,,,62,50
155580,note_on,60,0,2,,,,,,,,,1,,,82,0
155580,note_on,0,0,2,,,,,,,,,1,,,79,70
155640,note_on,0,0,11,,,,,,,,,11,,,45,65
155640,note_on,120,0,11,,,,,,,,,11,,,43,0
155640,note_on,120,0,9,,,,,,,,,8,,,55,0
155640,note_on,0,0,8,,,,,,,,,7,,,60,65
155640,note_on,0,0,10,,,,,,,,,10,,,57,65
155640,note_on,120,0,10,,,,,,,,,10,,,55,0
155640,note_on,0,0,2,,,,,,,,,1,,,78,70
155640,note_on,60,0,2,,,,,,,,,1,,,79,0
155640,note_on,0,0,9,,,,,,,,,8,,,57,65
155640,note_on,120,0,8,,,,,,,,,7,,,59,0
155676,note_on,96,0,7,,,,,,,,,6,,,62,0
155700,note_on,24,0,7,,,,,,,,,6,,,62,50
155796,note_on,96,0,7,,,,,,,,,6,,,62,0
155820,note_on,24,0,7,,,,,,,,,6,,,62,50
155880,note_on,0,0,9,,,,,,,,,8,,,54,50
155880,note_on,240,0,9,,,,,,,,,8,,,57,0
155880,note_on,0,0,11,,,,,,,,,11,,,42,50
155880,note_on,240,0,11,,,,,,,,,11,,,45,0
155880,note_on,240,0,8,,,,,,,,,7,,,60,0
155880,note_on,0,0,2,,,,,,,,,1,,,84,70
155880,note_on,240,0,2,,,,,,,,,1,,,78,0
155880,note_on,240,0,10,,,,,,,,,10,,,57,0
155880,note_on,0,0,10,,,,,,,,,10,,,54,50
155880,note_on,0,0,8,,,,,,,,,7,,,57,50
155916,note_on,96,0,7,,,,,,,,,6,,,62,0
155940,note_on,24,0,7,,,,,,,,,6,,,62,50
156000,note_on,0,0,8,,,,,,,,,7,,,58,50
156000,note_on,120,0,8,,,,,,,,,7,,,57,0
156000,note_on,120,0,9,,,,,,,,,8,,,54,0
156000,note_on,0,0,2,,,,,,,,,1,,,82,70
156000,note_on,120,0,2,,,,,,,,,1,,,84,0
156000,note_on,120,0,10,,,,,,,,,10,,,54,0
156000,note_on,0,0,10,,,,,,,,,10,,,55,50
156000,note_on,120,0,11,,,,,,,,,11,,,42,0
156000,note_on,0,0,11,,,,,,,,,11,,,43,50
156000,note_on,0,0,9,,,,,,,,,8,,,55,50
156036,note_on,96,0,7,,,,,,,,,6,,,62,0
156060,note_on,24,0,7,,,,,,,,,6,,,62,50
156120,note_on,120,0,9,,,,,,,,,8,,,55,0
156120,note_on,2040,0,4,,,,,,,,,3,,,62,0
156120,note_on,0,0,4,,,,,,,,,3,,,50,0
156156,note_on,96,0,7,,,,,,,,,6,,,62,0
156180,note_on,24,0,7,,,,,,,,,6,,,62,50
156240,note_on,0,0,11,,,,,,,,,11,,,42,50
156240,note_on,240,0,10,,,,,,,,,10,,,55,0
156240,note_on,0,0,10,,,,,,,,,10,,,54,50
156240,note_on,240,0,11,,,,,,,,,11,,,43,0
156276,note_on,96,0,7,,,,,,,,,6,,,62,0
156300,note_on,24,0,7,,,,,,,,,6,,,63,50
156396,note_on,96,0,7,,,,,,,,,6,,,63,0
156420,note_on,24,0,7,,,,,,,,,6,,,64,50
156460,note_on,40,0,7,,,,,,,,,6,,,64,0
156480,note_on,20,0,7,,,,,,,,,6,,,65,50
156480,note_on,0,0,10,,,,,,,,,10,,,53,50
156480,note_on,240,0,10,,,,,,,,,10,,,54,0
156480,note_on,0,0,11,,,,,,,,,11,,,41,50
156480,note_on,480,0,2,,,,,,,,,1,,,82,0
156480,note_on,0,0,2,,,,,,,,,1,,,72,50
156480,note_on,0,0,2,,,,,,,,,1,,,81,50
156480,note_on,360,0,9,,,,,,,,,8,,,57,50
156480,note_on,2280,0,3,,,,,,,,,2,,,65,50
156480,note_on,0,0,3,,,,,,,,,2,,,53,50
156480,note_on,240,0,11,,,,,,,,,11,,,42,0
156480,note_on,0,0,1,,,,,,,,,0,,,77,70
156480,note_on,2280,0,1,,,,,,,,,0,,,87,70
156480,note_on,480,0,8,,,,,,,,,7,,,58,0
156480,note_on,0,0,8,,,,,,,,,7,,,60,50
156520,note_on,40,0,7,,,,,,,,,6,,,65,0
156540,note_on,20,0,7,,,,,,,,,6,,,65,50
156636,note_on,96,0,7,,,,,,,,,6,,,65,0
156660,note_on,24,0,7,,,,,,,,,6,,,65,50
156756,note_on,96,0,7,,,,,,,,,6,,,65,0
156780,note_on,24,0,7,,,,,,,,,6,,,65,50
156876,note_on,96,0,7,,,,,,,,,6,,,65,0
156900,note_on,24,0,7,,,,,,,,,6,,,65,50
156960,note_on,0,0,2,,,,,,,,,1,,,72,0
156960,note_on,480,0,1,,,,,,,,,0,,,87,0
156960,note_on,0,0,1,,,,,,,,,0,,,86,70
156960,note_on,480,0,2,,,,,,,,,1,,,81,0
156960,note_on,0,0,8,,,,,,,,,7,,,62,50
156960,note_on,0,0,2,,,,,,,,,1,,,82,50
156960,note_on,0,0,2,,,,,,,,,1,,,74,50
156960,note_on,0,0,9,,,,,,,,,8,,,58,50
156960,note_on,480,0,9,,,,,,,,,8,,,57,0
156960,note_on,480,0,8,,,,,,,,,7,,,60,0
156996,note_on,96,0,7,,,,,,,,,6,,,65,0
157020,note_on,0,0,1,,,,,,,,,0,,,82,70
157020,note_on,60,0,1,,,,,,,,,0,,,86,0
157020,note_on,24,0,7,,,,,,,,,6,,,65,50
157080,note_on,120,0,8,,,,,,,,,7,,,62,0
157080,note_on,120,0,9,,,,,,,,,8,,,58,0
157080,note_on,0,0,2,,,,,,,,,1,,,84,65
157080,note_on,0,0,8,,,,,,,,,7,,,63,65
157080,note_on,60,0,1,,,,,,,,,0,,,82,0
157080,note_on,0,0,1,,,,,,,,,0,,,81,70
157080,note_on,0,0,2,,,,,,,,,1,,,75,65
157080,note_on,120,0,2,,,,,,,,,1,,,74,0
157080,note_on,0,0,2,,,,,,,,,1,,,82,0
157080,note_on,0,0,9,,,,,,,,,8,,,60,65
157116,note_on,96,0,7,,,,,,,,,6,,,65,0
157140,note_on,24,0,7,,,,,,,,,6,,,65,50
157236,note_on,96,0,7,,,,,,,,,6,,,65,0
157260,note_on,24,0,7,,,,,,,,,6,,,65,50
157320,note_on,240,0,9,,,,,,,,,8,,,60,0
157320,note_on,0,0,9,,,,,,,,,8,,,57,50
157320,note_on,240,0,2,,,,,,,,,1,,,75,0
157320,note_on,0,0,2,,,,,,,,,1,,,81,50
157320,note_on,0,0,2,,,,,,,,,1,,,72,50
157320,note_on,0,0,8,,,,,,,,,7,,,60,50
157320,note_on,0,0,1,,,,,,,,,0,,,87,70
157320,note_on,240,0,1,,,,,,,,,0,,,81,0
157320,note_on,240,0,8,,,,,,,,,7,,,63,0
157320,note_on,0,0,2,,,,,,,,,1,,,84,0
157356,note_on,96,0,7,,,,,,,,,6,,,65,0
157380,note_on,24,0,7,,,,,,,,,6,,,65,50
157440,note_on,120,0,9,,,,,,,,,8,,,57,0
157440,note_on,0,0,2,,,,,,,,,1,,,72,0
157440,note_on,0,0,2,,,,,,,,,1,,,82,50
157440,note_on,0,0,2,,,,,,,,,1,,,74,50
157440,note_on,0,0,9,,,,,,,,,8,,,58,50
157440,note_on,120,0,8,,,,,,,,,7,,,60,0
157440,note_on,120,0,2,,,,,,,,,1,,,81,0
157440,note_on,0,0,8,,,,,,,,,7,,,62,50
157440,note_on,120,0,1,,,,,,,,,0,,,87,0
157440,note_on,0,0,1,,,,,,,,,0,,,86,70
157476,note_on,96,0,7,,,,,,,,,6,,,65,0
157500,note_on,24,0,7,,,,,,,,,6,,,65,50
157500,note_on,0,0,1,,,,,,,,,0,,,82,70
157500,note_on,60,0,1,,,,,,,,,0,,,86,0
157560,note_on,120,0,9,,,,,,,,,8,,,58,0
157560,note_on,120,0,2,,,,,,,,,1,,,74,0
157560,note_on,0,0,2,,,,,,,,,1,,,82,0
157560,note_on,0,0,2,,,,,,,,,1,,,75,65
157560,note_on,0,0,2,,,,,,,,,1,,,84,65
157560,note_on,0,0,8,,,,,,,,,7,,,63,65
157560,note_on,120,0,8,,,,,,,,,7,,,62,0
157560,note_on,60,0,1,,,,,,,,,0,,,82,0
157560,note_on,0,0,1,,,,,,,,,0,,,81,70
157560,note_on,0,0,9,,,,,,,,,8,,,60,65
157596,note_on,96,0,7,,,,,,,,,6,,,65,0
157620,note_on,24,0,7,,,,,,,,,6,,,65,50
157716,note_on,96,0,7,,,,,,,,,6,,,65,0
157740,note_on,24,0,7,,,,,,,,,6,,,65,50
157800,note_on,0,0,2,,,,,,,,,1,,,81,50
157800,note_on,0,0,8,,,,,,,,,7,,,60,50
157800,note_on,0,0,2,,,,,,,,,1,,,72,50
157800,note_on,0,0,9,,,,,,,,,8,,,57,50
157800,note_on,240,0,2,,,,,,,,,1,,,84,0
157800,note_on,240,0,9,,,,,,,,,8,,,60,0
157800,note_on,240,0,8,,,,,,,,,7,,,63,0
157800,note_on,240,0,1,,,,,,,,,0,,,81,0
157800,note_on,0,0,1,,,,,,,,,0,,,87,70
157800,note_on,0,0,2,,,,,,,,,1,,,75,0
157836,note_on,96,0,7,,,,,,,,,6,,,65,0
157860,note_on,24,0,7,,,,,,,,,6,,,65,50
157920,note_on,0,0,2,,,,,,,,,1,,,82,50
157920,note_on,0,0,2,,,,,,,,,1,,,72,0
157920,note_on,120,0,2,,,,,,,,,1,,,81,0
157920,note_on,1440,0,10,,,,,,,,,10,,,53,0
157920,note_on,1440,0,11,,,,,,,,,11,,,41,0
157920,note_on,0,0,2,,,,,,,,,1,,,74,50
157920,note_on,0,0,10,,,,,,,,,10,,,58,50
157920,note_on,0,0,9,,,,,,,,,8,,,58,50
157920,note_on,0,0,3,,,,,,,,,2,,,58,50
157920,note_on,0,0,3,,,,,,,,,2,,,65,0
157920,note_on,120,0,8,,,,,,,,,7,,,60,0
157920,note_on,0,0,1,,,,,,,,,0,,,86,70
157920,note_on,120,0,1,,,,,,,,,0,,,87,0
157920,note_on,0,0,8,,,,,,,,,7,,,62,50
157920,note_on,1440,0,3,,,,,,,,,2,,,53,0
157920,note_on,120,0,9,,,,,,,,,8,,,57,0
157956,note_on,96,0,7,,,,,,,,,6,,,65,0
157980,note_on,24,0,7,,,,,,,,,6,,,65,50
158020,note_on,40,0,7,,,,,,,,,6,,,65,0
158040,note_on,20,0,7,,,,,,,,,6,,,65,50
158040,note_on,120,0,2,,,,,,,,,1,,,74,0
158040,note_on,0,0,2,,,,,,,,,1,,,82,0
158080,note_on,40,0,7,,,,,,,,,6,,,65,0
158100,note_on,20,0,7,,,,,,,,,6,,,65,50
158140,note_on,40,0,7,,,,,,,,,6,,,65,0
158160,note_on,240,0,8,,,,,,,,,7,,,62,0
158160,note_on,0,0,8,,,,,,,,,7,,,65,50
158160,note_on,240,0,1,,,,,,,,,0,,,86,0
158160,note_on,0,0,9,,,,,,,,,8,,,60,50
158160,note_on,0,0,3,,,,,,,,,2,,,57,50
158160,note_on,0,0,10,,,,,,,,,10,,,57,50
158160,note_on,240,0,3,,,,,,,,,2,,,58,0
158160,note_on,240,0,10,,,,,,,,,10,,,58,0
158160,note_on,0,0,1,,,,,,,,,0,,,84,65
158160,note_on,20,0,7,,,,,,,,,6,,,65,50
158160,note_on,240,0,9,,,,,,,,,8,,,58,0
158200,note_on,40,0,7,,,,,,,,,6,,,65,0
158220,note_on,20,0,7,,,,,,,,,6,,,65,50
158260,note_on,40,0,7,,,,,,,,,6,,,65,0
158280,note_on,20,0,7,,,,,,,,,6,,,65,50
158320,note_on,40,0,7,,,,,,,,,6,,,65,0
158340,note_on,20,0,7,,,,,,,,,6,,,67,50
158370,note_on,30,0,7,,,,,,,,,6,,,67,0
158370,note_on,0,0,7,,,,,,,,,6,,,69,50
158400,note_on,240,0,9,,,,,,,,,8,,,60,0
158400,note_on,0,0,9,,,,,,,,,8,,,62,50
158400,note_on,30,0,7,,,,,,,,,6,,,69,0
158400,note_on,240,0,10,,,,,,,,,10,,,57,0
158400,note_on,0,0,10,,,,,,,,,10,,,55,50
158400,note_on,0,0,7,,,,,,,,,6,,,70,50
158400,note_on,0,0,3,,,,,,,,,2,,,55,50
158400,note_on,240,0,3,,,,,,,,,2,,,57,0
158400,note_on,240,0,1,,,,,,,,,0,,,84,0
158400,note_on,0,0,1,,,,,,,,,0,,,82,60
158440,note_on,40,0,7,,,,,,,,,6,,,70,0
158460,note_on,20,0,7,,,,,,,,,6,,,70,50
158500,note_on,40,0,7,,,,,,,,,6,,,70,0
158520,note_on,20,0,7,,,,,,,,,6,,,70,50
158560,note_on,40,0,7,,,,,,,,,6,,,70,0
158580,note_on,20,0,7,,,,,,,,,6,,,70,50
158620,note_on,40,0,7,,,,,,,,,6,,,70,0
158640,note_on,240,0,1,,,,,,,,,0,,,77,0
158640,note_on,0,0,1,,,,,,,,,0,,,76,55
158640,note_on,240,0,9,,,,,,,,,8,,,62,0
158640,note_on,0,0,8,,,,,,,,,7,,,61,50
158640,note_on,0,0,9,,,,,,,,,8,,,64,50
158640,note_on,600,0,2,,,,,,,,,1,,,73,50
158640,note_on,480,0,8,,,,,,,,,7,,,65,0
158640,note_on,20,0,7,,,,,,,,,6,,,70,50
158680,note_on,40,0,7,,,,,,,,,6,,,70,0
158700,note_on,20,0,7,,,,,,,,,6,,,70,50
158740,note_on,40,0,7,,,,,,,,,6,,,70,0
158760,note_on,20,0,7,,,,,,,,,6,,,72,50
158790,note_on,0,0,7,,,,,,,,,6,,,70,50
158790,note_on,30,0,7,,,,,,,,,6,,,72,0
158820,note_on,0,0,7,,,,,,,,,6,,,69,50
158820,note_on,30,0,7,,,,,,,,,6,,,70,0
158850,note_on,0,0,7,,,,,,,,,6,,,70,50
158850,note_on,30,0,7,,,,,,,,,6,,,69,0
158880,note_on,0,0,7,,,,,,,,,6,,,69,50
158880,note_on,30,0,7,,,,,,,,,6,,,70,0
158880,note_on,240,0,1,,,,,,,,,0,,,76,0
158880,note_on,0,0,1,,,,,,,,,0,,,82,0
158880,note_on,0,0,3,,,,,,,,,2,,,53,50
158880,note_on,0,0,1,,,,,,,,,0,,,81,50
158880,note_on,480,0,3,,,,,,,,,2,,,55,0
158880,note_on,240,0,2,,,,,,,,,1,,,81,50
158880,note_on,480,0,10,,,,,,,,,10,,,55,0
158880,note_on,0,0,10,,,,,,,,,10,,,53,50
158880,note_on,0,0,1,,,,,,,,,0,,,76,50
158920,note_on,40,0,3,,,,,,,,,2,,,53,0
158920,note_on,40,0,10,,,,,,,,,10,,,53,0
158920,note_on,40,0,7,,,,,,,,,6,,,69,0
158940,note_on,20,0,3,,,,,,,,,2,,,53,53
158940,note_on,20,0,10,,,,,,,,,10,,,53,53
158940,note_on,20,0,7,,,,,,,,,6,,,69,53
158980,note_on,40,0,3,,,,,,,,,2,,,53,0
158980,note_on,40,0,7,,,,,,,,,6,,,69,0
158980,note_on,40,0,10,,,,,,,,,10,,,53,0
159000,note_on,20,0,7,,,,,,,,,6,,,69,56
159000,note_on,20,0,3,,,,,,,,,2,,,53,56
159000,note_on,0,0,1,,,,,,,,,0,,,89,56
159000,note_on,20,0,10,,,,,,,,,10,,,53,56
159000,note_on,120,0,1,,,,,,,,,0,,,81,0
159040,note_on,40,0,3,,,,,,,,,2,,,53,0
159040,note_on,40,0,10,,,,,,,,,10,,,53,0
159040,note_on,40,0,7,,,,,,,,,6,,,69,0
159060,note_on,20,0,10,,,,,,,,,10,,,53,59
159060,note_on,20,0,7,,,,,,,,,6,,,69,59
159060,note_on,20,0,3,,,,,,,,,2,,,53,59
159100,note_on,40,0,10,,,,,,,,,10,,,53,0
159100,note_on,40,0,7,,,,,,,,,6,,,69,0
159100,note_on,40,0,3,,,,,,,,,2,,,53,0
159120,note_on,20,0,10,,,,,,,,,10,,,53,62
159120,note_on,0,0,1,,,,,,,,,0,,,77,62
159120,note_on,480,0,8,,,,,,,,,7,,,61,0
159120,note_on,480,0,9,,,,,,,,,8,,,64,0
159120,note_on,0,0,9,,,,,,,,,8,,,65,62
159120,note_on,20,0,3,,,,,,,,,2,,,53,62
159120,note_on,0,0,2,,,,,,,,,1,,,74,62
159120,note_on,240,0,2,,,,,,,,,1,,,73,0
159120,note_on,20,0,7,,,,,,,,,6,,,69,62
159120,note_on,120,0,1,,,,,,,,,0,,,76,0
159120,note_on,0,0,8,,,,,,,,,7,,,62,62
159160,note_on,40,0,3,,,,,,,,,2,,,53,0
159160,note_on,40,0,10,,,,,,,,,10,,,53,0
159160,note_on,40,0,7,,,,,,,,,6,,,69,0
159180,note_on,20,0,3,,,,,,,,,2,,,53,65
159180,note_on,20,0,7,,,,,,,,,6,,,69,65
159180,note_on,20,0,10,,,,,,,,,10,,,53,65
159220,note_on,40,0,7,,,,,,,,,6,,,69,0
159220,note_on,40,0,10,,,,,,,,,10,,,53,0
159220,note_on,40,0,3,,,,,,,,,2,,,53,0
159240,note_on,0,0,8,,,,,,,,,7,,,69,68
159240,note_on,20,0,10,,,,,,,,,10,,,53,68
159240,note_on,0,0,2,,,,,,,,,1,,,73,68
159240,note_on,0,0,2,,,,,,,,,1,,,79,68
159240,note_on,0,0,2,,,,,,,,,1,,,81,0
159240,note_on,120,0,8,,,,,,,,,7,,,62,0
159240,note_on,120,0,2,,,,,,,,,1,,,74,0
159240,note_on,20,0,3,,,,,,,,,2,,,53,68
159240,note_on,20,0,7,,,,,,,,,6,,,69,68
159240,note_on,0,0,1,,,,,,,,,0,,,89,0
159240,note_on,0,0,1,,,,,,,,,0,,,88,68
159240,note_on,0,0,9,,,,,,,,,8,,,64,68
159240,note_on,120,0,9,,,,,,,,,8,,,65,0
159240,note_on,120,0,1,,,,,,,,,0,,,77,0
159240,note_on,0,0,1,,,,,,,,,0,,,81,68
159280,note_on,40,0,7,,,,,,,,,6,,,69,0
159280,note_on,40,0,10,,,,,,,,,10,,,53,0
159280,note_on,40,0,3,,,,,,,,,2,,,53,0
159300,note_on,20,0,10,,,,,,,,,10,,,55,71
159300,note_on,20,0,7,,,,,,,,,6,,,73,71
159300,note_on,20,0,3,,,,,,,,,2,,,55,71
159330,note_on,30,0,10,,,,,,,,,10,,,55,0
159330,note_on,0,0,10,,,,,,,,,10,,,57,73
159330,note_on,0,0,3,,,,,,,,,2,,,57,73
159330,note_on,30,0,3,,,,,,,,,2,,,55,0
159330,note_on,0,0,7,,,,,,,,,6,,,74,73
159330,note_on,30,0,7,,,,,,,,,6,,,73,0
159360,note_on,30,0,7,,,,,,,,,6,,,74,0
159360,note_on,0,0,2,,,,,,,,,1,,,77,75
159360,note_on,0,0,2,,,,,,,,,1,,,79,0
159360,note_on,120,0,2,,,,,,,,,1,,,73,0
159360,note_on,0,0,7,,,,,,,,,6,,,74,75
159360,note_on,0,0,2,,,,,,,,,1,,,74,75
159360,note_on,30,0,10,,,,,,,,,10,,,57,0
159360,note_on,0,0,10,,,,,,,,,10,,,58,75
159360,note_on,0,0,9,,,,,,,,,8,,,62,75
159360,note_on,30,0,3,,,,,,,,,2,,,57,0
159360,note_on,0,0,3,,,,,,,,,2,,,58,75
159360,note_on,120,0,9,,,,,,,,,8,,,64,0
159360,note_on,120,0,1,,,,,,,,,0,,,88,0
159360,note_on,0,0,1,,,,,,,,,0,,,86,75
159400,note_on,40,0,10,,,,,,,,,10,,,58,0
159400,note_on,40,0,3,,,,,,,,,2,,,58,0
159400,note_on,40,0,7,,,,,,,,,6,,,74,0
159420,note_on,20,0,7,,,,,,,,,6,,,74,78
159420,note_on,20,0,10,,,,,,,,,10,,,58,78
159420,note_on,20,0,3,,,,,,,,,2,,,58,78
159460,note_on,40,0,7,,,,,,,,,6,,,74,0
159460,note_on,40,0,3,,,,,,,,,2,,,58,0
159460,note_on,40,0,10,,,,,,,,,10,,,58,0
159480,note_on,20,0,7,,,,,,,,,6,,,74,81
159480,note_on,20,0,10,,,,,,,,,10,,,58,81
159480,note_on,20,0,3,,,,,,,,,2,,,58,81
159520,note_on,40,0,7,,,,,,,,,6,,,74,0
159520,note_on,40,0,10,,,,,,,,,10,,,58,0
159520,note_on,40,0,3,,,,,,,,,2,,,58,0
159540,note_on,20,0,7,,,,,,,,,6,,,74,84
159540,note_on,20,0,10,,,,,,,,,10,,,58,84
159540,note_on,20,0,3,,,,,,,,,2,,,58,84
159580,note_on,40,0,10,,,,,,,,,10,,,58,0
159580,note_on,40,0,3,,,,,,,,,2,,,58,0
159580,note_on,40,0,7,,,,,,,,,6,,,74,0
159600,note_on,20,0,10,,,,,,,,,10,,,58,87
159600,note_on,0,0,1,,,,,,,,,0,,,80,87
159600,note_on,0,0,8,,,,,,,,,7,,,68,87
159600,note_on,20,0,7,,,,,,,,,6,,,74,87
159600,note_on,20,0,3,,,,,,,,,2,,,58,87
159600,note_on,360,0,8,,,,,,,,,7,,,69,0
159600,note_on,240,0,1,,,,,,,,,0,,,81,0
159640,note_on,40,0,7,,,,,,,,,6,,,74,0
159640,note_on,40,0,10,,,,,,,,,10,,,58,0
159640,note_on,40,0,3,,,,,,,,,2,,,58,0
159660,note_on,20,0,3,,,,,,,,,2,,,58,90
159660,note_on,20,0,10,,,,,,,,,10,,,58,90
159660,note_on,20,0,7,,,,,,,,,6,,,74,90
159700,note_on,40,0,10,,,,,,,,,10,,,58,0
159700,note_on,40,0,3,,,,,,,,,2,,,58,0
159700,note_on,40,0,7,,,,,,,,,6,,,74,0
159720,note_on,20,0,10,,,,,,,,,10,,,60,93
159720,note_on,20,0,3,,,,,,,,,2,,,60,93
159720,note_on,360,0,2,,,,,,,,,1,,,77,0
159720,note_on,0,0,2,,,,,,,,,1,,,74,93
159720,note_on,20,0,7,,,,,,,,,6,,,76,93
159750,note_on,0,0,7,,,,,,,,,6,,,74,95
159750,note_on,30,0,7,,,,,,,,,6,,,76,0
159750,note_on,0,0,10,,,,,,,,,10,,,58,95
159750,note_on,30,0,10,,,,,,,,,10,,,60,0
159750,note_on,30,0,3,,,,,,,,,2,,,60,0
159750,note_on,0,0,3,,,,,,,,,2,,,58,95
159780,note_on,30,0,7,,,,,,,,,6,,,74,0
159780,note_on,0,0,7,,,,,,,,,6,,,73,96
159780,note_on,0,0,10,,,,,,,,,10,,,57,96
159780,note_on,30,0,3,,,,,,,,,2,,,58,0
159780,note_on,30,0,10,,,,,,,,,10,,,58,0
159780,note_on,0,0,3,,,,,,,,,2,,,57,96
159810,note_on,0,0,3,,,,,,,,,2,,,58,98
159810,note_on,30,0,3,,,,,,,,,2,,,57,0
159810,note_on,0,0,10,,,,,,,,,10,,,58,98
159810,note_on,30,0,10,,,,,,,,,10,,,57,0
159810,note_on,30,0,7,,,,,,,,,6,,,73,0
159810,note_on,0,0,7,,,,,,,,,6,,,74,98
159840,note_on,5670,0,5,,,,,,,,,4,,,69,100
159840,note_on,0,0,1,,,,,,,,,0,,,81,50
159840,note_on,0,0,1,,,,,,,,,0,,,85,50
159840,note_on,0,0,1,,,,,,,,,0,,,86,0
159840,note_on,240,0,1,,,,,,,,,0,,,80,0
159840,note_on,5700,0,6,,,,,,,,,5,,,45,100
159840,note_on,0,0,9,,,,,,,,,8,,,61,100
159840,note_on,480,0,9,,,,,,,,,8,,,62,0
159840,note_on,240,0,8,,,,,,,,,7,,,68,0
159840,note_on,0,0,7,,,,,,,,,6,,,73,100
159840,note_on,0,0,8,,,,,,,,,7,,,69,100
159840,note_on,30,0,10,,,,,,,,,10,,,58,0
159840,note_on,120,0,2,,,,,,,,,1,,,74,0
159840,note_on,0,0,2,,,,,,,,,1,,,74,0
159840,note_on,0,0,2,,,,,,,,,1,,,69,50
159840,note_on,0,0,2,,,,,,,,,1,,,73,50
159840,note_on,30,0,3,,,,,,,,,2,,,58,0
159840,note_on,0,0,3,,,,,,,,,2,,,57,100
159840,note_on,30,0,7,,,,,,,,,6,,,74,0
159880,note_on,40,0,3,,,,,,,,,2,,,57,0
159900,note_on,20,0,3,,,,,,,,,2,,,45,100
159900,note_on,3780,0,4,,,,,,,,,3,,,57,100
159900,note_on,1980,0,11,,,,,,,,,11,,,33,100
159900,note_on,60,0,7,,,,,,,,,6,,,73,0
159900,note_on,60,0,10,,,,,,,,,10,,,45,100
159940,note_on,40,0,11,,,,,,,,,11,,,33,0
159940,note_on,40,0,4,,,,,,,,,3,,,57,0
159940,note_on,40,0,3,,,,,,,,,2,,,45,0
159940,note_on,40,0,10,,,,,,,,,10,,,45,0
159960,note_on,20,0,3,,,,,,,,,2,,,45,100
159960,note_on,20,0,4,,,,,,,,,3,,,57,100
159960,note_on,120,0,8,,,,,,,,,7,,,69,0
159960,note_on,0,0,2,,,,,,,,,1,,,69,0
159960,note_on,120,0,2,,,,,,,,,1,,,73,0
159960,note_on,120,0,5,,,,,,,,,4,,,69,0
159960,note_on,0,0,1,,,,,,,,,0,,,85,0
159960,note_on,120,0,1,,,,,,,,,0,,,81,0
159960,note_on,120,0,6,,,,,,,,,5,,,45,0
159960,note_on,120,0,9,,,,,,,,,8,,,61,0
159960,note_on,20,0,10,,,,,,,,,10,,,45,100
159960,note_on,20,0,11,,,,,,,,,11,,,33,100
159960,note_on,60,0,7,,,,,,,,,6,,,76,100
160000,note_on,40,0,4,,,,,,,,,3,,,57,0
160000,note_on,40,0,11,,,,,,,,,11,,,33,0
160000,note_on,40,0,10,,,,,,,,,10,,,45,0
160000,note_on,40,0,7,,,,,,,,,6,,,76,0
160000,note_on,40,0,3,,,,,,,,,2,,,45,0
160020,note_on,20,0,10,,,,,,,,,10,,,45,100
160020,note_on,20,0,11,,,,,,,,,11,,,33,100
160020,note_on,20,0,3,,,,,,,,,2,,,45,100
160020,note_on,20,0,4,,,,,,,,,3,,,57,100
160060,note_on,40,0,4,,,,,,,,,3,,,57,0
160060,note_on,40,0,3,,,,,,,,,2,,,45,0
160060,note_on,40,0,11,,,,,,,,,11,,,33,0
160060,note_on,40,0,10,,,,,,,,,10,,,45,0
160080,note_on,20,0,4,,,,,,,,,3,,,57,100
160080,note_on,20,0,3,,,,,,,,,2,,,45,100
160080,note_on,20,0,10,,,,,,,,,10,,,45,100
160080,note_on,120,0,2,,,,,,,,,1,,,69,100
160080,note_on,0,0,2,,,,,,,,,1,,,81,100
160080,note_on,20,0,11,,,,,,,,,11,,,33,100
160080,note_on,80,0,7,,,,,,,,,6,,,73,100
160120,note_on,40,0,10,,,,,,,,,10,,,45,0
160120,note_on,40,0,11,,,,,,,,,11,,,33,0
160120,note_on,40,0,7,,,,,,,,,6,,,73,0
160120,note_on,40,0,3,,,,,,,,,2,,,45,0
160120,note_on,40,0,4,,,,,,,,,3,,,57,0
160140,note_on,20,0,4,,,,,,,,,3,,,57,100
160140,note_on,20,0,10,,,,,,,,,10,,,45,100
160140,note_on,20,0,11,,,,,,,,,11,,,33,100
160140,note_on,20,0,3,,,,,,,,,2,,,45,100
160180,note_on,40,0,4,,,,,,,,,3,,,57,0
160180,note_on,40,0,11,,,,,,,,,11,,,33,0
160180,note_on,40,0,10,,,,,,,,,10,,,45,0
160180,note_on,40,0,3,,,,,,,,,2,,,45,0
160200,note_on,80,0,7,,,,,,,,,6,,,69,100
160200,note_on,20,0,11,,,,,,,,,11,,,33,100
160200,note_on,20,0,10,,,,,,,,,10,,,45,100
160200,note_on,20,0,4,,,,,,,,,3,,,57,100
160200,note_on,20,0,3,,,,,,,,,2,,,45,100
160240,note_on,40,0,10,,,,,,,,,10,,,45,0
160240,note_on,40,0,11,,,,,,,,,11,,,33,0
160240,note_on,40,0,7,,,,,,,,,6,,,69,0
160240,note_on,40,0,4,,,,,,,,,3,,,57,0
160240,note_on,40,0,3,,,,,,,,,2,,,45,0
160260,note_on,20,0,11,,,,,,,,,11,,,35,100
160260,note_on,20,0,4,,,,,,,,,3,,,57,100
160260,note_on,20,0,3,,,,,,,,,2,,,47,100
160260,note_on,20,0,10,,,,,,,,,10,,,47,100
160290,note_on,0,0,11,,,,,,,,,11,,,37,100
160290,note_on,30,0,3,,,,,,,,,2,,,47,0
160290,note_on,30,0,10,,,,,,,,,10,,,47,0
160290,note_on,0,0,3,,,,,,,,,2,,,49,100
160290,note_on,30,0,11,,,,,,,,,11,,,35,0
160290,note_on,0,0,10,,,,,,,,,10,,,49,100
160300,note_on,40,0,4,,,,,,,,,3,,,57,0
160320,note_on,0,0,3,,,,,,,,,2,,,50,100
160320,note_on,0,0,11,,,,,,,,,11,,,38,100
160320,note_on,30,0,11,,,,,,,,,11,,,37,0
160320,note_on,80,0,7,,,,,,,,,6,,,78,100
160320,note_on,0,0,1,,,,,,,,,0,,,90,100
160320,note_on,360,0,5,,,,,,,,,4,,,62,100
160320,note_on,0,0,4,,,,,,,,,3,,,62,100
160320,note_on,360,0,1,,,,,,,,,0,,,86,100
160320,note_on,30,0,3,,,,,,,,,2,,,49,0
160320,note_on,0,0,10,,,,,,,,,10,,,50,100
160320,note_on,30,0,10,,,,,,,,,10,,,49,0
160320,note_on,0,0,5,,,,,,,,,4,,,74,100
160320,note_on,20,0,4,,,,,,,,,3,,,50,100
160320,note_on,360,0,6,,,,,,,,,5,,,50,100
160360,note_on,40,0,7,,,,,,,,,6,,,78,0
160360,note_on,40,0,3,,,,,,,,,2,,,50,0
160380,note_on,20,0,3,,,,,,,,,2,,,62,100
160380,note_on,420,0,9,,,,,,,,,8,,,62,100
160380,note_on,20,0,7,,,,,,,,,6,,,66,100
160420,note_on,40,0,3,,,,,,,,,2,,,62,0
160420,note_on,40,0,9,,,,,,,,,8,,,62,0
160420,note_on,40,0,7,,,,,,,,,6,,,66,0
160440,note_on,120,0,4,,,,,,,,,3,,,62,0
160440,note_on,0,0,5,,,,,,,,,4,,,62,0
160440,note_on,0,0,4,,,,,,,,,3,,,50,0
160440,note_on,20,0,9,,,,,,,,,8,,,62,100
160440,note_on,20,0,3,,,,,,,,,2,,,62,100
160440,note_on,20,0,7,,,,,,,,,6,,,66,100
160440,note_on,480,0,8,,,,,,,,,7,,,81,115
160440,note_on,120,0,10,,,,,,,,,10,,,50,0
160440,note_on,120,0,6,,,,,,,,,5,,,50,0
160440,note_on,120,0,11,,,,,,,,,11,,,38,0
160440,note_on,120,0,5,,,,,,,,,4,,,74,0
160480,note_on,40,0,9,,,,,,,,,8,,,62,0
160480,note_on,40,0,3,,,,,,,,,2,,,62,0
160480,note_on,40,0,7,,,,,,,,,6,,,66,0
160480,note_on,40,0,8,,,,,,,,,7,,,81,0
160500,note_on,20,0,9,,,,,,,,,8,,,62,100
160500,note_on,20,0,3,,,,,,,,,2,,,62,100
160500,note_on,20,0,7,,,,,,,,,6,,,66,100
160540,note_on,40,0,3,,,,,,,,,2,,,62,0
160540,note_on,40,0,7,,,,,,,,,6,,,66,0
160540,note_on,40,0,9,,,,,,,,,8,,,62,0
160560,note_on,20,0,3,,,,,,,,,2,,,62,100
160560,note_on,80,0,8,,,,,,,,,7,,,78,115
160560,note_on,480,0,2,,,,,,,,,1,,,69,0
160560,note_on,0,0,2,,,,,,,,,1,,,74,100
160560,note_on,20,0,7,,,,,,,,,6,,,66,100
160560,note_on,20,0,9,,,,,,,,,8,,,62,100
160600,note_on,40,0,7,,,,,,,,,6,,,66,0
160600,note_on,40,0,3,,,,,,,,,2,,,62,0
160600,note_on,40,0,8,,,,,,,,,7,,,78,0
160600,note_on,40,0,9,,,,,,,,,8,,,62,0
160620,note_on,20,0,3,,,,,,,,,2,,,62,100
160620,note_on,20,0,7,,,,,,,,,6,,,66,100
160620,note_on,20,0,9,,,,,,,,,8,,,62,100
160660,note_on,40,0,3,,,,,,,,,2,,,62,0
160660,note_on,40,0,7,,,,,,,,,6,,,66,0
160660,note_on,40,0,9,,,,,,,,,8,,,62,0
160680,note_on,20,0,7,,,,,,,,,6,,,66,100
160680,note_on,80,0,8,,,,,,,,,7,,,74,115
160680,note_on,20,0,3,,,,,,,,,2,,,62,100
160680,note_on,20,0,9,,,,,,,,,8,,,62,100
160720,note_on,40,0,9,,,,,,,,,8,,,62,0
160720,note_on,40,0,7,,,,,,,,,6,,,66,0
160720,note_on,40,0,3,,,,,,,,,2,,,62,0
160720,note_on,40,0,8,,,,,,,,,7,,,74,0
160740,note_on,20,0,9,,,,,,,,,8,,,64,100
160740,note_on,20,0,7,,,,,,,,,6,,,67,100
160740,note_on,20,0,3,,,,,,,,,2,,,64,100
160770,note_on,0,0,7,,,,,,,,,6,,,69,100
160770,note_on,30,0,7,,,,,,,,,6,,,67,0
160770,note_on,0,0,3,,,,,,,,,2,,,66,100
160770,note_on,30,0,9,,,,,,,,,8,,,64,0
160770,note_on,0,0,9,,,,,,,,,8,,,66,100
160770,note_on,30,0,3,,,,,,,,,2,,,64,0
160800,note_on,0,0,9,,,,,,,,,8,,,67,100
160800,note_on,0,0,1,,,,,,,,,0,,,83,100
160800,note_on,360,0,5,,,,,,,,,4,,,62,100
160800,note_on,0,0,7,,,,,,,,,6,,,71,100
160800,note_on,0,0,2,,,,,,,,,1,,,79,100
160800,note_on,240,0,2,,,,,,,,,1,,,81,0
160800,note_on,0,0,3,,,,,,,,,2,,,67,100
160800,note_on,30,0,3,,,,,,,,,2,,,66,0
160800,note_on,480,0,1,,,,,,,,,0,,,86,0
160800,note_on,360,0,6,,,,,,,,,5,,,50,100
160800,note_on,30,0,7,,,,,,,,,6,,,69,0
160800,note_on,0,0,5,,,,,,,,,4,,,74,100
160800,note_on,30,0,9,,,,,,,,,8,,,66,0
160800,note_on,80,0,8,,,,,,,,,7,,,83,100
160840,note_on,40,0,3,,,,,,,,,2,,,67,0
160840,note_on,40,0,7,,,,,,,,,6,,,71,0
160840,note_on,40,0,8,,,,,,,,,7,,,83,0
160860,note_on,420,0,4,,,,,,,,,3,,,62,100
160860,note_on,20,0,8,,,,,,,,,7,,,59,100
160860,note_on,420,0,10,,,,,,,,,10,,,55,100
160860,note_on,20,0,3,,,,,,,,,2,,,55,100
160860,note_on,420,0,11,,,,,,,,,11,,,43,100
160900,note_on,40,0,10,,,,,,,,,10,,,55,0
160900,note_on,40,0,8,,,,,,,,,7,,,59,0
160900,note_on,40,0,11,,,,,,,,,11,,,43,0
160900,note_on,40,0,3,,,,,,,,,2,,,55,0
160900,note_on,40,0,4,,,,,,,,,3,,,62,0
160920,note_on,80,0,7,,,,,,,,,6,,,86,100
160920,note_on,120,0,9,,,,,,,,,8,,,67,0
160920,note_on,120,0,6,,,,,,,,,5,,,50,0
160920,note_on,120,0,5,,,,,,,,,4,,,74,0
160920,note_on,20,0,3,,,,,,,,,2,,,55,100
160920,note_on,20,0,11,,,,,,,,,11,,,43,100
160920,note_on,20,0,4,,,,,,,,,3,,,62,100
160920,note_on,0,0,5,,,,,,,,,4,,,62,0
160920,note_on,20,0,10,,,,,,,,,10,,,55,100
160920,note_on,20,0,8,,,,,,,,,7,,,59,100
160960,note_on,40,0,11,,,,,,,,,11,,,43,0
160960,note_on,40,0,7,,,,,,,,,6,,,86,0
160960,note_on,40,0,8,,,,,,,,,7,,,59,0
160960,note_on,40,0,4,,,,,,,,,3,,,62,0
160960,note_on,40,0,3,,,,,,,,,2,,,55,0
160960,note_on,40,0,10,,,,,,,,,10,,,55,0
160980,note_on,20,0,10,,,,,,,,,10,,,55,100
160980,note_on,20,0,8,,,,,,,,,7,,,59,100
160980,note_on,20,0,11,,,,,,,,,11,,,43,100
160980,note_on,20,0,4,,,,,,,,,3,,,62,100
160980,note_on,20,0,3,,,,,,,,,2,,,55,100
161020,note_on,40,0,3,,,,,,,,,2,,,55,0
161020,note_on,40,0,11,,,,,,,,,11,,,43,0
161020,note_on,40,0,4,,,,,,,,,3,,,62,0
161020,note_on,40,0,10,,,,,,,,,10,,,55,0
161020,note_on,40,0,8,,,,,,,,,7,,,59,0
161040,note_on,20,0,4,,,,,,,,,3,,,62,100
161040,note_on,20,0,11,,,,,,,,,11,,,43,100
161040,note_on,20,0,3,,,,,,,,,2,,,55,100
161040,note_on,80,0,7,,,,,,,,,6,,,83,100
161040,note_on,20,0,10,,,,,,,,,10,,,55,100
161040,note_on,20,0,8,,,,,,,,,7,,,59,100
161080,note_on,40,0,3,,,,,,,,,2,,,55,0
161080,note_on,40,0,11,,,,,,,,,11,,,43,0
161080,note_on,40,0,10,,,,,,,,,10,,,55,0
161080,note_on,40,0,7,,,,,,,,,6,,,83,0
161080,note_on,40,0,4,,,,,,,,,3,,,62,0
161080,note_on,40,0,8,,,,,,,,,7,,,59,0
161100,note_on,20,0,10,,,,,,,,,10,,,55,100
161100,note_on,20,0,11,,,,,,,,,11,,,43,100
161100,note_on,20,0,4,,,,,,,,,3,,,62,100
161100,note_on,20,0,3,,,,,,,,,2,,,55,100
161100,note_on,20,0,8,,,,,,,,,7,,,59,100
161140,note_on,40,0,4,,,,,,,,,3,,,62,0
161140,note_on,40,0,11,,,,,,,,,11,,,43,0
161140,note_on,40,0,10,,,,,,,,,10,,,55,0
161140,note_on,40,0,3,,,,,,,,,2,,,55,0
161140,note_on,40,0,8,,,,,,,,,7,,,59,0
161160,note_on,20,0,10,,,,,,,,,10,,,55,100
161160,note_on,20,0,3,,,,,,,,,2,,,55,100
161160,note_on,80,0,7,,,,,,,,,6,,,79,100
161160,note_on,20,0,11,,,,,,,,,11,,,43,100
161160,note_on,20,0,8,,,,,,,,,7,,,59,100
161160,note_on,20,0,4,,,,,,,,,3,,,62,100
161200,note_on,40,0,8,,,,,,,,,7,,,59,0
161200,note_on,40,0,7,,,,,,,,,6,,,79,0
161200,note_on,40,0,10,,,,,,,,,10,,,55,0
161200,note_on,40,0,11,,,,,,,,,11,,,43,0
161200,note_on,40,0,4,,,,,,,,,3,,,62,0
161200,note_on,40,0,3,,,,,,,,,2,,,55,0
161220,note_on,20,0,8,,,,,,,,,7,,,61,100
161220,note_on,20,0,3,,,,,,,,,2,,,57,100
161220,note_on,20,0,10,,,,,,,,,10,,,57,100
161220,note_on,20,0,11,,,,,,,,,11,,,45,100
161220,note_on,20,0,4,,,,,,,,,3,,,62,100
161250,note_on,30,0,11,,,,,,,,,11,,,45,0
161250,note_on,0,0,10,,,,,,,,,10,,,59,100
161250,note_on,30,0,10,,,,,,,,,10,,,57,0
161250,note_on,0,0,8,,,,,,,,,7,,,62,100
161250,note_on,30,0,3,,,,,,,,,2,,,57,0
161250,note_on,0,0,3,,,,,,,,,2,,,59,100
161250,note_on,30,0,8,,,,,,,,,7,,,61,0
161250,note_on,0,0,11,,,,,,,,,11,,,47,100
161260,note_on,40,0,4,,,,,,,,,3,,,62,0
161280,note_on,0,0,8,,,,,,,,,7,,,64,100
161280,note_on,480,0,2,,,,,,,,,1,,,74,0
161280,note_on,0,0,2,,,,,,,,,1,,,73,100
161280,note_on,30,0,8,,,,,,,,,7,,,62,0
161280,note_on,20,0,4,,,,,,,,,3,,,64,100
161280,note_on,0,0,1,,,,,,,,,0,,,88,100
161280,note_on,480,0,1,,,,,,,,,0,,,90,0
161280,note_on,80,0,7,,,,,,,,,6,,,88,100
161280,note_on,0,0,10,,,,,,,,,10,,,61,100
161280,note_on,0,0,11,,,,,,,,,11,,,49,100
161280,note_on,30,0,11,,,,,,,,,11,,,47,0
161280,note_on,30,0,10,,,,,,,,,10,,,59,0
161280,note_on,30,0,3,,,,,,,,,2,,,59,0
161280,note_on,0,0,3,,,,,,,,,2,,,61,100
161320,note_on,40,0,8,,,,,,,,,7,,,64,0
161320,note_on,40,0,7,,,,,,,,,6,,,88,0
161320,note_on,40,0,3,,,,,,,,,2,,,61,0
161340,note_on,420,0,9,,,,,,,,,8,,,61,100
161340,note_on,20,0,7,,,,,,,,,6,,,64,100
161340,note_on,20,0,3,,,,,,,,,2,,,61,100
161380,note_on,40,0,7,,,,,,,,,6,,,64,0
161380,note_on,40,0,9,,,,,,,,,8,,,61,0
161380,note_on,40,0,3,,,,,,,,,2,,,61,0
161400,note_on,120,0,10,,,,,,,,,10,,,61,0
161400,note_on,80,0,8,,,,,,,,,7,,,79,115
161400,note_on,20,0,9,,,,,,,,,8,,,61,100
161400,note_on,120,0,4,,,,,,,,,3,,,64,0
161400,note_on,20,0,3,,,,,,,,,2,,,61,100
161400,note_on,120,0,11,,,,,,,,,11,,,49,0
161400,note_on,20,0,7,,,,,,,,,6,,,64,100
161440,note_on,40,0,7,,,,,,,,,6,,,64,0
161440,note_on,40,0,9,,,,,,,,,8,,,61,0
161440,note_on,40,0,8,,,,,,,,,7,,,79,0
161440,note_on,40,0,3,,,,,,,,,2,,,61,0
161460,note_on,20,0,7,,,,,,,,,6,,,64,100
161460,note_on,20,0,9,,,,,,,,,8,,,61,100
161460,note_on,20,0,3,,,,,,,,,2,,,61,100
161500,note_on,40,0,7,,,,,,,,,6,,,64,0
161500,note_on,40,0,3,,,,,,,,,2,,,61,0
161500,note_on,40,0,9,,,,,,,,,8,,,61,0
161520,note_on,20,0,9,,,,,,,,,8,,,61,100
161520,note_on,20,0,3,,,,,,,,,2,,,61,100
161520,note_on,80,0,8,,,,,,,,,7,,,76,115
161520,note_on,20,0,7,,,,,,,,,6,,,64,100
161560,note_on,40,0,8,,,,,,,,,7,,,76,0
161560,note_on,40,0,7,,,,,,,,,6,,,64,0
161560,note_on,40,0,9,,,,,,,,,8,,,61,0
161560,note_on,40,0,3,,,,,,,,,2,,,61,0
161580,note_on,20,0,9,,,,,,,,,8,,,61,100
161580,note_on,20,0,3,,,,,,,,,2,,,61,100
161580,note_on,20,0,7,,,,,,,,,6,,,64,100
161620,note_on,40,0,9,,,,,,,,,8,,,61,0
161620,note_on,40,0,3,,,,,,,,,2,,,61,0
161620,note_on,40,0,7,,,,,,,,,6,,,64,0
161640,note_on,20,0,9,,,,,,,,,8,,,61,100
161640,note_on,80,0,8,,,,,,,,,7,,,73,115
161640,note_on,20,0,7,,,,,,,,,6,,,64,100
161640,note_on,20,0,3,,,,,,,,,2,,,61,100
161680,note_on,40,0,3,,,,,,,,,2,,,61,0
161680,note_on,40,0,8,,,,,,,,,7,,,73,0
161680,note_on,40,0,7,,,,,,,,,6,,,64,0
161680,note_on,40,0,9,,,,,,,,,8,,,61,0
161700,note_on,20,0,7,,,,,,,,,6,,,66,100
161700,note_on,20,0,3,,,,,,,,,2,,,62,100
161700,note_on,20,0,9,,,,,,,,,8,,,62,100
161730,note_on,0,0,9,,,,,,,,,8,,,64,100
161730,note_on,30,0,9,,,,,,,,,8,,,62,0
161730,note_on,0,0,7,,,,,,,,,6,,,67,100
161730,note_on,30,0,7,,,,,,,,,6,,,66,0
161730,note_on,30,0,3,,,,,,,,,2,,,62,0
161730,note_on,0,0,3,,,,,,,,,2,,,64,100
161760,note_on,80,0,8,,,,,,,,,7,,,81,100
161760,note_on,0,0,9,,,,,,,,,8,,,66,100
161760,note_on,30,0,9,,,,,,,,,8,,,64,0
161760,note_on,0,0,7,,,,,,,,,6,,,69,100
161760,note_on,30,0,7,,,,,,,,,6,,,67,0
161760,note_on,30,0,3,,,,,,,,,2,,,64,0
161760,note_on,480,0,2,,,,,,,,,1,,,79,0
161760,note_on,0,0,2,,,,,,,,,1,,,78,100
161760,note_on,0,0,3,,,,,,,,,2,,,66,100
161760,note_on,840,0,5,,,,,,,,,4,,,66,100
161760,note_on,0,0,5,,,,,,,,,4,,,69,100
161760,note_on,0,0,1,,,,,,,,,0,,,81,100
161760,note_on,480,0,1,,,,,,,,,0,,,83,0
161800,note_on,40,0,8,,,,,,,,,7,,,81,0
161800,note_on,40,0,7,,,,,,,,,6,,,69,0
161800,note_on,40,0,3,,,,,,,,,2,,,66,0
161820,note_on,20,0,8,,,,,,,,,7,,,57,100
161820,note_on,420,0,4,,,,,,,,,3,,,54,100
161820,note_on,0,0,4,,,,,,,,,3,,,66,100
161820,note_on,420,0,10,,,,,,,,,10,,,54,100
161820,note_on,20,0,3,,,,,,,,,2,,,54,100
161820,note_on,420,0,11,,,,,,,,,11,,,42,100
161860,note_on,40,0,4,,,,,,,,,3,,,66,0
161860,note_on,40,0,11,,,,,,,,,11,,,42,0
161860,note_on,40,0,3,,,,,,,,,2,,,54,0
161860,note_on,40,0,8,,,,,,,,,7,,,57,0
161860,note_on,40,0,10,,,,,,,,,10,,,54,0
161860,note_on,0,0,4,,,,,,,,,3,,,54,0
161880,note_on,120,0,9,,,,,,,,,8,,,66,0
161880,note_on,20,0,11,,,,,,,,,11,,,42,100
161880,note_on,20,0,3,,,,,,,,,2,,,54,100
161880,note_on,20,0,4,,,,,,,,,3,,,54,100
161880,note_on,20,0,10,,,,,,,,,10,,,54,100
161880,note_on,0,0,4,,,,,,,,,3,,,66,100
161880,note_on,120,0,5,,,,,,,,,4,,,69,0
161880,note_on,0,0,5,,,,,,,,,4,,,66,0
161880,note_on,20,0,8,,,,,,,,,7,,,57,100
161880,note_on,80,0,7,,,,,,,,,6,,,85,100
161920,note_on,40,0,4,,,,,,,,,3,,,66,0
161920,note_on,40,0,10,,,,,,,,,10,,,54,0
161920,note_on,40,0,3,,,,,,,,,2,,,54,0
161920,note_on,40,0,7,,,,,,,,,6,,,85,0
161920,note_on,40,0,8,,,,,,,,,7,,,57,0
161920,note_on,0,0,4,,,,,,,,,3,,,54,0
161920,note_on,40,0,11,,,,,,,,,11,,,42,0
161940,note_on,20,0,8,,,,,,,,,7,,,57,100
161940,note_on,0,0,4,,,,,,,,,3,,,66,100
161940,note_on,20,0,4,,,,,,,,,3,,,54,100
161940,note_on,20,0,10,,,,,,,,,10,,,54,100
161940,note_on,20,0,11,,,,,,,,,11,,,42,100
161940,note_on,20,0,3,,,,,,,,,2,,,54,100
161980,note_on,40,0,3,,,,,,,,,2,,,54,0
161980,note_on,40,0,4,,,,,,,,,3,,,66,0
161980,note_on,0,0,4,,,,,,,,,3,,,54,0
161980,note_on,40,0,11,,,,,,,,,11,,,42,0
161980,note_on,40,0,10,,,,,,,,,10,,,54,0
161980,note_on,40,0,8,,,,,,,,,7,,,57,0
162000,note_on,20,0,3,,,,,,,,,2,,,54,100
162000,note_on,20,0,4,,,,,,,,,3,,,54,100
162000,note_on,0,0,4,,,,,,,,,3,,,66,100
162000,note_on,20,0,8,,,,,,,,,7,,,57,100
162000,note_on,80,0,7,,,,,,,,,6,,,81,100
162000,note_on,20,0,11,,,,,,,,,11,,,42,100
162000,note_on,20,0,10,,,,,,,,,10,,,54,100
162040,note_on,40,0,3,,,,,,,,,2,,,54,0
162040,note_on,0,0,4,,,,,,,,,3,,,54,0
162040,note_on,40,0,4,,,,,,,,,3,,,66,0
162040,note_on,40,0,7,,,,,,,,,6,,,81,0
162040,note_on,40,0,10,,,,,,,,,10,,,54,0
162040,note_on,40,0,11,,,,,,,,,11,,,42,0
162040,note_on,40,0,8,,,,,,,,,7,,,57,0
162060,note_on,20,0,8,,,,,,,,,7,,,57,100
162060,note_on,20,0,10,,,,,,,,,10,,,54,100
162060,note_on,0,0,4,,,,,,,,,3,,,66,100
162060,note_on,20,0,4,,,,,,,,,3,,,54,100
162060,note_on,20,0,11,,,,,,,,,11,,,42,100
162060,note_on,20,0,3,,,,,,,,,2,,,54,100
162100,note_on,40,0,3,,,,,,,,,2,,,54,0
162100,note_on,40,0,10,,,,,,,,,10,,,54,0
162100,note_on,0,0,4,,,,,,,,,3,,,54,0
162100,note_on,40,0,8,,,,,,,,,7,,,57,0
162100,note_on,40,0,11,,,,,,,,,11,,,42,0
162100,note_on,40,0,4,,,,,,,,,3,,,66,0
162120,note_on,20,0,11,,,,,,,,,11,,,42,100
162120,note_on,20,0,3,,,,,,,,,2,,,54,100
162120,note_on,80,0,7,,,,,,,,,6,,,78,100
162120,note_on,20,0,4,,,,,,,,,3,,,54,100
162120,note_on,0,0,4,,,,,,,,,3,,,66,100
162120,note_on,20,0,8,,,,,,,,,7,,,57,100
162120,note_on,20,0,10,,,,,,,,,10,,,54,100
162160,note_on,40,0,11,,,,,,,,,11,,,42,0
162160,note_on,40,0,4,,,,,,,,,3,,,66,0
162160,note_on,40,0,10,,,,,,,,,10,,,54,0
162160,note_on,0,0,4,,,,,,,,,3,,,54,0
162160,note_on,40,0,7,,,,,,,,,6,,,78,0
162160,note_on,40,0,8,,,,,,,,,7,,,57,0
162160,note_on,40,0,3,,,,,,,,,2,,,54,0
162180,note_on,20,0,8,,,,,,,,,7,,,59,100
162180,note_on,20,0,3,,,,,,,,,2,,,55,100
162180,note_on,20,0,4,,,,,,,,,3,,,54,100
162180,note_on,20,0,10,,,,,,,,,10,,,55,100
162180,note_on,20,0,11,,,,,,,,,11,,,43,100
162180,note_on,0,0,4,,,,,,,,,3,,,66,100
162210,note_on,30,0,10,,,,,,,,,10,,,55,0
162210,note_on,30,0,11,,,,,,,,,11,,,43,0
162210,note_on,0,0,3,,,,,,,,,2,,,57,100
162210,note_on,30,0,3,,,,,,,,,2,,,55,0
162210,note_on,0,0,8,,,,,,,,,7,,,61,100
162210,note_on,30,0,8,,,,,,,,,7,,,59,0
162210,note_on,0,0,11,,,,,,,,,11,,,45,100
162210,note_on,0,0,10,,,,,,,,,10,,,57,100
162220,note_on,40,0,4,,,,,,,,,3,,,66,0
162220,note_on,0,0,4,,,,,,,,,3,,,54,0
162240,note_on,360,0,5,,,,,,,,,4,,,62,100
162240,note_on,480,0,1,,,,,,,,,0,,,88,0
162240,note_on,30,0,11,,,,,,,,,11,,,45,0
162240,note_on,1320,0,6,,,,,,,,,5,,,50,100
162240,note_on,0,0,3,,,,,,,,,2,,,59,100
162240,note_on,0,0,4,,,,,,,,,3,,,66,100
162240,note_on,20,0,4,,,,,,,,,3,,,54,100
162240,note_on,0,0,5,,,,,,,,,4,,,74,100
162240,note_on,30,0,10,,,,,,,,,10,,,57,0
162240,note_on,0,0,10,,,,,,,,,10,,,59,100
162240,note_on,0,0,11,,,,,,,,,11,,,47,100
162240,note_on,30,0,8,,,,,,,,,7,,,61,0
162240,note_on,480,0,2,,,,,,,,,1,,,73,0
162240,note_on,0,0,2,,,,,,,,,1,,,71,100
162240,note_on,0,0,8,,,,,,,,,7,,,62,100
162240,note_on,30,0,3,,,,,,,,,2,,,57,0
162240,note_on,0,0,1,,,,,,,,,0,,,86,100
162240,note_on,80,0,7,,,,,,,,,6,,,86,100
162280,note_on,40,0,8,,,,,,,,,7,,,62,0
162280,note_on,40,0,3,,,,,,,,,2,,,59,0
162280,note_on,40,0,7,,,,,,,,,6,,,86,0
162300,note_on,20,0,3,,,,,,,,,2,,,59,100
162300,note_on,420,0,9,,,,,,,,,8,,,59,100
162300,note_on,20,0,7,,,,,,,,,6,,,62,100
162340,note_on,40,0,3,,,,,,,,,2,,,59,0
162340,note_on,40,0,9,,,,,,,,,8,,,59,0
162340,note_on,40,0,7,,,,,,,,,6,,,62,0
162360,note_on,120,0,10,,,,,,,,,10,,,59,0
162360,note_on,20,0,7,,,,,,,,,6,,,62,100
162360,note_on,120,0,6,,,,,,,,,5,,,50,0
162360,note_on,0,0,4,,,,,,,,,3,,,54,0
162360,note_on,120,0,4,,,,,,,,,3,,,66,0
162360,note_on,20,0,3,,,,,,,,,2,,,59,100
162360,note_on,0,0,5,,,,,,,,,4,,,62,0
162360,note_on,120,0,5,,,,,,,,,4,,,74,0
162360,note_on,80,0,8,,,,,,,,,7,,,78,115
162360,note_on,20,0,9,,,,,,,,,8,,,59,100
162360,note_on,120,0,11,,,,,,,,,11,,,47,0
162400,note_on,40,0,7,,,,,,,,,6,,,62,0
162400,note_on,40,0,8,,,,,,,,,7,,,78,0
162400,note_on,40,0,9,,,,,,,,,8,,,59,0
162400,note_on,40,0,3,,,,,,,,,2,,,59,0
162420,note_on,20,0,7,,,,,,,,,6,,,62,100
162420,note_on,20,0,9,,,,,,,,,8,,,59,100
162420,note_on,20,0,3,,,,,,,,,2,,,59,100
162460,note_on,40,0,3,,,,,,,,,2,,,59,0
162460,note_on,40,0,9,,,,,,,,,8,,,59,0
162460,note_on,40,0,7,,,,,,,,,6,,,62,0
162480,note_on,20,0,3,,,,,,,,,2,,,59,100
162480,note_on,20,0,9,,,,,,,,,8,,,59,100
162480,note_on,80,0,8,,,,,,,,,7,,,74,115
162480,note_on,20,0,7,,,,,,,,,6,,,62,100
162520,note_on,40,0,3,,,,,,,,,2,,,59,0
162520,note_on,40,0,9,,,,,,,,,8,,,59,0
162520,note_on,40,0,8,,,,,,,,,7,,,74,0
162520,note_on,40,0,7,,,,,,,,,6,,,62,0
162540,note_on,20,0,9,,,,,,,,,8,,,59,100
162540,note_on,20,0,3,,,,,,,,,2,,,59,100
162540,note_on,20,0,7,,,,,,,,,6,,,62,100
162580,note_on,40,0,9,,,,,,,,,8,,,59,0
162580,note_on,40,0,3,,,,,,,,,2,,,59,0
162580,note_on,40,0,7,,,,,,,,,6,,,62,0
162600,note_on,80,0,8,,,,,,,,,7,,,71,115
162600,note_on,20,0,9,,,,,,,,,8,,,59,100
162600,note_on,20,0,3,,,,,,,,,2,,,59,100
162600,note_on,20,0,7,,,,,,,,,6,,,62,100
162640,note_on,40,0,8,,,,,,,,,7,,,71,0
162640,note_on,40,0,9,,,,,,,,,8,,,59,0
162640,note_on,40,0,7,,,,,,,,,6,,,62,0
162640,note_on,40,0,3,,,,,,,,,2,,,59,0
162660,note_on,20,0,3,,,,,,,,,2,,,61,100
162660,note_on,20,0,7,,,,,,,,,6,,,66,100
162660,note_on,20,0,9,,,,,,,,,8,,,61,100
162690,note_on,0,0,9,,,,,,,,,8,,,62,100
162690,note_on,0,0,7,,,,,,,,,6,,,67,100
162690,note_on,30,0,7,,,,,,,,,6,,,66,0
162690,note_on,30,0,3,,,,,,,,,2,,,61,0
162690,note_on,0,0,3,,,,,,,,,2,,,62,100
162690,note_on,30,0,9,,,,,,,,,8,,,61,0
162720,note_on,80,0,8,,,,,,,,,7,,,79,115
162720,note_on,360,0,5,,,,,,,,,4,,,62,100
162720,note_on,0,0,5,,,,,,,,,4,,,74,100
162720,note_on,0,0,2,,,,,,,,,1,,,76,100
162720,note_on,480,0,2,,,,,,,,,1,,,78,0
162720,note_on,30,0,9,,,,,,,,,8,,,62,0
162720,note_on,0,0,7,,,,,,,,,6,,,67,100
162720,note_on,30,0,3,,,,,,,,,2,,,62,0
162720,note_on,0,0,3,,,,,,,,,2,,,64,100
162720,note_on,480,0,1,,,,,,,,,0,,,81,0
162720,note_on,0,0,1,,,,,,,,,0,,,79,100
162720,note_on,360,0,6,,,,,,,,,5,,,50,100
162720,note_on,0,0,9,,,,,,,,,8,,,64,100
162720,note_on,30,0,7,,,,,,,,,6,,,67,0
162760,note_on,40,0,9,,,,,,,,,8,,,64,0
162760,note_on,40,0,3,,,,,,,,,2,,,64,0
162760,note_on,40,0,8,,,,,,,,,7,,,79,0
162780,note_on,420,0,4,,,,,,,,,3,,,64,100
162780,note_on,420,0,10,,,,,,,,,10,,,52,100
162780,note_on,420,0,11,,,,,,,,,11,,,40,100
162780,note_on,20,0,3,,,,,,,,,2,,,52,100
162780,note_on,20,0,9,,,,,,,,,8,,,55,100
162820,note_on,40,0,9,,,,,,,,,8,,,55,0
162820,note_on,40,0,3,,,,,,,,,2,,,52,0
162820,note_on,40,0,10,,,,,,,,,10,,,52,0
162820,note_on,40,0,4,,,,,,,,,3,,,64,0
162820,note_on,40,0,11,,,,,,,,,11,,,40,0
162840,note_on,20,0,10,,,,,,,,,10,,,52,100
162840,note_on,120,0,5,,,,,,,,,4,,,74,0
162840,note_on,0,0,5,,,,,,,,,4,,,62,0
162840,note_on,20,0,3,,,,,,,,,2,,,52,100
162840,note_on,120,0,7,,,,,,,,,6,,,67,0
162840,note_on,20,0,4,,,,,,,,,3,,,64,100
162840,note_on,120,0,6,,,,,,,,,5,,,50,0
162840,note_on,20,0,11,,,,,,,,,11,,,40,100
162840,note_on,20,0,9,,,,,,,,,8,,,55,100
162840,note_on,80,0,8,,,,,,,,,7,,,83,115
162880,note_on,40,0,9,,,,,,,,,8,,,55,0
162880,note_on,40,0,3,,,,,,,,,2,,,52,0
162880,note_on,40,0,8,,,,,,,,,7,,,83,0
162880,note_on,40,0,4,,,,,,,,,3,,,64,0
162880,note_on,40,0,11,,,,,,,,,11,,,40,0
162880,note_on,40,0,10,,,,,,,,,10,,,52,0
162900,note_on,20,0,4,,,,,,,,,3,,,64,100
162900,note_on,20,0,11,,,,,,,,,11,,,40,100
162900,note_on,20,0,9,,,,,,,,,8,,,55,100
162900,note_on,20,0,3,,,,,,,,,2,,,52,100
162900,note_on,20,0,10,,,,,,,,,10,,,52,100
162940,note_on,40,0,3,,,,,,,,,2,,,52,0
162940,note_on,40,0,4,,,,,,,,,3,,,64,0
162940,note_on,40,0,9,,,,,,,,,8,,,55,0
162940,note_on,40,0,11,,,,,,,,,11,,,40,0
162940,note_on,40,0,10,,,,,,,,,10,,,52,0
162960,note_on,20,0,4,,,,,,,,,3,,,64,100
162960,note_on,20,0,10,,,,,,,,,10,,,52,100
162960,note_on,20,0,11,,,,,,,,,11,,,40,100
162960,note_on,80,0,8,,,,,,,,,7,,,79,115
162960,note_on,20,0,3,,,,,,,,,2,,,52,100
162960,note_on,20,0,9,,,,,,,,,8,,,55,100
163000,note_on,40,0,11,,,,,,,,,11,,,40,0
163000,note_on,40,0,8,,,,,,,,,7,,,79,0
163000,note_on,40,0,3,,,,,,,,,2,,,52,0
163000,note_on,40,0,4,,,,,,,,,3,,,64,0
163000,note_on,40,0,10,,,,,,,,,10,,,52,0
163000,note_on,40,0,9,,,,,,,,,8,,,55,0
163020,note_on,20,0,9,,,,,,,,,8,,,55,100
163020,note_on,20,0,4,,,,,,,,,3,,,64,100
163020,note_on,180,0,7,,,,,,,,,6,,,79,100
163020,note_on,20,0,11,,,,,,,,,11,,,40,100
163020,note_on,20,0,3,,,,,,,,,2,,,52,100
163020,note_on,20,0,10,,,,,,,,,10,,,52,100
163060,note_on,40,0,11,,,,,,,,,11,,,40,0
163060,note_on,40,0,3,,,,,,,,,2,,,52,0
163060,note_on,40,0,7,,,,,,,,,6,,,79,0
163060,note_on,40,0,9,,,,,,,,,8,,,55,0
163060,note_on,40,0,10,,,,,,,,,10,,,52,0
163060,note_on,40,0,4,,,,,,,,,3,,,64,0
163080,note_on,20,0,4,,,,,,,,,3,,,64,100
163080,note_on,20,0,7,,,,,,,,,6,,,79,100
163080,note_on,20,0,10,,,,,,,,,10,,,52,100
163080,note_on,20,0,9,,,,,,,,,8,,,55,100
163080,note_on,20,0,3,,,,,,,,,2,,,52,100
163080,note_on,80,0,8,,,,,,,,,7,,,76,115
163080,note_on,20,0,11,,,,,,,,,11,,,40,100
163120,note_on,40,0,9,,,,,,,,,8,,,55,0
163120,note_on,40,0,11,,,,,,,,,11,,,40,0
163120,note_on,40,0,3,,,,,,,,,2,,,52,0
163120,note_on,40,0,7,,,,,,,,,6,,,79,0
163120,note_on,40,0,10,,,,,,,,,10,,,52,0
163120,note_on,40,0,4,,,,,,,,,3,,,64,0
163120,note_on,40,0,8,,,,,,,,,7,,,76,0
163140,note_on,20,0,9,,,,,,,,,8,,,57,100
163140,note_on,20,0,10,,,,,,,,,10,,,54,100
163140,note_on,20,0,7,,,,,,,,,6,,,79,100
163140,note_on,20,0,3,,,,,,,,,2,,,54,100
163140,note_on,20,0,4,,,,,,,,,3,,,64,100
163140,note_on,20,0,11,,,,,,,,,11,,,42,100
163170,note_on,0,0,10,,,,,,,,,10,,,55,100
163170,note_on,30,0,3,,,,,,,,,2,,,54,0
163170,note_on,30,0,9,,,,,,,,,8,,,57,0
163170,note_on,30,0,11,,,,,,,,,11,,,42,0
163170,note_on,0,0,11,,,,,,,,,11,,,43,100
163170,note_on,30,0,10,,,,,,,,,10,,,54,0
163170,note_on,0,0,9,,,,,,,,,8,,,59,100
163170,note_on,0,0,3,,,,,,,,,2,,,55,100
163180,note_on,40,0,4,,,,,,,,,3,,,64,0
163180,note_on,40,0,7,,,,,,,,,6,,,79,0
163200,note_on,0,0,9,,,,,,,,,8,,,57,100
163200,note_on,80,0,8,,,,,,,,,7,,,64,100
163200,note_on,0,0,8,,,,,,,,,7,,,73,100
163200,note_on,30,0,10,,,,,,,,,10,,,55,0
163200,note_on,20,0,7,,,,,,,,,6,,,79,100
163200,note_on,0,0,10,,,,,,,,,10,,,57,100
163200,note_on,360,0,6,,,,,,,,,5,,,45,100
163200,note_on,480,0,2,,,,,,,,,1,,,71,0
163200,note_on,0,0,5,,,,,,,,,4,,,69,100
163200,note_on,0,0,4,,,,,,,,,3,,,64,100
163200,note_on,20,0,4,,,,,,,,,3,,,57,100
163200,note_on,0,0,3,,,,,,,,,2,,,57,100
163200,note_on,0,0,11,,,,,,,,,11,,,45,100
163200,note_on,30,0,9,,,,,,,,,8,,,59,0
163200,note_on,30,0,11,,,,,,,,,11,,,43,0
163200,note_on,360,0,5,,,,,,,,,4,,,57,100
163200,note_on,480,0,1,,,,,,,,,0,,,86,0
163200,note_on,0,0,1,,,,,,,,,0,,,85,100
163200,note_on,30,0,3,,,,,,,,,2,,,55,0
163200,note_on,0,0,2,,,,,,,,,1,,,73,100
163230,note_on,0,0,7,,,,,,,,,6,,,81,102
163230,note_on,30,0,7,,,,,,,,,6,,,79,0
163260,note_on,0,0,7,,,,,,,,,6,,,79,105
163260,note_on,30,0,7,,,,,,,,,6,,,81,0
163290,note_on,0,0,7,,,,,,,,,6,,,78,108
163290,note_on,30,0,7,,,,,,,,,6,,,79,0
163320,note_on,120,0,10,,,,,,,,,10,,,57,0
163320,note_on,120,0,5,,,,,,,,,4,,,69,0
163320,note_on,0,0,5,,,,,,,,,4,,,57,0
163320,note_on,0,0,7,,,,,,,,,6,,,79,110
163320,note_on,120,0,6,,,,,,,,,5,,,45,0
163320,note_on,0,0,8,,,,,,,,,7,,,64,0
163320,note_on,30,0,7,,,,,,,,,6,,,78,0
163320,note_on,120,0,3,,,,,,,,,2,,,57,0
163320,note_on,120,0,9,,,,,,,,,8,,,57,0
163320,note_on,120,0,11,,,,,,,,,11,,,45,0
163320,note_on,120,0,8,,,,,,,,,7,,,73,0
163350,note_on,30,0,7,,,,,,,,,6,,,79,0
163350,note_on,0,0,7,,,,,,,,,6,,,78,113
163380,note_on,0,0,7,,,,,,,,,6,,,76,116
163380,note_on,30,0,7,,,,,,,,,6,,,78,0
163410,note_on,0,0,7,,,,,,,,,6,,,74,118
163410,note_on,30,0,7,,,,,,,,,6,,,76,0
163440,note_on,0,0,7,,,,,,,,,6,,,73,121
163440,note_on,30,0,7,,,,,,,,,6,,,74,0
163480,note_on,40,0,7,,,,,,,,,6,,,73,0
163500,note_on,180,0,11,,,,,,,,,11,,,45,100
163500,note_on,180,0,9,,,,,,,,,8,,,57,100
163500,note_on,180,0,10,,,,,,,,,10,,,57,100
163500,note_on,0,0,8,,,,,,,,,7,,,73,100
163500,note_on,20,0,7,,,,,,,,,6,,,79,100
163500,note_on,180,0,8,,,,,,,,,7,,,64,100
163500,note_on,180,0,3,,,,,,,,,2,,,57,100
163540,note_on,40,0,3,,,,,,,,,2,,,57,0
163540,note_on,40,0,8,,,,,,,,,7,,,73,0
163540,note_on,0,0,8,,,,,,,,,7,,,64,0
163540,note_on,40,0,10,,,,,,,,,10,,,57,0
163540,note_on,40,0,9,,,,,,,,,8,,,57,0
163540,note_on,40,0,7,,,,,,,,,6,,,79,0
163540,note_on,40,0,11,,,,,,,,,11,,,45,0
163560,note_on,20,0,9,,,,,,,,,8,,,57,100
163560,note_on,0,0,8,,,,,,,,,7,,,73,100
163560,note_on,20,0,8,,,,,,,,,7,,,64,100
163560,note_on,20,0,10,,,,,,,,,10,,,57,100
163560,note_on,20,0,11,,,,,,,,,11,,,45,100
163560,note_on,20,0,3,,,,,,,,,2,,,57,100
163560,note_on,20,0,7,,,,,,,,,6,,,79,100
163600,note_on,40,0,10,,,,,,,,,10,,,57,0
163600,note_on,40,0,3,,,,,,,,,2,,,57,0
163600,note_on,40,0,11,,,,,,,,,11,,,45,0
163600,note_on,0,0,8,,,,,,,,,7,,,64,0
163600,note_on,40,0,9,,,,,,,,,8,,,57,0
163600,note_on,40,0,8,,,,,,,,,7,,,73,0
163600,note_on,40,0,7,,,,,,,,,6,,,79,0
163620,note_on,0,0,8,,,,,,,,,7,,,73,100
163620,note_on,20,0,8,,,,,,,,,7,,,64,100
163620,note_on,20,0,10,,,,,,,,,10,,,57,100
163620,note_on,20,0,11,,,,,,,,,11,,,45,100
163620,note_on,20,0,7,,,,,,,,,6,,,79,100
163620,note_on,20,0,9,,,,,,,,,8,,,57,100
163620,note_on,20,0,3,,,,,,,,,2,,,57,100
163660,note_on,40,0,7,,,,,,,,,6,,,79,0
163660,note_on,40,0,9,,,,,,,,,8,,,57,0
163660,note_on,40,0,8,,,,,,,,,7,,,73,0
163660,note_on,0,0,8,,,,,,,,,7,,,64,0
163660,note_on,40,0,10,,,,,,,,,10,,,57,0
163660,note_on,40,0,11,,,,,,,,,11,,,45,0
163660,note_on,40,0,3,,,,,,,,,2,,,57,0
163680,note_on,0,0,2,,,,,,,,,1,,,76,0
163680,note_on,480,0,2,,,,,,,,,1,,,73,0
163680,note_on,20,0,7,,,,,,,,,6,,,79,100
163680,note_on,20,0,9,,,,,,,,,8,,,58,100
163680,note_on,20,0,3,,,,,,,,,2,,,58,100
163680,note_on,0,0,2,,,,,,,,,1,,,79,100
163680,note_on,20,0,8,,,,,,,,,7,,,74,100
163680,note_on,0,0,4,,,,,,,,,3,,,62,100
163680,note_on,0,0,4,,,,,,,,,3,,,50,100
163680,note_on,360,0,6,,,,,,,,,5,,,50,100
163680,note_on,0,0,4,,,,,,,,,3,,,57,0
163680,note_on,480,0,4,,,,,,,,,3,,,64,0
163680,note_on,0,0,5,,,,,,,,,4,,,62,100
163680,note_on,360,0,5,,,,,,,,,4,,,74,100
163680,note_on,20,0,11,,,,,,,,,11,,,46,100
163680,note_on,480,0,1,,,,,,,,,0,,,85,0
163680,note_on,0,0,1,,,,,,,,,0,,,86,100
163680,note_on,0,0,2,,,,,,,,,1,,,67,100
163680,note_on,20,0,10,,,,,,,,,10,,,58,100
163680,note_on,0,0,8,,,,,,,,,7,,,62,100
163710,note_on,30,0,7,,,,,,,,,6,,,79,0
163710,note_on,0,0,7,,,,,,,,,6,,,81,102
163740,note_on,30,0,7,,,,,,,,,6,,,81,0
163740,note_on,0,0,7,,,,,,,,,6,,,79,105
163770,note_on,30,0,7,,,,,,,,,6,,,79,0
163770,note_on,0,0,7,,,,,,,,,6,,,78,108
163800,note_on,0,0,8,,,,,,,,,7,,,74,0
163800,note_on,30,0,7,,,,,,,,,6,,,78,0
163800,note_on,120,0,10,,,,,,,,,10,,,58,0
163800,note_on,0,0,7,,,,,,,,,6,,,79,110
163800,note_on,120,0,5,,,,,,,,,4,,,62,0
163800,note_on,0,0,5,,,,,,,,,4,,,74,0
163800,note_on,120,0,6,,,,,,,,,5,,,50,0
163800,note_on,120,0,11,,,,,,,,,11,,,46,0
163800,note_on,120,0,3,,,,,,,,,2,,,58,0
163800,note_on,120,0,9,,,,,,,,,8,,,58,0
163800,note_on,120,0,8,,,,,,,,,7,,,62,0
163830,note_on,30,0,7,,,,,,,,,6,,,79,0
163830,note_on,0,0,7,,,,,,,,,6,,,81,113
163860,note_on,30,0,7,,,,,,,,,6,,,81,0
163860,note_on,0,0,7,,,,,,,,,6,,,82,116
163890,note_on,0,0,7,,,,,,,,,6,,,81,118
163890,note_on,30,0,7,,,,,,,,,6,,,82,0
163920,note_on,0,0,7,,,,,,,,,6,,,79,121
163920,note_on,30,0,7,,,,,,,,,6,,,81,0
163960,note_on,40,0,7,,,,,,,,,6,,,79,0
163980,note_on,20,0,7,,,,,,,,,6,,,79,100
163980,note_on,180,0,8,,,,,,,,,7,,,62,100
163980,note_on,0,0,8,,,,,,,,,7,,,74,100
163980,note_on,180,0,11,,,,,,,,,11,,,46,100
163980,note_on,180,0,9,,,,,,,,,8,,,58,100
163980,note_on,180,0,10,,,,,,,,,10,,,58,100
163980,note_on,180,0,3,,,,,,,,,2,,,58,100
164020,note_on,40,0,11,,,,,,,,,11,,,46,0
164020,note_on,40,0,7,,,,,,,,,6,,,79,0
164020,note_on,40,0,3,,,,,,,,,2,,,58,0
164020,note_on,40,0,10,,,,,,,,,10,,,58,0
164020,note_on,40,0,9,,,,,,,,,8,,,58,0
164020,note_on,0,0,8,,,,,,,,,7,,,62,0
164020,note_on,40,0,8,,,,,,,,,7,,,74,0
164040,note_on,0,0,8,,,,,,,,,7,,,74,100
164040,note_on,20,0,8,,,,,,,,,7,,,62,100
164040,note_on,20,0,9,,,,,,,,,8,,,58,100
164040,note_on,20,0,7,,,,,,,,,6,,,79,100
164040,note_on,20,0,3,,,,,,,,,2,,,58,100
164040,note_on,20,0,11,,,,,,,,,11,,,46,100
164040,note_on,20,0,10,,,,,,,,,10,,,58,100
164080,note_on,40,0,7,,,,,,,,,6,,,79,0
164080,note_on,40,0,11,,,,,,,,,11,,,46,0
164080,note_on,40,0,10,,,,,,,,,10,,,58,0
164080,note_on,40,0,3,,,,,,,,,2,,,58,0
164080,note_on,40,0,9,,,,,,,,,8,,,58,0
164080,note_on,40,0,8,,,,,,,,,7,,,74,0
164080,note_on,0,0,8,,,,,,,,,7,,,62,0
164100,note_on,20,0,7,,,,,,,,,6,,,79,100
164100,note_on,20,0,10,,,,,,,,,10,,,58,100
164100,note_on,20,0,11,,,,,,,,,11,,,46,100
164100,note_on,20,0,3,,,,,,,,,2,,,58,100
164100,note_on,20,0,9,,,,,,,,,8,,,58,100
164100,note_on,20,0,8,,,,,,,,,7,,,62,100
164100,note_on,0,0,8,,,,,,,,,7,,,74,100
164140,note_on,40,0,7,,,,,,,,,6,,,79,0
164140,note_on,40,0,10,,,,,,,,,10,,,58,0
164140,note_on,40,0,3,,,,,,,,,2,,,58,0
164140,note_on,0,0,8,,,,,,,,,7,,,62,0
164140,note_on,40,0,9,,,,,,,,,8,,,58,0
164140,note_on,40,0,8,,,,,,,,,7,,,74,0
164140,note_on,40,0,11,,,,,,,,,11,,,46,0
164160,note_on,480,0,4,,,,,,,,,3,,,62,0
164160,note_on,0,0,1,,,,,,,,,0,,,79,0
164160,note_on,480,0,1,,,,,,,,,0,,,86,0
164160,note_on,360,0,5,,,,,,,,,4,,,62,100
164160,note_on,0,0,5,,,,,,,,,4,,,74,100
164160,note_on,20,0,7,,,,,,,,,6,,,79,100
164160,note_on,20,0,10,,,,,,,,,10,,,59,100
164160,note_on,20,0,11,,,,,,,,,11,,,47,100
164160,note_on,0,0,1,,,,,,,,,0,,,86,100
164160,note_on,20,0,3,,,,,,,,,2,,,59,100
164160,note_on,0,0,1,,,,,,,,,0,,,89,100
164160,note_on,0,0,4,,,,,,,,,3,,,50,0
164160,note_on,0,0,4,,,,,,,,,3,,,62,100
164160,note_on,0,0,4,,,,,,,,,3,,,65,100
164160,note_on,480,0,2,,,,,,,,,1,,,67,0
164160,note_on,0,0,2,,,,,,,,,1,,,77,100
164160,note_on,20,0,8,,,,,,,,,7,,,77,100
164160,note_on,0,0,8,,,,,,,,,7,,,74,100
164160,note_on,20,0,9,,,,,,,,,8,,,59,100
164190,note_on,0,0,7,,,,,,,,,6,,,79,102
164190,note_on,30,0,7,,,,,,,,,6,,,79,0
164220,note_on,30,0,7,,,,,,,,,6,,,79,0
164220,note_on,0,0,7,,,,,,,,,6,,,83,105
164250,note_on,30,0,7,,,,,,,,,6,,,83,0
164250,note_on,0,0,7,,,,,,,,,6,,,83,108
164280,note_on,0,0,8,,,,,,,,,7,,,77,0
164280,note_on,120,0,8,,,,,,,,,7,,,74,0
164280,note_on,120,0,5,,,,,,,,,4,,,74,0
164280,note_on,0,0,5,,,,,,,,,4,,,62,0
164280,note_on,120,0,3,,,,,,,,,2,,,59,0
164280,note_on,30,0,7,,,,,,,,,6,,,83,0
164280,note_on,120,0,9,,,,,,,,,8,,,59,0
164280,note_on,120,0,11,,,,,,,,,11,,,47,0
164280,note_on,120,0,10,,,,,,,,,10,,,59,0
164280,note_on,0,0,7,,,,,,,,,6,,,86,110
164310,note_on,0,0,7,,,,,,,,,6,,,86,113
164310,note_on,30,0,7,,,,,,,,,6,,,86,0
164340,note_on,0,0,7,,,,,,,,,6,,,83,116
164340,note_on,30,0,7,,,,,,,,,6,,,86,0
164370,note_on,30,0,7,,,,,,,,,6,,,83,0
164370,note_on,0,0,7,,,,,,,,,6,,,83,118
164400,note_on,0,0,7,,,,,,,,,6,,,79,121
164400,note_on,30,0,7,,,,,,,,,6,,,83,0
164440,note_on,40,0,7,,,,,,,,,6,,,79,0
164460,note_on,180,0,11,,,,,,,,,11,,,47,100
164460,note_on,180,0,8,,,,,,,,,7,,,77,100
164460,note_on,20,0,7,,,,,,,,,6,,,79,100
164460,note_on,0,0,8,,,,,,,,,7,,,74,100
164460,note_on,180,0,9,,,,,,,,,8,,,59,100
164460,note_on,180,0,10,,,,,,,,,10,,,59,100
164460,note_on,180,0,3,,,,,,,,,2,,,59,100
164500,note_on,40,0,3,,,,,,,,,2,,,59,0
164500,note_on,40,0,9,,,,,,,,,8,,,59,0
164500,note_on,40,0,10,,,,,,,,,10,,,59,0
164500,note_on,40,0,8,,,,,,,,,7,,,74,0
164500,note_on,40,0,7,,,,,,,,,6,,,79,0
164500,note_on,40,0,11,,,,,,,,,11,,,47,0
164500,note_on,0,0,8,,,,,,,,,7,,,77,0
164520,note_on,20,0,11,,,,,,,,,11,,,47,100
164520,note_on,20,0,8,,,,,,,,,7,,,77,100
164520,note_on,0,0,8,,,,,,,,,7,,,74,100
164520,note_on,20,0,9,,,,,,,,,8,,,59,100
164520,note_on,20,0,3,,,,,,,,,2,,,59,100
164520,note_on,20,0,7,,,,,,,,,6,,,79,100
164520,note_on,20,0,10,,,,,,,,,10,,,59,100
164560,note_on,40,0,10,,,,,,,,,10,,,59,0
164560,note_on,40,0,3,,,,,,,,,2,,,59,0
164560,note_on,40,0,9,,,,,,,,,8,,,59,0
164560,note_on,40,0,11,,,,,,,,,11,,,47,0
164560,note_on,40,0,7,,,,,,,,,6,,,79,0
164560,note_on,40,0,8,,,,,,,,,7,,,74,0
164560,note_on,0,0,8,,,,,,,,,7,,,77,0
164580,note_on,20,0,11,,,,,,,,,11,,,47,100
164580,note_on,20,0,8,,,,,,,,,7,,,77,100
164580,note_on,20,0,10,,,,,,,,,10,,,59,100
164580,note_on,20,0,7,,,,,,,,,6,,,79,100
164580,note_on,20,0,9,,,,,,,,,8,,,59,100
164580,note_on,0,0,8,,,,,,,,,7,,,74,100
164580,note_on,20,0,3,,,,,,,,,2,,,59,100
164620,note_on,40,0,3,,,,,,,,,2,,,59,0
164620,note_on,40,0,9,,,,,,,,,8,,,59,0
164620,note_on,40,0,11,,,,,,,,,11,,,47,0
164620,note_on,40,0,8,,,,,,,,,7,,,74,0
164620,note_on,0,0,8,,,,,,,,,7,,,77,0
164620,note_on,40,0,10,,,,,,,,,10,,,59,0
164620,note_on,40,0,7,,,,,,,,,6,,,79,0
164640,note_on,0,0,1,,,,,,,,,0,,,88,100
164640,note_on,20,0,10,,,,,,,,,10,,,60,100
164640,note_on,480,0,4,,,,,,,,,3,,,62,0
164640,note_on,0,0,4,,,,,,,,,3,,,64,100
164640,note_on,20,0,11,,,,,,,,,11,,,48,100
164640,note_on,0,0,4,,,,,,,,,3,,,65,0
164640,note_on,0,0,4,,,,,,,,,3,,,60,100
164640,note_on,20,0,3,,,,,,,,,2,,,60,100
164640,note_on,20,0,9,,,,,,,,,8,,,60,100
164640,note_on,0,0,2,,,,,,,,,1,,,76,100
164640,note_on,0,0,1,,,,,,,,,0,,,86,0
164640,note_on,20,0,7,,,,,,,,,6,,,79,100
164640,note_on,480,0,2,,,,,,,,,1,,,77,0
164640,note_on,20,0,8,,,,,,,,,7,,,72,100
164640,note_on,0,0,8,,,,,,,,,7,,,76,100
164640,note_on,360,0,5,,,,,,,,,4,,,76,100
164640,note_on,0,0,1,,,,,,,,,0,,,84,100
164640,note_on,480,0,1,,,,,,,,,0,,,89,0
164670,note_on,30,0,7,,,,,,,,,6,,,79,0
164670,note_on,0,0,7,,,,,,,,,6,,,79,102
164700,note_on,0,0,7,,,,,,,,,6,,,84,105
164700,note_on,30,0,7,,,,,,,,,6,,,79,0
164730,note_on,0,0,7,,,,,,,,,6,,,84,108
164730,note_on,30,0,7,,,,,,,,,6,,,84,0
164760,note_on,30,0,7,,,,,,,,,6,,,84,0
164760,note_on,120,0,5,,,,,,,,,4,,,76,0
164760,note_on,120,0,11,,,,,,,,,11,,,48,0
164760,note_on,0,0,8,,,,,,,,,7,,,72,0
164760,note_on,120,0,8,,,,,,,,,7,,,76,0
164760,note_on,120,0,9,,,,,,,,,8,,,60,0
164760,note_on,120,0,3,,,,,,,,,2,,,60,0
164760,note_on,120,0,10,,,,,,,,,10,,,60,0
164760,note_on,0,0,7,,,,,,,,,6,,,88,110
164790,note_on,0,0,7,,,,,,,,,6,,,88,113
164790,note_on,30,0,7,,,,,,,,,6,,,88,0
164820,note_on,0,0,7,,,,,,,,,6,,,84,116
164820,note_on,30,0,7,,,,,,,,,6,,,88,0
164850,note_on,30,0,7,,,,,,,,,6,,,84,0
164850,note_on,0,0,7,,,,,,,,,6,,,84,118
164880,note_on,0,0,7,,,,,,,,,6,,,79,121
164880,note_on,30,0,7,,,,,,,,,6,,,84,0
164920,note_on,40,0,7,,,,,,,,,6,,,79,0
164940,note_on,180,0,8,,,,,,,,,7,,,72,100
164940,note_on,0,0,8,,,,,,,,,7,,,76,100
164940,note_on,20,0,7,,,,,,,,,6,,,79,100
164940,note_on,180,0,9,,,,,,,,,8,,,60,100
164940,note_on,180,0,11,,,,,,,,,11,,,36,100
164940,note_on,180,0,10,,,,,,,,,10,,,48,100
164940,note_on,180,0,3,,,,,,,,,2,,,48,100
164980,note_on,0,0,8,,,,,,,,,7,,,72,0
164980,note_on,40,0,8,,,,,,,,,7,,,76,0
164980,note_on,40,0,11,,,,,,,,,11,,,36,0
164980,note_on,40,0,7,,,,,,,,,6,,,79,0
164980,note_on,40,0,10,,,,,,,,,10,,,48,0
164980,note_on,40,0,3,,,,,,,,,2,,,48,0
164980,note_on,40,0,9,,,,,,,,,8,,,60,0
165000,note_on,20,0,9,,,,,,,,,8,,,60,100
165000,note_on,0,0,8,,,,,,,,,7,,,76,100
165000,note_on,20,0,11,,,,,,,,,11,,,36,100
165000,note_on,20,0,3,,,,,,,,,2,,,48,100
165000,note_on,20,0,7,,,,,,,,,6,,,79,100
165000,note_on,20,0,10,,,,,,,,,10,,,48,100
165000,note_on,20,0,8,,,,,,,,,7,,,72,100
165040,note_on,40,0,3,,,,,,,,,2,,,48,0
165040,note_on,40,0,10,,,,,,,,,10,,,48,0
165040,note_on,40,0,11,,,,,,,,,11,,,36,0
165040,note_on,0,0,8,,,,,,,,,7,,,72,0
165040,note_on,40,0,9,,,,,,,,,8,,,60,0
165040,note_on,40,0,7,,,,,,,,,6,,,79,0
165040,note_on,40,0,8,,,,,,,,,7,,,76,0
165060,note_on,20,0,3,,,,,,,,,2,,,48,100
165060,note_on,20,0,8,,,,,,,,,7,,,72,100
165060,note_on,20,0,9,,,,,,,,,8,,,60,100
165060,note_on,20,0,7,,,,,,,,,6,,,79,100
165060,note_on,0,0,8,,,,,,,,,7,,,76,100
165060,note_on,20,0,10,,,,,,,,,10,,,48,100
165060,note_on,20,0,11,,,,,,,,,11,,,36,100
165100,note_on,40,0,7,,,,,,,,,6,,,79,0
165100,note_on,40,0,10,,,,,,,,,10,,,48,0
165100,note_on,40,0,11,,,,,,,,,11,,,36,0
165100,note_on,40,0,9,,,,,,,,,8,,,60,0
165100,note_on,40,0,3,,,,,,,,,2,,,48,0
165100,note_on,0,0,8,,,,,,,,,7,,,72,0
165100,note_on,40,0,8,,,,,,,,,7,,,76,0
165120,note_on,20,0,11,,,,,,,,,11,,,37,100
165120,note_on,0,0,2,,,,,,,,,1,,,79,100
165120,note_on,0,0,4,,,,,,,,,3,,,60,0
165120,note_on,0,0,4,,,,,,,,,3,,,61,100
165120,note_on,20,0,9,,,,,,,,,8,,,61,100
165120,note_on,0,0,2,,,,,,,,,1,,,82,100
165120,note_on,480,0,4,,,,,,,,,3,,,64,0
165120,note_on,480,0,2,,,,,,,,,1,,,76,0
165120,note_on,0,0,8,,,,,,,,,7,,,79,100
165120,note_on,20,0,8,,,,,,,,,7,,,70,100
165120,note_on,20,0,10,,,,,,,,,10,,,49,100
165120,note_on,0,0,2,,,,,,,,,1,,,79,0
165120,note_on,20,0,7,,,,,,,,,6,,,88,100
165120,note_on,0,0,1,,,,,,,,,0,,,88,100
165120,note_on,0,0,1,,,,,,,,,0,,,91,100
165120,note_on,0,0,1,,,,,,,,,0,,,88,0
165120,note_on,480,0,1,,,,,,,,,0,,,84,0
165120,note_on,20,0,3,,,,,,,,,2,,,49,100
165150,note_on,0,0,8,,,,,,,,,7,,,70,100
165150,note_on,30,0,8,,,,,,,,,7,,,79,0
165150,note_on,0,0,8,,,,,,,,,7,,,70,0
165150,note_on,0,0,8,,,,,,,,,7,,,79,100
165160,note_on,40,0,9,,,,,,,,,8,,,61,0
165160,note_on,40,0,10,,,,,,,,,10,,,49,0
165160,note_on,40,0,11,,,,,,,,,11,,,37,0
165160,note_on,40,0,3,,,,,,,,,2,,,49,0
165180,note_on,30,0,8,,,,,,,,,7,,,79,0
165180,note_on,20,0,10,,,,,,,,,10,,,49,101
165180,note_on,20,0,11,,,,,,,,,11,,,37,101
165180,note_on,0,0,8,,,,,,,,,7,,,70,101
165180,note_on,0,0,8,,,,,,,,,7,,,70,0
165180,note_on,0,0,8,,,,,,,,,7,,,79,101
165180,note_on,20,0,9,,,,,,,,,8,,,61,101
165180,note_on,20,0,3,,,,,,,,,2,,,49,101
165210,note_on,30,0,8,,,,,,,,,7,,,79,0
165210,note_on,0,0,8,,,,,,,,,7,,,70,0
165210,note_on,0,0,8,,,,,,,,,7,,,70,102
165210,note_on,0,0,8,,,,,,,,,7,,,79,102
165220,note_on,40,0,3,,,,,,,,,2,,,49,0
165220,note_on,40,0,11,,,,,,,,,11,,,37,0
165220,note_on,40,0,9,,,,,,,,,8,,,61,0
165220,note_on,40,0,10,,,,,,,,,10,,,49,0
165240,note_on,20,0,3,,,,,,,,,2,,,49,103
165240,note_on,30,0,8,,,,,,,,,7,,,79,0
165240,note_on,20,0,10,,,,,,,,,10,,,49,103
165240,note_on,0,0,8,,,,,,,,,7,,,70,0
165240,note_on,20,0,9,,,,,,,,,8,,,61,103
165240,note_on,0,0,8,,,,,,,,,7,,,79,103
165240,note_on,20,0,11,,,,,,,,,11,,,37,103
165240,note_on,0,0,8,,,,,,,,,7,,,70,103
165270,note_on,0,0,8,,,,,,,,,7,,,70,104
165270,note_on,0,0,8,,,,,,,,,7,,,70,0
165270,note_on,30,0,8,,,,,,,,,7,,,79,0
165270,note_on,0,0,8,,,,,,,,,7,,,79,104
165280,note_on,40,0,10,,,,,,,,,10,,,49,0
165280,note_on,40,0,9,,,,,,,,,8,,,61,0
165280,note_on,40,0,11,,,,,,,,,11,,,37,0
165280,note_on,40,0,3,,,,,,,,,2,,,49,0
165300,note_on,0,0,8,,,,,,,,,7,,,70,105
165300,note_on,20,0,11,,,,,,,,,11,,,37,105
165300,note_on,20,0,9,,,,,,,,,8,,,61,105
165300,note_on,20,0,3,,,,,,,,,2,,,49,105
165300,note_on,30,0,8,,,,,,,,,7,,,79,0
165300,note_on,0,0,8,,,,,,,,,7,,,70,0
165300,note_on,0,0,8,,,,,,,,,7,,,79,105
165300,note_on,20,0,10,,,,,,,,,10,,,49,105
165330,note_on,210,0,7,,,,,,,,,6,,,88,0
165330,note_on,30,0,8,,,,,,,,,7,,,79,0
165330,note_on,0,0,8,,,,,,,,,7,,,70,0
165330,note_on,0,0,8,,,,,,,,,7,,,70,105
165330,note_on,0,0,8,,,,,,,,,7,,,79,105
165330,note_on,0,0,7,,,,,,,,,6,,,79,105
165340,note_on,40,0,9,,,,,,,,,8,,,61,0
165340,note_on,40,0,11,,,,,,,,,11,,,37,0
165340,note_on,40,0,10,,,,,,,,,10,,,49,0
165340,note_on,40,0,3,,,,,,,,,2,,,49,0
165360,note_on,0,0,1,,,,,,,,,0,,,86,106
165360,note_on,20,0,9,,,,,,,,,8,,,62,106
165360,note_on,0,0,4,,,,,,,,,3,,,62,106
165360,note_on,0,0,7,,,,,,,,,6,,,86,106
165360,note_on,30,0,7,,,,,,,,,6,,,79,0
165360,note_on,30,0,8,,,,,,,,,7,,,79,0
165360,note_on,0,0,8,,,,,,,,,7,,,70,0
165360,note_on,20,0,10,,,,,,,,,10,,,50,106
165360,note_on,20,0,3,,,,,,,,,2,,,50,106
165360,note_on,20,0,11,,,,,,,,,11,,,38,106
165360,note_on,0,0,8,,,,,,,,,7,,,70,106
165360,note_on,0,0,8,,,,,,,,,7,,,79,106
165360,note_on,240,0,4,,,,,,,,,3,,,61,0
165360,note_on,240,0,1,,,,,,,,,0,,,88,0
165390,note_on,0,0,8,,,,,,,,,7,,,70,0
165390,note_on,30,0,8,,,,,,,,,7,,,79,0
165390,note_on,0,0,8,,,,,,,,,7,,,79,107
165390,note_on,0,0,8,,,,,,,,,7,,,70,107
165400,note_on,40,0,9,,,,,,,,,8,,,62,0
165400,note_on,40,0,3,,,,,,,,,2,,,50,0
165400,note_on,40,0,11,,,,,,,,,11,,,38,0
165400,note_on,40,0,10,,,,,,,,,10,,,50,0
165420,note_on,20,0,11,,,,,,,,,11,,,38,108
165420,note_on,20,0,9,,,,,,,,,8,,,62,108
165420,note_on,20,0,3,,,,,,,,,2,,,50,108
165420,note_on,0,0,8,,,,,,,,,7,,,79,108
165420,note_on,20,0,10,,,,,,,,,10,,,50,108
165420,note_on,30,0,8,,,,,,,,,7,,,79,0
165420,note_on,0,0,8,,,,,,,,,7,,,70,0
165420,note_on,0,0,8,,,,,,,,,7,,,70,108
165450,note_on,30,0,8,,,,,,,,,7,,,79,0
165450,note_on,0,0,8,,,,,,,,,7,,,79,109
165450,note_on,0,0,8,,,,,,,,,7,,,70,0
165450,note_on,0,0,8,,,,,,,,,7,,,70,109
165460,note_on,40,0,3,,,,,,,,,2,,,50,0
165460,note_on,40,0,11,,,,,,,,,11,,,38,0
165460,note_on,40,0,9,,,,,,,,,8,,,62,0
165460,note_on,40,0,10,,,,,,,,,10,,,50,0
165480,note_on,20,0,11,,,,,,,,,11,,,38,110
165480,note_on,0,0,8,,,,,,,,,7,,,70,110
165480,note_on,0,0,8,,,,,,,,,7,,,70,0
165480,note_on,30,0,8,,,,,,,,,7,,,79,0
165480,note_on,20,0,3,,,,,,,,,2,,,50,110
165480,note_on,0,0,8,,,,,,,,,7,,,79,110
165480,note_on,20,0,10,,,,,,,,,10,,,50,110
165480,note_on,20,0,9,,,,,,,,,8,,,62,110
165510,note_on,0,0,8,,,,,,,,,7,,,79,110
165510,note_on,0,0,8,,,,,,,,,7,,,70,110
165510,note_on,0,0,8,,,,,,,,,7,,,70,0
165510,note_on,30,0,8,,,,,,,,,7,,,79,0
165520,note_on,40,0,10,,,,,,,,,10,,,50,0
165520,note_on,40,0,3,,,,,,,,,2,,,50,0
165520,note_on,40,0,11,,,,,,,,,11,,,38,0
165520,note_on,40,0,9,,,,,,,,,8,,,62,0
165540,note_on,0,0,8,,,,,,,,,7,,,70,111
165540,note_on,20,0,10,,,,,,,,,10,,,50,111
165540,note_on,0,0,8,,,,,,,,,7,,,70,0
165540,note_on,0,0,8,,,,,,,,,7,,,79,111
165540,note_on,20,0,11,,,,,,,,,11,,,38,111
165540,note_on,20,0,3,,,,,,,,,2,,,50,111
165540,note_on,20,0,9,,,,,,,,,8,,,62,111
165540,note_on,30,0,8,,,,,,,,,7,,,79,0
165570,note_on,30,0,8,,,,,,,,,7,,,79,0
165570,note_on,0,0,8,,,,,,,,,7,,,79,112
165570,note_on,0,0,8,,,,,,,,,7,,,70,112
165570,note_on,0,0,8,,,,,,,,,7,,,70,0
165570,note_on,210,0,7,,,,,,,,,6,,,86,0
165570,note_on,0,0,7,,,,,,,,,6,,,79,112
165580,note_on,40,0,10,,,,,,,,,10,,,50,0
165580,note_on,40,0,3,,,,,,,,,2,,,50,0
165580,note_on,40,0,9,,,,,,,,,8,,,62,0
165580,note_on,40,0,11,,,,,,,,,11,,,38,0
165600,note_on,0,0,1,,,,,,,,,0,,,85,113
165600,note_on,0,0,4,,,,,,,,,3,,,63,113
165600,note_on,20,0,3,,,,,,,,,2,,,51,113
165600,note_on,20,0,11,,,,,,,,,11,,,39,113
165600,note_on,240,0,1,,,,,,,,,0,,,86,0
165600,note_on,240,0,4,,,,,,,,,3,,,62,0
165600,note_on,0,0,8,,,,,,,,,7,,,79,113
165600,note_on,20,0,10,,,,,,,,,10,,,51,113
165600,note_on,20,0,9,,,,,,,,,8,,,63,113
165600,note_on,30,0,8,,,,,,,,,7,,,79,0
165600,note_on,0,0,8,,,,,,,,,7,,,70,0
165600,note_on,0,0,8,,,,,,,,,7,,,70,113
165600,note_on,30,0,7,,,,,,,,,6,,,79,0
165600,note_on,0,0,7,,,,,,,,,6,,,85,113
165630,note_on,30,0,8,,,,,,,,,7,,,79,0
165630,note_on,0,0,8,,,,,,,,,7,,,79,114
165630,note_on,0,0,8,,,,,,,,,7,,,70,114
165630,note_on,0,0,8,,,,,,,,,7,,,70,0
165640,note_on,40,0,3,,,,,,,,,2,,,51,0
165640,note_on,40,0,11,,,,,,,,,11,,,39,0
165640,note_on,40,0,9,,,,,,,,,8,,,63,0
165640,note_on,40,0,10,,,,,,,,,10,,,51,0
165660,note_on,20,0,10,,,,,,,,,10,,,51,115
165660,note_on,30,0,8,,,,,,,,,7,,,79,0
165660,note_on,20,0,11,,,,,,,,,11,,,39,115
165660,note_on,20,0,3,,,,,,,,,2,,,51,115
165660,note_on,60,0,7,,,,,,,,,6,,,85,0
165660,note_on,0,0,8,,,,,,,,,7,,,70,0
165660,note_on,0,0,8,,,,,,,,,7,,,79,115
165660,note_on,0,0,8,,,,,,,,,7,,,70,115
165660,note_on,20,0,9,,,,,,,,,8,,,63,115
165690,note_on,0,0,8,,,,,,,,,7,,,70,0
165690,note_on,30,0,8,,,,,,,,,7,,,79,0
165690,note_on,0,0,8,,,,,,,,,7,,,70,116
165690,note_on,0,0,8,,,,,,,,,7,,,79,116
165700,note_on,40,0,3,,,,,,,,,2,,,51,0
165700,note_on,40,0,11,,,,,,,,,11,,,39,0
165700,note_on,40,0,9,,,,,,,,,8,,,63,0
165700,note_on,40,0,10,,,,,,,,,10,,,51,0
165720,note_on,20,0,9,,,,,,,,,8,,,63,116
165720,note_on,20,0,10,,,,,,,,,10,,,51,116
165720,note_on,60,0,7,,,,,,,,,6,,,85,116
165720,note_on,0,0,8,,,,,,,,,7,,,79,116
165720,note_on,20,0,3,,,,,,,,,2,,,51,116
165720,note_on,0,0,8,,,,,,,,,7,,,70,116
165720,note_on,20,0,11,,,,,,,,,11,,,39,116
165720,note_on,0,0,8,,,,,,,,,7,,,70,0
165720,note_on,30,0,8,,,,,,,,,7,,,79,0
165750,note_on,30,0,8,,,,,,,,,7,,,79,0
165750,note_on,0,0,8,,,,,,,,,7,,,70,0
165750,note_on,0,0,8,,,,,,,,,7,,,70,117
165750,note_on,0,0,8,,,,,,,,,7,,,79,117
165760,note_on,40,0,11,,,,,,,,,11,,,39,0
165760,note_on,40,0,9,,,,,,,,,8,,,63,0
165760,note_on,40,0,3,,,,,,,,,2,,,51,0
165760,note_on,40,0,10,,,,,,,,,10,,,51,0
165780,note_on,0,0,8,,,,,,,,,7,,,79,118
165780,note_on,0,0,8,,,,,,,,,7,,,70,118
165780,note_on,30,0,8,,,,,,,,,7,,,79,0
165780,note_on,20,0,9,,,,,,,,,8,,,63,118
165780,note_on,0,0,8,,,,,,,,,7,,,70,0
165780,note_on,20,0,3,,,,,,,,,2,,,51,118
165780,note_on,20,0,10,,,,,,,,,10,,,51,118
165780,note_on,20,0,11,,,,,,,,,11,,,39,118
165810,note_on,30,0,8,,,,,,,,,7,,,79,0
165810,note_on,0,0,8,,,,,,,,,7,,,70,0
165810,note_on,0,0,8,,,,,,,,,7,,,70,119
165810,note_on,0,0,8,,,,,,,,,7,,,79,119
165820,note_on,40,0,3,,,,,,,,,2,,,51,0
165820,note_on,40,0,9,,,,,,,,,8,,,63,0
165820,note_on,40,0,10,,,,,,,,,10,,,51,0
165820,note_on,40,0,11,,,,,,,,,11,,,39,0
165840,note_on,0,0,8,,,,,,,,,7,,,79,120
165840,note_on,120,0,7,,,,,,,,,6,,,85,0
165840,note_on,0,0,8,,,,,,,,,7,,,70,0
165840,note_on,30,0,8,,,,,,,,,7,,,79,0
165840,note_on,0,0,8,,,,,,,,,7,,,69,120
165840,note_on,20,0,9,,,,,,,,,8,,,64,120
165840,note_on,240,0,4,,,,,,,,,3,,,63,0
165840,note_on,0,0,7,,,,,,,,,6,,,85,120
165840,note_on,0,0,4,,,,,,,,,3,,,57,120
165840,note_on,20,0,11,,,,,,,,,11,,,40,120
165840,note_on,20,0,3,,,,,,,,,2,,,52,120
165840,note_on,1080,0,5,,,,,,,,,4,,,69,120
165840,note_on,0,0,4,,,,,,,,,3,,,64,120
165840,note_on,2040,0,6,,,,,,,,,5,,,45,120
165840,note_on,0,0,2,,,,,,,,,1,,,81,120
165840,note_on,720,0,2,,,,,,,,,1,,,82,0
165840,note_on,20,0,10,,,,,,,,,10,,,52,120
165855,note_on,15,0,6,,,,,,,,,5,,,45,0
165855,note_on,0,0,6,,,,,,,,,5,,,45,120
165870,note_on,0,0,8,,,,,,,,,7,,,69,0
165870,note_on,0,0,8,,,,,,,,,7,,,69,121
165870,note_on,0,0,8,,,,,,,,,7,,,79,121
165870,note_on,15,0,6,,,,,,,,,5,,,45,0
165870,note_on,0,0,6,,,,,,,,,5,,,45,121
165870,note_on,30,0,8,,,,,,,,,7,,,79,0
165880,note_on,40,0,10,,,,,,,,,10,,,52,0
165880,note_on,40,0,9,,,,,,,,,8,,,64,0
165880,note_on,40,0,11,,,,,,,,,11,,,40,0
165880,note_on,40,0,3,,,,,,,,,2,,,52,0
165885,note_on,0,0,6,,,,,,,,,5,,,45,121
165885,note_on,15,0,6,,,,,,,,,5,,,45,0
165900,note_on,20,0,10,,,,,,,,,10,,,52,121
165900,note_on,30,0,8,,,,,,,,,7,,,79,0
165900,note_on,0,0,8,,,,,,,,,7,,,69,0
165900,note_on,20,0,9,,,,,,,,,8,,,64,121
165900,note_on,0,0,8,,,,,,,,,7,,,69,121
165900,note_on,20,0,11,,,,,,,,,11,,,40,121
165900,note_on,20,0,3,,,,,,,,,2,,,52,121
165900,note_on,0,0,8,,,,,,,,,7,,,79,121
165900,note_on,15,0,6,,,,,,,,,5,,,45,0
165900,note_on,0,0,6,,,,,,,,,5,,,45,121
165915,note_on,0,0,6,,,,,,,,,5,,,45,122
165915,note_on,15,0,6,,,,,,,,,5,,,45,0
165930,note_on,0,0,8,,,,,,,,,7,,,79,122
165930,note_on,30,0,8,,,,,,,,,7,,,79,0
165930,note_on,0,0,8,,,,,,,,,7,,,69,0
165930,note_on,15,0,6,,,,,,,,,5,,,45,0
165930,note_on,0,0,6,,,,,,,,,5,,,45,122
165930,note_on,0,0,7,,,,,,,,,6,,,85,122
165930,note_on,0,0,8,,,,,,,,,7,,,69,122
165930,note_on,90,0,7,,,,,,,,,6,,,85,0
165940,note_on,40,0,3,,,,,,,,,2,,,52,0
165940,note_on,40,0,11,,,,,,,,,11,,,40,0
165940,note_on,40,0,9,,,,,,,,,8,,,64,0
165940,note_on,40,0,10,,,,,,,,,10,,,52,0
165945,note_on,0,0,6,,,,,,,,,5,,,45,123
165945,note_on,15,0,6,,,,,,,,,5,,,45,0
165960,note_on,0,0,7,,,,,,,,,6,,,85,123
165960,note_on,30,0,8,,,,,,,,,7,,,79,0
165960,note_on,0,0,8,,,,,,,,,7,,,69,123
165960,note_on,0,0,8,,,,,,,,,7,,,79,123
165960,note_on,20,0,9,,,,,,,,,8,,,64,123
165960,note_on,20,0,11,,,,,,,,,11,,,40,123
165960,note_on,30,0,7,,,,,,,,,6,,,85,0
165960,note_on,20,0,3,,,,,,,,,2,,,52,123
165960,note_on,0,0,8,,,,,,,,,7,,,69,0
165960,note_on,20,0,10,,,,,,,,,10,,,52,123
165960,note_on,15,0,6,,,,,,,,,5,,,45,0
165960,note_on,0,0,6,,,,,,,,,5,,,45,123
165975,note_on,0,0,7,,,,,,,,,6,,,83,124
165975,note_on,15,0,6,,,,,,,,,5,,,45,0
165975,note_on,15,0,7,,,,,,,,,6,,,85,0
165975,note_on,0,0,6,,,,,,,,,5,,,45,124
165990,note_on,0,0,8,,,,,,,,,7,,,79,124
165990,note_on,15,0,7,,,,,,,,,6,,,83,0
165990,note_on,0,0,8,,,,,,,,,7,,,69,124
165990,note_on,0,0,8,,,,,,,,,7,,,69,0
165990,note_on,30,0,8,,,,,,,,,7,,,79,0
165990,note_on,15,0,6,,,,,,,,,5,,,45,0
165990,note_on,0,0,6,,,,,,,,,5,,,45,124
165990,note_on,0,0,7,,,,,,,,,6,,,85,124
166000,note_on,40,0,3,,,,,,,,,2,,,52,0
166000,note_on,40,0,11,,,,,,,,,11,,,40,0
166000,note_on,40,0,10,,,,,,,,,10,,,52,0
166000,note_on,40,0,9,,,,,,,,,8,,,64,0
166005,note_on,0,0,7,,,,,,,,,6,,,83,124
166005,note_on,15,0,7,,,,,,,,,6,,,85,0
166005,note_on,15,0,6,,,,,,,,,5,,,45,0
166005,note_on,0,0,6,,,,,,,,,5,,,45,124
166020,note_on,0,0,7,,,,,,,,,6,,,83,125
166020,note_on,20,0,9,,,,,,,,,8,,,64,125
166020,note_on,20,0,3,,,,,,,,,2,,,52,125
166020,note_on,0,0,8,,,,,,,,,7,,,79,125
166020,note_on,0,0,8,,,,,,,,,7,,,69,125
166020,note_on,0,0,8,,,,,,,,,7,,,69,0
166020,note_on,30,0,8,,,,,,,,,7,,,79,0
166020,note_on,20,0,10,,,,,,,,,10,,,52,125
166020,note_on,15,0,6,,,,,,,,,5,,,45,0
166020,note_on,0,0,6,,,,,,,,,5,,,45,125
166020,note_on,20,0,11,,,,,,,,,11,,,40,125
166020,note_on,15,0,7,,,,,,,,,6,,,83,0
166035,note_on,15,0,6,,,,,,,,,5,,,45,0
166035,note_on,0,0,6,,,,,,,,,5,,,45,125
166050,note_on,0,0,7,,,,,,,,,6,,,85,126
166050,note_on,0,0,8,,,,,,,,,7,,,79,126
166050,note_on,30,0,7,,,,,,,,,6,,,83,0
166050,note_on,30,0,8,,,,,,,,,7,,,79,0
166050,note_on,0,0,8,,,,,,,,,7,,,69,0
166050,note_on,0,0,8,,,,,,,,,7,,,69,126
166050,note_on,0,0,6,,,,,,,,,5,,,45,126
166050,note_on,15,0,6,,,,,,,,,5,,,45,0
166060,note_on,40,0,11,,,,,,,,,11,,,40,0
166060,note_on,40,0,9,,,,,,,,,8,,,64,0
166060,note_on,40,0,3,,,,,,,,,2,,,52,0
166060,note_on,40,0,10,,,,,,,,,10,,,52,0
166065,note_on,0,0,6,,,,,,,,,5,,,45,126
166065,note_on,15,0,6,,,,,,,,,5,,,45,0
166080,note_on,30,0,8,,,,,,,,,7,,,79,0
166080,note_on,0,0,4,,,,,,,,,3,,,62,127
166080,note_on,20,0,9,,,,,,,,,8,,,66,127
166080,note_on,0,0,8,,,,,,,,,7,,,69,0
166080,note_on,0,0,1,,,,,,,,,0,,,91,0
166080,note_on,0,0,8,,,,,,,,,7,,,69,127
166080,note_on,0,0,5,,,,,,,,,4,,,74,127
166080,note_on,480,0,1,,,,,,,,,0,,,85,0
166080,note_on,240,0,5,,,,,,,,,4,,,69,0
166080,note_on,0,0,5,,,,,,,,,4,,,62,127
166080,note_on,20,0,3,,,,,,,,,2,,,54,127
166080,note_on,0,0,4,,,,,,,,,3,,,57,0
166080,note_on,240,0,4,,,,,,,,,3,,,64,0
166080,note_on,0,0,7,,,,,,,,,6,,,86,127
166080,note_on,30,0,7,,,,,,,,,6,,,85,0
166080,note_on,0,0,8,,,,,,,,,7,,,81,127
166080,note_on,20,0,10,,,,,,,,,10,,,54,127
166080,note_on,0,0,4,,,,,,,,,3,,,66,127
166080,note_on,0,0,2,,,,,,,,,1,,,78,127
166080,note_on,0,0,1,,,,,,,,,0,,,90,127
166080,note_on,0,0,1,,,,,,,,,0,,,86,127
166080,note_on,240,0,2,,,,,,,,,1,,,79,0
166080,note_on,20,0,11,,,,,,,,,11,,,42,127
166080,note_on,15,0,6,,,,,,,,,5,,,45,0
166080,note_on,0,0,6,,,,,,,,,5,,,50,127
166170,note_on,0,0,2,,,,,,,,,1,,,81,0
166170,note_on,90,0,2,,,,,,,,,1,,,78,0
166170,note_on,0,0,8,,,,,,,,,7,,,81,0
166170,note_on,0,0,1,,,,,,,,,0,,,90,0
166170,note_on,90,0,4,,,,,,,,,3,,,62,0
166170,note_on,0,0,4,,,,,,,,,3,,,66,0
166170,note_on,90,0,7,,,,,,,,,6,,,86,0
166170,note_on,90,0,3,,,,,,,,,2,,,54,0
166170,note_on,90,0,11,,,,,,,,,11,,,42,0
166170,note_on,90,0,1,,,,,,,,,0,,,86,0
166170,note_on,90,0,9,,,,,,,,,8,,,66,0
166170,note_on,90,0,10,,,,,,,,,10,,,54,0
166170,note_on,90,0,8,,,,,,,,,7,,,69,0
166200,note_on,120,0,6,,,,,,,,,5,,,50,0
166200,note_on,30,0,11,,,,,,,,,11,,,43,116
166200,note_on,0,0,8,,,,,,,,,7,,,79,116
166200,note_on,30,0,8,,,,,,,,,7,,,71,116
166200,note_on,30,0,3,,,,,,,,,2,,,55,116
166200,note_on,0,0,2,,,,,,,,,1,,,76,116
166200,note_on,0,0,5,,,,,,,,,4,,,62,0
166200,note_on,30,0,1,,,,,,,,,0,,,83,116
166200,note_on,30,0,9,,,,,,,,,8,,,67,116
166200,note_on,30,0,7,,,,,,,,,6,,,83,116
166200,note_on,30,0,10,,,,,,,,,10,,,55,116
166200,note_on,120,0,5,,,,,,,,,4,,,74,0
166200,note_on,0,0,1,,,,,,,,,0,,,88,116
166200,note_on,30,0,2,,,,,,,,,1,,,83,116
166200,note_on,30,0,4,,,,,,,,,3,,,50,116
166200,note_on,0,0,4,,,,,,,,,3,,,62,116
166290,note_on,90,0,3,,,,,,,,,2,,,55,0
166290,note_on,0,0,4,,,,,,,,,3,,,50,0
166290,note_on,90,0,4,,,,,,,,,3,,,62,0
166290,note_on,0,0,2,,,,,,,,,1,,,83,0
166290,note_on,90,0,2,,,,,,,,,1,,,76,0
166290,note_on,90,0,9,,,,,,,,,8,,,67,0
166290,note_on,90,0,11,,,,,,,,,11,,,43,0
166290,note_on,0,0,8,,,,,,,,,7,,,71,0
166290,note_on,90,0,8,,,,,,,,,7,,,79,0
166290,note_on,90,0,7,,,,,,,,,6,,,83,0
166290,note_on,0,0,1,,,,,,,,,0,,,83,0
166290,note_on,90,0,1,,,,,,,,,0,,,88,0
166290,note_on,90,0,10,,,,,,,,,10,,,55,0
166320,note_on,30,0,9,,,,,,,,,8,,,69,104
166320,note_on,30,0,3,,,,,,,,,2,,,57,104
166320,note_on,0,0,8,,,,,,,,,7,,,78,104
166320,note_on,30,0,8,,,,,,,,,7,,,69,104
166320,note_on,30,0,7,,,,,,,,,6,,,81,104
166320,note_on,0,0,4,,,,,,,,,3,,,62,104
166320,note_on,30,0,10,,,,,,,,,10,,,57,104
166320,note_on,0,0,1,,,,,,,,,0,,,86,104
166320,note_on,30,0,1,,,,,,,,,0,,,81,104
166320,note_on,30,0,2,,,,,,,,,1,,,78,104
166320,note_on,0,0,2,,,,,,,,,1,,,81,104
166320,note_on,30,0,11,,,,,,,,,11,,,45,104
166320,note_on,30,0,4,,,,,,,,,3,,,66,104
166410,note_on,90,0,11,,,,,,,,,11,,,45,0
166410,note_on,90,0,2,,,,,,,,,1,,,81,0
166410,note_on,0,0,1,,,,,,,,,0,,,81,0
166410,note_on,90,0,1,,,,,,,,,0,,,86,0
166410,note_on,0,0,2,,,,,,,,,1,,,78,0
166410,note_on,0,0,8,,,,,,,,,7,,,69,0
166410,note_on,90,0,3,,,,,,,,,2,,,57,0
166410,note_on,90,0,4,,,,,,,,,3,,,62,0
166410,note_on,90,0,10,,,,,,,,,10,,,57,0
166410,note_on,90,0,9,,,,,,,,,8,,,69,0
166410,note_on,90,0,8,,,,,,,,,7,,,78,0
166410,note_on,0,0,4,,,,,,,,,3,,,66,0
166410,note_on,90,0,7,,,,,,,,,6,,,81,0
166440,note_on,30,0,3,,,,,,,,,2,,,58,92
166440,note_on,30,0,8,,,,,,,,,7,,,73,92
166440,note_on,0,0,8,,,,,,,,,7,,,76,92
166440,note_on,30,0,4,,,,,,,,,3,,,67,92
166440,note_on,30,0,7,,,,,,,,,6,,,79,92
166440,note_on,0,0,1,,,,,,,,,0,,,85,92
166440,note_on,30,0,10,,,,,,,,,10,,,58,92
166440,note_on,0,0,4,,,,,,,,,3,,,64,92
166440,note_on,30,0,11,,,,,,,,,11,,,46,92
166440,note_on,0,0,2,,,,,,,,,1,,,79,92
166440,note_on,30,0,9,,,,,,,,,8,,,70,92
166440,note_on,30,0,2,,,,,,,,,1,,,76,92
166440,note_on,30,0,1,,,,,,,,,0,,,79,92
166530,note_on,0,0,4,,,,,,,,,3,,,67,0
166530,note_on,0,0,2,,,,,,,,,1,,,76,0
166530,note_on,90,0,2,,,,,,,,,1,,,79,0
166530,note_on,90,0,3,,,,,,,,,2,,,58,0
166530,note_on,90,0,4,,,,,,,,,3,,,64,0
166530,note_on,90,0,8,,,,,,,,,7,,,76,0
166530,note_on,0,0,8,,,,,,,,,7,,,73,0
166530,note_on,90,0,11,,,,,,,,,11,,,46,0
166530,note_on,90,0,1,,,,,,,,,0,,,85,0
166530,note_on,0,0,1,,,,,,,,,0,,,79,0
166530,note_on,90,0,9,,,,,,,,,8,,,70,0
166530,note_on,90,0,10,,,,,,,,,10,,,58,0
166530,note_on,90,0,7,,,,,,,,,6,,,79,0
166560,note_on,30,0,7,,,,,,,,,6,,,78,80
166560,note_on,0,0,2,,,,,,,,,1,,,78,80
166560,note_on,30,0,2,,,,,,,,,1,,,74,80
166560,note_on,30,0,1,,,,,,,,,0,,,78,80
166560,note_on,0,0,1,,,,,,,,,0,,,86,80
166560,note_on,30,0,9,,,,,,,,,8,,,71,80
166560,marker,13440,1,0,,,,,,,,,,,,,
166560,note_on,360,0,5,,,,,,,,,4,,,62,80
166560,note_on,360,0,6,,,,,,,,,5,,,50,80
166560,note_on,0,0,5,,,,,,,,,4,,,74,80
166560,note_on,0,0,4,,,,,,,,,3,,,66,80
166560,note_on,30,0,4,,,,,,,,,3,,,62,80
166560,note_on,30,0,10,,,,,,,,,10,,,59,80
166560,note_on,30,0,3,,,,,,,,,2,,,59,80
166560,note_on,30,0,8,,,,,,,,,7,,,62,80
166560,note_on,0,0,8,,,,,,,,,7,,,74,80
166560,note_on,30,0,11,,,,,,,,,11,,,47,80
166680,note_on,120,0,5,,,,,,,,,4,,,74,0
166680,note_on,0,0,5,,,,,,,,,4,,,62,0
166680,note_on,120,0,1,,,,,,,,,0,,,86,0
166680,note_on,0,0,4,,,,,,,,,3,,,62,0
166680,note_on,120,0,9,,,,,,,,,8,,,71,0
166680,note_on,120,0,4,,,,,,,,,3,,,66,0
166680,note_on,120,0,6,,,,,,,,,5,,,50,0
166680,note_on,120,0,11,,,,,,,,,11,,,47,0
166680,note_on,0,0,1,,,,,,,,,0,,,78,0
166680,note_on,120,0,3,,,,,,,,,2,,,59,0
166680,note_on,120,0,8,,,,,,,,,7,,,74,0
166680,note_on,0,0,8,,,,,,,,,7,,,62,0
166680,note_on,120,0,7,,,,,,,,,6,,,78,0
166680,note_on,120,0,10,,,,,,,,,10,,,59,0
166680,note_on,0,0,2,,,,,,,,,1,,,74,0
166680,note_on,120,0,2,,,,,,,,,1,,,78,0
166800,note_on,120,0,11,,,,,,,,,11,,,43,50
166800,note_on,120,0,8,,,,,,,,,7,,,67,50
166800,note_on,120,0,9,,,,,,,,,8,,,59,50
166800,note_on,120,0,10,,,,,,,,,10,,,55,50
166860,note_on,180,0,7,,,,,,,,,6,,,71,50
166920,note_on,0,0,7,,,,,,,,,6,,,76,50
166920,note_on,60,0,7,,,,,,,,,6,,,71,0
166920,note_on,120,0,10,,,,,,,,,10,,,55,0
166920,note_on,120,0,11,,,,,,,,,11,,,43,0
166980,note_on,0,0,7,,,,,,,,,6,,,74,50
166980,note_on,60,0,7,,,,,,,,,6,,,76,0
167040,note_on,120,0,11,,,,,,,,,11,,,45,50
167040,note_on,0,0,8,,,,,,,,,7,,,66,50
167040,note_on,0,0,9,,,,,,,,,8,,,57,50
167040,note_on,240,0,9,,,,,,,,,8,,,59,0
167040,note_on,240,0,8,,,,,,,,,7,,,67,0
167040,note_on,60,0,7,,,,,,,,,6,,,74,0
167040,note_on,120,0,10,,,,,,,,,10,,,57,50
167100,note_on,60,0,7,,,,,,,,,6,,,66,50
167160,note_on,60,0,7,,,,,,,,,6,,,66,0
167160,note_on,0,0,7,,,,,,,,,6,,,71,50
167160,note_on,120,0,10,,,,,,,,,10,,,57,0
167160,note_on,120,0,11,,,,,,,,,11,,,45,0
167220,note_on,60,0,7,,,,,,,,,6,,,71,0
167220,note_on,0,0,7,,,,,,,,,6,,,69,50
167280,note_on,120,0,10,,,,,,,,,10,,,45,50
167280,note_on,0,0,8,,,,,,,,,7,,,61,50
167280,note_on,240,0,8,,,,,,,,,7,,,66,0
167280,note_on,0,0,9,,,,,,,,,8,,,55,50
167280,note_on,240,0,9,,,,,,,,,8,,,57,0
167280,note_on,120,0,11,,,,,,,,,11,,,33,50
167280,note_on,60,0,7,,,,,,,,,6,,,69,0
167340,note_on,60,0,7,,,,,,,,,6,,,57,50
167400,note_on,120,0,11,,,,,,,,,11,,,33,0
167400,note_on,0,0,7,,,,,,,,,6,,,66,50
167400,note_on,60,0,7,,,,,,,,,6,,,57,0
167400,note_on,120,0,10,,,,,,,,,10,,,45,0
167460,note_on,0,0,7,,,,,,,,,6,,,64,50
167460,note_on,60,0,7,,,,,,,,,6,,,66,0
167520,note_on,0,0,7,,,,,,,,,6,,,62,50
167520,note_on,60,0,7,,,,,,,,,6,,,64,0
167520,note_on,240,0,8,,,,,,,,,7,,,61,0
167520,note_on,0,0,8,,,,,,,,,7,,,62,50
167520,note_on,0,0,9,,,,,,,,,8,,,54,50
167520,note_on,240,0,9,,,,,,,,,8,,,55,0
167580,note_on,0,0,9,,,,,,,,,8,,,54,50
167580,note_on,180,0,10,,,,,,,,,10,,,50,50
167580,note_on,60,0,8,,,,,,,,,7,,,62,0
167580,note_on,0,0,8,,,,,,,,,7,,,57,50
167580,note_on,180,0,11,,,,,,,,,11,,,38,50
167580,note_on,60,0,9,,,,,,,,,8,,,54,0
167610,note_on,30,0,8,,,,,,,,,7,,,57,0
167610,note_on,30,0,11,,,,,,,,,11,,,38,0
167610,note_on,30,0,10,,,,,,,,,10,,,50,0
167610,note_on,30,0,9,,,,,,,,,8,,,54,0
167640,note_on,30,0,8,,,,,,,,,7,,,57,50
167640,note_on,30,0,11,,,,,,,,,11,,,38,50
167640,note_on,30,0,10,,,,,,,,,10,,,50,50
167640,note_on,30,0,9,,,,,,,,,8,,,54,50
167670,note_on,30,0,11,,,,,,,,,11,,,38,0
167670,note_on,30,0,10,,,,,,,,,10,,,50,0
167670,note_on,30,0,9,,,,,,,,,8,,,54,0
167670,note_on,30,0,8,,,,,,,,,7,,,57,0
167700,note_on,30,0,9,,,,,,,,,8,,,54,50
167700,note_on,30,0,11,,,,,,,,,11,,,38,50
167700,note_on,30,0,10,,,,,,,,,10,,,50,50
167700,note_on,30,0,8,,,,,,,,,7,,,57,50
167730,note_on,30,0,8,,,,,,,,,7,,,57,0
167730,note_on,30,0,11,,,,,,,,,11,,,38,0
167730,note_on,30,0,9,,,,,,,,,8,,,54,0
167730,note_on,30,0,10,,,,,,,,,10,,,50,0
167760,note_on,30,0,9,,,,,,,,,8,,,54,50
167760,note_on,30,0,10,,,,,,,,,10,,,50,50
167760,note_on,30,0,8,,,,,,,,,7,,,57,50
167760,note_on,30,0,11,,,,,,,,,11,,,38,50
167820,note_on,300,0,7,,,,,,,,,6,,,62,0
167820,note_on,0,0,7,,,,,,,,,6,,,57,50
167880,note_on,0,0,7,,,,,,,,,6,,,66,50
167880,note_on,60,0,7,,,,,,,,,6,,,57,0
167880,note_on,120,0,9,,,,,,,,,8,,,54,0
167880,note_on,120,0,8,,,,,,,,,7,,,57,0
167880,note_on,120,0,10,,,,,,,,,10,,,50,0
167880,note_on,120,0,11,,,,,,,,,11,,,38,0
167940,note_on,0,0,7,,,,,,,,,6,,,64,50
167940,note_on,60,0,7,,,,,,,,,6,,,66,0
168000,note_on,120,0,10,,,,,,,,,10,,,50,50
168000,note_on,120,0,8,,,,,,,,,7,,,57,50
168000,note_on,0,0,7,,,,,,,,,6,,,62,50
168000,note_on,120,0,9,,,,,,,,,8,,,54,50
168000,note_on,120,0,11,,,,,,,,,11,,,38,50
168000,note_on,60,0,7,,,,,,,,,6,,,64,0
168060,note_on,0,0,7,,,,,,,,,6,,,57,50
168060,note_on,60,0,7,,,,,,,,,6,,,62,0
168120,note_on,60,0,7,,,,,,,,,6,,,57,0
168120,note_on,0,0,7,,,,,,,,,6,,,66,50
168120,note_on,120,0,10,,,,,,,,,10,,,50,0
168120,note_on,120,0,9,,,,,,,,,8,,,54,0
168120,note_on,120,0,11,,,,,,,,,11,,,38,0
168120,note_on,120,0,8,,,,,,,,,7,,,57,0
168180,note_on,60,0,7,,,,,,,,,6,,,66,0
168180,note_on,0,0,7,,,,,,,,,6,,,64,50
168240,note_on,120,0,8,,,,,,,,,7,,,57,50
168240,note_on,120,0,10,,,,,,,,,10,,,50,50
168240,note_on,60,0,7,,,,,,,,,6,,,64,0
168240,note_on,0,0,7,,,,,,,,,6,,,62,50
168240,note_on,120,0,9,,,,,,,,,8,,,54,50
168240,note_on,120,0,11,,,,,,,,,11,,,38,50
168300,note_on,60,0,7,,,,,,,,,6,,,62,0
168300,note_on,0,0,7,,,,,,,,,6,,,57,50
168360,note_on,120,0,9,,,,,,,,,8,,,54,0
168360,note_on,120,0,11,,,,,,,,,11,,,38,0
168360,note_on,60,0,7,,,,,,,,,6,,,57,0
168360,note_on,0,0,7,,,,,,,,,6,,,67,65
168360,note_on,120,0,10,,,,,,,,,10,,,50,0
168360,note_on,120,0,8,,,,,,,,,7,,,57,0
168420,note_on,60,0,7,,,,,,,,,6,,,67,0
168420,note_on,0,0,7,,,,,,,,,6,,,66,60
168480,note_on,60,0,7,,,,,,,,,6,,,66,0
168480,note_on,0,0,7,,,,,,,,,6,,,64,50
168540,note_on,180,0,10,,,,,,,,,10,,,49,50
168540,note_on,180,0,11,,,,,,,,,11,,,37,50
168540,note_on,180,0,8,,,,,,,,,7,,,57,50
168540,note_on,180,0,9,,,,,,,,,8,,,55,50
168570,note_on,30,0,10,,,,,,,,,10,,,49,0
168570,note_on,30,0,11,,,,,,,,,11,,,37,0
168585,note_on,45,0,8,,,,,,,,,7,,,57,0
168585,note_on,45,0,9,,,,,,,,,8,,,55,0
168600,note_on,15,0,8,,,,,,,,,7,,,57,50
168600,note_on,30,0,10,,,,,,,,,10,,,49,50
168600,note_on,30,0,11,,,,,,,,,11,,,37,50
168600,note_on,15,0,9,,,,,,,,,8,,,55,50
168630,note_on,30,0,10,,,,,,,,,10,,,49,0
168630,note_on,30,0,11,,,,,,,,,11,,,37,0
168645,note_on,45,0,9,,,,,,,,,8,,,55,0
168645,note_on,45,0,8,,,,,,,,,7,,,57,0
168660,note_on,15,0,8,,,,,,,,,7,,,57,50
168660,note_on,30,0,10,,,,,,,,,10,,,49,50
168660,note_on,15,0,9,,,,,,,,,8,,,55,50
168660,note_on,30,0,11,,,,,,,,,11,,,37,50
168690,note_on,30,0,11,,,,,,,,,11,,,37,0
168690,note_on,30,0,10,,,,,,,,,10,,,49,0
168705,note_on,45,0,8,,,,,,,,,7,,,57,0
168705,note_on,45,0,9,,,,,,,,,8,,,55,0
168720,note_on,15,0,8,,,,,,,,,7,,,57,50
168720,note_on,15,0,9,,,,,,,,,8,,,55,50
168720,note_on,30,0,10,,,,,,,,,10,,,49,50
168720,note_on,30,0,11,,,,,,,,,11,,,37,50
168780,note_on,0,0,7,,,,,,,,,6,,,57,50
168780,note_on,300,0,7,,,,,,,,,6,,,64,0
168840,note_on,120,0,8,,,,,,,,,7,,,57,0
168840,note_on,120,0,11,,,,,,,,,11,,,37,0
168840,note_on,120,0,9,,,,,,,,,8,,,55,0
168840,note_on,120,0,10,,,,,,,,,10,,,49,0
168840,note_on,60,0,7,,,,,,,,,6,,,57,0
168840,note_on,0,0,7,,,,,,,,,6,,,67,50
168900,note_on,60,0,7,,,,,,,,,6,,,67,0
168900,note_on,0,0,7,,,,,,,,,6,,,66,50
168960,note_on,0,0,7,,,,,,,,,6,,,64,50
168960,note_on,60,0,7,,,,,,,,,6,,,66,0
168960,note_on,120,0,11,,,,,,,,,11,,,37,50
168960,note_on,120,0,9,,,,,,,,,8,,,55,50
168960,note_on,120,0,10,,,,,,,,,10,,,49,50
168960,note_on,120,0,8,,,,,,,,,7,,,57,50
169020,note_on,0,0,7,,,,,,,,,6,,,57,50
169020,note_on,60,0,7,,,,,,,,,6,,,64,0
169080,note_on,60,0,7,,,,,,,,,6,,,57,0
169080,note_on,0,0,7,,,,,,,,,6,,,67,50
169080,note_on,120,0,8,,,,,,,,,7,,,57,0
169080,note_on,120,0,11,,,,,,,,,11,,,37,0
169080,note_on,120,0,9,,,,,,,,,8,,,55,0
169080,note_on,120,0,10,,,,,,,,,10,,,49,0
169140,note_on,60,0,7,,,,,,,,,6,,,67,0
169140,note_on,0,0,7,,,,,,,,,6,,,66,50
169200,note_on,120,0,8,,,,,,,,,7,,,57,50
169200,note_on,120,0,11,,,,,,,,,11,,,37,50
169200,note_on,120,0,10,,,,,,,,,10,,,49,50
169200,note_on,0,0,7,,,,,,,,,6,,,64,50
169200,note_on,60,0,7,,,,,,,,,6,,,66,0
169200,note_on,120,0,9,,,,,,,,,8,,,55,50
169260,note_on,0,0,7,,,,,,,,,6,,,57,50
169260,note_on,60,0,7,,,,,,,,,6,,,64,0
169320,note_on,0,0,7,,,,,,,,,6,,,69,65
169320,note_on,120,0,9,,,,,,,,,8,,,55,0
169320,note_on,60,0,7,,,,,,,,,6,,,57,0
169320,note_on,120,0,8,,,,,,,,,7,,,57,0
169320,note_on,120,0,11,,,,,,,,,11,,,37,0
169320,note_on,120,0,10,,,,,,,,,10,,,49,0
169380,note_on,60,0,7,,,,,,,,,6,,,69,0
169380,note_on,0,0,7,,,,,,,,,6,,,67,65
169440,note_on,120,0,11,,,,,,,,,11,,,38,50
169440,note_on,0,0,7,,,,,,,,,6,,,66,50
169440,note_on,120,0,9,,,,,,,,,8,,,54,50
169440,note_on,60,0,7,,,,,,,,,6,,,67,0
169440,note_on,120,0,10,,,,,,,,,10,,,50,50
169440,note_on,120,0,8,,,,,,,,,7,,,57,50
169500,note_on,0,0,7,,,,,,,,,6,,,71,50
169500,note_on,60,0,7,,,,,,,,,6,,,66,0
169560,note_on,120,0,10,,,,,,,,,10,,,50,0
169560,note_on,0,0,7,,,,,,,,,6,,,69,50
169560,note_on,60,0,7,,,,,,,,,6,,,71,0
169560,note_on,120,0,8,,,,,,,,,7,,,57,0
169560,note_on,120,0,9,,,,,,,,,8,,,54,0
169560,note_on,120,0,11,,,,,,,,,11,,,38,0
169620,note_on,60,0,8,,,,,,,,,7,,,65,50
169620,note_on,60,0,9,,,,,,,,,8,,,62,50
169620,note_on,60,0,7,,,,,,,,,6,,,69,0
169620,note_on,0,0,7,,,,,,,,,6,,,68,50
169680,note_on,60,0,7,,,,,,,,,6,,,68,0
169680,note_on,0,0,8,,,,,,,,,7,,,64,50
169680,note_on,60,0,9,,,,,,,,,8,,,62,0
169680,note_on,0,0,9,,,,,,,,,8,,,61,50
169680,note_on,60,0,8,,,,,,,,,7,,,65,0
169680,note_on,0,0,7,,,,,,,,,6,,,69,50
169740,note_on,60,0,7,,,,,,,,,6,,,69,0
169740,note_on,0,0,7,,,,,,,,,6,,,67,50
169800,note_on,60,0,7,,,,,,,,,6,,,67,0
169800,note_on,0,0,7,,,,,,,,,6,,,66,50
169800,note_on,120,0,8,,,,,,,,,7,,,64,0
169800,note_on,120,0,9,,,,,,,,,8,,,61,0
169860,note_on,60,0,8,,,,,,,,,7,,,62,50
169860,note_on,0,0,7,,,,,,,,,6,,,65,50
169860,note_on,60,0,7,,,,,,,,,6,,,66,0
169860,note_on,60,0,9,,,,,,,,,8,,,59,50
169920,note_on,0,0,8,,,,,,,,,7,,,61,50
169920,note_on,60,0,7,,,,,,,,,6,,,65,0
169920,note_on,0,0,9,,,,,,,,,8,,,57,50
169920,note_on,60,0,8,,,,,,,,,7,,,62,0
169920,note_on,0,0,7,,,,,,,,,6,,,66,50
169920,note_on,60,0,9,,,,,,,,,8,,,59,0
169980,note_on,60,0,7,,,,,,,,,6,,,66,0
169980,note_on,0,0,7,,,,,,,,,6,,,64,50
170040,note_on,120,0,9,,,,,,,,,8,,,57,0
170040,note_on,120,0,8,,,,,,,,,7,,,61,0
170040,note_on,60,0,7,,,,,,,,,6,,,64,0
170040,note_on,0,0,7,,,,,,,,,6,,,62,50
170100,note_on,60,0,9,,,,,,,,,8,,,55,50
170100,note_on,60,0,7,,,,,,,,,6,,,62,0
170100,note_on,60,0,8,,,,,,,,,7,,,58,50
170100,note_on,0,0,7,,,,,,,,,6,,,61,50
170160,note_on,0,0,7,,,,,,,,,6,,,62,50
170160,note_on,60,0,7,,,,,,,,,6,,,61,0
170160,note_on,60,0,9,,,,,,,,,8,,,55,0
170160,note_on,0,0,9,,,,,,,,,8,,,54,50
170160,note_on,60,0,8,,,,,,,,,7,,,58,0
170160,note_on,0,0,8,,,,,,,,,7,,,57,50
170220,note_on,60,0,7,,,,,,,,,6,,,62,0
170220,note_on,60,0,9,,,,,,,,,8,,,54,0
170220,note_on,0,0,9,,,,,,,,,8,,,55,50
170220,note_on,0,0,7,,,,,,,,,6,,,64,50
170220,note_on,60,0,8,,,,,,,,,7,,,57,0
170220,note_on,0,0,8,,,,,,,,,7,,,61,50
170280,note_on,60,0,9,,,,,,,,,8,,,55,0
170280,note_on,0,0,9,,,,,,,,,8,,,54,50
170280,note_on,0,0,7,,,,,,,,,6,,,66,50
170280,note_on,60,0,7,,,,,,,,,6,,,64,0
170280,note_on,0,0,8,,,,,,,,,7,,,62,50
170280,note_on,60,0,8,,,,,,,,,7,,,61,0
170340,note_on,60,0,8,,,,,,,,,7,,,62,0
170340,note_on,0,0,8,,,,,,,,,7,,,64,50
170340,note_on,60,0,7,,,,,,,,,6,,,66,0
170340,note_on,0,0,7,,,,,,,,,6,,,67,50
170340,note_on,60,0,9,,,,,,,,,8,,,54,0
170340,note_on,0,0,9,,,,,,,,,8,,,52,50
170400,note_on,60,0,9,,,,,,,,,8,,,52,0
170400,note_on,840,0,11,,,,,,,,,11,,,30,50
170400,note_on,0,0,9,,,,,,,,,8,,,54,50
170400,note_on,60,0,7,,,,,,,,,6,,,67,0
170400,note_on,0,0,7,,,,,,,,,6,,,69,50
170400,note_on,60,0,8,,,,,,,,,7,,,64,0
170400,note_on,0,0,8,,,,,,,,,7,,,62,50
170400,note_on,840,0,10,,,,,,,,,10,,,42,50
170460,note_on,60,0,7,,,,,,,,,6,,,69,0
170460,note_on,60,0,11,,,,,,,,,11,,,30,0
170460,note_on,60,0,10,,,,,,,,,10,,,42,0
170490,note_on,90,0,8,,,,,,,,,7,,,62,0
170490,note_on,90,0,9,,,,,,,,,8,,,54,0
170520,note_on,60,0,11,,,,,,,,,11,,,30,55
170520,note_on,30,0,8,,,,,,,,,7,,,62,55
170520,note_on,60,0,7,,,,,,,,,6,,,69,55
170520,note_on,60,0,10,,,,,,,,,10,,,42,55
170520,note_on,30,0,9,,,,,,,,,8,,,54,55
170580,note_on,60,0,11,,,,,,,,,11,,,30,0
170580,note_on,60,0,10,,,,,,,,,10,,,42,0
170610,note_on,90,0,9,,,,,,,,,8,,,54,0
170610,note_on,90,0,7,,,,,,,,,6,,,69,0
170610,note_on,90,0,8,,,,,,,,,7,,,62,0
170640,note_on,30,0,8,,,,,,,,,7,,,62,60
170640,note_on,60,0,10,,,,,,,,,10,,,44,60
170640,note_on,30,0,9,,,,,,,,,8,,,54,60
170640,note_on,30,0,7,,,,,,,,,6,,,71,60
170640,note_on,60,0,11,,,,,,,,,11,,,32,60
170700,note_on,60,0,10,,,,,,,,,10,,,44,0
170700,note_on,60,0,11,,,,,,,,,11,,,32,0
170730,note_on,90,0,7,,,,,,,,,6,,,71,0
170730,note_on,90,0,9,,,,,,,,,8,,,54,0
170730,note_on,90,0,8,,,,,,,,,7,,,62,0
170760,note_on,30,0,9,,,,,,,,,8,,,54,65
170760,note_on,60,0,10,,,,,,,,,10,,,44,65
170760,note_on,60,0,11,,,,,,,,,11,,,32,65
170760,note_on,30,0,8,,,,,,,,,7,,,62,65
170760,note_on,30,0,7,,,,,,,,,6,,,71,65
170820,note_on,60,0,10,,,,,,,,,10,,,44,0
170820,note_on,60,0,11,,,,,,,,,11,,,32,0
170850,note_on,90,0,9,,,,,,,,,8,,,54,0
170850,note_on,90,0,8,,,,,,,,,7,,,62,0
170850,note_on,90,0,7,,,,,,,,,6,,,71,0
170880,note_on,30,0,8,,,,,,,,,7,,,62,70
170880,note_on,30,0,9,,,,,,,,,8,,,57,70
170880,note_on,30,0,7,,,,,,,,,6,,,66,70
170880,note_on,60,0,11,,,,,,,,,11,,,33,70
170880,note_on,60,0,10,,,,,,,,,10,,,45,70
170940,note_on,0,0,9,,,,,,,,,8,,,56,65
170940,note_on,60,0,9,,,,,,,,,8,,,57,0
171000,note_on,120,0,10,,,,,,,,,10,,,45,0
171000,note_on,0,0,9,,,,,,,,,8,,,57,60
171000,note_on,60,0,9,,,,,,,,,8,,,56,0
171000,note_on,120,0,11,,,,,,,,,11,,,33,0
171060,note_on,60,0,9,,,,,,,,,8,,,57,0
171060,note_on,0,0,9,,,,,,,,,8,,,56,55
171120,note_on,60,0,9,,,,,,,,,8,,,56,0
171120,note_on,0,0,9,,,,,,,,,8,,,57,50
171120,note_on,0,0,7,,,,,,,,,6,,,64,50
171120,note_on,0,0,8,,,,,,,,,7,,,61,50
171120,note_on,240,0,8,,,,,,,,,7,,,62,0
171120,note_on,240,0,7,,,,,,,,,6,,,66,0
171180,note_on,60,0,8,,,,,,,,,7,,,61,0
171180,note_on,0,0,7,,,,,,,,,6,,,69,50
171180,note_on,60,0,7,,,,,,,,,6,,,64,0
171240,note_on,120,0,9,,,,,,,,,8,,,57,0
171240,note_on,60,0,7,,,,,,,,,6,,,69,0
171240,note_on,0,0,7,,,,,,,,,6,,,77,50
171240,note_on,60,0,8,,,,,,,,,7,,,69,50
171300,note_on,0,0,7,,,,,,,,,6,,,76,50
171300,note_on,60,0,8,,,,,,,,,7,,,69,0
171300,note_on,60,0,7,,,,,,,,,6,,,77,0
171300,note_on,0,0,8,,,,,,,,,7,,,67,50
171360,note_on,120,0,9,,,,,,,,,8,,,69,50
171360,note_on,0,0,9,,,,,,,,,8,,,57,50
171360,note_on,0,0,7,,,,,,,,,6,,,74,50
171360,note_on,0,0,8,,,,,,,,,7,,,65,50
171360,note_on,60,0,7,,,,,,,,,6,,,76,0
171360,note_on,60,0,8,,,,,,,,,7,,,67,0
171360,note_on,360,0,11,,,,,,,,,11,,,38,50
171360,note_on,360,0,10,,,,,,,,,10,,,50,50
171420,note_on,4740,0,3,,,,,,,,,2,,,57,70
171420,note_on,0,0,3,,,,,,,,,2,,,53,70
171480,note_on,120,0,10,,,,,,,,,10,,,50,0
171480,note_on,120,0,11,,,,,,,,,11,,,38,0
171480,note_on,60,0,3,,,,,,,,,2,,,53,0
171480,note_on,0,0,3,,,,,,,,,2,,,57,0
171480,note_on,0,0,3,,,,,,,,,2,,,65,70
171480,note_on,0,0,3,,,,,,,,,2,,,57,70
171540,note_on,0,0,3,,,,,,,,,2,,,65,0
171540,note_on,60,0,3,,,,,,,,,2,,,57,0
171540,note_on,0,0,3,,,,,,,,,2,,,64,70
171540,note_on,0,0,3,,,,,,,,,2,,,55,70
171600,note_on,0,0,3,,,,,,,,,2,,,55,0
171600,note_on,0,0,3,,,,,,,,,2,,,53,70
171600,note_on,60,0,3,,,,,,,,,2,,,64,0
171600,note_on,0,0,3,,,,,,,,,2,,,62,70
171660,note_on,60,0,3,,,,,,,,,2,,,62,0
171660,note_on,0,0,8,,,,,,,,,7,,,62,50
171660,note_on,300,0,8,,,,,,,,,7,,,65,0
171660,note_on,300,0,7,,,,,,,,,6,,,74,0
171660,note_on,0,0,7,,,,,,,,,6,,,69,50
171660,note_on,0,0,3,,,,,,,,,2,,,53,0
171720,note_on,60,0,8,,,,,,,,,7,,,62,0
171720,note_on,60,0,7,,,,,,,,,6,,,69,0
171720,note_on,0,0,7,,,,,,,,,6,,,77,50
171720,note_on,60,0,3,,,,,,,,,2,,,62,70
171720,note_on,0,0,8,,,,,,,,,7,,,69,50
171720,note_on,0,0,3,,,,,,,,,2,,,53,70
171780,note_on,0,0,3,,,,,,,,,2,,,64,70
171780,note_on,0,0,3,,,,,,,,,2,,,55,70
171780,note_on,0,0,3,,,,,,,,,2,,,62,0
171780,note_on,60,0,3,,,,,,,,,2,,,53,0
171780,note_on,0,0,8,,,,,,,,,7,,,67,50
171780,note_on,60,0,8,,,,,,,,,7,,,69,0
171780,note_on,60,0,7,,,,,,,,,6,,,77,0
171780,note_on,0,0,7,,,,,,,,,6,,,76,50
171840,note_on,360,0,11,,,,,,,,,11,,,50,50
171840,note_on,60,0,3,,,,,,,,,2,,,55,0
171840,note_on,60,0,7,,,,,,,,,6,,,76,0
171840,note_on,60,0,8,,,,,,,,,7,,,67,0
171840,note_on,0,0,8,,,,,,,,,7,,,65,50
171840,note_on,0,0,3,,,,,,,,,2,,,64,0
171840,note_on,0,0,3,,,,,,,,,2,,,57,70
171840,note_on,360,0,10,,,,,,,,,10,,,62,50
171840,note_on,0,0,3,,,,,,,,,2,,,65,70
171840,note_on,0,0,7,,,,,,,,,6,,,74,50
171900,note_on,60,0,3,,,,,,,,,2,,,65,0
171900,note_on,0,0,3,,,,,,,,,2,,,57,0
171900,note_on,60,0,7,,,,,,,,,6,,,74,0
171900,note_on,0,0,8,,,,,,,,,7,,,62,50
171900,note_on,60,0,8,,,,,,,,,7,,,65,0
171900,note_on,0,0,7,,,,,,,,,6,,,69,50
171960,note_on,0,0,3,,,,,,,,,2,,,53,70
171960,note_on,0,0,8,,,,,,,,,7,,,69,50
171960,note_on,0,0,7,,,,,,,,,6,,,77,50
171960,note_on,60,0,7,,,,,,,,,6,,,69,0
171960,note_on,60,0,3,,,,,,,,,2,,,62,70
171960,note_on,60,0,8,,,,,,,,,7,,,62,0
171960,note_on,120,0,10,,,,,,,,,10,,,62,0
171960,note_on,120,0,11,,,,,,,,,11,,,50,0
172020,note_on,60,0,3,,,,,,,,,2,,,53,0
172020,note_on,60,0,7,,,,,,,,,6,,,77,0
172020,note_on,0,0,7,,,,,,,,,6,,,76,50
172020,note_on,60,0,8,,,,,,,,,7,,,69,0
172020,note_on,0,0,8,,,,,,,,,7,,,67,50
172020,note_on,0,0,3,,,,,,,,,2,,,62,0
172020,note_on,0,0,3,,,,,,,,,2,,,64,70
172020,note_on,0,0,3,,,,,,,,,2,,,55,70
172080,note_on,60,0,8,,,,,,,,,7,,,67,0
172080,note_on,0,0,3,,,,,,,,,2,,,57,70
172080,note_on,0,0,3,,,,,,,,,2,,,55,0
172080,note_on,60,0,3,,,,,,,,,2,,,64,0
172080,note_on,0,0,8,,,,,,,,,7,,,65,50
172080,note_on,0,0,7,,,,,,,,,6,,,74,50
172080,note_on,60,0,7,,,,,,,,,6,,,76,0
172080,note_on,120,0,10,,,,,,,,,10,,,50,50
172080,note_on,0,0,3,,,,,,,,,2,,,65,70
172080,note_on,120,0,11,,,,,,,,,11,,,38,50
172140,note_on,60,0,7,,,,,,,,,6,,,74,0
172140,note_on,0,0,3,,,,,,,,,2,,,57,0
172140,note_on,60,0,3,,,,,,,,,2,,,65,0
172140,note_on,0,0,7,,,,,,,,,6,,,69,50
172140,note_on,60,0,8,,,,,,,,,7,,,65,0
172140,note_on,0,0,8,,,,,,,,,7,,,69,50
172200,note_on,120,0,10,,,,,,,,,10,,,50,0
172200,note_on,0,0,8,,,,,,,,,7,,,76,65
172200,note_on,0,0,7,,,,,,,,,6,,,79,65
172200,note_on,60,0,8,,,,,,,,,7,,,69,0
172200,note_on,60,0,7,,,,,,,,,6,,,69,0
172200,note_on,120,0,11,,,,,,,,,11,,,38,0
172260,note_on,60,0,8,,,,,,,,,7,,,76,0
172260,note_on,0,0,8,,,,,,,,,7,,,74,60
172260,note_on,60,0,7,,,,,,,,,6,,,79,0
172260,note_on,0,0,7,,,,,,,,,6,,,77,60
172320,note_on,0,0,7,,,,,,,,,6,,,76,50
172320,note_on,120,0,11,,,,,,,,,11,,,45,50
172320,note_on,60,0,7,,,,,,,,,6,,,77,0
172320,note_on,120,0,10,,,,,,,,,10,,,57,50
172320,note_on,0,0,8,,,,,,,,,7,,,73,50
172320,note_on,60,0,8,,,,,,,,,7,,,74,0
172380,note_on,240,0,3,,,,,,,,,2,,,57,70
172440,note_on,0,0,3,,,,,,,,,2,,,67,70
172440,note_on,120,0,11,,,,,,,,,11,,,45,0
172440,note_on,120,0,10,,,,,,,,,10,,,57,0
172440,note_on,0,0,3,,,,,,,,,2,,,64,70
172440,note_on,60,0,3,,,,,,,,,2,,,57,0
172500,note_on,0,0,3,,,,,,,,,2,,,62,70
172500,note_on,0,0,3,,,,,,,,,2,,,65,70
172500,note_on,0,0,3,,,,,,,,,2,,,67,0
172500,note_on,60,0,3,,,,,,,,,2,,,64,0
172560,note_on,0,0,3,,,,,,,,,2,,,62,0
172560,note_on,0,0,3,,,,,,,,,2,,,64,70
172560,note_on,0,0,3,,,,,,,,,2,,,61,70
172560,note_on,60,0,3,,,,,,,,,2,,,65,0
172620,note_on,300,0,7,,,,,,,,,6,,,76,0
172620,note_on,0,0,7,,,,,,,,,6,,,69,50
172620,note_on,60,0,3,,,,,,,,,2,,,61,0
172620,note_on,0,0,3,,,,,,,,,2,,,64,0
172620,note_on,300,0,8,,,,,,,,,7,,,73,0
172620,note_on,0,0,8,,,,,,,,,7,,,69,50
172680,note_on,0,0,7,,,,,,,,,6,,,79,50
172680,note_on,0,0,3,,,,,,,,,2,,,64,70
172680,note_on,60,0,3,,,,,,,,,2,,,61,70
172680,note_on,60,0,8,,,,,,,,,7,,,69,0
172680,note_on,0,0,8,,,,,,,,,7,,,76,50
172680,note_on,60,0,7,,,,,,,,,6,,,69,0
172740,note_on,0,0,8,,,,,,,,,7,,,74,50
172740,note_on,60,0,8,,,,,,,,,7,,,76,0
172740,note_on,0,0,7,,,,,,,,,6,,,77,50
172740,note_on,60,0,7,,,,,,,,,6,,,79,0
172740,note_on,0,0,3,,,,,,,,,2,,,65,70
172740,note_on,0,0,3,,,,,,,,,2,,,62,70
172740,note_on,0,0,3,,,,,,,,,2,,,61,0
172740,note_on,60,0,3,,,,,,,,,2,,,64,0
172800,note_on,0,0,3,,,,,,,,,2,,,64,70
172800,note_on,60,0,8,,,,,,,,,7,,,74,0
172800,note_on,60,0,7,,,,,,,,,6,,,77,0
172800,note_on,0,0,8,,,,,,,,,7,,,73,50
172800,note_on,0,0,7,,,,,,,,,6,,,76,50
172800,note_on,0,0,3,,,,,,,,,2,,,67,70
172800,note_on,0,0,3,,,,,,,,,2,,,62,0
172800,note_on,360,0,10,,,,,,,,,10,,,57,50
172800,note_on,60,0,3,,,,,,,,,2,,,65,0
172800,note_on,360,0,11,,,,,,,,,11,,,45,50
172860,note_on,0,0,8,,,,,,,,,7,,,69,50
172860,note_on,0,0,3,,,,,,,,,2,,,67,0
172860,note_on,60,0,3,,,,,,,,,2,,,64,0
172860,note_on,60,0,8,,,,,,,,,7,,,73,0
172860,note_on,0,0,7,,,,,,,,,6,,,69,50
172860,note_on,60,0,7,,,,,,,,,6,,,76,0
172920,note_on,0,0,3,,,,,,,,,2,,,64,70
172920,note_on,60,0,3,,,,,,,,,2,,,61,70
172920,note_on,60,0,7,,,,,,,,,6,,,69,0
172920,note_on,0,0,7,,,,,,,,,6,,,79,50
172920,note_on,60,0,8,,,,,,,,,7,,,69,0
172920,note_on,120,0,11,,,,,,,,,11,,,45,0
172920,note_on,0,0,8,,,,,,,,,7,,,76,50
172920,note_on,120,0,10,,,,,,,,,10,,,57,0
172980,note_on,0,0,3,,,,,,,,,2,,,62,70
172980,note_on,0,0,3,,,,,,,,,2,,,61,0
172980,note_on,60,0,3,,,,,,,,,2,,,64,0
172980,note_on,60,0,8,,,,,,,,,7,,,76,0
172980,note_on,60,0,7,,,,,,,,,6,,,79,0
172980,note_on,0,0,7,,,,,,,,,6,,,77,50
172980,note_on,0,0,3,,,,,,,,,2,,,65,70
172980,note_on,0,0,8,,,,,,,,,7,,,74,50
173040,note_on,60,0,3,,,,,,,,,2,,,62,0
173040,note_on,120,0,10,,,,,,,,,10,,,45,50
173040,note_on,60,0,8,,,,,,,,,7,,,74,0
173040,note_on,0,0,3,,,,,,,,,2,,,67,70
173040,note_on,60,0,7,,,,,,,,,6,,,77,0
173040,note_on,120,0,11,,,,,,,,,11,,,33,50
173040,note_on,0,0,3,,,,,,,,,2,,,64,70
173040,note_on,0,0,8,,,,,,,,,7,,,73,50
173040,note_on,0,0,3,,,,,,,,,2,,,65,0
173040,note_on,0,0,7,,,,,,,,,6,,,76,50
173100,note_on,0,0,8,,,,,,,,,7,,,69,50
173100,note_on,0,0,7,,,,,,,,,6,,,69,50
173100,note_on,60,0,7,,,,,,,,,6,,,76,0
173100,note_on,60,0,8,,,,,,,,,7,,,73,0
173100,note_on,60,0,3,,,,,,,,,2,,,64,0
173100,note_on,0,0,3,,,,,,,,,2,,,67,0
173160,note_on,0,0,8,,,,,,,,,7,,,73,65
173160,note_on,0,0,7,,,,,,,,,6,,,81,65
173160,note_on,120,0,11,,,,,,,,,11,,,33,0
173160,note_on,120,0,10,,,,,,,,,10,,,45,0
173160,note_on,60,0,7,,,,,,,,,6,,,69,0
173160,note_on,60,0,8,,,,,,,,,7,,,69,0
173220,note_on,60,0,8,,,,,,,,,7,,,73,0
173220,note_on,0,0,8,,,,,,,,,7,,,76,50
173220,note_on,0,0,7,,,,,,,,,6,,,79,60
173220,note_on,60,0,7,,,,,,,,,6,,,81,0
173280,note_on,60,0,7,,,,,,,,,6,,,79,0
173280,note_on,0,0,7,,,,,,,,,6,,,77,50
173280,note_on,60,0,8,,,,,,,,,7,,,76,0
173280,note_on,0,0,8,,,,,,,,,7,,,74,50
173280,note_on,120,0,11,,,,,,,,,11,,,38,50
173280,note_on,120,0,10,,,,,,,,,10,,,50,50
173340,note_on,0,0,7,,,,,,,,,6,,,82,50
173340,note_on,60,0,7,,,,,,,,,6,,,77,0
173400,note_on,60,0,7,,,,,,,,,6,,,82,0
173400,note_on,0,0,7,,,,,,,,,6,,,81,50
173400,note_on,0,0,9,,,,,,,,,8,,,69,0
173400,note_on,2040,0,9,,,,,,,,,8,,,57,0
173400,note_on,120,0,10,,,,,,,,,10,,,50,0
173400,note_on,120,0,11,,,,,,,,,11,,,38,0
173400,note_on,120,0,8,,,,,,,,,7,,,74,0
173460,note_on,0,0,7,,,,,,,,,6,,,80,60
173460,note_on,60,0,7,,,,,,,,,6,,,81,0
173460,note_on,60,0,8,,,,,,,,,7,,,77,50
173460,note_on,60,0,9,,,,,,,,,8,,,74,50
173520,note_on,60,0,9,,,,,,,,,8,,,74,0
173520,note_on,0,0,7,,,,,,,,,6,,,81,60
173520,note_on,60,0,7,,,,,,,,,6,,,80,0
173520,note_on,0,0,9,,,,,,,,,8,,,72,50
173520,note_on,60,0,8,,,,,,,,,7,,,77,0
173520,note_on,0,0,8,,,,,,,,,7,,,76,50
173580,note_on,0,0,7,,,,,,,,,6,,,79,50
173580,note_on,60,0,7,,,,,,,,,6,,,81,0
173640,note_on,120,0,8,,,,,,,,,7,,,76,0
173640,note_on,60,0,7,,,,,,,,,6,,,79,0
173640,note_on,120,0,9,,,,,,,,,8,,,72,0
173640,note_on,0,0,7,,,,,,,,,6,,,77,50
173700,note_on,60,0,9,,,,,,,,,8,,,70,50
173700,note_on,0,0,7,,,,,,,,,6,,,76,60
173700,note_on,60,0,7,,,,,,,,,6,,,77,0
173700,note_on,60,0,8,,,,,,,,,7,,,73,50
173760,note_on,60,0,7,,,,,,,,,6,,,76,0
173760,note_on,0,0,8,,,,,,,,,7,,,72,50
173760,note_on,60,0,9,,,,,,,,,8,,,70,0
173760,note_on,0,0,9,,,,,,,,,8,,,69,50
173760,note_on,60,0,8,,,,,,,,,7,,,73,0
173760,note_on,0,0,7,,,,,,,,,6,,,77,60
173820,note_on,60,0,7,,,,,,,,,6,,,77,0
173820,note_on,0,0,7,,,,,,,,,6,,,75,50
173880,note_on,120,0,8,,,,,,,,,7,,,72,0
173880,note_on,0,0,7,,,,,,,,,6,,,74,50
173880,note_on,120,0,9,,,,,,,,,8,,,69,0
173880,note_on,60,0,7,,,,,,,,,6,,,75,0
173940,note_on,60,0,8,,,,,,,,,7,,,70,50
173940,note_on,60,0,7,,,,,,,,,6,,,74,0
173940,note_on,0,0,7,,,,,,,,,6,,,73,50
173940,note_on,60,0,9,,,,,,,,,8,,,67,50
174000,note_on,60,0,8,,,,,,,,,7,,,70,0
174000,note_on,60,0,9,,,,,,,,,8,,,67,0
174000,program_change,600,0,10,,,,,,,,45,10,,,,
174000,note_on,0,0,10,,,,,,,,,10,,,53,50
174000,program_change,600,0,11,,,,,,,,45,11,,,,
174000,note_on,0,0,11,,,,,,,,,11,,,41,50
174000,note_on,7320,0,1,,,,,,,,,0,,,89,60
174000,note_on,0,0,1,,,,,,,,,0,,,86,60
174000,note_on,7320,0,2,,,,,,,,,1,,,81,60
174000,note_on,0,0,8,,,,,,,,,7,,,69,50
174000,note_on,0,0,9,,,,,,,,,8,,,65,50
174000,note_on,0,0,2,,,,,,,,,1,,,74,60
174000,note_on,60,0,7,,,,,,,,,6,,,73,0
174000,note_on,0,0,7,,,,,,,,,6,,,74,50
174060,note_on,60,0,10,,,,,,,,,10,,,53,0
174060,note_on,60,0,11,,,,,,,,,11,,,41,0
174120,note_on,60,0,10,,,,,,,,,10,,,58,50
174120,note_on,120,0,7,,,,,,,,,6,,,74,0
174120,note_on,0,0,2,,,,,,,,,1,,,77,60
174120,note_on,120,0,2,,,,,,,,,1,,,81,0
174120,note_on,60,0,11,,,,,,,,,11,,,46,50
174120,note_on,120,0,9,,,,,,,,,8,,,65,0
174120,note_on,120,0,8,,,,,,,,,7,,,69,0
174180,note_on,60,0,10,,,,,,,,,10,,,58,0
174180,note_on,60,0,11,,,,,,,,,11,,,46,0
174240,note_on,240,0,1,,,,,,,,,0,,,89,0
174240,note_on,0,0,1,,,,,,,,,0,,,88,60
174240,note_on,120,0,2,,,,,,,,,1,,,77,0
174240,note_on,0,0,2,,,,,,,,,1,,,82,60
174240,note_on,60,0,10,,,,,,,,,10,,,55,50
174240,note_on,60,0,11,,,,,,,,,11,,,43,50
174300,note_on,60,0,10,,,,,,,,,10,,,55,0
174300,note_on,60,0,11,,,,,,,,,11,,,43,0
174360,note_on,60,0,11,,,,,,,,,11,,,40,50
174360,note_on,120,0,2,,,,,,,,,1,,,74,0
174360,note_on,0,0,2,,,,,,,,,1,,,79,60
174360,note_on,60,0,10,,,,,,,,,10,,,52,50
174420,note_on,60,0,11,,,,,,,,,11,,,40,0
174420,note_on,60,0,10,,,,,,,,,10,,,52,0
174480,note_on,60,0,10,,,,,,,,,10,,,57,50
174480,note_on,240,0,1,,,,,,,,,0,,,86,0
174480,note_on,60,0,11,,,,,,,,,11,,,45,50
174480,note_on,120,0,2,,,,,,,,,1,,,82,0
174480,note_on,0,0,2,,,,,,,,,1,,,81,60
174480,note_on,0,0,1,,,,,,,,,0,,,85,60
174540,note_on,60,0,10,,,,,,,,,10,,,57,0
174540,note_on,60,0,11,,,,,,,,,11,,,45,0
174540,note_on,1440,0,3,,,,,,,,,2,,,45,70
174600,note_on,60,0,11,,,,,,,,,11,,,33,50
174600,note_on,60,0,3,,,,,,,,,2,,,45,0
174600,note_on,60,0,10,,,,,,,,,10,,,45,50
174600,note_on,0,0,3,,,,,,,,,2,,,57,70
174600,note_on,120,0,2,,,,,,,,,1,,,79,0
174600,note_on,0,0,2,,,,,,,,,1,,,76,60
174600,note_on,0,0,3,,,,,,,,,2,,,54,70
174660,note_on,60,0,10,,,,,,,,,10,,,45,0
174660,note_on,60,0,3,,,,,,,,,2,,,54,0
174660,note_on,0,0,3,,,,,,,,,2,,,57,0
174660,note_on,0,0,3,,,,,,,,,2,,,52,70
174660,note_on,0,0,3,,,,,,,,,2,,,55,70
174660,note_on,60,0,11,,,,,,,,,11,,,33,0
174720,note_on,0,0,2,,,,,,,,,1,,,81,60
174720,note_on,0,0,1,,,,,,,,,0,,,88,0
174720,note_on,60,0,3,,,,,,,,,2,,,55,0
174720,note_on,0,0,3,,,,,,,,,2,,,52,0
174720,note_on,240,0,1,,,,,,,,,0,,,85,0
174720,note_on,0,0,3,,,,,,,,,2,,,54,70
174720,note_on,0,0,3,,,,,,,,,2,,,50,70
174720,note_on,0,0,1,,,,,,,,,0,,,86,60
174720,note_on,120,0,2,,,,,,,,,1,,,76,0
174720,note_on,0,0,9,,,,,,,,,8,,,62,50
174720,program_change,600,0,9,,,,,,,,45,8,,,,
174720,note_on,0,0,2,,,,,,,,,1,,,78,60
174720,note_on,0,0,2,,,,,,,,,1,,,81,0
174720,note_on,600,0,7,,,,,,,,,6,,,74,60
174720,note_on,60,0,10,,,,,,,,,10,,,50,50
174720,note_on,600,0,8,,,,,,,,,7,,,62,60
174720,note_on,60,0,11,,,,,,,,,11,,,38,50
174720,note_on,8040,0,4,,,,,,,,,3,,,45,50
174720,note_on,0,0,4,,,,,,,,,3,,,57,50
174780,note_on,0,0,3,,,,,,,,,2,,,54,0
174780,note_on,0,0,3,,,,,,,,,2,,,50,70
174780,note_on,60,0,3,,,,,,,,,2,,,50,0
174780,note_on,0,0,3,,,,,,,,,2,,,45,70
174840,note_on,0,0,3,,,,,,,,,2,,,45,0
174840,note_on,0,0,3,,,,,,,,,2,,,57,70
174840,note_on,0,0,3,,,,,,,,,2,,,54,70
174840,note_on,60,0,3,,,,,,,,,2,,,50,0
174840,note_on,120,0,10,,,,,,,,,10,,,50,0
174840,note_on,120,0,9,,,,,,,,,8,,,62,0
174840,note_on,0,0,2,,,,,,,,,1,,,78,0
174840,note_on,120,0,1,,,,,,,,,0,,,86,0
174840,note_on,120,0,2,,,,,,,,,1,,,81,0
174840,note_on,120,0,11,,,,,,,,,11,,,38,0
174900,note_on,60,0,3,,,,,,,,,2,,,54,0
174900,note_on,0,0,3,,,,,,,,,2,,,57,0
174900,note_on,0,0,3,,,,,,,,,2,,,52,70
174900,note_on,0,0,3,,,,,,,,,2,,,55,70
174960,note_on,0,0,3,,,,,,,,,2,,,52,0
174960,note_on,0,0,3,,,,,,,,,2,,,50,70
174960,note_on,0,0,3,,,,,,,,,2,,,54,70
174960,note_on,60,0,3,,,,,,,,,2,,,55,0
175020,note_on,60,0,3,,,,,,,,,2,,,54,0
175020,note_on,0,0,3,,,,,,,,,2,,,50,0
175020,note_on,0,0,3,,,,,,,,,2,,,45,70
175020,note_on,0,0,3,,,,,,,,,2,,,50,70
175080,note_on,0,0,3,,,,,,,,,2,,,55,70
175080,note_on,0,0,3,,,,,,,,,2,,,45,0
175080,note_on,60,0,3,,,,,,,,,2,,,50,0
175080,note_on,0,0,8,,,,,,,,,7,,,64,75
175080,note_on,360,0,8,,,,,,,,,7,,,62,0
175080,note_on,0,0,7,,,,,,,,,6,,,76,75
175080,note_on,360,0,7,,,,,,,,,6,,,74,0
175080,note_on,0,0,3,,,,,,,,,2,,,59,70
175140,note_on,60,0,3,,,,,,,,,2,,,55,0
175140,note_on,0,0,3,,,,,,,,,2,,,59,0
175140,note_on,0,0,3,,,,,,,,,2,,,54,70
175140,note_on,0,0,3,,,,,,,,,2,,,57,70
175200,note_on,360,0,9,,,,,,,,,8,,,57,50
175200,note_on,360,0,10,,,,,,,,,10,,,45,50
175200,note_on,0,0,7,,,,,,,,,6,,,74,80
175200,note_on,120,0,8,,,,,,,,,7,,,64,0
175200,note_on,0,0,3,,,,,,,,,2,,,54,0
175200,note_on,60,0,3,,,,,,,,,2,,,57,0
175200,note_on,0,0,8,,,,,,,,,7,,,62,80
175200,note_on,120,0,7,,,,,,,,,6,,,76,0
175200,note_on,360,0,11,,,,,,,,,11,,,33,50
175200,note_on,0,0,3,,,,,,,,,2,,,55,70
175200,note_on,0,0,3,,,,,,,,,2,,,52,70
175260,note_on,0,0,7,,,,,,,,,6,,,73,78
175260,note_on,60,0,7,,,,,,,,,6,,,74,0
175260,note_on,0,0,8,,,,,,,,,7,,,61,78
175260,note_on,60,0,8,,,,,,,,,7,,,62,0
175320,note_on,60,0,7,,,,,,,,,6,,,73,0
175320,note_on,120,0,10,,,,,,,,,10,,,45,0
175320,note_on,60,0,8,,,,,,,,,7,,,61,0
175320,note_on,0,0,8,,,,,,,,,7,,,59,75
175320,note_on,0,0,7,,,,,,,,,6,,,71,75
175320,note_on,120,0,11,,,,,,,,,11,,,33,0
175320,note_on,120,0,9,,,,,,,,,8,,,57,0
175380,note_on,0,0,7,,,,,,,,,6,,,69,73
175380,note_on,0,0,8,,,,,,,,,7,,,57,73
175380,note_on,60,0,8,,,,,,,,,7,,,59,0
175380,note_on,60,0,7,,,,,,,,,6,,,71,0
175425,note_on,45,0,7,,,,,,,,,6,,,69,0
175425,note_on,45,0,8,,,,,,,,,7,,,57,0
175440,note_on,15,0,7,,,,,,,,,6,,,69,70
175440,note_on,15,0,8,,,,,,,,,7,,,57,70
175440,note_on,0,0,3,,,,,,,,,2,,,55,0
175440,note_on,240,0,3,,,,,,,,,2,,,52,0
175500,note_on,60,0,3,,,,,,,,,2,,,45,70
175530,note_on,90,0,7,,,,,,,,,6,,,69,0
175530,note_on,90,0,8,,,,,,,,,7,,,57,0
175560,note_on,0,0,3,,,,,,,,,2,,,57,70
175560,note_on,60,0,3,,,,,,,,,2,,,45,0
175560,note_on,30,0,7,,,,,,,,,6,,,69,65
175560,note_on,0,0,3,,,,,,,,,2,,,54,70
175560,note_on,30,0,8,,,,,,,,,7,,,69,65
175620,note_on,0,0,3,,,,,,,,,2,,,57,0
175620,note_on,60,0,3,,,,,,,,,2,,,54,0
175620,note_on,0,0,3,,,,,,,,,2,,,52,70
175620,note_on,0,0,3,,,,,,,,,2,,,55,70
175650,note_on,90,0,7,,,,,,,,,6,,,69,0
175650,note_on,90,0,8,,,,,,,,,7,,,69,0
175680,note_on,60,0,3,,,,,,,,,2,,,55,0
175680,note_on,0,0,3,,,,,,,,,2,,,52,0
175680,note_on,0,0,3,,,,,,,,,2,,,54,70
175680,note_on,360,0,11,,,,,,,,,11,,,38,50
175680,note_on,30,0,8,,,,,,,,,7,,,69,60
175680,note_on,30,0,7,,,,,,,,,6,,,69,60
175680,note_on,360,0,9,,,,,,,,,8,,,62,50
175680,note_on,0,0,3,,,,,,,,,2,,,50,70
175680,note_on,360,0,10,,,,,,,,,10,,,50,50
175740,note_on,60,0,3,,,,,,,,,2,,,50,0
175740,note_on,0,0,3,,,,,,,,,2,,,45,70
175740,note_on,0,0,3,,,,,,,,,2,,,54,0
175740,note_on,0,0,3,,,,,,,,,2,,,50,70
175800,note_on,120,0,8,,,,,,,,,7,,,69,0
175800,note_on,120,0,7,,,,,,,,,6,,,69,0
175800,note_on,0,0,7,,,,,,,,,6,,,74,65
175800,note_on,120,0,11,,,,,,,,,11,,,38,0
175800,note_on,120,0,10,,,,,,,,,10,,,50,0
175800,note_on,0,0,8,,,,,,,,,7,,,74,65
175800,note_on,60,0,3,,,,,,,,,2,,,50,0
175800,note_on,0,0,3,,,,,,,,,2,,,45,0
175800,note_on,0,0,3,,,,,,,,,2,,,57,70
175800,note_on,0,0,3,,,,,,,,,2,,,54,70
175800,note_on,120,0,9,,,,,,,,,8,,,62,0
175860,note_on,60,0,3,,,,,,,,,2,,,54,0
175860,note_on,0,0,3,,,,,,,,,2,,,52,70
175860,note_on,0,0,3,,,,,,,,,2,,,55,70
175860,note_on,0,0,3,,,,,,,,,2,,,57,0
175920,note_on,0,0,3,,,,,,,,,2,,,54,70
175920,note_on,0,0,3,,,,,,,,,2,,,50,70
175920,note_on,0,0,3,,,,,,,,,2,,,52,0
175920,note_on,60,0,3,,,,,,,,,2,,,55,0
175980,note_on,0,0,3,,,,,,,,,2,,,50,0
175980,note_on,60,0,3,,,,,,,,,2,,,54,0
175980,note_on,0,0,3,,,,,,,,,2,,,45,70
175980,note_on,0,0,3,,,,,,,,,2,,,50,70
176040,note_on,0,0,7,,,,,,,,,6,,,76,75
176040,note_on,240,0,7,,,,,,,,,6,,,74,0
176040,note_on,0,0,3,,,,,,,,,2,,,55,70
176040,note_on,240,0,8,,,,,,,,,7,,,74,0
176040,note_on,0,0,8,,,,,,,,,7,,,76,75
176040,note_on,60,0,3,,,,,,,,,2,,,50,0
176040,note_on,0,0,3,,,,,,,,,2,,,45,0
176040,note_on,0,0,3,,,,,,,,,2,,,59,70
176100,note_on,0,0,3,,,,,,,,,2,,,57,70
176100,note_on,60,0,3,,,,,,,,,2,,,55,0
176100,note_on,0,0,3,,,,,,,,,2,,,59,0
176100,note_on,0,0,3,,,,,,,,,2,,,54,70
176160,note_on,0,0,3,,,,,,,,,2,,,55,70
176160,note_on,120,0,8,,,,,,,,,7,,,76,0
176160,note_on,0,0,8,,,,,,,,,7,,,74,80
176160,note_on,0,0,7,,,,,,,,,6,,,74,80
176160,note_on,0,0,3,,,,,,,,,2,,,52,70
176160,note_on,60,0,3,,,,,,,,,2,,,57,0
176160,note_on,120,0,7,,,,,,,,,6,,,76,0
176160,note_on,0,0,3,,,,,,,,,2,,,54,0
176160,note_on,360,0,10,,,,,,,,,10,,,57,50
176160,note_on,360,0,11,,,,,,,,,11,,,45,50
176160,note_on,360,0,9,,,,,,,,,8,,,57,50
176220,note_on,60,0,7,,,,,,,,,6,,,74,0
176220,note_on,0,0,7,,,,,,,,,6,,,73,78
176220,note_on,60,0,8,,,,,,,,,7,,,74,0
176220,note_on,0,0,8,,,,,,,,,7,,,73,78
176280,note_on,120,0,11,,,,,,,,,11,,,45,0
176280,note_on,60,0,8,,,,,,,,,7,,,73,0
176280,note_on,120,0,9,,,,,,,,,8,,,57,0
176280,note_on,0,0,7,,,,,,,,,6,,,71,75
176280,note_on,60,0,7,,,,,,,,,6,,,73,0
176280,note_on,120,0,10,,,,,,,,,10,,,57,0
176280,note_on,0,0,8,,,,,,,,,7,,,71,75
176340,note_on,0,0,8,,,,,,,,,7,,,69,73
176340,note_on,0,0,7,,,,,,,,,6,,,69,73
176340,note_on,60,0,7,,,,,,,,,6,,,71,0
176340,note_on,60,0,8,,,,,,,,,7,,,71,0
176385,note_on,45,0,8,,,,,,,,,7,,,69,0
176385,note_on,45,0,7,,,,,,,,,6,,,69,0
176400,note_on,15,0,7,,,,,,,,,6,,,69,70
176400,note_on,240,0,3,,,,,,,,,2,,,55,0
176400,note_on,0,0,3,,,,,,,,,2,,,52,0
176400,note_on,15,0,8,,,,,,,,,7,,,69,70
176520,note_on,0,0,8,,,,,,,,,7,,,79,65
176520,note_on,120,0,8,,,,,,,,,7,,,69,0
176520,note_on,0,0,7,,,,,,,,,6,,,81,65
176520,note_on,120,0,7,,,,,,,,,6,,,69,0
176640,note_on,0,0,7,,,,,,,,,6,,,81,50
176640,note_on,120,0,7,,,,,,,,,6,,,81,0
176700,note_on,180,0,8,,,,,,,,,7,,,79,0
176700,note_on,0,0,8,,,,,,,,,7,,,78,50
176760,note_on,0,0,8,,,,,,,,,7,,,76,50
176760,note_on,60,0,8,,,,,,,,,7,,,78,0
176820,note_on,180,0,7,,,,,,,,,6,,,81,0
176820,note_on,0,0,7,,,,,,,,,6,,,83,50
176820,note_on,0,0,8,,,,,,,,,7,,,74,50
176820,note_on,60,0,8,,,,,,,,,7,,,76,0
176865,note_on,45,0,8,,,,,,,,,7,,,74,0
176880,note_on,60,0,7,,,,,,,,,6,,,83,0
176880,note_on,0,0,7,,,,,,,,,6,,,84,50
176880,note_on,15,0,8,,,,,,,,,7,,,74,50
177000,note_on,0,0,9,,,,,,,,,8,,,72,50
177000,program_change,720,0,9,,,,,,,,48,8,,,,
177000,note_on,0,0,8,,,,,,,,,7,,,74,50
177000,note_on,120,0,8,,,,,,,,,7,,,74,0
177000,note_on,120,0,7,,,,,,,,,6,,,84,0
177000,note_on,0,0,7,,,,,,,,,6,,,78,50
177120,note_on,120,0,8,,,,,,,,,7,,,74,0
177120,note_on,0,0,4,,,,,,,,,3,,,43,50
177120,note_on,0,0,4,,,,,,,,,3,,,45,0
177120,note_on,2400,0,4,,,,,,,,,3,,,57,0
177120,note_on,0,0,3,,,,,,,,,2,,,55,70
177120,note_on,120,0,7,,,,,,,,,6,,,78,0
177120,note_on,0,0,4,,,,,,,,,3,,,55,50
177120,note_on,0,0,7,,,,,,,,,6,,,79,50
177120,note_on,720,0,3,,,,,,,,,2,,,67,70
177120,note_on,0,0,8,,,,,,,,,7,,,74,50
177180,note_on,0,0,9,,,,,,,,,8,,,71,50
177180,note_on,180,0,9,,,,,,,,,8,,,72,0
177240,note_on,0,0,9,,,,,,,,,8,,,69,50
177240,note_on,60,0,9,,,,,,,,,8,,,71,0
177300,note_on,0,0,9,,,,,,,,,8,,,67,50
177300,note_on,60,0,9,,,,,,,,,8,,,69,0
177300,note_on,180,0,7,,,,,,,,,6,,,79,0
177300,note_on,0,0,7,,,,,,,,,6,,,81,55
177345,note_on,45,0,9,,,,,,,,,8,,,67,0
177360,note_on,0,0,7,,,,,,,,,6,,,83,57
177360,note_on,60,0,7,,,,,,,,,6,,,81,0
177360,note_on,15,0,9,,,,,,,,,8,,,67,50
177480,note_on,360,0,8,,,,,,,,,7,,,74,0
177480,program_change,1200,0,10,,,,,,,,48,10,,,,
177480,note_on,0,0,10,,,,,,,,,10,,,66,50
177480,note_on,120,0,9,,,,,,,,,8,,,67,0
177480,note_on,0,0,9,,,,,,,,,8,,,67,50
177480,note_on,0,0,8,,,,,,,,,7,,,74,61
177480,program_change,1200,0,11,,,,,,,,48,11,,,,
177480,note_on,0,0,11,,,,,,,,,11,,,54,50
177480,note_on,120,0,7,,,,,,,,,6,,,83,0
177480,note_on,0,0,7,,,,,,,,,6,,,86,61
177600,note_on,120,0,8,,,,,,,,,7,,,74,0
177600,note_on,0,0,8,,,,,,,,,7,,,76,65
177600,note_on,120,0,7,,,,,,,,,6,,,86,0
177600,note_on,0,0,2,,,,,,,,,1,,,79,50
177600,note_on,0,0,7,,,,,,,,,6,,,88,65
177600,note_on,2760,0,2,,,,,,,,,1,,,81,50
177660,note_on,0,0,11,,,,,,,,,11,,,52,50
177660,note_on,180,0,11,,,,,,,,,11,,,54,0
177660,note_on,0,0,10,,,,,,,,,10,,,64,50
177660,note_on,180,0,10,,,,,,,,,10,,,66,0
177720,note_on,60,0,11,,,,,,,,,11,,,52,0
177720,note_on,0,0,11,,,,,,,,,11,,,50,50
177720,note_on,0,0,9,,,,,,,,,8,,,66,50
177720,note_on,60,0,10,,,,,,,,,10,,,64,0
177720,note_on,0,0,10,,,,,,,,,10,,,62,50
177720,note_on,240,0,9,,,,,,,,,8,,,67,0
177780,note_on,0,0,7,,,,,,,,,6,,,90,70
177780,note_on,180,0,7,,,,,,,,,6,,,88,0
177780,note_on,0,0,8,,,,,,,,,7,,,78,70
177780,note_on,60,0,10,,,,,,,,,10,,,62,0
177780,note_on,0,0,9,,,,,,,,,8,,,64,50
177780,note_on,60,0,9,,,,,,,,,8,,,66,0
177780,note_on,60,0,11,,,,,,,,,11,,,50,0
177780,note_on,0,0,11,,,,,,,,,11,,,49,50
177780,note_on,180,0,8,,,,,,,,,7,,,76,0
177780,note_on,0,0,10,,,,,,,,,10,,,61,50
177825,note_on,45,0,11,,,,,,,,,11,,,49,0
177825,note_on,45,0,10,,,,,,,,,10,,,61,0
177840,note_on,15,0,10,,,,,,,,,10,,,61,50
177840,note_on,15,0,11,,,,,,,,,11,,,49,50
177840,note_on,60,0,7,,,,,,,,,6,,,90,0
177840,note_on,0,0,7,,,,,,,,,6,,,91,72
177840,note_on,0,0,8,,,,,,,,,7,,,79,72
177840,note_on,0,0,9,,,,,,,,,8,,,69,50
177840,note_on,60,0,9,,,,,,,,,8,,,64,0
177840,note_on,60,0,8,,,,,,,,,7,,,78,0
177960,note_on,0,0,9,,,,,,,,,8,,,67,50
177960,note_on,120,0,10,,,,,,,,,10,,,61,0
177960,note_on,120,0,9,,,,,,,,,8,,,69,0
177960,note_on,0,0,10,,,,,,,,,10,,,61,50
177960,note_on,0,0,11,,,,,,,,,11,,,49,50
177960,note_on,120,0,11,,,,,,,,,11,,,49,0
177960,note_on,0,0,7,,,,,,,,,6,,,81,76
177960,note_on,0,0,8,,,,,,,,,7,,,76,76
177960,note_on,120,0,8,,,,,,,,,7,,,79,0
177960,note_on,120,0,7,,,,,,,,,6,,,91,0
178080,note_on,120,0,10,,,,,,,,,10,,,61,0
178080,note_on,0,0,10,,,,,,,,,10,,,62,50
178080,note_on,120,0,7,,,,,,,,,6,,,81,0
178080,note_on,0,0,9,,,,,,,,,8,,,66,50
178080,note_on,120,0,9,,,,,,,,,8,,,67,0
178080,note_on,480,0,2,,,,,,,,,1,,,79,0
178080,note_on,0,0,11,,,,,,,,,11,,,50,50
178080,note_on,0,0,2,,,,,,,,,1,,,78,50
178080,note_on,960,0,4,,,,,,,,,3,,,55,0
178080,note_on,960,0,3,,,,,,,,,2,,,55,0
178080,note_on,0,0,3,,,,,,,,,2,,,67,0
178080,note_on,0,0,3,,,,,,,,,2,,,62,70
178080,note_on,0,0,3,,,,,,,,,2,,,50,70
178080,note_on,0,0,4,,,,,,,,,3,,,43,0
178080,note_on,0,0,4,,,,,,,,,3,,,69,50
178080,note_on,0,0,4,,,,,,,,,3,,,66,50
178080,note_on,0,0,7,,,,,,,,,6,,,81,70
178080,note_on,120,0,8,,,,,,,,,7,,,76,0
178080,note_on,120,0,11,,,,,,,,,11,,,49,0
178080,note_on,0,0,8,,,,,,,,,7,,,74,70
178140,note_on,0,0,7,,,,,,,,,6,,,86,69
178140,note_on,60,0,7,,,,,,,,,6,,,81,0
178170,note_on,30,0,7,,,,,,,,,6,,,86,0
178200,note_on,30,0,7,,,,,,,,,6,,,86,68
178200,note_on,120,0,11,,,,,,,,,11,,,50,0
178200,note_on,0,0,3,,,,,,,,,2,,,62,0
178200,note_on,120,0,3,,,,,,,,,2,,,50,0
178200,note_on,120,0,8,,,,,,,,,7,,,74,0
178200,note_on,120,0,9,,,,,,,,,8,,,66,0
178200,note_on,120,0,10,,,,,,,,,10,,,62,0
178230,note_on,30,0,7,,,,,,,,,6,,,86,0
178260,note_on,30,0,7,,,,,,,,,6,,,86,67
178290,note_on,30,0,7,,,,,,,,,6,,,86,0
178320,note_on,120,0,10,,,,,,,,,10,,,55,50
178320,note_on,120,0,8,,,,,,,,,7,,,71,65
178320,note_on,0,0,2,,,,,,,,,1,,,81,0
178320,note_on,240,0,2,,,,,,,,,1,,,78,0
178320,note_on,120,0,9,,,,,,,,,8,,,67,50
178320,note_on,120,0,11,,,,,,,,,11,,,43,50
178320,note_on,0,0,4,,,,,,,,,3,,,67,50
178320,note_on,0,0,4,,,,,,,,,3,,,64,50
178320,note_on,0,0,4,,,,,,,,,3,,,69,0
178320,note_on,240,0,4,,,,,,,,,3,,,66,0
178320,note_on,0,0,2,,,,,,,,,1,,,79,50
178320,note_on,0,0,2,,,,,,,,,1,,,76,50
178320,note_on,30,0,7,,,,,,,,,6,,,76,65
178380,note_on,60,0,7,,,,,,,,,6,,,76,0
178380,note_on,0,0,7,,,,,,,,,6,,,83,64
178410,note_on,30,0,7,,,,,,,,,6,,,83,0
178440,note_on,120,0,11,,,,,,,,,11,,,43,0
178440,note_on,120,0,9,,,,,,,,,8,,,67,0
178440,note_on,120,0,8,,,,,,,,,7,,,71,0
178440,note_on,120,0,10,,,,,,,,,10,,,55,0
178440,note_on,30,0,7,,,,,,,,,6,,,83,63
178470,note_on,30,0,7,,,,,,,,,6,,,83,0
178500,note_on,30,0,7,,,,,,,,,6,,,83,62
178530,note_on,30,0,7,,,,,,,,,6,,,83,0
178560,note_on,0,0,4,,,,,,,,,3,,,66,50
178560,note_on,0,0,2,,,,,,,,,1,,,76,0
178560,note_on,0,0,2,,,,,,,,,1,,,74,50
178560,note_on,0,0,2,,,,,,,,,1,,,78,50
178560,note_on,120,0,9,,,,,,,,,8,,,62,50
178560,note_on,120,0,11,,,,,,,,,11,,,45,50
178560,note_on,240,0,2,,,,,,,,,1,,,79,0
178560,note_on,30,0,7,,,,,,,,,6,,,81,60
178560,note_on,120,0,8,,,,,,,,,7,,,66,60
178560,note_on,120,0,10,,,,,,,,,10,,,57,50
178560,note_on,0,0,4,,,,,,,,,3,,,64,0
178560,note_on,0,0,4,,,,,,,,,3,,,62,50
178560,note_on,240,0,4,,,,,,,,,3,,,67,0
178620,note_on,0,0,7,,,,,,,,,6,,,78,59
178620,note_on,60,0,8,,,,,,,,,7,,,66,0
178620,note_on,60,0,7,,,,,,,,,6,,,81,0
178620,note_on,60,0,9,,,,,,,,,8,,,62,0
178650,note_on,30,0,7,,,,,,,,,6,,,78,0
178680,note_on,60,0,8,,,,,,,,,7,,,69,58
178680,note_on,60,0,9,,,,,,,,,8,,,66,50
178680,note_on,120,0,10,,,,,,,,,10,,,57,0
178680,note_on,30,0,7,,,,,,,,,6,,,74,58
178680,note_on,120,0,11,,,,,,,,,11,,,45,0
178710,note_on,30,0,7,,,,,,,,,6,,,74,0
178740,note_on,60,0,9,,,,,,,,,8,,,66,0
178740,note_on,30,0,7,,,,,,,,,6,,,74,57
178740,note_on,60,0,8,,,,,,,,,7,,,69,0
178770,note_on,30,0,7,,,,,,,,,6,,,74,0
178800,note_on,60,0,9,,,,,,,,,8,,,61,50
178800,note_on,0,0,4,,,,,,,,,3,,,62,0
178800,note_on,0,0,4,,,,,,,,,3,,,57,50
178800,note_on,0,0,4,,,,,,,,,3,,,64,50
178800,note_on,120,0,10,,,,,,,,,10,,,45,50
178800,note_on,0,0,2,,,,,,,,,1,,,76,50
178800,note_on,0,0,2,,,,,,,,,1,,,73,50
178800,note_on,60,0,8,,,,,,,,,7,,,64,55
178800,note_on,120,0,11,,,,,,,,,11,,,33,50
178800,note_on,30,0,7,,,,,,,,,6,,,79,55
178800,note_on,0,0,2,,,,,,,,,1,,,74,0
178800,note_on,240,0,4,,,,,,,,,3,,,66,0
178800,note_on,240,0,2,,,,,,,,,1,,,78,0
178860,note_on,0,0,7,,,,,,,,,6,,,76,54
178860,note_on,60,0,7,,,,,,,,,6,,,79,0
178860,note_on,60,0,8,,,,,,,,,7,,,64,0
178860,note_on,60,0,9,,,,,,,,,8,,,61,0
178890,note_on,30,0,7,,,,,,,,,6,,,76,0
178920,note_on,120,0,11,,,,,,,,,11,,,33,0
178920,note_on,30,0,7,,,,,,,,,6,,,73,53
178920,note_on,60,0,9,,,,,,,,,8,,,64,50
178920,note_on,60,0,8,,,,,,,,,7,,,67,53
178920,note_on,120,0,10,,,,,,,,,10,,,45,0
178950,note_on,30,0,7,,,,,,,,,6,,,73,0
178980,note_on,30,0,7,,,,,,,,,6,,,73,52
178980,note_on,60,0,9,,,,,,,,,8,,,64,0
178980,note_on,60,0,8,,,,,,,,,7,,,67,0
179010,note_on,30,0,7,,,,,,,,,6,,,73,0
179040,note_on,240,0,2,,,,,,,,,1,,,76,0
179040,note_on,30,0,7,,,,,,,,,6,,,78,100
179040,note_on,0,0,2,,,,,,,,,1,,,73,0
179040,note_on,0,0,4,,,,,,,,,3,,,57,0
179040,note_on,60,0,8,,,,,,,,,7,,,66,100
179040,marker,12480,1,0,,,,,,,,,,,,,
179040,note_on,60,0,9,,,,,,,,,8,,,62,100
179040,note_on,240,0,4,,,,,,,,,3,,,64,0
179070,note_on,0,0,7,,,,,,,,,6,,,81,100
179070,note_on,30,0,7,,,,,,,,,6,,,78,0
179100,note_on,0,0,7,,,,,,,,,6,,,79,100
179100,note_on,30,0,7,,,,,,,,,6,,,81,0
179130,note_on,90,0,8,,,,,,,,,7,,,66,0
179130,note_on,30,0,7,,,,,,,,,6,,,79,0
179130,note_on,0,0,7,,,,,,,,,6,,,78,100
179160,note_on,12480,0,6,,,,,,,,,5,,,50,120
179160,note_on,120,0,9,,,,,,,,,8,,,62,0
179160,note_on,0,0,9,,,,,,,,,8,,,62,120
179160,note_on,240,0,11,,,,,,,,,11,,,50,120
179160,note_on,0,0,1,,,,,,,,,0,,,78,120
179160,note_on,0,0,5,,,,,,,,,4,,,74,120
179160,note_on,12480,0,5,,,,,,,,,4,,,62,120
179160,note_on,240,0,10,,,,,,,,,10,,,62,120
179160,note_on,4320,0,1,,,,,,,,,0,,,83,120
179160,note_on,960,0,3,,,,,,,,,2,,,62,120
179160,note_on,30,0,8,,,,,,,,,7,,,83,120
179160,note_on,30,0,7,,,,,,,,,6,,,78,0
179160,note_on,0,0,4,,,,,,,,,3,,,62,120
179160,note_on,120,0,4,,,,,,,,,3,,,66,120
179160,note_on,0,0,7,,,,,,,,,6,,,83,120
179160,note_on,0,0,2,,,,,,,,,1,,,78,120
179160,note_on,120,0,2,,,,,,,,,1,,,83,120
179250,note_on,0,0,5,,,,,,,,,4,,,62,0
179250,note_on,90,0,5,,,,,,,,,4,,,74,0
179250,note_on,90,0,8,,,,,,,,,7,,,83,0
179250,note_on,0,0,1,,,,,,,,,0,,,83,0
179250,note_on,90,0,1,,,,,,,,,0,,,78,0
179250,note_on,90,0,3,,,,,,,,,2,,,62,0
179250,note_on,0,0,2,,,,,,,,,1,,,83,0
179250,note_on,90,0,2,,,,,,,,,1,,,78,0
179250,note_on,90,0,7,,,,,,,,,6,,,83,0
179250,note_on,90,0,11,,,,,,,,,11,,,50,0
179250,note_on,90,0,9,,,,,,,,,8,,,62,0
179250,note_on,0,0,4,,,,,,,,,3,,,66,0
179250,note_on,90,0,4,,,,,,,,,3,,,62,0
179250,note_on,90,0,10,,,,,,,,,10,,,62,0
179280,note_on,30,0,8,,,,,,,,,7,,,76,100
179280,note_on,120,0,6,,,,,,,,,5,,,50,0
179280,note_on,30,0,7,,,,,,,,,6,,,76,100
179310,note_on,0,0,8,,,,,,,,,7,,,79,100
179310,note_on,30,0,8,,,,,,,,,7,,,76,0
179310,note_on,0,0,7,,,,,,,,,6,,,79,100
179310,note_on,30,0,7,,,,,,,,,6,,,76,0
179340,note_on,30,0,8,,,,,,,,,7,,,79,0
179340,note_on,0,0,8,,,,,,,,,7,,,78,100
179340,note_on,0,0,7,,,,,,,,,6,,,78,100
179340,note_on,30,0,7,,,,,,,,,6,,,79,0
179370,note_on,0,0,7,,,,,,,,,6,,,76,100
179370,note_on,30,0,7,,,,,,,,,6,,,78,0
179370,note_on,0,0,8,,,,,,,,,7,,,76,100
179370,note_on,30,0,8,,,,,,,,,7,,,78,0
179400,note_on,150,0,9,,,,,,,,,8,,,61,120
179400,note_on,150,0,2,,,,,,,,,1,,,76,120
179400,note_on,150,0,11,,,,,,,,,11,,,49,120
179400,note_on,0,0,2,,,,,,,,,1,,,81,120
179400,note_on,150,0,3,,,,,,,,,2,,,61,120
179400,note_on,150,0,1,,,,,,,,,0,,,81,120
179400,note_on,0,0,1,,,,,,,,,0,,,76,120
179400,note_on,0,0,7,,,,,,,,,6,,,81,120
179400,note_on,30,0,7,,,,,,,,,6,,,76,0
179400,note_on,0,0,5,,,,,,,,,4,,,69,120
179400,note_on,150,0,5,,,,,,,,,4,,,57,120
179400,note_on,150,0,10,,,,,,,,,10,,,61,120
179400,note_on,120,0,6,,,,,,,,,5,,,45,120
179400,note_on,0,0,8,,,,,,,,,7,,,81,120
179400,note_on,0,0,4,,,,,,,,,3,,,64,120
179400,note_on,30,0,8,,,,,,,,,7,,,76,0
179400,note_on,150,0,4,,,,,,,,,3,,,57,120
179490,note_on,90,0,8,,,,,,,,,7,,,81,0
179490,note_on,90,0,10,,,,,,,,,10,,,61,0
179490,note_on,0,0,2,,,,,,,,,1,,,76,0
179490,note_on,90,0,4,,,,,,,,,3,,,64,0
179490,note_on,0,0,4,,,,,,,,,3,,,57,0
179490,note_on,90,0,2,,,,,,,,,1,,,81,0
179490,note_on,90,0,7,,,,,,,,,6,,,81,0
179490,note_on,90,0,1,,,,,,,,,0,,,76,0
179490,note_on,0,0,1,,,,,,,,,0,,,81,0
179490,note_on,90,0,3,,,,,,,,,2,,,61,0
179490,note_on,90,0,5,,,,,,,,,4,,,69,0
179490,note_on,0,0,5,,,,,,,,,4,,,57,0
179490,note_on,90,0,11,,,,,,,,,11,,,49,0
179490,note_on,90,0,9,,,,,,,,,8,,,61,0
179520,note_on,120,0,6,,,,,,,,,5,,,45,0
179520,note_on,30,0,7,,,,,,,,,6,,,74,100
179520,note_on,30,0,8,,,,,,,,,7,,,74,100
179550,note_on,0,0,7,,,,,,,,,6,,,78,100
179550,note_on,30,0,8,,,,,,,,,7,,,74,0
179550,note_on,30,0,7,,,,,,,,,6,,,74,0
179550,note_on,0,0,8,,,,,,,,,7,,,78,100
179580,note_on,30,0,8,,,,,,,,,7,,,78,0
179580,note_on,0,0,8,,,,,,,,,7,,,76,100
179580,note_on,0,0,7,,,,,,,,,6,,,76,100
179580,note_on,30,0,7,,,,,,,,,6,,,78,0
179610,note_on,30,0,7,,,,,,,,,6,,,76,0
179610,note_on,0,0,7,,,,,,,,,6,,,74,100
179610,note_on,0,0,8,,,,,,,,,7,,,74,100
179610,note_on,30,0,8,,,,,,,,,7,,,76,0
179640,note_on,0,0,2,,,,,,,,,1,,,74,100
179640,note_on,0,0,5,,,,,,,,,4,,,74,100
179640,note_on,150,0,5,,,,,,,,,4,,,62,100
179640,note_on,0,0,4,,,,,,,,,3,,,62,100
179640,note_on,30,0,7,,,,,,,,,6,,,74,0
179640,note_on,150,0,10,,,,,,,,,10,,,59,100
179640,note_on,150,0,1,,,,,,,,,0,,,79,100
179640,note_on,150,0,4,,,,,,,,,3,,,50,100
179640,note_on,150,0,2,,,,,,,,,1,,,79,100
179640,note_on,0,0,7,,,,,,,,,6,,,79,100
179640,note_on,150,0,11,,,,,,,,,11,,,47,100
179640,note_on,150,0,3,,,,,,,,,2,,,59,100
179640,note_on,150,0,9,,,,,,,,,8,,,59,100
179640,note_on,30,0,8,,,,,,,,,7,,,74,0
179640,note_on,0,0,1,,,,,,,,,0,,,74,100
179640,note_on,0,0,8,,,,,,,,,7,,,79,100
179640,note_on,120,0,6,,,,,,,,,5,,,50,100
179730,note_on,0,0,4,,,,,,,,,3,,,50,0
179730,note_on,90,0,11,,,,,,,,,11,,,47,0
179730,note_on,90,0,3,,,,,,,,,2,,,59,0
179730,note_on,90,0,10,,,,,,,,,10,,,59,0
179730,note_on,90,0,4,,,,,,,,,3,,,62,0
179730,note_on,90,0,1,,,,,,,,,0,,,74,0
179730,note_on,90,0,2,,,,,,,,,1,,,74,0
179730,note_on,90,0,9,,,,,,,,,8,,,59,0
179730,note_on,90,0,5,,,,,,,,,4,,,74,0
179730,note_on,0,0,5,,,,,,,,,4,,,62,0
179760,note_on,0,0,4,,,,,,,,,3,,,64,120
179760,note_on,0,0,5,,,,,,,,,4,,,76,120
179760,note_on,30,0,3,,,,,,,,,2,,,57,120
179760,note_on,30,0,2,,,,,,,,,1,,,73,120
179760,note_on,30,0,9,,,,,,,,,8,,,57,120
179760,note_on,30,0,10,,,,,,,,,10,,,57,120
179760,note_on,120,0,6,,,,,,,,,5,,,50,0
179760,note_on,30,0,5,,,,,,,,,4,,,69,120
179760,note_on,30,0,11,,,,,,,,,11,,,45,120
179760,note_on,0,0,6,,,,,,,,,5,,,45,120
179760,note_on,30,0,4,,,,,,,,,3,,,57,120
179760,note_on,30,0,1,,,,,,,,,0,,,73,120
179820,note_on,0,0,8,,,,,,,,,7,,,76,100
179820,note_on,180,0,7,,,,,,,,,6,,,79,0
179820,note_on,0,0,7,,,,,,,,,6,,,76,100
179820,note_on,180,0,8,,,,,,,,,7,,,79,0
179880,note_on,60,0,8,,,,,,,,,7,,,76,0
179880,note_on,120,0,6,,,,,,,,,5,,,45,0
179880,note_on,0,0,8,,,,,,,,,7,,,73,100
179880,note_on,60,0,7,,,,,,,,,6,,,76,0
179880,note_on,0,0,7,,,,,,,,,6,,,73,100
179940,note_on,0,0,8,,,,,,,,,7,,,69,100
179940,note_on,60,0,8,,,,,,,,,7,,,73,0
179940,note_on,60,0,7,,,,,,,,,6,,,73,0
179940,note_on,0,0,7,,,,,,,,,6,,,69,100
180000,note_on,240,0,11,,,,,,,,,11,,,45,0
180000,note_on,0,0,7,,,,,,,,,6,,,78,100
180000,note_on,60,0,7,,,,,,,,,6,,,69,0
180000,note_on,0,0,2,,,,,,,,,1,,,79,0
180000,note_on,0,0,5,,,,,,,,,4,,,69,0
180000,note_on,0,0,4,,,,,,,,,3,,,57,0
180000,note_on,240,0,4,,,,,,,,,3,,,64,0
180000,note_on,240,0,5,,,,,,,,,4,,,76,0
180000,note_on,240,0,2,,,,,,,,,1,,,73,0
180000,note_on,240,0,1,,,,,,,,,0,,,73,0
180000,note_on,60,0,8,,,,,,,,,7,,,69,0
180000,note_on,240,0,3,,,,,,,,,2,,,57,0
180000,note_on,240,0,9,,,,,,,,,8,,,57,0
180000,note_on,240,0,10,,,,,,,,,10,,,57,0
180000,note_on,0,0,1,,,,,,,,,0,,,79,0
180000,note_on,0,0,8,,,,,,,,,7,,,78,100
180030,note_on,30,0,8,,,,,,,,,7,,,78,0
180030,note_on,0,0,8,,,,,,,,,7,,,81,100
180030,note_on,0,0,7,,,,,,,,,6,,,81,100
180030,note_on,30,0,7,,,,,,,,,6,,,78,0
180060,note_on,0,0,7,,,,,,,,,6,,,79,100
180060,note_on,30,0,7,,,,,,,,,6,,,81,0
180060,note_on,0,0,8,,,,,,,,,7,,,79,100
180060,note_on,30,0,8,,,,,,,,,7,,,81,0
180090,note_on,0,0,8,,,,,,,,,7,,,78,100
180090,note_on,30,0,7,,,,,,,,,6,,,79,0
180090,note_on,0,0,7,,,,,,,,,6,,,78,100
180090,note_on,30,0,8,,,,,,,,,7,,,79,0
180120,note_on,120,0,2,,,,,,,,,1,,,83,120
180120,note_on,0,0,5,,,,,,,,,4,,,74,120
180120,note_on,120,0,5,,,,,,,,,4,,,62,120
180120,note_on,0,0,2,,,,,,,,,1,,,78,120
180120,note_on,120,0,4,,,,,,,,,3,,,66,120
180120,note_on,240,0,6,,,,,,,,,5,,,50,120
180120,note_on,0,0,1,,,,,,,,,0,,,78,120
180120,note_on,120,0,1,,,,,,,,,0,,,83,120
180120,note_on,120,0,11,,,,,,,,,11,,,50,120
180120,note_on,0,0,4,,,,,,,,,3,,,62,120
180120,note_on,30,0,7,,,,,,,,,6,,,78,0
180120,note_on,0,0,7,,,,,,,,,6,,,83,120
180120,note_on,30,0,8,,,,,,,,,7,,,78,0
180120,note_on,0,0,8,,,,,,,,,7,,,83,120
180120,note_on,120,0,3,,,,,,,,,2,,,62,120
180120,note_on,120,0,9,,,,,,,,,8,,,62,120
180120,note_on,120,0,10,,,,,,,,,10,,,62,120
180210,note_on,90,0,11,,,,,,,,,11,,,50,0
180210,note_on,90,0,3,,,,,,,,,2,,,62,0
180210,note_on,90,0,5,,,,,,,,,4,,,74,0
180210,note_on,90,0,9,,,,,,,,,8,,,62,0
180210,note_on,90,0,1,,,,,,,,,0,,,78,0
180210,note_on,0,0,5,,,,,,,,,4,,,62,0
180210,note_on,0,0,1,,,,,,,,,0,,,83,0
180210,note_on,90,0,7,,,,,,,,,6,,,83,0
180210,note_on,90,0,4,,,,,,,,,3,,,62,0
180210,note_on,90,0,8,,,,,,,,,7,,,83,0
180210,note_on,0,0,4,,,,,,,,,3,,,66,0
180210,note_on,90,0,2,,,,,,,,,1,,,78,0
180210,note_on,0,0,2,,,,,,,,,1,,,83,0
180210,note_on,90,0,10,,,,,,,,,10,,,62,0
180240,note_on,120,0,6,,,,,,,,,5,,,50,0
180240,note_on,30,0,8,,,,,,,,,7,,,76,100
180240,note_on,30,0,7,,,,,,,,,6,,,76,100
180270,note_on,0,0,8,,,,,,,,,7,,,79,100
180270,note_on,30,0,7,,,,,,,,,6,,,76,0
180270,note_on,30,0,8,,,,,,,,,7,,,76,0
180270,note_on,0,0,7,,,,,,,,,6,,,79,100
180300,note_on,30,0,7,,,,,,,,,6,,,79,0
180300,note_on,0,0,7,,,,,,,,,6,,,78,100
180300,note_on,0,0,8,,,,,,,,,7,,,78,100
180300,note_on,30,0,8,,,,,,,,,7,,,79,0
180330,note_on,0,0,8,,,,,,,,,7,,,76,100
180330,note_on,30,0,7,,,,,,,,,6,,,78,0
180330,note_on,30,0,8,,,,,,,,,7,,,78,0
180330,note_on,0,0,7,,,,,,,,,6,,,76,100
180360,note_on,0,0,1,,,,,,,,,0,,,81,120
180360,note_on,30,0,7,,,,,,,,,6,,,76,0
180360,note_on,0,0,7,,,,,,,,,6,,,81,120
180360,note_on,150,0,1,,,,,,,,,0,,,76,120
180360,note_on,150,0,10,,,,,,,,,10,,,61,120
180360,note_on,150,0,11,,,,,,,,,11,,,49,120
180360,note_on,150,0,3,,,,,,,,,2,,,61,120
180360,note_on,30,0,8,,,,,,,,,7,,,76,0
180360,note_on,150,0,9,,,,,,,,,8,,,61,120
180360,note_on,150,0,4,,,,,,,,,3,,,57,120
180360,note_on,0,0,5,,,,,,,,,4,,,69,120
180360,note_on,150,0,5,,,,,,,,,4,,,57,120
180360,note_on,0,0,4,,,,,,,,,3,,,64,120
180360,note_on,0,0,8,,,,,,,,,7,,,81,120
180360,note_on,0,0,2,,,,,,,,,1,,,81,120
180360,note_on,150,0,2,,,,,,,,,1,,,76,120
180360,note_on,120,0,6,,,,,,,,,5,,,45,120
180450,note_on,0,0,4,,,,,,,,,3,,,57,0
180450,note_on,0,0,5,,,,,,,,,4,,,57,0
180450,note_on,90,0,1,,,,,,,,,0,,,81,0
180450,note_on,0,0,1,,,,,,,,,0,,,76,0
180450,note_on,90,0,5,,,,,,,,,4,,,69,0
180450,note_on,90,0,7,,,,,,,,,6,,,81,0
180450,note_on,90,0,11,,,,,,,,,11,,,49,0
180450,note_on,90,0,4,,,,,,,,,3,,,64,0
180450,note_on,0,0,2,,,,,,,,,1,,,76,0
180450,note_on,90,0,8,,,,,,,,,7,,,81,0
180450,note_on,90,0,9,,,,,,,,,8,,,61,0
180450,note_on,90,0,3,,,,,,,,,2,,,61,0
180450,note_on,90,0,10,,,,,,,,,10,,,61,0
180450,note_on,90,0,2,,,,,,,,,1,,,81,0
180480,note_on,120,0,6,,,,,,,,,5,,,45,0
180480,note_on,30,0,7,,,,,,,,,6,,,74,100
180480,note_on,30,0,8,,,,,,,,,7,,,74,100
180510,note_on,30,0,7,,,,,,,,,6,,,74,0
180510,note_on,0,0,8,,,,,,,,,7,,,78,100
180510,note_on,30,0,8,,,,,,,,,7,,,74,0
180510,note_on,0,0,7,,,,,,,,,6,,,78,100
180540,note_on,30,0,8,,,,,,,,,7,,,78,0
180540,note_on,0,0,8,,,,,,,,,7,,,76,100
180540,note_on,30,0,7,,,,,,,,,6,,,78,0
180540,note_on,0,0,7,,,,,,,,,6,,,76,100
180570,note_on,0,0,8,,,,,,,,,7,,,74,100
180570,note_on,30,0,8,,,,,,,,,7,,,76,0
180570,note_on,30,0,7,,,,,,,,,6,,,76,0
180570,note_on,0,0,7,,,,,,,,,6,,,74,100
180600,note_on,150,0,9,,,,,,,,,8,,,59,100
180600,note_on,150,0,4,,,,,,,,,3,,,50,100
180600,note_on,0,0,4,,,,,,,,,3,,,62,100
180600,note_on,0,0,2,,,,,,,,,1,,,74,100
180600,note_on,150,0,2,,,,,,,,,1,,,79,100
180600,note_on,120,0,6,,,,,,,,,5,,,50,100
180600,note_on,0,0,1,,,,,,,,,0,,,74,100
180600,note_on,150,0,10,,,,,,,,,10,,,59,100
180600,note_on,30,0,8,,,,,,,,,7,,,74,0
180600,note_on,0,0,8,,,,,,,,,7,,,79,100
180600,note_on,150,0,1,,,,,,,,,0,,,79,100
180600,note_on,30,0,7,,,,,,,,,6,,,74,0
180600,note_on,0,0,5,,,,,,,,,4,,,74,100
180600,note_on,150,0,5,,,,,,,,,4,,,62,100
180600,note_on,150,0,3,,,,,,,,,2,,,59,100
180600,note_on,150,0,11,,,,,,,,,11,,,47,100
180600,note_on,0,0,7,,,,,,,,,6,,,79,100
180690,note_on,90,0,3,,,,,,,,,2,,,59,0
180690,note_on,90,0,1,,,,,,,,,0,,,74,0
180690,note_on,90,0,10,,,,,,,,,10,,,59,0
180690,note_on,90,0,4,,,,,,,,,3,,,62,0
180690,note_on,90,0,5,,,,,,,,,4,,,74,0
180690,note_on,90,0,9,,,,,,,,,8,,,59,0
180690,note_on,0,0,5,,,,,,,,,4,,,62,0
180690,note_on,0,0,4,,,,,,,,,3,,,50,0
180690,note_on,90,0,2,,,,,,,,,1,,,74,0
180690,note_on,90,0,11,,,,,,,,,11,,,47,0
180720,note_on,30,0,11,,,,,,,,,11,,,45,120
180720,note_on,30,0,10,,,,,,,,,10,,,57,120
180720,note_on,30,0,1,,,,,,,,,0,,,73,120
180720,note_on,0,0,4,,,,,,,,,3,,,57,120
180720,note_on,30,0,4,,,,,,,,,3,,,64,120
180720,note_on,120,0,6,,,,,,,,,5,,,50,0
180720,note_on,30,0,5,,,,,,,,,4,,,76,120
180720,note_on,30,0,2,,,,,,,,,1,,,73,120
180720,note_on,30,0,3,,,,,,,,,2,,,57,120
180720,note_on,30,0,9,,,,,,,,,8,,,57,120
180720,note_on,0,0,5,,,,,,,,,4,,,69,120
180720,note_on,0,0,6,,,,,,,,,5,,,45,120
180780,note_on,180,0,8,,,,,,,,,7,,,79,0
180780,note_on,0,0,8,,,,,,,,,7,,,78,100
180780,note_on,180,0,7,,,,,,,,,6,,,79,0
180780,note_on,0,0,7,,,,,,,,,6,,,78,100
180810,note_on,0,0,8,,,,,,,,,7,,,76,100
180810,note_on,30,0,7,,,,,,,,,6,,,78,0
180810,note_on,0,0,7,,,,,,,,,6,,,76,100
180810,note_on,30,0,8,,,,,,,,,7,,,78,0
180840,note_on,30,0,7,,,,,,,,,6,,,76,0
180840,note_on,0,0,7,,,,,,,,,6,,,74,100
180840,note_on,120,0,6,,,,,,,,,5,,,45,0
180840,note_on,30,0,8,,,,,,,,,7,,,76,0
180840,note_on,0,0,8,,,,,,,,,7,,,74,100
180870,note_on,0,0,8,,,,,,,,,7,,,73,100
180870,note_on,30,0,7,,,,,,,,,6,,,74,0
180870,note_on,0,0,7,,,,,,,,,6,,,73,100
180870,note_on,30,0,8,,,,,,,,,7,,,74,0
180900,note_on,0,0,8,,,,,,,,,7,,,71,100
180900,note_on,30,0,8,,,,,,,,,7,,,73,0
180900,note_on,30,0,7,,,,,,,,,6,,,73,0
180900,note_on,0,0,7,,,,,,,,,6,,,71,100
180930,note_on,0,0,8,,,,,,,,,7,,,69,100
180930,note_on,30,0,7,,,,,,,,,6,,,71,0
180930,note_on,0,0,7,,,,,,,,,6,,,69,100
180930,note_on,30,0,8,,,,,,,,,7,,,71,0
180960,note_on,30,0,8,,,,,,,,,7,,,69,0
180960,note_on,0,0,8,,,,,,,,,7,,,78,100
180960,note_on,240,0,11,,,,,,,,,11,,,45,0
180960,note_on,0,0,1,,,,,,,,,0,,,74,100
180960,note_on,0,0,1,,,,,,,,,0,,,78,100
180960,note_on,0,0,1,,,,,,,,,0,,,79,0
180960,note_on,240,0,1,,,,,,,,,0,,,73,0
180960,note_on,240,0,4,,,,,,,,,3,,,57,0
180960,note_on,240,0,2,,,,,,,,,1,,,73,0
180960,note_on,0,0,2,,,,,,,,,1,,,78,100
180960,note_on,0,0,2,,,,,,,,,1,,,74,100
180960,note_on,240,0,10,,,,,,,,,10,,,57,0
180960,note_on,0,0,2,,,,,,,,,1,,,79,0
180960,note_on,0,0,4,,,,,,,,,3,,,64,0
180960,note_on,0,0,7,,,,,,,,,6,,,78,100
180960,note_on,240,0,3,,,,,,,,,2,,,57,0
180960,note_on,30,0,7,,,,,,,,,6,,,69,0
180960,note_on,240,0,9,,,,,,,,,8,,,57,0
180960,note_on,240,0,5,,,,,,,,,4,,,69,0
180960,note_on,0,0,5,,,,,,,,,4,,,76,0
180990,note_on,0,0,7,,,,,,,,,6,,,81,100
180990,note_on,30,0,7,,,,,,,,,6,,,78,0
180990,note_on,30,0,8,,,,,,,,,7,,,78,0
180990,note_on,0,0,8,,,,,,,,,7,,,81,100
181020,note_on,30,0,7,,,,,,,,,6,,,81,0
181020,note_on,0,0,8,,,,,,,,,7,,,79,100
181020,note_on,0,0,7,,,,,,,,,6,,,79,100
181020,note_on,30,0,8,,,,,,,,,7,,,81,0
181050,note_on,0,0,8,,,,,,,,,7,,,78,100
181050,note_on,0,0,7,,,,,,,,,6,,,78,100
181050,note_on,30,0,7,,,,,,,,,6,,,79,0
181050,note_on,30,0,8,,,,,,,,,7,,,79,0
181080,note_on,120,0,9,,,,,,,,,8,,,62,100
181080,note_on,240,0,6,,,,,,,,,5,,,50,100
181080,note_on,30,0,8,,,,,,,,,7,,,78,0
181080,note_on,0,0,8,,,,,,,,,7,,,83,100
181080,note_on,0,0,7,,,,,,,,,6,,,83,100
181080,note_on,30,0,7,,,,,,,,,6,,,78,0
181080,note_on,0,0,4,,,,,,,,,3,,,66,100
181080,note_on,120,0,10,,,,,,,,,10,,,62,100
181080,note_on,120,0,2,,,,,,,,,1,,,78,0
181080,note_on,0,0,2,,,,,,,,,1,,,83,100
181080,note_on,120,0,5,,,,,,,,,4,,,74,100
181080,note_on,0,0,5,,,,,,,,,4,,,62,100
181080,note_on,120,0,11,,,,,,,,,11,,,50,100
181080,note_on,120,0,4,,,,,,,,,3,,,62,100
181080,note_on,120,0,3,,,,,,,,,2,,,62,100
181080,note_on,120,0,1,,,,,,,,,0,,,74,0
181080,note_on,0,0,1,,,,,,,,,0,,,78,0
181080,note_on,0,0,1,,,,,,,,,0,,,83,100
181080,note_on,0,0,1,,,,,,,,,0,,,78,100
181170,note_on,90,0,7,,,,,,,,,6,,,83,0
181170,note_on,90,0,8,,,,,,,,,7,,,83,0
181200,note_on,120,0,4,,,,,,,,,3,,,66,0
181200,note_on,30,0,7,,,,,,,,,6,,,76,100
181200,note_on,0,0,1,,,,,,,,,0,,,79,100
181200,note_on,120,0,1,,,,,,,,,0,,,78,0
181200,note_on,120,0,2,,,,,,,,,1,,,74,0
181200,note_on,30,0,8,,,,,,,,,7,,,76,100
181200,note_on,120,0,6,,,,,,,,,5,,,50,0
181200,note_on,0,0,4,,,,,,,,,3,,,64,100
181200,note_on,0,0,2,,,,,,,,,1,,,76,100
181230,note_on,0,0,8,,,,,,,,,7,,,79,100
181230,note_on,30,0,8,,,,,,,,,7,,,76,0
181230,note_on,30,0,7,,,,,,,,,6,,,76,0
181230,note_on,0,0,7,,,,,,,,,6,,,79,100
181260,note_on,30,0,8,,,,,,,,,7,,,79,0
181260,note_on,0,0,8,,,,,,,,,7,,,78,100
181260,note_on,0,0,7,,,,,,,,,6,,,78,100
181260,note_on,30,0,7,,,,,,,,,6,,,79,0
181290,note_on,0,0,7,,,,,,,,,6,,,76,100
181290,note_on,30,0,7,,,,,,,,,6,,,78,0
181290,note_on,30,0,8,,,,,,,,,7,,,78,0
181290,note_on,0,0,8,,,,,,,,,7,,,76,100
181320,note_on,120,0,1,,,,,,,,,0,,,79,0
181320,note_on,0,0,9,,,,,,,,,8,,,61,100
181320,note_on,0,0,4,,,,,,,,,3,,,69,100
181320,note_on,0,0,4,,,,,,,,,3,,,57,100
181320,note_on,240,0,11,,,,,,,,,11,,,50,0
181320,note_on,120,0,6,,,,,,,,,5,,,45,100
181320,note_on,240,0,9,,,,,,,,,8,,,62,0
181320,note_on,240,0,10,,,,,,,,,10,,,62,0
181320,note_on,0,0,10,,,,,,,,,10,,,61,100
181320,note_on,0,0,1,,,,,,,,,0,,,81,100
181320,note_on,0,0,3,,,,,,,,,2,,,61,100
181320,note_on,0,0,11,,,,,,,,,11,,,49,100
181320,note_on,240,0,5,,,,,,,,,4,,,62,0
181320,note_on,0,0,4,,,,,,,,,3,,,62,0
181320,note_on,0,0,5,,,,,,,,,4,,,74,0
181320,note_on,0,0,7,,,,,,,,,6,,,81,100
181320,note_on,30,0,7,,,,,,,,,6,,,76,0
181320,note_on,120,0,2,,,,,,,,,1,,,83,0
181320,note_on,0,0,5,,,,,,,,,4,,,57,100
181320,note_on,0,0,5,,,,,,,,,4,,,69,100
181320,note_on,0,0,8,,,,,,,,,7,,,81,100
181320,note_on,30,0,8,,,,,,,,,7,,,76,0
181320,note_on,240,0,3,,,,,,,,,2,,,62,0
181320,note_on,0,0,1,,,,,,,,,0,,,83,0
181320,note_on,0,0,2,,,,,,,,,1,,,81,100
181320,note_on,120,0,4,,,,,,,,,3,,,64,0
181440,note_on,120,0,5,,,,,,,,,4,,,69,0
181440,note_on,120,0,11,,,,,,,,,11,,,49,0
181440,note_on,0,0,11,,,,,,,,,11,,,47,100
181440,note_on,0,0,5,,,,,,,,,4,,,57,0
181440,note_on,120,0,10,,,,,,,,,10,,,61,0
181440,note_on,0,0,10,,,,,,,,,10,,,59,100
181440,note_on,120,0,6,,,,,,,,,5,,,45,0
181440,note_on,0,0,2,,,,,,,,,1,,,76,0
181440,note_on,0,0,2,,,,,,,,,1,,,74,100
181440,note_on,0,0,2,,,,,,,,,1,,,78,100
181440,note_on,0,0,9,,,,,,,,,8,,,59,100
181440,note_on,120,0,9,,,,,,,,,8,,,61,0
181440,note_on,120,0,4,,,,,,,,,3,,,57,0
181440,note_on,0,0,4,,,,,,,,,3,,,62,100
181440,note_on,120,0,3,,,,,,,,,2,,,61,0
181440,note_on,0,0,3,,,,,,,,,2,,,59,100
181440,note_on,120,0,1,,,,,,,,,0,,,86,100
181440,note_on,120,0,2,,,,,,,,,1,,,81,0
181470,note_on,30,0,3,,,,,,,,,2,,,59,0
181470,note_on,0,0,3,,,,,,,,,2,,,62,100
181470,note_on,30,0,11,,,,,,,,,11,,,47,0
181470,note_on,0,0,11,,,,,,,,,11,,,50,100
181470,note_on,0,0,9,,,,,,,,,8,,,62,100
181470,note_on,30,0,9,,,,,,,,,8,,,59,0
181470,note_on,30,0,10,,,,,,,,,10,,,59,0
181470,note_on,0,0,10,,,,,,,,,10,,,62,100
181500,note_on,0,0,9,,,,,,,,,8,,,61,100
181500,note_on,30,0,10,,,,,,,,,10,,,62,0
181500,note_on,0,0,3,,,,,,,,,2,,,61,100
181500,note_on,30,0,9,,,,,,,,,8,,,62,0
181500,note_on,30,0,11,,,,,,,,,11,,,50,0
181500,note_on,0,0,11,,,,,,,,,11,,,49,100
181500,note_on,30,0,3,,,,,,,,,2,,,62,0
181500,note_on,0,0,10,,,,,,,,,10,,,61,100
181530,note_on,0,0,10,,,,,,,,,10,,,59,100
181530,note_on,30,0,3,,,,,,,,,2,,,61,0
181530,note_on,30,0,10,,,,,,,,,10,,,61,0
181530,note_on,0,0,9,,,,,,,,,8,,,59,100
181530,note_on,30,0,9,,,,,,,,,8,,,61,0
181530,note_on,30,0,11,,,,,,,,,11,,,49,0
181530,note_on,0,0,11,,,,,,,,,11,,,47,100
181530,note_on,0,0,3,,,,,,,,,2,,,59,100
181560,note_on,0,0,2,,,,,,,,,1,,,79,100
181560,note_on,120,0,1,,,,,,,,,0,,,81,0
181560,note_on,0,0,2,,,,,,,,,1,,,74,0
181560,note_on,0,0,4,,,,,,,,,3,,,67,100
181560,note_on,0,0,4,,,,,,,,,3,,,64,100
181560,note_on,0,0,4,,,,,,,,,3,,,69,0
181560,note_on,120,0,4,,,,,,,,,3,,,62,0
181560,note_on,120,0,6,,,,,,,,,5,,,45,100
181560,note_on,120,0,2,,,,,,,,,1,,,78,0
181560,note_on,0,0,1,,,,,,,,,0,,,79,100
181560,note_on,30,0,11,,,,,,,,,11,,,47,0
181560,note_on,120,0,5,,,,,,,,,4,,,69,100
181560,note_on,0,0,3,,,,,,,,,2,,,64,100
181560,note_on,0,0,2,,,,,,,,,1,,,76,100
181560,note_on,0,0,5,,,,,,,,,4,,,76,100
181560,note_on,0,0,8,,,,,,,,,7,,,79,100
181560,note_on,240,0,8,,,,,,,,,7,,,81,0
181560,note_on,30,0,3,,,,,,,,,2,,,59,0
181560,note_on,30,0,10,,,,,,,,,10,,,59,0
181560,note_on,0,0,7,,,,,,,,,6,,,79,100
181560,note_on,0,0,10,,,,,,,,,10,,,64,100
181560,note_on,30,0,9,,,,,,,,,8,,,59,0
181560,note_on,0,0,9,,,,,,,,,8,,,64,100
181560,note_on,0,0,11,,,,,,,,,11,,,52,100
181560,note_on,240,0,7,,,,,,,,,6,,,81,0
181650,note_on,90,0,11,,,,,,,,,11,,,52,0
181650,note_on,90,0,10,,,,,,,,,10,,,64,0
181650,note_on,90,0,3,,,,,,,,,2,,,64,0
181650,note_on,90,0,9,,,,,,,,,8,,,64,0
181680,note_on,120,0,5,,,,,,,,,4,,,76,0
181680,note_on,0,0,5,,,,,,,,,4,,,69,0
181680,note_on,0,0,6,,,,,,,,,5,,,50,100
181680,note_on,120,0,6,,,,,,,,,5,,,45,0
181680,note_on,0,0,5,,,,,,,,,4,,,74,100
181680,note_on,0,0,5,,,,,,,,,4,,,78,100
181680,note_on,30,0,10,,,,,,,,,10,,,57,100
181680,note_on,30,0,11,,,,,,,,,11,,,45,100
181680,note_on,30,0,3,,,,,,,,,2,,,57,100
181680,note_on,120,0,1,,,,,,,,,0,,,79,0
181680,note_on,0,0,1,,,,,,,,,0,,,86,0
181680,note_on,0,0,1,,,,,,,,,0,,,81,100
181680,note_on,30,0,9,,,,,,,,,8,,,57,100
181680,note_on,0,0,1,,,,,,,,,0,,,85,100
181710,note_on,30,0,3,,,,,,,,,2,,,57,0
181710,note_on,0,0,3,,,,,,,,,2,,,61,100
181710,note_on,0,0,10,,,,,,,,,10,,,61,100
181710,note_on,30,0,10,,,,,,,,,10,,,57,0
181710,note_on,30,0,11,,,,,,,,,11,,,45,0
181710,note_on,0,0,11,,,,,,,,,11,,,49,100
181710,note_on,0,0,9,,,,,,,,,8,,,61,100
181710,note_on,30,0,9,,,,,,,,,8,,,57,0
181740,note_on,30,0,11,,,,,,,,,11,,,49,0
181740,note_on,0,0,9,,,,,,,,,8,,,59,100
181740,note_on,0,0,10,,,,,,,,,10,,,59,100
181740,note_on,30,0,10,,,,,,,,,10,,,61,0
181740,note_on,0,0,11,,,,,,,,,11,,,47,100
181740,note_on,30,0,9,,,,,,,,,8,,,61,0
181740,note_on,30,0,3,,,,,,,,,2,,,61,0
181740,note_on,0,0,3,,,,,,,,,2,,,59,100
181770,note_on,0,0,10,,,,,,,,,10,,,57,100
181770,note_on,30,0,3,,,,,,,,,2,,,59,0
181770,note_on,30,0,10,,,,,,,,,10,,,59,0
181770,note_on,0,0,3,,,,,,,,,2,,,57,100
181770,note_on,30,0,11,,,,,,,,,11,,,47,0
181770,note_on,0,0,11,,,,,,,,,11,,,45,100
181770,note_on,30,0,9,,,,,,,,,8,,,59,0
181770,note_on,0,0,9,,,,,,,,,8,,,57,100
181800,note_on,240,0,2,,,,,,,,,1,,,76,0
181800,note_on,0,0,2,,,,,,,,,1,,,79,0
181800,note_on,30,0,11,,,,,,,,,11,,,45,0
181800,note_on,0,0,11,,,,,,,,,11,,,50,100
181800,note_on,30,0,10,,,,,,,,,10,,,57,0
181800,note_on,0,0,2,,,,,,,,,1,,,78,100
181800,note_on,0,0,3,,,,,,,,,2,,,62,100
181800,note_on,240,0,8,,,,,,,,,7,,,79,0
181800,note_on,0,0,8,,,,,,,,,7,,,78,100
181800,note_on,30,0,3,,,,,,,,,2,,,57,0
181800,note_on,0,0,1,,,,,,,,,0,,,90,100
181800,note_on,240,0,4,,,,,,,,,3,,,67,0
181800,note_on,0,0,4,,,,,,,,,3,,,64,0
181800,note_on,0,0,4,,,,,,,,,3,,,62,100
181800,note_on,30,0,9,,,,,,,,,8,,,57,0
181800,note_on,120,0,6,,,,,,,,,5,,,50,0
181800,note_on,240,0,7,,,,,,,,,6,,,79,0
181800,note_on,0,0,7,,,,,,,,,6,,,78,100
181800,note_on,0,0,2,,,,,,,,,1,,,74,100
181800,note_on,120,0,5,,,,,,,,,4,,,78,0
181800,note_on,0,0,9,,,,,,,,,8,,,62,100
181800,note_on,0,0,5,,,,,,,,,4,,,74,0
181800,note_on,0,0,10,,,,,,,,,10,,,62,100
181800,note_on,120,0,1,,,,,,,,,0,,,85,0
181800,note_on,0,0,4,,,,,,,,,3,,,66,100
181830,note_on,30,0,8,,,,,,,,,7,,,78,0
181830,note_on,30,0,7,,,,,,,,,6,,,78,0
181830,note_on,0,0,7,,,,,,,,,6,,,81,100
181830,note_on,0,0,8,,,,,,,,,7,,,81,100
181860,note_on,30,0,8,,,,,,,,,7,,,81,0
181860,note_on,30,0,7,,,,,,,,,6,,,81,0
181860,note_on,0,0,7,,,,,,,,,6,,,79,100
181860,note_on,0,0,8,,,,,,,,,7,,,79,100
181890,note_on,90,0,11,,,,,,,,,11,,,50,0
181890,note_on,0,0,7,,,,,,,,,6,,,78,100
181890,note_on,90,0,9,,,,,,,,,8,,,62,0
181890,note_on,90,0,10,,,,,,,,,10,,,62,0
181890,note_on,0,0,8,,,,,,,,,7,,,78,100
181890,note_on,30,0,8,,,,,,,,,7,,,79,0
181890,note_on,90,0,3,,,,,,,,,2,,,62,0
181890,note_on,30,0,7,,,,,,,,,6,,,79,0
181920,note_on,30,0,9,,,,,,,,,8,,,67,100
181920,note_on,30,0,10,,,,,,,,,10,,,55,100
181920,note_on,0,0,2,,,,,,,,,1,,,71,100
181920,note_on,120,0,2,,,,,,,,,1,,,74,0
181920,note_on,120,0,1,,,,,,,,,0,,,81,0
181920,note_on,0,0,1,,,,,,,,,0,,,83,100
181920,note_on,30,0,8,,,,,,,,,7,,,78,0
181920,note_on,0,0,8,,,,,,,,,7,,,83,100
181920,note_on,30,0,11,,,,,,,,,11,,,43,100
181920,note_on,30,0,3,,,,,,,,,2,,,55,100
181920,note_on,0,0,7,,,,,,,,,6,,,83,100
181920,note_on,30,0,7,,,,,,,,,6,,,78,0
181950,note_on,0,0,3,,,,,,,,,2,,,59,100
181950,note_on,0,0,11,,,,,,,,,11,,,47,100
181950,note_on,30,0,11,,,,,,,,,11,,,43,0
181950,note_on,0,0,9,,,,,,,,,8,,,71,100
181950,note_on,30,0,10,,,,,,,,,10,,,55,0
181950,note_on,30,0,3,,,,,,,,,2,,,55,0
181950,note_on,0,0,10,,,,,,,,,10,,,59,100
181950,note_on,30,0,9,,,,,,,,,8,,,67,0
181980,note_on,30,0,11,,,,,,,,,11,,,47,0
181980,note_on,30,0,10,,,,,,,,,10,,,59,0
181980,note_on,30,0,9,,,,,,,,,8,,,71,0
181980,note_on,0,0,11,,,,,,,,,11,,,45,100
181980,note_on,0,0,9,,,,,,,,,8,,,69,100
181980,note_on,0,0,3,,,,,,,,,2,,,57,100
181980,note_on,30,0,3,,,,,,,,,2,,,59,0
181980,note_on,0,0,10,,,,,,,,,10,,,57,100
182010,note_on,30,0,9,,,,,,,,,8,,,69,0
182010,note_on,90,0,7,,,,,,,,,6,,,83,0
182010,note_on,0,0,9,,,,,,,,,8,,,67,100
182010,note_on,0,0,10,,,,,,,,,10,,,55,100
182010,note_on,0,0,3,,,,,,,,,2,,,55,100
182010,note_on,0,0,11,,,,,,,,,11,,,43,100
182010,note_on,30,0,11,,,,,,,,,11,,,45,0
182010,note_on,30,0,3,,,,,,,,,2,,,57,0
182010,note_on,90,0,8,,,,,,,,,7,,,83,0
182010,note_on,30,0,10,,,,,,,,,10,,,57,0
182040,note_on,30,0,3,,,,,,,,,2,,,55,0
182040,note_on,120,0,2,,,,,,,,,1,,,78,0
182040,note_on,0,0,2,,,,,,,,,1,,,76,100
182040,note_on,0,0,4,,,,,,,,,3,,,67,100
182040,note_on,0,0,4,,,,,,,,,3,,,62,0
182040,note_on,240,0,4,,,,,,,,,3,,,66,0
182040,note_on,30,0,10,,,,,,,,,10,,,55,0
182040,note_on,0,0,10,,,,,,,,,10,,,61,100
182040,note_on,0,0,4,,,,,,,,,3,,,64,100
182040,note_on,0,0,3,,,,,,,,,2,,,61,100
182040,note_on,0,0,1,,,,,,,,,0,,,88,100
182040,note_on,30,0,7,,,,,,,,,6,,,76,100
182040,note_on,30,0,8,,,,,,,,,7,,,76,100
182040,note_on,0,0,9,,,,,,,,,8,,,73,100
182040,note_on,30,0,11,,,,,,,,,11,,,43,0
182040,note_on,0,0,11,,,,,,,,,11,,,49,100
182040,note_on,120,0,1,,,,,,,,,0,,,90,0
182040,note_on,30,0,9,,,,,,,,,8,,,67,0
182070,note_on,0,0,8,,,,,,,,,7,,,79,100
182070,note_on,0,0,7,,,,,,,,,6,,,79,100
182070,note_on,30,0,7,,,,,,,,,6,,,76,0
182070,note_on,30,0,8,,,,,,,,,7,,,76,0
182100,note_on,0,0,7,,,,,,,,,6,,,78,100
182100,note_on,30,0,7,,,,,,,,,6,,,79,0
182100,note_on,0,0,8,,,,,,,,,7,,,78,100
182100,note_on,30,0,8,,,,,,,,,7,,,79,0
182130,note_on,90,0,9,,,,,,,,,8,,,73,0
182130,note_on,0,0,7,,,,,,,,,6,,,76,100
182130,note_on,90,0,10,,,,,,,,,10,,,61,0
182130,note_on,30,0,7,,,,,,,,,6,,,78,0
182130,note_on,90,0,3,,,,,,,,,2,,,61,0
182130,note_on,90,0,11,,,,,,,,,11,,,49,0
182130,note_on,30,0,8,,,,,,,,,7,,,78,0
182130,note_on,0,0,8,,,,,,,,,7,,,76,100
182160,note_on,30,0,11,,,,,,,,,11,,,42,100
182160,note_on,0,0,1,,,,,,,,,0,,,81,100
182160,note_on,30,0,8,,,,,,,,,7,,,76,0
182160,note_on,0,0,8,,,,,,,,,7,,,81,100
182160,note_on,30,0,3,,,,,,,,,2,,,54,100
182160,note_on,120,0,2,,,,,,,,,1,,,71,0
182160,note_on,0,0,2,,,,,,,,,1,,,69,100
182160,note_on,30,0,10,,,,,,,,,10,,,54,100
182160,note_on,30,0,7,,,,,,,,,6,,,76,0
182160,note_on,0,0,7,,,,,,,,,6,,,81,100
182160,note_on,120,0,1,,,,,,,,,0,,,83,0
182160,note_on,30,0,9,,,,,,,,,8,,,66,100
182190,note_on,30,0,9,,,,,,,,,8,,,66,0
182190,note_on,0,0,3,,,,,,,,,2,,,57,100
182190,note_on,0,0,9,,,,,,,,,8,,,69,100
182190,note_on,30,0,3,,,,,,,,,2,,,54,0
182190,note_on,30,0,10,,,,,,,,,10,,,54,0
182190,note_on,0,0,10,,,,,,,,,10,,,57,100
182190,note_on,30,0,11,,,,,,,,,11,,,42,0
182190,note_on,0,0,11,,,,,,,,,11,,,45,100
182220,note_on,30,0,10,,,,,,,,,10,,,57,0
182220,note_on,0,0,10,,,,,,,,,10,,,55,100
182220,note_on,30,0,11,,,,,,,,,11,,,45,0
182220,note_on,30,0,3,,,,,,,,,2,,,57,0
182220,note_on,0,0,9,,,,,,,,,8,,,67,100
182220,note_on,30,0,9,,,,,,,,,8,,,69,0
182220,note_on,0,0,11,,,,,,,,,11,,,43,100
182220,note_on,0,0,3,,,,,,,,,2,,,55,100
182250,note_on,0,0,11,,,,,,,,,11,,,42,100
182250,note_on,30,0,3,,,,,,,,,2,,,55,0
182250,note_on,0,0,3,,,,,,,,,2,,,54,100
182250,note_on,30,0,11,,,,,,,,,11,,,43,0
182250,note_on,30,0,9,,,,,,,,,8,,,67,0
182250,note_on,30,0,10,,,,,,,,,10,,,55,0
182250,note_on,0,0,10,,,,,,,,,10,,,54,100
182250,note_on,90,0,7,,,,,,,,,6,,,81,0
182250,note_on,0,0,9,,,,,,,,,8,,,66,100
182250,note_on,90,0,8,,,,,,,,,7,,,81,0
182280,note_on,0,0,1,,,,,,,,,0,,,88,0
182280,note_on,120,0,1,,,,,,,,,0,,,81,0
182280,note_on,0,0,9,,,,,,,,,8,,,71,100
182280,note_on,30,0,9,,,,,,,,,8,,,66,0
182280,note_on,30,0,8,,,,,,,,,7,,,74,100
182280,note_on,120,0,2,,,,,,,,,1,,,69,0
182280,note_on,0,0,1,,,,,,,,,0,,,86,100
182280,note_on,0,0,2,,,,,,,,,1,,,76,0
182280,note_on,240,0,4,,,,,,,,,3,,,64,0
182280,note_on,0,0,2,,,,,,,,,1,,,81,100
182280,note_on,0,0,2,,,,,,,,,1,,,74,100
182280,note_on,0,0,10,,,,,,,,,10,,,59,100
182280,note_on,30,0,10,,,,,,,,,10,,,54,0
182280,note_on,0,0,11,,,,,,,,,11,,,47,100
182280,note_on,30,0,11,,,,,,,,,11,,,42,0
182280,note_on,30,0,7,,,,,,,,,6,,,74,100
182280,note_on,30,0,3,,,,,,,,,2,,,54,0
182280,note_on,0,0,4,,,,,,,,,3,,,67,0
182280,note_on,0,0,4,,,,,,,,,3,,,62,100
182280,note_on,0,0,4,,,,,,,,,3,,,66,100
182280,note_on,0,0,3,,,,,,,,,2,,,59,100
182310,note_on,30,0,7,,,,,,,,,6,,,74,0
182310,note_on,0,0,7,,,,,,,,,6,,,78,100
182310,note_on,30,0,8,,,,,,,,,7,,,74,0
182310,note_on,0,0,8,,,,,,,,,7,,,78,100
182340,note_on,30,0,7,,,,,,,,,6,,,78,0
182340,note_on,0,0,7,,,,,,,,,6,,,76,100
182340,note_on,30,0,8,,,,,,,,,7,,,78,0
182340,note_on,0,0,8,,,,,,,,,7,,,76,100
182370,note_on,90,0,3,,,,,,,,,2,,,59,0
182370,note_on,90,0,10,,,,,,,,,10,,,59,0
182370,note_on,0,0,7,,,,,,,,,6,,,74,100
182370,note_on,0,0,8,,,,,,,,,7,,,74,100
182370,note_on,90,0,9,,,,,,,,,8,,,71,0
182370,note_on,30,0,7,,,,,,,,,6,,,76,0
182370,note_on,30,0,8,,,,,,,,,7,,,76,0
182370,note_on,90,0,11,,,,,,,,,11,,,47,0
182400,note_on,30,0,10,,,,,,,,,10,,,52,100
182400,note_on,0,0,7,,,,,,,,,6,,,79,100
182400,note_on,30,0,11,,,,,,,,,11,,,40,100
182400,note_on,30,0,3,,,,,,,,,2,,,52,100
182400,note_on,0,0,4,,,,,,,,,3,,,62,0
182400,note_on,30,0,9,,,,,,,,,8,,,52,100
182400,note_on,30,0,7,,,,,,,,,6,,,74,0
182400,note_on,120,0,4,,,,,,,,,3,,,66,0
182400,note_on,0,0,2,,,,,,,,,1,,,79,100
182400,note_on,0,0,2,,,,,,,,,1,,,71,100
182400,note_on,0,0,2,,,,,,,,,1,,,74,0
182400,note_on,120,0,2,,,,,,,,,1,,,81,0
182400,note_on,30,0,8,,,,,,,,,7,,,74,0
182400,note_on,0,0,1,,,,,,,,,0,,,83,100
182400,note_on,0,0,8,,,,,,,,,7,,,71,100
182400,note_on,120,0,1,,,,,,,,,0,,,86,0
182400,note_on,0,0,1,,,,,,,,,0,,,91,100
182430,note_on,30,0,7,,,,,,,,,6,,,79,0
182430,note_on,30,0,11,,,,,,,,,11,,,40,0
182430,note_on,30,0,8,,,,,,,,,7,,,71,0
182430,note_on,30,0,10,,,,,,,,,10,,,52,0
182430,note_on,30,0,9,,,,,,,,,8,,,52,0
182430,note_on,30,0,1,,,,,,,,,0,,,91,0
182430,note_on,30,0,3,,,,,,,,,2,,,52,0
182430,note_on,0,0,2,,,,,,,,,1,,,71,0
182430,note_on,30,0,2,,,,,,,,,1,,,79,0
182430,note_on,0,0,1,,,,,,,,,0,,,83,0
182460,note_on,30,0,10,,,,,,,,,10,,,54,103
182460,note_on,30,0,3,,,,,,,,,2,,,54,103
182460,note_on,30,0,9,,,,,,,,,8,,,54,103
182460,note_on,0,0,2,,,,,,,,,1,,,69,103
182460,note_on,30,0,2,,,,,,,,,1,,,78,103
182460,note_on,30,0,8,,,,,,,,,7,,,69,103
182460,note_on,30,0,1,,,,,,,,,0,,,81,103
182460,note_on,30,0,11,,,,,,,,,11,,,42,103
182460,note_on,0,0,1,,,,,,,,,0,,,90,103
182460,note_on,30,0,7,,,,,,,,,6,,,78,103
182490,note_on,30,0,10,,,,,,,,,10,,,54,0
182490,note_on,30,0,7,,,,,,,,,6,,,78,0
182490,note_on,30,0,1,,,,,,,,,0,,,90,0
182490,note_on,30,0,3,,,,,,,,,2,,,54,0
182490,note_on,30,0,11,,,,,,,,,11,,,42,0
182490,note_on,30,0,8,,,,,,,,,7,,,69,0
182490,note_on,0,0,1,,,,,,,,,0,,,81,0
182490,note_on,30,0,9,,,,,,,,,8,,,54,0
182490,note_on,0,0,2,,,,,,,,,1,,,78,0
182490,note_on,30,0,2,,,,,,,,,1,,,69,0
182520,note_on,30,0,11,,,,,,,,,11,,,43,106
182520,note_on,30,0,3,,,,,,,,,2,,,55,106
182520,note_on,30,0,9,,,,,,,,,8,,,55,106
182520,note_on,30,0,10,,,,,,,,,10,,,55,106
182520,note_on,0,0,1,,,,,,,,,0,,,88,106
182520,note_on,30,0,8,,,,,,,,,7,,,67,106
182520,note_on,30,0,1,,,,,,,,,0,,,79,106
182520,note_on,30,0,7,,,,,,,,,6,,,76,106
182520,note_on,0,0,2,,,,,,,,,1,,,67,106
182520,note_on,30,0,2,,,,,,,,,1,,,76,106
182550,note_on,30,0,10,,,,,,,,,10,,,55,0
182550,note_on,30,0,3,,,,,,,,,2,,,55,0
182550,note_on,30,0,1,,,,,,,,,0,,,88,0
182550,note_on,0,0,1,,,,,,,,,0,,,79,0
182550,note_on,30,0,9,,,,,,,,,8,,,55,0
182550,note_on,30,0,11,,,,,,,,,11,,,43,0
182550,note_on,30,0,7,,,,,,,,,6,,,76,0
182550,note_on,0,0,2,,,,,,,,,1,,,76,0
182550,note_on,30,0,2,,,,,,,,,1,,,67,0
182550,note_on,30,0,8,,,,,,,,,7,,,67,0
182580,note_on,30,0,7,,,,,,,,,6,,,74,110
182580,note_on,30,0,10,,,,,,,,,10,,,56,110
182580,note_on,30,0,8,,,,,,,,,7,,,66,110
182580,note_on,30,0,2,,,,,,,,,1,,,74,110
182580,note_on,30,0,11,,,,,,,,,11,,,44,110
182580,note_on,0,0,1,,,,,,,,,0,,,86,110
182580,note_on,30,0,1,,,,,,,,,0,,,78,110
182580,note_on,0,0,2,,,,,,,,,1,,,66,110
182580,note_on,30,0,3,,,,,,,,,2,,,56,110
182580,note_on,30,0,9,,,,,,,,,8,,,56,110
182610,note_on,0,0,1,,,,,,,,,0,,,78,0
182610,note_on,30,0,2,,,,,,,,,1,,,66,0
182610,note_on,0,0,2,,,,,,,,,1,,,74,0
182610,note_on,30,0,9,,,,,,,,,8,,,56,0
182610,note_on,30,0,10,,,,,,,,,10,,,56,0
182610,note_on,30,0,1,,,,,,,,,0,,,86,0
182610,note_on,30,0,7,,,,,,,,,6,,,74,0
182610,note_on,30,0,8,,,,,,,,,7,,,66,0
182610,note_on,30,0,11,,,,,,,,,11,,,44,0
182610,note_on,30,0,3,,,,,,,,,2,,,56,0
182640,note_on,30,0,11,,,,,,,,,11,,,45,113
182640,note_on,0,0,1,,,,,,,,,0,,,85,113
182640,note_on,30,0,7,,,,,,,,,6,,,73,113
182640,note_on,0,0,2,,,,,,,,,1,,,64,113
182640,note_on,30,0,2,,,,,,,,,1,,,73,113
182640,note_on,30,0,1,,,,,,,,,0,,,76,113
182640,note_on,30,0,3,,,,,,,,,2,,,57,113
182640,note_on,30,0,9,,,,,,,,,8,,,57,113
182640,note_on,30,0,10,,,,,,,,,10,,,57,113
182640,note_on,30,0,8,,,,,,,,,7,,,64,113
182670,note_on,30,0,9,,,,,,,,,8,,,57,0
182670,note_on,30,0,7,,,,,,,,,6,,,73,0
182670,note_on,30,0,10,,,,,,,,,10,,,57,0
182670,note_on,30,0,3,,,,,,,,,2,,,57,0
182670,note_on,30,0,8,,,,,,,,,7,,,64,0
182670,note_on,30,0,11,,,,,,,,,11,,,45,0
182670,note_on,30,0,1,,,,,,,,,0,,,85,0
182670,note_on,0,0,1,,,,,,,,,0,,,76,0
182670,note_on,0,0,2,,,,,,,,,1,,,73,0
182670,note_on,30,0,2,,,,,,,,,1,,,64,0
182700,note_on,30,0,11,,,,,,,,,11,,,47,116
182700,note_on,30,0,1,,,,,,,,,0,,,83,116
182700,note_on,0,0,1,,,,,,,,,0,,,74,116
182700,note_on,30,0,8,,,,,,,,,7,,,74,116
182700,note_on,30,0,10,,,,,,,,,10,,,59,116
182700,note_on,30,0,7,,,,,,,,,6,,,83,116
182700,note_on,30,0,3,,,,,,,,,2,,,59,116
182700,note_on,30,0,9,,,,,,,,,8,,,59,116
182700,note_on,30,0,2,,,,,,,,,1,,,83,116
182700,note_on,0,0,2,,,,,,,,,1,,,74,116
182730,note_on,0,0,1,,,,,,,,,0,,,83,0
182730,note_on,30,0,7,,,,,,,,,6,,,83,0
182730,note_on,30,0,9,,,,,,,,,8,,,59,0
182730,note_on,30,0,1,,,,,,,,,0,,,74,0
182730,note_on,30,0,8,,,,,,,,,7,,,74,0
182730,note_on,30,0,11,,,,,,,,,11,,,47,0
182730,note_on,30,0,10,,,,,,,,,10,,,59,0
182730,note_on,0,0,2,,,,,,,,,1,,,83,0
182730,note_on,30,0,3,,,,,,,,,2,,,59,0
182730,note_on,30,0,2,,,,,,,,,1,,,74,0
182760,note_on,30,0,1,,,,,,,,,0,,,81,120
182760,note_on,30,0,7,,,,,,,,,6,,,81,120
182760,note_on,0,0,1,,,,,,,,,0,,,76,120
182760,note_on,30,0,11,,,,,,,,,11,,,49,120
182760,note_on,30,0,3,,,,,,,,,2,,,61,120
182760,note_on,30,0,8,,,,,,,,,7,,,76,120
182760,note_on,30,0,2,,,,,,,,,1,,,81,120
182760,note_on,0,0,2,,,,,,,,,1,,,76,120
182760,note_on,30,0,9,,,,,,,,,8,,,61,120
182760,note_on,30,0,10,,,,,,,,,10,,,61,120
182790,note_on,30,0,1,,,,,,,,,0,,,76,0
182790,note_on,30,0,8,,,,,,,,,7,,,76,0
182790,note_on,30,0,10,,,,,,,,,10,,,61,0
182790,note_on,30,0,7,,,,,,,,,6,,,81,0
182790,note_on,30,0,2,,,,,,,,,1,,,76,0
182790,note_on,0,0,2,,,,,,,,,1,,,81,0
182790,note_on,30,0,11,,,,,,,,,11,,,49,0
182790,note_on,0,0,1,,,,,,,,,0,,,81,0
182790,note_on,30,0,3,,,,,,,,,2,,,61,0
182790,note_on,30,0,9,,,,,,,,,8,,,61,0
182820,note_on,0,0,1,,,,,,,,,0,,,91,123
182820,note_on,30,0,10,,,,,,,,,10,,,57,123
182820,note_on,30,0,2,,,,,,,,,1,,,79,123
182820,note_on,420,0,4,,,,,,,,,3,,,57,123
182820,note_on,30,0,3,,,,,,,,,2,,,57,123
182820,note_on,0,0,2,,,,,,,,,1,,,73,123
182820,note_on,30,0,1,,,,,,,,,0,,,85,123
182820,note_on,0,0,5,,,,,,,,,4,,,76,123
182820,note_on,0,0,4,,,,,,,,,3,,,64,123
182820,note_on,30,0,8,,,,,,,,,7,,,73,123
182820,note_on,30,0,7,,,,,,,,,6,,,79,123
182820,note_on,1020,0,5,,,,,,,,,4,,,69,123
182820,note_on,1020,0,6,,,,,,,,,5,,,45,123
182820,note_on,30,0,11,,,,,,,,,11,,,45,123
182820,note_on,30,0,9,,,,,,,,,8,,,57,123
182850,note_on,30,0,8,,,,,,,,,7,,,73,0
182850,note_on,0,0,2,,,,,,,,,1,,,79,0
182850,note_on,30,0,2,,,,,,,,,1,,,73,0
182850,note_on,0,0,1,,,,,,,,,0,,,85,0
182850,note_on,30,0,9,,,,,,,,,8,,,57,0
182850,note_on,30,0,11,,,,,,,,,11,,,45,0
182850,note_on,30,0,7,,,,,,,,,6,,,79,0
182850,note_on,30,0,1,,,,,,,,,0,,,91,0
182850,note_on,30,0,10,,,,,,,,,10,,,57,0
182850,note_on,30,0,3,,,,,,,,,2,,,57,0
182880,note_on,0,0,6,,,,,,,,,5,,,50,127
182880,note_on,30,0,9,,,,,,,,,8,,,62,127
182880,note_on,60,0,4,,,,,,,,,3,,,64,0
182880,note_on,0,0,4,,,,,,,,,3,,,57,0
182880,note_on,30,0,8,,,,,,,,,7,,,74,127
182880,note_on,30,0,3,,,,,,,,,2,,,62,127
182880,note_on,30,0,2,,,,,,,,,1,,,74,127
182880,note_on,0,0,2,,,,,,,,,1,,,78,127
182880,note_on,60,0,5,,,,,,,,,4,,,76,0
182880,note_on,0,0,5,,,,,,,,,4,,,69,0
182880,note_on,0,0,5,,,,,,,,,4,,,78,127
182880,note_on,0,0,5,,,,,,,,,4,,,74,127
182880,note_on,60,0,6,,,,,,,,,5,,,45,0
182880,note_on,30,0,7,,,,,,,,,6,,,78,127
182880,note_on,30,0,10,,,,,,,,,10,,,62,127
182880,note_on,0,0,4,,,,,,,,,3,,,62,127
182880,note_on,30,0,1,,,,,,,,,0,,,90,127
182880,note_on,0,0,1,,,,,,,,,0,,,86,127
182880,note_on,30,0,11,,,,,,,,,11,,,50,127
182880,note_on,0,0,4,,,,,,,,,3,,,66,127
182940,note_on,0,0,7,,,,,,,,,6,,,81,126
182940,note_on,0,0,8,,,,,,,,,7,,,66,126
182940,note_on,60,0,8,,,,,,,,,7,,,74,0
182940,note_on,60,0,7,,,,,,,,,6,,,78,0
182970,note_on,30,0,8,,,,,,,,,7,,,66,0
182970,note_on,0,0,8,,,,,,,,,7,,,69,126
182970,note_on,0,0,7,,,,,,,,,6,,,86,126
182970,note_on,30,0,7,,,,,,,,,6,,,81,0
183000,note_on,0,0,4,,,,,,,,,3,,,62,0
183000,note_on,30,0,7,,,,,,,,,6,,,86,0
183000,note_on,120,0,1,,,,,,,,,0,,,86,0
183000,note_on,0,0,1,,,,,,,,,0,,,90,0
183000,note_on,0,0,5,,,,,,,,,4,,,78,0
183000,note_on,120,0,5,,,,,,,,,4,,,74,0
183000,note_on,120,0,4,,,,,,,,,3,,,66,0
183000,note_on,120,0,9,,,,,,,,,8,,,62,0
183000,note_on,0,0,2,,,,,,,,,1,,,74,0
183000,note_on,0,0,7,,,,,,,,,6,,,90,125
183000,note_on,120,0,10,,,,,,,,,10,,,62,0
183000,note_on,0,0,8,,,,,,,,,7,,,74,125
183000,note_on,30,0,8,,,,,,,,,7,,,69,0
183000,note_on,120,0,11,,,,,,,,,11,,,50,0
183000,note_on,120,0,3,,,,,,,,,2,,,62,0
183000,note_on,120,0,6,,,,,,,,,5,,,50,0
183000,note_on,120,0,2,,,,,,,,,1,,,78,0
183030,note_on,30,0,8,,,,,,,,,7,,,74,0
183030,note_on,30,0,7,,,,,,,,,6,,,90,0
183060,note_on,60,0,2,,,,,,,,,1,,,73,124
183060,note_on,60,0,10,,,,,,,,,10,,,57,124
183060,note_on,0,0,2,,,,,,,,,1,,,76,124
183060,note_on,30,0,8,,,,,,,,,7,,,73,124
183060,note_on,60,0,5,,,,,,,,,4,,,69,124
183060,note_on,0,0,5,,,,,,,,,4,,,81,124
183060,note_on,60,0,9,,,,,,,,,8,,,69,124
183060,note_on,60,0,11,,,,,,,,,11,,,45,124
183060,note_on,60,0,1,,,,,,,,,0,,,93,124
183060,note_on,0,0,1,,,,,,,,,0,,,88,124
183060,note_on,60,0,3,,,,,,,,,2,,,57,124
183060,note_on,60,0,4,,,,,,,,,3,,,57,124
183060,note_on,0,0,4,,,,,,,,,3,,,69,124
183060,note_on,30,0,7,,,,,,,,,6,,,88,124
183090,note_on,30,0,7,,,,,,,,,6,,,88,0
183090,note_on,30,0,8,,,,,,,,,7,,,73,0
183120,note_on,60,0,11,,,,,,,,,11,,,45,0
183120,note_on,0,0,11,,,,,,,,,11,,,50,123
183120,note_on,0,0,4,,,,,,,,,3,,,69,123
183120,note_on,0,0,10,,,,,,,,,10,,,62,123
183120,note_on,60,0,10,,,,,,,,,10,,,57,0
183120,note_on,60,0,4,,,,,,,,,3,,,69,0
183120,note_on,0,0,4,,,,,,,,,3,,,57,0
183120,note_on,60,0,3,,,,,,,,,2,,,57,0
183120,note_on,0,0,3,,,,,,,,,2,,,62,123
183120,note_on,60,0,5,,,,,,,,,4,,,81,0
183120,note_on,0,0,5,,,,,,,,,4,,,69,0
183120,note_on,0,0,5,,,,,,,,,4,,,81,123
183120,note_on,0,0,4,,,,,,,,,3,,,57,123
183120,note_on,0,0,5,,,,,,,,,4,,,69,123
183120,note_on,60,0,1,,,,,,,,,0,,,88,0
183120,note_on,0,0,1,,,,,,,,,0,,,93,123
183120,note_on,0,0,9,,,,,,,,,8,,,74,123
183120,note_on,60,0,9,,,,,,,,,8,,,69,0
183120,note_on,0,0,2,,,,,,,,,1,,,74,123
183120,note_on,0,0,2,,,,,,,,,1,,,78,123
183120,note_on,0,0,2,,,,,,,,,1,,,73,0
183120,note_on,60,0,2,,,,,,,,,1,,,76,0
183120,note_on,0,0,1,,,,,,,,,0,,,93,0
183120,note_on,0,0,1,,,,,,,,,0,,,90,123
183180,note_on,90,0,7,,,,,,,,,6,,,81,122
183180,note_on,90,0,8,,,,,,,,,7,,,66,122
183210,note_on,30,0,8,,,,,,,,,7,,,66,0
183210,note_on,0,0,8,,,,,,,,,7,,,69,121
183210,note_on,0,0,7,,,,,,,,,6,,,86,121
183210,note_on,30,0,7,,,,,,,,,6,,,81,0
183240,note_on,0,0,7,,,,,,,,,6,,,90,121
183240,note_on,30,0,7,,,,,,,,,6,,,86,0
183240,note_on,120,0,3,,,,,,,,,2,,,62,0
183240,note_on,0,0,5,,,,,,,,,4,,,69,0
183240,note_on,120,0,5,,,,,,,,,4,,,81,0
183240,note_on,120,0,9,,,,,,,,,8,,,74,0
183240,note_on,120,0,1,,,,,,,,,0,,,90,0
183240,note_on,120,0,4,,,,,,,,,3,,,69,0
183240,note_on,0,0,4,,,,,,,,,3,,,57,0
183240,note_on,120,0,2,,,,,,,,,1,,,74,0
183240,note_on,0,0,2,,,,,,,,,1,,,78,0
183240,note_on,120,0,11,,,,,,,,,11,,,50,0
183240,note_on,0,0,1,,,,,,,,,0,,,93,0
183240,note_on,30,0,8,,,,,,,,,7,,,69,0
183240,note_on,120,0,10,,,,,,,,,10,,,62,0
183240,note_on,0,0,8,,,,,,,,,7,,,74,121
183270,note_on,30,0,7,,,,,,,,,6,,,90,0
183270,note_on,30,0,8,,,,,,,,,7,,,74,0
183300,note_on,30,0,8,,,,,,,,,7,,,73,120
183300,note_on,60,0,2,,,,,,,,,1,,,73,120
183300,note_on,0,0,2,,,,,,,,,1,,,76,120
183300,note_on,60,0,5,,,,,,,,,4,,,69,120
183300,note_on,60,0,10,,,,,,,,,10,,,57,120
183300,note_on,30,0,7,,,,,,,,,6,,,88,120
183300,note_on,60,0,3,,,,,,,,,2,,,57,120
183300,note_on,0,0,5,,,,,,,,,4,,,81,120
183300,note_on,0,0,1,,,,,,,,,0,,,88,120
183300,note_on,60,0,1,,,,,,,,,0,,,93,120
183300,note_on,60,0,11,,,,,,,,,11,,,45,120
183300,note_on,60,0,9,,,,,,,,,8,,,69,120
183300,note_on,0,0,4,,,,,,,,,3,,,69,120
183300,note_on,60,0,4,,,,,,,,,3,,,57,120
183330,note_on,30,0,7,,,,,,,,,6,,,88,0
183330,note_on,30,0,8,,,,,,,,,7,,,73,0
183360,note_on,60,0,11,,,,,,,,,11,,,45,0
183360,note_on,60,0,3,,,,,,,,,2,,,57,0
183360,note_on,0,0,11,,,,,,,,,11,,,47,118
183360,note_on,0,0,3,,,,,,,,,2,,,59,118
183360,note_on,0,0,9,,,,,,,,,8,,,71,118
183360,note_on,60,0,9,,,,,,,,,8,,,69,0
183360,note_on,0,0,2,,,,,,,,,1,,,74,118
183360,note_on,0,0,2,,,,,,,,,1,,,73,0
183360,note_on,60,0,2,,,,,,,,,1,,,76,0
183360,note_on,0,0,1,,,,,,,,,0,,,93,0
183360,note_on,0,0,1,,,,,,,,,0,,,86,118
183360,note_on,0,0,4,,,,,,,,,3,,,66,118
183360,note_on,0,0,1,,,,,,,,,0,,,90,118
183360,note_on,0,0,4,,,,,,,,,3,,,57,0
183360,note_on,0,0,5,,,,,,,,,4,,,66,118
183360,note_on,0,0,5,,,,,,,,,4,,,78,118
183360,note_on,0,0,5,,,,,,,,,4,,,69,0
183360,note_on,60,0,5,,,,,,,,,4,,,81,0
183360,note_on,0,0,10,,,,,,,,,10,,,59,118
183360,note_on,0,0,4,,,,,,,,,3,,,54,118
183360,note_on,60,0,10,,,,,,,,,10,,,57,0
183360,note_on,0,0,2,,,,,,,,,1,,,71,118
183360,note_on,60,0,1,,,,,,,,,0,,,88,0
183360,note_on,60,0,4,,,,,,,,,3,,,69,0
183420,note_on,90,0,8,,,,,,,,,7,,,62,117
183420,note_on,90,0,7,,,,,,,,,6,,,78,117
183450,note_on,0,0,8,,,,,,,,,7,,,66,117
183450,note_on,30,0,7,,,,,,,,,6,,,78,0
183450,note_on,30,0,8,,,,,,,,,7,,,62,0
183450,note_on,0,0,7,,,,,,,,,6,,,81,117
183480,note_on,30,0,8,,,,,,,,,7,,,66,0
183480,note_on,0,0,8,,,,,,,,,7,,,71,116
183480,note_on,120,0,4,,,,,,,,,3,,,66,0
183480,note_on,0,0,4,,,,,,,,,3,,,54,0
183480,note_on,120,0,10,,,,,,,,,10,,,59,0
183480,note_on,0,0,5,,,,,,,,,4,,,78,0
183480,note_on,0,0,2,,,,,,,,,1,,,74,0
183480,note_on,120,0,5,,,,,,,,,4,,,66,0
183480,note_on,120,0,11,,,,,,,,,11,,,47,0
183480,note_on,0,0,1,,,,,,,,,0,,,90,0
183480,note_on,120,0,9,,,,,,,,,8,,,71,0
183480,note_on,120,0,2,,,,,,,,,1,,,71,0
183480,note_on,120,0,3,,,,,,,,,2,,,59,0
183480,note_on,120,0,1,,,,,,,,,0,,,86,0
183480,note_on,0,0,7,,,,,,,,,6,,,86,116
183480,note_on,30,0,7,,,,,,,,,6,,,81,0
183510,note_on,30,0,8,,,,,,,,,7,,,71,0
183510,note_on,30,0,7,,,,,,,,,6,,,86,0
183540,note_on,60,0,11,,,,,,,,,11,,,43,115
183540,note_on,30,0,7,,,,,,,,,6,,,85,115
183540,note_on,60,0,10,,,,,,,,,10,,,55,115
183540,note_on,0,0,4,,,,,,,,,3,,,66,115
183540,note_on,0,0,2,,,,,,,,,1,,,69,115
183540,note_on,60,0,2,,,,,,,,,1,,,73,115
183540,note_on,60,0,9,,,,,,,,,8,,,66,115
183540,note_on,60,0,3,,,,,,,,,2,,,54,115
183540,note_on,30,0,8,,,,,,,,,7,,,69,115
183540,note_on,60,0,5,,,,,,,,,4,,,66,115
183540,note_on,0,0,1,,,,,,,,,0,,,90,115
183540,note_on,60,0,4,,,,,,,,,3,,,54,115
183540,note_on,0,0,5,,,,,,,,,4,,,78,115
183540,note_on,60,0,1,,,,,,,,,0,,,85,115
183570,note_on,30,0,7,,,,,,,,,6,,,85,0
183570,note_on,30,0,8,,,,,,,,,7,,,69,0
183600,note_on,0,0,2,,,,,,,,,1,,,74,114
183600,note_on,60,0,4,,,,,,,,,3,,,66,0
183600,note_on,0,0,4,,,,,,,,,3,,,54,0
183600,note_on,0,0,4,,,,,,,,,3,,,54,114
183600,note_on,0,0,4,,,,,,,,,3,,,66,114
183600,note_on,0,0,10,,,,,,,,,10,,,59,114
183600,note_on,0,0,2,,,,,,,,,1,,,71,114
183600,note_on,60,0,10,,,,,,,,,10,,,55,0
183600,note_on,0,0,1,,,,,,,,,0,,,86,114
183600,note_on,0,0,1,,,,,,,,,0,,,90,114
183600,note_on,0,0,2,,,,,,,,,1,,,73,0
183600,note_on,0,0,1,,,,,,,,,0,,,85,0
183600,note_on,60,0,1,,,,,,,,,0,,,90,0
183600,note_on,0,0,3,,,,,,,,,2,,,59,114
183600,note_on,60,0,9,,,,,,,,,8,,,66,0
183600,note_on,60,0,3,,,,,,,,,2,,,54,0
183600,note_on,60,0,5,,,,,,,,,4,,,78,0
183600,note_on,60,0,2,,,,,,,,,1,,,69,0
183600,note_on,0,0,11,,,,,,,,,11,,,47,114
183600,note_on,60,0,11,,,,,,,,,11,,,43,0
183600,note_on,0,0,9,,,,,,,,,8,,,71,114
183600,note_on,0,0,5,,,,,,,,,4,,,78,114
183600,note_on,0,0,5,,,,,,,,,4,,,66,0
183600,note_on,0,0,5,,,,,,,,,4,,,66,114
183660,note_on,90,0,8,,,,,,,,,7,,,62,113
183660,note_on,90,0,7,,,,,,,,,6,,,78,113
183690,note_on,0,0,8,,,,,,,,,7,,,66,112
183690,note_on,30,0,8,,,,,,,,,7,,,62,0
183690,note_on,30,0,7,,,,,,,,,6,,,78,0
183690,note_on,0,0,7,,,,,,,,,6,,,81,112
183720,note_on,0,0,2,,,,,,,,,1,,,71,0
183720,note_on,120,0,2,,,,,,,,,1,,,74,0
183720,note_on,120,0,1,,,,,,,,,0,,,86,0
183720,note_on,120,0,10,,,,,,,,,10,,,59,0
183720,note_on,120,0,9,,,,,,,,,8,,,71,0
183720,note_on,120,0,11,,,,,,,,,11,,,47,0
183720,note_on,120,0,5,,,,,,,,,4,,,66,0
183720,note_on,30,0,8,,,,,,,,,7,,,66,0
183720,note_on,0,0,8,,,,,,,,,7,,,71,112
183720,note_on,0,0,5,,,,,,,,,4,,,78,0
183720,note_on,0,0,1,,,,,,,,,0,,,90,0
183720,note_on,120,0,3,,,,,,,,,2,,,59,0
183720,note_on,0,0,4,,,,,,,,,3,,,54,0
183720,note_on,0,0,7,,,,,,,,,6,,,86,112
183720,note_on,30,0,7,,,,,,,,,6,,,81,0
183720,note_on,120,0,4,,,,,,,,,3,,,66,0
183750,note_on,30,0,7,,,,,,,,,6,,,86,0
183750,note_on,30,0,8,,,,,,,,,7,,,71,0
183780,note_on,60,0,3,,,,,,,,,2,,,54,111
183780,note_on,0,0,4,,,,,,,,,3,,,66,111
183780,note_on,60,0,11,,,,,,,,,11,,,43,111
183780,note_on,60,0,5,,,,,,,,,4,,,66,111
183780,note_on,0,0,5,,,,,,,,,4,,,78,111
183780,note_on,30,0,7,,,,,,,,,6,,,85,111
183780,note_on,60,0,9,,,,,,,,,8,,,66,111
183780,note_on,60,0,4,,,,,,,,,3,,,54,111
183780,note_on,30,0,8,,,,,,,,,7,,,69,111
183780,note_on,0,0,1,,,,,,,,,0,,,85,111
183780,note_on,60,0,2,,,,,,,,,1,,,73,111
183780,note_on,60,0,10,,,,,,,,,10,,,55,111
183780,note_on,60,0,1,,,,,,,,,0,,,90,111
183780,note_on,0,0,2,,,,,,,,,1,,,69,111
183810,note_on,30,0,7,,,,,,,,,6,,,85,0
183810,note_on,30,0,8,,,,,,,,,7,,,69,0
183840,note_on,0,0,11,,,,,,,,,11,,,43,109
183840,note_on,840,0,6,,,,,,,,,5,,,50,109
183840,note_on,0,0,4,,,,,,,,,3,,,62,109
183840,note_on,60,0,2,,,,,,,,,1,,,69,0
183840,note_on,0,0,2,,,,,,,,,1,,,73,0
183840,note_on,0,0,2,,,,,,,,,1,,,71,109
183840,note_on,0,0,3,,,,,,,,,2,,,55,109
183840,note_on,60,0,3,,,,,,,,,2,,,54,0
183840,note_on,0,0,2,,,,,,,,,1,,,67,109
183840,note_on,0,0,4,,,,,,,,,3,,,54,0
183840,note_on,60,0,4,,,,,,,,,3,,,66,0
183840,note_on,0,0,4,,,,,,,,,3,,,50,109
183840,note_on,0,0,1,,,,,,,,,0,,,86,109
183840,note_on,0,0,1,,,,,,,,,0,,,83,109
183840,note_on,0,0,1,,,,,,,,,0,,,90,0
183840,note_on,60,0,1,,,,,,,,,0,,,85,0
183840,note_on,0,0,5,,,,,,,,,4,,,66,0
183840,note_on,0,0,10,,,,,,,,,10,,,55,109
183840,note_on,60,0,10,,,,,,,,,10,,,55,0
183840,note_on,60,0,9,,,,,,,,,8,,,66,0
183840,note_on,60,0,11,,,,,,,,,11,,,43,0
183840,note_on,0,0,9,,,,,,,,,8,,,67,109
183840,note_on,0,0,5,,,,,,,,,4,,,74,109
183840,note_on,60,0,5,,,,,,,,,4,,,78,0
183840,note_on,0,0,5,,,,,,,,,4,,,62,109
183900,note_on,90,0,8,,,,,,,,,7,,,59,108
183900,note_on,90,0,7,,,,,,,,,6,,,74,108
183930,note_on,30,0,8,,,,,,,,,7,,,59,0
183930,note_on,0,0,7,,,,,,,,,6,,,79,108
183930,note_on,30,0,7,,,,,,,,,6,,,74,0
183930,note_on,0,0,8,,,,,,,,,7,,,62,108
183960,note_on,30,0,8,,,,,,,,,7,,,62,0
183960,note_on,0,0,6,,,,,,,,,5,,,50,107
183960,note_on,120,0,6,,,,,,,,,5,,,50,0
183960,note_on,0,0,4,,,,,,,,,3,,,50,0
183960,note_on,30,0,7,,,,,,,,,6,,,79,0
183960,note_on,0,0,8,,,,,,,,,7,,,67,107
183960,note_on,120,0,5,,,,,,,,,4,,,74,0
183960,note_on,120,0,9,,,,,,,,,8,,,67,0
183960,note_on,120,0,10,,,,,,,,,10,,,55,0
183960,note_on,120,0,1,,,,,,,,,0,,,86,0
183960,note_on,120,0,4,,,,,,,,,3,,,62,0
183960,note_on,0,0,1,,,,,,,,,0,,,83,0
183960,note_on,0,0,7,,,,,,,,,6,,,83,107
183960,note_on,120,0,11,,,,,,,,,11,,,43,0
183960,note_on,120,0,3,,,,,,,,,2,,,55,0
183960,note_on,120,0,2,,,,,,,,,1,,,67,0
183960,note_on,0,0,2,,,,,,,,,1,,,71,0
183960,note_on,0,0,5,,,,,,,,,4,,,62,0
183990,note_on,30,0,8,,,,,,,,,7,,,67,0
183990,note_on,30,0,7,,,,,,,,,6,,,83,0
184020,note_on,60,0,4,,,,,,,,,3,,,62,106
184020,note_on,60,0,2,,,,,,,,,1,,,66,106
184020,note_on,0,0,2,,,,,,,,,1,,,69,106
184020,note_on,60,0,5,,,,,,,,,4,,,62,106
184020,note_on,0,0,5,,,,,,,,,4,,,74,106
184020,note_on,0,0,4,,,,,,,,,3,,,50,106
184020,note_on,30,0,7,,,,,,,,,6,,,81,106
184020,note_on,60,0,10,,,,,,,,,10,,,52,106
184020,note_on,60,0,9,,,,,,,,,8,,,62,106
184020,note_on,60,0,11,,,,,,,,,11,,,40,106
184020,note_on,60,0,3,,,,,,,,,2,,,50,106
184020,note_on,60,0,1,,,,,,,,,0,,,86,106
184020,note_on,0,0,1,,,,,,,,,0,,,81,106
184020,note_on,30,0,8,,,,,,,,,7,,,66,106
184050,note_on,30,0,8,,,,,,,,,7,,,66,0
184050,note_on,30,0,7,,,,,,,,,6,,,81,0
184050,note_on,90,0,6,,,,,,,,,5,,,50,0
184050,note_on,0,0,6,,,,,,,,,5,,,50,106
184080,note_on,60,0,11,,,,,,,,,11,,,40,0
184080,note_on,0,0,11,,,,,,,,,11,,,43,105
184080,note_on,0,0,1,,,,,,,,,0,,,86,0
184080,note_on,60,0,2,,,,,,,,,1,,,69,0
184080,note_on,60,0,1,,,,,,,,,0,,,81,0
184080,note_on,0,0,2,,,,,,,,,1,,,66,0
184080,note_on,60,0,9,,,,,,,,,8,,,62,0
184080,note_on,0,0,2,,,,,,,,,1,,,67,105
184080,note_on,0,0,4,,,,,,,,,3,,,50,105
184080,note_on,0,0,4,,,,,,,,,3,,,62,105
184080,note_on,0,0,4,,,,,,,,,3,,,62,0
184080,note_on,60,0,4,,,,,,,,,3,,,50,0
184080,note_on,0,0,6,,,,,,,,,5,,,50,105
184080,note_on,30,0,6,,,,,,,,,5,,,50,0
184080,note_on,0,0,9,,,,,,,,,8,,,67,105
184080,note_on,0,0,2,,,,,,,,,1,,,71,105
184080,note_on,0,0,10,,,,,,,,,10,,,55,105
184080,note_on,60,0,3,,,,,,,,,2,,,50,0
184080,note_on,60,0,10,,,,,,,,,10,,,52,0
184080,note_on,0,0,5,,,,,,,,,4,,,74,105
184080,note_on,0,0,1,,,,,,,,,0,,,83,105
184080,note_on,0,0,5,,,,,,,,,4,,,62,105
184080,note_on,0,0,5,,,,,,,,,4,,,62,0
184080,note_on,0,0,3,,,,,,,,,2,,,55,105
184080,note_on,60,0,5,,,,,,,,,4,,,74,0
184080,note_on,0,0,1,,,,,,,,,0,,,86,105
184140,note_on,90,0,8,,,,,,,,,7,,,59,104
184140,note_on,90,0,7,,,,,,,,,6,,,74,104
184170,note_on,0,0,8,,,,,,,,,7,,,62,103
184170,note_on,30,0,8,,,,,,,,,7,,,59,0
184170,note_on,0,0,7,,,,,,,,,6,,,79,103
184170,note_on,30,0,7,,,,,,,,,6,,,74,0
184200,note_on,120,0,4,,,,,,,,,3,,,50,0
184200,note_on,0,0,8,,,,,,,,,7,,,67,103
184200,note_on,0,0,6,,,,,,,,,5,,,50,103
184200,note_on,120,0,6,,,,,,,,,5,,,50,0
184200,note_on,120,0,3,,,,,,,,,2,,,55,0
184200,note_on,0,0,7,,,,,,,,,6,,,83,103
184200,note_on,30,0,7,,,,,,,,,6,,,79,0
184200,note_on,120,0,5,,,,,,,,,4,,,74,0
184200,note_on,0,0,5,,,,,,,,,4,,,62,0
184200,note_on,30,0,8,,,,,,,,,7,,,62,0
184200,note_on,120,0,11,,,,,,,,,11,,,43,0
184200,note_on,0,0,4,,,,,,,,,3,,,62,0
184200,note_on,0,0,2,,,,,,,,,1,,,67,0
184200,note_on,120,0,10,,,,,,,,,10,,,55,0
184200,note_on,120,0,2,,,,,,,,,1,,,71,0
184200,note_on,120,0,9,,,,,,,,,8,,,67,0
184200,note_on,0,0,1,,,,,,,,,0,,,86,0
184200,note_on,120,0,1,,,,,,,,,0,,,83,0
184230,note_on,30,0,7,,,,,,,,,6,,,83,0
184230,note_on,30,0,8,,,,,,,,,7,,,67,0
184260,note_on,60,0,9,,,,,,,,,8,,,62,102
184260,note_on,0,0,2,,,,,,,,,1,,,69,102
184260,note_on,30,0,7,,,,,,,,,6,,,81,102
184260,note_on,60,0,2,,,,,,,,,1,,,66,102
184260,note_on,60,0,3,,,,,,,,,2,,,50,102
184260,note_on,30,0,8,,,,,,,,,7,,,66,102
184260,note_on,0,0,1,,,,,,,,,0,,,86,102
184260,note_on,60,0,1,,,,,,,,,0,,,81,102
184260,note_on,60,0,10,,,,,,,,,10,,,52,102
184260,note_on,60,0,11,,,,,,,,,11,,,40,102
184260,note_on,0,0,4,,,,,,,,,3,,,50,102
184260,note_on,60,0,4,,,,,,,,,3,,,62,102
184260,note_on,0,0,5,,,,,,,,,4,,,74,102
184260,note_on,60,0,5,,,,,,,,,4,,,62,102
184290,note_on,30,0,8,,,,,,,,,7,,,66,0
184290,note_on,30,0,7,,,,,,,,,6,,,81,0
184320,note_on,60,0,1,,,,,,,,,0,,,86,0
184320,note_on,0,0,1,,,,,,,,,0,,,81,0
184320,note_on,0,0,1,,,,,,,,,0,,,79,100
184320,note_on,30,0,7,,,,,,,,,6,,,83,100
184320,note_on,60,0,4,,,,,,,,,3,,,50,0
184320,note_on,0,0,5,,,,,,,,,4,,,62,100
184320,note_on,60,0,2,,,,,,,,,1,,,69,0
184320,note_on,0,0,2,,,,,,,,,1,,,66,0
184320,note_on,0,0,2,,,,,,,,,1,,,71,100
184320,note_on,0,0,2,,,,,,,,,1,,,67,100
184320,note_on,0,0,9,,,,,,,,,8,,,67,100
184320,note_on,0,0,5,,,,,,,,,4,,,74,100
184320,note_on,60,0,3,,,,,,,,,2,,,50,0
184320,note_on,0,0,4,,,,,,,,,3,,,62,0
184320,note_on,30,0,8,,,,,,,,,7,,,67,100
184320,note_on,60,0,11,,,,,,,,,11,,,40,0
184320,note_on,0,0,11,,,,,,,,,11,,,43,100
184320,note_on,60,0,9,,,,,,,,,8,,,62,0
184320,note_on,0,0,4,,,,,,,,,3,,,50,100
184320,note_on,0,0,5,,,,,,,,,4,,,62,0
184320,note_on,0,0,10,,,,,,,,,10,,,55,100
184320,note_on,0,0,4,,,,,,,,,3,,,62,100
184320,note_on,0,0,3,,,,,,,,,2,,,55,100
184320,note_on,60,0,10,,,,,,,,,10,,,52,0
184320,note_on,0,0,6,,,,,,,,,5,,,50,100
184320,note_on,120,0,6,,,,,,,,,5,,,50,0
184320,note_on,60,0,5,,,,,,,,,4,,,74,0
184365,note_on,45,0,10,,,,,,,,,10,,,55,0
184365,note_on,45,0,3,,,,,,,,,2,,,55,0
184365,note_on,45,0,9,,,,,,,,,8,,,67,0
184365,note_on,45,0,11,,,,,,,,,11,,,43,0
184380,note_on,15,0,9,,,,,,,,,8,,,67,101
184380,note_on,0,0,4,,,,,,,,,3,,,50,0
184380,note_on,15,0,11,,,,,,,,,11,,,43,101
184380,note_on,60,0,5,,,,,,,,,4,,,74,0
184380,note_on,15,0,3,,,,,,,,,2,,,55,101
184380,note_on,60,0,4,,,,,,,,,3,,,62,0
184380,note_on,0,0,5,,,,,,,,,4,,,62,0
184380,note_on,15,0,10,,,,,,,,,10,,,55,101
184425,note_on,45,0,11,,,,,,,,,11,,,43,0
184425,note_on,45,0,9,,,,,,,,,8,,,67,0
184425,note_on,45,0,3,,,,,,,,,2,,,55,0
184425,note_on,45,0,10,,,,,,,,,10,,,55,0
184440,note_on,120,0,1,,,,,,,,,0,,,79,0
184440,note_on,15,0,9,,,,,,,,,8,,,67,103
184440,note_on,0,0,2,,,,,,,,,1,,,71,0
184440,note_on,0,0,1,,,,,,,,,0,,,83,103
184440,note_on,0,0,1,,,,,,,,,0,,,88,103
184440,note_on,120,0,2,,,,,,,,,1,,,67,0
184440,note_on,0,0,2,,,,,,,,,1,,,79,103
184440,note_on,15,0,3,,,,,,,,,2,,,55,103
184440,note_on,120,0,7,,,,,,,,,6,,,83,0
184440,note_on,0,0,7,,,,,,,,,6,,,88,103
184440,note_on,0,0,2,,,,,,,,,1,,,83,103
184440,note_on,15,0,11,,,,,,,,,11,,,43,103
184440,note_on,120,0,6,,,,,,,,,5,,,50,0
184440,note_on,0,0,8,,,,,,,,,7,,,76,103
184440,note_on,120,0,8,,,,,,,,,7,,,67,0
184440,note_on,15,0,10,,,,,,,,,10,,,55,103
184485,note_on,45,0,10,,,,,,,,,10,,,55,0
184485,note_on,45,0,11,,,,,,,,,11,,,43,0
184485,note_on,45,0,3,,,,,,,,,2,,,55,0
184485,note_on,45,0,9,,,,,,,,,8,,,67,0
184500,note_on,15,0,11,,,,,,,,,11,,,43,105
184500,note_on,15,0,9,,,,,,,,,8,,,67,105
184500,note_on,15,0,3,,,,,,,,,2,,,55,105
184500,note_on,15,0,10,,,,,,,,,10,,,55,105
184530,note_on,90,0,8,,,,,,,,,7,,,76,0
184530,note_on,90,0,7,,,,,,,,,6,,,88,0
184545,note_on,45,0,3,,,,,,,,,2,,,55,0
184545,note_on,45,0,10,,,,,,,,,10,,,55,0
184545,note_on,45,0,11,,,,,,,,,11,,,43,0
184545,note_on,45,0,9,,,,,,,,,8,,,67,0
184560,note_on,15,0,9,,,,,,,,,8,,,69,106
184560,note_on,15,0,10,,,,,,,,,10,,,57,106
184560,note_on,0,0,1,,,,,,,,,0,,,86,106
184560,note_on,0,0,1,,,,,,,,,0,,,81,106
184560,note_on,15,0,11,,,,,,,,,11,,,45,106
184560,note_on,30,0,8,,,,,,,,,7,,,74,106
184560,note_on,15,0,3,,,,,,,,,2,,,57,106
184560,note_on,0,0,1,,,,,,,,,0,,,88,0
184560,note_on,120,0,6,,,,,,,,,5,,,45,106
184560,note_on,120,0,1,,,,,,,,,0,,,83,0
184560,note_on,180,0,5,,,,,,,,,4,,,74,106
184560,note_on,0,0,5,,,,,,,,,4,,,78,106
184560,note_on,120,0,2,,,,,,,,,1,,,83,0
184560,note_on,0,0,2,,,,,,,,,1,,,79,0
184560,note_on,0,0,2,,,,,,,,,1,,,78,106
184560,note_on,0,0,2,,,,,,,,,1,,,81,106
184560,note_on,0,0,4,,,,,,,,,3,,,66,106
184560,note_on,180,0,4,,,,,,,,,3,,,62,106
184560,note_on,30,0,7,,,,,,,,,6,,,86,106
184605,note_on,45,0,11,,,,,,,,,11,,,45,0
184605,note_on,45,0,9,,,,,,,,,8,,,69,0
184605,note_on,45,0,10,,,,,,,,,10,,,57,0
184605,note_on,45,0,3,,,,,,,,,2,,,57,0
184620,note_on,15,0,9,,,,,,,,,8,,,69,108
184620,note_on,60,0,5,,,,,,,,,4,,,78,0
184620,note_on,0,0,5,,,,,,,,,4,,,74,0
184620,note_on,15,0,11,,,,,,,,,11,,,45,108
184620,note_on,15,0,3,,,,,,,,,2,,,57,108
184620,note_on,15,0,10,,,,,,,,,10,,,57,108
184620,note_on,0,0,4,,,,,,,,,3,,,62,0
184620,note_on,60,0,4,,,,,,,,,3,,,66,0
184650,note_on,90,0,7,,,,,,,,,6,,,86,0
184650,note_on,90,0,8,,,,,,,,,7,,,74,0
184665,note_on,45,0,10,,,,,,,,,10,,,57,0
184665,note_on,45,0,9,,,,,,,,,8,,,69,0
184665,note_on,45,0,3,,,,,,,,,2,,,57,0
184665,note_on,45,0,11,,,,,,,,,11,,,45,0
184680,note_on,60,0,5,,,,,,,,,4,,,69,110
184680,note_on,0,0,5,,,,,,,,,4,,,76,110
184680,note_on,30,0,8,,,,,,,,,7,,,57,110
184680,note_on,0,0,6,,,,,,,,,5,,,45,110
184680,note_on,120,0,6,,,,,,,,,5,,,45,0
184680,note_on,15,0,10,,,,,,,,,10,,,57,110
184680,note_on,120,0,1,,,,,,,,,0,,,86,0
184680,note_on,0,0,1,,,,,,,,,0,,,81,0
184680,note_on,15,0,3,,,,,,,,,2,,,57,110
184680,note_on,0,0,7,,,,,,,,,6,,,57,110
184680,note_on,0,0,1,,,,,,,,,0,,,76,110
184680,note_on,30,0,7,,,,,,,,,6,,,73,110
184680,note_on,15,0,9,,,,,,,,,8,,,69,110
184680,note_on,60,0,4,,,,,,,,,3,,,57,110
184680,note_on,0,0,4,,,,,,,,,3,,,64,110
184680,note_on,15,0,11,,,,,,,,,11,,,45,110
184680,note_on,0,0,2,,,,,,,,,1,,,73,110
184680,note_on,0,0,2,,,,,,,,,1,,,76,110
184680,note_on,0,0,7,,,,,,,,,6,,,64,110
184680,note_on,0,0,2,,,,,,,,,1,,,78,0
184680,note_on,120,0,2,,,,,,,,,1,,,81,0
184680,note_on,0,0,1,,,,,,,,,0,,,85,110
184680,note_on,0,0,8,,,,,,,,,7,,,73,110
184680,note_on,0,0,8,,,,,,,,,7,,,64,110
184725,note_on,45,0,10,,,,,,,,,10,,,57,0
184725,note_on,45,0,9,,,,,,,,,8,,,69,0
184725,note_on,45,0,3,,,,,,,,,2,,,57,0
184725,note_on,45,0,11,,,,,,,,,11,,,45,0
184740,note_on,0,0,5,,,,,,,,,4,,,69,0
184740,note_on,60,0,5,,,,,,,,,4,,,76,0
184740,note_on,15,0,11,,,,,,,,,11,,,45,111
184740,note_on,15,0,3,,,,,,,,,2,,,57,111
184740,note_on,0,0,4,,,,,,,,,3,,,57,0
184740,note_on,15,0,9,,,,,,,,,8,,,69,111
184740,note_on,15,0,10,,,,,,,,,10,,,57,111
184740,note_on,60,0,4,,,,,,,,,3,,,64,0
184770,note_on,90,0,8,,,,,,,,,7,,,73,0
184770,note_on,0,0,8,,,,,,,,,7,,,57,0
184770,note_on,0,0,7,,,,,,,,,6,,,64,0
184770,note_on,0,0,7,,,,,,,,,6,,,73,0
184770,note_on,90,0,7,,,,,,,,,6,,,57,0
184770,note_on,0,0,8,,,,,,,,,7,,,64,0
184785,note_on,45,0,3,,,,,,,,,2,,,57,0
184785,note_on,45,0,9,,,,,,,,,8,,,69,0
184785,note_on,45,0,10,,,,,,,,,10,,,57,0
184785,note_on,45,0,11,,,,,,,,,11,,,45,0
184800,note_on,60,0,4,,,,,,,,,3,,,54,113
184800,note_on,0,0,4,,,,,,,,,3,,,62,113
184800,note_on,15,0,11,,,,,,,,,11,,,38,113
184800,note_on,0,0,5,,,,,,,,,4,,,74,113
184800,note_on,0,0,1,,,,,,,,,0,,,85,0
184800,note_on,0,0,1,,,,,,,,,0,,,78,113
184800,note_on,0,0,7,,,,,,,,,6,,,66,113
184800,note_on,0,0,7,,,,,,,,,6,,,74,113
184800,note_on,0,0,2,,,,,,,,,1,,,78,113
184800,note_on,0,0,6,,,,,,,,,5,,,50,113
184800,note_on,120,0,6,,,,,,,,,5,,,45,0
184800,note_on,15,0,10,,,,,,,,,10,,,50,113
184800,note_on,0,0,1,,,,,,,,,0,,,86,113
184800,note_on,120,0,1,,,,,,,,,0,,,76,0
184800,note_on,60,0,5,,,,,,,,,4,,,66,113
184800,note_on,30,0,7,,,,,,,,,6,,,57,113
184800,note_on,0,0,2,,,,,,,,,1,,,74,113
184800,note_on,15,0,3,,,,,,,,,2,,,50,113
184800,note_on,0,0,8,,,,,,,,,7,,,57,113
184800,note_on,15,0,9,,,,,,,,,8,,,62,113
184800,note_on,0,0,8,,,,,,,,,7,,,66,113
184800,note_on,120,0,2,,,,,,,,,1,,,73,0
184800,note_on,0,0,2,,,,,,,,,1,,,76,0
184800,note_on,30,0,8,,,,,,,,,7,,,74,113
184840,note_on,40,0,9,,,,,,,,,8,,,62,0
184845,note_on,0,0,4,,,,,,,,,3,,,54,0
184845,note_on,45,0,11,,,,,,,,,11,,,38,0
184845,note_on,45,0,5,,,,,,,,,4,,,74,0
184845,note_on,45,0,4,,,,,,,,,3,,,62,0
184845,note_on,0,0,5,,,,,,,,,4,,,66,0
184845,note_on,45,0,10,,,,,,,,,10,,,50,0
184860,note_on,15,0,10,,,,,,,,,10,,,62,115
184860,note_on,0,0,5,,,,,,,,,4,,,74,115
184860,note_on,15,0,4,,,,,,,,,3,,,50,115
184860,note_on,15,0,5,,,,,,,,,4,,,62,115
184860,note_on,0,0,6,,,,,,,,,5,,,50,115
184860,note_on,60,0,6,,,,,,,,,5,,,50,0
184860,note_on,20,0,9,,,,,,,,,8,,,74,115
184860,note_on,15,0,11,,,,,,,,,11,,,50,115
184860,note_on,0,0,4,,,,,,,,,3,,,62,115
184900,note_on,40,0,9,,,,,,,,,8,,,74,0
184905,note_on,45,0,4,,,,,,,,,3,,,62,0
184905,note_on,0,0,5,,,,,,,,,4,,,62,0
184905,note_on,0,0,4,,,,,,,,,3,,,50,0
184905,note_on,45,0,10,,,,,,,,,10,,,62,0
184905,note_on,45,0,11,,,,,,,,,11,,,50,0
184905,note_on,45,0,5,,,,,,,,,4,,,74,0
184920,note_on,15,0,10,,,,,,,,,10,,,62,116
184920,note_on,60,0,6,,,,,,,,,5,,,50,0
184920,note_on,120,0,3,,,,,,,,,2,,,50,0
184920,note_on,0,0,6,,,,,,,,,5,,,50,116
184920,note_on,0,0,5,,,,,,,,,4,,,74,116
184920,note_on,0,0,8,,,,,,,,,7,,,66,0
184920,note_on,0,0,8,,,,,,,,,7,,,74,0
184920,note_on,20,0,9,,,,,,,,,8,,,74,116
184920,note_on,15,0,5,,,,,,,,,4,,,62,116
184920,note_on,120,0,1,,,,,,,,,0,,,86,0
184920,note_on,0,0,1,,,,,,,,,0,,,78,0
184920,note_on,0,0,4,,,,,,,,,3,,,62,116
184920,note_on,15,0,4,,,,,,,,,3,,,50,116
184920,note_on,120,0,7,,,,,,,,,6,,,74,0
184920,note_on,120,0,8,,,,,,,,,7,,,57,0
184920,note_on,15,0,11,,,,,,,,,11,,,50,116
184920,note_on,120,0,2,,,,,,,,,1,,,74,0
184920,note_on,0,0,7,,,,,,,,,6,,,66,0
184920,note_on,0,0,2,,,,,,,,,1,,,78,0
184920,note_on,0,0,7,,,,,,,,,6,,,57,0
184960,note_on,40,0,9,,,,,,,,,8,,,74,0
184965,note_on,0,0,4,,,,,,,,,3,,,50,0
184965,note_on,45,0,5,,,,,,,,,4,,,74,0
184965,note_on,0,0,5,,,,,,,,,4,,,62,0
184965,note_on,45,0,4,,,,,,,,,3,,,62,0
184965,note_on,45,0,11,,,,,,,,,11,,,50,0
184965,note_on,45,0,10,,,,,,,,,10,,,62,0
184980,note_on,15,0,10,,,,,,,,,10,,,62,118
184980,note_on,15,0,5,,,,,,,,,4,,,62,118
184980,note_on,0,0,5,,,,,,,,,4,,,74,118
184980,note_on,60,0,6,,,,,,,,,5,,,50,0
184980,note_on,20,0,9,,,,,,,,,8,,,74,118
184980,note_on,0,0,6,,,,,,,,,5,,,50,118
184980,note_on,0,0,4,,,,,,,,,3,,,62,118
184980,note_on,15,0,4,,,,,,,,,3,,,50,118
184980,note_on,15,0,11,,,,,,,,,11,,,50,118
185020,note_on,40,0,9,,,,,,,,,8,,,74,0
185025,note_on,45,0,4,,,,,,,,,3,,,62,0
185025,note_on,0,0,4,,,,,,,,,3,,,50,0
185025,note_on,0,0,5,,,,,,,,,4,,,62,0
185025,note_on,45,0,10,,,,,,,,,10,,,62,0
185025,note_on,45,0,5,,,,,,,,,4,,,74,0
185025,note_on,45,0,11,,,,,,,,,11,,,50,0
185040,note_on,0,0,5,,,,,,,,,4,,,74,120
185040,note_on,0,0,6,,,,,,,,,5,,,50,120
185040,note_on,60,0,6,,,,,,,,,5,,,50,0
185040,note_on,15,0,5,,,,,,,,,4,,,62,120
185040,note_on,15,0,10,,,,,,,,,10,,,62,120
185040,note_on,20,0,9,,,,,,,,,8,,,74,120
185040,note_on,15,0,11,,,,,,,,,11,,,50,120
185040,note_on,15,0,4,,,,,,,,,3,,,50,120
185040,note_on,0,0,4,,,,,,,,,3,,,62,120
185080,note_on,40,0,9,,,,,,,,,8,,,74,0
185085,note_on,45,0,5,,,,,,,,,4,,,74,0
185085,note_on,45,0,4,,,,,,,,,3,,,62,0
185085,note_on,0,0,5,,,,,,,,,4,,,62,0
185085,note_on,0,0,4,,,,,,,,,3,,,50,0
185085,note_on,45,0,11,,,,,,,,,11,,,50,0
185085,note_on,45,0,10,,,,,,,,,10,,,62,0
185100,note_on,20,0,9,,,,,,,,,8,,,74,121
185100,note_on,15,0,10,,,,,,,,,10,,,62,121
185100,note_on,15,0,4,,,,,,,,,3,,,50,121
185100,note_on,15,0,5,,,,,,,,,4,,,62,121
185100,note_on,0,0,5,,,,,,,,,4,,,74,121
185100,note_on,0,0,4,,,,,,,,,3,,,62,121
185100,note_on,0,0,6,,,,,,,,,5,,,50,121
185100,note_on,15,0,11,,,,,,,,,11,,,50,121
185100,note_on,60,0,6,,,,,,,,,5,,,50,0
185140,note_on,40,0,9,,,,,,,,,8,,,74,0
185145,note_on,45,0,11,,,,,,,,,11,,,50,0
185145,note_on,45,0,4,,,,,,,,,3,,,62,0
185145,note_on,45,0,10,,,,,,,,,10,,,62,0
185145,note_on,0,0,4,,,,,,,,,3,,,50,0
185145,note_on,45,0,5,,,,,,,,,4,,,74,0
185145,note_on,0,0,5,,,,,,,,,4,,,62,0
185160,note_on,60,0,6,,,,,,,,,5,,,50,0
185160,note_on,15,0,11,,,,,,,,,11,,,50,123
185160,note_on,20,0,9,,,,,,,,,8,,,74,123
185160,note_on,15,0,10,,,,,,,,,10,,,62,123
185160,note_on,0,0,4,,,,,,,,,3,,,62,123
185160,note_on,15,0,4,,,,,,,,,3,,,50,123
185160,note_on,0,0,5,,,,,,,,,4,,,74,123
185160,note_on,15,0,5,,,,,,,,,4,,,62,123
185160,note_on,0,0,6,,,,,,,,,5,,,50,123
185200,note_on,40,0,9,,,,,,,,,8,,,74,0
185205,note_on,0,0,5,,,,,,,,,4,,,62,0
185205,note_on,45,0,4,,,,,,,,,3,,,62,0
185205,note_on,45,0,11,,,,,,,,,11,,,50,0
185205,note_on,0,0,4,,,,,,,,,3,,,50,0
185205,note_on,45,0,5,,,,,,,,,4,,,74,0
185205,note_on,45,0,10,,,,,,,,,10,,,62,0
185220,note_on,20,0,9,,,,,,,,,8,,,74,125
185220,note_on,15,0,10,,,,,,,,,10,,,62,125
185220,note_on,15,0,5,,,,,,,,,4,,,62,125
185220,note_on,0,0,6,,,,,,,,,5,,,50,125
185220,note_on,0,0,5,,,,,,,,,4,,,74,125
185220,note_on,15,0,11,,,,,,,,,11,,,50,125
185220,note_on,0,0,4,,,,,,,,,3,,,62,125
185220,note_on,15,0,4,,,,,,,,,3,,,50,125
185220,note_on,60,0,6,,,,,,,,,5,,,50,0
185260,note_on,40,0,9,,,,,,,,,8,,,74,0
185265,note_on,45,0,5,,,,,,,,,4,,,74,0
185265,note_on,0,0,4,,,,,,,,,3,,,50,0
185265,note_on,45,0,4,,,,,,,,,3,,,62,0
185265,note_on,45,0,10,,,,,,,,,10,,,62,0
185265,note_on,45,0,11,,,,,,,,,11,,,50,0
185265,note_on,0,0,5,,,,,,,,,4,,,62,0
185280,note_on,15,0,11,,,,,,,,,11,,,50,100
185280,note_on,360,0,7,,,,,,,,,6,,,90,120
185280,note_on,0,0,2,,,,,,,,,1,,,72,100
185280,note_on,360,0,2,,,,,,,,,1,,,69,100
185280,note_on,20,0,9,,,,,,,,,8,,,54,100
185280,note_on,0,0,6,,,,,,,,,5,,,50,100
185280,note_on,0,0,3,,,,,,,,,2,,,57,100
185280,note_on,15,0,10,,,,,,,,,10,,,62,100
185280,note_on,0,0,1,,,,,,,,,0,,,78,100
185280,note_on,360,0,1,,,,,,,,,0,,,81,100
185280,note_on,15,0,4,,,,,,,,,3,,,50,100
185280,note_on,0,0,4,,,,,,,,,3,,,62,100
185280,note_on,15,0,5,,,,,,,,,4,,,62,100
185280,note_on,360,0,8,,,,,,,,,7,,,57,100
185280,note_on,360,0,3,,,,,,,,,2,,,48,100
185280,note_on,0,0,5,,,,,,,,,4,,,74,100
185280,note_on,60,0,6,,,,,,,,,5,,,50,0
185320,note_on,40,0,11,,,,,,,,,11,,,50,0
185320,note_on,40,0,10,,,,,,,,,10,,,62,0
185340,note_on,20,0,11,,,,,,,,,11,,,50,100
185340,note_on,20,0,10,,,,,,,,,10,,,62,100
185380,note_on,40,0,10,,,,,,,,,10,,,62,0
185380,note_on,40,0,11,,,,,,,,,11,,,50,0
185400,note_on,20,0,10,,,,,,,,,10,,,62,100
185400,note_on,120,0,6,,,,,,,,,5,,,50,0
185400,note_on,20,0,11,,,,,,,,,11,,,50,100
185440,note_on,40,0,11,,,,,,,,,11,,,50,0
185440,note_on,40,0,10,,,,,,,,,10,,,62,0
185460,note_on,20,0,10,,,,,,,,,10,,,62,100
185460,note_on,20,0,11,,,,,,,,,11,,,50,100
185500,note_on,40,0,11,,,,,,,,,11,,,50,0
185500,note_on,40,0,10,,,,,,,,,10,,,62,0
185520,note_on,20,0,11,,,,,,,,,11,,,50,100
185520,note_on,20,0,10,,,,,,,,,10,,,62,100
185560,note_on,40,0,11,,,,,,,,,11,,,50,0
185560,note_on,40,0,10,,,,,,,,,10,,,62,0
185580,note_on,20,0,11,,,,,,,,,11,,,50,100
185580,note_on,20,0,10,,,,,,,,,10,,,62,100
185620,note_on,40,0,11,,,,,,,,,11,,,50,0
185620,note_on,40,0,10,,,,,,,,,10,,,62,0
185640,note_on,20,0,10,,,,,,,,,10,,,62,100
185640,note_on,20,0,11,,,,,,,,,11,,,50,100
185680,note_on,40,0,10,,,,,,,,,10,,,62,0
185680,note_on,40,0,11,,,,,,,,,11,,,50,0
185700,note_on,20,0,11,,,,,,,,,11,,,50,100
185700,note_on,20,0,10,,,,,,,,,10,,,62,100
185740,note_on,40,0,11,,,,,,,,,11,,,50,0
185740,note_on,40,0,10,,,,,,,,,10,,,62,0
185760,note_on,0,0,1,,,,,,,,,0,,,81,0
185760,note_on,480,0,1,,,,,,,,,0,,,78,0
185760,note_on,360,0,6,,,,,,,,,5,,,50,100
185760,note_on,480,0,4,,,,,,,,,3,,,62,0
185760,note_on,0,0,4,,,,,,,,,3,,,50,0
185760,note_on,0,0,4,,,,,,,,,3,,,50,100
185760,note_on,0,0,4,,,,,,,,,3,,,62,100
185760,note_on,0,0,3,,,,,,,,,2,,,55,100
185760,note_on,0,0,3,,,,,,,,,2,,,48,0
185760,note_on,480,0,7,,,,,,,,,6,,,90,0
185760,note_on,480,0,8,,,,,,,,,7,,,57,0
185760,note_on,0,0,8,,,,,,,,,7,,,59,100
185760,note_on,480,0,2,,,,,,,,,1,,,72,0
185760,note_on,0,0,2,,,,,,,,,1,,,67,100
185760,note_on,0,0,2,,,,,,,,,1,,,71,100
185760,note_on,0,0,2,,,,,,,,,1,,,69,0
185760,note_on,0,0,1,,,,,,,,,0,,,83,100
185760,note_on,20,0,10,,,,,,,,,10,,,62,100
185760,note_on,0,0,7,,,,,,,,,6,,,91,120
185760,note_on,480,0,3,,,,,,,,,2,,,57,0
185760,note_on,0,0,1,,,,,,,,,0,,,79,100
185760,note_on,0,0,3,,,,,,,,,2,,,47,100
185760,note_on,480,0,5,,,,,,,,,4,,,74,0
185760,note_on,0,0,5,,,,,,,,,4,,,62,100
185760,note_on,0,0,5,,,,,,,,,4,,,74,100
185760,note_on,20,0,11,,,,,,,,,11,,,50,100
185760,note_on,0,0,9,,,,,,,,,8,,,54,100
185760,note_on,480,0,9,,,,,,,,,8,,,54,0
185760,note_on,0,0,5,,,,,,,,,4,,,62,0
185800,note_on,40,0,11,,,,,,,,,11,,,50,0
185800,note_on,40,0,10,,,,,,,,,10,,,62,0
185820,note_on,20,0,10,,,,,,,,,10,,,62,100
185820,note_on,20,0,11,,,,,,,,,11,,,50,100
185840,note_on,0,0,4,,,,,,,,,3,,,50,0
185840,note_on,0,0,5,,,,,,,,,4,,,62,0
185840,note_on,80,0,5,,,,,,,,,4,,,74,0
185840,note_on,80,0,4,,,,,,,,,3,,,62,0
185860,note_on,40,0,10,,,,,,,,,10,,,62,0
185860,note_on,40,0,11,,,,,,,,,11,,,50,0
185880,note_on,0,0,2,,,,,,,,,1,,,69,110
185880,note_on,120,0,8,,,,,,,,,7,,,59,0
185880,note_on,0,0,2,,,,,,,,,1,,,66,110
185880,note_on,0,0,8,,,,,,,,,7,,,60,120
185880,note_on,20,0,11,,,,,,,,,11,,,50,100
185880,note_on,0,0,1,,,,,,,,,0,,,84,110
185880,note_on,0,0,4,,,,,,,,,3,,,62,110
185880,note_on,0,0,7,,,,,,,,,6,,,86,127
185880,note_on,0,0,9,,,,,,,,,8,,,57,120
185880,note_on,120,0,9,,,,,,,,,8,,,54,0
185880,note_on,120,0,7,,,,,,,,,6,,,91,0
185880,note_on,20,0,10,,,,,,,,,10,,,62,100
185880,note_on,40,0,4,,,,,,,,,3,,,50,110
185880,note_on,0,0,2,,,,,,,,,1,,,71,0
185880,note_on,120,0,2,,,,,,,,,1,,,67,0
185880,note_on,0,0,1,,,,,,,,,0,,,83,0
185880,note_on,0,0,3,,,,,,,,,2,,,54,110
185880,note_on,0,0,6,,,,,,,,,5,,,50,110
185880,note_on,120,0,6,,,,,,,,,5,,,50,0
185880,note_on,0,0,3,,,,,,,,,2,,,45,110
185880,note_on,0,0,3,,,,,,,,,2,,,47,0
185880,note_on,0,0,5,,,,,,,,,4,,,62,110
185880,note_on,40,0,5,,,,,,,,,4,,,74,110
185880,note_on,0,0,1,,,,,,,,,0,,,81,110
185880,note_on,120,0,1,,,,,,,,,0,,,79,0
185880,note_on,120,0,3,,,,,,,,,2,,,55,0
185920,note_on,40,0,10,,,,,,,,,10,,,62,0
185920,note_on,40,0,11,,,,,,,,,11,,,50,0
185940,note_on,20,0,11,,,,,,,,,11,,,50,100
185940,note_on,20,0,10,,,,,,,,,10,,,62,100
185980,note_on,40,0,10,,,,,,,,,10,,,62,0
185980,note_on,40,0,11,,,,,,,,,11,,,50,0
186000,note_on,20,0,11,,,,,,,,,11,,,50,100
186000,note_on,20,0,10,,,,,,,,,10,,,62,100
186000,note_on,120,0,6,,,,,,,,,5,,,50,0
186040,note_on,40,0,10,,,,,,,,,10,,,62,0
186040,note_on,40,0,11,,,,,,,,,11,,,50,0
186060,note_on,20,0,11,,,,,,,,,11,,,50,100
186060,note_on,20,0,10,,,,,,,,,10,,,62,100
186100,note_on,40,0,10,,,,,,,,,10,,,62,0
186100,note_on,40,0,11,,,,,,,,,11,,,50,0
186120,note_on,0,0,9,,,,,,,,,8,,,54,100
186120,note_on,0,0,1,,,,,,,,,0,,,84,0
186120,note_on,240,0,1,,,,,,,,,0,,,81,0
186120,note_on,240,0,2,,,,,,,,,1,,,69,0
186120,note_on,0,0,2,,,,,,,,,1,,,66,0
186120,note_on,0,0,1,,,,,,,,,0,,,78,100
186120,note_on,0,0,1,,,,,,,,,0,,,81,100
186120,note_on,240,0,7,,,,,,,,,6,,,86,0
186120,note_on,0,0,7,,,,,,,,,6,,,90,120
186120,note_on,20,0,11,,,,,,,,,11,,,50,100
186120,note_on,240,0,9,,,,,,,,,8,,,57,0
186120,note_on,0,0,2,,,,,,,,,1,,,72,100
186120,note_on,0,0,2,,,,,,,,,1,,,69,100
186120,note_on,240,0,3,,,,,,,,,2,,,54,0
186120,note_on,240,0,8,,,,,,,,,7,,,60,0
186120,note_on,0,0,8,,,,,,,,,7,,,57,100
186120,note_on,0,0,3,,,,,,,,,2,,,48,100
186120,note_on,0,0,3,,,,,,,,,2,,,57,100
186120,note_on,0,0,3,,,,,,,,,2,,,45,0
186120,note_on,20,0,10,,,,,,,,,10,,,62,100
186160,note_on,40,0,10,,,,,,,,,10,,,62,0
186160,note_on,40,0,11,,,,,,,,,11,,,50,0
186180,note_on,20,0,10,,,,,,,,,10,,,62,100
186180,note_on,20,0,11,,,,,,,,,11,,,50,100
186220,note_on,40,0,11,,,,,,,,,11,,,50,0
186220,note_on,40,0,10,,,,,,,,,10,,,62,0
186240,note_on,0,0,8,,,,,,,,,7,,,59,100
186240,note_on,0,0,1,,,,,,,,,0,,,78,0
186240,note_on,0,0,1,,,,,,,,,0,,,83,100
186240,note_on,0,0,1,,,,,,,,,0,,,79,100
186240,note_on,120,0,8,,,,,,,,,7,,,57,0
186240,note_on,0,0,4,,,,,,,,,3,,,50,0
186240,note_on,360,0,4,,,,,,,,,3,,,62,0
186240,note_on,0,0,3,,,,,,,,,2,,,57,0
186240,note_on,120,0,3,,,,,,,,,2,,,48,0
186240,note_on,120,0,1,,,,,,,,,0,,,81,0
186240,note_on,0,0,4,,,,,,,,,3,,,50,100
186240,note_on,0,0,4,,,,,,,,,3,,,62,100
186240,note_on,0,0,3,,,,,,,,,2,,,55,100
186240,note_on,0,0,3,,,,,,,,,2,,,47,100
186240,note_on,20,0,11,,,,,,,,,11,,,50,100
186240,note_on,0,0,2,,,,,,,,,1,,,72,0
186240,note_on,120,0,7,,,,,,,,,6,,,90,0
186240,note_on,0,0,7,,,,,,,,,6,,,91,120
186240,note_on,240,0,6,,,,,,,,,5,,,50,100
186240,note_on,0,0,5,,,,,,,,,4,,,74,100
186240,note_on,0,0,5,,,,,,,,,4,,,62,100
186240,note_on,0,0,5,,,,,,,,,4,,,74,0
186240,note_on,360,0,5,,,,,,,,,4,,,62,0
186240,note_on,20,0,10,,,,,,,,,10,,,62,100
186240,note_on,0,0,2,,,,,,,,,1,,,67,100
186240,note_on,120,0,2,,,,,,,,,1,,,69,0
186240,note_on,0,0,9,,,,,,,,,8,,,55,100
186240,note_on,120,0,9,,,,,,,,,8,,,54,0
186240,note_on,0,0,2,,,,,,,,,1,,,71,100
186280,note_on,40,0,11,,,,,,,,,11,,,50,0
186280,note_on,40,0,10,,,,,,,,,10,,,62,0
186300,note_on,20,0,11,,,,,,,,,11,,,50,100
186300,note_on,20,0,10,,,,,,,,,10,,,62,100
186320,note_on,0,0,4,,,,,,,,,3,,,62,0
186320,note_on,80,0,5,,,,,,,,,4,,,74,0
186320,note_on,0,0,5,,,,,,,,,4,,,62,0
186320,note_on,80,0,4,,,,,,,,,3,,,50,0
186340,note_on,40,0,11,,,,,,,,,11,,,50,0
186340,note_on,40,0,10,,,,,,,,,10,,,62,0
186360,note_on,0,0,3,,,,,,,,,2,,,54,110
186360,note_on,0,0,5,,,,,,,,,4,,,74,110
186360,note_on,40,0,5,,,,,,,,,4,,,62,110
186360,note_on,120,0,2,,,,,,,,,1,,,71,0
186360,note_on,0,0,2,,,,,,,,,1,,,67,0
186360,note_on,0,0,2,,,,,,,,,1,,,69,110
186360,note_on,0,0,3,,,,,,,,,2,,,45,110
186360,note_on,0,0,2,,,,,,,,,1,,,66,110
186360,note_on,120,0,1,,,,,,,,,0,,,79,0
186360,note_on,0,0,1,,,,,,,,,0,,,83,0
186360,note_on,0,0,1,,,,,,,,,0,,,84,110
186360,note_on,0,0,1,,,,,,,,,0,,,81,110
186360,note_on,20,0,11,,,,,,,,,11,,,50,100
186360,note_on,0,0,9,,,,,,,,,8,,,57,120
186360,note_on,0,0,3,,,,,,,,,2,,,47,0
186360,note_on,120,0,9,,,,,,,,,8,,,55,0
186360,note_on,0,0,7,,,,,,,,,6,,,86,127
186360,note_on,120,0,7,,,,,,,,,6,,,91,0
186360,note_on,120,0,3,,,,,,,,,2,,,55,0
186360,note_on,0,0,8,,,,,,,,,7,,,60,120
186360,note_on,120,0,8,,,,,,,,,7,,,59,0
186360,note_on,40,0,4,,,,,,,,,3,,,62,110
186360,note_on,0,0,4,,,,,,,,,3,,,50,110
186360,note_on,20,0,10,,,,,,,,,10,,,62,100
186360,note_on,120,0,6,,,,,,,,,5,,,50,0
186360,note_on,0,0,6,,,,,,,,,5,,,50,110
186400,note_on,40,0,10,,,,,,,,,10,,,62,0
186400,note_on,40,0,11,,,,,,,,,11,,,50,0
186420,note_on,20,0,10,,,,,,,,,10,,,62,100
186420,note_on,20,0,11,,,,,,,,,11,,,50,100
186460,note_on,40,0,11,,,,,,,,,11,,,50,0
186460,note_on,40,0,10,,,,,,,,,10,,,62,0
186480,note_on,20,0,11,,,,,,,,,11,,,50,100
186480,note_on,120,0,6,,,,,,,,,5,,,50,0
186480,note_on,20,0,10,,,,,,,,,10,,,62,100
186520,note_on,40,0,10,,,,,,,,,10,,,62,0
186520,note_on,40,0,11,,,,,,,,,11,,,50,0
186540,note_on,20,0,10,,,,,,,,,10,,,62,100
186540,note_on,20,0,11,,,,,,,,,11,,,50,100
186580,note_on,40,0,11,,,,,,,,,11,,,50,0
186580,note_on,40,0,10,,,,,,,,,10,,,62,0
186600,note_on,0,0,3,,,,,,,,,2,,,50,100
186600,note_on,0,0,2,,,,,,,,,1,,,72,100
186600,note_on,240,0,8,,,,,,,,,7,,,60,0
186600,note_on,0,0,7,,,,,,,,,6,,,90,120
186600,note_on,240,0,7,,,,,,,,,6,,,86,0
186600,note_on,0,0,3,,,,,,,,,2,,,45,0
186600,note_on,0,0,8,,,,,,,,,7,,,84,100
186600,note_on,240,0,1,,,,,,,,,0,,,81,0
186600,note_on,0,0,1,,,,,,,,,0,,,84,0
186600,note_on,0,0,2,,,,,,,,,1,,,69,0
186600,note_on,240,0,2,,,,,,,,,1,,,66,0
186600,note_on,240,0,3,,,,,,,,,2,,,54,0
186600,note_on,0,0,2,,,,,,,,,1,,,78,100
186600,note_on,20,0,10,,,,,,,,,10,,,62,100
186600,note_on,0,0,1,,,,,,,,,0,,,90,100
186600,note_on,0,0,1,,,,,,,,,0,,,84,100
186600,note_on,0,0,9,,,,,,,,,8,,,69,100
186600,note_on,240,0,9,,,,,,,,,8,,,57,0
186600,note_on,20,0,11,,,,,,,,,11,,,50,100
186640,note_on,40,0,10,,,,,,,,,10,,,62,0
186640,note_on,40,0,11,,,,,,,,,11,,,50,0
186660,note_on,20,0,11,,,,,,,,,11,,,50,100
186660,note_on,20,0,10,,,,,,,,,10,,,62,100
186700,note_on,40,0,11,,,,,,,,,11,,,50,0
186700,note_on,40,0,10,,,,,,,,,10,,,62,0
186720,note_on,0,0,4,,,,,,,,,3,,,62,0
186720,note_on,0,0,5,,,,,,,,,4,,,74,100
186720,note_on,120,0,1,,,,,,,,,0,,,84,0
186720,note_on,0,0,1,,,,,,,,,0,,,90,0
186720,note_on,0,0,1,,,,,,,,,0,,,83,100
186720,note_on,0,0,1,,,,,,,,,0,,,91,100
186720,note_on,0,0,5,,,,,,,,,4,,,62,100
186720,note_on,20,0,11,,,,,,,,,11,,,50,100
186720,note_on,360,0,4,,,,,,,,,3,,,50,0
186720,note_on,120,0,8,,,,,,,,,7,,,84,0
186720,note_on,0,0,2,,,,,,,,,1,,,78,0
186720,note_on,0,0,3,,,,,,,,,2,,,62,100
186720,note_on,0,0,5,,,,,,,,,4,,,62,0
186720,note_on,360,0,5,,,,,,,,,4,,,74,0
186720,note_on,0,0,4,,,,,,,,,3,,,62,100
186720,note_on,0,0,4,,,,,,,,,3,,,50,100
186720,note_on,120,0,9,,,,,,,,,8,,,69,0
186720,note_on,0,0,9,,,,,,,,,8,,,62,100
186720,note_on,20,0,10,,,,,,,,,10,,,62,100
186720,note_on,0,0,8,,,,,,,,,7,,,83,100
186720,note_on,0,0,2,,,,,,,,,1,,,79,100
186720,note_on,120,0,7,,,,,,,,,6,,,90,0
186720,note_on,0,0,7,,,,,,,,,6,,,91,120
186720,note_on,240,0,6,,,,,,,,,5,,,50,100
186720,note_on,120,0,2,,,,,,,,,1,,,72,0
186720,note_on,0,0,2,,,,,,,,,1,,,71,100
186720,note_on,120,0,3,,,,,,,,,2,,,50,0
186750,note_on,0,0,9,,,,,,,,,8,,,62,100
186750,note_on,30,0,9,,,,,,,,,8,,,62,0
186750,note_on,0,0,7,,,,,,,,,6,,,91,120
186750,note_on,30,0,7,,,,,,,,,6,,,91,0
186750,note_on,0,0,8,,,,,,,,,7,,,83,100
186750,note_on,30,0,8,,,,,,,,,7,,,83,0
186760,note_on,40,0,11,,,,,,,,,11,,,50,0
186760,note_on,40,0,10,,,,,,,,,10,,,62,0
186780,note_on,20,0,10,,,,,,,,,10,,,62,100
186780,note_on,30,0,9,,,,,,,,,8,,,62,0
186780,note_on,0,0,8,,,,,,,,,7,,,83,100
186780,note_on,30,0,8,,,,,,,,,7,,,83,0
186780,note_on,0,0,9,,,,,,,,,8,,,62,100
186780,note_on,20,0,11,,,,,,,,,11,,,50,100
186780,note_on,30,0,7,,,,,,,,,6,,,91,0
186780,note_on,0,0,7,,,,,,,,,6,,,91,120
186810,note_on,30,0,8,,,,,,,,,7,,,83,0
186810,note_on,30,0,7,,,,,,,,,6,,,91,0
186810,note_on,0,0,8,,,,,,,,,7,,,83,100
186810,note_on,0,0,9,,,,,,,,,8,,,62,100
186810,note_on,30,0,9,,,,,,,,,8,,,62,0
186810,note_on,0,0,7,,,,,,,,,6,,,91,120
186820,note_on,40,0,10,,,,,,,,,10,,,62,0
186820,note_on,40,0,11,,,,,,,,,11,,,50,0
186840,note_on,0,0,9,,,,,,,,,8,,,62,100
186840,note_on,0,0,6,,,,,,,,,5,,,50,100
186840,note_on,120,0,6,,,,,,,,,5,,,50,0
186840,note_on,0,0,8,,,,,,,,,7,,,82,100
186840,note_on,30,0,9,,,,,,,,,8,,,62,0
186840,note_on,30,0,8,,,,,,,,,7,,,83,0
186840,note_on,0,0,7,,,,,,,,,6,,,91,120
186840,note_on,20,0,11,,,,,,,,,11,,,50,100
186840,note_on,0,0,2,,,,,,,,,1,,,70,100
186840,note_on,120,0,1,,,,,,,,,0,,,83,0
186840,note_on,0,0,1,,,,,,,,,0,,,82,100
186840,note_on,30,0,7,,,,,,,,,6,,,91,0
186840,note_on,120,0,2,,,,,,,,,1,,,71,0
186840,note_on,20,0,10,,,,,,,,,10,,,62,100
186870,note_on,30,0,8,,,,,,,,,7,,,82,0
186870,note_on,0,0,8,,,,,,,,,7,,,82,100
186870,note_on,30,0,7,,,,,,,,,6,,,91,0
186870,note_on,0,0,9,,,,,,,,,8,,,62,100
186870,note_on,30,0,9,,,,,,,,,8,,,62,0
186870,note_on,0,0,7,,,,,,,,,6,,,91,120
186880,note_on,40,0,11,,,,,,,,,11,,,50,0
186880,note_on,40,0,10,,,,,,,,,10,,,62,0
186900,note_on,0,0,7,,,,,,,,,6,,,91,120
186900,note_on,0,0,8,,,,,,,,,7,,,82,100
186900,note_on,30,0,8,,,,,,,,,7,,,82,0
186900,note_on,30,0,7,,,,,,,,,6,,,91,0
186900,note_on,20,0,10,,,,,,,,,10,,,62,100
186900,note_on,20,0,11,,,,,,,,,11,,,50,100
186900,note_on,0,0,9,,,,,,,,,8,,,62,100
186900,note_on,30,0,9,,,,,,,,,8,,,62,0
186930,note_on,30,0,8,,,,,,,,,7,,,82,0
186930,note_on,0,0,8,,,,,,,,,7,,,82,100
186930,note_on,30,0,7,,,,,,,,,6,,,91,0
186930,note_on,0,0,7,,,,,,,,,6,,,91,120
186930,note_on,0,0,9,,,,,,,,,8,,,62,100
186930,note_on,30,0,9,,,,,,,,,8,,,62,0
186930,note_on,0,0,6,,,,,,,,,5,,,50,100
186930,note_on,90,0,6,,,,,,,,,5,,,50,0
186940,note_on,40,0,11,,,,,,,,,11,,,50,0
186940,note_on,40,0,10,,,,,,,,,10,,,62,0
186960,note_on,0,0,2,,,,,,,,,1,,,78,100
186960,note_on,0,0,9,,,,,,,,,8,,,62,100
186960,note_on,0,0,6,,,,,,,,,5,,,50,100
186960,note_on,30,0,8,,,,,,,,,7,,,82,0
186960,note_on,0,0,8,,,,,,,,,7,,,81,100
186960,note_on,20,0,11,,,,,,,,,11,,,50,100
186960,note_on,30,0,6,,,,,,,,,5,,,50,0
186960,note_on,0,0,2,,,,,,,,,1,,,69,100
186960,note_on,0,0,2,,,,,,,,,1,,,79,0
186960,note_on,120,0,2,,,,,,,,,1,,,70,0
186960,note_on,0,0,1,,,,,,,,,0,,,90,100
186960,note_on,30,0,9,,,,,,,,,8,,,62,0
186960,note_on,20,0,10,,,,,,,,,10,,,62,100
186960,note_on,30,0,7,,,,,,,,,6,,,91,0
186960,note_on,0,0,1,,,,,,,,,0,,,81,100
186960,note_on,0,0,7,,,,,,,,,6,,,90,120
186960,note_on,0,0,1,,,,,,,,,0,,,91,0
186960,note_on,120,0,1,,,,,,,,,0,,,82,0
186990,note_on,30,0,7,,,,,,,,,6,,,90,0
186990,note_on,30,0,8,,,,,,,,,7,,,81,0
186990,note_on,0,0,9,,,,,,,,,8,,,62,100
186990,note_on,0,0,8,,,,,,,,,7,,,81,100
186990,note_on,0,0,7,,,,,,,,,6,,,90,120
186990,note_on,30,0,9,,,,,,,,,8,,,62,0
187000,note_on,40,0,11,,,,,,,,,11,,,50,0
187000,note_on,40,0,10,,,,,,,,,10,,,62,0
187020,note_on,0,0,7,,,,,,,,,6,,,90,120
187020,note_on,30,0,9,,,,,,,,,8,,,62,0
187020,note_on,0,0,9,,,,,,,,,8,,,62,100
187020,note_on,30,0,8,,,,,,,,,7,,,81,0
187020,note_on,20,0,11,,,,,,,,,11,,,50,100
187020,note_on,30,0,7,,,,,,,,,6,,,90,0
187020,note_on,20,0,10,,,,,,,,,10,,,62,100
187020,note_on,0,0,8,,,,,,,,,7,,,81,100
187050,note_on,0,0,9,,,,,,,,,8,,,62,100
187050,note_on,30,0,9,,,,,,,,,8,,,62,0
187050,note_on,0,0,8,,,,,,,,,7,,,81,100
187050,note_on,30,0,8,,,,,,,,,7,,,81,0
187050,note_on,0,0,7,,,,,,,,,6,,,90,120
187050,note_on,30,0,7,,,,,,,,,6,,,90,0
187060,note_on,40,0,11,,,,,,,,,11,,,50,0
187060,note_on,40,0,10,,,,,,,,,10,,,62,0
187080,note_on,20,0,10,,,,,,,,,10,,,62,100
187080,note_on,0,0,1,,,,,,,,,0,,,81,0
187080,note_on,0,0,1,,,,,,,,,0,,,89,100
187080,note_on,120,0,2,,,,,,,,,1,,,78,0
187080,note_on,0,0,1,,,,,,,,,0,,,80,100
187080,note_on,0,0,2,,,,,,,,,1,,,69,0
187080,note_on,120,0,6,,,,,,,,,5,,,50,0
187080,note_on,0,0,9,,,,,,,,,8,,,62,100
187080,note_on,20,0,11,,,,,,,,,11,,,50,100
187080,note_on,0,0,6,,,,,,,,,5,,,50,100
187080,note_on,120,0,1,,,,,,,,,0,,,90,0
187080,note_on,30,0,7,,,,,,,,,6,,,90,0
187080,note_on,0,0,7,,,,,,,,,6,,,89,120
187080,note_on,30,0,8,,,,,,,,,7,,,81,0
187080,note_on,0,0,8,,,,,,,,,7,,,80,100
187080,note_on,0,0,2,,,,,,,,,1,,,68,100
187080,note_on,30,0,9,,,,,,,,,8,,,62,0
187080,note_on,0,0,2,,,,,,,,,1,,,77,100
187110,note_on,30,0,9,,,,,,,,,8,,,62,0
187110,note_on,30,0,7,,,,,,,,,6,,,89,0
187110,note_on,0,0,7,,,,,,,,,6,,,89,120
187110,note_on,30,0,8,,,,,,,,,7,,,80,0
187110,note_on,0,0,8,,,,,,,,,7,,,80,100
187110,note_on,0,0,9,,,,,,,,,8,,,62,100
187120,note_on,40,0,10,,,,,,,,,10,,,62,0
187120,note_on,40,0,11,,,,,,,,,11,,,50,0
187140,note_on,20,0,11,,,,,,,,,11,,,50,100
187140,note_on,30,0,8,,,,,,,,,7,,,80,0
187140,note_on,20,0,10,,,,,,,,,10,,,62,100
187140,note_on,0,0,8,,,,,,,,,7,,,80,100
187140,note_on,30,0,9,,,,,,,,,8,,,62,0
187140,note_on,0,0,7,,,,,,,,,6,,,89,120
187140,note_on,30,0,7,,,,,,,,,6,,,89,0
187140,note_on,0,0,9,,,,,,,,,8,,,62,100
187170,note_on,30,0,8,,,,,,,,,7,,,80,0
187170,note_on,30,0,9,,,,,,,,,8,,,62,0
187170,note_on,30,0,7,,,,,,,,,6,,,89,0
187170,note_on,0,0,7,,,,,,,,,6,,,89,120
187170,note_on,0,0,9,,,,,,,,,8,,,62,100
187170,note_on,0,0,8,,,,,,,,,7,,,80,100
187180,note_on,40,0,10,,,,,,,,,10,,,62,0
187180,note_on,40,0,11,,,,,,,,,11,,,50,0
187200,note_on,120,0,6,,,,,,,,,5,,,50,0
187200,note_on,0,0,8,,,,,,,,,7,,,79,100
187200,note_on,30,0,8,,,,,,,,,7,,,80,0
187200,note_on,120,0,1,,,,,,,,,0,,,89,0
187200,note_on,0,0,1,,,,,,,,,0,,,80,0
187200,note_on,0,0,1,,,,,,,,,0,,,88,100
187200,note_on,480,0,3,,,,,,,,,2,,,62,0
187200,note_on,0,0,6,,,,,,,,,5,,,50,100
187200,note_on,120,0,2,,,,,,,,,1,,,77,0
187200,note_on,0,0,2,,,,,,,,,1,,,67,100
187200,note_on,0,0,2,,,,,,,,,1,,,76,100
187200,note_on,0,0,3,,,,,,,,,2,,,59,100
187200,note_on,0,0,9,,,,,,,,,8,,,70,100
187200,note_on,30,0,9,,,,,,,,,8,,,62,0
187200,note_on,0,0,7,,,,,,,,,6,,,88,120
187200,note_on,30,0,7,,,,,,,,,6,,,89,0
187200,note_on,20,0,11,,,,,,,,,11,,,50,100
187200,note_on,20,0,10,,,,,,,,,10,,,62,100
187200,note_on,0,0,2,,,,,,,,,1,,,68,0
187200,note_on,0,0,1,,,,,,,,,0,,,79,100
187230,note_on,0,0,9,,,,,,,,,8,,,70,100
187230,note_on,30,0,9,,,,,,,,,8,,,70,0
187230,note_on,0,0,8,,,,,,,,,7,,,79,100
187230,note_on,30,0,8,,,,,,,,,7,,,79,0
187230,note_on,0,0,7,,,,,,,,,6,,,88,120
187230,note_on,30,0,7,,,,,,,,,6,,,88,0
187240,note_on,40,0,11,,,,,,,,,11,,,50,0
187240,note_on,40,0,10,,,,,,,,,10,,,62,0
187260,note_on,30,0,8,,,,,,,,,7,,,79,0
187260,note_on,0,0,8,,,,,,,,,7,,,79,100
187260,note_on,0,0,9,,,,,,,,,8,,,70,100
187260,note_on,30,0,9,,,,,,,,,8,,,70,0
187260,note_on,20,0,11,,,,,,,,,11,,,50,100
187260,note_on,0,0,7,,,,,,,,,6,,,88,120
187260,note_on,30,0,7,,,,,,,,,6,,,88,0
187260,note_on,20,0,10,,,,,,,,,10,,,62,100
187290,note_on,30,0,9,,,,,,,,,8,,,70,0
187290,note_on,30,0,8,,,,,,,,,7,,,79,0
187290,note_on,0,0,8,,,,,,,,,7,,,79,100
187290,note_on,0,0,9,,,,,,,,,8,,,70,100
187290,note_on,0,0,7,,,,,,,,,6,,,88,120
187290,note_on,30,0,7,,,,,,,,,6,,,88,0
187300,note_on,40,0,10,,,,,,,,,10,,,62,0
187300,note_on,40,0,11,,,,,,,,,11,,,50,0
187320,note_on,120,0,2,,,,,,,,,1,,,76,0
187320,note_on,30,0,7,,,,,,,,,6,,,88,0
187320,note_on,0,0,2,,,,,,,,,1,,,73,100
187320,note_on,0,0,9,,,,,,,,,8,,,70,100
187320,note_on,0,0,7,,,,,,,,,6,,,85,120
187320,note_on,120,0,6,,,,,,,,,5,,,50,0
187320,note_on,0,0,6,,,,,,,,,5,,,50,100
187320,note_on,30,0,9,,,,,,,,,8,,,70,0
187320,note_on,30,0,8,,,,,,,,,7,,,79,0
187320,note_on,20,0,10,,,,,,,,,10,,,62,100
187320,note_on,120,0,1,,,,,,,,,0,,,88,0
187320,note_on,0,0,1,,,,,,,,,0,,,85,100
187320,note_on,20,0,11,,,,,,,,,11,,,50,100
187320,note_on,0,0,8,,,,,,,,,7,,,79,100
187350,note_on,30,0,7,,,,,,,,,6,,,85,0
187350,note_on,0,0,7,,,,,,,,,6,,,85,120
187350,note_on,30,0,9,,,,,,,,,8,,,70,0
187350,note_on,0,0,8,,,,,,,,,7,,,79,100
187350,note_on,0,0,9,,,,,,,,,8,,,70,100
187350,note_on,30,0,8,,,,,,,,,7,,,79,0
187360,note_on,40,0,11,,,,,,,,,11,,,50,0
187360,note_on,40,0,10,,,,,,,,,10,,,62,0
187380,note_on,30,0,8,,,,,,,,,7,,,79,0
187380,note_on,0,0,8,,,,,,,,,7,,,79,100
187380,note_on,20,0,11,,,,,,,,,11,,,50,100
187380,note_on,20,0,10,,,,,,,,,10,,,62,100
187380,note_on,0,0,7,,,,,,,,,6,,,85,120
187380,note_on,30,0,7,,,,,,,,,6,,,85,0
187380,note_on,30,0,9,,,,,,,,,8,,,70,0
187380,note_on,0,0,9,,,,,,,,,8,,,70,100
187410,note_on,0,0,7,,,,,,,,,6,,,85,120
187410,note_on,30,0,7,,,,,,,,,6,,,85,0
187410,note_on,0,0,8,,,,,,,,,7,,,79,100
187410,note_on,30,0,8,,,,,,,,,7,,,79,0
187410,note_on,0,0,9,,,,,,,,,8,,,70,100
187410,note_on,30,0,9,,,,,,,,,8,,,70,0
187420,note_on,40,0,10,,,,,,,,,10,,,62,0
187420,note_on,40,0,11,,,,,,,,,11,,,50,0
187440,note_on,0,0,7,,,,,,,,,6,,,86,120
187440,note_on,0,0,2,,,,,,,,,1,,,67,0
187440,note_on,0,0,2,,,,,,,,,1,,,66,100
187440,note_on,0,0,2,,,,,,,,,1,,,74,100
187440,note_on,0,0,1,,,,,,,,,0,,,78,100
187440,note_on,0,0,4,,,,,,,,,3,,,50,100
187440,note_on,20,0,10,,,,,,,,,10,,,62,100
187440,note_on,0,0,4,,,,,,,,,3,,,50,0
187440,note_on,720,0,4,,,,,,,,,3,,,62,0
187440,note_on,120,0,1,,,,,,,,,0,,,85,0
187440,note_on,0,0,1,,,,,,,,,0,,,79,0
187440,note_on,0,0,4,,,,,,,,,3,,,62,100
187440,note_on,20,0,11,,,,,,,,,11,,,50,100
187440,note_on,0,0,1,,,,,,,,,0,,,86,100
187440,note_on,240,0,3,,,,,,,,,2,,,59,0
187440,note_on,0,0,8,,,,,,,,,7,,,78,100
187440,note_on,30,0,8,,,,,,,,,7,,,79,0
187440,note_on,120,0,2,,,,,,,,,1,,,73,0
187440,note_on,30,0,9,,,,,,,,,8,,,70,0
187440,note_on,30,0,7,,,,,,,,,6,,,85,0
187440,note_on,0,0,6,,,,,,,,,5,,,50,100
187440,note_on,0,0,9,,,,,,,,,8,,,69,100
187440,note_on,0,0,3,,,,,,,,,2,,,57,100
187440,note_on,120,0,6,,,,,,,,,5,,,50,0
187480,note_on,40,0,9,,,,,,,,,8,,,69,0
187480,note_on,40,0,10,,,,,,,,,10,,,62,0
187480,note_on,40,0,3,,,,,,,,,2,,,57,0
187480,note_on,40,0,11,,,,,,,,,11,,,50,0
187500,note_on,20,0,10,,,,,,,,,10,,,62,100
187500,note_on,20,0,9,,,,,,,,,8,,,69,100
187500,note_on,20,0,3,,,,,,,,,2,,,57,100
187500,note_on,20,0,11,,,,,,,,,11,,,50,100
187520,note_on,80,0,4,,,,,,,,,3,,,62,0
187520,note_on,0,0,4,,,,,,,,,3,,,50,0
187525,note_on,0,0,1,,,,,,,,,0,,,78,0
187525,note_on,85,0,1,,,,,,,,,0,,,86,0
187525,note_on,85,0,2,,,,,,,,,1,,,74,0
187525,note_on,0,0,2,,,,,,,,,1,,,66,0
187530,note_on,90,0,8,,,,,,,,,7,,,78,0
187530,note_on,90,0,7,,,,,,,,,6,,,86,0
187540,note_on,40,0,9,,,,,,,,,8,,,69,0
187540,note_on,40,0,11,,,,,,,,,11,,,50,0
187540,note_on,40,0,10,,,,,,,,,10,,,62,0
187540,note_on,40,0,3,,,,,,,,,2,,,57,0
187560,note_on,20,0,3,,,,,,,,,2,,,59,100
187560,note_on,30,0,8,,,,,,,,,7,,,74,100
187560,note_on,0,0,8,,,,,,,,,7,,,78,100
187560,note_on,0,0,7,,,,,,,,,6,,,74,120
187560,note_on,20,0,11,,,,,,,,,11,,,47,100
187560,note_on,0,0,1,,,,,,,,,0,,,86,100
187560,note_on,35,0,1,,,,,,,,,0,,,90,100
187560,note_on,20,0,10,,,,,,,,,10,,,59,100
187560,note_on,120,0,6,,,,,,,,,5,,,50,0
187560,note_on,0,0,6,,,,,,,,,5,,,50,100
187560,note_on,30,0,7,,,,,,,,,6,,,62,120
187560,note_on,0,0,4,,,,,,,,,3,,,62,100
187560,note_on,0,0,5,,,,,,,,,4,,,74,100
187560,note_on,0,0,5,,,,,,,,,4,,,78,100
187560,note_on,0,0,5,,,,,,,,,4,,,62,0
187560,note_on,840,0,5,,,,,,,,,4,,,74,0
187560,note_on,0,0,7,,,,,,,,,6,,,86,120
187560,note_on,20,0,9,,,,,,,,,8,,,71,100
187560,note_on,40,0,4,,,,,,,,,3,,,66,100
187560,note_on,35,0,2,,,,,,,,,1,,,78,100
187560,note_on,0,0,2,,,,,,,,,1,,,74,100
187600,note_on,40,0,9,,,,,,,,,8,,,71,0
187600,note_on,40,0,3,,,,,,,,,2,,,59,0
187600,note_on,40,0,11,,,,,,,,,11,,,47,0
187600,note_on,40,0,10,,,,,,,,,10,,,59,0
187620,note_on,20,0,10,,,,,,,,,10,,,59,100
187620,note_on,20,0,3,,,,,,,,,2,,,59,100
187620,note_on,20,0,11,,,,,,,,,11,,,47,100
187620,note_on,20,0,9,,,,,,,,,8,,,71,100
187640,note_on,0,0,4,,,,,,,,,3,,,66,0
187640,note_on,80,0,4,,,,,,,,,3,,,62,0
187640,note_on,80,0,5,,,,,,,,,4,,,74,0
187640,note_on,0,0,5,,,,,,,,,4,,,78,0
187645,note_on,0,0,1,,,,,,,,,0,,,90,0
187645,note_on,85,0,1,,,,,,,,,0,,,86,0
187645,note_on,85,0,2,,,,,,,,,1,,,74,0
187645,note_on,0,0,2,,,,,,,,,1,,,78,0
187650,note_on,90,0,8,,,,,,,,,7,,,78,0
187650,note_on,0,0,8,,,,,,,,,7,,,74,0
187650,note_on,90,0,7,,,,,,,,,6,,,86,0
187650,note_on,0,0,7,,,,,,,,,6,,,74,0
187650,note_on,0,0,7,,,,,,,,,6,,,62,0
187660,note_on,40,0,3,,,,,,,,,2,,,59,0
187660,note_on,40,0,11,,,,,,,,,11,,,47,0
187660,note_on,40,0,10,,,,,,,,,10,,,59,0
187660,note_on,40,0,9,,,,,,,,,8,,,71,0
187680,note_on,20,0,3,,,,,,,,,2,,,55,100
187680,note_on,35,0,2,,,,,,,,,1,,,71,100
187680,note_on,0,0,2,,,,,,,,,1,,,79,100
187680,note_on,30,0,7,,,,,,,,,6,,,83,120
187680,note_on,0,0,7,,,,,,,,,6,,,74,120
187680,note_on,40,0,4,,,,,,,,,3,,,50,100
187680,note_on,20,0,10,,,,,,,,,10,,,55,100
187680,note_on,20,0,9,,,,,,,,,8,,,67,100
187680,note_on,30,0,8,,,,,,,,,7,,,62,100
187680,note_on,35,0,1,,,,,,,,,0,,,83,100
187680,note_on,0,0,1,,,,,,,,,0,,,91,100
187680,note_on,40,0,5,,,,,,,,,4,,,62,100
187680,note_on,0,0,5,,,,,,,,,4,,,74,100
187680,note_on,0,0,7,,,,,,,,,6,,,67,120
187680,note_on,20,0,11,,,,,,,,,11,,,43,100
187680,note_on,0,0,8,,,,,,,,,7,,,71,100
187680,note_on,0,0,8,,,,,,,,,7,,,78,100
187680,note_on,0,0,6,,,,,,,,,5,,,50,100
187680,note_on,120,0,6,,,,,,,,,5,,,50,0
187680,note_on,0,0,4,,,,,,,,,3,,,62,100
187720,note_on,40,0,10,,,,,,,,,10,,,55,0
187720,note_on,40,0,9,,,,,,,,,8,,,67,0
187720,note_on,40,0,11,,,,,,,,,11,,,43,0
187720,note_on,40,0,3,,,,,,,,,2,,,55,0
187740,note_on,20,0,10,,,,,,,,,10,,,55,100
187740,note_on,20,0,9,,,,,,,,,8,,,67,100
187740,note_on,20,0,11,,,,,,,,,11,,,43,100
187740,note_on,20,0,3,,,,,,,,,2,,,55,100
187760,note_on,0,0,5,,,,,,,,,4,,,62,0
187760,note_on,80,0,4,,,,,,,,,3,,,62,0
187760,note_on,0,0,4,,,,,,,,,3,,,50,0
187760,note_on,80,0,5,,,,,,,,,4,,,74,0
187765,note_on,85,0,2,,,,,,,,,1,,,79,0
187765,note_on,0,0,2,,,,,,,,,1,,,71,0
187765,note_on,0,0,1,,,,,,,,,0,,,83,0
187765,note_on,85,0,1,,,,,,,,,0,,,91,0
187770,note_on,90,0,7,,,,,,,,,6,,,67,0
187770,note_on,0,0,7,,,,,,,,,6,,,74,0
187770,note_on,0,0,7,,,,,,,,,6,,,83,0
187780,note_on,40,0,3,,,,,,,,,2,,,55,0
187780,note_on,40,0,11,,,,,,,,,11,,,43,0
187780,note_on,40,0,9,,,,,,,,,8,,,67,0
187780,note_on,40,0,10,,,,,,,,,10,,,55,0
187800,note_on,20,0,10,,,,,,,,,10,,,55,100
187800,note_on,20,0,3,,,,,,,,,2,,,55,100
187800,note_on,0,0,8,,,,,,,,,7,,,62,0
187800,note_on,0,0,8,,,,,,,,,7,,,71,0
187800,note_on,120,0,8,,,,,,,,,7,,,78,0
187800,note_on,120,0,6,,,,,,,,,5,,,50,0
187800,note_on,20,0,11,,,,,,,,,11,,,43,100
187800,note_on,20,0,9,,,,,,,,,8,,,67,100
187840,note_on,40,0,3,,,,,,,,,2,,,55,0
187840,note_on,40,0,11,,,,,,,,,11,,,43,0
187840,note_on,40,0,10,,,,,,,,,10,,,55,0
187840,note_on,40,0,9,,,,,,,,,8,,,67,0
187860,note_on,20,0,11,,,,,,,,,11,,,43,100
187860,note_on,20,0,3,,,,,,,,,2,,,55,100
187860,note_on,20,0,10,,,,,,,,,10,,,55,100
187860,note_on,20,0,9,,,,,,,,,8,,,67,100
187900,note_on,40,0,9,,,,,,,,,8,,,67,0
187900,note_on,40,0,10,,,,,,,,,10,,,55,0
187900,note_on,40,0,11,,,,,,,,,11,,,43,0
187900,note_on,40,0,3,,,,,,,,,2,,,55,0
187920,note_on,0,0,5,,,,,,,,,4,,,69,100
187920,note_on,155,0,1,,,,,,,,,0,,,85,100
187920,note_on,0,0,1,,,,,,,,,0,,,88,100
187920,note_on,160,0,5,,,,,,,,,4,,,76,100
187920,note_on,120,0,6,,,,,,,,,5,,,45,100
187920,note_on,0,0,8,,,,,,,,,7,,,69,100
187920,note_on,0,0,8,,,,,,,,,7,,,73,100
187920,note_on,0,0,7,,,,,,,,,6,,,81,120
187920,note_on,120,0,8,,,,,,,,,7,,,76,100
187920,note_on,20,0,9,,,,,,,,,8,,,69,100
187920,note_on,0,0,7,,,,,,,,,6,,,73,120
187920,note_on,20,0,3,,,,,,,,,2,,,57,100
187920,note_on,150,0,7,,,,,,,,,6,,,64,120
187920,note_on,20,0,10,,,,,,,,,10,,,57,100
187920,note_on,160,0,4,,,,,,,,,3,,,57,100
187920,note_on,0,0,4,,,,,,,,,3,,,64,100
187920,note_on,155,0,2,,,,,,,,,1,,,73,100
187920,note_on,0,0,2,,,,,,,,,1,,,76,100
187920,note_on,20,0,11,,,,,,,,,11,,,45,100
187960,note_on,40,0,3,,,,,,,,,2,,,57,0
187960,note_on,40,0,10,,,,,,,,,10,,,57,0
187960,note_on,40,0,9,,,,,,,,,8,,,69,0
187960,note_on,40,0,11,,,,,,,,,11,,,45,0
187980,note_on,20,0,3,,,,,,,,,2,,,57,100
187980,note_on,20,0,11,,,,,,,,,11,,,45,100
187980,note_on,20,0,10,,,,,,,,,10,,,57,100
187980,note_on,20,0,9,,,,,,,,,8,,,69,100
188000,note_on,0,0,4,,,,,,,,,3,,,57,0
188000,note_on,80,0,4,,,,,,,,,3,,,64,0
188000,note_on,0,0,5,,,,,,,,,4,,,76,0
188000,note_on,80,0,5,,,,,,,,,4,,,69,0
188005,note_on,0,0,2,,,,,,,,,1,,,73,0
188005,note_on,85,0,2,,,,,,,,,1,,,76,0
188005,note_on,85,0,1,,,,,,,,,0,,,88,0
188005,note_on,0,0,1,,,,,,,,,0,,,85,0
188010,note_on,0,0,7,,,,,,,,,6,,,73,0
188010,note_on,90,0,7,,,,,,,,,6,,,81,0
188010,note_on,0,0,7,,,,,,,,,6,,,64,0
188020,note_on,40,0,10,,,,,,,,,10,,,57,0
188020,note_on,40,0,3,,,,,,,,,2,,,57,0
188020,note_on,40,0,9,,,,,,,,,8,,,69,0
188020,note_on,40,0,11,,,,,,,,,11,,,45,0
188040,note_on,20,0,9,,,,,,,,,8,,,69,100
188040,note_on,0,0,8,,,,,,,,,7,,,76,0
188040,note_on,0,0,8,,,,,,,,,7,,,73,0
188040,note_on,120,0,8,,,,,,,,,7,,,69,0
188040,note_on,20,0,11,,,,,,,,,11,,,45,100
188040,note_on,120,0,6,,,,,,,,,5,,,45,0
188040,note_on,20,0,3,,,,,,,,,2,,,57,100
188040,note_on,20,0,10,,,,,,,,,10,,,57,100
188080,note_on,40,0,3,,,,,,,,,2,,,57,0
188080,note_on,40,0,11,,,,,,,,,11,,,45,0
188080,note_on,40,0,9,,,,,,,,,8,,,69,0
188080,note_on,40,0,10,,,,,,,,,10,,,57,0
188100,note_on,20,0,10,,,,,,,,,10,,,57,100
188100,note_on,20,0,11,,,,,,,,,11,,,45,100
188100,note_on,20,0,9,,,,,,,,,8,,,69,100
188100,note_on,20,0,3,,,,,,,,,2,,,57,100
188140,note_on,40,0,3,,,,,,,,,2,,,57,0
188140,note_on,40,0,9,,,,,,,,,8,,,69,0
188140,note_on,40,0,10,,,,,,,,,10,,,57,0
188140,note_on,40,0,11,,,,,,,,,11,,,45,0
188160,note_on,20,0,9,,,,,,,,,8,,,62,100
188160,note_on,120,0,8,,,,,,,,,7,,,86,100
188160,note_on,20,0,10,,,,,,,,,10,,,50,100
188160,note_on,155,0,1,,,,,,,,,0,,,86,100
188160,note_on,0,0,4,,,,,,,,,3,,,62,100
188160,note_on,160,0,4,,,,,,,,,3,,,50,100
188160,note_on,155,0,2,,,,,,,,,1,,,74,100
188160,note_on,20,0,3,,,,,,,,,2,,,50,100
188160,note_on,0,0,5,,,,,,,,,4,,,74,100
188160,note_on,160,0,5,,,,,,,,,4,,,62,100
188160,note_on,0,0,7,,,,,,,,,6,,,74,100
188160,note_on,0,0,8,,,,,,,,,7,,,74,100
188160,note_on,120,0,6,,,,,,,,,5,,,50,100
188160,note_on,20,0,11,,,,,,,,,11,,,38,100
188160,note_on,150,0,7,,,,,,,,,6,,,86,100
188200,note_on,40,0,4,,,,,,,,,3,,,62,0
188200,note_on,40,0,5,,,,,,,,,4,,,74,0
188200,note_on,0,0,4,,,,,,,,,3,,,50,0
188200,note_on,0,0,5,,,,,,,,,4,,,62,0
188220,note_on,0,0,7,,,,,,,,,6,,,86,0
188220,note_on,0,0,7,,,,,,,,,6,,,74,101
188220,note_on,0,0,7,,,,,,,,,6,,,86,101
188220,note_on,60,0,7,,,,,,,,,6,,,74,0
188220,note_on,0,0,8,,,,,,,,,7,,,86,0
188220,note_on,0,0,8,,,,,,,,,7,,,86,101
188220,note_on,0,0,8,,,,,,,,,7,,,74,101
188220,note_on,20,0,4,,,,,,,,,3,,,50,101
188220,note_on,0,0,4,,,,,,,,,3,,,62,101
188220,note_on,20,0,5,,,,,,,,,4,,,62,101
188220,note_on,0,0,5,,,,,,,,,4,,,74,101
188220,note_on,60,0,8,,,,,,,,,7,,,74,0
188260,note_on,40,0,5,,,,,,,,,4,,,74,0
188260,note_on,40,0,4,,,,,,,,,3,,,62,0
188260,note_on,0,0,4,,,,,,,,,3,,,50,0
188260,note_on,0,0,5,,,,,,,,,4,,,62,0
188280,note_on,120,0,9,,,,,,,,,8,,,62,0
188280,note_on,20,0,5,,,,,,,,,4,,,62,103
188280,note_on,0,0,5,,,,,,,,,4,,,74,103
188280,note_on,120,0,6,,,,,,,,,5,,,50,0
188280,note_on,120,0,11,,,,,,,,,11,,,38,0
188280,note_on,120,0,3,,,,,,,,,2,,,50,0
188280,note_on,0,0,4,,,,,,,,,3,,,62,103
188280,note_on,120,0,2,,,,,,,,,1,,,74,0
188280,note_on,20,0,4,,,,,,,,,3,,,50,103
188280,note_on,120,0,1,,,,,,,,,0,,,86,0
188280,note_on,120,0,10,,,,,,,,,10,,,50,0
188280,note_on,0,0,6,,,,,,,,,5,,,50,103
188320,note_on,40,0,4,,,,,,,,,3,,,62,0
188320,note_on,0,0,5,,,,,,,,,4,,,62,0
188320,note_on,40,0,5,,,,,,,,,4,,,74,0
188320,note_on,0,0,4,,,,,,,,,3,,,50,0
188340,note_on,20,0,4,,,,,,,,,3,,,50,105
188340,note_on,0,0,4,,,,,,,,,3,,,62,105
188340,note_on,0,0,6,,,,,,,,,5,,,50,105
188340,note_on,120,0,7,,,,,,,,,6,,,74,0
188340,note_on,0,0,7,,,,,,,,,6,,,86,0
188340,note_on,0,0,7,,,,,,,,,6,,,86,105
188340,note_on,0,0,7,,,,,,,,,6,,,74,105
188340,note_on,120,0,8,,,,,,,,,7,,,74,0
188340,note_on,0,0,8,,,,,,,,,7,,,86,0
188340,note_on,0,0,8,,,,,,,,,7,,,86,105
188340,note_on,0,0,8,,,,,,,,,7,,,74,105
188340,note_on,60,0,6,,,,,,,,,5,,,50,0
188340,note_on,0,0,5,,,,,,,,,4,,,74,105
188340,note_on,20,0,5,,,,,,,,,4,,,62,105
188380,note_on,0,0,4,,,,,,,,,3,,,50,0
188380,note_on,0,0,5,,,,,,,,,4,,,62,0
188380,note_on,40,0,5,,,,,,,,,4,,,74,0
188380,note_on,40,0,4,,,,,,,,,3,,,62,0
188400,note_on,20,0,4,,,,,,,,,3,,,50,107
188400,note_on,0,0,5,,,,,,,,,4,,,74,107
188400,note_on,20,0,5,,,,,,,,,4,,,62,107
188400,note_on,0,0,4,,,,,,,,,3,,,62,107
188400,note_on,60,0,6,,,,,,,,,5,,,50,0
188400,note_on,0,0,6,,,,,,,,,5,,,50,107
188440,note_on,0,0,5,,,,,,,,,4,,,62,0
188440,note_on,0,0,4,,,,,,,,,3,,,50,0
188440,note_on,40,0,4,,,,,,,,,3,,,62,0
188440,note_on,40,0,5,,,,,,,,,4,,,74,0
188460,note_on,120,0,7,,,,,,,,,6,,,74,0
188460,note_on,0,0,7,,,,,,,,,6,,,86,0
188460,note_on,0,0,7,,,,,,,,,6,,,86,109
188460,note_on,0,0,7,,,,,,,,,6,,,74,109
188460,note_on,0,0,8,,,,,,,,,7,,,86,0
188460,note_on,0,0,6,,,,,,,,,5,,,50,109
188460,note_on,60,0,6,,,,,,,,,5,,,50,0
188460,note_on,120,0,8,,,,,,,,,7,,,74,0
188460,note_on,0,0,8,,,,,,,,,7,,,74,109
188460,note_on,20,0,5,,,,,,,,,4,,,62,109
188460,note_on,0,0,5,,,,,,,,,4,,,74,109
188460,note_on,20,0,4,,,,,,,,,3,,,50,109
188460,note_on,0,0,4,,,,,,,,,3,,,62,109
188460,note_on,0,0,8,,,,,,,,,7,,,86,109
188500,note_on,40,0,5,,,,,,,,,4,,,74,0
188500,note_on,0,0,5,,,,,,,,,4,,,62,0
188500,note_on,40,0,4,,,,,,,,,3,,,62,0
188500,note_on,0,0,4,,,,,,,,,3,,,50,0
188520,note_on,20,0,5,,,,,,,,,4,,,62,111
188520,note_on,0,0,5,,,,,,,,,4,,,74,111
188520,note_on,20,0,4,,,,,,,,,3,,,50,111
188520,note_on,0,0,6,,,,,,,,,5,,,50,111
188520,note_on,60,0,6,,,,,,,,,5,,,50,0
188520,note_on,0,0,4,,,,,,,,,3,,,62,111
188560,note_on,0,0,5,,,,,,,,,4,,,62,0
188560,note_on,40,0,5,,,,,,,,,4,,,74,0
188560,note_on,40,0,4,,,,,,,,,3,,,62,0
188560,note_on,0,0,4,,,,,,,,,3,,,50,0
188580,note_on,0,0,8,,,,,,,,,7,,,74,113
188580,note_on,120,0,8,,,,,,,,,7,,,74,0
188580,note_on,0,0,8,,,,,,,,,7,,,86,0
188580,note_on,0,0,8,,,,,,,,,7,,,86,113
188580,note_on,120,0,7,,,,,,,,,6,,,74,0
188580,note_on,0,0,7,,,,,,,,,6,,,86,113
188580,note_on,20,0,4,,,,,,,,,3,,,50,113
188580,note_on,60,0,6,,,,,,,,,5,,,50,0
188580,note_on,0,0,7,,,,,,,,,6,,,86,0
188580,note_on,20,0,5,,,,,,,,,4,,,62,113
188580,note_on,0,0,5,,,,,,,,,4,,,74,113
188580,note_on,0,0,7,,,,,,,,,6,,,74,113
188580,note_on,0,0,4,,,,,,,,,3,,,62,113
188580,note_on,0,0,6,,,,,,,,,5,,,50,113
188620,note_on,40,0,4,,,,,,,,,3,,,62,0
188620,note_on,0,0,4,,,,,,,,,3,,,50,0
188620,note_on,40,0,5,,,,,,,,,4,,,74,0
188620,note_on,0,0,5,,,,,,,,,4,,,62,0
188640,note_on,20,0,4,,,,,,,,,3,,,50,115
188640,note_on,360,0,9,,,,,,,,,8,,,60,115
188640,note_on,0,0,4,,,,,,,,,3,,,62,115
188640,note_on,360,0,1,,,,,,,,,0,,,81,115
188640,note_on,0,0,1,,,,,,,,,0,,,78,115
188640,note_on,360,0,10,,,,,,,,,10,,,60,115
188640,note_on,20,0,5,,,,,,,,,4,,,62,115
188640,note_on,0,0,7,,,,,,,,,6,,,74,115
188640,note_on,0,0,7,,,,,,,,,6,,,86,115
188640,note_on,60,0,7,,,,,,,,,6,,,86,0
188640,note_on,0,0,8,,,,,,,,,7,,,74,0
188640,note_on,360,0,3,,,,,,,,,2,,,60,115
188640,note_on,0,0,8,,,,,,,,,7,,,74,115
188640,note_on,0,0,8,,,,,,,,,7,,,86,115
188640,note_on,0,0,7,,,,,,,,,6,,,74,0
188640,note_on,360,0,2,,,,,,,,,1,,,66,115
188640,note_on,60,0,8,,,,,,,,,7,,,86,0
188640,note_on,0,0,5,,,,,,,,,4,,,74,115
188640,note_on,0,0,6,,,,,,,,,5,,,50,115
188640,note_on,0,0,2,,,,,,,,,1,,,69,115
188640,note_on,360,0,11,,,,,,,,,11,,,48,115
188640,note_on,60,0,6,,,,,,,,,5,,,50,0
188670,note_on,0,0,8,,,,,,,,,7,,,74,115
188670,note_on,0,0,8,,,,,,,,,7,,,86,115
188670,note_on,0,0,8,,,,,,,,,7,,,86,0
188670,note_on,30,0,7,,,,,,,,,6,,,74,0
188670,note_on,30,0,8,,,,,,,,,7,,,74,0
188670,note_on,0,0,7,,,,,,,,,6,,,86,115
188670,note_on,0,0,7,,,,,,,,,6,,,74,115
188670,note_on,0,0,7,,,,,,,,,6,,,86,0
188700,note_on,0,0,7,,,,,,,,,6,,,74,115
188700,note_on,0,0,8,,,,,,,,,7,,,74,115
188700,note_on,30,0,7,,,,,,,,,6,,,74,0
188700,note_on,30,0,8,,,,,,,,,7,,,74,0
188700,note_on,0,0,8,,,,,,,,,7,,,86,0
188700,note_on,0,0,8,,,,,,,,,7,,,86,115
188700,note_on,0,0,7,,,,,,,,,6,,,86,0
188700,note_on,0,0,7,,,,,,,,,6,,,86,115
188730,note_on,0,0,8,,,,,,,,,7,,,74,115
188730,note_on,30,0,8,,,,,,,,,7,,,74,0
188730,note_on,0,0,8,,,,,,,,,7,,,86,0
188730,note_on,0,0,8,,,,,,,,,7,,,86,115
188730,note_on,0,0,7,,,,,,,,,6,,,86,115
188730,note_on,30,0,7,,,,,,,,,6,,,74,0
188730,note_on,0,0,7,,,,,,,,,6,,,86,0
188730,note_on,0,0,7,,,,,,,,,6,,,74,115
188760,note_on,30,0,8,,,,,,,,,7,,,74,0
188760,note_on,0,0,8,,,,,,,,,7,,,86,0
188760,note_on,0,0,8,,,,,,,,,7,,,86,115
188760,note_on,0,0,8,,,,,,,,,7,,,74,115
188760,note_on,30,0,7,,,,,,,,,6,,,74,0
188760,note_on,0,0,7,,,,,,,,,6,,,86,0
188760,note_on,120,0,6,,,,,,,,,5,,,50,0
188760,note_on,0,0,7,,,,,,,,,6,,,74,115
188760,note_on,0,0,7,,,,,,,,,6,,,86,115
188790,note_on,30,0,7,,,,,,,,,6,,,74,0
188790,note_on,0,0,8,,,,,,,,,7,,,86,0
188790,note_on,0,0,8,,,,,,,,,7,,,86,114
188790,note_on,0,0,7,,,,,,,,,6,,,74,114
188790,note_on,0,0,8,,,,,,,,,7,,,74,114
188790,note_on,30,0,8,,,,,,,,,7,,,74,0
188790,note_on,0,0,7,,,,,,,,,6,,,86,0
188790,note_on,0,0,7,,,,,,,,,6,,,86,114
188820,note_on,0,0,8,,,,,,,,,7,,,86,0
188820,note_on,0,0,8,,,,,,,,,7,,,86,114
188820,note_on,30,0,8,,,,,,,,,7,,,74,0
188820,note_on,30,0,7,,,,,,,,,6,,,74,0
188820,note_on,0,0,7,,,,,,,,,6,,,86,0
188820,note_on,0,0,7,,,,,,,,,6,,,86,114
188820,note_on,0,0,7,,,,,,,,,6,,,74,114
188820,note_on,0,0,8,,,,,,,,,7,,,74,114
188850,note_on,0,0,8,,,,,,,,,7,,,74,114
188850,note_on,30,0,8,,,,,,,,,7,,,74,0
188850,note_on,0,0,8,,,,,,,,,7,,,86,0
188850,note_on,30,0,7,,,,,,,,,6,,,74,0
188850,note_on,0,0,7,,,,,,,,,6,,,86,0
188850,note_on,0,0,7,,,,,,,,,6,,,86,114
188850,note_on,0,0,7,,,,,,,,,6,,,74,114
188850,note_on,0,0,8,,,,,,,,,7,,,86,114
188880,note_on,30,0,7,,,,,,,,,6,,,74,0
188880,note_on,0,0,7,,,,,,,,,6,,,86,0
188880,note_on,0,0,8,,,,,,,,,7,,,86,0
188880,note_on,0,0,7,,,,,,,,,6,,,74,114
188880,note_on,0,0,8,,,,,,,,,7,,,74,114
188880,note_on,30,0,8,,,,,,,,,7,,,74,0
188880,note_on,0,0,8,,,,,,,,,7,,,86,114
188880,note_on,0,0,7,,,,,,,,,6,,,86,114
188910,note_on,0,0,8,,,,,,,,,7,,,86,113
188910,note_on,0,0,8,,,,,,,,,7,,,86,0
188910,note_on,30,0,8,,,,,,,,,7,,,74,0
188910,note_on,0,0,8,,,,,,,,,7,,,74,113
188910,note_on,0,0,7,,,,,,,,,6,,,86,113
188910,note_on,30,0,7,,,,,,,,,6,,,74,0
188910,note_on,0,0,7,,,,,,,,,6,,,86,0
188910,note_on,0,0,7,,,,,,,,,6,,,74,113
188940,note_on,0,0,7,,,,,,,,,6,,,86,113
188940,note_on,0,0,7,,,,,,,,,6,,,74,113
188940,note_on,0,0,8,,,,,,,,,7,,,74,113
188940,note_on,0,0,8,,,,,,,,,7,,,86,113
188940,note_on,0,0,8,,,,,,,,,7,,,86,0
188940,note_on,30,0,8,,,,,,,,,7,,,74,0
188940,note_on,0,0,7,,,,,,,,,6,,,86,0
188940,note_on,30,0,7,,,,,,,,,6,,,74,0
188970,note_on,0,0,7,,,,,,,,,6,,,86,113
188970,note_on,0,0,7,,,,,,,,,6,,,74,113
188970,note_on,0,0,8,,,,,,,,,7,,,86,113
188970,note_on,0,0,8,,,,,,,,,7,,,86,0
188970,note_on,0,0,7,,,,,,,,,6,,,86,0
188970,note_on,0,0,8,,,,,,,,,7,,,74,113
188970,note_on,30,0,7,,,,,,,,,6,,,74,0
188970,note_on,30,0,8,,,,,,,,,7,,,74,0
189000,note_on,30,0,7,,,,,,,,,6,,,74,0
189000,note_on,0,0,7,,,,,,,,,6,,,86,0
189000,note_on,0,0,7,,,,,,,,,6,,,86,113
189000,note_on,0,0,7,,,,,,,,,6,,,74,113
189000,note_on,0,0,8,,,,,,,,,7,,,86,113
189000,note_on,0,0,8,,,,,,,,,7,,,74,113
189000,note_on,0,0,8,,,,,,,,,7,,,86,0
189000,note_on,30,0,8,,,,,,,,,7,,,74,0
189030,note_on,0,0,7,,,,,,,,,6,,,86,0
189030,note_on,30,0,7,,,,,,,,,6,,,74,0
189030,note_on,0,0,8,,,,,,,,,7,,,74,112
189030,note_on,0,0,8,,,,,,,,,7,,,86,112
189030,note_on,0,0,8,,,,,,,,,7,,,86,0
189030,note_on,30,0,8,,,,,,,,,7,,,74,0
189030,note_on,0,0,7,,,,,,,,,6,,,74,112
189030,note_on,0,0,7,,,,,,,,,6,,,86,112
189060,note_on,30,0,8,,,,,,,,,7,,,74,0
189060,note_on,0,0,8,,,,,,,,,7,,,74,112
189060,note_on,0,0,8,,,,,,,,,7,,,86,112
189060,note_on,0,0,7,,,,,,,,,6,,,74,112
189060,note_on,0,0,7,,,,,,,,,6,,,86,0
189060,note_on,30,0,7,,,,,,,,,6,,,74,0
189060,note_on,0,0,8,,,,,,,,,7,,,86,0
189060,note_on,0,0,7,,,,,,,,,6,,,86,112
189090,note_on,30,0,7,,,,,,,,,6,,,74,0
189090,note_on,0,0,7,,,,,,,,,6,,,86,0
189090,note_on,0,0,7,,,,,,,,,6,,,86,112
189090,note_on,30,0,8,,,,,,,,,7,,,74,0
189090,note_on,0,0,8,,,,,,,,,7,,,86,112
189090,note_on,0,0,8,,,,,,,,,7,,,74,112
189090,note_on,0,0,7,,,,,,,,,6,,,74,112
189090,note_on,0,0,8,,,,,,,,,7,,,86,0
189120,note_on,0,0,4,,,,,,,,,3,,,62,112
189120,note_on,0,0,2,,,,,,,,,1,,,67,112
189120,note_on,0,0,2,,,,,,,,,1,,,71,112
189120,note_on,480,0,9,,,,,,,,,8,,,60,0
189120,note_on,0,0,2,,,,,,,,,1,,,66,0
189120,note_on,0,0,7,,,,,,,,,6,,,74,112
189120,note_on,0,0,4,,,,,,,,,3,,,50,0
189120,note_on,480,0,4,,,,,,,,,3,,,62,0
189120,note_on,30,0,8,,,,,,,,,7,,,74,0
189120,note_on,0,0,8,,,,,,,,,7,,,86,0
189120,note_on,0,0,8,,,,,,,,,7,,,86,112
189120,note_on,0,0,8,,,,,,,,,7,,,74,112
189120,note_on,0,0,9,,,,,,,,,8,,,59,112
189120,note_on,0,0,4,,,,,,,,,3,,,50,112
189120,note_on,480,0,10,,,,,,,,,10,,,60,0
189120,note_on,480,0,5,,,,,,,,,4,,,74,0
189120,note_on,360,0,6,,,,,,,,,5,,,50,112
189120,note_on,480,0,1,,,,,,,,,0,,,78,0
189120,note_on,0,0,1,,,,,,,,,0,,,81,0
189120,note_on,0,0,7,,,,,,,,,6,,,86,0
189120,note_on,0,0,1,,,,,,,,,0,,,83,112
189120,note_on,0,0,5,,,,,,,,,4,,,74,112
189120,note_on,0,0,3,,,,,,,,,2,,,59,112
189120,note_on,0,0,1,,,,,,,,,0,,,79,112
189120,note_on,480,0,11,,,,,,,,,11,,,48,0
189120,note_on,0,0,11,,,,,,,,,11,,,47,112
189120,note_on,0,0,5,,,,,,,,,4,,,62,0
189120,note_on,0,0,5,,,,,,,,,4,,,62,112
189120,note_on,30,0,7,,,,,,,,,6,,,74,0
189120,note_on,480,0,2,,,,,,,,,1,,,69,0
189120,note_on,0,0,10,,,,,,,,,10,,,59,112
189120,note_on,480,0,3,,,,,,,,,2,,,60,0
189120,note_on,0,0,7,,,,,,,,,6,,,86,112
189150,note_on,0,0,8,,,,,,,,,7,,,74,112
189150,note_on,30,0,8,,,,,,,,,7,,,74,0
189150,note_on,0,0,8,,,,,,,,,7,,,86,0
189150,note_on,0,0,8,,,,,,,,,7,,,86,112
189150,note_on,30,0,7,,,,,,,,,6,,,74,0
189150,note_on,0,0,7,,,,,,,,,6,,,74,112
189150,note_on,0,0,7,,,,,,,,,6,,,86,0
189150,note_on,0,0,7,,,,,,,,,6,,,86,112
189180,note_on,0,0,8,,,,,,,,,7,,,86,111
189180,note_on,0,0,8,,,,,,,,,7,,,74,111
189180,note_on,60,0,9,,,,,,,,,8,,,59,0
189180,note_on,0,0,7,,,,,,,,,6,,,74,111
189180,note_on,0,0,7,,,,,,,,,6,,,86,111
189180,note_on,0,0,7,,,,,,,,,6,,,86,0
189180,note_on,30,0,7,,,,,,,,,6,,,74,0
189180,note_on,0,0,8,,,,,,,,,7,,,86,0
189180,note_on,0,0,11,,,,,,,,,11,,,43,111
189180,note_on,60,0,10,,,,,,,,,10,,,59,0
189180,note_on,0,0,10,,,,,,,,,10,,,55,111
189180,note_on,0,0,3,,,,,,,,,2,,,55,111
189180,note_on,60,0,3,,,,,,,,,2,,,59,0
189180,note_on,0,0,9,,,,,,,,,8,,,55,111
189180,note_on,60,0,11,,,,,,,,,11,,,47,0
189180,note_on,30,0,8,,,,,,,,,7,,,74,0
189210,note_on,0,0,7,,,,,,,,,6,,,86,111
189210,note_on,0,0,7,,,,,,,,,6,,,86,0
189210,note_on,30,0,7,,,,,,,,,6,,,74,0
189210,note_on,90,0,4,,,,,,,,,3,,,62,0
189210,note_on,0,0,7,,,,,,,,,6,,,74,111
189210,note_on,30,0,8,,,,,,,,,7,,,74,0
189210,note_on,0,0,8,,,,,,,,,7,,,86,0
189210,note_on,0,0,8,,,,,,,,,7,,,86,111
189210,note_on,0,0,8,,,,,,,,,7,,,74,111
189210,note_on,90,0,5,,,,,,,,,4,,,74,0
189210,note_on,0,0,5,,,,,,,,,4,,,62,0
189210,note_on,0,0,4,,,,,,,,,3,,,50,0
189240,note_on,0,0,3,,,,,,,,,2,,,54,111
189240,note_on,30,0,7,,,,,,,,,6,,,74,0
189240,note_on,0,0,7,,,,,,,,,6,,,86,0
189240,note_on,0,0,7,,,,,,,,,6,,,86,111
189240,note_on,0,0,7,,,,,,,,,6,,,74,111
189240,note_on,60,0,3,,,,,,,,,2,,,55,0
189240,note_on,60,0,10,,,,,,,,,10,,,55,0
189240,note_on,30,0,5,,,,,,,,,4,,,62,111
189240,note_on,30,0,4,,,,,,,,,3,,,50,111
189240,note_on,0,0,10,,,,,,,,,10,,,54,111
189240,note_on,0,0,5,,,,,,,,,4,,,74,111
189240,note_on,0,0,9,,,,,,,,,8,,,54,111
189240,note_on,60,0,9,,,,,,,,,8,,,55,0
189240,note_on,0,0,8,,,,,,,,,7,,,74,111
189240,note_on,0,0,8,,,,,,,,,7,,,86,111
189240,note_on,0,0,8,,,,,,,,,7,,,86,0
189240,note_on,30,0,8,,,,,,,,,7,,,74,0
189240,note_on,0,0,2,,,,,,,,,1,,,69,111
189240,note_on,0,0,2,,,,,,,,,1,,,72,111
189240,note_on,0,0,4,,,,,,,,,3,,,62,111
189240,note_on,120,0,2,,,,,,,,,1,,,67,0
189240,note_on,0,0,11,,,,,,,,,11,,,42,111
189240,note_on,60,0,11,,,,,,,,,11,,,43,0
189240,note_on,120,0,1,,,,,,,,,0,,,79,0
189240,note_on,0,0,2,,,,,,,,,1,,,71,0
189240,note_on,0,0,6,,,,,,,,,5,,,50,111
189240,note_on,120,0,6,,,,,,,,,5,,,50,0
189240,note_on,0,0,1,,,,,,,,,0,,,83,0
189240,note_on,0,0,1,,,,,,,,,0,,,81,111
189240,note_on,0,0,1,,,,,,,,,0,,,84,111
189270,note_on,30,0,7,,,,,,,,,6,,,74,0
189270,note_on,0,0,8,,,,,,,,,7,,,74,111
189270,note_on,0,0,8,,,,,,,,,7,,,86,111
189270,note_on,0,0,8,,,,,,,,,7,,,86,0
189270,note_on,30,0,8,,,,,,,,,7,,,74,0
189270,note_on,0,0,7,,,,,,,,,6,,,74,111
189270,note_on,0,0,7,,,,,,,,,6,,,86,111
189270,note_on,0,0,7,,,,,,,,,6,,,86,0
189300,note_on,0,0,7,,,,,,,,,6,,,86,110
189300,note_on,0,0,7,,,,,,,,,6,,,86,0
189300,note_on,30,0,7,,,,,,,,,6,,,74,0
189300,note_on,30,0,8,,,,,,,,,7,,,74,0
189300,note_on,0,0,8,,,,,,,,,7,,,86,0
189300,note_on,0,0,8,,,,,,,,,7,,,86,110
189300,note_on,0,0,8,,,,,,,,,7,,,74,110
189300,note_on,0,0,7,,,,,,,,,6,,,74,110
189330,note_on,0,0,8,,,,,,,,,7,,,86,110
189330,note_on,0,0,8,,,,,,,,,7,,,74,110
189330,note_on,0,0,8,,,,,,,,,7,,,86,0
189330,note_on,30,0,8,,,,,,,,,7,,,74,0
189330,note_on,30,0,7,,,,,,,,,6,,,74,0
189330,note_on,0,0,7,,,,,,,,,6,,,86,0
189330,note_on,0,0,7,,,,,,,,,6,,,86,110
189330,note_on,0,0,7,,,,,,,,,6,,,74,110
189360,note_on,0,0,7,,,,,,,,,6,,,74,110
189360,note_on,0,0,8,,,,,,,,,7,,,86,110
189360,note_on,0,0,8,,,,,,,,,7,,,86,0
189360,note_on,30,0,8,,,,,,,,,7,,,74,0
189360,note_on,0,0,8,,,,,,,,,7,,,74,110
189360,note_on,0,0,7,,,,,,,,,6,,,86,0
189360,note_on,30,0,7,,,,,,,,,6,,,74,0
189360,note_on,0,0,7,,,,,,,,,6,,,86,110
189360,note_on,120,0,6,,,,,,,,,5,,,50,0
189390,note_on,30,0,8,,,,,,,,,7,,,74,0
189390,note_on,0,0,7,,,,,,,,,6,,,74,110
189390,note_on,0,0,7,,,,,,,,,6,,,86,110
189390,note_on,0,0,7,,,,,,,,,6,,,86,0
189390,note_on,0,0,8,,,,,,,,,7,,,74,110
189390,note_on,0,0,8,,,,,,,,,7,,,86,110
189390,note_on,30,0,7,,,,,,,,,6,,,74,0
189390,note_on,0,0,8,,,,,,,,,7,,,86,0
189420,note_on,0,0,8,,,,,,,,,7,,,74,109
189420,note_on,0,0,8,,,,,,,,,7,,,86,109
189420,note_on,0,0,8,,,,,,,,,7,,,86,0
189420,note_on,30,0,8,,,,,,,,,7,,,74,0
189420,note_on,0,0,7,,,,,,,,,6,,,86,109
189420,note_on,0,0,7,,,,,,,,,6,,,86,0
189420,note_on,0,0,7,,,,,,,,,6,,,74,109
189420,note_on,30,0,7,,,,,,,,,6,,,74,0
189450,note_on,0,0,7,,,,,,,,,6,,,86,109
189450,note_on,0,0,8,,,,,,,,,7,,,74,109
189450,note_on,0,0,7,,,,,,,,,6,,,74,109
189450,note_on,0,0,7,,,,,,,,,6,,,86,0
189450,note_on,0,0,8,,,,,,,,,7,,,86,109
189450,note_on,30,0,8,,,,,,,,,7,,,74,0
189450,note_on,30,0,7,,,,,,,,,6,,,74,0
189450,note_on,0,0,8,,,,,,,,,7,,,86,0
189480,note_on,0,0,7,,,,,,,,,6,,,86,0
189480,note_on,0,0,8,,,,,,,,,7,,,74,109
189480,note_on,240,0,10,,,,,,,,,10,,,54,0
189480,note_on,0,0,10,,,,,,,,,10,,,60,109
189480,note_on,0,0,8,,,,,,,,,7,,,86,109
189480,note_on,240,0,9,,,,,,,,,8,,,54,0
189480,note_on,0,0,8,,,,,,,,,7,,,86,0
189480,note_on,30,0,8,,,,,,,,,7,,,74,0
189480,note_on,0,0,9,,,,,,,,,8,,,60,109
189480,note_on,0,0,7,,,,,,,,,6,,,86,109
189480,note_on,240,0,1,,,,,,,,,0,,,81,0
189480,note_on,0,0,2,,,,,,,,,1,,,72,0
189480,note_on,240,0,2,,,,,,,,,1,,,69,0
189480,note_on,30,0,7,,,,,,,,,6,,,74,0
189480,note_on,240,0,3,,,,,,,,,2,,,54,0
189480,note_on,0,0,3,,,,,,,,,2,,,60,109
189480,note_on,0,0,1,,,,,,,,,0,,,81,109
189480,note_on,0,0,1,,,,,,,,,0,,,78,109
189480,note_on,0,0,1,,,,,,,,,0,,,84,0
189480,note_on,0,0,11,,,,,,,,,11,,,48,109
189480,note_on,240,0,11,,,,,,,,,11,,,42,0
189480,note_on,0,0,7,,,,,,,,,6,,,74,109
189480,note_on,0,0,2,,,,,,,,,1,,,69,109
189480,note_on,0,0,2,,,,,,,,,1,,,66,109
189510,note_on,0,0,7,,,,,,,,,6,,,74,109
189510,note_on,0,0,7,,,,,,,,,6,,,86,109
189510,note_on,0,0,8,,,,,,,,,7,,,86,109
189510,note_on,0,0,8,,,,,,,,,7,,,86,0
189510,note_on,30,0,8,,,,,,,,,7,,,74,0
189510,note_on,0,0,7,,,,,,,,,6,,,86,0
189510,note_on,30,0,7,,,,,,,,,6,,,74,0
189510,note_on,0,0,8,,,,,,,,,7,,,74,109
189540,note_on,0,0,8,,,,,,,,,7,,,86,0
189540,note_on,0,0,8,,,,,,,,,7,,,86,108
189540,note_on,0,0,8,,,,,,,,,7,,,74,108
189540,note_on,0,0,7,,,,,,,,,6,,,74,108
189540,note_on,0,0,7,,,,,,,,,6,,,86,108
189540,note_on,0,0,7,,,,,,,,,6,,,86,0
189540,note_on,30,0,7,,,,,,,,,6,,,74,0
189540,note_on,30,0,8,,,,,,,,,7,,,74,0
189570,note_on,0,0,8,,,,,,,,,7,,,86,0
189570,note_on,0,0,7,,,,,,,,,6,,,74,108
189570,note_on,0,0,7,,,,,,,,,6,,,86,108
189570,note_on,0,0,7,,,,,,,,,6,,,86,0
189570,note_on,30,0,7,,,,,,,,,6,,,74,0
189570,note_on,0,0,8,,,,,,,,,7,,,74,108
189570,note_on,0,0,8,,,,,,,,,7,,,86,108
189570,note_on,30,0,8,,,,,,,,,7,,,74,0
189600,note_on,0,0,5,,,,,,,,,4,,,62,0
189600,note_on,360,0,5,,,,,,,,,4,,,74,0
189600,note_on,0,0,7,,,,,,,,,6,,,74,108
189600,note_on,0,0,7,,,,,,,,,6,,,86,0
189600,note_on,30,0,7,,,,,,,,,6,,,74,0
189600,note_on,0,0,11,,,,,,,,,11,,,47,108
189600,note_on,120,0,11,,,,,,,,,11,,,48,0
189600,note_on,120,0,1,,,,,,,,,0,,,81,0
189600,note_on,120,0,3,,,,,,,,,2,,,60,0
189600,note_on,0,0,1,,,,,,,,,0,,,78,0
189600,note_on,0,0,1,,,,,,,,,0,,,83,108
189600,note_on,0,0,1,,,,,,,,,0,,,79,108
189600,note_on,240,0,6,,,,,,,,,5,,,50,108
189600,note_on,0,0,5,,,,,,,,,4,,,62,108
189600,note_on,0,0,4,,,,,,,,,3,,,50,108
189600,note_on,0,0,4,,,,,,,,,3,,,62,108
189600,note_on,0,0,10,,,,,,,,,10,,,59,108
189600,note_on,120,0,10,,,,,,,,,10,,,60,0
189600,note_on,0,0,4,,,,,,,,,3,,,50,0
189600,note_on,0,0,3,,,,,,,,,2,,,59,108
189600,note_on,360,0,4,,,,,,,,,3,,,62,0
189600,note_on,0,0,5,,,,,,,,,4,,,74,108
189600,note_on,0,0,7,,,,,,,,,6,,,86,108
189600,note_on,0,0,2,,,,,,,,,1,,,71,108
189600,note_on,0,0,8,,,,,,,,,7,,,86,0
189600,note_on,30,0,8,,,,,,,,,7,,,74,0
189600,note_on,120,0,2,,,,,,,,,1,,,69,0
189600,note_on,0,0,2,,,,,,,,,1,,,66,0
189600,note_on,0,0,8,,,,,,,,,7,,,74,108
189600,note_on,0,0,2,,,,,,,,,1,,,67,108
189600,note_on,120,0,9,,,,,,,,,8,,,60,0
189600,note_on,0,0,8,,,,,,,,,7,,,86,108
189600,note_on,0,0,9,,,,,,,,,8,,,59,108
189630,note_on,30,0,7,,,,,,,,,6,,,74,0
189630,note_on,0,0,7,,,,,,,,,6,,,86,0
189630,note_on,0,0,7,,,,,,,,,6,,,86,108
189630,note_on,0,0,7,,,,,,,,,6,,,74,108
189630,note_on,0,0,8,,,,,,,,,7,,,74,108
189630,note_on,0,0,8,,,,,,,,,7,,,86,108
189630,note_on,0,0,8,,,,,,,,,7,,,86,0
189630,note_on,30,0,8,,,,,,,,,7,,,74,0
189660,note_on,60,0,9,,,,,,,,,8,,,59,0
189660,note_on,30,0,7,,,,,,,,,6,,,74,0
189660,note_on,0,0,7,,,,,,,,,6,,,86,0
189660,note_on,0,0,3,,,,,,,,,2,,,55,108
189660,note_on,0,0,10,,,,,,,,,10,,,55,108
189660,note_on,60,0,10,,,,,,,,,10,,,59,0
189660,note_on,60,0,3,,,,,,,,,2,,,59,0
189660,note_on,0,0,8,,,,,,,,,7,,,74,108
189660,note_on,0,0,8,,,,,,,,,7,,,86,108
189660,note_on,0,0,8,,,,,,,,,7,,,86,0
189660,note_on,60,0,11,,,,,,,,,11,,,47,0
189660,note_on,0,0,11,,,,,,,,,11,,,43,108
189660,note_on,30,0,8,,,,,,,,,7,,,74,0
189660,note_on,0,0,7,,,,,,,,,6,,,86,108
189660,note_on,0,0,7,,,,,,,,,6,,,74,108
189660,note_on,0,0,9,,,,,,,,,8,,,55,108
189690,note_on,0,0,7,,,,,,,,,6,,,86,0
189690,note_on,0,0,5,,,,,,,,,4,,,62,0
189690,note_on,90,0,5,,,,,,,,,4,,,74,0
189690,note_on,0,0,4,,,,,,,,,3,,,62,0
189690,note_on,0,0,8,,,,,,,,,7,,,86,0
189690,note_on,30,0,8,,,,,,,,,7,,,74,0
189690,note_on,0,0,8,,,,,,,,,7,,,86,107
189690,note_on,0,0,8,,,,,,,,,7,,,74,107
189690,note_on,90,0,4,,,,,,,,,3,,,50,0
189690,note_on,30,0,7,,,,,,,,,6,,,74,0
189690,note_on,0,0,7,,,,,,,,,6,,,86,107
189690,note_on,0,0,7,,,,,,,,,6,,,74,107
189720,note_on,0,0,1,,,,,,,,,0,,,81,107
189720,note_on,0,0,1,,,,,,,,,0,,,84,107
189720,note_on,0,0,3,,,,,,,,,2,,,54,107
189720,note_on,60,0,3,,,,,,,,,2,,,55,0
189720,note_on,0,0,8,,,,,,,,,7,,,86,0
189720,note_on,30,0,8,,,,,,,,,7,,,74,0
189720,note_on,0,0,2,,,,,,,,,1,,,71,0
189720,note_on,0,0,2,,,,,,,,,1,,,72,107
189720,note_on,0,0,2,,,,,,,,,1,,,69,107
189720,note_on,0,0,5,,,,,,,,,4,,,74,107
189720,note_on,0,0,8,,,,,,,,,7,,,74,107
189720,note_on,0,0,8,,,,,,,,,7,,,86,107
189720,note_on,30,0,4,,,,,,,,,3,,,50,107
189720,note_on,0,0,4,,,,,,,,,3,,,62,107
189720,note_on,30,0,5,,,,,,,,,4,,,62,107
189720,note_on,0,0,10,,,,,,,,,10,,,54,107
189720,note_on,30,0,7,,,,,,,,,6,,,74,0
189720,note_on,0,0,7,,,,,,,,,6,,,86,0
189720,note_on,0,0,7,,,,,,,,,6,,,86,107
189720,note_on,0,0,7,,,,,,,,,6,,,74,107
189720,note_on,60,0,9,,,,,,,,,8,,,55,0
189720,note_on,60,0,10,,,,,,,,,10,,,55,0
189720,note_on,0,0,9,,,,,,,,,8,,,54,107
189720,note_on,0,0,11,,,,,,,,,11,,,42,107
189720,note_on,120,0,2,,,,,,,,,1,,,67,0
189720,note_on,120,0,1,,,,,,,,,0,,,79,0
189720,note_on,120,0,6,,,,,,,,,5,,,50,0
189720,note_on,0,0,6,,,,,,,,,5,,,50,107
189720,note_on,0,0,1,,,,,,,,,0,,,83,0
189720,note_on,60,0,11,,,,,,,,,11,,,43,0
189750,note_on,0,0,7,,,,,,,,,6,,,86,107
189750,note_on,30,0,7,,,,,,,,,6,,,74,0
189750,note_on,30,0,8,,,,,,,,,7,,,74,0
189750,note_on,0,0,8,,,,,,,,,7,,,86,0
189750,note_on,0,0,8,,,,,,,,,7,,,86,107
189750,note_on,0,0,8,,,,,,,,,7,,,74,107
189750,note_on,0,0,7,,,,,,,,,6,,,74,107
189750,note_on,0,0,7,,,,,,,,,6,,,86,0
189780,note_on,0,0,7,,,,,,,,,6,,,74,107
189780,note_on,0,0,8,,,,,,,,,7,,,74,107
189780,note_on,30,0,7,,,,,,,,,6,,,74,0
189780,note_on,0,0,8,,,,,,,,,7,,,86,107
189780,note_on,0,0,8,,,,,,,,,7,,,86,0
189780,note_on,30,0,8,,,,,,,,,7,,,74,0
189780,note_on,0,0,7,,,,,,,,,6,,,86,107
189780,note_on,0,0,7,,,,,,,,,6,,,86,0
189810,note_on,0,0,8,,,,,,,,,7,,,86,0
189810,note_on,30,0,7,,,,,,,,,6,,,74,0
189810,note_on,0,0,7,,,,,,,,,6,,,86,0
189810,note_on,0,0,7,,,,,,,,,6,,,86,106
189810,note_on,0,0,8,,,,,,,,,7,,,86,106
189810,note_on,30,0,8,,,,,,,,,7,,,74,0
189810,note_on,0,0,8,,,,,,,,,7,,,74,106
189810,note_on,0,0,7,,,,,,,,,6,,,74,106
189840,note_on,0,0,7,,,,,,,,,6,,,86,0
189840,note_on,0,0,7,,,,,,,,,6,,,87,106
189840,note_on,120,0,6,,,,,,,,,5,,,50,0
189840,note_on,120,0,5,,,,,,,,,4,,,74,0
189840,note_on,0,0,5,,,,,,,,,4,,,62,0
189840,note_on,120,0,4,,,,,,,,,3,,,62,0
189840,note_on,30,0,7,,,,,,,,,6,,,74,0
189840,note_on,0,0,4,,,,,,,,,3,,,50,0
189840,note_on,30,0,8,,,,,,,,,7,,,74,0
189840,note_on,0,0,8,,,,,,,,,7,,,75,106
189840,note_on,0,0,7,,,,,,,,,6,,,75,106
189840,note_on,0,0,8,,,,,,,,,7,,,86,0
189840,note_on,0,0,8,,,,,,,,,7,,,87,106
189870,note_on,0,0,8,,,,,,,,,7,,,75,106
189870,note_on,30,0,7,,,,,,,,,6,,,75,0
189870,note_on,0,0,8,,,,,,,,,7,,,87,0
189870,note_on,0,0,8,,,,,,,,,7,,,87,106
189870,note_on,0,0,7,,,,,,,,,6,,,75,106
189870,note_on,0,0,7,,,,,,,,,6,,,87,106
189870,note_on,30,0,8,,,,,,,,,7,,,75,0
189870,note_on,0,0,7,,,,,,,,,6,,,87,0
189900,note_on,30,0,8,,,,,,,,,7,,,75,0
189900,note_on,0,0,8,,,,,,,,,7,,,87,0
189900,note_on,0,0,8,,,,,,,,,7,,,87,106
189900,note_on,0,0,7,,,,,,,,,6,,,75,106
189900,note_on,0,0,8,,,,,,,,,7,,,75,106
189900,note_on,0,0,7,,,,,,,,,6,,,87,106
189900,note_on,0,0,7,,,,,,,,,6,,,87,0
189900,note_on,30,0,7,,,,,,,,,6,,,75,0
189930,note_on,0,0,7,,,,,,,,,6,,,75,105
189930,note_on,0,0,7,,,,,,,,,6,,,87,105
189930,note_on,30,0,7,,,,,,,,,6,,,75,0
189930,note_on,0,0,7,,,,,,,,,6,,,87,0
189930,note_on,0,0,8,,,,,,,,,7,,,87,105
189930,note_on,30,0,8,,,,,,,,,7,,,75,0
189930,note_on,0,0,8,,,,,,,,,7,,,75,105
189930,note_on,0,0,8,,,,,,,,,7,,,87,0
189960,note_on,30,0,7,,,,,,,,,6,,,75,0
189960,note_on,0,0,7,,,,,,,,,6,,,87,0
189960,note_on,0,0,1,,,,,,,,,0,,,81,0
189960,note_on,0,0,8,,,,,,,,,7,,,87,105
189960,note_on,0,0,8,,,,,,,,,7,,,75,105
189960,note_on,0,0,2,,,,,,,,,1,,,75,105
189960,note_on,0,0,2,,,,,,,,,1,,,66,105
189960,note_on,0,0,2,,,,,,,,,1,,,72,0
189960,note_on,240,0,2,,,,,,,,,1,,,69,0
189960,note_on,0,0,3,,,,,,,,,2,,,57,105
189960,note_on,0,0,3,,,,,,,,,2,,,60,105
189960,note_on,240,0,3,,,,,,,,,2,,,54,0
189960,note_on,0,0,1,,,,,,,,,0,,,87,105
189960,note_on,0,0,1,,,,,,,,,0,,,78,105
189960,note_on,0,0,7,,,,,,,,,6,,,87,105
189960,note_on,0,0,7,,,,,,,,,6,,,75,105
189960,note_on,240,0,1,,,,,,,,,0,,,84,0
189960,note_on,0,0,9,,,,,,,,,8,,,57,105
189960,note_on,240,0,11,,,,,,,,,11,,,42,0
189960,note_on,0,0,11,,,,,,,,,11,,,45,105
189960,note_on,240,0,9,,,,,,,,,8,,,54,0
189960,note_on,0,0,10,,,,,,,,,10,,,57,105
189960,note_on,240,0,10,,,,,,,,,10,,,54,0
189960,note_on,0,0,8,,,,,,,,,7,,,87,0
189960,note_on,30,0,8,,,,,,,,,7,,,75,0
189990,note_on,0,0,7,,,,,,,,,6,,,75,105
189990,note_on,0,0,8,,,,,,,,,7,,,75,105
189990,note_on,0,0,8,,,,,,,,,7,,,87,105
189990,note_on,30,0,7,,,,,,,,,6,,,75,0
189990,note_on,0,0,7,,,,,,,,,6,,,87,0
189990,note_on,30,0,8,,,,,,,,,7,,,75,0
189990,note_on,0,0,8,,,,,,,,,7,,,87,0
189990,note_on,0,0,7,,,,,,,,,6,,,87,105
190020,note_on,60,0,10,,,,,,,,,10,,,57,0
190020,note_on,60,0,3,,,,,,,,,2,,,57,0
190020,note_on,0,0,3,,,,,,,,,2,,,60,0
190020,note_on,0,0,7,,,,,,,,,6,,,87,105
190020,note_on,0,0,7,,,,,,,,,6,,,87,0
190020,note_on,30,0,7,,,,,,,,,6,,,75,0
190020,note_on,60,0,9,,,,,,,,,8,,,57,0
190020,note_on,0,0,8,,,,,,,,,7,,,87,0
190020,note_on,30,0,8,,,,,,,,,7,,,75,0
190020,note_on,0,0,7,,,,,,,,,6,,,75,105
190020,note_on,0,0,8,,,,,,,,,7,,,87,105
190020,note_on,0,0,8,,,,,,,,,7,,,75,105
190020,note_on,60,0,11,,,,,,,,,11,,,45,0
190050,note_on,30,0,8,,,,,,,,,7,,,75,0
190050,note_on,0,0,8,,,,,,,,,7,,,87,0
190050,note_on,0,0,8,,,,,,,,,7,,,87,104
190050,note_on,0,0,7,,,,,,,,,6,,,87,104
190050,note_on,0,0,7,,,,,,,,,6,,,87,0
190050,note_on,0,0,8,,,,,,,,,7,,,75,104
190050,note_on,30,0,7,,,,,,,,,6,,,75,0
190050,note_on,0,0,7,,,,,,,,,6,,,75,104
190080,note_on,60,0,9,,,,,,,,,8,,,56,104
190080,note_on,60,0,11,,,,,,,,,11,,,44,104
190080,note_on,60,0,3,,,,,,,,,2,,,56,104
190080,note_on,0,0,2,,,,,,,,,1,,,68,104
190080,note_on,0,0,2,,,,,,,,,1,,,76,104
190080,note_on,0,0,2,,,,,,,,,1,,,66,0
190080,note_on,0,0,3,,,,,,,,,2,,,59,104
190080,note_on,30,0,7,,,,,,,,,6,,,75,0
190080,note_on,0,0,1,,,,,,,,,0,,,80,104
190080,note_on,0,0,1,,,,,,,,,0,,,88,104
190080,note_on,0,0,8,,,,,,,,,7,,,76,104
190080,note_on,0,0,8,,,,,,,,,7,,,88,104
190080,note_on,0,0,8,,,,,,,,,7,,,87,0
190080,note_on,30,0,8,,,,,,,,,7,,,75,0
190080,note_on,120,0,2,,,,,,,,,1,,,75,0
190080,note_on,240,0,4,,,,,,,,,3,,,64,104
190080,note_on,0,0,7,,,,,,,,,6,,,76,104
190080,note_on,0,0,7,,,,,,,,,6,,,88,104
190080,note_on,0,0,7,,,,,,,,,6,,,87,0
190080,note_on,120,0,1,,,,,,,,,0,,,87,0
190080,note_on,0,0,1,,,,,,,,,0,,,78,0
190080,note_on,60,0,10,,,,,,,,,10,,,56,104
190110,note_on,0,0,8,,,,,,,,,7,,,88,104
190110,note_on,0,0,7,,,,,,,,,6,,,88,0
190110,note_on,0,0,7,,,,,,,,,6,,,88,104
190110,note_on,0,0,7,,,,,,,,,6,,,76,104
190110,note_on,30,0,7,,,,,,,,,6,,,76,0
190110,note_on,0,0,8,,,,,,,,,7,,,88,0
190110,note_on,0,0,8,,,,,,,,,7,,,76,104
190110,note_on,30,0,8,,,,,,,,,7,,,76,0
190140,note_on,60,0,9,,,,,,,,,8,,,56,0
190140,note_on,60,0,11,,,,,,,,,11,,,44,0
190140,note_on,0,0,8,,,,,,,,,7,,,76,104
190140,note_on,0,0,8,,,,,,,,,7,,,88,104
190140,note_on,60,0,10,,,,,,,,,10,,,56,0
190140,note_on,0,0,8,,,,,,,,,7,,,88,0
190140,note_on,30,0,8,,,,,,,,,7,,,76,0
190140,note_on,0,0,3,,,,,,,,,2,,,56,0
190140,note_on,30,0,7,,,,,,,,,6,,,76,0
190140,note_on,0,0,7,,,,,,,,,6,,,88,0
190140,note_on,60,0,3,,,,,,,,,2,,,59,0
190140,note_on,0,0,7,,,,,,,,,6,,,76,104
190140,note_on,0,0,7,,,,,,,,,6,,,88,104
190170,note_on,0,0,8,,,,,,,,,7,,,88,0
190170,note_on,0,0,8,,,,,,,,,7,,,88,104
190170,note_on,0,0,8,,,,,,,,,7,,,76,104
190170,note_on,30,0,8,,,,,,,,,7,,,76,0
190170,note_on,0,0,7,,,,,,,,,6,,,76,104
190170,note_on,0,0,7,,,,,,,,,6,,,88,104
190170,note_on,0,0,7,,,,,,,,,6,,,88,0
190170,note_on,30,0,7,,,,,,,,,6,,,76,0
190200,note_on,30,0,7,,,,,,,,,6,,,76,0
190200,note_on,0,0,7,,,,,,,,,6,,,76,103
190200,note_on,60,0,11,,,,,,,,,11,,,40,103
190200,note_on,0,0,1,,,,,,,,,0,,,83,103
190200,note_on,60,0,9,,,,,,,,,8,,,52,103
190200,note_on,0,0,3,,,,,,,,,2,,,56,103
190200,note_on,60,0,3,,,,,,,,,2,,,52,103
190200,note_on,60,0,10,,,,,,,,,10,,,52,103
190200,note_on,120,0,1,,,,,,,,,0,,,80,0
190200,note_on,0,0,7,,,,,,,,,6,,,88,0
190200,note_on,0,0,7,,,,,,,,,6,,,88,103
190200,note_on,120,0,2,,,,,,,,,1,,,68,0
190200,note_on,0,0,8,,,,,,,,,7,,,88,0
190200,note_on,0,0,8,,,,,,,,,7,,,88,103
190200,note_on,0,0,2,,,,,,,,,1,,,71,103
190200,note_on,0,0,8,,,,,,,,,7,,,76,103
190200,note_on,30,0,8,,,,,,,,,7,,,76,0
190230,note_on,0,0,7,,,,,,,,,6,,,88,0
190230,note_on,0,0,7,,,,,,,,,6,,,88,103
190230,note_on,0,0,7,,,,,,,,,6,,,76,103
190230,note_on,0,0,8,,,,,,,,,7,,,88,0
190230,note_on,0,0,8,,,,,,,,,7,,,76,103
190230,note_on,30,0,8,,,,,,,,,7,,,76,0
190230,note_on,30,0,7,,,,,,,,,6,,,76,0
190230,note_on,0,0,8,,,,,,,,,7,,,88,103
190260,note_on,60,0,11,,,,,,,,,11,,,40,0
190260,note_on,0,0,8,,,,,,,,,7,,,76,103
190260,note_on,0,0,7,,,,,,,,,6,,,76,103
190260,note_on,30,0,7,,,,,,,,,6,,,76,0
190260,note_on,0,0,7,,,,,,,,,6,,,88,0
190260,note_on,0,0,7,,,,,,,,,6,,,88,103
190260,note_on,0,0,3,,,,,,,,,2,,,52,0
190260,note_on,60,0,3,,,,,,,,,2,,,56,0
190260,note_on,30,0,8,,,,,,,,,7,,,76,0
190260,note_on,0,0,8,,,,,,,,,7,,,88,0
190260,note_on,0,0,8,,,,,,,,,7,,,88,103
190260,note_on,60,0,10,,,,,,,,,10,,,52,0
190260,note_on,60,0,9,,,,,,,,,8,,,52,0
190290,note_on,0,0,7,,,,,,,,,6,,,88,0
190290,note_on,0,0,8,,,,,,,,,7,,,76,103
190290,note_on,0,0,8,,,,,,,,,7,,,88,103
190290,note_on,0,0,8,,,,,,,,,7,,,88,0
190290,note_on,30,0,8,,,,,,,,,7,,,76,0
190290,note_on,0,0,7,,,,,,,,,6,,,88,103
190290,note_on,0,0,7,,,,,,,,,6,,,76,103
190290,note_on,30,0,7,,,,,,,,,6,,,76,0
190320,note_on,120,0,2,,,,,,,,,1,,,71,0
190320,note_on,0,0,7,,,,,,,,,6,,,73,102
190320,note_on,0,0,7,,,,,,,,,6,,,85,102
190320,note_on,0,0,8,,,,,,,,,7,,,85,102
190320,note_on,0,0,8,,,,,,,,,7,,,73,102
190320,note_on,60,0,10,,,,,,,,,10,,,55,102
190320,note_on,0,0,7,,,,,,,,,6,,,88,0
190320,note_on,0,0,1,,,,,,,,,0,,,85,102
190320,note_on,0,0,8,,,,,,,,,7,,,88,0
190320,note_on,0,0,1,,,,,,,,,0,,,76,102
190320,note_on,60,0,3,,,,,,,,,2,,,58,102
190320,note_on,0,0,3,,,,,,,,,2,,,55,102
190320,note_on,30,0,7,,,,,,,,,6,,,76,0
190320,note_on,0,0,1,,,,,,,,,0,,,88,0
190320,note_on,30,0,8,,,,,,,,,7,,,76,0
190320,note_on,120,0,1,,,,,,,,,0,,,83,0
190320,note_on,60,0,9,,,,,,,,,8,,,55,102
190320,note_on,60,0,11,,,,,,,,,11,,,43,102
190320,note_on,0,0,2,,,,,,,,,1,,,73,102
190320,note_on,0,0,2,,,,,,,,,1,,,64,102
190320,note_on,0,0,2,,,,,,,,,1,,,76,0
190350,note_on,0,0,8,,,,,,,,,7,,,73,102
190350,note_on,0,0,8,,,,,,,,,7,,,85,102
190350,note_on,30,0,8,,,,,,,,,7,,,73,0
190350,note_on,0,0,8,,,,,,,,,7,,,85,0
190350,note_on,0,0,7,,,,,,,,,6,,,85,0
190350,note_on,0,0,7,,,,,,,,,6,,,85,102
190350,note_on,0,0,7,,,,,,,,,6,,,73,102
190350,note_on,30,0,7,,,,,,,,,6,,,73,0
190380,note_on,0,0,7,,,,,,,,,6,,,85,102
190380,note_on,30,0,7,,,,,,,,,6,,,73,0
190380,note_on,0,0,7,,,,,,,,,6,,,85,0
190380,note_on,0,0,7,,,,,,,,,6,,,73,102
190380,note_on,30,0,8,,,,,,,,,7,,,73,0
190380,note_on,0,0,8,,,,,,,,,7,,,73,102
190380,note_on,0,0,8,,,,,,,,,7,,,85,102
190380,note_on,0,0,8,,,,,,,,,7,,,85,0
190410,note_on,0,0,8,,,,,,,,,7,,,85,102
190410,note_on,30,0,8,,,,,,,,,7,,,73,0
190410,note_on,0,0,7,,,,,,,,,6,,,73,102
190410,note_on,0,0,7,,,,,,,,,6,,,85,102
190410,note_on,0,0,7,,,,,,,,,6,,,85,0
190410,note_on,30,0,7,,,,,,,,,6,,,73,0
190410,note_on,0,0,8,,,,,,,,,7,,,85,0
190410,note_on,0,0,8,,,,,,,,,7,,,73,102
190440,note_on,0,0,7,,,,,,,,,6,,,73,101
190440,note_on,0,0,8,,,,,,,,,7,,,73,101
190440,note_on,0,0,8,,,,,,,,,7,,,85,101
190440,note_on,30,0,8,,,,,,,,,7,,,73,0
190440,note_on,0,0,8,,,,,,,,,7,,,85,0
190440,note_on,0,0,7,,,,,,,,,6,,,85,101
190440,note_on,0,0,7,,,,,,,,,6,,,85,0
190440,note_on,30,0,7,,,,,,,,,6,,,73,0
190470,note_on,0,0,7,,,,,,,,,6,,,85,0
190470,note_on,30,0,7,,,,,,,,,6,,,73,0
190470,note_on,0,0,8,,,,,,,,,7,,,73,101
190470,note_on,0,0,8,,,,,,,,,7,,,85,101
190470,note_on,0,0,8,,,,,,,,,7,,,85,0
190470,note_on,30,0,8,,,,,,,,,7,,,73,0
190470,note_on,0,0,7,,,,,,,,,6,,,73,101
190470,note_on,0,0,7,,,,,,,,,6,,,85,101
190500,note_on,0,0,7,,,,,,,,,6,,,85,101
190500,note_on,0,0,8,,,,,,,,,7,,,73,101
190500,note_on,0,0,8,,,,,,,,,7,,,85,101
190500,note_on,0,0,8,,,,,,,,,7,,,85,0
190500,note_on,30,0,7,,,,,,,,,6,,,73,0
190500,note_on,0,0,7,,,,,,,,,6,,,85,0
190500,note_on,0,0,7,,,,,,,,,6,,,73,101
190500,note_on,30,0,8,,,,,,,,,7,,,73,0
190530,note_on,0,0,8,,,,,,,,,7,,,73,101
190530,note_on,0,0,7,,,,,,,,,6,,,85,0
190530,note_on,0,0,7,,,,,,,,,6,,,85,101
190530,note_on,0,0,7,,,,,,,,,6,,,73,101
190530,note_on,30,0,7,,,,,,,,,6,,,73,0
190530,note_on,0,0,8,,,,,,,,,7,,,85,101
190530,note_on,0,0,8,,,,,,,,,7,,,85,0
190530,note_on,30,0,8,,,,,,,,,7,,,73,0
190560,note_on,240,0,3,,,,,,,,,2,,,55,0
190560,note_on,0,0,2,,,,,,,,,1,,,74,100
190560,note_on,0,0,2,,,,,,,,,1,,,69,100
190560,note_on,0,0,2,,,,,,,,,1,,,64,0
190560,note_on,240,0,2,,,,,,,,,1,,,73,0
190560,note_on,240,0,9,,,,,,,,,8,,,55,0
190560,note_on,0,0,9,,,,,,,,,8,,,54,100
190560,note_on,480,0,4,,,,,,,,,3,,,64,0
190560,note_on,0,0,1,,,,,,,,,0,,,86,100
190560,note_on,0,0,1,,,,,,,,,0,,,76,0
190560,note_on,240,0,1,,,,,,,,,0,,,85,0
190560,note_on,720,0,6,,,,,,,,,5,,,50,100
190560,note_on,0,0,1,,,,,,,,,0,,,81,100
190560,note_on,0,0,5,,,,,,,,,4,,,74,100
190560,note_on,720,0,5,,,,,,,,,4,,,62,100
190560,note_on,0,0,4,,,,,,,,,3,,,66,100
190560,note_on,240,0,11,,,,,,,,,11,,,43,0
190560,note_on,0,0,11,,,,,,,,,11,,,42,100
190560,note_on,0,0,3,,,,,,,,,2,,,58,0
190560,note_on,0,0,3,,,,,,,,,2,,,54,100
190560,note_on,0,0,4,,,,,,,,,3,,,62,100
190560,note_on,240,0,10,,,,,,,,,10,,,55,0
190560,note_on,30,0,7,,,,,,,,,6,,,73,0
190560,note_on,0,0,7,,,,,,,,,6,,,85,0
190560,note_on,0,0,7,,,,,,,,,6,,,86,100
190560,note_on,0,0,7,,,,,,,,,6,,,74,100
190560,note_on,0,0,8,,,,,,,,,7,,,74,100
190560,note_on,0,0,8,,,,,,,,,7,,,86,100
190560,note_on,0,0,8,,,,,,,,,7,,,85,0
190560,note_on,30,0,8,,,,,,,,,7,,,73,0
190560,note_on,0,0,10,,,,,,,,,10,,,54,100
190560,note_on,0,0,3,,,,,,,,,2,,,57,100
190600,note_on,40,0,11,,,,,,,,,11,,,42,0
190600,note_on,0,0,1,,,,,,,,,0,,,86,0
190600,note_on,40,0,1,,,,,,,,,0,,,81,0
190600,note_on,40,0,10,,,,,,,,,10,,,54,0
190600,note_on,40,0,9,,,,,,,,,8,,,54,0
190600,note_on,40,0,3,,,,,,,,,2,,,57,0
190600,note_on,0,0,2,,,,,,,,,1,,,69,0
190600,note_on,0,0,3,,,,,,,,,2,,,54,0
190600,note_on,40,0,2,,,,,,,,,1,,,74,0
190620,note_on,20,0,11,,,,,,,,,11,,,42,100
190620,note_on,20,0,3,,,,,,,,,2,,,66,100
190620,note_on,20,0,1,,,,,,,,,0,,,90,100
190620,note_on,0,0,2,,,,,,,,,1,,,74,100
190620,note_on,20,0,2,,,,,,,,,1,,,83,100
190620,note_on,20,0,9,,,,,,,,,8,,,66,100
190620,note_on,0,0,3,,,,,,,,,2,,,62,100
190620,note_on,20,0,10,,,,,,,,,10,,,54,100
190620,note_on,0,0,1,,,,,,,,,0,,,86,100
190660,note_on,40,0,3,,,,,,,,,2,,,62,0
190660,note_on,0,0,3,,,,,,,,,2,,,66,0
190660,note_on,40,0,1,,,,,,,,,0,,,86,0
190660,note_on,0,0,1,,,,,,,,,0,,,90,0
190660,note_on,40,0,2,,,,,,,,,1,,,74,0
190660,note_on,40,0,10,,,,,,,,,10,,,54,0
190660,note_on,40,0,9,,,,,,,,,8,,,66,0
190660,note_on,40,0,11,,,,,,,,,11,,,42,0
190660,note_on,0,0,2,,,,,,,,,1,,,83,0
190680,note_on,0,0,3,,,,,,,,,2,,,62,100
190680,note_on,20,0,3,,,,,,,,,2,,,66,100
190680,note_on,20,0,11,,,,,,,,,11,,,42,100
190680,note_on,0,0,4,,,,,,,,,3,,,66,0
190680,note_on,120,0,4,,,,,,,,,3,,,62,0
190680,note_on,20,0,10,,,,,,,,,10,,,54,100
190680,note_on,120,0,6,,,,,,,,,5,,,50,0
190680,note_on,0,0,8,,,,,,,,,7,,,86,0
190680,note_on,120,0,7,,,,,,,,,6,,,74,0
190680,note_on,0,0,7,,,,,,,,,6,,,86,0
190680,note_on,120,0,8,,,,,,,,,7,,,74,0
190680,note_on,0,0,5,,,,,,,,,4,,,62,0
190680,note_on,0,0,2,,,,,,,,,1,,,74,100
190680,note_on,20,0,2,,,,,,,,,1,,,83,100
190680,note_on,20,0,9,,,,,,,,,8,,,66,100
190680,note_on,20,0,1,,,,,,,,,0,,,90,100
190680,note_on,0,0,1,,,,,,,,,0,,,86,100
190680,note_on,120,0,5,,,,,,,,,4,,,74,0
190720,note_on,0,0,1,,,,,,,,,0,,,90,0
190720,note_on,40,0,10,,,,,,,,,10,,,54,0
190720,note_on,0,0,3,,,,,,,,,2,,,66,0
190720,note_on,40,0,3,,,,,,,,,2,,,62,0
190720,note_on,40,0,2,,,,,,,,,1,,,74,0
190720,note_on,40,0,11,,,,,,,,,11,,,42,0
190720,note_on,0,0,2,,,,,,,,,1,,,83,0
190720,note_on,40,0,1,,,,,,,,,0,,,86,0
190720,note_on,40,0,9,,,,,,,,,8,,,66,0
190740,note_on,0,0,1,,,,,,,,,0,,,86,100
190740,note_on,20,0,9,,,,,,,,,8,,,66,100
190740,note_on,20,0,11,,,,,,,,,11,,,42,100
190740,note_on,20,0,10,,,,,,,,,10,,,54,100
190740,note_on,20,0,2,,,,,,,,,1,,,83,100
190740,note_on,0,0,2,,,,,,,,,1,,,74,100
190740,note_on,20,0,1,,,,,,,,,0,,,90,100
190740,note_on,0,0,3,,,,,,,,,2,,,62,100
190740,note_on,20,0,3,,,,,,,,,2,,,66,100
190780,note_on,40,0,10,,,,,,,,,10,,,54,0
190780,note_on,0,0,3,,,,,,,,,2,,,66,0
190780,note_on,40,0,3,,,,,,,,,2,,,62,0
190780,note_on,0,0,1,,,,,,,,,0,,,90,0
190780,note_on,0,0,2,,,,,,,,,1,,,83,0
190780,note_on,40,0,2,,,,,,,,,1,,,74,0
190780,note_on,40,0,11,,,,,,,,,11,,,42,0
190780,note_on,40,0,9,,,,,,,,,8,,,66,0
190780,note_on,40,0,1,,,,,,,,,0,,,86,0
190800,note_on,0,0,4,,,,,,,,,3,,,66,100
190800,note_on,0,0,8,,,,,,,,,7,,,78,100
190800,note_on,0,0,7,,,,,,,,,6,,,78,100
190800,note_on,120,0,7,,,,,,,,,6,,,74,100
190800,note_on,120,0,4,,,,,,,,,3,,,62,100
190800,note_on,120,0,6,,,,,,,,,5,,,50,100
190800,note_on,120,0,5,,,,,,,,,4,,,62,100
190800,note_on,120,0,8,,,,,,,,,7,,,74,100
190800,note_on,0,0,5,,,,,,,,,4,,,74,100
190860,note_on,80,0,1,,,,,,,,,0,,,90,100
190860,note_on,0,0,1,,,,,,,,,0,,,86,100
190860,note_on,0,0,3,,,,,,,,,2,,,62,100
190860,note_on,80,0,3,,,,,,,,,2,,,66,100
190860,note_on,80,0,9,,,,,,,,,8,,,71,100
190860,note_on,80,0,11,,,,,,,,,11,,,47,100
190860,note_on,80,0,2,,,,,,,,,1,,,83,100
190860,note_on,80,0,10,,,,,,,,,10,,,59,100
190860,note_on,0,0,2,,,,,,,,,1,,,74,100
190900,note_on,40,0,2,,,,,,,,,1,,,74,0
190900,note_on,0,0,2,,,,,,,,,1,,,83,0
190900,note_on,0,0,3,,,,,,,,,2,,,66,0
190900,note_on,40,0,11,,,,,,,,,11,,,47,0
190900,note_on,40,0,9,,,,,,,,,8,,,71,0
190900,note_on,40,0,10,,,,,,,,,10,,,59,0
190900,note_on,0,0,1,,,,,,,,,0,,,90,0
190900,note_on,40,0,1,,,,,,,,,0,,,86,0
190900,note_on,40,0,3,,,,,,,,,2,,,62,0
190920,note_on,0,0,7,,,,,,,,,6,,,74,0
190920,note_on,120,0,7,,,,,,,,,6,,,78,0
190920,note_on,20,0,10,,,,,,,,,10,,,59,100
190920,note_on,20,0,3,,,,,,,,,2,,,66,100
190920,note_on,0,0,3,,,,,,,,,2,,,62,100
190920,note_on,0,0,1,,,,,,,,,0,,,86,100
190920,note_on,20,0,1,,,,,,,,,0,,,90,100
190920,note_on,0,0,2,,,,,,,,,1,,,74,100
190920,note_on,0,0,8,,,,,,,,,7,,,74,0
190920,note_on,120,0,8,,,,,,,,,7,,,78,0
190920,note_on,20,0,9,,,,,,,,,8,,,71,100
190920,note_on,20,0,2,,,,,,,,,1,,,83,100
190920,note_on,0,0,5,,,,,,,,,4,,,62,0
190920,note_on,120,0,5,,,,,,,,,4,,,74,0
190920,note_on,0,0,4,,,,,,,,,3,,,62,0
190920,note_on,120,0,4,,,,,,,,,3,,,66,0
190920,note_on,120,0,6,,,,,,,,,5,,,50,0
190920,note_on,20,0,11,,,,,,,,,11,,,47,100
190960,note_on,40,0,2,,,,,,,,,1,,,74,0
190960,note_on,0,0,2,,,,,,,,,1,,,83,0
190960,note_on,40,0,3,,,,,,,,,2,,,62,0
190960,note_on,0,0,3,,,,,,,,,2,,,66,0
190960,note_on,40,0,1,,,,,,,,,0,,,86,0
190960,note_on,40,0,9,,,,,,,,,8,,,71,0
190960,note_on,40,0,10,,,,,,,,,10,,,59,0
190960,note_on,0,0,1,,,,,,,,,0,,,90,0
190960,note_on,40,0,11,,,,,,,,,11,,,47,0
190980,note_on,0,0,3,,,,,,,,,2,,,62,100
190980,note_on,20,0,2,,,,,,,,,1,,,83,100
190980,note_on,20,0,1,,,,,,,,,0,,,90,100
190980,note_on,20,0,3,,,,,,,,,2,,,66,100
190980,note_on,20,0,10,,,,,,,,,10,,,59,100
190980,note_on,0,0,2,,,,,,,,,1,,,74,100
190980,note_on,0,0,1,,,,,,,,,0,,,86,100
190980,note_on,20,0,9,,,,,,,,,8,,,71,100
190980,note_on,20,0,11,,,,,,,,,11,,,47,100
191020,note_on,40,0,11,,,,,,,,,11,,,47,0
191020,note_on,40,0,9,,,,,,,,,8,,,71,0
191020,note_on,40,0,2,,,,,,,,,1,,,74,0
191020,note_on,0,0,2,,,,,,,,,1,,,83,0
191020,note_on,0,0,3,,,,,,,,,2,,,66,0
191020,note_on,0,0,1,,,,,,,,,0,,,90,0
191020,note_on,40,0,3,,,,,,,,,2,,,62,0
191020,note_on,40,0,10,,,,,,,,,10,,,59,0
191020,note_on,40,0,1,,,,,,,,,0,,,86,0
191040,note_on,120,0,5,,,,,,,,,4,,,62,100
191040,note_on,0,0,5,,,,,,,,,4,,,74,100
191040,note_on,120,0,4,,,,,,,,,3,,,62,100
191040,note_on,0,0,4,,,,,,,,,3,,,64,100
191040,note_on,120,0,7,,,,,,,,,6,,,62,100
191040,note_on,120,0,6,,,,,,,,,5,,,50,100
191040,note_on,0,0,7,,,,,,,,,6,,,83,100
191040,note_on,0,0,8,,,,,,,,,7,,,74,100
191040,note_on,0,0,7,,,,,,,,,6,,,74,100
191040,note_on,120,0,8,,,,,,,,,7,,,62,100
191040,note_on,0,0,8,,,,,,,,,7,,,83,100
191100,note_on,0,0,3,,,,,,,,,2,,,62,100
191100,note_on,80,0,3,,,,,,,,,2,,,64,100
191100,note_on,0,0,1,,,,,,,,,0,,,86,100
191100,note_on,80,0,2,,,,,,,,,1,,,83,100
191100,note_on,0,0,2,,,,,,,,,1,,,76,100
191100,note_on,80,0,10,,,,,,,,,10,,,55,100
191100,note_on,80,0,9,,,,,,,,,8,,,67,100
191100,note_on,80,0,1,,,,,,,,,0,,,88,100
191100,note_on,80,0,11,,,,,,,,,11,,,43,100
191140,note_on,0,0,3,,,,,,,,,2,,,64,0
191140,note_on,40,0,2,,,,,,,,,1,,,76,0
191140,note_on,0,0,2,,,,,,,,,1,,,83,0
191140,note_on,40,0,1,,,,,,,,,0,,,86,0
191140,note_on,0,0,1,,,,,,,,,0,,,88,0
191140,note_on,40,0,9,,,,,,,,,8,,,67,0
191140,note_on,40,0,11,,,,,,,,,11,,,43,0
191140,note_on,40,0,3,,,,,,,,,2,,,62,0
191140,note_on,40,0,10,,,,,,,,,10,,,55,0
191160,note_on,20,0,9,,,,,,,,,8,,,67,100
191160,note_on,0,0,2,,,,,,,,,1,,,76,100
191160,note_on,0,0,8,,,,,,,,,7,,,83,0
191160,note_on,120,0,8,,,,,,,,,7,,,74,0
191160,note_on,0,0,1,,,,,,,,,0,,,86,100
191160,note_on,20,0,11,,,,,,,,,11,,,43,100
191160,note_on,20,0,1,,,,,,,,,0,,,88,100
191160,note_on,20,0,2,,,,,,,,,1,,,83,100
191160,note_on,0,0,7,,,,,,,,,6,,,83,0
191160,note_on,120,0,7,,,,,,,,,6,,,74,0
191160,note_on,20,0,10,,,,,,,,,10,,,55,100
191160,note_on,0,0,7,,,,,,,,,6,,,62,0
191160,note_on,120,0,4,,,,,,,,,3,,,64,0
191160,note_on,120,0,6,,,,,,,,,5,,,50,0
191160,note_on,20,0,3,,,,,,,,,2,,,64,100
191160,note_on,0,0,4,,,,,,,,,3,,,62,0
191160,note_on,0,0,3,,,,,,,,,2,,,62,100
191160,note_on,0,0,8,,,,,,,,,7,,,62,0
191160,note_on,120,0,5,,,,,,,,,4,,,74,0
191160,note_on,0,0,5,,,,,,,,,4,,,62,0
191200,note_on,40,0,9,,,,,,,,,8,,,67,0
191200,note_on,40,0,3,,,,,,,,,2,,,62,0
191200,note_on,40,0,11,,,,,,,,,11,,,43,0
191200,note_on,40,0,10,,,,,,,,,10,,,55,0
191200,note_on,0,0,3,,,,,,,,,2,,,64,0
191200,note_on,40,0,1,,,,,,,,,0,,,86,0
191200,note_on,0,0,1,,,,,,,,,0,,,88,0
191200,note_on,0,0,2,,,,,,,,,1,,,83,0
191200,note_on,40,0,2,,,,,,,,,1,,,76,0
191220,note_on,20,0,9,,,,,,,,,8,,,67,100
191220,note_on,20,0,3,,,,,,,,,2,,,64,100
191220,note_on,20,0,1,,,,,,,,,0,,,88,100
191220,note_on,0,0,1,,,,,,,,,0,,,86,100
191220,note_on,20,0,10,,,,,,,,,10,,,55,100
191220,note_on,0,0,3,,,,,,,,,2,,,62,100
191220,note_on,20,0,2,,,,,,,,,1,,,83,100
191220,note_on,20,0,11,,,,,,,,,11,,,43,100
191220,note_on,0,0,2,,,,,,,,,1,,,76,100
191260,note_on,40,0,1,,,,,,,,,0,,,86,0
191260,note_on,0,0,1,,,,,,,,,0,,,88,0
191260,note_on,40,0,3,,,,,,,,,2,,,62,0
191260,note_on,0,0,3,,,,,,,,,2,,,64,0
191260,note_on,0,0,2,,,,,,,,,1,,,83,0
191260,note_on,40,0,11,,,,,,,,,11,,,43,0
191260,note_on,40,0,9,,,,,,,,,8,,,67,0
191260,note_on,40,0,10,,,,,,,,,10,,,55,0
191260,note_on,40,0,2,,,,,,,,,1,,,76,0
191280,note_on,0,0,8,,,,,,,,,7,,,73,100
191280,note_on,120,0,6,,,,,,,,,5,,,45,100
191280,note_on,120,0,8,,,,,,,,,7,,,76,100
191280,note_on,0,0,7,,,,,,,,,6,,,69,100
191280,note_on,0,0,8,,,,,,,,,7,,,69,100
191280,note_on,120,0,4,,,,,,,,,3,,,57,100
191280,note_on,0,0,4,,,,,,,,,3,,,64,100
191280,note_on,120,0,7,,,,,,,,,6,,,76,100
191280,note_on,120,0,5,,,,,,,,,4,,,57,100
191280,note_on,0,0,5,,,,,,,,,4,,,69,100
191280,note_on,0,0,7,,,,,,,,,6,,,73,100
191340,note_on,80,0,11,,,,,,,,,11,,,45,100
191340,note_on,80,0,10,,,,,,,,,10,,,57,100
191340,note_on,80,0,1,,,,,,,,,0,,,85,100
191340,note_on,80,0,3,,,,,,,,,2,,,61,100
191340,note_on,80,0,2,,,,,,,,,1,,,76,100
191340,note_on,0,0,3,,,,,,,,,2,,,64,100
191340,note_on,0,0,2,,,,,,,,,1,,,79,100
191340,note_on,80,0,9,,,,,,,,,8,,,69,100
191340,note_on,0,0,1,,,,,,,,,0,,,88,100
191380,note_on,0,0,1,,,,,,,,,0,,,85,0
191380,note_on,40,0,1,,,,,,,,,0,,,88,0
191380,note_on,40,0,3,,,,,,,,,2,,,64,0
191380,note_on,40,0,10,,,,,,,,,10,,,57,0
191380,note_on,0,0,2,,,,,,,,,1,,,76,0
191380,note_on,40,0,2,,,,,,,,,1,,,79,0
191380,note_on,40,0,11,,,,,,,,,11,,,45,0
191380,note_on,40,0,9,,,,,,,,,8,,,69,0
191380,note_on,0,0,3,,,,,,,,,2,,,61,0
191400,note_on,20,0,11,,,,,,,,,11,,,45,100
191400,note_on,0,0,4,,,,,,,,,3,,,57,0
191400,note_on,120,0,4,,,,,,,,,3,,,64,0
191400,note_on,0,0,3,,,,,,,,,2,,,64,100
191400,note_on,0,0,7,,,,,,,,,6,,,76,0
191400,note_on,0,0,7,,,,,,,,,6,,,73,0
191400,note_on,20,0,2,,,,,,,,,1,,,76,100
191400,note_on,0,0,8,,,,,,,,,7,,,76,0
191400,note_on,0,0,8,,,,,,,,,7,,,73,0
191400,note_on,120,0,8,,,,,,,,,7,,,69,0
191400,note_on,120,0,7,,,,,,,,,6,,,69,0
191400,note_on,0,0,2,,,,,,,,,1,,,79,100
191400,note_on,120,0,6,,,,,,,,,5,,,45,0
191400,note_on,20,0,3,,,,,,,,,2,,,61,100
191400,note_on,120,0,5,,,,,,,,,4,,,69,0
191400,note_on,0,0,5,,,,,,,,,4,,,57,0
191400,note_on,20,0,9,,,,,,,,,8,,,69,100
191400,note_on,20,0,1,,,,,,,,,0,,,85,100
191400,note_on,20,0,10,,,,,,,,,10,,,57,100
191400,note_on,0,0,1,,,,,,,,,0,,,88,100
191440,note_on,40,0,1,,,,,,,,,0,,,88,0
191440,note_on,0,0,1,,,,,,,,,0,,,85,0
191440,note_on,40,0,3,,,,,,,,,2,,,64,0
191440,note_on,0,0,3,,,,,,,,,2,,,61,0
191440,note_on,40,0,11,,,,,,,,,11,,,45,0
191440,note_on,40,0,9,,,,,,,,,8,,,69,0
191440,note_on,40,0,2,,,,,,,,,1,,,79,0
191440,note_on,0,0,2,,,,,,,,,1,,,76,0
191440,note_on,40,0,10,,,,,,,,,10,,,57,0
191460,note_on,0,0,3,,,,,,,,,2,,,64,100
191460,note_on,20,0,9,,,,,,,,,8,,,69,100
191460,note_on,20,0,3,,,,,,,,,2,,,61,100
191460,note_on,0,0,2,,,,,,,,,1,,,79,100
191460,note_on,20,0,11,,,,,,,,,11,,,45,100
191460,note_on,20,0,10,,,,,,,,,10,,,57,100
191460,note_on,0,0,1,,,,,,,,,0,,,88,100
191460,note_on,20,0,2,,,,,,,,,1,,,76,100
191460,note_on,20,0,1,,,,,,,,,0,,,85,100
191500,note_on,0,0,2,,,,,,,,,1,,,76,0
191500,note_on,40,0,2,,,,,,,,,1,,,79,0
191500,note_on,40,0,11,,,,,,,,,11,,,45,0
191500,note_on,40,0,9,,,,,,,,,8,,,69,0
191500,note_on,0,0,3,,,,,,,,,2,,,61,0
191500,note_on,40,0,3,,,,,,,,,2,,,64,0
191500,note_on,40,0,10,,,,,,,,,10,,,57,0
191500,note_on,40,0,1,,,,,,,,,0,,,88,0
191500,note_on,0,0,1,,,,,,,,,0,,,85,0
191520,note_on,20,0,11,,,,,,,,,11,,,50,100
191520,note_on,0,0,5,,,,,,,,,4,,,66,100
191520,note_on,120,0,5,,,,,,,,,4,,,62,100
191520,note_on,0,0,4,,,,,,,,,3,,,62,100
191520,note_on,120,0,4,,,,,,,,,3,,,54,100
191520,note_on,120,0,7,,,,,,,,,6,,,74,100
191520,note_on,20,0,1,,,,,,,,,0,,,86,100
191520,note_on,20,0,10,,,,,,,,,10,,,62,100
191520,note_on,20,0,3,,,,,,,,,2,,,62,100
191520,note_on,120,0,8,,,,,,,,,7,,,74,100
191520,note_on,20,0,2,,,,,,,,,1,,,78,100
191520,note_on,0,0,2,,,,,,,,,1,,,74,100
191520,note_on,20,0,9,,,,,,,,,8,,,74,100
191520,note_on,120,0,6,,,,,,,,,5,,,50,100
191580,note_on,60,0,8,,,,,,,,,7,,,74,0
191580,note_on,0,0,8,,,,,,,,,7,,,78,100
191580,note_on,60,0,7,,,,,,,,,6,,,74,0
191580,note_on,0,0,7,,,,,,,,,6,,,78,100
191610,note_on,30,0,7,,,,,,,,,6,,,78,0
191610,note_on,0,0,7,,,,,,,,,6,,,74,100
191610,note_on,0,0,8,,,,,,,,,7,,,74,100
191610,note_on,30,0,8,,,,,,,,,7,,,78,0
191640,note_on,120,0,5,,,,,,,,,4,,,66,0
191640,note_on,0,0,5,,,,,,,,,4,,,62,0
191640,note_on,0,0,8,,,,,,,,,7,,,81,100
191640,note_on,120,0,11,,,,,,,,,11,,,50,0
191640,note_on,120,0,4,,,,,,,,,3,,,62,0
191640,note_on,30,0,7,,,,,,,,,6,,,74,0
191640,note_on,0,0,7,,,,,,,,,6,,,81,100
191640,note_on,0,0,4,,,,,,,,,3,,,54,0
191640,note_on,120,0,2,,,,,,,,,1,,,74,0
191640,note_on,0,0,2,,,,,,,,,1,,,78,0
191640,note_on,30,0,8,,,,,,,,,7,,,74,0
191640,note_on,120,0,9,,,,,,,,,8,,,74,0
191640,note_on,120,0,3,,,,,,,,,2,,,62,0
191640,note_on,120,0,10,,,,,,,,,10,,,62,0
191640,note_on,120,0,1,,,,,,,,,0,,,86,0
191640,note_on,120,0,6,,,,,,,,,5,,,50,0
191680,note_on,40,0,8,,,,,,,,,7,,,81,0
191680,note_on,40,0,7,,,,,,,,,6,,,81,0
191700,note_on,0,0,2,,,,,,,,,1,,,74,100
191700,note_on,60,0,2,,,,,,,,,1,,,78,100
191700,note_on,0,0,3,,,,,,,,,2,,,54,100
191700,note_on,60,0,3,,,,,,,,,2,,,50,100
191700,note_on,20,0,8,,,,,,,,,7,,,81,100
191700,note_on,20,0,7,,,,,,,,,6,,,81,100
191700,note_on,0,0,1,,,,,,,,,0,,,86,100
191700,note_on,60,0,1,,,,,,,,,0,,,90,100
191700,note_on,60,0,4,,,,,,,,,3,,,62,100
191700,note_on,0,0,4,,,,,,,,,3,,,66,100
191740,note_on,40,0,8,,,,,,,,,7,,,81,0
191740,note_on,40,0,7,,,,,,,,,6,,,81,0
191760,note_on,0,0,1,,,,,,,,,0,,,91,100
191760,note_on,0,0,3,,,,,,,,,2,,,52,100
191760,note_on,20,0,8,,,,,,,,,7,,,81,100
191760,note_on,0,0,3,,,,,,,,,2,,,55,100
191760,note_on,20,0,7,,,,,,,,,6,,,81,100
191760,note_on,0,0,3,,,,,,,,,2,,,50,0
191760,note_on,0,0,4,,,,,,,,,3,,,62,0
191760,note_on,60,0,1,,,,,,,,,0,,,86,0
191760,note_on,0,0,1,,,,,,,,,0,,,90,0
191760,note_on,0,0,1,,,,,,,,,0,,,88,100
191760,note_on,0,0,4,,,,,,,,,3,,,64,100
191760,note_on,60,0,2,,,,,,,,,1,,,74,0
191760,note_on,0,0,2,,,,,,,,,1,,,78,0
191760,note_on,0,0,2,,,,,,,,,1,,,76,100
191760,note_on,0,0,2,,,,,,,,,1,,,79,100
191760,note_on,0,0,4,,,,,,,,,3,,,67,100
191760,note_on,60,0,3,,,,,,,,,2,,,54,0
191760,note_on,60,0,4,,,,,,,,,3,,,66,0
191800,note_on,40,0,7,,,,,,,,,6,,,81,0
191800,note_on,40,0,8,,,,,,,,,7,,,81,0
191820,note_on,20,0,7,,,,,,,,,6,,,81,100
191820,note_on,0,0,4,,,,,,,,,3,,,66,100
191820,note_on,0,0,1,,,,,,,,,0,,,90,100
191820,note_on,0,0,1,,,,,,,,,0,,,86,100
191820,note_on,60,0,4,,,,,,,,,3,,,67,0
191820,note_on,0,0,4,,,,,,,,,3,,,64,0
191820,note_on,0,0,4,,,,,,,,,3,,,62,100
191820,note_on,20,0,8,,,,,,,,,7,,,81,100
191820,note_on,0,0,1,,,,,,,,,0,,,88,0
191820,note_on,60,0,1,,,,,,,,,0,,,91,0
191820,note_on,0,0,2,,,,,,,,,1,,,74,100
191820,note_on,0,0,2,,,,,,,,,1,,,78,100
191820,note_on,60,0,3,,,,,,,,,2,,,55,0
191820,note_on,0,0,3,,,,,,,,,2,,,52,0
191820,note_on,0,0,3,,,,,,,,,2,,,50,100
191820,note_on,0,0,3,,,,,,,,,2,,,54,100
191820,note_on,60,0,2,,,,,,,,,1,,,79,0
191820,note_on,0,0,2,,,,,,,,,1,,,76,0
191860,note_on,40,0,7,,,,,,,,,6,,,81,0
191860,note_on,40,0,8,,,,,,,,,7,,,81,0
191880,note_on,0,0,4,,,,,,,,,3,,,67,100
191880,note_on,0,0,1,,,,,,,,,0,,,91,100
191880,note_on,0,0,1,,,,,,,,,0,,,88,100
191880,note_on,0,0,1,,,,,,,,,0,,,86,0
191880,note_on,60,0,1,,,,,,,,,0,,,90,0
191880,note_on,240,0,9,,,,,,,,,8,,,69,100
191880,note_on,0,0,4,,,,,,,,,3,,,62,0
191880,note_on,240,0,11,,,,,,,,,11,,,45,100
191880,note_on,0,0,5,,,,,,,,,4,,,69,100
191880,note_on,60,0,2,,,,,,,,,1,,,78,0
191880,note_on,0,0,2,,,,,,,,,1,,,74,0
191880,note_on,0,0,2,,,,,,,,,1,,,76,100
191880,note_on,20,0,7,,,,,,,,,6,,,81,100
191880,note_on,0,0,2,,,,,,,,,1,,,79,100
191880,note_on,240,0,10,,,,,,,,,10,,,57,100
191880,note_on,240,0,6,,,,,,,,,5,,,45,100
191880,note_on,240,0,5,,,,,,,,,4,,,57,100
191880,note_on,0,0,4,,,,,,,,,3,,,64,100
191880,note_on,60,0,3,,,,,,,,,2,,,54,0
191880,note_on,60,0,4,,,,,,,,,3,,,66,0
191880,note_on,20,0,8,,,,,,,,,7,,,81,100
191880,note_on,0,0,3,,,,,,,,,2,,,50,0
191880,note_on,0,0,3,,,,,,,,,2,,,52,100
191880,note_on,0,0,3,,,,,,,,,2,,,55,100
191920,note_on,40,0,8,,,,,,,,,7,,,81,0
191920,note_on,40,0,7,,,,,,,,,6,,,81,0
191940,note_on,0,0,4,,,,,,,,,3,,,64,100
191940,note_on,0,0,4,,,,,,,,,3,,,57,100
191940,note_on,60,0,4,,,,,,,,,3,,,67,0
191940,note_on,60,0,2,,,,,,,,,1,,,79,0
191940,note_on,0,0,2,,,,,,,,,1,,,76,0
191940,note_on,0,0,2,,,,,,,,,1,,,73,100
191940,note_on,0,0,2,,,,,,,,,1,,,76,100
191940,note_on,0,0,4,,,,,,,,,3,,,64,0
191940,note_on,20,0,8,,,,,,,,,7,,,81,100
191940,note_on,0,0,3,,,,,,,,,2,,,52,100
191940,note_on,0,0,3,,,,,,,,,2,,,49,100
191940,note_on,0,0,1,,,,,,,,,0,,,85,100
191940,note_on,0,0,1,,,,,,,,,0,,,88,0
191940,note_on,60,0,1,,,,,,,,,0,,,91,0
191940,note_on,0,0,3,,,,,,,,,2,,,52,0
191940,note_on,0,0,1,,,,,,,,,0,,,88,100
191940,note_on,20,0,7,,,,,,,,,6,,,81,100
191940,note_on,60,0,3,,,,,,,,,2,,,55,0
191980,note_on,40,0,8,,,,,,,,,7,,,81,0
191980,note_on,40,0,7,,,,,,,,,6,,,81,0
192000,note_on,20,0,8,,,,,,,,,7,,,81,100
192000,note_on,0,0,3,,,,,,,,,2,,,50,100
192000,note_on,0,0,3,,,,,,,,,2,,,54,100
192000,note_on,0,0,3,,,,,,,,,2,,,49,0
192000,note_on,60,0,2,,,,,,,,,1,,,76,0
192000,note_on,0,0,2,,,,,,,,,1,,,73,0
192000,note_on,0,0,2,,,,,,,,,1,,,78,100
192000,note_on,0,0,2,,,,,,,,,1,,,74,100
192000,note_on,60,0,3,,,,,,,,,2,,,52,0
192000,note_on,0,0,11,,,,,,,,,11,,,38,100
192000,note_on,120,0,11,,,,,,,,,11,,,45,0
192000,note_on,120,0,6,,,,,,,,,5,,,45,0
192000,note_on,0,0,6,,,,,,,,,5,,,50,100
192000,note_on,0,0,9,,,,,,,,,8,,,62,100
192000,note_on,120,0,9,,,,,,,,,8,,,69,0
192000,note_on,0,0,5,,,,,,,,,4,,,69,100
192000,note_on,120,0,10,,,,,,,,,10,,,57,0
192000,note_on,0,0,5,,,,,,,,,4,,,57,0
192000,note_on,120,0,5,,,,,,,,,4,,,69,0
192000,note_on,20,0,7,,,,,,,,,6,,,81,100
192000,note_on,0,0,4,,,,,,,,,3,,,62,100
192000,note_on,0,0,4,,,,,,,,,3,,,66,100
192000,note_on,0,0,4,,,,,,,,,3,,,57,0
192000,note_on,60,0,4,,,,,,,,,3,,,64,0
192000,note_on,0,0,5,,,,,,,,,4,,,62,100
192000,note_on,0,0,10,,,,,,,,,10,,,50,100
192000,note_on,0,0,1,,,,,,,,,0,,,90,100
192000,note_on,0,0,1,,,,,,,,,0,,,85,0
192000,note_on,60,0,1,,,,,,,,,0,,,88,0
192000,note_on,0,0,1,,,,,,,,,0,,,86,100
192030,note_on,0,0,7,,,,,,,,,6,,,78,100
192030,note_on,30,0,7,,,,,,,,,6,,,81,0
192030,note_on,30,0,8,,,,,,,,,7,,,81,0
192030,note_on,0,0,8,,,,,,,,,7,,,78,100
192060,note_on,30,0,7,,,,,,,,,6,,,78,0
192060,note_on,0,0,7,,,,,,,,,6,,,74,100
192060,note_on,0,0,8,,,,,,,,,7,,,74,100
192060,note_on,30,0,8,,,,,,,,,7,,,78,0
192090,note_on,0,0,8,,,,,,,,,7,,,78,100
192090,note_on,30,0,8,,,,,,,,,7,,,74,0
192090,note_on,0,0,7,,,,,,,,,6,,,78,100
192090,note_on,30,0,7,,,,,,,,,6,,,74,0
192120,note_on,0,0,5,,,,,,,,,4,,,62,0
192120,note_on,120,0,9,,,,,,,,,8,,,62,0
192120,note_on,120,0,6,,,,,,,,,5,,,50,0
192120,note_on,120,0,10,,,,,,,,,10,,,50,0
192120,note_on,0,0,3,,,,,,,,,2,,,54,0
192120,note_on,120,0,3,,,,,,,,,2,,,50,0
192120,note_on,120,0,1,,,,,,,,,0,,,86,0
192120,note_on,0,0,1,,,,,,,,,0,,,90,0
192120,note_on,0,0,7,,,,,,,,,6,,,81,100
192120,note_on,30,0,7,,,,,,,,,6,,,78,0
192120,note_on,120,0,5,,,,,,,,,4,,,69,0
192120,note_on,0,0,4,,,,,,,,,3,,,66,0
192120,note_on,120,0,4,,,,,,,,,3,,,62,0
192120,note_on,120,0,11,,,,,,,,,11,,,38,0
192120,note_on,30,0,8,,,,,,,,,7,,,78,0
192120,note_on,0,0,8,,,,,,,,,7,,,81,100
192120,note_on,120,0,2,,,,,,,,,1,,,74,0
192120,note_on,0,0,2,,,,,,,,,1,,,78,0
192160,note_on,40,0,7,,,,,,,,,6,,,81,0
192160,note_on,40,0,8,,,,,,,,,7,,,81,0
192180,note_on,60,0,4,,,,,,,,,3,,,62,100
192180,note_on,20,0,8,,,,,,,,,7,,,81,100
192180,note_on,0,0,3,,,,,,,,,2,,,54,100
192180,note_on,60,0,3,,,,,,,,,2,,,50,100
192180,note_on,60,0,2,,,,,,,,,1,,,78,100
192180,note_on,0,0,4,,,,,,,,,3,,,66,100
192180,note_on,60,0,1,,,,,,,,,0,,,90,100
192180,note_on,0,0,2,,,,,,,,,1,,,74,100
192180,note_on,0,0,1,,,,,,,,,0,,,86,100
192180,note_on,20,0,7,,,,,,,,,6,,,81,100
192220,note_on,40,0,7,,,,,,,,,6,,,81,0
192220,note_on,40,0,8,,,,,,,,,7,,,81,0
192240,note_on,60,0,2,,,,,,,,,1,,,74,0
192240,note_on,20,0,7,,,,,,,,,6,,,81,100
192240,note_on,0,0,2,,,,,,,,,1,,,78,0
192240,note_on,0,0,2,,,,,,,,,1,,,76,100
192240,note_on,0,0,2,,,,,,,,,1,,,79,100
192240,note_on,0,0,3,,,,,,,,,2,,,55,100
192240,note_on,0,0,4,,,,,,,,,3,,,62,0
192240,note_on,0,0,4,,,,,,,,,3,,,64,100
192240,note_on,0,0,4,,,,,,,,,3,,,67,100
192240,note_on,20,0,8,,,,,,,,,7,,,81,100
192240,note_on,0,0,1,,,,,,,,,0,,,90,0
192240,note_on,0,0,1,,,,,,,,,0,,,88,100
192240,note_on,60,0,1,,,,,,,,,0,,,86,0
192240,note_on,60,0,3,,,,,,,,,2,,,54,0
192240,note_on,0,0,1,,,,,,,,,0,,,91,100
192240,note_on,0,0,3,,,,,,,,,2,,,52,100
192240,note_on,0,0,3,,,,,,,,,2,,,50,0
192240,note_on,60,0,4,,,,,,,,,3,,,66,0
192280,note_on,40,0,7,,,,,,,,,6,,,81,0
192280,note_on,40,0,8,,,,,,,,,7,,,81,0
192300,note_on,0,0,1,,,,,,,,,0,,,90,100
192300,note_on,0,0,1,,,,,,,,,0,,,86,100
192300,note_on,60,0,2,,,,,,,,,1,,,79,0
192300,note_on,0,0,2,,,,,,,,,1,,,76,0
192300,note_on,20,0,8,,,,,,,,,7,,,81,100
192300,note_on,0,0,2,,,,,,,,,1,,,74,100
192300,note_on,0,0,2,,,,,,,,,1,,,78,100
192300,note_on,0,0,3,,,,,,,,,2,,,50,100
192300,note_on,0,0,1,,,,,,,,,0,,,88,0
192300,note_on,60,0,4,,,,,,,,,3,,,67,0
192300,note_on,0,0,4,,,,,,,,,3,,,64,0
192300,note_on,0,0,4,,,,,,,,,3,,,62,100
192300,note_on,0,0,4,,,,,,,,,3,,,66,100
192300,note_on,0,0,3,,,,,,,,,2,,,52,0
192300,note_on,20,0,7,,,,,,,,,6,,,81,100
192300,note_on,60,0,3,,,,,,,,,2,,,55,0
192300,note_on,0,0,3,,,,,,,,,2,,,54,100
192300,note_on,60,0,1,,,,,,,,,0,,,91,0
192340,note_on,40,0,8,,,,,,,,,7,,,81,0
192340,note_on,40,0,7,,,,,,,,,6,,,81,0
192360,note_on,0,0,2,,,,,,,,,1,,,79,100
192360,note_on,60,0,2,,,,,,,,,1,,,78,0
192360,note_on,0,0,2,,,,,,,,,1,,,74,0
192360,note_on,0,0,2,,,,,,,,,1,,,76,100
192360,note_on,240,0,9,,,,,,,,,8,,,69,100
192360,note_on,240,0,6,,,,,,,,,5,,,45,100
192360,note_on,20,0,7,,,,,,,,,6,,,81,100
192360,note_on,0,0,1,,,,,,,,,0,,,88,100
192360,note_on,60,0,3,,,,,,,,,2,,,54,0
192360,note_on,240,0,10,,,,,,,,,10,,,57,100
192360,note_on,60,0,1,,,,,,,,,0,,,90,0
192360,note_on,0,0,1,,,,,,,,,0,,,86,0
192360,note_on,0,0,3,,,,,,,,,2,,,55,100
192360,note_on,0,0,1,,,,,,,,,0,,,91,100
192360,note_on,240,0,11,,,,,,,,,11,,,45,100
192360,note_on,0,0,3,,,,,,,,,2,,,50,0
192360,note_on,60,0,4,,,,,,,,,3,,,66,0
192360,note_on,20,0,8,,,,,,,,,7,,,81,100
192360,note_on,0,0,4,,,,,,,,,3,,,62,0
192360,note_on,0,0,4,,,,,,,,,3,,,64,100
192360,note_on,0,0,4,,,,,,,,,3,,,67,100
192360,note_on,0,0,5,,,,,,,,,4,,,69,100
192360,note_on,240,0,5,,,,,,,,,4,,,57,100
192360,note_on,0,0,3,,,,,,,,,2,,,52,100
192400,note_on,40,0,7,,,,,,,,,6,,,81,0
192400,note_on,40,0,8,,,,,,,,,7,,,81,0
192420,note_on,0,0,3,,,,,,,,,2,,,52,0
192420,note_on,0,0,2,,,,,,,,,1,,,73,100
192420,note_on,0,0,3,,,,,,,,,2,,,49,100
192420,note_on,60,0,3,,,,,,,,,2,,,55,0
192420,note_on,60,0,1,,,,,,,,,0,,,91,0
192420,note_on,0,0,1,,,,,,,,,0,,,88,100
192420,note_on,0,0,1,,,,,,,,,0,,,88,0
192420,note_on,20,0,7,,,,,,,,,6,,,81,100
192420,note_on,0,0,1,,,,,,,,,0,,,85,100
192420,note_on,60,0,2,,,,,,,,,1,,,79,0
192420,note_on,0,0,2,,,,,,,,,1,,,76,100
192420,note_on,60,0,4,,,,,,,,,3,,,67,0
192420,note_on,0,0,4,,,,,,,,,3,,,64,0
192420,note_on,0,0,2,,,,,,,,,1,,,76,0
192420,note_on,0,0,4,,,,,,,,,3,,,64,100
192420,note_on,0,0,4,,,,,,,,,3,,,57,100
192420,note_on,0,0,3,,,,,,,,,2,,,52,100
192420,note_on,20,0,8,,,,,,,,,7,,,81,100
192460,note_on,40,0,8,,,,,,,,,7,,,81,0
192460,note_on,40,0,7,,,,,,,,,6,,,81,0
192480,note_on,0,0,11,,,,,,,,,11,,,50,100
192480,note_on,0,0,1,,,,,,,,,0,,,86,100
192480,note_on,0,0,1,,,,,,,,,0,,,90,100
192480,note_on,0,0,1,,,,,,,,,0,,,85,0
192480,note_on,60,0,1,,,,,,,,,0,,,88,0
192480,note_on,0,0,5,,,,,,,,,4,,,69,100
192480,note_on,20,0,7,,,,,,,,,6,,,81,100
192480,note_on,0,0,5,,,,,,,,,4,,,62,100
192480,note_on,0,0,2,,,,,,,,,1,,,74,100
192480,note_on,0,0,2,,,,,,,,,1,,,78,100
192480,note_on,0,0,5,,,,,,,,,4,,,57,0
192480,note_on,60,0,2,,,,,,,,,1,,,76,0
192480,note_on,120,0,5,,,,,,,,,4,,,69,0
192480,note_on,20,0,8,,,,,,,,,7,,,81,100
192480,note_on,120,0,6,,,,,,,,,5,,,45,0
192480,note_on,120,0,11,,,,,,,,,11,,,45,0
192480,note_on,0,0,3,,,,,,,,,2,,,49,0
192480,note_on,60,0,4,,,,,,,,,3,,,64,0
192480,note_on,120,0,9,,,,,,,,,8,,,69,0
192480,note_on,0,0,9,,,,,,,,,8,,,74,100
192480,note_on,0,0,4,,,,,,,,,3,,,57,0
192480,note_on,0,0,4,,,,,,,,,3,,,62,100
192480,note_on,0,0,4,,,,,,,,,3,,,66,100
192480,note_on,60,0,3,,,,,,,,,2,,,52,0
192480,note_on,0,0,6,,,,,,,,,5,,,50,100
192480,note_on,0,0,3,,,,,,,,,2,,,54,100
192480,note_on,0,0,3,,,,,,,,,2,,,50,100
192480,note_on,0,0,2,,,,,,,,,1,,,73,0
192480,note_on,120,0,10,,,,,,,,,10,,,57,0
192480,note_on,0,0,10,,,,,,,,,10,,,62,100
192510,note_on,0,0,8,,,,,,,,,7,,,86,100
192510,note_on,30,0,8,,,,,,,,,7,,,81,0
192510,note_on,30,0,7,,,,,,,,,6,,,81,0
192510,note_on,0,0,7,,,,,,,,,6,,,86,100
192540,note_on,0,0,7,,,,,,,,,6,,,85,100
192540,note_on,30,0,8,,,,,,,,,7,,,86,0
192540,note_on,30,0,7,,,,,,,,,6,,,86,0
192540,note_on,0,0,8,,,,,,,,,7,,,85,100
192570,note_on,30,0,7,,,,,,,,,6,,,85,0
192570,note_on,0,0,7,,,,,,,,,6,,,83,100
192570,note_on,30,0,8,,,,,,,,,7,,,85,0
192570,note_on,0,0,8,,,,,,,,,7,,,83,100
192600,note_on,120,0,3,,,,,,,,,2,,,50,0
192600,note_on,30,0,7,,,,,,,,,6,,,83,0
192600,note_on,120,0,10,,,,,,,,,10,,,62,0
192600,note_on,30,0,8,,,,,,,,,7,,,83,0
192600,note_on,0,0,3,,,,,,,,,2,,,54,0
192600,note_on,0,0,8,,,,,,,,,7,,,81,100
192600,note_on,120,0,11,,,,,,,,,11,,,50,0
192600,note_on,0,0,7,,,,,,,,,6,,,81,100
192600,note_on,0,0,4,,,,,,,,,3,,,62,0
192600,note_on,120,0,9,,,,,,,,,8,,,74,0
192600,note_on,0,0,1,,,,,,,,,0,,,90,0
192600,note_on,120,0,1,,,,,,,,,0,,,86,0
192600,note_on,120,0,4,,,,,,,,,3,,,66,0
192600,note_on,120,0,6,,,,,,,,,5,,,50,0
192600,note_on,120,0,5,,,,,,,,,4,,,69,0
192600,note_on,0,0,5,,,,,,,,,4,,,62,0
192600,note_on,120,0,2,,,,,,,,,1,,,74,0
192600,note_on,0,0,2,,,,,,,,,1,,,78,0
192640,note_on,40,0,8,,,,,,,,,7,,,81,0
192640,note_on,40,0,7,,,,,,,,,6,,,81,0
192660,note_on,20,0,8,,,,,,,,,7,,,81,100
192660,note_on,60,0,1,,,,,,,,,0,,,90,100
192660,note_on,0,0,2,,,,,,,,,1,,,74,100
192660,note_on,0,0,4,,,,,,,,,3,,,66,100
192660,note_on,60,0,3,,,,,,,,,2,,,50,100
192660,note_on,0,0,3,,,,,,,,,2,,,54,100
192660,note_on,20,0,7,,,,,,,,,6,,,81,100
192660,note_on,60,0,4,,,,,,,,,3,,,62,100
192660,note_on,60,0,2,,,,,,,,,1,,,78,100
192660,note_on,0,0,1,,,,,,,,,0,,,86,100
192700,note_on,40,0,8,,,,,,,,,7,,,81,0
192700,note_on,40,0,7,,,,,,,,,6,,,81,0
192720,note_on,60,0,4,,,,,,,,,3,,,66,0
192720,note_on,0,0,4,,,,,,,,,3,,,62,0
192720,note_on,20,0,8,,,,,,,,,7,,,81,100
192720,note_on,60,0,3,,,,,,,,,2,,,54,0
192720,note_on,0,0,1,,,,,,,,,0,,,91,100
192720,note_on,0,0,1,,,,,,,,,0,,,88,100
192720,note_on,0,0,1,,,,,,,,,0,,,90,0
192720,note_on,0,0,3,,,,,,,,,2,,,50,0
192720,note_on,0,0,4,,,,,,,,,3,,,64,100
192720,note_on,20,0,7,,,,,,,,,6,,,81,100
192720,note_on,0,0,3,,,,,,,,,2,,,55,100
192720,note_on,0,0,3,,,,,,,,,2,,,52,100
192720,note_on,60,0,2,,,,,,,,,1,,,74,0
192720,note_on,60,0,1,,,,,,,,,0,,,86,0
192720,note_on,0,0,2,,,,,,,,,1,,,78,0
192720,note_on,0,0,4,,,,,,,,,3,,,67,100
192720,note_on,0,0,2,,,,,,,,,1,,,79,100
192720,note_on,0,0,2,,,,,,,,,1,,,76,100
192760,note_on,40,0,7,,,,,,,,,6,,,81,0
192760,note_on,40,0,8,,,,,,,,,7,,,81,0
192780,note_on,20,0,8,,,,,,,,,7,,,81,100
192780,note_on,0,0,4,,,,,,,,,3,,,66,100
192780,note_on,0,0,4,,,,,,,,,3,,,62,100
192780,note_on,0,0,4,,,,,,,,,3,,,64,0
192780,note_on,60,0,4,,,,,,,,,3,,,67,0
192780,note_on,20,0,7,,,,,,,,,6,,,81,100
192780,note_on,0,0,2,,,,,,,,,1,,,74,100
192780,note_on,0,0,3,,,,,,,,,2,,,54,100
192780,note_on,0,0,3,,,,,,,,,2,,,50,100
192780,note_on,0,0,3,,,,,,,,,2,,,52,0
192780,note_on,60,0,3,,,,,,,,,2,,,55,0
192780,note_on,60,0,2,,,,,,,,,1,,,79,0
192780,note_on,0,0,2,,,,,,,,,1,,,76,0
192780,note_on,0,0,2,,,,,,,,,1,,,78,100
192780,note_on,60,0,1,,,,,,,,,0,,,91,0
192780,note_on,0,0,1,,,,,,,,,0,,,88,0
192780,note_on,0,0,1,,,,,,,,,0,,,86,100
192780,note_on,0,0,1,,,,,,,,,0,,,90,100
192820,note_on,40,0,7,,,,,,,,,6,,,81,0
192820,note_on,40,0,8,,,,,,,,,7,,,81,0
192840,note_on,20,0,7,,,,,,,,,6,,,81,100
192840,note_on,0,0,1,,,,,,,,,0,,,86,0
192840,note_on,60,0,1,,,,,,,,,0,,,90,0
192840,note_on,240,0,5,,,,,,,,,4,,,57,100
192840,note_on,0,0,5,,,,,,,,,4,,,69,100
192840,note_on,0,0,4,,,,,,,,,3,,,64,100
192840,note_on,240,0,6,,,,,,,,,5,,,45,100
192840,note_on,0,0,4,,,,,,,,,3,,,62,0
192840,note_on,60,0,4,,,,,,,,,3,,,66,0
192840,note_on,0,0,1,,,,,,,,,0,,,91,100
192840,note_on,240,0,10,,,,,,,,,10,,,57,100
192840,note_on,240,0,11,,,,,,,,,11,,,45,100
192840,note_on,0,0,4,,,,,,,,,3,,,67,100
192840,note_on,0,0,1,,,,,,,,,0,,,88,100
192840,note_on,240,0,9,,,,,,,,,8,,,69,100
192840,note_on,60,0,3,,,,,,,,,2,,,54,0
192840,note_on,0,0,2,,,,,,,,,1,,,74,0
192840,note_on,60,0,2,,,,,,,,,1,,,78,0
192840,note_on,0,0,2,,,,,,,,,1,,,79,100
192840,note_on,0,0,2,,,,,,,,,1,,,76,100
192840,note_on,0,0,3,,,,,,,,,2,,,50,0
192840,note_on,0,0,3,,,,,,,,,2,,,52,100
192840,note_on,20,0,8,,,,,,,,,7,,,81,100
192840,note_on,0,0,3,,,,,,,,,2,,,55,100
192880,note_on,40,0,7,,,,,,,,,6,,,81,0
192880,note_on,40,0,8,,,,,,,,,7,,,81,0
192900,note_on,0,0,4,,,,,,,,,3,,,64,0
192900,note_on,20,0,7,,,,,,,,,6,,,81,100
192900,note_on,60,0,4,,,,,,,,,3,,,67,0
192900,note_on,60,0,2,,,,,,,,,1,,,79,0
192900,note_on,0,0,2,,,,,,,,,1,,,76,0
192900,note_on,0,0,2,,,,,,,,,1,,,73,100
192900,note_on,60,0,3,,,,,,,,,2,,,55,0
192900,note_on,0,0,2,,,,,,,,,1,,,76,100
192900,note_on,0,0,3,,,,,,,,,2,,,52,0
192900,note_on,0,0,3,,,,,,,,,2,,,52,100
192900,note_on,60,0,1,,,,,,,,,0,,,91,0
192900,note_on,0,0,4,,,,,,,,,3,,,57,100
192900,note_on,20,0,8,,,,,,,,,7,,,81,100
192900,note_on,0,0,4,,,,,,,,,3,,,64,100
192900,note_on,0,0,1,,,,,,,,,0,,,88,0
192900,note_on,0,0,1,,,,,,,,,0,,,85,100
192900,note_on,0,0,1,,,,,,,,,0,,,88,100
192900,note_on,0,0,3,,,,,,,,,2,,,49,100
192940,note_on,40,0,7,,,,,,,,,6,,,81,0
192940,note_on,40,0,8,,,,,,,,,7,,,81,0
192960,note_on,60,0,4,,,,,,,,,3,,,64,0
192960,note_on,0,0,11,,,,,,,,,11,,,38,100
192960,note_on,0,0,4,,,,,,,,,3,,,62,100
192960,note_on,0,0,4,,,,,,,,,3,,,57,0
192960,note_on,0,0,9,,,,,,,,,8,,,62,100
192960,note_on,120,0,9,,,,,,,,,8,,,69,0
192960,note_on,0,0,4,,,,,,,,,3,,,66,100
192960,note_on,60,0,3,,,,,,,,,2,,,52,0
192960,note_on,120,0,11,,,,,,,,,11,,,45,0
192960,note_on,60,0,2,,,,,,,,,1,,,76,0
192960,note_on,0,0,3,,,,,,,,,2,,,50,100
192960,note_on,20,0,7,,,,,,,,,6,,,78,100
192960,note_on,120,0,5,,,,,,,,,4,,,69,0
192960,note_on,0,0,5,,,,,,,,,4,,,57,0
192960,note_on,0,0,5,,,,,,,,,4,,,62,100
192960,note_on,20,0,8,,,,,,,,,7,,,78,100
192960,note_on,0,0,2,,,,,,,,,1,,,73,0
192960,note_on,0,0,6,,,,,,,,,5,,,50,100
192960,note_on,120,0,10,,,,,,,,,10,,,57,0
192960,note_on,0,0,10,,,,,,,,,10,,,50,100
192960,note_on,120,0,6,,,,,,,,,5,,,45,0
192960,note_on,0,0,3,,,,,,,,,2,,,49,0
192960,note_on,0,0,1,,,,,,,,,0,,,86,100
192960,note_on,0,0,2,,,,,,,,,1,,,78,100
192960,note_on,0,0,2,,,,,,,,,1,,,74,100
192960,note_on,0,0,5,,,,,,,,,4,,,69,100
192960,note_on,0,0,3,,,,,,,,,2,,,54,100
192960,note_on,60,0,1,,,,,,,,,0,,,88,0
192960,note_on,0,0,1,,,,,,,,,0,,,85,0
193020,note_on,0,0,7,,,,,,,,,6,,,74,101
193020,note_on,0,0,8,,,,,,,,,7,,,74,101
193020,note_on,60,0,8,,,,,,,,,7,,,78,0
193020,note_on,60,0,7,,,,,,,,,6,,,78,0
193060,note_on,40,0,7,,,,,,,,,6,,,74,0
193060,note_on,40,0,8,,,,,,,,,7,,,74,0
193080,note_on,120,0,3,,,,,,,,,2,,,54,0
193080,note_on,0,0,3,,,,,,,,,2,,,50,0
193080,note_on,120,0,2,,,,,,,,,1,,,78,0
193080,note_on,120,0,1,,,,,,,,,0,,,86,0
193080,note_on,120,0,11,,,,,,,,,11,,,38,0
193080,note_on,120,0,6,,,,,,,,,5,,,50,0
193080,note_on,20,0,8,,,,,,,,,7,,,81,102
193080,note_on,120,0,10,,,,,,,,,10,,,50,0
193080,note_on,0,0,2,,,,,,,,,1,,,74,0
193080,note_on,0,0,5,,,,,,,,,4,,,62,0
193080,note_on,120,0,5,,,,,,,,,4,,,69,0
193080,note_on,20,0,7,,,,,,,,,6,,,81,102
193080,note_on,120,0,4,,,,,,,,,3,,,66,0
193080,note_on,0,0,4,,,,,,,,,3,,,62,0
193080,note_on,120,0,9,,,,,,,,,8,,,62,0
193120,note_on,40,0,7,,,,,,,,,6,,,81,0
193120,note_on,40,0,8,,,,,,,,,7,,,81,0
193140,note_on,20,0,7,,,,,,,,,6,,,81,103
193140,note_on,20,0,8,,,,,,,,,7,,,81,103
193180,note_on,40,0,7,,,,,,,,,6,,,81,0
193180,note_on,40,0,8,,,,,,,,,7,,,81,0
193200,note_on,20,0,7,,,,,,,,,6,,,78,104
193200,note_on,20,0,8,,,,,,,,,7,,,78,104
193260,note_on,60,0,8,,,,,,,,,7,,,78,0
193260,note_on,60,0,7,,,,,,,,,6,,,78,0
193260,note_on,0,0,7,,,,,,,,,6,,,74,105
193260,note_on,0,0,8,,,,,,,,,7,,,74,105
193300,note_on,40,0,7,,,,,,,,,6,,,74,0
193300,note_on,40,0,8,,,,,,,,,7,,,74,0
193320,note_on,240,0,2,,,,,,,,,1,,,81,106
193320,note_on,240,0,9,,,,,,,,,8,,,69,106
193320,note_on,20,0,7,,,,,,,,,6,,,69,106
193320,note_on,240,0,1,,,,,,,,,0,,,81,106
193320,note_on,240,0,6,,,,,,,,,5,,,45,106
193320,note_on,240,0,3,,,,,,,,,2,,,57,106
193320,note_on,20,0,8,,,,,,,,,7,,,69,106
193320,note_on,240,0,10,,,,,,,,,10,,,57,106
193320,note_on,240,0,5,,,,,,,,,4,,,69,106
193320,note_on,0,0,5,,,,,,,,,4,,,57,106
193320,note_on,0,0,4,,,,,,,,,3,,,69,106
193320,note_on,240,0,11,,,,,,,,,11,,,45,106
193320,note_on,240,0,4,,,,,,,,,3,,,57,106
193360,note_on,40,0,3,,,,,,,,,2,,,57,0
193360,note_on,40,0,8,,,,,,,,,7,,,69,0
193360,note_on,40,0,2,,,,,,,,,1,,,81,0
193360,note_on,40,0,10,,,,,,,,,10,,,57,0
193360,note_on,40,0,1,,,,,,,,,0,,,81,0
193360,note_on,40,0,9,,,,,,,,,8,,,69,0
193360,note_on,40,0,4,,,,,,,,,3,,,69,0
193360,note_on,0,0,4,,,,,,,,,3,,,57,0
193360,note_on,40,0,7,,,,,,,,,6,,,69,0
193360,note_on,40,0,11,,,,,,,,,11,,,45,0
193380,note_on,20,0,11,,,,,,,,,11,,,45,107
193380,note_on,20,0,2,,,,,,,,,1,,,81,107
193380,note_on,20,0,3,,,,,,,,,2,,,57,107
193380,note_on,20,0,4,,,,,,,,,3,,,57,107
193380,note_on,20,0,7,,,,,,,,,6,,,69,107
193380,note_on,20,0,1,,,,,,,,,0,,,81,107
193380,note_on,20,0,10,,,,,,,,,10,,,57,107
193380,note_on,20,0,8,,,,,,,,,7,,,69,107
193380,note_on,20,0,9,,,,,,,,,8,,,69,107
193380,note_on,0,0,4,,,,,,,,,3,,,69,107
193420,note_on,40,0,8,,,,,,,,,7,,,69,0
193420,note_on,40,0,11,,,,,,,,,11,,,45,0
193420,note_on,40,0,3,,,,,,,,,2,,,57,0
193420,note_on,40,0,2,,,,,,,,,1,,,81,0
193420,note_on,40,0,9,,,,,,,,,8,,,69,0
193420,note_on,40,0,7,,,,,,,,,6,,,69,0
193420,note_on,40,0,10,,,,,,,,,10,,,57,0
193420,note_on,40,0,1,,,,,,,,,0,,,81,0
193420,note_on,0,0,4,,,,,,,,,3,,,57,0
193420,note_on,40,0,4,,,,,,,,,3,,,69,0
193440,note_on,0,0,6,,,,,,,,,5,,,50,109
193440,note_on,120,0,6,,,,,,,,,5,,,45,0
193440,note_on,20,0,4,,,,,,,,,3,,,54,109
193440,note_on,20,0,3,,,,,,,,,2,,,54,109
193440,note_on,0,0,4,,,,,,,,,3,,,66,109
193440,note_on,20,0,1,,,,,,,,,0,,,78,109
193440,note_on,20,0,8,,,,,,,,,7,,,66,109
193440,note_on,20,0,10,,,,,,,,,10,,,54,109
193440,note_on,120,0,5,,,,,,,,,4,,,57,0
193440,note_on,0,0,5,,,,,,,,,4,,,69,0
193440,note_on,0,0,5,,,,,,,,,4,,,62,109
193440,note_on,20,0,11,,,,,,,,,11,,,42,109
193440,note_on,20,0,7,,,,,,,,,6,,,66,109
193440,note_on,0,0,5,,,,,,,,,4,,,74,109
193440,note_on,20,0,9,,,,,,,,,8,,,66,109
193440,note_on,20,0,2,,,,,,,,,1,,,78,109
193500,note_on,60,0,3,,,,,,,,,2,,,54,0
193500,note_on,60,0,9,,,,,,,,,8,,,66,0
193500,note_on,0,0,4,,,,,,,,,3,,,62,110
193500,note_on,0,0,4,,,,,,,,,3,,,50,110
193500,note_on,0,0,3,,,,,,,,,2,,,50,110
193500,note_on,60,0,4,,,,,,,,,3,,,66,0
193500,note_on,0,0,4,,,,,,,,,3,,,54,0
193500,note_on,0,0,9,,,,,,,,,8,,,62,110
193500,note_on,0,0,2,,,,,,,,,1,,,74,110
193500,note_on,60,0,11,,,,,,,,,11,,,42,0
193500,note_on,60,0,2,,,,,,,,,1,,,78,0
193500,note_on,0,0,8,,,,,,,,,7,,,62,110
193500,note_on,60,0,10,,,,,,,,,10,,,54,0
193500,note_on,0,0,10,,,,,,,,,10,,,50,110
193500,note_on,60,0,8,,,,,,,,,7,,,66,0
193500,note_on,60,0,7,,,,,,,,,6,,,66,0
193500,note_on,0,0,7,,,,,,,,,6,,,62,110
193500,note_on,0,0,1,,,,,,,,,0,,,74,110
193500,note_on,60,0,1,,,,,,,,,0,,,78,0
193500,note_on,0,0,11,,,,,,,,,11,,,38,110
193540,note_on,40,0,8,,,,,,,,,7,,,62,0
193540,note_on,40,0,9,,,,,,,,,8,,,62,0
193540,note_on,40,0,1,,,,,,,,,0,,,74,0
193540,note_on,0,0,4,,,,,,,,,3,,,62,0
193540,note_on,40,0,4,,,,,,,,,3,,,50,0
193540,note_on,40,0,2,,,,,,,,,1,,,74,0
193540,note_on,40,0,7,,,,,,,,,6,,,62,0
193540,note_on,40,0,10,,,,,,,,,10,,,50,0
193540,note_on,40,0,11,,,,,,,,,11,,,38,0
193540,note_on,40,0,3,,,,,,,,,2,,,50,0
193560,note_on,20,0,7,,,,,,,,,6,,,81,111
193560,note_on,0,0,5,,,,,,,,,4,,,62,0
193560,note_on,120,0,5,,,,,,,,,4,,,74,0
193560,note_on,20,0,8,,,,,,,,,7,,,81,111
193560,note_on,120,0,6,,,,,,,,,5,,,50,0
193600,note_on,40,0,8,,,,,,,,,7,,,81,0
193600,note_on,40,0,7,,,,,,,,,6,,,81,0
193620,note_on,20,0,7,,,,,,,,,6,,,81,112
193620,note_on,20,0,8,,,,,,,,,7,,,81,112
193660,note_on,40,0,7,,,,,,,,,6,,,81,0
193660,note_on,40,0,8,,,,,,,,,7,,,81,0
193680,note_on,20,0,8,,,,,,,,,7,,,78,113
193680,note_on,20,0,7,,,,,,,,,6,,,78,113
193740,note_on,0,0,7,,,,,,,,,6,,,74,114
193740,note_on,60,0,7,,,,,,,,,6,,,78,0
193740,note_on,0,0,8,,,,,,,,,7,,,74,114
193740,note_on,60,0,8,,,,,,,,,7,,,78,0
193780,note_on,40,0,7,,,,,,,,,6,,,74,0
193780,note_on,40,0,8,,,,,,,,,7,,,74,0
193800,note_on,20,0,8,,,,,,,,,7,,,69,115
193800,note_on,260,0,2,,,,,,,,,1,,,81,115
193800,note_on,260,0,11,,,,,,,,,11,,,45,115
193800,note_on,260,0,10,,,,,,,,,10,,,57,115
193800,note_on,240,0,5,,,,,,,,,4,,,69,115
193800,note_on,240,0,6,,,,,,,,,5,,,45,115
193800,note_on,0,0,5,,,,,,,,,4,,,57,115
193800,note_on,0,0,4,,,,,,,,,3,,,69,115
193800,note_on,260,0,9,,,,,,,,,8,,,69,115
193800,note_on,260,0,1,,,,,,,,,0,,,81,115
193800,note_on,20,0,7,,,,,,,,,6,,,69,115
193800,note_on,260,0,3,,,,,,,,,2,,,57,115
193800,note_on,260,0,4,,,,,,,,,3,,,57,115
193840,note_on,40,0,10,,,,,,,,,10,,,57,0
193840,note_on,40,0,3,,,,,,,,,2,,,57,0
193840,note_on,40,0,1,,,,,,,,,0,,,81,0
193840,note_on,40,0,8,,,,,,,,,7,,,69,0
193840,note_on,40,0,2,,,,,,,,,1,,,81,0
193840,note_on,40,0,11,,,,,,,,,11,,,45,0
193840,note_on,0,0,4,,,,,,,,,3,,,57,0
193840,note_on,40,0,7,,,,,,,,,6,,,69,0
193840,note_on,40,0,4,,,,,,,,,3,,,69,0
193840,note_on,40,0,9,,,,,,,,,8,,,69,0
193860,note_on,20,0,2,,,,,,,,,1,,,81,116
193860,note_on,20,0,10,,,,,,,,,10,,,57,116
193860,note_on,20,0,1,,,,,,,,,0,,,81,116
193860,note_on,0,0,4,,,,,,,,,3,,,69,116
193860,note_on,20,0,9,,,,,,,,,8,,,69,116
193860,note_on,20,0,4,,,,,,,,,3,,,57,116
193860,note_on,20,0,7,,,,,,,,,6,,,69,116
193860,note_on,20,0,8,,,,,,,,,7,,,69,116
193860,note_on,20,0,11,,,,,,,,,11,,,45,116
193860,note_on,20,0,3,,,,,,,,,2,,,57,116
193900,note_on,40,0,10,,,,,,,,,10,,,57,0
193900,note_on,0,0,4,,,,,,,,,3,,,57,0
193900,note_on,40,0,8,,,,,,,,,7,,,69,0
193900,note_on,40,0,4,,,,,,,,,3,,,69,0
193900,note_on,40,0,9,,,,,,,,,8,,,69,0
193900,note_on,40,0,11,,,,,,,,,11,,,45,0
193900,note_on,40,0,7,,,,,,,,,6,,,69,0
193900,note_on,40,0,3,,,,,,,,,2,,,57,0
193900,note_on,40,0,2,,,,,,,,,1,,,81,0
193900,note_on,40,0,1,,,,,,,,,0,,,81,0
193920,note_on,120,0,5,,,,,,,,,4,,,57,0
193920,note_on,20,0,4,,,,,,,,,3,,,66,118
193920,note_on,120,0,6,,,,,,,,,5,,,45,0
193920,note_on,20,0,11,,,,,,,,,11,,,42,118
193920,note_on,20,0,10,,,,,,,,,10,,,54,118
193920,note_on,0,0,5,,,,,,,,,4,,,69,0
193920,note_on,20,0,8,,,,,,,,,7,,,66,118
193920,note_on,20,0,2,,,,,,,,,1,,,78,118
193920,note_on,0,0,6,,,,,,,,,5,,,50,118
193920,note_on,0,0,5,,,,,,,,,4,,,62,118
193920,set_tempo,14880,1,0,,,,,,350795,,,,,,,
193920,note_on,0,0,4,,,,,,,,,3,,,54,118
193920,note_on,20,0,3,,,,,,,,,2,,,54,118
193920,note_on,20,0,1,,,,,,,,,0,,,78,118
193920,note_on,20,0,9,,,,,,,,,8,,,66,118
193920,note_on,20,0,7,,,,,,,,,6,,,66,118
193920,note_on,0,0,5,,,,,,,,,4,,,74,118
193935,set_tempo,15,1,0,,,,,,352734,,,,,,,
193951,set_tempo,16,1,0,,,,,,354694,,,,,,,
193964,set_tempo,13,1,0,,,,,,356676,,,,,,,
193980,note_on,60,0,3,,,,,,,,,2,,,54,0
193980,note_on,0,0,3,,,,,,,,,2,,,50,119
193980,note_on,60,0,4,,,,,,,,,3,,,54,0
193980,note_on,0,0,4,,,,,,,,,3,,,66,0
193980,note_on,0,0,4,,,,,,,,,3,,,50,119
193980,note_on,0,0,4,,,,,,,,,3,,,62,119
193980,set_tempo,16,1,0,,,,,,358680,,,,,,,
193980,note_on,0,0,8,,,,,,,,,7,,,62,119
193980,note_on,60,0,10,,,,,,,,,10,,,54,0
193980,note_on,0,0,10,,,,,,,,,10,,,50,119
193980,note_on,60,0,1,,,,,,,,,0,,,78,0
193980,note_on,0,0,7,,,,,,,,,6,,,62,119
193980,note_on,60,0,7,,,,,,,,,6,,,66,0
193980,note_on,60,0,2,,,,,,,,,1,,,78,0
193980,note_on,0,0,2,,,,,,,,,1,,,74,119
193980,note_on,0,0,9,,,,,,,,,8,,,62,119
193980,note_on,60,0,9,,,,,,,,,8,,,66,0
193980,note_on,0,0,11,,,,,,,,,11,,,38,119
193980,note_on,60,0,11,,,,,,,,,11,,,42,0
193980,note_on,60,0,8,,,,,,,,,7,,,66,0
193980,note_on,0,0,1,,,,,,,,,0,,,74,119
193995,set_tempo,15,1,0,,,,,,360707,,,,,,,
194008,set_tempo,13,1,0,,,,,,362757,,,,,,,
194010,note_on,90,0,5,,,,,,,,,4,,,74,0
194010,note_on,0,0,5,,,,,,,,,4,,,62,0
194020,note_on,40,0,2,,,,,,,,,1,,,74,0
194020,note_on,40,0,8,,,,,,,,,7,,,62,0
194020,note_on,40,0,7,,,,,,,,,6,,,62,0
194020,note_on,40,0,4,,,,,,,,,3,,,62,0
194020,note_on,40,0,1,,,,,,,,,0,,,74,0
194020,note_on,0,0,4,,,,,,,,,3,,,50,0
194020,note_on,40,0,9,,,,,,,,,8,,,62,0
194020,note_on,40,0,10,,,,,,,,,10,,,50,0
194020,note_on,40,0,3,,,,,,,,,2,,,50,0
194020,note_on,40,0,11,,,,,,,,,11,,,38,0
194024,set_tempo,16,1,0,,,,,,364830,,,,,,,
194036,set_tempo,12,1,0,,,,,,366928,,,,,,,
194040,note_on,20,0,1,,,,,,,,,0,,,81,120
194040,note_on,20,0,3,,,,,,,,,2,,,57,120
194040,note_on,20,0,8,,,,,,,,,7,,,69,120
194040,note_on,20,0,11,,,,,,,,,11,,,45,120
194040,note_on,0,0,5,,,,,,,,,4,,,69,120
194040,note_on,20,0,7,,,,,,,,,6,,,69,120
194040,note_on,120,0,6,,,,,,,,,5,,,50,0
194040,note_on,0,0,6,,,,,,,,,5,,,45,120
194040,note_on,20,0,10,,,,,,,,,10,,,57,120
194040,note_on,0,0,4,,,,,,,,,3,,,69,120
194040,note_on,20,0,9,,,,,,,,,8,,,69,120
194040,note_on,30,0,5,,,,,,,,,4,,,57,120
194040,note_on,20,0,2,,,,,,,,,1,,,81,120
194040,note_on,20,0,4,,,,,,,,,3,,,57,120
194052,set_tempo,16,1,0,,,,,,369049,,,,,,,
194068,set_tempo,16,1,0,,,,,,371195,,,,,,,
194080,note_on,0,0,4,,,,,,,,,3,,,57,0
194080,note_on,40,0,4,,,,,,,,,3,,,69,0
194080,note_on,40,0,3,,,,,,,,,2,,,57,0
194080,note_on,40,0,10,,,,,,,,,10,,,57,0
194080,note_on,40,0,8,,,,,,,,,7,,,69,0
194080,note_on,40,0,1,,,,,,,,,0,,,81,0
194080,note_on,40,0,7,,,,,,,,,6,,,69,0
194080,note_on,40,0,9,,,,,,,,,8,,,69,0
194080,note_on,40,0,2,,,,,,,,,1,,,81,0
194080,note_on,40,0,11,,,,,,,,,11,,,45,0
194081,set_tempo,13,1,0,,,,,,373367,,,,,,,
194096,set_tempo,15,1,0,,,,,,375563,,,,,,,
194100,note_on,20,0,10,,,,,,,,,10,,,57,121
194100,note_on,20,0,4,,,,,,,,,3,,,57,121
194100,note_on,20,0,3,,,,,,,,,2,,,57,121
194100,note_on,0,0,4,,,,,,,,,3,,,69,121
194100,note_on,20,0,11,,,,,,,,,11,,,45,121
194100,note_on,20,0,2,,,,,,,,,1,,,81,121
194100,note_on,20,0,7,,,,,,,,,6,,,69,121
194100,note_on,20,0,9,,,,,,,,,8,,,69,121
194100,note_on,20,0,8,,,,,,,,,7,,,69,121
194100,note_on,20,0,1,,,,,,,,,0,,,81,121
194109,set_tempo,13,1,0,,,,,,377786,,,,,,,
194125,set_tempo,16,1,0,,,,,,380035,,,,,,,
194130,note_on,90,0,5,,,,,,,,,4,,,69,0
194130,note_on,0,0,5,,,,,,,,,4,,,57,0
194140,note_on,40,0,7,,,,,,,,,6,,,69,0
194140,note_on,40,0,2,,,,,,,,,1,,,81,0
194140,note_on,40,0,9,,,,,,,,,8,,,69,0
194140,note_on,40,0,4,,,,,,,,,3,,,69,0
194140,note_on,0,0,4,,,,,,,,,3,,,57,0
194140,note_on,40,0,3,,,,,,,,,2,,,57,0
194140,note_on,40,0,8,,,,,,,,,7,,,69,0
194140,note_on,40,0,10,,,,,,,,,10,,,57,0
194140,note_on,40,0,11,,,,,,,,,11,,,45,0
194140,note_on,40,0,1,,,,,,,,,0,,,81,0
194141,set_tempo,16,1,0,,,,,,382312,,,,,,,
194153,set_tempo,12,1,0,,,,,,384615,,,,,,,
194160,note_on,20,0,8,,,,,,,,,7,,,66,122
194160,note_on,0,0,5,,,,,,,,,4,,,74,122
194160,note_on,30,0,5,,,,,,,,,4,,,62,122
194160,note_on,20,0,11,,,,,,,,,11,,,42,122
194160,note_on,20,0,1,,,,,,,,,0,,,78,122
194160,note_on,20,0,2,,,,,,,,,1,,,78,122
194160,note_on,20,0,7,,,,,,,,,6,,,66,122
194160,note_on,120,0,6,,,,,,,,,5,,,45,0
194160,note_on,20,0,4,,,,,,,,,3,,,66,122
194160,note_on,0,0,4,,,,,,,,,3,,,54,122
194160,note_on,20,0,9,,,,,,,,,8,,,66,122
194160,note_on,0,0,6,,,,,,,,,5,,,50,122
194160,note_on,20,0,3,,,,,,,,,2,,,54,122
194160,note_on,20,0,10,,,,,,,,,10,,,54,122
194169,set_tempo,16,1,0,,,,,,386947,,,,,,,
194182,set_tempo,13,1,0,,,,,,389307,,,,,,,
194197,set_tempo,15,1,0,,,,,,391696,,,,,,,
194213,set_tempo,16,1,0,,,,,,394115,,,,,,,
194220,note_on,0,0,8,,,,,,,,,7,,,62,123
194220,note_on,0,0,7,,,,,,,,,6,,,62,123
194220,note_on,60,0,10,,,,,,,,,10,,,54,0
194220,note_on,0,0,10,,,,,,,,,10,,,50,123
194220,note_on,60,0,9,,,,,,,,,8,,,66,0
194220,note_on,0,0,9,,,,,,,,,8,,,62,123
194220,note_on,60,0,8,,,,,,,,,7,,,66,0
194220,note_on,60,0,7,,,,,,,,,6,,,66,0
194220,note_on,0,0,2,,,,,,,,,1,,,74,123
194220,note_on,0,0,3,,,,,,,,,2,,,50,123
194220,note_on,60,0,3,,,,,,,,,2,,,54,0
194220,note_on,60,0,2,,,,,,,,,1,,,78,0
194220,note_on,60,0,4,,,,,,,,,3,,,54,0
194220,note_on,0,0,4,,,,,,,,,3,,,66,0
194220,note_on,0,0,4,,,,,,,,,3,,,50,123
194220,note_on,60,0,11,,,,,,,,,11,,,42,0
194220,note_on,0,0,11,,,,,,,,,11,,,38,123
194220,note_on,60,0,1,,,,,,,,,0,,,78,0
194220,note_on,0,0,1,,,,,,,,,0,,,74,123
194220,note_on,0,0,4,,,,,,,,,3,,,62,123
194226,set_tempo,13,1,0,,,,,,396563,,,,,,,
194242,set_tempo,16,1,0,,,,,,399042,,,,,,,
194250,note_on,0,0,5,,,,,,,,,4,,,62,0
194250,note_on,90,0,5,,,,,,,,,4,,,74,0
194257,set_tempo,15,1,0,,,,,,401553,,,,,,,
194260,note_on,0,0,4,,,,,,,,,3,,,50,0
194260,note_on,40,0,3,,,,,,,,,2,,,50,0
194260,note_on,40,0,7,,,,,,,,,6,,,62,0
194260,note_on,40,0,2,,,,,,,,,1,,,74,0
194260,note_on,40,0,4,,,,,,,,,3,,,62,0
194260,note_on,40,0,11,,,,,,,,,11,,,38,0
194260,note_on,40,0,9,,,,,,,,,8,,,62,0
194260,note_on,40,0,10,,,,,,,,,10,,,50,0
194260,note_on,40,0,1,,,,,,,,,0,,,74,0
194260,note_on,40,0,8,,,,,,,,,7,,,62,0
194270,set_tempo,13,1,0,,,,,,404095,,,,,,,
194280,note_on,0,0,6,,,,,,,,,5,,,45,124
194280,note_on,120,0,6,,,,,,,,,5,,,50,0
194280,note_on,20,0,7,,,,,,,,,6,,,69,124
194280,note_on,20,0,4,,,,,,,,,3,,,57,124
194280,note_on,20,0,9,,,,,,,,,8,,,69,124
194280,note_on,20,0,10,,,,,,,,,10,,,57,124
194280,note_on,0,0,4,,,,,,,,,3,,,69,124
194280,note_on,20,0,8,,,,,,,,,7,,,69,124
194280,note_on,20,0,3,,,,,,,,,2,,,57,124
194280,note_on,20,0,2,,,,,,,,,1,,,81,124
194280,note_on,30,0,5,,,,,,,,,4,,,57,124
194280,note_on,0,0,5,,,,,,,,,4,,,69,124
194280,note_on,20,0,1,,,,,,,,,0,,,81,124
194280,note_on,20,0,11,,,,,,,,,11,,,45,124
194286,set_tempo,16,1,0,,,,,,406669,,,,,,,
194298,set_tempo,12,1,0,,,,,,409277,,,,,,,
194314,set_tempo,16,1,0,,,,,,411918,,,,,,,
194320,note_on,40,0,10,,,,,,,,,10,,,57,0
194320,note_on,40,0,7,,,,,,,,,6,,,69,0
194320,note_on,40,0,11,,,,,,,,,11,,,45,0
194320,note_on,40,0,1,,,,,,,,,0,,,81,0
194320,note_on,40,0,9,,,,,,,,,8,,,69,0
194320,note_on,40,0,4,,,,,,,,,3,,,69,0
194320,note_on,40,0,2,,,,,,,,,1,,,81,0
194320,note_on,0,0,4,,,,,,,,,3,,,57,0
194320,note_on,40,0,8,,,,,,,,,7,,,69,0
194320,note_on,40,0,3,,,,,,,,,2,,,57,0
194330,set_tempo,16,1,0,,,,,,414594,,,,,,,
194340,note_on,0,0,4,,,,,,,,,3,,,69,125
194340,note_on,20,0,7,,,,,,,,,6,,,69,125
194340,note_on,20,0,8,,,,,,,,,7,,,69,125
194340,note_on,20,0,4,,,,,,,,,3,,,57,125
194340,note_on,20,0,2,,,,,,,,,1,,,81,125
194340,note_on,20,0,3,,,,,,,,,2,,,57,125
194340,note_on,20,0,10,,,,,,,,,10,,,57,125
194340,note_on,20,0,1,,,,,,,,,0,,,81,125
194340,note_on,20,0,9,,,,,,,,,8,,,69,125
194340,note_on,20,0,11,,,,,,,,,11,,,45,125
194343,set_tempo,13,1,0,,,,,,417304,,,,,,,
194358,set_tempo,15,1,0,,,,,,420050,,,,,,,
194370,note_on,90,0,5,,,,,,,,,4,,,69,0
194370,note_on,0,0,5,,,,,,,,,4,,,57,0
194371,set_tempo,13,1,0,,,,,,422833,,,,,,,
194380,note_on,40,0,2,,,,,,,,,1,,,81,0
194380,note_on,0,0,4,,,,,,,,,3,,,57,0
194380,note_on,40,0,3,,,,,,,,,2,,,57,0
194380,note_on,40,0,8,,,,,,,,,7,,,69,0
194380,note_on,40,0,10,,,,,,,,,10,,,57,0
194380,note_on,40,0,4,,,,,,,,,3,,,69,0
194380,note_on,40,0,7,,,,,,,,,6,,,69,0
194380,note_on,40,0,9,,,,,,,,,8,,,69,0
194380,note_on,40,0,1,,,,,,,,,0,,,81,0
194380,note_on,40,0,11,,,,,,,,,11,,,45,0
194387,set_tempo,16,1,0,,,,,,425653,,,,,,,
194400,note_on,20,0,7,,,,,,,,,6,,,74,127
194400,note_on,0,0,5,,,,,,,,,4,,,74,127
194400,note_on,0,0,1,,,,,,,,,0,,,78,127
194400,note_on,20,0,1,,,,,,,,,0,,,86,127
194400,note_on,20,0,9,,,,,,,,,8,,,62,127
194400,note_on,20,0,2,,,,,,,,,1,,,78,127
194400,note_on,0,0,2,,,,,,,,,1,,,74,127
194400,note_on,20,0,11,,,,,,,,,11,,,38,127
194400,note_on,30,0,5,,,,,,,,,4,,,62,127
194400,note_on,20,0,10,,,,,,,,,10,,,50,127
194400,note_on,20,0,8,,,,,,,,,7,,,74,127
194400,note_on,120,0,6,,,,,,,,,5,,,45,0
194400,note_on,0,0,6,,,,,,,,,5,,,50,127
194400,note_on,0,0,4,,,,,,,,,3,,,66,127
194400,note_on,20,0,3,,,,,,,,,2,,,50,127
194400,note_on,20,0,4,,,,,,,,,3,,,62,127
194403,set_tempo,16,1,0,,,,,,428510,,,,,,,
194415,set_tempo,12,1,0,,,,,,431406,,,,,,,
194431,set_tempo,16,1,0,,,,,,434342,,,,,,,
194444,set_tempo,13,1,0,,,,,,437318,,,,,,,
194460,set_tempo,16,1,0,,,,,,440335,,,,,,,
194475,set_tempo,15,1,0,,,,,,443393,,,,,,,
194488,set_tempo,13,1,0,,,,,,446495,,,,,,,
194490,note_on,90,0,11,,,,,,,,,11,,,38,0
194490,note_on,90,0,7,,,,,,,,,6,,,74,0
194490,note_on,90,0,5,,,,,,,,,4,,,74,0
194490,note_on,0,0,5,,,,,,,,,4,,,62,0
194490,note_on,90,0,1,,,,,,,,,0,,,78,0
194490,note_on,90,0,10,,,,,,,,,10,,,50,0
194490,note_on,0,0,1,,,,,,,,,0,,,86,0
194490,note_on,90,0,9,,,,,,,,,8,,,62,0
194490,note_on,90,0,2,,,,,,,,,1,,,74,0
194490,note_on,0,0,2,,,,,,,,,1,,,78,0
194490,note_on,90,0,3,,,,,,,,,2,,,50,0
194490,note_on,90,0,4,,,,,,,,,3,,,66,0
194490,note_on,0,0,4,,,,,,,,,3,,,62,0
194490,note_on,90,0,8,,,,,,,,,7,,,74,0
194504,set_tempo,16,1,0,,,,,,449640,,,,,,,
194516,set_tempo,12,1,0,,,,,,452830,,,,,,,
194520,note_on,30,0,3,,,,,,,,,2,,,50,127
194520,note_on,30,0,11,,,,,,,,,11,,,38,127
194520,note_on,30,0,4,,,,,,,,,3,,,50,127
194520,note_on,30,0,1,,,,,,,,,0,,,86,127
194520,note_on,0,0,8,,,,,,,,,7,,,78,127
194520,note_on,0,0,1,,,,,,,,,0,,,78,127
194520,note_on,0,0,2,,,,,,,,,1,,,78,127
194520,note_on,30,0,2,,,,,,,,,1,,,81,127
194520,note_on,0,0,5,,,,,,,,,4,,,66,127
194520,note_on,30,0,5,,,,,,,,,4,,,69,127
194520,note_on,0,0,4,,,,,,,,,3,,,62,127
194520,note_on,0,0,7,,,,,,,,,6,,,81,127
194520,note_on,0,0,8,,,,,,,,,7,,,62,127
194520,note_on,30,0,9,,,,,,,,,8,,,62,127
194520,note_on,0,0,7,,,,,,,,,6,,,62,127
194520,note_on,120,0,6,,,,,,,,,5,,,50,0
194520,note_on,30,0,7,,,,,,,,,6,,,69,127
194520,note_on,0,0,6,,,,,,,,,5,,,50,127
194520,note_on,30,0,8,,,,,,,,,7,,,69,127
194520,set_tempo,4,1,0,,,,,,459348,,,,,,,
194520,note_on,30,0,10,,,,,,,,,10,,,50,127
194532,set_tempo,12,1,0,,,,,,462677,,,,,,,
194545,set_tempo,13,1,0,,,,,,466056,,,,,,,
194554,set_tempo,9,1,0,,,,,,469484,,,,,,,
194567,set_tempo,13,1,0,,,,,,472962,,,,,,,
194576,set_tempo,9,1,0,,,,,,476493,,,,,,,
194589,set_tempo,13,1,0,,,,,,480077,,,,,,,
194598,set_tempo,9,1,0,,,,,,483715,,,,,,,
194610,note_on,90,0,7,,,,,,,,,6,,,81,0
194610,note_on,0,0,8,,,,,,,,,7,,,62,0
194610,note_on,90,0,10,,,,,,,,,10,,,50,0
194610,note_on,90,0,8,,,,,,,,,7,,,78,0
194610,note_on,90,0,2,,,,,,,,,1,,,78,0
194610,note_on,0,0,2,,,,,,,,,1,,,81,0
194610,note_on,0,0,8,,,,,,,,,7,,,69,0
194610,note_on,90,0,9,,,,,,,,,8,,,62,0
194610,note_on,90,0,1,,,,,,,,,0,,,78,0
194610,note_on,0,0,4,,,,,,,,,3,,,50,0
194610,note_on,0,0,5,,,,,,,,,4,,,69,0
194610,note_on,0,0,7,,,,,,,,,6,,,62,0
194610,note_on,0,0,7,,,,,,,,,6,,,69,0
194610,note_on,90,0,3,,,,,,,,,2,,,50,0
194610,note_on,90,0,11,,,,,,,,,11,,,38,0
194610,note_on,0,0,1,,,,,,,,,0,,,86,0
194610,note_on,90,0,5,,,,,,,,,4,,,66,0
194610,note_on,90,0,4,,,,,,,,,3,,,62,0
194611,set_tempo,13,1,0,,,,,,487409,,,,,,,
194617,set_tempo,6,1,0,,,,,,498836,,,,,,,
194621,set_tempo,4,1,0,,,,,,585823,,,,,,,
194624,set_tempo,3,1,0,,,,,,645023,,,,,,,
194627,set_tempo,3,1,0,,,,,,560119,,,,,,,
194630,set_tempo,3,1,0,,,,,,498836,,,,,,,
194633,set_tempo,3,1,0,,,,,,494968,,,,,,,
194640,note_on,30,0,10,,,,,,,,,10,,,50,127
194640,note_on,30,0,11,,,,,,,,,11,,,38,127
194640,note_on,30,0,3,,,,,,,,,2,,,50,127
194640,note_on,30,0,8,,,,,,,,,7,,,69,127
194640,note_on,30,0,4,,,,,,,,,3,,,50,127
194640,note_on,0,0,8,,,,,,,,,7,,,62,127
194640,note_on,0,0,4,,,,,,,,,3,,,62,127
194640,note_on,0,0,2,,,,,,,,,1,,,78,127
194640,note_on,30,0,7,,,,,,,,,6,,,62,127
194640,note_on,0,0,7,,,,,,,,,6,,,74,127
194640,note_on,0,0,5,,,,,,,,,4,,,66,127
194640,note_on,0,0,8,,,,,,,,,7,,,78,127
194640,note_on,30,0,5,,,,,,,,,4,,,62,127
194640,note_on,0,0,1,,,,,,,,,0,,,78,127
194640,note_on,0,0,7,,,,,,,,,6,,,86,127
194640,note_on,30,0,9,,,,,,,,,8,,,62,127
194640,note_on,0,0,6,,,,,,,,,5,,,50,127
194640,note_on,120,0,6,,,,,,,,,5,,,50,0
194640,note_on,30,0,2,,,,,,,,,1,,,74,127
194640,note_on,30,0,1,,,,,,,,,0,,,86,127
194643,set_tempo,10,1,0,,,,,,498836,,,,,,,
194655,set_tempo,12,1,0,,,,,,502765,,,,,,,
194668,set_tempo,13,1,0,,,,,,506757,,,,,,,
194677,set_tempo,9,1,0,,,,,,510812,,,,,,,
194690,set_tempo,13,1,0,,,,,,514933,,,,,,,
194700,set_tempo,10,1,0,,,,,,519121,,,,,,,
194712,set_tempo,12,1,0,,,,,,523378,,,,,,,
194722,set_tempo,10,1,0,,,,,,527704,,,,,,,
194730,end_of_track,0,1,11,,,,,,,,,,,,,
194730,note_on,0,0,2,,,,,,,,,1,,,74,0
194730,end_of_track,0,1,2,,,,,,,,,,,,,
194730,note_on,90,0,2,,,,,,,,,1,,,78,0
194730,note_on,90,0,9,,,,,,,,,8,,,62,0
194730,end_of_track,0,1,9,,,,,,,,,,,,,
194730,end_of_track,0,1,1,,,,,,,,,,,,,
194730,note_on,0,0,1,,,,,,,,,0,,,86,0
194730,note_on,90,0,1,,,,,,,,,0,,,78,0
194730,note_on,90,0,10,,,,,,,,,10,,,50,0
194730,end_of_track,0,1,10,,,,,,,,,,,,,
194730,note_on,0,0,8,,,,,,,,,7,,,62,0
194730,note_on,0,0,8,,,,,,,,,7,,,69,0
194730,note_on,90,0,8,,,,,,,,,7,,,78,0
194730,end_of_track,0,1,3,,,,,,,,,,,,,
194730,note_on,90,0,4,,,,,,,,,3,,,62,0
194730,note_on,0,0,4,,,,,,,,,3,,,50,0
194730,end_of_track,0,1,4,,,,,,,,,,,,,
194730,note_on,90,0,5,,,,,,,,,4,,,66,0
194730,note_on,0,0,5,,,,,,,,,4,,,62,0
194730,end_of_track,0,1,5,,,,,,,,,,,,,
194730,note_on,0,0,7,,,,,,,,,6,,,62,0
194730,note_on,0,0,7,,,,,,,,,6,,,74,0
194730,note_on,90,0,7,,,,,,,,,6,,,86,0
194730,note_on,90,0,11,,,,,,,,,11,,,38,0
194730,note_on,90,0,3,,,,,,,,,2,,,50,0
194730,end_of_track,0,1,8,,,,,,,,,,,,,
194734,set_tempo,12,1,0,,,,,,532104,,,,,,,
194744,set_tempo,10,1,0,,,,,,536577,,,,,,,
194756,set_tempo,12,1,0,,,,,,541126,,,,,,,
194760,note_on,120,0,6,,,,,,,,,5,,,50,0
194760,end_of_track,0,1,6,,,,,,,,,,,,,
194766,set_tempo,10,1,0,,,,,,545752,,,,,,,
194778,set_tempo,12,1,0,,,,,,550459,,,,,,,
194791,set_tempo,13,1,0,,,,,,555247,,,,,,,
194801,set_tempo,10,1,0,,,,,,560119,,,,,,,
194813,set_tempo,12,1,0,,,,,,565078,,,,,,,
194823,set_tempo,10,1,0,,,,,,570125,,,,,,,
194835,set_tempo,12,1,0,,,,,,575264,,,,,,,
194845,set_tempo,10,1,0,,,,,,580495,,,,,,,
194857,set_tempo,12,1,0,,,,,,585823,,,,,,,
194867,set_tempo,10,1,0,,,,,,591250,,,,,,,
194880,set_tempo,13,1,0,,,,,,596777,,,,,,,
194889,set_tempo,9,1,0,,,,,,602410,,,,,,,
194889,end_of_track,0,1,0,,,,,,,,,,,,,
195360,note_on,630,0,7,,,,,,,,,6,,,73,1
195480,end_of_track,0,1,7,,,,,,,,,,,,,
195480,note_on,120,0,7,,,,,,,,,6,,,73,0
