,note,step,duration,channel,velocity
0,62.0,0,540,2.0,0.0
1,46.0,0,540,1.0,0.0
2,70.0,0,540,2.0,0.0
3,58.0,46,540,1.0,0.0
4,65.0,0,540,0.0,0.0
5,34.0,0,90,7.0,0.0
6,46.0,0,90,5.0,0.0
7,58.0,96,90,4.0,0.0
8,70.0,0,540,3.0,0.0
9,62.0,0,540,3.0,0.0
10,74.0,0,540,0.0,0.0
11,46.0,0,90,5.0,0.0
12,58.0,0,90,4.0,0.0
13,34.0,96,90,7.0,0.0
14,58.0,0,90,4.0,0.0
15,46.0,0,90,5.0,0.0
16,34.0,96,90,7.0,0.0
17,46.0,96,90,5.0,0.0
18,58.0,0,90,4.0,0.0
19,34.0,0,90,7.0,0.0
20,58.0,0,90,4.0,0.0
21,34.0,0,90,7.0,0.0
22,46.0,50,90,5.0,0.0
23,58.0,96,90,4.0,0.0
24,34.0,0,90,7.0,0.0
25,46.0,0,90,5.0,0.0
26,65.0,8,150,1.0,0.0
27,74.0,0,150,2.0,0.0
28,65.0,16,150,3.0,0.0
29,46.0,0,90,5.0,0.0
30,34.0,50,90,7.0,0.0
31,62.0,0,150,1.0,0.0
32,58.0,0,90,4.0,0.0
33,58.0,96,90,4.0,0.0
34,34.0,0,90,7.0,0.0
35,46.0,0,90,5.0,0.0
36,63.0,0,20,3.0,0.0
37,72.0,22,20,2.0,0.0
38,65.0,0,20,3.0,0.0
39,74.0,0,20,2.0,0.0
40,75.0,96,90,2.0,0.0
41,67.0,0,90,3.0,0.0
42,63.0,0,90,1.0,0.0
43,58.0,0,90,4.0,0.0
44,67.0,0,90,1.0,0.0
45,34.0,0,90,7.0,0.0
46,46.0,0,90,5.0,0.0
47,58.0,0,90,4.0,0.0
48,46.0,0,90,5.0,0.0
49,34.0,96,90,7.0,0.0
50,46.0,0,90,5.0,0.0
51,65.0,0,90,3.0,0.0
52,74.0,0,90,2.0,0.0
53,34.0,0,90,7.0,0.0
54,58.0,96,90,4.0,0.0
55,65.0,0,90,1.0,0.0
56,62.0,0,90,1.0,0.0
57,58.0,0,90,4.0,0.0
58,46.0,0,90,5.0,0.0
59,34.0,96,90,7.0,0.0
60,46.0,0,90,5.0,0.0
61,67.0,0,90,1.0,0.0
62,58.0,0,90,4.0,0.0
63,67.0,0,90,3.0,0.0
64,75.0,96,90,2.0,0.0
65,63.0,0,90,1.0,0.0
66,34.0,0,90,7.0,0.0
67,46.0,0,90,5.0,0.0
68,34.0,0,90,7.0,0.0
69,58.0,96,90,4.0,0.0
70,46.0,0,90,5.0,0.0
71,34.0,96,90,7.0,0.0
72,63.0,0,90,1.0,0.0
73,72.0,0,90,2.0,0.0
74,58.0,0,90,4.0,0.0
75,60.0,0,90,1.0,0.0
76,63.0,0,90,3.0,0.0
77,46.0,0,90,5.0,0.0
78,58.0,0,90,4.0,0.0
79,34.0,96,90,7.0,0.0
80,58.0,96,90,4.0,0.0
81,77.0,0,390,0.0,0.0
82,34.0,0,90,7.0,0.0
83,74.0,0,390,3.0,0.0
84,65.0,0,390,1.0,0.0
85,46.0,0,90,5.0,0.0
86,77.0,0,390,2.0,0.0
87,46.0,0,90,5.0,0.0
88,58.0,96,90,4.0,0.0
89,34.0,0,90,7.0,0.0
90,58.0,0,90,4.0,0.0
91,46.0,0,90,5.0,0.0
92,34.0,96,90,7.0,0.0
93,34.0,0,90,7.0,0.0
94,46.0,2,90,5.0,0.0
95,58.0,0,90,4.0,0.0
96,46.0,0,90,5.0,0.0
97,62.0,0,15,1.0,0.0
98,70.0,0,90,0.0,0.0
99,70.0,0,90,3.0,0.0
100,74.0,0,90,2.0,0.0
101,58.0,0,90,1.0,0.0
102,74.0,94,15,0.0,0.0
103,34.0,96,90,7.0,0.0
104,58.0,0,90,4.0,0.0
105,34.0,0,90,7.0,0.0
106,58.0,96,90,4.0,0.0
107,46.0,0,90,5.0,0.0
108,58.0,0,90,4.0,0.0
109,74.0,0,150,2.0,0.0
110,77.0,8,150,0.0,0.0
111,65.0,16,150,3.0,0.0
112,46.0,0,90,5.0,0.0
113,34.0,50,90,7.0,0.0
114,74.0,0,150,0.0,0.0
115,34.0,0,90,7.0,0.0
116,46.0,0,90,5.0,0.0
117,58.0,0,90,4.0,0.0
118,63.0,22,20,3.0,0.0
119,72.0,0,20,2.0,0.0
120,74.0,0,20,2.0,0.0
121,65.0,96,20,3.0,0.0
122,79.0,0,90,0.0,0.0
123,75.0,0,90,2.0,0.0
124,58.0,0,90,4.0,0.0
125,75.0,0,90,0.0,0.0
126,46.0,0,90,5.0,0.0
127,67.0,96,90,3.0,0.0
128,34.0,0,90,7.0,0.0
129,34.0,0,90,7.0,0.0
130,58.0,96,90,4.0,0.0
131,46.0,0,90,5.0,0.0
132,46.0,0,90,5.0,0.0
133,74.0,0,90,0.0,0.0
134,65.0,0,90,3.0,0.0
135,34.0,0,90,7.0,0.0
136,74.0,96,90,2.0,0.0
137,77.0,0,90,0.0,0.0
138,58.0,0,90,4.0,0.0
139,58.0,0,90,4.0,0.0
140,34.0,96,90,7.0,0.0
141,46.0,0,90,5.0,0.0
142,67.0,96,90,3.0,0.0
143,58.0,0,90,4.0,0.0
144,46.0,0,90,5.0,0.0
145,75.0,0,90,2.0,0.0
146,79.0,0,90,0.0,0.0
147,75.0,0,90,0.0,0.0
148,34.0,0,90,7.0,0.0
149,58.0,0,90,4.0,0.0
150,34.0,96,90,7.0,0.0
151,46.0,0,90,5.0,0.0
152,63.0,0,90,3.0,0.0
153,58.0,0,90,4.0,0.0
154,75.0,0,90,0.0,0.0
155,72.0,96,90,0.0,0.0
156,34.0,0,90,7.0,0.0
157,72.0,0,90,2.0,0.0
158,46.0,0,90,5.0,0.0
159,46.0,0,90,5.0,0.0
160,58.0,0,90,4.0,0.0
161,34.0,96,90,7.0,0.0
162,62.0,94,390,3.0,0.0
163,34.0,0,90,7.0,0.0
164,46.0,96,90,5.0,0.0
165,70.0,0,390,0.0,0.0
166,58.0,0,90,4.0,0.0
167,74.0,0,390,0.0,0.0
168,58.0,0,390,1.0,0.0
169,50.0,0,390,1.0,0.0
170,70.0,0,390,2.0,0.0
171,58.0,0,90,4.0,0.0
172,46.0,0,90,5.0,0.0
173,34.0,96,90,7.0,0.0
174,46.0,0,90,5.0,0.0
175,34.0,0,90,7.0,0.0
176,58.0,96,90,4.0,0.0
177,46.0,0,90,5.0,0.0
178,58.0,0,90,4.0,0.0
179,34.0,2,90,7.0,0.0
180,34.0,0,90,7.0,0.0
181,46.0,96,90,5.0,0.0
182,53.0,0,90,1.0,0.0
183,62.0,0,90,1.0,0.0
184,58.0,0,90,4.0,0.0
185,74.0,0,90,0.0,0.0
186,77.0,0,90,0.0,0.0
187,74.0,0,90,2.0,0.0
188,65.0,0,90,3.0,0.0
189,58.0,0,90,4.0,0.0
190,46.0,0,90,5.0,0.0
191,34.0,96,90,7.0,0.0
192,46.0,0,90,5.0,0.0
193,34.0,0,90,7.0,0.0
194,58.0,50,90,4.0,0.0
195,65.0,16,150,3.0,0.0
196,74.0,0,150,2.0,0.0
197,65.0,8,150,1.0,0.0
198,62.0,0,150,1.0,0.0
199,58.0,0,90,4.0,0.0
200,46.0,0,90,5.0,0.0
201,34.0,0,90,7.0,0.0
202,63.0,22,20,3.0,0.0
203,72.0,0,20,2.0,0.0
204,65.0,0,20,3.0,0.0
205,74.0,96,20,2.0,0.0
206,75.0,0,90,2.0,0.0
207,34.0,0,90,7.0,0.0
208,46.0,96,90,5.0,0.0
209,67.0,0,90,1.0,0.0
210,67.0,0,90,3.0,0.0
211,58.0,0,90,4.0,0.0
212,63.0,0,90,1.0,0.0
213,58.0,96,90,4.0,0.0
214,46.0,0,90,5.0,0.0
215,34.0,0,90,7.0,0.0
216,34.0,0,90,7.0,0.0
217,46.0,0,90,5.0,0.0
218,58.0,0,90,4.0,0.0
219,65.0,0,90,1.0,0.0
220,62.0,0,90,1.0,0.0
221,65.0,0,90,3.0,0.0
222,74.0,96,90,2.0,0.0
223,34.0,0,90,7.0,0.0
224,46.0,96,90,5.0,0.0
225,58.0,0,90,4.0,0.0
226,58.0,0,90,4.0,0.0
227,63.0,0,90,1.0,0.0
228,67.0,0,90,3.0,0.0
229,34.0,0,90,7.0,0.0
230,46.0,0,90,5.0,0.0
231,75.0,96,90,2.0,0.0
232,67.0,0,90,1.0,0.0
233,34.0,0,90,7.0,0.0
234,58.0,96,90,4.0,0.0
235,46.0,0,90,5.0,0.0
236,63.0,0,90,1.0,0.0
237,34.0,0,90,7.0,0.0
238,58.0,0,90,4.0,0.0
239,63.0,0,90,3.0,0.0
240,72.0,96,90,2.0,0.0
241,46.0,0,90,5.0,0.0
242,60.0,0,90,1.0,0.0
243,58.0,0,90,4.0,0.0
244,34.0,0,90,7.0,0.0
245,46.0,96,90,5.0,0.0
246,74.0,0,390,0.0,0.0
247,34.0,0,90,7.0,0.0
248,77.0,0,390,0.0,0.0
249,65.0,0,390,1.0,0.0
250,58.0,0,90,4.0,0.0
251,62.0,0,390,1.0,0.0
252,77.0,94,390,2.0,0.0
253,74.0,0,390,3.0,0.0
254,46.0,96,90,5.0,0.0
255,58.0,96,90,4.0,0.0
256,34.0,0,90,7.0,0.0
257,46.0,0,90,5.0,0.0
258,34.0,96,90,7.0,0.0
259,46.0,0,90,5.0,0.0
260,58.0,0,90,4.0,0.0
261,46.0,2,90,5.0,0.0
262,58.0,0,90,4.0,0.0
263,34.0,0,90,7.0,0.0
264,58.0,0,90,4.0,0.0
265,46.0,0,90,5.0,0.0
266,74.0,0,90,2.0,0.0
267,70.0,0,90,0.0,0.0
268,34.0,0,90,7.0,0.0
269,58.0,96,90,1.0,0.0
270,62.0,0,90,1.0,0.0
271,70.0,0,90,3.0,0.0
272,74.0,0,90,0.0,0.0
273,34.0,0,90,7.0,0.0
274,58.0,96,90,4.0,0.0
275,46.0,0,90,5.0,0.0
276,34.0,50,90,7.0,0.0
277,74.0,0,150,0.0,0.0
278,74.0,16,150,2.0,0.0
279,77.0,8,150,0.0,0.0
280,58.0,0,90,4.0,0.0
281,46.0,0,90,5.0,0.0
282,65.0,0,150,3.0,0.0
283,46.0,0,90,5.0,0.0
284,58.0,0,90,4.0,0.0
285,34.0,96,90,7.0,0.0
286,72.0,22,20,2.0,0.0
287,63.0,0,20,3.0,0.0
288,65.0,0,20,3.0,0.0
289,74.0,0,20,2.0,0.0
290,58.0,0,90,4.0,0.0
291,79.0,0,90,0.0,0.0
292,67.0,96,90,3.0,0.0
293,34.0,0,90,7.0,0.0
294,75.0,0,90,2.0,0.0
295,75.0,0,90,0.0,0.0
296,46.0,0,90,5.0,0.0
297,34.0,0,90,7.0,0.0
298,58.0,0,90,4.0,0.0
299,46.0,96,90,5.0,0.0
300,74.0,0,90,0.0,0.0
301,65.0,0,90,3.0,0.0
302,77.0,0,90,0.0,0.0
303,58.0,96,90,4.0,0.0
304,46.0,0,90,5.0,0.0
305,34.0,0,90,7.0,0.0
306,74.0,0,90,2.0,0.0
307,58.0,96,90,4.0,0.0
308,34.0,0,90,7.0,0.0
309,46.0,0,90,5.0,0.0
310,46.0,0,90,5.0,0.0
311,75.0,0,90,2.0,0.0
312,58.0,0,90,4.0,0.0
313,75.0,0,90,0.0,0.0
314,67.0,0,90,3.0,0.0
315,34.0,0,90,7.0,0.0
316,79.0,96,90,0.0,0.0
317,58.0,0,90,4.0,0.0
318,46.0,0,90,5.0,0.0
319,34.0,96,90,7.0,0.0
320,58.0,0,90,4.0,0.0
321,34.0,0,90,7.0,0.0
322,75.0,0,90,0.0,0.0
323,72.0,0,90,0.0,0.0
324,63.0,96,90,3.0,0.0
325,46.0,0,90,5.0,0.0
326,72.0,0,90,2.0,0.0
327,46.0,0,90,5.0,0.0
328,34.0,96,90,7.0,0.0
329,58.0,0,90,4.0,0.0
330,70.0,0,150,2.0,0.0
331,74.0,0,150,0.0,0.0
332,34.0,0,90,7.0,0.0
333,46.0,0,150,1.0,0.0
334,46.0,66,90,5.0,0.0
335,58.0,0,90,4.0,0.0
336,70.0,0,150,0.0,0.0
337,58.0,30,150,1.0,0.0
338,62.0,0,150,3.0,0.0
339,58.0,0,90,4.0,0.0
340,34.0,0,90,7.0,0.0
341,46.0,96,90,5.0,0.0
342,58.0,0,90,4.0,0.0
343,34.0,0,90,7.0,0.0
344,46.0,96,90,5.0,0.0
345,58.0,0,90,4.0,0.0
346,46.0,96,90,5.0,0.0
347,34.0,0,90,7.0,0.0
348,58.0,96,90,4.0,0.0
349,46.0,0,90,5.0,0.0
350,46.0,0,90,5.0,0.0
351,58.0,96,90,4.0,0.0
352,46.0,50,90,5.0,0.0
353,58.0,0,90,4.0,0.0
354,58.0,24,150,2.0,0.0
355,46.0,0,90,5.0,0.0
356,58.0,96,90,4.0,0.0
357,57.0,22,20,2.0,0.0
358,58.0,0,20,2.0,0.0
359,58.0,0,90,4.0,0.0
360,46.0,66,90,5.0,0.0
361,60.0,30,150,2.0,0.0
362,46.0,0,90,5.0,0.0
363,58.0,96,90,4.0,0.0
364,58.0,0,90,4.0,0.0
365,60.0,24,150,2.0,0.0
366,46.0,50,90,5.0,0.0
367,46.0,96,90,5.0,0.0
368,58.0,0,90,4.0,0.0
369,58.0,22,20,2.0,0.0
370,60.0,0,20,2.0,0.0
371,62.0,30,150,2.0,0.0
372,58.0,0,90,4.0,0.0
373,46.0,66,90,5.0,0.0
374,46.0,96,90,5.0,0.0
375,58.0,0,90,4.0,0.0
376,58.0,24,150,3.0,0.0
377,46.0,50,90,5.0,0.0
378,58.0,0,90,4.0,0.0
379,62.0,0,150,2.0,0.0
380,46.0,0,90,5.0,0.0
381,58.0,0,90,4.0,0.0
382,60.0,0,20,2.0,0.0
383,57.0,22,20,3.0,0.0
384,62.0,0,20,2.0,0.0
385,58.0,96,20,3.0,0.0
386,60.0,0,150,3.0,0.0
387,46.0,66,90,5.0,0.0
388,63.0,30,150,2.0,0.0
389,58.0,0,90,4.0,0.0
390,58.0,0,90,4.0,0.0
391,46.0,96,90,5.0,0.0
392,58.0,0,90,4.0,0.0
393,60.0,24,150,3.0,0.0
394,63.0,0,150,2.0,0.0
395,46.0,50,90,5.0,0.0
396,46.0,96,90,5.0,0.0
397,58.0,0,90,4.0,0.0
398,58.0,22,20,3.0,0.0
399,62.0,0,20,2.0,0.0
400,60.0,0,20,3.0,0.0
401,63.0,0,20,2.0,0.0
402,46.0,0,90,5.0,0.0
403,58.0,66,90,4.0,0.0
404,62.0,0,150,3.0,0.0
405,65.0,30,150,2.0,0.0
406,58.0,0,90,4.0,0.0
407,46.0,96,90,5.0,0.0
408,46.0,0,90,5.0,0.0
409,62.0,24,150,3.0,0.0
410,65.0,0,150,2.0,0.0
411,58.0,50,90,4.0,0.0
412,46.0,0,90,5.0,0.0
413,58.0,96,90,4.0,0.0
414,63.0,22,20,2.0,0.0
415,60.0,0,20,3.0,0.0
416,65.0,0,20,2.0,0.0
417,62.0,0,20,3.0,0.0
418,67.0,0,150,2.0,0.0
419,58.0,0,90,4.0,0.0
420,46.0,0,720,1.0,0.0
421,58.0,0,720,1.0,0.0
422,46.0,66,90,5.0,0.0
423,63.0,30,150,3.0,0.0
424,46.0,96,90,5.0,0.0
425,58.0,0,90,4.0,0.0
426,67.0,0,150,2.0,0.0
427,46.0,0,90,5.0,0.0
428,58.0,50,90,4.0,0.0
429,63.0,24,150,3.0,0.0
430,46.0,96,90,5.0,0.0
431,58.0,0,90,4.0,0.0
432,62.0,22,20,3.0,0.0
433,65.0,0,20,2.0,0.0
434,63.0,0,20,3.0,0.0
435,67.0,0,20,2.0,0.0
436,69.0,30,150,2.0,0.0
437,58.0,0,90,4.0,0.0
438,60.0,0,150,3.0,0.0
439,46.0,66,90,5.0,0.0
440,46.0,0,90,5.0,0.0
441,58.0,96,90,4.0,0.0
442,60.0,0,150,3.0,0.0
443,58.0,0,90,4.0,0.0
444,69.0,24,150,2.0,0.0
445,46.0,50,90,5.0,0.0
446,58.0,96,90,4.0,0.0
447,46.0,0,90,5.0,0.0
448,58.0,0,20,3.0,0.0
449,67.0,22,20,2.0,0.0
450,69.0,0,20,2.0,0.0
451,60.0,0,20,3.0,0.0
452,62.0,0,150,3.0,0.0
453,46.0,66,90,5.0,0.0
454,58.0,24,720,1.0,0.0
455,58.0,0,90,4.0,0.0
456,70.0,30,150,2.0,0.0
457,46.0,0,720,1.0,0.0
458,58.0,96,90,4.0,0.0
459,46.0,0,90,5.0,0.0
460,70.0,24,150,2.0,0.0
461,58.0,0,90,4.0,0.0
462,46.0,50,90,5.0,0.0
463,62.0,0,150,3.0,0.0
464,58.0,0,90,4.0,0.0
465,46.0,0,90,5.0,0.0
466,69.0,22,20,2.0,0.0
467,60.0,0,20,3.0,0.0
468,70.0,0,20,2.0,0.0
469,62.0,96,20,3.0,0.0
470,63.0,30,150,3.0,0.0
471,58.0,0,90,4.0,0.0
472,72.0,0,150,2.0,0.0
473,46.0,66,90,5.0,0.0
474,58.0,96,90,4.0,0.0
475,46.0,0,90,5.0,0.0
476,72.0,0,150,2.0,0.0
477,46.0,50,90,5.0,0.0
478,58.0,0,90,4.0,0.0
479,69.0,0,150,3.0,0.0
480,58.0,0,90,4.0,0.0
481,46.0,0,90,5.0,0.0
482,70.0,22,20,2.0,0.0
483,67.0,0,20,3.0,0.0
484,69.0,0,20,3.0,0.0
485,72.0,96,20,2.0,0.0
486,46.0,0,90,5.0,0.0
487,46.0,0,720,1.0,0.0
488,58.0,0,720,1.0,0.0
489,74.0,24,330,0.0,0.0
490,74.0,0,150,2.0,0.0
491,70.0,30,150,3.0,0.0
492,58.0,66,90,4.0,0.0
493,77.0,0,330,0.0,0.0
494,58.0,0,90,4.0,0.0
495,46.0,96,90,5.0,0.0
496,46.0,50,90,5.0,0.0
497,70.0,0,150,3.0,0.0
498,74.0,0,150,2.0,0.0
499,58.0,0,90,4.0,0.0
500,58.0,0,90,4.0,0.0
501,46.0,0,90,5.0,0.0
502,72.0,22,20,2.0,0.0
503,69.0,0,20,3.0,0.0
504,70.0,96,20,3.0,0.0
505,74.0,0,20,2.0,0.0
506,72.0,0,330,0.0,0.0
507,75.0,0,150,2.0,0.0
508,58.0,0,90,4.0,0.0
509,46.0,66,90,5.0,0.0
510,72.0,30,150,3.0,0.0
511,75.0,0,330,0.0,0.0
512,46.0,96,90,5.0,0.0
513,58.0,0,90,4.0,0.0
514,58.0,0,90,4.0,0.0
515,72.0,0,150,3.0,0.0
516,46.0,50,90,5.0,0.0
517,75.0,24,150,2.0,0.0
518,58.0,0,90,4.0,0.0
519,46.0,0,90,5.0,0.0
520,70.0,0,20,3.0,0.0
521,74.0,22,20,2.0,0.0
522,72.0,0,20,3.0,0.0
523,75.0,48,20,2.0,0.0
524,34.0,0,90,7.0,0.0
525,46.0,0,90,5.0,0.0
526,70.0,30,270,0.0,0.0
527,74.0,0,270,0.0,0.0
528,58.0,48,60,4.0,0.0
529,46.0,0,150,1.0,0.0
530,58.0,30,150,1.0,0.0
531,77.0,0,150,2.0,0.0
532,74.0,0,150,3.0,0.0
533,65.0,48,60,4.0,0.0
534,53.0,0,90,5.0,0.0
535,65.0,18,60,4.0,0.0
536,41.0,48,90,7.0,0.0
537,65.0,0,60,4.0,0.0
538,38.0,0,90,7.0,0.0
539,65.0,18,60,4.0,0.0
540,50.0,48,90,5.0,0.0
541,65.0,0,60,4.0,0.0
542,34.0,0,90,7.0,0.0
543,65.0,48,60,4.0,0.0
544,77.0,0,90,0.0,0.0
545,46.0,48,90,5.0,0.0
546,74.0,0,90,0.0,0.0
547,65.0,0,60,4.0,0.0
548,75.0,30,150,0.0,0.0
549,53.0,0,330,1.0,0.0
550,60.0,46,330,1.0,0.0
551,75.0,0,270,3.0,0.0
552,65.0,48,60,4.0,0.0
553,72.0,0,150,0.0,0.0
554,33.0,0,90,7.0,0.0
555,84.0,30,270,2.0,0.0
556,45.0,48,90,5.0,0.0
557,65.0,0,60,4.0,0.0
558,65.0,18,60,4.0,0.0
559,48.0,0,90,5.0,0.0
560,36.0,0,90,7.0,0.0
561,65.0,48,60,4.0,0.0
562,41.0,0,90,5.0,0.0
563,65.0,18,60,4.0,0.0
564,29.0,0,90,7.0,0.0
565,65.0,48,60,4.0,0.0
566,65.0,2,60,4.0,0.0
567,72.0,48,90,3.0,0.0
568,33.0,0,90,7.0,0.0
569,45.0,0,90,5.0,0.0
570,75.0,0,90,2.0,0.0
571,65.0,0,60,4.0,0.0
572,74.0,0,150,2.0,0.0
573,58.0,30,150,1.0,0.0
574,70.0,0,150,3.0,0.0
575,65.0,48,60,4.0,0.0
576,70.0,30,270,0.0,0.0
577,46.0,48,90,5.0,0.0
578,34.0,0,90,7.0,0.0
579,62.0,0,150,1.0,0.0
580,74.0,0,270,0.0,0.0
581,65.0,0,60,4.0,0.0
582,65.0,18,60,4.0,0.0
583,41.0,48,90,7.0,0.0
584,53.0,0,90,5.0,0.0
585,65.0,0,60,4.0,0.0
586,50.0,48,90,5.0,0.0
587,38.0,0,90,7.0,0.0
588,65.0,18,60,4.0,0.0
589,65.0,0,60,4.0,0.0
590,65.0,48,60,4.0,0.0
591,34.0,0,90,7.0,0.0
592,77.0,0,90,0.0,0.0
593,46.0,0,90,5.0,0.0
594,74.0,0,90,0.0,0.0
595,65.0,48,60,4.0,0.0
596,65.0,48,60,4.0,0.0
597,75.0,30,270,3.0,0.0
598,84.0,0,270,2.0,0.0
599,63.0,0,330,1.0,0.0
600,75.0,0,150,0.0,0.0
601,33.0,0,90,7.0,0.0
602,72.0,30,150,0.0,0.0
603,45.0,48,90,5.0,0.0
604,60.0,46,330,1.0,0.0
605,65.0,0,60,4.0,0.0
606,48.0,0,90,5.0,0.0
607,36.0,48,90,7.0,0.0
608,65.0,18,60,4.0,0.0
609,65.0,0,60,4.0,0.0
610,29.0,0,90,7.0,0.0
611,65.0,18,60,4.0,0.0
612,41.0,48,90,5.0,0.0
613,65.0,0,60,4.0,0.0
614,45.0,0,90,5.0,0.0
615,72.0,0,90,3.0,0.0
616,65.0,2,60,4.0,0.0
617,75.0,0,90,2.0,0.0
618,33.0,0,90,7.0,0.0
619,65.0,48,60,4.0,0.0
620,62.0,0,150,1.0,0.0
621,46.0,0,90,5.0,0.0
622,58.0,30,150,1.0,0.0
623,65.0,48,60,4.0,0.0
624,74.0,0,60,2.0,0.0
625,34.0,0,90,7.0,0.0
626,74.0,0,60,3.0,0.0
627,74.0,0,60,0.0,0.0
628,70.0,0,60,2.0,0.0
629,70.0,0,60,0.0,0.0
630,70.0,0,60,3.0,0.0
631,58.0,0,60,4.0,0.0
632,48.0,0,60,5.0,0.0
633,60.0,0,60,4.0,0.0
634,72.0,0,60,2.0,0.0
635,72.0,0,60,0.0,0.0
636,36.0,18,60,7.0,0.0
637,72.0,0,60,3.0,0.0
638,62.0,0,60,4.0,0.0
639,74.0,0,60,2.0,0.0
640,74.0,48,60,3.0,0.0
641,50.0,0,60,5.0,0.0
642,74.0,0,60,0.0,0.0
643,38.0,0,60,7.0,0.0
644,63.0,0,60,4.0,0.0
645,75.0,0,60,3.0,0.0
646,75.0,0,60,0.0,0.0
647,39.0,0,60,7.0,0.0
648,75.0,0,60,2.0,0.0
649,51.0,0,60,5.0,0.0
650,77.0,0,60,2.0,0.0
651,77.0,0,60,3.0,0.0
652,65.0,0,60,4.0,0.0
653,41.0,0,60,7.0,0.0
654,77.0,0,60,0.0,0.0
655,53.0,0,60,5.0,0.0
656,79.0,0,60,3.0,0.0
657,79.0,0,60,2.0,0.0
658,55.0,0,60,5.0,0.0
659,67.0,0,60,4.0,0.0
660,43.0,0,60,7.0,0.0
661,79.0,0,60,0.0,0.0
662,57.0,96,60,5.0,0.0
663,81.0,0,60,3.0,0.0
664,45.0,0,60,7.0,0.0
665,81.0,0,60,0.0,0.0
666,81.0,0,60,2.0,0.0
667,69.0,0,60,4.0,0.0
668,70.0,0,90,4.0,0.0
669,82.0,0,90,2.0,0.0
670,58.0,0,90,1.0,0.0
671,82.0,0,90,0.0,0.0
672,82.0,0,90,3.0,0.0
673,46.0,0,90,7.0,0.0
674,58.0,0,90,5.0,0.0
675,53.0,0,90,5.0,0.0
676,77.0,96,90,3.0,0.0
677,41.0,0,90,7.0,0.0
678,65.0,0,90,1.0,0.0
679,53.0,0,90,1.0,0.0
680,65.0,0,90,4.0,0.0
681,77.0,0,90,0.0,0.0
682,77.0,0,90,2.0,0.0
683,74.0,0,90,0.0,0.0
684,38.0,0,90,7.0,0.0
685,74.0,0,90,2.0,0.0
686,50.0,0,90,1.0,0.0
687,74.0,0,90,3.0,0.0
688,62.0,0,90,1.0,0.0
689,62.0,96,90,4.0,0.0
690,50.0,0,90,5.0,0.0
691,46.0,0,90,1.0,0.0
692,58.0,0,90,1.0,0.0
693,70.0,0,90,0.0,0.0
694,70.0,0,90,3.0,0.0
695,58.0,162,90,4.0,0.0
696,34.0,0,90,7.0,0.0
697,46.0,0,90,5.0,0.0
698,70.0,0,90,2.0,0.0
699,69.0,0,150,3.0,0.0
700,60.0,0,150,1.0,0.0
701,69.0,174,150,0.0,0.0
702,77.0,0,150,0.0,0.0
703,53.0,0,150,1.0,0.0
704,65.0,0,150,4.0,0.0
705,53.0,0,150,5.0,0.0
706,69.0,0,150,2.0,0.0
707,41.0,0,150,7.0,0.0
708,77.0,0,150,2.0,0.0
709,77.0,0,150,3.0,0.0
710,60.0,0,150,1.0,0.0
711,77.0,0,150,3.0,0.0
712,53.0,0,150,1.0,0.0
713,77.0,0,150,0.0,0.0
714,53.0,48,150,5.0,0.0
715,65.0,0,150,4.0,0.0
716,69.0,0,150,2.0,0.0
717,41.0,0,150,7.0,0.0
718,77.0,0,150,2.0,0.0
719,69.0,0,150,0.0,0.0
720,69.0,0,150,3.0,0.0
721,77.0,0,60,2.0,0.0
722,69.0,0,60,2.0,0.0
723,65.0,0,60,4.0,0.0
724,41.0,162,60,7.0,0.0
725,69.0,0,60,0.0,0.0
726,53.0,0,60,1.0,0.0
727,77.0,0,60,0.0,0.0
728,77.0,0,60,3.0,0.0
729,69.0,0,60,3.0,0.0
730,60.0,0,60,1.0,0.0
731,53.0,0,60,5.0,0.0
732,69.0,0,150,3.0,0.0
733,77.0,0,150,3.0,0.0
734,77.0,0,150,2.0,0.0
735,53.0,0,150,1.0,0.0
736,69.0,0,150,0.0,0.0
737,69.0,0,150,2.0,0.0
738,53.0,0,150,5.0,0.0
739,65.0,0,150,4.0,0.0
740,60.0,0,150,1.0,0.0
741,41.0,0,150,7.0,0.0
742,77.0,318,150,0.0,0.0
743,48.0,66,90,4.0,0.0
744,60.0,0,90,4.0,0.0
745,36.0,0,150,7.0,0.0
746,72.0,0,150,0.0,0.0
747,60.0,0,150,3.0,0.0
748,48.0,30,150,5.0,0.0
749,60.0,0,1500,1.0,0.0
750,60.0,0,150,2.0,0.0
751,60.0,0,90,4.0,0.0
752,48.0,96,90,4.0,0.0
753,60.0,0,90,4.0,0.0
754,48.0,96,90,4.0,0.0
755,79.0,96,90,3.0,0.0
756,82.0,0,90,2.0,0.0
757,60.0,0,90,4.0,0.0
758,48.0,0,90,4.0,0.0
759,60.0,96,90,4.0,0.0
760,82.0,0,90,2.0,0.0
761,79.0,0,90,3.0,0.0
762,48.0,0,90,4.0,0.0
763,70.0,94,90,3.0,0.0
764,79.0,0,90,2.0,0.0
765,60.0,2,90,4.0,0.0
766,48.0,0,90,4.0,0.0
767,60.0,0,90,4.0,0.0
768,77.0,0,90,2.0,0.0
769,48.0,2,90,4.0,0.0
770,69.0,94,90,3.0,0.0
771,67.0,0,90,3.0,0.0
772,48.0,0,90,4.0,0.0
773,76.0,0,90,2.0,0.0
774,60.0,96,90,4.0,0.0
775,48.0,2,90,4.0,0.0
776,60.0,0,90,4.0,0.0
777,76.0,94,90,2.0,0.0
778,67.0,0,90,3.0,0.0
779,69.0,0,90,3.0,0.0
780,48.0,0,90,4.0,0.0
781,60.0,0,90,4.0,0.0
782,77.0,96,90,2.0,0.0
783,60.0,96,90,4.0,0.0
784,48.0,0,90,4.0,0.0
785,69.0,0,90,2.0,0.0
786,60.0,0,90,4.0,0.0
787,48.0,0,90,4.0,0.0
788,65.0,96,90,3.0,0.0
789,48.0,0,90,4.0,0.0
790,65.0,0,90,3.0,0.0
791,60.0,2,90,4.0,0.0
792,69.0,94,90,2.0,0.0
793,60.0,0,90,4.0,0.0
794,67.0,0,90,2.0,0.0
795,64.0,96,90,3.0,0.0
796,48.0,0,90,4.0,0.0
797,60.0,50,90,4.0,0.0
798,48.0,0,90,4.0,0.0
799,48.0,0,90,4.0,0.0
800,60.0,96,90,4.0,0.0
801,48.0,66,90,4.0,0.0
802,60.0,0,90,4.0,0.0
803,36.0,30,150,7.0,0.0
804,60.0,0,1500,1.0,0.0
805,60.0,0,150,2.0,0.0
806,48.0,0,150,5.0,0.0
807,60.0,0,150,3.0,0.0
808,72.0,0,150,0.0,0.0
809,48.0,0,90,4.0,0.0
810,60.0,96,90,4.0,0.0
811,60.0,0,90,4.0,0.0
812,48.0,96,90,4.0,0.0
813,79.0,0,90,3.0,0.0
814,48.0,0,90,4.0,0.0
815,60.0,0,90,4.0,0.0
816,82.0,96,90,2.0,0.0
817,79.0,0,90,3.0,0.0
818,60.0,0,90,4.0,0.0
819,82.0,96,90,2.0,0.0
820,48.0,0,90,4.0,0.0
821,60.0,0,90,4.0,0.0
822,48.0,2,90,4.0,0.0
823,79.0,0,90,2.0,0.0
824,70.0,94,90,3.0,0.0
825,69.0,94,90,3.0,0.0
826,77.0,0,90,2.0,0.0
827,48.0,2,90,4.0,0.0
828,60.0,0,90,4.0,0.0
829,76.0,0,90,2.0,0.0
830,60.0,96,90,4.0,0.0
831,48.0,0,90,4.0,0.0
832,67.0,0,90,3.0,0.0
833,48.0,2,90,4.0,0.0
834,76.0,0,90,2.0,0.0
835,60.0,0,90,4.0,0.0
836,67.0,94,90,3.0,0.0
837,48.0,0,90,4.0,0.0
838,69.0,96,90,3.0,0.0
839,60.0,0,90,4.0,0.0
840,77.0,0,90,2.0,0.0
841,48.0,96,90,4.0,0.0
842,60.0,0,90,4.0,0.0
843,65.0,0,90,2.0,0.0
844,57.0,0,90,3.0,0.0
845,48.0,96,90,4.0,0.0
846,60.0,0,90,4.0,0.0
847,60.0,0,90,4.0,0.0
848,48.0,2,90,4.0,0.0
849,65.0,94,90,2.0,0.0
850,57.0,0,90,3.0,0.0
851,55.0,0,90,3.0,0.0
852,48.0,96,90,4.0,0.0
853,60.0,0,90,4.0,0.0
854,64.0,0,90,2.0,0.0
855,60.0,0,90,4.0,0.0
856,48.0,50,90,4.0,0.0
857,48.0,96,90,4.0,0.0
858,60.0,0,90,4.0,0.0
859,65.0,96,90,2.0,0.0
860,53.0,0,90,5.0,0.0
861,69.0,46,720,0.0,0.0
862,53.0,0,720,1.0,0.0
863,60.0,0,720,1.0,0.0
864,41.0,0,90,7.0,0.0
865,60.0,0,90,4.0,0.0
866,77.0,0,720,0.0,0.0
867,53.0,0,90,5.0,0.0
868,60.0,0,90,4.0,0.0
869,41.0,2,90,7.0,0.0
870,69.0,94,90,2.0,0.0
871,58.0,0,90,4.0,0.0
872,67.0,94,90,2.0,0.0
873,53.0,2,90,5.0,0.0
874,41.0,0,90,7.0,0.0
875,41.0,0,90,7.0,0.0
876,57.0,96,90,4.0,0.0
877,65.0,0,90,2.0,0.0
878,53.0,0,90,5.0,0.0
879,53.0,0,90,5.0,0.0
880,69.0,0,90,4.0,0.0
881,65.0,66,90,3.0,0.0
882,41.0,0,90,7.0,0.0
883,77.0,30,150,2.0,0.0
884,60.0,94,90,4.0,0.0
885,53.0,0,90,5.0,0.0
886,69.0,0,90,3.0,0.0
887,41.0,2,90,7.0,0.0
888,53.0,2,90,5.0,0.0
889,67.0,48,90,3.0,0.0
890,41.0,0,90,7.0,0.0
891,58.0,0,90,4.0,0.0
892,57.0,0,90,4.0,0.0
893,53.0,0,90,5.0,0.0
894,65.0,0,90,3.0,0.0
895,41.0,96,90,7.0,0.0
896,50.0,0,90,5.0,0.0
897,58.0,0,90,4.0,0.0
898,65.0,0,90,2.0,0.0
899,58.0,46,720,1.0,0.0
900,70.0,0,720,0.0,0.0
901,77.0,30,150,3.0,0.0
902,62.0,0,720,1.0,0.0
903,38.0,66,90,7.0,0.0
904,77.0,0,720,0.0,0.0
905,70.0,94,90,2.0,0.0
906,62.0,0,90,4.0,0.0
907,50.0,2,90,5.0,0.0
908,38.0,0,90,7.0,0.0
909,60.0,94,90,4.0,0.0
910,50.0,2,90,5.0,0.0
911,38.0,0,90,7.0,0.0
912,69.0,0,90,2.0,0.0
913,50.0,0,90,5.0,0.0
914,62.0,0,90,4.0,0.0
915,38.0,96,90,7.0,0.0
916,70.0,0,90,2.0,0.0
917,65.0,0,90,3.0,0.0
918,50.0,0,90,5.0,0.0
919,77.0,30,150,2.0,0.0
920,38.0,0,90,7.0,0.0
921,70.0,66,90,4.0,0.0
922,38.0,0,90,7.0,0.0
923,70.0,0,90,3.0,0.0
924,50.0,2,90,5.0,0.0
925,62.0,94,90,4.0,0.0
926,60.0,48,90,4.0,0.0
927,69.0,0,90,3.0,0.0
928,38.0,2,90,7.0,0.0
929,50.0,0,90,5.0,0.0
930,70.0,96,90,3.0,0.0
931,38.0,0,90,7.0,0.0
932,62.0,0,90,4.0,0.0
933,50.0,0,90,5.0,0.0
934,77.0,0,720,0.0,0.0
935,36.0,0,90,7.0,0.0
936,81.0,30,150,3.0,0.0
937,65.0,66,90,2.0,0.0
938,60.0,0,720,1.0,0.0
939,69.0,46,720,0.0,0.0
940,48.0,0,90,5.0,0.0
941,48.0,0,90,5.0,0.0
942,69.0,0,90,4.0,0.0
943,72.0,94,90,2.0,0.0
944,36.0,2,90,7.0,0.0
945,36.0,2,90,7.0,0.0
946,67.0,0,90,4.0,0.0
947,71.0,94,90,2.0,0.0
948,48.0,0,90,5.0,0.0
949,48.0,0,90,5.0,0.0
950,69.0,0,90,4.0,0.0
951,72.0,96,90,2.0,0.0
952,36.0,0,90,7.0,0.0
953,69.0,0,90,4.0,0.0
954,48.0,66,90,5.0,0.0
955,65.0,0,90,3.0,0.0
956,36.0,0,90,7.0,0.0
957,81.0,30,150,2.0,0.0
958,48.0,0,90,5.0,0.0
959,36.0,2,90,7.0,0.0
960,69.0,0,90,4.0,0.0
961,72.0,94,90,3.0,0.0
962,36.0,0,90,7.0,0.0
963,67.0,48,90,4.0,0.0
964,48.0,2,90,5.0,0.0
965,71.0,0,90,3.0,0.0
966,36.0,0,90,7.0,0.0
967,48.0,96,90,5.0,0.0
968,69.0,0,90,4.0,0.0
969,72.0,0,90,3.0,0.0
970,48.0,66,90,5.0,0.0
971,82.0,30,150,3.0,0.0
972,60.0,0,720,1.0,0.0
973,64.0,46,720,1.0,0.0
974,64.0,0,90,4.0,0.0
975,76.0,0,720,0.0,0.0
976,67.0,0,720,0.0,0.0
977,67.0,0,90,2.0,0.0
978,36.0,0,90,7.0,0.0
979,70.0,0,90,2.0,0.0
980,67.0,94,90,4.0,0.0
981,36.0,2,90,7.0,0.0
982,48.0,0,90,5.0,0.0
983,69.0,94,90,2.0,0.0
984,36.0,2,90,7.0,0.0
985,65.0,0,90,4.0,0.0
986,48.0,0,90,5.0,0.0
987,64.0,0,90,4.0,0.0
988,67.0,96,90,2.0,0.0
989,48.0,0,90,5.0,0.0
990,36.0,0,90,7.0,0.0
991,64.0,0,90,4.0,0.0
992,67.0,0,90,3.0,0.0
993,48.0,0,90,5.0,0.0
994,82.0,30,150,2.0,0.0
995,36.0,66,90,7.0,0.0
996,70.0,94,90,3.0,0.0
997,36.0,0,90,7.0,0.0
998,48.0,2,90,5.0,0.0
999,67.0,0,90,4.0,0.0
1000,36.0,0,90,7.0,0.0
1001,69.0,48,90,3.0,0.0
1002,65.0,0,90,4.0,0.0
1003,48.0,2,90,5.0,0.0
1004,48.0,0,90,5.0,0.0
1005,64.0,96,90,4.0,0.0
1006,36.0,0,90,7.0,0.0
1007,67.0,0,90,3.0,0.0
1008,65.0,66,90,2.0,0.0
1009,77.0,0,720,0.0,0.0
1010,77.0,30,150,3.0,0.0
1011,65.0,0,720,1.0,0.0
1012,41.0,0,90,7.0,0.0
1013,53.0,0,90,5.0,0.0
1014,69.0,46,720,0.0,0.0
1015,53.0,0,720,1.0,0.0
1016,69.0,0,90,4.0,0.0
1017,60.0,0,90,4.0,0.0
1018,53.0,2,90,5.0,0.0
1019,41.0,0,90,7.0,0.0
1020,69.0,94,90,2.0,0.0
1021,58.0,94,90,4.0,0.0
1022,53.0,2,90,5.0,0.0
1023,41.0,0,90,7.0,0.0
1024,67.0,0,90,2.0,0.0
1025,53.0,0,90,5.0,0.0
1026,41.0,0,90,7.0,0.0
1027,65.0,0,90,2.0,0.0
1028,57.0,96,90,4.0,0.0
1029,65.0,66,90,3.0,0.0
1030,53.0,0,90,5.0,0.0
1031,41.0,0,90,7.0,0.0
1032,69.0,0,90,4.0,0.0
1033,77.0,30,150,2.0,0.0
1034,60.0,94,90,4.0,0.0
1035,41.0,2,90,7.0,0.0
1036,69.0,0,90,3.0,0.0
1037,53.0,0,90,5.0,0.0
1038,58.0,48,90,4.0,0.0
1039,41.0,2,90,7.0,0.0
1040,67.0,0,90,3.0,0.0
1041,53.0,0,90,5.0,0.0
1042,41.0,0,90,7.0,0.0
1043,53.0,0,90,5.0,0.0
1044,65.0,96,90,3.0,0.0
1045,57.0,0,90,4.0,0.0
1046,58.0,0,90,4.0,0.0
1047,77.0,30,150,3.0,0.0
1048,50.0,0,90,5.0,0.0
1049,70.0,0,720,0.0,0.0
1050,77.0,0,720,0.0,0.0
1051,62.0,46,720,1.0,0.0
1052,65.0,66,90,2.0,0.0
1053,38.0,0,90,7.0,0.0
1054,58.0,0,720,1.0,0.0
1055,38.0,2,90,7.0,0.0
1056,50.0,0,90,5.0,0.0
1057,70.0,94,90,2.0,0.0
1058,62.0,0,90,4.0,0.0
1059,50.0,0,90,5.0,0.0
1060,60.0,0,90,4.0,0.0
1061,38.0,2,90,7.0,0.0
1062,69.0,94,90,2.0,0.0
1063,62.0,0,90,4.0,0.0
1064,70.0,96,90,2.0,0.0
1065,38.0,0,90,7.0,0.0
1066,50.0,0,90,5.0,0.0
1067,50.0,0,90,5.0,0.0
1068,38.0,0,90,7.0,0.0
1069,65.0,66,90,3.0,0.0
1070,77.0,30,150,2.0,0.0
1071,74.0,0,90,4.0,0.0
1072,38.0,0,90,7.0,0.0
1073,50.0,2,90,5.0,0.0
1074,70.0,0,90,3.0,0.0
1075,62.0,94,90,4.0,0.0
1076,60.0,48,90,4.0,0.0
1077,69.0,0,90,3.0,0.0
1078,38.0,0,90,7.0,0.0
1079,50.0,2,90,5.0,0.0
1080,38.0,0,90,7.0,0.0
1081,70.0,0,90,3.0,0.0
1082,62.0,96,90,4.0,0.0
1083,50.0,0,90,5.0,0.0
1084,48.0,0,90,5.0,0.0
1085,65.0,66,90,2.0,0.0
1086,60.0,0,720,1.0,0.0
1087,57.0,0,90,4.0,0.0
1088,36.0,0,90,7.0,0.0
1089,77.0,0,720,0.0,0.0
1090,81.0,30,150,3.0,0.0
1091,69.0,0,720,0.0,0.0
1092,48.0,0,90,5.0,0.0
1093,72.0,94,90,2.0,0.0
1094,69.0,0,90,4.0,0.0
1095,36.0,2,90,7.0,0.0
1096,48.0,2,90,5.0,0.0
1097,71.0,0,90,2.0,0.0
1098,67.0,94,90,4.0,0.0
1099,36.0,0,90,7.0,0.0
1100,36.0,0,90,7.0,0.0
1101,72.0,0,90,2.0,0.0
1102,69.0,96,90,4.0,0.0
1103,48.0,0,90,5.0,0.0
1104,65.0,66,90,3.0,0.0
1105,36.0,0,90,7.0,0.0
1106,81.0,30,150,2.0,0.0
1107,69.0,0,90,4.0,0.0
1108,48.0,0,90,5.0,0.0
1109,48.0,2,90,5.0,0.0
1110,69.0,0,90,4.0,0.0
1111,36.0,0,90,7.0,0.0
1112,72.0,94,90,3.0,0.0
1113,67.0,0,90,4.0,0.0
1114,48.0,0,90,5.0,0.0
1115,71.0,48,90,3.0,0.0
1116,36.0,2,90,7.0,0.0
1117,72.0,0,90,3.0,0.0
1118,36.0,0,90,7.0,0.0
1119,69.0,0,90,4.0,0.0
1120,48.0,96,90,5.0,0.0
1121,24.0,0,90,7.0,0.0
1122,60.0,0,720,1.0,0.0
1123,67.0,66,90,2.0,0.0
1124,36.0,0,90,5.0,0.0
1125,67.0,0,720,0.0,0.0
1126,64.0,0,90,4.0,0.0
1127,76.0,46,720,0.0,0.0
1128,82.0,30,150,3.0,0.0
1129,64.0,0,720,1.0,0.0
1130,67.0,0,90,4.0,0.0
1131,24.0,2,90,7.0,0.0
1132,70.0,94,90,2.0,0.0
1133,36.0,0,90,5.0,0.0
1134,65.0,0,90,4.0,0.0
1135,24.0,2,90,7.0,0.0
1136,69.0,94,90,2.0,0.0
1137,36.0,0,90,5.0,0.0
1138,36.0,0,90,5.0,0.0
1139,64.0,0,90,4.0,0.0
1140,24.0,0,90,7.0,0.0
1141,67.0,96,90,2.0,0.0
1142,64.0,0,90,4.0,0.0
1143,24.0,0,90,7.0,0.0
1144,82.0,30,150,2.0,0.0
1145,67.0,66,90,3.0,0.0
1146,36.0,0,90,5.0,0.0
1147,24.0,2,90,7.0,0.0
1148,67.0,94,90,4.0,0.0
1149,36.0,0,90,5.0,0.0
1150,70.0,0,90,3.0,0.0
1151,69.0,48,90,3.0,0.0
1152,24.0,0,90,7.0,0.0
1153,36.0,2,90,5.0,0.0
1154,65.0,0,90,4.0,0.0
1155,36.0,48,90,5.0,0.0
1156,24.0,0,90,7.0,0.0
1157,64.0,0,90,4.0,0.0
1158,67.0,0,90,3.0,0.0
1159,41.0,30,150,5.0,0.0
1160,53.0,0,720,1.0,0.0
1161,29.0,0,150,7.0,0.0
1162,65.0,0,720,1.0,0.0
1163,65.0,0,150,4.0,0.0
1164,69.0,0,720,0.0,0.0
1165,60.0,0,60,3.0,0.0
1166,65.0,48,60,3.0,0.0
1167,77.0,0,60,2.0,0.0
1168,69.0,0,60,2.0,0.0
1169,77.0,46,720,0.0,0.0
1170,65.0,0,60,3.0,0.0
1171,77.0,0,60,2.0,0.0
1172,60.0,48,60,3.0,0.0
1173,69.0,0,60,2.0,0.0
1174,69.0,18,60,2.0,0.0
1175,77.0,0,60,2.0,0.0
1176,60.0,0,60,3.0,0.0
1177,65.0,0,60,3.0,0.0
1178,77.0,48,60,2.0,0.0
1179,65.0,0,60,3.0,0.0
1180,60.0,0,60,3.0,0.0
1181,69.0,0,60,2.0,0.0
1182,69.0,0,60,2.0,0.0
1183,77.0,48,60,2.0,0.0
1184,60.0,0,60,3.0,0.0
1185,65.0,0,60,3.0,0.0
1186,60.0,0,60,3.0,0.0
1187,69.0,0,60,2.0,0.0
1188,77.0,48,60,2.0,0.0
1189,65.0,0,60,3.0,0.0
1190,53.0,0,60,5.0,0.0
1191,65.0,0,60,4.0,0.0
1192,60.0,48,60,3.0,0.0
1193,77.0,0,60,2.0,0.0
1194,69.0,0,60,2.0,0.0
1195,65.0,0,60,3.0,0.0
1196,41.0,0,60,7.0,0.0
1197,40.0,0,60,7.0,0.0
1198,69.0,0,60,2.0,0.0
1199,77.0,0,60,2.0,0.0
1200,60.0,0,60,3.0,0.0
1201,65.0,0,60,3.0,0.0
1202,52.0,48,60,5.0,0.0
1203,64.0,0,60,4.0,0.0
1204,53.0,0,90,5.0,0.0
1205,65.0,0,90,4.0,0.0
1206,41.0,0,90,7.0,0.0
1207,69.0,0,60,2.0,0.0
1208,77.0,48,60,2.0,0.0
1209,60.0,0,60,3.0,0.0
1210,65.0,0,60,3.0,0.0
1211,77.0,0,60,2.0,0.0
1212,60.0,0,60,3.0,0.0
1213,65.0,48,60,3.0,0.0
1214,69.0,0,60,2.0,0.0
1215,69.0,48,60,2.0,0.0
1216,57.0,0,90,5.0,0.0
1217,60.0,0,60,3.0,0.0
1218,65.0,0,60,3.0,0.0
1219,57.0,0,90,4.0,0.0
1220,45.0,0,90,7.0,0.0
1221,77.0,0,60,2.0,0.0
1222,60.0,0,60,3.0,0.0
1223,65.0,0,60,3.0,0.0
1224,77.0,48,60,2.0,0.0
1225,69.0,0,60,2.0,0.0
1226,60.0,0,60,3.0,0.0
1227,65.0,0,60,3.0,0.0
1228,60.0,0,90,4.0,0.0
1229,60.0,48,90,5.0,0.0
1230,77.0,48,60,2.0,0.0
1231,48.0,0,90,7.0,0.0
1232,69.0,0,60,2.0,0.0
1233,77.0,0,60,2.0,0.0
1234,60.0,0,60,3.0,0.0
1235,69.0,0,60,2.0,0.0
1236,65.0,0,60,3.0,0.0
1237,53.0,0,90,7.0,0.0
1238,65.0,48,90,4.0,0.0
1239,65.0,0,90,5.0,0.0
1240,69.0,0,60,2.0,0.0
1241,77.0,0,60,2.0,0.0
1242,60.0,2,60,3.0,0.0
1243,65.0,0,60,3.0,0.0
1244,60.0,0,60,3.0,0.0
1245,77.0,0,60,2.0,0.0
1246,65.0,0,60,3.0,0.0
1247,69.0,0,60,2.0,0.0
1248,62.0,0,150,4.0,0.0
1249,65.0,0,720,1.0,0.0
1250,77.0,0,60,2.0,0.0
1251,50.0,0,150,5.0,0.0
1252,69.0,0,720,0.0,0.0
1253,65.0,48,60,3.0,0.0
1254,69.0,0,60,3.0,0.0
1255,38.0,30,150,7.0,0.0
1256,53.0,0,720,1.0,0.0
1257,69.0,0,60,2.0,0.0
1258,77.0,46,720,0.0,0.0
1259,69.0,0,60,3.0,0.0
1260,69.0,0,60,2.0,0.0
1261,77.0,48,60,2.0,0.0
1262,65.0,0,60,3.0,0.0
1263,65.0,0,60,3.0,0.0
1264,69.0,18,60,3.0,0.0
1265,77.0,0,60,2.0,0.0
1266,69.0,0,60,2.0,0.0
1267,69.0,0,60,3.0,0.0
1268,65.0,0,60,3.0,0.0
1269,77.0,48,60,2.0,0.0
1270,69.0,0,60,2.0,0.0
1271,77.0,0,60,2.0,0.0
1272,69.0,0,60,2.0,0.0
1273,69.0,48,60,3.0,0.0
1274,65.0,0,60,3.0,0.0
1275,69.0,0,60,2.0,0.0
1276,77.0,0,60,2.0,0.0
1277,65.0,0,60,3.0,0.0
1278,69.0,48,60,3.0,0.0
1279,50.0,0,60,5.0,0.0
1280,77.0,0,60,2.0,0.0
1281,69.0,0,60,3.0,0.0
1282,69.0,0,60,2.0,0.0
1283,62.0,48,60,4.0,0.0
1284,38.0,0,60,7.0,0.0
1285,65.0,0,60,3.0,0.0
1286,37.0,0,60,7.0,0.0
1287,65.0,0,60,3.0,0.0
1288,61.0,0,60,4.0,0.0
1289,49.0,0,60,5.0,0.0
1290,69.0,48,60,2.0,0.0
1291,77.0,0,60,2.0,0.0
1292,69.0,0,60,3.0,0.0
1293,77.0,48,60,2.0,0.0
1294,65.0,0,60,3.0,0.0
1295,62.0,0,90,4.0,0.0
1296,69.0,0,60,3.0,0.0
1297,38.0,0,90,7.0,0.0
1298,50.0,48,90,5.0,0.0
1299,69.0,0,60,2.0,0.0
1300,69.0,0,60,3.0,0.0
1301,69.0,0,60,2.0,0.0
1302,77.0,0,60,2.0,0.0
1303,65.0,0,60,3.0,0.0
1304,65.0,0,60,3.0,0.0
1305,69.0,0,60,3.0,0.0
1306,41.0,0,90,7.0,0.0
1307,65.0,0,90,4.0,0.0
1308,53.0,0,90,5.0,0.0
1309,69.0,0,60,2.0,0.0
1310,77.0,48,60,2.0,0.0
1311,77.0,48,60,2.0,0.0
1312,69.0,0,60,2.0,0.0
1313,69.0,0,60,3.0,0.0
1314,65.0,0,60,3.0,0.0
1315,77.0,0,60,2.0,0.0
1316,69.0,0,60,2.0,0.0
1317,69.0,0,90,4.0,0.0
1318,69.0,48,60,3.0,0.0
1319,65.0,0,60,3.0,0.0
1320,45.0,0,90,7.0,0.0
1321,57.0,0,90,5.0,0.0
1322,69.0,0,60,2.0,0.0
1323,69.0,0,60,3.0,0.0
1324,65.0,48,60,3.0,0.0
1325,77.0,0,60,2.0,0.0
1326,50.0,0,90,7.0,0.0
1327,69.0,0,60,2.0,0.0
1328,74.0,0,90,4.0,0.0
1329,62.0,0,90,5.0,0.0
1330,77.0,0,60,2.0,0.0
1331,65.0,2,60,3.0,0.0
1332,69.0,0,60,3.0,0.0
1333,65.0,0,60,3.0,0.0
1334,69.0,0,60,3.0,0.0
1335,69.0,0,60,2.0,0.0
1336,77.0,48,60,2.0,0.0
1337,67.0,0,1110,0.0,0.0
1338,77.0,0,60,2.0,0.0
1339,77.0,0,1110,0.0,0.0
1340,65.0,46,1110,1.0,0.0
1341,46.0,0,150,5.0,0.0
1342,58.0,0,60,3.0,0.0
1343,53.0,46,720,1.0,0.0
1344,67.0,0,60,3.0,0.0
1345,58.0,0,150,4.0,0.0
1346,74.0,48,60,2.0,0.0
1347,34.0,30,150,7.0,0.0
1348,77.0,48,60,2.0,0.0
1349,58.0,0,60,3.0,0.0
1350,67.0,0,60,3.0,0.0
1351,74.0,0,60,2.0,0.0
1352,74.0,0,60,2.0,0.0
1353,58.0,0,60,3.0,0.0
1354,67.0,0,60,3.0,0.0
1355,77.0,18,60,2.0,0.0
1356,58.0,0,60,3.0,0.0
1357,67.0,0,60,3.0,0.0
1358,77.0,0,60,2.0,0.0
1359,74.0,48,60,2.0,0.0
1360,58.0,0,60,3.0,0.0
1361,67.0,48,60,3.0,0.0
1362,74.0,0,60,2.0,0.0
1363,77.0,0,60,2.0,0.0
1364,67.0,0,60,3.0,0.0
1365,58.0,0,60,3.0,0.0
1366,74.0,0,60,2.0,0.0
1367,77.0,48,60,2.0,0.0
1368,58.0,0,60,5.0,0.0
1369,70.0,0,60,4.0,0.0
1370,67.0,0,60,3.0,0.0
1371,58.0,0,60,3.0,0.0
1372,77.0,0,60,2.0,0.0
1373,74.0,0,60,2.0,0.0
1374,46.0,48,60,7.0,0.0
1375,45.0,0,60,7.0,0.0
1376,67.0,0,60,3.0,0.0
1377,74.0,0,60,2.0,0.0
1378,77.0,0,60,2.0,0.0
1379,69.0,48,60,4.0,0.0
1380,58.0,0,60,3.0,0.0
1381,57.0,0,60,5.0,0.0
1382,58.0,0,90,5.0,0.0
1383,77.0,0,60,2.0,0.0
1384,46.0,0,90,7.0,0.0
1385,67.0,0,60,3.0,0.0
1386,58.0,48,60,3.0,0.0
1387,74.0,0,60,2.0,0.0
1388,70.0,0,90,4.0,0.0
1389,67.0,48,60,3.0,0.0
1390,58.0,0,60,3.0,0.0
1391,74.0,0,60,2.0,0.0
1392,77.0,0,60,2.0,0.0
1393,58.0,48,60,3.0,0.0
1394,41.0,0,90,7.0,0.0
1395,53.0,0,90,5.0,0.0
1396,65.0,0,90,4.0,0.0
1397,74.0,0,60,2.0,0.0
1398,77.0,0,60,2.0,0.0
1399,67.0,0,60,3.0,0.0
1400,77.0,0,60,2.0,0.0
1401,58.0,0,60,3.0,0.0
1402,67.0,0,60,3.0,0.0
1403,74.0,48,60,2.0,0.0
1404,58.0,0,60,3.0,0.0
1405,50.0,0,90,5.0,0.0
1406,62.0,48,90,4.0,0.0
1407,67.0,0,60,3.0,0.0
1408,74.0,0,60,2.0,0.0
1409,77.0,48,60,2.0,0.0
1410,38.0,0,90,7.0,0.0
1411,74.0,0,60,2.0,0.0
1412,77.0,0,60,2.0,0.0
1413,67.0,0,60,3.0,0.0
1414,58.0,0,60,3.0,0.0
1415,67.0,2,60,3.0,0.0
1416,77.0,0,60,2.0,0.0
1417,74.0,0,60,2.0,0.0
1418,58.0,0,60,3.0,0.0
1419,46.0,0,90,5.0,0.0
1420,34.0,0,90,7.0,0.0
1421,58.0,0,90,4.0,0.0
1422,58.0,48,60,3.0,0.0
1423,67.0,0,60,3.0,0.0
1424,74.0,0,60,2.0,0.0
1425,77.0,0,60,2.0,0.0
1426,67.0,0,60,3.0,0.0
1427,60.0,30,150,4.0,0.0
1428,36.0,0,150,7.0,0.0
1429,72.0,0,60,2.0,0.0
1430,48.0,0,150,5.0,0.0
1431,60.0,0,60,3.0,0.0
1432,77.0,48,60,2.0,0.0
1433,60.0,0,330,1.0,0.0
1434,67.0,0,60,3.0,0.0
1435,77.0,48,60,2.0,0.0
1436,72.0,0,60,2.0,0.0
1437,60.0,0,60,3.0,0.0
1438,67.0,0,60,3.0,0.0
1439,72.0,18,60,2.0,0.0
1440,77.0,0,60,2.0,0.0
1441,60.0,0,60,3.0,0.0
1442,72.0,0,60,2.0,0.0
1443,77.0,0,60,2.0,0.0
1444,67.0,0,60,3.0,0.0
1445,60.0,48,60,3.0,0.0
1446,67.0,0,60,3.0,0.0
1447,60.0,0,60,3.0,0.0
1448,72.0,0,60,2.0,0.0
1449,77.0,48,60,2.0,0.0
1450,60.0,0,60,3.0,0.0
1451,72.0,48,60,2.0,0.0
1452,67.0,0,60,3.0,0.0
1453,77.0,0,60,2.0,0.0
1454,48.0,0,60,7.0,0.0
1455,60.0,0,60,5.0,0.0
1456,67.0,0,60,3.0,0.0
1457,60.0,0,60,3.0,0.0
1458,77.0,0,60,2.0,0.0
1459,72.0,0,60,4.0,0.0
1460,72.0,2,60,2.0,0.0
1461,60.0,48,60,3.0,0.0
1462,67.0,0,60,3.0,0.0
1463,47.0,0,60,7.0,0.0
1464,59.0,0,60,5.0,0.0
1465,71.0,0,60,4.0,0.0
1466,72.0,0,60,2.0,0.0
1467,77.0,0,60,2.0,0.0
1468,64.0,0,330,1.0,0.0
1469,76.0,0,60,2.0,0.0
1470,70.0,0,60,2.0,0.0
1471,76.0,0,330,0.0,0.0
1472,70.0,46,330,0.0,0.0
1473,60.0,0,60,3.0,0.0
1474,67.0,48,60,3.0,0.0
1475,60.0,0,330,1.0,0.0
1476,48.0,0,90,7.0,0.0
1477,72.0,0,90,4.0,0.0
1478,60.0,48,90,5.0,0.0
1479,67.0,0,60,3.0,0.0
1480,76.0,0,60,2.0,0.0
1481,70.0,0,60,2.0,0.0
1482,60.0,0,60,3.0,0.0
1483,67.0,0,60,3.0,0.0
1484,67.0,0,90,4.0,0.0
1485,43.0,0,90,7.0,0.0
1486,60.0,0,60,3.0,0.0
1487,70.0,48,60,2.0,0.0
1488,76.0,0,60,2.0,0.0
1489,55.0,48,90,5.0,0.0
1490,60.0,0,60,3.0,0.0
1491,67.0,0,60,3.0,0.0
1492,70.0,0,60,2.0,0.0
1493,76.0,0,60,2.0,0.0
1494,64.0,0,90,4.0,0.0
1495,52.0,0,90,5.0,0.0
1496,76.0,0,60,2.0,0.0
1497,67.0,0,60,3.0,0.0
1498,70.0,0,60,2.0,0.0
1499,60.0,48,60,3.0,0.0
1500,40.0,0,90,7.0,0.0
1501,70.0,48,60,2.0,0.0
1502,76.0,0,60,2.0,0.0
1503,60.0,0,60,3.0,0.0
1504,67.0,0,60,3.0,0.0
1505,70.0,0,60,2.0,0.0
1506,60.0,0,90,4.0,0.0
1507,60.0,2,60,3.0,0.0
1508,48.0,48,90,5.0,0.0
1509,76.0,0,60,2.0,0.0
1510,36.0,0,90,7.0,0.0
1511,67.0,0,60,3.0,0.0
1512,70.0,0,60,2.0,0.0
1513,76.0,0,60,2.0,0.0
1514,60.0,0,60,3.0,0.0
1515,67.0,0,60,3.0,0.0
1516,60.0,0,60,3.0,0.0
1517,65.0,0,60,3.0,0.0
1518,65.0,0,150,4.0,0.0
1519,77.0,0,60,2.0,0.0
1520,53.0,46,720,1.0,0.0
1521,77.0,0,720,0.0,0.0
1522,41.0,30,150,7.0,0.0
1523,65.0,0,720,1.0,0.0
1524,69.0,48,60,2.0,0.0
1525,69.0,0,720,0.0,0.0
1526,53.0,0,150,5.0,0.0
1527,69.0,0,60,2.0,0.0
1528,60.0,48,60,3.0,0.0
1529,77.0,0,60,2.0,0.0
1530,65.0,0,60,3.0,0.0
1531,69.0,0,60,2.0,0.0
1532,77.0,18,60,2.0,0.0
1533,60.0,0,60,3.0,0.0
1534,65.0,0,60,3.0,0.0
1535,69.0,48,60,2.0,0.0
1536,77.0,0,60,2.0,0.0
1537,65.0,0,60,3.0,0.0
1538,60.0,0,60,3.0,0.0
1539,65.0,0,60,3.0,0.0
1540,60.0,48,60,3.0,0.0
1541,69.0,0,60,2.0,0.0
1542,77.0,0,60,2.0,0.0
1543,69.0,48,60,2.0,0.0
1544,60.0,0,60,3.0,0.0
1545,65.0,0,60,3.0,0.0
1546,77.0,0,60,2.0,0.0
1547,65.0,0,60,3.0,0.0
1548,60.0,48,60,3.0,0.0
1549,69.0,0,60,2.0,0.0
1550,77.0,0,60,2.0,0.0
1551,65.0,0,60,5.0,0.0
1552,53.0,0,60,7.0,0.0
1553,65.0,0,60,4.0,0.0
1554,69.0,0,60,2.0,0.0
1555,65.0,0,60,3.0,0.0
1556,64.0,0,60,5.0,0.0
1557,77.0,0,60,2.0,0.0
1558,60.0,0,60,3.0,0.0
1559,64.0,0,60,4.0,0.0
1560,52.0,48,60,7.0,0.0
1561,60.0,48,60,3.0,0.0
1562,65.0,0,60,3.0,0.0
1563,65.0,0,90,5.0,0.0
1564,65.0,0,90,4.0,0.0
1565,77.0,0,60,2.0,0.0
1566,53.0,0,90,7.0,0.0
1567,69.0,0,60,2.0,0.0
1568,77.0,48,60,2.0,0.0
1569,69.0,0,60,2.0,0.0
1570,65.0,0,60,3.0,0.0
1571,60.0,0,60,3.0,0.0
1572,69.0,0,60,2.0,0.0
1573,60.0,0,90,5.0,0.0
1574,65.0,0,60,3.0,0.0
1575,60.0,48,60,3.0,0.0
1576,60.0,0,90,4.0,0.0
1577,48.0,0,90,7.0,0.0
1578,77.0,0,60,2.0,0.0
1579,60.0,0,60,3.0,0.0
1580,77.0,0,60,2.0,0.0
1581,69.0,48,60,2.0,0.0
1582,65.0,0,60,3.0,0.0
1583,60.0,0,60,3.0,0.0
1584,77.0,0,60,2.0,0.0
1585,45.0,0,90,7.0,0.0
1586,65.0,48,60,3.0,0.0
1587,57.0,0,90,5.0,0.0
1588,69.0,0,60,2.0,0.0
1589,57.0,0,90,4.0,0.0
1590,60.0,0,60,3.0,0.0
1591,69.0,48,60,2.0,0.0
1592,77.0,0,60,2.0,0.0
1593,65.0,0,60,3.0,0.0
1594,69.0,0,60,2.0,0.0
1595,60.0,0,60,3.0,0.0
1596,65.0,0,60,3.0,0.0
1597,77.0,2,60,2.0,0.0
1598,53.0,0,90,5.0,0.0
1599,41.0,48,90,7.0,0.0
1600,53.0,0,90,4.0,0.0
1601,60.0,0,60,3.0,0.0
1602,65.0,0,60,3.0,0.0
1603,69.0,0,60,2.0,0.0
1604,77.0,0,60,2.0,0.0
1605,62.0,30,150,4.0,0.0
1606,65.0,0,60,3.0,0.0
1607,53.0,0,720,1.0,0.0
1608,77.0,0,60,2.0,0.0
1609,38.0,0,150,7.0,0.0
1610,69.0,0,60,2.0,0.0
1611,50.0,0,150,5.0,0.0
1612,69.0,0,720,0.0,0.0
1613,77.0,46,720,0.0,0.0
1614,65.0,0,720,1.0,0.0
1615,69.0,48,60,3.0,0.0
1616,69.0,0,60,2.0,0.0
1617,77.0,0,60,2.0,0.0
1618,65.0,48,60,3.0,0.0
1619,69.0,0,60,3.0,0.0
1620,69.0,0,60,2.0,0.0
1621,69.0,0,60,3.0,0.0
1622,77.0,18,60,2.0,0.0
1623,65.0,0,60,3.0,0.0
1624,69.0,0,60,2.0,0.0
1625,77.0,0,60,2.0,0.0
1626,65.0,0,60,3.0,0.0
1627,69.0,48,60,3.0,0.0
1628,65.0,0,60,3.0,0.0
1629,69.0,0,60,2.0,0.0
1630,77.0,0,60,2.0,0.0
1631,69.0,48,60,3.0,0.0
1632,77.0,48,60,2.0,0.0
1633,69.0,0,60,2.0,0.0
1634,65.0,0,60,3.0,0.0
1635,69.0,0,60,3.0,0.0
1636,77.0,0,60,2.0,0.0
1637,69.0,0,60,3.0,0.0
1638,65.0,0,60,3.0,0.0
1639,62.0,0,60,5.0,0.0
1640,50.0,48,60,7.0,0.0
1641,74.0,0,60,4.0,0.0
1642,69.0,0,60,2.0,0.0
1643,73.0,0,60,4.0,0.0
1644,49.0,0,60,7.0,0.0
1645,69.0,0,60,2.0,0.0
1646,77.0,0,60,2.0,0.0
1647,61.0,0,60,5.0,0.0
1648,65.0,0,60,3.0,0.0
1649,69.0,48,60,3.0,0.0
1650,77.0,0,60,2.0,0.0
1651,74.0,0,90,4.0,0.0
1652,65.0,48,60,3.0,0.0
1653,69.0,0,60,3.0,0.0
1654,50.0,0,90,7.0,0.0
1655,69.0,0,60,2.0,0.0
1656,62.0,0,90,5.0,0.0
1657,77.0,48,60,2.0,0.0
1658,69.0,0,60,2.0,0.0
1659,69.0,0,60,3.0,0.0
1660,65.0,0,60,3.0,0.0
1661,45.0,0,90,7.0,0.0
1662,77.0,0,60,2.0,0.0
1663,57.0,0,90,5.0,0.0
1664,69.0,48,60,2.0,0.0
1665,69.0,0,60,3.0,0.0
1666,65.0,0,60,3.0,0.0
1667,69.0,0,90,4.0,0.0
1668,77.0,0,60,2.0,0.0
1669,69.0,0,60,2.0,0.0
1670,65.0,0,60,3.0,0.0
1671,69.0,48,60,3.0,0.0
1672,53.0,0,90,5.0,0.0
1673,65.0,0,90,4.0,0.0
1674,77.0,48,60,2.0,0.0
1675,65.0,0,60,3.0,0.0
1676,41.0,0,90,7.0,0.0
1677,69.0,0,60,3.0,0.0
1678,69.0,0,60,2.0,0.0
1679,65.0,48,60,3.0,0.0
1680,69.0,0,60,3.0,0.0
1681,69.0,0,60,2.0,0.0
1682,77.0,0,60,2.0,0.0
1683,62.0,48,90,4.0,0.0
1684,38.0,0,90,7.0,0.0
1685,77.0,0,60,2.0,0.0
1686,69.0,0,60,3.0,0.0
1687,50.0,0,90,5.0,0.0
1688,69.0,2,60,2.0,0.0
1689,65.0,0,60,3.0,0.0
1690,69.0,0,60,2.0,0.0
1691,69.0,0,60,3.0,0.0
1692,77.0,0,60,2.0,0.0
1693,65.0,0,60,3.0,0.0
1694,58.0,30,150,4.0,0.0
1695,34.0,0,150,7.0,0.0
1696,67.0,0,60,3.0,0.0
1697,58.0,0,60,3.0,0.0
1698,67.0,0,1110,0.0,0.0
1699,77.0,0,60,2.0,0.0
1700,77.0,0,1110,0.0,0.0
1701,74.0,48,60,2.0,0.0
1702,46.0,0,150,5.0,0.0
1703,65.0,0,1110,1.0,0.0
1704,53.0,46,720,1.0,0.0
1705,77.0,0,60,2.0,0.0
1706,58.0,48,60,3.0,0.0
1707,67.0,0,60,3.0,0.0
1708,74.0,0,60,2.0,0.0
1709,67.0,0,60,3.0,0.0
1710,58.0,18,60,3.0,0.0
1711,74.0,0,60,2.0,0.0
1712,77.0,0,60,2.0,0.0
1713,67.0,48,60,3.0,0.0
1714,74.0,0,60,2.0,0.0
1715,77.0,0,60,2.0,0.0
1716,58.0,0,60,3.0,0.0
1717,58.0,48,60,3.0,0.0
1718,74.0,0,60,2.0,0.0
1719,77.0,0,60,2.0,0.0
1720,67.0,0,60,3.0,0.0
1721,74.0,0,60,2.0,0.0
1722,77.0,48,60,2.0,0.0
1723,58.0,0,60,3.0,0.0
1724,67.0,0,60,3.0,0.0
1725,58.0,0,60,5.0,0.0
1726,70.0,0,60,4.0,0.0
1727,46.0,0,60,7.0,0.0
1728,74.0,0,60,2.0,0.0
1729,77.0,48,60,2.0,0.0
1730,58.0,0,60,3.0,0.0
1731,67.0,0,60,3.0,0.0
1732,69.0,48,60,4.0,0.0
1733,67.0,0,60,3.0,0.0
1734,58.0,0,60,3.0,0.0
1735,45.0,0,60,7.0,0.0
1736,57.0,0,60,5.0,0.0
1737,77.0,0,60,2.0,0.0
1738,74.0,0,60,2.0,0.0
1739,58.0,0,60,3.0,0.0
1740,67.0,48,60,3.0,0.0
1741,70.0,48,90,4.0,0.0
1742,58.0,0,90,5.0,0.0
1743,46.0,0,90,7.0,0.0
1744,74.0,0,60,2.0,0.0
1745,77.0,0,60,2.0,0.0
1746,74.0,0,60,2.0,0.0
1747,77.0,0,60,2.0,0.0
1748,67.0,0,60,3.0,0.0
1749,58.0,0,60,3.0,0.0
1750,53.0,0,90,5.0,0.0
1751,65.0,0,90,4.0,0.0
1752,41.0,0,90,7.0,0.0
1753,77.0,0,60,2.0,0.0
1754,74.0,48,60,2.0,0.0
1755,58.0,0,60,3.0,0.0
1756,67.0,0,60,3.0,0.0
1757,77.0,0,60,2.0,0.0
1758,67.0,48,60,3.0,0.0
1759,58.0,0,60,3.0,0.0
1760,74.0,0,60,2.0,0.0
1761,50.0,0,90,5.0,0.0
1762,74.0,0,60,2.0,0.0
1763,77.0,0,60,2.0,0.0
1764,58.0,48,60,3.0,0.0
1765,38.0,0,90,7.0,0.0
1766,67.0,0,60,3.0,0.0
1767,62.0,0,90,4.0,0.0
1768,58.0,48,60,3.0,0.0
1769,67.0,0,60,3.0,0.0
1770,77.0,0,60,2.0,0.0
1771,74.0,0,60,2.0,0.0
1772,58.0,48,90,4.0,0.0
1773,77.0,0,60,2.0,0.0
1774,46.0,0,90,5.0,0.0
1775,74.0,0,60,2.0,0.0
1776,34.0,0,90,7.0,0.0
1777,58.0,0,60,3.0,0.0
1778,67.0,2,60,3.0,0.0
1779,74.0,0,60,2.0,0.0
1780,58.0,0,60,3.0,0.0
1781,77.0,0,60,2.0,0.0
1782,67.0,0,60,3.0,0.0
1783,67.0,0,60,3.0,0.0
1784,60.0,46,330,1.0,0.0
1785,60.0,0,60,3.0,0.0
1786,72.0,48,60,2.0,0.0
1787,60.0,30,150,4.0,0.0
1788,48.0,0,150,5.0,0.0
1789,77.0,0,60,2.0,0.0
1790,36.0,0,150,7.0,0.0
1791,67.0,0,60,3.0,0.0
1792,72.0,0,60,2.0,0.0
1793,77.0,0,60,2.0,0.0
1794,60.0,48,60,3.0,0.0
1795,67.0,0,60,3.0,0.0
1796,72.0,0,60,2.0,0.0
1797,77.0,0,60,2.0,0.0
1798,60.0,18,60,3.0,0.0
1799,60.0,0,60,3.0,0.0
1800,77.0,48,60,2.0,0.0
1801,72.0,0,60,2.0,0.0
1802,67.0,0,60,3.0,0.0
1803,60.0,0,60,3.0,0.0
1804,67.0,0,60,3.0,0.0
1805,72.0,48,60,2.0,0.0
1806,77.0,0,60,2.0,0.0
1807,67.0,0,60,3.0,0.0
1808,60.0,48,60,3.0,0.0
1809,77.0,0,60,2.0,0.0
1810,72.0,0,60,2.0,0.0
1811,72.0,0,60,4.0,0.0
1812,67.0,0,60,3.0,0.0
1813,60.0,0,60,3.0,0.0
1814,72.0,0,60,2.0,0.0
1815,77.0,0,60,2.0,0.0
1816,60.0,2,60,5.0,0.0
1817,48.0,0,60,7.0,0.0
1818,71.0,0,60,4.0,0.0
1819,47.0,0,60,7.0,0.0
1820,67.0,0,60,3.0,0.0
1821,72.0,48,60,2.0,0.0
1822,60.0,0,60,3.0,0.0
1823,59.0,0,60,5.0,0.0
1824,77.0,0,60,2.0,0.0
1825,64.0,46,330,1.0,0.0
1826,48.0,48,90,7.0,0.0
1827,60.0,48,60,3.0,0.0
1828,76.0,0,60,2.0,0.0
1829,72.0,0,90,4.0,0.0
1830,67.0,0,60,3.0,0.0
1831,60.0,0,90,5.0,0.0
1832,76.0,0,330,0.0,0.0
1833,70.0,0,330,0.0,0.0
1834,60.0,0,330,1.0,0.0
1835,70.0,0,60,2.0,0.0
1836,67.0,0,60,3.0,0.0
1837,70.0,0,60,2.0,0.0
1838,60.0,0,60,3.0,0.0
1839,76.0,0,60,2.0,0.0
1840,67.0,48,60,3.0,0.0
1841,60.0,0,60,3.0,0.0
1842,67.0,0,90,4.0,0.0
1843,76.0,0,60,2.0,0.0
1844,70.0,0,60,2.0,0.0
1845,55.0,0,90,5.0,0.0
1846,43.0,0,90,7.0,0.0
1847,60.0,0,60,3.0,0.0
1848,67.0,0,60,3.0,0.0
1849,70.0,0,60,2.0,0.0
1850,76.0,48,60,2.0,0.0
1851,70.0,0,60,2.0,0.0
1852,76.0,0,60,2.0,0.0
1853,40.0,0,90,7.0,0.0
1854,64.0,48,90,4.0,0.0
1855,67.0,0,60,3.0,0.0
1856,52.0,0,90,5.0,0.0
1857,60.0,48,60,3.0,0.0
1858,76.0,0,60,2.0,0.0
1859,70.0,0,60,2.0,0.0
1860,67.0,0,60,3.0,0.0
1861,60.0,0,60,3.0,0.0
1862,60.0,0,60,3.0,0.0
1863,67.0,2,60,3.0,0.0
1864,76.0,0,60,2.0,0.0
1865,70.0,0,60,2.0,0.0
1866,36.0,0,90,7.0,0.0
1867,60.0,0,90,4.0,0.0
1868,48.0,96,90,5.0,0.0
1869,76.0,0,60,2.0,0.0
1870,70.0,0,60,2.0,0.0
1871,67.0,0,60,3.0,0.0
1872,60.0,0,60,3.0,0.0
1873,65.0,0,540,3.0,0.0
1874,53.0,0,90,5.0,0.0
1875,69.0,0,540,3.0,0.0
1876,53.0,0,540,1.0,0.0
1877,41.0,0,90,7.0,0.0
1878,65.0,0,540,1.0,0.0
1879,77.0,0,540,0.0,0.0
1880,69.0,46,540,0.0,0.0
1881,65.0,96,90,4.0,0.0
1882,69.0,0,540,2.0,0.0
1883,77.0,0,540,2.0,0.0
1884,53.0,0,90,5.0,0.0
1885,65.0,0,90,4.0,0.0
1886,41.0,96,90,7.0,0.0
1887,41.0,96,90,7.0,0.0
1888,65.0,0,90,4.0,0.0
1889,53.0,0,90,5.0,0.0
1890,41.0,0,90,7.0,0.0
1891,53.0,0,90,5.0,0.0
1892,65.0,96,90,4.0,0.0
1893,41.0,50,90,7.0,0.0
1894,53.0,0,90,5.0,0.0
1895,65.0,0,90,4.0,0.0
1896,41.0,0,90,7.0,0.0
1897,65.0,0,90,4.0,0.0
1898,53.0,96,90,5.0,0.0
1899,81.0,24,150,2.0,0.0
1900,72.0,0,150,3.0,0.0
1901,65.0,50,90,4.0,0.0
1902,53.0,0,90,5.0,0.0
1903,41.0,0,90,7.0,0.0
1904,53.0,0,90,5.0,0.0
1905,41.0,96,90,7.0,0.0
1906,65.0,0,90,4.0,0.0
1907,70.0,0,20,3.0,0.0
1908,79.0,22,20,2.0,0.0
1909,81.0,0,20,2.0,0.0
1910,72.0,0,20,3.0,0.0
1911,53.0,0,90,5.0,0.0
1912,41.0,96,90,7.0,0.0
1913,74.0,0,90,3.0,0.0
1914,65.0,0,90,4.0,0.0
1915,82.0,0,90,2.0,0.0
1916,53.0,96,90,5.0,0.0
1917,65.0,0,90,4.0,0.0
1918,41.0,0,90,7.0,0.0
1919,65.0,96,90,4.0,0.0
1920,41.0,0,90,7.0,0.0
1921,72.0,0,90,3.0,0.0
1922,81.0,0,90,2.0,0.0
1923,53.0,0,90,5.0,0.0
1924,41.0,0,90,7.0,0.0
1925,53.0,0,90,5.0,0.0
1926,65.0,96,90,4.0,0.0
1927,74.0,0,90,3.0,0.0
1928,53.0,0,90,5.0,0.0
1929,82.0,0,90,2.0,0.0
1930,41.0,0,90,7.0,0.0
1931,65.0,96,90,4.0,0.0
1932,65.0,0,90,4.0,0.0
1933,53.0,0,90,5.0,0.0
1934,41.0,96,90,7.0,0.0
1935,41.0,0,90,7.0,0.0
1936,53.0,0,90,5.0,0.0
1937,65.0,0,90,4.0,0.0
1938,79.0,96,90,2.0,0.0
1939,70.0,0,90,3.0,0.0
1940,65.0,0,90,4.0,0.0
1941,53.0,0,90,5.0,0.0
1942,41.0,96,90,7.0,0.0
1943,41.0,0,90,7.0,0.0
1944,72.0,0,390,0.0,0.0
1945,65.0,96,90,4.0,0.0
1946,84.0,94,390,2.0,0.0
1947,81.0,0,390,0.0,0.0
1948,53.0,0,480,1.0,0.0
1949,65.0,0,480,1.0,0.0
1950,81.0,0,390,3.0,0.0
1951,53.0,0,90,5.0,0.0
1952,53.0,96,90,5.0,0.0
1953,41.0,0,90,7.0,0.0
1954,65.0,0,90,4.0,0.0
1955,41.0,0,90,7.0,0.0
1956,65.0,0,90,4.0,0.0
1957,53.0,96,90,5.0,0.0
1958,53.0,0,90,5.0,0.0
1959,65.0,2,90,4.0,0.0
1960,41.0,0,90,7.0,0.0
1961,53.0,0,90,5.0,0.0
1962,65.0,0,90,4.0,0.0
1963,77.0,0,90,0.0,0.0
1964,69.0,0,90,0.0,0.0
1965,77.0,96,90,3.0,0.0
1966,41.0,0,90,7.0,0.0
1967,81.0,0,90,2.0,0.0
1968,65.0,0,90,4.0,0.0
1969,53.0,0,90,5.0,0.0
1970,41.0,96,90,7.0,0.0
1971,65.0,0,90,4.0,0.0
1972,53.0,50,90,5.0,0.0
1973,81.0,24,150,2.0,0.0
1974,41.0,0,90,7.0,0.0
1975,72.0,0,150,3.0,0.0
1976,65.0,0,90,4.0,0.0
1977,41.0,0,90,7.0,0.0
1978,53.0,0,90,5.0,0.0
1979,70.0,0,20,3.0,0.0
1980,79.0,22,20,2.0,0.0
1981,72.0,96,20,3.0,0.0
1982,81.0,0,20,2.0,0.0
1983,41.0,0,90,7.0,0.0
1984,65.0,0,90,4.0,0.0
1985,82.0,0,90,2.0,0.0
1986,53.0,0,90,5.0,0.0
1987,74.0,96,90,3.0,0.0
1988,65.0,96,90,4.0,0.0
1989,53.0,0,90,5.0,0.0
1990,41.0,0,90,7.0,0.0
1991,53.0,0,90,5.0,0.0
1992,65.0,0,90,4.0,0.0
1993,72.0,0,90,3.0,0.0
1994,81.0,0,90,2.0,0.0
1995,41.0,96,90,7.0,0.0
1996,53.0,96,90,5.0,0.0
1997,41.0,0,90,7.0,0.0
1998,65.0,0,90,4.0,0.0
1999,74.0,0,90,3.0,0.0
2000,82.0,0,90,2.0,0.0
2001,53.0,0,90,5.0,0.0
2002,65.0,96,90,4.0,0.0
2003,41.0,0,90,7.0,0.0
2004,53.0,96,90,5.0,0.0
2005,65.0,0,90,4.0,0.0
2006,41.0,0,90,7.0,0.0
2007,41.0,0,90,7.0,0.0
2008,65.0,0,90,4.0,0.0
2009,79.0,0,90,2.0,0.0
2010,53.0,0,90,5.0,0.0
2011,70.0,96,90,3.0,0.0
2012,65.0,0,90,4.0,0.0
2013,53.0,96,90,5.0,0.0
2014,41.0,0,90,7.0,0.0
2015,53.0,0,480,1.0,0.0
2016,77.0,0,390,2.0,0.0
2017,69.0,94,390,3.0,0.0
2018,69.0,0,390,0.0,0.0
2019,65.0,96,90,4.0,0.0
2020,41.0,0,90,7.0,0.0
2021,65.0,0,480,1.0,0.0
2022,53.0,0,90,5.0,0.0
2023,77.0,0,390,0.0,0.0
2024,65.0,0,90,4.0,0.0
2025,53.0,96,90,5.0,0.0
2026,41.0,0,90,7.0,0.0
2027,65.0,0,90,4.0,0.0
2028,53.0,96,90,5.0,0.0
2029,41.0,0,90,7.0,0.0
2030,53.0,2,90,5.0,0.0
2031,41.0,0,90,7.0,0.0
2032,65.0,0,90,4.0,0.0
2033,81.0,0,90,2.0,0.0
2034,41.0,0,90,7.0,0.0
2035,72.0,0,90,3.0,0.0
2036,72.0,0,90,0.0,0.0
2037,65.0,0,90,4.0,0.0
2038,81.0,96,90,0.0,0.0
2039,53.0,0,90,5.0,0.0
2040,65.0,0,90,4.0,0.0
2041,53.0,0,90,5.0,0.0
2042,41.0,96,90,7.0,0.0
2043,53.0,0,90,5.0,0.0
2044,60.0,0,150,3.0,0.0
2045,72.0,0,150,0.0,0.0
2046,69.0,8,150,0.0,0.0
2047,65.0,50,90,4.0,0.0
2048,69.0,16,150,2.0,0.0
2049,41.0,0,90,7.0,0.0
2050,41.0,0,90,7.0,0.0
2051,53.0,0,90,5.0,0.0
2052,65.0,96,90,4.0,0.0
2053,58.0,0,20,3.0,0.0
2054,67.0,22,20,2.0,0.0
2055,60.0,0,20,3.0,0.0
2056,69.0,0,20,2.0,0.0
2057,53.0,0,90,5.0,0.0
2058,70.0,96,90,0.0,0.0
2059,62.0,0,90,3.0,0.0
2060,74.0,0,90,0.0,0.0
2061,41.0,0,90,7.0,0.0
2062,65.0,0,90,4.0,0.0
2063,70.0,0,90,2.0,0.0
2064,65.0,0,90,4.0,0.0
2065,53.0,0,90,5.0,0.0
2066,41.0,96,90,7.0,0.0
2067,69.0,0,90,0.0,0.0
2068,72.0,0,90,0.0,0.0
2069,41.0,0,90,7.0,0.0
2070,65.0,0,90,4.0,0.0
2071,69.0,0,90,2.0,0.0
2072,53.0,0,90,5.0,0.0
2073,60.0,96,90,3.0,0.0
2074,53.0,96,90,5.0,0.0
2075,41.0,0,90,7.0,0.0
2076,65.0,0,90,4.0,0.0
2077,70.0,0,90,2.0,0.0
2078,74.0,0,90,0.0,0.0
2079,41.0,0,90,7.0,0.0
2080,70.0,0,90,0.0,0.0
2081,62.0,0,90,3.0,0.0
2082,65.0,0,90,4.0,0.0
2083,53.0,96,90,5.0,0.0
2084,53.0,0,90,5.0,0.0
2085,65.0,0,90,4.0,0.0
2086,41.0,96,90,7.0,0.0
2087,53.0,96,90,5.0,0.0
2088,58.0,0,90,3.0,0.0
2089,65.0,0,90,4.0,0.0
2090,67.0,0,90,0.0,0.0
2091,67.0,0,90,2.0,0.0
2092,70.0,0,90,0.0,0.0
2093,41.0,0,90,7.0,0.0
2094,65.0,0,90,4.0,0.0
2095,53.0,96,90,5.0,0.0
2096,41.0,0,90,7.0,0.0
2097,65.0,0,90,4.0,0.0
2098,41.0,0,90,7.0,0.0
2099,72.0,0,390,2.0,0.0
2100,69.0,0,390,3.0,0.0
2101,41.0,0,480,1.0,0.0
2102,53.0,96,90,5.0,0.0
2103,72.0,94,390,0.0,0.0
2104,53.0,0,480,1.0,0.0
2105,41.0,0,90,7.0,0.0
2106,65.0,96,90,4.0,0.0
2107,53.0,0,90,5.0,0.0
2108,65.0,0,90,4.0,0.0
2109,53.0,0,90,5.0,0.0
2110,41.0,96,90,7.0,0.0
2111,65.0,2,90,4.0,0.0
2112,53.0,0,90,5.0,0.0
2113,41.0,0,90,7.0,0.0
2114,65.0,0,90,4.0,0.0
2115,69.0,0,90,2.0,0.0
2116,69.0,0,15,0.0,0.0
2117,65.0,0,90,0.0,0.0
2118,65.0,0,90,3.0,0.0
2119,41.0,0,90,7.0,0.0
2120,53.0,96,90,5.0,0.0
2121,53.0,0,90,5.0,0.0
2122,41.0,0,90,7.0,0.0
2123,65.0,96,90,4.0,0.0
2124,65.0,0,150,0.0,0.0
2125,65.0,16,150,3.0,0.0
2126,41.0,50,90,7.0,0.0
2127,53.0,0,90,5.0,0.0
2128,65.0,0,90,4.0,0.0
2129,69.0,0,150,2.0,0.0
2130,69.0,8,150,0.0,0.0
2131,41.0,0,90,7.0,0.0
2132,65.0,0,90,4.0,0.0
2133,53.0,0,90,5.0,0.0
2134,67.0,0,20,2.0,0.0
2135,64.0,22,20,3.0,0.0
2136,69.0,96,20,2.0,0.0
2137,65.0,0,20,3.0,0.0
2138,67.0,0,90,3.0,0.0
2139,53.0,0,90,5.0,0.0
2140,70.0,0,90,0.0,0.0
2141,67.0,0,90,0.0,0.0
2142,41.0,0,90,7.0,0.0
2143,65.0,0,90,4.0,0.0
2144,70.0,96,90,2.0,0.0
2145,41.0,96,90,7.0,0.0
2146,65.0,0,90,4.0,0.0
2147,53.0,0,90,5.0,0.0
2148,69.0,0,90,2.0,0.0
2149,65.0,0,90,0.0,0.0
2150,69.0,0,90,0.0,0.0
2151,65.0,0,90,4.0,0.0
2152,41.0,0,90,7.0,0.0
2153,53.0,0,90,5.0,0.0
2154,65.0,96,90,3.0,0.0
2155,41.0,0,90,7.0,0.0
2156,65.0,0,90,4.0,0.0
2157,53.0,96,90,5.0,0.0
2158,41.0,0,90,7.0,0.0
2159,70.0,0,90,2.0,0.0
2160,67.0,0,90,0.0,0.0
2161,70.0,0,90,0.0,0.0
2162,65.0,0,90,4.0,0.0
2163,53.0,0,90,5.0,0.0
2164,67.0,96,90,3.0,0.0
2165,41.0,96,90,7.0,0.0
2166,65.0,0,90,4.0,0.0
2167,53.0,0,90,5.0,0.0
2168,53.0,0,90,5.0,0.0
2169,64.0,0,90,0.0,0.0
2170,65.0,0,90,4.0,0.0
2171,67.0,0,90,2.0,0.0
2172,41.0,0,90,7.0,0.0
2173,67.0,0,90,0.0,0.0
2174,64.0,96,90,3.0,0.0
2175,53.0,0,90,5.0,0.0
2176,41.0,48,90,7.0,0.0
2177,65.0,0,90,4.0,0.0
2178,53.0,0,150,1.0,0.0
2179,65.0,0,60,3.0,0.0
2180,41.0,0,150,7.0,0.0
2181,65.0,0,150,0.0,0.0
2182,69.0,0,150,0.0,0.0
2183,41.0,30,150,1.0,0.0
2184,65.0,0,150,4.0,0.0
2185,72.0,48,60,2.0,0.0
2186,53.0,0,150,5.0,0.0
2187,77.0,0,60,2.0,0.0
2188,69.0,48,60,3.0,0.0
2189,77.0,0,60,2.0,0.0
2190,69.0,18,60,3.0,0.0
2191,77.0,0,60,2.0,0.0
2192,69.0,48,60,3.0,0.0
2193,69.0,48,60,3.0,0.0
2194,77.0,0,60,2.0,0.0
2195,69.0,30,150,0.0,0.0
2196,77.0,0,150,0.0,0.0
2197,77.0,0,60,2.0,0.0
2198,69.0,48,60,3.0,0.0
2199,69.0,18,60,3.0,0.0
2200,77.0,0,60,2.0,0.0
2201,77.0,48,60,2.0,0.0
2202,69.0,0,60,3.0,0.0
2203,69.0,0,150,0.0,0.0
2204,69.0,0,60,3.0,0.0
2205,77.0,48,60,2.0,0.0
2206,77.0,30,150,0.0,0.0
2207,77.0,0,60,2.0,0.0
2208,69.0,48,60,3.0,0.0
2209,69.0,18,60,3.0,0.0
2210,77.0,0,60,2.0,0.0
2211,77.0,0,60,2.0,0.0
2212,69.0,48,60,3.0,0.0
2213,69.0,8,150,0.0,0.0
2214,65.0,16,150,4.0,0.0
2215,53.0,0,150,5.0,0.0
2216,77.0,0,150,0.0,0.0
2217,41.0,0,150,7.0,0.0
2218,77.0,48,60,2.0,0.0
2219,69.0,0,60,3.0,0.0
2220,69.0,0,60,3.0,0.0
2221,77.0,48,60,2.0,0.0
2222,69.0,2,60,3.0,0.0
2223,77.0,0,60,2.0,0.0
2224,69.0,0,60,3.0,0.0
2225,64.0,0,20,4.0,0.0
2226,77.0,0,60,2.0,0.0
2227,52.0,22,20,5.0,0.0
2228,40.0,0,20,7.0,0.0
2229,65.0,0,20,4.0,0.0
2230,53.0,48,20,5.0,0.0
2231,41.0,0,20,7.0,0.0
2232,68.0,0,930,0.0,0.0
2233,65.0,0,90,4.0,0.0
2234,77.0,0,60,2.0,0.0
2235,77.0,0,930,0.0,0.0
2236,68.0,48,60,3.0,0.0
2237,41.0,0,90,7.0,0.0
2238,53.0,0,90,5.0,0.0
2239,53.0,0,720,1.0,0.0
2240,77.0,0,60,2.0,0.0
2241,68.0,48,60,3.0,0.0
2242,77.0,0,60,2.0,0.0
2243,68.0,48,60,3.0,0.0
2244,77.0,48,60,2.0,0.0
2245,68.0,0,60,3.0,0.0
2246,67.0,0,90,4.0,0.0
2247,77.0,48,60,2.0,0.0
2248,68.0,0,60,3.0,0.0
2249,55.0,0,90,5.0,0.0
2250,43.0,0,90,7.0,0.0
2251,68.0,48,60,3.0,0.0
2252,77.0,0,60,2.0,0.0
2253,77.0,0,60,2.0,0.0
2254,68.0,48,60,3.0,0.0
2255,77.0,0,60,2.0,0.0
2256,68.0,48,60,3.0,0.0
2257,68.0,0,60,3.0,0.0
2258,44.0,0,90,7.0,0.0
2259,77.0,48,60,2.0,0.0
2260,56.0,48,90,5.0,0.0
2261,68.0,0,90,4.0,0.0
2262,68.0,0,60,3.0,0.0
2263,77.0,0,60,2.0,0.0
2264,77.0,48,60,2.0,0.0
2265,68.0,0,60,3.0,0.0
2266,68.0,0,60,3.0,0.0
2267,77.0,48,60,2.0,0.0
2268,53.0,0,90,5.0,0.0
2269,41.0,0,90,7.0,0.0
2270,68.0,0,60,3.0,0.0
2271,65.0,48,90,4.0,0.0
2272,77.0,48,60,2.0,0.0
2273,68.0,0,60,3.0,0.0
2274,77.0,0,60,2.0,0.0
2275,68.0,2,60,3.0,0.0
2276,77.0,0,60,2.0,0.0
2277,77.0,0,60,2.0,0.0
2278,68.0,48,60,3.0,0.0
2279,50.0,0,150,5.0,0.0
2280,77.0,48,60,2.0,0.0
2281,38.0,0,150,7.0,0.0
2282,68.0,0,60,3.0,0.0
2283,62.0,30,150,4.0,0.0
2284,68.0,0,60,3.0,0.0
2285,77.0,48,60,2.0,0.0
2286,68.0,0,60,3.0,0.0
2287,77.0,18,60,2.0,0.0
2288,68.0,0,60,3.0,0.0
2289,77.0,48,60,2.0,0.0
2290,77.0,0,150,0.0,0.0
2291,68.0,0,60,3.0,0.0
2292,77.0,48,60,2.0,0.0
2293,68.0,30,150,0.0,0.0
2294,68.0,0,60,3.0,0.0
2295,77.0,48,60,2.0,0.0
2296,68.0,18,60,3.0,0.0
2297,77.0,0,60,2.0,0.0
2298,68.0,0,60,3.0,0.0
2299,77.0,48,60,2.0,0.0
2300,68.0,48,60,3.0,0.0
2301,72.0,0,150,0.0,0.0
2302,77.0,0,60,2.0,0.0
2303,80.0,30,150,0.0,0.0
2304,68.0,48,60,3.0,0.0
2305,77.0,0,60,2.0,0.0
2306,77.0,0,60,2.0,0.0
2307,68.0,18,60,3.0,0.0
2308,77.0,0,60,2.0,0.0
2309,68.0,48,60,3.0,0.0
2310,53.0,0,150,5.0,0.0
2311,65.0,0,150,4.0,0.0
2312,77.0,0,60,2.0,0.0
2313,41.0,16,150,7.0,0.0
2314,68.0,48,60,3.0,0.0
2315,77.0,8,150,0.0,0.0
2316,68.0,0,150,0.0,0.0
2317,77.0,48,60,2.0,0.0
2318,68.0,0,60,3.0,0.0
2319,68.0,2,60,3.0,0.0
2320,77.0,0,60,2.0,0.0
2321,40.0,0,20,7.0,0.0
2322,52.0,22,20,5.0,0.0
2323,68.0,48,60,3.0,0.0
2324,64.0,0,20,4.0,0.0
2325,77.0,0,60,2.0,0.0
2326,41.0,0,20,7.0,0.0
2327,53.0,0,20,5.0,0.0
2328,65.0,0,20,4.0,0.0
2329,77.0,0,60,2.0,0.0
2330,68.0,48,60,3.0,0.0
2331,68.0,0,930,0.0,0.0
2332,53.0,0,90,5.0,0.0
2333,53.0,0,720,1.0,0.0
2334,41.0,0,90,7.0,0.0
2335,77.0,0,930,0.0,0.0
2336,65.0,0,90,4.0,0.0
2337,77.0,0,60,2.0,0.0
2338,68.0,48,60,3.0,0.0
2339,68.0,0,60,3.0,0.0
2340,77.0,48,60,2.0,0.0
2341,77.0,48,60,2.0,0.0
2342,68.0,0,60,3.0,0.0
2343,77.0,48,60,2.0,0.0
2344,67.0,0,90,4.0,0.0
2345,43.0,48,90,7.0,0.0
2346,55.0,0,90,5.0,0.0
2347,68.0,0,60,3.0,0.0
2348,68.0,0,60,3.0,0.0
2349,77.0,0,60,2.0,0.0
2350,68.0,48,60,3.0,0.0
2351,77.0,0,60,2.0,0.0
2352,77.0,0,60,2.0,0.0
2353,68.0,48,60,3.0,0.0
2354,56.0,0,90,5.0,0.0
2355,68.0,48,60,3.0,0.0
2356,68.0,0,90,4.0,0.0
2357,77.0,0,60,2.0,0.0
2358,44.0,0,90,7.0,0.0
2359,68.0,0,60,3.0,0.0
2360,77.0,48,60,2.0,0.0
2361,68.0,48,60,3.0,0.0
2362,77.0,0,60,2.0,0.0
2363,77.0,48,60,2.0,0.0
2364,68.0,0,60,3.0,0.0
2365,68.0,48,60,3.0,0.0
2366,77.0,0,60,2.0,0.0
2367,65.0,0,90,4.0,0.0
2368,53.0,0,90,5.0,0.0
2369,41.0,48,90,7.0,0.0
2370,77.0,0,60,2.0,0.0
2371,68.0,0,60,3.0,0.0
2372,77.0,2,60,2.0,0.0
2373,68.0,0,60,3.0,0.0
2374,68.0,0,60,3.0,0.0
2375,77.0,48,60,2.0,0.0
2376,68.0,48,60,3.0,0.0
2377,47.0,0,150,5.0,0.0
2378,35.0,30,150,7.0,0.0
2379,59.0,0,150,4.0,0.0
2380,77.0,0,60,2.0,0.0
2381,68.0,48,60,3.0,0.0
2382,77.0,0,60,2.0,0.0
2383,77.0,0,60,2.0,0.0
2384,68.0,18,60,3.0,0.0
2385,68.0,0,60,3.0,0.0
2386,77.0,48,60,2.0,0.0
2387,68.0,0,60,3.0,0.0
2388,68.0,0,150,0.0,0.0
2389,77.0,30,150,0.0,0.0
2390,77.0,48,60,2.0,0.0
2391,77.0,48,60,2.0,0.0
2392,68.0,0,60,3.0,0.0
2393,77.0,18,60,2.0,0.0
2394,68.0,0,60,3.0,0.0
2395,68.0,48,60,3.0,0.0
2396,77.0,0,60,2.0,0.0
2397,72.0,30,150,0.0,0.0
2398,77.0,0,60,2.0,0.0
2399,80.0,0,150,0.0,0.0
2400,68.0,48,60,3.0,0.0
2401,77.0,48,60,2.0,0.0
2402,68.0,0,60,3.0,0.0
2403,68.0,0,60,3.0,0.0
2404,77.0,18,60,2.0,0.0
2405,68.0,0,60,3.0,0.0
2406,77.0,48,60,2.0,0.0
2407,68.0,48,60,3.0,0.0
2408,77.0,8,150,0.0,0.0
2409,68.0,0,150,0.0,0.0
2410,65.0,16,150,4.0,0.0
2411,41.0,0,150,7.0,0.0
2412,53.0,0,150,5.0,0.0
2413,77.0,0,60,2.0,0.0
2414,77.0,0,60,2.0,0.0
2415,68.0,48,60,3.0,0.0
2416,77.0,2,60,2.0,0.0
2417,68.0,0,60,3.0,0.0
2418,68.0,0,60,3.0,0.0
2419,77.0,48,60,2.0,0.0
2420,52.0,0,20,5.0,0.0
2421,40.0,22,20,7.0,0.0
2422,64.0,0,20,4.0,0.0
2423,53.0,0,20,5.0,0.0
2424,65.0,0,20,4.0,0.0
2425,41.0,0,20,7.0,0.0
2426,68.0,0,60,3.0,0.0
2427,77.0,48,60,2.0,0.0
2428,56.0,0,90,5.0,0.0
2429,77.0,46,720,0.0,0.0
2430,68.0,0,720,0.0,0.0
2431,44.0,0,90,7.0,0.0
2432,68.0,48,90,4.0,0.0
2433,68.0,0,60,3.0,0.0
2434,77.0,0,60,2.0,0.0
2435,77.0,48,60,2.0,0.0
2436,68.0,0,60,3.0,0.0
2437,68.0,0,60,3.0,0.0
2438,77.0,48,60,2.0,0.0
2439,53.0,48,90,5.0,0.0
2440,68.0,0,60,3.0,0.0
2441,65.0,0,90,4.0,0.0
2442,41.0,0,90,7.0,0.0
2443,77.0,48,60,2.0,0.0
2444,68.0,0,60,3.0,0.0
2445,77.0,0,60,2.0,0.0
2446,77.0,0,60,2.0,0.0
2447,68.0,48,60,3.0,0.0
2448,77.0,48,60,2.0,0.0
2449,68.0,0,60,3.0,0.0
2450,68.0,48,60,3.0,0.0
2451,62.0,0,90,4.0,0.0
2452,50.0,48,90,5.0,0.0
2453,77.0,0,60,2.0,0.0
2454,38.0,0,90,7.0,0.0
2455,77.0,0,60,2.0,0.0
2456,68.0,0,60,3.0,0.0
2457,77.0,0,60,2.0,0.0
2458,68.0,48,60,3.0,0.0
2459,77.0,48,60,2.0,0.0
2460,68.0,0,60,3.0,0.0
2461,77.0,48,60,2.0,0.0
2462,68.0,0,60,3.0,0.0
2463,47.0,0,90,5.0,0.0
2464,35.0,0,90,7.0,0.0
2465,59.0,0,90,4.0,0.0
2466,68.0,48,60,3.0,0.0
2467,77.0,0,60,2.0,0.0
2468,68.0,2,60,3.0,0.0
2469,77.0,0,60,2.0,0.0
2470,68.0,96,60,3.0,0.0
2471,77.0,0,60,2.0,0.0
2472,48.0,66,90,5.0,0.0
2473,75.0,0,150,2.0,0.0
2474,67.0,30,150,3.0,0.0
2475,75.0,30,270,0.0,0.0
2476,67.0,0,270,0.0,0.0
2477,60.0,0,150,4.0,0.0
2478,36.0,0,90,7.0,0.0
2479,60.0,0,330,1.0,0.0
2480,55.0,48,90,5.0,0.0
2481,43.0,0,90,7.0,0.0
2482,51.0,0,90,5.0,0.0
2483,39.0,0,90,7.0,0.0
2484,67.0,18,60,4.0,0.0
2485,67.0,48,60,4.0,0.0
2486,67.0,0,90,0.0,0.0
2487,36.0,0,90,7.0,0.0
2488,48.0,0,90,5.0,0.0
2489,67.0,2,60,4.0,0.0
2490,75.0,48,90,0.0,0.0
2491,67.0,0,60,4.0,0.0
2492,65.0,30,150,0.0,0.0
2493,74.0,0,150,0.0,0.0
2494,77.0,0,270,3.0,0.0
2495,35.0,0,90,7.0,0.0
2496,47.0,0,90,5.0,0.0
2497,86.0,30,270,2.0,0.0
2498,67.0,48,60,4.0,0.0
2499,67.0,48,60,4.0,0.0
2500,50.0,0,90,5.0,0.0
2501,38.0,48,90,7.0,0.0
2502,67.0,18,60,4.0,0.0
2503,67.0,0,60,4.0,0.0
2504,43.0,48,90,5.0,0.0
2505,67.0,18,60,4.0,0.0
2506,31.0,0,90,7.0,0.0
2507,67.0,0,60,4.0,0.0
2508,77.0,0,90,2.0,0.0
2509,67.0,48,60,4.0,0.0
2510,74.0,0,90,3.0,0.0
2511,35.0,0,90,7.0,0.0
2512,47.0,0,90,5.0,0.0
2513,67.0,48,60,4.0,0.0
2514,72.0,30,150,3.0,0.0
2515,72.0,30,270,0.0,0.0
2516,55.0,0,60,4.0,0.0
2517,67.0,48,60,4.0,0.0
2518,36.0,0,90,7.0,0.0
2519,60.0,0,330,1.0,0.0
2520,63.0,0,270,0.0,0.0
2521,48.0,48,90,5.0,0.0
2522,75.0,0,150,2.0,0.0
2523,67.0,0,60,4.0,0.0
2524,55.0,0,60,4.0,0.0
2525,67.0,18,60,4.0,0.0
2526,55.0,0,60,4.0,0.0
2527,43.0,0,90,7.0,0.0
2528,55.0,48,90,5.0,0.0
2529,55.0,0,60,4.0,0.0
2530,67.0,0,60,4.0,0.0
2531,67.0,0,60,4.0,0.0
2532,55.0,18,60,4.0,0.0
2533,51.0,0,90,5.0,0.0
2534,39.0,0,90,7.0,0.0
2535,55.0,0,60,4.0,0.0
2536,67.0,48,60,4.0,0.0
2537,67.0,48,90,0.0,0.0
2538,48.0,0,90,5.0,0.0
2539,75.0,0,90,0.0,0.0
2540,36.0,0,90,7.0,0.0
2541,67.0,2,60,4.0,0.0
2542,55.0,0,60,4.0,0.0
2543,55.0,0,60,4.0,0.0
2544,67.0,0,60,4.0,0.0
2545,47.0,48,90,5.0,0.0
2546,65.0,0,150,0.0,0.0
2547,77.0,30,270,3.0,0.0
2548,55.0,0,60,4.0,0.0
2549,86.0,0,270,2.0,0.0
2550,74.0,30,150,0.0,0.0
2551,67.0,48,60,4.0,0.0
2552,35.0,0,90,7.0,0.0
2553,67.0,0,60,4.0,0.0
2554,55.0,0,60,4.0,0.0
2555,50.0,0,90,5.0,0.0
2556,38.0,48,90,7.0,0.0
2557,55.0,18,60,4.0,0.0
2558,67.0,0,60,4.0,0.0
2559,67.0,0,60,4.0,0.0
2560,55.0,0,60,4.0,0.0
2561,31.0,0,90,7.0,0.0
2562,67.0,0,60,4.0,0.0
2563,55.0,18,60,4.0,0.0
2564,43.0,48,90,5.0,0.0
2565,67.0,0,60,4.0,0.0
2566,55.0,0,60,4.0,0.0
2567,55.0,48,60,4.0,0.0
2568,35.0,48,90,7.0,0.0
2569,67.0,0,60,4.0,0.0
2570,77.0,0,90,2.0,0.0
2571,47.0,0,90,5.0,0.0
2572,74.0,0,90,3.0,0.0
2573,55.0,0,60,4.0,0.0
2574,67.0,0,60,4.0,0.0
2575,48.0,0,90,5.0,0.0
2576,72.0,48,60,3.0,0.0
2577,75.0,30,150,0.0,0.0
2578,36.0,0,90,7.0,0.0
2579,60.0,0,720,1.0,0.0
2580,67.0,0,90,4.0,0.0
2581,84.0,0,720,0.0,0.0
2582,75.0,0,60,2.0,0.0
2583,72.0,48,60,3.0,0.0
2584,75.0,0,60,2.0,0.0
2585,75.0,18,60,2.0,0.0
2586,72.0,0,60,3.0,0.0
2587,67.0,48,90,4.0,0.0
2588,48.0,0,90,5.0,0.0
2589,36.0,0,90,7.0,0.0
2590,75.0,0,60,2.0,0.0
2591,72.0,0,60,3.0,0.0
2592,65.0,48,90,4.0,0.0
2593,77.0,0,60,2.0,0.0
2594,38.0,0,90,7.0,0.0
2595,72.0,48,60,3.0,0.0
2596,50.0,0,90,5.0,0.0
2597,77.0,30,150,0.0,0.0
2598,72.0,0,60,3.0,0.0
2599,77.0,0,60,2.0,0.0
2600,77.0,18,60,2.0,0.0
2601,65.0,0,90,4.0,0.0
2602,72.0,0,60,3.0,0.0
2603,50.0,0,90,5.0,0.0
2604,38.0,0,90,7.0,0.0
2605,72.0,0,60,3.0,0.0
2606,77.0,48,60,2.0,0.0
2607,63.0,0,90,4.0,0.0
2608,72.0,48,60,3.0,0.0
2609,79.0,0,60,2.0,0.0
2610,79.0,30,150,0.0,0.0
2611,51.0,48,90,5.0,0.0
2612,39.0,0,90,7.0,0.0
2613,79.0,0,60,2.0,0.0
2614,72.0,0,60,3.0,0.0
2615,51.0,48,90,5.0,0.0
2616,79.0,18,60,2.0,0.0
2617,39.0,0,90,7.0,0.0
2618,63.0,0,90,4.0,0.0
2619,72.0,0,60,3.0,0.0
2620,72.0,0,60,3.0,0.0
2621,79.0,0,60,2.0,0.0
2622,53.0,0,90,5.0,0.0
2623,41.0,0,90,7.0,0.0
2624,80.0,30,150,0.0,0.0
2625,62.0,0,90,4.0,0.0
2626,80.0,0,60,2.0,0.0
2627,72.0,48,60,3.0,0.0
2628,80.0,0,60,2.0,0.0
2629,72.0,48,60,3.0,0.0
2630,53.0,0,90,5.0,0.0
2631,72.0,2,60,3.0,0.0
2632,62.0,0,90,4.0,0.0
2633,80.0,0,60,2.0,0.0
2634,41.0,48,90,7.0,0.0
2635,72.0,0,60,3.0,0.0
2636,80.0,0,60,2.0,0.0
2637,72.0,48,60,3.0,0.0
2638,75.0,46,330,0.0,0.0
2639,43.0,48,90,7.0,0.0
2640,84.0,30,150,0.0,0.0
2641,75.0,0,60,2.0,0.0
2642,55.0,0,90,5.0,0.0
2643,55.0,0,90,4.0,0.0
2644,75.0,0,60,2.0,0.0
2645,72.0,0,60,3.0,0.0
2646,43.0,0,90,7.0,0.0
2647,55.0,0,90,5.0,0.0
2648,75.0,18,60,2.0,0.0
2649,67.0,48,90,4.0,0.0
2650,72.0,0,60,3.0,0.0
2651,72.0,0,60,3.0,0.0
2652,75.0,0,60,2.0,0.0
2653,55.0,0,90,5.0,0.0
2654,75.0,0,60,2.0,0.0
2655,67.0,48,90,4.0,0.0
2656,43.0,0,90,7.0,0.0
2657,72.0,48,60,3.0,0.0
2658,84.0,46,330,0.0,0.0
2659,72.0,0,60,3.0,0.0
2660,75.0,0,60,2.0,0.0
2661,72.0,0,60,3.0,0.0
2662,55.0,0,90,5.0,0.0
2663,75.0,2,60,2.0,0.0
2664,43.0,0,90,7.0,0.0
2665,67.0,48,90,4.0,0.0
2666,72.0,0,60,3.0,0.0
2667,75.0,0,60,2.0,0.0
2668,74.0,16,330,0.0,0.0
2669,43.0,0,90,5.0,0.0
2670,67.0,0,90,4.0,0.0
2671,31.0,48,90,7.0,0.0
2672,74.0,48,60,2.0,0.0
2673,72.0,0,60,3.0,0.0
2674,72.0,0,60,3.0,0.0
2675,74.0,0,60,2.0,0.0
2676,67.0,0,90,4.0,0.0
2677,72.0,0,60,3.0,0.0
2678,43.0,0,90,5.0,0.0
2679,31.0,0,90,7.0,0.0
2680,74.0,2,60,2.0,0.0
2681,74.0,48,60,2.0,0.0
2682,72.0,0,60,3.0,0.0
2683,71.0,0,60,3.0,0.0
2684,43.0,48,90,5.0,0.0
2685,31.0,0,90,7.0,0.0
2686,83.0,30,150,0.0,0.0
2687,74.0,48,60,2.0,0.0
2688,65.0,0,90,4.0,0.0
2689,71.0,0,60,3.0,0.0
2690,74.0,0,60,2.0,0.0
2691,31.0,0,90,7.0,0.0
2692,65.0,0,90,4.0,0.0
2693,71.0,0,60,3.0,0.0
2694,43.0,0,90,5.0,0.0
2695,74.0,2,60,2.0,0.0
2696,71.0,26,60,3.0,0.0
2697,74.0,0,60,2.0,0.0
2698,63.0,0,20,3.0,0.0
2699,60.0,0,720,1.0,0.0
2700,48.0,0,90,5.0,0.0
2701,63.0,0,90,4.0,0.0
2702,55.0,70,20,3.0,0.0
2703,63.0,0,20,2.0,0.0
2704,55.0,0,20,2.0,0.0
2705,36.0,96,90,7.0,0.0
2706,84.0,0,540,0.0,0.0
2707,75.0,0,540,0.0,0.0
2708,72.0,0,510,2.0,0.0
2709,72.0,46,510,3.0,0.0
2710,63.0,0,90,4.0,0.0
2711,48.0,96,90,5.0,0.0
2712,36.0,0,90,7.0,0.0
2713,36.0,0,90,7.0,0.0
2714,48.0,0,90,5.0,0.0
2715,63.0,96,90,4.0,0.0
2716,63.0,0,90,4.0,0.0
2717,36.0,0,90,7.0,0.0
2718,48.0,96,90,5.0,0.0
2719,48.0,50,90,5.0,0.0
2720,63.0,0,90,4.0,0.0
2721,36.0,0,90,7.0,0.0
2722,36.0,96,90,7.0,0.0
2723,63.0,0,90,4.0,0.0
2724,48.0,0,90,5.0,0.0
2725,75.0,24,150,2.0,0.0
2726,36.0,50,90,7.0,0.0
2727,67.0,0,150,3.0,0.0
2728,48.0,0,90,5.0,0.0
2729,60.0,0,90,4.0,0.0
2730,60.0,0,90,4.0,0.0
2731,48.0,0,90,5.0,0.0
2732,36.0,0,90,7.0,0.0
2733,65.0,22,20,3.0,0.0
2734,74.0,0,20,2.0,0.0
2735,75.0,0,20,2.0,0.0
2736,67.0,96,20,3.0,0.0
2737,60.0,0,90,4.0,0.0
2738,77.0,0,90,2.0,0.0
2739,68.0,96,90,3.0,0.0
2740,36.0,0,90,7.0,0.0
2741,48.0,0,90,5.0,0.0
2742,60.0,0,90,4.0,0.0
2743,48.0,96,90,5.0,0.0
2744,36.0,0,90,7.0,0.0
2745,60.0,0,90,4.0,0.0
2746,67.0,0,90,3.0,0.0
2747,36.0,96,90,7.0,0.0
2748,75.0,0,90,2.0,0.0
2749,48.0,0,90,5.0,0.0
2750,36.0,0,90,7.0,0.0
2751,48.0,96,90,5.0,0.0
2752,60.0,0,90,4.0,0.0
2753,48.0,96,90,5.0,0.0
2754,77.0,0,90,2.0,0.0
2755,60.0,0,90,4.0,0.0
2756,68.0,0,90,3.0,0.0
2757,36.0,0,90,7.0,0.0
2758,36.0,0,90,7.0,0.0
2759,48.0,0,90,5.0,0.0
2760,60.0,96,90,4.0,0.0
2761,36.0,96,90,7.0,0.0
2762,60.0,0,90,4.0,0.0
2763,74.0,0,90,2.0,0.0
2764,65.0,0,90,3.0,0.0
2765,48.0,0,90,5.0,0.0
2766,60.0,0,90,4.0,0.0
2767,48.0,96,90,5.0,0.0
2768,36.0,0,90,7.0,0.0
2769,48.0,0,90,5.0,0.0
2770,79.0,0,390,0.0,0.0
2771,36.0,0,90,7.0,0.0
2772,75.0,0,390,0.0,0.0
2773,79.0,0,390,2.0,0.0
2774,60.0,0,330,1.0,0.0
2775,60.0,96,90,4.0,0.0
2776,75.0,94,390,3.0,0.0
2777,36.0,0,90,7.0,0.0
2778,48.0,0,90,5.0,0.0
2779,60.0,96,90,4.0,0.0
2780,48.0,50,90,5.0,0.0
2781,36.0,0,90,7.0,0.0
2782,60.0,0,90,4.0,0.0
2783,36.0,2,90,7.0,0.0
2784,60.0,0,90,4.0,0.0
2785,48.0,0,90,5.0,0.0
2786,60.0,0,90,4.0,0.0
2787,75.0,0,90,0.0,0.0
2788,36.0,0,90,7.0,0.0
2789,72.0,0,90,3.0,0.0
2790,48.0,0,90,5.0,0.0
2791,72.0,0,90,0.0,0.0
2792,75.0,96,90,2.0,0.0
2793,60.0,96,90,4.0,0.0
2794,48.0,0,90,5.0,0.0
2795,36.0,0,90,7.0,0.0
2796,36.0,0,90,7.0,0.0
2797,48.0,0,90,5.0,0.0
2798,67.0,0,150,3.0,0.0
2799,60.0,50,90,4.0,0.0
2800,75.0,24,150,2.0,0.0
2801,60.0,0,90,4.0,0.0
2802,36.0,0,90,7.0,0.0
2803,48.0,0,90,5.0,0.0
2804,65.0,22,20,3.0,0.0
2805,74.0,0,20,2.0,0.0
2806,67.0,96,20,3.0,0.0
2807,75.0,0,20,2.0,0.0
2808,36.0,0,90,7.0,0.0
2809,48.0,0,90,5.0,0.0
2810,77.0,0,90,2.0,0.0
2811,60.0,0,90,4.0,0.0
2812,68.0,96,90,3.0,0.0
2813,48.0,0,90,5.0,0.0
2814,60.0,96,90,4.0,0.0
2815,36.0,0,90,7.0,0.0
2816,60.0,0,90,4.0,0.0
2817,75.0,0,90,2.0,0.0
2818,67.0,96,90,3.0,0.0
2819,48.0,0,90,5.0,0.0
2820,36.0,0,90,7.0,0.0
2821,48.0,0,90,5.0,0.0
2822,36.0,0,90,7.0,0.0
2823,60.0,96,90,4.0,0.0
2824,77.0,0,90,2.0,0.0
2825,36.0,0,90,7.0,0.0
2826,48.0,0,90,5.0,0.0
2827,68.0,0,90,3.0,0.0
2828,60.0,96,90,4.0,0.0
2829,60.0,0,90,4.0,0.0
2830,36.0,0,90,7.0,0.0
2831,48.0,96,90,5.0,0.0
2832,48.0,96,90,5.0,0.0
2833,36.0,0,90,7.0,0.0
2834,74.0,0,90,2.0,0.0
2835,65.0,0,90,3.0,0.0
2836,60.0,0,90,4.0,0.0
2837,48.0,96,90,5.0,0.0
2838,60.0,0,90,4.0,0.0
2839,36.0,0,90,7.0,0.0
2840,72.0,94,390,0.0,0.0
2841,75.0,0,390,0.0,0.0
2842,63.0,0,390,3.0,0.0
2843,36.0,96,90,7.0,0.0
2844,72.0,0,390,2.0,0.0
2845,60.0,0,90,4.0,0.0
2846,48.0,0,90,5.0,0.0
2847,60.0,0,330,1.0,0.0
2848,48.0,0,90,5.0,0.0
2849,36.0,96,90,7.0,0.0
2850,60.0,0,90,4.0,0.0
2851,60.0,0,90,4.0,0.0
2852,36.0,0,90,7.0,0.0
2853,48.0,50,90,5.0,0.0
2854,60.0,0,90,4.0,0.0
2855,36.0,0,90,7.0,0.0
2856,48.0,2,90,5.0,0.0
2857,36.0,0,90,7.0,0.0
2858,48.0,0,90,5.0,0.0
2859,67.0,0,90,3.0,0.0
2860,79.0,0,90,0.0,0.0
2861,75.0,0,90,2.0,0.0
2862,60.0,96,90,4.0,0.0
2863,75.0,0,90,0.0,0.0
2864,36.0,96,90,7.0,0.0
2865,60.0,0,90,4.0,0.0
2866,48.0,0,90,5.0,0.0
2867,36.0,50,90,7.0,0.0
2868,67.0,24,150,3.0,0.0
2869,60.0,0,90,4.0,0.0
2870,75.0,0,150,2.0,0.0
2871,48.0,0,90,5.0,0.0
2872,48.0,0,90,5.0,0.0
2873,36.0,0,90,7.0,0.0
2874,60.0,0,90,4.0,0.0
2875,65.0,0,20,3.0,0.0
2876,74.0,22,20,2.0,0.0
2877,75.0,0,20,2.0,0.0
2878,67.0,96,20,3.0,0.0
2879,60.0,0,90,4.0,0.0
2880,48.0,0,90,5.0,0.0
2881,77.0,96,90,2.0,0.0
2882,68.0,0,90,3.0,0.0
2883,36.0,0,90,7.0,0.0
2884,60.0,0,90,4.0,0.0
2885,36.0,96,90,7.0,0.0
2886,48.0,0,90,5.0,0.0
2887,60.0,0,90,4.0,0.0
2888,67.0,0,90,3.0,0.0
2889,36.0,96,90,7.0,0.0
2890,75.0,0,90,2.0,0.0
2891,48.0,0,90,5.0,0.0
2892,48.0,0,90,5.0,0.0
2893,36.0,0,90,7.0,0.0
2894,60.0,96,90,4.0,0.0
2895,77.0,0,90,2.0,0.0
2896,48.0,0,90,5.0,0.0
2897,68.0,0,90,3.0,0.0
2898,36.0,0,90,7.0,0.0
2899,60.0,96,90,4.0,0.0
2900,60.0,0,90,4.0,0.0
2901,48.0,0,90,5.0,0.0
2902,36.0,96,90,7.0,0.0
2903,48.0,0,90,5.0,0.0
2904,65.0,0,90,3.0,0.0
2905,74.0,96,90,2.0,0.0
2906,36.0,0,90,7.0,0.0
2907,60.0,0,90,4.0,0.0
2908,60.0,0,90,4.0,0.0
2909,48.0,0,90,5.0,0.0
2910,36.0,96,90,7.0,0.0
2911,36.0,96,90,7.0,0.0
2912,79.0,94,390,2.0,0.0
2913,60.0,0,90,4.0,0.0
2914,79.0,0,390,0.0,0.0
2915,75.0,0,390,3.0,0.0
2916,48.0,0,90,5.0,0.0
2917,60.0,0,330,1.0,0.0
2918,60.0,96,90,4.0,0.0
2919,36.0,0,90,7.0,0.0
2920,48.0,0,90,5.0,0.0
2921,36.0,0,90,7.0,0.0
2922,60.0,50,90,4.0,0.0
2923,48.0,0,90,5.0,0.0
2924,36.0,0,90,7.0,0.0
2925,48.0,0,90,5.0,0.0
2926,60.0,2,90,4.0,0.0
2927,36.0,0,90,7.0,0.0
2928,72.0,0,90,0.0,0.0
2929,75.0,0,15,0.0,0.0
2930,48.0,96,90,5.0,0.0
2931,60.0,0,90,4.0,0.0
2932,75.0,0,90,2.0,0.0
2933,72.0,0,90,3.0,0.0
2934,48.0,96,90,5.0,0.0
2935,36.0,0,90,7.0,0.0
2936,60.0,0,90,4.0,0.0
2937,60.0,50,90,4.0,0.0
2938,48.0,0,90,5.0,0.0
2939,67.0,0,150,3.0,0.0
2940,75.0,24,150,2.0,0.0
2941,36.0,0,90,7.0,0.0
2942,36.0,0,90,7.0,0.0
2943,48.0,0,90,5.0,0.0
2944,60.0,0,90,4.0,0.0
2945,65.0,22,20,3.0,0.0
2946,74.0,0,20,2.0,0.0
2947,75.0,0,20,2.0,0.0
2948,67.0,96,20,3.0,0.0
2949,60.0,0,90,4.0,0.0
2950,68.0,0,90,3.0,0.0
2951,48.0,0,90,5.0,0.0
2952,77.0,96,90,2.0,0.0
2953,36.0,0,90,7.0,0.0
2954,36.0,0,90,7.0,0.0
2955,60.0,96,90,4.0,0.0
2956,48.0,0,90,5.0,0.0
2957,36.0,0,90,7.0,0.0
2958,60.0,0,90,4.0,0.0
2959,67.0,96,90,3.0,0.0
2960,48.0,0,90,5.0,0.0
2961,75.0,0,90,2.0,0.0
2962,36.0,0,90,7.0,0.0
2963,60.0,96,90,4.0,0.0
2964,48.0,0,90,5.0,0.0
2965,48.0,0,90,5.0,0.0
2966,77.0,96,90,2.0,0.0
2967,68.0,0,90,3.0,0.0
2968,60.0,0,90,4.0,0.0
2969,36.0,0,90,7.0,0.0
2970,60.0,96,90,4.0,0.0
2971,48.0,0,90,5.0,0.0
2972,36.0,0,90,7.0,0.0
2973,48.0,0,90,5.0,0.0
2974,36.0,96,90,7.0,0.0
2975,65.0,0,90,3.0,0.0
2976,74.0,0,90,2.0,0.0
2977,60.0,0,90,4.0,0.0
2978,60.0,0,90,4.0,0.0
2979,48.0,0,90,5.0,0.0
2980,36.0,96,90,7.0,0.0
2981,63.0,30,150,3.0,0.0
2982,48.0,0,90,4.0,0.0
2983,72.0,0,150,0.0,0.0
2984,60.0,0,150,2.0,0.0
2985,36.0,0,150,7.0,0.0
2986,60.0,0,1500,1.0,0.0
2987,48.0,0,150,5.0,0.0
2988,60.0,66,90,4.0,0.0
2989,60.0,0,90,4.0,0.0
2990,48.0,96,90,4.0,0.0
2991,48.0,96,90,4.0,0.0
2992,60.0,0,90,4.0,0.0
2993,60.0,0,90,4.0,0.0
2994,48.0,0,90,4.0,0.0
2995,67.0,0,90,3.0,0.0
2996,76.0,96,90,2.0,0.0
2997,67.0,0,90,3.0,0.0
2998,48.0,0,90,4.0,0.0
2999,60.0,2,90,4.0,0.0
3000,76.0,94,90,2.0,0.0
3001,48.0,0,90,4.0,0.0
3002,60.0,0,90,4.0,0.0
3003,77.0,96,90,2.0,0.0
3004,68.0,0,90,3.0,0.0
3005,60.0,0,90,4.0,0.0
3006,48.0,96,90,4.0,0.0
3007,65.0,96,90,3.0,0.0
3008,60.0,0,90,4.0,0.0
3009,68.0,0,90,2.0,0.0
3010,48.0,0,90,4.0,0.0
3011,77.0,0,90,2.0,0.0
3012,60.0,96,90,4.0,0.0
3013,48.0,0,90,4.0,0.0
3014,68.0,0,90,3.0,0.0
3015,68.0,0,90,3.0,0.0
3016,72.0,94,90,2.0,0.0
3017,60.0,2,90,4.0,0.0
3018,48.0,0,90,4.0,0.0
3019,48.0,2,90,4.0,0.0
3020,60.0,0,90,4.0,0.0
3021,67.0,0,90,3.0,0.0
3022,70.0,94,90,2.0,0.0
3023,65.0,0,90,3.0,0.0
3024,68.0,0,90,2.0,0.0
3025,48.0,96,90,4.0,0.0
3026,60.0,0,90,4.0,0.0
3027,65.0,94,90,3.0,0.0
3028,48.0,2,90,4.0,0.0
3029,60.0,0,90,4.0,0.0
3030,68.0,0,90,2.0,0.0
3031,60.0,0,90,4.0,0.0
3032,48.0,96,90,4.0,0.0
3033,67.0,0,90,2.0,0.0
3034,64.0,0,90,3.0,0.0
3035,48.0,50,90,4.0,0.0
3036,60.0,0,90,4.0,0.0
3037,60.0,0,90,4.0,0.0
3038,48.0,96,90,4.0,0.0
3039,48.0,66,90,4.0,0.0
3040,60.0,0,90,4.0,0.0
3041,60.0,30,150,2.0,0.0
3042,48.0,0,150,5.0,0.0
3043,36.0,0,150,7.0,0.0
3044,60.0,0,150,3.0,0.0
3045,60.0,0,1500,1.0,0.0
3046,72.0,0,150,0.0,0.0
3047,48.0,0,90,4.0,0.0
3048,60.0,96,90,4.0,0.0
3049,60.0,96,90,4.0,0.0
3050,48.0,0,90,4.0,0.0
3051,79.0,96,90,3.0,0.0
3052,82.0,0,90,2.0,0.0
3053,60.0,0,90,4.0,0.0
3054,48.0,0,90,4.0,0.0
3055,60.0,0,90,4.0,0.0
3056,82.0,96,90,2.0,0.0
3057,48.0,0,90,4.0,0.0
3058,79.0,0,90,3.0,0.0
3059,48.0,0,90,4.0,0.0
3060,70.0,94,90,3.0,0.0
3061,60.0,2,90,4.0,0.0
3062,79.0,0,90,2.0,0.0
3063,77.0,94,90,2.0,0.0
3064,48.0,2,90,4.0,0.0
3065,68.0,0,90,3.0,0.0
3066,60.0,0,90,4.0,0.0
3067,60.0,0,90,4.0,0.0
3068,48.0,0,90,4.0,0.0
3069,76.0,0,90,2.0,0.0
3070,67.0,96,90,3.0,0.0
3071,48.0,2,90,4.0,0.0
3072,76.0,94,90,2.0,0.0
3073,67.0,0,90,3.0,0.0
3074,60.0,0,90,4.0,0.0
3075,60.0,96,90,4.0,0.0
3076,77.0,0,90,2.0,0.0
3077,48.0,0,90,4.0,0.0
3078,68.0,0,90,3.0,0.0
3079,48.0,96,90,4.0,0.0
3080,60.0,0,90,4.0,0.0
3081,48.0,96,90,4.0,0.0
3082,60.0,0,90,4.0,0.0
3083,68.0,0,90,2.0,0.0
3084,65.0,0,90,3.0,0.0
3085,48.0,0,90,4.0,0.0
3086,68.0,0,90,2.0,0.0
3087,60.0,2,90,4.0,0.0
3088,65.0,94,90,3.0,0.0
3089,67.0,0,90,2.0,0.0
3090,64.0,96,90,3.0,0.0
3091,60.0,0,90,4.0,0.0
3092,48.0,0,90,4.0,0.0
3093,48.0,0,90,4.0,0.0
3094,60.0,50,90,4.0,0.0
3095,60.0,0,90,4.0,0.0
3096,48.0,96,90,4.0,0.0
3097,41.0,0,1500,1.0,0.0
3098,53.0,0,150,5.0,0.0
3099,53.0,46,1500,1.0,0.0
3100,77.0,0,150,0.0,0.0
3101,41.0,0,150,7.0,0.0
3102,65.0,30,150,2.0,0.0
3103,65.0,0,150,3.0,0.0
3104,65.0,0,150,0.0,0.0
3105,53.0,66,90,4.0,0.0
3106,53.0,96,90,4.0,0.0
3107,53.0,96,90,4.0,0.0
3108,72.0,96,90,3.0,0.0
3109,81.0,0,90,2.0,0.0
3110,53.0,0,90,4.0,0.0
3111,53.0,2,90,4.0,0.0
3112,81.0,0,90,2.0,0.0
3113,72.0,94,90,3.0,0.0
3114,53.0,0,90,4.0,0.0
3115,82.0,96,90,2.0,0.0
3116,74.0,0,90,3.0,0.0
3117,53.0,96,90,4.0,0.0
3118,74.0,0,90,2.0,0.0
3119,53.0,96,90,4.0,0.0
3120,70.0,0,90,3.0,0.0
3121,74.0,96,90,3.0,0.0
3122,53.0,0,90,4.0,0.0
3123,82.0,0,90,2.0,0.0
3124,74.0,94,90,3.0,0.0
3125,77.0,0,90,2.0,0.0
3126,53.0,2,90,4.0,0.0
3127,53.0,2,90,4.0,0.0
3128,72.0,94,90,3.0,0.0
3129,75.0,0,90,2.0,0.0
3130,53.0,0,90,4.0,0.0
3131,74.0,0,90,2.0,0.0
3132,70.0,96,90,3.0,0.0
3133,70.0,94,90,3.0,0.0
3134,53.0,2,90,4.0,0.0
3135,74.0,0,90,2.0,0.0
3136,53.0,96,90,4.0,0.0
3137,72.0,0,90,2.0,0.0
3138,69.0,0,90,3.0,0.0
3139,53.0,50,90,4.0,0.0
3140,53.0,96,90,4.0,0.0
3141,65.0,30,150,2.0,0.0
3142,41.0,46,1500,1.0,0.0
3143,53.0,66,90,4.0,0.0
3144,53.0,0,1500,1.0,0.0
3145,53.0,0,150,5.0,0.0
3146,77.0,0,150,0.0,0.0
3147,65.0,0,150,3.0,0.0
3148,41.0,0,150,7.0,0.0
3149,65.0,0,150,0.0,0.0
3150,53.0,96,90,4.0,0.0
3151,53.0,96,90,4.0,0.0
3152,75.0,0,90,2.0,0.0
3153,53.0,0,90,4.0,0.0
3154,72.0,96,90,3.0,0.0
3155,72.0,0,90,3.0,0.0
3156,53.0,0,90,4.0,0.0
3157,75.0,96,90,2.0,0.0
3158,53.0,2,90,4.0,0.0
3159,75.0,0,90,3.0,0.0
3160,84.0,94,90,2.0,0.0
3161,53.0,2,90,4.0,0.0
3162,74.0,0,90,3.0,0.0
3163,82.0,94,90,2.0,0.0
3164,72.0,0,90,3.0,0.0
3165,53.0,0,90,4.0,0.0
3166,81.0,96,90,2.0,0.0
3167,81.0,0,90,2.0,0.0
3168,53.0,2,90,4.0,0.0
3169,72.0,94,90,3.0,0.0
3170,53.0,96,90,4.0,0.0
3171,74.0,0,90,3.0,0.0
3172,82.0,0,90,2.0,0.0
3173,53.0,96,90,4.0,0.0
3174,70.0,0,90,2.0,0.0
3175,62.0,0,90,3.0,0.0
3176,53.0,96,90,4.0,0.0
3177,53.0,2,90,4.0,0.0
3178,62.0,94,90,3.0,0.0
3179,70.0,0,90,2.0,0.0
3180,60.0,0,90,3.0,0.0
3181,69.0,96,90,2.0,0.0
3182,53.0,0,90,4.0,0.0
3183,53.0,50,90,4.0,0.0
3184,53.0,96,90,4.0,0.0
3185,70.0,0,90,2.0,0.0
3186,62.0,46,720,1.0,0.0
3187,58.0,0,720,1.0,0.0
3188,46.0,96,90,7.0,0.0
3189,74.0,0,720,0.0,0.0
3190,58.0,0,90,5.0,0.0
3191,82.0,0,720,0.0,0.0
3192,62.0,0,90,4.0,0.0
3193,74.0,0,90,2.0,0.0
3194,65.0,94,90,4.0,0.0
3195,58.0,2,90,5.0,0.0
3196,46.0,0,90,7.0,0.0
3197,46.0,2,90,7.0,0.0
3198,72.0,0,90,2.0,0.0
3199,63.0,94,90,4.0,0.0
3200,58.0,0,90,5.0,0.0
3201,46.0,0,90,7.0,0.0
3202,58.0,0,90,5.0,0.0
3203,70.0,96,90,2.0,0.0
3204,62.0,0,90,4.0,0.0
3205,70.0,66,90,3.0,0.0
3206,82.0,30,150,2.0,0.0
3207,46.0,0,90,7.0,0.0
3208,58.0,0,90,5.0,0.0
3209,74.0,0,90,4.0,0.0
3210,74.0,0,90,3.0,0.0
3211,58.0,0,90,5.0,0.0
3212,65.0,94,90,4.0,0.0
3213,46.0,2,90,7.0,0.0
3214,63.0,48,90,4.0,0.0
3215,72.0,0,90,3.0,0.0
3216,46.0,0,90,7.0,0.0
3217,58.0,2,90,5.0,0.0
3218,46.0,0,90,7.0,0.0
3219,58.0,96,90,5.0,0.0
3220,70.0,0,90,3.0,0.0
3221,62.0,0,90,4.0,0.0
3222,82.0,46,720,0.0,0.0
3223,82.0,30,150,3.0,0.0
3224,70.0,0,90,2.0,0.0
3225,63.0,0,720,1.0,0.0
3226,43.0,0,90,7.0,0.0
3227,58.0,0,720,1.0,0.0
3228,75.0,0,720,0.0,0.0
3229,55.0,0,90,5.0,0.0
3230,63.0,66,90,4.0,0.0
3231,43.0,0,90,7.0,0.0
3232,55.0,2,90,5.0,0.0
3233,67.0,0,90,4.0,0.0
3234,75.0,94,90,2.0,0.0
3235,43.0,2,90,7.0,0.0
3236,65.0,94,90,4.0,0.0
3237,74.0,0,90,2.0,0.0
3238,55.0,0,90,5.0,0.0
3239,55.0,0,90,5.0,0.0
3240,67.0,0,90,4.0,0.0
3241,75.0,96,90,2.0,0.0
3242,43.0,0,90,7.0,0.0
3243,82.0,30,150,2.0,0.0
3244,70.0,0,90,3.0,0.0
3245,55.0,0,90,5.0,0.0
3246,75.0,66,90,4.0,0.0
3247,43.0,0,90,7.0,0.0
3248,43.0,2,90,7.0,0.0
3249,75.0,94,90,3.0,0.0
3250,55.0,0,90,5.0,0.0
3251,67.0,0,90,4.0,0.0
3252,55.0,2,90,5.0,0.0
3253,74.0,48,90,3.0,0.0
3254,43.0,0,90,7.0,0.0
3255,65.0,0,90,4.0,0.0
3256,67.0,0,90,4.0,0.0
3257,55.0,0,90,5.0,0.0
3258,75.0,0,90,3.0,0.0
3259,43.0,96,90,7.0,0.0
3260,70.0,0,90,2.0,0.0
3261,53.0,66,90,5.0,0.0
3262,58.0,0,720,1.0,0.0
3263,62.0,46,720,1.0,0.0
3264,74.0,0,720,0.0,0.0
3265,65.0,0,90,4.0,0.0
3266,86.0,30,150,3.0,0.0
3267,41.0,0,90,7.0,0.0
3268,82.0,0,720,0.0,0.0
3269,53.0,0,90,5.0,0.0
3270,77.0,94,90,2.0,0.0
3271,74.0,0,90,4.0,0.0
3272,41.0,2,90,7.0,0.0
3273,72.0,94,90,4.0,0.0
3274,53.0,2,90,5.0,0.0
3275,41.0,0,90,7.0,0.0
3276,76.0,0,90,2.0,0.0
3277,53.0,96,90,5.0,0.0
3278,77.0,0,90,2.0,0.0
3279,74.0,0,90,4.0,0.0
3280,41.0,0,90,7.0,0.0
3281,86.0,30,150,2.0,0.0
3282,70.0,0,90,3.0,0.0
3283,62.0,0,90,4.0,0.0
3284,53.0,66,90,5.0,0.0
3285,41.0,0,90,7.0,0.0
3286,74.0,0,90,4.0,0.0
3287,41.0,0,90,7.0,0.0
3288,53.0,2,90,5.0,0.0
3289,77.0,94,90,3.0,0.0
3290,41.0,2,90,7.0,0.0
3291,72.0,48,90,4.0,0.0
3292,53.0,0,90,5.0,0.0
3293,76.0,0,90,3.0,0.0
3294,41.0,0,90,7.0,0.0
3295,77.0,0,90,3.0,0.0
3296,53.0,96,90,5.0,0.0
3297,74.0,0,90,4.0,0.0
3298,41.0,66,90,5.0,0.0
3299,81.0,0,720,0.0,0.0
3300,81.0,30,150,3.0,0.0
3301,72.0,0,90,2.0,0.0
3302,53.0,0,720,1.0,0.0
3303,75.0,0,90,4.0,0.0
3304,29.0,0,90,7.0,0.0
3305,60.0,46,720,1.0,0.0
3306,72.0,0,720,0.0,0.0
3307,75.0,94,90,2.0,0.0
3308,72.0,0,90,4.0,0.0
3309,29.0,2,90,7.0,0.0
3310,41.0,0,90,5.0,0.0
3311,29.0,0,90,7.0,0.0
3312,74.0,94,90,2.0,0.0
3313,70.0,0,90,4.0,0.0
3314,41.0,2,90,5.0,0.0
3315,69.0,0,90,4.0,0.0
3316,72.0,0,90,2.0,0.0
3317,29.0,96,90,7.0,0.0
3318,41.0,0,90,5.0,0.0
3319,81.0,30,150,2.0,0.0
3320,41.0,0,90,5.0,0.0
3321,72.0,0,90,3.0,0.0
3322,69.0,66,90,4.0,0.0
3323,29.0,0,90,7.0,0.0
3324,41.0,0,90,5.0,0.0
3325,29.0,2,90,7.0,0.0
3326,72.0,0,90,4.0,0.0
3327,75.0,94,90,3.0,0.0
3328,41.0,2,90,5.0,0.0
3329,29.0,0,90,7.0,0.0
3330,74.0,0,90,3.0,0.0
3331,70.0,48,90,4.0,0.0
3332,29.0,0,90,7.0,0.0
3333,41.0,96,90,5.0,0.0
3334,72.0,0,90,3.0,0.0
3335,69.0,0,90,4.0,0.0
3336,46.0,0,90,5.0,0.0
3337,82.0,46,720,0.0,0.0
3338,74.0,66,90,4.0,0.0
3339,70.0,0,720,0.0,0.0
3340,82.0,30,150,3.0,0.0
3341,62.0,0,720,1.0,0.0
3342,58.0,0,720,1.0,0.0
3343,58.0,0,90,2.0,0.0
3344,34.0,0,90,7.0,0.0
3345,46.0,0,90,5.0,0.0
3346,34.0,2,90,7.0,0.0
3347,62.0,0,90,2.0,0.0
3348,65.0,94,90,4.0,0.0
3349,60.0,94,90,2.0,0.0
3350,34.0,0,90,7.0,0.0
3351,63.0,0,90,4.0,0.0
3352,46.0,2,90,5.0,0.0
3353,34.0,0,90,7.0,0.0
3354,62.0,0,90,4.0,0.0
3355,58.0,0,90,2.0,0.0
3356,46.0,96,90,5.0,0.0
3357,62.0,0,90,4.0,0.0
3358,58.0,66,90,3.0,0.0
3359,46.0,0,90,5.0,0.0
3360,34.0,0,90,7.0,0.0
3361,70.0,30,150,2.0,0.0
3362,62.0,94,90,3.0,0.0
3363,34.0,2,90,7.0,0.0
3364,46.0,0,90,5.0,0.0
3365,65.0,0,90,4.0,0.0
3366,34.0,2,90,7.0,0.0
3367,46.0,0,90,5.0,0.0
3368,63.0,48,90,4.0,0.0
3369,60.0,0,90,3.0,0.0
3370,34.0,0,90,7.0,0.0
3371,58.0,0,90,3.0,0.0
3372,62.0,96,90,4.0,0.0
3373,46.0,0,90,5.0,0.0
3374,75.0,46,720,0.0,0.0
3375,58.0,0,90,2.0,0.0
3376,70.0,30,150,3.0,0.0
3377,58.0,0,720,1.0,0.0
3378,55.0,0,90,5.0,0.0
3379,70.0,0,720,0.0,0.0
3380,63.0,0,720,1.0,0.0
3381,63.0,0,90,4.0,0.0
3382,43.0,66,90,7.0,0.0
3383,55.0,0,90,5.0,0.0
3384,67.0,0,90,4.0,0.0
3385,43.0,2,90,7.0,0.0
3386,63.0,94,90,2.0,0.0
3387,62.0,94,90,2.0,0.0
3388,43.0,0,90,7.0,0.0
3389,65.0,0,90,4.0,0.0
3390,55.0,2,90,5.0,0.0
3391,67.0,0,90,4.0,0.0
3392,55.0,0,90,5.0,0.0
3393,43.0,0,90,7.0,0.0
3394,63.0,96,90,2.0,0.0
3395,55.0,0,90,5.0,0.0
3396,63.0,0,90,4.0,0.0
3397,70.0,30,150,2.0,0.0
3398,58.0,66,90,3.0,0.0
3399,43.0,0,90,7.0,0.0
3400,43.0,0,90,7.0,0.0
3401,55.0,2,90,5.0,0.0
3402,67.0,94,90,4.0,0.0
3403,63.0,0,90,3.0,0.0
3404,62.0,0,90,3.0,0.0
3405,65.0,48,90,4.0,0.0
3406,43.0,0,90,7.0,0.0
3407,55.0,2,90,5.0,0.0
3408,63.0,0,90,3.0,0.0
3409,55.0,96,90,5.0,0.0
3410,43.0,0,90,7.0,0.0
3411,67.0,0,90,4.0,0.0
3412,41.0,66,90,7.0,0.0
3413,74.0,30,150,3.0,0.0
3414,58.0,0,720,1.0,0.0
3415,70.0,46,720,0.0,0.0
3416,62.0,0,720,1.0,0.0
3417,58.0,0,90,2.0,0.0
3418,65.0,0,90,4.0,0.0
3419,53.0,0,90,5.0,0.0
3420,74.0,0,720,0.0,0.0
3421,53.0,2,90,5.0,0.0
3422,65.0,94,90,2.0,0.0
3423,62.0,0,90,4.0,0.0
3424,41.0,0,90,7.0,0.0
3425,41.0,0,90,7.0,0.0
3426,64.0,0,90,2.0,0.0
3427,60.0,94,90,4.0,0.0
3428,53.0,2,90,5.0,0.0
3429,65.0,96,90,2.0,0.0
3430,41.0,0,90,7.0,0.0
3431,62.0,0,90,4.0,0.0
3432,53.0,0,90,5.0,0.0
3433,41.0,0,90,7.0,0.0
3434,74.0,30,150,2.0,0.0
3435,53.0,0,90,5.0,0.0
3436,58.0,66,90,3.0,0.0
3437,62.0,0,90,4.0,0.0
3438,41.0,0,90,7.0,0.0
3439,53.0,2,90,5.0,0.0
3440,62.0,94,90,4.0,0.0
3441,65.0,0,90,3.0,0.0
3442,64.0,0,90,3.0,0.0
3443,60.0,48,90,4.0,0.0
3444,41.0,0,90,7.0,0.0
3445,53.0,2,90,5.0,0.0
3446,65.0,0,90,3.0,0.0
3447,53.0,96,90,5.0,0.0
3448,41.0,0,90,7.0,0.0
3449,62.0,0,90,4.0,0.0
3450,60.0,0,720,1.0,0.0
3451,60.0,0,90,2.0,0.0
3452,72.0,0,720,0.0,0.0
3453,69.0,30,150,3.0,0.0
3454,69.0,0,720,0.0,0.0
3455,53.0,46,720,1.0,0.0
3456,63.0,0,90,4.0,0.0
3457,29.0,0,90,7.0,0.0
3458,41.0,66,90,5.0,0.0
3459,60.0,0,90,4.0,0.0
3460,41.0,2,90,5.0,0.0
3461,29.0,0,90,7.0,0.0
3462,63.0,94,90,2.0,0.0
3463,29.0,0,90,7.0,0.0
3464,41.0,2,90,5.0,0.0
3465,58.0,0,90,4.0,0.0
3466,62.0,94,90,2.0,0.0
3467,60.0,0,90,2.0,0.0
3468,57.0,0,90,4.0,0.0
3469,41.0,0,90,5.0,0.0
3470,29.0,96,90,7.0,0.0
3471,75.0,30,150,2.0,0.0
3472,57.0,0,90,4.0,0.0
3473,41.0,66,90,5.0,0.0
3474,60.0,0,90,3.0,0.0
3475,29.0,0,90,7.0,0.0
3476,41.0,0,90,5.0,0.0
3477,29.0,2,90,7.0,0.0
3478,63.0,94,90,3.0,0.0
3479,60.0,0,90,4.0,0.0
3480,62.0,48,90,3.0,0.0
3481,29.0,0,90,7.0,0.0
3482,41.0,2,90,5.0,0.0
3483,58.0,0,90,4.0,0.0
3484,60.0,0,90,3.0,0.0
3485,41.0,48,90,5.0,0.0
3486,57.0,0,90,4.0,0.0
3487,29.0,0,90,7.0,0.0
3488,34.0,0,150,7.0,0.0
3489,62.0,0,720,1.0,0.0
3490,58.0,0,720,1.0,0.0
3491,74.0,46,720,0.0,0.0
3492,58.0,0,60,3.0,0.0
3493,46.0,30,150,5.0,0.0
3494,70.0,0,720,0.0,0.0
3495,74.0,0,60,2.0,0.0
3496,58.0,0,150,4.0,0.0
3497,62.0,48,60,3.0,0.0
3498,62.0,48,60,3.0,0.0
3499,62.0,0,60,2.0,0.0
3500,70.0,0,60,2.0,0.0
3501,58.0,0,60,3.0,0.0
3502,62.0,18,60,2.0,0.0
3503,70.0,0,60,2.0,0.0
3504,62.0,0,60,3.0,0.0
3505,58.0,0,60,3.0,0.0
3506,58.0,0,60,3.0,0.0
3507,62.0,0,60,2.0,0.0
3508,70.0,48,60,2.0,0.0
3509,62.0,0,60,3.0,0.0
3510,58.0,0,60,3.0,0.0
3511,62.0,0,60,3.0,0.0
3512,70.0,0,60,2.0,0.0
3513,62.0,48,60,2.0,0.0
3514,58.0,0,60,3.0,0.0
3515,62.0,0,60,3.0,0.0
3516,70.0,0,60,2.0,0.0
3517,62.0,48,60,2.0,0.0
3518,46.0,0,60,7.0,0.0
3519,70.0,0,60,2.0,0.0
3520,62.0,0,60,3.0,0.0
3521,58.0,0,60,3.0,0.0
3522,70.0,0,60,4.0,0.0
3523,58.0,48,60,5.0,0.0
3524,62.0,0,60,2.0,0.0
3525,62.0,0,60,2.0,0.0
3526,70.0,0,60,2.0,0.0
3527,58.0,0,60,3.0,0.0
3528,69.0,0,60,4.0,0.0
3529,57.0,0,60,5.0,0.0
3530,62.0,0,60,3.0,0.0
3531,45.0,48,60,7.0,0.0
3532,46.0,0,90,7.0,0.0
3533,70.0,0,60,2.0,0.0
3534,62.0,0,60,2.0,0.0
3535,58.0,0,90,5.0,0.0
3536,58.0,0,60,3.0,0.0
3537,70.0,0,90,4.0,0.0
3538,62.0,48,60,3.0,0.0
3539,62.0,0,60,3.0,0.0
3540,70.0,0,60,2.0,0.0
3541,62.0,0,60,2.0,0.0
3542,58.0,48,60,3.0,0.0
3543,58.0,0,60,3.0,0.0
3544,65.0,0,90,4.0,0.0
3545,53.0,0,90,5.0,0.0
3546,62.0,0,60,3.0,0.0
3547,62.0,48,60,2.0,0.0
3548,41.0,0,90,7.0,0.0
3549,70.0,0,60,2.0,0.0
3550,62.0,48,60,2.0,0.0
3551,70.0,0,60,2.0,0.0
3552,62.0,0,60,3.0,0.0
3553,58.0,0,60,3.0,0.0
3554,62.0,0,60,2.0,0.0
3555,62.0,0,90,4.0,0.0
3556,62.0,0,60,3.0,0.0
3557,58.0,0,60,3.0,0.0
3558,50.0,0,90,5.0,0.0
3559,70.0,48,60,2.0,0.0
3560,38.0,0,90,7.0,0.0
3561,62.0,0,60,2.0,0.0
3562,70.0,0,60,2.0,0.0
3563,62.0,0,60,3.0,0.0
3564,58.0,48,60,3.0,0.0
3565,62.0,0,60,3.0,0.0
3566,58.0,0,90,4.0,0.0
3567,58.0,2,60,3.0,0.0
3568,70.0,0,60,2.0,0.0
3569,34.0,48,90,7.0,0.0
3570,62.0,0,60,2.0,0.0
3571,46.0,0,90,5.0,0.0
3572,62.0,0,60,2.0,0.0
3573,70.0,0,60,2.0,0.0
3574,62.0,0,60,3.0,0.0
3575,58.0,0,60,3.0,0.0
3576,31.0,30,150,7.0,0.0
3577,70.0,0,720,0.0,0.0
3578,58.0,0,720,1.0,0.0
3579,62.0,0,60,3.0,0.0
3580,74.0,0,720,0.0,0.0
3581,62.0,46,720,1.0,0.0
3582,70.0,48,60,2.0,0.0
3583,62.0,0,60,2.0,0.0
3584,43.0,0,150,5.0,0.0
3585,58.0,0,60,3.0,0.0
3586,55.0,0,150,4.0,0.0
3587,58.0,0,60,3.0,0.0
3588,62.0,0,60,3.0,0.0
3589,70.0,0,60,2.0,0.0
3590,62.0,48,60,2.0,0.0
3591,58.0,0,60,3.0,0.0
3592,62.0,0,60,3.0,0.0
3593,62.0,18,60,2.0,0.0
3594,70.0,0,60,2.0,0.0
3595,58.0,0,60,3.0,0.0
3596,62.0,0,60,3.0,0.0
3597,62.0,48,60,2.0,0.0
3598,70.0,0,60,2.0,0.0
3599,58.0,48,60,3.0,0.0
3600,62.0,0,60,3.0,0.0
3601,62.0,0,60,2.0,0.0
3602,70.0,0,60,2.0,0.0
3603,70.0,48,60,2.0,0.0
3604,62.0,0,60,2.0,0.0
3605,62.0,0,60,3.0,0.0
3606,58.0,0,60,3.0,0.0
3607,67.0,0,60,4.0,0.0
3608,55.0,0,60,5.0,0.0
3609,58.0,0,60,3.0,0.0
3610,62.0,0,60,3.0,0.0
3611,43.0,0,60,7.0,0.0
3612,62.0,48,60,2.0,0.0
3613,70.0,0,60,2.0,0.0
3614,58.0,0,60,3.0,0.0
3615,42.0,48,60,7.0,0.0
3616,54.0,0,60,5.0,0.0
3617,66.0,0,60,4.0,0.0
3618,62.0,0,60,3.0,0.0
3619,62.0,0,60,2.0,0.0
3620,70.0,0,60,2.0,0.0
3621,62.0,0,60,2.0,0.0
3622,70.0,0,60,2.0,0.0
3623,67.0,0,90,4.0,0.0
3624,55.0,0,90,5.0,0.0
3625,43.0,0,90,7.0,0.0
3626,58.0,0,60,3.0,0.0
3627,62.0,48,60,3.0,0.0
3628,70.0,48,60,2.0,0.0
3629,62.0,0,60,2.0,0.0
3630,58.0,0,60,3.0,0.0
3631,62.0,0,60,3.0,0.0
3632,38.0,0,90,7.0,0.0
3633,50.0,0,90,5.0,0.0
3634,62.0,48,60,3.0,0.0
3635,58.0,0,60,3.0,0.0
3636,70.0,0,60,2.0,0.0
3637,62.0,0,60,2.0,0.0
3638,62.0,0,90,4.0,0.0
3639,62.0,0,60,3.0,0.0
3640,62.0,0,60,2.0,0.0
3641,58.0,0,60,3.0,0.0
3642,70.0,48,60,2.0,0.0
3643,46.0,48,90,5.0,0.0
3644,70.0,0,60,2.0,0.0
3645,58.0,0,90,4.0,0.0
3646,62.0,0,60,3.0,0.0
3647,34.0,0,90,7.0,0.0
3648,58.0,0,60,3.0,0.0
3649,62.0,48,60,2.0,0.0
3650,62.0,0,60,2.0,0.0
3651,58.0,0,60,3.0,0.0
3652,70.0,0,60,2.0,0.0
3653,62.0,0,60,3.0,0.0
3654,70.0,0,60,2.0,0.0
3655,55.0,0,90,4.0,0.0
3656,43.0,0,90,5.0,0.0
3657,31.0,48,90,7.0,0.0
3658,62.0,2,60,3.0,0.0
3659,58.0,0,60,3.0,0.0
3660,62.0,0,60,2.0,0.0
3661,62.0,0,60,3.0,0.0
3662,62.0,0,60,2.0,0.0
3663,58.0,0,60,3.0,0.0
3664,70.0,0,60,2.0,0.0
3665,67.0,0,60,2.0,0.0
3666,70.0,0,60,2.0,0.0
3667,58.0,0,720,1.0,0.0
3668,72.0,0,720,0.0,0.0
3669,51.0,30,150,5.0,0.0
3670,63.0,0,150,4.0,0.0
3671,39.0,0,150,7.0,0.0
3672,70.0,0,720,0.0,0.0
3673,60.0,46,720,1.0,0.0
3674,60.0,48,60,3.0,0.0
3675,67.0,48,60,2.0,0.0
3676,70.0,0,60,2.0,0.0
3677,60.0,0,60,3.0,0.0
3678,67.0,18,60,2.0,0.0
3679,70.0,0,60,2.0,0.0
3680,60.0,0,60,3.0,0.0
3681,60.0,48,60,3.0,0.0
3682,70.0,0,60,2.0,0.0
3683,67.0,0,60,2.0,0.0
3684,70.0,0,60,2.0,0.0
3685,67.0,48,60,2.0,0.0
3686,60.0,0,60,3.0,0.0
3687,60.0,0,60,3.0,0.0
3688,67.0,48,60,2.0,0.0
3689,70.0,0,60,2.0,0.0
3690,39.0,0,60,7.0,0.0
3691,51.0,0,60,5.0,0.0
3692,70.0,48,60,2.0,0.0
3693,67.0,0,60,2.0,0.0
3694,60.0,0,60,3.0,0.0
3695,63.0,0,60,4.0,0.0
3696,50.0,0,60,5.0,0.0
3697,67.0,0,60,2.0,0.0
3698,70.0,0,60,2.0,0.0
3699,38.0,0,60,7.0,0.0
3700,62.0,0,60,4.0,0.0
3701,60.0,48,60,3.0,0.0
3702,51.0,0,90,5.0,0.0
3703,63.0,48,90,4.0,0.0
3704,39.0,0,90,7.0,0.0
3705,67.0,48,60,2.0,0.0
3706,60.0,0,60,3.0,0.0
3707,70.0,0,60,2.0,0.0
3708,67.0,0,60,2.0,0.0
3709,60.0,0,60,3.0,0.0
3710,70.0,0,60,2.0,0.0
3711,70.0,0,60,2.0,0.0
3712,67.0,48,60,2.0,0.0
3713,46.0,0,90,5.0,0.0
3714,58.0,0,90,4.0,0.0
3715,60.0,0,60,3.0,0.0
3716,34.0,0,90,7.0,0.0
3717,60.0,0,60,3.0,0.0
3718,67.0,0,60,2.0,0.0
3719,70.0,48,60,2.0,0.0
3720,70.0,0,60,2.0,0.0
3721,67.0,48,60,2.0,0.0
3722,60.0,0,60,3.0,0.0
3723,43.0,0,90,5.0,0.0
3724,31.0,0,90,7.0,0.0
3725,55.0,0,90,4.0,0.0
3726,70.0,0,60,2.0,0.0
3727,67.0,0,60,2.0,0.0
3728,60.0,48,60,3.0,0.0
3729,39.0,0,90,5.0,0.0
3730,27.0,0,90,7.0,0.0
3731,51.0,48,90,4.0,0.0
3732,60.0,2,60,3.0,0.0
3733,67.0,0,60,2.0,0.0
3734,70.0,0,60,2.0,0.0
3735,67.0,0,60,2.0,0.0
3736,60.0,0,60,3.0,0.0
3737,70.0,0,60,2.0,0.0
3738,70.0,48,60,2.0,0.0
3739,65.0,0,60,2.0,0.0
3740,58.0,0,330,1.0,0.0
3741,29.0,0,150,7.0,0.0
3742,60.0,0,330,1.0,0.0
3743,72.0,0,330,0.0,0.0
3744,70.0,46,330,0.0,0.0
3745,60.0,0,60,3.0,0.0
3746,53.0,0,150,4.0,0.0
3747,41.0,30,150,5.0,0.0
3748,70.0,48,60,2.0,0.0
3749,60.0,0,60,3.0,0.0
3750,65.0,0,60,2.0,0.0
3751,65.0,0,60,2.0,0.0
3752,70.0,0,60,2.0,0.0
3753,60.0,18,60,3.0,0.0
3754,65.0,0,60,2.0,0.0
3755,70.0,0,60,2.0,0.0
3756,60.0,48,60,3.0,0.0
3757,65.0,48,60,2.0,0.0
3758,60.0,0,60,3.0,0.0
3759,70.0,0,60,2.0,0.0
3760,70.0,48,60,2.0,0.0
3761,60.0,0,60,3.0,0.0
3762,65.0,0,60,2.0,0.0
3763,41.0,2,60,7.0,0.0
3764,60.0,0,60,3.0,0.0
3765,65.0,0,60,4.0,0.0
3766,53.0,0,60,5.0,0.0
3767,70.0,0,60,2.0,0.0
3768,65.0,0,60,2.0,0.0
3769,65.0,0,60,2.0,0.0
3770,70.0,0,60,2.0,0.0
3771,52.0,48,60,5.0,0.0
3772,60.0,0,60,3.0,0.0
3773,64.0,0,60,4.0,0.0
3774,40.0,0,60,7.0,0.0
3775,69.0,0,330,0.0,0.0
3776,60.0,0,330,1.0,0.0
3777,65.0,48,90,4.0,0.0
3778,53.0,0,90,5.0,0.0
3779,63.0,0,60,2.0,0.0
3780,53.0,46,330,1.0,0.0
3781,60.0,0,60,3.0,0.0
3782,72.0,0,330,0.0,0.0
3783,69.0,48,60,2.0,0.0
3784,41.0,0,90,7.0,0.0
3785,63.0,0,60,2.0,0.0
3786,69.0,0,60,2.0,0.0
3787,60.0,0,60,3.0,0.0
3788,36.0,48,90,7.0,0.0
3789,48.0,0,90,5.0,0.0
3790,60.0,0,60,3.0,0.0
3791,63.0,0,60,2.0,0.0
3792,69.0,48,60,2.0,0.0
3793,60.0,0,90,4.0,0.0
3794,69.0,0,60,2.0,0.0
3795,63.0,0,60,2.0,0.0
3796,60.0,0,60,3.0,0.0
3797,60.0,0,60,3.0,0.0
3798,57.0,48,90,4.0,0.0
3799,63.0,48,60,2.0,0.0
3800,69.0,0,60,2.0,0.0
3801,33.0,0,90,7.0,0.0
3802,45.0,0,90,5.0,0.0
3803,60.0,0,60,3.0,0.0
3804,63.0,0,60,2.0,0.0
3805,69.0,0,60,2.0,0.0
3806,69.0,2,60,2.0,0.0
3807,41.0,0,90,5.0,0.0
3808,29.0,0,90,7.0,0.0
3809,60.0,0,60,3.0,0.0
3810,63.0,0,60,2.0,0.0
3811,53.0,0,90,4.0,0.0
3812,63.0,0,60,2.0,0.0
3813,69.0,0,60,2.0,0.0
3814,60.0,48,60,3.0,0.0
3815,62.0,0,720,1.0,0.0
3816,74.0,0,150,0.0,0.0
3817,46.0,0,150,5.0,0.0
3818,70.0,0,150,0.0,0.0
3819,58.0,0,150,4.0,0.0
3820,34.0,30,150,7.0,0.0
3821,58.0,0,720,1.0,0.0
3822,62.0,0,60,2.0,0.0
3823,70.0,0,60,2.0,0.0
3824,62.0,48,60,3.0,0.0
3825,82.0,0,60,2.0,0.0
3826,62.0,48,60,3.0,0.0
3827,82.0,18,60,2.0,0.0
3828,62.0,0,60,3.0,0.0
3829,82.0,48,60,2.0,0.0
3830,62.0,0,60,3.0,0.0
3831,74.0,0,60,2.0,0.0
3832,65.0,48,60,3.0,0.0
3833,82.0,0,60,2.0,0.0
3834,82.0,0,60,2.0,0.0
3835,65.0,48,60,3.0,0.0
3836,74.0,0,60,2.0,0.0
3837,58.0,0,60,5.0,0.0
3838,46.0,0,60,7.0,0.0
3839,70.0,48,60,4.0,0.0
3840,74.0,0,60,2.0,0.0
3841,65.0,0,60,3.0,0.0
3842,82.0,0,60,2.0,0.0
3843,57.0,48,60,5.0,0.0
3844,74.0,0,60,2.0,0.0
3845,82.0,0,60,2.0,0.0
3846,69.0,0,60,4.0,0.0
3847,45.0,0,60,7.0,0.0
3848,65.0,0,60,3.0,0.0
3849,70.0,48,90,4.0,0.0
3850,74.0,48,60,2.0,0.0
3851,65.0,0,60,3.0,0.0
3852,82.0,46,330,0.0,0.0
3853,46.0,0,90,7.0,0.0
3854,58.0,0,90,5.0,0.0
3855,74.0,0,330,0.0,0.0
3856,82.0,0,60,2.0,0.0
3857,65.0,0,60,3.0,0.0
3858,82.0,0,60,2.0,0.0
3859,74.0,0,60,2.0,0.0
3860,41.0,0,90,7.0,0.0
3861,65.0,0,60,3.0,0.0
3862,82.0,48,60,2.0,0.0
3863,74.0,0,60,2.0,0.0
3864,53.0,0,90,5.0,0.0
3865,65.0,0,90,4.0,0.0
3866,74.0,0,60,2.0,0.0
3867,82.0,0,60,2.0,0.0
3868,65.0,48,60,3.0,0.0
3869,38.0,0,90,7.0,0.0
3870,62.0,0,90,4.0,0.0
3871,50.0,0,90,5.0,0.0
3872,74.0,0,60,2.0,0.0
3873,82.0,0,60,2.0,0.0
3874,65.0,48,60,3.0,0.0
3875,74.0,0,60,2.0,0.0
3876,82.0,48,60,2.0,0.0
3877,65.0,0,60,3.0,0.0
3878,65.0,2,60,3.0,0.0
3879,46.0,0,90,5.0,0.0
3880,82.0,0,60,2.0,0.0
3881,74.0,0,60,2.0,0.0
3882,34.0,0,90,7.0,0.0
3883,58.0,0,90,4.0,0.0
3884,65.0,0,60,3.0,0.0
3885,74.0,48,60,2.0,0.0
3886,82.0,0,60,2.0,0.0
3887,43.0,0,150,5.0,0.0
3888,74.0,0,60,2.0,0.0
3889,58.0,0,720,1.0,0.0
3890,82.0,0,60,2.0,0.0
3891,82.0,46,720,0.0,0.0
3892,31.0,0,150,7.0,0.0
3893,74.0,0,720,0.0,0.0
3894,55.0,30,150,4.0,0.0
3895,67.0,48,60,3.0,0.0
3896,62.0,0,720,1.0,0.0
3897,70.0,0,60,3.0,0.0
3898,67.0,0,60,3.0,0.0
3899,74.0,0,60,2.0,0.0
3900,82.0,0,60,2.0,0.0
3901,70.0,48,60,3.0,0.0
3902,70.0,0,60,3.0,0.0
3903,82.0,18,60,2.0,0.0
3904,74.0,0,60,2.0,0.0
3905,67.0,0,60,3.0,0.0
3906,74.0,0,60,2.0,0.0
3907,82.0,0,60,2.0,0.0
3908,67.0,48,60,3.0,0.0
3909,70.0,0,60,3.0,0.0
3910,82.0,48,60,2.0,0.0
3911,70.0,0,60,3.0,0.0
3912,67.0,0,60,3.0,0.0
3913,74.0,0,60,2.0,0.0
3914,70.0,0,60,3.0,0.0
3915,74.0,0,60,2.0,0.0
3916,67.0,0,60,3.0,0.0
3917,82.0,48,60,2.0,0.0
3918,70.0,0,60,3.0,0.0
3919,43.0,0,60,7.0,0.0
3920,82.0,48,60,2.0,0.0
3921,74.0,0,60,2.0,0.0
3922,55.0,0,60,5.0,0.0
3923,67.0,0,60,4.0,0.0
3924,67.0,0,60,3.0,0.0
3925,54.0,0,60,5.0,0.0
3926,82.0,0,60,2.0,0.0
3927,74.0,0,60,2.0,0.0
3928,67.0,0,60,3.0,0.0
3929,70.0,0,60,3.0,0.0
3930,42.0,0,60,7.0,0.0
3931,66.0,48,60,4.0,0.0
3932,70.0,0,60,3.0,0.0
3933,67.0,0,60,3.0,0.0
3934,82.0,0,60,2.0,0.0
3935,43.0,0,90,7.0,0.0
3936,55.0,0,90,5.0,0.0
3937,67.0,48,90,4.0,0.0
3938,74.0,48,60,2.0,0.0
3939,74.0,0,60,2.0,0.0
3940,82.0,0,60,2.0,0.0
3941,70.0,0,60,3.0,0.0
3942,67.0,0,60,3.0,0.0
3943,50.0,0,90,5.0,0.0
3944,67.0,0,60,3.0,0.0
3945,70.0,48,60,3.0,0.0
3946,38.0,0,90,7.0,0.0
3947,82.0,0,60,2.0,0.0
3948,62.0,48,90,4.0,0.0
3949,74.0,0,60,2.0,0.0
3950,74.0,0,60,2.0,0.0
3951,67.0,0,60,3.0,0.0
3952,70.0,0,60,3.0,0.0
3953,82.0,0,60,2.0,0.0
3954,70.0,0,60,3.0,0.0
3955,46.0,0,90,5.0,0.0
3956,74.0,48,60,2.0,0.0
3957,82.0,0,60,2.0,0.0
3958,34.0,0,90,7.0,0.0
3959,67.0,0,60,3.0,0.0
3960,58.0,0,90,4.0,0.0
3961,82.0,48,60,2.0,0.0
3962,74.0,0,60,2.0,0.0
3963,67.0,0,60,3.0,0.0
3964,70.0,0,60,3.0,0.0
3965,82.0,2,60,2.0,0.0
3966,43.0,0,90,5.0,0.0
3967,70.0,0,60,3.0,0.0
3968,74.0,0,60,2.0,0.0
3969,67.0,0,60,3.0,0.0
3970,55.0,0,90,4.0,0.0
3971,31.0,0,90,7.0,0.0
3972,67.0,0,60,3.0,0.0
3973,70.0,0,60,3.0,0.0
3974,74.0,0,60,2.0,0.0
3975,82.0,48,60,2.0,0.0
3976,72.0,0,720,0.0,0.0
3977,82.0,0,720,0.0,0.0
3978,51.0,0,150,5.0,0.0
3979,63.0,30,150,4.0,0.0
3980,58.0,0,720,1.0,0.0
3981,60.0,46,720,1.0,0.0
3982,67.0,0,60,3.0,0.0
3983,39.0,0,150,7.0,0.0
3984,72.0,0,60,2.0,0.0
3985,70.0,0,60,3.0,0.0
3986,82.0,48,60,2.0,0.0
3987,70.0,48,60,3.0,0.0
3988,67.0,0,60,3.0,0.0
3989,82.0,0,60,2.0,0.0
3990,72.0,0,60,2.0,0.0
3991,70.0,0,60,3.0,0.0
3992,67.0,18,60,3.0,0.0
3993,82.0,0,60,2.0,0.0
3994,72.0,0,60,2.0,0.0
3995,67.0,48,60,3.0,0.0
3996,70.0,0,60,3.0,0.0
3997,72.0,0,60,2.0,0.0
3998,82.0,0,60,2.0,0.0
3999,82.0,0,60,2.0,0.0
4000,72.0,0,60,2.0,0.0
4001,67.0,0,60,3.0,0.0
4002,70.0,48,60,3.0,0.0
4003,67.0,0,60,3.0,0.0
4004,70.0,48,60,3.0,0.0
4005,82.0,0,60,2.0,0.0
4006,72.0,0,60,2.0,0.0
4007,63.0,48,60,4.0,0.0
4008,39.0,0,60,7.0,0.0
4009,51.0,0,60,5.0,0.0
4010,72.0,0,60,2.0,0.0
4011,70.0,0,60,3.0,0.0
4012,67.0,0,60,3.0,0.0
4013,82.0,0,60,2.0,0.0
4014,72.0,0,60,2.0,0.0
4015,70.0,0,60,3.0,0.0
4016,67.0,0,60,3.0,0.0
4017,82.0,48,60,2.0,0.0
4018,62.0,0,60,4.0,0.0
4019,38.0,0,60,7.0,0.0
4020,50.0,0,60,5.0,0.0
4021,51.0,0,90,5.0,0.0
4022,39.0,0,90,7.0,0.0
4023,63.0,0,90,4.0,0.0
4024,82.0,0,60,2.0,0.0
4025,67.0,0,60,3.0,0.0
4026,72.0,0,60,2.0,0.0
4027,70.0,48,60,3.0,0.0
4028,72.0,0,60,2.0,0.0
4029,82.0,0,60,2.0,0.0
4030,67.0,0,60,3.0,0.0
4031,70.0,48,60,3.0,0.0
4032,55.0,0,90,5.0,0.0
4033,67.0,0,60,3.0,0.0
4034,43.0,0,90,7.0,0.0
4035,70.0,0,60,3.0,0.0
4036,67.0,48,90,4.0,0.0
4037,72.0,48,60,2.0,0.0
4038,82.0,0,60,2.0,0.0
4039,70.0,0,60,3.0,0.0
4040,82.0,0,60,2.0,0.0
4041,72.0,0,60,2.0,0.0
4042,67.0,0,60,3.0,0.0
4043,70.0,0,90,4.0,0.0
4044,46.0,0,90,7.0,0.0
4045,58.0,0,90,5.0,0.0
4046,72.0,48,60,2.0,0.0
4047,67.0,0,60,3.0,0.0
4048,70.0,0,60,3.0,0.0
4049,82.0,0,60,2.0,0.0
4050,82.0,0,60,2.0,0.0
4051,67.0,0,60,3.0,0.0
4052,70.0,48,60,3.0,0.0
4053,72.0,0,60,2.0,0.0
4054,51.0,48,90,7.0,0.0
4055,63.0,0,90,5.0,0.0
4056,75.0,0,90,4.0,0.0
4057,72.0,0,60,2.0,0.0
4058,70.0,0,60,3.0,0.0
4059,82.0,2,60,2.0,0.0
4060,67.0,0,60,3.0,0.0
4061,72.0,0,60,2.0,0.0
4062,82.0,0,60,2.0,0.0
4063,67.0,0,60,3.0,0.0
4064,70.0,0,60,3.0,0.0
4065,72.0,48,60,2.0,0.0
4066,60.0,0,330,1.0,0.0
4067,41.0,30,150,7.0,0.0
4068,65.0,0,150,4.0,0.0
4069,82.0,0,330,0.0,0.0
4070,72.0,0,330,0.0,0.0
4071,58.0,46,330,1.0,0.0
4072,82.0,0,60,2.0,0.0
4073,65.0,0,60,3.0,0.0
4074,53.0,0,150,5.0,0.0
4075,65.0,48,60,3.0,0.0
4076,72.0,0,60,2.0,0.0
4077,82.0,0,60,2.0,0.0
4078,82.0,0,60,2.0,0.0
4079,72.0,0,60,2.0,0.0
4080,65.0,18,60,3.0,0.0
4081,72.0,0,60,2.0,0.0
4082,82.0,48,60,2.0,0.0
4083,65.0,0,60,3.0,0.0
4084,72.0,0,60,2.0,0.0
4085,82.0,48,60,2.0,0.0
4086,65.0,0,60,3.0,0.0
4087,65.0,0,60,3.0,0.0
4088,82.0,48,60,2.0,0.0
4089,72.0,0,60,2.0,0.0
4090,65.0,0,60,5.0,0.0
4091,77.0,0,60,4.0,0.0
4092,72.0,2,60,2.0,0.0
4093,65.0,0,60,3.0,0.0
4094,82.0,0,60,2.0,0.0
4095,53.0,0,60,7.0,0.0
4096,72.0,0,60,2.0,0.0
4097,82.0,48,60,2.0,0.0
4098,65.0,0,60,3.0,0.0
4099,64.0,0,60,5.0,0.0
4100,52.0,0,60,7.0,0.0
4101,76.0,0,60,4.0,0.0
4102,77.0,0,90,4.0,0.0
4103,81.0,0,330,0.0,0.0
4104,60.0,0,330,1.0,0.0
4105,65.0,0,90,5.0,0.0
4106,53.0,46,330,1.0,0.0
4107,72.0,0,60,2.0,0.0
4108,53.0,0,90,7.0,0.0
4109,81.0,48,60,2.0,0.0
4110,63.0,0,60,3.0,0.0
4111,72.0,0,330,0.0,0.0
4112,63.0,0,60,3.0,0.0
4113,72.0,0,60,2.0,0.0
4114,81.0,48,60,2.0,0.0
4115,63.0,48,60,3.0,0.0
4116,60.0,48,90,5.0,0.0
4117,48.0,0,90,7.0,0.0
4118,81.0,0,60,2.0,0.0
4119,72.0,0,60,2.0,0.0
4120,72.0,0,90,4.0,0.0
4121,63.0,0,60,3.0,0.0
4122,72.0,0,60,2.0,0.0
4123,81.0,0,60,2.0,0.0
4124,45.0,0,90,7.0,0.0
4125,57.0,48,90,5.0,0.0
4126,63.0,0,60,3.0,0.0
4127,72.0,48,60,2.0,0.0
4128,81.0,0,60,2.0,0.0
4129,69.0,0,90,4.0,0.0
4130,63.0,0,60,3.0,0.0
4131,72.0,0,60,2.0,0.0
4132,81.0,0,60,2.0,0.0
4133,72.0,2,60,2.0,0.0
4134,81.0,0,60,2.0,0.0
4135,41.0,0,90,7.0,0.0
4136,63.0,0,60,3.0,0.0
4137,65.0,96,90,4.0,0.0
4138,53.0,0,90,5.0,0.0
4139,63.0,0,60,3.0,0.0
4140,72.0,0,60,2.0,0.0
4141,81.0,0,60,2.0,0.0
4142,46.0,96,90,5.0,0.0
4143,34.0,0,90,7.0,0.0
4144,50.0,46,540,1.0,0.0
4145,74.0,0,540,2.0,0.0
4146,82.0,0,540,2.0,0.0
4147,74.0,0,540,0.0,0.0
4148,62.0,0,540,3.0,0.0
4149,58.0,0,540,1.0,0.0
4150,82.0,0,540,0.0,0.0
4151,58.0,0,90,4.0,0.0
4152,34.0,0,90,7.0,0.0
4153,58.0,96,90,4.0,0.0
4154,46.0,0,90,5.0,0.0
4155,46.0,96,90,5.0,0.0
4156,58.0,0,90,4.0,0.0
4157,34.0,0,90,7.0,0.0
4158,46.0,0,90,5.0,0.0
4159,34.0,0,90,7.0,0.0
4160,58.0,96,90,4.0,0.0
4161,34.0,0,90,7.0,0.0
4162,58.0,0,90,4.0,0.0
4163,46.0,50,90,5.0,0.0
4164,34.0,0,90,7.0,0.0
4165,46.0,96,90,5.0,0.0
4166,58.0,0,90,4.0,0.0
4167,34.0,50,90,7.0,0.0
4168,46.0,0,90,5.0,0.0
4169,62.0,0,150,1.0,0.0
4170,58.0,0,90,4.0,0.0
4171,65.0,8,150,1.0,0.0
4172,74.0,0,150,2.0,0.0
4173,65.0,16,150,3.0,0.0
4174,34.0,0,90,7.0,0.0
4175,58.0,0,90,4.0,0.0
4176,46.0,96,90,5.0,0.0
4177,72.0,0,20,2.0,0.0
4178,63.0,22,20,3.0,0.0
4179,65.0,0,20,3.0,0.0
4180,74.0,0,20,2.0,0.0
4181,58.0,0,90,4.0,0.0
4182,34.0,0,90,7.0,0.0
4183,63.0,0,90,1.0,0.0
4184,67.0,0,90,1.0,0.0
4185,46.0,96,90,5.0,0.0
4186,75.0,0,90,2.0,0.0
4187,67.0,0,90,3.0,0.0
4188,34.0,0,90,7.0,0.0
4189,46.0,96,90,5.0,0.0
4190,58.0,0,90,4.0,0.0
4191,58.0,0,90,4.0,0.0
4192,34.0,0,90,7.0,0.0
4193,46.0,96,90,5.0,0.0
4194,65.0,0,90,3.0,0.0
4195,65.0,0,90,1.0,0.0
4196,62.0,0,90,1.0,0.0
4197,74.0,0,90,2.0,0.0
4198,58.0,96,90,4.0,0.0
4199,46.0,0,90,5.0,0.0
4200,34.0,0,90,7.0,0.0
4201,34.0,96,90,7.0,0.0
4202,58.0,0,90,4.0,0.0
4203,67.0,0,90,3.0,0.0
4204,46.0,0,90,5.0,0.0
4205,67.0,0,90,1.0,0.0
4206,63.0,0,90,1.0,0.0
4207,75.0,0,90,2.0,0.0
4208,34.0,0,90,7.0,0.0
4209,58.0,96,90,4.0,0.0
4210,46.0,0,90,5.0,0.0
4211,60.0,0,90,1.0,0.0
4212,46.0,0,90,5.0,0.0
4213,63.0,0,90,1.0,0.0
4214,63.0,96,90,3.0,0.0
4215,72.0,0,90,2.0,0.0
4216,58.0,0,90,4.0,0.0
4217,34.0,0,90,7.0,0.0
4218,34.0,0,90,7.0,0.0
4219,58.0,96,90,4.0,0.0
4220,46.0,0,90,5.0,0.0
4221,34.0,0,90,7.0,0.0
4222,65.0,0,390,1.0,0.0
4223,77.0,0,390,0.0,0.0
4224,58.0,0,90,4.0,0.0
4225,46.0,96,90,5.0,0.0
4226,77.0,94,390,2.0,0.0
4227,74.0,0,390,3.0,0.0
4228,74.0,0,390,0.0,0.0
4229,46.0,0,90,5.0,0.0
4230,34.0,96,90,7.0,0.0
4231,58.0,0,90,4.0,0.0
4232,34.0,96,90,7.0,0.0
4233,58.0,0,90,4.0,0.0
4234,46.0,0,90,5.0,0.0
4235,46.0,0,90,5.0,0.0
4236,58.0,0,90,4.0,0.0
4237,34.0,2,90,7.0,0.0
4238,34.0,0,90,7.0,0.0
4239,46.0,0,90,5.0,0.0
4240,62.0,0,15,1.0,0.0
4241,58.0,0,90,1.0,0.0
4242,70.0,0,90,3.0,0.0
4243,70.0,96,90,0.0,0.0
4244,74.0,0,90,0.0,0.0
4245,58.0,0,90,4.0,0.0
4246,74.0,0,90,2.0,0.0
4247,58.0,0,90,4.0,0.0
4248,34.0,96,90,7.0,0.0
4249,46.0,0,90,5.0,0.0
4250,46.0,50,90,5.0,0.0
4251,34.0,0,90,7.0,0.0
4252,74.0,16,150,2.0,0.0
4253,65.0,0,150,3.0,0.0
4254,74.0,8,150,0.0,0.0
4255,77.0,0,150,0.0,0.0
4256,58.0,0,90,4.0,0.0
4257,58.0,96,90,4.0,0.0
4258,34.0,0,90,7.0,0.0
4259,46.0,0,90,5.0,0.0
4260,63.0,0,20,3.0,0.0
4261,72.0,22,20,2.0,0.0
4262,65.0,0,20,3.0,0.0
4263,74.0,0,20,2.0,0.0
4264,75.0,0,90,0.0,0.0
4265,34.0,0,90,7.0,0.0
4266,58.0,0,90,4.0,0.0
4267,46.0,96,90,5.0,0.0
4268,75.0,0,90,2.0,0.0
4269,67.0,0,90,3.0,0.0
4270,79.0,0,90,0.0,0.0
4271,46.0,0,90,5.0,0.0
4272,58.0,96,90,4.0,0.0
4273,34.0,0,90,7.0,0.0
4274,65.0,0,90,3.0,0.0
4275,77.0,0,90,0.0,0.0
4276,74.0,0,90,2.0,0.0
4277,74.0,0,90,0.0,0.0
4278,46.0,96,90,5.0,0.0
4279,58.0,0,90,4.0,0.0
4280,34.0,0,90,7.0,0.0
4281,58.0,0,90,4.0,0.0
4282,46.0,0,90,5.0,0.0
4283,34.0,96,90,7.0,0.0
4284,46.0,0,90,5.0,0.0
4285,79.0,0,90,0.0,0.0
4286,75.0,0,90,0.0,0.0
4287,75.0,0,90,2.0,0.0
4288,34.0,0,90,7.0,0.0
4289,58.0,0,90,4.0,0.0
4290,67.0,96,90,3.0,0.0
4291,34.0,96,90,7.0,0.0
4292,58.0,0,90,4.0,0.0
4293,46.0,0,90,5.0,0.0
4294,72.0,0,90,2.0,0.0
4295,75.0,96,90,0.0,0.0
4296,58.0,0,90,4.0,0.0
4297,72.0,0,90,0.0,0.0
4298,46.0,0,90,5.0,0.0
4299,34.0,0,90,7.0,0.0
4300,63.0,0,90,3.0,0.0
4301,34.0,0,90,7.0,0.0
4302,58.0,96,90,4.0,0.0
4303,46.0,0,90,5.0,0.0
4304,62.0,0,390,3.0,0.0
4305,70.0,0,390,2.0,0.0
4306,74.0,0,390,0.0,0.0
4307,50.0,94,390,1.0,0.0
4308,58.0,96,90,4.0,0.0
4309,70.0,0,390,0.0,0.0
4310,58.0,0,390,1.0,0.0
4311,46.0,0,90,5.0,0.0
4312,34.0,0,90,7.0,0.0
4313,58.0,0,90,4.0,0.0
4314,34.0,0,90,7.0,0.0
4315,46.0,96,90,5.0,0.0
4316,46.0,0,90,5.0,0.0
4317,34.0,96,90,7.0,0.0
4318,58.0,0,90,4.0,0.0
4319,46.0,2,90,5.0,0.0
4320,58.0,0,90,4.0,0.0
4321,34.0,0,90,7.0,0.0
4322,74.0,0,90,2.0,0.0
4323,34.0,0,90,7.0,0.0
4324,77.0,96,90,0.0,0.0
4325,53.0,0,90,1.0,0.0
4326,46.0,0,90,5.0,0.0
4327,65.0,0,90,3.0,0.0
4328,62.0,0,90,1.0,0.0
4329,74.0,0,90,0.0,0.0
4330,58.0,0,90,4.0,0.0
4331,34.0,0,90,7.0,0.0
4332,58.0,0,90,4.0,0.0
4333,46.0,96,90,5.0,0.0
4334,46.0,0,90,5.0,0.0
4335,58.0,50,90,4.0,0.0
4336,65.0,0,150,1.0,0.0
4337,62.0,8,150,1.0,0.0
4338,74.0,0,150,2.0,0.0
4339,65.0,16,150,3.0,0.0
4340,34.0,0,90,7.0,0.0
4341,34.0,0,90,7.0,0.0
4342,58.0,96,90,4.0,0.0
4343,46.0,0,90,5.0,0.0
4344,72.0,22,20,2.0,0.0
4345,63.0,0,20,3.0,0.0
4346,74.0,0,20,2.0,0.0
4347,65.0,0,20,3.0,0.0
4348,67.0,0,90,3.0,0.0
4349,34.0,96,90,7.0,0.0
4350,46.0,0,90,5.0,0.0
4351,63.0,0,90,1.0,0.0
4352,67.0,0,90,1.0,0.0
4353,58.0,0,90,4.0,0.0
4354,75.0,0,90,2.0,0.0
4355,46.0,0,90,5.0,0.0
4356,58.0,0,90,4.0,0.0
4357,34.0,96,90,7.0,0.0
4358,46.0,96,90,5.0,0.0
4359,62.0,0,90,1.0,0.0
4360,34.0,0,90,7.0,0.0
4361,58.0,0,90,4.0,0.0
4362,74.0,0,90,2.0,0.0
4363,65.0,0,90,1.0,0.0
4364,65.0,0,90,3.0,0.0
4365,34.0,0,90,7.0,0.0
4366,58.0,96,90,4.0,0.0
4367,46.0,0,90,5.0,0.0
4368,67.0,0,90,3.0,0.0
4369,75.0,96,90,2.0,0.0
4370,67.0,0,90,1.0,0.0
4371,58.0,0,90,4.0,0.0
4372,63.0,0,90,1.0,0.0
4373,34.0,0,90,7.0,0.0
4374,46.0,0,90,5.0,0.0
4375,58.0,96,90,4.0,0.0
4376,46.0,0,90,5.0,0.0
4377,34.0,0,90,7.0,0.0
4378,58.0,0,90,4.0,0.0
4379,63.0,0,90,3.0,0.0
4380,46.0,96,90,5.0,0.0
4381,63.0,0,90,1.0,0.0
4382,34.0,0,90,7.0,0.0
4383,60.0,0,90,1.0,0.0
4384,72.0,0,90,2.0,0.0
4385,46.0,0,90,5.0,0.0
4386,34.0,0,90,7.0,0.0
4387,58.0,96,90,4.0,0.0
4388,77.0,0,390,2.0,0.0
4389,46.0,0,90,5.0,0.0
4390,65.0,0,390,1.0,0.0
4391,77.0,0,390,0.0,0.0
4392,58.0,96,90,4.0,0.0
4393,34.0,0,90,7.0,0.0
4394,74.0,94,390,3.0,0.0
4395,46.0,96,90,5.0,0.0
4396,34.0,0,90,7.0,0.0
4397,58.0,0,90,4.0,0.0
4398,46.0,0,90,5.0,0.0
4399,58.0,0,90,4.0,0.0
4400,34.0,96,90,7.0,0.0
4401,58.0,0,90,4.0,0.0
4402,46.0,0,90,5.0,0.0
4403,34.0,2,90,7.0,0.0
4404,34.0,0,90,7.0,0.0
4405,74.0,0,15,0.0,0.0
4406,58.0,0,90,1.0,0.0
4407,46.0,96,90,5.0,0.0
4408,62.0,0,15,1.0,0.0
4409,74.0,0,90,2.0,0.0
4410,58.0,0,90,4.0,0.0
4411,70.0,0,90,3.0,0.0
4412,70.0,0,90,0.0,0.0
4413,34.0,96,90,7.0,0.0
4414,46.0,0,90,5.0,0.0
4415,58.0,0,90,4.0,0.0
4416,77.0,8,150,0.0,0.0
4417,58.0,50,90,4.0,0.0
4418,46.0,0,90,5.0,0.0
4419,74.0,0,150,2.0,0.0
4420,34.0,0,90,7.0,0.0
4421,65.0,16,150,3.0,0.0
4422,74.0,0,150,0.0,0.0
4423,58.0,0,90,4.0,0.0
4424,46.0,0,90,5.0,0.0
4425,34.0,0,90,7.0,0.0
4426,72.0,22,20,2.0,0.0
4427,63.0,0,20,3.0,0.0
4428,65.0,0,20,3.0,0.0
4429,74.0,96,20,2.0,0.0
4430,58.0,96,90,4.0,0.0
4431,75.0,0,90,0.0,0.0
4432,34.0,0,90,7.0,0.0
4433,46.0,0,90,5.0,0.0
4434,75.0,0,90,2.0,0.0
4435,67.0,0,90,3.0,0.0
4436,79.0,0,90,0.0,0.0
4437,58.0,96,90,4.0,0.0
4438,46.0,0,90,5.0,0.0
4439,34.0,0,90,7.0,0.0
4440,74.0,0,90,2.0,0.0
4441,65.0,0,90,3.0,0.0
4442,77.0,0,90,0.0,0.0
4443,74.0,96,90,0.0,0.0
4444,58.0,0,90,4.0,0.0
4445,46.0,0,90,5.0,0.0
4446,34.0,0,90,7.0,0.0
4447,58.0,96,90,4.0,0.0
4448,46.0,0,90,5.0,0.0
4449,34.0,0,90,7.0,0.0
4450,34.0,0,90,7.0,0.0
4451,46.0,0,90,5.0,0.0
4452,58.0,0,90,4.0,0.0
4453,75.0,0,90,2.0,0.0
4454,67.0,96,90,3.0,0.0
4455,79.0,0,90,0.0,0.0
4456,75.0,0,90,0.0,0.0
4457,58.0,0,90,4.0,0.0
4458,34.0,96,90,7.0,0.0
4459,46.0,0,90,5.0,0.0
4460,46.0,0,90,5.0,0.0
4461,58.0,0,90,4.0,0.0
4462,72.0,0,90,0.0,0.0
4463,72.0,96,90,2.0,0.0
4464,34.0,0,90,7.0,0.0
4465,63.0,0,90,3.0,0.0
4466,75.0,0,90,0.0,0.0
4467,34.0,96,90,7.0,0.0
4468,58.0,0,90,4.0,0.0
4469,46.0,0,90,5.0,0.0
4470,46.0,66,90,5.0,0.0
4471,62.0,30,150,3.0,0.0
4472,70.0,0,330,0.0,0.0
4473,70.0,0,150,2.0,0.0
4474,62.0,0,150,2.0,0.0
4475,58.0,0,150,1.0,0.0
4476,50.0,0,150,1.0,0.0
4477,74.0,46,330,0.0,0.0
4478,34.0,0,90,7.0,0.0
4479,58.0,0,90,4.0,0.0
4480,70.0,96,90,4.0,0.0
4481,58.0,0,90,5.0,0.0
4482,46.0,0,90,7.0,0.0
4483,45.0,50,90,7.0,0.0
4484,69.0,0,90,4.0,0.0
4485,57.0,0,90,5.0,0.0
4486,58.0,96,90,5.0,0.0
4487,70.0,0,90,4.0,0.0
4488,46.0,0,90,7.0,0.0
4489,41.0,0,90,7.0,0.0
4490,53.0,0,90,5.0,0.0
4491,58.0,0,150,1.0,0.0
4492,74.0,30,150,2.0,0.0
4493,62.0,0,150,1.0,0.0
4494,74.0,0,150,0.0,0.0
4495,62.0,0,150,3.0,0.0
4496,70.0,0,150,3.0,0.0
4497,65.0,66,90,4.0,0.0
4498,82.0,0,150,2.0,0.0
4499,70.0,0,150,0.0,0.0
4500,58.0,0,90,5.0,0.0
4501,46.0,96,90,7.0,0.0
4502,70.0,0,90,4.0,0.0
4503,38.0,66,90,7.0,0.0
4504,74.0,0,150,0.0,0.0
4505,62.0,0,90,4.0,0.0
4506,65.0,30,150,1.0,0.0
4507,82.0,0,150,2.0,0.0
4508,77.0,0,150,0.0,0.0
4509,62.0,0,150,1.0,0.0
4510,50.0,0,90,5.0,0.0
4511,70.0,0,150,3.0,0.0
4512,62.0,0,150,3.0,0.0
4513,74.0,0,150,2.0,0.0
4514,41.0,162,90,7.0,0.0
4515,53.0,0,90,5.0,0.0
4516,65.0,0,90,4.0,0.0
4517,58.0,192,150,1.0,0.0
4518,58.0,0,150,4.0,0.0
4519,34.0,0,150,7.0,0.0
4520,74.0,0,150,2.0,0.0
4521,82.0,0,150,0.0,0.0
4522,70.0,0,150,3.0,0.0
4523,62.0,0,150,3.0,0.0
4524,46.0,0,150,5.0,0.0
4525,82.0,0,150,2.0,0.0
4526,74.0,0,150,0.0,0.0
4527,62.0,0,150,1.0,0.0
4528,34.0,0,150,7.0,0.0
4529,74.0,0,150,0.0,0.0
4530,82.0,0,150,0.0,0.0
4531,82.0,0,150,2.0,0.0
4532,74.0,0,150,2.0,0.0
4533,46.0,0,150,5.0,0.0
4534,58.0,192,150,1.0,0.0
4535,62.0,0,150,1.0,0.0
4536,70.0,0,150,3.0,0.0
4537,58.0,0,150,4.0,0.0
4538,62.0,0,150,3.0,0.0
4539,82.0,0,150,0.0,0.0
4540,34.0,0,150,7.0,0.0
4541,74.0,0,150,0.0,0.0
4542,62.0,0,150,1.0,0.0
4543,62.0,0,150,3.0,0.0
4544,70.0,0,150,3.0,0.0
4545,58.0,1152,150,4.0,0.0
4546,82.0,0,150,2.0,0.0
4547,74.0,0,150,2.0,0.0
4548,58.0,0,150,1.0,0.0
4549,46.0,0,150,5.0,0.0
4550,67.0,46,330,2.0,0.0
4551,50.0,46,720,1.0,0.0
4552,67.0,32,150,4.0,0.0
4553,62.0,0,720,1.0,0.0
4554,46.0,96,90,7.0,0.0
4555,62.0,0,90,3.0,0.0
4556,58.0,0,90,5.0,0.0
4557,60.0,0,90,3.0,0.0
4558,45.0,48,90,7.0,0.0
4559,57.0,0,90,5.0,0.0
4560,67.0,160,90,4.0,0.0
4561,55.0,2,90,5.0,0.0
4562,58.0,0,90,3.0,0.0
4563,43.0,0,90,7.0,0.0
4564,66.0,32,150,4.0,0.0
4565,74.0,0,330,2.0,0.0
4566,69.0,0,90,3.0,0.0
4567,54.0,0,90,5.0,0.0
4568,42.0,96,90,7.0,0.0
4569,39.0,0,90,7.0,0.0
4570,67.0,48,90,3.0,0.0
4571,51.0,0,90,5.0,0.0
4572,50.0,0,90,5.0,0.0
4573,66.0,0,90,3.0,0.0
4574,69.0,24,90,4.0,0.0
4575,38.0,2,90,7.0,0.0
4576,72.0,24,20,2.0,0.0
4577,69.0,0,20,3.0,0.0
4578,66.0,30,150,4.0,0.0
4579,70.0,0,20,3.0,0.0
4580,74.0,112,20,2.0,0.0
4581,72.0,96,150,3.0,0.0
4582,75.0,0,150,2.0,0.0
4583,54.0,0,90,5.0,0.0
4584,42.0,0,90,7.0,0.0
4585,54.0,0,90,5.0,0.0
4586,42.0,96,90,7.0,0.0
4587,74.0,0,90,2.0,0.0
4588,70.0,0,90,3.0,0.0
4589,62.0,48,90,1.0,0.0
4590,42.0,0,90,7.0,0.0
4591,54.0,0,90,5.0,0.0
4592,62.0,0,90,4.0,0.0
4593,50.0,0,90,1.0,0.0
4594,72.0,0,90,2.0,0.0
4595,69.0,0,90,3.0,0.0
4596,62.0,0,90,4.0,0.0
4597,31.0,66,90,7.0,0.0
4598,67.0,0,60,3.0,0.0
4599,43.0,0,90,5.0,0.0
4600,50.0,0,150,1.0,0.0
4601,70.0,48,60,2.0,0.0
4602,62.0,30,150,1.0,0.0
4603,72.0,0,60,2.0,0.0
4604,69.0,0,60,3.0,0.0
4605,43.0,2,90,7.0,0.0
4606,70.0,96,90,0.0,0.0
4607,79.0,0,180,0.0,0.0
4608,74.0,0,90,2.0,0.0
4609,70.0,0,90,3.0,0.0
4610,67.0,0,180,4.0,0.0
4611,55.0,0,90,5.0,0.0
4612,46.0,0,90,7.0,0.0
4613,58.0,94,90,5.0,0.0
4614,74.0,0,90,0.0,0.0
4615,78.0,0,90,0.0,0.0
4616,45.0,0,90,7.0,0.0
4617,66.0,0,90,4.0,0.0
4618,72.0,0,90,0.0,0.0
4619,57.0,162,90,5.0,0.0
4620,70.0,0,150,0.0,0.0
4621,67.0,32,150,4.0,0.0
4622,79.0,0,150,0.0,0.0
4623,50.0,0,720,1.0,0.0
4624,62.0,0,720,1.0,0.0
4625,67.0,46,330,2.0,0.0
4626,46.0,0,90,7.0,0.0
4627,58.0,96,90,5.0,0.0
4628,62.0,0,90,3.0,0.0
4629,60.0,0,90,3.0,0.0
4630,45.0,0,90,7.0,0.0
4631,57.0,48,90,5.0,0.0
4632,58.0,0,90,3.0,0.0
4633,43.0,0,90,7.0,0.0
4634,67.0,160,90,4.0,0.0
4635,55.0,2,90,5.0,0.0
4636,74.0,46,330,2.0,0.0
4637,66.0,32,150,4.0,0.0
4638,69.0,0,90,3.0,0.0
4639,54.0,0,90,5.0,0.0
4640,42.0,96,90,7.0,0.0
4641,67.0,48,90,3.0,0.0
4642,39.0,0,90,7.0,0.0
4643,51.0,0,90,5.0,0.0
4644,66.0,0,90,3.0,0.0
4645,50.0,0,90,5.0,0.0
4646,38.0,2,90,7.0,0.0
4647,69.0,24,90,4.0,0.0
4648,66.0,30,150,4.0,0.0
4649,69.0,24,20,3.0,0.0
4650,72.0,0,20,2.0,0.0
4651,74.0,112,20,2.0,0.0
4652,70.0,0,20,3.0,0.0
4653,75.0,96,150,2.0,0.0
4654,72.0,0,150,3.0,0.0
4655,42.0,0,90,7.0,0.0
4656,54.0,0,90,5.0,0.0
4657,42.0,0,90,7.0,0.0
4658,74.0,0,90,2.0,0.0
4659,70.0,96,90,3.0,0.0
4660,54.0,0,90,5.0,0.0
4661,42.0,0,90,7.0,0.0
4662,69.0,0,90,3.0,0.0
4663,62.0,0,90,1.0,0.0
4664,50.0,0,90,1.0,0.0
4665,62.0,0,180,4.0,0.0
4666,54.0,48,90,5.0,0.0
4667,72.0,0,90,2.0,0.0
4668,50.0,0,150,1.0,0.0
4669,70.0,48,60,2.0,0.0
4670,43.0,0,90,5.0,0.0
4671,67.0,0,90,3.0,0.0
4672,31.0,0,90,7.0,0.0
4673,62.0,30,150,1.0,0.0
4674,69.0,48,60,2.0,0.0
4675,58.0,16,60,4.0,0.0
4676,62.0,0,60,3.0,0.0
4677,55.0,0,90,5.0,0.0
4678,70.0,0,60,0.0,0.0
4679,43.0,0,90,7.0,0.0
4680,67.0,0,90,2.0,0.0
4681,74.0,2,60,0.0,0.0
4682,72.0,0,60,0.0,0.0
4683,60.0,94,60,3.0,0.0
4684,57.0,0,60,4.0,0.0
4685,69.0,2,60,0.0,0.0
4686,43.0,0,90,5.0,0.0
4687,31.0,0,90,7.0,0.0
4688,70.0,30,150,0.0,0.0
4689,58.0,0,90,3.0,0.0
4690,67.0,0,150,0.0,0.0
4691,55.0,66,90,4.0,0.0
4692,67.0,0,90,2.0,0.0
4693,55.0,0,90,5.0,0.0
4694,67.0,144,90,4.0,0.0
4695,67.0,0,90,3.0,0.0
4696,43.0,0,90,7.0,0.0
4697,53.0,0,150,5.0,0.0
4698,65.0,0,150,3.0,0.0
4699,65.0,0,150,2.0,0.0
4700,65.0,0,150,4.0,0.0
4701,41.0,48,150,7.0,0.0
4702,63.0,0,60,4.0,0.0
4703,63.0,0,60,2.0,0.0
4704,39.0,0,60,7.0,0.0
4705,63.0,48,60,3.0,0.0
4706,51.0,0,60,5.0,0.0
4707,62.0,48,60,4.0,0.0
4708,38.0,0,60,7.0,0.0
4709,62.0,0,60,2.0,0.0
4710,62.0,0,60,3.0,0.0
4711,50.0,0,60,5.0,0.0
4712,36.0,48,60,7.0,0.0
4713,48.0,0,60,5.0,0.0
4714,60.0,0,60,4.0,0.0
4715,60.0,0,60,3.0,0.0
4716,60.0,0,60,2.0,0.0
4717,34.0,48,60,7.0,0.0
4718,58.0,0,60,4.0,0.0
4719,58.0,0,60,2.0,0.0
4720,58.0,0,60,3.0,0.0
4721,46.0,0,60,5.0,0.0
4722,57.0,0,60,3.0,0.0
4723,45.0,0,60,5.0,0.0
4724,57.0,0,60,4.0,0.0
4725,57.0,0,60,2.0,0.0
4726,33.0,48,60,7.0,0.0
4727,34.0,0,60,7.0,0.0
4728,58.0,48,60,3.0,0.0
4729,46.0,0,60,5.0,0.0
4730,58.0,0,60,4.0,0.0
4731,58.0,0,60,2.0,0.0
4732,57.0,0,60,4.0,0.0
4733,33.0,0,60,7.0,0.0
4734,57.0,0,60,2.0,0.0
4735,45.0,96,60,5.0,0.0
4736,57.0,0,60,3.0,0.0
4737,43.0,0,90,5.0,0.0
4738,31.0,0,90,7.0,0.0
4739,55.0,192,90,4.0,0.0
4740,55.0,0,90,2.0,0.0
4741,55.0,0,90,3.0,0.0
4742,67.0,96,90,2.0,0.0
4743,75.0,46,420,0.0,0.0
4744,75.0,96,90,2.0,0.0
4745,31.0,0,90,7.0,0.0
4746,75.0,0,90,2.0,0.0
4747,58.0,0,90,4.0,0.0
4748,43.0,96,90,5.0,0.0
4749,75.0,0,90,2.0,0.0
4750,55.0,0,90,5.0,0.0
4751,70.0,0,90,4.0,0.0
4752,43.0,96,90,7.0,0.0
4753,75.0,50,90,3.0,0.0
4754,43.0,0,90,7.0,0.0
4755,70.0,0,90,4.0,0.0
4756,75.0,0,90,2.0,0.0
4757,55.0,0,90,5.0,0.0
4758,81.0,0,90,3.0,0.0
4759,54.0,0,90,5.0,0.0
4760,75.0,0,60,2.0,0.0
4761,42.0,96,90,7.0,0.0
4762,81.0,46,720,0.0,0.0
4763,73.0,0,60,0.0,0.0
4764,73.0,0,60,2.0,0.0
4765,81.0,0,90,3.0,0.0
4766,74.0,0,90,2.0,0.0
4767,54.0,0,90,5.0,0.0
4768,69.0,0,90,4.0,0.0
4769,74.0,46,720,0.0,0.0
4770,42.0,96,90,7.0,0.0
4771,42.0,0,90,7.0,0.0
4772,81.0,96,90,3.0,0.0
4773,54.0,0,90,5.0,0.0
4774,74.0,0,90,4.0,0.0
4775,42.0,0,90,7.0,0.0
4776,69.0,0,90,2.0,0.0
4777,81.0,0,90,3.0,0.0
4778,54.0,0,90,5.0,0.0
4779,62.0,50,90,4.0,0.0
4780,81.0,46,60,3.0,0.0
4781,41.0,96,90,7.0,0.0
4782,53.0,0,90,5.0,0.0
4783,74.0,0,90,2.0,0.0
4784,77.0,0,60,3.0,0.0
4785,41.0,0,90,7.0,0.0
4786,69.0,96,90,4.0,0.0
4787,53.0,0,90,5.0,0.0
4788,74.0,0,90,3.0,0.0
4789,74.0,0,90,2.0,0.0
4790,74.0,0,90,2.0,0.0
4791,53.0,0,90,5.0,0.0
4792,69.0,0,90,4.0,0.0
4793,41.0,50,90,7.0,0.0
4794,69.0,50,90,4.0,0.0
4795,53.0,0,90,5.0,0.0
4796,74.0,0,90,3.0,0.0
4797,74.0,0,90,2.0,0.0
4798,41.0,0,90,7.0,0.0
4799,74.0,0,60,2.0,0.0
4800,79.0,0,90,3.0,0.0
4801,52.0,96,90,5.0,0.0
4802,40.0,0,90,7.0,0.0
4803,79.0,46,720,0.0,0.0
4804,71.0,0,60,2.0,0.0
4805,71.0,0,60,0.0,0.0
4806,40.0,0,90,7.0,0.0
4807,72.0,96,90,2.0,0.0
4808,79.0,0,90,3.0,0.0
4809,67.0,0,90,4.0,0.0
4810,52.0,0,90,5.0,0.0
4811,72.0,30,270,0.0,0.0
4812,52.0,66,90,5.0,0.0
4813,72.0,0,90,4.0,0.0
4814,79.0,0,90,3.0,0.0
4815,40.0,0,90,7.0,0.0
4816,60.0,0,90,4.0,0.0
4817,40.0,50,90,7.0,0.0
4818,52.0,0,90,5.0,0.0
4819,79.0,0,90,3.0,0.0
4820,72.0,0,90,2.0,0.0
4821,63.0,30,150,4.0,0.0
4822,73.0,0,330,0.0,0.0
4823,39.0,66,90,7.0,0.0
4824,51.0,0,90,5.0,0.0
4825,79.0,0,90,2.0,0.0
4826,79.0,46,60,3.0,0.0
4827,75.0,0,60,3.0,0.0
4828,73.0,0,90,3.0,0.0
4829,39.0,0,90,7.0,0.0
4830,51.0,0,90,5.0,0.0
4831,79.0,96,90,2.0,0.0
4832,39.0,0,90,7.0,0.0
4833,51.0,0,90,5.0,0.0
4834,79.0,0,90,2.0,0.0
4835,73.0,50,90,3.0,0.0
4836,79.0,0,90,2.0,0.0
4837,67.0,94,90,4.0,0.0
4838,73.0,0,90,3.0,0.0
4839,39.0,2,90,7.0,0.0
4840,51.0,0,90,5.0,0.0
4841,74.0,0,150,0.0,0.0
4842,38.0,0,90,7.0,0.0
4843,50.0,0,90,5.0,0.0
4844,69.0,0,150,4.0,0.0
4845,78.0,30,150,0.0,0.0
4846,78.0,0,90,2.0,0.0
4847,74.0,66,90,3.0,0.0
4848,62.0,0,90,2.0,0.0
4849,26.0,192,90,7.0,0.0
4850,38.0,0,90,5.0,0.0
4851,62.0,0,90,3.0,0.0
4852,65.0,96,90,2.0,0.0
4853,70.0,96,90,2.0,0.0
4854,65.0,0,90,3.0,0.0
4855,70.0,96,90,2.0,0.0
4856,70.0,0,90,3.0,0.0
4857,70.0,96,90,2.0,0.0
4858,34.0,96,90,7.0,0.0
4859,70.0,0,90,2.0,0.0
4860,70.0,0,90,3.0,0.0
4861,46.0,0,90,5.0,0.0
4862,72.0,96,90,2.0,0.0
4863,51.0,0,90,5.0,0.0
4864,39.0,0,90,7.0,0.0
4865,70.0,0,90,3.0,0.0
4866,51.0,0,90,5.0,0.0
4867,72.0,0,90,2.0,0.0
4868,55.0,0,90,4.0,0.0
4869,70.0,96,90,3.0,0.0
4870,39.0,0,90,7.0,0.0
4871,70.0,0,90,3.0,0.0
4872,72.0,0,90,2.0,0.0
4873,67.0,0,90,4.0,0.0
4874,40.0,0,90,7.0,0.0
4875,52.0,84,90,5.0,0.0
4876,67.0,0,90,4.0,0.0
4877,52.0,0,90,5.0,0.0
4878,70.0,0,90,3.0,0.0
4879,40.0,2,90,7.0,0.0
4880,72.0,12,90,2.0,0.0
4881,75.0,46,15,2.0,0.0
4882,70.0,0,90,3.0,0.0
4883,65.0,0,90,4.0,0.0
4884,73.0,48,60,2.0,0.0
4885,41.0,96,90,7.0,0.0
4886,53.0,0,90,5.0,0.0
4887,72.0,0,60,2.0,0.0
4888,65.0,0,90,4.0,0.0
4889,70.0,0,90,3.0,0.0
4890,73.0,0,90,2.0,0.0
4891,41.0,0,90,7.0,0.0
4892,53.0,96,90,5.0,0.0
4893,68.0,0,90,4.0,0.0
4894,71.0,66,90,3.0,0.0
4895,74.0,0,150,0.0,0.0
4896,53.0,0,90,5.0,0.0
4897,41.0,0,90,7.0,0.0
4898,71.0,18,150,0.0,0.0
4899,74.0,0,90,2.0,0.0
4900,41.0,0,90,7.0,0.0
4901,71.0,0,90,3.0,0.0
4902,74.0,12,90,2.0,0.0
4903,68.0,2,90,4.0,0.0
4904,53.0,0,90,5.0,0.0
4905,77.0,46,15,2.0,0.0
4906,70.0,16,330,0.0,0.0
4907,75.0,30,150,0.0,0.0
4908,54.0,0,90,5.0,0.0
4909,42.0,66,90,7.0,0.0
4910,70.0,0,90,3.0,0.0
4911,75.0,48,60,2.0,0.0
4912,63.0,0,90,4.0,0.0
4913,74.0,0,60,2.0,0.0
4914,63.0,96,90,4.0,0.0
4915,75.0,0,90,2.0,0.0
4916,70.0,0,90,3.0,0.0
4917,54.0,0,90,5.0,0.0
4918,42.0,0,90,7.0,0.0
4919,76.0,0,90,2.0,0.0
4920,76.0,30,150,0.0,0.0
4921,43.0,0,90,7.0,0.0
4922,55.0,0,90,5.0,0.0
4923,70.0,50,90,3.0,0.0
4924,58.0,0,90,4.0,0.0
4925,43.0,0,90,7.0,0.0
4926,76.0,0,90,2.0,0.0
4927,70.0,96,90,3.0,0.0
4928,55.0,0,90,5.0,0.0
4929,58.0,0,90,4.0,0.0
4930,41.0,0,150,7.0,0.0
4931,60.0,0,150,4.0,0.0
4932,69.0,0,150,3.0,0.0
4933,69.0,30,150,0.0,0.0
4934,77.0,48,90,2.0,0.0
4935,53.0,18,150,5.0,0.0
4936,77.0,0,150,0.0,0.0
4937,65.0,0,90,2.0,0.0
4938,67.0,48,60,3.0,0.0
4939,51.0,0,60,5.0,0.0
4940,39.0,0,60,7.0,0.0
4941,63.0,0,60,4.0,0.0
4942,62.0,0,60,4.0,0.0
4943,38.0,0,60,7.0,0.0
4944,65.0,0,60,3.0,0.0
4945,50.0,48,60,5.0,0.0
4946,63.0,48,60,3.0,0.0
4947,60.0,0,60,4.0,0.0
4948,36.0,0,60,7.0,0.0
4949,48.0,0,60,5.0,0.0
4950,46.0,48,60,5.0,0.0
4951,62.0,0,60,3.0,0.0
4952,58.0,0,60,4.0,0.0
4953,34.0,0,60,7.0,0.0
4954,57.0,0,60,4.0,0.0
4955,45.0,0,60,5.0,0.0
4956,33.0,0,60,7.0,0.0
4957,60.0,96,60,3.0,0.0
4958,58.0,0,150,1.0,0.0
4959,50.0,32,150,1.0,0.0
4960,34.0,0,90,7.0,0.0
4961,70.0,46,330,2.0,0.0
4962,58.0,0,150,4.0,0.0
4963,46.0,0,90,5.0,0.0
4964,62.0,66,90,3.0,0.0
4965,50.0,0,90,7.0,0.0
4966,62.0,96,90,5.0,0.0
4967,65.0,0,90,3.0,0.0
4968,48.0,48,90,7.0,0.0
4969,60.0,0,90,5.0,0.0
4970,63.0,0,90,3.0,0.0
4971,46.0,2,90,7.0,0.0
4972,65.0,160,90,4.0,0.0
4973,58.0,0,90,1.0,0.0
4974,62.0,0,90,1.0,0.0
4975,62.0,0,90,3.0,0.0
4976,58.0,0,90,5.0,0.0
4977,60.0,0,150,1.0,0.0
4978,77.0,46,330,2.0,0.0
4979,69.0,32,150,4.0,0.0
4980,53.0,0,150,1.0,0.0
4981,60.0,0,90,3.0,0.0
4982,45.0,96,90,7.0,0.0
4983,57.0,0,90,5.0,0.0
4984,58.0,0,90,3.0,0.0
4985,55.0,0,90,5.0,0.0
4986,43.0,48,90,7.0,0.0
4987,53.0,2,90,5.0,0.0
4988,57.0,0,90,3.0,0.0
4989,60.0,24,90,4.0,0.0
4990,41.0,0,90,7.0,0.0
4991,72.0,24,20,3.0,0.0
4992,69.0,30,150,4.0,0.0
4993,75.0,0,20,2.0,0.0
4994,74.0,0,20,3.0,0.0
4995,77.0,112,20,2.0,0.0
4996,79.0,0,150,2.0,0.0
4997,75.0,96,150,3.0,0.0
4998,57.0,0,90,5.0,0.0
4999,45.0,0,90,7.0,0.0
5000,45.0,0,90,7.0,0.0
5001,74.0,96,90,3.0,0.0
5002,57.0,0,90,5.0,0.0
5003,77.0,0,90,2.0,0.0
5004,45.0,0,90,7.0,0.0
5005,60.0,48,90,1.0,0.0
5006,63.0,0,90,1.0,0.0
5007,75.0,0,90,2.0,0.0
5008,57.0,0,90,5.0,0.0
5009,72.0,0,90,3.0,0.0
5010,65.0,0,90,4.0,0.0
5011,70.0,0,60,3.0,0.0
5012,46.0,0,90,7.0,0.0
5013,74.0,48,60,2.0,0.0
5014,62.0,0,60,1.0,0.0
5015,58.0,0,90,5.0,0.0
5016,58.0,0,60,1.0,0.0
5017,65.0,0,90,4.0,0.0
5018,63.0,0,60,1.0,0.0
5019,72.0,0,60,3.0,0.0
5020,75.0,0,60,2.0,0.0
5021,60.0,96,60,1.0,0.0
5022,74.0,0,90,3.0,0.0
5023,77.0,0,90,2.0,0.0
5024,70.0,94,180,4.0,0.0
5025,58.0,0,90,5.0,0.0
5026,65.0,0,90,1.0,0.0
5027,74.0,96,90,0.0,0.0
5028,46.0,2,90,7.0,0.0
5029,82.0,0,180,0.0,0.0
5030,62.0,0,90,1.0,0.0
5031,50.0,0,90,7.0,0.0
5032,77.0,0,90,0.0,0.0
5033,62.0,0,90,5.0,0.0
5034,81.0,0,90,0.0,0.0
5035,69.0,0,90,4.0,0.0
5036,75.0,0,90,0.0,0.0
5037,48.0,96,90,7.0,0.0
5038,60.0,0,90,5.0,0.0
5039,58.0,0,150,1.0,0.0
5040,82.0,30,150,0.0,0.0
5041,74.0,0,150,0.0,0.0
5042,50.0,0,150,1.0,0.0
5043,70.0,46,330,2.0,0.0
5044,70.0,66,90,4.0,0.0
5045,50.0,96,90,7.0,0.0
5046,58.0,2,90,4.0,0.0
5047,65.0,0,90,3.0,0.0
5048,62.0,0,90,5.0,0.0
5049,48.0,0,90,7.0,0.0
5050,63.0,0,90,3.0,0.0
5051,60.0,48,90,5.0,0.0
5052,46.0,0,90,7.0,0.0
5053,62.0,0,90,1.0,0.0
5054,62.0,2,90,3.0,0.0
5055,58.0,0,90,5.0,0.0
5056,65.0,160,90,4.0,0.0
5057,58.0,0,90,1.0,0.0
5058,77.0,46,330,2.0,0.0
5059,69.0,0,150,4.0,0.0
5060,60.0,0,150,1.0,0.0
5061,53.0,32,150,1.0,0.0
5062,45.0,96,90,7.0,0.0
5063,57.0,0,90,5.0,0.0
5064,60.0,0,90,3.0,0.0
5065,55.0,0,90,5.0,0.0
5066,58.0,48,90,3.0,0.0
5067,43.0,0,90,7.0,0.0
5068,57.0,0,90,3.0,0.0
5069,41.0,0,90,7.0,0.0
5070,53.0,2,90,5.0,0.0
5071,60.0,24,90,4.0,0.0
5072,69.0,30,150,4.0,0.0
5073,72.0,24,20,3.0,0.0
5074,75.0,0,20,2.0,0.0
5075,74.0,112,20,3.0,0.0
5076,77.0,0,20,2.0,0.0
5077,79.0,0,150,2.0,0.0
5078,75.0,0,150,3.0,0.0
5079,45.0,0,90,7.0,0.0
5080,57.0,96,90,5.0,0.0
5081,77.0,0,90,2.0,0.0
5082,74.0,0,90,3.0,0.0
5083,57.0,96,90,5.0,0.0
5084,45.0,0,90,7.0,0.0
5085,45.0,0,90,7.0,0.0
5086,65.0,0,90,4.0,0.0
5087,60.0,0,90,1.0,0.0
5088,75.0,0,90,2.0,0.0
5089,72.0,0,90,3.0,0.0
5090,63.0,0,90,1.0,0.0
5091,57.0,48,90,5.0,0.0
5092,58.0,0,90,5.0,0.0
5093,62.0,0,90,1.0,0.0
5094,74.0,48,60,2.0,0.0
5095,70.0,0,90,3.0,0.0
5096,46.0,0,90,7.0,0.0
5097,65.0,48,90,4.0,0.0
5098,58.0,0,90,1.0,0.0
5099,72.0,0,60,2.0,0.0
5100,70.0,0,90,2.0,0.0
5101,58.0,0,90,1.0,0.0
5102,34.0,0,90,7.0,0.0
5103,74.0,0,60,0.0,0.0
5104,65.0,46,60,3.0,0.0
5105,46.0,0,90,5.0,0.0
5106,50.0,2,90,1.0,0.0
5107,62.0,0,60,4.0,0.0
5108,65.0,2,60,0.0,0.0
5109,63.0,0,60,0.0,0.0
5110,72.0,0,60,0.0,0.0
5111,60.0,0,60,4.0,0.0
5112,63.0,94,60,3.0,0.0
5113,46.0,0,90,5.0,0.0
5114,58.0,0,90,4.0,0.0
5115,34.0,0,90,7.0,0.0
5116,70.0,0,150,0.0,0.0
5117,62.0,30,150,0.0,0.0
5118,50.0,0,150,1.0,0.0
5119,62.0,66,90,3.0,0.0
5120,58.0,0,150,1.0,0.0
5121,70.0,144,90,4.0,0.0
5122,70.0,0,90,3.0,0.0
5123,46.0,0,90,7.0,0.0
5124,70.0,0,90,2.0,0.0
5125,58.0,0,90,5.0,0.0
5126,57.0,0,150,5.0,0.0
5127,69.0,48,150,2.0,0.0
5128,69.0,0,150,3.0,0.0
5129,45.0,0,150,7.0,0.0
5130,69.0,0,150,4.0,0.0
5131,67.0,0,60,2.0,0.0
5132,55.0,0,60,5.0,0.0
5133,43.0,48,60,7.0,0.0
5134,67.0,0,60,4.0,0.0
5135,67.0,0,60,3.0,0.0
5136,65.0,0,60,2.0,0.0
5137,65.0,0,60,4.0,0.0
5138,41.0,0,60,7.0,0.0
5139,53.0,48,60,5.0,0.0
5140,65.0,0,60,3.0,0.0
5141,63.0,0,60,3.0,0.0
5142,63.0,0,60,4.0,0.0
5143,63.0,48,60,2.0,0.0
5144,51.0,0,60,5.0,0.0
5145,39.0,0,60,7.0,0.0
5146,50.0,0,60,5.0,0.0
5147,38.0,48,60,7.0,0.0
5148,62.0,0,60,4.0,0.0
5149,62.0,0,60,3.0,0.0
5150,62.0,0,60,2.0,0.0
5151,48.0,0,60,5.0,0.0
5152,60.0,0,60,2.0,0.0
5153,60.0,0,60,4.0,0.0
5154,36.0,0,60,7.0,0.0
5155,60.0,48,60,3.0,0.0
5156,62.0,48,60,2.0,0.0
5157,62.0,0,60,3.0,0.0
5158,38.0,0,60,7.0,0.0
5159,62.0,0,60,4.0,0.0
5160,50.0,0,60,5.0,0.0
5161,60.0,0,60,4.0,0.0
5162,48.0,0,60,5.0,0.0
5163,60.0,0,60,3.0,0.0
5164,36.0,0,60,7.0,0.0
5165,60.0,96,60,2.0,0.0
5166,58.0,0,90,3.0,0.0
5167,58.0,0,90,4.0,0.0
5168,46.0,0,90,5.0,0.0
5169,58.0,0,90,2.0,0.0
5170,34.0,192,90,7.0,0.0
5171,70.0,96,90,2.0,0.0
5172,53.0,0,1110,1.0,0.0
5173,62.0,0,1110,1.0,0.0
5174,74.0,70,90,2.0,0.0
5175,65.0,26,60,3.0,0.0
5176,74.0,34,90,2.0,0.0
5177,74.0,50,90,2.0,0.0
5178,65.0,62,30,3.0,0.0
5179,65.0,2,180,3.0,0.0
5180,77.0,46,60,2.0,0.0
5181,44.0,0,90,7.0,0.0
5182,65.0,0,90,0.0,0.0
5183,56.0,96,90,5.0,0.0
5184,71.0,0,90,0.0,0.0
5185,74.0,0,60,2.0,0.0
5186,43.0,0,90,7.0,0.0
5187,74.0,0,90,0.0,0.0
5188,65.0,0,90,0.0,0.0
5189,72.0,94,90,2.0,0.0
5190,55.0,0,90,5.0,0.0
5191,62.0,0,90,4.0,0.0
5192,43.0,0,90,7.0,0.0
5193,74.0,0,90,0.0,0.0
5194,71.0,66,90,2.0,0.0
5195,65.0,0,150,0.0,0.0
5196,55.0,0,90,5.0,0.0
5197,65.0,30,150,3.0,0.0
5198,43.0,0,90,7.0,0.0
5199,55.0,0,90,5.0,0.0
5200,74.0,0,90,0.0,0.0
5201,62.0,48,90,4.0,0.0
5202,59.0,0,60,5.0,0.0
5203,65.0,0,90,0.0,0.0
5204,62.0,0,90,4.0,0.0
5205,47.0,46,60,7.0,0.0
5206,71.0,0,90,2.0,0.0
5207,74.0,2,60,0.0,0.0
5208,65.0,0,180,3.0,0.0
5209,55.0,0,60,5.0,0.0
5210,71.0,96,60,0.0,0.0
5211,43.0,0,60,7.0,0.0
5212,47.0,0,90,5.0,0.0
5213,35.0,0,90,7.0,0.0
5214,55.0,0,90,4.0,0.0
5215,67.0,0,150,0.0,0.0
5216,74.0,66,90,2.0,0.0
5217,65.0,30,150,0.0,0.0
5218,74.0,0,90,2.0,0.0
5219,35.0,0,90,7.0,0.0
5220,55.0,0,90,4.0,0.0
5221,47.0,66,90,5.0,0.0
5222,65.0,30,150,3.0,0.0
5223,47.0,0,90,5.0,0.0
5224,74.0,0,90,2.0,0.0
5225,55.0,0,90,4.0,0.0
5226,77.0,30,150,0.0,0.0
5227,74.0,0,150,0.0,0.0
5228,35.0,50,90,7.0,0.0
5229,55.0,96,90,4.0,0.0
5230,47.0,0,90,5.0,0.0
5231,74.0,16,60,2.0,0.0
5232,35.0,0,90,7.0,0.0
5233,65.0,0,60,3.0,0.0
5234,62.0,0,60,3.0,0.0
5235,65.0,0,60,2.0,0.0
5236,48.0,0,90,5.0,0.0
5237,62.0,0,90,3.0,0.0
5238,65.0,0,90,2.0,0.0
5239,77.0,46,90,0.0,0.0
5240,55.0,30,150,4.0,0.0
5241,36.0,2,90,7.0,0.0
5242,74.0,0,90,0.0,0.0
5243,39.0,0,60,7.0,0.0
5244,51.0,18,60,5.0,0.0
5245,72.0,0,90,0.0,0.0
5246,60.0,0,90,3.0,0.0
5247,75.0,96,90,0.0,0.0
5248,63.0,0,90,2.0,0.0
5249,43.0,0,60,7.0,0.0
5250,55.0,0,60,5.0,0.0
5251,48.0,0,90,7.0,0.0
5252,60.0,96,90,5.0,0.0
5253,55.0,144,90,5.0,0.0
5254,67.0,0,90,4.0,0.0
5255,43.0,0,90,7.0,0.0
5256,67.0,0,90,2.0,0.0
5257,67.0,0,90,0.0,0.0
5258,67.0,0,90,3.0,0.0
5259,72.0,0,150,4.0,0.0
5260,48.0,0,150,7.0,0.0
5261,60.0,30,150,5.0,0.0
5262,72.0,0,150,2.0,0.0
5263,72.0,0,150,0.0,0.0
5264,72.0,18,150,3.0,0.0
5265,70.0,0,60,3.0,0.0
5266,70.0,0,60,2.0,0.0
5267,70.0,0,60,0.0,0.0
5268,69.0,48,60,2.0,0.0
5269,69.0,0,60,0.0,0.0
5270,69.0,0,60,3.0,0.0
5271,67.0,0,60,3.0,0.0
5272,67.0,0,60,0.0,0.0
5273,67.0,0,60,2.0,0.0
5274,65.0,48,60,2.0,0.0
5275,65.0,0,60,3.0,0.0
5276,57.0,2,90,4.0,0.0
5277,49.0,94,90,5.0,0.0
5278,65.0,0,60,0.0,0.0
5279,37.0,0,90,7.0,0.0
5280,63.0,0,60,2.0,0.0
5281,63.0,0,60,3.0,0.0
5282,63.0,0,60,0.0,0.0
5283,62.0,0,150,1.0,0.0
5284,50.0,30,150,1.0,0.0
5285,62.0,0,90,3.0,0.0
5286,62.0,66,90,2.0,0.0
5287,38.0,0,90,7.0,0.0
5288,62.0,0,90,0.0,0.0
5289,57.0,0,150,4.0,0.0
5290,50.0,0,90,5.0,0.0
5291,50.0,0,90,7.0,0.0
5292,74.0,0,90,3.0,0.0
5293,74.0,0,90,2.0,0.0
5294,62.0,0,90,5.0,0.0
5295,74.0,0,90,0.0,0.0
5296,50.0,0,720,1.0,0.0
5297,67.0,46,330,2.0,0.0
5298,58.0,32,150,4.0,0.0
5299,62.0,0,720,1.0,0.0
5300,58.0,0,90,5.0,0.0
5301,62.0,96,90,3.0,0.0
5302,46.0,0,90,7.0,0.0
5303,57.0,0,90,5.0,0.0
5304,45.0,0,90,7.0,0.0
5305,60.0,48,90,3.0,0.0
5306,62.0,160,90,4.0,0.0
5307,58.0,2,90,3.0,0.0
5308,55.0,0,90,5.0,0.0
5309,43.0,0,90,7.0,0.0
5310,66.0,32,150,4.0,0.0
5311,74.0,46,330,2.0,0.0
5312,69.0,0,90,3.0,0.0
5313,42.0,96,90,7.0,0.0
5314,54.0,0,90,5.0,0.0
5315,67.0,0,90,3.0,0.0
5316,39.0,48,90,7.0,0.0
5317,51.0,0,90,5.0,0.0
5318,66.0,2,90,3.0,0.0
5319,50.0,0,90,5.0,0.0
5320,57.0,24,90,4.0,0.0
5321,38.0,0,90,7.0,0.0
5322,69.0,24,20,3.0,0.0
5323,66.0,30,150,4.0,0.0
5324,72.0,0,20,2.0,0.0
5325,74.0,0,20,2.0,0.0
5326,70.0,112,20,3.0,0.0
5327,72.0,0,150,3.0,0.0
5328,75.0,0,150,2.0,0.0
5329,54.0,96,90,5.0,0.0
5330,42.0,0,90,7.0,0.0
5331,74.0,0,90,2.0,0.0
5332,54.0,96,90,5.0,0.0
5333,42.0,0,90,7.0,0.0
5334,70.0,0,90,3.0,0.0
5335,72.0,0,90,2.0,0.0
5336,62.0,0,90,4.0,0.0
5337,54.0,48,90,5.0,0.0
5338,62.0,0,90,1.0,0.0
5339,69.0,0,90,3.0,0.0
5340,50.0,0,90,1.0,0.0
5341,42.0,0,90,7.0,0.0
5342,62.0,0,90,4.0,0.0
5343,70.0,0,60,2.0,0.0
5344,67.0,48,60,3.0,0.0
5345,31.0,0,90,7.0,0.0
5346,43.0,0,90,5.0,0.0
5347,62.0,30,150,1.0,0.0
5348,50.0,0,150,1.0,0.0
5349,72.0,66,60,2.0,0.0
5350,69.0,0,60,3.0,0.0
5351,70.0,2,90,3.0,0.0
5352,70.0,96,90,0.0,0.0
5353,67.0,0,180,4.0,0.0
5354,55.0,0,90,5.0,0.0
5355,74.0,0,90,2.0,0.0
5356,79.0,0,180,0.0,0.0
5357,43.0,0,90,7.0,0.0
5358,74.0,0,90,0.0,0.0
5359,46.0,0,90,7.0,0.0
5360,58.0,94,90,5.0,0.0
5361,78.0,0,90,0.0,0.0
5362,66.0,0,90,4.0,0.0
5363,45.0,162,90,7.0,0.0
5364,57.0,0,90,5.0,0.0
5365,72.0,0,90,0.0,0.0
5366,62.0,46,720,1.0,0.0
5367,67.0,0,150,4.0,0.0
5368,50.0,0,720,1.0,0.0
5369,70.0,0,150,0.0,0.0
5370,67.0,46,330,2.0,0.0
5371,79.0,32,150,0.0,0.0
5372,62.0,0,90,3.0,0.0
5373,46.0,0,90,7.0,0.0
5374,58.0,96,90,5.0,0.0
5375,45.0,48,90,7.0,0.0
5376,60.0,0,90,3.0,0.0
5377,57.0,0,90,5.0,0.0
5378,43.0,2,90,7.0,0.0
5379,58.0,0,90,3.0,0.0
5380,55.0,0,90,5.0,0.0
5381,62.0,160,90,4.0,0.0
5382,66.0,32,150,4.0,0.0
5383,74.0,0,330,2.0,0.0
5384,54.0,0,90,5.0,0.0
5385,42.0,96,90,7.0,0.0
5386,69.0,0,90,3.0,0.0
5387,67.0,0,90,3.0,0.0
5388,51.0,48,90,5.0,0.0
5389,39.0,0,90,7.0,0.0
5390,50.0,2,90,5.0,0.0
5391,66.0,0,90,3.0,0.0
5392,38.0,0,90,7.0,0.0
5393,57.0,24,90,4.0,0.0
5394,66.0,30,150,4.0,0.0
5395,72.0,0,20,2.0,0.0
5396,69.0,24,20,3.0,0.0
5397,70.0,0,20,3.0,0.0
5398,74.0,112,20,2.0,0.0
5399,75.0,0,150,2.0,0.0
5400,72.0,0,150,3.0,0.0
5401,42.0,96,90,7.0,0.0
5402,54.0,0,90,5.0,0.0
5403,42.0,0,90,7.0,0.0
5404,70.0,0,90,3.0,0.0
5405,54.0,96,90,5.0,0.0
5406,74.0,0,90,2.0,0.0
5407,72.0,0,90,0.0,0.0
5408,62.0,0,90,4.0,0.0
5409,54.0,0,90,5.0,0.0
5410,69.0,0,90,3.0,0.0
5411,72.0,0,90,2.0,0.0
5412,62.0,0,90,1.0,0.0
5413,81.0,96,90,0.0,0.0
5414,42.0,0,90,7.0,0.0
5415,50.0,0,90,1.0,0.0
5416,62.0,0,90,1.0,0.0
5417,43.0,0,90,7.0,0.0
5418,79.0,0,90,0.0,0.0
5419,70.0,0,90,2.0,0.0
5420,50.0,0,90,1.0,0.0
5421,55.0,96,90,5.0,0.0
5422,67.0,0,90,3.0,0.0
5423,70.0,0,90,0.0,0.0
5424,62.0,0,90,4.0,0.0
5425,50.0,0,90,1.0,0.0
5426,69.0,192,90,2.0,0.0
5427,62.0,0,90,4.0,0.0
5428,38.0,0,90,7.0,0.0
5429,78.0,0,90,0.0,0.0
5430,62.0,0,90,1.0,0.0
5431,69.0,0,90,0.0,0.0
5432,66.0,0,90,3.0,0.0
5433,50.0,0,90,5.0,0.0
5434,67.0,96,90,2.0,0.0
5435,75.0,96,90,2.0,0.0
5436,75.0,0,420,0.0,0.0
5437,75.0,0,90,2.0,0.0
5438,31.0,0,90,7.0,0.0
5439,43.0,0,90,5.0,0.0
5440,58.0,96,90,4.0,0.0
5441,55.0,0,90,5.0,0.0
5442,70.0,0,90,4.0,0.0
5443,43.0,96,90,7.0,0.0
5444,75.0,0,90,2.0,0.0
5445,43.0,0,90,7.0,0.0
5446,75.0,0,90,3.0,0.0
5447,70.0,0,90,4.0,0.0
5448,75.0,50,90,2.0,0.0
5449,55.0,0,90,5.0,0.0
5450,75.0,46,60,2.0,0.0
5451,42.0,0,90,7.0,0.0
5452,81.0,0,90,3.0,0.0
5453,54.0,0,90,5.0,0.0
5454,81.0,46,720,0.0,0.0
5455,73.0,0,60,0.0,0.0
5456,73.0,96,60,2.0,0.0
5457,54.0,0,90,5.0,0.0
5458,42.0,96,90,7.0,0.0
5459,81.0,0,90,3.0,0.0
5460,74.0,0,720,0.0,0.0
5461,74.0,0,90,2.0,0.0
5462,69.0,0,90,4.0,0.0
5463,81.0,0,90,3.0,0.0
5464,42.0,96,90,7.0,0.0
5465,54.0,0,90,5.0,0.0
5466,74.0,0,90,4.0,0.0
5467,69.0,0,90,2.0,0.0
5468,62.0,50,90,4.0,0.0
5469,54.0,0,90,5.0,0.0
5470,81.0,0,90,3.0,0.0
5471,42.0,0,90,7.0,0.0
5472,74.0,96,90,2.0,0.0
5473,81.0,46,60,3.0,0.0
5474,77.0,0,60,3.0,0.0
5475,74.0,96,90,2.0,0.0
5476,69.0,0,90,4.0,0.0
5477,74.0,0,90,3.0,0.0
5478,41.0,0,90,5.0,0.0
5479,29.0,0,90,7.0,0.0
5480,69.0,0,90,4.0,0.0
5481,74.0,50,90,2.0,0.0
5482,53.0,0,90,5.0,0.0
5483,41.0,0,90,7.0,0.0
5484,74.0,0,90,3.0,0.0
5485,69.0,50,90,4.0,0.0
5486,41.0,0,90,7.0,0.0
5487,53.0,0,90,5.0,0.0
5488,74.0,0,90,2.0,0.0
5489,74.0,46,60,2.0,0.0
5490,79.0,0,90,3.0,0.0
5491,79.0,46,720,0.0,0.0
5492,40.0,0,90,7.0,0.0
5493,52.0,0,90,5.0,0.0
5494,71.0,0,60,2.0,0.0
5495,71.0,96,60,0.0,0.0
5496,72.0,30,270,0.0,0.0
5497,72.0,0,90,2.0,0.0
5498,79.0,0,90,3.0,0.0
5499,67.0,0,90,4.0,0.0
5500,40.0,96,90,7.0,0.0
5501,52.0,0,90,5.0,0.0
5502,72.0,0,90,4.0,0.0
5503,52.0,66,90,5.0,0.0
5504,79.0,0,90,3.0,0.0
5505,40.0,0,90,7.0,0.0
5506,40.0,0,90,7.0,0.0
5507,72.0,0,90,2.0,0.0
5508,60.0,50,90,4.0,0.0
5509,79.0,0,90,3.0,0.0
5510,52.0,0,90,5.0,0.0
5511,73.0,0,330,0.0,0.0
5512,79.0,46,60,3.0,0.0
5513,63.0,30,150,4.0,0.0
5514,79.0,66,90,2.0,0.0
5515,75.0,0,60,3.0,0.0
5516,73.0,0,90,3.0,0.0
5517,51.0,0,90,5.0,0.0
5518,39.0,0,90,7.0,0.0
5519,79.0,96,90,2.0,0.0
5520,51.0,50,90,5.0,0.0
5521,39.0,0,90,7.0,0.0
5522,73.0,0,90,3.0,0.0
5523,79.0,0,90,2.0,0.0
5524,67.0,48,90,4.0,0.0
5525,73.0,0,90,3.0,0.0
5526,79.0,2,90,2.0,0.0
5527,39.0,0,90,7.0,0.0
5528,51.0,0,90,5.0,0.0
5529,74.0,2,90,0.0,0.0
5530,69.0,30,150,4.0,0.0
5531,62.0,0,150,1.0,0.0
5532,50.0,0,150,5.0,0.0
5533,79.0,0,60,0.0,0.0
5534,74.0,0,150,3.0,0.0
5535,50.0,0,150,1.0,0.0
5536,38.0,0,150,7.0,0.0
5537,79.0,46,60,2.0,0.0
5538,78.0,46,60,2.0,0.0
5539,78.0,0,60,0.0,0.0
5540,81.0,18,60,2.0,0.0
5541,75.0,0,60,2.0,0.0
5542,72.0,0,60,3.0,0.0
5543,72.0,50,60,0.0,0.0
5544,75.0,0,60,0.0,0.0
5545,75.0,46,60,0.0,0.0
5546,72.0,0,60,0.0,0.0
5547,54.0,0,150,5.0,0.0
5548,42.0,30,150,7.0,0.0
5549,72.0,0,60,3.0,0.0
5550,75.0,0,60,2.0,0.0
5551,70.0,0,60,0.0,0.0
5552,74.0,0,60,0.0,0.0
5553,74.0,0,60,2.0,0.0
5554,70.0,50,60,3.0,0.0
5555,62.0,0,90,4.0,0.0
5556,74.0,16,60,0.0,0.0
5557,74.0,0,60,2.0,0.0
5558,62.0,0,90,1.0,0.0
5559,50.0,0,90,1.0,0.0
5560,70.0,0,60,0.0,0.0
5561,70.0,0,60,3.0,0.0
5562,69.0,0,60,3.0,0.0
5563,72.0,50,60,2.0,0.0
5564,72.0,0,60,0.0,0.0
5565,69.0,0,60,0.0,0.0
5566,43.0,0,150,7.0,0.0
5567,55.0,0,150,5.0,0.0
5568,50.0,30,150,1.0,0.0
5569,72.0,0,60,2.0,0.0
5570,69.0,46,60,3.0,0.0
5571,72.0,0,60,0.0,0.0
5572,62.0,0,150,1.0,0.0
5573,62.0,46,90,4.0,0.0
5574,69.0,0,60,0.0,0.0
5575,67.0,0,60,0.0,0.0
5576,67.0,0,60,3.0,0.0
5577,70.0,2,60,0.0,0.0
5578,70.0,0,60,2.0,0.0
5579,69.0,18,60,2.0,0.0
5580,63.0,0,90,4.0,0.0
5581,58.0,0,60,3.0,0.0
5582,67.0,96,60,2.0,0.0
5583,48.0,0,90,5.0,0.0
5584,75.0,0,90,2.0,0.0
5585,60.0,96,90,3.0,0.0
5586,36.0,0,90,7.0,0.0
5587,60.0,0,90,3.0,0.0
5588,50.0,0,90,5.0,0.0
5589,38.0,0,90,7.0,0.0
5590,50.0,0,90,1.0,0.0
5591,62.0,96,90,1.0,0.0
5592,57.0,0,90,4.0,0.0
5593,66.0,0,90,2.0,0.0
5594,66.0,0,90,2.0,0.0
5595,43.0,0,150,5.0,0.0
5596,31.0,0,150,7.0,0.0
5597,50.0,30,150,1.0,0.0
5598,55.0,2,90,4.0,0.0
5599,60.0,64,90,3.0,0.0
5600,62.0,0,150,1.0,0.0
5601,67.0,66,90,2.0,0.0
5602,67.0,80,150,4.0,0.0
5603,58.0,0,90,3.0,0.0
5604,36.0,30,150,7.0,0.0
5605,75.0,0,180,0.0,0.0
5606,72.0,48,180,0.0,0.0
5607,48.0,0,150,5.0,0.0
5608,67.0,0,180,4.0,0.0
5609,75.0,16,60,2.0,0.0
5610,72.0,0,90,3.0,0.0
5611,72.0,2,60,2.0,0.0
5612,74.0,0,150,0.0,0.0
5613,55.0,0,150,5.0,0.0
5614,70.0,0,150,0.0,0.0
5615,43.0,30,150,7.0,0.0
5616,70.0,0,90,3.0,0.0
5617,74.0,46,60,2.0,0.0
5618,67.0,50,60,2.0,0.0
5619,70.0,50,90,3.0,0.0
5620,79.0,16,60,2.0,0.0
5621,67.0,30,150,4.0,0.0
5622,74.0,0,60,2.0,0.0
5623,75.0,16,60,2.0,0.0
5624,72.0,0,150,0.0,0.0
5625,48.0,0,150,5.0,0.0
5626,36.0,0,150,7.0,0.0
5627,72.0,0,90,3.0,0.0
5628,75.0,30,150,0.0,0.0
5629,67.0,50,60,2.0,0.0
5630,67.0,66,180,4.0,0.0
5631,72.0,96,90,3.0,0.0
5632,79.0,16,60,2.0,0.0
5633,75.0,0,60,2.0,0.0
5634,75.0,0,90,2.0,0.0
5635,43.0,30,150,5.0,0.0
5636,72.0,0,90,0.0,0.0
5637,75.0,0,90,0.0,0.0
5638,31.0,0,150,7.0,0.0
5639,72.0,0,90,3.0,0.0
5640,70.0,26,90,3.0,0.0
5641,70.0,0,90,0.0,0.0
5642,74.0,0,90,0.0,0.0
5643,74.0,0,90,2.0,0.0
5644,67.0,0,90,4.0,0.0
5645,72.0,0,150,0.0,0.0
5646,69.0,24,20,2.0,0.0
5647,63.0,0,150,4.0,0.0
5648,69.0,30,150,3.0,0.0
5649,54.0,0,150,5.0,0.0
5650,42.0,0,150,7.0,0.0
5651,81.0,0,150,0.0,0.0
5652,60.0,0,180,1.0,0.0
5653,70.0,112,20,2.0,0.0
5654,72.0,2,150,2.0,0.0
5655,55.0,2,90,5.0,0.0
5656,43.0,0,90,7.0,0.0
5657,72.0,0,60,2.0,0.0
5658,81.0,46,60,0.0,0.0
5659,69.0,0,60,3.0,0.0
5660,72.0,0,60,0.0,0.0
5661,58.0,0,150,1.0,0.0
5662,62.0,46,90,4.0,0.0
5663,70.0,0,60,0.0,0.0
5664,79.0,0,60,0.0,0.0
5665,70.0,0,60,2.0,0.0
5666,67.0,0,60,3.0,0.0
5667,51.0,0,90,5.0,0.0
5668,63.0,0,90,4.0,0.0
5669,69.0,18,60,2.0,0.0
5670,39.0,0,90,7.0,0.0
5671,67.0,0,60,2.0,0.0
5672,58.0,0,60,3.0,0.0
5673,70.0,96,60,0.0,0.0
5674,79.0,0,60,0.0,0.0
5675,36.0,96,90,7.0,0.0
5676,48.0,0,90,5.0,0.0
5677,75.0,0,90,0.0,0.0
5678,75.0,0,90,2.0,0.0
5679,60.0,0,90,3.0,0.0
5680,72.0,0,90,0.0,0.0
5681,57.0,0,90,4.0,0.0
5682,50.0,0,90,1.0,0.0
5683,57.0,0,90,4.0,0.0
5684,66.0,0,90,0.0,0.0
5685,66.0,0,90,2.0,0.0
5686,50.0,96,90,5.0,0.0
5687,60.0,0,90,3.0,0.0
5688,69.0,0,90,0.0,0.0
5689,38.0,0,90,7.0,0.0
5690,62.0,0,90,1.0,0.0
5691,31.0,0,90,7.0,0.0
5692,43.0,96,90,5.0,0.0
5693,60.0,0,180,3.0,0.0
5694,50.0,16,330,1.0,0.0
5695,62.0,0,330,1.0,0.0
5696,57.0,0,180,4.0,0.0
5697,69.0,0,180,0.0,0.0
5698,66.0,144,180,2.0,0.0
5699,66.0,0,180,0.0,0.0
5700,43.0,0,90,7.0,0.0
5701,55.0,2,90,5.0,0.0
5702,58.0,0,150,3.0,0.0
5703,55.0,510,150,4.0,0.0
5704,67.0,0,150,2.0,0.0
5705,31.0,0,150,7.0,0.0
5706,43.0,0,150,5.0,0.0
5707,67.0,0,150,0.0,0.0
5708,65.0,0,90,4.0,0.0
5709,46.0,96,90,5.0,0.0
5710,70.0,0,90,0.0,0.0
5711,70.0,0,90,2.0,0.0
5712,62.0,0,90,2.0,0.0
5713,50.0,0,90,1.0,0.0
5714,62.0,0,90,0.0,0.0
5715,58.0,0,90,1.0,0.0
5716,70.0,0,90,3.0,0.0
5717,62.0,0,90,3.0,0.0
5718,34.0,0,90,7.0,0.0
5719,58.0,0,90,1.0,0.0
5720,62.0,0,90,0.0,0.0
5721,50.0,0,90,1.0,0.0
5722,70.0,0,90,3.0,0.0
5723,62.0,0,90,3.0,0.0
5724,65.0,96,90,4.0,0.0
5725,46.0,0,90,5.0,0.0
5726,62.0,0,90,2.0,0.0
5727,34.0,0,90,7.0,0.0
5728,70.0,0,90,2.0,0.0
5729,70.0,0,90,0.0,0.0
5730,46.0,0,90,5.0,0.0
5731,58.0,0,90,1.0,0.0
5732,50.0,0,90,1.0,0.0
5733,62.0,0,90,0.0,0.0
5734,70.0,0,90,0.0,0.0
5735,62.0,0,90,3.0,0.0
5736,62.0,0,90,2.0,0.0
5737,70.0,0,90,2.0,0.0
5738,70.0,0,90,3.0,0.0
5739,34.0,0,90,7.0,0.0
5740,65.0,96,90,4.0,0.0
5741,50.0,8,270,1.0,0.0
5742,70.0,0,150,2.0,0.0
5743,65.0,0,90,4.0,0.0
5744,34.0,0,90,7.0,0.0
5745,62.0,0,150,0.0,0.0
5746,46.0,66,90,5.0,0.0
5747,62.0,0,150,2.0,0.0
5748,58.0,0,270,1.0,0.0
5749,70.0,0,150,3.0,0.0
5750,70.0,0,150,0.0,0.0
5751,62.0,30,150,3.0,0.0
5752,46.0,26,90,5.0,0.0
5753,34.0,0,90,7.0,0.0
5754,65.0,0,90,4.0,0.0
5755,46.0,0,90,5.0,0.0
5756,65.0,0,90,4.0,0.0
5757,70.0,24,20,2.0,0.0
5758,62.0,0,20,3.0,0.0
5759,34.0,96,90,7.0,0.0
5760,69.0,16,20,2.0,0.0
5761,60.0,0,20,3.0,0.0
5762,62.0,0,20,3.0,0.0
5763,70.0,22,20,2.0,0.0
5764,63.0,0,20,3.0,0.0
5765,72.0,0,20,2.0,0.0
5766,65.0,0,150,3.0,0.0
5767,74.0,0,150,0.0,0.0
5768,62.0,0,150,1.0,0.0
5769,34.0,0,90,7.0,0.0
5770,62.0,64,90,4.0,0.0
5771,65.0,0,150,0.0,0.0
5772,74.0,30,150,2.0,0.0
5773,46.0,2,90,5.0,0.0
5774,58.0,0,150,1.0,0.0
5775,58.0,0,90,5.0,0.0
5776,58.0,26,90,4.0,0.0
5777,46.0,0,90,7.0,0.0
5778,74.0,24,20,2.0,0.0
5779,58.0,0,90,5.0,0.0
5780,65.0,0,20,3.0,0.0
5781,46.0,0,90,7.0,0.0
5782,72.0,24,20,2.0,0.0
5783,64.0,0,20,3.0,0.0
5784,65.0,0,20,3.0,0.0
5785,74.0,22,20,2.0,0.0
5786,76.0,0,20,2.0,0.0
5787,67.0,96,20,3.0,0.0
5788,57.0,0,90,5.0,0.0
5789,60.0,0,90,3.0,0.0
5790,45.0,66,90,7.0,0.0
5791,65.0,0,150,1.0,0.0
5792,77.0,30,150,0.0,0.0
5793,77.0,0,150,2.0,0.0
5794,53.0,0,150,1.0,0.0
5795,69.0,0,90,0.0,0.0
5796,53.0,0,90,5.0,0.0
5797,65.0,94,90,3.0,0.0
5798,41.0,2,90,7.0,0.0
5799,65.0,0,90,4.0,0.0
5800,65.0,0,90,4.0,0.0
5801,72.0,0,90,0.0,0.0
5802,75.0,0,90,2.0,0.0
5803,53.0,0,90,1.0,0.0
5804,63.0,0,90,1.0,0.0
5805,69.0,0,90,3.0,0.0
5806,57.0,0,90,5.0,0.0
5807,75.0,96,90,0.0,0.0
5808,45.0,0,90,7.0,0.0
5809,74.0,0,90,0.0,0.0
5810,46.0,0,90,7.0,0.0
5811,65.0,0,90,3.0,0.0
5812,74.0,0,90,2.0,0.0
5813,65.0,0,90,0.0,0.0
5814,62.0,30,150,1.0,0.0
5815,65.0,66,90,4.0,0.0
5816,58.0,0,150,1.0,0.0
5817,58.0,0,90,5.0,0.0
5818,74.0,0,90,0.0,0.0
5819,46.0,0,90,5.0,0.0
5820,65.0,0,90,4.0,0.0
5821,82.0,0,90,2.0,0.0
5822,82.0,0,90,0.0,0.0
5823,34.0,0,90,7.0,0.0
5824,74.0,50,90,3.0,0.0
5825,70.0,46,60,3.0,0.0
5826,46.0,96,90,7.0,0.0
5827,79.0,0,60,2.0,0.0
5828,79.0,0,60,0.0,0.0
5829,58.0,0,90,5.0,0.0
5830,70.0,0,60,0.0,0.0
5831,76.0,0,60,0.0,0.0
5832,67.0,0,60,3.0,0.0
5833,67.0,0,60,0.0,0.0
5834,64.0,0,60,1.0,0.0
5835,60.0,0,60,1.0,0.0
5836,60.0,0,60,4.0,0.0
5837,76.0,0,60,2.0,0.0
5838,77.0,0,150,2.0,0.0
5839,57.0,48,90,5.0,0.0
5840,72.0,0,90,0.0,0.0
5841,77.0,0,150,0.0,0.0
5842,45.0,0,90,7.0,0.0
5843,65.0,30,150,1.0,0.0
5844,53.0,0,150,1.0,0.0
5845,60.0,0,90,3.0,0.0
5846,60.0,0,90,4.0,0.0
5847,69.0,18,60,3.0,0.0
5848,60.0,0,90,4.0,0.0
5849,41.0,0,60,7.0,0.0
5850,69.0,0,60,0.0,0.0
5851,53.0,0,60,5.0,0.0
5852,55.0,0,60,5.0,0.0
5853,43.0,96,60,7.0,0.0
5854,70.0,0,60,0.0,0.0
5855,70.0,0,60,3.0,0.0
5856,72.0,96,90,3.0,0.0
5857,75.0,0,90,2.0,0.0
5858,65.0,0,90,4.0,0.0
5859,57.0,0,90,5.0,0.0
5860,53.0,0,90,1.0,0.0
5861,63.0,0,90,1.0,0.0
5862,72.0,0,90,0.0,0.0
5863,45.0,0,90,7.0,0.0
5864,75.0,0,90,0.0,0.0
5865,65.0,0,90,3.0,0.0
5866,65.0,0,90,0.0,0.0
5867,74.0,0,90,0.0,0.0
5868,58.0,0,90,5.0,0.0
5869,74.0,66,90,2.0,0.0
5870,46.0,0,150,1.0,0.0
5871,46.0,0,90,7.0,0.0
5872,65.0,0,90,4.0,0.0
5873,62.0,30,150,1.0,0.0
5874,46.0,0,90,7.0,0.0
5875,74.0,0,90,0.0,0.0
5876,82.0,0,90,0.0,0.0
5877,58.0,0,90,5.0,0.0
5878,74.0,0,90,3.0,0.0
5879,82.0,50,90,2.0,0.0
5880,65.0,0,90,4.0,0.0
5881,79.0,0,60,0.0,0.0
5882,58.0,96,90,5.0,0.0
5883,46.0,0,90,7.0,0.0
5884,79.0,46,60,2.0,0.0
5885,70.0,0,60,3.0,0.0
5886,70.0,0,60,0.0,0.0
5887,67.0,0,60,3.0,0.0
5888,76.0,0,60,0.0,0.0
5889,64.0,0,60,1.0,0.0
5890,60.0,0,60,1.0,0.0
5891,60.0,0,60,4.0,0.0
5892,76.0,0,60,2.0,0.0
5893,67.0,0,60,0.0,0.0
5894,60.0,0,150,3.0,0.0
5895,77.0,0,90,0.0,0.0
5896,57.0,0,90,5.0,0.0
5897,77.0,64,90,2.0,0.0
5898,72.0,0,150,0.0,0.0
5899,53.0,30,150,1.0,0.0
5900,65.0,2,90,1.0,0.0
5901,60.0,0,150,4.0,0.0
5902,45.0,0,90,7.0,0.0
5903,45.0,0,90,7.0,0.0
5904,57.0,50,90,5.0,0.0
5905,79.0,0,90,0.0,0.0
5906,67.0,0,90,1.0,0.0
5907,79.0,0,90,2.0,0.0
5908,65.0,0,90,3.0,0.0
5909,75.0,46,60,2.0,0.0
5910,63.0,0,90,1.0,0.0
5911,60.0,0,90,4.0,0.0
5912,57.0,0,90,5.0,0.0
5913,45.0,0,90,7.0,0.0
5914,75.0,0,90,0.0,0.0
5915,72.0,48,90,0.0,0.0
5916,53.0,0,90,1.0,0.0
5917,72.0,0,60,2.0,0.0
5918,65.0,0,90,3.0,0.0
5919,74.0,48,60,2.0,0.0
5920,62.0,0,150,1.0,0.0
5921,58.0,0,90,4.0,0.0
5922,58.0,30,150,1.0,0.0
5923,74.0,0,60,0.0,0.0
5924,46.0,0,90,7.0,0.0
5925,58.0,0,90,5.0,0.0
5926,65.0,0,90,0.0,0.0
5927,77.0,48,60,2.0,0.0
5928,77.0,0,60,0.0,0.0
5929,75.0,18,60,0.0,0.0
5930,51.0,48,90,5.0,0.0
5931,39.0,0,90,7.0,0.0
5932,67.0,0,90,3.0,0.0
5933,75.0,0,60,2.0,0.0
5934,65.0,0,90,0.0,0.0
5935,58.0,0,90,4.0,0.0
5936,74.0,0,60,2.0,0.0
5937,74.0,0,60,0.0,0.0
5938,65.0,0,90,0.0,0.0
5939,60.0,0,90,4.0,0.0
5940,72.0,48,60,2.0,0.0
5941,72.0,0,60,0.0,0.0
5942,40.0,0,90,7.0,0.0
5943,67.0,0,90,3.0,0.0
5944,52.0,96,90,5.0,0.0
5945,70.0,0,60,0.0,0.0
5946,70.0,0,60,2.0,0.0
5947,60.0,0,90,4.0,0.0
5948,60.0,30,150,1.0,0.0
5949,53.0,0,150,1.0,0.0
5950,69.0,0,90,2.0,0.0
5951,60.0,0,90,3.0,0.0
5952,41.0,0,90,7.0,0.0
5953,53.0,48,90,5.0,0.0
5954,69.0,0,150,0.0,0.0
5955,65.0,0,150,0.0,0.0
5956,41.0,0,60,7.0,0.0
5957,53.0,0,60,5.0,0.0
5958,65.0,0,60,2.0,0.0
5959,65.0,0,60,3.0,0.0
5960,65.0,18,60,4.0,0.0
5961,63.0,0,60,2.0,0.0
5962,51.0,0,60,5.0,0.0
5963,63.0,0,60,4.0,0.0
5964,63.0,48,60,3.0,0.0
5965,39.0,0,60,7.0,0.0
5966,62.0,0,60,2.0,0.0
5967,50.0,0,60,5.0,0.0
5968,62.0,48,60,4.0,0.0
5969,62.0,0,60,3.0,0.0
5970,38.0,0,60,7.0,0.0
5971,48.0,0,60,5.0,0.0
5972,60.0,0,60,2.0,0.0
5973,36.0,0,60,7.0,0.0
5974,60.0,96,60,4.0,0.0
5975,60.0,0,60,3.0,0.0
5976,46.0,0,90,5.0,0.0
5977,62.0,0,90,0.0,0.0
5978,58.0,0,90,1.0,0.0
5979,58.0,96,90,3.0,0.0
5980,50.0,0,90,1.0,0.0
5981,34.0,0,90,7.0,0.0
5982,58.0,0,90,4.0,0.0
5983,70.0,0,90,0.0,0.0
5984,58.0,0,90,2.0,0.0
5985,70.0,0,90,3.0,0.0
5986,62.0,0,90,3.0,0.0
5987,62.0,0,90,2.0,0.0
5988,34.0,0,90,7.0,0.0
5989,70.0,0,90,2.0,0.0
5990,65.0,0,90,4.0,0.0
5991,62.0,96,90,0.0,0.0
5992,70.0,0,90,0.0,0.0
5993,50.0,0,90,1.0,0.0
5994,58.0,0,90,1.0,0.0
5995,46.0,0,90,5.0,0.0
5996,46.0,0,90,5.0,0.0
5997,70.0,0,90,2.0,0.0
5998,62.0,96,90,2.0,0.0
5999,50.0,0,90,1.0,0.0
6000,70.0,0,90,0.0,0.0
6001,34.0,0,90,7.0,0.0
6002,62.0,0,90,0.0,0.0
6003,62.0,0,90,3.0,0.0
6004,65.0,0,90,4.0,0.0
6005,58.0,0,90,1.0,0.0
6006,70.0,0,90,3.0,0.0
6007,62.0,0,270,0.0,0.0
6008,50.0,0,270,1.0,0.0
6009,34.0,0,90,7.0,0.0
6010,70.0,8,270,0.0,0.0
6011,62.0,30,150,2.0,0.0
6012,70.0,0,150,2.0,0.0
6013,62.0,0,150,3.0,0.0
6014,70.0,0,150,3.0,0.0
6015,65.0,0,90,4.0,0.0
6016,58.0,0,270,1.0,0.0
6017,46.0,66,90,5.0,0.0
6018,65.0,26,90,4.0,0.0
6019,58.0,0,90,5.0,0.0
6020,46.0,0,90,7.0,0.0
6021,46.0,0,90,7.0,0.0
6022,58.0,0,90,5.0,0.0
6023,62.0,0,20,3.0,0.0
6024,70.0,24,20,2.0,0.0
6025,65.0,0,90,4.0,0.0
6026,69.0,0,20,2.0,0.0
6027,60.0,16,20,3.0,0.0
6028,70.0,22,20,2.0,0.0
6029,62.0,0,20,3.0,0.0
6030,72.0,96,20,2.0,0.0
6031,63.0,0,20,3.0,0.0
6032,65.0,0,150,3.0,0.0
6033,74.0,0,150,0.0,0.0
6034,58.0,8,270,1.0,0.0
6035,62.0,0,90,4.0,0.0
6036,74.0,0,150,2.0,0.0
6037,58.0,0,90,5.0,0.0
6038,46.0,66,90,7.0,0.0
6039,70.0,30,150,0.0,0.0
6040,62.0,0,270,1.0,0.0
6041,58.0,26,90,4.0,0.0
6042,46.0,0,90,7.0,0.0
6043,58.0,0,90,5.0,0.0
6044,74.0,24,20,0.0,0.0
6045,46.0,48,90,7.0,0.0
6046,74.0,0,20,2.0,0.0
6047,65.0,0,90,4.0,0.0
6048,58.0,0,90,5.0,0.0
6049,70.0,0,20,0.0,0.0
6050,70.0,0,20,3.0,0.0
6051,69.0,0,20,3.0,0.0
6052,72.0,0,20,2.0,0.0
6053,69.0,0,20,0.0,0.0
6054,72.0,16,20,0.0,0.0
6055,70.0,22,20,3.0,0.0
6056,74.0,0,20,2.0,0.0
6057,70.0,0,20,0.0,0.0
6058,74.0,0,20,0.0,0.0
6059,75.0,0,20,2.0,0.0
6060,72.0,0,20,3.0,0.0
6061,75.0,0,20,0.0,0.0
6062,72.0,0,20,0.0,0.0
6063,46.0,0,90,7.0,0.0
6064,77.0,0,150,0.0,0.0
6065,74.0,0,90,0.0,0.0
6066,65.0,0,150,1.0,0.0
6067,62.0,0,90,1.0,0.0
6068,65.0,48,60,4.0,0.0
6069,58.0,48,90,5.0,0.0
6070,74.0,0,90,3.0,0.0
6071,77.0,30,150,2.0,0.0
6072,65.0,0,60,4.0,0.0
6073,65.0,18,60,4.0,0.0
6074,45.0,0,90,7.0,0.0
6075,57.0,0,90,5.0,0.0
6076,72.0,48,90,0.0,0.0
6077,72.0,0,90,3.0,0.0
6078,60.0,0,90,1.0,0.0
6079,65.0,0,60,4.0,0.0
6080,41.0,0,90,7.0,0.0
6081,75.0,0,90,2.0,0.0
6082,69.0,0,90,3.0,0.0
6083,63.0,0,90,1.0,0.0
6084,75.0,0,90,0.0,0.0
6085,69.0,0,90,0.0,0.0
6086,53.0,0,90,5.0,0.0
6087,65.0,48,60,4.0,0.0
6088,53.0,48,90,1.0,0.0
6089,65.0,0,60,4.0,0.0
6090,62.0,0,150,1.0,0.0
6091,70.0,0,150,0.0,0.0
6092,74.0,0,90,2.0,0.0
6093,65.0,48,60,4.0,0.0
6094,58.0,48,90,5.0,0.0
6095,46.0,0,90,7.0,0.0
6096,65.0,30,150,3.0,0.0
6097,74.0,0,90,0.0,0.0
6098,53.0,0,150,1.0,0.0
6099,65.0,0,60,4.0,0.0
6100,82.0,0,90,2.0,0.0
6101,65.0,18,60,4.0,0.0
6102,62.0,0,90,5.0,0.0
6103,50.0,0,90,7.0,0.0
6104,82.0,50,90,0.0,0.0
6105,65.0,0,60,4.0,0.0
6106,60.0,0,90,4.0,0.0
6107,55.0,0,90,5.0,0.0
6108,79.0,0,60,0.0,0.0
6109,70.0,46,60,0.0,0.0
6110,79.0,0,60,2.0,0.0
6111,43.0,48,90,7.0,0.0
6112,70.0,0,90,3.0,0.0
6113,76.0,0,60,2.0,0.0
6114,67.0,0,60,0.0,0.0
6115,76.0,0,60,0.0,0.0
6116,64.0,0,60,1.0,0.0
6117,72.0,0,60,3.0,0.0
6118,77.0,30,150,2.0,0.0
6119,60.0,0,90,4.0,0.0
6120,53.0,0,90,1.0,0.0
6121,72.0,0,60,0.0,0.0
6122,65.0,0,150,1.0,0.0
6123,77.0,0,150,0.0,0.0
6124,57.0,48,60,5.0,0.0
6125,45.0,0,60,7.0,0.0
6126,43.0,0,60,7.0,0.0
6127,70.0,48,60,0.0,0.0
6128,55.0,0,60,5.0,0.0
6129,70.0,0,60,3.0,0.0
6130,69.0,48,90,0.0,0.0
6131,65.0,18,60,4.0,0.0
6132,69.0,0,90,3.0,0.0
6133,53.0,0,90,1.0,0.0
6134,53.0,0,90,5.0,0.0
6135,41.0,0,90,7.0,0.0
6136,65.0,0,60,4.0,0.0
6137,57.0,0,90,5.0,0.0
6138,75.0,0,90,0.0,0.0
6139,72.0,0,90,3.0,0.0
6140,72.0,0,90,0.0,0.0
6141,65.0,48,60,4.0,0.0
6142,75.0,0,90,2.0,0.0
6143,53.0,0,90,1.0,0.0
6144,63.0,0,90,1.0,0.0
6145,45.0,0,90,7.0,0.0
6146,65.0,96,60,4.0,0.0
6147,53.0,30,150,1.0,0.0
6148,65.0,0,90,3.0,0.0
6149,58.0,0,90,5.0,0.0
6150,65.0,0,90,0.0,0.0
6151,65.0,0,90,4.0,0.0
6152,74.0,0,90,2.0,0.0
6153,46.0,0,90,7.0,0.0
6154,62.0,0,150,1.0,0.0
6155,74.0,66,90,0.0,0.0
6156,74.0,0,90,0.0,0.0
6157,58.0,0,90,5.0,0.0
6158,82.0,50,90,0.0,0.0
6159,46.0,0,90,7.0,0.0
6160,65.0,0,90,4.0,0.0
6161,82.0,0,90,2.0,0.0
6162,74.0,0,90,3.0,0.0
6163,46.0,0,90,7.0,0.0
6164,58.0,0,90,5.0,0.0
6165,79.0,0,60,2.0,0.0
6166,79.0,0,60,0.0,0.0
6167,70.0,0,60,3.0,0.0
6168,70.0,46,60,0.0,0.0
6169,67.0,0,60,3.0,0.0
6170,67.0,96,60,0.0,0.0
6171,76.0,0,60,0.0,0.0
6172,60.0,0,60,4.0,0.0
6173,76.0,0,60,2.0,0.0
6174,64.0,0,60,1.0,0.0
6175,77.0,0,90,2.0,0.0
6176,45.0,66,90,7.0,0.0
6177,57.0,0,90,5.0,0.0
6178,60.0,30,150,4.0,0.0
6179,53.0,0,90,1.0,0.0
6180,65.0,0,90,1.0,0.0
6181,60.0,0,150,3.0,0.0
6182,77.0,0,90,0.0,0.0
6183,72.0,0,150,0.0,0.0
6184,79.0,48,90,0.0,0.0
6185,45.0,0,90,7.0,0.0
6186,57.0,0,90,5.0,0.0
6187,67.0,0,90,1.0,0.0
6188,79.0,0,90,2.0,0.0
6189,53.0,0,90,1.0,0.0
6190,65.0,0,90,3.0,0.0
6191,63.0,2,60,1.0,0.0
6192,57.0,0,90,5.0,0.0
6193,60.0,0,90,4.0,0.0
6194,53.0,0,90,1.0,0.0
6195,75.0,46,60,2.0,0.0
6196,45.0,0,90,7.0,0.0
6197,65.0,0,90,0.0,0.0
6198,75.0,0,60,0.0,0.0
6199,72.0,0,60,0.0,0.0
6200,72.0,0,60,2.0,0.0
6201,60.0,48,60,1.0,0.0
6202,74.0,48,60,2.0,0.0
6203,65.0,0,90,3.0,0.0
6204,74.0,0,60,0.0,0.0
6205,46.0,0,90,7.0,0.0
6206,58.0,0,90,4.0,0.0
6207,58.0,0,90,1.0,0.0
6208,58.0,0,90,5.0,0.0
6209,65.0,0,90,0.0,0.0
6210,62.0,0,90,1.0,0.0
6211,77.0,96,60,0.0,0.0
6212,77.0,0,60,2.0,0.0
6213,62.0,0,90,3.0,0.0
6214,70.0,96,90,0.0,0.0
6215,41.0,0,90,7.0,0.0
6216,53.0,0,90,5.0,0.0
6217,70.0,0,90,2.0,0.0
6218,62.0,0,90,1.0,0.0
6219,58.0,0,90,1.0,0.0
6220,65.0,0,90,0.0,0.0
6221,69.0,0,90,0.0,0.0
6222,60.0,0,90,3.0,0.0
6223,63.0,0,90,4.0,0.0
6224,60.0,0,90,1.0,0.0
6225,69.0,0,90,2.0,0.0
6226,29.0,162,90,7.0,0.0
6227,53.0,0,90,1.0,0.0
6228,63.0,0,90,0.0,0.0
6229,41.0,0,90,5.0,0.0
6230,62.0,0,150,0.0,0.0
6231,62.0,0,150,4.0,0.0
6232,70.0,0,150,2.0,0.0
6233,70.0,0,150,0.0,0.0
6234,58.0,0,150,1.0,0.0
6235,50.0,0,150,1.0,0.0
6236,34.0,0,150,7.0,0.0
6237,46.0,0,150,5.0,0.0
6238,62.0,222,150,3.0,0.0
6239,58.0,48,90,3.0,0.0
6240,74.0,30,150,2.0,0.0
6241,70.0,18,60,3.0,0.0
6242,69.0,50,60,3.0,0.0
6243,74.0,24,60,2.0,0.0
6244,67.0,96,90,3.0,0.0
6245,72.0,22,20,2.0,0.0
6246,74.0,0,20,2.0,0.0
6247,72.0,0,90,2.0,0.0
6248,69.0,96,90,3.0,0.0
6249,76.0,94,90,2.0,0.0
6250,67.0,2,90,3.0,0.0
6251,65.0,96,90,3.0,0.0
6252,77.0,0,90,2.0,0.0
6253,55.0,48,90,3.0,0.0
6254,70.0,30,150,2.0,0.0
6255,67.0,18,60,3.0,0.0
6256,64.0,50,60,3.0,0.0
6257,70.0,24,60,2.0,0.0
6258,60.0,0,90,3.0,0.0
6259,69.0,22,20,2.0,0.0
6260,70.0,96,20,2.0,0.0
6261,65.0,0,90,3.0,0.0
6262,69.0,96,90,2.0,0.0
6263,76.0,94,90,2.0,0.0
6264,67.0,2,90,3.0,0.0
6265,69.0,96,90,3.0,0.0
6266,77.0,0,90,2.0,0.0
6267,72.0,0,90,3.0,0.0
6268,48.0,0,270,5.0,0.0
6269,84.0,96,90,2.0,0.0
6270,36.0,30,270,7.0,0.0
6271,60.0,0,1110,1.0,0.0
6272,64.0,2,90,4.0,0.0
6273,67.0,0,90,4.0,0.0
6274,79.0,64,90,0.0,0.0
6275,70.0,0,90,0.0,0.0
6276,76.0,0,90,3.0,0.0
6277,82.0,0,90,2.0,0.0
6278,69.0,0,90,0.0,0.0
6279,65.0,0,90,4.0,0.0
6280,77.0,0,90,3.0,0.0
6281,77.0,0,90,0.0,0.0
6282,81.0,96,90,2.0,0.0
6283,53.0,2,90,4.0,0.0
6284,81.0,0,90,2.0,0.0
6285,36.0,0,270,5.0,0.0
6286,72.0,96,90,3.0,0.0
6287,24.0,30,270,7.0,0.0
6288,79.0,0,90,2.0,0.0
6289,82.0,0,90,0.0,0.0
6290,64.0,0,90,4.0,0.0
6291,70.0,64,90,3.0,0.0
6292,76.0,0,90,0.0,0.0
6293,65.0,0,90,4.0,0.0
6294,81.0,96,90,0.0,0.0
6295,77.0,0,90,0.0,0.0
6296,77.0,0,90,2.0,0.0
6297,69.0,0,90,3.0,0.0
6298,64.0,0,90,4.0,0.0
6299,36.0,0,270,7.0,0.0
6300,48.0,30,270,5.0,0.0
6301,72.0,96,90,3.0,0.0
6302,72.0,2,90,2.0,0.0
6303,67.0,64,90,4.0,0.0
6304,70.0,0,90,0.0,0.0
6305,70.0,0,90,3.0,0.0
6306,76.0,0,90,2.0,0.0
6307,79.0,0,90,0.0,0.0
6308,69.0,0,90,3.0,0.0
6309,77.0,0,90,2.0,0.0
6310,69.0,0,90,0.0,0.0
6311,65.0,96,90,4.0,0.0
6312,77.0,0,90,0.0,0.0
6313,36.0,30,270,5.0,0.0
6314,69.0,0,90,3.0,0.0
6315,72.0,96,90,2.0,0.0
6316,24.0,0,270,7.0,0.0
6317,53.0,2,90,4.0,0.0
6318,64.0,64,90,4.0,0.0
6319,67.0,0,90,3.0,0.0
6320,70.0,0,90,0.0,0.0
6321,76.0,0,90,0.0,0.0
6322,70.0,0,90,2.0,0.0
6323,77.0,0,90,0.0,0.0
6324,65.0,48,90,3.0,0.0
6325,69.0,0,90,0.0,0.0
6326,65.0,0,90,4.0,0.0
6327,69.0,0,90,2.0,0.0
6328,62.0,0,90,4.0,0.0
6329,46.0,48,90,5.0,0.0
6330,70.0,48,60,2.0,0.0
6331,79.0,0,90,0.0,0.0
6332,34.0,0,90,7.0,0.0
6333,70.0,0,90,0.0,0.0
6334,67.0,0,60,2.0,0.0
6335,62.0,0,60,3.0,0.0
6336,36.0,0,90,7.0,0.0
6337,69.0,0,60,2.0,0.0
6338,69.0,0,90,0.0,0.0
6339,60.0,0,90,3.0,0.0
6340,77.0,48,90,0.0,0.0
6341,65.0,48,60,4.0,0.0
6342,48.0,0,90,5.0,0.0
6343,60.0,0,90,1.0,0.0
6344,57.0,0,60,4.0,0.0
6345,65.0,0,60,2.0,0.0
6346,24.0,0,90,7.0,0.0
6347,67.0,0,60,2.0,0.0
6348,36.0,0,90,5.0,0.0
6349,58.0,0,90,3.0,0.0
6350,76.0,0,90,0.0,0.0
6351,64.0,48,60,4.0,0.0
6352,60.0,0,90,1.0,0.0
6353,67.0,0,90,0.0,0.0
6354,55.0,0,60,4.0,0.0
6355,64.0,48,60,2.0,0.0
6356,57.0,48,90,3.0,0.0
6357,53.0,0,60,5.0,0.0
6358,65.0,0,60,2.0,0.0
6359,69.0,30,150,0.0,0.0
6360,57.0,0,90,4.0,0.0
6361,77.0,0,150,0.0,0.0
6362,53.0,0,150,1.0,0.0
6363,60.0,0,150,1.0,0.0
6364,41.0,48,60,7.0,0.0
6365,55.0,0,60,5.0,0.0
6366,43.0,0,60,7.0,0.0
6367,67.0,0,60,2.0,0.0
6368,65.0,0,60,2.0,0.0
6369,65.0,0,60,3.0,0.0
6370,65.0,0,60,4.0,0.0
6371,53.0,0,60,5.0,0.0
6372,41.0,18,60,7.0,0.0
6373,63.0,0,60,4.0,0.0
6374,51.0,48,60,5.0,0.0
6375,63.0,0,60,3.0,0.0
6376,63.0,0,60,2.0,0.0
6377,39.0,0,60,7.0,0.0
6378,62.0,48,60,2.0,0.0
6379,38.0,0,60,7.0,0.0
6380,50.0,0,60,5.0,0.0
6381,62.0,0,60,4.0,0.0
6382,62.0,0,60,3.0,0.0
6383,60.0,0,60,4.0,0.0
6384,48.0,0,60,5.0,0.0
6385,36.0,0,60,7.0,0.0
6386,60.0,0,60,2.0,0.0
6387,60.0,96,60,3.0,0.0
6388,58.0,0,90,1.0,0.0
6389,58.0,0,90,2.0,0.0
6390,62.0,96,90,0.0,0.0
6391,70.0,0,90,0.0,0.0
6392,50.0,0,90,1.0,0.0
6393,62.0,0,90,3.0,0.0
6394,58.0,0,90,3.0,0.0
6395,46.0,0,90,5.0,0.0
6396,34.0,0,90,7.0,0.0
6397,58.0,0,90,4.0,0.0
6398,62.0,0,90,2.0,0.0
6399,70.0,0,90,2.0,0.0
6400,46.0,0,90,5.0,0.0
6401,50.0,0,90,1.0,0.0
6402,70.0,0,90,0.0,0.0
6403,62.0,0,90,3.0,0.0
6404,62.0,0,90,0.0,0.0
6405,58.0,0,90,1.0,0.0
6406,58.0,0,90,3.0,0.0
6407,34.0,0,90,7.0,0.0
6408,65.0,96,90,4.0,0.0
6409,70.0,0,90,2.0,0.0
6410,62.0,0,90,2.0,0.0
6411,34.0,0,90,7.0,0.0
6412,58.0,0,90,3.0,0.0
6413,58.0,0,90,1.0,0.0
6414,46.0,96,90,5.0,0.0
6415,50.0,0,90,1.0,0.0
6416,62.0,0,90,3.0,0.0
6417,62.0,0,90,0.0,0.0
6418,65.0,0,90,4.0,0.0
6419,70.0,0,90,0.0,0.0
6420,50.0,0,270,1.0,0.0
6421,62.0,0,150,0.0,0.0
6422,65.0,66,90,4.0,0.0
6423,70.0,0,150,0.0,0.0
6424,34.0,0,90,7.0,0.0
6425,46.0,0,90,5.0,0.0
6426,58.0,8,270,1.0,0.0
6427,70.0,0,150,2.0,0.0
6428,62.0,0,150,2.0,0.0
6429,58.0,0,150,3.0,0.0
6430,62.0,30,150,3.0,0.0
6431,46.0,26,90,5.0,0.0
6432,34.0,0,90,7.0,0.0
6433,65.0,0,90,4.0,0.0
6434,46.0,96,90,5.0,0.0
6435,34.0,0,90,7.0,0.0
6436,65.0,0,90,4.0,0.0
6437,62.0,24,20,3.0,0.0
6438,70.0,0,20,2.0,0.0
6439,69.0,16,20,2.0,0.0
6440,60.0,0,20,3.0,0.0
6441,70.0,0,20,2.0,0.0
6442,62.0,22,20,3.0,0.0
6443,72.0,0,20,2.0,0.0
6444,63.0,0,20,3.0,0.0
6445,74.0,0,150,0.0,0.0
6446,62.0,0,150,1.0,0.0
6447,65.0,0,150,0.0,0.0
6448,74.0,0,150,2.0,0.0
6449,62.0,64,90,4.0,0.0
6450,46.0,0,90,5.0,0.0
6451,58.0,30,150,1.0,0.0
6452,34.0,2,90,7.0,0.0
6453,65.0,0,150,3.0,0.0
6454,58.0,0,90,4.0,0.0
6455,46.0,0,90,7.0,0.0
6456,58.0,26,90,5.0,0.0
6457,65.0,0,20,3.0,0.0
6458,58.0,0,90,5.0,0.0
6459,46.0,0,90,7.0,0.0
6460,74.0,24,20,2.0,0.0
6461,72.0,24,20,2.0,0.0
6462,64.0,0,20,3.0,0.0
6463,74.0,22,20,2.0,0.0
6464,65.0,0,20,3.0,0.0
6465,67.0,96,20,3.0,0.0
6466,76.0,0,20,2.0,0.0
6467,77.0,30,150,2.0,0.0
6468,45.0,66,90,7.0,0.0
6469,57.0,0,90,5.0,0.0
6470,77.0,0,150,0.0,0.0
6471,53.0,0,150,1.0,0.0
6472,60.0,0,90,3.0,0.0
6473,65.0,0,150,1.0,0.0
6474,53.0,2,90,5.0,0.0
6475,69.0,0,90,0.0,0.0
6476,69.0,94,90,3.0,0.0
6477,65.0,0,90,4.0,0.0
6478,41.0,0,90,7.0,0.0
6479,72.0,0,90,3.0,0.0
6480,63.0,0,90,1.0,0.0
6481,45.0,0,90,7.0,0.0
6482,53.0,0,90,1.0,0.0
6483,65.0,96,90,4.0,0.0
6484,75.0,0,90,0.0,0.0
6485,72.0,0,90,0.0,0.0
6486,57.0,0,90,5.0,0.0
6487,75.0,0,90,2.0,0.0
6488,65.0,0,90,3.0,0.0
6489,74.0,0,90,2.0,0.0
6490,58.0,30,150,1.0,0.0
6491,65.0,0,90,0.0,0.0
6492,58.0,0,90,5.0,0.0
6493,65.0,66,90,4.0,0.0
6494,74.0,0,90,0.0,0.0
6495,46.0,0,90,7.0,0.0
6496,62.0,0,150,1.0,0.0
6497,34.0,50,90,7.0,0.0
6498,74.0,0,90,3.0,0.0
6499,70.0,0,90,0.0,0.0
6500,46.0,0,90,5.0,0.0
6501,82.0,0,90,2.0,0.0
6502,82.0,0,90,0.0,0.0
6503,65.0,0,90,4.0,0.0
6504,58.0,0,90,5.0,0.0
6505,70.0,46,60,3.0,0.0
6506,79.0,0,60,2.0,0.0
6507,46.0,96,90,7.0,0.0
6508,70.0,0,60,0.0,0.0
6509,79.0,0,60,0.0,0.0
6510,67.0,0,60,3.0,0.0
6511,76.0,0,60,0.0,0.0
6512,76.0,0,60,2.0,0.0
6513,67.0,0,60,0.0,0.0
6514,64.0,0,60,1.0,0.0
6515,60.0,0,60,1.0,0.0
6516,60.0,0,60,4.0,0.0
6517,57.0,0,90,5.0,0.0
6518,77.0,30,150,2.0,0.0
6519,72.0,0,90,0.0,0.0
6520,77.0,0,150,0.0,0.0
6521,65.0,0,150,1.0,0.0
6522,60.0,48,90,4.0,0.0
6523,45.0,0,90,7.0,0.0
6524,53.0,0,150,1.0,0.0
6525,60.0,0,90,3.0,0.0
6526,69.0,0,60,0.0,0.0
6527,69.0,18,60,3.0,0.0
6528,60.0,0,90,4.0,0.0
6529,41.0,0,60,7.0,0.0
6530,53.0,0,60,5.0,0.0
6531,43.0,0,60,7.0,0.0
6532,70.0,96,60,0.0,0.0
6533,55.0,0,60,5.0,0.0
6534,70.0,0,60,3.0,0.0
6535,53.0,0,90,1.0,0.0
6536,63.0,0,90,1.0,0.0
6537,57.0,0,90,5.0,0.0
6538,72.0,0,90,0.0,0.0
6539,75.0,96,90,2.0,0.0
6540,72.0,0,90,3.0,0.0
6541,75.0,0,90,0.0,0.0
6542,65.0,0,90,4.0,0.0
6543,45.0,0,90,7.0,0.0
6544,62.0,30,150,1.0,0.0
6545,58.0,0,90,5.0,0.0
6546,65.0,0,90,4.0,0.0
6547,74.0,0,90,2.0,0.0
6548,65.0,0,90,0.0,0.0
6549,46.0,0,90,7.0,0.0
6550,74.0,66,90,0.0,0.0
6551,46.0,0,150,1.0,0.0
6552,65.0,0,90,3.0,0.0
6553,46.0,50,90,7.0,0.0
6554,65.0,0,90,4.0,0.0
6555,58.0,0,90,5.0,0.0
6556,82.0,0,90,2.0,0.0
6557,82.0,0,90,0.0,0.0
6558,74.0,0,90,3.0,0.0
6559,74.0,0,90,0.0,0.0
6560,70.0,0,60,0.0,0.0
6561,58.0,0,90,5.0,0.0
6562,79.0,0,60,0.0,0.0
6563,79.0,46,60,2.0,0.0
6564,46.0,96,90,7.0,0.0
6565,70.0,0,60,3.0,0.0
6566,64.0,0,60,1.0,0.0
6567,67.0,0,60,3.0,0.0
6568,60.0,0,60,4.0,0.0
6569,60.0,0,60,1.0,0.0
6570,67.0,0,60,0.0,0.0
6571,76.0,0,60,2.0,0.0
6572,76.0,0,60,0.0,0.0
6573,77.0,0,90,0.0,0.0
6574,77.0,64,90,2.0,0.0
6575,60.0,0,150,3.0,0.0
6576,45.0,0,90,7.0,0.0
6577,57.0,0,90,5.0,0.0
6578,72.0,0,150,0.0,0.0
6579,53.0,0,150,1.0,0.0
6580,60.0,30,150,4.0,0.0
6581,65.0,2,90,1.0,0.0
6582,45.0,0,90,7.0,0.0
6583,67.0,0,90,1.0,0.0
6584,79.0,0,90,2.0,0.0
6585,79.0,0,90,0.0,0.0
6586,57.0,50,90,5.0,0.0
6587,63.0,0,90,1.0,0.0
6588,65.0,0,90,3.0,0.0
6589,45.0,48,90,7.0,0.0
6590,53.0,0,90,1.0,0.0
6591,57.0,0,90,5.0,0.0
6592,75.0,46,60,2.0,0.0
6593,75.0,0,90,0.0,0.0
6594,72.0,0,90,0.0,0.0
6595,60.0,0,90,4.0,0.0
6596,72.0,0,60,2.0,0.0
6597,74.0,0,60,0.0,0.0
6598,58.0,0,90,4.0,0.0
6599,58.0,0,150,1.0,0.0
6600,62.0,30,150,1.0,0.0
6601,65.0,0,90,3.0,0.0
6602,65.0,0,90,0.0,0.0
6603,46.0,0,90,7.0,0.0
6604,58.0,0,90,5.0,0.0
6605,74.0,48,60,2.0,0.0
6606,77.0,0,60,2.0,0.0
6607,77.0,48,60,0.0,0.0
6608,75.0,0,60,0.0,0.0
6609,67.0,0,90,3.0,0.0
6610,39.0,0,90,7.0,0.0
6611,58.0,0,90,4.0,0.0
6612,51.0,48,90,5.0,0.0
6613,67.0,0,90,0.0,0.0
6614,75.0,18,60,2.0,0.0
6615,74.0,0,60,0.0,0.0
6616,74.0,0,60,2.0,0.0
6617,67.0,96,90,0.0,0.0
6618,40.0,0,90,7.0,0.0
6619,72.0,48,60,0.0,0.0
6620,52.0,0,90,5.0,0.0
6621,67.0,0,90,3.0,0.0
6622,60.0,0,90,4.0,0.0
6623,72.0,0,60,2.0,0.0
6624,70.0,0,60,0.0,0.0
6625,70.0,0,60,2.0,0.0
6626,69.0,0,150,0.0,0.0
6627,41.0,0,90,7.0,0.0
6628,60.0,0,90,3.0,0.0
6629,60.0,0,90,4.0,0.0
6630,53.0,48,90,5.0,0.0
6631,65.0,0,150,0.0,0.0
6632,53.0,30,150,1.0,0.0
6633,69.0,0,90,2.0,0.0
6634,60.0,0,150,1.0,0.0
6635,65.0,0,60,3.0,0.0
6636,65.0,0,60,2.0,0.0
6637,65.0,0,60,4.0,0.0
6638,41.0,18,60,7.0,0.0
6639,53.0,0,60,5.0,0.0
6640,63.0,0,60,4.0,0.0
6641,63.0,48,60,2.0,0.0
6642,63.0,0,60,3.0,0.0
6643,39.0,0,60,7.0,0.0
6644,51.0,0,60,5.0,0.0
6645,62.0,0,60,4.0,0.0
6646,62.0,48,60,2.0,0.0
6647,38.0,0,60,7.0,0.0
6648,62.0,0,60,3.0,0.0
6649,50.0,0,60,5.0,0.0
6650,60.0,0,60,2.0,0.0
6651,60.0,0,60,4.0,0.0
6652,60.0,0,60,3.0,0.0
6653,48.0,0,60,5.0,0.0
6654,36.0,96,60,7.0,0.0
6655,58.0,0,90,2.0,0.0
6656,50.0,96,90,1.0,0.0
6657,58.0,0,90,1.0,0.0
6658,46.0,0,90,5.0,0.0
6659,62.0,0,90,3.0,0.0
6660,70.0,0,90,0.0,0.0
6661,58.0,0,90,3.0,0.0
6662,62.0,0,90,0.0,0.0
6663,58.0,0,90,4.0,0.0
6664,34.0,0,90,7.0,0.0
6665,65.0,0,90,4.0,0.0
6666,46.0,0,90,5.0,0.0
6667,62.0,0,90,0.0,0.0
6668,58.0,0,90,1.0,0.0
6669,70.0,0,90,2.0,0.0
6670,62.0,0,90,2.0,0.0
6671,50.0,96,90,1.0,0.0
6672,34.0,0,90,7.0,0.0
6673,58.0,0,90,3.0,0.0
6674,62.0,0,90,3.0,0.0
6675,70.0,0,90,0.0,0.0
6676,58.0,0,90,3.0,0.0
6677,62.0,0,90,3.0,0.0
6678,62.0,0,90,2.0,0.0
6679,62.0,0,90,0.0,0.0
6680,65.0,0,90,4.0,0.0
6681,34.0,0,90,7.0,0.0
6682,70.0,96,90,0.0,0.0
6683,70.0,0,90,2.0,0.0
6684,50.0,0,90,1.0,0.0
6685,58.0,0,90,1.0,0.0
6686,46.0,0,90,5.0,0.0
6687,58.0,0,270,1.0,0.0
6688,62.0,8,270,0.0,0.0
6689,50.0,0,270,1.0,0.0
6690,34.0,0,90,7.0,0.0
6691,46.0,66,90,5.0,0.0
6692,62.0,0,150,3.0,0.0
6693,65.0,0,90,4.0,0.0
6694,58.0,0,150,3.0,0.0
6695,62.0,30,150,2.0,0.0
6696,70.0,0,270,0.0,0.0
6697,70.0,0,150,2.0,0.0
6698,46.0,26,90,7.0,0.0
6699,58.0,0,90,5.0,0.0
6700,65.0,0,90,4.0,0.0
6701,65.0,0,90,4.0,0.0
6702,46.0,0,90,7.0,0.0
6703,70.0,24,20,2.0,0.0
6704,58.0,0,90,5.0,0.0
6705,62.0,0,20,3.0,0.0
6706,60.0,16,20,3.0,0.0
6707,69.0,0,20,2.0,0.0
6708,70.0,22,20,2.0,0.0
6709,62.0,0,20,3.0,0.0
6710,63.0,0,20,3.0,0.0
6711,72.0,96,20,2.0,0.0
6712,62.0,66,90,4.0,0.0
6713,58.0,0,90,5.0,0.0
6714,58.0,0,270,1.0,0.0
6715,62.0,8,270,1.0,0.0
6716,46.0,0,90,7.0,0.0
6717,65.0,0,150,3.0,0.0
6718,74.0,30,150,2.0,0.0
6719,70.0,0,150,0.0,0.0
6720,74.0,0,150,0.0,0.0
6721,46.0,26,90,7.0,0.0
6722,58.0,0,90,4.0,0.0
6723,58.0,0,90,5.0,0.0
6724,46.0,0,90,7.0,0.0
6725,58.0,0,90,5.0,0.0
6726,74.0,0,20,2.0,0.0
6727,70.0,0,20,0.0,0.0
6728,70.0,0,20,3.0,0.0
6729,65.0,0,90,4.0,0.0
6730,74.0,24,20,0.0,0.0
6731,69.0,0,20,3.0,0.0
6732,72.0,0,20,2.0,0.0
6733,69.0,16,20,0.0,0.0
6734,72.0,0,20,0.0,0.0
6735,74.0,0,20,0.0,0.0
6736,74.0,0,20,2.0,0.0
6737,70.0,0,20,3.0,0.0
6738,70.0,22,20,0.0,0.0
6739,72.0,48,20,0.0,0.0
6740,75.0,0,20,2.0,0.0
6741,72.0,0,20,3.0,0.0
6742,75.0,0,20,0.0,0.0
6743,58.0,0,90,5.0,0.0
6744,77.0,30,150,0.0,0.0
6745,74.0,0,90,0.0,0.0
6746,65.0,0,150,1.0,0.0
6747,65.0,48,60,4.0,0.0
6748,46.0,0,90,7.0,0.0
6749,77.0,0,150,2.0,0.0
6750,74.0,0,90,3.0,0.0
6751,62.0,0,90,1.0,0.0
6752,65.0,48,60,4.0,0.0
6753,72.0,0,90,3.0,0.0
6754,72.0,0,90,0.0,0.0
6755,45.0,0,90,7.0,0.0
6756,60.0,48,90,1.0,0.0
6757,57.0,0,90,5.0,0.0
6758,65.0,18,60,4.0,0.0
6759,65.0,0,60,4.0,0.0
6760,53.0,0,90,5.0,0.0
6761,65.0,48,60,4.0,0.0
6762,69.0,0,90,0.0,0.0
6763,75.0,0,90,2.0,0.0
6764,63.0,0,90,1.0,0.0
6765,75.0,0,90,0.0,0.0
6766,41.0,0,90,7.0,0.0
6767,53.0,0,90,1.0,0.0
6768,69.0,0,90,3.0,0.0
6769,65.0,48,60,4.0,0.0
6770,65.0,30,150,3.0,0.0
6771,65.0,48,60,4.0,0.0
6772,70.0,0,150,0.0,0.0
6773,74.0,0,90,0.0,0.0
6774,62.0,0,150,1.0,0.0
6775,53.0,0,150,1.0,0.0
6776,46.0,0,90,7.0,0.0
6777,58.0,0,90,5.0,0.0
6778,74.0,0,90,2.0,0.0
6779,65.0,48,60,4.0,0.0
6780,62.0,0,90,5.0,0.0
6781,50.0,0,90,7.0,0.0
6782,82.0,0,90,2.0,0.0
6783,82.0,0,90,0.0,0.0
6784,65.0,18,60,4.0,0.0
6785,65.0,50,60,4.0,0.0
6786,60.0,0,90,4.0,0.0
6787,70.0,0,60,0.0,0.0
6788,43.0,0,90,7.0,0.0
6789,79.0,0,60,2.0,0.0
6790,79.0,46,60,0.0,0.0
6791,70.0,0,90,3.0,0.0
6792,55.0,0,90,5.0,0.0
6793,76.0,0,60,2.0,0.0
6794,76.0,0,60,0.0,0.0
6795,64.0,0,60,1.0,0.0
6796,67.0,48,60,0.0,0.0
6797,72.0,0,60,0.0,0.0
6798,60.0,0,90,4.0,0.0
6799,77.0,30,150,2.0,0.0
6800,45.0,0,60,7.0,0.0
6801,72.0,0,60,3.0,0.0
6802,57.0,48,60,5.0,0.0
6803,65.0,0,150,1.0,0.0
6804,77.0,0,150,0.0,0.0
6805,53.0,0,90,1.0,0.0
6806,70.0,0,60,0.0,0.0
6807,70.0,0,60,3.0,0.0
6808,43.0,0,60,7.0,0.0
6809,55.0,48,60,5.0,0.0
6810,65.0,18,60,4.0,0.0
6811,41.0,0,90,7.0,0.0
6812,53.0,0,90,1.0,0.0
6813,53.0,48,90,5.0,0.0
6814,69.0,0,90,0.0,0.0
6815,69.0,0,90,3.0,0.0
6816,65.0,0,60,4.0,0.0
6817,57.0,0,90,5.0,0.0
6818,65.0,48,60,4.0,0.0
6819,63.0,96,90,1.0,0.0
6820,45.0,0,90,7.0,0.0
6821,72.0,0,90,0.0,0.0
6822,72.0,0,90,3.0,0.0
6823,75.0,0,90,2.0,0.0
6824,75.0,0,90,0.0,0.0
6825,53.0,0,90,1.0,0.0
6826,65.0,0,60,4.0,0.0
6827,74.0,0,90,2.0,0.0
6828,65.0,66,90,4.0,0.0
6829,65.0,0,90,0.0,0.0
6830,65.0,0,90,3.0,0.0
6831,58.0,0,90,5.0,0.0
6832,74.0,0,90,0.0,0.0
6833,53.0,30,150,1.0,0.0
6834,62.0,0,150,1.0,0.0
6835,46.0,0,90,7.0,0.0
6836,74.0,0,90,0.0,0.0
6837,74.0,50,90,3.0,0.0
6838,65.0,0,90,4.0,0.0
6839,46.0,0,90,7.0,0.0
6840,58.0,0,90,5.0,0.0
6841,82.0,0,90,0.0,0.0
6842,82.0,0,90,2.0,0.0
6843,70.0,0,60,0.0,0.0
6844,58.0,0,90,5.0,0.0
6845,70.0,0,60,3.0,0.0
6846,46.0,0,90,7.0,0.0
6847,79.0,0,60,0.0,0.0
6848,79.0,46,60,2.0,0.0
6849,67.0,0,60,0.0,0.0
6850,76.0,0,60,0.0,0.0
6851,60.0,0,60,4.0,0.0
6852,76.0,0,60,2.0,0.0
6853,67.0,0,60,3.0,0.0
6854,64.0,96,60,1.0,0.0
6855,72.0,0,150,0.0,0.0
6856,60.0,30,150,3.0,0.0
6857,45.0,0,90,7.0,0.0
6858,53.0,0,90,1.0,0.0
6859,77.0,0,90,0.0,0.0
6860,65.0,66,90,1.0,0.0
6861,60.0,0,150,4.0,0.0
6862,57.0,0,90,5.0,0.0
6863,77.0,0,90,2.0,0.0
6864,79.0,0,90,2.0,0.0
6865,79.0,48,90,0.0,0.0
6866,67.0,0,90,1.0,0.0
6867,57.0,0,90,5.0,0.0
6868,53.0,0,90,1.0,0.0
6869,45.0,0,90,7.0,0.0
6870,60.0,0,90,4.0,0.0
6871,63.0,2,60,1.0,0.0
6872,53.0,0,90,1.0,0.0
6873,65.0,0,90,3.0,0.0
6874,45.0,48,90,7.0,0.0
6875,57.0,0,90,5.0,0.0
6876,75.0,46,60,2.0,0.0
6877,75.0,0,60,0.0,0.0
6878,65.0,0,90,0.0,0.0
6879,60.0,0,60,1.0,0.0
6880,72.0,0,60,2.0,0.0
6881,72.0,0,60,0.0,0.0
6882,46.0,0,90,7.0,0.0
6883,65.0,0,90,3.0,0.0
6884,62.0,0,90,1.0,0.0
6885,58.0,0,90,4.0,0.0
6886,74.0,0,60,0.0,0.0
6887,74.0,48,60,2.0,0.0
6888,65.0,0,90,0.0,0.0
6889,58.0,0,90,1.0,0.0
6890,58.0,0,90,5.0,0.0
6891,77.0,0,60,0.0,0.0
6892,77.0,96,60,2.0,0.0
6893,65.0,0,90,0.0,0.0
6894,70.0,0,90,2.0,0.0
6895,58.0,0,90,1.0,0.0
6896,53.0,0,90,5.0,0.0
6897,62.0,0,90,3.0,0.0
6898,62.0,96,90,1.0,0.0
6899,41.0,0,90,7.0,0.0
6900,70.0,0,90,0.0,0.0
6901,69.0,0,90,2.0,0.0
6902,29.0,0,90,7.0,0.0
6903,60.0,0,90,3.0,0.0
6904,41.0,0,90,5.0,0.0
6905,53.0,162,90,1.0,0.0
6906,63.0,0,90,0.0,0.0
6907,69.0,0,90,0.0,0.0
6908,60.0,0,90,1.0,0.0
6909,63.0,0,90,4.0,0.0
6910,46.0,0,150,5.0,0.0
6911,70.0,0,150,2.0,0.0
6912,58.0,0,150,1.0,0.0
6913,62.0,222,150,3.0,0.0
6914,70.0,0,150,0.0,0.0
6915,62.0,0,150,0.0,0.0
6916,62.0,0,150,4.0,0.0
6917,34.0,0,150,7.0,0.0
6918,50.0,0,150,1.0,0.0
6919,55.0,2,90,3.0,0.0
6920,55.0,30,270,4.0,0.0
6921,79.0,96,90,2.0,0.0
6922,59.0,64,90,3.0,0.0
6923,77.0,0,90,2.0,0.0
6924,75.0,0,90,2.0,0.0
6925,60.0,96,90,3.0,0.0
6926,55.0,2,90,3.0,0.0
6927,75.0,96,90,2.0,0.0
6928,55.0,30,270,4.0,0.0
6929,65.0,0,90,3.0,0.0
6930,74.0,64,90,2.0,0.0
6931,72.0,98,90,2.0,0.0
6932,63.0,0,90,3.0,0.0
6933,43.0,30,270,7.0,0.0
6934,67.0,0,90,2.0,0.0
6935,79.0,96,90,0.0,0.0
6936,55.0,0,270,5.0,0.0
6937,67.0,0,90,3.0,0.0
6938,71.0,0,90,0.0,0.0
6939,71.0,0,90,4.0,0.0
6940,69.0,0,90,2.0,0.0
6941,78.0,0,90,0.0,0.0
6942,72.0,0,90,0.0,0.0
6943,66.0,64,90,3.0,0.0
6944,72.0,0,90,4.0,0.0
6945,71.0,0,90,2.0,0.0
6946,74.0,0,90,0.0,0.0
6947,77.0,96,90,0.0,0.0
6948,65.0,0,90,3.0,0.0
6949,74.0,2,90,4.0,0.0
6950,67.0,0,270,0.0,0.0
6951,72.0,0,90,2.0,0.0
6952,31.0,0,270,7.0,0.0
6953,67.0,96,90,4.0,0.0
6954,63.0,0,90,3.0,0.0
6955,43.0,30,270,5.0,0.0
6956,75.0,0,90,0.0,0.0
6957,74.0,0,90,2.0,0.0
6958,74.0,64,90,0.0,0.0
6959,65.0,0,90,4.0,0.0
6960,62.0,0,90,3.0,0.0
6961,75.0,96,90,2.0,0.0
6962,72.0,0,90,0.0,0.0
6963,60.0,0,90,3.0,0.0
6964,63.0,0,90,4.0,0.0
6965,77.0,96,90,2.0,0.0
6966,53.0,0,270,4.0,0.0
6967,53.0,0,270,1.0,0.0
6968,65.0,2,90,3.0,0.0
6969,75.0,0,90,2.0,0.0
6970,57.0,64,90,3.0,0.0
6971,58.0,98,90,3.0,0.0
6972,74.0,0,90,2.0,0.0
6973,53.0,0,270,4.0,0.0
6974,53.0,0,270,1.0,0.0
6975,65.0,0,90,3.0,0.0
6976,74.0,96,90,2.0,0.0
6977,63.0,0,90,3.0,0.0
6978,72.0,64,90,2.0,0.0
6979,70.0,98,90,2.0,0.0
6980,62.0,0,90,3.0,0.0
6981,77.0,0,90,0.0,0.0
6982,53.0,0,270,5.0,0.0
6983,69.0,96,90,0.0,0.0
6984,69.0,0,90,4.0,0.0
6985,41.0,30,270,7.0,0.0
6986,65.0,0,90,2.0,0.0
6987,53.0,0,270,1.0,0.0
6988,65.0,0,90,3.0,0.0
6989,70.0,0,90,4.0,0.0
6990,70.0,0,90,0.0,0.0
6991,67.0,0,90,2.0,0.0
6992,64.0,0,90,3.0,0.0
6993,76.0,64,90,0.0,0.0
6994,69.0,0,90,2.0,0.0
6995,72.0,96,90,0.0,0.0
6996,75.0,0,90,0.0,0.0
6997,72.0,2,90,4.0,0.0
6998,63.0,0,90,3.0,0.0
6999,29.0,0,270,7.0,0.0
7000,53.0,0,270,1.0,0.0
7001,41.0,0,270,5.0,0.0
7002,62.0,0,90,3.0,0.0
7003,74.0,0,90,0.0,0.0
7004,65.0,30,270,0.0,0.0
7005,70.0,0,90,2.0,0.0
7006,65.0,96,90,4.0,0.0
7007,72.0,0,90,0.0,0.0
7008,72.0,0,90,2.0,0.0
7009,63.0,0,90,4.0,0.0
7010,60.0,64,90,3.0,0.0
7011,62.0,0,90,4.0,0.0
7012,70.0,0,90,0.0,0.0
7013,58.0,96,90,3.0,0.0
7014,74.0,0,90,2.0,0.0
7015,63.0,0,90,4.0,0.0
7016,72.0,98,90,2.0,0.0
7017,67.0,30,270,3.0,0.0
7018,75.0,0,90,2.0,0.0
7019,67.0,64,90,4.0,0.0
7020,74.0,96,90,2.0,0.0
7021,65.0,0,90,4.0,0.0
7022,63.0,98,90,4.0,0.0
7023,72.0,0,90,2.0,0.0
7024,67.0,30,270,3.0,0.0
7025,67.0,0,90,4.0,0.0
7026,75.0,64,90,2.0,0.0
7027,74.0,98,90,2.0,0.0
7028,65.0,0,90,4.0,0.0
7029,72.0,64,90,2.0,0.0
7030,67.0,0,150,3.0,0.0
7031,63.0,30,150,4.0,0.0
7032,74.0,96,90,2.0,0.0
7033,67.0,0,90,3.0,0.0
7034,70.0,0,90,2.0,0.0
7035,64.0,96,90,4.0,0.0
7036,65.0,0,150,4.0,0.0
7037,69.0,66,90,2.0,0.0
7038,65.0,30,150,3.0,0.0
7039,65.0,2,90,2.0,0.0
7040,41.0,94,90,7.0,0.0
7041,53.0,0,90,5.0,0.0
7042,50.0,0,90,5.0,0.0
7043,38.0,96,90,7.0,0.0
7044,67.0,0,270,3.0,0.0
7045,51.0,30,270,5.0,0.0
7046,67.0,0,270,0.0,0.0
7047,63.0,0,90,4.0,0.0
7048,72.0,66,90,2.0,0.0
7049,60.0,0,150,1.0,0.0
7050,72.0,0,90,0.0,0.0
7051,39.0,0,270,7.0,0.0
7052,75.0,0,90,2.0,0.0
7053,67.0,64,90,4.0,0.0
7054,75.0,0,90,0.0,0.0
7055,65.0,96,90,4.0,0.0
7056,74.0,0,90,0.0,0.0
7057,74.0,0,90,2.0,0.0
7058,63.0,66,90,4.0,0.0
7059,51.0,0,270,5.0,0.0
7060,67.0,30,270,3.0,0.0
7061,72.0,0,90,0.0,0.0
7062,67.0,0,270,0.0,0.0
7063,60.0,0,150,1.0,0.0
7064,39.0,0,270,7.0,0.0
7065,72.0,0,90,2.0,0.0
7066,75.0,0,90,0.0,0.0
7067,75.0,64,90,2.0,0.0
7068,67.0,0,90,4.0,0.0
7069,74.0,0,90,0.0,0.0
7070,74.0,98,90,2.0,0.0
7071,65.0,0,90,4.0,0.0
7072,67.0,30,150,0.0,0.0
7073,63.0,0,150,4.0,0.0
7074,72.0,64,90,2.0,0.0
7075,67.0,0,150,3.0,0.0
7076,51.0,0,150,5.0,0.0
7077,39.0,0,150,7.0,0.0
7078,60.0,0,150,1.0,0.0
7079,72.0,0,90,0.0,0.0
7080,74.0,0,90,0.0,0.0
7081,74.0,96,90,2.0,0.0
7082,40.0,0,90,7.0,0.0
7083,70.0,0,90,0.0,0.0
7084,67.0,0,90,3.0,0.0
7085,67.0,0,90,0.0,0.0
7086,70.0,0,90,2.0,0.0
7087,60.0,0,90,1.0,0.0
7088,52.0,0,90,5.0,0.0
7089,60.0,0,90,4.0,0.0
7090,60.0,0,90,4.0,0.0
7091,53.0,30,150,1.0,0.0
7092,53.0,0,90,5.0,0.0
7093,60.0,0,150,1.0,0.0
7094,69.0,0,150,0.0,0.0
7095,69.0,48,60,2.0,0.0
7096,41.0,48,90,7.0,0.0
7097,65.0,0,60,3.0,0.0
7098,65.0,0,150,0.0,0.0
7099,70.0,0,60,2.0,0.0
7100,67.0,0,60,3.0,0.0
7101,69.0,0,60,3.0,0.0
7102,53.0,0,60,5.0,0.0
7103,65.0,18,60,4.0,0.0
7104,69.0,0,60,2.0,0.0
7105,41.0,0,60,7.0,0.0
7106,39.0,0,60,7.0,0.0
7107,51.0,0,60,5.0,0.0
7108,63.0,0,60,4.0,0.0
7109,67.0,0,60,2.0,0.0
7110,67.0,48,60,3.0,0.0
7111,62.0,0,60,4.0,0.0
7112,65.0,48,60,3.0,0.0
7113,38.0,0,60,7.0,0.0
7114,50.0,0,60,5.0,0.0
7115,65.0,0,60,2.0,0.0
7116,36.0,96,60,7.0,0.0
7117,48.0,0,60,5.0,0.0
7118,63.0,0,60,3.0,0.0
7119,60.0,0,60,4.0,0.0
7120,63.0,0,60,2.0,0.0
7121,62.0,0,90,0.0,0.0
7122,62.0,0,90,2.0,0.0
7123,34.0,0,90,7.0,0.0
7124,50.0,0,90,1.0,0.0
7125,70.0,0,90,0.0,0.0
7126,46.0,0,90,5.0,0.0
7127,58.0,96,90,1.0,0.0
7128,58.0,0,90,4.0,0.0
7129,62.0,0,90,3.0,0.0
7130,62.0,0,90,0.0,0.0
7131,50.0,96,90,1.0,0.0
7132,62.0,0,90,2.0,0.0
7133,70.0,0,90,2.0,0.0
7134,58.0,0,90,3.0,0.0
7135,62.0,0,90,3.0,0.0
7136,58.0,0,90,1.0,0.0
7137,62.0,0,90,4.0,0.0
7138,70.0,0,90,0.0,0.0
7139,46.0,0,90,5.0,0.0
7140,34.0,0,90,7.0,0.0
7141,34.0,0,90,7.0,0.0
7142,46.0,0,90,5.0,0.0
7143,70.0,96,90,2.0,0.0
7144,50.0,0,90,1.0,0.0
7145,62.0,0,90,3.0,0.0
7146,58.0,0,90,3.0,0.0
7147,58.0,0,90,1.0,0.0
7148,70.0,0,90,0.0,0.0
7149,62.0,0,90,2.0,0.0
7150,62.0,0,90,4.0,0.0
7151,62.0,0,90,0.0,0.0
7152,62.0,0,150,0.0,0.0
7153,70.0,0,150,2.0,0.0
7154,65.0,0,90,4.0,0.0
7155,46.0,0,90,5.0,0.0
7156,58.0,0,150,1.0,0.0
7157,62.0,0,150,3.0,0.0
7158,58.0,0,150,3.0,0.0
7159,62.0,30,150,2.0,0.0
7160,34.0,66,90,7.0,0.0
7161,70.0,0,150,0.0,0.0
7162,50.0,0,150,1.0,0.0
7163,65.0,0,90,4.0,0.0
7164,46.0,26,90,5.0,0.0
7165,34.0,0,90,7.0,0.0
7166,70.0,24,20,2.0,0.0
7167,65.0,96,90,4.0,0.0
7168,62.0,0,20,3.0,0.0
7169,46.0,0,90,5.0,0.0
7170,34.0,0,90,7.0,0.0
7171,69.0,24,20,2.0,0.0
7172,60.0,0,20,3.0,0.0
7173,62.0,0,20,3.0,0.0
7174,70.0,22,20,2.0,0.0
7175,63.0,0,20,3.0,0.0
7176,72.0,0,20,2.0,0.0
7177,46.0,0,90,5.0,0.0
7178,74.0,0,150,2.0,0.0
7179,62.0,64,90,4.0,0.0
7180,74.0,0,150,0.0,0.0
7181,65.0,0,150,0.0,0.0
7182,58.0,30,150,1.0,0.0
7183,62.0,0,150,1.0,0.0
7184,34.0,2,90,7.0,0.0
7185,65.0,0,150,3.0,0.0
7186,58.0,0,90,4.0,0.0
7187,58.0,26,90,5.0,0.0
7188,46.0,0,90,7.0,0.0
7189,65.0,0,20,3.0,0.0
7190,46.0,96,90,7.0,0.0
7191,58.0,0,90,5.0,0.0
7192,74.0,24,20,2.0,0.0
7193,64.0,24,20,3.0,0.0
7194,72.0,0,20,2.0,0.0
7195,74.0,22,20,2.0,0.0
7196,65.0,0,20,3.0,0.0
7197,76.0,0,20,2.0,0.0
7198,67.0,0,20,3.0,0.0
7199,77.0,30,150,2.0,0.0
7200,53.0,0,150,1.0,0.0
7201,57.0,0,90,5.0,0.0
7202,45.0,0,90,7.0,0.0
7203,65.0,0,150,1.0,0.0
7204,60.0,66,90,3.0,0.0
7205,77.0,0,150,0.0,0.0
7206,65.0,0,90,4.0,0.0
7207,65.0,94,90,3.0,0.0
7208,69.0,0,90,0.0,0.0
7209,53.0,2,90,5.0,0.0
7210,41.0,0,90,7.0,0.0
7211,72.0,0,90,0.0,0.0
7212,65.0,0,90,4.0,0.0
7213,45.0,96,90,7.0,0.0
7214,63.0,0,90,1.0,0.0
7215,53.0,0,90,1.0,0.0
7216,57.0,0,90,5.0,0.0
7217,75.0,0,90,2.0,0.0
7218,69.0,0,90,3.0,0.0
7219,75.0,0,90,0.0,0.0
7220,62.0,0,150,1.0,0.0
7221,74.0,0,90,2.0,0.0
7222,65.0,0,90,3.0,0.0
7223,65.0,0,90,4.0,0.0
7224,74.0,0,90,0.0,0.0
7225,58.0,30,150,1.0,0.0
7226,58.0,0,90,5.0,0.0
7227,46.0,66,90,7.0,0.0
7228,65.0,0,90,0.0,0.0
7229,74.0,0,90,3.0,0.0
7230,46.0,0,90,5.0,0.0
7231,34.0,0,90,7.0,0.0
7232,82.0,0,90,0.0,0.0
7233,82.0,0,90,2.0,0.0
7234,65.0,0,90,4.0,0.0
7235,74.0,50,90,0.0,0.0
7236,70.0,46,60,0.0,0.0
7237,79.0,0,60,2.0,0.0
7238,58.0,0,90,5.0,0.0
7239,46.0,0,90,7.0,0.0
7240,70.0,0,60,3.0,0.0
7241,79.0,0,60,0.0,0.0
7242,64.0,96,60,1.0,0.0
7243,60.0,0,60,4.0,0.0
7244,76.0,0,60,0.0,0.0
7245,67.0,0,60,3.0,0.0
7246,60.0,0,60,1.0,0.0
7247,76.0,0,60,2.0,0.0
7248,67.0,0,60,0.0,0.0
7249,60.0,0,90,3.0,0.0
7250,77.0,0,150,0.0,0.0
7251,72.0,0,90,0.0,0.0
7252,60.0,48,90,4.0,0.0
7253,77.0,0,150,2.0,0.0
7254,53.0,0,150,1.0,0.0
7255,65.0,30,150,1.0,0.0
7256,57.0,0,90,5.0,0.0
7257,45.0,0,90,7.0,0.0
7258,69.0,0,60,3.0,0.0
7259,60.0,0,90,4.0,0.0
7260,53.0,0,60,5.0,0.0
7261,69.0,18,60,0.0,0.0
7262,41.0,0,60,7.0,0.0
7263,70.0,96,60,3.0,0.0
7264,43.0,0,60,7.0,0.0
7265,55.0,0,60,5.0,0.0
7266,70.0,0,60,0.0,0.0
7267,75.0,0,90,2.0,0.0
7268,75.0,0,90,0.0,0.0
7269,45.0,0,90,7.0,0.0
7270,72.0,0,90,0.0,0.0
7271,57.0,0,90,5.0,0.0
7272,65.0,0,90,4.0,0.0
7273,63.0,0,90,1.0,0.0
7274,72.0,0,90,3.0,0.0
7275,53.0,96,90,1.0,0.0
7276,62.0,0,150,1.0,0.0
7277,74.0,66,90,2.0,0.0
7278,46.0,30,150,1.0,0.0
7279,65.0,0,90,0.0,0.0
7280,65.0,0,90,4.0,0.0
7281,65.0,0,90,3.0,0.0
7282,74.0,0,90,0.0,0.0
7283,58.0,0,90,5.0,0.0
7284,46.0,0,90,7.0,0.0
7285,58.0,0,90,5.0,0.0
7286,82.0,0,90,0.0,0.0
7287,82.0,0,90,2.0,0.0
7288,65.0,50,90,4.0,0.0
7289,74.0,0,90,3.0,0.0
7290,46.0,0,90,7.0,0.0
7291,74.0,0,90,0.0,0.0
7292,79.0,0,60,0.0,0.0
7293,70.0,0,60,0.0,0.0
7294,79.0,46,60,2.0,0.0
7295,46.0,0,90,7.0,0.0
7296,58.0,0,90,5.0,0.0
7297,70.0,0,60,3.0,0.0
7298,76.0,0,60,2.0,0.0
7299,67.0,0,60,3.0,0.0
7300,76.0,0,60,0.0,0.0
7301,64.0,0,60,1.0,0.0
7302,60.0,96,60,4.0,0.0
7303,60.0,0,60,1.0,0.0
7304,67.0,0,60,0.0,0.0
7305,77.0,0,90,2.0,0.0
7306,57.0,0,90,5.0,0.0
7307,60.0,0,150,4.0,0.0
7308,72.0,0,150,0.0,0.0
7309,65.0,0,90,1.0,0.0
7310,77.0,64,90,0.0,0.0
7311,60.0,0,150,3.0,0.0
7312,45.0,2,90,7.0,0.0
7313,53.0,30,150,1.0,0.0
7314,79.0,0,90,2.0,0.0
7315,79.0,0,90,0.0,0.0
7316,57.0,0,90,5.0,0.0
7317,67.0,0,90,1.0,0.0
7318,45.0,50,90,7.0,0.0
7319,63.0,0,90,1.0,0.0
7320,75.0,46,60,2.0,0.0
7321,65.0,0,90,3.0,0.0
7322,45.0,0,90,7.0,0.0
7323,57.0,0,90,5.0,0.0
7324,75.0,0,90,0.0,0.0
7325,72.0,0,90,0.0,0.0
7326,53.0,0,90,1.0,0.0
7327,60.0,48,90,4.0,0.0
7328,72.0,0,60,2.0,0.0
7329,74.0,0,60,0.0,0.0
7330,58.0,0,90,4.0,0.0
7331,58.0,48,90,5.0,0.0
7332,65.0,0,90,0.0,0.0
7333,58.0,30,150,1.0,0.0
7334,62.0,0,150,1.0,0.0
7335,74.0,48,60,2.0,0.0
7336,46.0,0,90,7.0,0.0
7337,65.0,0,90,3.0,0.0
7338,77.0,0,60,2.0,0.0
7339,77.0,0,60,0.0,0.0
7340,75.0,18,60,0.0,0.0
7341,51.0,0,90,5.0,0.0
7342,75.0,0,60,2.0,0.0
7343,67.0,48,90,3.0,0.0
7344,67.0,0,90,0.0,0.0
7345,39.0,0,90,7.0,0.0
7346,58.0,0,90,4.0,0.0
7347,74.0,0,60,2.0,0.0
7348,74.0,0,60,0.0,0.0
7349,67.0,96,90,0.0,0.0
7350,72.0,48,60,0.0,0.0
7351,67.0,0,90,3.0,0.0
7352,60.0,0,90,4.0,0.0
7353,40.0,0,90,7.0,0.0
7354,52.0,0,90,5.0,0.0
7355,72.0,0,60,2.0,0.0
7356,70.0,0,60,0.0,0.0
7357,70.0,0,60,2.0,0.0
7358,69.0,0,90,2.0,0.0
7359,60.0,0,150,1.0,0.0
7360,41.0,0,90,7.0,0.0
7361,69.0,0,150,0.0,0.0
7362,53.0,0,90,5.0,0.0
7363,65.0,0,150,0.0,0.0
7364,53.0,30,150,1.0,0.0
7365,60.0,0,90,3.0,0.0
7366,60.0,48,90,4.0,0.0
7367,65.0,18,60,3.0,0.0
7368,65.0,0,60,2.0,0.0
7369,41.0,0,60,7.0,0.0
7370,65.0,0,60,4.0,0.0
7371,53.0,0,60,5.0,0.0
7372,51.0,0,60,5.0,0.0
7373,63.0,0,60,2.0,0.0
7374,39.0,0,60,7.0,0.0
7375,63.0,0,60,3.0,0.0
7376,63.0,48,60,4.0,0.0
7377,62.0,48,60,4.0,0.0
7378,50.0,0,60,5.0,0.0
7379,62.0,0,60,2.0,0.0
7380,38.0,0,60,7.0,0.0
7381,62.0,0,60,3.0,0.0
7382,60.0,0,60,4.0,0.0
7383,60.0,0,60,2.0,0.0
7384,60.0,0,60,3.0,0.0
7385,36.0,96,60,7.0,0.0
7386,48.0,0,60,5.0,0.0
7387,58.0,0,90,3.0,0.0
7388,46.0,0,90,5.0,0.0
7389,58.0,0,90,1.0,0.0
7390,50.0,0,90,1.0,0.0
7391,58.0,0,90,2.0,0.0
7392,34.0,0,90,7.0,0.0
7393,62.0,96,90,3.0,0.0
7394,58.0,0,90,4.0,0.0
7395,62.0,0,90,0.0,0.0
7396,70.0,0,90,0.0,0.0
7397,46.0,0,90,5.0,0.0
7398,58.0,0,90,3.0,0.0
7399,62.0,0,90,3.0,0.0
7400,62.0,0,90,2.0,0.0
7401,50.0,0,90,1.0,0.0
7402,70.0,0,90,2.0,0.0
7403,58.0,96,90,1.0,0.0
7404,34.0,0,90,7.0,0.0
7405,65.0,0,90,4.0,0.0
7406,62.0,0,90,0.0,0.0
7407,70.0,0,90,0.0,0.0
7408,50.0,96,90,1.0,0.0
7409,58.0,0,90,1.0,0.0
7410,34.0,0,90,7.0,0.0
7411,62.0,0,90,0.0,0.0
7412,70.0,0,90,2.0,0.0
7413,46.0,0,90,5.0,0.0
7414,62.0,0,90,2.0,0.0
7415,70.0,0,90,0.0,0.0
7416,62.0,0,90,3.0,0.0
7417,58.0,0,90,3.0,0.0
7418,65.0,0,90,4.0,0.0
7419,62.0,0,150,2.0,0.0
7420,65.0,0,90,4.0,0.0
7421,70.0,8,270,0.0,0.0
7422,70.0,0,150,2.0,0.0
7423,62.0,30,150,3.0,0.0
7424,62.0,0,270,0.0,0.0
7425,58.0,0,150,3.0,0.0
7426,34.0,66,90,7.0,0.0
7427,50.0,0,270,1.0,0.0
7428,58.0,0,270,1.0,0.0
7429,46.0,0,90,5.0,0.0
7430,65.0,0,90,4.0,0.0
7431,58.0,26,90,5.0,0.0
7432,46.0,0,90,7.0,0.0
7433,62.0,0,20,3.0,0.0
7434,58.0,0,90,5.0,0.0
7435,70.0,24,20,2.0,0.0
7436,46.0,0,90,7.0,0.0
7437,65.0,96,90,4.0,0.0
7438,69.0,0,20,2.0,0.0
7439,60.0,16,20,3.0,0.0
7440,62.0,0,20,3.0,0.0
7441,70.0,22,20,2.0,0.0
7442,63.0,0,20,3.0,0.0
7443,72.0,0,20,2.0,0.0
7444,74.0,30,150,2.0,0.0
7445,58.0,8,270,1.0,0.0
7446,58.0,66,90,5.0,0.0
7447,46.0,0,90,7.0,0.0
7448,65.0,0,150,3.0,0.0
7449,62.0,0,270,1.0,0.0
7450,62.0,0,90,4.0,0.0
7451,70.0,0,150,0.0,0.0
7452,74.0,0,150,0.0,0.0
7453,46.0,0,90,7.0,0.0
7454,58.0,26,90,5.0,0.0
7455,58.0,0,90,4.0,0.0
7456,46.0,0,90,7.0,0.0
7457,70.0,0,20,3.0,0.0
7458,74.0,24,20,2.0,0.0
7459,65.0,48,90,4.0,0.0
7460,74.0,0,20,0.0,0.0
7461,70.0,0,20,0.0,0.0
7462,58.0,0,90,5.0,0.0
7463,72.0,0,20,0.0,0.0
7464,72.0,0,20,2.0,0.0
7465,69.0,16,20,3.0,0.0
7466,69.0,0,20,0.0,0.0
7467,74.0,22,20,0.0,0.0
7468,70.0,0,20,0.0,0.0
7469,70.0,0,20,3.0,0.0
7470,74.0,0,20,2.0,0.0
7471,75.0,0,20,2.0,0.0
7472,72.0,0,20,0.0,0.0
7473,75.0,0,20,0.0,0.0
7474,72.0,0,20,3.0,0.0
7475,74.0,48,90,3.0,0.0
7476,77.0,0,150,2.0,0.0
7477,65.0,0,150,1.0,0.0
7478,77.0,30,150,0.0,0.0
7479,62.0,0,90,1.0,0.0
7480,74.0,0,90,0.0,0.0
7481,46.0,0,90,7.0,0.0
7482,58.0,0,90,5.0,0.0
7483,65.0,48,60,4.0,0.0
7484,65.0,0,60,4.0,0.0
7485,72.0,0,90,3.0,0.0
7486,57.0,48,90,5.0,0.0
7487,65.0,18,60,4.0,0.0
7488,45.0,0,90,7.0,0.0
7489,72.0,0,90,0.0,0.0
7490,60.0,0,90,1.0,0.0
7491,65.0,0,60,4.0,0.0
7492,63.0,0,90,1.0,0.0
7493,65.0,48,60,4.0,0.0
7494,69.0,0,90,0.0,0.0
7495,41.0,0,90,7.0,0.0
7496,75.0,0,90,0.0,0.0
7497,75.0,48,90,2.0,0.0
7498,53.0,0,90,1.0,0.0
7499,53.0,0,90,5.0,0.0
7500,69.0,0,90,3.0,0.0
7501,65.0,0,60,4.0,0.0
7502,74.0,0,90,2.0,0.0
7503,74.0,0,90,0.0,0.0
7504,46.0,0,90,7.0,0.0
7505,65.0,48,60,4.0,0.0
7506,53.0,30,150,1.0,0.0
7507,70.0,0,150,0.0,0.0
7508,58.0,0,90,5.0,0.0
7509,62.0,0,150,1.0,0.0
7510,65.0,0,150,3.0,0.0
7511,65.0,48,60,4.0,0.0
7512,65.0,18,60,4.0,0.0
7513,82.0,0,90,0.0,0.0
7514,62.0,0,90,5.0,0.0
7515,50.0,0,90,7.0,0.0
7516,82.0,50,90,2.0,0.0
7517,65.0,0,60,4.0,0.0
7518,79.0,0,60,2.0,0.0
7519,55.0,0,90,5.0,0.0
7520,43.0,48,90,7.0,0.0
7521,79.0,46,60,0.0,0.0
7522,70.0,0,90,3.0,0.0
7523,70.0,0,60,0.0,0.0
7524,60.0,0,90,4.0,0.0
7525,67.0,0,60,0.0,0.0
7526,64.0,0,60,1.0,0.0
7527,76.0,0,60,0.0,0.0
7528,76.0,0,60,2.0,0.0
7529,45.0,0,60,7.0,0.0
7530,72.0,48,60,3.0,0.0
7531,77.0,30,150,2.0,0.0
7532,72.0,0,60,0.0,0.0
7533,53.0,48,90,1.0,0.0
7534,65.0,0,150,1.0,0.0
7535,60.0,0,90,4.0,0.0
7536,57.0,0,60,5.0,0.0
7537,77.0,0,150,0.0,0.0
7538,70.0,0,60,0.0,0.0
7539,70.0,0,60,3.0,0.0
7540,55.0,0,60,5.0,0.0
7541,43.0,0,60,7.0,0.0
7542,65.0,18,60,4.0,0.0
7543,53.0,48,90,5.0,0.0
7544,53.0,0,90,1.0,0.0
7545,69.0,0,90,3.0,0.0
7546,69.0,0,90,0.0,0.0
7547,41.0,0,90,7.0,0.0
7548,65.0,0,60,4.0,0.0
7549,65.0,48,60,4.0,0.0
7550,57.0,0,90,5.0,0.0
7551,45.0,0,90,7.0,0.0
7552,72.0,0,90,0.0,0.0
7553,63.0,0,90,1.0,0.0
7554,75.0,0,90,2.0,0.0
7555,72.0,0,90,3.0,0.0
7556,75.0,0,90,0.0,0.0
7557,53.0,96,90,1.0,0.0
7558,65.0,0,60,4.0,0.0
7559,58.0,0,90,5.0,0.0
7560,53.0,30,150,1.0,0.0
7561,65.0,0,90,0.0,0.0
7562,62.0,0,150,1.0,0.0
7563,65.0,66,90,4.0,0.0
7564,74.0,0,90,0.0,0.0
7565,46.0,0,90,7.0,0.0
7566,65.0,0,90,3.0,0.0
7567,74.0,0,90,2.0,0.0
7568,82.0,50,90,2.0,0.0
7569,74.0,0,90,3.0,0.0
7570,58.0,0,90,5.0,0.0
7571,46.0,0,90,7.0,0.0
7572,65.0,0,90,4.0,0.0
7573,82.0,0,90,0.0,0.0
7574,74.0,0,90,0.0,0.0
7575,70.0,0,60,0.0,0.0
7576,46.0,0,90,7.0,0.0
7577,70.0,0,60,3.0,0.0
7578,79.0,46,60,2.0,0.0
7579,58.0,96,90,5.0,0.0
7580,79.0,0,60,0.0,0.0
7581,76.0,0,60,0.0,0.0
7582,67.0,0,60,0.0,0.0
7583,67.0,0,60,3.0,0.0
7584,76.0,0,60,2.0,0.0
7585,64.0,0,60,1.0,0.0
7586,60.0,0,60,4.0,0.0
7587,45.0,0,90,7.0,0.0
7588,65.0,66,90,1.0,0.0
7589,77.0,0,90,2.0,0.0
7590,57.0,0,90,5.0,0.0
7591,60.0,30,150,4.0,0.0
7592,72.0,0,150,0.0,0.0
7593,53.0,0,90,1.0,0.0
7594,60.0,0,150,3.0,0.0
7595,77.0,0,90,0.0,0.0
7596,57.0,0,90,5.0,0.0
7597,79.0,0,90,2.0,0.0
7598,67.0,48,90,1.0,0.0
7599,45.0,0,90,7.0,0.0
7600,53.0,0,90,1.0,0.0
7601,79.0,0,90,0.0,0.0
7602,65.0,0,90,0.0,0.0
7603,53.0,0,90,1.0,0.0
7604,65.0,0,90,3.0,0.0
7605,75.0,0,60,2.0,0.0
7606,45.0,48,90,7.0,0.0
7607,75.0,46,60,0.0,0.0
7608,57.0,0,90,5.0,0.0
7609,60.0,0,90,4.0,0.0
7610,63.0,2,60,1.0,0.0
7611,72.0,0,60,2.0,0.0
7612,60.0,0,60,1.0,0.0
7613,72.0,0,60,0.0,0.0
7614,74.0,0,60,2.0,0.0
7615,65.0,0,90,0.0,0.0
7616,65.0,96,90,3.0,0.0
7617,46.0,0,90,7.0,0.0
7618,74.0,48,60,0.0,0.0
7619,58.0,0,90,1.0,0.0
7620,58.0,0,90,4.0,0.0
7621,58.0,0,90,5.0,0.0
7622,62.0,0,90,1.0,0.0
7623,77.0,0,60,0.0,0.0
7624,77.0,0,60,2.0,0.0
7625,65.0,0,90,0.0,0.0
7626,58.0,0,90,1.0,0.0
7627,70.0,0,90,0.0,0.0
7628,62.0,0,90,3.0,0.0
7629,41.0,0,90,7.0,0.0
7630,62.0,0,90,1.0,0.0
7631,53.0,96,90,5.0,0.0
7632,70.0,0,90,2.0,0.0
7633,41.0,0,90,5.0,0.0
7634,69.0,162,90,2.0,0.0
7635,63.0,0,90,4.0,0.0
7636,29.0,0,90,7.0,0.0
7637,60.0,0,90,1.0,0.0
7638,63.0,0,90,0.0,0.0
7639,69.0,0,90,0.0,0.0
7640,60.0,0,90,3.0,0.0
7641,53.0,0,90,1.0,0.0
7642,70.0,0,150,2.0,0.0
7643,62.0,0,150,3.0,0.0
7644,70.0,0,150,0.0,0.0
7645,34.0,0,150,7.0,0.0
7646,62.0,0,150,4.0,0.0
7647,50.0,416,150,1.0,0.0
7648,46.0,0,150,5.0,0.0
7649,58.0,0,150,1.0,0.0
7650,62.0,0,150,0.0,0.0
7651,46.0,0,390,1.0,0.0
7652,65.0,0,300,3.0,0.0
7653,68.0,0,300,4.0,0.0
7654,58.0,240,390,4.0,0.0
7655,70.0,0,390,2.0,0.0
7656,38.0,0,300,7.0,0.0
7657,58.0,0,390,1.0,0.0
7658,68.0,94,300,2.0,0.0
7659,50.0,0,300,5.0,0.0
7660,51.0,0,90,5.0,0.0
7661,39.0,0,90,7.0,0.0
7662,67.0,0,90,4.0,0.0
7663,63.0,0,90,3.0,0.0
7664,67.0,0,90,2.0,0.0
7665,65.0,0,60,4.0,0.0
7666,41.0,0,60,7.0,0.0
7667,53.0,30,270,1.0,0.0
7668,77.0,0,60,0.0,0.0
7669,65.0,0,60,2.0,0.0
7670,65.0,0,60,3.0,0.0
7671,65.0,0,270,1.0,0.0
7672,53.0,0,60,5.0,0.0
7673,43.0,0,60,7.0,0.0
7674,67.0,0,60,3.0,0.0
7675,67.0,48,60,2.0,0.0
7676,55.0,0,60,5.0,0.0
7677,79.0,0,60,0.0,0.0
7678,67.0,0,60,4.0,0.0
7679,53.0,0,60,5.0,0.0
7680,77.0,0,60,0.0,0.0
7681,65.0,0,60,4.0,0.0
7682,65.0,0,60,3.0,0.0
7683,41.0,48,60,7.0,0.0
7684,65.0,0,60,2.0,0.0
7685,39.0,0,60,7.0,0.0
7686,63.0,0,60,4.0,0.0
7687,63.0,0,60,2.0,0.0
7688,75.0,0,60,0.0,0.0
7689,63.0,0,60,3.0,0.0
7690,51.0,0,60,5.0,0.0
7691,38.0,18,60,7.0,0.0
7692,62.0,0,60,2.0,0.0
7693,50.0,0,60,5.0,0.0
7694,62.0,0,60,4.0,0.0
7695,62.0,0,60,3.0,0.0
7696,74.0,0,60,0.0,0.0
7697,72.0,0,60,0.0,0.0
7698,36.0,0,60,7.0,0.0
7699,60.0,0,60,3.0,0.0
7700,60.0,0,60,4.0,0.0
7701,60.0,96,60,2.0,0.0
7702,48.0,0,60,5.0,0.0
7703,58.0,0,90,3.0,0.0
7704,46.0,0,90,1.0,0.0
7705,46.0,0,90,5.0,0.0
7706,58.0,0,90,4.0,0.0
7707,58.0,0,90,1.0,0.0
7708,70.0,0,90,0.0,0.0
7709,58.0,0,90,2.0,0.0
7710,34.0,482,90,7.0,0.0
7711,38.0,94,300,7.0,0.0
7712,46.0,0,390,1.0,0.0
7713,68.0,0,300,2.0,0.0
7714,70.0,0,390,2.0,0.0
7715,50.0,0,300,5.0,0.0
7716,58.0,0,390,4.0,0.0
7717,58.0,0,390,1.0,0.0
7718,68.0,0,300,4.0,0.0
7719,65.0,0,300,3.0,0.0
7720,67.0,0,90,2.0,0.0
7721,63.0,0,90,3.0,0.0
7722,51.0,240,90,5.0,0.0
7723,39.0,0,90,7.0,0.0
7724,67.0,0,90,4.0,0.0
7725,41.0,0,60,7.0,0.0
7726,65.0,0,60,3.0,0.0
7727,53.0,0,270,1.0,0.0
7728,77.0,0,60,0.0,0.0
7729,65.0,48,60,4.0,0.0
7730,65.0,0,60,2.0,0.0
7731,53.0,0,60,5.0,0.0
7732,65.0,30,270,1.0,0.0
7733,67.0,0,60,2.0,0.0
7734,67.0,0,60,4.0,0.0
7735,43.0,48,60,7.0,0.0
7736,55.0,0,60,5.0,0.0
7737,67.0,0,60,3.0,0.0
7738,79.0,0,60,0.0,0.0
7739,65.0,0,60,2.0,0.0
7740,53.0,0,60,5.0,0.0
7741,77.0,0,60,0.0,0.0
7742,65.0,48,60,3.0,0.0
7743,41.0,0,60,7.0,0.0
7744,65.0,0,60,4.0,0.0
7745,63.0,0,60,4.0,0.0
7746,63.0,0,60,2.0,0.0
7747,51.0,0,60,5.0,0.0
7748,63.0,0,60,3.0,0.0
7749,75.0,0,60,0.0,0.0
7750,39.0,0,60,7.0,0.0
7751,62.0,0,60,4.0,0.0
7752,38.0,0,60,7.0,0.0
7753,62.0,0,60,3.0,0.0
7754,62.0,0,60,2.0,0.0
7755,74.0,0,60,0.0,0.0
7756,50.0,18,60,5.0,0.0
7757,60.0,0,60,4.0,0.0
7758,60.0,0,60,2.0,0.0
7759,48.0,96,60,5.0,0.0
7760,60.0,0,60,3.0,0.0
7761,72.0,0,60,0.0,0.0
7762,36.0,0,60,7.0,0.0
7763,58.0,66,90,2.0,0.0
7764,58.0,0,90,3.0,0.0
7765,34.0,30,150,7.0,0.0
7766,70.0,0,90,0.0,0.0
7767,46.0,0,90,1.0,0.0
7768,46.0,0,150,5.0,0.0
7769,58.0,0,90,4.0,0.0
7770,58.0,0,90,1.0,0.0
7771,62.0,0,90,2.0,0.0
7772,62.0,96,90,4.0,0.0
7773,62.0,0,90,3.0,0.0
7774,65.0,0,90,3.0,0.0
7775,65.0,0,90,4.0,0.0
7776,65.0,96,90,2.0,0.0
7777,46.0,0,90,5.0,0.0
7778,58.0,0,90,1.0,0.0
7779,70.0,0,90,3.0,0.0
7780,46.0,96,90,1.0,0.0
7781,34.0,0,90,7.0,0.0
7782,70.0,0,90,2.0,0.0
7783,58.0,0,90,4.0,0.0
7784,70.0,0,90,0.0,0.0
7785,62.0,0,90,1.0,0.0
7786,74.0,0,90,3.0,0.0
7787,50.0,0,90,5.0,0.0
7788,74.0,96,90,2.0,0.0
7789,74.0,0,90,0.0,0.0
7790,62.0,0,90,4.0,0.0
7791,50.0,0,90,1.0,0.0
7792,38.0,0,90,7.0,0.0
7793,65.0,0,90,1.0,0.0
7794,77.0,0,90,3.0,0.0
7795,53.0,0,90,1.0,0.0
7796,77.0,0,90,2.0,0.0
7797,41.0,0,90,7.0,0.0
7798,53.0,96,90,5.0,0.0
7799,77.0,0,90,0.0,0.0
7800,65.0,0,90,4.0,0.0
7801,58.0,0,90,5.0,0.0
7802,70.0,0,90,4.0,0.0
7803,62.0,0,90,1.0,0.0
7804,74.0,0,90,0.0,0.0
7805,82.0,96,90,3.0,0.0
7806,70.0,0,90,0.0,0.0
7807,58.0,0,90,1.0,0.0
7808,82.0,0,90,2.0,0.0
7809,46.0,0,90,7.0,0.0
7810,74.0,0,90,0.0,0.0
7811,58.0,0,90,3.0,0.0
7812,34.0,0,90,7.0,0.0
7813,50.0,0,90,1.0,0.0
7814,58.0,0,90,4.0,0.0
7815,70.0,96,90,0.0,0.0
7816,58.0,0,90,1.0,0.0
7817,46.0,0,90,5.0,0.0
7818,58.0,0,90,2.0,0.0
7819,58.0,0,90,2.0,0.0
7820,70.0,0,90,0.0,0.0
7821,46.0,0,90,5.0,0.0
7822,58.0,0,90,3.0,0.0
7823,34.0,0,90,7.0,0.0
7824,58.0,0,90,1.0,0.0
7825,74.0,0,90,0.0,0.0
7826,50.0,0,90,1.0,0.0
7827,58.0,162,90,4.0,0.0
7828,58.0,0,150,4.0,0.0
7829,70.0,0,150,0.0,0.0
7830,58.0,0,150,2.0,0.0
7831,34.0,0,150,7.0,0.0
7832,46.0,0,150,5.0,0.0
7833,58.0,0,150,3.0,0.0
7834,74.0,0,150,0.0,0.0
7835,58.0,0,150,1.0,0.0
7836,50.0,0,150,1.0,0.0
