,note,step,duration,channel,velocity
0,79.0,0,72,10.0,70.0
1,80.0,120,72,10.0,70.0
2,67.0,120,120,11.0,58.0
3,82.0,0,120,10.0,70.0
4,80.0,0,72,10.0,70.0
5,70.0,120,120,11.0,58.0
6,79.0,0,72,10.0,70.0
7,67.0,120,120,11.0,58.0
8,77.0,0,72,10.0,70.0
9,70.0,120,120,11.0,58.0
10,67.0,0,120,11.0,58.0
11,75.0,120,144,10.0,70.0
12,70.0,120,120,11.0,58.0
13,67.0,0,120,11.0,58.0
14,77.0,120,144,10.0,70.0
15,70.0,120,96,11.0,58.0
16,68.0,0,120,11.0,58.0
17,70.0,120,120,11.0,58.0
18,68.0,120,120,11.0,58.0
19,70.0,120,120,11.0,58.0
20,70.0,120,576,10.0,70.0
21,68.0,120,120,11.0,58.0
22,70.0,120,120,11.0,58.0
23,72.0,120,96,10.0,70.0
24,68.0,0,120,11.0,58.0
25,70.0,0,96,11.0,58.0
26,74.0,120,96,10.0,70.0
27,67.0,0,120,11.0,58.0
28,75.0,120,120,10.0,70.0
29,74.0,0,72,10.0,70.0
30,70.0,120,120,11.0,58.0
31,72.0,0,72,10.0,70.0
32,67.0,120,120,11.0,58.0
33,70.0,120,72,10.0,70.0
34,70.0,0,120,11.0,58.0
35,68.0,120,96,10.0,70.0
36,62.0,0,120,11.0,58.0
37,67.0,0,96,10.0,70.0
38,70.0,120,120,11.0,58.0
39,68.0,0,96,10.0,70.0
40,62.0,120,120,11.0,58.0
41,70.0,120,96,10.0,70.0
42,70.0,0,96,11.0,58.0
43,63.0,120,120,11.0,58.0
44,70.0,120,120,11.0,58.0
45,63.0,120,120,11.0,58.0
46,70.0,120,120,11.0,58.0
47,67.0,0,576,10.0,70.0
48,63.0,120,120,11.0,58.0
49,70.0,120,120,11.0,58.0
50,68.0,0,96,10.0,70.0
51,63.0,120,120,11.0,58.0
52,70.0,120,96,11.0,58.0
53,70.0,0,96,10.0,70.0
54,56.0,120,120,11.0,58.0
55,72.0,0,192,10.0,70.0
56,65.0,120,120,11.0,58.0
57,74.0,120,96,10.0,70.0
58,56.0,0,120,11.0,58.0
59,75.0,0,96,10.0,70.0
60,65.0,120,120,11.0,58.0
61,77.0,120,120,10.0,70.0
62,56.0,0,120,11.0,58.0
63,79.0,120,96,10.0,70.0
64,65.0,0,120,11.0,58.0
65,80.0,120,72,10.0,70.0
66,56.0,0,120,11.0,58.0
67,77.0,0,72,10.0,70.0
68,65.0,120,96,11.0,58.0
69,75.0,120,120,10.0,70.0
70,56.0,0,120,11.0,58.0
71,74.0,120,96,10.0,70.0
72,65.0,0,120,11.0,58.0
73,72.0,0,72,10.0,70.0
74,56.0,120,120,11.0,58.0
75,70.0,0,72,10.0,70.0
76,65.0,120,120,11.0,58.0
77,56.0,120,120,11.0,58.0
78,75.0,0,192,10.0,70.0
79,63.0,120,120,11.0,58.0
80,77.0,120,96,10.0,70.0
81,56.0,0,120,11.0,58.0
82,63.0,0,96,11.0,58.0
83,79.0,120,96,10.0,70.0
84,62.0,0,120,11.0,58.0
85,80.0,120,144,10.0,70.0
86,70.0,120,120,11.0,58.0
87,62.0,120,120,11.0,58.0
88,80.0,0,144,10.0,70.0
89,70.0,120,120,11.0,58.0
90,63.0,0,120,11.0,58.0
91,79.0,120,144,10.0,70.0
92,70.0,120,120,11.0,58.0
93,63.0,0,120,11.0,58.0
94,79.0,120,144,10.0,70.0
95,70.0,120,96,11.0,58.0
96,77.0,120,120,10.0,70.0
97,74.0,120,96,10.0,70.0
98,75.0,120,72,10.0,70.0
99,58.0,0,384,11.0,58.0
100,72.0,120,72,10.0,70.0
101,70.0,120,144,10.0,70.0
102,67.0,0,72,11.0,105.0
103,79.0,240,72,10.0,116.0
104,80.0,120,72,10.0,116.0
105,68.0,0,72,11.0,105.0
106,70.0,0,120,11.0,105.0
107,55.0,0,120,12.0,105.0
108,55.0,0,120,13.0,105.0
109,82.0,0,120,10.0,116.0
110,43.0,120,192,14.0,105.0
111,68.0,120,72,11.0,105.0
112,80.0,0,72,10.0,116.0
113,58.0,0,120,13.0,105.0
114,58.0,0,120,12.0,105.0
115,79.0,120,72,10.0,116.0
116,67.0,0,72,11.0,105.0
117,55.0,0,120,13.0,105.0
118,55.0,0,120,12.0,105.0
119,51.0,0,384,5.0,105.0
120,75.0,0,384,4.0,105.0
121,63.0,0,384,4.0,105.0
122,43.0,0,192,14.0,105.0
123,65.0,0,72,11.0,105.0
124,77.0,120,72,10.0,116.0
125,58.0,0,120,13.0,105.0
126,58.0,0,120,12.0,105.0
127,55.0,0,120,12.0,105.0
128,55.0,0,120,13.0,105.0
129,75.0,0,144,10.0,116.0
130,63.0,0,144,11.0,105.0
131,43.0,120,192,14.0,105.0
132,58.0,0,120,12.0,105.0
133,75.0,0,720,1.0,92.0
134,87.0,0,720,0.0,92.0
135,63.0,0,720,2.0,92.0
136,58.0,120,120,13.0,105.0
137,55.0,0,768,3.0,92.0
138,63.0,0,768,3.0,92.0
139,55.0,0,120,13.0,105.0
140,55.0,120,120,12.0,105.0
141,77.0,0,144,10.0,116.0
142,65.0,0,144,11.0,105.0
143,43.0,0,192,14.0,105.0
144,77.0,0,192,1.0,92.0
145,89.0,0,192,0.0,92.0
146,65.0,0,192,2.0,92.0
147,58.0,0,96,12.0,105.0
148,58.0,120,96,13.0,105.0
149,56.0,0,120,12.0,105.0
150,56.0,0,120,13.0,105.0
151,44.0,0,192,14.0,105.0
152,58.0,120,120,12.0,105.0
153,58.0,0,120,13.0,105.0
154,56.0,0,120,13.0,105.0
155,56.0,0,120,12.0,105.0
156,58.0,120,384,4.0,105.0
157,46.0,0,384,5.0,105.0
158,70.0,0,384,4.0,105.0
159,44.0,120,192,14.0,105.0
160,58.0,120,120,13.0,105.0
161,58.0,0,120,12.0,105.0
162,70.0,0,576,10.0,116.0
163,58.0,0,576,11.0,105.0
164,56.0,0,120,13.0,105.0
165,56.0,0,120,12.0,105.0
166,44.0,120,192,14.0,105.0
167,58.0,0,120,12.0,105.0
168,58.0,0,720,2.0,92.0
169,58.0,120,120,13.0,105.0
170,70.0,0,720,1.0,92.0
171,82.0,0,720,0.0,92.0
172,65.0,0,768,3.0,92.0
173,58.0,0,768,3.0,92.0
174,60.0,0,96,11.0,105.0
175,72.0,0,96,10.0,116.0
176,72.0,0,120,1.0,92.0
177,60.0,0,120,2.0,92.0
178,84.0,0,120,0.0,92.0
179,56.0,120,120,12.0,105.0
180,56.0,0,120,13.0,105.0
181,44.0,0,192,14.0,105.0
182,74.0,0,96,1.0,92.0
183,74.0,0,96,10.0,116.0
184,58.0,0,96,12.0,105.0
185,58.0,0,96,13.0,105.0
186,86.0,120,96,0.0,92.0
187,62.0,0,96,2.0,92.0
188,62.0,0,96,11.0,105.0
189,75.0,0,120,10.0,116.0
190,63.0,0,120,2.0,92.0
191,75.0,0,120,1.0,92.0
192,87.0,0,120,0.0,92.0
193,55.0,120,120,13.0,105.0
194,55.0,0,120,12.0,105.0
195,63.0,0,120,11.0,105.0
196,43.0,0,192,14.0,105.0
197,62.0,0,72,11.0,105.0
198,67.0,0,192,3.0,92.0
199,74.0,0,72,10.0,116.0
200,63.0,0,192,3.0,92.0
201,74.0,0,120,1.0,92.0
202,58.0,0,120,12.0,105.0
203,62.0,0,120,2.0,92.0
204,58.0,0,120,13.0,105.0
205,86.0,120,120,0.0,92.0
206,72.0,0,72,10.0,116.0
207,60.0,0,72,11.0,105.0
208,55.0,0,120,12.0,105.0
209,72.0,0,120,1.0,92.0
210,55.0,0,120,13.0,105.0
211,84.0,0,120,0.0,92.0
212,60.0,0,120,2.0,92.0
213,70.0,0,384,4.0,105.0
214,51.0,0,384,5.0,105.0
215,58.0,0,384,4.0,105.0
216,63.0,120,192,3.0,92.0
217,67.0,0,192,3.0,92.0
218,70.0,0,72,10.0,116.0
219,58.0,0,72,11.0,105.0
220,43.0,0,192,14.0,105.0
221,82.0,0,120,0.0,92.0
222,58.0,0,120,13.0,105.0
223,70.0,0,120,1.0,92.0
224,58.0,120,120,12.0,105.0
225,58.0,0,120,2.0,92.0
226,68.0,0,96,10.0,116.0
227,56.0,120,96,11.0,105.0
228,50.0,0,120,13.0,105.0
229,56.0,0,120,2.0,92.0
230,80.0,0,120,0.0,92.0
231,68.0,0,120,1.0,92.0
232,50.0,0,120,12.0,105.0
233,38.0,0,192,14.0,105.0
234,58.0,0,192,3.0,92.0
235,65.0,0,192,3.0,92.0
236,55.0,0,96,11.0,105.0
237,67.0,0,96,10.0,116.0
238,58.0,0,120,13.0,105.0
239,79.0,0,120,0.0,92.0
240,58.0,0,120,12.0,105.0
241,55.0,120,120,2.0,92.0
242,67.0,0,120,1.0,92.0
243,68.0,0,96,10.0,116.0
244,56.0,0,96,11.0,105.0
245,50.0,120,120,13.0,105.0
246,50.0,0,120,12.0,105.0
247,56.0,0,120,2.0,92.0
248,68.0,0,120,1.0,92.0
249,80.0,0,120,0.0,92.0
250,46.0,0,384,5.0,105.0
251,58.0,0,384,4.0,105.0
252,70.0,0,384,4.0,105.0
253,58.0,0,192,3.0,92.0
254,65.0,0,192,3.0,92.0
255,38.0,0,192,14.0,105.0
256,58.0,120,96,13.0,105.0
257,70.0,0,96,10.0,116.0
258,82.0,0,96,0.0,92.0
259,58.0,0,96,12.0,105.0
260,70.0,0,96,1.0,92.0
261,58.0,0,96,11.0,105.0
262,58.0,0,96,2.0,92.0
263,51.0,0,120,12.0,105.0
264,51.0,0,120,13.0,105.0
265,39.0,0,192,14.0,105.0
266,58.0,0,120,13.0,105.0
267,58.0,120,120,12.0,105.0
268,51.0,120,120,13.0,105.0
269,51.0,0,120,12.0,105.0
270,63.0,0,384,4.0,105.0
271,70.0,0,384,4.0,105.0
272,51.0,0,384,5.0,105.0
273,39.0,0,192,14.0,105.0
274,58.0,0,120,12.0,105.0
275,58.0,120,120,13.0,105.0
276,67.0,0,576,10.0,116.0
277,55.0,120,576,11.0,105.0
278,51.0,0,120,12.0,105.0
279,51.0,0,120,13.0,105.0
280,39.0,120,192,14.0,105.0
281,58.0,120,120,12.0,105.0
282,79.0,0,720,0.0,92.0
283,55.0,0,720,2.0,92.0
284,67.0,0,720,1.0,92.0
285,58.0,0,120,13.0,105.0
286,55.0,0,768,3.0,92.0
287,63.0,0,768,3.0,92.0
288,68.0,0,96,10.0,116.0
289,56.0,120,96,11.0,105.0
290,51.0,0,120,13.0,105.0
291,56.0,0,120,2.0,92.0
292,68.0,0,120,1.0,92.0
293,51.0,0,120,12.0,105.0
294,80.0,0,120,0.0,92.0
295,39.0,0,192,14.0,105.0
296,58.0,0,96,2.0,92.0
297,70.0,0,96,10.0,116.0
298,58.0,0,96,11.0,105.0
299,70.0,0,96,1.0,92.0
300,58.0,120,96,13.0,105.0
301,58.0,0,96,12.0,105.0
302,82.0,0,96,0.0,92.0
303,56.0,0,120,13.0,105.0
304,56.0,0,120,12.0,105.0
305,44.0,0,192,14.0,105.0
306,60.0,0,192,11.0,105.0
307,72.0,0,192,10.0,116.0
308,60.0,0,120,12.0,105.0
309,60.0,120,120,13.0,105.0
310,62.0,0,96,11.0,105.0
311,74.0,0,96,10.0,116.0
312,56.0,0,120,13.0,105.0
313,56.0,0,120,12.0,105.0
314,75.0,0,384,4.0,105.0
315,63.0,120,384,4.0,105.0
316,51.0,0,384,5.0,105.0
317,44.0,120,192,14.0,105.0
318,75.0,120,96,10.0,116.0
319,63.0,0,96,11.0,105.0
320,84.0,0,480,0.0,92.0
321,72.0,0,480,1.0,92.0
322,60.0,0,120,12.0,105.0
323,60.0,0,120,13.0,105.0
324,60.0,0,480,2.0,92.0
325,56.0,0,120,13.0,105.0
326,65.0,120,120,11.0,105.0
327,77.0,0,120,10.0,116.0
328,56.0,0,120,12.0,105.0
329,44.0,0,192,14.0,105.0
330,67.0,0,96,11.0,105.0
331,79.0,0,96,10.0,116.0
332,60.0,120,120,12.0,105.0
333,60.0,0,120,13.0,105.0
334,63.0,0,768,3.0,92.0
335,65.0,0,768,3.0,92.0
336,80.0,0,72,10.0,116.0
337,68.0,0,72,11.0,105.0
338,56.0,0,120,13.0,105.0
339,56.0,120,120,12.0,105.0
340,65.0,0,72,11.0,105.0
341,77.0,0,72,10.0,116.0
342,44.0,0,192,14.0,105.0
343,60.0,120,96,13.0,105.0
344,60.0,0,96,12.0,105.0
345,65.0,0,480,2.0,92.0
346,77.0,0,480,1.0,92.0
347,89.0,0,480,0.0,92.0
348,63.0,0,120,11.0,105.0
349,56.0,0,120,12.0,105.0
350,75.0,0,120,10.0,116.0
351,56.0,0,120,13.0,105.0
352,74.0,0,72,10.0,116.0
353,44.0,120,192,14.0,105.0
354,62.0,120,72,11.0,105.0
355,58.0,0,120,12.0,105.0
356,58.0,0,120,13.0,105.0
357,72.0,0,72,10.0,116.0
358,60.0,120,72,11.0,105.0
359,56.0,0,120,12.0,105.0
360,56.0,0,120,13.0,105.0
361,46.0,0,384,5.0,105.0
362,58.0,0,384,4.0,105.0
363,70.0,0,384,4.0,105.0
364,44.0,0,192,14.0,105.0
365,58.0,0,72,11.0,105.0
366,70.0,0,72,10.0,116.0
367,86.0,0,480,0.0,92.0
368,74.0,0,480,1.0,92.0
369,62.0,0,480,2.0,92.0
370,58.0,120,120,13.0,105.0
371,58.0,0,120,12.0,105.0
372,70.0,0,120,11.0,105.0
373,56.0,0,120,12.0,105.0
374,82.0,0,120,10.0,116.0
375,56.0,0,120,13.0,105.0
376,68.0,0,72,11.0,105.0
377,80.0,0,72,10.0,116.0
378,44.0,0,192,14.0,105.0
379,58.0,120,120,12.0,105.0
380,58.0,0,120,13.0,105.0
381,65.0,0,768,3.0,92.0
382,58.0,0,768,3.0,92.0
383,77.0,0,72,10.0,116.0
384,65.0,0,72,11.0,105.0
385,56.0,0,120,12.0,105.0
386,56.0,0,120,13.0,105.0
387,82.0,0,384,0.0,92.0
388,58.0,0,384,2.0,92.0
389,70.0,120,384,1.0,92.0
390,74.0,0,72,10.0,116.0
391,44.0,120,192,14.0,105.0
392,62.0,0,72,11.0,105.0
393,58.0,120,96,12.0,105.0
394,58.0,0,96,13.0,105.0
395,75.0,0,72,10.0,116.0
396,75.0,0,132,1.0,92.0
397,63.0,0,132,2.0,92.0
398,87.0,0,132,0.0,92.0
399,43.0,0,144,14.0,105.0
400,55.0,120,144,13.0,105.0
401,55.0,0,144,12.0,105.0
402,63.0,0,144,11.0,105.0
403,67.0,0,156,3.0,92.0
404,63.0,0,156,3.0,92.0
405,70.0,120,72,10.0,116.0
406,72.0,0,72,10.0,116.0
407,68.0,120,72,11.0,105.0
408,80.0,0,132,1.0,92.0
409,77.0,0,132,1.0,92.0
410,80.0,0,132,0.0,92.0
411,56.0,0,132,2.0,92.0
412,44.0,0,144,14.0,105.0
413,56.0,0,144,13.0,105.0
414,56.0,0,144,12.0,105.0
415,68.0,0,156,3.0,92.0
416,65.0,0,156,3.0,92.0
417,68.0,120,72,10.0,116.0
418,65.0,0,72,11.0,105.0
419,67.0,0,72,10.0,116.0
420,63.0,0,72,11.0,105.0
421,58.0,0,132,2.0,92.0
422,75.0,0,132,1.0,92.0
423,79.0,0,132,1.0,92.0
424,79.0,120,132,0.0,92.0
425,46.0,0,144,14.0,105.0
426,58.0,0,144,12.0,105.0
427,58.0,0,144,13.0,105.0
428,63.0,0,156,3.0,92.0
429,67.0,0,156,3.0,92.0
430,67.0,0,72,11.0,105.0
431,70.0,120,72,10.0,116.0
432,68.0,0,72,10.0,116.0
433,65.0,0,72,11.0,105.0
434,46.0,0,132,2.0,92.0
435,74.0,120,132,1.0,92.0
436,77.0,0,132,0.0,92.0
437,77.0,0,132,1.0,92.0
438,46.0,0,144,13.0,105.0
439,58.0,0,144,12.0,105.0
440,34.0,0,144,14.0,105.0
441,58.0,0,156,3.0,92.0
442,65.0,0,156,3.0,92.0
443,65.0,0,72,10.0,116.0
444,63.0,120,72,11.0,105.0
445,63.0,0,120,11.0,105.0
446,63.0,120,120,10.0,105.0
447,39.0,0,144,14.0,105.0
448,51.0,0,144,12.0,105.0
449,51.0,0,144,13.0,105.0
450,75.0,0,156,0.0,92.0
451,55.0,0,156,3.0,92.0
452,63.0,0,156,3.0,92.0
453,51.0,0,156,2.0,92.0
454,75.0,0,156,1.0,92.0
455,58.0,120,78,10.0,105.0
456,58.0,0,78,11.0,105.0
457,55.0,0,78,10.0,105.0
458,55.0,0,78,11.0,105.0
459,63.0,0,144,12.0,105.0
460,51.0,0,144,14.0,105.0
461,63.0,0,384,4.0,105.0
462,51.0,0,384,5.0,105.0
463,63.0,120,144,13.0,105.0
464,75.0,0,384,4.0,105.0
465,70.0,0,156,1.0,92.0
466,79.0,0,156,0.0,92.0
467,63.0,0,156,3.0,92.0
468,75.0,0,156,1.0,92.0
469,67.0,0,156,2.0,92.0
470,55.0,0,156,3.0,92.0
471,58.0,0,156,2.0,92.0
472,58.0,0,78,11.0,105.0
473,58.0,120,78,10.0,105.0
474,63.0,0,78,10.0,105.0
475,63.0,120,78,11.0,105.0
476,63.0,0,156,3.0,92.0
477,75.0,0,156,1.0,92.0
478,70.0,0,156,1.0,92.0
479,79.0,0,156,0.0,92.0
480,67.0,0,156,2.0,92.0
481,58.0,0,156,2.0,92.0
482,55.0,0,156,3.0,92.0
483,67.0,120,78,11.0,105.0
484,67.0,0,78,10.0,105.0
485,70.0,0,78,10.0,105.0
486,70.0,120,78,11.0,105.0
487,63.0,0,384,13.0,105.0
488,63.0,0,384,12.0,105.0
489,51.0,0,384,14.0,105.0
490,75.0,0,156,1.0,92.0
491,79.0,0,156,0.0,92.0
492,67.0,0,156,2.0,92.0
493,55.0,0,156,3.0,92.0
494,63.0,0,156,3.0,92.0
495,70.0,0,156,1.0,92.0
496,58.0,0,156,2.0,92.0
497,67.0,0,78,11.0,105.0
498,67.0,120,78,10.0,105.0
499,63.0,0,120,10.0,105.0
500,63.0,120,120,11.0,105.0
501,39.0,0,144,14.0,105.0
502,51.0,0,144,13.0,105.0
503,51.0,0,144,12.0,105.0
504,58.0,120,78,11.0,105.0
505,58.0,0,78,10.0,105.0
506,55.0,0,78,11.0,105.0
507,55.0,0,78,10.0,105.0
508,75.0,0,384,4.0,105.0
509,63.0,0,144,13.0,105.0
510,63.0,0,144,12.0,105.0
511,51.0,0,144,14.0,105.0
512,51.0,0,384,5.0,105.0
513,63.0,0,384,4.0,105.0
514,70.0,0,156,1.0,92.0
515,55.0,0,156,3.0,92.0
516,58.0,120,156,2.0,92.0
517,67.0,0,156,2.0,92.0
518,75.0,0,156,1.0,92.0
519,63.0,0,156,3.0,92.0
520,79.0,0,156,0.0,92.0
521,58.0,0,78,10.0,105.0
522,58.0,120,78,11.0,105.0
523,63.0,0,78,10.0,105.0
524,63.0,0,78,11.0,105.0
525,70.0,0,156,1.0,92.0
526,75.0,0,156,1.0,92.0
527,67.0,0,156,2.0,92.0
528,63.0,120,156,3.0,92.0
529,58.0,0,156,2.0,92.0
530,79.0,0,156,0.0,92.0
531,55.0,0,156,3.0,92.0
532,67.0,120,78,10.0,105.0
533,67.0,0,78,11.0,105.0
534,70.0,0,78,11.0,105.0
535,70.0,0,78,10.0,105.0
536,63.0,0,384,12.0,105.0
537,63.0,0,384,13.0,105.0
538,51.0,0,384,14.0,105.0
539,79.0,0,156,0.0,92.0
540,67.0,0,156,2.0,92.0
541,55.0,0,156,3.0,92.0
542,63.0,0,156,3.0,92.0
543,70.0,120,156,1.0,92.0
544,58.0,0,156,2.0,92.0
545,75.0,0,156,1.0,92.0
546,67.0,120,78,11.0,105.0
547,67.0,0,78,10.0,105.0
548,65.0,120,120,10.0,105.0
549,65.0,0,120,11.0,105.0
550,39.0,0,144,14.0,105.0
551,51.0,0,144,13.0,105.0
552,51.0,0,144,12.0,105.0
553,60.0,0,78,10.0,105.0
554,60.0,120,78,11.0,105.0
555,56.0,0,78,11.0,105.0
556,56.0,0,78,10.0,105.0
557,63.0,0,144,12.0,105.0
558,63.0,0,384,4.0,105.0
559,75.0,0,384,4.0,105.0
560,63.0,0,144,13.0,105.0
561,51.0,0,384,5.0,105.0
562,51.0,0,144,14.0,105.0
563,84.0,0,156,0.0,92.0
564,56.0,0,156,2.0,92.0
565,65.0,120,156,3.0,92.0
566,68.0,0,156,3.0,92.0
567,68.0,0,156,1.0,92.0
568,60.0,0,156,2.0,92.0
569,77.0,0,156,1.0,92.0
570,60.0,0,78,10.0,105.0
571,60.0,120,78,11.0,105.0
572,65.0,0,78,11.0,105.0
573,65.0,0,78,10.0,105.0
574,77.0,120,156,1.0,92.0
575,65.0,0,156,3.0,92.0
576,68.0,0,156,3.0,92.0
577,68.0,0,156,1.0,92.0
578,60.0,0,156,2.0,92.0
579,56.0,0,156,2.0,92.0
580,84.0,0,156,0.0,92.0
581,68.0,0,78,11.0,105.0
582,68.0,120,78,10.0,105.0
583,72.0,0,78,10.0,105.0
584,72.0,0,78,11.0,105.0
585,63.0,0,384,13.0,105.0
586,51.0,0,384,14.0,105.0
587,63.0,0,384,12.0,105.0
588,84.0,0,156,0.0,92.0
589,60.0,0,156,2.0,92.0
590,68.0,120,156,1.0,92.0
591,77.0,0,156,1.0,92.0
592,68.0,0,156,3.0,92.0
593,56.0,0,156,2.0,92.0
594,65.0,0,156,3.0,92.0
595,68.0,120,78,11.0,105.0
596,68.0,0,78,10.0,105.0
597,65.0,0,120,10.0,105.0
598,65.0,0,120,11.0,105.0
599,51.0,0,144,12.0,105.0
600,39.0,0,144,14.0,105.0
601,51.0,0,144,13.0,105.0
602,60.0,0,78,11.0,105.0
603,60.0,120,78,10.0,105.0
604,56.0,0,78,11.0,105.0
605,56.0,0,78,10.0,105.0
606,51.0,0,144,14.0,105.0
607,51.0,120,384,5.0,105.0
608,75.0,0,384,4.0,105.0
609,63.0,0,384,4.0,105.0
610,63.0,0,144,12.0,105.0
611,63.0,120,144,13.0,105.0
612,60.0,0,156,2.0,92.0
613,65.0,0,156,3.0,92.0
614,84.0,0,156,0.0,92.0
615,56.0,0,156,2.0,92.0
616,68.0,0,156,3.0,92.0
617,77.0,0,156,1.0,92.0
618,68.0,0,156,1.0,92.0
619,60.0,0,78,10.0,105.0
620,60.0,120,78,11.0,105.0
621,65.0,0,78,10.0,105.0
622,65.0,0,78,11.0,105.0
623,77.0,0,156,1.0,92.0
624,65.0,120,156,3.0,92.0
625,68.0,0,156,3.0,92.0
626,68.0,0,156,1.0,92.0
627,60.0,0,156,2.0,92.0
628,56.0,0,156,2.0,92.0
629,84.0,0,156,0.0,92.0
630,68.0,0,78,10.0,105.0
631,68.0,120,78,11.0,105.0
632,72.0,0,78,10.0,105.0
633,72.0,0,78,11.0,105.0
634,63.0,0,384,12.0,105.0
635,63.0,0,384,13.0,105.0
636,51.0,0,384,14.0,105.0
637,77.0,0,156,1.0,92.0
638,68.0,0,156,1.0,92.0
639,56.0,0,156,2.0,92.0
640,84.0,120,156,0.0,92.0
641,60.0,0,156,2.0,92.0
642,68.0,0,156,3.0,92.0
643,65.0,0,156,3.0,92.0
644,68.0,120,78,11.0,105.0
645,68.0,0,78,10.0,105.0
646,62.0,0,120,10.0,105.0
647,62.0,0,120,11.0,105.0
648,38.0,0,144,14.0,105.0
649,50.0,0,144,13.0,105.0
650,50.0,0,144,12.0,105.0
651,70.0,0,78,11.0,105.0
652,70.0,120,78,10.0,105.0
653,80.0,0,120,11.0,105.0
654,80.0,0,120,10.0,105.0
655,62.0,0,144,12.0,105.0
656,62.0,0,144,13.0,105.0
657,50.0,0,144,14.0,105.0
658,46.0,0,384,5.0,105.0
659,65.0,0,156,2.0,92.0
660,82.0,0,156,1.0,92.0
661,80.0,0,156,1.0,92.0
662,58.0,0,156,3.0,92.0
663,68.0,0,156,3.0,92.0
664,56.0,0,156,2.0,92.0
665,89.0,120,156,0.0,92.0
666,70.0,0,78,11.0,105.0
667,70.0,120,78,10.0,105.0
668,80.0,0,120,10.0,105.0
669,80.0,0,120,11.0,105.0
670,68.0,120,156,3.0,92.0
671,58.0,0,156,3.0,92.0
672,65.0,0,156,2.0,92.0
673,56.0,0,156,2.0,92.0
674,82.0,0,156,1.0,92.0
675,89.0,0,156,0.0,92.0
676,80.0,0,156,1.0,92.0
677,70.0,120,78,11.0,105.0
678,70.0,0,78,10.0,105.0
679,80.0,0,120,10.0,105.0
680,80.0,0,120,11.0,105.0
681,50.0,0,384,14.0,105.0
682,62.0,0,384,13.0,105.0
683,46.0,0,384,5.0,105.0
684,62.0,0,384,12.0,105.0
685,68.0,0,156,3.0,92.0
686,89.0,0,156,0.0,92.0
687,82.0,0,156,1.0,92.0
688,80.0,120,156,1.0,92.0
689,56.0,0,156,2.0,92.0
690,65.0,0,156,2.0,92.0
691,58.0,0,156,3.0,92.0
692,70.0,0,78,11.0,105.0
693,70.0,120,78,10.0,105.0
694,80.0,0,78,11.0,105.0
695,80.0,0,78,10.0,105.0
696,50.0,0,144,12.0,105.0
697,38.0,0,144,14.0,105.0
698,50.0,0,144,13.0,105.0
699,79.0,0,78,10.0,105.0
700,79.0,120,78,11.0,105.0
701,77.0,0,78,11.0,105.0
702,77.0,0,78,10.0,105.0
703,62.0,0,144,13.0,105.0
704,50.0,0,144,14.0,105.0
705,70.0,120,1344,4.0,105.0
706,46.0,120,384,5.0,105.0
707,62.0,0,144,12.0,105.0
708,58.0,0,1344,4.0,105.0
709,68.0,0,156,3.0,92.0
710,82.0,0,156,1.0,92.0
711,65.0,0,156,2.0,92.0
712,56.0,0,156,2.0,92.0
713,89.0,0,156,0.0,92.0
714,58.0,120,156,3.0,92.0
715,80.0,0,156,1.0,92.0
716,75.0,0,78,10.0,105.0
717,75.0,120,78,11.0,105.0
718,74.0,0,78,10.0,105.0
719,74.0,0,78,11.0,105.0
720,65.0,0,156,2.0,92.0
721,82.0,0,156,1.0,92.0
722,89.0,0,156,0.0,92.0
723,68.0,0,156,3.0,92.0
724,58.0,0,156,3.0,92.0
725,56.0,0,156,2.0,92.0
726,80.0,0,156,1.0,92.0
727,72.0,0,78,10.0,105.0
728,72.0,120,78,11.0,105.0
729,70.0,120,78,10.0,105.0
730,70.0,0,78,11.0,105.0
731,50.0,0,384,14.0,105.0
732,62.0,120,384,12.0,105.0
733,62.0,0,384,13.0,105.0
734,65.0,0,156,2.0,92.0
735,56.0,0,156,2.0,92.0
736,68.0,0,156,3.0,92.0
737,58.0,0,156,3.0,92.0
738,82.0,0,156,1.0,92.0
739,89.0,0,156,0.0,92.0
740,80.0,0,156,1.0,92.0
741,68.0,120,78,11.0,105.0
742,68.0,0,78,10.0,105.0
743,67.0,0,78,11.0,105.0
744,67.0,0,78,10.0,105.0
745,55.0,0,132,2.0,105.0
746,82.0,0,132,1.0,105.0
747,63.0,0,132,3.0,105.0
748,67.0,0,132,3.0,105.0
749,79.0,0,132,1.0,105.0
750,91.0,0,132,0.0,105.0
751,63.0,0,132,2.0,105.0
752,63.0,120,192,12.0,105.0
753,63.0,0,192,13.0,105.0
754,51.0,0,192,14.0,105.0
755,75.0,120,78,10.0,105.0
756,75.0,0,78,11.0,105.0
757,70.0,0,78,11.0,105.0
758,70.0,120,78,10.0,105.0
759,63.0,0,132,2.0,105.0
760,70.0,0,132,3.0,105.0
761,67.0,0,132,3.0,105.0
762,91.0,0,132,0.0,105.0
763,55.0,0,132,2.0,105.0
764,79.0,0,132,1.0,105.0
765,82.0,0,132,1.0,105.0
766,67.0,120,78,11.0,105.0
767,67.0,0,78,10.0,105.0
768,65.0,0,78,10.0,105.0
769,65.0,0,78,11.0,105.0
770,56.0,0,132,2.0,105.0
771,65.0,120,132,2.0,105.0
772,77.0,0,132,1.0,105.0
773,65.0,0,132,3.0,105.0
774,68.0,0,132,3.0,105.0
775,80.0,0,132,1.0,105.0
776,89.0,0,132,0.0,105.0
777,44.0,0,192,14.0,105.0
778,56.0,0,192,13.0,105.0
779,56.0,0,192,12.0,105.0
780,72.0,120,78,11.0,105.0
781,72.0,0,78,10.0,105.0
782,68.0,0,78,11.0,105.0
783,68.0,0,78,10.0,105.0
784,89.0,0,132,0.0,105.0
785,65.0,0,132,2.0,105.0
786,56.0,120,132,2.0,105.0
787,65.0,0,132,3.0,105.0
788,68.0,0,132,3.0,105.0
789,77.0,0,132,1.0,105.0
790,80.0,0,132,1.0,105.0
791,65.0,120,78,10.0,105.0
792,65.0,0,78,11.0,105.0
793,63.0,120,78,11.0,105.0
794,63.0,0,78,10.0,105.0
795,55.0,0,132,2.0,105.0
796,79.0,0,132,1.0,105.0
797,75.0,0,132,1.0,105.0
798,87.0,0,132,0.0,105.0
799,63.0,0,132,3.0,105.0
800,67.0,0,132,3.0,105.0
801,63.0,0,132,2.0,105.0
802,46.0,0,192,14.0,105.0
803,58.0,0,192,13.0,105.0
804,58.0,0,192,12.0,105.0
805,70.0,0,78,11.0,105.0
806,70.0,120,78,10.0,105.0
807,67.0,0,78,10.0,105.0
808,67.0,0,78,11.0,105.0
809,79.0,120,132,1.0,105.0
810,55.0,0,132,2.0,105.0
811,75.0,0,132,1.0,105.0
812,87.0,0,132,0.0,105.0
813,63.0,0,132,3.0,105.0
814,63.0,0,132,2.0,105.0
815,67.0,0,132,3.0,105.0
816,63.0,120,78,11.0,105.0
817,63.0,0,78,10.0,105.0
818,62.0,120,78,10.0,105.0
819,62.0,0,78,11.0,105.0
820,58.0,0,132,3.0,105.0
821,65.0,0,132,3.0,105.0
822,53.0,0,132,2.0,105.0
823,74.0,0,132,1.0,105.0
824,62.0,0,132,2.0,105.0
825,77.0,0,132,1.0,105.0
826,86.0,0,132,0.0,105.0
827,58.0,0,192,12.0,105.0
828,46.0,0,192,13.0,105.0
829,34.0,0,192,14.0,105.0
830,68.0,120,78,11.0,105.0
831,68.0,0,78,10.0,105.0
832,65.0,0,78,11.0,105.0
833,65.0,0,78,10.0,105.0
834,62.0,0,132,2.0,105.0
835,53.0,0,132,2.0,105.0
836,74.0,0,132,1.0,105.0
837,77.0,120,132,1.0,105.0
838,65.0,0,132,3.0,105.0
839,58.0,0,132,3.0,105.0
840,86.0,0,132,0.0,105.0
841,46.0,0,384,5.0,105.0
842,58.0,0,384,4.0,105.0
843,70.0,0,384,4.0,105.0
844,62.0,0,78,11.0,105.0
845,62.0,120,78,10.0,105.0
846,63.0,0,120,10.0,105.0
847,63.0,120,120,11.0,105.0
848,39.0,0,144,14.0,105.0
849,51.0,0,144,13.0,105.0
850,51.0,0,144,12.0,105.0
851,87.0,0,156,0.0,92.0
852,55.0,0,156,2.0,92.0
853,75.0,0,156,1.0,92.0
854,55.0,0,156,3.0,92.0
855,63.0,0,156,3.0,92.0
856,63.0,0,156,2.0,92.0
857,58.0,120,78,10.0,105.0
858,58.0,0,78,11.0,105.0
859,55.0,0,78,10.0,105.0
860,55.0,0,78,11.0,105.0
861,63.0,0,384,4.0,105.0
862,51.0,0,384,5.0,105.0
863,75.0,0,384,4.0,105.0
864,63.0,0,144,13.0,105.0
865,51.0,0,144,14.0,105.0
866,63.0,120,144,12.0,105.0
867,58.0,0,156,2.0,92.0
868,75.0,0,156,1.0,92.0
869,67.0,0,156,2.0,92.0
870,63.0,0,156,3.0,92.0
871,55.0,0,156,3.0,92.0
872,70.0,0,156,1.0,92.0
873,79.0,0,156,0.0,92.0
874,58.0,120,78,10.0,105.0
875,58.0,0,78,11.0,105.0
876,63.0,0,78,11.0,105.0
877,63.0,0,78,10.0,105.0
878,67.0,0,156,2.0,92.0
879,63.0,0,156,3.0,92.0
880,70.0,0,156,1.0,92.0
881,79.0,0,156,0.0,92.0
882,55.0,0,156,3.0,92.0
883,58.0,120,156,2.0,92.0
884,75.0,0,156,1.0,92.0
885,67.0,0,78,10.0,105.0
886,67.0,120,78,11.0,105.0
887,70.0,0,78,11.0,105.0
888,70.0,0,78,10.0,105.0
889,51.0,0,384,14.0,105.0
890,63.0,0,384,12.0,105.0
891,63.0,0,384,13.0,105.0
892,58.0,0,156,2.0,92.0
893,70.0,0,156,1.0,92.0
894,75.0,0,156,1.0,92.0
895,63.0,0,156,3.0,92.0
896,55.0,0,156,3.0,92.0
897,79.0,120,156,0.0,92.0
898,67.0,0,156,2.0,92.0
899,67.0,120,78,11.0,105.0
900,67.0,0,78,10.0,105.0
901,63.0,0,120,11.0,105.0
902,63.0,0,120,10.0,105.0
903,39.0,0,144,14.0,105.0
904,51.0,0,144,12.0,105.0
905,51.0,0,144,13.0,105.0
906,58.0,0,78,11.0,105.0
907,58.0,120,78,10.0,105.0
908,55.0,0,78,10.0,105.0
909,55.0,0,78,11.0,105.0
910,51.0,0,384,5.0,105.0
911,63.0,0,144,12.0,105.0
912,51.0,0,144,14.0,105.0
913,63.0,0,144,13.0,105.0
914,63.0,0,384,4.0,105.0
915,75.0,120,384,4.0,105.0
916,75.0,120,156,1.0,92.0
917,79.0,0,156,0.0,92.0
918,70.0,0,156,1.0,92.0
919,63.0,0,156,3.0,92.0
920,55.0,0,156,3.0,92.0
921,67.0,0,156,2.0,92.0
922,58.0,0,156,2.0,92.0
923,58.0,120,78,10.0,105.0
924,58.0,0,78,11.0,105.0
925,63.0,0,78,10.0,105.0
926,63.0,0,78,11.0,105.0
927,67.0,120,156,2.0,92.0
928,58.0,0,156,2.0,92.0
929,63.0,0,156,3.0,92.0
930,75.0,0,156,1.0,92.0
931,70.0,0,156,1.0,92.0
932,79.0,0,156,0.0,92.0
933,55.0,0,156,3.0,92.0
934,67.0,120,78,10.0,105.0
935,67.0,0,78,11.0,105.0
936,70.0,120,78,11.0,105.0
937,70.0,0,78,10.0,105.0
938,63.0,0,384,13.0,105.0
939,51.0,0,384,14.0,105.0
940,63.0,0,384,12.0,105.0
941,70.0,0,156,1.0,92.0
942,79.0,0,156,0.0,92.0
943,67.0,0,156,2.0,92.0
944,58.0,0,156,2.0,92.0
945,63.0,0,156,3.0,92.0
946,55.0,0,156,3.0,92.0
947,75.0,0,156,1.0,92.0
948,67.0,0,78,11.0,105.0
949,67.0,120,78,10.0,105.0
950,65.0,0,120,10.0,105.0
951,65.0,0,120,11.0,105.0
952,51.0,120,144,13.0,105.0
953,51.0,0,144,12.0,105.0
954,39.0,0,144,14.0,105.0
955,60.0,0,78,10.0,105.0
956,60.0,120,78,11.0,105.0
957,56.0,0,78,10.0,105.0
958,56.0,0,78,11.0,105.0
959,51.0,0,384,5.0,105.0
960,63.0,0,144,12.0,105.0
961,63.0,0,384,4.0,105.0
962,63.0,120,144,13.0,105.0
963,51.0,0,144,14.0,105.0
964,75.0,0,384,4.0,105.0
965,77.0,0,156,1.0,92.0
966,68.0,0,156,1.0,92.0
967,65.0,0,156,3.0,92.0
968,68.0,0,156,3.0,92.0
969,60.0,0,156,2.0,92.0
970,56.0,0,156,2.0,92.0
971,84.0,0,156,0.0,92.0
972,60.0,0,78,11.0,105.0
973,60.0,120,78,10.0,105.0
974,65.0,0,78,10.0,105.0
975,65.0,0,78,11.0,105.0
976,84.0,0,156,0.0,92.0
977,60.0,0,156,2.0,92.0
978,68.0,0,156,1.0,92.0
979,77.0,0,156,1.0,92.0
980,56.0,0,156,2.0,92.0
981,65.0,0,156,3.0,92.0
982,68.0,0,156,3.0,92.0
983,68.0,120,78,11.0,105.0
984,68.0,0,78,10.0,105.0
985,72.0,0,78,10.0,105.0
986,72.0,0,78,11.0,105.0
987,51.0,120,384,14.0,105.0
988,63.0,0,384,12.0,105.0
989,63.0,0,384,13.0,105.0
990,68.0,0,156,1.0,92.0
991,77.0,0,156,1.0,92.0
992,56.0,0,156,2.0,92.0
993,65.0,120,156,3.0,92.0
994,60.0,0,156,2.0,92.0
995,84.0,0,156,0.0,92.0
996,68.0,0,156,3.0,92.0
997,68.0,120,78,11.0,105.0
998,68.0,0,78,10.0,105.0
999,65.0,0,120,10.0,105.0
1000,65.0,0,120,11.0,105.0
1001,51.0,0,144,12.0,105.0
1002,51.0,120,144,13.0,105.0
1003,39.0,0,144,14.0,105.0
1004,60.0,120,78,10.0,105.0
1005,60.0,0,78,11.0,105.0
1006,56.0,0,78,11.0,105.0
1007,56.0,0,78,10.0,105.0
1008,63.0,0,384,4.0,105.0
1009,63.0,0,144,13.0,105.0
1010,51.0,0,144,14.0,105.0
1011,51.0,0,384,5.0,105.0
1012,63.0,0,144,12.0,105.0
1013,75.0,0,384,4.0,105.0
1014,68.0,0,156,1.0,92.0
1015,84.0,0,156,0.0,92.0
1016,77.0,0,156,1.0,92.0
1017,68.0,0,156,3.0,92.0
1018,56.0,0,156,2.0,92.0
1019,60.0,120,156,2.0,92.0
1020,65.0,0,156,3.0,92.0
1021,60.0,0,78,10.0,105.0
1022,60.0,120,78,11.0,105.0
1023,65.0,0,78,10.0,105.0
1024,65.0,0,78,11.0,105.0
1025,56.0,0,156,2.0,92.0
1026,84.0,0,156,0.0,92.0
1027,68.0,0,156,3.0,92.0
1028,65.0,0,156,3.0,92.0
1029,68.0,0,156,1.0,92.0
1030,77.0,0,156,1.0,92.0
1031,60.0,0,156,2.0,92.0
1032,68.0,0,78,11.0,105.0
1033,68.0,120,78,10.0,105.0
1034,72.0,0,78,11.0,105.0
1035,72.0,0,78,10.0,105.0
1036,63.0,0,384,13.0,105.0
1037,51.0,0,384,14.0,105.0
1038,63.0,120,384,12.0,105.0
1039,65.0,120,156,3.0,92.0
1040,77.0,0,156,1.0,92.0
1041,68.0,0,156,1.0,92.0
1042,68.0,0,156,3.0,92.0
1043,60.0,0,156,2.0,92.0
1044,84.0,0,156,0.0,92.0
1045,56.0,0,156,2.0,92.0
1046,68.0,0,78,10.0,105.0
1047,68.0,120,78,11.0,105.0
1048,62.0,0,120,11.0,105.0
1049,62.0,0,120,10.0,105.0
1050,50.0,0,144,13.0,105.0
1051,38.0,0,144,14.0,105.0
1052,50.0,0,144,12.0,105.0
1053,70.0,120,78,11.0,105.0
1054,70.0,0,78,10.0,105.0
1055,80.0,0,120,11.0,105.0
1056,80.0,0,120,10.0,105.0
1057,62.0,0,144,12.0,105.0
1058,50.0,0,144,14.0,105.0
1059,46.0,120,384,5.0,105.0
1060,62.0,0,144,13.0,105.0
1061,65.0,0,156,2.0,92.0
1062,56.0,0,156,2.0,92.0
1063,80.0,0,156,1.0,92.0
1064,89.0,0,156,0.0,92.0
1065,82.0,120,156,1.0,92.0
1066,58.0,0,156,3.0,92.0
1067,68.0,0,156,3.0,92.0
1068,70.0,120,78,11.0,105.0
1069,70.0,0,78,10.0,105.0
1070,80.0,0,120,10.0,105.0
1071,80.0,0,120,11.0,105.0
1072,82.0,0,156,1.0,92.0
1073,80.0,0,156,1.0,92.0
1074,58.0,0,156,3.0,92.0
1075,56.0,0,156,2.0,92.0
1076,89.0,0,156,0.0,92.0
1077,65.0,0,156,2.0,92.0
1078,68.0,0,156,3.0,92.0
1079,70.0,0,78,11.0,105.0
1080,70.0,120,78,10.0,105.0
1081,80.0,0,120,10.0,105.0
1082,80.0,0,120,11.0,105.0
1083,50.0,0,384,14.0,105.0
1084,62.0,120,384,12.0,105.0
1085,62.0,0,384,13.0,105.0
1086,46.0,0,384,5.0,105.0
1087,56.0,0,156,2.0,92.0
1088,65.0,0,156,2.0,92.0
1089,82.0,0,156,1.0,92.0
1090,89.0,0,156,0.0,92.0
1091,58.0,120,156,3.0,92.0
1092,68.0,0,156,3.0,92.0
1093,80.0,0,156,1.0,92.0
1094,70.0,0,78,11.0,105.0
1095,70.0,120,78,10.0,105.0
1096,80.0,0,78,11.0,105.0
1097,80.0,0,78,10.0,105.0
1098,38.0,0,144,14.0,105.0
1099,50.0,120,144,12.0,105.0
1100,50.0,0,144,13.0,105.0
1101,79.0,0,78,10.0,105.0
1102,79.0,120,78,11.0,105.0
1103,77.0,0,78,10.0,105.0
1104,77.0,0,78,11.0,105.0
1105,70.0,0,1344,4.0,105.0
1106,62.0,0,144,13.0,105.0
1107,62.0,0,144,12.0,105.0
1108,46.0,0,384,5.0,105.0
1109,58.0,0,1344,4.0,105.0
1110,50.0,0,144,14.0,105.0
1111,68.0,0,156,3.0,92.0
1112,89.0,0,156,0.0,92.0
1113,58.0,0,156,3.0,92.0
1114,82.0,0,156,1.0,92.0
1115,80.0,0,156,1.0,92.0
1116,65.0,0,156,2.0,92.0
1117,56.0,120,156,2.0,92.0
1118,75.0,0,78,10.0,105.0
1119,75.0,120,78,11.0,105.0
1120,74.0,0,78,10.0,105.0
1121,74.0,120,78,11.0,105.0
1122,68.0,0,156,3.0,92.0
1123,58.0,0,156,3.0,92.0
1124,56.0,0,156,2.0,92.0
1125,65.0,0,156,2.0,92.0
1126,80.0,0,156,1.0,92.0
1127,89.0,0,156,0.0,92.0
1128,82.0,0,156,1.0,92.0
1129,72.0,0,78,11.0,105.0
1130,72.0,120,78,10.0,105.0
1131,70.0,0,78,11.0,105.0
1132,70.0,0,78,10.0,105.0
1133,62.0,0,384,13.0,105.0
1134,50.0,0,384,14.0,105.0
1135,62.0,0,384,12.0,105.0
1136,58.0,0,156,3.0,92.0
1137,56.0,0,156,2.0,92.0
1138,68.0,120,156,3.0,92.0
1139,65.0,0,156,2.0,92.0
1140,82.0,0,156,1.0,92.0
1141,80.0,0,156,1.0,92.0
1142,89.0,0,156,0.0,92.0
1143,68.0,0,78,11.0,105.0
1144,68.0,120,78,10.0,105.0
1145,67.0,0,120,11.0,105.0
1146,67.0,0,120,10.0,105.0
1147,51.0,0,144,13.0,105.0
1148,39.0,0,144,14.0,105.0
1149,51.0,0,144,12.0,105.0
1150,75.0,120,78,11.0,105.0
1151,75.0,0,78,10.0,105.0
1152,79.0,0,120,11.0,105.0
1153,79.0,0,120,10.0,105.0
1154,51.0,0,144,14.0,105.0
1155,51.0,0,384,5.0,105.0
1156,63.0,0,144,12.0,105.0
1157,63.0,0,144,13.0,105.0
1158,58.0,0,156,3.0,92.0
1159,67.0,0,156,3.0,92.0
1160,82.0,0,156,1.0,92.0
1161,79.0,0,156,1.0,92.0
1162,63.0,0,156,2.0,92.0
1163,55.0,120,156,2.0,92.0
1164,87.0,0,156,0.0,92.0
1165,75.0,0,78,11.0,105.0
1166,75.0,120,78,10.0,105.0
1167,79.0,120,120,10.0,105.0
1168,79.0,0,120,11.0,105.0
1169,58.0,0,156,3.0,92.0
1170,63.0,0,156,2.0,92.0
1171,55.0,0,156,2.0,92.0
1172,67.0,0,156,3.0,92.0
1173,87.0,0,156,0.0,92.0
1174,79.0,0,156,1.0,92.0
1175,82.0,0,156,1.0,92.0
1176,75.0,0,78,10.0,105.0
1177,75.0,120,78,11.0,105.0
1178,79.0,120,120,10.0,105.0
1179,79.0,0,120,11.0,105.0
1180,51.0,0,384,14.0,105.0
1181,51.0,0,384,5.0,105.0
1182,63.0,0,384,12.0,105.0
1183,63.0,0,384,13.0,105.0
1184,82.0,0,156,1.0,92.0
1185,79.0,0,156,1.0,92.0
1186,87.0,0,156,0.0,92.0
1187,58.0,0,156,3.0,92.0
1188,67.0,0,156,3.0,92.0
1189,63.0,0,156,2.0,92.0
1190,55.0,0,156,2.0,92.0
1191,75.0,0,78,10.0,105.0
1192,75.0,120,78,11.0,105.0
1193,79.0,0,78,10.0,105.0
1194,79.0,120,78,11.0,105.0
1195,51.0,0,144,12.0,105.0
1196,51.0,0,144,13.0,105.0
1197,39.0,0,144,14.0,105.0
1198,77.0,120,78,11.0,105.0
1199,77.0,0,78,10.0,105.0
1200,75.0,0,78,10.0,105.0
1201,75.0,120,78,11.0,105.0
1202,51.0,0,384,5.0,105.0
1203,63.0,0,144,13.0,105.0
1204,63.0,0,144,12.0,105.0
1205,63.0,0,1344,4.0,105.0
1206,51.0,0,144,14.0,105.0
1207,70.0,120,1344,4.0,105.0
1208,58.0,0,156,3.0,92.0
1209,67.0,0,156,3.0,92.0
1210,63.0,0,156,2.0,92.0
1211,82.0,0,156,1.0,92.0
1212,79.0,0,156,1.0,92.0
1213,55.0,0,156,2.0,92.0
1214,87.0,0,156,0.0,92.0
1215,74.0,0,78,11.0,105.0
1216,74.0,120,78,10.0,105.0
1217,72.0,0,78,11.0,105.0
1218,72.0,0,78,10.0,105.0
1219,58.0,120,156,3.0,92.0
1220,67.0,0,156,3.0,92.0
1221,55.0,0,156,2.0,92.0
1222,79.0,0,156,1.0,92.0
1223,87.0,0,156,0.0,92.0
1224,63.0,0,156,2.0,92.0
1225,82.0,0,156,1.0,92.0
1226,70.0,0,78,11.0,105.0
1227,70.0,120,78,10.0,105.0
1228,68.0,0,78,10.0,105.0
1229,68.0,0,78,11.0,105.0
1230,51.0,0,384,14.0,105.0
1231,63.0,0,384,12.0,105.0
1232,63.0,0,384,13.0,105.0
1233,67.0,120,156,3.0,92.0
1234,63.0,0,156,2.0,92.0
1235,55.0,0,156,2.0,92.0
1236,87.0,0,156,0.0,92.0
1237,79.0,0,156,1.0,92.0
1238,58.0,0,156,3.0,92.0
1239,82.0,0,156,1.0,92.0
1240,67.0,120,78,11.0,105.0
1241,67.0,0,78,10.0,105.0
1242,65.0,0,120,10.0,105.0
1243,65.0,0,120,11.0,105.0
1244,51.0,0,144,12.0,105.0
1245,39.0,0,144,14.0,105.0
1246,51.0,0,144,13.0,105.0
1247,72.0,120,78,10.0,105.0
1248,72.0,0,78,11.0,105.0
1249,81.0,0,120,11.0,105.0
1250,81.0,0,120,10.0,105.0
1251,63.0,0,144,12.0,105.0
1252,51.0,0,384,5.0,105.0
1253,63.0,0,144,13.0,105.0
1254,51.0,0,144,14.0,105.0
1255,81.0,0,156,1.0,92.0
1256,57.0,0,156,2.0,92.0
1257,60.0,0,156,2.0,92.0
1258,84.0,0,156,0.0,92.0
1259,77.0,0,156,1.0,92.0
1260,65.0,120,156,3.0,92.0
1261,69.0,0,156,3.0,92.0
1262,72.0,120,78,10.0,105.0
1263,72.0,0,78,11.0,105.0
1264,81.0,0,120,11.0,105.0
1265,81.0,0,120,10.0,105.0
1266,57.0,0,156,2.0,92.0
1267,65.0,0,156,3.0,92.0
1268,77.0,0,156,1.0,92.0
1269,81.0,0,156,1.0,92.0
1270,69.0,0,156,3.0,92.0
1271,60.0,0,156,2.0,92.0
1272,84.0,0,156,0.0,92.0
1273,72.0,0,78,11.0,105.0
1274,72.0,120,78,10.0,105.0
1275,81.0,0,120,10.0,105.0
1276,81.0,0,120,11.0,105.0
1277,63.0,0,384,12.0,105.0
1278,51.0,0,384,14.0,105.0
1279,63.0,0,384,13.0,105.0
1280,51.0,120,384,5.0,105.0
1281,65.0,0,156,3.0,92.0
1282,77.0,0,156,1.0,92.0
1283,69.0,0,156,3.0,92.0
1284,81.0,120,156,1.0,92.0
1285,84.0,0,156,0.0,92.0
1286,57.0,0,156,2.0,92.0
1287,60.0,0,156,2.0,92.0
1288,72.0,120,78,11.0,105.0
1289,72.0,0,78,10.0,105.0
1290,81.0,120,78,11.0,105.0
1291,81.0,0,78,10.0,105.0
1292,39.0,0,144,14.0,105.0
1293,51.0,0,144,12.0,105.0
1294,51.0,0,144,13.0,105.0
1295,79.0,120,78,11.0,105.0
1296,79.0,0,78,10.0,105.0
1297,77.0,0,78,10.0,105.0
1298,77.0,0,78,11.0,105.0
1299,75.0,0,1344,4.0,105.0
1300,51.0,0,384,5.0,105.0
1301,63.0,0,144,12.0,105.0
1302,63.0,0,144,13.0,105.0
1303,63.0,120,1344,4.0,105.0
1304,51.0,0,144,14.0,105.0
1305,60.0,0,156,2.0,92.0
1306,57.0,0,156,2.0,92.0
1307,84.0,0,156,0.0,92.0
1308,65.0,0,156,3.0,92.0
1309,77.0,0,156,1.0,92.0
1310,81.0,120,156,1.0,92.0
1311,69.0,0,156,3.0,92.0
1312,75.0,0,78,10.0,105.0
1313,75.0,120,78,11.0,105.0
1314,74.0,0,78,11.0,105.0
1315,74.0,0,78,10.0,105.0
1316,77.0,0,156,1.0,92.0
1317,60.0,0,156,2.0,92.0
1318,69.0,0,156,3.0,92.0
1319,65.0,0,156,3.0,92.0
1320,81.0,0,156,1.0,92.0
1321,84.0,0,156,0.0,92.0
1322,57.0,0,156,2.0,92.0
1323,72.0,120,78,11.0,105.0
1324,72.0,0,78,10.0,105.0
1325,70.0,0,78,10.0,105.0
1326,70.0,0,78,11.0,105.0
1327,63.0,0,384,12.0,105.0
1328,51.0,0,384,14.0,105.0
1329,63.0,120,384,13.0,105.0
1330,84.0,0,156,0.0,92.0
1331,77.0,0,156,1.0,92.0
1332,81.0,0,156,1.0,92.0
1333,65.0,120,156,3.0,92.0
1334,69.0,0,156,3.0,92.0
1335,60.0,0,156,2.0,92.0
1336,57.0,0,156,2.0,92.0
1337,69.0,0,78,11.0,105.0
1338,69.0,120,78,10.0,105.0
1339,70.0,0,120,10.0,105.0
1340,70.0,120,120,11.0,105.0
1341,50.0,0,144,13.0,105.0
1342,38.0,0,144,14.0,105.0
1343,50.0,0,144,12.0,105.0
1344,77.0,120,78,10.0,105.0
1345,77.0,0,78,11.0,105.0
1346,82.0,0,120,11.0,105.0
1347,82.0,120,120,10.0,105.0
1348,46.0,0,384,5.0,105.0
1349,62.0,0,144,12.0,105.0
1350,50.0,0,144,14.0,105.0
1351,62.0,0,144,13.0,105.0
1352,58.0,0,156,2.0,92.0
1353,65.0,0,156,3.0,92.0
1354,77.0,0,156,1.0,92.0
1355,82.0,0,156,1.0,92.0
1356,86.0,0,156,0.0,92.0
1357,70.0,0,156,3.0,92.0
1358,62.0,0,156,2.0,92.0
1359,77.0,0,78,10.0,105.0
1360,77.0,120,78,11.0,105.0
1361,82.0,0,120,11.0,105.0
1362,82.0,0,120,10.0,105.0
1363,62.0,0,156,2.0,92.0
1364,86.0,0,156,0.0,92.0
1365,65.0,0,156,3.0,92.0
1366,70.0,0,156,3.0,92.0
1367,77.0,0,156,1.0,92.0
1368,58.0,0,156,2.0,92.0
1369,82.0,120,156,1.0,92.0
1370,77.0,0,78,10.0,105.0
1371,77.0,120,78,11.0,105.0
1372,82.0,0,120,11.0,105.0
1373,82.0,120,120,10.0,105.0
1374,62.0,0,384,12.0,105.0
1375,46.0,0,384,5.0,105.0
1376,62.0,0,384,13.0,105.0
1377,50.0,0,384,14.0,105.0
1378,77.0,0,156,1.0,92.0
1379,82.0,0,156,1.0,92.0
1380,86.0,0,156,0.0,92.0
1381,62.0,0,156,2.0,92.0
1382,58.0,0,156,2.0,92.0
1383,70.0,0,156,3.0,92.0
1384,65.0,0,156,3.0,92.0
1385,77.0,0,78,10.0,105.0
1386,77.0,120,78,11.0,105.0
1387,82.0,0,78,10.0,105.0
1388,82.0,0,78,11.0,105.0
1389,38.0,0,144,14.0,105.0
1390,50.0,0,144,13.0,105.0
1391,50.0,120,144,12.0,105.0
1392,81.0,0,78,11.0,105.0
1393,81.0,120,78,10.0,105.0
1394,79.0,0,78,10.0,105.0
1395,79.0,0,78,11.0,105.0
1396,50.0,0,144,14.0,105.0
1397,58.0,0,1344,4.0,105.0
1398,62.0,0,144,12.0,105.0
1399,62.0,0,144,13.0,105.0
1400,70.0,0,1344,4.0,105.0
1401,46.0,0,384,5.0,105.0
1402,58.0,120,156,2.0,92.0
1403,82.0,0,156,1.0,92.0
1404,77.0,0,156,1.0,92.0
1405,70.0,0,156,3.0,92.0
1406,65.0,0,156,3.0,92.0
1407,62.0,0,156,2.0,92.0
1408,86.0,0,156,0.0,92.0
1409,77.0,120,78,10.0,105.0
1410,77.0,0,78,11.0,105.0
1411,75.0,0,78,11.0,105.0
1412,75.0,0,78,10.0,105.0
1413,70.0,0,156,3.0,92.0
1414,82.0,0,156,1.0,92.0
1415,58.0,0,156,2.0,92.0
1416,65.0,120,156,3.0,92.0
1417,86.0,0,156,0.0,92.0
1418,77.0,0,156,1.0,92.0
1419,62.0,0,156,2.0,92.0
1420,74.0,120,78,10.0,105.0
1421,74.0,0,78,11.0,105.0
1422,72.0,0,78,10.0,105.0
1423,72.0,0,78,11.0,105.0
1424,50.0,0,384,14.0,105.0
1425,62.0,0,384,13.0,105.0
1426,62.0,0,384,12.0,105.0
1427,86.0,0,156,0.0,92.0
1428,70.0,0,156,3.0,92.0
1429,65.0,0,156,3.0,92.0
1430,77.0,0,156,1.0,92.0
1431,58.0,120,156,2.0,92.0
1432,62.0,0,156,2.0,92.0
1433,82.0,0,156,1.0,92.0
1434,70.0,120,78,10.0,105.0
1435,70.0,0,78,11.0,105.0
1436,76.0,0,120,11.0,105.0
1437,76.0,0,120,10.0,105.0
1438,31.0,0,144,14.0,105.0
1439,43.0,0,144,13.0,105.0
1440,55.0,120,144,12.0,105.0
1441,79.0,120,78,10.0,105.0
1442,79.0,0,78,11.0,105.0
1443,82.0,0,120,11.0,105.0
1444,82.0,0,120,10.0,105.0
1445,55.0,0,144,13.0,105.0
1446,67.0,0,144,12.0,105.0
1447,46.0,0,384,5.0,105.0
1448,43.0,0,144,14.0,105.0
1449,64.0,120,156,2.0,92.0
1450,88.0,0,156,0.0,92.0
1451,55.0,0,156,2.0,92.0
1452,70.0,0,156,3.0,92.0
1453,58.0,0,156,3.0,92.0
1454,76.0,0,156,1.0,92.0
1455,82.0,0,156,1.0,92.0
1456,79.0,120,78,11.0,105.0
1457,79.0,0,78,10.0,105.0
1458,82.0,0,120,11.0,105.0
1459,82.0,0,120,10.0,105.0
1460,58.0,0,156,3.0,92.0
1461,70.0,0,156,3.0,92.0
1462,88.0,0,156,0.0,92.0
1463,55.0,0,156,2.0,92.0
1464,64.0,0,156,2.0,92.0
1465,82.0,0,156,1.0,92.0
1466,76.0,0,156,1.0,92.0
1467,79.0,0,78,10.0,105.0
1468,79.0,120,78,11.0,105.0
1469,82.0,0,120,11.0,105.0
1470,82.0,0,120,10.0,105.0
1471,55.0,120,384,13.0,105.0
1472,43.0,0,384,14.0,105.0
1473,46.0,0,384,5.0,105.0
1474,67.0,0,384,12.0,105.0
1475,70.0,0,156,3.0,92.0
1476,76.0,120,156,1.0,92.0
1477,82.0,0,156,1.0,92.0
1478,88.0,0,156,0.0,92.0
1479,58.0,0,156,3.0,92.0
1480,64.0,0,156,2.0,92.0
1481,55.0,0,156,2.0,92.0
1482,79.0,0,78,10.0,105.0
1483,79.0,120,78,11.0,105.0
1484,82.0,0,78,11.0,105.0
1485,82.0,0,78,10.0,105.0
1486,55.0,0,144,12.0,105.0
1487,43.0,120,144,13.0,105.0
1488,32.0,0,144,14.0,105.0
1489,81.0,120,78,11.0,105.0
1490,81.0,0,78,10.0,105.0
1491,79.0,0,78,10.0,105.0
1492,79.0,0,78,11.0,105.0
1493,67.0,0,144,12.0,105.0
1494,58.0,0,1344,4.0,105.0
1495,55.0,120,144,13.0,105.0
1496,70.0,0,1344,4.0,105.0
1497,43.0,0,144,14.0,105.0
1498,46.0,0,384,5.0,105.0
1499,58.0,0,156,3.0,92.0
1500,64.0,0,156,2.0,92.0
1501,55.0,0,156,2.0,92.0
1502,82.0,0,156,1.0,92.0
1503,76.0,0,156,1.0,92.0
1504,70.0,0,156,3.0,92.0
1505,88.0,0,156,0.0,92.0
1506,77.0,120,78,10.0,105.0
1507,77.0,0,78,11.0,105.0
1508,76.0,120,78,10.0,105.0
1509,76.0,0,78,11.0,105.0
1510,82.0,0,156,1.0,92.0
1511,76.0,0,156,1.0,92.0
1512,55.0,0,156,2.0,92.0
1513,64.0,0,156,2.0,92.0
1514,70.0,0,156,3.0,92.0
1515,58.0,0,156,3.0,92.0
1516,88.0,0,156,0.0,92.0
1517,74.0,120,78,10.0,105.0
1518,74.0,0,78,11.0,105.0
1519,72.0,120,78,10.0,105.0
1520,72.0,0,78,11.0,105.0
1521,43.0,0,384,14.0,105.0
1522,55.0,0,384,13.0,105.0
1523,67.0,0,384,12.0,105.0
1524,70.0,0,156,3.0,92.0
1525,58.0,0,156,3.0,92.0
1526,88.0,0,156,0.0,92.0
1527,82.0,0,156,1.0,92.0
1528,76.0,0,156,1.0,92.0
1529,64.0,0,156,2.0,92.0
1530,55.0,0,156,2.0,92.0
1531,70.0,0,78,11.0,105.0
1532,70.0,120,78,10.0,105.0
1533,69.0,120,78,11.0,105.0
1534,69.0,0,78,10.0,105.0
1535,29.0,0,144,14.0,105.0
1536,41.0,0,144,13.0,105.0
1537,53.0,0,144,12.0,105.0
1538,57.0,0,156,2.0,92.0
1539,65.0,0,156,2.0,92.0
1540,77.0,0,156,1.0,92.0
1541,65.0,0,156,3.0,92.0
1542,81.0,0,156,1.0,92.0
1543,89.0,0,156,0.0,92.0
1544,81.0,0,78,11.0,105.0
1545,81.0,120,78,10.0,105.0
1546,79.0,0,78,11.0,105.0
1547,79.0,120,78,10.0,105.0
1548,41.0,0,144,14.0,105.0
1549,65.0,0,144,12.0,105.0
1550,77.0,0,384,4.0,105.0
1551,53.0,0,144,13.0,105.0
1552,77.0,0,156,1.0,92.0
1553,81.0,0,156,1.0,92.0
1554,89.0,0,156,0.0,92.0
1555,57.0,0,156,2.0,92.0
1556,65.0,0,156,2.0,92.0
1557,65.0,0,156,3.0,92.0
1558,77.0,0,78,10.0,105.0
1559,77.0,120,78,11.0,105.0
1560,76.0,0,78,11.0,105.0
1561,76.0,0,78,10.0,105.0
1562,41.0,0,144,14.0,105.0
1563,65.0,0,144,12.0,105.0
1564,53.0,0,144,13.0,105.0
1565,58.0,0,156,2.0,92.0
1566,79.0,120,156,1.0,92.0
1567,64.0,0,156,2.0,92.0
1568,82.0,0,156,1.0,92.0
1569,67.0,0,156,3.0,92.0
1570,88.0,0,156,0.0,92.0
1571,82.0,120,78,10.0,105.0
1572,82.0,0,78,11.0,105.0
1573,79.0,0,78,10.0,105.0
1574,79.0,0,78,11.0,105.0
1575,41.0,0,144,14.0,105.0
1576,53.0,120,144,13.0,105.0
1577,65.0,0,144,12.0,105.0
1578,67.0,0,156,3.0,92.0
1579,79.0,0,156,1.0,92.0
1580,82.0,0,156,1.0,92.0
1581,58.0,0,156,2.0,92.0
1582,64.0,0,156,2.0,92.0
1583,88.0,0,156,0.0,92.0
1584,76.0,0,78,11.0,105.0
1585,76.0,120,78,10.0,105.0
1586,77.0,0,78,10.0,105.0
1587,77.0,0,78,11.0,105.0
1588,65.0,0,144,12.0,105.0
1589,53.0,0,144,13.0,105.0
1590,41.0,0,144,14.0,105.0
1591,81.0,0,156,1.0,92.0
1592,77.0,0,156,1.0,92.0
1593,57.0,0,156,2.0,92.0
1594,65.0,0,156,2.0,92.0
1595,65.0,0,156,3.0,92.0
1596,89.0,120,156,0.0,92.0
1597,81.0,120,78,11.0,105.0
1598,81.0,0,78,10.0,105.0
1599,79.0,0,78,10.0,105.0
1600,79.0,0,78,11.0,105.0
1601,77.0,0,384,4.0,105.0
1602,41.0,0,144,14.0,105.0
1603,65.0,0,144,12.0,105.0
1604,53.0,0,144,13.0,105.0
1605,81.0,0,156,1.0,92.0
1606,65.0,120,156,3.0,92.0
1607,65.0,0,156,2.0,92.0
1608,57.0,0,156,2.0,92.0
1609,77.0,0,156,1.0,92.0
1610,89.0,0,156,0.0,92.0
1611,77.0,120,78,10.0,105.0
1612,77.0,0,78,11.0,105.0
1613,76.0,0,78,11.0,105.0
1614,76.0,0,78,10.0,105.0
1615,41.0,0,144,14.0,105.0
1616,65.0,0,144,12.0,105.0
1617,53.0,120,144,13.0,105.0
1618,64.0,0,156,2.0,92.0
1619,82.0,0,156,1.0,92.0
1620,58.0,0,156,2.0,92.0
1621,67.0,0,156,3.0,92.0
1622,79.0,0,156,1.0,92.0
1623,88.0,0,156,0.0,92.0
1624,82.0,120,78,10.0,105.0
1625,82.0,0,78,11.0,105.0
1626,79.0,0,78,10.0,105.0
1627,79.0,120,78,11.0,105.0
1628,65.0,0,144,12.0,105.0
1629,53.0,0,144,13.0,105.0
1630,41.0,0,144,14.0,105.0
1631,82.0,0,156,1.0,92.0
1632,79.0,0,156,1.0,92.0
1633,58.0,0,156,2.0,92.0
1634,67.0,0,156,3.0,92.0
1635,88.0,0,156,0.0,92.0
1636,64.0,0,156,2.0,92.0
1637,76.0,120,78,10.0,105.0
1638,76.0,0,78,11.0,105.0
1639,77.0,0,156,11.0,105.0
1640,81.0,0,156,1.0,92.0
1641,41.0,0,156,14.0,105.0
1642,57.0,120,156,2.0,92.0
1643,65.0,0,156,2.0,92.0
1644,65.0,0,156,12.0,105.0
1645,65.0,0,156,3.0,92.0
1646,77.0,0,156,1.0,92.0
1647,89.0,0,156,0.0,92.0
1648,77.0,0,156,10.0,105.0
1649,53.0,0,156,13.0,105.0
1650,57.0,0,78,10.0,105.0
1651,57.0,240,78,11.0,105.0
1652,65.0,0,78,11.0,105.0
1653,65.0,0,78,10.0,105.0
1654,77.0,0,384,4.0,105.0
1655,69.0,0,156,1.0,80.0
1656,72.0,0,156,1.0,80.0
1657,77.0,0,156,0.0,92.0
1658,53.0,0,156,12.0,105.0
1659,65.0,0,156,3.0,92.0
1660,60.0,0,156,2.0,80.0
1661,57.0,0,156,2.0,80.0
1662,29.0,0,156,14.0,105.0
1663,41.0,0,156,13.0,105.0
1664,65.0,120,78,10.0,105.0
1665,57.0,0,78,11.0,105.0
1666,65.0,0,78,11.0,105.0
1667,57.0,0,78,10.0,105.0
1668,65.0,0,156,10.0,105.0
1669,57.0,0,156,10.0,105.0
1670,77.0,0,156,0.0,92.0
1671,29.0,0,156,14.0,105.0
1672,65.0,0,156,3.0,92.0
1673,57.0,0,156,2.0,80.0
1674,65.0,0,156,11.0,105.0
1675,57.0,0,156,11.0,105.0
1676,72.0,0,156,1.0,80.0
1677,69.0,120,156,1.0,80.0
1678,53.0,0,156,12.0,105.0
1679,41.0,0,156,13.0,105.0
1680,60.0,0,156,2.0,80.0
1681,77.0,0,384,4.0,105.0
1682,72.0,0,156,1.0,80.0
1683,53.0,0,156,12.0,105.0
1684,29.0,0,156,14.0,105.0
1685,41.0,0,156,13.0,105.0
1686,65.0,0,156,10.0,105.0
1687,57.0,0,156,10.0,105.0
1688,65.0,0,156,11.0,105.0
1689,69.0,0,156,1.0,80.0
1690,77.0,0,156,0.0,92.0
1691,65.0,0,156,3.0,92.0
1692,57.0,0,156,2.0,80.0
1693,57.0,240,156,11.0,105.0
1694,60.0,0,156,2.0,80.0
1695,65.0,0,384,10.0,105.0
1696,57.0,0,384,10.0,105.0
1697,69.0,0,384,1.0,80.0
1698,53.0,0,384,12.0,105.0
1699,29.0,0,384,14.0,105.0
1700,65.0,0,384,11.0,105.0
1701,41.0,0,384,13.0,105.0
1702,60.0,0,384,2.0,80.0
1703,65.0,0,384,3.0,92.0
1704,72.0,0,384,1.0,80.0
1705,77.0,0,384,4.0,105.0
1706,77.0,0,384,0.0,92.0
1707,57.0,240,384,11.0,105.0
1708,57.0,0,384,2.0,80.0
1709,74.0,720,72,10.0,80.0
1710,75.0,120,72,10.0,80.0
1711,77.0,0,120,10.0,80.0
1712,62.0,120,120,11.0,70.0
1713,75.0,120,72,10.0,80.0
1714,65.0,0,120,11.0,70.0
1715,74.0,0,72,10.0,80.0
1716,62.0,120,120,11.0,70.0
1717,72.0,0,72,10.0,80.0
1718,65.0,120,120,11.0,70.0
1719,62.0,0,120,11.0,70.0
1720,70.0,120,144,10.0,80.0
1721,65.0,120,120,11.0,70.0
1722,62.0,0,120,11.0,70.0
1723,60.0,0,144,2.0,58.0
1724,84.0,120,144,0.0,70.0
1725,72.0,0,144,1.0,58.0
1726,65.0,120,72,11.0,90.0
1727,63.0,0,120,11.0,70.0
1728,65.0,120,120,11.0,70.0
1729,63.0,0,120,11.0,70.0
1730,77.0,120,144,10.0,80.0
1731,65.0,120,120,11.0,70.0
1732,63.0,120,120,11.0,70.0
1733,77.0,0,144,10.0,80.0
1734,65.0,120,120,11.0,70.0
1735,53.0,0,720,2.0,58.0
1736,65.0,0,720,1.0,58.0
1737,77.0,120,720,0.0,70.0
1738,55.0,0,120,2.0,58.0
1739,63.0,0,120,11.0,70.0
1740,79.0,120,120,0.0,70.0
1741,67.0,0,120,1.0,58.0
1742,77.0,0,144,10.0,80.0
1743,65.0,120,72,11.0,90.0
1744,81.0,0,120,0.0,70.0
1745,57.0,0,120,2.0,58.0
1746,69.0,0,120,1.0,58.0
1747,62.0,0,120,11.0,70.0
1748,82.0,120,192,0.0,70.0
1749,58.0,0,192,2.0,58.0
1750,70.0,0,192,1.0,58.0
1751,65.0,120,120,11.0,70.0
1752,77.0,0,240,10.0,80.0
1753,79.0,0,120,10.0,80.0
1754,62.0,120,120,11.0,70.0
1755,81.0,120,120,10.0,80.0
1756,65.0,0,120,11.0,70.0
1757,82.0,0,120,10.0,80.0
1758,62.0,120,120,11.0,70.0
1759,65.0,0,120,11.0,70.0
1760,81.0,120,120,10.0,80.0
1761,62.0,120,120,11.0,70.0
1762,79.0,0,120,10.0,80.0
1763,65.0,0,72,11.0,90.0
1764,77.0,120,96,10.0,80.0
1765,77.0,0,60,10.0,80.0
1766,60.0,120,120,11.0,70.0
1767,75.0,60,108,10.0,100.0
1768,65.0,60,120,11.0,70.0
1769,60.0,0,120,11.0,70.0
1770,75.0,120,144,10.0,80.0
1771,65.0,120,120,11.0,70.0
1772,75.0,120,60,10.0,80.0
1773,58.0,0,120,11.0,70.0
1774,74.0,60,108,10.0,100.0
1775,65.0,60,120,11.0,70.0
1776,58.0,0,120,11.0,70.0
1777,74.0,120,144,10.0,80.0
1778,65.0,120,72,11.0,90.0
1779,74.0,120,60,10.0,80.0
1780,63.0,0,120,11.0,70.0
1781,72.0,60,108,10.0,100.0
1782,67.0,60,120,11.0,70.0
1783,63.0,120,120,11.0,70.0
1784,72.0,0,144,10.0,80.0
1785,67.0,120,120,11.0,70.0
1786,72.0,120,60,10.0,80.0
1787,64.0,0,120,11.0,70.0
1788,70.0,60,108,10.0,100.0
1789,67.0,60,120,11.0,70.0
1790,64.0,0,120,11.0,70.0
1791,70.0,120,144,10.0,80.0
1792,67.0,120,72,11.0,90.0
1793,65.0,120,384,11.0,70.0
1794,69.0,0,480,10.0,80.0
1795,72.0,480,144,10.0,80.0
1796,74.0,240,72,10.0,80.0
1797,75.0,120,72,10.0,80.0
1798,77.0,120,120,10.0,80.0
1799,62.0,0,120,11.0,70.0
1800,75.0,120,72,10.0,80.0
1801,65.0,0,120,11.0,70.0
1802,74.0,120,72,10.0,80.0
1803,62.0,0,120,11.0,70.0
1804,72.0,0,72,10.0,80.0
1805,65.0,120,120,11.0,70.0
1806,62.0,120,120,11.0,70.0
1807,70.0,0,144,10.0,80.0
1808,65.0,120,120,11.0,70.0
1809,62.0,0,120,11.0,70.0
1810,72.0,120,144,1.0,58.0
1811,60.0,0,144,2.0,58.0
1812,84.0,0,144,0.0,70.0
1813,65.0,120,72,11.0,90.0
1814,63.0,120,120,11.0,70.0
1815,65.0,120,120,11.0,70.0
1816,63.0,120,120,11.0,70.0
1817,77.0,0,144,10.0,80.0
1818,65.0,120,120,11.0,70.0
1819,63.0,0,120,11.0,70.0
1820,77.0,120,144,10.0,80.0
1821,65.0,0,720,1.0,58.0
1822,53.0,0,720,2.0,58.0
1823,65.0,120,120,11.0,70.0
1824,77.0,0,720,0.0,70.0
1825,55.0,0,120,2.0,58.0
1826,63.0,120,120,11.0,70.0
1827,79.0,0,120,0.0,70.0
1828,67.0,0,120,1.0,58.0
1829,77.0,0,144,10.0,80.0
1830,65.0,0,72,11.0,90.0
1831,81.0,0,120,0.0,70.0
1832,69.0,0,120,1.0,58.0
1833,57.0,120,120,2.0,58.0
1834,61.0,0,120,11.0,70.0
1835,58.0,120,192,2.0,58.0
1836,77.0,0,192,10.0,80.0
1837,70.0,0,192,1.0,58.0
1838,82.0,0,192,0.0,70.0
1839,65.0,120,120,11.0,70.0
1840,79.0,120,96,10.0,80.0
1841,61.0,0,120,11.0,70.0
1842,81.0,0,96,10.0,80.0
1843,65.0,120,120,11.0,70.0
1844,82.0,0,96,10.0,80.0
1845,61.0,120,120,11.0,70.0
1846,80.0,120,96,10.0,80.0
1847,65.0,0,120,11.0,70.0
1848,78.0,0,96,10.0,80.0
1849,61.0,120,120,11.0,70.0
1850,65.0,120,72,11.0,90.0
1851,77.0,0,96,10.0,80.0
1852,77.0,120,60,10.0,80.0
1853,60.0,0,120,11.0,70.0
1854,75.0,60,108,10.0,100.0
1855,65.0,60,120,11.0,70.0
1856,60.0,120,120,11.0,70.0
1857,75.0,0,144,10.0,80.0
1858,65.0,120,120,11.0,70.0
1859,75.0,120,60,10.0,80.0
1860,58.0,0,120,11.0,70.0
1861,73.0,60,108,10.0,100.0
1862,65.0,60,120,11.0,70.0
1863,58.0,120,120,11.0,70.0
1864,73.0,0,144,10.0,80.0
1865,65.0,120,72,11.0,90.0
1866,73.0,0,120,10.0,70.0
1867,63.0,0,120,11.0,70.0
1868,66.0,120,120,11.0,70.0
1869,63.0,120,120,11.0,70.0
1870,66.0,120,120,11.0,70.0
1871,63.0,120,120,11.0,70.0
1872,66.0,120,120,11.0,70.0
1873,63.0,120,120,11.0,70.0
1874,71.0,0,744,10.0,70.0
1875,66.0,120,72,11.0,90.0
1876,63.0,120,960,2.0,70.0
1877,62.0,120,120,11.0,70.0
1878,70.0,0,120,10.0,70.0
1879,66.0,120,120,11.0,70.0
1880,62.0,120,120,11.0,70.0
1881,66.0,120,120,11.0,70.0
1882,62.0,120,120,11.0,70.0
1883,66.0,120,120,11.0,70.0
1884,62.0,120,120,11.0,70.0
1885,71.0,0,744,10.0,70.0
1886,66.0,120,72,11.0,90.0
1887,62.0,0,960,2.0,70.0
1888,66.0,0,1920,2.0,70.0
1889,61.0,0,120,11.0,70.0
1890,71.0,0,240,10.0,70.0
1891,65.0,120,120,11.0,70.0
1892,68.0,120,120,11.0,70.0
1893,49.0,0,384,13.0,58.0
1894,61.0,0,384,2.0,58.0
1895,65.0,0,384,2.0,58.0
1896,37.0,0,384,14.0,58.0
1897,65.0,120,120,11.0,70.0
1898,68.0,120,120,11.0,70.0
1899,65.0,120,120,11.0,70.0
1900,83.0,0,480,10.0,70.0
1901,56.0,0,72,2.0,58.0
1902,68.0,0,120,11.0,70.0
1903,58.0,0,72,2.0,92.0
1904,65.0,120,72,11.0,90.0
1905,59.0,120,120,2.0,92.0
1906,61.0,0,120,11.0,70.0
1907,58.0,120,72,2.0,92.0
1908,80.0,120,480,10.0,70.0
1909,65.0,0,120,11.0,70.0
1910,56.0,0,72,2.0,92.0
1911,68.0,0,120,11.0,70.0
1912,49.0,0,384,14.0,58.0
1913,61.0,0,384,13.0,58.0
1914,54.0,120,72,2.0,92.0
1915,65.0,0,120,11.0,70.0
1916,68.0,0,120,11.0,70.0
1917,53.0,120,144,2.0,92.0
1918,77.0,120,480,10.0,70.0
1919,65.0,120,120,11.0,70.0
1920,82.0,0,72,0.0,70.0
1921,68.0,120,120,11.0,70.0
1922,56.0,0,1872,12.0,58.0
1923,65.0,0,72,11.0,90.0
1924,83.0,120,72,0.0,80.0
1925,53.0,120,1872,12.0,58.0
1926,71.0,0,192,10.0,70.0
1927,61.0,0,120,11.0,70.0
1928,85.0,120,120,0.0,80.0
1929,83.0,120,72,0.0,80.0
1930,66.0,0,120,11.0,70.0
1931,70.0,0,240,10.0,70.0
1932,82.0,0,72,0.0,80.0
1933,70.0,120,120,11.0,70.0
1934,37.0,0,384,14.0,58.0
1935,49.0,0,384,13.0,58.0
1936,80.0,120,72,0.0,80.0
1937,66.0,0,120,11.0,70.0
1938,70.0,120,120,11.0,70.0
1939,78.0,0,144,0.0,80.0
1940,66.0,120,120,11.0,70.0
1941,85.0,0,480,10.0,70.0
1942,58.0,0,72,2.0,92.0
1943,70.0,120,120,11.0,70.0
1944,59.0,120,72,2.0,92.0
1945,66.0,0,72,11.0,90.0
1946,61.0,0,120,2.0,92.0
1947,61.0,0,120,11.0,70.0
1948,59.0,0,72,2.0,92.0
1949,66.0,120,120,11.0,70.0
1950,82.0,0,480,10.0,70.0
1951,58.0,120,72,2.0,92.0
1952,70.0,0,120,11.0,70.0
1953,61.0,120,384,13.0,58.0
1954,49.0,0,384,14.0,58.0
1955,56.0,0,72,2.0,92.0
1956,66.0,120,120,11.0,70.0
1957,70.0,120,120,11.0,70.0
1958,54.0,0,144,2.0,92.0
1959,78.0,0,480,10.0,70.0
1960,66.0,120,120,11.0,70.0
1961,80.0,120,72,0.0,80.0
1962,70.0,0,120,11.0,70.0
1963,82.0,0,72,0.0,80.0
1964,66.0,120,72,11.0,90.0
1965,58.0,0,1872,12.0,58.0
1966,54.0,0,1872,12.0,58.0
1967,73.0,0,192,10.0,70.0
1968,83.0,0,120,0.0,80.0
1969,61.0,120,120,11.0,70.0
1970,82.0,120,72,0.0,80.0
1971,71.0,0,240,10.0,70.0
1972,65.0,0,120,11.0,70.0
1973,80.0,0,72,0.0,80.0
1974,68.0,0,120,11.0,70.0
1975,49.0,0,384,13.0,58.0
1976,37.0,0,384,14.0,58.0
1977,78.0,0,72,0.0,80.0
1978,65.0,120,120,11.0,70.0
1979,68.0,0,120,11.0,70.0
1980,77.0,120,144,0.0,80.0
1981,65.0,120,120,11.0,70.0
1982,83.0,120,480,10.0,70.0
1983,56.0,0,72,2.0,92.0
1984,68.0,120,120,11.0,70.0
1985,57.0,120,72,2.0,92.0
1986,65.0,0,72,11.0,90.0
1987,59.0,0,120,2.0,92.0
1988,61.0,0,120,11.0,70.0
1989,57.0,0,72,2.0,92.0
1990,80.0,0,480,10.0,70.0
1991,65.0,120,120,11.0,70.0
1992,56.0,120,72,2.0,92.0
1993,68.0,0,120,11.0,70.0
1994,49.0,0,384,14.0,58.0
1995,61.0,120,384,13.0,58.0
1996,54.0,0,72,2.0,92.0
1997,65.0,120,120,11.0,70.0
1998,68.0,0,120,11.0,70.0
1999,53.0,120,144,2.0,92.0
2000,77.0,0,480,10.0,70.0
2001,65.0,120,120,11.0,70.0
2002,81.0,0,72,0.0,80.0
2003,68.0,120,120,11.0,70.0
2004,83.0,120,72,0.0,80.0
2005,65.0,0,72,11.0,90.0
2006,53.0,0,1872,12.0,58.0
2007,71.0,0,192,10.0,70.0
2008,56.0,0,1872,12.0,58.0
2009,61.0,0,120,11.0,70.0
2010,85.0,0,120,0.0,80.0
2011,83.0,0,72,0.0,80.0
2012,66.0,120,120,11.0,70.0
2013,69.0,0,240,10.0,70.0
2014,81.0,0,72,0.0,80.0
2015,69.0,0,120,11.0,70.0
2016,37.0,0,384,14.0,58.0
2017,49.0,0,384,13.0,58.0
2018,80.0,120,72,0.0,80.0
2019,66.0,0,120,11.0,70.0
2020,69.0,120,120,11.0,70.0
2021,78.0,0,144,0.0,80.0
2022,85.0,120,480,10.0,70.0
2023,66.0,120,120,11.0,70.0
2024,57.0,0,72,2.0,92.0
2025,69.0,120,120,11.0,70.0
2026,66.0,0,72,11.0,90.0
2027,59.0,120,72,2.0,92.0
2028,61.0,0,120,2.0,92.0
2029,61.0,0,120,11.0,70.0
2030,59.0,120,72,2.0,92.0
2031,81.0,0,480,10.0,70.0
2032,66.0,0,120,11.0,70.0
2033,57.0,120,72,2.0,92.0
2034,69.0,0,120,11.0,70.0
2035,49.0,120,384,14.0,58.0
2036,61.0,0,384,13.0,58.0
2037,56.0,120,72,2.0,92.0
2038,66.0,0,120,11.0,70.0
2039,69.0,120,120,11.0,70.0
2040,54.0,0,144,2.0,92.0
2041,66.0,120,72,11.0,112.0
2042,78.0,0,480,10.0,70.0
2043,69.0,120,120,11.0,127.0
2044,69.0,0,144,10.0,127.0
2045,66.0,120,60,11.0,112.0
2046,45.0,0,192,14.0,127.0
2047,57.0,0,1872,12.0,58.0
2048,57.0,0,192,13.0,127.0
2049,54.0,120,1872,12.0,58.0
2050,60.0,0,156,10.0,116.0
2051,60.0,0,156,11.0,105.0
2052,60.0,240,78,10.0,116.0
2053,60.0,0,78,11.0,105.0
2054,51.0,0,384,5.0,105.0
2055,60.0,120,78,10.0,116.0
2056,60.0,0,78,11.0,105.0
2057,36.0,120,576,14.0,125.0
2058,60.0,0,576,12.0,125.0
2059,48.0,0,576,13.0,125.0
2060,60.0,0,156,11.0,105.0
2061,60.0,120,156,10.0,116.0
2062,75.0,0,768,4.0,105.0
2063,63.0,0,768,4.0,105.0
2064,75.0,0,768,1.0,112.0
2065,63.0,0,768,3.0,105.0
2066,69.0,0,768,1.0,92.0
2067,51.0,0,768,3.0,105.0
2068,57.0,0,768,2.0,112.0
2069,54.0,0,768,2.0,92.0
2070,78.0,0,768,0.0,112.0
2071,69.0,0,156,10.0,116.0
2072,69.0,240,156,11.0,105.0
2073,59.0,0,156,11.0,105.0
2074,59.0,240,156,10.0,116.0
2075,59.0,240,78,11.0,105.0
2076,59.0,0,78,10.0,116.0
2077,51.0,0,384,5.0,105.0
2078,59.0,0,78,11.0,105.0
2079,59.0,120,78,10.0,116.0
2080,47.0,0,576,13.0,125.0
2081,35.0,0,576,14.0,125.0
2082,59.0,0,576,12.0,125.0
2083,59.0,0,156,10.0,116.0
2084,59.0,120,156,11.0,105.0
2085,57.0,0,768,2.0,112.0
2086,81.0,0,768,0.0,112.0
2087,63.0,0,768,3.0,105.0
2088,51.0,0,768,3.0,105.0
2089,75.0,0,768,4.0,105.0
2090,63.0,0,768,4.0,105.0
2091,69.0,240,156,10.0,116.0
2092,69.0,0,156,11.0,105.0
2093,58.0,0,156,10.0,116.0
2094,58.0,0,156,11.0,105.0
2095,58.0,240,78,11.0,105.0
2096,58.0,0,78,10.0,116.0
2097,51.0,0,384,5.0,105.0
2098,58.0,120,78,10.0,116.0
2099,58.0,0,78,11.0,105.0
2100,58.0,0,576,12.0,125.0
2101,34.0,0,576,14.0,125.0
2102,46.0,0,576,13.0,125.0
2103,58.0,120,156,10.0,116.0
2104,58.0,0,156,11.0,105.0
2105,82.0,0,768,0.0,112.0
2106,58.0,0,768,2.0,112.0
2107,63.0,0,768,4.0,105.0
2108,66.0,0,1728,2.0,92.0
2109,75.0,0,768,4.0,105.0
2110,51.0,240,768,3.0,105.0
2111,63.0,0,768,3.0,105.0
2112,78.0,0,1728,1.0,92.0
2113,70.0,240,156,10.0,116.0
2114,70.0,0,156,11.0,105.0
2115,65.0,0,288,2.0,112.0
2116,75.0,0,288,4.0,125.0
2117,84.0,0,288,0.0,112.0
2118,63.0,0,288,3.0,125.0
2119,77.0,0,288,1.0,112.0
2120,45.0,0,312,13.0,125.0
2121,57.0,0,312,11.0,105.0
2122,33.0,0,312,14.0,125.0
2123,57.0,0,312,12.0,125.0
2124,60.0,0,384,2.0,92.0
2125,63.0,240,384,4.0,105.0
2126,57.0,0,384,10.0,116.0
2127,75.0,0,2304,1.0,92.0
2128,51.0,0,384,3.0,105.0
2129,51.0,0,384,5.0,105.0
2130,86.0,0,60,10.0,116.0
2131,84.0,60,60,10.0,116.0
2132,86.0,60,60,10.0,116.0
2133,84.0,60,60,10.0,116.0
2134,63.0,0,288,3.0,105.0
2135,77.0,0,288,1.0,92.0
2136,84.0,0,288,0.0,92.0
2137,57.0,0,288,2.0,92.0
2138,65.0,0,288,3.0,105.0
2139,86.0,60,60,10.0,116.0
2140,77.0,0,312,11.0,105.0
2141,75.0,0,312,11.0,105.0
2142,45.0,480,312,14.0,105.0
2143,69.0,0,312,12.0,105.0
2144,57.0,0,312,13.0,105.0
2145,84.0,60,60,10.0,116.0
2146,75.0,0,384,1.0,92.0
2147,82.0,60,60,10.0,116.0
2148,84.0,60,48,10.0,116.0
2149,86.0,0,288,0.0,92.0
2150,58.0,0,288,3.0,105.0
2151,77.0,0,288,1.0,92.0
2152,58.0,60,288,2.0,92.0
2153,65.0,0,288,3.0,105.0
2154,46.0,0,312,14.0,105.0
2155,74.0,0,312,11.0,105.0
2156,77.0,0,312,11.0,105.0
2157,58.0,0,312,13.0,105.0
2158,70.0,0,312,12.0,105.0
2159,58.0,0,384,4.0,105.0
2160,74.0,0,384,1.0,92.0
2161,86.0,0,384,10.0,116.0
2162,46.0,0,384,5.0,105.0
2163,70.0,0,384,4.0,105.0
2164,67.0,0,144,3.0,105.0
2165,74.0,0,144,1.0,92.0
2166,70.0,0,144,1.0,92.0
2167,82.0,480,144,0.0,92.0
2168,55.0,0,144,2.0,92.0
2169,58.0,0,144,3.0,105.0
2170,67.0,0,156,12.0,105.0
2171,82.0,0,156,10.0,116.0
2172,43.0,0,156,14.0,105.0
2173,55.0,0,156,13.0,105.0
2174,74.0,0,156,11.0,105.0
2175,55.0,0,144,2.0,92.0
2176,70.0,0,144,1.0,92.0
2177,74.0,0,144,1.0,92.0
2178,67.0,0,144,3.0,105.0
2179,82.0,240,144,0.0,92.0
2180,58.0,0,144,3.0,105.0
2181,74.0,0,156,11.0,105.0
2182,67.0,0,156,12.0,105.0
2183,55.0,0,156,13.0,105.0
2184,43.0,0,156,14.0,105.0
2185,82.0,0,156,10.0,116.0
2186,75.0,240,144,1.0,92.0
2187,84.0,0,144,0.0,92.0
2188,67.0,0,144,3.0,105.0
2189,72.0,0,144,1.0,92.0
2190,51.0,0,144,2.0,92.0
2191,63.0,0,144,3.0,105.0
2192,75.0,0,156,11.0,105.0
2193,51.0,0,156,13.0,105.0
2194,63.0,0,156,12.0,105.0
2195,84.0,0,156,10.0,116.0
2196,39.0,0,156,14.0,105.0
2197,75.0,0,144,1.0,92.0
2198,84.0,0,144,0.0,92.0
2199,72.0,240,144,1.0,92.0
2200,51.0,0,144,2.0,92.0
2201,63.0,0,144,3.0,105.0
2202,67.0,0,144,3.0,105.0
2203,63.0,0,156,12.0,105.0
2204,84.0,0,156,10.0,116.0
2205,75.0,0,156,11.0,105.0
2206,51.0,0,156,13.0,105.0
2207,39.0,0,156,14.0,105.0
2208,81.0,0,144,0.0,92.0
2209,72.0,0,144,1.0,92.0
2210,53.0,0,144,2.0,92.0
2211,65.0,0,144,3.0,105.0
2212,69.0,0,144,1.0,92.0
2213,41.0,0,156,14.0,105.0
2214,72.0,0,156,11.0,105.0
2215,81.0,0,156,10.0,116.0
2216,65.0,240,156,12.0,105.0
2217,53.0,0,156,13.0,105.0
2218,72.0,0,144,1.0,92.0
2219,69.0,0,144,1.0,92.0
2220,53.0,0,144,2.0,92.0
2221,65.0,0,144,3.0,105.0
2222,81.0,0,144,0.0,92.0
2223,72.0,0,156,11.0,105.0
2224,65.0,0,156,12.0,105.0
2225,81.0,0,156,10.0,116.0
2226,53.0,240,156,13.0,105.0
2227,41.0,0,156,14.0,105.0
2228,82.0,0,96,11.0,92.0
2229,70.0,240,96,11.0,92.0
2230,82.0,0,144,10.0,116.0
2231,58.0,0,144,3.0,92.0
2232,70.0,0,156,1.0,92.0
2233,46.0,0,156,13.0,105.0
2234,46.0,0,156,2.0,92.0
2235,34.0,0,156,14.0,105.0
2236,58.0,0,156,12.0,105.0
2237,82.0,0,156,0.0,92.0
2238,70.0,0,96,11.0,92.0
2239,82.0,120,96,11.0,92.0
2240,82.0,0,96,11.0,92.0
2241,70.0,0,96,11.0,92.0
2242,70.0,0,384,4.0,105.0
2243,58.0,0,384,4.0,105.0
2244,46.0,0,384,5.0,105.0
2245,46.0,0,144,3.0,92.0
2246,58.0,0,144,3.0,92.0
2247,82.0,0,96,11.0,92.0
2248,70.0,120,96,11.0,92.0
2249,70.0,0,96,11.0,92.0
2250,82.0,0,96,11.0,92.0
2251,58.0,0,144,3.0,92.0
2252,46.0,120,144,3.0,92.0
2253,82.0,120,96,11.0,92.0
2254,70.0,0,96,11.0,92.0
2255,86.0,0,480,0.0,92.0
2256,50.0,0,480,2.0,92.0
2257,50.0,0,480,13.0,105.0
2258,38.0,0,480,14.0,105.0
2259,50.0,0,480,12.0,105.0
2260,74.0,120,480,1.0,92.0
2261,62.0,0,480,10.0,116.0
2262,70.0,0,96,11.0,92.0
2263,82.0,0,96,11.0,92.0
2264,58.0,0,144,3.0,92.0
2265,46.0,0,144,3.0,92.0
2266,51.0,0,192,12.0,105.0
2267,51.0,0,192,2.0,92.0
2268,63.0,120,192,10.0,116.0
2269,39.0,0,192,14.0,105.0
2270,75.0,0,192,1.0,92.0
2271,87.0,0,192,0.0,92.0
2272,51.0,0,192,13.0,105.0
2273,70.0,120,96,11.0,92.0
2274,82.0,0,96,11.0,92.0
2275,70.0,0,96,11.0,92.0
2276,82.0,0,96,11.0,92.0
2277,82.0,0,144,10.0,116.0
2278,58.0,0,192,3.0,92.0
2279,46.0,0,192,3.0,92.0
2280,70.0,0,96,11.0,92.0
2281,82.0,120,96,11.0,92.0
2282,70.0,0,96,11.0,92.0
2283,82.0,0,96,11.0,92.0
2284,46.0,0,384,5.0,105.0
2285,70.0,120,384,4.0,105.0
2286,58.0,0,384,4.0,105.0
2287,46.0,0,192,3.0,92.0
2288,58.0,120,192,3.0,92.0
2289,70.0,120,96,11.0,92.0
2290,82.0,0,96,11.0,92.0
2291,70.0,0,96,11.0,92.0
2292,82.0,0,96,11.0,92.0
2293,46.0,0,192,3.0,92.0
2294,58.0,120,192,3.0,92.0
2295,82.0,0,96,11.0,92.0
2296,70.0,120,96,11.0,92.0
2297,88.0,0,480,0.0,92.0
2298,52.0,0,480,12.0,105.0
2299,52.0,0,480,13.0,105.0
2300,76.0,0,480,1.0,92.0
2301,40.0,0,480,14.0,105.0
2302,64.0,0,480,10.0,116.0
2303,52.0,0,480,2.0,92.0
2304,82.0,0,96,11.0,92.0
2305,70.0,120,96,11.0,92.0
2306,77.0,0,192,1.0,92.0
2307,41.0,0,192,14.0,105.0
2308,89.0,0,192,0.0,92.0
2309,53.0,0,192,13.0,105.0
2310,58.0,0,192,3.0,92.0
2311,46.0,0,192,3.0,92.0
2312,53.0,0,192,12.0,105.0
2313,65.0,0,192,10.0,116.0
2314,53.0,0,192,2.0,92.0
2315,82.0,0,96,11.0,92.0
2316,70.0,120,96,11.0,92.0
2317,82.0,0,96,11.0,92.0
2318,70.0,0,96,11.0,92.0
2319,82.0,0,144,10.0,116.0
2320,46.0,0,192,3.0,92.0
2321,58.0,120,192,3.0,92.0
2322,82.0,120,96,11.0,92.0
2323,70.0,0,96,11.0,92.0
2324,82.0,0,96,11.0,92.0
2325,70.0,0,96,11.0,92.0
2326,70.0,0,384,4.0,105.0
2327,58.0,0,384,4.0,105.0
2328,46.0,0,384,5.0,105.0
2329,46.0,0,192,3.0,92.0
2330,58.0,120,192,3.0,92.0
2331,70.0,120,96,11.0,92.0
2332,82.0,0,96,11.0,92.0
2333,82.0,0,96,11.0,92.0
2334,70.0,120,96,11.0,92.0
2335,46.0,0,192,3.0,92.0
2336,58.0,0,192,3.0,92.0
2337,70.0,0,96,11.0,92.0
2338,82.0,120,96,11.0,92.0
2339,90.0,0,480,0.0,92.0
2340,54.0,0,480,2.0,92.0
2341,66.0,0,480,10.0,116.0
2342,54.0,0,480,12.0,105.0
2343,42.0,0,480,14.0,105.0
2344,78.0,0,480,1.0,92.0
2345,54.0,0,480,13.0,105.0
2346,70.0,0,96,11.0,92.0
2347,82.0,0,96,11.0,92.0
2348,55.0,0,192,12.0,105.0
2349,43.0,0,192,14.0,105.0
2350,55.0,120,192,2.0,92.0
2351,91.0,0,192,0.0,92.0
2352,55.0,0,192,13.0,105.0
2353,79.0,0,192,1.0,92.0
2354,46.0,0,192,3.0,92.0
2355,67.0,0,192,10.0,116.0
2356,58.0,0,192,3.0,92.0
2357,82.0,120,96,11.0,92.0
2358,70.0,0,96,11.0,92.0
2359,56.0,0,156,13.0,105.0
2360,44.0,0,156,14.0,105.0
2361,68.0,0,156,10.0,116.0
2362,82.0,0,156,11.0,92.0
2363,56.0,0,156,12.0,105.0
2364,70.0,0,156,11.0,92.0
2365,62.0,0,78,11.0,92.0
2366,44.0,0,78,13.0,105.0
2367,56.0,0,78,12.0,105.0
2368,56.0,240,78,10.0,116.0
2369,70.0,0,78,11.0,92.0
2370,32.0,0,78,14.0,105.0
2371,80.0,0,384,1.0,92.0
2372,46.0,120,384,5.0,105.0
2373,46.0,0,384,3.0,92.0
2374,58.0,0,384,3.0,92.0
2375,70.0,0,384,4.0,105.0
2376,58.0,0,384,4.0,105.0
2377,92.0,0,384,0.0,92.0
2378,56.0,0,384,2.0,92.0
2379,62.0,0,78,11.0,92.0
2380,32.0,0,78,14.0,105.0
2381,70.0,0,78,11.0,92.0
2382,44.0,120,78,13.0,105.0
2383,56.0,0,78,10.0,116.0
2384,56.0,0,78,12.0,105.0
2385,62.0,0,156,11.0,92.0
2386,70.0,0,156,11.0,92.0
2387,56.0,0,156,12.0,105.0
2388,32.0,0,156,14.0,105.0
2389,44.0,0,156,13.0,105.0
2390,56.0,120,156,10.0,116.0
2391,46.0,0,288,5.0,105.0
2392,58.0,0,288,4.0,105.0
2393,70.0,0,288,4.0,105.0
2394,58.0,0,288,3.0,92.0
2395,46.0,0,288,3.0,92.0
2396,77.0,0,384,1.0,92.0
2397,74.0,0,384,1.0,92.0
2398,62.0,0,384,2.0,92.0
2399,86.0,0,384,0.0,92.0
2400,53.0,0,384,2.0,92.0
2401,62.0,0,156,11.0,92.0
2402,56.0,240,156,12.0,105.0
2403,44.0,0,156,13.0,105.0
2404,56.0,0,156,10.0,116.0
2405,70.0,0,156,11.0,92.0
2406,32.0,0,156,14.0,105.0
2407,58.0,0,96,3.0,92.0
2408,58.0,0,96,4.0,105.0
2409,70.0,0,96,4.0,105.0
2410,46.0,0,96,5.0,105.0
2411,46.0,120,96,3.0,92.0
2412,70.0,0,156,11.0,92.0
2413,55.0,0,156,12.0,105.0
2414,31.0,0,156,14.0,105.0
2415,43.0,0,156,13.0,105.0
2416,63.0,0,156,11.0,92.0
2417,55.0,0,156,10.0,116.0
2418,55.0,0,78,13.0,105.0
2419,82.0,0,78,10.0,116.0
2420,67.0,0,78,12.0,105.0
2421,43.0,240,78,14.0,105.0
2422,75.0,0,78,11.0,92.0
2423,46.0,0,384,3.0,92.0
2424,58.0,0,384,4.0,105.0
2425,70.0,0,384,4.0,105.0
2426,58.0,0,384,3.0,92.0
2427,46.0,120,384,5.0,105.0
2428,43.0,0,78,14.0,105.0
2429,75.0,120,78,11.0,92.0
2430,67.0,0,78,12.0,105.0
2431,82.0,0,78,10.0,116.0
2432,55.0,0,78,13.0,105.0
2433,55.0,0,156,13.0,105.0
2434,75.0,0,156,11.0,92.0
2435,67.0,0,156,12.0,105.0
2436,43.0,120,156,14.0,105.0
2437,82.0,0,156,10.0,116.0
2438,55.0,0,768,2.0,92.0
2439,46.0,0,288,3.0,92.0
2440,58.0,0,288,3.0,92.0
2441,46.0,0,288,5.0,105.0
2442,63.0,0,768,2.0,92.0
2443,58.0,0,288,4.0,105.0
2444,87.0,0,768,0.0,92.0
2445,75.0,0,768,1.0,92.0
2446,79.0,0,768,1.0,92.0
2447,70.0,0,288,4.0,105.0
2448,55.0,0,156,13.0,105.0
2449,82.0,240,156,10.0,116.0
2450,67.0,0,156,12.0,105.0
2451,75.0,0,156,11.0,92.0
2452,43.0,0,156,14.0,105.0
2453,58.0,0,96,3.0,92.0
2454,70.0,120,96,4.0,105.0
2455,58.0,0,96,4.0,105.0
2456,46.0,0,96,3.0,92.0
2457,46.0,0,96,5.0,105.0
2458,76.0,0,156,11.0,92.0
2459,66.0,0,156,12.0,105.0
2460,42.0,0,156,14.0,105.0
2461,54.0,0,156,13.0,105.0
2462,82.0,0,156,10.0,116.0
2463,82.0,0,78,11.0,92.0
2464,42.0,0,78,14.0,105.0
2465,85.0,0,78,10.0,116.0
2466,54.0,240,78,13.0,105.0
2467,66.0,0,78,12.0,105.0
2468,70.0,0,384,4.0,105.0
2469,46.0,0,384,5.0,105.0
2470,58.0,0,384,3.0,92.0
2471,58.0,0,384,4.0,105.0
2472,46.0,0,384,3.0,92.0
2473,66.0,0,78,12.0,105.0
2474,42.0,0,78,14.0,105.0
2475,54.0,0,78,13.0,105.0
2476,85.0,0,78,10.0,116.0
2477,82.0,120,78,11.0,92.0
2478,42.0,0,156,14.0,105.0
2479,54.0,0,156,13.0,105.0
2480,66.0,0,156,12.0,105.0
2481,82.0,0,156,11.0,92.0
2482,85.0,0,156,10.0,116.0
2483,76.0,0,768,1.0,92.0
2484,73.0,0,768,1.0,92.0
2485,64.0,0,768,2.0,92.0
2486,61.0,0,768,2.0,92.0
2487,88.0,120,768,0.0,92.0
2488,46.0,0,384,5.0,105.0
2489,70.0,0,384,4.0,105.0
2490,58.0,0,384,3.0,92.0
2491,58.0,120,384,4.0,105.0
2492,46.0,0,384,3.0,92.0
2493,66.0,0,156,12.0,105.0
2494,82.0,0,156,11.0,92.0
2495,85.0,240,156,10.0,116.0
2496,54.0,0,156,13.0,105.0
2497,42.0,0,156,14.0,105.0
2498,46.0,0,48,5.0,105.0
2499,46.0,60,48,5.0,105.0
2500,82.0,0,120,11.0,92.0
2501,86.0,0,120,10.0,116.0
2502,65.0,0,156,12.0,105.0
2503,89.0,0,156,0.0,92.0
2504,62.0,0,156,2.0,92.0
2505,65.0,0,156,2.0,92.0
2506,77.0,0,156,1.0,92.0
2507,74.0,0,156,1.0,92.0
2508,41.0,0,156,14.0,105.0
2509,53.0,240,156,13.0,105.0
2510,46.0,0,48,5.0,105.0
2511,70.0,0,192,4.0,105.0
2512,58.0,0,192,3.0,92.0
2513,46.0,0,192,3.0,92.0
2514,58.0,0,192,4.0,105.0
2515,46.0,60,48,5.0,105.0
2516,85.0,60,120,10.0,116.0
2517,81.0,0,120,11.0,92.0
2518,46.0,60,48,5.0,105.0
2519,46.0,60,48,5.0,105.0
2520,86.0,0,120,10.0,116.0
2521,82.0,0,120,11.0,92.0
2522,70.0,0,156,12.0,105.0
2523,58.0,0,156,13.0,105.0
2524,89.0,0,156,0.0,92.0
2525,77.0,0,156,1.0,92.0
2526,46.0,0,156,14.0,105.0
2527,62.0,0,156,2.0,92.0
2528,74.0,0,156,1.0,92.0
2529,65.0,0,156,2.0,92.0
2530,46.0,60,48,5.0,105.0
2531,70.0,0,192,4.0,105.0
2532,58.0,0,192,3.0,92.0
2533,46.0,0,192,3.0,92.0
2534,58.0,0,192,4.0,105.0
2535,46.0,60,48,5.0,105.0
2536,85.0,0,120,10.0,116.0
2537,81.0,0,120,11.0,92.0
2538,46.0,0,48,5.0,105.0
2539,46.0,60,48,5.0,105.0
2540,86.0,0,120,10.0,116.0
2541,82.0,0,120,11.0,92.0
2542,74.0,0,156,12.0,105.0
2543,74.0,0,156,1.0,92.0
2544,77.0,0,156,1.0,92.0
2545,62.0,0,156,13.0,105.0
2546,50.0,0,156,14.0,105.0
2547,65.0,60,156,2.0,92.0
2548,62.0,0,156,2.0,92.0
2549,89.0,0,156,0.0,92.0
2550,46.0,0,48,5.0,105.0
2551,46.0,0,192,3.0,92.0
2552,58.0,0,192,3.0,92.0
2553,58.0,0,192,4.0,105.0
2554,70.0,0,192,4.0,105.0
2555,46.0,60,48,5.0,105.0
2556,81.0,60,120,11.0,92.0
2557,85.0,0,120,10.0,116.0
2558,46.0,0,48,5.0,105.0
2559,46.0,60,48,5.0,105.0
2560,86.0,0,120,10.0,116.0
2561,82.0,0,120,11.0,92.0
2562,74.0,0,156,1.0,92.0
2563,77.0,0,156,1.0,92.0
2564,65.0,0,156,13.0,105.0
2565,62.0,0,156,2.0,92.0
2566,53.0,0,156,14.0,105.0
2567,65.0,0,156,2.0,92.0
2568,89.0,0,156,0.0,92.0
2569,70.0,0,156,12.0,105.0
2570,46.0,0,48,5.0,105.0
2571,70.0,60,192,4.0,105.0
2572,58.0,0,192,4.0,105.0
2573,46.0,0,192,3.0,92.0
2574,58.0,0,192,3.0,92.0
2575,81.0,0,96,11.0,92.0
2576,85.0,60,96,10.0,116.0
2577,46.0,60,48,5.0,105.0
2578,46.0,0,48,5.0,105.0
2579,46.0,60,48,5.0,105.0
2580,82.0,0,120,11.0,92.0
2581,86.0,0,120,10.0,116.0
2582,65.0,0,156,2.0,92.0
2583,62.0,0,156,2.0,92.0
2584,65.0,0,156,12.0,105.0
2585,89.0,0,156,0.0,92.0
2586,53.0,0,156,13.0,105.0
2587,74.0,0,156,1.0,92.0
2588,77.0,0,156,1.0,92.0
2589,41.0,60,156,14.0,105.0
2590,46.0,0,48,5.0,105.0
2591,46.0,0,192,3.0,92.0
2592,58.0,0,192,4.0,105.0
2593,70.0,0,192,4.0,105.0
2594,58.0,0,192,3.0,92.0
2595,46.0,60,48,5.0,105.0
2596,81.0,0,120,11.0,92.0
2597,85.0,60,120,10.0,116.0
2598,46.0,0,48,5.0,105.0
2599,46.0,60,48,5.0,105.0
2600,86.0,0,120,10.0,116.0
2601,82.0,0,120,11.0,92.0
2602,62.0,0,156,2.0,92.0
2603,65.0,60,156,2.0,92.0
2604,70.0,0,156,12.0,105.0
2605,74.0,0,156,1.0,92.0
2606,46.0,0,156,14.0,105.0
2607,58.0,0,156,13.0,105.0
2608,89.0,0,156,0.0,92.0
2609,77.0,0,156,1.0,92.0
2610,46.0,0,48,5.0,105.0
2611,58.0,0,192,4.0,105.0
2612,70.0,0,192,4.0,105.0
2613,46.0,0,192,3.0,92.0
2614,58.0,0,192,3.0,92.0
2615,46.0,60,48,5.0,105.0
2616,81.0,0,120,11.0,92.0
2617,85.0,60,120,10.0,116.0
2618,46.0,0,48,5.0,105.0
2619,46.0,60,48,5.0,105.0
2620,82.0,0,120,11.0,92.0
2621,86.0,0,120,10.0,116.0
2622,74.0,0,156,12.0,105.0
2623,65.0,0,156,2.0,92.0
2624,62.0,0,156,13.0,105.0
2625,74.0,0,156,1.0,92.0
2626,89.0,0,156,0.0,92.0
2627,62.0,0,156,2.0,92.0
2628,77.0,0,156,1.0,92.0
2629,50.0,60,156,14.0,105.0
2630,46.0,0,48,5.0,105.0
2631,46.0,0,192,3.0,92.0
2632,58.0,0,192,3.0,92.0
2633,70.0,0,192,4.0,105.0
2634,58.0,0,192,4.0,105.0
2635,46.0,60,48,5.0,105.0
2636,81.0,60,120,11.0,92.0
2637,85.0,0,120,10.0,116.0
2638,46.0,0,48,5.0,105.0
2639,46.0,60,48,5.0,105.0
2640,82.0,60,120,11.0,92.0
2641,86.0,0,120,10.0,116.0
2642,62.0,0,156,2.0,92.0
2643,65.0,0,156,2.0,92.0
2644,77.0,0,156,1.0,92.0
2645,74.0,0,156,1.0,92.0
2646,89.0,0,156,0.0,92.0
2647,65.0,0,156,13.0,105.0
2648,53.0,0,156,14.0,105.0
2649,70.0,0,156,12.0,105.0
2650,46.0,0,48,5.0,105.0
2651,46.0,0,192,3.0,92.0
2652,58.0,0,192,3.0,92.0
2653,70.0,0,192,4.0,105.0
2654,58.0,0,192,4.0,105.0
2655,85.0,0,96,10.0,116.0
2656,81.0,60,96,11.0,92.0
2657,46.0,60,48,5.0,105.0
2658,86.0,60,96,10.0,116.0
2659,82.0,0,96,11.0,92.0
2660,84.0,0,96,10.0,116.0
2661,81.0,120,96,11.0,92.0
2662,82.0,120,96,10.0,116.0
2663,79.0,0,96,11.0,92.0
2664,65.0,0,384,2.0,92.0
2665,53.0,0,384,13.0,105.0
2666,77.0,0,384,1.0,92.0
2667,70.0,0,384,4.0,105.0
2668,58.0,0,384,4.0,105.0
2669,62.0,0,384,2.0,92.0
2670,41.0,0,384,14.0,105.0
2671,74.0,0,384,1.0,92.0
2672,58.0,0,384,3.0,92.0
2673,46.0,0,384,3.0,92.0
2674,46.0,0,384,5.0,105.0
2675,89.0,0,384,0.0,92.0
2676,65.0,0,384,12.0,105.0
2677,77.0,0,96,11.0,92.0
2678,81.0,120,96,10.0,116.0
2679,75.0,0,96,11.0,92.0
2680,79.0,120,96,10.0,116.0
2681,77.0,0,96,10.0,116.0
2682,74.0,120,96,11.0,92.0
2683,75.0,120,96,10.0,116.0
2684,72.0,0,96,11.0,92.0
2685,70.0,0,96,11.0,92.0
2686,74.0,120,96,10.0,116.0
2687,86.0,0,96,10.0,116.0
2688,82.0,0,96,11.0,92.0
2689,81.0,120,96,11.0,92.0
2690,84.0,0,96,10.0,116.0
2691,82.0,120,96,10.0,116.0
2692,79.0,0,96,11.0,92.0
2693,89.0,120,384,0.0,92.0
2694,62.0,0,384,2.0,92.0
2695,58.0,0,384,4.0,105.0
2696,65.0,0,384,2.0,92.0
2697,70.0,0,384,4.0,105.0
2698,53.0,0,384,13.0,105.0
2699,74.0,0,384,1.0,92.0
2700,65.0,0,384,12.0,105.0
2701,58.0,0,384,3.0,92.0
2702,41.0,0,384,14.0,105.0
2703,46.0,0,384,3.0,92.0
2704,46.0,0,384,5.0,105.0
2705,77.0,0,384,1.0,92.0
2706,81.0,0,96,10.0,116.0
2707,77.0,120,96,11.0,92.0
2708,79.0,120,96,10.0,116.0
2709,75.0,0,96,11.0,92.0
2710,74.0,120,96,11.0,92.0
2711,77.0,0,96,10.0,116.0
2712,75.0,0,96,10.0,116.0
2713,72.0,120,96,11.0,92.0
2714,74.0,120,96,10.0,116.0
2715,70.0,0,96,11.0,92.0
2716,70.0,0,384,4.0,105.0
2717,65.0,0,384,12.0,105.0
2718,89.0,0,384,0.0,92.0
2719,77.0,0,384,1.0,92.0
2720,41.0,0,384,14.0,105.0
2721,74.0,0,384,1.0,92.0
2722,58.0,120,384,3.0,92.0
2723,46.0,0,384,3.0,92.0
2724,82.0,0,384,11.0,92.0
2725,65.0,0,384,2.0,92.0
2726,62.0,0,384,2.0,92.0
2727,46.0,0,384,5.0,105.0
2728,86.0,0,384,10.0,116.0
2729,58.0,0,384,4.0,105.0
2730,53.0,0,384,13.0,105.0
2731,74.0,720,72,1.0,58.0
2732,75.0,120,72,1.0,80.0
2733,53.0,0,960,13.0,58.0
2734,63.0,960,960,11.0,58.0
2735,60.0,0,960,12.0,58.0
2736,41.0,0,960,14.0,58.0
2737,69.0,0,960,10.0,58.0
2738,77.0,0,120,1.0,80.0
2739,75.0,120,72,1.0,80.0
2740,74.0,120,72,1.0,80.0
2741,72.0,120,72,1.0,80.0
2742,71.0,120,144,1.0,80.0
2743,63.0,240,72,2.0,58.0
2744,75.0,0,72,0.0,58.0
2745,65.0,0,72,2.0,70.0
2746,77.0,120,72,0.0,70.0
2747,71.0,0,960,10.0,58.0
2748,43.0,0,960,14.0,58.0
2749,55.0,0,960,13.0,58.0
2750,65.0,0,960,12.0,58.0
2751,62.0,0,960,11.0,58.0
2752,79.0,0,120,0.0,70.0
2753,67.0,120,120,2.0,70.0
2754,77.0,0,72,0.0,70.0
2755,65.0,120,72,2.0,70.0
2756,75.0,120,72,0.0,70.0
2757,63.0,0,72,2.0,70.0
2758,62.0,0,72,2.0,70.0
2759,74.0,120,72,0.0,70.0
2760,60.0,120,144,2.0,70.0
2761,72.0,0,144,0.0,70.0
2762,72.0,0,72,1.0,80.0
2763,60.0,240,72,2.0,70.0
2764,74.0,120,72,1.0,80.0
2765,67.0,120,1872,3.0,58.0
2766,62.0,0,72,2.0,70.0
2767,48.0,0,960,13.0,58.0
2768,72.0,0,960,10.0,58.0
2769,36.0,0,960,14.0,58.0
2770,63.0,0,120,2.0,70.0
2771,75.0,0,120,1.0,80.0
2772,74.0,0,72,1.0,80.0
2773,62.0,120,72,2.0,70.0
2774,60.0,120,72,2.0,70.0
2775,72.0,0,72,1.0,80.0
2776,70.0,0,72,1.0,80.0
2777,58.0,120,72,2.0,70.0
2778,69.0,120,144,1.0,80.0
2779,57.0,0,144,2.0,70.0
2780,74.0,240,72,1.0,80.0
2781,86.0,0,72,0.0,70.0
2782,75.0,0,72,1.0,80.0
2783,87.0,120,72,0.0,70.0
2784,69.0,0,960,10.0,58.0
2785,53.0,120,960,13.0,58.0
2786,60.0,0,1920,11.0,58.0
2787,63.0,0,1920,12.0,58.0
2788,41.0,0,960,14.0,58.0
2789,77.0,0,120,1.0,80.0
2790,89.0,0,120,0.0,70.0
2791,87.0,0,72,0.0,70.0
2792,46.0,120,192,13.0,58.0
2793,58.0,0,192,11.0,58.0
2794,62.0,0,192,12.0,58.0
2795,34.0,0,192,14.0,58.0
2796,75.0,120,72,1.0,80.0
2797,70.0,0,192,10.0,58.0
2798,86.0,0,72,0.0,70.0
2799,74.0,120,72,1.0,80.0
2800,72.0,120,72,1.0,80.0
2801,84.0,0,72,0.0,70.0
2802,65.0,0,1416,3.0,58.0
2803,82.0,120,132,0.0,70.0
2804,70.0,0,132,1.0,80.0
2805,43.0,0,192,14.0,58.0
2806,55.0,0,192,13.0,58.0
2807,58.0,0,192,11.0,58.0
2808,62.0,0,192,10.0,58.0
2809,55.0,0,192,12.0,58.0
2810,74.0,0,132,1.0,80.0
2811,86.0,240,132,0.0,70.0
2812,72.0,0,132,1.0,80.0
2813,84.0,0,132,0.0,70.0
2814,60.0,0,192,11.0,58.0
2815,51.0,0,192,13.0,58.0
2816,55.0,240,192,12.0,58.0
2817,39.0,0,192,14.0,58.0
2818,63.0,0,192,10.0,58.0
2819,75.0,240,132,1.0,80.0
2820,87.0,0,132,0.0,70.0
2821,81.0,0,132,0.0,70.0
2822,69.0,0,132,1.0,80.0
2823,60.0,0,192,10.0,58.0
2824,41.0,240,192,14.0,58.0
2825,53.0,0,192,13.0,58.0
2826,57.0,0,192,11.0,58.0
2827,51.0,0,192,12.0,58.0
2828,72.0,0,132,1.0,80.0
2829,84.0,240,132,0.0,70.0
2830,34.0,240,144,14.0,58.0
2831,46.0,0,144,13.0,58.0
2832,70.0,0,384,1.0,80.0
2833,46.0,0,144,13.0,58.0
2834,82.0,0,384,0.0,70.0
2835,34.0,240,144,14.0,58.0
2836,58.0,0,576,11.0,58.0
2837,50.0,0,576,12.0,58.0
2838,58.0,0,576,10.0,58.0
2839,46.0,240,144,13.0,58.0
2840,34.0,0,144,14.0,58.0
2841,74.0,0,78,10.0,58.0
2842,74.0,0,78,11.0,58.0
2843,62.0,0,96,12.0,58.0
2844,34.0,240,144,14.0,58.0
2845,46.0,0,144,13.0,58.0
2846,75.0,120,78,10.0,58.0
2847,75.0,0,78,11.0,58.0
2848,63.0,0,96,12.0,58.0
2849,77.0,0,120,11.0,58.0
2850,77.0,0,120,10.0,58.0
2851,65.0,120,120,12.0,58.0
2852,34.0,0,144,14.0,58.0
2853,46.0,0,144,13.0,58.0
2854,75.0,0,78,11.0,58.0
2855,75.0,0,78,10.0,58.0
2856,63.0,120,96,12.0,58.0
2857,74.0,0,78,10.0,58.0
2858,74.0,0,78,11.0,58.0
2859,62.0,0,96,12.0,58.0
2860,46.0,120,144,13.0,58.0
2861,34.0,0,144,14.0,58.0
2862,72.0,0,78,11.0,58.0
2863,72.0,120,78,10.0,58.0
2864,60.0,0,96,12.0,58.0
2865,34.0,0,144,14.0,58.0
2866,46.0,0,144,13.0,58.0
2867,70.0,120,156,11.0,58.0
2868,70.0,0,156,10.0,58.0
2869,58.0,0,192,12.0,58.0
2870,69.0,0,78,10.0,58.0
2871,69.0,0,78,11.0,58.0
2872,57.0,0,96,12.0,58.0
2873,46.0,240,144,13.0,58.0
2874,34.0,0,144,14.0,58.0
2875,70.0,0,78,11.0,58.0
2876,70.0,120,78,10.0,58.0
2877,58.0,0,96,12.0,58.0
2878,72.0,120,120,10.0,58.0
2879,72.0,0,120,11.0,58.0
2880,60.0,0,120,12.0,58.0
2881,46.0,0,144,13.0,58.0
2882,34.0,0,144,14.0,58.0
2883,70.0,120,78,10.0,58.0
2884,70.0,0,78,11.0,58.0
2885,58.0,0,96,12.0,58.0
2886,69.0,0,78,10.0,58.0
2887,69.0,0,78,11.0,58.0
2888,56.0,0,96,12.0,58.0
2889,46.0,120,144,13.0,58.0
2890,34.0,0,144,14.0,58.0
2891,67.0,120,78,10.0,58.0
2892,67.0,0,78,11.0,58.0
2893,55.0,0,96,12.0,58.0
2894,34.0,0,144,14.0,58.0
2895,46.0,0,144,13.0,58.0
2896,65.0,120,156,10.0,58.0
2897,65.0,0,156,11.0,58.0
2898,53.0,0,192,12.0,58.0
2899,67.0,0,78,10.0,58.0
2900,67.0,0,78,11.0,58.0
2901,55.0,240,96,12.0,58.0
2902,46.0,0,144,13.0,58.0
2903,34.0,0,144,14.0,58.0
2904,69.0,120,78,11.0,58.0
2905,69.0,0,78,10.0,58.0
2906,56.0,0,96,12.0,58.0
2907,70.0,0,144,10.0,58.0
2908,46.0,0,144,13.0,58.0
2909,34.0,120,144,14.0,58.0
2910,70.0,0,144,11.0,58.0
2911,58.0,0,192,12.0,58.0
2912,34.0,0,144,14.0,58.0
2913,69.0,240,144,11.0,58.0
2914,72.0,0,144,10.0,58.0
2915,46.0,0,144,13.0,58.0
2916,57.0,0,192,12.0,58.0
2917,60.0,0,192,12.0,58.0
2918,70.0,240,144,11.0,58.0
2919,46.0,0,144,13.0,58.0
2920,74.0,0,144,10.0,58.0
2921,34.0,0,144,14.0,58.0
2922,58.0,0,192,12.0,58.0
2923,62.0,0,192,12.0,58.0
2924,72.0,0,144,11.0,58.0
2925,46.0,0,144,13.0,58.0
2926,75.0,0,144,10.0,58.0
2927,34.0,0,144,14.0,58.0
2928,60.0,240,192,12.0,58.0
2929,63.0,0,192,12.0,58.0
2930,34.0,0,120,14.0,58.0
2931,46.0,0,120,13.0,58.0
2932,74.0,0,144,11.0,58.0
2933,65.0,0,144,12.0,58.0
2934,62.0,0,144,12.0,58.0
2935,77.0,0,144,10.0,58.0
2936,33.0,0,120,14.0,58.0
2937,45.0,120,120,13.0,58.0
2938,58.0,120,120,12.0,58.0
2939,58.0,0,120,11.0,58.0
2940,58.0,0,120,10.0,58.0
2941,46.0,0,120,13.0,58.0
2942,34.0,0,120,14.0,58.0
2943,57.0,0,120,11.0,58.0
2944,57.0,0,120,12.0,58.0
2945,77.0,0,480,1.0,58.0
2946,57.0,0,120,10.0,58.0
2947,33.0,120,120,14.0,58.0
2948,65.0,0,480,2.0,70.0
2949,62.0,0,480,2.0,70.0
2950,74.0,240,480,1.0,58.0
2951,45.0,0,120,13.0,58.0
2952,34.0,0,120,14.0,58.0
2953,58.0,120,120,11.0,58.0
2954,58.0,0,120,10.0,58.0
2955,46.0,0,120,13.0,58.0
2956,58.0,0,120,12.0,58.0
2957,57.0,0,120,10.0,58.0
2958,57.0,0,120,12.0,58.0
2959,45.0,120,120,13.0,58.0
2960,57.0,0,120,11.0,58.0
2961,33.0,0,120,14.0,58.0
2962,58.0,0,120,11.0,58.0
2963,58.0,0,120,10.0,58.0
2964,58.0,120,120,12.0,58.0
2965,46.0,0,120,13.0,58.0
2966,34.0,0,120,14.0,58.0
2967,45.0,0,96,13.0,58.0
2968,33.0,0,96,14.0,58.0
2969,75.0,0,480,1.0,70.0
2970,79.0,0,480,1.0,70.0
2971,57.0,0,120,11.0,58.0
2972,57.0,120,120,10.0,58.0
2973,57.0,0,120,12.0,58.0
2974,67.0,0,480,2.0,70.0
2975,63.0,0,480,2.0,70.0
2976,58.0,0,120,12.0,58.0
2977,46.0,0,120,13.0,58.0
2978,58.0,0,120,10.0,58.0
2979,34.0,0,120,14.0,58.0
2980,58.0,0,120,11.0,58.0
2981,33.0,0,120,14.0,58.0
2982,57.0,120,120,12.0,58.0
2983,57.0,0,120,11.0,58.0
2984,57.0,0,120,10.0,58.0
2985,45.0,0,120,13.0,58.0
2986,34.0,120,120,14.0,58.0
2987,58.0,0,120,11.0,58.0
2988,58.0,0,120,10.0,58.0
2989,46.0,0,120,13.0,58.0
2990,58.0,0,120,12.0,58.0
2991,45.0,0,120,13.0,58.0
2992,64.0,0,480,2.0,70.0
2993,76.0,0,480,1.0,70.0
2994,33.0,0,120,14.0,58.0
2995,57.0,0,120,12.0,58.0
2996,73.0,120,480,1.0,70.0
2997,57.0,120,120,11.0,58.0
2998,61.0,0,480,2.0,70.0
2999,57.0,0,120,10.0,58.0
3000,58.0,0,120,10.0,58.0
3001,46.0,0,120,13.0,58.0
3002,58.0,0,120,11.0,58.0
3003,58.0,0,120,12.0,58.0
3004,34.0,0,120,14.0,58.0
3005,57.0,0,120,12.0,58.0
3006,45.0,0,120,13.0,58.0
3007,33.0,0,120,14.0,58.0
3008,57.0,0,120,11.0,58.0
3009,57.0,120,120,10.0,58.0
3010,34.0,0,120,14.0,58.0
3011,58.0,120,120,12.0,58.0
3012,58.0,0,120,10.0,58.0
3013,58.0,0,120,11.0,58.0
3014,46.0,0,120,13.0,58.0
3015,58.0,0,5712,3.0,58.0
3016,46.0,0,5712,3.0,58.0
3017,45.0,0,96,13.0,58.0
3018,33.0,0,96,14.0,58.0
3019,74.0,0,480,1.0,70.0
3020,77.0,0,480,1.0,70.0
3021,57.0,0,120,11.0,58.0
3022,57.0,120,120,12.0,58.0
3023,57.0,0,120,10.0,58.0
3024,65.0,120,480,2.0,70.0
3025,62.0,0,0,2.0,58.0
3026,34.0,0,144,14.0,58.0
3027,46.0,0,144,13.0,58.0
3028,34.0,240,144,14.0,58.0
3029,46.0,0,144,13.0,58.0
3030,50.0,0,576,12.0,58.0
3031,74.0,0,576,1.0,58.0
3032,58.0,0,576,2.0,70.0
3033,58.0,0,576,10.0,58.0
3034,70.0,120,576,1.0,58.0
3035,58.0,0,576,11.0,58.0
3036,34.0,240,144,14.0,58.0
3037,46.0,0,144,13.0,58.0
3038,74.0,0,78,11.0,58.0
3039,74.0,240,78,10.0,58.0
3040,62.0,0,96,12.0,58.0
3041,34.0,0,144,14.0,58.0
3042,46.0,0,144,13.0,58.0
3043,75.0,120,78,10.0,58.0
3044,75.0,0,78,11.0,58.0
3045,63.0,0,96,12.0,58.0
3046,77.0,0,120,11.0,58.0
3047,77.0,0,120,10.0,58.0
3048,65.0,0,120,12.0,58.0
3049,34.0,0,144,14.0,58.0
3050,46.0,120,144,13.0,58.0
3051,75.0,120,78,11.0,58.0
3052,75.0,0,78,10.0,58.0
3053,63.0,0,96,12.0,58.0
3054,74.0,0,78,11.0,58.0
3055,74.0,0,78,10.0,58.0
3056,62.0,0,96,12.0,58.0
3057,46.0,0,144,13.0,58.0
3058,34.0,120,144,14.0,58.0
3059,72.0,0,78,10.0,58.0
3060,72.0,120,78,11.0,58.0
3061,60.0,0,96,12.0,58.0
3062,46.0,0,144,13.0,58.0
3063,34.0,0,144,14.0,58.0
3064,70.0,0,156,11.0,58.0
3065,70.0,0,156,10.0,58.0
3066,58.0,120,192,12.0,58.0
3067,69.0,0,78,10.0,58.0
3068,69.0,0,78,11.0,58.0
3069,57.0,0,96,12.0,58.0
3070,46.0,0,144,13.0,58.0
3071,34.0,240,144,14.0,58.0
3072,70.0,120,78,11.0,58.0
3073,70.0,0,78,10.0,58.0
3074,58.0,0,96,12.0,58.0
3075,72.0,0,120,11.0,58.0
3076,72.0,120,120,10.0,58.0
3077,60.0,0,120,12.0,58.0
3078,34.0,0,144,14.0,58.0
3079,46.0,0,144,13.0,58.0
3080,70.0,0,78,11.0,58.0
3081,70.0,0,78,10.0,58.0
3082,58.0,120,96,12.0,58.0
3083,69.0,0,78,10.0,58.0
3084,69.0,0,78,11.0,58.0
3085,56.0,120,96,12.0,58.0
3086,34.0,0,144,14.0,58.0
3087,46.0,0,144,13.0,58.0
3088,67.0,0,78,10.0,58.0
3089,67.0,0,78,11.0,58.0
3090,55.0,120,96,12.0,58.0
3091,34.0,0,144,14.0,58.0
3092,46.0,120,144,13.0,58.0
3093,65.0,0,156,10.0,58.0
3094,65.0,0,156,11.0,58.0
3095,53.0,0,192,12.0,58.0
3096,67.0,240,78,10.0,58.0
3097,67.0,0,78,11.0,58.0
3098,55.0,0,96,12.0,58.0
3099,46.0,0,144,13.0,58.0
3100,34.0,0,144,14.0,58.0
3101,69.0,0,78,10.0,58.0
3102,69.0,0,78,11.0,58.0
3103,56.0,120,96,12.0,58.0
3104,70.0,120,144,11.0,58.0
3105,34.0,0,144,14.0,58.0
3106,70.0,0,144,10.0,58.0
3107,46.0,0,144,13.0,58.0
3108,58.0,0,192,12.0,58.0
3109,46.0,0,144,13.0,58.0
3110,34.0,0,144,14.0,58.0
3111,72.0,0,144,10.0,58.0
3112,69.0,0,144,11.0,58.0
3113,57.0,240,192,12.0,58.0
3114,60.0,0,192,12.0,58.0
3115,34.0,0,144,14.0,58.0
3116,74.0,0,144,10.0,58.0
3117,46.0,0,144,13.0,58.0
3118,70.0,240,144,11.0,58.0
3119,62.0,0,192,12.0,58.0
3120,58.0,0,192,12.0,58.0
3121,46.0,0,144,13.0,58.0
3122,72.0,0,144,11.0,58.0
3123,75.0,240,144,10.0,58.0
3124,34.0,0,144,14.0,58.0
3125,63.0,0,192,12.0,58.0
3126,60.0,0,192,12.0,58.0
3127,46.0,0,120,13.0,58.0
3128,34.0,0,120,14.0,58.0
3129,74.0,0,144,11.0,58.0
3130,77.0,0,144,10.0,58.0
3131,62.0,0,144,12.0,58.0
3132,65.0,0,144,12.0,58.0
3133,33.0,0,120,14.0,58.0
3134,45.0,120,120,13.0,58.0
3135,58.0,0,120,10.0,58.0
3136,46.0,0,120,13.0,58.0
3137,34.0,0,120,14.0,58.0
3138,58.0,120,120,12.0,58.0
3139,58.0,0,120,11.0,58.0
3140,62.0,0,480,2.0,58.0
3141,65.0,0,480,2.0,58.0
3142,33.0,0,120,14.0,58.0
3143,57.0,0,120,11.0,58.0
3144,77.0,0,480,1.0,58.0
3145,57.0,120,120,10.0,58.0
3146,74.0,240,480,1.0,58.0
3147,45.0,0,120,13.0,58.0
3148,57.0,0,120,12.0,58.0
3149,34.0,0,120,14.0,58.0
3150,58.0,0,120,10.0,58.0
3151,58.0,0,120,11.0,58.0
3152,46.0,0,120,13.0,58.0
3153,58.0,0,120,12.0,58.0
3154,45.0,0,120,13.0,58.0
3155,57.0,0,120,11.0,58.0
3156,33.0,120,120,14.0,58.0
3157,57.0,0,120,12.0,58.0
3158,57.0,0,120,10.0,58.0
3159,58.0,0,120,12.0,58.0
3160,46.0,0,120,13.0,58.0
3161,58.0,0,120,10.0,58.0
3162,58.0,120,120,11.0,58.0
3163,34.0,0,120,14.0,58.0
3164,33.0,0,96,14.0,58.0
3165,45.0,0,96,13.0,58.0
3166,79.0,0,480,1.0,70.0
3167,57.0,120,120,10.0,58.0
3168,57.0,0,120,12.0,58.0
3169,75.0,0,480,1.0,70.0
3170,63.0,120,480,2.0,70.0
3171,57.0,0,120,11.0,58.0
3172,67.0,0,480,2.0,70.0
3173,58.0,0,120,11.0,58.0
3174,58.0,120,120,10.0,58.0
3175,34.0,0,120,14.0,58.0
3176,46.0,0,120,13.0,58.0
3177,58.0,0,120,12.0,58.0
3178,45.0,0,120,13.0,58.0
3179,57.0,0,120,12.0,58.0
3180,57.0,120,120,10.0,58.0
3181,57.0,0,120,11.0,58.0
3182,33.0,0,120,14.0,58.0
3183,58.0,0,120,11.0,58.0
3184,58.0,0,120,10.0,58.0
3185,46.0,120,120,13.0,58.0
3186,34.0,0,120,14.0,58.0
3187,58.0,0,120,12.0,58.0
3188,33.0,0,120,14.0,58.0
3189,61.0,0,480,2.0,70.0
3190,57.0,120,120,11.0,58.0
3191,64.0,0,480,2.0,70.0
3192,73.0,0,480,1.0,70.0
3193,45.0,0,120,13.0,58.0
3194,57.0,0,120,12.0,58.0
3195,57.0,0,120,10.0,58.0
3196,76.0,0,480,1.0,70.0
3197,58.0,0,120,12.0,58.0
3198,58.0,120,120,11.0,58.0
3199,58.0,0,120,10.0,58.0
3200,34.0,0,120,14.0,58.0
3201,46.0,0,120,13.0,58.0
3202,57.0,120,120,12.0,58.0
3203,45.0,0,120,13.0,58.0
3204,57.0,0,120,10.0,58.0
3205,33.0,0,120,14.0,58.0
3206,57.0,0,120,11.0,58.0
3207,34.0,0,120,14.0,58.0
3208,58.0,0,120,11.0,58.0
3209,58.0,120,120,12.0,58.0
3210,46.0,0,120,13.0,58.0
3211,58.0,0,120,10.0,58.0
3212,45.0,0,96,13.0,58.0
3213,33.0,120,96,14.0,58.0
3214,57.0,0,120,12.0,58.0
3215,57.0,0,120,10.0,58.0
3216,57.0,0,120,11.0,58.0
3217,62.0,0,0,2.0,70.0
3218,74.0,0,0,1.0,70.0
3219,77.0,0,480,1.0,70.0
3220,65.0,0,480,2.0,70.0
3221,58.0,0,144,10.0,58.0
3222,46.0,0,5904,3.0,58.0
3223,58.0,0,5904,3.0,58.0
3224,58.0,0,144,11.0,58.0
3225,46.0,0,144,13.0,58.0
3226,34.0,0,144,14.0,58.0
3227,58.0,120,144,12.0,58.0
3228,70.0,0,144,1.0,70.0
3229,58.0,0,144,2.0,70.0
3230,58.0,0,144,10.0,58.0
3231,70.0,0,144,1.0,70.0
3232,74.0,0,144,1.0,70.0
3233,46.0,0,144,13.0,58.0
3234,58.0,0,144,11.0,58.0
3235,58.0,0,144,3.0,58.0
3236,46.0,0,144,3.0,58.0
3237,58.0,240,144,2.0,70.0
3238,34.0,0,144,14.0,58.0
3239,58.0,0,144,12.0,58.0
3240,62.0,0,144,2.0,70.0
3241,86.0,0,480,0.0,58.0
3242,79.0,0,144,1.0,70.0
3243,34.0,0,144,14.0,58.0
3244,58.0,240,144,12.0,58.0
3245,46.0,0,144,3.0,58.0
3246,58.0,0,144,10.0,58.0
3247,58.0,0,144,11.0,58.0
3248,63.0,0,144,2.0,70.0
3249,67.0,0,144,2.0,70.0
3250,58.0,0,144,3.0,58.0
3251,75.0,0,144,1.0,70.0
3252,46.0,0,144,13.0,58.0
3253,79.0,0,144,1.0,70.0
3254,63.0,0,144,2.0,70.0
3255,75.0,0,144,1.0,70.0
3256,67.0,0,144,2.0,70.0
3257,46.0,0,144,13.0,58.0
3258,58.0,0,144,10.0,58.0
3259,58.0,0,144,12.0,58.0
3260,58.0,0,144,11.0,58.0
3261,46.0,240,144,3.0,58.0
3262,58.0,0,144,3.0,58.0
3263,34.0,0,144,14.0,58.0
3264,91.0,0,480,0.0,70.0
3265,46.0,0,144,13.0,58.0
3266,58.0,0,144,3.0,58.0
3267,46.0,0,144,3.0,58.0
3268,58.0,0,144,12.0,58.0
3269,73.0,0,144,1.0,70.0
3270,76.0,0,144,1.0,70.0
3271,58.0,0,144,11.0,58.0
3272,34.0,0,144,14.0,58.0
3273,58.0,240,144,10.0,58.0
3274,61.0,0,144,2.0,70.0
3275,64.0,0,144,2.0,70.0
3276,58.0,0,144,12.0,58.0
3277,58.0,0,144,10.0,58.0
3278,46.0,240,144,13.0,58.0
3279,73.0,0,144,1.0,70.0
3280,76.0,0,144,1.0,70.0
3281,34.0,0,144,14.0,58.0
3282,58.0,0,144,3.0,58.0
3283,58.0,0,144,11.0,58.0
3284,64.0,0,144,2.0,70.0
3285,61.0,0,144,2.0,70.0
3286,46.0,0,144,3.0,58.0
3287,88.0,0,480,0.0,70.0
3288,77.0,0,144,1.0,70.0
3289,58.0,0,144,10.0,58.0
3290,58.0,0,144,3.0,58.0
3291,46.0,0,144,3.0,58.0
3292,34.0,0,144,14.0,58.0
3293,62.0,240,144,2.0,70.0
3294,74.0,0,144,1.0,70.0
3295,65.0,0,144,2.0,70.0
3296,58.0,0,144,12.0,58.0
3297,46.0,0,144,13.0,58.0
3298,58.0,0,144,11.0,58.0
3299,65.0,0,144,2.0,70.0
3300,62.0,0,144,2.0,70.0
3301,89.0,0,384,0.0,70.0
3302,74.0,240,144,1.0,70.0
3303,77.0,0,144,1.0,70.0
3304,34.0,0,144,14.0,58.0
3305,46.0,0,144,3.0,58.0
3306,58.0,0,144,3.0,58.0
3307,58.0,0,144,11.0,58.0
3308,46.0,0,144,13.0,58.0
3309,58.0,0,144,10.0,58.0
3310,58.0,0,144,12.0,58.0
3311,82.0,0,96,10.0,116.0
3312,74.0,240,96,11.0,105.0
3313,46.0,0,156,14.0,58.0
3314,70.0,0,156,12.0,58.0
3315,58.0,0,156,13.0,58.0
3316,62.0,0,156,2.0,105.0
3317,58.0,0,156,2.0,105.0
3318,46.0,0,192,3.0,92.0
3319,58.0,0,192,3.0,92.0
3320,82.0,120,96,10.0,116.0
3321,74.0,0,96,11.0,105.0
3322,74.0,0,96,11.0,105.0
3323,82.0,0,96,10.0,116.0
3324,70.0,0,384,4.0,105.0
3325,58.0,0,384,4.0,105.0
3326,46.0,0,384,5.0,105.0
3327,58.0,0,156,13.0,105.0
3328,70.0,0,156,12.0,105.0
3329,58.0,0,156,2.0,105.0
3330,46.0,0,156,14.0,105.0
3331,65.0,0,192,3.0,92.0
3332,58.0,120,192,3.0,92.0
3333,74.0,120,96,11.0,105.0
3334,82.0,0,96,10.0,116.0
3335,82.0,0,96,10.0,116.0
3336,74.0,0,96,11.0,105.0
3337,43.0,0,156,14.0,105.0
3338,55.0,0,156,13.0,105.0
3339,55.0,0,156,2.0,105.0
3340,67.0,0,156,12.0,105.0
3341,58.0,120,192,3.0,92.0
3342,67.0,0,192,3.0,92.0
3343,74.0,120,96,11.0,105.0
3344,82.0,0,96,10.0,116.0
3345,82.0,0,96,10.0,116.0
3346,74.0,120,96,11.0,105.0
3347,55.0,0,156,13.0,105.0
3348,67.0,0,156,12.0,105.0
3349,43.0,0,156,14.0,105.0
3350,55.0,0,156,2.0,105.0
3351,67.0,0,192,3.0,92.0
3352,58.0,0,192,3.0,92.0
3353,82.0,0,96,10.0,116.0
3354,74.0,120,96,11.0,105.0
3355,74.0,0,960,1.0,92.0
3356,86.0,0,960,0.0,105.0
3357,82.0,0,96,10.0,116.0
3358,72.0,0,96,11.0,105.0
3359,63.0,0,156,12.0,105.0
3360,51.0,0,156,13.0,105.0
3361,51.0,0,156,2.0,105.0
3362,39.0,0,156,14.0,105.0
3363,67.0,0,192,3.0,92.0
3364,58.0,120,192,3.0,92.0
3365,72.0,120,96,11.0,105.0
3366,82.0,0,96,10.0,116.0
3367,72.0,0,96,11.0,105.0
3368,82.0,0,96,10.0,116.0
3369,51.0,0,156,13.0,105.0
3370,39.0,0,156,14.0,105.0
3371,51.0,120,156,2.0,105.0
3372,63.0,0,156,12.0,105.0
3373,67.0,0,192,3.0,92.0
3374,58.0,0,192,3.0,92.0
3375,72.0,0,96,11.0,105.0
3376,82.0,120,96,10.0,116.0
3377,70.0,0,1440,1.0,92.0
3378,72.0,0,96,11.0,105.0
3379,81.0,120,96,10.0,116.0
3380,53.0,0,156,2.0,105.0
3381,65.0,0,156,12.0,105.0
3382,53.0,0,156,13.0,105.0
3383,41.0,0,156,14.0,105.0
3384,65.0,0,192,3.0,92.0
3385,72.0,0,96,11.0,105.0
3386,81.0,120,96,10.0,116.0
3387,72.0,120,96,11.0,105.0
3388,81.0,0,96,10.0,116.0
3389,72.0,0,864,1.0,92.0
3390,69.0,0,384,1.0,92.0
3391,65.0,0,156,12.0,105.0
3392,41.0,0,156,14.0,105.0
3393,53.0,0,156,13.0,105.0
3394,53.0,0,156,2.0,105.0
3395,65.0,0,192,3.0,92.0
3396,72.0,120,96,11.0,105.0
3397,81.0,0,96,10.0,116.0
3398,84.0,0,960,0.0,105.0
3399,74.0,0,96,11.0,105.0
3400,65.0,120,96,11.0,105.0
3401,82.0,0,96,10.0,116.0
3402,58.0,0,156,12.0,105.0
3403,46.0,0,156,2.0,105.0
3404,74.0,0,156,1.0,92.0
3405,82.0,0,156,0.0,105.0
3406,34.0,0,156,14.0,105.0
3407,46.0,0,156,13.0,105.0
3408,70.0,0,156,1.0,92.0
3409,65.0,0,192,3.0,92.0
3410,58.0,0,192,3.0,92.0
3411,74.0,120,96,11.0,105.0
3412,77.0,0,96,10.0,116.0
3413,65.0,0,96,11.0,105.0
3414,74.0,0,96,11.0,105.0
3415,74.0,0,96,10.0,116.0
3416,65.0,0,96,11.0,105.0
3417,70.0,0,384,4.0,105.0
3418,77.0,0,384,4.0,105.0
3419,46.0,0,384,5.0,105.0
3420,46.0,0,156,14.0,105.0
3421,70.0,0,156,12.0,105.0
3422,74.0,0,156,1.0,92.0
3423,58.0,0,156,2.0,105.0
3424,70.0,0,156,1.0,92.0
3425,86.0,0,156,0.0,105.0
3426,58.0,0,156,13.0,105.0
3427,65.0,0,192,3.0,92.0
3428,58.0,120,192,3.0,92.0
3429,77.0,0,96,10.0,116.0
3430,74.0,0,96,11.0,105.0
3431,65.0,120,96,11.0,105.0
3432,72.0,0,96,11.0,105.0
3433,65.0,0,96,11.0,105.0
3434,75.0,0,96,10.0,116.0
3435,87.0,120,156,0.0,105.0
3436,41.0,0,156,13.0,105.0
3437,69.0,0,156,1.0,92.0
3438,72.0,0,156,1.0,92.0
3439,53.0,0,156,12.0,105.0
3440,41.0,0,156,2.0,105.0
3441,29.0,0,156,14.0,105.0
3442,65.0,0,192,3.0,92.0
3443,65.0,0,96,11.0,105.0
3444,72.0,0,96,11.0,105.0
3445,77.0,120,96,10.0,116.0
3446,72.0,0,96,11.0,105.0
3447,81.0,0,96,10.0,116.0
3448,65.0,120,96,11.0,105.0
3449,77.0,0,384,4.0,105.0
3450,53.0,0,156,13.0,105.0
3451,65.0,0,156,12.0,105.0
3452,75.0,0,156,1.0,92.0
3453,41.0,0,156,14.0,105.0
3454,72.0,0,156,1.0,92.0
3455,84.0,0,156,0.0,105.0
3456,53.0,0,156,2.0,105.0
3457,65.0,0,192,3.0,92.0
3458,77.0,120,96,10.0,116.0
3459,65.0,0,96,11.0,105.0
3460,72.0,0,96,11.0,105.0
3461,74.0,0,96,11.0,105.0
3462,65.0,0,96,11.0,105.0
3463,82.0,0,96,10.0,116.0
3464,46.0,0,156,13.0,105.0
3465,82.0,120,156,0.0,105.0
3466,46.0,0,156,2.0,105.0
3467,70.0,0,156,1.0,92.0
3468,58.0,0,156,12.0,105.0
3469,34.0,0,156,14.0,105.0
3470,74.0,0,156,1.0,92.0
3471,65.0,0,192,3.0,92.0
3472,58.0,0,192,3.0,92.0
3473,77.0,120,96,10.0,116.0
3474,74.0,0,96,11.0,105.0
3475,65.0,0,96,11.0,105.0
3476,74.0,0,96,11.0,105.0
3477,74.0,0,96,10.0,116.0
3478,65.0,0,96,11.0,105.0
3479,46.0,0,384,5.0,105.0
3480,77.0,0,384,4.0,105.0
3481,70.0,0,384,4.0,105.0
3482,58.0,0,156,13.0,105.0
3483,46.0,0,156,14.0,105.0
3484,74.0,0,156,1.0,92.0
3485,86.0,0,156,0.0,105.0
3486,70.0,0,156,12.0,105.0
3487,70.0,0,156,1.0,92.0
3488,58.0,0,156,2.0,105.0
3489,58.0,120,192,3.0,92.0
3490,65.0,0,192,3.0,92.0
3491,77.0,0,96,10.0,116.0
3492,65.0,120,96,11.0,105.0
3493,74.0,0,96,11.0,105.0
3494,65.0,0,96,11.0,105.0
3495,72.0,120,96,11.0,105.0
3496,75.0,0,96,10.0,116.0
3497,72.0,0,156,1.0,92.0
3498,69.0,0,156,1.0,92.0
3499,29.0,0,156,14.0,105.0
3500,41.0,0,156,2.0,105.0
3501,87.0,0,156,0.0,105.0
3502,41.0,0,156,13.0,105.0
3503,53.0,0,156,12.0,105.0
3504,65.0,0,192,3.0,92.0
3505,65.0,0,96,11.0,105.0
3506,72.0,0,96,11.0,105.0
3507,77.0,120,96,10.0,116.0
3508,81.0,0,96,10.0,116.0
3509,72.0,0,96,11.0,105.0
3510,65.0,0,96,11.0,105.0
3511,77.0,0,384,4.0,105.0
3512,72.0,0,156,1.0,92.0
3513,53.0,0,156,2.0,105.0
3514,65.0,120,156,12.0,105.0
3515,84.0,0,156,0.0,105.0
3516,53.0,0,156,13.0,105.0
3517,41.0,0,156,14.0,105.0
3518,75.0,0,156,1.0,92.0
3519,65.0,0,192,3.0,92.0
3520,72.0,120,96,11.0,105.0
3521,65.0,0,96,11.0,105.0
3522,77.0,0,96,10.0,116.0
3523,65.0,0,144,3.0,92.0
3524,74.0,0,144,11.0,105.0
3525,65.0,120,144,11.0,105.0
3526,58.0,0,144,3.0,92.0
3527,34.0,0,144,14.0,105.0
3528,58.0,0,144,12.0,105.0
3529,70.0,0,144,4.0,105.0
3530,74.0,0,144,1.0,92.0
3531,77.0,0,144,4.0,105.0
3532,70.0,0,144,1.0,92.0
3533,46.0,0,144,2.0,105.0
3534,82.0,0,144,0.0,105.0
3535,46.0,0,144,13.0,105.0
3536,82.0,0,144,10.0,127.0
3537,58.0,0,72,10.0,105.0
3538,58.0,0,72,11.0,105.0
3539,46.0,0,384,5.0,105.0
3540,58.0,0,144,2.0,105.0
3541,70.0,0,144,12.0,105.0
3542,70.0,0,144,4.0,92.0
3543,58.0,240,144,4.0,92.0
3544,46.0,0,144,3.0,92.0
3545,58.0,0,144,3.0,92.0
3546,70.0,0,144,0.0,105.0
3547,70.0,0,144,1.0,92.0
3548,46.0,0,144,14.0,105.0
3549,58.0,0,144,13.0,105.0
3550,58.0,0,72,11.0,105.0
3551,58.0,120,72,10.0,105.0
3552,70.0,0,144,1.0,92.0
3553,70.0,0,144,0.0,105.0
3554,58.0,0,144,11.0,105.0
3555,58.0,0,144,3.0,92.0
3556,70.0,0,144,4.0,92.0
3557,58.0,0,144,4.0,92.0
3558,46.0,0,144,3.0,92.0
3559,34.0,0,144,14.0,105.0
3560,46.0,120,144,13.0,105.0
3561,58.0,0,144,10.0,105.0
3562,58.0,0,144,12.0,105.0
3563,46.0,0,144,2.0,105.0
3564,46.0,0,384,5.0,92.0
3565,46.0,0,144,13.0,105.0
3566,58.0,0,144,12.0,105.0
3567,70.0,0,144,1.0,92.0
3568,70.0,0,144,4.0,92.0
3569,58.0,0,144,4.0,92.0
3570,58.0,0,144,3.0,92.0
3571,46.0,0,144,2.0,105.0
3572,46.0,0,144,3.0,92.0
3573,58.0,0,144,11.0,105.0
3574,58.0,0,144,10.0,105.0
3575,34.0,240,144,14.0,105.0
3576,70.0,0,144,0.0,105.0
3577,46.0,0,384,5.0,92.0
3578,58.0,0,384,10.0,92.0
3579,34.0,0,384,14.0,105.0
3580,70.0,0,384,0.0,92.0
3581,58.0,0,384,3.0,92.0
3582,46.0,0,384,3.0,92.0
3583,70.0,0,384,1.0,92.0
3584,58.0,0,384,11.0,92.0
3585,58.0,0,384,4.0,92.0
3586,70.0,0,384,4.0,92.0
3587,58.0,0,384,12.0,92.0
3588,46.0,0,384,13.0,105.0
3589,46.0,240,384,2.0,92.0
3590,79.0,720,78,10.0,70.0
3591,80.0,120,78,10.0,70.0
3592,82.0,0,120,10.0,70.0
3593,67.0,120,120,11.0,58.0
3594,80.0,120,72,10.0,70.0
3595,70.0,0,120,11.0,58.0
3596,79.0,0,72,10.0,70.0
3597,67.0,120,120,11.0,58.0
3598,77.0,120,72,10.0,70.0
3599,70.0,0,120,11.0,58.0
3600,67.0,120,120,11.0,58.0
3601,75.0,0,144,10.0,70.0
3602,70.0,120,120,11.0,58.0
3603,67.0,120,120,11.0,58.0
3604,77.0,0,144,10.0,70.0
3605,70.0,120,96,11.0,58.0
3606,68.0,0,120,11.0,58.0
3607,70.0,120,120,11.0,58.0
3608,68.0,120,120,11.0,58.0
3609,70.0,120,120,11.0,58.0
3610,70.0,120,576,10.0,70.0
3611,68.0,120,120,11.0,58.0
3612,70.0,120,120,11.0,58.0
3613,72.0,0,96,10.0,70.0
3614,68.0,120,120,11.0,58.0
3615,70.0,0,96,11.0,58.0
3616,74.0,120,96,10.0,70.0
3617,75.0,120,120,10.0,70.0
3618,67.0,0,120,11.0,58.0
3619,74.0,120,72,10.0,70.0
3620,70.0,0,120,11.0,58.0
3621,72.0,120,72,10.0,70.0
3622,67.0,0,120,11.0,58.0
3623,70.0,0,72,10.0,70.0
3624,70.0,120,120,11.0,58.0
3625,68.0,120,96,10.0,70.0
3626,62.0,0,120,11.0,58.0
3627,67.0,120,96,10.0,70.0
3628,70.0,0,120,11.0,58.0
3629,68.0,120,96,10.0,70.0
3630,62.0,0,120,11.0,58.0
3631,70.0,120,96,10.0,70.0
3632,70.0,0,96,11.0,58.0
3633,63.0,0,120,11.0,58.0
3634,70.0,120,120,11.0,58.0
3635,63.0,120,120,11.0,58.0
3636,70.0,120,120,11.0,58.0
3637,67.0,120,576,10.0,70.0
3638,63.0,120,120,11.0,58.0
3639,70.0,120,120,11.0,58.0
3640,68.0,120,96,10.0,70.0
3641,63.0,0,120,11.0,58.0
3642,70.0,120,96,11.0,58.0
3643,70.0,0,96,10.0,70.0
3644,56.0,120,120,11.0,58.0
3645,72.0,0,192,10.0,70.0
3646,65.0,120,120,11.0,58.0
3647,74.0,120,96,10.0,70.0
3648,56.0,0,120,11.0,58.0
3649,75.0,120,96,10.0,70.0
3650,65.0,0,120,11.0,58.0
3651,77.0,120,120,10.0,70.0
3652,56.0,0,120,11.0,58.0
3653,79.0,120,96,10.0,70.0
3654,65.0,0,120,11.0,58.0
3655,80.0,120,72,10.0,70.0
3656,56.0,0,120,11.0,58.0
3657,77.0,0,72,10.0,70.0
3658,65.0,120,96,11.0,58.0
3659,56.0,0,120,11.0,58.0
3660,75.0,120,120,10.0,70.0
3661,74.0,0,96,10.0,70.0
3662,65.0,120,120,11.0,58.0
3663,72.0,0,72,10.0,70.0
3664,56.0,120,120,11.0,58.0
3665,70.0,0,72,10.0,70.0
3666,65.0,120,120,11.0,58.0
3667,56.0,120,120,11.0,58.0
3668,75.0,0,192,10.0,70.0
3669,63.0,120,120,11.0,58.0
3670,77.0,120,96,10.0,70.0
3671,56.0,0,120,11.0,58.0
3672,63.0,0,96,11.0,58.0
3673,79.0,120,96,10.0,70.0
3674,62.0,120,120,11.0,58.0
3675,80.0,0,144,10.0,70.0
3676,70.0,120,120,11.0,58.0
3677,62.0,120,120,11.0,58.0
3678,80.0,0,144,10.0,70.0
3679,70.0,120,120,11.0,58.0
3680,63.0,0,120,11.0,58.0
3681,79.0,120,144,10.0,70.0
3682,70.0,120,120,11.0,58.0
3683,63.0,0,120,11.0,58.0
3684,79.0,120,144,10.0,70.0
3685,70.0,120,96,11.0,58.0
3686,77.0,120,120,10.0,70.0
3687,74.0,120,96,10.0,70.0
3688,75.0,120,72,10.0,70.0
3689,58.0,0,384,11.0,58.0
3690,72.0,120,72,10.0,70.0
3691,70.0,120,144,10.0,70.0
3692,79.0,0,72,10.0,116.0
3693,67.0,240,72,11.0,105.0
3694,80.0,0,72,10.0,116.0
3695,68.0,120,72,11.0,105.0
3696,55.0,0,120,12.0,105.0
3697,82.0,0,120,10.0,116.0
3698,70.0,0,120,11.0,105.0
3699,55.0,0,120,13.0,105.0
3700,43.0,120,192,14.0,105.0
3701,68.0,0,72,11.0,105.0
3702,80.0,0,72,10.0,116.0
3703,58.0,0,120,12.0,105.0
3704,58.0,120,120,13.0,105.0
3705,79.0,0,72,10.0,116.0
3706,67.0,0,72,11.0,105.0
3707,55.0,120,120,12.0,105.0
3708,55.0,0,120,13.0,105.0
3709,51.0,0,384,5.0,105.0
3710,75.0,0,384,4.0,105.0
3711,63.0,0,384,4.0,105.0
3712,65.0,0,72,11.0,105.0
3713,77.0,0,72,10.0,116.0
3714,43.0,0,192,14.0,105.0
3715,58.0,0,120,12.0,105.0
3716,58.0,120,120,13.0,105.0
3717,55.0,0,120,12.0,105.0
3718,55.0,0,120,13.0,105.0
3719,63.0,120,144,11.0,105.0
3720,75.0,0,144,10.0,116.0
3721,43.0,0,192,14.0,105.0
3722,58.0,120,120,13.0,105.0
3723,63.0,0,720,2.0,92.0
3724,75.0,0,720,1.0,92.0
3725,58.0,0,120,12.0,105.0
3726,87.0,0,720,0.0,92.0
3727,55.0,0,768,3.0,92.0
3728,63.0,0,768,3.0,92.0
3729,55.0,0,120,13.0,105.0
3730,55.0,0,120,12.0,105.0
3731,65.0,0,144,11.0,105.0
3732,77.0,0,144,10.0,116.0
3733,65.0,0,192,2.0,92.0
3734,43.0,0,192,14.0,105.0
3735,77.0,120,192,1.0,92.0
3736,89.0,0,192,0.0,92.0
3737,58.0,120,96,12.0,105.0
3738,58.0,0,96,13.0,105.0
3739,56.0,120,120,12.0,105.0
3740,56.0,0,120,13.0,105.0
3741,44.0,0,192,14.0,105.0
3742,58.0,120,120,13.0,105.0
3743,58.0,0,120,12.0,105.0
3744,56.0,0,120,13.0,105.0
3745,56.0,0,120,12.0,105.0
3746,58.0,0,384,4.0,105.0
3747,46.0,0,384,5.0,105.0
3748,70.0,0,384,4.0,105.0
3749,44.0,120,192,14.0,105.0
3750,58.0,120,120,12.0,105.0
3751,58.0,0,120,13.0,105.0
3752,58.0,0,576,11.0,105.0
3753,70.0,0,576,10.0,116.0
3754,56.0,0,120,13.0,105.0
3755,56.0,0,120,12.0,105.0
3756,44.0,120,192,14.0,105.0
3757,58.0,0,120,13.0,105.0
3758,58.0,0,720,2.0,92.0
3759,70.0,0,720,1.0,92.0
3760,58.0,120,120,12.0,105.0
3761,82.0,0,720,0.0,92.0
3762,58.0,0,768,3.0,92.0
3763,65.0,0,768,3.0,92.0
3764,60.0,0,96,11.0,105.0
3765,72.0,120,96,10.0,116.0
3766,56.0,0,120,13.0,105.0
3767,72.0,0,120,1.0,92.0
3768,56.0,0,120,12.0,105.0
3769,84.0,0,120,0.0,92.0
3770,60.0,0,120,2.0,92.0
3771,44.0,0,192,14.0,105.0
3772,62.0,0,96,2.0,92.0
3773,58.0,120,96,13.0,105.0
3774,86.0,0,96,0.0,92.0
3775,58.0,0,96,12.0,105.0
3776,74.0,0,96,1.0,92.0
3777,62.0,0,96,11.0,105.0
3778,74.0,0,96,10.0,116.0
3779,55.0,0,120,12.0,105.0
3780,63.0,0,120,11.0,105.0
3781,63.0,0,120,2.0,92.0
3782,75.0,0,120,1.0,92.0
3783,55.0,0,120,13.0,105.0
3784,75.0,0,120,10.0,116.0
3785,87.0,0,120,0.0,92.0
3786,43.0,0,192,14.0,105.0
3787,62.0,0,72,11.0,105.0
3788,67.0,120,192,3.0,92.0
3789,74.0,0,72,10.0,116.0
3790,63.0,0,192,3.0,92.0
3791,58.0,120,120,12.0,105.0
3792,86.0,0,120,0.0,92.0
3793,58.0,0,120,13.0,105.0
3794,62.0,0,120,2.0,92.0
3795,74.0,0,120,1.0,92.0
3796,72.0,0,72,10.0,116.0
3797,60.0,0,72,11.0,105.0
3798,72.0,0,120,1.0,92.0
3799,60.0,0,120,2.0,92.0
3800,55.0,0,120,13.0,105.0
3801,55.0,0,120,12.0,105.0
3802,84.0,0,120,0.0,92.0
3803,58.0,0,384,4.0,105.0
3804,70.0,0,384,4.0,105.0
3805,51.0,0,384,5.0,105.0
3806,67.0,120,192,3.0,92.0
3807,70.0,0,72,10.0,116.0
3808,43.0,0,192,14.0,105.0
3809,63.0,0,192,3.0,92.0
3810,58.0,120,72,11.0,105.0
3811,58.0,0,120,2.0,92.0
3812,82.0,0,120,0.0,92.0
3813,58.0,0,120,13.0,105.0
3814,70.0,0,120,1.0,92.0
3815,58.0,0,120,12.0,105.0
3816,56.0,0,96,11.0,105.0
3817,68.0,0,96,10.0,116.0
3818,56.0,0,120,2.0,92.0
3819,50.0,0,120,13.0,105.0
3820,68.0,0,120,1.0,92.0
3821,50.0,0,120,12.0,105.0
3822,80.0,0,120,0.0,92.0
3823,38.0,0,192,14.0,105.0
3824,65.0,0,192,3.0,92.0
3825,58.0,120,192,3.0,92.0
3826,67.0,0,96,10.0,116.0
3827,55.0,0,96,11.0,105.0
3828,67.0,0,120,1.0,92.0
3829,58.0,120,120,13.0,105.0
3830,55.0,0,120,2.0,92.0
3831,79.0,0,120,0.0,92.0
3832,58.0,0,120,12.0,105.0
3833,56.0,0,96,11.0,105.0
3834,68.0,0,96,10.0,116.0
3835,80.0,0,120,0.0,92.0
3836,68.0,0,120,1.0,92.0
3837,56.0,0,120,2.0,92.0
3838,50.0,0,120,12.0,105.0
3839,50.0,120,120,13.0,105.0
3840,46.0,0,384,5.0,105.0
3841,58.0,0,384,4.0,105.0
3842,70.0,0,384,4.0,105.0
3843,65.0,0,192,3.0,92.0
3844,58.0,0,192,3.0,92.0
3845,38.0,0,192,14.0,105.0
3846,70.0,0,96,10.0,116.0
3847,58.0,0,96,11.0,105.0
3848,58.0,0,96,12.0,105.0
3849,70.0,120,96,1.0,92.0
3850,58.0,0,96,13.0,105.0
3851,82.0,0,96,0.0,92.0
3852,58.0,0,96,2.0,92.0
3853,51.0,0,120,12.0,105.0
3854,51.0,120,120,13.0,105.0
3855,39.0,0,192,14.0,105.0
3856,58.0,120,120,13.0,105.0
3857,58.0,0,120,12.0,105.0
3858,51.0,0,120,13.0,105.0
3859,51.0,0,120,12.0,105.0
3860,63.0,0,384,4.0,105.0
3861,51.0,0,384,5.0,105.0
3862,70.0,0,384,4.0,105.0
3863,39.0,120,192,14.0,105.0
3864,58.0,0,120,12.0,105.0
3865,58.0,120,120,13.0,105.0
3866,55.0,0,576,11.0,105.0
3867,67.0,0,576,10.0,116.0
3868,51.0,120,120,12.0,105.0
3869,51.0,0,120,13.0,105.0
3870,39.0,0,192,14.0,105.0
3871,67.0,0,720,1.0,92.0
3872,58.0,120,120,12.0,105.0
3873,55.0,0,720,2.0,92.0
3874,79.0,0,720,0.0,92.0
3875,58.0,0,120,13.0,105.0
3876,55.0,0,768,3.0,92.0
3877,63.0,0,768,3.0,92.0
3878,56.0,0,96,11.0,105.0
3879,68.0,120,96,10.0,116.0
3880,80.0,0,120,0.0,92.0
3881,56.0,0,120,2.0,92.0
3882,51.0,0,120,12.0,105.0
3883,51.0,0,120,13.0,105.0
3884,68.0,0,120,1.0,92.0
3885,39.0,0,192,14.0,105.0
3886,58.0,0,96,2.0,92.0
3887,82.0,120,96,0.0,92.0
3888,58.0,0,96,13.0,105.0
3889,58.0,0,96,11.0,105.0
3890,70.0,0,96,1.0,92.0
3891,70.0,0,96,10.0,116.0
3892,58.0,0,96,12.0,105.0
3893,56.0,0,120,12.0,105.0
3894,56.0,0,120,13.0,105.0
3895,72.0,0,192,10.0,116.0
3896,44.0,0,192,14.0,105.0
3897,60.0,0,192,11.0,105.0
3898,60.0,0,120,12.0,105.0
3899,60.0,120,120,13.0,105.0
3900,74.0,120,96,10.0,116.0
3901,62.0,0,96,11.0,105.0
3902,56.0,0,120,12.0,105.0
3903,56.0,0,120,13.0,105.0
3904,75.0,0,384,4.0,105.0
3905,63.0,0,384,4.0,105.0
3906,51.0,0,384,5.0,105.0
3907,44.0,0,192,14.0,105.0
3908,75.0,0,96,10.0,116.0
3909,63.0,120,96,11.0,105.0
3910,72.0,0,480,1.0,92.0
3911,60.0,120,480,2.0,92.0
3912,60.0,0,120,12.0,105.0
3913,60.0,0,120,13.0,105.0
3914,84.0,0,480,0.0,92.0
3915,65.0,0,120,11.0,105.0
3916,56.0,0,120,12.0,105.0
3917,77.0,120,120,10.0,116.0
3918,56.0,0,120,13.0,105.0
3919,44.0,0,192,14.0,105.0
3920,79.0,0,96,10.0,116.0
3921,67.0,120,96,11.0,105.0
3922,60.0,0,120,13.0,105.0
3923,60.0,0,120,12.0,105.0
3924,65.0,0,768,3.0,92.0
3925,63.0,0,768,3.0,92.0
3926,68.0,0,72,11.0,105.0
3927,80.0,0,72,10.0,116.0
3928,56.0,120,120,12.0,105.0
3929,56.0,0,120,13.0,105.0
3930,44.0,0,192,14.0,105.0
3931,77.0,0,72,10.0,116.0
3932,65.0,0,72,11.0,105.0
3933,60.0,120,96,12.0,105.0
3934,60.0,0,96,13.0,105.0
3935,65.0,0,480,2.0,92.0
3936,89.0,0,480,0.0,92.0
3937,77.0,0,480,1.0,92.0
3938,63.0,0,120,11.0,105.0
3939,56.0,0,120,12.0,105.0
3940,56.0,120,120,13.0,105.0
3941,75.0,0,120,10.0,116.0
3942,44.0,0,192,14.0,105.0
3943,74.0,120,72,10.0,116.0
3944,62.0,0,72,11.0,105.0
3945,58.0,0,120,13.0,105.0
3946,58.0,0,120,12.0,105.0
3947,60.0,0,72,11.0,105.0
3948,72.0,0,72,10.0,116.0
3949,56.0,0,120,13.0,105.0
3950,56.0,0,120,12.0,105.0
3951,46.0,0,384,5.0,105.0
3952,70.0,0,384,4.0,105.0
3953,58.0,0,384,4.0,105.0
3954,44.0,120,192,14.0,105.0
3955,58.0,0,72,11.0,105.0
3956,70.0,0,72,10.0,116.0
3957,62.0,0,480,2.0,92.0
3958,86.0,0,480,0.0,92.0
3959,58.0,120,120,13.0,105.0
3960,74.0,0,480,1.0,92.0
3961,58.0,0,120,12.0,105.0
3962,70.0,0,120,11.0,105.0
3963,56.0,120,120,13.0,105.0
3964,82.0,0,120,10.0,116.0
3965,56.0,0,120,12.0,105.0
3966,44.0,0,192,14.0,105.0
3967,80.0,0,72,10.0,116.0
3968,68.0,120,72,11.0,105.0
3969,58.0,0,120,13.0,105.0
3970,58.0,0,120,12.0,105.0
3971,58.0,0,768,3.0,92.0
3972,65.0,0,768,3.0,92.0
3973,65.0,0,72,11.0,105.0
3974,77.0,120,72,10.0,116.0
3975,56.0,0,120,13.0,105.0
3976,56.0,0,120,12.0,105.0
3977,70.0,0,384,1.0,92.0
3978,82.0,0,384,0.0,92.0
3979,58.0,0,384,2.0,92.0
3980,44.0,0,192,14.0,105.0
3981,74.0,0,72,10.0,116.0
3982,62.0,120,72,11.0,105.0
3983,58.0,0,96,12.0,105.0
3984,58.0,0,96,13.0,105.0
3985,75.0,0,72,10.0,116.0
3986,87.0,120,132,0.0,92.0
3987,63.0,0,132,2.0,92.0
3988,75.0,0,132,1.0,92.0
3989,55.0,0,144,12.0,105.0
3990,63.0,0,144,11.0,105.0
3991,43.0,0,144,14.0,105.0
3992,55.0,0,144,13.0,105.0
3993,67.0,0,156,3.0,92.0
3994,63.0,0,156,3.0,92.0
3995,70.0,120,72,10.0,116.0
3996,68.0,0,72,11.0,105.0
3997,72.0,0,72,10.0,116.0
3998,56.0,0,132,2.0,92.0
3999,80.0,0,132,0.0,92.0
4000,77.0,120,132,1.0,92.0
4001,80.0,0,132,1.0,92.0
4002,56.0,0,144,12.0,105.0
4003,44.0,0,144,14.0,105.0
4004,56.0,0,144,13.0,105.0
4005,68.0,0,156,3.0,92.0
4006,65.0,0,156,3.0,92.0
4007,68.0,120,72,10.0,116.0
4008,65.0,0,72,11.0,105.0
4009,63.0,0,72,11.0,105.0
4010,67.0,0,72,10.0,116.0
4011,58.0,0,132,2.0,92.0
4012,79.0,0,132,1.0,92.0
4013,75.0,0,132,1.0,92.0
4014,79.0,0,132,0.0,92.0
4015,58.0,0,144,12.0,105.0
4016,46.0,0,144,14.0,105.0
4017,58.0,0,144,13.0,105.0
4018,67.0,0,156,3.0,92.0
4019,63.0,120,156,3.0,92.0
4020,67.0,120,72,11.0,105.0
4021,70.0,0,72,10.0,116.0
4022,65.0,0,72,11.0,105.0
4023,68.0,0,72,10.0,116.0
4024,77.0,120,132,0.0,92.0
4025,46.0,0,132,2.0,92.0
4026,77.0,0,132,1.0,92.0
4027,74.0,0,132,1.0,92.0
4028,34.0,0,144,14.0,105.0
4029,58.0,0,144,12.0,105.0
4030,46.0,0,144,13.0,105.0
4031,58.0,0,156,3.0,92.0
4032,65.0,0,156,3.0,92.0
4033,65.0,0,72,10.0,116.0
4034,63.0,120,72,11.0,105.0
4035,63.0,0,120,10.0,105.0
4036,63.0,120,120,11.0,105.0
4037,51.0,0,144,12.0,105.0
4038,51.0,0,144,13.0,105.0
4039,39.0,0,144,14.0,105.0
4040,51.0,0,156,2.0,92.0
4041,75.0,0,156,0.0,92.0
4042,75.0,0,156,1.0,92.0
4043,55.0,0,156,3.0,92.0
4044,63.0,0,156,3.0,92.0
4045,58.0,120,78,10.0,105.0
4046,58.0,0,78,11.0,105.0
4047,55.0,0,78,11.0,105.0
4048,55.0,120,78,10.0,105.0
4049,51.0,0,144,14.0,105.0
4050,75.0,0,384,4.0,105.0
4051,63.0,0,144,13.0,105.0
4052,51.0,0,384,5.0,105.0
4053,63.0,0,384,4.0,105.0
4054,63.0,0,144,12.0,105.0
4055,75.0,0,156,1.0,92.0
4056,79.0,0,156,0.0,92.0
4057,70.0,0,156,1.0,92.0
4058,63.0,0,156,3.0,92.0
4059,55.0,0,156,3.0,92.0
4060,58.0,0,156,2.0,92.0
4061,67.0,0,156,2.0,92.0
4062,58.0,120,78,10.0,105.0
4063,58.0,0,78,11.0,105.0
4064,63.0,0,78,11.0,105.0
4065,63.0,0,78,10.0,105.0
4066,55.0,0,156,3.0,92.0
4067,67.0,120,156,2.0,92.0
4068,58.0,0,156,2.0,92.0
4069,63.0,0,156,3.0,92.0
4070,70.0,0,156,1.0,92.0
4071,75.0,0,156,1.0,92.0
4072,79.0,0,156,0.0,92.0
4073,67.0,0,78,10.0,105.0
4074,67.0,120,78,11.0,105.0
4075,70.0,120,78,11.0,105.0
4076,70.0,0,78,10.0,105.0
4077,51.0,0,384,14.0,105.0
4078,63.0,0,384,13.0,105.0
4079,63.0,0,384,12.0,105.0
4080,75.0,0,156,1.0,92.0
4081,55.0,0,156,3.0,92.0
4082,63.0,0,156,3.0,92.0
4083,58.0,0,156,2.0,92.0
4084,70.0,0,156,1.0,92.0
4085,79.0,0,156,0.0,92.0
4086,67.0,0,156,2.0,92.0
4087,67.0,0,78,10.0,105.0
4088,67.0,120,78,11.0,105.0
4089,63.0,0,120,10.0,105.0
4090,63.0,0,120,11.0,105.0
4091,51.0,0,144,13.0,105.0
4092,51.0,120,144,12.0,105.0
4093,39.0,0,144,14.0,105.0
4094,58.0,120,78,11.0,105.0
4095,58.0,0,78,10.0,105.0
4096,55.0,0,78,11.0,105.0
4097,55.0,120,78,10.0,105.0
4098,63.0,0,144,13.0,105.0
4099,51.0,0,144,14.0,105.0
4100,51.0,0,384,5.0,105.0
4101,63.0,0,144,12.0,105.0
4102,75.0,0,384,4.0,105.0
4103,63.0,0,384,4.0,105.0
4104,67.0,0,156,2.0,92.0
4105,58.0,0,156,2.0,92.0
4106,79.0,0,156,0.0,92.0
4107,70.0,0,156,1.0,92.0
4108,75.0,0,156,1.0,92.0
4109,63.0,0,156,3.0,92.0
4110,55.0,0,156,3.0,92.0
4111,58.0,120,78,11.0,105.0
4112,58.0,0,78,10.0,105.0
4113,63.0,0,78,11.0,105.0
4114,63.0,0,78,10.0,105.0
4115,79.0,0,156,0.0,92.0
4116,63.0,0,156,3.0,92.0
4117,55.0,120,156,3.0,92.0
4118,58.0,0,156,2.0,92.0
4119,67.0,0,156,2.0,92.0
4120,70.0,0,156,1.0,92.0
4121,75.0,0,156,1.0,92.0
4122,67.0,120,78,10.0,105.0
4123,67.0,0,78,11.0,105.0
4124,70.0,0,78,10.0,105.0
4125,70.0,0,78,11.0,105.0
4126,63.0,0,384,13.0,105.0
4127,51.0,0,384,14.0,105.0
4128,63.0,0,384,12.0,105.0
4129,67.0,0,156,2.0,92.0
4130,58.0,0,156,2.0,92.0
4131,55.0,120,156,3.0,92.0
4132,75.0,0,156,1.0,92.0
4133,70.0,0,156,1.0,92.0
4134,79.0,0,156,0.0,92.0
4135,63.0,0,156,3.0,92.0
4136,67.0,0,78,11.0,105.0
4137,67.0,120,78,10.0,105.0
4138,65.0,0,120,10.0,105.0
4139,65.0,0,120,11.0,105.0
4140,51.0,0,144,12.0,105.0
4141,51.0,0,144,13.0,105.0
4142,39.0,0,144,14.0,105.0
4143,60.0,120,78,10.0,105.0
4144,60.0,0,78,11.0,105.0
4145,56.0,0,78,11.0,105.0
4146,56.0,0,78,10.0,105.0
4147,63.0,0,384,4.0,105.0
4148,75.0,120,384,4.0,105.0
4149,63.0,0,144,12.0,105.0
4150,51.0,0,144,14.0,105.0
4151,63.0,0,144,13.0,105.0
4152,51.0,0,384,5.0,105.0
4153,65.0,0,156,3.0,92.0
4154,68.0,0,156,3.0,92.0
4155,68.0,0,156,1.0,92.0
4156,56.0,0,156,2.0,92.0
4157,60.0,0,156,2.0,92.0
4158,84.0,0,156,0.0,92.0
4159,77.0,120,156,1.0,92.0
4160,60.0,120,78,10.0,105.0
4161,60.0,0,78,11.0,105.0
4162,65.0,0,78,11.0,105.0
4163,65.0,0,78,10.0,105.0
4164,60.0,0,156,2.0,92.0
4165,56.0,0,156,2.0,92.0
4166,84.0,0,156,0.0,92.0
4167,68.0,0,156,1.0,92.0
4168,77.0,0,156,1.0,92.0
4169,65.0,0,156,3.0,92.0
4170,68.0,0,156,3.0,92.0
4171,68.0,0,78,10.0,105.0
4172,68.0,120,78,11.0,105.0
4173,72.0,0,78,11.0,105.0
4174,72.0,0,78,10.0,105.0
4175,63.0,0,384,12.0,105.0
4176,63.0,0,384,13.0,105.0
4177,51.0,120,384,14.0,105.0
4178,84.0,0,156,0.0,92.0
4179,68.0,0,156,1.0,92.0
4180,60.0,0,156,2.0,92.0
4181,56.0,120,156,2.0,92.0
4182,65.0,0,156,3.0,92.0
4183,68.0,0,156,3.0,92.0
4184,77.0,0,156,1.0,92.0
4185,68.0,0,78,10.0,105.0
4186,68.0,120,78,11.0,105.0
4187,65.0,0,120,10.0,105.0
4188,65.0,0,120,11.0,105.0
4189,39.0,0,144,14.0,105.0
4190,51.0,120,144,13.0,105.0
4191,51.0,0,144,12.0,105.0
4192,60.0,120,78,10.0,105.0
4193,60.0,0,78,11.0,105.0
4194,56.0,0,78,11.0,105.0
4195,56.0,0,78,10.0,105.0
4196,63.0,0,144,13.0,105.0
4197,63.0,0,384,4.0,105.0
4198,63.0,0,144,12.0,105.0
4199,51.0,0,144,14.0,105.0
4200,75.0,0,384,4.0,105.0
4201,51.0,0,384,5.0,105.0
4202,77.0,0,156,1.0,92.0
4203,68.0,0,156,1.0,92.0
4204,84.0,0,156,0.0,92.0
4205,68.0,0,156,3.0,92.0
4206,60.0,0,156,2.0,92.0
4207,56.0,120,156,2.0,92.0
4208,65.0,0,156,3.0,92.0
4209,60.0,120,78,10.0,105.0
4210,60.0,0,78,11.0,105.0
4211,65.0,0,78,10.0,105.0
4212,65.0,0,78,11.0,105.0
4213,56.0,0,156,2.0,92.0
4214,60.0,0,156,2.0,92.0
4215,84.0,0,156,0.0,92.0
4216,77.0,120,156,1.0,92.0
4217,68.0,0,156,1.0,92.0
4218,65.0,0,156,3.0,92.0
4219,68.0,0,156,3.0,92.0
4220,68.0,120,78,11.0,105.0
4221,68.0,0,78,10.0,105.0
4222,72.0,0,78,10.0,105.0
4223,72.0,0,78,11.0,105.0
4224,63.0,0,384,12.0,105.0
4225,63.0,0,384,13.0,105.0
4226,51.0,0,384,14.0,105.0
4227,68.0,0,156,1.0,92.0
4228,77.0,0,156,1.0,92.0
4229,68.0,0,156,3.0,92.0
4230,56.0,0,156,2.0,92.0
4231,60.0,120,156,2.0,92.0
4232,84.0,0,156,0.0,92.0
4233,65.0,0,156,3.0,92.0
4234,68.0,0,78,11.0,105.0
4235,68.0,120,78,10.0,105.0
4236,62.0,0,120,10.0,105.0
4237,62.0,0,120,11.0,105.0
4238,50.0,0,144,12.0,105.0
4239,50.0,0,144,13.0,105.0
4240,38.0,0,144,14.0,105.0
4241,70.0,120,78,11.0,105.0
4242,70.0,0,78,10.0,105.0
4243,80.0,0,120,11.0,105.0
4244,80.0,0,120,10.0,105.0
4245,50.0,0,144,14.0,105.0
4246,46.0,120,384,5.0,105.0
4247,62.0,0,144,13.0,105.0
4248,62.0,0,144,12.0,105.0
4249,56.0,0,156,2.0,92.0
4250,65.0,0,156,2.0,92.0
4251,80.0,120,156,1.0,92.0
4252,89.0,0,156,0.0,92.0
4253,58.0,0,156,3.0,92.0
4254,68.0,0,156,3.0,92.0
4255,82.0,0,156,1.0,92.0
4256,70.0,0,78,11.0,105.0
4257,70.0,120,78,10.0,105.0
4258,80.0,0,120,10.0,105.0
4259,80.0,120,120,11.0,105.0
4260,82.0,0,156,1.0,92.0
4261,80.0,0,156,1.0,92.0
4262,68.0,0,156,3.0,92.0
4263,58.0,0,156,3.0,92.0
4264,89.0,0,156,0.0,92.0
4265,56.0,0,156,2.0,92.0
4266,65.0,0,156,2.0,92.0
4267,70.0,0,78,11.0,105.0
4268,70.0,120,78,10.0,105.0
4269,80.0,0,120,10.0,105.0
4270,80.0,0,120,11.0,105.0
4271,46.0,0,384,5.0,105.0
4272,62.0,0,384,12.0,105.0
4273,62.0,0,384,13.0,105.0
4274,50.0,0,384,14.0,105.0
4275,65.0,0,156,2.0,92.0
4276,58.0,0,156,3.0,92.0
4277,80.0,120,156,1.0,92.0
4278,82.0,0,156,1.0,92.0
4279,68.0,0,156,3.0,92.0
4280,89.0,0,156,0.0,92.0
4281,56.0,0,156,2.0,92.0
4282,70.0,0,78,11.0,105.0
4283,70.0,120,78,10.0,105.0
4284,80.0,0,78,11.0,105.0
4285,80.0,0,78,10.0,105.0
4286,50.0,0,144,12.0,105.0
4287,38.0,120,144,14.0,105.0
4288,50.0,0,144,13.0,105.0
4289,79.0,120,78,11.0,105.0
4290,79.0,0,78,10.0,105.0
4291,77.0,0,78,10.0,105.0
4292,77.0,0,78,11.0,105.0
4293,70.0,0,1344,4.0,105.0
4294,50.0,0,144,14.0,105.0
4295,46.0,0,384,5.0,105.0
4296,58.0,0,1344,4.0,105.0
4297,62.0,0,144,13.0,105.0
4298,62.0,0,144,12.0,105.0
4299,80.0,0,156,1.0,92.0
4300,82.0,0,156,1.0,92.0
4301,89.0,0,156,0.0,92.0
4302,58.0,0,156,3.0,92.0
4303,68.0,0,156,3.0,92.0
4304,56.0,0,156,2.0,92.0
4305,65.0,120,156,2.0,92.0
4306,75.0,0,78,10.0,105.0
4307,75.0,120,78,11.0,105.0
4308,74.0,0,78,10.0,105.0
4309,74.0,0,78,11.0,105.0
4310,68.0,0,156,3.0,92.0
4311,89.0,0,156,0.0,92.0
4312,58.0,0,156,3.0,92.0
4313,80.0,0,156,1.0,92.0
4314,82.0,0,156,1.0,92.0
4315,56.0,0,156,2.0,92.0
4316,65.0,0,156,2.0,92.0
4317,72.0,120,78,10.0,105.0
4318,72.0,0,78,11.0,105.0
4319,70.0,0,78,10.0,105.0
4320,70.0,0,78,11.0,105.0
4321,50.0,0,384,14.0,105.0
4322,62.0,120,384,13.0,105.0
4323,62.0,0,384,12.0,105.0
4324,58.0,0,156,3.0,92.0
4325,65.0,0,156,2.0,92.0
4326,56.0,0,156,2.0,92.0
4327,82.0,0,156,1.0,92.0
4328,80.0,0,156,1.0,92.0
4329,68.0,0,156,3.0,92.0
4330,89.0,120,156,0.0,92.0
4331,68.0,120,78,10.0,105.0
4332,68.0,0,78,11.0,105.0
4333,67.0,0,78,10.0,105.0
4334,67.0,0,78,11.0,105.0
4335,82.0,0,132,1.0,105.0
4336,63.0,0,132,2.0,105.0
4337,55.0,0,132,2.0,105.0
4338,91.0,0,132,0.0,105.0
4339,67.0,0,132,3.0,105.0
4340,63.0,0,132,3.0,105.0
4341,79.0,0,132,1.0,105.0
4342,51.0,0,192,14.0,105.0
4343,63.0,0,192,13.0,105.0
4344,63.0,120,192,12.0,105.0
4345,75.0,0,78,10.0,105.0
4346,75.0,120,78,11.0,105.0
4347,70.0,0,78,11.0,105.0
4348,70.0,0,78,10.0,105.0
4349,82.0,0,132,1.0,105.0
4350,79.0,120,132,1.0,105.0
4351,91.0,0,132,0.0,105.0
4352,67.0,0,132,3.0,105.0
4353,63.0,0,132,2.0,105.0
4354,70.0,0,132,3.0,105.0
4355,55.0,0,132,2.0,105.0
4356,67.0,120,78,11.0,105.0
4357,67.0,0,78,10.0,105.0
4358,65.0,0,78,10.0,105.0
4359,65.0,0,78,11.0,105.0
4360,56.0,0,132,2.0,105.0
4361,65.0,0,132,2.0,105.0
4362,89.0,0,132,0.0,105.0
4363,80.0,0,132,1.0,105.0
4364,65.0,0,132,3.0,105.0
4365,68.0,0,132,3.0,105.0
4366,77.0,120,132,1.0,105.0
4367,56.0,0,192,13.0,105.0
4368,56.0,0,192,12.0,105.0
4369,44.0,0,192,14.0,105.0
4370,72.0,120,78,10.0,105.0
4371,72.0,0,78,11.0,105.0
4372,68.0,0,78,11.0,105.0
4373,68.0,0,78,10.0,105.0
4374,65.0,0,132,2.0,105.0
4375,89.0,0,132,0.0,105.0
4376,68.0,0,132,3.0,105.0
4377,80.0,120,132,1.0,105.0
4378,77.0,0,132,1.0,105.0
4379,65.0,0,132,3.0,105.0
4380,56.0,0,132,2.0,105.0
4381,65.0,120,78,10.0,105.0
4382,65.0,0,78,11.0,105.0
4383,63.0,0,78,10.0,105.0
4384,63.0,0,78,11.0,105.0
4385,63.0,0,132,3.0,105.0
4386,87.0,0,132,0.0,105.0
4387,67.0,0,132,3.0,105.0
4388,79.0,0,132,1.0,105.0
4389,55.0,0,132,2.0,105.0
4390,63.0,120,132,2.0,105.0
4391,75.0,0,132,1.0,105.0
4392,46.0,0,192,14.0,105.0
4393,58.0,0,192,12.0,105.0
4394,58.0,0,192,13.0,105.0
4395,70.0,120,78,11.0,105.0
4396,70.0,0,78,10.0,105.0
4397,67.0,0,78,10.0,105.0
4398,67.0,120,78,11.0,105.0
4399,67.0,0,132,3.0,105.0
4400,63.0,0,132,3.0,105.0
4401,63.0,0,132,2.0,105.0
4402,75.0,0,132,1.0,105.0
4403,87.0,0,132,0.0,105.0
4404,79.0,0,132,1.0,105.0
4405,55.0,0,132,2.0,105.0
4406,63.0,0,78,11.0,105.0
4407,63.0,120,78,10.0,105.0
4408,62.0,0,78,10.0,105.0
4409,62.0,120,78,11.0,105.0
4410,58.0,0,132,3.0,105.0
4411,65.0,0,132,3.0,105.0
4412,86.0,0,132,0.0,105.0
4413,53.0,0,132,2.0,105.0
4414,62.0,0,132,2.0,105.0
4415,77.0,0,132,1.0,105.0
4416,74.0,0,132,1.0,105.0
4417,34.0,0,192,14.0,105.0
4418,46.0,0,192,13.0,105.0
4419,58.0,0,192,12.0,105.0
4420,68.0,120,78,10.0,105.0
4421,68.0,0,78,11.0,105.0
4422,65.0,0,78,11.0,105.0
4423,65.0,0,78,10.0,105.0
4424,74.0,0,132,1.0,105.0
4425,77.0,0,132,1.0,105.0
4426,62.0,0,132,2.0,105.0
4427,53.0,0,132,2.0,105.0
4428,86.0,0,132,0.0,105.0
4429,65.0,120,132,3.0,105.0
4430,58.0,0,132,3.0,105.0
4431,46.0,0,384,5.0,105.0
4432,70.0,0,384,4.0,105.0
4433,58.0,0,384,4.0,105.0
4434,62.0,120,78,11.0,105.0
4435,62.0,0,78,10.0,105.0
4436,63.0,0,120,11.0,105.0
4437,63.0,0,120,10.0,105.0
4438,39.0,0,144,14.0,105.0
4439,51.0,0,144,12.0,105.0
4440,51.0,0,144,13.0,105.0
4441,75.0,0,156,1.0,92.0
4442,63.0,120,156,3.0,92.0
4443,55.0,0,156,3.0,92.0
4444,55.0,0,156,2.0,92.0
4445,63.0,0,156,2.0,92.0
4446,87.0,0,156,0.0,92.0
4447,58.0,120,78,11.0,105.0
4448,58.0,0,78,10.0,105.0
4449,55.0,120,78,10.0,105.0
4450,55.0,0,78,11.0,105.0
4451,63.0,0,384,4.0,105.0
4452,63.0,0,144,13.0,105.0
4453,75.0,0,384,4.0,105.0
4454,51.0,0,384,5.0,105.0
4455,63.0,0,144,12.0,105.0
4456,51.0,0,144,14.0,105.0
4457,63.0,0,156,3.0,92.0
4458,55.0,0,156,3.0,92.0
4459,70.0,0,156,1.0,92.0
4460,58.0,0,156,2.0,92.0
4461,67.0,0,156,2.0,92.0
4462,79.0,0,156,0.0,92.0
4463,75.0,0,156,1.0,92.0
4464,58.0,0,78,10.0,105.0
4465,58.0,120,78,11.0,105.0
4466,63.0,0,78,10.0,105.0
4467,63.0,0,78,11.0,105.0
4468,75.0,0,156,1.0,92.0
4469,70.0,0,156,1.0,92.0
4470,55.0,0,156,3.0,92.0
4471,63.0,0,156,3.0,92.0
4472,58.0,0,156,2.0,92.0
4473,67.0,0,156,2.0,92.0
4474,79.0,0,156,0.0,92.0
4475,67.0,0,78,10.0,105.0
4476,67.0,120,78,11.0,105.0
4477,70.0,0,78,11.0,105.0
4478,70.0,0,78,10.0,105.0
4479,63.0,120,384,12.0,105.0
4480,63.0,0,384,13.0,105.0
4481,51.0,0,384,14.0,105.0
4482,75.0,0,156,1.0,92.0
4483,67.0,0,156,2.0,92.0
4484,79.0,120,156,0.0,92.0
4485,63.0,0,156,3.0,92.0
4486,70.0,0,156,1.0,92.0
4487,55.0,0,156,3.0,92.0
4488,58.0,0,156,2.0,92.0
4489,67.0,120,78,11.0,105.0
4490,67.0,0,78,10.0,105.0
4491,63.0,0,120,11.0,105.0
4492,63.0,0,120,10.0,105.0
4493,51.0,0,144,12.0,105.0
4494,51.0,0,144,13.0,105.0
4495,39.0,0,144,14.0,105.0
4496,58.0,120,78,11.0,105.0
4497,58.0,0,78,10.0,105.0
4498,55.0,0,78,11.0,105.0
4499,55.0,0,78,10.0,105.0
4500,63.0,0,144,13.0,105.0
4501,63.0,0,384,4.0,105.0
4502,75.0,0,384,4.0,105.0
4503,51.0,0,144,14.0,105.0
4504,63.0,0,144,12.0,105.0
4505,51.0,120,384,5.0,105.0
4506,55.0,0,156,3.0,92.0
4507,70.0,0,156,1.0,92.0
4508,75.0,0,156,1.0,92.0
4509,58.0,0,156,2.0,92.0
4510,67.0,0,156,2.0,92.0
4511,79.0,120,156,0.0,92.0
4512,63.0,0,156,3.0,92.0
4513,58.0,120,78,11.0,105.0
4514,58.0,0,78,10.0,105.0
4515,63.0,0,78,11.0,105.0
4516,63.0,0,78,10.0,105.0
4517,67.0,0,156,2.0,92.0
4518,55.0,0,156,3.0,92.0
4519,79.0,0,156,0.0,92.0
4520,63.0,0,156,3.0,92.0
4521,75.0,0,156,1.0,92.0
4522,58.0,0,156,2.0,92.0
4523,70.0,0,156,1.0,92.0
4524,67.0,0,78,11.0,105.0
4525,67.0,120,78,10.0,105.0
4526,70.0,0,78,11.0,105.0
4527,70.0,0,78,10.0,105.0
4528,63.0,0,384,13.0,105.0
4529,51.0,0,384,14.0,105.0
4530,63.0,120,384,12.0,105.0
4531,67.0,0,156,2.0,92.0
4532,63.0,0,156,3.0,92.0
4533,70.0,0,156,1.0,92.0
4534,79.0,0,156,0.0,92.0
4535,58.0,120,156,2.0,92.0
4536,75.0,0,156,1.0,92.0
4537,55.0,0,156,3.0,92.0
4538,67.0,120,78,10.0,105.0
4539,67.0,0,78,11.0,105.0
4540,65.0,120,120,11.0,105.0
4541,65.0,0,120,10.0,105.0
4542,39.0,0,144,14.0,105.0
4543,51.0,0,144,13.0,105.0
4544,51.0,0,144,12.0,105.0
4545,60.0,120,78,11.0,105.0
4546,60.0,0,78,10.0,105.0
4547,56.0,0,78,11.0,105.0
4548,56.0,0,78,10.0,105.0
4549,63.0,120,144,12.0,105.0
4550,63.0,0,144,13.0,105.0
4551,51.0,0,384,5.0,105.0
4552,63.0,0,384,4.0,105.0
4553,75.0,0,384,4.0,105.0
4554,51.0,0,144,14.0,105.0
4555,60.0,0,156,2.0,92.0
4556,68.0,0,156,3.0,92.0
4557,56.0,0,156,2.0,92.0
4558,84.0,0,156,0.0,92.0
4559,68.0,0,156,1.0,92.0
4560,65.0,0,156,3.0,92.0
4561,77.0,0,156,1.0,92.0
4562,60.0,120,78,10.0,105.0
4563,60.0,0,78,11.0,105.0
4564,65.0,0,78,11.0,105.0
4565,65.0,0,78,10.0,105.0
4566,60.0,0,156,2.0,92.0
4567,68.0,0,156,1.0,92.0
4568,65.0,0,156,3.0,92.0
4569,68.0,0,156,3.0,92.0
4570,84.0,0,156,0.0,92.0
4571,77.0,0,156,1.0,92.0
4572,56.0,0,156,2.0,92.0
4573,68.0,120,78,11.0,105.0
4574,68.0,0,78,10.0,105.0
4575,72.0,120,78,10.0,105.0
4576,72.0,0,78,11.0,105.0
4577,51.0,120,384,14.0,105.0
4578,63.0,0,384,12.0,105.0
4579,63.0,0,384,13.0,105.0
4580,84.0,0,156,0.0,92.0
4581,68.0,0,156,3.0,92.0
4582,68.0,0,156,1.0,92.0
4583,65.0,0,156,3.0,92.0
4584,56.0,0,156,2.0,92.0
4585,77.0,0,156,1.0,92.0
4586,60.0,0,156,2.0,92.0
4587,68.0,0,78,11.0,105.0
4588,68.0,120,78,10.0,105.0
4589,65.0,0,120,10.0,105.0
4590,65.0,0,120,11.0,105.0
4591,39.0,0,144,14.0,105.0
4592,51.0,0,144,13.0,105.0
4593,51.0,0,144,12.0,105.0
4594,60.0,120,78,11.0,105.0
4595,60.0,0,78,10.0,105.0
4596,56.0,0,78,11.0,105.0
4597,56.0,120,78,10.0,105.0
4598,51.0,120,384,5.0,105.0
4599,51.0,0,144,14.0,105.0
4600,75.0,0,384,4.0,105.0
4601,63.0,0,384,4.0,105.0
4602,63.0,0,144,12.0,105.0
4603,63.0,0,144,13.0,105.0
4604,56.0,0,156,2.0,92.0
4605,84.0,0,156,0.0,92.0
4606,68.0,0,156,1.0,92.0
4607,77.0,0,156,1.0,92.0
4608,60.0,0,156,2.0,92.0
4609,68.0,0,156,3.0,92.0
4610,65.0,0,156,3.0,92.0
4611,60.0,120,78,11.0,105.0
4612,60.0,0,78,10.0,105.0
4613,65.0,0,78,10.0,105.0
4614,65.0,0,78,11.0,105.0
4615,68.0,0,156,3.0,92.0
4616,84.0,0,156,0.0,92.0
4617,68.0,0,156,1.0,92.0
4618,77.0,0,156,1.0,92.0
4619,60.0,0,156,2.0,92.0
4620,65.0,120,156,3.0,92.0
4621,56.0,0,156,2.0,92.0
4622,68.0,0,78,10.0,105.0
4623,68.0,120,78,11.0,105.0
4624,72.0,0,78,10.0,105.0
4625,72.0,0,78,11.0,105.0
4626,51.0,0,384,14.0,105.0
4627,63.0,0,384,12.0,105.0
4628,63.0,0,384,13.0,105.0
4629,84.0,0,156,0.0,92.0
4630,68.0,120,156,1.0,92.0
4631,77.0,0,156,1.0,92.0
4632,56.0,0,156,2.0,92.0
4633,60.0,0,156,2.0,92.0
4634,65.0,0,156,3.0,92.0
4635,68.0,0,156,3.0,92.0
4636,68.0,0,78,10.0,105.0
4637,68.0,120,78,11.0,105.0
4638,62.0,120,120,10.0,105.0
4639,62.0,0,120,11.0,105.0
4640,50.0,0,144,12.0,105.0
4641,38.0,0,144,14.0,105.0
4642,50.0,0,144,13.0,105.0
4643,70.0,120,78,11.0,105.0
4644,70.0,0,78,10.0,105.0
4645,80.0,0,120,10.0,105.0
4646,80.0,0,120,11.0,105.0
4647,62.0,0,144,13.0,105.0
4648,62.0,0,144,12.0,105.0
4649,50.0,0,144,14.0,105.0
4650,46.0,0,384,5.0,105.0
4651,56.0,0,156,2.0,92.0
4652,65.0,0,156,2.0,92.0
4653,89.0,0,156,0.0,92.0
4654,58.0,0,156,3.0,92.0
4655,68.0,120,156,3.0,92.0
4656,80.0,0,156,1.0,92.0
4657,82.0,0,156,1.0,92.0
4658,70.0,0,78,10.0,105.0
4659,70.0,120,78,11.0,105.0
4660,80.0,0,120,10.0,105.0
4661,80.0,0,120,11.0,105.0
4662,68.0,0,156,3.0,92.0
4663,65.0,0,156,2.0,92.0
4664,58.0,0,156,3.0,92.0
4665,80.0,120,156,1.0,92.0
4666,82.0,0,156,1.0,92.0
4667,89.0,0,156,0.0,92.0
4668,56.0,0,156,2.0,92.0
4669,70.0,0,78,11.0,105.0
4670,70.0,120,78,10.0,105.0
4671,80.0,0,120,11.0,105.0
4672,80.0,0,120,10.0,105.0
4673,62.0,0,384,12.0,105.0
4674,50.0,0,384,14.0,105.0
4675,46.0,0,384,5.0,105.0
4676,62.0,0,384,13.0,105.0
4677,82.0,0,156,1.0,92.0
4678,89.0,0,156,0.0,92.0
4679,80.0,0,156,1.0,92.0
4680,56.0,120,156,2.0,92.0
4681,58.0,0,156,3.0,92.0
4682,68.0,0,156,3.0,92.0
4683,65.0,0,156,2.0,92.0
4684,70.0,0,78,11.0,105.0
4685,70.0,120,78,10.0,105.0
4686,80.0,120,78,11.0,105.0
4687,80.0,0,78,10.0,105.0
4688,50.0,0,144,13.0,105.0
4689,50.0,0,144,12.0,105.0
4690,38.0,0,144,14.0,105.0
4691,79.0,120,78,11.0,105.0
4692,79.0,0,78,10.0,105.0
4693,77.0,0,78,10.0,105.0
4694,77.0,0,78,11.0,105.0
4695,58.0,0,1344,4.0,105.0
4696,70.0,0,1344,4.0,105.0
4697,46.0,0,384,5.0,105.0
4698,62.0,120,144,13.0,105.0
4699,50.0,0,144,14.0,105.0
4700,62.0,0,144,12.0,105.0
4701,89.0,0,156,0.0,92.0
4702,80.0,0,156,1.0,92.0
4703,65.0,0,156,2.0,92.0
4704,58.0,0,156,3.0,92.0
4705,68.0,0,156,3.0,92.0
4706,82.0,0,156,1.0,92.0
4707,56.0,0,156,2.0,92.0
4708,75.0,0,78,11.0,105.0
4709,75.0,120,78,10.0,105.0
4710,74.0,120,78,11.0,105.0
4711,74.0,0,78,10.0,105.0
4712,89.0,0,156,0.0,92.0
4713,68.0,0,156,3.0,92.0
4714,58.0,0,156,3.0,92.0
4715,65.0,0,156,2.0,92.0
4716,56.0,0,156,2.0,92.0
4717,82.0,0,156,1.0,92.0
4718,80.0,0,156,1.0,92.0
4719,72.0,120,78,10.0,105.0
4720,72.0,0,78,11.0,105.0
4721,70.0,0,78,10.0,105.0
4722,70.0,0,78,11.0,105.0
4723,50.0,0,384,14.0,105.0
4724,62.0,0,384,12.0,105.0
4725,62.0,0,384,13.0,105.0
4726,58.0,0,156,3.0,92.0
4727,80.0,120,156,1.0,92.0
4728,82.0,0,156,1.0,92.0
4729,65.0,0,156,2.0,92.0
4730,56.0,0,156,2.0,92.0
4731,89.0,0,156,0.0,92.0
4732,68.0,0,156,3.0,92.0
4733,68.0,0,78,11.0,105.0
4734,68.0,120,78,10.0,105.0
4735,67.0,0,120,10.0,105.0
4736,67.0,0,120,11.0,105.0
4737,51.0,120,144,12.0,105.0
4738,51.0,0,144,13.0,105.0
4739,39.0,0,144,14.0,105.0
4740,75.0,120,78,10.0,105.0
4741,75.0,0,78,11.0,105.0
4742,79.0,0,120,10.0,105.0
4743,79.0,0,120,11.0,105.0
4744,63.0,120,144,12.0,105.0
4745,63.0,0,144,13.0,105.0
4746,51.0,0,144,14.0,105.0
4747,51.0,0,384,5.0,105.0
4748,82.0,0,156,1.0,92.0
4749,79.0,0,156,1.0,92.0
4750,58.0,0,156,3.0,92.0
4751,67.0,0,156,3.0,92.0
4752,87.0,0,156,0.0,92.0
4753,63.0,0,156,2.0,92.0
4754,55.0,0,156,2.0,92.0
4755,75.0,120,78,11.0,105.0
4756,75.0,0,78,10.0,105.0
4757,79.0,0,120,10.0,105.0
4758,79.0,0,120,11.0,105.0
4759,87.0,0,156,0.0,92.0
4760,58.0,0,156,3.0,92.0
4761,82.0,0,156,1.0,92.0
4762,79.0,0,156,1.0,92.0
4763,63.0,0,156,2.0,92.0
4764,55.0,120,156,2.0,92.0
4765,67.0,0,156,3.0,92.0
4766,75.0,120,78,11.0,105.0
4767,75.0,0,78,10.0,105.0
4768,79.0,0,120,11.0,105.0
4769,79.0,0,120,10.0,105.0
4770,63.0,0,384,12.0,105.0
4771,63.0,0,384,13.0,105.0
4772,51.0,0,384,5.0,105.0
4773,51.0,0,384,14.0,105.0
4774,67.0,0,156,3.0,92.0
4775,58.0,0,156,3.0,92.0
4776,87.0,120,156,0.0,92.0
4777,63.0,0,156,2.0,92.0
4778,55.0,0,156,2.0,92.0
4779,82.0,0,156,1.0,92.0
4780,79.0,0,156,1.0,92.0
4781,75.0,120,78,10.0,105.0
4782,75.0,0,78,11.0,105.0
4783,79.0,0,78,11.0,105.0
4784,79.0,0,78,10.0,105.0
4785,51.0,0,144,13.0,105.0
4786,39.0,0,144,14.0,105.0
4787,51.0,120,144,12.0,105.0
4788,77.0,120,78,10.0,105.0
4789,77.0,0,78,11.0,105.0
4790,75.0,0,78,10.0,105.0
4791,75.0,0,78,11.0,105.0
4792,70.0,0,1344,4.0,105.0
4793,63.0,0,144,12.0,105.0
4794,63.0,0,144,13.0,105.0
4795,51.0,0,144,14.0,105.0
4796,63.0,0,1344,4.0,105.0
4797,51.0,0,384,5.0,105.0
4798,79.0,120,156,1.0,92.0
4799,82.0,0,156,1.0,92.0
4800,87.0,0,156,0.0,92.0
4801,58.0,0,156,3.0,92.0
4802,67.0,0,156,3.0,92.0
4803,63.0,0,156,2.0,92.0
4804,55.0,0,156,2.0,92.0
4805,74.0,120,78,10.0,105.0
4806,74.0,0,78,11.0,105.0
4807,72.0,0,78,11.0,105.0
4808,72.0,0,78,10.0,105.0
4809,67.0,0,156,3.0,92.0
4810,58.0,0,156,3.0,92.0
4811,87.0,0,156,0.0,92.0
4812,79.0,0,156,1.0,92.0
4813,63.0,0,156,2.0,92.0
4814,55.0,0,156,2.0,92.0
4815,82.0,0,156,1.0,92.0
4816,70.0,0,78,10.0,105.0
4817,70.0,120,78,11.0,105.0
4818,68.0,0,78,11.0,105.0
4819,68.0,120,78,10.0,105.0
4820,63.0,0,384,12.0,105.0
4821,63.0,120,384,13.0,105.0
4822,51.0,0,384,14.0,105.0
4823,58.0,0,156,3.0,92.0
4824,67.0,0,156,3.0,92.0
4825,87.0,0,156,0.0,92.0
4826,82.0,0,156,1.0,92.0
4827,79.0,0,156,1.0,92.0
4828,63.0,0,156,2.0,92.0
4829,55.0,0,156,2.0,92.0
4830,67.0,120,78,11.0,105.0
4831,67.0,0,78,10.0,105.0
4832,65.0,0,120,10.0,105.0
4833,65.0,0,120,11.0,105.0
4834,51.0,0,144,13.0,105.0
4835,51.0,0,144,12.0,105.0
4836,39.0,0,144,14.0,105.0
4837,72.0,0,78,11.0,105.0
4838,72.0,120,78,10.0,105.0
4839,81.0,0,120,11.0,105.0
4840,81.0,0,120,10.0,105.0
4841,51.0,0,384,5.0,105.0
4842,51.0,0,144,14.0,105.0
4843,63.0,0,144,12.0,105.0
4844,63.0,0,144,13.0,105.0
4845,57.0,0,156,2.0,92.0
4846,77.0,0,156,1.0,92.0
4847,81.0,0,156,1.0,92.0
4848,60.0,0,156,2.0,92.0
4849,84.0,0,156,0.0,92.0
4850,65.0,0,156,3.0,92.0
4851,69.0,120,156,3.0,92.0
4852,72.0,120,78,11.0,105.0
4853,72.0,0,78,10.0,105.0
4854,81.0,0,120,10.0,105.0
4855,81.0,0,120,11.0,105.0
4856,65.0,0,156,3.0,92.0
4857,84.0,0,156,0.0,92.0
4858,69.0,0,156,3.0,92.0
4859,57.0,0,156,2.0,92.0
4860,60.0,0,156,2.0,92.0
4861,77.0,0,156,1.0,92.0
4862,81.0,0,156,1.0,92.0
4863,72.0,120,78,10.0,105.0
4864,72.0,0,78,11.0,105.0
4865,81.0,0,120,11.0,105.0
4866,81.0,0,120,10.0,105.0
4867,51.0,0,384,5.0,105.0
4868,51.0,0,384,14.0,105.0
4869,63.0,0,384,13.0,105.0
4870,63.0,120,384,12.0,105.0
4871,57.0,0,156,2.0,92.0
4872,69.0,0,156,3.0,92.0
4873,77.0,120,156,1.0,92.0
4874,65.0,0,156,3.0,92.0
4875,81.0,0,156,1.0,92.0
4876,84.0,0,156,0.0,92.0
4877,60.0,0,156,2.0,92.0
4878,72.0,0,78,10.0,105.0
4879,72.0,120,78,11.0,105.0
4880,81.0,0,78,10.0,105.0
4881,81.0,0,78,11.0,105.0
4882,51.0,0,144,13.0,105.0
4883,51.0,0,144,12.0,105.0
4884,39.0,0,144,14.0,105.0
4885,79.0,120,78,11.0,105.0
4886,79.0,0,78,10.0,105.0
4887,77.0,0,78,11.0,105.0
4888,77.0,0,78,10.0,105.0
4889,51.0,120,384,5.0,105.0
4890,63.0,120,1344,4.0,105.0
4891,75.0,0,1344,4.0,105.0
4892,63.0,0,144,13.0,105.0
4893,51.0,0,144,14.0,105.0
4894,63.0,0,144,12.0,105.0
4895,60.0,0,156,2.0,92.0
4896,57.0,0,156,2.0,92.0
4897,84.0,0,156,0.0,92.0
4898,77.0,0,156,1.0,92.0
4899,81.0,0,156,1.0,92.0
4900,65.0,120,156,3.0,92.0
4901,69.0,0,156,3.0,92.0
4902,75.0,0,78,10.0,105.0
4903,75.0,120,78,11.0,105.0
4904,74.0,0,78,11.0,105.0
4905,74.0,0,78,10.0,105.0
4906,57.0,0,156,2.0,92.0
4907,65.0,0,156,3.0,92.0
4908,84.0,0,156,0.0,92.0
4909,81.0,0,156,1.0,92.0
4910,77.0,0,156,1.0,92.0
4911,69.0,0,156,3.0,92.0
4912,60.0,120,156,2.0,92.0
4913,72.0,0,78,10.0,105.0
4914,72.0,120,78,11.0,105.0
4915,70.0,0,78,10.0,105.0
4916,70.0,120,78,11.0,105.0
4917,63.0,0,384,12.0,105.0
4918,63.0,0,384,13.0,105.0
4919,51.0,0,384,14.0,105.0
4920,84.0,0,156,0.0,92.0
4921,60.0,0,156,2.0,92.0
4922,77.0,0,156,1.0,92.0
4923,69.0,0,156,3.0,92.0
4924,57.0,0,156,2.0,92.0
4925,81.0,0,156,1.0,92.0
4926,65.0,0,156,3.0,92.0
4927,69.0,0,78,11.0,105.0
4928,69.0,120,78,10.0,105.0
4929,70.0,0,120,10.0,105.0
4930,70.0,0,120,11.0,105.0
4931,38.0,0,144,14.0,105.0
4932,50.0,0,144,12.0,105.0
4933,50.0,0,144,13.0,105.0
4934,77.0,0,78,11.0,105.0
4935,77.0,120,78,10.0,105.0
4936,82.0,120,120,11.0,105.0
4937,82.0,0,120,10.0,105.0
4938,46.0,0,384,5.0,105.0
4939,50.0,0,144,14.0,105.0
4940,62.0,0,144,12.0,105.0
4941,62.0,0,144,13.0,105.0
4942,77.0,0,156,1.0,92.0
4943,58.0,0,156,2.0,92.0
4944,82.0,0,156,1.0,92.0
4945,86.0,0,156,0.0,92.0
4946,70.0,0,156,3.0,92.0
4947,65.0,0,156,3.0,92.0
4948,62.0,0,156,2.0,92.0
4949,77.0,120,78,10.0,105.0
4950,77.0,0,78,11.0,105.0
4951,82.0,120,120,10.0,105.0
4952,82.0,0,120,11.0,105.0
4953,62.0,0,156,2.0,92.0
4954,86.0,0,156,0.0,92.0
4955,70.0,0,156,3.0,92.0
4956,82.0,0,156,1.0,92.0
4957,65.0,0,156,3.0,92.0
4958,77.0,0,156,1.0,92.0
4959,58.0,0,156,2.0,92.0
4960,77.0,120,78,10.0,105.0
4961,77.0,0,78,11.0,105.0
4962,82.0,0,120,11.0,105.0
4963,82.0,120,120,10.0,105.0
4964,50.0,0,384,14.0,105.0
4965,46.0,0,384,5.0,105.0
4966,62.0,0,384,12.0,105.0
4967,62.0,0,384,13.0,105.0
4968,77.0,0,156,1.0,92.0
4969,62.0,0,156,2.0,92.0
4970,86.0,0,156,0.0,92.0
4971,82.0,0,156,1.0,92.0
4972,70.0,0,156,3.0,92.0
4973,58.0,0,156,2.0,92.0
4974,65.0,0,156,3.0,92.0
4975,77.0,120,78,11.0,105.0
4976,77.0,0,78,10.0,105.0
4977,82.0,0,78,10.0,105.0
4978,82.0,0,78,11.0,105.0
4979,50.0,0,144,12.0,105.0
4980,38.0,0,144,14.0,105.0
4981,50.0,120,144,13.0,105.0
4982,81.0,0,78,11.0,105.0
4983,81.0,120,78,10.0,105.0
4984,79.0,0,78,10.0,105.0
4985,79.0,0,78,11.0,105.0
4986,46.0,0,384,5.0,105.0
4987,58.0,0,1344,4.0,105.0
4988,70.0,120,1344,4.0,105.0
4989,50.0,0,144,14.0,105.0
4990,62.0,0,144,13.0,105.0
4991,62.0,0,144,12.0,105.0
4992,70.0,0,156,3.0,92.0
4993,65.0,0,156,3.0,92.0
4994,77.0,0,156,1.0,92.0
4995,58.0,120,156,2.0,92.0
4996,82.0,0,156,1.0,92.0
4997,86.0,0,156,0.0,92.0
4998,62.0,0,156,2.0,92.0
4999,77.0,120,78,10.0,105.0
5000,77.0,0,78,11.0,105.0
5001,75.0,0,78,11.0,105.0
5002,75.0,0,78,10.0,105.0
5003,82.0,0,156,1.0,92.0
5004,62.0,0,156,2.0,92.0
5005,58.0,0,156,2.0,92.0
5006,70.0,0,156,3.0,92.0
5007,65.0,0,156,3.0,92.0
5008,77.0,0,156,1.0,92.0
5009,86.0,0,156,0.0,92.0
5010,74.0,0,78,10.0,105.0
5011,74.0,120,78,11.0,105.0
5012,72.0,0,78,10.0,105.0
5013,72.0,0,78,11.0,105.0
5014,50.0,0,384,14.0,105.0
5015,62.0,120,384,12.0,105.0
5016,62.0,0,384,13.0,105.0
5017,77.0,0,156,1.0,92.0
5018,58.0,0,156,2.0,92.0
5019,86.0,0,156,0.0,92.0
5020,62.0,0,156,2.0,92.0
5021,70.0,120,156,3.0,92.0
5022,82.0,0,156,1.0,92.0
5023,65.0,0,156,3.0,92.0
5024,70.0,0,78,11.0,105.0
5025,70.0,120,78,10.0,105.0
5026,76.0,120,120,11.0,105.0
5027,76.0,0,120,10.0,105.0
5028,43.0,0,144,13.0,105.0
5029,55.0,0,144,12.0,105.0
5030,31.0,0,144,14.0,105.0
5031,79.0,0,78,10.0,105.0
5032,79.0,120,78,11.0,105.0
5033,82.0,0,120,11.0,105.0
5034,82.0,0,120,10.0,105.0
5035,43.0,0,144,14.0,105.0
5036,67.0,0,144,12.0,105.0
5037,46.0,0,384,5.0,105.0
5038,55.0,120,144,13.0,105.0
5039,82.0,0,156,1.0,92.0
5040,76.0,0,156,1.0,92.0
5041,58.0,0,156,3.0,92.0
5042,88.0,0,156,0.0,92.0
5043,55.0,0,156,2.0,92.0
5044,64.0,0,156,2.0,92.0
5045,70.0,0,156,3.0,92.0
5046,79.0,120,78,11.0,105.0
5047,79.0,0,78,10.0,105.0
5048,82.0,0,120,11.0,105.0
5049,82.0,0,120,10.0,105.0
5050,82.0,0,156,1.0,92.0
5051,55.0,0,156,2.0,92.0
5052,76.0,0,156,1.0,92.0
5053,58.0,0,156,3.0,92.0
5054,70.0,120,156,3.0,92.0
5055,64.0,0,156,2.0,92.0
5056,88.0,0,156,0.0,92.0
5057,79.0,0,78,11.0,105.0
5058,79.0,120,78,10.0,105.0
5059,82.0,0,120,11.0,105.0
5060,82.0,0,120,10.0,105.0
5061,46.0,0,384,5.0,105.0
5062,67.0,0,384,12.0,105.0
5063,43.0,0,384,14.0,105.0
5064,55.0,0,384,13.0,105.0
5065,55.0,0,156,2.0,92.0
5066,64.0,0,156,2.0,92.0
5067,70.0,0,156,3.0,92.0
5068,88.0,120,156,0.0,92.0
5069,58.0,0,156,3.0,92.0
5070,82.0,0,156,1.0,92.0
5071,76.0,0,156,1.0,92.0
5072,79.0,0,78,10.0,105.0
5073,79.0,120,78,11.0,105.0
5074,82.0,0,78,11.0,105.0
5075,82.0,0,78,10.0,105.0
5076,43.0,0,144,13.0,105.0
5077,32.0,0,144,14.0,105.0
5078,55.0,0,144,12.0,105.0
5079,81.0,0,78,10.0,105.0
5080,81.0,120,78,11.0,105.0
5081,79.0,0,78,10.0,105.0
5082,79.0,0,78,11.0,105.0
5083,58.0,0,1344,4.0,105.0
5084,70.0,0,1344,4.0,105.0
5085,67.0,0,144,12.0,105.0
5086,46.0,120,384,5.0,105.0
5087,55.0,0,144,13.0,105.0
5088,43.0,0,144,14.0,105.0
5089,70.0,0,156,3.0,92.0
5090,58.0,0,156,3.0,92.0
5091,64.0,120,156,2.0,92.0
5092,82.0,0,156,1.0,92.0
5093,88.0,0,156,0.0,92.0
5094,55.0,0,156,2.0,92.0
5095,76.0,0,156,1.0,92.0
5096,77.0,0,78,11.0,105.0
5097,77.0,120,78,10.0,105.0
5098,76.0,0,78,10.0,105.0
5099,76.0,0,78,11.0,105.0
5100,82.0,0,156,1.0,92.0
5101,76.0,0,156,1.0,92.0
5102,58.0,120,156,3.0,92.0
5103,64.0,0,156,2.0,92.0
5104,70.0,0,156,3.0,92.0
5105,55.0,0,156,2.0,92.0
5106,88.0,0,156,0.0,92.0
5107,74.0,120,78,10.0,105.0
5108,74.0,0,78,11.0,105.0
5109,72.0,0,78,11.0,105.0
5110,72.0,0,78,10.0,105.0
5111,55.0,0,384,13.0,105.0
5112,67.0,0,384,12.0,105.0
5113,43.0,0,384,14.0,105.0
5114,70.0,120,156,3.0,92.0
5115,55.0,0,156,2.0,92.0
5116,82.0,0,156,1.0,92.0
5117,76.0,0,156,1.0,92.0
5118,64.0,0,156,2.0,92.0
5119,58.0,0,156,3.0,92.0
5120,88.0,0,156,0.0,92.0
5121,70.0,120,78,11.0,105.0
5122,70.0,0,78,10.0,105.0
5123,69.0,0,78,10.0,105.0
5124,69.0,0,78,11.0,105.0
5125,53.0,0,144,12.0,105.0
5126,29.0,120,144,14.0,105.0
5127,41.0,0,144,13.0,105.0
5128,81.0,0,156,1.0,92.0
5129,89.0,0,156,0.0,92.0
5130,65.0,0,156,2.0,92.0
5131,57.0,0,156,2.0,92.0
5132,65.0,0,156,3.0,92.0
5133,77.0,0,156,1.0,92.0
5134,81.0,120,78,11.0,105.0
5135,81.0,0,78,10.0,105.0
5136,79.0,0,78,11.0,105.0
5137,79.0,0,78,10.0,105.0
5138,53.0,0,144,13.0,105.0
5139,41.0,0,144,14.0,105.0
5140,77.0,0,384,4.0,105.0
5141,65.0,0,144,12.0,105.0
5142,65.0,0,156,3.0,92.0
5143,65.0,0,156,2.0,92.0
5144,57.0,0,156,2.0,92.0
5145,77.0,0,156,1.0,92.0
5146,81.0,0,156,1.0,92.0
5147,89.0,120,156,0.0,92.0
5148,77.0,0,78,10.0,105.0
5149,77.0,120,78,11.0,105.0
5150,76.0,0,78,10.0,105.0
5151,76.0,0,78,11.0,105.0
5152,65.0,0,144,12.0,105.0
5153,53.0,0,144,13.0,105.0
5154,41.0,0,144,14.0,105.0
5155,88.0,0,156,0.0,92.0
5156,58.0,120,156,2.0,92.0
5157,64.0,0,156,2.0,92.0
5158,79.0,0,156,1.0,92.0
5159,67.0,0,156,3.0,92.0
5160,82.0,0,156,1.0,92.0
5161,82.0,120,78,11.0,105.0
5162,82.0,0,78,10.0,105.0
5163,79.0,0,78,11.0,105.0
5164,79.0,0,78,10.0,105.0
5165,41.0,0,144,14.0,105.0
5166,65.0,0,144,12.0,105.0
5167,53.0,0,144,13.0,105.0
5168,79.0,0,156,1.0,92.0
5169,67.0,0,156,3.0,92.0
5170,64.0,0,156,2.0,92.0
5171,88.0,0,156,0.0,92.0
5172,82.0,120,156,1.0,92.0
5173,58.0,0,156,2.0,92.0
5174,76.0,0,78,10.0,105.0
5175,76.0,120,78,11.0,105.0
5176,77.0,120,78,10.0,105.0
5177,77.0,0,78,11.0,105.0
5178,65.0,0,144,12.0,105.0
5179,53.0,0,144,13.0,105.0
5180,41.0,0,144,14.0,105.0
5181,89.0,0,156,0.0,92.0
5182,57.0,0,156,2.0,92.0
5183,81.0,0,156,1.0,92.0
5184,77.0,0,156,1.0,92.0
5185,65.0,0,156,2.0,92.0
5186,65.0,0,156,3.0,92.0
5187,81.0,120,78,10.0,105.0
5188,81.0,0,78,11.0,105.0
5189,79.0,120,78,11.0,105.0
5190,79.0,0,78,10.0,105.0
5191,65.0,0,144,12.0,105.0
5192,77.0,0,384,4.0,105.0
5193,53.0,0,144,13.0,105.0
5194,41.0,0,144,14.0,105.0
5195,81.0,0,156,1.0,92.0
5196,77.0,0,156,1.0,92.0
5197,65.0,0,156,2.0,92.0
5198,89.0,0,156,0.0,92.0
5199,65.0,0,156,3.0,92.0
5200,57.0,0,156,2.0,92.0
5201,77.0,0,78,11.0,105.0
5202,77.0,120,78,10.0,105.0
5203,76.0,0,78,11.0,105.0
5204,76.0,0,78,10.0,105.0
5205,41.0,0,144,14.0,105.0
5206,53.0,0,144,13.0,105.0
5207,65.0,0,144,12.0,105.0
5208,88.0,0,156,0.0,92.0
5209,64.0,0,156,2.0,92.0
5210,58.0,120,156,2.0,92.0
5211,79.0,0,156,1.0,92.0
5212,67.0,0,156,3.0,92.0
5213,82.0,0,156,1.0,92.0
5214,82.0,0,78,10.0,105.0
5215,82.0,120,78,11.0,105.0
5216,79.0,0,78,10.0,105.0
5217,79.0,0,78,11.0,105.0
5218,65.0,120,144,12.0,105.0
5219,41.0,0,144,14.0,105.0
5220,53.0,0,144,13.0,105.0
5221,88.0,0,156,0.0,92.0
5222,82.0,0,156,1.0,92.0
5223,67.0,0,156,3.0,92.0
5224,58.0,0,156,2.0,92.0
5225,64.0,0,156,2.0,92.0
5226,79.0,0,156,1.0,92.0
5227,76.0,0,78,11.0,105.0
5228,76.0,120,78,10.0,105.0
5229,57.0,0,156,2.0,92.0
5230,65.0,0,156,2.0,92.0
5231,53.0,0,156,13.0,105.0
5232,65.0,0,156,3.0,92.0
5233,89.0,0,156,0.0,92.0
5234,77.0,0,156,1.0,92.0
5235,81.0,0,156,1.0,92.0
5236,41.0,120,156,14.0,105.0
5237,77.0,0,156,11.0,105.0
5238,77.0,0,156,10.0,105.0
5239,65.0,0,156,12.0,105.0
5240,57.0,0,78,10.0,105.0
5241,57.0,0,78,11.0,105.0
5242,65.0,240,78,10.0,105.0
5243,65.0,0,78,11.0,105.0
5244,77.0,0,384,4.0,105.0
5245,29.0,0,156,14.0,105.0
5246,41.0,0,156,13.0,105.0
5247,60.0,0,156,2.0,80.0
5248,53.0,0,156,12.0,105.0
5249,72.0,0,156,1.0,80.0
5250,69.0,0,156,1.0,80.0
5251,77.0,0,156,0.0,92.0
5252,57.0,0,156,2.0,80.0
5253,65.0,0,156,3.0,92.0
5254,65.0,0,78,11.0,105.0
5255,57.0,120,78,11.0,105.0
5256,57.0,0,78,10.0,105.0
5257,65.0,0,78,10.0,105.0
5258,57.0,120,156,2.0,80.0
5259,60.0,0,156,2.0,80.0
5260,65.0,0,156,11.0,105.0
5261,65.0,0,156,10.0,105.0
5262,57.0,0,156,10.0,105.0
5263,57.0,0,156,11.0,105.0
5264,65.0,0,156,3.0,92.0
5265,77.0,0,156,0.0,92.0
5266,69.0,0,156,1.0,80.0
5267,72.0,0,156,1.0,80.0
5268,53.0,0,156,12.0,105.0
5269,29.0,0,156,14.0,105.0
5270,41.0,0,156,13.0,105.0
5271,77.0,0,384,4.0,105.0
5272,60.0,0,156,2.0,80.0
5273,53.0,0,156,12.0,105.0
5274,29.0,0,156,14.0,105.0
5275,57.0,0,156,2.0,80.0
5276,41.0,0,156,13.0,105.0
5277,77.0,0,156,0.0,92.0
5278,72.0,0,156,1.0,80.0
5279,65.0,0,156,3.0,92.0
5280,57.0,0,156,10.0,105.0
5281,65.0,240,156,11.0,105.0
5282,57.0,0,156,11.0,105.0
5283,69.0,0,156,1.0,80.0
5284,65.0,0,156,10.0,105.0
5285,53.0,240,384,12.0,105.0
5286,65.0,0,384,3.0,92.0
5287,77.0,0,384,4.0,105.0
5288,77.0,0,384,0.0,92.0
5289,29.0,0,384,14.0,105.0
5290,69.0,0,384,1.0,80.0
5291,65.0,0,384,11.0,105.0
5292,72.0,0,384,1.0,80.0
5293,57.0,0,384,10.0,105.0
5294,57.0,0,384,11.0,105.0
5295,65.0,0,384,10.0,105.0
5296,41.0,0,384,13.0,105.0
5297,60.0,0,384,2.0,80.0
5298,57.0,0,384,2.0,80.0
5299,74.0,720,72,10.0,80.0
5300,75.0,120,72,10.0,80.0
5301,62.0,120,120,11.0,70.0
5302,77.0,0,120,10.0,80.0
5303,75.0,0,72,10.0,80.0
5304,65.0,120,120,11.0,70.0
5305,74.0,120,72,10.0,80.0
5306,62.0,0,120,11.0,70.0
5307,72.0,0,72,10.0,80.0
5308,65.0,120,120,11.0,70.0
5309,62.0,0,120,11.0,70.0
5310,70.0,120,144,10.0,80.0
5311,65.0,120,120,11.0,70.0
5312,62.0,0,120,11.0,70.0
5313,60.0,120,144,2.0,58.0
5314,84.0,0,144,0.0,70.0
5315,72.0,0,144,1.0,58.0
5316,65.0,120,72,11.0,90.0
5317,63.0,0,120,11.0,70.0
5318,65.0,120,120,11.0,70.0
5319,63.0,0,120,11.0,70.0
5320,77.0,120,144,10.0,80.0
5321,65.0,120,120,11.0,70.0
5322,63.0,120,120,11.0,70.0
5323,77.0,0,144,10.0,80.0
5324,65.0,0,720,1.0,58.0
5325,53.0,120,720,2.0,58.0
5326,65.0,120,120,11.0,70.0
5327,77.0,0,720,0.0,70.0
5328,63.0,0,120,11.0,70.0
5329,79.0,0,120,0.0,70.0
5330,55.0,0,120,2.0,58.0
5331,67.0,0,120,1.0,58.0
5332,77.0,120,144,10.0,80.0
5333,65.0,0,72,11.0,90.0
5334,57.0,0,120,2.0,58.0
5335,81.0,120,120,0.0,70.0
5336,69.0,0,120,1.0,58.0
5337,62.0,0,120,11.0,70.0
5338,82.0,0,192,0.0,70.0
5339,70.0,0,192,1.0,58.0
5340,58.0,120,192,2.0,58.0
5341,65.0,120,120,11.0,70.0
5342,77.0,0,240,10.0,80.0
5343,62.0,120,120,11.0,70.0
5344,79.0,0,120,10.0,80.0
5345,81.0,120,120,10.0,80.0
5346,65.0,0,120,11.0,70.0
5347,62.0,0,120,11.0,70.0
5348,82.0,120,120,10.0,80.0
5349,81.0,0,120,10.0,80.0
5350,65.0,120,120,11.0,70.0
5351,79.0,120,120,10.0,80.0
5352,62.0,0,120,11.0,70.0
5353,65.0,120,72,11.0,90.0
5354,77.0,0,96,10.0,80.0
5355,77.0,0,60,10.0,80.0
5356,60.0,120,120,11.0,70.0
5357,75.0,60,108,10.0,100.0
5358,65.0,60,120,11.0,70.0
5359,60.0,120,120,11.0,70.0
5360,75.0,0,144,10.0,80.0
5361,65.0,120,120,11.0,70.0
5362,75.0,0,60,10.0,80.0
5363,58.0,120,120,11.0,70.0
5364,74.0,60,108,10.0,100.0
5365,65.0,60,120,11.0,70.0
5366,58.0,120,120,11.0,70.0
5367,74.0,0,144,10.0,80.0
5368,65.0,120,72,11.0,90.0
5369,74.0,0,60,10.0,80.0
5370,63.0,120,120,11.0,70.0
5371,72.0,60,108,10.0,100.0
5372,67.0,60,120,11.0,70.0
5373,63.0,120,120,11.0,70.0
5374,72.0,0,144,10.0,80.0
5375,67.0,120,120,11.0,70.0
5376,72.0,120,60,10.0,80.0
5377,64.0,0,120,11.0,70.0
5378,70.0,60,108,10.0,100.0
5379,67.0,60,120,11.0,70.0
5380,64.0,120,120,11.0,70.0
5381,70.0,0,144,10.0,80.0
5382,67.0,120,72,11.0,90.0
5383,65.0,0,384,11.0,70.0
5384,69.0,120,480,10.0,80.0
5385,72.0,480,144,10.0,80.0
5386,74.0,240,72,10.0,80.0
5387,75.0,120,72,10.0,80.0
5388,62.0,0,120,11.0,70.0
5389,77.0,120,120,10.0,80.0
5390,75.0,0,72,10.0,80.0
5391,65.0,120,120,11.0,70.0
5392,74.0,0,72,10.0,80.0
5393,62.0,120,120,11.0,70.0
5394,72.0,120,72,10.0,80.0
5395,65.0,0,120,11.0,70.0
5396,62.0,0,120,11.0,70.0
5397,70.0,120,144,10.0,80.0
5398,65.0,120,120,11.0,70.0
5399,62.0,0,120,11.0,70.0
5400,72.0,120,144,1.0,58.0
5401,60.0,0,144,2.0,58.0
5402,84.0,0,144,0.0,70.0
5403,65.0,120,72,11.0,90.0
5404,63.0,0,120,11.0,70.0
5405,65.0,120,120,11.0,70.0
5406,63.0,0,120,11.0,70.0
5407,77.0,120,144,10.0,80.0
5408,65.0,120,120,11.0,70.0
5409,63.0,0,120,11.0,70.0
5410,77.0,120,144,10.0,80.0
5411,53.0,120,720,2.0,58.0
5412,65.0,120,120,11.0,70.0
5413,65.0,0,720,1.0,58.0
5414,77.0,0,720,0.0,70.0
5415,79.0,120,120,0.0,70.0
5416,67.0,0,120,1.0,58.0
5417,55.0,0,120,2.0,58.0
5418,63.0,0,120,11.0,70.0
5419,77.0,0,144,10.0,80.0
5420,65.0,0,72,11.0,90.0
5421,57.0,0,120,2.0,58.0
5422,69.0,120,120,1.0,58.0
5423,81.0,0,120,0.0,70.0
5424,61.0,120,120,11.0,70.0
5425,58.0,0,192,2.0,58.0
5426,77.0,0,192,10.0,80.0
5427,82.0,0,192,0.0,70.0
5428,70.0,0,192,1.0,58.0
5429,65.0,120,120,11.0,70.0
5430,79.0,0,96,10.0,80.0
5431,61.0,120,120,11.0,70.0
5432,81.0,0,96,10.0,80.0
5433,65.0,120,120,11.0,70.0
5434,82.0,0,96,10.0,80.0
5435,61.0,120,120,11.0,70.0
5436,80.0,0,96,10.0,80.0
5437,65.0,120,120,11.0,70.0
5438,78.0,0,96,10.0,80.0
5439,61.0,120,120,11.0,70.0
5440,65.0,120,72,11.0,90.0
5441,77.0,0,96,10.0,80.0
5442,77.0,120,60,10.0,80.0
5443,60.0,0,120,11.0,70.0
5444,75.0,60,108,10.0,100.0
5445,65.0,60,120,11.0,70.0
5446,60.0,120,120,11.0,70.0
5447,75.0,0,144,10.0,80.0
5448,65.0,120,120,11.0,70.0
5449,75.0,0,60,10.0,80.0
5450,58.0,120,120,11.0,70.0
5451,73.0,60,108,10.0,100.0
5452,65.0,60,120,11.0,70.0
5453,58.0,0,120,11.0,70.0
5454,73.0,120,144,10.0,80.0
5455,65.0,120,72,11.0,90.0
5456,63.0,0,120,11.0,70.0
5457,73.0,0,120,10.0,70.0
5458,66.0,120,120,11.0,70.0
5459,63.0,120,120,11.0,70.0
5460,66.0,120,120,11.0,70.0
5461,63.0,120,120,11.0,70.0
5462,66.0,120,120,11.0,70.0
5463,63.0,120,120,11.0,70.0
5464,71.0,0,744,10.0,70.0
5465,66.0,120,72,11.0,90.0
5466,63.0,0,960,2.0,70.0
5467,70.0,0,120,10.0,70.0
5468,62.0,120,120,11.0,70.0
5469,66.0,120,120,11.0,70.0
5470,62.0,120,120,11.0,70.0
5471,66.0,120,120,11.0,70.0
5472,62.0,120,120,11.0,70.0
5473,66.0,120,120,11.0,70.0
5474,62.0,120,120,11.0,70.0
5475,71.0,0,744,10.0,70.0
5476,66.0,120,72,11.0,90.0
5477,62.0,0,960,2.0,70.0
5478,66.0,120,1920,2.0,70.0
5479,61.0,0,120,11.0,70.0
5480,65.0,120,120,11.0,70.0
5481,71.0,0,240,10.0,70.0
5482,68.0,120,120,11.0,70.0
5483,37.0,120,384,14.0,58.0
5484,61.0,0,384,2.0,58.0
5485,65.0,0,384,2.0,58.0
5486,49.0,0,384,13.0,58.0
5487,65.0,120,120,11.0,70.0
5488,68.0,120,120,11.0,70.0
5489,83.0,0,480,10.0,70.0
5490,65.0,120,120,11.0,70.0
5491,56.0,0,72,2.0,58.0
5492,68.0,120,120,11.0,70.0
5493,58.0,120,72,2.0,92.0
5494,65.0,0,72,11.0,90.0
5495,59.0,0,120,2.0,92.0
5496,61.0,120,120,11.0,70.0
5497,58.0,0,72,2.0,92.0
5498,80.0,0,480,10.0,70.0
5499,65.0,120,120,11.0,70.0
5500,56.0,120,72,2.0,92.0
5501,68.0,0,120,11.0,70.0
5502,49.0,0,384,14.0,58.0
5503,61.0,0,384,13.0,58.0
5504,54.0,120,72,2.0,92.0
5505,65.0,0,120,11.0,70.0
5506,68.0,0,120,11.0,70.0
5507,53.0,120,144,2.0,92.0
5508,65.0,120,120,11.0,70.0
5509,77.0,0,480,10.0,70.0
5510,82.0,120,72,0.0,70.0
5511,68.0,0,120,11.0,70.0
5512,65.0,120,72,11.0,90.0
5513,83.0,0,72,0.0,80.0
5514,56.0,0,1872,12.0,58.0
5515,53.0,0,1872,12.0,58.0
5516,71.0,0,192,10.0,70.0
5517,85.0,0,120,0.0,80.0
5518,61.0,0,120,11.0,70.0
5519,83.0,120,72,0.0,80.0
5520,66.0,0,120,11.0,70.0
5521,70.0,0,240,10.0,70.0
5522,82.0,0,72,0.0,80.0
5523,70.0,120,120,11.0,70.0
5524,49.0,120,384,13.0,58.0
5525,37.0,0,384,14.0,58.0
5526,80.0,0,72,0.0,80.0
5527,66.0,120,120,11.0,70.0
5528,70.0,0,120,11.0,70.0
5529,78.0,120,144,0.0,80.0
5530,85.0,0,480,10.0,70.0
5531,66.0,120,120,11.0,70.0
5532,58.0,120,72,2.0,92.0
5533,70.0,0,120,11.0,70.0
5534,66.0,120,72,11.0,90.0
5535,59.0,0,72,2.0,92.0
5536,61.0,0,120,11.0,70.0
5537,61.0,120,120,2.0,92.0
5538,59.0,0,72,2.0,92.0
5539,66.0,120,120,11.0,70.0
5540,82.0,0,480,10.0,70.0
5541,58.0,0,72,2.0,92.0
5542,70.0,0,120,11.0,70.0
5543,61.0,0,384,13.0,58.0
5544,49.0,0,384,14.0,58.0
5545,56.0,120,72,2.0,92.0
5546,66.0,0,120,11.0,70.0
5547,70.0,0,120,11.0,70.0
5548,54.0,120,144,2.0,92.0
5549,66.0,120,120,11.0,70.0
5550,78.0,120,480,10.0,70.0
5551,80.0,120,72,0.0,80.0
5552,70.0,0,120,11.0,70.0
5553,82.0,120,72,0.0,80.0
5554,54.0,0,1872,12.0,58.0
5555,58.0,0,1872,12.0,58.0
5556,66.0,0,72,11.0,90.0
5557,73.0,0,192,10.0,70.0
5558,83.0,0,120,0.0,80.0
5559,61.0,120,120,11.0,70.0
5560,82.0,120,72,0.0,80.0
5561,65.0,0,120,11.0,70.0
5562,71.0,0,240,10.0,70.0
5563,80.0,0,72,0.0,80.0
5564,68.0,120,120,11.0,70.0
5565,37.0,0,384,14.0,58.0
5566,49.0,0,384,13.0,58.0
5567,78.0,0,72,0.0,80.0
5568,65.0,120,120,11.0,70.0
5569,68.0,120,120,11.0,70.0
5570,77.0,0,144,0.0,80.0
5571,65.0,120,120,11.0,70.0
5572,83.0,0,480,10.0,70.0
5573,56.0,120,72,2.0,92.0
5574,68.0,0,120,11.0,70.0
5575,65.0,120,72,11.0,90.0
5576,57.0,0,72,2.0,92.0
5577,61.0,120,120,11.0,70.0
5578,59.0,0,120,2.0,92.0
5579,57.0,0,72,2.0,92.0
5580,80.0,0,480,10.0,70.0
5581,65.0,120,120,11.0,70.0
5582,56.0,120,72,2.0,92.0
5583,68.0,0,120,11.0,70.0
5584,49.0,0,384,14.0,58.0
5585,61.0,0,384,13.0,58.0
5586,54.0,0,72,2.0,92.0
5587,65.0,120,120,11.0,70.0
5588,68.0,120,120,11.0,70.0
5589,53.0,0,144,2.0,92.0
5590,77.0,0,480,10.0,70.0
5591,65.0,120,120,11.0,70.0
5592,81.0,120,72,0.0,80.0
5593,68.0,0,120,11.0,70.0
5594,53.0,0,1872,12.0,58.0
5595,83.0,120,72,0.0,80.0
5596,71.0,0,192,10.0,70.0
5597,56.0,0,1872,12.0,58.0
5598,65.0,0,72,11.0,90.0
5599,61.0,120,120,11.0,70.0
5600,85.0,0,120,0.0,80.0
5601,83.0,120,72,0.0,80.0
5602,69.0,0,240,10.0,70.0
5603,66.0,0,120,11.0,70.0
5604,81.0,120,72,0.0,80.0
5605,69.0,0,120,11.0,70.0
5606,37.0,0,384,14.0,58.0
5607,49.0,0,384,13.0,58.0
5608,80.0,0,72,0.0,80.0
5609,66.0,120,120,11.0,70.0
5610,69.0,120,120,11.0,70.0
5611,78.0,0,144,0.0,80.0
5612,85.0,0,480,10.0,70.0
5613,66.0,120,120,11.0,70.0
5614,57.0,0,72,2.0,92.0
5615,69.0,0,120,11.0,70.0
5616,66.0,120,72,11.0,90.0
5617,59.0,0,72,2.0,92.0
5618,61.0,0,120,2.0,92.0
5619,61.0,120,120,11.0,70.0
5620,59.0,0,72,2.0,92.0
5621,66.0,120,120,11.0,70.0
5622,81.0,120,480,10.0,70.0
5623,57.0,0,72,2.0,92.0
5624,69.0,120,120,11.0,70.0
5625,49.0,0,384,14.0,58.0
5626,61.0,0,384,13.0,58.0
5627,56.0,0,72,2.0,92.0
5628,66.0,120,120,11.0,70.0
5629,69.0,120,120,11.0,70.0
5630,54.0,0,144,2.0,92.0
5631,66.0,120,72,11.0,112.0
5632,78.0,0,480,10.0,70.0
5633,69.0,0,120,11.0,127.0
5634,69.0,120,144,10.0,127.0
5635,66.0,120,60,11.0,112.0
5636,45.0,0,192,14.0,127.0
5637,57.0,0,192,13.0,127.0
5638,57.0,0,1872,12.0,58.0
5639,54.0,0,1872,12.0,58.0
5640,60.0,0,156,11.0,105.0
5641,60.0,0,156,10.0,116.0
5642,60.0,240,78,10.0,116.0
5643,60.0,0,78,11.0,105.0
5644,51.0,0,384,5.0,105.0
5645,60.0,0,78,10.0,116.0
5646,60.0,120,78,11.0,105.0
5647,48.0,120,576,13.0,125.0
5648,60.0,0,576,12.0,125.0
5649,36.0,0,576,14.0,125.0
5650,60.0,0,156,11.0,105.0
5651,60.0,120,156,10.0,116.0
5652,75.0,0,768,4.0,105.0
5653,63.0,0,768,4.0,105.0
5654,57.0,0,768,2.0,112.0
5655,69.0,0,768,1.0,92.0
5656,75.0,0,768,1.0,112.0
5657,51.0,0,768,3.0,105.0
5658,54.0,0,768,2.0,92.0
5659,78.0,0,768,0.0,112.0
5660,63.0,0,768,3.0,105.0
5661,69.0,0,156,11.0,105.0
5662,69.0,240,156,10.0,116.0
5663,59.0,0,156,11.0,105.0
5664,59.0,0,156,10.0,116.0
5665,59.0,0,78,11.0,105.0
5666,59.0,240,78,10.0,116.0
5667,51.0,0,384,5.0,105.0
5668,59.0,120,78,11.0,105.0
5669,59.0,0,78,10.0,116.0
5670,35.0,0,576,14.0,125.0
5671,59.0,0,576,12.0,125.0
5672,47.0,0,576,13.0,125.0
5673,59.0,120,156,11.0,105.0
5674,59.0,0,156,10.0,116.0
5675,57.0,0,768,2.0,112.0
5676,75.0,0,768,4.0,105.0
5677,51.0,0,768,3.0,105.0
5678,63.0,0,768,3.0,105.0
5679,81.0,0,768,0.0,112.0
5680,63.0,0,768,4.0,105.0
5681,69.0,240,156,11.0,105.0
5682,69.0,0,156,10.0,116.0
5683,58.0,0,156,10.0,116.0
5684,58.0,0,156,11.0,105.0
5685,58.0,0,78,10.0,116.0
5686,58.0,240,78,11.0,105.0
5687,51.0,0,384,5.0,105.0
5688,58.0,120,78,11.0,105.0
5689,58.0,0,78,10.0,116.0
5690,58.0,0,576,12.0,125.0
5691,34.0,0,576,14.0,125.0
5692,46.0,0,576,13.0,125.0
5693,58.0,0,156,10.0,116.0
5694,58.0,120,156,11.0,105.0
5695,63.0,0,768,3.0,105.0
5696,78.0,0,1728,1.0,92.0
5697,58.0,0,768,2.0,112.0
5698,51.0,0,768,3.0,105.0
5699,66.0,240,1728,2.0,92.0
5700,63.0,0,768,4.0,105.0
5701,75.0,0,768,4.0,105.0
5702,82.0,240,768,0.0,112.0
5703,70.0,0,156,10.0,116.0
5704,70.0,240,156,11.0,105.0
5705,84.0,0,288,0.0,112.0
5706,75.0,0,288,4.0,125.0
5707,65.0,0,288,2.0,112.0
5708,77.0,0,288,1.0,112.0
5709,63.0,0,288,3.0,125.0
5710,57.0,0,312,11.0,105.0
5711,33.0,0,312,14.0,125.0
5712,45.0,0,312,13.0,125.0
5713,57.0,0,312,12.0,125.0
5714,57.0,240,384,10.0,116.0
5715,75.0,0,2304,1.0,92.0
5716,60.0,0,384,2.0,92.0
5717,63.0,0,384,4.0,105.0
5718,51.0,0,384,5.0,105.0
5719,51.0,0,384,3.0,105.0
5720,86.0,480,60,10.0,116.0
5721,84.0,60,60,10.0,116.0
5722,86.0,60,60,10.0,116.0
5723,84.0,60,60,10.0,116.0
5724,84.0,0,288,0.0,92.0
5725,77.0,0,288,1.0,92.0
5726,57.0,0,288,2.0,92.0
5727,63.0,0,288,3.0,105.0
5728,65.0,0,288,3.0,105.0
5729,86.0,60,60,10.0,116.0
5730,77.0,0,312,11.0,105.0
5731,45.0,0,312,14.0,105.0
5732,75.0,0,312,11.0,105.0
5733,69.0,0,312,12.0,105.0
5734,57.0,0,312,13.0,105.0
5735,84.0,60,60,10.0,116.0
5736,75.0,0,384,1.0,92.0
5737,82.0,60,60,10.0,116.0
5738,84.0,60,48,10.0,116.0
5739,77.0,0,288,1.0,92.0
5740,58.0,0,288,2.0,92.0
5741,86.0,0,288,0.0,92.0
5742,65.0,0,288,3.0,105.0
5743,58.0,0,288,3.0,105.0
5744,74.0,0,312,11.0,105.0
5745,77.0,0,312,11.0,105.0
5746,46.0,0,312,14.0,105.0
5747,70.0,0,312,12.0,105.0
5748,58.0,0,312,13.0,105.0
5749,86.0,60,384,10.0,116.0
5750,70.0,0,384,4.0,105.0
5751,58.0,0,384,4.0,105.0
5752,74.0,0,384,1.0,92.0
5753,46.0,0,384,5.0,105.0
5754,55.0,0,144,2.0,92.0
5755,58.0,0,144,3.0,105.0
5756,82.0,0,144,0.0,92.0
5757,67.0,0,144,3.0,105.0
5758,70.0,0,144,1.0,92.0
5759,74.0,0,144,1.0,92.0
5760,74.0,480,156,11.0,105.0
5761,67.0,0,156,12.0,105.0
5762,55.0,0,156,13.0,105.0
5763,43.0,0,156,14.0,105.0
5764,82.0,0,156,10.0,116.0
5765,58.0,0,144,3.0,105.0
5766,82.0,0,144,0.0,92.0
5767,55.0,0,144,2.0,92.0
5768,70.0,0,144,1.0,92.0
5769,74.0,0,144,1.0,92.0
5770,67.0,0,144,3.0,105.0
5771,82.0,0,156,10.0,116.0
5772,67.0,240,156,12.0,105.0
5773,43.0,0,156,14.0,105.0
5774,55.0,0,156,13.0,105.0
5775,74.0,0,156,11.0,105.0
5776,72.0,0,144,1.0,92.0
5777,84.0,0,144,0.0,92.0
5778,75.0,0,144,1.0,92.0
5779,63.0,0,144,3.0,105.0
5780,67.0,0,144,3.0,105.0
5781,51.0,0,144,2.0,92.0
5782,51.0,0,156,13.0,105.0
5783,39.0,240,156,14.0,105.0
5784,75.0,0,156,11.0,105.0
5785,84.0,0,156,10.0,116.0
5786,63.0,0,156,12.0,105.0
5787,75.0,0,144,1.0,92.0
5788,63.0,0,144,3.0,105.0
5789,51.0,0,144,2.0,92.0
5790,67.0,0,144,3.0,105.0
5791,84.0,240,144,0.0,92.0
5792,72.0,0,144,1.0,92.0
5793,51.0,0,156,13.0,105.0
5794,84.0,0,156,10.0,116.0
5795,75.0,0,156,11.0,105.0
5796,39.0,0,156,14.0,105.0
5797,63.0,0,156,12.0,105.0
5798,69.0,0,144,1.0,92.0
5799,72.0,240,144,1.0,92.0
5800,81.0,0,144,0.0,92.0
5801,65.0,0,144,3.0,105.0
5802,53.0,0,144,2.0,92.0
5803,53.0,0,156,13.0,105.0
5804,72.0,0,156,11.0,105.0
5805,41.0,0,156,14.0,105.0
5806,81.0,0,156,10.0,116.0
5807,65.0,0,156,12.0,105.0
5808,53.0,240,144,2.0,92.0
5809,69.0,0,144,1.0,92.0
5810,72.0,0,144,1.0,92.0
5811,65.0,0,144,3.0,105.0
5812,81.0,0,144,0.0,92.0
5813,41.0,0,156,14.0,105.0
5814,81.0,0,156,10.0,116.0
5815,53.0,0,156,13.0,105.0
5816,65.0,0,156,12.0,105.0
5817,72.0,0,156,11.0,105.0
5818,70.0,0,96,11.0,92.0
5819,82.0,0,96,11.0,92.0
5820,82.0,0,144,10.0,116.0
5821,58.0,0,144,3.0,92.0
5822,46.0,0,156,13.0,105.0
5823,58.0,0,156,12.0,105.0
5824,82.0,0,156,0.0,92.0
5825,46.0,0,156,2.0,92.0
5826,70.0,0,156,1.0,92.0
5827,34.0,0,156,14.0,105.0
5828,70.0,120,96,11.0,92.0
5829,82.0,0,96,11.0,92.0
5830,70.0,0,96,11.0,92.0
5831,82.0,0,96,11.0,92.0
5832,46.0,0,384,5.0,105.0
5833,70.0,0,384,4.0,105.0
5834,58.0,0,144,3.0,92.0
5835,46.0,0,144,3.0,92.0
5836,58.0,240,384,4.0,105.0
5837,82.0,0,96,11.0,92.0
5838,70.0,120,96,11.0,92.0
5839,82.0,0,96,11.0,92.0
5840,70.0,0,96,11.0,92.0
5841,58.0,0,144,3.0,92.0
5842,46.0,120,144,3.0,92.0
5843,70.0,0,96,11.0,92.0
5844,82.0,120,96,11.0,92.0
5845,62.0,0,480,10.0,116.0
5846,50.0,0,480,12.0,105.0
5847,74.0,0,480,1.0,92.0
5848,86.0,120,480,0.0,92.0
5849,38.0,0,480,14.0,105.0
5850,50.0,0,480,2.0,92.0
5851,50.0,0,480,13.0,105.0
5852,70.0,0,96,11.0,92.0
5853,82.0,0,96,11.0,92.0
5854,58.0,0,144,3.0,92.0
5855,46.0,0,144,3.0,92.0
5856,51.0,120,192,13.0,105.0
5857,87.0,0,192,0.0,92.0
5858,51.0,0,192,2.0,92.0
5859,75.0,0,192,1.0,92.0
5860,39.0,0,192,14.0,105.0
5861,51.0,0,192,12.0,105.0
5862,63.0,0,192,10.0,116.0
5863,70.0,120,96,11.0,92.0
5864,82.0,0,96,11.0,92.0
5865,82.0,0,96,11.0,92.0
5866,70.0,0,96,11.0,92.0
5867,82.0,0,144,10.0,116.0
5868,46.0,0,192,3.0,92.0
5869,58.0,0,192,3.0,92.0
5870,82.0,0,96,11.0,92.0
5871,70.0,120,96,11.0,92.0
5872,70.0,0,96,11.0,92.0
5873,82.0,0,96,11.0,92.0
5874,58.0,120,384,4.0,105.0
5875,70.0,0,384,4.0,105.0
5876,46.0,0,384,5.0,105.0
5877,58.0,0,192,3.0,92.0
5878,46.0,0,192,3.0,92.0
5879,82.0,0,96,11.0,92.0
5880,70.0,120,96,11.0,92.0
5881,82.0,120,96,11.0,92.0
5882,70.0,0,96,11.0,92.0
5883,58.0,0,192,3.0,92.0
5884,46.0,0,192,3.0,92.0
5885,70.0,120,96,11.0,92.0
5886,82.0,0,96,11.0,92.0
5887,52.0,120,480,2.0,92.0
5888,40.0,0,480,14.0,105.0
5889,52.0,0,480,13.0,105.0
5890,76.0,0,480,1.0,92.0
5891,64.0,0,480,10.0,116.0
5892,52.0,0,480,12.0,105.0
5893,88.0,0,480,0.0,92.0
5894,70.0,0,96,11.0,92.0
5895,82.0,0,96,11.0,92.0
5896,53.0,0,192,2.0,92.0
5897,65.0,120,192,10.0,116.0
5898,53.0,0,192,12.0,105.0
5899,89.0,0,192,0.0,92.0
5900,53.0,0,192,13.0,105.0
5901,46.0,0,192,3.0,92.0
5902,58.0,0,192,3.0,92.0
5903,77.0,0,192,1.0,92.0
5904,41.0,0,192,14.0,105.0
5905,82.0,120,96,11.0,92.0
5906,70.0,0,96,11.0,92.0
5907,82.0,0,96,11.0,92.0
5908,70.0,0,96,11.0,92.0
5909,82.0,120,144,10.0,116.0
5910,58.0,0,192,3.0,92.0
5911,46.0,0,192,3.0,92.0
5912,82.0,120,96,11.0,92.0
5913,70.0,0,96,11.0,92.0
5914,82.0,0,96,11.0,92.0
5915,70.0,0,96,11.0,92.0
5916,46.0,0,384,5.0,105.0
5917,70.0,0,384,4.0,105.0
5918,58.0,0,384,4.0,105.0
5919,46.0,120,192,3.0,92.0
5920,58.0,0,192,3.0,92.0
5921,70.0,120,96,11.0,92.0
5922,82.0,0,96,11.0,92.0
5923,70.0,0,96,11.0,92.0
5924,82.0,0,96,11.0,92.0
5925,46.0,120,192,3.0,92.0
5926,58.0,0,192,3.0,92.0
5927,82.0,120,96,11.0,92.0
5928,70.0,0,96,11.0,92.0
5929,54.0,0,480,13.0,105.0
5930,78.0,0,480,1.0,92.0
5931,54.0,0,480,2.0,92.0
5932,42.0,0,480,14.0,105.0
5933,66.0,0,480,10.0,116.0
5934,90.0,0,480,0.0,92.0
5935,54.0,0,480,12.0,105.0
5936,70.0,0,96,11.0,92.0
5937,82.0,0,96,11.0,92.0
5938,67.0,0,192,10.0,116.0
5939,91.0,0,192,0.0,92.0
5940,79.0,0,192,1.0,92.0
5941,55.0,0,192,12.0,105.0
5942,58.0,0,192,3.0,92.0
5943,46.0,0,192,3.0,92.0
5944,55.0,120,192,13.0,105.0
5945,43.0,0,192,14.0,105.0
5946,55.0,0,192,2.0,92.0
5947,82.0,120,96,11.0,92.0
5948,70.0,0,96,11.0,92.0
5949,44.0,0,156,14.0,105.0
5950,70.0,0,156,11.0,92.0
5951,56.0,0,156,12.0,105.0
5952,68.0,0,156,10.0,116.0
5953,82.0,0,156,11.0,92.0
5954,56.0,0,156,13.0,105.0
5955,56.0,240,78,10.0,116.0
5956,32.0,0,78,14.0,105.0
5957,44.0,0,78,13.0,105.0
5958,56.0,0,78,12.0,105.0
5959,70.0,0,78,11.0,92.0
5960,62.0,0,78,11.0,92.0
5961,58.0,0,384,3.0,92.0
5962,56.0,0,384,2.0,92.0
5963,80.0,0,384,1.0,92.0
5964,92.0,0,384,0.0,92.0
5965,46.0,120,384,5.0,105.0
5966,58.0,0,384,4.0,105.0
5967,70.0,0,384,4.0,105.0
5968,46.0,0,384,3.0,92.0
5969,44.0,0,78,13.0,105.0
5970,56.0,120,78,12.0,105.0
5971,56.0,0,78,10.0,116.0
5972,32.0,0,78,14.0,105.0
5973,70.0,0,78,11.0,92.0
5974,62.0,0,78,11.0,92.0
5975,56.0,0,156,12.0,105.0
5976,32.0,0,156,14.0,105.0
5977,70.0,0,156,11.0,92.0
5978,62.0,0,156,11.0,92.0
5979,56.0,0,156,10.0,116.0
5980,44.0,0,156,13.0,105.0
5981,46.0,120,288,5.0,105.0
5982,58.0,0,288,4.0,105.0
5983,70.0,0,288,4.0,105.0
5984,58.0,0,288,3.0,92.0
5985,46.0,0,288,3.0,92.0
5986,77.0,0,384,1.0,92.0
5987,62.0,0,384,2.0,92.0
5988,53.0,0,384,2.0,92.0
5989,86.0,0,384,0.0,92.0
5990,74.0,0,384,1.0,92.0
5991,56.0,0,156,12.0,105.0
5992,56.0,0,156,10.0,116.0
5993,62.0,0,156,11.0,92.0
5994,70.0,0,156,11.0,92.0
5995,44.0,0,156,13.0,105.0
5996,32.0,240,156,14.0,105.0
5997,58.0,0,96,3.0,92.0
5998,46.0,0,96,3.0,92.0
5999,70.0,0,96,4.0,105.0
6000,58.0,120,96,4.0,105.0
6001,46.0,0,96,5.0,105.0
6002,55.0,0,156,10.0,116.0
6003,43.0,0,156,13.0,105.0
6004,63.0,0,156,11.0,92.0
6005,70.0,0,156,11.0,92.0
6006,31.0,0,156,14.0,105.0
6007,55.0,0,156,12.0,105.0
6008,55.0,0,78,13.0,105.0
6009,67.0,0,78,12.0,105.0
6010,75.0,0,78,11.0,92.0
6011,82.0,0,78,10.0,116.0
6012,43.0,240,78,14.0,105.0
6013,46.0,0,384,3.0,92.0
6014,58.0,0,384,3.0,92.0
6015,70.0,120,384,4.0,105.0
6016,58.0,0,384,4.0,105.0
6017,46.0,0,384,5.0,105.0
6018,67.0,0,78,12.0,105.0
6019,55.0,120,78,13.0,105.0
6020,82.0,0,78,10.0,116.0
6021,43.0,0,78,14.0,105.0
6022,75.0,0,78,11.0,92.0
6023,43.0,0,156,14.0,105.0
6024,82.0,0,156,10.0,116.0
6025,67.0,0,156,12.0,105.0
6026,75.0,0,156,11.0,92.0
6027,55.0,120,156,13.0,105.0
6028,58.0,0,288,3.0,92.0
6029,46.0,0,288,3.0,92.0
6030,79.0,0,768,1.0,92.0
6031,58.0,0,288,4.0,105.0
6032,55.0,0,768,2.0,92.0
6033,63.0,0,768,2.0,92.0
6034,87.0,0,768,0.0,92.0
6035,70.0,0,288,4.0,105.0
6036,46.0,0,288,5.0,105.0
6037,75.0,0,768,1.0,92.0
6038,55.0,0,156,13.0,105.0
6039,82.0,240,156,10.0,116.0
6040,75.0,0,156,11.0,92.0
6041,67.0,0,156,12.0,105.0
6042,43.0,0,156,14.0,105.0
6043,70.0,0,96,4.0,105.0
6044,58.0,0,96,4.0,105.0
6045,58.0,120,96,3.0,92.0
6046,46.0,0,96,3.0,92.0
6047,46.0,0,96,5.0,105.0
6048,42.0,0,156,14.0,105.0
6049,66.0,0,156,12.0,105.0
6050,54.0,0,156,13.0,105.0
6051,76.0,0,156,11.0,92.0
6052,82.0,0,156,10.0,116.0
6053,82.0,0,78,11.0,92.0
6054,85.0,0,78,10.0,116.0
6055,66.0,0,78,12.0,105.0
6056,42.0,240,78,14.0,105.0
6057,54.0,0,78,13.0,105.0
6058,46.0,0,384,3.0,92.0
6059,58.0,0,384,3.0,92.0
6060,70.0,0,384,4.0,105.0
6061,58.0,0,384,4.0,105.0
6062,46.0,0,384,5.0,105.0
6063,42.0,0,78,14.0,105.0
6064,66.0,0,78,12.0,105.0
6065,54.0,0,78,13.0,105.0
6066,85.0,120,78,10.0,116.0
6067,82.0,0,78,11.0,92.0
6068,82.0,0,156,11.0,92.0
6069,54.0,0,156,13.0,105.0
6070,66.0,0,156,12.0,105.0
6071,42.0,120,156,14.0,105.0
6072,85.0,0,156,10.0,116.0
6073,73.0,0,768,1.0,92.0
6074,76.0,0,768,1.0,92.0
6075,61.0,120,768,2.0,92.0
6076,64.0,0,768,2.0,92.0
6077,88.0,0,768,0.0,92.0
6078,70.0,0,384,4.0,105.0
6079,58.0,0,384,4.0,105.0
6080,58.0,0,384,3.0,92.0
6081,46.0,0,384,5.0,105.0
6082,46.0,0,384,3.0,92.0
6083,42.0,240,156,14.0,105.0
6084,66.0,0,156,12.0,105.0
6085,82.0,0,156,11.0,92.0
6086,85.0,0,156,10.0,116.0
6087,54.0,0,156,13.0,105.0
6088,46.0,0,48,5.0,105.0
6089,46.0,60,48,5.0,105.0
6090,82.0,0,120,11.0,92.0
6091,86.0,0,120,10.0,116.0
6092,89.0,0,156,0.0,92.0
6093,65.0,240,156,2.0,92.0
6094,62.0,0,156,2.0,92.0
6095,53.0,0,156,13.0,105.0
6096,77.0,0,156,1.0,92.0
6097,74.0,0,156,1.0,92.0
6098,41.0,0,156,14.0,105.0
6099,65.0,0,156,12.0,105.0
6100,46.0,60,48,5.0,105.0
6101,58.0,0,192,3.0,92.0
6102,46.0,0,192,3.0,92.0
6103,58.0,0,192,4.0,105.0
6104,70.0,0,192,4.0,105.0
6105,46.0,60,48,5.0,105.0
6106,81.0,0,120,11.0,92.0
6107,85.0,0,120,10.0,116.0
6108,46.0,0,48,5.0,105.0
6109,46.0,60,48,5.0,105.0
6110,82.0,0,120,11.0,92.0
6111,86.0,0,120,10.0,116.0
6112,70.0,0,156,12.0,105.0
6113,74.0,0,156,1.0,92.0
6114,58.0,0,156,13.0,105.0
6115,89.0,0,156,0.0,92.0
6116,77.0,60,156,1.0,92.0
6117,62.0,0,156,2.0,92.0
6118,65.0,0,156,2.0,92.0
6119,46.0,0,156,14.0,105.0
6120,46.0,0,48,5.0,105.0
6121,58.0,0,192,3.0,92.0
6122,70.0,0,192,4.0,105.0
6123,46.0,0,192,3.0,92.0
6124,58.0,0,192,4.0,105.0
6125,46.0,60,48,5.0,105.0
6126,85.0,0,120,10.0,116.0
6127,81.0,60,120,11.0,92.0
6128,46.0,0,48,5.0,105.0
6129,46.0,60,48,5.0,105.0
6130,86.0,0,120,10.0,116.0
6131,82.0,0,120,11.0,92.0
6132,65.0,0,156,2.0,92.0
6133,89.0,0,156,0.0,92.0
6134,62.0,0,156,13.0,105.0
6135,62.0,60,156,2.0,92.0
6136,50.0,0,156,14.0,105.0
6137,77.0,0,156,1.0,92.0
6138,74.0,0,156,1.0,92.0
6139,74.0,0,156,12.0,105.0
6140,46.0,60,48,5.0,105.0
6141,58.0,0,192,4.0,105.0
6142,58.0,0,192,3.0,92.0
6143,70.0,0,192,4.0,105.0
6144,46.0,0,192,3.0,92.0
6145,46.0,60,48,5.0,105.0
6146,81.0,0,120,11.0,92.0
6147,85.0,0,120,10.0,116.0
6148,46.0,60,48,5.0,105.0
6149,46.0,60,48,5.0,105.0
6150,86.0,0,120,10.0,116.0
6151,82.0,0,120,11.0,92.0
6152,53.0,0,156,14.0,105.0
6153,89.0,0,156,0.0,92.0
6154,74.0,0,156,1.0,92.0
6155,62.0,0,156,2.0,92.0
6156,65.0,0,156,2.0,92.0
6157,65.0,0,156,13.0,105.0
6158,77.0,0,156,1.0,92.0
6159,70.0,0,156,12.0,105.0
6160,46.0,0,48,5.0,105.0
6161,58.0,0,192,3.0,92.0
6162,46.0,0,192,3.0,92.0
6163,70.0,0,192,4.0,105.0
6164,58.0,0,192,4.0,105.0
6165,85.0,60,96,10.0,116.0
6166,81.0,0,96,11.0,92.0
6167,46.0,60,48,5.0,105.0
6168,46.0,0,48,5.0,105.0
6169,46.0,60,48,5.0,105.0
6170,86.0,0,120,10.0,116.0
6171,82.0,0,120,11.0,92.0
6172,41.0,0,156,14.0,105.0
6173,89.0,0,156,0.0,92.0
6174,62.0,0,156,2.0,92.0
6175,65.0,60,156,12.0,105.0
6176,77.0,0,156,1.0,92.0
6177,74.0,0,156,1.0,92.0
6178,65.0,0,156,2.0,92.0
6179,53.0,0,156,13.0,105.0
6180,46.0,60,48,5.0,105.0
6181,46.0,0,192,3.0,92.0
6182,58.0,0,192,3.0,92.0
6183,70.0,0,192,4.0,105.0
6184,58.0,0,192,4.0,105.0
6185,46.0,60,48,5.0,105.0
6186,85.0,0,120,10.0,116.0
6187,81.0,0,120,11.0,92.0
6188,46.0,0,48,5.0,105.0
6189,46.0,60,48,5.0,105.0
6190,86.0,0,120,10.0,116.0
6191,82.0,0,120,11.0,92.0
6192,65.0,0,156,2.0,92.0
6193,74.0,0,156,1.0,92.0
6194,62.0,0,156,2.0,92.0
6195,77.0,0,156,1.0,92.0
6196,89.0,0,156,0.0,92.0
6197,46.0,0,156,14.0,105.0
6198,70.0,0,156,12.0,105.0
6199,58.0,0,156,13.0,105.0
6200,46.0,0,48,5.0,105.0
6201,58.0,60,192,3.0,92.0
6202,46.0,0,192,3.0,92.0
6203,70.0,0,192,4.0,105.0
6204,58.0,0,192,4.0,105.0
6205,46.0,60,48,5.0,105.0
6206,85.0,60,120,10.0,116.0
6207,81.0,0,120,11.0,92.0
6208,46.0,0,48,5.0,105.0
6209,46.0,60,48,5.0,105.0
6210,86.0,60,120,10.0,116.0
6211,82.0,0,120,11.0,92.0
6212,74.0,0,156,12.0,105.0
6213,62.0,0,156,13.0,105.0
6214,65.0,0,156,2.0,92.0
6215,62.0,0,156,2.0,92.0
6216,50.0,0,156,14.0,105.0
6217,77.0,0,156,1.0,92.0
6218,74.0,0,156,1.0,92.0
6219,89.0,0,156,0.0,92.0
6220,46.0,0,48,5.0,105.0
6221,58.0,0,192,3.0,92.0
6222,70.0,0,192,4.0,105.0
6223,58.0,0,192,4.0,105.0
6224,46.0,0,192,3.0,92.0
6225,46.0,60,48,5.0,105.0
6226,81.0,0,120,11.0,92.0
6227,85.0,60,120,10.0,116.0
6228,46.0,0,48,5.0,105.0
6229,46.0,60,48,5.0,105.0
6230,86.0,0,120,10.0,116.0
6231,82.0,0,120,11.0,92.0
6232,77.0,0,156,1.0,92.0
6233,74.0,0,156,1.0,92.0
6234,70.0,0,156,12.0,105.0
6235,89.0,0,156,0.0,92.0
6236,65.0,0,156,13.0,105.0
6237,53.0,0,156,14.0,105.0
6238,65.0,0,156,2.0,92.0
6239,62.0,0,156,2.0,92.0
6240,46.0,0,48,5.0,105.0
6241,58.0,0,192,4.0,105.0
6242,70.0,0,192,4.0,105.0
6243,58.0,60,192,3.0,92.0
6244,46.0,0,192,3.0,92.0
6245,81.0,0,96,11.0,92.0
6246,85.0,60,96,10.0,116.0
6247,46.0,60,48,5.0,105.0
6248,86.0,0,96,10.0,116.0
6249,82.0,0,96,11.0,92.0
6250,81.0,0,96,11.0,92.0
6251,84.0,120,96,10.0,116.0
6252,82.0,0,96,10.0,116.0
6253,79.0,120,96,11.0,92.0
6254,58.0,0,384,4.0,105.0
6255,70.0,60,384,4.0,105.0
6256,46.0,0,384,5.0,105.0
6257,62.0,0,384,2.0,92.0
6258,65.0,0,384,2.0,92.0
6259,77.0,0,384,1.0,92.0
6260,65.0,0,384,12.0,105.0
6261,53.0,0,384,13.0,105.0
6262,58.0,0,384,3.0,92.0
6263,46.0,0,384,3.0,92.0
6264,74.0,0,384,1.0,92.0
6265,89.0,0,384,0.0,92.0
6266,41.0,0,384,14.0,105.0
6267,81.0,0,96,10.0,116.0
6268,77.0,120,96,11.0,92.0
6269,79.0,120,96,10.0,116.0
6270,75.0,0,96,11.0,92.0
6271,77.0,120,96,10.0,116.0
6272,74.0,0,96,11.0,92.0
6273,75.0,120,96,10.0,116.0
6274,72.0,0,96,11.0,92.0
6275,74.0,120,96,10.0,116.0
6276,70.0,0,96,11.0,92.0
6277,82.0,0,96,11.0,92.0
6278,86.0,0,96,10.0,116.0
6279,84.0,0,96,10.0,116.0
6280,81.0,120,96,11.0,92.0
6281,79.0,0,96,11.0,92.0
6282,82.0,120,96,10.0,116.0
6283,46.0,120,384,5.0,105.0
6284,41.0,0,384,14.0,105.0
6285,53.0,0,384,13.0,105.0
6286,58.0,0,384,4.0,105.0
6287,65.0,0,384,12.0,105.0
6288,62.0,0,384,2.0,92.0
6289,89.0,0,384,0.0,92.0
6290,46.0,0,384,3.0,92.0
6291,70.0,0,384,4.0,105.0
6292,77.0,0,384,1.0,92.0
6293,74.0,0,384,1.0,92.0
6294,58.0,0,384,3.0,92.0
6295,65.0,0,384,2.0,92.0
6296,81.0,120,96,10.0,116.0
6297,77.0,0,96,11.0,92.0
6298,75.0,0,96,11.0,92.0
6299,79.0,120,96,10.0,116.0
6300,74.0,120,96,11.0,92.0
6301,77.0,0,96,10.0,116.0
6302,75.0,0,96,10.0,116.0
6303,72.0,120,96,11.0,92.0
6304,74.0,120,96,10.0,116.0
6305,70.0,0,96,11.0,92.0
6306,58.0,0,384,3.0,92.0
6307,46.0,0,384,3.0,92.0
6308,89.0,0,384,0.0,92.0
6309,86.0,0,384,10.0,116.0
6310,41.0,120,384,14.0,105.0
6311,70.0,0,384,4.0,105.0
6312,58.0,0,384,4.0,105.0
6313,62.0,0,384,2.0,92.0
6314,65.0,0,384,2.0,92.0
6315,77.0,0,384,1.0,92.0
6316,53.0,0,384,13.0,105.0
6317,46.0,0,384,5.0,105.0
6318,74.0,0,384,1.0,92.0
6319,82.0,0,384,11.0,92.0
6320,65.0,0,384,12.0,105.0
6321,74.0,720,72,1.0,58.0
6322,75.0,120,72,1.0,80.0
6323,63.0,960,960,11.0,58.0
6324,69.0,0,960,10.0,58.0
6325,41.0,0,960,14.0,58.0
6326,60.0,0,960,12.0,58.0
6327,53.0,0,960,13.0,58.0
6328,77.0,120,120,1.0,80.0
6329,75.0,120,72,1.0,80.0
6330,74.0,120,72,1.0,80.0
6331,72.0,120,72,1.0,80.0
6332,71.0,120,144,1.0,80.0
6333,63.0,240,72,2.0,58.0
6334,75.0,0,72,0.0,58.0
6335,65.0,120,72,2.0,70.0
6336,77.0,0,72,0.0,70.0
6337,62.0,0,960,11.0,58.0
6338,55.0,0,960,13.0,58.0
6339,43.0,0,960,14.0,58.0
6340,65.0,0,960,12.0,58.0
6341,71.0,0,960,10.0,58.0
6342,67.0,0,120,2.0,70.0
6343,79.0,0,120,0.0,70.0
6344,77.0,0,72,0.0,70.0
6345,65.0,120,72,2.0,70.0
6346,75.0,0,72,0.0,70.0
6347,63.0,120,72,2.0,70.0
6348,62.0,120,72,2.0,70.0
6349,74.0,0,72,0.0,70.0
6350,60.0,120,144,2.0,70.0
6351,72.0,0,144,0.0,70.0
6352,72.0,240,72,1.0,80.0
6353,60.0,0,72,2.0,70.0
6354,67.0,0,1872,3.0,58.0
6355,62.0,0,72,2.0,70.0
6356,74.0,120,72,1.0,80.0
6357,72.0,0,960,10.0,58.0
6358,48.0,0,960,13.0,58.0
6359,36.0,0,960,14.0,58.0
6360,63.0,120,120,2.0,70.0
6361,75.0,0,120,1.0,80.0
6362,62.0,0,72,2.0,70.0
6363,74.0,120,72,1.0,80.0
6364,72.0,0,72,1.0,80.0
6365,60.0,120,72,2.0,70.0
6366,70.0,0,72,1.0,80.0
6367,58.0,120,72,2.0,70.0
6368,57.0,120,144,2.0,70.0
6369,69.0,0,144,1.0,80.0
6370,86.0,240,72,0.0,70.0
6371,74.0,0,72,1.0,80.0
6372,75.0,120,72,1.0,80.0
6373,87.0,0,72,0.0,70.0
6374,63.0,0,1920,12.0,58.0
6375,53.0,0,960,13.0,58.0
6376,60.0,120,1920,11.0,58.0
6377,41.0,0,960,14.0,58.0
6378,69.0,0,960,10.0,58.0
6379,89.0,120,120,0.0,70.0
6380,77.0,0,120,1.0,80.0
6381,46.0,0,192,13.0,58.0
6382,62.0,0,192,12.0,58.0
6383,70.0,0,192,10.0,58.0
6384,75.0,0,72,1.0,80.0
6385,58.0,0,192,11.0,58.0
6386,87.0,120,72,0.0,70.0
6387,34.0,0,192,14.0,58.0
6388,86.0,120,72,0.0,70.0
6389,74.0,0,72,1.0,80.0
6390,84.0,120,72,0.0,70.0
6391,72.0,0,72,1.0,80.0
6392,65.0,0,1416,3.0,58.0
6393,70.0,120,132,1.0,80.0
6394,82.0,0,132,0.0,70.0
6395,62.0,0,192,10.0,58.0
6396,55.0,0,192,12.0,58.0
6397,55.0,0,192,13.0,58.0
6398,58.0,0,192,11.0,58.0
6399,43.0,0,192,14.0,58.0
6400,74.0,240,132,1.0,80.0
6401,86.0,0,132,0.0,70.0
6402,84.0,0,132,0.0,70.0
6403,72.0,0,132,1.0,80.0
6404,60.0,240,192,11.0,58.0
6405,39.0,0,192,14.0,58.0
6406,63.0,0,192,10.0,58.0
6407,55.0,0,192,12.0,58.0
6408,51.0,0,192,13.0,58.0
6409,75.0,240,132,1.0,80.0
6410,87.0,0,132,0.0,70.0
6411,69.0,0,132,1.0,80.0
6412,81.0,0,132,0.0,70.0
6413,51.0,240,192,12.0,58.0
6414,41.0,0,192,14.0,58.0
6415,53.0,0,192,13.0,58.0
6416,57.0,0,192,11.0,58.0
6417,60.0,0,192,10.0,58.0
6418,72.0,0,132,1.0,80.0
6419,84.0,240,132,0.0,70.0
6420,46.0,0,144,13.0,58.0
6421,34.0,0,144,14.0,58.0
6422,46.0,240,144,13.0,58.0
6423,34.0,0,144,14.0,58.0
6424,82.0,0,384,0.0,70.0
6425,70.0,0,384,1.0,80.0
6426,58.0,0,576,11.0,58.0
6427,50.0,0,576,12.0,58.0
6428,58.0,240,576,10.0,58.0
6429,46.0,240,144,13.0,58.0
6430,34.0,0,144,14.0,58.0
6431,74.0,0,78,11.0,58.0
6432,74.0,0,78,10.0,58.0
6433,62.0,0,96,12.0,58.0
6434,46.0,240,144,13.0,58.0
6435,34.0,0,144,14.0,58.0
6436,75.0,0,78,11.0,58.0
6437,75.0,0,78,10.0,58.0
6438,63.0,120,96,12.0,58.0
6439,77.0,0,120,11.0,58.0
6440,77.0,120,120,10.0,58.0
6441,65.0,0,120,12.0,58.0
6442,46.0,0,144,13.0,58.0
6443,34.0,0,144,14.0,58.0
6444,75.0,0,78,10.0,58.0
6445,75.0,0,78,11.0,58.0
6446,63.0,120,96,12.0,58.0
6447,74.0,0,78,11.0,58.0
6448,74.0,120,78,10.0,58.0
6449,62.0,0,96,12.0,58.0
6450,46.0,0,144,13.0,58.0
6451,34.0,0,144,14.0,58.0
6452,72.0,0,78,11.0,58.0
6453,72.0,120,78,10.0,58.0
6454,60.0,0,96,12.0,58.0
6455,34.0,120,144,14.0,58.0
6456,46.0,0,144,13.0,58.0
6457,70.0,0,156,10.0,58.0
6458,70.0,0,156,11.0,58.0
6459,58.0,0,192,12.0,58.0
6460,69.0,0,78,10.0,58.0
6461,69.0,240,78,11.0,58.0
6462,57.0,0,96,12.0,58.0
6463,34.0,0,144,14.0,58.0
6464,46.0,0,144,13.0,58.0
6465,70.0,120,78,10.0,58.0
6466,70.0,0,78,11.0,58.0
6467,58.0,0,96,12.0,58.0
6468,72.0,0,120,10.0,58.0
6469,60.0,0,120,12.0,58.0
6470,72.0,0,120,11.0,58.0
6471,34.0,0,144,14.0,58.0
6472,46.0,120,144,13.0,58.0
6473,70.0,0,78,11.0,58.0
6474,70.0,120,78,10.0,58.0
6475,58.0,0,96,12.0,58.0
6476,69.0,0,78,10.0,58.0
6477,69.0,0,78,11.0,58.0
6478,56.0,120,96,12.0,58.0
6479,34.0,0,144,14.0,58.0
6480,46.0,0,144,13.0,58.0
6481,67.0,0,78,11.0,58.0
6482,67.0,0,78,10.0,58.0
6483,55.0,120,96,12.0,58.0
6484,46.0,0,144,13.0,58.0
6485,34.0,0,144,14.0,58.0
6486,65.0,0,156,10.0,58.0
6487,65.0,120,156,11.0,58.0
6488,53.0,0,192,12.0,58.0
6489,67.0,240,78,10.0,58.0
6490,67.0,0,78,11.0,58.0
6491,55.0,0,96,12.0,58.0
6492,46.0,0,144,13.0,58.0
6493,34.0,0,144,14.0,58.0
6494,69.0,0,78,11.0,58.0
6495,69.0,120,78,10.0,58.0
6496,56.0,0,96,12.0,58.0
6497,34.0,0,144,14.0,58.0
6498,46.0,0,144,13.0,58.0
6499,70.0,0,144,11.0,58.0
6500,70.0,120,144,10.0,58.0
6501,58.0,0,192,12.0,58.0
6502,34.0,0,144,14.0,58.0
6503,46.0,0,144,13.0,58.0
6504,72.0,240,144,10.0,58.0
6505,69.0,0,144,11.0,58.0
6506,60.0,0,192,12.0,58.0
6507,57.0,0,192,12.0,58.0
6508,74.0,0,144,10.0,58.0
6509,46.0,0,144,13.0,58.0
6510,34.0,0,144,14.0,58.0
6511,70.0,240,144,11.0,58.0
6512,62.0,0,192,12.0,58.0
6513,58.0,0,192,12.0,58.0
6514,34.0,0,144,14.0,58.0
6515,72.0,240,144,11.0,58.0
6516,46.0,0,144,13.0,58.0
6517,75.0,0,144,10.0,58.0
6518,60.0,0,192,12.0,58.0
6519,63.0,0,192,12.0,58.0
6520,34.0,0,120,14.0,58.0
6521,46.0,240,120,13.0,58.0
6522,65.0,0,144,12.0,58.0
6523,74.0,0,144,11.0,58.0
6524,62.0,0,144,12.0,58.0
6525,77.0,0,144,10.0,58.0
6526,33.0,120,120,14.0,58.0
6527,45.0,0,120,13.0,58.0
6528,46.0,0,120,13.0,58.0
6529,58.0,0,120,12.0,58.0
6530,34.0,0,120,14.0,58.0
6531,58.0,120,120,11.0,58.0
6532,58.0,0,120,10.0,58.0
6533,62.0,0,480,2.0,70.0
6534,65.0,0,480,2.0,70.0
6535,57.0,0,120,11.0,58.0
6536,77.0,0,480,1.0,58.0
6537,57.0,0,120,12.0,58.0
6538,33.0,0,120,14.0,58.0
6539,57.0,0,120,10.0,58.0
6540,74.0,0,480,1.0,58.0
6541,45.0,120,120,13.0,58.0
6542,58.0,0,120,12.0,58.0
6543,58.0,120,120,11.0,58.0
6544,34.0,0,120,14.0,58.0
6545,58.0,0,120,10.0,58.0
6546,46.0,0,120,13.0,58.0
6547,57.0,120,120,11.0,58.0
6548,57.0,0,120,12.0,58.0
6549,57.0,0,120,10.0,58.0
6550,45.0,0,120,13.0,58.0
6551,33.0,0,120,14.0,58.0
6552,58.0,0,120,11.0,58.0
6553,58.0,0,120,12.0,58.0
6554,46.0,120,120,13.0,58.0
6555,58.0,0,120,10.0,58.0
6556,34.0,0,120,14.0,58.0
6557,45.0,0,96,13.0,58.0
6558,33.0,0,96,14.0,58.0
6559,63.0,0,480,2.0,70.0
6560,75.0,0,480,1.0,70.0
6561,79.0,0,480,1.0,70.0
6562,57.0,120,120,12.0,58.0
6563,57.0,0,120,10.0,58.0
6564,57.0,0,120,11.0,58.0
6565,67.0,0,480,2.0,70.0
6566,58.0,0,120,10.0,58.0
6567,34.0,0,120,14.0,58.0
6568,58.0,0,120,11.0,58.0
6569,58.0,0,120,12.0,58.0
6570,46.0,0,120,13.0,58.0
6571,45.0,0,120,13.0,58.0
6572,57.0,120,120,11.0,58.0
6573,33.0,0,120,14.0,58.0
6574,57.0,0,120,10.0,58.0
6575,57.0,0,120,12.0,58.0
6576,46.0,120,120,13.0,58.0
6577,58.0,0,120,10.0,58.0
6578,34.0,0,120,14.0,58.0
6579,58.0,0,120,12.0,58.0
6580,58.0,0,120,11.0,58.0
6581,57.0,0,120,12.0,58.0
6582,76.0,0,480,1.0,70.0
6583,73.0,0,480,1.0,70.0
6584,33.0,0,120,14.0,58.0
6585,61.0,0,480,2.0,70.0
6586,45.0,120,120,13.0,58.0
6587,64.0,120,480,2.0,70.0
6588,57.0,0,120,10.0,58.0
6589,57.0,0,120,11.0,58.0
6590,34.0,0,120,14.0,58.0
6591,58.0,0,120,12.0,58.0
6592,46.0,0,120,13.0,58.0
6593,58.0,0,120,10.0,58.0
6594,58.0,0,120,11.0,58.0
6595,45.0,0,120,13.0,58.0
6596,57.0,0,120,11.0,58.0
6597,33.0,120,120,14.0,58.0
6598,57.0,0,120,10.0,58.0
6599,57.0,0,120,12.0,58.0
6600,34.0,0,120,14.0,58.0
6601,58.0,120,120,11.0,58.0
6602,46.0,0,120,13.0,58.0
6603,58.0,0,120,12.0,58.0
6604,58.0,0,120,10.0,58.0
6605,58.0,0,5712,3.0,58.0
6606,46.0,0,5712,3.0,58.0
6607,33.0,0,96,14.0,58.0
6608,45.0,0,96,13.0,58.0
6609,74.0,120,480,1.0,70.0
6610,77.0,0,480,1.0,70.0
6611,57.0,0,120,12.0,58.0
6612,57.0,0,120,10.0,58.0
6613,65.0,0,480,2.0,70.0
6614,62.0,0,0,2.0,58.0
6615,57.0,120,120,11.0,58.0
6616,34.0,0,144,14.0,58.0
6617,46.0,0,144,13.0,58.0
6618,34.0,0,144,14.0,58.0
6619,46.0,240,144,13.0,58.0
6620,70.0,0,576,1.0,58.0
6621,74.0,0,576,1.0,58.0
6622,58.0,0,576,11.0,58.0
6623,58.0,0,576,10.0,58.0
6624,50.0,0,576,12.0,58.0
6625,58.0,0,576,2.0,70.0
6626,34.0,240,144,14.0,58.0
6627,46.0,0,144,13.0,58.0
6628,74.0,240,78,10.0,58.0
6629,74.0,0,78,11.0,58.0
6630,62.0,0,96,12.0,58.0
6631,34.0,0,144,14.0,58.0
6632,46.0,0,144,13.0,58.0
6633,75.0,120,78,11.0,58.0
6634,75.0,0,78,10.0,58.0
6635,63.0,0,96,12.0,58.0
6636,77.0,0,120,11.0,58.0
6637,65.0,120,120,12.0,58.0
6638,77.0,0,120,10.0,58.0
6639,46.0,0,144,13.0,58.0
6640,34.0,0,144,14.0,58.0
6641,75.0,120,78,11.0,58.0
6642,75.0,0,78,10.0,58.0
6643,63.0,0,96,12.0,58.0
6644,74.0,0,78,11.0,58.0
6645,74.0,0,78,10.0,58.0
6646,62.0,0,96,12.0,58.0
6647,46.0,120,144,13.0,58.0
6648,34.0,0,144,14.0,58.0
6649,72.0,0,78,11.0,58.0
6650,72.0,0,78,10.0,58.0
6651,60.0,120,96,12.0,58.0
6652,46.0,0,144,13.0,58.0
6653,34.0,0,144,14.0,58.0
6654,70.0,0,156,11.0,58.0
6655,70.0,120,156,10.0,58.0
6656,58.0,0,192,12.0,58.0
6657,69.0,0,78,10.0,58.0
6658,69.0,240,78,11.0,58.0
6659,57.0,0,96,12.0,58.0
6660,46.0,0,144,13.0,58.0
6661,34.0,0,144,14.0,58.0
6662,70.0,120,78,11.0,58.0
6663,70.0,0,78,10.0,58.0
6664,58.0,0,96,12.0,58.0
6665,60.0,0,120,12.0,58.0
6666,72.0,0,120,11.0,58.0
6667,72.0,0,120,10.0,58.0
6668,34.0,0,144,14.0,58.0
6669,46.0,120,144,13.0,58.0
6670,70.0,0,78,10.0,58.0
6671,70.0,0,78,11.0,58.0
6672,58.0,120,96,12.0,58.0
6673,69.0,0,78,10.0,58.0
6674,69.0,0,78,11.0,58.0
6675,56.0,120,96,12.0,58.0
6676,46.0,0,144,13.0,58.0
6677,34.0,0,144,14.0,58.0
6678,67.0,0,78,10.0,58.0
6679,67.0,120,78,11.0,58.0
6680,55.0,0,96,12.0,58.0
6681,34.0,0,144,14.0,58.0
6682,46.0,120,144,13.0,58.0
6683,65.0,0,156,11.0,58.0
6684,65.0,0,156,10.0,58.0
6685,53.0,0,192,12.0,58.0
6686,67.0,0,78,10.0,58.0
6687,67.0,0,78,11.0,58.0
6688,55.0,0,96,12.0,58.0
6689,34.0,240,144,14.0,58.0
6690,46.0,0,144,13.0,58.0
6691,69.0,0,78,11.0,58.0
6692,69.0,0,78,10.0,58.0
6693,56.0,120,96,12.0,58.0
6694,46.0,0,144,13.0,58.0
6695,34.0,0,144,14.0,58.0
6696,70.0,0,144,10.0,58.0
6697,70.0,0,144,11.0,58.0
6698,58.0,120,192,12.0,58.0
6699,34.0,240,144,14.0,58.0
6700,69.0,0,144,11.0,58.0
6701,46.0,0,144,13.0,58.0
6702,72.0,0,144,10.0,58.0
6703,57.0,0,192,12.0,58.0
6704,60.0,0,192,12.0,58.0
6705,74.0,0,144,10.0,58.0
6706,70.0,0,144,11.0,58.0
6707,46.0,0,144,13.0,58.0
6708,34.0,0,144,14.0,58.0
6709,58.0,0,192,12.0,58.0
6710,62.0,240,192,12.0,58.0
6711,75.0,0,144,10.0,58.0
6712,46.0,240,144,13.0,58.0
6713,34.0,0,144,14.0,58.0
6714,72.0,0,144,11.0,58.0
6715,63.0,0,192,12.0,58.0
6716,60.0,0,192,12.0,58.0
6717,46.0,0,120,13.0,58.0
6718,34.0,0,120,14.0,58.0
6719,74.0,240,144,11.0,58.0
6720,62.0,0,144,12.0,58.0
6721,65.0,0,144,12.0,58.0
6722,77.0,0,144,10.0,58.0
6723,33.0,0,120,14.0,58.0
6724,45.0,120,120,13.0,58.0
6725,46.0,0,120,13.0,58.0
6726,58.0,120,120,11.0,58.0
6727,58.0,0,120,10.0,58.0
6728,34.0,0,120,14.0,58.0
6729,58.0,0,120,12.0,58.0
6730,57.0,120,120,11.0,58.0
6731,57.0,0,120,12.0,58.0
6732,45.0,0,120,13.0,58.0
6733,33.0,0,120,14.0,58.0
6734,77.0,0,480,1.0,58.0
6735,74.0,0,480,1.0,58.0
6736,65.0,0,480,2.0,58.0
6737,62.0,0,480,2.0,58.0
6738,57.0,0,120,10.0,58.0
6739,34.0,0,120,14.0,58.0
6740,58.0,120,120,11.0,58.0
6741,46.0,0,120,13.0,58.0
6742,58.0,0,120,12.0,58.0
6743,58.0,0,120,10.0,58.0
6744,57.0,0,120,12.0,58.0
6745,33.0,120,120,14.0,58.0
6746,57.0,0,120,10.0,58.0
6747,57.0,0,120,11.0,58.0
6748,45.0,0,120,13.0,58.0
6749,46.0,0,120,13.0,58.0
6750,58.0,0,120,10.0,58.0
6751,34.0,0,120,14.0,58.0
6752,58.0,0,120,11.0,58.0
6753,58.0,120,120,12.0,58.0
6754,45.0,0,96,13.0,58.0
6755,33.0,0,96,14.0,58.0
6756,67.0,0,480,2.0,70.0
6757,57.0,0,120,11.0,58.0
6758,57.0,0,120,12.0,58.0
6759,57.0,120,120,10.0,58.0
6760,63.0,0,480,2.0,70.0
6761,79.0,0,480,1.0,70.0
6762,75.0,0,480,1.0,70.0
6763,46.0,0,120,13.0,58.0
6764,58.0,120,120,11.0,58.0
6765,34.0,0,120,14.0,58.0
6766,58.0,0,120,10.0,58.0
6767,58.0,0,120,12.0,58.0
6768,57.0,0,120,10.0,58.0
6769,45.0,0,120,13.0,58.0
6770,33.0,0,120,14.0,58.0
6771,57.0,120,120,11.0,58.0
6772,57.0,0,120,12.0,58.0
6773,58.0,0,120,11.0,58.0
6774,46.0,0,120,13.0,58.0
6775,34.0,0,120,14.0,58.0
6776,58.0,0,120,12.0,58.0
6777,58.0,120,120,10.0,58.0
6778,57.0,0,120,10.0,58.0
6779,57.0,0,120,12.0,58.0
6780,33.0,0,120,14.0,58.0
6781,64.0,0,480,2.0,70.0
6782,61.0,0,480,2.0,70.0
6783,57.0,120,120,11.0,58.0
6784,76.0,0,480,1.0,70.0
6785,73.0,0,480,1.0,70.0
6786,45.0,0,120,13.0,58.0
6787,58.0,0,120,11.0,58.0
6788,46.0,0,120,13.0,58.0
6789,58.0,120,120,12.0,58.0
6790,58.0,0,120,10.0,58.0
6791,34.0,0,120,14.0,58.0
6792,57.0,0,120,11.0,58.0
6793,33.0,120,120,14.0,58.0
6794,57.0,0,120,10.0,58.0
6795,57.0,0,120,12.0,58.0
6796,45.0,0,120,13.0,58.0
6797,34.0,0,120,14.0,58.0
6798,46.0,0,120,13.0,58.0
6799,58.0,0,120,12.0,58.0
6800,58.0,120,120,11.0,58.0
6801,58.0,0,120,10.0,58.0
6802,45.0,0,96,13.0,58.0
6803,33.0,0,96,14.0,58.0
6804,74.0,0,0,1.0,70.0
6805,77.0,0,480,1.0,70.0
6806,57.0,0,120,11.0,58.0
6807,65.0,0,480,2.0,70.0
6808,62.0,0,0,2.0,70.0
6809,57.0,120,120,10.0,58.0
6810,57.0,0,120,12.0,58.0
6811,70.0,0,144,1.0,70.0
6812,58.0,0,144,12.0,58.0
6813,58.0,0,144,11.0,58.0
6814,58.0,0,144,2.0,70.0
6815,46.0,0,144,13.0,58.0
6816,58.0,120,5904,3.0,58.0
6817,34.0,0,144,14.0,58.0
6818,58.0,120,144,10.0,58.0
6819,46.0,0,5904,3.0,58.0
6820,62.0,0,144,2.0,70.0
6821,70.0,0,144,1.0,70.0
6822,46.0,240,144,3.0,58.0
6823,58.0,0,144,3.0,58.0
6824,58.0,0,144,10.0,58.0
6825,46.0,0,144,13.0,58.0
6826,74.0,0,144,1.0,70.0
6827,58.0,0,144,2.0,70.0
6828,34.0,0,144,14.0,58.0
6829,58.0,0,144,12.0,58.0
6830,58.0,0,144,11.0,58.0
6831,86.0,0,480,0.0,58.0
6832,58.0,0,144,10.0,58.0
6833,46.0,0,144,3.0,58.0
6834,63.0,0,144,2.0,70.0
6835,67.0,0,144,2.0,70.0
6836,46.0,0,144,13.0,58.0
6837,58.0,0,144,12.0,58.0
6838,58.0,240,144,11.0,58.0
6839,34.0,0,144,14.0,58.0
6840,58.0,0,144,3.0,58.0
6841,79.0,0,144,1.0,70.0
6842,75.0,0,144,1.0,70.0
6843,58.0,0,144,11.0,58.0
6844,58.0,0,144,3.0,58.0
6845,46.0,0,144,3.0,58.0
6846,67.0,0,144,2.0,70.0
6847,63.0,0,144,2.0,70.0
6848,75.0,0,144,1.0,70.0
6849,34.0,240,144,14.0,58.0
6850,46.0,0,144,13.0,58.0
6851,58.0,0,144,10.0,58.0
6852,79.0,0,144,1.0,70.0
6853,58.0,0,144,12.0,58.0
6854,91.0,0,480,0.0,70.0
6855,76.0,0,144,1.0,70.0
6856,58.0,0,144,11.0,58.0
6857,58.0,0,144,10.0,58.0
6858,73.0,0,144,1.0,70.0
6859,46.0,0,144,3.0,58.0
6860,34.0,0,144,14.0,58.0
6861,61.0,0,144,2.0,70.0
6862,46.0,240,144,13.0,58.0
6863,58.0,0,144,3.0,58.0
6864,58.0,0,144,12.0,58.0
6865,64.0,0,144,2.0,70.0
6866,34.0,0,144,14.0,58.0
6867,58.0,0,144,12.0,58.0
6868,46.0,0,144,3.0,58.0
6869,58.0,0,144,3.0,58.0
6870,76.0,0,144,1.0,70.0
6871,61.0,240,144,2.0,70.0
6872,64.0,0,144,2.0,70.0
6873,73.0,0,144,1.0,70.0
6874,46.0,0,144,13.0,58.0
6875,58.0,0,144,11.0,58.0
6876,58.0,0,144,10.0,58.0
6877,88.0,0,480,0.0,70.0
6878,58.0,0,144,3.0,58.0
6879,74.0,240,144,1.0,70.0
6880,58.0,0,144,12.0,58.0
6881,77.0,0,144,1.0,70.0
6882,34.0,0,144,14.0,58.0
6883,58.0,0,144,11.0,58.0
6884,46.0,0,144,3.0,58.0
6885,62.0,0,144,2.0,70.0
6886,58.0,0,144,10.0,58.0
6887,46.0,0,144,13.0,58.0
6888,65.0,0,144,2.0,70.0
6889,34.0,0,144,14.0,58.0
6890,89.0,0,384,0.0,70.0
6891,58.0,0,144,3.0,58.0
6892,46.0,240,144,3.0,58.0
6893,62.0,0,144,2.0,70.0
6894,65.0,0,144,2.0,70.0
6895,58.0,0,144,10.0,58.0
6896,74.0,0,144,1.0,70.0
6897,77.0,0,144,1.0,70.0
6898,46.0,0,144,13.0,58.0
6899,58.0,0,144,12.0,58.0
6900,58.0,0,144,11.0,58.0
6901,82.0,0,96,10.0,116.0
6902,74.0,0,96,11.0,105.0
6903,58.0,0,156,13.0,58.0
6904,62.0,0,156,2.0,105.0
6905,58.0,0,156,2.0,105.0
6906,70.0,0,156,12.0,58.0
6907,46.0,0,156,14.0,58.0
6908,46.0,240,192,3.0,92.0
6909,58.0,0,192,3.0,92.0
6910,74.0,120,96,11.0,105.0
6911,82.0,0,96,10.0,116.0
6912,74.0,0,96,11.0,105.0
6913,82.0,0,96,10.0,116.0
6914,46.0,0,384,5.0,105.0
6915,58.0,0,384,4.0,105.0
6916,70.0,0,384,4.0,105.0
6917,46.0,120,156,14.0,105.0
6918,58.0,0,156,2.0,105.0
6919,58.0,0,156,13.0,105.0
6920,70.0,0,156,12.0,105.0
6921,58.0,0,192,3.0,92.0
6922,65.0,0,192,3.0,92.0
6923,82.0,0,96,10.0,116.0
6924,74.0,120,96,11.0,105.0
6925,74.0,0,96,11.0,105.0
6926,82.0,0,96,10.0,116.0
6927,43.0,0,156,14.0,105.0
6928,67.0,0,156,12.0,105.0
6929,55.0,120,156,2.0,105.0
6930,55.0,0,156,13.0,105.0
6931,67.0,0,192,3.0,92.0
6932,58.0,0,192,3.0,92.0
6933,74.0,120,96,11.0,105.0
6934,82.0,0,96,10.0,116.0
6935,74.0,0,96,11.0,105.0
6936,82.0,0,96,10.0,116.0
6937,55.0,0,156,2.0,105.0
6938,43.0,0,156,14.0,105.0
6939,67.0,0,156,12.0,105.0
6940,55.0,0,156,13.0,105.0
6941,67.0,0,192,3.0,92.0
6942,58.0,120,192,3.0,92.0
6943,82.0,0,96,10.0,116.0
6944,74.0,120,96,11.0,105.0
6945,74.0,0,960,1.0,92.0
6946,86.0,0,960,0.0,105.0
6947,82.0,0,96,10.0,116.0
6948,72.0,120,96,11.0,105.0
6949,51.0,0,156,13.0,105.0
6950,63.0,0,156,12.0,105.0
6951,39.0,0,156,14.0,105.0
6952,51.0,0,156,2.0,105.0
6953,58.0,0,192,3.0,92.0
6954,67.0,0,192,3.0,92.0
6955,82.0,120,96,10.0,116.0
6956,72.0,0,96,11.0,105.0
6957,72.0,0,96,11.0,105.0
6958,82.0,0,96,10.0,116.0
6959,39.0,0,156,14.0,105.0
6960,51.0,0,156,2.0,105.0
6961,51.0,0,156,13.0,105.0
6962,63.0,0,156,12.0,105.0
6963,58.0,120,192,3.0,92.0
6964,67.0,0,192,3.0,92.0
6965,82.0,0,96,10.0,116.0
6966,72.0,120,96,11.0,105.0
6967,70.0,0,1440,1.0,92.0
6968,81.0,120,96,10.0,116.0
6969,72.0,0,96,11.0,105.0
6970,65.0,0,156,12.0,105.0
6971,53.0,0,156,13.0,105.0
6972,41.0,0,156,14.0,105.0
6973,53.0,0,156,2.0,105.0
6974,65.0,0,192,3.0,92.0
6975,81.0,120,96,10.0,116.0
6976,72.0,0,96,11.0,105.0
6977,81.0,0,96,10.0,116.0
6978,72.0,120,96,11.0,105.0
6979,72.0,0,864,1.0,92.0
6980,69.0,0,384,1.0,92.0
6981,53.0,0,156,2.0,105.0
6982,65.0,0,156,12.0,105.0
6983,53.0,0,156,13.0,105.0
6984,41.0,0,156,14.0,105.0
6985,65.0,0,192,3.0,92.0
6986,81.0,0,96,10.0,116.0
6987,72.0,120,96,11.0,105.0
6988,84.0,0,960,0.0,105.0
6989,65.0,0,96,11.0,105.0
6990,74.0,120,96,11.0,105.0
6991,82.0,0,96,10.0,116.0
6992,74.0,0,156,1.0,92.0
6993,46.0,0,156,13.0,105.0
6994,58.0,0,156,12.0,105.0
6995,46.0,0,156,2.0,105.0
6996,70.0,0,156,1.0,92.0
6997,82.0,0,156,0.0,105.0
6998,34.0,0,156,14.0,105.0
6999,58.0,0,192,3.0,92.0
7000,65.0,0,192,3.0,92.0
7001,65.0,0,96,11.0,105.0
7002,74.0,0,96,11.0,105.0
7003,77.0,120,96,10.0,116.0
7004,74.0,0,96,10.0,116.0
7005,74.0,0,96,11.0,105.0
7006,65.0,0,96,11.0,105.0
7007,70.0,0,384,4.0,105.0
7008,77.0,0,384,4.0,105.0
7009,46.0,0,384,5.0,105.0
7010,58.0,0,156,2.0,105.0
7011,70.0,0,156,1.0,92.0
7012,86.0,0,156,0.0,105.0
7013,46.0,0,156,14.0,105.0
7014,74.0,0,156,1.0,92.0
7015,58.0,0,156,13.0,105.0
7016,70.0,0,156,12.0,105.0
7017,58.0,120,192,3.0,92.0
7018,65.0,0,192,3.0,92.0
7019,77.0,0,96,10.0,116.0
7020,74.0,0,96,11.0,105.0
7021,65.0,120,96,11.0,105.0
7022,65.0,0,96,11.0,105.0
7023,75.0,0,96,10.0,116.0
7024,72.0,0,96,11.0,105.0
7025,41.0,0,156,13.0,105.0
7026,87.0,0,156,0.0,105.0
7027,72.0,0,156,1.0,92.0
7028,69.0,120,156,1.0,92.0
7029,29.0,0,156,14.0,105.0
7030,53.0,0,156,12.0,105.0
7031,41.0,0,156,2.0,105.0
7032,65.0,0,192,3.0,92.0
7033,65.0,0,96,11.0,105.0
7034,77.0,120,96,10.0,116.0
7035,72.0,0,96,11.0,105.0
7036,81.0,0,96,10.0,116.0
7037,72.0,0,96,11.0,105.0
7038,65.0,0,96,11.0,105.0
7039,77.0,0,384,4.0,105.0
7040,53.0,0,156,2.0,105.0
7041,65.0,0,156,12.0,105.0
7042,41.0,0,156,14.0,105.0
7043,53.0,0,156,13.0,105.0
7044,75.0,0,156,1.0,92.0
7045,72.0,0,156,1.0,92.0
7046,84.0,0,156,0.0,105.0
7047,65.0,120,192,3.0,92.0
7048,65.0,0,96,11.0,105.0
7049,72.0,0,96,11.0,105.0
7050,77.0,120,96,10.0,116.0
7051,65.0,0,96,11.0,105.0
7052,74.0,0,96,11.0,105.0
7053,82.0,0,96,10.0,116.0
7054,34.0,0,156,14.0,105.0
7055,74.0,0,156,1.0,92.0
7056,70.0,0,156,1.0,92.0
7057,82.0,0,156,0.0,105.0
7058,58.0,0,156,12.0,105.0
7059,46.0,0,156,13.0,105.0
7060,46.0,0,156,2.0,105.0
7061,58.0,0,192,3.0,92.0
7062,65.0,120,192,3.0,92.0
7063,74.0,0,96,11.0,105.0
7064,77.0,0,96,10.0,116.0
7065,65.0,120,96,11.0,105.0
7066,74.0,0,96,10.0,116.0
7067,74.0,0,96,11.0,105.0
7068,65.0,120,96,11.0,105.0
7069,77.0,0,384,4.0,105.0
7070,70.0,0,384,4.0,105.0
7071,46.0,0,384,5.0,105.0
7072,46.0,0,156,14.0,105.0
7073,58.0,0,156,13.0,105.0
7074,86.0,0,156,0.0,105.0
7075,70.0,0,156,12.0,105.0
7076,74.0,0,156,1.0,92.0
7077,70.0,0,156,1.0,92.0
7078,58.0,0,156,2.0,105.0
7079,65.0,0,192,3.0,92.0
7080,58.0,0,192,3.0,92.0
7081,65.0,120,96,11.0,105.0
7082,74.0,0,96,11.0,105.0
7083,77.0,0,96,10.0,116.0
7084,65.0,0,96,11.0,105.0
7085,72.0,0,96,11.0,105.0
7086,75.0,0,96,10.0,116.0
7087,53.0,0,156,12.0,105.0
7088,41.0,0,156,13.0,105.0
7089,41.0,0,156,2.0,105.0
7090,72.0,0,156,1.0,92.0
7091,87.0,0,156,0.0,105.0
7092,29.0,0,156,14.0,105.0
7093,69.0,0,156,1.0,92.0
7094,65.0,0,192,3.0,92.0
7095,77.0,120,96,10.0,116.0
7096,65.0,0,96,11.0,105.0
7097,72.0,0,96,11.0,105.0
7098,65.0,0,96,11.0,105.0
7099,72.0,120,96,11.0,105.0
7100,81.0,0,96,10.0,116.0
7101,77.0,120,384,4.0,105.0
7102,53.0,0,156,13.0,105.0
7103,41.0,0,156,14.0,105.0
7104,75.0,0,156,1.0,92.0
7105,72.0,0,156,1.0,92.0
7106,53.0,0,156,2.0,105.0
7107,65.0,0,156,12.0,105.0
7108,84.0,0,156,0.0,105.0
7109,65.0,0,192,3.0,92.0
7110,77.0,0,96,10.0,116.0
7111,65.0,0,96,11.0,105.0
7112,72.0,120,96,11.0,105.0
7113,70.0,0,144,1.0,92.0
7114,74.0,0,144,1.0,92.0
7115,34.0,0,144,14.0,105.0
7116,58.0,0,144,12.0,105.0
7117,46.0,0,144,2.0,105.0
7118,46.0,0,144,13.0,105.0
7119,77.0,0,144,4.0,105.0
7120,58.0,0,144,3.0,92.0
7121,70.0,120,144,4.0,105.0
7122,82.0,0,144,10.0,127.0
7123,74.0,0,144,11.0,105.0
7124,82.0,0,144,0.0,105.0
7125,65.0,0,144,11.0,105.0
7126,65.0,0,144,3.0,92.0
7127,58.0,0,72,11.0,105.0
7128,58.0,0,72,10.0,105.0
7129,46.0,0,144,3.0,92.0
7130,58.0,0,144,2.0,105.0
7131,58.0,0,144,4.0,92.0
7132,70.0,0,144,4.0,92.0
7133,46.0,0,384,5.0,105.0
7134,58.0,0,144,13.0,105.0
7135,70.0,0,144,12.0,105.0
7136,70.0,0,144,0.0,105.0
7137,46.0,240,144,14.0,105.0
7138,58.0,0,144,3.0,92.0
7139,70.0,0,144,1.0,92.0
7140,58.0,120,72,10.0,105.0
7141,58.0,0,72,11.0,105.0
7142,70.0,0,144,4.0,92.0
7143,46.0,120,144,3.0,92.0
7144,58.0,0,144,3.0,92.0
7145,34.0,0,144,14.0,105.0
7146,58.0,0,144,12.0,105.0
7147,70.0,0,144,1.0,92.0
7148,70.0,0,144,0.0,105.0
7149,46.0,0,144,13.0,105.0
7150,46.0,0,144,2.0,105.0
7151,58.0,0,144,10.0,105.0
7152,58.0,0,144,11.0,105.0
7153,58.0,0,144,4.0,92.0
7154,70.0,0,144,0.0,105.0
7155,34.0,0,144,14.0,105.0
7156,46.0,240,144,13.0,105.0
7157,58.0,0,144,12.0,105.0
7158,46.0,0,144,2.0,105.0
7159,46.0,0,144,3.0,92.0
7160,70.0,0,144,1.0,92.0
7161,58.0,0,144,3.0,92.0
7162,58.0,0,144,11.0,105.0
7163,70.0,0,144,4.0,92.0
7164,46.0,0,384,5.0,92.0
7165,58.0,0,144,4.0,92.0
7166,58.0,0,144,10.0,105.0
7167,58.0,0,384,10.0,105.0
7168,70.0,0,384,0.0,92.0
7169,46.0,0,384,13.0,105.0
7170,70.0,0,384,4.0,92.0
7171,46.0,0,384,2.0,92.0
7172,46.0,0,384,5.0,92.0
7173,58.0,0,384,12.0,105.0
7174,34.0,0,384,14.0,105.0
7175,70.0,0,384,1.0,92.0
7176,46.0,0,384,3.0,92.0
7177,58.0,0,384,3.0,92.0
7178,58.0,0,384,11.0,105.0
7179,58.0,240,384,4.0,92.0
7180,59.0,0,78,10.0,105.0
7181,59.0,0,78,11.0,105.0
7182,59.0,720,78,12.0,105.0
7183,35.0,0,78,14.0,105.0
7184,47.0,0,78,13.0,105.0
7185,48.0,0,78,13.0,105.0
7186,36.0,0,78,14.0,105.0
7187,60.0,0,78,11.0,105.0
7188,60.0,120,78,12.0,105.0
7189,60.0,0,78,10.0,105.0
7190,62.0,0,120,11.0,105.0
7191,62.0,0,120,12.0,105.0
7192,50.0,120,120,13.0,105.0
7193,62.0,0,120,10.0,105.0
7194,38.0,0,120,14.0,105.0
7195,48.0,120,78,13.0,105.0
7196,36.0,0,78,14.0,105.0
7197,60.0,0,78,10.0,105.0
7198,60.0,0,78,12.0,105.0
7199,60.0,0,78,11.0,105.0
7200,59.0,0,78,11.0,105.0
7201,59.0,0,78,12.0,105.0
7202,47.0,120,78,13.0,105.0
7203,59.0,0,78,10.0,105.0
7204,35.0,0,78,14.0,105.0
7205,67.0,0,384,4.0,92.0
7206,77.0,0,384,4.0,92.0
7207,74.0,0,384,1.0,92.0
7208,77.0,0,384,1.0,92.0
7209,83.0,0,384,0.0,92.0
7210,53.0,0,384,2.0,92.0
7211,59.0,0,384,2.0,92.0
7212,55.0,0,384,3.0,92.0
7213,65.0,0,384,3.0,92.0
7214,45.0,120,78,13.0,105.0
7215,33.0,0,78,14.0,105.0
7216,57.0,0,78,11.0,105.0
7217,57.0,0,78,12.0,105.0
7218,57.0,0,78,10.0,105.0
7219,55.0,120,156,12.0,105.0
7220,55.0,0,156,11.0,105.0
7221,55.0,0,156,10.0,105.0
7222,31.0,0,156,14.0,105.0
7223,43.0,0,156,13.0,105.0
7224,62.0,240,78,13.0,105.0
7225,74.0,0,78,11.0,105.0
7226,74.0,0,78,10.0,105.0
7227,74.0,0,78,12.0,105.0
7228,50.0,0,78,14.0,105.0
7229,75.0,0,78,10.0,105.0
7230,75.0,120,78,12.0,105.0
7231,75.0,0,78,11.0,105.0
7232,63.0,0,78,13.0,105.0
7233,51.0,0,78,14.0,105.0
7234,77.0,0,120,12.0,105.0
7235,65.0,0,120,13.0,105.0
7236,77.0,0,120,11.0,105.0
7237,77.0,0,120,10.0,105.0
7238,53.0,120,120,14.0,105.0
7239,75.0,120,78,12.0,105.0
7240,75.0,0,78,10.0,105.0
7241,51.0,0,78,14.0,105.0
7242,63.0,0,78,13.0,105.0
7243,75.0,0,78,11.0,105.0
7244,62.0,0,78,13.0,105.0
7245,50.0,0,78,14.0,105.0
7246,74.0,120,78,12.0,105.0
7247,74.0,0,78,10.0,105.0
7248,74.0,0,78,11.0,105.0
7249,74.0,0,384,1.0,92.0
7250,77.0,0,384,4.0,105.0
7251,67.0,0,384,4.0,105.0
7252,59.0,0,384,2.0,92.0
7253,65.0,0,384,2.0,92.0
7254,65.0,0,384,3.0,92.0
7255,89.0,0,384,0.0,92.0
7256,83.0,0,384,1.0,92.0
7257,55.0,0,384,3.0,92.0
7258,72.0,0,78,10.0,105.0
7259,60.0,0,78,13.0,105.0
7260,48.0,120,78,14.0,105.0
7261,72.0,0,78,11.0,105.0
7262,72.0,0,78,12.0,105.0
7263,59.0,0,156,13.0,105.0
7264,71.0,0,156,12.0,105.0
7265,71.0,0,156,11.0,105.0
7266,71.0,0,156,10.0,105.0
7267,47.0,120,156,14.0,105.0
7268,72.0,2160,78,10.0,70.0
7269,73.0,120,78,10.0,70.0
7270,60.0,0,120,11.0,58.0
7271,75.0,120,120,10.0,70.0
7272,73.0,120,78,10.0,70.0
7273,63.0,0,120,11.0,58.0
7274,72.0,120,78,10.0,70.0
7275,60.0,0,120,11.0,58.0
7276,70.0,0,78,10.0,70.0
7277,63.0,120,120,11.0,58.0
7278,60.0,0,120,11.0,58.0
7279,68.0,120,144,10.0,70.0
7280,63.0,120,120,11.0,58.0
7281,60.0,120,120,11.0,58.0
7282,70.0,0,144,10.0,70.0
7283,63.0,120,72,11.0,78.0
7284,61.0,120,120,11.0,58.0
7285,63.0,120,120,11.0,58.0
7286,61.0,120,120,11.0,58.0
7287,63.0,120,120,11.0,58.0
7288,63.0,0,576,10.0,70.0
7289,61.0,120,120,11.0,58.0
7290,63.0,120,120,11.0,58.0
7291,65.0,0,78,10.0,70.0
7292,61.0,120,120,11.0,58.0
7293,63.0,120,72,11.0,78.0
7294,67.0,0,78,10.0,70.0
7295,68.0,0,120,10.0,70.0
7296,60.0,120,120,11.0,58.0
7297,67.0,120,78,10.0,70.0
7298,63.0,0,120,11.0,58.0
7299,65.0,120,78,10.0,70.0
7300,60.0,0,120,11.0,58.0
7301,63.0,0,78,10.0,70.0
7302,63.0,120,120,11.0,58.0
7303,61.0,120,78,10.0,70.0
7304,55.0,0,120,11.0,58.0
7305,60.0,120,78,10.0,70.0
7306,63.0,0,120,11.0,58.0
7307,61.0,120,78,10.0,70.0
7308,55.0,0,120,11.0,58.0
7309,63.0,120,72,11.0,78.0
7310,63.0,0,78,10.0,70.0
7311,56.0,0,120,11.0,58.0
7312,63.0,120,120,11.0,58.0
7313,56.0,120,120,11.0,58.0
7314,63.0,120,120,11.0,58.0
7315,56.0,120,120,11.0,58.0
7316,63.0,120,120,11.0,58.0
7317,56.0,120,120,11.0,58.0
7318,60.0,120,912,10.0,70.0
7319,63.0,120,72,11.0,78.0
7320,56.0,0,384,11.0,58.0
7321,83.0,0,960,0.0,58.0
7322,44.0,0,960,2.0,58.0
7323,56.0,0,960,2.0,58.0
7324,59.0,0,1536,10.0,58.0
7325,80.0,720,72,10.0,58.0
7326,81.0,120,72,10.0,116.0
7327,75.0,120,1920,1.0,58.0
7328,81.0,0,960,0.0,70.0
7329,54.0,0,960,2.0,70.0
7330,42.0,960,960,2.0,70.0
7331,71.0,0,0,1.0,58.0
7332,64.0,0,96,12.0,105.0
7333,59.0,0,96,11.0,58.0
7334,68.0,120,96,11.0,58.0
7335,83.0,0,120,10.0,127.0
7336,80.0,0,132,0.0,70.0
7337,76.0,0,132,1.0,58.0
7338,52.0,0,132,2.0,70.0
7339,40.0,0,132,2.0,70.0
7340,81.0,0,72,10.0,116.0
7341,68.0,0,96,11.0,105.0
7342,64.0,120,96,12.0,105.0
7343,59.0,0,96,11.0,105.0
7344,80.0,0,72,10.0,116.0
7345,59.0,0,96,11.0,105.0
7346,64.0,0,96,12.0,105.0
7347,68.0,0,96,11.0,105.0
7348,83.0,0,132,0.0,92.0
7349,71.0,0,132,1.0,92.0
7350,64.0,120,132,3.0,92.0
7351,68.0,0,132,3.0,92.0
7352,52.0,0,132,2.0,92.0
7353,76.0,0,132,1.0,92.0
7354,40.0,0,132,2.0,92.0
7355,78.0,0,72,10.0,116.0
7356,59.0,120,96,11.0,105.0
7357,68.0,0,96,11.0,105.0
7358,64.0,0,96,12.0,105.0
7359,68.0,0,96,11.0,105.0
7360,64.0,0,96,12.0,105.0
7361,59.0,120,96,11.0,105.0
7362,71.0,0,132,1.0,92.0
7363,40.0,0,132,2.0,92.0
7364,52.0,0,132,2.0,92.0
7365,68.0,0,132,3.0,92.0
7366,64.0,0,132,3.0,92.0
7367,83.0,0,132,0.0,92.0
7368,76.0,0,132,1.0,92.0
7369,76.0,0,144,10.0,116.0
7370,64.0,0,96,12.0,105.0
7371,59.0,120,96,11.0,105.0
7372,68.0,0,96,11.0,105.0
7373,39.0,0,72,14.0,116.0
7374,51.0,0,72,13.0,116.0
7375,59.0,0,96,11.0,105.0
7376,64.0,0,96,12.0,105.0
7377,68.0,120,96,11.0,105.0
7378,78.0,0,144,10.0,116.0
7379,40.0,0,72,14.0,116.0
7380,52.0,0,72,13.0,116.0
7381,68.0,0,96,11.0,105.0
7382,59.0,120,96,11.0,105.0
7383,64.0,0,96,12.0,105.0
7384,69.0,0,96,11.0,105.0
7385,59.0,0,96,11.0,105.0
7386,63.0,0,96,12.0,105.0
7387,42.0,0,120,14.0,127.0
7388,54.0,0,120,13.0,127.0
7389,40.0,0,72,14.0,116.0
7390,52.0,0,72,13.0,116.0
7391,63.0,0,96,12.0,105.0
7392,59.0,0,96,11.0,105.0
7393,69.0,120,96,11.0,105.0
7394,39.0,120,72,14.0,116.0
7395,51.0,0,72,13.0,116.0
7396,63.0,0,96,12.0,105.0
7397,59.0,0,96,11.0,105.0
7398,69.0,0,96,11.0,105.0
7399,47.0,0,144,2.0,92.0
7400,66.0,0,144,3.0,92.0
7401,75.0,0,144,1.0,92.0
7402,71.0,0,144,1.0,92.0
7403,35.0,0,144,2.0,92.0
7404,71.0,120,384,10.0,116.0
7405,83.0,0,144,0.0,92.0
7406,63.0,0,144,3.0,92.0
7407,37.0,0,72,14.0,116.0
7408,49.0,0,72,13.0,116.0
7409,69.0,0,96,11.0,105.0
7410,59.0,0,96,11.0,105.0
7411,63.0,120,96,12.0,105.0
7412,59.0,0,96,11.0,105.0
7413,69.0,0,96,11.0,105.0
7414,63.0,0,96,12.0,105.0
7415,66.0,0,144,3.0,92.0
7416,71.0,0,144,1.0,92.0
7417,47.0,0,144,2.0,92.0
7418,35.0,0,144,2.0,92.0
7419,47.0,0,144,13.0,116.0
7420,35.0,0,144,14.0,116.0
7421,83.0,0,144,0.0,92.0
7422,63.0,120,144,3.0,92.0
7423,75.0,0,144,1.0,92.0
7424,63.0,0,96,12.0,105.0
7425,69.0,120,96,11.0,105.0
7426,59.0,0,96,11.0,105.0
7427,79.0,0,72,10.0,116.0
7428,63.0,0,96,12.0,105.0
7429,59.0,0,96,11.0,105.0
7430,69.0,0,96,11.0,105.0
7431,47.0,0,144,14.0,116.0
7432,59.0,120,144,13.0,116.0
7433,81.0,0,72,10.0,116.0
7434,69.0,0,96,11.0,105.0
7435,59.0,0,96,11.0,105.0
7436,63.0,120,96,12.0,105.0
7437,59.0,0,96,11.0,105.0
7438,67.0,0,96,11.0,105.0
7439,64.0,0,96,12.0,105.0
7440,83.0,0,120,10.0,127.0
7441,81.0,120,72,10.0,116.0
7442,67.0,0,96,11.0,105.0
7443,59.0,0,96,11.0,105.0
7444,64.0,0,96,12.0,105.0
7445,79.0,0,72,10.0,116.0
7446,64.0,0,96,12.0,105.0
7447,59.0,0,96,11.0,105.0
7448,67.0,120,96,11.0,105.0
7449,52.0,0,384,13.0,116.0
7450,40.0,120,384,14.0,116.0
7451,64.0,0,144,3.0,92.0
7452,52.0,0,144,2.0,92.0
7453,67.0,0,144,3.0,92.0
7454,83.0,0,144,0.0,92.0
7455,71.0,0,144,1.0,92.0
7456,40.0,0,144,2.0,92.0
7457,76.0,0,144,1.0,92.0
7458,78.0,0,72,10.0,116.0
7459,67.0,120,96,11.0,105.0
7460,59.0,0,96,11.0,105.0
7461,64.0,0,96,12.0,105.0
7462,67.0,0,96,11.0,105.0
7463,64.0,0,96,12.0,105.0
7464,59.0,0,96,11.0,105.0
7465,76.0,0,144,1.0,92.0
7466,40.0,0,144,2.0,92.0
7467,83.0,0,144,0.0,92.0
7468,52.0,0,144,2.0,92.0
7469,76.0,0,144,10.0,116.0
7470,64.0,0,144,3.0,92.0
7471,67.0,0,144,3.0,92.0
7472,71.0,120,144,1.0,92.0
7473,67.0,0,96,11.0,105.0
7474,64.0,120,96,12.0,105.0
7475,59.0,0,96,11.0,105.0
7476,39.0,0,72,14.0,116.0
7477,51.0,0,72,13.0,116.0
7478,64.0,0,96,12.0,105.0
7479,67.0,120,96,11.0,105.0
7480,59.0,0,96,11.0,105.0
7481,78.0,0,144,10.0,116.0
7482,52.0,0,72,13.0,116.0
7483,40.0,120,72,14.0,116.0
7484,59.0,0,96,11.0,105.0
7485,64.0,0,96,12.0,105.0
7486,67.0,0,96,11.0,105.0
7487,69.0,120,96,11.0,105.0
7488,63.0,0,96,12.0,105.0
7489,59.0,0,96,11.0,105.0
7490,42.0,0,120,14.0,127.0
7491,54.0,0,120,13.0,127.0
7492,40.0,120,72,14.0,116.0
7493,52.0,0,72,13.0,116.0
7494,59.0,0,96,11.0,105.0
7495,69.0,0,96,11.0,105.0
7496,63.0,0,96,12.0,105.0
7497,39.0,0,72,14.0,116.0
7498,51.0,0,72,13.0,116.0
7499,63.0,0,96,12.0,105.0
7500,69.0,0,96,11.0,105.0
7501,59.0,0,96,11.0,105.0
7502,47.0,120,144,2.0,92.0
7503,66.0,0,144,3.0,92.0
7504,35.0,0,144,2.0,92.0
7505,63.0,0,144,3.0,92.0
7506,71.0,0,384,10.0,116.0
7507,83.0,0,144,0.0,92.0
7508,71.0,0,144,1.0,92.0
7509,75.0,0,144,1.0,92.0
7510,37.0,0,72,14.0,116.0
7511,49.0,0,72,13.0,116.0
7512,59.0,0,96,11.0,105.0
7513,63.0,120,96,12.0,105.0
7514,69.0,0,96,11.0,105.0
7515,59.0,0,96,11.0,105.0
7516,69.0,120,96,11.0,105.0
7517,63.0,0,96,12.0,105.0
7518,47.0,0,144,13.0,116.0
7519,66.0,0,144,3.0,92.0
7520,63.0,0,144,3.0,92.0
7521,47.0,0,144,2.0,92.0
7522,35.0,0,144,2.0,92.0
7523,83.0,0,144,0.0,92.0
7524,75.0,0,144,1.0,92.0
7525,35.0,0,144,14.0,116.0
7526,71.0,0,144,1.0,92.0
7527,69.0,120,96,11.0,105.0
7528,63.0,0,96,12.0,105.0
7529,59.0,0,96,11.0,105.0
7530,79.0,120,72,10.0,116.0
7531,63.0,0,96,12.0,105.0
7532,59.0,0,96,11.0,105.0
7533,69.0,0,96,11.0,105.0
7534,59.0,0,144,13.0,116.0
7535,47.0,0,144,14.0,116.0
7536,81.0,0,72,10.0,116.0
7537,63.0,0,96,12.0,105.0
7538,69.0,0,96,11.0,105.0
7539,59.0,120,96,11.0,105.0
7540,67.0,0,96,11.0,105.0
7541,59.0,0,96,11.0,105.0
7542,64.0,0,96,12.0,105.0
7543,83.0,0,120,10.0,127.0
7544,81.0,120,72,10.0,116.0
7545,67.0,0,96,11.0,105.0
7546,59.0,0,96,11.0,105.0
7547,64.0,0,96,12.0,105.0
7548,79.0,0,72,10.0,116.0
7549,64.0,0,96,12.0,105.0
7550,59.0,0,96,11.0,105.0
7551,67.0,0,96,11.0,105.0
7552,40.0,0,384,14.0,116.0
7553,83.0,120,144,0.0,92.0
7554,67.0,0,144,3.0,92.0
7555,64.0,0,144,3.0,92.0
7556,52.0,120,384,13.0,116.0
7557,71.0,0,144,1.0,92.0
7558,52.0,0,144,2.0,92.0
7559,40.0,0,144,2.0,92.0
7560,76.0,0,144,1.0,92.0
7561,78.0,0,72,10.0,116.0
7562,64.0,0,96,12.0,105.0
7563,67.0,0,96,11.0,105.0
7564,59.0,120,96,11.0,105.0
7565,67.0,0,96,11.0,105.0
7566,59.0,0,96,11.0,105.0
7567,64.0,0,96,12.0,105.0
7568,76.0,120,144,1.0,92.0
7569,83.0,0,144,0.0,92.0
7570,40.0,0,144,2.0,92.0
7571,52.0,0,144,2.0,92.0
7572,76.0,0,144,10.0,116.0
7573,71.0,0,144,1.0,92.0
7574,64.0,0,144,3.0,92.0
7575,67.0,0,144,3.0,92.0
7576,59.0,0,96,11.0,105.0
7577,64.0,0,96,12.0,105.0
7578,67.0,120,96,11.0,105.0
7579,38.0,0,72,14.0,116.0
7580,50.0,0,72,13.0,116.0
7581,64.0,0,96,12.0,105.0
7582,59.0,0,96,11.0,105.0
7583,67.0,120,96,11.0,105.0
7584,78.0,0,144,10.0,116.0
7585,40.0,0,72,14.0,116.0
7586,52.0,0,72,13.0,116.0
7587,64.0,0,96,12.0,105.0
7588,59.0,0,96,11.0,105.0
7589,67.0,120,96,11.0,105.0
7590,55.0,0,96,12.0,105.0
7591,62.0,0,96,12.0,105.0
7592,67.0,0,96,11.0,105.0
7593,59.0,0,96,11.0,105.0
7594,41.0,0,120,14.0,127.0
7595,53.0,0,120,13.0,127.0
7596,40.0,120,72,14.0,116.0
7597,52.0,0,72,13.0,116.0
7598,59.0,0,96,11.0,105.0
7599,67.0,0,96,11.0,105.0
7600,55.0,0,96,12.0,105.0
7601,62.0,0,96,12.0,105.0
7602,50.0,0,72,13.0,116.0
7603,38.0,0,72,14.0,116.0
7604,62.0,0,96,12.0,105.0
7605,55.0,0,96,12.0,105.0
7606,59.0,120,96,11.0,105.0
7607,67.0,0,96,11.0,105.0
7608,83.0,0,144,0.0,92.0
7609,71.0,0,384,10.0,116.0
7610,71.0,0,144,1.0,92.0
7611,67.0,0,144,3.0,92.0
7612,65.0,0,144,3.0,92.0
7613,38.0,0,144,2.0,92.0
7614,67.0,120,384,4.0,105.0
7615,50.0,0,144,2.0,92.0
7616,77.0,0,144,1.0,92.0
7617,36.0,120,72,14.0,116.0
7618,48.0,0,72,13.0,116.0
7619,55.0,0,96,12.0,105.0
7620,62.0,0,96,12.0,105.0
7621,67.0,0,96,11.0,105.0
7622,59.0,0,96,11.0,105.0
7623,62.0,0,96,12.0,105.0
7624,59.0,0,96,11.0,105.0
7625,67.0,0,96,11.0,105.0
7626,55.0,0,96,12.0,105.0
7627,47.0,0,144,13.0,116.0
7628,35.0,0,144,14.0,116.0
7629,77.0,0,144,1.0,92.0
7630,71.0,0,144,1.0,92.0
7631,83.0,0,144,0.0,92.0
7632,38.0,0,144,2.0,92.0
7633,67.0,0,144,3.0,92.0
7634,65.0,0,144,3.0,92.0
7635,50.0,0,144,2.0,92.0
7636,55.0,0,96,12.0,105.0
7637,62.0,0,96,12.0,105.0
7638,67.0,120,96,11.0,105.0
7639,59.0,0,96,11.0,105.0
7640,76.0,0,72,10.0,116.0
7641,62.0,0,96,12.0,105.0
7642,55.0,0,96,12.0,105.0
7643,67.0,0,96,11.0,105.0
7644,59.0,0,96,11.0,105.0
7645,43.0,120,144,14.0,116.0
7646,67.0,120,384,4.0,105.0
7647,55.0,0,144,13.0,116.0
7648,77.0,0,72,10.0,116.0
7649,59.0,0,96,11.0,105.0
7650,55.0,120,96,12.0,105.0
7651,62.0,0,96,12.0,105.0
7652,67.0,0,96,11.0,105.0
7653,60.0,0,96,11.0,105.0
7654,64.0,0,96,12.0,105.0
7655,55.0,120,96,12.0,105.0
7656,67.0,0,96,11.0,105.0
7657,79.0,0,120,10.0,127.0
7658,77.0,0,72,10.0,116.0
7659,64.0,120,96,12.0,105.0
7660,67.0,0,96,11.0,105.0
7661,60.0,0,96,11.0,105.0
7662,55.0,0,96,12.0,105.0
7663,76.0,0,72,10.0,116.0
7664,60.0,0,96,11.0,105.0
7665,67.0,0,96,11.0,105.0
7666,64.0,0,96,12.0,105.0
7667,55.0,120,96,12.0,105.0
7668,84.0,0,144,0.0,92.0
7669,67.0,0,144,3.0,92.0
7670,76.0,0,144,1.0,92.0
7671,40.0,0,384,14.0,116.0
7672,64.0,0,144,3.0,92.0
7673,36.0,0,144,2.0,92.0
7674,72.0,0,144,1.0,92.0
7675,52.0,0,384,13.0,116.0
7676,67.0,0,384,4.0,105.0
7677,48.0,0,144,2.0,92.0
7678,74.0,0,72,10.0,116.0
7679,60.0,120,96,11.0,105.0
7680,67.0,0,96,11.0,105.0
7681,64.0,0,96,12.0,105.0
7682,55.0,0,96,12.0,105.0
7683,60.0,0,96,11.0,105.0
7684,67.0,0,96,11.0,105.0
7685,64.0,0,96,12.0,105.0
7686,55.0,120,96,12.0,105.0
7687,72.0,0,144,1.0,92.0
7688,36.0,0,144,2.0,92.0
7689,48.0,0,144,2.0,92.0
7690,64.0,0,144,3.0,92.0
7691,67.0,0,144,3.0,92.0
7692,76.0,0,144,1.0,92.0
7693,72.0,0,144,10.0,116.0
7694,84.0,0,144,0.0,92.0
7695,55.0,120,96,12.0,105.0
7696,67.0,0,96,11.0,105.0
7697,60.0,0,96,11.0,105.0
7698,64.0,0,96,12.0,105.0
7699,35.0,0,72,14.0,116.0
7700,47.0,120,72,13.0,116.0
7701,60.0,0,96,11.0,105.0
7702,67.0,0,96,11.0,105.0
7703,55.0,0,96,12.0,105.0
7704,64.0,0,96,12.0,105.0
7705,74.0,0,144,10.0,116.0
7706,48.0,0,72,13.0,116.0
7707,36.0,0,72,14.0,116.0
7708,64.0,0,96,12.0,105.0
7709,60.0,0,96,11.0,105.0
7710,67.0,120,96,11.0,105.0
7711,55.0,0,96,12.0,105.0
7712,65.0,0,96,12.0,105.0
7713,55.0,120,96,12.0,105.0
7714,59.0,0,96,11.0,105.0
7715,67.0,0,96,11.0,105.0
7716,38.0,0,120,14.0,127.0
7717,50.0,0,120,13.0,127.0
7718,36.0,120,72,14.0,116.0
7719,48.0,0,72,13.0,116.0
7720,55.0,0,96,12.0,105.0
7721,65.0,0,96,12.0,105.0
7722,59.0,0,96,11.0,105.0
7723,67.0,0,96,11.0,105.0
7724,47.0,0,72,13.0,116.0
7725,35.0,0,72,14.0,116.0
7726,65.0,0,96,12.0,105.0
7727,67.0,0,96,11.0,105.0
7728,59.0,0,96,11.0,105.0
7729,55.0,0,96,12.0,105.0
7730,43.0,0,144,2.0,92.0
7731,65.0,0,144,3.0,92.0
7732,67.0,0,144,3.0,92.0
7733,71.0,120,144,1.0,92.0
7734,77.0,0,144,1.0,92.0
7735,86.0,0,144,0.0,92.0
7736,67.0,0,384,4.0,105.0
7737,55.0,0,144,2.0,92.0
7738,67.0,0,384,10.0,116.0
7739,45.0,0,72,13.0,116.0
7740,33.0,0,72,14.0,116.0
7741,67.0,0,96,11.0,105.0
7742,59.0,0,96,11.0,105.0
7743,55.0,120,96,12.0,105.0
7744,65.0,0,96,12.0,105.0
7745,67.0,0,96,11.0,105.0
7746,65.0,0,96,12.0,105.0
7747,59.0,0,96,11.0,105.0
7748,55.0,0,96,12.0,105.0
7749,71.0,0,144,1.0,92.0
7750,77.0,120,144,1.0,92.0
7751,86.0,0,144,0.0,92.0
7752,55.0,0,144,2.0,92.0
7753,43.0,0,144,2.0,92.0
7754,67.0,0,144,3.0,92.0
7755,65.0,0,144,3.0,92.0
7756,31.0,0,144,14.0,116.0
7757,43.0,0,144,13.0,116.0
7758,67.0,120,96,11.0,105.0
7759,65.0,0,96,12.0,105.0
7760,55.0,0,96,12.0,105.0
7761,59.0,0,96,11.0,105.0
7762,75.0,0,72,10.0,116.0
7763,67.0,0,96,11.0,105.0
7764,55.0,120,96,12.0,105.0
7765,59.0,0,96,11.0,105.0
7766,65.0,0,96,12.0,105.0
7767,43.0,0,144,14.0,116.0
7768,67.0,0,384,4.0,105.0
7769,55.0,0,144,13.0,116.0
7770,77.0,120,72,10.0,116.0
7771,55.0,0,96,12.0,105.0
7772,65.0,0,96,12.0,105.0
7773,67.0,0,96,11.0,105.0
7774,59.0,0,96,11.0,105.0
7775,67.0,0,96,11.0,105.0
7776,60.0,0,96,11.0,105.0
7777,55.0,0,96,12.0,105.0
7778,63.0,0,96,12.0,105.0
7779,79.0,0,120,10.0,127.0
7780,77.0,0,72,10.0,116.0
7781,55.0,0,96,12.0,105.0
7782,67.0,0,96,11.0,105.0
7783,63.0,0,96,12.0,105.0
7784,60.0,120,96,11.0,105.0
7785,75.0,0,72,10.0,116.0
7786,63.0,120,96,12.0,105.0
7787,60.0,0,96,11.0,105.0
7788,67.0,0,96,11.0,105.0
7789,55.0,0,96,12.0,105.0
7790,67.0,0,144,3.0,92.0
7791,48.0,0,144,2.0,92.0
7792,60.0,0,144,2.0,92.0
7793,63.0,0,144,3.0,92.0
7794,36.0,0,384,14.0,116.0
7795,67.0,0,384,4.0,105.0
7796,87.0,0,144,0.0,92.0
7797,48.0,120,384,13.0,116.0
7798,75.0,0,144,1.0,92.0
7799,72.0,0,144,1.0,92.0
7800,74.0,0,72,10.0,116.0
7801,55.0,0,96,12.0,105.0
7802,63.0,120,96,12.0,105.0
7803,67.0,0,96,11.0,105.0
7804,60.0,0,96,11.0,105.0
7805,60.0,0,96,11.0,105.0
7806,67.0,0,96,11.0,105.0
7807,55.0,0,96,12.0,105.0
7808,63.0,120,96,12.0,105.0
7809,87.0,0,144,0.0,92.0
7810,75.0,0,144,1.0,92.0
7811,72.0,0,144,10.0,116.0
7812,48.0,0,144,2.0,92.0
7813,60.0,0,144,2.0,92.0
7814,67.0,0,144,3.0,92.0
7815,63.0,0,144,3.0,92.0
7816,72.0,0,144,1.0,92.0
7817,63.0,0,96,12.0,105.0
7818,67.0,120,96,11.0,105.0
7819,60.0,0,96,11.0,105.0
7820,55.0,0,96,12.0,105.0
7821,59.0,120,72,13.0,116.0
7822,47.0,0,72,14.0,116.0
7823,60.0,0,96,11.0,105.0
7824,67.0,0,96,11.0,105.0
7825,55.0,0,96,12.0,105.0
7826,63.0,0,96,12.0,105.0
7827,74.0,0,144,10.0,116.0
7828,48.0,0,72,14.0,116.0
7829,60.0,0,72,13.0,116.0
7830,60.0,0,96,11.0,105.0
7831,55.0,120,96,12.0,105.0
7832,63.0,0,96,12.0,105.0
7833,67.0,0,96,11.0,105.0
7834,55.0,0,96,12.0,105.0
7835,65.0,0,96,12.0,105.0
7836,59.0,120,96,11.0,105.0
7837,67.0,0,96,11.0,105.0
7838,62.0,0,120,13.0,127.0
7839,50.0,0,120,14.0,127.0
7840,48.0,0,72,14.0,116.0
7841,60.0,0,72,13.0,116.0
7842,67.0,0,96,11.0,105.0
7843,59.0,0,96,11.0,105.0
7844,65.0,120,96,12.0,105.0
7845,55.0,0,96,12.0,105.0
7846,59.0,0,72,13.0,116.0
7847,47.0,120,72,14.0,116.0
7848,59.0,0,96,11.0,105.0
7849,65.0,0,96,12.0,105.0
7850,55.0,0,96,12.0,105.0
7851,67.0,0,96,11.0,105.0
7852,62.0,0,144,2.0,92.0
7853,74.0,0,144,1.0,92.0
7854,83.0,0,144,1.0,92.0
7855,59.0,0,144,2.0,92.0
7856,67.0,0,384,10.0,116.0
7857,67.0,0,384,4.0,105.0
7858,67.0,0,144,3.0,92.0
7859,65.0,0,144,3.0,92.0
7860,89.0,0,144,0.0,92.0
7861,45.0,120,72,14.0,116.0
7862,57.0,0,72,13.0,116.0
7863,67.0,0,96,11.0,105.0
7864,65.0,0,96,12.0,105.0
7865,59.0,0,96,11.0,105.0
7866,55.0,0,96,12.0,105.0
7867,67.0,0,96,11.0,105.0
7868,59.0,0,96,11.0,105.0
7869,65.0,0,96,12.0,105.0
7870,55.0,120,96,12.0,105.0
7871,43.0,0,144,14.0,116.0
7872,83.0,0,144,1.0,92.0
7873,55.0,0,144,13.0,116.0
7874,67.0,0,144,3.0,92.0
7875,74.0,0,144,1.0,92.0
7876,89.0,0,144,0.0,92.0
7877,65.0,0,144,3.0,92.0
7878,59.0,0,144,2.0,92.0
7879,62.0,0,144,2.0,92.0
7880,55.0,0,96,12.0,105.0
7881,65.0,0,96,12.0,105.0
7882,67.0,0,96,11.0,105.0
7883,59.0,120,96,11.0,105.0
7884,75.0,0,78,10.0,116.0
7885,55.0,120,96,12.0,105.0
7886,59.0,0,96,11.0,105.0
7887,67.0,0,96,11.0,105.0
7888,65.0,0,96,12.0,105.0
7889,55.0,0,144,14.0,116.0
7890,67.0,0,144,13.0,116.0
7891,67.0,0,384,4.0,105.0
7892,77.0,0,78,10.0,116.0
7893,59.0,0,96,11.0,105.0
7894,67.0,0,96,11.0,105.0
7895,65.0,120,96,12.0,105.0
7896,55.0,0,96,12.0,105.0
7897,79.0,0,120,10.0,116.0
7898,67.0,0,120,11.0,105.0
7899,63.0,0,156,12.0,105.0
7900,55.0,0,156,12.0,105.0
7901,63.0,0,156,13.0,116.0
7902,51.0,120,156,14.0,116.0
7903,77.0,120,78,10.0,116.0
7904,65.0,0,78,11.0,105.0
7905,60.0,0,78,13.0,105.0
7906,75.0,0,78,10.0,116.0
7907,63.0,0,78,11.0,105.0
7908,60.0,0,78,12.0,105.0
7909,48.0,120,78,14.0,105.0
7910,67.0,0,384,4.0,105.0
7911,51.0,0,384,5.0,92.0
7912,62.0,120,78,13.0,105.0
7913,50.0,0,78,14.0,105.0
7914,74.0,0,78,10.0,116.0
7915,62.0,0,78,12.0,105.0
7916,62.0,0,78,11.0,105.0
7917,51.0,0,120,14.0,105.0
7918,63.0,0,120,12.0,105.0
7919,63.0,0,120,13.0,105.0
7920,60.0,0,156,11.0,105.0
7921,72.0,120,156,10.0,116.0
7922,50.0,120,78,14.0,105.0
7923,62.0,0,78,12.0,105.0
7924,62.0,0,78,13.0,105.0
7925,67.0,0,768,3.0,92.0
7926,63.0,0,768,3.0,105.0
7927,80.0,0,78,10.0,116.0
7928,60.0,0,78,12.0,105.0
7929,48.0,0,78,14.0,105.0
7930,60.0,120,78,13.0,105.0
7931,68.0,0,78,11.0,105.0
7932,60.0,0,144,1.0,105.0
7933,48.0,0,144,2.0,105.0
7934,72.0,0,144,0.0,105.0
7935,72.0,0,144,1.0,105.0
7936,46.0,0,78,14.0,105.0
7937,70.0,0,78,11.0,105.0
7938,58.0,0,78,13.0,105.0
7939,58.0,0,78,12.0,105.0
7940,82.0,120,78,10.0,116.0
7941,84.0,0,120,10.0,116.0
7942,72.0,120,120,11.0,105.0
7943,56.0,0,156,13.0,105.0
7944,56.0,0,156,12.0,105.0
7945,44.0,0,156,14.0,105.0
7946,70.0,0,78,11.0,105.0
7947,82.0,120,78,10.0,116.0
7948,77.0,0,240,0.0,105.0
7949,65.0,0,240,1.0,105.0
7950,77.0,0,240,1.0,105.0
7951,53.0,0,240,2.0,105.0
7952,53.0,0,78,13.0,105.0
7953,53.0,0,78,12.0,105.0
7954,41.0,0,78,14.0,105.0
7955,80.0,120,78,10.0,116.0
7956,68.0,0,78,11.0,105.0
7957,80.0,0,144,0.0,105.0
7958,56.0,0,144,2.0,105.0
7959,68.0,0,144,1.0,105.0
7960,80.0,0,144,1.0,105.0
7961,77.0,0,384,4.0,105.0
7962,67.0,0,78,11.0,105.0
7963,55.0,0,78,12.0,105.0
7964,43.0,0,78,14.0,105.0
7965,79.0,0,78,10.0,116.0
7966,55.0,120,78,13.0,105.0
7967,56.0,0,120,13.0,105.0
7968,56.0,0,120,12.0,105.0
7969,44.0,0,120,14.0,105.0
7970,60.0,120,144,2.0,105.0
7971,84.0,0,144,0.0,105.0
7972,72.0,0,144,1.0,105.0
7973,84.0,0,144,1.0,105.0
7974,77.0,0,156,10.0,116.0
7975,65.0,0,156,11.0,105.0
7976,43.0,120,78,14.0,105.0
7977,55.0,0,78,13.0,105.0
7978,55.0,0,78,12.0,105.0
7979,65.0,0,768,3.0,105.0
7980,68.0,0,768,3.0,105.0
7981,74.0,120,78,10.0,116.0
7982,53.0,0,78,13.0,105.0
7983,62.0,0,78,11.0,105.0
7984,53.0,0,78,12.0,105.0
7985,41.0,0,78,14.0,105.0
7986,60.0,0,144,2.0,105.0
7987,84.0,0,144,1.0,105.0
7988,72.0,0,144,1.0,105.0
7989,84.0,0,144,0.0,105.0
7990,39.0,0,78,14.0,105.0
7991,51.0,0,78,12.0,105.0
7992,63.0,0,78,11.0,105.0
7993,75.0,0,78,10.0,116.0
7994,51.0,120,78,13.0,105.0
7995,65.0,0,120,11.0,105.0
7996,77.0,0,120,10.0,116.0
7997,38.0,0,156,14.0,105.0
7998,50.0,120,156,12.0,105.0
7999,50.0,0,156,13.0,105.0
8000,75.0,120,78,10.0,116.0
8001,63.0,0,78,11.0,105.0
8002,84.0,0,240,1.0,105.0
8003,84.0,0,240,0.0,105.0
8004,72.0,0,240,1.0,105.0
8005,60.0,0,240,2.0,105.0
8006,62.0,0,78,11.0,105.0
8007,58.0,120,78,12.0,105.0
8008,46.0,0,78,14.0,105.0
8009,74.0,0,78,10.0,116.0
8010,58.0,0,78,13.0,105.0
8011,70.0,0,384,4.0,105.0
8012,58.0,0,384,4.0,105.0
8013,46.0,0,384,5.0,105.0
8014,58.0,0,144,2.0,105.0
8015,82.0,0,144,0.0,105.0
8016,82.0,0,144,1.0,105.0
8017,70.0,0,144,1.0,105.0
8018,60.0,0,78,13.0,105.0
8019,48.0,0,78,14.0,105.0
8020,60.0,0,78,11.0,105.0
8021,60.0,120,78,12.0,105.0
8022,72.0,0,78,10.0,116.0
8023,50.0,0,120,14.0,105.0
8024,62.0,0,120,12.0,105.0
8025,62.0,0,120,13.0,105.0
8026,70.0,0,156,10.0,116.0
8027,58.0,120,156,11.0,105.0
8028,60.0,120,78,12.0,105.0
8029,60.0,0,78,13.0,105.0
8030,48.0,0,78,14.0,105.0
8031,65.0,0,768,3.0,105.0
8032,58.0,0,768,3.0,105.0
8033,65.0,0,78,11.0,105.0
8034,46.0,0,78,14.0,105.0
8035,58.0,0,78,13.0,105.0
8036,77.0,120,78,10.0,116.0
8037,58.0,0,78,12.0,105.0
8038,70.0,0,144,0.0,105.0
8039,58.0,0,144,1.0,105.0
8040,70.0,0,144,1.0,105.0
8041,46.0,0,144,2.0,105.0
8042,68.0,0,78,11.0,105.0
8043,56.0,0,78,13.0,105.0
8044,80.0,0,78,10.0,116.0
8045,44.0,120,78,14.0,105.0
8046,56.0,0,78,12.0,105.0
8047,70.0,0,120,11.0,105.0
8048,82.0,0,120,10.0,116.0
8049,55.0,0,156,13.0,105.0
8050,43.0,0,156,14.0,105.0
8051,55.0,0,156,12.0,105.0
8052,80.0,0,78,10.0,116.0
8053,68.0,120,78,11.0,105.0
8054,75.0,0,240,1.0,105.0
8055,51.0,0,240,2.0,105.0
8056,63.0,0,240,1.0,105.0
8057,75.0,0,240,0.0,105.0
8058,79.0,0,78,10.0,116.0
8059,51.0,0,78,12.0,105.0
8060,67.0,0,78,11.0,105.0
8061,51.0,120,78,13.0,105.0
8062,39.0,0,78,14.0,105.0
8063,55.0,0,144,2.0,105.0
8064,79.0,0,144,0.0,105.0
8065,63.0,0,384,4.0,105.0
8066,75.0,0,384,4.0,105.0
8067,67.0,0,144,1.0,105.0
8068,51.0,0,384,5.0,105.0
8069,79.0,0,144,1.0,105.0
8070,77.0,0,78,10.0,116.0
8071,65.0,0,78,11.0,105.0
8072,41.0,120,78,14.0,105.0
8073,53.0,0,78,13.0,105.0
8074,53.0,0,78,12.0,105.0
8075,43.0,0,120,14.0,105.0
8076,55.0,120,120,13.0,105.0
8077,55.0,0,120,12.0,105.0
8078,70.0,0,144,1.0,105.0
8079,82.0,0,144,1.0,105.0
8080,82.0,0,144,0.0,105.0
8081,58.0,0,144,2.0,105.0
8082,63.0,0,156,11.0,105.0
8083,75.0,0,156,10.0,116.0
8084,53.0,0,78,12.0,105.0
8085,53.0,120,78,13.0,105.0
8086,41.0,0,78,14.0,105.0
8087,67.0,120,768,3.0,105.0
8088,63.0,0,768,3.0,105.0
8089,39.0,0,78,14.0,105.0
8090,60.0,0,78,11.0,105.0
8091,72.0,0,78,10.0,116.0
8092,51.0,0,78,12.0,105.0
8093,51.0,0,78,13.0,105.0
8094,70.0,0,144,1.0,105.0
8095,82.0,0,144,1.0,105.0
8096,82.0,0,144,0.0,105.0
8097,58.0,120,144,2.0,105.0
8098,74.0,0,78,10.0,116.0
8099,62.0,120,78,11.0,105.0
8100,50.0,0,78,13.0,105.0
8101,38.0,0,78,14.0,105.0
8102,50.0,0,78,12.0,105.0
8103,63.0,120,120,11.0,105.0
8104,75.0,0,120,10.0,116.0
8105,36.0,0,156,14.0,105.0
8106,48.0,0,156,13.0,105.0
8107,48.0,0,156,12.0,105.0
8108,62.0,120,78,11.0,105.0
8109,74.0,0,78,10.0,116.0
8110,58.0,0,240,2.0,105.0
8111,82.0,0,240,0.0,105.0
8112,82.0,0,240,1.0,105.0
8113,70.0,0,240,1.0,105.0
8114,56.0,0,78,12.0,105.0
8115,72.0,0,78,10.0,116.0
8116,60.0,0,78,11.0,105.0
8117,56.0,0,78,13.0,105.0
8118,44.0,120,78,14.0,105.0
8119,63.0,0,384,4.0,105.0
8120,80.0,0,144,0.0,105.0
8121,56.0,0,144,2.0,105.0
8122,80.0,0,144,1.0,105.0
8123,51.0,0,384,5.0,105.0
8124,75.0,0,384,4.0,105.0
8125,68.0,0,144,1.0,105.0
8126,58.0,0,78,13.0,105.0
8127,58.0,0,78,12.0,105.0
8128,46.0,0,78,14.0,105.0
8129,70.0,120,78,10.0,116.0
8130,58.0,0,78,11.0,105.0
8131,48.0,0,120,14.0,105.0
8132,60.0,120,120,12.0,105.0
8133,60.0,0,120,13.0,105.0
8134,68.0,0,156,10.0,116.0
8135,56.0,0,156,11.0,105.0
8136,46.0,0,78,14.0,105.0
8137,58.0,0,78,13.0,105.0
8138,58.0,120,78,12.0,105.0
8139,48.0,0,768,3.0,105.0
8140,63.0,0,768,3.0,105.0
8141,65.0,0,78,11.0,105.0
8142,56.0,0,78,13.0,105.0
8143,44.0,0,78,14.0,105.0
8144,77.0,0,78,10.0,116.0
8145,56.0,0,78,12.0,105.0
8146,44.0,120,144,2.0,105.0
8147,56.0,0,144,1.0,105.0
8148,68.0,0,144,1.0,105.0
8149,68.0,0,144,0.0,105.0
8150,43.0,120,78,14.0,105.0
8151,55.0,0,78,13.0,105.0
8152,55.0,0,78,12.0,105.0
8153,79.0,0,78,10.0,116.0
8154,67.0,0,78,11.0,105.0
8155,68.0,0,120,11.0,105.0
8156,80.0,0,120,10.0,116.0
8157,53.0,0,156,12.0,105.0
8158,53.0,0,156,13.0,105.0
8159,41.0,0,156,14.0,105.0
8160,79.0,120,78,10.0,116.0
8161,67.0,0,78,11.0,105.0
8162,74.0,0,240,0.0,105.0
8163,50.0,0,240,2.0,105.0
8164,74.0,120,240,1.0,105.0
8165,62.0,0,240,1.0,105.0
8166,50.0,0,78,14.0,105.0
8167,77.0,120,78,10.0,116.0
8168,62.0,0,78,12.0,105.0
8169,62.0,0,78,13.0,105.0
8170,65.0,0,78,11.0,105.0
8171,53.0,0,144,2.0,105.0
8172,77.0,0,144,0.0,105.0
8173,77.0,0,384,4.0,105.0
8174,77.0,0,144,1.0,105.0
8175,65.0,0,144,1.0,105.0
8176,63.0,0,78,13.0,105.0
8177,63.0,120,78,12.0,105.0
8178,51.0,0,78,14.0,105.0
8179,75.0,0,78,10.0,116.0
8180,63.0,0,78,11.0,105.0
8181,53.0,0,120,14.0,105.0
8182,65.0,0,120,12.0,105.0
8183,65.0,0,120,13.0,105.0
8184,80.0,0,144,0.0,105.0
8185,80.0,120,144,1.0,105.0
8186,68.0,0,144,1.0,105.0
8187,56.0,0,144,2.0,105.0
8188,74.0,0,156,10.0,116.0
8189,62.0,0,156,11.0,105.0
8190,63.0,120,78,12.0,105.0
8191,63.0,0,78,13.0,105.0
8192,51.0,0,78,14.0,105.0
8193,68.0,0,768,3.0,105.0
8194,65.0,0,768,3.0,105.0
8195,62.0,0,78,13.0,105.0
8196,62.0,0,78,12.0,105.0
8197,50.0,0,78,14.0,105.0
8198,59.0,0,78,11.0,105.0
8199,71.0,0,78,10.0,116.0
8200,80.0,0,144,1.0,105.0
8201,68.0,120,144,1.0,105.0
8202,56.0,0,144,2.0,105.0
8203,80.0,0,144,0.0,105.0
8204,60.0,120,78,12.0,105.0
8205,72.0,0,78,10.0,116.0
8206,60.0,0,78,11.0,105.0
8207,48.0,0,78,14.0,105.0
8208,60.0,0,78,13.0,105.0
8209,74.0,0,120,10.0,116.0
8210,62.0,0,120,11.0,105.0
8211,47.0,0,156,14.0,105.0
8212,59.0,120,156,12.0,105.0
8213,59.0,0,156,13.0,105.0
8214,60.0,120,78,11.0,105.0
8215,72.0,0,78,10.0,116.0
8216,56.0,0,240,2.0,105.0
8217,80.0,0,240,1.0,105.0
8218,68.0,0,240,1.0,105.0
8219,80.0,0,240,0.0,105.0
8220,59.0,0,78,11.0,105.0
8221,71.0,0,78,10.0,116.0
8222,55.0,0,78,13.0,105.0
8223,43.0,0,78,14.0,105.0
8224,55.0,0,78,12.0,105.0
8225,67.0,0,384,4.0,105.0
8226,79.0,0,144,1.0,105.0
8227,79.0,0,144,0.0,105.0
8228,67.0,120,144,1.0,105.0
8229,77.0,0,384,4.0,105.0
8230,55.0,0,144,2.0,105.0
8231,57.0,0,78,11.0,105.0
8232,45.0,0,78,14.0,105.0
8233,57.0,0,78,12.0,105.0
8234,69.0,120,78,10.0,116.0
8235,57.0,0,78,13.0,105.0
8236,47.0,0,120,14.0,105.0
8237,59.0,0,120,13.0,105.0
8238,59.0,0,120,12.0,105.0
8239,67.0,120,156,10.0,116.0
8240,55.0,0,156,11.0,105.0
8241,45.0,120,78,14.0,105.0
8242,57.0,0,78,13.0,105.0
8243,57.0,0,78,12.0,105.0
8244,67.0,0,768,3.0,105.0
8245,65.0,0,768,3.0,105.0
8246,63.0,0,78,11.0,105.0
8247,55.0,0,78,13.0,105.0
8248,75.0,0,78,10.0,116.0
8249,55.0,0,78,12.0,105.0
8250,43.0,120,78,14.0,105.0
8251,67.0,0,144,0.0,105.0
8252,67.0,0,144,1.0,105.0
8253,55.0,0,144,2.0,105.0
8254,43.0,0,144,2.0,105.0
8255,41.0,0,78,14.0,105.0
8256,65.0,0,78,11.0,105.0
8257,77.0,0,78,10.0,116.0
8258,53.0,120,78,13.0,105.0
8259,53.0,0,78,12.0,105.0
8260,67.0,0,120,11.0,105.0
8261,79.0,0,120,10.0,116.0
8262,51.0,0,156,13.0,105.0
8263,39.0,0,156,14.0,105.0
8264,51.0,0,156,12.0,105.0
8265,77.0,120,78,10.0,116.0
8266,65.0,0,78,11.0,105.0
8267,60.0,120,240,2.0,105.0
8268,72.0,0,240,0.0,105.0
8269,72.0,0,240,1.0,105.0
8270,48.0,0,240,2.0,105.0
8271,60.0,0,78,13.0,105.0
8272,48.0,0,78,14.0,105.0
8273,60.0,0,78,12.0,105.0
8274,75.0,120,78,10.0,116.0
8275,63.0,0,78,11.0,105.0
8276,67.0,0,384,3.0,105.0
8277,51.0,0,384,5.0,105.0
8278,75.0,0,144,1.0,105.0
8279,75.0,0,384,4.0,105.0
8280,63.0,0,384,3.0,105.0
8281,67.0,0,384,4.0,105.0
8282,63.0,0,144,2.0,105.0
8283,51.0,0,144,2.0,105.0
8284,75.0,0,144,0.0,105.0
8285,62.0,0,78,11.0,105.0
8286,62.0,120,78,13.0,105.0
8287,50.0,0,78,14.0,105.0
8288,74.0,0,78,10.0,116.0
8289,62.0,0,78,12.0,105.0
8290,51.0,0,120,14.0,105.0
8291,63.0,0,120,12.0,105.0
8292,63.0,0,120,13.0,105.0
8293,79.0,0,144,0.0,105.0
8294,55.0,0,144,2.0,105.0
8295,67.0,0,144,2.0,105.0
8296,79.0,0,144,1.0,105.0
8297,60.0,120,156,11.0,105.0
8298,72.0,0,156,10.0,116.0
8299,62.0,0,78,12.0,105.0
8300,50.0,120,78,14.0,105.0
8301,62.0,0,78,13.0,105.0
8302,60.0,0,78,13.0,105.0
8303,60.0,0,78,11.0,105.0
8304,48.0,120,78,14.0,105.0
8305,60.0,0,78,12.0,105.0
8306,72.0,0,78,10.0,116.0
8307,79.0,0,144,0.0,105.0
8308,67.0,0,144,2.0,105.0
8309,55.0,0,144,2.0,105.0
8310,79.0,0,144,1.0,105.0
8311,46.0,0,78,14.0,105.0
8312,74.0,0,78,10.0,116.0
8313,58.0,120,78,12.0,105.0
8314,58.0,0,78,13.0,105.0
8315,62.0,0,78,11.0,105.0
8316,75.0,0,120,10.0,116.0
8317,63.0,0,120,11.0,105.0
8318,56.0,0,156,12.0,105.0
8319,56.0,0,156,13.0,105.0
8320,44.0,0,156,14.0,105.0
8321,74.0,0,78,10.0,116.0
8322,62.0,120,78,11.0,105.0
8323,79.0,0,240,0.0,105.0
8324,55.0,0,240,2.0,105.0
8325,67.0,0,240,2.0,105.0
8326,79.0,0,240,1.0,105.0
8327,56.0,120,78,13.0,105.0
8328,44.0,0,78,14.0,105.0
8329,60.0,0,78,11.0,105.0
8330,56.0,0,78,12.0,105.0
8331,72.0,0,78,10.0,116.0
8332,63.0,0,384,3.0,105.0
8333,51.0,120,384,3.0,105.0
8334,66.0,0,144,2.0,105.0
8335,63.0,0,384,4.0,105.0
8336,54.0,0,144,2.0,105.0
8337,78.0,0,144,0.0,105.0
8338,78.0,0,144,1.0,105.0
8339,51.0,0,384,5.0,105.0
8340,75.0,0,384,4.0,105.0
8341,58.0,0,78,12.0,105.0
8342,58.0,0,78,13.0,105.0
8343,58.0,120,78,11.0,105.0
8344,70.0,0,78,10.0,116.0
8345,46.0,0,78,14.0,105.0
8346,60.0,120,120,12.0,105.0
8347,48.0,0,120,14.0,105.0
8348,60.0,0,120,13.0,105.0
8349,56.0,0,156,11.0,105.0
8350,68.0,0,156,10.0,116.0
8351,58.0,120,78,13.0,105.0
8352,46.0,0,78,14.0,105.0
8353,58.0,0,78,12.0,105.0
8354,68.0,120,78,10.0,116.0
8355,56.0,0,78,11.0,105.0
8356,56.0,0,78,13.0,105.0
8357,44.0,0,78,14.0,105.0
8358,56.0,0,78,12.0,105.0
8359,51.0,0,384,3.0,105.0
8360,63.0,0,384,3.0,105.0
8361,55.0,0,78,13.0,105.0
8362,70.0,120,78,10.0,116.0
8363,55.0,0,78,12.0,105.0
8364,43.0,0,78,14.0,105.0
8365,58.0,0,78,11.0,105.0
8366,72.0,0,240,1.0,105.0
8367,84.0,0,240,0.0,105.0
8368,48.0,0,240,2.0,105.0
8369,60.0,0,240,2.0,105.0
8370,72.0,0,120,10.0,116.0
8371,60.0,0,120,11.0,105.0
8372,58.0,120,78,11.0,105.0
8373,70.0,0,78,10.0,116.0
8374,42.0,0,312,14.0,105.0
8375,54.0,0,312,12.0,105.0
8376,54.0,0,312,13.0,105.0
8377,56.0,120,78,11.0,105.0
8378,68.0,0,78,10.0,116.0
8379,51.0,0,384,3.0,105.0
8380,63.0,0,384,4.0,105.0
8381,75.0,120,384,4.0,105.0
8382,63.0,0,384,3.0,105.0
8383,55.0,120,78,11.0,105.0
8384,67.0,0,78,10.0,116.0
8385,63.0,0,480,2.0,105.0
8386,51.0,0,480,2.0,105.0
8387,87.0,0,480,0.0,105.0
8388,75.0,0,480,1.0,105.0
8389,66.0,0,156,11.0,105.0
8390,66.0,0,156,10.0,127.0
8391,62.0,0,240,2.0,105.0
8392,50.0,0,240,2.0,105.0
8393,86.0,0,240,0.0,105.0
8394,74.0,0,240,1.0,105.0
8395,44.0,0,312,13.0,105.0
8396,56.0,0,312,12.0,105.0
8397,66.0,0,312,12.0,105.0
8398,32.0,120,312,14.0,105.0
8399,66.0,0,156,11.0,105.0
8400,78.0,0,156,10.0,127.0
8401,60.0,0,240,2.0,105.0
8402,84.0,0,240,0.0,105.0
8403,72.0,0,240,1.0,105.0
8404,48.0,240,240,2.0,105.0
8405,31.0,0,384,14.0,105.0
8406,79.0,0,384,10.0,127.0
8407,59.0,0,384,2.0,105.0
8408,47.0,240,384,2.0,105.0
8409,67.0,0,384,3.0,105.0
8410,55.0,0,384,3.0,105.0
8411,79.0,0,384,4.0,105.0
8412,43.0,0,384,13.0,105.0
8413,67.0,0,384,11.0,105.0
8414,83.0,0,384,0.0,105.0
8415,55.0,0,384,12.0,105.0
8416,67.0,0,384,12.0,105.0
8417,67.0,0,384,4.0,105.0
8418,71.0,0,384,1.0,105.0
8419,59.0,720,78,10.0,116.0
8420,47.0,0,78,13.0,105.0
8421,59.0,0,78,12.0,105.0
8422,35.0,0,78,14.0,105.0
8423,59.0,0,78,11.0,105.0
8424,36.0,0,78,14.0,105.0
8425,48.0,120,78,13.0,105.0
8426,60.0,0,78,10.0,116.0
8427,60.0,0,78,11.0,105.0
8428,60.0,0,78,12.0,105.0
8429,62.0,0,120,12.0,105.0
8430,50.0,0,120,13.0,105.0
8431,62.0,0,120,10.0,116.0
8432,62.0,0,120,11.0,105.0
8433,38.0,0,120,14.0,105.0
8434,48.0,0,78,13.0,105.0
8435,60.0,0,78,10.0,116.0
8436,36.0,0,78,14.0,105.0
8437,60.0,0,78,12.0,105.0
8438,60.0,120,78,11.0,105.0
8439,59.0,0,78,10.0,116.0
8440,59.0,0,78,11.0,105.0
8441,47.0,0,78,13.0,105.0
8442,35.0,120,78,14.0,105.0
8443,59.0,0,78,12.0,105.0
8444,67.0,0,384,3.0,105.0
8445,55.0,0,384,3.0,105.0
8446,74.0,0,384,1.0,105.0
8447,71.0,0,384,1.0,105.0
8448,79.0,0,384,0.0,105.0
8449,59.0,0,384,2.0,105.0
8450,62.0,120,384,2.0,105.0
8451,79.0,0,384,4.0,105.0
8452,67.0,0,384,4.0,105.0
8453,57.0,0,78,10.0,116.0
8454,45.0,0,78,13.0,105.0
8455,33.0,0,78,14.0,105.0
8456,57.0,120,78,11.0,105.0
8457,57.0,0,78,12.0,105.0
8458,55.0,0,156,12.0,105.0
8459,31.0,120,156,14.0,105.0
8460,43.0,0,156,13.0,105.0
8461,55.0,0,156,10.0,116.0
8462,55.0,0,156,11.0,105.0
8463,71.0,0,78,12.0,105.0
8464,71.0,0,78,11.0,105.0
8465,71.0,240,78,10.0,116.0
8466,47.0,0,78,14.0,105.0
8467,59.0,0,78,13.0,105.0
8468,72.0,120,78,11.0,105.0
8469,72.0,0,78,10.0,116.0
8470,72.0,0,78,12.0,105.0
8471,48.0,0,78,14.0,105.0
8472,60.0,0,78,13.0,105.0
8473,74.0,0,120,12.0,105.0
8474,74.0,0,120,11.0,105.0
8475,62.0,0,120,13.0,105.0
8476,50.0,0,120,14.0,105.0
8477,74.0,0,120,10.0,116.0
8478,72.0,0,78,11.0,105.0
8479,72.0,0,78,10.0,116.0
8480,48.0,0,78,14.0,105.0
8481,72.0,120,78,12.0,105.0
8482,60.0,0,78,13.0,105.0
8483,71.0,120,78,12.0,105.0
8484,59.0,0,78,13.0,105.0
8485,71.0,0,78,10.0,116.0
8486,47.0,0,78,14.0,105.0
8487,71.0,0,78,11.0,105.0
8488,74.0,0,384,1.0,105.0
8489,83.0,0,384,1.0,105.0
8490,67.0,0,384,3.0,105.0
8491,55.0,120,384,3.0,105.0
8492,91.0,0,384,0.0,105.0
8493,79.0,0,384,4.0,105.0
8494,67.0,0,384,4.0,105.0
8495,59.0,0,384,2.0,105.0
8496,62.0,0,384,2.0,105.0
8497,45.0,0,78,14.0,105.0
8498,69.0,120,78,12.0,105.0
8499,69.0,0,78,10.0,116.0
8500,69.0,0,78,11.0,105.0
8501,57.0,0,78,13.0,105.0
8502,55.0,0,192,13.0,105.0
8503,67.0,0,192,10.0,116.0
8504,67.0,120,192,11.0,105.0
8505,67.0,0,192,12.0,105.0
8506,43.0,0,192,14.0,105.0
8507,70.0,0,78,11.0,70.0
8508,82.0,1200,78,10.0,70.0
8509,84.0,120,78,10.0,70.0
8510,72.0,0,78,11.0,70.0
8511,74.0,120,120,11.0,70.0
8512,86.0,0,120,10.0,70.0
8513,55.0,0,192,13.0,70.0
8514,72.0,0,78,11.0,70.0
8515,84.0,120,78,10.0,70.0
8516,82.0,0,78,10.0,70.0
8517,70.0,120,78,11.0,70.0
8518,55.0,0,192,13.0,70.0
8519,81.0,120,78,10.0,70.0
8520,69.0,0,78,11.0,70.0
8521,79.0,0,156,10.0,70.0
8522,67.0,0,156,11.0,70.0
8523,55.0,120,192,13.0,70.0
8524,55.0,0,384,2.0,70.0
8525,70.0,0,384,1.0,70.0
8526,74.0,0,384,1.0,70.0
8527,55.0,240,192,13.0,70.0
8528,55.0,0,192,13.0,70.0
8529,70.0,0,384,1.0,70.0
8530,58.0,0,384,2.0,70.0
8531,74.0,0,384,1.0,70.0
8532,55.0,240,384,2.0,70.0
8533,55.0,240,192,13.0,70.0
8534,55.0,0,192,13.0,70.0
8535,70.0,0,384,1.0,70.0
8536,74.0,0,384,1.0,70.0
8537,55.0,0,384,2.0,70.0
8538,62.0,240,384,2.0,70.0
8539,55.0,240,192,13.0,70.0
8540,55.0,240,192,13.0,70.0
8541,55.0,240,192,13.0,70.0
8542,73.0,0,480,1.0,70.0
8543,70.0,0,480,1.0,70.0
8544,55.0,0,480,2.0,70.0
8545,64.0,0,480,2.0,70.0
8546,54.0,0,192,13.0,70.0
8547,66.0,0,78,10.0,70.0
8548,74.0,240,384,1.0,70.0
8549,69.0,0,384,1.0,70.0
8550,54.0,0,384,2.0,70.0
8551,57.0,0,384,2.0,70.0
8552,54.0,240,192,13.0,70.0
8553,67.0,120,78,10.0,70.0
8554,69.0,0,120,10.0,70.0
8555,54.0,0,192,13.0,70.0
8556,67.0,120,78,10.0,70.0
8557,66.0,120,78,10.0,70.0
8558,54.0,0,192,13.0,70.0
8559,64.0,120,78,10.0,70.0
8560,62.0,0,156,10.0,70.0
8561,54.0,120,192,13.0,70.0
8562,66.0,240,78,11.0,70.0
8563,78.0,0,78,10.0,70.0
8564,54.0,0,192,13.0,70.0
8565,79.0,0,78,10.0,70.0
8566,67.0,120,78,11.0,70.0
8567,69.0,0,120,11.0,70.0
8568,81.0,120,120,10.0,70.0
8569,54.0,0,192,13.0,70.0
8570,67.0,120,78,11.0,70.0
8571,79.0,0,78,10.0,70.0
8572,66.0,0,78,11.0,70.0
8573,78.0,120,78,10.0,70.0
8574,62.0,0,1344,2.0,58.0
8575,54.0,0,1344,2.0,58.0
8576,74.0,120,1344,1.0,58.0
8577,69.0,0,1344,1.0,58.0
8578,54.0,0,192,13.0,70.0
8579,76.0,120,78,10.0,70.0
8580,64.0,0,78,11.0,70.0
8581,74.0,0,156,10.0,70.0
8582,62.0,0,156,11.0,70.0
8583,54.0,0,192,13.0,70.0
8584,69.0,0,384,1.0,70.0
8585,57.0,120,384,2.0,58.0
8586,74.0,0,384,1.0,70.0
8587,54.0,0,384,2.0,58.0
8588,54.0,240,192,13.0,70.0
8589,54.0,0,192,13.0,70.0
8590,54.0,240,384,2.0,70.0
8591,69.0,0,384,1.0,70.0
8592,74.0,0,384,1.0,70.0
8593,66.0,0,384,2.0,70.0
8594,54.0,240,192,13.0,70.0
8595,54.0,0,192,13.0,70.0
8596,74.0,0,384,1.0,70.0
8597,69.0,0,384,1.0,70.0
8598,62.0,0,384,2.0,70.0
8599,54.0,240,384,2.0,70.0
8600,54.0,240,192,13.0,70.0
8601,55.0,0,192,13.0,70.0
8602,55.0,240,192,13.0,70.0
8603,55.0,0,480,2.0,70.0
8604,61.0,0,480,2.0,70.0
8605,76.0,240,480,1.0,70.0
8606,70.0,0,480,1.0,70.0
8607,53.0,0,192,13.0,70.0
8608,65.0,240,78,10.0,70.0
8609,62.0,240,384,2.0,58.0
8610,74.0,0,384,1.0,58.0
8611,69.0,0,384,1.0,70.0
8612,53.0,0,384,2.0,58.0
8613,53.0,0,192,13.0,70.0
8614,67.0,120,78,10.0,70.0
8615,69.0,0,120,10.0,70.0
8616,53.0,120,192,13.0,70.0
8617,67.0,120,78,10.0,70.0
8618,65.0,120,78,10.0,70.0
8619,53.0,0,192,13.0,70.0
8620,64.0,120,78,10.0,70.0
8621,62.0,120,156,10.0,70.0
8622,53.0,0,192,13.0,70.0
8623,65.0,0,78,11.0,70.0
8624,77.0,240,78,10.0,70.0
8625,53.0,0,192,13.0,70.0
8626,67.0,120,78,11.0,70.0
8627,79.0,0,78,10.0,70.0
8628,81.0,0,120,10.0,70.0
8629,69.0,120,120,11.0,70.0
8630,53.0,0,192,13.0,70.0
8631,67.0,0,78,11.0,70.0
8632,79.0,120,78,10.0,70.0
8633,65.0,0,78,11.0,70.0
8634,77.0,0,78,10.0,70.0
8635,69.0,0,1344,1.0,58.0
8636,62.0,0,1344,2.0,58.0
8637,53.0,0,1344,2.0,58.0
8638,74.0,0,1344,1.0,58.0
8639,53.0,120,192,13.0,70.0
8640,64.0,120,78,11.0,70.0
8641,76.0,0,78,10.0,70.0
8642,62.0,0,156,11.0,70.0
8643,74.0,0,156,10.0,70.0
8644,53.0,0,192,13.0,70.0
8645,57.0,0,384,2.0,58.0
8646,74.0,0,384,1.0,58.0
8647,69.0,120,384,1.0,58.0
8648,53.0,0,384,2.0,58.0
8649,53.0,240,192,13.0,70.0
8650,53.0,0,192,13.0,70.0
8651,69.0,0,384,1.0,70.0
8652,65.0,0,384,2.0,70.0
8653,53.0,240,384,2.0,70.0
8654,74.0,0,384,1.0,70.0
8655,53.0,240,192,13.0,70.0
8656,53.0,0,192,13.0,70.0
8657,62.0,0,384,2.0,70.0
8658,53.0,0,384,2.0,70.0
8659,69.0,0,384,1.0,70.0
8660,74.0,240,384,1.0,70.0
8661,53.0,240,192,13.0,70.0
8662,53.0,0,192,13.0,70.0
8663,53.0,240,192,13.0,70.0
8664,75.0,240,480,1.0,58.0
8665,60.0,0,480,2.0,58.0
8666,53.0,240,192,13.0,70.0
8667,65.0,0,78,10.0,70.0
8668,74.0,0,384,1.0,58.0
8669,59.0,0,384,2.0,58.0
8670,53.0,240,192,13.0,70.0
8671,67.0,120,78,10.0,70.0
8672,68.0,0,120,10.0,70.0
8673,53.0,0,192,13.0,70.0
8674,67.0,120,78,10.0,70.0
8675,65.0,0,78,10.0,70.0
8676,53.0,120,192,13.0,70.0
8677,63.0,120,78,10.0,70.0
8678,62.0,0,156,10.0,70.0
8679,53.0,120,192,13.0,70.0
8680,59.0,0,768,2.0,58.0
8681,65.0,0,78,11.0,70.0
8682,77.0,0,78,10.0,70.0
8683,53.0,240,192,13.0,70.0
8684,79.0,120,78,10.0,70.0
8685,67.0,0,78,11.0,70.0
8686,80.0,120,120,10.0,70.0
8687,68.0,0,120,11.0,70.0
8688,53.0,0,192,13.0,70.0
8689,79.0,120,78,10.0,70.0
8690,67.0,0,78,11.0,70.0
8691,65.0,0,78,11.0,70.0
8692,77.0,120,78,10.0,70.0
8693,56.0,0,384,2.0,58.0
8694,53.0,0,2304,2.0,58.0
8695,74.0,120,1344,1.0,58.0
8696,68.0,0,2304,1.0,58.0
8697,53.0,0,192,13.0,70.0
8698,63.0,120,78,11.0,70.0
8699,75.0,0,78,10.0,70.0
8700,62.0,0,156,11.0,70.0
8701,74.0,0,156,10.0,70.0
8702,50.0,0,192,13.0,70.0
8703,50.0,240,192,13.0,70.0
8704,50.0,0,480,2.0,58.0
8705,74.0,0,480,1.0,58.0
8706,53.0,120,480,2.0,58.0
8707,77.0,240,0,1.0,70.0
8708,46.0,0,192,13.0,70.0
8709,46.0,240,192,13.0,70.0
8710,80.0,0,480,1.0,70.0
8711,50.0,0,480,2.0,70.0
8712,58.0,0,192,13.0,70.0
8713,79.0,0,72,10.0,70.0
8714,58.0,240,192,13.0,70.0
8715,80.0,120,72,10.0,70.0
8716,46.0,0,1920,3.0,58.0
8717,74.0,0,480,1.0,70.0
8718,68.0,240,480,1.0,70.0
8719,46.0,0,960,2.0,70.0
8720,65.0,0,480,2.0,70.0
8721,67.0,0,120,11.0,58.0
8722,82.0,120,120,10.0,70.0
8723,58.0,0,2112,3.0,58.0
8724,51.0,0,192,3.0,58.0
8725,80.0,0,72,10.0,70.0
8726,67.0,0,192,1.0,58.0
8727,39.0,0,192,2.0,58.0
8728,75.0,0,192,1.0,58.0
8729,63.0,0,192,2.0,58.0
8730,51.0,0,192,13.0,58.0
8731,70.0,120,120,11.0,58.0
8732,79.0,0,72,10.0,70.0
8733,67.0,120,120,11.0,58.0
8734,77.0,120,72,10.0,70.0
8735,70.0,0,120,11.0,58.0
8736,67.0,0,120,11.0,58.0
8737,75.0,120,144,10.0,70.0
8738,70.0,120,120,11.0,58.0
8739,67.0,0,120,11.0,58.0
8740,89.0,120,144,0.0,105.0
8741,77.0,0,144,10.0,70.0
8742,70.0,120,72,11.0,78.0
8743,68.0,0,120,11.0,58.0
8744,70.0,120,120,11.0,58.0
8745,68.0,120,120,11.0,58.0
8746,70.0,120,120,11.0,58.0
8747,70.0,0,576,10.0,70.0
8748,68.0,120,120,11.0,58.0
8749,82.0,120,720,0.0,70.0
8750,70.0,120,120,11.0,58.0
8751,72.0,0,72,10.0,70.0
8752,84.0,120,120,0.0,70.0
8753,68.0,0,120,11.0,58.0
8754,74.0,0,72,10.0,70.0
8755,70.0,0,72,11.0,78.0
8756,86.0,120,96,0.0,70.0
8757,67.0,0,120,11.0,58.0
8758,87.0,0,120,0.0,70.0
8759,75.0,120,120,10.0,70.0
8760,74.0,0,72,10.0,70.0
8761,86.0,0,120,0.0,70.0
8762,70.0,120,120,11.0,58.0
8763,72.0,0,72,10.0,70.0
8764,67.0,120,120,11.0,58.0
8765,84.0,0,120,0.0,70.0
8766,70.0,120,72,10.0,70.0
8767,70.0,0,120,11.0,58.0
8768,82.0,0,120,0.0,70.0
8769,68.0,120,72,10.0,70.0
8770,62.0,0,120,11.0,58.0
8771,80.0,0,120,0.0,70.0
8772,67.0,0,72,10.0,70.0
8773,79.0,0,120,0.0,70.0
8774,70.0,120,120,11.0,58.0
8775,68.0,120,72,10.0,70.0
8776,80.0,0,120,0.0,70.0
8777,62.0,0,120,11.0,58.0
8778,70.0,0,72,11.0,78.0
8779,70.0,120,72,10.0,70.0
8780,82.0,0,96,0.0,70.0
8781,63.0,0,120,11.0,58.0
8782,70.0,120,120,11.0,58.0
8783,63.0,120,120,11.0,58.0
8784,70.0,120,120,11.0,58.0
8785,67.0,120,576,10.0,70.0
8786,79.0,0,576,0.0,70.0
8787,63.0,120,120,11.0,58.0
8788,70.0,120,120,11.0,58.0
8789,56.0,0,78,2.0,58.0
8790,68.0,0,78,10.0,70.0
8791,63.0,120,120,11.0,58.0
8792,70.0,120,72,11.0,78.0
8793,70.0,0,78,10.0,70.0
8794,58.0,0,78,2.0,70.0
8795,56.0,0,120,11.0,58.0
8796,60.0,120,156,2.0,70.0
8797,72.0,0,156,10.0,70.0
8798,65.0,120,120,11.0,58.0
8799,62.0,120,78,2.0,70.0
8800,74.0,0,78,10.0,70.0
8801,56.0,0,120,11.0,58.0
8802,75.0,0,78,10.0,70.0
8803,63.0,0,78,2.0,70.0
8804,65.0,120,120,11.0,58.0
8805,56.0,120,120,11.0,58.0
8806,77.0,0,120,10.0,70.0
8807,65.0,0,156,2.0,70.0
8808,79.0,120,78,10.0,70.0
8809,65.0,0,120,11.0,58.0
8810,80.0,0,78,10.0,70.0
8811,56.0,0,120,11.0,58.0
8812,65.0,120,156,2.0,70.0
8813,79.0,120,78,10.0,70.0
8814,65.0,0,120,11.0,58.0
8815,75.0,120,120,10.0,70.0
8816,56.0,0,120,11.0,58.0
8817,63.0,0,120,2.0,70.0
8818,74.0,120,78,10.0,70.0
8819,62.0,0,78,2.0,70.0
8820,65.0,0,120,11.0,58.0
8821,60.0,0,78,2.0,70.0
8822,72.0,120,78,10.0,70.0
8823,56.0,0,120,11.0,58.0
8824,58.0,120,78,2.0,70.0
8825,70.0,0,78,10.0,70.0
8826,65.0,0,120,11.0,58.0
8827,55.0,0,120,11.0,58.0
8828,75.0,0,156,10.0,70.0
8829,63.0,120,156,2.0,70.0
8830,63.0,120,120,11.0,58.0
8831,77.0,120,78,10.0,70.0
8832,55.0,0,120,11.0,58.0
8833,51.0,0,156,2.0,70.0
8834,79.0,0,78,10.0,70.0
8835,63.0,120,120,11.0,58.0
8836,62.0,120,120,11.0,58.0
8837,50.0,0,132,2.0,70.0
8838,80.0,0,132,1.0,70.0
8839,82.0,0,132,0.0,70.0
8840,77.0,0,132,1.0,70.0
8841,80.0,0,156,10.0,70.0
8842,70.0,120,120,11.0,58.0
8843,62.0,0,120,11.0,58.0
8844,46.0,0,132,2.0,70.0
8845,77.0,0,132,1.0,70.0
8846,80.0,120,132,1.0,70.0
8847,82.0,0,132,0.0,70.0
8848,80.0,0,156,10.0,70.0
8849,70.0,120,120,11.0,58.0
8850,63.0,0,120,11.0,58.0
8851,75.0,0,132,1.0,70.0
8852,79.0,0,132,1.0,70.0
8853,51.0,120,132,2.0,70.0
8854,82.0,0,132,0.0,70.0
8855,79.0,0,156,10.0,70.0
8856,70.0,120,120,11.0,58.0
8857,63.0,0,120,11.0,58.0
8858,82.0,0,132,0.0,70.0
8859,75.0,0,132,1.0,70.0
8860,79.0,0,132,1.0,70.0
8861,39.0,0,132,2.0,70.0
8862,79.0,120,156,10.0,70.0
8863,70.0,120,120,11.0,58.0
8864,77.0,0,120,10.0,70.0
8865,77.0,0,192,1.0,70.0
8866,74.0,0,192,1.0,70.0
8867,74.0,120,72,10.0,70.0
8868,82.0,0,192,0.0,70.0
8869,46.0,120,192,2.0,70.0
8870,75.0,120,72,10.0,70.0
8871,58.0,0,384,11.0,58.0
8872,72.0,120,72,10.0,70.0
8873,70.0,120,144,10.0,70.0
8874,79.0,0,72,10.0,70.0
8875,67.0,240,72,11.0,105.0
8876,80.0,0,72,10.0,116.0
8877,68.0,120,72,11.0,105.0
8878,55.0,0,120,13.0,105.0
8879,55.0,0,120,12.0,105.0
8880,70.0,0,120,11.0,105.0
8881,82.0,0,120,10.0,116.0
8882,80.0,0,72,10.0,116.0
8883,68.0,0,72,11.0,105.0
8884,43.0,0,192,14.0,105.0
8885,58.0,120,120,13.0,105.0
8886,58.0,0,120,12.0,105.0
8887,67.0,0,72,11.0,105.0
8888,79.0,0,72,10.0,116.0
8889,55.0,120,120,13.0,105.0
8890,55.0,0,120,12.0,105.0
8891,63.0,0,384,4.0,105.0
8892,51.0,0,384,5.0,105.0
8893,75.0,0,384,4.0,105.0
8894,65.0,120,72,11.0,105.0
8895,77.0,0,72,10.0,116.0
8896,43.0,0,192,14.0,105.0
8897,58.0,0,120,12.0,105.0
8898,58.0,0,120,13.0,105.0
8899,55.0,0,120,13.0,105.0
8900,55.0,0,120,12.0,105.0
8901,63.0,0,144,11.0,105.0
8902,75.0,120,144,10.0,116.0
8903,43.0,0,192,14.0,105.0
8904,63.0,0,720,2.0,70.0
8905,58.0,0,120,13.0,105.0
8906,87.0,120,720,0.0,70.0
8907,58.0,120,120,12.0,105.0
8908,75.0,0,720,1.0,70.0
8909,55.0,0,768,3.0,58.0
8910,63.0,0,768,3.0,58.0
8911,55.0,0,120,13.0,105.0
8912,55.0,0,120,12.0,105.0
8913,77.0,0,144,10.0,116.0
8914,65.0,0,144,11.0,105.0
8915,58.0,120,72,13.0,125.0
8916,89.0,0,192,0.0,92.0
8917,58.0,0,72,12.0,125.0
8918,43.0,0,192,14.0,105.0
8919,77.0,0,192,1.0,92.0
8920,65.0,120,192,2.0,92.0
8921,56.0,0,120,12.0,105.0
8922,56.0,0,120,13.0,105.0
8923,44.0,0,192,14.0,105.0
8924,58.0,120,120,12.0,105.0
8925,58.0,0,120,13.0,105.0
8926,56.0,0,120,12.0,105.0
8927,56.0,120,120,13.0,105.0
8928,58.0,0,384,4.0,105.0
8929,46.0,0,384,5.0,105.0
8930,70.0,0,384,4.0,105.0
8931,44.0,0,192,14.0,105.0
8932,58.0,120,120,12.0,105.0
8933,58.0,0,120,13.0,105.0
8934,58.0,0,576,11.0,105.0
8935,70.0,0,576,10.0,116.0
8936,56.0,0,120,12.0,105.0
8937,56.0,120,120,13.0,105.0
8938,44.0,0,192,14.0,105.0
8939,58.0,0,720,2.0,92.0
8940,70.0,0,720,1.0,92.0
8941,58.0,120,120,12.0,105.0
8942,82.0,0,720,0.0,92.0
8943,58.0,0,120,13.0,105.0
8944,58.0,120,768,3.0,92.0
8945,65.0,0,768,3.0,92.0
8946,72.0,120,78,10.0,116.0
8947,60.0,0,78,11.0,105.0
8948,60.0,0,120,2.0,92.0
8949,56.0,0,120,13.0,105.0
8950,84.0,0,120,0.0,92.0
8951,56.0,0,120,12.0,105.0
8952,72.0,0,120,1.0,92.0
8953,58.0,0,72,13.0,125.0
8954,44.0,0,192,14.0,105.0
8955,58.0,0,72,12.0,125.0
8956,62.0,0,78,11.0,105.0
8957,74.0,0,78,10.0,116.0
8958,74.0,0,96,1.0,92.0
8959,86.0,0,96,0.0,92.0
8960,62.0,120,96,2.0,92.0
8961,55.0,0,120,12.0,105.0
8962,75.0,0,120,10.0,116.0
8963,87.0,0,120,0.0,92.0
8964,55.0,0,120,13.0,105.0
8965,63.0,0,120,2.0,92.0
8966,63.0,0,120,11.0,105.0
8967,75.0,0,120,1.0,92.0
8968,63.0,0,192,3.0,92.0
8969,67.0,0,192,3.0,92.0
8970,43.0,0,192,14.0,105.0
8971,74.0,0,78,10.0,116.0
8972,62.0,0,78,11.0,105.0
8973,62.0,0,120,2.0,92.0
8974,86.0,0,120,0.0,92.0
8975,58.0,120,120,12.0,105.0
8976,58.0,0,120,13.0,105.0
8977,74.0,0,120,1.0,92.0
8978,60.0,0,72,11.0,105.0
8979,72.0,0,72,10.0,116.0
8980,60.0,0,120,2.0,92.0
8981,55.0,0,120,13.0,105.0
8982,72.0,0,120,1.0,92.0
8983,84.0,120,120,0.0,92.0
8984,55.0,0,120,12.0,105.0
8985,58.0,0,384,4.0,105.0
8986,70.0,120,384,4.0,105.0
8987,51.0,0,384,5.0,105.0
8988,70.0,0,72,10.0,116.0
8989,63.0,0,192,3.0,92.0
8990,67.0,0,192,3.0,92.0
8991,43.0,0,192,14.0,105.0
8992,58.0,0,72,11.0,105.0
8993,70.0,0,120,1.0,92.0
8994,58.0,120,120,2.0,92.0
8995,82.0,0,120,0.0,92.0
8996,58.0,0,120,12.0,105.0
8997,58.0,0,120,13.0,105.0
8998,68.0,0,78,10.0,116.0
8999,56.0,0,78,11.0,105.0
9000,50.0,0,120,13.0,105.0
9001,56.0,0,120,2.0,92.0
9002,80.0,0,120,0.0,92.0
9003,50.0,0,120,12.0,105.0
9004,68.0,0,120,1.0,92.0
9005,38.0,0,192,14.0,105.0
9006,65.0,0,192,3.0,92.0
9007,58.0,0,192,3.0,92.0
9008,55.0,0,78,11.0,105.0
9009,67.0,120,78,10.0,116.0
9010,67.0,0,120,1.0,92.0
9011,58.0,0,120,12.0,105.0
9012,55.0,0,120,2.0,92.0
9013,58.0,0,120,13.0,105.0
9014,79.0,0,120,0.0,92.0
9015,56.0,0,78,11.0,105.0
9016,68.0,0,78,10.0,116.0
9017,80.0,0,120,0.0,92.0
9018,50.0,0,120,13.0,105.0
9019,56.0,0,120,2.0,92.0
9020,68.0,0,120,1.0,92.0
9021,50.0,0,120,12.0,105.0
9022,46.0,120,384,5.0,105.0
9023,70.0,0,384,4.0,105.0
9024,58.0,0,384,4.0,105.0
9025,58.0,0,72,13.0,125.0
9026,58.0,0,72,12.0,125.0
9027,65.0,0,192,3.0,92.0
9028,58.0,0,192,3.0,92.0
9029,38.0,120,192,14.0,105.0
9030,58.0,0,78,11.0,105.0
9031,70.0,0,78,10.0,116.0
9032,82.0,120,96,0.0,92.0
9033,70.0,0,96,1.0,92.0
9034,58.0,0,96,2.0,92.0
9035,51.0,0,120,13.0,105.0
9036,51.0,0,120,12.0,105.0
9037,39.0,0,192,14.0,105.0
9038,58.0,120,120,13.0,105.0
9039,58.0,0,120,12.0,105.0
9040,51.0,0,120,12.0,105.0
9041,51.0,0,120,13.0,105.0
9042,63.0,0,384,4.0,105.0
9043,70.0,0,384,4.0,105.0
9044,51.0,0,384,5.0,105.0
9045,39.0,120,192,14.0,105.0
9046,58.0,120,120,13.0,105.0
9047,58.0,0,120,12.0,105.0
9048,67.0,0,576,10.0,116.0
9049,55.0,0,576,11.0,105.0
9050,51.0,120,120,12.0,105.0
9051,51.0,0,120,13.0,105.0
9052,39.0,0,192,14.0,105.0
9053,58.0,0,120,12.0,105.0
9054,58.0,120,120,13.0,105.0
9055,55.0,0,720,2.0,92.0
9056,79.0,0,720,0.0,92.0
9057,67.0,0,720,1.0,92.0
9058,63.0,120,768,3.0,92.0
9059,55.0,0,768,3.0,92.0
9060,56.0,0,72,11.0,105.0
9061,68.0,0,72,10.0,116.0
9062,68.0,0,120,1.0,92.0
9063,51.0,0,120,12.0,105.0
9064,80.0,0,120,0.0,92.0
9065,56.0,0,120,2.0,92.0
9066,51.0,120,120,13.0,105.0
9067,39.0,0,192,14.0,105.0
9068,70.0,0,72,10.0,116.0
9069,58.0,0,72,11.0,105.0
9070,58.0,0,72,12.0,125.0
9071,58.0,0,72,13.0,125.0
9072,82.0,0,96,0.0,92.0
9073,70.0,0,96,1.0,92.0
9074,58.0,120,96,2.0,92.0
9075,56.0,0,120,12.0,105.0
9076,56.0,0,120,13.0,105.0
9077,72.0,0,192,10.0,116.0
9078,60.0,0,192,11.0,105.0
9079,44.0,120,192,14.0,105.0
9080,60.0,0,120,13.0,105.0
9081,60.0,120,120,12.0,105.0
9082,74.0,0,72,10.0,116.0
9083,62.0,0,72,11.0,105.0
9084,56.0,0,120,12.0,105.0
9085,56.0,0,120,13.0,105.0
9086,75.0,0,384,4.0,105.0
9087,63.0,0,384,4.0,105.0
9088,51.0,0,384,5.0,105.0
9089,75.0,0,72,10.0,116.0
9090,63.0,120,72,11.0,105.0
9091,44.0,120,192,14.0,105.0
9092,60.0,0,480,2.0,92.0
9093,72.0,0,480,1.0,92.0
9094,84.0,0,480,0.0,92.0
9095,60.0,0,120,12.0,105.0
9096,60.0,0,120,13.0,105.0
9097,56.0,0,120,13.0,105.0
9098,65.0,0,120,11.0,105.0
9099,77.0,0,120,10.0,116.0
9100,56.0,0,120,12.0,105.0
9101,79.0,0,72,10.0,116.0
9102,67.0,0,72,11.0,105.0
9103,44.0,0,192,14.0,105.0
9104,60.0,0,120,12.0,105.0
9105,60.0,120,120,13.0,105.0
9106,65.0,0,768,3.0,92.0
9107,63.0,0,768,3.0,92.0
9108,80.0,0,72,10.0,116.0
9109,68.0,120,72,11.0,105.0
9110,56.0,0,120,12.0,105.0
9111,56.0,0,120,13.0,105.0
9112,60.0,0,72,13.0,125.0
9113,65.0,120,72,11.0,105.0
9114,60.0,0,72,12.0,125.0
9115,77.0,0,72,10.0,116.0
9116,44.0,0,192,14.0,105.0
9117,77.0,0,480,1.0,92.0
9118,65.0,120,480,2.0,92.0
9119,89.0,0,480,0.0,92.0
9120,75.0,0,120,10.0,116.0
9121,56.0,0,120,12.0,105.0
9122,63.0,0,120,11.0,105.0
9123,56.0,0,120,13.0,105.0
9124,62.0,0,72,11.0,105.0
9125,44.0,0,192,14.0,105.0
9126,74.0,120,72,10.0,116.0
9127,58.0,0,120,12.0,105.0
9128,58.0,0,120,13.0,105.0
9129,60.0,0,72,11.0,105.0
9130,72.0,120,72,10.0,116.0
9131,56.0,0,120,13.0,105.0
9132,56.0,0,120,12.0,105.0
9133,46.0,0,384,5.0,105.0
9134,70.0,120,384,4.0,105.0
9135,58.0,0,384,4.0,105.0
9136,44.0,0,192,14.0,105.0
9137,58.0,0,72,11.0,105.0
9138,70.0,120,72,10.0,116.0
9139,62.0,0,480,2.0,92.0
9140,58.0,0,120,12.0,105.0
9141,86.0,0,480,0.0,92.0
9142,74.0,0,480,1.0,92.0
9143,58.0,0,120,13.0,105.0
9144,82.0,0,120,10.0,116.0
9145,56.0,0,120,13.0,105.0
9146,56.0,0,120,12.0,105.0
9147,70.0,0,120,11.0,105.0
9148,68.0,0,72,11.0,105.0
9149,80.0,0,72,10.0,116.0
9150,44.0,0,192,14.0,105.0
9151,58.0,0,120,13.0,105.0
9152,58.0,120,120,12.0,105.0
9153,58.0,0,768,3.0,92.0
9154,65.0,0,768,3.0,92.0
9155,67.0,120,72,11.0,105.0
9156,79.0,0,72,10.0,116.0
9157,56.0,0,120,13.0,105.0
9158,56.0,0,120,12.0,105.0
9159,58.0,0,384,2.0,92.0
9160,82.0,120,384,0.0,92.0
9161,70.0,0,384,1.0,92.0
9162,65.0,120,72,11.0,105.0
9163,44.0,0,192,14.0,105.0
9164,58.0,0,72,13.0,125.0
9165,58.0,0,72,12.0,125.0
9166,77.0,0,72,10.0,116.0
9167,75.0,0,72,10.0,116.0
9168,63.0,0,144,11.0,105.0
9169,67.0,0,144,3.0,92.0
9170,55.0,0,144,12.0,105.0
9171,43.0,0,144,14.0,105.0
9172,63.0,0,144,2.0,92.0
9173,75.0,0,144,1.0,92.0
9174,55.0,120,144,13.0,105.0
9175,63.0,0,144,3.0,92.0
9176,87.0,0,144,0.0,92.0
9177,70.0,120,72,10.0,116.0
9178,72.0,0,72,10.0,116.0
9179,68.0,0,72,11.0,105.0
9180,56.0,0,144,12.0,105.0
9181,77.0,0,144,1.0,92.0
9182,68.0,0,144,3.0,92.0
9183,44.0,120,144,14.0,105.0
9184,80.0,0,144,0.0,92.0
9185,80.0,0,144,1.0,92.0
9186,56.0,0,144,2.0,92.0
9187,56.0,0,144,13.0,105.0
9188,65.0,0,144,3.0,92.0
9189,65.0,0,72,11.0,105.0
9190,68.0,120,72,10.0,116.0
9191,67.0,0,72,10.0,116.0
9192,63.0,0,72,11.0,105.0
9193,58.0,0,144,12.0,105.0
9194,79.0,0,144,1.0,92.0
9195,75.0,0,144,1.0,92.0
9196,63.0,0,144,3.0,92.0
9197,58.0,0,144,13.0,105.0
9198,67.0,0,144,3.0,92.0
9199,58.0,0,144,2.0,92.0
9200,46.0,120,144,14.0,105.0
9201,79.0,0,144,0.0,92.0
9202,70.0,120,72,10.0,116.0
9203,67.0,0,72,11.0,105.0
9204,68.0,0,72,10.0,116.0
9205,65.0,0,72,11.0,105.0
9206,74.0,0,144,1.0,92.0
9207,46.0,0,144,13.0,105.0
9208,77.0,0,144,0.0,92.0
9209,77.0,0,144,1.0,92.0
9210,58.0,0,144,3.0,92.0
9211,65.0,0,144,3.0,92.0
9212,46.0,0,144,2.0,92.0
9213,58.0,120,144,12.0,105.0
9214,34.0,0,144,14.0,105.0
9215,65.0,120,72,10.0,116.0
9216,62.0,0,72,11.0,105.0
9217,63.0,0,120,11.0,105.0
9218,63.0,0,120,10.0,105.0
9219,51.0,0,144,13.0,105.0
9220,51.0,120,144,12.0,105.0
9221,39.0,0,144,14.0,105.0
9222,51.0,0,156,2.0,92.0
9223,55.0,0,156,3.0,92.0
9224,63.0,0,156,3.0,92.0
9225,75.0,0,156,0.0,92.0
9226,75.0,0,156,1.0,92.0
9227,58.0,0,78,10.0,105.0
9228,58.0,120,78,11.0,105.0
9229,55.0,0,78,10.0,105.0
9230,55.0,0,78,11.0,105.0
9231,63.0,0,384,4.0,105.0
9232,63.0,120,144,13.0,105.0
9233,63.0,0,144,12.0,105.0
9234,75.0,0,384,4.0,105.0
9235,51.0,0,384,5.0,105.0
9236,51.0,0,144,14.0,105.0
9237,55.0,0,156,3.0,92.0
9238,63.0,0,156,3.0,92.0
9239,67.0,0,156,2.0,92.0
9240,58.0,0,156,2.0,92.0
9241,79.0,0,156,0.0,92.0
9242,70.0,0,156,1.0,92.0
9243,75.0,0,156,1.0,92.0
9244,58.0,120,78,10.0,105.0
9245,58.0,0,78,11.0,105.0
9246,63.0,0,78,11.0,105.0
9247,63.0,0,78,10.0,105.0
9248,58.0,0,156,2.0,92.0
9249,55.0,0,156,3.0,92.0
9250,67.0,0,156,2.0,92.0
9251,75.0,120,156,1.0,92.0
9252,70.0,0,156,1.0,92.0
9253,63.0,0,156,3.0,92.0
9254,79.0,0,156,0.0,92.0
9255,67.0,120,78,11.0,105.0
9256,67.0,0,78,10.0,105.0
9257,70.0,0,78,11.0,105.0
9258,70.0,0,78,10.0,105.0
9259,51.0,0,384,14.0,105.0
9260,63.0,0,384,12.0,105.0
9261,63.0,0,384,13.0,105.0
9262,58.0,0,156,2.0,92.0
9263,67.0,0,156,2.0,92.0
9264,75.0,0,156,1.0,92.0
9265,70.0,0,156,1.0,92.0
9266,79.0,0,156,0.0,92.0
9267,63.0,120,156,3.0,92.0
9268,55.0,0,156,3.0,92.0
9269,67.0,0,78,10.0,105.0
9270,67.0,120,78,11.0,105.0
9271,63.0,0,120,11.0,105.0
9272,63.0,0,120,10.0,105.0
9273,51.0,120,144,12.0,105.0
9274,51.0,0,144,13.0,105.0
9275,39.0,0,144,14.0,105.0
9276,58.0,120,78,10.0,105.0
9277,58.0,0,78,11.0,105.0
9278,55.0,0,78,10.0,105.0
9279,55.0,0,78,11.0,105.0
9280,63.0,0,144,12.0,105.0
9281,51.0,0,384,5.0,105.0
9282,75.0,0,384,4.0,105.0
9283,63.0,0,144,13.0,105.0
9284,51.0,120,144,14.0,105.0
9285,63.0,0,384,4.0,105.0
9286,67.0,0,156,2.0,92.0
9287,70.0,0,156,1.0,92.0
9288,79.0,0,156,0.0,92.0
9289,63.0,0,156,3.0,92.0
9290,55.0,0,156,3.0,92.0
9291,75.0,0,156,1.0,92.0
9292,58.0,0,156,2.0,92.0
9293,58.0,0,78,10.0,105.0
9294,58.0,120,78,11.0,105.0
9295,63.0,0,78,10.0,105.0
9296,63.0,0,78,11.0,105.0
9297,67.0,0,156,2.0,92.0
9298,58.0,0,156,2.0,92.0
9299,75.0,120,156,1.0,92.0
9300,79.0,0,156,0.0,92.0
9301,63.0,0,156,3.0,92.0
9302,55.0,0,156,3.0,92.0
9303,70.0,0,156,1.0,92.0
9304,67.0,120,78,10.0,105.0
9305,67.0,0,78,11.0,105.0
9306,70.0,0,78,10.0,105.0
9307,70.0,0,78,11.0,105.0
9308,63.0,0,384,13.0,105.0
9309,51.0,0,384,14.0,105.0
9310,63.0,0,384,12.0,105.0
9311,55.0,0,156,3.0,92.0
9312,63.0,0,156,3.0,92.0
9313,67.0,0,156,2.0,92.0
9314,58.0,0,156,2.0,92.0
9315,75.0,0,156,1.0,92.0
9316,79.0,120,156,0.0,92.0
9317,70.0,0,156,1.0,92.0
9318,67.0,120,78,10.0,105.0
9319,67.0,0,78,11.0,105.0
9320,65.0,0,120,10.0,105.0
9321,65.0,0,120,11.0,105.0
9322,51.0,0,144,13.0,105.0
9323,39.0,0,144,14.0,105.0
9324,51.0,120,144,12.0,105.0
9325,60.0,120,78,11.0,105.0
9326,60.0,0,78,10.0,105.0
9327,56.0,0,78,11.0,105.0
9328,56.0,0,78,10.0,105.0
9329,63.0,0,384,4.0,105.0
9330,51.0,0,384,5.0,105.0
9331,75.0,0,384,4.0,105.0
9332,63.0,0,144,13.0,105.0
9333,51.0,120,144,14.0,105.0
9334,63.0,0,144,12.0,105.0
9335,65.0,0,156,3.0,92.0
9336,60.0,0,156,2.0,92.0
9337,68.0,0,156,1.0,92.0
9338,77.0,0,156,1.0,92.0
9339,68.0,0,156,3.0,92.0
9340,84.0,0,156,0.0,92.0
9341,56.0,0,156,2.0,92.0
9342,60.0,120,78,11.0,105.0
9343,60.0,0,78,10.0,105.0
9344,65.0,0,78,10.0,105.0
9345,65.0,0,78,11.0,105.0
9346,77.0,0,156,1.0,92.0
9347,68.0,0,156,1.0,92.0
9348,65.0,120,156,3.0,92.0
9349,68.0,0,156,3.0,92.0
9350,84.0,0,156,0.0,92.0
9351,56.0,0,156,2.0,92.0
9352,60.0,0,156,2.0,92.0
9353,68.0,0,78,10.0,105.0
9354,68.0,120,78,11.0,105.0
9355,72.0,0,78,11.0,105.0
9356,72.0,0,78,10.0,105.0
9357,51.0,0,384,14.0,105.0
9358,63.0,0,384,13.0,105.0
9359,63.0,0,384,12.0,105.0
9360,84.0,0,156,0.0,92.0
9361,65.0,0,156,3.0,92.0
9362,68.0,0,156,1.0,92.0
9363,68.0,120,156,3.0,92.0
9364,60.0,0,156,2.0,92.0
9365,56.0,0,156,2.0,92.0
9366,77.0,0,156,1.0,92.0
9367,68.0,0,78,10.0,105.0
9368,68.0,120,78,11.0,105.0
9369,65.0,0,120,10.0,105.0
9370,65.0,0,120,11.0,105.0
9371,39.0,0,144,14.0,105.0
9372,51.0,0,144,12.0,105.0
9373,51.0,0,144,13.0,105.0
9374,60.0,0,78,10.0,105.0
9375,60.0,120,78,11.0,105.0
9376,56.0,0,78,10.0,105.0
9377,56.0,0,78,11.0,105.0
9378,51.0,0,144,14.0,105.0
9379,75.0,120,384,4.0,105.0
9380,63.0,0,384,4.0,105.0
9381,63.0,120,144,13.0,105.0
9382,63.0,0,144,12.0,105.0
9383,51.0,0,384,5.0,105.0
9384,77.0,0,156,1.0,92.0
9385,56.0,0,156,2.0,92.0
9386,60.0,0,156,2.0,92.0
9387,84.0,0,156,0.0,92.0
9388,68.0,0,156,1.0,92.0
9389,68.0,0,156,3.0,92.0
9390,65.0,0,156,3.0,92.0
9391,60.0,0,78,10.0,105.0
9392,60.0,120,78,11.0,105.0
9393,65.0,0,78,11.0,105.0
9394,65.0,0,78,10.0,105.0
9395,68.0,0,156,3.0,92.0
9396,65.0,0,156,3.0,92.0
9397,60.0,0,156,2.0,92.0
9398,68.0,0,156,1.0,92.0
9399,56.0,0,156,2.0,92.0
9400,77.0,120,156,1.0,92.0
9401,84.0,0,156,0.0,92.0
9402,68.0,120,78,11.0,105.0
9403,68.0,0,78,10.0,105.0
9404,72.0,0,78,11.0,105.0
9405,72.0,0,78,10.0,105.0
9406,63.0,0,384,13.0,105.0
9407,63.0,0,384,12.0,105.0
9408,51.0,0,384,14.0,105.0
9409,56.0,0,156,2.0,92.0
9410,84.0,0,156,0.0,92.0
9411,68.0,0,156,3.0,92.0
9412,77.0,0,156,1.0,92.0
9413,60.0,120,156,2.0,92.0
9414,65.0,0,156,3.0,92.0
9415,68.0,0,156,1.0,92.0
9416,68.0,0,78,10.0,105.0
9417,68.0,120,78,11.0,105.0
9418,62.0,0,120,10.0,105.0
9419,62.0,0,120,11.0,105.0
9420,50.0,0,144,13.0,105.0
9421,50.0,0,144,12.0,105.0
9422,38.0,0,144,14.0,105.0
9423,70.0,120,96,10.0,105.0
9424,70.0,0,96,11.0,105.0
9425,80.0,0,120,11.0,105.0
9426,80.0,0,120,10.0,105.0
9427,50.0,0,144,14.0,105.0
9428,46.0,0,384,5.0,105.0
9429,62.0,120,144,12.0,105.0
9430,62.0,0,144,13.0,105.0
9431,58.0,0,192,3.0,92.0
9432,89.0,0,192,0.0,92.0
9433,80.0,0,192,1.0,92.0
9434,82.0,0,192,1.0,92.0
9435,68.0,0,192,3.0,92.0
9436,65.0,0,192,2.0,92.0
9437,56.0,0,192,2.0,92.0
9438,70.0,120,96,10.0,105.0
9439,70.0,0,96,11.0,105.0
9440,80.0,0,120,11.0,105.0
9441,80.0,0,120,10.0,105.0
9442,89.0,120,192,0.0,92.0
9443,58.0,0,192,3.0,92.0
9444,56.0,0,192,2.0,92.0
9445,82.0,0,192,1.0,92.0
9446,80.0,0,192,1.0,92.0
9447,68.0,0,192,3.0,92.0
9448,65.0,0,192,2.0,92.0
9449,70.0,0,96,11.0,105.0
9450,70.0,120,96,10.0,105.0
9451,80.0,0,120,11.0,105.0
9452,80.0,120,120,10.0,105.0
9453,62.0,0,384,12.0,105.0
9454,50.0,0,384,14.0,105.0
9455,46.0,0,384,5.0,105.0
9456,62.0,0,384,13.0,105.0
9457,68.0,0,192,3.0,92.0
9458,58.0,0,192,3.0,92.0
9459,82.0,0,192,1.0,92.0
9460,80.0,0,192,1.0,92.0
9461,65.0,0,192,2.0,92.0
9462,56.0,0,192,2.0,92.0
9463,89.0,0,192,0.0,92.0
9464,70.0,120,96,11.0,105.0
9465,70.0,0,96,10.0,105.0
9466,80.0,0,78,11.0,105.0
9467,80.0,120,78,10.0,105.0
9468,38.0,0,144,14.0,105.0
9469,50.0,0,144,12.0,105.0
9470,50.0,0,144,13.0,105.0
9471,79.0,0,78,10.0,105.0
9472,79.0,120,78,11.0,105.0
9473,77.0,0,78,11.0,105.0
9474,77.0,0,78,10.0,105.0
9475,62.0,0,144,12.0,105.0
9476,58.0,120,1344,4.0,105.0
9477,50.0,0,144,14.0,105.0
9478,70.0,0,1344,4.0,105.0
9479,46.0,0,384,5.0,105.0
9480,62.0,0,144,13.0,105.0
9481,56.0,0,192,2.0,92.0
9482,80.0,0,192,1.0,92.0
9483,68.0,0,192,3.0,92.0
9484,82.0,0,192,1.0,92.0
9485,65.0,0,192,2.0,92.0
9486,58.0,120,192,3.0,92.0
9487,89.0,0,192,0.0,92.0
9488,75.0,0,78,10.0,105.0
9489,75.0,120,78,11.0,105.0
9490,74.0,0,78,11.0,105.0
9491,74.0,0,78,10.0,105.0
9492,58.0,0,192,3.0,92.0
9493,80.0,0,192,1.0,92.0
9494,82.0,0,192,1.0,92.0
9495,56.0,0,192,2.0,92.0
9496,65.0,0,192,2.0,92.0
9497,89.0,0,192,0.0,92.0
9498,68.0,0,192,3.0,92.0
9499,72.0,120,78,11.0,105.0
9500,72.0,0,78,10.0,105.0
9501,70.0,120,78,10.0,105.0
9502,70.0,0,78,11.0,105.0
9503,50.0,120,384,14.0,105.0
9504,62.0,0,384,12.0,105.0
9505,62.0,0,384,13.0,105.0
9506,56.0,0,192,2.0,92.0
9507,80.0,0,192,1.0,92.0
9508,82.0,0,192,1.0,92.0
9509,89.0,0,192,0.0,92.0
9510,65.0,0,192,2.0,92.0
9511,58.0,0,192,3.0,92.0
9512,68.0,0,192,3.0,92.0
9513,68.0,120,78,11.0,105.0
9514,68.0,0,78,10.0,105.0
9515,67.0,0,78,11.0,105.0
9516,67.0,0,78,10.0,105.0
9517,63.0,0,132,2.0,105.0
9518,55.0,0,132,2.0,105.0
9519,79.0,0,132,1.0,105.0
9520,82.0,0,132,1.0,105.0
9521,63.0,0,132,3.0,105.0
9522,67.0,0,132,3.0,92.0
9523,91.0,0,132,0.0,105.0
9524,51.0,120,192,14.0,105.0
9525,63.0,0,192,12.0,105.0
9526,63.0,0,192,13.0,105.0
9527,75.0,0,78,11.0,105.0
9528,75.0,120,78,10.0,105.0
9529,70.0,0,78,10.0,105.0
9530,70.0,0,78,11.0,105.0
9531,79.0,0,132,1.0,105.0
9532,55.0,0,132,2.0,105.0
9533,63.0,120,132,2.0,105.0
9534,82.0,0,132,1.0,105.0
9535,91.0,0,132,0.0,105.0
9536,67.0,0,132,3.0,105.0
9537,70.0,0,132,3.0,105.0
9538,67.0,0,78,11.0,105.0
9539,67.0,120,78,10.0,105.0
9540,65.0,0,78,11.0,105.0
9541,65.0,0,78,10.0,105.0
9542,89.0,0,132,0.0,105.0
9543,80.0,0,132,1.0,105.0
9544,65.0,0,132,2.0,105.0
9545,56.0,0,132,2.0,105.0
9546,77.0,0,132,1.0,105.0
9547,68.0,120,132,3.0,105.0
9548,65.0,0,132,3.0,105.0
9549,56.0,0,192,12.0,105.0
9550,44.0,0,192,14.0,105.0
9551,56.0,0,192,13.0,105.0
9552,72.0,120,78,11.0,105.0
9553,72.0,0,78,10.0,105.0
9554,68.0,0,78,11.0,105.0
9555,68.0,0,78,10.0,105.0
9556,56.0,120,132,2.0,105.0
9557,65.0,0,132,3.0,105.0
9558,68.0,0,132,3.0,105.0
9559,77.0,0,132,1.0,105.0
9560,80.0,0,132,1.0,105.0
9561,89.0,0,132,0.0,105.0
9562,65.0,0,132,2.0,105.0
9563,70.0,0,384,4.0,105.0
9564,58.0,0,384,4.0,105.0
9565,46.0,0,384,5.0,105.0
9566,65.0,0,78,11.0,105.0
9567,65.0,120,78,10.0,105.0
9568,63.0,0,78,10.0,105.0
9569,63.0,120,78,11.0,105.0
9570,55.0,0,132,2.0,105.0
9571,79.0,0,132,1.0,105.0
9572,75.0,0,132,1.0,105.0
9573,67.0,0,132,3.0,105.0
9574,63.0,0,132,3.0,105.0
9575,87.0,0,132,0.0,105.0
9576,63.0,0,132,2.0,105.0
9577,46.0,0,192,14.0,105.0
9578,58.0,0,192,12.0,105.0
9579,58.0,0,192,13.0,105.0
9580,70.0,0,78,10.0,105.0
9581,70.0,120,78,11.0,105.0
9582,67.0,0,78,11.0,105.0
9583,67.0,0,78,10.0,105.0
9584,63.0,120,132,3.0,105.0
9585,67.0,0,132,3.0,105.0
9586,55.0,0,132,2.0,105.0
9587,63.0,0,132,2.0,105.0
9588,75.0,0,132,1.0,105.0
9589,79.0,0,132,1.0,105.0
9590,87.0,0,132,0.0,105.0
9591,70.0,0,384,4.0,105.0
9592,51.0,0,384,5.0,105.0
9593,63.0,0,384,4.0,105.0
9594,63.0,120,78,10.0,105.0
9595,63.0,0,78,11.0,105.0
9596,62.0,120,78,11.0,105.0
9597,62.0,0,78,10.0,105.0
9598,62.0,0,132,2.0,105.0
9599,77.0,0,132,1.0,105.0
9600,65.0,0,132,3.0,105.0
9601,53.0,0,132,2.0,105.0
9602,74.0,0,132,1.0,105.0
9603,58.0,0,132,3.0,105.0
9604,86.0,0,132,0.0,105.0
9605,46.0,0,192,13.0,105.0
9606,58.0,0,192,12.0,105.0
9607,34.0,0,192,14.0,105.0
9608,68.0,0,78,11.0,105.0
9609,68.0,120,78,10.0,105.0
9610,65.0,0,78,11.0,105.0
9611,65.0,0,78,10.0,105.0
9612,58.0,0,132,3.0,105.0
9613,86.0,0,132,0.0,105.0
9614,65.0,0,132,3.0,105.0
9615,74.0,120,132,1.0,105.0
9616,77.0,0,132,1.0,105.0
9617,62.0,0,132,2.0,105.0
9618,53.0,0,132,2.0,105.0
9619,62.0,0,78,10.0,105.0
9620,62.0,120,78,11.0,105.0
9621,63.0,0,120,11.0,105.0
9622,63.0,0,120,10.0,105.0
9623,51.0,0,144,13.0,105.0
9624,39.0,0,144,14.0,105.0
9625,51.0,0,144,12.0,105.0
9626,75.0,0,156,1.0,92.0
9627,63.0,120,156,3.0,92.0
9628,63.0,0,156,2.0,105.0
9629,55.0,0,156,3.0,92.0
9630,55.0,0,156,2.0,105.0
9631,87.0,0,156,0.0,92.0
9632,58.0,0,78,11.0,105.0
9633,58.0,120,78,10.0,105.0
9634,55.0,0,78,10.0,105.0
9635,55.0,0,78,11.0,105.0
9636,51.0,0,144,14.0,105.0
9637,51.0,0,384,5.0,105.0
9638,63.0,0,144,12.0,105.0
9639,63.0,0,144,13.0,105.0
9640,75.0,0,384,4.0,105.0
9641,63.0,0,384,4.0,105.0
9642,70.0,0,156,1.0,92.0
9643,79.0,0,156,0.0,92.0
9644,58.0,120,156,2.0,92.0
9645,67.0,0,156,2.0,92.0
9646,55.0,0,156,3.0,92.0
9647,75.0,0,156,1.0,92.0
9648,63.0,0,156,3.0,92.0
9649,58.0,0,78,10.0,105.0
9650,58.0,120,78,11.0,105.0
9651,63.0,0,78,11.0,105.0
9652,63.0,0,78,10.0,105.0
9653,70.0,0,156,1.0,92.0
9654,75.0,0,156,1.0,92.0
9655,55.0,0,156,3.0,92.0
9656,58.0,0,156,2.0,92.0
9657,79.0,0,156,0.0,92.0
9658,67.0,0,156,2.0,92.0
9659,63.0,0,156,3.0,92.0
9660,67.0,120,78,10.0,105.0
9661,67.0,0,78,11.0,105.0
9662,70.0,0,78,11.0,105.0
9663,70.0,120,78,10.0,105.0
9664,63.0,0,384,12.0,105.0
9665,63.0,0,384,13.0,105.0
9666,51.0,120,384,14.0,105.0
9667,75.0,0,156,1.0,92.0
9668,70.0,0,156,1.0,92.0
9669,79.0,0,156,0.0,92.0
9670,58.0,0,156,2.0,92.0
9671,67.0,0,156,2.0,92.0
9672,55.0,0,156,3.0,92.0
9673,63.0,0,156,3.0,92.0
9674,67.0,120,78,11.0,105.0
9675,67.0,0,78,10.0,105.0
9676,63.0,0,120,10.0,105.0
9677,63.0,0,120,11.0,105.0
9678,39.0,0,144,14.0,105.0
9679,51.0,0,144,12.0,105.0
9680,51.0,0,144,13.0,105.0
9681,58.0,0,78,11.0,105.0
9682,58.0,120,78,10.0,105.0
9683,55.0,0,78,11.0,105.0
9684,55.0,0,78,10.0,105.0
9685,63.0,0,144,13.0,105.0
9686,51.0,0,144,14.0,105.0
9687,63.0,120,384,4.0,105.0
9688,75.0,0,384,4.0,105.0
9689,63.0,0,144,12.0,105.0
9690,51.0,0,384,5.0,105.0
9691,75.0,0,156,1.0,92.0
9692,70.0,0,156,1.0,92.0
9693,58.0,0,156,2.0,92.0
9694,79.0,0,156,0.0,92.0
9695,63.0,120,156,3.0,92.0
9696,55.0,0,156,3.0,92.0
9697,67.0,0,156,2.0,92.0
9698,58.0,0,78,11.0,105.0
9699,58.0,120,78,10.0,105.0
9700,63.0,0,78,11.0,105.0
9701,63.0,120,78,10.0,105.0
9702,55.0,0,156,3.0,92.0
9703,63.0,0,156,3.0,92.0
9704,67.0,0,156,2.0,92.0
9705,79.0,0,156,0.0,92.0
9706,70.0,0,156,1.0,92.0
9707,75.0,0,156,1.0,92.0
9708,58.0,0,156,2.0,92.0
9709,67.0,120,78,10.0,105.0
9710,67.0,0,78,11.0,105.0
9711,70.0,0,78,10.0,105.0
9712,70.0,0,78,11.0,105.0
9713,63.0,0,384,13.0,105.0
9714,63.0,0,384,12.0,105.0
9715,51.0,0,384,14.0,105.0
9716,67.0,0,156,2.0,92.0
9717,58.0,0,156,2.0,92.0
9718,55.0,0,156,3.0,92.0
9719,70.0,0,156,1.0,92.0
9720,75.0,0,156,1.0,92.0
9721,79.0,0,156,0.0,92.0
9722,63.0,120,156,3.0,92.0
9723,67.0,120,78,10.0,105.0
9724,67.0,0,78,11.0,105.0
9725,65.0,0,120,11.0,105.0
9726,65.0,0,120,10.0,105.0
9727,39.0,0,144,14.0,105.0
9728,51.0,0,144,12.0,105.0
9729,51.0,0,144,13.0,105.0
9730,60.0,0,78,10.0,105.0
9731,60.0,120,78,11.0,105.0
9732,56.0,0,78,11.0,105.0
9733,56.0,0,78,10.0,105.0
9734,51.0,120,384,5.0,105.0
9735,63.0,0,144,13.0,105.0
9736,63.0,0,144,12.0,105.0
9737,75.0,0,384,4.0,105.0
9738,63.0,0,384,4.0,105.0
9739,51.0,0,144,14.0,105.0
9740,65.0,120,156,3.0,92.0
9741,56.0,0,156,2.0,92.0
9742,84.0,0,156,0.0,92.0
9743,60.0,0,156,2.0,92.0
9744,68.0,0,156,3.0,92.0
9745,77.0,0,156,1.0,92.0
9746,68.0,0,156,1.0,92.0
9747,60.0,120,78,10.0,105.0
9748,60.0,0,78,11.0,105.0
9749,65.0,0,78,10.0,105.0
9750,65.0,0,78,11.0,105.0
9751,68.0,0,156,3.0,92.0
9752,65.0,0,156,3.0,92.0
9753,77.0,0,156,1.0,92.0
9754,84.0,0,156,0.0,92.0
9755,68.0,0,156,1.0,92.0
9756,60.0,0,156,2.0,92.0
9757,56.0,0,156,2.0,92.0
9758,68.0,0,78,10.0,105.0
9759,68.0,120,78,11.0,105.0
9760,72.0,0,78,10.0,105.0
9761,72.0,0,78,11.0,105.0
9762,63.0,0,384,12.0,105.0
9763,63.0,120,384,13.0,105.0
9764,51.0,0,384,14.0,105.0
9765,68.0,0,156,3.0,92.0
9766,68.0,0,156,1.0,92.0
9767,77.0,0,156,1.0,92.0
9768,65.0,120,156,3.0,92.0
9769,84.0,0,156,0.0,92.0
9770,60.0,0,156,2.0,92.0
9771,56.0,0,156,2.0,92.0
9772,68.0,0,78,11.0,105.0
9773,68.0,120,78,10.0,105.0
9774,65.0,0,120,10.0,105.0
9775,65.0,120,120,11.0,105.0
9776,51.0,0,144,13.0,105.0
9777,39.0,0,144,14.0,105.0
9778,51.0,0,144,12.0,105.0
9779,60.0,120,78,10.0,105.0
9780,60.0,0,78,11.0,105.0
9781,56.0,120,78,10.0,105.0
9782,56.0,0,78,11.0,105.0
9783,63.0,0,384,4.0,105.0
9784,63.0,0,144,13.0,105.0
9785,63.0,0,144,12.0,105.0
9786,51.0,0,144,14.0,105.0
9787,75.0,0,384,4.0,105.0
9788,51.0,0,384,5.0,105.0
9789,60.0,0,156,2.0,92.0
9790,56.0,0,156,2.0,92.0
9791,77.0,0,156,1.0,92.0
9792,68.0,0,156,3.0,92.0
9793,65.0,0,156,3.0,92.0
9794,84.0,0,156,0.0,92.0
9795,68.0,0,156,1.0,92.0
9796,60.0,0,78,11.0,105.0
9797,60.0,120,78,10.0,105.0
9798,65.0,0,78,10.0,105.0
9799,65.0,0,78,11.0,105.0
9800,65.0,120,156,3.0,92.0
9801,60.0,0,156,2.0,92.0
9802,56.0,0,156,2.0,92.0
9803,77.0,0,156,1.0,92.0
9804,68.0,0,156,1.0,92.0
9805,68.0,0,156,3.0,92.0
9806,84.0,0,156,0.0,92.0
9807,68.0,0,78,11.0,105.0
9808,68.0,120,78,10.0,105.0
9809,72.0,0,78,11.0,105.0
9810,72.0,0,78,10.0,105.0
9811,51.0,0,384,14.0,105.0
9812,63.0,0,384,13.0,105.0
9813,63.0,0,384,12.0,105.0
9814,60.0,120,156,2.0,92.0
9815,56.0,0,156,2.0,92.0
9816,68.0,0,156,3.0,92.0
9817,65.0,0,156,3.0,92.0
9818,68.0,0,156,1.0,92.0
9819,77.0,0,156,1.0,92.0
9820,84.0,0,156,0.0,92.0
9821,68.0,0,78,10.0,105.0
9822,68.0,120,78,11.0,105.0
9823,62.0,0,120,10.0,105.0
9824,62.0,0,120,11.0,105.0
9825,50.0,0,144,12.0,105.0
9826,50.0,0,144,13.0,105.0
9827,38.0,0,144,14.0,105.0
9828,70.0,120,96,10.0,105.0
9829,70.0,0,96,11.0,105.0
9830,80.0,0,120,11.0,105.0
9831,80.0,0,120,10.0,105.0
9832,46.0,0,384,5.0,105.0
9833,50.0,0,144,14.0,105.0
9834,62.0,0,144,12.0,105.0
9835,62.0,0,144,13.0,105.0
9836,80.0,120,192,1.0,92.0
9837,56.0,0,192,2.0,92.0
9838,65.0,0,192,2.0,92.0
9839,89.0,0,192,0.0,92.0
9840,68.0,0,192,3.0,92.0
9841,58.0,0,192,3.0,92.0
9842,82.0,0,192,1.0,92.0
9843,70.0,0,96,11.0,105.0
9844,70.0,120,96,10.0,105.0
9845,80.0,0,120,11.0,105.0
9846,80.0,120,120,10.0,105.0
9847,89.0,0,192,0.0,92.0
9848,58.0,0,192,3.0,92.0
9849,68.0,0,192,3.0,92.0
9850,65.0,0,192,2.0,92.0
9851,56.0,0,192,2.0,92.0
9852,80.0,0,192,1.0,92.0
9853,82.0,0,192,1.0,92.0
9854,70.0,120,96,10.0,105.0
9855,70.0,0,96,11.0,105.0
9856,80.0,0,120,11.0,105.0
9857,80.0,120,120,10.0,105.0
9858,62.0,0,384,13.0,105.0
9859,62.0,0,384,12.0,105.0
9860,46.0,0,384,5.0,105.0
9861,50.0,0,384,14.0,105.0
9862,80.0,0,192,1.0,92.0
9863,89.0,0,192,0.0,92.0
9864,56.0,0,192,2.0,92.0
9865,65.0,0,192,2.0,92.0
9866,82.0,0,192,1.0,92.0
9867,68.0,0,192,3.0,92.0
9868,58.0,0,192,3.0,92.0
9869,70.0,0,96,10.0,105.0
9870,70.0,120,96,11.0,105.0
9871,80.0,120,78,10.0,105.0
9872,80.0,0,78,11.0,105.0
9873,50.0,0,144,13.0,105.0
9874,50.0,0,144,12.0,105.0
9875,38.0,0,144,14.0,105.0
9876,79.0,120,78,10.0,105.0
9877,79.0,0,78,11.0,105.0
9878,77.0,0,78,10.0,105.0
9879,77.0,120,78,11.0,105.0
9880,50.0,0,144,14.0,105.0
9881,62.0,0,144,13.0,105.0
9882,62.0,0,144,12.0,105.0
9883,70.0,120,1344,4.0,105.0
9884,58.0,0,1344,4.0,105.0
9885,46.0,0,384,5.0,105.0
9886,82.0,0,192,1.0,92.0
9887,80.0,0,192,1.0,92.0
9888,65.0,0,192,2.0,92.0
9889,68.0,0,192,3.0,92.0
9890,58.0,0,192,3.0,92.0
9891,89.0,0,192,0.0,92.0
9892,56.0,0,192,2.0,92.0
9893,75.0,0,78,11.0,105.0
9894,75.0,120,78,10.0,105.0
9895,74.0,0,78,11.0,105.0
9896,74.0,0,78,10.0,105.0
9897,68.0,0,192,3.0,92.0
9898,58.0,0,192,3.0,92.0
9899,89.0,0,192,0.0,92.0
9900,56.0,0,192,2.0,92.0
9901,80.0,120,192,1.0,92.0
9902,82.0,0,192,1.0,92.0
9903,65.0,0,192,2.0,92.0
9904,72.0,0,78,10.0,105.0
9905,72.0,120,78,11.0,105.0
9906,70.0,0,78,10.0,105.0
9907,70.0,0,78,11.0,105.0
9908,62.0,0,384,13.0,105.0
9909,50.0,0,384,14.0,105.0
9910,62.0,0,384,12.0,105.0
9911,89.0,0,192,0.0,92.0
9912,68.0,0,192,3.0,92.0
9913,58.0,0,192,3.0,92.0
9914,65.0,120,192,2.0,92.0
9915,56.0,0,192,2.0,92.0
9916,82.0,0,192,1.0,92.0
9917,80.0,0,192,1.0,92.0
9918,68.0,120,78,10.0,105.0
9919,68.0,0,78,11.0,105.0
9920,67.0,120,72,11.0,105.0
9921,67.0,0,72,10.0,105.0
9922,49.0,0,144,12.0,105.0
9923,49.0,0,144,13.0,105.0
9924,37.0,0,144,14.0,105.0
9925,79.0,0,120,10.0,105.0
9926,79.0,120,120,11.0,105.0
9927,82.0,0,120,10.0,105.0
9928,82.0,0,120,11.0,105.0
9929,61.0,0,144,13.0,105.0
9930,49.0,0,144,14.0,105.0
9931,51.0,0,384,5.0,105.0
9932,61.0,0,144,12.0,105.0
9933,51.0,120,156,3.0,92.0
9934,63.0,0,156,3.0,92.0
9935,55.0,0,156,2.0,92.0
9936,58.0,0,156,2.0,92.0
9937,87.0,0,156,0.0,92.0
9938,79.0,0,156,1.0,92.0
9939,70.0,0,156,1.0,92.0
9940,79.0,0,96,10.0,105.0
9941,79.0,120,96,11.0,105.0
9942,82.0,0,120,11.0,105.0
9943,82.0,0,120,10.0,105.0
9944,58.0,0,156,2.0,92.0
9945,63.0,0,156,3.0,92.0
9946,55.0,0,156,2.0,92.0
9947,51.0,0,156,3.0,92.0
9948,79.0,0,156,1.0,92.0
9949,70.0,0,156,1.0,92.0
9950,87.0,0,156,0.0,92.0
9951,79.0,120,96,10.0,105.0
9952,79.0,0,96,11.0,105.0
9953,82.0,0,120,11.0,105.0
9954,82.0,0,120,10.0,105.0
9955,61.0,0,384,12.0,105.0
9956,51.0,0,384,5.0,105.0
9957,61.0,0,384,13.0,105.0
9958,49.0,120,384,14.0,105.0
9959,70.0,120,156,1.0,92.0
9960,79.0,0,156,1.0,92.0
9961,87.0,0,156,0.0,92.0
9962,51.0,0,156,3.0,92.0
9963,63.0,0,156,3.0,92.0
9964,55.0,0,156,2.0,92.0
9965,58.0,0,156,2.0,92.0
9966,79.0,0,96,11.0,105.0
9967,79.0,120,96,10.0,105.0
9968,82.0,120,78,10.0,105.0
9969,82.0,0,78,11.0,105.0
9970,49.0,0,144,13.0,105.0
9971,37.0,0,144,14.0,105.0
9972,49.0,0,144,12.0,105.0
9973,80.0,0,78,11.0,105.0
9974,80.0,120,78,10.0,105.0
9975,79.0,0,78,11.0,105.0
9976,79.0,0,78,10.0,105.0
9977,75.0,0,1344,4.0,105.0
9978,49.0,120,144,14.0,105.0
9979,63.0,0,1344,4.0,105.0
9980,61.0,0,144,12.0,105.0
9981,51.0,0,384,5.0,105.0
9982,61.0,0,144,13.0,105.0
9983,51.0,0,156,3.0,92.0
9984,70.0,0,156,1.0,92.0
9985,79.0,0,156,1.0,92.0
9986,58.0,0,156,2.0,92.0
9987,55.0,0,156,2.0,92.0
9988,87.0,0,156,0.0,92.0
9989,63.0,0,156,3.0,92.0
9990,77.0,120,78,10.0,105.0
9991,77.0,0,78,11.0,105.0
9992,75.0,0,78,11.0,105.0
9993,75.0,0,78,10.0,105.0
9994,51.0,0,156,3.0,92.0
9995,63.0,0,156,3.0,92.0
9996,70.0,0,156,1.0,92.0
9997,58.0,120,156,2.0,92.0
9998,55.0,0,156,2.0,92.0
9999,87.0,0,156,0.0,92.0
10000,79.0,0,156,1.0,92.0
10001,73.0,0,78,10.0,105.0
10002,73.0,120,78,11.0,105.0
10003,72.0,0,78,11.0,105.0
10004,72.0,0,78,10.0,105.0
10005,49.0,0,384,14.0,105.0
10006,61.0,0,384,13.0,105.0
10007,61.0,0,384,12.0,105.0
10008,55.0,0,156,2.0,92.0
10009,51.0,0,156,3.0,92.0
10010,63.0,0,156,3.0,92.0
10011,87.0,0,156,0.0,92.0
10012,70.0,0,156,1.0,92.0
10013,58.0,0,156,2.0,92.0
10014,79.0,120,156,1.0,92.0
10015,70.0,120,78,11.0,105.0
10016,70.0,0,78,10.0,105.0
10017,68.0,0,72,10.0,105.0
10018,68.0,0,72,11.0,105.0
10019,48.0,120,144,12.0,105.0
10020,36.0,0,144,14.0,105.0
10021,48.0,0,144,13.0,105.0
10022,80.0,0,120,11.0,105.0
10023,80.0,120,120,10.0,105.0
10024,84.0,0,120,10.0,105.0
10025,84.0,0,120,11.0,105.0
10026,48.0,0,144,14.0,105.0
10027,51.0,0,384,5.0,105.0
10028,60.0,0,144,12.0,105.0
10029,60.0,0,144,13.0,105.0
10030,51.0,0,156,3.0,92.0
10031,63.0,0,156,3.0,92.0
10032,60.0,0,156,2.0,92.0
10033,87.0,0,156,0.0,92.0
10034,72.0,0,156,1.0,92.0
10035,56.0,0,156,2.0,92.0
10036,80.0,120,156,1.0,92.0
10037,80.0,0,96,10.0,105.0
10038,80.0,120,96,11.0,105.0
10039,84.0,0,120,11.0,105.0
10040,84.0,0,120,10.0,105.0
10041,51.0,0,156,3.0,92.0
10042,87.0,0,156,0.0,92.0
10043,63.0,0,156,3.0,92.0
10044,60.0,120,156,2.0,92.0
10045,56.0,0,156,2.0,92.0
10046,80.0,0,156,1.0,92.0
10047,72.0,0,156,1.0,92.0
10048,80.0,0,96,11.0,105.0
10049,80.0,120,96,10.0,105.0
10050,84.0,120,120,11.0,105.0
10051,84.0,0,120,10.0,105.0
10052,51.0,0,384,5.0,105.0
10053,60.0,0,384,13.0,105.0
10054,60.0,0,384,12.0,105.0
10055,48.0,0,384,14.0,105.0
10056,80.0,0,156,1.0,92.0
10057,87.0,0,156,0.0,92.0
10058,72.0,0,156,1.0,92.0
10059,60.0,0,156,2.0,92.0
10060,56.0,0,156,2.0,92.0
10061,63.0,0,156,3.0,92.0
10062,51.0,0,156,3.0,92.0
10063,80.0,0,96,10.0,105.0
10064,80.0,120,96,11.0,105.0
10065,84.0,0,78,11.0,105.0
10066,84.0,0,78,10.0,105.0
10067,36.0,120,144,14.0,105.0
10068,48.0,0,144,12.0,105.0
10069,48.0,0,144,13.0,105.0
10070,82.0,120,78,11.0,105.0
10071,82.0,0,78,10.0,105.0
10072,80.0,0,78,11.0,105.0
10073,80.0,0,78,10.0,105.0
10074,60.0,0,144,13.0,105.0
10075,75.0,0,1344,4.0,105.0
10076,60.0,0,144,12.0,105.0
10077,63.0,0,1344,4.0,105.0
10078,48.0,0,144,14.0,105.0
10079,51.0,0,384,5.0,105.0
10080,72.0,0,156,1.0,92.0
10081,56.0,0,156,2.0,92.0
10082,60.0,0,156,2.0,92.0
10083,51.0,0,156,3.0,92.0
10084,80.0,0,156,1.0,92.0
10085,63.0,120,156,3.0,92.0
10086,87.0,0,156,0.0,92.0
10087,79.0,120,78,11.0,105.0
10088,79.0,0,78,10.0,105.0
10089,77.0,0,78,11.0,105.0
10090,77.0,0,78,10.0,105.0
10091,87.0,0,156,0.0,92.0
10092,63.0,120,156,3.0,92.0
10093,72.0,0,156,1.0,92.0
10094,80.0,0,156,1.0,92.0
10095,51.0,0,156,3.0,92.0
10096,56.0,0,156,2.0,92.0
10097,60.0,0,156,2.0,92.0
10098,75.0,0,78,10.0,105.0
10099,75.0,120,78,11.0,105.0
10100,73.0,0,78,10.0,105.0
10101,73.0,0,78,11.0,105.0
10102,60.0,0,384,13.0,105.0
10103,48.0,0,384,14.0,105.0
10104,60.0,0,384,12.0,105.0
10105,51.0,0,156,3.0,92.0
10106,63.0,0,156,3.0,92.0
10107,87.0,0,156,0.0,92.0
10108,80.0,0,156,1.0,92.0
10109,72.0,0,156,1.0,92.0
10110,60.0,0,156,2.0,92.0
10111,56.0,120,156,2.0,92.0
10112,72.0,0,78,10.0,105.0
10113,72.0,120,78,11.0,105.0
10114,81.0,0,120,10.0,105.0
10115,81.0,120,120,11.0,105.0
10116,36.0,0,144,14.0,105.0
10117,48.0,0,144,12.0,105.0
10118,48.0,0,144,13.0,105.0
10119,84.0,0,96,10.0,105.0
10120,84.0,120,96,11.0,105.0
10121,87.0,0,120,10.0,105.0
10122,87.0,0,120,11.0,105.0
10123,60.0,0,144,13.0,105.0
10124,60.0,0,144,12.0,105.0
10125,48.0,0,144,14.0,105.0
10126,51.0,0,384,5.0,105.0
10127,63.0,0,156,2.0,92.0
10128,57.0,0,156,2.0,92.0
10129,81.0,0,156,1.0,92.0
10130,51.0,0,156,3.0,92.0
10131,75.0,120,156,1.0,92.0
10132,87.0,0,156,0.0,92.0
10133,63.0,0,156,3.0,92.0
10134,84.0,0,96,11.0,105.0
10135,84.0,120,96,10.0,105.0
10136,87.0,120,120,11.0,105.0
10137,87.0,0,120,10.0,105.0
10138,87.0,0,156,0.0,92.0
10139,63.0,0,156,3.0,92.0
10140,51.0,0,156,3.0,92.0
10141,57.0,0,156,2.0,92.0
10142,63.0,0,156,2.0,92.0
10143,81.0,0,156,1.0,92.0
10144,75.0,0,156,1.0,92.0
10145,84.0,120,96,11.0,105.0
10146,84.0,0,96,10.0,105.0
10147,87.0,0,120,10.0,105.0
10148,87.0,0,120,11.0,105.0
10149,60.0,0,384,13.0,105.0
10150,60.0,0,384,12.0,105.0
10151,51.0,0,384,5.0,105.0
10152,48.0,0,384,14.0,105.0
10153,63.0,0,156,2.0,92.0
10154,87.0,0,156,0.0,92.0
10155,57.0,0,156,2.0,92.0
10156,75.0,120,156,1.0,92.0
10157,81.0,0,156,1.0,92.0
10158,51.0,0,156,3.0,92.0
10159,63.0,0,156,3.0,92.0
10160,84.0,120,96,10.0,105.0
10161,84.0,0,96,11.0,105.0
10162,87.0,0,78,11.0,105.0
10163,87.0,0,78,10.0,105.0
10164,48.0,0,144,13.0,105.0
10165,48.0,120,144,12.0,105.0
10166,36.0,0,144,14.0,105.0
10167,86.0,120,78,11.0,105.0
10168,86.0,0,78,10.0,105.0
10169,84.0,0,78,10.0,105.0
10170,84.0,0,78,11.0,105.0
10171,51.0,0,384,5.0,105.0
10172,60.0,0,144,13.0,105.0
10173,63.0,0,1344,4.0,105.0
10174,48.0,0,144,14.0,105.0
10175,75.0,0,1344,4.0,105.0
10176,60.0,0,144,12.0,105.0
10177,57.0,0,156,2.0,92.0
10178,87.0,0,156,0.0,92.0
10179,63.0,0,156,3.0,92.0
10180,75.0,0,156,1.0,92.0
10181,81.0,0,156,1.0,92.0
10182,63.0,120,156,2.0,92.0
10183,51.0,0,156,3.0,92.0
10184,82.0,0,78,10.0,105.0
10185,82.0,120,78,11.0,105.0
10186,81.0,0,78,11.0,105.0
10187,81.0,0,78,10.0,105.0
10188,75.0,0,156,1.0,92.0
10189,81.0,0,156,1.0,92.0
10190,51.0,120,156,3.0,92.0
10191,63.0,0,156,2.0,92.0
10192,63.0,0,156,3.0,92.0
10193,57.0,0,156,2.0,92.0
10194,87.0,0,156,0.0,92.0
10195,79.0,0,78,11.0,105.0
10196,79.0,120,78,10.0,105.0
10197,77.0,0,78,11.0,105.0
10198,77.0,0,78,10.0,105.0
10199,60.0,0,384,12.0,105.0
10200,48.0,0,384,14.0,105.0
10201,60.0,0,384,13.0,105.0
10202,57.0,0,156,2.0,92.0
10203,63.0,120,156,2.0,92.0
10204,87.0,0,156,0.0,92.0
10205,75.0,0,156,1.0,92.0
10206,81.0,0,156,1.0,92.0
10207,51.0,0,156,3.0,92.0
10208,63.0,0,156,3.0,92.0
10209,75.0,120,78,11.0,105.0
10210,75.0,0,78,10.0,105.0
10211,74.0,0,96,11.0,105.0
10212,74.0,0,96,10.0,105.0
10213,86.0,0,156,0.0,92.0
10214,62.0,0,156,2.0,92.0
10215,74.0,0,156,1.0,92.0
10216,46.0,0,156,13.0,105.0
10217,58.0,0,156,2.0,92.0
10218,58.0,0,156,3.0,92.0
10219,65.0,120,156,3.0,92.0
10220,58.0,0,156,12.0,105.0
10221,82.0,0,156,1.0,92.0
10222,34.0,0,156,14.0,105.0
10223,86.0,120,96,11.0,105.0
10224,86.0,0,96,10.0,105.0
10225,84.0,0,96,11.0,105.0
10226,84.0,0,96,10.0,105.0
10227,58.0,0,384,4.0,105.0
10228,46.0,0,384,5.0,105.0
10229,70.0,0,384,4.0,105.0
10230,58.0,120,156,13.0,105.0
10231,77.0,0,156,1.0,92.0
10232,74.0,0,156,1.0,92.0
10233,65.0,0,156,2.0,92.0
10234,65.0,0,156,3.0,92.0
10235,70.0,0,156,12.0,105.0
10236,46.0,0,156,14.0,105.0
10237,62.0,0,156,2.0,92.0
10238,58.0,0,156,3.0,92.0
10239,82.0,0,156,0.0,92.0
10240,82.0,120,96,11.0,105.0
10241,82.0,0,96,10.0,105.0
10242,81.0,0,96,11.0,105.0
10243,81.0,0,96,10.0,105.0
10244,70.0,0,156,12.0,105.0
10245,72.0,0,156,1.0,92.0
10246,75.0,0,156,1.0,92.0
10247,60.0,0,156,2.0,92.0
10248,63.0,0,156,2.0,92.0
10249,63.0,120,156,3.0,92.0
10250,81.0,0,156,0.0,92.0
10251,46.0,0,156,14.0,105.0
10252,65.0,0,156,3.0,92.0
10253,58.0,0,156,13.0,105.0
10254,87.0,120,96,11.0,105.0
10255,87.0,0,96,10.0,105.0
10256,84.0,120,96,11.0,105.0
10257,84.0,0,96,10.0,105.0
10258,87.0,0,156,0.0,92.0
10259,63.0,0,156,3.0,92.0
10260,81.0,0,156,1.0,92.0
10261,65.0,0,156,3.0,92.0
10262,70.0,0,156,12.0,105.0
10263,58.0,0,156,13.0,105.0
10264,60.0,0,156,2.0,92.0
10265,57.0,0,156,2.0,92.0
10266,46.0,0,156,14.0,105.0
10267,72.0,0,156,1.0,92.0
10268,81.0,120,96,11.0,105.0
10269,81.0,0,96,10.0,105.0
10270,74.0,0,96,10.0,105.0
10271,74.0,0,96,11.0,105.0
10272,86.0,0,156,0.0,92.0
10273,74.0,0,156,1.0,92.0
10274,58.0,120,156,13.0,105.0
10275,82.0,0,156,1.0,92.0
10276,62.0,0,156,2.0,92.0
10277,58.0,0,156,2.0,92.0
10278,70.0,0,156,12.0,105.0
10279,46.0,0,156,14.0,105.0
10280,65.0,0,156,3.0,92.0
10281,58.0,0,156,3.0,92.0
10282,86.0,0,96,11.0,105.0
10283,86.0,120,96,10.0,105.0
10284,84.0,120,96,10.0,105.0
10285,84.0,0,96,11.0,105.0
10286,70.0,0,384,4.0,105.0
10287,58.0,0,384,4.0,105.0
10288,46.0,0,384,5.0,105.0
10289,65.0,0,156,2.0,92.0
10290,58.0,0,156,13.0,105.0
10291,62.0,0,156,2.0,92.0
10292,70.0,0,156,12.0,105.0
10293,74.0,0,156,1.0,92.0
10294,82.0,0,156,0.0,92.0
10295,46.0,0,156,14.0,105.0
10296,58.0,0,156,3.0,92.0
10297,65.0,0,156,3.0,92.0
10298,77.0,0,156,1.0,92.0
10299,82.0,120,96,10.0,105.0
10300,82.0,0,96,11.0,105.0
10301,81.0,0,96,10.0,105.0
10302,81.0,0,96,11.0,105.0
10303,81.0,0,156,0.0,92.0
10304,65.0,0,156,3.0,92.0
10305,75.0,0,156,1.0,92.0
10306,46.0,0,156,14.0,105.0
10307,60.0,0,156,2.0,92.0
10308,72.0,0,156,1.0,92.0
10309,70.0,0,156,12.0,105.0
10310,63.0,0,156,2.0,92.0
10311,63.0,0,156,3.0,92.0
10312,58.0,120,156,13.0,105.0
10313,87.0,120,96,10.0,105.0
10314,87.0,0,96,11.0,105.0
10315,84.0,0,96,10.0,105.0
10316,84.0,0,96,11.0,105.0
10317,58.0,0,156,13.0,105.0
10318,60.0,0,156,2.0,92.0
10319,57.0,0,156,2.0,92.0
10320,87.0,0,156,0.0,92.0
10321,63.0,0,156,3.0,92.0
10322,81.0,0,156,1.0,92.0
10323,72.0,0,156,1.0,92.0
10324,46.0,0,156,14.0,105.0
10325,65.0,0,156,3.0,92.0
10326,70.0,120,156,12.0,105.0
10327,81.0,0,96,11.0,105.0
10328,81.0,120,96,10.0,105.0
10329,46.0,120,156,14.0,105.0
10330,65.0,0,156,3.0,92.0
10331,58.0,0,156,3.0,92.0
10332,58.0,0,156,13.0,105.0
10333,58.0,0,156,2.0,92.0
10334,70.0,0,156,4.0,105.0
10335,82.0,0,156,11.0,105.0
10336,62.0,0,156,2.0,92.0
10337,70.0,0,156,1.0,92.0
10338,82.0,0,156,1.0,92.0
10339,82.0,0,156,10.0,105.0
10340,70.0,0,156,12.0,105.0
10341,86.0,0,156,0.0,92.0
10342,58.0,0,156,4.0,105.0
10343,70.0,0,78,11.0,105.0
10344,62.0,0,78,11.0,105.0
10345,62.0,0,78,10.0,105.0
10346,70.0,0,78,10.0,105.0
10347,46.0,0,384,5.0,105.0
10348,77.0,0,156,1.0,92.0
10349,58.0,0,156,4.0,105.0
10350,65.0,0,156,2.0,92.0
10351,58.0,0,156,12.0,105.0
10352,82.0,240,156,0.0,92.0
10353,74.0,0,156,1.0,92.0
10354,62.0,0,156,2.0,92.0
10355,70.0,0,156,4.0,105.0
10356,58.0,0,156,3.0,92.0
10357,46.0,0,156,13.0,105.0
10358,34.0,0,156,14.0,105.0
10359,46.0,0,156,3.0,92.0
10360,62.0,120,78,11.0,105.0
10361,70.0,0,78,10.0,105.0
10362,70.0,0,78,11.0,105.0
10363,62.0,0,78,10.0,105.0
10364,46.0,0,156,13.0,105.0
10365,70.0,120,156,11.0,105.0
10366,58.0,0,156,12.0,105.0
10367,46.0,0,156,3.0,92.0
10368,58.0,0,156,3.0,92.0
10369,62.0,0,156,11.0,105.0
10370,70.0,0,156,4.0,105.0
10371,58.0,0,156,4.0,105.0
10372,62.0,0,156,2.0,92.0
10373,82.0,0,156,0.0,92.0
10374,77.0,0,156,1.0,92.0
10375,74.0,0,156,1.0,92.0
10376,70.0,0,156,10.0,105.0
10377,62.0,0,156,10.0,105.0
10378,65.0,0,156,2.0,92.0
10379,34.0,0,156,14.0,105.0
10380,46.0,0,384,5.0,105.0
10381,74.0,240,156,1.0,92.0
10382,82.0,0,156,0.0,92.0
10383,46.0,0,156,13.0,105.0
10384,46.0,0,156,3.0,92.0
10385,58.0,0,156,3.0,92.0
10386,77.0,0,156,1.0,92.0
10387,34.0,0,156,14.0,105.0
10388,58.0,0,156,4.0,105.0
10389,58.0,0,156,12.0,105.0
10390,70.0,0,156,4.0,105.0
10391,65.0,0,156,2.0,92.0
10392,70.0,0,156,11.0,105.0
10393,62.0,0,156,11.0,105.0
10394,62.0,0,156,10.0,105.0
10395,70.0,0,156,10.0,105.0
10396,62.0,0,156,2.0,92.0
10397,46.0,0,384,13.0,105.0
10398,70.0,0,384,10.0,105.0
10399,62.0,0,384,10.0,105.0
10400,46.0,0,384,3.0,92.0
10401,65.0,0,384,2.0,92.0
10402,46.0,0,384,5.0,105.0
10403,62.0,0,384,2.0,92.0
10404,58.0,0,384,12.0,105.0
10405,58.0,0,384,3.0,92.0
10406,34.0,0,384,14.0,105.0
10407,70.0,0,384,11.0,105.0
10408,82.0,0,384,0.0,92.0
10409,77.0,240,384,1.0,92.0
10410,74.0,0,384,1.0,92.0
10411,70.0,0,384,4.0,105.0
10412,58.0,0,384,4.0,105.0
10413,62.0,0,384,11.0,105.0
10414,79.0,720,78,10.0,70.0
10415,80.0,120,78,10.0,70.0
10416,82.0,120,120,10.0,70.0
10417,67.0,0,120,11.0,58.0
10418,80.0,0,78,10.0,70.0
10419,70.0,120,120,11.0,58.0
10420,79.0,0,78,10.0,70.0
10421,67.0,120,120,11.0,58.0
10422,77.0,0,78,10.0,70.0
10423,70.0,120,120,11.0,58.0
10424,67.0,120,120,11.0,58.0
10425,75.0,0,156,10.0,70.0
10426,70.0,120,120,11.0,58.0
10427,67.0,0,120,11.0,58.0
10428,89.0,120,144,0.0,70.0
10429,77.0,0,144,1.0,58.0
10430,65.0,0,144,2.0,58.0
10431,70.0,120,72,11.0,78.0
10432,68.0,0,120,11.0,58.0
10433,70.0,120,120,11.0,58.0
10434,68.0,120,120,11.0,58.0
10435,82.0,0,144,10.0,70.0
10436,70.0,120,120,11.0,58.0
10437,68.0,0,120,11.0,58.0
10438,82.0,120,144,10.0,70.0
10439,70.0,0,720,1.0,58.0
10440,58.0,120,720,2.0,58.0
10441,70.0,120,120,11.0,58.0
10442,82.0,0,720,0.0,70.0
10443,84.0,0,120,0.0,70.0
10444,72.0,120,120,1.0,58.0
10445,68.0,0,120,11.0,58.0
10446,60.0,0,120,2.0,58.0
10447,82.0,0,144,10.0,70.0
10448,70.0,0,72,11.0,78.0
10449,74.0,0,120,1.0,58.0
10450,62.0,120,120,2.0,58.0
10451,86.0,0,120,0.0,70.0
10452,67.0,0,120,11.0,58.0
10453,63.0,120,192,2.0,58.0
10454,75.0,0,192,1.0,58.0
10455,87.0,0,192,0.0,70.0
10456,70.0,120,120,11.0,58.0
10457,82.0,0,240,10.0,70.0
10458,84.0,0,120,10.0,70.0
10459,67.0,120,120,11.0,58.0
10460,86.0,120,120,10.0,70.0
10461,70.0,0,120,11.0,58.0
10462,87.0,120,120,10.0,70.0
10463,67.0,0,120,11.0,58.0
10464,70.0,120,120,11.0,58.0
10465,86.0,0,120,10.0,70.0
10466,84.0,120,120,10.0,70.0
10467,67.0,0,120,11.0,58.0
10468,70.0,0,72,11.0,78.0
10469,82.0,120,96,10.0,70.0
10470,82.0,0,60,10.0,70.0
10471,65.0,120,120,11.0,58.0
10472,80.0,60,108,10.0,70.0
10473,70.0,60,120,11.0,58.0
10474,65.0,120,120,11.0,58.0
10475,80.0,0,144,10.0,70.0
10476,70.0,120,120,11.0,58.0
10477,80.0,0,60,10.0,70.0
10478,63.0,120,120,11.0,58.0
10479,79.0,60,108,10.0,70.0
10480,70.0,60,120,11.0,58.0
10481,63.0,0,120,11.0,58.0
10482,79.0,120,144,10.0,70.0
10483,70.0,120,72,11.0,78.0
10484,79.0,0,60,10.0,70.0
10485,68.0,120,120,11.0,58.0
10486,77.0,60,108,10.0,70.0
10487,72.0,60,120,11.0,58.0
10488,68.0,0,120,11.0,58.0
10489,77.0,120,144,10.0,70.0
10490,72.0,120,120,11.0,58.0
10491,77.0,0,60,10.0,70.0
10492,69.0,120,120,11.0,58.0
10493,75.0,60,108,10.0,70.0
10494,72.0,60,120,11.0,58.0
10495,69.0,0,120,11.0,58.0
10496,75.0,120,144,10.0,70.0
10497,72.0,120,72,11.0,78.0
10498,70.0,0,384,11.0,58.0
10499,74.0,120,480,10.0,70.0
10500,77.0,480,144,10.0,70.0
10501,79.0,240,72,10.0,70.0
10502,80.0,120,72,10.0,70.0
10503,82.0,0,120,10.0,70.0
10504,55.0,0,120,12.0,58.0
10505,67.0,0,120,11.0,58.0
10506,80.0,120,72,10.0,70.0
10507,58.0,0,120,12.0,58.0
10508,70.0,0,120,11.0,58.0
10509,79.0,0,72,10.0,70.0
10510,67.0,120,120,11.0,58.0
10511,55.0,0,120,12.0,58.0
10512,77.0,0,72,10.0,70.0
10513,70.0,120,120,11.0,58.0
10514,58.0,0,120,12.0,58.0
10515,55.0,120,120,12.0,58.0
10516,67.0,0,120,11.0,58.0
10517,75.0,0,144,10.0,70.0
10518,58.0,120,120,12.0,58.0
10519,70.0,0,120,11.0,58.0
10520,55.0,0,120,12.0,58.0
10521,67.0,120,120,11.0,58.0
10522,77.0,0,144,1.0,58.0
10523,65.0,0,144,2.0,58.0
10524,53.0,0,144,2.0,58.0
10525,70.0,120,72,11.0,78.0
10526,58.0,0,72,12.0,78.0
10527,56.0,0,120,12.0,58.0
10528,68.0,120,120,11.0,58.0
10529,58.0,120,120,12.0,58.0
10530,70.0,0,120,11.0,58.0
10531,68.0,0,120,11.0,58.0
10532,56.0,120,120,12.0,58.0
10533,70.0,0,144,10.0,70.0
10534,70.0,0,120,11.0,58.0
10535,58.0,120,120,12.0,58.0
10536,68.0,0,120,11.0,58.0
10537,56.0,0,120,12.0,58.0
10538,70.0,120,144,10.0,70.0
10539,58.0,0,120,12.0,58.0
10540,70.0,0,720,1.0,58.0
10541,46.0,0,720,2.0,58.0
10542,58.0,0,720,2.0,58.0
10543,70.0,120,120,11.0,58.0
10544,60.0,0,120,2.0,58.0
10545,48.0,0,120,2.0,58.0
10546,68.0,0,120,11.0,58.0
10547,72.0,120,120,1.0,58.0
10548,56.0,0,120,12.0,58.0
10549,70.0,0,144,10.0,70.0
10550,58.0,120,72,12.0,78.0
10551,70.0,0,72,11.0,78.0
10552,62.0,0,120,2.0,58.0
10553,50.0,0,120,2.0,58.0
10554,74.0,0,120,1.0,58.0
10555,54.0,0,120,12.0,58.0
10556,66.0,0,120,11.0,58.0
10557,63.0,0,192,2.0,58.0
10558,75.0,0,192,1.0,58.0
10559,51.0,0,192,2.0,58.0
10560,58.0,120,120,12.0,58.0
10561,70.0,120,240,10.0,70.0
10562,70.0,0,120,11.0,58.0
10563,54.0,120,120,12.0,58.0
10564,72.0,0,120,10.0,70.0
10565,66.0,0,120,11.0,58.0
10566,58.0,0,120,12.0,58.0
10567,74.0,120,120,10.0,70.0
10568,70.0,0,120,11.0,58.0
10569,54.0,120,120,12.0,58.0
10570,66.0,0,120,11.0,58.0
10571,75.0,0,120,10.0,70.0
10572,70.0,0,120,11.0,58.0
10573,58.0,120,120,12.0,58.0
10574,73.0,0,120,10.0,70.0
10575,54.0,0,120,12.0,58.0
10576,66.0,120,120,11.0,58.0
10577,71.0,0,120,10.0,70.0
10578,58.0,120,72,12.0,78.0
10579,70.0,0,72,11.0,78.0
10580,70.0,0,96,10.0,70.0
10581,70.0,0,60,10.0,70.0
10582,65.0,120,120,11.0,58.0
10583,53.0,0,120,12.0,58.0
10584,68.0,60,108,10.0,70.0
10585,70.0,60,120,11.0,58.0
10586,58.0,0,120,12.0,58.0
10587,65.0,120,120,11.0,58.0
10588,53.0,0,120,12.0,58.0
10589,68.0,0,144,10.0,70.0
10590,58.0,0,120,12.0,58.0
10591,70.0,120,120,11.0,58.0
10592,68.0,0,60,10.0,70.0
10593,63.0,0,120,11.0,58.0
10594,51.0,120,120,12.0,58.0
10595,66.0,60,108,10.0,70.0
10596,70.0,60,120,11.0,58.0
10597,58.0,0,120,12.0,58.0
10598,46.0,0,3648,3.0,58.0
10599,58.0,120,3648,3.0,58.0
10600,63.0,120,120,11.0,58.0
10601,51.0,0,120,12.0,58.0
10602,66.0,0,144,10.0,70.0
10603,70.0,120,72,11.0,78.0
10604,58.0,0,72,12.0,78.0
10605,66.0,0,120,10.0,70.0
10606,56.0,0,120,12.0,58.0
10607,59.0,120,120,12.0,58.0
10608,56.0,120,120,12.0,58.0
10609,59.0,120,120,12.0,58.0
10610,56.0,120,120,12.0,58.0
10611,59.0,120,120,12.0,58.0
10612,56.0,120,120,12.0,58.0
10613,59.0,120,72,12.0,78.0
10614,64.0,0,798,10.0,70.0
10615,56.0,120,960,2.0,58.0
10616,63.0,120,120,10.0,70.0
10617,55.0,0,120,12.0,58.0
10618,59.0,120,120,12.0,58.0
10619,55.0,120,120,12.0,58.0
10620,59.0,120,120,12.0,58.0
10621,55.0,120,120,12.0,58.0
10622,59.0,120,120,12.0,58.0
10623,55.0,120,120,12.0,58.0
10624,59.0,0,1872,11.0,58.0
10625,59.0,120,72,12.0,78.0
10626,64.0,0,798,10.0,70.0
10627,55.0,0,960,2.0,58.0
10628,59.0,0,1920,2.0,58.0
10629,58.0,0,120,11.0,58.0
10630,61.0,120,120,11.0,58.0
10631,64.0,0,240,10.0,70.0
10632,66.0,0,120,11.0,58.0
10633,58.0,0,384,2.0,58.0
10634,42.0,0,384,13.0,58.0
10635,30.0,0,384,14.0,58.0
10636,54.0,0,384,2.0,58.0
10637,61.0,120,120,11.0,58.0
10638,66.0,120,120,11.0,58.0
10639,76.0,120,480,10.0,70.0
10640,61.0,120,120,11.0,58.0
10641,61.0,0,72,2.0,58.0
10642,66.0,0,120,11.0,58.0
10643,63.0,0,72,2.0,80.0
10644,61.0,120,96,11.0,58.0
10645,64.0,120,120,2.0,80.0
10646,58.0,0,120,11.0,58.0
10647,63.0,0,72,2.0,80.0
10648,73.0,120,480,10.0,70.0
10649,61.0,120,120,11.0,58.0
10650,61.0,0,72,2.0,80.0
10651,66.0,0,120,11.0,58.0
10652,54.0,0,384,13.0,58.0
10653,42.0,0,384,14.0,58.0
10654,59.0,0,72,2.0,80.0
10655,61.0,120,120,11.0,58.0
10656,66.0,120,120,11.0,58.0
10657,58.0,0,144,2.0,80.0
10658,61.0,120,120,11.0,58.0
10659,70.0,120,480,10.0,70.0
10660,61.0,120,1728,12.0,58.0
10661,58.0,0,1728,12.0,58.0
10662,75.0,0,72,0.0,70.0
10663,66.0,120,120,11.0,58.0
10664,76.0,0,72,0.0,80.0
10665,64.0,0,192,10.0,70.0
10666,61.0,120,96,11.0,58.0
10667,59.0,0,120,11.0,58.0
10668,78.0,0,120,0.0,80.0
10669,76.0,120,72,0.0,80.0
10670,63.0,0,120,11.0,58.0
10671,63.0,120,240,10.0,70.0
10672,75.0,120,72,0.0,80.0
10673,66.0,0,120,11.0,58.0
10674,42.0,0,384,13.0,58.0
10675,30.0,0,384,14.0,58.0
10676,73.0,0,72,0.0,80.0
10677,63.0,120,120,11.0,58.0
10678,66.0,120,120,11.0,58.0
10679,71.0,0,144,0.0,80.0
10680,78.0,0,480,10.0,70.0
10681,63.0,120,120,11.0,58.0
10682,63.0,120,72,2.0,80.0
10683,66.0,0,120,11.0,58.0
10684,64.0,0,72,2.0,80.0
10685,63.0,120,96,11.0,58.0
10686,59.0,120,120,11.0,58.0
10687,66.0,0,120,2.0,80.0
10688,64.0,120,72,2.0,80.0
10689,63.0,0,120,11.0,58.0
10690,75.0,0,480,10.0,70.0
10691,63.0,0,72,2.0,80.0
10692,66.0,120,120,11.0,58.0
10693,54.0,0,384,13.0,58.0
10694,42.0,0,384,14.0,58.0
10695,61.0,120,72,2.0,80.0
10696,63.0,0,120,11.0,58.0
10697,66.0,0,120,11.0,58.0
10698,59.0,120,144,2.0,80.0
10699,63.0,120,120,11.0,58.0
10700,71.0,0,480,10.0,70.0
10701,73.0,0,72,0.0,80.0
10702,66.0,0,120,11.0,58.0
10703,75.0,0,72,0.0,80.0
10704,59.0,0,1872,12.0,58.0
10705,66.0,120,192,10.0,70.0
10706,63.0,0,1872,12.0,58.0
10707,63.0,120,96,11.0,58.0
10708,61.0,0,120,11.0,58.0
10709,76.0,0,120,0.0,80.0
10710,75.0,0,72,0.0,80.0
10711,66.0,120,120,11.0,58.0
10712,64.0,0,240,10.0,70.0
10713,73.0,120,72,0.0,80.0
10714,70.0,0,120,11.0,58.0
10715,42.0,0,384,13.0,58.0
10716,30.0,0,384,14.0,58.0
10717,71.0,0,72,0.0,80.0
10718,66.0,120,120,11.0,58.0
10719,70.0,0,120,11.0,58.0
10720,70.0,120,144,0.0,80.0
10721,66.0,120,120,11.0,58.0
10722,85.0,0,480,10.0,70.0
10723,61.0,0,72,2.0,80.0
10724,70.0,120,120,11.0,58.0
10725,62.0,120,72,2.0,80.0
10726,66.0,0,96,11.0,58.0
10727,64.0,120,120,2.0,80.0
10728,61.0,0,120,11.0,58.0
10729,62.0,0,72,2.0,80.0
10730,82.0,0,480,10.0,70.0
10731,66.0,120,120,11.0,58.0
10732,61.0,120,72,2.0,80.0
10733,70.0,0,120,11.0,58.0
10734,42.0,0,384,14.0,58.0
10735,54.0,0,384,13.0,58.0
10736,59.0,120,72,2.0,80.0
10737,66.0,0,120,11.0,58.0
10738,70.0,0,120,11.0,58.0
10739,58.0,120,144,2.0,80.0
10740,76.0,0,480,10.0,70.0
10741,66.0,120,120,11.0,58.0
10742,61.0,0,1728,12.0,58.0
10743,58.0,120,1728,12.0,58.0
10744,74.0,120,72,0.0,80.0
10745,70.0,0,120,11.0,58.0
10746,66.0,0,72,11.0,78.0
10747,76.0,120,72,0.0,80.0
10748,73.0,0,192,10.0,70.0
10749,62.0,120,120,11.0,58.0
10750,78.0,0,120,0.0,80.0
10751,76.0,0,72,0.0,80.0
10752,74.0,0,240,10.0,70.0
10753,66.0,120,120,11.0,58.0
10754,74.0,0,72,0.0,80.0
10755,71.0,120,120,11.0,58.0
10756,30.0,0,384,14.0,58.0
10757,42.0,0,384,13.0,58.0
10758,73.0,0,72,0.0,80.0
10759,66.0,120,120,11.0,58.0
10760,71.0,120,120,11.0,58.0
10761,71.0,0,144,0.0,80.0
10762,86.0,0,480,10.0,70.0
10763,66.0,120,120,11.0,58.0
10764,62.0,0,72,2.0,80.0
10765,71.0,120,120,11.0,58.0
10766,66.0,0,72,11.0,78.0
10767,64.0,120,72,2.0,80.0
10768,66.0,0,120,2.0,80.0
10769,62.0,0,120,11.0,58.0
10770,64.0,120,72,2.0,80.0
10771,83.0,0,480,10.0,70.0
10772,66.0,0,120,11.0,58.0
10773,62.0,0,72,2.0,80.0
10774,71.0,0,120,11.0,58.0
10775,42.0,0,384,14.0,58.0
10776,54.0,120,384,13.0,58.0
10777,61.0,0,72,2.0,80.0
10778,66.0,120,120,11.0,58.0
10779,71.0,120,120,11.0,58.0
10780,59.0,0,144,2.0,80.0
10781,66.0,120,96,11.0,58.0
10782,78.0,120,480,10.0,70.0
10783,74.0,120,120,11.0,78.0
10784,74.0,0,120,10.0,90.0
10785,50.0,0,120,14.0,125.0
10786,62.0,0,120,13.0,125.0
10787,59.0,0,1872,12.0,58.0
10788,62.0,0,1872,12.0,58.0
10789,65.0,0,156,11.0,105.0
10790,65.0,240,156,10.0,105.0
10791,65.0,240,78,11.0,105.0
10792,65.0,0,78,10.0,105.0
10793,65.0,120,78,10.0,105.0
10794,65.0,0,78,11.0,105.0
10795,41.0,0,480,14.0,112.0
10796,53.0,0,480,13.0,112.0
10797,53.0,0,480,12.0,112.0
10798,83.0,0,576,0.0,105.0
10799,59.0,0,576,2.0,105.0
10800,65.0,120,156,10.0,105.0
10801,65.0,0,156,11.0,105.0
10802,68.0,0,768,1.0,105.0
10803,74.0,0,768,1.0,105.0
10804,65.0,0,768,3.0,105.0
10805,74.0,0,156,10.0,105.0
10806,74.0,240,156,11.0,105.0
10807,64.0,0,156,11.0,105.0
10808,64.0,0,156,10.0,105.0
10809,64.0,0,78,11.0,105.0
10810,64.0,240,78,10.0,105.0
10811,64.0,120,78,10.0,105.0
10812,64.0,0,78,11.0,105.0
10813,52.0,240,480,13.0,112.0
10814,40.0,0,480,14.0,112.0
10815,52.0,0,480,12.0,112.0
10816,86.0,0,576,0.0,105.0
10817,62.0,0,576,2.0,105.0
10818,64.0,120,156,11.0,105.0
10819,64.0,0,156,10.0,105.0
10820,64.0,0,768,3.0,105.0
10821,74.0,0,156,11.0,105.0
10822,74.0,240,156,10.0,105.0
10823,63.0,0,156,10.0,105.0
10824,63.0,240,156,11.0,105.0
10825,63.0,240,78,10.0,105.0
10826,63.0,0,78,11.0,105.0
10827,63.0,120,78,11.0,105.0
10828,63.0,0,78,10.0,105.0
10829,51.0,0,480,13.0,112.0
10830,51.0,0,480,12.0,112.0
10831,39.0,0,480,14.0,112.0
10832,63.0,0,576,2.0,105.0
10833,87.0,0,576,0.0,105.0
10834,63.0,0,156,10.0,105.0
10835,63.0,120,156,11.0,105.0
10836,63.0,0,768,3.0,105.0
10837,83.0,0,1728,1.0,105.0
10838,75.0,240,156,10.0,105.0
10839,75.0,0,156,11.0,105.0
10840,89.0,0,240,0.0,125.0
10841,62.0,0,240,11.0,125.0
10842,65.0,0,240,2.0,125.0
10843,82.0,0,240,1.0,125.0
10844,58.0,0,240,3.0,125.0
10845,62.0,0,240,10.0,125.0
10846,80.0,0,2304,1.0,105.0
10847,50.0,0,384,13.0,92.0
10848,38.0,0,384,14.0,92.0
10849,56.0,0,3264,2.0,105.0
10850,50.0,240,384,12.0,92.0
10851,82.0,0,288,1.0,92.0
10852,65.0,0,288,3.0,105.0
10853,89.0,0,288,0.0,92.0
10854,62.0,0,288,2.0,92.0
10855,70.0,0,312,11.0,105.0
10856,70.0,0,312,10.0,105.0
10857,80.0,0,312,10.0,105.0
10858,62.0,0,312,10.0,105.0
10859,77.0,0,312,4.0,105.0
10860,62.0,0,312,11.0,105.0
10861,80.0,0,312,11.0,105.0
10862,70.0,0,312,4.0,105.0
10863,62.0,0,384,12.0,92.0
10864,62.0,0,384,13.0,92.0
10865,50.0,0,384,14.0,92.0
10866,80.0,0,384,1.0,92.0
10867,46.0,480,384,5.0,105.0
10868,58.0,0,384,3.0,105.0
10869,51.0,480,288,14.0,92.0
10870,63.0,0,288,13.0,92.0
10871,63.0,0,288,2.0,92.0
10872,82.0,0,288,1.0,92.0
10873,87.0,0,288,0.0,92.0
10874,67.0,0,288,3.0,92.0
10875,63.0,0,288,12.0,92.0
10876,63.0,0,312,11.0,105.0
10877,70.0,0,312,10.0,105.0
10878,79.0,0,312,10.0,105.0
10879,63.0,0,312,10.0,105.0
10880,75.0,0,312,4.0,105.0
10881,79.0,0,312,4.0,105.0
10882,70.0,0,312,11.0,105.0
10883,79.0,0,312,11.0,105.0
10884,63.0,0,384,3.0,92.0
10885,79.0,0,384,1.0,92.0
10886,51.0,0,384,5.0,105.0
10887,75.0,0,144,1.0,92.0
10888,60.0,0,144,12.0,92.0
10889,79.0,0,144,1.0,92.0
10890,67.0,0,144,3.0,92.0
10891,75.0,0,144,11.0,105.0
10892,48.0,0,144,14.0,92.0
10893,75.0,480,144,10.0,105.0
10894,60.0,0,144,2.0,92.0
10895,87.0,0,144,0.0,92.0
10896,60.0,0,144,13.0,92.0
10897,63.0,0,144,3.0,92.0
10898,79.0,0,144,1.0,92.0
10899,87.0,0,144,0.0,92.0
10900,75.0,0,144,11.0,105.0
10901,60.0,0,144,12.0,92.0
10902,60.0,0,144,13.0,92.0
10903,75.0,0,144,1.0,92.0
10904,60.0,0,144,2.0,92.0
10905,75.0,0,144,10.0,105.0
10906,48.0,0,144,14.0,92.0
10907,63.0,240,144,3.0,92.0
10908,67.0,0,144,3.0,92.0
10909,84.0,0,144,11.0,105.0
10910,44.0,0,144,14.0,92.0
10911,56.0,0,144,12.0,92.0
10912,56.0,0,144,13.0,92.0
10913,63.0,0,144,3.0,92.0
10914,65.0,0,144,3.0,92.0
10915,75.0,0,144,1.0,92.0
10916,77.0,240,144,1.0,92.0
10917,84.0,0,144,10.0,105.0
10918,87.0,0,144,0.0,92.0
10919,56.0,0,144,2.0,92.0
10920,84.0,0,144,10.0,105.0
10921,75.0,0,144,1.0,92.0
10922,56.0,0,144,2.0,92.0
10923,56.0,0,144,13.0,92.0
10924,77.0,0,144,1.0,92.0
10925,56.0,0,144,12.0,92.0
10926,84.0,0,144,11.0,105.0
10927,65.0,0,144,3.0,92.0
10928,63.0,0,144,3.0,92.0
10929,87.0,240,144,0.0,92.0
10930,44.0,0,144,14.0,92.0
10931,46.0,0,144,14.0,92.0
10932,74.0,240,144,11.0,105.0
10933,74.0,0,144,1.0,92.0
10934,58.0,0,144,13.0,92.0
10935,58.0,0,144,12.0,92.0
10936,77.0,0,144,1.0,92.0
10937,58.0,0,144,3.0,92.0
10938,58.0,0,144,2.0,92.0
10939,74.0,0,144,10.0,105.0
10940,65.0,0,144,3.0,92.0
10941,86.0,0,144,0.0,92.0
10942,77.0,0,312,4.0,105.0
10943,70.0,0,312,4.0,105.0
10944,74.0,0,144,1.0,92.0
10945,46.0,0,384,5.0,105.0
10946,58.0,0,144,12.0,92.0
10947,46.0,0,144,14.0,92.0
10948,77.0,0,144,1.0,92.0
10949,86.0,0,144,0.0,92.0
10950,74.0,0,144,11.0,105.0
10951,65.0,0,144,3.0,92.0
10952,58.0,0,144,3.0,92.0
10953,58.0,240,144,13.0,92.0
10954,58.0,0,144,2.0,92.0
10955,74.0,0,144,10.0,105.0
10956,75.0,0,96,11.0,105.0
10957,63.0,0,96,11.0,105.0
10958,75.0,0,144,1.0,92.0
10959,63.0,0,144,3.0,92.0
10960,55.0,0,144,3.0,92.0
10961,51.0,0,144,12.0,92.0
10962,51.0,0,144,13.0,92.0
10963,39.0,0,144,14.0,92.0
10964,75.0,0,144,10.0,125.0
10965,87.0,240,144,0.0,92.0
10966,51.0,0,144,2.0,92.0
10967,63.0,0,96,11.0,105.0
10968,75.0,120,96,11.0,105.0
10969,75.0,0,312,4.0,105.0
10970,63.0,0,312,4.0,105.0
10971,75.0,0,96,11.0,105.0
10972,63.0,0,96,11.0,105.0
10973,51.0,0,384,5.0,105.0
10974,63.0,0,144,3.0,92.0
10975,51.0,0,144,3.0,92.0
10976,63.0,0,96,11.0,105.0
10977,75.0,120,96,11.0,105.0
10978,75.0,0,96,11.0,105.0
10979,63.0,0,96,11.0,105.0
10980,63.0,120,144,3.0,92.0
10981,51.0,0,144,3.0,92.0
10982,75.0,0,96,11.0,105.0
10983,63.0,120,96,11.0,105.0
10984,43.0,0,480,2.0,92.0
10985,43.0,0,480,14.0,92.0
10986,67.0,0,480,1.0,92.0
10987,79.0,0,480,0.0,92.0
10988,55.0,0,480,13.0,92.0
10989,55.0,0,480,10.0,105.0
10990,55.0,120,480,12.0,92.0
10991,63.0,0,96,11.0,105.0
10992,75.0,0,96,11.0,105.0
10993,63.0,0,144,3.0,92.0
10994,51.0,0,144,3.0,92.0
10995,56.0,0,192,12.0,92.0
10996,56.0,0,192,13.0,92.0
10997,44.0,0,192,2.0,92.0
10998,56.0,0,192,10.0,105.0
10999,80.0,0,192,0.0,92.0
11000,68.0,120,192,1.0,92.0
11001,44.0,0,192,14.0,92.0
11002,63.0,120,96,11.0,105.0
11003,75.0,0,96,11.0,105.0
11004,63.0,0,96,11.0,105.0
11005,75.0,0,96,11.0,105.0
11006,63.0,0,144,3.0,92.0
11007,51.0,0,144,3.0,92.0
11008,75.0,120,192,10.0,125.0
11009,63.0,120,96,11.0,105.0
11010,75.0,0,96,11.0,105.0
11011,75.0,0,312,4.0,105.0
11012,63.0,0,312,4.0,105.0
11013,63.0,0,96,11.0,105.0
11014,75.0,0,96,11.0,105.0
11015,51.0,0,384,5.0,105.0
11016,63.0,0,144,3.0,92.0
11017,51.0,0,144,3.0,92.0
11018,63.0,0,96,11.0,105.0
11019,75.0,120,96,11.0,105.0
11020,75.0,120,96,11.0,105.0
11021,63.0,0,96,11.0,105.0
11022,63.0,0,144,3.0,92.0
11023,51.0,0,144,3.0,92.0
11024,75.0,120,96,11.0,105.0
11025,63.0,0,96,11.0,105.0
11026,69.0,0,480,1.0,92.0
11027,33.0,120,480,14.0,92.0
11028,45.0,0,480,2.0,92.0
11029,57.0,0,480,10.0,105.0
11030,57.0,0,480,12.0,92.0
11031,45.0,0,480,13.0,92.0
11032,81.0,0,480,0.0,92.0
11033,63.0,120,96,11.0,105.0
11034,75.0,0,96,11.0,105.0
11035,51.0,0,144,3.0,92.0
11036,63.0,0,144,3.0,92.0
11037,58.0,0,192,12.0,92.0
11038,34.0,0,192,14.0,92.0
11039,46.0,0,192,13.0,92.0
11040,70.0,0,192,1.0,92.0
11041,46.0,0,192,2.0,92.0
11042,82.0,0,192,0.0,92.0
11043,58.0,0,192,10.0,105.0
11044,63.0,0,96,11.0,105.0
11045,75.0,120,96,11.0,105.0
11046,63.0,0,96,11.0,105.0
11047,75.0,0,96,11.0,105.0
11048,63.0,0,144,3.0,92.0
11049,51.0,0,144,3.0,92.0
11050,75.0,120,192,10.0,125.0
11051,63.0,120,96,11.0,105.0
11052,75.0,0,96,11.0,105.0
11053,75.0,0,312,4.0,105.0
11054,63.0,0,312,4.0,105.0
11055,63.0,0,96,11.0,105.0
11056,75.0,0,96,11.0,105.0
11057,51.0,0,384,5.0,105.0
11058,51.0,0,144,3.0,92.0
11059,63.0,0,144,3.0,92.0
11060,75.0,120,96,11.0,105.0
11061,63.0,0,96,11.0,105.0
11062,75.0,0,96,11.0,105.0
11063,63.0,0,96,11.0,105.0
11064,63.0,120,144,3.0,92.0
11065,51.0,0,144,3.0,92.0
11066,63.0,0,96,11.0,105.0
11067,75.0,120,96,11.0,105.0
11068,83.0,0,480,0.0,92.0
11069,71.0,0,480,1.0,92.0
11070,59.0,0,480,12.0,92.0
11071,47.0,0,480,2.0,92.0
11072,47.0,0,480,13.0,92.0
11073,35.0,0,480,14.0,92.0
11074,59.0,120,480,10.0,105.0
11075,63.0,0,96,11.0,105.0
11076,75.0,0,96,11.0,105.0
11077,63.0,0,144,3.0,92.0
11078,51.0,0,144,3.0,92.0
11079,36.0,0,192,14.0,92.0
11080,60.0,0,192,10.0,105.0
11081,84.0,0,192,0.0,92.0
11082,60.0,0,192,12.0,92.0
11083,48.0,0,192,13.0,92.0
11084,72.0,0,192,1.0,92.0
11085,48.0,120,192,2.0,92.0
11086,63.0,120,96,11.0,105.0
11087,75.0,0,96,11.0,105.0
11088,61.0,0,156,10.0,116.0
11089,61.0,120,156,12.0,105.0
11090,75.0,0,156,11.0,105.0
11091,49.0,0,156,14.0,92.0
11092,63.0,0,156,11.0,105.0
11093,61.0,0,156,13.0,92.0
11094,75.0,0,312,4.0,105.0
11095,63.0,0,312,4.0,105.0
11096,63.0,0,312,3.0,92.0
11097,51.0,0,312,3.0,92.0
11098,58.0,240,78,11.0,105.0
11099,49.0,0,78,12.0,105.0
11100,49.0,0,78,13.0,105.0
11101,61.0,0,78,10.0,116.0
11102,37.0,0,78,14.0,105.0
11103,67.0,0,78,11.0,105.0
11104,85.0,0,384,0.0,92.0
11105,49.0,0,384,2.0,92.0
11106,73.0,0,384,1.0,92.0
11107,51.0,0,384,5.0,105.0
11108,61.0,0,78,10.0,116.0
11109,58.0,0,78,11.0,105.0
11110,67.0,0,78,11.0,105.0
11111,37.0,120,78,14.0,105.0
11112,49.0,0,78,12.0,105.0
11113,49.0,0,78,13.0,105.0
11114,61.0,0,156,10.0,116.0
11115,37.0,120,156,14.0,105.0
11116,49.0,0,156,13.0,105.0
11117,49.0,0,156,12.0,105.0
11118,58.0,0,156,11.0,105.0
11119,67.0,0,156,11.0,105.0
11120,51.0,0,234,3.0,92.0
11121,63.0,0,234,3.0,92.0
11122,75.0,0,234,4.0,105.0
11123,63.0,0,234,4.0,105.0
11124,51.0,0,288,5.0,105.0
11125,67.0,0,384,1.0,92.0
11126,70.0,0,384,1.0,92.0
11127,79.0,0,384,0.0,92.0
11128,58.0,0,384,2.0,92.0
11129,55.0,0,384,2.0,92.0
11130,37.0,0,156,14.0,105.0
11131,61.0,0,156,10.0,116.0
11132,49.0,240,156,13.0,105.0
11133,58.0,0,156,11.0,105.0
11134,49.0,0,156,12.0,105.0
11135,67.0,0,156,11.0,105.0
11136,63.0,120,78,3.0,92.0
11137,51.0,0,78,3.0,92.0
11138,63.0,0,78,4.0,105.0
11139,75.0,0,78,4.0,105.0
11140,51.0,0,96,5.0,105.0
11141,48.0,0,156,12.0,105.0
11142,60.0,0,156,10.0,116.0
11143,48.0,0,156,13.0,105.0
11144,60.0,0,156,11.0,105.0
11145,36.0,0,156,14.0,105.0
11146,68.0,0,156,11.0,105.0
11147,63.0,0,312,4.0,105.0
11148,75.0,0,312,4.0,105.0
11149,63.0,0,312,3.0,92.0
11150,51.0,0,312,3.0,92.0
11151,48.0,0,78,13.0,105.0
11152,68.0,240,78,11.0,105.0
11153,75.0,0,78,10.0,116.0
11154,36.0,0,78,14.0,105.0
11155,48.0,0,78,12.0,105.0
11156,51.0,0,384,5.0,105.0
11157,68.0,0,78,11.0,105.0
11158,75.0,0,78,10.0,116.0
11159,36.0,120,78,14.0,105.0
11160,48.0,0,78,13.0,105.0
11161,48.0,0,78,12.0,105.0
11162,68.0,0,156,11.0,105.0
11163,60.0,120,156,12.0,105.0
11164,75.0,0,156,10.0,116.0
11165,36.0,0,156,14.0,105.0
11166,48.0,0,156,13.0,105.0
11167,63.0,0,234,3.0,92.0
11168,63.0,0,234,4.0,105.0
11169,75.0,0,234,4.0,105.0
11170,51.0,0,234,3.0,92.0
11171,60.0,0,768,2.0,92.0
11172,56.0,0,768,2.0,92.0
11173,80.0,120,768,0.0,92.0
11174,72.0,0,768,1.0,92.0
11175,68.0,0,768,1.0,92.0
11176,51.0,0,288,5.0,105.0
11177,60.0,240,156,12.0,105.0
11178,68.0,0,156,11.0,105.0
11179,36.0,0,156,14.0,105.0
11180,48.0,0,156,13.0,105.0
11181,75.0,0,156,10.0,116.0
11182,63.0,0,78,4.0,105.0
11183,75.0,0,78,4.0,105.0
11184,63.0,120,78,3.0,92.0
11185,51.0,0,78,3.0,92.0
11186,51.0,0,96,5.0,105.0
11187,75.0,0,156,10.0,116.0
11188,69.0,0,156,11.0,105.0
11189,59.0,0,156,12.0,105.0
11190,47.0,0,156,13.0,105.0
11191,35.0,0,156,14.0,105.0
11192,63.0,0,312,4.0,105.0
11193,51.0,0,312,3.0,92.0
11194,75.0,0,312,4.0,105.0
11195,63.0,0,312,3.0,92.0
11196,75.0,0,78,11.0,105.0
11197,47.0,0,78,13.0,105.0
11198,35.0,240,78,14.0,105.0
11199,59.0,0,78,12.0,105.0
11200,78.0,0,78,10.0,116.0
11201,51.0,0,384,5.0,105.0
11202,78.0,0,78,10.0,116.0
11203,75.0,0,78,11.0,105.0
11204,59.0,0,78,12.0,105.0
11205,35.0,0,78,14.0,105.0
11206,47.0,120,78,13.0,105.0
11207,59.0,0,156,12.0,105.0
11208,47.0,0,156,13.0,105.0
11209,35.0,0,156,14.0,105.0
11210,75.0,0,156,11.0,105.0
11211,78.0,120,156,10.0,116.0
11212,78.0,0,768,1.0,92.0
11213,57.0,0,768,2.0,92.0
11214,66.0,0,768,2.0,92.0
11215,69.0,120,768,1.0,92.0
11216,81.0,0,768,0.0,92.0
11217,51.0,0,312,3.0,92.0
11218,75.0,0,312,4.0,105.0
11219,63.0,0,312,4.0,105.0
11220,63.0,0,312,3.0,92.0
11221,51.0,0,384,5.0,105.0
11222,59.0,0,156,12.0,105.0
11223,78.0,0,156,10.0,116.0
11224,75.0,0,156,11.0,105.0
11225,47.0,240,156,13.0,105.0
11226,35.0,0,156,14.0,105.0
11227,51.0,0,48,5.0,92.0
11228,51.0,60,48,5.0,92.0
11229,75.0,0,120,11.0,105.0
11230,79.0,0,120,10.0,116.0
11231,70.0,0,156,1.0,92.0
11232,58.0,0,156,2.0,92.0
11233,67.0,0,156,2.0,92.0
11234,34.0,0,156,14.0,105.0
11235,46.0,0,156,13.0,105.0
11236,58.0,0,156,12.0,105.0
11237,75.0,0,156,4.0,105.0
11238,63.0,0,156,3.0,92.0
11239,51.0,240,156,3.0,92.0
11240,79.0,0,156,1.0,92.0
11241,82.0,0,156,0.0,92.0
11242,63.0,0,156,4.0,105.0
11243,51.0,0,48,5.0,92.0
11244,51.0,60,48,5.0,92.0
11245,78.0,0,120,10.0,116.0
11246,74.0,60,120,11.0,105.0
11247,51.0,0,48,5.0,92.0
11248,51.0,60,48,5.0,92.0
11249,79.0,0,120,10.0,116.0
11250,75.0,0,120,11.0,105.0
11251,79.0,0,156,1.0,92.0
11252,70.0,0,156,1.0,92.0
11253,63.0,0,156,4.0,105.0
11254,82.0,0,156,0.0,92.0
11255,75.0,0,156,4.0,105.0
11256,63.0,0,156,3.0,92.0
11257,51.0,60,156,3.0,92.0
11258,63.0,0,156,12.0,105.0
11259,58.0,0,156,2.0,92.0
11260,39.0,0,156,14.0,105.0
11261,51.0,0,156,13.0,105.0
11262,67.0,0,156,2.0,92.0
11263,51.0,0,48,5.0,92.0
11264,51.0,60,48,5.0,92.0
11265,78.0,60,120,10.0,116.0
11266,74.0,0,120,11.0,105.0
11267,51.0,0,48,5.0,92.0
11268,51.0,60,48,5.0,92.0
11269,79.0,0,120,10.0,116.0
11270,75.0,0,120,11.0,105.0
11271,63.0,0,156,4.0,105.0
11272,75.0,0,156,4.0,105.0
11273,82.0,0,156,0.0,92.0
11274,67.0,0,156,2.0,92.0
11275,58.0,0,156,2.0,92.0
11276,63.0,0,156,3.0,92.0
11277,70.0,0,156,1.0,92.0
11278,55.0,0,156,13.0,105.0
11279,43.0,0,156,14.0,105.0
11280,51.0,0,156,3.0,92.0
11281,67.0,60,156,12.0,105.0
11282,79.0,0,156,1.0,92.0
11283,51.0,0,48,5.0,92.0
11284,51.0,60,48,5.0,92.0
11285,74.0,0,120,11.0,105.0
11286,78.0,60,120,10.0,116.0
11287,51.0,0,48,5.0,92.0
11288,51.0,0,48,5.0,92.0
11289,75.0,60,120,11.0,105.0
11290,79.0,0,120,10.0,116.0
11291,63.0,0,156,3.0,92.0
11292,82.0,0,156,0.0,92.0
11293,58.0,0,156,2.0,92.0
11294,58.0,0,156,13.0,105.0
11295,79.0,0,156,1.0,92.0
11296,70.0,0,156,1.0,92.0
11297,63.0,0,156,4.0,105.0
11298,75.0,0,156,4.0,105.0
11299,67.0,0,156,2.0,92.0
11300,70.0,0,156,12.0,105.0
11301,46.0,0,156,14.0,105.0
11302,51.0,0,156,3.0,92.0
11303,51.0,60,48,5.0,92.0
11304,78.0,0,96,10.0,116.0
11305,74.0,0,96,11.0,105.0
11306,51.0,60,48,5.0,92.0
11307,51.0,0,48,5.0,92.0
11308,51.0,60,48,5.0,92.0
11309,79.0,0,120,10.0,116.0
11310,75.0,0,120,11.0,105.0
11311,58.0,0,156,12.0,105.0
11312,70.0,0,156,1.0,92.0
11313,79.0,0,156,1.0,92.0
11314,75.0,60,156,4.0,105.0
11315,63.0,0,156,4.0,105.0
11316,58.0,0,156,2.0,92.0
11317,67.0,0,156,2.0,92.0
11318,34.0,0,156,14.0,105.0
11319,51.0,0,156,3.0,92.0
11320,82.0,0,156,0.0,92.0
11321,46.0,0,156,13.0,105.0
11322,63.0,0,156,3.0,92.0
11323,51.0,60,48,5.0,92.0
11324,51.0,60,48,5.0,92.0
11325,78.0,0,120,10.0,116.0
11326,74.0,0,120,11.0,105.0
11327,51.0,0,48,5.0,92.0
11328,51.0,60,48,5.0,92.0
11329,79.0,0,120,10.0,116.0
11330,75.0,0,120,11.0,105.0
11331,51.0,0,156,13.0,105.0
11332,75.0,0,156,4.0,105.0
11333,63.0,0,156,4.0,105.0
11334,63.0,0,156,12.0,105.0
11335,67.0,60,156,2.0,92.0
11336,63.0,0,156,3.0,92.0
11337,51.0,0,156,3.0,92.0
11338,82.0,0,156,0.0,92.0
11339,70.0,0,156,1.0,92.0
11340,79.0,0,156,1.0,92.0
11341,58.0,0,156,2.0,92.0
11342,39.0,0,156,14.0,105.0
11343,51.0,0,48,5.0,92.0
11344,51.0,60,48,5.0,92.0
11345,74.0,0,120,11.0,105.0
11346,78.0,60,120,10.0,116.0
11347,51.0,0,48,5.0,92.0
11348,51.0,60,48,5.0,92.0
11349,79.0,0,120,10.0,116.0
11350,75.0,0,120,11.0,105.0
11351,70.0,0,156,1.0,92.0
11352,43.0,0,156,14.0,105.0
11353,67.0,0,156,2.0,92.0
11354,58.0,0,156,2.0,92.0
11355,63.0,0,156,3.0,92.0
11356,51.0,0,156,3.0,92.0
11357,82.0,0,156,0.0,92.0
11358,63.0,0,156,4.0,105.0
11359,79.0,60,156,1.0,92.0
11360,75.0,0,156,4.0,105.0
11361,67.0,0,156,12.0,105.0
11362,55.0,0,156,13.0,105.0
11363,51.0,60,48,5.0,92.0
11364,51.0,60,48,5.0,92.0
11365,74.0,0,120,11.0,105.0
11366,78.0,0,120,10.0,116.0
11367,51.0,0,48,5.0,92.0
11368,51.0,0,48,5.0,92.0
11369,75.0,0,120,11.0,105.0
11370,79.0,0,120,10.0,116.0
11371,79.0,0,156,1.0,92.0
11372,70.0,0,156,1.0,92.0
11373,70.0,0,156,12.0,105.0
11374,67.0,0,156,2.0,92.0
11375,58.0,0,156,2.0,92.0
11376,82.0,0,156,0.0,92.0
11377,46.0,0,156,14.0,105.0
11378,63.0,60,156,4.0,105.0
11379,58.0,0,156,13.0,105.0
11380,51.0,0,156,3.0,92.0
11381,75.0,0,156,4.0,105.0
11382,63.0,0,156,3.0,92.0
11383,51.0,60,48,5.0,92.0
11384,74.0,0,96,11.0,105.0
11385,78.0,0,96,10.0,116.0
11386,51.0,60,48,5.0,92.0
11387,51.0,0,48,5.0,92.0
11388,51.0,60,48,5.0,92.0
11389,75.0,0,120,11.0,105.0
11390,79.0,0,120,10.0,116.0
11391,63.0,0,156,4.0,105.0
11392,75.0,0,156,4.0,105.0
11393,46.0,0,156,13.0,105.0
11394,79.0,0,156,1.0,92.0
11395,34.0,0,156,14.0,105.0
11396,70.0,0,156,1.0,92.0
11397,51.0,0,156,3.0,92.0
11398,63.0,60,156,3.0,92.0
11399,82.0,0,156,0.0,92.0
11400,58.0,0,156,12.0,105.0
11401,67.0,0,156,2.0,92.0
11402,58.0,0,156,2.0,92.0
11403,51.0,60,48,5.0,92.0
11404,51.0,60,48,5.0,92.0
11405,81.0,0,120,10.0,116.0
11406,78.0,0,120,11.0,105.0
11407,51.0,60,48,5.0,92.0
11408,51.0,60,48,5.0,92.0
11409,82.0,0,120,10.0,116.0
11410,79.0,0,120,11.0,105.0
11411,87.0,0,156,0.0,92.0
11412,75.0,0,156,4.0,105.0
11413,51.0,0,156,13.0,105.0
11414,39.0,0,156,14.0,105.0
11415,82.0,0,156,1.0,92.0
11416,79.0,0,156,1.0,92.0
11417,51.0,0,156,3.0,92.0
11418,63.0,0,156,3.0,92.0
11419,63.0,0,156,4.0,105.0
11420,63.0,0,156,12.0,105.0
11421,58.0,0,156,2.0,92.0
11422,67.0,0,156,2.0,92.0
11423,51.0,60,48,5.0,92.0
11424,51.0,60,48,5.0,92.0
11425,81.0,0,120,10.0,116.0
11426,78.0,0,120,11.0,105.0
11427,51.0,0,48,5.0,92.0
11428,51.0,60,48,5.0,92.0
11429,82.0,0,120,10.0,116.0
11430,79.0,0,120,11.0,105.0
11431,58.0,0,156,2.0,92.0
11432,75.0,0,156,4.0,105.0
11433,55.0,0,156,13.0,105.0
11434,87.0,0,156,0.0,92.0
11435,63.0,60,156,4.0,105.0
11436,51.0,0,156,3.0,92.0
11437,63.0,0,156,3.0,92.0
11438,82.0,0,156,1.0,92.0
11439,79.0,0,156,1.0,92.0
11440,67.0,0,156,12.0,105.0
11441,43.0,0,156,14.0,105.0
11442,67.0,0,156,2.0,92.0
11443,51.0,0,48,5.0,92.0
11444,51.0,60,48,5.0,92.0
11445,78.0,0,120,11.0,105.0
11446,81.0,60,120,10.0,116.0
11447,51.0,0,48,5.0,92.0
11448,51.0,0,48,5.0,92.0
11449,79.0,0,120,11.0,105.0
11450,82.0,0,120,10.0,116.0
11451,87.0,0,156,0.0,92.0
11452,46.0,0,156,14.0,105.0
11453,58.0,0,156,13.0,105.0
11454,79.0,0,156,1.0,92.0
11455,82.0,0,156,1.0,92.0
11456,63.0,0,156,3.0,92.0
11457,51.0,0,156,3.0,92.0
11458,70.0,0,156,12.0,105.0
11459,75.0,0,156,4.0,105.0
11460,63.0,60,156,4.0,105.0
11461,67.0,0,156,2.0,92.0
11462,58.0,0,156,2.0,92.0
11463,51.0,0,48,5.0,92.0
11464,78.0,60,96,11.0,105.0
11465,81.0,0,96,10.0,116.0
11466,51.0,60,48,5.0,92.0
11467,51.0,0,48,5.0,92.0
11468,51.0,60,48,5.0,92.0
11469,79.0,60,120,11.0,105.0
11470,82.0,0,120,10.0,116.0
11471,58.0,0,156,12.0,105.0
11472,79.0,0,156,1.0,92.0
11473,82.0,0,156,1.0,92.0
11474,58.0,0,156,2.0,92.0
11475,87.0,0,156,0.0,92.0
11476,34.0,0,156,14.0,105.0
11477,63.0,0,156,4.0,105.0
11478,67.0,0,156,2.0,92.0
11479,51.0,0,156,3.0,92.0
11480,63.0,0,156,3.0,92.0
11481,46.0,0,156,13.0,105.0
11482,75.0,0,156,4.0,105.0
11483,51.0,0,48,5.0,92.0
11484,51.0,60,48,5.0,92.0
11485,78.0,0,120,11.0,105.0
11486,81.0,60,120,10.0,116.0
11487,51.0,0,48,5.0,92.0
11488,51.0,60,48,5.0,92.0
11489,79.0,0,120,11.0,105.0
11490,82.0,0,120,10.0,116.0
11491,79.0,0,156,1.0,92.0
11492,58.0,0,156,2.0,92.0
11493,63.0,0,156,12.0,105.0
11494,51.0,0,156,3.0,92.0
11495,75.0,0,156,4.0,105.0
11496,67.0,0,156,2.0,92.0
11497,87.0,0,156,0.0,92.0
11498,63.0,0,156,4.0,105.0
11499,39.0,0,156,14.0,105.0
11500,51.0,60,156,13.0,105.0
11501,63.0,0,156,3.0,92.0
11502,82.0,0,156,1.0,92.0
11503,51.0,60,48,5.0,92.0
11504,51.0,60,48,5.0,92.0
11505,81.0,0,120,10.0,116.0
11506,78.0,0,120,11.0,105.0
11507,51.0,0,48,5.0,92.0
11508,51.0,60,48,5.0,92.0
11509,79.0,0,120,11.0,105.0
11510,82.0,0,120,10.0,116.0
11511,63.0,60,156,4.0,105.0
11512,55.0,0,156,13.0,105.0
11513,75.0,0,156,4.0,105.0
11514,87.0,0,156,0.0,92.0
11515,43.0,0,156,14.0,105.0
11516,63.0,0,156,3.0,92.0
11517,82.0,0,156,1.0,92.0
11518,79.0,0,156,1.0,92.0
11519,67.0,0,156,2.0,92.0
11520,67.0,0,156,12.0,105.0
11521,58.0,0,156,2.0,92.0
11522,51.0,0,156,3.0,92.0
11523,51.0,0,48,5.0,92.0
11524,51.0,60,48,5.0,92.0
11525,81.0,0,120,10.0,116.0
11526,78.0,60,120,11.0,105.0
11527,51.0,0,48,5.0,92.0
11528,51.0,0,48,5.0,92.0
11529,79.0,0,120,11.0,105.0
11530,82.0,0,120,10.0,116.0
11531,46.0,0,156,14.0,105.0
11532,70.0,0,156,12.0,105.0
11533,79.0,0,156,1.0,92.0
11534,58.0,0,156,13.0,105.0
11535,63.0,0,156,3.0,92.0
11536,67.0,0,156,2.0,92.0
11537,58.0,60,156,2.0,92.0
11538,87.0,0,156,0.0,92.0
11539,75.0,0,156,4.0,105.0
11540,51.0,0,156,3.0,92.0
11541,82.0,0,156,1.0,92.0
11542,63.0,0,156,4.0,105.0
11543,51.0,0,48,5.0,92.0
11544,81.0,0,96,10.0,116.0
11545,78.0,60,96,11.0,105.0
11546,51.0,60,48,5.0,92.0
11547,79.0,0,96,11.0,105.0
11548,82.0,60,96,10.0,116.0
11549,80.0,120,96,10.0,116.0
11550,77.0,0,96,11.0,105.0
11551,79.0,120,96,10.0,116.0
11552,75.0,0,96,11.0,105.0
11553,75.0,0,384,4.0,105.0
11554,82.0,0,384,1.0,92.0
11555,34.0,0,384,14.0,105.0
11556,58.0,0,384,12.0,105.0
11557,51.0,0,384,3.0,92.0
11558,79.0,0,384,1.0,92.0
11559,67.0,0,384,2.0,92.0
11560,63.0,0,384,3.0,92.0
11561,58.0,0,384,2.0,92.0
11562,46.0,0,384,13.0,105.0
11563,51.0,0,384,5.0,116.0
11564,63.0,0,384,4.0,105.0
11565,87.0,0,384,0.0,92.0
11566,74.0,0,96,11.0,105.0
11567,77.0,120,96,10.0,116.0
11568,75.0,0,96,10.0,116.0
11569,72.0,120,96,11.0,105.0
11570,70.0,0,96,11.0,105.0
11571,74.0,120,96,10.0,116.0
11572,68.0,0,96,11.0,105.0
11573,72.0,120,96,10.0,116.0
11574,70.0,0,96,10.0,116.0
11575,67.0,120,96,11.0,105.0
11576,79.0,0,96,11.0,105.0
11577,82.0,120,96,10.0,116.0
11578,80.0,0,96,10.0,116.0
11579,77.0,120,96,11.0,105.0
11580,79.0,120,96,10.0,116.0
11581,75.0,0,96,11.0,105.0
11582,75.0,0,384,4.0,105.0
11583,82.0,0,384,1.0,92.0
11584,58.0,0,384,2.0,92.0
11585,87.0,0,384,0.0,92.0
11586,51.0,0,384,3.0,92.0
11587,63.0,0,384,3.0,92.0
11588,58.0,0,384,12.0,105.0
11589,34.0,0,384,14.0,105.0
11590,63.0,0,384,4.0,105.0
11591,67.0,0,384,2.0,92.0
11592,79.0,0,384,1.0,92.0
11593,46.0,0,384,13.0,105.0
11594,51.0,0,384,5.0,116.0
11595,77.0,120,96,10.0,116.0
11596,74.0,0,96,11.0,105.0
11597,75.0,0,96,10.0,116.0
11598,72.0,120,96,11.0,105.0
11599,70.0,120,96,11.0,105.0
11600,74.0,0,96,10.0,116.0
11601,68.0,0,96,11.0,105.0
11602,72.0,120,96,10.0,116.0
11603,70.0,0,96,10.0,116.0
11604,67.0,120,96,11.0,105.0
11605,63.0,0,384,3.0,92.0
11606,51.0,0,384,3.0,92.0
11607,63.0,0,384,4.0,105.0
11608,75.0,0,384,4.0,105.0
11609,51.0,0,384,5.0,116.0
11610,79.0,120,384,1.0,92.0
11611,82.0,0,384,1.0,92.0
11612,34.0,0,384,14.0,105.0
11613,58.0,0,384,12.0,105.0
11614,46.0,0,384,13.0,105.0
11615,87.0,0,384,0.0,92.0
11616,67.0,0,384,2.0,92.0
11617,82.0,0,384,10.0,116.0
11618,79.0,0,384,11.0,105.0
11619,58.0,0,384,2.0,92.0
11620,79.0,720,72,1.0,58.0
11621,80.0,120,72,1.0,80.0
11622,56.0,0,960,12.0,58.0
11623,34.0,960,960,14.0,58.0
11624,46.0,0,960,13.0,58.0
11625,62.0,0,960,10.0,58.0
11626,82.0,0,120,1.0,80.0
11627,80.0,120,72,1.0,80.0
11628,79.0,120,72,1.0,80.0
11629,77.0,120,72,1.0,80.0
11630,76.0,120,144,1.0,80.0
11631,80.0,240,72,0.0,58.0
11632,82.0,120,72,0.0,80.0
11633,36.0,120,960,14.0,58.0
11634,48.0,0,960,13.0,58.0
11635,58.0,0,1920,11.0,58.0
11636,64.0,0,960,10.0,58.0
11637,55.0,0,960,12.0,58.0
11638,84.0,0,120,0.0,80.0
11639,82.0,120,72,0.0,80.0
11640,80.0,120,72,0.0,80.0
11641,79.0,120,72,0.0,80.0
11642,77.0,120,144,0.0,80.0
11643,77.0,240,72,1.0,80.0
11644,79.0,120,72,1.0,80.0
11645,41.0,120,960,13.0,58.0
11646,65.0,0,960,10.0,58.0
11647,29.0,0,960,14.0,58.0
11648,80.0,0,120,1.0,80.0
11649,79.0,120,72,1.0,80.0
11650,77.0,120,72,1.0,80.0
11651,75.0,120,72,1.0,80.0
11652,74.0,120,144,1.0,80.0
11653,79.0,240,72,0.0,80.0
11654,55.0,0,72,2.0,58.0
11655,67.0,0,72,1.0,80.0
11656,80.0,0,72,0.0,70.0
11657,68.0,0,72,1.0,70.0
11658,56.0,120,72,2.0,70.0
11659,34.0,0,960,14.0,58.0
11660,46.0,120,960,13.0,58.0
11661,62.0,0,960,10.0,58.0
11662,56.0,0,1920,11.0,58.0
11663,56.0,0,1920,12.0,58.0
11664,82.0,0,120,0.0,70.0
11665,58.0,0,120,2.0,70.0
11666,70.0,0,120,1.0,70.0
11667,55.0,0,192,11.0,58.0
11668,51.0,0,192,12.0,58.0
11669,80.0,0,72,0.0,70.0
11670,39.0,0,192,13.0,58.0
11671,68.0,0,72,1.0,70.0
11672,39.0,120,192,14.0,58.0
11673,56.0,120,72,2.0,70.0
11674,63.0,0,192,10.0,58.0
11675,79.0,0,72,0.0,70.0
11676,55.0,120,72,2.0,70.0
11677,67.0,0,72,1.0,70.0
11678,53.0,120,72,2.0,70.0
11679,77.0,0,72,0.0,70.0
11680,65.0,0,72,1.0,70.0
11681,63.0,0,144,1.0,70.0
11682,75.0,120,144,0.0,70.0
11683,51.0,0,144,2.0,70.0
11684,36.0,0,192,14.0,58.0
11685,55.0,0,192,12.0,58.0
11686,48.0,0,192,13.0,58.0
11687,60.0,0,192,11.0,58.0
11688,63.0,0,192,10.0,58.0
11689,55.0,0,144,2.0,70.0
11690,67.0,0,144,1.0,70.0
11691,79.0,240,144,0.0,70.0
11692,77.0,0,144,0.0,70.0
11693,53.0,240,144,2.0,70.0
11694,65.0,0,144,1.0,70.0
11695,53.0,0,192,12.0,58.0
11696,63.0,0,192,10.0,58.0
11697,44.0,0,192,13.0,58.0
11698,60.0,0,192,11.0,58.0
11699,32.0,0,192,14.0,58.0
11700,80.0,240,144,0.0,70.0
11701,56.0,0,144,2.0,70.0
11702,68.0,0,144,1.0,70.0
11703,62.0,0,144,1.0,70.0
11704,74.0,0,144,0.0,70.0
11705,50.0,0,144,2.0,70.0
11706,46.0,0,192,13.0,58.0
11707,34.0,0,192,14.0,58.0
11708,53.0,240,192,12.0,58.0
11709,56.0,0,192,11.0,58.0
11710,62.0,0,192,10.0,58.0
11711,65.0,0,144,1.0,70.0
11712,53.0,240,144,2.0,70.0
11713,77.0,0,144,0.0,70.0
11714,39.0,240,192,14.0,58.0
11715,39.0,0,192,13.0,58.0
11716,75.0,0,384,0.0,58.0
11717,63.0,0,384,1.0,58.0
11718,51.0,0,384,2.0,58.0
11719,51.0,0,192,13.0,58.0
11720,39.0,240,192,14.0,58.0
11721,55.0,0,576,11.0,58.0
11722,51.0,0,576,12.0,58.0
11723,63.0,0,576,10.0,58.0
11724,51.0,240,192,13.0,58.0
11725,39.0,0,192,14.0,58.0
11726,67.0,0,72,12.0,58.0
11727,79.0,0,72,11.0,58.0
11728,79.0,0,72,10.0,58.0
11729,80.0,0,72,10.0,58.0
11730,80.0,120,72,11.0,58.0
11731,68.0,0,72,12.0,58.0
11732,51.0,0,192,13.0,58.0
11733,39.0,240,192,14.0,58.0
11734,70.0,0,120,12.0,58.0
11735,82.0,0,120,10.0,58.0
11736,82.0,0,120,11.0,58.0
11737,39.0,120,156,14.0,58.0
11738,51.0,0,156,13.0,58.0
11739,80.0,0,78,10.0,58.0
11740,68.0,120,78,12.0,58.0
11741,80.0,0,78,11.0,58.0
11742,79.0,120,78,11.0,58.0
11743,79.0,0,78,10.0,58.0
11744,67.0,0,78,12.0,58.0
11745,51.0,0,156,13.0,58.0
11746,39.0,0,156,14.0,58.0
11747,65.0,0,78,12.0,58.0
11748,77.0,0,78,10.0,58.0
11749,77.0,120,78,11.0,58.0
11750,75.0,0,156,10.0,58.0
11751,75.0,120,156,11.0,58.0
11752,39.0,0,156,14.0,58.0
11753,51.0,0,156,13.0,58.0
11754,63.0,0,156,12.0,58.0
11755,62.0,0,78,12.0,58.0
11756,74.0,0,78,10.0,58.0
11757,74.0,240,78,11.0,58.0
11758,39.0,0,156,14.0,58.0
11759,51.0,0,156,13.0,58.0
11760,63.0,0,78,12.0,58.0
11761,75.0,120,78,10.0,58.0
11762,75.0,0,78,11.0,58.0
11763,77.0,120,120,10.0,58.0
11764,65.0,0,120,12.0,58.0
11765,77.0,0,120,11.0,58.0
11766,51.0,0,156,13.0,58.0
11767,39.0,0,156,14.0,58.0
11768,75.0,0,78,10.0,58.0
11769,75.0,120,78,11.0,58.0
11770,63.0,0,78,12.0,58.0
11771,62.0,0,78,12.0,58.0
11772,74.0,0,78,10.0,58.0
11773,74.0,0,78,11.0,58.0
11774,39.0,0,156,14.0,58.0
11775,51.0,120,156,13.0,58.0
11776,72.0,120,78,11.0,58.0
11777,60.0,0,78,12.0,58.0
11778,72.0,0,78,10.0,58.0
11779,70.0,0,156,11.0,58.0
11780,39.0,120,156,14.0,58.0
11781,58.0,0,156,12.0,58.0
11782,70.0,0,156,10.0,58.0
11783,51.0,0,156,13.0,58.0
11784,60.0,0,78,12.0,58.0
11785,72.0,240,78,10.0,58.0
11786,72.0,0,78,11.0,58.0
11787,51.0,0,156,13.0,58.0
11788,39.0,0,156,14.0,58.0
11789,62.0,0,78,12.0,58.0
11790,74.0,120,78,10.0,58.0
11791,74.0,0,78,11.0,58.0
11792,75.0,0,144,11.0,58.0
11793,63.0,120,144,12.0,58.0
11794,75.0,0,144,10.0,70.0
11795,51.0,0,156,13.0,58.0
11796,39.0,0,156,14.0,58.0
11797,74.0,0,144,11.0,58.0
11798,77.0,0,144,10.0,70.0
11799,62.0,240,144,12.0,58.0
11800,65.0,0,144,12.0,58.0
11801,51.0,0,156,13.0,58.0
11802,39.0,0,156,14.0,58.0
11803,75.0,0,144,11.0,70.0
11804,63.0,0,144,12.0,58.0
11805,67.0,0,144,12.0,58.0
11806,79.0,240,144,10.0,70.0
11807,51.0,0,156,13.0,58.0
11808,39.0,0,156,14.0,58.0
11809,77.0,0,144,11.0,70.0
11810,68.0,0,144,12.0,58.0
11811,65.0,0,144,12.0,58.0
11812,80.0,0,144,10.0,70.0
11813,39.0,240,156,14.0,58.0
11814,51.0,0,156,13.0,58.0
11815,39.0,0,120,14.0,58.0
11816,51.0,0,120,13.0,58.0
11817,79.0,240,144,11.0,70.0
11818,82.0,0,144,10.0,70.0
11819,70.0,0,144,12.0,58.0
11820,67.0,0,144,12.0,58.0
11821,50.0,0,120,13.0,58.0
11822,38.0,120,120,14.0,58.0
11823,51.0,0,120,13.0,58.0
11824,51.0,0,120,12.0,58.0
11825,63.0,120,120,10.0,70.0
11826,63.0,0,120,11.0,70.0
11827,39.0,0,120,14.0,58.0
11828,70.0,0,480,1.0,58.0
11829,67.0,0,480,2.0,58.0
11830,50.0,120,120,13.0,58.0
11831,50.0,0,120,12.0,58.0
11832,62.0,0,120,11.0,70.0
11833,82.0,0,480,0.0,58.0
11834,38.0,0,120,14.0,58.0
11835,62.0,0,120,10.0,58.0
11836,79.0,0,480,1.0,58.0
11837,58.0,0,480,2.0,58.0
11838,51.0,120,120,13.0,58.0
11839,63.0,0,120,11.0,70.0
11840,51.0,0,120,12.0,58.0
11841,39.0,0,120,14.0,58.0
11842,63.0,0,120,10.0,58.0
11843,38.0,0,120,14.0,58.0
11844,62.0,0,120,11.0,70.0
11845,62.0,0,120,10.0,58.0
11846,50.0,120,120,13.0,58.0
11847,50.0,0,120,12.0,58.0
11848,63.0,0,120,11.0,70.0
11849,51.0,0,120,13.0,58.0
11850,63.0,0,120,10.0,58.0
11851,51.0,0,120,12.0,58.0
11852,39.0,120,120,14.0,58.0
11853,50.0,0,120,13.0,58.0
11854,62.0,0,120,11.0,70.0
11855,72.0,0,480,1.0,70.0
11856,80.0,0,480,1.0,70.0
11857,84.0,0,480,0.0,70.0
11858,60.0,0,480,2.0,70.0
11859,68.0,0,480,2.0,70.0
11860,62.0,0,120,10.0,58.0
11861,50.0,0,120,12.0,58.0
11862,38.0,120,120,14.0,58.0
11863,63.0,0,120,11.0,70.0
11864,63.0,0,120,10.0,58.0
11865,39.0,0,120,14.0,58.0
11866,51.0,0,120,12.0,58.0
11867,51.0,0,120,13.0,58.0
11868,50.0,0,120,13.0,58.0
11869,62.0,0,120,10.0,58.0
11870,50.0,0,120,12.0,58.0
11871,62.0,120,120,11.0,70.0
11872,38.0,0,120,14.0,58.0
11873,51.0,0,120,13.0,58.0
11874,63.0,0,120,10.0,58.0
11875,39.0,0,120,14.0,58.0
11876,63.0,0,120,11.0,70.0
11877,51.0,120,120,12.0,58.0
11878,81.0,120,480,0.0,70.0
11879,57.0,0,480,2.0,70.0
11880,66.0,0,480,2.0,70.0
11881,78.0,0,480,1.0,70.0
11882,69.0,0,480,1.0,70.0
11883,50.0,0,120,12.0,58.0
11884,50.0,0,120,13.0,58.0
11885,38.0,0,120,14.0,58.0
11886,62.0,120,120,10.0,58.0
11887,62.0,0,120,11.0,70.0
11888,51.0,0,120,12.0,58.0
11889,51.0,0,120,13.0,58.0
11890,39.0,0,120,14.0,58.0
11891,63.0,0,120,11.0,70.0
11892,63.0,0,120,10.0,58.0
11893,62.0,0,120,10.0,58.0
11894,50.0,120,120,12.0,58.0
11895,50.0,0,120,13.0,58.0
11896,38.0,0,120,14.0,58.0
11897,62.0,0,120,11.0,70.0
11898,51.0,0,5568,3.0,58.0
11899,63.0,0,5568,3.0,58.0
11900,51.0,0,120,12.0,58.0
11901,63.0,0,120,10.0,58.0
11902,63.0,0,120,11.0,70.0
11903,51.0,120,120,13.0,58.0
11904,39.0,0,120,14.0,58.0
11905,50.0,120,120,12.0,58.0
11906,82.0,120,480,0.0,70.0
11907,70.0,0,480,1.0,70.0
11908,62.0,0,120,11.0,70.0
11909,50.0,0,120,13.0,58.0
11910,38.0,0,120,14.0,58.0
11911,79.0,0,480,1.0,70.0
11912,67.0,0,480,2.0,70.0
11913,62.0,0,120,10.0,58.0
11914,58.0,0,480,2.0,70.0
11915,51.0,0,156,13.0,58.0
11916,39.0,0,192,14.0,58.0
11917,39.0,240,156,13.0,58.0
11918,39.0,0,192,14.0,58.0
11919,63.0,0,576,11.0,70.0
11920,55.0,0,576,2.0,70.0
11921,63.0,0,576,10.0,58.0
11922,63.0,0,576,2.0,70.0
11923,75.0,0,576,1.0,70.0
11924,51.0,0,576,12.0,58.0
11925,67.0,0,576,1.0,58.0
11926,79.0,120,576,0.0,58.0
11927,39.0,0,156,13.0,58.0
11928,39.0,240,192,14.0,58.0
11929,79.0,0,72,10.0,58.0
11930,79.0,0,72,11.0,58.0
11931,67.0,0,72,12.0,58.0
11932,39.0,240,156,13.0,58.0
11933,68.0,0,72,12.0,58.0
11934,80.0,120,72,11.0,58.0
11935,39.0,0,192,14.0,58.0
11936,80.0,0,72,10.0,58.0
11937,82.0,0,120,10.0,58.0
11938,82.0,120,120,11.0,58.0
11939,70.0,0,120,12.0,58.0
11940,39.0,0,156,13.0,58.0
11941,39.0,0,156,14.0,58.0
11942,80.0,0,78,10.0,58.0
11943,68.0,0,78,12.0,58.0
11944,80.0,120,78,11.0,58.0
11945,79.0,0,78,10.0,58.0
11946,67.0,0,78,12.0,58.0
11947,79.0,0,78,11.0,58.0
11948,39.0,120,156,14.0,58.0
11949,39.0,0,156,13.0,58.0
11950,77.0,0,78,11.0,58.0
11951,65.0,0,78,12.0,58.0
11952,77.0,120,78,10.0,58.0
11953,75.0,120,156,10.0,58.0
11954,39.0,0,156,14.0,58.0
11955,39.0,0,156,13.0,58.0
11956,75.0,0,156,11.0,58.0
11957,63.0,0,156,12.0,58.0
11958,74.0,0,78,10.0,58.0
11959,62.0,0,78,12.0,58.0
11960,74.0,0,78,11.0,58.0
11961,39.0,0,156,13.0,58.0
11962,39.0,240,156,14.0,58.0
11963,75.0,120,78,10.0,58.0
11964,75.0,0,78,11.0,58.0
11965,63.0,0,78,12.0,58.0
11966,65.0,0,120,12.0,58.0
11967,77.0,0,120,11.0,58.0
11968,77.0,0,120,10.0,58.0
11969,39.0,0,156,14.0,58.0
11970,39.0,120,156,13.0,58.0
11971,75.0,120,78,11.0,58.0
11972,63.0,0,78,12.0,58.0
11973,75.0,0,78,10.0,58.0
11974,74.0,0,78,10.0,58.0
11975,74.0,0,78,11.0,58.0
11976,62.0,120,78,12.0,58.0
11977,39.0,0,156,14.0,58.0
11978,39.0,0,156,13.0,58.0
11979,72.0,0,78,10.0,58.0
11980,60.0,120,78,12.0,58.0
11981,72.0,0,78,11.0,58.0
11982,39.0,0,156,14.0,58.0
11983,70.0,0,156,11.0,58.0
11984,70.0,120,156,10.0,58.0
11985,58.0,0,156,12.0,58.0
11986,39.0,0,156,13.0,58.0
11987,60.0,0,78,12.0,58.0
11988,72.0,240,78,10.0,58.0
11989,72.0,0,78,11.0,58.0
11990,39.0,0,156,14.0,58.0
11991,39.0,0,156,13.0,58.0
11992,74.0,0,78,11.0,58.0
11993,74.0,0,78,10.0,58.0
11994,62.0,120,78,12.0,58.0
11995,63.0,0,144,12.0,58.0
11996,75.0,120,144,11.0,58.0
11997,75.0,0,144,10.0,58.0
11998,39.0,0,156,13.0,58.0
11999,39.0,0,156,14.0,58.0
12000,62.0,0,144,12.0,58.0
12001,65.0,0,144,12.0,58.0
12002,74.0,0,144,11.0,58.0
12003,77.0,240,144,10.0,70.0
12004,39.0,0,156,13.0,58.0
12005,39.0,0,156,14.0,58.0
12006,75.0,0,144,11.0,70.0
12007,63.0,0,144,12.0,58.0
12008,67.0,0,144,12.0,58.0
12009,79.0,240,144,10.0,70.0
12010,39.0,0,156,14.0,58.0
12011,39.0,0,156,13.0,58.0
12012,77.0,0,144,11.0,70.0
12013,68.0,0,144,12.0,58.0
12014,65.0,0,144,12.0,58.0
12015,80.0,240,144,10.0,70.0
12016,39.0,0,156,13.0,58.0
12017,39.0,0,156,14.0,58.0
12018,39.0,0,120,14.0,58.0
12019,39.0,0,120,13.0,58.0
12020,67.0,0,144,12.0,58.0
12021,70.0,0,144,12.0,58.0
12022,79.0,0,144,11.0,70.0
12023,82.0,0,144,10.0,70.0
12024,38.0,120,120,14.0,58.0
12025,38.0,0,120,13.0,58.0
12026,39.0,0,120,14.0,58.0
12027,63.0,0,120,11.0,70.0
12028,39.0,0,120,13.0,58.0
12029,51.0,0,120,12.0,58.0
12030,63.0,120,120,10.0,58.0
12031,38.0,0,120,13.0,58.0
12032,58.0,0,480,2.0,58.0
12033,67.0,0,480,2.0,58.0
12034,50.0,0,120,12.0,58.0
12035,62.0,0,120,11.0,58.0
12036,70.0,0,480,1.0,58.0
12037,79.0,240,480,1.0,58.0
12038,38.0,120,120,14.0,58.0
12039,62.0,0,120,10.0,58.0
12040,82.0,0,480,0.0,58.0
12041,39.0,0,120,14.0,58.0
12042,51.0,0,120,12.0,58.0
12043,63.0,0,120,11.0,58.0
12044,39.0,0,120,13.0,58.0
12045,63.0,0,120,10.0,58.0
12046,38.0,0,120,14.0,58.0
12047,62.0,0,120,11.0,58.0
12048,38.0,0,120,13.0,58.0
12049,62.0,0,120,10.0,58.0
12050,50.0,120,120,12.0,58.0
12051,63.0,0,120,10.0,58.0
12052,63.0,0,120,11.0,58.0
12053,39.0,0,120,14.0,58.0
12054,39.0,120,120,13.0,58.0
12055,51.0,0,120,12.0,58.0
12056,80.0,0,480,1.0,58.0
12057,72.0,0,480,1.0,58.0
12058,84.0,0,480,0.0,58.0
12059,38.0,0,120,14.0,58.0
12060,68.0,0,480,2.0,58.0
12061,38.0,0,120,13.0,58.0
12062,62.0,0,120,10.0,58.0
12063,62.0,120,120,11.0,58.0
12064,50.0,0,120,12.0,58.0
12065,60.0,120,480,2.0,58.0
12066,39.0,0,120,13.0,58.0
12067,39.0,0,120,14.0,58.0
12068,51.0,0,120,12.0,58.0
12069,63.0,0,120,11.0,58.0
12070,63.0,120,120,10.0,58.0
12071,38.0,0,120,14.0,58.0
12072,38.0,120,120,13.0,58.0
12073,50.0,0,120,12.0,58.0
12074,62.0,0,120,11.0,58.0
12075,62.0,0,120,10.0,58.0
12076,63.0,0,120,11.0,58.0
12077,39.0,0,120,13.0,58.0
12078,63.0,0,120,10.0,58.0
12079,51.0,0,120,12.0,58.0
12080,39.0,120,120,14.0,58.0
12081,57.0,0,480,2.0,58.0
12082,38.0,0,120,13.0,58.0
12083,38.0,0,120,14.0,58.0
12084,66.0,0,480,2.0,58.0
12085,62.0,0,120,10.0,58.0
12086,50.0,0,120,12.0,58.0
12087,62.0,120,120,11.0,58.0
12088,78.0,0,480,1.0,58.0
12089,69.0,0,480,1.0,58.0
12090,81.0,0,480,0.0,58.0
12091,39.0,120,120,14.0,58.0
12092,51.0,0,120,12.0,58.0
12093,63.0,0,120,11.0,58.0
12094,63.0,0,120,10.0,58.0
12095,39.0,0,120,13.0,58.0
12096,62.0,0,120,10.0,58.0
12097,38.0,0,120,13.0,58.0
12098,38.0,120,120,14.0,58.0
12099,50.0,0,120,12.0,58.0
12100,62.0,0,120,11.0,58.0
12101,63.0,0,120,11.0,58.0
12102,51.0,0,120,12.0,58.0
12103,39.0,120,120,13.0,58.0
12104,39.0,0,120,14.0,58.0
12105,63.0,0,120,10.0,58.0
12106,58.0,0,384,2.0,58.0
12107,67.0,0,384,2.0,58.0
12108,82.0,0,384,0.0,58.0
12109,79.0,0,384,1.0,58.0
12110,70.0,0,384,1.0,58.0
12111,50.0,0,120,12.0,58.0
12112,38.0,0,120,13.0,58.0
12113,62.0,120,120,11.0,58.0
12114,62.0,0,120,10.0,58.0
12115,38.0,0,120,14.0,58.0
12116,51.0,0,5904,3.0,58.0
12117,39.0,0,5904,3.0,58.0
12118,63.0,0,144,10.0,58.0
12119,63.0,0,144,11.0,58.0
12120,67.0,0,144,1.0,58.0
12121,55.0,0,144,2.0,58.0
12122,63.0,0,144,2.0,58.0
12123,39.0,0,144,13.0,58.0
12124,79.0,0,144,0.0,58.0
12125,51.0,0,144,12.0,58.0
12126,39.0,0,144,14.0,58.0
12127,75.0,120,144,1.0,58.0
12128,39.0,0,144,14.0,58.0
12129,51.0,0,144,12.0,58.0
12130,55.0,0,144,2.0,58.0
12131,75.0,0,144,1.0,58.0
12132,79.0,240,144,0.0,58.0
12133,67.0,0,144,1.0,58.0
12134,39.0,0,144,3.0,58.0
12135,63.0,0,144,2.0,58.0
12136,51.0,0,144,3.0,58.0
12137,39.0,0,144,13.0,58.0
12138,63.0,0,144,10.0,58.0
12139,63.0,0,144,11.0,58.0
12140,39.0,0,144,14.0,58.0
12141,51.0,0,144,12.0,58.0
12142,68.0,0,144,2.0,58.0
12143,72.0,0,144,1.0,58.0
12144,80.0,0,144,1.0,58.0
12145,63.0,240,144,11.0,58.0
12146,39.0,0,144,13.0,58.0
12147,60.0,0,144,2.0,58.0
12148,39.0,0,144,3.0,58.0
12149,51.0,0,144,3.0,58.0
12150,84.0,0,144,0.0,58.0
12151,63.0,0,144,10.0,58.0
12152,60.0,0,144,2.0,58.0
12153,63.0,240,144,10.0,58.0
12154,51.0,0,144,12.0,58.0
12155,72.0,0,144,1.0,58.0
12156,68.0,0,144,2.0,58.0
12157,80.0,0,144,1.0,58.0
12158,39.0,0,144,3.0,58.0
12159,39.0,0,144,13.0,58.0
12160,84.0,0,144,0.0,58.0
12161,51.0,0,144,3.0,58.0
12162,39.0,0,144,14.0,58.0
12163,63.0,0,144,11.0,58.0
12164,51.0,0,144,12.0,58.0
12165,63.0,0,144,10.0,58.0
12166,39.0,0,144,3.0,58.0
12167,78.0,0,144,1.0,58.0
12168,69.0,0,144,1.0,58.0
12169,57.0,0,144,2.0,58.0
12170,66.0,0,144,2.0,58.0
12171,51.0,0,144,3.0,58.0
12172,39.0,0,144,14.0,58.0
12173,63.0,240,144,11.0,58.0
12174,81.0,0,144,0.0,58.0
12175,39.0,0,144,13.0,58.0
12176,39.0,0,144,13.0,58.0
12177,57.0,0,144,2.0,58.0
12178,81.0,240,144,0.0,58.0
12179,63.0,0,144,10.0,58.0
12180,51.0,0,144,3.0,58.0
12181,39.0,0,144,3.0,58.0
12182,39.0,0,144,14.0,58.0
12183,51.0,0,144,12.0,58.0
12184,69.0,0,144,1.0,58.0
12185,78.0,0,144,1.0,58.0
12186,66.0,0,144,2.0,58.0
12187,63.0,0,144,11.0,58.0
12188,82.0,0,144,0.0,58.0
12189,67.0,0,144,2.0,58.0
12190,51.0,0,144,12.0,58.0
12191,63.0,0,144,11.0,58.0
12192,58.0,0,144,2.0,58.0
12193,79.0,0,144,1.0,58.0
12194,51.0,0,144,3.0,58.0
12195,70.0,0,144,1.0,58.0
12196,39.0,0,144,3.0,58.0
12197,63.0,0,144,10.0,58.0
12198,39.0,0,144,13.0,58.0
12199,39.0,240,144,14.0,58.0
12200,39.0,0,144,13.0,58.0
12201,63.0,0,144,10.0,58.0
12202,58.0,0,144,2.0,58.0
12203,39.0,240,144,14.0,58.0
12204,51.0,0,144,3.0,58.0
12205,63.0,0,144,11.0,58.0
12206,70.0,0,144,1.0,58.0
12207,79.0,0,144,1.0,58.0
12208,51.0,0,144,12.0,58.0
12209,39.0,0,144,3.0,58.0
12210,67.0,0,144,2.0,58.0
12211,82.0,0,144,0.0,58.0
12212,87.0,0,96,10.0,58.0
12213,79.0,0,96,11.0,58.0
12214,51.0,0,156,12.0,58.0
12215,39.0,240,156,14.0,58.0
12216,39.0,0,156,13.0,58.0
12217,79.0,120,96,11.0,105.0
12218,87.0,0,96,10.0,105.0
12219,79.0,0,96,11.0,105.0
12220,87.0,0,96,10.0,105.0
12221,75.0,0,384,1.0,92.0
12222,67.0,0,384,1.0,92.0
12223,51.0,0,384,3.0,92.0
12224,39.0,0,384,3.0,92.0
12225,51.0,0,384,5.0,116.0
12226,60.0,0,384,4.0,105.0
12227,63.0,0,384,2.0,58.0
12228,55.0,0,384,2.0,92.0
12229,75.0,0,384,4.0,105.0
12230,63.0,120,156,12.0,105.0
12231,39.0,0,156,14.0,105.0
12232,51.0,0,156,13.0,105.0
12233,87.0,0,96,10.0,105.0
12234,79.0,0,456,0.0,92.0
12235,79.0,120,96,11.0,105.0
12236,79.0,120,96,11.0,105.0
12237,87.0,0,96,10.0,105.0
12238,48.0,0,156,14.0,105.0
12239,60.0,0,156,13.0,105.0
12240,72.0,0,156,12.0,105.0
12241,79.0,0,96,11.0,105.0
12242,87.0,120,96,10.0,105.0
12243,79.0,0,96,11.0,105.0
12244,87.0,0,96,10.0,105.0
12245,67.0,0,384,2.0,92.0
12246,48.0,0,156,13.0,105.0
12247,60.0,0,156,12.0,105.0
12248,36.0,120,156,14.0,105.0
12249,79.0,120,96,11.0,105.0
12250,84.0,0,456,0.0,92.0
12251,87.0,0,96,10.0,105.0
12252,87.0,0,96,10.0,105.0
12253,77.0,0,96,11.0,105.0
12254,44.0,120,156,13.0,105.0
12255,32.0,0,156,14.0,105.0
12256,56.0,0,156,12.0,105.0
12257,87.0,120,96,10.0,105.0
12258,77.0,0,96,11.0,105.0
12259,77.0,120,96,11.0,105.0
12260,87.0,0,96,10.0,105.0
12261,75.0,0,864,1.0,92.0
12262,84.0,0,384,1.0,92.0
12263,63.0,0,864,2.0,92.0
12264,56.0,0,156,13.0,105.0
12265,68.0,0,156,12.0,105.0
12266,44.0,0,156,14.0,105.0
12267,87.0,0,96,10.0,105.0
12268,77.0,120,96,11.0,105.0
12269,77.0,120,96,11.0,105.0
12270,86.0,0,96,10.0,105.0
12271,58.0,0,156,13.0,105.0
12272,46.0,0,156,14.0,105.0
12273,70.0,0,156,12.0,105.0
12274,77.0,120,96,11.0,105.0
12275,86.0,0,96,10.0,105.0
12276,86.0,0,96,10.0,105.0
12277,77.0,0,96,11.0,105.0
12278,65.0,0,864,2.0,92.0
12279,46.0,0,384,3.0,92.0
12280,70.0,0,384,4.0,105.0
12281,58.0,0,384,4.0,105.0
12282,58.0,0,384,3.0,92.0
12283,46.0,0,384,5.0,105.0
12284,58.0,0,156,12.0,105.0
12285,34.0,120,156,14.0,105.0
12286,46.0,0,156,13.0,105.0
12287,89.0,0,912,0.0,92.0
12288,77.0,0,96,11.0,105.0
12289,86.0,120,96,10.0,105.0
12290,86.0,0,96,10.0,105.0
12291,75.0,0,96,11.0,105.0
12292,31.0,0,156,14.0,105.0
12293,43.0,0,156,13.0,105.0
12294,55.0,0,156,12.0,105.0
12295,86.0,0,96,10.0,105.0
12296,75.0,120,96,11.0,105.0
12297,86.0,120,96,10.0,105.0
12298,75.0,0,96,11.0,105.0
12299,63.0,0,384,4.0,105.0
12300,51.0,0,384,3.0,92.0
12301,63.0,0,384,3.0,92.0
12302,51.0,120,384,5.0,105.0
12303,75.0,0,384,4.0,105.0
12304,62.0,0,864,2.0,92.0
12305,82.0,0,864,1.0,92.0
12306,74.0,0,864,1.0,92.0
12307,55.0,0,156,13.0,105.0
12308,43.0,0,156,14.0,105.0
12309,67.0,0,156,12.0,105.0
12310,75.0,120,96,11.0,105.0
12311,86.0,0,96,10.0,105.0
12312,84.0,0,96,10.0,105.0
12313,75.0,0,96,11.0,105.0
12314,56.0,0,156,13.0,105.0
12315,44.0,0,156,14.0,105.0
12316,68.0,0,156,12.0,105.0
12317,84.0,120,96,10.0,105.0
12318,75.0,0,96,11.0,105.0
12319,84.0,0,96,10.0,105.0
12320,75.0,0,96,11.0,105.0
12321,63.0,0,864,2.0,92.0
12322,56.0,0,156,12.0,105.0
12323,44.0,120,156,13.0,105.0
12324,32.0,0,156,14.0,105.0
12325,87.0,0,912,0.0,92.0
12326,84.0,120,96,10.0,105.0
12327,75.0,0,96,11.0,105.0
12328,74.0,0,96,11.0,105.0
12329,84.0,0,96,10.0,105.0
12330,53.0,0,156,12.0,105.0
12331,41.0,0,156,13.0,105.0
12332,29.0,0,156,14.0,105.0
12333,74.0,120,96,11.0,105.0
12334,84.0,0,96,10.0,105.0
12335,74.0,0,96,11.0,105.0
12336,84.0,0,96,10.0,105.0
12337,60.0,0,864,2.0,92.0
12338,80.0,120,864,1.0,92.0
12339,72.0,0,864,1.0,92.0
12340,53.0,0,156,13.0,105.0
12341,41.0,0,156,14.0,105.0
12342,65.0,120,156,12.0,105.0
12343,74.0,120,96,11.0,105.0
12344,84.0,0,96,10.0,105.0
12345,82.0,0,96,10.0,105.0
12346,74.0,120,96,11.0,105.0
12347,67.0,0,156,12.0,105.0
12348,55.0,0,156,13.0,105.0
12349,43.0,0,156,14.0,105.0
12350,82.0,0,96,10.0,105.0
12351,74.0,120,96,11.0,105.0
12352,74.0,0,96,11.0,105.0
12353,82.0,0,96,10.0,105.0
12354,46.0,0,384,5.0,105.0
12355,62.0,0,864,2.0,92.0
12356,58.0,0,384,4.0,105.0
12357,70.0,0,384,4.0,105.0
12358,46.0,0,384,3.0,92.0
12359,58.0,0,384,3.0,92.0
12360,43.0,0,156,13.0,105.0
12361,55.0,0,156,12.0,105.0
12362,31.0,120,156,14.0,105.0
12363,86.0,120,912,0.0,92.0
12364,82.0,120,96,10.0,105.0
12365,74.0,0,96,11.0,105.0
12366,82.0,0,96,10.0,105.0
12367,72.0,0,96,11.0,105.0
12368,39.0,120,156,14.0,105.0
12369,51.0,0,156,12.0,105.0
12370,39.0,0,156,13.0,105.0
12371,72.0,120,96,11.0,105.0
12372,82.0,0,96,10.0,105.0
12373,72.0,0,96,11.0,105.0
12374,82.0,0,96,10.0,105.0
12375,51.0,0,384,3.0,92.0
12376,51.0,0,384,5.0,105.0
12377,58.0,0,864,2.0,92.0
12378,70.0,0,864,1.0,92.0
12379,63.0,0,384,3.0,92.0
12380,75.0,0,384,4.0,105.0
12381,79.0,0,864,1.0,92.0
12382,63.0,0,384,4.0,105.0
12383,39.0,120,156,14.0,105.0
12384,63.0,0,156,12.0,105.0
12385,51.0,0,156,13.0,105.0
12386,72.0,120,96,11.0,105.0
12387,82.0,0,96,10.0,105.0
12388,80.0,0,96,10.0,105.0
12389,72.0,0,96,11.0,105.0
12390,41.0,0,156,14.0,105.0
12391,65.0,0,156,12.0,105.0
12392,53.0,0,156,13.0,105.0
12393,72.0,0,96,11.0,105.0
12394,80.0,120,96,10.0,105.0
12395,80.0,0,96,10.0,105.0
12396,72.0,0,96,11.0,105.0
12397,60.0,0,864,2.0,92.0
12398,53.0,0,156,12.0,105.0
12399,41.0,0,156,13.0,105.0
12400,29.0,120,156,14.0,105.0
12401,84.0,0,912,0.0,92.0
12402,80.0,120,96,10.0,105.0
12403,72.0,0,96,11.0,105.0
12404,80.0,0,96,10.0,105.0
12405,70.0,0,96,11.0,105.0
12406,38.0,0,156,13.0,105.0
12407,50.0,0,156,12.0,105.0
12408,38.0,0,156,14.0,105.0
12409,80.0,120,96,10.0,105.0
12410,70.0,0,96,11.0,105.0
12411,70.0,0,96,11.0,105.0
12412,80.0,120,96,10.0,105.0
12413,58.0,120,384,4.0,105.0
12414,70.0,0,384,4.0,105.0
12415,65.0,0,864,3.0,92.0
12416,56.0,0,864,2.0,92.0
12417,77.0,120,864,1.0,92.0
12418,68.0,0,864,1.0,92.0
12419,46.0,0,384,5.0,105.0
12420,58.0,0,384,3.0,92.0
12421,50.0,0,156,13.0,105.0
12422,38.0,0,156,14.0,105.0
12423,62.0,0,156,12.0,105.0
12424,70.0,120,96,11.0,105.0
12425,80.0,0,96,10.0,105.0
12426,70.0,0,96,11.0,105.0
12427,79.0,0,96,10.0,105.0
12428,39.0,0,156,14.0,105.0
12429,63.0,0,156,12.0,105.0
12430,51.0,0,156,13.0,105.0
12431,70.0,120,96,11.0,105.0
12432,79.0,0,96,10.0,105.0
12433,70.0,120,96,11.0,105.0
12434,79.0,0,96,10.0,105.0
12435,67.0,0,384,1.0,92.0
12436,75.0,0,384,1.0,92.0
12437,51.0,0,384,5.0,105.0
12438,63.0,0,384,3.0,92.0
12439,63.0,0,384,4.0,105.0
12440,75.0,0,384,4.0,105.0
12441,58.0,0,864,2.0,92.0
12442,55.0,120,384,2.0,92.0
12443,67.0,0,384,3.0,92.0
12444,39.0,0,156,13.0,105.0
12445,27.0,0,156,14.0,105.0
12446,51.0,0,156,12.0,105.0
12447,82.0,0,912,0.0,92.0
12448,70.0,0,96,11.0,105.0
12449,79.0,120,96,10.0,105.0
12450,75.0,0,384,1.0,92.0
12451,56.0,0,384,12.0,105.0
12452,51.0,120,384,5.0,116.0
12453,63.0,0,384,3.0,92.0
12454,72.0,0,384,1.0,92.0
12455,65.0,0,384,3.0,92.0
12456,56.0,0,384,2.0,92.0
12457,84.0,0,384,0.0,92.0
12458,65.0,0,384,11.0,105.0
12459,75.0,0,384,11.0,105.0
12460,32.0,0,384,14.0,105.0
12461,60.0,0,384,2.0,92.0
12462,44.0,0,384,13.0,105.0
12463,63.0,0,384,4.0,105.0
12464,75.0,0,384,4.0,105.0
12465,84.0,0,384,10.0,105.0
12466,74.0,0,384,10.0,105.0
12467,65.0,0,384,10.0,105.0
12468,70.0,0,384,4.0,105.0
12469,62.0,0,384,2.0,92.0
12470,58.0,0,384,11.0,105.0
12471,86.0,0,384,0.0,92.0
12472,58.0,0,384,4.0,105.0
12473,56.0,0,384,2.0,92.0
12474,68.0,0,384,11.0,105.0
12475,80.0,960,384,1.0,92.0
12476,77.0,0,384,1.0,92.0
12477,58.0,0,384,12.0,105.0
12478,58.0,0,384,10.0,105.0
12479,65.0,0,384,3.0,92.0
12480,58.0,0,384,3.0,92.0
12481,46.0,0,384,5.0,116.0
12482,46.0,0,384,13.0,105.0
12483,34.0,0,384,14.0,105.0
12484,67.0,0,96,11.0,105.0
12485,58.0,960,96,11.0,105.0
12486,75.0,0,120,10.0,116.0
12487,55.0,0,156,3.0,105.0
12488,63.0,0,156,3.0,92.0
12489,63.0,0,156,12.0,105.0
12490,75.0,0,156,1.0,105.0
12491,51.0,0,156,13.0,105.0
12492,63.0,0,156,4.0,105.0
12493,79.0,0,156,1.0,105.0
12494,63.0,0,156,2.0,105.0
12495,55.0,0,156,2.0,105.0
12496,87.0,0,156,0.0,105.0
12497,70.0,0,156,4.0,105.0
12498,39.0,0,156,14.0,105.0
12499,79.0,0,78,10.0,116.0
12500,67.0,0,96,11.0,105.0
12501,58.0,120,96,11.0,105.0
12502,75.0,0,78,10.0,116.0
12503,67.0,0,96,11.0,105.0
12504,58.0,0,96,11.0,105.0
12505,51.0,0,384,5.0,116.0
12506,55.0,0,156,2.0,105.0
12507,70.0,120,156,4.0,105.0
12508,55.0,0,156,3.0,105.0
12509,63.0,0,156,3.0,105.0
12510,75.0,0,156,12.0,105.0
12511,79.0,0,156,1.0,105.0
12512,75.0,0,156,1.0,105.0
12513,51.0,0,156,14.0,105.0
12514,63.0,0,156,2.0,105.0
12515,91.0,0,156,0.0,105.0
12516,63.0,0,156,13.0,105.0
12517,63.0,0,156,4.0,105.0
12518,70.0,120,78,10.0,116.0
12519,58.0,0,96,11.0,105.0
12520,67.0,0,96,11.0,105.0
12521,58.0,0,96,11.0,105.0
12522,68.0,0,96,11.0,105.0
12523,82.0,0,120,10.0,116.0
12524,58.0,0,156,12.0,105.0
12525,70.0,120,156,4.0,105.0
12526,34.0,0,156,14.0,105.0
12527,46.0,0,156,13.0,105.0
12528,65.0,0,156,3.0,105.0
12529,77.0,0,156,1.0,105.0
12530,74.0,0,156,1.0,105.0
12531,53.0,0,156,2.0,105.0
12532,62.0,0,156,2.0,105.0
12533,58.0,0,156,3.0,105.0
12534,89.0,0,156,0.0,105.0
12535,58.0,0,156,4.0,105.0
12536,80.0,0,78,10.0,116.0
12537,68.0,120,96,11.0,105.0
12538,58.0,0,96,11.0,105.0
12539,79.0,0,78,10.0,116.0
12540,68.0,0,96,11.0,105.0
12541,58.0,0,96,11.0,105.0
12542,46.0,0,384,5.0,116.0
12543,58.0,0,156,3.0,105.0
12544,86.0,0,156,0.0,105.0
12545,56.0,0,156,2.0,105.0
12546,65.0,0,156,2.0,105.0
12547,77.0,0,156,1.0,105.0
12548,70.0,0,156,12.0,105.0
12549,58.0,120,156,13.0,105.0
12550,65.0,0,156,3.0,105.0
12551,58.0,0,156,4.0,105.0
12552,80.0,0,156,1.0,105.0
12553,70.0,0,156,4.0,105.0
12554,46.0,0,156,14.0,105.0
12555,74.0,0,78,10.0,116.0
12556,58.0,120,96,11.0,105.0
12557,68.0,0,96,11.0,105.0
12558,58.0,0,96,11.0,105.0
12559,67.0,0,96,11.0,105.0
12560,75.0,0,120,10.0,116.0
12561,55.0,0,156,2.0,105.0
12562,70.0,0,156,4.0,105.0
12563,87.0,0,156,0.0,105.0
12564,39.0,0,156,14.0,105.0
12565,75.0,120,156,1.0,105.0
12566,79.0,0,156,1.0,105.0
12567,63.0,0,156,4.0,105.0
12568,51.0,0,156,13.0,105.0
12569,63.0,0,156,12.0,105.0
12570,63.0,0,156,2.0,105.0
12571,63.0,0,156,3.0,105.0
12572,67.0,0,156,3.0,105.0
12573,79.0,120,78,10.0,116.0
12574,58.0,0,96,11.0,105.0
12575,67.0,0,96,11.0,105.0
12576,75.0,0,78,10.0,116.0
12577,67.0,0,96,11.0,105.0
12578,58.0,0,96,11.0,105.0
12579,51.0,0,384,5.0,116.0
12580,63.0,0,156,3.0,105.0
12581,67.0,120,156,3.0,105.0
12582,91.0,0,156,0.0,105.0
12583,63.0,0,156,13.0,105.0
12584,75.0,0,156,1.0,105.0
12585,63.0,0,156,4.0,105.0
12586,51.0,0,156,14.0,105.0
12587,70.0,0,156,4.0,105.0
12588,55.0,0,156,2.0,105.0
12589,63.0,0,156,2.0,105.0
12590,75.0,0,156,12.0,105.0
12591,79.0,0,156,1.0,105.0
12592,70.0,0,78,10.0,116.0
12593,67.0,120,96,11.0,105.0
12594,58.0,0,96,11.0,105.0
12595,58.0,0,96,11.0,105.0
12596,68.0,0,96,11.0,105.0
12597,82.0,0,120,10.0,116.0
12598,70.0,0,156,4.0,105.0
12599,89.0,0,156,0.0,105.0
12600,62.0,120,156,2.0,105.0
12601,58.0,0,156,3.0,105.0
12602,65.0,0,156,3.0,105.0
12603,46.0,0,156,13.0,105.0
12604,74.0,0,156,1.0,105.0
12605,77.0,0,156,1.0,105.0
12606,58.0,0,156,12.0,105.0
12607,34.0,0,156,14.0,105.0
12608,58.0,0,156,4.0,105.0
12609,53.0,0,156,2.0,105.0
12610,80.0,120,78,10.0,116.0
12611,68.0,0,96,11.0,105.0
12612,58.0,0,96,11.0,105.0
12613,79.0,0,78,10.0,116.0
12614,58.0,0,96,11.0,105.0
12615,68.0,0,96,11.0,105.0
12616,46.0,0,384,5.0,116.0
12617,46.0,0,156,14.0,105.0
12618,58.0,0,156,3.0,105.0
12619,86.0,0,156,0.0,105.0
12620,56.0,0,156,2.0,105.0
12621,65.0,0,156,2.0,105.0
12622,58.0,0,156,13.0,105.0
12623,65.0,0,156,3.0,105.0
12624,70.0,0,156,12.0,105.0
12625,58.0,120,156,4.0,105.0
12626,70.0,0,156,4.0,105.0
12627,80.0,0,156,1.0,105.0
12628,77.0,0,156,1.0,105.0
12629,74.0,0,78,10.0,116.0
12630,68.0,120,96,11.0,105.0
12631,58.0,0,96,11.0,105.0
12632,63.0,0,384,12.0,105.0
12633,70.0,120,384,4.0,105.0
12634,63.0,0,384,4.0,105.0
12635,51.0,0,384,5.0,116.0
12636,75.0,0,384,10.0,105.0
12637,87.0,0,384,0.0,105.0
12638,63.0,0,384,3.0,105.0
12639,67.0,0,384,11.0,105.0
12640,58.0,0,384,11.0,105.0
12641,63.0,0,384,2.0,105.0
12642,55.0,0,384,2.0,105.0
12643,51.0,0,384,13.0,105.0
12644,39.0,0,384,14.0,105.0
12645,75.0,0,384,1.0,105.0
12646,79.0,0,384,1.0,105.0
12647,55.0,0,384,3.0,105.0
12648,43.0,0,78,13.0,105.0
12649,31.0,0,78,14.0,105.0
12650,67.0,720,78,11.0,105.0
12651,67.0,0,78,10.0,105.0
12652,55.0,0,78,12.0,105.0
12653,44.0,0,78,13.0,105.0
12654,56.0,120,78,12.0,105.0
12655,68.0,0,78,10.0,105.0
12656,32.0,0,78,14.0,105.0
12657,68.0,0,78,11.0,105.0
12658,70.0,0,120,11.0,105.0
12659,34.0,0,120,14.0,105.0
12660,46.0,0,120,13.0,105.0
12661,58.0,0,120,12.0,105.0
12662,70.0,0,120,10.0,105.0
12663,70.0,0,156,1.0,105.0
12664,58.0,0,156,2.0,105.0
12665,67.0,0,156,2.0,105.0
12666,63.0,0,156,3.0,105.0
12667,51.0,0,156,3.0,105.0
12668,87.0,0,156,0.0,105.0
12669,79.0,0,156,1.0,105.0
12670,44.0,0,78,13.0,105.0
12671,56.0,120,78,12.0,105.0
12672,32.0,0,78,14.0,105.0
12673,68.0,0,78,11.0,105.0
12674,68.0,0,78,10.0,105.0
12675,67.0,0,78,10.0,105.0
12676,55.0,0,78,12.0,105.0
12677,67.0,0,78,11.0,105.0
12678,43.0,0,78,13.0,105.0
12679,31.0,0,78,14.0,105.0
12680,75.0,120,384,4.0,105.0
12681,63.0,0,384,4.0,105.0
12682,51.0,0,384,5.0,116.0
12683,58.0,0,156,2.0,105.0
12684,79.0,0,156,1.0,105.0
12685,51.0,120,156,3.0,105.0
12686,67.0,0,156,2.0,105.0
12687,63.0,0,156,3.0,105.0
12688,87.0,0,156,0.0,105.0
12689,70.0,0,156,1.0,105.0
12690,41.0,0,78,13.0,105.0
12691,29.0,0,78,14.0,105.0
12692,53.0,0,78,12.0,105.0
12693,65.0,120,78,11.0,105.0
12694,65.0,0,78,10.0,105.0
12695,51.0,0,156,12.0,105.0
12696,63.0,0,156,10.0,105.0
12697,63.0,0,156,3.0,105.0
12698,39.0,0,156,14.0,105.0
12699,67.0,0,156,2.0,105.0
12700,58.0,0,156,2.0,105.0
12701,51.0,0,156,3.0,105.0
12702,39.0,0,156,13.0,105.0
12703,87.0,0,156,0.0,105.0
12704,70.0,0,156,1.0,105.0
12705,79.0,120,156,1.0,105.0
12706,63.0,0,156,11.0,105.0
12707,79.0,0,78,10.0,105.0
12708,43.0,240,78,14.0,105.0
12709,79.0,0,78,11.0,105.0
12710,67.0,0,78,12.0,105.0
12711,55.0,0,78,13.0,105.0
12712,44.0,0,78,14.0,105.0
12713,80.0,0,78,10.0,105.0
12714,80.0,0,78,11.0,105.0
12715,68.0,0,78,12.0,105.0
12716,56.0,120,78,13.0,105.0
12717,58.0,120,120,13.0,105.0
12718,46.0,0,120,14.0,105.0
12719,82.0,0,120,11.0,105.0
12720,82.0,0,120,10.0,105.0
12721,70.0,0,120,12.0,105.0
12722,70.0,0,156,1.0,105.0
12723,79.0,0,156,1.0,105.0
12724,67.0,0,156,2.0,105.0
12725,58.0,0,156,2.0,105.0
12726,63.0,0,156,3.0,105.0
12727,51.0,0,156,3.0,105.0
12728,87.0,0,156,0.0,105.0
12729,80.0,0,78,11.0,105.0
12730,80.0,0,78,10.0,105.0
12731,44.0,120,78,14.0,105.0
12732,56.0,0,78,13.0,105.0
12733,68.0,0,78,12.0,105.0
12734,55.0,0,78,13.0,105.0
12735,79.0,0,78,11.0,105.0
12736,43.0,0,78,14.0,105.0
12737,79.0,0,78,10.0,105.0
12738,67.0,0,78,12.0,105.0
12739,63.0,0,384,4.0,105.0
12740,75.0,0,384,4.0,105.0
12741,51.0,0,384,5.0,116.0
12742,67.0,0,156,2.0,105.0
12743,58.0,0,156,2.0,105.0
12744,87.0,0,156,0.0,105.0
12745,79.0,120,156,1.0,105.0
12746,70.0,0,156,1.0,105.0
12747,63.0,0,156,3.0,105.0
12748,51.0,0,156,3.0,105.0
12749,53.0,0,78,13.0,105.0
12750,65.0,120,78,12.0,105.0
12751,77.0,0,78,10.0,105.0
12752,77.0,0,78,11.0,105.0
12753,41.0,0,78,14.0,105.0
12754,63.0,0,156,3.0,105.0
12755,51.0,0,156,3.0,105.0
12756,39.0,120,156,14.0,105.0
12757,63.0,0,156,12.0,105.0
12758,58.0,0,156,2.0,105.0
12759,87.0,0,156,0.0,105.0
12760,79.0,0,156,1.0,105.0
12761,51.0,0,156,13.0,105.0
12762,67.0,0,156,2.0,105.0
12763,70.0,0,156,1.0,105.0
12764,75.0,0,180,11.0,105.0
12765,75.0,0,180,10.0,105.0
12766,27.0,2400,768,14.0,1.0
