,note,step,duration,channel,velocity
0,60.0,0,240,11.0,64.0
1,56.0,0,570,12.0,64.0
2,32.0,90,240,14.0,64.0
3,63.0,0,240,10.0,64.0
4,44.0,0,240,13.0,64.0
5,61.0,0,90,11.0,64.0
6,37.0,0,240,14.0,64.0
7,49.0,96,240,13.0,64.0
8,65.0,30,90,10.0,64.0
9,63.0,90,30,11.0,64.0
10,67.0,0,30,10.0,64.0
11,68.0,30,90,10.0,64.0
12,65.0,0,90,11.0,64.0
13,61.0,0,30,11.0,64.0
14,65.0,0,30,10.0,64.0
15,63.0,234,90,10.0,64.0
16,44.0,0,90,13.0,64.0
17,32.0,0,90,14.0,64.0
18,60.0,0,90,11.0,64.0
19,68.0,24,90,10.0,64.0
20,67.0,96,20,10.0,64.0
21,70.0,24,90,10.0,64.0
22,68.0,96,20,10.0,64.0
23,72.0,24,90,10.0,64.0
24,70.0,96,20,10.0,64.0
25,73.0,24,90,10.0,64.0
26,72.0,78,20,10.0,64.0
27,63.0,120,60,13.0,64.0
28,67.0,0,60,12.0,64.0
29,70.0,0,60,11.0,64.0
30,75.0,0,60,10.0,64.0
31,68.0,0,60,12.0,64.0
32,63.0,0,60,13.0,64.0
33,75.0,240,60,10.0,64.0
34,72.0,0,60,11.0,64.0
35,75.0,96,240,10.0,64.0
36,70.0,48,180,11.0,64.0
37,67.0,0,180,12.0,64.0
38,63.0,0,180,13.0,64.0
39,63.0,384,90,10.0,64.0
40,44.0,90,240,13.0,64.0
41,63.0,0,240,10.0,64.0
42,60.0,0,240,11.0,64.0
43,32.0,0,240,14.0,64.0
44,56.0,0,570,12.0,64.0
45,37.0,0,240,14.0,64.0
46,61.0,0,90,11.0,64.0
47,49.0,0,240,13.0,64.0
48,65.0,30,90,10.0,64.0
49,67.0,90,30,10.0,64.0
50,63.0,0,30,11.0,64.0
51,65.0,30,90,11.0,64.0
52,68.0,0,90,10.0,64.0
53,61.0,0,30,11.0,64.0
54,65.0,96,30,10.0,64.0
55,63.0,0,90,10.0,64.0
56,60.0,234,90,11.0,64.0
57,44.0,0,90,13.0,64.0
58,32.0,0,90,14.0,64.0
59,68.0,24,90,10.0,64.0
60,67.0,96,20,10.0,64.0
61,70.0,24,90,10.0,64.0
62,68.0,96,20,10.0,64.0
63,72.0,24,90,10.0,64.0
64,70.0,96,20,10.0,64.0
65,74.0,24,90,10.0,64.0
66,72.0,78,20,10.0,64.0
67,75.0,0,60,10.0,64.0
68,58.0,0,60,12.0,64.0
69,46.0,0,60,13.0,64.0
70,67.0,120,60,11.0,64.0
71,82.0,240,60,10.0,64.0
72,46.0,0,60,13.0,64.0
73,62.0,0,60,11.0,64.0
74,56.0,0,60,12.0,64.0
75,39.0,48,180,13.0,64.0
76,55.0,0,180,12.0,64.0
77,63.0,0,180,11.0,64.0
78,82.0,96,240,10.0,64.0
79,75.0,384,90,10.0,64.0
80,63.0,0,240,10.0,64.0
81,32.0,0,240,14.0,64.0
82,60.0,90,240,11.0,64.0
83,44.0,0,240,13.0,64.0
84,56.0,0,570,12.0,64.0
85,37.0,0,240,14.0,64.0
86,65.0,30,90,10.0,64.0
87,49.0,0,240,13.0,64.0
88,61.0,0,90,11.0,64.0
89,63.0,90,30,11.0,64.0
90,67.0,0,30,10.0,64.0
91,68.0,30,90,10.0,64.0
92,65.0,0,90,11.0,64.0
93,61.0,96,30,11.0,64.0
94,65.0,0,30,10.0,64.0
95,60.0,0,90,11.0,64.0
96,44.0,234,90,13.0,64.0
97,63.0,0,90,10.0,64.0
98,32.0,0,90,14.0,64.0
99,68.0,24,90,10.0,64.0
100,67.0,96,20,10.0,64.0
101,70.0,24,90,10.0,64.0
102,68.0,96,20,10.0,64.0
103,72.0,24,90,10.0,64.0
104,70.0,96,20,10.0,64.0
105,73.0,24,90,10.0,64.0
106,72.0,78,20,10.0,64.0
107,70.0,0,60,11.0,64.0
108,67.0,0,60,12.0,64.0
109,63.0,0,60,13.0,64.0
110,75.0,120,60,10.0,64.0
111,72.0,0,60,11.0,64.0
112,68.0,240,60,12.0,64.0
113,75.0,0,60,10.0,64.0
114,63.0,0,60,13.0,64.0
115,63.0,0,180,13.0,64.0
116,67.0,0,180,12.0,64.0
117,75.0,96,240,10.0,64.0
118,70.0,48,180,11.0,64.0
119,63.0,384,90,10.0,64.0
120,63.0,0,240,10.0,64.0
121,56.0,0,570,12.0,64.0
122,32.0,90,240,14.0,64.0
123,44.0,0,240,13.0,64.0
124,60.0,0,240,11.0,64.0
125,61.0,30,90,11.0,64.0
126,65.0,0,90,10.0,64.0
127,37.0,0,240,14.0,64.0
128,49.0,96,240,13.0,64.0
129,63.0,90,30,11.0,64.0
130,67.0,0,30,10.0,64.0
131,68.0,30,90,10.0,64.0
132,65.0,0,90,11.0,64.0
133,61.0,0,30,11.0,64.0
134,65.0,0,30,10.0,64.0
135,63.0,0,90,10.0,64.0
136,44.0,0,90,13.0,64.0
137,60.0,0,90,11.0,64.0
138,32.0,234,90,14.0,64.0
139,68.0,24,90,10.0,64.0
140,67.0,96,20,10.0,64.0
141,70.0,24,90,10.0,64.0
142,68.0,96,20,10.0,64.0
143,72.0,24,90,10.0,64.0
144,70.0,96,20,10.0,64.0
145,74.0,24,90,10.0,64.0
146,72.0,78,20,10.0,64.0
147,75.0,0,60,10.0,64.0
148,67.0,120,60,11.0,64.0
149,58.0,0,60,12.0,64.0
150,46.0,0,60,13.0,64.0
151,56.0,0,60,12.0,64.0
152,46.0,0,60,13.0,64.0
153,82.0,240,60,10.0,64.0
154,62.0,0,60,11.0,64.0
155,63.0,0,180,11.0,64.0
156,55.0,48,180,12.0,64.0
157,82.0,96,240,10.0,64.0
158,39.0,0,180,13.0,64.0
159,75.0,192,90,10.0,64.0
160,63.0,60,60,12.0,64.0
161,55.0,0,240,11.0,64.0
162,39.0,48,240,14.0,64.0
163,51.0,0,240,13.0,64.0
164,63.0,60,60,12.0,64.0
165,63.0,60,60,12.0,64.0
166,63.0,12,60,12.0,64.0
167,56.0,0,90,11.0,64.0
168,63.0,42,60,12.0,64.0
169,53.0,18,90,13.0,64.0
170,41.0,0,90,14.0,64.0
171,63.0,12,60,12.0,64.0
172,43.0,48,30,14.0,64.0
173,58.0,0,30,11.0,64.0
174,55.0,0,30,13.0,64.0
175,63.0,42,60,12.0,64.0
176,60.0,0,90,11.0,64.0
177,44.0,0,90,14.0,64.0
178,56.0,18,90,13.0,64.0
179,63.0,12,60,12.0,64.0
180,56.0,0,30,11.0,64.0
181,41.0,48,30,14.0,64.0
182,53.0,0,30,13.0,64.0
183,75.0,6,90,10.0,64.0
184,63.0,42,60,12.0,64.0
185,51.0,0,90,13.0,64.0
186,55.0,0,90,11.0,64.0
187,39.0,12,90,14.0,64.0
188,63.0,12,60,12.0,64.0
189,74.0,48,30,10.0,64.0
190,79.0,18,90,10.0,64.0
191,63.0,42,60,12.0,64.0
192,63.0,12,60,12.0,64.0
193,77.0,48,30,10.0,64.0
194,80.0,18,90,10.0,64.0
195,63.0,42,60,12.0,64.0
196,63.0,12,60,12.0,64.0
197,79.0,48,30,10.0,64.0
198,63.0,48,60,12.0,64.0
199,82.0,12,90,10.0,64.0
200,63.0,60,60,12.0,64.0
201,63.0,60,60,12.0,64.0
202,41.0,48,240,14.0,64.0
203,53.0,0,240,13.0,64.0
204,56.0,0,240,11.0,64.0
205,63.0,60,60,12.0,64.0
206,63.0,60,60,12.0,64.0
207,63.0,12,60,12.0,64.0
208,63.0,42,60,12.0,64.0
209,58.0,0,90,11.0,64.0
210,43.0,0,90,14.0,64.0
211,55.0,18,90,13.0,64.0
212,63.0,12,60,12.0,64.0
213,56.0,0,30,13.0,64.0
214,60.0,48,30,11.0,64.0
215,44.0,0,30,14.0,64.0
216,58.0,18,90,13.0,64.0
217,46.0,0,90,14.0,64.0
218,61.0,0,90,11.0,64.0
219,63.0,42,60,12.0,64.0
220,63.0,12,60,12.0,64.0
221,43.0,0,30,14.0,64.0
222,55.0,0,30,13.0,64.0
223,58.0,48,30,11.0,64.0
224,41.0,0,90,14.0,64.0
225,75.0,6,90,10.0,64.0
226,63.0,42,60,12.0,64.0
227,53.0,0,90,13.0,64.0
228,56.0,12,90,11.0,64.0
229,63.0,12,60,12.0,64.0
230,74.0,48,30,10.0,64.0
231,80.0,18,90,10.0,64.0
232,63.0,42,60,12.0,64.0
233,63.0,12,60,12.0,64.0
234,79.0,48,30,10.0,64.0
235,82.0,18,90,10.0,64.0
236,63.0,42,60,12.0,64.0
237,63.0,12,60,12.0,64.0
238,80.0,48,30,10.0,64.0
239,84.0,12,90,10.0,64.0
240,63.0,48,60,12.0,64.0
241,63.0,60,60,12.0,64.0
242,63.0,60,60,12.0,64.0
243,43.0,0,240,14.0,64.0
244,58.0,0,240,11.0,64.0
245,55.0,48,240,13.0,64.0
246,63.0,60,60,12.0,64.0
247,63.0,60,60,12.0,64.0
248,63.0,12,60,12.0,64.0
249,60.0,0,90,11.0,64.0
250,63.0,42,60,12.0,64.0
251,44.0,0,90,14.0,64.0
252,56.0,18,90,13.0,64.0
253,63.0,12,60,12.0,64.0
254,58.0,48,30,13.0,64.0
255,46.0,0,30,14.0,64.0
256,61.0,0,30,11.0,64.0
257,48.0,0,90,14.0,64.0
258,63.0,42,60,12.0,64.0
259,63.0,0,90,11.0,64.0
260,60.0,18,90,13.0,64.0
261,63.0,12,60,12.0,64.0
262,56.0,90,30,13.0,64.0
263,60.0,0,30,11.0,64.0
264,44.0,0,30,14.0,64.0
265,63.0,24,90,12.0,64.0
266,58.0,0,90,11.0,64.0
267,43.0,0,90,14.0,64.0
268,75.0,6,90,10.0,64.0
269,55.0,0,90,13.0,64.0
270,74.0,90,30,10.0,64.0
271,82.0,30,90,10.0,64.0
272,80.0,90,30,10.0,64.0
273,84.0,30,90,10.0,64.0
274,82.0,48,30,10.0,64.0
275,85.0,72,60,10.0,64.0
276,82.0,48,30,10.0,64.0
277,84.0,24,60,10.0,64.0
278,60.0,0,60,11.0,64.0
279,56.0,0,60,13.0,64.0
280,63.0,48,60,12.0,64.0
281,79.0,48,30,10.0,64.0
282,80.0,72,60,10.0,64.0
283,76.0,48,30,10.0,64.0
284,58.0,0,60,13.0,64.0
285,68.0,48,60,11.0,64.0
286,77.0,24,60,10.0,64.0
287,62.0,0,60,12.0,64.0
288,73.0,48,30,10.0,64.0
289,74.0,72,60,10.0,64.0
290,70.0,48,30,10.0,64.0
291,51.0,0,60,13.0,64.0
292,75.0,24,60,10.0,64.0
293,67.0,48,60,11.0,64.0
294,63.0,0,60,12.0,64.0
295,79.0,48,30,10.0,64.0
296,82.0,72,60,10.0,64.0
297,75.0,48,30,10.0,64.0
298,79.0,72,60,10.0,64.0
299,70.0,48,30,10.0,64.0
300,62.0,0,60,12.0,64.0
301,58.0,0,60,13.0,64.0
302,65.0,48,60,11.0,64.0
303,80.0,24,60,10.0,64.0
304,77.0,48,30,10.0,64.0
305,63.0,0,60,13.0,64.0
306,75.0,24,60,10.0,64.0
307,63.0,0,60,12.0,64.0
308,67.0,48,60,11.0,64.0
309,79.0,48,30,10.0,64.0
310,82.0,72,60,10.0,64.0
311,75.0,48,30,10.0,64.0
312,79.0,72,60,10.0,64.0
313,70.0,48,30,10.0,64.0
314,65.0,48,60,11.0,64.0
315,58.0,0,60,13.0,64.0
316,62.0,0,60,12.0,64.0
317,80.0,24,60,10.0,64.0
318,77.0,48,30,10.0,64.0
319,63.0,48,60,13.0,64.0
320,63.0,24,60,11.0,64.0
321,75.0,0,60,10.0,64.0
322,63.0,0,60,12.0,64.0
323,76.0,0,30,10.0,64.0
324,64.0,48,30,11.0,64.0
325,77.0,72,60,10.0,64.0
326,65.0,0,60,11.0,64.0
327,75.0,0,30,10.0,64.0
328,63.0,48,30,11.0,64.0
329,73.0,0,60,10.0,64.0
330,61.0,72,60,11.0,64.0
331,72.0,48,30,10.0,64.0
332,60.0,0,30,11.0,64.0
333,70.0,72,60,10.0,64.0
334,58.0,0,60,11.0,64.0
335,56.0,0,30,11.0,64.0
336,68.0,72,30,10.0,64.0
337,67.0,0,60,10.0,64.0
338,55.0,48,60,11.0,64.0
339,41.0,0,30,14.0,64.0
340,53.0,54,30,13.0,64.0
341,65.0,0,30,12.0,64.0
342,63.0,0,60,12.0,64.0
343,39.0,0,60,14.0,64.0
344,51.0,66,60,13.0,64.0
345,49.0,0,30,13.0,64.0
346,37.0,54,30,14.0,64.0
347,61.0,0,30,12.0,64.0
348,60.0,0,60,12.0,64.0
349,48.0,66,60,13.0,64.0
350,36.0,0,60,14.0,64.0
351,34.0,0,30,14.0,64.0
352,46.0,0,30,13.0,64.0
353,58.0,54,30,12.0,64.0
354,44.0,0,60,13.0,64.0
355,56.0,66,60,12.0,64.0
356,32.0,0,60,14.0,64.0
357,55.0,240,30,12.0,64.0
358,31.0,0,30,14.0,64.0
359,43.0,0,30,13.0,64.0
360,32.0,90,240,14.0,64.0
361,44.0,0,240,13.0,64.0
362,63.0,0,240,10.0,64.0
363,56.0,0,570,12.0,64.0
364,60.0,0,240,11.0,64.0
365,49.0,0,240,13.0,64.0
366,37.0,96,240,14.0,64.0
367,61.0,30,90,11.0,64.0
368,65.0,0,90,10.0,64.0
369,63.0,90,30,11.0,64.0
370,67.0,0,30,10.0,64.0
371,65.0,0,90,11.0,64.0
372,68.0,30,90,10.0,64.0
373,61.0,0,30,11.0,64.0
374,65.0,0,30,10.0,64.0
375,60.0,0,90,11.0,64.0
376,32.0,0,90,14.0,64.0
377,63.0,234,90,10.0,64.0
378,44.0,0,90,13.0,64.0
379,68.0,24,90,10.0,64.0
380,67.0,96,20,10.0,64.0
381,70.0,24,90,10.0,64.0
382,68.0,96,20,10.0,64.0
383,72.0,24,90,10.0,64.0
384,70.0,96,20,10.0,64.0
385,73.0,24,90,10.0,64.0
386,72.0,78,20,10.0,64.0
387,63.0,0,60,13.0,64.0
388,70.0,0,60,11.0,64.0
389,67.0,120,60,12.0,64.0
390,75.0,0,60,10.0,64.0
391,75.0,240,60,10.0,64.0
392,71.0,0,60,11.0,64.0
393,68.0,0,60,12.0,64.0
394,63.0,0,60,13.0,64.0
395,70.0,48,180,11.0,64.0
396,63.0,0,180,13.0,64.0
397,75.0,96,240,10.0,64.0
398,67.0,0,180,12.0,64.0
399,63.0,384,90,10.0,64.0
400,63.0,0,240,10.0,64.0
401,56.0,0,570,12.0,64.0
402,59.0,0,240,11.0,64.0
403,44.0,0,240,13.0,64.0
404,32.0,90,240,14.0,64.0
405,64.0,30,90,10.0,64.0
406,49.0,96,240,13.0,64.0
407,37.0,0,240,14.0,64.0
408,61.0,0,90,11.0,64.0
409,66.0,90,30,10.0,64.0
410,63.0,0,30,11.0,64.0
411,64.0,0,90,11.0,64.0
412,68.0,30,90,10.0,64.0
413,61.0,0,30,11.0,64.0
414,64.0,0,30,10.0,64.0
415,63.0,234,90,10.0,64.0
416,32.0,0,90,14.0,64.0
417,59.0,0,90,11.0,64.0
418,44.0,0,90,13.0,64.0
419,68.0,24,90,10.0,64.0
420,53.0,90,240,13.0,64.0
421,62.0,0,240,11.0,64.0
422,67.0,96,20,10.0,64.0
423,70.0,24,90,10.0,64.0
424,68.0,6,20,10.0,64.0
425,56.0,0,15,12.0,64.0
426,51.0,18,90,13.0,64.0
427,63.0,0,90,11.0,64.0
428,72.0,6,90,10.0,64.0
429,70.0,96,20,10.0,64.0
430,73.0,24,90,10.0,64.0
431,72.0,78,20,10.0,64.0
432,75.0,120,60,10.0,64.0
433,67.0,0,60,11.0,64.0
434,61.0,0,60,12.0,64.0
435,75.0,0,60,10.0,64.0
436,39.0,192,60,13.0,64.0
437,60.0,96,150,12.0,64.0
438,68.0,0,150,11.0,64.0
439,75.0,96,240,10.0,64.0
440,44.0,0,150,13.0,64.0
441,68.0,192,90,10.0,64.0
442,63.0,60,60,12.0,64.0
443,39.0,0,240,14.0,64.0
444,51.0,48,240,13.0,64.0
445,55.0,0,240,11.0,64.0
446,63.0,60,60,12.0,64.0
447,63.0,60,60,12.0,64.0
448,63.0,12,60,12.0,64.0
449,56.0,0,90,11.0,64.0
450,41.0,0,90,14.0,64.0
451,53.0,18,90,13.0,64.0
452,63.0,42,60,12.0,64.0
453,63.0,12,60,12.0,64.0
454,43.0,48,30,14.0,64.0
455,58.0,0,30,11.0,64.0
456,55.0,0,30,13.0,64.0
457,44.0,0,90,14.0,64.0
458,60.0,0,90,11.0,64.0
459,56.0,18,90,13.0,64.0
460,63.0,42,60,12.0,64.0
461,63.0,12,60,12.0,64.0
462,56.0,48,30,11.0,64.0
463,53.0,0,30,13.0,64.0
464,41.0,0,30,14.0,64.0
465,39.0,0,90,14.0,64.0
466,63.0,42,60,12.0,64.0
467,75.0,6,90,10.0,64.0
468,51.0,12,90,13.0,64.0
469,55.0,0,90,11.0,64.0
470,63.0,12,60,12.0,64.0
471,74.0,48,30,10.0,64.0
472,63.0,42,60,12.0,64.0
473,79.0,18,90,10.0,64.0
474,63.0,12,60,12.0,64.0
475,77.0,48,30,10.0,64.0
476,80.0,18,90,10.0,64.0
477,63.0,42,60,12.0,64.0
478,63.0,12,60,12.0,64.0
479,79.0,48,30,10.0,64.0
480,82.0,12,90,10.0,64.0
481,63.0,48,60,12.0,64.0
482,63.0,60,60,12.0,64.0
483,63.0,60,60,12.0,64.0
484,41.0,48,240,14.0,64.0
485,56.0,0,240,11.0,64.0
486,53.0,0,240,13.0,64.0
487,63.0,60,60,12.0,64.0
488,63.0,60,60,12.0,64.0
489,63.0,12,60,12.0,64.0
490,43.0,0,90,14.0,64.0
491,58.0,0,90,11.0,64.0
492,63.0,42,60,12.0,64.0
493,55.0,18,90,13.0,64.0
494,63.0,12,60,12.0,64.0
495,44.0,0,30,14.0,64.0
496,60.0,0,30,11.0,64.0
497,56.0,48,30,13.0,64.0
498,63.0,42,60,12.0,64.0
499,61.0,0,90,11.0,64.0
500,46.0,18,90,14.0,64.0
501,58.0,0,90,13.0,64.0
502,63.0,12,60,12.0,64.0
503,43.0,0,30,14.0,64.0
504,58.0,48,30,11.0,64.0
505,55.0,0,30,13.0,64.0
506,56.0,0,90,11.0,64.0
507,53.0,12,90,13.0,64.0
508,75.0,6,90,10.0,64.0
509,41.0,0,90,14.0,64.0
510,63.0,42,60,12.0,64.0
511,63.0,12,60,12.0,64.0
512,74.0,48,30,10.0,64.0
513,63.0,42,60,12.0,64.0
514,80.0,18,90,10.0,64.0
515,63.0,12,60,12.0,64.0
516,79.0,48,30,10.0,64.0
517,63.0,42,60,12.0,64.0
518,82.0,18,90,10.0,64.0
519,63.0,12,60,12.0,64.0
520,80.0,48,30,10.0,64.0
521,84.0,12,90,10.0,64.0
522,63.0,48,60,12.0,64.0
523,63.0,60,60,12.0,64.0
524,63.0,60,60,12.0,64.0
525,58.0,0,240,11.0,64.0
526,55.0,0,240,13.0,64.0
527,43.0,48,240,14.0,64.0
528,63.0,60,60,12.0,64.0
529,63.0,60,60,12.0,64.0
530,63.0,12,60,12.0,64.0
531,56.0,0,90,13.0,64.0
532,44.0,0,90,14.0,64.0
533,60.0,18,90,11.0,64.0
534,63.0,42,60,12.0,64.0
535,63.0,12,60,12.0,64.0
536,58.0,0,30,13.0,64.0
537,46.0,48,30,14.0,64.0
538,61.0,0,30,11.0,64.0
539,63.0,42,60,12.0,64.0
540,63.0,0,90,11.0,64.0
541,60.0,18,90,13.0,64.0
542,48.0,0,90,14.0,64.0
543,63.0,12,60,12.0,64.0
544,60.0,0,30,11.0,64.0
545,44.0,90,30,14.0,64.0
546,56.0,0,30,13.0,64.0
547,63.0,0,90,12.0,64.0
548,55.0,0,90,13.0,64.0
549,75.0,6,90,10.0,64.0
550,43.0,0,90,14.0,64.0
551,58.0,24,90,11.0,64.0
552,74.0,90,30,10.0,64.0
553,82.0,30,90,10.0,64.0
554,80.0,90,30,10.0,64.0
555,84.0,30,90,10.0,64.0
556,82.0,48,30,10.0,64.0
557,85.0,72,60,10.0,64.0
558,82.0,48,30,10.0,64.0
559,84.0,24,60,10.0,64.0
560,63.0,48,60,12.0,64.0
561,60.0,0,60,11.0,64.0
562,56.0,0,60,13.0,64.0
563,79.0,48,30,10.0,64.0
564,80.0,72,60,10.0,64.0
565,76.0,48,30,10.0,64.0
566,58.0,48,60,13.0,64.0
567,77.0,24,60,10.0,64.0
568,68.0,0,60,11.0,64.0
569,62.0,0,60,12.0,64.0
570,73.0,48,30,10.0,64.0
571,74.0,72,60,10.0,64.0
572,70.0,48,30,10.0,64.0
573,51.0,0,60,13.0,64.0
574,75.0,24,60,10.0,64.0
575,67.0,0,60,11.0,64.0
576,63.0,48,60,12.0,64.0
577,79.0,48,30,10.0,64.0
578,82.0,72,60,10.0,64.0
579,75.0,48,30,10.0,64.0
580,79.0,72,60,10.0,64.0
581,70.0,48,30,10.0,64.0
582,58.0,0,60,13.0,64.0
583,80.0,24,60,10.0,64.0
584,65.0,0,60,11.0,64.0
585,62.0,48,60,12.0,64.0
586,77.0,48,30,10.0,64.0
587,67.0,0,60,11.0,64.0
588,75.0,24,60,10.0,64.0
589,63.0,0,60,13.0,64.0
590,63.0,48,60,12.0,64.0
591,79.0,48,30,10.0,64.0
592,82.0,72,60,10.0,64.0
593,75.0,48,30,10.0,64.0
594,79.0,72,60,10.0,64.0
595,70.0,48,30,10.0,64.0
596,80.0,24,60,10.0,64.0
597,58.0,0,60,13.0,64.0
598,62.0,0,60,12.0,64.0
599,65.0,48,60,11.0,64.0
600,77.0,48,30,10.0,64.0
601,63.0,48,60,13.0,64.0
602,63.0,24,60,11.0,64.0
603,75.0,0,60,10.0,64.0
604,63.0,0,60,12.0,64.0
605,64.0,0,30,11.0,64.0
606,76.0,48,30,10.0,64.0
607,77.0,0,60,10.0,64.0
608,65.0,72,60,11.0,64.0
609,63.0,48,30,11.0,64.0
610,75.0,0,30,10.0,64.0
611,73.0,72,60,10.0,64.0
612,61.0,0,60,11.0,64.0
613,60.0,0,30,11.0,64.0
614,72.0,48,30,10.0,64.0
615,70.0,0,60,10.0,64.0
616,58.0,72,60,11.0,64.0
617,68.0,0,30,10.0,64.0
618,56.0,72,30,11.0,64.0
619,67.0,0,60,10.0,64.0
620,55.0,48,60,11.0,64.0
621,41.0,0,30,14.0,64.0
622,53.0,54,30,13.0,64.0
623,65.0,0,30,12.0,64.0
624,63.0,66,60,12.0,64.0
625,39.0,0,60,14.0,64.0
626,51.0,0,60,13.0,64.0
627,49.0,0,30,13.0,64.0
628,37.0,54,30,14.0,64.0
629,61.0,0,30,12.0,64.0
630,60.0,0,60,12.0,64.0
631,48.0,66,60,13.0,64.0
632,36.0,0,60,14.0,64.0
633,46.0,0,30,13.0,64.0
634,58.0,0,30,12.0,64.0
635,34.0,54,30,14.0,64.0
636,56.0,0,60,12.0,64.0
637,44.0,0,60,13.0,64.0
638,32.0,66,60,14.0,64.0
639,55.0,0,30,12.0,64.0
640,43.0,0,30,13.0,64.0
641,31.0,240,30,14.0,64.0
642,63.0,0,240,10.0,64.0
643,56.0,0,570,12.0,64.0
644,44.0,0,240,13.0,64.0
645,60.0,0,240,11.0,64.0
646,32.0,90,240,14.0,64.0
647,61.0,30,90,11.0,64.0
648,49.0,0,240,13.0,64.0
649,65.0,0,90,10.0,64.0
650,37.0,96,240,14.0,64.0
651,63.0,90,30,11.0,64.0
652,67.0,0,30,10.0,64.0
653,68.0,0,90,10.0,64.0
654,65.0,30,90,11.0,64.0
655,65.0,0,30,10.0,64.0
656,61.0,0,30,11.0,64.0
657,63.0,234,90,10.0,64.0
658,32.0,0,90,14.0,64.0
659,60.0,0,90,11.0,64.0
660,44.0,0,90,13.0,64.0
661,68.0,24,90,10.0,64.0
662,67.0,96,20,10.0,64.0
663,70.0,24,90,10.0,64.0
664,68.0,96,20,10.0,64.0
665,72.0,24,90,10.0,64.0
666,70.0,96,20,10.0,64.0
667,73.0,24,90,10.0,64.0
668,72.0,78,20,10.0,64.0
669,63.0,0,60,13.0,64.0
670,67.0,0,60,12.0,64.0
671,70.0,120,60,11.0,64.0
672,75.0,0,60,10.0,64.0
673,68.0,240,60,12.0,64.0
674,71.0,0,60,11.0,64.0
675,75.0,0,60,10.0,64.0
676,63.0,0,60,13.0,64.0
677,75.0,96,240,10.0,64.0
678,67.0,0,180,12.0,64.0
679,70.0,48,180,11.0,64.0
680,63.0,0,180,13.0,64.0
681,63.0,384,90,10.0,64.0
682,59.0,0,240,11.0,64.0
683,32.0,90,240,14.0,64.0
684,44.0,0,240,13.0,64.0
685,63.0,0,240,10.0,64.0
686,56.0,0,570,12.0,64.0
687,37.0,96,240,14.0,64.0
688,64.0,30,90,10.0,64.0
689,49.0,0,240,13.0,64.0
690,61.0,0,90,11.0,64.0
691,66.0,90,30,10.0,64.0
692,63.0,0,30,11.0,64.0
693,68.0,30,90,10.0,64.0
694,64.0,0,90,11.0,64.0
695,61.0,0,30,11.0,64.0
696,64.0,0,30,10.0,64.0
697,59.0,0,90,11.0,64.0
698,44.0,0,90,13.0,64.0
699,63.0,234,90,10.0,64.0
700,32.0,0,90,14.0,64.0
701,68.0,24,90,10.0,64.0
702,62.0,0,240,11.0,64.0
703,53.0,90,240,13.0,64.0
704,67.0,96,20,10.0,64.0
705,70.0,24,90,10.0,64.0
706,68.0,6,20,10.0,64.0
707,72.0,6,90,10.0,64.0
708,56.0,0,15,12.0,64.0
709,51.0,0,90,13.0,64.0
710,63.0,18,90,11.0,64.0
711,70.0,96,20,10.0,64.0
712,73.0,24,90,10.0,64.0
713,72.0,78,20,10.0,64.0
714,75.0,120,60,10.0,64.0
715,39.0,0,60,13.0,64.0
716,75.0,0,60,10.0,64.0
717,61.0,0,60,12.0,64.0
718,67.0,192,60,11.0,64.0
719,60.0,0,150,12.0,64.0
720,68.0,0,150,11.0,64.0
721,44.0,96,150,13.0,64.0
722,75.0,96,240,10.0,64.0
723,68.0,238,90,10.0,64.0
724,60.0,120,90,2.0,64.0
725,70.0,0,90,1.0,64.0
726,76.0,0,90,1.0,64.0
727,84.0,0,90,0.0,64.0
728,67.0,0,90,3.0,64.0
729,48.0,0,90,2.0,64.0
730,60.0,0,90,2.0,64.0
731,76.0,120,90,1.0,64.0
732,70.0,0,90,1.0,64.0
733,84.0,0,90,0.0,64.0
734,67.0,0,90,3.0,64.0
735,48.0,0,90,2.0,64.0
736,67.0,0,90,3.0,64.0
737,48.0,0,90,2.0,64.0
738,84.0,120,90,0.0,64.0
739,76.0,0,90,1.0,64.0
740,70.0,0,90,1.0,64.0
741,60.0,0,90,2.0,64.0
742,76.0,0,90,1.0,64.0
743,70.0,0,90,1.0,64.0
744,67.0,0,90,3.0,64.0
745,48.0,0,90,2.0,64.0
746,60.0,0,90,2.0,64.0
747,84.0,86,90,0.0,64.0
748,76.0,0,480,1.0,64.0
749,67.0,0,480,3.0,64.0
750,70.0,48,480,1.0,64.0
751,60.0,0,480,2.0,64.0
752,48.0,0,480,2.0,64.0
753,84.0,60,60,0.0,64.0
754,85.0,60,60,0.0,64.0
755,84.0,60,60,0.0,64.0
756,83.0,60,60,0.0,64.0
757,84.0,60,60,0.0,64.0
758,82.0,60,60,0.0,64.0
759,80.0,48,60,0.0,64.0
760,79.0,12,60,0.0,64.0
761,60.0,48,60,11.0,64.0
762,60.0,0,180,2.0,64.0
763,29.0,0,60,14.0,64.0
764,77.0,0,180,0.0,64.0
765,77.0,12,90,10.0,64.0
766,56.0,0,60,12.0,64.0
767,65.0,4,450,3.0,64.0
768,77.0,0,180,1.0,64.0
769,41.0,0,60,13.0,64.0
770,53.0,36,180,2.0,64.0
771,68.0,0,180,1.0,64.0
772,53.0,0,60,13.0,64.0
773,41.0,48,60,14.0,64.0
774,60.0,12,90,11.0,64.0
775,56.0,0,90,12.0,64.0
776,53.0,0,60,13.0,64.0
777,41.0,24,60,14.0,64.0
778,72.0,0,60,10.0,64.0
779,53.0,0,60,13.0,64.0
780,56.0,12,90,12.0,64.0
781,60.0,0,90,11.0,64.0
782,41.0,6,60,14.0,64.0
783,77.0,42,20,10.0,64.0
784,41.0,48,60,14.0,64.0
785,80.0,12,90,10.0,64.0
786,53.0,0,60,13.0,64.0
787,41.0,0,60,14.0,64.0
788,60.0,12,90,11.0,64.0
789,56.0,0,90,12.0,64.0
790,53.0,48,60,13.0,64.0
791,41.0,0,60,14.0,64.0
792,53.0,32,60,13.0,64.0
793,41.0,12,60,14.0,64.0
794,60.0,0,60,11.0,64.0
795,53.0,0,60,13.0,64.0
796,80.0,16,20,10.0,64.0
797,56.0,48,60,12.0,64.0
798,79.0,8,20,10.0,64.0
799,77.0,0,20,10.0,64.0
800,61.0,0,60,11.0,64.0
801,76.0,0,450,1.0,64.0
802,67.0,0,450,3.0,64.0
803,76.0,12,90,10.0,64.0
804,61.0,0,450,2.0,64.0
805,58.0,12,450,2.0,64.0
806,88.0,0,450,0.0,64.0
807,70.0,0,450,1.0,64.0
808,58.0,0,60,12.0,64.0
809,29.0,48,60,14.0,64.0
810,41.0,0,60,13.0,64.0
811,41.0,48,60,14.0,64.0
812,61.0,0,90,11.0,64.0
813,58.0,12,90,12.0,64.0
814,53.0,0,60,13.0,64.0
815,79.0,36,60,10.0,64.0
816,53.0,24,60,13.0,64.0
817,41.0,0,60,14.0,64.0
818,58.0,0,90,12.0,64.0
819,41.0,0,60,14.0,64.0
820,53.0,6,60,13.0,64.0
821,61.0,12,90,11.0,64.0
822,82.0,42,20,10.0,64.0
823,41.0,48,60,14.0,64.0
824,53.0,0,60,13.0,64.0
825,85.0,12,90,10.0,64.0
826,41.0,0,60,14.0,64.0
827,53.0,48,60,13.0,64.0
828,58.0,12,90,12.0,64.0
829,61.0,0,90,11.0,64.0
830,41.0,0,60,14.0,64.0
831,53.0,48,60,13.0,64.0
832,53.0,0,60,13.0,64.0
833,61.0,48,60,11.0,64.0
834,41.0,6,60,14.0,64.0
835,58.0,0,60,12.0,64.0
836,76.0,6,20,10.0,64.0
837,29.0,0,60,14.0,64.0
838,77.0,12,90,10.0,64.0
839,60.0,9,450,2.0,64.0
840,89.0,0,450,0.0,64.0
841,60.0,48,60,11.0,64.0
842,56.0,0,60,12.0,64.0
843,56.0,0,930,2.0,64.0
844,41.0,0,60,13.0,64.0
845,77.0,0,450,1.0,64.0
846,65.0,12,870,3.0,64.0
847,68.0,0,930,1.0,64.0
848,60.0,0,90,11.0,64.0
849,56.0,12,90,12.0,64.0
850,41.0,48,60,14.0,64.0
851,53.0,0,60,13.0,64.0
852,41.0,0,60,14.0,64.0
853,72.0,36,60,10.0,64.0
854,53.0,24,60,13.0,64.0
855,56.0,12,90,12.0,64.0
856,41.0,0,60,14.0,64.0
857,53.0,6,60,13.0,64.0
858,60.0,0,90,11.0,64.0
859,77.0,42,20,10.0,64.0
860,41.0,48,60,14.0,64.0
861,53.0,0,60,13.0,64.0
862,80.0,12,90,10.0,64.0
863,60.0,0,90,11.0,64.0
864,53.0,0,60,13.0,64.0
865,41.0,48,60,14.0,64.0
866,56.0,12,90,12.0,64.0
867,41.0,27,60,14.0,64.0
868,53.0,0,60,13.0,64.0
869,56.0,48,120,12.0,64.0
870,53.0,0,60,13.0,64.0
871,80.0,15,15,10.0,64.0
872,60.0,0,60,11.0,64.0
873,41.0,12,60,14.0,64.0
874,79.0,6,15,10.0,64.0
875,77.0,3,15,10.0,64.0
876,75.0,48,15,10.0,64.0
877,29.0,0,60,14.0,64.0
878,41.0,0,60,13.0,64.0
879,59.0,0,450,2.0,64.0
880,59.0,0,60,11.0,64.0
881,74.0,12,90,10.0,64.0
882,74.0,0,450,1.0,64.0
883,86.0,12,450,0.0,64.0
884,41.0,48,60,14.0,64.0
885,56.0,12,90,12.0,64.0
886,53.0,0,60,13.0,64.0
887,59.0,0,90,11.0,64.0
888,41.0,0,60,14.0,64.0
889,77.0,36,60,10.0,64.0
890,53.0,24,60,13.0,64.0
891,56.0,12,90,12.0,64.0
892,53.0,0,60,13.0,64.0
893,41.0,6,60,14.0,64.0
894,59.0,0,90,11.0,64.0
895,80.0,42,20,10.0,64.0
896,83.0,12,90,10.0,64.0
897,53.0,0,60,13.0,64.0
898,41.0,48,60,14.0,64.0
899,56.0,0,90,12.0,64.0
900,59.0,12,90,11.0,64.0
901,41.0,36,60,14.0,64.0
902,53.0,0,60,13.0,64.0
903,41.0,0,60,14.0,64.0
904,53.0,48,60,13.0,64.0
905,41.0,6,60,14.0,64.0
906,56.0,48,60,12.0,64.0
907,59.0,0,60,11.0,64.0
908,53.0,0,60,13.0,64.0
909,74.0,6,20,10.0,64.0
910,58.0,12,390,2.0,64.0
911,70.0,0,480,1.0,64.0
912,54.0,0,720,2.0,64.0
913,75.0,12,90,10.0,64.0
914,30.0,0,60,14.0,64.0
915,87.0,0,720,0.0,64.0
916,58.0,0,60,11.0,64.0
917,63.0,0,390,3.0,64.0
918,42.0,48,60,13.0,64.0
919,58.0,0,60,12.0,64.0
920,42.0,0,60,14.0,64.0
921,58.0,12,90,12.0,64.0
922,54.0,48,60,13.0,64.0
923,63.0,0,90,11.0,64.0
924,42.0,0,60,14.0,64.0
925,70.0,36,60,10.0,64.0
926,54.0,24,60,13.0,64.0
927,63.0,12,90,11.0,64.0
928,42.0,6,60,14.0,64.0
929,54.0,0,60,13.0,64.0
930,58.0,0,90,12.0,64.0
931,75.0,42,20,10.0,64.0
932,42.0,0,60,14.0,64.0
933,54.0,48,60,13.0,64.0
934,78.0,12,90,10.0,64.0
935,54.0,36,60,13.0,64.0
936,58.0,12,90,12.0,64.0
937,63.0,0,90,11.0,64.0
938,42.0,0,60,14.0,64.0
939,42.0,24,60,14.0,64.0
940,54.0,0,60,13.0,64.0
941,42.0,0,60,14.0,64.0
942,54.0,9,60,13.0,64.0
943,58.0,0,60,12.0,64.0
944,75.0,15,15,10.0,64.0
945,63.0,0,120,11.0,64.0
946,73.0,15,15,10.0,64.0
947,71.0,6,15,10.0,64.0
948,70.0,3,15,10.0,64.0
949,35.0,0,60,14.0,64.0
950,47.0,48,60,13.0,64.0
951,59.0,0,60,12.0,64.0
952,63.0,0,420,2.0,64.0
953,75.0,48,15,1.0,64.0
954,63.0,12,390,3.0,64.0
955,51.0,0,390,3.0,64.0
956,69.0,12,90,10.0,64.0
957,78.0,36,240,1.0,64.0
958,63.0,12,90,12.0,64.0
959,66.0,0,90,11.0,64.0
960,59.0,0,60,13.0,64.0
961,47.0,48,60,14.0,64.0
962,59.0,24,60,13.0,64.0
963,47.0,0,60,14.0,64.0
964,81.0,36,60,10.0,64.0
965,47.0,0,60,14.0,64.0
966,59.0,6,60,13.0,64.0
967,63.0,0,90,12.0,64.0
968,66.0,12,90,11.0,64.0
969,75.0,6,20,10.0,64.0
970,87.0,12,90,10.0,64.0
971,69.0,0,180,1.0,64.0
972,59.0,48,60,13.0,64.0
973,47.0,0,60,14.0,64.0
974,81.0,0,180,0.0,64.0
975,75.0,0,180,1.0,64.0
976,57.0,36,180,2.0,64.0
977,63.0,12,90,12.0,64.0
978,47.0,36,60,14.0,64.0
979,66.0,0,90,11.0,64.0
980,59.0,0,60,13.0,64.0
981,47.0,24,60,14.0,64.0
982,59.0,0,60,13.0,64.0
983,63.0,48,60,11.0,64.0
984,63.0,0,60,12.0,64.0
985,59.0,6,60,13.0,64.0
986,47.0,0,60,14.0,64.0
987,81.0,6,20,10.0,64.0
988,46.0,0,60,13.0,64.0
989,62.0,0,60,12.0,64.0
990,34.0,0,60,14.0,64.0
991,74.0,0,120,1.0,64.0
992,46.0,36,180,3.0,64.0
993,58.0,0,180,3.0,64.0
994,62.0,0,240,2.0,64.0
995,58.0,0,240,2.0,64.0
996,70.0,36,120,1.0,64.0
997,82.0,0,240,0.0,64.0
998,82.0,12,90,10.0,64.0
999,65.0,48,60,11.0,64.0
1000,65.0,0,90,11.0,64.0
1001,46.0,0,60,14.0,64.0
1002,62.0,12,90,12.0,64.0
1003,58.0,12,60,13.0,64.0
1004,77.0,0,60,10.0,64.0
1005,58.0,0,60,13.0,64.0
1006,74.0,0,120,1.0,64.0
1007,77.0,0,120,1.0,64.0
1008,46.0,24,60,14.0,64.0
1009,58.0,48,60,12.0,64.0
1010,58.0,6,60,13.0,64.0
1011,46.0,0,60,14.0,64.0
1012,65.0,0,60,11.0,64.0
1013,86.0,6,20,10.0,64.0
1014,46.0,0,60,13.0,64.0
1015,81.0,0,240,0.0,64.0
1016,66.0,48,60,11.0,64.0
1017,63.0,36,180,3.0,64.0
1018,51.0,0,180,3.0,64.0
1019,75.0,0,120,1.0,64.0
1020,78.0,36,120,1.0,64.0
1021,57.0,0,240,2.0,64.0
1022,60.0,48,240,2.0,64.0
1023,87.0,12,90,10.0,64.0
1024,34.0,0,60,14.0,64.0
1025,57.0,0,60,12.0,64.0
1026,66.0,12,90,11.0,64.0
1027,46.0,0,60,14.0,64.0
1028,60.0,0,90,12.0,64.0
1029,58.0,12,60,13.0,64.0
1030,75.0,0,120,1.0,64.0
1031,46.0,0,60,14.0,64.0
1032,72.0,0,120,1.0,64.0
1033,58.0,24,60,13.0,64.0
1034,66.0,0,60,11.0,64.0
1035,46.0,6,60,14.0,64.0
1036,63.0,0,60,12.0,64.0
1037,58.0,0,60,13.0,64.0
1038,81.0,6,20,10.0,64.0
1039,58.0,0,240,2.0,64.0
1040,62.0,0,240,2.0,64.0
1041,46.0,0,60,13.0,64.0
1042,70.0,36,120,1.0,64.0
1043,62.0,48,60,12.0,64.0
1044,82.0,12,90,10.0,64.0
1045,82.0,0,240,0.0,64.0
1046,46.0,0,180,3.0,64.0
1047,65.0,0,60,11.0,64.0
1048,58.0,0,180,3.0,64.0
1049,34.0,0,60,14.0,64.0
1050,58.0,0,60,13.0,64.0
1051,62.0,0,90,12.0,64.0
1052,65.0,12,90,11.0,64.0
1053,46.0,12,60,14.0,64.0
1054,74.0,0,15,1.0,64.0
1055,77.0,48,120,1.0,64.0
1056,77.0,36,60,10.0,64.0
1057,46.0,24,60,14.0,64.0
1058,58.0,0,60,13.0,64.0
1059,58.0,0,60,13.0,64.0
1060,46.0,6,60,14.0,64.0
1061,65.0,0,60,11.0,64.0
1062,58.0,0,60,12.0,64.0
1063,86.0,6,20,10.0,64.0
1064,81.0,0,180,0.0,64.0
1065,46.0,0,60,13.0,64.0
1066,57.0,0,180,2.0,64.0
1067,60.0,0,180,2.0,64.0
1068,34.0,0,60,14.0,64.0
1069,51.0,24,180,3.0,64.0
1070,63.0,0,180,3.0,64.0
1071,66.0,48,60,11.0,64.0
1072,57.0,0,60,12.0,64.0
1073,87.0,12,90,10.0,64.0
1074,78.0,36,120,1.0,64.0
1075,75.0,0,120,1.0,64.0
1076,46.0,12,60,14.0,64.0
1077,60.0,0,90,12.0,64.0
1078,58.0,0,60,13.0,64.0
1079,66.0,12,90,11.0,64.0
1080,58.0,24,60,13.0,64.0
1081,72.0,12,90,1.0,64.0
1082,75.0,0,90,1.0,64.0
1083,46.0,0,60,14.0,64.0
1084,63.0,0,60,12.0,64.0
1085,66.0,45,60,11.0,64.0
1086,46.0,6,60,14.0,64.0
1087,58.0,0,60,13.0,64.0
1088,81.0,6,20,10.0,64.0
1089,58.0,0,3450,3.0,64.0
1090,46.0,0,3360,3.0,64.0
1091,70.0,0,90,1.0,64.0
1092,58.0,0,90,2.0,64.0
1093,65.0,0,60,11.0,64.0
1094,62.0,9,90,12.0,64.0
1095,82.0,51,60,10.0,64.0
1096,62.0,0,90,2.0,64.0
1097,74.0,0,90,1.0,64.0
1098,82.0,0,90,0.0,64.0
1099,46.0,0,90,13.0,64.0
1100,34.0,0,90,14.0,64.0
1101,82.0,60,60,10.0,64.0
1102,70.0,0,60,11.0,64.0
1103,70.0,60,60,11.0,64.0
1104,82.0,0,60,10.0,64.0
1105,70.0,0,60,11.0,64.0
1106,82.0,60,60,10.0,64.0
1107,82.0,60,60,10.0,64.0
1108,70.0,0,60,11.0,64.0
1109,82.0,60,60,10.0,64.0
1110,70.0,0,60,11.0,64.0
1111,82.0,0,60,10.0,64.0
1112,70.0,60,60,11.0,64.0
1113,82.0,60,60,10.0,64.0
1114,70.0,0,60,11.0,64.0
1115,74.0,0,240,1.0,64.0
1116,70.0,45,240,1.0,64.0
1117,82.0,60,60,10.0,64.0
1118,70.0,0,60,11.0,64.0
1119,46.0,0,240,2.0,64.0
1120,50.0,0,240,2.0,64.0
1121,70.0,0,60,11.0,64.0
1122,82.0,60,60,10.0,64.0
1123,70.0,60,60,11.0,64.0
1124,82.0,0,60,10.0,64.0
1125,82.0,15,60,10.0,64.0
1126,70.0,0,60,11.0,64.0
1127,82.0,45,60,10.0,64.0
1128,48.0,0,90,2.0,64.0
1129,75.0,0,90,1.0,64.0
1130,72.0,15,90,1.0,64.0
1131,70.0,0,60,11.0,64.0
1132,51.0,0,90,2.0,64.0
1133,82.0,0,60,10.0,64.0
1134,70.0,15,60,11.0,64.0
1135,77.0,0,30,1.0,64.0
1136,74.0,0,30,1.0,64.0
1137,50.0,0,30,2.0,64.0
1138,53.0,45,30,2.0,64.0
1139,79.0,0,90,1.0,64.0
1140,55.0,0,90,2.0,64.0
1141,82.0,0,60,10.0,64.0
1142,70.0,45,60,11.0,64.0
1143,82.0,0,60,10.0,64.0
1144,70.0,15,60,11.0,64.0
1145,75.0,15,15,1.0,64.0
1146,51.0,0,15,2.0,64.0
1147,48.0,0,30,2.0,64.0
1148,72.0,0,30,1.0,64.0
1149,70.0,0,90,1.0,64.0
1150,74.0,9,90,1.0,64.0
1151,46.0,6,90,13.0,64.0
1152,70.0,45,60,11.0,64.0
1153,82.0,0,60,10.0,64.0
1154,58.0,0,90,12.0,64.0
1155,50.0,0,90,2.0,64.0
1156,46.0,0,90,2.0,64.0
1157,34.0,0,90,14.0,64.0
1158,70.0,0,60,11.0,64.0
1159,82.0,15,60,10.0,64.0
1160,33.0,45,30,14.0,64.0
1161,57.0,0,30,12.0,64.0
1162,45.0,0,30,13.0,64.0
1163,70.0,45,60,11.0,64.0
1164,82.0,0,60,10.0,64.0
1165,62.0,0,90,12.0,64.0
1166,50.0,15,90,13.0,64.0
1167,38.0,0,90,14.0,64.0
1168,70.0,15,60,11.0,64.0
1169,82.0,0,60,10.0,64.0
1170,36.0,45,30,14.0,64.0
1171,60.0,0,30,12.0,64.0
1172,48.0,0,30,13.0,64.0
1173,39.0,15,90,14.0,64.0
1174,82.0,0,60,10.0,64.0
1175,70.0,45,60,11.0,64.0
1176,51.0,0,90,13.0,64.0
1177,63.0,0,90,12.0,64.0
1178,70.0,0,60,11.0,64.0
1179,82.0,15,60,10.0,64.0
1180,62.0,0,30,12.0,64.0
1181,38.0,45,30,14.0,64.0
1182,50.0,0,30,13.0,64.0
1183,41.0,0,90,14.0,64.0
1184,70.0,51,60,11.0,64.0
1185,53.0,9,90,13.0,64.0
1186,65.0,0,90,12.0,64.0
1187,82.0,0,60,10.0,64.0
1188,70.0,0,60,11.0,64.0
1189,82.0,60,60,10.0,64.0
1190,48.0,0,240,2.0,64.0
1191,70.0,0,60,11.0,64.0
1192,51.0,0,240,2.0,64.0
1193,72.0,45,240,1.0,64.0
1194,75.0,0,240,1.0,64.0
1195,82.0,60,60,10.0,64.0
1196,82.0,60,60,10.0,64.0
1197,70.0,0,60,11.0,64.0
1198,82.0,60,60,10.0,64.0
1199,70.0,0,60,11.0,64.0
1200,82.0,0,60,10.0,64.0
1201,70.0,15,60,11.0,64.0
1202,53.0,0,90,2.0,64.0
1203,50.0,15,90,2.0,64.0
1204,74.0,0,90,1.0,64.0
1205,82.0,0,60,10.0,64.0
1206,70.0,45,60,11.0,64.0
1207,77.0,0,90,1.0,64.0
1208,70.0,0,60,11.0,64.0
1209,82.0,15,60,10.0,64.0
1210,79.0,0,30,1.0,64.0
1211,51.0,0,30,2.0,64.0
1212,55.0,0,30,2.0,64.0
1213,75.0,45,30,1.0,64.0
1214,80.0,0,90,1.0,64.0
1215,70.0,45,60,11.0,64.0
1216,53.0,0,90,2.0,64.0
1217,82.0,0,60,10.0,64.0
1218,77.0,0,90,1.0,64.0
1219,56.0,15,90,2.0,64.0
1220,70.0,0,60,11.0,64.0
1221,82.0,15,60,10.0,64.0
1222,50.0,0,30,2.0,64.0
1223,53.0,0,30,2.0,64.0
1224,77.0,45,30,1.0,64.0
1225,74.0,0,30,1.0,64.0
1226,48.0,0,90,2.0,64.0
1227,58.0,0,90,12.0,64.0
1228,46.0,0,90,13.0,64.0
1229,51.0,9,90,2.0,64.0
1230,72.0,0,90,1.0,64.0
1231,75.0,0,90,1.0,64.0
1232,82.0,0,60,10.0,64.0
1233,70.0,45,60,11.0,64.0
1234,34.0,6,90,14.0,64.0
1235,82.0,0,60,10.0,64.0
1236,70.0,15,60,11.0,64.0
1237,45.0,0,30,13.0,64.0
1238,57.0,0,30,12.0,64.0
1239,33.0,45,30,14.0,64.0
1240,51.0,0,90,13.0,64.0
1241,82.0,0,60,10.0,64.0
1242,39.0,0,90,14.0,64.0
1243,63.0,15,90,12.0,64.0
1244,70.0,45,60,11.0,64.0
1245,82.0,15,60,10.0,64.0
1246,70.0,0,60,11.0,64.0
1247,38.0,0,30,14.0,64.0
1248,50.0,45,30,13.0,64.0
1249,62.0,0,30,12.0,64.0
1250,53.0,0,90,13.0,64.0
1251,70.0,0,60,11.0,64.0
1252,65.0,0,90,12.0,64.0
1253,82.0,45,60,10.0,64.0
1254,41.0,15,90,14.0,64.0
1255,70.0,0,60,11.0,64.0
1256,82.0,15,60,10.0,64.0
1257,39.0,45,30,14.0,64.0
1258,63.0,0,30,12.0,64.0
1259,51.0,0,30,13.0,64.0
1260,55.0,0,90,13.0,64.0
1261,67.0,0,90,12.0,64.0
1262,82.0,51,60,10.0,64.0
1263,43.0,9,90,14.0,64.0
1264,70.0,0,60,11.0,64.0
1265,82.0,60,60,10.0,64.0
1266,70.0,0,60,11.0,64.0
1267,70.0,60,60,11.0,64.0
1268,53.0,0,240,2.0,64.0
1269,50.0,0,240,2.0,64.0
1270,74.0,45,240,1.0,64.0
1271,82.0,0,60,10.0,64.0
1272,77.0,0,240,1.0,64.0
1273,82.0,0,60,10.0,64.0
1274,70.0,60,60,11.0,64.0
1275,82.0,60,60,10.0,64.0
1276,70.0,0,60,11.0,64.0
1277,82.0,0,60,10.0,64.0
1278,70.0,15,60,11.0,64.0
1279,55.0,0,90,2.0,64.0
1280,70.0,0,60,11.0,64.0
1281,75.0,0,90,1.0,64.0
1282,79.0,15,90,1.0,64.0
1283,51.0,0,90,2.0,64.0
1284,82.0,45,60,10.0,64.0
1285,70.0,0,60,11.0,64.0
1286,82.0,15,60,10.0,64.0
1287,77.0,0,30,1.0,64.0
1288,80.0,0,30,1.0,64.0
1289,56.0,45,30,2.0,64.0
1290,53.0,0,30,2.0,64.0
1291,82.0,0,90,1.0,64.0
1292,79.0,0,90,1.0,64.0
1293,70.0,0,60,11.0,64.0
1294,82.0,45,60,10.0,64.0
1295,58.0,15,90,2.0,64.0
1296,70.0,15,60,11.0,64.0
1297,82.0,0,60,10.0,64.0
1298,75.0,90,30,1.0,64.0
1299,79.0,0,30,1.0,64.0
1300,55.0,0,15,2.0,64.0
1301,51.0,0,30,2.0,64.0
1302,53.0,0,90,2.0,64.0
1303,58.0,6,90,12.0,64.0
1304,74.0,0,90,1.0,64.0
1305,77.0,24,90,1.0,64.0
1306,70.0,42,300,11.0,64.0
1307,46.0,0,90,13.0,64.0
1308,34.0,0,90,14.0,64.0
1309,82.0,0,360,10.0,64.0
1310,50.0,0,90,2.0,64.0
1311,57.0,0,30,12.0,64.0
1312,33.0,90,30,14.0,64.0
1313,45.0,0,30,13.0,64.0
1314,65.0,0,90,12.0,64.0
1315,53.0,30,90,13.0,64.0
1316,41.0,0,90,14.0,64.0
1317,39.0,0,30,14.0,64.0
1318,63.0,0,30,12.0,64.0
1319,51.0,48,30,13.0,64.0
1320,43.0,30,90,14.0,64.0
1321,55.0,0,90,13.0,64.0
1322,67.0,0,90,12.0,64.0
1323,53.0,0,30,13.0,64.0
1324,65.0,114,30,12.0,64.0
1325,41.0,0,30,14.0,64.0
1326,74.0,6,120,10.0,64.0
1327,56.0,0,120,13.0,64.0
1328,44.0,0,120,14.0,64.0
1329,68.0,0,120,12.0,64.0
1330,65.0,90,120,11.0,64.0
1331,70.0,24,210,11.0,64.0
1332,75.0,6,90,10.0,64.0
1333,67.0,0,90,12.0,64.0
1334,67.0,0,90,11.0,64.0
1335,43.0,0,90,14.0,64.0
1336,55.0,0,90,13.0,64.0
1337,51.0,0,90,3.0,64.0
1338,74.0,90,30,10.0,64.0
1339,77.0,30,90,10.0,64.0
1340,75.0,90,30,10.0,64.0
1341,80.0,30,90,10.0,64.0
1342,79.0,68,30,10.0,64.0
1343,82.0,46,60,10.0,64.0
1344,82.0,42,20,10.0,64.0
1345,70.0,0,20,11.0,64.0
1346,82.0,0,30,0.0,64.0
1347,64.0,0,90,12.0,64.0
1348,79.0,0,30,1.0,64.0
1349,70.0,0,30,1.0,64.0
1350,52.0,6,90,13.0,64.0
1351,40.0,0,90,14.0,64.0
1352,70.0,6,60,11.0,64.0
1353,82.0,24,60,10.0,64.0
1354,67.0,24,30,2.0,64.0
1355,60.0,0,30,2.0,64.0
1356,79.0,0,30,1.0,64.0
1357,70.0,0,30,1.0,64.0
1358,82.0,0,30,0.0,64.0
1359,60.0,24,30,2.0,64.0
1360,67.0,0,30,2.0,64.0
1361,38.0,0,30,14.0,64.0
1362,62.0,0,30,12.0,64.0
1363,50.0,36,30,13.0,64.0
1364,60.0,0,30,2.0,64.0
1365,72.0,0,60,10.0,64.0
1366,67.0,0,30,2.0,64.0
1367,53.0,6,90,13.0,64.0
1368,65.0,0,90,12.0,64.0
1369,82.0,0,30,0.0,64.0
1370,70.0,24,30,1.0,64.0
1371,60.0,30,60,11.0,64.0
1372,41.0,0,90,14.0,64.0
1373,79.0,0,30,1.0,64.0
1374,82.0,0,30,0.0,64.0
1375,79.0,0,30,1.0,64.0
1376,67.0,0,30,2.0,64.0
1377,70.0,0,30,1.0,64.0
1378,60.0,24,30,2.0,64.0
1379,40.0,36,30,14.0,64.0
1380,52.0,0,30,13.0,64.0
1381,64.0,0,30,12.0,64.0
1382,55.0,0,90,13.0,64.0
1383,80.0,0,30,0.0,64.0
1384,67.0,0,90,12.0,64.0
1385,60.0,0,30,2.0,64.0
1386,77.0,0,30,1.0,64.0
1387,68.0,0,30,1.0,64.0
1388,43.0,0,90,14.0,64.0
1389,65.0,39,30,2.0,64.0
1390,77.0,9,30,1.0,64.0
1391,68.0,0,30,1.0,64.0
1392,60.0,0,30,2.0,64.0
1393,65.0,0,30,2.0,64.0
1394,62.0,0,15,11.0,64.0
1395,74.0,15,15,10.0,64.0
1396,80.0,0,30,0.0,64.0
1397,60.0,6,15,11.0,64.0
1398,72.0,0,15,10.0,64.0
1399,65.0,36,30,12.0,64.0
1400,41.0,0,30,14.0,64.0
1401,71.0,9,15,10.0,64.0
1402,53.0,0,30,13.0,64.0
1403,59.0,0,15,11.0,64.0
1404,60.0,0,15,11.0,64.0
1405,72.0,6,15,10.0,64.0
1406,77.0,60,30,1.0,64.0
1407,68.0,0,30,1.0,64.0
1408,44.0,0,90,14.0,64.0
1409,56.0,0,90,13.0,64.0
1410,77.0,0,30,10.0,64.0
1411,80.0,0,30,0.0,64.0
1412,65.0,0,30,2.0,64.0
1413,60.0,0,30,2.0,64.0
1414,65.0,0,30,11.0,64.0
1415,68.0,0,90,12.0,64.0
1416,68.0,60,30,1.0,64.0
1417,77.0,0,30,1.0,64.0
1418,65.0,0,30,2.0,64.0
1419,80.0,0,30,10.0,64.0
1420,68.0,0,30,11.0,64.0
1421,60.0,0,30,2.0,64.0
1422,80.0,0,30,0.0,64.0
1423,77.0,0,30,1.0,64.0
1424,68.0,24,30,1.0,64.0
1425,58.0,0,30,2.0,64.0
1426,65.0,0,30,2.0,64.0
1427,80.0,30,60,10.0,64.0
1428,50.0,0,90,13.0,64.0
1429,38.0,0,90,14.0,64.0
1430,80.0,0,30,0.0,64.0
1431,68.0,0,60,11.0,64.0
1432,70.0,0,390,3.0,64.0
1433,58.0,12,390,3.0,64.0
1434,62.0,6,90,12.0,64.0
1435,58.0,24,30,2.0,64.0
1436,77.0,0,30,1.0,64.0
1437,68.0,0,30,1.0,64.0
1438,65.0,0,30,2.0,64.0
1439,80.0,0,30,0.0,64.0
1440,60.0,0,30,12.0,64.0
1441,48.0,0,30,13.0,64.0
1442,36.0,36,30,14.0,64.0
1443,39.0,0,90,14.0,64.0
1444,51.0,6,90,13.0,64.0
1445,70.0,30,60,10.0,64.0
1446,63.0,0,90,12.0,64.0
1447,80.0,0,30,0.0,64.0
1448,58.0,24,30,2.0,64.0
1449,58.0,0,60,11.0,64.0
1450,77.0,0,30,1.0,64.0
1451,65.0,0,30,2.0,64.0
1452,68.0,0,30,1.0,64.0
1453,68.0,24,30,1.0,64.0
1454,77.0,0,30,1.0,64.0
1455,58.0,0,30,2.0,64.0
1456,80.0,0,30,0.0,64.0
1457,65.0,0,30,2.0,64.0
1458,62.0,0,30,12.0,64.0
1459,50.0,36,30,13.0,64.0
1460,38.0,0,30,14.0,64.0
1461,41.0,6,90,14.0,64.0
1462,75.0,0,30,1.0,64.0
1463,67.0,0,30,1.0,64.0
1464,58.0,0,30,2.0,64.0
1465,63.0,0,30,2.0,64.0
1466,65.0,0,90,12.0,64.0
1467,79.0,39,30,0.0,64.0
1468,53.0,0,90,13.0,64.0
1469,79.0,9,30,0.0,64.0
1470,60.0,15,15,11.0,64.0
1471,58.0,0,30,2.0,64.0
1472,72.0,0,15,10.0,64.0
1473,75.0,0,30,1.0,64.0
1474,67.0,0,30,1.0,64.0
1475,63.0,0,30,2.0,64.0
1476,70.0,0,15,10.0,64.0
1477,58.0,0,15,11.0,64.0
1478,69.0,9,15,10.0,64.0
1479,51.0,0,30,13.0,64.0
1480,39.0,24,30,14.0,64.0
1481,63.0,0,30,12.0,64.0
1482,57.0,0,15,11.0,64.0
1483,58.0,6,15,11.0,64.0
1484,70.0,0,15,10.0,64.0
1485,63.0,0,30,2.0,64.0
1486,67.0,0,30,1.0,64.0
1487,75.0,0,30,1.0,64.0
1488,67.0,0,90,12.0,64.0
1489,75.0,0,30,10.0,64.0
1490,55.0,0,90,13.0,64.0
1491,63.0,60,30,11.0,64.0
1492,43.0,0,90,14.0,64.0
1493,58.0,0,30,2.0,64.0
1494,79.0,0,30,0.0,64.0
1495,67.0,0,30,1.0,64.0
1496,79.0,0,30,10.0,64.0
1497,79.0,60,30,0.0,64.0
1498,75.0,0,30,1.0,64.0
1499,67.0,0,30,11.0,64.0
1500,58.0,0,30,2.0,64.0
1501,63.0,0,30,2.0,64.0
1502,67.0,0,60,11.0,64.0
1503,79.0,30,60,10.0,64.0
1504,60.0,0,90,12.0,64.0
1505,79.0,24,30,0.0,64.0
1506,75.0,0,30,1.0,64.0
1507,56.0,0,30,2.0,64.0
1508,36.0,0,90,14.0,64.0
1509,67.0,0,30,1.0,64.0
1510,63.0,0,30,2.0,64.0
1511,48.0,6,90,13.0,64.0
1512,75.0,24,30,1.0,64.0
1513,67.0,0,30,1.0,64.0
1514,79.0,0,30,0.0,64.0
1515,63.0,0,30,2.0,64.0
1516,56.0,0,30,2.0,64.0
1517,35.0,36,30,14.0,64.0
1518,47.0,0,30,13.0,64.0
1519,59.0,0,30,12.0,64.0
1520,79.0,0,30,0.0,64.0
1521,63.0,24,30,2.0,64.0
1522,50.0,6,90,13.0,64.0
1523,56.0,0,60,11.0,64.0
1524,68.0,30,60,10.0,64.0
1525,56.0,0,30,2.0,64.0
1526,62.0,0,90,12.0,64.0
1527,75.0,0,30,1.0,64.0
1528,38.0,0,90,14.0,64.0
1529,67.0,0,30,1.0,64.0
1530,67.0,0,30,1.0,64.0
1531,75.0,0,30,1.0,64.0
1532,63.0,0,30,2.0,64.0
1533,56.0,0,30,2.0,64.0
1534,79.0,24,30,0.0,64.0
1535,48.0,36,30,13.0,64.0
1536,36.0,0,30,14.0,64.0
1537,60.0,0,30,12.0,64.0
1538,63.0,6,90,12.0,64.0
1539,51.0,0,90,13.0,64.0
1540,56.0,39,30,2.0,64.0
1541,77.0,0,30,0.0,64.0
1542,62.0,0,30,2.0,64.0
1543,65.0,0,30,1.0,64.0
1544,39.0,0,90,14.0,64.0
1545,74.0,0,30,1.0,64.0
1546,58.0,0,15,11.0,64.0
1547,62.0,0,30,2.0,64.0
1548,77.0,0,30,0.0,64.0
1549,74.0,9,30,1.0,64.0
1550,65.0,0,30,1.0,64.0
1551,56.0,0,30,2.0,64.0
1552,70.0,15,15,10.0,64.0
1553,56.0,0,15,11.0,64.0
1554,68.0,0,15,10.0,64.0
1555,38.0,0,30,14.0,64.0
1556,55.0,9,15,11.0,64.0
1557,67.0,0,15,10.0,64.0
1558,50.0,0,30,13.0,64.0
1559,62.0,36,30,12.0,64.0
1560,68.0,0,15,10.0,64.0
1561,56.0,6,15,11.0,64.0
1562,74.0,60,30,1.0,64.0
1563,65.0,0,30,1.0,64.0
1564,56.0,0,30,2.0,64.0
1565,53.0,60,90,13.0,64.0
1566,62.0,0,30,2.0,64.0
1567,74.0,0,30,10.0,64.0
1568,77.0,0,30,0.0,64.0
1569,65.0,0,90,12.0,64.0
1570,41.0,0,90,14.0,64.0
1571,62.0,0,30,11.0,64.0
1572,62.0,0,30,2.0,64.0
1573,56.0,0,30,2.0,64.0
1574,65.0,0,30,1.0,64.0
1575,74.0,0,30,1.0,64.0
1576,77.0,0,30,10.0,64.0
1577,77.0,0,30,0.0,64.0
1578,65.0,0,30,11.0,64.0
1579,59.0,0,90,12.0,64.0
1580,65.0,30,60,11.0,64.0
1581,35.0,0,90,14.0,64.0
1582,62.0,0,30,2.0,64.0
1583,55.0,0,30,2.0,64.0
1584,47.0,6,90,13.0,64.0
1585,65.0,24,30,1.0,64.0
1586,67.0,12,390,3.0,64.0
1587,55.0,0,390,3.0,64.0
1588,77.0,0,30,0.0,64.0
1589,74.0,0,30,1.0,64.0
1590,77.0,0,60,10.0,64.0
1591,74.0,24,30,1.0,64.0
1592,65.0,0,30,1.0,64.0
1593,62.0,0,30,2.0,64.0
1594,55.0,0,30,2.0,64.0
1595,77.0,0,30,0.0,64.0
1596,33.0,0,30,14.0,64.0
1597,45.0,36,30,13.0,64.0
1598,57.0,0,30,12.0,64.0
1599,67.0,0,60,10.0,64.0
1600,60.0,0,90,12.0,64.0
1601,36.0,0,90,14.0,64.0
1602,62.0,0,30,2.0,64.0
1603,77.0,0,30,0.0,64.0
1604,55.0,30,60,11.0,64.0
1605,48.0,6,90,13.0,64.0
1606,65.0,0,30,1.0,64.0
1607,74.0,24,30,1.0,64.0
1608,55.0,0,30,2.0,64.0
1609,77.0,24,30,0.0,64.0
1610,74.0,0,30,1.0,64.0
1611,65.0,0,30,1.0,64.0
1612,62.0,0,30,2.0,64.0
1613,55.0,0,30,2.0,64.0
1614,59.0,36,30,12.0,64.0
1615,47.0,0,30,13.0,64.0
1616,35.0,0,30,14.0,64.0
1617,55.0,0,30,2.0,64.0
1618,75.0,0,30,0.0,64.0
1619,38.0,6,90,14.0,64.0
1620,50.0,0,90,13.0,64.0
1621,72.0,39,30,1.0,64.0
1622,60.0,0,30,2.0,64.0
1623,63.0,0,30,1.0,64.0
1624,62.0,0,90,12.0,64.0
1625,68.0,0,15,10.0,64.0
1626,60.0,0,30,2.0,64.0
1627,55.0,0,30,2.0,64.0
1628,56.0,15,15,11.0,64.0
1629,72.0,9,30,1.0,64.0
1630,63.0,0,30,1.0,64.0
1631,75.0,0,30,0.0,64.0
1632,67.0,0,15,10.0,64.0
1633,55.0,0,15,11.0,64.0
1634,60.0,24,30,12.0,64.0
1635,54.0,0,15,11.0,64.0
1636,36.0,0,30,14.0,64.0
1637,48.0,0,30,13.0,64.0
1638,66.0,9,15,10.0,64.0
1639,55.0,0,15,11.0,64.0
1640,67.0,6,15,10.0,64.0
1641,51.0,0,90,13.0,64.0
1642,63.0,0,90,12.0,64.0
1643,60.0,60,30,2.0,64.0
1644,55.0,0,30,2.0,64.0
1645,39.0,0,90,14.0,64.0
1646,63.0,0,30,1.0,64.0
1647,75.0,0,30,0.0,64.0
1648,72.0,0,30,10.0,64.0
1649,72.0,0,30,1.0,64.0
1650,60.0,0,30,11.0,64.0
1651,63.0,0,30,1.0,64.0
1652,72.0,0,30,1.0,64.0
1653,75.0,0,30,10.0,64.0
1654,55.0,0,30,2.0,64.0
1655,75.0,0,30,0.0,64.0
1656,60.0,0,30,2.0,64.0
1657,63.0,114,30,11.0,64.0
1658,65.0,6,90,10.0,64.0
1659,56.0,0,90,12.0,64.0
1660,44.0,24,90,13.0,64.0
1661,32.0,0,90,14.0,64.0
1662,60.0,0,90,11.0,64.0
1663,64.0,90,30,10.0,64.0
1664,67.0,30,90,10.0,64.0
1665,65.0,90,30,10.0,64.0
1666,68.0,30,90,10.0,64.0
1667,67.0,210,30,10.0,64.0
1668,71.0,6,210,10.0,64.0
1669,60.0,24,90,12.0,64.0
1670,56.0,0,90,13.0,64.0
1671,65.0,0,90,11.0,64.0
1672,44.0,0,90,14.0,64.0
1673,74.0,90,30,10.0,64.0
1674,72.0,30,90,10.0,64.0
1675,76.0,90,30,10.0,64.0
1676,79.0,30,90,10.0,64.0
1677,77.0,210,30,10.0,64.0
1678,83.0,6,210,10.0,64.0
1679,45.0,0,90,14.0,64.0
1680,66.0,24,90,11.0,64.0
1681,57.0,0,90,13.0,64.0
1682,63.0,0,90,12.0,64.0
1683,86.0,90,30,10.0,64.0
1684,84.0,30,90,10.0,64.0
1685,75.0,90,30,10.0,64.0
1686,78.0,30,90,10.0,64.0
1687,72.0,90,30,10.0,64.0
1688,75.0,30,90,10.0,64.0
1689,69.0,96,30,10.0,64.0
1690,70.0,0,90,11.0,64.0
1691,46.0,0,90,14.0,64.0
1692,58.0,0,90,13.0,64.0
1693,46.0,84,450,3.0,64.0
1694,58.0,0,90,12.0,64.0
1695,58.0,0,450,3.0,64.0
1696,70.0,114,90,10.0,64.0
1697,56.0,120,90,2.0,64.0
1698,62.0,0,90,10.0,64.0
1699,56.0,6,90,2.0,64.0
1700,46.0,0,90,13.0,64.0
1701,34.0,0,90,14.0,64.0
1702,53.0,114,90,12.0,64.0
1703,58.0,0,90,11.0,64.0
1704,56.0,6,90,2.0,64.0
1705,63.0,30,60,10.0,64.0
1706,51.0,0,1830,13.0,64.0
1707,56.0,0,60,2.0,64.0
1708,39.0,36,1830,14.0,64.0
1709,51.0,60,480,12.0,64.0
1710,75.0,30,90,1.0,64.0
1711,51.0,12,1890,3.0,64.0
1712,58.0,0,1830,11.0,64.0
1713,58.0,60,60,10.0,64.0
1714,55.0,0,60,2.0,64.0
1715,56.0,0,60,2.0,64.0
1716,75.0,30,90,1.0,64.0
1717,63.0,30,60,10.0,64.0
1718,58.0,60,60,2.0,64.0
1719,58.0,0,60,10.0,64.0
1720,63.0,0,60,10.0,64.0
1721,75.0,30,90,1.0,64.0
1722,56.0,30,60,2.0,64.0
1723,58.0,0,60,10.0,64.0
1724,55.0,60,60,2.0,64.0
1725,53.0,30,60,2.0,64.0
1726,63.0,0,60,10.0,64.0
1727,75.0,18,90,1.0,64.0
1728,51.0,0,60,2.0,64.0
1729,58.0,12,60,10.0,64.0
1730,53.0,60,480,12.0,64.0
1731,68.0,0,90,1.0,64.0
1732,75.0,0,60,1.0,64.0
1733,56.0,6,90,2.0,64.0
1734,62.0,30,60,10.0,64.0
1735,58.0,0,60,10.0,64.0
1736,74.0,60,60,1.0,64.0
1737,56.0,0,90,2.0,64.0
1738,68.0,30,90,1.0,64.0
1739,62.0,0,60,10.0,64.0
1740,75.0,30,60,1.0,64.0
1741,77.0,0,60,1.0,64.0
1742,58.0,60,60,10.0,64.0
1743,68.0,30,90,1.0,64.0
1744,62.0,0,60,10.0,64.0
1745,75.0,30,60,1.0,64.0
1746,56.0,0,90,2.0,64.0
1747,58.0,0,60,10.0,64.0
1748,74.0,60,60,1.0,64.0
1749,62.0,30,60,10.0,64.0
1750,68.0,18,90,1.0,64.0
1751,72.0,0,60,1.0,64.0
1752,56.0,0,90,2.0,64.0
1753,70.0,12,60,1.0,64.0
1754,58.0,0,60,10.0,64.0
1755,56.0,0,60,2.0,64.0
1756,51.0,60,480,12.0,64.0
1757,63.0,0,90,2.0,64.0
1758,63.0,0,60,10.0,64.0
1759,68.0,30,60,1.0,64.0
1760,75.0,30,90,1.0,64.0
1761,58.0,60,60,10.0,64.0
1762,67.0,0,60,1.0,64.0
1763,55.0,0,60,2.0,64.0
1764,63.0,30,90,2.0,64.0
1765,56.0,0,60,2.0,64.0
1766,68.0,0,60,1.0,64.0
1767,75.0,0,90,1.0,64.0
1768,63.0,30,60,10.0,64.0
1769,58.0,0,60,2.0,64.0
1770,70.0,0,60,1.0,64.0
1771,58.0,60,60,10.0,64.0
1772,63.0,30,90,2.0,64.0
1773,68.0,0,60,1.0,64.0
1774,75.0,0,90,1.0,64.0
1775,56.0,0,60,2.0,64.0
1776,63.0,30,60,10.0,64.0
1777,58.0,0,60,10.0,64.0
1778,67.0,0,60,1.0,64.0
1779,55.0,60,60,2.0,64.0
1780,75.0,18,90,1.0,64.0
1781,63.0,30,60,10.0,64.0
1782,65.0,0,60,1.0,64.0
1783,53.0,0,60,2.0,64.0
1784,63.0,0,90,2.0,64.0
1785,63.0,12,60,1.0,64.0
1786,58.0,0,60,10.0,64.0
1787,51.0,0,60,2.0,64.0
1788,68.0,30,90,1.0,64.0
1789,75.0,0,60,1.0,64.0
1790,53.0,48,480,12.0,64.0
1791,62.0,30,60,10.0,64.0
1792,63.0,0,60,2.0,64.0
1793,80.0,0,90,0.0,64.0
1794,56.0,0,90,2.0,64.0
1795,74.0,60,60,1.0,64.0
1796,62.0,0,60,2.0,64.0
1797,58.0,0,60,10.0,64.0
1798,80.0,30,90,0.0,64.0
1799,63.0,0,60,2.0,64.0
1800,56.0,0,90,2.0,64.0
1801,62.0,0,60,10.0,64.0
1802,68.0,0,90,1.0,64.0
1803,75.0,30,60,1.0,64.0
1804,77.0,0,60,1.0,64.0
1805,65.0,0,60,2.0,64.0
1806,58.0,60,60,10.0,64.0
1807,75.0,30,60,1.0,64.0
1808,68.0,30,90,1.0,64.0
1809,56.0,0,90,2.0,64.0
1810,62.0,0,60,10.0,64.0
1811,80.0,0,90,0.0,64.0
1812,63.0,0,60,2.0,64.0
1813,62.0,0,60,2.0,64.0
1814,58.0,24,60,10.0,64.0
1815,74.0,0,60,1.0,64.0
1816,72.0,30,60,1.0,64.0
1817,80.0,0,90,0.0,64.0
1818,56.0,6,90,2.0,64.0
1819,68.0,0,90,1.0,64.0
1820,62.0,0,60,10.0,64.0
1821,60.0,0,60,2.0,64.0
1822,70.0,0,60,1.0,64.0
1823,58.0,0,60,10.0,64.0
1824,58.0,12,60,2.0,64.0
1825,70.0,0,180,11.0,64.0
1826,67.0,12,180,12.0,64.0
1827,58.0,24,150,12.0,64.0
1828,79.0,0,180,10.0,64.0
1829,39.0,60,60,13.0,64.0
1830,51.0,0,180,3.0,64.0
1831,39.0,0,60,14.0,64.0
1832,63.0,36,180,3.0,64.0
1833,51.0,0,60,13.0,64.0
1834,39.0,36,60,14.0,64.0
1835,39.0,12,60,14.0,64.0
1836,51.0,0,60,13.0,64.0
1837,55.0,0,60,12.0,64.0
1838,51.0,0,60,13.0,64.0
1839,39.0,0,60,14.0,64.0
1840,67.0,0,60,11.0,64.0
1841,63.0,60,60,12.0,64.0
1842,75.0,0,60,10.0,64.0
1843,68.0,0,180,12.0,64.0
1844,60.0,24,150,12.0,64.0
1845,44.0,60,60,13.0,64.0
1846,63.0,36,180,3.0,64.0
1847,51.0,0,180,3.0,64.0
1848,80.0,0,180,10.0,64.0
1849,72.0,12,180,11.0,64.0
1850,32.0,0,60,14.0,64.0
1851,44.0,0,60,14.0,64.0
1852,56.0,36,60,13.0,64.0
1853,56.0,12,60,13.0,64.0
1854,44.0,0,60,14.0,64.0
1855,65.0,0,60,12.0,64.0
1856,77.0,0,60,10.0,64.0
1857,44.0,60,60,14.0,64.0
1858,56.0,0,60,12.0,64.0
1859,56.0,0,60,13.0,64.0
1860,68.0,0,60,11.0,64.0
1861,77.0,30,60,10.0,64.0
1862,34.0,0,60,14.0,64.0
1863,65.0,0,60,12.0,64.0
1864,46.0,12,60,13.0,64.0
1865,68.0,0,60,11.0,64.0
1866,46.0,18,90,3.0,64.0
1867,58.0,0,90,3.0,64.0
1868,56.0,0,60,12.0,64.0
1869,46.0,0,60,14.0,64.0
1870,58.0,0,60,13.0,64.0
1871,75.0,0,60,10.0,64.0
1872,55.0,0,60,12.0,64.0
1873,63.0,60,60,12.0,64.0
1874,67.0,0,60,11.0,64.0
1875,75.0,0,150,10.0,64.0
1876,58.0,42,60,13.0,64.0
1877,46.0,0,90,3.0,64.0
1878,67.0,0,150,11.0,64.0
1879,55.0,24,150,12.0,64.0
1880,58.0,18,90,3.0,64.0
1881,46.0,0,60,14.0,64.0
1882,63.0,0,150,12.0,64.0
1883,46.0,0,60,14.0,64.0
1884,58.0,36,60,13.0,64.0
1885,46.0,0,90,3.0,64.0
1886,58.0,0,90,3.0,64.0
1887,46.0,0,60,14.0,64.0
1888,58.0,42,60,13.0,64.0
1889,65.0,0,30,11.0,64.0
1890,62.0,0,30,12.0,64.0
1891,58.0,0,60,13.0,64.0
1892,74.0,0,30,10.0,64.0
1893,53.0,18,30,12.0,64.0
1894,46.0,6,60,14.0,64.0
1895,75.0,42,20,10.0,64.0
1896,63.0,0,20,12.0,64.0
1897,67.0,0,20,11.0,64.0
1898,55.0,0,20,12.0,64.0
1899,46.0,0,90,3.0,64.0
1900,65.0,0,30,12.0,64.0
1901,56.0,0,30,12.0,64.0
1902,77.0,0,30,10.0,64.0
1903,58.0,6,90,3.0,64.0
1904,68.0,12,30,11.0,64.0
1905,34.0,0,60,14.0,64.0
1906,46.0,42,60,13.0,64.0
1907,53.0,12,30,12.0,64.0
1908,46.0,102,60,13.0,64.0
1909,34.0,0,60,14.0,64.0
1910,65.0,0,30,11.0,64.0
1911,62.0,0,30,12.0,64.0
1912,74.0,0,30,10.0,64.0
1913,75.0,0,90,10.0,64.0
1914,51.0,24,2490,13.0,64.0
1915,39.0,0,2490,14.0,64.0
1916,55.0,114,90,12.0,64.0
1917,63.0,12,2370,3.0,64.0
1918,51.0,0,2370,3.0,64.0
1919,67.0,0,90,11.0,64.0
1920,63.0,6,90,2.0,64.0
1921,63.0,0,90,12.0,64.0
1922,63.0,120,90,2.0,64.0
1923,63.0,120,90,2.0,64.0
1924,63.0,90,90,2.0,64.0
1925,63.0,30,60,2.0,64.0
1926,68.0,30,90,1.0,64.0
1927,62.0,60,60,2.0,64.0
1928,63.0,30,60,2.0,64.0
1929,68.0,30,90,1.0,64.0
1930,65.0,60,60,2.0,64.0
1931,68.0,30,90,1.0,64.0
1932,63.0,30,60,2.0,64.0
1933,62.0,60,60,2.0,64.0
1934,60.0,30,60,2.0,64.0
1935,68.0,18,90,1.0,64.0
1936,58.0,72,60,2.0,64.0
1937,75.0,30,90,1.0,64.0
1938,58.0,30,180,2.0,64.0
1939,68.0,30,60,1.0,64.0
1940,67.0,60,60,1.0,64.0
1941,68.0,0,60,1.0,64.0
1942,75.0,30,90,1.0,64.0
1943,70.0,60,60,1.0,64.0
1944,60.0,0,30,2.0,64.0
1945,62.0,0,30,2.0,64.0
1946,68.0,30,60,1.0,64.0
1947,63.0,24,90,2.0,64.0
1948,75.0,6,90,1.0,64.0
1949,67.0,60,60,1.0,64.0
1950,65.0,30,60,1.0,64.0
1951,75.0,18,90,1.0,64.0
1952,63.0,72,60,1.0,64.0
1953,75.0,30,60,1.0,64.0
1954,80.0,30,90,0.0,64.0
1955,65.0,0,180,1.0,64.0
1956,74.0,60,60,1.0,64.0
1957,80.0,30,90,0.0,64.0
1958,75.0,30,60,1.0,64.0
1959,67.0,0,30,1.0,64.0
1960,77.0,60,60,1.0,64.0
1961,68.0,0,30,1.0,64.0
1962,70.0,24,90,1.0,64.0
1963,80.0,6,90,0.0,64.0
1964,75.0,30,60,1.0,64.0
1965,74.0,60,60,1.0,64.0
1966,72.0,30,60,1.0,64.0
1967,80.0,18,90,0.0,64.0
1968,70.0,72,60,1.0,64.0
1969,70.0,30,180,1.0,64.0
1970,80.0,30,60,0.0,64.0
1971,63.0,30,90,2.0,64.0
1972,79.0,60,60,0.0,64.0
1973,63.0,0,90,2.0,64.0
1974,80.0,0,60,0.0,64.0
1975,82.0,0,60,0.0,64.0
1976,72.0,30,30,1.0,64.0
1977,74.0,60,30,1.0,64.0
1978,75.0,24,90,1.0,64.0
1979,63.0,6,90,2.0,64.0
1980,80.0,30,60,0.0,64.0
1981,79.0,60,60,0.0,64.0
1982,77.0,30,60,0.0,64.0
1983,63.0,6,90,2.0,64.0
1984,75.0,72,60,0.0,64.0
1985,77.0,0,60,0.0,64.0
1986,60.0,0,90,11.0,64.0
1987,65.0,0,90,10.0,64.0
1988,63.0,12,60,2.0,64.0
1989,57.0,0,90,12.0,64.0
1990,69.0,24,60,1.0,64.0
1991,72.0,0,60,1.0,64.0
1992,62.0,60,60,2.0,64.0
1993,81.0,0,120,1.0,64.0
1994,84.0,60,120,0.0,64.0
1995,63.0,60,60,2.0,64.0
1996,65.0,0,60,2.0,64.0
1997,63.0,12,60,2.0,64.0
1998,70.0,0,90,12.0,64.0
1999,51.0,0,90,13.0,64.0
2000,39.0,0,90,14.0,64.0
2001,77.0,0,90,10.0,64.0
2002,82.0,0,60,1.0,64.0
2003,73.0,24,90,11.0,64.0
2004,85.0,24,60,0.0,64.0
2005,61.0,60,60,2.0,64.0
2006,60.0,12,60,2.0,64.0
2007,70.0,0,60,1.0,64.0
2008,77.0,36,60,0.0,64.0
2009,73.0,0,60,1.0,64.0
2010,58.0,72,60,2.0,64.0
2011,75.0,24,60,0.0,64.0
2012,67.0,0,60,1.0,64.0
2013,55.0,0,90,12.0,64.0
2014,58.0,0,90,11.0,64.0
2015,51.0,0,90,13.0,64.0
2016,61.0,12,60,2.0,64.0
2017,63.0,24,90,10.0,64.0
2018,39.0,0,90,14.0,64.0
2019,70.0,0,60,1.0,64.0
2020,60.0,60,60,2.0,64.0
2021,82.0,0,120,0.0,64.0
2022,79.0,0,120,1.0,64.0
2023,61.0,60,60,2.0,64.0
2024,63.0,60,60,2.0,64.0
2025,39.0,0,90,14.0,64.0
2026,68.0,0,90,12.0,64.0
2027,61.0,12,60,2.0,64.0
2028,75.0,0,90,10.0,64.0
2029,51.0,0,90,13.0,64.0
2030,80.0,0,60,1.0,64.0
2031,84.0,24,60,0.0,64.0
2032,72.0,24,90,11.0,64.0
2033,60.0,60,60,2.0,64.0
2034,75.0,36,60,0.0,64.0
2035,68.0,0,60,1.0,64.0
2036,72.0,0,60,1.0,64.0
2037,58.0,12,60,2.0,64.0
2038,56.0,72,60,2.0,64.0
2039,68.0,24,60,1.0,64.0
2040,65.0,0,60,1.0,64.0
2041,39.0,0,90,14.0,64.0
2042,56.0,0,90,11.0,64.0
2043,60.0,12,60,2.0,64.0
2044,53.0,24,90,12.0,64.0
2045,73.0,0,60,0.0,64.0
2046,61.0,0,90,10.0,64.0
2047,51.0,0,90,13.0,64.0
2048,58.0,60,60,2.0,64.0
2049,77.0,60,120,1.0,64.0
2050,80.0,0,120,0.0,64.0
2051,60.0,60,60,2.0,64.0
2052,61.0,0,60,2.0,64.0
2053,82.0,0,60,0.0,64.0
2054,51.0,24,90,13.0,64.0
2055,73.0,0,90,10.0,64.0
2056,60.0,12,60,2.0,64.0
2057,39.0,0,90,14.0,64.0
2058,79.0,24,60,1.0,64.0
2059,67.0,0,90,12.0,64.0
2060,70.0,0,90,11.0,64.0
2061,58.0,60,60,2.0,64.0
2062,56.0,12,60,2.0,64.0
2063,73.0,0,60,0.0,64.0
2064,70.0,0,60,1.0,64.0
2065,63.0,36,60,1.0,64.0
2066,55.0,108,60,2.0,64.0
2067,60.0,90,240,11.0,64.0
2068,44.0,0,240,13.0,64.0
2069,56.0,144,90,2.0,64.0
2070,63.0,0,90,1.0,64.0
2071,68.0,0,90,1.0,64.0
2072,72.0,0,90,0.0,64.0
2073,63.0,0,240,10.0,64.0
2074,56.0,0,570,12.0,64.0
2075,32.0,0,240,14.0,64.0
2076,65.0,30,90,10.0,64.0
2077,37.0,0,240,14.0,64.0
2078,49.0,0,240,13.0,64.0
2079,61.0,0,90,11.0,64.0
2080,67.0,90,30,10.0,64.0
2081,63.0,0,30,11.0,64.0
2082,65.0,0,90,11.0,64.0
2083,68.0,30,90,10.0,64.0
2084,61.0,96,30,11.0,64.0
2085,65.0,0,30,10.0,64.0
2086,44.0,0,90,13.0,64.0
2087,63.0,0,90,10.0,64.0
2088,60.0,234,90,11.0,64.0
2089,32.0,0,90,14.0,64.0
2090,68.0,30,90,10.0,64.0
2091,67.0,90,30,10.0,64.0
2092,70.0,30,90,10.0,64.0
2093,68.0,90,30,10.0,64.0
2094,72.0,30,90,10.0,64.0
2095,70.0,90,30,10.0,64.0
2096,73.0,30,90,10.0,64.0
2097,72.0,72,30,10.0,64.0
2098,75.0,114,90,10.0,64.0
2099,63.0,0,60,13.0,64.0
2100,67.0,0,60,12.0,64.0
2101,70.0,6,60,11.0,64.0
2102,72.0,0,60,11.0,64.0
2103,63.0,6,60,13.0,64.0
2104,75.0,234,90,10.0,64.0
2105,68.0,0,60,12.0,64.0
2106,63.0,0,180,13.0,64.0
2107,67.0,48,180,12.0,64.0
2108,75.0,96,240,10.0,64.0
2109,70.0,0,180,11.0,64.0
2110,63.0,342,90,10.0,64.0
2111,60.0,78,240,2.0,64.0
2112,32.0,0,240,14.0,64.0
2113,72.0,0,240,1.0,64.0
2114,63.0,0,240,1.0,64.0
2115,44.0,0,240,13.0,64.0
2116,75.0,0,240,0.0,64.0
2117,56.0,84,570,12.0,64.0
2118,80.0,42,90,10.0,64.0
2119,68.0,0,90,11.0,64.0
2120,80.0,12,90,10.0,64.0
2121,68.0,0,90,11.0,64.0
2122,77.0,0,90,0.0,64.0
2123,49.0,0,240,13.0,64.0
2124,73.0,0,90,1.0,64.0
2125,65.0,30,90,1.0,64.0
2126,37.0,96,240,14.0,64.0
2127,61.0,0,90,2.0,64.0
2128,63.0,78,30,2.0,64.0
2129,67.0,0,30,1.0,64.0
2130,79.0,0,30,0.0,64.0
2131,75.0,0,30,1.0,64.0
2132,68.0,12,90,11.0,64.0
2133,77.0,0,90,1.0,64.0
2134,80.0,0,90,10.0,64.0
2135,80.0,30,90,0.0,64.0
2136,68.0,0,90,1.0,64.0
2137,65.0,0,90,2.0,64.0
2138,65.0,0,30,1.0,64.0
2139,61.0,0,30,2.0,64.0
2140,77.0,0,30,0.0,64.0
2141,73.0,0,30,1.0,64.0
2142,63.0,0,90,1.0,64.0
2143,60.0,0,90,2.0,64.0
2144,75.0,0,90,0.0,64.0
2145,68.0,30,180,11.0,64.0
2146,44.0,0,90,13.0,64.0
2147,72.0,0,90,1.0,64.0
2148,80.0,0,180,10.0,64.0
2149,32.0,0,90,14.0,64.0
2150,67.0,0,30,11.0,64.0
2151,79.0,30,30,10.0,64.0
2152,65.0,72,30,11.0,64.0
2153,77.0,0,30,10.0,64.0
2154,75.0,0,60,10.0,64.0
2155,56.0,30,90,2.0,64.0
2156,68.0,0,90,1.0,64.0
2157,63.0,18,60,11.0,64.0
2158,67.0,72,30,1.0,64.0
2159,55.0,0,30,2.0,64.0
2160,75.0,0,60,10.0,64.0
2161,63.0,18,60,11.0,64.0
2162,58.0,30,90,2.0,64.0
2163,70.0,0,90,1.0,64.0
2164,56.0,90,30,2.0,64.0
2165,68.0,0,30,1.0,64.0
2166,72.0,0,90,1.0,64.0
2167,60.0,30,90,2.0,64.0
2168,63.0,15,180,11.0,64.0
2169,75.0,0,180,10.0,64.0
2170,70.0,60,30,1.0,64.0
2171,58.0,0,30,2.0,64.0
2172,74.0,0,90,1.0,64.0
2173,62.0,0,90,2.0,64.0
2174,74.0,15,15,10.0,64.0
2175,62.0,0,15,11.0,64.0
2176,72.0,15,15,10.0,64.0
2177,60.0,0,15,11.0,64.0
2178,60.0,0,30,2.0,64.0
2179,58.0,0,15,11.0,64.0
2180,70.0,15,15,10.0,64.0
2181,72.0,72,30,1.0,64.0
2182,56.0,0,15,11.0,64.0
2183,68.0,0,15,10.0,64.0
2184,55.0,0,60,11.0,64.0
2185,46.0,0,60,13.0,64.0
2186,67.0,0,60,10.0,64.0
2187,75.0,0,60,1.0,64.0
2188,63.0,6,60,2.0,64.0
2189,51.0,30,90,12.0,64.0
2190,58.0,12,90,3.0,64.0
2191,58.0,0,30,11.0,64.0
2192,70.0,0,30,10.0,64.0
2193,55.0,72,30,12.0,64.0
2194,56.0,0,90,11.0,64.0
2195,58.0,12,90,3.0,64.0
2196,70.0,0,60,1.0,64.0
2197,58.0,0,60,2.0,64.0
2198,68.0,0,90,10.0,64.0
2199,46.0,0,60,13.0,64.0
2200,53.0,24,90,12.0,64.0
2201,82.0,6,60,0.0,64.0
2202,62.0,198,20,11.0,64.0
2203,56.0,0,20,12.0,64.0
2204,65.0,0,20,10.0,64.0
2205,56.0,0,240,12.0,64.0
2206,39.0,48,180,13.0,64.0
2207,70.0,0,240,1.0,64.0
2208,51.0,0,180,3.0,64.0
2209,82.0,96,240,0.0,64.0
2210,62.0,0,240,11.0,64.0
2211,58.0,0,240,2.0,64.0
2212,65.0,0,240,10.0,64.0
2213,63.0,0,90,1.0,64.0
2214,63.0,0,90,11.0,64.0
2215,55.0,0,90,12.0,64.0
2216,63.0,0,90,10.0,64.0
2217,51.0,189,90,2.0,64.0
2218,75.0,0,90,0.0,64.0
2219,63.0,60,60,12.0,64.0
2220,55.0,0,240,11.0,64.0
2221,51.0,45,240,13.0,64.0
2222,39.0,0,240,14.0,64.0
2223,63.0,60,60,12.0,64.0
2224,63.0,60,60,12.0,64.0
2225,63.0,15,60,12.0,64.0
2226,56.0,0,90,11.0,64.0
2227,53.0,15,90,13.0,64.0
2228,41.0,0,90,14.0,64.0
2229,63.0,45,60,12.0,64.0
2230,63.0,15,60,12.0,64.0
2231,58.0,45,30,11.0,64.0
2232,43.0,0,30,14.0,64.0
2233,55.0,0,30,13.0,64.0
2234,56.0,0,90,13.0,64.0
2235,60.0,0,90,11.0,64.0
2236,44.0,15,90,14.0,64.0
2237,63.0,45,60,12.0,64.0
2238,63.0,15,60,12.0,64.0
2239,53.0,0,30,13.0,64.0
2240,56.0,0,30,11.0,64.0
2241,41.0,33,30,14.0,64.0
2242,58.0,0,30,2.0,64.0
2243,75.0,3,90,10.0,64.0
2244,82.0,0,30,0.0,64.0
2245,70.0,0,30,1.0,64.0
2246,67.0,0,30,1.0,64.0
2247,55.0,12,30,2.0,64.0
2248,55.0,0,90,11.0,64.0
2249,39.0,0,90,14.0,64.0
2250,51.0,9,90,13.0,64.0
2251,63.0,45,60,12.0,64.0
2252,80.0,0,30,0.0,64.0
2253,68.0,0,30,1.0,64.0
2254,53.0,0,30,2.0,64.0
2255,65.0,3,30,1.0,64.0
2256,63.0,15,60,12.0,64.0
2257,56.0,0,30,2.0,64.0
2258,74.0,33,30,10.0,64.0
2259,51.0,12,30,2.0,64.0
2260,79.0,0,30,0.0,64.0
2261,67.0,0,30,1.0,64.0
2262,63.0,0,30,1.0,64.0
2263,63.0,45,60,12.0,64.0
2264,79.0,3,90,10.0,64.0
2265,55.0,0,30,2.0,64.0
2266,53.0,12,30,2.0,64.0
2267,65.0,0,30,1.0,64.0
2268,63.0,15,60,12.0,64.0
2269,77.0,0,30,0.0,64.0
2270,61.0,0,30,1.0,64.0
2271,49.0,0,30,2.0,64.0
2272,77.0,33,30,10.0,64.0
2273,48.0,0,30,2.0,64.0
2274,80.0,3,90,10.0,64.0
2275,63.0,45,60,12.0,64.0
2276,75.0,12,30,0.0,64.0
2277,51.0,0,30,2.0,64.0
2278,60.0,0,30,1.0,64.0
2279,63.0,0,30,1.0,64.0
2280,73.0,0,30,0.0,64.0
2281,46.0,0,30,2.0,64.0
2282,49.0,0,30,2.0,64.0
2283,58.0,0,30,1.0,64.0
2284,63.0,15,60,12.0,64.0
2285,61.0,12,30,1.0,64.0
2286,79.0,33,30,10.0,64.0
2287,44.0,0,30,2.0,64.0
2288,48.0,0,30,2.0,64.0
2289,60.0,12,30,1.0,64.0
2290,72.0,0,30,0.0,64.0
2291,56.0,0,30,1.0,64.0
2292,82.0,9,90,10.0,64.0
2293,63.0,48,60,12.0,64.0
2294,46.0,3,30,2.0,64.0
2295,70.0,0,30,0.0,64.0
2296,55.0,0,30,1.0,64.0
2297,43.0,0,30,2.0,64.0
2298,58.0,0,30,1.0,64.0
2299,63.0,60,60,12.0,64.0
2300,44.0,0,90,2.0,64.0
2301,56.0,0,90,1.0,64.0
2302,53.0,0,240,13.0,64.0
2303,56.0,0,240,11.0,64.0
2304,53.0,0,90,1.0,64.0
2305,68.0,0,90,0.0,64.0
2306,41.0,9,90,2.0,64.0
2307,41.0,45,240,14.0,64.0
2308,63.0,51,60,12.0,64.0
2309,63.0,60,60,12.0,64.0
2310,63.0,60,60,12.0,64.0
2311,63.0,15,60,12.0,64.0
2312,63.0,45,60,12.0,64.0
2313,58.0,15,90,11.0,64.0
2314,55.0,0,90,13.0,64.0
2315,43.0,0,90,14.0,64.0
2316,63.0,15,60,12.0,64.0
2317,56.0,0,30,13.0,64.0
2318,60.0,45,30,11.0,64.0
2319,44.0,0,30,14.0,64.0
2320,63.0,45,60,12.0,64.0
2321,46.0,0,90,14.0,64.0
2322,58.0,0,90,13.0,64.0
2323,61.0,15,90,11.0,64.0
2324,63.0,15,60,12.0,64.0
2325,58.0,33,30,11.0,64.0
2326,43.0,0,30,14.0,64.0
2327,55.0,0,30,13.0,64.0
2328,41.0,0,90,14.0,64.0
2329,68.0,0,30,1.0,64.0
2330,53.0,0,90,13.0,64.0
2331,72.0,0,30,1.0,64.0
2332,75.0,3,90,10.0,64.0
2333,56.0,9,90,11.0,64.0
2334,63.0,45,60,12.0,64.0
2335,60.0,12,30,2.0,64.0
2336,84.0,0,30,0.0,64.0
2337,56.0,0,30,2.0,64.0
2338,70.0,0,30,1.0,64.0
2339,82.0,0,30,0.0,64.0
2340,67.0,0,30,1.0,64.0
2341,63.0,15,60,12.0,64.0
2342,55.0,3,30,2.0,64.0
2343,58.0,0,30,2.0,64.0
2344,74.0,33,30,10.0,64.0
2345,53.0,0,30,2.0,64.0
2346,65.0,0,30,1.0,64.0
2347,63.0,45,60,12.0,64.0
2348,56.0,0,30,2.0,64.0
2349,80.0,12,30,0.0,64.0
2350,68.0,0,30,1.0,64.0
2351,80.0,3,90,10.0,64.0
2352,79.0,12,30,0.0,64.0
2353,63.0,15,60,12.0,64.0
2354,67.0,0,30,1.0,64.0
2355,55.0,0,30,2.0,64.0
2356,51.0,0,30,2.0,64.0
2357,63.0,0,30,1.0,64.0
2358,79.0,33,30,10.0,64.0
2359,77.0,12,30,0.0,64.0
2360,65.0,0,30,1.0,64.0
2361,61.0,0,30,1.0,64.0
2362,49.0,0,30,2.0,64.0
2363,82.0,3,90,10.0,64.0
2364,63.0,45,60,12.0,64.0
2365,53.0,0,30,2.0,64.0
2366,51.0,12,30,2.0,64.0
2367,48.0,0,30,2.0,64.0
2368,63.0,15,60,12.0,64.0
2369,63.0,0,30,1.0,64.0
2370,75.0,0,30,0.0,64.0
2371,60.0,0,30,1.0,64.0
2372,80.0,33,30,10.0,64.0
2373,84.0,9,90,10.0,64.0
2374,63.0,48,60,12.0,64.0
2375,58.0,12,30,1.0,64.0
2376,46.0,0,30,2.0,64.0
2377,73.0,0,30,0.0,64.0
2378,61.0,0,30,1.0,64.0
2379,49.0,0,30,2.0,64.0
2380,60.0,3,30,1.0,64.0
2381,44.0,0,30,2.0,64.0
2382,63.0,60,60,12.0,64.0
2383,48.0,0,30,2.0,64.0
2384,56.0,0,30,1.0,64.0
2385,72.0,0,30,0.0,64.0
2386,70.0,0,90,0.0,64.0
2387,46.0,0,90,2.0,64.0
2388,58.0,0,90,1.0,64.0
2389,55.0,0,240,13.0,64.0
2390,58.0,45,240,11.0,64.0
2391,43.0,0,240,14.0,64.0
2392,63.0,51,60,12.0,64.0
2393,43.0,9,90,2.0,64.0
2394,55.0,0,90,1.0,64.0
2395,63.0,60,60,12.0,64.0
2396,63.0,60,60,12.0,64.0
2397,63.0,15,60,12.0,64.0
2398,63.0,45,60,12.0,64.0
2399,60.0,15,90,11.0,64.0
2400,56.0,0,90,13.0,64.0
2401,44.0,0,90,14.0,64.0
2402,63.0,15,60,12.0,64.0
2403,61.0,0,30,11.0,64.0
2404,46.0,0,30,14.0,64.0
2405,58.0,45,30,13.0,64.0
2406,63.0,0,90,11.0,64.0
2407,63.0,45,60,12.0,64.0
2408,48.0,0,90,14.0,64.0
2409,60.0,15,90,13.0,64.0
2410,63.0,15,60,12.0,64.0
2411,44.0,0,30,14.0,64.0
2412,60.0,0,30,11.0,64.0
2413,56.0,33,30,13.0,64.0
2414,73.0,0,30,1.0,64.0
2415,75.0,3,90,10.0,64.0
2416,58.0,0,30,2.0,64.0
2417,58.0,0,90,11.0,64.0
2418,85.0,57,30,0.0,64.0
2419,43.0,0,90,14.0,64.0
2420,63.0,24,90,12.0,64.0
2421,70.0,0,30,1.0,64.0
2422,55.0,0,90,13.0,64.0
2423,61.0,0,30,2.0,64.0
2424,60.0,0,30,2.0,64.0
2425,56.0,3,30,2.0,64.0
2426,72.0,0,30,1.0,64.0
2427,84.0,0,30,0.0,64.0
2428,68.0,0,30,1.0,64.0
2429,74.0,33,30,10.0,64.0
2430,70.0,0,30,1.0,64.0
2431,82.0,3,90,10.0,64.0
2432,67.0,57,30,1.0,64.0
2433,58.0,0,30,2.0,64.0
2434,55.0,0,30,2.0,64.0
2435,82.0,0,30,0.0,64.0
2436,80.0,0,30,0.0,64.0
2437,56.0,27,30,2.0,64.0
2438,68.0,0,30,1.0,64.0
2439,65.0,0,30,1.0,64.0
2440,53.0,0,30,2.0,64.0
2441,80.0,33,30,10.0,64.0
2442,55.0,0,30,2.0,64.0
2443,67.0,0,30,1.0,64.0
2444,63.0,57,30,1.0,64.0
2445,51.0,0,30,2.0,64.0
2446,79.0,0,30,0.0,64.0
2447,84.0,3,90,10.0,64.0
2448,53.0,0,30,2.0,64.0
2449,61.0,0,30,1.0,64.0
2450,65.0,0,30,1.0,64.0
2451,77.0,0,30,0.0,64.0
2452,49.0,27,30,2.0,64.0
2453,82.0,33,30,10.0,64.0
2454,48.0,0,30,2.0,64.0
2455,60.0,0,30,1.0,64.0
2456,63.0,0,30,1.0,64.0
2457,51.0,21,30,2.0,64.0
2458,75.0,0,30,0.0,64.0
2459,85.0,39,60,10.0,64.0
2460,61.0,0,30,1.0,64.0
2461,58.0,27,30,1.0,64.0
2462,46.0,0,30,2.0,64.0
2463,73.0,0,30,0.0,64.0
2464,49.0,0,30,2.0,64.0
2465,82.0,54,30,10.0,64.0
2466,56.0,0,90,1.0,64.0
2467,56.0,0,60,13.0,64.0
2468,44.0,0,90,2.0,64.0
2469,60.0,0,90,1.0,64.0
2470,84.0,18,60,10.0,64.0
2471,72.0,0,90,0.0,64.0
2472,60.0,24,60,11.0,64.0
2473,63.0,0,60,12.0,64.0
2474,48.0,24,90,2.0,64.0
2475,79.0,54,30,10.0,64.0
2476,80.0,66,60,10.0,64.0
2477,76.0,54,30,10.0,64.0
2478,68.0,0,60,11.0,64.0
2479,77.0,18,60,10.0,64.0
2480,58.0,48,60,13.0,64.0
2481,62.0,0,60,12.0,64.0
2482,73.0,54,30,10.0,64.0
2483,74.0,66,60,10.0,64.0
2484,70.0,54,30,10.0,64.0
2485,67.0,48,60,11.0,64.0
2486,75.0,18,60,10.0,64.0
2487,63.0,0,60,12.0,64.0
2488,51.0,0,60,13.0,64.0
2489,79.0,54,30,10.0,64.0
2490,82.0,66,60,10.0,64.0
2491,75.0,54,30,10.0,64.0
2492,79.0,66,60,10.0,64.0
2493,70.0,54,30,10.0,64.0
2494,65.0,0,60,11.0,64.0
2495,62.0,0,60,12.0,64.0
2496,80.0,18,60,10.0,64.0
2497,58.0,48,60,13.0,64.0
2498,77.0,54,30,10.0,64.0
2499,63.0,0,60,12.0,64.0
2500,75.0,18,60,10.0,64.0
2501,63.0,0,60,13.0,64.0
2502,67.0,48,60,11.0,64.0
2503,79.0,54,30,10.0,64.0
2504,82.0,66,60,10.0,64.0
2505,75.0,54,30,10.0,64.0
2506,79.0,66,60,10.0,64.0
2507,70.0,54,30,10.0,64.0
2508,65.0,0,60,11.0,64.0
2509,58.0,48,60,13.0,64.0
2510,62.0,0,60,12.0,64.0
2511,80.0,18,60,10.0,64.0
2512,77.0,54,30,10.0,64.0
2513,63.0,48,60,12.0,64.0
2514,75.0,18,60,10.0,64.0
2515,63.0,0,60,11.0,64.0
2516,63.0,0,60,13.0,64.0
2517,76.0,0,30,10.0,64.0
2518,64.0,54,30,11.0,64.0
2519,77.0,66,60,10.0,64.0
2520,65.0,0,60,11.0,64.0
2521,75.0,0,30,10.0,64.0
2522,63.0,54,30,11.0,64.0
2523,73.0,0,60,10.0,64.0
2524,61.0,66,60,11.0,64.0
2525,60.0,54,30,11.0,64.0
2526,72.0,0,30,10.0,64.0
2527,58.0,0,60,11.0,64.0
2528,70.0,66,60,10.0,64.0
2529,68.0,0,30,10.0,64.0
2530,56.0,72,30,11.0,64.0
2531,67.0,48,60,10.0,64.0
2532,55.0,0,60,11.0,64.0
2533,53.0,0,30,13.0,64.0
2534,65.0,54,30,12.0,64.0
2535,41.0,0,30,14.0,64.0
2536,39.0,0,60,14.0,64.0
2537,51.0,66,60,13.0,64.0
2538,63.0,0,60,12.0,64.0
2539,61.0,0,30,12.0,64.0
2540,37.0,54,30,14.0,64.0
2541,49.0,0,30,13.0,64.0
2542,48.0,0,60,13.0,64.0
2543,36.0,0,60,14.0,64.0
2544,60.0,66,60,12.0,64.0
2545,34.0,0,30,14.0,64.0
2546,58.0,54,30,12.0,64.0
2547,46.0,0,30,13.0,64.0
2548,32.0,0,60,14.0,64.0
2549,56.0,0,60,12.0,64.0
2550,44.0,66,60,13.0,64.0
2551,43.0,0,30,13.0,64.0
2552,55.0,198,30,12.0,64.0
2553,31.0,0,30,14.0,64.0
2554,44.0,78,240,13.0,64.0
2555,60.0,0,240,2.0,64.0
2556,75.0,0,240,0.0,64.0
2557,72.0,0,240,1.0,64.0
2558,32.0,0,240,14.0,64.0
2559,56.0,0,570,12.0,64.0
2560,63.0,0,240,1.0,64.0
2561,80.0,42,90,10.0,64.0
2562,68.0,0,90,11.0,64.0
2563,49.0,96,240,13.0,64.0
2564,61.0,30,90,2.0,64.0
2565,80.0,0,90,10.0,64.0
2566,73.0,0,90,1.0,64.0
2567,77.0,0,90,0.0,64.0
2568,65.0,0,90,1.0,64.0
2569,37.0,0,240,14.0,64.0
2570,68.0,12,90,11.0,64.0
2571,67.0,0,30,1.0,64.0
2572,75.0,0,30,1.0,64.0
2573,79.0,78,30,0.0,64.0
2574,63.0,0,30,2.0,64.0
2575,68.0,30,90,1.0,64.0
2576,77.0,0,90,1.0,64.0
2577,68.0,12,90,11.0,64.0
2578,80.0,0,90,10.0,64.0
2579,65.0,0,90,2.0,64.0
2580,80.0,0,90,0.0,64.0
2581,65.0,0,30,1.0,64.0
2582,77.0,0,30,0.0,64.0
2583,61.0,0,30,2.0,64.0
2584,73.0,0,30,1.0,64.0
2585,72.0,0,90,1.0,64.0
2586,32.0,0,90,14.0,64.0
2587,44.0,0,90,13.0,64.0
2588,63.0,0,90,1.0,64.0
2589,75.0,0,90,0.0,64.0
2590,60.0,84,90,2.0,64.0
2591,80.0,30,180,10.0,64.0
2592,68.0,0,180,11.0,64.0
2593,67.0,0,30,11.0,64.0
2594,79.0,30,30,10.0,64.0
2595,65.0,0,30,11.0,64.0
2596,77.0,72,30,10.0,64.0
2597,68.0,30,90,1.0,64.0
2598,63.0,0,60,11.0,64.0
2599,75.0,18,60,10.0,64.0
2600,80.0,0,90,0.0,64.0
2601,56.0,0,90,2.0,64.0
2602,55.0,72,30,2.0,64.0
2603,79.0,0,30,0.0,64.0
2604,67.0,0,30,1.0,64.0
2605,63.0,18,60,11.0,64.0
2606,75.0,0,60,10.0,64.0
2607,82.0,0,90,0.0,64.0
2608,58.0,30,90,2.0,64.0
2609,70.0,0,90,1.0,64.0
2610,80.0,0,30,0.0,64.0
2611,56.0,90,30,2.0,64.0
2612,68.0,0,30,1.0,64.0
2613,72.0,30,90,1.0,64.0
2614,75.0,0,180,10.0,64.0
2615,60.0,0,90,2.0,64.0
2616,63.0,15,180,11.0,64.0
2617,84.0,0,90,0.0,64.0
2618,70.0,0,30,1.0,64.0
2619,82.0,60,30,0.0,64.0
2620,58.0,0,30,2.0,64.0
2621,85.0,0,90,0.0,64.0
2622,73.0,0,90,1.0,64.0
2623,61.0,0,90,2.0,64.0
2624,61.0,15,15,11.0,64.0
2625,73.0,0,15,10.0,64.0
2626,72.0,15,15,10.0,64.0
2627,60.0,0,15,11.0,64.0
2628,60.0,72,30,2.0,64.0
2629,70.0,0,15,10.0,64.0
2630,84.0,0,30,0.0,64.0
2631,58.0,15,15,11.0,64.0
2632,72.0,0,30,1.0,64.0
2633,68.0,0,15,10.0,64.0
2634,56.0,0,15,11.0,64.0
2635,55.0,0,60,11.0,64.0
2636,87.0,0,60,0.0,64.0
2637,75.0,0,60,1.0,64.0
2638,58.0,120,60,13.0,64.0
2639,61.0,0,60,12.0,64.0
2640,63.0,0,60,2.0,64.0
2641,67.0,0,60,10.0,64.0
2642,56.0,0,60,13.0,64.0
2643,87.0,0,60,0.0,64.0
2644,56.0,0,60,11.0,64.0
2645,75.0,0,60,1.0,64.0
2646,60.0,288,60,12.0,64.0
2647,68.0,0,60,10.0,64.0
2648,63.0,0,60,2.0,64.0
2649,72.0,0,240,10.0,64.0
2650,75.0,0,240,1.0,64.0
2651,60.0,0,240,11.0,64.0
2652,51.0,0,330,13.0,64.0
2653,56.0,0,240,12.0,64.0
2654,87.0,0,240,0.0,64.0
2655,63.0,60,240,2.0,64.0
2656,70.0,24,90,10.0,64.0
2657,63.0,0,90,1.0,64.0
2658,51.0,0,90,2.0,64.0
2659,75.0,0,90,0.0,64.0
2660,58.0,36,60,11.0,64.0
2661,55.0,0,90,12.0,64.0
2662,63.0,60,60,11.0,64.0
2663,61.0,48,60,11.0,64.0
2664,58.0,252,60,11.0,64.0
2665,56.0,0,570,12.0,64.0
2666,44.0,90,240,13.0,64.0
2667,32.0,0,240,14.0,64.0
2668,59.0,0,240,11.0,64.0
2669,63.0,0,240,10.0,64.0
2670,64.0,30,90,10.0,64.0
2671,49.0,0,240,13.0,64.0
2672,61.0,0,90,11.0,64.0
2673,37.0,0,240,14.0,64.0
2674,66.0,90,30,10.0,64.0
2675,63.0,0,30,11.0,64.0
2676,64.0,0,90,11.0,64.0
2677,68.0,30,90,10.0,64.0
2678,64.0,0,30,10.0,64.0
2679,61.0,96,30,11.0,64.0
2680,63.0,0,90,10.0,64.0
2681,44.0,0,90,13.0,64.0
2682,32.0,0,90,14.0,64.0
2683,59.0,24,90,11.0,64.0
2684,63.0,0,120,2.0,64.0
2685,75.0,120,120,0.0,64.0
2686,64.0,120,120,2.0,64.0
2687,76.0,0,120,0.0,64.0
2688,77.0,0,120,0.0,64.0
2689,65.0,96,120,2.0,64.0
2690,78.0,264,90,0.0,64.0
2691,66.0,0,90,2.0,64.0
2692,63.0,0,240,10.0,64.0
2693,78.0,48,390,0.0,64.0
2694,59.0,0,240,11.0,64.0
2695,42.0,0,240,14.0,64.0
2696,54.0,90,240,13.0,64.0
2697,66.0,60,720,2.0,64.0
2698,54.0,120,540,12.0,64.0
2699,61.0,0,90,11.0,64.0
2700,64.0,30,90,10.0,64.0
2701,40.0,0,180,14.0,64.0
2702,52.0,18,180,13.0,64.0
2703,59.0,0,30,11.0,64.0
2704,63.0,24,30,10.0,64.0
2705,61.0,0,90,11.0,64.0
2706,64.0,24,90,10.0,64.0
2707,58.0,78,20,11.0,64.0
2708,61.0,0,20,10.0,64.0
2709,39.0,0,60,14.0,64.0
2710,78.0,0,240,1.0,64.0
2711,51.0,0,60,13.0,64.0
2712,87.0,0,240,0.0,64.0
2713,59.0,0,240,2.0,64.0
2714,63.0,0,60,11.0,64.0
2715,66.0,0,60,10.0,64.0
2716,59.0,48,60,12.0,64.0
2717,39.0,0,60,14.0,64.0
2718,63.0,0,60,11.0,64.0
2719,51.0,0,60,13.0,64.0
2720,66.0,0,60,10.0,64.0
2721,52.0,0,60,13.0,64.0
2722,76.0,0,60,1.0,64.0
2723,59.0,0,60,12.0,64.0
2724,61.0,0,180,2.0,64.0
2725,85.0,12,60,0.0,64.0
2726,68.0,48,60,10.0,64.0
2727,64.0,0,180,2.0,64.0
2728,40.0,0,60,14.0,64.0
2729,61.0,0,60,11.0,64.0
2730,78.0,0,60,1.0,64.0
2731,87.0,60,60,0.0,64.0
2732,80.0,0,60,1.0,64.0
2733,68.0,0,60,10.0,64.0
2734,52.0,0,60,13.0,64.0
2735,40.0,36,60,14.0,64.0
2736,88.0,12,60,0.0,64.0
2737,61.0,0,60,11.0,64.0
2738,59.0,0,60,12.0,64.0
2739,76.0,0,60,1.0,64.0
2740,85.0,84,60,0.0,64.0
2741,59.0,0,60,11.0,64.0
2742,63.0,0,240,2.0,64.0
2743,42.0,120,60,14.0,64.0
2744,59.0,72,240,2.0,64.0
2745,54.0,0,60,13.0,64.0
2746,83.0,0,60,0.0,64.0
2747,75.0,0,60,1.0,64.0
2748,63.0,0,60,10.0,64.0
2749,54.0,0,60,12.0,64.0
2750,42.0,0,60,14.0,64.0
2751,63.0,0,60,10.0,64.0
2752,83.0,0,60,0.0,64.0
2753,75.0,0,60,1.0,64.0
2754,54.0,0,60,13.0,64.0
2755,59.0,0,60,11.0,64.0
2756,54.0,48,60,12.0,64.0
2757,58.0,0,180,2.0,64.0
2758,42.0,0,60,13.0,64.0
2759,61.0,0,180,2.0,64.0
2760,58.0,0,60,11.0,64.0
2761,54.0,0,60,12.0,64.0
2762,73.0,0,60,1.0,64.0
2763,30.0,0,60,14.0,64.0
2764,82.0,120,60,0.0,64.0
2765,61.0,0,60,10.0,64.0
2766,61.0,0,60,10.0,64.0
2767,58.0,0,60,11.0,64.0
2768,82.0,0,60,0.0,64.0
2769,30.0,96,60,14.0,64.0
2770,42.0,0,60,13.0,64.0
2771,54.0,0,60,12.0,64.0
2772,73.0,0,60,1.0,64.0
2773,47.0,0,60,13.0,64.0
2774,62.0,4,450,2.0,64.0
2775,71.0,0,60,11.0,64.0
2776,62.0,48,60,11.0,64.0
2777,35.0,0,60,14.0,64.0
2778,66.0,0,450,2.0,64.0
2779,66.0,12,390,3.0,64.0
2780,83.0,0,450,1.0,64.0
2781,73.0,0,450,1.0,64.0
2782,90.0,0,450,0.0,64.0
2783,83.0,12,90,10.0,64.0
2784,66.0,0,60,12.0,64.0
2785,62.0,0,90,11.0,64.0
2786,71.0,0,90,11.0,64.0
2787,66.0,12,90,12.0,64.0
2788,47.0,0,60,14.0,64.0
2789,59.0,48,60,13.0,64.0
2790,59.0,0,60,13.0,64.0
2791,47.0,24,60,14.0,64.0
2792,78.0,36,60,10.0,64.0
2793,66.0,0,90,12.0,64.0
2794,47.0,0,60,14.0,64.0
2795,59.0,6,60,13.0,64.0
2796,71.0,0,90,11.0,64.0
2797,62.0,12,90,11.0,64.0
2798,83.0,42,20,10.0,64.0
2799,47.0,48,60,14.0,64.0
2800,86.0,12,90,10.0,64.0
2801,59.0,0,60,13.0,64.0
2802,71.0,0,90,11.0,64.0
2803,62.0,12,90,11.0,64.0
2804,66.0,0,90,12.0,64.0
2805,47.0,0,60,14.0,64.0
2806,59.0,36,60,13.0,64.0
2807,47.0,32,60,14.0,64.0
2808,59.0,0,60,13.0,64.0
2809,59.0,0,60,13.0,64.0
2810,66.0,0,60,12.0,64.0
2811,62.0,12,60,11.0,64.0
2812,71.0,0,60,11.0,64.0
2813,47.0,0,60,14.0,64.0
2814,86.0,16,20,10.0,64.0
2815,85.0,8,20,10.0,64.0
2816,83.0,48,20,10.0,64.0
2817,82.0,12,90,10.0,64.0
2818,73.0,0,60,11.0,64.0
2819,64.0,0,60,11.0,64.0
2820,47.0,0,60,13.0,64.0
2821,82.0,12,450,1.0,64.0
2822,76.0,0,450,1.0,64.0
2823,67.0,12,390,3.0,64.0
2824,35.0,48,60,14.0,64.0
2825,64.0,0,450,2.0,64.0
2826,88.0,0,450,0.0,64.0
2827,67.0,0,60,12.0,64.0
2828,61.0,0,450,2.0,64.0
2829,64.0,12,90,11.0,64.0
2830,67.0,0,90,12.0,64.0
2831,73.0,0,90,11.0,64.0
2832,59.0,0,60,13.0,64.0
2833,47.0,48,60,14.0,64.0
2834,85.0,36,60,10.0,64.0
2835,47.0,0,60,14.0,64.0
2836,59.0,24,60,13.0,64.0
2837,73.0,0,90,11.0,64.0
2838,67.0,0,90,12.0,64.0
2839,64.0,12,90,11.0,64.0
2840,59.0,6,60,13.0,64.0
2841,47.0,0,60,14.0,64.0
2842,82.0,42,20,10.0,64.0
2843,59.0,48,60,13.0,64.0
2844,88.0,12,90,10.0,64.0
2845,47.0,0,60,14.0,64.0
2846,73.0,0,90,11.0,64.0
2847,64.0,0,90,11.0,64.0
2848,47.0,0,60,14.0,64.0
2849,67.0,12,90,12.0,64.0
2850,59.0,36,60,13.0,64.0
2851,47.0,0,60,14.0,64.0
2852,59.0,48,60,13.0,64.0
2853,67.0,0,60,12.0,64.0
2854,47.0,6,60,14.0,64.0
2855,59.0,0,60,13.0,64.0
2856,64.0,0,60,11.0,64.0
2857,73.0,48,60,11.0,64.0
2858,82.0,6,20,10.0,64.0
2859,66.0,48,60,12.0,64.0
2860,62.0,0,60,11.0,64.0
2861,71.0,0,60,11.0,64.0
2862,47.0,0,60,13.0,64.0
2863,90.0,0,450,0.0,64.0
2864,35.0,0,60,14.0,64.0
2865,83.0,9,450,1.0,64.0
2866,74.0,12,930,1.0,64.0
2867,66.0,12,390,3.0,64.0
2868,66.0,0,450,2.0,64.0
2869,62.0,0,450,2.0,64.0
2870,83.0,12,90,10.0,64.0
2871,66.0,0,90,12.0,64.0
2872,47.0,0,60,14.0,64.0
2873,59.0,48,60,13.0,64.0
2874,62.0,0,90,11.0,64.0
2875,71.0,12,90,11.0,64.0
2876,59.0,24,60,13.0,64.0
2877,47.0,0,60,14.0,64.0
2878,78.0,36,60,10.0,64.0
2879,62.0,0,90,11.0,64.0
2880,71.0,0,90,11.0,64.0
2881,66.0,12,90,12.0,64.0
2882,59.0,0,60,13.0,64.0
2883,47.0,6,60,14.0,64.0
2884,83.0,42,20,10.0,64.0
2885,59.0,48,60,13.0,64.0
2886,86.0,12,90,10.0,64.0
2887,47.0,0,60,14.0,64.0
2888,47.0,0,60,14.0,64.0
2889,59.0,36,60,13.0,64.0
2890,71.0,0,90,11.0,64.0
2891,62.0,12,90,11.0,64.0
2892,66.0,0,90,12.0,64.0
2893,47.0,0,60,14.0,64.0
2894,59.0,27,60,13.0,64.0
2895,66.0,48,60,12.0,64.0
2896,59.0,0,60,13.0,64.0
2897,71.0,0,60,11.0,64.0
2898,47.0,0,60,14.0,64.0
2899,62.0,12,60,11.0,64.0
2900,86.0,15,15,10.0,64.0
2901,84.0,6,15,10.0,64.0
2902,83.0,3,15,10.0,64.0
2903,81.0,0,15,10.0,64.0
2904,62.0,0,450,2.0,64.0
2905,59.0,0,60,11.0,64.0
2906,68.0,48,60,11.0,64.0
2907,47.0,0,60,13.0,64.0
2908,56.0,0,450,2.0,64.0
2909,80.0,0,450,1.0,64.0
2910,89.0,0,1410,0.0,64.0
2911,35.0,0,60,14.0,64.0
2912,65.0,0,60,12.0,64.0
2913,65.0,12,390,3.0,64.0
2914,80.0,12,90,10.0,64.0
2915,59.0,12,90,11.0,64.0
2916,68.0,0,90,11.0,64.0
2917,65.0,0,90,12.0,64.0
2918,47.0,48,60,14.0,64.0
2919,59.0,0,60,13.0,64.0
2920,47.0,24,60,14.0,64.0
2921,59.0,0,60,13.0,64.0
2922,83.0,36,60,10.0,64.0
2923,59.0,0,60,13.0,64.0
2924,68.0,0,90,11.0,64.0
2925,59.0,0,90,11.0,64.0
2926,65.0,12,90,12.0,64.0
2927,47.0,6,60,14.0,64.0
2928,86.0,42,20,10.0,64.0
2929,89.0,12,90,10.0,64.0
2930,59.0,0,60,13.0,64.0
2931,47.0,48,60,14.0,64.0
2932,59.0,0,90,11.0,64.0
2933,47.0,0,60,14.0,64.0
2934,68.0,0,90,11.0,64.0
2935,65.0,12,90,12.0,64.0
2936,59.0,36,60,13.0,64.0
2937,47.0,0,60,14.0,64.0
2938,59.0,48,60,13.0,64.0
2939,68.0,48,60,11.0,64.0
2940,59.0,0,60,11.0,64.0
2941,65.0,0,120,12.0,64.0
2942,59.0,0,60,13.0,64.0
2943,47.0,6,60,14.0,64.0
2944,80.0,6,20,10.0,64.0
2945,48.0,48,60,13.0,64.0
2946,36.0,0,60,14.0,64.0
2947,81.0,12,90,10.0,64.0
2948,60.0,0,60,11.0,64.0
2949,57.0,0,450,2.0,64.0
2950,81.0,0,450,1.0,64.0
2951,60.0,12,450,2.0,64.0
2952,65.0,12,390,3.0,64.0
2953,69.0,0,60,11.0,64.0
2954,77.0,12,930,1.0,64.0
2955,60.0,48,60,13.0,64.0
2956,48.0,0,60,14.0,64.0
2957,69.0,12,90,11.0,64.0
2958,65.0,0,90,12.0,64.0
2959,60.0,0,90,11.0,64.0
2960,84.0,36,60,10.0,64.0
2961,48.0,24,60,14.0,64.0
2962,60.0,0,60,13.0,64.0
2963,48.0,6,60,14.0,64.0
2964,69.0,0,90,11.0,64.0
2965,60.0,12,90,11.0,64.0
2966,65.0,0,90,12.0,64.0
2967,60.0,0,60,13.0,64.0
2968,81.0,42,20,10.0,64.0
2969,60.0,48,60,13.0,64.0
2970,48.0,0,60,14.0,64.0
2971,89.0,12,90,10.0,64.0
2972,65.0,0,90,12.0,64.0
2973,60.0,36,60,13.0,64.0
2974,69.0,0,90,11.0,64.0
2975,60.0,12,90,11.0,64.0
2976,48.0,0,60,14.0,64.0
2977,48.0,48,60,14.0,64.0
2978,60.0,0,60,13.0,64.0
2979,48.0,6,60,14.0,64.0
2980,65.0,48,60,12.0,64.0
2981,60.0,0,60,13.0,64.0
2982,60.0,0,60,11.0,64.0
2983,69.0,0,60,11.0,64.0
2984,77.0,6,20,10.0,64.0
2985,65.0,0,450,2.0,64.0
2986,80.0,12,90,10.0,64.0
2987,56.0,0,450,2.0,64.0
2988,37.0,0,60,14.0,64.0
2989,49.0,48,60,13.0,64.0
2990,73.0,0,60,11.0,64.0
2991,65.0,0,60,11.0,64.0
2992,68.0,0,60,12.0,64.0
2993,65.0,12,390,3.0,64.0
2994,80.0,0,450,1.0,64.0
2995,65.0,0,90,11.0,64.0
2996,73.0,12,90,11.0,64.0
2997,61.0,0,60,13.0,64.0
2998,68.0,0,90,12.0,64.0
2999,49.0,48,60,14.0,64.0
3000,61.0,0,60,13.0,64.0
3001,85.0,36,60,10.0,64.0
3002,49.0,24,60,14.0,64.0
3003,61.0,6,60,13.0,64.0
3004,65.0,0,90,11.0,64.0
3005,73.0,0,90,11.0,64.0
3006,68.0,12,90,12.0,64.0
3007,49.0,0,60,14.0,64.0
3008,80.0,42,20,10.0,64.0
3009,61.0,48,60,13.0,64.0
3010,49.0,0,60,14.0,64.0
3011,89.0,12,90,10.0,64.0
3012,49.0,0,60,14.0,64.0
3013,68.0,0,90,12.0,64.0
3014,65.0,0,90,11.0,64.0
3015,61.0,36,60,13.0,64.0
3016,73.0,12,90,11.0,64.0
3017,49.0,48,60,14.0,64.0
3018,61.0,0,60,13.0,64.0
3019,65.0,0,60,11.0,64.0
3020,61.0,6,60,13.0,64.0
3021,73.0,0,60,11.0,64.0
3022,68.0,48,60,12.0,64.0
3023,49.0,0,60,14.0,64.0
3024,80.0,6,20,10.0,64.0
3025,79.0,0,450,1.0,64.0
3026,82.0,0,450,1.0,64.0
3027,88.0,0,450,0.0,64.0
3028,58.0,12,390,3.0,64.0
3029,67.0,0,390,3.0,64.0
3030,79.0,12,90,10.0,64.0
3031,37.0,0,60,14.0,64.0
3032,49.0,0,60,13.0,64.0
3033,55.0,12,450,2.0,64.0
3034,64.0,0,450,2.0,64.0
3035,70.0,48,60,12.0,64.0
3036,67.0,0,60,11.0,64.0
3037,76.0,0,60,11.0,64.0
3038,49.0,48,60,14.0,64.0
3039,61.0,0,60,13.0,64.0
3040,70.0,0,90,12.0,64.0
3041,67.0,0,90,11.0,64.0
3042,76.0,12,90,11.0,64.0
3043,82.0,36,60,10.0,64.0
3044,49.0,0,60,14.0,64.0
3045,61.0,24,60,13.0,64.0
3046,49.0,6,60,14.0,64.0
3047,61.0,0,60,13.0,64.0
3048,67.0,0,90,11.0,64.0
3049,76.0,0,90,11.0,64.0
3050,70.0,12,90,12.0,64.0
3051,76.0,42,20,10.0,64.0
3052,49.0,48,60,14.0,64.0
3053,88.0,12,90,10.0,64.0
3054,61.0,0,60,13.0,64.0
3055,76.0,12,90,11.0,64.0
3056,67.0,0,90,11.0,64.0
3057,49.0,36,60,14.0,64.0
3058,70.0,0,90,12.0,64.0
3059,61.0,0,60,13.0,64.0
3060,61.0,48,60,13.0,64.0
3061,49.0,0,60,14.0,64.0
3062,76.0,48,60,11.0,64.0
3063,70.0,0,60,12.0,64.0
3064,49.0,6,60,14.0,64.0
3065,61.0,0,60,13.0,64.0
3066,67.0,0,60,11.0,64.0
3067,79.0,6,20,10.0,64.0
3068,51.0,12,390,3.0,64.0
3069,63.0,36,180,2.0,64.0
3070,56.0,0,180,2.0,64.0
3071,71.0,0,60,12.0,64.0
3072,47.0,0,60,13.0,64.0
3073,68.0,48,60,11.0,64.0
3074,80.0,0,180,1.0,64.0
3075,87.0,36,240,0.0,64.0
3076,80.0,12,90,10.0,64.0
3077,83.0,0,180,1.0,64.0
3078,35.0,0,60,14.0,64.0
3079,63.0,0,390,3.0,64.0
3080,75.0,0,60,11.0,64.0
3081,59.0,0,60,13.0,64.0
3082,71.0,0,90,12.0,64.0
3083,75.0,12,90,11.0,64.0
3084,68.0,0,90,11.0,64.0
3085,47.0,48,60,14.0,64.0
3086,47.0,24,60,14.0,64.0
3087,59.0,0,60,13.0,64.0
3088,83.0,0,60,10.0,64.0
3089,71.0,0,90,12.0,64.0
3090,75.0,0,90,11.0,64.0
3091,59.0,6,60,13.0,64.0
3092,47.0,0,60,14.0,64.0
3093,68.0,12,90,11.0,64.0
3094,75.0,6,20,10.0,64.0
3095,87.0,12,90,10.0,64.0
3096,75.0,0,480,1.0,64.0
3097,63.0,0,480,2.0,64.0
3098,87.0,36,480,0.0,64.0
3099,47.0,0,60,14.0,64.0
3100,59.0,48,60,13.0,64.0
3101,68.0,12,90,11.0,64.0
3102,47.0,36,60,14.0,64.0
3103,71.0,0,90,12.0,64.0
3104,59.0,0,60,13.0,64.0
3105,75.0,0,90,11.0,64.0
3106,47.0,32,60,14.0,64.0
3107,59.0,0,60,13.0,64.0
3108,75.0,20,20,10.0,64.0
3109,68.0,0,120,11.0,64.0
3110,59.0,0,60,13.0,64.0
3111,71.0,48,60,12.0,64.0
3112,47.0,12,60,14.0,64.0
3113,75.0,0,60,11.0,64.0
3114,77.0,8,20,10.0,64.0
3115,79.0,0,20,10.0,64.0
3116,80.0,12,90,10.0,64.0
3117,71.0,48,60,11.0,64.0
3118,28.0,0,60,14.0,64.0
3119,40.0,0,60,13.0,64.0
3120,64.0,0,60,12.0,64.0
3121,64.0,0,90,12.0,64.0
3122,52.0,0,60,13.0,64.0
3123,71.0,12,90,11.0,64.0
3124,40.0,48,60,14.0,64.0
3125,68.0,0,90,11.0,64.0
3126,83.0,36,60,10.0,64.0
3127,40.0,0,60,14.0,64.0
3128,52.0,24,60,13.0,64.0
3129,68.0,12,90,11.0,64.0
3130,71.0,0,90,11.0,64.0
3131,64.0,0,90,12.0,64.0
3132,40.0,6,60,14.0,64.0
3133,52.0,0,60,13.0,64.0
3134,71.0,6,20,10.0,64.0
3135,80.0,12,90,10.0,64.0
3136,64.0,0,120,2.0,64.0
3137,52.0,0,60,13.0,64.0
3138,88.0,0,120,0.0,64.0
3139,76.0,36,120,1.0,64.0
3140,40.0,48,60,14.0,64.0
3141,40.0,12,60,14.0,64.0
3142,71.0,0,90,11.0,64.0
3143,52.0,0,60,13.0,64.0
3144,68.0,12,90,11.0,64.0
3145,64.0,0,90,12.0,64.0
3146,40.0,0,60,14.0,64.0
3147,87.0,36,240,0.0,64.0
3148,63.0,0,240,2.0,64.0
3149,52.0,32,60,13.0,64.0
3150,75.0,0,240,1.0,64.0
3151,71.0,0,120,11.0,64.0
3152,52.0,0,60,13.0,64.0
3153,40.0,12,60,14.0,64.0
3154,64.0,48,60,12.0,64.0
3155,79.0,20,20,10.0,64.0
3156,68.0,48,120,11.0,64.0
3157,80.0,8,20,10.0,64.0
3158,82.0,0,20,10.0,64.0
3159,83.0,12,90,10.0,64.0
3160,65.0,0,60,12.0,64.0
3161,41.0,0,60,13.0,64.0
3162,29.0,0,60,14.0,64.0
3163,65.0,0,90,12.0,64.0
3164,68.0,12,90,11.0,64.0
3165,71.0,0,90,11.0,64.0
3166,41.0,0,60,14.0,64.0
3167,53.0,12,60,13.0,64.0
3168,53.0,12,60,13.0,64.0
3169,61.0,0,60,2.0,64.0
3170,80.0,36,60,10.0,64.0
3171,41.0,0,60,14.0,64.0
3172,73.0,12,60,1.0,64.0
3173,85.0,0,60,0.0,64.0
3174,83.0,36,60,0.0,64.0
3175,41.0,6,60,14.0,64.0
3176,68.0,12,90,11.0,64.0
3177,53.0,0,60,13.0,64.0
3178,71.0,0,60,1.0,64.0
3179,65.0,0,60,12.0,64.0
3180,59.0,0,60,2.0,64.0
3181,71.0,0,90,11.0,64.0
3182,71.0,6,20,10.0,64.0
3183,64.0,0,60,12.0,64.0
3184,28.0,0,60,14.0,64.0
3185,61.0,0,120,2.0,64.0
3186,85.0,36,120,0.0,64.0
3187,40.0,48,60,13.0,64.0
3188,83.0,12,90,10.0,64.0
3189,73.0,0,120,1.0,64.0
3190,71.0,12,90,11.0,64.0
3191,52.0,0,60,13.0,64.0
3192,40.0,12,60,14.0,64.0
3193,68.0,0,90,11.0,64.0
3194,64.0,0,90,12.0,64.0
3195,74.0,0,120,1.0,64.0
3196,86.0,0,120,0.0,64.0
3197,62.0,0,120,2.0,64.0
3198,40.0,60,60,14.0,64.0
3199,52.0,0,60,13.0,64.0
3200,52.0,6,60,13.0,64.0
3201,64.0,48,60,12.0,64.0
3202,68.0,0,60,11.0,64.0
3203,40.0,0,60,14.0,64.0
3204,80.0,6,20,10.0,64.0
3205,63.0,0,180,3.0,64.0
3206,63.0,0,240,2.0,64.0
3207,51.0,36,180,3.0,64.0
3208,79.0,12,90,10.0,64.0
3209,75.0,0,240,1.0,64.0
3210,63.0,0,60,12.0,64.0
3211,67.0,0,60,11.0,64.0
3212,39.0,0,60,14.0,64.0
3213,87.0,48,240,0.0,64.0
3214,39.0,48,60,13.0,64.0
3215,39.0,0,60,14.0,64.0
3216,70.0,0,90,11.0,64.0
3217,67.0,12,90,12.0,64.0
3218,51.0,48,60,13.0,64.0
3219,82.0,0,60,10.0,64.0
3220,51.0,0,60,13.0,64.0
3221,39.0,24,60,14.0,64.0
3222,51.0,0,60,13.0,64.0
3223,67.0,0,60,12.0,64.0
3224,70.0,0,60,11.0,64.0
3225,39.0,6,60,14.0,64.0
3226,87.0,6,20,10.0,64.0
3227,39.0,48,60,14.0,64.0
3228,51.0,0,180,3.0,64.0
3229,71.0,0,60,11.0,64.0
3230,63.0,36,180,3.0,64.0
3231,77.0,0,240,1.0,64.0
3232,86.0,0,240,0.0,64.0
3233,56.0,0,240,2.0,64.0
3234,59.0,0,240,2.0,64.0
3235,74.0,0,240,1.0,64.0
3236,68.0,0,60,12.0,64.0
3237,39.0,0,60,13.0,64.0
3238,86.0,12,90,10.0,64.0
3239,68.0,0,90,12.0,64.0
3240,71.0,12,90,11.0,64.0
3241,51.0,48,60,13.0,64.0
3242,39.0,0,60,14.0,64.0
3243,39.0,0,60,14.0,64.0
3244,51.0,24,60,13.0,64.0
3245,39.0,6,60,14.0,64.0
3246,51.0,0,60,13.0,64.0
3247,68.0,0,60,12.0,64.0
3248,71.0,48,60,11.0,64.0
3249,74.0,6,20,10.0,64.0
3250,75.0,36,60,10.0,64.0
3251,75.0,0,240,1.0,64.0
3252,39.0,0,60,13.0,64.0
3253,63.0,0,180,3.0,64.0
3254,51.0,36,180,3.0,64.0
3255,87.0,48,240,0.0,64.0
3256,58.0,0,240,2.0,64.0
3257,55.0,0,240,2.0,64.0
3258,79.0,0,240,1.0,64.0
3259,67.0,0,60,12.0,64.0
3260,39.0,0,60,14.0,64.0
3261,70.0,24,60,11.0,64.0
3262,39.0,6,60,14.0,64.0
3263,51.0,0,60,13.0,64.0
3264,67.0,0,90,12.0,64.0
3265,70.0,12,90,11.0,64.0
3266,79.0,42,20,10.0,64.0
3267,39.0,24,60,14.0,64.0
3268,51.0,0,60,13.0,64.0
3269,82.0,0,60,10.0,64.0
3270,51.0,0,60,13.0,64.0
3271,70.0,0,60,11.0,64.0
3272,67.0,6,60,12.0,64.0
3273,39.0,0,60,14.0,64.0
3274,87.0,6,20,10.0,64.0
3275,86.0,12,90,10.0,64.0
3276,51.0,36,180,3.0,64.0
3277,39.0,0,60,14.0,64.0
3278,71.0,0,60,11.0,64.0
3279,63.0,0,180,3.0,64.0
3280,59.0,0,240,2.0,64.0
3281,56.0,0,240,2.0,64.0
3282,68.0,48,60,12.0,64.0
3283,86.0,0,240,0.0,64.0
3284,74.0,0,240,1.0,64.0
3285,77.0,0,240,1.0,64.0
3286,39.0,0,60,13.0,64.0
3287,39.0,0,60,14.0,64.0
3288,71.0,0,90,11.0,64.0
3289,51.0,48,60,13.0,64.0
3290,68.0,12,90,12.0,64.0
3291,51.0,0,60,13.0,64.0
3292,39.0,24,60,14.0,64.0
3293,39.0,0,60,14.0,64.0
3294,68.0,45,60,12.0,64.0
3295,71.0,0,60,11.0,64.0
3296,51.0,6,60,13.0,64.0
3297,74.0,6,20,10.0,64.0
3298,55.0,0,90,2.0,64.0
3299,58.0,0,90,2.0,64.0
3300,39.0,0,90,14.0,64.0
3301,51.0,0,3450,3.0,64.0
3302,70.0,0,90,11.0,64.0
3303,75.0,0,90,1.0,64.0
3304,79.0,0,90,1.0,64.0
3305,39.0,0,90,13.0,64.0
3306,87.0,0,90,0.0,64.0
3307,67.0,9,90,12.0,64.0
3308,75.0,51,60,10.0,64.0
3309,63.0,0,3450,3.0,64.0
3310,87.0,60,60,10.0,64.0
3311,87.0,60,60,10.0,64.0
3312,87.0,60,60,10.0,64.0
3313,87.0,60,60,10.0,64.0
3314,87.0,60,60,10.0,64.0
3315,87.0,60,60,10.0,64.0
3316,87.0,60,60,10.0,64.0
3317,87.0,60,60,10.0,64.0
3318,63.0,0,240,1.0,64.0
3319,55.0,0,240,2.0,64.0
3320,51.0,0,240,2.0,64.0
3321,67.0,45,240,1.0,64.0
3322,79.0,0,240,0.0,64.0
3323,87.0,60,60,10.0,64.0
3324,87.0,60,60,10.0,64.0
3325,87.0,15,60,10.0,64.0
3326,53.0,0,90,2.0,64.0
3327,56.0,0,90,2.0,64.0
3328,80.0,0,90,0.0,64.0
3329,65.0,0,90,1.0,64.0
3330,87.0,45,60,10.0,64.0
3331,68.0,15,90,1.0,64.0
3332,87.0,15,60,10.0,64.0
3333,58.0,0,30,2.0,64.0
3334,55.0,45,30,2.0,64.0
3335,67.0,0,30,1.0,64.0
3336,70.0,0,30,1.0,64.0
3337,82.0,0,30,0.0,64.0
3338,84.0,0,90,0.0,64.0
3339,68.0,0,90,1.0,64.0
3340,72.0,15,90,1.0,64.0
3341,60.0,0,90,2.0,64.0
3342,87.0,45,60,10.0,64.0
3343,87.0,15,60,10.0,64.0
3344,56.0,0,15,2.0,64.0
3345,53.0,36,30,2.0,64.0
3346,80.0,0,30,0.0,64.0
3347,68.0,0,30,1.0,64.0
3348,65.0,0,30,1.0,64.0
3349,51.0,0,90,2.0,64.0
3350,67.0,0,90,1.0,64.0
3351,63.0,0,90,1.0,64.0
3352,70.0,0,30,11.0,64.0
3353,55.0,0,90,2.0,64.0
3354,79.0,0,90,0.0,64.0
3355,87.0,45,60,10.0,64.0
3356,39.0,0,90,14.0,64.0
3357,51.0,6,90,13.0,64.0
3358,67.0,9,30,12.0,64.0
3359,68.0,0,30,11.0,64.0
3360,87.0,15,60,10.0,64.0
3361,65.0,9,30,12.0,64.0
3362,50.0,0,30,13.0,64.0
3363,38.0,36,30,14.0,64.0
3364,87.0,45,60,10.0,64.0
3365,55.0,6,90,13.0,64.0
3366,63.0,9,30,12.0,64.0
3367,67.0,0,30,11.0,64.0
3368,43.0,0,90,14.0,64.0
3369,87.0,15,60,10.0,64.0
3370,65.0,0,30,11.0,64.0
3371,61.0,9,30,12.0,64.0
3372,53.0,0,30,13.0,64.0
3373,41.0,36,30,14.0,64.0
3374,60.0,0,30,12.0,64.0
3375,63.0,9,30,11.0,64.0
3376,56.0,6,90,13.0,64.0
3377,44.0,0,90,14.0,64.0
3378,87.0,45,60,10.0,64.0
3379,61.0,9,30,11.0,64.0
3380,58.0,0,30,12.0,64.0
3381,87.0,15,60,10.0,64.0
3382,43.0,0,30,14.0,64.0
3383,55.0,36,30,13.0,64.0
3384,56.0,0,30,12.0,64.0
3385,87.0,51,60,10.0,64.0
3386,60.0,9,30,11.0,64.0
3387,46.0,45,120,14.0,64.0
3388,58.0,0,120,13.0,64.0
3389,87.0,15,60,10.0,64.0
3390,55.0,9,30,12.0,64.0
3391,58.0,0,30,11.0,64.0
3392,65.0,0,240,1.0,64.0
3393,56.0,45,240,2.0,64.0
3394,68.0,0,240,1.0,64.0
3395,87.0,51,60,10.0,64.0
3396,56.0,0,90,11.0,64.0
3397,53.0,9,90,12.0,64.0
3398,53.0,0,240,2.0,64.0
3399,80.0,0,240,0.0,64.0
3400,87.0,60,60,10.0,64.0
3401,87.0,60,60,10.0,64.0
3402,87.0,15,60,10.0,64.0
3403,67.0,0,90,1.0,64.0
3404,70.0,15,90,1.0,64.0
3405,82.0,0,90,0.0,64.0
3406,87.0,45,60,10.0,64.0
3407,58.0,0,90,2.0,64.0
3408,55.0,0,90,2.0,64.0
3409,87.0,15,60,10.0,64.0
3410,60.0,0,30,2.0,64.0
3411,56.0,0,30,2.0,64.0
3412,84.0,0,30,0.0,64.0
3413,72.0,0,30,1.0,64.0
3414,68.0,45,30,1.0,64.0
3415,85.0,0,90,0.0,64.0
3416,87.0,45,60,10.0,64.0
3417,73.0,0,90,1.0,64.0
3418,58.0,0,90,2.0,64.0
3419,61.0,0,90,2.0,64.0
3420,87.0,15,60,10.0,64.0
3421,82.0,0,30,0.0,64.0
3422,70.0,15,15,1.0,64.0
3423,67.0,0,30,1.0,64.0
3424,55.0,0,30,2.0,64.0
3425,58.0,0,30,2.0,64.0
3426,51.0,6,90,13.0,64.0
3427,87.0,45,60,10.0,64.0
3428,80.0,0,90,0.0,64.0
3429,68.0,0,30,12.0,64.0
3430,72.0,9,30,11.0,64.0
3431,65.0,0,90,1.0,64.0
3432,39.0,0,90,14.0,64.0
3433,56.0,0,90,2.0,64.0
3434,68.0,0,90,1.0,64.0
3435,53.0,9,90,2.0,64.0
3436,70.0,0,30,11.0,64.0
3437,67.0,0,30,12.0,64.0
3438,87.0,15,60,10.0,64.0
3439,38.0,0,30,14.0,64.0
3440,50.0,36,30,13.0,64.0
3441,87.0,45,60,10.0,64.0
3442,56.0,6,90,13.0,64.0
3443,44.0,0,90,14.0,64.0
3444,65.0,9,30,12.0,64.0
3445,68.0,0,30,11.0,64.0
3446,67.0,0,30,11.0,64.0
3447,63.0,9,30,12.0,64.0
3448,87.0,15,60,10.0,64.0
3449,55.0,0,30,13.0,64.0
3450,43.0,36,30,14.0,64.0
3451,65.0,0,30,11.0,64.0
3452,61.0,9,30,12.0,64.0
3453,87.0,45,60,10.0,64.0
3454,58.0,6,90,13.0,64.0
3455,46.0,0,90,14.0,64.0
3456,63.0,0,30,11.0,64.0
3457,87.0,15,60,10.0,64.0
3458,60.0,9,30,12.0,64.0
3459,56.0,36,30,13.0,64.0
3460,44.0,0,30,14.0,64.0
3461,60.0,0,120,13.0,64.0
3462,61.0,0,30,11.0,64.0
3463,87.0,51,60,10.0,64.0
3464,58.0,9,30,12.0,64.0
3465,48.0,45,120,14.0,64.0
3466,60.0,9,30,11.0,64.0
3467,87.0,15,60,10.0,64.0
3468,56.0,0,30,12.0,64.0
3469,55.0,0,240,2.0,64.0
3470,67.0,45,240,1.0,64.0
3471,70.0,0,240,1.0,64.0
3472,58.0,0,240,2.0,64.0
3473,87.0,51,60,10.0,64.0
3474,82.0,0,240,0.0,64.0
3475,58.0,9,90,11.0,64.0
3476,55.0,0,90,12.0,64.0
3477,87.0,60,60,10.0,64.0
3478,87.0,60,60,10.0,64.0
3479,87.0,15,60,10.0,64.0
3480,87.0,45,60,10.0,64.0
3481,56.0,0,90,2.0,64.0
3482,60.0,0,90,2.0,64.0
3483,68.0,0,90,1.0,64.0
3484,72.0,0,90,1.0,64.0
3485,84.0,15,90,0.0,64.0
3486,87.0,15,60,10.0,64.0
3487,58.0,0,30,2.0,64.0
3488,61.0,45,30,2.0,64.0
3489,70.0,0,30,1.0,64.0
3490,85.0,0,30,0.0,64.0
3491,73.0,0,30,1.0,64.0
3492,75.0,0,90,1.0,64.0
3493,87.0,15,90,0.0,64.0
3494,72.0,0,90,1.0,64.0
3495,63.0,0,90,2.0,64.0
3496,87.0,45,60,10.0,64.0
3497,87.0,15,60,10.0,64.0
3498,72.0,36,30,1.0,64.0
3499,60.0,0,15,2.0,64.0
3500,84.0,0,30,0.0,64.0
3501,56.0,0,30,2.0,64.0
3502,68.0,0,30,1.0,64.0
3503,39.0,6,90,14.0,64.0
3504,51.0,0,90,13.0,64.0
3505,70.0,0,30,12.0,64.0
3506,55.0,0,90,2.0,64.0
3507,58.0,0,90,2.0,64.0
3508,87.0,36,360,10.0,64.0
3509,70.0,0,90,1.0,64.0
3510,67.0,0,90,1.0,64.0
3511,73.0,54,30,11.0,64.0
3512,82.0,24,90,0.0,64.0
3513,68.0,0,30,12.0,64.0
3514,72.0,0,30,11.0,64.0
3515,38.0,36,30,14.0,64.0
3516,50.0,0,30,13.0,64.0
3517,58.0,6,90,13.0,64.0
3518,67.0,54,30,12.0,64.0
3519,46.0,0,90,14.0,64.0
3520,70.0,0,30,11.0,64.0
3521,65.0,24,30,12.0,64.0
3522,68.0,0,30,11.0,64.0
3523,56.0,0,30,13.0,64.0
3524,44.0,36,30,14.0,64.0
3525,60.0,6,90,13.0,64.0
3526,63.0,54,30,12.0,64.0
3527,48.0,0,90,14.0,64.0
3528,67.0,0,30,11.0,64.0
3529,65.0,0,30,11.0,64.0
3530,61.0,24,30,12.0,64.0
3531,46.0,0,30,14.0,64.0
3532,58.0,0,30,13.0,64.0
3533,49.0,90,120,14.0,64.0
3534,61.0,0,120,13.0,64.0
3535,60.0,0,30,12.0,64.0
3536,63.0,60,30,11.0,64.0
3537,79.0,0,90,10.0,64.0
3538,61.0,0,30,11.0,64.0
3539,58.0,24,30,12.0,64.0
3540,63.0,0,90,11.0,64.0
3541,60.0,0,90,13.0,64.0
3542,48.0,0,90,14.0,64.0
3543,60.0,24,90,12.0,64.0
3544,80.0,6,90,10.0,64.0
3545,79.0,90,30,10.0,64.0
3546,82.0,30,90,10.0,64.0
3547,80.0,90,30,10.0,64.0
3548,85.0,30,90,10.0,64.0
3549,84.0,59,30,10.0,64.0
3550,87.0,51,60,10.0,64.0
3551,87.0,46,20,10.0,64.0
3552,75.0,0,60,11.0,64.0
3553,87.0,24,60,10.0,64.0
3554,65.0,18,60,3.0,64.0
3555,63.0,0,30,2.0,64.0
3556,60.0,0,30,2.0,64.0
3557,69.0,0,90,12.0,64.0
3558,57.0,0,90,13.0,64.0
3559,45.0,6,90,14.0,64.0
3560,72.0,0,30,1.0,64.0
3561,87.0,0,30,0.0,64.0
3562,75.0,12,30,1.0,64.0
3563,60.0,0,30,2.0,64.0
3564,75.0,0,30,1.0,64.0
3565,65.0,12,60,3.0,64.0
3566,63.0,12,30,2.0,64.0
3567,72.0,0,30,1.0,64.0
3568,87.0,0,30,0.0,64.0
3569,67.0,0,30,12.0,64.0
3570,43.0,36,30,14.0,64.0
3571,55.0,0,30,13.0,64.0
3572,70.0,0,90,12.0,64.0
3573,72.0,0,30,1.0,64.0
3574,60.0,12,30,2.0,64.0
3575,46.0,0,90,14.0,64.0
3576,87.0,0,30,0.0,64.0
3577,65.0,18,60,3.0,64.0
3578,58.0,6,90,13.0,64.0
3579,75.0,0,30,1.0,64.0
3580,63.0,0,30,2.0,64.0
3581,77.0,0,60,10.0,64.0
3582,65.0,24,60,11.0,64.0
3583,72.0,0,30,1.0,64.0
3584,63.0,0,30,2.0,64.0
3585,75.0,0,30,1.0,64.0
3586,60.0,0,30,2.0,64.0
3587,87.0,12,30,0.0,64.0
3588,65.0,12,60,3.0,64.0
3589,69.0,36,30,12.0,64.0
3590,45.0,0,30,14.0,64.0
3591,57.0,0,30,13.0,64.0
3592,70.0,0,30,1.0,64.0
3593,58.0,0,30,2.0,64.0
3594,73.0,12,30,1.0,64.0
3595,85.0,0,30,0.0,64.0
3596,61.0,0,30,2.0,64.0
3597,65.0,27,60,3.0,64.0
3598,60.0,0,90,13.0,64.0
3599,48.0,6,90,14.0,64.0
3600,72.0,0,90,12.0,64.0
3601,65.0,6,60,3.0,64.0
3602,61.0,0,30,2.0,64.0
3603,85.0,9,30,0.0,64.0
3604,58.0,0,30,2.0,64.0
3605,70.0,0,30,1.0,64.0
3606,73.0,0,30,1.0,64.0
3607,79.0,0,15,10.0,64.0
3608,67.0,15,15,11.0,64.0
3609,77.0,0,15,10.0,64.0
3610,65.0,0,15,11.0,64.0
3611,58.0,36,30,13.0,64.0
3612,46.0,0,30,14.0,64.0
3613,70.0,0,30,12.0,64.0
3614,76.0,0,15,10.0,64.0
3615,64.0,3,15,11.0,64.0
3616,77.0,0,15,10.0,64.0
3617,65.0,6,15,11.0,64.0
3618,58.0,0,30,2.0,64.0
3619,49.0,0,90,14.0,64.0
3620,70.0,0,30,11.0,64.0
3621,70.0,0,30,1.0,64.0
3622,61.0,0,90,13.0,64.0
3623,65.0,48,60,3.0,64.0
3624,73.0,0,90,12.0,64.0
3625,61.0,0,30,2.0,64.0
3626,82.0,12,30,10.0,64.0
3627,85.0,0,30,0.0,64.0
3628,73.0,0,30,1.0,64.0
3629,58.0,0,30,2.0,64.0
3630,65.0,48,60,3.0,64.0
3631,85.0,0,30,0.0,64.0
3632,70.0,0,30,1.0,64.0
3633,73.0,0,30,1.0,64.0
3634,85.0,0,30,10.0,64.0
3635,61.0,0,30,2.0,64.0
3636,73.0,12,30,11.0,64.0
3637,85.0,24,60,10.0,64.0
3638,67.0,6,90,12.0,64.0
3639,73.0,0,60,11.0,64.0
3640,43.0,0,90,14.0,64.0
3641,85.0,0,30,0.0,64.0
3642,63.0,18,60,3.0,64.0
3643,51.0,0,60,3.0,64.0
3644,70.0,0,30,1.0,64.0
3645,73.0,0,30,1.0,64.0
3646,61.0,12,30,2.0,64.0
3647,58.0,0,30,2.0,64.0
3648,55.0,0,90,13.0,64.0
3649,58.0,12,30,2.0,64.0
3650,61.0,0,30,2.0,64.0
3651,63.0,12,60,3.0,64.0
3652,51.0,0,60,3.0,64.0
3653,85.0,0,30,0.0,64.0
3654,73.0,0,30,1.0,64.0
3655,70.0,0,30,1.0,64.0
3656,65.0,36,30,12.0,64.0
3657,41.0,0,30,14.0,64.0
3658,53.0,0,30,13.0,64.0
3659,44.0,0,90,14.0,64.0
3660,58.0,0,30,2.0,64.0
3661,73.0,0,30,1.0,64.0
3662,63.0,24,60,11.0,64.0
3663,70.0,0,30,1.0,64.0
3664,85.0,0,30,0.0,64.0
3665,68.0,6,90,12.0,64.0
3666,51.0,18,60,3.0,64.0
3667,63.0,0,60,3.0,64.0
3668,56.0,0,90,13.0,64.0
3669,61.0,12,30,2.0,64.0
3670,75.0,0,60,10.0,64.0
3671,73.0,0,30,1.0,64.0
3672,61.0,0,30,2.0,64.0
3673,70.0,0,30,1.0,64.0
3674,85.0,12,30,0.0,64.0
3675,51.0,12,60,3.0,64.0
3676,63.0,0,60,3.0,64.0
3677,58.0,0,30,2.0,64.0
3678,55.0,36,30,13.0,64.0
3679,43.0,0,30,14.0,64.0
3680,67.0,0,30,12.0,64.0
3681,70.0,0,90,12.0,64.0
3682,72.0,0,30,1.0,64.0
3683,60.0,12,30,2.0,64.0
3684,63.0,27,60,3.0,64.0
3685,68.0,0,30,1.0,64.0
3686,56.0,0,30,2.0,64.0
3687,51.0,0,60,3.0,64.0
3688,46.0,6,90,14.0,64.0
3689,58.0,0,90,13.0,64.0
3690,84.0,0,30,0.0,64.0
3691,63.0,0,60,3.0,64.0
3692,56.0,9,30,2.0,64.0
3693,51.0,6,60,3.0,64.0
3694,72.0,0,30,1.0,64.0
3695,84.0,0,30,0.0,64.0
3696,77.0,0,15,10.0,64.0
3697,65.0,15,15,11.0,64.0
3698,60.0,0,30,2.0,64.0
3699,68.0,0,30,1.0,64.0
3700,75.0,0,15,10.0,64.0
3701,63.0,0,15,11.0,64.0
3702,62.0,0,15,11.0,64.0
3703,68.0,36,30,12.0,64.0
3704,74.0,3,15,10.0,64.0
3705,44.0,0,30,14.0,64.0
3706,56.0,0,30,13.0,64.0
3707,63.0,0,15,11.0,64.0
3708,75.0,6,15,10.0,64.0
3709,68.0,0,30,11.0,64.0
3710,51.0,0,60,3.0,64.0
3711,63.0,48,60,3.0,64.0
3712,84.0,0,30,0.0,64.0
3713,48.0,0,90,14.0,64.0
3714,68.0,12,30,1.0,64.0
3715,60.0,12,90,13.0,64.0
3716,56.0,0,30,2.0,64.0
3717,60.0,0,30,2.0,64.0
3718,80.0,0,30,10.0,64.0
3719,72.0,0,30,1.0,64.0
3720,72.0,0,90,12.0,64.0
3721,56.0,0,30,2.0,64.0
3722,60.0,0,30,2.0,64.0
3723,51.0,48,60,3.0,64.0
3724,63.0,0,60,3.0,64.0
3725,72.0,0,30,1.0,64.0
3726,72.0,0,30,11.0,64.0
3727,84.0,0,30,0.0,64.0
3728,84.0,0,30,10.0,64.0
3729,68.0,0,30,1.0,64.0
3730,84.0,0,30,0.0,64.0
3731,68.0,18,60,3.0,64.0
3732,56.0,0,30,2.0,64.0
3733,73.0,12,30,1.0,64.0
3734,84.0,24,60,10.0,64.0
3735,60.0,0,30,2.0,64.0
3736,72.0,0,30,1.0,64.0
3737,65.0,0,90,12.0,64.0
3738,53.0,0,90,13.0,64.0
3739,72.0,0,60,11.0,64.0
3740,41.0,6,90,14.0,64.0
3741,73.0,0,30,1.0,64.0
3742,68.0,12,60,3.0,64.0
3743,84.0,0,30,0.0,64.0
3744,60.0,0,30,2.0,64.0
3745,72.0,0,30,1.0,64.0
3746,56.0,12,30,2.0,64.0
3747,64.0,0,30,12.0,64.0
3748,40.0,36,30,14.0,64.0
3749,52.0,0,30,13.0,64.0
3750,67.0,0,90,12.0,64.0
3751,43.0,6,90,14.0,64.0
3752,56.0,0,30,2.0,64.0
3753,73.0,0,60,10.0,64.0
3754,72.0,0,30,1.0,64.0
3755,60.0,12,30,2.0,64.0
3756,73.0,0,30,1.0,64.0
3757,61.0,24,60,11.0,64.0
3758,84.0,0,30,0.0,64.0
3759,55.0,0,90,13.0,64.0
3760,68.0,18,60,3.0,64.0
3761,72.0,0,30,1.0,64.0
3762,56.0,0,30,2.0,64.0
3763,60.0,12,30,2.0,64.0
3764,68.0,12,60,3.0,64.0
3765,84.0,0,30,0.0,64.0
3766,73.0,0,30,1.0,64.0
3767,65.0,0,30,12.0,64.0
3768,53.0,36,30,13.0,64.0
3769,41.0,0,30,14.0,64.0
3770,67.0,27,60,3.0,64.0
3771,82.0,12,30,0.0,64.0
3772,70.0,0,30,1.0,64.0
3773,44.0,0,90,14.0,64.0
3774,56.0,0,90,13.0,64.0
3775,68.0,0,90,12.0,64.0
3776,73.0,0,30,1.0,64.0
3777,55.0,0,30,2.0,64.0
3778,58.0,0,30,2.0,64.0
3779,75.0,0,15,10.0,64.0
3780,58.0,0,30,2.0,64.0
3781,73.0,0,30,1.0,64.0
3782,82.0,0,30,0.0,64.0
3783,55.0,0,30,2.0,64.0
3784,63.0,15,15,11.0,64.0
3785,67.0,6,60,3.0,64.0
3786,70.0,9,30,1.0,64.0
3787,73.0,6,15,10.0,64.0
3788,61.0,0,15,11.0,64.0
3789,67.0,0,30,12.0,64.0
3790,43.0,0,30,14.0,64.0
3791,60.0,3,15,11.0,64.0
3792,55.0,36,30,13.0,64.0
3793,72.0,0,15,10.0,64.0
3794,73.0,6,15,10.0,64.0
3795,61.0,0,15,11.0,64.0
3796,55.0,0,30,2.0,64.0
3797,70.0,0,90,12.0,64.0
3798,70.0,12,30,1.0,64.0
3799,82.0,0,30,0.0,64.0
3800,73.0,0,30,1.0,64.0
3801,46.0,0,90,14.0,64.0
3802,58.0,0,90,13.0,64.0
3803,58.0,0,30,2.0,64.0
3804,67.0,0,30,11.0,64.0
3805,79.0,0,30,10.0,64.0
3806,67.0,48,60,3.0,64.0
3807,73.0,0,30,1.0,64.0
3808,70.0,12,30,1.0,64.0
3809,82.0,0,30,0.0,64.0
3810,67.0,48,60,3.0,64.0
3811,55.0,0,30,2.0,64.0
3812,70.0,0,30,11.0,64.0
3813,58.0,0,30,2.0,64.0
3814,82.0,0,30,10.0,64.0
3815,64.0,0,90,12.0,64.0
3816,52.0,6,90,13.0,64.0
3817,70.0,18,60,3.0,64.0
3818,40.0,0,90,14.0,64.0
3819,79.0,0,30,1.0,64.0
3820,55.0,0,30,2.0,64.0
3821,82.0,0,30,0.0,64.0
3822,67.0,0,60,3.0,64.0
3823,70.0,0,60,11.0,64.0
3824,82.0,24,60,10.0,64.0
3825,58.0,12,30,2.0,64.0
3826,72.0,0,30,1.0,64.0
3827,72.0,0,30,1.0,64.0
3828,70.0,0,60,3.0,64.0
3829,58.0,0,30,2.0,64.0
3830,82.0,0,30,0.0,64.0
3831,79.0,0,30,1.0,64.0
3832,67.0,12,60,3.0,64.0
3833,55.0,12,30,2.0,64.0
3834,50.0,0,30,13.0,64.0
3835,62.0,0,30,12.0,64.0
3836,38.0,36,30,14.0,64.0
3837,41.0,0,90,14.0,64.0
3838,55.0,0,30,2.0,64.0
3839,58.0,0,30,2.0,64.0
3840,53.0,0,90,13.0,64.0
3841,65.0,6,90,12.0,64.0
3842,70.0,0,60,3.0,64.0
3843,82.0,0,30,0.0,64.0
3844,72.0,24,60,10.0,64.0
3845,79.0,0,30,1.0,64.0
3846,72.0,12,30,1.0,64.0
3847,67.0,18,60,3.0,64.0
3848,60.0,0,60,11.0,64.0
3849,79.0,0,30,1.0,64.0
3850,82.0,0,30,0.0,64.0
3851,67.0,0,60,3.0,64.0
3852,70.0,12,60,3.0,64.0
3853,55.0,0,30,2.0,64.0
3854,72.0,12,30,1.0,64.0
3855,58.0,0,30,2.0,64.0
3856,64.0,0,30,12.0,64.0
3857,52.0,36,30,13.0,64.0
3858,40.0,0,30,14.0,64.0
3859,53.0,12,30,2.0,64.0
3860,43.0,0,90,14.0,64.0
3861,67.0,6,90,12.0,64.0
3862,65.0,27,60,3.0,64.0
3863,72.0,0,30,1.0,64.0
3864,80.0,0,30,0.0,64.0
3865,56.0,0,30,2.0,64.0
3866,77.0,0,30,1.0,64.0
3867,55.0,0,90,13.0,64.0
3868,68.0,0,60,3.0,64.0
3869,68.0,6,60,3.0,64.0
3870,65.0,0,60,3.0,64.0
3871,74.0,0,15,10.0,64.0
3872,77.0,0,30,1.0,64.0
3873,56.0,9,30,2.0,64.0
3874,53.0,0,30,2.0,64.0
3875,62.0,15,15,11.0,64.0
3876,80.0,0,30,0.0,64.0
3877,72.0,0,30,1.0,64.0
3878,72.0,0,15,10.0,64.0
3879,60.0,0,15,11.0,64.0
3880,41.0,0,30,14.0,64.0
3881,59.0,3,15,11.0,64.0
3882,71.0,0,15,10.0,64.0
3883,53.0,36,30,13.0,64.0
3884,65.0,0,30,12.0,64.0
3885,72.0,0,15,10.0,64.0
3886,60.0,6,15,11.0,64.0
3887,65.0,0,30,11.0,64.0
3888,56.0,0,90,13.0,64.0
3889,53.0,0,30,2.0,64.0
3890,80.0,0,30,0.0,64.0
3891,44.0,0,90,14.0,64.0
3892,68.0,0,90,12.0,64.0
3893,77.0,0,30,1.0,64.0
3894,72.0,0,30,1.0,64.0
3895,68.0,0,60,3.0,64.0
3896,65.0,48,60,3.0,64.0
3897,77.0,12,30,10.0,64.0
3898,56.0,0,30,2.0,64.0
3899,68.0,0,30,11.0,64.0
3900,53.0,12,30,2.0,64.0
3901,65.0,102,60,3.0,64.0
3902,72.0,0,30,1.0,64.0
3903,68.0,0,60,3.0,64.0
3904,56.0,0,30,2.0,64.0
3905,80.0,0,30,10.0,64.0
3906,77.0,0,30,1.0,64.0
3907,80.0,0,30,0.0,64.0
3908,37.0,0,90,14.0,64.0
3909,70.0,6,90,10.0,64.0
3910,61.0,24,90,12.0,64.0
3911,49.0,0,90,13.0,64.0
3912,65.0,0,90,11.0,64.0
3913,69.0,90,30,10.0,64.0
3914,72.0,30,90,10.0,64.0
3915,70.0,90,30,10.0,64.0
3916,73.0,30,90,10.0,64.0
3917,72.0,210,30,10.0,64.0
3918,76.0,6,210,10.0,64.0
3919,70.0,0,90,11.0,64.0
3920,49.0,24,90,13.0,64.0
3921,65.0,0,90,12.0,64.0
3922,37.0,0,90,14.0,64.0
3923,79.0,90,30,10.0,64.0
3924,77.0,30,90,10.0,64.0
3925,81.0,90,30,10.0,64.0
3926,84.0,30,90,10.0,64.0
3927,82.0,192,30,10.0,64.0
3928,85.0,24,180,10.0,64.0
3929,39.0,0,90,14.0,64.0
3930,67.0,0,90,12.0,64.0
3931,70.0,24,90,11.0,64.0
3932,51.0,0,90,13.0,64.0
3933,79.0,192,30,10.0,64.0
3934,85.0,24,180,10.0,64.0
3935,70.0,0,90,11.0,64.0
3936,39.0,0,90,14.0,64.0
3937,67.0,24,90,12.0,64.0
3938,51.0,0,90,13.0,64.0
3939,79.0,192,30,10.0,64.0
3940,85.0,24,180,10.0,64.0
3941,68.0,0,90,12.0,64.0
3942,62.0,0,90,11.0,64.0
3943,53.0,0,90,13.0,64.0
3944,41.0,24,90,14.0,64.0
3945,74.0,192,30,10.0,64.0
3946,83.0,24,180,10.0,64.0
3947,41.0,0,90,14.0,64.0
3948,62.0,0,90,11.0,64.0
3949,68.0,24,90,12.0,64.0
3950,53.0,0,90,13.0,64.0
3951,74.0,210,30,10.0,64.0
3952,83.0,6,210,10.0,64.0
3953,63.0,0,90,11.0,64.0
3954,39.0,0,90,14.0,64.0
3955,51.0,24,90,13.0,64.0
3956,68.0,0,90,12.0,64.0
3957,75.0,90,30,10.0,64.0
3958,80.0,30,90,10.0,64.0
3959,71.0,90,30,10.0,64.0
3960,75.0,30,90,10.0,64.0
3961,68.0,90,30,10.0,64.0
3962,71.0,30,90,10.0,64.0
3963,62.0,96,30,10.0,64.0
3964,51.0,36,2310,3.0,64.0
3965,63.0,0,90,11.0,64.0
3966,63.0,114,90,10.0,64.0
3967,63.0,0,2310,3.0,64.0
3968,51.0,0,90,13.0,64.0
3969,51.0,0,90,12.0,64.0
3970,39.0,0,90,14.0,64.0
3971,61.0,120,90,2.0,64.0
3972,39.0,0,90,14.0,64.0
3973,55.0,0,90,11.0,64.0
3974,61.0,6,90,2.0,64.0
3975,51.0,0,90,12.0,64.0
3976,39.0,114,90,13.0,64.0
3977,58.0,0,90,10.0,64.0
3978,61.0,90,90,2.0,64.0
3979,44.0,0,1890,13.0,64.0
3980,56.0,30,60,10.0,64.0
3981,68.0,30,90,1.0,64.0
3982,61.0,0,60,2.0,64.0
3983,51.0,0,1890,12.0,64.0
3984,56.0,60,480,11.0,64.0
3985,32.0,0,1890,14.0,64.0
3986,60.0,0,60,2.0,64.0
3987,63.0,60,60,10.0,64.0
3988,61.0,30,60,2.0,64.0
3989,56.0,0,60,10.0,64.0
3990,68.0,30,90,1.0,64.0
3991,63.0,60,60,2.0,64.0
3992,63.0,0,60,10.0,64.0
3993,56.0,0,60,10.0,64.0
3994,68.0,30,90,1.0,64.0
3995,61.0,30,60,2.0,64.0
3996,60.0,0,60,2.0,64.0
3997,63.0,60,60,10.0,64.0
3998,56.0,0,60,10.0,64.0
3999,58.0,30,60,2.0,64.0
4000,68.0,18,90,1.0,64.0
4001,56.0,12,60,2.0,64.0
4002,63.0,0,60,10.0,64.0
4003,61.0,30,90,2.0,64.0
4004,73.0,0,90,1.0,64.0
4005,68.0,0,60,1.0,64.0
4006,58.0,12,450,11.0,64.0
4007,55.0,30,60,10.0,64.0
4008,63.0,60,60,10.0,64.0
4009,67.0,0,60,1.0,64.0
4010,73.0,30,90,1.0,64.0
4011,55.0,0,60,10.0,64.0
4012,68.0,30,60,1.0,64.0
4013,61.0,0,90,2.0,64.0
4014,63.0,0,60,10.0,64.0
4015,70.0,60,60,1.0,64.0
4016,55.0,0,60,10.0,64.0
4017,68.0,30,60,1.0,64.0
4018,61.0,0,90,2.0,64.0
4019,73.0,30,90,1.0,64.0
4020,67.0,60,60,1.0,64.0
4021,63.0,0,60,10.0,64.0
4022,61.0,6,90,2.0,64.0
4023,55.0,0,60,10.0,64.0
4024,65.0,30,60,1.0,64.0
4025,73.0,0,90,1.0,64.0
4026,63.0,72,60,10.0,64.0
4027,63.0,0,60,1.0,64.0
4028,80.0,0,90,1.0,64.0
4029,61.0,30,60,2.0,64.0
4030,73.0,0,60,1.0,64.0
4031,56.0,0,60,10.0,64.0
4032,56.0,30,90,2.0,64.0
4033,56.0,60,480,11.0,64.0
4034,60.0,60,60,2.0,64.0
4035,72.0,0,60,1.0,64.0
4036,63.0,0,60,10.0,64.0
4037,80.0,0,90,1.0,64.0
4038,56.0,30,90,2.0,64.0
4039,73.0,0,60,1.0,64.0
4040,56.0,0,60,10.0,64.0
4041,61.0,30,60,2.0,64.0
4042,63.0,0,60,10.0,64.0
4043,63.0,60,60,2.0,64.0
4044,75.0,0,60,1.0,64.0
4045,61.0,30,60,2.0,64.0
4046,56.0,0,60,10.0,64.0
4047,56.0,0,90,2.0,64.0
4048,73.0,0,60,1.0,64.0
4049,80.0,30,90,1.0,64.0
4050,63.0,60,60,10.0,64.0
4051,72.0,0,60,1.0,64.0
4052,60.0,0,60,2.0,64.0
4053,58.0,0,60,2.0,64.0
4054,70.0,0,60,1.0,64.0
4055,80.0,18,90,1.0,64.0
4056,56.0,30,60,10.0,64.0
4057,63.0,12,60,10.0,64.0
4058,56.0,0,30,2.0,64.0
4059,68.0,0,60,1.0,64.0
4060,85.0,0,90,0.0,64.0
4061,80.0,30,60,1.0,64.0
4062,56.0,0,60,2.0,64.0
4063,73.0,0,90,1.0,64.0
4064,55.0,0,60,10.0,64.0
4065,58.0,12,450,11.0,64.0
4066,61.0,30,90,2.0,64.0
4067,55.0,60,60,2.0,64.0
4068,79.0,0,60,1.0,64.0
4069,63.0,0,60,10.0,64.0
4070,61.0,0,90,2.0,64.0
4071,80.0,0,60,1.0,64.0
4072,55.0,30,60,10.0,64.0
4073,73.0,0,90,1.0,64.0
4074,85.0,30,90,0.0,64.0
4075,56.0,0,60,2.0,64.0
4076,63.0,60,60,10.0,64.0
4077,58.0,0,60,2.0,64.0
4078,82.0,0,60,1.0,64.0
4079,61.0,0,90,2.0,64.0
4080,56.0,0,60,2.0,64.0
4081,80.0,0,60,1.0,64.0
4082,85.0,30,90,0.0,64.0
4083,73.0,0,90,1.0,64.0
4084,55.0,30,60,10.0,64.0
4085,55.0,0,60,2.0,64.0
4086,63.0,0,60,10.0,64.0
4087,79.0,24,60,1.0,64.0
4088,73.0,6,90,1.0,64.0
4089,77.0,0,60,1.0,64.0
4090,55.0,0,60,10.0,64.0
4091,53.0,30,60,2.0,64.0
4092,61.0,0,90,2.0,64.0
4093,85.0,0,90,0.0,64.0
4094,63.0,60,60,10.0,64.0
4095,75.0,0,60,1.0,64.0
4096,51.0,0,60,2.0,64.0
4097,44.0,60,60,13.0,64.0
4098,72.0,0,180,12.0,64.0
4099,63.0,12,180,12.0,64.0
4100,32.0,0,60,14.0,64.0
4101,51.0,36,180,3.0,64.0
4102,84.0,0,180,10.0,64.0
4103,75.0,0,180,11.0,64.0
4104,63.0,0,180,3.0,64.0
4105,44.0,0,60,14.0,64.0
4106,56.0,60,60,13.0,64.0
4107,44.0,0,60,14.0,64.0
4108,56.0,12,60,13.0,64.0
4109,56.0,0,60,13.0,64.0
4110,68.0,0,60,12.0,64.0
4111,60.0,0,60,12.0,64.0
4112,44.0,0,60,14.0,64.0
4113,72.0,0,60,11.0,64.0
4114,80.0,60,60,10.0,64.0
4115,85.0,0,180,10.0,64.0
4116,37.0,0,60,14.0,64.0
4117,77.0,0,180,11.0,64.0
4118,73.0,0,180,12.0,64.0
4119,65.0,36,180,3.0,64.0
4120,49.0,60,60,13.0,64.0
4121,65.0,12,180,12.0,64.0
4122,61.0,0,60,13.0,64.0
4123,49.0,60,60,14.0,64.0
4124,61.0,0,60,13.0,64.0
4125,49.0,12,60,14.0,64.0
4126,61.0,0,60,12.0,64.0
4127,49.0,0,60,14.0,64.0
4128,61.0,0,60,13.0,64.0
4129,73.0,60,60,11.0,64.0
4130,70.0,0,60,12.0,64.0
4131,82.0,0,60,10.0,64.0
4132,73.0,36,60,11.0,64.0
4133,82.0,0,60,10.0,64.0
4134,63.0,12,90,3.0,64.0
4135,51.0,12,60,13.0,64.0
4136,39.0,0,60,14.0,64.0
4137,61.0,0,60,12.0,64.0
4138,70.0,0,60,12.0,64.0
4139,51.0,0,60,14.0,64.0
4140,80.0,0,60,10.0,64.0
4141,63.0,0,60,13.0,64.0
4142,68.0,0,60,12.0,64.0
4143,60.0,60,60,12.0,64.0
4144,72.0,0,60,11.0,64.0
4145,63.0,0,60,13.0,64.0
4146,51.0,48,60,14.0,64.0
4147,68.0,0,150,12.0,64.0
4148,60.0,0,150,12.0,64.0
4149,72.0,0,150,11.0,64.0
4150,63.0,0,90,3.0,64.0
4151,51.0,12,90,3.0,64.0
4152,80.0,24,150,10.0,64.0
4153,51.0,36,60,14.0,64.0
4154,63.0,0,60,13.0,64.0
4155,51.0,0,60,14.0,64.0
4156,51.0,0,90,3.0,64.0
4157,63.0,12,90,3.0,64.0
4158,63.0,42,60,13.0,64.0
4159,63.0,12,60,13.0,64.0
4160,79.0,0,30,10.0,64.0
4161,70.0,0,30,11.0,64.0
4162,67.0,0,30,12.0,64.0
4163,58.0,6,30,12.0,64.0
4164,51.0,0,60,14.0,64.0
4165,68.0,39,30,12.0,64.0
4166,60.0,0,30,12.0,64.0
4167,72.0,0,30,11.0,64.0
4168,80.0,0,30,10.0,64.0
4169,82.0,9,30,10.0,64.0
4170,73.0,0,30,11.0,64.0
4171,63.0,3,90,3.0,64.0
4172,51.0,48,60,13.0,64.0
4173,39.0,0,60,14.0,64.0
4174,51.0,0,90,3.0,64.0
4175,70.0,0,30,12.0,64.0
4176,61.0,0,30,12.0,64.0
4177,51.0,102,60,13.0,64.0
4178,39.0,0,60,14.0,64.0
4179,79.0,9,30,10.0,64.0
4180,67.0,0,30,12.0,64.0
4181,70.0,0,30,11.0,64.0
4182,58.0,0,30,12.0,64.0
4183,44.0,0,2310,13.0,64.0
4184,56.0,6,90,2.0,64.0
4185,51.0,0,2010,3.0,64.0
4186,72.0,114,90,11.0,64.0
4187,32.0,36,2310,14.0,64.0
4188,60.0,0,90,12.0,64.0
4189,68.0,0,90,12.0,64.0
4190,80.0,0,90,10.0,64.0
4191,39.0,24,2010,3.0,64.0
4192,56.0,120,90,2.0,64.0
4193,56.0,120,90,2.0,64.0
4194,56.0,90,90,2.0,64.0
4195,56.0,30,60,2.0,64.0
4196,61.0,30,90,2.0,64.0
4197,55.0,60,60,2.0,64.0
4198,61.0,30,90,2.0,64.0
4199,56.0,30,60,2.0,64.0
4200,58.0,60,60,2.0,64.0
4201,61.0,30,90,2.0,64.0
4202,56.0,30,60,2.0,64.0
4203,55.0,60,60,2.0,64.0
4204,53.0,30,60,2.0,64.0
4205,61.0,18,90,2.0,64.0
4206,51.0,72,60,2.0,64.0
4207,51.0,30,180,2.0,64.0
4208,61.0,30,60,2.0,64.0
4209,68.0,30,90,1.0,64.0
4210,60.0,60,60,2.0,64.0
4211,68.0,0,90,1.0,64.0
4212,61.0,0,60,2.0,64.0
4213,53.0,30,30,2.0,64.0
4214,63.0,0,60,2.0,64.0
4215,55.0,60,30,2.0,64.0
4216,68.0,6,90,1.0,64.0
4217,56.0,24,90,2.0,64.0
4218,61.0,30,60,2.0,64.0
4219,60.0,60,60,2.0,64.0
4220,68.0,18,90,1.0,64.0
4221,58.0,30,60,2.0,64.0
4222,56.0,72,60,2.0,64.0
4223,58.0,30,180,2.0,64.0
4224,73.0,30,90,1.0,64.0
4225,68.0,30,60,1.0,64.0
4226,67.0,60,60,1.0,64.0
4227,73.0,0,90,1.0,64.0
4228,68.0,0,60,1.0,64.0
4229,70.0,0,60,1.0,64.0
4230,60.0,30,30,2.0,64.0
4231,61.0,60,30,2.0,64.0
4232,63.0,24,90,2.0,64.0
4233,73.0,6,90,1.0,64.0
4234,68.0,30,60,1.0,64.0
4235,67.0,60,60,1.0,64.0
4236,73.0,18,90,1.0,64.0
4237,65.0,30,60,1.0,64.0
4238,63.0,72,60,1.0,64.0
4239,63.0,0,180,1.0,64.0
4240,78.0,6,90,0.0,64.0
4241,73.0,30,60,1.0,64.0
4242,72.0,60,60,1.0,64.0
4243,78.0,30,90,0.0,64.0
4244,73.0,30,60,1.0,64.0
4245,65.0,0,30,1.0,64.0
4246,75.0,0,60,1.0,64.0
4247,66.0,60,30,1.0,64.0
4248,78.0,6,90,0.0,64.0
4249,73.0,30,60,1.0,64.0
4250,68.0,24,90,1.0,64.0
4251,72.0,24,60,1.0,64.0
4252,70.0,30,60,1.0,64.0
4253,78.0,18,90,0.0,64.0
4254,68.0,72,60,1.0,64.0
4255,29.0,0,90,14.0,64.0
4256,63.0,0,60,11.0,64.0
4257,53.0,0,90,12.0,64.0
4258,75.0,30,60,10.0,64.0
4259,77.0,6,90,0.0,64.0
4260,69.0,0,90,1.0,64.0
4261,41.0,24,90,13.0,64.0
4262,62.0,60,60,11.0,64.0
4263,74.0,0,60,10.0,64.0
4264,63.0,30,60,11.0,64.0
4265,75.0,0,60,10.0,64.0
4266,69.0,24,90,1.0,64.0
4267,77.0,0,90,1.0,64.0
4268,84.0,6,90,0.0,64.0
4269,77.0,60,60,10.0,64.0
4270,65.0,0,60,11.0,64.0
4271,46.0,0,90,13.0,64.0
4272,63.0,36,60,11.0,64.0
4273,34.0,0,90,14.0,64.0
4274,58.0,24,90,12.0,64.0
4275,75.0,0,60,10.0,64.0
4276,73.0,60,60,10.0,64.0
4277,61.0,0,60,11.0,64.0
4278,77.0,0,90,1.0,64.0
4279,85.0,0,90,0.0,64.0
4280,70.0,12,90,1.0,64.0
4281,72.0,36,60,10.0,64.0
4282,60.0,0,60,11.0,64.0
4283,58.0,72,60,11.0,64.0
4284,70.0,0,60,10.0,64.0
4285,39.0,24,90,13.0,64.0
4286,39.0,0,90,14.0,64.0
4287,73.0,0,60,10.0,64.0
4288,51.0,0,90,12.0,64.0
4289,61.0,36,60,11.0,64.0
4290,60.0,60,60,11.0,64.0
4291,72.0,0,60,10.0,64.0
4292,75.0,0,90,1.0,64.0
4293,67.0,0,90,1.0,64.0
4294,61.0,36,60,11.0,64.0
4295,73.0,0,60,10.0,64.0
4296,82.0,24,90,0.0,64.0
4297,75.0,60,60,10.0,64.0
4298,63.0,0,60,11.0,64.0
4299,44.0,0,90,13.0,64.0
4300,73.0,36,60,10.0,64.0
4301,32.0,0,90,14.0,64.0
4302,56.0,24,90,12.0,64.0
4303,61.0,0,60,11.0,64.0
4304,72.0,60,60,10.0,64.0
4305,60.0,0,60,11.0,64.0
4306,75.0,12,90,1.0,64.0
4307,70.0,36,60,10.0,64.0
4308,84.0,0,90,0.0,64.0
4309,58.0,0,60,11.0,64.0
4310,68.0,0,90,1.0,64.0
4311,56.0,72,60,11.0,64.0
4312,68.0,0,60,10.0,64.0
4313,46.0,0,480,13.0,64.0
4314,77.0,0,60,1.0,64.0
4315,58.0,0,660,12.0,64.0
4316,80.0,60,60,1.0,64.0
4317,34.0,90,480,14.0,64.0
4318,75.0,60,60,1.0,64.0
4319,79.0,0,60,1.0,64.0
4320,77.0,0,120,0.0,64.0
4321,77.0,0,60,1.0,64.0
4322,74.0,60,60,1.0,64.0
4323,75.0,0,60,1.0,64.0
4324,72.0,60,60,1.0,64.0
4325,74.0,0,60,1.0,64.0
4326,80.0,0,120,0.0,64.0
4327,70.0,60,60,1.0,64.0
4328,68.0,60,60,1.0,64.0
4329,72.0,0,60,1.0,64.0
4330,70.0,36,60,1.0,64.0
4331,74.0,12,90,0.0,64.0
4332,67.0,0,60,1.0,64.0
4333,65.0,12,60,1.0,64.0
4334,68.0,0,60,1.0,64.0
4335,67.0,0,90,1.0,64.0
4336,63.0,24,90,1.0,64.0
4337,51.0,0,180,13.0,64.0
4338,39.0,18,180,14.0,64.0
4339,75.0,0,90,0.0,64.0
4340,51.0,6,90,2.0,64.0
4341,50.0,72,30,2.0,64.0
4342,53.0,30,90,2.0,64.0
4343,51.0,90,30,2.0,64.0
4344,56.0,30,90,2.0,64.0
4345,55.0,90,30,2.0,64.0
4346,68.0,6,90,10.0,64.0
4347,58.0,18,90,13.0,64.0
4348,65.0,0,90,11.0,64.0
4349,46.0,0,90,14.0,64.0
4350,58.0,0,90,2.0,64.0
4351,58.0,0,90,12.0,64.0
4352,62.0,96,20,11.0,64.0
4353,56.0,0,20,12.0,64.0
4354,65.0,0,20,10.0,64.0
4355,63.0,24,90,10.0,64.0
4356,75.0,6,90,0.0,64.0
4357,51.0,18,180,13.0,64.0
4358,63.0,0,90,11.0,64.0
4359,55.0,0,180,12.0,64.0
4360,39.0,0,180,14.0,64.0
4361,74.0,72,30,0.0,64.0
4362,77.0,30,90,0.0,64.0
4363,75.0,90,30,0.0,64.0
4364,80.0,30,90,0.0,64.0
4365,79.0,90,30,0.0,64.0
4366,46.0,0,90,13.0,64.0
4367,70.0,6,90,12.0,64.0
4368,80.0,0,90,10.0,64.0
4369,82.0,0,90,0.0,64.0
4370,77.0,0,90,11.0,64.0
4371,34.0,18,90,14.0,64.0
4372,68.0,0,20,12.0,64.0
4373,77.0,66,20,10.0,64.0
4374,74.0,0,20,11.0,64.0
4375,67.0,24,90,12.0,64.0
4376,63.0,0,870,3.0,64.0
4377,39.0,0,90,13.0,64.0
4378,75.0,0,90,11.0,64.0
4379,75.0,0,90,10.0,64.0
4380,79.0,36,60,1.0,64.0
4381,51.0,36,870,3.0,64.0
4382,75.0,0,60,1.0,64.0
4383,39.0,0,90,14.0,64.0
4384,78.0,60,60,1.0,64.0
4385,74.0,0,60,1.0,64.0
4386,79.0,60,60,1.0,64.0
4387,75.0,0,60,1.0,64.0
4388,72.0,0,60,1.0,64.0
4389,80.0,60,60,1.0,64.0
4390,77.0,0,60,1.0,64.0
4391,73.0,60,60,1.0,64.0
4392,72.0,0,60,1.0,64.0
4393,76.0,60,60,1.0,64.0
4394,73.0,60,60,1.0,64.0
4395,77.0,0,60,1.0,64.0
4396,79.0,60,60,1.0,64.0
4397,71.0,0,60,1.0,64.0
4398,72.0,0,60,1.0,64.0
4399,75.0,60,60,1.0,64.0
4400,71.0,60,60,1.0,64.0
4401,74.0,0,60,1.0,64.0
4402,75.0,0,60,1.0,64.0
4403,72.0,60,60,1.0,64.0
4404,77.0,0,60,1.0,64.0
4405,69.0,60,60,1.0,64.0
4406,70.0,60,60,1.0,64.0
4407,73.0,0,60,1.0,64.0
4408,72.0,0,60,1.0,64.0
4409,69.0,24,60,1.0,64.0
4410,73.0,0,60,1.0,64.0
4411,70.0,60,60,1.0,64.0
4412,75.0,96,60,1.0,64.0
4413,67.0,0,60,1.0,64.0
4414,63.0,0,240,10.0,64.0
4415,60.0,0,240,11.0,64.0
4416,32.0,0,240,14.0,64.0
4417,68.0,0,90,1.0,64.0
4418,44.0,90,240,13.0,64.0
4419,72.0,144,90,1.0,64.0
4420,56.0,0,570,12.0,64.0
4421,65.0,0,90,10.0,64.0
4422,37.0,0,240,14.0,64.0
4423,49.0,0,240,13.0,64.0
4424,61.0,30,90,11.0,64.0
4425,67.0,0,30,10.0,64.0
4426,63.0,90,30,11.0,64.0
4427,68.0,30,90,10.0,64.0
4428,65.0,0,90,11.0,64.0
4429,65.0,96,30,10.0,64.0
4430,61.0,0,30,11.0,64.0
4431,44.0,0,90,13.0,64.0
4432,60.0,0,90,11.0,64.0
4433,63.0,234,90,10.0,64.0
4434,32.0,0,90,14.0,64.0
4435,68.0,30,90,10.0,64.0
4436,67.0,90,30,10.0,64.0
4437,70.0,30,90,10.0,64.0
4438,68.0,90,30,10.0,64.0
4439,72.0,30,90,10.0,64.0
4440,70.0,90,30,10.0,64.0
4441,73.0,30,90,10.0,64.0
4442,72.0,72,30,10.0,64.0
4443,70.0,0,60,11.0,64.0
4444,75.0,0,60,10.0,64.0
4445,63.0,0,60,13.0,64.0
4446,67.0,120,60,12.0,64.0
4447,68.0,0,60,12.0,64.0
4448,63.0,0,60,13.0,64.0
4449,75.0,228,60,10.0,64.0
4450,72.0,0,60,11.0,64.0
4451,67.0,48,180,12.0,64.0
4452,70.0,0,180,11.0,64.0
4453,75.0,36,300,10.0,64.0
4454,63.0,60,240,13.0,64.0
4455,63.0,12,60,12.0,64.0
4456,67.0,0,60,11.0,64.0
4457,51.0,0,90,13.0,64.0
4458,67.0,24,90,12.0,64.0
4459,70.0,0,90,11.0,64.0
4460,74.0,60,60,10.0,64.0
4461,73.0,60,60,10.0,64.0
4462,70.0,78,60,10.0,64.0
4463,60.0,0,240,2.0,64.0
4464,72.0,0,240,1.0,64.0
4465,32.0,0,240,14.0,64.0
4466,75.0,0,240,0.0,64.0
4467,56.0,0,570,12.0,64.0
4468,56.0,0,90,11.0,64.0
4469,68.0,120,90,10.0,64.0
4470,44.0,78,240,13.0,64.0
4471,63.0,0,240,1.0,64.0
4472,80.0,0,90,10.0,64.0
4473,68.0,42,90,11.0,64.0
4474,77.0,0,90,0.0,64.0
4475,80.0,12,90,10.0,64.0
4476,65.0,0,90,1.0,64.0
4477,37.0,0,240,14.0,64.0
4478,68.0,0,90,11.0,64.0
4479,61.0,30,90,2.0,64.0
4480,49.0,0,240,13.0,64.0
4481,73.0,0,90,1.0,64.0
4482,67.0,0,30,1.0,64.0
4483,79.0,78,30,0.0,64.0
4484,75.0,0,30,1.0,64.0
4485,63.0,0,30,2.0,64.0
4486,80.0,0,90,0.0,64.0
4487,68.0,0,90,1.0,64.0
4488,68.0,0,90,11.0,64.0
4489,65.0,30,90,2.0,64.0
4490,80.0,12,90,10.0,64.0
4491,77.0,0,90,1.0,64.0
4492,77.0,0,30,0.0,64.0
4493,73.0,0,30,1.0,64.0
4494,61.0,96,30,2.0,64.0
4495,65.0,0,30,1.0,64.0
4496,32.0,0,90,14.0,64.0
4497,72.0,0,90,1.0,64.0
4498,63.0,84,90,1.0,64.0
4499,80.0,30,180,10.0,64.0
4500,44.0,0,90,13.0,64.0
4501,75.0,0,90,0.0,64.0
4502,68.0,0,180,11.0,64.0
4503,60.0,0,90,2.0,64.0
4504,67.0,0,30,11.0,64.0
4505,79.0,30,30,10.0,64.0
4506,77.0,0,30,10.0,64.0
4507,65.0,72,30,11.0,64.0
4508,75.0,0,60,10.0,64.0
4509,56.0,0,90,2.0,64.0
4510,68.0,30,90,1.0,64.0
4511,63.0,18,60,11.0,64.0
4512,67.0,0,30,1.0,64.0
4513,55.0,72,30,2.0,64.0
4514,75.0,0,60,10.0,64.0
4515,63.0,18,60,11.0,64.0
4516,70.0,30,90,1.0,64.0
4517,58.0,0,90,2.0,64.0
4518,56.0,0,30,2.0,64.0
4519,68.0,90,30,1.0,64.0
4520,60.0,0,90,2.0,64.0
4521,75.0,15,180,10.0,64.0
4522,63.0,0,180,11.0,64.0
4523,72.0,30,90,1.0,64.0
4524,70.0,0,30,1.0,64.0
4525,58.0,60,30,2.0,64.0
4526,61.0,15,90,2.0,64.0
4527,73.0,0,90,1.0,64.0
4528,61.0,0,15,11.0,64.0
4529,73.0,15,15,10.0,64.0
4530,72.0,0,15,10.0,64.0
4531,60.0,0,15,11.0,64.0
4532,70.0,0,15,10.0,64.0
4533,72.0,0,30,1.0,64.0
4534,58.0,15,15,11.0,64.0
4535,60.0,0,30,2.0,64.0
4536,56.0,72,15,11.0,64.0
4537,68.0,0,15,10.0,64.0
4538,56.0,0,90,12.0,64.0
4539,72.0,24,90,10.0,64.0
4540,63.0,24,60,2.0,64.0
4541,75.0,0,60,1.0,64.0
4542,60.0,72,120,11.0,64.0
4543,75.0,0,60,1.0,64.0
4544,55.0,0,90,12.0,64.0
4545,70.0,6,90,10.0,64.0
4546,63.0,18,60,2.0,64.0
4547,58.0,18,90,11.0,64.0
4548,75.0,96,20,10.0,64.0
4549,68.0,0,480,11.0,64.0
4550,53.0,0,90,13.0,64.0
4551,41.0,30,90,14.0,64.0
4552,65.0,120,480,12.0,64.0
4553,75.0,96,360,10.0,64.0
4554,52.0,90,30,13.0,64.0
4555,40.0,0,30,14.0,64.0
4556,43.0,0,90,14.0,64.0
4557,55.0,30,90,13.0,64.0
4558,41.0,90,30,14.0,64.0
4559,53.0,0,30,13.0,64.0
4560,58.0,0,90,13.0,64.0
4561,46.0,30,90,14.0,64.0
4562,56.0,0,30,13.0,64.0
4563,44.0,0,30,14.0,64.0
4564,47.0,0,90,14.0,64.0
4565,59.0,18,90,13.0,64.0
4566,74.0,6,120,10.0,64.0
4567,73.0,0,360,10.0,64.0
4568,67.0,0,120,11.0,64.0
4569,58.0,120,120,13.0,64.0
4570,46.0,0,120,14.0,64.0
4571,64.0,0,240,12.0,64.0
4572,56.0,120,120,13.0,64.0
4573,44.0,0,120,14.0,64.0
4574,68.0,0,120,11.0,64.0
4575,43.0,0,120,14.0,64.0
4576,55.0,72,120,13.0,64.0
4577,70.0,0,120,11.0,64.0
4578,63.0,24,180,12.0,64.0
4579,56.0,84,90,13.0,64.0
4580,68.0,0,90,11.0,64.0
4581,44.0,0,90,14.0,64.0
4582,72.0,60,180,10.0,64.0
4583,65.0,96,240,11.0,64.0
4584,49.0,0,240,13.0,64.0
4585,61.0,0,240,12.0,64.0
4586,37.0,0,240,14.0,64.0
4587,70.0,60,60,10.0,64.0
4588,73.0,60,60,10.0,64.0
4589,77.0,0,60,10.0,64.0
4590,60.0,72,120,12.0,64.0
4591,68.0,24,90,10.0,64.0
4592,63.0,0,180,11.0,64.0
4593,51.0,0,180,13.0,64.0
4594,39.0,18,180,14.0,64.0
4595,67.0,6,90,10.0,64.0
4596,87.0,0,90,0.0,64.0
4597,58.0,18,90,12.0,64.0
4598,75.0,0,90,1.0,64.0
4599,63.0,0,90,2.0,64.0
4600,75.0,96,20,10.0,64.0
4601,53.0,30,90,13.0,64.0
4602,41.0,0,90,14.0,64.0
4603,68.0,0,450,11.0,64.0
4604,65.0,18,450,12.0,64.0
4605,75.0,90,360,10.0,64.0
4606,63.0,0,360,2.0,64.0
4607,75.0,0,360,1.0,64.0
4608,87.0,0,360,0.0,64.0
4609,52.0,90,30,13.0,64.0
4610,40.0,0,30,14.0,64.0
4611,43.0,0,90,14.0,64.0
4612,55.0,30,90,13.0,64.0
4613,53.0,0,30,13.0,64.0
4614,41.0,90,30,14.0,64.0
4615,44.0,0,90,14.0,64.0
4616,56.0,30,90,13.0,64.0
4617,43.0,0,30,14.0,64.0
4618,55.0,0,30,13.0,64.0
4619,86.0,126,120,0.0,64.0
4620,62.0,0,120,2.0,64.0
4621,74.0,0,120,1.0,64.0
4622,58.0,6,90,13.0,64.0
4623,74.0,0,120,10.0,64.0
4624,46.0,0,90,14.0,64.0
4625,44.0,0,20,14.0,64.0
4626,56.0,0,20,13.0,64.0
4627,59.0,60,120,13.0,64.0
4628,47.0,0,120,14.0,64.0
4629,73.0,0,360,1.0,64.0
4630,73.0,114,360,10.0,64.0
4631,64.0,0,240,12.0,64.0
4632,61.0,0,360,2.0,64.0
4633,85.0,0,360,0.0,64.0
4634,67.0,30,180,11.0,64.0
4635,46.0,0,90,14.0,64.0
4636,58.0,30,90,13.0,64.0
4637,68.0,0,60,11.0,64.0
4638,56.0,0,30,13.0,64.0
4639,44.0,96,30,14.0,64.0
4640,55.0,0,120,13.0,64.0
4641,70.0,0,90,11.0,64.0
4642,43.0,0,120,14.0,64.0
4643,63.0,24,90,12.0,64.0
4644,72.0,0,180,1.0,64.0
4645,56.0,0,120,13.0,64.0
4646,84.0,36,180,0.0,64.0
4647,60.0,0,180,2.0,64.0
4648,72.0,0,180,10.0,64.0
4649,44.0,6,120,14.0,64.0
4650,64.0,60,120,11.0,64.0
4651,68.0,0,15,12.0,64.0
4652,37.0,0,90,14.0,64.0
4653,49.0,24,90,13.0,64.0
4654,65.0,0,90,11.0,64.0
4655,70.0,0,60,1.0,64.0
4656,82.0,0,60,0.0,64.0
4657,70.0,60,60,10.0,64.0
4658,58.0,0,60,2.0,64.0
4659,88.0,0,60,0.0,64.0
4660,64.0,0,60,2.0,64.0
4661,76.0,60,60,10.0,64.0
4662,76.0,0,60,1.0,64.0
4663,89.0,0,60,0.0,64.0
4664,65.0,60,60,2.0,64.0
4665,77.0,0,60,1.0,64.0
4666,77.0,0,60,10.0,64.0
4667,75.0,60,60,10.0,64.0
4668,87.0,0,60,0.0,64.0
4669,75.0,0,60,1.0,64.0
4670,63.0,0,60,2.0,64.0
4671,85.0,0,60,0.0,64.0
4672,73.0,0,60,1.0,64.0
4673,61.0,0,60,2.0,64.0
4674,73.0,60,60,10.0,64.0
4675,60.0,0,60,2.0,64.0
4676,72.0,0,60,10.0,64.0
4677,84.0,48,60,0.0,64.0
4678,72.0,0,60,1.0,64.0
4679,70.0,0,60,10.0,64.0
4680,70.0,72,60,1.0,64.0
4681,58.0,0,60,2.0,64.0
4682,82.0,0,60,0.0,64.0
4683,63.0,0,570,3.0,64.0
4684,80.0,0,360,0.0,64.0
4685,51.0,0,570,3.0,64.0
4686,51.0,24,90,13.0,64.0
4687,68.0,0,360,1.0,64.0
4688,56.0,60,360,2.0,64.0
4689,63.0,0,360,12.0,64.0
4690,39.0,0,90,14.0,64.0
4691,68.0,0,360,10.0,64.0
4692,60.0,36,60,11.0,64.0
4693,63.0,60,60,11.0,64.0
4694,39.0,24,90,14.0,64.0
4695,60.0,36,60,11.0,64.0
4696,51.0,0,90,13.0,64.0
4697,63.0,60,60,11.0,64.0
4698,51.0,24,90,13.0,64.0
4699,39.0,0,90,14.0,64.0
4700,60.0,36,60,11.0,64.0
4701,63.0,0,60,11.0,64.0
4702,72.0,0,60,10.0,64.0
4703,51.0,12,90,13.0,64.0
4704,67.0,0,120,12.0,64.0
4705,84.0,0,60,0.0,64.0
4706,60.0,36,60,2.0,64.0
4707,61.0,0,60,11.0,64.0
4708,39.0,0,90,14.0,64.0
4709,72.0,0,60,1.0,64.0
4710,70.0,90,60,10.0,64.0
4711,82.0,0,60,0.0,64.0
4712,58.0,12,60,2.0,64.0
4713,70.0,0,60,1.0,64.0
4714,63.0,0,60,11.0,64.0
4715,60.0,0,180,11.0,64.0
4716,68.0,18,180,12.0,64.0
4717,32.0,0,180,14.0,64.0
4718,44.0,0,180,13.0,64.0
4719,80.0,24,90,0.0,64.0
4720,68.0,0,90,1.0,64.0
4721,68.0,0,180,10.0,64.0
4722,56.0,6,90,2.0,64.0
4723,55.0,72,30,2.0,64.0
4724,58.0,30,90,2.0,64.0
4725,56.0,90,30,2.0,64.0
4726,61.0,30,90,2.0,64.0
4727,60.0,72,30,2.0,64.0
4728,39.0,18,60,14.0,64.0
4729,58.0,0,90,11.0,64.0
4730,51.0,0,60,13.0,64.0
4731,51.0,0,90,12.0,64.0
4732,61.0,6,90,10.0,64.0
4733,63.0,18,90,2.0,64.0
4734,58.0,96,20,10.0,64.0
4735,49.0,0,20,12.0,64.0
4736,55.0,0,20,11.0,64.0
4737,56.0,0,150,13.0,64.0
4738,56.0,0,90,2.0,64.0
4739,44.0,48,150,14.0,64.0
4740,56.0,0,180,10.0,64.0
4741,48.0,18,180,12.0,64.0
4742,56.0,0,180,11.0,64.0
4743,68.0,30,90,1.0,64.0
4744,55.0,24,30,2.0,64.0
4745,67.0,0,30,1.0,64.0
4746,70.0,30,90,1.0,64.0
4747,58.0,0,90,2.0,64.0
4748,68.0,0,30,1.0,64.0
4749,56.0,90,30,2.0,64.0
4750,61.0,0,90,2.0,64.0
4751,73.0,30,90,1.0,64.0
4752,60.0,0,30,2.0,64.0
4753,72.0,72,30,1.0,64.0
4754,63.0,18,90,2.0,64.0
4755,51.0,18,60,13.0,64.0
4756,75.0,0,90,1.0,64.0
4757,39.0,0,60,14.0,64.0
4758,70.0,0,90,11.0,64.0
4759,73.0,0,90,10.0,64.0
4760,63.0,6,90,12.0,64.0
4761,70.0,0,20,10.0,64.0
4762,67.0,96,20,11.0,64.0
4763,61.0,0,20,12.0,64.0
4764,68.0,18,180,11.0,64.0
4765,44.0,0,150,14.0,64.0
4766,60.0,0,180,12.0,64.0
4767,68.0,0,90,1.0,64.0
4768,68.0,0,180,10.0,64.0
4769,56.0,30,90,2.0,64.0
4770,80.0,0,90,0.0,64.0
4771,56.0,48,150,13.0,64.0
4772,79.0,0,30,0.0,64.0
4773,67.0,24,30,1.0,64.0
4774,55.0,0,30,2.0,64.0
4775,70.0,0,90,1.0,64.0
4776,82.0,0,90,0.0,64.0
4777,58.0,30,90,2.0,64.0
4778,80.0,90,30,0.0,64.0
4779,56.0,0,30,2.0,64.0
4780,68.0,0,30,1.0,64.0
4781,61.0,30,90,2.0,64.0
4782,85.0,0,90,0.0,64.0
4783,73.0,0,90,1.0,64.0
4784,84.0,60,30,0.0,64.0
4785,72.0,0,30,1.0,64.0
4786,60.0,0,30,2.0,64.0
4787,63.0,6,60,2.0,64.0
4788,70.0,0,60,11.0,64.0
4789,79.0,0,60,11.0,64.0
4790,51.0,0,60,13.0,64.0
4791,63.0,0,60,12.0,64.0
4792,75.0,0,60,1.0,64.0
4793,87.0,0,60,0.0,64.0
4794,63.0,0,60,11.0,64.0
4795,79.0,0,60,10.0,64.0
4796,70.0,0,60,10.0,64.0
4797,39.0,0,60,14.0,64.0
4798,51.0,0,60,3.0,64.0
4799,63.0,0,60,10.0,64.0
4800,63.0,126,60,3.0,64.0
4801,68.0,0,90,1.0,64.0
4802,32.0,0,60,14.0,64.0
4803,56.0,0,90,12.0,64.0
4804,51.0,0,90,3.0,64.0
4805,63.0,0,90,10.0,64.0
4806,56.0,0,90,2.0,64.0
4807,72.0,0,90,10.0,64.0
4808,80.0,0,90,10.0,64.0
4809,80.0,1248,90,0.0,64.0
4810,63.0,0,90,3.0,64.0
4811,44.0,24,60,13.0,64.0
4812,63.0,0,90,11.0,64.0
4813,72.0,0,90,11.0,64.0
4814,80.0,0,90,11.0,64.0
4815,32.0,0,390,14.0,64.0
