,note,step,duration,channel,velocity
0,76.0,90,90,10.0,64.0
1,73.0,12,570,1.0,64.0
2,61.0,0,60,11.0,64.0
3,64.0,0,60,11.0,64.0
4,61.0,0,570,4.0,64.0
5,45.0,30,90,14.0,64.0
6,57.0,0,90,13.0,64.0
7,81.0,0,300,10.0,64.0
8,69.0,0,570,4.0,64.0
9,57.0,30,60,12.0,64.0
10,76.0,0,570,1.0,64.0
11,57.0,60,60,12.0,64.0
12,61.0,0,60,11.0,64.0
13,64.0,0,60,11.0,64.0
14,57.0,0,90,13.0,64.0
15,64.0,0,60,11.0,64.0
16,61.0,30,60,11.0,64.0
17,45.0,30,90,14.0,64.0
18,57.0,0,60,12.0,64.0
19,57.0,0,60,12.0,64.0
20,64.0,60,60,11.0,64.0
21,61.0,0,60,11.0,64.0
22,45.0,30,90,14.0,64.0
23,61.0,0,60,11.0,64.0
24,57.0,0,90,13.0,64.0
25,57.0,0,60,12.0,64.0
26,64.0,30,60,11.0,64.0
27,57.0,60,60,12.0,64.0
28,61.0,0,60,11.0,64.0
29,64.0,0,60,11.0,64.0
30,61.0,0,60,11.0,64.0
31,64.0,0,60,11.0,64.0
32,45.0,0,90,14.0,64.0
33,69.0,0,300,10.0,64.0
34,57.0,30,90,13.0,64.0
35,57.0,30,60,12.0,64.0
36,61.0,0,60,11.0,64.0
37,64.0,0,60,11.0,64.0
38,57.0,60,60,12.0,64.0
39,57.0,0,60,12.0,64.0
40,57.0,18,90,13.0,64.0
41,45.0,0,90,14.0,64.0
42,64.0,30,60,11.0,64.0
43,61.0,0,60,11.0,64.0
44,57.0,60,60,12.0,64.0
45,61.0,0,60,11.0,64.0
46,64.0,0,60,11.0,64.0
47,61.0,0,60,11.0,64.0
48,64.0,0,60,11.0,64.0
49,57.0,30,60,12.0,64.0
50,45.0,0,90,14.0,64.0
51,57.0,30,90,13.0,64.0
52,57.0,0,60,12.0,64.0
53,61.0,0,60,11.0,64.0
54,64.0,60,60,11.0,64.0
55,62.0,0,60,11.0,64.0
56,64.0,0,450,4.0,64.0
57,47.0,30,90,14.0,64.0
58,64.0,0,60,11.0,64.0
59,71.0,18,450,4.0,64.0
60,76.0,0,570,1.0,64.0
61,59.0,30,60,12.0,64.0
62,68.0,0,90,10.0,64.0
63,59.0,0,90,13.0,64.0
64,74.0,12,570,1.0,64.0
65,62.0,0,60,11.0,64.0
66,64.0,60,60,11.0,64.0
67,59.0,0,60,12.0,64.0
68,68.0,0,60,10.0,64.0
69,64.0,0,60,11.0,64.0
70,59.0,30,60,12.0,64.0
71,59.0,0,90,13.0,64.0
72,47.0,30,90,14.0,64.0
73,62.0,0,60,11.0,64.0
74,64.0,0,60,11.0,64.0
75,59.0,0,60,12.0,64.0
76,69.0,0,60,10.0,64.0
77,62.0,60,60,11.0,64.0
78,71.0,0,60,10.0,64.0
79,47.0,30,90,14.0,64.0
80,59.0,0,60,12.0,64.0
81,59.0,0,90,13.0,64.0
82,64.0,30,60,11.0,64.0
83,62.0,0,60,11.0,64.0
84,62.0,0,60,11.0,64.0
85,64.0,0,60,11.0,64.0
86,73.0,0,60,10.0,64.0
87,59.0,60,60,12.0,64.0
88,59.0,0,90,13.0,64.0
89,47.0,0,90,14.0,64.0
90,74.0,12,90,10.0,64.0
91,62.0,0,60,11.0,64.0
92,64.0,0,60,11.0,64.0
93,59.0,30,60,12.0,64.0
94,59.0,0,60,12.0,64.0
95,64.0,60,60,11.0,64.0
96,62.0,0,60,11.0,64.0
97,62.0,30,60,11.0,64.0
98,64.0,0,90,4.0,64.0
99,71.0,18,90,4.0,64.0
100,59.0,0,60,12.0,64.0
101,64.0,0,60,11.0,64.0
102,59.0,0,90,13.0,64.0
103,47.0,0,90,14.0,64.0
104,64.0,0,60,11.0,64.0
105,62.0,0,60,11.0,64.0
106,59.0,60,60,12.0,64.0
107,74.0,30,90,10.0,64.0
108,59.0,30,60,12.0,64.0
109,59.0,0,90,13.0,64.0
110,47.0,0,90,14.0,64.0
111,62.0,0,60,11.0,64.0
112,64.0,0,60,11.0,64.0
113,71.0,0,90,4.0,64.0
114,64.0,0,90,4.0,64.0
115,59.0,60,60,12.0,64.0
116,64.0,0,60,11.0,64.0
117,62.0,0,60,11.0,64.0
118,76.0,0,570,1.0,64.0
119,64.0,30,60,11.0,64.0
120,59.0,0,60,11.0,64.0
121,64.0,0,570,4.0,64.0
122,71.0,0,570,4.0,64.0
123,56.0,0,60,12.0,64.0
124,44.0,0,90,14.0,64.0
125,74.0,12,570,1.0,64.0
126,56.0,30,90,13.0,64.0
127,86.0,0,300,10.0,64.0
128,59.0,0,60,11.0,64.0
129,64.0,0,60,11.0,64.0
130,56.0,60,60,12.0,64.0
131,64.0,0,60,11.0,64.0
132,56.0,0,60,12.0,64.0
133,59.0,30,60,11.0,64.0
134,56.0,0,90,13.0,64.0
135,44.0,30,90,14.0,64.0
136,64.0,0,60,11.0,64.0
137,56.0,60,60,12.0,64.0
138,59.0,0,60,11.0,64.0
139,56.0,30,60,12.0,64.0
140,64.0,0,60,11.0,64.0
141,56.0,0,90,13.0,64.0
142,44.0,30,90,14.0,64.0
143,59.0,0,60,11.0,64.0
144,56.0,0,60,12.0,64.0
145,59.0,60,60,11.0,64.0
146,64.0,0,60,11.0,64.0
147,56.0,0,60,12.0,64.0
148,44.0,30,90,14.0,64.0
149,71.0,0,60,11.0,64.0
150,74.0,0,300,10.0,64.0
151,64.0,30,60,11.0,64.0
152,56.0,0,90,13.0,64.0
153,64.0,0,60,11.0,64.0
154,71.0,0,60,11.0,64.0
155,56.0,60,60,12.0,64.0
156,56.0,0,90,13.0,64.0
157,56.0,0,60,12.0,64.0
158,44.0,18,90,14.0,64.0
159,64.0,0,60,11.0,64.0
160,71.0,30,60,11.0,64.0
161,64.0,0,60,11.0,64.0
162,71.0,0,60,11.0,64.0
163,56.0,60,60,12.0,64.0
164,56.0,0,90,13.0,64.0
165,44.0,30,90,14.0,64.0
166,56.0,30,60,12.0,64.0
167,71.0,0,60,11.0,64.0
168,64.0,0,60,11.0,64.0
169,56.0,0,60,12.0,64.0
170,64.0,0,60,11.0,64.0
171,71.0,60,60,11.0,64.0
172,64.0,0,60,11.0,64.0
173,69.0,30,60,11.0,64.0
174,57.0,0,90,13.0,64.0
175,69.0,30,300,4.0,64.0
176,73.0,0,90,10.0,64.0
177,57.0,0,60,12.0,64.0
178,73.0,0,300,4.0,64.0
179,76.0,0,300,1.0,64.0
180,73.0,0,300,1.0,64.0
181,45.0,30,90,14.0,64.0
182,64.0,0,60,11.0,64.0
183,69.0,0,60,11.0,64.0
184,57.0,60,60,12.0,64.0
185,57.0,0,60,12.0,64.0
186,73.0,30,60,10.0,64.0
187,64.0,0,60,11.0,64.0
188,69.0,0,60,11.0,64.0
189,57.0,0,90,13.0,64.0
190,45.0,30,90,14.0,64.0
191,69.0,0,60,11.0,64.0
192,64.0,60,60,11.0,64.0
193,74.0,0,60,10.0,64.0
194,57.0,0,60,12.0,64.0
195,64.0,0,60,11.0,64.0
196,57.0,0,90,13.0,64.0
197,57.0,0,60,12.0,64.0
198,76.0,0,60,10.0,64.0
199,69.0,0,60,11.0,64.0
200,45.0,30,90,14.0,64.0
201,78.0,0,60,10.0,64.0
202,57.0,0,60,12.0,64.0
203,64.0,0,60,11.0,64.0
204,69.0,60,60,11.0,64.0
205,61.0,0,60,12.0,64.0
206,57.0,0,90,4.0,64.0
207,69.0,30,60,11.0,64.0
208,37.0,0,90,14.0,64.0
209,69.0,0,90,4.0,64.0
210,49.0,18,90,13.0,64.0
211,76.0,12,90,10.0,64.0
212,69.0,0,60,11.0,64.0
213,61.0,60,60,12.0,64.0
214,69.0,30,60,11.0,64.0
215,37.0,0,90,14.0,64.0
216,69.0,0,90,4.0,64.0
217,57.0,30,90,4.0,64.0
218,49.0,0,90,13.0,64.0
219,61.0,0,60,12.0,64.0
220,61.0,60,60,12.0,64.0
221,69.0,0,60,11.0,64.0
222,69.0,0,90,1.0,64.0
223,49.0,0,90,14.0,64.0
224,61.0,18,90,13.0,64.0
225,69.0,0,60,11.0,64.0
226,81.0,0,90,1.0,64.0
227,69.0,0,90,4.0,64.0
228,57.0,0,90,4.0,64.0
229,61.0,30,60,12.0,64.0
230,81.0,12,90,10.0,64.0
231,69.0,42,60,11.0,64.0
232,61.0,0,60,12.0,64.0
233,52.0,0,30,14.0,64.0
234,69.0,12,90,4.0,64.0
235,64.0,0,30,13.0,64.0
236,80.0,0,30,10.0,64.0
237,57.0,0,90,4.0,64.0
238,69.0,12,60,11.0,64.0
239,80.0,18,30,1.0,64.0
240,64.0,0,30,12.0,64.0
241,62.0,0,30,13.0,64.0
242,78.0,0,30,10.0,64.0
243,50.0,0,30,14.0,64.0
244,62.0,0,30,12.0,64.0
245,78.0,30,30,1.0,64.0
246,64.0,6,30,13.0,64.0
247,52.0,0,30,14.0,64.0
248,80.0,0,30,10.0,64.0
249,64.0,0,30,12.0,64.0
250,69.0,12,60,11.0,64.0
251,80.0,0,30,1.0,64.0
252,78.0,0,30,10.0,64.0
253,78.0,0,30,1.0,64.0
254,62.0,0,30,12.0,64.0
255,62.0,48,30,13.0,64.0
256,50.0,0,30,14.0,64.0
257,57.0,12,90,4.0,64.0
258,69.0,0,90,4.0,64.0
259,61.0,0,90,12.0,64.0
260,76.0,0,90,10.0,64.0
261,61.0,0,90,13.0,64.0
262,69.0,30,60,11.0,64.0
263,76.0,18,90,1.0,64.0
264,49.0,0,90,14.0,64.0
265,69.0,60,60,11.0,64.0
266,61.0,0,60,12.0,64.0
267,76.0,0,60,10.0,64.0
268,49.0,0,60,14.0,64.0
269,61.0,42,60,13.0,64.0
270,69.0,18,60,11.0,64.0
271,69.0,42,60,11.0,64.0
272,69.0,12,60,11.0,64.0
273,68.0,0,30,12.0,64.0
274,76.0,18,30,10.0,64.0
275,57.0,12,90,4.0,64.0
276,69.0,0,90,4.0,64.0
277,68.0,0,30,13.0,64.0
278,56.0,0,30,14.0,64.0
279,76.0,0,30,1.0,64.0
280,66.0,0,30,13.0,64.0
281,74.0,0,30,1.0,64.0
282,54.0,0,30,14.0,64.0
283,66.0,30,30,12.0,64.0
284,74.0,0,30,10.0,64.0
285,56.0,0,30,14.0,64.0
286,76.0,6,30,1.0,64.0
287,76.0,0,30,10.0,64.0
288,68.0,0,30,13.0,64.0
289,68.0,0,30,12.0,64.0
290,69.0,12,60,11.0,64.0
291,66.0,48,30,12.0,64.0
292,74.0,0,30,1.0,64.0
293,54.0,0,30,14.0,64.0
294,66.0,0,30,13.0,64.0
295,74.0,0,30,10.0,64.0
296,52.0,0,90,14.0,64.0
297,73.0,0,90,10.0,64.0
298,73.0,18,90,1.0,64.0
299,64.0,0,90,12.0,64.0
300,57.0,0,90,4.0,64.0
301,69.0,12,90,4.0,64.0
302,69.0,30,60,11.0,64.0
303,64.0,0,90,13.0,64.0
304,69.0,60,60,11.0,64.0
305,52.0,42,60,14.0,64.0
306,73.0,0,60,10.0,64.0
307,64.0,0,60,13.0,64.0
308,69.0,18,60,11.0,64.0
309,64.0,0,60,12.0,64.0
310,69.0,42,60,11.0,64.0
311,57.0,0,90,4.0,64.0
312,64.0,0,30,13.0,64.0
313,69.0,12,60,11.0,64.0
314,52.0,0,30,14.0,64.0
315,64.0,18,30,12.0,64.0
316,80.0,0,30,10.0,64.0
317,69.0,12,90,4.0,64.0
318,80.0,0,30,1.0,64.0
319,62.0,0,30,13.0,64.0
320,50.0,0,30,14.0,64.0
321,78.0,0,30,1.0,64.0
322,78.0,0,30,10.0,64.0
323,62.0,30,30,12.0,64.0
324,64.0,0,30,12.0,64.0
325,69.0,12,60,11.0,64.0
326,80.0,6,30,10.0,64.0
327,52.0,0,30,14.0,64.0
328,80.0,0,30,1.0,64.0
329,64.0,0,30,13.0,64.0
330,62.0,0,30,12.0,64.0
331,62.0,48,30,13.0,64.0
332,50.0,0,30,14.0,64.0
333,78.0,0,30,1.0,64.0
334,78.0,0,30,10.0,64.0
335,61.0,0,90,13.0,64.0
336,76.0,18,90,10.0,64.0
337,61.0,0,90,12.0,64.0
338,69.0,12,90,4.0,64.0
339,76.0,0,90,1.0,64.0
340,49.0,0,90,14.0,64.0
341,69.0,30,60,11.0,64.0
342,57.0,0,90,4.0,64.0
343,69.0,60,60,11.0,64.0
344,69.0,18,60,11.0,64.0
345,49.0,0,60,14.0,64.0
346,61.0,0,60,13.0,64.0
347,61.0,0,60,12.0,64.0
348,76.0,42,60,10.0,64.0
349,69.0,42,60,11.0,64.0
350,69.0,0,90,4.0,64.0
351,56.0,18,30,14.0,64.0
352,68.0,0,30,12.0,64.0
353,68.0,0,30,13.0,64.0
354,69.0,12,60,11.0,64.0
355,57.0,12,90,4.0,64.0
356,76.0,0,30,10.0,64.0
357,76.0,0,30,1.0,64.0
358,54.0,0,30,14.0,64.0
359,66.0,30,30,12.0,64.0
360,74.0,0,30,10.0,64.0
361,74.0,0,30,1.0,64.0
362,66.0,0,30,13.0,64.0
363,69.0,12,60,11.0,64.0
364,76.0,0,30,10.0,64.0
365,76.0,0,30,1.0,64.0
366,56.0,0,30,14.0,64.0
367,68.0,6,30,12.0,64.0
368,68.0,0,30,13.0,64.0
369,66.0,0,30,13.0,64.0
370,74.0,0,30,1.0,64.0
371,74.0,0,30,10.0,64.0
372,54.0,48,30,14.0,64.0
373,66.0,0,30,12.0,64.0
374,57.0,0,90,4.0,64.0
375,69.0,12,90,4.0,64.0
376,73.0,0,90,10.0,64.0
377,73.0,0,90,1.0,64.0
378,69.0,30,60,11.0,64.0
379,52.0,0,90,14.0,64.0
380,64.0,18,90,12.0,64.0
381,64.0,0,90,13.0,64.0
382,69.0,60,60,11.0,64.0
383,69.0,18,60,11.0,64.0
384,52.0,0,60,14.0,64.0
385,64.0,42,60,12.0,64.0
386,64.0,0,60,13.0,64.0
387,73.0,0,60,10.0,64.0
388,69.0,78,60,11.0,64.0
389,74.0,0,60,11.0,64.0
390,50.0,0,60,14.0,64.0
391,62.0,0,60,13.0,64.0
392,74.0,0,60,10.0,64.0
393,62.0,0,60,12.0,64.0
394,74.0,174,60,1.0,64.0
395,74.0,0,120,10.0,64.0
396,62.0,0,120,12.0,64.0
397,62.0,66,120,13.0,64.0
398,50.0,0,120,14.0,64.0
399,74.0,0,120,11.0,64.0
400,74.0,0,120,1.0,64.0
401,49.0,0,60,14.0,64.0
402,73.0,120,60,11.0,64.0
403,73.0,0,60,10.0,64.0
404,61.0,0,60,13.0,64.0
405,73.0,0,60,1.0,64.0
406,61.0,0,60,12.0,64.0
407,47.0,0,60,14.0,64.0
408,59.0,0,60,12.0,64.0
409,71.0,0,60,11.0,64.0
410,71.0,174,60,10.0,64.0
411,59.0,0,60,13.0,64.0
412,71.0,0,60,1.0,64.0
413,59.0,66,120,12.0,64.0
414,71.0,0,120,11.0,64.0
415,71.0,0,120,1.0,64.0
416,71.0,0,120,10.0,64.0
417,47.0,0,120,14.0,64.0
418,59.0,0,120,13.0,64.0
419,45.0,0,60,14.0,64.0
420,69.0,0,60,11.0,64.0
421,69.0,0,60,1.0,64.0
422,57.0,0,60,12.0,64.0
423,57.0,0,60,13.0,64.0
424,69.0,120,60,10.0,64.0
425,68.0,0,60,1.0,64.0
426,71.0,0,60,4.0,64.0
427,56.0,0,60,12.0,64.0
428,64.0,0,60,4.0,64.0
429,68.0,120,60,10.0,64.0
430,68.0,0,60,11.0,64.0
431,44.0,0,60,14.0,64.0
432,56.0,0,60,13.0,64.0
433,59.0,0,60,13.0,64.0
434,71.0,0,60,1.0,64.0
435,59.0,0,60,12.0,64.0
436,64.0,0,60,4.0,64.0
437,71.0,0,60,10.0,64.0
438,71.0,0,60,4.0,64.0
439,47.0,0,60,14.0,64.0
440,71.0,120,60,11.0,64.0
441,68.0,0,60,11.0,64.0
442,68.0,0,60,1.0,64.0
443,56.0,0,60,12.0,64.0
444,68.0,120,60,10.0,64.0
445,71.0,0,60,4.0,64.0
446,64.0,0,60,4.0,64.0
447,44.0,0,60,14.0,64.0
448,56.0,0,60,13.0,64.0
449,76.0,252,60,1.0,64.0
450,71.0,0,60,4.0,64.0
451,64.0,0,60,12.0,64.0
452,52.0,0,60,14.0,64.0
453,64.0,0,60,13.0,64.0
454,76.0,0,60,10.0,64.0
455,76.0,0,60,11.0,64.0
456,64.0,0,60,4.0,64.0
457,64.0,90,90,10.0,64.0
458,61.0,48,60,11.0,64.0
459,52.0,0,60,12.0,64.0
460,69.0,0,300,10.0,64.0
461,45.0,12,90,13.0,64.0
462,33.0,0,90,14.0,64.0
463,61.0,60,60,11.0,64.0
464,52.0,0,60,12.0,64.0
465,52.0,0,60,12.0,64.0
466,33.0,0,90,14.0,64.0
467,61.0,48,60,11.0,64.0
468,45.0,12,90,13.0,64.0
469,52.0,0,60,12.0,64.0
470,61.0,60,60,11.0,64.0
471,61.0,48,60,11.0,64.0
472,33.0,12,90,14.0,64.0
473,45.0,0,90,13.0,64.0
474,52.0,0,60,12.0,64.0
475,52.0,0,60,12.0,64.0
476,61.0,60,60,11.0,64.0
477,33.0,0,90,14.0,64.0
478,61.0,0,60,11.0,64.0
479,45.0,12,90,13.0,64.0
480,52.0,48,60,12.0,64.0
481,57.0,0,300,10.0,64.0
482,52.0,60,60,12.0,64.0
483,61.0,0,60,11.0,64.0
484,52.0,0,60,12.0,64.0
485,33.0,12,90,14.0,64.0
486,45.0,0,90,13.0,64.0
487,61.0,48,60,11.0,64.0
488,52.0,60,60,12.0,64.0
489,61.0,0,60,11.0,64.0
490,45.0,0,90,13.0,64.0
491,52.0,0,60,12.0,64.0
492,61.0,48,60,11.0,64.0
493,33.0,12,90,14.0,64.0
494,61.0,0,60,11.0,64.0
495,52.0,60,60,12.0,64.0
496,52.0,0,60,12.0,64.0
497,35.0,12,90,14.0,64.0
498,56.0,18,90,10.0,64.0
499,47.0,0,90,13.0,64.0
500,62.0,30,60,11.0,64.0
501,52.0,51,60,12.0,64.0
502,62.0,0,60,11.0,64.0
503,62.0,48,60,11.0,64.0
504,56.0,9,30,10.0,64.0
505,47.0,0,90,13.0,64.0
506,52.0,0,60,12.0,64.0
507,35.0,3,90,14.0,64.0
508,52.0,51,60,12.0,64.0
509,62.0,0,60,11.0,64.0
510,57.0,9,30,10.0,64.0
511,62.0,48,60,11.0,64.0
512,59.0,9,30,10.0,64.0
513,52.0,0,60,12.0,64.0
514,35.0,0,90,14.0,64.0
515,47.0,3,90,13.0,64.0
516,52.0,0,60,12.0,64.0
517,62.0,60,60,11.0,64.0
518,61.0,9,30,10.0,64.0
519,35.0,12,90,14.0,64.0
520,56.0,0,60,11.0,64.0
521,47.0,0,90,13.0,64.0
522,62.0,18,90,10.0,64.0
523,52.0,30,60,12.0,64.0
524,56.0,0,60,11.0,64.0
525,52.0,60,60,12.0,64.0
526,47.0,12,90,13.0,64.0
527,35.0,0,90,14.0,64.0
528,56.0,0,60,11.0,64.0
529,52.0,48,60,12.0,64.0
530,52.0,0,60,12.0,64.0
531,56.0,60,60,11.0,64.0
532,35.0,0,90,14.0,64.0
533,52.0,0,60,12.0,64.0
534,56.0,30,60,11.0,64.0
535,47.0,12,90,13.0,64.0
536,62.0,18,90,10.0,64.0
537,56.0,0,60,11.0,64.0
538,52.0,60,60,12.0,64.0
539,52.0,48,60,12.0,64.0
540,59.0,0,60,11.0,64.0
541,44.0,0,90,13.0,64.0
542,32.0,12,90,14.0,64.0
543,74.0,0,300,10.0,64.0
544,59.0,0,60,11.0,64.0
545,52.0,60,60,12.0,64.0
546,44.0,12,90,13.0,64.0
547,52.0,48,60,12.0,64.0
548,32.0,0,90,14.0,64.0
549,59.0,0,60,11.0,64.0
550,52.0,0,60,12.0,64.0
551,59.0,60,60,11.0,64.0
552,52.0,48,60,12.0,64.0
553,32.0,12,90,14.0,64.0
554,44.0,0,90,13.0,64.0
555,59.0,0,60,11.0,64.0
556,52.0,0,60,12.0,64.0
557,59.0,60,60,11.0,64.0
558,52.0,0,60,12.0,64.0
559,59.0,48,60,11.0,64.0
560,44.0,12,90,13.0,64.0
561,62.0,0,300,10.0,64.0
562,32.0,0,90,14.0,64.0
563,52.0,60,60,12.0,64.0
564,59.0,0,60,11.0,64.0
565,32.0,12,90,14.0,64.0
566,52.0,48,60,12.0,64.0
567,59.0,0,60,11.0,64.0
568,44.0,0,90,13.0,64.0
569,52.0,60,60,12.0,64.0
570,59.0,0,60,11.0,64.0
571,44.0,0,90,13.0,64.0
572,52.0,0,60,12.0,64.0
573,59.0,48,60,11.0,64.0
574,32.0,12,90,14.0,64.0
575,59.0,0,60,11.0,64.0
576,52.0,60,60,12.0,64.0
577,45.0,0,90,13.0,64.0
578,61.0,18,90,10.0,64.0
579,57.0,0,90,11.0,64.0
580,33.0,12,90,14.0,64.0
581,52.0,30,60,12.0,64.0
582,52.0,51,60,12.0,64.0
583,61.0,9,30,10.0,64.0
584,33.0,0,90,14.0,64.0
585,45.0,3,90,13.0,64.0
586,52.0,48,60,12.0,64.0
587,57.0,0,30,11.0,64.0
588,62.0,9,30,10.0,64.0
589,59.0,0,30,11.0,64.0
590,52.0,51,60,12.0,64.0
591,33.0,0,90,14.0,64.0
592,64.0,9,30,10.0,64.0
593,61.0,0,30,11.0,64.0
594,45.0,3,90,13.0,64.0
595,52.0,48,60,12.0,64.0
596,66.0,9,30,10.0,64.0
597,62.0,0,30,11.0,64.0
598,52.0,168,60,12.0,64.0
599,64.0,0,150,10.0,64.0
600,45.0,0,180,13.0,64.0
601,61.0,36,150,11.0,64.0
602,57.0,126,180,12.0,64.0
603,33.0,0,180,14.0,64.0
604,81.0,0,90,10.0,64.0
605,76.0,0,90,11.0,64.0
606,73.0,72,90,12.0,64.0
607,71.0,30,30,12.0,64.0
608,80.0,0,30,10.0,64.0
609,74.0,0,30,11.0,64.0
610,78.0,0,30,10.0,64.0
611,73.0,0,30,11.0,64.0
612,69.0,30,30,12.0,64.0
613,71.0,30,30,12.0,64.0
614,80.0,0,30,10.0,64.0
615,74.0,0,30,11.0,64.0
616,73.0,78,30,11.0,64.0
617,78.0,0,30,10.0,64.0
618,69.0,0,30,12.0,64.0
619,68.0,108,90,12.0,64.0
620,76.0,0,90,10.0,64.0
621,71.0,0,90,11.0,64.0
622,76.0,0,60,10.0,64.0
623,71.0,84,60,11.0,64.0
624,68.0,0,60,12.0,64.0
625,68.0,0,30,12.0,64.0
626,71.0,0,30,11.0,64.0
627,76.0,30,30,10.0,64.0
628,69.0,0,30,11.0,64.0
629,66.0,30,30,12.0,64.0
630,74.0,0,30,10.0,64.0
631,76.0,0,30,10.0,64.0
632,71.0,30,30,11.0,64.0
633,68.0,0,30,12.0,64.0
634,74.0,0,30,10.0,64.0
635,66.0,78,30,12.0,64.0
636,69.0,0,30,11.0,64.0
637,68.0,0,90,11.0,64.0
638,64.0,108,90,12.0,64.0
639,73.0,0,90,10.0,64.0
640,64.0,72,90,13.0,64.0
641,68.0,0,60,11.0,64.0
642,52.0,0,90,14.0,64.0
643,73.0,0,60,10.0,64.0
644,64.0,12,60,12.0,64.0
645,52.0,30,30,14.0,64.0
646,73.0,0,30,10.0,64.0
647,64.0,0,30,13.0,64.0
648,68.0,0,30,11.0,64.0
649,64.0,0,30,12.0,64.0
650,66.0,0,30,11.0,64.0
651,50.0,30,30,14.0,64.0
652,62.0,0,30,12.0,64.0
653,71.0,0,30,10.0,64.0
654,62.0,0,30,13.0,64.0
655,64.0,0,30,12.0,64.0
656,73.0,0,30,10.0,64.0
657,68.0,30,30,11.0,64.0
658,64.0,0,30,13.0,64.0
659,52.0,0,30,14.0,64.0
660,62.0,78,30,13.0,64.0
661,71.0,0,30,10.0,64.0
662,62.0,0,30,12.0,64.0
663,66.0,0,30,11.0,64.0
664,50.0,0,30,14.0,64.0
665,69.0,0,90,10.0,64.0
666,49.0,0,90,14.0,64.0
667,64.0,0,90,11.0,64.0
668,61.0,108,90,13.0,64.0
669,61.0,0,90,12.0,64.0
670,49.0,0,60,14.0,64.0
671,61.0,0,60,12.0,64.0
672,64.0,84,60,11.0,64.0
673,69.0,0,60,10.0,64.0
674,61.0,0,60,13.0,64.0
675,69.0,0,30,10.0,64.0
676,61.0,0,30,13.0,64.0
677,61.0,0,30,12.0,64.0
678,49.0,0,30,14.0,64.0
679,64.0,30,30,11.0,64.0
680,59.0,0,30,13.0,64.0
681,59.0,0,30,12.0,64.0
682,62.0,30,30,11.0,64.0
683,47.0,0,30,14.0,64.0
684,68.0,0,30,10.0,64.0
685,64.0,0,30,11.0,64.0
686,61.0,0,30,13.0,64.0
687,69.0,0,30,10.0,64.0
688,49.0,30,30,14.0,64.0
689,61.0,0,30,12.0,64.0
690,47.0,0,30,14.0,64.0
691,59.0,0,30,13.0,64.0
692,68.0,78,30,10.0,64.0
693,62.0,0,30,11.0,64.0
694,59.0,0,30,12.0,64.0
695,61.0,0,90,11.0,64.0
696,45.0,0,90,14.0,64.0
697,57.0,0,90,12.0,64.0
698,66.0,108,90,10.0,64.0
699,57.0,0,90,13.0,64.0
700,57.0,0,60,12.0,64.0
701,45.0,0,60,14.0,64.0
702,57.0,102,60,13.0,64.0
703,61.0,0,60,11.0,64.0
704,66.0,0,60,10.0,64.0
705,64.0,0,300,4.0,64.0
706,71.0,0,300,4.0,64.0
707,64.0,0,300,10.0,64.0
708,62.0,0,60,12.0,64.0
709,56.0,12,90,13.0,64.0
710,44.0,0,90,14.0,64.0
711,59.0,48,60,11.0,64.0
712,64.0,0,300,1.0,64.0
713,59.0,60,60,11.0,64.0
714,62.0,0,60,12.0,64.0
715,62.0,0,60,12.0,64.0
716,59.0,48,60,11.0,64.0
717,44.0,0,90,14.0,64.0
718,56.0,12,90,13.0,64.0
719,59.0,60,60,11.0,64.0
720,62.0,0,60,12.0,64.0
721,56.0,12,90,13.0,64.0
722,44.0,0,90,14.0,64.0
723,62.0,48,60,12.0,64.0
724,59.0,0,60,11.0,64.0
725,59.0,0,60,11.0,64.0
726,62.0,60,60,12.0,64.0
727,56.0,12,90,13.0,64.0
728,44.0,0,90,14.0,64.0
729,74.0,0,300,10.0,64.0
730,64.0,0,60,12.0,64.0
731,74.0,0,300,1.0,64.0
732,71.0,48,60,11.0,64.0
733,64.0,0,60,12.0,64.0
734,71.0,60,60,11.0,64.0
735,71.0,48,60,11.0,64.0
736,56.0,0,90,13.0,64.0
737,64.0,0,90,4.0,64.0
738,64.0,0,60,12.0,64.0
739,44.0,0,90,14.0,64.0
740,71.0,12,90,4.0,64.0
741,71.0,60,60,11.0,64.0
742,64.0,0,60,12.0,64.0
743,71.0,0,60,11.0,64.0
744,56.0,0,90,13.0,64.0
745,64.0,48,60,12.0,64.0
746,44.0,12,90,14.0,64.0
747,64.0,0,90,4.0,64.0
748,71.0,0,90,4.0,64.0
749,71.0,0,60,11.0,64.0
750,64.0,60,60,12.0,64.0
751,57.0,0,90,13.0,64.0
752,45.0,12,90,14.0,64.0
753,73.0,0,300,1.0,64.0
754,73.0,0,300,4.0,64.0
755,69.0,0,300,4.0,64.0
756,73.0,0,300,10.0,64.0
757,64.0,0,60,12.0,64.0
758,69.0,48,60,11.0,64.0
759,69.0,60,60,11.0,64.0
760,64.0,0,60,12.0,64.0
761,64.0,0,60,12.0,64.0
762,69.0,48,60,11.0,64.0
763,45.0,12,90,14.0,64.0
764,57.0,0,90,13.0,64.0
765,69.0,0,60,11.0,64.0
766,64.0,60,60,12.0,64.0
767,64.0,0,60,12.0,64.0
768,57.0,0,90,13.0,64.0
769,45.0,12,90,14.0,64.0
770,69.0,48,60,11.0,64.0
771,69.0,0,60,11.0,64.0
772,64.0,60,60,12.0,64.0
773,81.0,0,300,10.0,64.0
774,81.0,0,300,1.0,64.0
775,69.0,0,60,12.0,64.0
776,57.0,0,90,13.0,64.0
777,73.0,48,60,11.0,64.0
778,76.0,0,60,11.0,64.0
779,45.0,12,90,14.0,64.0
780,69.0,0,60,12.0,64.0
781,76.0,0,60,11.0,64.0
782,73.0,60,60,11.0,64.0
783,57.0,0,90,13.0,64.0
784,69.0,0,60,12.0,64.0
785,69.0,12,90,4.0,64.0
786,61.0,0,90,4.0,64.0
787,45.0,0,90,14.0,64.0
788,73.0,48,60,11.0,64.0
789,76.0,0,60,11.0,64.0
790,69.0,0,60,12.0,64.0
791,73.0,0,60,11.0,64.0
792,76.0,60,60,11.0,64.0
793,73.0,0,60,11.0,64.0
794,61.0,0,90,4.0,64.0
795,57.0,12,90,13.0,64.0
796,45.0,0,90,14.0,64.0
797,69.0,0,90,4.0,64.0
798,69.0,48,60,12.0,64.0
799,76.0,0,60,11.0,64.0
800,73.0,0,60,11.0,64.0
801,76.0,0,60,11.0,64.0
802,69.0,60,60,12.0,64.0
803,57.0,0,180,4.0,64.0
804,38.0,0,300,14.0,64.0
805,78.0,60,300,1.0,64.0
806,69.0,12,90,12.0,64.0
807,78.0,0,60,10.0,64.0
808,78.0,48,60,11.0,64.0
809,50.0,0,300,13.0,64.0
810,69.0,24,180,4.0,64.0
811,76.0,60,60,11.0,64.0
812,76.0,0,60,10.0,64.0
813,66.0,12,90,12.0,64.0
814,74.0,0,60,10.0,64.0
815,74.0,24,60,11.0,64.0
816,73.0,60,60,11.0,64.0
817,73.0,0,60,10.0,64.0
818,71.0,0,60,10.0,64.0
819,71.0,0,60,11.0,64.0
820,69.0,0,60,10.0,64.0
821,69.0,60,60,11.0,64.0
822,68.0,0,60,11.0,64.0
823,59.0,12,90,12.0,64.0
824,40.0,0,300,14.0,64.0
825,68.0,48,60,10.0,64.0
826,52.0,60,300,13.0,64.0
827,68.0,0,300,1.0,64.0
828,64.0,0,300,4.0,64.0
829,66.0,60,60,11.0,64.0
830,66.0,0,60,10.0,64.0
831,56.0,12,90,12.0,64.0
832,64.0,0,60,11.0,64.0
833,64.0,48,60,10.0,64.0
834,62.0,60,60,11.0,64.0
835,62.0,0,60,10.0,64.0
836,61.0,0,60,11.0,64.0
837,61.0,0,60,10.0,64.0
838,59.0,78,60,10.0,64.0
839,59.0,0,60,11.0,64.0
840,57.0,0,60,11.0,64.0
841,57.0,0,60,10.0,64.0
842,33.0,0,60,14.0,64.0
843,45.0,0,60,13.0,64.0
844,69.0,0,60,1.0,64.0
845,57.0,120,60,12.0,64.0
846,57.0,0,60,4.0,64.0
847,64.0,0,60,10.0,64.0
848,64.0,0,60,4.0,64.0
849,76.0,0,60,1.0,64.0
850,64.0,0,60,11.0,64.0
851,64.0,0,60,12.0,64.0
852,52.0,120,60,13.0,64.0
853,40.0,0,60,14.0,64.0
854,37.0,0,60,14.0,64.0
855,61.0,0,60,12.0,64.0
856,61.0,0,60,10.0,64.0
857,61.0,0,60,11.0,64.0
858,73.0,120,60,1.0,64.0
859,49.0,0,60,13.0,64.0
860,61.0,0,60,4.0,64.0
861,69.0,240,60,11.0,64.0
862,45.0,0,60,14.0,64.0
863,69.0,0,60,10.0,64.0
864,69.0,0,60,4.0,64.0
865,69.0,0,60,12.0,64.0
866,81.0,0,60,1.0,64.0
867,57.0,0,60,13.0,64.0
868,69.0,102,60,10.0,64.0
869,44.0,0,90,14.0,64.0
870,62.0,48,60,12.0,64.0
871,59.0,0,60,11.0,64.0
872,64.0,48,300,10.0,64.0
873,56.0,12,90,13.0,64.0
874,59.0,60,60,11.0,64.0
875,62.0,0,60,12.0,64.0
876,56.0,12,90,13.0,64.0
877,59.0,0,60,11.0,64.0
878,44.0,0,90,14.0,64.0
879,62.0,48,60,12.0,64.0
880,62.0,60,60,12.0,64.0
881,59.0,0,60,11.0,64.0
882,44.0,0,90,14.0,64.0
883,59.0,0,60,11.0,64.0
884,62.0,0,60,12.0,64.0
885,56.0,12,90,13.0,64.0
886,62.0,60,60,12.0,64.0
887,59.0,0,60,11.0,64.0
888,44.0,0,90,14.0,64.0
889,74.0,0,300,10.0,64.0
890,64.0,48,60,12.0,64.0
891,71.0,0,60,11.0,64.0
892,56.0,12,90,13.0,64.0
893,71.0,0,60,11.0,64.0
894,64.0,60,60,12.0,64.0
895,64.0,0,60,12.0,64.0
896,44.0,12,90,14.0,64.0
897,56.0,0,90,13.0,64.0
898,71.0,48,60,11.0,64.0
899,64.0,60,60,12.0,64.0
900,71.0,0,60,11.0,64.0
901,71.0,0,60,11.0,64.0
902,44.0,12,90,14.0,64.0
903,64.0,48,60,12.0,64.0
904,56.0,0,90,13.0,64.0
905,71.0,0,60,11.0,64.0
906,64.0,60,60,12.0,64.0
907,45.0,12,90,14.0,64.0
908,64.0,0,60,12.0,64.0
909,57.0,0,90,13.0,64.0
910,69.0,48,60,11.0,64.0
911,73.0,48,300,10.0,64.0
912,69.0,0,60,11.0,64.0
913,64.0,60,60,12.0,64.0
914,45.0,0,90,14.0,64.0
915,57.0,12,90,13.0,64.0
916,64.0,48,60,12.0,64.0
917,69.0,0,60,11.0,64.0
918,69.0,60,60,11.0,64.0
919,64.0,0,60,12.0,64.0
920,69.0,0,60,11.0,64.0
921,57.0,0,90,13.0,64.0
922,64.0,0,60,12.0,64.0
923,45.0,12,90,14.0,64.0
924,69.0,0,60,11.0,64.0
925,64.0,60,60,12.0,64.0
926,73.0,48,60,11.0,64.0
927,76.0,0,60,11.0,64.0
928,81.0,0,300,10.0,64.0
929,45.0,0,90,14.0,64.0
930,69.0,0,60,12.0,64.0
931,57.0,12,90,13.0,64.0
932,69.0,60,60,12.0,64.0
933,76.0,0,60,11.0,64.0
934,73.0,0,60,11.0,64.0
935,45.0,12,90,14.0,64.0
936,57.0,0,90,13.0,64.0
937,69.0,48,60,12.0,64.0
938,76.0,0,60,11.0,64.0
939,73.0,0,60,11.0,64.0
940,76.0,0,60,11.0,64.0
941,73.0,0,60,11.0,64.0
942,69.0,60,60,12.0,64.0
943,57.0,0,90,13.0,64.0
944,45.0,12,90,14.0,64.0
945,73.0,48,60,11.0,64.0
946,76.0,0,60,11.0,64.0
947,69.0,0,60,12.0,64.0
948,69.0,0,60,12.0,64.0
949,76.0,60,60,11.0,64.0
950,73.0,0,60,11.0,64.0
951,78.0,0,60,11.0,64.0
952,38.0,60,300,14.0,64.0
953,50.0,0,300,13.0,64.0
954,78.0,0,60,10.0,64.0
955,69.0,60,60,12.0,64.0
956,76.0,0,60,10.0,64.0
957,68.0,60,60,12.0,64.0
958,76.0,0,60,11.0,64.0
959,74.0,0,60,11.0,64.0
960,74.0,60,60,10.0,64.0
961,66.0,0,60,12.0,64.0
962,64.0,0,60,12.0,64.0
963,73.0,0,60,11.0,64.0
964,73.0,60,60,10.0,64.0
965,71.0,0,60,11.0,64.0
966,62.0,0,60,12.0,64.0
967,71.0,0,60,10.0,64.0
968,69.0,60,60,10.0,64.0
969,69.0,0,60,11.0,64.0
970,61.0,0,60,12.0,64.0
971,68.0,60,60,11.0,64.0
972,59.0,0,60,12.0,64.0
973,68.0,0,60,10.0,64.0
974,52.0,0,300,13.0,64.0
975,40.0,0,300,14.0,64.0
976,57.0,0,60,12.0,64.0
977,66.0,0,60,10.0,64.0
978,66.0,60,60,11.0,64.0
979,56.0,60,60,12.0,64.0
980,64.0,0,60,11.0,64.0
981,64.0,0,60,10.0,64.0
982,62.0,0,60,10.0,64.0
983,62.0,60,60,11.0,64.0
984,54.0,0,60,12.0,64.0
985,61.0,60,60,11.0,64.0
986,52.0,0,60,12.0,64.0
987,61.0,0,60,10.0,64.0
988,59.0,0,60,11.0,64.0
989,50.0,0,60,12.0,64.0
990,59.0,60,60,10.0,64.0
991,57.0,42,60,4.0,64.0
992,57.0,18,60,11.0,64.0
993,69.0,24,1410,1.0,64.0
994,49.0,0,60,12.0,64.0
995,57.0,36,180,10.0,64.0
996,45.0,0,60,13.0,64.0
997,33.0,0,60,14.0,64.0
998,57.0,0,60,11.0,64.0
999,49.0,60,60,12.0,64.0
1000,40.0,6,60,14.0,64.0
1001,49.0,0,60,12.0,64.0
1002,52.0,0,60,13.0,64.0
1003,64.0,0,60,4.0,64.0
1004,57.0,18,60,11.0,64.0
1005,57.0,60,60,11.0,64.0
1006,49.0,0,60,12.0,64.0
1007,49.0,0,60,12.0,64.0
1008,49.0,0,60,13.0,64.0
1009,61.0,0,60,4.0,64.0
1010,37.0,42,60,14.0,64.0
1011,57.0,18,60,11.0,64.0
1012,49.0,60,60,12.0,64.0
1013,57.0,0,60,11.0,64.0
1014,69.0,0,60,4.0,64.0
1015,49.0,18,60,12.0,64.0
1016,57.0,42,60,13.0,64.0
1017,57.0,0,60,11.0,64.0
1018,45.0,0,60,14.0,64.0
1019,49.0,0,60,12.0,64.0
1020,57.0,60,60,11.0,64.0
1021,49.0,0,60,12.0,64.0
1022,57.0,60,60,11.0,64.0
1023,57.0,0,60,11.0,64.0
1024,49.0,60,60,12.0,64.0
1025,57.0,0,60,11.0,64.0
1026,49.0,60,60,12.0,64.0
1027,57.0,0,60,11.0,64.0
1028,49.0,60,60,12.0,64.0
1029,57.0,0,60,11.0,64.0
1030,73.0,42,60,10.0,64.0
1031,49.0,18,60,12.0,64.0
1032,57.0,0,60,11.0,64.0
1033,49.0,60,60,12.0,64.0
1034,49.0,18,60,12.0,64.0
1035,81.0,42,60,10.0,64.0
1036,57.0,0,60,11.0,64.0
1037,49.0,60,60,12.0,64.0
1038,57.0,0,60,11.0,64.0
1039,57.0,0,60,11.0,64.0
1040,49.0,18,60,12.0,64.0
1041,76.0,42,60,10.0,64.0
1042,49.0,60,60,12.0,64.0
1043,57.0,0,60,11.0,64.0
1044,85.0,42,60,10.0,64.0
1045,49.0,18,60,12.0,64.0
1046,57.0,0,60,11.0,64.0
1047,57.0,0,60,11.0,64.0
1048,49.0,60,60,12.0,64.0
1049,49.0,60,60,12.0,64.0
1050,57.0,0,60,11.0,64.0
1051,57.0,0,60,11.0,64.0
1052,49.0,60,60,12.0,64.0
1053,57.0,0,60,11.0,64.0
1054,49.0,36,60,12.0,64.0
1055,57.0,60,60,11.0,64.0
1056,49.0,0,60,12.0,64.0
1057,64.0,18,60,11.0,64.0
1058,76.0,24,1410,1.0,64.0
1059,64.0,0,60,4.0,64.0
1060,56.0,0,60,12.0,64.0
1061,44.0,0,60,13.0,64.0
1062,32.0,42,60,14.0,64.0
1063,71.0,0,1410,1.0,64.0
1064,64.0,60,60,11.0,64.0
1065,56.0,0,60,12.0,64.0
1066,64.0,0,60,11.0,64.0
1067,56.0,18,60,12.0,64.0
1068,64.0,0,60,4.0,64.0
1069,40.0,0,60,14.0,64.0
1070,52.0,42,60,13.0,64.0
1071,64.0,60,60,11.0,64.0
1072,56.0,0,60,12.0,64.0
1073,56.0,18,60,12.0,64.0
1074,47.0,0,60,13.0,64.0
1075,64.0,42,60,4.0,64.0
1076,64.0,0,60,11.0,64.0
1077,35.0,0,60,14.0,64.0
1078,56.0,60,60,12.0,64.0
1079,64.0,0,60,11.0,64.0
1080,44.0,42,60,14.0,64.0
1081,64.0,18,60,11.0,64.0
1082,64.0,0,60,4.0,64.0
1083,56.0,0,60,13.0,64.0
1084,56.0,0,60,12.0,64.0
1085,56.0,0,60,12.0,64.0
1086,64.0,60,60,11.0,64.0
1087,56.0,60,60,12.0,64.0
1088,64.0,0,60,11.0,64.0
1089,64.0,0,60,11.0,64.0
1090,56.0,60,60,12.0,64.0
1091,56.0,0,60,12.0,64.0
1092,64.0,60,60,11.0,64.0
1093,56.0,0,60,12.0,64.0
1094,64.0,60,60,11.0,64.0
1095,56.0,0,60,12.0,64.0
1096,71.0,42,60,10.0,64.0
1097,64.0,18,60,11.0,64.0
1098,64.0,0,60,11.0,64.0
1099,56.0,60,60,12.0,64.0
1100,56.0,0,60,12.0,64.0
1101,80.0,42,60,10.0,64.0
1102,64.0,18,60,11.0,64.0
1103,56.0,60,60,12.0,64.0
1104,64.0,0,60,11.0,64.0
1105,64.0,0,60,11.0,64.0
1106,76.0,42,60,10.0,64.0
1107,56.0,18,60,12.0,64.0
1108,64.0,0,60,11.0,64.0
1109,56.0,60,60,12.0,64.0
1110,64.0,18,60,11.0,64.0
1111,83.0,42,60,10.0,64.0
1112,56.0,0,60,12.0,64.0
1113,56.0,0,60,12.0,64.0
1114,64.0,60,60,11.0,64.0
1115,56.0,0,60,12.0,64.0
1116,64.0,60,60,11.0,64.0
1117,64.0,0,60,11.0,64.0
1118,56.0,60,60,12.0,64.0
1119,64.0,0,60,11.0,64.0
1120,56.0,36,60,12.0,64.0
1121,56.0,0,60,12.0,64.0
1122,64.0,60,60,11.0,64.0
1123,81.0,24,1410,1.0,64.0
1124,75.0,0,1410,1.0,64.0
1125,54.0,42,60,13.0,64.0
1126,63.0,0,60,11.0,64.0
1127,69.0,0,60,4.0,64.0
1128,57.0,0,60,4.0,64.0
1129,42.0,0,60,14.0,64.0
1130,54.0,18,60,12.0,64.0
1131,63.0,60,60,11.0,64.0
1132,54.0,0,60,12.0,64.0
1133,54.0,18,60,12.0,64.0
1134,63.0,42,60,13.0,64.0
1135,69.0,0,60,4.0,64.0
1136,51.0,0,60,14.0,64.0
1137,57.0,0,60,4.0,64.0
1138,63.0,0,60,11.0,64.0
1139,63.0,60,60,11.0,64.0
1140,54.0,0,60,12.0,64.0
1141,45.0,0,60,14.0,64.0
1142,63.0,0,60,11.0,64.0
1143,69.0,0,60,4.0,64.0
1144,57.0,0,60,4.0,64.0
1145,54.0,18,60,12.0,64.0
1146,57.0,42,60,13.0,64.0
1147,54.0,60,60,12.0,64.0
1148,63.0,0,60,11.0,64.0
1149,57.0,0,60,4.0,64.0
1150,69.0,0,60,4.0,64.0
1151,54.0,0,60,14.0,64.0
1152,66.0,42,60,13.0,64.0
1153,63.0,18,60,11.0,64.0
1154,54.0,0,60,12.0,64.0
1155,54.0,60,60,12.0,64.0
1156,63.0,0,60,11.0,64.0
1157,63.0,0,60,11.0,64.0
1158,54.0,60,60,12.0,64.0
1159,63.0,0,60,11.0,64.0
1160,54.0,60,60,12.0,64.0
1161,63.0,60,60,11.0,64.0
1162,54.0,0,60,12.0,64.0
1163,63.0,60,60,11.0,64.0
1164,54.0,0,60,12.0,64.0
1165,54.0,0,60,12.0,64.0
1166,69.0,42,60,10.0,64.0
1167,63.0,18,60,11.0,64.0
1168,63.0,0,60,11.0,64.0
1169,54.0,60,60,12.0,64.0
1170,63.0,0,60,11.0,64.0
1171,78.0,42,60,10.0,64.0
1172,54.0,18,60,12.0,64.0
1173,63.0,0,60,11.0,64.0
1174,54.0,60,60,12.0,64.0
1175,75.0,42,60,10.0,64.0
1176,63.0,18,60,11.0,64.0
1177,54.0,0,60,12.0,64.0
1178,54.0,60,60,12.0,64.0
1179,63.0,0,60,11.0,64.0
1180,81.0,42,60,10.0,64.0
1181,54.0,18,60,12.0,64.0
1182,63.0,0,60,11.0,64.0
1183,63.0,0,60,11.0,64.0
1184,54.0,60,60,12.0,64.0
1185,63.0,60,60,11.0,64.0
1186,54.0,0,60,12.0,64.0
1187,63.0,0,60,11.0,64.0
1188,54.0,60,60,12.0,64.0
1189,63.0,36,60,11.0,64.0
1190,54.0,0,60,12.0,64.0
1191,54.0,60,60,12.0,64.0
1192,63.0,0,60,11.0,64.0
1193,40.0,42,60,14.0,64.0
1194,52.0,0,60,13.0,64.0
1195,80.0,24,1410,1.0,64.0
1196,64.0,0,60,4.0,64.0
1197,64.0,18,60,11.0,64.0
1198,71.0,0,1410,1.0,64.0
1199,52.0,0,60,12.0,64.0
1200,64.0,0,60,11.0,64.0
1201,52.0,60,60,12.0,64.0
1202,64.0,0,60,11.0,64.0
1203,64.0,0,60,4.0,64.0
1204,59.0,42,60,13.0,64.0
1205,52.0,18,60,12.0,64.0
1206,47.0,0,60,14.0,64.0
1207,64.0,0,60,11.0,64.0
1208,52.0,60,60,12.0,64.0
1209,56.0,0,60,13.0,64.0
1210,52.0,18,60,12.0,64.0
1211,64.0,0,60,11.0,64.0
1212,44.0,0,60,14.0,64.0
1213,64.0,42,60,4.0,64.0
1214,64.0,60,60,11.0,64.0
1215,52.0,0,60,12.0,64.0
1216,52.0,0,60,14.0,64.0
1217,64.0,0,60,4.0,64.0
1218,52.0,0,60,12.0,64.0
1219,64.0,42,60,13.0,64.0
1220,64.0,18,60,11.0,64.0
1221,52.0,60,60,12.0,64.0
1222,64.0,0,60,11.0,64.0
1223,64.0,0,60,11.0,64.0
1224,52.0,60,60,12.0,64.0
1225,64.0,0,60,11.0,64.0
1226,52.0,60,60,12.0,64.0
1227,52.0,60,60,12.0,64.0
1228,64.0,0,60,11.0,64.0
1229,52.0,0,60,12.0,64.0
1230,64.0,60,60,11.0,64.0
1231,52.0,0,60,12.0,64.0
1232,76.0,42,60,10.0,64.0
1233,64.0,18,60,11.0,64.0
1234,64.0,0,60,11.0,64.0
1235,52.0,60,60,12.0,64.0
1236,52.0,0,60,12.0,64.0
1237,83.0,42,60,10.0,64.0
1238,64.0,18,60,11.0,64.0
1239,52.0,60,60,12.0,64.0
1240,64.0,0,60,11.0,64.0
1241,64.0,18,60,11.0,64.0
1242,80.0,42,60,10.0,64.0
1243,52.0,0,60,12.0,64.0
1244,64.0,0,60,11.0,64.0
1245,52.0,60,60,12.0,64.0
1246,64.0,0,60,11.0,64.0
1247,52.0,18,60,12.0,64.0
1248,88.0,42,60,10.0,64.0
1249,64.0,0,60,11.0,64.0
1250,52.0,60,60,12.0,64.0
1251,64.0,0,60,11.0,64.0
1252,52.0,60,60,12.0,64.0
1253,64.0,0,60,11.0,64.0
1254,52.0,60,60,12.0,64.0
1255,52.0,36,60,12.0,64.0
1256,64.0,0,60,11.0,64.0
1257,52.0,0,60,12.0,64.0
1258,64.0,60,60,11.0,64.0
1259,45.0,0,90,14.0,64.0
1260,57.0,30,90,13.0,64.0
1261,76.0,0,60,11.0,64.0
1262,64.0,0,2100,4.0,64.0
1263,76.0,0,1740,4.0,64.0
1264,73.0,0,60,12.0,64.0
1265,78.0,30,60,10.0,64.0
1266,73.0,0,300,1.0,64.0
1267,78.0,0,300,1.0,64.0
1268,73.0,60,60,12.0,64.0
1269,76.0,0,60,11.0,64.0
1270,78.0,0,60,10.0,64.0
1271,76.0,0,60,11.0,64.0
1272,57.0,0,90,13.0,64.0
1273,78.0,0,60,10.0,64.0
1274,73.0,30,60,12.0,64.0
1275,45.0,30,90,14.0,64.0
1276,76.0,60,60,11.0,64.0
1277,78.0,0,60,10.0,64.0
1278,73.0,0,60,12.0,64.0
1279,73.0,30,60,12.0,64.0
1280,78.0,0,60,10.0,64.0
1281,57.0,30,90,13.0,64.0
1282,45.0,0,90,14.0,64.0
1283,76.0,0,60,11.0,64.0
1284,78.0,0,60,10.0,64.0
1285,76.0,60,60,11.0,64.0
1286,73.0,0,60,12.0,64.0
1287,47.0,0,90,14.0,64.0
1288,71.0,0,300,1.0,64.0
1289,80.0,0,300,1.0,64.0
1290,80.0,0,60,10.0,64.0
1291,59.0,30,90,13.0,64.0
1292,76.0,0,60,11.0,64.0
1293,71.0,30,60,12.0,64.0
1294,71.0,0,60,12.0,64.0
1295,76.0,60,60,11.0,64.0
1296,80.0,0,60,10.0,64.0
1297,71.0,0,60,12.0,64.0
1298,47.0,30,90,14.0,64.0
1299,76.0,0,60,11.0,64.0
1300,59.0,0,90,13.0,64.0
1301,80.0,30,60,10.0,64.0
1302,80.0,0,60,10.0,64.0
1303,76.0,0,60,11.0,64.0
1304,71.0,60,60,12.0,64.0
1305,59.0,0,90,13.0,64.0
1306,76.0,0,60,11.0,64.0
1307,71.0,0,60,12.0,64.0
1308,47.0,30,90,14.0,64.0
1309,80.0,30,60,10.0,64.0
1310,71.0,60,60,12.0,64.0
1311,80.0,0,60,10.0,64.0
1312,76.0,0,60,11.0,64.0
1313,61.0,0,90,13.0,64.0
1314,76.0,0,60,11.0,64.0
1315,49.0,30,90,14.0,64.0
1316,81.0,30,300,1.0,64.0
1317,69.0,0,60,12.0,64.0
1318,81.0,30,60,10.0,64.0
1319,69.0,0,300,1.0,64.0
1320,81.0,0,60,10.0,64.0
1321,69.0,0,60,12.0,64.0
1322,76.0,60,60,11.0,64.0
1323,81.0,30,60,10.0,64.0
1324,69.0,0,60,12.0,64.0
1325,61.0,0,90,13.0,64.0
1326,76.0,0,60,11.0,64.0
1327,49.0,30,90,14.0,64.0
1328,69.0,0,60,12.0,64.0
1329,76.0,0,60,11.0,64.0
1330,81.0,60,60,10.0,64.0
1331,61.0,0,90,13.0,64.0
1332,69.0,0,60,12.0,64.0
1333,49.0,30,90,14.0,64.0
1334,76.0,0,60,11.0,64.0
1335,81.0,0,60,10.0,64.0
1336,76.0,60,60,11.0,64.0
1337,81.0,0,60,10.0,64.0
1338,69.0,0,60,12.0,64.0
1339,80.0,30,60,10.0,64.0
1340,47.0,0,90,14.0,64.0
1341,76.0,0,60,11.0,64.0
1342,80.0,30,300,1.0,64.0
1343,59.0,30,90,13.0,64.0
1344,71.0,0,60,12.0,64.0
1345,71.0,0,300,1.0,64.0
1346,71.0,0,60,12.0,64.0
1347,76.0,60,60,11.0,64.0
1348,80.0,0,60,10.0,64.0
1349,59.0,30,90,13.0,64.0
1350,76.0,30,60,11.0,64.0
1351,47.0,0,90,14.0,64.0
1352,80.0,0,60,10.0,64.0
1353,71.0,0,60,12.0,64.0
1354,80.0,60,60,10.0,64.0
1355,76.0,0,60,11.0,64.0
1356,71.0,0,60,12.0,64.0
1357,76.0,0,60,11.0,64.0
1358,47.0,0,90,14.0,64.0
1359,59.0,30,90,13.0,64.0
1360,71.0,0,60,12.0,64.0
1361,80.0,0,60,10.0,64.0
1362,71.0,0,60,12.0,64.0
1363,76.0,60,60,11.0,64.0
1364,80.0,0,60,10.0,64.0
1365,78.0,0,60,10.0,64.0
1366,57.0,30,90,13.0,64.0
1367,76.0,0,60,11.0,64.0
1368,78.0,0,660,1.0,64.0
1369,73.0,0,300,1.0,64.0
1370,73.0,30,60,12.0,64.0
1371,45.0,0,90,14.0,64.0
1372,78.0,60,60,10.0,64.0
1373,76.0,0,60,11.0,64.0
1374,73.0,0,60,12.0,64.0
1375,76.0,0,60,11.0,64.0
1376,57.0,0,90,13.0,64.0
1377,73.0,30,60,12.0,64.0
1378,78.0,0,60,10.0,64.0
1379,45.0,30,90,14.0,64.0
1380,73.0,0,60,12.0,64.0
1381,76.0,60,60,11.0,64.0
1382,78.0,0,60,10.0,64.0
1383,78.0,0,60,10.0,64.0
1384,76.0,30,60,11.0,64.0
1385,45.0,0,90,14.0,64.0
1386,73.0,0,60,12.0,64.0
1387,57.0,30,90,13.0,64.0
1388,78.0,0,60,10.0,64.0
1389,73.0,60,60,12.0,64.0
1390,76.0,0,60,11.0,64.0
1391,78.0,30,60,10.0,64.0
1392,73.0,0,60,12.0,64.0
1393,76.0,0,60,11.0,64.0
1394,73.0,0,300,4.0,64.0
1395,58.0,0,90,13.0,64.0
1396,76.0,0,300,1.0,64.0
1397,46.0,30,90,14.0,64.0
1398,73.0,0,60,12.0,64.0
1399,76.0,0,60,11.0,64.0
1400,78.0,60,60,10.0,64.0
1401,46.0,0,90,14.0,64.0
1402,78.0,0,60,10.0,64.0
1403,58.0,30,90,13.0,64.0
1404,76.0,30,60,11.0,64.0
1405,73.0,0,60,12.0,64.0
1406,76.0,0,60,11.0,64.0
1407,78.0,60,60,10.0,64.0
1408,73.0,0,60,12.0,64.0
1409,58.0,30,90,13.0,64.0
1410,78.0,30,60,10.0,64.0
1411,46.0,0,90,14.0,64.0
1412,73.0,0,60,12.0,64.0
1413,76.0,0,60,11.0,64.0
1414,78.0,0,60,10.0,64.0
1415,76.0,90,60,11.0,64.0
1416,73.0,0,60,12.0,64.0
1417,78.0,0,90,10.0,64.0
1418,75.0,0,90,1.0,64.0
1419,78.0,0,90,1.0,64.0
1420,71.0,120,90,12.0,64.0
1421,47.0,0,90,14.0,64.0
1422,75.0,0,90,11.0,64.0
1423,71.0,0,90,4.0,64.0
1424,59.0,0,90,13.0,64.0
1425,83.0,0,90,10.0,64.0
1426,75.0,0,90,1.0,64.0
1427,83.0,0,90,1.0,64.0
1428,47.0,0,90,13.0,64.0
1429,78.0,0,90,11.0,64.0
1430,75.0,0,90,11.0,64.0
1431,35.0,0,90,14.0,64.0
1432,71.0,120,90,4.0,64.0
1433,71.0,0,90,12.0,64.0
1434,78.0,0,90,11.0,64.0
1435,75.0,0,90,11.0,64.0
1436,83.0,0,90,1.0,64.0
1437,83.0,0,90,10.0,64.0
1438,35.0,0,90,14.0,64.0
1439,47.0,0,90,13.0,64.0
1440,75.0,0,90,1.0,64.0
1441,71.0,234,90,12.0,64.0
1442,71.0,0,90,4.0,64.0
1443,83.0,0,180,10.0,64.0
1444,71.0,228,180,4.0,64.0
1445,35.0,0,180,14.0,64.0
1446,47.0,0,180,13.0,64.0
1447,75.0,0,180,1.0,64.0
1448,83.0,0,180,1.0,64.0
1449,78.0,0,180,11.0,64.0
1450,75.0,0,180,11.0,64.0
1451,59.0,0,180,12.0,64.0
1452,70.0,144,60,10.0,64.0
1453,71.0,216,150,10.0,64.0
1454,73.0,144,60,10.0,64.0
1455,71.0,216,150,10.0,64.0
1456,70.0,0,60,10.0,64.0
1457,67.0,144,60,11.0,64.0
1458,68.0,0,150,11.0,64.0
1459,71.0,216,150,10.0,64.0
1460,52.0,0,360,12.0,64.0
1461,40.0,0,360,14.0,64.0
1462,69.0,0,60,11.0,64.0
1463,52.0,60,360,13.0,64.0
1464,73.0,144,60,10.0,64.0
1465,71.0,156,150,10.0,64.0
1466,68.0,0,150,11.0,64.0
1467,54.0,0,360,13.0,64.0
1468,70.0,144,60,10.0,64.0
1469,42.0,0,360,14.0,64.0
1470,51.0,60,360,12.0,64.0
1471,69.0,120,450,11.0,64.0
1472,71.0,156,150,10.0,64.0
1473,51.0,30,300,13.0,64.0
1474,73.0,18,60,10.0,64.0
1475,39.0,0,300,14.0,64.0
1476,54.0,0,300,12.0,64.0
1477,71.0,84,150,10.0,64.0
1478,66.0,6,90,11.0,64.0
1479,64.0,102,90,11.0,64.0
1480,64.0,0,60,11.0,64.0
1481,57.0,0,360,12.0,64.0
1482,47.0,60,360,13.0,64.0
1483,35.0,0,360,14.0,64.0
1484,70.0,78,60,10.0,64.0
1485,63.0,66,90,11.0,64.0
1486,71.0,15,150,10.0,64.0
1487,61.0,99,30,11.0,64.0
1488,59.0,42,90,11.0,64.0
1489,45.0,48,300,14.0,64.0
1490,61.0,48,240,11.0,64.0
1491,73.0,144,60,10.0,64.0
1492,57.0,0,300,13.0,64.0
1493,54.0,0,300,12.0,64.0
1494,71.0,36,150,10.0,64.0
1495,63.0,84,90,11.0,64.0
1496,58.0,144,60,10.0,64.0
1497,56.0,60,360,12.0,64.0
1498,44.0,0,360,14.0,64.0
1499,56.0,0,360,13.0,64.0
1500,64.0,96,240,11.0,64.0
1501,59.0,36,150,10.0,64.0
1502,59.0,24,90,11.0,64.0
1503,82.0,132,60,10.0,64.0
1504,56.0,12,180,11.0,64.0
1505,52.0,132,300,12.0,64.0
1506,40.0,0,300,14.0,64.0
1507,52.0,0,300,13.0,64.0
1508,83.0,84,150,10.0,64.0
1509,70.0,144,60,10.0,64.0
1510,67.0,0,60,11.0,64.0
1511,68.0,216,150,11.0,64.0
1512,71.0,0,150,10.0,64.0
1513,40.0,60,360,14.0,64.0
1514,73.0,144,60,10.0,64.0
1515,52.0,0,360,13.0,64.0
1516,69.0,0,60,11.0,64.0
1517,52.0,0,360,12.0,64.0
1518,68.0,156,150,11.0,64.0
1519,71.0,0,150,10.0,64.0
1520,54.0,60,360,13.0,64.0
1521,69.0,120,450,11.0,64.0
1522,51.0,0,360,12.0,64.0
1523,70.0,144,60,10.0,64.0
1524,42.0,0,360,14.0,64.0
1525,71.0,156,150,10.0,64.0
1526,54.0,0,300,12.0,64.0
1527,39.0,0,300,14.0,64.0
1528,51.0,30,300,13.0,64.0
1529,73.0,18,60,10.0,64.0
1530,71.0,84,150,10.0,64.0
1531,66.0,6,90,11.0,64.0
1532,64.0,102,90,11.0,64.0
1533,70.0,0,60,10.0,64.0
1534,47.0,60,360,13.0,64.0
1535,57.0,0,360,12.0,64.0
1536,35.0,0,360,14.0,64.0
1537,64.0,78,60,11.0,64.0
1538,71.0,15,150,10.0,64.0
1539,63.0,66,90,11.0,64.0
1540,61.0,99,30,11.0,64.0
1541,59.0,42,90,11.0,64.0
1542,61.0,48,240,11.0,64.0
1543,54.0,0,300,12.0,64.0
1544,45.0,0,300,14.0,64.0
1545,57.0,48,300,13.0,64.0
1546,73.0,144,60,10.0,64.0
1547,71.0,36,150,10.0,64.0
1548,63.0,84,90,11.0,64.0
1549,56.0,0,360,12.0,64.0
1550,64.0,96,240,11.0,64.0
1551,44.0,60,360,14.0,64.0
1552,58.0,144,60,10.0,64.0
1553,56.0,0,360,13.0,64.0
1554,59.0,36,150,10.0,64.0
1555,59.0,24,90,11.0,64.0
1556,52.0,0,300,13.0,64.0
1557,56.0,120,90,11.0,64.0
1558,52.0,30,300,12.0,64.0
1559,40.0,0,300,14.0,64.0
1560,82.0,18,60,10.0,64.0
1561,83.0,84,150,10.0,64.0
1562,71.0,6,90,11.0,64.0
1563,71.0,108,90,11.0,64.0
1564,71.0,120,450,11.0,64.0
1565,57.0,0,60,13.0,64.0
1566,64.0,0,60,12.0,64.0
1567,45.0,132,60,14.0,64.0
1568,73.0,120,90,10.0,64.0
1569,73.0,108,90,10.0,64.0
1570,54.0,12,60,13.0,64.0
1571,42.0,0,60,14.0,64.0
1572,73.0,120,450,10.0,64.0
1573,66.0,0,60,12.0,64.0
1574,69.0,120,90,11.0,64.0
1575,69.0,108,90,11.0,64.0
1576,51.0,0,60,13.0,64.0
1577,69.0,120,450,11.0,64.0
1578,39.0,0,60,14.0,64.0
1579,66.0,12,60,12.0,64.0
1580,71.0,120,90,10.0,64.0
1581,71.0,108,90,10.0,64.0
1582,64.0,0,60,12.0,64.0
1583,52.0,12,60,13.0,64.0
1584,40.0,0,60,14.0,64.0
1585,71.0,120,450,10.0,64.0
1586,68.0,120,90,11.0,64.0
1587,68.0,108,90,11.0,64.0
1588,49.0,0,60,13.0,64.0
1589,37.0,12,60,14.0,64.0
1590,68.0,120,450,11.0,64.0
1591,64.0,0,60,12.0,64.0
1592,69.0,120,90,10.0,64.0
1593,69.0,108,90,10.0,64.0
1594,63.0,0,60,12.0,64.0
1595,69.0,120,450,10.0,64.0
1596,51.0,12,60,13.0,64.0
1597,39.0,0,60,14.0,64.0
1598,66.0,120,90,11.0,64.0
1599,66.0,108,90,11.0,64.0
1600,66.0,120,450,11.0,64.0
1601,48.0,0,60,13.0,64.0
1602,36.0,0,60,14.0,64.0
1603,63.0,12,60,12.0,64.0
1604,68.0,120,90,10.0,64.0
1605,68.0,108,90,10.0,64.0
1606,37.0,0,60,14.0,64.0
1607,61.0,12,60,12.0,64.0
1608,68.0,120,450,10.0,64.0
1609,49.0,0,60,13.0,64.0
1610,64.0,120,90,11.0,64.0
1611,64.0,108,90,11.0,64.0
1612,33.0,12,60,14.0,64.0
1613,45.0,0,60,13.0,64.0
1614,61.0,0,60,12.0,64.0
1615,64.0,120,450,11.0,64.0
1616,66.0,120,90,10.0,64.0
1617,66.0,108,90,10.0,64.0
1618,35.0,0,60,14.0,64.0
1619,47.0,0,60,13.0,64.0
1620,59.0,12,60,12.0,64.0
1621,66.0,84,240,10.0,64.0
1622,63.0,36,90,11.0,64.0
1623,63.0,402,90,11.0,64.0
1624,64.0,342,360,10.0,64.0
1625,46.0,0,720,13.0,64.0
1626,79.0,240,720,1.0,64.0
1627,58.0,0,720,12.0,64.0
1628,61.0,0,360,11.0,64.0
1629,34.0,0,720,14.0,64.0
1630,76.0,0,1080,1.0,64.0
1631,73.0,18,330,10.0,64.0
1632,64.0,0,330,11.0,64.0
1633,80.0,240,360,1.0,64.0
1634,35.0,360,720,14.0,64.0
1635,59.0,0,720,12.0,64.0
1636,47.0,0,720,13.0,64.0
1637,56.0,0,240,11.0,64.0
1638,59.0,114,240,10.0,64.0
1639,64.0,0,120,11.0,64.0
1640,68.0,6,120,10.0,64.0
1641,63.0,12,330,11.0,64.0
1642,78.0,0,330,1.0,64.0
1643,75.0,0,330,1.0,64.0
1644,57.0,102,240,10.0,64.0
1645,66.0,6,120,10.0,64.0
1646,64.0,0,360,10.0,64.0
1647,46.0,0,720,13.0,64.0
1648,61.0,342,360,11.0,64.0
1649,58.0,240,720,12.0,64.0
1650,34.0,0,720,14.0,64.0
1651,79.0,0,720,1.0,64.0
1652,76.0,240,1080,1.0,64.0
1653,73.0,0,330,10.0,64.0
1654,64.0,18,330,11.0,64.0
1655,59.0,114,240,10.0,64.0
1656,47.0,0,690,13.0,64.0
1657,56.0,0,240,11.0,64.0
1658,80.0,0,360,1.0,64.0
1659,59.0,0,690,12.0,64.0
1660,35.0,18,690,14.0,64.0
1661,64.0,6,120,11.0,64.0
1662,68.0,0,120,10.0,64.0
1663,63.0,12,330,11.0,64.0
1664,57.0,84,240,10.0,64.0
1665,78.0,0,330,1.0,64.0
1666,75.0,0,330,1.0,64.0
1667,66.0,54,120,10.0,64.0
1668,64.0,6,180,11.0,64.0
1669,64.0,12,570,4.0,64.0
1670,52.0,30,90,13.0,64.0
1671,56.0,0,90,12.0,64.0
1672,40.0,0,90,14.0,64.0
1673,80.0,0,570,1.0,64.0
1674,76.0,0,570,1.0,64.0
1675,64.0,30,60,10.0,64.0
1676,71.0,0,570,4.0,64.0
1677,71.0,60,60,10.0,64.0
1678,64.0,0,90,13.0,64.0
1679,68.0,30,90,12.0,64.0
1680,52.0,0,90,14.0,64.0
1681,71.0,24,60,10.0,64.0
1682,71.0,60,60,10.0,64.0
1683,52.0,30,90,14.0,64.0
1684,64.0,0,90,13.0,64.0
1685,68.0,0,90,12.0,64.0
1686,71.0,30,60,10.0,64.0
1687,71.0,60,60,10.0,64.0
1688,71.0,24,180,10.0,64.0
1689,80.0,60,60,11.0,64.0
1690,64.0,0,150,13.0,64.0
1691,52.0,12,150,14.0,64.0
1692,68.0,0,150,12.0,64.0
1693,71.0,48,60,11.0,64.0
1694,71.0,24,60,11.0,64.0
1695,71.0,60,60,11.0,64.0
1696,71.0,30,60,11.0,64.0
1697,52.0,0,90,13.0,64.0
1698,40.0,30,90,14.0,64.0
1699,56.0,0,90,12.0,64.0
1700,71.0,60,60,11.0,64.0
1701,81.0,30,60,10.0,64.0
1702,54.0,0,90,12.0,64.0
1703,51.0,0,90,13.0,64.0
1704,71.0,6,180,11.0,64.0
1705,81.0,0,570,1.0,64.0
1706,71.0,0,570,4.0,64.0
1707,39.0,30,90,14.0,64.0
1708,78.0,12,570,1.0,64.0
1709,71.0,60,60,10.0,64.0
1710,71.0,24,60,10.0,64.0
1711,66.0,30,90,12.0,64.0
1712,51.0,0,90,14.0,64.0
1713,63.0,0,90,13.0,64.0
1714,71.0,60,60,10.0,64.0
1715,51.0,0,90,14.0,64.0
1716,71.0,30,60,10.0,64.0
1717,63.0,0,90,13.0,64.0
1718,66.0,30,90,12.0,64.0
1719,71.0,60,60,10.0,64.0
1720,63.0,12,150,13.0,64.0
1721,71.0,24,180,10.0,64.0
1722,69.0,60,60,11.0,64.0
1723,51.0,0,150,14.0,64.0
1724,66.0,0,150,12.0,64.0
1725,71.0,48,60,11.0,64.0
1726,71.0,24,60,11.0,64.0
1727,71.0,60,60,11.0,64.0
1728,71.0,30,60,11.0,64.0
1729,51.0,30,90,13.0,64.0
1730,39.0,0,90,14.0,64.0
1731,54.0,0,90,12.0,64.0
1732,71.0,60,60,11.0,64.0
1733,68.0,6,180,11.0,64.0
1734,80.0,30,60,10.0,64.0
1735,64.0,0,570,4.0,64.0
1736,80.0,0,570,1.0,64.0
1737,52.0,0,90,13.0,64.0
1738,71.0,0,570,4.0,64.0
1739,76.0,12,570,1.0,64.0
1740,56.0,0,90,12.0,64.0
1741,40.0,30,90,14.0,64.0
1742,71.0,60,60,10.0,64.0
1743,68.0,0,90,12.0,64.0
1744,71.0,24,60,10.0,64.0
1745,64.0,30,90,13.0,64.0
1746,52.0,0,90,14.0,64.0
1747,71.0,60,60,10.0,64.0
1748,64.0,0,90,13.0,64.0
1749,71.0,30,60,10.0,64.0
1750,68.0,30,90,12.0,64.0
1751,52.0,0,90,14.0,64.0
1752,71.0,60,60,10.0,64.0
1753,80.0,60,60,11.0,64.0
1754,64.0,0,150,13.0,64.0
1755,71.0,24,180,10.0,64.0
1756,52.0,0,150,14.0,64.0
1757,68.0,12,150,12.0,64.0
1758,71.0,48,60,11.0,64.0
1759,71.0,24,60,11.0,64.0
1760,71.0,60,60,11.0,64.0
1761,71.0,30,60,11.0,64.0
1762,40.0,0,90,14.0,64.0
1763,56.0,30,90,12.0,64.0
1764,52.0,0,90,13.0,64.0
1765,71.0,60,60,11.0,64.0
1766,81.0,0,570,1.0,64.0
1767,71.0,6,180,11.0,64.0
1768,81.0,30,60,10.0,64.0
1769,78.0,0,570,1.0,64.0
1770,54.0,30,90,12.0,64.0
1771,39.0,0,90,14.0,64.0
1772,51.0,0,90,13.0,64.0
1773,71.0,12,570,4.0,64.0
1774,71.0,60,60,10.0,64.0
1775,71.0,24,60,10.0,64.0
1776,66.0,0,90,12.0,64.0
1777,51.0,30,90,14.0,64.0
1778,63.0,0,90,13.0,64.0
1779,71.0,60,60,10.0,64.0
1780,71.0,30,60,10.0,64.0
1781,51.0,0,90,14.0,64.0
1782,63.0,30,90,13.0,64.0
1783,66.0,0,90,12.0,64.0
1784,71.0,60,60,10.0,64.0
1785,66.0,0,150,12.0,64.0
1786,51.0,0,150,14.0,64.0
1787,69.0,60,60,11.0,64.0
1788,71.0,24,180,10.0,64.0
1789,63.0,12,150,13.0,64.0
1790,71.0,48,60,11.0,64.0
1791,71.0,24,60,11.0,64.0
1792,71.0,60,60,11.0,64.0
1793,51.0,30,90,13.0,64.0
1794,39.0,0,90,14.0,64.0
1795,71.0,30,60,11.0,64.0
1796,54.0,0,90,12.0,64.0
1797,71.0,90,60,11.0,64.0
1798,80.0,0,180,1.0,64.0
1799,71.0,6,180,1.0,64.0
1800,64.0,0,90,4.0,64.0
1801,52.0,0,90,12.0,64.0
1802,76.0,0,180,11.0,64.0
1803,64.0,0,180,10.0,64.0
1804,71.0,0,180,10.0,64.0
1805,40.0,114,90,14.0,64.0
1806,71.0,0,180,11.0,64.0
1807,80.0,0,180,10.0,64.0
1808,68.0,0,180,11.0,64.0
1809,52.0,0,90,13.0,64.0
1810,64.0,0,90,4.0,64.0
1811,64.0,0,90,13.0,64.0
1812,64.0,0,90,12.0,64.0
1813,52.0,120,90,14.0,64.0
1814,64.0,0,90,4.0,64.0
1815,64.0,0,90,12.0,64.0
1816,52.0,0,90,14.0,64.0
1817,64.0,120,90,13.0,64.0
1818,64.0,0,90,12.0,64.0
1819,76.0,0,180,11.0,64.0
1820,69.0,0,180,11.0,64.0
1821,73.0,0,180,11.0,64.0
1822,64.0,114,90,4.0,64.0
1823,73.0,0,180,1.0,64.0
1824,81.0,0,180,1.0,64.0
1825,52.0,0,90,14.0,64.0
1826,73.0,0,180,10.0,64.0
1827,81.0,6,180,10.0,64.0
1828,64.0,0,180,10.0,64.0
1829,64.0,0,90,13.0,64.0
1830,52.0,0,90,14.0,64.0
1831,64.0,0,90,12.0,64.0
1832,64.0,0,90,4.0,64.0
1833,64.0,120,90,13.0,64.0
1834,52.0,0,90,14.0,64.0
1835,64.0,120,90,4.0,64.0
1836,64.0,0,90,13.0,64.0
1837,64.0,0,90,12.0,64.0
1838,80.0,6,180,1.0,64.0
1839,71.0,0,180,1.0,64.0
1840,52.0,0,90,14.0,64.0
1841,64.0,0,90,4.0,64.0
1842,64.0,114,90,12.0,64.0
1843,64.0,0,90,13.0,64.0
1844,76.0,0,180,11.0,64.0
1845,71.0,0,180,11.0,64.0
1846,68.0,0,180,11.0,64.0
1847,71.0,0,180,10.0,64.0
1848,80.0,0,180,10.0,64.0
1849,64.0,0,180,10.0,64.0
1850,64.0,0,90,12.0,64.0
1851,64.0,120,90,4.0,64.0
1852,52.0,0,90,14.0,64.0
1853,64.0,0,90,13.0,64.0
1854,64.0,0,90,12.0,64.0
1855,64.0,0,90,13.0,64.0
1856,64.0,0,90,4.0,64.0
1857,52.0,120,90,14.0,64.0
1858,64.0,114,90,13.0,64.0
1859,64.0,0,90,12.0,64.0
1860,52.0,0,90,14.0,64.0
1861,69.0,0,180,11.0,64.0
1862,81.0,0,180,10.0,64.0
1863,64.0,0,180,10.0,64.0
1864,73.0,6,180,10.0,64.0
1865,76.0,0,180,11.0,64.0
1866,73.0,0,180,1.0,64.0
1867,64.0,0,90,4.0,64.0
1868,73.0,0,180,11.0,64.0
1869,81.0,0,180,1.0,64.0
1870,64.0,0,90,4.0,64.0
1871,64.0,0,90,12.0,64.0
1872,52.0,0,90,14.0,64.0
1873,64.0,120,90,13.0,64.0
1874,64.0,0,90,12.0,64.0
1875,64.0,0,90,4.0,64.0
1876,64.0,0,90,13.0,64.0
1877,52.0,120,90,14.0,64.0
1878,71.0,0,180,11.0,64.0
1879,68.0,0,180,11.0,64.0
1880,76.0,0,180,11.0,64.0
1881,64.0,0,180,10.0,64.0
1882,71.0,6,180,10.0,64.0
1883,80.0,0,180,10.0,64.0
1884,71.0,0,180,1.0,64.0
1885,52.0,0,90,14.0,64.0
1886,80.0,0,180,1.0,64.0
1887,64.0,0,90,13.0,64.0
1888,64.0,0,90,4.0,64.0
1889,64.0,114,90,12.0,64.0
1890,64.0,0,90,13.0,64.0
1891,52.0,120,90,14.0,64.0
1892,64.0,0,90,12.0,64.0
1893,64.0,0,90,4.0,64.0
1894,64.0,0,90,4.0,64.0
1895,52.0,120,90,14.0,64.0
1896,64.0,0,90,13.0,64.0
1897,64.0,0,90,12.0,64.0
1898,64.0,114,90,13.0,64.0
1899,64.0,0,90,12.0,64.0
1900,81.0,0,180,10.0,64.0
1901,64.0,0,90,4.0,64.0
1902,73.0,0,180,10.0,64.0
1903,76.0,0,180,11.0,64.0
1904,64.0,0,180,10.0,64.0
1905,52.0,0,90,14.0,64.0
1906,81.0,0,180,1.0,64.0
1907,73.0,0,180,1.0,64.0
1908,73.0,0,180,11.0,64.0
1909,69.0,6,180,11.0,64.0
1910,52.0,0,90,14.0,64.0
1911,64.0,0,90,13.0,64.0
1912,64.0,0,90,4.0,64.0
1913,64.0,120,90,12.0,64.0
1914,64.0,0,90,13.0,64.0
1915,64.0,0,90,4.0,64.0
1916,52.0,234,90,14.0,64.0
1917,64.0,0,90,12.0,64.0
1918,71.0,0,180,1.0,64.0
1919,80.0,0,180,1.0,64.0
1920,64.0,0,180,10.0,64.0
1921,71.0,0,180,10.0,64.0
1922,80.0,0,180,10.0,64.0
1923,64.0,0,180,4.0,64.0
1924,68.0,0,180,11.0,64.0
1925,64.0,0,180,13.0,64.0
1926,76.0,0,180,11.0,64.0
1927,71.0,0,180,11.0,64.0
1928,64.0,0,180,12.0,64.0
1929,52.0,624,180,14.0,64.0
1930,64.0,0,30,11.0,64.0
1931,64.0,60,30,10.0,64.0
1932,66.0,60,30,10.0,64.0
1933,66.0,0,30,11.0,64.0
1934,68.0,60,30,11.0,64.0
1935,68.0,0,30,10.0,64.0
1936,69.0,0,30,10.0,64.0
1937,69.0,60,30,11.0,64.0
1938,71.0,0,30,10.0,64.0
1939,71.0,60,30,11.0,64.0
1940,73.0,0,30,10.0,64.0
1941,73.0,60,30,11.0,64.0
1942,75.0,60,30,10.0,64.0
1943,75.0,0,30,11.0,64.0
1944,76.0,60,30,10.0,64.0
1945,76.0,0,30,11.0,64.0
1946,78.0,60,30,10.0,64.0
1947,78.0,0,30,11.0,64.0
1948,80.0,0,30,11.0,64.0
1949,80.0,60,30,10.0,64.0
1950,81.0,0,30,10.0,64.0
1951,81.0,216,30,11.0,64.0
1952,83.0,0,180,11.0,64.0
1953,83.0,486,180,10.0,64.0
1954,76.0,90,90,10.0,64.0
1955,57.0,30,60,12.0,64.0
1956,64.0,0,60,11.0,64.0
1957,61.0,0,60,11.0,64.0
1958,81.0,30,300,10.0,64.0
1959,69.0,0,570,4.0,64.0
1960,61.0,0,570,4.0,64.0
1961,76.0,0,570,1.0,64.0
1962,73.0,12,570,1.0,64.0
1963,45.0,30,90,14.0,64.0
1964,57.0,0,90,13.0,64.0
1965,61.0,60,60,11.0,64.0
1966,64.0,0,60,11.0,64.0
1967,57.0,0,60,12.0,64.0
1968,57.0,30,60,12.0,64.0
1969,45.0,30,90,14.0,64.0
1970,57.0,0,90,13.0,64.0
1971,61.0,0,60,11.0,64.0
1972,64.0,0,60,11.0,64.0
1973,64.0,0,60,11.0,64.0
1974,61.0,60,60,11.0,64.0
1975,57.0,0,60,12.0,64.0
1976,57.0,0,60,12.0,64.0
1977,45.0,0,90,14.0,64.0
1978,57.0,30,90,13.0,64.0
1979,64.0,0,60,11.0,64.0
1980,61.0,0,60,11.0,64.0
1981,64.0,60,60,11.0,64.0
1982,57.0,0,60,12.0,64.0
1983,61.0,0,60,11.0,64.0
1984,45.0,0,90,14.0,64.0
1985,57.0,30,90,13.0,64.0
1986,57.0,0,60,12.0,64.0
1987,69.0,0,300,10.0,64.0
1988,61.0,0,60,11.0,64.0
1989,64.0,30,60,11.0,64.0
1990,57.0,60,60,12.0,64.0
1991,61.0,0,60,11.0,64.0
1992,64.0,0,60,11.0,64.0
1993,57.0,18,90,13.0,64.0
1994,45.0,0,90,14.0,64.0
1995,61.0,30,60,11.0,64.0
1996,64.0,0,60,11.0,64.0
1997,57.0,0,60,12.0,64.0
1998,57.0,60,60,12.0,64.0
1999,64.0,0,60,11.0,64.0
2000,61.0,0,60,11.0,64.0
2001,45.0,30,90,14.0,64.0
2002,64.0,30,60,11.0,64.0
2003,61.0,0,60,11.0,64.0
2004,57.0,0,90,13.0,64.0
2005,57.0,0,60,12.0,64.0
2006,64.0,0,60,11.0,64.0
2007,61.0,0,60,11.0,64.0
2008,57.0,60,60,12.0,64.0
2009,71.0,18,450,4.0,64.0
2010,59.0,30,90,13.0,64.0
2011,64.0,0,450,4.0,64.0
2012,64.0,0,60,11.0,64.0
2013,62.0,0,60,11.0,64.0
2014,47.0,0,90,14.0,64.0
2015,76.0,0,570,1.0,64.0
2016,74.0,12,570,1.0,64.0
2017,68.0,0,90,10.0,64.0
2018,59.0,30,60,12.0,64.0
2019,59.0,0,60,12.0,64.0
2020,62.0,0,60,11.0,64.0
2021,64.0,60,60,11.0,64.0
2022,47.0,30,90,14.0,64.0
2023,68.0,0,60,10.0,64.0
2024,64.0,0,60,11.0,64.0
2025,59.0,0,90,13.0,64.0
2026,62.0,0,60,11.0,64.0
2027,59.0,30,60,12.0,64.0
2028,62.0,0,60,11.0,64.0
2029,59.0,0,60,12.0,64.0
2030,69.0,0,60,10.0,64.0
2031,64.0,60,60,11.0,64.0
2032,64.0,30,60,11.0,64.0
2033,62.0,0,60,11.0,64.0
2034,59.0,0,60,12.0,64.0
2035,47.0,0,90,14.0,64.0
2036,59.0,30,90,13.0,64.0
2037,71.0,0,60,10.0,64.0
2038,64.0,0,60,11.0,64.0
2039,73.0,0,60,10.0,64.0
2040,62.0,0,60,11.0,64.0
2041,59.0,60,60,12.0,64.0
2042,62.0,0,60,11.0,64.0
2043,64.0,30,60,11.0,64.0
2044,47.0,0,90,14.0,64.0
2045,74.0,12,90,10.0,64.0
2046,59.0,0,90,13.0,64.0
2047,59.0,0,60,12.0,64.0
2048,59.0,0,60,12.0,64.0
2049,64.0,0,60,11.0,64.0
2050,62.0,60,60,11.0,64.0
2051,62.0,0,60,11.0,64.0
2052,64.0,30,60,11.0,64.0
2053,59.0,0,60,12.0,64.0
2054,59.0,0,90,13.0,64.0
2055,71.0,0,90,4.0,64.0
2056,47.0,18,90,14.0,64.0
2057,64.0,0,90,4.0,64.0
2058,62.0,0,60,11.0,64.0
2059,64.0,0,60,11.0,64.0
2060,59.0,60,60,12.0,64.0
2061,64.0,0,90,4.0,64.0
2062,71.0,30,90,4.0,64.0
2063,74.0,0,90,10.0,64.0
2064,47.0,0,90,14.0,64.0
2065,59.0,0,90,13.0,64.0
2066,62.0,30,60,11.0,64.0
2067,59.0,0,60,12.0,64.0
2068,64.0,0,60,11.0,64.0
2069,59.0,0,60,12.0,64.0
2070,62.0,0,60,11.0,64.0
2071,64.0,60,60,11.0,64.0
2072,64.0,0,570,4.0,64.0
2073,71.0,12,570,4.0,64.0
2074,64.0,0,60,11.0,64.0
2075,59.0,0,60,11.0,64.0
2076,56.0,30,90,13.0,64.0
2077,76.0,0,570,1.0,64.0
2078,44.0,0,90,14.0,64.0
2079,56.0,30,60,12.0,64.0
2080,74.0,0,570,1.0,64.0
2081,86.0,0,300,10.0,64.0
2082,59.0,60,60,11.0,64.0
2083,64.0,0,60,11.0,64.0
2084,56.0,0,60,12.0,64.0
2085,56.0,0,90,13.0,64.0
2086,64.0,0,60,11.0,64.0
2087,59.0,30,60,11.0,64.0
2088,56.0,0,60,12.0,64.0
2089,44.0,30,90,14.0,64.0
2090,64.0,0,60,11.0,64.0
2091,56.0,60,60,12.0,64.0
2092,59.0,0,60,11.0,64.0
2093,59.0,0,60,11.0,64.0
2094,44.0,30,90,14.0,64.0
2095,56.0,0,90,13.0,64.0
2096,64.0,0,60,11.0,64.0
2097,56.0,30,60,12.0,64.0
2098,56.0,60,60,12.0,64.0
2099,59.0,0,60,11.0,64.0
2100,64.0,0,60,11.0,64.0
2101,56.0,0,90,13.0,64.0
2102,71.0,0,60,11.0,64.0
2103,64.0,30,60,11.0,64.0
2104,74.0,0,300,10.0,64.0
2105,56.0,0,60,12.0,64.0
2106,44.0,30,90,14.0,64.0
2107,71.0,0,60,11.0,64.0
2108,56.0,60,60,12.0,64.0
2109,64.0,0,60,11.0,64.0
2110,44.0,18,90,14.0,64.0
2111,71.0,0,60,11.0,64.0
2112,56.0,0,90,13.0,64.0
2113,56.0,0,60,12.0,64.0
2114,64.0,30,60,11.0,64.0
2115,64.0,60,60,11.0,64.0
2116,71.0,0,60,11.0,64.0
2117,56.0,0,60,12.0,64.0
2118,44.0,30,90,14.0,64.0
2119,56.0,30,60,12.0,64.0
2120,56.0,0,90,13.0,64.0
2121,64.0,0,60,11.0,64.0
2122,71.0,0,60,11.0,64.0
2123,56.0,60,60,12.0,64.0
2124,71.0,0,60,11.0,64.0
2125,64.0,0,60,11.0,64.0
2126,76.0,0,300,1.0,64.0
2127,73.0,0,300,1.0,64.0
2128,69.0,0,60,11.0,64.0
2129,57.0,30,60,12.0,64.0
2130,45.0,30,90,14.0,64.0
2131,69.0,0,300,4.0,64.0
2132,64.0,0,60,11.0,64.0
2133,57.0,0,90,13.0,64.0
2134,73.0,30,300,4.0,64.0
2135,73.0,0,90,10.0,64.0
2136,64.0,0,60,11.0,64.0
2137,57.0,60,60,12.0,64.0
2138,69.0,0,60,11.0,64.0
2139,73.0,0,60,10.0,64.0
2140,57.0,30,60,12.0,64.0
2141,64.0,0,60,11.0,64.0
2142,69.0,0,60,11.0,64.0
2143,57.0,30,90,13.0,64.0
2144,45.0,0,90,14.0,64.0
2145,57.0,60,60,12.0,64.0
2146,74.0,0,60,10.0,64.0
2147,69.0,0,60,11.0,64.0
2148,64.0,0,60,11.0,64.0
2149,57.0,0,90,13.0,64.0
2150,64.0,0,60,11.0,64.0
2151,76.0,0,60,10.0,64.0
2152,69.0,0,60,11.0,64.0
2153,45.0,30,90,14.0,64.0
2154,57.0,0,60,12.0,64.0
2155,69.0,60,60,11.0,64.0
2156,64.0,0,60,11.0,64.0
2157,57.0,0,60,12.0,64.0
2158,78.0,0,60,10.0,64.0
2159,61.0,30,60,12.0,64.0
2160,69.0,0,90,4.0,64.0
2161,57.0,0,90,4.0,64.0
2162,37.0,0,90,14.0,64.0
2163,69.0,0,60,11.0,64.0
2164,49.0,18,90,13.0,64.0
2165,76.0,12,90,10.0,64.0
2166,69.0,60,60,11.0,64.0
2167,61.0,0,60,12.0,64.0
2168,69.0,0,90,4.0,64.0
2169,61.0,30,60,12.0,64.0
2170,49.0,30,90,13.0,64.0
2171,69.0,0,60,11.0,64.0
2172,57.0,0,90,4.0,64.0
2173,37.0,0,90,14.0,64.0
2174,69.0,60,60,11.0,64.0
2175,61.0,0,60,12.0,64.0
2176,49.0,0,90,14.0,64.0
2177,69.0,0,90,1.0,64.0
2178,69.0,0,60,11.0,64.0
2179,81.0,0,90,1.0,64.0
2180,61.0,30,60,12.0,64.0
2181,57.0,0,90,4.0,64.0
2182,69.0,0,90,4.0,64.0
2183,81.0,12,90,10.0,64.0
2184,61.0,18,90,13.0,64.0
2185,69.0,42,60,11.0,64.0
2186,61.0,0,60,12.0,64.0
2187,64.0,0,30,12.0,64.0
2188,52.0,0,30,14.0,64.0
2189,69.0,12,60,11.0,64.0
2190,80.0,18,30,10.0,64.0
2191,64.0,0,30,13.0,64.0
2192,80.0,0,30,1.0,64.0
2193,69.0,0,90,4.0,64.0
2194,57.0,12,90,4.0,64.0
2195,50.0,0,30,14.0,64.0
2196,62.0,0,30,12.0,64.0
2197,78.0,0,30,10.0,64.0
2198,62.0,30,30,13.0,64.0
2199,78.0,0,30,1.0,64.0
2200,80.0,0,30,1.0,64.0
2201,80.0,0,30,10.0,64.0
2202,52.0,0,30,14.0,64.0
2203,69.0,12,60,11.0,64.0
2204,64.0,0,30,12.0,64.0
2205,64.0,6,30,13.0,64.0
2206,78.0,0,30,10.0,64.0
2207,62.0,0,30,12.0,64.0
2208,50.0,0,30,14.0,64.0
2209,78.0,0,30,1.0,64.0
2210,62.0,48,30,13.0,64.0
2211,76.0,0,90,1.0,64.0
2212,49.0,0,90,14.0,64.0
2213,69.0,0,90,4.0,64.0
2214,57.0,12,90,4.0,64.0
2215,76.0,0,90,10.0,64.0
2216,69.0,30,60,11.0,64.0
2217,61.0,18,90,12.0,64.0
2218,61.0,0,90,13.0,64.0
2219,69.0,60,60,11.0,64.0
2220,69.0,18,60,11.0,64.0
2221,61.0,0,60,12.0,64.0
2222,49.0,0,60,14.0,64.0
2223,61.0,0,60,13.0,64.0
2224,76.0,42,60,10.0,64.0
2225,69.0,42,60,11.0,64.0
2226,76.0,0,30,10.0,64.0
2227,56.0,0,30,14.0,64.0
2228,76.0,0,30,1.0,64.0
2229,69.0,12,90,4.0,64.0
2230,57.0,0,90,4.0,64.0
2231,68.0,18,30,13.0,64.0
2232,69.0,12,60,11.0,64.0
2233,68.0,0,30,12.0,64.0
2234,74.0,30,30,10.0,64.0
2235,54.0,0,30,14.0,64.0
2236,66.0,0,30,12.0,64.0
2237,74.0,0,30,1.0,64.0
2238,66.0,0,30,13.0,64.0
2239,56.0,6,30,14.0,64.0
2240,68.0,0,30,12.0,64.0
2241,68.0,0,30,13.0,64.0
2242,76.0,0,30,1.0,64.0
2243,69.0,12,60,11.0,64.0
2244,76.0,0,30,10.0,64.0
2245,74.0,0,30,1.0,64.0
2246,74.0,0,30,10.0,64.0
2247,66.0,48,30,13.0,64.0
2248,54.0,0,30,14.0,64.0
2249,66.0,0,30,12.0,64.0
2250,52.0,18,90,14.0,64.0
2251,73.0,0,90,10.0,64.0
2252,57.0,12,90,4.0,64.0
2253,73.0,0,90,1.0,64.0
2254,69.0,30,60,11.0,64.0
2255,64.0,0,90,13.0,64.0
2256,64.0,0,90,12.0,64.0
2257,69.0,0,90,4.0,64.0
2258,69.0,60,60,11.0,64.0
2259,52.0,42,60,14.0,64.0
2260,64.0,0,60,12.0,64.0
2261,73.0,0,60,10.0,64.0
2262,64.0,0,60,13.0,64.0
2263,69.0,18,60,11.0,64.0
2264,69.0,42,60,11.0,64.0
2265,64.0,0,30,13.0,64.0
2266,80.0,0,30,1.0,64.0
2267,52.0,18,30,14.0,64.0
2268,69.0,12,60,11.0,64.0
2269,80.0,0,30,10.0,64.0
2270,64.0,0,30,12.0,64.0
2271,69.0,0,90,4.0,64.0
2272,57.0,12,90,4.0,64.0
2273,62.0,30,30,12.0,64.0
2274,62.0,0,30,13.0,64.0
2275,78.0,0,30,10.0,64.0
2276,78.0,0,30,1.0,64.0
2277,50.0,0,30,14.0,64.0
2278,69.0,12,60,11.0,64.0
2279,64.0,6,30,12.0,64.0
2280,80.0,0,30,1.0,64.0
2281,80.0,0,30,10.0,64.0
2282,64.0,0,30,13.0,64.0
2283,52.0,0,30,14.0,64.0
2284,78.0,0,30,1.0,64.0
2285,78.0,0,30,10.0,64.0
2286,50.0,48,30,14.0,64.0
2287,62.0,0,30,12.0,64.0
2288,62.0,0,30,13.0,64.0
2289,57.0,0,90,4.0,64.0
2290,61.0,0,90,12.0,64.0
2291,61.0,0,90,13.0,64.0
2292,69.0,12,90,4.0,64.0
2293,49.0,18,90,14.0,64.0
2294,76.0,0,90,1.0,64.0
2295,76.0,0,90,10.0,64.0
2296,69.0,30,60,11.0,64.0
2297,69.0,60,60,11.0,64.0
2298,76.0,0,60,10.0,64.0
2299,61.0,0,60,13.0,64.0
2300,49.0,0,60,14.0,64.0
2301,61.0,42,60,12.0,64.0
2302,69.0,18,60,11.0,64.0
2303,69.0,42,60,11.0,64.0
2304,76.0,0,30,1.0,64.0
2305,56.0,0,30,14.0,64.0
2306,68.0,0,30,12.0,64.0
2307,57.0,12,90,4.0,64.0
2308,68.0,0,30,13.0,64.0
2309,69.0,0,90,4.0,64.0
2310,69.0,12,60,11.0,64.0
2311,76.0,18,30,10.0,64.0
2312,74.0,0,30,1.0,64.0
2313,54.0,30,30,14.0,64.0
2314,74.0,0,30,10.0,64.0
2315,66.0,0,30,13.0,64.0
2316,66.0,0,30,12.0,64.0
2317,76.0,6,30,1.0,64.0
2318,68.0,0,30,13.0,64.0
2319,56.0,0,30,14.0,64.0
2320,76.0,0,30,10.0,64.0
2321,69.0,12,60,11.0,64.0
2322,68.0,0,30,12.0,64.0
2323,66.0,48,30,13.0,64.0
2324,74.0,0,30,10.0,64.0
2325,54.0,0,30,14.0,64.0
2326,66.0,0,30,12.0,64.0
2327,74.0,0,30,1.0,64.0
2328,73.0,18,90,1.0,64.0
2329,73.0,0,90,10.0,64.0
2330,69.0,12,90,4.0,64.0
2331,57.0,0,90,4.0,64.0
2332,64.0,0,90,13.0,64.0
2333,69.0,30,60,11.0,64.0
2334,52.0,0,90,14.0,64.0
2335,64.0,0,90,12.0,64.0
2336,69.0,60,60,11.0,64.0
2337,69.0,18,60,11.0,64.0
2338,64.0,0,60,13.0,64.0
2339,64.0,42,60,12.0,64.0
2340,73.0,0,60,10.0,64.0
2341,52.0,0,60,14.0,64.0
2342,69.0,78,60,11.0,64.0
2343,74.0,0,60,10.0,64.0
2344,74.0,0,60,11.0,64.0
2345,62.0,0,60,12.0,64.0
2346,50.0,0,60,14.0,64.0
2347,62.0,174,60,13.0,64.0
2348,74.0,0,60,1.0,64.0
2349,74.0,0,120,1.0,64.0
2350,62.0,0,120,12.0,64.0
2351,50.0,0,120,14.0,64.0
2352,74.0,0,120,10.0,64.0
2353,62.0,66,120,13.0,64.0
2354,74.0,0,120,11.0,64.0
2355,73.0,0,60,11.0,64.0
2356,49.0,120,60,14.0,64.0
2357,73.0,0,60,10.0,64.0
2358,73.0,0,60,1.0,64.0
2359,61.0,0,60,13.0,64.0
2360,61.0,0,60,12.0,64.0
2361,59.0,0,60,13.0,64.0
2362,59.0,0,60,12.0,64.0
2363,71.0,174,60,1.0,64.0
2364,71.0,0,60,10.0,64.0
2365,71.0,0,60,11.0,64.0
2366,47.0,0,60,14.0,64.0
2367,47.0,0,120,14.0,64.0
2368,59.0,0,120,12.0,64.0
2369,59.0,0,120,13.0,64.0
2370,71.0,0,120,1.0,64.0
2371,71.0,0,120,11.0,64.0
2372,71.0,66,120,10.0,64.0
2373,57.0,0,60,12.0,64.0
2374,69.0,120,60,10.0,64.0
2375,69.0,0,60,1.0,64.0
2376,57.0,0,60,13.0,64.0
2377,69.0,0,60,11.0,64.0
2378,45.0,0,60,14.0,64.0
2379,64.0,0,60,4.0,64.0
2380,44.0,0,60,14.0,64.0
2381,56.0,0,60,12.0,64.0
2382,68.0,120,60,10.0,64.0
2383,68.0,0,60,11.0,64.0
2384,71.0,0,60,4.0,64.0
2385,68.0,0,60,1.0,64.0
2386,56.0,0,60,13.0,64.0
2387,71.0,0,60,1.0,64.0
2388,59.0,120,60,12.0,64.0
2389,64.0,0,60,4.0,64.0
2390,71.0,0,60,4.0,64.0
2391,71.0,0,60,11.0,64.0
2392,47.0,0,60,14.0,64.0
2393,71.0,0,60,10.0,64.0
2394,59.0,0,60,13.0,64.0
2395,44.0,0,60,14.0,64.0
2396,68.0,0,60,11.0,64.0
2397,68.0,0,60,1.0,64.0
2398,68.0,0,60,10.0,64.0
2399,56.0,0,60,12.0,64.0
2400,71.0,0,60,4.0,64.0
2401,56.0,120,60,13.0,64.0
2402,64.0,0,60,4.0,64.0
2403,64.0,0,60,12.0,64.0
2404,52.0,0,60,14.0,64.0
2405,76.0,0,60,11.0,64.0
2406,64.0,0,60,13.0,64.0
2407,76.0,0,60,10.0,64.0
2408,76.0,0,60,1.0,64.0
2409,64.0,252,60,4.0,64.0
2410,71.0,0,60,4.0,64.0
2411,64.0,90,90,10.0,64.0
2412,33.0,12,90,14.0,64.0
2413,52.0,48,60,12.0,64.0
2414,61.0,0,60,11.0,64.0
2415,45.0,0,90,13.0,64.0
2416,69.0,0,300,10.0,64.0
2417,61.0,60,60,11.0,64.0
2418,52.0,0,60,12.0,64.0
2419,61.0,0,60,11.0,64.0
2420,45.0,0,90,13.0,64.0
2421,52.0,48,60,12.0,64.0
2422,33.0,12,90,14.0,64.0
2423,52.0,60,60,12.0,64.0
2424,61.0,0,60,11.0,64.0
2425,61.0,48,60,11.0,64.0
2426,45.0,12,90,13.0,64.0
2427,33.0,0,90,14.0,64.0
2428,52.0,0,60,12.0,64.0
2429,61.0,60,60,11.0,64.0
2430,52.0,0,60,12.0,64.0
2431,52.0,0,60,12.0,64.0
2432,57.0,48,300,10.0,64.0
2433,61.0,48,60,11.0,64.0
2434,45.0,0,90,13.0,64.0
2435,33.0,12,90,14.0,64.0
2436,52.0,60,60,12.0,64.0
2437,61.0,0,60,11.0,64.0
2438,61.0,0,60,11.0,64.0
2439,33.0,0,90,14.0,64.0
2440,52.0,48,60,12.0,64.0
2441,45.0,12,90,13.0,64.0
2442,52.0,60,60,12.0,64.0
2443,61.0,0,60,11.0,64.0
2444,33.0,12,90,14.0,64.0
2445,45.0,0,90,13.0,64.0
2446,52.0,0,60,12.0,64.0
2447,61.0,0,60,11.0,64.0
2448,52.0,60,60,12.0,64.0
2449,61.0,0,60,11.0,64.0
2450,52.0,30,60,12.0,64.0
2451,56.0,18,90,10.0,64.0
2452,47.0,0,90,13.0,64.0
2453,35.0,12,90,14.0,64.0
2454,62.0,0,60,11.0,64.0
2455,52.0,51,60,12.0,64.0
2456,62.0,0,60,11.0,64.0
2457,47.0,0,90,13.0,64.0
2458,52.0,0,60,12.0,64.0
2459,35.0,3,90,14.0,64.0
2460,62.0,48,60,11.0,64.0
2461,56.0,9,30,10.0,64.0
2462,52.0,51,60,12.0,64.0
2463,57.0,9,30,10.0,64.0
2464,62.0,0,60,11.0,64.0
2465,35.0,0,90,14.0,64.0
2466,62.0,0,60,11.0,64.0
2467,59.0,9,30,10.0,64.0
2468,52.0,48,60,12.0,64.0
2469,47.0,3,90,13.0,64.0
2470,62.0,0,60,11.0,64.0
2471,52.0,60,60,12.0,64.0
2472,61.0,9,30,10.0,64.0
2473,62.0,18,90,10.0,64.0
2474,56.0,30,60,11.0,64.0
2475,35.0,0,90,14.0,64.0
2476,47.0,12,90,13.0,64.0
2477,52.0,0,60,12.0,64.0
2478,56.0,0,60,11.0,64.0
2479,52.0,60,60,12.0,64.0
2480,56.0,48,60,11.0,64.0
2481,47.0,0,90,13.0,64.0
2482,52.0,0,60,12.0,64.0
2483,35.0,12,90,14.0,64.0
2484,52.0,0,60,12.0,64.0
2485,56.0,60,60,11.0,64.0
2486,52.0,0,60,12.0,64.0
2487,62.0,18,90,10.0,64.0
2488,35.0,12,90,14.0,64.0
2489,56.0,30,60,11.0,64.0
2490,47.0,0,90,13.0,64.0
2491,56.0,0,60,11.0,64.0
2492,52.0,60,60,12.0,64.0
2493,74.0,0,300,10.0,64.0
2494,59.0,48,60,11.0,64.0
2495,52.0,0,60,12.0,64.0
2496,44.0,0,90,13.0,64.0
2497,32.0,12,90,14.0,64.0
2498,52.0,0,60,12.0,64.0
2499,59.0,60,60,11.0,64.0
2500,59.0,0,60,11.0,64.0
2501,32.0,0,90,14.0,64.0
2502,52.0,48,60,12.0,64.0
2503,44.0,12,90,13.0,64.0
2504,59.0,60,60,11.0,64.0
2505,52.0,0,60,12.0,64.0
2506,44.0,12,90,13.0,64.0
2507,59.0,0,60,11.0,64.0
2508,52.0,48,60,12.0,64.0
2509,32.0,0,90,14.0,64.0
2510,59.0,0,60,11.0,64.0
2511,52.0,60,60,12.0,64.0
2512,59.0,48,60,11.0,64.0
2513,62.0,0,300,10.0,64.0
2514,52.0,0,60,12.0,64.0
2515,44.0,12,90,13.0,64.0
2516,32.0,0,90,14.0,64.0
2517,52.0,0,60,12.0,64.0
2518,59.0,60,60,11.0,64.0
2519,59.0,0,60,11.0,64.0
2520,44.0,12,90,13.0,64.0
2521,52.0,48,60,12.0,64.0
2522,32.0,0,90,14.0,64.0
2523,59.0,0,60,11.0,64.0
2524,52.0,60,60,12.0,64.0
2525,59.0,0,60,11.0,64.0
2526,32.0,12,90,14.0,64.0
2527,52.0,48,60,12.0,64.0
2528,44.0,0,90,13.0,64.0
2529,59.0,60,60,11.0,64.0
2530,52.0,0,60,12.0,64.0
2531,45.0,0,90,13.0,64.0
2532,33.0,12,90,14.0,64.0
2533,52.0,30,60,12.0,64.0
2534,61.0,18,90,10.0,64.0
2535,57.0,0,90,11.0,64.0
2536,52.0,51,60,12.0,64.0
2537,61.0,0,30,10.0,64.0
2538,45.0,3,90,13.0,64.0
2539,52.0,48,60,12.0,64.0
2540,33.0,0,90,14.0,64.0
2541,57.0,9,30,11.0,64.0
2542,52.0,51,60,12.0,64.0
2543,62.0,9,30,10.0,64.0
2544,59.0,0,30,11.0,64.0
2545,33.0,0,90,14.0,64.0
2546,45.0,3,90,13.0,64.0
2547,64.0,9,30,10.0,64.0
2548,52.0,48,60,12.0,64.0
2549,61.0,0,30,11.0,64.0
2550,66.0,9,30,10.0,64.0
2551,52.0,168,60,12.0,64.0
2552,62.0,0,30,11.0,64.0
2553,33.0,0,180,14.0,64.0
2554,45.0,126,180,13.0,64.0
2555,57.0,0,180,12.0,64.0
2556,61.0,0,150,11.0,64.0
2557,64.0,36,150,10.0,64.0
2558,73.0,0,90,12.0,64.0
2559,76.0,0,90,11.0,64.0
2560,81.0,72,90,10.0,64.0
2561,74.0,30,30,11.0,64.0
2562,71.0,0,30,12.0,64.0
2563,80.0,0,30,10.0,64.0
2564,69.0,0,30,12.0,64.0
2565,78.0,0,30,10.0,64.0
2566,73.0,30,30,11.0,64.0
2567,80.0,30,30,10.0,64.0
2568,71.0,0,30,12.0,64.0
2569,74.0,0,30,11.0,64.0
2570,69.0,0,30,12.0,64.0
2571,73.0,78,30,11.0,64.0
2572,78.0,0,30,10.0,64.0
2573,76.0,0,90,10.0,64.0
2574,71.0,0,90,11.0,64.0
2575,68.0,108,90,12.0,64.0
2576,68.0,0,60,12.0,64.0
2577,71.0,0,60,11.0,64.0
2578,76.0,84,60,10.0,64.0
2579,76.0,0,30,10.0,64.0
2580,68.0,0,30,12.0,64.0
2581,71.0,30,30,11.0,64.0
2582,74.0,0,30,10.0,64.0
2583,69.0,0,30,11.0,64.0
2584,66.0,30,30,12.0,64.0
2585,71.0,0,30,11.0,64.0
2586,68.0,0,30,12.0,64.0
2587,76.0,30,30,10.0,64.0
2588,69.0,78,30,11.0,64.0
2589,66.0,0,30,12.0,64.0
2590,74.0,0,30,10.0,64.0
2591,73.0,0,90,10.0,64.0
2592,68.0,0,90,11.0,64.0
2593,64.0,108,90,12.0,64.0
2594,73.0,0,60,10.0,64.0
2595,52.0,72,90,14.0,64.0
2596,68.0,0,60,11.0,64.0
2597,64.0,12,60,12.0,64.0
2598,64.0,0,90,13.0,64.0
2599,64.0,0,30,13.0,64.0
2600,52.0,0,30,14.0,64.0
2601,68.0,30,30,11.0,64.0
2602,73.0,0,30,10.0,64.0
2603,64.0,0,30,12.0,64.0
2604,62.0,30,30,12.0,64.0
2605,66.0,0,30,11.0,64.0
2606,62.0,0,30,13.0,64.0
2607,71.0,0,30,10.0,64.0
2608,50.0,0,30,14.0,64.0
2609,64.0,0,30,12.0,64.0
2610,68.0,30,30,11.0,64.0
2611,64.0,0,30,13.0,64.0
2612,73.0,0,30,10.0,64.0
2613,52.0,0,30,14.0,64.0
2614,71.0,0,30,10.0,64.0
2615,62.0,0,30,13.0,64.0
2616,62.0,78,30,12.0,64.0
2617,50.0,0,30,14.0,64.0
2618,66.0,0,30,11.0,64.0
2619,61.0,0,90,13.0,64.0
2620,49.0,0,90,14.0,64.0
2621,64.0,0,90,11.0,64.0
2622,69.0,108,90,10.0,64.0
2623,61.0,0,90,12.0,64.0
2624,69.0,0,60,10.0,64.0
2625,49.0,0,60,14.0,64.0
2626,64.0,0,60,11.0,64.0
2627,61.0,0,60,13.0,64.0
2628,61.0,84,60,12.0,64.0
2629,69.0,0,30,10.0,64.0
2630,49.0,0,30,14.0,64.0
2631,64.0,30,30,11.0,64.0
2632,61.0,0,30,13.0,64.0
2633,61.0,0,30,12.0,64.0
2634,59.0,0,30,12.0,64.0
2635,68.0,0,30,10.0,64.0
2636,59.0,0,30,13.0,64.0
2637,62.0,30,30,11.0,64.0
2638,47.0,0,30,14.0,64.0
2639,61.0,0,30,12.0,64.0
2640,61.0,30,30,13.0,64.0
2641,64.0,0,30,11.0,64.0
2642,49.0,0,30,14.0,64.0
2643,69.0,0,30,10.0,64.0
2644,47.0,0,30,14.0,64.0
2645,59.0,0,30,13.0,64.0
2646,62.0,78,30,11.0,64.0
2647,59.0,0,30,12.0,64.0
2648,68.0,0,30,10.0,64.0
2649,57.0,108,90,13.0,64.0
2650,66.0,0,90,10.0,64.0
2651,57.0,0,90,12.0,64.0
2652,61.0,0,90,11.0,64.0
2653,45.0,0,90,14.0,64.0
2654,66.0,0,60,10.0,64.0
2655,57.0,102,60,12.0,64.0
2656,61.0,0,60,11.0,64.0
2657,45.0,0,60,14.0,64.0
2658,57.0,0,60,13.0,64.0
2659,59.0,0,60,11.0,64.0
2660,64.0,0,300,10.0,64.0
2661,62.0,48,60,12.0,64.0
2662,71.0,48,300,4.0,64.0
2663,64.0,0,300,4.0,64.0
2664,44.0,0,90,14.0,64.0
2665,64.0,0,300,1.0,64.0
2666,56.0,12,90,13.0,64.0
2667,59.0,0,60,11.0,64.0
2668,62.0,60,60,12.0,64.0
2669,59.0,48,60,11.0,64.0
2670,44.0,0,90,14.0,64.0
2671,56.0,12,90,13.0,64.0
2672,62.0,0,60,12.0,64.0
2673,62.0,60,60,12.0,64.0
2674,59.0,0,60,11.0,64.0
2675,59.0,0,60,11.0,64.0
2676,56.0,12,90,13.0,64.0
2677,62.0,0,60,12.0,64.0
2678,44.0,0,90,14.0,64.0
2679,59.0,60,60,11.0,64.0
2680,62.0,0,60,12.0,64.0
2681,74.0,48,300,10.0,64.0
2682,56.0,0,90,13.0,64.0
2683,44.0,12,90,14.0,64.0
2684,71.0,48,60,11.0,64.0
2685,64.0,0,60,12.0,64.0
2686,74.0,0,300,1.0,64.0
2687,71.0,60,60,11.0,64.0
2688,64.0,0,60,12.0,64.0
2689,64.0,48,60,12.0,64.0
2690,56.0,0,90,13.0,64.0
2691,71.0,0,90,4.0,64.0
2692,64.0,12,90,4.0,64.0
2693,71.0,0,60,11.0,64.0
2694,44.0,0,90,14.0,64.0
2695,71.0,0,60,11.0,64.0
2696,64.0,60,60,12.0,64.0
2697,64.0,0,60,12.0,64.0
2698,64.0,0,90,4.0,64.0
2699,71.0,12,90,4.0,64.0
2700,71.0,0,60,11.0,64.0
2701,44.0,0,90,14.0,64.0
2702,56.0,0,90,13.0,64.0
2703,71.0,60,60,11.0,64.0
2704,64.0,0,60,12.0,64.0
2705,69.0,0,60,11.0,64.0
2706,64.0,48,60,12.0,64.0
2707,73.0,0,300,10.0,64.0
2708,69.0,48,300,4.0,64.0
2709,73.0,0,300,4.0,64.0
2710,45.0,12,90,14.0,64.0
2711,57.0,0,90,13.0,64.0
2712,73.0,0,300,1.0,64.0
2713,69.0,0,60,11.0,64.0
2714,64.0,60,60,12.0,64.0
2715,57.0,0,90,13.0,64.0
2716,64.0,0,60,12.0,64.0
2717,69.0,48,60,11.0,64.0
2718,45.0,12,90,14.0,64.0
2719,69.0,0,60,11.0,64.0
2720,64.0,60,60,12.0,64.0
2721,45.0,12,90,14.0,64.0
2722,64.0,0,60,12.0,64.0
2723,69.0,0,60,11.0,64.0
2724,57.0,0,90,13.0,64.0
2725,69.0,0,60,11.0,64.0
2726,64.0,60,60,12.0,64.0
2727,57.0,0,90,13.0,64.0
2728,81.0,0,300,10.0,64.0
2729,45.0,12,90,14.0,64.0
2730,76.0,48,60,11.0,64.0
2731,73.0,0,60,11.0,64.0
2732,69.0,0,60,12.0,64.0
2733,81.0,48,300,1.0,64.0
2734,69.0,60,60,12.0,64.0
2735,73.0,0,60,11.0,64.0
2736,76.0,0,60,11.0,64.0
2737,57.0,0,90,13.0,64.0
2738,69.0,48,60,12.0,64.0
2739,76.0,0,60,11.0,64.0
2740,69.0,12,90,4.0,64.0
2741,61.0,0,90,4.0,64.0
2742,45.0,0,90,14.0,64.0
2743,73.0,0,60,11.0,64.0
2744,69.0,60,60,12.0,64.0
2745,76.0,0,60,11.0,64.0
2746,73.0,0,60,11.0,64.0
2747,69.0,0,60,12.0,64.0
2748,45.0,0,90,14.0,64.0
2749,57.0,0,90,13.0,64.0
2750,69.0,12,90,4.0,64.0
2751,73.0,0,60,11.0,64.0
2752,61.0,0,90,4.0,64.0
2753,76.0,0,60,11.0,64.0
2754,76.0,60,60,11.0,64.0
2755,73.0,0,60,11.0,64.0
2756,69.0,0,60,12.0,64.0
2757,50.0,0,300,13.0,64.0
2758,38.0,0,300,14.0,64.0
2759,57.0,24,180,4.0,64.0
2760,78.0,0,60,11.0,64.0
2761,69.0,0,180,4.0,64.0
2762,78.0,0,300,1.0,64.0
2763,69.0,12,90,12.0,64.0
2764,78.0,48,60,10.0,64.0
2765,76.0,60,60,11.0,64.0
2766,76.0,0,60,10.0,64.0
2767,66.0,12,90,12.0,64.0
2768,74.0,0,60,11.0,64.0
2769,74.0,24,60,10.0,64.0
2770,73.0,0,60,11.0,64.0
2771,73.0,60,60,10.0,64.0
2772,71.0,0,60,11.0,64.0
2773,71.0,60,60,10.0,64.0
2774,69.0,0,60,10.0,64.0
2775,69.0,60,60,11.0,64.0
2776,68.0,48,60,11.0,64.0
2777,68.0,0,300,1.0,64.0
2778,40.0,0,300,14.0,64.0
2779,59.0,12,90,12.0,64.0
2780,52.0,0,300,13.0,64.0
2781,68.0,0,60,10.0,64.0
2782,64.0,0,300,4.0,64.0
2783,66.0,60,60,10.0,64.0
2784,66.0,0,60,11.0,64.0
2785,56.0,12,90,12.0,64.0
2786,64.0,48,60,10.0,64.0
2787,64.0,0,60,11.0,64.0
2788,62.0,60,60,10.0,64.0
2789,62.0,0,60,11.0,64.0
2790,61.0,60,60,10.0,64.0
2791,61.0,0,60,11.0,64.0
2792,59.0,78,60,11.0,64.0
2793,59.0,0,60,10.0,64.0
2794,57.0,0,60,10.0,64.0
2795,45.0,0,60,13.0,64.0
2796,57.0,0,60,4.0,64.0
2797,57.0,0,60,11.0,64.0
2798,33.0,120,60,14.0,64.0
2799,57.0,0,60,12.0,64.0
2800,69.0,0,60,1.0,64.0
2801,52.0,0,60,13.0,64.0
2802,76.0,0,60,1.0,64.0
2803,64.0,0,60,10.0,64.0
2804,40.0,120,60,14.0,64.0
2805,64.0,0,60,12.0,64.0
2806,64.0,0,60,11.0,64.0
2807,64.0,0,60,4.0,64.0
2808,61.0,0,60,11.0,64.0
2809,61.0,0,60,4.0,64.0
2810,37.0,0,60,14.0,64.0
2811,61.0,120,60,10.0,64.0
2812,61.0,0,60,12.0,64.0
2813,73.0,0,60,1.0,64.0
2814,49.0,0,60,13.0,64.0
2815,57.0,0,60,13.0,64.0
2816,69.0,0,60,11.0,64.0
2817,45.0,0,60,14.0,64.0
2818,69.0,0,60,4.0,64.0
2819,69.0,0,60,12.0,64.0
2820,81.0,240,60,1.0,64.0
2821,69.0,0,60,10.0,64.0
2822,69.0,102,60,10.0,64.0
2823,64.0,48,300,10.0,64.0
2824,59.0,0,60,11.0,64.0
2825,56.0,0,90,13.0,64.0
2826,44.0,12,90,14.0,64.0
2827,62.0,48,60,12.0,64.0
2828,59.0,60,60,11.0,64.0
2829,62.0,0,60,12.0,64.0
2830,56.0,12,90,13.0,64.0
2831,62.0,0,60,12.0,64.0
2832,44.0,0,90,14.0,64.0
2833,59.0,48,60,11.0,64.0
2834,62.0,60,60,12.0,64.0
2835,59.0,0,60,11.0,64.0
2836,59.0,0,60,11.0,64.0
2837,56.0,12,90,13.0,64.0
2838,62.0,0,60,12.0,64.0
2839,44.0,0,90,14.0,64.0
2840,59.0,60,60,11.0,64.0
2841,62.0,0,60,12.0,64.0
2842,44.0,12,90,14.0,64.0
2843,71.0,0,60,11.0,64.0
2844,74.0,48,300,10.0,64.0
2845,56.0,0,90,13.0,64.0
2846,64.0,48,60,12.0,64.0
2847,71.0,60,60,11.0,64.0
2848,64.0,0,60,12.0,64.0
2849,64.0,0,60,12.0,64.0
2850,56.0,12,90,13.0,64.0
2851,71.0,48,60,11.0,64.0
2852,44.0,0,90,14.0,64.0
2853,64.0,60,60,12.0,64.0
2854,71.0,0,60,11.0,64.0
2855,71.0,0,60,11.0,64.0
2856,64.0,0,60,12.0,64.0
2857,56.0,0,90,13.0,64.0
2858,44.0,12,90,14.0,64.0
2859,71.0,60,60,11.0,64.0
2860,64.0,0,60,12.0,64.0
2861,64.0,48,60,12.0,64.0
2862,73.0,48,300,10.0,64.0
2863,57.0,0,90,13.0,64.0
2864,69.0,0,60,11.0,64.0
2865,45.0,12,90,14.0,64.0
2866,69.0,0,60,11.0,64.0
2867,64.0,60,60,12.0,64.0
2868,64.0,48,60,12.0,64.0
2869,57.0,0,90,13.0,64.0
2870,69.0,0,60,11.0,64.0
2871,45.0,12,90,14.0,64.0
2872,64.0,0,60,12.0,64.0
2873,69.0,60,60,11.0,64.0
2874,64.0,0,60,12.0,64.0
2875,57.0,0,90,13.0,64.0
2876,69.0,0,60,11.0,64.0
2877,45.0,12,90,14.0,64.0
2878,64.0,0,60,12.0,64.0
2879,69.0,60,60,11.0,64.0
2880,57.0,12,90,13.0,64.0
2881,81.0,0,300,10.0,64.0
2882,76.0,48,60,11.0,64.0
2883,73.0,0,60,11.0,64.0
2884,69.0,0,60,12.0,64.0
2885,45.0,0,90,14.0,64.0
2886,69.0,0,60,12.0,64.0
2887,73.0,60,60,11.0,64.0
2888,76.0,0,60,11.0,64.0
2889,69.0,0,60,12.0,64.0
2890,73.0,48,60,11.0,64.0
2891,76.0,0,60,11.0,64.0
2892,57.0,12,90,13.0,64.0
2893,45.0,0,90,14.0,64.0
2894,76.0,60,60,11.0,64.0
2895,69.0,0,60,12.0,64.0
2896,73.0,0,60,11.0,64.0
2897,73.0,0,60,11.0,64.0
2898,76.0,0,60,11.0,64.0
2899,57.0,12,90,13.0,64.0
2900,69.0,48,60,12.0,64.0
2901,45.0,0,90,14.0,64.0
2902,73.0,60,60,11.0,64.0
2903,69.0,0,60,12.0,64.0
2904,76.0,0,60,11.0,64.0
2905,38.0,0,300,14.0,64.0
2906,78.0,0,60,10.0,64.0
2907,50.0,0,300,13.0,64.0
2908,69.0,0,60,12.0,64.0
2909,78.0,60,60,11.0,64.0
2910,68.0,60,60,12.0,64.0
2911,76.0,0,60,10.0,64.0
2912,76.0,0,60,11.0,64.0
2913,66.0,60,60,12.0,64.0
2914,74.0,0,60,11.0,64.0
2915,74.0,0,60,10.0,64.0
2916,64.0,60,60,12.0,64.0
2917,73.0,0,60,11.0,64.0
2918,73.0,0,60,10.0,64.0
2919,62.0,0,60,12.0,64.0
2920,71.0,60,60,11.0,64.0
2921,71.0,0,60,10.0,64.0
2922,69.0,0,60,10.0,64.0
2923,61.0,60,60,12.0,64.0
2924,69.0,0,60,11.0,64.0
2925,59.0,60,60,12.0,64.0
2926,68.0,0,60,11.0,64.0
2927,40.0,0,300,14.0,64.0
2928,68.0,0,60,10.0,64.0
2929,52.0,0,300,13.0,64.0
2930,66.0,0,60,10.0,64.0
2931,66.0,0,60,11.0,64.0
2932,57.0,60,60,12.0,64.0
2933,64.0,60,60,10.0,64.0
2934,64.0,0,60,11.0,64.0
2935,56.0,0,60,12.0,64.0
2936,62.0,0,60,11.0,64.0
2937,62.0,60,60,10.0,64.0
2938,54.0,0,60,12.0,64.0
2939,61.0,0,60,11.0,64.0
2940,52.0,60,60,12.0,64.0
2941,61.0,0,60,10.0,64.0
2942,59.0,0,60,10.0,64.0
2943,50.0,60,60,12.0,64.0
2944,59.0,0,60,11.0,64.0
2945,57.0,42,60,4.0,64.0
2946,69.0,24,1410,1.0,64.0
2947,57.0,36,180,10.0,64.0
2948,33.0,0,60,14.0,64.0
2949,49.0,18,60,12.0,64.0
2950,45.0,0,60,13.0,64.0
2951,57.0,0,60,11.0,64.0
2952,49.0,0,60,12.0,64.0
2953,57.0,60,60,11.0,64.0
2954,40.0,6,60,14.0,64.0
2955,52.0,0,60,13.0,64.0
2956,49.0,18,60,12.0,64.0
2957,64.0,0,60,4.0,64.0
2958,57.0,0,60,11.0,64.0
2959,49.0,0,60,12.0,64.0
2960,57.0,60,60,11.0,64.0
2961,61.0,0,60,4.0,64.0
2962,49.0,0,60,13.0,64.0
2963,49.0,18,60,12.0,64.0
2964,57.0,0,60,11.0,64.0
2965,37.0,42,60,14.0,64.0
2966,57.0,60,60,11.0,64.0
2967,49.0,0,60,12.0,64.0
2968,45.0,0,60,14.0,64.0
2969,49.0,18,60,12.0,64.0
2970,57.0,42,60,13.0,64.0
2971,69.0,0,60,4.0,64.0
2972,57.0,0,60,11.0,64.0
2973,49.0,0,60,12.0,64.0
2974,57.0,60,60,11.0,64.0
2975,57.0,0,60,11.0,64.0
2976,49.0,60,60,12.0,64.0
2977,57.0,60,60,11.0,64.0
2978,49.0,0,60,12.0,64.0
2979,49.0,60,60,12.0,64.0
2980,57.0,0,60,11.0,64.0
2981,57.0,0,60,11.0,64.0
2982,49.0,60,60,12.0,64.0
2983,49.0,18,60,12.0,64.0
2984,73.0,42,60,10.0,64.0
2985,57.0,0,60,11.0,64.0
2986,49.0,60,60,12.0,64.0
2987,57.0,0,60,11.0,64.0
2988,57.0,0,60,11.0,64.0
2989,81.0,42,60,10.0,64.0
2990,49.0,18,60,12.0,64.0
2991,57.0,60,60,11.0,64.0
2992,49.0,0,60,12.0,64.0
2993,49.0,18,60,12.0,64.0
2994,57.0,0,60,11.0,64.0
2995,76.0,42,60,10.0,64.0
2996,57.0,60,60,11.0,64.0
2997,49.0,0,60,12.0,64.0
2998,49.0,0,60,12.0,64.0
2999,57.0,18,60,11.0,64.0
3000,85.0,42,60,10.0,64.0
3001,57.0,0,60,11.0,64.0
3002,49.0,60,60,12.0,64.0
3003,57.0,0,60,11.0,64.0
3004,49.0,60,60,12.0,64.0
3005,57.0,0,60,11.0,64.0
3006,49.0,60,60,12.0,64.0
3007,57.0,0,60,11.0,64.0
3008,49.0,36,60,12.0,64.0
3009,57.0,0,60,11.0,64.0
3010,49.0,60,60,12.0,64.0
3011,76.0,24,1410,1.0,64.0
3012,64.0,0,60,11.0,64.0
3013,32.0,42,60,14.0,64.0
3014,56.0,18,60,12.0,64.0
3015,44.0,0,60,13.0,64.0
3016,64.0,0,60,4.0,64.0
3017,71.0,0,1410,1.0,64.0
3018,64.0,0,60,11.0,64.0
3019,56.0,60,60,12.0,64.0
3020,52.0,0,60,13.0,64.0
3021,56.0,0,60,12.0,64.0
3022,64.0,18,60,11.0,64.0
3023,64.0,0,60,4.0,64.0
3024,40.0,42,60,14.0,64.0
3025,56.0,0,60,12.0,64.0
3026,64.0,60,60,11.0,64.0
3027,47.0,0,60,13.0,64.0
3028,64.0,42,60,4.0,64.0
3029,56.0,0,60,12.0,64.0
3030,64.0,18,60,11.0,64.0
3031,35.0,0,60,14.0,64.0
3032,56.0,0,60,12.0,64.0
3033,64.0,60,60,11.0,64.0
3034,56.0,42,60,13.0,64.0
3035,64.0,0,60,4.0,64.0
3036,64.0,18,60,11.0,64.0
3037,56.0,0,60,12.0,64.0
3038,44.0,0,60,14.0,64.0
3039,56.0,0,60,12.0,64.0
3040,64.0,60,60,11.0,64.0
3041,56.0,60,60,12.0,64.0
3042,64.0,0,60,11.0,64.0
3043,64.0,0,60,11.0,64.0
3044,56.0,60,60,12.0,64.0
3045,56.0,0,60,12.0,64.0
3046,64.0,60,60,11.0,64.0
3047,64.0,60,60,11.0,64.0
3048,56.0,0,60,12.0,64.0
3049,64.0,18,60,11.0,64.0
3050,56.0,0,60,12.0,64.0
3051,71.0,42,60,10.0,64.0
3052,56.0,0,60,12.0,64.0
3053,64.0,60,60,11.0,64.0
3054,64.0,18,60,11.0,64.0
3055,56.0,0,60,12.0,64.0
3056,80.0,42,60,10.0,64.0
3057,56.0,60,60,12.0,64.0
3058,64.0,0,60,11.0,64.0
3059,76.0,42,60,10.0,64.0
3060,64.0,18,60,11.0,64.0
3061,56.0,0,60,12.0,64.0
3062,56.0,0,60,12.0,64.0
3063,64.0,60,60,11.0,64.0
3064,83.0,42,60,10.0,64.0
3065,56.0,18,60,12.0,64.0
3066,64.0,0,60,11.0,64.0
3067,56.0,60,60,12.0,64.0
3068,64.0,0,60,11.0,64.0
3069,64.0,60,60,11.0,64.0
3070,56.0,0,60,12.0,64.0
3071,64.0,60,60,11.0,64.0
3072,56.0,0,60,12.0,64.0
3073,64.0,36,60,11.0,64.0
3074,56.0,0,60,12.0,64.0
3075,56.0,60,60,12.0,64.0
3076,64.0,0,60,11.0,64.0
3077,81.0,0,1410,1.0,64.0
3078,75.0,24,1410,1.0,64.0
3079,54.0,42,60,13.0,64.0
3080,63.0,0,60,11.0,64.0
3081,42.0,0,60,14.0,64.0
3082,57.0,0,60,4.0,64.0
3083,69.0,0,60,4.0,64.0
3084,54.0,18,60,12.0,64.0
3085,54.0,60,60,12.0,64.0
3086,63.0,0,60,11.0,64.0
3087,63.0,42,60,13.0,64.0
3088,63.0,18,60,11.0,64.0
3089,69.0,0,60,4.0,64.0
3090,57.0,0,60,4.0,64.0
3091,54.0,0,60,12.0,64.0
3092,51.0,0,60,14.0,64.0
3093,63.0,60,60,11.0,64.0
3094,54.0,0,60,12.0,64.0
3095,57.0,42,60,4.0,64.0
3096,69.0,0,60,4.0,64.0
3097,57.0,0,60,13.0,64.0
3098,54.0,18,60,12.0,64.0
3099,63.0,0,60,11.0,64.0
3100,45.0,0,60,14.0,64.0
3101,54.0,60,60,12.0,64.0
3102,63.0,0,60,11.0,64.0
3103,69.0,0,60,4.0,64.0
3104,57.0,0,60,4.0,64.0
3105,54.0,0,60,14.0,64.0
3106,63.0,18,60,11.0,64.0
3107,66.0,42,60,13.0,64.0
3108,54.0,0,60,12.0,64.0
3109,54.0,60,60,12.0,64.0
3110,63.0,0,60,11.0,64.0
3111,63.0,0,60,11.0,64.0
3112,54.0,60,60,12.0,64.0
3113,63.0,60,60,11.0,64.0
3114,54.0,0,60,12.0,64.0
3115,63.0,60,60,11.0,64.0
3116,54.0,0,60,12.0,64.0
3117,54.0,0,60,12.0,64.0
3118,63.0,60,60,11.0,64.0
3119,54.0,18,60,12.0,64.0
3120,69.0,42,60,10.0,64.0
3121,63.0,0,60,11.0,64.0
3122,63.0,0,60,11.0,64.0
3123,54.0,60,60,12.0,64.0
3124,63.0,18,60,11.0,64.0
3125,54.0,0,60,12.0,64.0
3126,78.0,42,60,10.0,64.0
3127,63.0,0,60,11.0,64.0
3128,54.0,60,60,12.0,64.0
3129,63.0,18,60,11.0,64.0
3130,54.0,0,60,12.0,64.0
3131,75.0,42,60,10.0,64.0
3132,63.0,0,60,11.0,64.0
3133,54.0,60,60,12.0,64.0
3134,63.0,0,60,11.0,64.0
3135,54.0,18,60,12.0,64.0
3136,81.0,42,60,10.0,64.0
3137,63.0,60,60,11.0,64.0
3138,54.0,0,60,12.0,64.0
3139,54.0,0,60,12.0,64.0
3140,63.0,60,60,11.0,64.0
3141,54.0,60,60,12.0,64.0
3142,63.0,0,60,11.0,64.0
3143,54.0,0,60,12.0,64.0
3144,63.0,36,60,11.0,64.0
3145,54.0,0,60,12.0,64.0
3146,63.0,60,60,11.0,64.0
3147,40.0,0,60,14.0,64.0
3148,64.0,0,60,4.0,64.0
3149,52.0,0,60,12.0,64.0
3150,71.0,0,1410,1.0,64.0
3151,80.0,24,1410,1.0,64.0
3152,64.0,18,60,11.0,64.0
3153,52.0,42,60,13.0,64.0
3154,64.0,0,60,11.0,64.0
3155,52.0,60,60,12.0,64.0
3156,64.0,0,60,4.0,64.0
3157,47.0,0,60,14.0,64.0
3158,59.0,42,60,13.0,64.0
3159,52.0,0,60,12.0,64.0
3160,64.0,18,60,11.0,64.0
3161,64.0,0,60,11.0,64.0
3162,52.0,60,60,12.0,64.0
3163,52.0,0,60,12.0,64.0
3164,56.0,0,60,13.0,64.0
3165,64.0,0,60,4.0,64.0
3166,64.0,18,60,11.0,64.0
3167,44.0,42,60,14.0,64.0
3168,64.0,0,60,11.0,64.0
3169,52.0,60,60,12.0,64.0
3170,52.0,0,60,14.0,64.0
3171,64.0,18,60,11.0,64.0
3172,64.0,0,60,4.0,64.0
3173,52.0,0,60,12.0,64.0
3174,64.0,42,60,13.0,64.0
3175,64.0,60,60,11.0,64.0
3176,52.0,0,60,12.0,64.0
3177,52.0,60,60,12.0,64.0
3178,64.0,0,60,11.0,64.0
3179,64.0,60,60,11.0,64.0
3180,52.0,0,60,12.0,64.0
3181,64.0,0,60,11.0,64.0
3182,52.0,60,60,12.0,64.0
3183,52.0,0,60,12.0,64.0
3184,64.0,60,60,11.0,64.0
3185,76.0,42,60,10.0,64.0
3186,52.0,18,60,12.0,64.0
3187,64.0,0,60,11.0,64.0
3188,64.0,0,60,11.0,64.0
3189,52.0,60,60,12.0,64.0
3190,64.0,18,60,11.0,64.0
3191,83.0,42,60,10.0,64.0
3192,52.0,0,60,12.0,64.0
3193,64.0,0,60,11.0,64.0
3194,52.0,60,60,12.0,64.0
3195,52.0,18,60,12.0,64.0
3196,64.0,0,60,11.0,64.0
3197,80.0,42,60,10.0,64.0
3198,64.0,60,60,11.0,64.0
3199,52.0,0,60,12.0,64.0
3200,88.0,42,60,10.0,64.0
3201,64.0,0,60,11.0,64.0
3202,52.0,18,60,12.0,64.0
3203,64.0,0,60,11.0,64.0
3204,52.0,60,60,12.0,64.0
3205,52.0,60,60,12.0,64.0
3206,64.0,0,60,11.0,64.0
3207,52.0,0,60,12.0,64.0
3208,64.0,60,60,11.0,64.0
3209,64.0,0,60,11.0,64.0
3210,52.0,36,60,12.0,64.0
3211,64.0,60,60,11.0,64.0
3212,52.0,0,60,12.0,64.0
3213,45.0,30,90,14.0,64.0
3214,78.0,30,60,10.0,64.0
3215,64.0,0,2100,4.0,64.0
3216,76.0,30,1740,4.0,64.0
3217,57.0,0,90,13.0,64.0
3218,73.0,0,300,1.0,64.0
3219,76.0,0,60,11.0,64.0
3220,78.0,0,300,1.0,64.0
3221,73.0,0,60,12.0,64.0
3222,76.0,0,60,11.0,64.0
3223,73.0,0,60,12.0,64.0
3224,78.0,60,60,10.0,64.0
3225,45.0,30,90,14.0,64.0
3226,57.0,0,90,13.0,64.0
3227,73.0,0,60,12.0,64.0
3228,76.0,30,60,11.0,64.0
3229,78.0,0,60,10.0,64.0
3230,78.0,0,60,10.0,64.0
3231,73.0,60,60,12.0,64.0
3232,76.0,0,60,11.0,64.0
3233,57.0,0,90,13.0,64.0
3234,73.0,0,60,12.0,64.0
3235,45.0,30,90,14.0,64.0
3236,78.0,30,60,10.0,64.0
3237,76.0,0,60,11.0,64.0
3238,76.0,0,60,11.0,64.0
3239,78.0,60,60,10.0,64.0
3240,73.0,0,60,12.0,64.0
3241,80.0,0,300,1.0,64.0
3242,71.0,0,300,1.0,64.0
3243,76.0,0,60,11.0,64.0
3244,59.0,30,90,13.0,64.0
3245,80.0,0,60,10.0,64.0
3246,71.0,30,60,12.0,64.0
3247,47.0,0,90,14.0,64.0
3248,71.0,0,60,12.0,64.0
3249,80.0,60,60,10.0,64.0
3250,76.0,0,60,11.0,64.0
3251,80.0,0,60,10.0,64.0
3252,59.0,30,90,13.0,64.0
3253,47.0,0,90,14.0,64.0
3254,71.0,0,60,12.0,64.0
3255,76.0,30,60,11.0,64.0
3256,71.0,60,60,12.0,64.0
3257,80.0,0,60,10.0,64.0
3258,76.0,0,60,11.0,64.0
3259,76.0,0,60,11.0,64.0
3260,47.0,30,90,14.0,64.0
3261,59.0,0,90,13.0,64.0
3262,71.0,30,60,12.0,64.0
3263,80.0,0,60,10.0,64.0
3264,71.0,0,60,12.0,64.0
3265,80.0,0,60,10.0,64.0
3266,76.0,60,60,11.0,64.0
3267,69.0,0,60,12.0,64.0
3268,81.0,0,60,10.0,64.0
3269,49.0,30,90,14.0,64.0
3270,61.0,0,90,13.0,64.0
3271,69.0,0,300,1.0,64.0
3272,76.0,30,60,11.0,64.0
3273,81.0,0,300,1.0,64.0
3274,76.0,0,60,11.0,64.0
3275,69.0,60,60,12.0,64.0
3276,81.0,0,60,10.0,64.0
3277,76.0,30,60,11.0,64.0
3278,69.0,0,60,12.0,64.0
3279,81.0,0,60,10.0,64.0
3280,61.0,30,90,13.0,64.0
3281,49.0,0,90,14.0,64.0
3282,69.0,60,60,12.0,64.0
3283,81.0,0,60,10.0,64.0
3284,76.0,0,60,11.0,64.0
3285,69.0,30,60,12.0,64.0
3286,49.0,30,90,14.0,64.0
3287,76.0,0,60,11.0,64.0
3288,81.0,0,60,10.0,64.0
3289,61.0,0,90,13.0,64.0
3290,81.0,60,60,10.0,64.0
3291,76.0,0,60,11.0,64.0
3292,69.0,0,60,12.0,64.0
3293,59.0,0,90,13.0,64.0
3294,76.0,0,60,11.0,64.0
3295,80.0,0,300,1.0,64.0
3296,71.0,0,300,1.0,64.0
3297,80.0,0,60,10.0,64.0
3298,47.0,30,90,14.0,64.0
3299,71.0,30,60,12.0,64.0
3300,76.0,0,60,11.0,64.0
3301,80.0,60,60,10.0,64.0
3302,71.0,0,60,12.0,64.0
3303,76.0,0,60,11.0,64.0
3304,47.0,30,90,14.0,64.0
3305,71.0,0,60,12.0,64.0
3306,59.0,0,90,13.0,64.0
3307,80.0,30,60,10.0,64.0
3308,80.0,0,60,10.0,64.0
3309,76.0,0,60,11.0,64.0
3310,71.0,60,60,12.0,64.0
3311,47.0,30,90,14.0,64.0
3312,59.0,0,90,13.0,64.0
3313,80.0,0,60,10.0,64.0
3314,71.0,30,60,12.0,64.0
3315,76.0,0,60,11.0,64.0
3316,76.0,0,60,11.0,64.0
3317,71.0,0,60,12.0,64.0
3318,80.0,60,60,10.0,64.0
3319,76.0,0,60,11.0,64.0
3320,73.0,0,300,1.0,64.0
3321,78.0,0,660,1.0,64.0
3322,78.0,30,60,10.0,64.0
3323,57.0,30,90,13.0,64.0
3324,73.0,0,60,12.0,64.0
3325,45.0,0,90,14.0,64.0
3326,78.0,0,60,10.0,64.0
3327,76.0,0,60,11.0,64.0
3328,73.0,60,60,12.0,64.0
3329,76.0,0,60,11.0,64.0
3330,73.0,30,60,12.0,64.0
3331,45.0,0,90,14.0,64.0
3332,78.0,0,60,10.0,64.0
3333,57.0,30,90,13.0,64.0
3334,76.0,0,60,11.0,64.0
3335,78.0,0,60,10.0,64.0
3336,73.0,60,60,12.0,64.0
3337,45.0,30,90,14.0,64.0
3338,57.0,0,90,13.0,64.0
3339,73.0,0,60,12.0,64.0
3340,76.0,0,60,11.0,64.0
3341,78.0,0,60,10.0,64.0
3342,76.0,0,60,11.0,64.0
3343,78.0,60,60,10.0,64.0
3344,73.0,0,60,12.0,64.0
3345,78.0,0,60,10.0,64.0
3346,46.0,30,90,14.0,64.0
3347,76.0,30,60,11.0,64.0
3348,73.0,0,300,4.0,64.0
3349,76.0,0,300,1.0,64.0
3350,58.0,0,90,13.0,64.0
3351,73.0,0,60,12.0,64.0
3352,73.0,0,60,12.0,64.0
3353,78.0,0,60,10.0,64.0
3354,76.0,60,60,11.0,64.0
3355,78.0,30,60,10.0,64.0
3356,73.0,0,60,12.0,64.0
3357,46.0,0,90,14.0,64.0
3358,58.0,30,90,13.0,64.0
3359,76.0,0,60,11.0,64.0
3360,73.0,0,60,12.0,64.0
3361,78.0,0,60,10.0,64.0
3362,76.0,60,60,11.0,64.0
3363,73.0,30,60,12.0,64.0
3364,58.0,0,90,13.0,64.0
3365,46.0,30,90,14.0,64.0
3366,78.0,0,60,10.0,64.0
3367,76.0,0,60,11.0,64.0
3368,78.0,0,60,10.0,64.0
3369,76.0,0,60,11.0,64.0
3370,73.0,90,60,12.0,64.0
3371,78.0,0,90,1.0,64.0
3372,75.0,0,90,1.0,64.0
3373,59.0,0,90,13.0,64.0
3374,78.0,0,90,10.0,64.0
3375,47.0,0,90,14.0,64.0
3376,71.0,0,90,12.0,64.0
3377,75.0,0,90,11.0,64.0
3378,71.0,120,90,4.0,64.0
3379,71.0,0,90,4.0,64.0
3380,83.0,120,90,10.0,64.0
3381,47.0,0,90,13.0,64.0
3382,83.0,0,90,1.0,64.0
3383,75.0,0,90,1.0,64.0
3384,71.0,0,90,12.0,64.0
3385,75.0,0,90,11.0,64.0
3386,78.0,0,90,11.0,64.0
3387,35.0,0,90,14.0,64.0
3388,71.0,0,90,4.0,64.0
3389,47.0,234,90,13.0,64.0
3390,71.0,0,90,12.0,64.0
3391,83.0,0,90,1.0,64.0
3392,75.0,0,90,1.0,64.0
3393,83.0,0,90,10.0,64.0
3394,78.0,0,90,11.0,64.0
3395,75.0,0,90,11.0,64.0
3396,35.0,0,90,14.0,64.0
3397,35.0,228,180,14.0,64.0
3398,47.0,0,180,13.0,64.0
3399,59.0,0,180,12.0,64.0
3400,83.0,0,180,1.0,64.0
3401,75.0,0,180,1.0,64.0
3402,83.0,0,180,10.0,64.0
3403,71.0,0,180,4.0,64.0
3404,78.0,0,180,11.0,64.0
3405,75.0,0,180,11.0,64.0
3406,70.0,144,60,10.0,64.0
3407,71.0,216,150,10.0,64.0
3408,73.0,144,60,10.0,64.0
3409,71.0,216,150,10.0,64.0
3410,70.0,144,60,10.0,64.0
3411,67.0,0,60,11.0,64.0
3412,68.0,0,150,11.0,64.0
3413,71.0,216,150,10.0,64.0
3414,69.0,144,60,11.0,64.0
3415,52.0,0,360,12.0,64.0
3416,52.0,0,360,13.0,64.0
3417,73.0,0,60,10.0,64.0
3418,40.0,60,360,14.0,64.0
3419,71.0,0,150,10.0,64.0
3420,68.0,156,150,11.0,64.0
3421,70.0,144,60,10.0,64.0
3422,42.0,0,360,14.0,64.0
3423,51.0,60,360,12.0,64.0
3424,69.0,120,450,11.0,64.0
3425,54.0,0,360,13.0,64.0
3426,71.0,156,150,10.0,64.0
3427,51.0,0,300,13.0,64.0
3428,73.0,18,60,10.0,64.0
3429,39.0,30,300,14.0,64.0
3430,54.0,0,300,12.0,64.0
3431,71.0,84,150,10.0,64.0
3432,66.0,6,90,11.0,64.0
3433,64.0,102,90,11.0,64.0
3434,57.0,0,360,12.0,64.0
3435,70.0,78,60,10.0,64.0
3436,47.0,60,360,13.0,64.0
3437,64.0,0,60,11.0,64.0
3438,35.0,0,360,14.0,64.0
3439,71.0,15,150,10.0,64.0
3440,63.0,66,90,11.0,64.0
3441,61.0,99,30,11.0,64.0
3442,59.0,42,90,11.0,64.0
3443,73.0,144,60,10.0,64.0
3444,54.0,0,300,12.0,64.0
3445,45.0,48,300,14.0,64.0
3446,61.0,48,240,11.0,64.0
3447,57.0,0,300,13.0,64.0
3448,71.0,36,150,10.0,64.0
3449,63.0,84,90,11.0,64.0
3450,64.0,96,240,11.0,64.0
3451,56.0,0,360,13.0,64.0
3452,56.0,60,360,12.0,64.0
3453,44.0,0,360,14.0,64.0
3454,58.0,144,60,10.0,64.0
3455,59.0,36,150,10.0,64.0
3456,59.0,24,90,11.0,64.0
3457,82.0,132,60,10.0,64.0
3458,40.0,0,300,14.0,64.0
3459,52.0,132,300,13.0,64.0
3460,52.0,0,300,12.0,64.0
3461,56.0,12,180,11.0,64.0
3462,83.0,84,150,10.0,64.0
3463,67.0,144,60,11.0,64.0
3464,70.0,0,60,10.0,64.0
3465,68.0,216,150,11.0,64.0
3466,71.0,0,150,10.0,64.0
3467,69.0,144,60,11.0,64.0
3468,73.0,0,60,10.0,64.0
3469,40.0,0,360,14.0,64.0
3470,52.0,0,360,12.0,64.0
3471,52.0,60,360,13.0,64.0
3472,71.0,0,150,10.0,64.0
3473,68.0,156,150,11.0,64.0
3474,70.0,144,60,10.0,64.0
3475,54.0,0,360,13.0,64.0
3476,42.0,60,360,14.0,64.0
3477,51.0,0,360,12.0,64.0
3478,69.0,120,450,11.0,64.0
3479,71.0,156,150,10.0,64.0
3480,54.0,30,300,12.0,64.0
3481,51.0,0,300,13.0,64.0
3482,39.0,0,300,14.0,64.0
3483,73.0,18,60,10.0,64.0
3484,71.0,84,150,10.0,64.0
3485,66.0,6,90,11.0,64.0
3486,64.0,102,90,11.0,64.0
3487,70.0,78,60,10.0,64.0
3488,35.0,0,360,14.0,64.0
3489,47.0,60,360,13.0,64.0
3490,64.0,0,60,11.0,64.0
3491,57.0,0,360,12.0,64.0
3492,63.0,66,90,11.0,64.0
3493,71.0,15,150,10.0,64.0
3494,61.0,99,30,11.0,64.0
3495,59.0,42,90,11.0,64.0
3496,57.0,0,300,13.0,64.0
3497,73.0,144,60,10.0,64.0
3498,54.0,0,300,12.0,64.0
3499,61.0,48,240,11.0,64.0
3500,45.0,48,300,14.0,64.0
3501,71.0,36,150,10.0,64.0
3502,63.0,84,90,11.0,64.0
3503,44.0,60,360,14.0,64.0
3504,56.0,0,360,12.0,64.0
3505,58.0,144,60,10.0,64.0
3506,64.0,96,240,11.0,64.0
3507,56.0,0,360,13.0,64.0
3508,59.0,36,150,10.0,64.0
3509,59.0,24,90,11.0,64.0
3510,56.0,120,90,11.0,64.0
3511,40.0,0,300,14.0,64.0
3512,52.0,0,300,12.0,64.0
3513,52.0,30,300,13.0,64.0
3514,82.0,18,60,10.0,64.0
3515,83.0,84,150,10.0,64.0
3516,71.0,6,90,11.0,64.0
3517,71.0,108,90,11.0,64.0
3518,64.0,0,60,12.0,64.0
3519,71.0,120,450,11.0,64.0
3520,57.0,0,60,13.0,64.0
3521,45.0,132,60,14.0,64.0
3522,73.0,120,90,10.0,64.0
3523,73.0,108,90,10.0,64.0
3524,66.0,12,60,12.0,64.0
3525,54.0,0,60,13.0,64.0
3526,42.0,0,60,14.0,64.0
3527,73.0,120,450,10.0,64.0
3528,69.0,120,90,11.0,64.0
3529,69.0,108,90,11.0,64.0
3530,69.0,120,450,11.0,64.0
3531,66.0,0,60,12.0,64.0
3532,39.0,0,60,14.0,64.0
3533,51.0,12,60,13.0,64.0
3534,71.0,120,90,10.0,64.0
3535,71.0,108,90,10.0,64.0
3536,52.0,12,60,13.0,64.0
3537,40.0,0,60,14.0,64.0
3538,64.0,0,60,12.0,64.0
3539,71.0,120,450,10.0,64.0
3540,68.0,120,90,11.0,64.0
3541,68.0,108,90,11.0,64.0
3542,64.0,12,60,12.0,64.0
3543,68.0,120,450,11.0,64.0
3544,37.0,0,60,14.0,64.0
3545,49.0,0,60,13.0,64.0
3546,69.0,120,90,10.0,64.0
3547,69.0,108,90,10.0,64.0
3548,63.0,0,60,12.0,64.0
3549,39.0,0,60,14.0,64.0
3550,51.0,12,60,13.0,64.0
3551,69.0,120,450,10.0,64.0
3552,66.0,120,90,11.0,64.0
3553,66.0,108,90,11.0,64.0
3554,63.0,0,60,12.0,64.0
3555,66.0,120,450,11.0,64.0
3556,36.0,12,60,14.0,64.0
3557,48.0,0,60,13.0,64.0
3558,68.0,120,90,10.0,64.0
3559,68.0,108,90,10.0,64.0
3560,68.0,120,450,10.0,64.0
3561,49.0,0,60,13.0,64.0
3562,61.0,0,60,12.0,64.0
3563,37.0,12,60,14.0,64.0
3564,64.0,120,90,11.0,64.0
3565,64.0,108,90,11.0,64.0
3566,45.0,0,60,13.0,64.0
3567,64.0,120,450,11.0,64.0
3568,61.0,0,60,12.0,64.0
3569,33.0,12,60,14.0,64.0
3570,66.0,120,90,10.0,64.0
3571,66.0,108,90,10.0,64.0
3572,47.0,0,60,13.0,64.0
3573,35.0,12,60,14.0,64.0
3574,59.0,0,60,12.0,64.0
3575,66.0,84,240,10.0,64.0
3576,63.0,36,90,11.0,64.0
3577,63.0,402,90,11.0,64.0
3578,58.0,0,720,12.0,64.0
3579,76.0,240,1080,1.0,64.0
3580,79.0,0,720,1.0,64.0
3581,64.0,0,360,10.0,64.0
3582,34.0,0,720,14.0,64.0
3583,46.0,240,720,13.0,64.0
3584,61.0,342,360,11.0,64.0
3585,73.0,18,330,10.0,64.0
3586,64.0,0,330,11.0,64.0
3587,35.0,360,720,14.0,64.0
3588,59.0,0,240,10.0,64.0
3589,56.0,114,240,11.0,64.0
3590,80.0,0,360,1.0,64.0
3591,47.0,0,720,13.0,64.0
3592,59.0,0,720,12.0,64.0
3593,68.0,0,120,10.0,64.0
3594,64.0,6,120,11.0,64.0
3595,57.0,102,240,10.0,64.0
3596,63.0,0,330,11.0,64.0
3597,75.0,0,330,1.0,64.0
3598,78.0,12,330,1.0,64.0
3599,66.0,6,120,10.0,64.0
3600,34.0,0,720,14.0,64.0
3601,76.0,240,1080,1.0,64.0
3602,61.0,342,360,11.0,64.0
3603,58.0,240,720,12.0,64.0
3604,79.0,0,720,1.0,64.0
3605,64.0,0,360,10.0,64.0
3606,46.0,0,720,13.0,64.0
3607,73.0,0,330,10.0,64.0
3608,64.0,18,330,11.0,64.0
3609,35.0,0,690,14.0,64.0
3610,47.0,0,690,13.0,64.0
3611,80.0,0,360,1.0,64.0
3612,56.0,0,240,11.0,64.0
3613,59.0,18,690,12.0,64.0
3614,59.0,114,240,10.0,64.0
3615,64.0,6,120,11.0,64.0
3616,68.0,0,120,10.0,64.0
3617,57.0,84,240,10.0,64.0
3618,75.0,0,330,1.0,64.0
3619,63.0,12,330,11.0,64.0
3620,78.0,0,330,1.0,64.0
3621,66.0,54,120,10.0,64.0
3622,64.0,6,180,11.0,64.0
3623,64.0,30,60,10.0,64.0
3624,56.0,0,90,12.0,64.0
3625,40.0,0,90,14.0,64.0
3626,52.0,30,90,13.0,64.0
3627,71.0,12,570,4.0,64.0
3628,64.0,0,570,4.0,64.0
3629,80.0,0,570,1.0,64.0
3630,76.0,0,570,1.0,64.0
3631,71.0,60,60,10.0,64.0
3632,64.0,0,90,13.0,64.0
3633,71.0,24,60,10.0,64.0
3634,68.0,0,90,12.0,64.0
3635,52.0,30,90,14.0,64.0
3636,71.0,60,60,10.0,64.0
3637,52.0,30,90,14.0,64.0
3638,71.0,30,60,10.0,64.0
3639,64.0,0,90,13.0,64.0
3640,68.0,0,90,12.0,64.0
3641,71.0,60,60,10.0,64.0
3642,71.0,24,180,10.0,64.0
3643,68.0,0,150,12.0,64.0
3644,64.0,0,150,13.0,64.0
3645,80.0,60,60,11.0,64.0
3646,52.0,12,150,14.0,64.0
3647,71.0,48,60,11.0,64.0
3648,71.0,24,60,11.0,64.0
3649,71.0,60,60,11.0,64.0
3650,40.0,30,90,14.0,64.0
3651,52.0,0,90,13.0,64.0
3652,71.0,30,60,11.0,64.0
3653,56.0,0,90,12.0,64.0
3654,71.0,60,60,11.0,64.0
3655,71.0,6,180,11.0,64.0
3656,71.0,0,570,4.0,64.0
3657,54.0,0,90,12.0,64.0
3658,78.0,12,570,1.0,64.0
3659,81.0,30,60,10.0,64.0
3660,81.0,0,570,1.0,64.0
3661,39.0,30,90,14.0,64.0
3662,51.0,0,90,13.0,64.0
3663,71.0,60,60,10.0,64.0
3664,63.0,0,90,13.0,64.0
3665,66.0,0,90,12.0,64.0
3666,51.0,30,90,14.0,64.0
3667,71.0,24,60,10.0,64.0
3668,71.0,60,60,10.0,64.0
3669,71.0,30,60,10.0,64.0
3670,66.0,0,90,12.0,64.0
3671,51.0,0,90,14.0,64.0
3672,63.0,30,90,13.0,64.0
3673,71.0,60,60,10.0,64.0
3674,69.0,60,60,11.0,64.0
3675,71.0,24,180,10.0,64.0
3676,51.0,12,150,14.0,64.0
3677,66.0,0,150,12.0,64.0
3678,63.0,0,150,13.0,64.0
3679,71.0,48,60,11.0,64.0
3680,71.0,24,60,11.0,64.0
3681,71.0,60,60,11.0,64.0
3682,54.0,0,90,12.0,64.0
3683,71.0,30,60,11.0,64.0
3684,39.0,0,90,14.0,64.0
3685,51.0,30,90,13.0,64.0
3686,71.0,60,60,11.0,64.0
3687,71.0,0,570,4.0,64.0
3688,40.0,0,90,14.0,64.0
3689,52.0,30,90,13.0,64.0
3690,56.0,0,90,12.0,64.0
3691,64.0,12,570,4.0,64.0
3692,76.0,0,570,1.0,64.0
3693,80.0,30,60,10.0,64.0
3694,68.0,6,180,11.0,64.0
3695,80.0,0,570,1.0,64.0
3696,71.0,60,60,10.0,64.0
3697,68.0,0,90,12.0,64.0
3698,52.0,0,90,14.0,64.0
3699,71.0,24,60,10.0,64.0
3700,64.0,30,90,13.0,64.0
3701,71.0,60,60,10.0,64.0
3702,52.0,0,90,14.0,64.0
3703,68.0,30,90,12.0,64.0
3704,64.0,0,90,13.0,64.0
3705,71.0,30,60,10.0,64.0
3706,71.0,60,60,10.0,64.0
3707,64.0,0,150,13.0,64.0
3708,71.0,24,180,10.0,64.0
3709,80.0,60,60,11.0,64.0
3710,52.0,12,150,14.0,64.0
3711,68.0,0,150,12.0,64.0
3712,71.0,48,60,11.0,64.0
3713,71.0,24,60,11.0,64.0
3714,71.0,60,60,11.0,64.0
3715,71.0,30,60,11.0,64.0
3716,40.0,30,90,14.0,64.0
3717,52.0,0,90,13.0,64.0
3718,56.0,0,90,12.0,64.0
3719,71.0,60,60,11.0,64.0
3720,54.0,0,90,12.0,64.0
3721,78.0,0,570,1.0,64.0
3722,81.0,12,570,1.0,64.0
3723,39.0,30,90,14.0,64.0
3724,81.0,30,60,10.0,64.0
3725,71.0,0,570,4.0,64.0
3726,51.0,0,90,13.0,64.0
3727,71.0,6,180,11.0,64.0
3728,71.0,60,60,10.0,64.0
3729,63.0,0,90,13.0,64.0
3730,51.0,0,90,14.0,64.0
3731,66.0,30,90,12.0,64.0
3732,71.0,24,60,10.0,64.0
3733,71.0,60,60,10.0,64.0
3734,71.0,30,60,10.0,64.0
3735,63.0,0,90,13.0,64.0
3736,51.0,30,90,14.0,64.0
3737,66.0,0,90,12.0,64.0
3738,71.0,60,60,10.0,64.0
3739,51.0,12,150,14.0,64.0
3740,71.0,24,180,10.0,64.0
3741,69.0,60,60,11.0,64.0
3742,63.0,0,150,13.0,64.0
3743,66.0,0,150,12.0,64.0
3744,71.0,48,60,11.0,64.0
3745,71.0,24,60,11.0,64.0
3746,71.0,60,60,11.0,64.0
3747,39.0,30,90,14.0,64.0
3748,51.0,0,90,13.0,64.0
3749,71.0,30,60,11.0,64.0
3750,54.0,0,90,12.0,64.0
3751,71.0,90,60,11.0,64.0
3752,80.0,0,180,10.0,64.0
3753,71.0,0,180,10.0,64.0
3754,64.0,0,180,10.0,64.0
3755,52.0,0,90,13.0,64.0
3756,71.0,0,180,11.0,64.0
3757,76.0,0,180,11.0,64.0
3758,71.0,0,180,1.0,64.0
3759,80.0,6,180,1.0,64.0
3760,40.0,0,90,14.0,64.0
3761,68.0,0,180,11.0,64.0
3762,64.0,0,90,4.0,64.0
3763,52.0,114,90,12.0,64.0
3764,64.0,0,90,12.0,64.0
3765,64.0,0,90,4.0,64.0
3766,52.0,0,90,14.0,64.0
3767,64.0,120,90,13.0,64.0
3768,64.0,0,90,13.0,64.0
3769,64.0,120,90,12.0,64.0
3770,52.0,0,90,14.0,64.0
3771,64.0,0,90,4.0,64.0
3772,52.0,0,90,14.0,64.0
3773,64.0,114,90,13.0,64.0
3774,64.0,0,90,4.0,64.0
3775,81.0,0,180,1.0,64.0
3776,73.0,0,180,1.0,64.0
3777,64.0,0,90,12.0,64.0
3778,73.0,0,180,10.0,64.0
3779,81.0,0,180,10.0,64.0
3780,64.0,0,180,10.0,64.0
3781,73.0,6,180,11.0,64.0
3782,69.0,0,180,11.0,64.0
3783,76.0,0,180,11.0,64.0
3784,64.0,0,90,12.0,64.0
3785,52.0,0,90,14.0,64.0
3786,64.0,0,90,13.0,64.0
3787,64.0,120,90,4.0,64.0
3788,52.0,0,90,14.0,64.0
3789,64.0,0,90,12.0,64.0
3790,64.0,0,90,13.0,64.0
3791,64.0,120,90,4.0,64.0
3792,64.0,0,90,12.0,64.0
3793,80.0,0,180,1.0,64.0
3794,52.0,0,90,14.0,64.0
3795,71.0,0,180,10.0,64.0
3796,71.0,0,180,1.0,64.0
3797,64.0,0,180,10.0,64.0
3798,68.0,6,180,11.0,64.0
3799,80.0,0,180,10.0,64.0
3800,64.0,0,90,4.0,64.0
3801,71.0,0,180,11.0,64.0
3802,76.0,0,180,11.0,64.0
3803,64.0,114,90,13.0,64.0
3804,64.0,0,90,13.0,64.0
3805,64.0,120,90,4.0,64.0
3806,52.0,0,90,14.0,64.0
3807,64.0,0,90,12.0,64.0
3808,64.0,0,90,12.0,64.0
3809,52.0,120,90,14.0,64.0
3810,64.0,0,90,13.0,64.0
3811,64.0,0,90,4.0,64.0
3812,76.0,0,180,11.0,64.0
3813,64.0,0,90,4.0,64.0
3814,52.0,0,90,14.0,64.0
3815,73.0,0,180,11.0,64.0
3816,73.0,6,180,10.0,64.0
3817,64.0,0,90,12.0,64.0
3818,73.0,0,180,1.0,64.0
3819,64.0,0,180,10.0,64.0
3820,81.0,0,180,10.0,64.0
3821,64.0,114,90,13.0,64.0
3822,81.0,0,180,1.0,64.0
3823,69.0,0,180,11.0,64.0
3824,52.0,0,90,14.0,64.0
3825,64.0,120,90,12.0,64.0
3826,64.0,0,90,4.0,64.0
3827,64.0,0,90,13.0,64.0
3828,52.0,120,90,14.0,64.0
3829,64.0,0,90,12.0,64.0
3830,64.0,0,90,4.0,64.0
3831,64.0,0,90,13.0,64.0
3832,64.0,114,90,4.0,64.0
3833,64.0,0,90,12.0,64.0
3834,64.0,0,90,13.0,64.0
3835,71.0,0,180,10.0,64.0
3836,52.0,0,90,14.0,64.0
3837,76.0,0,180,11.0,64.0
3838,71.0,0,180,11.0,64.0
3839,71.0,0,180,1.0,64.0
3840,80.0,0,180,1.0,64.0
3841,80.0,0,180,10.0,64.0
3842,64.0,6,180,10.0,64.0
3843,68.0,0,180,11.0,64.0
3844,64.0,0,90,12.0,64.0
3845,64.0,120,90,13.0,64.0
3846,52.0,0,90,14.0,64.0
3847,64.0,0,90,4.0,64.0
3848,64.0,120,90,12.0,64.0
3849,64.0,0,90,4.0,64.0
3850,52.0,0,90,14.0,64.0
3851,64.0,0,90,13.0,64.0
3852,64.0,0,180,10.0,64.0
3853,64.0,114,90,13.0,64.0
3854,81.0,0,180,10.0,64.0
3855,81.0,0,180,1.0,64.0
3856,73.0,6,180,10.0,64.0
3857,73.0,0,180,1.0,64.0
3858,64.0,0,90,4.0,64.0
3859,52.0,0,90,14.0,64.0
3860,64.0,0,90,12.0,64.0
3861,73.0,0,180,11.0,64.0
3862,76.0,0,180,11.0,64.0
3863,69.0,0,180,11.0,64.0
3864,64.0,120,90,13.0,64.0
3865,52.0,0,90,14.0,64.0
3866,64.0,0,90,4.0,64.0
3867,64.0,0,90,12.0,64.0
3868,64.0,234,90,4.0,64.0
3869,64.0,0,90,13.0,64.0
3870,64.0,0,90,12.0,64.0
3871,52.0,0,90,14.0,64.0
3872,80.0,0,180,10.0,64.0
3873,71.0,0,180,10.0,64.0
3874,64.0,0,180,10.0,64.0
3875,52.0,0,180,14.0,64.0
3876,64.0,0,180,12.0,64.0
3877,76.0,0,180,11.0,64.0
3878,68.0,624,180,11.0,64.0
3879,80.0,0,180,1.0,64.0
3880,71.0,0,180,1.0,64.0
3881,64.0,0,180,13.0,64.0
3882,71.0,0,180,11.0,64.0
3883,64.0,0,180,4.0,64.0
3884,64.0,0,30,10.0,64.0
3885,64.0,60,30,11.0,64.0
3886,66.0,60,30,10.0,64.0
3887,66.0,0,30,11.0,64.0
3888,68.0,0,30,11.0,64.0
3889,68.0,60,30,10.0,64.0
3890,69.0,60,30,11.0,64.0
3891,69.0,0,30,10.0,64.0
3892,71.0,60,30,10.0,64.0
3893,71.0,0,30,11.0,64.0
3894,73.0,0,30,11.0,64.0
3895,73.0,60,30,10.0,64.0
3896,75.0,60,30,11.0,64.0
3897,75.0,0,30,10.0,64.0
3898,76.0,60,30,11.0,64.0
3899,76.0,0,30,10.0,64.0
3900,78.0,0,30,10.0,64.0
3901,78.0,60,30,11.0,64.0
3902,80.0,60,30,11.0,64.0
3903,80.0,0,30,10.0,64.0
3904,81.0,0,30,10.0,64.0
3905,81.0,216,30,11.0,64.0
3906,83.0,0,180,11.0,64.0
3907,83.0,486,180,10.0,64.0
3908,76.0,90,90,10.0,64.0
3909,57.0,30,60,12.0,64.0
3910,57.0,0,90,13.0,64.0
3911,79.0,0,300,10.0,64.0
3912,73.0,0,690,1.0,64.0
3913,64.0,0,60,11.0,64.0
3914,64.0,0,690,4.0,64.0
3915,57.0,0,690,4.0,64.0
3916,79.0,24,690,1.0,64.0
3917,45.0,30,90,14.0,64.0
3918,61.0,0,60,11.0,64.0
3919,57.0,0,60,12.0,64.0
3920,61.0,60,60,11.0,64.0
3921,64.0,0,60,11.0,64.0
3922,57.0,30,90,13.0,64.0
3923,45.0,0,90,14.0,64.0
3924,57.0,0,60,12.0,64.0
3925,61.0,0,60,11.0,64.0
3926,64.0,30,60,11.0,64.0
3927,64.0,0,60,11.0,64.0
3928,57.0,0,60,12.0,64.0
3929,61.0,60,60,11.0,64.0
3930,45.0,0,90,14.0,64.0
3931,61.0,0,60,11.0,64.0
3932,64.0,0,60,11.0,64.0
3933,57.0,30,90,13.0,64.0
3934,57.0,30,60,12.0,64.0
3935,61.0,60,60,11.0,64.0
3936,57.0,0,60,12.0,64.0
3937,64.0,0,60,11.0,64.0
3938,67.0,0,300,10.0,64.0
3939,57.0,0,60,12.0,64.0
3940,57.0,0,90,13.0,64.0
3941,64.0,0,60,11.0,64.0
3942,61.0,30,60,11.0,64.0
3943,45.0,30,90,14.0,64.0
3944,57.0,0,60,12.0,64.0
3945,61.0,60,60,11.0,64.0
3946,64.0,0,60,11.0,64.0
3947,45.0,30,90,14.0,64.0
3948,64.0,0,60,11.0,64.0
3949,57.0,30,60,12.0,64.0
3950,61.0,0,60,11.0,64.0
3951,57.0,0,90,13.0,64.0
3952,64.0,60,60,11.0,64.0
3953,61.0,0,60,11.0,64.0
3954,57.0,0,60,12.0,64.0
3955,57.0,30,60,12.0,64.0
3956,64.0,0,60,11.0,64.0
3957,57.0,6,90,13.0,64.0
3958,61.0,0,60,11.0,64.0
3959,45.0,0,90,14.0,64.0
3960,57.0,60,60,12.0,64.0
3961,64.0,0,60,11.0,64.0
3962,61.0,0,60,11.0,64.0
3963,74.0,24,690,1.0,64.0
3964,78.0,0,690,1.0,64.0
3965,66.0,0,90,10.0,64.0
3966,45.0,30,90,14.0,64.0
3967,62.0,0,60,11.0,64.0
3968,57.0,0,690,4.0,64.0
3969,69.0,0,690,4.0,64.0
3970,57.0,0,90,13.0,64.0
3971,57.0,30,60,12.0,64.0
3972,62.0,0,60,11.0,64.0
3973,57.0,51,60,12.0,64.0
3974,57.0,0,90,13.0,64.0
3975,66.0,9,30,10.0,64.0
3976,45.0,21,90,14.0,64.0
3977,57.0,30,60,12.0,64.0
3978,62.0,0,60,11.0,64.0
3979,62.0,0,60,11.0,64.0
3980,57.0,51,60,12.0,64.0
3981,64.0,9,30,10.0,64.0
3982,62.0,30,60,11.0,64.0
3983,57.0,0,90,13.0,64.0
3984,66.0,9,30,10.0,64.0
3985,45.0,21,90,14.0,64.0
3986,57.0,0,60,12.0,64.0
3987,62.0,60,60,11.0,64.0
3988,67.0,9,30,10.0,64.0
3989,57.0,0,60,12.0,64.0
3990,57.0,0,60,12.0,64.0
3991,57.0,0,90,13.0,64.0
3992,62.0,30,60,11.0,64.0
3993,66.0,0,90,10.0,64.0
3994,45.0,30,90,14.0,64.0
3995,57.0,0,60,12.0,64.0
3996,62.0,60,60,11.0,64.0
3997,57.0,30,90,13.0,64.0
3998,57.0,0,60,12.0,64.0
3999,62.0,30,60,11.0,64.0
4000,45.0,0,90,14.0,64.0
4001,57.0,60,60,12.0,64.0
4002,62.0,0,60,11.0,64.0
4003,69.0,0,90,10.0,64.0
4004,62.0,0,60,11.0,64.0
4005,57.0,30,60,12.0,64.0
4006,57.0,0,90,13.0,64.0
4007,45.0,6,90,14.0,64.0
4008,57.0,60,60,12.0,64.0
4009,62.0,0,60,11.0,64.0
4010,74.0,6,330,1.0,64.0
4011,57.0,18,690,4.0,64.0
4012,81.0,30,300,10.0,64.0
4013,66.0,0,60,11.0,64.0
4014,62.0,30,60,12.0,64.0
4015,69.0,0,690,4.0,64.0
4016,57.0,30,90,13.0,64.0
4017,78.0,0,330,1.0,64.0
4018,45.0,0,90,14.0,64.0
4019,62.0,60,60,12.0,64.0
4020,66.0,0,60,11.0,64.0
4021,66.0,0,60,11.0,64.0
4022,57.0,0,90,13.0,64.0
4023,62.0,30,60,12.0,64.0
4024,45.0,30,90,14.0,64.0
4025,66.0,60,60,11.0,64.0
4026,62.0,0,60,12.0,64.0
4027,66.0,0,60,11.0,64.0
4028,57.0,0,90,13.0,64.0
4029,62.0,0,60,12.0,64.0
4030,45.0,24,90,14.0,64.0
4031,66.0,0,60,11.0,64.0
4032,62.0,60,60,12.0,64.0
4033,69.0,30,300,10.0,64.0
4034,66.0,0,60,11.0,64.0
4035,45.0,30,90,14.0,64.0
4036,63.0,30,60,12.0,64.0
4037,57.0,0,90,13.0,64.0
4038,75.0,6,330,1.0,64.0
4039,81.0,0,330,1.0,64.0
4040,63.0,60,60,12.0,64.0
4041,66.0,0,60,11.0,64.0
4042,45.0,30,90,14.0,64.0
4043,66.0,0,60,11.0,64.0
4044,63.0,30,60,12.0,64.0
4045,57.0,0,90,13.0,64.0
4046,63.0,0,60,12.0,64.0
4047,66.0,60,60,11.0,64.0
4048,57.0,6,90,13.0,64.0
4049,45.0,0,90,14.0,64.0
4050,66.0,0,60,11.0,64.0
4051,63.0,0,60,12.0,64.0
4052,63.0,0,60,12.0,64.0
4053,66.0,60,60,11.0,64.0
4054,45.0,0,90,14.0,64.0
4055,79.0,6,690,1.0,64.0
4056,76.0,6,330,1.0,64.0
4057,69.0,18,690,4.0,64.0
4058,67.0,0,90,10.0,64.0
4059,57.0,30,90,13.0,64.0
4060,57.0,0,690,4.0,64.0
4061,64.0,0,60,12.0,64.0
4062,61.0,30,60,11.0,64.0
4063,64.0,0,60,12.0,64.0
4064,61.0,51,60,11.0,64.0
4065,57.0,21,90,13.0,64.0
4066,45.0,0,90,14.0,64.0
4067,67.0,9,30,10.0,64.0
4068,61.0,0,60,11.0,64.0
4069,64.0,30,60,12.0,64.0
4070,66.0,9,30,10.0,64.0
4071,64.0,51,60,12.0,64.0
4072,61.0,0,60,11.0,64.0
4073,64.0,0,60,12.0,64.0
4074,57.0,0,90,13.0,64.0
4075,61.0,30,60,11.0,64.0
4076,67.0,9,30,10.0,64.0
4077,45.0,21,90,14.0,64.0
4078,69.0,3,30,10.0,64.0
4079,64.0,0,60,12.0,64.0
4080,61.0,60,60,11.0,64.0
4081,67.0,30,90,10.0,64.0
4082,57.0,0,90,13.0,64.0
4083,45.0,0,90,14.0,64.0
4084,73.0,0,330,1.0,64.0
4085,64.0,30,60,11.0,64.0
4086,61.0,0,60,12.0,64.0
4087,64.0,0,60,11.0,64.0
4088,61.0,60,60,12.0,64.0
4089,57.0,30,90,13.0,64.0
4090,61.0,0,60,12.0,64.0
4091,64.0,30,60,11.0,64.0
4092,45.0,0,90,14.0,64.0
4093,61.0,60,60,12.0,64.0
4094,64.0,0,60,11.0,64.0
4095,45.0,6,90,14.0,64.0
4096,64.0,0,60,11.0,64.0
4097,61.0,30,60,12.0,64.0
4098,76.0,0,90,10.0,64.0
4099,57.0,0,90,13.0,64.0
4100,64.0,0,60,11.0,64.0
4101,61.0,60,60,12.0,64.0
4102,57.0,0,90,13.0,64.0
4103,79.0,0,300,10.0,64.0
4104,64.0,0,60,11.0,64.0
4105,45.0,30,90,14.0,64.0
4106,61.0,30,60,12.0,64.0
4107,64.0,60,60,11.0,64.0
4108,61.0,0,60,12.0,64.0
4109,45.0,0,90,14.0,64.0
4110,61.0,30,60,12.0,64.0
4111,64.0,0,60,11.0,64.0
4112,57.0,30,90,13.0,64.0
4113,64.0,0,60,11.0,64.0
4114,61.0,60,60,12.0,64.0
4115,45.0,0,90,14.0,64.0
4116,64.0,0,60,11.0,64.0
4117,61.0,30,60,12.0,64.0
4118,57.0,30,90,13.0,64.0
4119,64.0,60,60,11.0,64.0
4120,61.0,0,60,12.0,64.0
4121,57.0,0,90,13.0,64.0
4122,61.0,0,60,12.0,64.0
4123,67.0,0,300,10.0,64.0
4124,64.0,30,60,11.0,64.0
4125,45.0,30,90,14.0,64.0
4126,61.0,0,60,12.0,64.0
4127,64.0,60,60,11.0,64.0
4128,61.0,30,60,12.0,64.0
4129,64.0,0,60,11.0,64.0
4130,45.0,0,90,14.0,64.0
4131,57.0,30,90,13.0,64.0
4132,64.0,60,60,11.0,64.0
4133,61.0,0,60,12.0,64.0
4134,64.0,30,60,11.0,64.0
4135,57.0,0,90,13.0,64.0
4136,45.0,30,90,14.0,64.0
4137,61.0,0,60,12.0,64.0
4138,64.0,0,60,11.0,64.0
4139,61.0,60,60,12.0,64.0
4140,66.0,0,90,10.0,64.0
4141,64.0,30,60,11.0,64.0
4142,61.0,0,60,12.0,64.0
4143,58.0,0,90,13.0,64.0
4144,46.0,30,90,14.0,64.0
4145,61.0,0,60,12.0,64.0
4146,64.0,51,60,11.0,64.0
4147,64.0,0,60,11.0,64.0
4148,66.0,9,30,10.0,64.0
4149,61.0,30,60,12.0,64.0
4150,58.0,0,90,13.0,64.0
4151,46.0,21,90,14.0,64.0
4152,65.0,9,30,10.0,64.0
4153,61.0,51,60,12.0,64.0
4154,64.0,0,60,11.0,64.0
4155,64.0,30,60,11.0,64.0
4156,66.0,9,30,10.0,64.0
4157,46.0,0,90,14.0,64.0
4158,61.0,0,60,12.0,64.0
4159,58.0,21,90,13.0,64.0
4160,61.0,0,60,12.0,64.0
4161,64.0,60,60,11.0,64.0
4162,67.0,9,30,10.0,64.0
4163,61.0,30,60,12.0,64.0
4164,58.0,0,90,13.0,64.0
4165,46.0,0,90,14.0,64.0
4166,64.0,0,60,11.0,64.0
4167,66.0,30,90,10.0,64.0
4168,61.0,60,60,12.0,64.0
4169,64.0,0,60,11.0,64.0
4170,46.0,30,90,14.0,64.0
4171,58.0,0,90,13.0,64.0
4172,61.0,30,60,12.0,64.0
4173,64.0,0,60,11.0,64.0
4174,64.0,0,60,11.0,64.0
4175,61.0,60,60,12.0,64.0
4176,64.0,30,60,11.0,64.0
4177,58.0,30,90,13.0,64.0
4178,61.0,0,60,12.0,64.0
4179,46.0,0,90,14.0,64.0
4180,78.0,0,90,10.0,64.0
4181,61.0,0,60,12.0,64.0
4182,64.0,60,60,11.0,64.0
4183,63.0,30,60,11.0,64.0
4184,71.0,0,2850,4.0,64.0
4185,75.0,24,690,1.0,64.0
4186,81.0,0,690,1.0,64.0
4187,81.0,0,300,10.0,64.0
4188,66.0,0,60,12.0,64.0
4189,59.0,0,90,13.0,64.0
4190,47.0,30,90,14.0,64.0
4191,63.0,60,60,11.0,64.0
4192,66.0,0,60,12.0,64.0
4193,47.0,30,90,14.0,64.0
4194,63.0,30,60,11.0,64.0
4195,66.0,0,60,12.0,64.0
4196,59.0,0,90,13.0,64.0
4197,63.0,60,60,11.0,64.0
4198,66.0,0,60,12.0,64.0
4199,66.0,0,60,12.0,64.0
4200,47.0,0,90,14.0,64.0
4201,63.0,30,60,11.0,64.0
4202,59.0,30,90,13.0,64.0
4203,66.0,60,60,12.0,64.0
4204,63.0,0,60,11.0,64.0
4205,63.0,30,60,12.0,64.0
4206,47.0,0,90,14.0,64.0
4207,69.0,0,300,10.0,64.0
4208,66.0,0,60,11.0,64.0
4209,59.0,30,90,13.0,64.0
4210,66.0,60,60,11.0,64.0
4211,63.0,0,60,12.0,64.0
4212,47.0,0,90,14.0,64.0
4213,63.0,30,60,12.0,64.0
4214,66.0,0,60,11.0,64.0
4215,59.0,30,90,13.0,64.0
4216,63.0,60,60,12.0,64.0
4217,66.0,0,60,11.0,64.0
4218,59.0,0,90,13.0,64.0
4219,47.0,6,90,14.0,64.0
4220,66.0,30,60,11.0,64.0
4221,63.0,0,60,12.0,64.0
4222,66.0,0,60,11.0,64.0
4223,63.0,60,60,12.0,64.0
4224,67.0,0,90,10.0,64.0
4225,59.0,0,90,13.0,64.0
4226,76.0,0,690,1.0,64.0
4227,79.0,24,690,1.0,64.0
4228,64.0,0,60,11.0,64.0
4229,47.0,30,90,14.0,64.0
4230,59.0,30,60,12.0,64.0
4231,59.0,0,60,12.0,64.0
4232,64.0,51,60,11.0,64.0
4233,67.0,9,30,10.0,64.0
4234,59.0,0,90,13.0,64.0
4235,59.0,30,60,12.0,64.0
4236,47.0,21,90,14.0,64.0
4237,64.0,0,60,11.0,64.0
4238,59.0,0,60,12.0,64.0
4239,64.0,51,60,11.0,64.0
4240,66.0,9,30,10.0,64.0
4241,47.0,0,90,14.0,64.0
4242,59.0,21,90,13.0,64.0
4243,59.0,0,60,12.0,64.0
4244,64.0,30,60,11.0,64.0
4245,67.0,9,30,10.0,64.0
4246,59.0,60,60,12.0,64.0
4247,69.0,9,30,10.0,64.0
4248,64.0,0,60,11.0,64.0
4249,59.0,0,90,13.0,64.0
4250,47.0,30,90,14.0,64.0
4251,67.0,0,90,10.0,64.0
4252,59.0,0,60,12.0,64.0
4253,64.0,30,60,11.0,64.0
4254,59.0,0,60,12.0,64.0
4255,64.0,60,60,11.0,64.0
4256,59.0,0,60,12.0,64.0
4257,59.0,0,90,13.0,64.0
4258,47.0,30,90,14.0,64.0
4259,64.0,30,60,11.0,64.0
4260,59.0,60,60,12.0,64.0
4261,64.0,0,60,11.0,64.0
4262,59.0,0,90,13.0,64.0
4263,64.0,30,60,11.0,64.0
4264,47.0,0,90,14.0,64.0
4265,71.0,6,90,10.0,64.0
4266,59.0,0,60,12.0,64.0
4267,64.0,60,60,11.0,64.0
4268,59.0,0,60,12.0,64.0
4269,83.0,0,300,10.0,64.0
4270,79.0,0,690,1.0,64.0
4271,83.0,24,690,1.0,64.0
4272,47.0,0,90,14.0,64.0
4273,64.0,0,60,12.0,64.0
4274,59.0,30,90,13.0,64.0
4275,67.0,30,60,11.0,64.0
4276,67.0,60,60,11.0,64.0
4277,64.0,0,60,12.0,64.0
4278,67.0,30,60,11.0,64.0
4279,59.0,30,90,13.0,64.0
4280,47.0,0,90,14.0,64.0
4281,64.0,0,60,12.0,64.0
4282,64.0,60,60,12.0,64.0
4283,67.0,0,60,11.0,64.0
4284,64.0,0,60,12.0,64.0
4285,47.0,0,90,14.0,64.0
4286,59.0,30,90,13.0,64.0
4287,67.0,30,60,11.0,64.0
4288,67.0,0,60,11.0,64.0
4289,64.0,60,60,12.0,64.0
4290,71.0,30,300,10.0,64.0
4291,64.0,0,60,12.0,64.0
4292,47.0,0,90,14.0,64.0
4293,59.0,30,90,13.0,64.0
4294,67.0,30,60,11.0,64.0
4295,64.0,0,60,12.0,64.0
4296,67.0,60,60,11.0,64.0
4297,67.0,30,60,11.0,64.0
4298,64.0,0,60,12.0,64.0
4299,59.0,0,90,13.0,64.0
4300,47.0,30,90,14.0,64.0
4301,67.0,60,60,11.0,64.0
4302,64.0,0,60,12.0,64.0
4303,64.0,0,60,12.0,64.0
4304,59.0,6,90,13.0,64.0
4305,47.0,0,90,14.0,64.0
4306,67.0,0,60,11.0,64.0
4307,64.0,60,60,12.0,64.0
4308,67.0,0,60,11.0,64.0
4309,63.0,0,60,11.0,64.0
4310,66.0,30,60,12.0,64.0
4311,47.0,30,90,14.0,64.0
4312,59.0,0,90,13.0,64.0
4313,69.0,0,90,10.0,64.0
4314,81.0,0,690,1.0,64.0
4315,75.0,24,690,1.0,64.0
4316,66.0,0,60,12.0,64.0
4317,63.0,51,60,11.0,64.0
4318,69.0,9,30,10.0,64.0
4319,63.0,0,60,11.0,64.0
4320,59.0,21,90,13.0,64.0
4321,66.0,30,60,12.0,64.0
4322,47.0,0,90,14.0,64.0
4323,66.0,51,60,12.0,64.0
4324,68.0,9,30,10.0,64.0
4325,63.0,0,60,11.0,64.0
4326,69.0,9,30,10.0,64.0
4327,47.0,21,90,14.0,64.0
4328,59.0,0,90,13.0,64.0
4329,63.0,0,60,11.0,64.0
4330,66.0,30,60,12.0,64.0
4331,71.0,9,30,10.0,64.0
4332,66.0,60,60,12.0,64.0
4333,63.0,0,60,11.0,64.0
4334,69.0,30,90,10.0,64.0
4335,59.0,0,90,13.0,64.0
4336,66.0,0,60,12.0,64.0
4337,63.0,30,60,11.0,64.0
4338,47.0,0,90,14.0,64.0
4339,66.0,60,60,12.0,64.0
4340,63.0,0,60,11.0,64.0
4341,63.0,0,60,11.0,64.0
4342,59.0,0,90,13.0,64.0
4343,47.0,30,90,14.0,64.0
4344,66.0,30,60,12.0,64.0
4345,63.0,0,60,11.0,64.0
4346,66.0,60,60,12.0,64.0
4347,78.0,0,90,10.0,64.0
4348,63.0,30,60,11.0,64.0
4349,47.0,6,90,14.0,64.0
4350,66.0,0,60,12.0,64.0
4351,59.0,0,90,13.0,64.0
4352,66.0,60,60,12.0,64.0
4353,63.0,0,60,11.0,64.0
4354,47.0,0,90,14.0,64.0
4355,63.0,0,60,12.0,64.0
4356,59.0,30,90,13.0,64.0
4357,66.0,30,60,11.0,64.0
4358,81.0,30,300,10.0,64.0
4359,63.0,60,60,12.0,64.0
4360,66.0,0,60,11.0,64.0
4361,63.0,0,60,12.0,64.0
4362,47.0,30,90,14.0,64.0
4363,59.0,0,90,13.0,64.0
4364,66.0,30,60,11.0,64.0
4365,63.0,0,60,12.0,64.0
4366,66.0,60,60,11.0,64.0
4367,47.0,30,90,14.0,64.0
4368,66.0,0,60,11.0,64.0
4369,63.0,0,60,12.0,64.0
4370,59.0,0,90,13.0,64.0
4371,66.0,60,60,11.0,64.0
4372,63.0,0,60,12.0,64.0
4373,47.0,30,90,14.0,64.0
4374,66.0,0,60,11.0,64.0
4375,63.0,30,60,12.0,64.0
4376,69.0,0,300,10.0,64.0
4377,59.0,0,90,13.0,64.0
4378,66.0,0,60,11.0,64.0
4379,63.0,60,60,12.0,64.0
4380,63.0,0,60,12.0,64.0
4381,47.0,0,90,14.0,64.0
4382,66.0,30,60,11.0,64.0
4383,59.0,30,90,13.0,64.0
4384,66.0,60,60,11.0,64.0
4385,63.0,0,60,12.0,64.0
4386,63.0,0,60,12.0,64.0
4387,47.0,30,90,14.0,64.0
4388,59.0,0,90,13.0,64.0
4389,66.0,30,60,11.0,64.0
4390,66.0,0,60,11.0,64.0
4391,63.0,60,60,12.0,64.0
4392,68.0,0,90,10.0,64.0
4393,48.0,0,90,14.0,64.0
4394,63.0,0,60,12.0,64.0
4395,60.0,30,90,13.0,64.0
4396,66.0,30,60,11.0,64.0
4397,63.0,0,60,12.0,64.0
4398,66.0,51,60,11.0,64.0
4399,68.0,9,30,10.0,64.0
4400,63.0,30,60,12.0,64.0
4401,48.0,21,90,14.0,64.0
4402,60.0,0,90,13.0,64.0
4403,66.0,0,60,11.0,64.0
4404,67.0,9,30,10.0,64.0
4405,66.0,0,60,11.0,64.0
4406,63.0,51,60,12.0,64.0
4407,68.0,9,30,10.0,64.0
4408,66.0,0,60,11.0,64.0
4409,48.0,21,90,14.0,64.0
4410,60.0,0,90,13.0,64.0
4411,63.0,30,60,12.0,64.0
4412,63.0,0,60,12.0,64.0
4413,69.0,9,30,10.0,64.0
4414,66.0,60,60,11.0,64.0
4415,68.0,12,150,10.0,64.0
4416,66.0,30,60,11.0,64.0
4417,63.0,0,60,12.0,64.0
4418,60.0,30,90,13.0,64.0
4419,48.0,0,90,14.0,64.0
4420,63.0,48,60,12.0,64.0
4421,66.0,0,60,11.0,64.0
4422,48.0,0,90,14.0,64.0
4423,60.0,30,90,13.0,64.0
4424,66.0,0,60,11.0,64.0
4425,63.0,30,60,12.0,64.0
4426,66.0,0,60,11.0,64.0
4427,63.0,60,60,12.0,64.0
4428,63.0,30,60,12.0,64.0
4429,80.0,30,90,10.0,64.0
4430,48.0,0,90,14.0,64.0
4431,60.0,0,90,13.0,64.0
4432,66.0,0,60,11.0,64.0
4433,63.0,90,60,12.0,64.0
4434,66.0,0,60,11.0,64.0
4435,61.0,0,90,13.0,64.0
4436,49.0,114,90,14.0,64.0
4437,61.0,0,90,12.0,64.0
4438,64.0,6,180,11.0,64.0
4439,76.0,12,690,1.0,64.0
4440,85.0,30,300,10.0,64.0
4441,73.0,0,690,1.0,64.0
4442,49.0,0,90,13.0,64.0
4443,37.0,90,90,14.0,64.0
4444,64.0,0,90,12.0,64.0
4445,49.0,0,90,13.0,64.0
4446,37.0,0,90,14.0,64.0
4447,64.0,120,90,12.0,64.0
4448,73.0,30,300,10.0,64.0
4449,49.0,42,150,13.0,64.0
4450,37.0,0,150,14.0,64.0
4451,64.0,78,90,12.0,64.0
4452,68.0,90,90,12.0,64.0
4453,37.0,6,90,14.0,64.0
4454,76.0,102,90,11.0,64.0
4455,49.0,0,90,13.0,64.0
4456,73.0,0,90,12.0,64.0
4457,78.0,0,300,11.0,64.0
4458,72.0,81,90,10.0,64.0
4459,75.0,30,300,12.0,64.0
4460,78.0,0,690,1.0,64.0
4461,56.0,0,90,13.0,64.0
4462,44.0,0,90,14.0,64.0
4463,72.0,114,690,1.0,64.0
4464,44.0,0,90,13.0,64.0
4465,32.0,21,90,14.0,64.0
4466,72.0,39,30,10.0,64.0
4467,70.0,60,30,10.0,64.0
4468,44.0,21,90,13.0,64.0
4469,32.0,0,90,14.0,64.0
4470,72.0,9,30,10.0,64.0
4471,73.0,177,30,10.0,64.0
4472,72.0,0,150,10.0,64.0
4473,30.0,132,150,14.0,64.0
4474,66.0,30,300,11.0,64.0
4475,42.0,0,150,13.0,64.0
4476,63.0,0,300,12.0,64.0
4477,80.0,0,90,10.0,64.0
4478,44.0,0,90,14.0,64.0
4479,56.0,6,90,13.0,64.0
4480,49.0,81,90,14.0,64.0
4481,65.0,0,90,11.0,64.0
4482,83.0,30,300,10.0,64.0
4483,80.0,114,690,1.0,64.0
4484,61.0,0,90,12.0,64.0
4485,71.0,0,690,1.0,64.0
4486,61.0,0,90,13.0,64.0
4487,61.0,0,30,12.0,64.0
4488,65.0,39,30,11.0,64.0
4489,49.0,0,90,13.0,64.0
4490,37.0,21,90,14.0,64.0
4491,63.0,0,30,11.0,64.0
4492,60.0,60,30,12.0,64.0
4493,65.0,0,30,11.0,64.0
4494,61.0,9,30,12.0,64.0
4495,49.0,0,90,13.0,64.0
4496,37.0,21,90,14.0,64.0
4497,66.0,0,30,11.0,64.0
4498,63.0,177,30,12.0,64.0
4499,65.0,0,150,11.0,64.0
4500,49.0,132,150,13.0,64.0
4501,61.0,0,150,12.0,64.0
4502,37.0,0,150,14.0,64.0
4503,71.0,30,300,10.0,64.0
4504,49.0,0,90,14.0,64.0
4505,73.0,0,90,11.0,64.0
4506,68.0,0,90,12.0,64.0
4507,61.0,6,90,13.0,64.0
4508,78.0,42,480,1.0,64.0
4509,70.0,0,90,10.0,64.0
4510,76.0,0,300,11.0,64.0
4511,66.0,0,90,13.0,64.0
4512,73.0,30,300,12.0,64.0
4513,54.0,81,90,14.0,64.0
4514,70.0,0,480,1.0,64.0
4515,54.0,0,90,13.0,64.0
4516,70.0,39,30,10.0,64.0
4517,42.0,21,90,14.0,64.0
4518,69.0,60,30,10.0,64.0
4519,70.0,9,30,10.0,64.0
4520,54.0,0,90,13.0,64.0
4521,42.0,21,90,14.0,64.0
4522,71.0,135,30,10.0,64.0
4523,54.0,0,150,13.0,64.0
4524,61.0,0,180,12.0,64.0
4525,70.0,0,150,10.0,64.0
4526,64.0,168,180,11.0,64.0
4527,42.0,36,150,14.0,64.0
4528,76.0,0,120,10.0,64.0
4529,70.0,72,120,11.0,64.0
4530,74.0,0,60,10.0,64.0
4531,47.0,120,180,13.0,64.0
4532,59.0,0,180,12.0,64.0
4533,71.0,120,60,11.0,64.0
4534,35.0,0,180,14.0,64.0
4535,74.0,0,60,10.0,64.0
4536,71.0,0,60,11.0,64.0
4537,71.0,0,60,11.0,64.0
4538,74.0,240,60,10.0,64.0
4539,47.0,0,180,14.0,64.0
4540,59.0,0,180,13.0,64.0
4541,77.0,0,60,10.0,64.0
4542,62.0,120,60,11.0,64.0
4543,62.0,0,60,11.0,64.0
4544,77.0,240,60,10.0,64.0
4545,45.0,0,180,14.0,64.0
4546,57.0,0,180,13.0,64.0
4547,78.0,0,60,10.0,64.0
4548,61.0,120,60,11.0,64.0
4549,61.0,0,60,11.0,64.0
4550,78.0,240,60,10.0,64.0
4551,50.0,120,180,13.0,64.0
4552,38.0,0,180,14.0,64.0
4553,57.0,0,60,11.0,64.0
4554,66.0,0,60,10.0,64.0
4555,66.0,240,60,10.0,64.0
4556,57.0,0,60,11.0,64.0
4557,47.0,0,180,13.0,64.0
4558,35.0,0,180,14.0,64.0
4559,56.0,0,60,11.0,64.0
4560,74.0,120,60,10.0,64.0
4561,74.0,120,60,10.0,64.0
4562,56.0,0,60,11.0,64.0
4563,49.0,120,60,13.0,64.0
4564,37.0,0,60,14.0,64.0
4565,59.0,0,60,11.0,64.0
4566,65.0,120,60,10.0,64.0
4567,59.0,0,60,11.0,64.0
4568,49.0,0,60,14.0,64.0
4569,61.0,0,60,13.0,64.0
4570,65.0,96,60,10.0,64.0
4571,69.0,0,60,12.0,64.0
4572,66.0,24,690,1.0,64.0
4573,54.0,0,300,14.0,64.0
4574,69.0,0,690,1.0,64.0
4575,66.0,36,180,10.0,64.0
4576,61.0,12,1410,4.0,64.0
4577,73.0,0,1410,4.0,64.0
4578,66.0,60,300,13.0,64.0
4579,57.0,60,60,11.0,64.0
4580,66.0,0,60,12.0,64.0
4581,66.0,60,60,12.0,64.0
4582,69.0,0,60,12.0,64.0
4583,73.0,0,60,11.0,64.0
4584,69.0,24,60,12.0,64.0
4585,66.0,0,60,12.0,64.0
4586,73.0,0,60,11.0,64.0
4587,69.0,0,60,12.0,64.0
4588,66.0,60,60,12.0,64.0
4589,73.0,0,60,11.0,64.0
4590,66.0,0,60,12.0,64.0
4591,69.0,0,60,12.0,64.0
4592,73.0,0,60,11.0,64.0
4593,73.0,0,60,11.0,64.0
4594,66.0,60,60,12.0,64.0
4595,69.0,0,60,12.0,64.0
4596,69.0,0,60,12.0,64.0
4597,42.0,0,300,14.0,64.0
4598,66.0,0,60,12.0,64.0
4599,54.0,0,300,13.0,64.0
4600,73.0,60,60,11.0,64.0
4601,69.0,0,60,12.0,64.0
4602,66.0,60,60,12.0,64.0
4603,73.0,0,60,11.0,64.0
4604,73.0,0,60,11.0,64.0
4605,66.0,60,60,12.0,64.0
4606,69.0,0,60,12.0,64.0
4607,73.0,60,60,11.0,64.0
4608,66.0,0,60,12.0,64.0
4609,69.0,0,60,12.0,64.0
4610,66.0,0,60,12.0,64.0
4611,69.0,36,60,12.0,64.0
4612,73.0,0,60,11.0,64.0
4613,73.0,60,60,11.0,64.0
4614,69.0,0,60,12.0,64.0
4615,66.0,0,60,12.0,64.0
4616,71.0,6,330,1.0,64.0
4617,71.0,0,60,12.0,64.0
4618,68.0,0,330,1.0,64.0
4619,73.0,0,60,11.0,64.0
4620,41.0,0,90,14.0,64.0
4621,53.0,30,90,13.0,64.0
4622,65.0,0,60,11.0,64.0
4623,68.0,30,60,12.0,64.0
4624,73.0,51,60,11.0,64.0
4625,65.0,0,60,11.0,64.0
4626,68.0,0,60,12.0,64.0
4627,71.0,0,60,12.0,64.0
4628,41.0,0,30,14.0,64.0
4629,65.0,0,60,11.0,64.0
4630,73.0,51,60,11.0,64.0
4631,71.0,0,60,12.0,64.0
4632,68.0,0,60,12.0,64.0
4633,53.0,9,30,13.0,64.0
4634,42.0,9,30,14.0,64.0
4635,71.0,0,60,12.0,64.0
4636,68.0,0,60,12.0,64.0
4637,54.0,0,30,13.0,64.0
4638,73.0,51,60,11.0,64.0
4639,65.0,0,60,11.0,64.0
4640,65.0,0,60,11.0,64.0
4641,56.0,9,30,13.0,64.0
4642,73.0,0,60,11.0,64.0
4643,68.0,0,60,12.0,64.0
4644,71.0,51,60,12.0,64.0
4645,44.0,0,30,14.0,64.0
4646,45.0,0,30,14.0,64.0
4647,73.0,60,60,11.0,64.0
4648,65.0,0,60,11.0,64.0
4649,68.0,0,60,12.0,64.0
4650,71.0,0,60,12.0,64.0
4651,57.0,3,30,13.0,64.0
4652,65.0,0,330,1.0,64.0
4653,47.0,36,180,14.0,64.0
4654,68.0,6,330,1.0,64.0
4655,73.0,0,60,11.0,64.0
4656,65.0,0,60,11.0,64.0
4657,71.0,60,60,12.0,64.0
4658,68.0,0,60,12.0,64.0
4659,59.0,0,180,13.0,64.0
4660,65.0,60,60,11.0,64.0
4661,68.0,0,60,12.0,64.0
4662,73.0,0,60,11.0,64.0
4663,71.0,0,60,12.0,64.0
4664,73.0,0,60,11.0,64.0
4665,71.0,0,60,12.0,64.0
4666,68.0,24,60,12.0,64.0
4667,65.0,0,60,11.0,64.0
4668,68.0,60,60,12.0,64.0
4669,71.0,0,60,12.0,64.0
4670,65.0,0,60,11.0,64.0
4671,73.0,0,60,11.0,64.0
4672,73.0,0,60,11.0,64.0
4673,80.0,6,90,10.0,64.0
4674,65.0,0,60,11.0,64.0
4675,68.0,0,60,12.0,64.0
4676,71.0,36,60,12.0,64.0
4677,65.0,0,60,11.0,64.0
4678,73.0,0,60,11.0,64.0
4679,71.0,0,60,12.0,64.0
4680,68.0,60,60,12.0,64.0
4681,73.0,60,60,11.0,64.0
4682,65.0,0,60,12.0,64.0
4683,83.0,0,300,10.0,64.0
4684,73.0,0,60,11.0,64.0
4685,65.0,60,60,12.0,64.0
4686,73.0,0,60,11.0,64.0
4687,65.0,60,60,12.0,64.0
4688,73.0,60,60,11.0,64.0
4689,65.0,0,60,12.0,64.0
4690,65.0,0,60,12.0,64.0
4691,73.0,60,60,11.0,64.0
4692,65.0,60,60,12.0,64.0
4693,73.0,0,60,11.0,64.0
4694,53.0,60,60,12.0,64.0
4695,68.0,0,60,11.0,64.0
4696,71.0,0,300,10.0,64.0
4697,68.0,0,60,11.0,64.0
4698,53.0,60,60,12.0,64.0
4699,68.0,0,60,11.0,64.0
4700,53.0,60,60,12.0,64.0
4701,68.0,0,60,11.0,64.0
4702,53.0,60,60,12.0,64.0
4703,53.0,60,60,12.0,64.0
4704,68.0,0,60,11.0,64.0
4705,68.0,60,60,11.0,64.0
4706,53.0,0,60,12.0,64.0
4707,69.0,30,90,10.0,64.0
4708,66.0,0,60,11.0,64.0
4709,54.0,30,60,12.0,64.0
4710,66.0,0,60,11.0,64.0
4711,54.0,51,60,12.0,64.0
4712,54.0,0,60,12.0,64.0
4713,66.0,51,60,11.0,64.0
4714,69.0,9,30,10.0,64.0
4715,54.0,51,60,12.0,64.0
4716,66.0,0,60,11.0,64.0
4717,71.0,9,30,10.0,64.0
4718,66.0,51,60,11.0,64.0
4719,73.0,9,30,10.0,64.0
4720,54.0,0,60,12.0,64.0
4721,69.0,9,30,10.0,64.0
4722,54.0,0,60,12.0,64.0
4723,66.0,60,60,11.0,64.0
4724,66.0,36,180,10.0,64.0
4725,57.0,60,60,11.0,64.0
4726,54.0,0,60,12.0,64.0
4727,57.0,0,60,11.0,64.0
4728,54.0,60,60,12.0,64.0
4729,57.0,24,60,11.0,64.0
4730,54.0,0,60,12.0,64.0
4731,57.0,0,60,11.0,64.0
4732,54.0,60,60,12.0,64.0
4733,57.0,0,90,13.0,64.0
4734,54.0,48,60,12.0,64.0
4735,45.0,12,90,14.0,64.0
4736,57.0,0,60,11.0,64.0
4737,57.0,60,60,11.0,64.0
4738,54.0,0,60,12.0,64.0
4739,50.0,0,300,14.0,64.0
4740,62.0,0,60,12.0,64.0
4741,57.0,60,60,12.0,64.0
4742,62.0,0,300,13.0,64.0
4743,66.0,0,690,1.0,64.0
4744,57.0,12,1290,4.0,64.0
4745,69.0,0,1290,4.0,64.0
4746,66.0,0,60,11.0,64.0
4747,69.0,0,60,11.0,64.0
4748,62.0,24,690,1.0,64.0
4749,57.0,60,60,12.0,64.0
4750,69.0,0,60,11.0,64.0
4751,62.0,0,60,12.0,64.0
4752,66.0,0,60,11.0,64.0
4753,62.0,0,60,12.0,64.0
4754,57.0,0,60,12.0,64.0
4755,66.0,60,60,11.0,64.0
4756,69.0,0,60,11.0,64.0
4757,66.0,0,60,11.0,64.0
4758,57.0,60,60,12.0,64.0
4759,62.0,0,60,12.0,64.0
4760,69.0,0,60,11.0,64.0
4761,69.0,0,60,11.0,64.0
4762,66.0,0,60,11.0,64.0
4763,62.0,0,60,12.0,64.0
4764,57.0,60,60,12.0,64.0
4765,62.0,0,60,12.0,64.0
4766,57.0,0,60,12.0,64.0
4767,69.0,60,60,11.0,64.0
4768,66.0,0,60,11.0,64.0
4769,62.0,0,60,12.0,64.0
4770,57.0,60,60,12.0,64.0
4771,69.0,0,60,11.0,64.0
4772,50.0,36,300,13.0,64.0
4773,66.0,0,60,11.0,64.0
4774,38.0,0,300,14.0,64.0
4775,69.0,60,60,11.0,64.0
4776,66.0,0,60,11.0,64.0
4777,62.0,0,60,12.0,64.0
4778,57.0,0,60,12.0,64.0
4779,62.0,60,60,12.0,64.0
4780,57.0,0,60,12.0,64.0
4781,66.0,0,60,11.0,64.0
4782,69.0,0,60,11.0,64.0
4783,62.0,0,60,12.0,64.0
4784,57.0,60,60,12.0,64.0
4785,66.0,0,60,11.0,64.0
4786,69.0,0,60,11.0,64.0
4787,66.0,0,60,11.0,64.0
4788,69.0,0,60,11.0,64.0
4789,62.0,0,60,12.0,64.0
4790,57.0,0,60,12.0,64.0
4791,69.0,0,60,11.0,64.0
4792,66.0,60,60,11.0,64.0
4793,62.0,0,60,12.0,64.0
4794,57.0,0,60,12.0,64.0
4795,69.0,0,60,11.0,64.0
4796,37.0,0,90,14.0,64.0
4797,49.0,30,90,13.0,64.0
4798,67.0,30,60,11.0,64.0
4799,64.0,0,690,1.0,64.0
4800,67.0,12,690,1.0,64.0
4801,61.0,0,60,12.0,64.0
4802,64.0,0,60,12.0,64.0
4803,61.0,51,60,12.0,64.0
4804,69.0,0,60,11.0,64.0
4805,67.0,0,60,11.0,64.0
4806,64.0,0,60,12.0,64.0
4807,37.0,0,30,14.0,64.0
4808,61.0,0,60,12.0,64.0
4809,64.0,0,60,12.0,64.0
4810,49.0,9,30,13.0,64.0
4811,69.0,51,60,11.0,64.0
4812,67.0,0,60,11.0,64.0
4813,61.0,0,60,12.0,64.0
4814,64.0,0,60,12.0,64.0
4815,50.0,9,30,13.0,64.0
4816,67.0,51,60,11.0,64.0
4817,38.0,0,30,14.0,64.0
4818,69.0,0,60,11.0,64.0
4819,52.0,9,30,13.0,64.0
4820,61.0,0,60,12.0,64.0
4821,40.0,0,30,14.0,64.0
4822,64.0,0,60,12.0,64.0
4823,69.0,51,60,11.0,64.0
4824,67.0,0,60,11.0,64.0
4825,64.0,0,60,12.0,64.0
4826,61.0,0,60,12.0,64.0
4827,42.0,9,30,14.0,64.0
4828,54.0,0,30,13.0,64.0
4829,67.0,0,60,11.0,64.0
4830,69.0,60,60,11.0,64.0
4831,43.0,0,180,14.0,64.0
4832,55.0,24,180,13.0,64.0
4833,64.0,60,60,12.0,64.0
4834,67.0,0,60,11.0,64.0
4835,69.0,0,60,11.0,64.0
4836,61.0,0,60,12.0,64.0
4837,67.0,60,60,11.0,64.0
4838,61.0,0,60,12.0,64.0
4839,64.0,0,60,12.0,64.0
4840,69.0,0,60,11.0,64.0
4841,69.0,0,60,11.0,64.0
4842,67.0,24,60,11.0,64.0
4843,61.0,0,60,12.0,64.0
4844,64.0,0,60,12.0,64.0
4845,64.0,60,60,12.0,64.0
4846,61.0,0,60,12.0,64.0
4847,67.0,0,60,11.0,64.0
4848,69.0,0,60,11.0,64.0
4849,67.0,0,60,11.0,64.0
4850,76.0,12,90,10.0,64.0
4851,69.0,0,60,11.0,64.0
4852,64.0,36,60,12.0,64.0
4853,61.0,0,60,12.0,64.0
4854,61.0,60,60,12.0,64.0
4855,67.0,0,60,11.0,64.0
4856,69.0,0,60,11.0,64.0
4857,64.0,0,60,12.0,64.0
4858,69.0,0,60,11.0,64.0
4859,79.0,0,300,10.0,64.0
4860,61.0,60,60,12.0,64.0
4861,61.0,0,60,12.0,64.0
4862,69.0,60,60,11.0,64.0
4863,61.0,0,60,12.0,64.0
4864,69.0,60,60,11.0,64.0
4865,61.0,0,60,12.0,64.0
4866,69.0,60,60,11.0,64.0
4867,61.0,0,60,12.0,64.0
4868,69.0,60,60,11.0,64.0
4869,61.0,60,60,12.0,64.0
4870,69.0,0,60,11.0,64.0
4871,64.0,0,60,11.0,64.0
4872,49.0,60,60,12.0,64.0
4873,67.0,0,300,10.0,64.0
4874,64.0,60,60,11.0,64.0
4875,49.0,0,60,12.0,64.0
4876,49.0,60,60,12.0,64.0
4877,64.0,0,60,11.0,64.0
4878,49.0,0,60,12.0,64.0
4879,64.0,60,60,11.0,64.0
4880,49.0,60,60,12.0,64.0
4881,64.0,0,60,11.0,64.0
4882,49.0,60,60,12.0,64.0
4883,64.0,0,60,11.0,64.0
4884,66.0,30,90,10.0,64.0
4885,50.0,0,60,12.0,64.0
4886,62.0,30,60,11.0,64.0
4887,50.0,0,60,12.0,64.0
4888,62.0,51,60,11.0,64.0
4889,50.0,51,60,12.0,64.0
4890,62.0,0,60,11.0,64.0
4891,66.0,9,30,10.0,64.0
4892,62.0,0,60,11.0,64.0
4893,50.0,51,60,12.0,64.0
4894,67.0,9,30,10.0,64.0
4895,69.0,9,30,10.0,64.0
4896,62.0,51,60,11.0,64.0
4897,50.0,0,60,12.0,64.0
4898,50.0,0,60,12.0,64.0
4899,66.0,9,30,10.0,64.0
4900,62.0,60,60,11.0,64.0
4901,54.0,0,60,12.0,64.0
4902,62.0,36,180,10.0,64.0
4903,57.0,60,60,11.0,64.0
4904,54.0,0,60,12.0,64.0
4905,57.0,60,60,11.0,64.0
4906,54.0,0,60,12.0,64.0
4907,57.0,24,60,11.0,64.0
4908,54.0,0,60,12.0,64.0
4909,57.0,60,60,11.0,64.0
4910,57.0,48,60,11.0,64.0
4911,54.0,0,60,12.0,64.0
4912,54.0,12,90,13.0,64.0
4913,42.0,0,90,14.0,64.0
4914,57.0,60,60,11.0,64.0
4915,54.0,0,60,12.0,64.0
4916,59.0,0,300,13.0,64.0
4917,66.0,60,60,11.0,64.0
4918,66.0,6,1410,1.0,64.0
4919,47.0,0,300,14.0,64.0
4920,62.0,0,60,12.0,64.0
4921,62.0,24,690,1.0,64.0
4922,59.0,0,60,12.0,64.0
4923,59.0,60,60,12.0,64.0
4924,66.0,0,60,11.0,64.0
4925,62.0,0,60,12.0,64.0
4926,62.0,0,60,12.0,64.0
4927,66.0,0,60,11.0,64.0
4928,59.0,60,60,12.0,64.0
4929,59.0,0,60,12.0,64.0
4930,62.0,0,60,12.0,64.0
4931,66.0,60,60,11.0,64.0
4932,62.0,0,60,12.0,64.0
4933,59.0,0,60,12.0,64.0
4934,66.0,60,60,11.0,64.0
4935,62.0,60,60,12.0,64.0
4936,66.0,0,60,11.0,64.0
4937,59.0,0,60,12.0,64.0
4938,47.0,0,300,13.0,64.0
4939,35.0,0,300,14.0,64.0
4940,66.0,60,60,11.0,64.0
4941,59.0,0,60,12.0,64.0
4942,62.0,0,60,12.0,64.0
4943,66.0,0,60,11.0,64.0
4944,62.0,60,60,12.0,64.0
4945,59.0,0,60,12.0,64.0
4946,59.0,0,60,12.0,64.0
4947,66.0,60,60,11.0,64.0
4948,62.0,0,60,12.0,64.0
4949,62.0,0,60,12.0,64.0
4950,59.0,0,60,12.0,64.0
4951,66.0,60,60,11.0,64.0
4952,59.0,0,60,12.0,64.0
4953,62.0,36,60,12.0,64.0
4954,66.0,0,60,11.0,64.0
4955,66.0,0,60,11.0,64.0
4956,59.0,60,60,12.0,64.0
4957,62.0,0,60,12.0,64.0
4958,61.0,0,60,12.0,64.0
4959,64.0,6,330,1.0,64.0
4960,46.0,0,90,13.0,64.0
4961,66.0,30,60,11.0,64.0
4962,34.0,30,90,14.0,64.0
4963,66.0,0,60,11.0,64.0
4964,61.0,51,60,12.0,64.0
4965,34.0,0,30,14.0,64.0
4966,61.0,51,60,12.0,64.0
4967,66.0,0,60,11.0,64.0
4968,46.0,9,30,13.0,64.0
4969,35.0,0,30,14.0,64.0
4970,47.0,9,30,13.0,64.0
4971,61.0,51,60,12.0,64.0
4972,66.0,0,60,11.0,64.0
4973,61.0,51,60,12.0,64.0
4974,66.0,0,60,11.0,64.0
4975,37.0,9,30,14.0,64.0
4976,49.0,0,30,13.0,64.0
4977,66.0,0,60,11.0,64.0
4978,38.0,3,30,14.0,64.0
4979,50.0,0,30,13.0,64.0
4980,61.0,60,60,12.0,64.0
4981,66.0,60,60,11.0,64.0
4982,58.0,0,60,12.0,64.0
4983,52.0,0,300,13.0,64.0
4984,40.0,48,300,14.0,64.0
4985,61.0,0,330,1.0,64.0
4986,66.0,60,60,11.0,64.0
4987,58.0,0,60,12.0,64.0
4988,58.0,0,60,12.0,64.0
4989,66.0,60,60,11.0,64.0
4990,58.0,60,60,12.0,64.0
4991,66.0,0,60,11.0,64.0
4992,66.0,0,60,11.0,64.0
4993,73.0,6,90,10.0,64.0
4994,58.0,0,60,12.0,64.0
4995,66.0,60,60,11.0,64.0
4996,58.0,0,60,12.0,64.0
4997,76.0,0,300,10.0,64.0
4998,58.0,0,60,12.0,64.0
4999,66.0,60,60,11.0,64.0
5000,66.0,0,60,11.0,64.0
5001,58.0,60,60,12.0,64.0
5002,58.0,0,60,12.0,64.0
5003,66.0,60,60,11.0,64.0
5004,58.0,60,60,12.0,64.0
5005,66.0,0,60,11.0,64.0
5006,66.0,0,60,11.0,64.0
5007,58.0,60,60,12.0,64.0
5008,66.0,0,60,11.0,64.0
5009,58.0,60,60,12.0,64.0
5010,64.0,60,300,10.0,64.0
5011,58.0,60,60,12.0,64.0
5012,61.0,0,60,11.0,64.0
5013,58.0,0,60,12.0,64.0
5014,61.0,60,60,11.0,64.0
5015,61.0,0,60,11.0,64.0
5016,58.0,60,60,12.0,64.0
5017,58.0,60,60,12.0,64.0
5018,61.0,0,60,11.0,64.0
5019,61.0,0,60,11.0,64.0
5020,58.0,0,60,12.0,64.0
5021,61.0,0,60,11.0,64.0
5022,58.0,90,60,12.0,64.0
5023,59.0,0,180,11.0,64.0
5024,59.0,27,180,12.0,64.0
5025,62.0,81,90,10.0,64.0
5026,62.0,33,30,10.0,64.0
5027,64.0,60,30,10.0,64.0
5028,66.0,60,30,10.0,64.0
5029,62.0,99,30,10.0,64.0
5030,59.0,114,90,10.0,64.0
5031,59.0,0,60,13.0,64.0
5032,62.0,0,60,11.0,64.0
5033,59.0,120,60,12.0,64.0
5034,47.0,0,60,14.0,64.0
5035,45.0,0,60,14.0,64.0
5036,57.0,0,60,12.0,64.0
5037,61.0,6,60,11.0,64.0
5038,57.0,0,60,13.0,64.0
5039,62.0,120,90,10.0,64.0
5040,59.0,120,90,11.0,64.0
5041,74.0,0,300,10.0,64.0
5042,44.0,30,300,14.0,64.0
5043,56.0,0,300,13.0,64.0
5044,56.0,0,90,12.0,64.0
5045,64.0,0,90,11.0,64.0
5046,59.0,90,90,12.0,64.0
5047,64.0,0,90,11.0,64.0
5048,59.0,240,90,12.0,64.0
5049,40.0,0,300,14.0,64.0
5050,62.0,0,300,10.0,64.0
5051,52.0,30,300,13.0,64.0
5052,59.0,0,90,12.0,64.0
5053,56.0,90,90,11.0,64.0
5054,56.0,0,90,11.0,64.0
5055,59.0,240,90,12.0,64.0
5056,61.0,30,300,10.0,64.0
5057,42.0,0,300,14.0,64.0
5058,54.0,0,300,13.0,64.0
5059,57.0,0,90,12.0,64.0
5060,57.0,90,90,11.0,64.0
5061,57.0,0,90,11.0,64.0
5062,57.0,240,90,12.0,64.0
5063,49.0,30,300,13.0,64.0
5064,81.0,0,300,10.0,64.0
5065,37.0,0,300,14.0,64.0
5066,57.0,90,90,12.0,64.0
5067,64.0,0,90,11.0,64.0
5068,64.0,0,90,11.0,64.0
5069,57.0,240,90,12.0,64.0
5070,78.0,0,300,10.0,64.0
5071,38.0,30,300,14.0,64.0
5072,50.0,0,300,13.0,64.0
5073,69.0,0,90,11.0,64.0
5074,57.0,90,90,12.0,64.0
5075,62.0,240,90,12.0,64.0
5076,69.0,0,90,11.0,64.0
5077,69.0,0,300,10.0,64.0
5078,51.0,30,300,13.0,64.0
5079,39.0,0,300,14.0,64.0
5080,66.0,0,90,11.0,64.0
5081,59.0,90,90,12.0,64.0
5082,59.0,0,90,12.0,64.0
5083,66.0,120,90,11.0,64.0
5084,40.0,0,90,14.0,64.0
5085,76.0,6,180,11.0,64.0
5086,68.0,0,180,11.0,64.0
5087,52.0,0,90,13.0,64.0
5088,80.0,0,180,10.0,64.0
5089,71.0,0,180,11.0,64.0
5090,59.0,0,90,12.0,64.0
5091,64.0,0,180,10.0,64.0
5092,71.0,0,180,1.0,64.0
5093,71.0,0,180,10.0,64.0
5094,80.0,0,180,1.0,64.0
5095,64.0,114,90,4.0,64.0
5096,64.0,0,90,13.0,64.0
5097,64.0,120,90,12.0,64.0
5098,64.0,0,90,4.0,64.0
5099,52.0,0,90,14.0,64.0
5100,64.0,0,90,13.0,64.0
5101,64.0,120,90,4.0,64.0
5102,52.0,0,90,14.0,64.0
5103,64.0,0,90,12.0,64.0
5104,76.0,0,180,11.0,64.0
5105,73.0,0,180,10.0,64.0
5106,73.0,0,180,1.0,64.0
5107,81.0,0,180,10.0,64.0
5108,64.0,0,180,10.0,64.0
5109,64.0,114,90,4.0,64.0
5110,64.0,0,90,13.0,64.0
5111,81.0,0,180,1.0,64.0
5112,64.0,0,90,12.0,64.0
5113,73.0,6,180,11.0,64.0
5114,69.0,0,180,11.0,64.0
5115,52.0,0,90,14.0,64.0
5116,64.0,0,90,4.0,64.0
5117,64.0,0,90,13.0,64.0
5118,52.0,0,90,14.0,64.0
5119,64.0,120,90,12.0,64.0
5120,64.0,0,90,12.0,64.0
5121,64.0,0,90,4.0,64.0
5122,52.0,120,90,14.0,64.0
5123,64.0,0,90,13.0,64.0
5124,64.0,0,90,4.0,64.0
5125,76.0,0,180,11.0,64.0
5126,68.0,0,180,11.0,64.0
5127,64.0,0,90,13.0,64.0
5128,64.0,0,90,12.0,64.0
5129,80.0,0,180,1.0,64.0
5130,71.0,0,180,1.0,64.0
5131,80.0,0,180,10.0,64.0
5132,71.0,6,180,10.0,64.0
5133,64.0,0,180,10.0,64.0
5134,52.0,114,90,14.0,64.0
5135,71.0,0,180,11.0,64.0
5136,64.0,120,90,13.0,64.0
5137,64.0,0,90,12.0,64.0
5138,64.0,0,90,4.0,64.0
5139,52.0,0,90,14.0,64.0
5140,64.0,0,90,12.0,64.0
5141,52.0,0,90,14.0,64.0
5142,64.0,0,90,13.0,64.0
5143,64.0,120,90,4.0,64.0
5144,64.0,0,90,13.0,64.0
5145,76.0,0,180,11.0,64.0
5146,64.0,0,90,4.0,64.0
5147,73.0,0,180,11.0,64.0
5148,69.0,6,180,11.0,64.0
5149,64.0,0,90,12.0,64.0
5150,73.0,0,180,1.0,64.0
5151,81.0,0,180,1.0,64.0
5152,52.0,114,90,14.0,64.0
5153,73.0,0,180,10.0,64.0
5154,64.0,0,180,10.0,64.0
5155,81.0,0,180,10.0,64.0
5156,64.0,0,90,12.0,64.0
5157,64.0,0,90,4.0,64.0
5158,64.0,0,90,13.0,64.0
5159,52.0,120,90,14.0,64.0
5160,64.0,0,90,13.0,64.0
5161,64.0,120,90,12.0,64.0
5162,52.0,0,90,14.0,64.0
5163,64.0,0,90,4.0,64.0
5164,52.0,0,90,14.0,64.0
5165,71.0,0,180,11.0,64.0
5166,64.0,0,90,12.0,64.0
5167,71.0,0,180,10.0,64.0
5168,64.0,0,90,4.0,64.0
5169,64.0,0,180,10.0,64.0
5170,80.0,0,180,1.0,64.0
5171,71.0,0,180,1.0,64.0
5172,64.0,114,90,13.0,64.0
5173,76.0,0,180,11.0,64.0
5174,68.0,0,180,11.0,64.0
5175,80.0,6,180,10.0,64.0
5176,64.0,0,90,4.0,64.0
5177,52.0,0,90,14.0,64.0
5178,64.0,120,90,12.0,64.0
5179,64.0,0,90,13.0,64.0
5180,64.0,0,90,4.0,64.0
5181,64.0,0,90,12.0,64.0
5182,52.0,120,90,14.0,64.0
5183,64.0,0,90,13.0,64.0
5184,73.0,0,180,11.0,64.0
5185,64.0,0,90,13.0,64.0
5186,73.0,0,180,1.0,64.0
5187,81.0,0,180,1.0,64.0
5188,69.0,0,180,11.0,64.0
5189,64.0,114,90,4.0,64.0
5190,64.0,0,90,12.0,64.0
5191,81.0,0,180,10.0,64.0
5192,64.0,0,180,10.0,64.0
5193,73.0,6,180,10.0,64.0
5194,52.0,0,90,14.0,64.0
5195,76.0,0,180,11.0,64.0
5196,64.0,120,90,4.0,64.0
5197,64.0,0,90,13.0,64.0
5198,52.0,0,90,14.0,64.0
5199,64.0,0,90,12.0,64.0
5200,64.0,0,90,12.0,64.0
5201,52.0,0,90,14.0,64.0
5202,64.0,0,90,4.0,64.0
5203,64.0,234,90,13.0,64.0
5204,71.0,0,180,1.0,64.0
5205,80.0,0,180,1.0,64.0
5206,64.0,0,180,10.0,64.0
5207,76.0,0,180,11.0,64.0
5208,64.0,0,180,4.0,64.0
5209,71.0,0,180,10.0,64.0
5210,64.0,0,180,13.0,64.0
5211,68.0,624,180,11.0,64.0
5212,64.0,0,180,12.0,64.0
5213,52.0,0,180,14.0,64.0
5214,71.0,0,180,11.0,64.0
5215,80.0,0,180,10.0,64.0
5216,64.0,0,30,11.0,64.0
5217,64.0,60,30,10.0,64.0
5218,66.0,0,30,10.0,64.0
5219,66.0,60,30,11.0,64.0
5220,68.0,0,30,10.0,64.0
5221,68.0,60,30,11.0,64.0
5222,69.0,0,30,11.0,64.0
5223,69.0,60,30,10.0,64.0
5224,71.0,60,30,11.0,64.0
5225,71.0,0,30,10.0,64.0
5226,73.0,0,30,10.0,64.0
5227,73.0,60,30,11.0,64.0
5228,74.0,0,30,10.0,64.0
5229,74.0,60,30,11.0,64.0
5230,76.0,0,30,11.0,64.0
5231,76.0,60,30,10.0,64.0
5232,78.0,60,30,11.0,64.0
5233,78.0,0,30,10.0,64.0
5234,80.0,0,30,10.0,64.0
5235,80.0,60,30,11.0,64.0
5236,81.0,0,30,11.0,64.0
5237,81.0,216,30,10.0,64.0
5238,83.0,486,180,10.0,64.0
5239,83.0,0,180,11.0,64.0
5240,76.0,90,90,10.0,64.0
5241,81.0,30,300,10.0,64.0
5242,64.0,0,60,11.0,64.0
5243,73.0,0,570,1.0,64.0
5244,61.0,0,60,11.0,64.0
5245,76.0,12,570,1.0,64.0
5246,45.0,30,90,14.0,64.0
5247,61.0,0,570,4.0,64.0
5248,69.0,0,570,4.0,64.0
5249,57.0,0,90,13.0,64.0
5250,57.0,30,60,12.0,64.0
5251,64.0,60,60,11.0,64.0
5252,61.0,0,60,11.0,64.0
5253,57.0,0,60,12.0,64.0
5254,61.0,30,60,11.0,64.0
5255,57.0,0,60,12.0,64.0
5256,64.0,0,60,11.0,64.0
5257,45.0,0,90,14.0,64.0
5258,57.0,30,90,13.0,64.0
5259,57.0,0,60,12.0,64.0
5260,61.0,0,60,11.0,64.0
5261,64.0,60,60,11.0,64.0
5262,64.0,0,60,11.0,64.0
5263,45.0,0,90,14.0,64.0
5264,61.0,0,60,11.0,64.0
5265,57.0,0,60,12.0,64.0
5266,57.0,30,90,13.0,64.0
5267,61.0,0,60,11.0,64.0
5268,64.0,0,60,11.0,64.0
5269,57.0,60,60,12.0,64.0
5270,61.0,30,60,11.0,64.0
5271,64.0,0,60,11.0,64.0
5272,69.0,0,300,10.0,64.0
5273,45.0,0,90,14.0,64.0
5274,57.0,0,60,12.0,64.0
5275,57.0,30,90,13.0,64.0
5276,57.0,0,60,12.0,64.0
5277,64.0,60,60,11.0,64.0
5278,61.0,0,60,11.0,64.0
5279,61.0,30,60,11.0,64.0
5280,45.0,0,90,14.0,64.0
5281,57.0,0,60,12.0,64.0
5282,64.0,0,60,11.0,64.0
5283,57.0,18,90,13.0,64.0
5284,61.0,0,60,11.0,64.0
5285,64.0,0,60,11.0,64.0
5286,57.0,60,60,12.0,64.0
5287,64.0,30,60,11.0,64.0
5288,61.0,0,60,11.0,64.0
5289,57.0,0,60,12.0,64.0
5290,45.0,0,90,14.0,64.0
5291,57.0,30,90,13.0,64.0
5292,61.0,0,60,11.0,64.0
5293,64.0,0,60,11.0,64.0
5294,57.0,60,60,12.0,64.0
5295,59.0,0,90,13.0,64.0
5296,71.0,0,450,4.0,64.0
5297,64.0,0,450,4.0,64.0
5298,62.0,30,60,11.0,64.0
5299,64.0,0,60,11.0,64.0
5300,47.0,0,90,14.0,64.0
5301,68.0,30,90,10.0,64.0
5302,74.0,0,570,1.0,64.0
5303,59.0,0,60,12.0,64.0
5304,76.0,12,570,1.0,64.0
5305,64.0,0,60,11.0,64.0
5306,59.0,0,60,12.0,64.0
5307,62.0,60,60,11.0,64.0
5308,68.0,0,60,10.0,64.0
5309,64.0,0,60,11.0,64.0
5310,62.0,30,60,11.0,64.0
5311,59.0,30,90,13.0,64.0
5312,47.0,0,90,14.0,64.0
5313,59.0,0,60,12.0,64.0
5314,69.0,60,60,10.0,64.0
5315,59.0,0,60,12.0,64.0
5316,62.0,0,60,11.0,64.0
5317,64.0,0,60,11.0,64.0
5318,47.0,30,90,14.0,64.0
5319,59.0,0,60,12.0,64.0
5320,71.0,0,60,10.0,64.0
5321,62.0,0,60,11.0,64.0
5322,64.0,30,60,11.0,64.0
5323,59.0,0,90,13.0,64.0
5324,64.0,0,60,11.0,64.0
5325,62.0,0,60,11.0,64.0
5326,73.0,60,60,10.0,64.0
5327,59.0,0,60,12.0,64.0
5328,59.0,0,60,12.0,64.0
5329,74.0,12,90,10.0,64.0
5330,47.0,0,90,14.0,64.0
5331,59.0,18,90,13.0,64.0
5332,64.0,30,60,11.0,64.0
5333,62.0,0,60,11.0,64.0
5334,59.0,0,60,12.0,64.0
5335,64.0,60,60,11.0,64.0
5336,62.0,0,60,11.0,64.0
5337,59.0,0,90,13.0,64.0
5338,59.0,30,60,12.0,64.0
5339,47.0,18,90,14.0,64.0
5340,64.0,0,90,4.0,64.0
5341,64.0,0,60,11.0,64.0
5342,62.0,0,60,11.0,64.0
5343,71.0,0,90,4.0,64.0
5344,64.0,0,60,11.0,64.0
5345,59.0,60,60,12.0,64.0
5346,62.0,0,60,11.0,64.0
5347,62.0,0,60,11.0,64.0
5348,64.0,30,60,11.0,64.0
5349,74.0,0,90,10.0,64.0
5350,47.0,0,90,14.0,64.0
5351,71.0,0,90,4.0,64.0
5352,59.0,0,60,12.0,64.0
5353,59.0,0,90,13.0,64.0
5354,64.0,30,90,4.0,64.0
5355,62.0,0,60,11.0,64.0
5356,64.0,0,60,11.0,64.0
5357,59.0,60,60,12.0,64.0
5358,71.0,0,570,4.0,64.0
5359,76.0,12,570,1.0,64.0
5360,74.0,0,570,1.0,64.0
5361,56.0,30,90,13.0,64.0
5362,44.0,0,90,14.0,64.0
5363,86.0,30,300,10.0,64.0
5364,56.0,30,60,12.0,64.0
5365,64.0,0,60,11.0,64.0
5366,59.0,0,60,11.0,64.0
5367,64.0,0,570,4.0,64.0
5368,59.0,60,60,11.0,64.0
5369,56.0,0,60,12.0,64.0
5370,64.0,0,60,11.0,64.0
5371,59.0,30,60,11.0,64.0
5372,56.0,30,90,13.0,64.0
5373,44.0,0,90,14.0,64.0
5374,56.0,0,60,12.0,64.0
5375,64.0,0,60,11.0,64.0
5376,56.0,0,60,12.0,64.0
5377,64.0,0,60,11.0,64.0
5378,59.0,60,60,11.0,64.0
5379,44.0,0,90,14.0,64.0
5380,56.0,0,60,12.0,64.0
5381,59.0,0,60,11.0,64.0
5382,56.0,30,90,13.0,64.0
5383,64.0,0,60,11.0,64.0
5384,64.0,0,60,11.0,64.0
5385,59.0,60,60,11.0,64.0
5386,56.0,0,60,12.0,64.0
5387,74.0,0,300,10.0,64.0
5388,56.0,30,60,12.0,64.0
5389,71.0,0,60,11.0,64.0
5390,44.0,30,90,14.0,64.0
5391,64.0,0,60,11.0,64.0
5392,56.0,0,90,13.0,64.0
5393,71.0,0,60,11.0,64.0
5394,64.0,60,60,11.0,64.0
5395,56.0,0,60,12.0,64.0
5396,56.0,0,60,12.0,64.0
5397,44.0,0,90,14.0,64.0
5398,64.0,30,60,11.0,64.0
5399,56.0,18,90,13.0,64.0
5400,71.0,0,60,11.0,64.0
5401,71.0,0,60,11.0,64.0
5402,64.0,60,60,11.0,64.0
5403,56.0,0,60,12.0,64.0
5404,44.0,0,90,14.0,64.0
5405,71.0,0,60,11.0,64.0
5406,56.0,30,90,13.0,64.0
5407,56.0,30,60,12.0,64.0
5408,64.0,0,60,11.0,64.0
5409,56.0,0,60,12.0,64.0
5410,71.0,60,60,11.0,64.0
5411,64.0,0,60,11.0,64.0
5412,45.0,0,90,14.0,64.0
5413,73.0,30,90,10.0,64.0
5414,69.0,30,300,4.0,64.0
5415,73.0,0,300,1.0,64.0
5416,76.0,0,300,1.0,64.0
5417,69.0,0,60,11.0,64.0
5418,57.0,0,90,13.0,64.0
5419,73.0,0,300,4.0,64.0
5420,57.0,0,60,12.0,64.0
5421,64.0,30,60,11.0,64.0
5422,57.0,60,60,12.0,64.0
5423,69.0,0,60,11.0,64.0
5424,64.0,0,60,11.0,64.0
5425,64.0,0,60,11.0,64.0
5426,57.0,30,90,13.0,64.0
5427,45.0,0,90,14.0,64.0
5428,69.0,0,60,11.0,64.0
5429,57.0,0,60,12.0,64.0
5430,73.0,30,60,10.0,64.0
5431,69.0,60,60,11.0,64.0
5432,57.0,0,60,12.0,64.0
5433,74.0,0,60,10.0,64.0
5434,64.0,0,60,11.0,64.0
5435,76.0,0,60,10.0,64.0
5436,57.0,0,60,12.0,64.0
5437,45.0,0,90,14.0,64.0
5438,64.0,0,60,11.0,64.0
5439,69.0,0,60,11.0,64.0
5440,57.0,30,90,13.0,64.0
5441,57.0,0,60,12.0,64.0
5442,69.0,0,60,11.0,64.0
5443,64.0,0,60,11.0,64.0
5444,78.0,60,60,10.0,64.0
5445,37.0,0,90,14.0,64.0
5446,69.0,0,60,11.0,64.0
5447,49.0,18,90,13.0,64.0
5448,57.0,0,90,4.0,64.0
5449,61.0,30,60,12.0,64.0
5450,76.0,12,90,10.0,64.0
5451,69.0,0,90,4.0,64.0
5452,61.0,60,60,12.0,64.0
5453,69.0,0,60,11.0,64.0
5454,69.0,30,60,11.0,64.0
5455,61.0,0,60,12.0,64.0
5456,57.0,30,90,4.0,64.0
5457,37.0,0,90,14.0,64.0
5458,69.0,0,90,4.0,64.0
5459,49.0,0,90,13.0,64.0
5460,61.0,60,60,12.0,64.0
5461,69.0,0,60,11.0,64.0
5462,69.0,0,60,11.0,64.0
5463,81.0,12,90,10.0,64.0
5464,81.0,0,90,1.0,64.0
5465,69.0,0,90,1.0,64.0
5466,49.0,0,90,14.0,64.0
5467,69.0,0,90,4.0,64.0
5468,57.0,18,90,4.0,64.0
5469,61.0,30,60,12.0,64.0
5470,61.0,0,90,13.0,64.0
5471,69.0,0,60,11.0,64.0
5472,61.0,42,60,12.0,64.0
5473,80.0,18,30,1.0,64.0
5474,57.0,0,90,4.0,64.0
5475,69.0,12,90,4.0,64.0
5476,64.0,0,30,13.0,64.0
5477,52.0,0,30,14.0,64.0
5478,80.0,0,30,10.0,64.0
5479,64.0,0,30,12.0,64.0
5480,69.0,12,60,11.0,64.0
5481,78.0,30,30,10.0,64.0
5482,62.0,0,30,12.0,64.0
5483,50.0,0,30,14.0,64.0
5484,78.0,0,30,1.0,64.0
5485,62.0,0,30,13.0,64.0
5486,80.0,0,30,1.0,64.0
5487,69.0,12,60,11.0,64.0
5488,64.0,0,30,13.0,64.0
5489,52.0,6,30,14.0,64.0
5490,80.0,0,30,10.0,64.0
5491,64.0,0,30,12.0,64.0
5492,62.0,0,30,12.0,64.0
5493,62.0,0,30,13.0,64.0
5494,50.0,48,30,14.0,64.0
5495,78.0,0,30,1.0,64.0
5496,78.0,0,30,10.0,64.0
5497,61.0,0,90,12.0,64.0
5498,61.0,0,90,13.0,64.0
5499,76.0,18,90,10.0,64.0
5500,76.0,0,90,1.0,64.0
5501,69.0,30,60,11.0,64.0
5502,49.0,0,90,14.0,64.0
5503,57.0,0,90,4.0,64.0
5504,69.0,12,90,4.0,64.0
5505,69.0,60,60,11.0,64.0
5506,61.0,42,60,12.0,64.0
5507,61.0,0,60,13.0,64.0
5508,69.0,18,60,11.0,64.0
5509,76.0,0,60,10.0,64.0
5510,49.0,0,60,14.0,64.0
5511,69.0,42,60,11.0,64.0
5512,69.0,0,90,4.0,64.0
5513,76.0,0,30,10.0,64.0
5514,68.0,0,30,13.0,64.0
5515,56.0,0,30,14.0,64.0
5516,76.0,18,30,1.0,64.0
5517,68.0,0,30,12.0,64.0
5518,57.0,12,90,4.0,64.0
5519,69.0,12,60,11.0,64.0
5520,66.0,0,30,13.0,64.0
5521,66.0,30,30,12.0,64.0
5522,54.0,0,30,14.0,64.0
5523,74.0,0,30,10.0,64.0
5524,74.0,0,30,1.0,64.0
5525,76.0,0,30,1.0,64.0
5526,56.0,6,30,14.0,64.0
5527,69.0,12,60,11.0,64.0
5528,68.0,0,30,12.0,64.0
5529,76.0,0,30,10.0,64.0
5530,68.0,0,30,13.0,64.0
5531,66.0,0,30,13.0,64.0
5532,66.0,0,30,12.0,64.0
5533,74.0,0,30,10.0,64.0
5534,74.0,0,30,1.0,64.0
5535,54.0,48,30,14.0,64.0
5536,64.0,0,90,13.0,64.0
5537,73.0,18,90,10.0,64.0
5538,52.0,0,90,14.0,64.0
5539,69.0,30,60,11.0,64.0
5540,69.0,0,90,4.0,64.0
5541,57.0,12,90,4.0,64.0
5542,64.0,0,90,12.0,64.0
5543,73.0,0,90,1.0,64.0
5544,69.0,60,60,11.0,64.0
5545,64.0,0,60,12.0,64.0
5546,64.0,0,60,13.0,64.0
5547,69.0,18,60,11.0,64.0
5548,52.0,0,60,14.0,64.0
5549,73.0,42,60,10.0,64.0
5550,69.0,42,60,11.0,64.0
5551,64.0,0,30,12.0,64.0
5552,64.0,0,30,13.0,64.0
5553,80.0,0,30,1.0,64.0
5554,80.0,0,30,10.0,64.0
5555,52.0,18,30,14.0,64.0
5556,69.0,12,90,4.0,64.0
5557,57.0,0,90,4.0,64.0
5558,69.0,12,60,11.0,64.0
5559,62.0,0,30,12.0,64.0
5560,50.0,0,30,14.0,64.0
5561,78.0,0,30,1.0,64.0
5562,78.0,0,30,10.0,64.0
5563,62.0,30,30,13.0,64.0
5564,80.0,0,30,1.0,64.0
5565,64.0,6,30,12.0,64.0
5566,80.0,0,30,10.0,64.0
5567,64.0,0,30,13.0,64.0
5568,69.0,12,60,11.0,64.0
5569,52.0,0,30,14.0,64.0
5570,62.0,0,30,13.0,64.0
5571,78.0,0,30,1.0,64.0
5572,62.0,48,30,12.0,64.0
5573,50.0,0,30,14.0,64.0
5574,78.0,0,30,10.0,64.0
5575,61.0,0,90,12.0,64.0
5576,61.0,0,90,13.0,64.0
5577,69.0,0,90,4.0,64.0
5578,76.0,18,90,1.0,64.0
5579,57.0,12,90,4.0,64.0
5580,76.0,0,90,10.0,64.0
5581,49.0,0,90,14.0,64.0
5582,69.0,30,60,11.0,64.0
5583,69.0,60,60,11.0,64.0
5584,61.0,42,60,12.0,64.0
5585,76.0,0,60,10.0,64.0
5586,61.0,0,60,13.0,64.0
5587,49.0,0,60,14.0,64.0
5588,69.0,18,60,11.0,64.0
5589,69.0,42,60,11.0,64.0
5590,57.0,0,90,4.0,64.0
5591,76.0,0,30,1.0,64.0
5592,68.0,18,30,13.0,64.0
5593,76.0,0,30,10.0,64.0
5594,56.0,0,30,14.0,64.0
5595,68.0,0,30,12.0,64.0
5596,69.0,12,60,11.0,64.0
5597,69.0,12,90,4.0,64.0
5598,74.0,0,30,10.0,64.0
5599,54.0,0,30,14.0,64.0
5600,66.0,0,30,13.0,64.0
5601,74.0,30,30,1.0,64.0
5602,66.0,0,30,12.0,64.0
5603,68.0,0,30,13.0,64.0
5604,69.0,12,60,11.0,64.0
5605,56.0,0,30,14.0,64.0
5606,68.0,0,30,12.0,64.0
5607,76.0,0,30,1.0,64.0
5608,76.0,6,30,10.0,64.0
5609,66.0,0,30,13.0,64.0
5610,74.0,0,30,1.0,64.0
5611,66.0,0,30,12.0,64.0
5612,74.0,0,30,10.0,64.0
5613,54.0,48,30,14.0,64.0
5614,64.0,0,90,12.0,64.0
5615,69.0,30,60,11.0,64.0
5616,73.0,0,90,1.0,64.0
5617,73.0,0,90,10.0,64.0
5618,69.0,0,90,4.0,64.0
5619,64.0,0,90,13.0,64.0
5620,52.0,18,90,14.0,64.0
5621,57.0,12,90,4.0,64.0
5622,69.0,60,60,11.0,64.0
5623,73.0,0,60,10.0,64.0
5624,64.0,0,60,12.0,64.0
5625,69.0,18,60,11.0,64.0
5626,64.0,0,60,13.0,64.0
5627,52.0,42,60,14.0,64.0
5628,69.0,78,60,11.0,64.0
5629,74.0,0,60,11.0,64.0
5630,62.0,0,60,13.0,64.0
5631,50.0,0,60,14.0,64.0
5632,74.0,0,60,10.0,64.0
5633,74.0,174,60,1.0,64.0
5634,62.0,0,60,12.0,64.0
5635,62.0,0,120,12.0,64.0
5636,50.0,0,120,14.0,64.0
5637,74.0,0,120,11.0,64.0
5638,74.0,0,120,1.0,64.0
5639,62.0,0,120,13.0,64.0
5640,74.0,66,120,10.0,64.0
5641,73.0,0,60,1.0,64.0
5642,73.0,0,60,11.0,64.0
5643,61.0,0,60,13.0,64.0
5644,61.0,0,60,12.0,64.0
5645,49.0,0,60,14.0,64.0
5646,73.0,120,60,10.0,64.0
5647,71.0,0,60,11.0,64.0
5648,71.0,0,60,1.0,64.0
5649,59.0,0,60,13.0,64.0
5650,71.0,0,60,10.0,64.0
5651,47.0,174,60,14.0,64.0
5652,59.0,0,60,12.0,64.0
5653,71.0,0,120,1.0,64.0
5654,71.0,0,120,11.0,64.0
5655,59.0,0,120,12.0,64.0
5656,59.0,0,120,13.0,64.0
5657,47.0,0,120,14.0,64.0
5658,71.0,66,120,10.0,64.0
5659,57.0,0,60,13.0,64.0
5660,45.0,0,60,14.0,64.0
5661,69.0,0,60,10.0,64.0
5662,69.0,120,60,1.0,64.0
5663,69.0,0,60,11.0,64.0
5664,57.0,0,60,12.0,64.0
5665,56.0,0,60,12.0,64.0
5666,56.0,0,60,13.0,64.0
5667,68.0,0,60,11.0,64.0
5668,68.0,0,60,1.0,64.0
5669,71.0,0,60,4.0,64.0
5670,64.0,0,60,4.0,64.0
5671,68.0,0,60,10.0,64.0
5672,44.0,120,60,14.0,64.0
5673,71.0,0,60,11.0,64.0
5674,47.0,0,60,14.0,64.0
5675,71.0,0,60,10.0,64.0
5676,59.0,0,60,12.0,64.0
5677,71.0,0,60,1.0,64.0
5678,64.0,0,60,4.0,64.0
5679,71.0,120,60,4.0,64.0
5680,59.0,0,60,13.0,64.0
5681,44.0,0,60,14.0,64.0
5682,64.0,120,60,4.0,64.0
5683,56.0,0,60,12.0,64.0
5684,68.0,0,60,10.0,64.0
5685,71.0,0,60,4.0,64.0
5686,68.0,0,60,1.0,64.0
5687,56.0,0,60,13.0,64.0
5688,68.0,0,60,11.0,64.0
5689,76.0,0,60,10.0,64.0
5690,71.0,0,60,4.0,64.0
5691,64.0,0,60,12.0,64.0
5692,76.0,0,60,11.0,64.0
5693,64.0,0,60,4.0,64.0
5694,52.0,0,60,14.0,64.0
5695,64.0,0,60,13.0,64.0
5696,76.0,252,60,1.0,64.0
5697,64.0,90,90,10.0,64.0
5698,33.0,0,90,14.0,64.0
5699,45.0,12,90,13.0,64.0
5700,52.0,48,60,12.0,64.0
5701,69.0,0,300,10.0,64.0
5702,61.0,0,60,11.0,64.0
5703,52.0,60,60,12.0,64.0
5704,61.0,0,60,11.0,64.0
5705,45.0,12,90,13.0,64.0
5706,52.0,48,60,12.0,64.0
5707,61.0,0,60,11.0,64.0
5708,33.0,0,90,14.0,64.0
5709,61.0,0,60,11.0,64.0
5710,52.0,60,60,12.0,64.0
5711,45.0,12,90,13.0,64.0
5712,52.0,0,60,12.0,64.0
5713,61.0,48,60,11.0,64.0
5714,33.0,0,90,14.0,64.0
5715,61.0,0,60,11.0,64.0
5716,52.0,60,60,12.0,64.0
5717,61.0,0,60,11.0,64.0
5718,52.0,48,60,12.0,64.0
5719,33.0,12,90,14.0,64.0
5720,57.0,0,300,10.0,64.0
5721,45.0,0,90,13.0,64.0
5722,61.0,60,60,11.0,64.0
5723,52.0,0,60,12.0,64.0
5724,52.0,0,60,12.0,64.0
5725,45.0,12,90,13.0,64.0
5726,33.0,0,90,14.0,64.0
5727,61.0,48,60,11.0,64.0
5728,52.0,60,60,12.0,64.0
5729,61.0,0,60,11.0,64.0
5730,33.0,12,90,14.0,64.0
5731,61.0,48,60,11.0,64.0
5732,45.0,0,90,13.0,64.0
5733,52.0,0,60,12.0,64.0
5734,61.0,0,60,11.0,64.0
5735,52.0,60,60,12.0,64.0
5736,47.0,0,90,13.0,64.0
5737,52.0,30,60,12.0,64.0
5738,62.0,0,60,11.0,64.0
5739,56.0,18,90,10.0,64.0
5740,35.0,12,90,14.0,64.0
5741,52.0,0,60,12.0,64.0
5742,62.0,51,60,11.0,64.0
5743,52.0,0,60,12.0,64.0
5744,35.0,0,90,14.0,64.0
5745,47.0,3,90,13.0,64.0
5746,62.0,48,60,11.0,64.0
5747,56.0,9,30,10.0,64.0
5748,52.0,51,60,12.0,64.0
5749,62.0,0,60,11.0,64.0
5750,57.0,9,30,10.0,64.0
5751,59.0,9,30,10.0,64.0
5752,52.0,48,60,12.0,64.0
5753,47.0,0,90,13.0,64.0
5754,35.0,3,90,14.0,64.0
5755,62.0,0,60,11.0,64.0
5756,62.0,60,60,11.0,64.0
5757,61.0,9,30,10.0,64.0
5758,52.0,0,60,12.0,64.0
5759,56.0,30,60,11.0,64.0
5760,47.0,12,90,13.0,64.0
5761,62.0,18,90,10.0,64.0
5762,52.0,0,60,12.0,64.0
5763,35.0,0,90,14.0,64.0
5764,52.0,0,60,12.0,64.0
5765,56.0,60,60,11.0,64.0
5766,52.0,0,60,12.0,64.0
5767,47.0,0,90,13.0,64.0
5768,35.0,12,90,14.0,64.0
5769,56.0,48,60,11.0,64.0
5770,56.0,0,60,11.0,64.0
5771,52.0,60,60,12.0,64.0
5772,47.0,12,90,13.0,64.0
5773,35.0,0,90,14.0,64.0
5774,62.0,18,90,10.0,64.0
5775,52.0,30,60,12.0,64.0
5776,56.0,0,60,11.0,64.0
5777,56.0,0,60,11.0,64.0
5778,52.0,60,60,12.0,64.0
5779,59.0,48,60,11.0,64.0
5780,32.0,0,90,14.0,64.0
5781,74.0,48,300,10.0,64.0
5782,44.0,12,90,13.0,64.0
5783,52.0,0,60,12.0,64.0
5784,52.0,60,60,12.0,64.0
5785,59.0,0,60,11.0,64.0
5786,59.0,0,60,11.0,64.0
5787,52.0,48,60,12.0,64.0
5788,44.0,0,90,13.0,64.0
5789,32.0,12,90,14.0,64.0
5790,59.0,0,60,11.0,64.0
5791,52.0,60,60,12.0,64.0
5792,52.0,0,60,12.0,64.0
5793,59.0,0,60,11.0,64.0
5794,44.0,0,90,13.0,64.0
5795,32.0,12,90,14.0,64.0
5796,59.0,0,60,11.0,64.0
5797,52.0,60,60,12.0,64.0
5798,44.0,12,90,13.0,64.0
5799,32.0,0,90,14.0,64.0
5800,62.0,48,300,10.0,64.0
5801,52.0,0,60,12.0,64.0
5802,59.0,48,60,11.0,64.0
5803,52.0,0,60,12.0,64.0
5804,59.0,60,60,11.0,64.0
5805,32.0,12,90,14.0,64.0
5806,59.0,0,60,11.0,64.0
5807,52.0,48,60,12.0,64.0
5808,44.0,0,90,13.0,64.0
5809,52.0,0,60,12.0,64.0
5810,59.0,60,60,11.0,64.0
5811,59.0,0,60,11.0,64.0
5812,32.0,0,90,14.0,64.0
5813,52.0,0,60,12.0,64.0
5814,44.0,12,90,13.0,64.0
5815,52.0,60,60,12.0,64.0
5816,59.0,0,60,11.0,64.0
5817,57.0,0,90,11.0,64.0
5818,33.0,12,90,14.0,64.0
5819,52.0,30,60,12.0,64.0
5820,61.0,18,90,10.0,64.0
5821,45.0,0,90,13.0,64.0
5822,52.0,51,60,12.0,64.0
5823,57.0,0,30,11.0,64.0
5824,45.0,0,90,13.0,64.0
5825,61.0,9,30,10.0,64.0
5826,52.0,48,60,12.0,64.0
5827,33.0,3,90,14.0,64.0
5828,59.0,0,30,11.0,64.0
5829,62.0,9,30,10.0,64.0
5830,52.0,51,60,12.0,64.0
5831,64.0,9,30,10.0,64.0
5832,33.0,0,90,14.0,64.0
5833,52.0,48,60,12.0,64.0
5834,45.0,3,90,13.0,64.0
5835,61.0,0,30,11.0,64.0
5836,52.0,168,60,12.0,64.0
5837,62.0,9,30,11.0,64.0
5838,66.0,0,30,10.0,64.0
5839,57.0,126,180,12.0,64.0
5840,33.0,0,180,14.0,64.0
5841,64.0,0,150,10.0,64.0
5842,45.0,0,180,13.0,64.0
5843,61.0,36,150,11.0,64.0
5844,81.0,0,90,10.0,64.0
5845,73.0,72,90,12.0,64.0
5846,76.0,0,90,11.0,64.0
5847,80.0,0,30,10.0,64.0
5848,74.0,30,30,11.0,64.0
5849,71.0,0,30,12.0,64.0
5850,69.0,30,30,12.0,64.0
5851,78.0,0,30,10.0,64.0
5852,73.0,0,30,11.0,64.0
5853,80.0,0,30,10.0,64.0
5854,74.0,0,30,11.0,64.0
5855,71.0,30,30,12.0,64.0
5856,69.0,0,30,12.0,64.0
5857,73.0,0,30,11.0,64.0
5858,78.0,78,30,10.0,64.0
5859,71.0,108,90,11.0,64.0
5860,68.0,0,90,12.0,64.0
5861,76.0,0,90,10.0,64.0
5862,71.0,0,60,11.0,64.0
5863,76.0,0,60,10.0,64.0
5864,68.0,84,60,12.0,64.0
5865,68.0,0,30,12.0,64.0
5866,76.0,30,30,10.0,64.0
5867,71.0,0,30,11.0,64.0
5868,66.0,0,30,12.0,64.0
5869,69.0,30,30,11.0,64.0
5870,74.0,0,30,10.0,64.0
5871,71.0,0,30,11.0,64.0
5872,68.0,30,30,12.0,64.0
5873,76.0,0,30,10.0,64.0
5874,69.0,78,30,11.0,64.0
5875,74.0,0,30,10.0,64.0
5876,66.0,0,30,12.0,64.0
5877,64.0,0,90,12.0,64.0
5878,73.0,108,90,10.0,64.0
5879,68.0,0,90,11.0,64.0
5880,68.0,12,60,11.0,64.0
5881,52.0,0,90,14.0,64.0
5882,64.0,72,90,13.0,64.0
5883,73.0,0,60,10.0,64.0
5884,64.0,0,60,12.0,64.0
5885,68.0,0,30,11.0,64.0
5886,64.0,30,30,13.0,64.0
5887,52.0,0,30,14.0,64.0
5888,64.0,0,30,12.0,64.0
5889,73.0,0,30,10.0,64.0
5890,66.0,30,30,11.0,64.0
5891,50.0,0,30,14.0,64.0
5892,62.0,0,30,13.0,64.0
5893,62.0,0,30,12.0,64.0
5894,71.0,0,30,10.0,64.0
5895,52.0,30,30,14.0,64.0
5896,64.0,0,30,13.0,64.0
5897,64.0,0,30,12.0,64.0
5898,73.0,0,30,10.0,64.0
5899,68.0,0,30,11.0,64.0
5900,62.0,78,30,13.0,64.0
5901,71.0,0,30,10.0,64.0
5902,62.0,0,30,12.0,64.0
5903,66.0,0,30,11.0,64.0
5904,50.0,0,30,14.0,64.0
5905,64.0,0,90,11.0,64.0
5906,49.0,0,90,14.0,64.0
5907,61.0,0,90,13.0,64.0
5908,69.0,0,90,10.0,64.0
5909,61.0,108,90,12.0,64.0
5910,61.0,0,60,13.0,64.0
5911,69.0,84,60,10.0,64.0
5912,64.0,0,60,11.0,64.0
5913,49.0,0,60,14.0,64.0
5914,61.0,0,60,12.0,64.0
5915,49.0,0,30,14.0,64.0
5916,61.0,0,30,12.0,64.0
5917,61.0,30,30,13.0,64.0
5918,69.0,0,30,10.0,64.0
5919,64.0,0,30,11.0,64.0
5920,68.0,0,30,10.0,64.0
5921,59.0,0,30,12.0,64.0
5922,47.0,30,30,14.0,64.0
5923,62.0,0,30,11.0,64.0
5924,59.0,0,30,13.0,64.0
5925,69.0,0,30,10.0,64.0
5926,61.0,0,30,13.0,64.0
5927,49.0,0,30,14.0,64.0
5928,61.0,0,30,12.0,64.0
5929,64.0,30,30,11.0,64.0
5930,47.0,0,30,14.0,64.0
5931,62.0,0,30,11.0,64.0
5932,59.0,78,30,13.0,64.0
5933,59.0,0,30,12.0,64.0
5934,68.0,0,30,10.0,64.0
5935,66.0,0,90,10.0,64.0
5936,57.0,0,90,12.0,64.0
5937,45.0,0,90,14.0,64.0
5938,61.0,0,90,11.0,64.0
5939,57.0,108,90,13.0,64.0
5940,66.0,0,60,10.0,64.0
5941,61.0,0,60,11.0,64.0
5942,57.0,102,60,12.0,64.0
5943,57.0,0,60,13.0,64.0
5944,45.0,0,60,14.0,64.0
5945,44.0,12,90,14.0,64.0
5946,59.0,48,60,11.0,64.0
5947,62.0,0,60,12.0,64.0
5948,64.0,0,300,10.0,64.0
5949,64.0,0,300,4.0,64.0
5950,71.0,0,300,4.0,64.0
5951,64.0,0,300,1.0,64.0
5952,56.0,0,90,13.0,64.0
5953,62.0,0,60,12.0,64.0
5954,59.0,60,60,11.0,64.0
5955,59.0,48,60,11.0,64.0
5956,44.0,0,90,14.0,64.0
5957,62.0,0,60,12.0,64.0
5958,56.0,12,90,13.0,64.0
5959,62.0,0,60,12.0,64.0
5960,59.0,60,60,11.0,64.0
5961,56.0,0,90,13.0,64.0
5962,44.0,12,90,14.0,64.0
5963,62.0,48,60,12.0,64.0
5964,59.0,0,60,11.0,64.0
5965,59.0,0,60,11.0,64.0
5966,62.0,60,60,12.0,64.0
5967,56.0,12,90,13.0,64.0
5968,74.0,48,300,1.0,64.0
5969,71.0,0,60,11.0,64.0
5970,64.0,48,60,12.0,64.0
5971,74.0,0,300,10.0,64.0
5972,44.0,0,90,14.0,64.0
5973,71.0,0,60,11.0,64.0
5974,64.0,60,60,12.0,64.0
5975,56.0,0,90,13.0,64.0
5976,44.0,0,90,14.0,64.0
5977,71.0,12,90,4.0,64.0
5978,64.0,0,90,4.0,64.0
5979,71.0,48,60,11.0,64.0
5980,64.0,0,60,12.0,64.0
5981,64.0,0,60,12.0,64.0
5982,71.0,60,60,11.0,64.0
5983,71.0,0,90,4.0,64.0
5984,64.0,12,90,4.0,64.0
5985,56.0,0,90,13.0,64.0
5986,44.0,0,90,14.0,64.0
5987,64.0,0,60,12.0,64.0
5988,71.0,0,60,11.0,64.0
5989,64.0,0,60,12.0,64.0
5990,71.0,60,60,11.0,64.0
5991,64.0,0,60,12.0,64.0
5992,73.0,48,300,10.0,64.0
5993,73.0,0,300,4.0,64.0
5994,69.0,0,300,4.0,64.0
5995,45.0,0,90,14.0,64.0
5996,69.0,48,60,11.0,64.0
5997,57.0,12,90,13.0,64.0
5998,73.0,0,300,1.0,64.0
5999,64.0,0,60,12.0,64.0
6000,69.0,60,60,11.0,64.0
6001,64.0,0,60,12.0,64.0
6002,69.0,48,60,11.0,64.0
6003,57.0,12,90,13.0,64.0
6004,45.0,0,90,14.0,64.0
6005,69.0,0,60,11.0,64.0
6006,64.0,60,60,12.0,64.0
6007,45.0,0,90,14.0,64.0
6008,64.0,0,60,12.0,64.0
6009,57.0,12,90,13.0,64.0
6010,69.0,0,60,11.0,64.0
6011,69.0,60,60,11.0,64.0
6012,64.0,0,60,12.0,64.0
6013,45.0,0,90,14.0,64.0
6014,81.0,48,300,10.0,64.0
6015,76.0,0,60,11.0,64.0
6016,73.0,48,60,11.0,64.0
6017,69.0,0,60,12.0,64.0
6018,81.0,0,300,1.0,64.0
6019,57.0,12,90,13.0,64.0
6020,69.0,0,60,12.0,64.0
6021,76.0,60,60,11.0,64.0
6022,73.0,0,60,11.0,64.0
6023,69.0,48,60,12.0,64.0
6024,45.0,0,90,14.0,64.0
6025,57.0,0,90,13.0,64.0
6026,76.0,0,60,11.0,64.0
6027,69.0,0,90,4.0,64.0
6028,73.0,0,60,11.0,64.0
6029,61.0,12,90,4.0,64.0
6030,76.0,0,60,11.0,64.0
6031,69.0,60,60,12.0,64.0
6032,73.0,0,60,11.0,64.0
6033,61.0,12,90,4.0,64.0
6034,76.0,0,60,11.0,64.0
6035,73.0,0,60,11.0,64.0
6036,45.0,0,90,14.0,64.0
6037,69.0,0,60,12.0,64.0
6038,69.0,0,90,4.0,64.0
6039,57.0,0,90,13.0,64.0
6040,69.0,0,60,12.0,64.0
6041,73.0,60,60,11.0,64.0
6042,76.0,0,60,11.0,64.0
6043,57.0,24,180,4.0,64.0
6044,50.0,0,300,13.0,64.0
6045,38.0,0,300,14.0,64.0
6046,69.0,12,90,12.0,64.0
6047,78.0,48,60,10.0,64.0
6048,78.0,0,300,1.0,64.0
6049,69.0,0,180,4.0,64.0
6050,78.0,0,60,11.0,64.0
6051,76.0,60,60,11.0,64.0
6052,76.0,0,60,10.0,64.0
6053,74.0,0,60,10.0,64.0
6054,74.0,24,60,11.0,64.0
6055,66.0,12,90,12.0,64.0
6056,73.0,60,60,10.0,64.0
6057,73.0,0,60,11.0,64.0
6058,71.0,0,60,10.0,64.0
6059,71.0,60,60,11.0,64.0
6060,69.0,0,60,10.0,64.0
6061,69.0,60,60,11.0,64.0
6062,59.0,12,90,12.0,64.0
6063,68.0,0,60,11.0,64.0
6064,40.0,0,300,14.0,64.0
6065,64.0,0,300,4.0,64.0
6066,52.0,0,300,13.0,64.0
6067,68.0,0,300,1.0,64.0
6068,68.0,48,60,10.0,64.0
6069,66.0,0,60,11.0,64.0
6070,66.0,60,60,10.0,64.0
6071,64.0,48,60,10.0,64.0
6072,64.0,0,60,11.0,64.0
6073,56.0,12,90,12.0,64.0
6074,62.0,0,60,11.0,64.0
6075,62.0,60,60,10.0,64.0
6076,61.0,0,60,10.0,64.0
6077,61.0,60,60,11.0,64.0
6078,59.0,0,60,10.0,64.0
6079,59.0,78,60,11.0,64.0
6080,57.0,0,60,4.0,64.0
6081,57.0,0,60,12.0,64.0
6082,33.0,0,60,14.0,64.0
6083,69.0,120,60,1.0,64.0
6084,45.0,0,60,13.0,64.0
6085,57.0,0,60,11.0,64.0
6086,57.0,0,60,10.0,64.0
6087,40.0,0,60,14.0,64.0
6088,52.0,0,60,13.0,64.0
6089,64.0,0,60,11.0,64.0
6090,64.0,0,60,4.0,64.0
6091,64.0,0,60,12.0,64.0
6092,64.0,120,60,10.0,64.0
6093,76.0,0,60,1.0,64.0
6094,61.0,0,60,4.0,64.0
6095,61.0,0,60,12.0,64.0
6096,37.0,120,60,14.0,64.0
6097,49.0,0,60,13.0,64.0
6098,73.0,0,60,1.0,64.0
6099,61.0,0,60,11.0,64.0
6100,61.0,0,60,10.0,64.0
6101,69.0,0,60,12.0,64.0
6102,69.0,0,60,10.0,64.0
6103,81.0,0,60,1.0,64.0
6104,69.0,0,60,11.0,64.0
6105,69.0,0,60,4.0,64.0
6106,45.0,240,60,14.0,64.0
6107,57.0,0,60,13.0,64.0
6108,69.0,102,60,10.0,64.0
6109,56.0,12,90,13.0,64.0
6110,64.0,0,300,10.0,64.0
6111,62.0,0,60,12.0,64.0
6112,59.0,48,60,11.0,64.0
6113,44.0,0,90,14.0,64.0
6114,62.0,0,60,12.0,64.0
6115,59.0,60,60,11.0,64.0
6116,62.0,0,60,12.0,64.0
6117,56.0,0,90,13.0,64.0
6118,59.0,48,60,11.0,64.0
6119,44.0,12,90,14.0,64.0
6120,59.0,0,60,11.0,64.0
6121,62.0,60,60,12.0,64.0
6122,56.0,12,90,13.0,64.0
6123,59.0,0,60,11.0,64.0
6124,44.0,0,90,14.0,64.0
6125,62.0,48,60,12.0,64.0
6126,62.0,0,60,12.0,64.0
6127,59.0,60,60,11.0,64.0
6128,64.0,0,60,12.0,64.0
6129,71.0,48,60,11.0,64.0
6130,74.0,0,300,10.0,64.0
6131,44.0,0,90,14.0,64.0
6132,56.0,12,90,13.0,64.0
6133,71.0,0,60,11.0,64.0
6134,64.0,60,60,12.0,64.0
6135,56.0,12,90,13.0,64.0
6136,44.0,0,90,14.0,64.0
6137,71.0,48,60,11.0,64.0
6138,64.0,0,60,12.0,64.0
6139,71.0,60,60,11.0,64.0
6140,64.0,0,60,12.0,64.0
6141,64.0,0,60,12.0,64.0
6142,71.0,48,60,11.0,64.0
6143,56.0,0,90,13.0,64.0
6144,44.0,12,90,14.0,64.0
6145,71.0,0,60,11.0,64.0
6146,64.0,60,60,12.0,64.0
6147,73.0,0,300,10.0,64.0
6148,57.0,0,90,13.0,64.0
6149,64.0,48,60,12.0,64.0
6150,45.0,12,90,14.0,64.0
6151,69.0,0,60,11.0,64.0
6152,64.0,60,60,12.0,64.0
6153,69.0,0,60,11.0,64.0
6154,64.0,0,60,12.0,64.0
6155,57.0,12,90,13.0,64.0
6156,69.0,48,60,11.0,64.0
6157,45.0,0,90,14.0,64.0
6158,64.0,0,60,12.0,64.0
6159,69.0,60,60,11.0,64.0
6160,45.0,12,90,14.0,64.0
6161,69.0,0,60,11.0,64.0
6162,57.0,0,90,13.0,64.0
6163,64.0,48,60,12.0,64.0
6164,64.0,0,60,12.0,64.0
6165,69.0,60,60,11.0,64.0
6166,76.0,0,60,11.0,64.0
6167,73.0,0,60,11.0,64.0
6168,45.0,12,90,14.0,64.0
6169,81.0,0,300,10.0,64.0
6170,57.0,0,90,13.0,64.0
6171,69.0,48,60,12.0,64.0
6172,76.0,0,60,11.0,64.0
6173,73.0,0,60,11.0,64.0
6174,69.0,60,60,12.0,64.0
6175,69.0,48,60,12.0,64.0
6176,76.0,0,60,11.0,64.0
6177,73.0,0,60,11.0,64.0
6178,57.0,12,90,13.0,64.0
6179,45.0,0,90,14.0,64.0
6180,76.0,60,60,11.0,64.0
6181,69.0,0,60,12.0,64.0
6182,73.0,0,60,11.0,64.0
6183,76.0,0,60,11.0,64.0
6184,73.0,48,60,11.0,64.0
6185,69.0,0,60,12.0,64.0
6186,57.0,12,90,13.0,64.0
6187,45.0,0,90,14.0,64.0
6188,76.0,60,60,11.0,64.0
6189,73.0,0,60,11.0,64.0
6190,69.0,0,60,12.0,64.0
6191,78.0,0,60,10.0,64.0
6192,50.0,0,300,13.0,64.0
6193,78.0,0,60,11.0,64.0
6194,38.0,0,300,14.0,64.0
6195,69.0,60,60,12.0,64.0
6196,76.0,0,60,10.0,64.0
6197,76.0,60,60,11.0,64.0
6198,68.0,0,60,12.0,64.0
6199,66.0,0,60,12.0,64.0
6200,74.0,60,60,11.0,64.0
6201,74.0,0,60,10.0,64.0
6202,73.0,0,60,10.0,64.0
6203,73.0,0,60,11.0,64.0
6204,64.0,60,60,12.0,64.0
6205,71.0,60,60,11.0,64.0
6206,71.0,0,60,10.0,64.0
6207,62.0,0,60,12.0,64.0
6208,69.0,60,60,10.0,64.0
6209,61.0,0,60,12.0,64.0
6210,69.0,0,60,11.0,64.0
6211,59.0,0,60,12.0,64.0
6212,68.0,60,60,11.0,64.0
6213,52.0,0,300,13.0,64.0
6214,68.0,0,60,10.0,64.0
6215,40.0,0,300,14.0,64.0
6216,66.0,60,60,10.0,64.0
6217,66.0,0,60,11.0,64.0
6218,57.0,0,60,12.0,64.0
6219,64.0,60,60,11.0,64.0
6220,56.0,0,60,12.0,64.0
6221,64.0,0,60,10.0,64.0
6222,54.0,60,60,12.0,64.0
6223,62.0,0,60,11.0,64.0
6224,62.0,0,60,10.0,64.0
6225,61.0,0,60,10.0,64.0
6226,52.0,0,60,12.0,64.0
6227,61.0,60,60,11.0,64.0
6228,59.0,0,60,10.0,64.0
6229,50.0,60,60,12.0,64.0
6230,59.0,0,60,11.0,64.0
6231,57.0,0,60,11.0,64.0
6232,49.0,18,60,12.0,64.0
6233,57.0,42,60,4.0,64.0
6234,45.0,0,60,13.0,64.0
6235,57.0,36,180,10.0,64.0
6236,33.0,0,60,14.0,64.0
6237,69.0,24,1410,1.0,64.0
6238,49.0,60,60,12.0,64.0
6239,57.0,0,60,11.0,64.0
6240,49.0,0,60,12.0,64.0
6241,52.0,0,60,13.0,64.0
6242,40.0,0,60,14.0,64.0
6243,57.0,18,60,11.0,64.0
6244,64.0,6,60,4.0,64.0
6245,49.0,0,60,12.0,64.0
6246,57.0,60,60,11.0,64.0
6247,57.0,18,60,11.0,64.0
6248,37.0,0,60,14.0,64.0
6249,49.0,42,60,13.0,64.0
6250,61.0,0,60,4.0,64.0
6251,49.0,0,60,12.0,64.0
6252,49.0,0,60,12.0,64.0
6253,57.0,60,60,11.0,64.0
6254,57.0,0,60,11.0,64.0
6255,69.0,42,60,4.0,64.0
6256,49.0,18,60,12.0,64.0
6257,45.0,0,60,14.0,64.0
6258,57.0,0,60,13.0,64.0
6259,57.0,60,60,11.0,64.0
6260,49.0,0,60,12.0,64.0
6261,57.0,60,60,11.0,64.0
6262,49.0,0,60,12.0,64.0
6263,49.0,0,60,12.0,64.0
6264,57.0,60,60,11.0,64.0
6265,57.0,60,60,11.0,64.0
6266,49.0,0,60,12.0,64.0
6267,49.0,60,60,12.0,64.0
6268,57.0,0,60,11.0,64.0
6269,57.0,18,60,11.0,64.0
6270,49.0,0,60,12.0,64.0
6271,69.0,42,60,10.0,64.0
6272,49.0,0,60,12.0,64.0
6273,57.0,60,60,11.0,64.0
6274,76.0,42,60,10.0,64.0
6275,49.0,0,60,12.0,64.0
6276,57.0,18,60,11.0,64.0
6277,49.0,0,60,12.0,64.0
6278,57.0,60,60,11.0,64.0
6279,49.0,0,60,12.0,64.0
6280,57.0,18,60,11.0,64.0
6281,73.0,42,60,10.0,64.0
6282,57.0,0,60,11.0,64.0
6283,49.0,60,60,12.0,64.0
6284,49.0,0,60,12.0,64.0
6285,81.0,42,60,10.0,64.0
6286,57.0,18,60,11.0,64.0
6287,57.0,0,60,11.0,64.0
6288,49.0,60,60,12.0,64.0
6289,49.0,60,60,12.0,64.0
6290,57.0,0,60,11.0,64.0
6291,57.0,60,60,11.0,64.0
6292,49.0,0,60,12.0,64.0
6293,57.0,0,60,11.0,64.0
6294,49.0,36,60,12.0,64.0
6295,57.0,60,60,11.0,64.0
6296,49.0,0,60,12.0,64.0
6297,85.0,0,1410,1.0,64.0
6298,64.0,0,60,4.0,64.0
6299,54.0,18,60,12.0,64.0
6300,54.0,42,60,13.0,64.0
6301,58.0,0,60,11.0,64.0
6302,76.0,24,1410,1.0,64.0
6303,73.0,0,60,4.0,64.0
6304,42.0,0,60,14.0,64.0
6305,58.0,60,60,11.0,64.0
6306,54.0,0,60,12.0,64.0
6307,49.0,42,60,14.0,64.0
6308,58.0,0,60,11.0,64.0
6309,61.0,0,60,13.0,64.0
6310,64.0,0,60,4.0,64.0
6311,73.0,0,60,4.0,64.0
6312,54.0,18,60,12.0,64.0
6313,58.0,0,60,11.0,64.0
6314,54.0,60,60,12.0,64.0
6315,73.0,0,60,4.0,64.0
6316,58.0,18,60,11.0,64.0
6317,64.0,0,60,4.0,64.0
6318,54.0,0,60,12.0,64.0
6319,46.0,0,60,14.0,64.0
6320,58.0,42,60,13.0,64.0
6321,58.0,60,60,11.0,64.0
6322,54.0,0,60,12.0,64.0
6323,54.0,0,60,14.0,64.0
6324,58.0,18,60,11.0,64.0
6325,54.0,0,60,12.0,64.0
6326,73.0,0,60,4.0,64.0
6327,64.0,0,60,4.0,64.0
6328,66.0,42,60,13.0,64.0
6329,54.0,60,60,12.0,64.0
6330,58.0,0,60,11.0,64.0
6331,58.0,0,60,11.0,64.0
6332,54.0,60,60,12.0,64.0
6333,54.0,60,60,12.0,64.0
6334,58.0,0,60,11.0,64.0
6335,58.0,0,60,11.0,64.0
6336,54.0,60,60,12.0,64.0
6337,58.0,60,60,11.0,64.0
6338,54.0,0,60,12.0,64.0
6339,54.0,0,60,12.0,64.0
6340,58.0,18,60,11.0,64.0
6341,73.0,42,60,10.0,64.0
6342,54.0,0,60,12.0,64.0
6343,58.0,60,60,11.0,64.0
6344,58.0,0,60,11.0,64.0
6345,82.0,42,60,10.0,64.0
6346,54.0,18,60,12.0,64.0
6347,58.0,0,60,11.0,64.0
6348,54.0,60,60,12.0,64.0
6349,58.0,0,60,11.0,64.0
6350,54.0,18,60,12.0,64.0
6351,76.0,42,60,10.0,64.0
6352,58.0,60,60,11.0,64.0
6353,54.0,0,60,12.0,64.0
6354,58.0,18,60,11.0,64.0
6355,54.0,0,60,12.0,64.0
6356,85.0,42,60,10.0,64.0
6357,54.0,0,60,12.0,64.0
6358,58.0,60,60,11.0,64.0
6359,54.0,60,60,12.0,64.0
6360,58.0,0,60,11.0,64.0
6361,58.0,0,60,11.0,64.0
6362,54.0,60,60,12.0,64.0
6363,58.0,36,60,11.0,64.0
6364,54.0,0,60,12.0,64.0
6365,54.0,60,60,12.0,64.0
6366,58.0,0,60,11.0,64.0
6367,47.0,0,60,13.0,64.0
6368,83.0,0,2730,1.0,64.0
6369,54.0,0,60,12.0,64.0
6370,35.0,0,60,14.0,64.0
6371,59.0,18,60,11.0,64.0
6372,74.0,12,2730,1.0,64.0
6373,71.0,42,60,4.0,64.0
6374,54.0,60,60,12.0,64.0
6375,59.0,0,60,11.0,64.0
6376,59.0,18,60,11.0,64.0
6377,54.0,0,60,13.0,64.0
6378,42.0,0,60,14.0,64.0
6379,54.0,0,60,12.0,64.0
6380,71.0,42,60,4.0,64.0
6381,59.0,0,60,11.0,64.0
6382,54.0,60,60,12.0,64.0
6383,59.0,0,60,11.0,64.0
6384,54.0,18,60,12.0,64.0
6385,50.0,42,60,13.0,64.0
6386,71.0,0,60,4.0,64.0
6387,38.0,0,60,14.0,64.0
6388,54.0,0,60,12.0,64.0
6389,59.0,60,60,11.0,64.0
6390,54.0,0,60,12.0,64.0
6391,59.0,42,60,13.0,64.0
6392,47.0,0,60,14.0,64.0
6393,71.0,0,60,4.0,64.0
6394,59.0,18,60,11.0,64.0
6395,54.0,0,60,12.0,64.0
6396,59.0,60,60,11.0,64.0
6397,59.0,0,60,11.0,64.0
6398,54.0,60,60,12.0,64.0
6399,59.0,60,60,11.0,64.0
6400,54.0,0,60,12.0,64.0
6401,59.0,0,60,11.0,64.0
6402,54.0,60,60,12.0,64.0
6403,54.0,60,60,12.0,64.0
6404,54.0,18,60,12.0,64.0
6405,59.0,0,60,11.0,64.0
6406,74.0,42,60,10.0,64.0
6407,54.0,0,60,12.0,64.0
6408,59.0,60,60,11.0,64.0
6409,54.0,0,60,12.0,64.0
6410,83.0,42,60,10.0,64.0
6411,59.0,18,60,11.0,64.0
6412,59.0,60,60,11.0,64.0
6413,54.0,0,60,12.0,64.0
6414,59.0,0,60,11.0,64.0
6415,54.0,18,60,12.0,64.0
6416,78.0,42,60,10.0,64.0
6417,54.0,0,60,12.0,64.0
6418,59.0,60,60,11.0,64.0
6419,86.0,42,60,10.0,64.0
6420,59.0,0,60,11.0,64.0
6421,54.0,18,60,12.0,64.0
6422,59.0,60,60,11.0,64.0
6423,54.0,0,60,12.0,64.0
6424,54.0,0,60,12.0,64.0
6425,59.0,60,60,11.0,64.0
6426,59.0,0,60,11.0,64.0
6427,54.0,60,60,12.0,64.0
6428,54.0,60,60,12.0,64.0
6429,59.0,0,60,11.0,64.0
6430,59.0,0,60,11.0,64.0
6431,54.0,60,60,12.0,64.0
6432,52.0,42,60,13.0,64.0
6433,64.0,0,60,4.0,64.0
6434,71.0,0,60,4.0,64.0
6435,52.0,0,60,12.0,64.0
6436,56.0,18,60,11.0,64.0
6437,40.0,0,60,14.0,64.0
6438,52.0,60,60,12.0,64.0
6439,56.0,0,60,11.0,64.0
6440,71.0,0,60,4.0,64.0
6441,64.0,42,60,4.0,64.0
6442,47.0,0,60,14.0,64.0
6443,56.0,18,60,11.0,64.0
6444,52.0,0,60,12.0,64.0
6445,59.0,0,60,13.0,64.0
6446,56.0,60,60,11.0,64.0
6447,52.0,0,60,12.0,64.0
6448,44.0,0,60,14.0,64.0
6449,71.0,0,60,4.0,64.0
6450,64.0,42,60,4.0,64.0
6451,52.0,0,60,12.0,64.0
6452,56.0,18,60,11.0,64.0
6453,56.0,0,60,13.0,64.0
6454,52.0,0,60,12.0,64.0
6455,56.0,60,60,11.0,64.0
6456,56.0,18,60,11.0,64.0
6457,52.0,0,60,14.0,64.0
6458,71.0,0,60,4.0,64.0
6459,52.0,0,60,12.0,64.0
6460,64.0,0,60,13.0,64.0
6461,64.0,42,60,4.0,64.0
6462,52.0,60,60,12.0,64.0
6463,56.0,0,60,11.0,64.0
6464,56.0,0,60,11.0,64.0
6465,52.0,60,60,12.0,64.0
6466,56.0,0,60,11.0,64.0
6467,52.0,60,60,12.0,64.0
6468,52.0,60,60,12.0,64.0
6469,56.0,0,60,11.0,64.0
6470,52.0,60,60,12.0,64.0
6471,56.0,0,60,11.0,64.0
6472,56.0,0,60,11.0,64.0
6473,52.0,18,60,12.0,64.0
6474,71.0,42,60,10.0,64.0
6475,56.0,0,60,11.0,64.0
6476,52.0,60,60,12.0,64.0
6477,52.0,0,60,12.0,64.0
6478,56.0,18,60,11.0,64.0
6479,80.0,42,60,10.0,64.0
6480,52.0,0,60,12.0,64.0
6481,56.0,60,60,11.0,64.0
6482,56.0,18,60,11.0,64.0
6483,52.0,0,60,12.0,64.0
6484,74.0,42,60,10.0,64.0
6485,52.0,0,60,12.0,64.0
6486,56.0,60,60,11.0,64.0
6487,83.0,42,60,10.0,64.0
6488,56.0,0,60,11.0,64.0
6489,52.0,18,60,12.0,64.0
6490,56.0,0,60,11.0,64.0
6491,52.0,60,60,12.0,64.0
6492,52.0,0,60,12.0,64.0
6493,56.0,48,60,11.0,64.0
6494,52.0,60,60,12.0,64.0
6495,56.0,0,60,11.0,64.0
6496,56.0,60,60,11.0,64.0
6497,52.0,0,60,12.0,64.0
6498,52.0,0,60,12.0,64.0
6499,56.0,60,60,11.0,64.0
6500,57.0,0,60,11.0,64.0
6501,73.0,0,1290,1.0,64.0
6502,45.0,0,60,13.0,64.0
6503,81.0,12,1290,1.0,64.0
6504,52.0,18,60,12.0,64.0
6505,57.0,42,60,4.0,64.0
6506,33.0,0,60,14.0,64.0
6507,57.0,60,60,11.0,64.0
6508,52.0,0,60,12.0,64.0
6509,52.0,0,60,12.0,64.0
6510,64.0,42,60,4.0,64.0
6511,40.0,0,60,14.0,64.0
6512,57.0,18,60,11.0,64.0
6513,52.0,0,60,13.0,64.0
6514,52.0,0,60,12.0,64.0
6515,57.0,60,60,11.0,64.0
6516,49.0,42,60,13.0,64.0
6517,57.0,0,60,11.0,64.0
6518,52.0,18,60,12.0,64.0
6519,37.0,0,60,14.0,64.0
6520,61.0,0,60,4.0,64.0
6521,52.0,0,60,12.0,64.0
6522,57.0,60,60,11.0,64.0
6523,57.0,0,60,11.0,64.0
6524,52.0,18,60,12.0,64.0
6525,69.0,0,60,4.0,64.0
6526,45.0,42,60,14.0,64.0
6527,57.0,0,60,13.0,64.0
6528,52.0,0,60,12.0,64.0
6529,57.0,60,60,11.0,64.0
6530,52.0,0,60,12.0,64.0
6531,57.0,60,60,11.0,64.0
6532,52.0,0,60,12.0,64.0
6533,57.0,60,60,11.0,64.0
6534,52.0,0,60,12.0,64.0
6535,57.0,60,60,11.0,64.0
6536,57.0,60,60,11.0,64.0
6537,52.0,0,60,12.0,64.0
6538,73.0,42,60,10.0,64.0
6539,57.0,18,60,11.0,64.0
6540,52.0,0,60,12.0,64.0
6541,57.0,0,60,11.0,64.0
6542,52.0,60,60,12.0,64.0
6543,57.0,18,60,11.0,64.0
6544,52.0,0,60,12.0,64.0
6545,81.0,42,60,10.0,64.0
6546,52.0,0,60,12.0,64.0
6547,57.0,60,60,11.0,64.0
6548,57.0,0,60,11.0,64.0
6549,52.0,18,60,12.0,64.0
6550,76.0,42,60,10.0,64.0
6551,52.0,60,60,12.0,64.0
6552,57.0,0,60,11.0,64.0
6553,57.0,18,60,11.0,64.0
6554,52.0,0,60,12.0,64.0
6555,85.0,42,60,10.0,64.0
6556,52.0,0,60,12.0,64.0
6557,57.0,60,60,11.0,64.0
6558,57.0,0,60,11.0,64.0
6559,52.0,48,60,12.0,64.0
6560,57.0,0,60,11.0,64.0
6561,52.0,60,60,12.0,64.0
6562,52.0,60,60,12.0,64.0
6563,57.0,0,60,11.0,64.0
6564,57.0,0,60,11.0,64.0
6565,52.0,60,60,12.0,64.0
6566,71.0,0,60,11.0,64.0
6567,69.0,0,2130,4.0,64.0
6568,57.0,18,2130,4.0,64.0
6569,66.0,6,330,1.0,64.0
6570,50.0,30,90,13.0,64.0
6571,71.0,0,330,1.0,64.0
6572,66.0,30,60,12.0,64.0
6573,38.0,0,90,14.0,64.0
6574,81.0,0,60,10.0,64.0
6575,66.0,0,60,12.0,64.0
6576,81.0,0,60,10.0,64.0
6577,71.0,60,60,11.0,64.0
6578,81.0,30,60,10.0,64.0
6579,66.0,0,60,12.0,64.0
6580,71.0,0,60,11.0,64.0
6581,38.0,30,90,14.0,64.0
6582,50.0,0,90,13.0,64.0
6583,71.0,0,60,11.0,64.0
6584,81.0,0,60,10.0,64.0
6585,66.0,60,60,12.0,64.0
6586,66.0,30,60,12.0,64.0
6587,50.0,24,90,13.0,64.0
6588,81.0,0,60,10.0,64.0
6589,38.0,0,90,14.0,64.0
6590,71.0,0,60,11.0,64.0
6591,81.0,0,60,10.0,64.0
6592,66.0,0,60,12.0,64.0
6593,71.0,60,60,11.0,64.0
6594,73.0,0,60,11.0,64.0
6595,52.0,0,90,13.0,64.0
6596,81.0,0,60,10.0,64.0
6597,73.0,0,330,1.0,64.0
6598,64.0,30,60,12.0,64.0
6599,64.0,6,330,1.0,64.0
6600,40.0,30,90,14.0,64.0
6601,81.0,60,60,10.0,64.0
6602,73.0,0,60,11.0,64.0
6603,64.0,0,60,12.0,64.0
6604,73.0,0,60,11.0,64.0
6605,52.0,0,90,13.0,64.0
6606,81.0,30,60,10.0,64.0
6607,64.0,0,60,12.0,64.0
6608,40.0,30,90,14.0,64.0
6609,73.0,0,60,11.0,64.0
6610,64.0,0,60,12.0,64.0
6611,81.0,60,60,10.0,64.0
6612,81.0,0,60,10.0,64.0
6613,73.0,30,60,11.0,64.0
6614,52.0,24,90,13.0,64.0
6615,64.0,0,60,12.0,64.0
6616,40.0,0,90,14.0,64.0
6617,64.0,0,60,12.0,64.0
6618,73.0,0,60,11.0,64.0
6619,81.0,60,60,10.0,64.0
6620,74.0,0,330,1.0,64.0
6621,62.0,6,330,1.0,64.0
6622,42.0,0,90,14.0,64.0
6623,74.0,0,60,11.0,64.0
6624,54.0,30,90,13.0,64.0
6625,81.0,0,60,10.0,64.0
6626,62.0,30,60,12.0,64.0
6627,62.0,0,60,12.0,64.0
6628,74.0,60,60,11.0,64.0
6629,81.0,0,60,10.0,64.0
6630,42.0,30,90,14.0,64.0
6631,74.0,30,60,11.0,64.0
6632,54.0,0,90,13.0,64.0
6633,62.0,0,60,12.0,64.0
6634,81.0,0,60,10.0,64.0
6635,74.0,0,60,11.0,64.0
6636,62.0,60,60,12.0,64.0
6637,81.0,0,60,10.0,64.0
6638,81.0,0,60,10.0,64.0
6639,62.0,0,60,12.0,64.0
6640,54.0,24,90,13.0,64.0
6641,42.0,0,90,14.0,64.0
6642,74.0,30,60,11.0,64.0
6643,81.0,0,60,10.0,64.0
6644,62.0,0,60,12.0,64.0
6645,74.0,60,60,11.0,64.0
6646,64.0,0,60,12.0,64.0
6647,52.0,30,90,13.0,64.0
6648,40.0,0,90,14.0,64.0
6649,81.0,30,60,10.0,64.0
6650,64.0,6,330,1.0,64.0
6651,73.0,0,330,1.0,64.0
6652,73.0,0,60,11.0,64.0
6653,64.0,60,60,12.0,64.0
6654,81.0,0,60,10.0,64.0
6655,73.0,0,60,11.0,64.0
6656,52.0,30,90,13.0,64.0
6657,40.0,0,90,14.0,64.0
6658,81.0,30,60,10.0,64.0
6659,64.0,0,60,12.0,64.0
6660,73.0,0,60,11.0,64.0
6661,73.0,60,60,11.0,64.0
6662,64.0,0,60,12.0,64.0
6663,81.0,0,60,10.0,64.0
6664,52.0,0,90,13.0,64.0
6665,73.0,0,60,11.0,64.0
6666,40.0,24,90,14.0,64.0
6667,81.0,0,60,10.0,64.0
6668,64.0,30,60,12.0,64.0
6669,81.0,60,60,10.0,64.0
6670,73.0,0,60,11.0,64.0
6671,64.0,0,60,12.0,64.0
6672,71.0,6,330,1.0,64.0
6673,66.0,0,330,1.0,64.0
6674,71.0,0,60,11.0,64.0
6675,38.0,30,90,14.0,64.0
6676,50.0,0,90,13.0,64.0
6677,66.0,0,60,12.0,64.0
6678,81.0,30,60,10.0,64.0
6679,71.0,0,60,11.0,64.0
6680,81.0,0,60,10.0,64.0
6681,66.0,60,60,12.0,64.0
6682,38.0,0,90,14.0,64.0
6683,81.0,0,60,10.0,64.0
6684,71.0,0,60,11.0,64.0
6685,50.0,30,90,13.0,64.0
6686,66.0,30,60,12.0,64.0
6687,71.0,60,60,11.0,64.0
6688,66.0,0,60,12.0,64.0
6689,81.0,0,60,10.0,64.0
6690,66.0,0,60,12.0,64.0
6691,38.0,0,90,14.0,64.0
6692,81.0,0,60,10.0,64.0
6693,50.0,24,90,13.0,64.0
6694,71.0,30,60,11.0,64.0
6695,66.0,0,60,12.0,64.0
6696,71.0,60,60,11.0,64.0
6697,81.0,0,60,10.0,64.0
6698,81.0,30,60,10.0,64.0
6699,51.0,30,90,13.0,64.0
6700,78.0,0,330,1.0,64.0
6701,81.0,6,330,1.0,64.0
6702,39.0,0,90,14.0,64.0
6703,71.0,0,60,11.0,64.0
6704,66.0,0,60,12.0,64.0
6705,71.0,60,60,11.0,64.0
6706,66.0,0,60,12.0,64.0
6707,81.0,0,60,10.0,64.0
6708,51.0,30,90,13.0,64.0
6709,71.0,0,60,11.0,64.0
6710,66.0,0,60,12.0,64.0
6711,39.0,0,90,14.0,64.0
6712,81.0,30,60,10.0,64.0
6713,81.0,0,60,10.0,64.0
6714,66.0,60,60,12.0,64.0
6715,71.0,0,60,11.0,64.0
6716,81.0,30,60,10.0,64.0
6717,39.0,0,90,14.0,64.0
6718,51.0,6,90,13.0,64.0
6719,66.0,0,60,12.0,64.0
6720,71.0,0,60,11.0,64.0
6721,66.0,90,60,12.0,64.0
6722,71.0,0,60,11.0,64.0
6723,81.0,0,60,10.0,64.0
6724,52.0,0,90,13.0,64.0
6725,80.0,0,90,1.0,64.0
6726,64.0,0,90,12.0,64.0
6727,76.0,0,90,1.0,64.0
6728,80.0,0,90,10.0,64.0
6729,71.0,120,90,11.0,64.0
6730,40.0,0,90,14.0,64.0
6731,64.0,0,90,4.0,64.0
6732,64.0,0,90,12.0,64.0
6733,52.0,0,90,13.0,64.0
6734,68.0,0,90,1.0,64.0
6735,76.0,0,90,1.0,64.0
6736,68.0,120,90,11.0,64.0
6737,40.0,0,90,14.0,64.0
6738,64.0,0,90,4.0,64.0
6739,71.0,0,90,11.0,64.0
6740,76.0,0,90,10.0,64.0
6741,71.0,0,90,4.0,64.0
6742,68.0,234,90,1.0,64.0
6743,76.0,0,90,1.0,64.0
6744,71.0,0,90,11.0,64.0
6745,76.0,0,90,10.0,64.0
6746,64.0,0,90,4.0,64.0
6747,71.0,0,90,4.0,64.0
6748,64.0,0,90,12.0,64.0
6749,52.0,0,90,13.0,64.0
6750,68.0,0,90,11.0,64.0
6751,40.0,0,90,14.0,64.0
6752,40.0,228,180,14.0,64.0
6753,71.0,0,180,10.0,64.0
6754,64.0,0,180,12.0,64.0
6755,68.0,0,180,11.0,64.0
6756,71.0,0,180,11.0,64.0
6757,64.0,0,180,4.0,64.0
6758,71.0,0,180,4.0,64.0
6759,68.0,0,180,10.0,64.0
6760,68.0,0,180,1.0,64.0
6761,76.0,0,180,1.0,64.0
6762,76.0,0,180,10.0,64.0
6763,52.0,0,180,13.0,64.0
6764,75.0,144,60,10.0,64.0
6765,76.0,216,150,10.0,64.0
6766,78.0,144,60,10.0,64.0
6767,76.0,216,150,10.0,64.0
6768,72.0,0,60,11.0,64.0
6769,75.0,144,60,10.0,64.0
6770,73.0,216,150,11.0,64.0
6771,76.0,0,150,10.0,64.0
6772,57.0,0,360,12.0,64.0
6773,78.0,144,60,10.0,64.0
6774,57.0,60,360,13.0,64.0
6775,45.0,0,360,14.0,64.0
6776,74.0,0,60,11.0,64.0
6777,76.0,0,150,10.0,64.0
6778,73.0,156,150,11.0,64.0
6779,56.0,0,360,12.0,64.0
6780,75.0,144,60,10.0,64.0
6781,59.0,0,360,13.0,64.0
6782,47.0,60,360,14.0,64.0
6783,74.0,120,450,11.0,64.0
6784,76.0,156,150,10.0,64.0
6785,78.0,18,60,10.0,64.0
6786,59.0,78,330,12.0,64.0
6787,56.0,0,330,13.0,64.0
6788,44.0,0,330,14.0,64.0
6789,76.0,114,150,10.0,64.0
6790,71.0,6,90,11.0,64.0
6791,69.0,24,90,11.0,64.0
6792,69.0,78,60,11.0,64.0
6793,62.0,0,360,12.0,64.0
6794,75.0,0,60,10.0,64.0
6795,52.0,0,360,13.0,64.0
6796,40.0,60,360,14.0,64.0
6797,76.0,15,150,10.0,64.0
6798,68.0,66,90,11.0,64.0
6799,66.0,99,30,11.0,64.0
6800,64.0,42,90,11.0,64.0
6801,50.0,78,330,14.0,64.0
6802,66.0,96,240,11.0,64.0
6803,62.0,0,330,13.0,64.0
6804,59.0,0,330,12.0,64.0
6805,78.0,144,60,10.0,64.0
6806,76.0,36,150,10.0,64.0
6807,68.0,6,90,11.0,64.0
6808,63.0,144,60,10.0,64.0
6809,49.0,60,360,14.0,64.0
6810,69.0,96,240,11.0,64.0
6811,61.0,0,360,13.0,64.0
6812,61.0,0,360,12.0,64.0
6813,64.0,36,150,10.0,64.0
6814,64.0,24,90,11.0,64.0
6815,61.0,12,180,11.0,64.0
6816,57.0,0,330,13.0,64.0
6817,87.0,132,60,10.0,64.0
6818,57.0,0,330,12.0,64.0
6819,45.0,78,330,14.0,64.0
6820,88.0,138,150,10.0,64.0
6821,75.0,0,60,10.0,64.0
6822,72.0,144,60,11.0,64.0
6823,73.0,216,150,11.0,64.0
6824,76.0,0,150,10.0,64.0
6825,57.0,60,360,13.0,64.0
6826,57.0,0,360,12.0,64.0
6827,78.0,0,60,10.0,64.0
6828,74.0,144,60,11.0,64.0
6829,45.0,0,360,14.0,64.0
6830,76.0,0,150,10.0,64.0
6831,73.0,156,150,11.0,64.0
6832,74.0,120,450,11.0,64.0
6833,59.0,60,360,13.0,64.0
6834,75.0,144,60,10.0,64.0
6835,56.0,0,360,12.0,64.0
6836,47.0,0,360,14.0,64.0
6837,76.0,156,150,10.0,64.0
6838,44.0,0,330,14.0,64.0
6839,59.0,78,330,12.0,64.0
6840,56.0,0,330,13.0,64.0
6841,78.0,18,60,10.0,64.0
6842,76.0,114,150,10.0,64.0
6843,71.0,6,90,11.0,64.0
6844,69.0,24,90,11.0,64.0
6845,52.0,60,360,13.0,64.0
6846,69.0,78,60,11.0,64.0
6847,40.0,0,360,14.0,64.0
6848,75.0,0,60,10.0,64.0
6849,62.0,0,360,12.0,64.0
6850,76.0,15,150,10.0,64.0
6851,68.0,66,90,11.0,64.0
6852,66.0,99,30,11.0,64.0
6853,64.0,42,90,11.0,64.0
6854,59.0,0,330,12.0,64.0
6855,66.0,96,240,11.0,64.0
6856,50.0,0,330,14.0,64.0
6857,62.0,78,330,13.0,64.0
6858,78.0,144,60,10.0,64.0
6859,76.0,36,150,10.0,64.0
6860,68.0,6,90,11.0,64.0
6861,49.0,0,360,14.0,64.0
6862,63.0,144,60,10.0,64.0
6863,61.0,0,360,12.0,64.0
6864,61.0,60,360,13.0,64.0
6865,69.0,96,240,11.0,64.0
6866,64.0,36,150,10.0,64.0
6867,64.0,24,90,11.0,64.0
6868,57.0,0,330,12.0,64.0
6869,61.0,120,90,11.0,64.0
6870,57.0,0,330,13.0,64.0
6871,87.0,18,60,10.0,64.0
6872,45.0,90,330,14.0,64.0
6873,88.0,114,150,10.0,64.0
6874,76.0,6,90,11.0,64.0
6875,76.0,24,90,11.0,64.0
6876,76.0,120,450,11.0,64.0
6877,62.0,0,60,13.0,64.0
6878,50.0,0,60,14.0,64.0
6879,69.0,126,60,12.0,64.0
6880,78.0,120,90,10.0,64.0
6881,78.0,114,90,10.0,64.0
6882,59.0,0,60,13.0,64.0
6883,78.0,120,450,10.0,64.0
6884,71.0,6,60,12.0,64.0
6885,47.0,0,60,14.0,64.0
6886,74.0,120,90,11.0,64.0
6887,74.0,114,90,11.0,64.0
6888,71.0,0,60,12.0,64.0
6889,56.0,6,60,13.0,64.0
6890,44.0,0,60,14.0,64.0
6891,74.0,120,450,11.0,64.0
6892,76.0,120,90,10.0,64.0
6893,76.0,114,90,10.0,64.0
6894,69.0,0,60,12.0,64.0
6895,45.0,6,60,14.0,64.0
6896,57.0,0,60,13.0,64.0
6897,76.0,120,450,10.0,64.0
6898,73.0,120,90,11.0,64.0
6899,73.0,114,90,11.0,64.0
6900,54.0,0,60,13.0,64.0
6901,73.0,120,450,11.0,64.0
6902,69.0,0,60,12.0,64.0
6903,42.0,6,60,14.0,64.0
6904,74.0,120,90,10.0,64.0
6905,74.0,114,90,10.0,64.0
6906,56.0,0,60,13.0,64.0
6907,74.0,120,450,10.0,64.0
6908,68.0,6,60,12.0,64.0
6909,44.0,0,60,14.0,64.0
6910,71.0,120,90,11.0,64.0
6911,71.0,114,90,11.0,64.0
6912,68.0,0,60,12.0,64.0
6913,53.0,6,60,13.0,64.0
6914,71.0,120,450,11.0,64.0
6915,41.0,0,60,14.0,64.0
6916,73.0,120,90,10.0,64.0
6917,73.0,114,90,10.0,64.0
6918,73.0,120,450,10.0,64.0
6919,42.0,0,60,14.0,64.0
6920,54.0,0,60,13.0,64.0
6921,66.0,6,60,12.0,64.0
6922,69.0,120,90,11.0,64.0
6923,69.0,114,90,11.0,64.0
6924,66.0,0,60,12.0,64.0
6925,38.0,6,60,14.0,64.0
6926,69.0,120,450,11.0,64.0
6927,50.0,0,60,13.0,64.0
6928,71.0,120,90,10.0,64.0
6929,71.0,114,90,10.0,64.0
6930,52.0,0,60,13.0,64.0
6931,40.0,6,60,14.0,64.0
6932,64.0,0,60,12.0,64.0
6933,71.0,84,240,10.0,64.0
6934,68.0,36,90,11.0,64.0
6935,68.0,402,90,11.0,64.0
6936,39.0,0,720,14.0,64.0
6937,84.0,240,720,1.0,64.0
6938,81.0,0,1080,1.0,64.0
6939,63.0,0,720,12.0,64.0
6940,69.0,342,360,10.0,64.0
6941,66.0,0,360,11.0,64.0
6942,51.0,0,720,13.0,64.0
6943,78.0,0,330,10.0,64.0
6944,69.0,18,330,11.0,64.0
6945,64.0,360,720,12.0,64.0
6946,64.0,0,240,10.0,64.0
6947,52.0,0,720,13.0,64.0
6948,85.0,240,360,1.0,64.0
6949,40.0,0,720,14.0,64.0
6950,61.0,114,240,11.0,64.0
6951,73.0,0,120,10.0,64.0
6952,69.0,6,120,11.0,64.0
6953,83.0,12,330,1.0,64.0
6954,62.0,102,240,10.0,64.0
6955,68.0,0,330,11.0,64.0
6956,80.0,0,330,1.0,64.0
6957,71.0,6,120,10.0,64.0
6958,63.0,0,720,12.0,64.0
6959,39.0,0,720,14.0,64.0
6960,51.0,0,720,13.0,64.0
6961,66.0,0,360,11.0,64.0
6962,69.0,342,360,10.0,64.0
6963,81.0,240,1080,1.0,64.0
6964,84.0,240,720,1.0,64.0
6965,78.0,18,330,10.0,64.0
6966,69.0,0,330,11.0,64.0
6967,40.0,0,690,14.0,64.0
6968,64.0,0,690,12.0,64.0
6969,61.0,0,240,11.0,64.0
6970,64.0,114,240,10.0,64.0
6971,52.0,18,690,13.0,64.0
6972,85.0,0,360,1.0,64.0
6973,69.0,6,120,11.0,64.0
6974,73.0,0,120,10.0,64.0
6975,62.0,84,240,10.0,64.0
6976,83.0,0,330,1.0,64.0
6977,68.0,12,330,11.0,64.0
6978,80.0,0,330,1.0,64.0
6979,71.0,54,120,10.0,64.0
6980,69.0,30,60,10.0,64.0
6981,69.0,6,180,11.0,64.0
6982,85.0,0,690,1.0,64.0
6983,81.0,0,690,1.0,64.0
6984,69.0,24,690,4.0,64.0
6985,61.0,0,690,4.0,64.0
6986,45.0,0,90,13.0,64.0
6987,33.0,30,90,14.0,64.0
6988,61.0,0,90,12.0,64.0
6989,76.0,60,60,10.0,64.0
6990,57.0,30,90,13.0,64.0
6991,76.0,24,60,10.0,64.0
6992,73.0,0,90,12.0,64.0
6993,45.0,0,90,14.0,64.0
6994,76.0,60,60,10.0,64.0
6995,76.0,30,60,10.0,64.0
6996,45.0,0,90,14.0,64.0
6997,73.0,30,90,12.0,64.0
6998,57.0,0,90,13.0,64.0
6999,76.0,60,60,10.0,64.0
7000,45.0,12,150,14.0,64.0
7001,57.0,0,150,13.0,64.0
7002,76.0,36,180,10.0,64.0
7003,73.0,0,150,12.0,64.0
7004,73.0,60,60,11.0,64.0
7005,76.0,48,60,11.0,64.0
7006,76.0,24,60,11.0,64.0
7007,76.0,60,60,11.0,64.0
7008,61.0,0,90,12.0,64.0
7009,45.0,0,90,13.0,64.0
7010,76.0,30,60,11.0,64.0
7011,33.0,6,90,14.0,64.0
7012,76.0,60,60,11.0,64.0
7013,86.0,0,690,1.0,64.0
7014,83.0,24,690,1.0,64.0
7015,71.0,0,690,4.0,64.0
7016,32.0,30,90,14.0,64.0
7017,59.0,0,90,12.0,64.0
7018,64.0,0,690,4.0,64.0
7019,44.0,0,90,13.0,64.0
7020,86.0,30,60,10.0,64.0
7021,76.0,6,180,11.0,64.0
7022,76.0,60,60,10.0,64.0
7023,76.0,24,60,10.0,64.0
7024,71.0,0,90,12.0,64.0
7025,56.0,0,90,13.0,64.0
7026,44.0,30,90,14.0,64.0
7027,76.0,60,60,10.0,64.0
7028,44.0,0,90,14.0,64.0
7029,71.0,0,90,12.0,64.0
7030,56.0,30,90,13.0,64.0
7031,76.0,30,60,10.0,64.0
7032,76.0,60,60,10.0,64.0
7033,74.0,60,60,11.0,64.0
7034,71.0,0,150,12.0,64.0
7035,76.0,36,180,10.0,64.0
7036,44.0,12,150,14.0,64.0
7037,56.0,0,150,13.0,64.0
7038,76.0,48,60,11.0,64.0
7039,76.0,24,60,11.0,64.0
7040,76.0,60,60,11.0,64.0
7041,59.0,0,90,12.0,64.0
7042,32.0,0,90,14.0,64.0
7043,76.0,30,60,11.0,64.0
7044,44.0,6,90,13.0,64.0
7045,76.0,60,60,11.0,64.0
7046,61.0,0,690,4.0,64.0
7047,85.0,30,60,10.0,64.0
7048,33.0,0,90,14.0,64.0
7049,45.0,0,90,13.0,64.0
7050,81.0,0,690,1.0,64.0
7051,69.0,0,690,4.0,64.0
7052,85.0,24,690,1.0,64.0
7053,61.0,30,90,12.0,64.0
7054,76.0,6,180,11.0,64.0
7055,76.0,60,60,10.0,64.0
7056,76.0,24,60,10.0,64.0
7057,45.0,0,90,14.0,64.0
7058,57.0,0,90,13.0,64.0
7059,73.0,30,90,12.0,64.0
7060,76.0,60,60,10.0,64.0
7061,57.0,0,90,13.0,64.0
7062,73.0,0,90,12.0,64.0
7063,76.0,30,60,10.0,64.0
7064,45.0,30,90,14.0,64.0
7065,76.0,60,60,10.0,64.0
7066,45.0,12,150,14.0,64.0
7067,76.0,36,180,10.0,64.0
7068,73.0,0,150,12.0,64.0
7069,57.0,0,150,13.0,64.0
7070,73.0,60,60,11.0,64.0
7071,76.0,48,60,11.0,64.0
7072,76.0,24,60,11.0,64.0
7073,76.0,60,60,11.0,64.0
7074,33.0,6,90,14.0,64.0
7075,76.0,30,60,11.0,64.0
7076,61.0,0,90,12.0,64.0
7077,45.0,0,90,13.0,64.0
7078,76.0,60,60,11.0,64.0
7079,64.0,0,690,4.0,64.0
7080,76.0,6,180,11.0,64.0
7081,59.0,0,90,12.0,64.0
7082,83.0,24,690,1.0,64.0
7083,32.0,30,90,14.0,64.0
7084,71.0,0,690,4.0,64.0
7085,44.0,0,90,13.0,64.0
7086,86.0,30,60,10.0,64.0
7087,86.0,0,690,1.0,64.0
7088,76.0,60,60,10.0,64.0
7089,44.0,0,90,14.0,64.0
7090,76.0,24,60,10.0,64.0
7091,56.0,0,90,13.0,64.0
7092,71.0,30,90,12.0,64.0
7093,76.0,60,60,10.0,64.0
7094,56.0,30,90,13.0,64.0
7095,44.0,0,90,14.0,64.0
7096,76.0,30,60,10.0,64.0
7097,71.0,0,90,12.0,64.0
7098,76.0,60,60,10.0,64.0
7099,56.0,0,150,13.0,64.0
7100,71.0,0,150,12.0,64.0
7101,74.0,60,60,11.0,64.0
7102,76.0,36,180,10.0,64.0
7103,44.0,12,150,14.0,64.0
7104,76.0,48,60,11.0,64.0
7105,76.0,24,60,11.0,64.0
7106,76.0,60,60,11.0,64.0
7107,76.0,30,60,11.0,64.0
7108,44.0,0,90,13.0,64.0
7109,59.0,6,90,12.0,64.0
7110,32.0,0,90,14.0,64.0
7111,76.0,60,60,11.0,64.0
7112,33.0,0,90,14.0,64.0
7113,76.0,24,690,1.0,64.0
7114,85.0,0,690,1.0,64.0
7115,61.0,30,90,12.0,64.0
7116,45.0,0,90,13.0,64.0
7117,69.0,0,1410,4.0,64.0
7118,57.0,0,1410,4.0,64.0
7119,85.0,30,60,10.0,64.0
7120,73.0,6,180,11.0,64.0
7121,69.0,60,60,10.0,64.0
7122,73.0,0,90,12.0,64.0
7123,45.0,30,90,14.0,64.0
7124,69.0,24,60,10.0,64.0
7125,57.0,0,90,13.0,64.0
7126,69.0,60,60,10.0,64.0
7127,73.0,30,90,12.0,64.0
7128,57.0,0,90,13.0,64.0
7129,69.0,30,60,10.0,64.0
7130,45.0,0,90,14.0,64.0
7131,69.0,60,60,10.0,64.0
7132,57.0,0,150,13.0,64.0
7133,73.0,12,150,12.0,64.0
7134,69.0,36,180,10.0,64.0
7135,45.0,0,150,14.0,64.0
7136,64.0,60,60,11.0,64.0
7137,73.0,48,60,11.0,64.0
7138,73.0,24,60,11.0,64.0
7139,73.0,60,60,11.0,64.0
7140,73.0,30,60,11.0,64.0
7141,33.0,6,90,14.0,64.0
7142,45.0,0,90,13.0,64.0
7143,61.0,0,90,12.0,64.0
7144,73.0,60,60,11.0,64.0
7145,75.0,6,180,11.0,64.0
7146,75.0,0,690,1.0,64.0
7147,81.0,24,690,1.0,64.0
7148,42.0,30,90,14.0,64.0
7149,57.0,0,90,12.0,64.0
7150,54.0,0,90,13.0,64.0
7151,81.0,30,60,10.0,64.0
7152,63.0,60,60,10.0,64.0
7153,54.0,0,90,14.0,64.0
7154,69.0,30,90,12.0,64.0
7155,66.0,0,90,13.0,64.0
7156,63.0,24,60,10.0,64.0
7157,63.0,60,60,10.0,64.0
7158,66.0,0,90,13.0,64.0
7159,69.0,30,90,12.0,64.0
7160,63.0,30,60,10.0,64.0
7161,54.0,0,90,14.0,64.0
7162,63.0,60,60,10.0,64.0
7163,63.0,36,180,10.0,64.0
7164,54.0,0,150,14.0,64.0
7165,66.0,0,150,13.0,64.0
7166,59.0,60,60,11.0,64.0
7167,69.0,12,150,12.0,64.0
7168,69.0,48,60,11.0,64.0
7169,69.0,24,60,11.0,64.0
7170,69.0,60,60,11.0,64.0
7171,42.0,0,90,14.0,64.0
7172,69.0,30,60,11.0,64.0
7173,54.0,6,90,13.0,64.0
7174,57.0,0,90,12.0,64.0
7175,69.0,90,60,11.0,64.0
7176,76.0,0,180,11.0,64.0
7177,80.0,6,180,1.0,64.0
7178,76.0,0,180,1.0,64.0
7179,40.0,0,90,14.0,64.0
7180,64.0,114,90,4.0,64.0
7181,71.0,0,180,11.0,64.0
7182,71.0,0,180,10.0,64.0
7183,52.0,0,90,13.0,64.0
7184,59.0,0,90,12.0,64.0
7185,80.0,0,180,10.0,64.0
7186,64.0,0,180,10.0,64.0
7187,68.0,0,180,11.0,64.0
7188,64.0,0,90,13.0,64.0
7189,52.0,0,90,14.0,64.0
7190,64.0,0,90,4.0,64.0
7191,64.0,120,90,12.0,64.0
7192,64.0,0,90,13.0,64.0
7193,64.0,120,90,4.0,64.0
7194,64.0,0,90,12.0,64.0
7195,52.0,0,90,14.0,64.0
7196,52.0,0,90,14.0,64.0
7197,64.0,0,90,13.0,64.0
7198,64.0,114,90,12.0,64.0
7199,64.0,0,90,4.0,64.0
7200,69.0,0,180,11.0,64.0
7201,76.0,0,180,11.0,64.0
7202,73.0,0,180,11.0,64.0
7203,73.0,0,180,1.0,64.0
7204,81.0,6,180,1.0,64.0
7205,73.0,0,180,10.0,64.0
7206,64.0,0,180,10.0,64.0
7207,81.0,0,180,10.0,64.0
7208,64.0,0,90,12.0,64.0
7209,52.0,120,90,14.0,64.0
7210,64.0,0,90,13.0,64.0
7211,64.0,0,90,4.0,64.0
7212,64.0,120,90,13.0,64.0
7213,64.0,0,90,4.0,64.0
7214,64.0,0,90,12.0,64.0
7215,52.0,0,90,14.0,64.0
7216,80.0,6,180,10.0,64.0
7217,71.0,0,180,10.0,64.0
7218,71.0,0,180,1.0,64.0
7219,80.0,0,180,1.0,64.0
7220,64.0,0,90,13.0,64.0
7221,71.0,0,180,11.0,64.0
7222,64.0,114,90,12.0,64.0
7223,76.0,0,180,11.0,64.0
7224,52.0,0,90,14.0,64.0
7225,68.0,0,180,11.0,64.0
7226,64.0,0,90,4.0,64.0
7227,64.0,0,180,10.0,64.0
7228,52.0,0,90,14.0,64.0
7229,64.0,0,90,4.0,64.0
7230,64.0,120,90,13.0,64.0
7231,64.0,0,90,12.0,64.0
7232,64.0,0,90,13.0,64.0
7233,64.0,120,90,4.0,64.0
7234,52.0,0,90,14.0,64.0
7235,64.0,0,90,12.0,64.0
7236,73.0,0,180,11.0,64.0
7237,76.0,0,180,11.0,64.0
7238,81.0,0,180,1.0,64.0
7239,73.0,0,180,1.0,64.0
7240,73.0,0,180,10.0,64.0
7241,64.0,0,90,13.0,64.0
7242,69.0,6,180,11.0,64.0
7243,52.0,0,90,14.0,64.0
7244,81.0,0,180,10.0,64.0
7245,64.0,0,180,10.0,64.0
7246,64.0,114,90,4.0,64.0
7247,64.0,0,90,12.0,64.0
7248,64.0,0,90,12.0,64.0
7249,64.0,120,90,13.0,64.0
7250,64.0,0,90,4.0,64.0
7251,52.0,0,90,14.0,64.0
7252,64.0,0,90,4.0,64.0
7253,52.0,120,90,14.0,64.0
7254,64.0,0,90,13.0,64.0
7255,64.0,0,90,12.0,64.0
7256,71.0,0,180,1.0,64.0
7257,80.0,0,180,1.0,64.0
7258,80.0,0,180,10.0,64.0
7259,71.0,0,180,10.0,64.0
7260,64.0,0,180,10.0,64.0
7261,52.0,0,90,14.0,64.0
7262,71.0,0,180,11.0,64.0
7263,76.0,0,180,11.0,64.0
7264,64.0,114,90,12.0,64.0
7265,68.0,6,180,11.0,64.0
7266,64.0,0,90,13.0,64.0
7267,64.0,0,90,4.0,64.0
7268,64.0,0,90,13.0,64.0
7269,64.0,0,90,4.0,64.0
7270,52.0,0,90,14.0,64.0
7271,64.0,120,90,12.0,64.0
7272,64.0,0,90,4.0,64.0
7273,64.0,0,90,13.0,64.0
7274,64.0,0,90,12.0,64.0
7275,52.0,120,90,14.0,64.0
7276,76.0,0,180,11.0,64.0
7277,73.0,0,180,11.0,64.0
7278,69.0,0,180,11.0,64.0
7279,73.0,0,180,1.0,64.0
7280,64.0,0,90,4.0,64.0
7281,81.0,0,180,1.0,64.0
7282,73.0,0,180,10.0,64.0
7283,64.0,6,180,10.0,64.0
7284,81.0,0,180,10.0,64.0
7285,64.0,0,90,12.0,64.0
7286,52.0,0,90,14.0,64.0
7287,64.0,114,90,13.0,64.0
7288,64.0,120,90,13.0,64.0
7289,52.0,0,90,14.0,64.0
7290,64.0,0,90,4.0,64.0
7291,64.0,0,90,12.0,64.0
7292,52.0,234,90,14.0,64.0
7293,64.0,0,90,12.0,64.0
7294,64.0,0,90,13.0,64.0
7295,64.0,0,90,4.0,64.0
7296,64.0,0,180,4.0,64.0
7297,64.0,0,180,12.0,64.0
7298,71.0,0,180,1.0,64.0
7299,68.0,0,180,11.0,64.0
7300,71.0,0,180,11.0,64.0
7301,76.0,627,180,11.0,64.0
7302,64.0,0,180,10.0,64.0
7303,80.0,0,180,10.0,64.0
7304,71.0,0,180,10.0,64.0
7305,52.0,0,180,14.0,64.0
7306,64.0,0,180,13.0,64.0
7307,80.0,0,180,1.0,64.0
7308,64.0,60,30,11.0,64.0
7309,64.0,0,30,10.0,64.0
7310,66.0,60,30,10.0,64.0
7311,66.0,0,30,11.0,64.0
7312,68.0,0,30,11.0,64.0
7313,68.0,60,30,10.0,64.0
7314,69.0,0,30,11.0,64.0
7315,69.0,60,30,10.0,64.0
7316,71.0,0,30,11.0,64.0
7317,71.0,60,30,10.0,64.0
7318,73.0,0,30,11.0,64.0
7319,73.0,60,30,10.0,64.0
7320,74.0,60,30,11.0,64.0
7321,74.0,0,30,10.0,64.0
7322,76.0,60,30,11.0,64.0
7323,76.0,0,30,10.0,64.0
7324,78.0,0,30,11.0,64.0
7325,78.0,60,30,10.0,64.0
7326,80.0,60,30,11.0,64.0
7327,80.0,0,30,10.0,64.0
7328,81.0,0,30,10.0,64.0
7329,81.0,213,30,11.0,64.0
7330,83.0,0,180,10.0,64.0
7331,83.0,486,180,11.0,64.0
7332,76.0,18,90,10.0,64.0
7333,40.0,0,90,14.0,64.0
7334,52.0,312,90,13.0,64.0
7335,76.0,0,90,11.0,64.0
7336,64.0,0,90,12.0,64.0
7337,76.0,0,90,1.0,64.0
7338,64.0,0,90,4.0,64.0
7339,81.0,0,300,1.0,64.0
7340,81.0,0,300,11.0,64.0
7341,81.0,0,300,10.0,64.0
7342,45.0,0,300,14.0,64.0
7343,69.0,0,300,4.0,64.0
7344,57.0,0,300,13.0,64.0
7345,69.0,360,300,12.0,64.0
7346,57.0,0,300,4.0,64.0
7347,57.0,0,300,12.0,64.0
7348,69.0,0,300,1.0,64.0
7349,45.0,168,300,13.0,64.0
7350,69.0,0,300,10.0,64.0
7351,33.0,0,300,14.0,64.0
7352,69.0,0,300,11.0,64.0
7353,44.0,0,90,13.0,64.0
7354,68.0,0,90,1.0,64.0
7355,32.0,0,90,14.0,64.0
7356,68.0,0,90,11.0,64.0
7357,56.0,72,90,12.0,64.0
7358,64.0,0,300,4.0,64.0
7359,68.0,0,90,10.0,64.0
7360,68.0,0,60,10.0,64.0
7361,44.0,0,60,13.0,64.0
7362,32.0,0,60,14.0,64.0
7363,56.0,60,60,12.0,64.0
7364,68.0,0,60,11.0,64.0
7365,68.0,0,60,1.0,64.0
7366,57.0,0,60,12.0,64.0
7367,69.0,60,60,10.0,64.0
7368,45.0,0,60,13.0,64.0
7369,69.0,0,60,1.0,64.0
7370,69.0,0,60,11.0,64.0
7371,33.0,0,60,14.0,64.0
7372,35.0,0,60,14.0,64.0
7373,71.0,0,60,11.0,64.0
7374,71.0,0,60,10.0,64.0
7375,47.0,0,60,13.0,64.0
7376,59.0,0,60,12.0,64.0
7377,71.0,60,60,1.0,64.0
7378,49.0,0,60,13.0,64.0
7379,73.0,0,60,11.0,64.0
7380,73.0,0,60,1.0,64.0
7381,61.0,0,60,12.0,64.0
7382,73.0,300,60,10.0,64.0
7383,37.0,0,60,14.0,64.0
7384,74.0,0,300,1.0,64.0
7385,50.0,168,300,13.0,64.0
7386,62.0,0,300,12.0,64.0
7387,38.0,0,300,14.0,64.0
7388,74.0,0,300,11.0,64.0
7389,74.0,0,300,10.0,64.0
7390,37.0,0,90,14.0,64.0
7391,73.0,0,90,10.0,64.0
7392,57.0,0,180,4.0,64.0
7393,69.0,36,180,4.0,64.0
7394,73.0,0,90,11.0,64.0
7395,61.0,72,90,12.0,64.0
7396,73.0,0,90,1.0,64.0
7397,49.0,0,90,13.0,64.0
7398,73.0,0,60,11.0,64.0
7399,73.0,0,60,10.0,64.0
7400,73.0,0,60,1.0,64.0
7401,61.0,24,60,12.0,64.0
7402,49.0,0,60,13.0,64.0
7403,37.0,0,60,14.0,64.0
7404,38.0,0,60,14.0,64.0
7405,74.0,0,60,10.0,64.0
7406,50.0,0,60,13.0,64.0
7407,74.0,0,60,1.0,64.0
7408,74.0,0,60,11.0,64.0
7409,62.0,60,60,12.0,64.0
7410,64.0,0,60,12.0,64.0
7411,76.0,0,60,1.0,64.0
7412,76.0,0,60,10.0,64.0
7413,40.0,60,60,14.0,64.0
7414,52.0,0,60,13.0,64.0
7415,76.0,0,60,11.0,64.0
7416,78.0,0,60,11.0,64.0
7417,78.0,300,60,10.0,64.0
7418,78.0,0,60,1.0,64.0
7419,54.0,0,60,13.0,64.0
7420,42.0,0,60,14.0,64.0
7421,66.0,0,60,12.0,64.0
7422,79.0,0,300,11.0,64.0
7423,43.0,0,300,14.0,64.0
7424,79.0,0,300,10.0,64.0
7425,79.0,0,300,1.0,64.0
7426,67.0,168,300,12.0,64.0
7427,55.0,0,300,13.0,64.0
7428,54.0,0,90,13.0,64.0
7429,78.0,0,90,10.0,64.0
7430,78.0,0,90,1.0,64.0
7431,42.0,0,90,14.0,64.0
7432,78.0,120,90,11.0,64.0
7433,66.0,0,90,12.0,64.0
7434,74.0,0,90,1.0,64.0
7435,74.0,0,90,10.0,64.0
7436,62.0,120,90,13.0,64.0
7437,74.0,0,90,12.0,64.0
7438,50.0,0,90,14.0,64.0
7439,74.0,0,90,11.0,64.0
7440,47.0,120,90,14.0,64.0
7441,71.0,0,90,1.0,64.0
7442,71.0,0,90,10.0,64.0
7443,59.0,0,90,13.0,64.0
7444,71.0,0,90,11.0,64.0
7445,71.0,0,90,12.0,64.0
7446,76.0,0,90,12.0,64.0
7447,64.0,0,90,13.0,64.0
7448,76.0,0,90,11.0,64.0
7449,76.0,120,90,10.0,64.0
7450,52.0,0,90,14.0,64.0
7451,76.0,0,90,1.0,64.0
7452,61.0,0,90,13.0,64.0
7453,73.0,0,90,1.0,64.0
7454,73.0,0,90,12.0,64.0
7455,49.0,120,90,14.0,64.0
7456,73.0,0,90,10.0,64.0
7457,73.0,0,90,11.0,64.0
7458,69.0,0,90,11.0,64.0
7459,69.0,0,90,10.0,64.0
7460,69.0,0,90,12.0,64.0
7461,69.0,0,90,1.0,64.0
7462,57.0,0,90,13.0,64.0
7463,45.0,120,90,14.0,64.0
7464,74.0,0,90,1.0,64.0
7465,74.0,0,90,11.0,64.0
7466,74.0,0,90,10.0,64.0
7467,62.0,0,90,13.0,64.0
7468,50.0,0,90,14.0,64.0
7469,74.0,120,90,12.0,64.0
7470,71.0,0,90,11.0,64.0
7471,59.0,0,90,13.0,64.0
7472,47.0,0,90,14.0,64.0
7473,71.0,120,90,10.0,64.0
7474,71.0,0,90,1.0,64.0
7475,71.0,0,90,12.0,64.0
7476,68.0,0,90,12.0,64.0
7477,56.0,0,90,13.0,64.0
7478,68.0,0,90,1.0,64.0
7479,68.0,0,90,10.0,64.0
7480,68.0,0,90,11.0,64.0
7481,44.0,120,90,14.0,64.0
7482,69.0,0,90,12.0,64.0
7483,69.0,0,90,1.0,64.0
7484,57.0,0,90,13.0,64.0
7485,69.0,0,90,10.0,64.0
7486,69.0,120,90,11.0,64.0
7487,45.0,0,90,14.0,64.0
7488,66.0,0,90,10.0,64.0
7489,66.0,0,90,11.0,64.0
7490,54.0,0,90,13.0,64.0
7491,66.0,0,90,12.0,64.0
7492,66.0,120,90,1.0,64.0
7493,42.0,0,90,14.0,64.0
7494,63.0,0,90,12.0,64.0
7495,63.0,102,90,10.0,64.0
7496,63.0,0,90,11.0,64.0
7497,51.0,0,90,13.0,64.0
7498,39.0,0,90,14.0,64.0
7499,63.0,0,90,1.0,64.0
7500,52.0,0,90,13.0,64.0
7501,64.0,0,90,4.0,64.0
7502,40.0,0,90,14.0,64.0
7503,64.0,0,180,11.0,64.0
7504,64.0,6,180,10.0,64.0
7505,64.0,0,90,12.0,64.0
7506,64.0,114,90,1.0,64.0
7507,40.0,0,90,14.0,64.0
7508,73.0,0,90,1.0,64.0
7509,76.0,120,90,4.0,64.0
7510,76.0,0,90,1.0,64.0
7511,73.0,0,90,4.0,64.0
7512,64.0,0,90,12.0,64.0
7513,52.0,0,90,13.0,64.0
7514,64.0,0,90,12.0,64.0
7515,73.0,0,90,1.0,64.0
7516,76.0,0,90,1.0,64.0
7517,76.0,0,90,4.0,64.0
7518,73.0,0,90,4.0,64.0
7519,52.0,0,90,13.0,64.0
7520,40.0,120,90,14.0,64.0
7521,40.0,0,90,14.0,64.0
7522,76.0,78,240,4.0,64.0
7523,64.0,114,90,12.0,64.0
7524,52.0,0,90,13.0,64.0
7525,76.0,0,240,1.0,64.0
7526,81.0,0,180,10.0,64.0
7527,73.0,0,180,10.0,64.0
7528,64.0,6,180,10.0,64.0
7529,64.0,0,180,11.0,64.0
7530,73.0,0,180,11.0,64.0
7531,81.0,0,180,11.0,64.0
7532,73.0,0,240,1.0,64.0
7533,52.0,42,90,13.0,64.0
7534,64.0,0,90,12.0,64.0
7535,40.0,0,90,14.0,64.0
7536,64.0,0,90,12.0,64.0
7537,40.0,120,90,14.0,64.0
7538,69.0,0,90,4.0,64.0
7539,73.0,0,15,4.0,64.0
7540,73.0,0,90,1.0,64.0
7541,69.0,0,90,1.0,64.0
7542,52.0,0,90,13.0,64.0
7543,64.0,0,90,12.0,64.0
7544,71.0,114,90,1.0,64.0
7545,40.0,0,90,14.0,64.0
7546,52.0,0,90,13.0,64.0
7547,64.0,0,180,11.0,64.0
7548,71.0,0,90,4.0,64.0
7549,64.0,0,90,4.0,64.0
7550,68.0,0,90,1.0,64.0
7551,64.0,6,180,10.0,64.0
7552,71.0,0,90,1.0,64.0
7553,74.0,0,90,4.0,64.0
7554,52.0,120,90,13.0,64.0
7555,64.0,0,90,12.0,64.0
7556,74.0,0,90,1.0,64.0
7557,40.0,0,90,14.0,64.0
7558,71.0,0,90,4.0,64.0
7559,74.0,0,90,1.0,64.0
7560,52.0,0,90,13.0,64.0
7561,71.0,0,90,1.0,64.0
7562,74.0,0,90,4.0,64.0
7563,40.0,120,90,14.0,64.0
7564,64.0,0,90,12.0,64.0
7565,71.0,0,90,4.0,64.0
7566,64.0,0,180,10.0,64.0
7567,80.0,0,180,10.0,64.0
7568,71.0,0,180,10.0,64.0
7569,71.0,0,240,4.0,64.0
7570,52.0,0,90,13.0,64.0
7571,74.0,0,240,4.0,64.0
7572,40.0,114,90,14.0,64.0
7573,74.0,78,240,1.0,64.0
7574,71.0,0,240,1.0,64.0
7575,64.0,0,90,12.0,64.0
7576,71.0,0,180,11.0,64.0
7577,80.0,0,180,11.0,64.0
7578,64.0,6,180,11.0,64.0
7579,64.0,0,90,12.0,64.0
7580,40.0,0,90,14.0,64.0
7581,52.0,42,90,13.0,64.0
7582,66.0,0,90,1.0,64.0
7583,40.0,0,90,14.0,64.0
7584,71.0,0,90,1.0,64.0
7585,64.0,90,90,4.0,64.0
7586,71.0,0,90,4.0,64.0
7587,52.0,0,90,13.0,64.0
7588,64.0,0,90,12.0,64.0
7589,61.0,0,60,11.0,64.0
7590,69.0,0,60,11.0,64.0
7591,45.0,0,60,13.0,64.0
7592,33.0,0,60,14.0,64.0
7593,57.0,0,60,12.0,64.0
7594,64.0,18,60,12.0,64.0
7595,57.0,36,180,10.0,64.0
7596,69.0,42,60,4.0,64.0
7597,57.0,0,60,4.0,64.0
7598,69.0,24,1410,1.0,64.0
7599,69.0,0,60,11.0,64.0
7600,61.0,60,60,11.0,64.0
7601,64.0,0,60,12.0,64.0
7602,57.0,0,60,12.0,64.0
7603,52.0,0,60,13.0,64.0
7604,40.0,0,60,14.0,64.0
7605,61.0,0,60,11.0,64.0
7606,57.0,0,60,12.0,64.0
7607,64.0,0,60,12.0,64.0
7608,64.0,6,60,4.0,64.0
7609,69.0,18,60,11.0,64.0
7610,64.0,0,60,12.0,64.0
7611,57.0,60,60,12.0,64.0
7612,69.0,0,60,11.0,64.0
7613,61.0,0,60,11.0,64.0
7614,49.0,42,60,13.0,64.0
7615,61.0,0,60,11.0,64.0
7616,69.0,0,60,11.0,64.0
7617,61.0,0,60,4.0,64.0
7618,64.0,0,60,12.0,64.0
7619,57.0,18,60,12.0,64.0
7620,37.0,0,60,14.0,64.0
7621,57.0,60,60,12.0,64.0
7622,64.0,0,60,12.0,64.0
7623,61.0,0,60,11.0,64.0
7624,69.0,0,60,11.0,64.0
7625,64.0,60,60,12.0,64.0
7626,57.0,0,60,12.0,64.0
7627,57.0,0,120,13.0,64.0
7628,61.0,0,60,11.0,64.0
7629,45.0,0,120,14.0,64.0
7630,73.0,36,120,4.0,64.0
7631,69.0,0,60,11.0,64.0
7632,64.0,24,60,12.0,64.0
7633,57.0,0,60,12.0,64.0
7634,61.0,0,60,11.0,64.0
7635,69.0,0,60,11.0,64.0
7636,61.0,0,60,11.0,64.0
7637,69.0,60,60,11.0,64.0
7638,57.0,0,60,12.0,64.0
7639,64.0,0,60,12.0,64.0
7640,64.0,0,60,12.0,64.0
7641,57.0,0,60,12.0,64.0
7642,61.0,0,60,11.0,64.0
7643,69.0,60,60,11.0,64.0
7644,64.0,0,60,12.0,64.0
7645,57.0,60,60,12.0,64.0
7646,61.0,0,60,11.0,64.0
7647,69.0,0,60,11.0,64.0
7648,69.0,0,60,11.0,64.0
7649,64.0,60,60,12.0,64.0
7650,57.0,0,60,12.0,64.0
7651,61.0,0,60,11.0,64.0
7652,61.0,18,60,11.0,64.0
7653,57.0,0,60,12.0,64.0
7654,69.0,42,60,10.0,64.0
7655,69.0,0,60,11.0,64.0
7656,64.0,0,60,12.0,64.0
7657,64.0,60,60,12.0,64.0
7658,57.0,0,60,12.0,64.0
7659,69.0,0,60,11.0,64.0
7660,61.0,0,60,11.0,64.0
7661,61.0,0,60,11.0,64.0
7662,69.0,0,60,11.0,64.0
7663,76.0,42,60,10.0,64.0
7664,57.0,0,60,12.0,64.0
7665,64.0,18,60,12.0,64.0
7666,69.0,0,60,11.0,64.0
7667,57.0,60,60,12.0,64.0
7668,64.0,0,60,12.0,64.0
7669,61.0,0,60,11.0,64.0
7670,61.0,0,60,11.0,64.0
7671,69.0,0,60,11.0,64.0
7672,73.0,42,60,10.0,64.0
7673,64.0,0,60,12.0,64.0
7674,57.0,18,60,12.0,64.0
7675,64.0,0,60,12.0,64.0
7676,61.0,0,60,11.0,64.0
7677,69.0,60,60,11.0,64.0
7678,57.0,0,60,12.0,64.0
7679,81.0,36,120,10.0,64.0
7680,64.0,0,60,12.0,64.0
7681,57.0,60,60,12.0,64.0
7682,61.0,0,60,11.0,64.0
7683,69.0,0,60,11.0,64.0
7684,57.0,0,60,12.0,64.0
7685,64.0,0,60,12.0,64.0
7686,69.0,0,60,11.0,64.0
7687,61.0,24,60,11.0,64.0
7688,64.0,0,60,12.0,64.0
7689,61.0,0,60,11.0,64.0
7690,57.0,60,60,12.0,64.0
7691,69.0,0,60,11.0,64.0
7692,69.0,60,60,11.0,64.0
7693,61.0,0,60,11.0,64.0
7694,64.0,0,60,12.0,64.0
7695,57.0,0,60,12.0,64.0
7696,61.0,0,60,11.0,64.0
7697,64.0,0,60,12.0,64.0
7698,57.0,36,60,12.0,64.0
7699,69.0,0,60,11.0,64.0
7700,64.0,0,60,12.0,64.0
7701,57.0,60,60,12.0,64.0
7702,61.0,0,60,11.0,64.0
7703,69.0,0,60,11.0,64.0
7704,49.0,42,60,13.0,64.0
7705,61.0,0,60,11.0,64.0
7706,69.0,0,60,11.0,64.0
7707,69.0,24,1410,1.0,64.0
7708,37.0,0,60,14.0,64.0
7709,61.0,0,60,4.0,64.0
7710,57.0,18,60,12.0,64.0
7711,64.0,0,60,12.0,64.0
7712,73.0,0,1410,1.0,64.0
7713,69.0,0,60,11.0,64.0
7714,64.0,60,60,12.0,64.0
7715,57.0,0,60,12.0,64.0
7716,61.0,0,60,11.0,64.0
7717,64.0,0,60,12.0,64.0
7718,57.0,42,60,13.0,64.0
7719,57.0,18,60,12.0,64.0
7720,69.0,0,60,4.0,64.0
7721,45.0,0,60,14.0,64.0
7722,69.0,0,60,11.0,64.0
7723,61.0,0,60,11.0,64.0
7724,64.0,60,60,12.0,64.0
7725,57.0,0,60,12.0,64.0
7726,61.0,0,60,11.0,64.0
7727,69.0,0,60,11.0,64.0
7728,57.0,0,60,12.0,64.0
7729,69.0,0,60,11.0,64.0
7730,61.0,18,60,11.0,64.0
7731,64.0,0,60,4.0,64.0
7732,52.0,42,60,13.0,64.0
7733,40.0,0,60,14.0,64.0
7734,64.0,0,60,12.0,64.0
7735,64.0,0,60,12.0,64.0
7736,57.0,60,60,12.0,64.0
7737,69.0,0,60,11.0,64.0
7738,61.0,0,60,11.0,64.0
7739,73.0,36,120,4.0,64.0
7740,61.0,0,120,13.0,64.0
7741,57.0,0,60,12.0,64.0
7742,64.0,60,60,12.0,64.0
7743,61.0,0,60,11.0,64.0
7744,69.0,0,60,11.0,64.0
7745,49.0,0,120,14.0,64.0
7746,57.0,0,60,12.0,64.0
7747,69.0,24,60,11.0,64.0
7748,61.0,0,60,11.0,64.0
7749,64.0,0,60,12.0,64.0
7750,69.0,60,60,11.0,64.0
7751,61.0,0,60,11.0,64.0
7752,57.0,0,60,12.0,64.0
7753,64.0,0,60,12.0,64.0
7754,57.0,60,60,12.0,64.0
7755,64.0,0,60,12.0,64.0
7756,61.0,0,60,11.0,64.0
7757,69.0,0,60,11.0,64.0
7758,57.0,0,60,12.0,64.0
7759,69.0,0,60,11.0,64.0
7760,61.0,0,60,11.0,64.0
7761,64.0,60,60,12.0,64.0
7762,57.0,0,60,12.0,64.0
7763,64.0,60,60,12.0,64.0
7764,69.0,0,60,11.0,64.0
7765,61.0,0,60,11.0,64.0
7766,64.0,0,60,12.0,64.0
7767,73.0,42,60,10.0,64.0
7768,57.0,0,60,12.0,64.0
7769,61.0,18,60,11.0,64.0
7770,69.0,0,60,11.0,64.0
7771,69.0,0,60,11.0,64.0
7772,64.0,60,60,12.0,64.0
7773,57.0,0,60,12.0,64.0
7774,61.0,0,60,11.0,64.0
7775,57.0,0,60,12.0,64.0
7776,64.0,0,60,12.0,64.0
7777,61.0,18,60,11.0,64.0
7778,69.0,0,60,11.0,64.0
7779,81.0,42,60,10.0,64.0
7780,64.0,0,60,12.0,64.0
7781,61.0,0,60,11.0,64.0
7782,57.0,0,60,12.0,64.0
7783,69.0,60,60,11.0,64.0
7784,57.0,0,60,12.0,64.0
7785,64.0,0,60,12.0,64.0
7786,61.0,0,60,11.0,64.0
7787,69.0,18,60,11.0,64.0
7788,76.0,42,60,10.0,64.0
7789,61.0,0,60,11.0,64.0
7790,69.0,0,60,11.0,64.0
7791,64.0,60,60,12.0,64.0
7792,57.0,0,60,12.0,64.0
7793,61.0,0,60,11.0,64.0
7794,85.0,36,120,10.0,64.0
7795,64.0,0,60,12.0,64.0
7796,57.0,60,60,12.0,64.0
7797,69.0,0,60,11.0,64.0
7798,64.0,0,60,12.0,64.0
7799,61.0,0,60,11.0,64.0
7800,69.0,24,60,11.0,64.0
7801,57.0,0,60,12.0,64.0
7802,64.0,0,60,12.0,64.0
7803,61.0,60,60,11.0,64.0
7804,69.0,0,60,11.0,64.0
7805,57.0,0,60,12.0,64.0
7806,69.0,0,60,11.0,64.0
7807,61.0,0,60,11.0,64.0
7808,57.0,60,60,12.0,64.0
7809,64.0,0,60,12.0,64.0
7810,61.0,0,60,11.0,64.0
7811,69.0,0,60,11.0,64.0
7812,57.0,0,60,12.0,64.0
7813,64.0,36,60,12.0,64.0
7814,57.0,0,60,12.0,64.0
7815,61.0,0,60,11.0,64.0
7816,69.0,60,60,11.0,64.0
7817,64.0,0,60,12.0,64.0
7818,57.0,0,60,12.0,64.0
7819,76.0,0,1410,1.0,64.0
7820,73.0,24,1410,1.0,64.0
7821,40.0,0,60,14.0,64.0
7822,52.0,0,60,13.0,64.0
7823,64.0,42,60,4.0,64.0
7824,61.0,0,60,11.0,64.0
7825,69.0,0,60,11.0,64.0
7826,64.0,18,60,12.0,64.0
7827,61.0,0,60,11.0,64.0
7828,69.0,60,60,11.0,64.0
7829,64.0,0,60,12.0,64.0
7830,57.0,0,60,12.0,64.0
7831,61.0,0,60,11.0,64.0
7832,73.0,42,60,4.0,64.0
7833,49.0,0,60,14.0,64.0
7834,61.0,0,60,13.0,64.0
7835,64.0,18,60,12.0,64.0
7836,57.0,0,60,12.0,64.0
7837,69.0,0,60,11.0,64.0
7838,57.0,0,60,12.0,64.0
7839,64.0,0,60,12.0,64.0
7840,61.0,0,60,11.0,64.0
7841,69.0,60,60,11.0,64.0
7842,57.0,42,60,13.0,64.0
7843,69.0,18,60,11.0,64.0
7844,45.0,0,60,14.0,64.0
7845,57.0,0,60,12.0,64.0
7846,61.0,0,60,11.0,64.0
7847,69.0,0,60,4.0,64.0
7848,64.0,0,60,12.0,64.0
7849,69.0,0,60,11.0,64.0
7850,61.0,0,60,11.0,64.0
7851,57.0,60,60,12.0,64.0
7852,64.0,0,60,12.0,64.0
7853,52.0,36,120,14.0,64.0
7854,76.0,0,120,4.0,64.0
7855,57.0,0,60,12.0,64.0
7856,64.0,0,60,12.0,64.0
7857,64.0,0,120,13.0,64.0
7858,61.0,60,60,11.0,64.0
7859,69.0,0,60,11.0,64.0
7860,64.0,0,60,12.0,64.0
7861,57.0,24,60,12.0,64.0
7862,61.0,0,60,11.0,64.0
7863,69.0,0,60,11.0,64.0
7864,57.0,60,60,12.0,64.0
7865,61.0,0,60,11.0,64.0
7866,69.0,0,60,11.0,64.0
7867,64.0,0,60,12.0,64.0
7868,57.0,0,60,12.0,64.0
7869,64.0,60,60,12.0,64.0
7870,61.0,0,60,11.0,64.0
7871,69.0,0,60,11.0,64.0
7872,61.0,0,60,11.0,64.0
7873,69.0,0,60,11.0,64.0
7874,64.0,0,60,12.0,64.0
7875,57.0,60,60,12.0,64.0
7876,69.0,60,60,11.0,64.0
7877,64.0,0,60,12.0,64.0
7878,57.0,0,60,12.0,64.0
7879,61.0,0,60,11.0,64.0
7880,57.0,0,60,12.0,64.0
7881,64.0,0,60,12.0,64.0
7882,76.0,42,60,10.0,64.0
7883,61.0,0,60,11.0,64.0
7884,69.0,18,60,11.0,64.0
7885,69.0,60,60,11.0,64.0
7886,61.0,0,60,11.0,64.0
7887,57.0,0,60,12.0,64.0
7888,64.0,0,60,12.0,64.0
7889,64.0,0,60,12.0,64.0
7890,57.0,18,60,12.0,64.0
7891,61.0,0,60,11.0,64.0
7892,69.0,0,60,11.0,64.0
7893,85.0,42,60,10.0,64.0
7894,57.0,0,60,12.0,64.0
7895,64.0,0,60,12.0,64.0
7896,69.0,60,60,11.0,64.0
7897,61.0,0,60,11.0,64.0
7898,69.0,0,60,11.0,64.0
7899,81.0,42,60,10.0,64.0
7900,64.0,18,60,12.0,64.0
7901,61.0,0,60,11.0,64.0
7902,57.0,0,60,12.0,64.0
7903,57.0,0,60,12.0,64.0
7904,64.0,60,60,12.0,64.0
7905,69.0,0,60,11.0,64.0
7906,61.0,0,60,11.0,64.0
7907,61.0,0,60,11.0,64.0
7908,69.0,60,60,11.0,64.0
7909,88.0,36,120,10.0,64.0
7910,57.0,0,60,12.0,64.0
7911,64.0,0,60,12.0,64.0
7912,61.0,0,60,11.0,64.0
7913,69.0,24,60,11.0,64.0
7914,57.0,0,60,12.0,64.0
7915,64.0,0,60,12.0,64.0
7916,64.0,0,60,12.0,64.0
7917,57.0,60,60,12.0,64.0
7918,69.0,0,60,11.0,64.0
7919,61.0,0,60,11.0,64.0
7920,57.0,0,60,12.0,64.0
7921,64.0,0,60,12.0,64.0
7922,61.0,60,60,11.0,64.0
7923,69.0,0,60,11.0,64.0
7924,61.0,0,60,11.0,64.0
7925,69.0,36,60,11.0,64.0
7926,64.0,0,60,12.0,64.0
7927,57.0,0,60,12.0,64.0
7928,61.0,90,60,11.0,64.0
7929,57.0,0,60,12.0,64.0
7930,69.0,0,60,11.0,64.0
7931,64.0,0,60,12.0,64.0
7932,61.0,0,180,11.0,64.0
7933,57.0,114,90,12.0,64.0
7934,69.0,0,90,4.0,64.0
7935,69.0,6,180,11.0,64.0
7936,57.0,0,90,4.0,64.0
7937,76.0,0,180,10.0,64.0
7938,69.0,0,180,10.0,64.0
7939,33.0,0,90,14.0,64.0
7940,76.0,0,180,1.0,64.0
7941,73.0,0,180,1.0,64.0
7942,45.0,0,90,13.0,64.0
7943,69.0,0,90,4.0,64.0
7944,57.0,0,90,13.0,64.0
7945,45.0,0,90,14.0,64.0
7946,57.0,0,90,4.0,64.0
7947,69.0,120,90,12.0,64.0
7948,57.0,0,90,13.0,64.0
7949,69.0,0,90,12.0,64.0
7950,57.0,0,90,4.0,64.0
7951,69.0,0,90,4.0,64.0
7952,45.0,120,90,14.0,64.0
7953,74.0,6,180,1.0,64.0
7954,57.0,0,180,11.0,64.0
7955,74.0,0,180,11.0,64.0
7956,66.0,0,180,11.0,64.0
7957,57.0,0,90,13.0,64.0
7958,69.0,0,90,12.0,64.0
7959,78.0,0,180,10.0,64.0
7960,69.0,0,180,10.0,64.0
7961,45.0,0,90,14.0,64.0
7962,62.0,0,180,10.0,64.0
7963,57.0,114,90,4.0,64.0
7964,69.0,0,90,4.0,64.0
7965,78.0,0,180,1.0,64.0
7966,69.0,120,90,12.0,64.0
7967,57.0,0,90,13.0,64.0
7968,69.0,0,90,4.0,64.0
7969,57.0,0,90,4.0,64.0
7970,45.0,0,90,14.0,64.0
7971,57.0,0,90,13.0,64.0
7972,57.0,0,90,4.0,64.0
7973,69.0,0,90,4.0,64.0
7974,45.0,0,90,14.0,64.0
7975,69.0,120,90,12.0,64.0
7976,57.0,114,90,4.0,64.0
7977,73.0,0,180,1.0,64.0
7978,69.0,0,180,10.0,64.0
7979,76.0,0,180,1.0,64.0
7980,45.0,0,90,14.0,64.0
7981,69.0,0,90,4.0,64.0
7982,57.0,0,90,13.0,64.0
7983,69.0,0,90,12.0,64.0
7984,69.0,0,180,11.0,64.0
7985,61.0,0,180,11.0,64.0
7986,76.0,6,180,10.0,64.0
7987,69.0,0,90,4.0,64.0
7988,57.0,0,90,4.0,64.0
7989,45.0,120,90,14.0,64.0
7990,69.0,0,90,12.0,64.0
7991,57.0,0,90,13.0,64.0
7992,69.0,0,90,4.0,64.0
7993,57.0,120,90,4.0,64.0
7994,69.0,0,90,12.0,64.0
7995,45.0,0,90,14.0,64.0
7996,57.0,0,90,13.0,64.0
7997,74.0,0,180,11.0,64.0
7998,57.0,0,180,11.0,64.0
7999,62.0,0,180,10.0,64.0
8000,69.0,0,180,10.0,64.0
8001,78.0,0,180,1.0,64.0
8002,69.0,0,90,4.0,64.0
8003,66.0,0,180,11.0,64.0
8004,69.0,0,90,12.0,64.0
8005,78.0,0,180,10.0,64.0
8006,74.0,6,180,1.0,64.0
8007,57.0,0,90,13.0,64.0
8008,45.0,114,90,14.0,64.0
8009,57.0,0,90,4.0,64.0
8010,69.0,0,90,12.0,64.0
8011,69.0,0,90,4.0,64.0
8012,57.0,0,90,4.0,64.0
8013,57.0,120,90,13.0,64.0
8014,45.0,0,90,14.0,64.0
8015,45.0,0,90,14.0,64.0
8016,69.0,120,90,12.0,64.0
8017,57.0,0,90,4.0,64.0
8018,69.0,0,90,4.0,64.0
8019,57.0,0,90,13.0,64.0
8020,45.0,0,90,14.0,64.0
8021,69.0,114,90,12.0,64.0
8022,76.0,0,180,1.0,64.0
8023,57.0,0,90,13.0,64.0
8024,69.0,0,180,10.0,64.0
8025,76.0,0,180,10.0,64.0
8026,73.0,6,180,1.0,64.0
8027,61.0,0,180,11.0,64.0
8028,69.0,0,180,11.0,64.0
8029,57.0,0,90,4.0,64.0
8030,69.0,0,90,4.0,64.0
8031,57.0,0,90,13.0,64.0
8032,69.0,0,90,4.0,64.0
8033,69.0,0,90,12.0,64.0
8034,57.0,120,90,4.0,64.0
8035,45.0,0,90,14.0,64.0
8036,69.0,0,90,12.0,64.0
8037,57.0,0,90,4.0,64.0
8038,69.0,0,90,4.0,64.0
8039,45.0,120,90,14.0,64.0
8040,57.0,0,90,13.0,64.0
8041,45.0,114,90,14.0,64.0
8042,57.0,0,90,13.0,64.0
8043,69.0,0,90,4.0,64.0
8044,57.0,0,180,11.0,64.0
8045,74.0,0,180,11.0,64.0
8046,62.0,0,180,10.0,64.0
8047,69.0,0,180,10.0,64.0
8048,69.0,0,90,12.0,64.0
8049,78.0,0,180,10.0,64.0
8050,74.0,6,180,1.0,64.0
8051,78.0,0,180,1.0,64.0
8052,66.0,0,180,11.0,64.0
8053,57.0,0,90,4.0,64.0
8054,69.0,0,90,4.0,64.0
8055,57.0,0,90,13.0,64.0
8056,45.0,0,90,14.0,64.0
8057,69.0,120,90,12.0,64.0
8058,57.0,0,90,4.0,64.0
8059,69.0,0,90,12.0,64.0
8060,45.0,0,90,14.0,64.0
8061,57.0,0,90,13.0,64.0
8062,69.0,234,90,4.0,64.0
8063,57.0,0,90,4.0,64.0
8064,69.0,0,180,10.0,64.0
8065,57.0,0,180,4.0,64.0
8066,76.0,0,180,10.0,64.0
8067,69.0,0,180,4.0,64.0
8068,57.0,0,180,11.0,64.0
8069,45.0,0,180,14.0,64.0
8070,69.0,0,180,12.0,64.0
8071,73.0,627,180,11.0,64.0
8072,57.0,0,180,13.0,64.0
8073,76.0,0,180,1.0,64.0
8074,73.0,0,180,1.0,64.0
8075,64.0,0,180,11.0,64.0
8076,57.0,0,30,11.0,64.0
8077,57.0,60,30,10.0,64.0
8078,59.0,0,30,10.0,64.0
8079,59.0,60,30,11.0,64.0
8080,61.0,0,30,11.0,64.0
8081,61.0,60,30,10.0,64.0
8082,62.0,60,30,10.0,64.0
8083,62.0,0,30,11.0,64.0
8084,64.0,60,30,11.0,64.0
8085,64.0,0,30,10.0,64.0
8086,66.0,0,30,10.0,64.0
8087,66.0,60,30,11.0,64.0
8088,68.0,60,30,10.0,64.0
8089,68.0,0,30,11.0,64.0
8090,69.0,0,30,10.0,64.0
8091,69.0,60,30,11.0,64.0
8092,71.0,60,30,11.0,64.0
8093,71.0,0,30,10.0,64.0
8094,73.0,0,30,10.0,64.0
8095,73.0,60,30,11.0,64.0
8096,74.0,0,30,10.0,64.0
8097,74.0,213,30,11.0,64.0
8098,76.0,720,180,11.0,64.0
8099,76.0,0,180,10.0,64.0
8100,64.0,0,180,12.0,64.0
8101,52.0,0,180,13.0,64.0
8102,40.0,720,180,14.0,64.0
8103,80.0,0,180,1.0,64.0
8104,64.0,0,180,11.0,64.0
8105,74.0,0,180,11.0,64.0
8106,74.0,0,180,1.0,64.0
8107,64.0,0,180,10.0,64.0
8108,71.0,0,180,4.0,64.0
8109,64.0,0,180,4.0,64.0
8110,71.0,0,180,10.0,64.0
8111,80.0,0,180,10.0,64.0
8112,64.0,0,180,12.0,64.0
8113,73.0,0,180,10.0,64.0
8114,81.0,0,180,1.0,64.0
8115,73.0,0,180,1.0,64.0
8116,81.0,0,180,10.0,64.0
8117,57.0,0,180,10.0,64.0
8118,64.0,0,180,10.0,64.0
8119,69.0,0,180,4.0,64.0
8120,69.0,0,180,12.0,64.0
8121,73.0,0,180,11.0,64.0
8122,64.0,0,180,11.0,64.0
8123,57.0,1824,180,11.0,64.0
8124,45.0,0,180,13.0,64.0
8125,61.0,0,180,4.0,64.0
8126,57.0,0,180,12.0,64.0
8127,33.0,0,180,14.0,64.0
8128,33.0,0,570,14.0,64.0
