,note,step,duration,channel,velocity
0,67.0,0,192,6.0,80.0
1,79.0,0,192,5.0,105.0
2,79.0,0,192,4.0,80.0
3,67.0,0,384,7.0,80.0
4,55.0,0,384,8.0,105.0
5,67.0,0,384,1.0,105.0
6,79.0,240,384,4.0,105.0
7,79.0,0,384,5.0,105.0
8,67.0,0,384,6.0,105.0
9,67.0,240,384,1.0,105.0
10,67.0,0,384,7.0,105.0
11,55.0,0,384,8.0,105.0
12,79.0,240,384,5.0,105.0
13,79.0,0,384,4.0,105.0
14,67.0,0,384,6.0,105.0
15,55.0,0,384,8.0,105.0
16,67.0,240,384,1.0,105.0
17,67.0,0,384,7.0,105.0
18,79.0,0,1536,0.0,80.0
19,67.0,240,384,6.0,105.0
20,79.0,0,384,4.0,105.0
21,79.0,0,384,5.0,105.0
22,55.0,0,384,8.0,105.0
23,67.0,240,384,1.0,105.0
24,67.0,0,384,7.0,105.0
25,79.0,240,192,4.0,105.0
26,67.0,0,192,6.0,105.0
27,79.0,0,192,5.0,105.0
28,62.0,0,192,6.0,105.0
29,74.0,240,192,5.0,105.0
30,74.0,0,192,4.0,105.0
31,50.0,0,384,8.0,105.0
32,62.0,0,384,1.0,105.0
33,62.0,0,384,7.0,105.0
34,74.0,0,384,4.0,105.0
35,74.0,240,384,5.0,105.0
36,62.0,0,384,6.0,105.0
37,62.0,0,384,1.0,105.0
38,50.0,240,384,8.0,105.0
39,62.0,0,384,7.0,105.0
40,74.0,240,384,5.0,105.0
41,74.0,0,384,4.0,105.0
42,62.0,0,384,6.0,105.0
43,62.0,0,384,7.0,105.0
44,50.0,0,384,8.0,105.0
45,62.0,240,384,1.0,105.0
46,74.0,0,1536,0.0,105.0
47,62.0,0,384,6.0,105.0
48,74.0,0,384,4.0,105.0
49,74.0,240,384,5.0,105.0
50,62.0,0,384,1.0,105.0
51,62.0,240,384,7.0,105.0
52,50.0,0,384,8.0,105.0
53,62.0,0,192,6.0,105.0
54,74.0,0,192,4.0,105.0
55,74.0,240,192,5.0,105.0
56,75.0,0,192,5.0,105.0
57,75.0,0,192,4.0,105.0
58,63.0,0,192,6.0,105.0
59,63.0,0,384,7.0,105.0
60,51.0,0,384,8.0,105.0
61,63.0,0,384,1.0,105.0
62,75.0,0,384,4.0,105.0
63,63.0,240,384,6.0,105.0
64,75.0,0,384,5.0,105.0
65,63.0,0,384,7.0,105.0
66,63.0,0,384,1.0,105.0
67,51.0,240,384,8.0,105.0
68,75.0,0,384,5.0,105.0
69,75.0,240,384,4.0,105.0
70,63.0,0,384,6.0,105.0
71,51.0,0,384,8.0,105.0
72,63.0,0,384,1.0,105.0
73,63.0,240,384,7.0,105.0
74,75.0,240,1536,0.0,105.0
75,63.0,0,384,6.0,105.0
76,75.0,240,384,5.0,105.0
77,75.0,0,384,4.0,105.0
78,51.0,0,384,8.0,105.0
79,63.0,0,384,1.0,105.0
80,63.0,240,384,7.0,105.0
81,75.0,240,192,5.0,105.0
82,75.0,0,192,4.0,105.0
83,63.0,0,192,6.0,105.0
84,54.0,0,192,6.0,105.0
85,66.0,0,192,5.0,105.0
86,66.0,0,192,4.0,105.0
87,54.0,240,384,1.0,105.0
88,54.0,0,384,7.0,105.0
89,42.0,0,384,8.0,105.0
90,66.0,0,384,4.0,105.0
91,66.0,0,384,5.0,105.0
92,54.0,240,384,6.0,105.0
93,54.0,0,384,7.0,105.0
94,42.0,0,384,8.0,105.0
95,54.0,240,384,1.0,105.0
96,66.0,0,384,4.0,105.0
97,54.0,0,384,6.0,105.0
98,66.0,240,384,5.0,105.0
99,54.0,0,384,1.0,105.0
100,42.0,240,384,8.0,105.0
101,54.0,0,384,7.0,105.0
102,66.0,0,1536,0.0,105.0
103,66.0,0,384,5.0,105.0
104,54.0,0,384,6.0,105.0
105,66.0,240,384,4.0,105.0
106,42.0,0,384,8.0,105.0
107,54.0,0,384,7.0,105.0
108,54.0,240,384,1.0,105.0
109,54.0,0,192,6.0,105.0
110,66.0,240,192,5.0,105.0
111,66.0,0,192,4.0,105.0
112,67.0,0,156,5.0,105.0
113,67.0,0,156,4.0,105.0
114,67.0,240,384,0.0,105.0
115,43.0,0,384,8.0,105.0
116,55.0,0,384,1.0,105.0
117,55.0,0,384,7.0,105.0
118,55.0,0,384,6.0,105.0
119,70.0,240,156,4.0,105.0
120,70.0,0,156,5.0,105.0
121,74.0,240,156,5.0,105.0
122,74.0,0,156,4.0,105.0
123,79.0,0,156,4.0,105.0
124,79.0,240,156,5.0,105.0
125,58.0,0,120,1.0,105.0
126,82.0,0,120,0.0,105.0
127,46.0,0,120,8.0,105.0
128,70.0,0,120,6.0,105.0
129,82.0,0,120,4.0,105.0
130,82.0,0,120,5.0,105.0
131,58.0,240,120,7.0,105.0
132,81.0,0,120,4.0,105.0
133,81.0,0,120,5.0,105.0
134,69.0,0,120,6.0,105.0
135,57.0,120,120,1.0,105.0
136,57.0,0,120,7.0,105.0
137,81.0,0,120,0.0,105.0
138,45.0,0,120,8.0,105.0
139,79.0,0,120,0.0,105.0
140,55.0,0,120,1.0,105.0
141,67.0,0,120,6.0,105.0
142,55.0,0,120,7.0,105.0
143,43.0,0,120,8.0,105.0
144,79.0,0,120,5.0,105.0
145,79.0,120,120,4.0,105.0
146,78.0,0,120,4.0,105.0
147,78.0,0,120,5.0,105.0
148,66.0,120,120,6.0,105.0
149,54.0,0,120,1.0,105.0
150,78.0,0,120,0.0,105.0
151,42.0,0,120,8.0,105.0
152,54.0,0,120,7.0,105.0
153,55.0,0,768,3.0,80.0
154,70.0,0,768,2.0,105.0
155,62.0,0,768,2.0,105.0
156,67.0,0,768,3.0,105.0
157,79.0,120,384,4.0,105.0
158,55.0,0,384,1.0,105.0
159,79.0,0,384,0.0,105.0
160,67.0,0,384,6.0,105.0
161,55.0,0,384,7.0,105.0
162,79.0,0,384,5.0,105.0
163,43.0,0,384,8.0,105.0
164,67.0,0,156,4.0,105.0
165,67.0,480,156,5.0,105.0
166,70.0,0,156,4.0,105.0
167,70.0,240,156,5.0,105.0
168,74.0,240,156,4.0,105.0
169,74.0,0,156,5.0,105.0
170,79.0,240,156,4.0,105.0
171,79.0,0,156,5.0,105.0
172,58.0,0,120,7.0,105.0
173,82.0,0,120,0.0,105.0
174,82.0,0,120,5.0,105.0
175,46.0,0,120,8.0,105.0
176,82.0,240,120,4.0,105.0
177,58.0,0,120,1.0,105.0
178,70.0,0,120,6.0,105.0
179,57.0,0,120,7.0,105.0
180,45.0,0,120,8.0,105.0
181,57.0,0,120,1.0,105.0
182,81.0,120,120,5.0,105.0
183,69.0,0,120,6.0,105.0
184,81.0,0,120,4.0,105.0
185,81.0,0,120,0.0,105.0
186,67.0,0,120,6.0,105.0
187,55.0,0,120,1.0,105.0
188,79.0,0,120,5.0,105.0
189,79.0,0,120,4.0,105.0
190,79.0,0,120,0.0,105.0
191,55.0,0,120,7.0,105.0
192,43.0,120,120,8.0,105.0
193,54.0,0,120,1.0,105.0
194,78.0,0,120,0.0,105.0
195,54.0,120,120,7.0,105.0
196,42.0,0,120,8.0,105.0
197,66.0,0,120,6.0,105.0
198,78.0,0,120,4.0,105.0
199,78.0,0,120,5.0,105.0
200,70.0,0,768,2.0,105.0
201,62.0,0,768,2.0,105.0
202,55.0,0,768,3.0,105.0
203,67.0,0,768,3.0,105.0
204,43.0,120,384,8.0,105.0
205,79.0,0,384,4.0,105.0
206,79.0,0,384,5.0,105.0
207,79.0,0,384,0.0,105.0
208,55.0,0,384,1.0,105.0
209,67.0,0,384,6.0,105.0
210,55.0,0,384,7.0,105.0
211,69.0,0,156,4.0,105.0
212,69.0,480,156,5.0,105.0
213,72.0,0,156,5.0,105.0
214,72.0,240,156,4.0,105.0
215,78.0,0,156,4.0,105.0
216,78.0,240,156,5.0,105.0
217,81.0,0,156,4.0,105.0
218,81.0,240,156,5.0,105.0
219,48.0,0,120,8.0,105.0
220,60.0,0,120,7.0,105.0
221,84.0,0,120,4.0,105.0
222,84.0,0,120,5.0,105.0
223,84.0,0,120,0.0,105.0
224,60.0,0,120,1.0,105.0
225,72.0,0,120,6.0,105.0
226,58.0,0,120,1.0,105.0
227,46.0,0,120,8.0,105.0
228,82.0,0,120,4.0,105.0
229,82.0,0,120,5.0,105.0
230,70.0,0,120,6.0,105.0
231,82.0,0,120,0.0,105.0
232,58.0,120,120,7.0,105.0
233,45.0,0,120,8.0,105.0
234,81.0,0,120,4.0,105.0
235,57.0,120,120,1.0,105.0
236,57.0,0,120,7.0,105.0
237,69.0,0,120,6.0,105.0
238,81.0,0,120,0.0,105.0
239,81.0,0,120,5.0,105.0
240,79.0,0,120,0.0,105.0
241,79.0,0,120,4.0,105.0
242,55.0,0,120,1.0,105.0
243,79.0,0,120,5.0,105.0
244,55.0,0,120,7.0,105.0
245,43.0,120,120,8.0,105.0
246,67.0,0,120,6.0,105.0
247,72.0,0,768,2.0,105.0
248,69.0,0,768,3.0,105.0
249,62.0,240,768,3.0,105.0
250,62.0,0,768,2.0,105.0
251,57.0,0,384,7.0,105.0
252,81.0,120,384,0.0,105.0
253,81.0,0,384,5.0,105.0
254,69.0,0,384,6.0,105.0
255,81.0,0,384,4.0,105.0
256,45.0,0,384,8.0,105.0
257,57.0,0,384,1.0,105.0
258,69.0,480,156,5.0,105.0
259,69.0,0,156,4.0,105.0
260,72.0,240,156,4.0,105.0
261,72.0,0,156,5.0,105.0
262,78.0,0,156,4.0,105.0
263,78.0,240,156,5.0,105.0
264,81.0,0,156,4.0,105.0
265,81.0,240,156,5.0,105.0
266,48.0,0,120,8.0,105.0
267,84.0,240,120,4.0,105.0
268,60.0,0,120,1.0,105.0
269,84.0,0,120,0.0,105.0
270,84.0,0,120,5.0,105.0
271,60.0,0,120,7.0,105.0
272,72.0,0,120,6.0,105.0
273,82.0,0,120,4.0,105.0
274,58.0,0,120,7.0,105.0
275,82.0,0,120,0.0,105.0
276,70.0,0,120,6.0,105.0
277,58.0,0,120,1.0,105.0
278,46.0,120,120,8.0,105.0
279,82.0,0,120,5.0,105.0
280,81.0,0,120,5.0,105.0
281,57.0,0,120,7.0,105.0
282,81.0,120,120,4.0,105.0
283,69.0,0,120,6.0,105.0
284,45.0,0,120,8.0,105.0
285,57.0,0,120,1.0,105.0
286,81.0,0,120,0.0,105.0
287,43.0,0,120,8.0,105.0
288,79.0,0,120,5.0,105.0
289,55.0,120,120,7.0,105.0
290,55.0,0,120,1.0,105.0
291,79.0,0,120,4.0,105.0
292,67.0,0,120,6.0,105.0
293,79.0,0,120,0.0,105.0
294,69.0,0,768,3.0,105.0
295,62.0,0,768,2.0,105.0
296,72.0,0,768,2.0,105.0
297,62.0,0,768,3.0,105.0
298,81.0,0,384,0.0,105.0
299,69.0,0,384,6.0,105.0
300,57.0,0,384,1.0,105.0
301,57.0,0,384,7.0,105.0
302,81.0,120,384,5.0,105.0
303,45.0,0,384,8.0,105.0
304,81.0,0,384,4.0,105.0
305,70.0,0,156,5.0,105.0
306,70.0,480,156,4.0,105.0
307,74.0,240,156,5.0,105.0
308,74.0,0,156,4.0,105.0
309,79.0,0,156,5.0,105.0
310,79.0,240,156,4.0,105.0
311,82.0,0,156,5.0,105.0
312,82.0,240,156,4.0,105.0
313,86.0,0,120,0.0,105.0
314,50.0,0,120,8.0,105.0
315,86.0,0,120,5.0,105.0
316,62.0,0,120,7.0,105.0
317,86.0,0,120,4.0,105.0
318,62.0,0,120,1.0,105.0
319,74.0,0,120,6.0,105.0
320,60.0,0,120,7.0,105.0
321,72.0,0,120,6.0,105.0
322,84.0,0,120,5.0,105.0
323,60.0,0,120,1.0,105.0
324,48.0,0,120,8.0,105.0
325,84.0,120,120,0.0,105.0
326,84.0,0,120,4.0,105.0
327,62.0,0,312,2.0,105.0
328,74.0,240,312,2.0,105.0
329,62.0,0,312,3.0,105.0
330,58.0,0,120,1.0,105.0
331,70.0,120,120,6.0,105.0
332,82.0,0,120,4.0,105.0
333,58.0,0,120,7.0,105.0
334,82.0,0,120,5.0,105.0
335,82.0,0,120,0.0,105.0
336,46.0,0,120,8.0,105.0
337,81.0,0,120,0.0,105.0
338,57.0,120,120,1.0,105.0
339,45.0,0,120,8.0,105.0
340,69.0,0,120,6.0,105.0
341,57.0,0,120,7.0,105.0
342,81.0,0,120,4.0,105.0
343,81.0,0,120,5.0,105.0
344,58.0,0,312,2.0,105.0
345,70.0,120,312,2.0,105.0
346,58.0,0,384,1.0,105.0
347,46.0,0,384,8.0,105.0
348,82.0,0,384,4.0,105.0
349,70.0,0,384,6.0,105.0
350,58.0,0,384,7.0,105.0
351,82.0,0,384,0.0,105.0
352,82.0,0,384,5.0,105.0
353,82.0,0,120,5.0,105.0
354,82.0,480,120,4.0,105.0
355,58.0,0,120,7.0,105.0
356,58.0,0,120,1.0,105.0
357,70.0,0,120,6.0,105.0
358,82.0,0,120,0.0,105.0
359,46.0,0,120,8.0,105.0
360,81.0,0,120,0.0,105.0
361,69.0,0,120,6.0,105.0
362,57.0,0,120,1.0,105.0
363,81.0,120,120,4.0,105.0
364,57.0,0,120,7.0,105.0
365,45.0,0,120,8.0,105.0
366,81.0,0,120,5.0,105.0
367,70.0,0,312,2.0,105.0
368,58.0,0,312,2.0,105.0
369,55.0,0,120,1.0,105.0
370,43.0,0,120,8.0,105.0
371,67.0,0,120,6.0,105.0
372,79.0,0,120,0.0,105.0
373,79.0,120,120,4.0,105.0
374,55.0,0,120,7.0,105.0
375,79.0,0,120,5.0,105.0
376,54.0,120,120,1.0,105.0
377,78.0,0,120,4.0,105.0
378,42.0,0,120,8.0,105.0
379,78.0,0,120,0.0,105.0
380,66.0,0,120,6.0,105.0
381,54.0,0,120,7.0,105.0
382,78.0,0,120,5.0,105.0
383,67.0,0,312,3.0,105.0
384,55.0,0,312,3.0,105.0
385,79.0,0,384,4.0,105.0
386,55.0,120,384,1.0,105.0
387,55.0,0,384,7.0,105.0
388,67.0,0,384,6.0,105.0
389,79.0,0,384,0.0,105.0
390,43.0,0,384,8.0,105.0
391,79.0,0,384,5.0,105.0
392,79.0,0,120,5.0,105.0
393,79.0,0,120,4.0,105.0
394,55.0,480,120,7.0,105.0
395,55.0,0,120,1.0,105.0
396,43.0,0,120,8.0,105.0
397,67.0,0,120,6.0,105.0
398,79.0,0,120,0.0,105.0
399,53.0,0,120,7.0,105.0
400,77.0,120,120,4.0,105.0
401,41.0,0,120,8.0,105.0
402,77.0,0,120,0.0,105.0
403,65.0,0,120,6.0,105.0
404,53.0,0,120,1.0,105.0
405,77.0,0,120,5.0,105.0
406,55.0,0,312,3.0,105.0
407,67.0,0,312,3.0,105.0
408,75.0,0,120,4.0,105.0
409,63.0,0,120,6.0,105.0
410,39.0,120,120,8.0,105.0
411,75.0,0,120,0.0,105.0
412,51.0,0,120,1.0,105.0
413,51.0,0,120,7.0,105.0
414,75.0,0,120,5.0,105.0
415,38.0,0,96,8.0,105.0
416,62.0,0,96,6.0,105.0
417,50.0,0,96,7.0,105.0
418,74.0,120,96,0.0,105.0
419,74.0,0,96,4.0,105.0
420,50.0,0,96,1.0,105.0
421,74.0,0,96,5.0,105.0
422,51.0,0,120,7.0,105.0
423,75.0,0,120,0.0,105.0
424,63.0,0,120,6.0,105.0
425,75.0,0,120,4.0,105.0
426,75.0,120,120,5.0,105.0
427,39.0,0,120,8.0,105.0
428,51.0,0,120,1.0,105.0
429,50.0,120,120,7.0,105.0
430,74.0,0,120,4.0,105.0
431,38.0,0,120,8.0,105.0
432,50.0,0,120,1.0,105.0
433,74.0,0,120,0.0,105.0
434,62.0,0,120,6.0,105.0
435,74.0,0,120,5.0,105.0
436,72.0,0,120,0.0,105.0
437,36.0,0,120,8.0,105.0
438,60.0,0,120,6.0,105.0
439,48.0,0,120,1.0,105.0
440,72.0,0,120,5.0,105.0
441,72.0,0,120,4.0,105.0
442,48.0,120,120,7.0,105.0
443,58.0,0,96,6.0,105.0
444,70.0,0,96,0.0,105.0
445,46.0,0,96,7.0,105.0
446,70.0,0,96,5.0,105.0
447,70.0,0,96,4.0,105.0
448,46.0,0,96,1.0,105.0
449,34.0,120,96,8.0,105.0
450,72.0,0,270,4.0,105.0
451,72.0,0,270,0.0,105.0
452,72.0,0,270,5.0,105.0
453,60.0,0,360,6.0,105.0
454,48.0,120,360,7.0,105.0
455,36.0,0,360,8.0,105.0
456,48.0,0,360,1.0,105.0
457,72.0,0,360,2.0,105.0
458,72.0,0,90,5.0,105.0
459,72.0,0,90,4.0,105.0
460,72.0,360,90,0.0,105.0
461,70.0,0,270,5.0,105.0
462,70.0,0,270,4.0,105.0
463,70.0,0,270,0.0,105.0
464,34.0,0,360,8.0,105.0
465,70.0,0,360,2.0,105.0
466,46.0,120,360,7.0,105.0
467,58.0,0,360,6.0,105.0
468,46.0,0,360,1.0,105.0
469,70.0,0,90,5.0,105.0
470,70.0,0,90,4.0,105.0
471,70.0,360,90,0.0,105.0
472,69.0,0,270,5.0,105.0
473,69.0,0,270,0.0,105.0
474,69.0,0,270,4.0,105.0
475,33.0,0,360,8.0,105.0
476,69.0,120,360,3.0,105.0
477,45.0,0,360,1.0,105.0
478,57.0,0,360,6.0,105.0
479,45.0,0,360,7.0,105.0
480,69.0,360,90,0.0,105.0
481,69.0,0,90,4.0,105.0
482,69.0,0,90,5.0,105.0
483,67.0,120,270,4.0,105.0
484,67.0,0,270,0.0,105.0
485,67.0,0,270,5.0,105.0
486,55.0,0,360,6.0,105.0
487,31.0,0,360,8.0,105.0
488,67.0,0,360,3.0,105.0
489,43.0,0,360,7.0,105.0
490,43.0,0,360,1.0,105.0
491,67.0,0,90,5.0,105.0
492,67.0,0,90,4.0,105.0
493,67.0,360,90,0.0,105.0
494,42.0,120,288,1.0,105.0
495,66.0,0,288,0.0,105.0
496,62.0,0,288,3.0,105.0
497,62.0,0,288,2.0,105.0
498,42.0,0,288,7.0,125.0
499,66.0,0,288,4.0,125.0
500,54.0,0,288,6.0,125.0
501,30.0,0,288,8.0,125.0
502,66.0,0,288,5.0,125.0
503,74.0,0,288,5.0,105.0
504,38.0,480,288,8.0,105.0
505,50.0,0,288,7.0,105.0
506,74.0,0,288,4.0,105.0
507,62.0,0,288,2.0,105.0
508,62.0,0,288,6.0,105.0
509,62.0,0,288,3.0,105.0
510,50.0,0,288,1.0,105.0
511,74.0,0,288,0.0,105.0
512,79.0,0,192,4.0,105.0
513,70.0,0,192,6.0,105.0
514,79.0,0,192,5.0,105.0
515,70.0,0,384,6.0,105.0
516,79.0,0,384,4.0,105.0
517,79.0,240,384,5.0,105.0
518,31.0,0,288,8.0,105.0
519,43.0,0,288,7.0,105.0
520,43.0,240,288,1.0,105.0
521,79.0,0,384,5.0,105.0
522,70.0,0,384,6.0,105.0
523,79.0,240,384,4.0,105.0
524,46.0,240,288,7.0,105.0
525,46.0,0,288,1.0,105.0
526,34.0,0,288,8.0,105.0
527,79.0,1440,1536,0.0,105.0
528,70.0,0,384,6.0,105.0
529,79.0,0,384,4.0,105.0
530,79.0,240,384,5.0,105.0
531,38.0,240,288,8.0,105.0
532,50.0,0,288,1.0,105.0
533,50.0,0,288,7.0,105.0
534,79.0,0,192,5.0,105.0
535,79.0,240,192,4.0,105.0
536,70.0,0,192,6.0,105.0
537,74.0,0,192,4.0,105.0
538,58.0,0,192,6.0,105.0
539,74.0,240,192,5.0,105.0
540,74.0,0,384,5.0,105.0
541,58.0,0,384,6.0,105.0
542,74.0,240,384,4.0,105.0
543,55.0,0,288,1.0,105.0
544,55.0,240,288,7.0,105.0
545,43.0,0,288,8.0,105.0
546,58.0,0,384,6.0,105.0
547,74.0,0,384,5.0,105.0
548,74.0,240,384,4.0,105.0
549,58.0,240,288,1.0,105.0
550,58.0,0,288,7.0,105.0
551,46.0,0,288,8.0,105.0
552,74.0,0,1536,0.0,105.0
553,70.0,0,3456,2.0,105.0
554,62.0,0,3456,2.0,105.0
555,74.0,0,384,4.0,105.0
556,74.0,0,384,5.0,105.0
557,58.0,240,384,6.0,105.0
558,55.0,240,288,1.0,105.0
559,55.0,0,288,7.0,105.0
560,43.0,0,288,8.0,105.0
561,58.0,240,192,6.0,105.0
562,74.0,0,192,5.0,105.0
563,74.0,0,192,4.0,105.0
564,67.0,0,192,6.0,105.0
565,75.0,0,192,5.0,105.0
566,75.0,0,192,4.0,105.0
567,75.0,0,384,5.0,105.0
568,75.0,240,384,4.0,105.0
569,67.0,0,384,6.0,105.0
570,48.0,240,288,7.0,105.0
571,36.0,0,288,8.0,105.0
572,48.0,0,288,1.0,105.0
573,75.0,0,384,5.0,105.0
574,75.0,240,384,4.0,105.0
575,67.0,0,384,6.0,105.0
576,43.0,0,288,8.0,105.0
577,55.0,240,288,1.0,105.0
578,55.0,0,288,7.0,105.0
579,75.0,240,1536,0.0,105.0
580,72.0,0,1536,2.0,105.0
581,67.0,0,384,6.0,105.0
582,75.0,240,384,5.0,105.0
583,75.0,0,384,4.0,105.0
584,48.0,240,288,8.0,105.0
585,60.0,0,288,7.0,105.0
586,60.0,0,288,1.0,105.0
587,67.0,0,192,6.0,105.0
588,75.0,240,192,4.0,105.0
589,75.0,0,192,5.0,105.0
590,66.0,0,192,5.0,105.0
591,66.0,0,192,4.0,105.0
592,62.0,0,192,6.0,105.0
593,57.0,0,192,6.0,105.0
594,66.0,0,384,5.0,105.0
595,62.0,240,384,6.0,105.0
596,66.0,0,384,4.0,105.0
597,57.0,0,384,6.0,105.0
598,57.0,240,288,1.0,105.0
599,57.0,0,288,7.0,105.0
600,45.0,0,288,8.0,105.0
601,66.0,0,384,4.0,105.0
602,57.0,0,384,6.0,105.0
603,66.0,240,384,5.0,105.0
604,62.0,0,384,6.0,105.0
605,62.0,240,288,1.0,105.0
606,62.0,0,288,7.0,105.0
607,50.0,0,288,8.0,105.0
608,62.0,0,1536,2.0,105.0
609,74.0,240,1536,2.0,105.0
610,66.0,0,1536,0.0,105.0
611,66.0,0,384,4.0,105.0
612,57.0,240,384,6.0,105.0
613,62.0,0,384,6.0,105.0
614,66.0,0,384,5.0,105.0
615,48.0,0,288,8.0,105.0
616,60.0,240,288,1.0,105.0
617,60.0,0,288,7.0,105.0
618,66.0,0,192,4.0,105.0
619,66.0,0,192,5.0,105.0
620,57.0,240,192,6.0,105.0
621,62.0,0,192,6.0,105.0
622,58.0,0,384,6.0,92.0
623,62.0,0,384,6.0,92.0
624,58.0,0,384,7.0,92.0
625,67.0,0,384,5.0,92.0
626,58.0,0,384,1.0,92.0
627,67.0,0,384,4.0,92.0
628,62.0,0,384,2.0,92.0
629,46.0,0,384,8.0,92.0
630,67.0,0,480,0.0,80.0
631,62.0,0,384,4.0,58.0
632,58.0,480,384,5.0,58.0
633,58.0,0,384,5.0,58.0
634,62.0,480,384,4.0,58.0
635,58.0,0,384,5.0,58.0
636,62.0,480,384,4.0,58.0
637,79.0,0,1920,0.0,80.0
638,31.0,480,384,8.0,70.0
639,55.0,0,384,6.0,58.0
640,43.0,0,384,7.0,58.0
641,62.0,0,384,4.0,58.0
642,58.0,480,384,5.0,58.0
643,58.0,0,384,5.0,58.0
644,62.0,480,384,4.0,58.0
645,58.0,480,384,5.0,58.0
646,62.0,0,384,4.0,58.0
647,74.0,0,1920,0.0,80.0
648,43.0,0,384,7.0,58.0
649,55.0,0,384,6.0,58.0
650,31.0,0,384,8.0,70.0
651,60.0,480,384,5.0,58.0
652,63.0,0,384,4.0,58.0
653,60.0,0,384,5.0,58.0
654,63.0,480,384,4.0,58.0
655,60.0,480,384,5.0,58.0
656,63.0,0,384,4.0,58.0
657,75.0,480,1920,0.0,80.0
658,55.0,0,384,6.0,58.0
659,43.0,0,384,7.0,58.0
660,31.0,0,384,8.0,70.0
661,60.0,480,384,4.0,58.0
662,57.0,0,384,5.0,58.0
663,60.0,480,384,4.0,58.0
664,57.0,0,384,5.0,58.0
665,55.0,240,7584,3.0,58.0
666,57.0,480,384,5.0,58.0
667,66.0,480,1824,0.0,80.0
668,60.0,0,384,4.0,58.0
669,31.0,0,384,8.0,70.0
670,43.0,0,384,7.0,58.0
671,55.0,480,384,6.0,58.0
672,58.0,480,384,4.0,58.0
673,55.0,0,384,5.0,58.0
674,58.0,480,384,4.0,58.0
675,55.0,0,384,5.0,58.0
676,58.0,0,384,4.0,58.0
677,55.0,480,384,5.0,58.0
678,67.0,0,1920,0.0,80.0
679,43.0,480,384,7.0,58.0
680,31.0,0,384,8.0,70.0
681,55.0,0,384,6.0,58.0
682,62.0,0,384,4.0,58.0
683,58.0,480,384,5.0,58.0
684,62.0,480,384,4.0,58.0
685,58.0,0,384,5.0,58.0
686,58.0,0,384,5.0,58.0
687,62.0,480,384,4.0,58.0
688,79.0,0,1920,0.0,80.0
689,39.0,480,384,7.0,58.0
690,27.0,0,384,8.0,70.0
691,51.0,0,384,6.0,58.0
692,67.0,480,384,4.0,58.0
693,61.0,0,384,5.0,58.0
694,61.0,0,384,5.0,58.0
695,67.0,480,384,4.0,58.0
696,67.0,0,384,4.0,58.0
697,61.0,480,384,5.0,58.0
698,82.0,0,1920,0.0,80.0
699,63.0,480,384,6.0,58.0
700,51.0,0,384,7.0,58.0
701,39.0,0,384,8.0,70.0
702,67.0,0,384,5.0,58.0
703,70.0,480,384,4.0,58.0
704,67.0,0,384,5.0,58.0
705,70.0,480,384,4.0,58.0
706,55.0,0,7584,3.0,58.0
707,73.0,0,1824,0.0,80.0
708,67.0,0,384,4.0,58.0
709,55.0,480,384,5.0,58.0
710,38.0,0,384,8.0,58.0
711,50.0,0,384,7.0,58.0
712,62.0,480,384,6.0,58.0
713,66.0,0,720,4.0,58.0
714,74.0,0,720,0.0,80.0
715,57.0,0,720,5.0,58.0
716,67.0,0,240,4.0,58.0
717,73.0,720,240,0.0,80.0
718,58.0,0,240,5.0,58.0
719,66.0,0,240,4.0,58.0
720,74.0,0,240,0.0,70.0
721,57.0,240,240,5.0,58.0
722,58.0,0,240,5.0,58.0
723,67.0,0,240,4.0,58.0
724,73.0,240,240,0.0,70.0
725,57.0,240,240,5.0,58.0
726,74.0,0,240,0.0,70.0
727,66.0,0,240,4.0,58.0
728,67.0,0,192,4.0,58.0
729,73.0,0,192,0.0,70.0
730,58.0,240,192,5.0,58.0
731,50.0,240,384,7.0,58.0
732,62.0,0,384,6.0,58.0
733,38.0,0,384,8.0,58.0
734,57.0,0,720,5.0,58.0
735,66.0,0,720,4.0,58.0
736,74.0,0,720,0.0,70.0
737,73.0,720,240,0.0,70.0
738,67.0,0,240,4.0,58.0
739,58.0,0,240,5.0,58.0
740,57.0,0,240,5.0,58.0
741,74.0,240,240,0.0,70.0
742,66.0,0,240,4.0,58.0
743,67.0,240,240,4.0,58.0
744,58.0,0,240,5.0,58.0
745,73.0,0,240,0.0,58.0
746,57.0,240,240,5.0,58.0
747,66.0,0,240,4.0,58.0
748,74.0,0,240,0.0,58.0
749,58.0,240,192,5.0,58.0
750,67.0,0,192,4.0,58.0
751,73.0,0,192,0.0,58.0
752,38.0,0,384,8.0,58.0
753,57.0,0,384,5.0,58.0
754,50.0,240,384,7.0,58.0
755,74.0,0,384,0.0,58.0
756,62.0,0,384,6.0,58.0
757,66.0,0,384,4.0,58.0
758,50.0,0,4224,3.0,58.0
759,74.0,0,384,0.0,58.0
760,66.0,0,384,4.0,58.0
761,62.0,960,384,6.0,58.0
762,50.0,0,384,7.0,58.0
763,50.0,0,384,3.0,58.0
764,38.0,0,384,8.0,58.0
765,57.0,0,384,5.0,58.0
766,50.0,0,384,3.0,58.0
767,57.0,0,384,5.0,58.0
768,74.0,0,384,0.0,58.0
769,66.0,0,384,4.0,58.0
770,50.0,0,384,7.0,58.0
771,38.0,960,384,8.0,58.0
772,62.0,0,384,6.0,58.0
773,65.0,0,108,5.0,92.0
774,62.0,0,108,5.0,92.0
775,62.0,0,108,6.0,92.0
776,58.0,1920,108,6.0,58.0
777,62.0,120,108,6.0,92.0
778,62.0,0,108,5.0,92.0
779,58.0,0,108,6.0,92.0
780,65.0,0,108,5.0,92.0
781,62.0,0,108,5.0,92.0
782,65.0,120,108,5.0,92.0
783,62.0,0,108,6.0,92.0
784,58.0,0,108,6.0,92.0
785,65.0,0,384,2.0,105.0
786,62.0,0,384,3.0,105.0
787,70.0,0,384,2.0,105.0
788,62.0,0,108,6.0,92.0
789,58.0,0,108,6.0,92.0
790,65.0,120,108,5.0,92.0
791,62.0,0,108,5.0,92.0
792,62.0,0,108,6.0,92.0
793,58.0,120,108,6.0,92.0
794,62.0,0,108,5.0,92.0
795,65.0,0,108,5.0,92.0
796,65.0,120,108,5.0,92.0
797,62.0,0,108,5.0,92.0
798,62.0,0,108,6.0,92.0
799,58.0,0,108,6.0,92.0
800,46.0,0,768,1.0,105.0
801,34.0,0,768,8.0,105.0
802,46.0,0,768,7.0,105.0
803,65.0,0,108,5.0,92.0
804,62.0,120,108,6.0,92.0
805,62.0,0,108,5.0,92.0
806,58.0,0,108,6.0,92.0
807,62.0,0,108,5.0,92.0
808,62.0,0,108,6.0,92.0
809,65.0,120,108,5.0,92.0
810,58.0,0,108,6.0,92.0
811,58.0,0,108,6.0,92.0
812,62.0,0,108,6.0,92.0
813,62.0,0,108,5.0,92.0
814,65.0,120,108,5.0,92.0
815,58.0,0,108,6.0,92.0
816,62.0,0,108,5.0,92.0
817,65.0,0,108,5.0,92.0
818,62.0,120,108,6.0,92.0
819,58.0,0,108,6.0,92.0
820,62.0,120,108,6.0,92.0
821,62.0,0,108,5.0,92.0
822,65.0,0,108,5.0,92.0
823,62.0,0,108,6.0,92.0
824,58.0,0,108,6.0,92.0
825,65.0,0,108,5.0,92.0
826,62.0,120,108,5.0,92.0
827,70.0,0,1536,0.0,105.0
828,58.0,120,108,6.0,92.0
829,62.0,0,108,6.0,92.0
830,65.0,0,108,5.0,92.0
831,62.0,0,108,5.0,92.0
832,62.0,0,108,6.0,92.0
833,62.0,120,108,5.0,92.0
834,65.0,0,108,5.0,92.0
835,58.0,0,108,6.0,92.0
836,70.0,0,1728,4.0,116.0
837,62.0,0,108,5.0,92.0
838,65.0,0,108,5.0,92.0
839,62.0,120,108,6.0,92.0
840,58.0,0,108,6.0,92.0
841,58.0,0,108,6.0,92.0
842,65.0,0,108,5.0,92.0
843,62.0,120,108,5.0,92.0
844,62.0,0,108,6.0,92.0
845,62.0,0,108,5.0,92.0
846,65.0,0,108,5.0,92.0
847,58.0,0,108,6.0,92.0
848,62.0,120,108,6.0,92.0
849,62.0,0,108,5.0,92.0
850,65.0,120,108,5.0,92.0
851,62.0,0,108,6.0,92.0
852,58.0,0,108,6.0,92.0
853,62.0,0,108,5.0,92.0
854,62.0,120,108,6.0,92.0
855,65.0,0,108,5.0,92.0
856,58.0,0,108,6.0,92.0
857,62.0,0,108,6.0,92.0
858,62.0,120,108,5.0,92.0
859,65.0,0,108,5.0,92.0
860,58.0,0,108,6.0,92.0
861,58.0,0,108,6.0,92.0
862,62.0,120,108,6.0,92.0
863,65.0,0,108,5.0,92.0
864,62.0,0,108,5.0,92.0
865,62.0,120,108,5.0,92.0
866,65.0,0,108,5.0,92.0
867,62.0,0,108,6.0,92.0
868,58.0,0,108,6.0,92.0
869,58.0,0,108,6.0,92.0
870,62.0,0,108,6.0,92.0
871,62.0,0,108,5.0,92.0
872,65.0,120,108,5.0,92.0
873,62.0,0,108,6.0,92.0
874,62.0,120,108,5.0,92.0
875,65.0,0,108,5.0,92.0
876,58.0,0,108,6.0,92.0
877,58.0,0,108,6.0,92.0
878,65.0,0,108,5.0,92.0
879,62.0,120,108,5.0,92.0
880,62.0,0,108,6.0,92.0
881,58.0,0,108,6.0,92.0
882,62.0,0,108,6.0,92.0
883,65.0,0,108,5.0,92.0
884,62.0,120,108,5.0,92.0
885,58.0,0,108,6.0,92.0
886,62.0,0,108,6.0,92.0
887,62.0,120,108,5.0,92.0
888,65.0,0,108,5.0,92.0
889,62.0,0,108,5.0,92.0
890,65.0,0,108,5.0,92.0
891,62.0,0,108,6.0,92.0
892,58.0,120,108,6.0,92.0
893,82.0,0,1536,0.0,105.0
894,62.0,0,108,5.0,92.0
895,65.0,120,108,5.0,92.0
896,62.0,0,108,6.0,92.0
897,58.0,0,108,6.0,92.0
898,62.0,0,108,5.0,92.0
899,58.0,120,108,6.0,92.0
900,65.0,0,108,5.0,92.0
901,62.0,0,108,6.0,92.0
902,82.0,0,1728,4.0,116.0
903,65.0,120,108,5.0,92.0
904,62.0,0,108,5.0,92.0
905,58.0,0,108,6.0,92.0
906,62.0,0,108,6.0,92.0
907,58.0,0,108,6.0,92.0
908,62.0,0,108,6.0,92.0
909,62.0,0,108,5.0,92.0
910,65.0,120,108,5.0,92.0
911,81.0,0,60,4.0,116.0
912,65.0,0,108,5.0,92.0
913,60.0,120,108,6.0,92.0
914,63.0,0,108,6.0,92.0
915,57.0,0,108,5.0,92.0
916,79.0,60,60,4.0,116.0
917,57.0,60,108,5.0,92.0
918,65.0,0,108,5.0,92.0
919,63.0,0,108,6.0,92.0
920,60.0,0,108,6.0,92.0
921,65.0,0,108,5.0,92.0
922,57.0,120,108,5.0,92.0
923,60.0,0,108,6.0,92.0
924,63.0,0,108,6.0,92.0
925,81.0,0,384,0.0,105.0
926,77.0,0,288,4.0,116.0
927,57.0,0,108,5.0,92.0
928,65.0,0,108,5.0,92.0
929,60.0,120,108,6.0,92.0
930,63.0,0,108,6.0,92.0
931,60.0,120,108,6.0,92.0
932,63.0,0,108,6.0,92.0
933,65.0,0,108,5.0,92.0
934,57.0,0,108,5.0,92.0
935,77.0,0,156,4.0,116.0
936,57.0,0,108,5.0,92.0
937,65.0,0,108,5.0,92.0
938,63.0,0,108,6.0,92.0
939,60.0,120,108,6.0,92.0
940,57.0,0,108,5.0,92.0
941,65.0,0,108,5.0,92.0
942,60.0,120,108,6.0,92.0
943,63.0,0,108,6.0,92.0
944,77.0,0,156,4.0,116.0
945,60.0,0,108,6.0,92.0
946,63.0,0,108,6.0,92.0
947,65.0,120,108,5.0,92.0
948,57.0,0,108,5.0,92.0
949,63.0,0,108,6.0,92.0
950,57.0,0,108,5.0,92.0
951,65.0,120,108,5.0,92.0
952,60.0,0,108,6.0,92.0
953,65.0,0,108,5.0,92.0
954,63.0,0,108,6.0,92.0
955,60.0,0,108,6.0,92.0
956,57.0,120,108,5.0,92.0
957,65.0,120,108,5.0,92.0
958,57.0,0,108,5.0,92.0
959,63.0,0,108,6.0,92.0
960,60.0,0,108,6.0,92.0
961,77.0,0,384,4.0,116.0
962,63.0,0,108,6.0,92.0
963,57.0,0,108,5.0,92.0
964,65.0,0,108,5.0,92.0
965,60.0,120,108,6.0,92.0
966,65.0,0,1536,2.0,105.0
967,53.0,0,1536,1.0,105.0
968,41.0,0,1536,8.0,105.0
969,53.0,0,1536,7.0,105.0
970,63.0,0,108,6.0,92.0
971,57.0,0,108,5.0,92.0
972,65.0,120,108,5.0,92.0
973,60.0,0,108,6.0,92.0
974,65.0,0,108,5.0,92.0
975,57.0,0,108,5.0,92.0
976,63.0,120,108,6.0,92.0
977,60.0,0,108,6.0,92.0
978,63.0,120,108,6.0,92.0
979,60.0,0,108,6.0,92.0
980,65.0,0,108,5.0,92.0
981,57.0,0,108,5.0,92.0
982,57.0,0,108,5.0,92.0
983,65.0,0,108,5.0,92.0
984,60.0,0,108,6.0,92.0
985,63.0,120,108,6.0,92.0
986,81.0,0,60,4.0,116.0
987,63.0,0,108,6.0,92.0
988,60.0,0,108,6.0,92.0
989,57.0,120,108,5.0,92.0
990,65.0,0,108,5.0,92.0
991,79.0,60,60,4.0,116.0
992,57.0,60,108,5.0,92.0
993,63.0,0,108,6.0,92.0
994,60.0,0,108,6.0,92.0
995,65.0,0,108,5.0,92.0
996,57.0,0,108,5.0,92.0
997,65.0,0,108,5.0,92.0
998,60.0,0,108,6.0,92.0
999,63.0,120,108,6.0,92.0
1000,77.0,0,288,4.0,116.0
1001,60.0,0,108,6.0,92.0
1002,65.0,120,108,5.0,92.0
1003,57.0,0,108,5.0,92.0
1004,63.0,0,108,6.0,92.0
1005,65.0,0,108,5.0,92.0
1006,57.0,0,108,5.0,92.0
1007,63.0,120,108,6.0,92.0
1008,60.0,0,108,6.0,92.0
1009,77.0,0,156,4.0,116.0
1010,63.0,0,108,6.0,92.0
1011,65.0,0,108,5.0,92.0
1012,60.0,120,108,6.0,92.0
1013,57.0,0,108,5.0,92.0
1014,60.0,0,108,6.0,92.0
1015,63.0,0,108,6.0,92.0
1016,65.0,0,108,5.0,92.0
1017,57.0,0,108,5.0,92.0
1018,77.0,120,156,4.0,116.0
1019,65.0,120,108,5.0,92.0
1020,57.0,0,108,5.0,92.0
1021,60.0,0,108,6.0,92.0
1022,63.0,0,108,6.0,92.0
1023,63.0,120,108,6.0,92.0
1024,60.0,0,108,6.0,92.0
1025,57.0,0,108,5.0,92.0
1026,65.0,0,108,5.0,92.0
1027,60.0,0,108,6.0,92.0
1028,57.0,0,108,5.0,92.0
1029,63.0,120,108,6.0,92.0
1030,65.0,0,108,5.0,92.0
1031,65.0,0,108,5.0,92.0
1032,57.0,120,108,5.0,92.0
1033,60.0,0,108,6.0,92.0
1034,63.0,0,108,6.0,92.0
1035,77.0,0,384,4.0,116.0
1036,65.0,0,108,5.0,92.0
1037,57.0,0,108,5.0,92.0
1038,63.0,0,108,6.0,92.0
1039,60.0,120,108,6.0,92.0
1040,75.0,0,1536,2.0,105.0
1041,63.0,0,1536,1.0,105.0
1042,63.0,0,1536,7.0,105.0
1043,51.0,0,1536,8.0,105.0
1044,63.0,0,108,6.0,92.0
1045,60.0,120,108,6.0,92.0
1046,57.0,0,108,5.0,92.0
1047,65.0,0,108,5.0,92.0
1048,60.0,0,108,6.0,92.0
1049,63.0,0,108,6.0,92.0
1050,57.0,0,108,5.0,92.0
1051,65.0,120,108,5.0,92.0
1052,57.0,0,108,5.0,92.0
1053,63.0,0,108,6.0,92.0
1054,60.0,0,108,6.0,92.0
1055,65.0,120,108,5.0,92.0
1056,63.0,0,108,6.0,92.0
1057,65.0,0,108,5.0,92.0
1058,60.0,120,108,6.0,92.0
1059,57.0,0,108,5.0,92.0
1060,62.0,0,60,7.0,105.0
1061,62.0,0,60,1.0,105.0
1062,50.0,0,60,8.0,105.0
1063,65.0,0,96,5.0,92.0
1064,58.0,0,96,6.0,92.0
1065,62.0,0,96,6.0,92.0
1066,62.0,0,96,5.0,92.0
1067,60.0,0,60,1.0,105.0
1068,60.0,60,60,7.0,105.0
1069,48.0,0,60,8.0,105.0
1070,65.0,60,96,5.0,92.0
1071,62.0,0,96,5.0,92.0
1072,62.0,0,96,6.0,92.0
1073,58.0,0,96,6.0,92.0
1074,62.0,0,312,3.0,105.0
1075,74.0,0,312,2.0,105.0
1076,65.0,0,96,5.0,92.0
1077,62.0,0,96,5.0,92.0
1078,58.0,120,96,6.0,92.0
1079,62.0,0,96,6.0,92.0
1080,58.0,0,288,1.0,105.0
1081,58.0,0,288,7.0,105.0
1082,46.0,0,288,8.0,105.0
1083,62.0,0,96,6.0,92.0
1084,62.0,0,96,5.0,92.0
1085,65.0,0,96,5.0,92.0
1086,58.0,120,96,6.0,92.0
1087,62.0,0,96,5.0,92.0
1088,62.0,120,96,6.0,92.0
1089,58.0,0,96,6.0,92.0
1090,65.0,0,96,5.0,92.0
1091,58.0,0,156,7.0,105.0
1092,58.0,0,156,1.0,105.0
1093,70.0,0,156,2.0,105.0
1094,46.0,0,156,8.0,105.0
1095,65.0,0,96,5.0,92.0
1096,62.0,0,96,6.0,92.0
1097,58.0,120,96,6.0,92.0
1098,62.0,0,96,5.0,92.0
1099,62.0,0,96,5.0,92.0
1100,58.0,0,96,6.0,92.0
1101,62.0,0,96,6.0,92.0
1102,65.0,0,96,5.0,92.0
1103,58.0,0,156,7.0,105.0
1104,46.0,0,156,8.0,105.0
1105,70.0,120,156,2.0,105.0
1106,58.0,0,156,1.0,105.0
1107,65.0,0,96,5.0,92.0
1108,58.0,120,96,6.0,92.0
1109,62.0,0,96,6.0,92.0
1110,62.0,0,96,5.0,92.0
1111,62.0,0,96,5.0,92.0
1112,65.0,120,96,5.0,92.0
1113,62.0,0,96,6.0,92.0
1114,58.0,0,96,6.0,92.0
1115,62.0,0,96,6.0,92.0
1116,62.0,0,96,5.0,92.0
1117,65.0,120,96,5.0,92.0
1118,58.0,0,96,6.0,92.0
1119,58.0,0,312,2.0,105.0
1120,70.0,0,312,2.0,105.0
1121,65.0,0,96,5.0,92.0
1122,62.0,0,96,5.0,92.0
1123,62.0,0,96,6.0,92.0
1124,58.0,120,96,6.0,92.0
1125,58.0,0,384,1.0,105.0
1126,58.0,0,384,7.0,105.0
1127,46.0,0,384,8.0,105.0
1128,62.0,0,96,6.0,92.0
1129,65.0,120,96,5.0,92.0
1130,62.0,0,96,5.0,92.0
1131,58.0,0,96,6.0,92.0
1132,62.0,0,96,5.0,92.0
1133,65.0,120,96,5.0,92.0
1134,70.0,120,1536,0.0,105.0
1135,58.0,0,96,6.0,92.0
1136,62.0,0,96,6.0,92.0
1137,62.0,0,96,6.0,92.0
1138,65.0,120,96,5.0,92.0
1139,58.0,0,96,6.0,92.0
1140,62.0,0,96,5.0,92.0
1141,70.0,0,1728,4.0,116.0
1142,65.0,0,96,5.0,92.0
1143,62.0,120,96,5.0,92.0
1144,62.0,0,96,6.0,92.0
1145,58.0,0,96,6.0,92.0
1146,62.0,0,96,5.0,92.0
1147,65.0,120,96,5.0,92.0
1148,62.0,0,96,6.0,92.0
1149,58.0,0,96,6.0,92.0
1150,50.0,0,60,8.0,105.0
1151,62.0,0,60,7.0,105.0
1152,62.0,0,60,1.0,105.0
1153,62.0,0,96,5.0,92.0
1154,58.0,0,96,6.0,92.0
1155,62.0,0,96,6.0,92.0
1156,65.0,120,96,5.0,92.0
1157,48.0,60,60,8.0,105.0
1158,60.0,0,60,7.0,105.0
1159,60.0,0,60,1.0,105.0
1160,65.0,0,96,5.0,92.0
1161,62.0,60,96,5.0,92.0
1162,62.0,0,96,6.0,92.0
1163,58.0,0,96,6.0,92.0
1164,62.0,0,312,2.0,105.0
1165,74.0,0,312,2.0,105.0
1166,62.0,0,312,3.0,105.0
1167,58.0,120,96,6.0,92.0
1168,62.0,0,96,6.0,92.0
1169,62.0,0,96,5.0,92.0
1170,65.0,0,96,5.0,92.0
1171,58.0,0,288,1.0,105.0
1172,58.0,0,288,7.0,105.0
1173,46.0,0,288,8.0,105.0
1174,65.0,0,96,5.0,92.0
1175,62.0,120,96,5.0,92.0
1176,62.0,0,96,6.0,92.0
1177,58.0,0,96,6.0,92.0
1178,62.0,0,96,5.0,92.0
1179,62.0,0,96,6.0,92.0
1180,65.0,0,96,5.0,92.0
1181,58.0,0,96,6.0,92.0
1182,58.0,0,156,2.0,105.0
1183,70.0,0,156,2.0,105.0
1184,46.0,0,156,8.0,105.0
1185,58.0,120,156,7.0,105.0
1186,58.0,0,156,1.0,105.0
1187,58.0,0,96,6.0,92.0
1188,62.0,0,96,5.0,92.0
1189,65.0,120,96,5.0,92.0
1190,62.0,0,96,6.0,92.0
1191,65.0,0,96,5.0,92.0
1192,62.0,0,96,5.0,92.0
1193,58.0,0,96,6.0,92.0
1194,62.0,0,96,6.0,92.0
1195,58.0,0,156,7.0,105.0
1196,70.0,0,156,2.0,105.0
1197,58.0,0,156,2.0,105.0
1198,58.0,0,156,1.0,105.0
1199,46.0,120,156,8.0,105.0
1200,65.0,0,96,5.0,92.0
1201,62.0,120,96,5.0,92.0
1202,58.0,0,96,6.0,92.0
1203,62.0,0,96,6.0,92.0
1204,58.0,0,96,6.0,92.0
1205,62.0,0,96,6.0,92.0
1206,65.0,0,96,5.0,92.0
1207,62.0,120,96,5.0,92.0
1208,58.0,0,96,6.0,92.0
1209,62.0,120,96,6.0,92.0
1210,65.0,0,96,5.0,92.0
1211,62.0,0,96,5.0,92.0
1212,58.0,0,312,2.0,105.0
1213,70.0,0,312,2.0,105.0
1214,65.0,0,96,5.0,92.0
1215,62.0,0,96,5.0,92.0
1216,62.0,0,96,6.0,92.0
1217,58.0,120,96,6.0,92.0
1218,46.0,0,384,8.0,105.0
1219,58.0,0,384,7.0,105.0
1220,58.0,0,384,1.0,105.0
1221,58.0,0,96,6.0,92.0
1222,65.0,0,96,5.0,92.0
1223,62.0,120,96,6.0,92.0
1224,62.0,0,96,5.0,92.0
1225,65.0,0,96,5.0,92.0
1226,62.0,0,96,6.0,92.0
1227,58.0,0,96,6.0,92.0
1228,62.0,120,96,5.0,92.0
1229,82.0,0,1536,0.0,105.0
1230,65.0,120,96,5.0,92.0
1231,62.0,0,96,5.0,92.0
1232,62.0,0,96,6.0,92.0
1233,58.0,0,96,6.0,92.0
1234,82.0,0,1728,4.0,116.0
1235,62.0,0,96,6.0,92.0
1236,62.0,120,96,5.0,92.0
1237,58.0,0,96,6.0,92.0
1238,65.0,0,96,5.0,92.0
1239,65.0,0,96,5.0,92.0
1240,58.0,120,96,6.0,92.0
1241,62.0,0,96,6.0,92.0
1242,62.0,0,96,5.0,92.0
1243,81.0,0,60,4.0,116.0
1244,65.0,0,96,5.0,92.0
1245,57.0,0,96,5.0,92.0
1246,60.0,0,96,6.0,92.0
1247,63.0,0,96,6.0,92.0
1248,79.0,60,60,4.0,116.0
1249,60.0,60,96,6.0,92.0
1250,63.0,0,96,6.0,92.0
1251,57.0,0,96,5.0,92.0
1252,65.0,0,96,5.0,92.0
1253,60.0,120,96,6.0,92.0
1254,63.0,0,96,6.0,92.0
1255,65.0,0,96,5.0,92.0
1256,57.0,0,96,5.0,92.0
1257,81.0,120,384,0.0,105.0
1258,77.0,0,288,4.0,116.0
1259,65.0,0,96,5.0,92.0
1260,57.0,120,96,5.0,92.0
1261,63.0,0,96,6.0,92.0
1262,60.0,0,96,6.0,92.0
1263,65.0,0,96,5.0,92.0
1264,57.0,0,96,5.0,92.0
1265,63.0,120,96,6.0,92.0
1266,60.0,0,96,6.0,92.0
1267,77.0,0,156,4.0,116.0
1268,65.0,120,96,5.0,92.0
1269,60.0,0,96,6.0,92.0
1270,63.0,0,96,6.0,92.0
1271,57.0,0,96,5.0,92.0
1272,60.0,0,96,6.0,92.0
1273,63.0,0,96,6.0,92.0
1274,65.0,120,96,5.0,92.0
1275,57.0,0,96,5.0,92.0
1276,77.0,0,156,4.0,116.0
1277,65.0,0,96,5.0,92.0
1278,57.0,120,96,5.0,92.0
1279,60.0,0,96,6.0,92.0
1280,63.0,0,96,6.0,92.0
1281,65.0,0,96,5.0,92.0
1282,57.0,120,96,5.0,92.0
1283,60.0,0,96,6.0,92.0
1284,63.0,0,96,6.0,92.0
1285,63.0,0,96,6.0,92.0
1286,57.0,0,96,5.0,92.0
1287,60.0,0,96,6.0,92.0
1288,65.0,120,96,5.0,92.0
1289,63.0,0,96,6.0,92.0
1290,60.0,120,96,6.0,92.0
1291,57.0,0,96,5.0,92.0
1292,65.0,0,96,5.0,92.0
1293,77.0,0,384,4.0,116.0
1294,60.0,0,96,6.0,92.0
1295,65.0,120,96,5.0,92.0
1296,57.0,0,96,5.0,92.0
1297,63.0,0,96,6.0,92.0
1298,60.0,0,96,6.0,92.0
1299,63.0,120,96,6.0,92.0
1300,65.0,0,1536,2.0,105.0
1301,53.0,0,1536,7.0,105.0
1302,41.0,0,1536,8.0,105.0
1303,53.0,0,1536,1.0,105.0
1304,57.0,0,96,5.0,92.0
1305,65.0,0,96,5.0,92.0
1306,57.0,0,96,5.0,92.0
1307,65.0,0,96,5.0,92.0
1308,63.0,0,96,6.0,92.0
1309,60.0,120,96,6.0,92.0
1310,60.0,0,96,6.0,92.0
1311,63.0,0,96,6.0,92.0
1312,57.0,0,96,5.0,92.0
1313,65.0,120,96,5.0,92.0
1314,63.0,0,96,6.0,92.0
1315,60.0,120,96,6.0,92.0
1316,57.0,0,96,5.0,92.0
1317,65.0,0,96,5.0,92.0
1318,81.0,0,60,4.0,116.0
1319,57.0,0,96,5.0,92.0
1320,63.0,120,96,6.0,92.0
1321,65.0,0,96,5.0,92.0
1322,60.0,0,96,6.0,92.0
1323,79.0,60,60,4.0,116.0
1324,60.0,0,96,6.0,92.0
1325,65.0,0,96,5.0,92.0
1326,57.0,60,96,5.0,92.0
1327,63.0,0,96,6.0,92.0
1328,63.0,0,96,6.0,92.0
1329,60.0,120,96,6.0,92.0
1330,65.0,0,96,5.0,92.0
1331,57.0,0,96,5.0,92.0
1332,77.0,0,288,4.0,116.0
1333,65.0,0,96,5.0,92.0
1334,57.0,120,96,5.0,92.0
1335,60.0,0,96,6.0,92.0
1336,63.0,0,96,6.0,92.0
1337,57.0,0,96,5.0,92.0
1338,63.0,0,96,6.0,92.0
1339,60.0,0,96,6.0,92.0
1340,65.0,0,96,5.0,92.0
1341,77.0,120,156,4.0,116.0
1342,63.0,0,96,6.0,92.0
1343,60.0,120,96,6.0,92.0
1344,57.0,0,96,5.0,92.0
1345,65.0,0,96,5.0,92.0
1346,63.0,120,96,6.0,92.0
1347,60.0,0,96,6.0,92.0
1348,57.0,0,96,5.0,92.0
1349,65.0,0,96,5.0,92.0
1350,77.0,0,156,4.0,116.0
1351,60.0,0,96,6.0,92.0
1352,63.0,120,96,6.0,92.0
1353,65.0,0,96,5.0,92.0
1354,57.0,0,96,5.0,92.0
1355,57.0,0,96,5.0,92.0
1356,63.0,120,96,6.0,92.0
1357,60.0,0,96,6.0,92.0
1358,65.0,0,96,5.0,92.0
1359,65.0,120,96,5.0,92.0
1360,57.0,0,96,5.0,92.0
1361,63.0,0,96,6.0,92.0
1362,60.0,0,96,6.0,92.0
1363,63.0,0,96,6.0,92.0
1364,65.0,0,96,5.0,92.0
1365,57.0,120,96,5.0,92.0
1366,60.0,0,96,6.0,92.0
1367,77.0,0,384,4.0,116.0
1368,63.0,0,96,6.0,92.0
1369,57.0,0,96,5.0,92.0
1370,60.0,120,96,6.0,92.0
1371,65.0,0,96,5.0,92.0
1372,75.0,0,1536,2.0,105.0
1373,60.0,0,96,6.0,92.0
1374,51.0,0,1536,8.0,105.0
1375,63.0,0,1536,1.0,105.0
1376,63.0,120,96,6.0,92.0
1377,57.0,0,96,5.0,92.0
1378,65.0,0,96,5.0,92.0
1379,63.0,0,1536,7.0,105.0
1380,65.0,120,96,5.0,92.0
1381,63.0,0,96,6.0,92.0
1382,60.0,0,96,6.0,92.0
1383,57.0,0,96,5.0,92.0
1384,60.0,0,96,6.0,92.0
1385,63.0,0,96,6.0,92.0
1386,57.0,0,96,5.0,92.0
1387,65.0,120,96,5.0,92.0
1388,60.0,120,96,6.0,92.0
1389,57.0,0,96,5.0,92.0
1390,65.0,0,96,5.0,92.0
1391,63.0,0,96,6.0,92.0
1392,62.0,0,60,1.0,105.0
1393,50.0,0,60,8.0,105.0
1394,62.0,120,60,7.0,105.0
1395,65.0,0,60,6.0,92.0
1396,70.0,0,96,4.0,116.0
1397,60.0,0,60,1.0,105.0
1398,63.0,0,60,6.0,105.0
1399,60.0,0,60,7.0,105.0
1400,48.0,60,60,8.0,105.0
1401,70.0,0,96,4.0,105.0
1402,62.0,0,312,3.0,105.0
1403,74.0,0,312,2.0,92.0
1404,70.0,120,96,4.0,105.0
1405,58.0,0,384,5.0,92.0
1406,70.0,0,384,5.0,92.0
1407,65.0,0,384,5.0,92.0
1408,58.0,60,288,1.0,105.0
1409,62.0,0,288,6.0,105.0
1410,46.0,0,288,8.0,105.0
1411,58.0,0,288,7.0,105.0
1412,70.0,120,96,4.0,105.0
1413,74.0,120,96,4.0,105.0
1414,62.0,0,156,6.0,105.0
1415,58.0,0,156,1.0,105.0
1416,70.0,0,156,2.0,92.0
1417,46.0,0,156,8.0,105.0
1418,58.0,0,156,7.0,105.0
1419,74.0,120,96,4.0,105.0
1420,74.0,0,96,4.0,105.0
1421,58.0,0,156,7.0,105.0
1422,62.0,0,156,6.0,105.0
1423,70.0,0,156,2.0,92.0
1424,46.0,0,156,8.0,105.0
1425,58.0,120,156,1.0,105.0
1426,74.0,120,96,4.0,105.0
1427,77.0,0,96,4.0,105.0
1428,77.0,120,96,4.0,105.0
1429,70.0,0,312,2.0,92.0
1430,58.0,0,312,2.0,92.0
1431,77.0,120,96,4.0,105.0
1432,46.0,0,384,8.0,105.0
1433,58.0,120,384,7.0,105.0
1434,62.0,0,384,6.0,105.0
1435,58.0,0,384,1.0,105.0
1436,77.0,120,96,4.0,105.0
1437,82.0,120,96,4.0,105.0
1438,82.0,120,96,4.0,105.0
1439,82.0,0,768,0.0,105.0
1440,74.0,0,768,0.0,105.0
1441,82.0,120,96,4.0,105.0
1442,82.0,120,96,4.0,105.0
1443,62.0,120,60,7.0,105.0
1444,65.0,0,60,6.0,105.0
1445,62.0,0,60,1.0,105.0
1446,50.0,0,60,8.0,105.0
1447,86.0,0,96,4.0,105.0
1448,48.0,0,60,8.0,105.0
1449,60.0,0,60,1.0,105.0
1450,60.0,60,60,7.0,105.0
1451,63.0,0,60,6.0,105.0
1452,86.0,60,96,4.0,105.0
1453,62.0,0,312,2.0,92.0
1454,62.0,0,312,3.0,92.0
1455,74.0,0,312,2.0,92.0
1456,86.0,120,96,4.0,105.0
1457,58.0,0,288,1.0,105.0
1458,46.0,0,288,8.0,105.0
1459,62.0,0,288,6.0,105.0
1460,58.0,0,288,7.0,105.0
1461,86.0,120,96,4.0,105.0
1462,82.0,0,96,4.0,105.0
1463,58.0,0,156,7.0,105.0
1464,46.0,0,156,8.0,105.0
1465,58.0,0,156,1.0,105.0
1466,58.0,120,156,2.0,92.0
1467,70.0,0,156,2.0,92.0
1468,62.0,0,156,6.0,105.0
1469,82.0,120,96,4.0,105.0
1470,82.0,0,96,4.0,105.0
1471,62.0,0,156,6.0,105.0
1472,46.0,0,156,8.0,105.0
1473,58.0,120,156,2.0,92.0
1474,58.0,0,156,1.0,105.0
1475,58.0,0,156,7.0,105.0
1476,70.0,0,156,2.0,92.0
1477,82.0,120,96,4.0,105.0
1478,77.0,120,96,4.0,105.0
1479,77.0,120,96,4.0,105.0
1480,70.0,0,312,2.0,92.0
1481,58.0,0,312,2.0,92.0
1482,77.0,120,96,4.0,105.0
1483,46.0,0,384,8.0,105.0
1484,58.0,0,384,1.0,105.0
1485,58.0,0,384,7.0,105.0
1486,62.0,0,384,6.0,105.0
1487,77.0,120,96,4.0,105.0
1488,74.0,120,96,4.0,105.0
1489,74.0,120,96,4.0,105.0
1490,82.0,0,768,0.0,105.0
1491,74.0,0,768,0.0,105.0
1492,74.0,120,96,4.0,105.0
1493,74.0,120,96,4.0,105.0
1494,55.0,0,60,7.0,105.0
1495,43.0,120,60,8.0,105.0
1496,58.0,0,60,6.0,105.0
1497,55.0,0,60,1.0,105.0
1498,63.0,0,96,5.0,92.0
1499,41.0,0,60,8.0,105.0
1500,57.0,0,60,6.0,105.0
1501,53.0,0,60,7.0,105.0
1502,53.0,60,60,1.0,105.0
1503,79.0,0,192,4.0,92.0
1504,63.0,0,96,5.0,105.0
1505,70.0,0,312,2.0,92.0
1506,67.0,0,312,3.0,92.0
1507,55.0,0,312,3.0,92.0
1508,58.0,0,312,2.0,92.0
1509,63.0,0,96,5.0,105.0
1510,55.0,60,288,6.0,105.0
1511,51.0,0,288,1.0,105.0
1512,51.0,0,288,7.0,105.0
1513,39.0,0,288,8.0,105.0
1514,63.0,120,96,5.0,105.0
1515,67.0,0,96,5.0,105.0
1516,79.0,120,384,4.0,92.0
1517,51.0,0,156,7.0,105.0
1518,67.0,0,156,3.0,92.0
1519,55.0,120,156,6.0,105.0
1520,55.0,0,156,3.0,92.0
1521,51.0,0,156,1.0,105.0
1522,39.0,0,156,8.0,105.0
1523,67.0,120,96,5.0,105.0
1524,67.0,0,96,5.0,105.0
1525,55.0,0,156,6.0,105.0
1526,51.0,0,156,7.0,105.0
1527,55.0,0,156,3.0,92.0
1528,67.0,120,156,3.0,92.0
1529,51.0,0,156,1.0,105.0
1530,39.0,0,156,8.0,105.0
1531,67.0,120,96,5.0,105.0
1532,70.0,0,96,5.0,105.0
1533,79.0,0,384,4.0,92.0
1534,70.0,120,96,5.0,105.0
1535,55.0,120,312,3.0,92.0
1536,67.0,0,312,3.0,92.0
1537,70.0,120,96,5.0,105.0
1538,51.0,0,384,1.0,105.0
1539,55.0,0,384,6.0,105.0
1540,51.0,0,384,7.0,105.0
1541,39.0,0,384,8.0,105.0
1542,70.0,120,96,5.0,105.0
1543,75.0,120,96,5.0,105.0
1544,79.0,0,384,4.0,92.0
1545,75.0,120,96,5.0,105.0
1546,79.0,0,768,0.0,105.0
1547,70.0,0,768,0.0,105.0
1548,75.0,120,96,5.0,105.0
1549,75.0,120,96,5.0,105.0
1550,43.0,120,60,8.0,105.0
1551,55.0,0,60,1.0,105.0
1552,55.0,0,60,7.0,105.0
1553,58.0,0,60,6.0,105.0
1554,79.0,0,96,5.0,105.0
1555,57.0,0,60,6.0,105.0
1556,41.0,60,60,8.0,105.0
1557,53.0,0,60,7.0,105.0
1558,53.0,0,60,1.0,105.0
1559,79.0,0,432,4.0,92.0
1560,79.0,0,96,5.0,105.0
1561,55.0,0,312,3.0,92.0
1562,67.0,0,312,3.0,92.0
1563,58.0,0,312,2.0,92.0
1564,70.0,0,312,2.0,92.0
1565,79.0,0,96,5.0,105.0
1566,51.0,0,288,7.0,105.0
1567,39.0,0,288,8.0,105.0
1568,55.0,60,288,6.0,105.0
1569,51.0,0,288,1.0,105.0
1570,79.0,120,96,5.0,105.0
1571,75.0,0,96,5.0,105.0
1572,79.0,120,384,4.0,92.0
1573,55.0,0,156,6.0,105.0
1574,55.0,0,156,3.0,92.0
1575,67.0,0,156,3.0,92.0
1576,39.0,0,156,8.0,105.0
1577,51.0,120,156,1.0,105.0
1578,51.0,0,156,7.0,105.0
1579,75.0,120,96,5.0,105.0
1580,75.0,0,96,5.0,105.0
1581,55.0,0,156,3.0,92.0
1582,39.0,120,156,8.0,105.0
1583,55.0,0,156,6.0,105.0
1584,67.0,0,156,3.0,92.0
1585,51.0,0,156,7.0,105.0
1586,51.0,0,156,1.0,105.0
1587,75.0,120,96,5.0,105.0
1588,70.0,0,96,5.0,105.0
1589,79.0,0,384,4.0,92.0
1590,70.0,120,96,5.0,105.0
1591,55.0,0,312,3.0,92.0
1592,67.0,0,312,3.0,92.0
1593,70.0,120,96,5.0,105.0
1594,51.0,0,384,1.0,105.0
1595,39.0,0,384,8.0,105.0
1596,55.0,0,384,6.0,105.0
1597,51.0,0,384,7.0,105.0
1598,70.0,120,96,5.0,105.0
1599,67.0,120,96,5.0,105.0
1600,79.0,0,384,4.0,92.0
1601,67.0,120,96,5.0,105.0
1602,79.0,0,768,0.0,105.0
1603,70.0,120,768,0.0,105.0
1604,67.0,120,96,5.0,105.0
1605,79.0,0,192,4.0,92.0
1606,67.0,120,96,5.0,105.0
1607,48.0,0,60,8.0,105.0
1608,60.0,0,60,7.0,105.0
1609,63.0,0,60,6.0,105.0
1610,60.0,0,60,1.0,105.0
1611,69.0,0,96,4.0,92.0
1612,58.0,0,60,7.0,105.0
1613,46.0,60,60,8.0,105.0
1614,58.0,0,60,1.0,105.0
1615,62.0,0,60,6.0,105.0
1616,60.0,0,192,5.0,105.0
1617,69.0,60,96,4.0,105.0
1618,69.0,120,312,3.0,92.0
1619,72.0,0,312,2.0,92.0
1620,69.0,120,96,4.0,105.0
1621,60.0,0,288,6.0,105.0
1622,45.0,0,288,8.0,105.0
1623,57.0,0,288,7.0,105.0
1624,57.0,0,288,1.0,105.0
1625,69.0,120,96,4.0,105.0
1626,72.0,0,96,4.0,105.0
1627,60.0,0,384,5.0,105.0
1628,57.0,0,156,1.0,105.0
1629,72.0,0,156,2.0,92.0
1630,69.0,120,156,3.0,92.0
1631,60.0,0,156,6.0,105.0
1632,45.0,0,156,8.0,105.0
1633,57.0,0,156,7.0,105.0
1634,72.0,120,96,4.0,105.0
1635,72.0,0,96,4.0,105.0
1636,45.0,0,156,8.0,105.0
1637,57.0,0,156,7.0,105.0
1638,57.0,0,156,1.0,105.0
1639,72.0,0,156,2.0,92.0
1640,60.0,0,156,6.0,105.0
1641,69.0,120,156,3.0,92.0
1642,72.0,120,96,4.0,105.0
1643,75.0,0,96,4.0,105.0
1644,60.0,0,384,5.0,105.0
1645,75.0,120,96,4.0,105.0
1646,72.0,0,312,2.0,92.0
1647,69.0,0,312,3.0,92.0
1648,75.0,120,96,4.0,105.0
1649,60.0,120,384,6.0,105.0
1650,57.0,0,384,7.0,105.0
1651,57.0,0,384,1.0,105.0
1652,45.0,0,384,8.0,105.0
1653,75.0,120,96,4.0,105.0
1654,81.0,120,96,4.0,105.0
1655,60.0,0,384,5.0,105.0
1656,81.0,120,96,4.0,105.0
1657,84.0,0,768,0.0,105.0
1658,75.0,0,768,0.0,105.0
1659,81.0,120,96,4.0,105.0
1660,81.0,120,96,4.0,105.0
1661,60.0,120,60,7.0,105.0
1662,63.0,0,60,6.0,105.0
1663,60.0,0,60,1.0,105.0
1664,48.0,0,60,8.0,105.0
1665,84.0,0,96,4.0,105.0
1666,62.0,0,60,6.0,105.0
1667,58.0,0,60,1.0,105.0
1668,58.0,60,60,7.0,105.0
1669,46.0,0,60,8.0,105.0
1670,60.0,0,432,5.0,105.0
1671,84.0,0,96,4.0,105.0
1672,72.0,0,312,2.0,92.0
1673,69.0,0,312,3.0,92.0
1674,84.0,120,96,4.0,105.0
1675,57.0,0,288,1.0,105.0
1676,57.0,0,288,7.0,105.0
1677,60.0,60,288,6.0,105.0
1678,45.0,0,288,8.0,105.0
1679,84.0,120,96,4.0,105.0
1680,81.0,0,96,4.0,105.0
1681,60.0,0,384,5.0,105.0
1682,45.0,120,156,8.0,105.0
1683,72.0,0,156,2.0,92.0
1684,57.0,0,156,7.0,105.0
1685,60.0,0,156,6.0,105.0
1686,69.0,0,156,3.0,92.0
1687,57.0,0,156,1.0,105.0
1688,81.0,120,96,4.0,105.0
1689,81.0,0,96,4.0,105.0
1690,60.0,120,156,6.0,105.0
1691,57.0,0,156,1.0,105.0
1692,57.0,0,156,7.0,105.0
1693,72.0,0,156,2.0,92.0
1694,69.0,0,156,3.0,92.0
1695,45.0,0,156,8.0,105.0
1696,81.0,120,96,4.0,105.0
1697,75.0,0,96,4.0,105.0
1698,60.0,0,384,5.0,105.0
1699,75.0,120,96,4.0,105.0
1700,72.0,120,312,2.0,92.0
1701,69.0,0,312,3.0,92.0
1702,75.0,120,96,4.0,105.0
1703,60.0,0,384,6.0,105.0
1704,57.0,0,384,1.0,105.0
1705,57.0,0,384,7.0,105.0
1706,45.0,0,384,8.0,105.0
1707,75.0,120,96,4.0,105.0
1708,72.0,120,96,4.0,105.0
1709,60.0,0,384,5.0,105.0
1710,72.0,120,96,4.0,105.0
1711,84.0,0,768,0.0,105.0
1712,75.0,0,768,0.0,105.0
1713,72.0,120,96,4.0,105.0
1714,60.0,0,192,5.0,105.0
1715,72.0,120,96,4.0,105.0
1716,53.0,0,60,1.0,105.0
1717,53.0,0,60,7.0,105.0
1718,57.0,120,60,6.0,105.0
1719,41.0,0,60,8.0,105.0
1720,62.0,0,96,5.0,105.0
1721,51.0,60,60,1.0,105.0
1722,51.0,0,60,7.0,105.0
1723,55.0,0,60,6.0,105.0
1724,39.0,0,60,8.0,105.0
1725,77.0,0,192,4.0,92.0
1726,62.0,0,96,5.0,105.0
1727,69.0,0,312,3.0,92.0
1728,65.0,0,312,2.0,92.0
1729,62.0,0,312,3.0,92.0
1730,74.0,0,312,2.0,92.0
1731,62.0,120,96,5.0,105.0
1732,53.0,0,288,6.0,105.0
1733,38.0,60,288,8.0,105.0
1734,50.0,0,288,1.0,105.0
1735,50.0,0,288,7.0,105.0
1736,62.0,120,96,5.0,105.0
1737,65.0,0,96,5.0,105.0
1738,77.0,0,384,4.0,92.0
1739,50.0,0,156,1.0,105.0
1740,74.0,0,156,2.0,92.0
1741,50.0,0,156,7.0,105.0
1742,65.0,0,156,2.0,92.0
1743,53.0,0,156,6.0,105.0
1744,38.0,120,156,8.0,105.0
1745,69.0,0,156,3.0,92.0
1746,62.0,0,156,3.0,92.0
1747,65.0,120,96,5.0,105.0
1748,65.0,120,96,5.0,105.0
1749,50.0,0,156,1.0,105.0
1750,74.0,0,156,2.0,92.0
1751,50.0,0,156,7.0,105.0
1752,65.0,0,156,2.0,92.0
1753,38.0,0,156,8.0,105.0
1754,62.0,0,156,3.0,92.0
1755,53.0,0,156,6.0,105.0
1756,69.0,0,156,3.0,92.0
1757,65.0,120,96,5.0,105.0
1758,69.0,120,96,5.0,105.0
1759,77.0,0,384,4.0,92.0
1760,69.0,120,96,5.0,105.0
1761,65.0,0,312,2.0,92.0
1762,69.0,0,312,3.0,92.0
1763,62.0,0,312,3.0,92.0
1764,74.0,0,312,2.0,92.0
1765,69.0,120,96,5.0,105.0
1766,38.0,0,384,8.0,105.0
1767,50.0,0,384,7.0,105.0
1768,53.0,0,384,6.0,105.0
1769,50.0,0,384,1.0,105.0
1770,69.0,120,96,5.0,105.0
1771,74.0,120,96,5.0,105.0
1772,77.0,0,384,4.0,92.0
1773,74.0,120,96,5.0,105.0
1774,77.0,0,768,0.0,105.0
1775,69.0,0,768,0.0,105.0
1776,74.0,0,96,5.0,105.0
1777,74.0,120,96,5.0,105.0
1778,57.0,0,60,6.0,105.0
1779,53.0,0,60,7.0,105.0
1780,41.0,120,60,8.0,105.0
1781,53.0,0,60,1.0,105.0
1782,77.0,0,96,5.0,105.0
1783,55.0,0,60,6.0,105.0
1784,39.0,0,60,8.0,105.0
1785,51.0,0,60,1.0,105.0
1786,51.0,60,60,7.0,105.0
1787,77.0,120,432,4.0,92.0
1788,77.0,0,96,5.0,105.0
1789,74.0,0,312,2.0,92.0
1790,65.0,0,312,2.0,92.0
1791,62.0,0,312,3.0,92.0
1792,69.0,0,312,3.0,92.0
1793,77.0,120,96,5.0,105.0
1794,50.0,0,288,7.0,105.0
1795,50.0,0,288,1.0,105.0
1796,38.0,0,288,8.0,105.0
1797,53.0,60,288,6.0,105.0
1798,77.0,120,96,5.0,105.0
1799,74.0,0,96,5.0,105.0
1800,77.0,0,384,4.0,92.0
1801,74.0,0,156,2.0,92.0
1802,50.0,0,156,7.0,105.0
1803,38.0,0,156,8.0,105.0
1804,50.0,0,156,1.0,105.0
1805,53.0,0,156,6.0,105.0
1806,65.0,0,156,2.0,92.0
1807,69.0,0,156,3.0,92.0
1808,62.0,120,156,3.0,92.0
1809,74.0,120,96,5.0,105.0
1810,74.0,0,96,5.0,105.0
1811,65.0,0,156,2.0,92.0
1812,74.0,0,156,2.0,92.0
1813,53.0,0,156,6.0,105.0
1814,38.0,0,156,8.0,105.0
1815,50.0,0,156,1.0,105.0
1816,50.0,0,156,7.0,105.0
1817,62.0,0,156,3.0,92.0
1818,69.0,120,156,3.0,92.0
1819,74.0,120,96,5.0,105.0
1820,69.0,120,96,5.0,105.0
1821,77.0,0,384,4.0,92.0
1822,69.0,120,96,5.0,105.0
1823,65.0,0,312,2.0,92.0
1824,69.0,0,312,3.0,92.0
1825,74.0,0,312,2.0,92.0
1826,62.0,0,312,3.0,92.0
1827,69.0,0,96,5.0,105.0
1828,50.0,0,384,7.0,105.0
1829,38.0,0,384,8.0,105.0
1830,53.0,0,384,6.0,105.0
1831,50.0,0,384,1.0,105.0
1832,69.0,120,96,5.0,105.0
1833,65.0,120,96,5.0,105.0
1834,77.0,120,384,4.0,92.0
1835,65.0,120,96,5.0,105.0
1836,69.0,0,768,0.0,105.0
1837,77.0,0,768,0.0,105.0
1838,65.0,0,96,5.0,105.0
1839,77.0,120,192,4.0,92.0
1840,65.0,120,96,5.0,105.0
1841,62.0,0,60,6.0,105.0
1842,46.0,0,60,8.0,105.0
1843,58.0,0,60,7.0,105.0
1844,58.0,0,60,1.0,105.0
1845,67.0,0,96,4.0,105.0
1846,60.0,60,60,6.0,105.0
1847,57.0,0,60,7.0,105.0
1848,45.0,0,60,8.0,105.0
1849,57.0,0,60,1.0,105.0
1850,58.0,0,192,5.0,105.0
1851,67.0,0,96,4.0,105.0
1852,62.0,120,312,2.0,92.0
1853,55.0,0,312,3.0,92.0
1854,67.0,0,312,3.0,92.0
1855,70.0,0,312,2.0,92.0
1856,67.0,120,96,4.0,105.0
1857,55.0,0,288,1.0,105.0
1858,58.0,0,288,6.0,105.0
1859,55.0,0,288,7.0,105.0
1860,43.0,60,288,8.0,105.0
1861,67.0,120,96,4.0,105.0
1862,70.0,0,96,4.0,105.0
1863,58.0,0,384,5.0,105.0
1864,43.0,0,156,8.0,105.0
1865,58.0,0,156,6.0,105.0
1866,67.0,0,156,3.0,92.0
1867,55.0,0,156,1.0,105.0
1868,62.0,0,156,2.0,92.0
1869,70.0,0,156,2.0,92.0
1870,55.0,120,156,7.0,105.0
1871,55.0,0,156,3.0,92.0
1872,70.0,120,96,4.0,105.0
1873,70.0,0,96,4.0,105.0
1874,55.0,0,156,3.0,92.0
1875,55.0,0,156,1.0,105.0
1876,70.0,0,156,2.0,92.0
1877,55.0,0,156,7.0,105.0
1878,43.0,120,156,8.0,105.0
1879,58.0,0,156,6.0,105.0
1880,62.0,0,156,2.0,92.0
1881,67.0,0,156,3.0,92.0
1882,70.0,120,96,4.0,105.0
1883,74.0,0,96,4.0,105.0
1884,58.0,0,384,5.0,105.0
1885,74.0,120,96,4.0,105.0
1886,67.0,0,312,3.0,92.0
1887,55.0,120,312,3.0,92.0
1888,70.0,0,312,2.0,92.0
1889,62.0,0,312,2.0,92.0
1890,74.0,120,96,4.0,105.0
1891,55.0,0,384,7.0,105.0
1892,43.0,0,384,8.0,105.0
1893,55.0,0,384,1.0,105.0
1894,58.0,0,384,6.0,105.0
1895,74.0,120,96,4.0,105.0
1896,79.0,120,96,4.0,105.0
1897,58.0,0,384,5.0,105.0
1898,79.0,120,96,4.0,105.0
1899,82.0,0,768,0.0,105.0
1900,74.0,0,768,0.0,105.0
1901,79.0,0,96,4.0,105.0
1902,79.0,120,96,4.0,105.0
1903,46.0,0,60,8.0,105.0
1904,58.0,0,60,7.0,105.0
1905,58.0,0,60,1.0,105.0
1906,62.0,120,60,6.0,105.0
1907,82.0,0,96,4.0,105.0
1908,57.0,0,60,1.0,105.0
1909,57.0,0,60,7.0,105.0
1910,60.0,0,60,6.0,105.0
1911,45.0,60,60,8.0,105.0
1912,58.0,120,432,5.0,105.0
1913,82.0,0,96,4.0,105.0
1914,67.0,0,312,3.0,92.0
1915,62.0,0,312,2.0,92.0
1916,70.0,0,312,2.0,92.0
1917,55.0,0,312,3.0,92.0
1918,82.0,120,96,4.0,105.0
1919,55.0,60,288,1.0,105.0
1920,58.0,0,288,6.0,105.0
1921,55.0,0,288,7.0,105.0
1922,43.0,0,288,8.0,105.0
1923,82.0,120,96,4.0,105.0
1924,79.0,0,96,4.0,105.0
1925,58.0,0,384,5.0,105.0
1926,58.0,0,156,6.0,105.0
1927,67.0,0,156,3.0,92.0
1928,55.0,0,156,3.0,92.0
1929,62.0,0,156,2.0,92.0
1930,43.0,120,156,8.0,105.0
1931,55.0,0,156,7.0,105.0
1932,70.0,0,156,2.0,92.0
1933,55.0,0,156,1.0,105.0
1934,79.0,120,96,4.0,105.0
1935,79.0,0,96,4.0,105.0
1936,55.0,0,156,3.0,92.0
1937,67.0,0,156,3.0,92.0
1938,55.0,0,156,1.0,105.0
1939,70.0,0,156,2.0,92.0
1940,62.0,0,156,2.0,92.0
1941,58.0,0,156,6.0,105.0
1942,55.0,0,156,7.0,105.0
1943,43.0,120,156,8.0,105.0
1944,79.0,120,96,4.0,105.0
1945,74.0,120,96,4.0,105.0
1946,58.0,0,384,5.0,105.0
1947,74.0,120,96,4.0,105.0
1948,67.0,0,312,3.0,92.0
1949,55.0,0,312,3.0,92.0
1950,62.0,0,312,2.0,92.0
1951,70.0,0,312,2.0,92.0
1952,74.0,120,96,4.0,105.0
1953,55.0,0,384,7.0,105.0
1954,43.0,0,384,8.0,105.0
1955,58.0,0,384,6.0,105.0
1956,55.0,0,384,1.0,105.0
1957,74.0,120,96,4.0,105.0
1958,70.0,120,96,4.0,105.0
1959,58.0,0,384,5.0,105.0
1960,70.0,120,96,4.0,105.0
1961,82.0,0,768,0.0,105.0
1962,74.0,0,768,0.0,105.0
1963,70.0,0,96,4.0,105.0
1964,58.0,120,192,5.0,105.0
1965,70.0,120,96,4.0,105.0
1966,67.0,0,60,6.0,105.0
1967,39.0,0,60,8.0,105.0
1968,51.0,120,60,7.0,105.0
1969,51.0,0,60,1.0,105.0
1970,60.0,0,96,5.0,105.0
1971,50.0,60,60,7.0,105.0
1972,50.0,0,60,1.0,105.0
1973,65.0,0,60,6.0,105.0
1974,38.0,0,60,8.0,105.0
1975,75.0,0,192,4.0,105.0
1976,60.0,0,96,5.0,105.0
1977,72.0,0,312,2.0,92.0
1978,67.0,0,312,3.0,92.0
1979,60.0,120,96,5.0,105.0
1980,63.0,0,288,6.0,105.0
1981,48.0,0,288,1.0,105.0
1982,36.0,0,288,8.0,105.0
1983,48.0,60,288,7.0,105.0
1984,60.0,120,96,5.0,105.0
1985,63.0,0,96,5.0,105.0
1986,75.0,0,384,4.0,92.0
1987,72.0,120,156,2.0,92.0
1988,48.0,0,156,1.0,105.0
1989,67.0,0,156,3.0,92.0
1990,48.0,0,156,7.0,105.0
1991,63.0,0,156,6.0,105.0
1992,36.0,0,156,8.0,105.0
1993,63.0,120,96,5.0,105.0
1994,63.0,120,96,5.0,105.0
1995,48.0,0,156,1.0,105.0
1996,36.0,0,156,8.0,105.0
1997,67.0,0,156,3.0,92.0
1998,72.0,0,156,2.0,92.0
1999,48.0,0,156,7.0,105.0
2000,63.0,0,156,6.0,105.0
2001,63.0,120,96,5.0,105.0
2002,67.0,0,96,5.0,105.0
2003,75.0,0,384,4.0,92.0
2004,67.0,120,96,5.0,105.0
2005,67.0,0,312,3.0,92.0
2006,72.0,0,312,2.0,92.0
2007,67.0,0,96,5.0,105.0
2008,48.0,0,384,7.0,105.0
2009,63.0,0,384,6.0,105.0
2010,48.0,0,384,1.0,105.0
2011,36.0,0,384,8.0,105.0
2012,67.0,120,96,5.0,105.0
2013,72.0,120,96,5.0,105.0
2014,75.0,120,384,4.0,92.0
2015,72.0,120,96,5.0,105.0
2016,75.0,0,768,0.0,105.0
2017,67.0,120,768,0.0,105.0
2018,72.0,120,96,5.0,105.0
2019,72.0,120,96,5.0,105.0
2020,51.0,0,60,7.0,105.0
2021,39.0,0,60,8.0,105.0
2022,51.0,0,60,1.0,105.0
2023,67.0,0,60,6.0,105.0
2024,75.0,0,96,5.0,105.0
2025,50.0,0,60,1.0,105.0
2026,65.0,0,60,6.0,105.0
2027,50.0,60,60,7.0,105.0
2028,38.0,0,60,8.0,105.0
2029,75.0,0,432,4.0,92.0
2030,75.0,0,96,5.0,105.0
2031,67.0,120,312,3.0,92.0
2032,72.0,0,312,2.0,92.0
2033,75.0,120,96,5.0,105.0
2034,48.0,60,288,1.0,105.0
2035,36.0,0,288,8.0,105.0
2036,48.0,0,288,7.0,105.0
2037,63.0,0,288,6.0,105.0
2038,75.0,120,96,5.0,105.0
2039,72.0,0,96,5.0,105.0
2040,75.0,0,384,4.0,92.0
2041,36.0,0,156,8.0,105.0
2042,72.0,0,156,2.0,92.0
2043,48.0,0,156,1.0,105.0
2044,67.0,0,156,3.0,92.0
2045,63.0,120,156,6.0,105.0
2046,48.0,0,156,7.0,105.0
2047,72.0,120,96,5.0,105.0
2048,72.0,0,96,5.0,105.0
2049,72.0,120,156,2.0,92.0
2050,48.0,0,156,1.0,105.0
2051,63.0,0,156,6.0,105.0
2052,36.0,0,156,8.0,105.0
2053,67.0,0,156,3.0,92.0
2054,48.0,0,156,7.0,105.0
2055,72.0,120,96,5.0,105.0
2056,67.0,0,96,5.0,105.0
2057,75.0,0,384,4.0,92.0
2058,67.0,120,96,5.0,105.0
2059,67.0,0,312,3.0,92.0
2060,72.0,0,312,2.0,92.0
2061,67.0,120,96,5.0,105.0
2062,63.0,120,384,6.0,105.0
2063,48.0,0,384,1.0,105.0
2064,36.0,0,384,8.0,105.0
2065,48.0,0,384,7.0,105.0
2066,67.0,120,96,5.0,105.0
2067,63.0,120,96,5.0,105.0
2068,75.0,0,384,4.0,92.0
2069,63.0,120,96,5.0,105.0
2070,67.0,0,768,0.0,105.0
2071,75.0,0,768,0.0,105.0
2072,63.0,0,96,5.0,105.0
2073,75.0,120,192,4.0,92.0
2074,63.0,120,96,5.0,105.0
2075,87.0,0,108,5.0,92.0
2076,87.0,120,108,4.0,92.0
2077,87.0,0,108,5.0,92.0
2078,87.0,120,108,4.0,92.0
2079,87.0,120,108,4.0,92.0
2080,87.0,0,108,5.0,92.0
2081,87.0,120,108,5.0,92.0
2082,87.0,0,108,4.0,92.0
2083,84.0,120,108,4.0,92.0
2084,84.0,0,108,5.0,92.0
2085,84.0,120,108,4.0,92.0
2086,84.0,0,108,5.0,92.0
2087,84.0,120,108,4.0,92.0
2088,84.0,0,108,5.0,92.0
2089,84.0,120,108,4.0,92.0
2090,84.0,0,108,5.0,92.0
2091,81.0,120,108,4.0,92.0
2092,81.0,0,108,5.0,92.0
2093,81.0,0,108,5.0,92.0
2094,81.0,120,108,4.0,92.0
2095,81.0,120,108,4.0,92.0
2096,81.0,0,108,5.0,92.0
2097,81.0,0,108,5.0,92.0
2098,81.0,120,108,4.0,92.0
2099,77.0,120,108,4.0,92.0
2100,77.0,0,108,5.0,92.0
2101,77.0,0,108,5.0,92.0
2102,77.0,120,108,4.0,92.0
2103,77.0,0,108,4.0,92.0
2104,77.0,120,108,5.0,92.0
2105,77.0,0,108,4.0,92.0
2106,77.0,120,108,5.0,92.0
2107,75.0,0,96,4.0,92.0
2108,75.0,0,96,5.0,92.0
2109,75.0,0,96,5.0,92.0
2110,75.0,120,96,4.0,92.0
2111,75.0,0,96,5.0,92.0
2112,75.0,120,96,4.0,92.0
2113,75.0,120,384,0.0,105.0
2114,51.0,0,384,8.0,105.0
2115,63.0,0,384,7.0,105.0
2116,63.0,0,384,1.0,105.0
2117,75.0,0,384,6.0,105.0
2118,75.0,0,384,2.0,105.0
2119,75.0,0,96,5.0,92.0
2120,75.0,120,96,4.0,92.0
2121,72.0,0,96,5.0,92.0
2122,72.0,0,96,4.0,92.0
2123,72.0,0,96,4.0,92.0
2124,72.0,120,96,5.0,92.0
2125,72.0,120,96,5.0,92.0
2126,72.0,0,96,4.0,92.0
2127,72.0,120,384,0.0,105.0
2128,60.0,0,384,1.0,105.0
2129,48.0,0,384,8.0,105.0
2130,72.0,0,384,6.0,105.0
2131,60.0,0,384,7.0,105.0
2132,72.0,0,384,2.0,105.0
2133,72.0,0,96,5.0,92.0
2134,72.0,120,96,4.0,92.0
2135,69.0,0,96,4.0,92.0
2136,69.0,0,96,5.0,92.0
2137,69.0,120,96,5.0,92.0
2138,69.0,0,96,4.0,92.0
2139,69.0,120,96,4.0,92.0
2140,69.0,0,96,5.0,92.0
2141,69.0,0,384,6.0,105.0
2142,57.0,0,384,1.0,105.0
2143,57.0,0,384,7.0,105.0
2144,45.0,120,384,8.0,105.0
2145,69.0,0,384,0.0,105.0
2146,69.0,120,96,4.0,92.0
2147,69.0,0,96,5.0,92.0
2148,65.0,0,96,4.0,92.0
2149,65.0,0,96,5.0,92.0
2150,65.0,120,96,4.0,92.0
2151,65.0,0,96,5.0,92.0
2152,65.0,0,768,2.0,105.0
2153,65.0,0,96,4.0,92.0
2154,65.0,120,96,5.0,92.0
2155,65.0,0,384,0.0,105.0
2156,65.0,120,384,6.0,105.0
2157,41.0,0,384,8.0,105.0
2158,53.0,0,384,7.0,105.0
2159,53.0,0,384,1.0,105.0
2160,65.0,120,96,5.0,92.0
2161,65.0,0,96,4.0,92.0
2162,86.0,0,108,4.0,92.0
2163,86.0,120,108,5.0,92.0
2164,86.0,120,108,4.0,92.0
2165,86.0,0,108,5.0,92.0
2166,86.0,120,108,4.0,92.0
2167,86.0,0,108,5.0,92.0
2168,86.0,0,108,4.0,92.0
2169,86.0,120,108,5.0,92.0
2170,82.0,0,108,5.0,92.0
2171,82.0,120,108,4.0,92.0
2172,82.0,0,108,4.0,92.0
2173,82.0,120,108,5.0,92.0
2174,82.0,120,108,4.0,92.0
2175,82.0,0,108,5.0,92.0
2176,82.0,120,108,5.0,92.0
2177,82.0,0,108,4.0,92.0
2178,77.0,120,108,5.0,92.0
2179,77.0,0,108,4.0,92.0
2180,77.0,120,108,4.0,92.0
2181,77.0,0,108,5.0,92.0
2182,77.0,120,108,4.0,92.0
2183,77.0,0,108,5.0,92.0
2184,77.0,120,108,5.0,92.0
2185,77.0,0,108,4.0,92.0
2186,74.0,120,108,5.0,92.0
2187,74.0,0,108,4.0,92.0
2188,74.0,120,108,4.0,92.0
2189,74.0,0,108,5.0,92.0
2190,74.0,120,108,5.0,92.0
2191,74.0,0,108,4.0,92.0
2192,74.0,0,108,4.0,92.0
2193,74.0,120,108,5.0,92.0
2194,70.0,0,96,4.0,92.0
2195,70.0,0,96,5.0,92.0
2196,70.0,0,96,4.0,92.0
2197,70.0,120,96,5.0,92.0
2198,70.0,0,96,4.0,92.0
2199,70.0,120,96,5.0,92.0
2200,58.0,0,384,1.0,105.0
2201,82.0,0,384,0.0,105.0
2202,70.0,0,384,6.0,105.0
2203,58.0,120,384,7.0,105.0
2204,46.0,0,384,8.0,105.0
2205,70.0,0,384,2.0,105.0
2206,70.0,0,96,4.0,92.0
2207,70.0,120,96,5.0,92.0
2208,65.0,0,96,5.0,92.0
2209,65.0,0,96,4.0,92.0
2210,65.0,0,96,5.0,92.0
2211,65.0,120,96,4.0,92.0
2212,65.0,120,96,4.0,92.0
2213,65.0,0,96,5.0,92.0
2214,53.0,0,384,1.0,105.0
2215,53.0,0,384,7.0,105.0
2216,77.0,0,384,0.0,105.0
2217,65.0,0,384,6.0,105.0
2218,41.0,120,384,8.0,105.0
2219,65.0,0,384,2.0,105.0
2220,65.0,120,96,5.0,92.0
2221,65.0,0,96,4.0,92.0
2222,62.0,0,96,4.0,92.0
2223,62.0,0,96,5.0,92.0
2224,62.0,120,96,4.0,92.0
2225,62.0,0,96,5.0,92.0
2226,62.0,120,96,5.0,92.0
2227,62.0,0,96,4.0,92.0
2228,62.0,0,384,2.0,105.0
2229,74.0,120,384,0.0,105.0
2230,38.0,0,384,8.0,105.0
2231,62.0,0,384,6.0,105.0
2232,50.0,0,384,1.0,105.0
2233,50.0,0,384,7.0,105.0
2234,62.0,120,96,4.0,92.0
2235,62.0,0,96,5.0,92.0
2236,58.0,120,96,4.0,92.0
2237,58.0,0,96,5.0,92.0
2238,58.0,120,96,5.0,92.0
2239,58.0,0,96,4.0,92.0
2240,58.0,120,96,5.0,92.0
2241,58.0,0,96,4.0,92.0
2242,46.0,0,384,1.0,105.0
2243,58.0,0,384,2.0,105.0
2244,70.0,0,384,0.0,105.0
2245,58.0,0,384,6.0,105.0
2246,34.0,0,384,8.0,105.0
2247,46.0,0,384,7.0,105.0
2248,58.0,0,96,5.0,92.0
2249,58.0,120,96,4.0,92.0
2250,85.0,0,108,5.0,92.0
2251,85.0,120,108,4.0,92.0
2252,85.0,0,108,5.0,92.0
2253,85.0,120,108,4.0,92.0
2254,85.0,120,108,4.0,92.0
2255,85.0,0,108,5.0,92.0
2256,85.0,0,108,4.0,92.0
2257,85.0,120,108,5.0,92.0
2258,82.0,120,108,5.0,92.0
2259,82.0,0,108,4.0,92.0
2260,82.0,0,108,4.0,92.0
2261,82.0,120,108,5.0,92.0
2262,82.0,120,108,5.0,92.0
2263,82.0,0,108,4.0,92.0
2264,82.0,120,108,4.0,92.0
2265,82.0,0,108,5.0,92.0
2266,77.0,0,108,5.0,92.0
2267,77.0,120,108,4.0,92.0
2268,77.0,120,108,4.0,92.0
2269,77.0,0,108,5.0,92.0
2270,77.0,120,108,5.0,92.0
2271,77.0,0,108,4.0,92.0
2272,77.0,120,108,5.0,92.0
2273,77.0,0,108,4.0,92.0
2274,73.0,0,108,4.0,92.0
2275,73.0,120,108,5.0,92.0
2276,73.0,0,108,5.0,92.0
2277,73.0,120,108,4.0,92.0
2278,73.0,0,108,4.0,92.0
2279,73.0,120,108,5.0,92.0
2280,73.0,0,108,5.0,92.0
2281,73.0,120,108,4.0,92.0
2282,70.0,120,96,5.0,92.0
2283,70.0,0,96,4.0,92.0
2284,70.0,0,96,4.0,92.0
2285,70.0,120,96,5.0,92.0
2286,70.0,120,96,5.0,92.0
2287,70.0,0,96,4.0,92.0
2288,58.0,0,384,7.0,105.0
2289,70.0,0,384,2.0,105.0
2290,70.0,0,384,6.0,105.0
2291,82.0,0,384,0.0,105.0
2292,58.0,0,384,1.0,105.0
2293,46.0,0,384,8.0,105.0
2294,70.0,0,96,4.0,92.0
2295,70.0,120,96,5.0,92.0
2296,65.0,0,96,5.0,92.0
2297,65.0,0,96,4.0,92.0
2298,65.0,0,96,4.0,92.0
2299,65.0,120,96,5.0,92.0
2300,65.0,120,96,4.0,92.0
2301,65.0,0,96,5.0,92.0
2302,53.0,0,384,1.0,105.0
2303,65.0,0,384,2.0,105.0
2304,65.0,0,384,6.0,105.0
2305,41.0,0,384,8.0,105.0
2306,77.0,120,384,0.0,105.0
2307,53.0,0,384,7.0,105.0
2308,65.0,120,96,4.0,92.0
2309,65.0,0,96,5.0,92.0
2310,61.0,0,96,4.0,92.0
2311,61.0,0,96,5.0,92.0
2312,61.0,0,96,5.0,92.0
2313,61.0,120,96,4.0,92.0
2314,61.0,0,96,5.0,92.0
2315,61.0,120,96,4.0,92.0
2316,49.0,0,384,7.0,105.0
2317,73.0,0,384,0.0,105.0
2318,49.0,120,384,1.0,105.0
2319,37.0,0,384,8.0,105.0
2320,61.0,0,384,6.0,105.0
2321,61.0,120,96,5.0,92.0
2322,61.0,0,96,4.0,92.0
2323,58.0,120,96,5.0,92.0
2324,58.0,0,96,4.0,92.0
2325,58.0,0,96,5.0,92.0
2326,58.0,120,96,4.0,92.0
2327,58.0,0,768,2.0,105.0
2328,58.0,0,96,4.0,92.0
2329,58.0,120,96,5.0,92.0
2330,46.0,0,384,1.0,105.0
2331,46.0,0,384,7.0,105.0
2332,70.0,0,384,0.0,105.0
2333,58.0,0,384,6.0,105.0
2334,34.0,0,384,8.0,105.0
2335,58.0,0,96,5.0,92.0
2336,58.0,120,96,4.0,92.0
2337,85.0,0,108,5.0,92.0
2338,85.0,120,108,4.0,92.0
2339,85.0,0,108,5.0,92.0
2340,85.0,120,108,4.0,92.0
2341,85.0,120,108,5.0,92.0
2342,85.0,0,108,4.0,92.0
2343,85.0,120,108,4.0,92.0
2344,85.0,0,108,5.0,92.0
2345,82.0,0,108,5.0,92.0
2346,82.0,120,108,4.0,92.0
2347,82.0,0,108,4.0,92.0
2348,82.0,120,108,5.0,92.0
2349,82.0,120,108,4.0,92.0
2350,82.0,0,108,5.0,92.0
2351,82.0,0,108,5.0,92.0
2352,82.0,120,108,4.0,92.0
2353,79.0,0,108,4.0,92.0
2354,79.0,120,108,5.0,92.0
2355,79.0,0,108,4.0,92.0
2356,79.0,120,108,5.0,92.0
2357,79.0,0,108,4.0,92.0
2358,79.0,120,108,5.0,92.0
2359,79.0,120,108,4.0,92.0
2360,79.0,0,108,5.0,92.0
2361,76.0,0,108,5.0,92.0
2362,76.0,120,108,4.0,92.0
2363,76.0,120,108,4.0,92.0
2364,76.0,0,108,5.0,92.0
2365,76.0,120,108,5.0,92.0
2366,76.0,0,108,4.0,92.0
2367,76.0,120,108,4.0,92.0
2368,76.0,0,108,5.0,92.0
2369,73.0,0,96,5.0,92.0
2370,73.0,0,96,4.0,92.0
2371,73.0,120,96,5.0,92.0
2372,73.0,0,96,4.0,92.0
2373,73.0,0,96,4.0,92.0
2374,73.0,120,96,5.0,92.0
2375,73.0,0,384,6.0,105.0
2376,49.0,0,384,8.0,105.0
2377,73.0,0,384,0.0,105.0
2378,61.0,0,384,1.0,105.0
2379,61.0,0,384,7.0,105.0
2380,73.0,120,96,4.0,92.0
2381,73.0,0,96,5.0,92.0
2382,70.0,0,96,5.0,92.0
2383,70.0,0,96,4.0,92.0
2384,70.0,120,96,5.0,92.0
2385,70.0,0,96,4.0,92.0
2386,70.0,120,96,5.0,92.0
2387,70.0,0,96,4.0,92.0
2388,70.0,0,384,6.0,105.0
2389,46.0,0,384,8.0,105.0
2390,58.0,0,384,1.0,105.0
2391,70.0,120,384,0.0,105.0
2392,58.0,0,384,7.0,105.0
2393,70.0,0,96,5.0,92.0
2394,70.0,120,96,4.0,92.0
2395,67.0,120,96,4.0,92.0
2396,67.0,0,96,5.0,92.0
2397,67.0,120,96,4.0,92.0
2398,67.0,0,96,5.0,92.0
2399,67.0,120,96,4.0,92.0
2400,67.0,0,96,5.0,92.0
2401,55.0,0,384,7.0,105.0
2402,43.0,0,384,8.0,105.0
2403,67.0,0,384,6.0,105.0
2404,55.0,0,384,1.0,105.0
2405,67.0,0,384,0.0,105.0
2406,67.0,120,96,4.0,92.0
2407,67.0,0,96,5.0,92.0
2408,64.0,0,96,5.0,92.0
2409,64.0,0,96,4.0,92.0
2410,64.0,0,96,5.0,92.0
2411,64.0,120,96,4.0,92.0
2412,64.0,0,96,4.0,92.0
2413,64.0,120,96,5.0,92.0
2414,52.0,0,384,7.0,105.0
2415,64.0,0,384,6.0,105.0
2416,40.0,120,384,8.0,105.0
2417,64.0,0,384,0.0,105.0
2418,52.0,0,384,1.0,105.0
2419,64.0,120,96,4.0,92.0
2420,64.0,0,96,5.0,92.0
2421,58.0,120,1920,2.0,105.0
2422,65.0,0,96,5.0,92.0
2423,65.0,0,96,4.0,92.0
2424,65.0,0,96,4.0,92.0
2425,65.0,120,96,5.0,92.0
2426,65.0,120,96,5.0,92.0
2427,65.0,0,96,4.0,92.0
2428,65.0,0,384,2.0,105.0
2429,65.0,0,96,4.0,92.0
2430,65.0,120,96,5.0,92.0
2431,41.0,0,480,8.0,105.0
2432,65.0,0,480,6.0,105.0
2433,65.0,0,480,0.0,105.0
2434,53.0,0,480,7.0,105.0
2435,53.0,120,480,1.0,105.0
2436,66.0,0,96,5.0,92.0
2437,66.0,120,96,4.0,92.0
2438,66.0,120,96,4.0,92.0
2439,66.0,0,96,5.0,92.0
2440,66.0,120,96,5.0,92.0
2441,66.0,0,96,4.0,92.0
2442,66.0,0,96,4.0,92.0
2443,66.0,120,96,5.0,92.0
2444,54.0,0,480,1.0,105.0
2445,54.0,0,480,7.0,105.0
2446,66.0,0,480,6.0,105.0
2447,42.0,0,480,8.0,105.0
2448,66.0,0,480,0.0,105.0
2449,65.0,0,96,4.0,92.0
2450,65.0,120,96,5.0,92.0
2451,65.0,120,96,4.0,92.0
2452,65.0,0,96,5.0,92.0
2453,65.0,120,96,4.0,92.0
2454,65.0,0,96,5.0,92.0
2455,65.0,120,96,5.0,92.0
2456,65.0,0,96,4.0,92.0
2457,65.0,0,480,6.0,105.0
2458,53.0,0,480,7.0,105.0
2459,53.0,0,480,1.0,105.0
2460,41.0,0,480,8.0,105.0
2461,65.0,0,480,0.0,105.0
2462,64.0,0,96,5.0,92.0
2463,64.0,0,96,4.0,92.0
2464,64.0,0,96,5.0,92.0
2465,64.0,120,96,4.0,92.0
2466,64.0,120,96,4.0,92.0
2467,64.0,0,96,5.0,92.0
2468,40.0,0,384,8.0,105.0
2469,52.0,0,384,1.0,105.0
2470,64.0,0,384,6.0,105.0
2471,52.0,120,384,7.0,105.0
2472,64.0,0,384,0.0,105.0
2473,64.0,120,96,4.0,92.0
2474,64.0,0,96,5.0,92.0
2475,65.0,0,288,5.0,92.0
2476,41.0,0,288,8.0,105.0
2477,53.0,0,288,7.0,105.0
2478,65.0,0,288,4.0,105.0
2479,53.0,0,288,1.0,105.0
2480,65.0,0,288,6.0,105.0
2481,65.0,120,288,0.0,105.0
2482,65.0,0,288,2.0,105.0
2483,53.0,0,288,1.0,105.0
2484,77.0,0,288,4.0,105.0
2485,77.0,480,288,5.0,92.0
2486,65.0,0,288,6.0,105.0
2487,53.0,0,288,7.0,105.0
2488,77.0,0,288,0.0,105.0
2489,65.0,0,288,2.0,105.0
2490,41.0,0,288,8.0,105.0
2491,65.0,0,288,5.0,92.0
2492,65.0,0,288,4.0,105.0
2493,65.0,0,288,2.0,105.0
2494,41.0,480,288,1.0,105.0
2495,53.0,0,288,6.0,105.0
2496,41.0,0,288,7.0,105.0
2497,65.0,0,288,0.0,105.0
2498,29.0,0,288,8.0,105.0
2499,72.0,960,120,4.0,80.0
2500,38.0,0,288,8.0,58.0
2501,50.0,0,288,1.0,58.0
2502,50.0,0,288,7.0,58.0
2503,58.0,0,384,5.0,92.0
2504,70.0,120,288,4.0,80.0
2505,69.0,0,144,4.0,80.0
2506,46.0,0,288,1.0,58.0
2507,34.0,360,288,8.0,58.0
2508,46.0,0,288,7.0,58.0
2509,70.0,240,144,4.0,80.0
2510,74.0,0,120,4.0,80.0
2511,39.0,0,288,8.0,58.0
2512,51.0,240,288,1.0,58.0
2513,58.0,0,768,5.0,70.0
2514,51.0,0,288,7.0,58.0
2515,72.0,120,288,4.0,80.0
2516,70.0,0,144,4.0,80.0
2517,46.0,0,288,1.0,58.0
2518,46.0,360,288,7.0,58.0
2519,34.0,0,288,8.0,58.0
2520,72.0,240,144,4.0,80.0
2521,75.0,0,120,4.0,80.0
2522,53.0,240,288,7.0,58.0
2523,41.0,0,288,8.0,58.0
2524,53.0,0,288,1.0,58.0
2525,58.0,0,864,5.0,70.0
2526,74.0,120,288,4.0,80.0
2527,72.0,0,144,4.0,80.0
2528,34.0,0,288,8.0,58.0
2529,46.0,360,288,7.0,58.0
2530,46.0,0,288,1.0,58.0
2531,74.0,240,144,4.0,80.0
2532,77.0,0,120,4.0,80.0
2533,55.0,0,288,7.0,58.0
2534,55.0,240,288,1.0,58.0
2535,58.0,0,768,5.0,70.0
2536,43.0,0,288,8.0,58.0
2537,75.0,120,288,4.0,80.0
2538,74.0,360,144,4.0,80.0
2539,39.0,0,288,8.0,58.0
2540,51.0,0,288,1.0,58.0
2541,51.0,0,288,7.0,58.0
2542,72.0,240,144,4.0,80.0
2543,72.0,0,120,4.0,80.0
2544,38.0,0,288,8.0,58.0
2545,50.0,240,288,1.0,58.0
2546,50.0,0,288,7.0,58.0
2547,58.0,0,864,5.0,70.0
2548,70.0,120,288,4.0,80.0
2549,69.0,0,144,4.0,80.0
2550,46.0,0,288,7.0,58.0
2551,34.0,0,288,8.0,58.0
2552,46.0,360,288,1.0,58.0
2553,70.0,240,144,4.0,80.0
2554,74.0,240,120,4.0,80.0
2555,58.0,0,768,5.0,70.0
2556,51.0,0,288,7.0,58.0
2557,51.0,0,288,1.0,58.0
2558,39.0,0,288,8.0,58.0
2559,72.0,120,288,4.0,80.0
2560,70.0,0,144,4.0,80.0
2561,34.0,0,288,8.0,58.0
2562,46.0,360,288,1.0,58.0
2563,46.0,0,288,7.0,58.0
2564,72.0,240,144,4.0,80.0
2565,75.0,240,120,4.0,80.0
2566,41.0,0,288,8.0,58.0
2567,53.0,0,288,1.0,58.0
2568,53.0,0,288,7.0,58.0
2569,58.0,0,864,5.0,70.0
2570,74.0,120,288,4.0,80.0
2571,72.0,0,144,4.0,80.0
2572,46.0,0,288,1.0,58.0
2573,46.0,0,288,7.0,58.0
2574,34.0,0,288,8.0,58.0
2575,74.0,240,144,4.0,80.0
2576,77.0,0,120,4.0,80.0
2577,55.0,240,288,7.0,58.0
2578,58.0,360,768,5.0,70.0
2579,43.0,0,288,8.0,58.0
2580,55.0,0,288,1.0,58.0
2581,75.0,120,288,4.0,80.0
2582,74.0,0,144,4.0,80.0
2583,51.0,0,288,1.0,58.0
2584,39.0,360,288,8.0,58.0
2585,51.0,0,288,7.0,58.0
2586,58.0,0,384,5.0,70.0
2587,72.0,240,144,4.0,80.0
2588,58.0,240,240,5.0,70.0
2589,70.0,0,240,4.0,80.0
2590,38.0,0,288,8.0,58.0
2591,50.0,0,288,1.0,58.0
2592,50.0,0,288,7.0,58.0
2593,62.0,0,288,6.0,58.0
2594,82.0,0,144,4.0,70.0
2595,70.0,240,144,5.0,70.0
2596,70.0,0,144,5.0,70.0
2597,82.0,0,144,4.0,70.0
2598,52.0,0,288,1.0,58.0
2599,40.0,0,288,8.0,58.0
2600,64.0,240,288,6.0,58.0
2601,52.0,0,288,7.0,58.0
2602,70.0,240,144,5.0,70.0
2603,82.0,0,144,4.0,70.0
2604,82.0,0,240,4.0,70.0
2605,70.0,0,240,5.0,70.0
2606,53.0,0,288,1.0,58.0
2607,41.0,240,288,8.0,58.0
2608,53.0,0,288,7.0,58.0
2609,65.0,0,288,6.0,58.0
2610,69.0,0,144,5.0,70.0
2611,81.0,240,144,4.0,70.0
2612,67.0,0,144,5.0,70.0
2613,79.0,0,144,4.0,70.0
2614,62.0,0,288,6.0,58.0
2615,50.0,0,288,7.0,58.0
2616,38.0,240,288,8.0,58.0
2617,50.0,0,288,1.0,58.0
2618,65.0,240,144,5.0,70.0
2619,77.0,0,144,4.0,70.0
2620,63.0,0,240,5.0,70.0
2621,75.0,0,240,4.0,70.0
2622,60.0,240,288,6.0,58.0
2623,48.0,0,288,7.0,58.0
2624,36.0,0,288,8.0,58.0
2625,48.0,0,288,1.0,58.0
2626,79.0,0,144,4.0,70.0
2627,67.0,240,144,5.0,70.0
2628,79.0,0,144,4.0,70.0
2629,67.0,0,144,5.0,70.0
2630,46.0,0,288,7.0,58.0
2631,46.0,0,288,1.0,58.0
2632,58.0,240,288,6.0,58.0
2633,34.0,0,288,8.0,58.0
2634,79.0,0,144,4.0,70.0
2635,67.0,240,144,5.0,70.0
2636,79.0,240,240,4.0,70.0
2637,67.0,0,240,5.0,70.0
2638,45.0,0,288,7.0,58.0
2639,33.0,0,288,8.0,58.0
2640,45.0,0,288,1.0,58.0
2641,57.0,0,288,6.0,58.0
2642,77.0,240,144,4.0,70.0
2643,65.0,0,144,5.0,70.0
2644,63.0,0,144,5.0,70.0
2645,75.0,0,144,4.0,70.0
2646,46.0,0,288,7.0,58.0
2647,46.0,240,288,1.0,58.0
2648,34.0,0,288,8.0,58.0
2649,58.0,0,288,6.0,58.0
2650,62.0,240,144,5.0,70.0
2651,74.0,0,144,4.0,70.0
2652,72.0,0,240,4.0,70.0
2653,60.0,0,240,5.0,70.0
2654,51.0,240,288,1.0,58.0
2655,63.0,0,288,6.0,58.0
2656,51.0,0,288,7.0,58.0
2657,39.0,0,288,8.0,58.0
2658,63.0,240,144,5.0,70.0
2659,75.0,0,144,4.0,70.0
2660,75.0,240,144,4.0,70.0
2661,63.0,0,144,5.0,70.0
2662,57.0,0,288,6.0,58.0
2663,45.0,0,288,8.0,58.0
2664,57.0,0,288,1.0,58.0
2665,57.0,0,288,7.0,58.0
2666,75.0,240,144,4.0,70.0
2667,63.0,0,144,5.0,70.0
2668,63.0,0,240,5.0,70.0
2669,75.0,0,240,4.0,70.0
2670,58.0,0,288,1.0,58.0
2671,58.0,240,288,6.0,58.0
2672,46.0,0,288,8.0,58.0
2673,58.0,0,288,7.0,58.0
2674,62.0,0,144,5.0,70.0
2675,74.0,240,144,4.0,70.0
2676,65.0,240,144,5.0,70.0
2677,77.0,0,144,4.0,70.0
2678,53.0,0,288,1.0,58.0
2679,53.0,0,288,6.0,58.0
2680,41.0,0,288,8.0,58.0
2681,53.0,0,288,7.0,58.0
2682,58.0,0,144,5.0,70.0
2683,70.0,240,144,4.0,70.0
2684,55.0,0,240,6.0,58.0
2685,62.0,0,240,5.0,70.0
2686,74.0,240,240,4.0,70.0
2687,51.0,0,288,7.0,58.0
2688,39.0,0,288,8.0,58.0
2689,51.0,0,288,1.0,58.0
2690,63.0,0,144,6.0,58.0
2691,60.0,0,144,5.0,70.0
2692,72.0,240,144,4.0,70.0
2693,58.0,0,144,5.0,70.0
2694,70.0,0,144,4.0,70.0
2695,62.0,240,144,6.0,58.0
2696,53.0,0,288,1.0,58.0
2697,53.0,0,288,7.0,58.0
2698,41.0,0,288,8.0,58.0
2699,69.0,0,144,4.0,70.0
2700,60.0,0,144,6.0,58.0
2701,57.0,240,144,5.0,70.0
2702,72.0,0,120,0.0,105.0
2703,72.0,0,120,4.0,105.0
2704,60.0,0,120,5.0,105.0
2705,65.0,240,192,6.0,105.0
2706,46.0,0,288,8.0,105.0
2707,58.0,0,288,1.0,58.0
2708,58.0,0,288,7.0,105.0
2709,70.0,120,288,4.0,105.0
2710,70.0,0,288,0.0,105.0
2711,58.0,0,288,5.0,105.0
2712,69.0,0,144,4.0,105.0
2713,57.0,0,144,5.0,105.0
2714,69.0,0,144,0.0,105.0
2715,65.0,120,384,6.0,105.0
2716,53.0,0,288,7.0,105.0
2717,53.0,0,288,1.0,105.0
2718,41.0,240,288,8.0,105.0
2719,70.0,0,144,0.0,105.0
2720,58.0,0,144,5.0,105.0
2721,70.0,240,144,4.0,105.0
2722,62.0,0,120,5.0,105.0
2723,74.0,0,120,0.0,105.0
2724,74.0,0,120,4.0,105.0
2725,65.0,0,432,6.0,105.0
2726,45.0,0,288,8.0,105.0
2727,57.0,240,288,1.0,105.0
2728,57.0,0,288,7.0,105.0
2729,72.0,0,288,0.0,105.0
2730,72.0,0,288,4.0,105.0
2731,60.0,120,288,5.0,105.0
2732,70.0,0,144,4.0,105.0
2733,70.0,0,144,0.0,105.0
2734,65.0,120,384,6.0,105.0
2735,58.0,240,144,5.0,105.0
2736,53.0,0,288,7.0,105.0
2737,53.0,0,288,1.0,105.0
2738,41.0,0,288,8.0,105.0
2739,72.0,240,144,0.0,105.0
2740,60.0,0,144,5.0,105.0
2741,72.0,0,144,4.0,105.0
2742,75.0,0,120,4.0,105.0
2743,63.0,0,120,5.0,105.0
2744,75.0,0,120,0.0,105.0
2745,65.0,0,384,6.0,105.0
2746,46.0,240,288,8.0,105.0
2747,58.0,0,288,7.0,105.0
2748,58.0,0,288,1.0,105.0
2749,62.0,0,288,5.0,105.0
2750,74.0,120,288,4.0,105.0
2751,74.0,0,288,0.0,105.0
2752,60.0,240,144,5.0,105.0
2753,65.0,120,384,6.0,105.0
2754,72.0,0,144,4.0,105.0
2755,72.0,0,144,0.0,105.0
2756,41.0,0,288,8.0,105.0
2757,53.0,0,288,7.0,105.0
2758,53.0,0,288,1.0,105.0
2759,74.0,240,144,0.0,105.0
2760,62.0,0,144,5.0,105.0
2761,74.0,0,144,4.0,105.0
2762,65.0,0,432,6.0,105.0
2763,77.0,0,240,4.0,105.0
2764,65.0,0,240,5.0,105.0
2765,77.0,0,240,0.0,105.0
2766,60.0,0,288,1.0,105.0
2767,60.0,0,288,7.0,105.0
2768,48.0,240,288,8.0,105.0
2769,75.0,240,144,0.0,105.0
2770,75.0,0,144,4.0,105.0
2771,63.0,0,144,5.0,105.0
2772,65.0,0,384,6.0,105.0
2773,74.0,0,144,0.0,105.0
2774,62.0,0,144,5.0,105.0
2775,74.0,0,144,4.0,105.0
2776,53.0,0,288,1.0,105.0
2777,53.0,0,288,7.0,105.0
2778,65.0,0,2688,2.0,105.0
2779,41.0,240,288,8.0,105.0
2780,72.0,240,144,0.0,105.0
2781,72.0,0,144,4.0,105.0
2782,60.0,0,144,5.0,105.0
2783,60.0,240,120,5.0,105.0
2784,72.0,0,120,4.0,105.0
2785,65.0,0,384,6.0,105.0
2786,70.0,0,288,0.0,105.0
2787,62.0,0,288,1.0,105.0
2788,62.0,0,288,7.0,105.0
2789,70.0,0,288,2.0,105.0
2790,62.0,0,288,2.0,105.0
2791,50.0,0,288,8.0,105.0
2792,70.0,120,288,4.0,105.0
2793,58.0,0,288,5.0,105.0
2794,65.0,120,384,6.0,105.0
2795,57.0,0,144,5.0,105.0
2796,69.0,0,144,4.0,105.0
2797,77.0,0,288,0.0,80.0
2798,65.0,0,288,0.0,80.0
2799,53.0,0,288,1.0,105.0
2800,41.0,240,288,8.0,105.0
2801,53.0,0,288,7.0,105.0
2802,70.0,0,144,2.0,105.0
2803,70.0,0,144,4.0,105.0
2804,58.0,0,144,5.0,105.0
2805,62.0,240,144,2.0,105.0
2806,62.0,0,120,5.0,105.0
2807,74.0,0,120,4.0,105.0
2808,65.0,0,432,6.0,105.0
2809,45.0,240,288,8.0,105.0
2810,57.0,0,288,1.0,105.0
2811,65.0,0,288,2.0,105.0
2812,57.0,0,288,7.0,105.0
2813,72.0,0,288,2.0,105.0
2814,60.0,120,288,5.0,105.0
2815,72.0,0,288,4.0,105.0
2816,65.0,120,384,6.0,105.0
2817,58.0,240,144,5.0,105.0
2818,70.0,0,144,4.0,105.0
2819,41.0,0,288,8.0,105.0
2820,53.0,0,288,1.0,105.0
2821,53.0,0,288,7.0,105.0
2822,60.0,0,144,5.0,105.0
2823,72.0,0,144,4.0,105.0
2824,65.0,0,144,2.0,105.0
2825,72.0,0,144,2.0,105.0
2826,75.0,0,120,4.0,105.0
2827,63.0,0,120,5.0,105.0
2828,65.0,240,384,6.0,105.0
2829,58.0,0,288,1.0,105.0
2830,58.0,0,288,7.0,105.0
2831,70.0,240,288,2.0,105.0
2832,46.0,0,288,8.0,105.0
2833,74.0,0,288,2.0,105.0
2834,74.0,120,288,4.0,105.0
2835,62.0,0,288,5.0,105.0
2836,65.0,120,384,6.0,105.0
2837,72.0,0,144,4.0,105.0
2838,60.0,0,144,5.0,105.0
2839,53.0,0,288,7.0,105.0
2840,41.0,0,288,8.0,105.0
2841,53.0,240,288,1.0,105.0
2842,74.0,0,144,2.0,105.0
2843,70.0,240,144,2.0,105.0
2844,74.0,0,144,4.0,105.0
2845,62.0,0,144,5.0,105.0
2846,65.0,0,480,6.0,105.0
2847,65.0,0,240,5.0,105.0
2848,77.0,0,240,4.0,105.0
2849,74.0,0,240,2.0,105.0
2850,77.0,0,240,2.0,105.0
2851,60.0,240,288,1.0,105.0
2852,48.0,0,288,8.0,105.0
2853,60.0,0,288,7.0,105.0
2854,75.0,0,144,2.0,105.0
2855,75.0,0,144,4.0,105.0
2856,72.0,0,144,2.0,105.0
2857,72.0,240,144,6.0,105.0
2858,63.0,0,144,5.0,105.0
2859,74.0,0,144,4.0,105.0
2860,62.0,0,144,5.0,105.0
2861,74.0,240,144,2.0,105.0
2862,70.0,0,144,2.0,105.0
2863,70.0,0,144,6.0,105.0
2864,53.0,0,288,1.0,105.0
2865,41.0,0,288,8.0,105.0
2866,65.0,0,2688,0.0,80.0
2867,77.0,0,2688,0.0,80.0
2868,53.0,0,288,7.0,105.0
2869,72.0,0,144,4.0,105.0
2870,69.0,0,144,6.0,105.0
2871,72.0,240,144,2.0,105.0
2872,60.0,0,144,5.0,105.0
2873,65.0,0,144,2.0,105.0
2874,58.0,0,240,5.0,105.0
2875,70.0,0,240,4.0,105.0
2876,70.0,240,240,0.0,80.0
2877,70.0,0,288,6.0,105.0
2878,50.0,0,288,8.0,105.0
2879,62.0,0,288,7.0,105.0
2880,70.0,0,288,2.0,105.0
2881,62.0,0,288,1.0,105.0
2882,58.0,0,288,2.0,105.0
2883,70.0,0,144,5.0,105.0
2884,82.0,240,144,0.0,105.0
2885,82.0,0,144,4.0,105.0
2886,70.0,240,144,5.0,105.0
2887,82.0,0,144,4.0,105.0
2888,82.0,0,144,0.0,105.0
2889,67.0,0,288,6.0,105.0
2890,64.0,0,288,7.0,105.0
2891,64.0,0,288,1.0,105.0
2892,52.0,0,288,8.0,105.0
2893,70.0,0,144,5.0,105.0
2894,82.0,0,144,4.0,105.0
2895,82.0,240,144,0.0,105.0
2896,82.0,0,240,0.0,105.0
2897,70.0,0,240,5.0,105.0
2898,82.0,0,240,4.0,105.0
2899,53.0,0,288,8.0,105.0
2900,65.0,0,288,7.0,105.0
2901,60.0,240,288,6.0,105.0
2902,65.0,0,288,1.0,105.0
2903,81.0,240,144,0.0,105.0
2904,81.0,0,144,4.0,105.0
2905,69.0,0,144,5.0,105.0
2906,79.0,0,144,4.0,105.0
2907,79.0,0,144,0.0,105.0
2908,67.0,240,144,5.0,105.0
2909,62.0,0,288,1.0,105.0
2910,50.0,0,288,8.0,105.0
2911,62.0,0,288,7.0,105.0
2912,62.0,0,288,6.0,105.0
2913,77.0,0,144,0.0,105.0
2914,77.0,240,144,4.0,105.0
2915,65.0,0,144,5.0,105.0
2916,75.0,0,240,4.0,105.0
2917,63.0,0,240,5.0,105.0
2918,67.0,0,240,6.0,105.0
2919,75.0,0,240,0.0,105.0
2920,60.0,240,288,7.0,105.0
2921,60.0,0,288,1.0,105.0
2922,48.0,0,288,8.0,105.0
2923,79.0,240,144,4.0,105.0
2924,67.0,0,144,5.0,105.0
2925,79.0,0,144,0.0,105.0
2926,63.0,0,144,6.0,105.0
2927,79.0,0,144,0.0,105.0
2928,67.0,240,144,5.0,105.0
2929,79.0,0,144,4.0,105.0
2930,63.0,0,144,6.0,105.0
2931,45.0,0,288,8.0,105.0
2932,57.0,0,288,7.0,105.0
2933,57.0,0,288,1.0,105.0
2934,67.0,0,144,5.0,105.0
2935,63.0,240,144,6.0,105.0
2936,79.0,0,144,0.0,105.0
2937,79.0,0,144,4.0,105.0
2938,79.0,0,240,4.0,105.0
2939,79.0,0,240,0.0,105.0
2940,67.0,240,240,5.0,105.0
2941,63.0,0,240,6.0,105.0
2942,58.0,0,288,7.0,105.0
2943,58.0,0,288,1.0,105.0
2944,46.0,0,288,8.0,105.0
2945,62.0,240,144,6.0,105.0
2946,77.0,0,144,0.0,105.0
2947,65.0,0,144,5.0,105.0
2948,77.0,0,144,4.0,105.0
2949,63.0,240,144,5.0,105.0
2950,75.0,0,144,4.0,105.0
2951,60.0,0,144,6.0,105.0
2952,75.0,0,144,0.0,105.0
2953,34.0,0,288,8.0,105.0
2954,46.0,0,288,1.0,105.0
2955,46.0,0,288,7.0,105.0
2956,58.0,240,144,6.0,105.0
2957,74.0,0,144,0.0,105.0
2958,74.0,0,144,4.0,105.0
2959,62.0,0,144,5.0,105.0
2960,72.0,0,240,0.0,105.0
2961,57.0,0,240,6.0,105.0
2962,72.0,0,240,4.0,105.0
2963,60.0,0,240,5.0,105.0
2964,53.0,240,288,7.0,105.0
2965,41.0,0,288,8.0,105.0
2966,53.0,0,288,1.0,105.0
2967,75.0,240,144,4.0,105.0
2968,60.0,0,144,6.0,105.0
2969,63.0,0,144,5.0,105.0
2970,75.0,0,144,0.0,105.0
2971,63.0,240,144,5.0,105.0
2972,60.0,0,144,6.0,105.0
2973,75.0,0,144,4.0,105.0
2974,75.0,0,144,0.0,105.0
2975,54.0,0,288,7.0,105.0
2976,42.0,0,288,8.0,105.0
2977,54.0,0,288,1.0,105.0
2978,60.0,240,144,6.0,105.0
2979,75.0,0,144,0.0,105.0
2980,63.0,0,144,5.0,105.0
2981,75.0,0,144,4.0,105.0
2982,60.0,0,240,6.0,105.0
2983,63.0,0,240,5.0,105.0
2984,75.0,240,240,0.0,105.0
2985,75.0,0,240,4.0,105.0
2986,74.0,0,144,0.0,105.0
2987,62.0,0,144,5.0,105.0
2988,55.0,0,384,7.0,105.0
2989,74.0,0,144,4.0,105.0
2990,43.0,0,384,8.0,105.0
2991,58.0,240,144,6.0,105.0
2992,55.0,0,384,1.0,105.0
2993,62.0,0,144,6.0,105.0
2994,77.0,0,144,4.0,105.0
2995,77.0,0,144,0.0,105.0
2996,65.0,0,144,5.0,105.0
2997,70.0,0,144,4.0,105.0
2998,70.0,240,144,0.0,105.0
2999,58.0,0,144,5.0,105.0
3000,50.0,240,384,1.0,105.0
3001,65.0,0,144,6.0,105.0
3002,38.0,0,384,8.0,105.0
3003,50.0,0,384,7.0,105.0
3004,65.0,0,240,6.0,105.0
3005,62.0,0,240,5.0,105.0
3006,74.0,0,240,0.0,105.0
3007,74.0,240,240,4.0,105.0
3008,39.0,0,384,8.0,105.0
3009,72.0,0,144,0.0,105.0
3010,60.0,240,144,5.0,105.0
3011,51.0,0,384,7.0,105.0
3012,51.0,0,384,1.0,105.0
3013,63.0,0,144,6.0,105.0
3014,72.0,0,144,4.0,105.0
3015,62.0,0,144,6.0,105.0
3016,58.0,0,144,5.0,105.0
3017,70.0,0,144,4.0,105.0
3018,70.0,240,144,0.0,105.0
3019,60.0,0,144,6.0,105.0
3020,69.0,240,144,0.0,105.0
3021,69.0,0,144,4.0,105.0
3022,53.0,0,384,7.0,105.0
3023,41.0,0,384,8.0,105.0
3024,57.0,0,144,5.0,105.0
3025,53.0,0,384,1.0,105.0
3026,70.0,0,192,4.0,125.0
3027,58.0,0,192,5.0,125.0
3028,60.0,0,96,5.0,105.0
3029,72.0,240,96,4.0,105.0
3030,70.0,0,384,2.0,105.0
3031,46.0,0,384,1.0,105.0
3032,62.0,0,384,2.0,105.0
3033,58.0,0,384,6.0,105.0
3034,34.0,240,384,8.0,105.0
3035,70.0,0,384,0.0,105.0
3036,46.0,0,384,7.0,105.0
3037,74.0,0,96,4.0,105.0
3038,62.0,120,96,5.0,105.0
3039,75.0,0,96,4.0,105.0
3040,63.0,120,96,5.0,105.0
3041,77.0,120,96,4.0,105.0
3042,65.0,0,96,5.0,105.0
3043,67.0,0,96,5.0,105.0
3044,79.0,120,96,4.0,105.0
3045,81.0,120,96,4.0,105.0
3046,69.0,0,96,5.0,105.0
3047,58.0,0,144,1.0,105.0
3048,62.0,0,144,6.0,105.0
3049,70.0,120,384,5.0,105.0
3050,58.0,0,144,7.0,105.0
3051,82.0,0,384,4.0,105.0
3052,46.0,240,144,8.0,105.0
3053,62.0,0,144,7.0,105.0
3054,50.0,0,144,8.0,105.0
3055,62.0,240,144,1.0,105.0
3056,65.0,0,144,6.0,105.0
3057,74.0,0,768,0.0,105.0
3058,70.0,0,768,2.0,105.0
3059,82.0,0,768,0.0,105.0
3060,58.0,0,768,2.0,105.0
3061,58.0,240,144,7.0,105.0
3062,46.0,0,144,8.0,105.0
3063,58.0,0,144,1.0,105.0
3064,62.0,0,144,6.0,105.0
3065,67.0,0,192,4.0,125.0
3066,55.0,0,192,5.0,125.0
3067,69.0,240,96,4.0,105.0
3068,57.0,0,96,5.0,105.0
3069,55.0,240,384,7.0,105.0
3070,79.0,0,384,0.0,105.0
3071,58.0,0,384,2.0,105.0
3072,70.0,0,384,2.0,105.0
3073,43.0,0,384,8.0,105.0
3074,70.0,0,384,0.0,105.0
3075,58.0,0,384,6.0,105.0
3076,55.0,0,384,1.0,105.0
3077,58.0,120,96,5.0,105.0
3078,70.0,0,96,4.0,105.0
3079,60.0,0,96,5.0,105.0
3080,72.0,120,96,4.0,105.0
3081,62.0,120,96,5.0,105.0
3082,74.0,0,96,4.0,105.0
3083,63.0,0,96,5.0,105.0
3084,75.0,120,96,4.0,105.0
3085,77.0,120,96,4.0,105.0
3086,65.0,0,96,5.0,105.0
3087,67.0,240,144,6.0,105.0
3088,39.0,0,144,8.0,105.0
3089,51.0,0,144,1.0,105.0
3090,79.0,0,384,4.0,105.0
3091,51.0,0,144,7.0,105.0
3092,67.0,120,384,5.0,105.0
3093,55.0,240,144,7.0,105.0
3094,70.0,0,144,6.0,105.0
3095,55.0,0,144,1.0,105.0
3096,43.0,0,144,8.0,105.0
3097,70.0,0,768,2.0,105.0
3098,58.0,0,768,2.0,105.0
3099,70.0,0,768,0.0,105.0
3100,79.0,0,768,0.0,105.0
3101,67.0,0,144,6.0,105.0
3102,39.0,240,144,8.0,105.0
3103,51.0,0,144,1.0,105.0
3104,51.0,0,144,7.0,105.0
3105,38.0,0,288,8.0,105.0
3106,65.0,0,288,5.0,105.0
3107,77.0,0,288,4.0,105.0
3108,50.0,0,288,1.0,105.0
3109,58.0,0,288,2.0,105.0
3110,70.0,240,288,0.0,105.0
3111,77.0,0,288,0.0,105.0
3112,70.0,0,288,2.0,105.0
3113,50.0,0,288,7.0,105.0
3114,65.0,0,288,6.0,105.0
3115,67.0,480,288,6.0,105.0
3116,70.0,0,288,2.0,105.0
3117,74.0,0,288,2.0,105.0
3118,74.0,0,288,0.0,105.0
3119,43.0,0,288,8.0,105.0
3120,55.0,0,288,7.0,105.0
3121,74.0,0,288,4.0,105.0
3122,82.0,0,288,0.0,105.0
3123,55.0,0,288,1.0,105.0
3124,70.0,0,288,5.0,105.0
3125,82.0,0,288,4.0,105.0
3126,72.0,0,288,4.0,105.0
3127,72.0,0,288,2.0,105.0
3128,51.0,0,288,7.0,105.0
3129,70.0,0,288,2.0,105.0
3130,39.0,0,288,8.0,105.0
3131,67.0,0,288,5.0,105.0
3132,51.0,0,288,1.0,105.0
3133,67.0,480,288,6.0,105.0
3134,72.0,0,288,0.0,105.0
3135,65.0,0,288,6.0,105.0
3136,72.0,0,288,4.0,105.0
3137,72.0,0,288,2.0,105.0
3138,65.0,0,288,2.0,105.0
3139,81.0,0,288,4.0,105.0
3140,75.0,0,288,0.0,105.0
3141,41.0,480,288,8.0,105.0
3142,53.0,0,288,7.0,105.0
3143,75.0,0,288,5.0,105.0
3144,65.0,0,288,5.0,105.0
3145,53.0,0,288,1.0,105.0
3146,81.0,0,288,0.0,105.0
3147,82.0,480,96,4.0,105.0
3148,74.0,0,192,5.0,105.0
3149,65.0,0,192,5.0,105.0
3150,82.0,120,96,4.0,105.0
3151,82.0,0,96,4.0,105.0
3152,70.0,0,384,2.0,105.0
3153,62.0,0,384,2.0,105.0
3154,82.0,120,96,4.0,105.0
3155,77.0,120,96,4.0,105.0
3156,74.0,0,384,5.0,105.0
3157,65.0,120,384,5.0,105.0
3158,77.0,120,96,4.0,105.0
3159,34.0,0,768,8.0,105.0
3160,46.0,0,768,1.0,105.0
3161,46.0,0,768,7.0,105.0
3162,58.0,0,768,6.0,105.0
3163,77.0,120,96,4.0,105.0
3164,77.0,120,96,4.0,105.0
3165,82.0,0,960,0.0,105.0
3166,74.0,0,960,0.0,105.0
3167,74.0,120,96,4.0,105.0
3168,65.0,0,384,5.0,105.0
3169,74.0,0,384,5.0,105.0
3170,74.0,120,96,4.0,105.0
3171,74.0,0,96,4.0,105.0
3172,74.0,120,96,4.0,105.0
3173,70.0,0,96,4.0,105.0
3174,46.0,0,120,1.0,105.0
3175,46.0,0,120,7.0,105.0
3176,34.0,0,120,8.0,105.0
3177,58.0,120,120,6.0,105.0
3178,65.0,120,384,5.0,105.0
3179,74.0,0,384,5.0,105.0
3180,70.0,120,96,4.0,105.0
3181,48.0,0,120,7.0,105.0
3182,60.0,0,120,6.0,105.0
3183,48.0,0,120,1.0,105.0
3184,36.0,0,120,8.0,105.0
3185,77.0,0,768,0.0,105.0
3186,74.0,0,768,0.0,105.0
3187,70.0,0,96,4.0,105.0
3188,50.0,0,120,1.0,105.0
3189,62.0,0,120,6.0,105.0
3190,50.0,120,120,7.0,105.0
3191,38.0,0,120,8.0,105.0
3192,58.0,0,384,2.0,105.0
3193,51.0,0,96,7.0,105.0
3194,39.0,0,96,8.0,105.0
3195,70.0,0,96,4.0,105.0
3196,51.0,120,96,1.0,105.0
3197,63.0,0,96,6.0,105.0
3198,74.0,0,240,5.0,105.0
3199,69.0,0,96,4.0,105.0
3200,75.0,0,192,5.0,105.0
3201,65.0,0,432,5.0,105.0
3202,69.0,120,96,4.0,105.0
3203,69.0,120,96,4.0,105.0
3204,65.0,0,384,2.0,105.0
3205,69.0,120,96,4.0,105.0
3206,72.0,120,96,4.0,105.0
3207,75.0,0,384,5.0,105.0
3208,65.0,0,384,5.0,105.0
3209,72.0,120,96,4.0,105.0
3210,53.0,120,768,7.0,105.0
3211,65.0,0,768,6.0,105.0
3212,41.0,0,768,8.0,105.0
3213,53.0,0,768,1.0,105.0
3214,72.0,120,96,4.0,105.0
3215,72.0,120,96,4.0,105.0
3216,75.0,0,960,0.0,105.0
3217,72.0,120,0,0.0,105.0
3218,77.0,0,96,4.0,105.0
3219,75.0,0,384,5.0,105.0
3220,65.0,0,384,5.0,105.0
3221,77.0,120,96,4.0,105.0
3222,77.0,120,96,4.0,105.0
3223,77.0,120,96,4.0,105.0
3224,81.0,0,96,4.0,105.0
3225,53.0,0,120,7.0,105.0
3226,41.0,0,120,8.0,105.0
3227,53.0,0,120,1.0,105.0
3228,65.0,0,120,6.0,105.0
3229,65.0,0,384,5.0,105.0
3230,75.0,0,384,5.0,105.0
3231,81.0,0,96,4.0,105.0
3232,39.0,0,120,8.0,105.0
3233,63.0,0,120,6.0,105.0
3234,51.0,0,120,1.0,105.0
3235,51.0,120,120,7.0,105.0
3236,69.0,0,768,0.0,105.0
3237,81.0,120,96,4.0,105.0
3238,62.0,0,120,6.0,105.0
3239,50.0,0,120,7.0,105.0
3240,38.0,0,120,8.0,105.0
3241,50.0,0,120,1.0,105.0
3242,65.0,120,384,2.0,105.0
3243,36.0,0,96,8.0,105.0
3244,48.0,0,96,1.0,105.0
3245,48.0,0,96,7.0,105.0
3246,60.0,120,96,6.0,105.0
3247,81.0,0,96,4.0,105.0
3248,75.0,0,240,5.0,105.0
3249,82.0,120,96,4.0,105.0
3250,65.0,0,432,5.0,105.0
3251,74.0,0,192,5.0,105.0
3252,82.0,120,96,4.0,105.0
3253,82.0,0,96,4.0,105.0
3254,58.0,0,384,2.0,105.0
3255,82.0,120,96,4.0,105.0
3256,77.0,120,96,4.0,105.0
3257,74.0,120,384,5.0,105.0
3258,65.0,0,384,5.0,105.0
3259,77.0,120,96,4.0,105.0
3260,58.0,0,768,6.0,105.0
3261,34.0,0,768,8.0,105.0
3262,46.0,0,768,1.0,105.0
3263,46.0,0,768,7.0,105.0
3264,77.0,0,96,4.0,105.0
3265,77.0,120,96,4.0,105.0
3266,74.0,0,960,0.0,105.0
3267,70.0,0,960,0.0,105.0
3268,74.0,120,96,4.0,105.0
3269,74.0,0,384,5.0,105.0
3270,65.0,120,384,5.0,105.0
3271,74.0,120,96,4.0,105.0
3272,74.0,0,96,4.0,105.0
3273,74.0,120,96,4.0,105.0
3274,70.0,0,96,4.0,105.0
3275,34.0,0,120,8.0,105.0
3276,46.0,120,120,7.0,105.0
3277,58.0,0,120,6.0,105.0
3278,46.0,0,120,1.0,105.0
3279,74.0,0,384,5.0,105.0
3280,65.0,120,384,5.0,105.0
3281,70.0,120,96,4.0,105.0
3282,60.0,0,120,6.0,105.0
3283,48.0,0,120,1.0,105.0
3284,48.0,0,120,7.0,105.0
3285,36.0,0,120,8.0,105.0
3286,74.0,0,768,0.0,105.0
3287,77.0,0,768,0.0,105.0
3288,70.0,0,96,4.0,105.0
3289,62.0,0,120,6.0,105.0
3290,50.0,120,120,7.0,105.0
3291,38.0,0,120,8.0,105.0
3292,50.0,0,120,1.0,105.0
3293,58.0,0,384,2.0,105.0
3294,51.0,0,96,1.0,105.0
3295,70.0,120,96,4.0,105.0
3296,63.0,0,96,6.0,105.0
3297,39.0,0,96,8.0,105.0
3298,51.0,0,96,7.0,105.0
3299,74.0,0,240,5.0,105.0
3300,69.0,0,96,4.0,105.0
3301,75.0,0,192,5.0,105.0
3302,65.0,0,432,5.0,105.0
3303,69.0,120,96,4.0,105.0
3304,69.0,0,96,4.0,105.0
3305,65.0,0,384,2.0,105.0
3306,69.0,120,96,4.0,105.0
3307,72.0,120,96,4.0,105.0
3308,65.0,120,384,5.0,105.0
3309,75.0,0,384,5.0,105.0
3310,72.0,120,96,4.0,105.0
3311,65.0,0,768,6.0,105.0
3312,41.0,120,768,8.0,105.0
3313,53.0,0,768,1.0,105.0
3314,53.0,0,768,7.0,105.0
3315,72.0,0,96,4.0,105.0
3316,72.0,120,96,4.0,105.0
3317,72.0,0,960,0.0,105.0
3318,75.0,0,960,0.0,105.0
3319,77.0,120,96,4.0,105.0
3320,75.0,120,384,5.0,105.0
3321,65.0,0,384,5.0,105.0
3322,77.0,120,96,4.0,105.0
3323,77.0,120,96,4.0,105.0
3324,77.0,120,96,4.0,105.0
3325,81.0,0,96,4.0,105.0
3326,53.0,0,120,7.0,105.0
3327,53.0,0,120,1.0,105.0
3328,41.0,120,120,8.0,105.0
3329,65.0,0,120,6.0,105.0
3330,75.0,0,384,5.0,105.0
3331,65.0,0,384,5.0,105.0
3332,81.0,0,96,4.0,105.0
3333,51.0,0,120,1.0,105.0
3334,63.0,0,120,6.0,105.0
3335,39.0,0,120,8.0,105.0
3336,51.0,120,120,7.0,105.0
3337,69.0,0,768,0.0,105.0
3338,72.0,0,768,0.0,105.0
3339,81.0,120,96,4.0,105.0
3340,50.0,0,120,1.0,105.0
3341,38.0,0,120,8.0,105.0
3342,62.0,0,120,6.0,105.0
3343,50.0,0,120,7.0,105.0
3344,65.0,0,384,2.0,105.0
3345,65.0,0,192,5.0,105.0
3346,75.0,0,192,5.0,105.0
3347,36.0,0,96,8.0,105.0
3348,48.0,0,96,7.0,105.0
3349,48.0,120,96,1.0,105.0
3350,60.0,0,96,6.0,105.0
3351,81.0,0,96,4.0,105.0
3352,82.0,0,96,4.0,105.0
3353,82.0,120,96,4.0,105.0
3354,82.0,120,96,4.0,105.0
3355,34.0,0,384,8.0,105.0
3356,70.0,120,384,0.0,105.0
3357,58.0,0,384,2.0,105.0
3358,65.0,0,384,5.0,105.0
3359,74.0,0,384,5.0,105.0
3360,46.0,0,384,7.0,105.0
3361,58.0,0,384,6.0,105.0
3362,46.0,0,384,1.0,105.0
3363,82.0,120,96,4.0,105.0
3364,70.0,0,96,5.0,92.0
3365,70.0,0,96,4.0,105.0
3366,70.0,0,96,5.0,92.0
3367,70.0,120,96,4.0,105.0
3368,70.0,120,96,4.0,105.0
3369,70.0,0,96,5.0,92.0
3370,70.0,120,96,5.0,92.0
3371,70.0,0,96,4.0,105.0
3372,70.0,0,480,0.0,105.0
3373,46.0,0,480,8.0,105.0
3374,58.0,0,480,7.0,105.0
3375,58.0,120,480,1.0,105.0
3376,58.0,0,480,6.0,105.0
3377,72.0,0,96,4.0,105.0
3378,72.0,0,96,5.0,92.0
3379,72.0,120,96,4.0,105.0
3380,72.0,0,96,5.0,92.0
3381,72.0,120,96,4.0,105.0
3382,72.0,0,96,5.0,92.0
3383,72.0,120,96,4.0,105.0
3384,72.0,0,96,5.0,92.0
3385,60.0,0,480,1.0,105.0
3386,60.0,0,480,7.0,105.0
3387,60.0,120,480,6.0,105.0
3388,72.0,0,480,0.0,105.0
3389,48.0,0,480,8.0,105.0
3390,74.0,0,96,4.0,105.0
3391,74.0,0,96,5.0,92.0
3392,74.0,120,96,4.0,105.0
3393,74.0,0,96,5.0,92.0
3394,74.0,0,96,5.0,92.0
3395,74.0,120,96,4.0,105.0
3396,62.0,0,384,7.0,105.0
3397,62.0,120,384,1.0,105.0
3398,50.0,0,384,8.0,105.0
3399,74.0,0,384,0.0,105.0
3400,62.0,0,384,6.0,105.0
3401,74.0,120,96,4.0,105.0
3402,74.0,0,96,5.0,92.0
3403,75.0,120,96,4.0,105.0
3404,75.0,0,96,5.0,92.0
3405,75.0,0,96,5.0,92.0
3406,75.0,120,96,4.0,105.0
3407,75.0,0,96,5.0,92.0
3408,75.0,120,96,4.0,105.0
3409,75.0,120,96,5.0,92.0
3410,75.0,0,96,4.0,105.0
3411,51.0,0,480,8.0,105.0
3412,63.0,0,480,6.0,105.0
3413,75.0,0,480,0.0,105.0
3414,63.0,0,480,7.0,105.0
3415,63.0,0,480,1.0,105.0
3416,72.0,0,96,5.0,92.0
3417,72.0,0,96,4.0,105.0
3418,72.0,120,96,5.0,92.0
3419,72.0,0,96,4.0,105.0
3420,72.0,0,96,4.0,105.0
3421,72.0,120,96,5.0,92.0
3422,72.0,120,96,5.0,92.0
3423,72.0,0,96,4.0,105.0
3424,60.0,120,480,1.0,105.0
3425,72.0,0,480,0.0,105.0
3426,60.0,0,480,7.0,105.0
3427,60.0,0,480,6.0,105.0
3428,48.0,0,480,8.0,105.0
3429,69.0,0,96,4.0,105.0
3430,69.0,120,96,5.0,92.0
3431,69.0,120,96,4.0,105.0
3432,69.0,0,96,5.0,92.0
3433,69.0,120,96,4.0,105.0
3434,69.0,0,96,5.0,92.0
3435,69.0,120,96,4.0,105.0
3436,69.0,0,96,5.0,92.0
3437,45.0,0,480,8.0,105.0
3438,69.0,0,480,0.0,105.0
3439,57.0,0,480,7.0,105.0
3440,57.0,0,480,6.0,105.0
3441,57.0,0,480,1.0,105.0
3442,78.0,120,96,5.0,92.0
3443,78.0,0,96,4.0,105.0
3444,78.0,120,96,4.0,105.0
3445,78.0,0,96,5.0,92.0
3446,78.0,0,96,5.0,92.0
3447,78.0,120,96,4.0,105.0
3448,78.0,0,384,0.0,105.0
3449,66.0,0,384,6.0,105.0
3450,66.0,0,384,1.0,105.0
3451,66.0,0,384,7.0,105.0
3452,54.0,0,384,8.0,105.0
3453,78.0,120,96,4.0,105.0
3454,78.0,0,96,5.0,92.0
3455,67.0,0,192,6.0,105.0
3456,79.0,0,192,5.0,105.0
3457,79.0,120,192,4.0,105.0
3458,67.0,0,384,7.0,105.0
3459,55.0,0,384,8.0,105.0
3460,67.0,0,384,1.0,105.0
3461,79.0,0,384,5.0,105.0
3462,79.0,240,384,4.0,105.0
3463,67.0,0,384,6.0,105.0
3464,67.0,0,384,7.0,105.0
3465,67.0,0,384,1.0,105.0
3466,55.0,240,384,8.0,105.0
3467,67.0,0,384,6.0,105.0
3468,79.0,0,384,4.0,105.0
3469,79.0,240,384,5.0,105.0
3470,67.0,0,384,1.0,105.0
3471,55.0,240,384,8.0,105.0
3472,67.0,0,384,7.0,105.0
3473,79.0,0,1536,0.0,105.0
3474,67.0,0,384,6.0,105.0
3475,79.0,240,384,4.0,105.0
3476,79.0,0,384,5.0,105.0
3477,55.0,240,384,8.0,105.0
3478,67.0,0,384,1.0,105.0
3479,67.0,0,384,7.0,105.0
3480,79.0,240,192,4.0,105.0
3481,67.0,0,192,6.0,105.0
3482,79.0,0,192,5.0,105.0
3483,62.0,0,192,6.0,105.0
3484,74.0,0,192,5.0,105.0
3485,74.0,0,192,4.0,105.0
3486,62.0,0,384,1.0,105.0
3487,62.0,0,384,7.0,105.0
3488,50.0,240,384,8.0,105.0
3489,74.0,240,384,5.0,105.0
3490,62.0,0,384,6.0,105.0
3491,74.0,0,384,4.0,105.0
3492,62.0,240,384,7.0,105.0
3493,50.0,0,384,8.0,105.0
3494,62.0,0,384,1.0,105.0
3495,74.0,0,384,4.0,105.0
3496,74.0,240,384,5.0,105.0
3497,62.0,0,384,6.0,105.0
3498,62.0,0,384,1.0,105.0
3499,50.0,0,384,8.0,105.0
3500,62.0,240,384,7.0,105.0
3501,74.0,0,1536,0.0,105.0
3502,62.0,0,384,6.0,105.0
3503,74.0,0,384,5.0,105.0
3504,74.0,240,384,4.0,105.0
3505,62.0,0,384,7.0,105.0
3506,62.0,0,384,1.0,105.0
3507,50.0,240,384,8.0,105.0
3508,62.0,0,192,6.0,105.0
3509,74.0,240,192,4.0,105.0
3510,74.0,0,192,5.0,105.0
3511,63.0,0,192,6.0,105.0
3512,75.0,0,192,4.0,105.0
3513,75.0,0,192,5.0,105.0
3514,63.0,0,384,1.0,105.0
3515,63.0,0,384,7.0,105.0
3516,51.0,0,384,8.0,105.0
3517,63.0,240,384,6.0,105.0
3518,75.0,0,384,5.0,105.0
3519,75.0,0,384,4.0,105.0
3520,63.0,0,384,1.0,105.0
3521,51.0,0,384,8.0,105.0
3522,63.0,240,384,7.0,105.0
3523,75.0,0,384,4.0,105.0
3524,63.0,240,384,6.0,105.0
3525,75.0,0,384,5.0,105.0
3526,51.0,0,384,8.0,105.0
3527,63.0,240,384,1.0,105.0
3528,63.0,0,384,7.0,105.0
3529,75.0,240,1536,0.0,105.0
3530,63.0,0,384,6.0,105.0
3531,75.0,0,384,5.0,105.0
3532,75.0,240,384,4.0,105.0
3533,63.0,240,384,7.0,105.0
3534,63.0,0,384,1.0,105.0
3535,51.0,0,384,8.0,105.0
3536,75.0,0,192,5.0,105.0
3537,63.0,0,192,6.0,105.0
3538,75.0,240,192,4.0,105.0
3539,66.0,0,192,5.0,105.0
3540,54.0,0,192,6.0,105.0
3541,66.0,0,192,4.0,105.0
3542,54.0,0,384,7.0,105.0
3543,54.0,0,384,1.0,105.0
3544,42.0,240,384,8.0,105.0
3545,54.0,240,384,6.0,105.0
3546,66.0,0,384,4.0,105.0
3547,66.0,0,384,5.0,105.0
3548,54.0,240,384,1.0,105.0
3549,54.0,0,384,7.0,105.0
3550,42.0,0,384,8.0,105.0
3551,66.0,0,384,4.0,105.0
3552,54.0,0,384,6.0,105.0
3553,66.0,240,384,5.0,105.0
3554,54.0,0,384,7.0,105.0
3555,42.0,0,384,8.0,105.0
3556,54.0,240,384,1.0,105.0
3557,66.0,0,1536,0.0,105.0
3558,66.0,0,384,4.0,105.0
3559,66.0,240,384,5.0,105.0
3560,54.0,0,384,6.0,105.0
3561,42.0,240,384,8.0,105.0
3562,54.0,0,384,1.0,105.0
3563,54.0,0,384,7.0,105.0
3564,66.0,240,192,5.0,105.0
3565,54.0,0,192,6.0,105.0
3566,66.0,0,192,4.0,105.0
3567,67.0,0,156,4.0,105.0
3568,67.0,0,156,5.0,105.0
3569,67.0,0,384,0.0,105.0
3570,55.0,240,384,1.0,105.0
3571,55.0,0,384,7.0,105.0
3572,55.0,0,384,6.0,105.0
3573,43.0,0,384,8.0,105.0
3574,70.0,240,156,5.0,105.0
3575,70.0,0,156,4.0,105.0
3576,74.0,240,156,5.0,105.0
3577,74.0,0,156,4.0,105.0
3578,79.0,240,156,4.0,105.0
3579,79.0,0,156,5.0,105.0
3580,82.0,0,120,5.0,105.0
3581,82.0,0,120,0.0,105.0
3582,70.0,0,120,6.0,105.0
3583,58.0,0,120,7.0,105.0
3584,58.0,0,120,1.0,105.0
3585,82.0,240,120,4.0,105.0
3586,46.0,0,120,8.0,105.0
3587,57.0,0,120,7.0,105.0
3588,45.0,0,120,8.0,105.0
3589,81.0,0,120,5.0,105.0
3590,81.0,0,120,4.0,105.0
3591,81.0,120,120,0.0,105.0
3592,57.0,0,120,1.0,105.0
3593,69.0,0,120,6.0,105.0
3594,55.0,120,120,7.0,105.0
3595,79.0,0,120,4.0,105.0
3596,79.0,0,120,0.0,105.0
3597,79.0,0,120,5.0,105.0
3598,55.0,0,120,1.0,105.0
3599,43.0,0,120,8.0,105.0
3600,67.0,0,120,6.0,105.0
3601,42.0,120,120,8.0,105.0
3602,54.0,0,120,1.0,105.0
3603,78.0,0,120,0.0,105.0
3604,54.0,0,120,7.0,105.0
3605,78.0,0,120,5.0,105.0
3606,78.0,0,120,4.0,105.0
3607,66.0,0,120,6.0,105.0
3608,70.0,0,768,2.0,105.0
3609,62.0,0,768,2.0,105.0
3610,55.0,0,768,3.0,92.0
3611,67.0,0,768,3.0,105.0
3612,67.0,0,384,6.0,105.0
3613,55.0,0,384,7.0,105.0
3614,43.0,120,384,8.0,105.0
3615,79.0,0,384,5.0,105.0
3616,79.0,0,384,4.0,105.0
3617,55.0,0,384,1.0,105.0
3618,79.0,0,384,0.0,105.0
3619,67.0,480,156,5.0,105.0
3620,67.0,0,156,4.0,105.0
3621,70.0,240,156,5.0,105.0
3622,70.0,0,156,4.0,105.0
3623,74.0,0,156,5.0,105.0
3624,74.0,240,156,4.0,105.0
3625,79.0,0,156,4.0,105.0
3626,79.0,240,156,5.0,105.0
3627,82.0,0,120,0.0,105.0
3628,58.0,240,120,1.0,105.0
3629,82.0,0,120,5.0,105.0
3630,58.0,0,120,7.0,105.0
3631,70.0,0,120,6.0,105.0
3632,82.0,0,120,4.0,105.0
3633,46.0,0,120,8.0,105.0
3634,81.0,120,120,4.0,105.0
3635,81.0,0,120,0.0,105.0
3636,81.0,0,120,5.0,105.0
3637,57.0,0,120,7.0,105.0
3638,57.0,0,120,1.0,105.0
3639,69.0,0,120,6.0,105.0
3640,45.0,0,120,8.0,105.0
3641,79.0,0,120,5.0,105.0
3642,43.0,0,120,8.0,105.0
3643,79.0,0,120,0.0,105.0
3644,55.0,120,120,7.0,105.0
3645,55.0,0,120,1.0,105.0
3646,79.0,0,120,4.0,105.0
3647,67.0,0,120,6.0,105.0
3648,78.0,0,120,0.0,105.0
3649,78.0,0,120,4.0,105.0
3650,66.0,0,120,6.0,105.0
3651,42.0,0,120,8.0,105.0
3652,78.0,120,120,5.0,105.0
3653,54.0,0,120,1.0,105.0
3654,54.0,0,120,7.0,105.0
3655,70.0,0,768,2.0,105.0
3656,62.0,0,768,2.0,105.0
3657,55.0,0,768,3.0,105.0
3658,67.0,0,768,3.0,105.0
3659,79.0,0,384,4.0,105.0
3660,55.0,0,384,7.0,105.0
3661,67.0,0,384,6.0,105.0
3662,79.0,120,384,5.0,105.0
3663,79.0,0,384,0.0,105.0
3664,55.0,0,384,1.0,105.0
3665,43.0,0,384,8.0,105.0
3666,69.0,480,156,5.0,105.0
3667,69.0,0,156,4.0,105.0
3668,72.0,240,156,5.0,105.0
3669,72.0,0,156,4.0,105.0
3670,78.0,240,156,5.0,105.0
3671,78.0,0,156,4.0,105.0
3672,81.0,240,156,5.0,105.0
3673,81.0,0,156,4.0,105.0
3674,84.0,0,120,4.0,105.0
3675,72.0,0,120,6.0,105.0
3676,84.0,0,120,5.0,105.0
3677,48.0,240,120,8.0,105.0
3678,60.0,0,120,1.0,105.0
3679,60.0,0,120,7.0,105.0
3680,84.0,0,120,0.0,105.0
3681,70.0,0,120,6.0,105.0
3682,82.0,0,120,5.0,105.0
3683,58.0,0,120,1.0,105.0
3684,82.0,0,120,0.0,105.0
3685,58.0,0,120,7.0,105.0
3686,46.0,0,120,8.0,105.0
3687,82.0,120,120,4.0,105.0
3688,69.0,0,120,6.0,105.0
3689,81.0,0,120,0.0,105.0
3690,81.0,0,120,4.0,105.0
3691,57.0,120,120,7.0,105.0
3692,45.0,0,120,8.0,105.0
3693,81.0,0,120,5.0,105.0
3694,57.0,0,120,1.0,105.0
3695,79.0,0,120,0.0,105.0
3696,67.0,120,120,6.0,105.0
3697,43.0,0,120,8.0,105.0
3698,55.0,0,120,7.0,105.0
3699,55.0,0,120,1.0,105.0
3700,79.0,0,120,4.0,105.0
3701,79.0,0,120,5.0,105.0
3702,62.0,0,768,2.0,105.0
3703,72.0,0,768,2.0,105.0
3704,62.0,0,768,3.0,105.0
3705,69.0,0,768,3.0,105.0
3706,45.0,120,384,8.0,105.0
3707,81.0,0,384,0.0,105.0
3708,69.0,0,384,6.0,105.0
3709,57.0,0,384,7.0,105.0
3710,57.0,0,384,1.0,105.0
3711,81.0,0,384,5.0,105.0
3712,81.0,0,384,4.0,105.0
3713,69.0,0,156,4.0,105.0
3714,69.0,480,156,5.0,105.0
3715,72.0,240,156,4.0,105.0
3716,72.0,0,156,5.0,105.0
3717,78.0,240,156,4.0,105.0
3718,78.0,0,156,5.0,105.0
3719,81.0,0,156,5.0,105.0
3720,81.0,240,156,4.0,105.0
3721,60.0,0,120,1.0,105.0
3722,84.0,0,120,0.0,105.0
3723,84.0,0,120,4.0,105.0
3724,72.0,0,120,6.0,105.0
3725,48.0,240,120,8.0,105.0
3726,84.0,0,120,5.0,105.0
3727,60.0,0,120,7.0,105.0
3728,58.0,0,120,7.0,105.0
3729,70.0,0,120,6.0,105.0
3730,82.0,120,120,5.0,105.0
3731,46.0,0,120,8.0,105.0
3732,58.0,0,120,1.0,105.0
3733,82.0,0,120,4.0,105.0
3734,82.0,0,120,0.0,105.0
3735,81.0,0,120,4.0,105.0
3736,45.0,0,120,8.0,105.0
3737,57.0,120,120,7.0,105.0
3738,81.0,0,120,5.0,105.0
3739,57.0,0,120,1.0,105.0
3740,81.0,0,120,0.0,105.0
3741,69.0,0,120,6.0,105.0
3742,55.0,120,120,1.0,105.0
3743,79.0,0,120,4.0,105.0
3744,43.0,0,120,8.0,105.0
3745,55.0,0,120,7.0,105.0
3746,79.0,0,120,0.0,105.0
3747,67.0,0,120,6.0,105.0
3748,79.0,0,120,5.0,105.0
3749,62.0,0,768,2.0,105.0
3750,72.0,0,768,2.0,105.0
3751,69.0,0,768,3.0,105.0
3752,62.0,0,768,3.0,105.0
3753,81.0,0,384,0.0,105.0
3754,57.0,0,384,1.0,105.0
3755,45.0,120,384,8.0,105.0
3756,81.0,0,384,5.0,105.0
3757,57.0,0,384,7.0,105.0
3758,69.0,0,384,6.0,105.0
3759,81.0,0,384,4.0,105.0
3760,70.0,480,156,5.0,105.0
3761,70.0,0,156,4.0,105.0
3762,74.0,240,156,4.0,105.0
3763,74.0,0,156,5.0,105.0
3764,79.0,240,156,4.0,105.0
3765,79.0,0,156,5.0,105.0
3766,82.0,240,156,4.0,105.0
3767,82.0,0,156,5.0,105.0
3768,50.0,0,120,8.0,105.0
3769,74.0,0,120,6.0,105.0
3770,86.0,0,120,0.0,105.0
3771,62.0,0,120,7.0,105.0
3772,86.0,0,120,4.0,105.0
3773,86.0,0,120,5.0,105.0
3774,62.0,0,120,1.0,105.0
3775,84.0,0,120,0.0,105.0
3776,48.0,120,120,8.0,105.0
3777,84.0,0,120,4.0,105.0
3778,60.0,0,120,7.0,105.0
3779,72.0,0,120,6.0,105.0
3780,60.0,0,120,1.0,105.0
3781,84.0,0,120,5.0,105.0
3782,62.0,0,312,2.0,105.0
3783,62.0,240,312,3.0,105.0
3784,74.0,0,312,2.0,105.0
3785,82.0,0,120,5.0,105.0
3786,46.0,0,120,8.0,105.0
3787,82.0,120,120,0.0,105.0
3788,70.0,0,120,6.0,105.0
3789,58.0,0,120,1.0,105.0
3790,82.0,0,120,4.0,105.0
3791,58.0,0,120,7.0,105.0
3792,57.0,0,120,1.0,105.0
3793,45.0,0,120,8.0,105.0
3794,81.0,0,120,4.0,105.0
3795,57.0,0,120,7.0,105.0
3796,81.0,0,120,0.0,105.0
3797,69.0,0,120,6.0,105.0
3798,81.0,120,120,5.0,105.0
3799,70.0,0,312,2.0,105.0
3800,58.0,120,312,2.0,105.0
3801,82.0,0,384,0.0,105.0
3802,46.0,0,384,8.0,105.0
3803,82.0,0,384,4.0,105.0
3804,82.0,0,384,5.0,105.0
3805,70.0,0,384,6.0,105.0
3806,58.0,0,384,1.0,105.0
3807,58.0,0,384,7.0,105.0
3808,58.0,0,120,1.0,105.0
3809,82.0,0,120,5.0,105.0
3810,46.0,0,120,8.0,105.0
3811,82.0,480,120,0.0,105.0
3812,70.0,0,120,6.0,105.0
3813,82.0,0,120,4.0,105.0
3814,58.0,0,120,7.0,105.0
3815,81.0,0,120,0.0,105.0
3816,81.0,0,120,4.0,105.0
3817,57.0,120,120,1.0,105.0
3818,45.0,0,120,8.0,105.0
3819,81.0,0,120,5.0,105.0
3820,57.0,0,120,7.0,105.0
3821,69.0,0,120,6.0,105.0
3822,58.0,0,312,2.0,105.0
3823,70.0,0,312,2.0,105.0
3824,79.0,0,120,4.0,105.0
3825,79.0,0,120,5.0,105.0
3826,55.0,120,120,1.0,105.0
3827,79.0,0,120,0.0,105.0
3828,55.0,0,120,7.0,105.0
3829,67.0,0,120,6.0,105.0
3830,43.0,0,120,8.0,105.0
3831,78.0,0,120,5.0,105.0
3832,54.0,0,120,7.0,105.0
3833,66.0,0,120,6.0,105.0
3834,54.0,0,120,1.0,105.0
3835,78.0,120,120,4.0,105.0
3836,42.0,0,120,8.0,105.0
3837,78.0,0,120,0.0,105.0
3838,55.0,0,312,3.0,105.0
3839,67.0,0,312,3.0,105.0
3840,43.0,0,384,8.0,105.0
3841,79.0,0,384,4.0,105.0
3842,79.0,0,384,5.0,105.0
3843,79.0,120,384,0.0,105.0
3844,55.0,0,384,1.0,105.0
3845,67.0,0,384,6.0,105.0
3846,55.0,0,384,7.0,105.0
3847,79.0,0,120,5.0,105.0
3848,55.0,0,120,7.0,105.0
3849,79.0,0,120,4.0,105.0
3850,79.0,480,120,0.0,105.0
3851,67.0,0,120,6.0,105.0
3852,43.0,0,120,8.0,105.0
3853,55.0,0,120,1.0,105.0
3854,41.0,0,120,8.0,105.0
3855,77.0,0,120,4.0,105.0
3856,65.0,0,120,6.0,105.0
3857,77.0,0,120,0.0,105.0
3858,53.0,120,120,7.0,105.0
3859,53.0,0,120,1.0,105.0
3860,77.0,0,120,5.0,105.0
3861,55.0,0,312,3.0,105.0
3862,67.0,0,312,3.0,105.0
3863,39.0,0,120,8.0,105.0
3864,51.0,0,120,7.0,105.0
3865,75.0,0,120,0.0,105.0
3866,63.0,0,120,6.0,105.0
3867,51.0,120,120,1.0,105.0
3868,75.0,0,120,5.0,105.0
3869,75.0,0,120,4.0,105.0
3870,50.0,0,96,7.0,105.0
3871,74.0,0,96,5.0,105.0
3872,50.0,0,96,1.0,105.0
3873,62.0,0,96,6.0,105.0
3874,38.0,0,96,8.0,105.0
3875,74.0,120,96,0.0,105.0
3876,74.0,0,96,4.0,105.0
3877,51.0,0,120,7.0,105.0
3878,75.0,0,120,5.0,105.0
3879,75.0,0,120,0.0,105.0
3880,51.0,120,120,1.0,105.0
3881,63.0,0,120,6.0,105.0
3882,75.0,0,120,4.0,105.0
3883,39.0,0,120,8.0,105.0
3884,74.0,120,120,0.0,105.0
3885,50.0,0,120,1.0,105.0
3886,50.0,0,120,7.0,105.0
3887,74.0,0,120,4.0,105.0
3888,38.0,0,120,8.0,105.0
3889,74.0,0,120,5.0,105.0
3890,62.0,0,120,6.0,105.0
3891,36.0,0,120,8.0,105.0
3892,72.0,0,120,0.0,105.0
3893,72.0,0,120,5.0,105.0
3894,60.0,120,120,6.0,105.0
3895,48.0,0,120,1.0,105.0
3896,48.0,0,120,7.0,105.0
3897,72.0,0,120,4.0,105.0
3898,70.0,0,96,5.0,105.0
3899,46.0,0,96,1.0,105.0
3900,34.0,0,96,8.0,105.0
3901,58.0,0,96,6.0,105.0
3902,70.0,0,96,4.0,105.0
3903,70.0,0,96,0.0,105.0
3904,46.0,120,96,7.0,105.0
3905,72.0,0,270,4.0,105.0
3906,72.0,0,270,0.0,105.0
3907,72.0,0,270,5.0,105.0
3908,48.0,0,360,1.0,105.0
3909,72.0,0,360,2.0,105.0
3910,60.0,0,360,6.0,105.0
3911,48.0,120,360,7.0,105.0
3912,36.0,0,360,8.0,105.0
3913,72.0,360,90,5.0,105.0
3914,72.0,0,90,0.0,105.0
3915,72.0,0,90,4.0,105.0
3916,70.0,0,270,5.0,105.0
3917,70.0,0,270,4.0,105.0
3918,70.0,120,270,0.0,105.0
3919,46.0,0,360,1.0,105.0
3920,70.0,0,360,2.0,105.0
3921,58.0,0,360,6.0,105.0
3922,46.0,0,360,7.0,105.0
3923,34.0,0,360,8.0,105.0
3924,70.0,360,90,5.0,105.0
3925,70.0,0,90,4.0,105.0
3926,70.0,0,90,0.0,105.0
3927,69.0,0,270,5.0,105.0
3928,69.0,120,270,0.0,105.0
3929,69.0,0,270,4.0,105.0
3930,45.0,0,360,7.0,105.0
3931,33.0,0,360,8.0,105.0
3932,69.0,0,360,3.0,105.0
3933,57.0,0,360,6.0,105.0
3934,45.0,0,360,1.0,105.0
3935,69.0,360,90,0.0,105.0
3936,69.0,0,90,5.0,105.0
3937,69.0,0,90,4.0,105.0
3938,67.0,0,270,0.0,105.0
3939,67.0,0,270,5.0,105.0
3940,67.0,0,270,4.0,105.0
3941,43.0,0,360,1.0,105.0
3942,31.0,0,360,8.0,105.0
3943,67.0,0,360,3.0,105.0
3944,55.0,120,360,6.0,105.0
3945,43.0,0,360,7.0,105.0
3946,67.0,0,90,4.0,105.0
3947,67.0,360,90,0.0,105.0
3948,67.0,0,90,5.0,105.0
3949,66.0,0,288,0.0,105.0
3950,66.0,0,288,5.0,125.0
3951,66.0,0,288,4.0,125.0
3952,30.0,0,288,8.0,125.0
3953,54.0,0,288,6.0,125.0
3954,42.0,120,288,7.0,125.0
3955,42.0,0,288,1.0,105.0
3956,62.0,0,288,3.0,105.0
3957,62.0,0,288,2.0,105.0
3958,62.0,0,288,3.0,105.0
3959,50.0,480,288,1.0,105.0
3960,74.0,0,288,0.0,105.0
3961,62.0,0,288,6.0,105.0
3962,62.0,0,288,2.0,105.0
3963,38.0,0,288,8.0,105.0
3964,74.0,0,288,5.0,105.0
3965,50.0,0,288,7.0,105.0
3966,74.0,0,288,4.0,105.0
3967,79.0,0,192,4.0,105.0
3968,70.0,0,192,6.0,105.0
3969,79.0,0,192,5.0,105.0
3970,79.0,0,384,4.0,105.0
3971,70.0,240,384,6.0,105.0
3972,79.0,0,384,5.0,105.0
3973,43.0,0,288,7.0,105.0
3974,43.0,0,288,1.0,105.0
3975,31.0,240,288,8.0,105.0
3976,79.0,0,384,4.0,105.0
3977,70.0,240,384,6.0,105.0
3978,79.0,0,384,5.0,105.0
3979,46.0,0,288,7.0,105.0
3980,46.0,0,288,1.0,105.0
3981,34.0,240,288,8.0,105.0
3982,79.0,0,1536,0.0,105.0
3983,79.0,240,384,4.0,105.0
3984,79.0,0,384,5.0,105.0
3985,70.0,0,384,6.0,105.0
3986,38.0,0,288,8.0,105.0
3987,50.0,240,288,1.0,105.0
3988,50.0,0,288,7.0,105.0
3989,79.0,0,192,5.0,105.0
3990,70.0,240,192,6.0,105.0
3991,79.0,0,192,4.0,105.0
3992,74.0,240,192,5.0,105.0
3993,58.0,0,192,6.0,105.0
3994,74.0,0,192,4.0,105.0
3995,74.0,240,384,5.0,105.0
3996,58.0,0,384,6.0,105.0
3997,74.0,0,384,4.0,105.0
3998,55.0,0,288,7.0,105.0
3999,55.0,0,288,1.0,105.0
4000,43.0,240,288,8.0,105.0
4001,58.0,240,384,6.0,105.0
4002,74.0,0,384,5.0,105.0
4003,74.0,0,384,4.0,105.0
4004,58.0,240,288,7.0,105.0
4005,58.0,0,288,1.0,105.0
4006,46.0,0,288,8.0,105.0
4007,70.0,0,3456,2.0,105.0
4008,62.0,1440,3456,2.0,105.0
4009,74.0,0,1536,0.0,105.0
4010,74.0,240,384,5.0,105.0
4011,74.0,0,384,4.0,105.0
4012,58.0,0,384,6.0,105.0
4013,43.0,0,288,8.0,105.0
4014,55.0,240,288,7.0,105.0
4015,55.0,0,288,1.0,105.0
4016,58.0,0,192,6.0,105.0
4017,74.0,0,192,4.0,105.0
4018,74.0,240,192,5.0,105.0
4019,75.0,0,192,4.0,105.0
4020,67.0,240,192,6.0,105.0
4021,75.0,0,192,5.0,105.0
4022,67.0,240,384,6.0,105.0
4023,75.0,0,384,5.0,105.0
4024,75.0,0,384,4.0,105.0
4025,48.0,240,288,1.0,105.0
4026,48.0,0,288,7.0,105.0
4027,36.0,0,288,8.0,105.0
4028,67.0,0,384,6.0,105.0
4029,75.0,240,384,5.0,105.0
4030,75.0,0,384,4.0,105.0
4031,55.0,0,288,1.0,105.0
4032,43.0,0,288,8.0,105.0
4033,55.0,240,288,7.0,105.0
4034,72.0,0,1536,2.0,105.0
4035,75.0,0,1536,0.0,105.0
4036,75.0,0,384,4.0,105.0
4037,67.0,240,384,6.0,105.0
4038,75.0,0,384,5.0,105.0
4039,48.0,0,288,8.0,105.0
4040,60.0,0,288,1.0,105.0
4041,60.0,240,288,7.0,105.0
4042,75.0,0,192,5.0,105.0
4043,67.0,0,192,6.0,105.0
4044,75.0,240,192,4.0,105.0
4045,66.0,0,192,4.0,105.0
4046,62.0,0,192,6.0,105.0
4047,57.0,0,192,6.0,105.0
4048,66.0,240,192,5.0,105.0
4049,66.0,0,384,4.0,105.0
4050,57.0,0,384,6.0,105.0
4051,62.0,0,384,6.0,105.0
4052,66.0,240,384,5.0,105.0
4053,57.0,240,288,1.0,105.0
4054,45.0,0,288,8.0,105.0
4055,57.0,0,288,7.0,105.0
4056,57.0,0,384,6.0,105.0
4057,62.0,240,384,6.0,105.0
4058,66.0,0,384,4.0,105.0
4059,66.0,0,384,5.0,105.0
4060,50.0,240,288,8.0,105.0
4061,62.0,0,288,7.0,105.0
4062,62.0,0,288,1.0,105.0
4063,66.0,0,1536,0.0,105.0
4064,62.0,0,1536,2.0,105.0
4065,74.0,0,1536,2.0,105.0
4066,66.0,0,384,4.0,105.0
4067,57.0,0,384,6.0,105.0
4068,62.0,240,384,6.0,105.0
4069,66.0,0,384,5.0,105.0
4070,48.0,240,288,8.0,105.0
4071,60.0,0,288,1.0,105.0
4072,60.0,0,288,7.0,105.0
4073,66.0,240,192,4.0,105.0
4074,66.0,0,192,5.0,105.0
4075,57.0,0,192,6.0,105.0
4076,62.0,0,192,6.0,105.0
4077,67.0,0,384,4.0,92.0
4078,62.0,0,384,2.0,92.0
4079,67.0,0,384,5.0,92.0
4080,58.0,0,384,6.0,92.0
4081,58.0,0,384,7.0,92.0
4082,58.0,240,384,1.0,92.0
4083,46.0,0,384,8.0,92.0
4084,62.0,0,384,6.0,92.0
4085,67.0,0,480,0.0,80.0
4086,62.0,480,384,4.0,58.0
4087,58.0,0,384,5.0,58.0
4088,58.0,480,384,5.0,58.0
4089,62.0,0,384,4.0,58.0
4090,62.0,0,384,4.0,58.0
4091,58.0,480,384,5.0,58.0
4092,79.0,0,1920,0.0,80.0
4093,43.0,0,384,7.0,58.0
4094,55.0,480,384,6.0,58.0
4095,31.0,0,384,8.0,70.0
4096,58.0,0,384,5.0,58.0
4097,62.0,480,384,4.0,58.0
4098,58.0,0,384,5.0,58.0
4099,62.0,480,384,4.0,58.0
4100,58.0,0,384,5.0,58.0
4101,62.0,480,384,4.0,58.0
4102,74.0,0,1920,0.0,80.0
4103,43.0,0,384,7.0,58.0
4104,31.0,0,384,8.0,70.0
4105,55.0,480,384,6.0,58.0
4106,60.0,480,384,5.0,58.0
4107,63.0,0,384,4.0,58.0
4108,60.0,480,384,5.0,58.0
4109,63.0,0,384,4.0,58.0
4110,60.0,0,384,5.0,58.0
4111,63.0,480,384,4.0,58.0
4112,75.0,0,1920,0.0,80.0
4113,55.0,0,384,6.0,58.0
4114,43.0,0,384,7.0,58.0
4115,31.0,0,384,8.0,70.0
4116,60.0,480,384,4.0,58.0
4117,57.0,0,384,5.0,58.0
4118,60.0,480,384,4.0,58.0
4119,57.0,0,384,5.0,58.0
4120,66.0,480,1824,0.0,80.0
4121,60.0,0,384,4.0,58.0
4122,57.0,480,384,5.0,58.0
4123,55.0,0,7584,3.0,58.0
4124,43.0,0,384,7.0,58.0
4125,31.0,480,384,8.0,70.0
4126,55.0,0,384,6.0,58.0
4127,55.0,480,384,5.0,58.0
4128,58.0,0,384,4.0,58.0
4129,55.0,480,384,5.0,58.0
4130,58.0,0,384,4.0,58.0
4131,55.0,480,384,5.0,58.0
4132,58.0,0,384,4.0,58.0
4133,67.0,0,1920,0.0,80.0
4134,55.0,480,384,6.0,58.0
4135,43.0,0,384,7.0,58.0
4136,31.0,0,384,8.0,70.0
4137,58.0,0,384,5.0,58.0
4138,62.0,480,384,4.0,58.0
4139,58.0,480,384,5.0,58.0
4140,62.0,0,384,4.0,58.0
4141,62.0,480,384,4.0,58.0
4142,58.0,0,384,5.0,58.0
4143,79.0,0,1920,0.0,80.0
4144,27.0,0,384,8.0,70.0
4145,39.0,0,384,7.0,58.0
4146,51.0,0,384,6.0,58.0
4147,61.0,0,384,5.0,58.0
4148,67.0,480,384,4.0,58.0
4149,67.0,480,384,4.0,58.0
4150,61.0,0,384,5.0,58.0
4151,61.0,0,384,5.0,58.0
4152,67.0,480,384,4.0,58.0
4153,82.0,480,1920,0.0,80.0
4154,51.0,0,384,7.0,58.0
4155,63.0,0,384,6.0,58.0
4156,39.0,480,384,8.0,70.0
4157,67.0,480,384,5.0,58.0
4158,70.0,0,384,4.0,58.0
4159,67.0,0,384,5.0,58.0
4160,70.0,480,384,4.0,58.0
4161,55.0,0,384,5.0,58.0
4162,73.0,0,1824,0.0,80.0
4163,55.0,0,7584,3.0,58.0
4164,67.0,480,384,4.0,58.0
4165,50.0,0,384,7.0,58.0
4166,38.0,0,384,8.0,58.0
4167,62.0,0,384,6.0,58.0
4168,57.0,0,720,5.0,58.0
4169,74.0,0,720,0.0,80.0
4170,66.0,0,720,4.0,58.0
4171,58.0,720,240,5.0,58.0
4172,67.0,0,240,4.0,58.0
4173,73.0,0,240,0.0,80.0
4174,57.0,240,240,5.0,58.0
4175,74.0,0,240,0.0,70.0
4176,66.0,0,240,4.0,58.0
4177,58.0,240,240,5.0,58.0
4178,73.0,0,240,0.0,70.0
4179,67.0,0,240,4.0,58.0
4180,57.0,0,240,5.0,58.0
4181,74.0,240,240,0.0,70.0
4182,66.0,0,240,4.0,58.0
4183,58.0,240,192,5.0,58.0
4184,67.0,0,192,4.0,58.0
4185,73.0,0,192,0.0,70.0
4186,62.0,0,384,6.0,58.0
4187,38.0,240,384,8.0,58.0
4188,50.0,0,384,7.0,58.0
4189,74.0,0,720,0.0,70.0
4190,66.0,0,720,4.0,58.0
4191,57.0,0,720,5.0,58.0
4192,67.0,720,240,4.0,58.0
4193,73.0,0,240,0.0,70.0
4194,58.0,0,240,5.0,58.0
4195,66.0,0,240,4.0,58.0
4196,74.0,240,240,0.0,70.0
4197,57.0,0,240,5.0,58.0
4198,67.0,240,240,4.0,58.0
4199,73.0,0,240,0.0,58.0
4200,58.0,0,240,5.0,58.0
4201,74.0,0,240,0.0,58.0
4202,57.0,0,240,5.0,58.0
4203,66.0,240,240,4.0,58.0
4204,58.0,0,192,5.0,58.0
4205,73.0,240,192,0.0,58.0
4206,67.0,0,192,4.0,58.0
4207,57.0,0,384,5.0,58.0
4208,66.0,0,384,4.0,58.0
4209,50.0,480,4224,3.0,58.0
4210,50.0,240,384,7.0,58.0
4211,74.0,0,384,0.0,58.0
4212,38.0,0,384,8.0,58.0
4213,62.0,0,384,6.0,58.0
4214,50.0,0,384,3.0,58.0
4215,57.0,0,384,5.0,58.0
4216,50.0,0,384,7.0,58.0
4217,74.0,0,384,0.0,58.0
4218,62.0,0,384,6.0,58.0
4219,66.0,960,384,4.0,58.0
4220,38.0,0,384,8.0,58.0
4221,50.0,0,384,7.0,58.0
4222,74.0,0,384,0.0,58.0
4223,66.0,0,384,4.0,58.0
4224,38.0,0,384,8.0,58.0
4225,50.0,0,384,3.0,58.0
4226,57.0,0,384,5.0,58.0
4227,62.0,960,384,6.0,58.0
4228,62.0,0,108,6.0,92.0
4229,58.0,0,108,6.0,58.0
4230,65.0,0,108,5.0,92.0
4231,62.0,0,108,5.0,92.0
4232,62.0,0,108,5.0,92.0
4233,62.0,0,108,6.0,92.0
4234,58.0,0,108,6.0,92.0
4235,65.0,120,108,5.0,92.0
4236,62.0,0,108,6.0,92.0
4237,58.0,0,108,6.0,92.0
4238,65.0,120,108,5.0,92.0
4239,62.0,0,108,5.0,92.0
4240,70.0,1920,384,2.0,105.0
4241,62.0,0,384,3.0,105.0
4242,65.0,0,384,2.0,105.0
4243,65.0,0,108,5.0,92.0
4244,58.0,0,108,6.0,92.0
4245,62.0,120,108,6.0,92.0
4246,62.0,0,108,5.0,92.0
4247,58.0,120,108,6.0,92.0
4248,62.0,0,108,6.0,92.0
4249,65.0,0,108,5.0,92.0
4250,62.0,0,108,5.0,92.0
4251,62.0,120,108,6.0,92.0
4252,58.0,0,108,6.0,92.0
4253,65.0,0,108,5.0,92.0
4254,62.0,0,108,5.0,92.0
4255,46.0,0,768,7.0,105.0
4256,34.0,0,768,8.0,105.0
4257,46.0,0,768,1.0,105.0
4258,62.0,0,108,5.0,92.0
4259,65.0,0,108,5.0,92.0
4260,58.0,120,108,6.0,92.0
4261,62.0,0,108,6.0,92.0
4262,62.0,0,108,5.0,92.0
4263,62.0,0,108,6.0,92.0
4264,58.0,120,108,6.0,92.0
4265,65.0,0,108,5.0,92.0
4266,58.0,0,108,6.0,92.0
4267,62.0,0,108,6.0,92.0
4268,65.0,120,108,5.0,92.0
4269,62.0,0,108,5.0,92.0
4270,62.0,0,108,6.0,92.0
4271,58.0,0,108,6.0,92.0
4272,65.0,0,108,5.0,92.0
4273,62.0,120,108,5.0,92.0
4274,62.0,0,108,5.0,92.0
4275,58.0,0,108,6.0,92.0
4276,62.0,120,108,6.0,92.0
4277,65.0,0,108,5.0,92.0
4278,62.0,0,108,5.0,92.0
4279,65.0,120,108,5.0,92.0
4280,58.0,0,108,6.0,92.0
4281,62.0,0,108,6.0,92.0
4282,70.0,0,1536,0.0,105.0
4283,58.0,0,108,6.0,92.0
4284,62.0,0,108,5.0,92.0
4285,65.0,0,108,5.0,92.0
4286,62.0,120,108,6.0,92.0
4287,65.0,0,108,5.0,92.0
4288,62.0,0,108,6.0,92.0
4289,58.0,0,108,6.0,92.0
4290,62.0,120,108,5.0,92.0
4291,70.0,0,1728,4.0,116.0
4292,62.0,0,108,6.0,92.0
4293,58.0,0,108,6.0,92.0
4294,65.0,0,108,5.0,92.0
4295,62.0,120,108,5.0,92.0
4296,58.0,120,108,6.0,92.0
4297,62.0,0,108,5.0,92.0
4298,65.0,0,108,5.0,92.0
4299,62.0,0,108,6.0,92.0
4300,65.0,120,108,5.0,92.0
4301,62.0,0,108,5.0,92.0
4302,58.0,0,108,6.0,92.0
4303,62.0,0,108,6.0,92.0
4304,58.0,0,108,6.0,92.0
4305,62.0,120,108,6.0,92.0
4306,65.0,0,108,5.0,92.0
4307,62.0,0,108,5.0,92.0
4308,62.0,0,108,6.0,92.0
4309,58.0,120,108,6.0,92.0
4310,62.0,0,108,5.0,92.0
4311,65.0,0,108,5.0,92.0
4312,65.0,0,108,5.0,92.0
4313,62.0,120,108,5.0,92.0
4314,62.0,0,108,6.0,92.0
4315,58.0,0,108,6.0,92.0
4316,62.0,0,108,5.0,92.0
4317,65.0,120,108,5.0,92.0
4318,62.0,0,108,6.0,92.0
4319,58.0,0,108,6.0,92.0
4320,58.0,0,108,6.0,92.0
4321,62.0,0,108,6.0,92.0
4322,62.0,120,108,5.0,92.0
4323,65.0,0,108,5.0,92.0
4324,62.0,0,108,6.0,92.0
4325,62.0,0,108,5.0,92.0
4326,65.0,120,108,5.0,92.0
4327,58.0,0,108,6.0,92.0
4328,65.0,0,108,5.0,92.0
4329,58.0,120,108,6.0,92.0
4330,62.0,0,108,5.0,92.0
4331,62.0,0,108,6.0,92.0
4332,62.0,0,108,5.0,92.0
4333,65.0,120,108,5.0,92.0
4334,58.0,0,108,6.0,92.0
4335,62.0,0,108,6.0,92.0
4336,65.0,0,108,5.0,92.0
4337,58.0,0,108,6.0,92.0
4338,62.0,0,108,6.0,92.0
4339,62.0,120,108,5.0,92.0
4340,62.0,0,108,6.0,92.0
4341,58.0,0,108,6.0,92.0
4342,65.0,0,108,5.0,92.0
4343,62.0,120,108,5.0,92.0
4344,58.0,0,108,6.0,92.0
4345,62.0,120,108,6.0,92.0
4346,65.0,0,108,5.0,92.0
4347,62.0,0,108,5.0,92.0
4348,82.0,0,1536,0.0,105.0
4349,62.0,0,108,6.0,92.0
4350,58.0,120,108,6.0,92.0
4351,65.0,0,108,5.0,92.0
4352,62.0,0,108,5.0,92.0
4353,62.0,0,108,5.0,92.0
4354,65.0,0,108,5.0,92.0
4355,58.0,0,108,6.0,92.0
4356,62.0,120,108,6.0,92.0
4357,82.0,0,1728,4.0,116.0
4358,65.0,120,108,5.0,92.0
4359,62.0,0,108,6.0,92.0
4360,58.0,0,108,6.0,92.0
4361,62.0,0,108,5.0,92.0
4362,62.0,0,108,6.0,92.0
4363,65.0,120,108,5.0,92.0
4364,58.0,0,108,6.0,92.0
4365,62.0,0,108,5.0,92.0
4366,81.0,0,60,4.0,116.0
4367,60.0,0,108,6.0,92.0
4368,57.0,0,108,5.0,92.0
4369,65.0,120,108,5.0,92.0
4370,63.0,0,108,6.0,92.0
4371,79.0,60,60,4.0,116.0
4372,57.0,60,108,5.0,92.0
4373,65.0,0,108,5.0,92.0
4374,63.0,0,108,6.0,92.0
4375,60.0,0,108,6.0,92.0
4376,57.0,0,108,5.0,92.0
4377,65.0,0,108,5.0,92.0
4378,63.0,120,108,6.0,92.0
4379,60.0,0,108,6.0,92.0
4380,81.0,0,384,0.0,105.0
4381,77.0,0,288,4.0,116.0
4382,63.0,120,108,6.0,92.0
4383,60.0,0,108,6.0,92.0
4384,65.0,0,108,5.0,92.0
4385,57.0,0,108,5.0,92.0
4386,65.0,0,108,5.0,92.0
4387,57.0,120,108,5.0,92.0
4388,63.0,0,108,6.0,92.0
4389,60.0,0,108,6.0,92.0
4390,77.0,0,156,4.0,116.0
4391,60.0,0,108,6.0,92.0
4392,63.0,0,108,6.0,92.0
4393,65.0,120,108,5.0,92.0
4394,57.0,0,108,5.0,92.0
4395,57.0,0,108,5.0,92.0
4396,63.0,120,108,6.0,92.0
4397,60.0,0,108,6.0,92.0
4398,65.0,0,108,5.0,92.0
4399,77.0,0,156,4.0,116.0
4400,63.0,0,108,6.0,92.0
4401,60.0,0,108,6.0,92.0
4402,57.0,120,108,5.0,92.0
4403,65.0,0,108,5.0,92.0
4404,63.0,0,108,6.0,92.0
4405,60.0,0,108,6.0,92.0
4406,65.0,0,108,5.0,92.0
4407,57.0,120,108,5.0,92.0
4408,60.0,0,108,6.0,92.0
4409,63.0,0,108,6.0,92.0
4410,65.0,0,108,5.0,92.0
4411,57.0,120,108,5.0,92.0
4412,57.0,0,108,5.0,92.0
4413,65.0,0,108,5.0,92.0
4414,60.0,0,108,6.0,92.0
4415,63.0,120,108,6.0,92.0
4416,77.0,0,384,4.0,116.0
4417,63.0,120,108,6.0,92.0
4418,60.0,0,108,6.0,92.0
4419,57.0,0,108,5.0,92.0
4420,65.0,0,108,5.0,92.0
4421,65.0,0,1536,2.0,105.0
4422,53.0,0,1536,7.0,105.0
4423,53.0,0,1536,1.0,105.0
4424,41.0,0,1536,8.0,105.0
4425,63.0,120,108,6.0,92.0
4426,60.0,0,108,6.0,92.0
4427,65.0,0,108,5.0,92.0
4428,57.0,0,108,5.0,92.0
4429,57.0,0,108,5.0,92.0
4430,60.0,0,108,6.0,92.0
4431,63.0,0,108,6.0,92.0
4432,65.0,120,108,5.0,92.0
4433,57.0,120,108,5.0,92.0
4434,63.0,0,108,6.0,92.0
4435,60.0,0,108,6.0,92.0
4436,65.0,0,108,5.0,92.0
4437,65.0,0,108,5.0,92.0
4438,57.0,0,108,5.0,92.0
4439,60.0,0,108,6.0,92.0
4440,63.0,120,108,6.0,92.0
4441,81.0,0,60,4.0,116.0
4442,63.0,0,108,6.0,92.0
4443,57.0,0,108,5.0,92.0
4444,60.0,0,108,6.0,92.0
4445,65.0,0,108,5.0,92.0
4446,79.0,60,60,4.0,116.0
4447,63.0,60,108,6.0,92.0
4448,65.0,0,108,5.0,92.0
4449,57.0,0,108,5.0,92.0
4450,60.0,0,108,6.0,92.0
4451,57.0,0,108,5.0,92.0
4452,63.0,0,108,6.0,92.0
4453,60.0,0,108,6.0,92.0
4454,65.0,120,108,5.0,92.0
4455,77.0,0,288,4.0,116.0
4456,60.0,120,108,6.0,92.0
4457,63.0,0,108,6.0,92.0
4458,65.0,0,108,5.0,92.0
4459,57.0,0,108,5.0,92.0
4460,65.0,120,108,5.0,92.0
4461,57.0,0,108,5.0,92.0
4462,63.0,0,108,6.0,92.0
4463,60.0,0,108,6.0,92.0
4464,77.0,0,156,4.0,116.0
4465,60.0,120,108,6.0,92.0
4466,63.0,0,108,6.0,92.0
4467,57.0,0,108,5.0,92.0
4468,65.0,0,108,5.0,92.0
4469,60.0,120,108,6.0,92.0
4470,57.0,0,108,5.0,92.0
4471,65.0,0,108,5.0,92.0
4472,63.0,0,108,6.0,92.0
4473,77.0,0,156,4.0,116.0
4474,57.0,0,108,5.0,92.0
4475,65.0,120,108,5.0,92.0
4476,63.0,0,108,6.0,92.0
4477,60.0,0,108,6.0,92.0
4478,63.0,0,108,6.0,92.0
4479,60.0,0,108,6.0,92.0
4480,57.0,120,108,5.0,92.0
4481,65.0,0,108,5.0,92.0
4482,57.0,120,108,5.0,92.0
4483,65.0,0,108,5.0,92.0
4484,60.0,0,108,6.0,92.0
4485,63.0,0,108,6.0,92.0
4486,60.0,0,108,6.0,92.0
4487,63.0,0,108,6.0,92.0
4488,57.0,120,108,5.0,92.0
4489,65.0,0,108,5.0,92.0
4490,77.0,0,384,4.0,116.0
4491,65.0,0,108,5.0,92.0
4492,57.0,120,108,5.0,92.0
4493,63.0,0,108,6.0,92.0
4494,60.0,0,108,6.0,92.0
4495,51.0,120,1536,8.0,105.0
4496,75.0,0,1536,2.0,105.0
4497,63.0,0,1536,7.0,105.0
4498,63.0,0,1536,1.0,105.0
4499,65.0,0,108,5.0,92.0
4500,57.0,120,108,5.0,92.0
4501,63.0,0,108,6.0,92.0
4502,60.0,0,108,6.0,92.0
4503,57.0,0,108,5.0,92.0
4504,63.0,0,108,6.0,92.0
4505,60.0,0,108,6.0,92.0
4506,65.0,120,108,5.0,92.0
4507,57.0,0,108,5.0,92.0
4508,65.0,120,108,5.0,92.0
4509,63.0,0,108,6.0,92.0
4510,60.0,0,108,6.0,92.0
4511,65.0,0,108,5.0,92.0
4512,57.0,0,108,5.0,92.0
4513,63.0,0,108,6.0,92.0
4514,60.0,120,108,6.0,92.0
4515,50.0,0,60,8.0,105.0
4516,62.0,120,60,1.0,105.0
4517,62.0,0,60,7.0,105.0
4518,62.0,0,96,5.0,92.0
4519,58.0,0,96,6.0,92.0
4520,62.0,0,96,6.0,92.0
4521,65.0,0,96,5.0,92.0
4522,60.0,0,60,1.0,105.0
4523,48.0,60,60,8.0,105.0
4524,60.0,0,60,7.0,105.0
4525,62.0,0,96,5.0,92.0
4526,65.0,0,96,5.0,92.0
4527,62.0,0,96,6.0,92.0
4528,58.0,60,96,6.0,92.0
4529,62.0,0,312,3.0,105.0
4530,74.0,0,312,2.0,105.0
4531,62.0,120,96,5.0,92.0
4532,58.0,0,96,6.0,92.0
4533,62.0,0,96,6.0,92.0
4534,65.0,0,96,5.0,92.0
4535,58.0,0,288,1.0,105.0
4536,46.0,0,288,8.0,105.0
4537,58.0,0,288,7.0,105.0
4538,62.0,0,96,6.0,92.0
4539,65.0,120,96,5.0,92.0
4540,58.0,0,96,6.0,92.0
4541,62.0,0,96,5.0,92.0
4542,65.0,0,96,5.0,92.0
4543,62.0,0,96,6.0,92.0
4544,58.0,0,96,6.0,92.0
4545,62.0,120,96,5.0,92.0
4546,58.0,0,156,7.0,105.0
4547,70.0,0,156,2.0,105.0
4548,46.0,0,156,8.0,105.0
4549,58.0,0,156,1.0,105.0
4550,62.0,120,96,5.0,92.0
4551,65.0,0,96,5.0,92.0
4552,58.0,0,96,6.0,92.0
4553,62.0,0,96,6.0,92.0
4554,62.0,0,96,6.0,92.0
4555,58.0,0,96,6.0,92.0
4556,65.0,0,96,5.0,92.0
4557,62.0,0,96,5.0,92.0
4558,58.0,0,156,1.0,105.0
4559,46.0,0,156,8.0,105.0
4560,58.0,0,156,7.0,105.0
4561,70.0,120,156,2.0,105.0
4562,62.0,0,96,5.0,92.0
4563,65.0,0,96,5.0,92.0
4564,62.0,0,96,6.0,92.0
4565,58.0,120,96,6.0,92.0
4566,62.0,0,96,5.0,92.0
4567,65.0,0,96,5.0,92.0
4568,58.0,0,96,6.0,92.0
4569,62.0,0,96,6.0,92.0
4570,62.0,0,96,6.0,92.0
4571,58.0,0,96,6.0,92.0
4572,65.0,0,96,5.0,92.0
4573,62.0,120,96,5.0,92.0
4574,70.0,0,312,2.0,105.0
4575,58.0,120,312,2.0,105.0
4576,62.0,0,96,5.0,92.0
4577,62.0,0,96,6.0,92.0
4578,65.0,0,96,5.0,92.0
4579,58.0,120,96,6.0,92.0
4580,58.0,0,384,7.0,105.0
4581,46.0,0,384,8.0,105.0
4582,58.0,0,384,1.0,105.0
4583,62.0,120,96,6.0,92.0
4584,62.0,0,96,5.0,92.0
4585,65.0,0,96,5.0,92.0
4586,58.0,0,96,6.0,92.0
4587,65.0,120,96,5.0,92.0
4588,70.0,0,1536,0.0,105.0
4589,62.0,0,96,6.0,92.0
4590,58.0,0,96,6.0,92.0
4591,62.0,0,96,5.0,92.0
4592,62.0,0,96,6.0,92.0
4593,65.0,0,96,5.0,92.0
4594,58.0,0,96,6.0,92.0
4595,62.0,120,96,5.0,92.0
4596,70.0,0,1728,4.0,116.0
4597,58.0,0,96,6.0,92.0
4598,62.0,120,96,5.0,92.0
4599,65.0,0,96,5.0,92.0
4600,62.0,0,96,6.0,92.0
4601,58.0,120,96,6.0,92.0
4602,62.0,0,96,6.0,92.0
4603,62.0,0,96,5.0,92.0
4604,65.0,0,96,5.0,92.0
4605,50.0,0,60,8.0,105.0
4606,62.0,120,60,7.0,105.0
4607,62.0,0,60,1.0,105.0
4608,62.0,0,96,5.0,92.0
4609,58.0,0,96,6.0,92.0
4610,62.0,0,96,6.0,92.0
4611,65.0,0,96,5.0,92.0
4612,60.0,0,60,1.0,105.0
4613,48.0,60,60,8.0,105.0
4614,60.0,0,60,7.0,105.0
4615,65.0,60,96,5.0,92.0
4616,62.0,0,96,5.0,92.0
4617,62.0,0,96,6.0,92.0
4618,58.0,0,96,6.0,92.0
4619,74.0,0,312,2.0,105.0
4620,62.0,0,312,2.0,105.0
4621,62.0,0,312,3.0,105.0
4622,58.0,0,96,6.0,92.0
4623,65.0,0,96,5.0,92.0
4624,62.0,120,96,6.0,92.0
4625,62.0,0,96,5.0,92.0
4626,46.0,0,288,8.0,105.0
4627,58.0,0,288,1.0,105.0
4628,58.0,0,288,7.0,105.0
4629,62.0,0,96,6.0,92.0
4630,58.0,0,96,6.0,92.0
4631,65.0,120,96,5.0,92.0
4632,62.0,0,96,5.0,92.0
4633,62.0,0,96,5.0,92.0
4634,65.0,120,96,5.0,92.0
4635,58.0,0,96,6.0,92.0
4636,62.0,0,96,6.0,92.0
4637,58.0,0,156,7.0,105.0
4638,58.0,0,156,2.0,105.0
4639,70.0,0,156,2.0,105.0
4640,58.0,0,156,1.0,105.0
4641,46.0,0,156,8.0,105.0
4642,58.0,120,96,6.0,92.0
4643,65.0,0,96,5.0,92.0
4644,62.0,0,96,5.0,92.0
4645,62.0,0,96,6.0,92.0
4646,62.0,0,96,5.0,92.0
4647,65.0,120,96,5.0,92.0
4648,58.0,0,96,6.0,92.0
4649,62.0,0,96,6.0,92.0
4650,46.0,0,156,8.0,105.0
4651,58.0,0,156,7.0,105.0
4652,58.0,0,156,2.0,105.0
4653,58.0,0,156,1.0,105.0
4654,70.0,0,156,2.0,105.0
4655,62.0,0,96,5.0,92.0
4656,65.0,0,96,5.0,92.0
4657,62.0,120,96,6.0,92.0
4658,58.0,0,96,6.0,92.0
4659,65.0,0,96,5.0,92.0
4660,58.0,0,96,6.0,92.0
4661,62.0,0,96,6.0,92.0
4662,62.0,120,96,5.0,92.0
4663,62.0,0,96,6.0,92.0
4664,58.0,120,96,6.0,92.0
4665,62.0,0,96,5.0,92.0
4666,65.0,0,96,5.0,92.0
4667,70.0,0,312,2.0,105.0
4668,58.0,0,312,2.0,105.0
4669,62.0,0,96,6.0,92.0
4670,58.0,0,96,6.0,92.0
4671,65.0,0,96,5.0,92.0
4672,62.0,120,96,5.0,92.0
4673,58.0,0,384,1.0,105.0
4674,46.0,0,384,8.0,105.0
4675,58.0,0,384,7.0,105.0
4676,65.0,0,96,5.0,92.0
4677,58.0,120,96,6.0,92.0
4678,62.0,0,96,6.0,92.0
4679,62.0,0,96,5.0,92.0
4680,62.0,0,96,6.0,92.0
4681,62.0,0,96,5.0,92.0
4682,58.0,120,96,6.0,92.0
4683,82.0,0,1536,0.0,105.0
4684,65.0,0,96,5.0,92.0
4685,58.0,0,96,6.0,92.0
4686,62.0,0,96,5.0,92.0
4687,65.0,0,96,5.0,92.0
4688,62.0,120,96,6.0,92.0
4689,82.0,0,1728,4.0,116.0
4690,62.0,0,96,6.0,92.0
4691,58.0,0,96,6.0,92.0
4692,62.0,0,96,5.0,92.0
4693,65.0,120,96,5.0,92.0
4694,58.0,0,96,6.0,92.0
4695,62.0,120,96,5.0,92.0
4696,62.0,0,96,6.0,92.0
4697,65.0,0,96,5.0,92.0
4698,81.0,0,60,4.0,116.0
4699,65.0,0,96,5.0,92.0
4700,63.0,0,96,6.0,92.0
4701,60.0,0,96,6.0,92.0
4702,57.0,120,96,5.0,92.0
4703,79.0,60,60,4.0,116.0
4704,65.0,0,96,5.0,92.0
4705,57.0,0,96,5.0,92.0
4706,60.0,0,96,6.0,92.0
4707,63.0,0,96,6.0,92.0
4708,65.0,120,96,5.0,92.0
4709,57.0,0,96,5.0,92.0
4710,63.0,0,96,6.0,92.0
4711,60.0,0,96,6.0,92.0
4712,81.0,0,384,0.0,105.0
4713,77.0,60,288,4.0,116.0
4714,65.0,0,96,5.0,92.0
4715,57.0,120,96,5.0,92.0
4716,63.0,0,96,6.0,92.0
4717,60.0,0,96,6.0,92.0
4718,57.0,0,96,5.0,92.0
4719,63.0,120,96,6.0,92.0
4720,65.0,0,96,5.0,92.0
4721,60.0,0,96,6.0,92.0
4722,77.0,0,156,4.0,116.0
4723,63.0,0,96,6.0,92.0
4724,60.0,120,96,6.0,92.0
4725,65.0,0,96,5.0,92.0
4726,57.0,0,96,5.0,92.0
4727,65.0,0,96,5.0,92.0
4728,57.0,0,96,5.0,92.0
4729,60.0,0,96,6.0,92.0
4730,63.0,120,96,6.0,92.0
4731,77.0,0,156,4.0,116.0
4732,57.0,0,96,5.0,92.0
4733,65.0,0,96,5.0,92.0
4734,60.0,0,96,6.0,92.0
4735,63.0,120,96,6.0,92.0
4736,65.0,120,96,5.0,92.0
4737,63.0,0,96,6.0,92.0
4738,60.0,0,96,6.0,92.0
4739,57.0,0,96,5.0,92.0
4740,60.0,120,96,6.0,92.0
4741,63.0,0,96,6.0,92.0
4742,65.0,0,96,5.0,92.0
4743,57.0,0,96,5.0,92.0
4744,60.0,0,96,6.0,92.0
4745,63.0,0,96,6.0,92.0
4746,57.0,120,96,5.0,92.0
4747,65.0,0,96,5.0,92.0
4748,77.0,0,384,4.0,116.0
4749,65.0,0,96,5.0,92.0
4750,60.0,0,96,6.0,92.0
4751,63.0,0,96,6.0,92.0
4752,57.0,120,96,5.0,92.0
4753,57.0,0,96,5.0,92.0
4754,63.0,0,96,6.0,92.0
4755,65.0,0,96,5.0,92.0
4756,53.0,0,1536,7.0,105.0
4757,41.0,0,1536,8.0,105.0
4758,65.0,0,1536,2.0,105.0
4759,53.0,0,1536,1.0,105.0
4760,60.0,120,96,6.0,92.0
4761,63.0,120,96,6.0,92.0
4762,60.0,0,96,6.0,92.0
4763,57.0,0,96,5.0,92.0
4764,65.0,0,96,5.0,92.0
4765,65.0,0,96,5.0,92.0
4766,57.0,0,96,5.0,92.0
4767,60.0,120,96,6.0,92.0
4768,63.0,0,96,6.0,92.0
4769,57.0,0,96,5.0,92.0
4770,65.0,120,96,5.0,92.0
4771,60.0,0,96,6.0,92.0
4772,63.0,0,96,6.0,92.0
4773,81.0,0,60,4.0,116.0
4774,63.0,120,96,6.0,92.0
4775,57.0,0,96,5.0,92.0
4776,65.0,0,96,5.0,92.0
4777,60.0,0,96,6.0,92.0
4778,79.0,60,60,4.0,116.0
4779,65.0,0,96,5.0,92.0
4780,57.0,60,96,5.0,92.0
4781,60.0,0,96,6.0,92.0
4782,63.0,0,96,6.0,92.0
4783,57.0,0,96,5.0,92.0
4784,65.0,120,96,5.0,92.0
4785,60.0,0,96,6.0,92.0
4786,63.0,0,96,6.0,92.0
4787,77.0,0,288,4.0,116.0
4788,63.0,0,96,6.0,92.0
4789,65.0,0,96,5.0,92.0
4790,57.0,120,96,5.0,92.0
4791,60.0,0,96,6.0,92.0
4792,63.0,0,96,6.0,92.0
4793,57.0,0,96,5.0,92.0
4794,65.0,0,96,5.0,92.0
4795,60.0,120,96,6.0,92.0
4796,77.0,0,156,4.0,116.0
4797,60.0,120,96,6.0,92.0
4798,57.0,0,96,5.0,92.0
4799,63.0,0,96,6.0,92.0
4800,65.0,0,96,5.0,92.0
4801,65.0,0,96,5.0,92.0
4802,57.0,120,96,5.0,92.0
4803,60.0,0,96,6.0,92.0
4804,63.0,0,96,6.0,92.0
4805,77.0,0,156,4.0,116.0
4806,60.0,0,96,6.0,92.0
4807,63.0,120,96,6.0,92.0
4808,65.0,0,96,5.0,92.0
4809,57.0,0,96,5.0,92.0
4810,63.0,0,96,6.0,92.0
4811,57.0,120,96,5.0,92.0
4812,65.0,0,96,5.0,92.0
4813,60.0,0,96,6.0,92.0
4814,65.0,0,96,5.0,92.0
4815,63.0,120,96,6.0,92.0
4816,60.0,0,96,6.0,92.0
4817,57.0,0,96,5.0,92.0
4818,60.0,0,96,6.0,92.0
4819,63.0,120,96,6.0,92.0
4820,65.0,0,96,5.0,92.0
4821,57.0,0,96,5.0,92.0
4822,77.0,0,384,4.0,116.0
4823,63.0,0,96,6.0,92.0
4824,57.0,0,96,5.0,92.0
4825,65.0,120,96,5.0,92.0
4826,60.0,0,96,6.0,92.0
4827,60.0,120,96,6.0,92.0
4828,63.0,0,1536,7.0,105.0
4829,51.0,0,1536,8.0,105.0
4830,63.0,0,96,6.0,92.0
4831,75.0,0,1536,2.0,105.0
4832,63.0,0,1536,1.0,105.0
4833,57.0,0,96,5.0,92.0
4834,65.0,0,96,5.0,92.0
4835,57.0,0,96,5.0,92.0
4836,65.0,0,96,5.0,92.0
4837,60.0,0,96,6.0,92.0
4838,63.0,120,96,6.0,92.0
4839,57.0,0,96,5.0,92.0
4840,60.0,120,96,6.0,92.0
4841,63.0,0,96,6.0,92.0
4842,65.0,0,96,5.0,92.0
4843,57.0,0,96,5.0,92.0
4844,63.0,0,96,6.0,92.0
4845,60.0,120,96,6.0,92.0
4846,65.0,0,96,5.0,92.0
4847,62.0,0,60,1.0,105.0
4848,62.0,0,60,7.0,105.0
4849,65.0,0,60,6.0,92.0
4850,50.0,120,60,8.0,105.0
4851,70.0,0,96,4.0,116.0
4852,48.0,0,60,8.0,105.0
4853,63.0,0,60,6.0,105.0
4854,60.0,60,60,1.0,105.0
4855,60.0,0,60,7.0,105.0
4856,70.0,0,96,4.0,105.0
4857,62.0,0,312,3.0,105.0
4858,74.0,0,312,2.0,92.0
4859,70.0,120,96,4.0,105.0
4860,58.0,0,384,5.0,92.0
4861,70.0,0,384,5.0,92.0
4862,65.0,0,384,5.0,92.0
4863,62.0,60,288,6.0,105.0
4864,58.0,0,288,1.0,105.0
4865,58.0,0,288,7.0,105.0
4866,46.0,0,288,8.0,105.0
4867,70.0,120,96,4.0,105.0
4868,74.0,0,96,4.0,105.0
4869,58.0,0,156,1.0,105.0
4870,62.0,0,156,6.0,105.0
4871,46.0,120,156,8.0,105.0
4872,58.0,0,156,7.0,105.0
4873,70.0,0,156,2.0,92.0
4874,74.0,120,96,4.0,105.0
4875,74.0,120,96,4.0,105.0
4876,70.0,0,156,2.0,92.0
4877,62.0,0,156,6.0,105.0
4878,58.0,0,156,1.0,105.0
4879,58.0,0,156,7.0,105.0
4880,46.0,0,156,8.0,105.0
4881,74.0,120,96,4.0,105.0
4882,77.0,120,96,4.0,105.0
4883,77.0,120,96,4.0,105.0
4884,70.0,0,312,2.0,92.0
4885,58.0,0,312,2.0,92.0
4886,77.0,120,96,4.0,105.0
4887,62.0,0,384,6.0,105.0
4888,58.0,0,384,7.0,105.0
4889,46.0,0,384,8.0,105.0
4890,58.0,0,384,1.0,105.0
4891,77.0,120,96,4.0,105.0
4892,82.0,120,96,4.0,105.0
4893,82.0,120,96,4.0,105.0
4894,82.0,0,768,0.0,105.0
4895,74.0,0,768,0.0,105.0
4896,82.0,120,96,4.0,105.0
4897,82.0,120,96,4.0,105.0
4898,62.0,0,60,7.0,105.0
4899,62.0,0,60,1.0,105.0
4900,50.0,0,60,8.0,105.0
4901,65.0,0,60,6.0,105.0
4902,86.0,120,96,4.0,105.0
4903,63.0,0,60,6.0,105.0
4904,60.0,0,60,7.0,105.0
4905,60.0,0,60,1.0,105.0
4906,48.0,60,60,8.0,105.0
4907,86.0,0,96,4.0,105.0
4908,62.0,0,312,2.0,92.0
4909,62.0,0,312,3.0,92.0
4910,74.0,0,312,2.0,92.0
4911,86.0,120,96,4.0,105.0
4912,58.0,60,288,7.0,105.0
4913,46.0,0,288,8.0,105.0
4914,62.0,0,288,6.0,105.0
4915,58.0,0,288,1.0,105.0
4916,86.0,120,96,4.0,105.0
4917,82.0,0,96,4.0,105.0
4918,62.0,0,156,6.0,105.0
4919,58.0,0,156,2.0,92.0
4920,58.0,0,156,1.0,105.0
4921,58.0,0,156,7.0,105.0
4922,70.0,0,156,2.0,92.0
4923,46.0,120,156,8.0,105.0
4924,82.0,120,96,4.0,105.0
4925,82.0,0,96,4.0,105.0
4926,58.0,0,156,1.0,105.0
4927,70.0,0,156,2.0,92.0
4928,58.0,120,156,2.0,92.0
4929,46.0,0,156,8.0,105.0
4930,62.0,0,156,6.0,105.0
4931,58.0,0,156,7.0,105.0
4932,82.0,120,96,4.0,105.0
4933,77.0,0,96,4.0,105.0
4934,77.0,120,96,4.0,105.0
4935,70.0,0,312,2.0,92.0
4936,58.0,0,312,2.0,92.0
4937,77.0,120,96,4.0,105.0
4938,58.0,0,384,7.0,105.0
4939,62.0,0,384,6.0,105.0
4940,46.0,120,384,8.0,105.0
4941,58.0,0,384,1.0,105.0
4942,77.0,120,96,4.0,105.0
4943,74.0,120,96,4.0,105.0
4944,74.0,120,96,4.0,105.0
4945,82.0,0,768,0.0,105.0
4946,74.0,0,768,0.0,105.0
4947,74.0,120,96,4.0,105.0
4948,74.0,120,96,4.0,105.0
4949,55.0,0,60,1.0,105.0
4950,55.0,0,60,7.0,105.0
4951,43.0,120,60,8.0,105.0
4952,58.0,0,60,6.0,105.0
4953,63.0,0,96,5.0,92.0
4954,53.0,60,60,7.0,105.0
4955,53.0,0,60,1.0,105.0
4956,41.0,0,60,8.0,105.0
4957,57.0,0,60,6.0,105.0
4958,79.0,0,192,4.0,92.0
4959,63.0,0,96,5.0,105.0
4960,55.0,0,312,3.0,92.0
4961,67.0,0,312,3.0,92.0
4962,70.0,0,312,2.0,92.0
4963,58.0,0,312,2.0,92.0
4964,63.0,0,96,5.0,105.0
4965,51.0,0,288,1.0,105.0
4966,39.0,0,288,8.0,105.0
4967,55.0,0,288,6.0,105.0
4968,51.0,60,288,7.0,105.0
4969,63.0,120,96,5.0,105.0
4970,67.0,0,96,5.0,105.0
4971,79.0,120,384,4.0,92.0
4972,51.0,120,156,1.0,105.0
4973,39.0,0,156,8.0,105.0
4974,51.0,0,156,7.0,105.0
4975,55.0,0,156,3.0,92.0
4976,67.0,0,156,3.0,92.0
4977,55.0,0,156,6.0,105.0
4978,67.0,120,96,5.0,105.0
4979,67.0,0,96,5.0,105.0
4980,51.0,0,156,7.0,105.0
4981,51.0,0,156,1.0,105.0
4982,55.0,0,156,6.0,105.0
4983,39.0,0,156,8.0,105.0
4984,55.0,0,156,3.0,92.0
4985,67.0,0,156,3.0,92.0
4986,67.0,120,96,5.0,105.0
4987,70.0,0,96,5.0,105.0
4988,79.0,120,384,4.0,92.0
4989,70.0,120,96,5.0,105.0
4990,67.0,0,312,3.0,92.0
4991,55.0,120,312,3.0,92.0
4992,70.0,120,96,5.0,105.0
4993,51.0,0,384,7.0,105.0
4994,39.0,0,384,8.0,105.0
4995,51.0,0,384,1.0,105.0
4996,55.0,0,384,6.0,105.0
4997,70.0,120,96,5.0,105.0
4998,75.0,120,96,5.0,105.0
4999,79.0,0,384,4.0,92.0
5000,75.0,120,96,5.0,105.0
5001,70.0,0,768,0.0,105.0
5002,79.0,0,768,0.0,105.0
5003,75.0,0,96,5.0,105.0
5004,75.0,120,96,5.0,105.0
5005,55.0,0,60,7.0,105.0
5006,43.0,0,60,8.0,105.0
5007,58.0,0,60,6.0,105.0
5008,55.0,0,60,1.0,105.0
5009,79.0,120,96,5.0,105.0
5010,53.0,0,60,1.0,105.0
5011,41.0,0,60,8.0,105.0
5012,57.0,0,60,6.0,105.0
5013,53.0,60,60,7.0,105.0
5014,79.0,120,432,4.0,92.0
5015,79.0,0,96,5.0,105.0
5016,55.0,0,312,3.0,92.0
5017,58.0,0,312,2.0,92.0
5018,70.0,0,312,2.0,92.0
5019,67.0,0,312,3.0,92.0
5020,79.0,120,96,5.0,105.0
5021,51.0,0,288,1.0,105.0
5022,55.0,0,288,6.0,105.0
5023,51.0,0,288,7.0,105.0
5024,39.0,60,288,8.0,105.0
5025,79.0,120,96,5.0,105.0
5026,75.0,0,96,5.0,105.0
5027,79.0,0,384,4.0,92.0
5028,55.0,120,156,3.0,92.0
5029,51.0,0,156,7.0,105.0
5030,67.0,0,156,3.0,92.0
5031,51.0,0,156,1.0,105.0
5032,55.0,0,156,6.0,105.0
5033,39.0,0,156,8.0,105.0
5034,75.0,120,96,5.0,105.0
5035,75.0,0,96,5.0,105.0
5036,67.0,0,156,3.0,92.0
5037,51.0,120,156,1.0,105.0
5038,39.0,0,156,8.0,105.0
5039,55.0,0,156,6.0,105.0
5040,51.0,0,156,7.0,105.0
5041,55.0,0,156,3.0,92.0
5042,75.0,120,96,5.0,105.0
5043,70.0,120,96,5.0,105.0
5044,79.0,0,384,4.0,92.0
5045,70.0,120,96,5.0,105.0
5046,67.0,0,312,3.0,92.0
5047,55.0,0,312,3.0,92.0
5048,70.0,120,96,5.0,105.0
5049,51.0,0,384,1.0,105.0
5050,51.0,0,384,7.0,105.0
5051,39.0,0,384,8.0,105.0
5052,55.0,0,384,6.0,105.0
5053,70.0,120,96,5.0,105.0
5054,67.0,120,96,5.0,105.0
5055,79.0,0,384,4.0,92.0
5056,67.0,120,96,5.0,105.0
5057,70.0,0,768,0.0,105.0
5058,79.0,0,768,0.0,105.0
5059,67.0,120,96,5.0,105.0
5060,79.0,0,192,4.0,92.0
5061,67.0,120,96,5.0,105.0
5062,63.0,0,60,6.0,105.0
5063,48.0,0,60,8.0,105.0
5064,60.0,0,60,1.0,105.0
5065,60.0,0,60,7.0,105.0
5066,69.0,0,96,4.0,92.0
5067,46.0,0,60,8.0,105.0
5068,58.0,0,60,7.0,105.0
5069,58.0,0,60,1.0,105.0
5070,62.0,60,60,6.0,105.0
5071,60.0,0,192,5.0,105.0
5072,69.0,60,96,4.0,105.0
5073,69.0,0,312,3.0,92.0
5074,72.0,120,312,2.0,92.0
5075,69.0,0,96,4.0,105.0
5076,57.0,0,288,7.0,105.0
5077,60.0,0,288,6.0,105.0
5078,45.0,0,288,8.0,105.0
5079,57.0,0,288,1.0,105.0
5080,69.0,120,96,4.0,105.0
5081,72.0,0,96,4.0,105.0
5082,60.0,120,384,5.0,105.0
5083,57.0,120,156,7.0,105.0
5084,72.0,0,156,2.0,92.0
5085,45.0,0,156,8.0,105.0
5086,60.0,0,156,6.0,105.0
5087,69.0,0,156,3.0,92.0
5088,57.0,0,156,1.0,105.0
5089,72.0,120,96,4.0,105.0
5090,72.0,0,96,4.0,105.0
5091,45.0,0,156,8.0,105.0
5092,72.0,0,156,2.0,92.0
5093,57.0,0,156,1.0,105.0
5094,69.0,120,156,3.0,92.0
5095,60.0,0,156,6.0,105.0
5096,57.0,0,156,7.0,105.0
5097,72.0,120,96,4.0,105.0
5098,75.0,120,96,4.0,105.0
5099,60.0,0,384,5.0,105.0
5100,75.0,120,96,4.0,105.0
5101,72.0,0,312,2.0,92.0
5102,69.0,0,312,3.0,92.0
5103,75.0,0,96,4.0,105.0
5104,57.0,0,384,7.0,105.0
5105,60.0,0,384,6.0,105.0
5106,45.0,0,384,8.0,105.0
5107,57.0,0,384,1.0,105.0
5108,75.0,120,96,4.0,105.0
5109,81.0,120,96,4.0,105.0
5110,60.0,120,384,5.0,105.0
5111,81.0,120,96,4.0,105.0
5112,75.0,0,768,0.0,105.0
5113,84.0,0,768,0.0,105.0
5114,81.0,0,96,4.0,105.0
5115,81.0,120,96,4.0,105.0
5116,60.0,0,60,1.0,105.0
5117,60.0,120,60,7.0,105.0
5118,63.0,0,60,6.0,105.0
5119,48.0,0,60,8.0,105.0
5120,84.0,0,96,4.0,105.0
5121,46.0,0,60,8.0,105.0
5122,58.0,0,60,7.0,105.0
5123,58.0,60,60,1.0,105.0
5124,62.0,0,60,6.0,105.0
5125,60.0,120,432,5.0,105.0
5126,84.0,0,96,4.0,105.0
5127,69.0,0,312,3.0,92.0
5128,72.0,0,312,2.0,92.0
5129,84.0,0,96,4.0,105.0
5130,60.0,0,288,6.0,105.0
5131,45.0,60,288,8.0,105.0
5132,57.0,0,288,7.0,105.0
5133,57.0,0,288,1.0,105.0
5134,84.0,120,96,4.0,105.0
5135,81.0,120,96,4.0,105.0
5136,60.0,120,384,5.0,105.0
5137,69.0,0,156,3.0,92.0
5138,72.0,0,156,2.0,92.0
5139,57.0,0,156,7.0,105.0
5140,60.0,0,156,6.0,105.0
5141,45.0,0,156,8.0,105.0
5142,57.0,0,156,1.0,105.0
5143,81.0,120,96,4.0,105.0
5144,81.0,0,96,4.0,105.0
5145,72.0,0,156,2.0,92.0
5146,57.0,0,156,1.0,105.0
5147,69.0,0,156,3.0,92.0
5148,57.0,0,156,7.0,105.0
5149,60.0,120,156,6.0,105.0
5150,45.0,0,156,8.0,105.0
5151,81.0,120,96,4.0,105.0
5152,75.0,0,96,4.0,105.0
5153,60.0,0,384,5.0,105.0
5154,75.0,120,96,4.0,105.0
5155,69.0,0,312,3.0,92.0
5156,72.0,0,312,2.0,92.0
5157,75.0,0,96,4.0,105.0
5158,57.0,0,384,1.0,105.0
5159,57.0,0,384,7.0,105.0
5160,60.0,120,384,6.0,105.0
5161,45.0,0,384,8.0,105.0
5162,75.0,120,96,4.0,105.0
5163,72.0,120,96,4.0,105.0
5164,60.0,120,384,5.0,105.0
5165,72.0,120,96,4.0,105.0
5166,84.0,0,768,0.0,105.0
5167,75.0,0,768,0.0,105.0
5168,72.0,120,96,4.0,105.0
5169,60.0,0,192,5.0,105.0
5170,72.0,120,96,4.0,105.0
5171,53.0,0,60,7.0,105.0
5172,53.0,0,60,1.0,105.0
5173,41.0,0,60,8.0,105.0
5174,57.0,0,60,6.0,105.0
5175,62.0,120,96,5.0,105.0
5176,39.0,0,60,8.0,105.0
5177,51.0,60,60,1.0,105.0
5178,51.0,0,60,7.0,105.0
5179,55.0,0,60,6.0,105.0
5180,77.0,0,192,4.0,92.0
5181,62.0,0,96,5.0,105.0
5182,69.0,0,312,3.0,92.0
5183,74.0,0,312,2.0,92.0
5184,62.0,0,312,3.0,92.0
5185,65.0,0,312,2.0,92.0
5186,62.0,120,96,5.0,105.0
5187,50.0,0,288,7.0,105.0
5188,38.0,60,288,8.0,105.0
5189,50.0,0,288,1.0,105.0
5190,53.0,0,288,6.0,105.0
5191,62.0,120,96,5.0,105.0
5192,65.0,0,96,5.0,105.0
5193,77.0,0,384,4.0,92.0
5194,50.0,0,156,1.0,105.0
5195,38.0,0,156,8.0,105.0
5196,50.0,0,156,7.0,105.0
5197,74.0,0,156,2.0,92.0
5198,65.0,0,156,2.0,92.0
5199,53.0,120,156,6.0,105.0
5200,62.0,0,156,3.0,92.0
5201,69.0,0,156,3.0,92.0
5202,65.0,120,96,5.0,105.0
5203,65.0,0,96,5.0,105.0
5204,69.0,0,156,3.0,92.0
5205,53.0,0,156,6.0,105.0
5206,62.0,0,156,3.0,92.0
5207,50.0,0,156,7.0,105.0
5208,50.0,0,156,1.0,105.0
5209,65.0,0,156,2.0,92.0
5210,74.0,0,156,2.0,92.0
5211,38.0,120,156,8.0,105.0
5212,65.0,120,96,5.0,105.0
5213,69.0,0,96,5.0,105.0
5214,77.0,0,384,4.0,92.0
5215,69.0,120,96,5.0,105.0
5216,65.0,0,312,2.0,92.0
5217,74.0,0,312,2.0,92.0
5218,62.0,0,312,3.0,92.0
5219,69.0,120,312,3.0,92.0
5220,69.0,0,96,5.0,105.0
5221,50.0,0,384,1.0,105.0
5222,38.0,0,384,8.0,105.0
5223,53.0,0,384,6.0,105.0
5224,50.0,0,384,7.0,105.0
5225,69.0,120,96,5.0,105.0
5226,74.0,120,96,5.0,105.0
5227,77.0,120,384,4.0,92.0
5228,74.0,120,96,5.0,105.0
5229,77.0,0,768,0.0,105.0
5230,69.0,0,768,0.0,105.0
5231,74.0,120,96,5.0,105.0
5232,74.0,120,96,5.0,105.0
5233,41.0,0,60,8.0,105.0
5234,57.0,0,60,6.0,105.0
5235,53.0,0,60,7.0,105.0
5236,53.0,0,60,1.0,105.0
5237,77.0,120,96,5.0,105.0
5238,55.0,0,60,6.0,105.0
5239,39.0,60,60,8.0,105.0
5240,51.0,0,60,1.0,105.0
5241,51.0,0,60,7.0,105.0
5242,77.0,0,432,4.0,92.0
5243,77.0,0,96,5.0,105.0
5244,65.0,0,312,2.0,92.0
5245,74.0,0,312,2.0,92.0
5246,69.0,0,312,3.0,92.0
5247,62.0,0,312,3.0,92.0
5248,77.0,120,96,5.0,105.0
5249,53.0,60,288,6.0,105.0
5250,50.0,0,288,1.0,105.0
5251,38.0,0,288,8.0,105.0
5252,50.0,0,288,7.0,105.0
5253,77.0,120,96,5.0,105.0
5254,74.0,0,96,5.0,105.0
5255,77.0,0,384,4.0,92.0
5256,53.0,0,156,6.0,105.0
5257,65.0,120,156,2.0,92.0
5258,50.0,0,156,7.0,105.0
5259,38.0,0,156,8.0,105.0
5260,62.0,0,156,3.0,92.0
5261,69.0,0,156,3.0,92.0
5262,74.0,0,156,2.0,92.0
5263,50.0,0,156,1.0,105.0
5264,74.0,120,96,5.0,105.0
5265,74.0,120,96,5.0,105.0
5266,50.0,0,156,7.0,105.0
5267,74.0,0,156,2.0,92.0
5268,50.0,0,156,1.0,105.0
5269,38.0,0,156,8.0,105.0
5270,69.0,0,156,3.0,92.0
5271,62.0,0,156,3.0,92.0
5272,53.0,0,156,6.0,105.0
5273,65.0,0,156,2.0,92.0
5274,74.0,120,96,5.0,105.0
5275,69.0,0,96,5.0,105.0
5276,77.0,0,384,4.0,92.0
5277,69.0,120,96,5.0,105.0
5278,74.0,0,312,2.0,92.0
5279,62.0,0,312,3.0,92.0
5280,69.0,0,312,3.0,92.0
5281,65.0,0,312,2.0,92.0
5282,69.0,120,96,5.0,105.0
5283,50.0,120,384,1.0,105.0
5284,38.0,0,384,8.0,105.0
5285,50.0,0,384,7.0,105.0
5286,53.0,0,384,6.0,105.0
5287,69.0,120,96,5.0,105.0
5288,65.0,120,96,5.0,105.0
5289,77.0,0,384,4.0,92.0
5290,65.0,120,96,5.0,105.0
5291,77.0,0,768,0.0,105.0
5292,69.0,0,768,0.0,105.0
5293,65.0,120,96,5.0,105.0
5294,77.0,0,192,4.0,92.0
5295,65.0,120,96,5.0,105.0
5296,58.0,120,60,7.0,105.0
5297,62.0,0,60,6.0,105.0
5298,46.0,0,60,8.0,105.0
5299,58.0,0,60,1.0,105.0
5300,67.0,0,96,4.0,105.0
5301,57.0,0,60,1.0,105.0
5302,60.0,0,60,6.0,105.0
5303,45.0,0,60,8.0,105.0
5304,57.0,60,60,7.0,105.0
5305,58.0,0,192,5.0,105.0
5306,67.0,60,96,4.0,105.0
5307,55.0,0,312,3.0,92.0
5308,70.0,0,312,2.0,92.0
5309,67.0,0,312,3.0,92.0
5310,62.0,0,312,2.0,92.0
5311,67.0,0,96,4.0,105.0
5312,58.0,0,288,6.0,105.0
5313,55.0,0,288,1.0,105.0
5314,55.0,0,288,7.0,105.0
5315,43.0,0,288,8.0,105.0
5316,67.0,120,96,4.0,105.0
5317,70.0,0,96,4.0,105.0
5318,58.0,120,384,5.0,105.0
5319,58.0,0,156,6.0,105.0
5320,55.0,0,156,3.0,92.0
5321,55.0,0,156,7.0,105.0
5322,55.0,0,156,1.0,105.0
5323,62.0,120,156,2.0,92.0
5324,67.0,0,156,3.0,92.0
5325,43.0,0,156,8.0,105.0
5326,70.0,0,156,2.0,92.0
5327,70.0,120,96,4.0,105.0
5328,70.0,0,96,4.0,105.0
5329,55.0,0,156,3.0,92.0
5330,55.0,0,156,1.0,105.0
5331,62.0,0,156,2.0,92.0
5332,70.0,120,156,2.0,92.0
5333,55.0,0,156,7.0,105.0
5334,43.0,0,156,8.0,105.0
5335,58.0,0,156,6.0,105.0
5336,67.0,0,156,3.0,92.0
5337,70.0,120,96,4.0,105.0
5338,74.0,0,96,4.0,105.0
5339,58.0,0,384,5.0,105.0
5340,74.0,120,96,4.0,105.0
5341,55.0,0,312,3.0,92.0
5342,67.0,0,312,3.0,92.0
5343,70.0,0,312,2.0,92.0
5344,62.0,0,312,2.0,92.0
5345,74.0,0,96,4.0,105.0
5346,43.0,120,384,8.0,105.0
5347,55.0,0,384,7.0,105.0
5348,55.0,0,384,1.0,105.0
5349,58.0,0,384,6.0,105.0
5350,74.0,120,96,4.0,105.0
5351,79.0,120,96,4.0,105.0
5352,58.0,120,384,5.0,105.0
5353,79.0,120,96,4.0,105.0
5354,74.0,0,768,0.0,105.0
5355,82.0,0,768,0.0,105.0
5356,79.0,0,96,4.0,105.0
5357,79.0,120,96,4.0,105.0
5358,62.0,0,60,6.0,105.0
5359,46.0,0,60,8.0,105.0
5360,58.0,120,60,7.0,105.0
5361,58.0,0,60,1.0,105.0
5362,82.0,0,96,4.0,105.0
5363,57.0,0,60,1.0,105.0
5364,57.0,0,60,7.0,105.0
5365,45.0,0,60,8.0,105.0
5366,60.0,60,60,6.0,105.0
5367,58.0,120,432,5.0,105.0
5368,82.0,0,96,4.0,105.0
5369,62.0,0,312,2.0,92.0
5370,70.0,0,312,2.0,92.0
5371,55.0,0,312,3.0,92.0
5372,67.0,0,312,3.0,92.0
5373,82.0,0,96,4.0,105.0
5374,58.0,0,288,6.0,105.0
5375,43.0,0,288,8.0,105.0
5376,55.0,60,288,1.0,105.0
5377,55.0,0,288,7.0,105.0
5378,82.0,120,96,4.0,105.0
5379,79.0,0,96,4.0,105.0
5380,58.0,120,384,5.0,105.0
5381,43.0,0,156,8.0,105.0
5382,70.0,0,156,2.0,92.0
5383,62.0,0,156,2.0,92.0
5384,58.0,120,156,6.0,105.0
5385,55.0,0,156,1.0,105.0
5386,55.0,0,156,7.0,105.0
5387,67.0,0,156,3.0,92.0
5388,55.0,0,156,3.0,92.0
5389,79.0,120,96,4.0,105.0
5390,79.0,0,96,4.0,105.0
5391,55.0,0,156,1.0,105.0
5392,43.0,0,156,8.0,105.0
5393,58.0,0,156,6.0,105.0
5394,55.0,0,156,3.0,92.0
5395,62.0,0,156,2.0,92.0
5396,55.0,0,156,7.0,105.0
5397,67.0,0,156,3.0,92.0
5398,70.0,120,156,2.0,92.0
5399,79.0,120,96,4.0,105.0
5400,74.0,0,96,4.0,105.0
5401,58.0,0,384,5.0,105.0
5402,74.0,120,96,4.0,105.0
5403,62.0,0,312,2.0,92.0
5404,70.0,0,312,2.0,92.0
5405,55.0,0,312,3.0,92.0
5406,67.0,120,312,3.0,92.0
5407,74.0,0,96,4.0,105.0
5408,55.0,0,384,7.0,105.0
5409,55.0,0,384,1.0,105.0
5410,58.0,0,384,6.0,105.0
5411,43.0,0,384,8.0,105.0
5412,74.0,120,96,4.0,105.0
5413,70.0,120,96,4.0,105.0
5414,58.0,120,384,5.0,105.0
5415,70.0,120,96,4.0,105.0
5416,74.0,0,768,0.0,105.0
5417,82.0,0,768,0.0,105.0
5418,70.0,120,96,4.0,105.0
5419,58.0,0,192,5.0,105.0
5420,70.0,120,96,4.0,105.0
5421,51.0,0,60,7.0,105.0
5422,39.0,0,60,8.0,105.0
5423,51.0,0,60,1.0,105.0
5424,67.0,120,60,6.0,105.0
5425,60.0,0,96,5.0,105.0
5426,65.0,0,60,6.0,105.0
5427,50.0,0,60,1.0,105.0
5428,38.0,60,60,8.0,105.0
5429,50.0,0,60,7.0,105.0
5430,75.0,0,192,4.0,105.0
5431,60.0,0,96,5.0,105.0
5432,67.0,0,312,3.0,92.0
5433,72.0,0,312,2.0,92.0
5434,60.0,0,96,5.0,105.0
5435,48.0,60,288,7.0,105.0
5436,36.0,0,288,8.0,105.0
5437,63.0,0,288,6.0,105.0
5438,48.0,0,288,1.0,105.0
5439,60.0,120,96,5.0,105.0
5440,63.0,0,96,5.0,105.0
5441,75.0,120,384,4.0,92.0
5442,63.0,120,156,6.0,105.0
5443,48.0,0,156,1.0,105.0
5444,48.0,0,156,7.0,105.0
5445,72.0,0,156,2.0,92.0
5446,67.0,0,156,3.0,92.0
5447,36.0,0,156,8.0,105.0
5448,63.0,120,96,5.0,105.0
5449,63.0,120,96,5.0,105.0
5450,67.0,0,156,3.0,92.0
5451,72.0,0,156,2.0,92.0
5452,48.0,0,156,1.0,105.0
5453,36.0,0,156,8.0,105.0
5454,48.0,0,156,7.0,105.0
5455,63.0,0,156,6.0,105.0
5456,63.0,120,96,5.0,105.0
5457,67.0,120,96,5.0,105.0
5458,75.0,0,384,4.0,92.0
5459,67.0,120,96,5.0,105.0
5460,72.0,0,312,2.0,92.0
5461,67.0,0,312,3.0,92.0
5462,67.0,0,96,5.0,105.0
5463,36.0,0,384,8.0,105.0
5464,48.0,0,384,1.0,105.0
5465,63.0,0,384,6.0,105.0
5466,48.0,0,384,7.0,105.0
5467,67.0,120,96,5.0,105.0
5468,72.0,120,96,5.0,105.0
5469,75.0,120,384,4.0,92.0
5470,72.0,120,96,5.0,105.0
5471,75.0,0,768,0.0,105.0
5472,67.0,0,768,0.0,105.0
5473,72.0,120,96,5.0,105.0
5474,72.0,120,96,5.0,105.0
5475,67.0,0,60,6.0,105.0
5476,39.0,0,60,8.0,105.0
5477,51.0,0,60,1.0,105.0
5478,51.0,0,60,7.0,105.0
5479,75.0,0,96,5.0,105.0
5480,38.0,0,60,8.0,105.0
5481,50.0,0,60,7.0,105.0
5482,50.0,0,60,1.0,105.0
5483,65.0,60,60,6.0,105.0
5484,75.0,0,432,4.0,92.0
5485,75.0,0,96,5.0,105.0
5486,72.0,0,312,2.0,92.0
5487,67.0,120,312,3.0,92.0
5488,75.0,0,96,5.0,105.0
5489,48.0,0,288,1.0,105.0
5490,48.0,0,288,7.0,105.0
5491,63.0,0,288,6.0,105.0
5492,36.0,60,288,8.0,105.0
5493,75.0,120,96,5.0,105.0
5494,72.0,0,96,5.0,105.0
5495,75.0,120,384,4.0,92.0
5496,63.0,0,156,6.0,105.0
5497,48.0,0,156,1.0,105.0
5498,72.0,0,156,2.0,92.0
5499,67.0,0,156,3.0,92.0
5500,48.0,0,156,7.0,105.0
5501,36.0,120,156,8.0,105.0
5502,72.0,120,96,5.0,105.0
5503,72.0,0,96,5.0,105.0
5504,72.0,120,156,2.0,92.0
5505,63.0,0,156,6.0,105.0
5506,36.0,0,156,8.0,105.0
5507,67.0,0,156,3.0,92.0
5508,48.0,0,156,7.0,105.0
5509,48.0,0,156,1.0,105.0
5510,72.0,120,96,5.0,105.0
5511,67.0,0,96,5.0,105.0
5512,75.0,0,384,4.0,92.0
5513,67.0,120,96,5.0,105.0
5514,67.0,0,312,3.0,92.0
5515,72.0,0,312,2.0,92.0
5516,67.0,0,96,5.0,105.0
5517,36.0,0,384,8.0,105.0
5518,48.0,0,384,1.0,105.0
5519,48.0,0,384,7.0,105.0
5520,63.0,0,384,6.0,105.0
5521,67.0,120,96,5.0,105.0
5522,63.0,120,96,5.0,105.0
5523,75.0,120,384,4.0,92.0
5524,63.0,120,96,5.0,105.0
5525,75.0,120,768,0.0,105.0
5526,67.0,0,768,0.0,105.0
5527,63.0,0,96,5.0,105.0
5528,75.0,120,192,4.0,92.0
5529,63.0,120,96,5.0,105.0
5530,87.0,120,108,4.0,92.0
5531,87.0,0,108,5.0,92.0
5532,87.0,120,108,5.0,92.0
5533,87.0,0,108,4.0,92.0
5534,87.0,120,108,5.0,92.0
5535,87.0,0,108,4.0,92.0
5536,87.0,120,108,5.0,92.0
5537,87.0,0,108,4.0,92.0
5538,84.0,0,108,5.0,92.0
5539,84.0,120,108,4.0,92.0
5540,84.0,120,108,4.0,92.0
5541,84.0,0,108,5.0,92.0
5542,84.0,0,108,5.0,92.0
5543,84.0,120,108,4.0,92.0
5544,84.0,120,108,5.0,92.0
5545,84.0,0,108,4.0,92.0
5546,81.0,120,108,5.0,92.0
5547,81.0,0,108,4.0,92.0
5548,81.0,0,108,5.0,92.0
5549,81.0,120,108,4.0,92.0
5550,81.0,120,108,4.0,92.0
5551,81.0,0,108,5.0,92.0
5552,81.0,120,108,5.0,92.0
5553,81.0,0,108,4.0,92.0
5554,77.0,120,108,4.0,92.0
5555,77.0,0,108,5.0,92.0
5556,77.0,0,108,5.0,92.0
5557,77.0,120,108,4.0,92.0
5558,77.0,120,108,5.0,92.0
5559,77.0,0,108,4.0,92.0
5560,77.0,120,108,4.0,92.0
5561,77.0,0,108,5.0,92.0
5562,75.0,0,96,5.0,92.0
5563,75.0,120,96,4.0,92.0
5564,75.0,0,96,4.0,92.0
5565,75.0,120,96,5.0,92.0
5566,75.0,0,96,4.0,92.0
5567,75.0,120,96,5.0,92.0
5568,75.0,0,384,0.0,105.0
5569,75.0,0,384,2.0,105.0
5570,51.0,0,384,8.0,105.0
5571,63.0,0,384,7.0,105.0
5572,63.0,0,384,1.0,105.0
5573,75.0,0,384,6.0,105.0
5574,75.0,0,96,5.0,92.0
5575,75.0,120,96,4.0,92.0
5576,72.0,0,96,5.0,92.0
5577,72.0,120,96,4.0,92.0
5578,72.0,120,96,4.0,92.0
5579,72.0,0,96,5.0,92.0
5580,72.0,120,96,4.0,92.0
5581,72.0,0,96,5.0,92.0
5582,72.0,0,384,2.0,105.0
5583,72.0,0,384,6.0,105.0
5584,60.0,0,384,1.0,105.0
5585,72.0,0,384,0.0,105.0
5586,48.0,0,384,8.0,105.0
5587,60.0,0,384,7.0,105.0
5588,72.0,120,96,5.0,92.0
5589,72.0,0,96,4.0,92.0
5590,69.0,120,96,4.0,92.0
5591,69.0,0,96,5.0,92.0
5592,69.0,120,96,4.0,92.0
5593,69.0,0,96,5.0,92.0
5594,69.0,0,96,4.0,92.0
5595,69.0,120,96,5.0,92.0
5596,45.0,0,384,8.0,105.0
5597,69.0,0,384,0.0,105.0
5598,69.0,0,384,6.0,105.0
5599,57.0,0,384,1.0,105.0
5600,57.0,0,384,7.0,105.0
5601,69.0,0,96,5.0,92.0
5602,69.0,120,96,4.0,92.0
5603,65.0,0,96,4.0,92.0
5604,65.0,0,96,5.0,92.0
5605,65.0,120,96,4.0,92.0
5606,65.0,0,96,5.0,92.0
5607,65.0,0,768,2.0,105.0
5608,65.0,120,96,4.0,92.0
5609,65.0,0,96,5.0,92.0
5610,41.0,0,384,8.0,105.0
5611,53.0,0,384,7.0,105.0
5612,65.0,0,384,6.0,105.0
5613,53.0,120,384,1.0,105.0
5614,65.0,0,384,0.0,105.0
5615,65.0,0,96,4.0,92.0
5616,65.0,120,96,5.0,92.0
5617,86.0,120,108,4.0,92.0
5618,86.0,0,108,5.0,92.0
5619,86.0,120,108,4.0,92.0
5620,86.0,0,108,5.0,92.0
5621,86.0,0,108,4.0,92.0
5622,86.0,120,108,5.0,92.0
5623,86.0,0,108,4.0,92.0
5624,86.0,120,108,5.0,92.0
5625,82.0,120,108,4.0,92.0
5626,82.0,0,108,5.0,92.0
5627,82.0,0,108,5.0,92.0
5628,82.0,120,108,4.0,92.0
5629,82.0,0,108,4.0,92.0
5630,82.0,120,108,5.0,92.0
5631,82.0,0,108,5.0,92.0
5632,82.0,120,108,4.0,92.0
5633,77.0,0,108,4.0,92.0
5634,77.0,120,108,5.0,92.0
5635,77.0,0,108,5.0,92.0
5636,77.0,120,108,4.0,92.0
5637,77.0,0,108,5.0,92.0
5638,77.0,120,108,4.0,92.0
5639,77.0,120,108,5.0,92.0
5640,77.0,0,108,4.0,92.0
5641,74.0,0,108,4.0,92.0
5642,74.0,120,108,5.0,92.0
5643,74.0,0,108,5.0,92.0
5644,74.0,120,108,4.0,92.0
5645,74.0,120,108,5.0,92.0
5646,74.0,0,108,4.0,92.0
5647,74.0,0,108,4.0,92.0
5648,74.0,120,108,5.0,92.0
5649,70.0,0,96,4.0,92.0
5650,70.0,0,96,5.0,92.0
5651,70.0,120,96,5.0,92.0
5652,70.0,0,96,4.0,92.0
5653,70.0,120,96,4.0,92.0
5654,70.0,0,96,5.0,92.0
5655,70.0,0,384,2.0,105.0
5656,58.0,0,384,1.0,105.0
5657,46.0,0,384,8.0,105.0
5658,82.0,120,384,0.0,105.0
5659,58.0,0,384,7.0,105.0
5660,70.0,0,384,6.0,105.0
5661,70.0,0,96,5.0,92.0
5662,70.0,120,96,4.0,92.0
5663,65.0,0,96,5.0,92.0
5664,65.0,0,96,4.0,92.0
5665,65.0,120,96,4.0,92.0
5666,65.0,0,96,5.0,92.0
5667,65.0,0,96,5.0,92.0
5668,65.0,120,96,4.0,92.0
5669,41.0,120,384,8.0,105.0
5670,65.0,0,384,6.0,105.0
5671,53.0,0,384,1.0,105.0
5672,53.0,0,384,7.0,105.0
5673,77.0,0,384,0.0,105.0
5674,65.0,0,384,2.0,105.0
5675,65.0,0,96,5.0,92.0
5676,65.0,120,96,4.0,92.0
5677,62.0,0,96,5.0,92.0
5678,62.0,0,96,4.0,92.0
5679,62.0,120,96,5.0,92.0
5680,62.0,0,96,4.0,92.0
5681,62.0,120,96,4.0,92.0
5682,62.0,0,96,5.0,92.0
5683,62.0,120,384,2.0,105.0
5684,50.0,0,384,7.0,105.0
5685,38.0,0,384,8.0,105.0
5686,50.0,0,384,1.0,105.0
5687,74.0,0,384,0.0,105.0
5688,62.0,0,384,6.0,105.0
5689,62.0,0,96,4.0,92.0
5690,62.0,120,96,5.0,92.0
5691,58.0,0,96,5.0,92.0
5692,58.0,0,96,4.0,92.0
5693,58.0,0,96,5.0,92.0
5694,58.0,120,96,4.0,92.0
5695,58.0,120,96,4.0,92.0
5696,58.0,0,96,5.0,92.0
5697,58.0,0,384,6.0,105.0
5698,46.0,0,384,7.0,105.0
5699,34.0,0,384,8.0,105.0
5700,70.0,0,384,0.0,105.0
5701,58.0,120,384,2.0,105.0
5702,46.0,0,384,1.0,105.0
5703,58.0,0,96,5.0,92.0
5704,58.0,120,96,4.0,92.0
5705,85.0,120,108,5.0,92.0
5706,85.0,0,108,4.0,92.0
5707,85.0,0,108,4.0,92.0
5708,85.0,120,108,5.0,92.0
5709,85.0,120,108,4.0,92.0
5710,85.0,0,108,5.0,92.0
5711,85.0,0,108,4.0,92.0
5712,85.0,120,108,5.0,92.0
5713,82.0,120,108,4.0,92.0
5714,82.0,0,108,5.0,92.0
5715,82.0,120,108,5.0,92.0
5716,82.0,0,108,4.0,92.0
5717,82.0,0,108,5.0,92.0
5718,82.0,120,108,4.0,92.0
5719,82.0,0,108,4.0,92.0
5720,82.0,120,108,5.0,92.0
5721,77.0,0,108,5.0,92.0
5722,77.0,120,108,4.0,92.0
5723,77.0,0,108,5.0,92.0
5724,77.0,120,108,4.0,92.0
5725,77.0,0,108,4.0,92.0
5726,77.0,120,108,5.0,92.0
5727,77.0,0,108,5.0,92.0
5728,77.0,120,108,4.0,92.0
5729,73.0,120,108,5.0,92.0
5730,73.0,0,108,4.0,92.0
5731,73.0,0,108,4.0,92.0
5732,73.0,120,108,5.0,92.0
5733,73.0,0,108,4.0,92.0
5734,73.0,120,108,5.0,92.0
5735,73.0,120,108,4.0,92.0
5736,73.0,0,108,5.0,92.0
5737,70.0,0,96,5.0,92.0
5738,70.0,0,96,4.0,92.0
5739,70.0,120,96,5.0,92.0
5740,70.0,0,96,4.0,92.0
5741,70.0,120,96,5.0,92.0
5742,70.0,0,96,4.0,92.0
5743,82.0,120,384,0.0,105.0
5744,70.0,0,384,6.0,105.0
5745,70.0,0,384,2.0,105.0
5746,58.0,0,384,7.0,105.0
5747,46.0,0,384,8.0,105.0
5748,58.0,0,384,1.0,105.0
5749,70.0,0,96,5.0,92.0
5750,70.0,120,96,4.0,92.0
5751,65.0,0,96,4.0,92.0
5752,65.0,120,96,5.0,92.0
5753,65.0,120,96,4.0,92.0
5754,65.0,0,96,5.0,92.0
5755,65.0,120,96,5.0,92.0
5756,65.0,0,96,4.0,92.0
5757,65.0,0,384,6.0,105.0
5758,41.0,0,384,8.0,105.0
5759,65.0,0,384,2.0,105.0
5760,77.0,0,384,0.0,105.0
5761,53.0,0,384,7.0,105.0
5762,53.0,0,384,1.0,105.0
5763,65.0,120,96,4.0,92.0
5764,65.0,0,96,5.0,92.0
5765,61.0,120,96,5.0,92.0
5766,61.0,0,96,4.0,92.0
5767,61.0,120,96,5.0,92.0
5768,61.0,0,96,4.0,92.0
5769,61.0,120,96,5.0,92.0
5770,61.0,0,96,4.0,92.0
5771,37.0,0,384,8.0,105.0
5772,49.0,0,384,1.0,105.0
5773,61.0,0,384,6.0,105.0
5774,49.0,0,384,7.0,105.0
5775,73.0,0,384,0.0,105.0
5776,61.0,0,96,4.0,92.0
5777,61.0,120,96,5.0,92.0
5778,58.0,0,96,4.0,92.0
5779,58.0,0,96,5.0,92.0
5780,58.0,120,96,4.0,92.0
5781,58.0,0,96,5.0,92.0
5782,58.0,0,768,2.0,105.0
5783,58.0,0,96,4.0,92.0
5784,58.0,120,96,5.0,92.0
5785,46.0,0,384,1.0,105.0
5786,46.0,0,384,7.0,105.0
5787,70.0,0,384,0.0,105.0
5788,58.0,0,384,6.0,105.0
5789,34.0,120,384,8.0,105.0
5790,58.0,120,96,4.0,92.0
5791,58.0,0,96,5.0,92.0
5792,85.0,120,108,4.0,92.0
5793,85.0,0,108,5.0,92.0
5794,85.0,120,108,5.0,92.0
5795,85.0,0,108,4.0,92.0
5796,85.0,120,108,5.0,92.0
5797,85.0,0,108,4.0,92.0
5798,85.0,0,108,4.0,92.0
5799,85.0,120,108,5.0,92.0
5800,82.0,0,108,5.0,92.0
5801,82.0,120,108,4.0,92.0
5802,82.0,0,108,4.0,92.0
5803,82.0,120,108,5.0,92.0
5804,82.0,0,108,4.0,92.0
5805,82.0,120,108,5.0,92.0
5806,82.0,120,108,4.0,92.0
5807,82.0,0,108,5.0,92.0
5808,79.0,120,108,5.0,92.0
5809,79.0,0,108,4.0,92.0
5810,79.0,120,108,5.0,92.0
5811,79.0,0,108,4.0,92.0
5812,79.0,120,108,4.0,92.0
5813,79.0,0,108,5.0,92.0
5814,79.0,120,108,5.0,92.0
5815,79.0,0,108,4.0,92.0
5816,76.0,120,108,5.0,92.0
5817,76.0,0,108,4.0,92.0
5818,76.0,120,108,5.0,92.0
5819,76.0,0,108,4.0,92.0
5820,76.0,120,108,4.0,92.0
5821,76.0,0,108,5.0,92.0
5822,76.0,120,108,4.0,92.0
5823,76.0,0,108,5.0,92.0
5824,73.0,0,96,5.0,92.0
5825,73.0,120,96,4.0,92.0
5826,73.0,120,96,4.0,92.0
5827,73.0,0,96,5.0,92.0
5828,73.0,120,96,4.0,92.0
5829,73.0,0,96,5.0,92.0
5830,73.0,0,384,0.0,105.0
5831,61.0,0,384,7.0,105.0
5832,49.0,0,384,8.0,105.0
5833,73.0,0,384,6.0,105.0
5834,61.0,0,384,1.0,105.0
5835,73.0,0,96,4.0,92.0
5836,73.0,120,96,5.0,92.0
5837,70.0,0,96,5.0,92.0
5838,70.0,0,96,4.0,92.0
5839,70.0,120,96,5.0,92.0
5840,70.0,0,96,4.0,92.0
5841,70.0,120,96,5.0,92.0
5842,70.0,0,96,4.0,92.0
5843,58.0,0,384,7.0,105.0
5844,70.0,0,384,0.0,105.0
5845,58.0,120,384,1.0,105.0
5846,70.0,0,384,6.0,105.0
5847,46.0,0,384,8.0,105.0
5848,70.0,0,96,5.0,92.0
5849,70.0,120,96,4.0,92.0
5850,67.0,0,96,5.0,92.0
5851,67.0,0,96,4.0,92.0
5852,67.0,0,96,4.0,92.0
5853,67.0,120,96,5.0,92.0
5854,67.0,0,96,4.0,92.0
5855,67.0,120,96,5.0,92.0
5856,43.0,0,384,8.0,105.0
5857,55.0,0,384,7.0,105.0
5858,55.0,120,384,1.0,105.0
5859,67.0,0,384,6.0,105.0
5860,67.0,0,384,0.0,105.0
5861,67.0,0,96,4.0,92.0
5862,67.0,120,96,5.0,92.0
5863,64.0,0,96,5.0,92.0
5864,64.0,120,96,4.0,92.0
5865,64.0,0,96,4.0,92.0
5866,64.0,120,96,5.0,92.0
5867,64.0,120,96,5.0,92.0
5868,64.0,0,96,4.0,92.0
5869,64.0,0,384,6.0,105.0
5870,52.0,0,384,7.0,105.0
5871,64.0,0,384,0.0,105.0
5872,52.0,0,384,1.0,105.0
5873,40.0,0,384,8.0,105.0
5874,64.0,120,96,5.0,92.0
5875,64.0,0,96,4.0,92.0
5876,58.0,0,1920,2.0,105.0
5877,65.0,0,96,5.0,92.0
5878,65.0,0,96,4.0,92.0
5879,65.0,120,96,5.0,92.0
5880,65.0,0,96,4.0,92.0
5881,65.0,120,96,5.0,92.0
5882,65.0,0,96,4.0,92.0
5883,65.0,120,384,2.0,105.0
5884,65.0,120,96,5.0,92.0
5885,65.0,0,96,4.0,92.0
5886,53.0,0,480,1.0,105.0
5887,53.0,0,480,7.0,105.0
5888,65.0,0,480,0.0,105.0
5889,65.0,0,480,6.0,105.0
5890,41.0,0,480,8.0,105.0
5891,66.0,120,96,5.0,92.0
5892,66.0,0,96,4.0,92.0
5893,66.0,0,96,5.0,92.0
5894,66.0,120,96,4.0,92.0
5895,66.0,0,96,4.0,92.0
5896,66.0,120,96,5.0,92.0
5897,66.0,120,96,4.0,92.0
5898,66.0,0,96,5.0,92.0
5899,54.0,0,480,7.0,105.0
5900,66.0,0,480,0.0,105.0
5901,42.0,0,480,8.0,105.0
5902,66.0,0,480,6.0,105.0
5903,54.0,0,480,1.0,105.0
5904,65.0,0,96,4.0,92.0
5905,65.0,0,96,5.0,92.0
5906,65.0,120,96,5.0,92.0
5907,65.0,0,96,4.0,92.0
5908,65.0,0,96,5.0,92.0
5909,65.0,120,96,4.0,92.0
5910,65.0,120,96,4.0,92.0
5911,65.0,0,96,5.0,92.0
5912,65.0,120,480,0.0,105.0
5913,53.0,0,480,1.0,105.0
5914,65.0,0,480,6.0,105.0
5915,41.0,0,480,8.0,105.0
5916,53.0,0,480,7.0,105.0
5917,64.0,0,96,4.0,92.0
5918,64.0,0,96,5.0,92.0
5919,64.0,0,96,4.0,92.0
5920,64.0,120,96,5.0,92.0
5921,64.0,120,96,4.0,92.0
5922,64.0,0,96,5.0,92.0
5923,40.0,0,384,8.0,105.0
5924,52.0,0,384,7.0,105.0
5925,52.0,0,384,1.0,105.0
5926,64.0,120,384,0.0,105.0
5927,64.0,0,384,6.0,105.0
5928,64.0,0,96,5.0,92.0
5929,64.0,120,96,4.0,92.0
5930,65.0,0,288,6.0,105.0
5931,65.0,0,288,0.0,105.0
5932,53.0,0,288,7.0,105.0
5933,53.0,0,288,1.0,105.0
5934,65.0,0,288,4.0,105.0
5935,41.0,120,288,8.0,105.0
5936,65.0,0,288,2.0,105.0
5937,65.0,0,288,5.0,92.0
5938,77.0,0,288,0.0,105.0
5939,77.0,480,288,5.0,92.0
5940,53.0,0,288,7.0,105.0
5941,77.0,0,288,4.0,105.0
5942,53.0,0,288,1.0,105.0
5943,41.0,0,288,8.0,105.0
5944,65.0,0,288,6.0,105.0
5945,65.0,0,288,2.0,105.0
5946,41.0,0,288,1.0,105.0
5947,65.0,0,288,2.0,105.0
5948,65.0,0,288,0.0,105.0
5949,41.0,0,288,7.0,105.0
5950,53.0,0,288,6.0,105.0
5951,65.0,0,288,4.0,105.0
5952,65.0,480,288,5.0,92.0
5953,29.0,0,288,8.0,105.0
5954,72.0,0,120,4.0,80.0
5955,38.0,960,288,8.0,58.0
5956,50.0,0,288,7.0,58.0
5957,50.0,0,288,1.0,58.0
5958,58.0,0,384,5.0,92.0
5959,70.0,120,288,4.0,80.0
5960,69.0,0,144,4.0,80.0
5961,34.0,0,288,8.0,58.0
5962,46.0,0,288,7.0,58.0
5963,46.0,360,288,1.0,58.0
5964,70.0,240,144,4.0,80.0
5965,74.0,0,120,4.0,80.0
5966,58.0,0,768,5.0,70.0
5967,51.0,240,288,7.0,58.0
5968,39.0,0,288,8.0,58.0
5969,51.0,0,288,1.0,58.0
5970,72.0,120,288,4.0,80.0
5971,70.0,360,144,4.0,80.0
5972,34.0,0,288,8.0,58.0
5973,46.0,0,288,7.0,58.0
5974,46.0,0,288,1.0,58.0
5975,72.0,240,144,4.0,80.0
5976,75.0,0,120,4.0,80.0
5977,41.0,0,288,8.0,58.0
5978,53.0,0,288,7.0,58.0
5979,53.0,240,288,1.0,58.0
5980,58.0,0,864,5.0,70.0
5981,74.0,120,288,4.0,80.0
5982,72.0,360,144,4.0,80.0
5983,34.0,0,288,8.0,58.0
5984,46.0,0,288,1.0,58.0
5985,46.0,0,288,7.0,58.0
5986,74.0,240,144,4.0,80.0
5987,77.0,0,120,4.0,80.0
5988,43.0,240,288,8.0,58.0
5989,55.0,0,288,1.0,58.0
5990,55.0,0,288,7.0,58.0
5991,58.0,0,768,5.0,70.0
5992,75.0,120,288,4.0,80.0
5993,74.0,0,144,4.0,80.0
5994,39.0,360,288,8.0,58.0
5995,51.0,0,288,1.0,58.0
5996,51.0,0,288,7.0,58.0
5997,72.0,240,144,4.0,80.0
5998,72.0,0,120,4.0,80.0
5999,38.0,0,288,8.0,58.0
6000,50.0,240,288,7.0,58.0
6001,50.0,0,288,1.0,58.0
6002,58.0,0,864,5.0,70.0
6003,70.0,120,288,4.0,80.0
6004,69.0,0,144,4.0,80.0
6005,46.0,0,288,1.0,58.0
6006,46.0,0,288,7.0,58.0
6007,34.0,360,288,8.0,58.0
6008,70.0,240,144,4.0,80.0
6009,74.0,0,120,4.0,80.0
6010,51.0,0,288,7.0,58.0
6011,39.0,0,288,8.0,58.0
6012,58.0,0,768,5.0,70.0
6013,51.0,240,288,1.0,58.0
6014,72.0,120,288,4.0,80.0
6015,70.0,0,144,4.0,80.0
6016,46.0,0,288,1.0,58.0
6017,34.0,360,288,8.0,58.0
6018,46.0,0,288,7.0,58.0
6019,72.0,240,144,4.0,80.0
6020,75.0,0,120,4.0,80.0
6021,53.0,0,288,1.0,58.0
6022,41.0,240,288,8.0,58.0
6023,53.0,0,288,7.0,58.0
6024,58.0,0,864,5.0,70.0
6025,74.0,120,288,4.0,80.0
6026,72.0,0,144,4.0,80.0
6027,34.0,0,288,8.0,58.0
6028,46.0,360,288,7.0,58.0
6029,46.0,0,288,1.0,58.0
6030,74.0,240,144,4.0,80.0
6031,77.0,0,120,4.0,80.0
6032,55.0,0,288,1.0,58.0
6033,43.0,240,288,8.0,58.0
6034,55.0,0,288,7.0,58.0
6035,58.0,0,768,5.0,70.0
6036,75.0,120,288,4.0,80.0
6037,74.0,0,144,4.0,80.0
6038,51.0,360,288,7.0,58.0
6039,51.0,0,288,1.0,58.0
6040,39.0,0,288,8.0,58.0
6041,58.0,0,384,5.0,70.0
6042,72.0,240,144,4.0,80.0
6043,70.0,240,240,4.0,80.0
6044,58.0,0,240,5.0,70.0
6045,38.0,0,288,8.0,58.0
6046,50.0,0,288,7.0,58.0
6047,50.0,0,288,1.0,58.0
6048,62.0,0,288,6.0,58.0
6049,82.0,0,144,4.0,70.0
6050,70.0,240,144,5.0,70.0
6051,70.0,240,144,5.0,70.0
6052,82.0,0,144,4.0,70.0
6053,40.0,0,288,8.0,58.0
6054,52.0,0,288,1.0,58.0
6055,64.0,0,288,6.0,58.0
6056,52.0,0,288,7.0,58.0
6057,82.0,240,144,4.0,70.0
6058,70.0,0,144,5.0,70.0
6059,82.0,0,240,4.0,70.0
6060,70.0,0,240,5.0,70.0
6061,65.0,0,288,6.0,58.0
6062,53.0,0,288,7.0,58.0
6063,41.0,240,288,8.0,58.0
6064,53.0,0,288,1.0,58.0
6065,69.0,0,144,5.0,70.0
6066,81.0,240,144,4.0,70.0
6067,67.0,240,144,5.0,70.0
6068,79.0,0,144,4.0,70.0
6069,50.0,0,288,7.0,58.0
6070,62.0,0,288,6.0,58.0
6071,38.0,0,288,8.0,58.0
6072,50.0,0,288,1.0,58.0
6073,65.0,0,144,5.0,70.0
6074,77.0,240,144,4.0,70.0
6075,63.0,0,240,5.0,70.0
6076,75.0,0,240,4.0,70.0
6077,36.0,0,288,8.0,58.0
6078,48.0,0,288,1.0,58.0
6079,48.0,240,288,7.0,58.0
6080,60.0,0,288,6.0,58.0
6081,79.0,240,144,4.0,70.0
6082,67.0,0,144,5.0,70.0
6083,67.0,240,144,5.0,70.0
6084,79.0,0,144,4.0,70.0
6085,46.0,0,288,7.0,58.0
6086,34.0,0,288,8.0,58.0
6087,46.0,0,288,1.0,58.0
6088,58.0,0,288,6.0,58.0
6089,79.0,0,144,4.0,70.0
6090,67.0,240,144,5.0,70.0
6091,79.0,240,240,4.0,70.0
6092,67.0,0,240,5.0,70.0
6093,57.0,0,288,6.0,58.0
6094,33.0,0,288,8.0,58.0
6095,45.0,0,288,7.0,58.0
6096,45.0,0,288,1.0,58.0
6097,77.0,240,144,4.0,70.0
6098,65.0,0,144,5.0,70.0
6099,75.0,0,144,4.0,70.0
6100,63.0,0,144,5.0,70.0
6101,58.0,0,288,6.0,58.0
6102,46.0,240,288,7.0,58.0
6103,46.0,0,288,1.0,58.0
6104,34.0,0,288,8.0,58.0
6105,62.0,240,144,5.0,70.0
6106,74.0,0,144,4.0,70.0
6107,60.0,0,240,5.0,70.0
6108,72.0,0,240,4.0,70.0
6109,39.0,0,288,8.0,58.0
6110,63.0,0,288,6.0,58.0
6111,51.0,0,288,7.0,58.0
6112,51.0,240,288,1.0,58.0
6113,63.0,0,144,5.0,70.0
6114,75.0,240,144,4.0,70.0
6115,75.0,0,144,4.0,70.0
6116,63.0,240,144,5.0,70.0
6117,45.0,0,288,8.0,58.0
6118,57.0,0,288,7.0,58.0
6119,57.0,0,288,1.0,58.0
6120,57.0,0,288,6.0,58.0
6121,63.0,240,144,5.0,70.0
6122,75.0,0,144,4.0,70.0
6123,63.0,0,240,5.0,70.0
6124,75.0,0,240,4.0,70.0
6125,58.0,0,288,7.0,58.0
6126,46.0,0,288,8.0,58.0
6127,58.0,240,288,1.0,58.0
6128,58.0,0,288,6.0,58.0
6129,62.0,0,144,5.0,70.0
6130,74.0,240,144,4.0,70.0
6131,77.0,240,144,4.0,70.0
6132,65.0,0,144,5.0,70.0
6133,41.0,0,288,8.0,58.0
6134,53.0,0,288,7.0,58.0
6135,53.0,0,288,1.0,58.0
6136,53.0,0,288,6.0,58.0
6137,70.0,0,144,4.0,70.0
6138,58.0,240,144,5.0,70.0
6139,62.0,0,240,5.0,70.0
6140,55.0,0,240,6.0,58.0
6141,74.0,0,240,4.0,70.0
6142,51.0,0,288,7.0,58.0
6143,51.0,0,288,1.0,58.0
6144,39.0,240,288,8.0,58.0
6145,63.0,0,144,6.0,58.0
6146,72.0,0,144,4.0,70.0
6147,60.0,240,144,5.0,70.0
6148,62.0,0,144,6.0,58.0
6149,58.0,0,144,5.0,70.0
6150,70.0,0,144,4.0,70.0
6151,53.0,240,288,1.0,58.0
6152,53.0,0,288,7.0,58.0
6153,41.0,0,288,8.0,58.0
6154,60.0,0,144,6.0,58.0
6155,69.0,240,144,4.0,70.0
6156,57.0,0,144,5.0,70.0
6157,72.0,0,120,0.0,105.0
6158,60.0,0,120,5.0,105.0
6159,72.0,0,120,4.0,105.0
6160,65.0,0,192,6.0,105.0
6161,46.0,240,288,8.0,105.0
6162,58.0,0,288,1.0,58.0
6163,58.0,0,288,7.0,105.0
6164,70.0,120,288,4.0,105.0
6165,70.0,0,288,0.0,105.0
6166,58.0,0,288,5.0,105.0
6167,69.0,240,144,0.0,105.0
6168,57.0,0,144,5.0,105.0
6169,69.0,0,144,4.0,105.0
6170,65.0,120,384,6.0,105.0
6171,53.0,0,288,7.0,105.0
6172,53.0,0,288,1.0,105.0
6173,41.0,0,288,8.0,105.0
6174,70.0,240,144,4.0,105.0
6175,58.0,0,144,5.0,105.0
6176,70.0,0,144,0.0,105.0
6177,74.0,240,120,0.0,105.0
6178,62.0,0,120,5.0,105.0
6179,74.0,0,120,4.0,105.0
6180,65.0,0,432,6.0,105.0
6181,45.0,0,288,8.0,105.0
6182,57.0,0,288,1.0,105.0
6183,57.0,0,288,7.0,105.0
6184,72.0,0,288,0.0,105.0
6185,72.0,0,288,4.0,105.0
6186,60.0,120,288,5.0,105.0
6187,58.0,240,144,5.0,105.0
6188,70.0,0,144,0.0,105.0
6189,70.0,0,144,4.0,105.0
6190,65.0,120,384,6.0,105.0
6191,41.0,0,288,8.0,105.0
6192,53.0,0,288,7.0,105.0
6193,53.0,0,288,1.0,105.0
6194,72.0,0,144,0.0,105.0
6195,72.0,0,144,4.0,105.0
6196,60.0,0,144,5.0,105.0
6197,63.0,0,120,5.0,105.0
6198,75.0,0,120,4.0,105.0
6199,75.0,240,120,0.0,105.0
6200,65.0,240,384,6.0,105.0
6201,58.0,0,288,1.0,105.0
6202,46.0,0,288,8.0,105.0
6203,58.0,0,288,7.0,105.0
6204,74.0,0,288,4.0,105.0
6205,62.0,120,288,5.0,105.0
6206,74.0,0,288,0.0,105.0
6207,72.0,0,144,0.0,105.0
6208,72.0,0,144,4.0,105.0
6209,60.0,240,144,5.0,105.0
6210,65.0,120,384,6.0,105.0
6211,41.0,0,288,8.0,105.0
6212,53.0,0,288,7.0,105.0
6213,53.0,0,288,1.0,105.0
6214,74.0,0,144,4.0,105.0
6215,74.0,0,144,0.0,105.0
6216,62.0,240,144,5.0,105.0
6217,65.0,0,432,6.0,105.0
6218,65.0,240,240,5.0,105.0
6219,77.0,0,240,0.0,105.0
6220,77.0,0,240,4.0,105.0
6221,60.0,0,288,7.0,105.0
6222,48.0,0,288,8.0,105.0
6223,60.0,0,288,1.0,105.0
6224,75.0,0,144,0.0,105.0
6225,63.0,240,144,5.0,105.0
6226,75.0,0,144,4.0,105.0
6227,74.0,0,144,0.0,105.0
6228,74.0,0,144,4.0,105.0
6229,65.0,0,384,6.0,105.0
6230,62.0,0,144,5.0,105.0
6231,53.0,240,288,7.0,105.0
6232,65.0,0,2688,2.0,105.0
6233,53.0,0,288,1.0,105.0
6234,41.0,0,288,8.0,105.0
6235,72.0,240,144,4.0,105.0
6236,72.0,0,144,0.0,105.0
6237,60.0,0,144,5.0,105.0
6238,72.0,0,120,4.0,105.0
6239,60.0,0,120,5.0,105.0
6240,65.0,0,384,6.0,105.0
6241,62.0,0,288,2.0,105.0
6242,62.0,0,288,7.0,105.0
6243,62.0,0,288,1.0,105.0
6244,70.0,0,288,0.0,105.0
6245,70.0,0,288,2.0,105.0
6246,50.0,240,288,8.0,105.0
6247,70.0,0,288,4.0,105.0
6248,58.0,120,288,5.0,105.0
6249,65.0,120,384,6.0,105.0
6250,57.0,0,144,5.0,105.0
6251,69.0,0,144,4.0,105.0
6252,65.0,240,288,0.0,80.0
6253,77.0,0,288,0.0,80.0
6254,53.0,0,288,1.0,105.0
6255,41.0,0,288,8.0,105.0
6256,53.0,0,288,7.0,105.0
6257,62.0,0,144,2.0,105.0
6258,58.0,0,144,5.0,105.0
6259,70.0,0,144,4.0,105.0
6260,70.0,0,144,2.0,105.0
6261,74.0,0,120,4.0,105.0
6262,62.0,0,120,5.0,105.0
6263,65.0,240,432,6.0,105.0
6264,57.0,0,288,7.0,105.0
6265,65.0,0,288,2.0,105.0
6266,45.0,0,288,8.0,105.0
6267,57.0,0,288,1.0,105.0
6268,72.0,240,288,2.0,105.0
6269,72.0,120,288,4.0,105.0
6270,60.0,0,288,5.0,105.0
6271,70.0,240,144,4.0,105.0
6272,65.0,120,384,6.0,105.0
6273,58.0,0,144,5.0,105.0
6274,41.0,0,288,8.0,105.0
6275,53.0,0,288,7.0,105.0
6276,53.0,0,288,1.0,105.0
6277,72.0,0,144,2.0,105.0
6278,72.0,240,144,4.0,105.0
6279,60.0,0,144,5.0,105.0
6280,65.0,0,144,2.0,105.0
6281,75.0,0,120,4.0,105.0
6282,63.0,0,120,5.0,105.0
6283,65.0,0,384,6.0,105.0
6284,46.0,0,288,8.0,105.0
6285,58.0,240,288,7.0,105.0
6286,74.0,0,288,2.0,105.0
6287,70.0,0,288,2.0,105.0
6288,58.0,0,288,1.0,105.0
6289,74.0,120,288,4.0,105.0
6290,62.0,0,288,5.0,105.0
6291,65.0,120,384,6.0,105.0
6292,72.0,0,144,4.0,105.0
6293,60.0,0,144,5.0,105.0
6294,53.0,240,288,7.0,105.0
6295,41.0,0,288,8.0,105.0
6296,53.0,0,288,1.0,105.0
6297,74.0,0,144,4.0,105.0
6298,74.0,0,144,2.0,105.0
6299,70.0,0,144,2.0,105.0
6300,62.0,0,144,5.0,105.0
6301,65.0,240,480,6.0,105.0
6302,65.0,0,240,5.0,105.0
6303,77.0,240,240,4.0,105.0
6304,74.0,0,240,2.0,105.0
6305,77.0,0,240,2.0,105.0
6306,48.0,0,288,8.0,105.0
6307,60.0,0,288,1.0,105.0
6308,60.0,0,288,7.0,105.0
6309,63.0,0,144,5.0,105.0
6310,75.0,240,144,4.0,105.0
6311,72.0,0,144,6.0,105.0
6312,72.0,0,144,2.0,105.0
6313,75.0,0,144,2.0,105.0
6314,70.0,240,144,2.0,105.0
6315,62.0,0,144,5.0,105.0
6316,74.0,0,144,4.0,105.0
6317,74.0,0,144,2.0,105.0
6318,70.0,0,144,6.0,105.0
6319,53.0,0,288,1.0,105.0
6320,41.0,0,288,8.0,105.0
6321,77.0,0,2688,0.0,80.0
6322,65.0,0,2688,0.0,80.0
6323,53.0,0,288,7.0,105.0
6324,72.0,0,144,2.0,105.0
6325,69.0,0,144,6.0,105.0
6326,60.0,240,144,5.0,105.0
6327,72.0,0,144,4.0,105.0
6328,65.0,0,144,2.0,105.0
6329,58.0,0,240,5.0,105.0
6330,70.0,240,240,0.0,80.0
6331,70.0,0,240,4.0,105.0
6332,58.0,0,288,2.0,105.0
6333,70.0,0,288,2.0,105.0
6334,62.0,0,288,1.0,105.0
6335,70.0,0,288,6.0,105.0
6336,50.0,0,288,8.0,105.0
6337,62.0,0,288,7.0,105.0
6338,82.0,0,144,4.0,105.0
6339,70.0,240,144,5.0,105.0
6340,82.0,0,144,0.0,105.0
6341,70.0,0,144,5.0,105.0
6342,82.0,0,144,4.0,105.0
6343,82.0,0,144,0.0,105.0
6344,67.0,0,288,6.0,105.0
6345,64.0,0,288,7.0,105.0
6346,64.0,0,288,1.0,105.0
6347,52.0,240,288,8.0,105.0
6348,82.0,0,144,0.0,105.0
6349,70.0,240,144,5.0,105.0
6350,82.0,0,144,4.0,105.0
6351,70.0,0,240,5.0,105.0
6352,82.0,240,240,4.0,105.0
6353,82.0,0,240,0.0,105.0
6354,53.0,0,288,8.0,105.0
6355,65.0,0,288,7.0,105.0
6356,65.0,0,288,1.0,105.0
6357,60.0,0,288,6.0,105.0
6358,81.0,0,144,0.0,105.0
6359,81.0,0,144,4.0,105.0
6360,69.0,240,144,5.0,105.0
6361,79.0,0,144,4.0,105.0
6362,79.0,0,144,0.0,105.0
6363,67.0,240,144,5.0,105.0
6364,62.0,0,288,7.0,105.0
6365,62.0,0,288,1.0,105.0
6366,50.0,0,288,8.0,105.0
6367,62.0,0,288,6.0,105.0
6368,77.0,240,144,4.0,105.0
6369,77.0,0,144,0.0,105.0
6370,65.0,0,144,5.0,105.0
6371,67.0,240,240,6.0,105.0
6372,75.0,0,240,0.0,105.0
6373,63.0,0,240,5.0,105.0
6374,75.0,0,240,4.0,105.0
6375,60.0,0,288,1.0,105.0
6376,48.0,0,288,8.0,105.0
6377,60.0,0,288,7.0,105.0
6378,67.0,0,144,5.0,105.0
6379,79.0,0,144,4.0,105.0
6380,63.0,0,144,6.0,105.0
6381,79.0,240,144,0.0,105.0
6382,79.0,240,144,0.0,105.0
6383,79.0,0,144,4.0,105.0
6384,63.0,0,144,6.0,105.0
6385,67.0,0,144,5.0,105.0
6386,57.0,0,288,7.0,105.0
6387,57.0,0,288,1.0,105.0
6388,45.0,0,288,8.0,105.0
6389,79.0,0,144,4.0,105.0
6390,63.0,0,144,6.0,105.0
6391,79.0,0,144,0.0,105.0
6392,67.0,240,144,5.0,105.0
6393,63.0,0,240,6.0,105.0
6394,79.0,0,240,0.0,105.0
6395,67.0,0,240,5.0,105.0
6396,79.0,0,240,4.0,105.0
6397,46.0,240,288,8.0,105.0
6398,58.0,0,288,1.0,105.0
6399,58.0,0,288,7.0,105.0
6400,65.0,0,144,5.0,105.0
6401,77.0,0,144,0.0,105.0
6402,77.0,0,144,4.0,105.0
6403,62.0,240,144,6.0,105.0
6404,63.0,0,144,5.0,105.0
6405,60.0,0,144,6.0,105.0
6406,75.0,0,144,0.0,105.0
6407,75.0,240,144,4.0,105.0
6408,34.0,0,288,8.0,105.0
6409,46.0,0,288,1.0,105.0
6410,46.0,0,288,7.0,105.0
6411,58.0,240,144,6.0,105.0
6412,62.0,0,144,5.0,105.0
6413,74.0,0,144,0.0,105.0
6414,74.0,0,144,4.0,105.0
6415,60.0,0,240,5.0,105.0
6416,72.0,240,240,4.0,105.0
6417,57.0,0,240,6.0,105.0
6418,72.0,0,240,0.0,105.0
6419,53.0,0,288,7.0,105.0
6420,53.0,0,288,1.0,105.0
6421,41.0,0,288,8.0,105.0
6422,60.0,0,144,6.0,105.0
6423,75.0,0,144,4.0,105.0
6424,63.0,240,144,5.0,105.0
6425,75.0,0,144,0.0,105.0
6426,60.0,0,144,6.0,105.0
6427,75.0,0,144,0.0,105.0
6428,63.0,0,144,5.0,105.0
6429,75.0,0,144,4.0,105.0
6430,42.0,0,288,8.0,105.0
6431,54.0,240,288,7.0,105.0
6432,54.0,0,288,1.0,105.0
6433,60.0,240,144,6.0,105.0
6434,75.0,0,144,0.0,105.0
6435,63.0,0,144,5.0,105.0
6436,75.0,0,144,4.0,105.0
6437,63.0,0,240,5.0,105.0
6438,75.0,0,240,0.0,105.0
6439,75.0,0,240,4.0,105.0
6440,60.0,240,240,6.0,105.0
6441,74.0,0,144,4.0,105.0
6442,74.0,240,144,0.0,105.0
6443,58.0,0,144,6.0,105.0
6444,55.0,0,384,7.0,105.0
6445,55.0,0,384,1.0,105.0
6446,43.0,0,384,8.0,105.0
6447,62.0,0,144,5.0,105.0
6448,62.0,0,144,6.0,105.0
6449,77.0,0,144,0.0,105.0
6450,77.0,240,144,4.0,105.0
6451,65.0,0,144,5.0,105.0
6452,70.0,0,144,0.0,105.0
6453,70.0,0,144,4.0,105.0
6454,50.0,0,384,7.0,105.0
6455,38.0,0,384,8.0,105.0
6456,58.0,240,144,5.0,105.0
6457,50.0,0,384,1.0,105.0
6458,65.0,0,144,6.0,105.0
6459,74.0,0,240,4.0,105.0
6460,74.0,0,240,0.0,105.0
6461,65.0,0,240,6.0,105.0
6462,62.0,0,240,5.0,105.0
6463,39.0,0,384,8.0,105.0
6464,72.0,0,144,4.0,105.0
6465,72.0,0,144,0.0,105.0
6466,51.0,0,384,1.0,105.0
6467,63.0,0,144,6.0,105.0
6468,51.0,240,384,7.0,105.0
6469,60.0,240,144,5.0,105.0
6470,70.0,0,144,0.0,105.0
6471,58.0,0,144,5.0,105.0
6472,62.0,0,144,6.0,105.0
6473,70.0,0,144,4.0,105.0
6474,69.0,240,144,4.0,105.0
6475,53.0,0,384,7.0,105.0
6476,41.0,0,384,8.0,105.0
6477,57.0,0,144,5.0,105.0
6478,60.0,0,144,6.0,105.0
6479,53.0,240,384,1.0,105.0
6480,69.0,0,144,0.0,105.0
6481,58.0,240,192,5.0,125.0
6482,70.0,0,192,4.0,125.0
6483,72.0,0,96,4.0,105.0
6484,60.0,240,96,5.0,105.0
6485,46.0,0,384,7.0,105.0
6486,70.0,0,384,2.0,105.0
6487,34.0,0,384,8.0,105.0
6488,46.0,0,384,1.0,105.0
6489,70.0,0,384,0.0,105.0
6490,62.0,0,384,2.0,105.0
6491,58.0,0,384,6.0,105.0
6492,74.0,0,96,4.0,105.0
6493,62.0,120,96,5.0,105.0
6494,75.0,120,96,4.0,105.0
6495,63.0,0,96,5.0,105.0
6496,77.0,120,96,4.0,105.0
6497,65.0,0,96,5.0,105.0
6498,67.0,0,96,5.0,105.0
6499,79.0,120,96,4.0,105.0
6500,81.0,0,96,4.0,105.0
6501,69.0,120,96,5.0,105.0
6502,70.0,120,384,5.0,105.0
6503,58.0,0,144,7.0,105.0
6504,46.0,240,144,8.0,105.0
6505,62.0,0,144,6.0,105.0
6506,58.0,0,144,1.0,105.0
6507,82.0,0,384,4.0,105.0
6508,62.0,0,144,7.0,105.0
6509,62.0,240,144,1.0,105.0
6510,50.0,0,144,8.0,105.0
6511,65.0,0,144,6.0,105.0
6512,74.0,0,768,0.0,105.0
6513,82.0,0,768,0.0,105.0
6514,58.0,0,768,2.0,105.0
6515,70.0,0,768,2.0,105.0
6516,46.0,0,144,8.0,105.0
6517,62.0,240,144,6.0,105.0
6518,58.0,0,144,1.0,105.0
6519,58.0,0,144,7.0,105.0
6520,67.0,0,192,4.0,125.0
6521,55.0,0,192,5.0,125.0
6522,69.0,240,96,4.0,105.0
6523,57.0,0,96,5.0,105.0
6524,79.0,0,384,0.0,105.0
6525,55.0,0,384,1.0,105.0
6526,58.0,0,384,6.0,105.0
6527,55.0,240,384,7.0,105.0
6528,70.0,0,384,0.0,105.0
6529,43.0,0,384,8.0,105.0
6530,70.0,0,384,2.0,105.0
6531,58.0,0,384,2.0,105.0
6532,58.0,0,96,5.0,105.0
6533,70.0,120,96,4.0,105.0
6534,72.0,120,96,4.0,105.0
6535,60.0,0,96,5.0,105.0
6536,62.0,0,96,5.0,105.0
6537,74.0,120,96,4.0,105.0
6538,75.0,0,96,4.0,105.0
6539,63.0,120,96,5.0,105.0
6540,77.0,0,96,4.0,105.0
6541,65.0,120,96,5.0,105.0
6542,39.0,240,144,8.0,105.0
6543,79.0,0,384,4.0,105.0
6544,51.0,0,144,7.0,105.0
6545,51.0,0,144,1.0,105.0
6546,67.0,0,144,6.0,105.0
6547,67.0,0,384,5.0,105.0
6548,70.0,240,144,6.0,105.0
6549,55.0,0,144,1.0,105.0
6550,55.0,0,144,7.0,105.0
6551,43.0,0,144,8.0,105.0
6552,79.0,0,768,0.0,105.0
6553,70.0,0,768,0.0,105.0
6554,70.0,120,768,2.0,105.0
6555,58.0,0,768,2.0,105.0
6556,51.0,0,144,1.0,105.0
6557,39.0,240,144,8.0,105.0
6558,67.0,0,144,6.0,105.0
6559,51.0,0,144,7.0,105.0
6560,65.0,0,288,5.0,105.0
6561,65.0,0,288,6.0,105.0
6562,70.0,0,288,2.0,105.0
6563,58.0,0,288,2.0,105.0
6564,77.0,0,288,0.0,105.0
6565,70.0,0,288,0.0,105.0
6566,50.0,0,288,7.0,105.0
6567,50.0,240,288,1.0,105.0
6568,38.0,0,288,8.0,105.0
6569,77.0,0,288,4.0,105.0
6570,82.0,0,288,4.0,105.0
6571,74.0,0,288,4.0,105.0
6572,70.0,0,288,2.0,105.0
6573,67.0,0,288,6.0,105.0
6574,70.0,0,288,5.0,105.0
6575,55.0,0,288,1.0,105.0
6576,55.0,480,288,7.0,105.0
6577,43.0,0,288,8.0,105.0
6578,82.0,0,288,0.0,105.0
6579,74.0,0,288,2.0,105.0
6580,74.0,0,288,0.0,105.0
6581,67.0,0,288,6.0,105.0
6582,72.0,480,288,0.0,105.0
6583,72.0,0,288,2.0,105.0
6584,67.0,0,288,5.0,105.0
6585,51.0,0,288,1.0,105.0
6586,39.0,0,288,8.0,105.0
6587,72.0,0,288,4.0,105.0
6588,51.0,0,288,7.0,105.0
6589,70.0,0,288,2.0,105.0
6590,75.0,0,288,0.0,105.0
6591,81.0,0,288,0.0,105.0
6592,53.0,0,288,1.0,105.0
6593,53.0,0,288,7.0,105.0
6594,65.0,0,288,5.0,105.0
6595,75.0,0,288,5.0,105.0
6596,65.0,0,288,6.0,105.0
6597,81.0,0,288,4.0,105.0
6598,41.0,0,288,8.0,105.0
6599,72.0,0,288,4.0,105.0
6600,72.0,480,288,2.0,105.0
6601,65.0,0,288,2.0,105.0
6602,82.0,0,96,4.0,105.0
6603,65.0,0,192,5.0,105.0
6604,74.0,0,192,5.0,105.0
6605,82.0,120,96,4.0,105.0
6606,82.0,120,96,4.0,105.0
6607,70.0,0,384,2.0,105.0
6608,62.0,0,384,2.0,105.0
6609,82.0,120,96,4.0,105.0
6610,77.0,120,96,4.0,105.0
6611,65.0,0,384,5.0,105.0
6612,74.0,0,384,5.0,105.0
6613,77.0,120,96,4.0,105.0
6614,46.0,0,768,7.0,105.0
6615,46.0,480,768,1.0,105.0
6616,58.0,0,768,6.0,105.0
6617,34.0,0,768,8.0,105.0
6618,77.0,0,96,4.0,105.0
6619,77.0,120,96,4.0,105.0
6620,82.0,0,960,0.0,105.0
6621,74.0,0,0,0.0,105.0
6622,74.0,120,96,4.0,105.0
6623,65.0,0,384,5.0,105.0
6624,74.0,120,384,5.0,105.0
6625,74.0,120,96,4.0,105.0
6626,74.0,120,96,4.0,105.0
6627,74.0,120,96,4.0,105.0
6628,70.0,0,96,4.0,105.0
6629,34.0,120,120,8.0,105.0
6630,46.0,0,120,1.0,105.0
6631,46.0,0,120,7.0,105.0
6632,58.0,0,120,6.0,105.0
6633,74.0,0,384,5.0,105.0
6634,65.0,0,384,5.0,105.0
6635,70.0,0,96,4.0,105.0
6636,36.0,120,120,8.0,105.0
6637,48.0,0,120,7.0,105.0
6638,48.0,0,120,1.0,105.0
6639,60.0,0,120,6.0,105.0
6640,77.0,0,768,0.0,105.0
6641,70.0,0,96,4.0,105.0
6642,62.0,0,120,6.0,105.0
6643,50.0,0,120,7.0,105.0
6644,50.0,0,120,1.0,105.0
6645,38.0,0,120,8.0,105.0
6646,58.0,0,384,2.0,105.0
6647,63.0,0,96,6.0,105.0
6648,39.0,0,96,8.0,105.0
6649,70.0,120,96,4.0,105.0
6650,51.0,0,96,7.0,105.0
6651,51.0,0,96,1.0,105.0
6652,74.0,0,240,5.0,105.0
6653,69.0,0,96,4.0,105.0
6654,75.0,0,192,5.0,105.0
6655,65.0,120,432,5.0,105.0
6656,69.0,120,96,4.0,105.0
6657,69.0,0,96,4.0,105.0
6658,65.0,120,384,2.0,105.0
6659,69.0,120,96,4.0,105.0
6660,72.0,120,96,4.0,105.0
6661,65.0,120,384,5.0,105.0
6662,75.0,0,384,5.0,105.0
6663,72.0,120,96,4.0,105.0
6664,53.0,0,768,7.0,105.0
6665,65.0,0,768,6.0,105.0
6666,53.0,0,768,1.0,105.0
6667,41.0,0,768,8.0,105.0
6668,72.0,0,96,4.0,105.0
6669,72.0,120,96,4.0,105.0
6670,75.0,0,960,0.0,105.0
6671,72.0,120,0,0.0,105.0
6672,77.0,0,96,4.0,105.0
6673,75.0,120,384,5.0,105.0
6674,65.0,0,384,5.0,105.0
6675,77.0,120,96,4.0,105.0
6676,77.0,0,96,4.0,105.0
6677,77.0,120,96,4.0,105.0
6678,81.0,120,96,4.0,105.0
6679,53.0,0,120,7.0,105.0
6680,41.0,0,120,8.0,105.0
6681,65.0,0,120,6.0,105.0
6682,53.0,0,120,1.0,105.0
6683,75.0,0,384,5.0,105.0
6684,65.0,120,384,5.0,105.0
6685,81.0,0,96,4.0,105.0
6686,39.0,0,120,8.0,105.0
6687,63.0,0,120,6.0,105.0
6688,51.0,0,120,1.0,105.0
6689,51.0,120,120,7.0,105.0
6690,69.0,0,768,0.0,105.0
6691,81.0,0,96,4.0,105.0
6692,38.0,120,120,8.0,105.0
6693,62.0,0,120,6.0,105.0
6694,50.0,0,120,1.0,105.0
6695,50.0,0,120,7.0,105.0
6696,65.0,0,384,2.0,105.0
6697,60.0,0,96,6.0,105.0
6698,48.0,0,96,1.0,105.0
6699,48.0,120,96,7.0,105.0
6700,81.0,0,96,4.0,105.0
6701,36.0,0,96,8.0,105.0
6702,75.0,0,240,5.0,105.0
6703,82.0,120,96,4.0,105.0
6704,74.0,0,192,5.0,105.0
6705,65.0,0,432,5.0,105.0
6706,82.0,120,96,4.0,105.0
6707,82.0,0,96,4.0,105.0
6708,58.0,0,384,2.0,105.0
6709,82.0,120,96,4.0,105.0
6710,77.0,120,96,4.0,105.0
6711,74.0,120,384,5.0,105.0
6712,65.0,0,384,5.0,105.0
6713,77.0,120,96,4.0,105.0
6714,34.0,0,768,8.0,105.0
6715,58.0,0,768,6.0,105.0
6716,46.0,0,768,1.0,105.0
6717,46.0,0,768,7.0,105.0
6718,77.0,0,96,4.0,105.0
6719,77.0,120,96,4.0,105.0
6720,74.0,0,960,0.0,105.0
6721,70.0,0,960,0.0,105.0
6722,74.0,120,96,4.0,105.0
6723,65.0,0,384,5.0,105.0
6724,74.0,120,384,5.0,105.0
6725,74.0,120,96,4.0,105.0
6726,74.0,0,96,4.0,105.0
6727,74.0,120,96,4.0,105.0
6728,70.0,0,96,4.0,105.0
6729,58.0,0,120,6.0,105.0
6730,34.0,0,120,8.0,105.0
6731,46.0,120,120,7.0,105.0
6732,46.0,0,120,1.0,105.0
6733,65.0,0,384,5.0,105.0
6734,74.0,120,384,5.0,105.0
6735,70.0,0,96,4.0,105.0
6736,48.0,0,120,1.0,105.0
6737,36.0,0,120,8.0,105.0
6738,60.0,120,120,6.0,105.0
6739,48.0,0,120,7.0,105.0
6740,74.0,0,768,0.0,105.0
6741,77.0,0,768,0.0,105.0
6742,70.0,0,96,4.0,105.0
6743,62.0,0,120,6.0,105.0
6744,50.0,0,120,1.0,105.0
6745,50.0,0,120,7.0,105.0
6746,38.0,120,120,8.0,105.0
6747,58.0,0,384,2.0,105.0
6748,51.0,0,96,7.0,105.0
6749,70.0,0,96,4.0,105.0
6750,63.0,120,96,6.0,105.0
6751,51.0,0,96,1.0,105.0
6752,39.0,0,96,8.0,105.0
6753,74.0,0,240,5.0,105.0
6754,69.0,0,96,4.0,105.0
6755,65.0,0,432,5.0,105.0
6756,75.0,0,192,5.0,105.0
6757,69.0,120,96,4.0,105.0
6758,69.0,120,96,4.0,105.0
6759,65.0,0,384,2.0,105.0
6760,69.0,120,96,4.0,105.0
6761,72.0,120,96,4.0,105.0
6762,65.0,0,384,5.0,105.0
6763,75.0,0,384,5.0,105.0
6764,72.0,120,96,4.0,105.0
6765,65.0,0,768,6.0,105.0
6766,41.0,120,768,8.0,105.0
6767,53.0,0,768,1.0,105.0
6768,53.0,0,768,7.0,105.0
6769,72.0,120,96,4.0,105.0
6770,72.0,120,96,4.0,105.0
6771,75.0,0,960,0.0,105.0
6772,72.0,0,960,0.0,105.0
6773,77.0,0,96,4.0,105.0
6774,65.0,0,384,5.0,105.0
6775,75.0,0,384,5.0,105.0
6776,77.0,120,96,4.0,105.0
6777,77.0,0,96,4.0,105.0
6778,77.0,120,96,4.0,105.0
6779,81.0,0,96,4.0,105.0
6780,53.0,0,120,7.0,105.0
6781,65.0,0,120,6.0,105.0
6782,41.0,120,120,8.0,105.0
6783,53.0,0,120,1.0,105.0
6784,65.0,0,384,5.0,105.0
6785,75.0,120,384,5.0,105.0
6786,81.0,0,96,4.0,105.0
6787,63.0,120,120,6.0,105.0
6788,51.0,0,120,7.0,105.0
6789,39.0,0,120,8.0,105.0
6790,51.0,0,120,1.0,105.0
6791,69.0,120,768,0.0,105.0
6792,72.0,0,768,0.0,105.0
6793,81.0,0,96,4.0,105.0
6794,50.0,0,120,1.0,105.0
6795,38.0,0,120,8.0,105.0
6796,62.0,0,120,6.0,105.0
6797,50.0,0,120,7.0,105.0
6798,65.0,0,384,2.0,105.0
6799,65.0,120,192,5.0,105.0
6800,75.0,0,192,5.0,105.0
6801,48.0,0,96,7.0,105.0
6802,81.0,0,96,4.0,105.0
6803,36.0,0,96,8.0,105.0
6804,48.0,0,96,1.0,105.0
6805,60.0,120,96,6.0,105.0
6806,82.0,0,96,4.0,105.0
6807,82.0,120,96,4.0,105.0
6808,82.0,120,96,4.0,105.0
6809,70.0,0,384,0.0,105.0
6810,46.0,0,384,1.0,105.0
6811,46.0,0,384,7.0,105.0
6812,58.0,0,384,2.0,105.0
6813,58.0,120,384,6.0,105.0
6814,34.0,0,384,8.0,105.0
6815,74.0,0,384,5.0,105.0
6816,65.0,0,384,5.0,105.0
6817,82.0,120,96,4.0,105.0
6818,70.0,0,96,4.0,105.0
6819,70.0,0,96,5.0,92.0
6820,70.0,0,96,4.0,105.0
6821,70.0,120,96,5.0,92.0
6822,70.0,120,96,5.0,92.0
6823,70.0,0,96,4.0,105.0
6824,70.0,120,96,5.0,92.0
6825,70.0,0,96,4.0,105.0
6826,46.0,0,480,8.0,105.0
6827,58.0,0,480,1.0,105.0
6828,58.0,120,480,6.0,105.0
6829,58.0,0,480,7.0,105.0
6830,70.0,0,480,0.0,105.0
6831,72.0,0,96,4.0,105.0
6832,72.0,0,96,5.0,92.0
6833,72.0,120,96,5.0,92.0
6834,72.0,0,96,4.0,105.0
6835,72.0,120,96,5.0,92.0
6836,72.0,0,96,4.0,105.0
6837,72.0,0,96,4.0,105.0
6838,72.0,120,96,5.0,92.0
6839,72.0,0,480,0.0,105.0
6840,60.0,0,480,6.0,105.0
6841,48.0,120,480,8.0,105.0
6842,60.0,0,480,1.0,105.0
6843,60.0,0,480,7.0,105.0
6844,74.0,0,96,4.0,105.0
6845,74.0,0,96,5.0,92.0
6846,74.0,0,96,5.0,92.0
6847,74.0,120,96,4.0,105.0
6848,74.0,120,96,4.0,105.0
6849,74.0,0,96,5.0,92.0
6850,62.0,120,384,7.0,105.0
6851,50.0,0,384,8.0,105.0
6852,62.0,0,384,6.0,105.0
6853,62.0,0,384,1.0,105.0
6854,74.0,0,384,0.0,105.0
6855,74.0,120,96,5.0,92.0
6856,74.0,0,96,4.0,105.0
6857,75.0,0,96,5.0,92.0
6858,75.0,0,96,4.0,105.0
6859,75.0,120,96,5.0,92.0
6860,75.0,0,96,4.0,105.0
6861,75.0,120,96,5.0,92.0
6862,75.0,0,96,4.0,105.0
6863,75.0,0,96,4.0,105.0
6864,75.0,120,96,5.0,92.0
6865,63.0,0,480,6.0,105.0
6866,63.0,0,480,1.0,105.0
6867,63.0,120,480,7.0,105.0
6868,51.0,0,480,8.0,105.0
6869,75.0,0,480,0.0,105.0
6870,72.0,0,96,4.0,105.0
6871,72.0,0,96,5.0,92.0
6872,72.0,0,96,4.0,105.0
6873,72.0,120,96,5.0,92.0
6874,72.0,0,96,4.0,105.0
6875,72.0,120,96,5.0,92.0
6876,72.0,120,96,4.0,105.0
6877,72.0,0,96,5.0,92.0
6878,60.0,0,480,1.0,105.0
6879,60.0,0,480,6.0,105.0
6880,72.0,0,480,0.0,105.0
6881,60.0,0,480,7.0,105.0
6882,48.0,120,480,8.0,105.0
6883,69.0,0,96,4.0,105.0
6884,69.0,0,96,5.0,92.0
6885,69.0,120,96,4.0,105.0
6886,69.0,0,96,5.0,92.0
6887,69.0,0,96,4.0,105.0
6888,69.0,120,96,5.0,92.0
6889,69.0,0,96,5.0,92.0
6890,69.0,120,96,4.0,105.0
6891,57.0,0,480,7.0,105.0
6892,45.0,0,480,8.0,105.0
6893,57.0,0,480,1.0,105.0
6894,57.0,120,480,6.0,105.0
6895,69.0,0,480,0.0,105.0
6896,78.0,120,96,4.0,105.0
6897,78.0,0,96,5.0,92.0
6898,78.0,120,96,4.0,105.0
6899,78.0,0,96,5.0,92.0
6900,78.0,0,96,5.0,92.0
6901,78.0,120,96,4.0,105.0
6902,66.0,0,384,7.0,105.0
6903,78.0,0,384,0.0,105.0
6904,66.0,0,384,1.0,105.0
6905,54.0,0,384,8.0,105.0
6906,66.0,0,384,6.0,105.0
6907,78.0,120,96,4.0,105.0
6908,78.0,0,96,5.0,92.0
6909,67.0,0,312,1.0,105.0
6910,67.0,120,312,6.0,105.0
6911,55.0,0,312,8.0,105.0
6912,79.0,0,312,4.0,105.0
6913,67.0,0,312,7.0,105.0
6914,79.0,0,312,5.0,92.0
6915,55.0,0,384,3.0,92.0
6916,67.0,0,384,3.0,92.0
6917,79.0,0,384,0.0,105.0
6918,67.0,0,96,4.0,105.0
6919,67.0,0,96,5.0,92.0
6920,67.0,120,96,5.0,92.0
6921,67.0,0,96,4.0,105.0
6922,67.0,120,96,5.0,92.0
6923,67.0,0,96,4.0,105.0
6924,67.0,120,96,5.0,92.0
6925,67.0,0,96,4.0,105.0
6926,55.0,0,480,7.0,105.0
6927,55.0,0,480,1.0,105.0
6928,43.0,0,480,8.0,105.0
6929,55.0,480,480,6.0,105.0
6930,67.0,0,480,0.0,105.0
6931,68.0,120,96,4.0,105.0
6932,68.0,0,96,5.0,92.0
6933,68.0,120,96,5.0,92.0
6934,68.0,0,96,4.0,105.0
6935,68.0,120,96,4.0,105.0
6936,68.0,0,96,5.0,92.0
6937,68.0,0,96,4.0,105.0
6938,68.0,120,96,5.0,92.0
6939,56.0,0,480,6.0,105.0
6940,56.0,0,480,7.0,105.0
6941,68.0,0,480,0.0,105.0
6942,44.0,0,480,8.0,105.0
6943,56.0,0,480,1.0,105.0
6944,70.0,0,96,4.0,105.0
6945,70.0,120,96,5.0,92.0
6946,70.0,0,96,5.0,92.0
6947,70.0,120,96,4.0,105.0
6948,70.0,0,96,4.0,105.0
6949,70.0,120,96,5.0,92.0
6950,58.0,0,384,6.0,105.0
6951,46.0,0,384,8.0,105.0
6952,58.0,0,384,1.0,105.0
6953,70.0,0,384,0.0,105.0
6954,58.0,0,384,7.0,105.0
6955,70.0,0,96,4.0,105.0
6956,70.0,120,96,5.0,92.0
6957,72.0,0,96,5.0,92.0
6958,72.0,120,96,4.0,105.0
6959,72.0,120,96,5.0,92.0
6960,72.0,0,96,4.0,105.0
6961,72.0,120,96,4.0,105.0
6962,72.0,0,96,5.0,92.0
6963,72.0,0,96,5.0,92.0
6964,72.0,120,96,4.0,105.0
6965,60.0,0,480,7.0,105.0
6966,60.0,0,480,6.0,105.0
6967,48.0,0,480,8.0,105.0
6968,60.0,0,480,1.0,105.0
6969,72.0,0,480,0.0,105.0
6970,68.0,0,96,4.0,105.0
6971,68.0,0,96,5.0,92.0
6972,68.0,120,96,4.0,105.0
6973,68.0,0,96,5.0,92.0
6974,68.0,120,96,5.0,92.0
6975,68.0,0,96,4.0,105.0
6976,68.0,0,96,4.0,105.0
6977,68.0,120,96,5.0,92.0
6978,56.0,0,480,1.0,105.0
6979,56.0,0,480,6.0,105.0
6980,56.0,120,480,7.0,105.0
6981,44.0,0,480,8.0,105.0
6982,68.0,0,480,0.0,105.0
6983,65.0,120,96,4.0,105.0
6984,65.0,0,96,5.0,92.0
6985,65.0,120,96,4.0,105.0
6986,65.0,0,96,5.0,92.0
6987,65.0,0,96,4.0,105.0
6988,65.0,120,96,5.0,92.0
6989,53.0,0,384,6.0,105.0
6990,53.0,0,384,7.0,105.0
6991,65.0,0,384,0.0,105.0
6992,53.0,0,384,1.0,105.0
6993,41.0,0,384,8.0,105.0
6994,65.0,0,96,5.0,92.0
6995,65.0,120,96,4.0,105.0
6996,74.0,120,96,5.0,92.0
6997,74.0,0,96,4.0,105.0
6998,74.0,120,96,5.0,92.0
6999,74.0,0,96,4.0,105.0
7000,74.0,120,96,4.0,105.0
7001,74.0,0,96,5.0,92.0
7002,74.0,0,96,4.0,105.0
7003,74.0,120,96,5.0,92.0
7004,50.0,0,480,8.0,105.0
7005,62.0,0,480,7.0,105.0
7006,74.0,0,480,0.0,105.0
7007,62.0,0,480,1.0,105.0
7008,62.0,0,480,6.0,105.0
7009,51.0,0,312,8.0,105.0
7010,63.0,0,312,6.0,105.0
7011,75.0,0,312,4.0,105.0
7012,75.0,120,312,5.0,92.0
7013,63.0,0,312,1.0,105.0
7014,63.0,0,312,7.0,105.0
7015,58.0,0,384,2.0,105.0
7016,75.0,0,384,0.0,105.0
7017,55.0,0,384,3.0,105.0
7018,63.0,0,96,5.0,92.0
7019,63.0,0,96,4.0,105.0
7020,63.0,0,96,5.0,92.0
7021,63.0,120,96,4.0,105.0
7022,63.0,0,96,4.0,105.0
7023,63.0,120,96,5.0,92.0
7024,63.0,120,96,4.0,105.0
7025,63.0,0,96,5.0,92.0
7026,51.0,0,480,7.0,105.0
7027,39.0,0,480,8.0,105.0
7028,51.0,480,480,6.0,105.0
7029,51.0,0,480,1.0,105.0
7030,63.0,0,480,0.0,105.0
7031,65.0,0,96,5.0,92.0
7032,65.0,0,96,4.0,105.0
7033,65.0,120,96,4.0,105.0
7034,65.0,0,96,5.0,92.0
7035,65.0,0,96,5.0,92.0
7036,65.0,120,96,4.0,105.0
7037,65.0,0,96,4.0,105.0
7038,65.0,120,96,5.0,92.0
7039,53.0,0,480,7.0,105.0
7040,65.0,120,480,0.0,105.0
7041,41.0,0,480,8.0,105.0
7042,53.0,0,480,1.0,105.0
7043,53.0,0,480,6.0,105.0
7044,67.0,0,96,5.0,92.0
7045,67.0,0,96,4.0,105.0
7046,67.0,0,96,5.0,92.0
7047,67.0,120,96,4.0,105.0
7048,67.0,120,96,4.0,105.0
7049,67.0,0,96,5.0,92.0
7050,55.0,0,384,7.0,105.0
7051,55.0,0,384,1.0,105.0
7052,67.0,0,384,0.0,105.0
7053,55.0,0,384,6.0,105.0
7054,43.0,120,384,8.0,105.0
7055,67.0,120,96,5.0,92.0
7056,67.0,0,96,4.0,105.0
7057,68.0,0,96,4.0,105.0
7058,68.0,120,96,5.0,92.0
7059,68.0,120,96,4.0,105.0
7060,68.0,0,96,5.0,92.0
7061,68.0,120,96,5.0,92.0
7062,68.0,0,96,4.0,105.0
7063,68.0,120,96,4.0,105.0
7064,68.0,0,96,5.0,92.0
7065,68.0,0,480,0.0,105.0
7066,44.0,0,480,8.0,105.0
7067,56.0,0,480,7.0,105.0
7068,56.0,0,480,1.0,105.0
7069,56.0,0,480,6.0,105.0
7070,65.0,0,96,5.0,92.0
7071,65.0,0,96,4.0,105.0
7072,65.0,0,96,5.0,92.0
7073,65.0,120,96,4.0,105.0
7074,65.0,120,96,4.0,105.0
7075,65.0,0,96,5.0,92.0
7076,65.0,120,96,4.0,105.0
7077,65.0,0,96,5.0,92.0
7078,41.0,0,480,8.0,105.0
7079,53.0,0,480,1.0,105.0
7080,53.0,120,480,6.0,105.0
7081,65.0,0,480,0.0,105.0
7082,53.0,0,480,7.0,105.0
7083,62.0,0,96,4.0,105.0
7084,62.0,120,96,5.0,92.0
7085,62.0,0,96,5.0,92.0
7086,62.0,120,96,4.0,105.0
7087,62.0,120,96,5.0,92.0
7088,62.0,0,96,4.0,105.0
7089,62.0,0,384,0.0,105.0
7090,50.0,0,384,1.0,105.0
7091,38.0,0,384,8.0,105.0
7092,50.0,0,384,6.0,105.0
7093,50.0,0,384,7.0,105.0
7094,62.0,0,96,4.0,105.0
7095,62.0,120,96,5.0,92.0
7096,71.0,0,96,5.0,92.0
7097,71.0,0,96,4.0,105.0
7098,71.0,0,96,5.0,92.0
7099,71.0,120,96,4.0,105.0
7100,71.0,0,96,4.0,105.0
7101,71.0,120,96,5.0,92.0
7102,71.0,120,384,0.0,105.0
7103,47.0,0,384,8.0,105.0
7104,59.0,0,384,7.0,105.0
7105,59.0,0,384,1.0,105.0
7106,59.0,0,384,6.0,105.0
7107,71.0,120,96,4.0,105.0
7108,71.0,0,96,5.0,92.0
7109,72.0,0,192,5.0,92.0
7110,60.0,0,192,6.0,92.0
7111,72.0,0,312,4.0,116.0
7112,60.0,120,312,1.0,105.0
7113,67.0,0,384,3.0,105.0
7114,60.0,0,384,7.0,105.0
7115,55.0,0,384,3.0,105.0
7116,48.0,0,384,8.0,105.0
7117,67.0,240,192,5.0,92.0
7118,63.0,0,192,6.0,92.0
7119,63.0,0,192,6.0,92.0
7120,67.0,0,192,5.0,92.0
7121,67.0,240,312,4.0,116.0
7122,63.0,240,192,6.0,92.0
7123,67.0,0,192,5.0,92.0
7124,63.0,0,192,6.0,92.0
7125,67.0,0,192,5.0,92.0
7126,75.0,240,312,4.0,116.0
7127,60.0,0,312,7.0,105.0
7128,60.0,0,312,1.0,105.0
7129,48.0,0,312,8.0,105.0
7130,63.0,240,192,6.0,92.0
7131,67.0,0,192,5.0,92.0
7132,63.0,0,192,6.0,92.0
7133,67.0,0,192,5.0,92.0
7134,55.0,0,312,7.0,105.0
7135,43.0,240,312,8.0,105.0
7136,55.0,0,312,1.0,105.0
7137,72.0,0,1824,0.0,105.0
7138,67.0,240,156,4.0,116.0
7139,63.0,0,192,6.0,92.0
7140,67.0,0,192,5.0,92.0
7141,67.0,0,192,5.0,92.0
7142,63.0,0,192,6.0,92.0
7143,63.0,0,312,7.0,105.0
7144,63.0,0,312,1.0,105.0
7145,51.0,0,312,8.0,105.0
7146,72.0,0,312,4.0,116.0
7147,67.0,0,384,3.0,105.0
7148,55.0,240,384,3.0,105.0
7149,67.0,0,192,5.0,92.0
7150,63.0,240,192,6.0,92.0
7151,63.0,0,192,6.0,92.0
7152,67.0,240,192,5.0,92.0
7153,67.0,0,312,4.0,116.0
7154,55.0,0,156,7.0,105.0
7155,55.0,0,156,1.0,105.0
7156,43.0,240,156,8.0,105.0
7157,67.0,0,192,5.0,92.0
7158,63.0,0,192,6.0,92.0
7159,63.0,0,192,6.0,92.0
7160,67.0,240,192,5.0,92.0
7161,60.0,0,312,1.0,105.0
7162,60.0,0,312,7.0,105.0
7163,48.0,0,312,8.0,105.0
7164,75.0,0,312,4.0,116.0
7165,67.0,0,192,5.0,92.0
7166,63.0,240,192,6.0,92.0
7167,63.0,0,192,6.0,92.0
7168,67.0,0,192,5.0,92.0
7169,63.0,240,312,7.0,105.0
7170,51.0,0,312,8.0,105.0
7171,63.0,0,312,1.0,105.0
7172,75.0,0,1824,0.0,105.0
7173,67.0,0,1824,0.0,105.0
7174,72.0,240,156,4.0,116.0
7175,67.0,0,192,5.0,92.0
7176,63.0,0,192,6.0,92.0
7177,69.0,0,192,5.0,92.0
7178,66.0,0,192,6.0,92.0
7179,74.0,0,312,4.0,116.0
7180,48.0,0,312,7.0,105.0
7181,36.0,0,312,8.0,105.0
7182,48.0,0,312,1.0,105.0
7183,62.0,0,384,3.0,105.0
7184,69.0,0,384,3.0,105.0
7185,66.0,0,192,6.0,92.0
7186,69.0,240,192,5.0,92.0
7187,66.0,240,192,6.0,92.0
7188,69.0,0,192,5.0,92.0
7189,69.0,0,312,4.0,116.0
7190,57.0,0,156,7.0,105.0
7191,57.0,240,156,1.0,105.0
7192,45.0,0,156,8.0,105.0
7193,69.0,0,192,5.0,92.0
7194,66.0,0,192,6.0,92.0
7195,69.0,0,192,5.0,92.0
7196,66.0,0,192,6.0,92.0
7197,62.0,0,312,1.0,105.0
7198,78.0,0,312,4.0,116.0
7199,62.0,240,312,7.0,105.0
7200,50.0,0,312,8.0,105.0
7201,69.0,0,192,5.0,92.0
7202,66.0,240,192,6.0,92.0
7203,69.0,0,192,5.0,92.0
7204,66.0,0,192,6.0,92.0
7205,57.0,0,312,7.0,105.0
7206,57.0,240,312,1.0,105.0
7207,45.0,0,312,8.0,105.0
7208,74.0,0,1824,0.0,105.0
7209,66.0,240,1824,0.0,105.0
7210,69.0,0,156,4.0,116.0
7211,69.0,240,192,5.0,92.0
7212,66.0,0,192,6.0,92.0
7213,66.0,0,192,6.0,92.0
7214,69.0,0,192,5.0,92.0
7215,74.0,0,312,4.0,116.0
7216,66.0,0,312,1.0,105.0
7217,66.0,240,312,7.0,105.0
7218,54.0,0,312,8.0,105.0
7219,69.0,0,384,3.0,105.0
7220,62.0,0,384,3.0,105.0
7221,66.0,240,192,6.0,92.0
7222,69.0,0,192,5.0,92.0
7223,66.0,240,192,6.0,92.0
7224,69.0,0,192,5.0,92.0
7225,69.0,0,312,4.0,116.0
7226,57.0,0,156,1.0,105.0
7227,45.0,0,156,8.0,105.0
7228,57.0,240,156,7.0,105.0
7229,69.0,0,192,5.0,92.0
7230,66.0,0,192,6.0,92.0
7231,69.0,0,192,5.0,92.0
7232,66.0,0,192,6.0,92.0
7233,50.0,0,312,8.0,105.0
7234,62.0,0,312,7.0,105.0
7235,62.0,0,312,1.0,105.0
7236,78.0,240,312,4.0,116.0
7237,69.0,240,192,5.0,92.0
7238,66.0,0,192,6.0,92.0
7239,69.0,0,192,5.0,92.0
7240,66.0,0,192,6.0,92.0
7241,48.0,240,312,8.0,105.0
7242,60.0,0,312,7.0,105.0
7243,60.0,0,312,1.0,105.0
7244,69.0,0,1824,0.0,105.0
7245,78.0,0,1824,0.0,105.0
7246,74.0,0,156,4.0,116.0
7247,66.0,0,192,6.0,92.0
7248,69.0,240,192,5.0,92.0
7249,67.0,0,192,6.0,92.0
7250,74.0,0,192,5.0,92.0
7251,58.0,0,312,1.0,105.0
7252,79.0,240,312,4.0,116.0
7253,58.0,0,312,7.0,105.0
7254,46.0,0,312,8.0,105.0
7255,67.0,0,384,3.0,105.0
7256,70.0,0,384,2.0,105.0
7257,55.0,0,384,3.0,105.0
7258,62.0,0,384,2.0,105.0
7259,67.0,240,192,6.0,92.0
7260,74.0,0,192,5.0,92.0
7261,74.0,0,192,5.0,92.0
7262,67.0,240,192,6.0,92.0
7263,74.0,0,312,4.0,116.0
7264,50.0,240,156,1.0,105.0
7265,50.0,0,156,7.0,105.0
7266,38.0,0,156,8.0,105.0
7267,67.0,0,192,6.0,92.0
7268,74.0,0,192,5.0,92.0
7269,70.0,0,192,6.0,92.0
7270,74.0,0,192,5.0,92.0
7271,82.0,240,312,4.0,116.0
7272,43.0,0,312,8.0,105.0
7273,55.0,0,312,1.0,105.0
7274,55.0,0,312,7.0,105.0
7275,74.0,240,192,5.0,92.0
7276,70.0,0,192,6.0,92.0
7277,74.0,0,1536,0.0,105.0
7278,74.0,0,192,5.0,92.0
7279,70.0,0,192,6.0,92.0
7280,50.0,240,312,1.0,105.0
7281,50.0,0,312,7.0,105.0
7282,38.0,0,312,8.0,105.0
7283,74.0,0,156,4.0,116.0
7284,74.0,0,192,5.0,92.0
7285,70.0,240,192,6.0,92.0
7286,67.0,0,192,6.0,92.0
7287,70.0,0,192,5.0,92.0
7288,58.0,0,312,7.0,105.0
7289,79.0,0,312,4.0,116.0
7290,46.0,0,312,8.0,105.0
7291,58.0,0,312,1.0,105.0
7292,70.0,0,384,2.0,105.0
7293,62.0,0,384,2.0,105.0
7294,67.0,0,384,3.0,105.0
7295,55.0,0,384,3.0,105.0
7296,67.0,0,192,6.0,92.0
7297,70.0,240,192,5.0,92.0
7298,67.0,0,192,6.0,92.0
7299,70.0,0,192,5.0,92.0
7300,74.0,240,312,4.0,116.0
7301,50.0,0,156,1.0,105.0
7302,50.0,0,156,7.0,105.0
7303,38.0,0,156,8.0,105.0
7304,70.0,240,192,5.0,92.0
7305,67.0,0,192,6.0,92.0
7306,67.0,0,192,6.0,92.0
7307,70.0,0,192,5.0,92.0
7308,55.0,0,312,7.0,105.0
7309,43.0,0,312,8.0,105.0
7310,82.0,240,312,4.0,116.0
7311,55.0,0,312,1.0,105.0
7312,67.0,0,192,6.0,92.0
7313,70.0,240,192,5.0,92.0
7314,70.0,0,192,5.0,92.0
7315,67.0,0,192,6.0,92.0
7316,50.0,240,312,7.0,105.0
7317,50.0,0,312,1.0,105.0
7318,38.0,0,312,8.0,105.0
7319,79.0,0,3744,0.0,105.0
7320,70.0,240,1824,0.0,105.0
7321,74.0,0,156,4.0,116.0
7322,70.0,240,192,5.0,92.0
7323,67.0,0,192,6.0,92.0
7324,64.0,0,192,6.0,92.0
7325,67.0,0,192,5.0,92.0
7326,46.0,0,312,8.0,105.0
7327,58.0,0,312,7.0,105.0
7328,73.0,0,312,4.0,116.0
7329,58.0,0,312,1.0,105.0
7330,55.0,0,384,3.0,105.0
7331,58.0,0,384,2.0,105.0
7332,67.0,240,384,3.0,105.0
7333,67.0,0,192,5.0,92.0
7334,64.0,240,192,6.0,92.0
7335,67.0,0,192,5.0,92.0
7336,64.0,240,192,6.0,92.0
7337,67.0,0,312,4.0,116.0
7338,46.0,0,156,8.0,105.0
7339,58.0,0,156,7.0,105.0
7340,58.0,0,156,1.0,105.0
7341,67.0,240,192,5.0,92.0
7342,64.0,0,192,6.0,92.0
7343,67.0,240,192,5.0,92.0
7344,64.0,0,192,6.0,92.0
7345,43.0,0,312,8.0,105.0
7346,55.0,0,312,7.0,105.0
7347,76.0,0,312,4.0,116.0
7348,55.0,0,312,1.0,105.0
7349,64.0,240,192,6.0,92.0
7350,67.0,0,192,5.0,92.0
7351,64.0,240,192,6.0,92.0
7352,67.0,0,192,5.0,92.0
7353,46.0,0,312,8.0,105.0
7354,58.0,0,312,7.0,105.0
7355,58.0,0,312,1.0,105.0
7356,76.0,0,1824,0.0,105.0
7357,76.0,0,156,4.0,116.0
7358,64.0,240,192,6.0,92.0
7359,67.0,0,192,5.0,92.0
7360,64.0,240,192,6.0,92.0
7361,67.0,0,192,5.0,92.0
7362,52.0,0,312,1.0,105.0
7363,79.0,0,312,4.0,116.0
7364,52.0,0,312,7.0,105.0
7365,40.0,0,312,8.0,105.0
7366,69.0,0,384,3.0,105.0
7367,67.0,0,384,3.0,105.0
7368,67.0,240,192,5.0,92.0
7369,64.0,0,192,6.0,92.0
7370,64.0,0,192,6.0,92.0
7371,67.0,240,192,5.0,92.0
7372,69.0,0,312,4.0,116.0
7373,52.0,0,156,8.0,105.0
7374,64.0,0,156,1.0,105.0
7375,64.0,0,156,7.0,105.0
7376,64.0,240,192,6.0,92.0
7377,67.0,0,192,5.0,92.0
7378,73.0,0,2832,0.0,105.0
7379,67.0,0,192,5.0,92.0
7380,64.0,0,192,6.0,92.0
7381,49.0,0,312,8.0,105.0
7382,61.0,0,312,1.0,105.0
7383,61.0,240,312,7.0,105.0
7384,88.0,0,312,4.0,116.0
7385,67.0,0,192,5.0,92.0
7386,64.0,240,192,6.0,92.0
7387,76.0,0,456,0.0,105.0
7388,64.0,240,192,6.0,92.0
7389,67.0,0,192,5.0,92.0
7390,57.0,0,312,1.0,105.0
7391,45.0,0,312,8.0,105.0
7392,57.0,0,312,7.0,105.0
7393,79.0,0,156,4.0,116.0
7394,67.0,0,192,5.0,92.0
7395,64.0,240,192,6.0,92.0
7396,73.0,0,456,0.0,105.0
7397,79.0,0,1896,0.0,105.0
7398,65.0,0,192,5.0,92.0
7399,62.0,0,192,6.0,92.0
7400,50.0,0,312,8.0,105.0
7401,62.0,0,312,1.0,105.0
7402,62.0,0,312,7.0,105.0
7403,77.0,0,312,4.0,116.0
7404,69.0,0,384,3.0,105.0
7405,65.0,0,384,2.0,105.0
7406,62.0,0,384,3.0,105.0
7407,74.0,240,384,2.0,105.0
7408,69.0,0,192,5.0,92.0
7409,65.0,240,192,6.0,92.0
7410,69.0,0,192,5.0,92.0
7411,65.0,0,192,6.0,92.0
7412,69.0,240,312,4.0,116.0
7413,45.0,0,156,8.0,105.0
7414,57.0,0,156,1.0,105.0
7415,57.0,240,156,7.0,105.0
7416,69.0,0,192,5.0,92.0
7417,65.0,0,192,6.0,92.0
7418,69.0,0,192,5.0,92.0
7419,65.0,240,192,6.0,92.0
7420,53.0,0,312,1.0,105.0
7421,86.0,0,312,4.0,116.0
7422,41.0,0,312,8.0,105.0
7423,53.0,0,312,7.0,105.0
7424,65.0,0,192,6.0,92.0
7425,69.0,240,192,5.0,92.0
7426,69.0,240,192,5.0,92.0
7427,65.0,0,192,6.0,92.0
7428,38.0,0,312,8.0,105.0
7429,50.0,0,312,1.0,105.0
7430,50.0,0,312,7.0,105.0
7431,77.0,0,1824,0.0,105.0
7432,74.0,0,156,4.0,116.0
7433,69.0,240,192,5.0,92.0
7434,65.0,0,192,6.0,92.0
7435,68.0,0,192,5.0,92.0
7436,65.0,0,192,6.0,92.0
7437,46.0,0,312,7.0,105.0
7438,46.0,0,312,1.0,105.0
7439,34.0,0,312,8.0,105.0
7440,77.0,0,312,4.0,116.0
7441,62.0,240,384,3.0,105.0
7442,74.0,0,384,2.0,105.0
7443,65.0,0,384,2.0,105.0
7444,65.0,0,192,6.0,92.0
7445,68.0,240,192,5.0,92.0
7446,68.0,0,192,5.0,92.0
7447,65.0,240,192,6.0,92.0
7448,62.0,0,312,4.0,116.0
7449,46.0,0,156,7.0,105.0
7450,34.0,0,156,8.0,105.0
7451,46.0,0,156,1.0,105.0
7452,65.0,0,192,6.0,92.0
7453,68.0,240,192,5.0,92.0
7454,68.0,240,192,5.0,92.0
7455,65.0,0,192,6.0,92.0
7456,86.0,0,312,4.0,116.0
7457,58.0,0,312,1.0,105.0
7458,46.0,0,312,8.0,105.0
7459,58.0,0,312,7.0,105.0
7460,65.0,0,192,6.0,92.0
7461,68.0,240,192,5.0,92.0
7462,80.0,0,1536,0.0,105.0
7463,74.0,0,3456,0.0,105.0
7464,68.0,0,192,5.0,92.0
7465,62.0,240,192,6.0,92.0
7466,46.0,0,312,1.0,105.0
7467,46.0,0,312,7.0,105.0
7468,34.0,0,312,8.0,105.0
7469,80.0,240,156,4.0,116.0
7470,68.0,0,192,5.0,92.0
7471,62.0,0,192,6.0,92.0
7472,61.0,0,384,6.0,92.0
7473,64.0,0,384,6.0,92.0
7474,69.0,0,384,5.0,92.0
7475,45.0,0,384,1.0,92.0
7476,33.0,0,384,8.0,92.0
7477,81.0,0,384,4.0,92.0
7478,69.0,0,384,3.0,92.0
7479,67.0,0,384,3.0,92.0
7480,45.0,240,384,7.0,92.0
7481,73.0,0,480,0.0,80.0
7482,64.0,0,384,4.0,58.0
7483,61.0,480,384,5.0,58.0
7484,64.0,480,384,4.0,58.0
7485,61.0,0,384,5.0,58.0
7486,61.0,480,384,5.0,58.0
7487,64.0,0,384,4.0,58.0
7488,81.0,0,1920,0.0,100.0
7489,57.0,480,384,6.0,58.0
7490,45.0,0,384,7.0,58.0
7491,33.0,0,384,8.0,58.0
7492,64.0,480,384,5.0,58.0
7493,67.0,0,384,4.0,58.0
7494,67.0,0,384,4.0,58.0
7495,64.0,480,384,5.0,58.0
7496,64.0,480,384,5.0,58.0
7497,67.0,0,384,4.0,58.0
7498,73.0,0,1920,0.0,80.0
7499,57.0,0,384,6.0,58.0
7500,33.0,480,384,8.0,58.0
7501,45.0,0,384,7.0,58.0
7502,65.0,0,384,4.0,58.0
7503,62.0,480,384,5.0,58.0
7504,62.0,480,384,5.0,58.0
7505,65.0,0,384,4.0,58.0
7506,65.0,0,384,4.0,58.0
7507,62.0,480,384,5.0,58.0
7508,74.0,0,1920,0.0,80.0
7509,57.0,480,384,6.0,58.0
7510,45.0,0,384,7.0,58.0
7511,33.0,0,384,8.0,58.0
7512,62.0,480,384,5.0,58.0
7513,65.0,0,384,4.0,58.0
7514,65.0,480,384,4.0,58.0
7515,62.0,0,384,5.0,58.0
7516,65.0,480,384,4.0,58.0
7517,62.0,0,384,5.0,58.0
7518,68.0,0,1920,0.0,80.0
7519,61.0,0,312,5.0,58.0
7520,57.0,0,312,6.0,58.0
7521,69.0,0,312,0.0,70.0
7522,45.0,480,312,7.0,58.0
7523,64.0,0,312,4.0,58.0
7524,33.0,0,312,8.0,58.0
7525,69.0,0,96,4.0,105.0
7526,69.0,480,96,5.0,105.0
7527,69.0,120,96,4.0,105.0
7528,69.0,0,96,5.0,105.0
7529,69.0,120,96,4.0,105.0
7530,69.0,0,96,5.0,105.0
7531,69.0,0,96,5.0,105.0
7532,69.0,120,96,4.0,105.0
7533,57.0,0,480,1.0,105.0
7534,69.0,0,480,6.0,105.0
7535,81.0,0,480,0.0,105.0
7536,57.0,0,480,7.0,105.0
7537,45.0,0,480,8.0,105.0
7538,70.0,0,96,4.0,105.0
7539,70.0,0,96,5.0,105.0
7540,70.0,0,96,5.0,105.0
7541,70.0,120,96,4.0,105.0
7542,70.0,0,96,5.0,105.0
7543,70.0,120,96,4.0,105.0
7544,70.0,120,96,4.0,105.0
7545,70.0,0,96,5.0,105.0
7546,70.0,120,480,6.0,105.0
7547,58.0,0,480,1.0,105.0
7548,58.0,0,480,7.0,105.0
7549,82.0,0,480,0.0,105.0
7550,46.0,0,480,8.0,105.0
7551,68.0,120,96,4.0,105.0
7552,68.0,0,96,5.0,105.0
7553,68.0,120,96,5.0,105.0
7554,68.0,0,96,4.0,105.0
7555,68.0,120,96,4.0,105.0
7556,68.0,0,96,5.0,105.0
7557,68.0,0,96,5.0,105.0
7558,68.0,120,96,4.0,105.0
7559,56.0,0,480,1.0,105.0
7560,68.0,0,480,6.0,105.0
7561,56.0,0,480,7.0,105.0
7562,44.0,0,480,8.0,105.0
7563,80.0,0,480,0.0,105.0
7564,69.0,0,96,4.0,105.0
7565,69.0,0,96,5.0,105.0
7566,69.0,120,96,4.0,105.0
7567,69.0,0,96,5.0,105.0
7568,45.0,0,264,8.0,105.0
7569,57.0,120,264,1.0,105.0
7570,81.0,0,264,0.0,105.0
7571,57.0,0,264,7.0,105.0
7572,69.0,0,264,6.0,105.0
7573,69.0,0,96,5.0,105.0
7574,69.0,120,96,4.0,105.0
7575,69.0,120,96,5.0,105.0
7576,69.0,0,96,4.0,105.0
7577,67.0,0,96,4.0,105.0
7578,67.0,120,96,5.0,105.0
7579,67.0,120,96,4.0,105.0
7580,67.0,0,96,5.0,105.0
7581,67.0,120,96,5.0,105.0
7582,67.0,0,96,4.0,105.0
7583,67.0,0,96,5.0,105.0
7584,67.0,120,96,4.0,105.0
7585,67.0,0,480,6.0,105.0
7586,43.0,0,480,8.0,105.0
7587,79.0,0,480,0.0,105.0
7588,55.0,0,480,7.0,105.0
7589,55.0,0,480,1.0,105.0
7590,65.0,120,96,4.0,105.0
7591,65.0,0,96,5.0,105.0
7592,65.0,120,96,4.0,105.0
7593,65.0,0,96,5.0,105.0
7594,65.0,120,96,4.0,105.0
7595,65.0,0,96,5.0,105.0
7596,65.0,0,96,5.0,105.0
7597,65.0,120,96,4.0,105.0
7598,41.0,0,480,8.0,105.0
7599,53.0,0,480,7.0,105.0
7600,77.0,0,480,0.0,105.0
7601,53.0,0,480,1.0,105.0
7602,65.0,0,480,6.0,105.0
7603,64.0,0,96,4.0,105.0
7604,64.0,0,96,5.0,105.0
7605,64.0,120,96,4.0,105.0
7606,64.0,0,96,5.0,105.0
7607,64.0,120,96,5.0,105.0
7608,64.0,0,96,4.0,105.0
7609,64.0,0,96,4.0,105.0
7610,64.0,120,96,5.0,105.0
7611,76.0,120,480,0.0,105.0
7612,52.0,0,480,1.0,105.0
7613,64.0,0,480,6.0,105.0
7614,40.0,0,480,8.0,105.0
7615,52.0,0,480,7.0,105.0
7616,38.0,0,384,8.0,92.0
7617,62.0,0,384,3.0,92.0
7618,50.0,0,384,1.0,92.0
7619,62.0,0,384,4.0,92.0
7620,62.0,0,384,6.0,92.0
7621,62.0,0,384,5.0,92.0
7622,50.0,0,384,7.0,92.0
7623,74.0,0,480,0.0,80.0
7624,65.0,480,384,5.0,58.0
7625,69.0,0,384,4.0,58.0
7626,69.0,0,384,4.0,58.0
7627,65.0,480,384,5.0,58.0
7628,69.0,480,384,4.0,58.0
7629,65.0,0,384,5.0,58.0
7630,86.0,120,1920,0.0,100.0
7631,38.0,0,384,8.0,58.0
7632,62.0,0,384,6.0,58.0
7633,50.0,480,384,7.0,92.0
7634,72.0,0,384,4.0,58.0
7635,69.0,480,384,5.0,58.0
7636,69.0,0,384,5.0,58.0
7637,72.0,480,384,4.0,58.0
7638,69.0,480,384,5.0,58.0
7639,72.0,0,384,4.0,58.0
7640,78.0,0,1920,0.0,80.0
7641,38.0,0,384,8.0,58.0
7642,62.0,480,384,6.0,58.0
7643,50.0,0,384,7.0,58.0
7644,67.0,0,384,5.0,58.0
7645,70.0,480,384,4.0,58.0
7646,67.0,0,384,5.0,58.0
7647,70.0,480,384,4.0,58.0
7648,70.0,0,384,4.0,58.0
7649,67.0,480,384,5.0,58.0
7650,79.0,0,1920,0.0,80.0
7651,50.0,480,384,7.0,58.0
7652,62.0,0,384,6.0,58.0
7653,38.0,0,384,8.0,58.0
7654,70.0,480,384,4.0,58.0
7655,67.0,0,384,5.0,58.0
7656,70.0,480,384,4.0,58.0
7657,67.0,0,384,5.0,58.0
7658,67.0,0,384,5.0,58.0
7659,70.0,480,384,4.0,58.0
7660,73.0,0,1920,0.0,80.0
7661,66.0,0,384,5.0,58.0
7662,62.0,0,384,6.0,58.0
7663,69.0,480,384,4.0,58.0
7664,50.0,0,384,7.0,58.0
7665,38.0,0,384,8.0,58.0
7666,74.0,0,384,0.0,80.0
7667,62.0,0,96,4.0,105.0
7668,62.0,0,96,5.0,58.0
7669,62.0,0,96,4.0,105.0
7670,62.0,120,96,5.0,92.0
7671,62.0,0,96,4.0,105.0
7672,62.0,120,96,5.0,92.0
7673,62.0,0,96,4.0,105.0
7674,62.0,120,96,5.0,92.0
7675,74.0,480,480,0.0,105.0
7676,62.0,0,480,1.0,105.0
7677,62.0,0,480,6.0,92.0
7678,50.0,0,480,8.0,105.0
7679,62.0,0,480,7.0,105.0
7680,63.0,0,96,5.0,92.0
7681,63.0,0,96,4.0,105.0
7682,63.0,120,96,4.0,105.0
7683,63.0,0,96,5.0,92.0
7684,63.0,120,96,4.0,105.0
7685,63.0,0,96,5.0,92.0
7686,63.0,120,96,4.0,105.0
7687,63.0,0,96,5.0,92.0
7688,51.0,0,480,8.0,105.0
7689,63.0,0,480,7.0,105.0
7690,63.0,120,480,1.0,105.0
7691,75.0,0,480,0.0,105.0
7692,63.0,0,480,6.0,92.0
7693,61.0,0,96,4.0,105.0
7694,61.0,0,96,5.0,92.0
7695,61.0,0,96,4.0,105.0
7696,61.0,120,96,5.0,92.0
7697,61.0,120,96,4.0,105.0
7698,61.0,0,96,5.0,92.0
7699,61.0,120,96,4.0,105.0
7700,61.0,0,96,5.0,92.0
7701,73.0,120,480,0.0,105.0
7702,49.0,0,480,8.0,105.0
7703,61.0,0,480,6.0,92.0
7704,61.0,0,480,1.0,105.0
7705,61.0,0,480,7.0,105.0
7706,62.0,0,96,4.0,105.0
7707,62.0,0,96,5.0,92.0
7708,62.0,120,96,4.0,105.0
7709,62.0,0,96,5.0,92.0
7710,50.0,120,264,8.0,105.0
7711,62.0,0,264,1.0,105.0
7712,74.0,0,264,0.0,105.0
7713,62.0,0,264,7.0,105.0
7714,62.0,0,264,6.0,92.0
7715,62.0,120,96,4.0,105.0
7716,62.0,0,96,5.0,92.0
7717,62.0,0,96,5.0,92.0
7718,62.0,120,96,4.0,105.0
7719,60.0,0,96,5.0,92.0
7720,60.0,0,96,4.0,105.0
7721,60.0,0,96,5.0,92.0
7722,60.0,120,96,4.0,105.0
7723,60.0,0,96,5.0,92.0
7724,60.0,120,96,4.0,105.0
7725,60.0,0,96,4.0,105.0
7726,60.0,120,96,5.0,92.0
7727,72.0,0,480,0.0,105.0
7728,60.0,0,480,1.0,105.0
7729,60.0,0,480,6.0,92.0
7730,60.0,120,480,7.0,105.0
7731,48.0,0,480,8.0,105.0
7732,58.0,0,96,5.0,92.0
7733,58.0,0,96,4.0,105.0
7734,58.0,120,96,5.0,92.0
7735,58.0,0,96,4.0,105.0
7736,58.0,0,96,5.0,92.0
7737,58.0,120,96,4.0,105.0
7738,58.0,120,96,5.0,92.0
7739,58.0,0,96,4.0,105.0
7740,70.0,0,480,0.0,105.0
7741,46.0,0,480,8.0,105.0
7742,58.0,0,480,7.0,105.0
7743,58.0,120,480,1.0,105.0
7744,58.0,0,480,6.0,92.0
7745,57.0,0,96,4.0,105.0
7746,57.0,0,96,5.0,92.0
7747,57.0,0,96,5.0,92.0
7748,57.0,120,96,4.0,105.0
7749,57.0,120,96,5.0,92.0
7750,57.0,0,96,4.0,105.0
7751,57.0,0,96,4.0,105.0
7752,57.0,120,96,5.0,92.0
7753,45.0,0,480,8.0,105.0
7754,57.0,0,480,7.0,105.0
7755,57.0,120,480,1.0,105.0
7756,57.0,0,480,6.0,92.0
7757,69.0,0,480,0.0,105.0
7758,55.0,0,144,4.0,105.0
7759,74.0,240,144,4.0,105.0
7760,55.0,120,384,5.0,92.0
7761,67.0,0,384,0.0,92.0
7762,74.0,240,240,4.0,105.0
7763,55.0,0,768,7.0,92.0
7764,55.0,0,768,1.0,92.0
7765,43.0,0,768,8.0,92.0
7766,55.0,0,768,6.0,92.0
7767,75.0,240,192,4.0,105.0
7768,70.0,240,144,5.0,92.0
7769,67.0,0,144,6.0,92.0
7770,70.0,240,240,5.0,92.0
7771,67.0,0,240,6.0,92.0
7772,75.0,240,768,4.0,105.0
7773,69.0,240,192,5.0,92.0
7774,66.0,0,192,6.0,92.0
7775,73.0,240,144,4.0,105.0
7776,73.0,240,240,4.0,105.0
7777,69.0,240,768,5.0,92.0
7778,66.0,0,768,6.0,92.0
7779,74.0,240,192,4.0,105.0
7780,65.0,0,144,6.0,92.0
7781,68.0,240,144,5.0,92.0
7782,65.0,0,240,6.0,92.0
7783,68.0,240,240,5.0,92.0
7784,74.0,240,768,4.0,105.0
7785,64.0,240,192,6.0,92.0
7786,67.0,0,192,5.0,92.0
7787,71.0,240,144,4.0,105.0
7788,71.0,240,240,4.0,105.0
7789,64.0,0,768,6.0,92.0
7790,67.0,240,768,5.0,92.0
7791,72.0,240,192,4.0,105.0
7792,63.0,0,240,6.0,92.0
7793,67.0,240,240,5.0,92.0
7794,63.0,240,240,6.0,92.0
7795,67.0,0,240,5.0,92.0
7796,72.0,240,768,4.0,105.0
7797,66.0,240,192,5.0,92.0
7798,62.0,0,192,6.0,92.0
7799,71.0,240,144,4.0,105.0
7800,71.0,240,240,4.0,105.0
7801,66.0,240,768,5.0,92.0
7802,62.0,0,768,6.0,92.0
7803,72.0,240,192,4.0,105.0
7804,63.0,0,144,6.0,92.0
7805,67.0,240,144,5.0,92.0
7806,63.0,0,240,6.0,92.0
7807,67.0,240,240,5.0,92.0
7808,72.0,240,768,4.0,105.0
7809,69.0,240,192,5.0,92.0
7810,62.0,0,192,6.0,92.0
7811,79.0,240,144,4.0,105.0
7812,79.0,240,240,4.0,105.0
7813,69.0,0,768,5.0,92.0
7814,62.0,240,768,6.0,92.0
7815,78.0,240,192,4.0,105.0
7816,75.0,240,144,5.0,92.0
7817,72.0,0,144,6.0,92.0
7818,75.0,0,240,5.0,92.0
7819,72.0,240,240,6.0,92.0
7820,78.0,240,768,4.0,105.0
7821,74.0,240,192,5.0,92.0
7822,70.0,0,192,6.0,92.0
7823,79.0,240,144,4.0,105.0
7824,79.0,240,240,4.0,105.0
7825,69.0,0,768,6.0,92.0
7826,72.0,240,768,5.0,92.0
7827,78.0,240,192,4.0,105.0
7828,60.0,0,144,6.0,92.0
7829,63.0,240,144,5.0,92.0
7830,63.0,240,240,5.0,92.0
7831,60.0,0,240,6.0,92.0
7832,78.0,240,768,4.0,105.0
7833,62.0,240,192,5.0,92.0
7834,58.0,0,192,6.0,92.0
7835,60.0,0,768,5.0,92.0
7836,57.0,0,768,6.0,92.0
7837,62.0,0,1920,3.0,70.0
7838,72.0,0,1920,2.0,70.0
7839,69.0,0,0,3.0,92.0
7840,62.0,0,0,2.0,92.0
7841,66.0,0,1920,0.0,80.0
7842,72.0,0,1920,2.0,92.0
7843,78.0,0,1920,0.0,92.0
7844,62.0,1920,1920,3.0,92.0
7845,79.0,1920,192,4.0,105.0
7846,67.0,0,192,6.0,105.0
7847,79.0,0,192,5.0,105.0
7848,55.0,0,384,8.0,105.0
7849,67.0,0,384,1.0,105.0
7850,67.0,0,384,7.0,105.0
7851,79.0,0,384,4.0,105.0
7852,67.0,0,384,6.0,105.0
7853,79.0,240,384,5.0,105.0
7854,67.0,0,384,1.0,105.0
7855,67.0,240,384,7.0,105.0
7856,55.0,0,384,8.0,105.0
7857,79.0,0,384,4.0,105.0
7858,67.0,0,384,6.0,105.0
7859,79.0,240,384,5.0,105.0
7860,55.0,0,384,8.0,105.0
7861,67.0,240,384,1.0,105.0
7862,67.0,0,384,7.0,105.0
7863,79.0,0,1536,0.0,105.0
7864,79.0,240,384,4.0,105.0
7865,67.0,0,384,6.0,105.0
7866,79.0,0,384,5.0,105.0
7867,67.0,0,384,7.0,105.0
7868,67.0,0,384,1.0,105.0
7869,55.0,240,384,8.0,105.0
7870,79.0,0,192,5.0,105.0
7871,67.0,240,192,6.0,105.0
7872,79.0,0,192,4.0,105.0
7873,74.0,0,192,5.0,105.0
7874,74.0,0,192,4.0,105.0
7875,62.0,0,192,6.0,105.0
7876,50.0,0,384,8.0,105.0
7877,62.0,240,384,7.0,105.0
7878,62.0,0,384,1.0,105.0
7879,62.0,0,384,6.0,105.0
7880,74.0,0,384,4.0,105.0
7881,74.0,240,384,5.0,105.0
7882,50.0,240,384,8.0,105.0
7883,62.0,0,384,1.0,105.0
7884,62.0,0,384,7.0,105.0
7885,74.0,240,384,4.0,105.0
7886,62.0,0,384,6.0,105.0
7887,74.0,0,384,5.0,105.0
7888,50.0,0,384,8.0,105.0
7889,62.0,240,384,7.0,105.0
7890,62.0,0,384,1.0,105.0
7891,74.0,0,1536,0.0,105.0
7892,74.0,0,384,5.0,105.0
7893,74.0,240,384,4.0,105.0
7894,62.0,0,384,6.0,105.0
7895,62.0,0,384,1.0,105.0
7896,50.0,240,384,8.0,105.0
7897,62.0,0,384,7.0,105.0
7898,62.0,0,192,6.0,105.0
7899,74.0,0,192,5.0,105.0
7900,74.0,240,192,4.0,105.0
7901,75.0,0,192,5.0,105.0
7902,63.0,0,192,6.0,105.0
7903,75.0,0,192,4.0,105.0
7904,63.0,0,384,7.0,105.0
7905,51.0,0,384,8.0,105.0
7906,63.0,0,384,1.0,105.0
7907,63.0,240,384,6.0,105.0
7908,75.0,0,384,5.0,105.0
7909,75.0,0,384,4.0,105.0
7910,51.0,240,384,8.0,105.0
7911,63.0,0,384,1.0,105.0
7912,63.0,0,384,7.0,105.0
7913,75.0,0,384,4.0,105.0
7914,63.0,0,384,6.0,105.0
7915,75.0,240,384,5.0,105.0
7916,63.0,240,384,1.0,105.0
7917,51.0,0,384,8.0,105.0
7918,63.0,0,384,7.0,105.0
7919,75.0,240,1536,0.0,105.0
7920,75.0,0,384,4.0,105.0
7921,63.0,240,384,6.0,105.0
7922,75.0,0,384,5.0,105.0
7923,51.0,0,384,8.0,105.0
7924,63.0,0,384,1.0,105.0
7925,63.0,240,384,7.0,105.0
7926,63.0,240,192,6.0,105.0
7927,75.0,0,192,4.0,105.0
7928,75.0,0,192,5.0,105.0
7929,66.0,0,192,5.0,105.0
7930,66.0,0,192,4.0,105.0
7931,54.0,240,192,6.0,105.0
7932,42.0,0,384,8.0,105.0
7933,54.0,0,384,1.0,105.0
7934,54.0,0,384,7.0,105.0
7935,66.0,240,384,4.0,105.0
7936,54.0,0,384,6.0,105.0
7937,66.0,0,384,5.0,105.0
7938,54.0,240,384,1.0,105.0
7939,54.0,0,384,7.0,105.0
7940,42.0,0,384,8.0,105.0
7941,66.0,240,384,5.0,105.0
7942,66.0,0,384,4.0,105.0
7943,54.0,0,384,6.0,105.0
7944,42.0,0,384,8.0,105.0
7945,54.0,240,384,1.0,105.0
7946,54.0,0,384,7.0,105.0
7947,66.0,0,1536,0.0,105.0
7948,54.0,240,384,6.0,105.0
7949,66.0,0,384,4.0,105.0
7950,66.0,0,384,5.0,105.0
7951,54.0,0,384,7.0,105.0
7952,54.0,0,384,1.0,105.0
7953,42.0,240,384,8.0,105.0
7954,54.0,0,192,6.0,105.0
7955,66.0,0,192,5.0,105.0
7956,66.0,240,192,4.0,105.0
7957,67.0,0,144,5.0,105.0
7958,67.0,0,144,4.0,105.0
7959,55.0,0,384,7.0,105.0
7960,67.0,0,384,0.0,105.0
7961,70.0,0,144,4.0,105.0
7962,43.0,240,384,8.0,105.0
7963,55.0,0,384,6.0,105.0
7964,70.0,240,144,5.0,105.0
7965,55.0,0,384,1.0,105.0
7966,74.0,0,144,5.0,105.0
7967,74.0,240,144,4.0,105.0
7968,79.0,240,144,4.0,105.0
7969,79.0,0,144,5.0,105.0
7970,82.0,0,120,5.0,105.0
7971,82.0,0,120,0.0,105.0
7972,58.0,0,120,7.0,105.0
7973,46.0,0,120,8.0,105.0
7974,58.0,0,120,1.0,105.0
7975,70.0,0,120,6.0,105.0
7976,82.0,240,120,4.0,105.0
7977,57.0,0,120,7.0,105.0
7978,81.0,0,120,0.0,105.0
7979,81.0,0,120,4.0,105.0
7980,81.0,120,120,5.0,105.0
7981,69.0,0,120,6.0,105.0
7982,57.0,0,120,1.0,105.0
7983,45.0,0,120,8.0,105.0
7984,67.0,0,120,6.0,105.0
7985,43.0,0,120,8.0,105.0
7986,55.0,0,120,1.0,105.0
7987,79.0,0,120,4.0,105.0
7988,55.0,120,120,7.0,105.0
7989,79.0,0,120,0.0,105.0
7990,79.0,0,120,5.0,105.0
7991,54.0,0,120,7.0,105.0
7992,66.0,120,120,6.0,105.0
7993,78.0,0,120,4.0,105.0
7994,78.0,0,120,0.0,105.0
7995,78.0,0,120,5.0,105.0
7996,42.0,0,120,8.0,105.0
7997,54.0,0,120,1.0,105.0
7998,55.0,0,768,3.0,92.0
7999,67.0,0,768,3.0,105.0
8000,62.0,0,768,2.0,105.0
8001,70.0,0,768,2.0,92.0
8002,79.0,0,384,0.0,105.0
8003,79.0,0,384,5.0,105.0
8004,79.0,0,384,4.0,105.0
8005,43.0,0,384,8.0,105.0
8006,55.0,0,384,1.0,105.0
8007,67.0,0,384,6.0,105.0
8008,55.0,120,384,7.0,105.0
8009,67.0,0,144,5.0,105.0
8010,67.0,480,144,4.0,105.0
8011,70.0,0,144,4.0,105.0
8012,70.0,240,144,5.0,105.0
8013,74.0,0,144,5.0,105.0
8014,74.0,240,144,4.0,105.0
8015,79.0,240,144,5.0,105.0
8016,79.0,0,144,4.0,105.0
8017,70.0,0,120,6.0,105.0
8018,46.0,0,120,8.0,105.0
8019,58.0,0,120,7.0,105.0
8020,58.0,0,120,1.0,105.0
8021,82.0,0,120,5.0,105.0
8022,82.0,0,120,4.0,105.0
8023,82.0,0,120,0.0,105.0
8024,57.0,0,120,7.0,105.0
8025,69.0,0,120,6.0,105.0
8026,81.0,0,120,5.0,105.0
8027,81.0,0,120,4.0,105.0
8028,45.0,0,120,8.0,105.0
8029,57.0,120,120,1.0,105.0
8030,81.0,0,120,0.0,105.0
8031,67.0,0,120,6.0,105.0
8032,79.0,0,120,0.0,105.0
8033,79.0,120,120,4.0,105.0
8034,55.0,0,120,7.0,105.0
8035,43.0,0,120,8.0,105.0
8036,79.0,0,120,5.0,105.0
8037,55.0,0,120,1.0,105.0
8038,54.0,0,120,1.0,105.0
8039,78.0,0,120,0.0,105.0
8040,54.0,0,120,7.0,105.0
8041,42.0,0,120,8.0,105.0
8042,78.0,0,120,5.0,105.0
8043,78.0,0,120,4.0,105.0
8044,66.0,120,120,6.0,105.0
8045,67.0,0,768,3.0,105.0
8046,55.0,240,768,3.0,105.0
8047,62.0,0,768,2.0,105.0
8048,70.0,0,768,2.0,105.0
8049,79.0,0,384,5.0,105.0
8050,55.0,0,384,7.0,105.0
8051,55.0,0,384,1.0,105.0
8052,79.0,120,384,0.0,105.0
8053,79.0,0,384,4.0,105.0
8054,43.0,0,384,8.0,105.0
8055,67.0,0,384,6.0,105.0
8056,69.0,0,156,5.0,105.0
8057,69.0,480,156,4.0,105.0
8058,72.0,0,156,4.0,105.0
8059,72.0,240,156,5.0,105.0
8060,78.0,240,156,5.0,105.0
8061,78.0,0,156,4.0,105.0
8062,81.0,240,156,5.0,105.0
8063,81.0,0,156,4.0,105.0
8064,60.0,0,120,7.0,105.0
8065,72.0,0,120,6.0,105.0
8066,84.0,0,120,4.0,105.0
8067,60.0,240,120,1.0,105.0
8068,48.0,0,120,8.0,105.0
8069,84.0,0,120,5.0,105.0
8070,84.0,0,120,0.0,105.0
8071,82.0,0,120,0.0,105.0
8072,82.0,0,120,5.0,105.0
8073,70.0,120,120,6.0,105.0
8074,58.0,0,120,7.0,105.0
8075,82.0,0,120,4.0,105.0
8076,58.0,0,120,1.0,105.0
8077,46.0,0,120,8.0,105.0
8078,57.0,0,120,7.0,105.0
8079,57.0,0,120,1.0,105.0
8080,81.0,0,120,5.0,105.0
8081,69.0,0,120,6.0,105.0
8082,81.0,0,120,4.0,105.0
8083,45.0,0,120,8.0,105.0
8084,81.0,120,120,0.0,105.0
8085,55.0,0,120,7.0,105.0
8086,79.0,120,120,5.0,105.0
8087,43.0,0,120,8.0,105.0
8088,79.0,0,120,0.0,105.0
8089,79.0,0,120,4.0,105.0
8090,67.0,0,120,6.0,105.0
8091,55.0,0,120,1.0,105.0
8092,69.0,0,768,3.0,105.0
8093,62.0,0,768,3.0,105.0
8094,72.0,0,768,2.0,105.0
8095,62.0,0,768,2.0,105.0
8096,57.0,0,384,7.0,105.0
8097,81.0,120,384,5.0,105.0
8098,81.0,0,384,0.0,105.0
8099,45.0,0,384,8.0,105.0
8100,57.0,0,384,1.0,105.0
8101,81.0,0,384,4.0,105.0
8102,69.0,0,384,6.0,105.0
8103,69.0,480,156,4.0,105.0
8104,69.0,0,156,5.0,105.0
8105,72.0,240,156,5.0,105.0
8106,72.0,0,156,4.0,105.0
8107,78.0,240,156,4.0,105.0
8108,78.0,0,156,5.0,105.0
8109,81.0,0,156,4.0,105.0
8110,81.0,240,156,5.0,105.0
8111,84.0,0,120,5.0,105.0
8112,84.0,0,120,0.0,105.0
8113,72.0,0,120,6.0,105.0
8114,60.0,240,120,1.0,105.0
8115,48.0,0,120,8.0,105.0
8116,60.0,0,120,7.0,105.0
8117,84.0,0,120,4.0,105.0
8118,70.0,120,120,6.0,105.0
8119,58.0,0,120,7.0,105.0
8120,58.0,0,120,1.0,105.0
8121,46.0,0,120,8.0,105.0
8122,82.0,0,120,5.0,105.0
8123,82.0,0,120,4.0,105.0
8124,82.0,0,120,0.0,105.0
8125,81.0,0,120,4.0,105.0
8126,45.0,120,120,8.0,105.0
8127,57.0,0,120,7.0,105.0
8128,57.0,0,120,1.0,105.0
8129,69.0,0,120,6.0,105.0
8130,81.0,0,120,5.0,105.0
8131,81.0,0,120,0.0,105.0
8132,67.0,0,120,6.0,105.0
8133,55.0,120,120,1.0,105.0
8134,79.0,0,120,5.0,105.0
8135,79.0,0,120,4.0,105.0
8136,79.0,0,120,0.0,105.0
8137,43.0,0,120,8.0,105.0
8138,55.0,0,120,7.0,105.0
8139,69.0,0,768,3.0,105.0
8140,62.0,0,768,3.0,105.0
8141,72.0,0,768,2.0,105.0
8142,62.0,0,768,2.0,105.0
8143,69.0,120,384,6.0,105.0
8144,57.0,0,384,1.0,105.0
8145,45.0,0,384,8.0,105.0
8146,81.0,0,384,4.0,105.0
8147,81.0,0,384,5.0,105.0
8148,57.0,0,384,7.0,105.0
8149,81.0,0,384,0.0,105.0
8150,70.0,0,156,5.0,105.0
8151,70.0,480,156,4.0,105.0
8152,74.0,0,156,5.0,105.0
8153,74.0,240,156,4.0,105.0
8154,79.0,0,156,4.0,105.0
8155,79.0,240,156,5.0,105.0
8156,82.0,240,156,4.0,105.0
8157,82.0,0,156,5.0,105.0
8158,62.0,0,120,7.0,105.0
8159,62.0,0,120,1.0,105.0
8160,86.0,0,120,5.0,105.0
8161,86.0,240,120,0.0,105.0
8162,50.0,0,120,8.0,105.0
8163,74.0,0,120,6.0,105.0
8164,86.0,0,120,4.0,105.0
8165,84.0,0,120,0.0,105.0
8166,84.0,0,120,4.0,105.0
8167,60.0,0,120,1.0,105.0
8168,48.0,120,120,8.0,105.0
8169,72.0,0,120,6.0,105.0
8170,84.0,0,120,5.0,105.0
8171,60.0,0,120,7.0,105.0
8172,62.0,0,312,3.0,105.0
8173,62.0,0,312,2.0,105.0
8174,74.0,0,312,2.0,105.0
8175,82.0,0,120,5.0,105.0
8176,58.0,0,120,7.0,105.0
8177,82.0,0,120,4.0,105.0
8178,46.0,0,120,8.0,105.0
8179,58.0,120,120,1.0,105.0
8180,82.0,0,120,0.0,105.0
8181,70.0,0,120,6.0,105.0
8182,81.0,120,120,5.0,105.0
8183,69.0,0,120,6.0,105.0
8184,45.0,0,120,8.0,105.0
8185,81.0,0,120,0.0,105.0
8186,57.0,0,120,7.0,105.0
8187,57.0,0,120,1.0,105.0
8188,81.0,0,120,4.0,105.0
8189,58.0,0,312,2.0,105.0
8190,70.0,120,312,2.0,105.0
8191,82.0,0,384,4.0,105.0
8192,58.0,0,384,7.0,105.0
8193,82.0,0,384,5.0,105.0
8194,70.0,0,384,6.0,105.0
8195,58.0,0,384,1.0,105.0
8196,82.0,0,384,0.0,105.0
8197,46.0,0,384,8.0,105.0
8198,82.0,0,120,5.0,105.0
8199,58.0,0,120,7.0,105.0
8200,82.0,0,120,0.0,105.0
8201,70.0,0,120,6.0,105.0
8202,58.0,0,120,1.0,105.0
8203,46.0,0,120,8.0,105.0
8204,82.0,0,120,4.0,105.0
8205,81.0,120,120,5.0,105.0
8206,69.0,0,120,6.0,105.0
8207,81.0,0,120,0.0,105.0
8208,57.0,0,120,1.0,105.0
8209,81.0,0,120,4.0,105.0
8210,57.0,0,120,7.0,105.0
8211,45.0,0,120,8.0,105.0
8212,70.0,480,312,2.0,105.0
8213,58.0,0,312,2.0,105.0
8214,55.0,0,120,7.0,105.0
8215,67.0,0,120,6.0,105.0
8216,79.0,0,120,5.0,105.0
8217,79.0,120,120,0.0,105.0
8218,43.0,0,120,8.0,105.0
8219,79.0,0,120,4.0,105.0
8220,55.0,0,120,1.0,105.0
8221,78.0,0,120,4.0,105.0
8222,78.0,0,120,0.0,105.0
8223,78.0,0,120,5.0,105.0
8224,54.0,0,120,1.0,105.0
8225,66.0,0,120,6.0,105.0
8226,42.0,0,120,8.0,105.0
8227,54.0,120,120,7.0,105.0
8228,67.0,120,312,3.0,105.0
8229,55.0,0,312,3.0,105.0
8230,67.0,0,384,6.0,105.0
8231,79.0,0,384,4.0,105.0
8232,55.0,0,384,1.0,105.0
8233,79.0,0,384,0.0,105.0
8234,55.0,0,384,7.0,105.0
8235,79.0,0,384,5.0,105.0
8236,43.0,0,384,8.0,105.0
8237,43.0,0,120,8.0,105.0
8238,55.0,480,120,1.0,105.0
8239,79.0,0,120,5.0,105.0
8240,79.0,0,120,4.0,105.0
8241,55.0,0,120,7.0,105.0
8242,79.0,0,120,0.0,105.0
8243,67.0,0,120,6.0,105.0
8244,65.0,0,120,6.0,105.0
8245,53.0,0,120,1.0,105.0
8246,77.0,0,120,0.0,105.0
8247,53.0,0,120,7.0,105.0
8248,77.0,0,120,5.0,105.0
8249,77.0,0,120,4.0,105.0
8250,41.0,120,120,8.0,105.0
8251,55.0,0,312,3.0,105.0
8252,67.0,0,312,3.0,105.0
8253,51.0,0,120,7.0,105.0
8254,75.0,0,120,5.0,105.0
8255,51.0,0,120,1.0,105.0
8256,75.0,0,120,0.0,105.0
8257,75.0,0,120,4.0,105.0
8258,39.0,0,120,8.0,105.0
8259,63.0,120,120,6.0,105.0
8260,62.0,120,96,6.0,105.0
8261,74.0,0,96,4.0,105.0
8262,74.0,0,96,0.0,105.0
8263,38.0,0,96,8.0,105.0
8264,50.0,0,96,1.0,105.0
8265,50.0,0,96,7.0,105.0
8266,74.0,0,96,5.0,105.0
8267,51.0,0,120,7.0,105.0
8268,39.0,120,120,8.0,105.0
8269,75.0,0,120,4.0,105.0
8270,75.0,0,120,0.0,105.0
8271,75.0,0,120,5.0,105.0
8272,51.0,0,120,1.0,105.0
8273,63.0,0,120,6.0,105.0
8274,50.0,0,120,7.0,105.0
8275,74.0,0,120,4.0,105.0
8276,38.0,0,120,8.0,105.0
8277,74.0,120,120,5.0,105.0
8278,50.0,0,120,1.0,105.0
8279,62.0,0,120,6.0,105.0
8280,74.0,0,120,0.0,105.0
8281,72.0,0,120,5.0,105.0
8282,72.0,0,120,0.0,105.0
8283,72.0,0,120,4.0,105.0
8284,48.0,120,120,7.0,105.0
8285,36.0,0,120,8.0,105.0
8286,48.0,0,120,1.0,105.0
8287,60.0,0,120,6.0,105.0
8288,70.0,120,96,0.0,105.0
8289,70.0,0,96,5.0,105.0
8290,58.0,0,96,6.0,105.0
8291,34.0,0,96,8.0,105.0
8292,70.0,0,96,4.0,105.0
8293,46.0,0,96,7.0,105.0
8294,46.0,0,96,1.0,105.0
8295,72.0,0,270,4.0,105.0
8296,72.0,0,270,5.0,105.0
8297,72.0,0,270,0.0,105.0
8298,48.0,0,360,1.0,105.0
8299,48.0,120,360,7.0,105.0
8300,36.0,0,360,8.0,105.0
8301,60.0,0,360,6.0,105.0
8302,72.0,0,360,2.0,105.0
8303,72.0,0,90,0.0,105.0
8304,72.0,360,90,5.0,105.0
8305,72.0,0,90,4.0,105.0
8306,70.0,0,270,0.0,105.0
8307,70.0,0,270,4.0,105.0
8308,70.0,0,270,5.0,105.0
8309,34.0,0,360,8.0,105.0
8310,46.0,120,360,1.0,105.0
8311,58.0,0,360,6.0,105.0
8312,46.0,0,360,7.0,105.0
8313,70.0,0,360,2.0,105.0
8314,70.0,0,90,0.0,105.0
8315,70.0,360,90,4.0,105.0
8316,70.0,0,90,5.0,105.0
8317,69.0,0,270,4.0,105.0
8318,69.0,120,270,5.0,105.0
8319,69.0,0,270,0.0,105.0
8320,57.0,0,360,6.0,105.0
8321,33.0,0,360,8.0,105.0
8322,45.0,0,360,1.0,105.0
8323,45.0,0,360,7.0,105.0
8324,69.0,0,360,3.0,105.0
8325,69.0,0,90,0.0,105.0
8326,69.0,360,90,5.0,105.0
8327,69.0,0,90,4.0,105.0
8328,67.0,0,270,0.0,105.0
8329,67.0,0,270,4.0,105.0
8330,67.0,0,270,5.0,105.0
8331,43.0,0,360,7.0,105.0
8332,31.0,120,360,8.0,105.0
8333,43.0,0,360,1.0,105.0
8334,55.0,0,360,6.0,105.0
8335,67.0,0,360,3.0,105.0
8336,67.0,360,90,0.0,105.0
8337,67.0,0,90,4.0,105.0
8338,67.0,0,90,5.0,105.0
8339,66.0,0,288,0.0,105.0
8340,30.0,0,288,8.0,105.0
8341,62.0,0,288,3.0,105.0
8342,62.0,0,288,2.0,105.0
8343,66.0,120,288,4.0,125.0
8344,42.0,0,288,7.0,105.0
8345,54.0,0,288,6.0,125.0
8346,42.0,0,288,1.0,105.0
8347,66.0,0,288,5.0,125.0
8348,38.0,0,288,8.0,105.0
8349,50.0,0,288,7.0,105.0
8350,50.0,0,288,1.0,105.0
8351,74.0,0,288,4.0,105.0
8352,62.0,480,288,3.0,105.0
8353,74.0,0,288,5.0,105.0
8354,62.0,0,288,6.0,105.0
8355,74.0,0,288,0.0,105.0
8356,62.0,0,288,2.0,105.0
8357,70.0,0,192,6.0,105.0
8358,79.0,0,192,4.0,105.0
8359,79.0,1440,192,5.0,105.0
8360,79.0,0,384,4.0,105.0
8361,70.0,240,384,6.0,105.0
8362,79.0,0,384,5.0,105.0
8363,43.0,0,288,1.0,105.0
8364,43.0,0,288,7.0,105.0
8365,31.0,240,288,8.0,105.0
8366,70.0,240,384,6.0,105.0
8367,79.0,0,384,4.0,105.0
8368,79.0,0,384,5.0,105.0
8369,46.0,0,288,7.0,105.0
8370,34.0,0,288,8.0,105.0
8371,46.0,240,288,1.0,105.0
8372,79.0,0,1536,0.0,105.0
8373,70.0,0,384,6.0,105.0
8374,79.0,0,384,5.0,105.0
8375,79.0,240,384,4.0,105.0
8376,50.0,0,288,7.0,105.0
8377,38.0,0,288,8.0,105.0
8378,50.0,240,288,1.0,105.0
8379,79.0,240,192,5.0,105.0
8380,70.0,0,192,6.0,105.0
8381,79.0,0,192,4.0,105.0
8382,74.0,240,192,4.0,105.0
8383,58.0,0,192,6.0,105.0
8384,74.0,0,192,5.0,105.0
8385,58.0,0,384,6.0,105.0
8386,74.0,0,384,4.0,105.0
8387,74.0,240,384,5.0,105.0
8388,55.0,240,288,7.0,105.0
8389,43.0,0,288,8.0,105.0
8390,55.0,0,288,1.0,105.0
8391,74.0,0,384,4.0,105.0
8392,74.0,0,384,5.0,105.0
8393,58.0,240,384,6.0,105.0
8394,46.0,0,288,8.0,105.0
8395,58.0,240,288,1.0,105.0
8396,58.0,0,288,7.0,105.0
8397,70.0,0,3456,2.0,105.0
8398,74.0,0,1536,0.0,105.0
8399,62.0,0,3456,2.0,105.0
8400,58.0,0,384,6.0,105.0
8401,74.0,0,384,5.0,105.0
8402,74.0,240,384,4.0,105.0
8403,55.0,0,288,1.0,105.0
8404,55.0,240,288,7.0,105.0
8405,43.0,0,288,8.0,105.0
8406,74.0,0,192,5.0,105.0
8407,58.0,240,192,6.0,105.0
8408,74.0,0,192,4.0,105.0
8409,75.0,0,192,4.0,105.0
8410,67.0,0,192,6.0,105.0
8411,75.0,240,192,5.0,105.0
8412,67.0,0,384,6.0,105.0
8413,75.0,0,384,5.0,105.0
8414,75.0,240,384,4.0,105.0
8415,48.0,240,288,1.0,105.0
8416,48.0,0,288,7.0,105.0
8417,36.0,0,288,8.0,105.0
8418,75.0,240,384,5.0,105.0
8419,75.0,0,384,4.0,105.0
8420,67.0,0,384,6.0,105.0
8421,55.0,240,288,1.0,105.0
8422,55.0,0,288,7.0,105.0
8423,43.0,0,288,8.0,105.0
8424,75.0,0,1536,0.0,105.0
8425,72.0,0,1536,2.0,105.0
8426,75.0,240,384,5.0,105.0
8427,75.0,0,384,4.0,105.0
8428,67.0,0,384,6.0,105.0
8429,60.0,0,288,1.0,105.0
8430,48.0,240,288,8.0,105.0
8431,60.0,0,288,7.0,105.0
8432,67.0,240,192,6.0,105.0
8433,75.0,0,192,5.0,105.0
8434,75.0,0,192,4.0,105.0
8435,62.0,0,192,6.0,105.0
8436,57.0,0,192,6.0,105.0
8437,66.0,240,192,5.0,105.0
8438,66.0,0,192,4.0,105.0
8439,66.0,0,384,5.0,105.0
8440,57.0,240,384,6.0,105.0
8441,62.0,0,384,6.0,105.0
8442,66.0,0,384,4.0,105.0
8443,45.0,0,288,8.0,105.0
8444,57.0,0,288,7.0,105.0
8445,57.0,240,288,1.0,105.0
8446,66.0,0,384,5.0,105.0
8447,62.0,240,384,6.0,105.0
8448,57.0,0,384,6.0,105.0
8449,66.0,0,384,4.0,105.0
8450,50.0,240,288,8.0,105.0
8451,62.0,0,288,7.0,105.0
8452,62.0,0,288,1.0,105.0
8453,62.0,0,1536,2.0,105.0
8454,74.0,0,1536,2.0,105.0
8455,66.0,0,1536,0.0,105.0
8456,66.0,0,384,5.0,105.0
8457,66.0,240,384,4.0,105.0
8458,57.0,0,384,6.0,105.0
8459,62.0,0,384,6.0,105.0
8460,60.0,0,288,1.0,105.0
8461,60.0,0,288,7.0,105.0
8462,48.0,240,288,8.0,105.0
8463,62.0,240,192,6.0,105.0
8464,57.0,0,192,6.0,105.0
8465,66.0,0,192,5.0,105.0
8466,66.0,0,192,4.0,105.0
8467,62.0,0,384,2.0,92.0
8468,58.0,0,384,1.0,92.0
8469,58.0,0,384,7.0,105.0
8470,67.0,0,384,4.0,92.0
8471,67.0,0,384,5.0,92.0
8472,58.0,0,384,6.0,92.0
8473,46.0,240,384,8.0,92.0
8474,62.0,0,384,6.0,92.0
8475,67.0,0,480,0.0,80.0
8476,58.0,480,384,5.0,58.0
8477,62.0,0,384,4.0,58.0
8478,58.0,480,384,5.0,58.0
8479,62.0,0,384,4.0,58.0
8480,62.0,0,384,4.0,58.0
8481,58.0,480,384,5.0,58.0
8482,79.0,0,1920,0.0,105.0
8483,55.0,480,384,6.0,58.0
8484,43.0,0,384,7.0,58.0
8485,31.0,0,384,8.0,70.0
8486,58.0,480,384,5.0,58.0
8487,62.0,0,384,4.0,58.0
8488,62.0,0,384,4.0,58.0
8489,58.0,480,384,5.0,58.0
8490,62.0,480,384,4.0,58.0
8491,58.0,0,384,5.0,58.0
8492,74.0,0,1920,0.0,80.0
8493,31.0,0,384,8.0,70.0
8494,43.0,0,384,7.0,58.0
8495,55.0,480,384,6.0,58.0
8496,63.0,0,384,4.0,58.0
8497,60.0,480,384,5.0,58.0
8498,63.0,480,384,4.0,58.0
8499,60.0,0,384,5.0,58.0
8500,63.0,480,384,4.0,58.0
8501,60.0,0,384,5.0,58.0
8502,75.0,0,1920,0.0,80.0
8503,43.0,0,384,7.0,58.0
8504,31.0,480,384,8.0,70.0
8505,55.0,0,384,6.0,58.0
8506,60.0,0,384,4.0,58.0
8507,57.0,480,384,5.0,58.0
8508,57.0,480,384,5.0,58.0
8509,60.0,0,384,4.0,58.0
8510,60.0,0,384,4.0,58.0
8511,66.0,0,1824,0.0,80.0
8512,57.0,480,384,5.0,58.0
8513,55.0,0,7584,3.0,58.0
8514,55.0,0,384,6.0,58.0
8515,43.0,0,384,7.0,58.0
8516,31.0,0,384,8.0,70.0
8517,55.0,0,384,5.0,58.0
8518,58.0,480,384,4.0,58.0
8519,55.0,0,384,5.0,58.0
8520,58.0,480,384,4.0,58.0
8521,58.0,480,384,4.0,58.0
8522,55.0,0,384,5.0,58.0
8523,67.0,0,1920,0.0,80.0
8524,43.0,0,384,7.0,58.0
8525,55.0,480,384,6.0,58.0
8526,31.0,0,384,8.0,70.0
8527,58.0,480,384,5.0,58.0
8528,62.0,0,384,4.0,58.0
8529,62.0,0,384,4.0,58.0
8530,58.0,480,384,5.0,58.0
8531,62.0,0,384,4.0,58.0
8532,58.0,480,384,5.0,58.0
8533,79.0,0,1920,0.0,80.0
8534,27.0,0,384,8.0,70.0
8535,51.0,480,384,6.0,58.0
8536,39.0,0,384,7.0,58.0
8537,61.0,0,384,5.0,58.0
8538,67.0,480,384,4.0,58.0
8539,67.0,480,384,4.0,58.0
8540,61.0,0,384,5.0,58.0
8541,67.0,480,384,4.0,58.0
8542,61.0,0,384,5.0,58.0
8543,82.0,0,1920,0.0,80.0
8544,51.0,0,384,7.0,58.0
8545,39.0,0,384,8.0,70.0
8546,63.0,480,384,6.0,58.0
8547,67.0,480,384,5.0,58.0
8548,70.0,0,384,4.0,58.0
8549,67.0,480,384,5.0,58.0
8550,70.0,0,384,4.0,58.0
8551,55.0,480,7584,3.0,58.0
8552,73.0,0,1824,0.0,80.0
8553,67.0,0,384,4.0,58.0
8554,55.0,480,384,5.0,58.0
8555,38.0,0,384,8.0,58.0
8556,50.0,0,384,7.0,58.0
8557,62.0,0,384,6.0,58.0
8558,66.0,480,720,4.0,58.0
8559,57.0,0,720,5.0,58.0
8560,74.0,0,720,0.0,80.0
8561,73.0,0,240,0.0,80.0
8562,58.0,0,240,5.0,58.0
8563,67.0,720,240,4.0,58.0
8564,66.0,0,240,4.0,58.0
8565,74.0,240,240,0.0,80.0
8566,57.0,0,240,5.0,58.0
8567,58.0,0,240,5.0,58.0
8568,73.0,0,240,0.0,70.0
8569,67.0,240,240,4.0,58.0
8570,57.0,240,240,5.0,58.0
8571,74.0,0,240,0.0,70.0
8572,66.0,0,240,4.0,58.0
8573,73.0,240,192,0.0,70.0
8574,58.0,0,192,5.0,58.0
8575,67.0,0,192,4.0,58.0
8576,50.0,0,384,7.0,58.0
8577,62.0,0,384,6.0,58.0
8578,38.0,0,384,8.0,58.0
8579,57.0,0,720,5.0,58.0
8580,66.0,240,720,4.0,58.0
8581,74.0,0,720,0.0,70.0
8582,58.0,0,240,5.0,58.0
8583,73.0,0,240,0.0,70.0
8584,67.0,720,240,4.0,58.0
8585,74.0,0,240,0.0,70.0
8586,66.0,240,240,4.0,58.0
8587,57.0,0,240,5.0,58.0
8588,58.0,0,240,5.0,58.0
8589,73.0,0,240,0.0,58.0
8590,67.0,240,240,4.0,58.0
8591,74.0,0,240,0.0,58.0
8592,57.0,240,240,5.0,58.0
8593,66.0,0,240,4.0,58.0
8594,67.0,240,192,4.0,58.0
8595,58.0,0,192,5.0,58.0
8596,73.0,0,192,0.0,58.0
8597,38.0,240,384,8.0,58.0
8598,50.0,0,384,7.0,58.0
8599,57.0,0,384,5.0,58.0
8600,66.0,0,384,4.0,58.0
8601,50.0,0,4224,3.0,58.0
8602,74.0,0,384,0.0,58.0
8603,62.0,0,384,6.0,58.0
8604,66.0,0,384,4.0,58.0
8605,50.0,0,384,3.0,58.0
8606,74.0,960,384,0.0,58.0
8607,38.0,0,384,8.0,58.0
8608,57.0,0,384,5.0,58.0
8609,62.0,0,384,6.0,58.0
8610,50.0,0,384,7.0,58.0
8611,50.0,0,384,7.0,58.0
8612,57.0,0,384,5.0,58.0
8613,66.0,0,384,4.0,58.0
8614,50.0,0,384,3.0,58.0
8615,62.0,960,384,6.0,58.0
8616,38.0,0,384,8.0,58.0
8617,74.0,0,384,0.0,58.0
8618,62.0,0,96,5.0,80.0
8619,58.0,0,96,5.0,80.0
8620,55.0,0,96,6.0,80.0
8621,58.0,0,96,6.0,80.0
8622,58.0,0,96,6.0,80.0
8623,55.0,0,96,6.0,80.0
8624,62.0,120,96,5.0,80.0
8625,58.0,0,96,5.0,80.0
8626,55.0,0,96,6.0,80.0
8627,58.0,120,96,6.0,80.0
8628,58.0,0,96,5.0,80.0
8629,62.0,0,96,5.0,80.0
8630,67.0,0,384,3.0,105.0
8631,55.0,1920,384,3.0,58.0
8632,58.0,0,384,2.0,105.0
8633,62.0,0,384,2.0,105.0
8634,62.0,120,96,5.0,80.0
8635,55.0,0,96,6.0,80.0
8636,58.0,0,96,6.0,80.0
8637,58.0,0,96,5.0,80.0
8638,62.0,0,96,5.0,80.0
8639,58.0,0,96,5.0,80.0
8640,55.0,120,96,6.0,80.0
8641,58.0,0,96,6.0,80.0
8642,62.0,0,96,5.0,80.0
8643,58.0,0,96,6.0,80.0
8644,55.0,0,96,6.0,80.0
8645,58.0,120,96,5.0,80.0
8646,43.0,0,768,7.0,105.0
8647,43.0,0,768,1.0,105.0
8648,31.0,0,768,8.0,105.0
8649,55.0,0,96,6.0,80.0
8650,58.0,120,96,5.0,80.0
8651,58.0,0,96,6.0,80.0
8652,62.0,0,96,5.0,80.0
8653,62.0,0,96,5.0,80.0
8654,58.0,120,96,5.0,80.0
8655,55.0,0,96,6.0,80.0
8656,58.0,0,96,6.0,80.0
8657,62.0,0,96,5.0,80.0
8658,55.0,0,96,6.0,80.0
8659,58.0,120,96,5.0,80.0
8660,58.0,0,96,6.0,80.0
8661,58.0,0,96,5.0,80.0
8662,62.0,0,96,5.0,80.0
8663,55.0,120,96,6.0,80.0
8664,58.0,0,96,6.0,80.0
8665,62.0,0,96,5.0,80.0
8666,58.0,120,96,5.0,80.0
8667,55.0,0,96,6.0,80.0
8668,58.0,0,96,6.0,80.0
8669,62.0,120,96,5.0,80.0
8670,58.0,0,96,5.0,80.0
8671,55.0,0,96,6.0,80.0
8672,58.0,0,96,6.0,80.0
8673,55.0,120,96,6.0,80.0
8674,58.0,0,96,6.0,80.0
8675,58.0,0,96,5.0,80.0
8676,62.0,0,96,5.0,80.0
8677,67.0,0,1632,0.0,105.0
8678,67.0,0,1632,4.0,116.0
8679,62.0,0,96,5.0,80.0
8680,58.0,0,96,5.0,80.0
8681,58.0,0,96,6.0,80.0
8682,55.0,120,96,6.0,80.0
8683,58.0,0,96,5.0,80.0
8684,62.0,120,96,5.0,80.0
8685,55.0,0,96,6.0,80.0
8686,58.0,0,96,6.0,80.0
8687,58.0,0,96,6.0,80.0
8688,62.0,120,96,5.0,80.0
8689,58.0,0,96,5.0,80.0
8690,55.0,0,96,6.0,80.0
8691,55.0,0,96,6.0,80.0
8692,58.0,0,96,6.0,80.0
8693,62.0,120,96,5.0,80.0
8694,58.0,0,96,5.0,80.0
8695,62.0,0,96,5.0,80.0
8696,55.0,0,96,6.0,80.0
8697,58.0,120,96,6.0,80.0
8698,58.0,0,96,5.0,80.0
8699,58.0,0,96,5.0,80.0
8700,62.0,120,96,5.0,80.0
8701,55.0,0,96,6.0,80.0
8702,58.0,0,96,6.0,80.0
8703,58.0,0,96,6.0,80.0
8704,62.0,120,96,5.0,80.0
8705,55.0,0,96,6.0,80.0
8706,58.0,0,96,5.0,80.0
8707,58.0,0,96,6.0,80.0
8708,58.0,120,96,5.0,80.0
8709,62.0,0,96,5.0,80.0
8710,55.0,0,96,6.0,80.0
8711,62.0,0,96,5.0,80.0
8712,58.0,0,96,5.0,80.0
8713,58.0,0,96,6.0,80.0
8714,55.0,120,96,6.0,80.0
8715,55.0,0,96,6.0,80.0
8716,58.0,120,96,6.0,80.0
8717,58.0,0,96,5.0,80.0
8718,62.0,0,96,5.0,80.0
8719,58.0,0,96,6.0,80.0
8720,58.0,0,96,5.0,80.0
8721,55.0,0,96,6.0,80.0
8722,62.0,120,96,5.0,80.0
8723,58.0,120,96,6.0,80.0
8724,55.0,0,96,6.0,80.0
8725,62.0,0,96,5.0,80.0
8726,58.0,0,96,5.0,80.0
8727,55.0,0,96,6.0,80.0
8728,58.0,0,96,6.0,80.0
8729,62.0,120,96,5.0,80.0
8730,58.0,0,96,5.0,80.0
8731,58.0,120,96,5.0,80.0
8732,62.0,0,96,5.0,80.0
8733,55.0,0,96,6.0,80.0
8734,58.0,0,96,6.0,80.0
8735,58.0,0,96,6.0,80.0
8736,62.0,120,96,5.0,80.0
8737,58.0,0,96,5.0,80.0
8738,55.0,0,96,6.0,80.0
8739,58.0,120,96,6.0,80.0
8740,55.0,0,96,6.0,80.0
8741,58.0,0,96,5.0,80.0
8742,62.0,0,96,5.0,80.0
8743,79.0,0,1632,0.0,105.0
8744,79.0,0,1632,4.0,116.0
8745,55.0,0,96,6.0,80.0
8746,58.0,120,96,6.0,80.0
8747,58.0,0,96,5.0,80.0
8748,62.0,0,96,5.0,80.0
8749,58.0,0,96,6.0,80.0
8750,55.0,120,96,6.0,80.0
8751,58.0,0,96,5.0,80.0
8752,62.0,0,96,5.0,80.0
8753,58.0,0,96,6.0,80.0
8754,55.0,0,96,6.0,80.0
8755,58.0,120,96,5.0,80.0
8756,62.0,0,96,5.0,80.0
8757,78.0,0,60,4.0,116.0
8758,60.0,0,96,6.0,80.0
8759,57.0,0,96,6.0,80.0
8760,60.0,0,96,5.0,80.0
8761,62.0,0,96,5.0,80.0
8762,75.0,60,60,4.0,116.0
8763,60.0,0,96,5.0,80.0
8764,62.0,0,96,5.0,80.0
8765,60.0,60,96,6.0,80.0
8766,57.0,0,96,6.0,80.0
8767,60.0,120,96,5.0,80.0
8768,62.0,0,96,5.0,80.0
8769,60.0,0,96,6.0,80.0
8770,57.0,0,96,6.0,80.0
8771,78.0,0,384,0.0,105.0
8772,74.0,0,288,4.0,116.0
8773,60.0,120,96,6.0,80.0
8774,57.0,0,96,6.0,80.0
8775,60.0,0,96,5.0,80.0
8776,62.0,0,96,5.0,80.0
8777,62.0,120,96,5.0,80.0
8778,60.0,0,96,6.0,80.0
8779,60.0,0,96,5.0,80.0
8780,57.0,0,96,6.0,80.0
8781,74.0,0,156,4.0,116.0
8782,60.0,0,96,6.0,80.0
8783,62.0,0,96,5.0,80.0
8784,60.0,0,96,5.0,80.0
8785,57.0,120,96,6.0,80.0
8786,60.0,0,96,5.0,80.0
8787,62.0,120,96,5.0,80.0
8788,57.0,0,96,6.0,80.0
8789,60.0,0,96,6.0,80.0
8790,74.0,0,156,4.0,116.0
8791,62.0,120,96,5.0,80.0
8792,60.0,0,96,6.0,80.0
8793,57.0,0,96,6.0,80.0
8794,60.0,0,96,5.0,80.0
8795,60.0,0,96,6.0,80.0
8796,57.0,0,96,6.0,80.0
8797,60.0,0,96,5.0,80.0
8798,62.0,0,96,5.0,80.0
8799,57.0,120,96,6.0,80.0
8800,60.0,0,96,6.0,80.0
8801,62.0,0,96,5.0,80.0
8802,60.0,0,96,5.0,80.0
8803,60.0,120,96,6.0,80.0
8804,57.0,0,96,6.0,80.0
8805,60.0,0,96,5.0,80.0
8806,62.0,0,96,5.0,80.0
8807,74.0,120,384,4.0,116.0
8808,60.0,0,96,5.0,80.0
8809,60.0,0,96,6.0,80.0
8810,57.0,0,96,6.0,80.0
8811,62.0,120,96,5.0,80.0
8812,60.0,0,96,6.0,80.0
8813,62.0,0,96,5.0,80.0
8814,60.0,0,96,5.0,80.0
8815,62.0,120,1536,3.0,105.0
8816,62.0,0,1536,2.0,105.0
8817,57.0,120,96,6.0,80.0
8818,60.0,0,96,6.0,80.0
8819,62.0,120,96,5.0,80.0
8820,60.0,0,96,5.0,80.0
8821,57.0,0,96,6.0,80.0
8822,50.0,0,1728,7.0,105.0
8823,50.0,0,1728,1.0,105.0
8824,38.0,0,1728,8.0,105.0
8825,62.0,0,96,5.0,80.0
8826,60.0,120,96,5.0,80.0
8827,60.0,0,96,6.0,80.0
8828,57.0,0,96,6.0,80.0
8829,57.0,0,96,6.0,80.0
8830,60.0,120,96,6.0,80.0
8831,60.0,0,96,5.0,80.0
8832,62.0,0,96,5.0,80.0
8833,78.0,0,60,4.0,116.0
8834,57.0,0,96,6.0,80.0
8835,62.0,0,96,6.0,80.0
8836,57.0,0,96,5.0,80.0
8837,66.0,0,96,5.0,80.0
8838,75.0,60,60,4.0,116.0
8839,57.0,0,96,5.0,80.0
8840,66.0,0,96,5.0,80.0
8841,62.0,0,96,6.0,80.0
8842,57.0,60,96,6.0,80.0
8843,57.0,0,96,5.0,80.0
8844,62.0,0,96,6.0,80.0
8845,57.0,0,96,6.0,80.0
8846,66.0,120,96,5.0,80.0
8847,74.0,0,288,4.0,116.0
8848,57.0,0,96,5.0,80.0
8849,66.0,0,96,5.0,80.0
8850,62.0,120,96,6.0,80.0
8851,57.0,0,96,6.0,80.0
8852,57.0,0,96,5.0,80.0
8853,62.0,0,96,6.0,80.0
8854,57.0,120,96,6.0,80.0
8855,66.0,0,96,5.0,80.0
8856,74.0,0,156,4.0,116.0
8857,57.0,0,96,6.0,80.0
8858,62.0,120,96,6.0,80.0
8859,57.0,0,96,5.0,80.0
8860,66.0,0,96,5.0,80.0
8861,57.0,0,96,5.0,80.0
8862,66.0,0,96,5.0,80.0
8863,62.0,120,96,6.0,80.0
8864,57.0,0,96,6.0,80.0
8865,74.0,0,156,4.0,116.0
8866,57.0,0,96,6.0,80.0
8867,66.0,0,96,5.0,80.0
8868,57.0,0,96,5.0,80.0
8869,62.0,120,96,6.0,80.0
8870,57.0,120,96,5.0,80.0
8871,66.0,0,96,5.0,80.0
8872,62.0,0,96,6.0,80.0
8873,57.0,0,96,6.0,80.0
8874,62.0,0,96,6.0,80.0
8875,66.0,120,96,5.0,80.0
8876,57.0,0,96,5.0,80.0
8877,57.0,0,96,6.0,80.0
8878,62.0,120,96,6.0,80.0
8879,57.0,0,96,6.0,80.0
8880,57.0,0,96,5.0,80.0
8881,66.0,0,96,5.0,80.0
8882,74.0,0,384,4.0,116.0
8883,66.0,0,96,5.0,80.0
8884,57.0,120,96,5.0,80.0
8885,57.0,0,96,6.0,80.0
8886,62.0,0,96,6.0,80.0
8887,72.0,120,1536,2.0,105.0
8888,72.0,0,1536,3.0,105.0
8889,57.0,120,96,5.0,80.0
8890,66.0,0,96,5.0,80.0
8891,62.0,0,96,6.0,80.0
8892,57.0,0,96,6.0,80.0
8893,57.0,0,96,6.0,80.0
8894,62.0,0,96,6.0,80.0
8895,66.0,0,96,5.0,80.0
8896,57.0,120,96,5.0,80.0
8897,60.0,0,1728,7.0,105.0
8898,48.0,0,1728,8.0,105.0
8899,60.0,0,1728,1.0,105.0
8900,57.0,120,96,6.0,80.0
8901,62.0,0,96,6.0,80.0
8902,57.0,0,96,5.0,80.0
8903,66.0,0,96,5.0,80.0
8904,66.0,120,96,5.0,80.0
8905,57.0,0,96,5.0,80.0
8906,57.0,0,96,6.0,80.0
8907,62.0,0,96,6.0,80.0
8908,58.0,0,96,5.0,80.0
8909,58.0,0,96,6.0,80.0
8910,55.0,0,96,6.0,80.0
8911,62.0,0,96,5.0,80.0
8912,58.0,120,96,5.0,80.0
8913,62.0,0,96,5.0,80.0
8914,58.0,0,96,6.0,80.0
8915,55.0,0,96,6.0,80.0
8916,58.0,0,96,6.0,80.0
8917,55.0,120,96,6.0,80.0
8918,58.0,0,96,5.0,80.0
8919,62.0,0,96,5.0,80.0
8920,70.0,0,384,2.0,105.0
8921,62.0,0,96,5.0,80.0
8922,58.0,0,96,5.0,80.0
8923,55.0,120,96,6.0,80.0
8924,58.0,0,96,6.0,80.0
8925,62.0,0,96,5.0,80.0
8926,55.0,120,96,6.0,80.0
8927,58.0,0,96,6.0,80.0
8928,58.0,0,96,5.0,80.0
8929,67.0,0,192,3.0,105.0
8930,58.0,0,96,6.0,80.0
8931,55.0,0,96,6.0,80.0
8932,62.0,120,96,5.0,80.0
8933,58.0,0,96,5.0,80.0
8934,43.0,0,768,7.0,105.0
8935,31.0,0,768,8.0,105.0
8936,43.0,0,768,1.0,105.0
8937,58.0,120,96,5.0,80.0
8938,55.0,0,96,6.0,80.0
8939,58.0,0,96,6.0,80.0
8940,62.0,0,96,5.0,80.0
8941,67.0,0,192,3.0,105.0
8942,58.0,0,96,5.0,80.0
8943,62.0,0,96,5.0,80.0
8944,58.0,0,96,6.0,80.0
8945,55.0,120,96,6.0,80.0
8946,58.0,0,96,5.0,80.0
8947,62.0,0,96,5.0,80.0
8948,58.0,0,96,6.0,80.0
8949,55.0,120,96,6.0,80.0
8950,55.0,0,96,6.0,80.0
8951,58.0,0,96,5.0,80.0
8952,62.0,120,96,5.0,80.0
8953,58.0,0,96,6.0,80.0
8954,58.0,0,96,6.0,80.0
8955,58.0,0,96,5.0,80.0
8956,62.0,120,96,5.0,80.0
8957,55.0,0,96,6.0,80.0
8958,67.0,0,384,3.0,105.0
8959,58.0,0,96,5.0,80.0
8960,58.0,0,96,6.0,80.0
8961,55.0,0,96,6.0,80.0
8962,62.0,120,96,5.0,80.0
8963,58.0,0,96,6.0,80.0
8964,58.0,0,96,5.0,80.0
8965,62.0,120,96,5.0,80.0
8966,55.0,0,96,6.0,80.0
8967,67.0,120,1632,0.0,105.0
8968,67.0,0,1632,4.0,116.0
8969,62.0,120,96,5.0,80.0
8970,58.0,0,96,6.0,80.0
8971,58.0,0,96,5.0,80.0
8972,55.0,0,96,6.0,80.0
8973,55.0,0,96,6.0,80.0
8974,58.0,120,96,6.0,80.0
8975,62.0,0,96,5.0,80.0
8976,58.0,0,96,5.0,80.0
8977,62.0,0,96,5.0,80.0
8978,55.0,120,96,6.0,80.0
8979,58.0,0,96,6.0,80.0
8980,58.0,0,96,5.0,80.0
8981,58.0,0,96,5.0,80.0
8982,62.0,0,96,5.0,80.0
8983,55.0,0,96,6.0,80.0
8984,58.0,0,96,6.0,80.0
8985,58.0,0,96,6.0,80.0
8986,55.0,0,96,6.0,80.0
8987,62.0,120,96,5.0,80.0
8988,58.0,0,96,5.0,80.0
8989,58.0,0,96,5.0,80.0
8990,62.0,0,96,5.0,80.0
8991,55.0,120,96,6.0,80.0
8992,58.0,0,96,6.0,80.0
8993,70.0,120,384,2.0,105.0
8994,58.0,0,384,2.0,105.0
8995,55.0,120,96,6.0,80.0
8996,58.0,0,96,6.0,80.0
8997,58.0,0,96,5.0,80.0
8998,62.0,0,96,5.0,80.0
8999,58.0,0,96,5.0,80.0
9000,62.0,120,96,5.0,80.0
9001,55.0,0,96,6.0,80.0
9002,58.0,0,96,6.0,80.0
9003,55.0,0,192,3.0,105.0
9004,67.0,0,192,3.0,105.0
9005,58.0,0,96,6.0,80.0
9006,55.0,0,96,6.0,80.0
9007,58.0,0,96,5.0,80.0
9008,62.0,120,96,5.0,80.0
9009,58.0,0,96,5.0,80.0
9010,55.0,120,96,6.0,80.0
9011,58.0,0,96,6.0,80.0
9012,62.0,0,96,5.0,80.0
9013,55.0,0,192,3.0,105.0
9014,67.0,0,192,3.0,105.0
9015,58.0,0,96,6.0,80.0
9016,55.0,120,96,6.0,80.0
9017,58.0,0,96,5.0,80.0
9018,62.0,0,96,5.0,80.0
9019,58.0,0,96,6.0,80.0
9020,55.0,0,96,6.0,80.0
9021,62.0,0,96,5.0,80.0
9022,58.0,120,96,5.0,80.0
9023,62.0,120,96,5.0,80.0
9024,58.0,0,96,5.0,80.0
9025,58.0,0,96,6.0,80.0
9026,55.0,0,96,6.0,80.0
9027,55.0,0,96,6.0,80.0
9028,62.0,0,96,5.0,80.0
9029,58.0,0,96,5.0,80.0
9030,58.0,120,96,6.0,80.0
9031,55.0,0,384,3.0,105.0
9032,67.0,0,384,3.0,105.0
9033,58.0,0,96,5.0,80.0
9034,62.0,0,96,5.0,80.0
9035,58.0,120,96,6.0,80.0
9036,55.0,0,96,6.0,80.0
9037,62.0,120,96,5.0,80.0
9038,58.0,0,96,5.0,80.0
9039,55.0,0,96,6.0,80.0
9040,58.0,0,96,6.0,80.0
9041,79.0,0,1632,4.0,116.0
9042,79.0,0,1632,0.0,105.0
9043,58.0,0,96,6.0,80.0
9044,62.0,0,96,5.0,80.0
9045,58.0,120,96,5.0,80.0
9046,55.0,0,96,6.0,80.0
9047,58.0,0,96,5.0,80.0
9048,58.0,120,96,6.0,80.0
9049,55.0,0,96,6.0,80.0
9050,62.0,0,96,5.0,80.0
9051,58.0,0,96,6.0,80.0
9052,55.0,120,96,6.0,80.0
9053,62.0,0,96,5.0,80.0
9054,58.0,0,96,5.0,80.0
9055,78.0,0,60,4.0,116.0
9056,60.0,0,96,6.0,80.0
9057,57.0,0,96,6.0,80.0
9058,60.0,0,96,5.0,80.0
9059,62.0,0,96,5.0,80.0
9060,75.0,60,60,4.0,116.0
9061,60.0,0,96,5.0,80.0
9062,60.0,0,96,6.0,80.0
9063,57.0,60,96,6.0,80.0
9064,62.0,0,96,5.0,80.0
9065,57.0,0,96,6.0,80.0
9066,60.0,120,96,6.0,80.0
9067,62.0,0,96,5.0,80.0
9068,60.0,0,96,5.0,80.0
9069,78.0,0,384,0.0,105.0
9070,74.0,0,288,4.0,116.0
9071,60.0,0,96,5.0,80.0
9072,60.0,0,96,6.0,80.0
9073,62.0,120,96,5.0,80.0
9074,57.0,0,96,6.0,80.0
9075,57.0,0,96,6.0,80.0
9076,60.0,0,96,6.0,80.0
9077,60.0,0,96,5.0,80.0
9078,62.0,0,96,5.0,80.0
9079,74.0,120,156,4.0,116.0
9080,57.0,0,96,6.0,80.0
9081,60.0,120,96,6.0,80.0
9082,62.0,0,96,5.0,80.0
9083,60.0,0,96,5.0,80.0
9084,57.0,0,96,6.0,80.0
9085,62.0,120,96,5.0,80.0
9086,60.0,0,96,6.0,80.0
9087,60.0,0,96,5.0,80.0
9088,74.0,0,156,4.0,116.0
9089,57.0,0,96,6.0,80.0
9090,60.0,120,96,5.0,80.0
9091,60.0,0,96,6.0,80.0
9092,62.0,0,96,5.0,80.0
9093,60.0,0,96,6.0,80.0
9094,57.0,0,96,6.0,80.0
9095,60.0,120,96,5.0,80.0
9096,62.0,0,96,5.0,80.0
9097,57.0,0,96,6.0,80.0
9098,60.0,120,96,6.0,80.0
9099,60.0,0,96,5.0,80.0
9100,62.0,0,96,5.0,80.0
9101,62.0,0,96,5.0,80.0
9102,60.0,120,96,5.0,80.0
9103,60.0,0,96,6.0,80.0
9104,57.0,0,96,6.0,80.0
9105,74.0,0,384,4.0,116.0
9106,60.0,120,96,5.0,80.0
9107,62.0,0,96,5.0,80.0
9108,57.0,0,96,6.0,80.0
9109,60.0,0,96,6.0,80.0
9110,60.0,0,96,6.0,80.0
9111,62.0,120,1536,3.0,105.0
9112,62.0,0,96,5.0,80.0
9113,62.0,0,1536,2.0,105.0
9114,57.0,120,96,6.0,80.0
9115,60.0,0,96,5.0,80.0
9116,60.0,0,96,5.0,80.0
9117,62.0,120,96,5.0,80.0
9118,60.0,0,96,6.0,80.0
9119,57.0,0,96,6.0,80.0
9120,38.0,0,1728,8.0,105.0
9121,50.0,0,1728,7.0,105.0
9122,50.0,0,1728,1.0,105.0
9123,60.0,0,96,6.0,80.0
9124,60.0,0,96,5.0,80.0
9125,62.0,120,96,5.0,80.0
9126,57.0,0,96,6.0,80.0
9127,57.0,0,96,6.0,80.0
9128,60.0,0,96,6.0,80.0
9129,62.0,120,96,5.0,80.0
9130,60.0,0,96,5.0,80.0
9131,78.0,0,60,4.0,116.0
9132,66.0,0,96,5.0,80.0
9133,57.0,0,96,5.0,80.0
9134,57.0,0,96,6.0,80.0
9135,62.0,0,96,6.0,80.0
9136,75.0,60,60,4.0,116.0
9137,66.0,0,96,5.0,80.0
9138,57.0,0,96,5.0,80.0
9139,62.0,0,96,6.0,80.0
9140,57.0,60,96,6.0,80.0
9141,62.0,0,96,6.0,80.0
9142,57.0,0,96,5.0,80.0
9143,66.0,120,96,5.0,80.0
9144,57.0,0,96,6.0,80.0
9145,74.0,0,288,4.0,116.0
9146,66.0,0,96,5.0,80.0
9147,57.0,0,96,6.0,80.0
9148,62.0,0,96,6.0,80.0
9149,57.0,120,96,5.0,80.0
9150,57.0,0,96,5.0,80.0
9151,62.0,0,96,6.0,80.0
9152,66.0,0,96,5.0,80.0
9153,57.0,120,96,6.0,80.0
9154,74.0,0,156,4.0,116.0
9155,57.0,120,96,5.0,80.0
9156,66.0,0,96,5.0,80.0
9157,57.0,0,96,6.0,80.0
9158,62.0,0,96,6.0,80.0
9159,57.0,0,96,6.0,80.0
9160,62.0,0,96,6.0,80.0
9161,66.0,120,96,5.0,80.0
9162,57.0,0,96,5.0,80.0
9163,74.0,0,156,4.0,116.0
9164,57.0,0,96,5.0,80.0
9165,66.0,0,96,5.0,80.0
9166,62.0,120,96,6.0,80.0
9167,57.0,0,96,6.0,80.0
9168,62.0,0,96,6.0,80.0
9169,57.0,0,96,6.0,80.0
9170,66.0,0,96,5.0,80.0
9171,57.0,0,96,5.0,80.0
9172,62.0,0,96,6.0,80.0
9173,57.0,0,96,6.0,80.0
9174,57.0,0,96,5.0,80.0
9175,66.0,120,96,5.0,80.0
9176,62.0,0,96,6.0,80.0
9177,57.0,0,96,6.0,80.0
9178,66.0,120,96,5.0,80.0
9179,57.0,0,96,5.0,80.0
9180,74.0,120,384,4.0,116.0
9181,62.0,0,96,6.0,80.0
9182,57.0,120,96,5.0,80.0
9183,66.0,0,96,5.0,80.0
9184,57.0,0,96,6.0,80.0
9185,57.0,0,96,6.0,80.0
9186,66.0,120,96,5.0,80.0
9187,72.0,0,1536,2.0,105.0
9188,62.0,0,96,6.0,80.0
9189,57.0,0,96,5.0,80.0
9190,72.0,0,1536,3.0,105.0
9191,66.0,0,96,5.0,80.0
9192,57.0,0,96,5.0,80.0
9193,57.0,120,96,6.0,80.0
9194,62.0,0,96,6.0,80.0
9195,48.0,0,1728,8.0,105.0
9196,60.0,0,1728,1.0,105.0
9197,60.0,120,1728,7.0,105.0
9198,62.0,0,96,6.0,80.0
9199,66.0,0,96,5.0,80.0
9200,57.0,0,96,5.0,80.0
9201,57.0,120,96,6.0,80.0
9202,57.0,0,96,5.0,80.0
9203,66.0,120,96,5.0,80.0
9204,57.0,0,96,6.0,80.0
9205,62.0,0,96,6.0,80.0
9206,58.0,0,60,7.0,105.0
9207,58.0,0,60,1.0,105.0
9208,62.0,0,60,6.0,80.0
9209,46.0,0,60,8.0,105.0
9210,67.0,0,96,4.0,116.0
9211,57.0,60,60,1.0,105.0
9212,45.0,0,60,8.0,105.0
9213,57.0,0,60,7.0,105.0
9214,60.0,0,60,6.0,105.0
9215,67.0,60,96,4.0,105.0
9216,67.0,120,96,4.0,105.0
9217,67.0,0,384,5.0,80.0
9218,58.0,120,384,5.0,80.0
9219,70.0,0,384,2.0,105.0
9220,55.0,0,288,7.0,105.0
9221,55.0,0,288,1.0,105.0
9222,43.0,0,288,8.0,105.0
9223,58.0,0,288,6.0,105.0
9224,67.0,120,96,4.0,105.0
9225,70.0,0,96,4.0,105.0
9226,43.0,0,156,8.0,105.0
9227,58.0,0,156,6.0,105.0
9228,55.0,120,156,7.0,105.0
9229,55.0,0,156,1.0,105.0
9230,67.0,0,156,3.0,92.0
9231,70.0,120,96,4.0,105.0
9232,70.0,0,96,4.0,105.0
9233,55.0,0,156,7.0,105.0
9234,55.0,0,156,1.0,105.0
9235,58.0,0,156,6.0,105.0
9236,67.0,120,156,3.0,92.0
9237,43.0,0,156,8.0,105.0
9238,70.0,120,96,4.0,105.0
9239,74.0,0,96,4.0,105.0
9240,74.0,120,96,4.0,105.0
9241,74.0,120,96,4.0,105.0
9242,67.0,0,384,3.0,92.0
9243,55.0,0,384,7.0,105.0
9244,58.0,0,384,6.0,105.0
9245,55.0,0,384,1.0,105.0
9246,43.0,120,384,8.0,105.0
9247,74.0,120,96,4.0,105.0
9248,79.0,120,96,4.0,105.0
9249,79.0,120,96,4.0,105.0
9250,82.0,0,768,0.0,105.0
9251,74.0,0,768,0.0,105.0
9252,79.0,120,96,4.0,105.0
9253,79.0,120,96,4.0,105.0
9254,46.0,0,60,8.0,105.0
9255,58.0,0,60,1.0,105.0
9256,62.0,0,60,6.0,105.0
9257,58.0,0,60,7.0,105.0
9258,82.0,120,96,4.0,105.0
9259,45.0,0,60,8.0,105.0
9260,57.0,60,60,1.0,105.0
9261,57.0,0,60,7.0,105.0
9262,60.0,0,60,6.0,105.0
9263,82.0,0,96,4.0,105.0
9264,82.0,120,96,4.0,105.0
9265,58.0,0,384,2.0,92.0
9266,70.0,0,384,2.0,92.0
9267,58.0,60,288,6.0,105.0
9268,55.0,0,288,7.0,105.0
9269,43.0,0,288,8.0,105.0
9270,55.0,0,288,1.0,105.0
9271,82.0,120,96,4.0,105.0
9272,79.0,0,96,4.0,105.0
9273,67.0,0,156,3.0,92.0
9274,43.0,0,156,8.0,105.0
9275,55.0,0,156,7.0,105.0
9276,55.0,0,156,3.0,92.0
9277,55.0,0,156,1.0,105.0
9278,58.0,120,156,6.0,105.0
9279,79.0,120,96,4.0,105.0
9280,79.0,0,96,4.0,105.0
9281,55.0,0,156,1.0,105.0
9282,55.0,0,156,3.0,92.0
9283,67.0,0,156,3.0,92.0
9284,43.0,0,156,8.0,105.0
9285,58.0,120,156,6.0,105.0
9286,55.0,0,156,7.0,105.0
9287,79.0,120,96,4.0,105.0
9288,74.0,0,96,4.0,105.0
9289,74.0,120,96,4.0,105.0
9290,74.0,120,96,4.0,105.0
9291,55.0,0,384,7.0,105.0
9292,67.0,0,384,3.0,92.0
9293,55.0,0,384,1.0,105.0
9294,55.0,0,384,3.0,92.0
9295,43.0,0,384,8.0,105.0
9296,58.0,0,384,6.0,105.0
9297,74.0,120,96,4.0,105.0
9298,70.0,120,96,4.0,105.0
9299,70.0,120,96,4.0,105.0
9300,82.0,120,768,0.0,105.0
9301,74.0,0,768,0.0,105.0
9302,70.0,120,96,4.0,105.0
9303,70.0,120,96,4.0,105.0
9304,63.0,0,60,7.0,105.0
9305,51.0,120,60,8.0,105.0
9306,67.0,0,60,6.0,105.0
9307,63.0,0,60,1.0,105.0
9308,60.0,0,96,5.0,92.0
9309,50.0,60,60,8.0,105.0
9310,62.0,0,60,1.0,105.0
9311,62.0,0,60,7.0,105.0
9312,65.0,0,60,6.0,105.0
9313,75.0,0,192,4.0,92.0
9314,60.0,0,96,5.0,105.0
9315,60.0,120,96,5.0,105.0
9316,55.0,0,384,3.0,92.0
9317,72.0,0,384,2.0,92.0
9318,67.0,0,384,3.0,92.0
9319,60.0,0,288,1.0,105.0
9320,60.0,0,288,7.0,105.0
9321,63.0,0,288,6.0,105.0
9322,48.0,60,288,8.0,105.0
9323,60.0,120,96,5.0,105.0
9324,63.0,0,96,5.0,105.0
9325,75.0,0,384,4.0,92.0
9326,55.0,0,156,3.0,92.0
9327,67.0,0,156,3.0,92.0
9328,60.0,0,156,7.0,105.0
9329,48.0,0,156,8.0,105.0
9330,63.0,0,156,6.0,105.0
9331,60.0,120,156,1.0,105.0
9332,63.0,120,96,5.0,105.0
9333,63.0,0,96,5.0,105.0
9334,60.0,0,156,1.0,105.0
9335,63.0,0,156,6.0,105.0
9336,60.0,0,156,7.0,105.0
9337,55.0,0,156,3.0,92.0
9338,48.0,120,156,8.0,105.0
9339,67.0,0,156,3.0,92.0
9340,63.0,120,96,5.0,105.0
9341,67.0,0,96,5.0,105.0
9342,75.0,0,384,4.0,92.0
9343,67.0,120,96,5.0,105.0
9344,67.0,120,96,5.0,105.0
9345,60.0,0,384,1.0,105.0
9346,60.0,0,384,7.0,105.0
9347,48.0,120,384,8.0,105.0
9348,55.0,0,384,3.0,92.0
9349,67.0,0,384,3.0,92.0
9350,63.0,0,384,6.0,105.0
9351,67.0,120,96,5.0,105.0
9352,72.0,120,96,5.0,105.0
9353,75.0,0,384,4.0,92.0
9354,72.0,120,96,5.0,105.0
9355,75.0,0,768,0.0,105.0
9356,67.0,0,768,0.0,105.0
9357,72.0,120,96,5.0,105.0
9358,72.0,120,96,5.0,105.0
9359,51.0,0,60,8.0,105.0
9360,63.0,0,60,1.0,105.0
9361,67.0,120,60,6.0,105.0
9362,63.0,0,60,7.0,105.0
9363,75.0,0,96,5.0,105.0
9364,62.0,0,60,1.0,105.0
9365,50.0,0,60,8.0,105.0
9366,62.0,60,60,7.0,105.0
9367,65.0,0,60,6.0,105.0
9368,75.0,0,432,4.0,92.0
9369,75.0,0,96,5.0,105.0
9370,75.0,0,96,5.0,105.0
9371,67.0,0,384,3.0,92.0
9372,55.0,0,384,3.0,92.0
9373,72.0,0,384,2.0,92.0
9374,60.0,0,288,7.0,105.0
9375,60.0,0,288,1.0,105.0
9376,48.0,60,288,8.0,105.0
9377,63.0,0,288,6.0,105.0
9378,75.0,120,96,5.0,105.0
9379,72.0,0,96,5.0,105.0
9380,75.0,120,384,4.0,92.0
9381,60.0,0,156,7.0,105.0
9382,60.0,0,156,1.0,105.0
9383,67.0,120,156,3.0,92.0
9384,63.0,0,156,6.0,105.0
9385,55.0,0,156,3.0,92.0
9386,48.0,0,156,8.0,105.0
9387,72.0,120,96,5.0,105.0
9388,72.0,120,96,5.0,105.0
9389,48.0,0,156,8.0,105.0
9390,63.0,0,156,6.0,105.0
9391,60.0,0,156,1.0,105.0
9392,55.0,0,156,3.0,92.0
9393,67.0,0,156,3.0,92.0
9394,60.0,0,156,7.0,105.0
9395,72.0,120,96,5.0,105.0
9396,67.0,0,96,5.0,105.0
9397,75.0,0,384,4.0,92.0
9398,67.0,120,96,5.0,105.0
9399,67.0,0,96,5.0,105.0
9400,55.0,0,384,3.0,92.0
9401,67.0,0,384,3.0,92.0
9402,63.0,0,384,6.0,105.0
9403,48.0,0,384,8.0,105.0
9404,60.0,0,384,7.0,105.0
9405,60.0,0,384,1.0,105.0
9406,67.0,120,96,5.0,105.0
9407,63.0,120,96,5.0,105.0
9408,75.0,120,384,4.0,92.0
9409,63.0,120,96,5.0,105.0
9410,67.0,120,768,0.0,105.0
9411,75.0,0,768,0.0,105.0
9412,63.0,0,96,5.0,105.0
9413,75.0,120,192,4.0,92.0
9414,63.0,120,96,5.0,105.0
9415,45.0,0,60,8.0,105.0
9416,60.0,0,60,6.0,105.0
9417,57.0,120,60,1.0,105.0
9418,57.0,0,60,7.0,105.0
9419,65.0,0,96,4.0,105.0
9420,55.0,0,60,7.0,105.0
9421,55.0,0,60,1.0,105.0
9422,58.0,60,60,6.0,105.0
9423,43.0,0,60,8.0,105.0
9424,57.0,0,192,5.0,105.0
9425,65.0,0,96,4.0,105.0
9426,72.0,0,312,2.0,92.0
9427,65.0,0,312,2.0,92.0
9428,65.0,0,96,4.0,105.0
9429,69.0,0,384,3.0,92.0
9430,53.0,0,288,1.0,105.0
9431,53.0,60,288,7.0,105.0
9432,41.0,0,288,8.0,105.0
9433,57.0,0,288,6.0,105.0
9434,65.0,120,96,4.0,105.0
9435,69.0,0,96,4.0,105.0
9436,57.0,120,384,5.0,105.0
9437,65.0,0,156,2.0,92.0
9438,72.0,0,156,2.0,92.0
9439,57.0,0,156,6.0,105.0
9440,41.0,0,156,8.0,105.0
9441,53.0,120,156,1.0,105.0
9442,53.0,0,156,7.0,105.0
9443,69.0,120,96,4.0,105.0
9444,69.0,0,96,4.0,105.0
9445,53.0,0,156,7.0,105.0
9446,65.0,0,156,2.0,92.0
9447,72.0,0,156,2.0,92.0
9448,53.0,120,156,1.0,105.0
9449,41.0,0,156,8.0,105.0
9450,57.0,0,156,6.0,105.0
9451,69.0,120,96,4.0,105.0
9452,72.0,0,96,4.0,105.0
9453,57.0,0,384,5.0,105.0
9454,72.0,120,96,4.0,105.0
9455,72.0,0,312,2.0,92.0
9456,65.0,0,312,2.0,92.0
9457,72.0,0,96,4.0,105.0
9458,53.0,120,384,7.0,105.0
9459,53.0,0,384,1.0,105.0
9460,41.0,0,384,8.0,105.0
9461,57.0,0,384,6.0,105.0
9462,72.0,120,96,4.0,105.0
9463,77.0,120,96,4.0,105.0
9464,57.0,120,384,5.0,105.0
9465,77.0,120,96,4.0,105.0
9466,72.0,0,768,0.0,105.0
9467,81.0,0,768,0.0,105.0
9468,77.0,120,96,4.0,105.0
9469,77.0,120,96,4.0,105.0
9470,57.0,0,60,1.0,105.0
9471,57.0,0,60,7.0,105.0
9472,60.0,120,60,6.0,105.0
9473,45.0,0,60,8.0,105.0
9474,81.0,0,96,4.0,105.0
9475,58.0,0,60,6.0,105.0
9476,55.0,60,60,7.0,105.0
9477,55.0,0,60,1.0,105.0
9478,43.0,0,60,8.0,105.0
9479,57.0,0,432,5.0,105.0
9480,81.0,0,96,4.0,105.0
9481,72.0,0,312,2.0,92.0
9482,65.0,0,312,2.0,92.0
9483,81.0,0,96,4.0,105.0
9484,69.0,0,384,3.0,92.0
9485,41.0,0,288,8.0,105.0
9486,57.0,60,288,6.0,105.0
9487,53.0,0,288,1.0,105.0
9488,53.0,0,288,7.0,105.0
9489,81.0,120,96,4.0,105.0
9490,77.0,0,96,4.0,105.0
9491,57.0,120,384,5.0,105.0
9492,53.0,120,156,7.0,105.0
9493,41.0,0,156,8.0,105.0
9494,65.0,0,156,2.0,92.0
9495,53.0,0,156,1.0,105.0
9496,72.0,0,156,2.0,92.0
9497,57.0,0,156,6.0,105.0
9498,77.0,120,96,4.0,105.0
9499,77.0,0,96,4.0,105.0
9500,65.0,0,156,2.0,92.0
9501,72.0,0,156,2.0,92.0
9502,53.0,0,156,7.0,105.0
9503,53.0,0,156,1.0,105.0
9504,41.0,0,156,8.0,105.0
9505,57.0,120,156,6.0,105.0
9506,77.0,120,96,4.0,105.0
9507,72.0,0,96,4.0,105.0
9508,57.0,0,384,5.0,105.0
9509,72.0,120,96,4.0,105.0
9510,72.0,120,312,2.0,92.0
9511,65.0,0,312,2.0,92.0
9512,72.0,120,96,4.0,105.0
9513,53.0,0,384,7.0,105.0
9514,57.0,0,384,6.0,105.0
9515,53.0,0,384,1.0,105.0
9516,41.0,0,384,8.0,105.0
9517,72.0,120,96,4.0,105.0
9518,69.0,120,96,4.0,105.0
9519,57.0,0,384,5.0,105.0
9520,69.0,120,96,4.0,105.0
9521,72.0,0,768,0.0,105.0
9522,81.0,0,768,0.0,105.0
9523,69.0,120,96,4.0,105.0
9524,57.0,0,192,5.0,105.0
9525,69.0,120,96,4.0,105.0
9526,65.0,0,60,6.0,105.0
9527,62.0,0,60,7.0,105.0
9528,50.0,0,60,8.0,105.0
9529,62.0,0,60,1.0,105.0
9530,58.0,0,96,5.0,105.0
9531,60.0,0,60,7.0,105.0
9532,63.0,60,60,6.0,105.0
9533,60.0,0,60,1.0,105.0
9534,48.0,0,60,8.0,105.0
9535,74.0,0,192,4.0,105.0
9536,58.0,60,96,5.0,105.0
9537,70.0,0,312,2.0,92.0
9538,62.0,120,312,3.0,92.0
9539,65.0,0,312,2.0,92.0
9540,58.0,120,96,5.0,105.0
9541,46.0,0,288,8.0,105.0
9542,62.0,0,288,6.0,105.0
9543,58.0,0,288,7.0,105.0
9544,58.0,0,288,1.0,105.0
9545,58.0,120,96,5.0,105.0
9546,62.0,0,96,5.0,105.0
9547,74.0,0,384,4.0,92.0
9548,62.0,0,156,6.0,105.0
9549,58.0,0,156,7.0,105.0
9550,58.0,0,156,1.0,105.0
9551,65.0,120,156,2.0,92.0
9552,70.0,0,156,2.0,92.0
9553,46.0,0,156,8.0,105.0
9554,62.0,0,156,3.0,92.0
9555,62.0,120,96,5.0,105.0
9556,62.0,0,96,5.0,105.0
9557,58.0,0,156,1.0,105.0
9558,58.0,0,156,7.0,105.0
9559,62.0,0,156,3.0,92.0
9560,62.0,120,156,6.0,105.0
9561,70.0,0,156,2.0,92.0
9562,65.0,0,156,2.0,92.0
9563,46.0,0,156,8.0,105.0
9564,62.0,120,96,5.0,105.0
9565,65.0,0,96,5.0,105.0
9566,74.0,0,384,4.0,92.0
9567,65.0,120,96,5.0,105.0
9568,62.0,0,312,3.0,92.0
9569,70.0,0,312,2.0,92.0
9570,65.0,0,312,2.0,92.0
9571,65.0,120,96,5.0,105.0
9572,58.0,0,384,1.0,105.0
9573,58.0,120,384,7.0,105.0
9574,62.0,0,384,6.0,105.0
9575,46.0,0,384,8.0,105.0
9576,65.0,120,96,5.0,105.0
9577,70.0,120,96,5.0,105.0
9578,74.0,0,384,4.0,92.0
9579,70.0,120,96,5.0,105.0
9580,65.0,0,768,0.0,105.0
9581,74.0,0,768,0.0,105.0
9582,70.0,0,96,5.0,105.0
9583,70.0,120,96,5.0,105.0
9584,50.0,0,60,8.0,105.0
9585,62.0,0,60,1.0,105.0
9586,65.0,0,60,6.0,105.0
9587,62.0,0,60,7.0,105.0
9588,74.0,120,96,5.0,105.0
9589,60.0,0,60,1.0,105.0
9590,60.0,0,60,7.0,105.0
9591,63.0,0,60,6.0,105.0
9592,48.0,60,60,8.0,105.0
9593,74.0,120,432,4.0,92.0
9594,74.0,60,96,5.0,105.0
9595,62.0,0,312,3.0,92.0
9596,70.0,0,312,2.0,92.0
9597,65.0,0,312,2.0,92.0
9598,74.0,120,96,5.0,105.0
9599,46.0,0,288,8.0,105.0
9600,62.0,0,288,6.0,105.0
9601,58.0,0,288,7.0,105.0
9602,58.0,0,288,1.0,105.0
9603,74.0,120,96,5.0,105.0
9604,70.0,0,96,5.0,105.0
9605,74.0,0,384,4.0,92.0
9606,58.0,0,156,7.0,105.0
9607,62.0,0,156,6.0,105.0
9608,70.0,0,156,2.0,92.0
9609,65.0,0,156,2.0,92.0
9610,58.0,0,156,1.0,105.0
9611,62.0,120,156,3.0,92.0
9612,46.0,0,156,8.0,105.0
9613,70.0,120,96,5.0,105.0
9614,70.0,0,96,5.0,105.0
9615,46.0,0,156,8.0,105.0
9616,62.0,0,156,6.0,105.0
9617,58.0,0,156,1.0,105.0
9618,65.0,0,156,2.0,92.0
9619,62.0,0,156,3.0,92.0
9620,70.0,120,156,2.0,92.0
9621,58.0,0,156,7.0,105.0
9622,70.0,120,96,5.0,105.0
9623,65.0,0,96,5.0,105.0
9624,74.0,0,384,4.0,92.0
9625,65.0,120,96,5.0,105.0
9626,70.0,0,312,2.0,92.0
9627,62.0,120,312,3.0,92.0
9628,65.0,0,312,2.0,92.0
9629,65.0,0,96,5.0,105.0
9630,62.0,0,384,6.0,105.0
9631,46.0,0,384,8.0,105.0
9632,58.0,0,384,1.0,105.0
9633,58.0,0,384,7.0,105.0
9634,65.0,120,96,5.0,105.0
9635,62.0,120,96,5.0,105.0
9636,74.0,120,384,4.0,92.0
9637,62.0,120,96,5.0,105.0
9638,74.0,0,768,0.0,105.0
9639,65.0,0,768,0.0,105.0
9640,62.0,0,96,5.0,105.0
9641,74.0,120,192,4.0,92.0
9642,62.0,120,96,5.0,105.0
9643,55.0,0,60,1.0,105.0
9644,43.0,0,60,8.0,105.0
9645,58.0,0,60,6.0,105.0
9646,55.0,0,60,7.0,105.0
9647,63.0,0,96,4.0,92.0
9648,53.0,0,60,7.0,105.0
9649,57.0,0,60,6.0,105.0
9650,53.0,60,60,1.0,105.0
9651,41.0,0,60,8.0,105.0
9652,55.0,120,192,5.0,105.0
9653,63.0,60,96,4.0,105.0
9654,58.0,0,312,2.0,92.0
9655,70.0,0,312,2.0,92.0
9656,67.0,0,312,3.0,92.0
9657,55.0,0,312,3.0,92.0
9658,63.0,120,96,4.0,105.0
9659,51.0,0,288,1.0,105.0
9660,39.0,0,288,8.0,105.0
9661,51.0,0,288,7.0,105.0
9662,55.0,0,288,6.0,105.0
9663,63.0,120,96,4.0,105.0
9664,67.0,0,96,4.0,105.0
9665,55.0,0,384,5.0,105.0
9666,67.0,0,156,3.0,92.0
9667,39.0,0,156,8.0,105.0
9668,55.0,0,156,3.0,92.0
9669,55.0,120,156,6.0,105.0
9670,70.0,0,156,2.0,92.0
9671,58.0,0,156,2.0,92.0
9672,51.0,0,156,7.0,105.0
9673,51.0,0,156,1.0,105.0
9674,67.0,120,96,4.0,105.0
9675,67.0,0,96,4.0,105.0
9676,39.0,0,156,8.0,105.0
9677,55.0,0,156,3.0,92.0
9678,51.0,0,156,7.0,105.0
9679,70.0,0,156,2.0,92.0
9680,58.0,0,156,2.0,92.0
9681,55.0,0,156,6.0,105.0
9682,51.0,120,156,1.0,105.0
9683,67.0,0,156,3.0,92.0
9684,67.0,120,96,4.0,105.0
9685,70.0,0,96,4.0,105.0
9686,55.0,0,384,5.0,105.0
9687,70.0,120,96,4.0,105.0
9688,55.0,0,312,3.0,92.0
9689,67.0,0,312,3.0,92.0
9690,70.0,0,312,2.0,92.0
9691,58.0,0,312,2.0,92.0
9692,70.0,120,96,4.0,105.0
9693,51.0,120,384,1.0,105.0
9694,51.0,0,384,7.0,105.0
9695,39.0,0,384,8.0,105.0
9696,55.0,0,384,6.0,105.0
9697,70.0,120,96,4.0,105.0
9698,75.0,120,96,4.0,105.0
9699,55.0,0,384,5.0,105.0
9700,75.0,120,96,4.0,105.0
9701,70.0,0,768,0.0,105.0
9702,79.0,0,768,0.0,105.0
9703,75.0,0,96,4.0,105.0
9704,75.0,120,96,4.0,105.0
9705,55.0,0,60,7.0,105.0
9706,43.0,0,60,8.0,105.0
9707,58.0,0,60,6.0,105.0
9708,55.0,0,60,1.0,105.0
9709,79.0,0,96,4.0,105.0
9710,53.0,0,60,1.0,105.0
9711,53.0,0,60,7.0,105.0
9712,41.0,60,60,8.0,105.0
9713,57.0,0,60,6.0,105.0
9714,55.0,120,432,5.0,105.0
9715,79.0,0,96,4.0,105.0
9716,67.0,120,312,3.0,92.0
9717,55.0,0,312,3.0,92.0
9718,58.0,0,312,2.0,92.0
9719,70.0,0,312,2.0,92.0
9720,79.0,120,96,4.0,105.0
9721,39.0,0,288,8.0,105.0
9722,51.0,60,288,1.0,105.0
9723,51.0,0,288,7.0,105.0
9724,55.0,0,288,6.0,105.0
9725,79.0,120,96,4.0,105.0
9726,75.0,0,96,4.0,105.0
9727,55.0,0,384,5.0,105.0
9728,55.0,0,156,3.0,92.0
9729,55.0,0,156,6.0,105.0
9730,51.0,0,156,1.0,105.0
9731,67.0,0,156,3.0,92.0
9732,39.0,0,156,8.0,105.0
9733,51.0,0,156,7.0,105.0
9734,70.0,120,156,2.0,92.0
9735,58.0,0,156,2.0,92.0
9736,75.0,120,96,4.0,105.0
9737,75.0,0,96,4.0,105.0
9738,55.0,0,156,6.0,105.0
9739,67.0,0,156,3.0,92.0
9740,51.0,0,156,7.0,105.0
9741,55.0,0,156,3.0,92.0
9742,39.0,0,156,8.0,105.0
9743,58.0,0,156,2.0,92.0
9744,51.0,120,156,1.0,105.0
9745,70.0,0,156,2.0,92.0
9746,75.0,120,96,4.0,105.0
9747,70.0,0,96,4.0,105.0
9748,55.0,0,384,5.0,105.0
9749,70.0,120,96,4.0,105.0
9750,55.0,0,312,3.0,92.0
9751,67.0,0,312,3.0,92.0
9752,58.0,120,312,2.0,92.0
9753,70.0,0,312,2.0,92.0
9754,70.0,120,96,4.0,105.0
9755,39.0,0,384,8.0,105.0
9756,51.0,0,384,7.0,105.0
9757,55.0,0,384,6.0,105.0
9758,51.0,0,384,1.0,105.0
9759,70.0,120,96,4.0,105.0
9760,67.0,120,96,4.0,105.0
9761,55.0,0,384,5.0,105.0
9762,67.0,120,96,4.0,105.0
9763,70.0,0,768,0.0,105.0
9764,79.0,0,768,0.0,105.0
9765,67.0,120,96,4.0,105.0
9766,55.0,0,192,5.0,105.0
9767,67.0,120,96,4.0,105.0
9768,48.0,0,60,8.0,105.0
9769,60.0,0,60,7.0,105.0
9770,63.0,0,60,6.0,105.0
9771,60.0,0,60,1.0,105.0
9772,57.0,0,96,5.0,105.0
9773,58.0,0,60,7.0,105.0
9774,58.0,60,60,1.0,105.0
9775,62.0,0,60,6.0,105.0
9776,46.0,0,60,8.0,105.0
9777,72.0,0,192,4.0,92.0
9778,57.0,0,96,5.0,105.0
9779,72.0,120,312,2.0,92.0
9780,69.0,0,312,3.0,92.0
9781,57.0,0,96,5.0,105.0
9782,57.0,60,288,7.0,105.0
9783,60.0,0,288,6.0,105.0
9784,45.0,0,288,8.0,105.0
9785,57.0,0,288,1.0,105.0
9786,57.0,120,96,5.0,105.0
9787,60.0,120,96,5.0,105.0
9788,72.0,120,384,4.0,92.0
9789,57.0,0,156,7.0,105.0
9790,69.0,0,156,3.0,92.0
9791,72.0,0,156,2.0,92.0
9792,60.0,0,156,6.0,105.0
9793,45.0,0,156,8.0,105.0
9794,57.0,0,156,1.0,105.0
9795,60.0,120,96,5.0,105.0
9796,60.0,0,96,5.0,105.0
9797,45.0,0,156,8.0,105.0
9798,72.0,0,156,2.0,92.0
9799,60.0,0,156,6.0,105.0
9800,69.0,120,156,3.0,92.0
9801,57.0,0,156,1.0,105.0
9802,57.0,0,156,7.0,105.0
9803,60.0,120,96,5.0,105.0
9804,63.0,0,96,5.0,105.0
9805,72.0,0,384,4.0,92.0
9806,63.0,120,96,5.0,105.0
9807,69.0,0,312,3.0,92.0
9808,72.0,0,312,2.0,92.0
9809,63.0,0,96,5.0,105.0
9810,57.0,0,384,1.0,105.0
9811,57.0,0,384,7.0,105.0
9812,60.0,120,384,6.0,105.0
9813,45.0,0,384,8.0,105.0
9814,63.0,120,96,5.0,105.0
9815,69.0,120,96,5.0,105.0
9816,72.0,120,384,4.0,92.0
9817,69.0,120,96,5.0,105.0
9818,72.0,0,768,0.0,105.0
9819,63.0,0,768,0.0,105.0
9820,69.0,120,96,5.0,105.0
9821,69.0,120,96,5.0,105.0
9822,48.0,0,60,8.0,105.0
9823,60.0,0,60,1.0,105.0
9824,63.0,0,60,6.0,105.0
9825,60.0,0,60,7.0,105.0
9826,72.0,120,96,5.0,105.0
9827,46.0,60,60,8.0,105.0
9828,58.0,0,60,1.0,105.0
9829,58.0,0,60,7.0,105.0
9830,62.0,0,60,6.0,105.0
9831,72.0,0,432,4.0,92.0
9832,72.0,0,96,5.0,105.0
9833,69.0,0,312,3.0,92.0
9834,72.0,0,312,2.0,92.0
9835,72.0,0,96,5.0,105.0
9836,57.0,0,288,7.0,105.0
9837,57.0,0,288,1.0,105.0
9838,45.0,60,288,8.0,105.0
9839,60.0,0,288,6.0,105.0
9840,72.0,120,96,5.0,105.0
9841,69.0,0,96,5.0,105.0
9842,72.0,120,384,4.0,92.0
9843,57.0,0,156,7.0,105.0
9844,45.0,0,156,8.0,105.0
9845,69.0,0,156,3.0,92.0
9846,72.0,0,156,2.0,92.0
9847,57.0,120,156,1.0,105.0
9848,60.0,0,156,6.0,105.0
9849,69.0,120,96,5.0,105.0
9850,69.0,120,96,5.0,105.0
9851,57.0,0,156,1.0,105.0
9852,60.0,0,156,6.0,105.0
9853,72.0,0,156,2.0,92.0
9854,45.0,0,156,8.0,105.0
9855,69.0,0,156,3.0,92.0
9856,57.0,0,156,7.0,105.0
9857,69.0,120,96,5.0,105.0
9858,63.0,0,96,5.0,105.0
9859,72.0,0,384,4.0,92.0
9860,63.0,120,96,5.0,105.0
9861,69.0,0,312,3.0,92.0
9862,72.0,0,312,2.0,92.0
9863,63.0,120,96,5.0,105.0
9864,57.0,0,384,7.0,105.0
9865,60.0,0,384,6.0,105.0
9866,45.0,0,384,8.0,105.0
9867,57.0,120,384,1.0,105.0
9868,63.0,120,96,5.0,105.0
9869,60.0,120,96,5.0,105.0
9870,72.0,0,384,4.0,92.0
9871,60.0,120,96,5.0,105.0
9872,63.0,0,768,0.0,105.0
9873,72.0,0,768,0.0,105.0
9874,60.0,120,96,5.0,105.0
9875,72.0,0,192,4.0,92.0
9876,60.0,120,96,5.0,105.0
9877,84.0,120,96,5.0,92.0
9878,84.0,0,96,4.0,92.0
9879,84.0,120,96,5.0,92.0
9880,84.0,0,96,4.0,92.0
9881,84.0,120,96,5.0,92.0
9882,84.0,0,96,4.0,92.0
9883,84.0,120,96,5.0,92.0
9884,84.0,0,96,4.0,92.0
9885,81.0,120,96,5.0,92.0
9886,81.0,0,96,4.0,92.0
9887,81.0,120,96,5.0,92.0
9888,81.0,0,96,4.0,92.0
9889,81.0,120,96,4.0,92.0
9890,81.0,0,96,5.0,92.0
9891,81.0,120,96,4.0,92.0
9892,81.0,0,96,5.0,92.0
9893,78.0,120,96,4.0,92.0
9894,78.0,0,96,5.0,92.0
9895,78.0,0,96,5.0,92.0
9896,78.0,120,96,4.0,92.0
9897,78.0,120,96,5.0,92.0
9898,78.0,0,96,4.0,92.0
9899,78.0,0,96,5.0,92.0
9900,78.0,120,96,4.0,92.0
9901,74.0,120,96,4.0,92.0
9902,74.0,0,96,5.0,92.0
9903,74.0,120,96,5.0,92.0
9904,74.0,0,96,4.0,92.0
9905,74.0,0,96,4.0,92.0
9906,74.0,120,96,5.0,92.0
9907,74.0,120,96,5.0,92.0
9908,74.0,0,96,4.0,92.0
9909,72.0,0,96,4.0,92.0
9910,72.0,0,96,5.0,92.0
9911,72.0,0,96,5.0,92.0
9912,72.0,120,96,4.0,92.0
9913,72.0,120,96,5.0,92.0
9914,72.0,0,96,4.0,92.0
9915,72.0,0,384,6.0,105.0
9916,72.0,0,384,3.0,105.0
9917,84.0,0,384,0.0,105.0
9918,60.0,0,384,7.0,105.0
9919,72.0,120,384,2.0,105.0
9920,48.0,0,384,8.0,105.0
9921,60.0,0,384,1.0,105.0
9922,72.0,120,96,5.0,92.0
9923,72.0,0,96,4.0,92.0
9924,69.0,0,96,5.0,92.0
9925,69.0,0,96,4.0,92.0
9926,69.0,120,96,5.0,92.0
9927,69.0,0,96,4.0,92.0
9928,69.0,120,96,5.0,92.0
9929,69.0,0,96,4.0,92.0
9930,45.0,0,384,8.0,105.0
9931,72.0,0,384,2.0,105.0
9932,57.0,120,384,1.0,105.0
9933,81.0,0,384,0.0,105.0
9934,69.0,0,384,3.0,105.0
9935,57.0,0,384,7.0,105.0
9936,69.0,0,384,6.0,105.0
9937,69.0,120,96,5.0,92.0
9938,69.0,0,96,4.0,92.0
9939,66.0,0,96,4.0,92.0
9940,66.0,0,96,5.0,92.0
9941,66.0,0,96,4.0,92.0
9942,66.0,120,96,5.0,92.0
9943,66.0,0,96,5.0,92.0
9944,66.0,120,96,4.0,92.0
9945,54.0,0,384,7.0,105.0
9946,66.0,120,384,6.0,105.0
9947,42.0,0,384,8.0,105.0
9948,54.0,0,384,1.0,105.0
9949,78.0,0,384,0.0,105.0
9950,66.0,120,96,5.0,92.0
9951,66.0,0,96,4.0,92.0
9952,62.0,0,96,4.0,92.0
9953,62.0,120,96,5.0,92.0
9954,62.0,0,96,4.0,92.0
9955,62.0,120,96,5.0,92.0
9956,62.0,0,768,3.0,105.0
9957,62.0,0,768,2.0,105.0
9958,62.0,120,96,4.0,92.0
9959,62.0,0,96,5.0,92.0
9960,38.0,0,384,8.0,105.0
9961,50.0,0,384,1.0,105.0
9962,62.0,0,384,6.0,105.0
9963,50.0,0,384,7.0,105.0
9964,74.0,0,384,0.0,105.0
9965,62.0,0,96,4.0,92.0
9966,62.0,120,96,5.0,92.0
9967,82.0,0,96,5.0,92.0
9968,82.0,120,96,4.0,92.0
9969,82.0,0,96,5.0,92.0
9970,82.0,120,96,4.0,92.0
9971,82.0,0,96,4.0,92.0
9972,82.0,120,96,5.0,92.0
9973,82.0,0,96,4.0,92.0
9974,82.0,120,96,5.0,92.0
9975,79.0,120,96,5.0,92.0
9976,79.0,0,96,4.0,92.0
9977,79.0,120,96,4.0,92.0
9978,79.0,0,96,5.0,92.0
9979,79.0,120,96,4.0,92.0
9980,79.0,0,96,5.0,92.0
9981,79.0,120,96,4.0,92.0
9982,79.0,0,96,5.0,92.0
9983,74.0,0,96,5.0,92.0
9984,74.0,120,96,4.0,92.0
9985,74.0,120,96,5.0,92.0
9986,74.0,0,96,4.0,92.0
9987,74.0,0,96,5.0,92.0
9988,74.0,120,96,4.0,92.0
9989,74.0,120,96,4.0,92.0
9990,74.0,0,96,5.0,92.0
9991,70.0,0,96,5.0,92.0
9992,70.0,120,96,4.0,92.0
9993,70.0,120,96,5.0,92.0
9994,70.0,0,96,4.0,92.0
9995,70.0,120,96,5.0,92.0
9996,70.0,0,96,4.0,92.0
9997,70.0,0,96,5.0,92.0
9998,70.0,120,96,4.0,92.0
9999,67.0,0,96,5.0,92.0
10000,67.0,0,96,4.0,92.0
10001,67.0,0,96,4.0,92.0
10002,67.0,120,96,5.0,92.0
10003,67.0,120,96,4.0,92.0
10004,67.0,0,96,5.0,92.0
10005,79.0,0,384,0.0,105.0
10006,67.0,0,384,3.0,105.0
10007,55.0,0,384,7.0,105.0
10008,67.0,0,384,6.0,105.0
10009,43.0,0,384,8.0,105.0
10010,55.0,120,384,1.0,105.0
10011,67.0,0,96,5.0,92.0
10012,67.0,120,96,4.0,92.0
10013,62.0,0,96,4.0,92.0
10014,62.0,0,96,5.0,92.0
10015,62.0,0,96,4.0,92.0
10016,62.0,120,96,5.0,92.0
10017,62.0,120,96,5.0,92.0
10018,62.0,0,96,4.0,92.0
10019,38.0,0,384,8.0,105.0
10020,50.0,0,384,1.0,105.0
10021,50.0,0,384,7.0,105.0
10022,62.0,0,384,6.0,105.0
10023,62.0,120,384,3.0,105.0
10024,74.0,0,384,0.0,105.0
10025,62.0,0,384,2.0,105.0
10026,62.0,0,96,5.0,92.0
10027,62.0,120,96,4.0,92.0
10028,58.0,0,96,5.0,92.0
10029,58.0,0,96,4.0,92.0
10030,58.0,120,96,4.0,92.0
10031,58.0,0,96,5.0,92.0
10032,58.0,120,96,4.0,92.0
10033,58.0,0,96,5.0,92.0
10034,70.0,0,384,0.0,105.0
10035,46.0,0,384,7.0,105.0
10036,34.0,0,384,8.0,105.0
10037,58.0,0,384,6.0,105.0
10038,46.0,120,384,1.0,105.0
10039,58.0,120,96,5.0,92.0
10040,58.0,0,96,4.0,92.0
10041,55.0,120,96,4.0,92.0
10042,55.0,0,96,5.0,92.0
10043,55.0,120,96,4.0,92.0
10044,55.0,0,96,5.0,92.0
10045,55.0,0,768,3.0,105.0
10046,58.0,0,768,2.0,105.0
10047,55.0,120,96,4.0,92.0
10048,55.0,0,96,5.0,92.0
10049,43.0,0,384,1.0,105.0
10050,55.0,0,384,6.0,105.0
10051,43.0,0,384,7.0,105.0
10052,31.0,0,384,8.0,105.0
10053,67.0,0,384,0.0,105.0
10054,55.0,0,96,5.0,92.0
10055,55.0,120,96,4.0,92.0
10056,80.0,0,96,5.0,92.0
10057,80.0,120,96,4.0,92.0
10058,80.0,120,96,5.0,92.0
10059,80.0,0,96,4.0,92.0
10060,80.0,0,96,4.0,92.0
10061,80.0,120,96,5.0,92.0
10062,80.0,0,96,4.0,92.0
10063,80.0,120,96,5.0,92.0
10064,77.0,120,96,4.0,92.0
10065,77.0,0,96,5.0,92.0
10066,77.0,0,96,5.0,92.0
10067,77.0,120,96,4.0,92.0
10068,77.0,0,96,4.0,92.0
10069,77.0,120,96,5.0,92.0
10070,77.0,0,96,5.0,92.0
10071,77.0,120,96,4.0,92.0
10072,74.0,0,96,5.0,92.0
10073,74.0,120,96,4.0,92.0
10074,74.0,120,96,4.0,92.0
10075,74.0,0,96,5.0,92.0
10076,74.0,120,96,4.0,92.0
10077,74.0,0,96,5.0,92.0
10078,74.0,0,96,4.0,92.0
10079,74.0,120,96,5.0,92.0
10080,71.0,0,96,5.0,92.0
10081,71.0,120,96,4.0,92.0
10082,71.0,120,96,4.0,92.0
10083,71.0,0,96,5.0,92.0
10084,71.0,0,96,4.0,92.0
10085,71.0,120,96,5.0,92.0
10086,71.0,0,96,4.0,92.0
10087,71.0,120,96,5.0,92.0
10088,68.0,0,96,4.0,92.0
10089,68.0,120,96,5.0,92.0
10090,68.0,120,96,4.0,92.0
10091,68.0,0,96,5.0,92.0
10092,68.0,120,96,5.0,92.0
10093,68.0,0,96,4.0,92.0
10094,68.0,0,384,6.0,105.0
10095,62.0,0,384,3.0,105.0
10096,44.0,0,384,8.0,105.0
10097,65.0,0,384,2.0,105.0
10098,56.0,0,384,7.0,105.0
10099,80.0,0,384,0.0,105.0
10100,56.0,0,384,1.0,105.0
10101,68.0,120,96,4.0,92.0
10102,68.0,0,96,5.0,92.0
10103,65.0,120,96,4.0,92.0
10104,65.0,0,96,5.0,92.0
10105,65.0,0,96,5.0,92.0
10106,65.0,120,96,4.0,92.0
10107,65.0,0,96,4.0,92.0
10108,65.0,120,96,5.0,92.0
10109,41.0,0,384,8.0,105.0
10110,53.0,0,384,7.0,105.0
10111,62.0,0,384,3.0,105.0
10112,77.0,0,384,0.0,105.0
10113,65.0,0,384,2.0,105.0
10114,65.0,0,384,6.0,105.0
10115,53.0,0,384,1.0,105.0
10116,65.0,120,96,5.0,92.0
10117,65.0,0,96,4.0,92.0
10118,62.0,0,96,4.0,92.0
10119,62.0,0,96,5.0,92.0
10120,62.0,120,96,4.0,92.0
10121,62.0,0,96,5.0,92.0
10122,62.0,0,96,5.0,92.0
10123,62.0,120,96,4.0,92.0
10124,50.0,0,384,1.0,105.0
10125,62.0,0,384,6.0,105.0
10126,74.0,0,384,0.0,105.0
10127,50.0,0,384,7.0,105.0
10128,38.0,120,384,8.0,105.0
10129,62.0,0,96,4.0,92.0
10130,62.0,120,96,5.0,92.0
10131,59.0,0,96,5.0,92.0
10132,59.0,0,96,4.0,92.0
10133,59.0,120,96,4.0,92.0
10134,59.0,0,96,5.0,92.0
10135,65.0,0,768,2.0,105.0
10136,62.0,0,768,3.0,105.0
10137,59.0,0,96,4.0,92.0
10138,59.0,120,96,5.0,92.0
10139,47.0,0,384,7.0,105.0
10140,35.0,0,384,8.0,105.0
10141,59.0,0,384,6.0,105.0
10142,71.0,120,384,0.0,105.0
10143,47.0,0,384,1.0,105.0
10144,59.0,120,96,4.0,92.0
10145,59.0,0,96,5.0,92.0
10146,84.0,120,96,4.0,92.0
10147,84.0,0,96,5.0,92.0
10148,84.0,120,96,5.0,92.0
10149,84.0,0,96,4.0,92.0
10150,84.0,120,96,5.0,92.0
10151,84.0,0,96,4.0,92.0
10152,84.0,120,96,5.0,92.0
10153,84.0,0,96,4.0,92.0
10154,79.0,120,96,4.0,92.0
10155,79.0,0,96,5.0,92.0
10156,79.0,0,96,5.0,92.0
10157,79.0,120,96,4.0,92.0
10158,79.0,120,96,5.0,92.0
10159,79.0,0,96,4.0,92.0
10160,79.0,120,96,5.0,92.0
10161,79.0,0,96,4.0,92.0
10162,75.0,120,96,4.0,92.0
10163,75.0,0,96,5.0,92.0
10164,75.0,120,96,5.0,92.0
10165,75.0,0,96,4.0,92.0
10166,75.0,120,96,5.0,92.0
10167,75.0,0,96,4.0,92.0
10168,75.0,0,96,4.0,92.0
10169,75.0,120,96,5.0,92.0
10170,71.0,0,96,5.0,92.0
10171,71.0,120,96,4.0,92.0
10172,71.0,120,96,4.0,92.0
10173,71.0,0,96,5.0,92.0
10174,71.0,0,96,4.0,92.0
10175,71.0,120,96,5.0,92.0
10176,71.0,120,96,4.0,92.0
10177,71.0,0,96,5.0,92.0
10178,72.0,0,96,4.0,92.0
10179,72.0,0,96,5.0,92.0
10180,72.0,120,96,4.0,92.0
10181,72.0,0,96,5.0,92.0
10182,72.0,120,96,5.0,92.0
10183,72.0,0,96,4.0,92.0
10184,48.0,0,384,8.0,105.0
10185,84.0,0,384,0.0,105.0
10186,60.0,0,384,6.0,105.0
10187,60.0,0,384,1.0,105.0
10188,60.0,0,384,7.0,105.0
10189,72.0,0,96,4.0,92.0
10190,72.0,120,96,5.0,92.0
10191,67.0,120,96,5.0,92.0
10192,67.0,0,96,4.0,92.0
10193,67.0,0,96,5.0,92.0
10194,67.0,120,96,4.0,92.0
10195,67.0,120,96,4.0,92.0
10196,67.0,0,96,5.0,92.0
10197,55.0,0,384,1.0,105.0
10198,55.0,0,384,7.0,105.0
10199,79.0,0,384,0.0,105.0
10200,43.0,0,384,8.0,105.0
10201,55.0,0,384,6.0,105.0
10202,67.0,0,96,5.0,92.0
10203,67.0,120,96,4.0,92.0
10204,63.0,0,96,4.0,92.0
10205,63.0,0,96,5.0,92.0
10206,63.0,120,96,5.0,92.0
10207,63.0,0,96,4.0,92.0
10208,63.0,120,96,5.0,92.0
10209,63.0,0,96,4.0,92.0
10210,51.0,0,384,6.0,105.0
10211,51.0,0,384,1.0,105.0
10212,51.0,0,384,7.0,105.0
10213,75.0,0,384,0.0,105.0
10214,39.0,120,384,8.0,105.0
10215,63.0,120,96,4.0,92.0
10216,63.0,0,96,5.0,92.0
10217,67.0,120,1536,3.0,105.0
10218,55.0,0,1536,3.0,105.0
10219,60.0,0,96,4.0,92.0
10220,60.0,0,96,5.0,92.0
10221,60.0,0,96,5.0,92.0
10222,60.0,120,96,4.0,92.0
10223,60.0,120,96,4.0,92.0
10224,60.0,0,96,5.0,92.0
10225,48.0,0,384,7.0,105.0
10226,48.0,0,384,1.0,105.0
10227,36.0,0,384,8.0,105.0
10228,72.0,120,384,0.0,105.0
10229,48.0,0,384,6.0,105.0
10230,60.0,0,96,5.0,92.0
10231,60.0,120,96,4.0,92.0
10232,82.0,120,96,5.0,92.0
10233,82.0,0,96,4.0,92.0
10234,82.0,120,96,5.0,92.0
10235,82.0,0,96,4.0,92.0
10236,82.0,120,96,5.0,92.0
10237,82.0,0,96,4.0,92.0
10238,82.0,120,96,5.0,92.0
10239,82.0,0,96,4.0,92.0
10240,79.0,120,96,4.0,92.0
10241,79.0,0,96,5.0,92.0
10242,79.0,0,96,4.0,92.0
10243,79.0,120,96,5.0,92.0
10244,79.0,0,96,5.0,92.0
10245,79.0,120,96,4.0,92.0
10246,79.0,0,96,5.0,92.0
10247,79.0,120,96,4.0,92.0
10248,76.0,120,96,5.0,92.0
10249,76.0,0,96,4.0,92.0
10250,76.0,0,96,4.0,92.0
10251,76.0,120,96,5.0,92.0
10252,76.0,0,96,5.0,92.0
10253,76.0,120,96,4.0,92.0
10254,76.0,120,96,4.0,92.0
10255,76.0,0,96,5.0,92.0
10256,73.0,0,96,4.0,92.0
10257,73.0,120,96,5.0,92.0
10258,73.0,120,96,5.0,92.0
10259,73.0,0,96,4.0,92.0
10260,73.0,0,96,4.0,92.0
10261,73.0,120,96,5.0,92.0
10262,73.0,0,96,5.0,92.0
10263,73.0,120,96,4.0,92.0
10264,70.0,120,96,5.0,92.0
10265,70.0,0,96,4.0,92.0
10266,70.0,0,96,5.0,92.0
10267,70.0,120,96,4.0,92.0
10268,70.0,120,96,5.0,92.0
10269,70.0,0,96,4.0,92.0
10270,82.0,0,384,0.0,105.0
10271,70.0,0,384,6.0,105.0
10272,46.0,0,384,8.0,105.0
10273,58.0,0,384,1.0,105.0
10274,58.0,0,384,7.0,105.0
10275,70.0,0,96,4.0,92.0
10276,70.0,120,96,5.0,92.0
10277,67.0,0,96,5.0,92.0
10278,67.0,120,96,4.0,92.0
10279,67.0,0,96,4.0,92.0
10280,67.0,120,96,5.0,92.0
10281,67.0,120,96,4.0,92.0
10282,67.0,0,96,5.0,92.0
10283,67.0,0,384,6.0,105.0
10284,55.0,0,384,1.0,105.0
10285,79.0,0,384,0.0,105.0
10286,55.0,0,384,7.0,105.0
10287,43.0,0,384,8.0,105.0
10288,67.0,0,96,4.0,92.0
10289,67.0,120,96,5.0,92.0
10290,64.0,0,96,5.0,92.0
10291,64.0,0,96,4.0,92.0
10292,64.0,120,96,5.0,92.0
10293,64.0,0,96,4.0,92.0
10294,64.0,120,96,4.0,92.0
10295,64.0,0,96,5.0,92.0
10296,76.0,0,384,0.0,105.0
10297,52.0,0,384,1.0,105.0
10298,52.0,0,384,7.0,105.0
10299,40.0,0,384,8.0,105.0
10300,64.0,120,384,6.0,105.0
10301,64.0,120,96,4.0,92.0
10302,64.0,0,96,5.0,92.0
10303,67.0,0,1536,3.0,105.0
10304,55.0,0,1536,3.0,105.0
10305,61.0,0,96,4.0,92.0
10306,70.0,0,1536,2.0,105.0
10307,61.0,0,96,5.0,92.0
10308,58.0,0,1536,2.0,105.0
10309,61.0,120,96,4.0,92.0
10310,61.0,0,96,5.0,92.0
10311,61.0,0,96,5.0,92.0
10312,61.0,120,96,4.0,92.0
10313,61.0,120,384,6.0,105.0
10314,37.0,0,384,8.0,105.0
10315,49.0,0,384,1.0,105.0
10316,49.0,0,384,7.0,105.0
10317,73.0,0,384,0.0,105.0
10318,61.0,120,96,5.0,92.0
10319,61.0,0,96,4.0,92.0
10320,62.0,0,96,5.0,92.0
10321,62.0,0,96,4.0,92.0
10322,62.0,120,96,4.0,92.0
10323,62.0,0,96,5.0,92.0
10324,62.0,120,96,4.0,92.0
10325,62.0,0,96,5.0,92.0
10326,62.0,0,384,3.0,105.0
10327,50.0,0,384,3.0,105.0
10328,74.0,0,384,2.0,105.0
10329,62.0,0,384,2.0,105.0
10330,62.0,0,96,5.0,92.0
10331,62.0,120,96,4.0,92.0
10332,50.0,0,480,1.0,105.0
10333,62.0,0,480,6.0,105.0
10334,50.0,120,480,7.0,105.0
10335,38.0,0,480,8.0,105.0
10336,74.0,0,480,0.0,105.0
10337,63.0,0,96,5.0,92.0
10338,63.0,0,96,4.0,92.0
10339,63.0,0,96,4.0,92.0
10340,63.0,120,96,5.0,92.0
10341,63.0,120,96,5.0,92.0
10342,63.0,0,96,4.0,92.0
10343,63.0,0,96,4.0,92.0
10344,63.0,120,96,5.0,92.0
10345,39.0,0,480,8.0,105.0
10346,51.0,120,480,1.0,105.0
10347,75.0,0,480,0.0,105.0
10348,63.0,0,480,6.0,105.0
10349,51.0,0,480,7.0,105.0
10350,62.0,0,96,4.0,92.0
10351,62.0,0,96,5.0,92.0
10352,62.0,120,96,4.0,92.0
10353,62.0,0,96,5.0,92.0
10354,62.0,120,96,5.0,92.0
10355,62.0,0,96,4.0,92.0
10356,62.0,120,96,5.0,92.0
10357,62.0,0,96,4.0,92.0
10358,38.0,120,480,8.0,105.0
10359,62.0,0,480,6.0,105.0
10360,74.0,0,480,0.0,105.0
10361,50.0,0,480,7.0,105.0
10362,50.0,0,480,1.0,105.0
10363,61.0,0,96,5.0,92.0
10364,61.0,0,96,4.0,92.0
10365,61.0,0,96,4.0,92.0
10366,61.0,120,96,5.0,92.0
10367,61.0,0,96,5.0,92.0
10368,61.0,120,96,4.0,92.0
10369,49.0,0,384,7.0,105.0
10370,49.0,0,384,1.0,105.0
10371,37.0,0,384,8.0,105.0
10372,61.0,0,384,6.0,105.0
10373,73.0,120,384,0.0,105.0
10374,61.0,0,96,4.0,92.0
10375,61.0,120,96,5.0,92.0
10376,74.0,0,312,0.0,105.0
10377,50.0,0,312,7.0,105.0
10378,62.0,0,312,5.0,92.0
10379,38.0,0,312,8.0,105.0
10380,50.0,0,312,1.0,105.0
10381,62.0,120,312,2.0,92.0
10382,62.0,0,312,4.0,92.0
10383,74.0,0,312,2.0,92.0
10384,62.0,0,312,3.0,92.0
10385,62.0,0,312,6.0,105.0
10386,50.0,0,312,3.0,92.0
10387,62.0,0,312,7.0,105.0
10388,74.0,0,312,6.0,105.0
10389,62.0,0,312,3.0,92.0
10390,74.0,0,312,5.0,92.0
10391,74.0,0,312,2.0,92.0
10392,62.0,0,312,2.0,92.0
10393,50.0,0,312,3.0,92.0
10394,74.0,0,312,4.0,92.0
10395,50.0,0,312,8.0,105.0
10396,62.0,0,312,1.0,105.0
10397,86.0,480,312,0.0,105.0
10398,74.0,0,312,2.0,92.0
10399,62.0,0,312,5.0,92.0
10400,50.0,480,312,7.0,105.0
10401,62.0,0,312,4.0,92.0
10402,38.0,0,312,8.0,105.0
10403,50.0,0,312,3.0,92.0
10404,62.0,0,312,2.0,92.0
10405,50.0,0,312,1.0,105.0
10406,74.0,0,312,0.0,105.0
10407,62.0,0,312,6.0,105.0
10408,62.0,0,312,3.0,92.0
10409,69.0,0,120,4.0,80.0
10410,58.0,0,312,1.0,58.0
10411,58.0,0,312,7.0,58.0
10412,46.0,0,312,8.0,58.0
10413,55.0,960,384,5.0,70.0
10414,67.0,120,360,4.0,80.0
10415,66.0,0,156,4.0,80.0
10416,43.0,0,312,8.0,58.0
10417,55.0,0,312,1.0,70.0
10418,55.0,0,312,7.0,58.0
10419,67.0,240,156,4.0,80.0
10420,70.0,0,120,4.0,80.0
10421,55.0,360,768,5.0,70.0
10422,60.0,0,312,1.0,70.0
10423,60.0,0,312,7.0,58.0
10424,48.0,240,312,8.0,58.0
10425,69.0,120,360,4.0,80.0
10426,67.0,360,156,4.0,80.0
10427,55.0,0,312,1.0,70.0
10428,43.0,0,312,8.0,58.0
10429,55.0,0,312,7.0,58.0
10430,69.0,240,156,4.0,80.0
10431,72.0,0,120,4.0,80.0
10432,62.0,0,312,1.0,70.0
10433,62.0,240,312,7.0,58.0
10434,50.0,0,312,8.0,58.0
10435,55.0,0,864,5.0,70.0
10436,70.0,120,288,4.0,80.0
10437,69.0,360,156,4.0,80.0
10438,43.0,0,312,8.0,58.0
10439,55.0,0,312,1.0,70.0
10440,55.0,0,312,7.0,58.0
10441,70.0,240,156,4.0,80.0
10442,74.0,0,120,4.0,80.0
10443,55.0,0,768,5.0,70.0
10444,51.0,0,312,8.0,58.0
10445,63.0,0,312,7.0,58.0
10446,63.0,240,312,1.0,70.0
10447,72.0,120,288,4.0,80.0
10448,70.0,0,156,4.0,80.0
10449,48.0,0,312,8.0,58.0
10450,60.0,0,312,7.0,58.0
10451,60.0,0,312,1.0,70.0
10452,69.0,240,156,4.0,80.0
10453,69.0,0,120,4.0,80.0
10454,58.0,0,312,1.0,70.0
10455,58.0,0,312,7.0,58.0
10456,46.0,240,312,8.0,58.0
10457,55.0,360,864,5.0,70.0
10458,67.0,120,360,4.0,80.0
10459,66.0,0,156,4.0,80.0
10460,31.0,0,312,8.0,58.0
10461,43.0,360,312,1.0,70.0
10462,43.0,0,312,7.0,58.0
10463,67.0,240,156,4.0,80.0
10464,70.0,0,120,4.0,80.0
10465,55.0,0,768,5.0,70.0
10466,36.0,0,312,8.0,58.0
10467,48.0,0,312,7.0,58.0
10468,48.0,240,312,1.0,70.0
10469,69.0,120,360,4.0,80.0
10470,67.0,0,156,4.0,80.0
10471,43.0,0,312,1.0,70.0
10472,31.0,0,312,8.0,58.0
10473,43.0,360,312,7.0,58.0
10474,69.0,240,156,4.0,80.0
10475,72.0,0,120,4.0,80.0
10476,38.0,0,312,8.0,58.0
10477,50.0,0,312,1.0,70.0
10478,50.0,240,312,7.0,58.0
10479,55.0,0,864,5.0,70.0
10480,70.0,120,288,4.0,80.0
10481,69.0,0,156,4.0,80.0
10482,43.0,0,312,1.0,70.0
10483,43.0,360,312,7.0,58.0
10484,31.0,0,312,8.0,58.0
10485,70.0,240,156,4.0,80.0
10486,74.0,0,120,4.0,80.0
10487,55.0,0,768,5.0,70.0
10488,51.0,0,312,7.0,58.0
10489,51.0,0,312,1.0,70.0
10490,39.0,240,312,8.0,58.0
10491,72.0,120,288,4.0,80.0
10492,70.0,360,156,4.0,80.0
10493,48.0,0,312,1.0,70.0
10494,36.0,0,312,8.0,58.0
10495,48.0,0,312,7.0,58.0
10496,69.0,240,156,4.0,80.0
10497,55.0,0,720,5.0,70.0
10498,67.0,0,240,4.0,80.0
10499,58.0,240,312,6.0,58.0
10500,46.0,0,312,1.0,70.0
10501,46.0,0,312,7.0,58.0
10502,34.0,0,312,8.0,58.0
10503,79.0,240,156,4.0,80.0
10504,67.0,0,156,5.0,70.0
10505,79.0,0,156,4.0,80.0
10506,67.0,0,156,5.0,70.0
10507,49.0,0,312,7.0,58.0
10508,61.0,240,312,6.0,58.0
10509,49.0,0,312,1.0,70.0
10510,37.0,0,312,8.0,58.0
10511,79.0,0,156,4.0,80.0
10512,67.0,240,156,5.0,70.0
10513,67.0,0,240,5.0,70.0
10514,79.0,0,240,4.0,80.0
10515,50.0,0,312,7.0,58.0
10516,62.0,240,312,6.0,58.0
10517,38.0,0,312,8.0,58.0
10518,50.0,0,312,1.0,70.0
10519,78.0,240,156,4.0,80.0
10520,66.0,0,156,5.0,70.0
10521,63.0,0,156,5.0,70.0
10522,75.0,0,156,4.0,80.0
10523,58.0,0,312,6.0,58.0
10524,46.0,240,312,8.0,58.0
10525,58.0,0,312,7.0,58.0
10526,58.0,0,312,1.0,70.0
10527,74.0,240,156,4.0,80.0
10528,62.0,0,156,5.0,70.0
10529,60.0,0,240,5.0,70.0
10530,72.0,240,240,4.0,80.0
10531,45.0,0,312,8.0,58.0
10532,57.0,0,312,1.0,70.0
10533,57.0,0,312,6.0,58.0
10534,57.0,0,312,7.0,58.0
10535,63.0,240,156,5.0,70.0
10536,75.0,0,156,4.0,80.0
10537,75.0,0,156,4.0,80.0
10538,63.0,0,156,5.0,70.0
10539,55.0,0,312,6.0,58.0
10540,43.0,0,312,8.0,58.0
10541,55.0,0,312,7.0,58.0
10542,55.0,240,312,1.0,70.0
10543,75.0,240,156,4.0,80.0
10544,63.0,0,156,5.0,70.0
10545,75.0,240,240,4.0,80.0
10546,63.0,0,240,5.0,70.0
10547,54.0,0,312,6.0,58.0
10548,54.0,0,312,1.0,70.0
10549,54.0,0,312,7.0,58.0
10550,42.0,0,312,8.0,58.0
10551,74.0,0,156,4.0,80.0
10552,62.0,240,156,5.0,70.0
10553,60.0,0,156,5.0,70.0
10554,72.0,0,156,4.0,80.0
10555,43.0,0,312,8.0,58.0
10556,55.0,240,312,6.0,58.0
10557,55.0,0,312,1.0,70.0
10558,55.0,0,312,7.0,58.0
10559,58.0,240,156,5.0,70.0
10560,70.0,0,156,4.0,80.0
10561,69.0,0,240,4.0,80.0
10562,57.0,240,240,5.0,70.0
10563,48.0,0,312,1.0,70.0
10564,48.0,0,312,7.0,58.0
10565,60.0,0,312,6.0,58.0
10566,36.0,0,312,8.0,58.0
10567,72.0,240,156,4.0,80.0
10568,60.0,0,156,5.0,70.0
10569,72.0,0,156,4.0,80.0
10570,60.0,0,156,5.0,70.0
10571,42.0,0,312,1.0,70.0
10572,30.0,0,312,8.0,58.0
10573,54.0,0,312,6.0,58.0
10574,42.0,240,312,7.0,58.0
10575,60.0,0,156,5.0,70.0
10576,72.0,240,156,4.0,80.0
10577,55.0,0,156,6.0,58.0
10578,58.0,0,240,5.0,70.0
10579,70.0,0,240,4.0,80.0
10580,43.0,0,312,1.0,70.0
10581,31.0,0,312,8.0,58.0
10582,43.0,240,312,7.0,58.0
10583,62.0,0,156,5.0,70.0
10584,74.0,240,156,4.0,80.0
10585,58.0,0,384,6.0,58.0
10586,67.0,0,156,5.0,70.0
10587,79.0,240,156,4.0,80.0
10588,51.0,0,312,7.0,58.0
10589,51.0,0,312,1.0,70.0
10590,39.0,0,312,8.0,58.0
10591,70.0,240,156,5.0,70.0
10592,67.0,0,156,6.0,58.0
10593,82.0,0,156,4.0,80.0
10594,70.0,0,240,5.0,70.0
10595,82.0,240,240,4.0,80.0
10596,63.0,0,240,6.0,58.0
10597,48.0,0,312,7.0,58.0
10598,48.0,0,312,1.0,70.0
10599,36.0,0,312,8.0,58.0
10600,81.0,240,156,4.0,80.0
10601,60.0,0,156,6.0,58.0
10602,69.0,0,156,5.0,70.0
10603,58.0,0,156,6.0,58.0
10604,67.0,0,156,5.0,70.0
10605,79.0,240,156,4.0,80.0
10606,50.0,0,312,1.0,70.0
10607,38.0,0,312,8.0,58.0
10608,50.0,0,312,7.0,58.0
10609,66.0,0,156,5.0,70.0
10610,78.0,0,156,4.0,80.0
10611,57.0,240,156,6.0,58.0
10612,81.0,0,120,0.0,105.0
10613,81.0,240,120,4.0,105.0
10614,69.0,0,120,5.0,105.0
10615,55.0,0,192,6.0,105.0
10616,43.0,0,312,8.0,105.0
10617,55.0,0,312,1.0,105.0
10618,55.0,0,312,7.0,105.0
10619,67.0,0,384,2.0,105.0
10620,70.0,0,384,2.0,105.0
10621,79.0,120,288,0.0,105.0
10622,67.0,0,288,5.0,105.0
10623,79.0,0,288,4.0,105.0
10624,62.0,120,384,6.0,105.0
10625,78.0,0,156,4.0,105.0
10626,66.0,0,156,5.0,105.0
10627,78.0,0,156,0.0,105.0
10628,50.0,0,312,7.0,105.0
10629,50.0,0,312,1.0,105.0
10630,38.0,240,312,8.0,105.0
10631,79.0,0,156,0.0,105.0
10632,67.0,0,156,5.0,105.0
10633,79.0,240,156,4.0,105.0
10634,82.0,240,120,4.0,105.0
10635,70.0,0,120,5.0,105.0
10636,82.0,0,120,0.0,105.0
10637,62.0,0,432,6.0,105.0
10638,54.0,0,312,7.0,105.0
10639,42.0,0,312,8.0,105.0
10640,54.0,0,312,1.0,105.0
10641,72.0,0,384,2.0,105.0
10642,69.0,0,384,2.0,105.0
10643,81.0,120,288,4.0,105.0
10644,81.0,0,288,0.0,105.0
10645,69.0,0,288,5.0,105.0
10646,62.0,120,384,6.0,105.0
10647,79.0,0,156,0.0,105.0
10648,79.0,0,156,4.0,105.0
10649,67.0,0,156,5.0,105.0
10650,50.0,0,312,1.0,105.0
10651,38.0,0,312,8.0,105.0
10652,50.0,240,312,7.0,105.0
10653,81.0,240,156,0.0,105.0
10654,81.0,0,156,4.0,105.0
10655,69.0,0,156,5.0,105.0
10656,84.0,240,120,4.0,105.0
10657,72.0,0,120,5.0,105.0
10658,84.0,0,120,0.0,105.0
10659,62.0,0,384,6.0,105.0
10660,43.0,0,312,8.0,105.0
10661,55.0,0,312,1.0,105.0
10662,55.0,0,312,7.0,105.0
10663,67.0,0,384,2.0,105.0
10664,74.0,0,384,2.0,105.0
10665,70.0,0,288,5.0,105.0
10666,82.0,120,288,0.0,105.0
10667,82.0,0,288,4.0,105.0
10668,62.0,120,384,6.0,105.0
10669,81.0,0,156,0.0,105.0
10670,69.0,0,156,5.0,105.0
10671,81.0,0,156,4.0,105.0
10672,50.0,0,312,7.0,105.0
10673,38.0,0,312,8.0,105.0
10674,50.0,240,312,1.0,105.0
10675,70.0,240,156,5.0,105.0
10676,82.0,0,156,0.0,105.0
10677,82.0,0,156,4.0,105.0
10678,62.0,0,432,6.0,105.0
10679,86.0,0,240,0.0,105.0
10680,74.0,0,240,5.0,105.0
10681,86.0,240,240,4.0,105.0
10682,45.0,0,312,8.0,105.0
10683,57.0,0,312,7.0,105.0
10684,57.0,0,312,1.0,105.0
10685,69.0,0,384,2.0,105.0
10686,72.0,0,384,2.0,105.0
10687,84.0,0,156,0.0,105.0
10688,72.0,240,156,5.0,105.0
10689,84.0,0,156,4.0,105.0
10690,62.0,0,384,6.0,105.0
10691,70.0,0,156,5.0,105.0
10692,82.0,0,156,0.0,105.0
10693,82.0,240,156,4.0,105.0
10694,50.0,0,312,1.0,105.0
10695,50.0,0,312,7.0,105.0
10696,38.0,0,312,8.0,105.0
10697,74.0,0,384,2.0,105.0
10698,81.0,240,156,4.0,105.0
10699,69.0,0,156,5.0,105.0
10700,81.0,0,156,0.0,105.0
10701,69.0,0,120,5.0,105.0
10702,81.0,0,120,4.0,105.0
10703,81.0,240,120,0.0,105.0
10704,62.0,0,384,6.0,105.0
10705,58.0,0,312,7.0,105.0
10706,46.0,0,312,8.0,105.0
10707,58.0,0,312,1.0,105.0
10708,74.0,0,384,2.0,105.0
10709,70.0,0,384,2.0,105.0
10710,67.0,0,288,5.0,105.0
10711,79.0,0,288,0.0,105.0
10712,79.0,120,288,4.0,105.0
10713,62.0,120,384,6.0,105.0
10714,78.0,0,156,0.0,105.0
10715,66.0,240,156,5.0,105.0
10716,78.0,0,156,4.0,105.0
10717,38.0,0,312,8.0,105.0
10718,50.0,0,312,7.0,105.0
10719,50.0,0,312,1.0,105.0
10720,79.0,240,156,4.0,105.0
10721,67.0,0,156,5.0,105.0
10722,79.0,0,156,0.0,105.0
10723,67.0,0,192,2.0,105.0
10724,70.0,0,192,2.0,105.0
10725,70.0,0,120,5.0,105.0
10726,82.0,0,120,0.0,105.0
10727,82.0,0,120,4.0,105.0
10728,62.0,0,432,6.0,105.0
10729,54.0,240,312,1.0,105.0
10730,42.0,0,312,8.0,105.0
10731,54.0,0,312,7.0,105.0
10732,72.0,0,384,2.0,105.0
10733,69.0,0,384,2.0,105.0
10734,81.0,120,288,0.0,105.0
10735,81.0,0,288,4.0,105.0
10736,69.0,0,288,5.0,105.0
10737,62.0,120,384,6.0,105.0
10738,67.0,0,156,5.0,105.0
10739,79.0,0,156,4.0,105.0
10740,79.0,0,156,0.0,105.0
10741,50.0,0,312,7.0,105.0
10742,50.0,240,312,1.0,105.0
10743,38.0,0,312,8.0,105.0
10744,69.0,0,156,5.0,105.0
10745,81.0,0,156,4.0,105.0
10746,81.0,0,156,0.0,105.0
10747,72.0,0,192,2.0,105.0
10748,69.0,240,192,2.0,105.0
10749,84.0,0,120,4.0,105.0
10750,72.0,240,120,5.0,105.0
10751,84.0,0,120,0.0,105.0
10752,62.0,0,384,6.0,105.0
10753,55.0,0,312,1.0,105.0
10754,43.0,0,312,8.0,105.0
10755,55.0,0,312,7.0,105.0
10756,67.0,0,384,2.0,105.0
10757,74.0,0,384,2.0,105.0
10758,70.0,0,288,5.0,105.0
10759,82.0,0,288,0.0,105.0
10760,82.0,120,288,4.0,105.0
10761,62.0,120,384,6.0,105.0
10762,69.0,0,156,5.0,105.0
10763,81.0,240,156,4.0,105.0
10764,81.0,0,156,0.0,105.0
10765,38.0,0,312,8.0,105.0
10766,50.0,0,312,1.0,105.0
10767,50.0,0,312,7.0,105.0
10768,82.0,0,156,0.0,105.0
10769,70.0,240,156,5.0,105.0
10770,82.0,0,156,4.0,105.0
10771,67.0,0,192,2.0,105.0
10772,74.0,0,192,2.0,105.0
10773,86.0,0,240,4.0,105.0
10774,62.0,0,480,6.0,105.0
10775,74.0,0,240,5.0,105.0
10776,86.0,240,240,0.0,105.0
10777,57.0,0,312,7.0,105.0
10778,45.0,0,312,8.0,105.0
10779,57.0,0,312,1.0,105.0
10780,72.0,0,384,2.0,105.0
10781,69.0,0,384,2.0,105.0
10782,69.0,0,156,6.0,105.0
10783,84.0,0,156,4.0,105.0
10784,72.0,0,156,5.0,105.0
10785,84.0,240,156,0.0,105.0
10786,82.0,0,156,4.0,105.0
10787,82.0,0,156,0.0,105.0
10788,67.0,240,156,6.0,105.0
10789,70.0,0,156,5.0,105.0
10790,62.0,0,7488,3.0,105.0
10791,50.0,0,312,1.0,105.0
10792,38.0,0,312,8.0,105.0
10793,50.0,0,312,7.0,105.0
10794,74.0,0,396,2.0,105.0
10795,72.0,0,156,2.0,105.0
10796,69.0,0,156,5.0,105.0
10797,66.0,240,156,6.0,105.0
10798,81.0,0,156,0.0,105.0
10799,81.0,0,156,4.0,105.0
10800,79.0,0,156,4.0,105.0
10801,79.0,0,156,0.0,105.0
10802,67.0,0,156,5.0,105.0
10803,58.0,0,312,7.0,105.0
10804,58.0,0,312,1.0,105.0
10805,46.0,0,312,8.0,105.0
10806,55.0,0,384,3.0,105.0
10807,67.0,0,384,6.0,105.0
10808,70.0,240,384,2.0,105.0
10809,74.0,0,384,2.0,105.0
10810,79.0,240,156,0.0,105.0
10811,67.0,0,156,5.0,105.0
10812,79.0,0,156,4.0,105.0
10813,79.0,0,156,4.0,105.0
10814,79.0,0,156,0.0,105.0
10815,67.0,0,156,5.0,105.0
10816,49.0,240,312,1.0,105.0
10817,49.0,0,312,7.0,105.0
10818,37.0,0,312,8.0,105.0
10819,64.0,0,384,6.0,105.0
10820,67.0,240,156,5.0,105.0
10821,79.0,0,156,0.0,105.0
10822,79.0,0,156,4.0,105.0
10823,67.0,0,240,5.0,105.0
10824,79.0,0,240,4.0,105.0
10825,79.0,0,240,0.0,105.0
10826,57.0,240,312,6.0,105.0
10827,50.0,0,384,1.0,105.0
10828,38.0,0,384,8.0,105.0
10829,50.0,0,384,7.0,105.0
10830,78.0,240,156,0.0,105.0
10831,66.0,0,156,5.0,105.0
10832,78.0,0,156,4.0,105.0
10833,63.0,0,156,5.0,105.0
10834,75.0,0,156,0.0,105.0
10835,75.0,0,156,4.0,105.0
10836,58.0,0,312,6.0,105.0
10837,46.0,0,384,1.0,105.0
10838,46.0,240,384,7.0,105.0
10839,34.0,0,384,8.0,105.0
10840,62.0,0,156,5.0,105.0
10841,74.0,0,156,0.0,105.0
10842,74.0,240,156,4.0,105.0
10843,60.0,0,240,5.0,105.0
10844,72.0,240,240,4.0,105.0
10845,63.0,0,240,6.0,105.0
10846,72.0,0,240,0.0,105.0
10847,45.0,0,384,7.0,105.0
10848,45.0,0,384,1.0,105.0
10849,33.0,0,384,8.0,105.0
10850,75.0,0,156,0.0,105.0
10851,63.0,0,156,5.0,105.0
10852,75.0,0,156,4.0,105.0
10853,60.0,240,156,6.0,105.0
10854,75.0,0,156,4.0,105.0
10855,60.0,0,156,6.0,105.0
10856,75.0,0,156,0.0,105.0
10857,63.0,0,156,5.0,105.0
10858,42.0,0,384,8.0,105.0
10859,54.0,0,384,7.0,105.0
10860,54.0,240,384,1.0,105.0
10861,75.0,240,156,4.0,105.0
10862,60.0,0,156,6.0,105.0
10863,63.0,0,156,5.0,105.0
10864,75.0,0,156,0.0,105.0
10865,60.0,0,240,6.0,105.0
10866,75.0,0,240,0.0,105.0
10867,63.0,0,240,5.0,105.0
10868,75.0,0,240,4.0,105.0
10869,43.0,0,384,8.0,105.0
10870,55.0,0,384,1.0,105.0
10871,55.0,240,384,7.0,105.0
10872,58.0,240,156,6.0,105.0
10873,74.0,0,156,0.0,105.0
10874,62.0,0,156,5.0,105.0
10875,74.0,0,156,4.0,105.0
10876,72.0,0,156,4.0,105.0
10877,57.0,240,156,6.0,105.0
10878,72.0,0,156,0.0,105.0
10879,60.0,0,156,5.0,105.0
10880,43.0,0,384,7.0,105.0
10881,43.0,0,384,1.0,105.0
10882,31.0,0,384,8.0,105.0
10883,55.0,240,156,6.0,105.0
10884,70.0,0,156,0.0,105.0
10885,70.0,0,156,4.0,105.0
10886,58.0,0,156,5.0,105.0
10887,69.0,240,240,0.0,105.0
10888,57.0,0,240,5.0,105.0
10889,69.0,0,240,4.0,105.0
10890,54.0,0,312,6.0,105.0
10891,50.0,0,384,7.0,105.0
10892,50.0,0,384,1.0,105.0
10893,38.0,0,384,8.0,105.0
10894,84.0,240,156,0.0,105.0
10895,72.0,0,156,5.0,105.0
10896,84.0,0,156,4.0,105.0
10897,84.0,0,156,0.0,105.0
10898,84.0,0,156,4.0,105.0
10899,72.0,0,156,5.0,105.0
10900,66.0,240,312,6.0,105.0
10901,50.0,0,384,1.0,105.0
10902,50.0,0,384,7.0,105.0
10903,38.0,0,384,8.0,105.0
10904,84.0,0,156,4.0,105.0
10905,72.0,0,156,5.0,105.0
10906,84.0,240,156,0.0,105.0
10907,84.0,0,240,0.0,105.0
10908,84.0,0,240,4.0,105.0
10909,72.0,0,240,5.0,105.0
10910,51.0,0,384,1.0,105.0
10911,51.0,0,384,7.0,105.0
10912,39.0,0,384,8.0,105.0
10913,82.0,240,156,4.0,105.0
10914,70.0,0,156,5.0,105.0
10915,82.0,0,156,0.0,105.0
10916,67.0,240,576,6.0,105.0
10917,86.0,0,156,4.0,105.0
10918,86.0,0,156,0.0,105.0
10919,74.0,0,156,5.0,105.0
10920,34.0,0,384,8.0,105.0
10921,46.0,0,384,7.0,105.0
10922,46.0,240,384,1.0,105.0
10923,74.0,240,156,6.0,105.0
10924,79.0,0,156,4.0,105.0
10925,79.0,0,156,0.0,105.0
10926,67.0,0,156,5.0,105.0
10927,82.0,0,240,0.0,105.0
10928,70.0,0,240,5.0,105.0
10929,74.0,0,240,6.0,105.0
10930,82.0,240,240,4.0,105.0
10931,48.0,0,384,1.0,105.0
10932,36.0,0,384,8.0,105.0
10933,48.0,0,384,7.0,105.0
10934,81.0,240,156,0.0,105.0
10935,72.0,0,156,6.0,105.0
10936,69.0,0,156,5.0,105.0
10937,81.0,0,156,4.0,105.0
10938,79.0,240,156,4.0,105.0
10939,79.0,0,156,0.0,105.0
10940,67.0,0,156,5.0,105.0
10941,70.0,0,156,6.0,105.0
10942,50.0,0,384,1.0,105.0
10943,38.0,0,384,8.0,105.0
10944,50.0,0,384,7.0,105.0
10945,66.0,240,156,5.0,105.0
10946,78.0,0,156,0.0,105.0
10947,69.0,0,156,6.0,105.0
10948,78.0,0,156,4.0,105.0
10949,79.0,0,120,4.0,105.0
10950,67.0,0,120,5.0,105.0
10951,81.0,120,120,4.0,105.0
10952,69.0,0,120,5.0,105.0
10953,67.0,0,312,6.0,105.0
10954,82.0,120,120,4.0,105.0
10955,70.0,0,120,5.0,105.0
10956,62.0,0,384,2.0,105.0
10957,70.0,240,384,2.0,105.0
10958,31.0,0,384,8.0,105.0
10959,43.0,0,384,7.0,105.0
10960,55.0,0,384,3.0,105.0
10961,43.0,0,384,1.0,105.0
10962,79.0,0,384,0.0,105.0
10963,67.0,0,384,3.0,105.0
10964,69.0,0,120,5.0,105.0
10965,81.0,120,120,4.0,105.0
10966,67.0,120,120,5.0,105.0
10967,79.0,0,120,4.0,105.0
10968,69.0,120,120,5.0,105.0
10969,81.0,0,120,4.0,105.0
10970,82.0,0,120,4.0,105.0
10971,70.0,120,120,5.0,105.0
10972,69.0,120,120,5.0,105.0
10973,81.0,0,120,4.0,105.0
10974,67.0,0,384,5.0,105.0
10975,79.0,0,384,4.0,105.0
10976,55.0,0,156,1.0,105.0
10977,58.0,0,156,6.0,105.0
10978,43.0,0,156,8.0,105.0
10979,55.0,240,156,7.0,105.0
10980,46.0,0,156,8.0,105.0
10981,62.0,240,156,6.0,105.0
10982,58.0,0,156,7.0,105.0
10983,58.0,0,156,1.0,105.0
10984,58.0,0,156,6.0,105.0
10985,43.0,0,156,8.0,105.0
10986,55.0,240,156,1.0,105.0
10987,55.0,0,156,7.0,105.0
10988,74.0,0,960,0.0,105.0
10989,70.0,0,960,2.0,105.0
10990,74.0,0,960,2.0,105.0
10991,70.0,0,960,0.0,105.0
10992,72.0,0,120,4.0,105.0
10993,60.0,0,120,5.0,105.0
10994,62.0,120,120,5.0,105.0
10995,74.0,0,120,4.0,105.0
10996,51.0,0,312,1.0,105.0
10997,55.0,0,312,6.0,105.0
10998,51.0,0,312,7.0,105.0
10999,39.0,0,312,8.0,105.0
11000,75.0,0,120,4.0,105.0
11001,63.0,120,120,5.0,105.0
11002,72.0,240,384,0.0,105.0
11003,67.0,0,1344,3.0,105.0
11004,55.0,120,1344,3.0,105.0
11005,72.0,0,384,2.0,105.0
11006,62.0,0,120,5.0,105.0
11007,74.0,120,120,4.0,105.0
11008,60.0,0,120,5.0,105.0
11009,72.0,120,120,4.0,105.0
11010,62.0,120,120,5.0,105.0
11011,74.0,0,120,4.0,105.0
11012,75.0,120,120,4.0,105.0
11013,63.0,0,120,5.0,105.0
11014,74.0,120,120,4.0,105.0
11015,62.0,0,120,5.0,105.0
11016,72.0,120,384,4.0,105.0
11017,60.0,0,384,5.0,105.0
11018,67.0,240,156,6.0,105.0
11019,39.0,0,156,8.0,105.0
11020,51.0,0,156,7.0,105.0
11021,51.0,0,156,1.0,105.0
11022,55.0,240,156,7.0,105.0
11023,43.0,0,156,8.0,105.0
11024,55.0,0,156,1.0,105.0
11025,63.0,0,156,6.0,105.0
11026,67.0,240,156,6.0,105.0
11027,39.0,0,156,8.0,105.0
11028,51.0,0,156,1.0,105.0
11029,51.0,0,156,7.0,105.0
11030,72.0,0,960,2.0,105.0
11031,72.0,0,960,0.0,105.0
11032,70.0,0,288,4.0,105.0
11033,50.0,0,288,7.0,105.0
11034,70.0,240,288,2.0,105.0
11035,55.0,0,1248,3.0,105.0
11036,67.0,0,1248,3.0,105.0
11037,58.0,0,288,5.0,105.0
11038,79.0,0,1248,0.0,105.0
11039,70.0,0,288,0.0,105.0
11040,38.0,0,288,8.0,105.0
11041,55.0,0,288,6.0,105.0
11042,50.0,0,312,1.0,105.0
11043,51.0,0,288,7.0,105.0
11044,63.0,0,288,6.0,105.0
11045,82.0,0,288,0.0,105.0
11046,39.0,0,288,8.0,105.0
11047,70.0,0,288,5.0,105.0
11048,79.0,0,288,4.0,105.0
11049,70.0,0,288,4.0,105.0
11050,67.0,0,288,5.0,105.0
11051,51.0,480,312,1.0,105.0
11052,63.0,0,288,6.0,105.0
11053,69.0,0,288,5.0,105.0
11054,48.0,0,288,7.0,105.0
11055,36.0,0,288,8.0,105.0
11056,69.0,480,288,4.0,105.0
11057,79.0,0,768,0.0,105.0
11058,48.0,0,312,1.0,105.0
11059,78.0,0,288,4.0,105.0
11060,62.0,0,288,4.0,105.0
11061,62.0,0,288,3.0,105.0
11062,69.0,0,288,3.0,105.0
11063,50.0,480,288,7.0,105.0
11064,72.0,0,288,5.0,105.0
11065,62.0,0,288,6.0,105.0
11066,38.0,0,288,8.0,105.0
11067,81.0,0,768,0.0,105.0
11068,78.0,0,288,0.0,105.0
11069,74.0,0,288,2.0,105.0
11070,62.0,0,288,2.0,105.0
11071,69.0,0,288,4.0,105.0
11072,62.0,0,288,5.0,105.0
11073,50.0,0,312,1.0,105.0
11074,79.0,0,96,4.0,105.0
11075,70.0,0,192,5.0,105.0
11076,62.0,0,192,5.0,105.0
11077,79.0,120,96,4.0,105.0
11078,79.0,120,96,4.0,105.0
11079,67.0,0,384,3.0,105.0
11080,55.0,0,384,3.0,105.0
11081,70.0,0,384,2.0,105.0
11082,62.0,0,384,2.0,105.0
11083,79.0,120,96,4.0,105.0
11084,74.0,120,96,4.0,105.0
11085,62.0,0,384,5.0,105.0
11086,70.0,0,384,5.0,105.0
11087,74.0,120,96,4.0,105.0
11088,43.0,0,768,8.0,105.0
11089,55.0,0,768,7.0,105.0
11090,55.0,0,768,1.0,105.0
11091,55.0,0,768,6.0,105.0
11092,74.0,0,96,4.0,105.0
11093,74.0,120,96,4.0,105.0
11094,79.0,480,960,0.0,105.0
11095,70.0,0,96,4.0,105.0
11096,62.0,120,384,5.0,105.0
11097,70.0,0,384,5.0,105.0
11098,70.0,120,96,4.0,105.0
11099,70.0,120,96,4.0,105.0
11100,70.0,120,96,4.0,105.0
11101,67.0,120,96,4.0,105.0
11102,55.0,0,120,7.0,105.0
11103,55.0,0,120,6.0,105.0
11104,55.0,0,120,1.0,105.0
11105,43.0,0,120,8.0,105.0
11106,62.0,0,384,5.0,105.0
11107,70.0,0,384,5.0,105.0
11108,67.0,0,96,4.0,105.0
11109,57.0,120,120,6.0,105.0
11110,45.0,0,120,8.0,105.0
11111,57.0,0,120,7.0,105.0
11112,57.0,0,120,1.0,105.0
11113,70.0,0,768,0.0,105.0
11114,74.0,120,768,0.0,105.0
11115,67.0,0,96,4.0,105.0
11116,58.0,0,120,6.0,105.0
11117,46.0,120,120,8.0,105.0
11118,58.0,0,120,7.0,105.0
11119,58.0,0,120,1.0,105.0
11120,55.0,0,384,3.0,105.0
11121,70.0,0,384,2.0,105.0
11122,62.0,0,384,2.0,105.0
11123,70.0,0,192,5.0,105.0
11124,62.0,0,192,5.0,105.0
11125,60.0,0,96,7.0,105.0
11126,67.0,120,96,4.0,105.0
11127,60.0,0,96,1.0,105.0
11128,60.0,0,96,6.0,105.0
11129,48.0,0,96,8.0,105.0
11130,66.0,120,96,4.0,105.0
11131,62.0,0,192,5.0,105.0
11132,72.0,0,192,5.0,105.0
11133,66.0,120,96,4.0,105.0
11134,66.0,0,96,4.0,105.0
11135,72.0,0,384,2.0,105.0
11136,62.0,0,384,2.0,105.0
11137,62.0,0,384,3.0,105.0
11138,66.0,120,96,4.0,105.0
11139,69.0,120,96,4.0,105.0
11140,62.0,0,384,5.0,105.0
11141,72.0,120,384,5.0,105.0
11142,69.0,120,96,4.0,105.0
11143,50.0,0,768,8.0,105.0
11144,62.0,0,768,6.0,105.0
11145,62.0,0,768,7.0,105.0
11146,62.0,0,768,1.0,105.0
11147,69.0,120,96,4.0,105.0
11148,69.0,120,96,4.0,105.0
11149,69.0,0,960,0.0,105.0
11150,72.0,0,960,0.0,105.0
11151,74.0,120,96,4.0,105.0
11152,62.0,0,384,5.0,105.0
11153,72.0,0,384,5.0,105.0
11154,74.0,120,96,4.0,105.0
11155,74.0,120,96,4.0,105.0
11156,74.0,120,96,4.0,105.0
11157,78.0,120,96,4.0,105.0
11158,50.0,0,120,8.0,105.0
11159,62.0,0,120,7.0,105.0
11160,62.0,0,120,1.0,105.0
11161,62.0,0,120,6.0,105.0
11162,72.0,0,384,5.0,105.0
11163,62.0,0,384,5.0,105.0
11164,78.0,0,96,4.0,105.0
11165,60.0,0,120,1.0,105.0
11166,60.0,120,120,7.0,105.0
11167,60.0,0,120,6.0,105.0
11168,48.0,0,120,8.0,105.0
11169,69.0,0,768,0.0,105.0
11170,66.0,0,768,0.0,105.0
11171,78.0,0,96,4.0,105.0
11172,58.0,0,120,7.0,105.0
11173,46.0,0,120,8.0,105.0
11174,58.0,0,120,6.0,105.0
11175,58.0,120,120,1.0,105.0
11176,62.0,0,384,3.0,105.0
11177,62.0,0,384,2.0,105.0
11178,72.0,0,384,2.0,105.0
11179,62.0,0,192,5.0,105.0
11180,72.0,0,192,5.0,105.0
11181,45.0,0,96,8.0,105.0
11182,78.0,0,96,4.0,105.0
11183,57.0,120,96,7.0,105.0
11184,57.0,0,96,6.0,105.0
11185,57.0,0,96,1.0,105.0
11186,79.0,0,96,4.0,105.0
11187,62.0,0,192,5.0,105.0
11188,70.0,120,192,5.0,105.0
11189,79.0,120,96,4.0,105.0
11190,79.0,120,96,4.0,105.0
11191,62.0,0,384,2.0,105.0
11192,55.0,0,384,3.0,105.0
11193,70.0,0,384,2.0,105.0
11194,79.0,120,96,4.0,105.0
11195,74.0,120,96,4.0,105.0
11196,70.0,0,384,5.0,105.0
11197,62.0,0,384,5.0,105.0
11198,74.0,120,96,4.0,105.0
11199,55.0,0,768,1.0,105.0
11200,43.0,0,768,8.0,105.0
11201,55.0,0,768,7.0,105.0
11202,55.0,0,768,6.0,105.0
11203,74.0,120,96,4.0,105.0
11204,74.0,120,96,4.0,105.0
11205,67.0,0,960,0.0,105.0
11206,70.0,0,0,0.0,105.0
11207,70.0,120,96,4.0,105.0
11208,70.0,0,384,5.0,105.0
11209,62.0,0,384,5.0,105.0
11210,70.0,120,96,4.0,105.0
11211,70.0,0,96,4.0,105.0
11212,70.0,120,96,4.0,105.0
11213,67.0,0,96,4.0,105.0
11214,55.0,0,120,1.0,105.0
11215,55.0,0,120,7.0,105.0
11216,55.0,0,120,6.0,105.0
11217,43.0,0,120,8.0,105.0
11218,70.0,0,384,5.0,105.0
11219,62.0,120,384,5.0,105.0
11220,67.0,0,96,4.0,105.0
11221,57.0,0,120,7.0,105.0
11222,57.0,0,120,6.0,105.0
11223,57.0,120,120,1.0,105.0
11224,45.0,0,120,8.0,105.0
11225,74.0,0,768,0.0,105.0
11226,67.0,0,96,4.0,105.0
11227,46.0,0,120,8.0,105.0
11228,58.0,0,120,6.0,105.0
11229,58.0,0,120,1.0,105.0
11230,58.0,120,120,7.0,105.0
11231,70.0,0,384,2.0,105.0
11232,62.0,0,384,2.0,105.0
11233,55.0,120,384,3.0,105.0
11234,62.0,0,192,5.0,105.0
11235,70.0,0,192,5.0,105.0
11236,60.0,0,96,6.0,105.0
11237,48.0,0,96,8.0,105.0
11238,67.0,0,96,4.0,105.0
11239,60.0,0,96,1.0,105.0
11240,60.0,120,96,7.0,105.0
11241,66.0,0,96,4.0,105.0
11242,62.0,0,192,5.0,105.0
11243,72.0,0,192,5.0,105.0
11244,66.0,120,96,4.0,105.0
11245,66.0,0,96,4.0,105.0
11246,62.0,0,384,3.0,105.0
11247,62.0,0,384,2.0,105.0
11248,72.0,0,384,2.0,105.0
11249,66.0,120,96,4.0,105.0
11250,69.0,120,96,4.0,105.0
11251,62.0,0,384,5.0,105.0
11252,72.0,120,384,5.0,105.0
11253,69.0,120,96,4.0,105.0
11254,50.0,0,768,8.0,105.0
11255,62.0,120,768,6.0,105.0
11256,62.0,0,768,7.0,105.0
11257,62.0,0,768,1.0,105.0
11258,69.0,120,96,4.0,105.0
11259,69.0,120,96,4.0,105.0
11260,72.0,0,960,0.0,105.0
11261,69.0,120,0,0.0,105.0
11262,74.0,0,96,4.0,105.0
11263,72.0,0,384,5.0,105.0
11264,62.0,0,384,5.0,105.0
11265,74.0,120,96,4.0,105.0
11266,74.0,0,96,4.0,105.0
11267,74.0,120,96,4.0,105.0
11268,78.0,0,96,4.0,105.0
11269,62.0,0,120,1.0,105.0
11270,62.0,0,120,6.0,105.0
11271,62.0,120,120,7.0,105.0
11272,50.0,0,120,8.0,105.0
11273,62.0,0,384,5.0,105.0
11274,72.0,120,384,5.0,105.0
11275,78.0,0,96,4.0,105.0
11276,60.0,120,120,6.0,105.0
11277,60.0,0,120,7.0,105.0
11278,60.0,0,120,1.0,105.0
11279,48.0,0,120,8.0,105.0
11280,78.0,0,96,4.0,105.0
11281,58.0,120,120,6.0,105.0
11282,46.0,0,120,8.0,105.0
11283,58.0,0,120,1.0,105.0
11284,58.0,0,120,7.0,105.0
11285,62.0,0,384,3.0,105.0
11286,62.0,0,384,2.0,105.0
11287,72.0,0,384,2.0,105.0
11288,72.0,0,192,5.0,105.0
11289,62.0,0,192,5.0,105.0
11290,78.0,0,96,4.0,105.0
11291,57.0,0,96,7.0,105.0
11292,57.0,0,96,1.0,105.0
11293,45.0,0,96,8.0,105.0
11294,57.0,120,96,6.0,105.0
11295,66.0,0,960,0.0,105.0
11296,79.0,0,96,4.0,105.0
11297,79.0,120,96,4.0,105.0
11298,79.0,120,96,4.0,105.0
11299,62.0,0,384,5.0,105.0
11300,70.0,0,384,5.0,105.0
11301,67.0,0,384,0.0,105.0
11302,55.0,120,384,1.0,105.0
11303,55.0,0,384,7.0,105.0
11304,43.0,0,384,8.0,105.0
11305,67.0,0,384,3.0,105.0
11306,55.0,0,384,3.0,105.0
11307,55.0,0,384,6.0,105.0
11308,70.0,0,384,2.0,105.0
11309,62.0,0,384,2.0,105.0
11310,79.0,120,96,4.0,105.0
11311,70.0,0,96,5.0,105.0
11312,70.0,0,96,4.0,105.0
11313,70.0,0,96,5.0,105.0
11314,70.0,120,96,4.0,105.0
11315,70.0,0,96,4.0,105.0
11316,70.0,120,96,5.0,105.0
11317,70.0,120,96,4.0,105.0
11318,70.0,0,96,5.0,105.0
11319,58.0,0,480,1.0,105.0
11320,46.0,0,480,8.0,105.0
11321,58.0,0,480,7.0,105.0
11322,70.0,120,480,0.0,105.0
11323,58.0,0,480,6.0,105.0
11324,72.0,0,96,5.0,105.0
11325,72.0,120,96,4.0,105.0
11326,72.0,0,96,5.0,105.0
11327,72.0,120,96,4.0,105.0
11328,72.0,120,96,4.0,105.0
11329,72.0,0,96,5.0,105.0
11330,72.0,120,96,4.0,105.0
11331,72.0,0,96,5.0,105.0
11332,60.0,0,480,1.0,105.0
11333,60.0,0,480,6.0,105.0
11334,48.0,0,480,8.0,105.0
11335,72.0,0,480,0.0,105.0
11336,60.0,0,480,7.0,105.0
11337,74.0,0,96,4.0,105.0
11338,74.0,0,96,5.0,105.0
11339,74.0,0,96,4.0,105.0
11340,74.0,120,96,5.0,105.0
11341,74.0,120,96,4.0,105.0
11342,74.0,0,96,5.0,105.0
11343,50.0,0,384,8.0,105.0
11344,62.0,120,384,7.0,105.0
11345,74.0,0,384,0.0,105.0
11346,62.0,0,384,6.0,105.0
11347,62.0,0,384,1.0,105.0
11348,74.0,120,96,5.0,105.0
11349,74.0,0,96,4.0,105.0
11350,75.0,0,96,4.0,105.0
11351,75.0,0,96,5.0,105.0
11352,75.0,120,96,4.0,105.0
11353,75.0,0,96,5.0,105.0
11354,75.0,120,96,5.0,105.0
11355,75.0,0,96,4.0,105.0
11356,75.0,0,96,4.0,105.0
11357,75.0,120,96,5.0,105.0
11358,75.0,120,480,0.0,105.0
11359,63.0,0,480,6.0,105.0
11360,63.0,0,480,7.0,105.0
11361,63.0,0,480,1.0,105.0
11362,51.0,0,480,8.0,105.0
11363,72.0,0,96,4.0,105.0
11364,72.0,0,96,5.0,105.0
11365,72.0,0,96,4.0,105.0
11366,72.0,120,96,5.0,105.0
11367,72.0,0,96,4.0,105.0
11368,72.0,120,96,5.0,105.0
11369,72.0,0,96,5.0,105.0
11370,72.0,120,96,4.0,105.0
11371,60.0,0,480,6.0,105.0
11372,72.0,0,480,0.0,105.0
11373,48.0,0,480,8.0,105.0
11374,60.0,0,480,1.0,105.0
11375,60.0,120,480,7.0,105.0
11376,69.0,120,96,5.0,105.0
11377,69.0,0,96,4.0,105.0
11378,69.0,0,96,4.0,105.0
11379,69.0,120,96,5.0,105.0
11380,69.0,0,96,4.0,105.0
11381,69.0,120,96,5.0,105.0
11382,69.0,120,96,4.0,105.0
11383,69.0,0,96,5.0,105.0
11384,45.0,0,480,8.0,105.0
11385,57.0,0,480,6.0,105.0
11386,69.0,0,480,0.0,105.0
11387,57.0,0,480,1.0,105.0
11388,57.0,0,480,7.0,105.0
11389,78.0,0,96,4.0,105.0
11390,78.0,0,96,5.0,105.0
11391,78.0,0,96,5.0,105.0
11392,78.0,120,96,4.0,105.0
11393,78.0,120,96,5.0,105.0
11394,78.0,0,96,4.0,105.0
11395,66.0,0,384,7.0,105.0
11396,66.0,0,384,1.0,105.0
11397,66.0,0,384,6.0,105.0
11398,78.0,0,384,0.0,105.0
11399,54.0,120,384,8.0,105.0
11400,78.0,0,96,5.0,105.0
11401,78.0,120,96,4.0,105.0
11402,79.0,0,192,5.0,105.0
11403,79.0,0,192,4.0,105.0
11404,67.0,0,384,3.0,105.0
11405,55.0,0,384,3.0,105.0
11406,79.0,0,384,0.0,105.0
11407,62.0,0,384,2.0,105.0
11408,67.0,0,384,1.0,105.0
11409,58.0,0,384,2.0,105.0
11410,67.0,120,384,6.0,105.0
11411,67.0,0,384,7.0,105.0
11412,55.0,0,384,8.0,105.0
11413,79.0,0,384,4.0,105.0
11414,79.0,240,384,5.0,105.0
11415,79.0,480,384,4.0,105.0
11416,79.0,0,384,5.0,105.0
11417,79.0,0,384,4.0,105.0
11418,79.0,480,384,5.0,105.0
11419,79.0,480,192,5.0,105.0
11420,79.0,0,192,4.0,105.0
11421,74.0,240,192,5.0,105.0
11422,74.0,0,192,4.0,105.0
11423,74.0,0,384,5.0,105.0
11424,74.0,240,384,4.0,105.0
11425,74.0,0,384,5.0,105.0
11426,74.0,480,384,4.0,105.0
11427,74.0,480,384,4.0,105.0
11428,74.0,0,384,5.0,105.0
11429,74.0,480,192,5.0,105.0
11430,74.0,0,192,4.0,105.0
11431,75.0,0,192,5.0,105.0
11432,75.0,0,192,4.0,105.0
11433,67.0,240,192,6.0,105.0
11434,67.0,0,384,1.0,105.0
11435,55.0,0,384,8.0,105.0
11436,67.0,0,384,7.0,105.0
11437,75.0,0,384,5.0,105.0
11438,75.0,240,384,4.0,105.0
11439,67.0,0,384,6.0,105.0
11440,67.0,240,384,1.0,105.0
11441,55.0,0,384,8.0,105.0
11442,67.0,0,384,7.0,105.0
11443,75.0,0,384,4.0,105.0
11444,75.0,240,384,5.0,105.0
11445,67.0,0,384,6.0,105.0
11446,67.0,0,384,7.0,105.0
11447,55.0,0,384,8.0,105.0
11448,67.0,240,384,1.0,105.0
11449,67.0,0,384,6.0,105.0
11450,75.0,0,384,5.0,105.0
11451,75.0,240,384,4.0,105.0
11452,67.0,240,384,1.0,105.0
11453,67.0,0,384,7.0,105.0
11454,55.0,0,384,8.0,105.0
11455,75.0,0,192,4.0,105.0
11456,67.0,240,192,6.0,105.0
11457,75.0,0,192,5.0,105.0
11458,62.0,0,192,6.0,105.0
11459,71.0,0,192,4.0,105.0
11460,71.0,0,192,5.0,105.0
11461,62.0,0,384,1.0,105.0
11462,62.0,0,384,7.0,105.0
11463,50.0,240,384,8.0,105.0
11464,62.0,0,384,6.0,105.0
11465,71.0,240,384,5.0,105.0
11466,71.0,0,384,4.0,105.0
11467,62.0,0,384,7.0,105.0
11468,62.0,240,384,1.0,105.0
11469,50.0,0,384,8.0,105.0
11470,71.0,240,384,4.0,105.0
11471,62.0,0,384,6.0,105.0
11472,71.0,0,384,5.0,105.0
11473,50.0,0,384,8.0,105.0
11474,62.0,0,384,1.0,105.0
11475,62.0,240,384,7.0,105.0
11476,71.0,0,384,5.0,105.0
11477,62.0,0,384,6.0,105.0
11478,71.0,240,384,4.0,105.0
11479,50.0,0,384,8.0,105.0
11480,62.0,0,384,7.0,105.0
11481,62.0,240,384,1.0,105.0
11482,71.0,0,192,4.0,105.0
11483,71.0,240,192,5.0,105.0
11484,62.0,0,192,6.0,105.0
11485,63.0,0,192,6.0,105.0
11486,72.0,0,192,4.0,105.0
11487,72.0,0,192,5.0,105.0
11488,63.0,0,384,7.0,105.0
11489,63.0,240,384,1.0,105.0
11490,51.0,0,384,8.0,105.0
11491,72.0,0,384,4.0,105.0
11492,72.0,0,384,5.0,105.0
11493,63.0,240,384,6.0,105.0
11494,63.0,0,384,1.0,105.0
11495,51.0,0,384,8.0,105.0
11496,63.0,240,384,7.0,105.0
11497,72.0,240,384,4.0,105.0
11498,63.0,0,384,6.0,105.0
11499,72.0,0,384,5.0,105.0
11500,63.0,0,384,1.0,105.0
11501,51.0,240,384,8.0,105.0
11502,63.0,0,384,7.0,105.0
11503,79.0,0,1536,0.0,105.0
11504,67.0,0,1536,3.0,105.0
11505,72.0,0,384,4.0,105.0
11506,72.0,0,384,5.0,105.0
11507,63.0,240,384,6.0,105.0
11508,63.0,0,384,7.0,105.0
11509,51.0,240,384,8.0,105.0
11510,63.0,0,384,1.0,105.0
11511,72.0,0,192,5.0,105.0
11512,72.0,0,192,4.0,105.0
11513,63.0,240,192,6.0,105.0
11514,77.0,0,192,4.0,105.0
11515,77.0,240,192,5.0,105.0
11516,59.0,0,192,6.0,105.0
11517,59.0,0,384,7.0,105.0
11518,47.0,0,384,8.0,105.0
11519,59.0,0,384,1.0,105.0
11520,77.0,0,384,5.0,105.0
11521,59.0,0,384,6.0,105.0
11522,77.0,240,384,4.0,105.0
11523,59.0,0,384,1.0,105.0
11524,59.0,240,384,7.0,105.0
11525,47.0,0,384,8.0,105.0
11526,77.0,0,384,5.0,105.0
11527,77.0,240,384,4.0,105.0
11528,59.0,0,384,6.0,105.0
11529,59.0,0,384,7.0,105.0
11530,47.0,0,384,8.0,105.0
11531,59.0,240,384,1.0,105.0
11532,62.0,0,1536,3.0,105.0
11533,74.0,0,1536,0.0,105.0
11534,77.0,0,384,4.0,105.0
11535,77.0,240,384,5.0,105.0
11536,59.0,0,384,6.0,105.0
11537,59.0,0,384,1.0,105.0
11538,47.0,0,384,8.0,105.0
11539,59.0,240,384,7.0,105.0
11540,77.0,240,192,5.0,105.0
11541,59.0,0,192,6.0,105.0
11542,77.0,0,192,4.0,105.0
11543,75.0,240,192,4.0,105.0
11544,60.0,0,192,6.0,105.0
11545,75.0,0,192,5.0,105.0
11546,60.0,0,384,7.0,105.0
11547,48.0,0,384,8.0,105.0
11548,60.0,0,384,1.0,105.0
11549,60.0,0,384,6.0,105.0
11550,75.0,240,384,5.0,105.0
11551,75.0,0,384,4.0,105.0
11552,55.0,0,768,3.0,105.0
11553,67.0,0,768,3.0,105.0
11554,75.0,0,768,0.0,105.0
11555,72.0,0,768,2.0,105.0
11556,60.0,240,384,7.0,105.0
11557,60.0,0,384,1.0,105.0
11558,48.0,0,384,8.0,105.0
11559,75.0,0,192,5.0,105.0
11560,75.0,240,192,4.0,105.0
11561,60.0,0,192,6.0,105.0
11562,84.0,0,192,5.0,105.0
11563,54.0,0,192,6.0,105.0
11564,84.0,0,192,4.0,105.0
11565,54.0,0,384,1.0,105.0
11566,54.0,0,384,7.0,105.0
11567,42.0,0,384,8.0,105.0
11568,84.0,0,384,4.0,105.0
11569,84.0,240,384,5.0,105.0
11570,54.0,0,384,6.0,105.0
11571,69.0,0,768,3.0,105.0
11572,72.0,0,768,2.0,105.0
11573,74.0,0,768,2.0,105.0
11574,84.0,0,768,0.0,105.0
11575,62.0,240,768,3.0,105.0
11576,42.0,0,384,8.0,105.0
11577,54.0,240,384,1.0,105.0
11578,54.0,0,384,7.0,105.0
11579,84.0,240,192,4.0,105.0
11580,54.0,0,192,6.0,105.0
11581,84.0,0,192,5.0,105.0
11582,82.0,0,192,5.0,105.0
11583,55.0,0,192,6.0,105.0
11584,82.0,0,192,4.0,105.0
11585,55.0,240,384,1.0,105.0
11586,43.0,0,384,8.0,105.0
11587,55.0,0,384,7.0,105.0
11588,82.0,0,384,4.0,105.0
11589,55.0,0,384,6.0,105.0
11590,82.0,240,384,5.0,105.0
11591,70.0,0,768,2.0,105.0
11592,74.0,0,768,2.0,105.0
11593,67.0,0,768,3.0,105.0
11594,82.0,0,768,0.0,105.0
11595,55.0,0,768,3.0,105.0
11596,55.0,240,384,1.0,105.0
11597,43.0,0,384,8.0,105.0
11598,55.0,0,384,7.0,105.0
11599,55.0,240,192,6.0,105.0
11600,82.0,0,192,5.0,105.0
11601,82.0,0,192,4.0,105.0
11602,79.0,0,192,4.0,105.0
11603,63.0,0,192,6.0,105.0
11604,79.0,240,192,5.0,105.0
11605,63.0,0,384,7.0,105.0
11606,51.0,0,384,8.0,105.0
11607,63.0,0,384,1.0,105.0
11608,79.0,240,384,4.0,105.0
11609,63.0,0,384,6.0,105.0
11610,79.0,0,384,5.0,105.0
11611,55.0,0,768,3.0,105.0
11612,67.0,0,768,3.0,105.0
11613,79.0,0,768,0.0,105.0
11614,70.0,0,768,2.0,105.0
11615,63.0,0,384,1.0,105.0
11616,51.0,0,384,8.0,105.0
11617,63.0,240,384,7.0,105.0
11618,79.0,0,192,4.0,105.0
11619,79.0,0,192,5.0,105.0
11620,63.0,240,192,6.0,105.0
11621,63.0,0,192,6.0,105.0
11622,69.0,0,192,4.0,105.0
11623,69.0,0,192,5.0,105.0
11624,60.0,0,384,7.0,105.0
11625,60.0,0,384,1.0,105.0
11626,48.0,0,384,8.0,105.0
11627,63.0,0,384,6.0,105.0
11628,69.0,240,384,4.0,105.0
11629,69.0,0,384,5.0,105.0
11630,69.0,0,768,0.0,105.0
11631,72.0,240,768,2.0,105.0
11632,69.0,0,768,3.0,105.0
11633,67.0,0,768,3.0,105.0
11634,60.0,0,384,7.0,105.0
11635,60.0,240,384,1.0,105.0
11636,48.0,0,384,8.0,105.0
11637,63.0,0,192,6.0,105.0
11638,69.0,0,192,4.0,105.0
11639,69.0,240,192,5.0,105.0
11640,78.0,0,192,5.0,105.0
11641,62.0,0,192,6.0,105.0
11642,78.0,0,192,4.0,105.0
11643,50.0,240,384,8.0,105.0
11644,62.0,0,384,1.0,105.0
11645,62.0,0,384,7.0,105.0
11646,78.0,0,384,5.0,105.0
11647,78.0,0,384,4.0,105.0
11648,62.0,240,384,6.0,105.0
11649,78.0,0,768,0.0,105.0
11650,74.0,0,768,2.0,105.0
11651,69.0,0,768,3.0,105.0
11652,62.0,0,768,3.0,105.0
11653,50.0,0,384,8.0,105.0
11654,62.0,0,384,7.0,105.0
11655,62.0,240,384,1.0,105.0
11656,62.0,0,192,6.0,105.0
11657,78.0,240,192,5.0,105.0
11658,78.0,0,192,4.0,105.0
11659,79.0,0,312,4.0,105.0
11660,79.0,0,312,5.0,105.0
11661,55.0,240,384,7.0,105.0
11662,55.0,0,384,3.0,105.0
11663,67.0,0,384,3.0,105.0
11664,74.0,0,384,2.0,105.0
11665,79.0,0,384,0.0,105.0
11666,55.0,0,384,1.0,105.0
11667,62.0,0,384,6.0,105.0
11668,43.0,0,384,8.0,105.0
11669,70.0,0,384,2.0,105.0
11670,55.0,480,234,4.0,105.0
11671,55.0,0,234,5.0,105.0
11672,55.0,0,78,4.0,105.0
11673,55.0,360,78,5.0,105.0
11674,55.0,0,312,4.0,105.0
11675,55.0,120,312,5.0,105.0
11676,55.0,480,312,4.0,105.0
11677,55.0,0,312,5.0,105.0
11678,55.0,0,120,5.0,105.0
11679,55.0,0,120,4.0,92.0
11680,57.0,0,120,5.0,92.0
11681,57.0,120,120,4.0,92.0
11682,43.0,0,312,8.0,105.0
11683,67.0,0,312,6.0,105.0
11684,67.0,0,312,3.0,105.0
11685,55.0,480,312,7.0,105.0
11686,55.0,0,312,1.0,105.0
11687,58.0,120,120,5.0,92.0
11688,58.0,0,120,4.0,92.0
11689,57.0,120,120,4.0,92.0
11690,57.0,0,120,5.0,92.0
11691,55.0,0,120,4.0,92.0
11692,55.0,0,120,5.0,92.0
11693,67.0,0,234,6.0,105.0
11694,67.0,0,234,3.0,105.0
11695,55.0,0,234,7.0,105.0
11696,55.0,120,234,1.0,105.0
11697,43.0,0,234,8.0,105.0
11698,57.0,0,120,4.0,92.0
11699,57.0,120,120,5.0,92.0
11700,58.0,120,120,4.0,92.0
11701,58.0,0,120,5.0,92.0
11702,55.0,120,78,7.0,105.0
11703,43.0,0,78,8.0,105.0
11704,55.0,0,78,1.0,105.0
11705,67.0,0,78,3.0,105.0
11706,67.0,0,78,6.0,105.0
11707,57.0,0,120,4.0,92.0
11708,57.0,0,120,5.0,92.0
11709,55.0,0,120,5.0,92.0
11710,55.0,0,120,4.0,92.0
11711,57.0,0,120,4.0,92.0
11712,57.0,120,120,5.0,92.0
11713,55.0,120,312,1.0,105.0
11714,67.0,0,312,3.0,105.0
11715,55.0,0,312,7.0,105.0
11716,43.0,0,312,8.0,105.0
11717,67.0,0,312,6.0,105.0
11718,58.0,0,120,4.0,92.0
11719,58.0,120,120,5.0,92.0
11720,57.0,0,120,5.0,92.0
11721,57.0,120,120,4.0,92.0
11722,55.0,0,120,4.0,92.0
11723,55.0,0,120,5.0,92.0
11724,57.0,0,120,4.0,92.0
11725,57.0,120,120,5.0,92.0
11726,55.0,0,312,7.0,105.0
11727,67.0,120,312,3.0,105.0
11728,55.0,0,312,1.0,105.0
11729,43.0,0,312,8.0,105.0
11730,67.0,0,312,6.0,105.0
11731,58.0,0,120,5.0,92.0
11732,58.0,120,120,4.0,92.0
11733,57.0,0,96,4.0,92.0
11734,57.0,120,96,5.0,92.0
11735,55.0,0,120,4.0,92.0
11736,55.0,0,120,5.0,92.0
11737,57.0,120,120,4.0,92.0
11738,57.0,0,120,5.0,92.0
11739,58.0,0,120,5.0,92.0
11740,58.0,120,120,4.0,92.0
11741,57.0,0,120,4.0,92.0
11742,57.0,120,120,5.0,92.0
11743,55.0,0,120,4.0,92.0
11744,55.0,120,120,5.0,92.0
11745,57.0,120,120,5.0,92.0
11746,57.0,0,120,4.0,92.0
11747,62.0,0,768,7.0,105.0
11748,74.0,0,768,6.0,105.0
11749,74.0,120,768,3.0,105.0
11750,74.0,0,768,2.0,105.0
11751,62.0,0,768,1.0,105.0
11752,50.0,0,768,8.0,105.0
11753,58.0,0,120,4.0,92.0
11754,58.0,120,120,5.0,92.0
11755,57.0,0,120,5.0,92.0
11756,57.0,120,120,4.0,92.0
11757,55.0,0,120,5.0,92.0
11758,55.0,0,120,4.0,92.0
11759,57.0,0,120,4.0,92.0
11760,57.0,120,120,5.0,92.0
11761,58.0,0,312,1.0,105.0
11762,70.0,120,312,6.0,105.0
11763,46.0,0,312,8.0,105.0
11764,58.0,0,312,7.0,105.0
11765,58.0,120,120,5.0,92.0
11766,58.0,0,120,4.0,92.0
11767,70.0,0,384,2.0,105.0
11768,57.0,120,120,5.0,92.0
11769,57.0,0,120,4.0,92.0
11770,55.0,0,120,4.0,92.0
11771,55.0,0,120,5.0,92.0
11772,57.0,120,120,4.0,92.0
11773,57.0,0,120,5.0,92.0
11774,55.0,0,312,7.0,105.0
11775,67.0,120,312,6.0,105.0
11776,43.0,0,312,8.0,105.0
11777,55.0,0,312,1.0,105.0
11778,58.0,120,120,4.0,92.0
11779,58.0,0,120,5.0,92.0
11780,67.0,0,384,3.0,105.0
11781,57.0,120,96,5.0,92.0
11782,57.0,0,96,4.0,92.0
11783,55.0,0,120,5.0,92.0
11784,55.0,0,120,4.0,92.0
11785,57.0,0,120,5.0,92.0
11786,57.0,120,120,4.0,92.0
11787,50.0,0,312,1.0,105.0
11788,38.0,0,312,8.0,105.0
11789,50.0,0,312,7.0,105.0
11790,62.0,0,312,6.0,105.0
11791,58.0,0,120,4.0,92.0
11792,58.0,120,120,5.0,92.0
11793,62.0,120,384,2.0,105.0
11794,62.0,0,384,3.0,105.0
11795,57.0,120,120,4.0,92.0
11796,57.0,0,120,5.0,92.0
11797,55.0,0,120,5.0,92.0
11798,55.0,120,120,4.0,92.0
11799,57.0,0,120,4.0,92.0
11800,57.0,120,120,5.0,92.0
11801,43.0,0,312,8.0,105.0
11802,55.0,0,312,1.0,105.0
11803,55.0,0,312,7.0,105.0
11804,67.0,0,312,6.0,105.0
11805,58.0,0,120,5.0,92.0
11806,58.0,120,120,4.0,92.0
11807,67.0,0,384,3.0,105.0
11808,57.0,120,120,4.0,92.0
11809,57.0,0,120,5.0,92.0
11810,55.0,0,120,4.0,92.0
11811,55.0,0,120,5.0,92.0
11812,57.0,0,120,5.0,92.0
11813,57.0,120,120,4.0,92.0
11814,34.0,0,312,8.0,105.0
11815,46.0,0,312,1.0,105.0
11816,58.0,0,312,6.0,105.0
11817,46.0,0,312,7.0,105.0
11818,58.0,0,120,4.0,92.0
11819,58.0,120,120,5.0,92.0
11820,58.0,120,384,2.0,105.0
11821,57.0,0,120,4.0,92.0
11822,57.0,120,120,5.0,92.0
11823,55.0,0,120,5.0,92.0
11824,55.0,120,120,4.0,92.0
11825,57.0,0,120,4.0,92.0
11826,57.0,120,120,5.0,92.0
11827,50.0,0,312,7.0,105.0
11828,38.0,0,312,8.0,105.0
11829,62.0,0,312,6.0,105.0
11830,50.0,0,312,1.0,105.0
11831,58.0,0,120,5.0,92.0
11832,58.0,120,120,4.0,92.0
11833,62.0,0,384,3.0,105.0
11834,57.0,120,96,4.0,92.0
11835,57.0,0,96,5.0,92.0
11836,31.0,0,384,8.0,105.0
11837,79.0,0,6144,0.0,105.0
11838,55.0,0,384,6.0,92.0
11839,55.0,120,384,5.0,92.0
11840,55.0,0,384,3.0,105.0
11841,55.0,0,384,4.0,92.0
11842,43.0,0,384,1.0,92.0
11843,43.0,0,384,7.0,105.0
11844,31.0,1920,384,8.0,1.0
