tick,type,time,meta,track,numerator,denominator,clocks_per_click,notated_32nd_notes_per_beat,key,tempo,program,channel,control,value,note,velocity
0,track_name,0,1,0,,,,,,,,,,,,
0,program_change,0,0,5,,,,,,,48,4,,,,
0,control_change,0,0,4,,,,,,,,3,91,80,,
0,control_change,0,0,4,,,,,,,,3,10,54,,
0,control_change,0,0,4,,,,,,,,3,7,109,,
0,program_change,0,0,4,,,,,,,60,3,,,,
0,control_change,0,0,3,,,,,,,,2,91,80,,
0,control_change,0,0,3,,,,,,,,2,10,46,,
0,control_change,0,0,3,,,,,,,,2,7,109,,
0,program_change,0,0,3,,,,,,,60,2,,,,
0,control_change,0,0,2,,,,,,,,1,91,80,,
0,control_change,0,0,2,,,,,,,,1,10,73,,
0,control_change,0,0,2,,,,,,,,1,7,94,,
0,program_change,0,0,2,,,,,,,70,1,,,,
0,control_change,0,0,1,,,,,,,,0,91,80,,
0,control_change,0,0,1,,,,,,,,0,10,82,,
0,control_change,0,0,5,,,,,,,,4,7,127,,
0,control_change,0,0,1,,,,,,,,0,7,94,,
0,control_change,0,0,5,,,,,,,,4,10,40,,
0,program_change,0,0,6,,,,,,,48,5,,,,
0,control_change,0,0,9,,,,,,,,8,91,90,,
0,control_change,0,0,9,,,,,,,,8,10,75,,
0,control_change,0,0,9,,,,,,,,8,7,127,,
0,program_change,0,0,9,,,,,,,43,8,,,,
0,control_change,0,0,8,,,,,,,,7,91,85,,
0,control_change,0,0,8,,,,,,,,7,10,93,,
0,control_change,0,0,8,,,,,,,,7,7,127,,
0,program_change,0,0,8,,,,,,,48,7,,,,
0,control_change,0,0,7,,,,,,,,6,91,85,,
0,control_change,0,0,7,,,,,,,,6,10,85,,
0,control_change,0,0,7,,,,,,,,6,7,127,,
0,program_change,0,0,7,,,,,,,48,6,,,,
0,control_change,0,0,6,,,,,,,,5,91,85,,
0,control_change,0,0,6,,,,,,,,5,10,45,,
0,control_change,0,0,6,,,,,,,,5,7,127,,
0,control_change,0,0,5,,,,,,,,4,91,81,,
0,program_change,0,0,1,,,,,,,68,0,,,,
0,end_of_track,0,1,10,,,,,,,,,,,,
0,set_tempo,0,1,0,,,,,,300000,,,,,,
0,key_signature,0,1,0,,,,,C,,,,,,,
0,time_signature,0,1,0,4,4,24,8,,,,,,,,
1920,note_on,1920,0,7,,,,,,,,6,,,55,58
1920,note_on,1920,0,2,,,,,,,,1,,,55,58
1920,note_on,1920,0,9,,,,,,,,8,,,43,58
1920,note_on,1920,0,8,,,,,,,,7,,,55,58
1920,note_on,1920,0,5,,,,,,,,4,,,67,58
1920,note_on,1920,0,6,,,,,,,,5,,,67,58
2232,note_on,312,0,8,,,,,,,,7,,,55,0
2232,note_on,312,0,6,,,,,,,,5,,,67,0
2232,note_on,312,0,7,,,,,,,,6,,,55,0
2232,note_on,312,0,2,,,,,,,,1,,,55,0
2232,note_on,312,0,5,,,,,,,,4,,,67,0
2232,note_on,312,0,9,,,,,,,,8,,,43,0
2400,note_on,168,0,7,,,,,,,,6,,,50,58
2400,note_on,168,0,9,,,,,,,,8,,,38,58
2400,note_on,168,0,6,,,,,,,,5,,,62,58
2400,note_on,168,0,5,,,,,,,,4,,,62,58
2400,note_on,168,0,2,,,,,,,,1,,,50,58
2400,note_on,168,0,8,,,,,,,,7,,,50,58
2712,note_on,312,0,7,,,,,,,,6,,,50,0
2712,note_on,312,0,6,,,,,,,,5,,,62,0
2712,note_on,312,0,9,,,,,,,,8,,,38,0
2712,note_on,312,0,8,,,,,,,,7,,,50,0
2712,note_on,312,0,2,,,,,,,,1,,,50,0
2712,note_on,312,0,5,,,,,,,,4,,,62,0
2880,note_on,168,0,8,,,,,,,,7,,,58,58
2880,note_on,168,0,6,,,,,,,,5,,,70,58
2880,note_on,168,0,5,,,,,,,,4,,,70,58
2880,note_on,168,0,7,,,,,,,,6,,,58,58
2880,note_on,168,0,9,,,,,,,,8,,,46,58
2880,note_on,168,0,2,,,,,,,,1,,,58,58
3420,note_on,540,0,2,,,,,,,,1,,,58,0
3420,note_on,540,0,9,,,,,,,,8,,,46,0
3420,note_on,540,0,7,,,,,,,,6,,,58,0
3420,note_on,540,0,8,,,,,,,,7,,,58,0
3420,note_on,540,0,5,,,,,,,,4,,,70,0
3420,note_on,540,0,6,,,,,,,,5,,,70,0
3600,note_on,180,0,6,,,,,,,,5,,,69,58
3600,note_on,180,0,2,,,,,,,,1,,,57,58
3600,note_on,180,0,9,,,,,,,,8,,,45,58
3600,note_on,180,0,7,,,,,,,,6,,,57,58
3600,note_on,180,0,5,,,,,,,,4,,,69,58
3600,note_on,180,0,8,,,,,,,,7,,,57,58
3756,note_on,156,0,8,,,,,,,,7,,,57,0
3756,note_on,156,0,7,,,,,,,,6,,,57,0
3756,note_on,156,0,6,,,,,,,,5,,,69,0
3756,note_on,156,0,5,,,,,,,,4,,,69,0
3756,note_on,156,0,9,,,,,,,,8,,,45,0
3756,note_on,156,0,2,,,,,,,,1,,,57,0
3840,note_on,84,0,6,,,,,,,,5,,,67,58
3840,note_on,84,0,2,,,,,,,,1,,,55,58
3840,note_on,84,0,8,,,,,,,,7,,,55,58
3840,note_on,84,0,5,,,,,,,,4,,,67,58
3840,note_on,84,0,7,,,,,,,,6,,,55,58
3840,note_on,84,0,9,,,,,,,,8,,,43,58
4152,note_on,312,0,9,,,,,,,,8,,,43,0
4152,note_on,312,0,6,,,,,,,,5,,,67,0
4152,note_on,312,0,2,,,,,,,,1,,,55,0
4152,note_on,312,0,5,,,,,,,,4,,,67,0
4152,note_on,312,0,8,,,,,,,,7,,,55,0
4152,note_on,312,0,7,,,,,,,,6,,,55,0
4320,note_on,168,0,8,,,,,,,,7,,,58,58
4320,note_on,168,0,9,,,,,,,,8,,,46,58
4320,note_on,168,0,2,,,,,,,,1,,,58,58
4320,note_on,168,0,7,,,,,,,,6,,,58,58
4320,note_on,168,0,6,,,,,,,,5,,,70,58
4320,note_on,168,0,5,,,,,,,,4,,,70,58
4800,note_on,0,0,9,,,,,,,,8,,,45,58
4800,note_on,0,0,5,,,,,,,,4,,,69,58
4800,note_on,480,0,2,,,,,,,,1,,,58,0
4800,note_on,0,0,7,,,,,,,,6,,,57,58
4800,note_on,480,0,8,,,,,,,,7,,,58,0
4800,note_on,0,0,6,,,,,,,,5,,,69,58
4800,note_on,480,0,9,,,,,,,,8,,,46,0
4800,note_on,480,0,5,,,,,,,,4,,,70,0
4800,note_on,480,0,6,,,,,,,,5,,,70,0
4800,note_on,0,0,2,,,,,,,,1,,,57,58
4800,note_on,480,0,7,,,,,,,,6,,,58,0
4800,note_on,0,0,8,,,,,,,,7,,,57,58
5280,note_on,480,0,8,,,,,,,,7,,,57,0
5280,note_on,480,0,5,,,,,,,,4,,,69,0
5280,note_on,0,0,8,,,,,,,,7,,,55,58
5280,note_on,480,0,7,,,,,,,,6,,,57,0
5280,note_on,0,0,6,,,,,,,,5,,,67,58
5280,note_on,0,0,2,,,,,,,,1,,,55,58
5280,note_on,480,0,6,,,,,,,,5,,,69,0
5280,note_on,480,0,9,,,,,,,,8,,,45,0
5280,note_on,0,0,9,,,,,,,,8,,,43,58
5280,note_on,0,0,7,,,,,,,,6,,,55,58
5280,note_on,480,0,2,,,,,,,,1,,,57,0
5280,note_on,0,0,5,,,,,,,,4,,,67,58
5736,note_on,456,0,2,,,,,,,,1,,,55,0
5736,note_on,456,0,7,,,,,,,,6,,,55,0
5736,note_on,456,0,6,,,,,,,,5,,,67,0
5736,note_on,456,0,5,,,,,,,,4,,,67,0
5736,note_on,456,0,8,,,,,,,,7,,,55,0
5736,note_on,456,0,9,,,,,,,,8,,,43,0
5760,note_on,24,0,9,,,,,,,,8,,,42,58
5760,note_on,24,0,7,,,,,,,,6,,,54,58
5760,note_on,24,0,8,,,,,,,,7,,,54,58
5760,note_on,24,0,2,,,,,,,,1,,,54,58
5760,note_on,24,0,6,,,,,,,,5,,,66,58
5760,note_on,24,0,5,,,,,,,,4,,,66,58
6072,note_on,312,0,9,,,,,,,,8,,,42,0
6072,note_on,312,0,6,,,,,,,,5,,,66,0
6072,note_on,312,0,5,,,,,,,,4,,,66,0
6072,note_on,312,0,2,,,,,,,,1,,,54,0
6072,note_on,312,0,8,,,,,,,,7,,,54,0
6072,note_on,312,0,7,,,,,,,,6,,,54,0
6240,note_on,168,0,9,,,,,,,,8,,,38,58
6240,note_on,168,0,6,,,,,,,,5,,,62,58
6240,note_on,168,0,2,,,,,,,,1,,,50,58
6240,note_on,168,0,5,,,,,,,,4,,,62,58
6240,note_on,168,0,7,,,,,,,,6,,,50,58
6240,note_on,168,0,8,,,,,,,,7,,,50,58
6552,note_on,312,0,6,,,,,,,,5,,,62,0
6552,note_on,312,0,2,,,,,,,,1,,,50,0
6552,note_on,312,0,5,,,,,,,,4,,,62,0
6552,note_on,312,0,7,,,,,,,,6,,,50,0
6552,note_on,312,0,9,,,,,,,,8,,,38,0
6552,note_on,312,0,8,,,,,,,,7,,,50,0
6720,note_on,168,0,7,,,,,,,,6,,,60,58
6720,note_on,168,0,6,,,,,,,,5,,,72,58
6720,note_on,168,0,5,,,,,,,,4,,,72,58
6720,note_on,168,0,9,,,,,,,,8,,,48,58
6720,note_on,168,0,2,,,,,,,,1,,,60,58
6720,note_on,168,0,8,,,,,,,,7,,,60,58
7260,note_on,540,0,9,,,,,,,,8,,,48,0
7260,note_on,540,0,2,,,,,,,,1,,,60,0
7260,note_on,540,0,6,,,,,,,,5,,,72,0
7260,note_on,540,0,7,,,,,,,,6,,,60,0
7260,note_on,540,0,5,,,,,,,,4,,,72,0
7260,note_on,540,0,8,,,,,,,,7,,,60,0
7440,note_on,180,0,7,,,,,,,,6,,,58,58
7440,note_on,180,0,9,,,,,,,,8,,,46,58
7440,note_on,180,0,6,,,,,,,,5,,,70,58
7440,note_on,180,0,8,,,,,,,,7,,,58,58
7440,note_on,180,0,2,,,,,,,,1,,,58,58
7440,note_on,180,0,5,,,,,,,,4,,,70,58
7596,note_on,156,0,5,,,,,,,,4,,,70,0
7596,note_on,156,0,9,,,,,,,,8,,,46,0
7596,note_on,156,0,6,,,,,,,,5,,,70,0
7596,note_on,156,0,2,,,,,,,,1,,,58,0
7596,note_on,156,0,8,,,,,,,,7,,,58,0
7596,note_on,156,0,7,,,,,,,,6,,,58,0
7680,note_on,84,0,2,,,,,,,,1,,,57,58
7680,note_on,84,0,8,,,,,,,,7,,,57,58
7680,note_on,84,0,6,,,,,,,,5,,,69,58
7680,note_on,84,0,5,,,,,,,,4,,,69,58
7680,note_on,84,0,7,,,,,,,,6,,,57,58
7680,note_on,84,0,9,,,,,,,,8,,,45,58
7992,note_on,312,0,6,,,,,,,,5,,,69,0
7992,note_on,312,0,7,,,,,,,,6,,,57,0
7992,note_on,312,0,5,,,,,,,,4,,,69,0
7992,note_on,312,0,9,,,,,,,,8,,,45,0
7992,note_on,312,0,2,,,,,,,,1,,,57,0
7992,note_on,312,0,8,,,,,,,,7,,,57,0
8160,note_on,168,0,7,,,,,,,,6,,,60,58
8160,note_on,168,0,9,,,,,,,,8,,,48,58
8160,note_on,168,0,8,,,,,,,,7,,,60,58
8160,note_on,168,0,2,,,,,,,,1,,,60,58
8160,note_on,168,0,5,,,,,,,,4,,,72,58
8160,note_on,168,0,6,,,,,,,,5,,,72,58
8640,note_on,0,0,7,,,,,,,,6,,,58,58
8640,note_on,480,0,7,,,,,,,,6,,,60,0
8640,note_on,0,0,2,,,,,,,,1,,,58,58
8640,note_on,480,0,2,,,,,,,,1,,,60,0
8640,note_on,0,0,8,,,,,,,,7,,,58,58
8640,note_on,480,0,5,,,,,,,,4,,,72,0
8640,note_on,480,0,9,,,,,,,,8,,,48,0
8640,note_on,0,0,9,,,,,,,,8,,,46,58
8640,note_on,480,0,8,,,,,,,,7,,,60,0
8640,note_on,0,0,5,,,,,,,,4,,,70,58
8640,note_on,0,0,6,,,,,,,,5,,,70,58
8640,note_on,480,0,6,,,,,,,,5,,,72,0
9120,note_on,0,0,5,,,,,,,,4,,,69,58
9120,note_on,0,0,6,,,,,,,,5,,,69,58
9120,note_on,0,0,2,,,,,,,,1,,,57,58
9120,note_on,480,0,6,,,,,,,,5,,,70,0
9120,note_on,0,0,8,,,,,,,,7,,,57,58
9120,note_on,480,0,5,,,,,,,,4,,,70,0
9120,note_on,480,0,8,,,,,,,,7,,,58,0
9120,note_on,480,0,2,,,,,,,,1,,,58,0
9120,note_on,0,0,7,,,,,,,,6,,,57,58
9120,note_on,480,0,9,,,,,,,,8,,,46,0
9120,note_on,0,0,9,,,,,,,,8,,,45,58
9120,note_on,480,0,7,,,,,,,,6,,,58,0
9576,note_on,456,0,6,,,,,,,,5,,,69,0
9576,note_on,456,0,5,,,,,,,,4,,,69,0
9576,note_on,456,0,7,,,,,,,,6,,,57,0
9576,note_on,456,0,2,,,,,,,,1,,,57,0
9576,note_on,456,0,8,,,,,,,,7,,,57,0
9576,note_on,456,0,9,,,,,,,,8,,,45,0
9600,note_on,24,0,6,,,,,,,,5,,,67,58
9600,note_on,24,0,9,,,,,,,,8,,,43,58
9600,note_on,24,0,2,,,,,,,,1,,,55,58
9600,note_on,24,0,8,,,,,,,,7,,,55,58
9600,note_on,24,0,7,,,,,,,,6,,,55,58
9600,note_on,24,0,5,,,,,,,,4,,,67,58
9912,note_on,312,0,2,,,,,,,,1,,,55,0
9912,note_on,312,0,7,,,,,,,,6,,,55,0
9912,note_on,312,0,9,,,,,,,,8,,,43,0
9912,note_on,312,0,5,,,,,,,,4,,,67,0
9912,note_on,312,0,8,,,,,,,,7,,,55,0
9912,note_on,312,0,6,,,,,,,,5,,,67,0
10080,note_on,168,0,9,,,,,,,,8,,,46,58
10080,note_on,168,0,2,,,,,,,,1,,,58,58
10080,note_on,168,0,7,,,,,,,,6,,,58,58
10080,note_on,168,0,5,,,,,,,,4,,,70,58
10080,note_on,168,0,6,,,,,,,,5,,,70,58
10080,note_on,168,0,8,,,,,,,,7,,,58,58
10392,note_on,312,0,7,,,,,,,,6,,,58,0
10392,note_on,312,0,2,,,,,,,,1,,,58,0
10392,note_on,312,0,8,,,,,,,,7,,,58,0
10392,note_on,312,0,9,,,,,,,,8,,,46,0
10392,note_on,312,0,5,,,,,,,,4,,,70,0
10392,note_on,312,0,6,,,,,,,,5,,,70,0
10560,note_on,168,0,6,,,,,,,,5,,,75,58
10560,note_on,168,0,5,,,,,,,,4,,,75,58
10560,note_on,168,0,8,,,,,,,,7,,,63,58
10560,note_on,168,0,9,,,,,,,,8,,,51,58
10560,note_on,168,0,7,,,,,,,,6,,,63,58
10560,note_on,168,0,2,,,,,,,,1,,,63,58
11064,note_on,504,0,9,,,,,,,,8,,,51,0
11064,note_on,504,0,2,,,,,,,,1,,,63,0
11064,note_on,504,0,7,,,,,,,,6,,,63,0
11064,note_on,504,0,6,,,,,,,,5,,,75,0
11064,note_on,504,0,8,,,,,,,,7,,,63,0
11064,note_on,504,0,5,,,,,,,,4,,,75,0
11280,note_on,216,0,7,,,,,,,,6,,,62,58
11280,note_on,216,0,9,,,,,,,,8,,,50,58
11280,note_on,216,0,6,,,,,,,,5,,,74,58
11280,note_on,216,0,8,,,,,,,,7,,,62,58
11280,note_on,216,0,2,,,,,,,,1,,,62,58
11280,note_on,216,0,5,,,,,,,,4,,,74,58
11436,note_on,156,0,5,,,,,,,,4,,,74,0
11436,note_on,156,0,6,,,,,,,,5,,,74,0
11436,note_on,156,0,7,,,,,,,,6,,,62,0
11436,note_on,156,0,2,,,,,,,,1,,,62,0
11436,note_on,156,0,8,,,,,,,,7,,,62,0
11436,note_on,156,0,9,,,,,,,,8,,,50,0
11520,note_on,84,0,2,,,,,,,,1,,,60,58
11520,note_on,84,0,9,,,,,,,,8,,,48,58
11520,note_on,84,0,6,,,,,,,,5,,,72,58
11520,note_on,84,0,5,,,,,,,,4,,,72,58
11520,note_on,84,0,8,,,,,,,,7,,,60,58
11520,note_on,84,0,7,,,,,,,,6,,,60,58
11832,note_on,312,0,8,,,,,,,,7,,,60,0
11832,note_on,312,0,7,,,,,,,,6,,,60,0
11832,note_on,312,0,6,,,,,,,,5,,,72,0
11832,note_on,312,0,9,,,,,,,,8,,,48,0
11832,note_on,312,0,5,,,,,,,,4,,,72,0
11832,note_on,312,0,2,,,,,,,,1,,,60,0
12000,note_on,168,0,9,,,,,,,,8,,,45,58
12000,note_on,168,0,7,,,,,,,,6,,,57,58
12000,note_on,168,0,5,,,,,,,,4,,,69,58
12000,note_on,168,0,6,,,,,,,,5,,,69,58
12000,note_on,168,0,2,,,,,,,,1,,,57,58
12000,note_on,168,0,8,,,,,,,,7,,,57,58
12312,note_on,312,0,9,,,,,,,,8,,,45,0
12312,note_on,312,0,6,,,,,,,,5,,,69,0
12312,note_on,312,0,2,,,,,,,,1,,,57,0
12312,note_on,312,0,8,,,,,,,,7,,,57,0
12312,note_on,312,0,7,,,,,,,,6,,,57,0
12312,note_on,312,0,5,,,,,,,,4,,,69,0
12480,note_on,168,0,9,,,,,,,,8,,,50,58
12480,note_on,168,0,8,,,,,,,,7,,,62,58
12480,note_on,168,0,2,,,,,,,,1,,,62,58
12480,note_on,168,0,6,,,,,,,,5,,,74,58
12480,note_on,168,0,7,,,,,,,,6,,,62,58
12480,note_on,168,0,5,,,,,,,,4,,,74,58
12984,note_on,504,0,9,,,,,,,,8,,,50,0
12984,note_on,504,0,7,,,,,,,,6,,,62,0
12984,note_on,504,0,6,,,,,,,,5,,,74,0
12984,note_on,504,0,8,,,,,,,,7,,,62,0
12984,note_on,504,0,2,,,,,,,,1,,,62,0
12984,note_on,504,0,5,,,,,,,,4,,,74,0
13200,note_on,216,0,8,,,,,,,,7,,,60,58
13200,note_on,216,0,6,,,,,,,,5,,,72,58
13200,note_on,216,0,9,,,,,,,,8,,,48,58
13200,note_on,216,0,2,,,,,,,,1,,,60,58
13200,note_on,216,0,7,,,,,,,,6,,,60,58
13200,note_on,216,0,5,,,,,,,,4,,,72,58
13356,note_on,156,0,8,,,,,,,,7,,,60,0
13356,note_on,156,0,7,,,,,,,,6,,,60,0
13356,note_on,156,0,5,,,,,,,,4,,,72,0
13356,note_on,156,0,6,,,,,,,,5,,,72,0
13356,note_on,156,0,9,,,,,,,,8,,,48,0
13356,note_on,156,0,2,,,,,,,,1,,,60,0
13440,note_on,84,0,6,,,,,,,,5,,,70,58
13440,note_on,84,0,7,,,,,,,,6,,,58,58
13440,note_on,84,0,5,,,,,,,,4,,,70,58
13440,note_on,84,0,9,,,,,,,,8,,,46,58
13440,note_on,84,0,2,,,,,,,,1,,,58,58
13440,note_on,84,0,8,,,,,,,,7,,,58,58
13752,note_on,312,0,2,,,,,,,,1,,,58,0
13752,note_on,312,0,9,,,,,,,,8,,,46,0
13752,note_on,312,0,5,,,,,,,,4,,,70,0
13752,note_on,312,0,7,,,,,,,,6,,,58,0
13752,note_on,312,0,6,,,,,,,,5,,,70,0
13752,note_on,312,0,8,,,,,,,,7,,,58,0
13920,note_on,168,0,9,,,,,,,,8,,,43,58
13920,note_on,168,0,7,,,,,,,,6,,,55,58
13920,note_on,168,0,5,,,,,,,,4,,,67,58
13920,note_on,168,0,2,,,,,,,,1,,,55,58
13920,note_on,168,0,6,,,,,,,,5,,,67,58
13920,note_on,168,0,8,,,,,,,,7,,,55,58
14232,note_on,312,0,6,,,,,,,,5,,,67,0
14232,note_on,312,0,5,,,,,,,,4,,,67,0
14232,note_on,312,0,7,,,,,,,,6,,,55,0
14232,note_on,312,0,9,,,,,,,,8,,,43,0
14232,note_on,312,0,8,,,,,,,,7,,,55,0
14232,note_on,312,0,2,,,,,,,,1,,,55,0
14400,note_on,168,0,5,,,,,,,,4,,,63,58
14400,note_on,168,0,9,,,,,,,,8,,,39,58
14400,note_on,168,0,6,,,,,,,,5,,,63,58
14400,note_on,168,0,7,,,,,,,,6,,,51,58
14400,note_on,168,0,2,,,,,,,,1,,,51,58
14400,note_on,168,0,8,,,,,,,,7,,,51,58
14712,note_on,312,0,6,,,,,,,,5,,,63,0
14712,note_on,312,0,9,,,,,,,,8,,,39,0
14712,note_on,312,0,5,,,,,,,,4,,,63,0
14712,note_on,312,0,7,,,,,,,,6,,,51,0
14712,note_on,312,0,8,,,,,,,,7,,,51,0
14712,note_on,312,0,2,,,,,,,,1,,,51,0
14880,note_on,168,0,5,,,,,,,,4,,,61,58
14880,note_on,168,0,6,,,,,,,,5,,,61,58
14880,note_on,168,0,8,,,,,,,,7,,,49,58
14880,note_on,168,0,2,,,,,,,,1,,,49,58
14880,note_on,168,0,9,,,,,,,,8,,,37,58
14880,note_on,168,0,7,,,,,,,,6,,,49,58
15192,note_on,312,0,8,,,,,,,,7,,,49,0
15192,note_on,312,0,9,,,,,,,,8,,,37,0
15192,note_on,312,0,2,,,,,,,,1,,,49,0
15192,note_on,312,0,6,,,,,,,,5,,,61,0
15192,note_on,312,0,5,,,,,,,,4,,,61,0
15192,note_on,312,0,7,,,,,,,,6,,,49,0
15360,note_on,168,0,6,,,,,,,,5,,,62,58
15360,note_on,168,0,7,,,,,,,,6,,,50,58
15360,note_on,168,0,9,,,,,,,,8,,,38,58
15360,note_on,168,0,8,,,,,,,,7,,,50,58
15360,note_on,168,0,5,,,,,,,,4,,,62,58
15360,note_on,168,0,2,,,,,,,,1,,,50,58
15672,note_on,312,0,9,,,,,,,,8,,,38,0
15672,note_on,312,0,8,,,,,,,,7,,,50,0
15672,note_on,312,0,7,,,,,,,,6,,,50,0
15672,note_on,312,0,6,,,,,,,,5,,,62,0
15672,note_on,312,0,5,,,,,,,,4,,,62,0
15672,note_on,312,0,2,,,,,,,,1,,,50,0
15840,note_on,168,0,9,,,,,,,,8,,,48,58
15840,note_on,168,0,8,,,,,,,,7,,,60,58
15840,note_on,168,0,7,,,,,,,,6,,,60,58
15840,note_on,168,0,2,,,,,,,,1,,,60,58
15840,note_on,168,0,6,,,,,,,,5,,,72,58
15840,note_on,168,0,5,,,,,,,,4,,,72,58
16320,note_on,480,0,6,,,,,,,,5,,,72,0
16320,note_on,0,0,8,,,,,,,,7,,,58,58
16320,note_on,0,0,2,,,,,,,,1,,,58,58
16320,note_on,480,0,8,,,,,,,,7,,,60,0
16320,note_on,0,0,6,,,,,,,,5,,,70,58
16320,note_on,480,0,2,,,,,,,,1,,,60,0
16320,note_on,0,0,9,,,,,,,,8,,,46,58
16320,note_on,480,0,9,,,,,,,,8,,,48,0
16320,note_on,480,0,7,,,,,,,,6,,,60,0
16320,note_on,0,0,7,,,,,,,,6,,,58,58
16320,note_on,0,0,5,,,,,,,,4,,,70,58
16320,note_on,480,0,5,,,,,,,,4,,,72,0
16800,note_on,480,0,5,,,,,,,,4,,,70,0
16800,note_on,480,0,8,,,,,,,,7,,,58,0
16800,note_on,480,0,7,,,,,,,,6,,,58,0
16800,note_on,0,0,7,,,,,,,,6,,,57,58
16800,note_on,0,0,2,,,,,,,,1,,,57,58
16800,note_on,480,0,2,,,,,,,,1,,,58,0
16800,note_on,0,0,9,,,,,,,,8,,,45,58
16800,note_on,0,0,5,,,,,,,,4,,,69,58
16800,note_on,480,0,6,,,,,,,,5,,,70,0
16800,note_on,480,0,9,,,,,,,,8,,,46,0
16800,note_on,0,0,6,,,,,,,,5,,,69,58
16800,note_on,0,0,8,,,,,,,,7,,,57,58
17112,note_on,312,0,6,,,,,,,,5,,,69,0
17112,note_on,312,0,9,,,,,,,,8,,,45,0
17112,note_on,312,0,8,,,,,,,,7,,,57,0
17112,note_on,312,0,7,,,,,,,,6,,,57,0
17112,note_on,312,0,2,,,,,,,,1,,,57,0
17112,note_on,312,0,5,,,,,,,,4,,,69,0
17280,note_on,168,0,6,,,,,,,,5,,,67,105
17280,note_on,168,0,5,,,,,,,,4,,,67,105
17280,note_on,168,0,2,,,,,,,,1,,,55,105
17280,note_on,168,0,8,,,,,,,,7,,,55,105
17280,note_on,168,0,7,,,,,,,,6,,,55,105
17280,note_on,168,0,9,,,,,,,,8,,,43,105
17280,note_on,17280,0,1,,,,,,,,0,,,67,80
17280,note_on,17280,0,4,,,,,,,,3,,,67,80
17472,note_on,192,0,5,,,,,,,,4,,,67,0
17472,note_on,192,0,6,,,,,,,,5,,,67,0
17520,note_on,48,0,5,,,,,,,,4,,,74,105
17520,note_on,48,0,6,,,,,,,,5,,,74,105
17592,note_on,312,0,1,,,,,,,,0,,,67,0
17592,note_on,312,0,9,,,,,,,,8,,,43,0
17592,note_on,312,0,8,,,,,,,,7,,,55,0
17592,note_on,312,0,7,,,,,,,,6,,,55,0
17592,note_on,312,0,2,,,,,,,,1,,,55,0
17664,note_on,384,0,4,,,,,,,,3,,,67,0
17760,note_on,168,0,1,,,,,,,,0,,,62,105
17760,note_on,168,0,7,,,,,,,,6,,,50,105
17760,note_on,168,0,9,,,,,,,,8,,,38,105
17760,note_on,168,0,2,,,,,,,,1,,,50,105
17760,note_on,96,0,4,,,,,,,,3,,,62,105
17760,note_on,168,0,8,,,,,,,,7,,,50,105
17904,note_on,384,0,6,,,,,,,,5,,,74,0
17904,note_on,384,0,5,,,,,,,,4,,,74,0
18000,note_on,96,0,5,,,,,,,,4,,,74,105
18000,note_on,96,0,6,,,,,,,,5,,,74,105
18072,note_on,312,0,9,,,,,,,,8,,,38,0
18072,note_on,312,0,2,,,,,,,,1,,,50,0
18072,note_on,312,0,1,,,,,,,,0,,,62,0
18072,note_on,312,0,8,,,,,,,,7,,,50,0
18072,note_on,312,0,7,,,,,,,,6,,,50,0
18144,note_on,384,0,4,,,,,,,,3,,,62,0
18240,note_on,168,0,9,,,,,,,,8,,,46,105
18240,note_on,168,0,1,,,,,,,,0,,,70,105
18240,note_on,168,0,2,,,,,,,,1,,,58,105
18240,note_on,18240,0,3,,,,,,,,2,,,70,105
18240,note_on,168,0,7,,,,,,,,6,,,58,105
18240,note_on,168,0,8,,,,,,,,7,,,58,105
18384,note_on,384,0,6,,,,,,,,5,,,74,0
18384,note_on,384,0,5,,,,,,,,4,,,74,0
18480,note_on,96,0,6,,,,,,,,5,,,74,105
18480,note_on,96,0,5,,,,,,,,4,,,74,105
18624,note_on,384,0,3,,,,,,,,2,,,70,0
18816,note_on,576,0,7,,,,,,,,6,,,58,0
18816,note_on,576,0,8,,,,,,,,7,,,58,0
18816,note_on,576,0,2,,,,,,,,1,,,58,0
18816,note_on,576,0,1,,,,,,,,0,,,70,0
18816,note_on,576,0,9,,,,,,,,8,,,46,0
18864,note_on,384,0,6,,,,,,,,5,,,74,0
18864,note_on,384,0,5,,,,,,,,4,,,74,0
18960,note_on,96,0,6,,,,,,,,5,,,74,105
18960,note_on,144,0,1,,,,,,,,0,,,69,105
18960,note_on,96,0,5,,,,,,,,4,,,74,105
18960,note_on,816,0,4,,,,,,,,3,,,69,105
18960,note_on,144,0,7,,,,,,,,6,,,57,105
18960,note_on,144,0,9,,,,,,,,8,,,45,105
18960,note_on,144,0,2,,,,,,,,1,,,57,105
18960,note_on,144,0,8,,,,,,,,7,,,57,105
19116,note_on,156,0,2,,,,,,,,1,,,57,0
19116,note_on,156,0,7,,,,,,,,6,,,57,0
19116,note_on,156,0,1,,,,,,,,0,,,69,0
19116,note_on,156,0,9,,,,,,,,8,,,45,0
19116,note_on,156,0,8,,,,,,,,7,,,57,0
19152,note_on,192,0,4,,,,,,,,3,,,69,0
19200,note_on,48,0,4,,,,,,,,3,,,67,105
19200,note_on,84,0,2,,,,,,,,1,,,55,105
19200,note_on,84,0,8,,,,,,,,7,,,55,105
19200,note_on,84,0,9,,,,,,,,8,,,43,105
19200,note_on,84,0,1,,,,,,,,0,,,67,105
19200,note_on,84,0,7,,,,,,,,6,,,55,105
19512,note_on,312,0,9,,,,,,,,8,,,43,0
19512,note_on,312,0,1,,,,,,,,0,,,67,0
19512,note_on,312,0,2,,,,,,,,1,,,55,0
19512,note_on,312,0,7,,,,,,,,6,,,55,0
19512,note_on,312,0,8,,,,,,,,7,,,55,0
19584,note_on,624,0,5,,,,,,,,4,,,74,0
19584,note_on,384,0,4,,,,,,,,3,,,67,0
19584,note_on,624,0,6,,,,,,,,5,,,74,0
19680,note_on,168,0,1,,,,,,,,0,,,79,105
19680,note_on,1056,0,3,,,,,,,,2,,,70,105
19680,note_on,168,0,9,,,,,,,,8,,,46,105
19680,note_on,0,0,1,,,,,,,,0,,,74,105
19680,note_on,168,0,8,,,,,,,,7,,,58,105
19680,note_on,96,0,5,,,,,,,,4,,,79,105
19680,note_on,96,0,6,,,,,,,,5,,,74,105
19680,note_on,168,0,7,,,,,,,,6,,,62,105
19680,note_on,168,0,2,,,,,,,,1,,,58,105
20064,note_on,384,0,3,,,,,,,,2,,,70,0
20160,note_on,480,0,8,,,,,,,,7,,,58,0
20160,note_on,0,0,8,,,,,,,,7,,,57,105
20160,note_on,480,0,6,,,,,,,,5,,,74,0
20160,note_on,0,0,6,,,,,,,,5,,,72,105
20160,note_on,0,0,2,,,,,,,,1,,,57,105
20160,note_on,0,0,1,,,,,,,,0,,,78,105
20160,note_on,480,0,5,,,,,,,,4,,,79,0
20160,note_on,0,0,1,,,,,,,,0,,,72,105
20160,note_on,0,0,9,,,,,,,,8,,,45,105
20160,note_on,480,0,2,,,,,,,,1,,,58,0
20160,note_on,0,0,5,,,,,,,,4,,,78,105
20160,note_on,576,0,4,,,,,,,,3,,,69,105
20160,note_on,480,0,9,,,,,,,,8,,,46,0
20160,note_on,0,0,1,,,,,,,,0,,,79,0
20160,note_on,480,0,1,,,,,,,,0,,,74,0
20448,note_on,768,0,7,,,,,,,,6,,,62,0
20544,note_on,384,0,4,,,,,,,,3,,,69,0
20640,note_on,0,0,9,,,,,,,,8,,,43,105
20640,note_on,480,0,8,,,,,,,,7,,,57,0
20640,note_on,480,0,1,,,,,,,,0,,,72,0
20640,note_on,0,0,1,,,,,,,,0,,,78,0
20640,note_on,0,0,1,,,,,,,,0,,,70,105
20640,note_on,0,0,1,,,,,,,,0,,,79,105
20640,note_on,0,0,8,,,,,,,,7,,,55,105
20640,note_on,480,0,9,,,,,,,,8,,,45,0
20640,note_on,480,0,2,,,,,,,,1,,,57,0
20640,note_on,96,0,4,,,,,,,,3,,,67,105
20640,note_on,0,0,6,,,,,,,,5,,,70,105
20640,note_on,480,0,6,,,,,,,,5,,,72,0
20640,note_on,192,0,7,,,,,,,,6,,,62,105
20640,note_on,480,0,5,,,,,,,,4,,,78,0
20640,note_on,0,0,2,,,,,,,,1,,,55,105
20640,note_on,0,0,5,,,,,,,,4,,,79,105
21024,note_on,384,0,6,,,,,,,,5,,,70,0
21024,note_on,384,0,4,,,,,,,,3,,,67,0
21024,note_on,384,0,5,,,,,,,,4,,,79,0
21120,note_on,0,0,9,,,,,,,,8,,,42,105
21120,note_on,480,0,9,,,,,,,,8,,,43,0
21120,note_on,96,0,4,,,,,,,,3,,,69,105
21120,note_on,0,0,1,,,,,,,,0,,,69,105
21120,note_on,480,0,8,,,,,,,,7,,,55,0
21120,note_on,480,0,2,,,,,,,,1,,,55,0
21120,note_on,0,0,2,,,,,,,,1,,,54,105
21120,note_on,0,0,1,,,,,,,,0,,,81,105
21120,note_on,480,0,1,,,,,,,,0,,,79,0
21120,note_on,96,0,6,,,,,,,,5,,,69,105
21120,note_on,0,0,1,,,,,,,,0,,,70,0
21120,note_on,96,0,5,,,,,,,,4,,,81,105
21120,note_on,0,0,8,,,,,,,,7,,,54,105
21312,note_on,192,0,5,,,,,,,,4,,,81,0
21312,note_on,192,0,6,,,,,,,,5,,,69,0
21360,note_on,48,0,6,,,,,,,,5,,,74,105
21360,note_on,48,0,5,,,,,,,,4,,,74,105
21432,note_on,312,0,9,,,,,,,,8,,,42,0
21432,note_on,792,0,7,,,,,,,,6,,,62,0
21432,note_on,312,0,2,,,,,,,,1,,,54,0
21432,note_on,0,0,1,,,,,,,,0,,,69,0
21432,note_on,312,0,1,,,,,,,,0,,,81,0
21432,note_on,312,0,8,,,,,,,,7,,,54,0
21504,note_on,384,0,4,,,,,,,,3,,,69,0
21600,note_on,168,0,9,,,,,,,,8,,,38,105
21600,note_on,168,0,8,,,,,,,,7,,,50,105
21600,note_on,1536,0,3,,,,,,,,2,,,62,105
21600,note_on,168,0,2,,,,,,,,1,,,50,105
21600,note_on,168,0,7,,,,,,,,6,,,50,105
21600,note_on,96,0,4,,,,,,,,3,,,62,105
21600,note_on,168,0,1,,,,,,,,0,,,62,105
21744,note_on,384,0,5,,,,,,,,4,,,74,0
21744,note_on,384,0,6,,,,,,,,5,,,74,0
21840,note_on,96,0,5,,,,,,,,4,,,74,105
21840,note_on,96,0,6,,,,,,,,5,,,74,105
21912,note_on,312,0,9,,,,,,,,8,,,38,0
21912,note_on,312,0,8,,,,,,,,7,,,50,0
21912,note_on,312,0,7,,,,,,,,6,,,50,0
21912,note_on,312,0,2,,,,,,,,1,,,50,0
21912,note_on,312,0,1,,,,,,,,0,,,62,0
21984,note_on,384,0,3,,,,,,,,2,,,62,0
21984,note_on,384,0,4,,,,,,,,3,,,62,0
22080,note_on,168,0,9,,,,,,,,8,,,48,105
22080,note_on,96,0,3,,,,,,,,2,,,72,105
22080,note_on,168,0,2,,,,,,,,1,,,60,105
22080,note_on,96,0,4,,,,,,,,3,,,72,105
22080,note_on,168,0,8,,,,,,,,7,,,60,105
22080,note_on,168,0,7,,,,,,,,6,,,60,105
22080,note_on,168,0,1,,,,,,,,0,,,72,105
22224,note_on,384,0,5,,,,,,,,4,,,74,0
22224,note_on,384,0,6,,,,,,,,5,,,74,0
22320,note_on,96,0,5,,,,,,,,4,,,74,105
22320,note_on,96,0,6,,,,,,,,5,,,74,105
22464,note_on,384,0,3,,,,,,,,2,,,72,0
22464,note_on,384,0,4,,,,,,,,3,,,72,0
22656,note_on,576,0,2,,,,,,,,1,,,60,0
22656,note_on,576,0,1,,,,,,,,0,,,72,0
22656,note_on,576,0,7,,,,,,,,6,,,60,0
22656,note_on,576,0,9,,,,,,,,8,,,48,0
22656,note_on,576,0,8,,,,,,,,7,,,60,0
22704,note_on,384,0,6,,,,,,,,5,,,74,0
22704,note_on,384,0,5,,,,,,,,4,,,74,0
22800,note_on,96,0,6,,,,,,,,5,,,74,105
22800,note_on,144,0,1,,,,,,,,0,,,70,105
22800,note_on,144,0,2,,,,,,,,1,,,58,105
22800,note_on,144,0,8,,,,,,,,7,,,58,105
22800,note_on,144,0,7,,,,,,,,6,,,58,105
22800,note_on,144,0,9,,,,,,,,8,,,46,105
22800,note_on,96,0,5,,,,,,,,4,,,74,105
22956,note_on,156,0,9,,,,,,,,8,,,46,0
22956,note_on,156,0,8,,,,,,,,7,,,58,0
22956,note_on,156,0,1,,,,,,,,0,,,70,0
22956,note_on,156,0,2,,,,,,,,1,,,58,0
22956,note_on,156,0,7,,,,,,,,6,,,58,0
23040,note_on,84,0,9,,,,,,,,8,,,45,105
23040,note_on,576,0,4,,,,,,,,3,,,69,105
23040,note_on,84,0,2,,,,,,,,1,,,57,105
23040,note_on,84,0,8,,,,,,,,7,,,57,105
23040,note_on,84,0,1,,,,,,,,0,,,69,105
23040,note_on,84,0,7,,,,,,,,6,,,57,105
23352,note_on,312,0,1,,,,,,,,0,,,69,0
23352,note_on,312,0,8,,,,,,,,7,,,57,0
23352,note_on,312,0,2,,,,,,,,1,,,57,0
23352,note_on,312,0,7,,,,,,,,6,,,57,0
23352,note_on,312,0,9,,,,,,,,8,,,45,0
23424,note_on,624,0,5,,,,,,,,4,,,74,0
23424,note_on,624,0,6,,,,,,,,5,,,74,0
23424,note_on,384,0,4,,,,,,,,3,,,69,0
23520,note_on,96,0,5,,,,,,,,4,,,81,105
23520,note_on,168,0,7,,,,,,,,6,,,66,105
23520,note_on,168,0,2,,,,,,,,1,,,60,105
23520,note_on,168,0,8,,,,,,,,7,,,60,105
23520,note_on,168,0,1,,,,,,,,0,,,75,105
23520,note_on,1056,0,3,,,,,,,,2,,,72,105
23520,note_on,0,0,1,,,,,,,,0,,,81,105
23520,note_on,168,0,9,,,,,,,,8,,,48,105
23520,note_on,96,0,6,,,,,,,,5,,,75,105
23520,note_on,96,0,4,,,,,,,,3,,,72,105
23904,note_on,384,0,3,,,,,,,,2,,,72,0
23904,note_on,384,0,4,,,,,,,,3,,,72,0
24000,note_on,0,0,6,,,,,,,,5,,,74,105
24000,note_on,480,0,6,,,,,,,,5,,,75,0
24000,note_on,0,0,5,,,,,,,,4,,,79,105
24000,note_on,480,0,5,,,,,,,,4,,,81,0
24000,note_on,480,0,8,,,,,,,,7,,,60,0
24000,note_on,0,0,8,,,,,,,,7,,,58,105
24000,note_on,0,0,7,,,,,,,,6,,,67,105
24000,note_on,96,0,3,,,,,,,,2,,,70,105
24000,note_on,480,0,7,,,,,,,,6,,,66,0
24000,note_on,0,0,1,,,,,,,,0,,,79,105
24000,note_on,0,0,9,,,,,,,,8,,,46,105
24000,note_on,480,0,9,,,,,,,,8,,,48,0
24000,note_on,0,0,1,,,,,,,,0,,,74,105
24000,note_on,0,0,1,,,,,,,,0,,,75,0
24000,note_on,480,0,1,,,,,,,,0,,,81,0
24000,note_on,480,0,2,,,,,,,,1,,,60,0
24000,note_on,0,0,2,,,,,,,,1,,,58,105
24384,note_on,384,0,7,,,,,,,,6,,,67,0
24384,note_on,384,0,3,,,,,,,,2,,,70,0
24480,note_on,0,0,1,,,,,,,,0,,,78,105
24480,note_on,96,0,7,,,,,,,,6,,,72,105
24480,note_on,0,0,1,,,,,,,,0,,,74,0
24480,note_on,480,0,1,,,,,,,,0,,,79,0
24480,note_on,576,0,4,,,,,,,,3,,,69,105
24480,note_on,0,0,1,,,,,,,,0,,,81,105
24480,note_on,0,0,2,,,,,,,,1,,,57,105
24480,note_on,480,0,2,,,,,,,,1,,,58,0
24480,note_on,0,0,5,,,,,,,,4,,,81,105
24480,note_on,480,0,5,,,,,,,,4,,,79,0
24480,note_on,480,0,6,,,,,,,,5,,,74,0
24480,note_on,480,0,9,,,,,,,,8,,,46,0
24480,note_on,0,0,9,,,,,,,,8,,,45,105
24480,note_on,480,0,8,,,,,,,,7,,,58,0
24480,note_on,0,0,8,,,,,,,,7,,,57,105
24480,note_on,0,0,6,,,,,,,,5,,,78,105
24864,note_on,384,0,4,,,,,,,,3,,,69,0
24864,note_on,384,0,5,,,,,,,,4,,,81,0
24864,note_on,384,0,6,,,,,,,,5,,,78,0
24960,note_on,0,0,1,,,,,,,,0,,,78,0
24960,note_on,480,0,1,,,,,,,,0,,,81,0
24960,note_on,0,0,9,,,,,,,,8,,,43,105
24960,note_on,0,0,8,,,,,,,,7,,,55,105
24960,note_on,0,0,1,,,,,,,,0,,,79,105
24960,note_on,0,0,2,,,,,,,,1,,,55,105
24960,note_on,480,0,9,,,,,,,,8,,,45,0
24960,note_on,0,0,1,,,,,,,,0,,,82,105
24960,note_on,480,0,8,,,,,,,,7,,,57,0
24960,note_on,96,0,5,,,,,,,,4,,,82,105
24960,note_on,480,0,2,,,,,,,,1,,,57,0
24960,note_on,96,0,4,,,,,,,,3,,,67,105
24960,note_on,96,0,6,,,,,,,,5,,,79,105
24960,note_on,480,0,7,,,,,,,,6,,,72,0
24960,note_on,0,0,7,,,,,,,,6,,,70,105
25152,note_on,192,0,5,,,,,,,,4,,,82,0
25152,note_on,192,0,6,,,,,,,,5,,,79,0
25200,note_on,48,0,6,,,,,,,,5,,,79,105
25200,note_on,48,0,5,,,,,,,,4,,,79,105
25272,note_on,312,0,7,,,,,,,,6,,,70,0
25272,note_on,312,0,1,,,,,,,,0,,,82,0
25272,note_on,0,0,1,,,,,,,,0,,,79,0
25272,note_on,312,0,2,,,,,,,,1,,,55,0
25272,note_on,312,0,8,,,,,,,,7,,,55,0
25272,note_on,312,0,9,,,,,,,,8,,,43,0
25344,note_on,384,0,4,,,,,,,,3,,,67,0
25440,note_on,168,0,1,,,,,,,,0,,,67,105
25440,note_on,168,0,9,,,,,,,,8,,,46,105
25440,note_on,1056,0,3,,,,,,,,2,,,70,105
25440,note_on,168,0,2,,,,,,,,1,,,58,105
25440,note_on,168,0,8,,,,,,,,7,,,58,105
25440,note_on,168,0,7,,,,,,,,6,,,58,105
25584,note_on,384,0,6,,,,,,,,5,,,79,0
25584,note_on,384,0,5,,,,,,,,4,,,79,0
25680,note_on,96,0,6,,,,,,,,5,,,79,105
25680,note_on,96,0,5,,,,,,,,4,,,79,105
25752,note_on,312,0,7,,,,,,,,6,,,58,0
25752,note_on,312,0,8,,,,,,,,7,,,58,0
25752,note_on,312,0,1,,,,,,,,0,,,67,0
25752,note_on,312,0,2,,,,,,,,1,,,58,0
25752,note_on,312,0,9,,,,,,,,8,,,46,0
25824,note_on,384,0,3,,,,,,,,2,,,70,0
25920,note_on,168,0,1,,,,,,,,0,,,79,105
25920,note_on,96,0,3,,,,,,,,2,,,75,105
25920,note_on,168,0,9,,,,,,,,8,,,51,105
25920,note_on,168,0,8,,,,,,,,7,,,63,105
25920,note_on,168,0,2,,,,,,,,1,,,63,105
25920,note_on,168,0,7,,,,,,,,6,,,63,105
26064,note_on,384,0,5,,,,,,,,4,,,79,0
26064,note_on,384,0,6,,,,,,,,5,,,79,0
26160,note_on,96,0,5,,,,,,,,4,,,79,105
26160,note_on,96,0,6,,,,,,,,5,,,79,105
26496,note_on,576,0,9,,,,,,,,8,,,51,0
26496,note_on,576,0,2,,,,,,,,1,,,63,0
26496,note_on,576,0,7,,,,,,,,6,,,63,0
26496,note_on,576,0,1,,,,,,,,0,,,79,0
26496,note_on,576,0,3,,,,,,,,2,,,75,0
26496,note_on,576,0,8,,,,,,,,7,,,63,0
26544,note_on,384,0,5,,,,,,,,4,,,79,0
26544,note_on,384,0,6,,,,,,,,5,,,79,0
26640,note_on,144,0,9,,,,,,,,8,,,50,105
26640,note_on,144,0,8,,,,,,,,7,,,62,105
26640,note_on,96,0,6,,,,,,,,5,,,79,105
26640,note_on,144,0,1,,,,,,,,0,,,77,105
26640,note_on,1296,0,4,,,,,,,,3,,,74,105
26640,note_on,96,0,5,,,,,,,,4,,,79,105
26640,note_on,144,0,2,,,,,,,,1,,,62,105
26640,note_on,144,0,7,,,,,,,,6,,,62,105
26640,note_on,144,0,3,,,,,,,,2,,,74,105
26796,note_on,156,0,2,,,,,,,,1,,,62,0
26796,note_on,156,0,1,,,,,,,,0,,,77,0
26796,note_on,156,0,9,,,,,,,,8,,,50,0
26796,note_on,156,0,7,,,,,,,,6,,,62,0
26796,note_on,156,0,8,,,,,,,,7,,,62,0
26832,note_on,192,0,5,,,,,,,,4,,,79,0
26832,note_on,192,0,4,,,,,,,,3,,,74,0
26832,note_on,192,0,3,,,,,,,,2,,,74,0
26832,note_on,192,0,6,,,,,,,,5,,,79,0
26880,note_on,84,0,8,,,,,,,,7,,,60,105
26880,note_on,48,0,3,,,,,,,,2,,,72,105
26880,note_on,84,0,1,,,,,,,,0,,,75,105
26880,note_on,84,0,2,,,,,,,,1,,,60,105
26880,note_on,48,0,5,,,,,,,,4,,,87,105
26880,note_on,48,0,6,,,,,,,,5,,,87,105
26880,note_on,84,0,9,,,,,,,,8,,,48,105
26880,note_on,84,0,7,,,,,,,,6,,,60,105
26880,note_on,48,0,4,,,,,,,,3,,,72,105
27072,note_on,192,0,6,,,,,,,,5,,,87,0
27072,note_on,192,0,5,,,,,,,,4,,,87,0
27120,note_on,48,0,6,,,,,,,,5,,,87,105
27120,note_on,48,0,5,,,,,,,,4,,,87,105
27192,note_on,312,0,7,,,,,,,,6,,,60,0
27192,note_on,312,0,8,,,,,,,,7,,,60,0
27192,note_on,312,0,9,,,,,,,,8,,,48,0
27192,note_on,312,0,2,,,,,,,,1,,,60,0
27192,note_on,312,0,1,,,,,,,,0,,,75,0
27264,note_on,384,0,4,,,,,,,,3,,,72,0
27264,note_on,384,0,3,,,,,,,,2,,,72,0
27360,note_on,168,0,9,,,,,,,,8,,,45,105
27360,note_on,168,0,1,,,,,,,,0,,,72,105
27360,note_on,96,0,4,,,,,,,,3,,,69,105
27360,note_on,168,0,2,,,,,,,,1,,,57,105
27360,note_on,168,0,7,,,,,,,,6,,,57,105
27360,note_on,168,0,8,,,,,,,,7,,,57,105
27504,note_on,384,0,5,,,,,,,,4,,,87,0
27504,note_on,384,0,6,,,,,,,,5,,,87,0
27600,note_on,96,0,5,,,,,,,,4,,,87,105
27600,note_on,96,0,6,,,,,,,,5,,,87,105
27672,note_on,312,0,7,,,,,,,,6,,,57,0
27672,note_on,312,0,8,,,,,,,,7,,,57,0
27672,note_on,312,0,9,,,,,,,,8,,,45,0
27672,note_on,312,0,2,,,,,,,,1,,,57,0
27672,note_on,312,0,1,,,,,,,,0,,,72,0
27744,note_on,384,0,4,,,,,,,,3,,,69,0
27792,note_on,192,0,6,,,,,,,,5,,,87,0
27792,note_on,192,0,5,,,,,,,,4,,,87,0
27840,note_on,168,0,7,,,,,,,,6,,,62,105
27840,note_on,168,0,8,,,,,,,,7,,,62,105
27840,note_on,168,0,9,,,,,,,,8,,,50,105
27840,note_on,576,0,3,,,,,,,,2,,,74,105
27840,note_on,48,0,5,,,,,,,,4,,,78,105
27840,note_on,48,0,6,,,,,,,,5,,,78,105
27840,note_on,96,0,4,,,,,,,,3,,,74,105
27840,note_on,168,0,1,,,,,,,,0,,,69,105
27840,note_on,168,0,2,,,,,,,,1,,,62,105
28032,note_on,192,0,5,,,,,,,,4,,,78,0
28032,note_on,192,0,6,,,,,,,,5,,,78,0
28080,note_on,48,0,5,,,,,,,,4,,,78,105
28080,note_on,48,0,6,,,,,,,,5,,,78,105
28224,note_on,384,0,4,,,,,,,,3,,,74,0
28416,note_on,576,0,3,,,,,,,,2,,,74,0
28464,note_on,384,0,5,,,,,,,,4,,,78,0
28464,note_on,384,0,6,,,,,,,,5,,,78,0
28560,note_on,720,0,7,,,,,,,,6,,,62,0
28560,note_on,96,0,5,,,,,,,,4,,,78,105
28560,note_on,0,0,7,,,,,,,,6,,,60,105
28560,note_on,96,0,6,,,,,,,,5,,,78,105
28560,note_on,0,0,2,,,,,,,,1,,,60,105
28560,note_on,720,0,9,,,,,,,,8,,,50,0
28560,note_on,0,0,8,,,,,,,,7,,,60,105
28560,note_on,720,0,8,,,,,,,,7,,,62,0
28560,note_on,144,0,3,,,,,,,,2,,,72,105
28560,note_on,0,0,9,,,,,,,,8,,,48,105
28560,note_on,720,0,2,,,,,,,,1,,,62,0
28608,note_on,768,0,1,,,,,,,,0,,,69,0
28752,note_on,192,0,6,,,,,,,,5,,,78,0
28752,note_on,192,0,9,,,,,,,,8,,,48,0
28752,note_on,192,0,3,,,,,,,,2,,,72,0
28752,note_on,192,0,2,,,,,,,,1,,,60,0
28752,note_on,192,0,8,,,,,,,,7,,,60,0
28752,note_on,192,0,5,,,,,,,,4,,,78,0
28752,note_on,192,0,7,,,,,,,,6,,,60,0
28800,note_on,48,0,7,,,,,,,,6,,,58,105
28800,note_on,48,0,9,,,,,,,,8,,,46,105
28800,note_on,576,0,4,,,,,,,,3,,,67,105
28800,note_on,0,0,1,,,,,,,,0,,,62,105
28800,note_on,48,0,6,,,,,,,,5,,,79,105
28800,note_on,192,0,1,,,,,,,,0,,,74,105
28800,note_on,48,0,3,,,,,,,,2,,,70,105
28800,note_on,48,0,2,,,,,,,,1,,,58,105
28800,note_on,48,0,8,,,,,,,,7,,,58,105
28800,note_on,48,0,5,,,,,,,,4,,,79,105
29112,note_on,312,0,7,,,,,,,,6,,,58,0
29112,note_on,312,0,2,,,,,,,,1,,,58,0
29112,note_on,312,0,1,,,,,,,,0,,,62,0
29112,note_on,312,0,8,,,,,,,,7,,,58,0
29112,note_on,312,0,5,,,,,,,,4,,,79,0
29112,note_on,0,0,1,,,,,,,,0,,,74,0
29112,note_on,312,0,9,,,,,,,,8,,,46,0
29112,note_on,312,0,6,,,,,,,,5,,,79,0
29280,note_on,168,0,2,,,,,,,,1,,,51,105
29280,note_on,168,0,8,,,,,,,,7,,,51,105
29280,note_on,168,0,9,,,,,,,,8,,,39,105
29280,note_on,0,0,1,,,,,,,,0,,,70,105
29280,note_on,168,0,1,,,,,,,,0,,,67,105
29280,note_on,168,0,7,,,,,,,,6,,,63,105
29280,note_on,168,0,6,,,,,,,,5,,,70,105
29280,note_on,168,0,5,,,,,,,,4,,,70,105
29568,note_on,768,0,4,,,,,,,,3,,,67,0
29568,note_on,768,0,3,,,,,,,,2,,,70,0
29592,note_on,312,0,9,,,,,,,,8,,,39,0
29592,note_on,312,0,5,,,,,,,,4,,,70,0
29592,note_on,312,0,2,,,,,,,,1,,,51,0
29592,note_on,312,0,8,,,,,,,,7,,,51,0
29592,note_on,312,0,1,,,,,,,,0,,,70,0
29592,note_on,312,0,7,,,,,,,,6,,,63,0
29592,note_on,312,0,6,,,,,,,,5,,,70,0
29760,note_on,168,0,8,,,,,,,,7,,,48,105
29760,note_on,192,0,4,,,,,,,,3,,,67,105
29760,note_on,168,0,1,,,,,,,,0,,,69,105
29760,note_on,168,0,6,,,,,,,,5,,,69,105
29760,note_on,168,0,5,,,,,,,,4,,,69,105
29760,note_on,168,0,9,,,,,,,,8,,,36,105
29760,note_on,168,0,2,,,,,,,,1,,,48,105
29760,note_on,0,0,4,,,,,,,,3,,,69,105
29760,note_on,168,0,7,,,,,,,,6,,,63,105
30072,note_on,312,0,7,,,,,,,,6,,,63,0
30072,note_on,312,0,2,,,,,,,,1,,,48,0
30072,note_on,312,0,1,,,,,,,,0,,,67,0
30072,note_on,312,0,5,,,,,,,,4,,,69,0
30072,note_on,312,0,6,,,,,,,,5,,,69,0
30072,note_on,312,0,8,,,,,,,,7,,,48,0
30072,note_on,312,0,9,,,,,,,,8,,,36,0
30144,note_on,0,0,4,,,,,,,,3,,,67,0
30144,note_on,384,0,4,,,,,,,,3,,,69,0
30240,note_on,0,0,4,,,,,,,,3,,,69,105
30240,note_on,96,0,4,,,,,,,,3,,,62,105
30240,note_on,168,0,5,,,,,,,,4,,,78,105
30240,note_on,168,0,2,,,,,,,,1,,,50,105
30240,note_on,168,0,9,,,,,,,,8,,,38,105
30240,note_on,168,0,1,,,,,,,,0,,,66,105
30240,note_on,168,0,6,,,,,,,,5,,,78,105
30240,note_on,672,0,3,,,,,,,,2,,,62,105
30240,note_on,168,0,8,,,,,,,,7,,,50,105
30240,note_on,168,0,7,,,,,,,,6,,,62,105
30552,note_on,312,0,9,,,,,,,,8,,,38,0
30552,note_on,312,0,7,,,,,,,,6,,,62,0
30552,note_on,312,0,8,,,,,,,,7,,,50,0
30552,note_on,312,0,6,,,,,,,,5,,,78,0
30552,note_on,0,0,1,,,,,,,,0,,,69,0
30552,note_on,312,0,2,,,,,,,,1,,,50,0
30552,note_on,312,0,5,,,,,,,,4,,,78,0
30552,note_on,312,0,1,,,,,,,,0,,,66,0
30624,note_on,384,0,3,,,,,,,,2,,,62,0
30624,note_on,384,0,4,,,,,,,,3,,,69,0
30624,note_on,0,0,4,,,,,,,,3,,,62,0
30720,note_on,96,0,3,,,,,,,,2,,,62,105
30720,note_on,0,0,3,,,,,,,,2,,,58,105
30720,note_on,168,0,7,,,,,,,,6,,,62,105
30720,note_on,168,0,2,,,,,,,,1,,,43,105
30720,note_on,0,0,4,,,,,,,,3,,,55,105
30720,note_on,168,0,5,,,,,,,,4,,,79,105
30720,note_on,168,0,8,,,,,,,,7,,,43,105
30720,set_tempo,30720,1,0,,,,,,309278,,,,,,
30720,note_on,168,0,1,,,,,,,,0,,,67,105
30720,note_on,168,0,9,,,,,,,,8,,,31,105
30720,note_on,96,0,4,,,,,,,,3,,,67,105
30720,note_on,168,0,6,,,,,,,,5,,,79,105
31032,note_on,312,0,6,,,,,,,,5,,,79,0
31032,note_on,312,0,7,,,,,,,,6,,,62,0
31032,note_on,312,0,5,,,,,,,,4,,,79,0
31200,note_on,168,0,6,,,,,,,,5,,,67,105
31200,note_on,168,0,7,,,,,,,,6,,,58,105
31200,note_on,168,0,5,,,,,,,,4,,,67,105
31488,note_on,768,0,3,,,,,,,,2,,,58,0
31488,note_on,768,0,2,,,,,,,,1,,,43,0
31488,note_on,768,0,9,,,,,,,,8,,,31,0
31488,note_on,768,0,8,,,,,,,,7,,,43,0
31488,note_on,0,0,3,,,,,,,,2,,,62,0
31488,note_on,768,0,1,,,,,,,,0,,,67,0
31488,note_on,0,0,4,,,,,,,,3,,,67,0
31488,note_on,768,0,4,,,,,,,,3,,,55,0
31512,note_on,312,0,5,,,,,,,,4,,,67,0
31512,note_on,312,0,6,,,,,,,,5,,,67,0
31512,note_on,312,0,7,,,,,,,,6,,,58,0
32160,note_on,648,0,5,,,,,,,,4,,,70,80
32400,note_on,240,0,5,,,,,,,,4,,,70,0
32400,note_on,0,0,5,,,,,,,,4,,,67,80
32592,note_on,192,0,5,,,,,,,,4,,,67,0
32640,note_on,48,0,5,,,,,,,,4,,,75,80
32640,set_tempo,1920,1,0,,,,,,300000,,,,,,
32976,note_on,336,0,5,,,,,,,,4,,,75,0
33120,note_on,144,0,5,,,,,,,,4,,,75,80
33456,note_on,336,0,5,,,,,,,,4,,,75,0
33600,note_on,2088,0,7,,,,,,,,6,,,65,58
33600,note_on,144,0,5,,,,,,,,4,,,75,80
33600,note_on,2112,0,8,,,,,,,,7,,,57,58
33600,note_on,2088,0,6,,,,,,,,5,,,72,58
33600,note_on,2112,0,9,,,,,,,,8,,,45,58
33936,note_on,336,0,5,,,,,,,,4,,,75,0
34080,note_on,144,0,5,,,,,,,,4,,,75,80
34368,note_on,768,0,9,,,,,,,,8,,,45,0
34368,note_on,768,0,7,,,,,,,,6,,,65,0
34368,note_on,768,0,6,,,,,,,,5,,,72,0
34368,note_on,768,0,8,,,,,,,,7,,,57,0
34416,note_on,336,0,5,,,,,,,,4,,,75,0
34560,note_on,192,0,8,,,,,,,,7,,,57,58
34560,note_on,144,0,5,,,,,,,,4,,,75,80
34560,note_on,192,0,7,,,,,,,,6,,,65,58
34560,note_on,192,0,9,,,,,,,,8,,,45,58
34560,note_on,192,0,6,,,,,,,,5,,,72,58
35520,note_on,0,0,6,,,,,,,,5,,,70,58
35520,note_on,960,0,8,,,,,,,,7,,,57,0
35520,note_on,0,0,5,,,,,,,,4,,,74,80
35520,note_on,0,0,8,,,,,,,,7,,,58,58
35520,note_on,960,0,5,,,,,,,,4,,,75,0
35520,note_on,960,0,6,,,,,,,,5,,,72,0
35520,note_on,0,0,9,,,,,,,,8,,,46,58
35520,note_on,960,0,9,,,,,,,,8,,,45,0
35856,note_on,336,0,5,,,,,,,,4,,,74,0
35904,note_on,384,0,9,,,,,,,,8,,,46,0
35904,note_on,1344,0,7,,,,,,,,6,,,65,0
35904,note_on,384,0,8,,,,,,,,7,,,58,0
35904,note_on,384,0,6,,,,,,,,5,,,70,0
36000,note_on,144,0,5,,,,,,,,4,,,75,80
36336,note_on,336,0,5,,,,,,,,4,,,75,0
36480,note_on,144,0,5,,,,,,,,4,,,76,80
36960,note_on,0,0,5,,,,,,,,4,,,77,80
36960,note_on,480,0,5,,,,,,,,4,,,76,0
37440,note_on,0,0,5,,,,,,,,4,,,78,80
37440,note_on,480,0,5,,,,,,,,4,,,77,0
37920,note_on,2016,0,6,,,,,,,,5,,,70,58
37920,note_on,2016,0,9,,,,,,,,8,,,39,58
37920,note_on,2016,0,7,,,,,,,,6,,,63,58
37920,note_on,2016,0,8,,,,,,,,7,,,51,58
37920,note_on,480,0,5,,,,,,,,4,,,78,0
37920,note_on,0,0,5,,,,,,,,4,,,79,80
38304,note_on,384,0,6,,,,,,,,5,,,70,0
38304,note_on,384,0,8,,,,,,,,7,,,51,0
38304,note_on,384,0,9,,,,,,,,8,,,39,0
38304,note_on,384,0,5,,,,,,,,4,,,79,0
38304,note_on,384,0,7,,,,,,,,6,,,63,0
38400,note_on,96,0,9,,,,,,,,8,,,41,58
38400,note_on,96,0,5,,,,,,,,4,,,70,80
38400,note_on,96,0,7,,,,,,,,6,,,62,58
38400,note_on,96,0,8,,,,,,,,7,,,53,58
38400,note_on,96,0,6,,,,,,,,5,,,65,58
39360,note_on,0,0,9,,,,,,,,8,,,41,58
39360,note_on,960,0,8,,,,,,,,7,,,53,0
39360,note_on,0,0,8,,,,,,,,7,,,53,58
39360,note_on,960,0,9,,,,,,,,8,,,41,0
39360,note_on,0,0,5,,,,,,,,4,,,69,80
39360,note_on,960,0,5,,,,,,,,4,,,70,0
39360,note_on,960,0,7,,,,,,,,6,,,62,0
39360,note_on,0,0,7,,,,,,,,6,,,60,58
39744,note_on,1344,0,6,,,,,,,,5,,,65,0
39744,note_on,384,0,5,,,,,,,,4,,,69,0
39744,note_on,384,0,7,,,,,,,,6,,,60,0
39744,note_on,384,0,8,,,,,,,,7,,,53,0
39744,note_on,384,0,9,,,,,,,,8,,,41,0
39840,note_on,96,0,5,,,,,,,,4,,,58,80
40080,note_on,240,0,5,,,,,,,,4,,,58,0
40080,note_on,0,0,5,,,,,,,,4,,,55,80
40272,note_on,192,0,5,,,,,,,,4,,,55,0
40320,note_on,48,0,5,,,,,,,,4,,,63,80
40680,note_on,360,0,5,,,,,,,,4,,,63,0
40800,note_on,120,0,5,,,,,,,,4,,,63,80
41160,note_on,360,0,5,,,,,,,,4,,,63,0
41280,note_on,1536,0,7,,,,,,,,6,,,53,58
41280,note_on,1536,0,8,,,,,,,,7,,,45,58
41280,note_on,120,0,5,,,,,,,,4,,,63,80
41280,note_on,1536,0,6,,,,,,,,5,,,60,58
41280,note_on,1536,0,9,,,,,,,,8,,,33,58
41640,note_on,360,0,5,,,,,,,,4,,,63,0
41760,note_on,120,0,5,,,,,,,,4,,,63,80
42048,note_on,768,0,8,,,,,,,,7,,,45,0
42048,note_on,768,0,9,,,,,,,,8,,,33,0
42048,note_on,768,0,6,,,,,,,,5,,,60,0
42048,note_on,768,0,7,,,,,,,,6,,,53,0
42120,note_on,360,0,5,,,,,,,,4,,,63,0
42240,note_on,120,0,5,,,,,,,,4,,,63,80
42240,note_on,192,0,8,,,,,,,,7,,,45,58
42240,note_on,192,0,9,,,,,,,,8,,,33,58
42240,note_on,192,0,6,,,,,,,,5,,,60,58
42240,note_on,192,0,7,,,,,,,,6,,,53,58
43200,note_on,0,0,5,,,,,,,,4,,,62,80
43200,note_on,960,0,5,,,,,,,,4,,,63,0
43200,note_on,0,0,8,,,,,,,,7,,,46,58
43200,note_on,0,0,9,,,,,,,,8,,,34,58
43200,note_on,960,0,6,,,,,,,,5,,,60,0
43200,note_on,960,0,9,,,,,,,,8,,,33,0
43200,note_on,960,0,8,,,,,,,,7,,,45,0
43200,note_on,0,0,6,,,,,,,,5,,,58,58
43584,note_on,1344,0,7,,,,,,,,6,,,53,0
43584,note_on,384,0,9,,,,,,,,8,,,34,0
43584,note_on,384,0,6,,,,,,,,5,,,58,0
43584,note_on,384,0,8,,,,,,,,7,,,46,0
43608,note_on,408,0,5,,,,,,,,4,,,62,0
43680,note_on,96,0,7,,,,,,,,6,,,55,58
43680,note_on,72,0,5,,,,,,,,4,,,63,80
43680,note_on,96,0,8,,,,,,,,7,,,55,58
43680,note_on,96,0,9,,,,,,,,8,,,43,58
43680,note_on,96,0,6,,,,,,,,5,,,58,58
44088,note_on,408,0,5,,,,,,,,4,,,63,0
44160,note_on,72,0,5,,,,,,,,4,,,64,80
44544,note_on,864,0,9,,,,,,,,8,,,43,0
44544,note_on,864,0,8,,,,,,,,7,,,55,0
44544,note_on,864,0,7,,,,,,,,6,,,55,0
44544,note_on,864,0,6,,,,,,,,5,,,58,0
44640,note_on,96,0,6,,,,,,,,5,,,58,58
44640,note_on,0,0,5,,,,,,,,4,,,65,80
44640,note_on,480,0,5,,,,,,,,4,,,64,0
44640,note_on,96,0,7,,,,,,,,6,,,50,58
44640,note_on,96,0,8,,,,,,,,7,,,50,58
44640,note_on,96,0,9,,,,,,,,8,,,38,58
45120,note_on,0,0,5,,,,,,,,4,,,66,80
45120,note_on,480,0,5,,,,,,,,4,,,65,0
45408,note_on,768,0,6,,,,,,,,5,,,58,0
45600,note_on,192,0,6,,,,,,,,5,,,58,58
45600,note_on,0,0,8,,,,,,,,7,,,51,58
45600,note_on,960,0,8,,,,,,,,7,,,50,0
45600,note_on,480,0,5,,,,,,,,4,,,66,0
45600,note_on,0,0,5,,,,,,,,4,,,67,80
45600,note_on,0,0,9,,,,,,,,8,,,39,58
45600,note_on,960,0,9,,,,,,,,8,,,38,0
45600,note_on,960,0,7,,,,,,,,6,,,50,0
45600,note_on,0,0,7,,,,,,,,6,,,51,58
45984,note_on,384,0,5,,,,,,,,4,,,67,0
45984,note_on,384,0,6,,,,,,,,5,,,58,0
45984,note_on,384,0,7,,,,,,,,6,,,51,0
45984,note_on,384,0,8,,,,,,,,7,,,51,0
45984,note_on,384,0,9,,,,,,,,8,,,39,0
46080,note_on,96,0,5,,,,,,,,4,,,58,80
46080,set_tempo,13440,1,0,,,,,,312500,,,,,,
46080,note_on,96,0,9,,,,,,,,8,,,41,58
46080,note_on,96,0,7,,,,,,,,6,,,50,58
46080,note_on,96,0,6,,,,,,,,5,,,58,58
46080,note_on,96,0,8,,,,,,,,7,,,53,58
47040,note_on,960,0,6,,,,,,,,5,,,58,0
47040,note_on,960,0,7,,,,,,,,6,,,50,0
47040,note_on,960,0,5,,,,,,,,4,,,58,0
47040,note_on,0,0,5,,,,,,,,4,,,57,80
47040,note_on,0,0,6,,,,,,,,5,,,57,58
47040,note_on,0,0,7,,,,,,,,6,,,48,58
47280,note_on,240,0,5,,,,,,,,4,,,57,0
47280,note_on,0,0,5,,,,,,,,4,,,58,80
47424,note_on,1344,0,9,,,,,,,,8,,,41,0
47424,note_on,1344,0,8,,,,,,,,7,,,53,0
47424,note_on,384,0,6,,,,,,,,5,,,57,0
47424,note_on,384,0,7,,,,,,,,6,,,48,0
47520,note_on,0,0,5,,,,,,,,4,,,60,80
47520,note_on,240,0,5,,,,,,,,4,,,58,0
47760,note_on,0,0,5,,,,,,,,4,,,62,80
47760,note_on,240,0,5,,,,,,,,4,,,60,0
48000,note_on,240,0,5,,,,,,,,4,,,62,0
48000,set_tempo,1920,1,0,,,,,,310881,,,,,,
48000,note_on,0,0,5,,,,,,,,4,,,63,70
48384,note_on,384,0,5,,,,,,,,4,,,63,0
48960,note_on,576,0,5,,,,,,,,4,,,69,70
49200,note_on,0,0,5,,,,,,,,4,,,70,70
49200,note_on,240,0,5,,,,,,,,4,,,69,0
49440,note_on,0,0,5,,,,,,,,4,,,72,70
49440,note_on,240,0,5,,,,,,,,4,,,70,0
49680,note_on,240,0,5,,,,,,,,4,,,72,0
49680,note_on,0,0,5,,,,,,,,4,,,74,70
49920,note_on,240,0,5,,,,,,,,4,,,74,0
49920,note_on,0,0,5,,,,,,,,4,,,75,58
49920,set_tempo,1920,1,0,,,,,,300000,,,,,,
50304,note_on,384,0,5,,,,,,,,4,,,75,0
50880,note_on,19392,0,2,,,,,,,,1,,,63,105
50880,note_on,19392,0,1,,,,,,,,0,,,75,105
50880,note_on,3456,0,8,,,,,,,,7,,,63,105
50880,note_on,3456,0,6,,,,,,,,5,,,75,105
50880,note_on,576,0,5,,,,,,,,4,,,75,105
50880,note_on,3456,0,7,,,,,,,,6,,,75,105
50880,note_on,3456,0,9,,,,,,,,8,,,51,105
51036,note_on,156,0,7,,,,,,,,6,,,75,0
51036,note_on,156,0,1,,,,,,,,0,,,75,0
51036,note_on,156,0,6,,,,,,,,5,,,75,0
51036,note_on,156,0,5,,,,,,,,4,,,75,0
51036,note_on,156,0,8,,,,,,,,7,,,63,0
51036,note_on,156,0,2,,,,,,,,1,,,63,0
51036,note_on,156,0,9,,,,,,,,8,,,51,0
51120,note_on,84,0,1,,,,,,,,0,,,74,105
51120,note_on,84,0,5,,,,,,,,4,,,74,105
51120,note_on,84,0,8,,,,,,,,7,,,62,105
51120,note_on,84,0,2,,,,,,,,1,,,62,105
51120,note_on,84,0,9,,,,,,,,8,,,50,105
51120,note_on,84,0,6,,,,,,,,5,,,74,105
51120,note_on,84,0,7,,,,,,,,6,,,74,105
51276,note_on,156,0,8,,,,,,,,7,,,62,0
51276,note_on,156,0,1,,,,,,,,0,,,74,0
51276,note_on,156,0,6,,,,,,,,5,,,74,0
51276,note_on,156,0,5,,,,,,,,4,,,74,0
51276,note_on,156,0,9,,,,,,,,8,,,50,0
51276,note_on,156,0,7,,,,,,,,6,,,74,0
51276,note_on,156,0,2,,,,,,,,1,,,62,0
51360,note_on,84,0,1,,,,,,,,0,,,72,105
51360,note_on,84,0,6,,,,,,,,5,,,72,105
51360,note_on,84,0,9,,,,,,,,8,,,48,105
51360,note_on,84,0,8,,,,,,,,7,,,60,105
51360,note_on,84,0,2,,,,,,,,1,,,60,105
51360,note_on,84,0,5,,,,,,,,4,,,72,105
51360,note_on,84,0,7,,,,,,,,6,,,72,105
51516,note_on,156,0,6,,,,,,,,5,,,72,0
51516,note_on,156,0,5,,,,,,,,4,,,72,0
51516,note_on,156,0,7,,,,,,,,6,,,72,0
51516,note_on,156,0,8,,,,,,,,7,,,60,0
51516,note_on,156,0,9,,,,,,,,8,,,48,0
51516,note_on,156,0,2,,,,,,,,1,,,60,0
51516,note_on,156,0,1,,,,,,,,0,,,72,0
51600,note_on,84,0,1,,,,,,,,0,,,70,105
51600,note_on,84,0,7,,,,,,,,6,,,70,105
51600,note_on,84,0,2,,,,,,,,1,,,58,105
51600,note_on,84,0,9,,,,,,,,8,,,46,105
51600,note_on,84,0,8,,,,,,,,7,,,58,105
51600,note_on,84,0,6,,,,,,,,5,,,70,105
51600,note_on,84,0,5,,,,,,,,4,,,70,105
51756,note_on,156,0,1,,,,,,,,0,,,70,0
51756,note_on,156,0,6,,,,,,,,5,,,70,0
51756,note_on,156,0,8,,,,,,,,7,,,58,0
51756,note_on,156,0,7,,,,,,,,6,,,70,0
51756,note_on,156,0,9,,,,,,,,8,,,46,0
51756,note_on,156,0,5,,,,,,,,4,,,70,0
51756,note_on,156,0,2,,,,,,,,1,,,58,0
51840,note_on,84,0,9,,,,,,,,8,,,45,105
51840,note_on,84,0,5,,,,,,,,4,,,69,105
51840,note_on,84,0,1,,,,,,,,0,,,69,105
51840,note_on,84,0,7,,,,,,,,6,,,69,105
51840,note_on,84,0,6,,,,,,,,5,,,69,105
51840,note_on,84,0,8,,,,,,,,7,,,57,105
51840,note_on,84,0,2,,,,,,,,1,,,57,105
52080,note_on,0,0,5,,,,,,,,4,,,70,105
52080,note_on,0,0,2,,,,,,,,1,,,58,105
52080,note_on,240,0,2,,,,,,,,1,,,57,0
52080,note_on,240,0,7,,,,,,,,6,,,69,0
52080,note_on,0,0,7,,,,,,,,6,,,70,105
52080,note_on,240,0,5,,,,,,,,4,,,69,0
52080,note_on,0,0,6,,,,,,,,5,,,70,105
52080,note_on,0,0,8,,,,,,,,7,,,58,105
52080,note_on,240,0,8,,,,,,,,7,,,57,0
52080,note_on,240,0,9,,,,,,,,8,,,45,0
52080,note_on,0,0,9,,,,,,,,8,,,46,105
52080,note_on,240,0,6,,,,,,,,5,,,69,0
52080,note_on,0,0,1,,,,,,,,0,,,70,105
52080,note_on,240,0,1,,,,,,,,0,,,69,0
52236,note_on,156,0,9,,,,,,,,8,,,46,0
52236,note_on,156,0,7,,,,,,,,6,,,70,0
52236,note_on,156,0,6,,,,,,,,5,,,70,0
52236,note_on,156,0,5,,,,,,,,4,,,70,0
52236,note_on,156,0,8,,,,,,,,7,,,58,0
52236,note_on,156,0,1,,,,,,,,0,,,70,0
52236,note_on,156,0,2,,,,,,,,1,,,58,0
52320,note_on,84,0,6,,,,,,,,5,,,69,105
52320,note_on,84,0,5,,,,,,,,4,,,69,105
52320,note_on,84,0,9,,,,,,,,8,,,45,105
52320,note_on,84,0,8,,,,,,,,7,,,57,105
52320,note_on,84,0,7,,,,,,,,6,,,69,105
52320,note_on,84,0,2,,,,,,,,1,,,57,105
52320,note_on,84,0,1,,,,,,,,0,,,69,105
52476,note_on,156,0,7,,,,,,,,6,,,69,0
52476,note_on,156,0,8,,,,,,,,7,,,57,0
52476,note_on,156,0,1,,,,,,,,0,,,69,0
52476,note_on,156,0,5,,,,,,,,4,,,69,0
52476,note_on,156,0,2,,,,,,,,1,,,57,0
52476,note_on,156,0,9,,,,,,,,8,,,45,0
52476,note_on,156,0,6,,,,,,,,5,,,69,0
52560,note_on,84,0,2,,,,,,,,1,,,55,105
52560,note_on,84,0,1,,,,,,,,0,,,67,105
52560,note_on,84,0,9,,,,,,,,8,,,43,105
52560,note_on,84,0,8,,,,,,,,7,,,55,105
52560,note_on,84,0,7,,,,,,,,6,,,67,105
52560,note_on,84,0,5,,,,,,,,4,,,67,105
52560,note_on,84,0,6,,,,,,,,5,,,67,105
52716,note_on,156,0,9,,,,,,,,8,,,43,0
52716,note_on,156,0,8,,,,,,,,7,,,55,0
52716,note_on,156,0,5,,,,,,,,4,,,67,0
52716,note_on,156,0,1,,,,,,,,0,,,67,0
52716,note_on,156,0,6,,,,,,,,5,,,67,0
52716,note_on,156,0,7,,,,,,,,6,,,67,0
52716,note_on,156,0,2,,,,,,,,1,,,55,0
52800,note_on,84,0,5,,,,,,,,4,,,65,105
52800,note_on,84,0,1,,,,,,,,0,,,65,105
52800,note_on,84,0,6,,,,,,,,5,,,65,105
52800,note_on,84,0,9,,,,,,,,8,,,41,105
52800,note_on,84,0,7,,,,,,,,6,,,65,105
52800,note_on,84,0,2,,,,,,,,1,,,53,105
52800,note_on,84,0,8,,,,,,,,7,,,53,105
52956,note_on,156,0,9,,,,,,,,8,,,41,0
52956,note_on,156,0,2,,,,,,,,1,,,53,0
52956,note_on,156,0,6,,,,,,,,5,,,65,0
52956,note_on,156,0,8,,,,,,,,7,,,53,0
52956,note_on,156,0,7,,,,,,,,6,,,65,0
52956,note_on,156,0,5,,,,,,,,4,,,65,0
53040,note_on,84,0,7,,,,,,,,6,,,63,105
53040,note_on,84,0,9,,,,,,,,8,,,39,105
53040,note_on,84,0,2,,,,,,,,1,,,51,105
53040,note_on,84,0,6,,,,,,,,5,,,63,105
53040,note_on,84,0,8,,,,,,,,7,,,51,105
53040,note_on,84,0,5,,,,,,,,4,,,63,105
53184,note_on,384,0,1,,,,,,,,0,,,65,0
53196,note_on,156,0,7,,,,,,,,6,,,63,0
53196,note_on,156,0,9,,,,,,,,8,,,39,0
53196,note_on,156,0,8,,,,,,,,7,,,51,0
53196,note_on,156,0,6,,,,,,,,5,,,63,0
53196,note_on,156,0,2,,,,,,,,1,,,51,0
53196,note_on,156,0,5,,,,,,,,4,,,63,0
53280,note_on,84,0,5,,,,,,,,4,,,62,105
53280,note_on,84,0,9,,,,,,,,8,,,38,105
53280,note_on,84,0,2,,,,,,,,1,,,50,105
53280,note_on,84,0,8,,,,,,,,7,,,50,105
53280,note_on,84,0,6,,,,,,,,5,,,62,105
53280,note_on,84,0,7,,,,,,,,6,,,62,105
53436,note_on,156,0,5,,,,,,,,4,,,62,0
53436,note_on,156,0,9,,,,,,,,8,,,38,0
53436,note_on,156,0,2,,,,,,,,1,,,50,0
53436,note_on,156,0,8,,,,,,,,7,,,50,0
53436,note_on,156,0,6,,,,,,,,5,,,62,0
53436,note_on,156,0,7,,,,,,,,6,,,62,0
53520,note_on,84,0,7,,,,,,,,6,,,60,105
53520,note_on,84,0,8,,,,,,,,7,,,48,105
53520,note_on,84,0,6,,,,,,,,5,,,60,105
53520,note_on,84,0,5,,,,,,,,4,,,60,105
53520,note_on,84,0,2,,,,,,,,1,,,48,105
53520,note_on,84,0,9,,,,,,,,8,,,36,105
53676,note_on,156,0,2,,,,,,,,1,,,48,0
53676,note_on,156,0,9,,,,,,,,8,,,36,0
53676,note_on,156,0,6,,,,,,,,5,,,60,0
53676,note_on,156,0,7,,,,,,,,6,,,60,0
53676,note_on,156,0,8,,,,,,,,7,,,48,0
53676,note_on,156,0,5,,,,,,,,4,,,60,0
53760,note_on,84,0,2,,,,,,,,1,,,46,105
53760,note_on,22272,0,3,,,,,,,,2,,,58,105
53760,note_on,84,0,7,,,,,,,,6,,,58,105
53760,note_on,0,0,3,,,,,,,,2,,,58,105
53760,note_on,84,0,5,,,,,,,,4,,,58,105
53760,note_on,84,0,9,,,,,,,,8,,,34,105
53760,note_on,84,0,8,,,,,,,,7,,,46,105
53760,note_on,84,0,6,,,,,,,,5,,,58,105
54072,note_on,312,0,6,,,,,,,,5,,,58,0
54072,note_on,312,0,5,,,,,,,,4,,,58,0
54144,note_on,384,0,9,,,,,,,,8,,,34,0
54144,note_on,384,0,7,,,,,,,,6,,,58,0
54144,note_on,384,0,2,,,,,,,,1,,,46,0
54144,note_on,384,0,8,,,,,,,,7,,,46,0
54240,note_on,168,0,5,,,,,,,,4,,,70,105
54240,note_on,168,0,6,,,,,,,,5,,,70,105
54528,note_on,0,0,3,,,,,,,,2,,,58,0
54528,note_on,768,0,3,,,,,,,,2,,,58,0
54552,note_on,312,0,6,,,,,,,,5,,,70,0
54552,note_on,312,0,5,,,,,,,,4,,,70,0
54720,note_on,576,0,2,,,,,,,,1,,,58,105
54720,note_on,168,0,5,,,,,,,,4,,,79,116
54720,note_on,168,0,6,,,,,,,,5,,,74,116
54720,note_on,576,0,8,,,,,,,,7,,,58,105
54720,note_on,576,0,9,,,,,,,,8,,,46,105
55296,note_on,576,0,6,,,,,,,,5,,,74,0
55296,note_on,576,0,5,,,,,,,,4,,,79,0
55296,note_on,576,0,8,,,,,,,,7,,,58,0
55296,note_on,576,0,9,,,,,,,,8,,,46,0
55296,note_on,576,0,2,,,,,,,,1,,,58,0
55440,note_on,144,0,9,,,,,,,,8,,,45,105
55440,note_on,144,0,2,,,,,,,,1,,,57,105
55440,note_on,144,0,8,,,,,,,,7,,,57,105
55440,note_on,144,0,5,,,,,,,,4,,,77,116
55440,note_on,144,0,6,,,,,,,,5,,,72,116
55632,note_on,192,0,9,,,,,,,,8,,,45,0
55632,note_on,192,0,5,,,,,,,,4,,,77,0
55632,note_on,192,0,2,,,,,,,,1,,,57,0
55632,note_on,192,0,6,,,,,,,,5,,,72,0
55632,note_on,192,0,8,,,,,,,,7,,,57,0
55680,note_on,1152,0,3,,,,,,,,2,,,70,105
55680,note_on,48,0,9,,,,,,,,8,,,43,105
55680,note_on,0,0,3,,,,,,,,2,,,58,105
55680,note_on,48,0,2,,,,,,,,1,,,55,105
55680,note_on,1536,0,7,,,,,,,,6,,,61,105
55680,note_on,0,0,1,,,,,,,,0,,,70,105
55680,note_on,2496,0,1,,,,,,,,0,,,76,105
55680,note_on,48,0,5,,,,,,,,4,,,76,116
55680,note_on,48,0,6,,,,,,,,5,,,70,116
55680,note_on,48,0,8,,,,,,,,7,,,55,105
55920,note_on,240,0,6,,,,,,,,5,,,70,0
55920,note_on,240,0,9,,,,,,,,8,,,43,0
55920,note_on,240,0,2,,,,,,,,1,,,55,0
55920,note_on,240,0,7,,,,,,,,6,,,61,0
55920,note_on,240,0,1,,,,,,,,0,,,70,0
55920,note_on,240,0,8,,,,,,,,7,,,55,0
55920,note_on,0,0,1,,,,,,,,0,,,76,0
55920,note_on,240,0,5,,,,,,,,4,,,76,0
55968,note_on,288,0,3,,,,,,,,2,,,58,0
55968,note_on,0,0,3,,,,,,,,2,,,70,0
56160,note_on,240,0,8,,,,,,,,7,,,57,105
56160,note_on,240,0,9,,,,,,,,8,,,45,105
56160,note_on,0,0,1,,,,,,,,0,,,72,105
56160,note_on,240,0,1,,,,,,,,0,,,77,105
56160,note_on,240,0,7,,,,,,,,6,,,60,105
56160,note_on,240,0,5,,,,,,,,4,,,77,116
56160,note_on,240,0,2,,,,,,,,1,,,57,105
56160,note_on,192,0,3,,,,,,,,2,,,65,105
56160,note_on,240,0,6,,,,,,,,5,,,72,116
56400,note_on,240,0,6,,,,,,,,5,,,72,0
56400,note_on,240,0,5,,,,,,,,4,,,77,0
56400,note_on,240,0,2,,,,,,,,1,,,57,0
56400,note_on,240,0,7,,,,,,,,6,,,60,0
56400,note_on,240,0,9,,,,,,,,8,,,45,0
56400,note_on,0,0,1,,,,,,,,0,,,77,0
56400,note_on,240,0,1,,,,,,,,0,,,72,0
56400,note_on,240,0,8,,,,,,,,7,,,57,0
56448,note_on,288,0,3,,,,,,,,2,,,65,0
56640,note_on,240,0,2,,,,,,,,1,,,55,105
56640,note_on,240,0,6,,,,,,,,5,,,70,116
56640,note_on,240,0,9,,,,,,,,8,,,43,105
56640,note_on,240,0,8,,,,,,,,7,,,55,105
56640,note_on,240,0,5,,,,,,,,4,,,75,116
57216,note_on,576,0,5,,,,,,,,4,,,75,0
57216,note_on,576,0,2,,,,,,,,1,,,55,0
57216,note_on,576,0,9,,,,,,,,8,,,43,0
57216,note_on,576,0,6,,,,,,,,5,,,70,0
57216,note_on,576,0,8,,,,,,,,7,,,55,0
57360,note_on,144,0,2,,,,,,,,1,,,53,105
57360,note_on,144,0,9,,,,,,,,8,,,41,105
57360,note_on,144,0,6,,,,,,,,5,,,69,116
57360,note_on,144,0,5,,,,,,,,4,,,74,116
57360,note_on,144,0,8,,,,,,,,7,,,53,105
57552,note_on,192,0,5,,,,,,,,4,,,74,0
57552,note_on,192,0,2,,,,,,,,1,,,53,0
57552,note_on,192,0,6,,,,,,,,5,,,69,0
57552,note_on,192,0,9,,,,,,,,8,,,41,0
57552,note_on,192,0,8,,,,,,,,7,,,53,0
57600,note_on,1200,0,1,,,,,,,,0,,,73,105
57600,note_on,48,0,9,,,,,,,,8,,,40,105
57600,note_on,0,0,4,,,,,,,,3,,,55,105
57600,note_on,48,0,6,,,,,,,,5,,,67,116
57600,note_on,1200,0,7,,,,,,,,6,,,58,105
57600,note_on,48,0,2,,,,,,,,1,,,52,105
57600,note_on,48,0,8,,,,,,,,7,,,52,105
57600,note_on,48,0,5,,,,,,,,4,,,73,116
57600,note_on,26112,0,4,,,,,,,,3,,,67,105
57600,note_on,0,0,1,,,,,,,,0,,,67,105
57840,note_on,0,0,1,,,,,,,,0,,,73,0
57840,note_on,240,0,7,,,,,,,,6,,,58,0
57840,note_on,240,0,5,,,,,,,,4,,,73,0
57840,note_on,240,0,9,,,,,,,,8,,,40,0
57840,note_on,240,0,8,,,,,,,,7,,,52,0
57840,note_on,240,0,2,,,,,,,,1,,,52,0
57840,note_on,240,0,1,,,,,,,,0,,,67,0
57840,note_on,240,0,6,,,,,,,,5,,,67,0
57888,note_on,0,0,4,,,,,,,,3,,,67,0
57888,note_on,288,0,4,,,,,,,,3,,,55,0
58080,note_on,0,0,1,,,,,,,,0,,,69,105
58080,note_on,240,0,6,,,,,,,,5,,,69,116
58080,note_on,240,0,1,,,,,,,,0,,,74,105
58080,note_on,240,0,2,,,,,,,,1,,,53,105
58080,note_on,240,0,7,,,,,,,,6,,,57,105
58080,note_on,192,0,4,,,,,,,,3,,,62,105
58080,note_on,240,0,5,,,,,,,,4,,,74,116
58080,note_on,240,0,9,,,,,,,,8,,,41,105
58080,note_on,240,0,8,,,,,,,,7,,,53,105
58320,note_on,240,0,9,,,,,,,,8,,,41,0
58320,note_on,240,0,5,,,,,,,,4,,,74,0
58320,note_on,240,0,6,,,,,,,,5,,,69,0
58320,note_on,240,0,2,,,,,,,,1,,,53,0
58320,note_on,0,0,1,,,,,,,,0,,,74,0
58320,note_on,240,0,1,,,,,,,,0,,,69,0
58320,note_on,240,0,7,,,,,,,,6,,,57,0
58320,note_on,240,0,8,,,,,,,,7,,,53,0
58368,note_on,288,0,4,,,,,,,,3,,,62,0
58560,note_on,240,0,9,,,,,,,,8,,,39,105
58560,note_on,240,0,8,,,,,,,,7,,,51,105
58560,note_on,240,0,6,,,,,,,,5,,,67,116
58560,note_on,240,0,2,,,,,,,,1,,,51,105
58560,note_on,240,0,5,,,,,,,,4,,,72,116
59136,note_on,576,0,5,,,,,,,,4,,,72,0
59136,note_on,576,0,2,,,,,,,,1,,,51,0
59136,note_on,576,0,6,,,,,,,,5,,,67,0
59136,note_on,576,0,9,,,,,,,,8,,,39,0
59136,note_on,576,0,8,,,,,,,,7,,,51,0
59280,note_on,144,0,6,,,,,,,,5,,,65,116
59280,note_on,144,0,9,,,,,,,,8,,,38,105
59280,note_on,144,0,8,,,,,,,,7,,,50,105
59280,note_on,144,0,5,,,,,,,,4,,,70,116
59280,note_on,144,0,2,,,,,,,,1,,,50,105
59472,note_on,192,0,2,,,,,,,,1,,,50,0
59472,note_on,192,0,6,,,,,,,,5,,,65,0
59472,note_on,192,0,9,,,,,,,,8,,,38,0
59472,note_on,192,0,8,,,,,,,,7,,,50,0
59472,note_on,192,0,5,,,,,,,,4,,,70,0
59520,note_on,48,0,9,,,,,,,,8,,,36,105
59520,note_on,48,0,8,,,,,,,,7,,,48,105
59520,note_on,1200,0,7,,,,,,,,6,,,54,105
59520,note_on,48,0,5,,,,,,,,4,,,69,116
59520,note_on,48,0,2,,,,,,,,1,,,48,105
59520,note_on,0,0,3,,,,,,,,2,,,65,105
59520,note_on,48,0,6,,,,,,,,5,,,63,116
59520,note_on,0,0,1,,,,,,,,0,,,63,105
59520,note_on,1200,0,1,,,,,,,,0,,,69,105
59520,note_on,3072,0,3,,,,,,,,2,,,72,105
59760,note_on,240,0,5,,,,,,,,4,,,69,0
59760,note_on,240,0,2,,,,,,,,1,,,48,0
59760,note_on,240,0,7,,,,,,,,6,,,54,0
59760,note_on,240,0,8,,,,,,,,7,,,48,0
59760,note_on,0,0,1,,,,,,,,0,,,69,0
59760,note_on,240,0,1,,,,,,,,0,,,63,0
59760,note_on,240,0,9,,,,,,,,8,,,36,0
59760,note_on,240,0,6,,,,,,,,5,,,63,0
59808,note_on,288,0,3,,,,,,,,2,,,65,0
59808,note_on,0,0,3,,,,,,,,2,,,72,0
60000,note_on,240,0,7,,,,,,,,6,,,53,105
60000,note_on,240,0,9,,,,,,,,8,,,38,105
60000,note_on,240,0,8,,,,,,,,7,,,50,105
60000,note_on,240,0,6,,,,,,,,5,,,65,116
60000,note_on,192,0,3,,,,,,,,2,,,65,105
60000,note_on,0,0,3,,,,,,,,2,,,70,105
60000,note_on,240,0,5,,,,,,,,4,,,70,116
60000,note_on,240,0,1,,,,,,,,0,,,65,105
60000,note_on,0,0,1,,,,,,,,0,,,70,105
60000,note_on,240,0,2,,,,,,,,1,,,50,105
60240,note_on,240,0,9,,,,,,,,8,,,38,0
60240,note_on,240,0,5,,,,,,,,4,,,70,0
60240,note_on,240,0,6,,,,,,,,5,,,65,0
60240,note_on,240,0,1,,,,,,,,0,,,70,0
60240,note_on,240,0,8,,,,,,,,7,,,50,0
60240,note_on,240,0,7,,,,,,,,6,,,53,0
60240,note_on,0,0,1,,,,,,,,0,,,65,0
60240,note_on,240,0,2,,,,,,,,1,,,50,0
60288,note_on,0,0,3,,,,,,,,2,,,65,0
60288,note_on,288,0,3,,,,,,,,2,,,70,0
60480,note_on,240,0,5,,,,,,,,4,,,75,116
60480,note_on,240,0,1,,,,,,,,0,,,75,105
60480,note_on,240,0,2,,,,,,,,1,,,60,105
60480,note_on,192,0,3,,,,,,,,2,,,72,105
60480,note_on,0,0,3,,,,,,,,2,,,75,105
60480,note_on,240,0,7,,,,,,,,6,,,72,105
60480,note_on,240,0,8,,,,,,,,7,,,60,105
60480,note_on,240,0,6,,,,,,,,5,,,63,116
60480,note_on,240,0,9,,,,,,,,8,,,48,105
60720,note_on,240,0,8,,,,,,,,7,,,60,0
60720,note_on,240,0,7,,,,,,,,6,,,72,0
60720,note_on,0,0,7,,,,,,,,6,,,74,105
60720,note_on,0,0,1,,,,,,,,0,,,77,105
60720,note_on,240,0,1,,,,,,,,0,,,75,0
60720,note_on,0,0,9,,,,,,,,8,,,50,105
60720,note_on,240,0,9,,,,,,,,8,,,48,0
60720,note_on,0,0,8,,,,,,,,7,,,62,105
60720,note_on,240,0,2,,,,,,,,1,,,60,0
60720,note_on,0,0,2,,,,,,,,1,,,62,105
60960,note_on,240,0,9,,,,,,,,8,,,50,0
60960,note_on,0,0,1,,,,,,,,0,,,79,105
60960,note_on,240,0,1,,,,,,,,0,,,77,0
60960,note_on,240,0,8,,,,,,,,7,,,62,0
60960,note_on,0,0,9,,,,,,,,8,,,51,105
60960,note_on,0,0,7,,,,,,,,6,,,75,105
60960,note_on,240,0,7,,,,,,,,6,,,74,0
60960,note_on,0,0,8,,,,,,,,7,,,63,105
60960,note_on,240,0,2,,,,,,,,1,,,62,0
60960,note_on,0,0,2,,,,,,,,1,,,63,105
61056,note_on,576,0,6,,,,,,,,5,,,63,0
61056,note_on,576,0,5,,,,,,,,4,,,75,0
61152,note_on,192,0,7,,,,,,,,6,,,75,0
61152,note_on,192,0,8,,,,,,,,7,,,63,0
61152,note_on,192,0,9,,,,,,,,8,,,51,0
61152,note_on,192,0,2,,,,,,,,1,,,63,0
61152,note_on,192,0,1,,,,,,,,0,,,79,0
61200,note_on,48,0,8,,,,,,,,7,,,62,105
61200,note_on,144,0,5,,,,,,,,4,,,75,116
61200,note_on,48,0,2,,,,,,,,1,,,62,105
61200,note_on,48,0,1,,,,,,,,0,,,77,105
61200,note_on,48,0,9,,,,,,,,8,,,50,105
61200,note_on,48,0,7,,,,,,,,6,,,74,105
61200,note_on,144,0,6,,,,,,,,5,,,63,116
61344,note_on,144,0,8,,,,,,,,7,,,62,0
61344,note_on,144,0,1,,,,,,,,0,,,77,0
61344,note_on,144,0,9,,,,,,,,8,,,50,0
61344,note_on,144,0,7,,,,,,,,6,,,74,0
61344,note_on,144,0,2,,,,,,,,1,,,62,0
61392,note_on,192,0,6,,,,,,,,5,,,63,0
61392,note_on,192,0,5,,,,,,,,4,,,75,0
61440,note_on,48,0,5,,,,,,,,4,,,81,116
61440,note_on,96,0,7,,,,,,,,6,,,72,105
61440,note_on,96,0,1,,,,,,,,0,,,75,105
61440,note_on,96,0,9,,,,,,,,8,,,48,105
61440,note_on,48,0,6,,,,,,,,5,,,69,116
61440,note_on,96,0,8,,,,,,,,7,,,60,105
61440,note_on,96,0,2,,,,,,,,1,,,60,105
61584,note_on,144,0,2,,,,,,,,1,,,60,0
61584,note_on,144,0,1,,,,,,,,0,,,75,0
61584,note_on,144,0,9,,,,,,,,8,,,48,0
61584,note_on,144,0,8,,,,,,,,7,,,60,0
61584,note_on,144,0,7,,,,,,,,6,,,72,0
61680,note_on,96,0,2,,,,,,,,1,,,58,105
61680,note_on,96,0,9,,,,,,,,8,,,46,105
61680,note_on,96,0,8,,,,,,,,7,,,58,105
61680,note_on,96,0,1,,,,,,,,0,,,74,105
61680,note_on,96,0,7,,,,,,,,6,,,70,105
61824,note_on,144,0,9,,,,,,,,8,,,46,0
61824,note_on,144,0,2,,,,,,,,1,,,58,0
61824,note_on,144,0,8,,,,,,,,7,,,58,0
61824,note_on,144,0,7,,,,,,,,6,,,70,0
61824,note_on,144,0,1,,,,,,,,0,,,74,0
61920,note_on,96,0,7,,,,,,,,6,,,69,105
61920,note_on,96,0,8,,,,,,,,7,,,57,105
61920,note_on,96,0,9,,,,,,,,8,,,45,105
61920,note_on,96,0,1,,,,,,,,0,,,72,105
61920,note_on,96,0,2,,,,,,,,1,,,57,105
62016,note_on,576,0,6,,,,,,,,5,,,69,0
62016,note_on,576,0,5,,,,,,,,4,,,81,0
62064,note_on,144,0,7,,,,,,,,6,,,69,0
62064,note_on,144,0,2,,,,,,,,1,,,57,0
62064,note_on,144,0,9,,,,,,,,8,,,45,0
62064,note_on,144,0,1,,,,,,,,0,,,72,0
62064,note_on,144,0,8,,,,,,,,7,,,57,0
62160,note_on,144,0,6,,,,,,,,5,,,69,116
62160,note_on,96,0,8,,,,,,,,7,,,55,105
62160,note_on,144,0,5,,,,,,,,4,,,81,116
62160,note_on,96,0,9,,,,,,,,8,,,43,105
62160,note_on,96,0,7,,,,,,,,6,,,67,105
62160,note_on,96,0,2,,,,,,,,1,,,55,105
62160,note_on,96,0,1,,,,,,,,0,,,70,105
62208,note_on,0,0,3,,,,,,,,2,,,72,0
62208,note_on,1728,0,3,,,,,,,,2,,,75,0
62304,note_on,144,0,2,,,,,,,,1,,,55,0
62304,note_on,144,0,7,,,,,,,,6,,,67,0
62304,note_on,144,0,8,,,,,,,,7,,,55,0
62304,note_on,144,0,9,,,,,,,,8,,,43,0
62304,note_on,144,0,1,,,,,,,,0,,,70,0
62352,note_on,192,0,5,,,,,,,,4,,,81,0
62352,note_on,192,0,6,,,,,,,,5,,,69,0
62400,note_on,48,0,6,,,,,,,,5,,,75,116
62400,note_on,48,0,5,,,,,,,,4,,,87,116
62400,note_on,96,0,9,,,,,,,,8,,,41,105
62400,note_on,96,0,2,,,,,,,,1,,,53,105
62400,note_on,96,0,1,,,,,,,,0,,,69,105
62400,note_on,96,0,8,,,,,,,,7,,,53,105
62400,note_on,192,0,3,,,,,,,,2,,,65,105
62400,note_on,0,0,3,,,,,,,,2,,,72,105
62400,note_on,96,0,7,,,,,,,,6,,,65,105
62640,note_on,0,0,8,,,,,,,,7,,,55,105
62640,note_on,0,0,2,,,,,,,,1,,,55,105
62640,note_on,240,0,2,,,,,,,,1,,,53,0
62640,note_on,240,0,1,,,,,,,,0,,,69,0
62640,note_on,0,0,1,,,,,,,,0,,,70,105
62640,note_on,0,0,7,,,,,,,,6,,,67,105
62640,note_on,240,0,8,,,,,,,,7,,,53,0
62640,note_on,240,0,9,,,,,,,,8,,,41,0
62640,note_on,240,0,7,,,,,,,,6,,,65,0
62640,note_on,0,0,9,,,,,,,,8,,,43,105
62880,note_on,0,0,7,,,,,,,,6,,,69,105
62880,note_on,0,0,2,,,,,,,,1,,,57,105
62880,note_on,240,0,2,,,,,,,,1,,,55,0
62880,note_on,240,0,8,,,,,,,,7,,,55,0
62880,note_on,0,0,8,,,,,,,,7,,,57,105
62880,note_on,240,0,7,,,,,,,,6,,,67,0
62880,note_on,0,0,9,,,,,,,,8,,,45,105
62880,note_on,240,0,1,,,,,,,,0,,,70,0
62880,note_on,0,0,1,,,,,,,,0,,,72,105
62880,note_on,240,0,9,,,,,,,,8,,,43,0
62976,note_on,576,0,6,,,,,,,,5,,,75,0
62976,note_on,576,0,5,,,,,,,,4,,,87,0
63120,note_on,240,0,7,,,,,,,,6,,,69,0
63120,note_on,0,0,7,,,,,,,,6,,,65,105
63120,note_on,240,0,9,,,,,,,,8,,,45,0
63120,note_on,0,0,9,,,,,,,,8,,,41,105
63120,note_on,240,0,1,,,,,,,,0,,,72,0
63120,note_on,144,0,6,,,,,,,,5,,,75,116
63120,note_on,240,0,8,,,,,,,,7,,,57,0
63120,note_on,0,0,8,,,,,,,,7,,,53,105
63120,note_on,144,0,5,,,,,,,,4,,,87,116
63120,note_on,0,0,2,,,,,,,,1,,,53,105
63120,note_on,240,0,2,,,,,,,,1,,,57,0
63120,note_on,0,0,1,,,,,,,,0,,,69,105
63168,note_on,768,0,3,,,,,,,,2,,,72,0
63168,note_on,0,0,3,,,,,,,,2,,,65,0
63312,note_on,192,0,9,,,,,,,,8,,,41,0
63312,note_on,192,0,5,,,,,,,,4,,,87,0
63312,note_on,192,0,6,,,,,,,,5,,,75,0
63312,note_on,192,0,8,,,,,,,,7,,,53,0
63312,note_on,192,0,2,,,,,,,,1,,,53,0
63312,note_on,192,0,7,,,,,,,,6,,,65,0
63312,note_on,192,0,1,,,,,,,,0,,,69,0
63360,note_on,48,0,7,,,,,,,,6,,,70,105
63360,note_on,48,0,1,,,,,,,,0,,,70,105
63360,note_on,0,0,3,,,,,,,,2,,,58,105
63360,note_on,48,0,9,,,,,,,,8,,,46,105
63360,note_on,48,0,5,,,,,,,,4,,,86,105
63360,note_on,48,0,8,,,,,,,,7,,,58,105
63360,note_on,48,0,6,,,,,,,,5,,,74,116
63360,note_on,192,0,3,,,,,,,,2,,,70,105
63360,note_on,48,0,2,,,,,,,,1,,,58,105
63552,note_on,192,0,9,,,,,,,,8,,,46,0
63552,note_on,192,0,5,,,,,,,,4,,,86,0
63552,note_on,192,0,8,,,,,,,,7,,,58,0
63552,note_on,192,0,2,,,,,,,,1,,,58,0
63552,note_on,192,0,6,,,,,,,,5,,,74,0
63552,note_on,192,0,7,,,,,,,,6,,,70,0
63600,note_on,48,0,8,,,,,,,,7,,,57,105
63600,note_on,48,0,7,,,,,,,,6,,,69,105
63600,note_on,48,0,6,,,,,,,,5,,,72,105
63600,note_on,48,0,2,,,,,,,,1,,,57,105
63600,note_on,48,0,9,,,,,,,,8,,,45,105
63600,note_on,48,0,5,,,,,,,,4,,,84,105
63744,note_on,384,0,1,,,,,,,,0,,,70,0
63792,note_on,192,0,6,,,,,,,,5,,,72,0
63792,note_on,192,0,8,,,,,,,,7,,,57,0
63792,note_on,192,0,5,,,,,,,,4,,,84,0
63792,note_on,192,0,2,,,,,,,,1,,,57,0
63792,note_on,192,0,7,,,,,,,,6,,,69,0
63792,note_on,192,0,9,,,,,,,,8,,,45,0
63840,note_on,48,0,6,,,,,,,,5,,,70,105
63840,note_on,48,0,5,,,,,,,,4,,,82,105
63840,note_on,48,0,9,,,,,,,,8,,,43,105
63840,note_on,48,0,2,,,,,,,,1,,,55,105
63840,note_on,48,0,8,,,,,,,,7,,,55,105
63840,note_on,48,0,7,,,,,,,,6,,,67,105
64032,note_on,192,0,5,,,,,,,,4,,,82,0
64032,note_on,192,0,9,,,,,,,,8,,,43,0
64032,note_on,192,0,2,,,,,,,,1,,,55,0
64032,note_on,192,0,6,,,,,,,,5,,,70,0
64032,note_on,192,0,7,,,,,,,,6,,,67,0
64032,note_on,192,0,8,,,,,,,,7,,,55,0
64080,note_on,48,0,7,,,,,,,,6,,,65,105
64080,note_on,48,0,2,,,,,,,,1,,,53,105
64080,note_on,48,0,6,,,,,,,,5,,,69,105
64080,note_on,48,0,9,,,,,,,,8,,,41,105
64080,note_on,48,0,8,,,,,,,,7,,,53,105
64080,note_on,48,0,5,,,,,,,,4,,,81,105
64272,note_on,192,0,8,,,,,,,,7,,,53,0
64272,note_on,192,0,6,,,,,,,,5,,,69,0
64272,note_on,192,0,7,,,,,,,,6,,,65,0
64272,note_on,192,0,5,,,,,,,,4,,,81,0
64272,note_on,192,0,9,,,,,,,,8,,,41,0
64272,note_on,192,0,2,,,,,,,,1,,,53,0
64320,note_on,48,0,8,,,,,,,,7,,,51,105
64320,note_on,48,0,5,,,,,,,,4,,,79,105
64320,note_on,48,0,9,,,,,,,,8,,,39,105
64320,note_on,48,0,6,,,,,,,,5,,,67,105
64320,note_on,48,0,7,,,,,,,,6,,,63,105
64320,note_on,48,0,2,,,,,,,,1,,,51,105
64512,note_on,192,0,5,,,,,,,,4,,,79,0
64512,note_on,192,0,6,,,,,,,,5,,,67,0
64512,note_on,192,0,9,,,,,,,,8,,,39,0
64512,note_on,192,0,7,,,,,,,,6,,,63,0
64512,note_on,192,0,8,,,,,,,,7,,,51,0
64512,note_on,192,0,2,,,,,,,,1,,,51,0
64560,note_on,48,0,2,,,,,,,,1,,,50,105
64560,note_on,48,0,6,,,,,,,,5,,,65,105
64560,note_on,48,0,5,,,,,,,,4,,,77,105
64560,note_on,48,0,9,,,,,,,,8,,,38,105
64560,note_on,48,0,8,,,,,,,,7,,,50,105
64560,note_on,48,0,7,,,,,,,,6,,,62,105
64752,note_on,192,0,5,,,,,,,,4,,,77,0
64752,note_on,192,0,6,,,,,,,,5,,,65,0
64752,note_on,192,0,8,,,,,,,,7,,,50,0
64752,note_on,192,0,7,,,,,,,,6,,,62,0
64752,note_on,192,0,9,,,,,,,,8,,,38,0
64752,note_on,192,0,2,,,,,,,,1,,,50,0
64800,note_on,48,0,2,,,,,,,,1,,,48,105
64800,note_on,48,0,9,,,,,,,,8,,,36,105
64800,note_on,48,0,7,,,,,,,,6,,,60,105
64800,note_on,48,0,8,,,,,,,,7,,,48,105
64800,note_on,48,0,5,,,,,,,,4,,,75,105
64800,note_on,48,0,6,,,,,,,,5,,,63,105
64992,note_on,192,0,8,,,,,,,,7,,,48,0
64992,note_on,192,0,5,,,,,,,,4,,,75,0
64992,note_on,192,0,9,,,,,,,,8,,,36,0
64992,note_on,192,0,6,,,,,,,,5,,,63,0
64992,note_on,192,0,2,,,,,,,,1,,,48,0
64992,note_on,192,0,7,,,,,,,,6,,,60,0
65040,note_on,48,0,6,,,,,,,,5,,,62,105
65040,note_on,48,0,5,,,,,,,,4,,,74,105
65040,note_on,48,0,8,,,,,,,,7,,,46,105
65040,note_on,48,0,9,,,,,,,,8,,,34,105
65040,note_on,48,0,2,,,,,,,,1,,,46,105
65040,note_on,48,0,7,,,,,,,,6,,,58,105
65232,note_on,192,0,9,,,,,,,,8,,,34,0
65232,note_on,192,0,5,,,,,,,,4,,,74,0
65232,note_on,192,0,6,,,,,,,,5,,,62,0
65232,note_on,192,0,8,,,,,,,,7,,,46,0
65232,note_on,192,0,7,,,,,,,,6,,,58,0
65232,note_on,192,0,2,,,,,,,,1,,,46,0
65280,note_on,48,0,8,,,,,,,,7,,,51,105
65280,note_on,48,0,9,,,,,,,,8,,,39,105
65280,note_on,48,0,5,,,,,,,,4,,,72,105
65280,note_on,48,0,2,,,,,,,,1,,,51,105
65280,note_on,48,0,7,,,,,,,,6,,,63,105
65280,note_on,48,0,6,,,,,,,,5,,,60,105
65592,note_on,312,0,5,,,,,,,,4,,,72,0
65592,note_on,312,0,9,,,,,,,,8,,,39,0
65592,note_on,312,0,8,,,,,,,,7,,,51,0
65592,note_on,312,0,7,,,,,,,,6,,,63,0
65592,note_on,312,0,2,,,,,,,,1,,,51,0
65592,note_on,312,0,6,,,,,,,,5,,,60,0
65760,note_on,0,0,1,,,,,,,,0,,,75,105
65760,note_on,168,0,2,,,,,,,,1,,,51,105
65760,note_on,168,0,8,,,,,,,,7,,,51,105
65760,note_on,2016,0,1,,,,,,,,0,,,79,105
65760,note_on,168,0,9,,,,,,,,8,,,39,105
65760,note_on,168,0,6,,,,,,,,5,,,75,105
65760,note_on,168,0,7,,,,,,,,6,,,63,105
65760,note_on,168,0,5,,,,,,,,4,,,79,105
66048,note_on,2688,0,3,,,,,,,,2,,,58,0
66072,note_on,312,0,5,,,,,,,,4,,,79,0
66072,note_on,312,0,2,,,,,,,,1,,,51,0
66072,note_on,312,0,7,,,,,,,,6,,,63,0
66072,note_on,312,0,9,,,,,,,,8,,,39,0
66072,note_on,312,0,8,,,,,,,,7,,,51,0
66072,note_on,0,0,1,,,,,,,,0,,,79,0
66072,note_on,312,0,6,,,,,,,,5,,,75,0
66072,note_on,312,0,1,,,,,,,,0,,,75,0
66240,note_on,168,0,5,,,,,,,,4,,,77,105
66240,note_on,168,0,1,,,,,,,,0,,,74,105
66240,note_on,168,0,8,,,,,,,,7,,,53,105
66240,note_on,192,0,3,,,,,,,,2,,,62,105
66240,note_on,168,0,2,,,,,,,,1,,,53,105
66240,note_on,0,0,1,,,,,,,,0,,,77,105
66240,note_on,168,0,6,,,,,,,,5,,,74,105
66240,note_on,168,0,7,,,,,,,,6,,,65,105
66240,note_on,168,0,9,,,,,,,,8,,,41,105
66552,note_on,312,0,6,,,,,,,,5,,,74,0
66552,note_on,312,0,7,,,,,,,,6,,,65,0
66552,note_on,312,0,9,,,,,,,,8,,,41,0
66552,note_on,312,0,5,,,,,,,,4,,,77,0
66552,note_on,312,0,1,,,,,,,,0,,,77,0
66552,note_on,312,0,2,,,,,,,,1,,,53,0
66552,note_on,312,0,8,,,,,,,,7,,,53,0
66552,note_on,0,0,1,,,,,,,,0,,,74,0
66624,note_on,384,0,3,,,,,,,,2,,,62,0
66624,note_on,0,0,3,,,,,,,,2,,,70,0
66720,note_on,168,0,7,,,,,,,,6,,,53,105
66720,note_on,168,0,6,,,,,,,,5,,,72,105
66720,note_on,168,0,2,,,,,,,,1,,,41,105
66720,note_on,0,0,3,,,,,,,,2,,,72,105
66720,note_on,168,0,1,,,,,,,,0,,,72,105
66720,note_on,168,0,5,,,,,,,,4,,,81,105
66720,note_on,96,0,3,,,,,,,,2,,,65,105
66720,note_on,168,0,8,,,,,,,,7,,,41,105
66720,note_on,168,0,9,,,,,,,,8,,,29,105
66720,note_on,0,0,1,,,,,,,,0,,,75,105
67032,note_on,312,0,5,,,,,,,,4,,,81,0
67032,note_on,312,0,2,,,,,,,,1,,,41,0
67032,note_on,312,0,8,,,,,,,,7,,,41,0
67032,note_on,0,0,1,,,,,,,,0,,,72,0
67032,note_on,312,0,1,,,,,,,,0,,,75,0
67032,note_on,312,0,6,,,,,,,,5,,,72,0
67032,note_on,312,0,9,,,,,,,,8,,,29,0
67032,note_on,312,0,7,,,,,,,,6,,,53,0
67104,note_on,384,0,3,,,,,,,,2,,,72,0
67104,note_on,0,0,3,,,,,,,,2,,,65,0
67200,note_on,168,0,7,,,,,,,,6,,,58,105
67200,note_on,168,0,8,,,,,,,,7,,,46,105
67200,note_on,168,0,5,,,,,,,,4,,,82,105
67200,note_on,168,0,6,,,,,,,,5,,,70,105
67200,note_on,96,0,3,,,,,,,,2,,,70,105
67200,note_on,168,0,9,,,,,,,,8,,,34,105
67200,note_on,168,0,2,,,,,,,,1,,,46,105
67200,note_on,168,0,1,,,,,,,,0,,,74,105
67200,note_on,0,0,1,,,,,,,,0,,,70,105
67512,note_on,312,0,5,,,,,,,,4,,,82,0
67512,note_on,312,0,9,,,,,,,,8,,,34,0
67512,note_on,0,0,1,,,,,,,,0,,,74,0
67512,note_on,312,0,7,,,,,,,,6,,,58,0
67512,note_on,312,0,2,,,,,,,,1,,,46,0
67512,note_on,312,0,6,,,,,,,,5,,,70,0
67512,note_on,312,0,8,,,,,,,,7,,,46,0
67512,note_on,312,0,1,,,,,,,,0,,,70,0
67512,note_on,312,0,3,,,,,,,,2,,,70,0
67680,note_on,168,0,8,,,,,,,,7,,,53,105
67680,note_on,168,0,7,,,,,,,,6,,,65,105
67680,note_on,168,0,9,,,,,,,,8,,,41,105
67680,note_on,168,0,1,,,,,,,,0,,,77,105
67680,note_on,168,0,3,,,,,,,,2,,,65,105
67680,note_on,168,0,2,,,,,,,,1,,,53,105
67680,note_on,168,0,5,,,,,,,,4,,,65,105
67680,note_on,168,0,6,,,,,,,,5,,,65,105
67992,note_on,312,0,5,,,,,,,,4,,,65,0
67992,note_on,312,0,3,,,,,,,,2,,,65,0
67992,note_on,312,0,2,,,,,,,,1,,,53,0
67992,note_on,312,0,9,,,,,,,,8,,,41,0
67992,note_on,312,0,8,,,,,,,,7,,,53,0
67992,note_on,312,0,7,,,,,,,,6,,,65,0
67992,note_on,312,0,6,,,,,,,,5,,,65,0
67992,note_on,312,0,1,,,,,,,,0,,,77,0
68160,note_on,168,0,3,,,,,,,,2,,,74,105
68160,note_on,168,0,8,,,,,,,,7,,,62,105
68160,note_on,168,0,9,,,,,,,,8,,,50,105
68160,note_on,168,0,6,,,,,,,,5,,,74,105
68160,note_on,168,0,5,,,,,,,,4,,,74,105
68160,note_on,168,0,7,,,,,,,,6,,,74,105
68160,note_on,168,0,1,,,,,,,,0,,,86,105
68160,note_on,168,0,2,,,,,,,,1,,,62,105
68736,note_on,576,0,3,,,,,,,,2,,,74,0
68736,note_on,576,0,1,,,,,,,,0,,,86,0
68736,note_on,576,0,9,,,,,,,,8,,,50,0
68736,note_on,576,0,5,,,,,,,,4,,,74,0
68736,note_on,576,0,8,,,,,,,,7,,,62,0
68736,note_on,576,0,6,,,,,,,,5,,,74,0
68736,note_on,576,0,7,,,,,,,,6,,,74,0
68736,note_on,576,0,2,,,,,,,,1,,,62,0
68880,note_on,144,0,2,,,,,,,,1,,,60,105
68880,note_on,144,0,8,,,,,,,,7,,,60,105
68880,note_on,144,0,5,,,,,,,,4,,,72,105
68880,note_on,144,0,6,,,,,,,,5,,,72,105
68880,note_on,144,0,9,,,,,,,,8,,,48,105
68880,note_on,144,0,3,,,,,,,,2,,,72,105
68880,note_on,144,0,1,,,,,,,,0,,,84,105
68880,note_on,144,0,7,,,,,,,,6,,,72,105
69036,note_on,156,0,3,,,,,,,,2,,,72,0
69036,note_on,156,0,1,,,,,,,,0,,,84,0
69072,note_on,192,0,2,,,,,,,,1,,,60,0
69072,note_on,192,0,5,,,,,,,,4,,,72,0
69072,note_on,192,0,7,,,,,,,,6,,,72,0
69072,note_on,192,0,9,,,,,,,,8,,,48,0
69072,note_on,192,0,8,,,,,,,,7,,,60,0
69072,note_on,192,0,6,,,,,,,,5,,,72,0
69120,note_on,48,0,9,,,,,,,,8,,,46,105
69120,note_on,48,0,2,,,,,,,,1,,,58,105
69120,note_on,48,0,8,,,,,,,,7,,,58,105
69120,note_on,48,0,5,,,,,,,,4,,,70,105
69120,note_on,48,0,6,,,,,,,,5,,,70,105
69120,note_on,84,0,3,,,,,,,,2,,,70,105
69120,note_on,48,0,7,,,,,,,,6,,,70,105
69120,note_on,84,0,1,,,,,,,,0,,,82,105
69408,note_on,288,0,8,,,,,,,,7,,,58,0
69408,note_on,288,0,7,,,,,,,,6,,,70,0
69408,note_on,288,0,5,,,,,,,,4,,,70,0
69408,note_on,288,0,2,,,,,,,,1,,,58,0
69408,note_on,288,0,3,,,,,,,,2,,,70,0
69408,note_on,288,0,6,,,,,,,,5,,,70,0
69408,note_on,288,0,1,,,,,,,,0,,,82,0
69408,note_on,288,0,9,,,,,,,,8,,,46,0
69600,note_on,192,0,3,,,,,,,,2,,,77,105
69600,note_on,192,0,8,,,,,,,,7,,,53,105
69600,note_on,192,0,7,,,,,,,,6,,,65,105
69600,note_on,192,0,6,,,,,,,,5,,,65,105
69600,note_on,192,0,9,,,,,,,,8,,,41,105
69600,note_on,192,0,5,,,,,,,,4,,,65,105
69600,note_on,192,0,2,,,,,,,,1,,,53,105
69600,note_on,0,0,3,,,,,,,,2,,,65,105
69600,note_on,192,0,1,,,,,,,,0,,,77,105
69888,note_on,288,0,5,,,,,,,,4,,,65,0
69888,note_on,288,0,2,,,,,,,,1,,,53,0
69888,note_on,288,0,7,,,,,,,,6,,,65,0
69888,note_on,288,0,8,,,,,,,,7,,,53,0
69888,note_on,288,0,1,,,,,,,,0,,,77,0
69888,note_on,288,0,3,,,,,,,,2,,,65,0
69888,note_on,0,0,3,,,,,,,,2,,,77,0
69888,note_on,288,0,6,,,,,,,,5,,,65,0
69888,note_on,288,0,9,,,,,,,,8,,,41,0
70080,note_on,192,0,9,,,,,,,,8,,,38,105
70080,note_on,192,0,3,,,,,,,,2,,,74,105
70080,note_on,192,0,8,,,,,,,,7,,,50,105
70080,note_on,192,0,2,,,,,,,,1,,,50,105
70080,note_on,192,0,5,,,,,,,,4,,,62,105
70080,note_on,0,0,3,,,,,,,,2,,,62,105
70080,note_on,192,0,7,,,,,,,,6,,,62,105
70080,note_on,192,0,6,,,,,,,,5,,,62,105
70080,note_on,192,0,1,,,,,,,,0,,,74,105
70368,note_on,288,0,2,,,,,,,,1,,,50,0
70368,note_on,288,0,5,,,,,,,,4,,,62,0
70368,note_on,288,0,3,,,,,,,,2,,,62,0
70368,note_on,0,0,3,,,,,,,,2,,,74,0
70368,note_on,288,0,1,,,,,,,,0,,,74,0
70368,note_on,288,0,9,,,,,,,,8,,,38,0
70368,note_on,288,0,7,,,,,,,,6,,,62,0
70368,note_on,288,0,6,,,,,,,,5,,,62,0
70368,note_on,288,0,8,,,,,,,,7,,,50,0
70560,note_on,192,0,3,,,,,,,,2,,,70,105
70560,note_on,192,0,7,,,,,,,,6,,,58,105
70560,note_on,192,0,9,,,,,,,,8,,,34,105
70560,note_on,192,0,2,,,,,,,,1,,,46,105
70560,note_on,192,0,8,,,,,,,,7,,,46,105
70560,note_on,192,0,5,,,,,,,,4,,,58,105
70560,note_on,192,0,6,,,,,,,,5,,,58,105
70560,note_on,0,0,3,,,,,,,,2,,,58,105
70560,note_on,192,0,1,,,,,,,,0,,,70,105
70848,note_on,288,0,7,,,,,,,,6,,,58,0
70848,note_on,288,0,9,,,,,,,,8,,,34,0
70848,note_on,288,0,8,,,,,,,,7,,,46,0
70848,note_on,288,0,5,,,,,,,,4,,,58,0
70848,note_on,288,0,1,,,,,,,,0,,,70,0
70848,note_on,288,0,2,,,,,,,,1,,,46,0
70848,note_on,288,0,6,,,,,,,,5,,,58,0
70848,note_on,0,0,3,,,,,,,,2,,,70,0
70848,note_on,288,0,3,,,,,,,,2,,,58,0
71040,note_on,192,0,2,,,,,,,,1,,,53,92
71040,note_on,192,0,3,,,,,,,,2,,,53,92
71040,note_on,192,0,1,,,,,,,,0,,,77,92
71040,note_on,192,0,8,,,,,,,,7,,,53,92
71040,note_on,0,0,3,,,,,,,,2,,,65,92
71040,note_on,192,0,7,,,,,,,,6,,,65,92
71040,note_on,192,0,5,,,,,,,,4,,,65,92
71040,note_on,192,0,9,,,,,,,,8,,,41,92
71040,note_on,192,0,6,,,,,,,,5,,,65,80
71352,note_on,312,0,3,,,,,,,,2,,,65,0
71352,note_on,312,0,7,,,,,,,,6,,,65,0
71352,note_on,312,0,6,,,,,,,,5,,,65,0
71352,note_on,312,0,8,,,,,,,,7,,,53,0
71352,note_on,312,0,5,,,,,,,,4,,,65,0
71352,note_on,0,0,3,,,,,,,,2,,,53,0
71352,note_on,312,0,2,,,,,,,,1,,,53,0
71352,note_on,312,0,9,,,,,,,,8,,,41,0
71352,note_on,312,0,1,,,,,,,,0,,,77,0
71520,note_on,168,0,6,,,,,,,,5,,,60,80
71832,note_on,312,0,6,,,,,,,,5,,,60,0
72000,note_on,168,0,6,,,,,,,,5,,,69,80
72576,note_on,576,0,6,,,,,,,,5,,,69,0
72720,note_on,144,0,6,,,,,,,,5,,,67,80
72912,note_on,192,0,6,,,,,,,,5,,,67,0
72960,note_on,48,0,6,,,,,,,,5,,,65,80
73272,note_on,312,0,6,,,,,,,,5,,,65,0
73440,note_on,168,0,6,,,,,,,,5,,,72,80
73752,note_on,312,0,6,,,,,,,,5,,,72,0
73920,note_on,168,0,6,,,,,,,,5,,,69,80
74232,note_on,312,0,6,,,,,,,,5,,,69,0
74400,note_on,168,0,6,,,,,,,,5,,,65,80
74712,note_on,312,0,6,,,,,,,,5,,,65,0
74880,note_on,3528,0,5,,,,,,,,4,,,77,70
74880,note_on,168,0,6,,,,,,,,5,,,75,70
75192,note_on,312,0,5,,,,,,,,4,,,77,0
75360,note_on,168,0,5,,,,,,,,4,,,72,70
75672,note_on,312,0,5,,,,,,,,4,,,72,0
75840,note_on,168,0,5,,,,,,,,4,,,81,70
75840,note_on,0,0,6,,,,,,,,5,,,72,70
75840,note_on,960,0,6,,,,,,,,5,,,75,0
76416,note_on,576,0,5,,,,,,,,4,,,81,0
76560,note_on,144,0,5,,,,,,,,4,,,79,70
76752,note_on,192,0,5,,,,,,,,4,,,79,0
76800,note_on,48,0,5,,,,,,,,4,,,77,70
76800,note_on,0,0,6,,,,,,,,5,,,69,70
76800,note_on,960,0,6,,,,,,,,5,,,72,0
77112,note_on,312,0,5,,,,,,,,4,,,77,0
77280,note_on,168,0,5,,,,,,,,4,,,84,70
77592,note_on,312,0,5,,,,,,,,4,,,84,0
77760,note_on,168,0,5,,,,,,,,4,,,81,70
77760,note_on,0,0,6,,,,,,,,5,,,63,70
77760,note_on,960,0,6,,,,,,,,5,,,69,0
78072,note_on,312,0,5,,,,,,,,4,,,81,0
78240,note_on,168,0,5,,,,,,,,4,,,77,70
78528,note_on,768,0,6,,,,,,,,5,,,63,0
78552,note_on,312,0,5,,,,,,,,4,,,77,0
78720,note_on,192,0,6,,,,,,,,5,,,62,70
78720,note_on,7368,0,9,,,,,,,,8,,,34,70
78720,note_on,168,0,5,,,,,,,,4,,,82,80
78720,note_on,7368,0,8,,,,,,,,7,,,46,70
78960,note_on,0,0,6,,,,,,,,5,,,65,70
78960,note_on,240,0,6,,,,,,,,5,,,62,0
79104,note_on,384,0,5,,,,,,,,4,,,82,0
79200,note_on,240,0,6,,,,,,,,5,,,65,0
79200,note_on,0,0,6,,,,,,,,5,,,62,70
79440,note_on,0,0,6,,,,,,,,5,,,65,70
79440,note_on,240,0,6,,,,,,,,5,,,62,0
79440,note_on,336,0,5,,,,,,,,4,,,77,80
79488,note_on,768,0,9,,,,,,,,8,,,34,0
79488,note_on,768,0,8,,,,,,,,7,,,46,0
79632,note_on,192,0,6,,,,,,,,5,,,65,0
79632,note_on,192,0,5,,,,,,,,4,,,77,0
79680,note_on,48,0,6,,,,,,,,5,,,58,70
79680,note_on,8328,0,7,,,,,,,,6,,,62,70
79680,note_on,48,0,5,,,,,,,,4,,,74,80
79920,note_on,0,0,6,,,,,,,,5,,,65,70
79920,note_on,240,0,6,,,,,,,,5,,,58,0
80160,note_on,0,0,6,,,,,,,,5,,,58,70
80160,note_on,240,0,6,,,,,,,,5,,,65,0
80400,note_on,0,0,5,,,,,,,,4,,,75,80
80400,note_on,0,0,6,,,,,,,,5,,,60,70
80400,note_on,720,0,7,,,,,,,,6,,,62,0
80400,note_on,0,0,7,,,,,,,,6,,,63,70
80400,note_on,720,0,5,,,,,,,,4,,,74,0
80400,note_on,240,0,6,,,,,,,,5,,,58,0
80592,note_on,192,0,6,,,,,,,,5,,,60,0
80592,note_on,192,0,7,,,,,,,,6,,,63,0
80592,note_on,192,0,5,,,,,,,,4,,,75,0
80640,note_on,48,0,5,,,,,,,,4,,,72,80
80640,note_on,48,0,6,,,,,,,,5,,,57,70
80640,note_on,1152,0,9,,,,,,,,8,,,41,70
80640,note_on,1152,0,8,,,,,,,,7,,,53,70
80640,note_on,48,0,7,,,,,,,,6,,,60,70
80880,note_on,240,0,6,,,,,,,,5,,,57,0
80880,note_on,0,0,6,,,,,,,,5,,,65,70
81024,note_on,384,0,7,,,,,,,,6,,,60,0
81120,note_on,240,0,6,,,,,,,,5,,,65,0
81120,note_on,0,0,6,,,,,,,,5,,,57,70
81360,note_on,0,0,5,,,,,,,,4,,,74,80
81360,note_on,720,0,5,,,,,,,,4,,,72,0
81360,note_on,240,0,6,,,,,,,,5,,,57,0
81360,note_on,0,0,6,,,,,,,,5,,,58,70
81408,note_on,768,0,9,,,,,,,,8,,,41,0
81408,note_on,768,0,8,,,,,,,,7,,,53,0
81552,note_on,192,0,6,,,,,,,,5,,,58,0
81552,note_on,192,0,5,,,,,,,,4,,,74,0
81600,note_on,48,0,6,,,,,,,,5,,,60,70
81600,note_on,48,0,5,,,,,,,,4,,,75,80
81600,note_on,576,0,7,,,,,,,,6,,,63,70
81840,note_on,240,0,6,,,,,,,,5,,,60,0
81840,note_on,0,0,6,,,,,,,,5,,,65,70
82080,note_on,240,0,6,,,,,,,,5,,,65,0
82080,note_on,0,0,6,,,,,,,,5,,,60,70
82320,note_on,0,0,5,,,,,,,,4,,,77,80
82320,note_on,720,0,5,,,,,,,,4,,,75,0
82320,note_on,720,0,7,,,,,,,,6,,,63,0
82320,note_on,0,0,6,,,,,,,,5,,,62,70
82320,note_on,240,0,6,,,,,,,,5,,,60,0
82320,note_on,0,0,7,,,,,,,,6,,,65,70
82512,note_on,192,0,7,,,,,,,,6,,,65,0
82512,note_on,192,0,5,,,,,,,,4,,,77,0
82512,note_on,192,0,6,,,,,,,,5,,,62,0
82560,note_on,48,0,5,,,,,,,,4,,,74,80
82560,note_on,48,0,7,,,,,,,,6,,,62,70
82560,note_on,1152,0,9,,,,,,,,8,,,46,70
82560,note_on,48,0,6,,,,,,,,5,,,58,70
82560,note_on,1152,0,8,,,,,,,,7,,,58,70
82800,note_on,240,0,6,,,,,,,,5,,,58,0
82800,note_on,0,0,6,,,,,,,,5,,,65,70
82944,note_on,384,0,7,,,,,,,,6,,,62,0
83040,note_on,240,0,6,,,,,,,,5,,,65,0
83040,note_on,0,0,6,,,,,,,,5,,,58,70
83280,note_on,720,0,5,,,,,,,,4,,,74,0
83280,note_on,0,0,5,,,,,,,,4,,,77,80
83280,note_on,240,0,6,,,,,,,,5,,,58,0
83280,note_on,0,0,6,,,,,,,,5,,,65,70
83472,note_on,192,0,5,,,,,,,,4,,,77,0
83472,note_on,192,0,6,,,,,,,,5,,,65,0
83520,note_on,48,0,6,,,,,,,,5,,,62,70
83520,note_on,48,0,5,,,,,,,,4,,,82,80
83520,note_on,576,0,7,,,,,,,,6,,,70,70
83760,note_on,0,0,6,,,,,,,,5,,,65,70
83760,note_on,240,0,6,,,,,,,,5,,,62,0
84000,note_on,0,0,6,,,,,,,,5,,,62,70
84000,note_on,240,0,6,,,,,,,,5,,,65,0
84240,note_on,240,0,6,,,,,,,,5,,,62,0
84240,note_on,0,0,7,,,,,,,,6,,,74,70
84240,note_on,720,0,7,,,,,,,,6,,,70,0
84240,note_on,720,0,5,,,,,,,,4,,,82,0
84240,note_on,0,0,5,,,,,,,,4,,,86,80
84240,note_on,0,0,6,,,,,,,,5,,,65,70
84432,note_on,192,0,6,,,,,,,,5,,,65,0
84432,note_on,192,0,7,,,,,,,,6,,,74,0
84432,note_on,192,0,5,,,,,,,,4,,,86,0
84480,note_on,1920,0,9,,,,,,,,8,,,46,0
84480,note_on,48,0,5,,,,,,,,4,,,84,80
84480,note_on,0,0,8,,,,,,,,7,,,53,70
84480,note_on,48,0,7,,,,,,,,6,,,72,70
84480,note_on,48,0,6,,,,,,,,5,,,63,70
84480,note_on,0,0,9,,,,,,,,8,,,41,70
84480,note_on,1920,0,8,,,,,,,,7,,,58,0
84720,note_on,240,0,6,,,,,,,,5,,,63,0
84720,note_on,0,0,6,,,,,,,,5,,,65,70
84960,note_on,0,0,6,,,,,,,,5,,,63,70
84960,note_on,240,0,6,,,,,,,,5,,,65,0
85200,note_on,720,0,5,,,,,,,,4,,,84,0
85200,note_on,240,0,6,,,,,,,,5,,,63,0
85200,note_on,0,0,5,,,,,,,,4,,,87,80
85200,note_on,720,0,7,,,,,,,,6,,,72,0
85200,note_on,0,0,7,,,,,,,,6,,,75,70
85200,note_on,0,0,6,,,,,,,,5,,,65,70
85392,note_on,192,0,5,,,,,,,,4,,,87,0
85392,note_on,192,0,6,,,,,,,,5,,,65,0
85392,note_on,192,0,7,,,,,,,,6,,,75,0
85440,note_on,48,0,5,,,,,,,,4,,,77,80
85440,note_on,48,0,7,,,,,,,,6,,,65,70
85440,note_on,48,0,6,,,,,,,,5,,,60,70
85680,note_on,0,0,6,,,,,,,,5,,,65,70
85680,note_on,240,0,6,,,,,,,,5,,,60,0
85920,note_on,0,0,6,,,,,,,,5,,,60,70
85920,note_on,240,0,6,,,,,,,,5,,,65,0
86160,note_on,720,0,7,,,,,,,,6,,,65,0
86160,note_on,0,0,7,,,,,,,,6,,,69,70
86160,note_on,0,0,6,,,,,,,,5,,,65,70
86160,note_on,240,0,6,,,,,,,,5,,,60,0
86160,note_on,720,0,5,,,,,,,,4,,,77,0
86160,note_on,0,0,5,,,,,,,,4,,,81,80
86304,note_on,1824,0,9,,,,,,,,8,,,41,0
86304,note_on,1824,0,8,,,,,,,,7,,,53,0
86352,note_on,192,0,6,,,,,,,,5,,,65,0
86352,note_on,192,0,7,,,,,,,,6,,,69,0
86352,note_on,192,0,5,,,,,,,,4,,,81,0
86400,note_on,96,0,8,,,,,,,,7,,,50,70
86400,note_on,15048,0,1,,,,,,,,0,,,65,58
86400,note_on,0,0,1,,,,,,,,0,,,77,58
86400,note_on,48,0,7,,,,,,,,6,,,70,70
86400,note_on,48,0,5,,,,,,,,4,,,82,80
86400,note_on,48,0,6,,,,,,,,5,,,58,70
86400,note_on,96,0,9,,,,,,,,8,,,38,70
86640,note_on,240,0,6,,,,,,,,5,,,58,0
86640,note_on,0,0,6,,,,,,,,5,,,65,70
86784,note_on,384,0,7,,,,,,,,6,,,70,0
86784,note_on,384,0,5,,,,,,,,4,,,82,0
86880,note_on,240,0,6,,,,,,,,5,,,65,0
86880,note_on,0,0,6,,,,,,,,5,,,62,70
87120,note_on,336,0,5,,,,,,,,4,,,77,80
87120,note_on,240,0,6,,,,,,,,5,,,62,0
87120,note_on,0,0,6,,,,,,,,5,,,65,70
87168,note_on,768,0,8,,,,,,,,7,,,50,0
87168,note_on,768,0,9,,,,,,,,8,,,38,0
87312,note_on,192,0,6,,,,,,,,5,,,65,0
87312,note_on,192,0,5,,,,,,,,4,,,77,0
87360,note_on,576,0,7,,,,,,,,6,,,62,70
87360,note_on,48,0,5,,,,,,,,4,,,74,80
87360,note_on,48,0,6,,,,,,,,5,,,58,70
87600,note_on,240,0,6,,,,,,,,5,,,58,0
87600,note_on,0,0,6,,,,,,,,5,,,65,70
87840,note_on,0,0,6,,,,,,,,5,,,58,70
87840,note_on,240,0,6,,,,,,,,5,,,65,0
88080,note_on,0,0,6,,,,,,,,5,,,60,70
88080,note_on,720,0,5,,,,,,,,4,,,74,0
88080,note_on,0,0,5,,,,,,,,4,,,75,80
88080,note_on,240,0,6,,,,,,,,5,,,58,0
88080,note_on,720,0,7,,,,,,,,6,,,62,0
88080,note_on,0,0,7,,,,,,,,6,,,63,80
88272,note_on,192,0,5,,,,,,,,4,,,75,0
88272,note_on,192,0,6,,,,,,,,5,,,60,0
88272,note_on,192,0,7,,,,,,,,6,,,63,0
88320,note_on,1152,0,8,,,,,,,,7,,,53,70
88320,note_on,48,0,7,,,,,,,,6,,,60,80
88320,note_on,48,0,5,,,,,,,,4,,,72,80
88320,note_on,48,0,6,,,,,,,,5,,,57,70
88320,note_on,1152,0,9,,,,,,,,8,,,41,70
88560,note_on,240,0,6,,,,,,,,5,,,57,0
88560,note_on,0,0,6,,,,,,,,5,,,65,70
88704,note_on,384,0,7,,,,,,,,6,,,60,0
88800,note_on,240,0,6,,,,,,,,5,,,65,0
88800,note_on,0,0,6,,,,,,,,5,,,57,70
89040,note_on,240,0,6,,,,,,,,5,,,57,0
89040,note_on,0,0,6,,,,,,,,5,,,58,70
89040,note_on,0,0,5,,,,,,,,4,,,74,80
89040,note_on,720,0,5,,,,,,,,4,,,72,0
89088,note_on,768,0,9,,,,,,,,8,,,41,0
89088,note_on,768,0,8,,,,,,,,7,,,53,0
89232,note_on,192,0,6,,,,,,,,5,,,58,0
89232,note_on,192,0,5,,,,,,,,4,,,74,0
89280,note_on,48,0,5,,,,,,,,4,,,75,80
89280,note_on,48,0,6,,,,,,,,5,,,60,70
89280,note_on,576,0,7,,,,,,,,6,,,63,80
89520,note_on,240,0,6,,,,,,,,5,,,60,0
89520,note_on,0,0,6,,,,,,,,5,,,65,70
89760,note_on,240,0,6,,,,,,,,5,,,65,0
89760,note_on,0,0,6,,,,,,,,5,,,60,70
90000,note_on,0,0,5,,,,,,,,4,,,77,80
90000,note_on,0,0,7,,,,,,,,6,,,65,80
90000,note_on,720,0,5,,,,,,,,4,,,75,0
90000,note_on,720,0,7,,,,,,,,6,,,63,0
90000,note_on,0,0,6,,,,,,,,5,,,62,70
90000,note_on,240,0,6,,,,,,,,5,,,60,0
90192,note_on,192,0,5,,,,,,,,4,,,77,0
90192,note_on,192,0,7,,,,,,,,6,,,65,0
90192,note_on,192,0,6,,,,,,,,5,,,62,0
90240,note_on,1152,0,8,,,,,,,,7,,,58,70
90240,note_on,1152,0,9,,,,,,,,8,,,46,70
90240,note_on,48,0,5,,,,,,,,4,,,74,80
90240,note_on,48,0,6,,,,,,,,5,,,58,70
90240,note_on,48,0,7,,,,,,,,6,,,62,80
90480,note_on,0,0,6,,,,,,,,5,,,65,70
90480,note_on,240,0,6,,,,,,,,5,,,58,0
90624,note_on,384,0,7,,,,,,,,6,,,62,0
90720,note_on,0,0,6,,,,,,,,5,,,58,70
90720,note_on,240,0,6,,,,,,,,5,,,65,0
90960,note_on,720,0,5,,,,,,,,4,,,74,0
90960,note_on,0,0,5,,,,,,,,4,,,77,80
90960,note_on,0,0,6,,,,,,,,5,,,65,70
90960,note_on,240,0,6,,,,,,,,5,,,58,0
91152,note_on,192,0,6,,,,,,,,5,,,65,0
91152,note_on,192,0,5,,,,,,,,4,,,77,0
91200,note_on,48,0,6,,,,,,,,5,,,62,70
91200,note_on,48,0,5,,,,,,,,4,,,82,80
91200,note_on,576,0,7,,,,,,,,6,,,70,80
91440,note_on,240,0,6,,,,,,,,5,,,62,0
91440,note_on,0,0,6,,,,,,,,5,,,65,70
91680,note_on,0,0,6,,,,,,,,5,,,62,70
91680,note_on,240,0,6,,,,,,,,5,,,65,0
91920,note_on,0,0,7,,,,,,,,6,,,74,80
91920,note_on,720,0,7,,,,,,,,6,,,70,0
91920,note_on,240,0,6,,,,,,,,5,,,62,0
91920,note_on,0,0,6,,,,,,,,5,,,65,70
91920,note_on,0,0,5,,,,,,,,4,,,86,80
91920,note_on,720,0,5,,,,,,,,4,,,82,0
92112,note_on,192,0,7,,,,,,,,6,,,74,0
92112,note_on,192,0,6,,,,,,,,5,,,65,0
92112,note_on,192,0,5,,,,,,,,4,,,86,0
92160,note_on,1920,0,8,,,,,,,,7,,,58,0
92160,note_on,48,0,7,,,,,,,,6,,,72,80
92160,note_on,1920,0,9,,,,,,,,8,,,46,0
92160,note_on,0,0,9,,,,,,,,8,,,41,70
92160,note_on,48,0,5,,,,,,,,4,,,84,80
92160,note_on,48,0,6,,,,,,,,5,,,63,70
92160,note_on,0,0,8,,,,,,,,7,,,53,70
92400,note_on,240,0,6,,,,,,,,5,,,63,0
92400,note_on,0,0,6,,,,,,,,5,,,65,70
92640,note_on,240,0,6,,,,,,,,5,,,65,0
92640,note_on,0,0,6,,,,,,,,5,,,63,70
92880,note_on,720,0,7,,,,,,,,6,,,72,0
92880,note_on,0,0,7,,,,,,,,6,,,75,80
92880,note_on,720,0,5,,,,,,,,4,,,84,0
92880,note_on,240,0,6,,,,,,,,5,,,63,0
92880,note_on,0,0,6,,,,,,,,5,,,65,70
92880,note_on,0,0,5,,,,,,,,4,,,87,80
93072,note_on,192,0,7,,,,,,,,6,,,75,0
93072,note_on,192,0,6,,,,,,,,5,,,65,0
93072,note_on,192,0,5,,,,,,,,4,,,87,0
93120,note_on,6720,0,1,,,,,,,,0,,,77,0
93120,note_on,48,0,5,,,,,,,,4,,,77,80
93120,note_on,0,0,1,,,,,,,,0,,,75,58
93120,note_on,48,0,7,,,,,,,,6,,,65,80
93120,note_on,48,0,6,,,,,,,,5,,,60,70
93360,note_on,0,0,6,,,,,,,,5,,,65,70
93360,note_on,240,0,6,,,,,,,,5,,,60,0
93600,note_on,0,0,6,,,,,,,,5,,,60,70
93600,note_on,240,0,6,,,,,,,,5,,,65,0
93840,note_on,0,0,6,,,,,,,,5,,,65,70
93840,note_on,240,0,6,,,,,,,,5,,,60,0
93840,note_on,0,0,5,,,,,,,,4,,,81,80
93840,note_on,720,0,5,,,,,,,,4,,,77,0
93840,note_on,0,0,7,,,,,,,,6,,,69,80
93840,note_on,720,0,7,,,,,,,,6,,,65,0
93984,note_on,1824,0,9,,,,,,,,8,,,41,0
93984,note_on,1824,0,8,,,,,,,,7,,,53,0
94032,note_on,192,0,7,,,,,,,,6,,,69,0
94032,note_on,192,0,6,,,,,,,,5,,,65,0
94032,note_on,192,0,5,,,,,,,,4,,,81,0
94080,note_on,22728,0,3,,,,,,,,2,,,70,105
94080,note_on,48,0,6,,,,,,,,5,,,62,105
94080,note_on,960,0,1,,,,,,,,0,,,75,0
94080,note_on,0,0,1,,,,,,,,0,,,74,58
94080,note_on,48,0,5,,,,,,,,4,,,82,80
94080,note_on,48,0,7,,,,,,,,6,,,70,105
94080,note_on,22728,0,2,,,,,,,,1,,,46,105
94080,note_on,96,0,9,,,,,,,,8,,,34,105
94080,note_on,96,0,8,,,,,,,,7,,,46,105
94272,note_on,192,0,5,,,,,,,,4,,,82,0
94320,note_on,48,0,5,,,,,,,,4,,,77,105
94392,note_on,312,0,2,,,,,,,,1,,,46,0
94392,note_on,312,0,7,,,,,,,,6,,,70,0
94392,note_on,312,0,8,,,,,,,,7,,,46,0
94392,note_on,312,0,9,,,,,,,,8,,,34,0
94392,note_on,312,0,3,,,,,,,,2,,,70,0
94464,note_on,384,0,6,,,,,,,,5,,,62,0
94464,note_on,384,0,1,,,,,,,,0,,,74,0
94464,note_on,0,0,1,,,,,,,,0,,,65,0
94560,note_on,96,0,6,,,,,,,,5,,,74,116
94560,note_on,96,0,1,,,,,,,,0,,,74,105
94560,note_on,0,0,1,,,,,,,,0,,,70,105
94560,note_on,168,0,9,,,,,,,,8,,,41,105
94560,note_on,168,0,2,,,,,,,,1,,,53,105
94560,note_on,168,0,3,,,,,,,,2,,,65,105
94560,note_on,168,0,8,,,,,,,,7,,,53,105
94560,note_on,168,0,7,,,,,,,,6,,,65,105
94620,note_on,60,0,6,,,,,,,,5,,,74,0
94620,note_on,0,0,6,,,,,,,,5,,,72,116
94680,note_on,60,0,6,,,,,,,,5,,,72,0
94680,note_on,0,0,6,,,,,,,,5,,,70,116
94704,note_on,384,0,5,,,,,,,,4,,,77,0
94800,note_on,96,0,5,,,,,,,,4,,,77,105
94872,note_on,312,0,2,,,,,,,,1,,,53,0
94872,note_on,312,0,8,,,,,,,,7,,,53,0
94872,note_on,312,0,7,,,,,,,,6,,,65,0
94872,note_on,312,0,3,,,,,,,,2,,,65,0
94872,note_on,312,0,9,,,,,,,,8,,,41,0
95040,note_on,168,0,7,,,,,,,,6,,,74,105
95040,note_on,168,0,9,,,,,,,,8,,,50,105
95040,note_on,168,0,3,,,,,,,,2,,,74,105
95040,note_on,168,0,2,,,,,,,,1,,,62,105
95040,note_on,360,0,6,,,,,,,,5,,,70,0
95040,note_on,168,0,8,,,,,,,,7,,,62,105
95184,note_on,384,0,5,,,,,,,,4,,,77,0
95280,note_on,96,0,5,,,,,,,,4,,,77,105
95520,note_on,480,0,6,,,,,,,,5,,,62,116
95580,note_on,60,0,6,,,,,,,,5,,,62,0
95580,note_on,0,0,6,,,,,,,,5,,,60,116
95616,note_on,576,0,3,,,,,,,,2,,,74,0
95616,note_on,576,0,8,,,,,,,,7,,,62,0
95616,note_on,576,0,7,,,,,,,,6,,,74,0
95616,note_on,576,0,9,,,,,,,,8,,,50,0
95616,note_on,576,0,2,,,,,,,,1,,,62,0
95640,note_on,60,0,6,,,,,,,,5,,,60,0
95640,note_on,0,0,6,,,,,,,,5,,,58,116
95664,note_on,384,0,5,,,,,,,,4,,,77,0
95760,note_on,144,0,8,,,,,,,,7,,,60,105
95760,note_on,144,0,2,,,,,,,,1,,,60,105
95760,note_on,144,0,3,,,,,,,,2,,,72,105
95760,note_on,144,0,9,,,,,,,,8,,,48,105
95760,note_on,144,0,7,,,,,,,,6,,,72,105
95760,note_on,96,0,5,,,,,,,,4,,,77,105
95952,note_on,192,0,3,,,,,,,,2,,,72,0
95952,note_on,192,0,7,,,,,,,,6,,,72,0
95952,note_on,192,0,9,,,,,,,,8,,,48,0
95952,note_on,192,0,2,,,,,,,,1,,,60,0
95952,note_on,192,0,8,,,,,,,,7,,,60,0
96000,note_on,48,0,7,,,,,,,,6,,,70,105
96000,note_on,360,0,6,,,,,,,,5,,,58,0
96000,note_on,48,0,9,,,,,,,,8,,,46,105
96000,note_on,48,0,3,,,,,,,,2,,,70,105
96000,note_on,48,0,8,,,,,,,,7,,,58,105
96000,note_on,48,0,2,,,,,,,,1,,,58,105
96192,note_on,432,0,5,,,,,,,,4,,,77,0
96240,note_on,48,0,5,,,,,,,,4,,,77,105
96312,note_on,312,0,8,,,,,,,,7,,,58,0
96312,note_on,312,0,3,,,,,,,,2,,,70,0
96312,note_on,312,0,2,,,,,,,,1,,,58,0
96312,note_on,312,0,7,,,,,,,,6,,,70,0
96312,note_on,312,0,9,,,,,,,,8,,,46,0
96480,note_on,480,0,6,,,,,,,,5,,,65,116
96480,note_on,168,0,9,,,,,,,,8,,,41,105
96480,note_on,168,0,8,,,,,,,,7,,,53,105
96480,note_on,168,0,7,,,,,,,,6,,,65,105
96480,note_on,168,0,3,,,,,,,,2,,,65,105
96480,note_on,168,0,2,,,,,,,,1,,,53,105
96540,note_on,0,0,6,,,,,,,,5,,,63,116
96540,note_on,60,0,6,,,,,,,,5,,,65,0
96600,note_on,0,0,6,,,,,,,,5,,,62,116
96600,note_on,60,0,6,,,,,,,,5,,,63,0
96624,note_on,384,0,5,,,,,,,,4,,,77,0
96720,note_on,96,0,5,,,,,,,,4,,,77,105
96792,note_on,312,0,3,,,,,,,,2,,,65,0
96792,note_on,312,0,9,,,,,,,,8,,,41,0
96792,note_on,312,0,2,,,,,,,,1,,,53,0
96792,note_on,312,0,8,,,,,,,,7,,,53,0
96792,note_on,312,0,7,,,,,,,,6,,,65,0
96960,note_on,168,0,7,,,,,,,,6,,,74,105
96960,note_on,168,0,2,,,,,,,,1,,,62,105
96960,note_on,168,0,8,,,,,,,,7,,,62,105
96960,note_on,168,0,9,,,,,,,,8,,,50,105
96960,note_on,2400,0,1,,,,,,,,0,,,74,0
96960,note_on,360,0,6,,,,,,,,5,,,62,0
96960,note_on,0,0,1,,,,,,,,0,,,77,105
96960,note_on,168,0,3,,,,,,,,2,,,74,105
97104,note_on,384,0,5,,,,,,,,4,,,77,0
97200,note_on,96,0,5,,,,,,,,4,,,77,105
97272,note_on,312,0,7,,,,,,,,6,,,74,0
97272,note_on,312,0,9,,,,,,,,8,,,50,0
97272,note_on,312,0,2,,,,,,,,1,,,62,0
97272,note_on,312,0,3,,,,,,,,2,,,74,0
97272,note_on,312,0,8,,,,,,,,7,,,62,0
97440,note_on,168,0,2,,,,,,,,1,,,58,105
97440,note_on,480,0,6,,,,,,,,5,,,74,116
97440,note_on,168,0,9,,,,,,,,8,,,46,105
97440,note_on,168,0,3,,,,,,,,2,,,70,105
97440,note_on,168,0,8,,,,,,,,7,,,58,105
97440,note_on,0,0,1,,,,,,,,0,,,74,105
97440,note_on,168,0,7,,,,,,,,6,,,70,105
97440,note_on,480,0,1,,,,,,,,0,,,70,0
97500,note_on,0,0,6,,,,,,,,5,,,72,116
97500,note_on,60,0,6,,,,,,,,5,,,74,0
97560,note_on,0,0,6,,,,,,,,5,,,70,116
97560,note_on,60,0,6,,,,,,,,5,,,72,0
97584,note_on,384,0,5,,,,,,,,4,,,77,0
97680,note_on,96,0,5,,,,,,,,4,,,77,105
97752,note_on,312,0,3,,,,,,,,2,,,70,0
97752,note_on,312,0,7,,,,,,,,6,,,70,0
97752,note_on,312,0,8,,,,,,,,7,,,58,0
97752,note_on,312,0,2,,,,,,,,1,,,58,0
97752,note_on,312,0,9,,,,,,,,8,,,46,0
97824,note_on,384,0,1,,,,,,,,0,,,74,0
97824,note_on,0,0,1,,,,,,,,0,,,77,0
97920,note_on,96,0,1,,,,,,,,0,,,77,105
97920,note_on,360,0,6,,,,,,,,5,,,70,0
97920,note_on,0,0,1,,,,,,,,0,,,75,105
97920,note_on,168,0,9,,,,,,,,8,,,48,105
97920,note_on,168,0,7,,,,,,,,6,,,72,105
97920,note_on,168,0,8,,,,,,,,7,,,60,105
97920,note_on,168,0,3,,,,,,,,2,,,72,105
97920,note_on,168,0,2,,,,,,,,1,,,60,105
98112,note_on,432,0,5,,,,,,,,4,,,77,0
98160,note_on,48,0,5,,,,,,,,4,,,77,105
98232,note_on,312,0,9,,,,,,,,8,,,48,0
98232,note_on,312,0,8,,,,,,,,7,,,60,0
98232,note_on,312,0,7,,,,,,,,6,,,72,0
98232,note_on,312,0,3,,,,,,,,2,,,72,0
98232,note_on,312,0,2,,,,,,,,1,,,60,0
98400,note_on,168,0,2,,,,,,,,1,,,53,105
98400,note_on,168,0,9,,,,,,,,8,,,41,105
98400,note_on,480,0,6,,,,,,,,5,,,75,116
98400,note_on,168,0,7,,,,,,,,6,,,65,105
98400,note_on,168,0,8,,,,,,,,7,,,53,105
98400,note_on,168,0,3,,,,,,,,2,,,65,105
98460,note_on,60,0,6,,,,,,,,5,,,75,0
98460,note_on,0,0,6,,,,,,,,5,,,74,116
98520,note_on,0,0,6,,,,,,,,5,,,72,116
98520,note_on,60,0,6,,,,,,,,5,,,74,0
98544,note_on,384,0,5,,,,,,,,4,,,77,0
98640,note_on,96,0,5,,,,,,,,4,,,77,105
98712,note_on,312,0,2,,,,,,,,1,,,53,0
98712,note_on,312,0,3,,,,,,,,2,,,65,0
98712,note_on,312,0,8,,,,,,,,7,,,53,0
98712,note_on,312,0,7,,,,,,,,6,,,65,0
98712,note_on,312,0,9,,,,,,,,8,,,41,0
98880,note_on,168,0,9,,,,,,,,8,,,51,105
98880,note_on,168,0,2,,,,,,,,1,,,63,105
98880,note_on,168,0,8,,,,,,,,7,,,63,105
98880,note_on,168,0,7,,,,,,,,6,,,75,105
98880,note_on,360,0,6,,,,,,,,5,,,72,0
98880,note_on,168,0,3,,,,,,,,2,,,75,105
99024,note_on,384,0,5,,,,,,,,4,,,77,0
99120,note_on,96,0,5,,,,,,,,4,,,77,105
99360,note_on,480,0,6,,,,,,,,5,,,72,116
99420,note_on,0,0,6,,,,,,,,5,,,70,116
99420,note_on,60,0,6,,,,,,,,5,,,72,0
99456,note_on,576,0,7,,,,,,,,6,,,75,0
99456,note_on,576,0,8,,,,,,,,7,,,63,0
99456,note_on,576,0,9,,,,,,,,8,,,51,0
99456,note_on,576,0,3,,,,,,,,2,,,75,0
99456,note_on,576,0,2,,,,,,,,1,,,63,0
99480,note_on,0,0,6,,,,,,,,5,,,69,116
99480,note_on,60,0,6,,,,,,,,5,,,70,0
99504,note_on,384,0,5,,,,,,,,4,,,77,0
99600,note_on,144,0,9,,,,,,,,8,,,50,105
99600,note_on,144,0,7,,,,,,,,6,,,74,105
99600,note_on,144,0,8,,,,,,,,7,,,62,105
99600,note_on,144,0,3,,,,,,,,2,,,74,105
99600,note_on,144,0,2,,,,,,,,1,,,62,105
99600,note_on,96,0,5,,,,,,,,4,,,77,105
99792,note_on,192,0,7,,,,,,,,6,,,74,0
99792,note_on,192,0,3,,,,,,,,2,,,74,0
99792,note_on,192,0,2,,,,,,,,1,,,62,0
99792,note_on,192,0,9,,,,,,,,8,,,50,0
99792,note_on,192,0,8,,,,,,,,7,,,62,0
99840,note_on,48,0,3,,,,,,,,2,,,72,105
99840,note_on,48,0,9,,,,,,,,8,,,48,105
99840,note_on,48,0,7,,,,,,,,6,,,72,105
99840,note_on,48,0,8,,,,,,,,7,,,60,105
99840,note_on,48,0,2,,,,,,,,1,,,60,105
99840,note_on,360,0,6,,,,,,,,5,,,69,0
100032,note_on,432,0,5,,,,,,,,4,,,77,0
100080,note_on,48,0,5,,,,,,,,4,,,77,105
100152,note_on,312,0,8,,,,,,,,7,,,60,0
100152,note_on,312,0,2,,,,,,,,1,,,60,0
100152,note_on,312,0,9,,,,,,,,8,,,48,0
100152,note_on,312,0,7,,,,,,,,6,,,72,0
100152,note_on,312,0,3,,,,,,,,2,,,72,0
100320,note_on,168,0,9,,,,,,,,8,,,41,105
100320,note_on,168,0,7,,,,,,,,6,,,65,105
100320,note_on,480,0,6,,,,,,,,5,,,63,116
100320,note_on,168,0,2,,,,,,,,1,,,53,105
100320,note_on,168,0,8,,,,,,,,7,,,53,105
100320,note_on,168,0,3,,,,,,,,2,,,65,105
100380,note_on,0,0,6,,,,,,,,5,,,62,116
100380,note_on,60,0,6,,,,,,,,5,,,63,0
100440,note_on,0,0,6,,,,,,,,5,,,60,116
100440,note_on,60,0,6,,,,,,,,5,,,62,0
100464,note_on,384,0,5,,,,,,,,4,,,77,0
100560,note_on,96,0,5,,,,,,,,4,,,77,105
100632,note_on,312,0,7,,,,,,,,6,,,65,0
100632,note_on,312,0,8,,,,,,,,7,,,53,0
100632,note_on,312,0,9,,,,,,,,8,,,41,0
100632,note_on,312,0,3,,,,,,,,2,,,65,0
100632,note_on,312,0,2,,,,,,,,1,,,53,0
100800,note_on,168,0,3,,,,,,,,2,,,75,105
100800,note_on,168,0,9,,,,,,,,8,,,51,105
100800,note_on,360,0,6,,,,,,,,5,,,60,0
100800,note_on,168,0,7,,,,,,,,6,,,75,105
100800,note_on,168,0,2,,,,,,,,1,,,63,105
100800,note_on,168,0,8,,,,,,,,7,,,63,105
100944,note_on,384,0,5,,,,,,,,4,,,77,0
101040,note_on,96,0,5,,,,,,,,4,,,77,105
101112,note_on,312,0,9,,,,,,,,8,,,51,0
101112,note_on,312,0,2,,,,,,,,1,,,63,0
101112,note_on,312,0,7,,,,,,,,6,,,75,0
101112,note_on,312,0,8,,,,,,,,7,,,63,0
101112,note_on,312,0,3,,,,,,,,2,,,75,0
101280,note_on,480,0,6,,,,,,,,5,,,60,116
101280,note_on,168,0,8,,,,,,,,7,,,60,105
101280,note_on,168,0,9,,,,,,,,8,,,48,105
101280,note_on,168,0,7,,,,,,,,6,,,72,105
101280,note_on,168,0,2,,,,,,,,1,,,60,105
101280,note_on,168,0,3,,,,,,,,2,,,72,105
101340,note_on,0,0,6,,,,,,,,5,,,58,116
101340,note_on,60,0,6,,,,,,,,5,,,60,0
101376,note_on,3456,0,1,,,,,,,,0,,,75,0
101376,note_on,0,0,1,,,,,,,,0,,,77,0
101400,note_on,60,0,6,,,,,,,,5,,,58,0
101400,note_on,0,0,6,,,,,,,,5,,,57,116
101424,note_on,384,0,5,,,,,,,,4,,,77,0
101520,note_on,96,0,5,,,,,,,,4,,,77,105
101592,note_on,312,0,3,,,,,,,,2,,,72,0
101592,note_on,312,0,8,,,,,,,,7,,,60,0
101592,note_on,312,0,2,,,,,,,,1,,,60,0
101592,note_on,312,0,7,,,,,,,,6,,,72,0
101592,note_on,312,0,9,,,,,,,,8,,,48,0
101712,note_on,192,0,5,,,,,,,,4,,,77,0
101760,note_on,0,0,1,,,,,,,,0,,,74,105
101760,note_on,0,0,3,,,,,,,,2,,,70,105
101760,note_on,168,0,3,,,,,,,,2,,,70,105
101760,note_on,168,0,2,,,,,,,,1,,,58,105
101760,note_on,360,0,6,,,,,,,,5,,,57,0
101760,note_on,0,0,6,,,,,,,,5,,,58,105
101760,note_on,168,0,8,,,,,,,,7,,,58,105
101760,note_on,168,0,9,,,,,,,,8,,,46,105
101760,note_on,168,0,7,,,,,,,,6,,,70,105
101760,note_on,48,0,5,,,,,,,,4,,,80,105
101760,note_on,384,0,1,,,,,,,,0,,,77,105
101952,note_on,192,0,6,,,,,,,,5,,,58,0
101952,note_on,192,0,5,,,,,,,,4,,,80,0
102000,note_on,48,0,6,,,,,,,,5,,,77,105
102000,note_on,48,0,5,,,,,,,,4,,,80,105
102072,note_on,312,0,2,,,,,,,,1,,,58,0
102072,note_on,312,0,9,,,,,,,,8,,,46,0
102072,note_on,312,0,8,,,,,,,,7,,,58,0
102072,note_on,312,0,7,,,,,,,,6,,,70,0
102240,note_on,168,0,8,,,,,,,,7,,,62,105
102240,note_on,168,0,2,,,,,,,,1,,,62,105
102240,note_on,168,0,7,,,,,,,,6,,,74,105
102240,note_on,168,0,9,,,,,,,,8,,,50,105
102384,note_on,384,0,6,,,,,,,,5,,,77,0
102384,note_on,384,0,5,,,,,,,,4,,,80,0
102474,note_on,234,0,7,,,,,,,,6,,,74,0
102474,note_on,234,0,2,,,,,,,,1,,,62,0
102474,note_on,234,0,9,,,,,,,,8,,,50,0
102474,note_on,234,0,8,,,,,,,,7,,,62,0
102480,note_on,96,0,5,,,,,,,,4,,,80,105
102480,note_on,96,0,6,,,,,,,,5,,,77,105
102528,note_on,0,0,1,,,,,,,,0,,,77,0
102528,note_on,0,0,3,,,,,,,,2,,,70,0
102528,note_on,768,0,3,,,,,,,,2,,,70,0
102528,note_on,768,0,1,,,,,,,,0,,,74,0
102600,note_on,126,0,7,,,,,,,,6,,,70,105
102600,note_on,126,0,2,,,,,,,,1,,,58,105
102600,note_on,126,0,9,,,,,,,,8,,,46,105
102600,note_on,126,0,8,,,,,,,,7,,,58,105
102678,note_on,78,0,7,,,,,,,,6,,,70,0
102678,note_on,78,0,2,,,,,,,,1,,,58,0
102678,note_on,78,0,9,,,,,,,,8,,,46,0
102678,note_on,78,0,8,,,,,,,,7,,,58,0
102720,note_on,42,0,2,,,,,,,,1,,,50,105
102720,note_on,42,0,9,,,,,,,,8,,,38,105
102720,note_on,42,0,7,,,,,,,,6,,,62,105
102720,note_on,0,0,1,,,,,,,,0,,,77,105
102720,note_on,192,0,1,,,,,,,,0,,,81,105
102720,note_on,192,0,3,,,,,,,,2,,,58,105
102720,note_on,0,0,3,,,,,,,,2,,,70,105
102720,note_on,42,0,8,,,,,,,,7,,,50,105
102864,note_on,384,0,6,,,,,,,,5,,,77,0
102864,note_on,384,0,5,,,,,,,,4,,,80,0
102960,note_on,96,0,6,,,,,,,,5,,,77,105
102960,note_on,96,0,5,,,,,,,,4,,,80,105
103032,note_on,312,0,8,,,,,,,,7,,,50,0
103032,note_on,312,0,9,,,,,,,,8,,,38,0
103032,note_on,312,0,2,,,,,,,,1,,,50,0
103032,note_on,312,0,7,,,,,,,,6,,,62,0
103200,note_on,168,0,2,,,,,,,,1,,,58,105
103200,note_on,168,0,8,,,,,,,,7,,,58,105
103200,note_on,168,0,9,,,,,,,,8,,,46,105
103200,note_on,168,0,7,,,,,,,,6,,,70,105
103344,note_on,384,0,5,,,,,,,,4,,,80,0
103344,note_on,384,0,6,,,,,,,,5,,,77,0
103434,note_on,234,0,7,,,,,,,,6,,,70,0
103434,note_on,234,0,2,,,,,,,,1,,,58,0
103434,note_on,234,0,8,,,,,,,,7,,,58,0
103434,note_on,234,0,9,,,,,,,,8,,,46,0
103440,note_on,96,0,5,,,,,,,,4,,,80,105
103440,note_on,96,0,6,,,,,,,,5,,,77,105
103488,note_on,768,0,3,,,,,,,,2,,,70,0
103488,note_on,768,0,1,,,,,,,,0,,,77,0
103488,note_on,0,0,1,,,,,,,,0,,,81,0
103488,note_on,0,0,3,,,,,,,,2,,,58,0
103560,note_on,126,0,9,,,,,,,,8,,,38,105
103560,note_on,126,0,7,,,,,,,,6,,,62,105
103560,note_on,126,0,8,,,,,,,,7,,,50,105
103560,note_on,126,0,2,,,,,,,,1,,,50,105
103632,note_on,192,0,5,,,,,,,,4,,,80,0
103632,note_on,192,0,6,,,,,,,,5,,,77,0
103638,note_on,78,0,9,,,,,,,,8,,,38,0
103638,note_on,78,0,2,,,,,,,,1,,,50,0
103638,note_on,78,0,7,,,,,,,,6,,,62,0
103638,note_on,78,0,8,,,,,,,,7,,,50,0
103680,note_on,0,0,1,,,,,,,,0,,,79,105
103680,note_on,42,0,2,,,,,,,,1,,,51,105
103680,note_on,192,0,1,,,,,,,,0,,,75,105
103680,note_on,48,0,6,,,,,,,,5,,,75,105
103680,note_on,42,0,9,,,,,,,,8,,,39,105
103680,note_on,42,0,7,,,,,,,,6,,,63,105
103680,note_on,192,0,3,,,,,,,,2,,,70,105
103680,note_on,0,0,3,,,,,,,,2,,,58,105
103680,note_on,48,0,5,,,,,,,,4,,,79,105
103680,note_on,42,0,8,,,,,,,,7,,,51,105
103872,note_on,192,0,6,,,,,,,,5,,,75,0
103872,note_on,192,0,5,,,,,,,,4,,,79,0
103920,note_on,48,0,6,,,,,,,,5,,,75,105
103920,note_on,48,0,5,,,,,,,,4,,,79,105
103992,note_on,312,0,2,,,,,,,,1,,,51,0
103992,note_on,312,0,7,,,,,,,,6,,,63,0
103992,note_on,312,0,9,,,,,,,,8,,,39,0
103992,note_on,312,0,8,,,,,,,,7,,,51,0
104160,note_on,168,0,2,,,,,,,,1,,,58,105
104160,note_on,168,0,8,,,,,,,,7,,,58,105
104160,note_on,168,0,7,,,,,,,,6,,,70,105
104160,note_on,168,0,9,,,,,,,,8,,,46,105
104304,note_on,384,0,5,,,,,,,,4,,,79,0
104304,note_on,384,0,6,,,,,,,,5,,,75,0
104394,note_on,234,0,9,,,,,,,,8,,,46,0
104394,note_on,234,0,8,,,,,,,,7,,,58,0
104394,note_on,234,0,7,,,,,,,,6,,,70,0
104394,note_on,234,0,2,,,,,,,,1,,,58,0
104400,note_on,96,0,6,,,,,,,,5,,,75,105
104400,note_on,96,0,5,,,,,,,,4,,,79,105
104448,note_on,0,0,1,,,,,,,,0,,,75,0
104448,note_on,768,0,1,,,,,,,,0,,,79,0
104520,note_on,126,0,2,,,,,,,,1,,,51,105
104520,note_on,126,0,8,,,,,,,,7,,,51,105
104520,note_on,126,0,7,,,,,,,,6,,,63,105
104520,note_on,126,0,9,,,,,,,,8,,,39,105
104592,note_on,192,0,5,,,,,,,,4,,,79,0
104592,note_on,192,0,6,,,,,,,,5,,,75,0
104598,note_on,78,0,8,,,,,,,,7,,,51,0
104598,note_on,78,0,9,,,,,,,,8,,,39,0
104598,note_on,78,0,7,,,,,,,,6,,,63,0
104598,note_on,78,0,2,,,,,,,,1,,,51,0
104640,note_on,48,0,5,,,,,,,,4,,,76,105
104640,note_on,42,0,7,,,,,,,,6,,,67,105
104640,note_on,42,0,2,,,,,,,,1,,,55,105
104640,note_on,42,0,9,,,,,,,,8,,,43,105
104640,note_on,0,0,1,,,,,,,,0,,,76,105
104640,note_on,42,0,8,,,,,,,,7,,,55,105
104640,note_on,192,0,1,,,,,,,,0,,,70,105
104640,note_on,48,0,6,,,,,,,,5,,,70,105
104832,note_on,192,0,5,,,,,,,,4,,,76,0
104832,note_on,192,0,6,,,,,,,,5,,,70,0
104880,note_on,48,0,6,,,,,,,,5,,,70,105
104880,note_on,48,0,5,,,,,,,,4,,,76,105
104952,note_on,312,0,8,,,,,,,,7,,,55,0
104952,note_on,312,0,2,,,,,,,,1,,,55,0
104952,note_on,312,0,9,,,,,,,,8,,,43,0
104952,note_on,312,0,7,,,,,,,,6,,,67,0
105120,note_on,168,0,8,,,,,,,,7,,,58,105
105120,note_on,168,0,2,,,,,,,,1,,,58,105
105120,note_on,168,0,9,,,,,,,,8,,,46,105
105120,note_on,168,0,7,,,,,,,,6,,,70,105
105216,note_on,0,0,3,,,,,,,,2,,,70,0
105216,note_on,1536,0,3,,,,,,,,2,,,58,0
105264,note_on,384,0,6,,,,,,,,5,,,70,0
105264,note_on,384,0,5,,,,,,,,4,,,76,0
105354,note_on,234,0,8,,,,,,,,7,,,58,0
105354,note_on,234,0,2,,,,,,,,1,,,58,0
105354,note_on,234,0,9,,,,,,,,8,,,46,0
105354,note_on,234,0,7,,,,,,,,6,,,70,0
105360,note_on,96,0,5,,,,,,,,4,,,76,105
105360,note_on,96,0,6,,,,,,,,5,,,70,105
105408,note_on,768,0,1,,,,,,,,0,,,76,0
105408,note_on,0,0,1,,,,,,,,0,,,70,0
105480,note_on,126,0,8,,,,,,,,7,,,55,105
105480,note_on,126,0,9,,,,,,,,8,,,43,105
105480,note_on,126,0,7,,,,,,,,6,,,67,105
105480,note_on,126,0,2,,,,,,,,1,,,55,105
105552,note_on,192,0,6,,,,,,,,5,,,70,0
105552,note_on,192,0,5,,,,,,,,4,,,76,0
105558,note_on,78,0,9,,,,,,,,8,,,43,0
105558,note_on,78,0,7,,,,,,,,6,,,67,0
105558,note_on,78,0,2,,,,,,,,1,,,55,0
105558,note_on,78,0,8,,,,,,,,7,,,55,0
105600,note_on,192,0,1,,,,,,,,0,,,77,105
105600,note_on,0,0,1,,,,,,,,0,,,72,105
105600,note_on,42,0,7,,,,,,,,6,,,69,105
105600,note_on,42,0,2,,,,,,,,1,,,57,105
105600,note_on,42,0,9,,,,,,,,8,,,45,105
105600,note_on,42,0,8,,,,,,,,7,,,57,105
105600,note_on,48,0,6,,,,,,,,5,,,72,105
105600,note_on,0,0,3,,,,,,,,2,,,65,105
105600,note_on,48,0,5,,,,,,,,4,,,77,105
105600,note_on,384,0,3,,,,,,,,2,,,72,105
105792,note_on,192,0,5,,,,,,,,4,,,77,0
105792,note_on,192,0,6,,,,,,,,5,,,72,0
105840,note_on,48,0,6,,,,,,,,5,,,72,105
105840,note_on,48,0,5,,,,,,,,4,,,77,105
105912,note_on,312,0,2,,,,,,,,1,,,57,0
105912,note_on,312,0,8,,,,,,,,7,,,57,0
105912,note_on,312,0,7,,,,,,,,6,,,69,0
105912,note_on,312,0,9,,,,,,,,8,,,45,0
106080,note_on,168,0,8,,,,,,,,7,,,60,105
106080,note_on,168,0,9,,,,,,,,8,,,48,105
106080,note_on,168,0,2,,,,,,,,1,,,60,105
106080,note_on,168,0,7,,,,,,,,6,,,72,105
106224,note_on,384,0,5,,,,,,,,4,,,77,0
106224,note_on,384,0,6,,,,,,,,5,,,72,0
106314,note_on,234,0,9,,,,,,,,8,,,48,0
106314,note_on,234,0,8,,,,,,,,7,,,60,0
106314,note_on,234,0,7,,,,,,,,6,,,72,0
106314,note_on,234,0,2,,,,,,,,1,,,60,0
106320,note_on,96,0,6,,,,,,,,5,,,72,105
106320,note_on,96,0,5,,,,,,,,4,,,77,105
106440,note_on,126,0,2,,,,,,,,1,,,57,105
106440,note_on,126,0,9,,,,,,,,8,,,45,105
106440,note_on,126,0,7,,,,,,,,6,,,69,105
106440,note_on,126,0,8,,,,,,,,7,,,57,105
106512,note_on,192,0,6,,,,,,,,5,,,72,0
106512,note_on,192,0,5,,,,,,,,4,,,77,0
106518,note_on,78,0,2,,,,,,,,1,,,57,0
106518,note_on,78,0,9,,,,,,,,8,,,45,0
106518,note_on,78,0,7,,,,,,,,6,,,69,0
106518,note_on,78,0,8,,,,,,,,7,,,57,0
106560,note_on,42,0,8,,,,,,,,7,,,53,105
106560,note_on,42,0,9,,,,,,,,8,,,41,105
106560,note_on,0,0,1,,,,,,,,0,,,77,0
106560,note_on,960,0,1,,,,,,,,0,,,72,0
106560,note_on,48,0,6,,,,,,,,5,,,72,105
106560,note_on,0,0,6,,,,,,,,5,,,69,105
106560,note_on,42,0,7,,,,,,,,6,,,65,105
106560,note_on,0,0,1,,,,,,,,0,,,69,105
106560,note_on,48,0,5,,,,,,,,4,,,75,105
106560,note_on,42,0,2,,,,,,,,1,,,53,105
106560,note_on,0,0,1,,,,,,,,0,,,75,105
106752,note_on,0,0,6,,,,,,,,5,,,72,0
106752,note_on,192,0,5,,,,,,,,4,,,75,0
106752,note_on,192,0,6,,,,,,,,5,,,69,0
106800,note_on,48,0,6,,,,,,,,5,,,69,105
106800,note_on,0,0,6,,,,,,,,5,,,72,105
106800,note_on,48,0,5,,,,,,,,4,,,75,105
106872,note_on,312,0,2,,,,,,,,1,,,53,0
106872,note_on,312,0,9,,,,,,,,8,,,41,0
106872,note_on,312,0,7,,,,,,,,6,,,65,0
106872,note_on,312,0,8,,,,,,,,7,,,53,0
107040,note_on,168,0,7,,,,,,,,6,,,69,105
107040,note_on,168,0,9,,,,,,,,8,,,45,105
107040,note_on,168,0,8,,,,,,,,7,,,57,105
107040,note_on,168,0,2,,,,,,,,1,,,57,105
107136,note_on,0,0,3,,,,,,,,2,,,72,0
107136,note_on,1536,0,3,,,,,,,,2,,,65,0
107184,note_on,0,0,6,,,,,,,,5,,,69,0
107184,note_on,384,0,5,,,,,,,,4,,,75,0
107184,note_on,384,0,6,,,,,,,,5,,,72,0
107274,note_on,234,0,2,,,,,,,,1,,,57,0
107274,note_on,234,0,9,,,,,,,,8,,,45,0
107274,note_on,234,0,7,,,,,,,,6,,,69,0
107274,note_on,234,0,8,,,,,,,,7,,,57,0
107280,note_on,96,0,6,,,,,,,,5,,,72,105
107280,note_on,96,0,5,,,,,,,,4,,,75,105
107280,note_on,0,0,6,,,,,,,,5,,,69,105
107328,note_on,0,0,1,,,,,,,,0,,,69,0
107328,note_on,768,0,1,,,,,,,,0,,,75,0
107400,note_on,126,0,8,,,,,,,,7,,,53,105
107400,note_on,126,0,9,,,,,,,,8,,,41,105
107400,note_on,126,0,2,,,,,,,,1,,,53,105
107400,note_on,126,0,7,,,,,,,,6,,,65,105
107472,note_on,192,0,6,,,,,,,,5,,,69,0
107472,note_on,0,0,6,,,,,,,,5,,,72,0
107472,note_on,192,0,5,,,,,,,,4,,,75,0
107478,note_on,78,0,2,,,,,,,,1,,,53,0
107478,note_on,78,0,7,,,,,,,,6,,,65,0
107478,note_on,78,0,9,,,,,,,,8,,,41,0
107478,note_on,78,0,8,,,,,,,,7,,,53,0
107520,note_on,0,0,1,,,,,,,,0,,,74,105
107520,note_on,192,0,1,,,,,,,,0,,,70,105
107520,note_on,42,0,9,,,,,,,,8,,,43,105
107520,note_on,42,0,8,,,,,,,,7,,,55,105
107520,note_on,42,0,2,,,,,,,,1,,,55,105
107520,note_on,42,0,7,,,,,,,,6,,,67,105
107520,note_on,384,0,3,,,,,,,,2,,,58,105
107520,note_on,0,0,3,,,,,,,,2,,,70,105
107520,note_on,48,0,6,,,,,,,,5,,,70,105
107520,note_on,48,0,5,,,,,,,,4,,,70,105
107832,note_on,312,0,9,,,,,,,,8,,,43,0
107832,note_on,312,0,1,,,,,,,,0,,,74,0
107832,note_on,0,0,1,,,,,,,,0,,,70,0
107832,note_on,312,0,8,,,,,,,,7,,,55,0
107832,note_on,312,0,2,,,,,,,,1,,,55,0
107832,note_on,312,0,6,,,,,,,,5,,,70,0
107832,note_on,312,0,7,,,,,,,,6,,,67,0
107832,note_on,312,0,3,,,,,,,,2,,,70,0
107832,note_on,0,0,3,,,,,,,,2,,,58,0
107832,note_on,312,0,5,,,,,,,,4,,,70,0
108000,note_on,168,0,2,,,,,,,,1,,,50,105
108000,note_on,168,0,9,,,,,,,,8,,,38,105
108000,note_on,168,0,8,,,,,,,,7,,,50,105
108000,note_on,168,0,5,,,,,,,,4,,,82,105
108000,note_on,0,0,1,,,,,,,,0,,,82,105
108000,note_on,168,0,1,,,,,,,,0,,,77,105
108000,note_on,168,0,3,,,,,,,,2,,,58,105
108000,note_on,0,0,3,,,,,,,,2,,,70,105
108000,note_on,168,0,6,,,,,,,,5,,,77,105
108000,note_on,168,0,7,,,,,,,,6,,,62,105
108312,note_on,312,0,9,,,,,,,,8,,,38,0
108312,note_on,312,0,8,,,,,,,,7,,,50,0
108312,note_on,0,0,1,,,,,,,,0,,,77,0
108312,note_on,312,0,1,,,,,,,,0,,,82,0
108312,note_on,312,0,6,,,,,,,,5,,,77,0
108312,note_on,312,0,2,,,,,,,,1,,,50,0
108312,note_on,312,0,3,,,,,,,,2,,,70,0
108312,note_on,0,0,3,,,,,,,,2,,,58,0
108312,note_on,312,0,7,,,,,,,,6,,,62,0
108312,note_on,312,0,5,,,,,,,,4,,,82,0
108480,note_on,168,0,6,,,,,,,,5,,,75,105
108480,note_on,168,0,2,,,,,,,,1,,,51,105
108480,note_on,168,0,3,,,,,,,,2,,,58,105
108480,note_on,0,0,3,,,,,,,,2,,,70,105
108480,note_on,168,0,8,,,,,,,,7,,,51,105
108480,note_on,168,0,9,,,,,,,,8,,,39,105
108480,note_on,168,0,5,,,,,,,,4,,,79,105
108480,note_on,0,0,1,,,,,,,,0,,,75,105
108480,note_on,168,0,7,,,,,,,,6,,,63,105
108480,note_on,168,0,1,,,,,,,,0,,,79,105
108792,note_on,312,0,6,,,,,,,,5,,,75,0
108792,note_on,312,0,8,,,,,,,,7,,,51,0
108792,note_on,312,0,1,,,,,,,,0,,,75,0
108792,note_on,0,0,1,,,,,,,,0,,,79,0
108792,note_on,312,0,2,,,,,,,,1,,,51,0
108792,note_on,312,0,9,,,,,,,,8,,,39,0
108792,note_on,312,0,5,,,,,,,,4,,,79,0
108792,note_on,0,0,3,,,,,,,,2,,,58,0
108792,note_on,312,0,7,,,,,,,,6,,,63,0
108792,note_on,312,0,3,,,,,,,,2,,,70,0
108960,note_on,168,0,2,,,,,,,,1,,,53,105
108960,note_on,168,0,3,,,,,,,,2,,,65,105
108960,note_on,168,0,5,,,,,,,,4,,,69,105
108960,note_on,0,0,1,,,,,,,,0,,,63,105
108960,note_on,168,0,1,,,,,,,,0,,,69,105
108960,note_on,168,0,7,,,,,,,,6,,,65,105
108960,note_on,168,0,9,,,,,,,,8,,,41,105
108960,note_on,168,0,6,,,,,,,,5,,,63,105
108960,note_on,0,0,6,,,,,,,,5,,,60,105
108960,note_on,168,0,8,,,,,,,,7,,,53,105
109272,note_on,0,0,6,,,,,,,,5,,,63,0
109272,note_on,0,0,1,,,,,,,,0,,,69,0
109272,note_on,312,0,2,,,,,,,,1,,,53,0
109272,note_on,312,0,6,,,,,,,,5,,,60,0
109272,note_on,312,0,1,,,,,,,,0,,,63,0
109272,note_on,312,0,7,,,,,,,,6,,,65,0
109272,note_on,312,0,3,,,,,,,,2,,,65,0
109272,note_on,312,0,5,,,,,,,,4,,,69,0
109272,note_on,312,0,9,,,,,,,,8,,,41,0
109272,note_on,312,0,8,,,,,,,,7,,,53,0
109440,note_on,168,0,2,,,,,,,,1,,,58,105
109440,note_on,0,0,1,,,,,,,,0,,,70,105
109440,note_on,168,0,1,,,,,,,,0,,,62,105
109440,note_on,168,0,9,,,,,,,,8,,,46,105
109440,note_on,168,0,5,,,,,,,,4,,,80,105
109440,note_on,0,0,3,,,,,,,,2,,,58,105
109440,note_on,168,0,6,,,,,,,,5,,,62,105
109440,note_on,168,0,3,,,,,,,,2,,,70,105
109440,note_on,168,0,7,,,,,,,,6,,,70,105
109440,note_on,168,0,8,,,,,,,,7,,,58,105
109632,note_on,192,0,6,,,,,,,,5,,,62,0
109632,note_on,192,0,5,,,,,,,,4,,,80,0
109680,note_on,48,0,6,,,,,,,,5,,,77,105
109680,note_on,48,0,5,,,,,,,,4,,,80,105
109752,note_on,312,0,7,,,,,,,,6,,,70,0
109752,note_on,312,0,2,,,,,,,,1,,,58,0
109752,note_on,312,0,8,,,,,,,,7,,,58,0
109752,note_on,312,0,9,,,,,,,,8,,,46,0
109824,note_on,384,0,1,,,,,,,,0,,,70,0
109824,note_on,0,0,1,,,,,,,,0,,,62,0
109920,note_on,168,0,8,,,,,,,,7,,,62,105
109920,note_on,96,0,1,,,,,,,,0,,,80,105
109920,note_on,0,0,1,,,,,,,,0,,,77,105
109920,note_on,168,0,9,,,,,,,,8,,,50,105
109920,note_on,168,0,2,,,,,,,,1,,,62,105
109920,note_on,168,0,7,,,,,,,,6,,,74,105
110064,note_on,384,0,6,,,,,,,,5,,,77,0
110064,note_on,384,0,5,,,,,,,,4,,,80,0
110154,note_on,234,0,7,,,,,,,,6,,,74,0
110154,note_on,234,0,2,,,,,,,,1,,,62,0
110154,note_on,234,0,8,,,,,,,,7,,,62,0
110154,note_on,234,0,9,,,,,,,,8,,,50,0
110160,note_on,96,0,5,,,,,,,,4,,,80,105
110160,note_on,96,0,6,,,,,,,,5,,,77,105
110280,note_on,126,0,2,,,,,,,,1,,,58,105
110280,note_on,126,0,8,,,,,,,,7,,,58,105
110280,note_on,126,0,9,,,,,,,,8,,,46,105
110280,note_on,126,0,7,,,,,,,,6,,,70,105
110358,note_on,78,0,9,,,,,,,,8,,,46,0
110358,note_on,78,0,7,,,,,,,,6,,,70,0
110358,note_on,78,0,8,,,,,,,,7,,,58,0
110358,note_on,78,0,2,,,,,,,,1,,,58,0
110400,note_on,42,0,8,,,,,,,,7,,,50,105
110400,note_on,42,0,9,,,,,,,,8,,,38,105
110400,note_on,42,0,7,,,,,,,,6,,,62,105
110400,note_on,42,0,2,,,,,,,,1,,,50,105
110544,note_on,384,0,5,,,,,,,,4,,,80,0
110544,note_on,384,0,6,,,,,,,,5,,,77,0
110640,note_on,96,0,6,,,,,,,,5,,,77,105
110640,note_on,96,0,5,,,,,,,,4,,,80,105
110712,note_on,312,0,9,,,,,,,,8,,,38,0
110712,note_on,312,0,8,,,,,,,,7,,,50,0
110712,note_on,312,0,2,,,,,,,,1,,,50,0
110712,note_on,312,0,7,,,,,,,,6,,,62,0
110880,note_on,168,0,8,,,,,,,,7,,,58,105
110880,note_on,168,0,9,,,,,,,,8,,,46,105
110880,note_on,168,0,7,,,,,,,,6,,,70,105
110880,note_on,168,0,2,,,,,,,,1,,,58,105
111024,note_on,384,0,6,,,,,,,,5,,,77,0
111024,note_on,384,0,5,,,,,,,,4,,,80,0
111072,note_on,1152,0,1,,,,,,,,0,,,77,0
111072,note_on,0,0,1,,,,,,,,0,,,80,0
111114,note_on,234,0,7,,,,,,,,6,,,70,0
111114,note_on,234,0,2,,,,,,,,1,,,58,0
111114,note_on,234,0,9,,,,,,,,8,,,46,0
111114,note_on,234,0,8,,,,,,,,7,,,58,0
111120,note_on,96,0,6,,,,,,,,5,,,77,105
111120,note_on,96,0,5,,,,,,,,4,,,80,105
111240,note_on,126,0,9,,,,,,,,8,,,38,105
111240,note_on,126,0,2,,,,,,,,1,,,50,105
111240,note_on,126,0,8,,,,,,,,7,,,50,105
111240,note_on,126,0,7,,,,,,,,6,,,62,105
111312,note_on,192,0,6,,,,,,,,5,,,77,0
111312,note_on,192,0,5,,,,,,,,4,,,80,0
111318,note_on,78,0,7,,,,,,,,6,,,62,0
111318,note_on,78,0,2,,,,,,,,1,,,50,0
111318,note_on,78,0,8,,,,,,,,7,,,50,0
111318,note_on,78,0,9,,,,,,,,8,,,38,0
111360,note_on,42,0,7,,,,,,,,6,,,63,105
111360,note_on,42,0,9,,,,,,,,8,,,39,105
111360,note_on,288,0,1,,,,,,,,0,,,79,105
111360,note_on,0,0,1,,,,,,,,0,,,75,105
111360,note_on,42,0,8,,,,,,,,7,,,51,105
111360,note_on,42,0,2,,,,,,,,1,,,51,105
111360,note_on,48,0,6,,,,,,,,5,,,75,105
111360,note_on,48,0,5,,,,,,,,4,,,79,105
111552,note_on,192,0,5,,,,,,,,4,,,79,0
111552,note_on,192,0,6,,,,,,,,5,,,75,0
111600,note_on,48,0,5,,,,,,,,4,,,79,105
111600,note_on,48,0,6,,,,,,,,5,,,75,105
111672,note_on,312,0,8,,,,,,,,7,,,51,0
111672,note_on,312,0,7,,,,,,,,6,,,63,0
111672,note_on,312,0,9,,,,,,,,8,,,39,0
111672,note_on,312,0,2,,,,,,,,1,,,51,0
111840,note_on,168,0,9,,,,,,,,8,,,46,105
111840,note_on,168,0,7,,,,,,,,6,,,70,105
111840,note_on,168,0,2,,,,,,,,1,,,58,105
111840,note_on,168,0,8,,,,,,,,7,,,58,105
111984,note_on,384,0,6,,,,,,,,5,,,75,0
111984,note_on,384,0,5,,,,,,,,4,,,79,0
112074,note_on,234,0,8,,,,,,,,7,,,58,0
112074,note_on,234,0,7,,,,,,,,6,,,70,0
112074,note_on,234,0,9,,,,,,,,8,,,46,0
112074,note_on,234,0,2,,,,,,,,1,,,58,0
112080,note_on,96,0,6,,,,,,,,5,,,75,105
112080,note_on,96,0,5,,,,,,,,4,,,79,105
112128,note_on,0,0,1,,,,,,,,0,,,79,0
112128,note_on,768,0,1,,,,,,,,0,,,75,0
112200,note_on,126,0,9,,,,,,,,8,,,39,105
112200,note_on,126,0,7,,,,,,,,6,,,63,105
112200,note_on,126,0,8,,,,,,,,7,,,51,105
112200,note_on,126,0,2,,,,,,,,1,,,51,105
112272,note_on,192,0,5,,,,,,,,4,,,79,0
112272,note_on,192,0,6,,,,,,,,5,,,75,0
112278,note_on,78,0,2,,,,,,,,1,,,51,0
112278,note_on,78,0,7,,,,,,,,6,,,63,0
112278,note_on,78,0,9,,,,,,,,8,,,39,0
112278,note_on,78,0,8,,,,,,,,7,,,51,0
112320,note_on,42,0,7,,,,,,,,6,,,67,105
112320,note_on,48,0,6,,,,,,,,5,,,70,105
112320,note_on,42,0,8,,,,,,,,7,,,55,105
112320,note_on,48,0,5,,,,,,,,4,,,76,105
112320,note_on,42,0,2,,,,,,,,1,,,55,105
112320,note_on,192,0,1,,,,,,,,0,,,76,105
112320,note_on,0,0,1,,,,,,,,0,,,70,105
112320,note_on,42,0,9,,,,,,,,8,,,43,105
112512,note_on,192,0,6,,,,,,,,5,,,70,0
112512,note_on,192,0,5,,,,,,,,4,,,76,0
112560,note_on,48,0,5,,,,,,,,4,,,76,105
112560,note_on,48,0,6,,,,,,,,5,,,70,105
112632,note_on,312,0,9,,,,,,,,8,,,43,0
112632,note_on,312,0,8,,,,,,,,7,,,55,0
112632,note_on,312,0,2,,,,,,,,1,,,55,0
112632,note_on,312,0,7,,,,,,,,6,,,67,0
112800,note_on,168,0,8,,,,,,,,7,,,58,105
112800,note_on,168,0,2,,,,,,,,1,,,58,105
112800,note_on,168,0,7,,,,,,,,6,,,70,105
112800,note_on,168,0,9,,,,,,,,8,,,46,105
112896,note_on,0,0,3,,,,,,,,2,,,70,0
112896,note_on,3456,0,3,,,,,,,,2,,,58,0
112944,note_on,384,0,5,,,,,,,,4,,,76,0
112944,note_on,384,0,6,,,,,,,,5,,,70,0
113034,note_on,234,0,7,,,,,,,,6,,,70,0
113034,note_on,234,0,2,,,,,,,,1,,,58,0
113034,note_on,234,0,8,,,,,,,,7,,,58,0
113034,note_on,234,0,9,,,,,,,,8,,,46,0
113040,note_on,96,0,5,,,,,,,,4,,,76,105
113040,note_on,96,0,6,,,,,,,,5,,,70,105
113088,note_on,768,0,1,,,,,,,,0,,,70,0
113088,note_on,0,0,1,,,,,,,,0,,,76,0
113160,note_on,126,0,8,,,,,,,,7,,,55,105
113160,note_on,126,0,9,,,,,,,,8,,,43,105
113160,note_on,126,0,2,,,,,,,,1,,,55,105
113160,note_on,126,0,7,,,,,,,,6,,,67,105
113232,note_on,192,0,6,,,,,,,,5,,,70,0
113232,note_on,192,0,5,,,,,,,,4,,,76,0
113238,note_on,78,0,9,,,,,,,,8,,,43,0
113238,note_on,78,0,8,,,,,,,,7,,,55,0
113238,note_on,78,0,2,,,,,,,,1,,,55,0
113238,note_on,78,0,7,,,,,,,,6,,,67,0
113280,note_on,48,0,5,,,,,,,,4,,,77,105
113280,note_on,42,0,2,,,,,,,,1,,,57,105
113280,note_on,42,0,9,,,,,,,,8,,,45,105
113280,note_on,42,0,8,,,,,,,,7,,,57,105
113280,note_on,48,0,6,,,,,,,,5,,,72,105
113280,note_on,0,0,1,,,,,,,,0,,,72,105
113280,note_on,192,0,1,,,,,,,,0,,,77,105
113280,note_on,384,0,3,,,,,,,,2,,,72,105
113280,note_on,0,0,3,,,,,,,,2,,,65,105
113280,note_on,42,0,7,,,,,,,,6,,,69,105
113472,note_on,192,0,6,,,,,,,,5,,,72,0
113472,note_on,192,0,5,,,,,,,,4,,,77,0
113520,note_on,48,0,5,,,,,,,,4,,,77,105
113520,note_on,48,0,6,,,,,,,,5,,,72,105
113592,note_on,312,0,7,,,,,,,,6,,,69,0
113592,note_on,312,0,9,,,,,,,,8,,,45,0
113592,note_on,312,0,8,,,,,,,,7,,,57,0
113592,note_on,312,0,2,,,,,,,,1,,,57,0
113760,note_on,168,0,8,,,,,,,,7,,,60,105
113760,note_on,168,0,7,,,,,,,,6,,,72,105
113760,note_on,168,0,9,,,,,,,,8,,,48,105
113760,note_on,168,0,2,,,,,,,,1,,,60,105
113904,note_on,384,0,6,,,,,,,,5,,,72,0
113904,note_on,384,0,5,,,,,,,,4,,,77,0
113994,note_on,234,0,2,,,,,,,,1,,,60,0
113994,note_on,234,0,9,,,,,,,,8,,,48,0
113994,note_on,234,0,8,,,,,,,,7,,,60,0
113994,note_on,234,0,7,,,,,,,,6,,,72,0
114000,note_on,96,0,6,,,,,,,,5,,,72,105
114000,note_on,96,0,5,,,,,,,,4,,,77,105
114120,note_on,126,0,9,,,,,,,,8,,,45,105
114120,note_on,126,0,7,,,,,,,,6,,,69,105
114120,note_on,126,0,2,,,,,,,,1,,,57,105
114120,note_on,126,0,8,,,,,,,,7,,,57,105
114192,note_on,192,0,5,,,,,,,,4,,,77,0
114192,note_on,192,0,6,,,,,,,,5,,,72,0
114198,note_on,78,0,9,,,,,,,,8,,,45,0
114198,note_on,78,0,8,,,,,,,,7,,,57,0
114198,note_on,78,0,2,,,,,,,,1,,,57,0
114198,note_on,78,0,7,,,,,,,,6,,,69,0
114240,note_on,48,0,5,,,,,,,,4,,,87,105
114240,note_on,42,0,8,,,,,,,,7,,,53,105
114240,note_on,42,0,7,,,,,,,,6,,,65,105
114240,note_on,42,0,9,,,,,,,,8,,,41,105
114240,note_on,960,0,1,,,,,,,,0,,,72,0
114240,note_on,0,0,1,,,,,,,,0,,,77,0
114240,note_on,0,0,1,,,,,,,,0,,,69,105
114240,note_on,48,0,6,,,,,,,,5,,,84,105
114240,note_on,0,0,1,,,,,,,,0,,,75,105
114240,note_on,42,0,2,,,,,,,,1,,,53,105
114432,note_on,192,0,6,,,,,,,,5,,,84,0
114432,note_on,192,0,5,,,,,,,,4,,,87,0
114480,note_on,48,0,5,,,,,,,,4,,,87,105
114480,note_on,48,0,6,,,,,,,,5,,,84,105
114552,note_on,312,0,2,,,,,,,,1,,,53,0
114552,note_on,312,0,7,,,,,,,,6,,,65,0
114552,note_on,312,0,8,,,,,,,,7,,,53,0
114552,note_on,312,0,9,,,,,,,,8,,,41,0
114720,note_on,168,0,2,,,,,,,,1,,,57,105
114720,note_on,168,0,8,,,,,,,,7,,,57,105
114720,note_on,168,0,7,,,,,,,,6,,,69,105
114720,note_on,168,0,9,,,,,,,,8,,,45,105
114816,note_on,0,0,3,,,,,,,,2,,,72,0
114816,note_on,1536,0,3,,,,,,,,2,,,65,0
114864,note_on,384,0,6,,,,,,,,5,,,84,0
114864,note_on,384,0,5,,,,,,,,4,,,87,0
114954,note_on,234,0,2,,,,,,,,1,,,57,0
114954,note_on,234,0,7,,,,,,,,6,,,69,0
114954,note_on,234,0,8,,,,,,,,7,,,57,0
114954,note_on,234,0,9,,,,,,,,8,,,45,0
114960,note_on,96,0,6,,,,,,,,5,,,84,105
114960,note_on,96,0,5,,,,,,,,4,,,87,105
115008,note_on,768,0,1,,,,,,,,0,,,75,0
115008,note_on,0,0,1,,,,,,,,0,,,69,0
115080,note_on,126,0,2,,,,,,,,1,,,53,105
115080,note_on,126,0,8,,,,,,,,7,,,53,105
115080,note_on,126,0,7,,,,,,,,6,,,65,105
115080,note_on,126,0,9,,,,,,,,8,,,41,105
115152,note_on,192,0,6,,,,,,,,5,,,84,0
115152,note_on,192,0,5,,,,,,,,4,,,87,0
115158,note_on,78,0,7,,,,,,,,6,,,65,0
115158,note_on,78,0,9,,,,,,,,8,,,41,0
115158,note_on,78,0,2,,,,,,,,1,,,53,0
115158,note_on,78,0,8,,,,,,,,7,,,53,0
115200,note_on,42,0,8,,,,,,,,7,,,55,105
115200,note_on,192,0,1,,,,,,,,0,,,74,105
115200,note_on,0,0,1,,,,,,,,0,,,70,105
115200,note_on,384,0,3,,,,,,,,2,,,58,105
115200,note_on,0,0,3,,,,,,,,2,,,70,105
115200,note_on,42,0,9,,,,,,,,8,,,43,105
115200,note_on,42,0,2,,,,,,,,1,,,55,105
115200,note_on,48,0,5,,,,,,,,4,,,86,105
115200,note_on,48,0,6,,,,,,,,5,,,82,105
115200,note_on,42,0,7,,,,,,,,6,,,67,105
115488,note_on,288,0,1,,,,,,,,0,,,70,0
115488,note_on,0,0,1,,,,,,,,0,,,74,0
115488,note_on,288,0,5,,,,,,,,4,,,86,0
115488,note_on,288,0,6,,,,,,,,5,,,82,0
115512,note_on,0,0,3,,,,,,,,2,,,58,0
115512,note_on,312,0,3,,,,,,,,2,,,70,0
115512,note_on,312,0,2,,,,,,,,1,,,55,0
115512,note_on,312,0,9,,,,,,,,8,,,43,0
115512,note_on,312,0,7,,,,,,,,6,,,67,0
115512,note_on,312,0,8,,,,,,,,7,,,55,0
115680,note_on,192,0,5,,,,,,,,4,,,82,105
115680,note_on,168,0,9,,,,,,,,8,,,38,105
115680,note_on,192,0,1,,,,,,,,0,,,74,105
115680,note_on,0,0,1,,,,,,,,0,,,82,105
115680,note_on,192,0,6,,,,,,,,5,,,82,105
115680,note_on,0,0,3,,,,,,,,2,,,58,105
115680,note_on,168,0,2,,,,,,,,1,,,50,105
115680,note_on,168,0,3,,,,,,,,2,,,70,105
115680,note_on,168,0,7,,,,,,,,6,,,62,105
115680,note_on,168,0,8,,,,,,,,7,,,50,105
115968,note_on,288,0,1,,,,,,,,0,,,74,0
115968,note_on,288,0,5,,,,,,,,4,,,82,0
115968,note_on,288,0,6,,,,,,,,5,,,82,0
115992,note_on,312,0,3,,,,,,,,2,,,58,0
115992,note_on,312,0,9,,,,,,,,8,,,38,0
115992,note_on,0,0,3,,,,,,,,2,,,70,0
115992,note_on,312,0,7,,,,,,,,6,,,62,0
115992,note_on,312,0,8,,,,,,,,7,,,50,0
115992,note_on,312,0,2,,,,,,,,1,,,50,0
116160,note_on,168,0,7,,,,,,,,6,,,63,105
116160,note_on,192,0,5,,,,,,,,4,,,72,105
116160,note_on,0,0,3,,,,,,,,2,,,70,105
116160,note_on,168,0,3,,,,,,,,2,,,58,105
116160,note_on,168,0,2,,,,,,,,1,,,51,105
116160,note_on,168,0,9,,,,,,,,8,,,39,105
116160,note_on,168,0,8,,,,,,,,7,,,51,105
116160,note_on,192,0,1,,,,,,,,0,,,72,105
116160,note_on,192,0,6,,,,,,,,5,,,72,105
116448,note_on,288,0,1,,,,,,,,0,,,82,0
116448,note_on,288,0,5,,,,,,,,4,,,72,0
116448,note_on,288,0,6,,,,,,,,5,,,72,0
116472,note_on,312,0,7,,,,,,,,6,,,63,0
116472,note_on,312,0,8,,,,,,,,7,,,51,0
116472,note_on,0,0,3,,,,,,,,2,,,58,0
116472,note_on,312,0,2,,,,,,,,1,,,51,0
116472,note_on,312,0,3,,,,,,,,2,,,70,0
116472,note_on,312,0,9,,,,,,,,8,,,39,0
116640,note_on,168,0,3,,,,,,,,2,,,65,105
116640,note_on,192,0,1,,,,,,,,0,,,81,105
116640,note_on,168,0,8,,,,,,,,7,,,53,105
116640,note_on,168,0,7,,,,,,,,6,,,65,105
116640,note_on,192,0,5,,,,,,,,4,,,81,105
116640,note_on,192,0,6,,,,,,,,5,,,81,105
116640,note_on,168,0,2,,,,,,,,1,,,53,105
116640,note_on,168,0,9,,,,,,,,8,,,41,105
116928,note_on,288,0,6,,,,,,,,5,,,81,0
116928,note_on,288,0,1,,,,,,,,0,,,81,0
116928,note_on,0,0,1,,,,,,,,0,,,72,0
116928,note_on,288,0,5,,,,,,,,4,,,81,0
116952,note_on,312,0,2,,,,,,,,1,,,53,0
116952,note_on,312,0,8,,,,,,,,7,,,53,0
116952,note_on,312,0,3,,,,,,,,2,,,65,0
116952,note_on,312,0,7,,,,,,,,6,,,65,0
116952,note_on,312,0,9,,,,,,,,8,,,41,0
117120,note_on,168,0,2,,,,,,,,1,,,58,105
117120,note_on,192,0,6,,,,,,,,5,,,82,105
117120,note_on,168,0,9,,,,,,,,8,,,46,105
117120,note_on,168,0,8,,,,,,,,7,,,58,105
117120,note_on,192,0,1,,,,,,,,0,,,82,105
117120,note_on,0,0,1,,,,,,,,0,,,70,105
117120,note_on,168,0,7,,,,,,,,6,,,70,105
117120,note_on,0,0,3,,,,,,,,2,,,62,105
117120,note_on,168,0,3,,,,,,,,2,,,58,105
117120,note_on,192,0,5,,,,,,,,4,,,82,105
117432,note_on,312,0,8,,,,,,,,7,,,58,0
117432,note_on,312,0,2,,,,,,,,1,,,58,0
117432,note_on,312,0,6,,,,,,,,5,,,82,0
117432,note_on,312,0,5,,,,,,,,4,,,82,0
117432,note_on,312,0,7,,,,,,,,6,,,70,0
117432,note_on,312,0,9,,,,,,,,8,,,46,0
117504,note_on,0,0,3,,,,,,,,2,,,58,0
117504,note_on,384,0,3,,,,,,,,2,,,62,0
117504,note_on,384,0,1,,,,,,,,0,,,70,0
117504,note_on,0,0,1,,,,,,,,0,,,82,0
117600,note_on,168,0,2,,,,,,,,1,,,46,105
117600,note_on,168,0,8,,,,,,,,7,,,46,105
117600,note_on,168,0,6,,,,,,,,5,,,58,105
117600,note_on,168,0,7,,,,,,,,6,,,58,105
117600,note_on,168,0,5,,,,,,,,4,,,58,105
117600,note_on,168,0,9,,,,,,,,8,,,34,105
117912,note_on,312,0,6,,,,,,,,5,,,58,0
117912,note_on,312,0,2,,,,,,,,1,,,46,0
117912,note_on,312,0,7,,,,,,,,6,,,58,0
117912,note_on,312,0,5,,,,,,,,4,,,58,0
117912,note_on,312,0,8,,,,,,,,7,,,46,0
117912,note_on,312,0,9,,,,,,,,8,,,34,0
118080,note_on,168,0,5,,,,,,,,4,,,74,105
118080,note_on,168,0,6,,,,,,,,5,,,74,105
118080,note_on,168,0,9,,,,,,,,8,,,50,105
118080,note_on,168,0,7,,,,,,,,6,,,74,105
118080,note_on,168,0,8,,,,,,,,7,,,62,105
118080,note_on,576,0,1,,,,,,,,0,,,74,105
118080,note_on,168,0,2,,,,,,,,1,,,62,105
118656,note_on,576,0,9,,,,,,,,8,,,50,0
118656,note_on,576,0,8,,,,,,,,7,,,62,0
118656,note_on,576,0,1,,,,,,,,0,,,74,0
118656,note_on,576,0,2,,,,,,,,1,,,62,0
118656,note_on,576,0,6,,,,,,,,5,,,74,0
118656,note_on,576,0,5,,,,,,,,4,,,74,0
118656,note_on,576,0,7,,,,,,,,6,,,74,0
118800,note_on,144,0,1,,,,,,,,0,,,72,105
118800,note_on,144,0,5,,,,,,,,4,,,72,105
118800,note_on,144,0,2,,,,,,,,1,,,60,105
118800,note_on,144,0,9,,,,,,,,8,,,48,105
118800,note_on,144,0,8,,,,,,,,7,,,60,105
118800,note_on,144,0,7,,,,,,,,6,,,72,105
118800,note_on,144,0,6,,,,,,,,5,,,72,105
118992,note_on,192,0,5,,,,,,,,4,,,72,0
118992,note_on,192,0,2,,,,,,,,1,,,60,0
118992,note_on,192,0,8,,,,,,,,7,,,60,0
118992,note_on,192,0,7,,,,,,,,6,,,72,0
118992,note_on,192,0,1,,,,,,,,0,,,72,0
118992,note_on,192,0,6,,,,,,,,5,,,72,0
118992,note_on,192,0,9,,,,,,,,8,,,48,0
119040,note_on,48,0,2,,,,,,,,1,,,58,105
119040,note_on,48,0,9,,,,,,,,8,,,46,105
119040,note_on,48,0,6,,,,,,,,5,,,70,105
119040,note_on,48,0,7,,,,,,,,6,,,70,105
119040,note_on,48,0,8,,,,,,,,7,,,58,105
119040,note_on,48,0,1,,,,,,,,0,,,70,105
119040,note_on,48,0,5,,,,,,,,4,,,70,105
119616,note_on,576,0,1,,,,,,,,0,,,70,0
119616,note_on,576,0,8,,,,,,,,7,,,58,0
119616,note_on,576,0,5,,,,,,,,4,,,70,0
119616,note_on,576,0,6,,,,,,,,5,,,70,0
119616,note_on,576,0,9,,,,,,,,8,,,46,0
119616,note_on,576,0,7,,,,,,,,6,,,70,0
119616,note_on,576,0,2,,,,,,,,1,,,58,0
119760,note_on,144,0,2,,,,,,,,1,,,57,105
119760,note_on,144,0,8,,,,,,,,7,,,57,105
119760,note_on,144,0,9,,,,,,,,8,,,45,105
119760,note_on,144,0,6,,,,,,,,5,,,69,105
119760,note_on,144,0,7,,,,,,,,6,,,69,105
119760,note_on,144,0,1,,,,,,,,0,,,69,105
119760,note_on,144,0,5,,,,,,,,4,,,69,105
119952,note_on,192,0,2,,,,,,,,1,,,57,0
119952,note_on,192,0,9,,,,,,,,8,,,45,0
119952,note_on,192,0,6,,,,,,,,5,,,69,0
119952,note_on,192,0,1,,,,,,,,0,,,69,0
119952,note_on,192,0,7,,,,,,,,6,,,69,0
119952,note_on,192,0,5,,,,,,,,4,,,69,0
119952,note_on,192,0,8,,,,,,,,7,,,57,0
120000,note_on,48,0,8,,,,,,,,7,,,55,105
120000,note_on,48,0,1,,,,,,,,0,,,67,105
120000,note_on,48,0,9,,,,,,,,8,,,43,105
120000,note_on,48,0,6,,,,,,,,5,,,67,105
120000,note_on,48,0,7,,,,,,,,6,,,67,105
120000,note_on,48,0,5,,,,,,,,4,,,67,105
120000,note_on,48,0,2,,,,,,,,1,,,55,105
120576,note_on,576,0,2,,,,,,,,1,,,55,0
120576,note_on,576,0,1,,,,,,,,0,,,67,0
120576,note_on,576,0,9,,,,,,,,8,,,43,0
120576,note_on,576,0,6,,,,,,,,5,,,67,0
120576,note_on,576,0,7,,,,,,,,6,,,67,0
120576,note_on,576,0,5,,,,,,,,4,,,67,0
120576,note_on,576,0,8,,,,,,,,7,,,55,0
120720,note_on,144,0,1,,,,,,,,0,,,65,105
120720,note_on,144,0,9,,,,,,,,8,,,41,105
120720,note_on,144,0,7,,,,,,,,6,,,65,105
120720,note_on,144,0,8,,,,,,,,7,,,53,105
120720,note_on,144,0,6,,,,,,,,5,,,65,105
120720,note_on,144,0,2,,,,,,,,1,,,53,105
120720,note_on,144,0,5,,,,,,,,4,,,65,105
120912,note_on,192,0,1,,,,,,,,0,,,65,0
120912,note_on,192,0,2,,,,,,,,1,,,53,0
120912,note_on,192,0,7,,,,,,,,6,,,65,0
120912,note_on,192,0,9,,,,,,,,8,,,41,0
120912,note_on,192,0,6,,,,,,,,5,,,65,0
120912,note_on,192,0,8,,,,,,,,7,,,53,0
120912,note_on,192,0,5,,,,,,,,4,,,65,0
120960,note_on,48,0,9,,,,,,,,8,,,39,105
120960,note_on,48,0,6,,,,,,,,5,,,63,105
120960,note_on,48,0,8,,,,,,,,7,,,51,105
120960,note_on,48,0,7,,,,,,,,6,,,63,105
120960,note_on,48,0,2,,,,,,,,1,,,51,105
120960,note_on,48,0,5,,,,,,,,4,,,63,105
120960,note_on,48,0,1,,,,,,,,0,,,63,105
121272,note_on,312,0,5,,,,,,,,4,,,63,0
121272,note_on,312,0,6,,,,,,,,5,,,63,0
121344,note_on,384,0,8,,,,,,,,7,,,51,0
121344,note_on,384,0,7,,,,,,,,6,,,63,0
121344,note_on,384,0,9,,,,,,,,8,,,39,0
121344,note_on,384,0,1,,,,,,,,0,,,63,0
121344,note_on,384,0,2,,,,,,,,1,,,51,0
121440,note_on,96,0,8,,,,,,,,7,,,63,92
121440,note_on,96,0,9,,,,,,,,8,,,51,105
121440,note_on,96,0,2,,,,,,,,1,,,63,105
121440,note_on,168,0,6,,,,,,,,5,,,65,116
121440,note_on,168,0,5,,,,,,,,4,,,69,116
121440,note_on,96,0,7,,,,,,,,6,,,63,92
121632,note_on,192,0,5,,,,,,,,4,,,69,0
121632,note_on,192,0,8,,,,,,,,7,,,63,0
121632,note_on,192,0,9,,,,,,,,8,,,51,0
121632,note_on,192,0,2,,,,,,,,1,,,63,0
121632,note_on,192,0,6,,,,,,,,5,,,65,0
121632,note_on,192,0,7,,,,,,,,6,,,63,0
121680,note_on,48,0,7,,,,,,,,6,,,62,92
121680,note_on,48,0,9,,,,,,,,8,,,50,105
121680,note_on,48,0,5,,,,,,,,4,,,70,116
121680,note_on,48,0,2,,,,,,,,1,,,62,105
121680,note_on,48,0,8,,,,,,,,7,,,62,92
121680,note_on,48,0,6,,,,,,,,5,,,67,116
121872,note_on,192,0,9,,,,,,,,8,,,50,0
121872,note_on,192,0,2,,,,,,,,1,,,62,0
121872,note_on,192,0,8,,,,,,,,7,,,62,0
121872,note_on,192,0,7,,,,,,,,6,,,62,0
121872,note_on,192,0,5,,,,,,,,4,,,70,0
121872,note_on,192,0,6,,,,,,,,5,,,67,0
121920,note_on,48,0,8,,,,,,,,7,,,60,92
121920,note_on,48,0,5,,,,,,,,4,,,72,116
121920,note_on,48,0,9,,,,,,,,8,,,48,105
121920,note_on,48,0,6,,,,,,,,5,,,69,116
121920,note_on,48,0,7,,,,,,,,6,,,60,92
121920,note_on,48,0,2,,,,,,,,1,,,60,105
122112,note_on,192,0,5,,,,,,,,4,,,72,0
122112,note_on,192,0,8,,,,,,,,7,,,60,0
122112,note_on,192,0,7,,,,,,,,6,,,60,0
122112,note_on,192,0,6,,,,,,,,5,,,69,0
122112,note_on,192,0,2,,,,,,,,1,,,60,0
122112,note_on,192,0,9,,,,,,,,8,,,48,0
122160,note_on,48,0,9,,,,,,,,8,,,46,105
122160,note_on,48,0,6,,,,,,,,5,,,70,116
122160,note_on,48,0,7,,,,,,,,6,,,58,92
122160,note_on,48,0,2,,,,,,,,1,,,58,105
122160,note_on,48,0,5,,,,,,,,4,,,74,116
122160,note_on,48,0,8,,,,,,,,7,,,58,92
122352,note_on,192,0,8,,,,,,,,7,,,58,0
122352,note_on,192,0,2,,,,,,,,1,,,58,0
122352,note_on,192,0,9,,,,,,,,8,,,46,0
122352,note_on,192,0,6,,,,,,,,5,,,70,0
122352,note_on,192,0,7,,,,,,,,6,,,58,0
122352,note_on,192,0,5,,,,,,,,4,,,74,0
122400,note_on,48,0,5,,,,,,,,4,,,75,116
122400,note_on,48,0,2,,,,,,,,1,,,57,105
122400,note_on,48,0,9,,,,,,,,8,,,45,105
122400,note_on,48,0,6,,,,,,,,5,,,72,116
122400,note_on,48,0,7,,,,,,,,6,,,57,92
122400,note_on,48,0,8,,,,,,,,7,,,57,92
122592,note_on,192,0,5,,,,,,,,4,,,75,0
122592,note_on,192,0,9,,,,,,,,8,,,45,0
122592,note_on,192,0,2,,,,,,,,1,,,57,0
122592,note_on,192,0,8,,,,,,,,7,,,57,0
122592,note_on,192,0,7,,,,,,,,6,,,57,0
122592,note_on,192,0,6,,,,,,,,5,,,72,0
122640,note_on,48,0,6,,,,,,,,5,,,70,116
122640,note_on,48,0,2,,,,,,,,1,,,58,105
122640,note_on,48,0,7,,,,,,,,6,,,58,92
122640,note_on,48,0,9,,,,,,,,8,,,46,105
122640,note_on,48,0,5,,,,,,,,4,,,74,116
122640,note_on,48,0,8,,,,,,,,7,,,58,92
122832,note_on,192,0,2,,,,,,,,1,,,58,0
122832,note_on,192,0,7,,,,,,,,6,,,58,0
122832,note_on,192,0,8,,,,,,,,7,,,58,0
122832,note_on,192,0,5,,,,,,,,4,,,74,0
122832,note_on,192,0,9,,,,,,,,8,,,46,0
122832,note_on,192,0,6,,,,,,,,5,,,70,0
122880,note_on,48,0,8,,,,,,,,7,,,57,92
122880,note_on,48,0,6,,,,,,,,5,,,72,116
122880,note_on,48,0,7,,,,,,,,6,,,57,92
122880,note_on,48,0,2,,,,,,,,1,,,57,105
122880,note_on,0,0,1,,,,,,,,0,,,72,105
122880,note_on,48,0,5,,,,,,,,4,,,75,116
122880,note_on,48,0,9,,,,,,,,8,,,45,105
122880,note_on,5376,0,3,,,,,,,,2,,,65,105
122880,note_on,0,0,3,,,,,,,,2,,,65,105
122880,note_on,1536,0,1,,,,,,,,0,,,75,105
123192,note_on,312,0,5,,,,,,,,4,,,75,0
123192,note_on,312,0,6,,,,,,,,5,,,72,0
123264,note_on,384,0,3,,,,,,,,2,,,65,0
123264,note_on,384,0,1,,,,,,,,0,,,72,0
123264,note_on,0,0,1,,,,,,,,0,,,75,0
123264,note_on,0,0,3,,,,,,,,2,,,65,0
123264,note_on,384,0,7,,,,,,,,6,,,57,0
123264,note_on,384,0,9,,,,,,,,8,,,45,0
123264,note_on,384,0,8,,,,,,,,7,,,57,0
123264,note_on,384,0,2,,,,,,,,1,,,57,0
123360,note_on,168,0,5,,,,,,,,4,,,69,116
123360,note_on,96,0,7,,,,,,,,6,,,63,92
123360,note_on,96,0,2,,,,,,,,1,,,63,105
123360,note_on,96,0,8,,,,,,,,7,,,63,92
123360,note_on,96,0,9,,,,,,,,8,,,51,105
123360,note_on,168,0,6,,,,,,,,5,,,65,116
123552,note_on,192,0,6,,,,,,,,5,,,65,0
123552,note_on,192,0,5,,,,,,,,4,,,69,0
123552,note_on,192,0,9,,,,,,,,8,,,51,0
123552,note_on,192,0,2,,,,,,,,1,,,63,0
123552,note_on,192,0,8,,,,,,,,7,,,63,0
123552,note_on,192,0,7,,,,,,,,6,,,63,0
123600,note_on,48,0,5,,,,,,,,4,,,70,116
123600,note_on,48,0,2,,,,,,,,1,,,62,105
123600,note_on,48,0,9,,,,,,,,8,,,50,105
123600,note_on,48,0,6,,,,,,,,5,,,67,116
123600,note_on,48,0,7,,,,,,,,6,,,62,92
123600,note_on,48,0,8,,,,,,,,7,,,62,92
123792,note_on,192,0,7,,,,,,,,6,,,62,0
123792,note_on,192,0,9,,,,,,,,8,,,50,0
123792,note_on,192,0,8,,,,,,,,7,,,62,0
123792,note_on,192,0,5,,,,,,,,4,,,70,0
123792,note_on,192,0,6,,,,,,,,5,,,67,0
123792,note_on,192,0,2,,,,,,,,1,,,62,0
123840,note_on,48,0,2,,,,,,,,1,,,60,105
123840,note_on,48,0,8,,,,,,,,7,,,60,92
123840,note_on,48,0,9,,,,,,,,8,,,48,105
123840,note_on,48,0,5,,,,,,,,4,,,72,116
123840,note_on,48,0,7,,,,,,,,6,,,60,92
123840,note_on,48,0,6,,,,,,,,5,,,69,116
124032,note_on,192,0,2,,,,,,,,1,,,60,0
124032,note_on,192,0,7,,,,,,,,6,,,60,0
124032,note_on,192,0,6,,,,,,,,5,,,69,0
124032,note_on,192,0,5,,,,,,,,4,,,72,0
124032,note_on,192,0,9,,,,,,,,8,,,48,0
124032,note_on,192,0,8,,,,,,,,7,,,60,0
124080,note_on,48,0,6,,,,,,,,5,,,70,116
124080,note_on,48,0,7,,,,,,,,6,,,58,92
124080,note_on,48,0,2,,,,,,,,1,,,58,105
124080,note_on,48,0,9,,,,,,,,8,,,46,105
124080,note_on,48,0,5,,,,,,,,4,,,74,116
124080,note_on,48,0,8,,,,,,,,7,,,58,92
124272,note_on,192,0,6,,,,,,,,5,,,70,0
124272,note_on,192,0,9,,,,,,,,8,,,46,0
124272,note_on,192,0,7,,,,,,,,6,,,58,0
124272,note_on,192,0,2,,,,,,,,1,,,58,0
124272,note_on,192,0,5,,,,,,,,4,,,74,0
124272,note_on,192,0,8,,,,,,,,7,,,58,0
124320,note_on,48,0,8,,,,,,,,7,,,57,92
124320,note_on,48,0,2,,,,,,,,1,,,57,105
124320,note_on,48,0,9,,,,,,,,8,,,45,105
124320,note_on,48,0,7,,,,,,,,6,,,57,92
124320,note_on,48,0,5,,,,,,,,4,,,75,116
124320,note_on,48,0,6,,,,,,,,5,,,72,116
124512,note_on,192,0,8,,,,,,,,7,,,57,0
124512,note_on,192,0,5,,,,,,,,4,,,75,0
124512,note_on,192,0,9,,,,,,,,8,,,45,0
124512,note_on,192,0,6,,,,,,,,5,,,72,0
124512,note_on,192,0,2,,,,,,,,1,,,57,0
124512,note_on,192,0,7,,,,,,,,6,,,57,0
124560,note_on,48,0,9,,,,,,,,8,,,46,105
124560,note_on,48,0,2,,,,,,,,1,,,58,105
124560,note_on,48,0,6,,,,,,,,5,,,70,116
124560,note_on,48,0,7,,,,,,,,6,,,58,92
124560,note_on,48,0,8,,,,,,,,7,,,58,92
124560,note_on,48,0,5,,,,,,,,4,,,74,116
124752,note_on,192,0,6,,,,,,,,5,,,70,0
124752,note_on,192,0,7,,,,,,,,6,,,58,0
124752,note_on,192,0,5,,,,,,,,4,,,74,0
124752,note_on,192,0,2,,,,,,,,1,,,58,0
124752,note_on,192,0,9,,,,,,,,8,,,46,0
124752,note_on,192,0,8,,,,,,,,7,,,58,0
124800,note_on,48,0,5,,,,,,,,4,,,75,116
124800,note_on,0,0,1,,,,,,,,0,,,72,105
124800,note_on,1536,0,1,,,,,,,,0,,,75,105
124800,note_on,48,0,6,,,,,,,,5,,,72,116
124800,note_on,48,0,7,,,,,,,,6,,,57,92
124800,note_on,48,0,2,,,,,,,,1,,,57,105
124800,note_on,48,0,8,,,,,,,,7,,,57,92
124800,note_on,48,0,9,,,,,,,,8,,,45,105
124800,note_on,0,0,3,,,,,,,,2,,,65,105
124800,note_on,1536,0,3,,,,,,,,2,,,65,105
125112,note_on,312,0,6,,,,,,,,5,,,72,0
125112,note_on,312,0,5,,,,,,,,4,,,75,0
125184,note_on,384,0,8,,,,,,,,7,,,57,0
125184,note_on,384,0,9,,,,,,,,8,,,45,0
125184,note_on,0,0,1,,,,,,,,0,,,75,0
125184,note_on,384,0,7,,,,,,,,6,,,57,0
125184,note_on,384,0,1,,,,,,,,0,,,72,0
125184,note_on,384,0,3,,,,,,,,2,,,65,0
125184,note_on,0,0,3,,,,,,,,2,,,65,0
125184,note_on,384,0,2,,,,,,,,1,,,57,0
125280,note_on,96,0,7,,,,,,,,6,,,63,92
125280,note_on,96,0,2,,,,,,,,1,,,63,105
125280,note_on,96,0,8,,,,,,,,7,,,63,92
125280,note_on,96,0,9,,,,,,,,8,,,51,105
125280,note_on,168,0,6,,,,,,,,5,,,65,116
125280,note_on,168,0,5,,,,,,,,4,,,69,116
125472,note_on,192,0,5,,,,,,,,4,,,69,0
125472,note_on,192,0,9,,,,,,,,8,,,51,0
125472,note_on,192,0,7,,,,,,,,6,,,63,0
125472,note_on,192,0,2,,,,,,,,1,,,63,0
125472,note_on,192,0,8,,,,,,,,7,,,63,0
125472,note_on,192,0,6,,,,,,,,5,,,65,0
125520,note_on,48,0,5,,,,,,,,4,,,70,116
125520,note_on,48,0,9,,,,,,,,8,,,50,105
125520,note_on,48,0,2,,,,,,,,1,,,62,105
125520,note_on,48,0,6,,,,,,,,5,,,67,116
125520,note_on,48,0,8,,,,,,,,7,,,62,92
125520,note_on,48,0,7,,,,,,,,6,,,62,92
125712,note_on,192,0,5,,,,,,,,4,,,70,0
125712,note_on,192,0,9,,,,,,,,8,,,50,0
125712,note_on,192,0,6,,,,,,,,5,,,67,0
125712,note_on,192,0,2,,,,,,,,1,,,62,0
125712,note_on,192,0,7,,,,,,,,6,,,62,0
125712,note_on,192,0,8,,,,,,,,7,,,62,0
125760,note_on,48,0,6,,,,,,,,5,,,69,116
125760,note_on,48,0,8,,,,,,,,7,,,60,92
125760,note_on,48,0,2,,,,,,,,1,,,60,105
125760,note_on,48,0,9,,,,,,,,8,,,48,105
125760,note_on,48,0,5,,,,,,,,4,,,72,116
125760,note_on,48,0,7,,,,,,,,6,,,60,92
125952,note_on,192,0,7,,,,,,,,6,,,60,0
125952,note_on,192,0,5,,,,,,,,4,,,72,0
125952,note_on,192,0,6,,,,,,,,5,,,69,0
125952,note_on,192,0,8,,,,,,,,7,,,60,0
125952,note_on,192,0,2,,,,,,,,1,,,60,0
125952,note_on,192,0,9,,,,,,,,8,,,48,0
126000,note_on,48,0,9,,,,,,,,8,,,46,105
126000,note_on,48,0,8,,,,,,,,7,,,58,92
126000,note_on,48,0,6,,,,,,,,5,,,70,116
126000,note_on,48,0,7,,,,,,,,6,,,58,92
126000,note_on,48,0,5,,,,,,,,4,,,74,116
126000,note_on,48,0,2,,,,,,,,1,,,58,105
126192,note_on,192,0,2,,,,,,,,1,,,58,0
126192,note_on,192,0,5,,,,,,,,4,,,74,0
126192,note_on,192,0,9,,,,,,,,8,,,46,0
126192,note_on,192,0,8,,,,,,,,7,,,58,0
126192,note_on,192,0,6,,,,,,,,5,,,70,0
126192,note_on,192,0,7,,,,,,,,6,,,58,0
126240,note_on,48,0,5,,,,,,,,4,,,75,116
126240,note_on,48,0,9,,,,,,,,8,,,45,105
126240,note_on,48,0,8,,,,,,,,7,,,57,92
126240,note_on,48,0,6,,,,,,,,5,,,72,116
126240,note_on,48,0,7,,,,,,,,6,,,57,92
126240,note_on,48,0,2,,,,,,,,1,,,57,105
126432,note_on,192,0,9,,,,,,,,8,,,45,0
126432,note_on,192,0,6,,,,,,,,5,,,72,0
126432,note_on,192,0,7,,,,,,,,6,,,57,0
126432,note_on,192,0,8,,,,,,,,7,,,57,0
126432,note_on,192,0,5,,,,,,,,4,,,75,0
126432,note_on,192,0,2,,,,,,,,1,,,57,0
126480,note_on,48,0,8,,,,,,,,7,,,58,92
126480,note_on,48,0,7,,,,,,,,6,,,58,92
126480,note_on,48,0,2,,,,,,,,1,,,58,105
126480,note_on,48,0,5,,,,,,,,4,,,74,116
126480,note_on,48,0,6,,,,,,,,5,,,70,116
126480,note_on,48,0,9,,,,,,,,8,,,46,105
126672,note_on,192,0,6,,,,,,,,5,,,70,0
126672,note_on,192,0,2,,,,,,,,1,,,58,0
126672,note_on,192,0,5,,,,,,,,4,,,74,0
126672,note_on,192,0,7,,,,,,,,6,,,58,0
126672,note_on,192,0,9,,,,,,,,8,,,46,0
126672,note_on,192,0,8,,,,,,,,7,,,58,0
126720,note_on,48,0,5,,,,,,,,4,,,75,116
126720,note_on,1536,0,3,,,,,,,,2,,,65,105
126720,note_on,48,0,2,,,,,,,,1,,,57,105
126720,note_on,48,0,8,,,,,,,,7,,,57,92
126720,note_on,0,0,3,,,,,,,,2,,,65,105
126720,note_on,48,0,6,,,,,,,,5,,,72,116
126720,note_on,48,0,9,,,,,,,,8,,,45,105
126720,note_on,1536,0,1,,,,,,,,0,,,72,105
126720,note_on,0,0,1,,,,,,,,0,,,75,105
126720,note_on,48,0,7,,,,,,,,6,,,57,92
127032,note_on,312,0,8,,,,,,,,7,,,57,0
127032,note_on,0,0,3,,,,,,,,2,,,65,0
127032,note_on,312,0,3,,,,,,,,2,,,65,0
127032,note_on,312,0,5,,,,,,,,4,,,75,0
127032,note_on,312,0,9,,,,,,,,8,,,45,0
127032,note_on,312,0,1,,,,,,,,0,,,75,0
127032,note_on,0,0,1,,,,,,,,0,,,72,0
127032,note_on,312,0,6,,,,,,,,5,,,72,0
127032,note_on,312,0,7,,,,,,,,6,,,57,0
127104,note_on,384,0,2,,,,,,,,1,,,57,0
127200,note_on,0,0,3,,,,,,,,2,,,70,105
127200,note_on,168,0,1,,,,,,,,0,,,74,105
127200,note_on,0,0,1,,,,,,,,0,,,70,105
127200,note_on,168,0,7,,,,,,,,6,,,58,92
127200,note_on,168,0,9,,,,,,,,8,,,46,105
127200,note_on,168,0,3,,,,,,,,2,,,58,105
127200,note_on,96,0,2,,,,,,,,1,,,58,105
127200,note_on,168,0,8,,,,,,,,7,,,58,92
127200,note_on,168,0,6,,,,,,,,5,,,70,116
127200,note_on,168,0,5,,,,,,,,4,,,74,116
127512,note_on,312,0,6,,,,,,,,5,,,70,0
127512,note_on,312,0,1,,,,,,,,0,,,74,0
127512,note_on,312,0,9,,,,,,,,8,,,46,0
127512,note_on,312,0,7,,,,,,,,6,,,58,0
127512,note_on,312,0,5,,,,,,,,4,,,74,0
127512,note_on,312,0,8,,,,,,,,7,,,58,0
127584,note_on,384,0,2,,,,,,,,1,,,58,0
127680,note_on,168,0,1,,,,,,,,0,,,72,105
127680,note_on,168,0,7,,,,,,,,6,,,63,92
127680,note_on,96,0,2,,,,,,,,1,,,51,105
127680,note_on,168,0,5,,,,,,,,4,,,79,116
127680,note_on,168,0,8,,,,,,,,7,,,51,92
127680,note_on,168,0,9,,,,,,,,8,,,39,105
127680,note_on,168,0,6,,,,,,,,5,,,70,116
127968,note_on,0,0,3,,,,,,,,2,,,58,0
127968,note_on,768,0,3,,,,,,,,2,,,70,0
127992,note_on,312,0,7,,,,,,,,6,,,63,0
127992,note_on,312,0,8,,,,,,,,7,,,51,0
127992,note_on,312,0,6,,,,,,,,5,,,70,0
127992,note_on,312,0,5,,,,,,,,4,,,79,0
127992,note_on,312,0,9,,,,,,,,8,,,39,0
127992,note_on,312,0,1,,,,,,,,0,,,70,0
128064,note_on,384,0,2,,,,,,,,1,,,51,0
128160,note_on,0,0,6,,,,,,,,5,,,63,116
128160,note_on,168,0,9,,,,,,,,8,,,41,105
128160,note_on,168,0,7,,,,,,,,6,,,65,92
128160,note_on,168,0,6,,,,,,,,5,,,60,116
128160,note_on,192,0,3,,,,,,,,2,,,65,105
128160,note_on,168,0,5,,,,,,,,4,,,69,116
128160,note_on,168,0,8,,,,,,,,7,,,53,92
128160,note_on,96,0,2,,,,,,,,1,,,53,105
128160,note_on,168,0,1,,,,,,,,0,,,69,105
128472,note_on,312,0,1,,,,,,,,0,,,69,0
128472,note_on,0,0,6,,,,,,,,5,,,60,0
128472,note_on,312,0,7,,,,,,,,6,,,65,0
128472,note_on,312,0,6,,,,,,,,5,,,63,0
128472,note_on,312,0,9,,,,,,,,8,,,41,0
128472,note_on,312,0,5,,,,,,,,4,,,69,0
128472,note_on,312,0,8,,,,,,,,7,,,53,0
128472,note_on,0,0,1,,,,,,,,0,,,72,0
128544,note_on,384,0,3,,,,,,,,2,,,65,0
128544,note_on,384,0,2,,,,,,,,1,,,53,0
128640,note_on,0,0,3,,,,,,,,2,,,58,92
128640,note_on,168,0,5,,,,,,,,4,,,70,110
128640,note_on,168,0,1,,,,,,,,0,,,70,92
128640,note_on,168,0,7,,,,,,,,6,,,58,110
128640,note_on,96,0,2,,,,,,,,1,,,46,110
128640,set_tempo,78720,1,0,,,,,,309278,,,,,,
128640,note_on,168,0,8,,,,,,,,7,,,46,110
128640,note_on,96,0,3,,,,,,,,2,,,62,92
128640,note_on,168,0,9,,,,,,,,8,,,34,110
128640,note_on,168,0,6,,,,,,,,5,,,58,110
128640,note_on,0,0,6,,,,,,,,5,,,62,70
128952,note_on,312,0,6,,,,,,,,5,,,62,0
128952,note_on,0,0,6,,,,,,,,5,,,58,0
128952,note_on,312,0,5,,,,,,,,4,,,70,0
129024,note_on,384,0,2,,,,,,,,1,,,46,0
129024,note_on,384,0,9,,,,,,,,8,,,34,0
129024,note_on,384,0,8,,,,,,,,7,,,46,0
129024,note_on,384,0,3,,,,,,,,2,,,58,0
129024,note_on,0,0,3,,,,,,,,2,,,62,0
129024,note_on,384,0,1,,,,,,,,0,,,70,0
129024,note_on,384,0,7,,,,,,,,6,,,58,0
129120,note_on,96,0,9,,,,,,,,8,,,39,58
129120,note_on,96,0,2,,,,,,,,1,,,51,70
129120,note_on,168,0,5,,,,,,,,4,,,69,70
129120,note_on,168,0,6,,,,,,,,5,,,65,70
129120,note_on,96,0,8,,,,,,,,7,,,51,58
129312,note_on,192,0,5,,,,,,,,4,,,69,0
129312,note_on,192,0,2,,,,,,,,1,,,51,0
129312,note_on,192,0,9,,,,,,,,8,,,39,0
129312,note_on,192,0,6,,,,,,,,5,,,65,0
129312,note_on,192,0,8,,,,,,,,7,,,51,0
129360,note_on,48,0,2,,,,,,,,1,,,50,70
129360,note_on,48,0,9,,,,,,,,8,,,38,58
129360,note_on,48,0,8,,,,,,,,7,,,50,58
129360,note_on,48,0,6,,,,,,,,5,,,67,70
129360,note_on,48,0,5,,,,,,,,4,,,70,70
129552,note_on,192,0,6,,,,,,,,5,,,67,0
129552,note_on,192,0,9,,,,,,,,8,,,38,0
129552,note_on,192,0,2,,,,,,,,1,,,50,0
129552,note_on,192,0,5,,,,,,,,4,,,70,0
129552,note_on,192,0,8,,,,,,,,7,,,50,0
129600,note_on,48,0,9,,,,,,,,8,,,36,58
129600,note_on,48,0,2,,,,,,,,1,,,48,70
129600,note_on,48,0,5,,,,,,,,4,,,72,70
129600,note_on,48,0,8,,,,,,,,7,,,48,58
129600,note_on,48,0,6,,,,,,,,5,,,69,70
129792,note_on,192,0,5,,,,,,,,4,,,72,0
129792,note_on,192,0,8,,,,,,,,7,,,48,0
129792,note_on,192,0,9,,,,,,,,8,,,36,0
129792,note_on,192,0,2,,,,,,,,1,,,48,0
129792,note_on,192,0,6,,,,,,,,5,,,69,0
129840,note_on,48,0,8,,,,,,,,7,,,46,58
129840,note_on,48,0,5,,,,,,,,4,,,74,70
129840,note_on,48,0,6,,,,,,,,5,,,70,70
129840,note_on,48,0,2,,,,,,,,1,,,46,70
129840,note_on,48,0,9,,,,,,,,8,,,34,58
130032,note_on,192,0,5,,,,,,,,4,,,74,0
130032,note_on,192,0,6,,,,,,,,5,,,70,0
130032,note_on,192,0,9,,,,,,,,8,,,34,0
130032,note_on,192,0,2,,,,,,,,1,,,46,0
130032,note_on,192,0,8,,,,,,,,7,,,46,0
130080,note_on,48,0,8,,,,,,,,7,,,45,58
130080,note_on,48,0,2,,,,,,,,1,,,45,70
130080,note_on,48,0,9,,,,,,,,8,,,33,58
130080,note_on,48,0,5,,,,,,,,4,,,75,70
130080,note_on,48,0,6,,,,,,,,5,,,72,70
130272,note_on,192,0,9,,,,,,,,8,,,33,0
130272,note_on,192,0,8,,,,,,,,7,,,45,0
130272,note_on,192,0,2,,,,,,,,1,,,45,0
130272,note_on,192,0,5,,,,,,,,4,,,75,0
130272,note_on,192,0,6,,,,,,,,5,,,72,0
130320,note_on,48,0,5,,,,,,,,4,,,74,70
130320,note_on,48,0,8,,,,,,,,7,,,46,58
130320,note_on,48,0,6,,,,,,,,5,,,70,70
130320,note_on,48,0,2,,,,,,,,1,,,46,70
130320,note_on,48,0,9,,,,,,,,8,,,34,58
130512,note_on,192,0,8,,,,,,,,7,,,46,0
130512,note_on,192,0,5,,,,,,,,4,,,74,0
130512,note_on,192,0,2,,,,,,,,1,,,46,0
130512,note_on,192,0,6,,,,,,,,5,,,70,0
130512,note_on,192,0,9,,,,,,,,8,,,34,0
130560,note_on,48,0,6,,,,,,,,5,,,72,70
130560,note_on,48,0,8,,,,,,,,7,,,45,58
130560,note_on,48,0,9,,,,,,,,8,,,33,58
130560,note_on,48,0,5,,,,,,,,4,,,75,70
130560,note_on,48,0,2,,,,,,,,1,,,45,70
130560,note_on,1536,0,7,,,,,,,,6,,,53,70
130872,note_on,312,0,6,,,,,,,,5,,,72,0
130872,note_on,312,0,5,,,,,,,,4,,,75,0
130944,note_on,384,0,8,,,,,,,,7,,,45,0
130944,note_on,384,0,9,,,,,,,,8,,,33,0
130944,note_on,384,0,2,,,,,,,,1,,,45,0
130944,note_on,384,0,7,,,,,,,,6,,,53,0
131040,note_on,96,0,8,,,,,,,,7,,,51,58
131040,note_on,96,0,2,,,,,,,,1,,,51,70
131040,note_on,96,0,9,,,,,,,,8,,,39,58
131040,note_on,168,0,6,,,,,,,,5,,,65,70
131040,note_on,168,0,5,,,,,,,,4,,,69,70
131232,note_on,192,0,2,,,,,,,,1,,,51,0
131232,note_on,192,0,9,,,,,,,,8,,,39,0
131232,note_on,192,0,8,,,,,,,,7,,,51,0
131232,note_on,192,0,6,,,,,,,,5,,,65,0
131232,note_on,192,0,5,,,,,,,,4,,,69,0
131280,note_on,48,0,8,,,,,,,,7,,,50,58
131280,note_on,48,0,9,,,,,,,,8,,,38,58
131280,note_on,48,0,6,,,,,,,,5,,,67,70
131280,note_on,48,0,2,,,,,,,,1,,,50,70
131280,note_on,48,0,5,,,,,,,,4,,,70,70
131472,note_on,192,0,6,,,,,,,,5,,,67,0
131472,note_on,192,0,2,,,,,,,,1,,,50,0
131472,note_on,192,0,9,,,,,,,,8,,,38,0
131472,note_on,192,0,8,,,,,,,,7,,,50,0
131472,note_on,192,0,5,,,,,,,,4,,,70,0
131520,note_on,48,0,2,,,,,,,,1,,,48,70
131520,note_on,48,0,8,,,,,,,,7,,,48,58
131520,note_on,48,0,5,,,,,,,,4,,,72,70
131520,note_on,48,0,9,,,,,,,,8,,,36,58
131520,note_on,48,0,6,,,,,,,,5,,,69,70
131712,note_on,192,0,6,,,,,,,,5,,,69,0
131712,note_on,192,0,9,,,,,,,,8,,,36,0
131712,note_on,192,0,5,,,,,,,,4,,,72,0
131712,note_on,192,0,2,,,,,,,,1,,,48,0
131712,note_on,192,0,8,,,,,,,,7,,,48,0
131760,note_on,48,0,9,,,,,,,,8,,,34,58
131760,note_on,48,0,5,,,,,,,,4,,,74,70
131760,note_on,48,0,6,,,,,,,,5,,,70,70
131760,note_on,48,0,2,,,,,,,,1,,,46,70
131760,note_on,48,0,8,,,,,,,,7,,,46,58
131952,note_on,192,0,6,,,,,,,,5,,,70,0
131952,note_on,192,0,2,,,,,,,,1,,,46,0
131952,note_on,192,0,5,,,,,,,,4,,,74,0
131952,note_on,192,0,9,,,,,,,,8,,,34,0
131952,note_on,192,0,8,,,,,,,,7,,,46,0
132000,note_on,48,0,8,,,,,,,,7,,,45,58
132000,note_on,48,0,6,,,,,,,,5,,,72,70
132000,note_on,48,0,9,,,,,,,,8,,,33,58
132000,note_on,48,0,5,,,,,,,,4,,,75,70
132000,note_on,48,0,2,,,,,,,,1,,,45,70
132192,note_on,192,0,8,,,,,,,,7,,,45,0
132192,note_on,192,0,6,,,,,,,,5,,,72,0
132192,note_on,192,0,9,,,,,,,,8,,,33,0
132192,note_on,192,0,2,,,,,,,,1,,,45,0
132192,note_on,192,0,5,,,,,,,,4,,,75,0
132240,note_on,48,0,8,,,,,,,,7,,,46,58
132240,note_on,48,0,2,,,,,,,,1,,,46,70
132240,note_on,48,0,9,,,,,,,,8,,,34,58
132240,note_on,48,0,6,,,,,,,,5,,,70,70
132240,note_on,48,0,5,,,,,,,,4,,,74,70
132432,note_on,192,0,8,,,,,,,,7,,,46,0
132432,note_on,192,0,9,,,,,,,,8,,,34,0
132432,note_on,192,0,6,,,,,,,,5,,,70,0
132432,note_on,192,0,5,,,,,,,,4,,,74,0
132432,note_on,192,0,2,,,,,,,,1,,,46,0
132480,note_on,48,0,6,,,,,,,,5,,,72,70
132480,note_on,48,0,5,,,,,,,,4,,,75,70
132480,note_on,48,0,2,,,,,,,,1,,,45,70
132480,note_on,48,0,9,,,,,,,,8,,,33,58
132480,note_on,1536,0,7,,,,,,,,6,,,53,70
132480,note_on,48,0,8,,,,,,,,7,,,45,58
132792,note_on,312,0,6,,,,,,,,5,,,72,0
132792,note_on,312,0,5,,,,,,,,4,,,75,0
132864,note_on,384,0,2,,,,,,,,1,,,45,0
132864,note_on,384,0,8,,,,,,,,7,,,45,0
132864,note_on,384,0,9,,,,,,,,8,,,33,0
132864,note_on,384,0,7,,,,,,,,6,,,53,0
132960,note_on,96,0,2,,,,,,,,1,,,63,105
132960,note_on,168,0,6,,,,,,,,5,,,77,127
132960,note_on,168,0,5,,,,,,,,4,,,81,127
132960,note_on,96,0,9,,,,,,,,8,,,51,105
132960,note_on,96,0,7,,,,,,,,6,,,75,105
132960,note_on,96,0,8,,,,,,,,7,,,63,105
133152,note_on,192,0,8,,,,,,,,7,,,63,0
133152,note_on,192,0,6,,,,,,,,5,,,77,0
133152,note_on,192,0,2,,,,,,,,1,,,63,0
133152,note_on,192,0,9,,,,,,,,8,,,51,0
133152,note_on,192,0,7,,,,,,,,6,,,75,0
133152,note_on,192,0,5,,,,,,,,4,,,81,0
133200,note_on,48,0,8,,,,,,,,7,,,62,105
133200,note_on,48,0,2,,,,,,,,1,,,62,105
133200,note_on,48,0,6,,,,,,,,5,,,79,116
133200,note_on,48,0,9,,,,,,,,8,,,50,105
133200,note_on,48,0,7,,,,,,,,6,,,74,105
133200,note_on,48,0,5,,,,,,,,4,,,82,116
133392,note_on,192,0,7,,,,,,,,6,,,74,0
133392,note_on,192,0,2,,,,,,,,1,,,62,0
133392,note_on,192,0,5,,,,,,,,4,,,82,0
133392,note_on,192,0,8,,,,,,,,7,,,62,0
133392,note_on,192,0,6,,,,,,,,5,,,79,0
133392,note_on,192,0,9,,,,,,,,8,,,50,0
133440,note_on,48,0,7,,,,,,,,6,,,72,105
133440,note_on,48,0,9,,,,,,,,8,,,48,105
133440,note_on,48,0,8,,,,,,,,7,,,60,105
133440,note_on,48,0,6,,,,,,,,5,,,81,116
133440,note_on,48,0,2,,,,,,,,1,,,60,105
133440,note_on,48,0,5,,,,,,,,4,,,84,116
133632,note_on,192,0,5,,,,,,,,4,,,84,0
133632,note_on,192,0,7,,,,,,,,6,,,72,0
133632,note_on,192,0,9,,,,,,,,8,,,48,0
133632,note_on,192,0,6,,,,,,,,5,,,81,0
133632,note_on,192,0,2,,,,,,,,1,,,60,0
133632,note_on,192,0,8,,,,,,,,7,,,60,0
133680,note_on,48,0,7,,,,,,,,6,,,70,105
133680,note_on,48,0,6,,,,,,,,5,,,82,116
133680,note_on,48,0,5,,,,,,,,4,,,86,116
133680,note_on,48,0,2,,,,,,,,1,,,58,105
133680,note_on,48,0,9,,,,,,,,8,,,46,105
133680,note_on,48,0,8,,,,,,,,7,,,58,105
133872,note_on,192,0,5,,,,,,,,4,,,86,0
133872,note_on,192,0,8,,,,,,,,7,,,58,0
133872,note_on,192,0,2,,,,,,,,1,,,58,0
133872,note_on,192,0,7,,,,,,,,6,,,70,0
133872,note_on,192,0,6,,,,,,,,5,,,82,0
133872,note_on,192,0,9,,,,,,,,8,,,46,0
133920,note_on,48,0,8,,,,,,,,7,,,57,105
133920,note_on,48,0,7,,,,,,,,6,,,69,105
133920,note_on,48,0,6,,,,,,,,5,,,84,116
133920,note_on,48,0,9,,,,,,,,8,,,45,105
133920,note_on,48,0,5,,,,,,,,4,,,87,116
133920,note_on,48,0,2,,,,,,,,1,,,57,105
134112,note_on,192,0,6,,,,,,,,5,,,84,0
134112,note_on,192,0,9,,,,,,,,8,,,45,0
134112,note_on,192,0,8,,,,,,,,7,,,57,0
134112,note_on,192,0,2,,,,,,,,1,,,57,0
134112,note_on,192,0,5,,,,,,,,4,,,87,0
134112,note_on,192,0,7,,,,,,,,6,,,69,0
134160,note_on,48,0,9,,,,,,,,8,,,46,105
134160,note_on,48,0,7,,,,,,,,6,,,70,105
134160,note_on,48,0,8,,,,,,,,7,,,58,105
134160,note_on,48,0,2,,,,,,,,1,,,58,105
134160,note_on,48,0,6,,,,,,,,5,,,82,116
134160,note_on,48,0,5,,,,,,,,4,,,86,116
134352,note_on,192,0,6,,,,,,,,5,,,82,0
134352,note_on,192,0,8,,,,,,,,7,,,58,0
134352,note_on,192,0,9,,,,,,,,8,,,46,0
134352,note_on,192,0,5,,,,,,,,4,,,86,0
134352,note_on,192,0,7,,,,,,,,6,,,70,0
134352,note_on,192,0,2,,,,,,,,1,,,58,0
134400,note_on,48,0,9,,,,,,,,8,,,45,105
134400,note_on,5376,0,1,,,,,,,,0,,,72,105
134400,note_on,5376,0,3,,,,,,,,2,,,65,105
134400,note_on,48,0,6,,,,,,,,5,,,84,116
134400,note_on,48,0,5,,,,,,,,4,,,87,116
134400,note_on,48,0,8,,,,,,,,7,,,57,105
134400,note_on,0,0,1,,,,,,,,0,,,75,105
134400,note_on,48,0,2,,,,,,,,1,,,57,105
134400,note_on,48,0,7,,,,,,,,6,,,69,105
134712,note_on,312,0,3,,,,,,,,2,,,65,0
134712,note_on,312,0,1,,,,,,,,0,,,75,0
134712,note_on,312,0,9,,,,,,,,8,,,45,0
134712,note_on,312,0,8,,,,,,,,7,,,57,0
134712,note_on,312,0,6,,,,,,,,5,,,84,0
134712,note_on,312,0,5,,,,,,,,4,,,87,0
134712,note_on,312,0,2,,,,,,,,1,,,57,0
134712,note_on,0,0,1,,,,,,,,0,,,72,0
134712,note_on,312,0,7,,,,,,,,6,,,69,0
134880,note_on,168,0,7,,,,,,,,6,,,70,105
134880,note_on,168,0,9,,,,,,,,8,,,46,105
134880,note_on,168,0,8,,,,,,,,7,,,58,105
134880,note_on,0,0,3,,,,,,,,2,,,70,105
134880,note_on,168,0,3,,,,,,,,2,,,58,105
134880,note_on,168,0,5,,,,,,,,4,,,86,116
134880,note_on,168,0,2,,,,,,,,1,,,58,105
134880,note_on,168,0,1,,,,,,,,0,,,70,105
134880,note_on,168,0,6,,,,,,,,5,,,82,116
134880,note_on,0,0,1,,,,,,,,0,,,74,105
135192,note_on,312,0,2,,,,,,,,1,,,58,0
135192,note_on,312,0,7,,,,,,,,6,,,70,0
135192,note_on,312,0,5,,,,,,,,4,,,86,0
135192,note_on,312,0,6,,,,,,,,5,,,82,0
135192,note_on,312,0,8,,,,,,,,7,,,58,0
135192,note_on,312,0,9,,,,,,,,8,,,46,0
135192,note_on,312,0,1,,,,,,,,0,,,74,0
135360,note_on,168,0,7,,,,,,,,6,,,63,105
135360,note_on,168,0,9,,,,,,,,8,,,39,105
135360,note_on,168,0,6,,,,,,,,5,,,79,116
135360,note_on,168,0,8,,,,,,,,7,,,51,105
135360,note_on,168,0,5,,,,,,,,4,,,84,116
135360,note_on,168,0,1,,,,,,,,0,,,72,105
135360,note_on,168,0,2,,,,,,,,1,,,51,105
135648,note_on,0,0,3,,,,,,,,2,,,58,0
135648,note_on,768,0,3,,,,,,,,2,,,70,0
135672,note_on,312,0,9,,,,,,,,8,,,39,0
135672,note_on,312,0,1,,,,,,,,0,,,70,0
135672,note_on,312,0,2,,,,,,,,1,,,51,0
135672,note_on,312,0,6,,,,,,,,5,,,79,0
135672,note_on,312,0,8,,,,,,,,7,,,51,0
135672,note_on,312,0,5,,,,,,,,4,,,84,0
135672,note_on,312,0,7,,,,,,,,6,,,63,0
135840,note_on,168,0,7,,,,,,,,6,,,65,105
135840,note_on,168,0,9,,,,,,,,8,,,41,105
135840,note_on,168,0,2,,,,,,,,1,,,53,105
135840,note_on,0,0,6,,,,,,,,5,,,75,116
135840,note_on,168,0,8,,,,,,,,7,,,53,105
135840,note_on,0,0,3,,,,,,,,2,,,53,105
135840,note_on,192,0,3,,,,,,,,2,,,65,105
135840,note_on,168,0,5,,,,,,,,4,,,72,116
135840,note_on,0,0,5,,,,,,,,4,,,81,116
135840,note_on,168,0,1,,,,,,,,0,,,69,105
135840,note_on,168,0,6,,,,,,,,5,,,65,116
136152,note_on,312,0,8,,,,,,,,7,,,53,0
136152,note_on,312,0,7,,,,,,,,6,,,65,0
136152,note_on,312,0,6,,,,,,,,5,,,75,0
136152,note_on,0,0,1,,,,,,,,0,,,72,0
136152,note_on,312,0,2,,,,,,,,1,,,53,0
136152,note_on,312,0,9,,,,,,,,8,,,41,0
136152,note_on,312,0,5,,,,,,,,4,,,81,0
136152,note_on,0,0,5,,,,,,,,4,,,72,0
136152,note_on,0,0,6,,,,,,,,5,,,65,0
136152,note_on,312,0,1,,,,,,,,0,,,69,0
136224,note_on,0,0,3,,,,,,,,2,,,65,0
136224,note_on,384,0,3,,,,,,,,2,,,53,0
136320,set_tempo,7680,1,0,,,,,,300000,,,,,,
136320,note_on,168,0,2,,,,,,,,1,,,46,105
136320,note_on,168,0,5,,,,,,,,4,,,82,116
136320,note_on,0,0,5,,,,,,,,4,,,70,116
136320,note_on,168,0,9,,,,,,,,8,,,34,105
136320,note_on,168,0,8,,,,,,,,7,,,46,105
136320,note_on,168,0,6,,,,,,,,5,,,65,116
136320,note_on,96,0,3,,,,,,,,2,,,58,105
136320,note_on,0,0,3,,,,,,,,2,,,62,105
136320,note_on,0,0,6,,,,,,,,5,,,74,116
136320,note_on,168,0,7,,,,,,,,6,,,58,105
136320,note_on,168,0,1,,,,,,,,0,,,70,105
136632,note_on,0,0,6,,,,,,,,5,,,65,0
136632,note_on,312,0,8,,,,,,,,7,,,46,0
136632,note_on,312,0,7,,,,,,,,6,,,58,0
136632,note_on,312,0,2,,,,,,,,1,,,46,0
136632,note_on,0,0,5,,,,,,,,4,,,82,0
136632,note_on,312,0,5,,,,,,,,4,,,70,0
136632,note_on,312,0,9,,,,,,,,8,,,34,0
136632,note_on,312,0,6,,,,,,,,5,,,74,0
136704,note_on,384,0,1,,,,,,,,0,,,70,0
136704,note_on,384,0,3,,,,,,,,2,,,62,0
136704,note_on,0,0,3,,,,,,,,2,,,58,0
136800,note_on,168,0,9,,,,,,,,8,,,34,105
136800,note_on,168,0,2,,,,,,,,1,,,46,105
136800,note_on,168,0,7,,,,,,,,6,,,58,105
136800,note_on,168,0,5,,,,,,,,4,,,58,116
136800,note_on,168,0,6,,,,,,,,5,,,58,116
136800,note_on,168,0,8,,,,,,,,7,,,46,105
137112,note_on,312,0,7,,,,,,,,6,,,58,0
137112,note_on,312,0,5,,,,,,,,4,,,58,0
137112,note_on,312,0,9,,,,,,,,8,,,34,0
137112,note_on,312,0,8,,,,,,,,7,,,46,0
137112,note_on,312,0,6,,,,,,,,5,,,58,0
137112,note_on,312,0,2,,,,,,,,1,,,46,0
137280,note_on,168,0,2,,,,,,,,1,,,62,105
137280,note_on,576,0,1,,,,,,,,0,,,74,105
137280,note_on,168,0,7,,,,,,,,6,,,74,105
137280,note_on,576,0,3,,,,,,,,2,,,74,105
137280,note_on,168,0,8,,,,,,,,7,,,62,105
137280,note_on,168,0,5,,,,,,,,4,,,74,116
137280,note_on,168,0,9,,,,,,,,8,,,50,105
137280,note_on,168,0,6,,,,,,,,5,,,74,116
137856,note_on,576,0,8,,,,,,,,7,,,62,0
137856,note_on,576,0,2,,,,,,,,1,,,62,0
137856,note_on,576,0,1,,,,,,,,0,,,74,0
137856,note_on,576,0,3,,,,,,,,2,,,74,0
137856,note_on,576,0,6,,,,,,,,5,,,74,0
137856,note_on,576,0,5,,,,,,,,4,,,74,0
137856,note_on,576,0,9,,,,,,,,8,,,50,0
137856,note_on,576,0,7,,,,,,,,6,,,74,0
138000,note_on,144,0,6,,,,,,,,5,,,72,116
138000,note_on,144,0,8,,,,,,,,7,,,60,105
138000,note_on,144,0,7,,,,,,,,6,,,72,105
138000,note_on,144,0,2,,,,,,,,1,,,60,105
138000,note_on,144,0,3,,,,,,,,2,,,72,105
138000,note_on,144,0,5,,,,,,,,4,,,72,116
138000,note_on,144,0,1,,,,,,,,0,,,72,105
138000,note_on,144,0,9,,,,,,,,8,,,48,105
138192,note_on,192,0,7,,,,,,,,6,,,72,0
138192,note_on,192,0,5,,,,,,,,4,,,72,0
138192,note_on,192,0,2,,,,,,,,1,,,60,0
138192,note_on,192,0,1,,,,,,,,0,,,72,0
138192,note_on,192,0,6,,,,,,,,5,,,72,0
138192,note_on,192,0,9,,,,,,,,8,,,48,0
138192,note_on,192,0,8,,,,,,,,7,,,60,0
138192,note_on,192,0,3,,,,,,,,2,,,72,0
138240,note_on,48,0,6,,,,,,,,5,,,70,116
138240,note_on,48,0,9,,,,,,,,8,,,46,105
138240,note_on,48,0,7,,,,,,,,6,,,70,105
138240,note_on,48,0,1,,,,,,,,0,,,70,105
138240,note_on,48,0,2,,,,,,,,1,,,58,105
138240,note_on,48,0,8,,,,,,,,7,,,58,105
138240,note_on,48,0,3,,,,,,,,2,,,70,105
138240,note_on,48,0,5,,,,,,,,4,,,70,116
138552,note_on,312,0,6,,,,,,,,5,,,70,0
138552,note_on,312,0,8,,,,,,,,7,,,58,0
138552,note_on,312,0,5,,,,,,,,4,,,70,0
138552,note_on,312,0,7,,,,,,,,6,,,70,0
138552,note_on,312,0,2,,,,,,,,1,,,58,0
138552,note_on,312,0,9,,,,,,,,8,,,46,0
138552,note_on,312,0,3,,,,,,,,2,,,70,0
138624,note_on,384,0,1,,,,,,,,0,,,70,0
138720,note_on,168,0,7,,,,,,,,6,,,58,105
138720,note_on,168,0,6,,,,,,,,5,,,58,116
138720,note_on,168,0,8,,,,,,,,7,,,46,105
138720,note_on,168,0,5,,,,,,,,4,,,58,116
138720,note_on,168,0,9,,,,,,,,8,,,34,105
138720,note_on,168,0,3,,,,,,,,2,,,58,105
138720,note_on,168,0,2,,,,,,,,1,,,46,105
139032,note_on,312,0,8,,,,,,,,7,,,46,0
139032,note_on,312,0,6,,,,,,,,5,,,58,0
139032,note_on,312,0,5,,,,,,,,4,,,58,0
139032,note_on,312,0,3,,,,,,,,2,,,58,0
139032,note_on,312,0,2,,,,,,,,1,,,46,0
139032,note_on,312,0,9,,,,,,,,8,,,34,0
139032,note_on,312,0,7,,,,,,,,6,,,58,0
139200,note_on,168,0,7,,,,,,,,6,,,74,105
139200,note_on,168,0,3,,,,,,,,2,,,74,105
139200,note_on,168,0,5,,,,,,,,4,,,74,116
139200,note_on,168,0,8,,,,,,,,7,,,62,105
139200,note_on,168,0,2,,,,,,,,1,,,62,105
139200,note_on,168,0,6,,,,,,,,5,,,74,116
139200,note_on,576,0,1,,,,,,,,0,,,74,105
139200,note_on,168,0,9,,,,,,,,8,,,50,105
139776,note_on,576,0,7,,,,,,,,6,,,74,0
139776,note_on,576,0,3,,,,,,,,2,,,74,0
139776,note_on,576,0,8,,,,,,,,7,,,62,0
139776,note_on,576,0,6,,,,,,,,5,,,74,0
139776,note_on,576,0,5,,,,,,,,4,,,74,0
139776,note_on,576,0,2,,,,,,,,1,,,62,0
139776,note_on,576,0,1,,,,,,,,0,,,74,0
139776,note_on,576,0,9,,,,,,,,8,,,50,0
139920,note_on,144,0,5,,,,,,,,4,,,72,116
139920,note_on,144,0,2,,,,,,,,1,,,60,105
139920,note_on,144,0,7,,,,,,,,6,,,72,105
139920,note_on,144,0,9,,,,,,,,8,,,48,105
139920,note_on,144,0,1,,,,,,,,0,,,72,105
139920,note_on,144,0,6,,,,,,,,5,,,72,116
139920,note_on,144,0,8,,,,,,,,7,,,60,105
139920,note_on,144,0,3,,,,,,,,2,,,72,105
140112,note_on,192,0,2,,,,,,,,1,,,60,0
140112,note_on,192,0,6,,,,,,,,5,,,72,0
140112,note_on,192,0,7,,,,,,,,6,,,72,0
140112,note_on,192,0,1,,,,,,,,0,,,72,0
140112,note_on,192,0,5,,,,,,,,4,,,72,0
140112,note_on,192,0,3,,,,,,,,2,,,72,0
140112,note_on,192,0,8,,,,,,,,7,,,60,0
140112,note_on,192,0,9,,,,,,,,8,,,48,0
140160,note_on,48,0,9,,,,,,,,8,,,46,105
140160,note_on,48,0,1,,,,,,,,0,,,70,105
140160,note_on,48,0,3,,,,,,,,2,,,70,105
140160,note_on,48,0,8,,,,,,,,7,,,58,105
140160,note_on,48,0,5,,,,,,,,4,,,70,110
140160,note_on,48,0,7,,,,,,,,6,,,70,105
140160,note_on,48,0,2,,,,,,,,1,,,58,105
140160,set_tempo,3840,1,0,,,,,,312500,,,,,,
140160,note_on,48,0,6,,,,,,,,5,,,70,116
140928,note_on,768,0,3,,,,,,,,2,,,70,0
140928,note_on,768,0,7,,,,,,,,6,,,70,0
140928,note_on,768,0,5,,,,,,,,4,,,70,0
140928,note_on,768,0,1,,,,,,,,0,,,70,0
140928,note_on,768,0,2,,,,,,,,1,,,58,0
140928,note_on,768,0,6,,,,,,,,5,,,70,0
140928,note_on,768,0,8,,,,,,,,7,,,58,0
140928,note_on,768,0,9,,,,,,,,8,,,46,0
141120,note_on,192,0,5,,,,,,,,4,,,58,70
142080,note_on,0,0,5,,,,,,,,4,,,60,70
142080,note_on,960,0,5,,,,,,,,4,,,58,0
143040,note_on,960,0,5,,,,,,,,4,,,60,0
143040,note_on,0,0,5,,,,,,,,4,,,61,70
144000,note_on,0,0,5,,,,,,,,4,,,62,70
144000,note_on,960,0,5,,,,,,,,4,,,61,0
144000,set_tempo,3840,1,0,,,,,,327869,,,,,,
144720,note_on,720,0,5,,,,,,,,4,,,62,0
144960,note_on,240,0,5,,,,,,,,4,,,74,70
145920,set_tempo,1920,1,0,,,,,,309278,,,,,,
146280,note_on,1320,0,5,,,,,,,,4,,,74,0
146400,note_on,120,0,5,,,,,,,,4,,,75,70
146580,note_on,180,0,5,,,,,,,,4,,,75,0
146640,note_on,60,0,5,,,,,,,,4,,,72,70
146820,note_on,180,0,5,,,,,,,,4,,,72,0
146880,note_on,60,0,5,,,,,,,,4,,,70,70
147240,note_on,360,0,5,,,,,,,,4,,,70,0
147360,note_on,120,0,5,,,,,,,,4,,,72,70
147540,note_on,180,0,5,,,,,,,,4,,,72,0
147600,note_on,60,0,5,,,,,,,,4,,,69,70
147780,note_on,180,0,5,,,,,,,,4,,,69,0
147840,note_on,6912,0,2,,,,,,,,1,,,55,58
147840,note_on,60,0,5,,,,,,,,4,,,67,58
147840,note_on,6912,0,7,,,,,,,,6,,,55,58
147840,note_on,6912,0,9,,,,,,,,8,,,43,58
147840,set_tempo,1920,1,0,,,,,,300000,,,,,,
147840,note_on,6912,0,6,,,,,,,,5,,,67,58
147840,note_on,6912,0,8,,,,,,,,7,,,55,58
148152,note_on,312,0,8,,,,,,,,7,,,55,0
148152,note_on,312,0,9,,,,,,,,8,,,43,0
148152,note_on,312,0,7,,,,,,,,6,,,55,0
148152,note_on,312,0,2,,,,,,,,1,,,55,0
148152,note_on,312,0,5,,,,,,,,4,,,67,0
148152,note_on,312,0,6,,,,,,,,5,,,67,0
148320,note_on,168,0,8,,,,,,,,7,,,50,58
148320,note_on,168,0,2,,,,,,,,1,,,50,58
148320,note_on,168,0,6,,,,,,,,5,,,62,58
148320,note_on,168,0,5,,,,,,,,4,,,62,58
148320,note_on,168,0,7,,,,,,,,6,,,50,58
148320,note_on,168,0,9,,,,,,,,8,,,38,58
148632,note_on,312,0,2,,,,,,,,1,,,50,0
148632,note_on,312,0,5,,,,,,,,4,,,62,0
148632,note_on,312,0,9,,,,,,,,8,,,38,0
148632,note_on,312,0,6,,,,,,,,5,,,62,0
148632,note_on,312,0,8,,,,,,,,7,,,50,0
148632,note_on,312,0,7,,,,,,,,6,,,50,0
148800,note_on,168,0,7,,,,,,,,6,,,58,58
148800,note_on,168,0,6,,,,,,,,5,,,70,58
148800,note_on,168,0,5,,,,,,,,4,,,70,58
148800,note_on,168,0,9,,,,,,,,8,,,46,58
148800,note_on,168,0,8,,,,,,,,7,,,58,58
148800,note_on,168,0,2,,,,,,,,1,,,58,58
149340,note_on,540,0,6,,,,,,,,5,,,70,0
149340,note_on,540,0,2,,,,,,,,1,,,58,0
149340,note_on,540,0,8,,,,,,,,7,,,58,0
149340,note_on,540,0,7,,,,,,,,6,,,58,0
149340,note_on,540,0,9,,,,,,,,8,,,46,0
149340,note_on,540,0,5,,,,,,,,4,,,70,0
149520,note_on,180,0,5,,,,,,,,4,,,69,58
149520,note_on,180,0,7,,,,,,,,6,,,57,58
149520,note_on,180,0,8,,,,,,,,7,,,57,58
149520,note_on,180,0,2,,,,,,,,1,,,57,58
149520,note_on,180,0,6,,,,,,,,5,,,69,58
149520,note_on,180,0,9,,,,,,,,8,,,45,58
149676,note_on,156,0,8,,,,,,,,7,,,57,0
149676,note_on,156,0,2,,,,,,,,1,,,57,0
149676,note_on,156,0,5,,,,,,,,4,,,69,0
149676,note_on,156,0,7,,,,,,,,6,,,57,0
149676,note_on,156,0,6,,,,,,,,5,,,69,0
149676,note_on,156,0,9,,,,,,,,8,,,45,0
149760,note_on,84,0,5,,,,,,,,4,,,67,58
149760,note_on,84,0,8,,,,,,,,7,,,55,58
149760,note_on,84,0,2,,,,,,,,1,,,55,58
149760,note_on,84,0,9,,,,,,,,8,,,43,58
149760,note_on,84,0,7,,,,,,,,6,,,55,58
149760,note_on,84,0,6,,,,,,,,5,,,67,58
150072,note_on,312,0,8,,,,,,,,7,,,55,0
150072,note_on,312,0,5,,,,,,,,4,,,67,0
150072,note_on,312,0,7,,,,,,,,6,,,55,0
150072,note_on,312,0,2,,,,,,,,1,,,55,0
150072,note_on,312,0,9,,,,,,,,8,,,43,0
150072,note_on,312,0,6,,,,,,,,5,,,67,0
150240,note_on,168,0,5,,,,,,,,4,,,70,58
150240,note_on,168,0,2,,,,,,,,1,,,58,58
150240,note_on,168,0,6,,,,,,,,5,,,70,58
150240,note_on,168,0,9,,,,,,,,8,,,46,58
150240,note_on,168,0,8,,,,,,,,7,,,58,58
150240,note_on,168,0,7,,,,,,,,6,,,58,58
150720,note_on,480,0,6,,,,,,,,5,,,70,0
150720,note_on,0,0,6,,,,,,,,5,,,69,58
150720,note_on,480,0,2,,,,,,,,1,,,58,0
150720,note_on,0,0,2,,,,,,,,1,,,57,58
150720,note_on,0,0,9,,,,,,,,8,,,45,58
150720,note_on,480,0,9,,,,,,,,8,,,46,0
150720,note_on,480,0,7,,,,,,,,6,,,58,0
150720,note_on,0,0,7,,,,,,,,6,,,57,58
150720,note_on,480,0,8,,,,,,,,7,,,58,0
150720,note_on,0,0,8,,,,,,,,7,,,57,58
150720,note_on,0,0,5,,,,,,,,4,,,69,58
150720,note_on,480,0,5,,,,,,,,4,,,70,0
151200,note_on,0,0,8,,,,,,,,7,,,55,58
151200,note_on,0,0,7,,,,,,,,6,,,55,58
151200,note_on,480,0,7,,,,,,,,6,,,57,0
151200,note_on,480,0,9,,,,,,,,8,,,45,0
151200,note_on,0,0,9,,,,,,,,8,,,43,58
151200,note_on,0,0,6,,,,,,,,5,,,67,58
151200,note_on,480,0,6,,,,,,,,5,,,69,0
151200,note_on,480,0,8,,,,,,,,7,,,57,0
151200,note_on,480,0,5,,,,,,,,4,,,69,0
151200,note_on,0,0,5,,,,,,,,4,,,67,58
151200,note_on,480,0,2,,,,,,,,1,,,57,0
151200,note_on,0,0,2,,,,,,,,1,,,55,58
151656,note_on,456,0,7,,,,,,,,6,,,55,0
151656,note_on,456,0,6,,,,,,,,5,,,67,0
151656,note_on,456,0,5,,,,,,,,4,,,67,0
151656,note_on,456,0,2,,,,,,,,1,,,55,0
151656,note_on,456,0,8,,,,,,,,7,,,55,0
151656,note_on,456,0,9,,,,,,,,8,,,43,0
151680,note_on,24,0,5,,,,,,,,4,,,66,58
151680,note_on,24,0,7,,,,,,,,6,,,54,58
151680,note_on,24,0,9,,,,,,,,8,,,42,58
151680,note_on,24,0,2,,,,,,,,1,,,54,58
151680,note_on,24,0,8,,,,,,,,7,,,54,58
151680,note_on,24,0,6,,,,,,,,5,,,66,58
151992,note_on,312,0,7,,,,,,,,6,,,54,0
151992,note_on,312,0,6,,,,,,,,5,,,66,0
151992,note_on,312,0,5,,,,,,,,4,,,66,0
151992,note_on,312,0,9,,,,,,,,8,,,42,0
151992,note_on,312,0,2,,,,,,,,1,,,54,0
151992,note_on,312,0,8,,,,,,,,7,,,54,0
152160,note_on,168,0,8,,,,,,,,7,,,50,58
152160,note_on,168,0,6,,,,,,,,5,,,62,58
152160,note_on,168,0,7,,,,,,,,6,,,50,58
152160,note_on,168,0,2,,,,,,,,1,,,50,58
152160,note_on,168,0,9,,,,,,,,8,,,38,58
152160,note_on,168,0,5,,,,,,,,4,,,62,58
152472,note_on,312,0,8,,,,,,,,7,,,50,0
152472,note_on,312,0,2,,,,,,,,1,,,50,0
152472,note_on,312,0,5,,,,,,,,4,,,62,0
152472,note_on,312,0,7,,,,,,,,6,,,50,0
152472,note_on,312,0,6,,,,,,,,5,,,62,0
152472,note_on,312,0,9,,,,,,,,8,,,38,0
152640,note_on,168,0,8,,,,,,,,7,,,60,58
152640,note_on,168,0,6,,,,,,,,5,,,72,58
152640,note_on,168,0,5,,,,,,,,4,,,72,58
152640,note_on,168,0,7,,,,,,,,6,,,60,58
152640,note_on,168,0,2,,,,,,,,1,,,60,58
152640,note_on,168,0,9,,,,,,,,8,,,48,58
153180,note_on,540,0,5,,,,,,,,4,,,72,0
153180,note_on,540,0,6,,,,,,,,5,,,72,0
153180,note_on,540,0,7,,,,,,,,6,,,60,0
153180,note_on,540,0,8,,,,,,,,7,,,60,0
153180,note_on,540,0,2,,,,,,,,1,,,60,0
153180,note_on,540,0,9,,,,,,,,8,,,48,0
153360,note_on,180,0,9,,,,,,,,8,,,46,58
153360,note_on,180,0,5,,,,,,,,4,,,70,58
153360,note_on,180,0,7,,,,,,,,6,,,58,58
153360,note_on,180,0,8,,,,,,,,7,,,58,58
153360,note_on,180,0,6,,,,,,,,5,,,70,58
153360,note_on,180,0,2,,,,,,,,1,,,58,58
153516,note_on,156,0,9,,,,,,,,8,,,46,0
153516,note_on,156,0,6,,,,,,,,5,,,70,0
153516,note_on,156,0,7,,,,,,,,6,,,58,0
153516,note_on,156,0,2,,,,,,,,1,,,58,0
153516,note_on,156,0,8,,,,,,,,7,,,58,0
153516,note_on,156,0,5,,,,,,,,4,,,70,0
153600,note_on,84,0,2,,,,,,,,1,,,57,58
153600,note_on,84,0,5,,,,,,,,4,,,69,58
153600,note_on,84,0,9,,,,,,,,8,,,45,58
153600,note_on,84,0,8,,,,,,,,7,,,57,58
153600,note_on,84,0,6,,,,,,,,5,,,69,58
153600,note_on,84,0,7,,,,,,,,6,,,57,58
153912,note_on,312,0,8,,,,,,,,7,,,57,0
153912,note_on,312,0,6,,,,,,,,5,,,69,0
153912,note_on,312,0,7,,,,,,,,6,,,57,0
153912,note_on,312,0,9,,,,,,,,8,,,45,0
153912,note_on,312,0,5,,,,,,,,4,,,69,0
153912,note_on,312,0,2,,,,,,,,1,,,57,0
154080,note_on,168,0,8,,,,,,,,7,,,60,58
154080,note_on,168,0,9,,,,,,,,8,,,48,58
154080,note_on,168,0,2,,,,,,,,1,,,60,58
154080,note_on,168,0,5,,,,,,,,4,,,72,58
154080,note_on,168,0,6,,,,,,,,5,,,72,58
154080,note_on,168,0,7,,,,,,,,6,,,60,58
154560,note_on,480,0,8,,,,,,,,7,,,60,0
154560,note_on,480,0,5,,,,,,,,4,,,72,0
154560,note_on,0,0,8,,,,,,,,7,,,58,58
154560,note_on,0,0,6,,,,,,,,5,,,70,58
154560,note_on,0,0,9,,,,,,,,8,,,46,58
154560,note_on,480,0,9,,,,,,,,8,,,48,0
154560,note_on,0,0,5,,,,,,,,4,,,70,58
154560,note_on,0,0,7,,,,,,,,6,,,58,58
154560,note_on,480,0,7,,,,,,,,6,,,60,0
154560,note_on,480,0,2,,,,,,,,1,,,60,0
154560,note_on,480,0,6,,,,,,,,5,,,72,0
154560,note_on,0,0,2,,,,,,,,1,,,58,58
155040,note_on,0,0,9,,,,,,,,8,,,45,58
155040,note_on,480,0,9,,,,,,,,8,,,46,0
155040,note_on,0,0,8,,,,,,,,7,,,57,58
155040,note_on,480,0,8,,,,,,,,7,,,58,0
155040,note_on,480,0,5,,,,,,,,4,,,70,0
155040,note_on,0,0,5,,,,,,,,4,,,69,58
155040,note_on,480,0,2,,,,,,,,1,,,58,0
155040,note_on,0,0,7,,,,,,,,6,,,57,58
155040,note_on,0,0,6,,,,,,,,5,,,69,58
155040,note_on,480,0,6,,,,,,,,5,,,70,0
155040,note_on,480,0,7,,,,,,,,6,,,58,0
155040,note_on,0,0,2,,,,,,,,1,,,57,58
155496,note_on,456,0,8,,,,,,,,7,,,57,0
155496,note_on,456,0,7,,,,,,,,6,,,57,0
155496,note_on,456,0,6,,,,,,,,5,,,69,0
155496,note_on,456,0,2,,,,,,,,1,,,57,0
155496,note_on,456,0,5,,,,,,,,4,,,69,0
155496,note_on,456,0,9,,,,,,,,8,,,45,0
155520,note_on,24,0,6,,,,,,,,5,,,67,58
155520,note_on,24,0,2,,,,,,,,1,,,55,58
155520,note_on,24,0,8,,,,,,,,7,,,55,58
155520,note_on,24,0,7,,,,,,,,6,,,55,58
155520,note_on,24,0,9,,,,,,,,8,,,43,58
155520,note_on,24,0,5,,,,,,,,4,,,67,58
155832,note_on,312,0,8,,,,,,,,7,,,55,0
155832,note_on,312,0,7,,,,,,,,6,,,55,0
155832,note_on,312,0,2,,,,,,,,1,,,55,0
155832,note_on,312,0,5,,,,,,,,4,,,67,0
155832,note_on,312,0,9,,,,,,,,8,,,43,0
155832,note_on,312,0,6,,,,,,,,5,,,67,0
156000,note_on,168,0,6,,,,,,,,5,,,70,58
156000,note_on,168,0,2,,,,,,,,1,,,58,58
156000,note_on,168,0,7,,,,,,,,6,,,58,58
156000,note_on,168,0,8,,,,,,,,7,,,58,58
156000,note_on,168,0,9,,,,,,,,8,,,46,58
156000,note_on,168,0,5,,,,,,,,4,,,70,58
156312,note_on,312,0,9,,,,,,,,8,,,46,0
156312,note_on,312,0,7,,,,,,,,6,,,58,0
156312,note_on,312,0,8,,,,,,,,7,,,58,0
156312,note_on,312,0,2,,,,,,,,1,,,58,0
156312,note_on,312,0,6,,,,,,,,5,,,70,0
156312,note_on,312,0,5,,,,,,,,4,,,70,0
156480,note_on,168,0,6,,,,,,,,5,,,75,58
156480,note_on,168,0,8,,,,,,,,7,,,63,58
156480,note_on,168,0,2,,,,,,,,1,,,63,58
156480,note_on,168,0,5,,,,,,,,4,,,75,58
156480,note_on,168,0,7,,,,,,,,6,,,63,58
156480,note_on,168,0,9,,,,,,,,8,,,51,58
156984,note_on,504,0,2,,,,,,,,1,,,63,0
156984,note_on,504,0,7,,,,,,,,6,,,63,0
156984,note_on,504,0,5,,,,,,,,4,,,75,0
156984,note_on,504,0,8,,,,,,,,7,,,63,0
156984,note_on,504,0,9,,,,,,,,8,,,51,0
156984,note_on,504,0,6,,,,,,,,5,,,75,0
157200,note_on,216,0,5,,,,,,,,4,,,74,58
157200,note_on,216,0,8,,,,,,,,7,,,62,58
157200,note_on,216,0,7,,,,,,,,6,,,62,58
157200,note_on,216,0,6,,,,,,,,5,,,74,58
157200,note_on,216,0,9,,,,,,,,8,,,50,58
157200,note_on,216,0,2,,,,,,,,1,,,62,58
157356,note_on,156,0,5,,,,,,,,4,,,74,0
157356,note_on,156,0,6,,,,,,,,5,,,74,0
157356,note_on,156,0,8,,,,,,,,7,,,62,0
157356,note_on,156,0,2,,,,,,,,1,,,62,0
157356,note_on,156,0,9,,,,,,,,8,,,50,0
157356,note_on,156,0,7,,,,,,,,6,,,62,0
157440,note_on,84,0,6,,,,,,,,5,,,72,58
157440,note_on,84,0,8,,,,,,,,7,,,60,58
157440,note_on,84,0,2,,,,,,,,1,,,60,58
157440,note_on,84,0,9,,,,,,,,8,,,48,58
157440,note_on,84,0,7,,,,,,,,6,,,60,58
157440,note_on,84,0,5,,,,,,,,4,,,72,58
157752,note_on,312,0,8,,,,,,,,7,,,60,0
157752,note_on,312,0,5,,,,,,,,4,,,72,0
157752,note_on,312,0,7,,,,,,,,6,,,60,0
157752,note_on,312,0,9,,,,,,,,8,,,48,0
157752,note_on,312,0,2,,,,,,,,1,,,60,0
157752,note_on,312,0,6,,,,,,,,5,,,72,0
157920,note_on,168,0,2,,,,,,,,1,,,57,58
157920,note_on,168,0,7,,,,,,,,6,,,57,58
157920,note_on,168,0,9,,,,,,,,8,,,45,58
157920,note_on,168,0,5,,,,,,,,4,,,69,58
157920,note_on,168,0,8,,,,,,,,7,,,57,58
157920,note_on,168,0,6,,,,,,,,5,,,69,58
158232,note_on,312,0,2,,,,,,,,1,,,57,0
158232,note_on,312,0,9,,,,,,,,8,,,45,0
158232,note_on,312,0,5,,,,,,,,4,,,69,0
158232,note_on,312,0,8,,,,,,,,7,,,57,0
158232,note_on,312,0,7,,,,,,,,6,,,57,0
158232,note_on,312,0,6,,,,,,,,5,,,69,0
158400,note_on,168,0,8,,,,,,,,7,,,62,58
158400,note_on,168,0,2,,,,,,,,1,,,62,58
158400,note_on,168,0,6,,,,,,,,5,,,74,58
158400,note_on,168,0,9,,,,,,,,8,,,50,58
158400,note_on,168,0,7,,,,,,,,6,,,62,58
158400,note_on,168,0,5,,,,,,,,4,,,74,58
158904,note_on,504,0,2,,,,,,,,1,,,62,0
158904,note_on,504,0,7,,,,,,,,6,,,62,0
158904,note_on,504,0,8,,,,,,,,7,,,62,0
158904,note_on,504,0,5,,,,,,,,4,,,74,0
158904,note_on,504,0,9,,,,,,,,8,,,50,0
158904,note_on,504,0,6,,,,,,,,5,,,74,0
159120,note_on,216,0,2,,,,,,,,1,,,60,58
159120,note_on,216,0,5,,,,,,,,4,,,72,58
159120,note_on,216,0,9,,,,,,,,8,,,48,58
159120,note_on,216,0,6,,,,,,,,5,,,72,58
159120,note_on,216,0,8,,,,,,,,7,,,60,58
159120,note_on,216,0,7,,,,,,,,6,,,60,58
159276,note_on,156,0,5,,,,,,,,4,,,72,0
159276,note_on,156,0,9,,,,,,,,8,,,48,0
159276,note_on,156,0,6,,,,,,,,5,,,72,0
159276,note_on,156,0,7,,,,,,,,6,,,60,0
159276,note_on,156,0,8,,,,,,,,7,,,60,0
159276,note_on,156,0,2,,,,,,,,1,,,60,0
159360,note_on,84,0,5,,,,,,,,4,,,70,58
159360,note_on,84,0,7,,,,,,,,6,,,58,58
159360,note_on,84,0,8,,,,,,,,7,,,58,58
159360,note_on,84,0,6,,,,,,,,5,,,70,58
159360,note_on,84,0,9,,,,,,,,8,,,46,58
159360,note_on,84,0,2,,,,,,,,1,,,58,58
159672,note_on,312,0,8,,,,,,,,7,,,58,0
159672,note_on,312,0,6,,,,,,,,5,,,70,0
159672,note_on,312,0,7,,,,,,,,6,,,58,0
159672,note_on,312,0,5,,,,,,,,4,,,70,0
159672,note_on,312,0,9,,,,,,,,8,,,46,0
159672,note_on,312,0,2,,,,,,,,1,,,58,0
159840,note_on,168,0,7,,,,,,,,6,,,55,58
159840,note_on,168,0,5,,,,,,,,4,,,67,58
159840,note_on,168,0,8,,,,,,,,7,,,55,58
159840,note_on,168,0,9,,,,,,,,8,,,43,58
159840,note_on,168,0,2,,,,,,,,1,,,55,58
159840,note_on,168,0,6,,,,,,,,5,,,67,58
160152,note_on,312,0,9,,,,,,,,8,,,43,0
160152,note_on,312,0,5,,,,,,,,4,,,67,0
160152,note_on,312,0,2,,,,,,,,1,,,55,0
160152,note_on,312,0,6,,,,,,,,5,,,67,0
160152,note_on,312,0,8,,,,,,,,7,,,55,0
160152,note_on,312,0,7,,,,,,,,6,,,55,0
160320,note_on,168,0,5,,,,,,,,4,,,63,58
160320,note_on,168,0,8,,,,,,,,7,,,51,58
160320,note_on,168,0,9,,,,,,,,8,,,39,58
160320,note_on,168,0,6,,,,,,,,5,,,63,58
160320,note_on,168,0,2,,,,,,,,1,,,51,58
160320,note_on,168,0,7,,,,,,,,6,,,51,58
160632,note_on,312,0,2,,,,,,,,1,,,51,0
160632,note_on,312,0,9,,,,,,,,8,,,39,0
160632,note_on,312,0,8,,,,,,,,7,,,51,0
160632,note_on,312,0,6,,,,,,,,5,,,63,0
160632,note_on,312,0,5,,,,,,,,4,,,63,0
160632,note_on,312,0,7,,,,,,,,6,,,51,0
160800,note_on,168,0,8,,,,,,,,7,,,49,58
160800,note_on,168,0,5,,,,,,,,4,,,61,58
160800,note_on,168,0,2,,,,,,,,1,,,49,58
160800,note_on,168,0,7,,,,,,,,6,,,49,58
160800,note_on,168,0,6,,,,,,,,5,,,61,58
160800,note_on,168,0,9,,,,,,,,8,,,37,58
161112,note_on,312,0,9,,,,,,,,8,,,37,0
161112,note_on,312,0,6,,,,,,,,5,,,61,0
161112,note_on,312,0,7,,,,,,,,6,,,49,0
161112,note_on,312,0,2,,,,,,,,1,,,49,0
161112,note_on,312,0,5,,,,,,,,4,,,61,0
161112,note_on,312,0,8,,,,,,,,7,,,49,0
161280,note_on,168,0,6,,,,,,,,5,,,62,58
161280,note_on,168,0,5,,,,,,,,4,,,62,58
161280,note_on,168,0,2,,,,,,,,1,,,50,58
161280,note_on,168,0,8,,,,,,,,7,,,50,58
161280,note_on,168,0,7,,,,,,,,6,,,50,58
161280,note_on,168,0,9,,,,,,,,8,,,38,58
161592,note_on,312,0,6,,,,,,,,5,,,62,0
161592,note_on,312,0,5,,,,,,,,4,,,62,0
161592,note_on,312,0,8,,,,,,,,7,,,50,0
161592,note_on,312,0,9,,,,,,,,8,,,38,0
161592,note_on,312,0,7,,,,,,,,6,,,50,0
161592,note_on,312,0,2,,,,,,,,1,,,50,0
161760,note_on,168,0,9,,,,,,,,8,,,48,58
161760,note_on,168,0,7,,,,,,,,6,,,60,58
161760,note_on,168,0,6,,,,,,,,5,,,72,58
161760,note_on,168,0,5,,,,,,,,4,,,72,58
161760,note_on,168,0,2,,,,,,,,1,,,60,58
161760,note_on,168,0,8,,,,,,,,7,,,60,58
162240,note_on,0,0,5,,,,,,,,4,,,70,58
162240,note_on,480,0,5,,,,,,,,4,,,72,0
162240,note_on,0,0,9,,,,,,,,8,,,46,58
162240,note_on,480,0,8,,,,,,,,7,,,60,0
162240,note_on,480,0,9,,,,,,,,8,,,48,0
162240,note_on,480,0,2,,,,,,,,1,,,60,0
162240,note_on,0,0,2,,,,,,,,1,,,58,58
162240,note_on,0,0,7,,,,,,,,6,,,58,58
162240,note_on,0,0,8,,,,,,,,7,,,58,58
162240,note_on,480,0,7,,,,,,,,6,,,60,0
162240,note_on,480,0,6,,,,,,,,5,,,72,0
162240,note_on,0,0,6,,,,,,,,5,,,70,58
162720,note_on,480,0,9,,,,,,,,8,,,46,0
162720,note_on,480,0,5,,,,,,,,4,,,70,0
162720,note_on,480,0,8,,,,,,,,7,,,58,0
162720,note_on,480,0,2,,,,,,,,1,,,58,0
162720,note_on,0,0,9,,,,,,,,8,,,45,58
162720,note_on,0,0,5,,,,,,,,4,,,69,58
162720,note_on,0,0,2,,,,,,,,1,,,57,58
162720,note_on,0,0,8,,,,,,,,7,,,57,58
162720,note_on,0,0,6,,,,,,,,5,,,69,58
162720,note_on,480,0,6,,,,,,,,5,,,70,0
162720,note_on,480,0,7,,,,,,,,6,,,58,0
162720,note_on,0,0,7,,,,,,,,6,,,57,58
163032,note_on,312,0,8,,,,,,,,7,,,57,0
163032,note_on,312,0,5,,,,,,,,4,,,69,0
163032,note_on,312,0,7,,,,,,,,6,,,57,0
163032,note_on,312,0,9,,,,,,,,8,,,45,0
163032,note_on,312,0,2,,,,,,,,1,,,57,0
163032,note_on,312,0,6,,,,,,,,5,,,69,0
163200,note_on,168,0,7,,,,,,,,6,,,55,105
163200,note_on,168,0,5,,,,,,,,4,,,67,105
163200,note_on,104832,0,4,,,,,,,,3,,,67,105
163200,note_on,168,0,6,,,,,,,,5,,,67,105
163200,note_on,168,0,8,,,,,,,,7,,,55,105
163200,note_on,168,0,9,,,,,,,,8,,,43,105
163200,note_on,168,0,2,,,,,,,,1,,,55,105
163200,note_on,22272,0,1,,,,,,,,0,,,67,105
163392,note_on,192,0,5,,,,,,,,4,,,67,0
163392,note_on,192,0,6,,,,,,,,5,,,67,0
163440,note_on,48,0,5,,,,,,,,4,,,74,105
163440,note_on,48,0,6,,,,,,,,5,,,74,105
163512,note_on,312,0,9,,,,,,,,8,,,43,0
163512,note_on,312,0,8,,,,,,,,7,,,55,0
163512,note_on,312,0,7,,,,,,,,6,,,55,0
163512,note_on,312,0,1,,,,,,,,0,,,67,0
163512,note_on,312,0,2,,,,,,,,1,,,55,0
163584,note_on,384,0,4,,,,,,,,3,,,67,0
163680,note_on,168,0,8,,,,,,,,7,,,50,105
163680,note_on,168,0,9,,,,,,,,8,,,38,105
163680,note_on,168,0,7,,,,,,,,6,,,50,105
163680,note_on,96,0,4,,,,,,,,3,,,62,105
163680,note_on,168,0,1,,,,,,,,0,,,62,105
163680,note_on,168,0,2,,,,,,,,1,,,50,105
163824,note_on,384,0,6,,,,,,,,5,,,74,0
163824,note_on,384,0,5,,,,,,,,4,,,74,0
163920,note_on,96,0,5,,,,,,,,4,,,74,105
163920,note_on,96,0,6,,,,,,,,5,,,74,105
163992,note_on,312,0,8,,,,,,,,7,,,50,0
163992,note_on,312,0,1,,,,,,,,0,,,62,0
163992,note_on,312,0,9,,,,,,,,8,,,38,0
163992,note_on,312,0,7,,,,,,,,6,,,50,0
163992,note_on,312,0,2,,,,,,,,1,,,50,0
164064,note_on,384,0,4,,,,,,,,3,,,62,0
164160,note_on,23232,0,3,,,,,,,,2,,,70,105
164160,note_on,168,0,2,,,,,,,,1,,,58,105
164160,note_on,168,0,7,,,,,,,,6,,,58,105
164160,note_on,168,0,8,,,,,,,,7,,,58,105
164160,note_on,168,0,1,,,,,,,,0,,,70,105
164160,note_on,168,0,9,,,,,,,,8,,,46,105
164304,note_on,384,0,5,,,,,,,,4,,,74,0
164304,note_on,384,0,6,,,,,,,,5,,,74,0
164400,note_on,96,0,6,,,,,,,,5,,,74,105
164400,note_on,96,0,5,,,,,,,,4,,,74,105
164544,note_on,384,0,3,,,,,,,,2,,,70,0
164736,note_on,576,0,2,,,,,,,,1,,,58,0
164736,note_on,576,0,9,,,,,,,,8,,,46,0
164736,note_on,576,0,7,,,,,,,,6,,,58,0
164736,note_on,576,0,1,,,,,,,,0,,,70,0
164736,note_on,576,0,8,,,,,,,,7,,,58,0
164784,note_on,384,0,6,,,,,,,,5,,,74,0
164784,note_on,384,0,5,,,,,,,,4,,,74,0
164880,note_on,144,0,2,,,,,,,,1,,,57,105
164880,note_on,96,0,6,,,,,,,,5,,,74,105
164880,note_on,144,0,1,,,,,,,,0,,,69,105
164880,note_on,144,0,7,,,,,,,,6,,,57,105
164880,note_on,144,0,9,,,,,,,,8,,,45,105
164880,note_on,816,0,4,,,,,,,,3,,,69,105
164880,note_on,144,0,8,,,,,,,,7,,,57,105
164880,note_on,96,0,5,,,,,,,,4,,,74,105
165036,note_on,156,0,8,,,,,,,,7,,,57,0
165036,note_on,156,0,9,,,,,,,,8,,,45,0
165036,note_on,156,0,1,,,,,,,,0,,,69,0
165036,note_on,156,0,2,,,,,,,,1,,,57,0
165036,note_on,156,0,7,,,,,,,,6,,,57,0
165072,note_on,192,0,4,,,,,,,,3,,,69,0
165120,note_on,84,0,1,,,,,,,,0,,,67,105
165120,note_on,84,0,8,,,,,,,,7,,,55,105
165120,note_on,84,0,2,,,,,,,,1,,,55,105
165120,note_on,84,0,7,,,,,,,,6,,,55,105
165120,note_on,84,0,9,,,,,,,,8,,,43,105
165120,note_on,48,0,4,,,,,,,,3,,,67,105
165432,note_on,312,0,1,,,,,,,,0,,,67,0
165432,note_on,312,0,2,,,,,,,,1,,,55,0
165432,note_on,312,0,9,,,,,,,,8,,,43,0
165432,note_on,312,0,8,,,,,,,,7,,,55,0
165432,note_on,312,0,7,,,,,,,,6,,,55,0
165504,note_on,624,0,6,,,,,,,,5,,,74,0
165504,note_on,624,0,5,,,,,,,,4,,,74,0
165504,note_on,384,0,4,,,,,,,,3,,,67,0
165600,note_on,96,0,5,,,,,,,,4,,,79,105
165600,note_on,168,0,2,,,,,,,,1,,,58,105
165600,note_on,168,0,7,,,,,,,,6,,,62,105
165600,note_on,96,0,6,,,,,,,,5,,,74,105
165600,note_on,1056,0,3,,,,,,,,2,,,70,105
165600,note_on,168,0,1,,,,,,,,0,,,79,105
165600,note_on,168,0,8,,,,,,,,7,,,58,105
165600,note_on,168,0,9,,,,,,,,8,,,46,105
165600,note_on,0,0,1,,,,,,,,0,,,74,105
165984,note_on,384,0,3,,,,,,,,2,,,70,0
166080,note_on,480,0,1,,,,,,,,0,,,74,0
166080,note_on,0,0,1,,,,,,,,0,,,79,0
166080,note_on,0,0,1,,,,,,,,0,,,78,105
166080,note_on,0,0,1,,,,,,,,0,,,72,105
166080,note_on,0,0,5,,,,,,,,4,,,78,105
166080,note_on,480,0,5,,,,,,,,4,,,79,0
166080,note_on,576,0,4,,,,,,,,3,,,69,105
166080,note_on,0,0,6,,,,,,,,5,,,72,105
166080,note_on,0,0,2,,,,,,,,1,,,57,105
166080,note_on,480,0,2,,,,,,,,1,,,58,0
166080,note_on,480,0,9,,,,,,,,8,,,46,0
166080,note_on,0,0,8,,,,,,,,7,,,57,105
166080,note_on,480,0,8,,,,,,,,7,,,58,0
166080,note_on,480,0,6,,,,,,,,5,,,74,0
166080,note_on,0,0,9,,,,,,,,8,,,45,105
166368,note_on,768,0,7,,,,,,,,6,,,62,0
166464,note_on,384,0,4,,,,,,,,3,,,69,0
166560,note_on,480,0,5,,,,,,,,4,,,78,0
166560,note_on,0,0,5,,,,,,,,4,,,79,105
166560,note_on,96,0,4,,,,,,,,3,,,67,105
166560,note_on,192,0,7,,,,,,,,6,,,62,105
166560,note_on,0,0,1,,,,,,,,0,,,78,0
166560,note_on,0,0,2,,,,,,,,1,,,55,105
166560,note_on,480,0,2,,,,,,,,1,,,57,0
166560,note_on,480,0,6,,,,,,,,5,,,72,0
166560,note_on,0,0,6,,,,,,,,5,,,70,105
166560,note_on,480,0,1,,,,,,,,0,,,72,0
166560,note_on,480,0,9,,,,,,,,8,,,45,0
166560,note_on,0,0,9,,,,,,,,8,,,43,105
166560,note_on,0,0,8,,,,,,,,7,,,55,105
166560,note_on,480,0,8,,,,,,,,7,,,57,0
166560,note_on,0,0,1,,,,,,,,0,,,79,105
166560,note_on,0,0,1,,,,,,,,0,,,70,105
166944,note_on,384,0,6,,,,,,,,5,,,70,0
166944,note_on,384,0,5,,,,,,,,4,,,79,0
166944,note_on,384,0,4,,,,,,,,3,,,67,0
167040,note_on,0,0,2,,,,,,,,1,,,54,105
167040,note_on,480,0,2,,,,,,,,1,,,55,0
167040,note_on,96,0,4,,,,,,,,3,,,69,105
167040,note_on,0,0,1,,,,,,,,0,,,70,0
167040,note_on,0,0,9,,,,,,,,8,,,42,105
167040,note_on,480,0,9,,,,,,,,8,,,43,0
167040,note_on,0,0,8,,,,,,,,7,,,54,105
167040,note_on,0,0,1,,,,,,,,0,,,81,105
167040,note_on,0,0,1,,,,,,,,0,,,69,105
167040,note_on,96,0,6,,,,,,,,5,,,69,105
167040,note_on,480,0,8,,,,,,,,7,,,55,0
167040,note_on,96,0,5,,,,,,,,4,,,81,105
167040,note_on,480,0,1,,,,,,,,0,,,79,0
167232,note_on,192,0,5,,,,,,,,4,,,81,0
167232,note_on,192,0,6,,,,,,,,5,,,69,0
167280,note_on,48,0,5,,,,,,,,4,,,74,105
167280,note_on,48,0,6,,,,,,,,5,,,74,105
167352,note_on,312,0,1,,,,,,,,0,,,81,0
167352,note_on,312,0,8,,,,,,,,7,,,54,0
167352,note_on,792,0,7,,,,,,,,6,,,62,0
167352,note_on,312,0,2,,,,,,,,1,,,54,0
167352,note_on,0,0,1,,,,,,,,0,,,69,0
167352,note_on,312,0,9,,,,,,,,8,,,42,0
167424,note_on,384,0,4,,,,,,,,3,,,69,0
167520,note_on,96,0,4,,,,,,,,3,,,62,105
167520,note_on,168,0,2,,,,,,,,1,,,50,105
167520,note_on,168,0,1,,,,,,,,0,,,62,105
167520,note_on,168,0,8,,,,,,,,7,,,50,105
167520,note_on,1536,0,3,,,,,,,,2,,,62,105
167520,note_on,168,0,9,,,,,,,,8,,,38,105
167520,note_on,168,0,7,,,,,,,,6,,,50,105
167664,note_on,384,0,6,,,,,,,,5,,,74,0
167664,note_on,384,0,5,,,,,,,,4,,,74,0
167760,note_on,96,0,5,,,,,,,,4,,,74,105
167760,note_on,96,0,6,,,,,,,,5,,,74,105
167832,note_on,312,0,7,,,,,,,,6,,,50,0
167832,note_on,312,0,8,,,,,,,,7,,,50,0
167832,note_on,312,0,2,,,,,,,,1,,,50,0
167832,note_on,312,0,1,,,,,,,,0,,,62,0
167832,note_on,312,0,9,,,,,,,,8,,,38,0
167904,note_on,384,0,4,,,,,,,,3,,,62,0
167904,note_on,384,0,3,,,,,,,,2,,,62,0
168000,note_on,96,0,3,,,,,,,,2,,,72,105
168000,note_on,168,0,1,,,,,,,,0,,,72,105
168000,note_on,168,0,8,,,,,,,,7,,,60,105
168000,note_on,168,0,2,,,,,,,,1,,,60,105
168000,note_on,96,0,4,,,,,,,,3,,,72,105
168000,note_on,168,0,9,,,,,,,,8,,,48,105
168000,note_on,168,0,7,,,,,,,,6,,,60,105
168144,note_on,384,0,6,,,,,,,,5,,,74,0
168144,note_on,384,0,5,,,,,,,,4,,,74,0
168240,note_on,96,0,6,,,,,,,,5,,,74,105
168240,note_on,96,0,5,,,,,,,,4,,,74,105
168384,note_on,384,0,4,,,,,,,,3,,,72,0
168384,note_on,384,0,3,,,,,,,,2,,,72,0
168576,note_on,576,0,7,,,,,,,,6,,,60,0
168576,note_on,576,0,9,,,,,,,,8,,,48,0
168576,note_on,576,0,8,,,,,,,,7,,,60,0
168576,note_on,576,0,1,,,,,,,,0,,,72,0
168576,note_on,576,0,2,,,,,,,,1,,,60,0
168624,note_on,384,0,6,,,,,,,,5,,,74,0
168624,note_on,384,0,5,,,,,,,,4,,,74,0
168720,note_on,96,0,6,,,,,,,,5,,,74,105
168720,note_on,144,0,7,,,,,,,,6,,,58,105
168720,note_on,144,0,1,,,,,,,,0,,,70,105
168720,note_on,144,0,9,,,,,,,,8,,,46,105
168720,note_on,144,0,2,,,,,,,,1,,,58,105
168720,note_on,144,0,8,,,,,,,,7,,,58,105
168720,note_on,96,0,5,,,,,,,,4,,,74,105
168876,note_on,156,0,1,,,,,,,,0,,,70,0
168876,note_on,156,0,2,,,,,,,,1,,,58,0
168876,note_on,156,0,8,,,,,,,,7,,,58,0
168876,note_on,156,0,7,,,,,,,,6,,,58,0
168876,note_on,156,0,9,,,,,,,,8,,,46,0
168960,note_on,84,0,8,,,,,,,,7,,,57,105
168960,note_on,576,0,4,,,,,,,,3,,,69,105
168960,note_on,84,0,9,,,,,,,,8,,,45,105
168960,note_on,84,0,2,,,,,,,,1,,,57,105
168960,note_on,84,0,7,,,,,,,,6,,,57,105
168960,note_on,84,0,1,,,,,,,,0,,,69,105
169272,note_on,312,0,9,,,,,,,,8,,,45,0
169272,note_on,312,0,7,,,,,,,,6,,,57,0
169272,note_on,312,0,2,,,,,,,,1,,,57,0
169272,note_on,312,0,1,,,,,,,,0,,,69,0
169272,note_on,312,0,8,,,,,,,,7,,,57,0
169344,note_on,384,0,4,,,,,,,,3,,,69,0
169344,note_on,624,0,5,,,,,,,,4,,,74,0
169344,note_on,624,0,6,,,,,,,,5,,,74,0
169440,note_on,0,0,1,,,,,,,,0,,,81,105
169440,note_on,96,0,4,,,,,,,,3,,,72,105
169440,note_on,96,0,6,,,,,,,,5,,,75,105
169440,note_on,168,0,7,,,,,,,,6,,,66,105
169440,note_on,168,0,2,,,,,,,,1,,,60,105
169440,note_on,168,0,8,,,,,,,,7,,,60,105
169440,note_on,1056,0,3,,,,,,,,2,,,72,105
169440,note_on,96,0,5,,,,,,,,4,,,81,105
169440,note_on,168,0,9,,,,,,,,8,,,48,105
169440,note_on,168,0,1,,,,,,,,0,,,75,105
169824,note_on,384,0,3,,,,,,,,2,,,72,0
169824,note_on,384,0,4,,,,,,,,3,,,72,0
169920,note_on,0,0,1,,,,,,,,0,,,74,105
169920,note_on,480,0,5,,,,,,,,4,,,81,0
169920,note_on,0,0,5,,,,,,,,4,,,79,105
169920,note_on,0,0,6,,,,,,,,5,,,74,105
169920,note_on,480,0,6,,,,,,,,5,,,75,0
169920,note_on,0,0,1,,,,,,,,0,,,75,0
169920,note_on,0,0,8,,,,,,,,7,,,58,105
169920,note_on,0,0,9,,,,,,,,8,,,46,105
169920,note_on,480,0,2,,,,,,,,1,,,60,0
169920,note_on,0,0,2,,,,,,,,1,,,58,105
169920,note_on,480,0,1,,,,,,,,0,,,81,0
169920,note_on,480,0,7,,,,,,,,6,,,66,0
169920,note_on,0,0,7,,,,,,,,6,,,67,105
169920,note_on,480,0,8,,,,,,,,7,,,60,0
169920,note_on,96,0,3,,,,,,,,2,,,70,105
169920,note_on,480,0,9,,,,,,,,8,,,48,0
169920,note_on,0,0,1,,,,,,,,0,,,79,105
170304,note_on,384,0,3,,,,,,,,2,,,70,0
170304,note_on,384,0,7,,,,,,,,6,,,67,0
170400,note_on,0,0,1,,,,,,,,0,,,78,105
170400,note_on,480,0,1,,,,,,,,0,,,79,0
170400,note_on,0,0,1,,,,,,,,0,,,74,0
170400,note_on,0,0,1,,,,,,,,0,,,81,105
170400,note_on,0,0,8,,,,,,,,7,,,57,105
170400,note_on,0,0,9,,,,,,,,8,,,45,105
170400,note_on,480,0,2,,,,,,,,1,,,58,0
170400,note_on,576,0,4,,,,,,,,3,,,69,105
170400,note_on,0,0,5,,,,,,,,4,,,81,105
170400,note_on,480,0,5,,,,,,,,4,,,79,0
170400,note_on,480,0,8,,,,,,,,7,,,58,0
170400,note_on,0,0,6,,,,,,,,5,,,78,105
170400,note_on,480,0,6,,,,,,,,5,,,74,0
170400,note_on,480,0,9,,,,,,,,8,,,46,0
170400,note_on,0,0,2,,,,,,,,1,,,57,105
170400,note_on,96,0,7,,,,,,,,6,,,72,105
170784,note_on,384,0,6,,,,,,,,5,,,78,0
170784,note_on,384,0,5,,,,,,,,4,,,81,0
170784,note_on,384,0,4,,,,,,,,3,,,69,0
170880,note_on,0,0,9,,,,,,,,8,,,43,105
170880,note_on,480,0,9,,,,,,,,8,,,45,0
170880,note_on,0,0,1,,,,,,,,0,,,79,105
170880,note_on,96,0,5,,,,,,,,4,,,82,105
170880,note_on,480,0,1,,,,,,,,0,,,81,0
170880,note_on,0,0,1,,,,,,,,0,,,78,0
170880,note_on,0,0,1,,,,,,,,0,,,82,105
170880,note_on,96,0,4,,,,,,,,3,,,67,105
170880,note_on,96,0,6,,,,,,,,5,,,79,105
170880,note_on,480,0,7,,,,,,,,6,,,72,0
170880,note_on,0,0,7,,,,,,,,6,,,70,105
170880,note_on,0,0,8,,,,,,,,7,,,55,105
170880,note_on,480,0,8,,,,,,,,7,,,57,0
170880,note_on,480,0,2,,,,,,,,1,,,57,0
170880,note_on,0,0,2,,,,,,,,1,,,55,105
171072,note_on,192,0,5,,,,,,,,4,,,82,0
171072,note_on,192,0,6,,,,,,,,5,,,79,0
171120,note_on,48,0,5,,,,,,,,4,,,79,105
171120,note_on,48,0,6,,,,,,,,5,,,79,105
171192,note_on,0,0,1,,,,,,,,0,,,79,0
171192,note_on,312,0,9,,,,,,,,8,,,43,0
171192,note_on,312,0,1,,,,,,,,0,,,82,0
171192,note_on,312,0,2,,,,,,,,1,,,55,0
171192,note_on,312,0,7,,,,,,,,6,,,70,0
171192,note_on,312,0,8,,,,,,,,7,,,55,0
171264,note_on,384,0,4,,,,,,,,3,,,67,0
171360,note_on,168,0,1,,,,,,,,0,,,67,105
171360,note_on,168,0,9,,,,,,,,8,,,46,105
171360,note_on,1056,0,3,,,,,,,,2,,,70,105
171360,note_on,168,0,8,,,,,,,,7,,,58,105
171360,note_on,168,0,7,,,,,,,,6,,,58,105
171360,note_on,168,0,2,,,,,,,,1,,,58,105
171504,note_on,384,0,6,,,,,,,,5,,,79,0
171504,note_on,384,0,5,,,,,,,,4,,,79,0
171600,note_on,96,0,5,,,,,,,,4,,,79,105
171600,note_on,96,0,6,,,,,,,,5,,,79,105
171672,note_on,312,0,8,,,,,,,,7,,,58,0
171672,note_on,312,0,9,,,,,,,,8,,,46,0
171672,note_on,312,0,2,,,,,,,,1,,,58,0
171672,note_on,312,0,7,,,,,,,,6,,,58,0
171672,note_on,312,0,1,,,,,,,,0,,,67,0
171744,note_on,384,0,3,,,,,,,,2,,,70,0
171840,note_on,168,0,8,,,,,,,,7,,,63,105
171840,note_on,168,0,9,,,,,,,,8,,,51,105
171840,note_on,168,0,7,,,,,,,,6,,,63,105
171840,note_on,168,0,2,,,,,,,,1,,,63,105
171840,note_on,96,0,3,,,,,,,,2,,,75,105
171840,note_on,168,0,1,,,,,,,,0,,,79,105
171984,note_on,384,0,5,,,,,,,,4,,,79,0
171984,note_on,384,0,6,,,,,,,,5,,,79,0
172080,note_on,96,0,6,,,,,,,,5,,,79,105
172080,note_on,96,0,5,,,,,,,,4,,,79,105
172416,note_on,576,0,8,,,,,,,,7,,,63,0
172416,note_on,576,0,3,,,,,,,,2,,,75,0
172416,note_on,576,0,9,,,,,,,,8,,,51,0
172416,note_on,576,0,7,,,,,,,,6,,,63,0
172416,note_on,576,0,2,,,,,,,,1,,,63,0
172416,note_on,576,0,1,,,,,,,,0,,,79,0
172464,note_on,384,0,6,,,,,,,,5,,,79,0
172464,note_on,384,0,5,,,,,,,,4,,,79,0
172560,note_on,96,0,5,,,,,,,,4,,,79,105
172560,note_on,144,0,3,,,,,,,,2,,,74,105
172560,note_on,96,0,6,,,,,,,,5,,,79,105
172560,note_on,144,0,7,,,,,,,,6,,,62,105
172560,note_on,1296,0,4,,,,,,,,3,,,74,105
172560,note_on,144,0,2,,,,,,,,1,,,62,105
172560,note_on,144,0,8,,,,,,,,7,,,62,105
172560,note_on,144,0,9,,,,,,,,8,,,50,105
172560,note_on,144,0,1,,,,,,,,0,,,77,105
172716,note_on,156,0,7,,,,,,,,6,,,62,0
172716,note_on,156,0,8,,,,,,,,7,,,62,0
172716,note_on,156,0,9,,,,,,,,8,,,50,0
172716,note_on,156,0,2,,,,,,,,1,,,62,0
172716,note_on,156,0,1,,,,,,,,0,,,77,0
172752,note_on,192,0,4,,,,,,,,3,,,74,0
172752,note_on,192,0,6,,,,,,,,5,,,79,0
172752,note_on,192,0,3,,,,,,,,2,,,74,0
172752,note_on,192,0,5,,,,,,,,4,,,79,0
172800,note_on,84,0,2,,,,,,,,1,,,60,105
172800,note_on,48,0,6,,,,,,,,5,,,87,105
172800,note_on,84,0,7,,,,,,,,6,,,60,105
172800,note_on,84,0,1,,,,,,,,0,,,75,105
172800,note_on,48,0,3,,,,,,,,2,,,72,105
172800,note_on,48,0,4,,,,,,,,3,,,72,105
172800,note_on,84,0,9,,,,,,,,8,,,48,105
172800,note_on,48,0,5,,,,,,,,4,,,87,105
172800,note_on,84,0,8,,,,,,,,7,,,60,105
172992,note_on,192,0,6,,,,,,,,5,,,87,0
172992,note_on,192,0,5,,,,,,,,4,,,87,0
173040,note_on,48,0,6,,,,,,,,5,,,87,105
173040,note_on,48,0,5,,,,,,,,4,,,87,105
173112,note_on,312,0,7,,,,,,,,6,,,60,0
173112,note_on,312,0,1,,,,,,,,0,,,75,0
173112,note_on,312,0,9,,,,,,,,8,,,48,0
173112,note_on,312,0,2,,,,,,,,1,,,60,0
173112,note_on,312,0,8,,,,,,,,7,,,60,0
173184,note_on,384,0,4,,,,,,,,3,,,72,0
173184,note_on,384,0,3,,,,,,,,2,,,72,0
173280,note_on,168,0,1,,,,,,,,0,,,72,105
173280,note_on,168,0,7,,,,,,,,6,,,57,105
173280,note_on,168,0,8,,,,,,,,7,,,57,105
173280,note_on,96,0,4,,,,,,,,3,,,69,105
173280,note_on,168,0,2,,,,,,,,1,,,57,105
173280,note_on,168,0,9,,,,,,,,8,,,45,105
173424,note_on,384,0,6,,,,,,,,5,,,87,0
173424,note_on,384,0,5,,,,,,,,4,,,87,0
173520,note_on,96,0,5,,,,,,,,4,,,87,105
173520,note_on,96,0,6,,,,,,,,5,,,87,105
173592,note_on,312,0,1,,,,,,,,0,,,72,0
173592,note_on,312,0,8,,,,,,,,7,,,57,0
173592,note_on,312,0,9,,,,,,,,8,,,45,0
173592,note_on,312,0,2,,,,,,,,1,,,57,0
173592,note_on,312,0,7,,,,,,,,6,,,57,0
173664,note_on,384,0,4,,,,,,,,3,,,69,0
173712,note_on,192,0,6,,,,,,,,5,,,87,0
173712,note_on,192,0,5,,,,,,,,4,,,87,0
173760,note_on,48,0,5,,,,,,,,4,,,78,105
173760,note_on,48,0,6,,,,,,,,5,,,78,105
173760,note_on,168,0,9,,,,,,,,8,,,50,105
173760,note_on,168,0,2,,,,,,,,1,,,62,105
173760,note_on,168,0,8,,,,,,,,7,,,62,105
173760,note_on,576,0,3,,,,,,,,2,,,74,105
173760,note_on,96,0,4,,,,,,,,3,,,74,105
173760,note_on,168,0,1,,,,,,,,0,,,69,105
173760,note_on,168,0,7,,,,,,,,6,,,62,105
173952,note_on,192,0,6,,,,,,,,5,,,78,0
173952,note_on,192,0,5,,,,,,,,4,,,78,0
174000,note_on,48,0,5,,,,,,,,4,,,78,105
174000,note_on,48,0,6,,,,,,,,5,,,78,105
174144,note_on,384,0,4,,,,,,,,3,,,74,0
174336,note_on,576,0,3,,,,,,,,2,,,74,0
174384,note_on,384,0,5,,,,,,,,4,,,78,0
174384,note_on,384,0,6,,,,,,,,5,,,78,0
174480,note_on,96,0,5,,,,,,,,4,,,78,105
174480,note_on,0,0,2,,,,,,,,1,,,60,105
174480,note_on,720,0,2,,,,,,,,1,,,62,0
174480,note_on,720,0,7,,,,,,,,6,,,62,0
174480,note_on,0,0,7,,,,,,,,6,,,60,105
174480,note_on,96,0,6,,,,,,,,5,,,78,105
174480,note_on,0,0,9,,,,,,,,8,,,48,105
174480,note_on,0,0,8,,,,,,,,7,,,60,105
174480,note_on,720,0,8,,,,,,,,7,,,62,0
174480,note_on,720,0,9,,,,,,,,8,,,50,0
174480,note_on,144,0,3,,,,,,,,2,,,72,105
174528,note_on,768,0,1,,,,,,,,0,,,69,0
174672,note_on,192,0,6,,,,,,,,5,,,78,0
174672,note_on,192,0,9,,,,,,,,8,,,48,0
174672,note_on,192,0,7,,,,,,,,6,,,60,0
174672,note_on,192,0,8,,,,,,,,7,,,60,0
174672,note_on,192,0,2,,,,,,,,1,,,60,0
174672,note_on,192,0,3,,,,,,,,2,,,72,0
174672,note_on,192,0,5,,,,,,,,4,,,78,0
174720,note_on,48,0,7,,,,,,,,6,,,58,105
174720,note_on,48,0,8,,,,,,,,7,,,58,105
174720,note_on,48,0,3,,,,,,,,2,,,70,105
174720,note_on,0,0,1,,,,,,,,0,,,62,105
174720,note_on,48,0,5,,,,,,,,4,,,79,105
174720,note_on,576,0,4,,,,,,,,3,,,67,105
174720,note_on,48,0,9,,,,,,,,8,,,46,105
174720,note_on,48,0,6,,,,,,,,5,,,79,105
174720,note_on,192,0,1,,,,,,,,0,,,74,105
174720,note_on,48,0,2,,,,,,,,1,,,58,105
175032,note_on,312,0,5,,,,,,,,4,,,79,0
175032,note_on,312,0,2,,,,,,,,1,,,58,0
175032,note_on,312,0,9,,,,,,,,8,,,46,0
175032,note_on,312,0,8,,,,,,,,7,,,58,0
175032,note_on,312,0,7,,,,,,,,6,,,58,0
175032,note_on,312,0,6,,,,,,,,5,,,79,0
175032,note_on,312,0,1,,,,,,,,0,,,62,0
175032,note_on,0,0,1,,,,,,,,0,,,74,0
175200,note_on,168,0,6,,,,,,,,5,,,70,105
175200,note_on,168,0,7,,,,,,,,6,,,63,105
175200,note_on,168,0,8,,,,,,,,7,,,51,105
175200,note_on,168,0,9,,,,,,,,8,,,39,105
175200,note_on,168,0,1,,,,,,,,0,,,67,105
175200,note_on,0,0,1,,,,,,,,0,,,70,105
175200,note_on,168,0,5,,,,,,,,4,,,70,105
175200,note_on,168,0,2,,,,,,,,1,,,51,105
175488,note_on,768,0,3,,,,,,,,2,,,70,0
175488,note_on,768,0,4,,,,,,,,3,,,67,0
175512,note_on,312,0,6,,,,,,,,5,,,70,0
175512,note_on,312,0,5,,,,,,,,4,,,70,0
175512,note_on,312,0,9,,,,,,,,8,,,39,0
175512,note_on,312,0,1,,,,,,,,0,,,70,0
175512,note_on,312,0,8,,,,,,,,7,,,51,0
175512,note_on,312,0,2,,,,,,,,1,,,51,0
175512,note_on,312,0,7,,,,,,,,6,,,63,0
175680,note_on,168,0,9,,,,,,,,8,,,36,105
175680,note_on,0,0,4,,,,,,,,3,,,69,105
175680,note_on,168,0,1,,,,,,,,0,,,69,105
175680,note_on,192,0,4,,,,,,,,3,,,67,105
175680,note_on,168,0,8,,,,,,,,7,,,48,105
175680,note_on,168,0,7,,,,,,,,6,,,63,105
175680,note_on,168,0,5,,,,,,,,4,,,69,105
175680,note_on,168,0,6,,,,,,,,5,,,69,105
175680,note_on,168,0,2,,,,,,,,1,,,48,105
175992,note_on,312,0,6,,,,,,,,5,,,69,0
175992,note_on,312,0,9,,,,,,,,8,,,36,0
175992,note_on,312,0,5,,,,,,,,4,,,69,0
175992,note_on,312,0,2,,,,,,,,1,,,48,0
175992,note_on,312,0,8,,,,,,,,7,,,48,0
175992,note_on,312,0,7,,,,,,,,6,,,63,0
175992,note_on,312,0,1,,,,,,,,0,,,67,0
176064,note_on,0,0,4,,,,,,,,3,,,67,0
176064,note_on,384,0,4,,,,,,,,3,,,69,0
176160,note_on,168,0,9,,,,,,,,8,,,38,105
176160,note_on,168,0,8,,,,,,,,7,,,50,105
176160,note_on,168,0,7,,,,,,,,6,,,62,105
176160,note_on,0,0,4,,,,,,,,3,,,69,105
176160,note_on,168,0,1,,,,,,,,0,,,66,105
176160,note_on,672,0,3,,,,,,,,2,,,62,105
176160,note_on,96,0,4,,,,,,,,3,,,62,105
176160,note_on,168,0,2,,,,,,,,1,,,50,105
176160,note_on,168,0,5,,,,,,,,4,,,78,105
176160,note_on,168,0,6,,,,,,,,5,,,78,105
176472,note_on,312,0,9,,,,,,,,8,,,38,0
176472,note_on,0,0,1,,,,,,,,0,,,69,0
176472,note_on,312,0,1,,,,,,,,0,,,66,0
176472,note_on,312,0,6,,,,,,,,5,,,78,0
176472,note_on,312,0,8,,,,,,,,7,,,50,0
176472,note_on,312,0,5,,,,,,,,4,,,78,0
176472,note_on,312,0,7,,,,,,,,6,,,62,0
176472,note_on,312,0,2,,,,,,,,1,,,50,0
176544,note_on,384,0,3,,,,,,,,2,,,62,0
176544,note_on,384,0,4,,,,,,,,3,,,69,0
176544,note_on,0,0,4,,,,,,,,3,,,62,0
176640,note_on,168,0,1,,,,,,,,0,,,67,105
176640,note_on,96,0,3,,,,,,,,2,,,62,105
176640,note_on,168,0,6,,,,,,,,5,,,79,105
176640,note_on,96,0,4,,,,,,,,3,,,67,105
176640,note_on,0,0,4,,,,,,,,3,,,55,105
176640,note_on,168,0,7,,,,,,,,6,,,62,105
176640,note_on,168,0,2,,,,,,,,1,,,43,105
176640,note_on,0,0,3,,,,,,,,2,,,58,105
176640,set_tempo,28800,1,0,,,,,,309278,,,,,,
176640,note_on,168,0,9,,,,,,,,8,,,31,105
176640,note_on,168,0,8,,,,,,,,7,,,43,105
176640,note_on,168,0,5,,,,,,,,4,,,79,105
176952,note_on,312,0,5,,,,,,,,4,,,79,0
176952,note_on,312,0,6,,,,,,,,5,,,79,0
176952,note_on,312,0,7,,,,,,,,6,,,62,0
177120,note_on,168,0,7,,,,,,,,6,,,58,105
177120,note_on,168,0,6,,,,,,,,5,,,67,105
177120,note_on,168,0,5,,,,,,,,4,,,67,105
177408,note_on,768,0,9,,,,,,,,8,,,31,0
177408,note_on,0,0,3,,,,,,,,2,,,62,0
177408,note_on,768,0,8,,,,,,,,7,,,43,0
177408,note_on,0,0,4,,,,,,,,3,,,67,0
177408,note_on,768,0,4,,,,,,,,3,,,55,0
177408,note_on,768,0,1,,,,,,,,0,,,67,0
177408,note_on,768,0,3,,,,,,,,2,,,58,0
177408,note_on,768,0,2,,,,,,,,1,,,43,0
177432,note_on,312,0,5,,,,,,,,4,,,67,0
177432,note_on,312,0,6,,,,,,,,5,,,67,0
177432,note_on,312,0,7,,,,,,,,6,,,58,0
178080,note_on,648,0,5,,,,,,,,4,,,70,80
178320,note_on,240,0,5,,,,,,,,4,,,70,0
178320,note_on,0,0,5,,,,,,,,4,,,67,80
178512,note_on,192,0,5,,,,,,,,4,,,67,0
178560,set_tempo,1920,1,0,,,,,,300000,,,,,,
178560,note_on,48,0,5,,,,,,,,4,,,75,80
178896,note_on,336,0,5,,,,,,,,4,,,75,0
179040,note_on,144,0,5,,,,,,,,4,,,75,80
179376,note_on,336,0,5,,,,,,,,4,,,75,0
179520,note_on,2112,0,9,,,,,,,,8,,,45,58
179520,note_on,144,0,5,,,,,,,,4,,,75,80
179520,note_on,2088,0,7,,,,,,,,6,,,65,58
179520,note_on,2112,0,8,,,,,,,,7,,,57,58
179520,note_on,2088,0,6,,,,,,,,5,,,72,58
179856,note_on,336,0,5,,,,,,,,4,,,75,0
180000,note_on,144,0,5,,,,,,,,4,,,75,80
180288,note_on,768,0,7,,,,,,,,6,,,65,0
180288,note_on,768,0,8,,,,,,,,7,,,57,0
180288,note_on,768,0,6,,,,,,,,5,,,72,0
180288,note_on,768,0,9,,,,,,,,8,,,45,0
180336,note_on,336,0,5,,,,,,,,4,,,75,0
180480,note_on,192,0,8,,,,,,,,7,,,57,58
180480,note_on,192,0,6,,,,,,,,5,,,72,58
180480,note_on,192,0,7,,,,,,,,6,,,65,58
180480,note_on,192,0,9,,,,,,,,8,,,45,58
180480,note_on,144,0,5,,,,,,,,4,,,75,80
181440,note_on,960,0,9,,,,,,,,8,,,45,0
181440,note_on,0,0,6,,,,,,,,5,,,70,58
181440,note_on,0,0,8,,,,,,,,7,,,58,58
181440,note_on,960,0,8,,,,,,,,7,,,57,0
181440,note_on,960,0,6,,,,,,,,5,,,72,0
181440,note_on,960,0,5,,,,,,,,4,,,75,0
181440,note_on,0,0,9,,,,,,,,8,,,46,58
181440,note_on,0,0,5,,,,,,,,4,,,74,80
181776,note_on,336,0,5,,,,,,,,4,,,74,0
181824,note_on,384,0,8,,,,,,,,7,,,58,0
181824,note_on,384,0,6,,,,,,,,5,,,70,0
181824,note_on,384,0,9,,,,,,,,8,,,46,0
181824,note_on,1344,0,7,,,,,,,,6,,,65,0
181920,note_on,144,0,5,,,,,,,,4,,,75,80
182256,note_on,336,0,5,,,,,,,,4,,,75,0
182400,note_on,144,0,5,,,,,,,,4,,,76,80
182880,note_on,480,0,5,,,,,,,,4,,,76,0
182880,note_on,0,0,5,,,,,,,,4,,,77,80
183360,note_on,0,0,5,,,,,,,,4,,,78,80
183360,note_on,480,0,5,,,,,,,,4,,,77,0
183840,note_on,2016,0,9,,,,,,,,8,,,39,58
183840,note_on,2016,0,8,,,,,,,,7,,,51,58
183840,note_on,0,0,5,,,,,,,,4,,,79,80
183840,note_on,2016,0,6,,,,,,,,5,,,70,58
183840,note_on,480,0,5,,,,,,,,4,,,78,0
183840,note_on,2016,0,7,,,,,,,,6,,,63,58
184224,note_on,384,0,7,,,,,,,,6,,,63,0
184224,note_on,384,0,8,,,,,,,,7,,,51,0
184224,note_on,384,0,9,,,,,,,,8,,,39,0
184224,note_on,384,0,5,,,,,,,,4,,,79,0
184224,note_on,384,0,6,,,,,,,,5,,,70,0
184320,note_on,96,0,6,,,,,,,,5,,,65,58
184320,note_on,96,0,7,,,,,,,,6,,,62,58
184320,note_on,96,0,8,,,,,,,,7,,,53,58
184320,note_on,96,0,9,,,,,,,,8,,,41,58
184320,note_on,96,0,5,,,,,,,,4,,,70,80
185280,note_on,0,0,9,,,,,,,,8,,,41,58
185280,note_on,960,0,9,,,,,,,,8,,,41,0
185280,note_on,960,0,7,,,,,,,,6,,,62,0
185280,note_on,0,0,7,,,,,,,,6,,,60,58
185280,note_on,960,0,8,,,,,,,,7,,,53,0
185280,note_on,960,0,5,,,,,,,,4,,,70,0
185280,note_on,0,0,5,,,,,,,,4,,,69,80
185280,note_on,0,0,8,,,,,,,,7,,,53,58
185664,note_on,384,0,5,,,,,,,,4,,,69,0
185664,note_on,384,0,9,,,,,,,,8,,,41,0
185664,note_on,384,0,7,,,,,,,,6,,,60,0
185664,note_on,384,0,8,,,,,,,,7,,,53,0
185664,note_on,1344,0,6,,,,,,,,5,,,65,0
185760,note_on,96,0,5,,,,,,,,4,,,58,80
186000,note_on,240,0,5,,,,,,,,4,,,58,0
186000,note_on,0,0,5,,,,,,,,4,,,55,80
186192,note_on,192,0,5,,,,,,,,4,,,55,0
186240,note_on,48,0,5,,,,,,,,4,,,63,80
186600,note_on,360,0,5,,,,,,,,4,,,63,0
186720,note_on,120,0,5,,,,,,,,4,,,63,80
187080,note_on,360,0,5,,,,,,,,4,,,63,0
187200,note_on,120,0,5,,,,,,,,4,,,63,80
187200,note_on,1536,0,6,,,,,,,,5,,,60,58
187200,note_on,1536,0,8,,,,,,,,7,,,45,58
187200,note_on,1536,0,9,,,,,,,,8,,,33,58
187200,note_on,1536,0,7,,,,,,,,6,,,53,58
187560,note_on,360,0,5,,,,,,,,4,,,63,0
187680,note_on,120,0,5,,,,,,,,4,,,63,80
187968,note_on,768,0,6,,,,,,,,5,,,60,0
187968,note_on,768,0,7,,,,,,,,6,,,53,0
187968,note_on,768,0,8,,,,,,,,7,,,45,0
187968,note_on,768,0,9,,,,,,,,8,,,33,0
188040,note_on,360,0,5,,,,,,,,4,,,63,0
188160,note_on,192,0,9,,,,,,,,8,,,33,58
188160,note_on,192,0,6,,,,,,,,5,,,60,58
188160,note_on,192,0,8,,,,,,,,7,,,45,58
188160,note_on,192,0,7,,,,,,,,6,,,53,58
188160,note_on,120,0,5,,,,,,,,4,,,63,80
189120,note_on,0,0,8,,,,,,,,7,,,46,58
189120,note_on,960,0,9,,,,,,,,8,,,33,0
189120,note_on,0,0,9,,,,,,,,8,,,34,58
189120,note_on,960,0,6,,,,,,,,5,,,60,0
189120,note_on,0,0,6,,,,,,,,5,,,58,58
189120,note_on,0,0,5,,,,,,,,4,,,62,80
189120,note_on,960,0,5,,,,,,,,4,,,63,0
189120,note_on,960,0,8,,,,,,,,7,,,45,0
189504,note_on,384,0,9,,,,,,,,8,,,34,0
189504,note_on,384,0,6,,,,,,,,5,,,58,0
189504,note_on,384,0,8,,,,,,,,7,,,46,0
189504,note_on,1344,0,7,,,,,,,,6,,,53,0
189528,note_on,408,0,5,,,,,,,,4,,,62,0
189600,note_on,72,0,5,,,,,,,,4,,,63,80
189600,note_on,96,0,7,,,,,,,,6,,,55,58
189600,note_on,96,0,9,,,,,,,,8,,,43,58
189600,note_on,96,0,8,,,,,,,,7,,,55,58
189600,note_on,96,0,6,,,,,,,,5,,,58,58
190008,note_on,408,0,5,,,,,,,,4,,,63,0
190080,note_on,72,0,5,,,,,,,,4,,,64,80
190464,note_on,864,0,8,,,,,,,,7,,,55,0
190464,note_on,864,0,6,,,,,,,,5,,,58,0
190464,note_on,864,0,7,,,,,,,,6,,,55,0
190464,note_on,864,0,9,,,,,,,,8,,,43,0
190560,note_on,96,0,9,,,,,,,,8,,,38,58
190560,note_on,96,0,8,,,,,,,,7,,,50,58
190560,note_on,96,0,7,,,,,,,,6,,,50,58
190560,note_on,480,0,5,,,,,,,,4,,,64,0
190560,note_on,96,0,6,,,,,,,,5,,,58,58
190560,note_on,0,0,5,,,,,,,,4,,,65,80
191040,note_on,480,0,5,,,,,,,,4,,,65,0
191040,note_on,0,0,5,,,,,,,,4,,,66,80
191328,note_on,768,0,6,,,,,,,,5,,,58,0
191520,note_on,960,0,9,,,,,,,,8,,,38,0
191520,note_on,960,0,7,,,,,,,,6,,,50,0
191520,note_on,0,0,7,,,,,,,,6,,,51,58
191520,note_on,0,0,9,,,,,,,,8,,,39,58
191520,note_on,0,0,5,,,,,,,,4,,,67,80
191520,note_on,192,0,6,,,,,,,,5,,,58,58
191520,note_on,0,0,8,,,,,,,,7,,,51,58
191520,note_on,960,0,8,,,,,,,,7,,,50,0
191520,note_on,480,0,5,,,,,,,,4,,,66,0
191904,note_on,384,0,8,,,,,,,,7,,,51,0
191904,note_on,384,0,5,,,,,,,,4,,,67,0
191904,note_on,384,0,6,,,,,,,,5,,,58,0
191904,note_on,384,0,9,,,,,,,,8,,,39,0
191904,note_on,384,0,7,,,,,,,,6,,,51,0
192000,note_on,96,0,6,,,,,,,,5,,,58,58
192000,note_on,96,0,5,,,,,,,,4,,,58,80
192000,note_on,96,0,7,,,,,,,,6,,,50,58
192000,note_on,96,0,8,,,,,,,,7,,,53,58
192000,set_tempo,13440,1,0,,,,,,312500,,,,,,
192000,note_on,96,0,9,,,,,,,,8,,,41,58
192960,note_on,0,0,6,,,,,,,,5,,,57,58
192960,note_on,960,0,5,,,,,,,,4,,,58,0
192960,note_on,960,0,6,,,,,,,,5,,,58,0
192960,note_on,0,0,5,,,,,,,,4,,,57,80
192960,note_on,0,0,7,,,,,,,,6,,,48,58
192960,note_on,960,0,7,,,,,,,,6,,,50,0
193200,note_on,240,0,5,,,,,,,,4,,,57,0
193200,note_on,0,0,5,,,,,,,,4,,,58,80
193344,note_on,1344,0,9,,,,,,,,8,,,41,0
193344,note_on,1344,0,8,,,,,,,,7,,,53,0
193344,note_on,384,0,6,,,,,,,,5,,,57,0
193344,note_on,384,0,7,,,,,,,,6,,,48,0
193440,note_on,240,0,5,,,,,,,,4,,,58,0
193440,note_on,0,0,5,,,,,,,,4,,,60,80
193680,note_on,0,0,5,,,,,,,,4,,,62,80
193680,note_on,240,0,5,,,,,,,,4,,,60,0
193920,set_tempo,1920,1,0,,,,,,310881,,,,,,
193920,note_on,0,0,5,,,,,,,,4,,,63,70
193920,note_on,240,0,5,,,,,,,,4,,,62,0
194304,note_on,384,0,5,,,,,,,,4,,,63,0
194880,note_on,576,0,5,,,,,,,,4,,,69,70
195120,note_on,0,0,5,,,,,,,,4,,,70,70
195120,note_on,240,0,5,,,,,,,,4,,,69,0
195360,note_on,0,0,5,,,,,,,,4,,,72,70
195360,note_on,240,0,5,,,,,,,,4,,,70,0
195600,note_on,0,0,5,,,,,,,,4,,,74,70
195600,note_on,240,0,5,,,,,,,,4,,,72,0
195840,note_on,0,0,5,,,,,,,,4,,,75,58
195840,note_on,240,0,5,,,,,,,,4,,,74,0
195840,set_tempo,1920,1,0,,,,,,300000,,,,,,
196224,note_on,384,0,5,,,,,,,,4,,,75,0
196800,note_on,576,0,5,,,,,,,,4,,,75,105
196800,note_on,3456,0,8,,,,,,,,7,,,63,105
196800,note_on,3456,0,7,,,,,,,,6,,,75,105
196800,note_on,19392,0,1,,,,,,,,0,,,75,105
196800,note_on,3456,0,6,,,,,,,,5,,,75,105
196800,note_on,3456,0,9,,,,,,,,8,,,51,105
196800,note_on,19392,0,2,,,,,,,,1,,,63,105
196956,note_on,156,0,8,,,,,,,,7,,,63,0
196956,note_on,156,0,7,,,,,,,,6,,,75,0
196956,note_on,156,0,9,,,,,,,,8,,,51,0
196956,note_on,156,0,2,,,,,,,,1,,,63,0
196956,note_on,156,0,5,,,,,,,,4,,,75,0
196956,note_on,156,0,6,,,,,,,,5,,,75,0
196956,note_on,156,0,1,,,,,,,,0,,,75,0
197040,note_on,84,0,8,,,,,,,,7,,,62,105
197040,note_on,84,0,1,,,,,,,,0,,,74,105
197040,note_on,84,0,6,,,,,,,,5,,,74,105
197040,note_on,84,0,5,,,,,,,,4,,,74,105
197040,note_on,84,0,2,,,,,,,,1,,,62,105
197040,note_on,84,0,9,,,,,,,,8,,,50,105
197040,note_on,84,0,7,,,,,,,,6,,,74,105
197196,note_on,156,0,7,,,,,,,,6,,,74,0
197196,note_on,156,0,5,,,,,,,,4,,,74,0
197196,note_on,156,0,1,,,,,,,,0,,,74,0
197196,note_on,156,0,9,,,,,,,,8,,,50,0
197196,note_on,156,0,2,,,,,,,,1,,,62,0
197196,note_on,156,0,6,,,,,,,,5,,,74,0
197196,note_on,156,0,8,,,,,,,,7,,,62,0
197280,note_on,84,0,6,,,,,,,,5,,,72,105
197280,note_on,84,0,5,,,,,,,,4,,,72,105
197280,note_on,84,0,8,,,,,,,,7,,,60,105
197280,note_on,84,0,7,,,,,,,,6,,,72,105
197280,note_on,84,0,2,,,,,,,,1,,,60,105
197280,note_on,84,0,9,,,,,,,,8,,,48,105
197280,note_on,84,0,1,,,,,,,,0,,,72,105
197436,note_on,156,0,8,,,,,,,,7,,,60,0
197436,note_on,156,0,1,,,,,,,,0,,,72,0
197436,note_on,156,0,9,,,,,,,,8,,,48,0
197436,note_on,156,0,2,,,,,,,,1,,,60,0
197436,note_on,156,0,5,,,,,,,,4,,,72,0
197436,note_on,156,0,6,,,,,,,,5,,,72,0
197436,note_on,156,0,7,,,,,,,,6,,,72,0
197520,note_on,84,0,6,,,,,,,,5,,,70,105
197520,note_on,84,0,9,,,,,,,,8,,,46,105
197520,note_on,84,0,1,,,,,,,,0,,,70,105
197520,note_on,84,0,8,,,,,,,,7,,,58,105
197520,note_on,84,0,2,,,,,,,,1,,,58,105
197520,note_on,84,0,5,,,,,,,,4,,,70,105
197520,note_on,84,0,7,,,,,,,,6,,,70,105
197676,note_on,156,0,9,,,,,,,,8,,,46,0
197676,note_on,156,0,1,,,,,,,,0,,,70,0
197676,note_on,156,0,8,,,,,,,,7,,,58,0
197676,note_on,156,0,7,,,,,,,,6,,,70,0
197676,note_on,156,0,6,,,,,,,,5,,,70,0
197676,note_on,156,0,2,,,,,,,,1,,,58,0
197676,note_on,156,0,5,,,,,,,,4,,,70,0
197760,note_on,84,0,6,,,,,,,,5,,,69,105
197760,note_on,84,0,9,,,,,,,,8,,,45,105
197760,note_on,84,0,1,,,,,,,,0,,,69,105
197760,note_on,84,0,2,,,,,,,,1,,,57,105
197760,note_on,84,0,8,,,,,,,,7,,,57,105
197760,note_on,84,0,5,,,,,,,,4,,,69,105
197760,note_on,84,0,7,,,,,,,,6,,,69,105
198000,note_on,0,0,5,,,,,,,,4,,,70,105
198000,note_on,0,0,8,,,,,,,,7,,,58,105
198000,note_on,240,0,8,,,,,,,,7,,,57,0
198000,note_on,0,0,1,,,,,,,,0,,,70,105
198000,note_on,240,0,1,,,,,,,,0,,,69,0
198000,note_on,0,0,6,,,,,,,,5,,,70,105
198000,note_on,0,0,7,,,,,,,,6,,,70,105
198000,note_on,240,0,2,,,,,,,,1,,,57,0
198000,note_on,240,0,7,,,,,,,,6,,,69,0
198000,note_on,0,0,9,,,,,,,,8,,,46,105
198000,note_on,240,0,9,,,,,,,,8,,,45,0
198000,note_on,240,0,6,,,,,,,,5,,,69,0
198000,note_on,240,0,5,,,,,,,,4,,,69,0
198000,note_on,0,0,2,,,,,,,,1,,,58,105
198156,note_on,156,0,2,,,,,,,,1,,,58,0
198156,note_on,156,0,8,,,,,,,,7,,,58,0
198156,note_on,156,0,6,,,,,,,,5,,,70,0
198156,note_on,156,0,9,,,,,,,,8,,,46,0
198156,note_on,156,0,1,,,,,,,,0,,,70,0
198156,note_on,156,0,5,,,,,,,,4,,,70,0
198156,note_on,156,0,7,,,,,,,,6,,,70,0
198240,note_on,84,0,9,,,,,,,,8,,,45,105
198240,note_on,84,0,1,,,,,,,,0,,,69,105
198240,note_on,84,0,7,,,,,,,,6,,,69,105
198240,note_on,84,0,8,,,,,,,,7,,,57,105
198240,note_on,84,0,5,,,,,,,,4,,,69,105
198240,note_on,84,0,6,,,,,,,,5,,,69,105
198240,note_on,84,0,2,,,,,,,,1,,,57,105
198396,note_on,156,0,7,,,,,,,,6,,,69,0
198396,note_on,156,0,1,,,,,,,,0,,,69,0
198396,note_on,156,0,6,,,,,,,,5,,,69,0
198396,note_on,156,0,2,,,,,,,,1,,,57,0
198396,note_on,156,0,5,,,,,,,,4,,,69,0
198396,note_on,156,0,8,,,,,,,,7,,,57,0
198396,note_on,156,0,9,,,,,,,,8,,,45,0
198480,note_on,84,0,7,,,,,,,,6,,,67,105
198480,note_on,84,0,2,,,,,,,,1,,,55,105
198480,note_on,84,0,8,,,,,,,,7,,,55,105
198480,note_on,84,0,6,,,,,,,,5,,,67,105
198480,note_on,84,0,5,,,,,,,,4,,,67,105
198480,note_on,84,0,1,,,,,,,,0,,,67,105
198480,note_on,84,0,9,,,,,,,,8,,,43,105
198636,note_on,156,0,9,,,,,,,,8,,,43,0
198636,note_on,156,0,2,,,,,,,,1,,,55,0
198636,note_on,156,0,1,,,,,,,,0,,,67,0
198636,note_on,156,0,8,,,,,,,,7,,,55,0
198636,note_on,156,0,6,,,,,,,,5,,,67,0
198636,note_on,156,0,7,,,,,,,,6,,,67,0
198636,note_on,156,0,5,,,,,,,,4,,,67,0
198720,note_on,84,0,6,,,,,,,,5,,,65,105
198720,note_on,84,0,7,,,,,,,,6,,,65,105
198720,note_on,84,0,2,,,,,,,,1,,,53,105
198720,note_on,84,0,9,,,,,,,,8,,,41,105
198720,note_on,84,0,5,,,,,,,,4,,,65,105
198720,note_on,84,0,8,,,,,,,,7,,,53,105
198720,note_on,84,0,1,,,,,,,,0,,,65,105
198876,note_on,156,0,6,,,,,,,,5,,,65,0
198876,note_on,156,0,7,,,,,,,,6,,,65,0
198876,note_on,156,0,9,,,,,,,,8,,,41,0
198876,note_on,156,0,5,,,,,,,,4,,,65,0
198876,note_on,156,0,8,,,,,,,,7,,,53,0
198876,note_on,156,0,2,,,,,,,,1,,,53,0
198960,note_on,84,0,6,,,,,,,,5,,,63,105
198960,note_on,84,0,9,,,,,,,,8,,,39,105
198960,note_on,84,0,8,,,,,,,,7,,,51,105
198960,note_on,84,0,7,,,,,,,,6,,,63,105
198960,note_on,84,0,2,,,,,,,,1,,,51,105
198960,note_on,84,0,5,,,,,,,,4,,,63,105
199104,note_on,384,0,1,,,,,,,,0,,,65,0
199116,note_on,156,0,5,,,,,,,,4,,,63,0
199116,note_on,156,0,7,,,,,,,,6,,,63,0
199116,note_on,156,0,8,,,,,,,,7,,,51,0
199116,note_on,156,0,9,,,,,,,,8,,,39,0
199116,note_on,156,0,2,,,,,,,,1,,,51,0
199116,note_on,156,0,6,,,,,,,,5,,,63,0
199200,note_on,84,0,6,,,,,,,,5,,,62,105
199200,note_on,84,0,8,,,,,,,,7,,,50,105
199200,note_on,84,0,5,,,,,,,,4,,,62,105
199200,note_on,84,0,2,,,,,,,,1,,,50,105
199200,note_on,84,0,9,,,,,,,,8,,,38,105
199200,note_on,84,0,7,,,,,,,,6,,,62,105
199356,note_on,156,0,8,,,,,,,,7,,,50,0
199356,note_on,156,0,9,,,,,,,,8,,,38,0
199356,note_on,156,0,6,,,,,,,,5,,,62,0
199356,note_on,156,0,7,,,,,,,,6,,,62,0
199356,note_on,156,0,2,,,,,,,,1,,,50,0
199356,note_on,156,0,5,,,,,,,,4,,,62,0
199440,note_on,84,0,6,,,,,,,,5,,,60,105
199440,note_on,84,0,7,,,,,,,,6,,,60,105
199440,note_on,84,0,8,,,,,,,,7,,,48,105
199440,note_on,84,0,2,,,,,,,,1,,,48,105
199440,note_on,84,0,5,,,,,,,,4,,,60,105
199440,note_on,84,0,9,,,,,,,,8,,,36,105
199596,note_on,156,0,5,,,,,,,,4,,,60,0
199596,note_on,156,0,6,,,,,,,,5,,,60,0
199596,note_on,156,0,7,,,,,,,,6,,,60,0
199596,note_on,156,0,8,,,,,,,,7,,,48,0
199596,note_on,156,0,9,,,,,,,,8,,,36,0
199596,note_on,156,0,2,,,,,,,,1,,,48,0
199680,note_on,84,0,5,,,,,,,,4,,,58,105
199680,note_on,84,0,6,,,,,,,,5,,,58,105
199680,note_on,84,0,9,,,,,,,,8,,,34,105
199680,note_on,0,0,3,,,,,,,,2,,,58,105
199680,note_on,84,0,8,,,,,,,,7,,,46,105
199680,note_on,84,0,2,,,,,,,,1,,,46,105
199680,note_on,22272,0,3,,,,,,,,2,,,58,105
199680,note_on,84,0,7,,,,,,,,6,,,58,105
199992,note_on,312,0,5,,,,,,,,4,,,58,0
199992,note_on,312,0,6,,,,,,,,5,,,58,0
200064,note_on,384,0,7,,,,,,,,6,,,58,0
200064,note_on,384,0,9,,,,,,,,8,,,34,0
200064,note_on,384,0,8,,,,,,,,7,,,46,0
200064,note_on,384,0,2,,,,,,,,1,,,46,0
200160,note_on,168,0,6,,,,,,,,5,,,70,105
200160,note_on,168,0,5,,,,,,,,4,,,70,105
200448,note_on,768,0,3,,,,,,,,2,,,58,0
200448,note_on,0,0,3,,,,,,,,2,,,58,0
200472,note_on,312,0,6,,,,,,,,5,,,70,0
200472,note_on,312,0,5,,,,,,,,4,,,70,0
200640,note_on,576,0,8,,,,,,,,7,,,58,105
200640,note_on,168,0,6,,,,,,,,5,,,74,116
200640,note_on,576,0,9,,,,,,,,8,,,46,105
200640,note_on,168,0,5,,,,,,,,4,,,79,116
200640,note_on,576,0,2,,,,,,,,1,,,58,105
201216,note_on,576,0,8,,,,,,,,7,,,58,0
201216,note_on,576,0,2,,,,,,,,1,,,58,0
201216,note_on,576,0,9,,,,,,,,8,,,46,0
201216,note_on,576,0,6,,,,,,,,5,,,74,0
201216,note_on,576,0,5,,,,,,,,4,,,79,0
201360,note_on,144,0,8,,,,,,,,7,,,57,105
201360,note_on,144,0,5,,,,,,,,4,,,77,116
201360,note_on,144,0,6,,,,,,,,5,,,72,116
201360,note_on,144,0,2,,,,,,,,1,,,57,105
201360,note_on,144,0,9,,,,,,,,8,,,45,105
201552,note_on,192,0,9,,,,,,,,8,,,45,0
201552,note_on,192,0,8,,,,,,,,7,,,57,0
201552,note_on,192,0,6,,,,,,,,5,,,72,0
201552,note_on,192,0,2,,,,,,,,1,,,57,0
201552,note_on,192,0,5,,,,,,,,4,,,77,0
201600,note_on,48,0,9,,,,,,,,8,,,43,105
201600,note_on,1152,0,3,,,,,,,,2,,,70,105
201600,note_on,1536,0,7,,,,,,,,6,,,61,105
201600,note_on,48,0,5,,,,,,,,4,,,76,116
201600,note_on,48,0,8,,,,,,,,7,,,55,105
201600,note_on,48,0,2,,,,,,,,1,,,55,105
201600,note_on,2496,0,1,,,,,,,,0,,,76,105
201600,note_on,48,0,6,,,,,,,,5,,,70,116
201600,note_on,0,0,1,,,,,,,,0,,,70,105
201600,note_on,0,0,3,,,,,,,,2,,,58,105
201840,note_on,240,0,9,,,,,,,,8,,,43,0
201840,note_on,240,0,5,,,,,,,,4,,,76,0
201840,note_on,240,0,2,,,,,,,,1,,,55,0
201840,note_on,240,0,6,,,,,,,,5,,,70,0
201840,note_on,0,0,1,,,,,,,,0,,,76,0
201840,note_on,240,0,7,,,,,,,,6,,,61,0
201840,note_on,240,0,8,,,,,,,,7,,,55,0
201840,note_on,240,0,1,,,,,,,,0,,,70,0
201888,note_on,0,0,3,,,,,,,,2,,,70,0
201888,note_on,288,0,3,,,,,,,,2,,,58,0
202080,note_on,240,0,2,,,,,,,,1,,,57,105
202080,note_on,240,0,7,,,,,,,,6,,,60,105
202080,note_on,240,0,6,,,,,,,,5,,,72,116
202080,note_on,240,0,1,,,,,,,,0,,,77,105
202080,note_on,0,0,1,,,,,,,,0,,,72,105
202080,note_on,240,0,5,,,,,,,,4,,,77,116
202080,note_on,240,0,8,,,,,,,,7,,,57,105
202080,note_on,240,0,9,,,,,,,,8,,,45,105
202080,note_on,192,0,3,,,,,,,,2,,,65,105
202320,note_on,240,0,1,,,,,,,,0,,,72,0
202320,note_on,240,0,2,,,,,,,,1,,,57,0
202320,note_on,240,0,5,,,,,,,,4,,,77,0
202320,note_on,0,0,1,,,,,,,,0,,,77,0
202320,note_on,240,0,8,,,,,,,,7,,,57,0
202320,note_on,240,0,7,,,,,,,,6,,,60,0
202320,note_on,240,0,9,,,,,,,,8,,,45,0
202320,note_on,240,0,6,,,,,,,,5,,,72,0
202368,note_on,288,0,3,,,,,,,,2,,,65,0
202560,note_on,240,0,8,,,,,,,,7,,,55,105
202560,note_on,240,0,9,,,,,,,,8,,,43,105
202560,note_on,240,0,6,,,,,,,,5,,,70,116
202560,note_on,240,0,2,,,,,,,,1,,,55,105
202560,note_on,240,0,5,,,,,,,,4,,,75,116
203136,note_on,576,0,8,,,,,,,,7,,,55,0
203136,note_on,576,0,5,,,,,,,,4,,,75,0
203136,note_on,576,0,9,,,,,,,,8,,,43,0
203136,note_on,576,0,2,,,,,,,,1,,,55,0
203136,note_on,576,0,6,,,,,,,,5,,,70,0
203280,note_on,144,0,8,,,,,,,,7,,,53,105
203280,note_on,144,0,2,,,,,,,,1,,,53,105
203280,note_on,144,0,5,,,,,,,,4,,,74,116
203280,note_on,144,0,9,,,,,,,,8,,,41,105
203280,note_on,144,0,6,,,,,,,,5,,,69,116
203472,note_on,192,0,5,,,,,,,,4,,,74,0
203472,note_on,192,0,6,,,,,,,,5,,,69,0
203472,note_on,192,0,8,,,,,,,,7,,,53,0
203472,note_on,192,0,9,,,,,,,,8,,,41,0
203472,note_on,192,0,2,,,,,,,,1,,,53,0
203520,note_on,48,0,6,,,,,,,,5,,,67,116
203520,note_on,48,0,2,,,,,,,,1,,,52,105
203520,note_on,1200,0,1,,,,,,,,0,,,73,105
203520,note_on,48,0,5,,,,,,,,4,,,73,116
203520,note_on,48,0,9,,,,,,,,8,,,40,105
203520,note_on,0,0,1,,,,,,,,0,,,67,105
203520,note_on,48,0,8,,,,,,,,7,,,52,105
203520,note_on,26112,0,4,,,,,,,,3,,,67,105
203520,note_on,0,0,4,,,,,,,,3,,,55,105
203520,note_on,1200,0,7,,,,,,,,6,,,58,105
203760,note_on,240,0,7,,,,,,,,6,,,58,0
203760,note_on,240,0,8,,,,,,,,7,,,52,0
203760,note_on,0,0,1,,,,,,,,0,,,73,0
203760,note_on,240,0,2,,,,,,,,1,,,52,0
203760,note_on,240,0,9,,,,,,,,8,,,40,0
203760,note_on,240,0,5,,,,,,,,4,,,73,0
203760,note_on,240,0,6,,,,,,,,5,,,67,0
203760,note_on,240,0,1,,,,,,,,0,,,67,0
203808,note_on,0,0,4,,,,,,,,3,,,67,0
203808,note_on,288,0,4,,,,,,,,3,,,55,0
204000,note_on,192,0,4,,,,,,,,3,,,62,105
204000,note_on,240,0,8,,,,,,,,7,,,53,105
204000,note_on,240,0,5,,,,,,,,4,,,74,116
204000,note_on,0,0,1,,,,,,,,0,,,69,105
204000,note_on,240,0,2,,,,,,,,1,,,53,105
204000,note_on,240,0,7,,,,,,,,6,,,57,105
204000,note_on,240,0,9,,,,,,,,8,,,41,105
204000,note_on,240,0,6,,,,,,,,5,,,69,116
204000,note_on,240,0,1,,,,,,,,0,,,74,105
204240,note_on,240,0,2,,,,,,,,1,,,53,0
204240,note_on,240,0,7,,,,,,,,6,,,57,0
204240,note_on,240,0,1,,,,,,,,0,,,69,0
204240,note_on,0,0,1,,,,,,,,0,,,74,0
204240,note_on,240,0,6,,,,,,,,5,,,69,0
204240,note_on,240,0,9,,,,,,,,8,,,41,0
204240,note_on,240,0,8,,,,,,,,7,,,53,0
204240,note_on,240,0,5,,,,,,,,4,,,74,0
204288,note_on,288,0,4,,,,,,,,3,,,62,0
204480,note_on,240,0,8,,,,,,,,7,,,51,105
204480,note_on,240,0,9,,,,,,,,8,,,39,105
204480,note_on,240,0,2,,,,,,,,1,,,51,105
204480,note_on,240,0,5,,,,,,,,4,,,72,116
204480,note_on,240,0,6,,,,,,,,5,,,67,116
205056,note_on,576,0,2,,,,,,,,1,,,51,0
205056,note_on,576,0,9,,,,,,,,8,,,39,0
205056,note_on,576,0,6,,,,,,,,5,,,67,0
205056,note_on,576,0,5,,,,,,,,4,,,72,0
205056,note_on,576,0,8,,,,,,,,7,,,51,0
205200,note_on,144,0,9,,,,,,,,8,,,38,105
205200,note_on,144,0,5,,,,,,,,4,,,70,116
205200,note_on,144,0,8,,,,,,,,7,,,50,105
205200,note_on,144,0,2,,,,,,,,1,,,50,105
205200,note_on,144,0,6,,,,,,,,5,,,65,116
205392,note_on,192,0,8,,,,,,,,7,,,50,0
205392,note_on,192,0,2,,,,,,,,1,,,50,0
205392,note_on,192,0,5,,,,,,,,4,,,70,0
205392,note_on,192,0,6,,,,,,,,5,,,65,0
205392,note_on,192,0,9,,,,,,,,8,,,38,0
205440,note_on,1200,0,1,,,,,,,,0,,,69,105
205440,note_on,48,0,6,,,,,,,,5,,,63,116
205440,note_on,0,0,1,,,,,,,,0,,,63,105
205440,note_on,48,0,9,,,,,,,,8,,,36,105
205440,note_on,48,0,8,,,,,,,,7,,,48,105
205440,note_on,0,0,3,,,,,,,,2,,,65,105
205440,note_on,3072,0,3,,,,,,,,2,,,72,105
205440,note_on,48,0,2,,,,,,,,1,,,48,105
205440,note_on,1200,0,7,,,,,,,,6,,,54,105
205440,note_on,48,0,5,,,,,,,,4,,,69,116
205680,note_on,240,0,6,,,,,,,,5,,,63,0
205680,note_on,240,0,2,,,,,,,,1,,,48,0
205680,note_on,240,0,7,,,,,,,,6,,,54,0
205680,note_on,240,0,8,,,,,,,,7,,,48,0
205680,note_on,240,0,1,,,,,,,,0,,,63,0
205680,note_on,0,0,1,,,,,,,,0,,,69,0
205680,note_on,240,0,5,,,,,,,,4,,,69,0
205680,note_on,240,0,9,,,,,,,,8,,,36,0
205728,note_on,0,0,3,,,,,,,,2,,,72,0
205728,note_on,288,0,3,,,,,,,,2,,,65,0
205920,note_on,240,0,6,,,,,,,,5,,,65,116
205920,note_on,240,0,5,,,,,,,,4,,,70,116
205920,note_on,240,0,7,,,,,,,,6,,,53,105
205920,note_on,0,0,3,,,,,,,,2,,,70,105
205920,note_on,192,0,3,,,,,,,,2,,,65,105
205920,note_on,240,0,2,,,,,,,,1,,,50,105
205920,note_on,240,0,9,,,,,,,,8,,,38,105
205920,note_on,0,0,1,,,,,,,,0,,,70,105
205920,note_on,240,0,1,,,,,,,,0,,,65,105
205920,note_on,240,0,8,,,,,,,,7,,,50,105
206160,note_on,240,0,7,,,,,,,,6,,,53,0
206160,note_on,240,0,6,,,,,,,,5,,,65,0
206160,note_on,240,0,8,,,,,,,,7,,,50,0
206160,note_on,0,0,1,,,,,,,,0,,,65,0
206160,note_on,240,0,1,,,,,,,,0,,,70,0
206160,note_on,240,0,9,,,,,,,,8,,,38,0
206160,note_on,240,0,2,,,,,,,,1,,,50,0
206160,note_on,240,0,5,,,,,,,,4,,,70,0
206208,note_on,0,0,3,,,,,,,,2,,,65,0
206208,note_on,288,0,3,,,,,,,,2,,,70,0
206400,note_on,240,0,1,,,,,,,,0,,,75,105
206400,note_on,240,0,9,,,,,,,,8,,,48,105
206400,note_on,240,0,8,,,,,,,,7,,,60,105
206400,note_on,240,0,7,,,,,,,,6,,,72,105
206400,note_on,240,0,2,,,,,,,,1,,,60,105
206400,note_on,240,0,5,,,,,,,,4,,,75,116
206400,note_on,0,0,3,,,,,,,,2,,,75,105
206400,note_on,192,0,3,,,,,,,,2,,,72,105
206400,note_on,240,0,6,,,,,,,,5,,,63,116
206640,note_on,240,0,9,,,,,,,,8,,,48,0
206640,note_on,0,0,9,,,,,,,,8,,,50,105
206640,note_on,0,0,2,,,,,,,,1,,,62,105
206640,note_on,0,0,8,,,,,,,,7,,,62,105
206640,note_on,240,0,7,,,,,,,,6,,,72,0
206640,note_on,0,0,1,,,,,,,,0,,,77,105
206640,note_on,240,0,1,,,,,,,,0,,,75,0
206640,note_on,240,0,2,,,,,,,,1,,,60,0
206640,note_on,240,0,8,,,,,,,,7,,,60,0
206640,note_on,0,0,7,,,,,,,,6,,,74,105
206880,note_on,0,0,2,,,,,,,,1,,,63,105
206880,note_on,240,0,9,,,,,,,,8,,,50,0
206880,note_on,240,0,8,,,,,,,,7,,,62,0
206880,note_on,0,0,9,,,,,,,,8,,,51,105
206880,note_on,0,0,8,,,,,,,,7,,,63,105
206880,note_on,0,0,1,,,,,,,,0,,,79,105
206880,note_on,240,0,2,,,,,,,,1,,,62,0
206880,note_on,240,0,7,,,,,,,,6,,,74,0
206880,note_on,0,0,7,,,,,,,,6,,,75,105
206880,note_on,240,0,1,,,,,,,,0,,,77,0
206976,note_on,576,0,5,,,,,,,,4,,,75,0
206976,note_on,576,0,6,,,,,,,,5,,,63,0
207072,note_on,192,0,1,,,,,,,,0,,,79,0
207072,note_on,192,0,8,,,,,,,,7,,,63,0
207072,note_on,192,0,2,,,,,,,,1,,,63,0
207072,note_on,192,0,9,,,,,,,,8,,,51,0
207072,note_on,192,0,7,,,,,,,,6,,,75,0
207120,note_on,48,0,8,,,,,,,,7,,,62,105
207120,note_on,144,0,5,,,,,,,,4,,,75,116
207120,note_on,144,0,6,,,,,,,,5,,,63,116
207120,note_on,48,0,1,,,,,,,,0,,,77,105
207120,note_on,48,0,7,,,,,,,,6,,,74,105
207120,note_on,48,0,2,,,,,,,,1,,,62,105
207120,note_on,48,0,9,,,,,,,,8,,,50,105
207264,note_on,144,0,8,,,,,,,,7,,,62,0
207264,note_on,144,0,9,,,,,,,,8,,,50,0
207264,note_on,144,0,2,,,,,,,,1,,,62,0
207264,note_on,144,0,1,,,,,,,,0,,,77,0
207264,note_on,144,0,7,,,,,,,,6,,,74,0
207312,note_on,192,0,6,,,,,,,,5,,,63,0
207312,note_on,192,0,5,,,,,,,,4,,,75,0
207360,note_on,48,0,6,,,,,,,,5,,,69,116
207360,note_on,96,0,7,,,,,,,,6,,,72,105
207360,note_on,48,0,5,,,,,,,,4,,,81,116
207360,note_on,96,0,8,,,,,,,,7,,,60,105
207360,note_on,96,0,2,,,,,,,,1,,,60,105
207360,note_on,96,0,1,,,,,,,,0,,,75,105
207360,note_on,96,0,9,,,,,,,,8,,,48,105
207504,note_on,144,0,1,,,,,,,,0,,,75,0
207504,note_on,144,0,9,,,,,,,,8,,,48,0
207504,note_on,144,0,7,,,,,,,,6,,,72,0
207504,note_on,144,0,8,,,,,,,,7,,,60,0
207504,note_on,144,0,2,,,,,,,,1,,,60,0
207600,note_on,96,0,8,,,,,,,,7,,,58,105
207600,note_on,96,0,2,,,,,,,,1,,,58,105
207600,note_on,96,0,9,,,,,,,,8,,,46,105
207600,note_on,96,0,7,,,,,,,,6,,,70,105
207600,note_on,96,0,1,,,,,,,,0,,,74,105
207744,note_on,144,0,7,,,,,,,,6,,,70,0
207744,note_on,144,0,9,,,,,,,,8,,,46,0
207744,note_on,144,0,1,,,,,,,,0,,,74,0
207744,note_on,144,0,8,,,,,,,,7,,,58,0
207744,note_on,144,0,2,,,,,,,,1,,,58,0
207840,note_on,96,0,8,,,,,,,,7,,,57,105
207840,note_on,96,0,1,,,,,,,,0,,,72,105
207840,note_on,96,0,7,,,,,,,,6,,,69,105
207840,note_on,96,0,9,,,,,,,,8,,,45,105
207840,note_on,96,0,2,,,,,,,,1,,,57,105
207936,note_on,576,0,6,,,,,,,,5,,,69,0
207936,note_on,576,0,5,,,,,,,,4,,,81,0
207984,note_on,144,0,2,,,,,,,,1,,,57,0
207984,note_on,144,0,9,,,,,,,,8,,,45,0
207984,note_on,144,0,7,,,,,,,,6,,,69,0
207984,note_on,144,0,8,,,,,,,,7,,,57,0
207984,note_on,144,0,1,,,,,,,,0,,,72,0
208080,note_on,144,0,6,,,,,,,,5,,,69,116
208080,note_on,96,0,2,,,,,,,,1,,,55,105
208080,note_on,96,0,8,,,,,,,,7,,,55,105
208080,note_on,96,0,1,,,,,,,,0,,,70,105
208080,note_on,144,0,5,,,,,,,,4,,,81,116
208080,note_on,96,0,7,,,,,,,,6,,,67,105
208080,note_on,96,0,9,,,,,,,,8,,,43,105
208128,note_on,1728,0,3,,,,,,,,2,,,75,0
208128,note_on,0,0,3,,,,,,,,2,,,72,0
208224,note_on,144,0,7,,,,,,,,6,,,67,0
208224,note_on,144,0,2,,,,,,,,1,,,55,0
208224,note_on,144,0,9,,,,,,,,8,,,43,0
208224,note_on,144,0,1,,,,,,,,0,,,70,0
208224,note_on,144,0,8,,,,,,,,7,,,55,0
208272,note_on,192,0,5,,,,,,,,4,,,81,0
208272,note_on,192,0,6,,,,,,,,5,,,69,0
208320,note_on,96,0,1,,,,,,,,0,,,69,105
208320,note_on,96,0,7,,,,,,,,6,,,65,105
208320,note_on,48,0,5,,,,,,,,4,,,87,116
208320,note_on,96,0,8,,,,,,,,7,,,53,105
208320,note_on,192,0,3,,,,,,,,2,,,65,105
208320,note_on,48,0,6,,,,,,,,5,,,75,116
208320,note_on,96,0,2,,,,,,,,1,,,53,105
208320,note_on,96,0,9,,,,,,,,8,,,41,105
208320,note_on,0,0,3,,,,,,,,2,,,72,105
208560,note_on,240,0,8,,,,,,,,7,,,53,0
208560,note_on,0,0,8,,,,,,,,7,,,55,105
208560,note_on,0,0,7,,,,,,,,6,,,67,105
208560,note_on,240,0,7,,,,,,,,6,,,65,0
208560,note_on,240,0,9,,,,,,,,8,,,41,0
208560,note_on,0,0,9,,,,,,,,8,,,43,105
208560,note_on,0,0,2,,,,,,,,1,,,55,105
208560,note_on,240,0,2,,,,,,,,1,,,53,0
208560,note_on,240,0,1,,,,,,,,0,,,69,0
208560,note_on,0,0,1,,,,,,,,0,,,70,105
208800,note_on,240,0,1,,,,,,,,0,,,70,0
208800,note_on,0,0,1,,,,,,,,0,,,72,105
208800,note_on,0,0,8,,,,,,,,7,,,57,105
208800,note_on,240,0,8,,,,,,,,7,,,55,0
208800,note_on,240,0,7,,,,,,,,6,,,67,0
208800,note_on,0,0,9,,,,,,,,8,,,45,105
208800,note_on,0,0,2,,,,,,,,1,,,57,105
208800,note_on,240,0,2,,,,,,,,1,,,55,0
208800,note_on,240,0,9,,,,,,,,8,,,43,0
208800,note_on,0,0,7,,,,,,,,6,,,69,105
208896,note_on,576,0,6,,,,,,,,5,,,75,0
208896,note_on,576,0,5,,,,,,,,4,,,87,0
209040,note_on,0,0,1,,,,,,,,0,,,69,105
209040,note_on,240,0,1,,,,,,,,0,,,72,0
209040,note_on,0,0,9,,,,,,,,8,,,41,105
209040,note_on,240,0,7,,,,,,,,6,,,69,0
209040,note_on,0,0,7,,,,,,,,6,,,65,105
209040,note_on,0,0,8,,,,,,,,7,,,53,105
209040,note_on,240,0,8,,,,,,,,7,,,57,0
209040,note_on,144,0,5,,,,,,,,4,,,87,116
209040,note_on,144,0,6,,,,,,,,5,,,75,116
209040,note_on,0,0,2,,,,,,,,1,,,53,105
209040,note_on,240,0,2,,,,,,,,1,,,57,0
209040,note_on,240,0,9,,,,,,,,8,,,45,0
209088,note_on,768,0,3,,,,,,,,2,,,72,0
209088,note_on,0,0,3,,,,,,,,2,,,65,0
209232,note_on,192,0,9,,,,,,,,8,,,41,0
209232,note_on,192,0,2,,,,,,,,1,,,53,0
209232,note_on,192,0,1,,,,,,,,0,,,69,0
209232,note_on,192,0,8,,,,,,,,7,,,53,0
209232,note_on,192,0,7,,,,,,,,6,,,65,0
209232,note_on,192,0,6,,,,,,,,5,,,75,0
209232,note_on,192,0,5,,,,,,,,4,,,87,0
209280,note_on,0,0,3,,,,,,,,2,,,58,105
209280,note_on,48,0,9,,,,,,,,8,,,46,105
209280,note_on,192,0,3,,,,,,,,2,,,70,105
209280,note_on,48,0,5,,,,,,,,4,,,86,105
209280,note_on,48,0,2,,,,,,,,1,,,58,105
209280,note_on,48,0,8,,,,,,,,7,,,58,105
209280,note_on,48,0,7,,,,,,,,6,,,70,105
209280,note_on,48,0,1,,,,,,,,0,,,70,105
209280,note_on,48,0,6,,,,,,,,5,,,74,116
209472,note_on,192,0,6,,,,,,,,5,,,74,0
209472,note_on,192,0,2,,,,,,,,1,,,58,0
209472,note_on,192,0,7,,,,,,,,6,,,70,0
209472,note_on,192,0,5,,,,,,,,4,,,86,0
209472,note_on,192,0,9,,,,,,,,8,,,46,0
209472,note_on,192,0,8,,,,,,,,7,,,58,0
209520,note_on,48,0,7,,,,,,,,6,,,69,105
209520,note_on,48,0,5,,,,,,,,4,,,84,105
209520,note_on,48,0,6,,,,,,,,5,,,72,105
209520,note_on,48,0,9,,,,,,,,8,,,45,105
209520,note_on,48,0,8,,,,,,,,7,,,57,105
209520,note_on,48,0,2,,,,,,,,1,,,57,105
209664,note_on,384,0,1,,,,,,,,0,,,70,0
209712,note_on,192,0,8,,,,,,,,7,,,57,0
209712,note_on,192,0,7,,,,,,,,6,,,69,0
209712,note_on,192,0,6,,,,,,,,5,,,72,0
209712,note_on,192,0,5,,,,,,,,4,,,84,0
209712,note_on,192,0,9,,,,,,,,8,,,45,0
209712,note_on,192,0,2,,,,,,,,1,,,57,0
209760,note_on,48,0,9,,,,,,,,8,,,43,105
209760,note_on,48,0,5,,,,,,,,4,,,82,105
209760,note_on,48,0,7,,,,,,,,6,,,67,105
209760,note_on,48,0,6,,,,,,,,5,,,70,105
209760,note_on,48,0,2,,,,,,,,1,,,55,105
209760,note_on,48,0,8,,,,,,,,7,,,55,105
209952,note_on,192,0,5,,,,,,,,4,,,82,0
209952,note_on,192,0,6,,,,,,,,5,,,70,0
209952,note_on,192,0,9,,,,,,,,8,,,43,0
209952,note_on,192,0,7,,,,,,,,6,,,67,0
209952,note_on,192,0,8,,,,,,,,7,,,55,0
209952,note_on,192,0,2,,,,,,,,1,,,55,0
210000,note_on,48,0,9,,,,,,,,8,,,41,105
210000,note_on,48,0,8,,,,,,,,7,,,53,105
210000,note_on,48,0,5,,,,,,,,4,,,81,105
210000,note_on,48,0,7,,,,,,,,6,,,65,105
210000,note_on,48,0,2,,,,,,,,1,,,53,105
210000,note_on,48,0,6,,,,,,,,5,,,69,105
210192,note_on,192,0,5,,,,,,,,4,,,81,0
210192,note_on,192,0,6,,,,,,,,5,,,69,0
210192,note_on,192,0,2,,,,,,,,1,,,53,0
210192,note_on,192,0,9,,,,,,,,8,,,41,0
210192,note_on,192,0,7,,,,,,,,6,,,65,0
210192,note_on,192,0,8,,,,,,,,7,,,53,0
210240,note_on,48,0,7,,,,,,,,6,,,63,105
210240,note_on,48,0,9,,,,,,,,8,,,39,105
210240,note_on,48,0,5,,,,,,,,4,,,79,105
210240,note_on,48,0,6,,,,,,,,5,,,67,105
210240,note_on,48,0,8,,,,,,,,7,,,51,105
210240,note_on,48,0,2,,,,,,,,1,,,51,105
210432,note_on,192,0,7,,,,,,,,6,,,63,0
210432,note_on,192,0,5,,,,,,,,4,,,79,0
210432,note_on,192,0,9,,,,,,,,8,,,39,0
210432,note_on,192,0,2,,,,,,,,1,,,51,0
210432,note_on,192,0,8,,,,,,,,7,,,51,0
210432,note_on,192,0,6,,,,,,,,5,,,67,0
210480,note_on,48,0,5,,,,,,,,4,,,77,105
210480,note_on,48,0,8,,,,,,,,7,,,50,105
210480,note_on,48,0,9,,,,,,,,8,,,38,105
210480,note_on,48,0,6,,,,,,,,5,,,65,105
210480,note_on,48,0,7,,,,,,,,6,,,62,105
210480,note_on,48,0,2,,,,,,,,1,,,50,105
210672,note_on,192,0,2,,,,,,,,1,,,50,0
210672,note_on,192,0,6,,,,,,,,5,,,65,0
210672,note_on,192,0,8,,,,,,,,7,,,50,0
210672,note_on,192,0,9,,,,,,,,8,,,38,0
210672,note_on,192,0,7,,,,,,,,6,,,62,0
210672,note_on,192,0,5,,,,,,,,4,,,77,0
210720,note_on,48,0,2,,,,,,,,1,,,48,105
210720,note_on,48,0,9,,,,,,,,8,,,36,105
210720,note_on,48,0,8,,,,,,,,7,,,48,105
210720,note_on,48,0,5,,,,,,,,4,,,75,105
210720,note_on,48,0,7,,,,,,,,6,,,60,105
210720,note_on,48,0,6,,,,,,,,5,,,63,105
210912,note_on,192,0,7,,,,,,,,6,,,60,0
210912,note_on,192,0,6,,,,,,,,5,,,63,0
210912,note_on,192,0,5,,,,,,,,4,,,75,0
210912,note_on,192,0,2,,,,,,,,1,,,48,0
210912,note_on,192,0,9,,,,,,,,8,,,36,0
210912,note_on,192,0,8,,,,,,,,7,,,48,0
210960,note_on,48,0,2,,,,,,,,1,,,46,105
210960,note_on,48,0,8,,,,,,,,7,,,46,105
210960,note_on,48,0,9,,,,,,,,8,,,34,105
210960,note_on,48,0,6,,,,,,,,5,,,62,105
210960,note_on,48,0,7,,,,,,,,6,,,58,105
210960,note_on,48,0,5,,,,,,,,4,,,74,105
211152,note_on,192,0,5,,,,,,,,4,,,74,0
211152,note_on,192,0,9,,,,,,,,8,,,34,0
211152,note_on,192,0,2,,,,,,,,1,,,46,0
211152,note_on,192,0,7,,,,,,,,6,,,58,0
211152,note_on,192,0,6,,,,,,,,5,,,62,0
211152,note_on,192,0,8,,,,,,,,7,,,46,0
211200,note_on,48,0,2,,,,,,,,1,,,51,105
211200,note_on,48,0,8,,,,,,,,7,,,51,105
211200,note_on,48,0,9,,,,,,,,8,,,39,105
211200,note_on,48,0,6,,,,,,,,5,,,60,105
211200,note_on,48,0,5,,,,,,,,4,,,72,105
211200,note_on,48,0,7,,,,,,,,6,,,63,105
211512,note_on,312,0,7,,,,,,,,6,,,63,0
211512,note_on,312,0,2,,,,,,,,1,,,51,0
211512,note_on,312,0,8,,,,,,,,7,,,51,0
211512,note_on,312,0,6,,,,,,,,5,,,60,0
211512,note_on,312,0,9,,,,,,,,8,,,39,0
211512,note_on,312,0,5,,,,,,,,4,,,72,0
211680,note_on,168,0,9,,,,,,,,8,,,39,105
211680,note_on,168,0,2,,,,,,,,1,,,51,105
211680,note_on,168,0,8,,,,,,,,7,,,51,105
211680,note_on,168,0,7,,,,,,,,6,,,63,105
211680,note_on,168,0,5,,,,,,,,4,,,79,105
211680,note_on,0,0,1,,,,,,,,0,,,75,105
211680,note_on,2016,0,1,,,,,,,,0,,,79,105
211680,note_on,168,0,6,,,,,,,,5,,,75,105
211968,note_on,2688,0,3,,,,,,,,2,,,58,0
211992,note_on,312,0,9,,,,,,,,8,,,39,0
211992,note_on,0,0,1,,,,,,,,0,,,79,0
211992,note_on,312,0,2,,,,,,,,1,,,51,0
211992,note_on,312,0,5,,,,,,,,4,,,79,0
211992,note_on,312,0,8,,,,,,,,7,,,51,0
211992,note_on,312,0,1,,,,,,,,0,,,75,0
211992,note_on,312,0,7,,,,,,,,6,,,63,0
211992,note_on,312,0,6,,,,,,,,5,,,75,0
212160,note_on,168,0,5,,,,,,,,4,,,77,105
212160,note_on,168,0,7,,,,,,,,6,,,65,105
212160,note_on,168,0,2,,,,,,,,1,,,53,105
212160,note_on,168,0,6,,,,,,,,5,,,74,105
212160,note_on,192,0,3,,,,,,,,2,,,62,105
212160,note_on,0,0,1,,,,,,,,0,,,77,105
212160,note_on,168,0,1,,,,,,,,0,,,74,105
212160,note_on,168,0,8,,,,,,,,7,,,53,105
212160,note_on,168,0,9,,,,,,,,8,,,41,105
212472,note_on,312,0,5,,,,,,,,4,,,77,0
212472,note_on,312,0,7,,,,,,,,6,,,65,0
212472,note_on,312,0,9,,,,,,,,8,,,41,0
212472,note_on,312,0,2,,,,,,,,1,,,53,0
212472,note_on,312,0,1,,,,,,,,0,,,77,0
212472,note_on,0,0,1,,,,,,,,0,,,74,0
212472,note_on,312,0,8,,,,,,,,7,,,53,0
212472,note_on,312,0,6,,,,,,,,5,,,74,0
212544,note_on,0,0,3,,,,,,,,2,,,70,0
212544,note_on,384,0,3,,,,,,,,2,,,62,0
212640,note_on,168,0,6,,,,,,,,5,,,72,105
212640,note_on,168,0,5,,,,,,,,4,,,81,105
212640,note_on,168,0,1,,,,,,,,0,,,72,105
212640,note_on,0,0,1,,,,,,,,0,,,75,105
212640,note_on,168,0,2,,,,,,,,1,,,41,105
212640,note_on,0,0,3,,,,,,,,2,,,72,105
212640,note_on,168,0,8,,,,,,,,7,,,41,105
212640,note_on,96,0,3,,,,,,,,2,,,65,105
212640,note_on,168,0,9,,,,,,,,8,,,29,105
212640,note_on,168,0,7,,,,,,,,6,,,53,105
212952,note_on,312,0,9,,,,,,,,8,,,29,0
212952,note_on,312,0,1,,,,,,,,0,,,75,0
212952,note_on,0,0,1,,,,,,,,0,,,72,0
212952,note_on,312,0,8,,,,,,,,7,,,41,0
212952,note_on,312,0,7,,,,,,,,6,,,53,0
212952,note_on,312,0,2,,,,,,,,1,,,41,0
212952,note_on,312,0,6,,,,,,,,5,,,72,0
212952,note_on,312,0,5,,,,,,,,4,,,81,0
213024,note_on,0,0,3,,,,,,,,2,,,65,0
213024,note_on,384,0,3,,,,,,,,2,,,72,0
213120,note_on,168,0,2,,,,,,,,1,,,46,105
213120,note_on,96,0,3,,,,,,,,2,,,70,105
213120,note_on,0,0,1,,,,,,,,0,,,70,105
213120,note_on,168,0,7,,,,,,,,6,,,58,105
213120,note_on,168,0,8,,,,,,,,7,,,46,105
213120,note_on,168,0,1,,,,,,,,0,,,74,105
213120,note_on,168,0,5,,,,,,,,4,,,82,105
213120,note_on,168,0,6,,,,,,,,5,,,70,105
213120,note_on,168,0,9,,,,,,,,8,,,34,105
213432,note_on,312,0,9,,,,,,,,8,,,34,0
213432,note_on,0,0,1,,,,,,,,0,,,74,0
213432,note_on,312,0,7,,,,,,,,6,,,58,0
213432,note_on,312,0,1,,,,,,,,0,,,70,0
213432,note_on,312,0,3,,,,,,,,2,,,70,0
213432,note_on,312,0,2,,,,,,,,1,,,46,0
213432,note_on,312,0,6,,,,,,,,5,,,70,0
213432,note_on,312,0,5,,,,,,,,4,,,82,0
213432,note_on,312,0,8,,,,,,,,7,,,46,0
213600,note_on,168,0,9,,,,,,,,8,,,41,105
213600,note_on,168,0,5,,,,,,,,4,,,65,105
213600,note_on,168,0,7,,,,,,,,6,,,65,105
213600,note_on,168,0,6,,,,,,,,5,,,65,105
213600,note_on,168,0,1,,,,,,,,0,,,77,105
213600,note_on,168,0,3,,,,,,,,2,,,65,105
213600,note_on,168,0,8,,,,,,,,7,,,53,105
213600,note_on,168,0,2,,,,,,,,1,,,53,105
213912,note_on,312,0,9,,,,,,,,8,,,41,0
213912,note_on,312,0,7,,,,,,,,6,,,65,0
213912,note_on,312,0,8,,,,,,,,7,,,53,0
213912,note_on,312,0,2,,,,,,,,1,,,53,0
213912,note_on,312,0,1,,,,,,,,0,,,77,0
213912,note_on,312,0,6,,,,,,,,5,,,65,0
213912,note_on,312,0,3,,,,,,,,2,,,65,0
213912,note_on,312,0,5,,,,,,,,4,,,65,0
214080,note_on,168,0,3,,,,,,,,2,,,74,105
214080,note_on,168,0,2,,,,,,,,1,,,62,105
214080,note_on,168,0,5,,,,,,,,4,,,74,105
214080,note_on,168,0,8,,,,,,,,7,,,62,105
214080,note_on,168,0,6,,,,,,,,5,,,74,105
214080,note_on,168,0,7,,,,,,,,6,,,74,105
214080,note_on,168,0,9,,,,,,,,8,,,50,105
214080,note_on,168,0,1,,,,,,,,0,,,86,105
214656,note_on,576,0,3,,,,,,,,2,,,74,0
214656,note_on,576,0,9,,,,,,,,8,,,50,0
214656,note_on,576,0,8,,,,,,,,7,,,62,0
214656,note_on,576,0,5,,,,,,,,4,,,74,0
214656,note_on,576,0,2,,,,,,,,1,,,62,0
214656,note_on,576,0,6,,,,,,,,5,,,74,0
214656,note_on,576,0,1,,,,,,,,0,,,86,0
214656,note_on,576,0,7,,,,,,,,6,,,74,0
214800,note_on,144,0,6,,,,,,,,5,,,72,105
214800,note_on,144,0,3,,,,,,,,2,,,72,105
214800,note_on,144,0,1,,,,,,,,0,,,84,105
214800,note_on,144,0,5,,,,,,,,4,,,72,105
214800,note_on,144,0,7,,,,,,,,6,,,72,105
214800,note_on,144,0,8,,,,,,,,7,,,60,105
214800,note_on,144,0,9,,,,,,,,8,,,48,105
214800,note_on,144,0,2,,,,,,,,1,,,60,105
214956,note_on,156,0,1,,,,,,,,0,,,84,0
214956,note_on,156,0,3,,,,,,,,2,,,72,0
214992,note_on,192,0,8,,,,,,,,7,,,60,0
214992,note_on,192,0,9,,,,,,,,8,,,48,0
214992,note_on,192,0,7,,,,,,,,6,,,72,0
214992,note_on,192,0,6,,,,,,,,5,,,72,0
214992,note_on,192,0,2,,,,,,,,1,,,60,0
214992,note_on,192,0,5,,,,,,,,4,,,72,0
215040,note_on,48,0,6,,,,,,,,5,,,70,105
215040,note_on,84,0,1,,,,,,,,0,,,82,105
215040,note_on,84,0,3,,,,,,,,2,,,70,105
215040,note_on,48,0,7,,,,,,,,6,,,70,105
215040,note_on,48,0,8,,,,,,,,7,,,58,105
215040,note_on,48,0,5,,,,,,,,4,,,70,105
215040,note_on,48,0,9,,,,,,,,8,,,46,105
215040,note_on,48,0,2,,,,,,,,1,,,58,105
215328,note_on,288,0,6,,,,,,,,5,,,70,0
215328,note_on,288,0,1,,,,,,,,0,,,82,0
215328,note_on,288,0,5,,,,,,,,4,,,70,0
215328,note_on,288,0,8,,,,,,,,7,,,58,0
215328,note_on,288,0,3,,,,,,,,2,,,70,0
215328,note_on,288,0,9,,,,,,,,8,,,46,0
215328,note_on,288,0,2,,,,,,,,1,,,58,0
215328,note_on,288,0,7,,,,,,,,6,,,70,0
215520,note_on,192,0,5,,,,,,,,4,,,65,105
215520,note_on,0,0,3,,,,,,,,2,,,65,105
215520,note_on,192,0,2,,,,,,,,1,,,53,105
215520,note_on,192,0,7,,,,,,,,6,,,65,105
215520,note_on,192,0,8,,,,,,,,7,,,53,105
215520,note_on,192,0,6,,,,,,,,5,,,65,105
215520,note_on,192,0,9,,,,,,,,8,,,41,105
215520,note_on,192,0,3,,,,,,,,2,,,77,105
215520,note_on,192,0,1,,,,,,,,0,,,77,105
215808,note_on,0,0,3,,,,,,,,2,,,77,0
215808,note_on,288,0,7,,,,,,,,6,,,65,0
215808,note_on,288,0,9,,,,,,,,8,,,41,0
215808,note_on,288,0,5,,,,,,,,4,,,65,0
215808,note_on,288,0,6,,,,,,,,5,,,65,0
215808,note_on,288,0,8,,,,,,,,7,,,53,0
215808,note_on,288,0,2,,,,,,,,1,,,53,0
215808,note_on,288,0,1,,,,,,,,0,,,77,0
215808,note_on,288,0,3,,,,,,,,2,,,65,0
216000,note_on,192,0,3,,,,,,,,2,,,74,105
216000,note_on,192,0,8,,,,,,,,7,,,50,105
216000,note_on,192,0,9,,,,,,,,8,,,38,105
216000,note_on,0,0,3,,,,,,,,2,,,62,105
216000,note_on,192,0,6,,,,,,,,5,,,62,105
216000,note_on,192,0,2,,,,,,,,1,,,50,105
216000,note_on,192,0,5,,,,,,,,4,,,62,105
216000,note_on,192,0,1,,,,,,,,0,,,74,105
216000,note_on,192,0,7,,,,,,,,6,,,62,105
216288,note_on,288,0,8,,,,,,,,7,,,50,0
216288,note_on,288,0,6,,,,,,,,5,,,62,0
216288,note_on,288,0,7,,,,,,,,6,,,62,0
216288,note_on,288,0,1,,,,,,,,0,,,74,0
216288,note_on,288,0,9,,,,,,,,8,,,38,0
216288,note_on,288,0,5,,,,,,,,4,,,62,0
216288,note_on,0,0,3,,,,,,,,2,,,74,0
216288,note_on,288,0,3,,,,,,,,2,,,62,0
216288,note_on,288,0,2,,,,,,,,1,,,50,0
216480,note_on,192,0,8,,,,,,,,7,,,46,105
216480,note_on,192,0,1,,,,,,,,0,,,70,105
216480,note_on,192,0,5,,,,,,,,4,,,58,105
216480,note_on,0,0,3,,,,,,,,2,,,58,105
216480,note_on,192,0,3,,,,,,,,2,,,70,105
216480,note_on,192,0,7,,,,,,,,6,,,58,105
216480,note_on,192,0,9,,,,,,,,8,,,34,105
216480,note_on,192,0,6,,,,,,,,5,,,58,105
216480,note_on,192,0,2,,,,,,,,1,,,46,105
216768,note_on,288,0,5,,,,,,,,4,,,58,0
216768,note_on,288,0,6,,,,,,,,5,,,58,0
216768,note_on,288,0,2,,,,,,,,1,,,46,0
216768,note_on,288,0,3,,,,,,,,2,,,58,0
216768,note_on,0,0,3,,,,,,,,2,,,70,0
216768,note_on,288,0,1,,,,,,,,0,,,70,0
216768,note_on,288,0,8,,,,,,,,7,,,46,0
216768,note_on,288,0,9,,,,,,,,8,,,34,0
216768,note_on,288,0,7,,,,,,,,6,,,58,0
216960,note_on,192,0,8,,,,,,,,7,,,53,92
216960,note_on,192,0,6,,,,,,,,5,,,65,80
216960,note_on,192,0,7,,,,,,,,6,,,65,92
216960,note_on,192,0,5,,,,,,,,4,,,65,92
216960,note_on,192,0,1,,,,,,,,0,,,77,92
216960,note_on,192,0,2,,,,,,,,1,,,53,92
216960,note_on,192,0,9,,,,,,,,8,,,41,92
216960,note_on,0,0,3,,,,,,,,2,,,65,92
216960,note_on,192,0,3,,,,,,,,2,,,53,92
217272,note_on,312,0,5,,,,,,,,4,,,65,0
217272,note_on,312,0,6,,,,,,,,5,,,65,0
217272,note_on,312,0,2,,,,,,,,1,,,53,0
217272,note_on,0,0,3,,,,,,,,2,,,53,0
217272,note_on,312,0,1,,,,,,,,0,,,77,0
217272,note_on,312,0,7,,,,,,,,6,,,65,0
217272,note_on,312,0,8,,,,,,,,7,,,53,0
217272,note_on,312,0,3,,,,,,,,2,,,65,0
217272,note_on,312,0,9,,,,,,,,8,,,41,0
217440,note_on,168,0,6,,,,,,,,5,,,60,80
217752,note_on,312,0,6,,,,,,,,5,,,60,0
217920,note_on,168,0,6,,,,,,,,5,,,69,80
218496,note_on,576,0,6,,,,,,,,5,,,69,0
218640,note_on,144,0,6,,,,,,,,5,,,67,80
218832,note_on,192,0,6,,,,,,,,5,,,67,0
218880,note_on,48,0,6,,,,,,,,5,,,65,80
219192,note_on,312,0,6,,,,,,,,5,,,65,0
219360,note_on,168,0,6,,,,,,,,5,,,72,80
219672,note_on,312,0,6,,,,,,,,5,,,72,0
219840,note_on,168,0,6,,,,,,,,5,,,69,80
220152,note_on,312,0,6,,,,,,,,5,,,69,0
220320,note_on,168,0,6,,,,,,,,5,,,65,80
220632,note_on,312,0,6,,,,,,,,5,,,65,0
220800,note_on,168,0,6,,,,,,,,5,,,75,70
220800,note_on,3528,0,5,,,,,,,,4,,,77,70
221112,note_on,312,0,5,,,,,,,,4,,,77,0
221280,note_on,168,0,5,,,,,,,,4,,,72,70
221592,note_on,312,0,5,,,,,,,,4,,,72,0
221760,note_on,168,0,5,,,,,,,,4,,,81,70
221760,note_on,960,0,6,,,,,,,,5,,,75,0
221760,note_on,0,0,6,,,,,,,,5,,,72,70
222336,note_on,576,0,5,,,,,,,,4,,,81,0
222480,note_on,144,0,5,,,,,,,,4,,,79,70
222672,note_on,192,0,5,,,,,,,,4,,,79,0
222720,note_on,48,0,5,,,,,,,,4,,,77,70
222720,note_on,960,0,6,,,,,,,,5,,,72,0
222720,note_on,0,0,6,,,,,,,,5,,,69,70
223032,note_on,312,0,5,,,,,,,,4,,,77,0
223200,note_on,168,0,5,,,,,,,,4,,,84,70
223512,note_on,312,0,5,,,,,,,,4,,,84,0
223680,note_on,168,0,5,,,,,,,,4,,,81,70
223680,note_on,960,0,6,,,,,,,,5,,,69,0
223680,note_on,0,0,6,,,,,,,,5,,,63,70
223992,note_on,312,0,5,,,,,,,,4,,,81,0
224160,note_on,168,0,5,,,,,,,,4,,,77,70
224448,note_on,768,0,6,,,,,,,,5,,,63,0
224472,note_on,312,0,5,,,,,,,,4,,,77,0
224640,note_on,168,0,5,,,,,,,,4,,,82,80
224640,note_on,7368,0,9,,,,,,,,8,,,34,70
224640,note_on,192,0,6,,,,,,,,5,,,62,70
224640,note_on,7368,0,8,,,,,,,,7,,,46,70
224880,note_on,0,0,6,,,,,,,,5,,,65,70
224880,note_on,240,0,6,,,,,,,,5,,,62,0
225024,note_on,384,0,5,,,,,,,,4,,,82,0
225120,note_on,240,0,6,,,,,,,,5,,,65,0
225120,note_on,0,0,6,,,,,,,,5,,,62,70
225360,note_on,240,0,6,,,,,,,,5,,,62,0
225360,note_on,0,0,6,,,,,,,,5,,,65,70
225360,note_on,336,0,5,,,,,,,,4,,,77,80
225408,note_on,768,0,9,,,,,,,,8,,,34,0
225408,note_on,768,0,8,,,,,,,,7,,,46,0
225552,note_on,192,0,6,,,,,,,,5,,,65,0
225552,note_on,192,0,5,,,,,,,,4,,,77,0
225600,note_on,48,0,6,,,,,,,,5,,,58,70
225600,note_on,48,0,5,,,,,,,,4,,,74,80
225600,note_on,8328,0,7,,,,,,,,6,,,62,70
225840,note_on,0,0,6,,,,,,,,5,,,65,70
225840,note_on,240,0,6,,,,,,,,5,,,58,0
226080,note_on,0,0,6,,,,,,,,5,,,58,70
226080,note_on,240,0,6,,,,,,,,5,,,65,0
226320,note_on,0,0,6,,,,,,,,5,,,60,70
226320,note_on,720,0,7,,,,,,,,6,,,62,0
226320,note_on,0,0,7,,,,,,,,6,,,63,70
226320,note_on,240,0,6,,,,,,,,5,,,58,0
226320,note_on,0,0,5,,,,,,,,4,,,75,80
226320,note_on,720,0,5,,,,,,,,4,,,74,0
226512,note_on,192,0,5,,,,,,,,4,,,75,0
226512,note_on,192,0,7,,,,,,,,6,,,63,0
226512,note_on,192,0,6,,,,,,,,5,,,60,0
226560,note_on,48,0,6,,,,,,,,5,,,57,70
226560,note_on,48,0,5,,,,,,,,4,,,72,80
226560,note_on,48,0,7,,,,,,,,6,,,60,70
226560,note_on,1152,0,8,,,,,,,,7,,,53,70
226560,note_on,1152,0,9,,,,,,,,8,,,41,70
226800,note_on,240,0,6,,,,,,,,5,,,57,0
226800,note_on,0,0,6,,,,,,,,5,,,65,70
226944,note_on,384,0,7,,,,,,,,6,,,60,0
227040,note_on,240,0,6,,,,,,,,5,,,65,0
227040,note_on,0,0,6,,,,,,,,5,,,57,70
227280,note_on,0,0,5,,,,,,,,4,,,74,80
227280,note_on,240,0,6,,,,,,,,5,,,57,0
227280,note_on,0,0,6,,,,,,,,5,,,58,70
227280,note_on,720,0,5,,,,,,,,4,,,72,0
227328,note_on,768,0,9,,,,,,,,8,,,41,0
227328,note_on,768,0,8,,,,,,,,7,,,53,0
227472,note_on,192,0,6,,,,,,,,5,,,58,0
227472,note_on,192,0,5,,,,,,,,4,,,74,0
227520,note_on,48,0,5,,,,,,,,4,,,75,80
227520,note_on,576,0,7,,,,,,,,6,,,63,70
227520,note_on,48,0,6,,,,,,,,5,,,60,70
227760,note_on,0,0,6,,,,,,,,5,,,65,70
227760,note_on,240,0,6,,,,,,,,5,,,60,0
228000,note_on,0,0,6,,,,,,,,5,,,60,70
228000,note_on,240,0,6,,,,,,,,5,,,65,0
228240,note_on,0,0,6,,,,,,,,5,,,62,70
228240,note_on,0,0,5,,,,,,,,4,,,77,80
228240,note_on,720,0,5,,,,,,,,4,,,75,0
228240,note_on,0,0,7,,,,,,,,6,,,65,70
228240,note_on,720,0,7,,,,,,,,6,,,63,0
228240,note_on,240,0,6,,,,,,,,5,,,60,0
228432,note_on,192,0,6,,,,,,,,5,,,62,0
228432,note_on,192,0,7,,,,,,,,6,,,65,0
228432,note_on,192,0,5,,,,,,,,4,,,77,0
228480,note_on,1152,0,8,,,,,,,,7,,,58,70
228480,note_on,48,0,5,,,,,,,,4,,,74,80
228480,note_on,48,0,6,,,,,,,,5,,,58,70
228480,note_on,1152,0,9,,,,,,,,8,,,46,70
228480,note_on,48,0,7,,,,,,,,6,,,62,70
228720,note_on,240,0,6,,,,,,,,5,,,58,0
228720,note_on,0,0,6,,,,,,,,5,,,65,70
228864,note_on,384,0,7,,,,,,,,6,,,62,0
228960,note_on,240,0,6,,,,,,,,5,,,65,0
228960,note_on,0,0,6,,,,,,,,5,,,58,70
229200,note_on,720,0,5,,,,,,,,4,,,74,0
229200,note_on,0,0,5,,,,,,,,4,,,77,80
229200,note_on,240,0,6,,,,,,,,5,,,58,0
229200,note_on,0,0,6,,,,,,,,5,,,65,70
229392,note_on,192,0,6,,,,,,,,5,,,65,0
229392,note_on,192,0,5,,,,,,,,4,,,77,0
229440,note_on,48,0,6,,,,,,,,5,,,62,70
229440,note_on,48,0,5,,,,,,,,4,,,82,80
229440,note_on,576,0,7,,,,,,,,6,,,70,70
229680,note_on,240,0,6,,,,,,,,5,,,62,0
229680,note_on,0,0,6,,,,,,,,5,,,65,70
229920,note_on,240,0,6,,,,,,,,5,,,65,0
229920,note_on,0,0,6,,,,,,,,5,,,62,70
230160,note_on,720,0,5,,,,,,,,4,,,82,0
230160,note_on,0,0,6,,,,,,,,5,,,65,70
230160,note_on,0,0,7,,,,,,,,6,,,74,70
230160,note_on,720,0,7,,,,,,,,6,,,70,0
230160,note_on,240,0,6,,,,,,,,5,,,62,0
230160,note_on,0,0,5,,,,,,,,4,,,86,80
230352,note_on,192,0,5,,,,,,,,4,,,86,0
230352,note_on,192,0,7,,,,,,,,6,,,74,0
230352,note_on,192,0,6,,,,,,,,5,,,65,0
230400,note_on,0,0,8,,,,,,,,7,,,53,70
230400,note_on,1920,0,8,,,,,,,,7,,,58,0
230400,note_on,1920,0,9,,,,,,,,8,,,46,0
230400,note_on,0,0,9,,,,,,,,8,,,41,70
230400,note_on,48,0,7,,,,,,,,6,,,72,70
230400,note_on,48,0,6,,,,,,,,5,,,63,70
230400,note_on,48,0,5,,,,,,,,4,,,84,80
230640,note_on,240,0,6,,,,,,,,5,,,63,0
230640,note_on,0,0,6,,,,,,,,5,,,65,70
230880,note_on,0,0,6,,,,,,,,5,,,63,70
230880,note_on,240,0,6,,,,,,,,5,,,65,0
231120,note_on,720,0,5,,,,,,,,4,,,84,0
231120,note_on,720,0,7,,,,,,,,6,,,72,0
231120,note_on,0,0,7,,,,,,,,6,,,75,70
231120,note_on,0,0,6,,,,,,,,5,,,65,70
231120,note_on,240,0,6,,,,,,,,5,,,63,0
231120,note_on,0,0,5,,,,,,,,4,,,87,80
231312,note_on,192,0,5,,,,,,,,4,,,87,0
231312,note_on,192,0,6,,,,,,,,5,,,65,0
231312,note_on,192,0,7,,,,,,,,6,,,75,0
231360,note_on,48,0,6,,,,,,,,5,,,60,70
231360,note_on,48,0,5,,,,,,,,4,,,77,80
231360,note_on,48,0,7,,,,,,,,6,,,65,70
231600,note_on,240,0,6,,,,,,,,5,,,60,0
231600,note_on,0,0,6,,,,,,,,5,,,65,70
231840,note_on,240,0,6,,,,,,,,5,,,65,0
231840,note_on,0,0,6,,,,,,,,5,,,60,70
232080,note_on,0,0,5,,,,,,,,4,,,81,80
232080,note_on,720,0,7,,,,,,,,6,,,65,0
232080,note_on,0,0,7,,,,,,,,6,,,69,70
232080,note_on,240,0,6,,,,,,,,5,,,60,0
232080,note_on,0,0,6,,,,,,,,5,,,65,70
232080,note_on,720,0,5,,,,,,,,4,,,77,0
232224,note_on,1824,0,8,,,,,,,,7,,,53,0
232224,note_on,1824,0,9,,,,,,,,8,,,41,0
232272,note_on,192,0,7,,,,,,,,6,,,69,0
232272,note_on,192,0,5,,,,,,,,4,,,81,0
232272,note_on,192,0,6,,,,,,,,5,,,65,0
232320,note_on,96,0,9,,,,,,,,8,,,38,70
232320,note_on,0,0,1,,,,,,,,0,,,77,58
232320,note_on,15048,0,1,,,,,,,,0,,,65,58
232320,note_on,48,0,7,,,,,,,,6,,,70,70
232320,note_on,48,0,5,,,,,,,,4,,,82,80
232320,note_on,96,0,8,,,,,,,,7,,,50,70
232320,note_on,48,0,6,,,,,,,,5,,,58,70
232560,note_on,240,0,6,,,,,,,,5,,,58,0
232560,note_on,0,0,6,,,,,,,,5,,,65,70
232704,note_on,384,0,5,,,,,,,,4,,,82,0
232704,note_on,384,0,7,,,,,,,,6,,,70,0
232800,note_on,0,0,6,,,,,,,,5,,,62,70
232800,note_on,240,0,6,,,,,,,,5,,,65,0
233040,note_on,240,0,6,,,,,,,,5,,,62,0
233040,note_on,336,0,5,,,,,,,,4,,,77,80
233040,note_on,0,0,6,,,,,,,,5,,,65,70
233088,note_on,768,0,9,,,,,,,,8,,,38,0
233088,note_on,768,0,8,,,,,,,,7,,,50,0
233232,note_on,192,0,6,,,,,,,,5,,,65,0
233232,note_on,192,0,5,,,,,,,,4,,,77,0
233280,note_on,48,0,6,,,,,,,,5,,,58,70
233280,note_on,576,0,7,,,,,,,,6,,,62,70
233280,note_on,48,0,5,,,,,,,,4,,,74,80
233520,note_on,240,0,6,,,,,,,,5,,,58,0
233520,note_on,0,0,6,,,,,,,,5,,,65,70
233760,note_on,0,0,6,,,,,,,,5,,,58,70
233760,note_on,240,0,6,,,,,,,,5,,,65,0
234000,note_on,240,0,6,,,,,,,,5,,,58,0
234000,note_on,0,0,6,,,,,,,,5,,,60,70
234000,note_on,720,0,7,,,,,,,,6,,,62,0
234000,note_on,0,0,5,,,,,,,,4,,,75,80
234000,note_on,720,0,5,,,,,,,,4,,,74,0
234000,note_on,0,0,7,,,,,,,,6,,,63,80
234192,note_on,192,0,7,,,,,,,,6,,,63,0
234192,note_on,192,0,5,,,,,,,,4,,,75,0
234192,note_on,192,0,6,,,,,,,,5,,,60,0
234240,note_on,48,0,7,,,,,,,,6,,,60,80
234240,note_on,48,0,5,,,,,,,,4,,,72,80
234240,note_on,1152,0,8,,,,,,,,7,,,53,70
234240,note_on,1152,0,9,,,,,,,,8,,,41,70
234240,note_on,48,0,6,,,,,,,,5,,,57,70
234480,note_on,240,0,6,,,,,,,,5,,,57,0
234480,note_on,0,0,6,,,,,,,,5,,,65,70
234624,note_on,384,0,7,,,,,,,,6,,,60,0
234720,note_on,0,0,6,,,,,,,,5,,,57,70
234720,note_on,240,0,6,,,,,,,,5,,,65,0
234960,note_on,240,0,6,,,,,,,,5,,,57,0
234960,note_on,0,0,6,,,,,,,,5,,,58,70
234960,note_on,0,0,5,,,,,,,,4,,,74,80
234960,note_on,720,0,5,,,,,,,,4,,,72,0
235008,note_on,768,0,8,,,,,,,,7,,,53,0
235008,note_on,768,0,9,,,,,,,,8,,,41,0
235152,note_on,192,0,6,,,,,,,,5,,,58,0
235152,note_on,192,0,5,,,,,,,,4,,,74,0
235200,note_on,48,0,5,,,,,,,,4,,,75,80
235200,note_on,576,0,7,,,,,,,,6,,,63,80
235200,note_on,48,0,6,,,,,,,,5,,,60,70
235440,note_on,240,0,6,,,,,,,,5,,,60,0
235440,note_on,0,0,6,,,,,,,,5,,,65,70
235680,note_on,240,0,6,,,,,,,,5,,,65,0
235680,note_on,0,0,6,,,,,,,,5,,,60,70
235920,note_on,720,0,7,,,,,,,,6,,,63,0
235920,note_on,0,0,6,,,,,,,,5,,,62,70
235920,note_on,240,0,6,,,,,,,,5,,,60,0
235920,note_on,0,0,7,,,,,,,,6,,,65,80
235920,note_on,0,0,5,,,,,,,,4,,,77,80
235920,note_on,720,0,5,,,,,,,,4,,,75,0
236112,note_on,192,0,5,,,,,,,,4,,,77,0
236112,note_on,192,0,6,,,,,,,,5,,,62,0
236112,note_on,192,0,7,,,,,,,,6,,,65,0
236160,note_on,1152,0,8,,,,,,,,7,,,58,70
236160,note_on,1152,0,9,,,,,,,,8,,,46,70
236160,note_on,48,0,5,,,,,,,,4,,,74,80
236160,note_on,48,0,6,,,,,,,,5,,,58,70
236160,note_on,48,0,7,,,,,,,,6,,,62,80
236400,note_on,240,0,6,,,,,,,,5,,,58,0
236400,note_on,0,0,6,,,,,,,,5,,,65,70
236544,note_on,384,0,7,,,,,,,,6,,,62,0
236640,note_on,240,0,6,,,,,,,,5,,,65,0
236640,note_on,0,0,6,,,,,,,,5,,,58,70
236880,note_on,720,0,5,,,,,,,,4,,,74,0
236880,note_on,0,0,5,,,,,,,,4,,,77,80
236880,note_on,0,0,6,,,,,,,,5,,,65,70
236880,note_on,240,0,6,,,,,,,,5,,,58,0
237072,note_on,192,0,5,,,,,,,,4,,,77,0
237072,note_on,192,0,6,,,,,,,,5,,,65,0
237120,note_on,48,0,5,,,,,,,,4,,,82,80
237120,note_on,576,0,7,,,,,,,,6,,,70,80
237120,note_on,48,0,6,,,,,,,,5,,,62,70
237360,note_on,0,0,6,,,,,,,,5,,,65,70
237360,note_on,240,0,6,,,,,,,,5,,,62,0
237600,note_on,240,0,6,,,,,,,,5,,,65,0
237600,note_on,0,0,6,,,,,,,,5,,,62,70
237840,note_on,0,0,7,,,,,,,,6,,,74,80
237840,note_on,240,0,6,,,,,,,,5,,,62,0
237840,note_on,0,0,6,,,,,,,,5,,,65,70
237840,note_on,720,0,7,,,,,,,,6,,,70,0
237840,note_on,0,0,5,,,,,,,,4,,,86,80
237840,note_on,720,0,5,,,,,,,,4,,,82,0
238032,note_on,192,0,5,,,,,,,,4,,,86,0
238032,note_on,192,0,6,,,,,,,,5,,,65,0
238032,note_on,192,0,7,,,,,,,,6,,,74,0
238080,note_on,48,0,5,,,,,,,,4,,,84,80
238080,note_on,48,0,6,,,,,,,,5,,,63,70
238080,note_on,1920,0,8,,,,,,,,7,,,58,0
238080,note_on,0,0,9,,,,,,,,8,,,41,70
238080,note_on,48,0,7,,,,,,,,6,,,72,80
238080,note_on,1920,0,9,,,,,,,,8,,,46,0
238080,note_on,0,0,8,,,,,,,,7,,,53,70
238320,note_on,240,0,6,,,,,,,,5,,,63,0
238320,note_on,0,0,6,,,,,,,,5,,,65,70
238560,note_on,240,0,6,,,,,,,,5,,,65,0
238560,note_on,0,0,6,,,,,,,,5,,,63,70
238800,note_on,0,0,5,,,,,,,,4,,,87,80
238800,note_on,720,0,5,,,,,,,,4,,,84,0
238800,note_on,0,0,6,,,,,,,,5,,,65,70
238800,note_on,720,0,7,,,,,,,,6,,,72,0
238800,note_on,0,0,7,,,,,,,,6,,,75,80
238800,note_on,240,0,6,,,,,,,,5,,,63,0
238992,note_on,192,0,5,,,,,,,,4,,,87,0
238992,note_on,192,0,7,,,,,,,,6,,,75,0
238992,note_on,192,0,6,,,,,,,,5,,,65,0
239040,note_on,6720,0,1,,,,,,,,0,,,77,0
239040,note_on,48,0,6,,,,,,,,5,,,60,70
239040,note_on,48,0,5,,,,,,,,4,,,77,80
239040,note_on,48,0,7,,,,,,,,6,,,65,80
239040,note_on,0,0,1,,,,,,,,0,,,75,58
239280,note_on,0,0,6,,,,,,,,5,,,65,70
239280,note_on,240,0,6,,,,,,,,5,,,60,0
239520,note_on,0,0,6,,,,,,,,5,,,60,70
239520,note_on,240,0,6,,,,,,,,5,,,65,0
239760,note_on,720,0,5,,,,,,,,4,,,77,0
239760,note_on,0,0,7,,,,,,,,6,,,69,80
239760,note_on,0,0,5,,,,,,,,4,,,81,80
239760,note_on,720,0,7,,,,,,,,6,,,65,0
239760,note_on,240,0,6,,,,,,,,5,,,60,0
239760,note_on,0,0,6,,,,,,,,5,,,65,70
239904,note_on,1824,0,9,,,,,,,,8,,,41,0
239904,note_on,1824,0,8,,,,,,,,7,,,53,0
239952,note_on,192,0,5,,,,,,,,4,,,81,0
239952,note_on,192,0,6,,,,,,,,5,,,65,0
239952,note_on,192,0,7,,,,,,,,6,,,69,0
240000,note_on,96,0,8,,,,,,,,7,,,46,105
240000,note_on,960,0,1,,,,,,,,0,,,75,0
240000,note_on,96,0,9,,,,,,,,8,,,34,105
240000,note_on,48,0,7,,,,,,,,6,,,70,105
240000,note_on,48,0,6,,,,,,,,5,,,62,105
240000,note_on,22728,0,3,,,,,,,,2,,,70,105
240000,note_on,22728,0,2,,,,,,,,1,,,46,105
240000,note_on,0,0,1,,,,,,,,0,,,74,58
240000,note_on,48,0,5,,,,,,,,4,,,82,80
240192,note_on,192,0,5,,,,,,,,4,,,82,0
240240,note_on,48,0,5,,,,,,,,4,,,77,105
240312,note_on,312,0,9,,,,,,,,8,,,34,0
240312,note_on,312,0,7,,,,,,,,6,,,70,0
240312,note_on,312,0,8,,,,,,,,7,,,46,0
240312,note_on,312,0,2,,,,,,,,1,,,46,0
240312,note_on,312,0,3,,,,,,,,2,,,70,0
240384,note_on,384,0,6,,,,,,,,5,,,62,0
240384,note_on,0,0,1,,,,,,,,0,,,65,0
240384,note_on,384,0,1,,,,,,,,0,,,74,0
240480,note_on,96,0,6,,,,,,,,5,,,74,116
240480,note_on,168,0,3,,,,,,,,2,,,65,105
240480,note_on,0,0,1,,,,,,,,0,,,70,105
240480,note_on,96,0,1,,,,,,,,0,,,74,105
240480,note_on,168,0,2,,,,,,,,1,,,53,105
240480,note_on,168,0,9,,,,,,,,8,,,41,105
240480,note_on,168,0,8,,,,,,,,7,,,53,105
240480,note_on,168,0,7,,,,,,,,6,,,65,105
240540,note_on,60,0,6,,,,,,,,5,,,74,0
240540,note_on,0,0,6,,,,,,,,5,,,72,116
240600,note_on,60,0,6,,,,,,,,5,,,72,0
240600,note_on,0,0,6,,,,,,,,5,,,70,116
240624,note_on,384,0,5,,,,,,,,4,,,77,0
240720,note_on,96,0,5,,,,,,,,4,,,77,105
240792,note_on,312,0,2,,,,,,,,1,,,53,0
240792,note_on,312,0,8,,,,,,,,7,,,53,0
240792,note_on,312,0,9,,,,,,,,8,,,41,0
240792,note_on,312,0,7,,,,,,,,6,,,65,0
240792,note_on,312,0,3,,,,,,,,2,,,65,0
240960,note_on,168,0,8,,,,,,,,7,,,62,105
240960,note_on,168,0,2,,,,,,,,1,,,62,105
240960,note_on,168,0,7,,,,,,,,6,,,74,105
240960,note_on,360,0,6,,,,,,,,5,,,70,0
240960,note_on,168,0,9,,,,,,,,8,,,50,105
240960,note_on,168,0,3,,,,,,,,2,,,74,105
241104,note_on,384,0,5,,,,,,,,4,,,77,0
241200,note_on,96,0,5,,,,,,,,4,,,77,105
241440,note_on,480,0,6,,,,,,,,5,,,62,116
241500,note_on,60,0,6,,,,,,,,5,,,62,0
241500,note_on,0,0,6,,,,,,,,5,,,60,116
241536,note_on,576,0,7,,,,,,,,6,,,74,0
241536,note_on,576,0,9,,,,,,,,8,,,50,0
241536,note_on,576,0,2,,,,,,,,1,,,62,0
241536,note_on,576,0,8,,,,,,,,7,,,62,0
241536,note_on,576,0,3,,,,,,,,2,,,74,0
241560,note_on,0,0,6,,,,,,,,5,,,58,116
241560,note_on,60,0,6,,,,,,,,5,,,60,0
241584,note_on,384,0,5,,,,,,,,4,,,77,0
241680,note_on,96,0,5,,,,,,,,4,,,77,105
241680,note_on,144,0,8,,,,,,,,7,,,60,105
241680,note_on,144,0,7,,,,,,,,6,,,72,105
241680,note_on,144,0,9,,,,,,,,8,,,48,105
241680,note_on,144,0,3,,,,,,,,2,,,72,105
241680,note_on,144,0,2,,,,,,,,1,,,60,105
241872,note_on,192,0,7,,,,,,,,6,,,72,0
241872,note_on,192,0,2,,,,,,,,1,,,60,0
241872,note_on,192,0,3,,,,,,,,2,,,72,0
241872,note_on,192,0,8,,,,,,,,7,,,60,0
241872,note_on,192,0,9,,,,,,,,8,,,48,0
241920,note_on,48,0,7,,,,,,,,6,,,70,105
241920,note_on,48,0,8,,,,,,,,7,,,58,105
241920,note_on,360,0,6,,,,,,,,5,,,58,0
241920,note_on,48,0,9,,,,,,,,8,,,46,105
241920,note_on,48,0,3,,,,,,,,2,,,70,105
241920,note_on,48,0,2,,,,,,,,1,,,58,105
242112,note_on,432,0,5,,,,,,,,4,,,77,0
242160,note_on,48,0,5,,,,,,,,4,,,77,105
242232,note_on,312,0,3,,,,,,,,2,,,70,0
242232,note_on,312,0,8,,,,,,,,7,,,58,0
242232,note_on,312,0,9,,,,,,,,8,,,46,0
242232,note_on,312,0,7,,,,,,,,6,,,70,0
242232,note_on,312,0,2,,,,,,,,1,,,58,0
242400,note_on,168,0,9,,,,,,,,8,,,41,105
242400,note_on,168,0,7,,,,,,,,6,,,65,105
242400,note_on,168,0,2,,,,,,,,1,,,53,105
242400,note_on,480,0,6,,,,,,,,5,,,65,116
242400,note_on,168,0,8,,,,,,,,7,,,53,105
242400,note_on,168,0,3,,,,,,,,2,,,65,105
242460,note_on,60,0,6,,,,,,,,5,,,65,0
242460,note_on,0,0,6,,,,,,,,5,,,63,116
242520,note_on,0,0,6,,,,,,,,5,,,62,116
242520,note_on,60,0,6,,,,,,,,5,,,63,0
242544,note_on,384,0,5,,,,,,,,4,,,77,0
242640,note_on,96,0,5,,,,,,,,4,,,77,105
242712,note_on,312,0,3,,,,,,,,2,,,65,0
242712,note_on,312,0,9,,,,,,,,8,,,41,0
242712,note_on,312,0,7,,,,,,,,6,,,65,0
242712,note_on,312,0,8,,,,,,,,7,,,53,0
242712,note_on,312,0,2,,,,,,,,1,,,53,0
242880,note_on,168,0,7,,,,,,,,6,,,74,105
242880,note_on,360,0,6,,,,,,,,5,,,62,0
242880,note_on,168,0,2,,,,,,,,1,,,62,105
242880,note_on,0,0,1,,,,,,,,0,,,77,105
242880,note_on,2400,0,1,,,,,,,,0,,,74,0
242880,note_on,168,0,8,,,,,,,,7,,,62,105
242880,note_on,168,0,9,,,,,,,,8,,,50,105
242880,note_on,168,0,3,,,,,,,,2,,,74,105
243024,note_on,384,0,5,,,,,,,,4,,,77,0
243120,note_on,96,0,5,,,,,,,,4,,,77,105
243192,note_on,312,0,7,,,,,,,,6,,,74,0
243192,note_on,312,0,3,,,,,,,,2,,,74,0
243192,note_on,312,0,8,,,,,,,,7,,,62,0
243192,note_on,312,0,2,,,,,,,,1,,,62,0
243192,note_on,312,0,9,,,,,,,,8,,,50,0
243360,note_on,480,0,6,,,,,,,,5,,,74,116
243360,note_on,168,0,2,,,,,,,,1,,,58,105
243360,note_on,0,0,1,,,,,,,,0,,,74,105
243360,note_on,168,0,7,,,,,,,,6,,,70,105
243360,note_on,168,0,8,,,,,,,,7,,,58,105
243360,note_on,480,0,1,,,,,,,,0,,,70,0
243360,note_on,168,0,9,,,,,,,,8,,,46,105
243360,note_on,168,0,3,,,,,,,,2,,,70,105
243420,note_on,60,0,6,,,,,,,,5,,,74,0
243420,note_on,0,0,6,,,,,,,,5,,,72,116
243480,note_on,60,0,6,,,,,,,,5,,,72,0
243480,note_on,0,0,6,,,,,,,,5,,,70,116
243504,note_on,384,0,5,,,,,,,,4,,,77,0
243600,note_on,96,0,5,,,,,,,,4,,,77,105
243672,note_on,312,0,3,,,,,,,,2,,,70,0
243672,note_on,312,0,7,,,,,,,,6,,,70,0
243672,note_on,312,0,2,,,,,,,,1,,,58,0
243672,note_on,312,0,9,,,,,,,,8,,,46,0
243672,note_on,312,0,8,,,,,,,,7,,,58,0
243744,note_on,384,0,1,,,,,,,,0,,,74,0
243744,note_on,0,0,1,,,,,,,,0,,,77,0
243840,note_on,168,0,3,,,,,,,,2,,,72,105
243840,note_on,168,0,2,,,,,,,,1,,,60,105
243840,note_on,360,0,6,,,,,,,,5,,,70,0
243840,note_on,0,0,1,,,,,,,,0,,,75,105
243840,note_on,168,0,7,,,,,,,,6,,,72,105
243840,note_on,96,0,1,,,,,,,,0,,,77,105
243840,note_on,168,0,9,,,,,,,,8,,,48,105
243840,note_on,168,0,8,,,,,,,,7,,,60,105
244032,note_on,432,0,5,,,,,,,,4,,,77,0
244080,note_on,48,0,5,,,,,,,,4,,,77,105
244152,note_on,312,0,2,,,,,,,,1,,,60,0
244152,note_on,312,0,8,,,,,,,,7,,,60,0
244152,note_on,312,0,7,,,,,,,,6,,,72,0
244152,note_on,312,0,9,,,,,,,,8,,,48,0
244152,note_on,312,0,3,,,,,,,,2,,,72,0
244320,note_on,168,0,8,,,,,,,,7,,,53,105
244320,note_on,168,0,7,,,,,,,,6,,,65,105
244320,note_on,168,0,3,,,,,,,,2,,,65,105
244320,note_on,480,0,6,,,,,,,,5,,,75,116
244320,note_on,168,0,2,,,,,,,,1,,,53,105
244320,note_on,168,0,9,,,,,,,,8,,,41,105
244380,note_on,0,0,6,,,,,,,,5,,,74,116
244380,note_on,60,0,6,,,,,,,,5,,,75,0
244440,note_on,60,0,6,,,,,,,,5,,,74,0
244440,note_on,0,0,6,,,,,,,,5,,,72,116
244464,note_on,384,0,5,,,,,,,,4,,,77,0
244560,note_on,96,0,5,,,,,,,,4,,,77,105
244632,note_on,312,0,7,,,,,,,,6,,,65,0
244632,note_on,312,0,3,,,,,,,,2,,,65,0
244632,note_on,312,0,9,,,,,,,,8,,,41,0
244632,note_on,312,0,2,,,,,,,,1,,,53,0
244632,note_on,312,0,8,,,,,,,,7,,,53,0
244800,note_on,168,0,3,,,,,,,,2,,,75,105
244800,note_on,168,0,9,,,,,,,,8,,,51,105
244800,note_on,168,0,7,,,,,,,,6,,,75,105
244800,note_on,168,0,8,,,,,,,,7,,,63,105
244800,note_on,168,0,2,,,,,,,,1,,,63,105
244800,note_on,360,0,6,,,,,,,,5,,,72,0
244944,note_on,384,0,5,,,,,,,,4,,,77,0
245040,note_on,96,0,5,,,,,,,,4,,,77,105
245280,note_on,480,0,6,,,,,,,,5,,,72,116
245340,note_on,60,0,6,,,,,,,,5,,,72,0
245340,note_on,0,0,6,,,,,,,,5,,,70,116
245376,note_on,576,0,8,,,,,,,,7,,,63,0
245376,note_on,576,0,7,,,,,,,,6,,,75,0
245376,note_on,576,0,2,,,,,,,,1,,,63,0
245376,note_on,576,0,9,,,,,,,,8,,,51,0
245376,note_on,576,0,3,,,,,,,,2,,,75,0
245400,note_on,60,0,6,,,,,,,,5,,,70,0
245400,note_on,0,0,6,,,,,,,,5,,,69,116
245424,note_on,384,0,5,,,,,,,,4,,,77,0
245520,note_on,144,0,2,,,,,,,,1,,,62,105
245520,note_on,144,0,7,,,,,,,,6,,,74,105
245520,note_on,144,0,8,,,,,,,,7,,,62,105
245520,note_on,96,0,5,,,,,,,,4,,,77,105
245520,note_on,144,0,9,,,,,,,,8,,,50,105
245520,note_on,144,0,3,,,,,,,,2,,,74,105
245712,note_on,192,0,8,,,,,,,,7,,,62,0
245712,note_on,192,0,9,,,,,,,,8,,,50,0
245712,note_on,192,0,7,,,,,,,,6,,,74,0
245712,note_on,192,0,3,,,,,,,,2,,,74,0
245712,note_on,192,0,2,,,,,,,,1,,,62,0
245760,note_on,48,0,7,,,,,,,,6,,,72,105
245760,note_on,48,0,2,,,,,,,,1,,,60,105
245760,note_on,48,0,8,,,,,,,,7,,,60,105
245760,note_on,360,0,6,,,,,,,,5,,,69,0
245760,note_on,48,0,3,,,,,,,,2,,,72,105
245760,note_on,48,0,9,,,,,,,,8,,,48,105
245952,note_on,432,0,5,,,,,,,,4,,,77,0
246000,note_on,48,0,5,,,,,,,,4,,,77,105
246072,note_on,312,0,2,,,,,,,,1,,,60,0
246072,note_on,312,0,9,,,,,,,,8,,,48,0
246072,note_on,312,0,8,,,,,,,,7,,,60,0
246072,note_on,312,0,7,,,,,,,,6,,,72,0
246072,note_on,312,0,3,,,,,,,,2,,,72,0
246240,note_on,168,0,7,,,,,,,,6,,,65,105
246240,note_on,168,0,2,,,,,,,,1,,,53,105
246240,note_on,168,0,8,,,,,,,,7,,,53,105
246240,note_on,168,0,9,,,,,,,,8,,,41,105
246240,note_on,480,0,6,,,,,,,,5,,,63,116
246240,note_on,168,0,3,,,,,,,,2,,,65,105
246300,note_on,60,0,6,,,,,,,,5,,,63,0
246300,note_on,0,0,6,,,,,,,,5,,,62,116
246360,note_on,60,0,6,,,,,,,,5,,,62,0
246360,note_on,0,0,6,,,,,,,,5,,,60,116
246384,note_on,384,0,5,,,,,,,,4,,,77,0
246480,note_on,96,0,5,,,,,,,,4,,,77,105
246552,note_on,312,0,7,,,,,,,,6,,,65,0
246552,note_on,312,0,9,,,,,,,,8,,,41,0
246552,note_on,312,0,2,,,,,,,,1,,,53,0
246552,note_on,312,0,8,,,,,,,,7,,,53,0
246552,note_on,312,0,3,,,,,,,,2,,,65,0
246720,note_on,168,0,7,,,,,,,,6,,,75,105
246720,note_on,168,0,9,,,,,,,,8,,,51,105
246720,note_on,360,0,6,,,,,,,,5,,,60,0
246720,note_on,168,0,3,,,,,,,,2,,,75,105
246720,note_on,168,0,8,,,,,,,,7,,,63,105
246720,note_on,168,0,2,,,,,,,,1,,,63,105
246864,note_on,384,0,5,,,,,,,,4,,,77,0
246960,note_on,96,0,5,,,,,,,,4,,,77,105
247032,note_on,312,0,7,,,,,,,,6,,,75,0
247032,note_on,312,0,9,,,,,,,,8,,,51,0
247032,note_on,312,0,8,,,,,,,,7,,,63,0
247032,note_on,312,0,3,,,,,,,,2,,,75,0
247032,note_on,312,0,2,,,,,,,,1,,,63,0
247200,note_on,168,0,3,,,,,,,,2,,,72,105
247200,note_on,168,0,9,,,,,,,,8,,,48,105
247200,note_on,168,0,7,,,,,,,,6,,,72,105
247200,note_on,168,0,8,,,,,,,,7,,,60,105
247200,note_on,168,0,2,,,,,,,,1,,,60,105
247200,note_on,480,0,6,,,,,,,,5,,,60,116
247260,note_on,60,0,6,,,,,,,,5,,,60,0
247260,note_on,0,0,6,,,,,,,,5,,,58,116
247296,note_on,3456,0,1,,,,,,,,0,,,75,0
247296,note_on,0,0,1,,,,,,,,0,,,77,0
247320,note_on,60,0,6,,,,,,,,5,,,58,0
247320,note_on,0,0,6,,,,,,,,5,,,57,116
247344,note_on,384,0,5,,,,,,,,4,,,77,0
247440,note_on,96,0,5,,,,,,,,4,,,77,105
247512,note_on,312,0,2,,,,,,,,1,,,60,0
247512,note_on,312,0,7,,,,,,,,6,,,72,0
247512,note_on,312,0,9,,,,,,,,8,,,48,0
247512,note_on,312,0,3,,,,,,,,2,,,72,0
247512,note_on,312,0,8,,,,,,,,7,,,60,0
247632,note_on,192,0,5,,,,,,,,4,,,77,0
247680,note_on,168,0,9,,,,,,,,8,,,46,105
247680,note_on,168,0,7,,,,,,,,6,,,70,105
247680,note_on,168,0,8,,,,,,,,7,,,58,105
247680,note_on,168,0,2,,,,,,,,1,,,58,105
247680,note_on,168,0,3,,,,,,,,2,,,70,105
247680,note_on,384,0,1,,,,,,,,0,,,77,105
247680,note_on,0,0,1,,,,,,,,0,,,74,105
247680,note_on,0,0,3,,,,,,,,2,,,70,105
247680,note_on,360,0,6,,,,,,,,5,,,57,0
247680,note_on,0,0,6,,,,,,,,5,,,58,105
247680,note_on,48,0,5,,,,,,,,4,,,80,105
247872,note_on,192,0,5,,,,,,,,4,,,80,0
247872,note_on,192,0,6,,,,,,,,5,,,58,0
247920,note_on,48,0,5,,,,,,,,4,,,80,105
247920,note_on,48,0,6,,,,,,,,5,,,77,105
247992,note_on,312,0,8,,,,,,,,7,,,58,0
247992,note_on,312,0,9,,,,,,,,8,,,46,0
247992,note_on,312,0,2,,,,,,,,1,,,58,0
247992,note_on,312,0,7,,,,,,,,6,,,70,0
248160,note_on,168,0,9,,,,,,,,8,,,50,105
248160,note_on,168,0,8,,,,,,,,7,,,62,105
248160,note_on,168,0,7,,,,,,,,6,,,74,105
248160,note_on,168,0,2,,,,,,,,1,,,62,105
248304,note_on,384,0,6,,,,,,,,5,,,77,0
248304,note_on,384,0,5,,,,,,,,4,,,80,0
248394,note_on,234,0,9,,,,,,,,8,,,50,0
248394,note_on,234,0,8,,,,,,,,7,,,62,0
248394,note_on,234,0,7,,,,,,,,6,,,74,0
248394,note_on,234,0,2,,,,,,,,1,,,62,0
248400,note_on,96,0,6,,,,,,,,5,,,77,105
248400,note_on,96,0,5,,,,,,,,4,,,80,105
248448,note_on,768,0,1,,,,,,,,0,,,74,0
248448,note_on,768,0,3,,,,,,,,2,,,70,0
248448,note_on,0,0,3,,,,,,,,2,,,70,0
248448,note_on,0,0,1,,,,,,,,0,,,77,0
248520,note_on,126,0,2,,,,,,,,1,,,58,105
248520,note_on,126,0,7,,,,,,,,6,,,70,105
248520,note_on,126,0,8,,,,,,,,7,,,58,105
248520,note_on,126,0,9,,,,,,,,8,,,46,105
248598,note_on,78,0,2,,,,,,,,1,,,58,0
248598,note_on,78,0,8,,,,,,,,7,,,58,0
248598,note_on,78,0,7,,,,,,,,6,,,70,0
248598,note_on,78,0,9,,,,,,,,8,,,46,0
248640,note_on,42,0,7,,,,,,,,6,,,62,105
248640,note_on,42,0,2,,,,,,,,1,,,50,105
248640,note_on,42,0,8,,,,,,,,7,,,50,105
248640,note_on,192,0,1,,,,,,,,0,,,81,105
248640,note_on,0,0,1,,,,,,,,0,,,77,105
248640,note_on,42,0,9,,,,,,,,8,,,38,105
248640,note_on,192,0,3,,,,,,,,2,,,58,105
248640,note_on,0,0,3,,,,,,,,2,,,70,105
248784,note_on,384,0,5,,,,,,,,4,,,80,0
248784,note_on,384,0,6,,,,,,,,5,,,77,0
248880,note_on,96,0,6,,,,,,,,5,,,77,105
248880,note_on,96,0,5,,,,,,,,4,,,80,105
248952,note_on,312,0,7,,,,,,,,6,,,62,0
248952,note_on,312,0,9,,,,,,,,8,,,38,0
248952,note_on,312,0,2,,,,,,,,1,,,50,0
248952,note_on,312,0,8,,,,,,,,7,,,50,0
249120,note_on,168,0,9,,,,,,,,8,,,46,105
249120,note_on,168,0,8,,,,,,,,7,,,58,105
249120,note_on,168,0,7,,,,,,,,6,,,70,105
249120,note_on,168,0,2,,,,,,,,1,,,58,105
249264,note_on,384,0,6,,,,,,,,5,,,77,0
249264,note_on,384,0,5,,,,,,,,4,,,80,0
249354,note_on,234,0,7,,,,,,,,6,,,70,0
249354,note_on,234,0,8,,,,,,,,7,,,58,0
249354,note_on,234,0,9,,,,,,,,8,,,46,0
249354,note_on,234,0,2,,,,,,,,1,,,58,0
249360,note_on,96,0,6,,,,,,,,5,,,77,105
249360,note_on,96,0,5,,,,,,,,4,,,80,105
249408,note_on,768,0,1,,,,,,,,0,,,77,0
249408,note_on,0,0,3,,,,,,,,2,,,58,0
249408,note_on,0,0,1,,,,,,,,0,,,81,0
249408,note_on,768,0,3,,,,,,,,2,,,70,0
249480,note_on,126,0,9,,,,,,,,8,,,38,105
249480,note_on,126,0,7,,,,,,,,6,,,62,105
249480,note_on,126,0,2,,,,,,,,1,,,50,105
249480,note_on,126,0,8,,,,,,,,7,,,50,105
249552,note_on,192,0,6,,,,,,,,5,,,77,0
249552,note_on,192,0,5,,,,,,,,4,,,80,0
249558,note_on,78,0,7,,,,,,,,6,,,62,0
249558,note_on,78,0,9,,,,,,,,8,,,38,0
249558,note_on,78,0,8,,,,,,,,7,,,50,0
249558,note_on,78,0,2,,,,,,,,1,,,50,0
249600,note_on,192,0,1,,,,,,,,0,,,75,105
249600,note_on,0,0,1,,,,,,,,0,,,79,105
249600,note_on,42,0,9,,,,,,,,8,,,39,105
249600,note_on,48,0,5,,,,,,,,4,,,79,105
249600,note_on,192,0,3,,,,,,,,2,,,70,105
249600,note_on,42,0,8,,,,,,,,7,,,51,105
249600,note_on,42,0,7,,,,,,,,6,,,63,105
249600,note_on,48,0,6,,,,,,,,5,,,75,105
249600,note_on,0,0,3,,,,,,,,2,,,58,105
249600,note_on,42,0,2,,,,,,,,1,,,51,105
249792,note_on,192,0,6,,,,,,,,5,,,75,0
249792,note_on,192,0,5,,,,,,,,4,,,79,0
249840,note_on,48,0,5,,,,,,,,4,,,79,105
249840,note_on,48,0,6,,,,,,,,5,,,75,105
249912,note_on,312,0,8,,,,,,,,7,,,51,0
249912,note_on,312,0,7,,,,,,,,6,,,63,0
249912,note_on,312,0,2,,,,,,,,1,,,51,0
249912,note_on,312,0,9,,,,,,,,8,,,39,0
250080,note_on,168,0,9,,,,,,,,8,,,46,105
250080,note_on,168,0,8,,,,,,,,7,,,58,105
250080,note_on,168,0,2,,,,,,,,1,,,58,105
250080,note_on,168,0,7,,,,,,,,6,,,70,105
250224,note_on,384,0,6,,,,,,,,5,,,75,0
250224,note_on,384,0,5,,,,,,,,4,,,79,0
250314,note_on,234,0,2,,,,,,,,1,,,58,0
250314,note_on,234,0,9,,,,,,,,8,,,46,0
250314,note_on,234,0,8,,,,,,,,7,,,58,0
250314,note_on,234,0,7,,,,,,,,6,,,70,0
250320,note_on,96,0,6,,,,,,,,5,,,75,105
250320,note_on,96,0,5,,,,,,,,4,,,79,105
250368,note_on,0,0,1,,,,,,,,0,,,75,0
250368,note_on,768,0,1,,,,,,,,0,,,79,0
250440,note_on,126,0,8,,,,,,,,7,,,51,105
250440,note_on,126,0,2,,,,,,,,1,,,51,105
250440,note_on,126,0,7,,,,,,,,6,,,63,105
250440,note_on,126,0,9,,,,,,,,8,,,39,105
250512,note_on,192,0,6,,,,,,,,5,,,75,0
250512,note_on,192,0,5,,,,,,,,4,,,79,0
250518,note_on,78,0,2,,,,,,,,1,,,51,0
250518,note_on,78,0,7,,,,,,,,6,,,63,0
250518,note_on,78,0,8,,,,,,,,7,,,51,0
250518,note_on,78,0,9,,,,,,,,8,,,39,0
250560,note_on,42,0,8,,,,,,,,7,,,55,105
250560,note_on,42,0,7,,,,,,,,6,,,67,105
250560,note_on,42,0,9,,,,,,,,8,,,43,105
250560,note_on,192,0,1,,,,,,,,0,,,70,105
250560,note_on,48,0,6,,,,,,,,5,,,70,105
250560,note_on,0,0,1,,,,,,,,0,,,76,105
250560,note_on,42,0,2,,,,,,,,1,,,55,105
250560,note_on,48,0,5,,,,,,,,4,,,76,105
250752,note_on,192,0,5,,,,,,,,4,,,76,0
250752,note_on,192,0,6,,,,,,,,5,,,70,0
250800,note_on,48,0,5,,,,,,,,4,,,76,105
250800,note_on,48,0,6,,,,,,,,5,,,70,105
250872,note_on,312,0,9,,,,,,,,8,,,43,0
250872,note_on,312,0,8,,,,,,,,7,,,55,0
250872,note_on,312,0,2,,,,,,,,1,,,55,0
250872,note_on,312,0,7,,,,,,,,6,,,67,0
251040,note_on,168,0,7,,,,,,,,6,,,70,105
251040,note_on,168,0,8,,,,,,,,7,,,58,105
251040,note_on,168,0,2,,,,,,,,1,,,58,105
251040,note_on,168,0,9,,,,,,,,8,,,46,105
251136,note_on,0,0,3,,,,,,,,2,,,70,0
251136,note_on,1536,0,3,,,,,,,,2,,,58,0
251184,note_on,384,0,6,,,,,,,,5,,,70,0
251184,note_on,384,0,5,,,,,,,,4,,,76,0
251274,note_on,234,0,2,,,,,,,,1,,,58,0
251274,note_on,234,0,7,,,,,,,,6,,,70,0
251274,note_on,234,0,9,,,,,,,,8,,,46,0
251274,note_on,234,0,8,,,,,,,,7,,,58,0
251280,note_on,96,0,6,,,,,,,,5,,,70,105
251280,note_on,96,0,5,,,,,,,,4,,,76,105
251328,note_on,768,0,1,,,,,,,,0,,,76,0
251328,note_on,0,0,1,,,,,,,,0,,,70,0
251400,note_on,126,0,9,,,,,,,,8,,,43,105
251400,note_on,126,0,8,,,,,,,,7,,,55,105
251400,note_on,126,0,2,,,,,,,,1,,,55,105
251400,note_on,126,0,7,,,,,,,,6,,,67,105
251472,note_on,192,0,5,,,,,,,,4,,,76,0
251472,note_on,192,0,6,,,,,,,,5,,,70,0
251478,note_on,78,0,8,,,,,,,,7,,,55,0
251478,note_on,78,0,2,,,,,,,,1,,,55,0
251478,note_on,78,0,7,,,,,,,,6,,,67,0
251478,note_on,78,0,9,,,,,,,,8,,,43,0
251520,note_on,42,0,8,,,,,,,,7,,,57,105
251520,note_on,0,0,3,,,,,,,,2,,,65,105
251520,note_on,42,0,2,,,,,,,,1,,,57,105
251520,note_on,42,0,7,,,,,,,,6,,,69,105
251520,note_on,42,0,9,,,,,,,,8,,,45,105
251520,note_on,0,0,1,,,,,,,,0,,,72,105
251520,note_on,48,0,5,,,,,,,,4,,,77,105
251520,note_on,48,0,6,,,,,,,,5,,,72,105
251520,note_on,384,0,3,,,,,,,,2,,,72,105
251520,note_on,192,0,1,,,,,,,,0,,,77,105
251712,note_on,192,0,6,,,,,,,,5,,,72,0
251712,note_on,192,0,5,,,,,,,,4,,,77,0
251760,note_on,48,0,6,,,,,,,,5,,,72,105
251760,note_on,48,0,5,,,,,,,,4,,,77,105
251832,note_on,312,0,2,,,,,,,,1,,,57,0
251832,note_on,312,0,8,,,,,,,,7,,,57,0
251832,note_on,312,0,7,,,,,,,,6,,,69,0
251832,note_on,312,0,9,,,,,,,,8,,,45,0
252000,note_on,168,0,2,,,,,,,,1,,,60,105
252000,note_on,168,0,9,,,,,,,,8,,,48,105
252000,note_on,168,0,7,,,,,,,,6,,,72,105
252000,note_on,168,0,8,,,,,,,,7,,,60,105
252144,note_on,384,0,6,,,,,,,,5,,,72,0
252144,note_on,384,0,5,,,,,,,,4,,,77,0
252234,note_on,234,0,9,,,,,,,,8,,,48,0
252234,note_on,234,0,2,,,,,,,,1,,,60,0
252234,note_on,234,0,8,,,,,,,,7,,,60,0
252234,note_on,234,0,7,,,,,,,,6,,,72,0
252240,note_on,96,0,6,,,,,,,,5,,,72,105
252240,note_on,96,0,5,,,,,,,,4,,,77,105
252360,note_on,126,0,2,,,,,,,,1,,,57,105
252360,note_on,126,0,9,,,,,,,,8,,,45,105
252360,note_on,126,0,7,,,,,,,,6,,,69,105
252360,note_on,126,0,8,,,,,,,,7,,,57,105
252432,note_on,192,0,6,,,,,,,,5,,,72,0
252432,note_on,192,0,5,,,,,,,,4,,,77,0
252438,note_on,78,0,8,,,,,,,,7,,,57,0
252438,note_on,78,0,9,,,,,,,,8,,,45,0
252438,note_on,78,0,7,,,,,,,,6,,,69,0
252438,note_on,78,0,2,,,,,,,,1,,,57,0
252480,note_on,0,0,1,,,,,,,,0,,,69,105
252480,note_on,0,0,1,,,,,,,,0,,,75,105
252480,note_on,48,0,6,,,,,,,,5,,,72,105
252480,note_on,0,0,6,,,,,,,,5,,,69,105
252480,note_on,42,0,2,,,,,,,,1,,,53,105
252480,note_on,42,0,9,,,,,,,,8,,,41,105
252480,note_on,42,0,7,,,,,,,,6,,,65,105
252480,note_on,48,0,5,,,,,,,,4,,,75,105
252480,note_on,42,0,8,,,,,,,,7,,,53,105
252480,note_on,960,0,1,,,,,,,,0,,,72,0
252480,note_on,0,0,1,,,,,,,,0,,,77,0
252672,note_on,0,0,6,,,,,,,,5,,,72,0
252672,note_on,192,0,5,,,,,,,,4,,,75,0
252672,note_on,192,0,6,,,,,,,,5,,,69,0
252720,note_on,0,0,6,,,,,,,,5,,,72,105
252720,note_on,48,0,6,,,,,,,,5,,,69,105
252720,note_on,48,0,5,,,,,,,,4,,,75,105
252792,note_on,312,0,2,,,,,,,,1,,,53,0
252792,note_on,312,0,8,,,,,,,,7,,,53,0
252792,note_on,312,0,9,,,,,,,,8,,,41,0
252792,note_on,312,0,7,,,,,,,,6,,,65,0
252960,note_on,168,0,2,,,,,,,,1,,,57,105
252960,note_on,168,0,8,,,,,,,,7,,,57,105
252960,note_on,168,0,9,,,,,,,,8,,,45,105
252960,note_on,168,0,7,,,,,,,,6,,,69,105
253056,note_on,0,0,3,,,,,,,,2,,,72,0
253056,note_on,1536,0,3,,,,,,,,2,,,65,0
253104,note_on,384,0,5,,,,,,,,4,,,75,0
253104,note_on,0,0,6,,,,,,,,5,,,69,0
253104,note_on,384,0,6,,,,,,,,5,,,72,0
253194,note_on,234,0,9,,,,,,,,8,,,45,0
253194,note_on,234,0,8,,,,,,,,7,,,57,0
253194,note_on,234,0,2,,,,,,,,1,,,57,0
253194,note_on,234,0,7,,,,,,,,6,,,69,0
253200,note_on,96,0,5,,,,,,,,4,,,75,105
253200,note_on,0,0,6,,,,,,,,5,,,69,105
253200,note_on,96,0,6,,,,,,,,5,,,72,105
253248,note_on,768,0,1,,,,,,,,0,,,75,0
253248,note_on,0,0,1,,,,,,,,0,,,69,0
253320,note_on,126,0,9,,,,,,,,8,,,41,105
253320,note_on,126,0,8,,,,,,,,7,,,53,105
253320,note_on,126,0,2,,,,,,,,1,,,53,105
253320,note_on,126,0,7,,,,,,,,6,,,65,105
253392,note_on,192,0,6,,,,,,,,5,,,69,0
253392,note_on,0,0,6,,,,,,,,5,,,72,0
253392,note_on,192,0,5,,,,,,,,4,,,75,0
253398,note_on,78,0,8,,,,,,,,7,,,53,0
253398,note_on,78,0,9,,,,,,,,8,,,41,0
253398,note_on,78,0,7,,,,,,,,6,,,65,0
253398,note_on,78,0,2,,,,,,,,1,,,53,0
253440,note_on,42,0,8,,,,,,,,7,,,55,105
253440,note_on,42,0,7,,,,,,,,6,,,67,105
253440,note_on,0,0,1,,,,,,,,0,,,74,105
253440,note_on,42,0,9,,,,,,,,8,,,43,105
253440,note_on,42,0,2,,,,,,,,1,,,55,105
253440,note_on,48,0,5,,,,,,,,4,,,70,105
253440,note_on,48,0,6,,,,,,,,5,,,70,105
253440,note_on,0,0,3,,,,,,,,2,,,70,105
253440,note_on,192,0,1,,,,,,,,0,,,70,105
253440,note_on,384,0,3,,,,,,,,2,,,58,105
253752,note_on,312,0,2,,,,,,,,1,,,55,0
253752,note_on,312,0,9,,,,,,,,8,,,43,0
253752,note_on,312,0,5,,,,,,,,4,,,70,0
253752,note_on,0,0,3,,,,,,,,2,,,58,0
253752,note_on,312,0,3,,,,,,,,2,,,70,0
253752,note_on,312,0,8,,,,,,,,7,,,55,0
253752,note_on,312,0,1,,,,,,,,0,,,74,0
253752,note_on,0,0,1,,,,,,,,0,,,70,0
253752,note_on,312,0,7,,,,,,,,6,,,67,0
253752,note_on,312,0,6,,,,,,,,5,,,70,0
253920,note_on,168,0,2,,,,,,,,1,,,50,105
253920,note_on,168,0,1,,,,,,,,0,,,77,105
253920,note_on,0,0,1,,,,,,,,0,,,82,105
253920,note_on,168,0,3,,,,,,,,2,,,58,105
253920,note_on,0,0,3,,,,,,,,2,,,70,105
253920,note_on,168,0,9,,,,,,,,8,,,38,105
253920,note_on,168,0,8,,,,,,,,7,,,50,105
253920,note_on,168,0,7,,,,,,,,6,,,62,105
253920,note_on,168,0,5,,,,,,,,4,,,82,105
253920,note_on,168,0,6,,,,,,,,5,,,77,105
254232,note_on,312,0,5,,,,,,,,4,,,82,0
254232,note_on,312,0,1,,,,,,,,0,,,82,0
254232,note_on,312,0,2,,,,,,,,1,,,50,0
254232,note_on,0,0,1,,,,,,,,0,,,77,0
254232,note_on,0,0,3,,,,,,,,2,,,58,0
254232,note_on,312,0,8,,,,,,,,7,,,50,0
254232,note_on,312,0,3,,,,,,,,2,,,70,0
254232,note_on,312,0,9,,,,,,,,8,,,38,0
254232,note_on,312,0,6,,,,,,,,5,,,77,0
254232,note_on,312,0,7,,,,,,,,6,,,62,0
254400,note_on,168,0,2,,,,,,,,1,,,51,105
254400,note_on,168,0,5,,,,,,,,4,,,79,105
254400,note_on,168,0,3,,,,,,,,2,,,58,105
254400,note_on,168,0,7,,,,,,,,6,,,63,105
254400,note_on,168,0,6,,,,,,,,5,,,75,105
254400,note_on,168,0,1,,,,,,,,0,,,79,105
254400,note_on,0,0,1,,,,,,,,0,,,75,105
254400,note_on,168,0,9,,,,,,,,8,,,39,105
254400,note_on,168,0,8,,,,,,,,7,,,51,105
254400,note_on,0,0,3,,,,,,,,2,,,70,105
254712,note_on,312,0,6,,,,,,,,5,,,75,0
254712,note_on,312,0,9,,,,,,,,8,,,39,0
254712,note_on,312,0,5,,,,,,,,4,,,79,0
254712,note_on,312,0,8,,,,,,,,7,,,51,0
254712,note_on,0,0,3,,,,,,,,2,,,58,0
254712,note_on,312,0,2,,,,,,,,1,,,51,0
254712,note_on,312,0,1,,,,,,,,0,,,75,0
254712,note_on,312,0,7,,,,,,,,6,,,63,0
254712,note_on,0,0,1,,,,,,,,0,,,79,0
254712,note_on,312,0,3,,,,,,,,2,,,70,0
254880,note_on,168,0,6,,,,,,,,5,,,63,105
254880,note_on,168,0,1,,,,,,,,0,,,69,105
254880,note_on,168,0,2,,,,,,,,1,,,53,105
254880,note_on,0,0,6,,,,,,,,5,,,60,105
254880,note_on,168,0,5,,,,,,,,4,,,69,105
254880,note_on,0,0,1,,,,,,,,0,,,63,105
254880,note_on,168,0,7,,,,,,,,6,,,65,105
254880,note_on,168,0,8,,,,,,,,7,,,53,105
254880,note_on,168,0,9,,,,,,,,8,,,41,105
254880,note_on,168,0,3,,,,,,,,2,,,65,105
255192,note_on,312,0,1,,,,,,,,0,,,63,0
255192,note_on,312,0,3,,,,,,,,2,,,65,0
255192,note_on,0,0,6,,,,,,,,5,,,63,0
255192,note_on,312,0,5,,,,,,,,4,,,69,0
255192,note_on,312,0,7,,,,,,,,6,,,65,0
255192,note_on,312,0,2,,,,,,,,1,,,53,0
255192,note_on,312,0,8,,,,,,,,7,,,53,0
255192,note_on,312,0,9,,,,,,,,8,,,41,0
255192,note_on,0,0,1,,,,,,,,0,,,69,0
255192,note_on,312,0,6,,,,,,,,5,,,60,0
255360,note_on,168,0,6,,,,,,,,5,,,62,105
255360,note_on,168,0,2,,,,,,,,1,,,58,105
255360,note_on,168,0,9,,,,,,,,8,,,46,105
255360,note_on,0,0,1,,,,,,,,0,,,70,105
255360,note_on,168,0,3,,,,,,,,2,,,70,105
255360,note_on,0,0,3,,,,,,,,2,,,58,105
255360,note_on,168,0,5,,,,,,,,4,,,80,105
255360,note_on,168,0,7,,,,,,,,6,,,70,105
255360,note_on,168,0,8,,,,,,,,7,,,58,105
255360,note_on,168,0,1,,,,,,,,0,,,62,105
255552,note_on,192,0,5,,,,,,,,4,,,80,0
255552,note_on,192,0,6,,,,,,,,5,,,62,0
255600,note_on,48,0,6,,,,,,,,5,,,77,105
255600,note_on,48,0,5,,,,,,,,4,,,80,105
255672,note_on,312,0,7,,,,,,,,6,,,70,0
255672,note_on,312,0,9,,,,,,,,8,,,46,0
255672,note_on,312,0,8,,,,,,,,7,,,58,0
255672,note_on,312,0,2,,,,,,,,1,,,58,0
255744,note_on,384,0,1,,,,,,,,0,,,70,0
255744,note_on,0,0,1,,,,,,,,0,,,62,0
255840,note_on,168,0,9,,,,,,,,8,,,50,105
255840,note_on,168,0,7,,,,,,,,6,,,74,105
255840,note_on,168,0,8,,,,,,,,7,,,62,105
255840,note_on,0,0,1,,,,,,,,0,,,77,105
255840,note_on,168,0,2,,,,,,,,1,,,62,105
255840,note_on,96,0,1,,,,,,,,0,,,80,105
255984,note_on,384,0,5,,,,,,,,4,,,80,0
255984,note_on,384,0,6,,,,,,,,5,,,77,0
256074,note_on,234,0,9,,,,,,,,8,,,50,0
256074,note_on,234,0,2,,,,,,,,1,,,62,0
256074,note_on,234,0,8,,,,,,,,7,,,62,0
256074,note_on,234,0,7,,,,,,,,6,,,74,0
256080,note_on,96,0,5,,,,,,,,4,,,80,105
256080,note_on,96,0,6,,,,,,,,5,,,77,105
256200,note_on,126,0,9,,,,,,,,8,,,46,105
256200,note_on,126,0,8,,,,,,,,7,,,58,105
256200,note_on,126,0,2,,,,,,,,1,,,58,105
256200,note_on,126,0,7,,,,,,,,6,,,70,105
256278,note_on,78,0,2,,,,,,,,1,,,58,0
256278,note_on,78,0,9,,,,,,,,8,,,46,0
256278,note_on,78,0,7,,,,,,,,6,,,70,0
256278,note_on,78,0,8,,,,,,,,7,,,58,0
256320,note_on,42,0,9,,,,,,,,8,,,38,105
256320,note_on,42,0,2,,,,,,,,1,,,50,105
256320,note_on,42,0,7,,,,,,,,6,,,62,105
256320,note_on,42,0,8,,,,,,,,7,,,50,105
256464,note_on,384,0,5,,,,,,,,4,,,80,0
256464,note_on,384,0,6,,,,,,,,5,,,77,0
256560,note_on,96,0,5,,,,,,,,4,,,80,105
256560,note_on,96,0,6,,,,,,,,5,,,77,105
256632,note_on,312,0,8,,,,,,,,7,,,50,0
256632,note_on,312,0,2,,,,,,,,1,,,50,0
256632,note_on,312,0,7,,,,,,,,6,,,62,0
256632,note_on,312,0,9,,,,,,,,8,,,38,0
256800,note_on,168,0,8,,,,,,,,7,,,58,105
256800,note_on,168,0,7,,,,,,,,6,,,70,105
256800,note_on,168,0,9,,,,,,,,8,,,46,105
256800,note_on,168,0,2,,,,,,,,1,,,58,105
256944,note_on,384,0,6,,,,,,,,5,,,77,0
256944,note_on,384,0,5,,,,,,,,4,,,80,0
256992,note_on,1152,0,1,,,,,,,,0,,,77,0
256992,note_on,0,0,1,,,,,,,,0,,,80,0
257034,note_on,234,0,7,,,,,,,,6,,,70,0
257034,note_on,234,0,2,,,,,,,,1,,,58,0
257034,note_on,234,0,8,,,,,,,,7,,,58,0
257034,note_on,234,0,9,,,,,,,,8,,,46,0
257040,note_on,96,0,6,,,,,,,,5,,,77,105
257040,note_on,96,0,5,,,,,,,,4,,,80,105
257160,note_on,126,0,7,,,,,,,,6,,,62,105
257160,note_on,126,0,9,,,,,,,,8,,,38,105
257160,note_on,126,0,8,,,,,,,,7,,,50,105
257160,note_on,126,0,2,,,,,,,,1,,,50,105
257232,note_on,192,0,6,,,,,,,,5,,,77,0
257232,note_on,192,0,5,,,,,,,,4,,,80,0
257238,note_on,78,0,7,,,,,,,,6,,,62,0
257238,note_on,78,0,9,,,,,,,,8,,,38,0
257238,note_on,78,0,2,,,,,,,,1,,,50,0
257238,note_on,78,0,8,,,,,,,,7,,,50,0
257280,note_on,42,0,9,,,,,,,,8,,,39,105
257280,note_on,288,0,1,,,,,,,,0,,,79,105
257280,note_on,42,0,8,,,,,,,,7,,,51,105
257280,note_on,42,0,2,,,,,,,,1,,,51,105
257280,note_on,48,0,5,,,,,,,,4,,,79,105
257280,note_on,48,0,6,,,,,,,,5,,,75,105
257280,note_on,0,0,1,,,,,,,,0,,,75,105
257280,note_on,42,0,7,,,,,,,,6,,,63,105
257472,note_on,192,0,6,,,,,,,,5,,,75,0
257472,note_on,192,0,5,,,,,,,,4,,,79,0
257520,note_on,48,0,6,,,,,,,,5,,,75,105
257520,note_on,48,0,5,,,,,,,,4,,,79,105
257592,note_on,312,0,2,,,,,,,,1,,,51,0
257592,note_on,312,0,7,,,,,,,,6,,,63,0
257592,note_on,312,0,8,,,,,,,,7,,,51,0
257592,note_on,312,0,9,,,,,,,,8,,,39,0
257760,note_on,168,0,9,,,,,,,,8,,,46,105
257760,note_on,168,0,2,,,,,,,,1,,,58,105
257760,note_on,168,0,8,,,,,,,,7,,,58,105
257760,note_on,168,0,7,,,,,,,,6,,,70,105
257904,note_on,384,0,6,,,,,,,,5,,,75,0
257904,note_on,384,0,5,,,,,,,,4,,,79,0
257994,note_on,234,0,7,,,,,,,,6,,,70,0
257994,note_on,234,0,8,,,,,,,,7,,,58,0
257994,note_on,234,0,2,,,,,,,,1,,,58,0
257994,note_on,234,0,9,,,,,,,,8,,,46,0
258000,note_on,96,0,6,,,,,,,,5,,,75,105
258000,note_on,96,0,5,,,,,,,,4,,,79,105
258048,note_on,768,0,1,,,,,,,,0,,,75,0
258048,note_on,0,0,1,,,,,,,,0,,,79,0
258120,note_on,126,0,9,,,,,,,,8,,,39,105
258120,note_on,126,0,7,,,,,,,,6,,,63,105
258120,note_on,126,0,2,,,,,,,,1,,,51,105
258120,note_on,126,0,8,,,,,,,,7,,,51,105
258192,note_on,192,0,5,,,,,,,,4,,,79,0
258192,note_on,192,0,6,,,,,,,,5,,,75,0
258198,note_on,78,0,8,,,,,,,,7,,,51,0
258198,note_on,78,0,2,,,,,,,,1,,,51,0
258198,note_on,78,0,7,,,,,,,,6,,,63,0
258198,note_on,78,0,9,,,,,,,,8,,,39,0
258240,note_on,48,0,6,,,,,,,,5,,,70,105
258240,note_on,42,0,7,,,,,,,,6,,,67,105
258240,note_on,42,0,8,,,,,,,,7,,,55,105
258240,note_on,192,0,1,,,,,,,,0,,,76,105
258240,note_on,42,0,9,,,,,,,,8,,,43,105
258240,note_on,0,0,1,,,,,,,,0,,,70,105
258240,note_on,42,0,2,,,,,,,,1,,,55,105
258240,note_on,48,0,5,,,,,,,,4,,,76,105
258432,note_on,192,0,6,,,,,,,,5,,,70,0
258432,note_on,192,0,5,,,,,,,,4,,,76,0
258480,note_on,48,0,5,,,,,,,,4,,,76,105
258480,note_on,48,0,6,,,,,,,,5,,,70,105
258552,note_on,312,0,7,,,,,,,,6,,,67,0
258552,note_on,312,0,2,,,,,,,,1,,,55,0
258552,note_on,312,0,8,,,,,,,,7,,,55,0
258552,note_on,312,0,9,,,,,,,,8,,,43,0
258720,note_on,168,0,2,,,,,,,,1,,,58,105
258720,note_on,168,0,9,,,,,,,,8,,,46,105
258720,note_on,168,0,8,,,,,,,,7,,,58,105
258720,note_on,168,0,7,,,,,,,,6,,,70,105
258816,note_on,3456,0,3,,,,,,,,2,,,58,0
258816,note_on,0,0,3,,,,,,,,2,,,70,0
258864,note_on,384,0,5,,,,,,,,4,,,76,0
258864,note_on,384,0,6,,,,,,,,5,,,70,0
258954,note_on,234,0,2,,,,,,,,1,,,58,0
258954,note_on,234,0,7,,,,,,,,6,,,70,0
258954,note_on,234,0,8,,,,,,,,7,,,58,0
258954,note_on,234,0,9,,,,,,,,8,,,46,0
258960,note_on,96,0,6,,,,,,,,5,,,70,105
258960,note_on,96,0,5,,,,,,,,4,,,76,105
259008,note_on,0,0,1,,,,,,,,0,,,76,0
259008,note_on,768,0,1,,,,,,,,0,,,70,0
259080,note_on,126,0,9,,,,,,,,8,,,43,105
259080,note_on,126,0,7,,,,,,,,6,,,67,105
259080,note_on,126,0,2,,,,,,,,1,,,55,105
259080,note_on,126,0,8,,,,,,,,7,,,55,105
259152,note_on,192,0,5,,,,,,,,4,,,76,0
259152,note_on,192,0,6,,,,,,,,5,,,70,0
259158,note_on,78,0,9,,,,,,,,8,,,43,0
259158,note_on,78,0,8,,,,,,,,7,,,55,0
259158,note_on,78,0,2,,,,,,,,1,,,55,0
259158,note_on,78,0,7,,,,,,,,6,,,67,0
259200,note_on,42,0,8,,,,,,,,7,,,57,105
259200,note_on,0,0,3,,,,,,,,2,,,65,105
259200,note_on,0,0,1,,,,,,,,0,,,72,105
259200,note_on,384,0,3,,,,,,,,2,,,72,105
259200,note_on,42,0,2,,,,,,,,1,,,57,105
259200,note_on,42,0,7,,,,,,,,6,,,69,105
259200,note_on,48,0,5,,,,,,,,4,,,77,105
259200,note_on,48,0,6,,,,,,,,5,,,72,105
259200,note_on,42,0,9,,,,,,,,8,,,45,105
259200,note_on,192,0,1,,,,,,,,0,,,77,105
259392,note_on,192,0,5,,,,,,,,4,,,77,0
259392,note_on,192,0,6,,,,,,,,5,,,72,0
259440,note_on,48,0,5,,,,,,,,4,,,77,105
259440,note_on,48,0,6,,,,,,,,5,,,72,105
259512,note_on,312,0,7,,,,,,,,6,,,69,0
259512,note_on,312,0,9,,,,,,,,8,,,45,0
259512,note_on,312,0,2,,,,,,,,1,,,57,0
259512,note_on,312,0,8,,,,,,,,7,,,57,0
259680,note_on,168,0,8,,,,,,,,7,,,60,105
259680,note_on,168,0,7,,,,,,,,6,,,72,105
259680,note_on,168,0,2,,,,,,,,1,,,60,105
259680,note_on,168,0,9,,,,,,,,8,,,48,105
259824,note_on,384,0,6,,,,,,,,5,,,72,0
259824,note_on,384,0,5,,,,,,,,4,,,77,0
259914,note_on,234,0,7,,,,,,,,6,,,72,0
259914,note_on,234,0,9,,,,,,,,8,,,48,0
259914,note_on,234,0,8,,,,,,,,7,,,60,0
259914,note_on,234,0,2,,,,,,,,1,,,60,0
259920,note_on,96,0,6,,,,,,,,5,,,72,105
259920,note_on,96,0,5,,,,,,,,4,,,77,105
260040,note_on,126,0,2,,,,,,,,1,,,57,105
260040,note_on,126,0,9,,,,,,,,8,,,45,105
260040,note_on,126,0,7,,,,,,,,6,,,69,105
260040,note_on,126,0,8,,,,,,,,7,,,57,105
260112,note_on,192,0,6,,,,,,,,5,,,72,0
260112,note_on,192,0,5,,,,,,,,4,,,77,0
260118,note_on,78,0,8,,,,,,,,7,,,57,0
260118,note_on,78,0,7,,,,,,,,6,,,69,0
260118,note_on,78,0,9,,,,,,,,8,,,45,0
260118,note_on,78,0,2,,,,,,,,1,,,57,0
260160,note_on,42,0,2,,,,,,,,1,,,53,105
260160,note_on,42,0,7,,,,,,,,6,,,65,105
260160,note_on,48,0,5,,,,,,,,4,,,87,105
260160,note_on,0,0,1,,,,,,,,0,,,75,105
260160,note_on,0,0,1,,,,,,,,0,,,69,105
260160,note_on,0,0,1,,,,,,,,0,,,77,0
260160,note_on,960,0,1,,,,,,,,0,,,72,0
260160,note_on,42,0,9,,,,,,,,8,,,41,105
260160,note_on,48,0,6,,,,,,,,5,,,84,105
260160,note_on,42,0,8,,,,,,,,7,,,53,105
260352,note_on,192,0,5,,,,,,,,4,,,87,0
260352,note_on,192,0,6,,,,,,,,5,,,84,0
260400,note_on,48,0,6,,,,,,,,5,,,84,105
260400,note_on,48,0,5,,,,,,,,4,,,87,105
260472,note_on,312,0,7,,,,,,,,6,,,65,0
260472,note_on,312,0,2,,,,,,,,1,,,53,0
260472,note_on,312,0,8,,,,,,,,7,,,53,0
260472,note_on,312,0,9,,,,,,,,8,,,41,0
260640,note_on,168,0,9,,,,,,,,8,,,45,105
260640,note_on,168,0,2,,,,,,,,1,,,57,105
260640,note_on,168,0,8,,,,,,,,7,,,57,105
260640,note_on,168,0,7,,,,,,,,6,,,69,105
260736,note_on,0,0,3,,,,,,,,2,,,72,0
260736,note_on,1536,0,3,,,,,,,,2,,,65,0
260784,note_on,384,0,6,,,,,,,,5,,,84,0
260784,note_on,384,0,5,,,,,,,,4,,,87,0
260874,note_on,234,0,7,,,,,,,,6,,,69,0
260874,note_on,234,0,9,,,,,,,,8,,,45,0
260874,note_on,234,0,8,,,,,,,,7,,,57,0
260874,note_on,234,0,2,,,,,,,,1,,,57,0
260880,note_on,96,0,5,,,,,,,,4,,,87,105
260880,note_on,96,0,6,,,,,,,,5,,,84,105
260928,note_on,0,0,1,,,,,,,,0,,,69,0
260928,note_on,768,0,1,,,,,,,,0,,,75,0
261000,note_on,126,0,8,,,,,,,,7,,,53,105
261000,note_on,126,0,7,,,,,,,,6,,,65,105
261000,note_on,126,0,9,,,,,,,,8,,,41,105
261000,note_on,126,0,2,,,,,,,,1,,,53,105
261072,note_on,192,0,5,,,,,,,,4,,,87,0
261072,note_on,192,0,6,,,,,,,,5,,,84,0
261078,note_on,78,0,8,,,,,,,,7,,,53,0
261078,note_on,78,0,7,,,,,,,,6,,,65,0
261078,note_on,78,0,2,,,,,,,,1,,,53,0
261078,note_on,78,0,9,,,,,,,,8,,,41,0
261120,note_on,42,0,2,,,,,,,,1,,,55,105
261120,note_on,42,0,9,,,,,,,,8,,,43,105
261120,note_on,42,0,8,,,,,,,,7,,,55,105
261120,note_on,0,0,1,,,,,,,,0,,,70,105
261120,note_on,48,0,5,,,,,,,,4,,,86,105
261120,note_on,192,0,1,,,,,,,,0,,,74,105
261120,note_on,42,0,7,,,,,,,,6,,,67,105
261120,note_on,384,0,3,,,,,,,,2,,,58,105
261120,note_on,0,0,3,,,,,,,,2,,,70,105
261120,note_on,48,0,6,,,,,,,,5,,,82,105
261408,note_on,288,0,6,,,,,,,,5,,,82,0
261408,note_on,288,0,5,,,,,,,,4,,,86,0
261408,note_on,0,0,1,,,,,,,,0,,,74,0
261408,note_on,288,0,1,,,,,,,,0,,,70,0
261432,note_on,312,0,2,,,,,,,,1,,,55,0
261432,note_on,312,0,7,,,,,,,,6,,,67,0
261432,note_on,312,0,8,,,,,,,,7,,,55,0
261432,note_on,312,0,3,,,,,,,,2,,,70,0
261432,note_on,0,0,3,,,,,,,,2,,,58,0
261432,note_on,312,0,9,,,,,,,,8,,,43,0
261600,note_on,0,0,3,,,,,,,,2,,,58,105
261600,note_on,192,0,6,,,,,,,,5,,,82,105
261600,note_on,0,0,1,,,,,,,,0,,,82,105
261600,note_on,168,0,8,,,,,,,,7,,,50,105
261600,note_on,168,0,9,,,,,,,,8,,,38,105
261600,note_on,192,0,5,,,,,,,,4,,,82,105
261600,note_on,168,0,7,,,,,,,,6,,,62,105
261600,note_on,168,0,3,,,,,,,,2,,,70,105
261600,note_on,192,0,1,,,,,,,,0,,,74,105
261600,note_on,168,0,2,,,,,,,,1,,,50,105
261888,note_on,288,0,1,,,,,,,,0,,,74,0
261888,note_on,288,0,6,,,,,,,,5,,,82,0
261888,note_on,288,0,5,,,,,,,,4,,,82,0
261912,note_on,312,0,7,,,,,,,,6,,,62,0
261912,note_on,312,0,2,,,,,,,,1,,,50,0
261912,note_on,312,0,9,,,,,,,,8,,,38,0
261912,note_on,312,0,8,,,,,,,,7,,,50,0
261912,note_on,312,0,3,,,,,,,,2,,,58,0
261912,note_on,0,0,3,,,,,,,,2,,,70,0
262080,note_on,192,0,6,,,,,,,,5,,,72,105
262080,note_on,168,0,7,,,,,,,,6,,,63,105
262080,note_on,168,0,2,,,,,,,,1,,,51,105
262080,note_on,192,0,5,,,,,,,,4,,,72,105
262080,note_on,168,0,9,,,,,,,,8,,,39,105
262080,note_on,168,0,8,,,,,,,,7,,,51,105
262080,note_on,0,0,3,,,,,,,,2,,,70,105
262080,note_on,192,0,1,,,,,,,,0,,,72,105
262080,note_on,168,0,3,,,,,,,,2,,,58,105
262368,note_on,288,0,1,,,,,,,,0,,,82,0
262368,note_on,288,0,5,,,,,,,,4,,,72,0
262368,note_on,288,0,6,,,,,,,,5,,,72,0
262392,note_on,0,0,3,,,,,,,,2,,,58,0
262392,note_on,312,0,3,,,,,,,,2,,,70,0
262392,note_on,312,0,7,,,,,,,,6,,,63,0
262392,note_on,312,0,8,,,,,,,,7,,,51,0
262392,note_on,312,0,2,,,,,,,,1,,,51,0
262392,note_on,312,0,9,,,,,,,,8,,,39,0
262560,note_on,192,0,6,,,,,,,,5,,,81,105
262560,note_on,192,0,5,,,,,,,,4,,,81,105
262560,note_on,168,0,7,,,,,,,,6,,,65,105
262560,note_on,192,0,1,,,,,,,,0,,,81,105
262560,note_on,168,0,8,,,,,,,,7,,,53,105
262560,note_on,168,0,2,,,,,,,,1,,,53,105
262560,note_on,168,0,3,,,,,,,,2,,,65,105
262560,note_on,168,0,9,,,,,,,,8,,,41,105
262848,note_on,288,0,5,,,,,,,,4,,,81,0
262848,note_on,288,0,1,,,,,,,,0,,,81,0
262848,note_on,0,0,1,,,,,,,,0,,,72,0
262848,note_on,288,0,6,,,,,,,,5,,,81,0
262872,note_on,312,0,8,,,,,,,,7,,,53,0
262872,note_on,312,0,9,,,,,,,,8,,,41,0
262872,note_on,312,0,2,,,,,,,,1,,,53,0
262872,note_on,312,0,7,,,,,,,,6,,,65,0
262872,note_on,312,0,3,,,,,,,,2,,,65,0
263040,note_on,0,0,1,,,,,,,,0,,,70,105
263040,note_on,192,0,1,,,,,,,,0,,,82,105
263040,note_on,192,0,6,,,,,,,,5,,,82,105
263040,note_on,168,0,8,,,,,,,,7,,,58,105
263040,note_on,168,0,2,,,,,,,,1,,,58,105
263040,note_on,192,0,5,,,,,,,,4,,,82,105
263040,note_on,168,0,9,,,,,,,,8,,,46,105
263040,note_on,0,0,3,,,,,,,,2,,,62,105
263040,note_on,168,0,7,,,,,,,,6,,,70,105
263040,note_on,168,0,3,,,,,,,,2,,,58,105
263352,note_on,312,0,7,,,,,,,,6,,,70,0
263352,note_on,312,0,2,,,,,,,,1,,,58,0
263352,note_on,312,0,8,,,,,,,,7,,,58,0
263352,note_on,312,0,9,,,,,,,,8,,,46,0
263352,note_on,312,0,5,,,,,,,,4,,,82,0
263352,note_on,312,0,6,,,,,,,,5,,,82,0
263424,note_on,384,0,3,,,,,,,,2,,,62,0
263424,note_on,0,0,3,,,,,,,,2,,,58,0
263424,note_on,0,0,1,,,,,,,,0,,,82,0
263424,note_on,384,0,1,,,,,,,,0,,,70,0
263520,note_on,168,0,9,,,,,,,,8,,,34,105
263520,note_on,168,0,7,,,,,,,,6,,,58,105
263520,note_on,168,0,6,,,,,,,,5,,,58,105
263520,note_on,168,0,8,,,,,,,,7,,,46,105
263520,note_on,168,0,5,,,,,,,,4,,,58,105
263520,note_on,168,0,2,,,,,,,,1,,,46,105
263832,note_on,312,0,5,,,,,,,,4,,,58,0
263832,note_on,312,0,7,,,,,,,,6,,,58,0
263832,note_on,312,0,8,,,,,,,,7,,,46,0
263832,note_on,312,0,9,,,,,,,,8,,,34,0
263832,note_on,312,0,6,,,,,,,,5,,,58,0
263832,note_on,312,0,2,,,,,,,,1,,,46,0
264000,note_on,168,0,2,,,,,,,,1,,,62,105
264000,note_on,168,0,7,,,,,,,,6,,,74,105
264000,note_on,168,0,9,,,,,,,,8,,,50,105
264000,note_on,168,0,6,,,,,,,,5,,,74,105
264000,note_on,168,0,5,,,,,,,,4,,,74,105
264000,note_on,576,0,1,,,,,,,,0,,,74,105
264000,note_on,168,0,8,,,,,,,,7,,,62,105
264576,note_on,576,0,8,,,,,,,,7,,,62,0
264576,note_on,576,0,6,,,,,,,,5,,,74,0
264576,note_on,576,0,9,,,,,,,,8,,,50,0
264576,note_on,576,0,1,,,,,,,,0,,,74,0
264576,note_on,576,0,7,,,,,,,,6,,,74,0
264576,note_on,576,0,2,,,,,,,,1,,,62,0
264576,note_on,576,0,5,,,,,,,,4,,,74,0
264720,note_on,144,0,5,,,,,,,,4,,,72,105
264720,note_on,144,0,7,,,,,,,,6,,,72,105
264720,note_on,144,0,8,,,,,,,,7,,,60,105
264720,note_on,144,0,6,,,,,,,,5,,,72,105
264720,note_on,144,0,2,,,,,,,,1,,,60,105
264720,note_on,144,0,9,,,,,,,,8,,,48,105
264720,note_on,144,0,1,,,,,,,,0,,,72,105
264912,note_on,192,0,8,,,,,,,,7,,,60,0
264912,note_on,192,0,2,,,,,,,,1,,,60,0
264912,note_on,192,0,5,,,,,,,,4,,,72,0
264912,note_on,192,0,1,,,,,,,,0,,,72,0
264912,note_on,192,0,6,,,,,,,,5,,,72,0
264912,note_on,192,0,9,,,,,,,,8,,,48,0
264912,note_on,192,0,7,,,,,,,,6,,,72,0
264960,note_on,48,0,9,,,,,,,,8,,,46,105
264960,note_on,48,0,1,,,,,,,,0,,,70,105
264960,note_on,48,0,8,,,,,,,,7,,,58,105
264960,note_on,48,0,6,,,,,,,,5,,,70,105
264960,note_on,48,0,2,,,,,,,,1,,,58,105
264960,note_on,48,0,5,,,,,,,,4,,,70,105
264960,note_on,48,0,7,,,,,,,,6,,,70,105
265536,note_on,576,0,7,,,,,,,,6,,,70,0
265536,note_on,576,0,5,,,,,,,,4,,,70,0
265536,note_on,576,0,8,,,,,,,,7,,,58,0
265536,note_on,576,0,2,,,,,,,,1,,,58,0
265536,note_on,576,0,6,,,,,,,,5,,,70,0
265536,note_on,576,0,1,,,,,,,,0,,,70,0
265536,note_on,576,0,9,,,,,,,,8,,,46,0
265680,note_on,144,0,9,,,,,,,,8,,,45,105
265680,note_on,144,0,2,,,,,,,,1,,,57,105
265680,note_on,144,0,7,,,,,,,,6,,,69,105
265680,note_on,144,0,6,,,,,,,,5,,,69,105
265680,note_on,144,0,8,,,,,,,,7,,,57,105
265680,note_on,144,0,1,,,,,,,,0,,,69,105
265680,note_on,144,0,5,,,,,,,,4,,,69,105
265872,note_on,192,0,6,,,,,,,,5,,,69,0
265872,note_on,192,0,9,,,,,,,,8,,,45,0
265872,note_on,192,0,5,,,,,,,,4,,,69,0
265872,note_on,192,0,1,,,,,,,,0,,,69,0
265872,note_on,192,0,2,,,,,,,,1,,,57,0
265872,note_on,192,0,7,,,,,,,,6,,,69,0
265872,note_on,192,0,8,,,,,,,,7,,,57,0
265920,note_on,48,0,8,,,,,,,,7,,,55,105
265920,note_on,48,0,1,,,,,,,,0,,,67,105
265920,note_on,48,0,9,,,,,,,,8,,,43,105
265920,note_on,48,0,5,,,,,,,,4,,,67,105
265920,note_on,48,0,2,,,,,,,,1,,,55,105
265920,note_on,48,0,7,,,,,,,,6,,,67,105
265920,note_on,48,0,6,,,,,,,,5,,,67,105
266496,note_on,576,0,5,,,,,,,,4,,,67,0
266496,note_on,576,0,8,,,,,,,,7,,,55,0
266496,note_on,576,0,6,,,,,,,,5,,,67,0
266496,note_on,576,0,2,,,,,,,,1,,,55,0
266496,note_on,576,0,1,,,,,,,,0,,,67,0
266496,note_on,576,0,9,,,,,,,,8,,,43,0
266496,note_on,576,0,7,,,,,,,,6,,,67,0
266640,note_on,144,0,6,,,,,,,,5,,,65,105
266640,note_on,144,0,2,,,,,,,,1,,,53,105
266640,note_on,144,0,7,,,,,,,,6,,,65,105
266640,note_on,144,0,8,,,,,,,,7,,,53,105
266640,note_on,144,0,1,,,,,,,,0,,,65,105
266640,note_on,144,0,5,,,,,,,,4,,,65,105
266640,note_on,144,0,9,,,,,,,,8,,,41,105
266832,note_on,192,0,9,,,,,,,,8,,,41,0
266832,note_on,192,0,8,,,,,,,,7,,,53,0
266832,note_on,192,0,6,,,,,,,,5,,,65,0
266832,note_on,192,0,2,,,,,,,,1,,,53,0
266832,note_on,192,0,5,,,,,,,,4,,,65,0
266832,note_on,192,0,7,,,,,,,,6,,,65,0
266832,note_on,192,0,1,,,,,,,,0,,,65,0
266880,note_on,48,0,2,,,,,,,,1,,,51,105
266880,note_on,48,0,7,,,,,,,,6,,,63,105
266880,note_on,48,0,5,,,,,,,,4,,,63,105
266880,note_on,48,0,1,,,,,,,,0,,,63,105
266880,note_on,48,0,6,,,,,,,,5,,,63,105
266880,note_on,48,0,9,,,,,,,,8,,,39,105
266880,note_on,48,0,8,,,,,,,,7,,,51,105
267192,note_on,312,0,5,,,,,,,,4,,,63,0
267192,note_on,312,0,6,,,,,,,,5,,,63,0
267264,note_on,384,0,7,,,,,,,,6,,,63,0
267264,note_on,384,0,1,,,,,,,,0,,,63,0
267264,note_on,384,0,2,,,,,,,,1,,,51,0
267264,note_on,384,0,9,,,,,,,,8,,,39,0
267264,note_on,384,0,8,,,,,,,,7,,,51,0
267360,note_on,96,0,9,,,,,,,,8,,,51,105
267360,note_on,96,0,2,,,,,,,,1,,,63,105
267360,note_on,96,0,8,,,,,,,,7,,,63,92
267360,note_on,96,0,7,,,,,,,,6,,,63,92
267360,note_on,168,0,6,,,,,,,,5,,,65,116
267360,note_on,168,0,5,,,,,,,,4,,,69,116
267552,note_on,192,0,9,,,,,,,,8,,,51,0
267552,note_on,192,0,5,,,,,,,,4,,,69,0
267552,note_on,192,0,6,,,,,,,,5,,,65,0
267552,note_on,192,0,2,,,,,,,,1,,,63,0
267552,note_on,192,0,7,,,,,,,,6,,,63,0
267552,note_on,192,0,8,,,,,,,,7,,,63,0
267600,note_on,48,0,8,,,,,,,,7,,,62,92
267600,note_on,48,0,2,,,,,,,,1,,,62,105
267600,note_on,48,0,6,,,,,,,,5,,,67,116
267600,note_on,48,0,5,,,,,,,,4,,,70,116
267600,note_on,48,0,7,,,,,,,,6,,,62,92
267600,note_on,48,0,9,,,,,,,,8,,,50,105
267792,note_on,192,0,5,,,,,,,,4,,,70,0
267792,note_on,192,0,6,,,,,,,,5,,,67,0
267792,note_on,192,0,9,,,,,,,,8,,,50,0
267792,note_on,192,0,8,,,,,,,,7,,,62,0
267792,note_on,192,0,7,,,,,,,,6,,,62,0
267792,note_on,192,0,2,,,,,,,,1,,,62,0
267840,note_on,48,0,5,,,,,,,,4,,,72,116
267840,note_on,48,0,7,,,,,,,,6,,,60,92
267840,note_on,48,0,2,,,,,,,,1,,,60,105
267840,note_on,48,0,9,,,,,,,,8,,,48,105
267840,note_on,48,0,6,,,,,,,,5,,,69,116
267840,note_on,48,0,8,,,,,,,,7,,,60,92
268032,note_on,192,0,5,,,,,,,,4,,,72,0
268032,note_on,192,0,9,,,,,,,,8,,,48,0
268032,note_on,192,0,6,,,,,,,,5,,,69,0
268032,note_on,192,0,8,,,,,,,,7,,,60,0
268032,note_on,192,0,2,,,,,,,,1,,,60,0
268032,note_on,192,0,7,,,,,,,,6,,,60,0
268080,note_on,48,0,2,,,,,,,,1,,,58,105
268080,note_on,48,0,6,,,,,,,,5,,,70,116
268080,note_on,48,0,8,,,,,,,,7,,,58,92
268080,note_on,48,0,7,,,,,,,,6,,,58,92
268080,note_on,48,0,9,,,,,,,,8,,,46,105
268080,note_on,48,0,5,,,,,,,,4,,,74,116
268272,note_on,192,0,5,,,,,,,,4,,,74,0
268272,note_on,192,0,9,,,,,,,,8,,,46,0
268272,note_on,192,0,7,,,,,,,,6,,,58,0
268272,note_on,192,0,8,,,,,,,,7,,,58,0
268272,note_on,192,0,6,,,,,,,,5,,,70,0
268272,note_on,192,0,2,,,,,,,,1,,,58,0
268320,note_on,48,0,5,,,,,,,,4,,,75,116
268320,note_on,48,0,7,,,,,,,,6,,,57,92
268320,note_on,48,0,9,,,,,,,,8,,,45,105
268320,note_on,48,0,8,,,,,,,,7,,,57,92
268320,note_on,48,0,2,,,,,,,,1,,,57,105
268320,note_on,48,0,6,,,,,,,,5,,,72,116
268512,note_on,192,0,6,,,,,,,,5,,,72,0
268512,note_on,192,0,8,,,,,,,,7,,,57,0
268512,note_on,192,0,9,,,,,,,,8,,,45,0
268512,note_on,192,0,5,,,,,,,,4,,,75,0
268512,note_on,192,0,2,,,,,,,,1,,,57,0
268512,note_on,192,0,7,,,,,,,,6,,,57,0
268560,note_on,48,0,5,,,,,,,,4,,,74,116
268560,note_on,48,0,8,,,,,,,,7,,,58,92
268560,note_on,48,0,6,,,,,,,,5,,,70,116
268560,note_on,48,0,9,,,,,,,,8,,,46,105
268560,note_on,48,0,7,,,,,,,,6,,,58,92
268560,note_on,48,0,2,,,,,,,,1,,,58,105
268752,note_on,192,0,7,,,,,,,,6,,,58,0
268752,note_on,192,0,5,,,,,,,,4,,,74,0
268752,note_on,192,0,6,,,,,,,,5,,,70,0
268752,note_on,192,0,8,,,,,,,,7,,,58,0
268752,note_on,192,0,9,,,,,,,,8,,,46,0
268752,note_on,192,0,2,,,,,,,,1,,,58,0
268800,note_on,0,0,1,,,,,,,,0,,,72,105
268800,note_on,1536,0,1,,,,,,,,0,,,75,105
268800,note_on,48,0,7,,,,,,,,6,,,57,92
268800,note_on,48,0,6,,,,,,,,5,,,72,116
268800,note_on,48,0,9,,,,,,,,8,,,45,105
268800,note_on,48,0,2,,,,,,,,1,,,57,105
268800,note_on,48,0,8,,,,,,,,7,,,57,92
268800,note_on,0,0,3,,,,,,,,2,,,65,105
268800,note_on,48,0,5,,,,,,,,4,,,75,116
268800,note_on,5376,0,3,,,,,,,,2,,,65,105
269112,note_on,312,0,5,,,,,,,,4,,,75,0
269112,note_on,312,0,6,,,,,,,,5,,,72,0
269184,note_on,0,0,3,,,,,,,,2,,,65,0
269184,note_on,384,0,7,,,,,,,,6,,,57,0
269184,note_on,384,0,3,,,,,,,,2,,,65,0
269184,note_on,384,0,8,,,,,,,,7,,,57,0
269184,note_on,384,0,2,,,,,,,,1,,,57,0
269184,note_on,384,0,9,,,,,,,,8,,,45,0
269184,note_on,384,0,1,,,,,,,,0,,,72,0
269184,note_on,0,0,1,,,,,,,,0,,,75,0
269280,note_on,96,0,9,,,,,,,,8,,,51,105
269280,note_on,168,0,6,,,,,,,,5,,,65,116
269280,note_on,96,0,8,,,,,,,,7,,,63,92
269280,note_on,96,0,2,,,,,,,,1,,,63,105
269280,note_on,168,0,5,,,,,,,,4,,,69,116
269280,note_on,96,0,7,,,,,,,,6,,,63,92
269472,note_on,192,0,7,,,,,,,,6,,,63,0
269472,note_on,192,0,8,,,,,,,,7,,,63,0
269472,note_on,192,0,5,,,,,,,,4,,,69,0
269472,note_on,192,0,6,,,,,,,,5,,,65,0
269472,note_on,192,0,9,,,,,,,,8,,,51,0
269472,note_on,192,0,2,,,,,,,,1,,,63,0
269520,note_on,48,0,9,,,,,,,,8,,,50,105
269520,note_on,48,0,7,,,,,,,,6,,,62,92
269520,note_on,48,0,8,,,,,,,,7,,,62,92
269520,note_on,48,0,5,,,,,,,,4,,,70,116
269520,note_on,48,0,6,,,,,,,,5,,,67,116
269520,note_on,48,0,2,,,,,,,,1,,,62,105
269712,note_on,192,0,6,,,,,,,,5,,,67,0
269712,note_on,192,0,8,,,,,,,,7,,,62,0
269712,note_on,192,0,2,,,,,,,,1,,,62,0
269712,note_on,192,0,7,,,,,,,,6,,,62,0
269712,note_on,192,0,5,,,,,,,,4,,,70,0
269712,note_on,192,0,9,,,,,,,,8,,,50,0
269760,note_on,48,0,6,,,,,,,,5,,,69,116
269760,note_on,48,0,8,,,,,,,,7,,,60,92
269760,note_on,48,0,9,,,,,,,,8,,,48,105
269760,note_on,48,0,7,,,,,,,,6,,,60,92
269760,note_on,48,0,5,,,,,,,,4,,,72,116
269760,note_on,48,0,2,,,,,,,,1,,,60,105
269952,note_on,192,0,2,,,,,,,,1,,,60,0
269952,note_on,192,0,6,,,,,,,,5,,,69,0
269952,note_on,192,0,5,,,,,,,,4,,,72,0
269952,note_on,192,0,8,,,,,,,,7,,,60,0
269952,note_on,192,0,9,,,,,,,,8,,,48,0
269952,note_on,192,0,7,,,,,,,,6,,,60,0
270000,note_on,48,0,5,,,,,,,,4,,,74,116
270000,note_on,48,0,2,,,,,,,,1,,,58,105
270000,note_on,48,0,6,,,,,,,,5,,,70,116
270000,note_on,48,0,8,,,,,,,,7,,,58,92
270000,note_on,48,0,9,,,,,,,,8,,,46,105
270000,note_on,48,0,7,,,,,,,,6,,,58,92
270192,note_on,192,0,2,,,,,,,,1,,,58,0
270192,note_on,192,0,6,,,,,,,,5,,,70,0
270192,note_on,192,0,7,,,,,,,,6,,,58,0
270192,note_on,192,0,5,,,,,,,,4,,,74,0
270192,note_on,192,0,8,,,,,,,,7,,,58,0
270192,note_on,192,0,9,,,,,,,,8,,,46,0
270240,note_on,48,0,5,,,,,,,,4,,,75,116
270240,note_on,48,0,2,,,,,,,,1,,,57,105
270240,note_on,48,0,6,,,,,,,,5,,,72,116
270240,note_on,48,0,8,,,,,,,,7,,,57,92
270240,note_on,48,0,9,,,,,,,,8,,,45,105
270240,note_on,48,0,7,,,,,,,,6,,,57,92
270432,note_on,192,0,5,,,,,,,,4,,,75,0
270432,note_on,192,0,2,,,,,,,,1,,,57,0
270432,note_on,192,0,7,,,,,,,,6,,,57,0
270432,note_on,192,0,9,,,,,,,,8,,,45,0
270432,note_on,192,0,6,,,,,,,,5,,,72,0
270432,note_on,192,0,8,,,,,,,,7,,,57,0
270480,note_on,48,0,8,,,,,,,,7,,,58,92
270480,note_on,48,0,9,,,,,,,,8,,,46,105
270480,note_on,48,0,7,,,,,,,,6,,,58,92
270480,note_on,48,0,6,,,,,,,,5,,,70,116
270480,note_on,48,0,2,,,,,,,,1,,,58,105
270480,note_on,48,0,5,,,,,,,,4,,,74,116
270672,note_on,192,0,8,,,,,,,,7,,,58,0
270672,note_on,192,0,9,,,,,,,,8,,,46,0
270672,note_on,192,0,5,,,,,,,,4,,,74,0
270672,note_on,192,0,2,,,,,,,,1,,,58,0
270672,note_on,192,0,7,,,,,,,,6,,,58,0
270672,note_on,192,0,6,,,,,,,,5,,,70,0
270720,note_on,0,0,3,,,,,,,,2,,,65,105
270720,note_on,1536,0,3,,,,,,,,2,,,65,105
270720,note_on,48,0,9,,,,,,,,8,,,45,105
270720,note_on,48,0,6,,,,,,,,5,,,72,116
270720,note_on,48,0,7,,,,,,,,6,,,57,92
270720,note_on,48,0,2,,,,,,,,1,,,57,105
270720,note_on,48,0,8,,,,,,,,7,,,57,92
270720,note_on,0,0,1,,,,,,,,0,,,72,105
270720,note_on,48,0,5,,,,,,,,4,,,75,116
270720,note_on,1536,0,1,,,,,,,,0,,,75,105
271032,note_on,312,0,6,,,,,,,,5,,,72,0
271032,note_on,312,0,5,,,,,,,,4,,,75,0
271104,note_on,384,0,2,,,,,,,,1,,,57,0
271104,note_on,384,0,8,,,,,,,,7,,,57,0
271104,note_on,384,0,3,,,,,,,,2,,,65,0
271104,note_on,0,0,3,,,,,,,,2,,,65,0
271104,note_on,0,0,1,,,,,,,,0,,,75,0
271104,note_on,384,0,9,,,,,,,,8,,,45,0
271104,note_on,384,0,1,,,,,,,,0,,,72,0
271104,note_on,384,0,7,,,,,,,,6,,,57,0
271200,note_on,96,0,9,,,,,,,,8,,,51,105
271200,note_on,168,0,5,,,,,,,,4,,,69,116
271200,note_on,96,0,8,,,,,,,,7,,,63,92
271200,note_on,96,0,2,,,,,,,,1,,,63,105
271200,note_on,168,0,6,,,,,,,,5,,,65,116
271200,note_on,96,0,7,,,,,,,,6,,,63,92
271392,note_on,192,0,8,,,,,,,,7,,,63,0
271392,note_on,192,0,2,,,,,,,,1,,,63,0
271392,note_on,192,0,5,,,,,,,,4,,,69,0
271392,note_on,192,0,6,,,,,,,,5,,,65,0
271392,note_on,192,0,7,,,,,,,,6,,,63,0
271392,note_on,192,0,9,,,,,,,,8,,,51,0
271440,note_on,48,0,5,,,,,,,,4,,,70,116
271440,note_on,48,0,8,,,,,,,,7,,,62,92
271440,note_on,48,0,7,,,,,,,,6,,,62,92
271440,note_on,48,0,9,,,,,,,,8,,,50,105
271440,note_on,48,0,6,,,,,,,,5,,,67,116
271440,note_on,48,0,2,,,,,,,,1,,,62,105
271632,note_on,192,0,5,,,,,,,,4,,,70,0
271632,note_on,192,0,7,,,,,,,,6,,,62,0
271632,note_on,192,0,2,,,,,,,,1,,,62,0
271632,note_on,192,0,8,,,,,,,,7,,,62,0
271632,note_on,192,0,6,,,,,,,,5,,,67,0
271632,note_on,192,0,9,,,,,,,,8,,,50,0
271680,note_on,48,0,9,,,,,,,,8,,,48,105
271680,note_on,48,0,5,,,,,,,,4,,,72,116
271680,note_on,48,0,7,,,,,,,,6,,,60,92
271680,note_on,48,0,2,,,,,,,,1,,,60,105
271680,note_on,48,0,8,,,,,,,,7,,,60,92
271680,note_on,48,0,6,,,,,,,,5,,,69,116
271872,note_on,192,0,5,,,,,,,,4,,,72,0
271872,note_on,192,0,8,,,,,,,,7,,,60,0
271872,note_on,192,0,2,,,,,,,,1,,,60,0
271872,note_on,192,0,6,,,,,,,,5,,,69,0
271872,note_on,192,0,7,,,,,,,,6,,,60,0
271872,note_on,192,0,9,,,,,,,,8,,,48,0
271920,note_on,48,0,8,,,,,,,,7,,,58,92
271920,note_on,48,0,2,,,,,,,,1,,,58,105
271920,note_on,48,0,7,,,,,,,,6,,,58,92
271920,note_on,48,0,9,,,,,,,,8,,,46,105
271920,note_on,48,0,5,,,,,,,,4,,,74,116
271920,note_on,48,0,6,,,,,,,,5,,,70,116
272112,note_on,192,0,2,,,,,,,,1,,,58,0
272112,note_on,192,0,7,,,,,,,,6,,,58,0
272112,note_on,192,0,6,,,,,,,,5,,,70,0
272112,note_on,192,0,9,,,,,,,,8,,,46,0
272112,note_on,192,0,5,,,,,,,,4,,,74,0
272112,note_on,192,0,8,,,,,,,,7,,,58,0
272160,note_on,48,0,7,,,,,,,,6,,,57,92
272160,note_on,48,0,6,,,,,,,,5,,,72,116
272160,note_on,48,0,2,,,,,,,,1,,,57,105
272160,note_on,48,0,5,,,,,,,,4,,,75,116
272160,note_on,48,0,8,,,,,,,,7,,,57,92
272160,note_on,48,0,9,,,,,,,,8,,,45,105
272352,note_on,192,0,2,,,,,,,,1,,,57,0
272352,note_on,192,0,9,,,,,,,,8,,,45,0
272352,note_on,192,0,5,,,,,,,,4,,,75,0
272352,note_on,192,0,7,,,,,,,,6,,,57,0
272352,note_on,192,0,8,,,,,,,,7,,,57,0
272352,note_on,192,0,6,,,,,,,,5,,,72,0
272400,note_on,48,0,7,,,,,,,,6,,,58,92
272400,note_on,48,0,5,,,,,,,,4,,,74,116
272400,note_on,48,0,9,,,,,,,,8,,,46,105
272400,note_on,48,0,2,,,,,,,,1,,,58,105
272400,note_on,48,0,8,,,,,,,,7,,,58,92
272400,note_on,48,0,6,,,,,,,,5,,,70,116
272592,note_on,192,0,7,,,,,,,,6,,,58,0
272592,note_on,192,0,9,,,,,,,,8,,,46,0
272592,note_on,192,0,6,,,,,,,,5,,,70,0
272592,note_on,192,0,8,,,,,,,,7,,,58,0
272592,note_on,192,0,5,,,,,,,,4,,,74,0
272592,note_on,192,0,2,,,,,,,,1,,,58,0
272640,note_on,48,0,2,,,,,,,,1,,,57,105
272640,note_on,1536,0,1,,,,,,,,0,,,72,105
272640,note_on,0,0,1,,,,,,,,0,,,75,105
272640,note_on,48,0,5,,,,,,,,4,,,75,116
272640,note_on,0,0,3,,,,,,,,2,,,65,105
272640,note_on,1536,0,3,,,,,,,,2,,,65,105
272640,note_on,48,0,7,,,,,,,,6,,,57,92
272640,note_on,48,0,8,,,,,,,,7,,,57,92
272640,note_on,48,0,9,,,,,,,,8,,,45,105
272640,note_on,48,0,6,,,,,,,,5,,,72,116
272952,note_on,312,0,3,,,,,,,,2,,,65,0
272952,note_on,312,0,9,,,,,,,,8,,,45,0
272952,note_on,312,0,1,,,,,,,,0,,,75,0
272952,note_on,312,0,8,,,,,,,,7,,,57,0
272952,note_on,312,0,7,,,,,,,,6,,,57,0
272952,note_on,312,0,5,,,,,,,,4,,,75,0
272952,note_on,312,0,6,,,,,,,,5,,,72,0
272952,note_on,0,0,3,,,,,,,,2,,,65,0
272952,note_on,0,0,1,,,,,,,,0,,,72,0
273024,note_on,384,0,2,,,,,,,,1,,,57,0
273120,note_on,168,0,8,,,,,,,,7,,,58,92
273120,note_on,168,0,9,,,,,,,,8,,,46,105
273120,note_on,168,0,5,,,,,,,,4,,,74,116
273120,note_on,168,0,7,,,,,,,,6,,,58,92
273120,note_on,168,0,1,,,,,,,,0,,,74,105
273120,note_on,0,0,1,,,,,,,,0,,,70,105
273120,note_on,168,0,3,,,,,,,,2,,,58,105
273120,note_on,0,0,3,,,,,,,,2,,,70,105
273120,note_on,96,0,2,,,,,,,,1,,,58,105
273120,note_on,168,0,6,,,,,,,,5,,,70,116
273432,note_on,312,0,7,,,,,,,,6,,,58,0
273432,note_on,312,0,9,,,,,,,,8,,,46,0
273432,note_on,312,0,5,,,,,,,,4,,,74,0
273432,note_on,312,0,6,,,,,,,,5,,,70,0
273432,note_on,312,0,8,,,,,,,,7,,,58,0
273432,note_on,312,0,1,,,,,,,,0,,,74,0
273504,note_on,384,0,2,,,,,,,,1,,,58,0
273600,note_on,168,0,9,,,,,,,,8,,,39,105
273600,note_on,168,0,8,,,,,,,,7,,,51,92
273600,note_on,168,0,5,,,,,,,,4,,,79,116
273600,note_on,168,0,6,,,,,,,,5,,,70,116
273600,note_on,168,0,7,,,,,,,,6,,,63,92
273600,note_on,168,0,1,,,,,,,,0,,,72,105
273600,note_on,96,0,2,,,,,,,,1,,,51,105
273888,note_on,0,0,3,,,,,,,,2,,,58,0
273888,note_on,768,0,3,,,,,,,,2,,,70,0
273912,note_on,312,0,8,,,,,,,,7,,,51,0
273912,note_on,312,0,6,,,,,,,,5,,,70,0
273912,note_on,312,0,1,,,,,,,,0,,,70,0
273912,note_on,312,0,5,,,,,,,,4,,,79,0
273912,note_on,312,0,7,,,,,,,,6,,,63,0
273912,note_on,312,0,9,,,,,,,,8,,,39,0
273984,note_on,384,0,2,,,,,,,,1,,,51,0
274080,note_on,168,0,7,,,,,,,,6,,,65,92
274080,note_on,168,0,6,,,,,,,,5,,,60,116
274080,note_on,168,0,8,,,,,,,,7,,,53,92
274080,note_on,168,0,9,,,,,,,,8,,,41,105
274080,note_on,168,0,1,,,,,,,,0,,,69,105
274080,note_on,192,0,3,,,,,,,,2,,,65,105
274080,note_on,168,0,5,,,,,,,,4,,,69,116
274080,note_on,0,0,6,,,,,,,,5,,,63,116
274080,note_on,96,0,2,,,,,,,,1,,,53,105
274392,note_on,0,0,6,,,,,,,,5,,,60,0
274392,note_on,0,0,1,,,,,,,,0,,,72,0
274392,note_on,312,0,1,,,,,,,,0,,,69,0
274392,note_on,312,0,6,,,,,,,,5,,,63,0
274392,note_on,312,0,5,,,,,,,,4,,,69,0
274392,note_on,312,0,9,,,,,,,,8,,,41,0
274392,note_on,312,0,8,,,,,,,,7,,,53,0
274392,note_on,312,0,7,,,,,,,,6,,,65,0
274464,note_on,384,0,2,,,,,,,,1,,,53,0
274464,note_on,384,0,3,,,,,,,,2,,,65,0
274560,note_on,168,0,5,,,,,,,,4,,,70,110
274560,note_on,168,0,9,,,,,,,,8,,,34,110
274560,note_on,96,0,2,,,,,,,,1,,,46,110
274560,note_on,96,0,3,,,,,,,,2,,,62,92
274560,note_on,168,0,8,,,,,,,,7,,,46,110
274560,note_on,168,0,1,,,,,,,,0,,,70,92
274560,note_on,168,0,7,,,,,,,,6,,,58,110
274560,note_on,0,0,3,,,,,,,,2,,,58,92
274560,note_on,0,0,6,,,,,,,,5,,,62,70
274560,set_tempo,78720,1,0,,,,,,309278,,,,,,
274560,note_on,168,0,6,,,,,,,,5,,,58,110
274872,note_on,312,0,5,,,,,,,,4,,,70,0
274872,note_on,0,0,6,,,,,,,,5,,,58,0
274872,note_on,312,0,6,,,,,,,,5,,,62,0
274944,note_on,384,0,3,,,,,,,,2,,,58,0
274944,note_on,0,0,3,,,,,,,,2,,,62,0
274944,note_on,384,0,9,,,,,,,,8,,,34,0
274944,note_on,384,0,2,,,,,,,,1,,,46,0
274944,note_on,384,0,8,,,,,,,,7,,,46,0
274944,note_on,384,0,1,,,,,,,,0,,,70,0
274944,note_on,384,0,7,,,,,,,,6,,,58,0
275040,note_on,96,0,8,,,,,,,,7,,,51,58
275040,note_on,96,0,2,,,,,,,,1,,,51,70
275040,note_on,168,0,5,,,,,,,,4,,,69,70
275040,note_on,168,0,6,,,,,,,,5,,,65,70
275040,note_on,96,0,9,,,,,,,,8,,,39,58
275232,note_on,192,0,5,,,,,,,,4,,,69,0
275232,note_on,192,0,9,,,,,,,,8,,,39,0
275232,note_on,192,0,8,,,,,,,,7,,,51,0
275232,note_on,192,0,6,,,,,,,,5,,,65,0
275232,note_on,192,0,2,,,,,,,,1,,,51,0
275280,note_on,48,0,8,,,,,,,,7,,,50,58
275280,note_on,48,0,6,,,,,,,,5,,,67,70
275280,note_on,48,0,9,,,,,,,,8,,,38,58
275280,note_on,48,0,5,,,,,,,,4,,,70,70
275280,note_on,48,0,2,,,,,,,,1,,,50,70
275472,note_on,192,0,5,,,,,,,,4,,,70,0
275472,note_on,192,0,6,,,,,,,,5,,,67,0
275472,note_on,192,0,8,,,,,,,,7,,,50,0
275472,note_on,192,0,2,,,,,,,,1,,,50,0
275472,note_on,192,0,9,,,,,,,,8,,,38,0
275520,note_on,48,0,9,,,,,,,,8,,,36,58
275520,note_on,48,0,5,,,,,,,,4,,,72,70
275520,note_on,48,0,6,,,,,,,,5,,,69,70
275520,note_on,48,0,2,,,,,,,,1,,,48,70
275520,note_on,48,0,8,,,,,,,,7,,,48,58
275712,note_on,192,0,8,,,,,,,,7,,,48,0
275712,note_on,192,0,2,,,,,,,,1,,,48,0
275712,note_on,192,0,9,,,,,,,,8,,,36,0
275712,note_on,192,0,6,,,,,,,,5,,,69,0
275712,note_on,192,0,5,,,,,,,,4,,,72,0
275760,note_on,48,0,8,,,,,,,,7,,,46,58
275760,note_on,48,0,9,,,,,,,,8,,,34,58
275760,note_on,48,0,6,,,,,,,,5,,,70,70
275760,note_on,48,0,5,,,,,,,,4,,,74,70
275760,note_on,48,0,2,,,,,,,,1,,,46,70
275952,note_on,192,0,5,,,,,,,,4,,,74,0
275952,note_on,192,0,9,,,,,,,,8,,,34,0
275952,note_on,192,0,6,,,,,,,,5,,,70,0
275952,note_on,192,0,2,,,,,,,,1,,,46,0
275952,note_on,192,0,8,,,,,,,,7,,,46,0
276000,note_on,48,0,2,,,,,,,,1,,,45,70
276000,note_on,48,0,8,,,,,,,,7,,,45,58
276000,note_on,48,0,9,,,,,,,,8,,,33,58
276000,note_on,48,0,5,,,,,,,,4,,,75,70
276000,note_on,48,0,6,,,,,,,,5,,,72,70
276192,note_on,192,0,6,,,,,,,,5,,,72,0
276192,note_on,192,0,5,,,,,,,,4,,,75,0
276192,note_on,192,0,9,,,,,,,,8,,,33,0
276192,note_on,192,0,8,,,,,,,,7,,,45,0
276192,note_on,192,0,2,,,,,,,,1,,,45,0
276240,note_on,48,0,6,,,,,,,,5,,,70,70
276240,note_on,48,0,2,,,,,,,,1,,,46,70
276240,note_on,48,0,5,,,,,,,,4,,,74,70
276240,note_on,48,0,9,,,,,,,,8,,,34,58
276240,note_on,48,0,8,,,,,,,,7,,,46,58
276432,note_on,192,0,6,,,,,,,,5,,,70,0
276432,note_on,192,0,8,,,,,,,,7,,,46,0
276432,note_on,192,0,9,,,,,,,,8,,,34,0
276432,note_on,192,0,2,,,,,,,,1,,,46,0
276432,note_on,192,0,5,,,,,,,,4,,,74,0
276480,note_on,48,0,6,,,,,,,,5,,,72,70
276480,note_on,48,0,2,,,,,,,,1,,,45,70
276480,note_on,48,0,9,,,,,,,,8,,,33,58
276480,note_on,48,0,5,,,,,,,,4,,,75,70
276480,note_on,1536,0,7,,,,,,,,6,,,53,70
276480,note_on,48,0,8,,,,,,,,7,,,45,58
276792,note_on,312,0,5,,,,,,,,4,,,75,0
276792,note_on,312,0,6,,,,,,,,5,,,72,0
276864,note_on,384,0,2,,,,,,,,1,,,45,0
276864,note_on,384,0,8,,,,,,,,7,,,45,0
276864,note_on,384,0,9,,,,,,,,8,,,33,0
276864,note_on,384,0,7,,,,,,,,6,,,53,0
276960,note_on,168,0,6,,,,,,,,5,,,65,70
276960,note_on,96,0,2,,,,,,,,1,,,51,70
276960,note_on,96,0,8,,,,,,,,7,,,51,58
276960,note_on,168,0,5,,,,,,,,4,,,69,70
276960,note_on,96,0,9,,,,,,,,8,,,39,58
277152,note_on,192,0,6,,,,,,,,5,,,65,0
277152,note_on,192,0,2,,,,,,,,1,,,51,0
277152,note_on,192,0,8,,,,,,,,7,,,51,0
277152,note_on,192,0,9,,,,,,,,8,,,39,0
277152,note_on,192,0,5,,,,,,,,4,,,69,0
277200,note_on,48,0,6,,,,,,,,5,,,67,70
277200,note_on,48,0,2,,,,,,,,1,,,50,70
277200,note_on,48,0,8,,,,,,,,7,,,50,58
277200,note_on,48,0,9,,,,,,,,8,,,38,58
277200,note_on,48,0,5,,,,,,,,4,,,70,70
277392,note_on,192,0,2,,,,,,,,1,,,50,0
277392,note_on,192,0,8,,,,,,,,7,,,50,0
277392,note_on,192,0,9,,,,,,,,8,,,38,0
277392,note_on,192,0,5,,,,,,,,4,,,70,0
277392,note_on,192,0,6,,,,,,,,5,,,67,0
277440,note_on,48,0,9,,,,,,,,8,,,36,58
277440,note_on,48,0,2,,,,,,,,1,,,48,70
277440,note_on,48,0,6,,,,,,,,5,,,69,70
277440,note_on,48,0,8,,,,,,,,7,,,48,58
277440,note_on,48,0,5,,,,,,,,4,,,72,70
277632,note_on,192,0,2,,,,,,,,1,,,48,0
277632,note_on,192,0,6,,,,,,,,5,,,69,0
277632,note_on,192,0,9,,,,,,,,8,,,36,0
277632,note_on,192,0,8,,,,,,,,7,,,48,0
277632,note_on,192,0,5,,,,,,,,4,,,72,0
277680,note_on,48,0,6,,,,,,,,5,,,70,70
277680,note_on,48,0,2,,,,,,,,1,,,46,70
277680,note_on,48,0,9,,,,,,,,8,,,34,58
277680,note_on,48,0,8,,,,,,,,7,,,46,58
277680,note_on,48,0,5,,,,,,,,4,,,74,70
277872,note_on,192,0,2,,,,,,,,1,,,46,0
277872,note_on,192,0,9,,,,,,,,8,,,34,0
277872,note_on,192,0,5,,,,,,,,4,,,74,0
277872,note_on,192,0,8,,,,,,,,7,,,46,0
277872,note_on,192,0,6,,,,,,,,5,,,70,0
277920,note_on,48,0,2,,,,,,,,1,,,45,70
277920,note_on,48,0,5,,,,,,,,4,,,75,70
277920,note_on,48,0,8,,,,,,,,7,,,45,58
277920,note_on,48,0,9,,,,,,,,8,,,33,58
277920,note_on,48,0,6,,,,,,,,5,,,72,70
278112,note_on,192,0,6,,,,,,,,5,,,72,0
278112,note_on,192,0,5,,,,,,,,4,,,75,0
278112,note_on,192,0,8,,,,,,,,7,,,45,0
278112,note_on,192,0,2,,,,,,,,1,,,45,0
278112,note_on,192,0,9,,,,,,,,8,,,33,0
278160,note_on,48,0,9,,,,,,,,8,,,34,58
278160,note_on,48,0,8,,,,,,,,7,,,46,58
278160,note_on,48,0,5,,,,,,,,4,,,74,70
278160,note_on,48,0,2,,,,,,,,1,,,46,70
278160,note_on,48,0,6,,,,,,,,5,,,70,70
278352,note_on,192,0,2,,,,,,,,1,,,46,0
278352,note_on,192,0,9,,,,,,,,8,,,34,0
278352,note_on,192,0,8,,,,,,,,7,,,46,0
278352,note_on,192,0,5,,,,,,,,4,,,74,0
278352,note_on,192,0,6,,,,,,,,5,,,70,0
278400,note_on,48,0,5,,,,,,,,4,,,75,70
278400,note_on,48,0,8,,,,,,,,7,,,45,58
278400,note_on,48,0,6,,,,,,,,5,,,72,70
278400,note_on,48,0,2,,,,,,,,1,,,45,70
278400,note_on,1536,0,7,,,,,,,,6,,,53,70
278400,note_on,48,0,9,,,,,,,,8,,,33,58
278712,note_on,312,0,5,,,,,,,,4,,,75,0
278712,note_on,312,0,6,,,,,,,,5,,,72,0
278784,note_on,384,0,7,,,,,,,,6,,,53,0
278784,note_on,384,0,9,,,,,,,,8,,,33,0
278784,note_on,384,0,2,,,,,,,,1,,,45,0
278784,note_on,384,0,8,,,,,,,,7,,,45,0
278880,note_on,96,0,9,,,,,,,,8,,,51,105
278880,note_on,168,0,6,,,,,,,,5,,,77,127
278880,note_on,96,0,7,,,,,,,,6,,,75,105
278880,note_on,96,0,2,,,,,,,,1,,,63,105
278880,note_on,96,0,8,,,,,,,,7,,,63,105
278880,note_on,168,0,5,,,,,,,,4,,,81,127
279072,note_on,192,0,6,,,,,,,,5,,,77,0
279072,note_on,192,0,7,,,,,,,,6,,,75,0
279072,note_on,192,0,2,,,,,,,,1,,,63,0
279072,note_on,192,0,5,,,,,,,,4,,,81,0
279072,note_on,192,0,9,,,,,,,,8,,,51,0
279072,note_on,192,0,8,,,,,,,,7,,,63,0
279120,note_on,48,0,8,,,,,,,,7,,,62,105
279120,note_on,48,0,6,,,,,,,,5,,,79,116
279120,note_on,48,0,2,,,,,,,,1,,,62,105
279120,note_on,48,0,5,,,,,,,,4,,,82,116
279120,note_on,48,0,7,,,,,,,,6,,,74,105
279120,note_on,48,0,9,,,,,,,,8,,,50,105
279312,note_on,192,0,8,,,,,,,,7,,,62,0
279312,note_on,192,0,5,,,,,,,,4,,,82,0
279312,note_on,192,0,7,,,,,,,,6,,,74,0
279312,note_on,192,0,9,,,,,,,,8,,,50,0
279312,note_on,192,0,2,,,,,,,,1,,,62,0
279312,note_on,192,0,6,,,,,,,,5,,,79,0
279360,note_on,48,0,5,,,,,,,,4,,,84,116
279360,note_on,48,0,7,,,,,,,,6,,,72,105
279360,note_on,48,0,2,,,,,,,,1,,,60,105
279360,note_on,48,0,6,,,,,,,,5,,,81,116
279360,note_on,48,0,8,,,,,,,,7,,,60,105
279360,note_on,48,0,9,,,,,,,,8,,,48,105
279552,note_on,192,0,6,,,,,,,,5,,,81,0
279552,note_on,192,0,8,,,,,,,,7,,,60,0
279552,note_on,192,0,7,,,,,,,,6,,,72,0
279552,note_on,192,0,2,,,,,,,,1,,,60,0
279552,note_on,192,0,5,,,,,,,,4,,,84,0
279552,note_on,192,0,9,,,,,,,,8,,,48,0
279600,note_on,48,0,6,,,,,,,,5,,,82,116
279600,note_on,48,0,8,,,,,,,,7,,,58,105
279600,note_on,48,0,9,,,,,,,,8,,,46,105
279600,note_on,48,0,2,,,,,,,,1,,,58,105
279600,note_on,48,0,5,,,,,,,,4,,,86,116
279600,note_on,48,0,7,,,,,,,,6,,,70,105
279792,note_on,192,0,7,,,,,,,,6,,,70,0
279792,note_on,192,0,8,,,,,,,,7,,,58,0
279792,note_on,192,0,2,,,,,,,,1,,,58,0
279792,note_on,192,0,9,,,,,,,,8,,,46,0
279792,note_on,192,0,5,,,,,,,,4,,,86,0
279792,note_on,192,0,6,,,,,,,,5,,,82,0
279840,note_on,48,0,7,,,,,,,,6,,,69,105
279840,note_on,48,0,8,,,,,,,,7,,,57,105
279840,note_on,48,0,2,,,,,,,,1,,,57,105
279840,note_on,48,0,6,,,,,,,,5,,,84,116
279840,note_on,48,0,5,,,,,,,,4,,,87,116
279840,note_on,48,0,9,,,,,,,,8,,,45,105
280032,note_on,192,0,8,,,,,,,,7,,,57,0
280032,note_on,192,0,6,,,,,,,,5,,,84,0
280032,note_on,192,0,9,,,,,,,,8,,,45,0
280032,note_on,192,0,2,,,,,,,,1,,,57,0
280032,note_on,192,0,7,,,,,,,,6,,,69,0
280032,note_on,192,0,5,,,,,,,,4,,,87,0
280080,note_on,48,0,5,,,,,,,,4,,,86,116
280080,note_on,48,0,2,,,,,,,,1,,,58,105
280080,note_on,48,0,6,,,,,,,,5,,,82,116
280080,note_on,48,0,7,,,,,,,,6,,,70,105
280080,note_on,48,0,9,,,,,,,,8,,,46,105
280080,note_on,48,0,8,,,,,,,,7,,,58,105
280272,note_on,192,0,6,,,,,,,,5,,,82,0
280272,note_on,192,0,9,,,,,,,,8,,,46,0
280272,note_on,192,0,5,,,,,,,,4,,,86,0
280272,note_on,192,0,8,,,,,,,,7,,,58,0
280272,note_on,192,0,2,,,,,,,,1,,,58,0
280272,note_on,192,0,7,,,,,,,,6,,,70,0
280320,note_on,48,0,2,,,,,,,,1,,,57,105
280320,note_on,5376,0,3,,,,,,,,2,,,65,105
280320,note_on,48,0,9,,,,,,,,8,,,45,105
280320,note_on,5376,0,1,,,,,,,,0,,,72,105
280320,note_on,48,0,6,,,,,,,,5,,,84,116
280320,note_on,48,0,8,,,,,,,,7,,,57,105
280320,note_on,48,0,7,,,,,,,,6,,,69,105
280320,note_on,48,0,5,,,,,,,,4,,,87,116
280320,note_on,0,0,1,,,,,,,,0,,,75,105
280632,note_on,312,0,5,,,,,,,,4,,,87,0
280632,note_on,312,0,1,,,,,,,,0,,,75,0
280632,note_on,312,0,6,,,,,,,,5,,,84,0
280632,note_on,312,0,7,,,,,,,,6,,,69,0
280632,note_on,312,0,9,,,,,,,,8,,,45,0
280632,note_on,0,0,1,,,,,,,,0,,,72,0
280632,note_on,312,0,3,,,,,,,,2,,,65,0
280632,note_on,312,0,8,,,,,,,,7,,,57,0
280632,note_on,312,0,2,,,,,,,,1,,,57,0
280800,note_on,0,0,3,,,,,,,,2,,,70,105
280800,note_on,168,0,2,,,,,,,,1,,,58,105
280800,note_on,168,0,6,,,,,,,,5,,,82,116
280800,note_on,168,0,7,,,,,,,,6,,,70,105
280800,note_on,168,0,5,,,,,,,,4,,,86,116
280800,note_on,0,0,1,,,,,,,,0,,,74,105
280800,note_on,168,0,9,,,,,,,,8,,,46,105
280800,note_on,168,0,1,,,,,,,,0,,,70,105
280800,note_on,168,0,3,,,,,,,,2,,,58,105
280800,note_on,168,0,8,,,,,,,,7,,,58,105
281112,note_on,312,0,5,,,,,,,,4,,,86,0
281112,note_on,312,0,7,,,,,,,,6,,,70,0
281112,note_on,312,0,9,,,,,,,,8,,,46,0
281112,note_on,312,0,6,,,,,,,,5,,,82,0
281112,note_on,312,0,8,,,,,,,,7,,,58,0
281112,note_on,312,0,1,,,,,,,,0,,,74,0
281112,note_on,312,0,2,,,,,,,,1,,,58,0
281280,note_on,168,0,8,,,,,,,,7,,,51,105
281280,note_on,168,0,2,,,,,,,,1,,,51,105
281280,note_on,168,0,7,,,,,,,,6,,,63,105
281280,note_on,168,0,9,,,,,,,,8,,,39,105
281280,note_on,168,0,6,,,,,,,,5,,,79,116
281280,note_on,168,0,1,,,,,,,,0,,,72,105
281280,note_on,168,0,5,,,,,,,,4,,,84,116
281568,note_on,768,0,3,,,,,,,,2,,,70,0
281568,note_on,0,0,3,,,,,,,,2,,,58,0
281592,note_on,312,0,1,,,,,,,,0,,,70,0
281592,note_on,312,0,2,,,,,,,,1,,,51,0
281592,note_on,312,0,9,,,,,,,,8,,,39,0
281592,note_on,312,0,5,,,,,,,,4,,,84,0
281592,note_on,312,0,7,,,,,,,,6,,,63,0
281592,note_on,312,0,6,,,,,,,,5,,,79,0
281592,note_on,312,0,8,,,,,,,,7,,,51,0
281760,note_on,192,0,3,,,,,,,,2,,,65,105
281760,note_on,168,0,9,,,,,,,,8,,,41,105
281760,note_on,0,0,3,,,,,,,,2,,,53,105
281760,note_on,168,0,7,,,,,,,,6,,,65,105
281760,note_on,168,0,6,,,,,,,,5,,,65,116
281760,note_on,168,0,1,,,,,,,,0,,,69,105
281760,note_on,0,0,5,,,,,,,,4,,,81,116
281760,note_on,168,0,2,,,,,,,,1,,,53,105
281760,note_on,168,0,8,,,,,,,,7,,,53,105
281760,note_on,168,0,5,,,,,,,,4,,,72,116
281760,note_on,0,0,6,,,,,,,,5,,,75,116
282072,note_on,312,0,2,,,,,,,,1,,,53,0
282072,note_on,312,0,1,,,,,,,,0,,,69,0
282072,note_on,312,0,6,,,,,,,,5,,,75,0
282072,note_on,0,0,1,,,,,,,,0,,,72,0
282072,note_on,312,0,8,,,,,,,,7,,,53,0
282072,note_on,0,0,6,,,,,,,,5,,,65,0
282072,note_on,312,0,7,,,,,,,,6,,,65,0
282072,note_on,0,0,5,,,,,,,,4,,,72,0
282072,note_on,312,0,5,,,,,,,,4,,,81,0
282072,note_on,312,0,9,,,,,,,,8,,,41,0
282144,note_on,0,0,3,,,,,,,,2,,,65,0
282144,note_on,384,0,3,,,,,,,,2,,,53,0
282240,note_on,168,0,8,,,,,,,,7,,,46,105
282240,note_on,168,0,1,,,,,,,,0,,,70,105
282240,note_on,0,0,5,,,,,,,,4,,,70,116
282240,note_on,168,0,5,,,,,,,,4,,,82,116
282240,note_on,168,0,9,,,,,,,,8,,,34,105
282240,note_on,96,0,3,,,,,,,,2,,,58,105
282240,note_on,0,0,3,,,,,,,,2,,,62,105
282240,set_tempo,7680,1,0,,,,,,300000,,,,,,
282240,note_on,0,0,6,,,,,,,,5,,,74,116
282240,note_on,168,0,6,,,,,,,,5,,,65,116
282240,note_on,168,0,2,,,,,,,,1,,,46,105
282240,note_on,168,0,7,,,,,,,,6,,,58,105
282552,note_on,312,0,9,,,,,,,,8,,,34,0
282552,note_on,312,0,7,,,,,,,,6,,,58,0
282552,note_on,0,0,5,,,,,,,,4,,,82,0
282552,note_on,312,0,8,,,,,,,,7,,,46,0
282552,note_on,312,0,5,,,,,,,,4,,,70,0
282552,note_on,312,0,2,,,,,,,,1,,,46,0
282552,note_on,312,0,6,,,,,,,,5,,,74,0
282552,note_on,0,0,6,,,,,,,,5,,,65,0
282624,note_on,384,0,1,,,,,,,,0,,,70,0
282624,note_on,384,0,3,,,,,,,,2,,,62,0
282624,note_on,0,0,3,,,,,,,,2,,,58,0
282720,note_on,168,0,9,,,,,,,,8,,,34,105
282720,note_on,168,0,8,,,,,,,,7,,,46,105
282720,note_on,168,0,7,,,,,,,,6,,,58,105
282720,note_on,168,0,5,,,,,,,,4,,,58,116
282720,note_on,168,0,2,,,,,,,,1,,,46,105
282720,note_on,168,0,6,,,,,,,,5,,,58,116
283032,note_on,312,0,2,,,,,,,,1,,,46,0
283032,note_on,312,0,8,,,,,,,,7,,,46,0
283032,note_on,312,0,9,,,,,,,,8,,,34,0
283032,note_on,312,0,5,,,,,,,,4,,,58,0
283032,note_on,312,0,7,,,,,,,,6,,,58,0
283032,note_on,312,0,6,,,,,,,,5,,,58,0
283200,note_on,168,0,9,,,,,,,,8,,,50,105
283200,note_on,576,0,3,,,,,,,,2,,,74,105
283200,note_on,168,0,2,,,,,,,,1,,,62,105
283200,note_on,168,0,8,,,,,,,,7,,,62,105
283200,note_on,168,0,6,,,,,,,,5,,,74,116
283200,note_on,576,0,1,,,,,,,,0,,,74,105
283200,note_on,168,0,7,,,,,,,,6,,,74,105
283200,note_on,168,0,5,,,,,,,,4,,,74,116
283776,note_on,576,0,2,,,,,,,,1,,,62,0
283776,note_on,576,0,8,,,,,,,,7,,,62,0
283776,note_on,576,0,7,,,,,,,,6,,,74,0
283776,note_on,576,0,1,,,,,,,,0,,,74,0
283776,note_on,576,0,5,,,,,,,,4,,,74,0
283776,note_on,576,0,9,,,,,,,,8,,,50,0
283776,note_on,576,0,3,,,,,,,,2,,,74,0
283776,note_on,576,0,6,,,,,,,,5,,,74,0
283920,note_on,144,0,2,,,,,,,,1,,,60,105
283920,note_on,144,0,3,,,,,,,,2,,,72,105
283920,note_on,144,0,5,,,,,,,,4,,,72,116
283920,note_on,144,0,9,,,,,,,,8,,,48,105
283920,note_on,144,0,1,,,,,,,,0,,,72,105
283920,note_on,144,0,8,,,,,,,,7,,,60,105
283920,note_on,144,0,7,,,,,,,,6,,,72,105
283920,note_on,144,0,6,,,,,,,,5,,,72,116
284112,note_on,192,0,7,,,,,,,,6,,,72,0
284112,note_on,192,0,5,,,,,,,,4,,,72,0
284112,note_on,192,0,8,,,,,,,,7,,,60,0
284112,note_on,192,0,1,,,,,,,,0,,,72,0
284112,note_on,192,0,9,,,,,,,,8,,,48,0
284112,note_on,192,0,3,,,,,,,,2,,,72,0
284112,note_on,192,0,6,,,,,,,,5,,,72,0
284112,note_on,192,0,2,,,,,,,,1,,,60,0
284160,note_on,48,0,6,,,,,,,,5,,,70,116
284160,note_on,48,0,8,,,,,,,,7,,,58,105
284160,note_on,48,0,3,,,,,,,,2,,,70,105
284160,note_on,48,0,9,,,,,,,,8,,,46,105
284160,note_on,48,0,1,,,,,,,,0,,,70,105
284160,note_on,48,0,5,,,,,,,,4,,,70,116
284160,note_on,48,0,7,,,,,,,,6,,,70,105
284160,note_on,48,0,2,,,,,,,,1,,,58,105
284472,note_on,312,0,2,,,,,,,,1,,,58,0
284472,note_on,312,0,5,,,,,,,,4,,,70,0
284472,note_on,312,0,9,,,,,,,,8,,,46,0
284472,note_on,312,0,3,,,,,,,,2,,,70,0
284472,note_on,312,0,8,,,,,,,,7,,,58,0
284472,note_on,312,0,7,,,,,,,,6,,,70,0
284472,note_on,312,0,6,,,,,,,,5,,,70,0
284544,note_on,384,0,1,,,,,,,,0,,,70,0
284640,note_on,168,0,9,,,,,,,,8,,,34,105
284640,note_on,168,0,3,,,,,,,,2,,,58,105
284640,note_on,168,0,5,,,,,,,,4,,,58,116
284640,note_on,168,0,6,,,,,,,,5,,,58,116
284640,note_on,168,0,7,,,,,,,,6,,,58,105
284640,note_on,168,0,2,,,,,,,,1,,,46,105
284640,note_on,168,0,8,,,,,,,,7,,,46,105
284952,note_on,312,0,6,,,,,,,,5,,,58,0
284952,note_on,312,0,2,,,,,,,,1,,,46,0
284952,note_on,312,0,7,,,,,,,,6,,,58,0
284952,note_on,312,0,9,,,,,,,,8,,,34,0
284952,note_on,312,0,5,,,,,,,,4,,,58,0
284952,note_on,312,0,8,,,,,,,,7,,,46,0
284952,note_on,312,0,3,,,,,,,,2,,,58,0
285120,note_on,168,0,2,,,,,,,,1,,,62,105
285120,note_on,168,0,3,,,,,,,,2,,,74,105
285120,note_on,168,0,8,,,,,,,,7,,,62,105
285120,note_on,168,0,6,,,,,,,,5,,,74,116
285120,note_on,168,0,9,,,,,,,,8,,,50,105
285120,note_on,168,0,5,,,,,,,,4,,,74,116
285120,note_on,168,0,7,,,,,,,,6,,,74,105
285120,note_on,576,0,1,,,,,,,,0,,,74,105
285696,note_on,576,0,8,,,,,,,,7,,,62,0
285696,note_on,576,0,5,,,,,,,,4,,,74,0
285696,note_on,576,0,7,,,,,,,,6,,,74,0
285696,note_on,576,0,6,,,,,,,,5,,,74,0
285696,note_on,576,0,3,,,,,,,,2,,,74,0
285696,note_on,576,0,2,,,,,,,,1,,,62,0
285696,note_on,576,0,9,,,,,,,,8,,,50,0
285696,note_on,576,0,1,,,,,,,,0,,,74,0
285840,note_on,144,0,1,,,,,,,,0,,,72,105
285840,note_on,144,0,8,,,,,,,,7,,,60,105
285840,note_on,144,0,2,,,,,,,,1,,,60,105
285840,note_on,144,0,3,,,,,,,,2,,,72,105
285840,note_on,144,0,9,,,,,,,,8,,,48,105
285840,note_on,144,0,5,,,,,,,,4,,,72,116
285840,note_on,144,0,7,,,,,,,,6,,,72,105
285840,note_on,144,0,6,,,,,,,,5,,,72,116
286032,note_on,192,0,8,,,,,,,,7,,,60,0
286032,note_on,192,0,2,,,,,,,,1,,,60,0
286032,note_on,192,0,3,,,,,,,,2,,,72,0
286032,note_on,192,0,7,,,,,,,,6,,,72,0
286032,note_on,192,0,9,,,,,,,,8,,,48,0
286032,note_on,192,0,6,,,,,,,,5,,,72,0
286032,note_on,192,0,5,,,,,,,,4,,,72,0
286032,note_on,192,0,1,,,,,,,,0,,,72,0
286080,note_on,48,0,3,,,,,,,,2,,,70,105
286080,note_on,48,0,9,,,,,,,,8,,,46,105
286080,note_on,48,0,5,,,,,,,,4,,,70,110
286080,note_on,48,0,7,,,,,,,,6,,,70,105
286080,note_on,48,0,1,,,,,,,,0,,,70,105
286080,note_on,48,0,2,,,,,,,,1,,,58,105
286080,note_on,48,0,8,,,,,,,,7,,,58,105
286080,note_on,48,0,6,,,,,,,,5,,,70,116
286080,set_tempo,3840,1,0,,,,,,312500,,,,,,
286848,note_on,768,0,1,,,,,,,,0,,,70,0
286848,note_on,768,0,2,,,,,,,,1,,,58,0
286848,note_on,768,0,8,,,,,,,,7,,,58,0
286848,note_on,768,0,7,,,,,,,,6,,,70,0
286848,note_on,768,0,3,,,,,,,,2,,,70,0
286848,note_on,768,0,6,,,,,,,,5,,,70,0
286848,note_on,768,0,9,,,,,,,,8,,,46,0
286848,note_on,768,0,5,,,,,,,,4,,,70,0
287040,note_on,192,0,5,,,,,,,,4,,,58,70
288000,note_on,0,0,5,,,,,,,,4,,,60,70
288000,note_on,960,0,5,,,,,,,,4,,,58,0
288960,note_on,0,0,5,,,,,,,,4,,,61,70
288960,note_on,960,0,5,,,,,,,,4,,,60,0
289920,note_on,0,0,5,,,,,,,,4,,,62,70
289920,note_on,960,0,5,,,,,,,,4,,,61,0
289920,set_tempo,3840,1,0,,,,,,327869,,,,,,
290640,note_on,720,0,5,,,,,,,,4,,,62,0
290880,note_on,240,0,5,,,,,,,,4,,,74,70
291840,set_tempo,1920,1,0,,,,,,309278,,,,,,
292200,note_on,1320,0,5,,,,,,,,4,,,74,0
292320,note_on,120,0,5,,,,,,,,4,,,75,70
292500,note_on,180,0,5,,,,,,,,4,,,75,0
292560,note_on,60,0,5,,,,,,,,4,,,72,70
292740,note_on,180,0,5,,,,,,,,4,,,72,0
292800,note_on,60,0,5,,,,,,,,4,,,70,70
293160,note_on,360,0,5,,,,,,,,4,,,70,0
293280,note_on,120,0,5,,,,,,,,4,,,72,70
293460,note_on,180,0,5,,,,,,,,4,,,72,0
293520,note_on,60,0,5,,,,,,,,4,,,69,70
293700,note_on,180,0,5,,,,,,,,4,,,69,0
293760,note_on,6912,0,8,,,,,,,,7,,,55,105
293760,set_tempo,1920,1,0,,,,,,300000,,,,,,
293760,note_on,6912,0,2,,,,,,,,1,,,55,105
293760,note_on,60,0,5,,,,,,,,4,,,67,105
293760,note_on,6912,0,7,,,,,,,,6,,,67,105
293760,note_on,6912,0,9,,,,,,,,8,,,43,105
293760,note_on,6912,0,6,,,,,,,,5,,,67,105
294120,note_on,360,0,8,,,,,,,,7,,,55,0
294120,note_on,360,0,5,,,,,,,,4,,,67,0
294120,note_on,360,0,9,,,,,,,,8,,,43,0
294120,note_on,360,0,2,,,,,,,,1,,,55,0
294120,note_on,360,0,7,,,,,,,,6,,,67,0
294120,note_on,360,0,6,,,,,,,,5,,,67,0
294240,note_on,120,0,8,,,,,,,,7,,,56,105
294240,note_on,120,0,5,,,,,,,,4,,,71,105
294240,note_on,120,0,6,,,,,,,,5,,,62,105
294240,note_on,120,0,9,,,,,,,,8,,,44,105
294240,note_on,120,0,2,,,,,,,,1,,,56,105
294240,note_on,120,0,7,,,,,,,,6,,,68,105
294420,note_on,180,0,9,,,,,,,,8,,,44,0
294420,note_on,180,0,2,,,,,,,,1,,,56,0
294420,note_on,180,0,7,,,,,,,,6,,,68,0
294420,note_on,180,0,8,,,,,,,,7,,,56,0
294480,note_on,60,0,2,,,,,,,,1,,,53,105
294480,note_on,60,0,9,,,,,,,,8,,,41,105
294480,note_on,60,0,8,,,,,,,,7,,,53,105
294480,note_on,60,0,7,,,,,,,,6,,,65,105
294504,note_on,264,0,5,,,,,,,,4,,,71,0
294504,note_on,264,0,6,,,,,,,,5,,,62,0
294660,note_on,180,0,7,,,,,,,,6,,,65,0
294660,note_on,180,0,9,,,,,,,,8,,,41,0
294660,note_on,180,0,8,,,,,,,,7,,,53,0
294660,note_on,180,0,2,,,,,,,,1,,,53,0
294720,note_on,60,0,8,,,,,,,,7,,,51,105
294720,note_on,60,0,7,,,,,,,,6,,,63,105
294720,note_on,216,0,5,,,,,,,,4,,,72,105
294720,note_on,60,0,2,,,,,,,,1,,,51,105
294720,note_on,216,0,6,,,,,,,,5,,,63,105
294720,note_on,60,0,9,,,,,,,,8,,,39,105
294984,note_on,264,0,5,,,,,,,,4,,,72,0
294984,note_on,264,0,6,,,,,,,,5,,,63,0
295080,note_on,360,0,9,,,,,,,,8,,,39,0
295080,note_on,360,0,2,,,,,,,,1,,,51,0
295080,note_on,360,0,7,,,,,,,,6,,,63,0
295080,note_on,360,0,8,,,,,,,,7,,,51,0
295200,note_on,120,0,2,,,,,,,,1,,,53,105
295200,note_on,120,0,7,,,,,,,,6,,,65,105
295200,note_on,216,0,6,,,,,,,,5,,,65,105
295200,note_on,216,0,5,,,,,,,,4,,,74,105
295200,note_on,120,0,9,,,,,,,,8,,,41,105
295200,note_on,120,0,8,,,,,,,,7,,,53,105
295380,note_on,180,0,9,,,,,,,,8,,,41,0
295380,note_on,180,0,2,,,,,,,,1,,,53,0
295380,note_on,180,0,8,,,,,,,,7,,,53,0
295380,note_on,180,0,7,,,,,,,,6,,,65,0
295440,note_on,60,0,2,,,,,,,,1,,,50,105
295440,note_on,60,0,7,,,,,,,,6,,,62,105
295440,note_on,60,0,8,,,,,,,,7,,,50,105
295440,note_on,60,0,9,,,,,,,,8,,,38,105
295464,note_on,264,0,6,,,,,,,,5,,,65,0
295464,note_on,264,0,5,,,,,,,,4,,,74,0
295620,note_on,180,0,2,,,,,,,,1,,,50,0
295620,note_on,180,0,7,,,,,,,,6,,,62,0
295620,note_on,180,0,8,,,,,,,,7,,,50,0
295620,note_on,180,0,9,,,,,,,,8,,,38,0
295680,note_on,8832,0,3,,,,,,,,2,,,72,105
295680,note_on,216,0,6,,,,,,,,5,,,67,105
295680,note_on,216,0,5,,,,,,,,4,,,75,105
295680,note_on,60,0,7,,,,,,,,6,,,60,105
295680,note_on,60,0,9,,,,,,,,8,,,36,105
295680,note_on,60,0,2,,,,,,,,1,,,48,105
295680,note_on,60,0,8,,,,,,,,7,,,48,105
296040,note_on,360,0,6,,,,,,,,5,,,67,0
296040,note_on,360,0,2,,,,,,,,1,,,48,0
296040,note_on,360,0,5,,,,,,,,4,,,75,0
296040,note_on,360,0,9,,,,,,,,8,,,36,0
296040,note_on,360,0,8,,,,,,,,7,,,48,0
296040,note_on,360,0,7,,,,,,,,6,,,60,0
296160,note_on,0,0,1,,,,,,,,0,,,76,105
296160,note_on,120,0,5,,,,,,,,4,,,76,105
296160,note_on,120,0,7,,,,,,,,6,,,74,105
296160,note_on,120,0,8,,,,,,,,7,,,62,105
296160,note_on,120,0,6,,,,,,,,5,,,67,105
296160,note_on,9312,0,1,,,,,,,,0,,,79,105
296160,note_on,120,0,9,,,,,,,,8,,,50,105
296160,note_on,120,0,2,,,,,,,,1,,,62,105
296340,note_on,180,0,2,,,,,,,,1,,,62,0
296340,note_on,180,0,8,,,,,,,,7,,,62,0
296340,note_on,180,0,9,,,,,,,,8,,,50,0
296340,note_on,180,0,7,,,,,,,,6,,,74,0
296400,note_on,60,0,9,,,,,,,,8,,,46,105
296400,note_on,60,0,7,,,,,,,,6,,,70,105
296400,note_on,60,0,2,,,,,,,,1,,,58,105
296400,note_on,60,0,8,,,,,,,,7,,,58,105
296424,note_on,264,0,1,,,,,,,,0,,,76,0
296424,note_on,0,0,1,,,,,,,,0,,,79,0
296424,note_on,264,0,6,,,,,,,,5,,,67,0
296424,note_on,264,0,5,,,,,,,,4,,,76,0
296580,note_on,180,0,9,,,,,,,,8,,,46,0
296580,note_on,180,0,2,,,,,,,,1,,,58,0
296580,note_on,180,0,7,,,,,,,,6,,,70,0
296580,note_on,180,0,8,,,,,,,,7,,,58,0
296640,note_on,60,0,9,,,,,,,,8,,,45,105
296640,note_on,216,0,1,,,,,,,,0,,,81,105
296640,note_on,0,0,1,,,,,,,,0,,,77,105
296640,note_on,60,0,7,,,,,,,,6,,,69,105
296640,note_on,60,0,8,,,,,,,,7,,,57,105
296640,note_on,216,0,5,,,,,,,,4,,,77,105
296640,note_on,216,0,6,,,,,,,,5,,,69,105
296640,note_on,60,0,2,,,,,,,,1,,,57,105
296904,note_on,264,0,1,,,,,,,,0,,,77,0
296904,note_on,0,0,1,,,,,,,,0,,,81,0
296904,note_on,264,0,5,,,,,,,,4,,,77,0
296904,note_on,264,0,6,,,,,,,,5,,,69,0
297000,note_on,360,0,7,,,,,,,,6,,,69,0
297000,note_on,360,0,9,,,,,,,,8,,,45,0
297000,note_on,360,0,2,,,,,,,,1,,,57,0
297000,note_on,360,0,8,,,,,,,,7,,,57,0
297120,note_on,216,0,5,,,,,,,,4,,,79,105
297120,note_on,120,0,2,,,,,,,,1,,,58,105
297120,note_on,120,0,8,,,,,,,,7,,,58,105
297120,note_on,120,0,9,,,,,,,,8,,,46,105
297120,note_on,120,0,7,,,,,,,,6,,,70,105
297120,note_on,216,0,6,,,,,,,,5,,,70,105
297120,note_on,0,0,1,,,,,,,,0,,,82,105
297120,note_on,216,0,1,,,,,,,,0,,,79,105
297300,note_on,180,0,8,,,,,,,,7,,,58,0
297300,note_on,180,0,7,,,,,,,,6,,,70,0
297300,note_on,180,0,9,,,,,,,,8,,,46,0
297300,note_on,180,0,2,,,,,,,,1,,,58,0
297360,note_on,60,0,7,,,,,,,,6,,,67,105
297360,note_on,60,0,8,,,,,,,,7,,,55,105
297360,note_on,60,0,9,,,,,,,,8,,,43,105
297360,note_on,60,0,2,,,,,,,,1,,,55,105
297384,note_on,264,0,5,,,,,,,,4,,,79,0
297384,note_on,0,0,1,,,,,,,,0,,,79,0
297384,note_on,264,0,6,,,,,,,,5,,,70,0
297384,note_on,264,0,1,,,,,,,,0,,,82,0
297540,note_on,180,0,2,,,,,,,,1,,,55,0
297540,note_on,180,0,9,,,,,,,,8,,,43,0
297540,note_on,180,0,8,,,,,,,,7,,,55,0
297540,note_on,180,0,7,,,,,,,,6,,,67,0
297600,note_on,60,0,8,,,,,,,,7,,,53,105
297600,note_on,60,0,7,,,,,,,,6,,,65,105
297600,note_on,216,0,6,,,,,,,,5,,,72,105
297600,note_on,60,0,2,,,,,,,,1,,,53,105
297600,note_on,60,0,9,,,,,,,,8,,,41,105
297600,note_on,1920,0,3,,,,,,,,2,,,65,105
297600,note_on,216,0,1,,,,,,,,0,,,81,105
297600,note_on,0,0,1,,,,,,,,0,,,84,105
297600,note_on,216,0,5,,,,,,,,4,,,81,105
297960,note_on,360,0,2,,,,,,,,1,,,53,0
297960,note_on,360,0,6,,,,,,,,5,,,72,0
297960,note_on,360,0,5,,,,,,,,4,,,81,0
297960,note_on,0,0,1,,,,,,,,0,,,81,0
297960,note_on,360,0,8,,,,,,,,7,,,53,0
297960,note_on,360,0,9,,,,,,,,8,,,41,0
297960,note_on,360,0,7,,,,,,,,6,,,65,0
297960,note_on,360,0,1,,,,,,,,0,,,84,0
297984,note_on,0,0,3,,,,,,,,2,,,72,0
297984,note_on,384,0,3,,,,,,,,2,,,65,0
298080,note_on,120,0,2,,,,,,,,1,,,55,105
298080,note_on,120,0,8,,,,,,,,7,,,55,105
298080,note_on,120,0,7,,,,,,,,6,,,67,105
298080,note_on,120,0,6,,,,,,,,5,,,60,105
298080,note_on,120,0,5,,,,,,,,4,,,69,105
298080,note_on,120,0,9,,,,,,,,8,,,43,105
298260,note_on,180,0,9,,,,,,,,8,,,43,0
298260,note_on,180,0,7,,,,,,,,6,,,67,0
298260,note_on,180,0,2,,,,,,,,1,,,55,0
298260,note_on,180,0,8,,,,,,,,7,,,55,0
298320,note_on,60,0,2,,,,,,,,1,,,51,105
298320,note_on,60,0,9,,,,,,,,8,,,39,105
298320,note_on,60,0,7,,,,,,,,6,,,63,105
298320,note_on,60,0,8,,,,,,,,7,,,51,105
298344,note_on,264,0,5,,,,,,,,4,,,69,0
298344,note_on,264,0,6,,,,,,,,5,,,60,0
298500,note_on,180,0,2,,,,,,,,1,,,51,0
298500,note_on,180,0,7,,,,,,,,6,,,63,0
298500,note_on,180,0,8,,,,,,,,7,,,51,0
298500,note_on,180,0,9,,,,,,,,8,,,39,0
298560,note_on,60,0,8,,,,,,,,7,,,50,105
298560,note_on,60,0,7,,,,,,,,6,,,62,105
298560,note_on,216,0,6,,,,,,,,5,,,62,105
298560,note_on,60,0,9,,,,,,,,8,,,38,105
298560,note_on,216,0,5,,,,,,,,4,,,70,105
298560,note_on,60,0,2,,,,,,,,1,,,50,105
298824,note_on,264,0,5,,,,,,,,4,,,70,0
298824,note_on,264,0,6,,,,,,,,5,,,62,0
298920,note_on,360,0,9,,,,,,,,8,,,38,0
298920,note_on,360,0,8,,,,,,,,7,,,50,0
298920,note_on,360,0,7,,,,,,,,6,,,62,0
298920,note_on,360,0,2,,,,,,,,1,,,50,0
299040,note_on,120,0,9,,,,,,,,8,,,39,105
299040,note_on,216,0,5,,,,,,,,4,,,72,105
299040,note_on,216,0,6,,,,,,,,5,,,63,105
299040,note_on,120,0,8,,,,,,,,7,,,51,105
299040,note_on,120,0,7,,,,,,,,6,,,63,105
299040,note_on,120,0,2,,,,,,,,1,,,51,105
299220,note_on,180,0,8,,,,,,,,7,,,51,0
299220,note_on,180,0,9,,,,,,,,8,,,39,0
299220,note_on,180,0,7,,,,,,,,6,,,63,0
299220,note_on,180,0,2,,,,,,,,1,,,51,0
299280,note_on,60,0,7,,,,,,,,6,,,60,105
299280,note_on,60,0,8,,,,,,,,7,,,48,105
299280,note_on,60,0,2,,,,,,,,1,,,48,105
299280,note_on,60,0,9,,,,,,,,8,,,36,105
299304,note_on,264,0,6,,,,,,,,5,,,63,0
299304,note_on,264,0,5,,,,,,,,4,,,72,0
299460,note_on,180,0,7,,,,,,,,6,,,60,0
299460,note_on,180,0,2,,,,,,,,1,,,48,0
299460,note_on,180,0,9,,,,,,,,8,,,36,0
299460,note_on,180,0,8,,,,,,,,7,,,48,0
299520,note_on,60,0,2,,,,,,,,1,,,46,105
299520,note_on,1536,0,3,,,,,,,,2,,,58,105
299520,note_on,0,0,3,,,,,,,,2,,,70,105
299520,note_on,60,0,7,,,,,,,,6,,,58,105
299520,note_on,60,0,9,,,,,,,,8,,,34,105
299520,note_on,216,0,6,,,,,,,,5,,,65,105
299520,note_on,216,0,5,,,,,,,,4,,,74,105
299520,note_on,60,0,8,,,,,,,,7,,,46,105
299880,note_on,360,0,9,,,,,,,,8,,,34,0
299880,note_on,360,0,5,,,,,,,,4,,,74,0
299880,note_on,360,0,6,,,,,,,,5,,,65,0
299880,note_on,360,0,7,,,,,,,,6,,,58,0
299880,note_on,360,0,2,,,,,,,,1,,,46,0
299880,note_on,360,0,8,,,,,,,,7,,,46,0
300000,note_on,120,0,6,,,,,,,,5,,,65,105
300000,note_on,120,0,7,,,,,,,,6,,,72,105
300000,note_on,2040,0,1,,,,,,,,0,,,77,105
300000,note_on,120,0,9,,,,,,,,8,,,48,105
300000,note_on,120,0,8,,,,,,,,7,,,60,105
300000,note_on,0,0,1,,,,,,,,0,,,74,105
300000,note_on,120,0,2,,,,,,,,1,,,60,105
300000,note_on,120,0,5,,,,,,,,4,,,74,105
300180,note_on,180,0,8,,,,,,,,7,,,60,0
300180,note_on,180,0,2,,,,,,,,1,,,60,0
300180,note_on,180,0,9,,,,,,,,8,,,48,0
300180,note_on,180,0,7,,,,,,,,6,,,72,0
300240,note_on,60,0,2,,,,,,,,1,,,56,105
300240,note_on,60,0,7,,,,,,,,6,,,68,105
300240,note_on,60,0,9,,,,,,,,8,,,44,105
300240,note_on,60,0,8,,,,,,,,7,,,56,105
300264,note_on,264,0,1,,,,,,,,0,,,74,0
300264,note_on,0,0,1,,,,,,,,0,,,77,0
300264,note_on,264,0,6,,,,,,,,5,,,65,0
300264,note_on,264,0,5,,,,,,,,4,,,74,0
300420,note_on,180,0,7,,,,,,,,6,,,68,0
300420,note_on,180,0,2,,,,,,,,1,,,56,0
300420,note_on,180,0,9,,,,,,,,8,,,44,0
300420,note_on,180,0,8,,,,,,,,7,,,56,0
300480,note_on,60,0,2,,,,,,,,1,,,55,105
300480,note_on,60,0,8,,,,,,,,7,,,55,105
300480,note_on,216,0,5,,,,,,,,4,,,75,105
300480,note_on,60,0,9,,,,,,,,8,,,43,105
300480,note_on,216,0,1,,,,,,,,0,,,79,105
300480,note_on,0,0,1,,,,,,,,0,,,75,105
300480,note_on,60,0,7,,,,,,,,6,,,67,105
300480,note_on,216,0,6,,,,,,,,5,,,67,105
300744,note_on,264,0,6,,,,,,,,5,,,67,0
300744,note_on,264,0,1,,,,,,,,0,,,75,0
300744,note_on,0,0,1,,,,,,,,0,,,79,0
300744,note_on,264,0,5,,,,,,,,4,,,75,0
300840,note_on,360,0,8,,,,,,,,7,,,55,0
300840,note_on,360,0,7,,,,,,,,6,,,67,0
300840,note_on,360,0,2,,,,,,,,1,,,55,0
300840,note_on,360,0,9,,,,,,,,8,,,43,0
300960,note_on,216,0,6,,,,,,,,5,,,68,105
300960,note_on,120,0,2,,,,,,,,1,,,56,105
300960,note_on,120,0,7,,,,,,,,6,,,68,105
300960,note_on,0,0,1,,,,,,,,0,,,77,105
300960,note_on,120,0,8,,,,,,,,7,,,56,105
300960,note_on,216,0,1,,,,,,,,0,,,80,105
300960,note_on,120,0,9,,,,,,,,8,,,44,105
300960,note_on,216,0,5,,,,,,,,4,,,77,105
301140,note_on,180,0,2,,,,,,,,1,,,56,0
301140,note_on,180,0,9,,,,,,,,8,,,44,0
301140,note_on,180,0,8,,,,,,,,7,,,56,0
301140,note_on,180,0,7,,,,,,,,6,,,68,0
301200,note_on,60,0,9,,,,,,,,8,,,41,105
301200,note_on,60,0,7,,,,,,,,6,,,65,105
301200,note_on,60,0,8,,,,,,,,7,,,53,105
301200,note_on,60,0,2,,,,,,,,1,,,53,105
301224,note_on,264,0,1,,,,,,,,0,,,77,0
301224,note_on,264,0,5,,,,,,,,4,,,77,0
301224,note_on,0,0,1,,,,,,,,0,,,80,0
301224,note_on,264,0,6,,,,,,,,5,,,68,0
301380,note_on,180,0,9,,,,,,,,8,,,41,0
301380,note_on,180,0,8,,,,,,,,7,,,53,0
301380,note_on,180,0,7,,,,,,,,6,,,65,0
301380,note_on,180,0,2,,,,,,,,1,,,53,0
301440,note_on,60,0,8,,,,,,,,7,,,51,105
301440,note_on,216,0,5,,,,,,,,4,,,79,105
301440,note_on,216,0,1,,,,,,,,0,,,79,105
301440,note_on,60,0,9,,,,,,,,8,,,39,105
301440,note_on,216,0,6,,,,,,,,5,,,70,105
301440,note_on,60,0,2,,,,,,,,1,,,51,105
301440,note_on,0,0,1,,,,,,,,0,,,82,105
301440,note_on,60,0,7,,,,,,,,6,,,63,105
301800,note_on,0,0,1,,,,,,,,0,,,79,0
301800,note_on,360,0,9,,,,,,,,8,,,39,0
301800,note_on,360,0,7,,,,,,,,6,,,63,0
301800,note_on,360,0,8,,,,,,,,7,,,51,0
301800,note_on,360,0,1,,,,,,,,0,,,82,0
301800,note_on,360,0,2,,,,,,,,1,,,51,0
301800,note_on,360,0,5,,,,,,,,4,,,79,0
301800,note_on,360,0,6,,,,,,,,5,,,70,0
301824,note_on,2304,0,3,,,,,,,,2,,,70,0
301824,note_on,0,0,3,,,,,,,,2,,,58,0
301920,note_on,120,0,2,,,,,,,,1,,,53,105
301920,note_on,120,0,7,,,,,,,,6,,,65,105
301920,note_on,120,0,9,,,,,,,,8,,,41,105
301920,note_on,120,0,6,,,,,,,,5,,,58,105
301920,note_on,120,0,8,,,,,,,,7,,,53,105
301920,note_on,120,0,5,,,,,,,,4,,,67,105
302100,note_on,180,0,7,,,,,,,,6,,,65,0
302100,note_on,180,0,8,,,,,,,,7,,,53,0
302100,note_on,180,0,2,,,,,,,,1,,,53,0
302100,note_on,180,0,9,,,,,,,,8,,,41,0
302160,note_on,60,0,2,,,,,,,,1,,,50,105
302160,note_on,60,0,8,,,,,,,,7,,,50,105
302160,note_on,60,0,9,,,,,,,,8,,,38,105
302160,note_on,60,0,7,,,,,,,,6,,,62,105
302184,note_on,264,0,6,,,,,,,,5,,,58,0
302184,note_on,264,0,5,,,,,,,,4,,,67,0
302340,note_on,180,0,2,,,,,,,,1,,,50,0
302340,note_on,180,0,9,,,,,,,,8,,,38,0
302340,note_on,180,0,7,,,,,,,,6,,,62,0
302340,note_on,180,0,8,,,,,,,,7,,,50,0
302400,note_on,60,0,8,,,,,,,,7,,,48,105
302400,note_on,60,0,9,,,,,,,,8,,,36,105
302400,note_on,60,0,2,,,,,,,,1,,,48,105
302400,note_on,216,0,6,,,,,,,,5,,,60,105
302400,note_on,60,0,7,,,,,,,,6,,,60,105
302400,note_on,216,0,5,,,,,,,,4,,,69,105
302664,note_on,264,0,6,,,,,,,,5,,,60,0
302664,note_on,264,0,5,,,,,,,,4,,,69,0
302760,note_on,360,0,8,,,,,,,,7,,,48,0
302760,note_on,360,0,9,,,,,,,,8,,,36,0
302760,note_on,360,0,2,,,,,,,,1,,,48,0
302760,note_on,360,0,7,,,,,,,,6,,,60,0
302880,note_on,120,0,2,,,,,,,,1,,,50,105
302880,note_on,120,0,8,,,,,,,,7,,,50,105
302880,note_on,120,0,9,,,,,,,,8,,,38,105
302880,note_on,216,0,6,,,,,,,,5,,,62,105
302880,note_on,216,0,5,,,,,,,,4,,,70,105
302880,note_on,120,0,7,,,,,,,,6,,,62,105
303060,note_on,180,0,8,,,,,,,,7,,,50,0
303060,note_on,180,0,2,,,,,,,,1,,,50,0
303060,note_on,180,0,9,,,,,,,,8,,,38,0
303060,note_on,180,0,7,,,,,,,,6,,,62,0
303120,note_on,60,0,9,,,,,,,,8,,,34,105
303120,note_on,60,0,2,,,,,,,,1,,,46,105
303120,note_on,60,0,7,,,,,,,,6,,,58,105
303120,note_on,60,0,8,,,,,,,,7,,,46,105
303144,note_on,264,0,5,,,,,,,,4,,,70,0
303144,note_on,264,0,6,,,,,,,,5,,,62,0
303300,note_on,180,0,9,,,,,,,,8,,,34,0
303300,note_on,180,0,8,,,,,,,,7,,,46,0
303300,note_on,180,0,2,,,,,,,,1,,,46,0
303300,note_on,180,0,7,,,,,,,,6,,,58,0
303360,note_on,60,0,9,,,,,,,,8,,,33,105
303360,note_on,60,0,2,,,,,,,,1,,,45,105
303360,note_on,60,0,8,,,,,,,,7,,,45,105
303360,note_on,216,0,5,,,,,,,,4,,,72,105
303360,note_on,99072,0,4,,,,,,,,3,,,69,105
303360,note_on,60,0,7,,,,,,,,6,,,57,105
303360,note_on,216,0,6,,,,,,,,5,,,63,105
303720,note_on,360,0,9,,,,,,,,8,,,33,0
303720,note_on,360,0,7,,,,,,,,6,,,57,0
303720,note_on,360,0,8,,,,,,,,7,,,45,0
303720,note_on,360,0,6,,,,,,,,5,,,63,0
303720,note_on,360,0,2,,,,,,,,1,,,45,0
303720,note_on,360,0,5,,,,,,,,4,,,72,0
303840,note_on,120,0,5,,,,,,,,4,,,72,105
303840,note_on,120,0,7,,,,,,,,6,,,70,105
303840,note_on,120,0,6,,,,,,,,5,,,64,105
303840,note_on,120,0,8,,,,,,,,7,,,58,105
303840,note_on,0,0,1,,,,,,,,0,,,76,105
303840,note_on,2040,0,1,,,,,,,,0,,,72,105
303840,note_on,120,0,2,,,,,,,,1,,,58,105
303840,note_on,120,0,9,,,,,,,,8,,,46,105
304020,note_on,180,0,8,,,,,,,,7,,,58,0
304020,note_on,180,0,2,,,,,,,,1,,,58,0
304020,note_on,180,0,9,,,,,,,,8,,,46,0
304020,note_on,180,0,7,,,,,,,,6,,,70,0
304080,note_on,60,0,2,,,,,,,,1,,,55,105
304080,note_on,60,0,7,,,,,,,,6,,,67,105
304080,note_on,60,0,8,,,,,,,,7,,,55,105
304080,note_on,60,0,9,,,,,,,,8,,,43,105
304104,note_on,0,0,1,,,,,,,,0,,,72,0
304104,note_on,264,0,5,,,,,,,,4,,,72,0
304104,note_on,264,0,1,,,,,,,,0,,,76,0
304104,note_on,264,0,6,,,,,,,,5,,,64,0
304260,note_on,180,0,2,,,,,,,,1,,,55,0
304260,note_on,180,0,7,,,,,,,,6,,,67,0
304260,note_on,180,0,9,,,,,,,,8,,,43,0
304260,note_on,180,0,8,,,,,,,,7,,,55,0
304320,note_on,216,0,1,,,,,,,,0,,,78,105
304320,note_on,60,0,9,,,,,,,,8,,,42,105
304320,note_on,216,0,6,,,,,,,,5,,,66,105
304320,note_on,216,0,5,,,,,,,,4,,,74,105
304320,note_on,0,0,1,,,,,,,,0,,,74,105
304320,note_on,60,0,7,,,,,,,,6,,,66,105
304320,note_on,60,0,2,,,,,,,,1,,,54,105
304320,note_on,60,0,8,,,,,,,,7,,,54,105
304584,note_on,0,0,1,,,,,,,,0,,,78,0
304584,note_on,264,0,6,,,,,,,,5,,,66,0
304584,note_on,264,0,1,,,,,,,,0,,,74,0
304584,note_on,264,0,5,,,,,,,,4,,,74,0
304680,note_on,360,0,8,,,,,,,,7,,,54,0
304680,note_on,360,0,2,,,,,,,,1,,,54,0
304680,note_on,360,0,9,,,,,,,,8,,,42,0
304680,note_on,360,0,7,,,,,,,,6,,,66,0
304800,note_on,120,0,8,,,,,,,,7,,,55,105
304800,note_on,120,0,9,,,,,,,,8,,,43,105
304800,note_on,120,0,2,,,,,,,,1,,,55,105
304800,note_on,0,0,1,,,,,,,,0,,,79,105
304800,note_on,216,0,1,,,,,,,,0,,,76,105
304800,note_on,120,0,7,,,,,,,,6,,,67,105
304800,note_on,216,0,5,,,,,,,,4,,,76,105
304800,note_on,216,0,6,,,,,,,,5,,,67,105
304980,note_on,180,0,2,,,,,,,,1,,,55,0
304980,note_on,180,0,7,,,,,,,,6,,,67,0
304980,note_on,180,0,8,,,,,,,,7,,,55,0
304980,note_on,180,0,9,,,,,,,,8,,,43,0
305040,note_on,60,0,7,,,,,,,,6,,,64,105
305040,note_on,60,0,9,,,,,,,,8,,,40,105
305040,note_on,60,0,2,,,,,,,,1,,,52,105
305040,note_on,60,0,8,,,,,,,,7,,,52,105
305064,note_on,264,0,5,,,,,,,,4,,,76,0
305064,note_on,264,0,1,,,,,,,,0,,,79,0
305064,note_on,0,0,1,,,,,,,,0,,,76,0
305064,note_on,264,0,6,,,,,,,,5,,,67,0
305220,note_on,180,0,7,,,,,,,,6,,,64,0
305220,note_on,180,0,9,,,,,,,,8,,,40,0
305220,note_on,180,0,2,,,,,,,,1,,,52,0
305220,note_on,180,0,8,,,,,,,,7,,,52,0
305280,note_on,216,0,5,,,,,,,,4,,,78,105
305280,note_on,0,0,1,,,,,,,,0,,,81,105
305280,note_on,216,0,6,,,,,,,,5,,,69,105
305280,note_on,216,0,1,,,,,,,,0,,,78,105
305280,note_on,1920,0,4,,,,,,,,3,,,62,105
305280,note_on,60,0,9,,,,,,,,8,,,38,105
305280,note_on,60,0,7,,,,,,,,6,,,62,105
305280,note_on,60,0,8,,,,,,,,7,,,50,105
305280,note_on,60,0,2,,,,,,,,1,,,50,105
305640,note_on,360,0,6,,,,,,,,5,,,69,0
305640,note_on,360,0,9,,,,,,,,8,,,38,0
305640,note_on,360,0,7,,,,,,,,6,,,62,0
305640,note_on,0,0,1,,,,,,,,0,,,78,0
305640,note_on,360,0,8,,,,,,,,7,,,50,0
305640,note_on,360,0,1,,,,,,,,0,,,81,0
305640,note_on,360,0,2,,,,,,,,1,,,50,0
305640,note_on,360,0,5,,,,,,,,4,,,78,0
305664,note_on,384,0,4,,,,,,,,3,,,62,0
305664,note_on,0,0,4,,,,,,,,3,,,69,0
305760,note_on,120,0,7,,,,,,,,6,,,75,105
305760,note_on,120,0,1,,,,,,,,0,,,81,105
305760,note_on,120,0,8,,,,,,,,7,,,63,105
305760,note_on,120,0,2,,,,,,,,1,,,63,105
305760,note_on,120,0,9,,,,,,,,8,,,51,105
305760,note_on,120,0,6,,,,,,,,5,,,72,105
305760,note_on,120,0,5,,,,,,,,4,,,78,105
305760,note_on,0,0,1,,,,,,,,0,,,78,105
305940,note_on,180,0,9,,,,,,,,8,,,51,0
305940,note_on,180,0,8,,,,,,,,7,,,63,0
305940,note_on,180,0,2,,,,,,,,1,,,63,0
305940,note_on,180,0,7,,,,,,,,6,,,75,0
306000,note_on,60,0,9,,,,,,,,8,,,48,105
306000,note_on,240,0,6,,,,,,,,5,,,72,0
306000,note_on,60,0,8,,,,,,,,7,,,60,105
306000,note_on,60,0,2,,,,,,,,1,,,60,105
306000,note_on,0,0,6,,,,,,,,5,,,75,105
306000,note_on,60,0,7,,,,,,,,6,,,72,105
306024,note_on,264,0,5,,,,,,,,4,,,78,0
306024,note_on,0,0,1,,,,,,,,0,,,81,0
306024,note_on,264,0,1,,,,,,,,0,,,78,0
306132,note_on,132,0,6,,,,,,,,5,,,75,0
306180,note_on,180,0,9,,,,,,,,8,,,48,0
306180,note_on,180,0,8,,,,,,,,7,,,60,0
306180,note_on,180,0,2,,,,,,,,1,,,60,0
306180,note_on,180,0,7,,,,,,,,6,,,72,0
306240,note_on,60,0,7,,,,,,,,6,,,70,105
306240,note_on,216,0,5,,,,,,,,4,,,79,105
306240,note_on,108,0,6,,,,,,,,5,,,74,105
306240,note_on,60,0,9,,,,,,,,8,,,46,105
306240,note_on,60,0,8,,,,,,,,7,,,58,105
306240,note_on,216,0,1,,,,,,,,0,,,82,105
306240,note_on,0,0,1,,,,,,,,0,,,79,105
306240,note_on,60,0,2,,,,,,,,1,,,58,105
306504,note_on,264,0,1,,,,,,,,0,,,79,0
306504,note_on,0,0,1,,,,,,,,0,,,82,0
306504,note_on,264,0,5,,,,,,,,4,,,79,0
306504,note_on,264,0,6,,,,,,,,5,,,74,0
306600,note_on,360,0,7,,,,,,,,6,,,70,0
306600,note_on,360,0,2,,,,,,,,1,,,58,0
306600,note_on,360,0,8,,,,,,,,7,,,58,0
306600,note_on,360,0,9,,,,,,,,8,,,46,0
306720,note_on,120,0,9,,,,,,,,8,,,48,105
306720,note_on,0,0,1,,,,,,,,0,,,84,105
306720,note_on,120,0,2,,,,,,,,1,,,60,105
306720,note_on,120,0,7,,,,,,,,6,,,72,105
306720,note_on,216,0,1,,,,,,,,0,,,81,105
306720,note_on,216,0,5,,,,,,,,4,,,81,105
306720,note_on,216,0,6,,,,,,,,5,,,78,105
306720,note_on,120,0,8,,,,,,,,7,,,60,105
306900,note_on,180,0,9,,,,,,,,8,,,48,0
306900,note_on,180,0,8,,,,,,,,7,,,60,0
306900,note_on,180,0,7,,,,,,,,6,,,72,0
306900,note_on,180,0,2,,,,,,,,1,,,60,0
306960,note_on,60,0,9,,,,,,,,8,,,45,105
306960,note_on,60,0,7,,,,,,,,6,,,69,105
306960,note_on,60,0,2,,,,,,,,1,,,57,105
306960,note_on,60,0,8,,,,,,,,7,,,57,105
306984,note_on,264,0,5,,,,,,,,4,,,81,0
306984,note_on,264,0,6,,,,,,,,5,,,78,0
306984,note_on,0,0,1,,,,,,,,0,,,81,0
306984,note_on,264,0,1,,,,,,,,0,,,84,0
307140,note_on,180,0,8,,,,,,,,7,,,57,0
307140,note_on,180,0,7,,,,,,,,6,,,69,0
307140,note_on,180,0,9,,,,,,,,8,,,45,0
307140,note_on,180,0,2,,,,,,,,1,,,57,0
307200,note_on,216,0,1,,,,,,,,0,,,74,105
307200,note_on,5376,0,3,,,,,,,,2,,,70,105
307200,note_on,60,0,8,,,,,,,,7,,,55,105
307200,note_on,60,0,7,,,,,,,,6,,,67,105
307200,note_on,60,0,9,,,,,,,,8,,,43,105
307200,note_on,0,0,1,,,,,,,,0,,,82,105
307200,note_on,216,0,6,,,,,,,,5,,,79,105
307200,note_on,60,0,2,,,,,,,,1,,,55,105
307200,note_on,216,0,5,,,,,,,,4,,,82,105
307380,note_on,180,0,6,,,,,,,,5,,,79,0
307440,note_on,60,0,6,,,,,,,,5,,,79,105
307560,note_on,360,0,8,,,,,,,,7,,,55,0
307560,note_on,360,0,9,,,,,,,,8,,,43,0
307560,note_on,360,0,5,,,,,,,,4,,,82,0
307560,note_on,360,0,1,,,,,,,,0,,,82,0
307560,note_on,360,0,2,,,,,,,,1,,,55,0
307560,note_on,360,0,7,,,,,,,,6,,,67,0
307620,note_on,180,0,6,,,,,,,,5,,,79,0
307680,note_on,120,0,9,,,,,,,,8,,,43,105
307680,note_on,120,0,8,,,,,,,,7,,,55,105
307680,note_on,120,0,7,,,,,,,,6,,,67,105
307680,note_on,120,0,5,,,,,,,,4,,,82,105
307680,note_on,120,0,1,,,,,,,,0,,,82,105
307680,note_on,60,0,6,,,,,,,,5,,,74,105
307680,note_on,2016,0,4,,,,,,,,3,,,67,105
307680,note_on,120,0,2,,,,,,,,1,,,55,105
307860,note_on,180,0,6,,,,,,,,5,,,74,0
307920,note_on,60,0,6,,,,,,,,5,,,70,105
308040,note_on,360,0,2,,,,,,,,1,,,55,0
308040,note_on,360,0,1,,,,,,,,0,,,74,0
308040,note_on,360,0,8,,,,,,,,7,,,55,0
308040,note_on,360,0,7,,,,,,,,6,,,67,0
308040,note_on,360,0,9,,,,,,,,8,,,43,0
308040,note_on,360,0,5,,,,,,,,4,,,82,0
308100,note_on,180,0,6,,,,,,,,5,,,70,0
308160,note_on,120,0,2,,,,,,,,1,,,52,105
308160,note_on,120,0,9,,,,,,,,8,,,40,105
308160,note_on,120,0,7,,,,,,,,6,,,64,105
308160,note_on,120,0,8,,,,,,,,7,,,52,105
308160,note_on,120,0,1,,,,,,,,0,,,72,105
308160,note_on,120,0,5,,,,,,,,4,,,72,105
308160,note_on,60,0,6,,,,,,,,5,,,67,105
308340,note_on,180,0,6,,,,,,,,5,,,67,0
308400,note_on,60,0,6,,,,,,,,5,,,70,105
308400,note_on,720,0,4,,,,,,,,3,,,67,0
308520,note_on,360,0,9,,,,,,,,8,,,40,0
308520,note_on,360,0,7,,,,,,,,6,,,64,0
308520,note_on,360,0,1,,,,,,,,0,,,82,0
308520,note_on,360,0,2,,,,,,,,1,,,52,0
308520,note_on,360,0,5,,,,,,,,4,,,72,0
308520,note_on,360,0,8,,,,,,,,7,,,52,0
308544,note_on,1344,0,3,,,,,,,,2,,,70,0
308580,note_on,180,0,6,,,,,,,,5,,,70,0
308640,note_on,120,0,8,,,,,,,,7,,,53,105
308640,note_on,240,0,4,,,,,,,,3,,,69,105
308640,note_on,120,0,1,,,,,,,,0,,,81,105
308640,note_on,120,0,2,,,,,,,,1,,,53,105
308640,note_on,120,0,5,,,,,,,,4,,,81,105
308640,note_on,120,0,7,,,,,,,,6,,,65,105
308640,note_on,120,0,9,,,,,,,,8,,,41,105
308640,note_on,60,0,6,,,,,,,,5,,,69,105
308820,note_on,180,0,6,,,,,,,,5,,,69,0
308880,note_on,60,0,6,,,,,,,,5,,,67,105
309000,note_on,360,0,7,,,,,,,,6,,,65,0
309000,note_on,360,0,2,,,,,,,,1,,,53,0
309000,note_on,360,0,9,,,,,,,,8,,,41,0
309000,note_on,360,0,5,,,,,,,,4,,,81,0
309000,note_on,360,0,1,,,,,,,,0,,,72,0
309000,note_on,360,0,8,,,,,,,,7,,,53,0
309060,note_on,180,0,6,,,,,,,,5,,,67,0
309120,note_on,120,0,2,,,,,,,,1,,,50,105
309120,note_on,60,0,6,,,,,,,,5,,,65,105
309120,note_on,120,0,9,,,,,,,,8,,,38,105
309120,note_on,120,0,5,,,,,,,,4,,,70,105
309120,note_on,120,0,8,,,,,,,,7,,,50,105
309120,note_on,120,0,7,,,,,,,,6,,,62,105
309120,note_on,120,0,1,,,,,,,,0,,,70,105
309300,note_on,180,0,6,,,,,,,,5,,,65,0
309360,note_on,60,0,6,,,,,,,,5,,,69,105
309480,note_on,360,0,2,,,,,,,,1,,,50,0
309480,note_on,360,0,8,,,,,,,,7,,,50,0
309480,note_on,360,0,7,,,,,,,,6,,,62,0
309480,note_on,360,0,9,,,,,,,,8,,,38,0
309480,note_on,360,0,5,,,,,,,,4,,,70,0
309480,note_on,840,0,4,,,,,,,,3,,,69,0
309480,note_on,360,0,1,,,,,,,,0,,,81,0
309540,note_on,180,0,6,,,,,,,,5,,,69,0
309600,note_on,120,0,1,,,,,,,,0,,,79,105
309600,note_on,120,0,2,,,,,,,,1,,,52,105
309600,note_on,120,0,9,,,,,,,,8,,,40,105
309600,note_on,120,0,8,,,,,,,,7,,,52,105
309600,note_on,60,0,6,,,,,,,,5,,,67,105
309600,note_on,120,0,4,,,,,,,,3,,,67,105
309600,note_on,120,0,5,,,,,,,,4,,,79,105
309600,note_on,120,0,7,,,,,,,,6,,,64,105
309780,note_on,180,0,6,,,,,,,,5,,,67,0
309840,note_on,60,0,6,,,,,,,,5,,,65,105
309840,note_on,0,0,1,,,,,,,,0,,,77,105
309840,note_on,240,0,1,,,,,,,,0,,,79,0
309960,note_on,360,0,8,,,,,,,,7,,,52,0
309960,note_on,360,0,9,,,,,,,,8,,,40,0
309960,note_on,360,0,4,,,,,,,,3,,,67,0
309960,note_on,360,0,5,,,,,,,,4,,,79,0
309960,note_on,360,0,7,,,,,,,,6,,,64,0
309960,note_on,360,0,2,,,,,,,,1,,,52,0
310020,note_on,180,0,6,,,,,,,,5,,,65,0
310032,note_on,192,0,1,,,,,,,,0,,,77,0
310032,note_on,0,0,1,,,,,,,,0,,,70,0
310080,note_on,120,0,4,,,,,,,,3,,,69,105
310080,note_on,120,0,7,,,,,,,,6,,,61,105
310080,note_on,120,0,8,,,,,,,,7,,,49,105
310080,note_on,120,0,2,,,,,,,,1,,,49,105
310080,note_on,60,0,6,,,,,,,,5,,,64,105
310080,note_on,120,0,9,,,,,,,,8,,,37,105
310080,note_on,120,0,5,,,,,,,,4,,,69,105
310080,note_on,0,0,1,,,,,,,,0,,,79,105
310080,note_on,48,0,1,,,,,,,,0,,,76,105
310260,note_on,180,0,6,,,,,,,,5,,,64,0
310320,note_on,60,0,6,,,,,,,,5,,,67,105
310440,note_on,360,0,2,,,,,,,,1,,,49,0
310440,note_on,360,0,8,,,,,,,,7,,,49,0
310440,note_on,360,0,5,,,,,,,,4,,,69,0
310440,note_on,0,0,1,,,,,,,,0,,,76,0
310440,note_on,360,0,7,,,,,,,,6,,,61,0
310440,note_on,360,0,1,,,,,,,,0,,,79,0
310440,note_on,360,0,9,,,,,,,,8,,,37,0
310500,note_on,180,0,6,,,,,,,,5,,,67,0
310560,note_on,120,0,5,,,,,,,,4,,,77,105
310560,note_on,60,0,6,,,,,,,,5,,,65,105
310560,note_on,120,0,7,,,,,,,,6,,,62,105
310560,note_on,0,0,1,,,,,,,,0,,,81,105
310560,note_on,120,0,1,,,,,,,,0,,,77,105
310560,note_on,120,0,9,,,,,,,,8,,,38,105
310560,note_on,120,0,2,,,,,,,,1,,,50,105
310560,note_on,120,0,8,,,,,,,,7,,,50,105
310740,note_on,180,0,6,,,,,,,,5,,,65,0
310800,note_on,60,0,6,,,,,,,,5,,,64,105
310800,note_on,720,0,4,,,,,,,,3,,,69,0
310920,note_on,360,0,8,,,,,,,,7,,,50,0
310920,note_on,360,0,2,,,,,,,,1,,,50,0
310920,note_on,360,0,7,,,,,,,,6,,,62,0
310920,note_on,360,0,5,,,,,,,,4,,,77,0
310920,note_on,360,0,9,,,,,,,,8,,,38,0
310920,note_on,360,0,1,,,,,,,,0,,,81,0
310980,note_on,180,0,6,,,,,,,,5,,,64,0
311040,note_on,120,0,1,,,,,,,,0,,,80,105
311040,note_on,120,0,7,,,,,,,,6,,,59,105
311040,note_on,120,0,5,,,,,,,,4,,,68,105
311040,note_on,120,0,2,,,,,,,,1,,,47,105
311040,note_on,240,0,4,,,,,,,,3,,,62,105
311040,note_on,120,0,9,,,,,,,,8,,,35,105
311040,note_on,120,0,8,,,,,,,,7,,,47,105
311040,note_on,60,0,6,,,,,,,,5,,,62,105
311400,note_on,360,0,4,,,,,,,,3,,,62,0
311400,note_on,360,0,7,,,,,,,,6,,,59,0
311400,note_on,360,0,9,,,,,,,,8,,,35,0
311400,note_on,360,0,8,,,,,,,,7,,,47,0
311400,note_on,360,0,2,,,,,,,,1,,,47,0
311400,note_on,360,0,5,,,,,,,,4,,,68,0
311400,note_on,360,0,6,,,,,,,,5,,,62,0
311424,note_on,384,0,1,,,,,,,,0,,,80,0
311424,note_on,0,0,1,,,,,,,,0,,,77,0
311520,note_on,120,0,6,,,,,,,,5,,,64,105
311520,note_on,120,0,7,,,,,,,,6,,,61,105
311520,note_on,96,0,1,,,,,,,,0,,,76,105
311520,note_on,0,0,1,,,,,,,,0,,,79,105
311520,note_on,120,0,4,,,,,,,,3,,,69,105
311520,note_on,120,0,5,,,,,,,,4,,,67,105
311520,note_on,120,0,9,,,,,,,,8,,,37,105
311520,note_on,120,0,8,,,,,,,,7,,,49,105
311520,note_on,120,0,2,,,,,,,,1,,,49,105
311880,note_on,360,0,4,,,,,,,,3,,,69,0
311880,note_on,360,0,9,,,,,,,,8,,,37,0
311880,note_on,360,0,6,,,,,,,,5,,,64,0
311880,note_on,360,0,5,,,,,,,,4,,,67,0
311880,note_on,360,0,7,,,,,,,,6,,,61,0
311880,note_on,360,0,2,,,,,,,,1,,,49,0
311880,note_on,360,0,8,,,,,,,,7,,,49,0
311904,note_on,384,0,1,,,,,,,,0,,,79,0
311904,note_on,0,0,1,,,,,,,,0,,,76,0
312000,note_on,120,0,2,,,,,,,,1,,,50,105
312000,note_on,120,0,5,,,,,,,,4,,,66,105
312000,note_on,120,0,7,,,,,,,,6,,,62,105
312000,note_on,120,0,8,,,,,,,,7,,,50,105
312000,note_on,0,0,4,,,,,,,,3,,,62,105
312000,note_on,120,0,6,,,,,,,,5,,,57,105
312000,note_on,96,0,1,,,,,,,,0,,,78,105
312000,note_on,120,0,9,,,,,,,,8,,,38,105
312000,note_on,0,0,1,,,,,,,,0,,,74,105
312000,note_on,120,0,4,,,,,,,,3,,,69,105
312360,note_on,360,0,2,,,,,,,,1,,,50,0
312360,note_on,360,0,7,,,,,,,,6,,,62,0
312360,note_on,360,0,4,,,,,,,,3,,,69,0
312360,note_on,360,0,9,,,,,,,,8,,,38,0
312360,note_on,360,0,6,,,,,,,,5,,,57,0
312360,note_on,360,0,5,,,,,,,,4,,,66,0
312360,note_on,360,0,8,,,,,,,,7,,,50,0
312384,note_on,384,0,1,,,,,,,,0,,,78,0
312480,note_on,120,0,9,,,,,,,,8,,,32,105
312480,note_on,120,0,7,,,,,,,,6,,,56,105
312480,note_on,120,0,4,,,,,,,,3,,,71,105
312480,note_on,120,0,2,,,,,,,,1,,,44,105
312480,note_on,96,0,1,,,,,,,,0,,,77,105
312480,note_on,120,0,5,,,,,,,,4,,,65,105
312480,note_on,120,0,8,,,,,,,,7,,,44,105
312480,note_on,120,0,6,,,,,,,,5,,,59,105
312840,note_on,360,0,9,,,,,,,,8,,,32,0
312840,note_on,0,0,4,,,,,,,,3,,,62,0
312840,note_on,360,0,7,,,,,,,,6,,,56,0
312840,note_on,360,0,5,,,,,,,,4,,,65,0
312840,note_on,360,0,6,,,,,,,,5,,,59,0
312840,note_on,360,0,4,,,,,,,,3,,,71,0
312840,note_on,360,0,2,,,,,,,,1,,,44,0
312840,note_on,360,0,8,,,,,,,,7,,,44,0
312864,note_on,384,0,1,,,,,,,,0,,,77,0
312864,note_on,0,0,1,,,,,,,,0,,,74,0
312960,note_on,120,0,7,,,,,,,,6,,,57,105
312960,note_on,120,0,9,,,,,,,,8,,,33,105
312960,note_on,120,0,6,,,,,,,,5,,,61,105
312960,note_on,120,0,4,,,,,,,,3,,,69,105
312960,note_on,120,0,2,,,,,,,,1,,,45,105
312960,note_on,120,0,5,,,,,,,,4,,,64,105
312960,note_on,120,0,8,,,,,,,,7,,,45,105
312960,note_on,0,0,1,,,,,,,,0,,,76,105
312960,note_on,96,0,1,,,,,,,,0,,,73,105
313272,note_on,312,0,5,,,,,,,,4,,,64,0
313440,note_on,168,0,5,,,,,,,,4,,,81,105
313440,note_on,0,0,5,,,,,,,,4,,,69,92
313632,note_on,0,0,5,,,,,,,,4,,,81,0
313632,note_on,192,0,5,,,,,,,,4,,,69,0
313680,note_on,48,0,5,,,,,,,,4,,,81,92
313680,note_on,0,0,5,,,,,,,,4,,,69,92
313728,note_on,768,0,2,,,,,,,,1,,,45,0
313728,note_on,768,0,7,,,,,,,,6,,,57,0
313728,note_on,768,0,8,,,,,,,,7,,,45,0
313728,note_on,768,0,1,,,,,,,,0,,,76,0
313728,note_on,0,0,1,,,,,,,,0,,,73,0
313728,note_on,768,0,9,,,,,,,,8,,,33,0
313728,note_on,768,0,6,,,,,,,,5,,,61,0
313872,note_on,0,0,5,,,,,,,,4,,,81,0
313872,note_on,192,0,5,,,,,,,,4,,,69,0
313920,note_on,48,0,5,,,,,,,,4,,,69,92
313920,note_on,0,0,5,,,,,,,,4,,,81,92
314112,note_on,192,0,5,,,,,,,,4,,,81,0
314112,note_on,0,0,5,,,,,,,,4,,,69,0
314160,note_on,48,0,5,,,,,,,,4,,,69,92
314160,note_on,0,0,5,,,,,,,,4,,,81,92
314352,note_on,0,0,5,,,,,,,,4,,,69,0
314352,note_on,192,0,5,,,,,,,,4,,,81,0
314400,note_on,672,0,6,,,,,,,,5,,,64,105
314400,note_on,672,0,2,,,,,,,,1,,,61,105
314400,note_on,48,0,5,,,,,,,,4,,,81,92
314400,note_on,0,0,5,,,,,,,,4,,,69,92
314400,note_on,672,0,8,,,,,,,,7,,,61,105
314400,note_on,672,0,7,,,,,,,,6,,,61,92
314400,note_on,672,0,9,,,,,,,,8,,,49,105
314592,note_on,192,0,5,,,,,,,,4,,,69,0
314592,note_on,0,0,5,,,,,,,,4,,,81,0
314640,note_on,48,0,5,,,,,,,,4,,,81,92
314640,note_on,0,0,5,,,,,,,,4,,,69,92
314664,note_on,264,0,2,,,,,,,,1,,,61,0
314664,note_on,264,0,7,,,,,,,,6,,,61,0
314664,note_on,264,0,9,,,,,,,,8,,,49,0
314664,note_on,264,0,6,,,,,,,,5,,,64,0
314664,note_on,264,0,8,,,,,,,,7,,,61,0
314832,note_on,0,0,5,,,,,,,,4,,,81,0
314832,note_on,192,0,5,,,,,,,,4,,,69,0
314880,note_on,48,0,5,,,,,,,,4,,,69,92
314880,note_on,216,0,8,,,,,,,,7,,,61,92
314880,note_on,216,0,7,,,,,,,,6,,,61,92
314880,note_on,216,0,6,,,,,,,,5,,,64,116
314880,note_on,216,0,2,,,,,,,,1,,,61,105
314880,note_on,0,0,5,,,,,,,,4,,,81,92
314880,note_on,216,0,9,,,,,,,,8,,,49,105
315072,note_on,0,0,5,,,,,,,,4,,,69,0
315072,note_on,192,0,5,,,,,,,,4,,,81,0
315120,note_on,48,0,5,,,,,,,,4,,,81,92
315120,note_on,0,0,5,,,,,,,,4,,,69,92
315312,note_on,192,0,5,,,,,,,,4,,,69,0
315312,note_on,0,0,5,,,,,,,,4,,,81,0
315360,note_on,48,0,5,,,,,,,,4,,,69,92
315360,note_on,0,0,5,,,,,,,,4,,,81,92
315552,note_on,192,0,5,,,,,,,,4,,,81,0
315552,note_on,0,0,5,,,,,,,,4,,,69,0
315600,note_on,48,0,5,,,,,,,,4,,,81,92
315600,note_on,0,0,5,,,,,,,,4,,,69,92
315792,note_on,192,0,5,,,,,,,,4,,,69,0
315792,note_on,0,0,5,,,,,,,,4,,,81,0
315840,note_on,960,0,8,,,,,,,,7,,,61,0
315840,note_on,0,0,8,,,,,,,,7,,,62,92
315840,note_on,960,0,9,,,,,,,,8,,,49,0
315840,note_on,0,0,6,,,,,,,,5,,,65,116
315840,note_on,960,0,2,,,,,,,,1,,,61,0
315840,note_on,960,0,6,,,,,,,,5,,,64,0
315840,note_on,960,0,7,,,,,,,,6,,,61,0
315840,note_on,0,0,5,,,,,,,,4,,,81,92
315840,note_on,48,0,5,,,,,,,,4,,,69,92
315840,note_on,0,0,9,,,,,,,,8,,,50,105
315840,note_on,0,0,2,,,,,,,,1,,,62,105
315840,note_on,0,0,7,,,,,,,,6,,,62,92
316032,note_on,192,0,5,,,,,,,,4,,,81,0
316032,note_on,0,0,5,,,,,,,,4,,,69,0
316080,note_on,48,0,5,,,,,,,,4,,,69,92
316080,note_on,0,0,5,,,,,,,,4,,,81,92
316104,note_on,264,0,2,,,,,,,,1,,,62,0
316152,note_on,312,0,7,,,,,,,,6,,,62,0
316152,note_on,312,0,8,,,,,,,,7,,,62,0
316152,note_on,312,0,6,,,,,,,,5,,,65,0
316152,note_on,312,0,9,,,,,,,,8,,,50,0
316272,note_on,192,0,5,,,,,,,,4,,,81,0
316272,note_on,0,0,5,,,,,,,,4,,,69,0
316320,note_on,0,0,5,,,,,,,,4,,,69,92
316320,note_on,48,0,5,,,,,,,,4,,,81,92
316320,note_on,216,0,2,,,,,,,,1,,,63,105
316320,note_on,168,0,6,,,,,,,,5,,,66,116
316320,note_on,168,0,9,,,,,,,,8,,,51,105
316320,note_on,168,0,8,,,,,,,,7,,,63,92
316320,note_on,168,0,7,,,,,,,,6,,,63,92
316512,note_on,192,0,5,,,,,,,,4,,,69,0
316512,note_on,0,0,5,,,,,,,,4,,,81,0
316560,note_on,48,0,5,,,,,,,,4,,,69,92
316560,note_on,0,0,5,,,,,,,,4,,,81,92
316584,note_on,264,0,6,,,,,,,,5,,,66,0
316584,note_on,264,0,7,,,,,,,,6,,,63,0
316584,note_on,264,0,8,,,,,,,,7,,,63,0
316584,note_on,264,0,9,,,,,,,,8,,,51,0
316584,note_on,264,0,2,,,,,,,,1,,,63,0
316752,note_on,192,0,5,,,,,,,,4,,,81,0
316752,note_on,0,0,5,,,,,,,,4,,,69,0
316800,note_on,216,0,8,,,,,,,,7,,,63,92
316800,note_on,216,0,9,,,,,,,,8,,,51,105
316800,note_on,216,0,2,,,,,,,,1,,,63,105
316800,note_on,216,0,6,,,,,,,,5,,,66,116
316800,note_on,48,0,5,,,,,,,,4,,,81,92
316800,note_on,0,0,5,,,,,,,,4,,,69,92
316800,note_on,216,0,7,,,,,,,,6,,,63,92
316992,note_on,192,0,5,,,,,,,,4,,,69,0
316992,note_on,0,0,5,,,,,,,,4,,,81,0
317040,note_on,0,0,5,,,,,,,,4,,,81,92
317040,note_on,48,0,5,,,,,,,,4,,,69,92
317232,note_on,0,0,5,,,,,,,,4,,,69,0
317232,note_on,192,0,5,,,,,,,,4,,,81,0
317280,note_on,0,0,5,,,,,,,,4,,,69,92
317280,note_on,48,0,5,,,,,,,,4,,,81,92
317472,note_on,0,0,5,,,,,,,,4,,,81,0
317472,note_on,192,0,5,,,,,,,,4,,,69,0
317520,note_on,48,0,5,,,,,,,,4,,,69,92
317520,note_on,0,0,5,,,,,,,,4,,,81,92
317712,note_on,0,0,5,,,,,,,,4,,,69,0
317712,note_on,192,0,5,,,,,,,,4,,,81,0
317760,note_on,960,0,2,,,,,,,,1,,,63,0
317760,note_on,0,0,2,,,,,,,,1,,,64,105
317760,note_on,0,0,7,,,,,,,,6,,,64,92
317760,note_on,960,0,7,,,,,,,,6,,,63,0
317760,note_on,48,0,5,,,,,,,,4,,,69,92
317760,note_on,960,0,9,,,,,,,,8,,,51,0
317760,note_on,0,0,9,,,,,,,,8,,,52,105
317760,note_on,0,0,8,,,,,,,,7,,,64,92
317760,note_on,0,0,5,,,,,,,,4,,,81,92
317760,note_on,960,0,8,,,,,,,,7,,,63,0
317760,note_on,960,0,6,,,,,,,,5,,,66,0
317760,note_on,0,0,6,,,,,,,,5,,,67,116
317952,note_on,0,0,5,,,,,,,,4,,,69,0
317952,note_on,192,0,5,,,,,,,,4,,,81,0
318000,note_on,0,0,5,,,,,,,,4,,,81,92
318000,note_on,48,0,5,,,,,,,,4,,,69,92
318024,note_on,264,0,2,,,,,,,,1,,,64,0
318072,note_on,312,0,8,,,,,,,,7,,,64,0
318072,note_on,312,0,7,,,,,,,,6,,,64,0
318072,note_on,312,0,9,,,,,,,,8,,,52,0
318072,note_on,312,0,6,,,,,,,,5,,,67,0
318192,note_on,192,0,5,,,,,,,,4,,,81,0
318192,note_on,0,0,5,,,,,,,,4,,,69,0
318240,note_on,48,0,5,,,,,,,,4,,,81,92
318240,note_on,168,0,6,,,,,,,,5,,,68,116
318240,note_on,168,0,9,,,,,,,,8,,,52,105
318240,note_on,168,0,8,,,,,,,,7,,,64,92
318240,note_on,216,0,2,,,,,,,,1,,,64,105
318240,note_on,0,0,5,,,,,,,,4,,,69,92
318240,note_on,168,0,7,,,,,,,,6,,,64,92
318432,note_on,0,0,5,,,,,,,,4,,,81,0
318432,note_on,192,0,5,,,,,,,,4,,,69,0
318480,note_on,48,0,5,,,,,,,,4,,,69,92
318480,note_on,0,0,5,,,,,,,,4,,,81,92
318504,note_on,264,0,2,,,,,,,,1,,,64,0
318504,note_on,264,0,9,,,,,,,,8,,,52,0
318504,note_on,264,0,6,,,,,,,,5,,,68,0
318504,note_on,264,0,7,,,,,,,,6,,,64,0
318504,note_on,264,0,8,,,,,,,,7,,,64,0
318672,note_on,192,0,5,,,,,,,,4,,,81,0
318672,note_on,0,0,5,,,,,,,,4,,,69,0
318720,note_on,216,0,2,,,,,,,,1,,,65,105
318720,note_on,0,0,5,,,,,,,,4,,,81,92
318720,note_on,216,0,8,,,,,,,,7,,,65,92
318720,note_on,48,0,5,,,,,,,,4,,,69,92
318720,note_on,216,0,7,,,,,,,,6,,,65,92
318720,note_on,216,0,6,,,,,,,,5,,,69,116
318720,note_on,216,0,9,,,,,,,,8,,,53,105
318912,note_on,0,0,5,,,,,,,,4,,,69,0
318912,note_on,192,0,5,,,,,,,,4,,,81,0
318960,note_on,0,0,5,,,,,,,,4,,,81,92
318960,note_on,48,0,5,,,,,,,,4,,,69,92
319032,note_on,312,0,2,,,,,,,,1,,,65,0
319032,note_on,312,0,6,,,,,,,,5,,,69,0
319032,note_on,312,0,7,,,,,,,,6,,,65,0
319032,note_on,312,0,9,,,,,,,,8,,,53,0
319032,note_on,312,0,8,,,,,,,,7,,,65,0
319152,note_on,0,0,5,,,,,,,,4,,,69,0
319152,note_on,192,0,5,,,,,,,,4,,,81,0
319200,note_on,0,0,5,,,,,,,,4,,,69,92
319200,note_on,48,0,5,,,,,,,,4,,,81,92
319200,note_on,168,0,8,,,,,,,,7,,,62,92
319200,note_on,168,0,7,,,,,,,,6,,,62,92
319200,note_on,168,0,9,,,,,,,,8,,,50,105
319200,note_on,168,0,2,,,,,,,,1,,,62,105
319200,note_on,168,0,6,,,,,,,,5,,,65,116
319392,note_on,0,0,5,,,,,,,,4,,,81,0
319392,note_on,192,0,5,,,,,,,,4,,,69,0
319440,note_on,0,0,5,,,,,,,,4,,,81,92
319440,note_on,48,0,5,,,,,,,,4,,,69,92
319512,note_on,312,0,9,,,,,,,,8,,,50,0
319512,note_on,312,0,8,,,,,,,,7,,,62,0
319512,note_on,312,0,2,,,,,,,,1,,,62,0
319512,note_on,312,0,7,,,,,,,,6,,,62,0
319512,note_on,312,0,6,,,,,,,,5,,,65,0
319632,note_on,192,0,5,,,,,,,,4,,,81,0
319632,note_on,0,0,5,,,,,,,,4,,,69,0
319680,note_on,168,0,7,,,,,,,,6,,,64,92
319680,note_on,168,0,2,,,,,,,,1,,,64,105
319680,note_on,0,0,5,,,,,,,,4,,,69,92
319680,note_on,168,0,6,,,,,,,,5,,,67,116
319680,note_on,168,0,8,,,,,,,,7,,,64,92
319680,note_on,48,0,5,,,,,,,,4,,,81,92
319680,note_on,168,0,9,,,,,,,,8,,,52,105
319872,note_on,192,0,5,,,,,,,,4,,,69,0
319872,note_on,0,0,5,,,,,,,,4,,,81,0
319920,note_on,0,0,5,,,,,,,,4,,,81,92
319920,note_on,48,0,5,,,,,,,,4,,,69,92
319992,note_on,312,0,7,,,,,,,,6,,,64,0
319992,note_on,312,0,8,,,,,,,,7,,,64,0
319992,note_on,312,0,2,,,,,,,,1,,,64,0
319992,note_on,312,0,9,,,,,,,,8,,,52,0
319992,note_on,312,0,6,,,,,,,,5,,,67,0
320112,note_on,0,0,5,,,,,,,,4,,,69,0
320112,note_on,192,0,5,,,,,,,,4,,,81,0
320160,note_on,168,0,6,,,,,,,,5,,,64,116
320160,note_on,48,0,5,,,,,,,,4,,,69,92
320160,note_on,168,0,9,,,,,,,,8,,,49,105
320160,note_on,168,0,2,,,,,,,,1,,,61,105
320160,note_on,168,0,8,,,,,,,,7,,,61,92
320160,note_on,168,0,7,,,,,,,,6,,,61,92
320160,note_on,0,0,5,,,,,,,,4,,,81,92
320352,note_on,0,0,5,,,,,,,,4,,,69,0
320352,note_on,192,0,5,,,,,,,,4,,,81,0
320400,note_on,0,0,5,,,,,,,,4,,,81,92
320400,note_on,48,0,5,,,,,,,,4,,,69,92
320472,note_on,312,0,6,,,,,,,,5,,,64,0
320472,note_on,312,0,7,,,,,,,,6,,,61,0
320472,note_on,312,0,8,,,,,,,,7,,,61,0
320472,note_on,312,0,9,,,,,,,,8,,,49,0
320472,note_on,312,0,2,,,,,,,,1,,,61,0
320592,note_on,0,0,5,,,,,,,,4,,,69,0
320592,note_on,192,0,5,,,,,,,,4,,,81,0
320640,note_on,48,0,5,,,,,,,,4,,,69,92
320640,note_on,168,0,8,,,,,,,,7,,,62,92
320640,note_on,168,0,9,,,,,,,,8,,,50,105
320640,note_on,0,0,1,,,,,,,,0,,,69,105
320640,note_on,168,0,7,,,,,,,,6,,,62,92
320640,note_on,0,0,5,,,,,,,,4,,,81,92
320640,note_on,6912,0,1,,,,,,,,0,,,81,105
320640,note_on,168,0,2,,,,,,,,1,,,62,105
320640,note_on,168,0,6,,,,,,,,5,,,65,116
320820,note_on,180,0,8,,,,,,,,7,,,62,0
320820,note_on,180,0,2,,,,,,,,1,,,62,0
320820,note_on,180,0,6,,,,,,,,5,,,65,0
320820,note_on,180,0,9,,,,,,,,8,,,50,0
320820,note_on,180,0,7,,,,,,,,6,,,62,0
320832,note_on,0,0,5,,,,,,,,4,,,69,0
320832,note_on,192,0,5,,,,,,,,4,,,81,0
320880,note_on,0,0,5,,,,,,,,4,,,69,92
320880,note_on,60,0,7,,,,,,,,6,,,64,92
320880,note_on,60,0,9,,,,,,,,8,,,52,105
320880,note_on,48,0,5,,,,,,,,4,,,81,92
320880,note_on,60,0,8,,,,,,,,7,,,64,92
320880,note_on,60,0,6,,,,,,,,5,,,67,116
320880,note_on,60,0,2,,,,,,,,1,,,64,105
321060,note_on,180,0,9,,,,,,,,8,,,52,0
321060,note_on,180,0,8,,,,,,,,7,,,64,0
321060,note_on,180,0,7,,,,,,,,6,,,64,0
321060,note_on,180,0,2,,,,,,,,1,,,64,0
321060,note_on,180,0,6,,,,,,,,5,,,67,0
321072,note_on,0,0,5,,,,,,,,4,,,81,0
321072,note_on,192,0,5,,,,,,,,4,,,69,0
321120,note_on,60,0,9,,,,,,,,8,,,53,105
321120,note_on,60,0,7,,,,,,,,6,,,65,92
321120,note_on,60,0,6,,,,,,,,5,,,69,116
321120,note_on,0,0,5,,,,,,,,4,,,69,92
321120,note_on,60,0,2,,,,,,,,1,,,65,105
321120,note_on,60,0,8,,,,,,,,7,,,65,92
321120,note_on,48,0,5,,,,,,,,4,,,81,92
321300,note_on,180,0,2,,,,,,,,1,,,65,0
321300,note_on,180,0,8,,,,,,,,7,,,65,0
321300,note_on,180,0,9,,,,,,,,8,,,53,0
321300,note_on,180,0,6,,,,,,,,5,,,69,0
321300,note_on,180,0,7,,,,,,,,6,,,65,0
321312,note_on,192,0,5,,,,,,,,4,,,69,0
321312,note_on,0,0,5,,,,,,,,4,,,81,0
321360,note_on,60,0,8,,,,,,,,7,,,62,92
321360,note_on,60,0,9,,,,,,,,8,,,50,105
321360,note_on,48,0,5,,,,,,,,4,,,81,92
321360,note_on,60,0,7,,,,,,,,6,,,62,92
321360,note_on,0,0,5,,,,,,,,4,,,69,92
321360,note_on,60,0,2,,,,,,,,1,,,62,105
321360,note_on,60,0,6,,,,,,,,5,,,65,116
321540,note_on,180,0,9,,,,,,,,8,,,50,0
321540,note_on,180,0,7,,,,,,,,6,,,62,0
321540,note_on,180,0,2,,,,,,,,1,,,62,0
321540,note_on,180,0,8,,,,,,,,7,,,62,0
321540,note_on,180,0,6,,,,,,,,5,,,65,0
321552,note_on,192,0,5,,,,,,,,4,,,69,0
321552,note_on,0,0,5,,,,,,,,4,,,81,0
321600,note_on,0,0,5,,,,,,,,4,,,69,92
321600,note_on,48,0,5,,,,,,,,4,,,81,92
321600,note_on,60,0,6,,,,,,,,5,,,64,116
321600,note_on,60,0,9,,,,,,,,8,,,49,105
321600,note_on,60,0,2,,,,,,,,1,,,61,105
321600,note_on,60,0,7,,,,,,,,6,,,61,92
321600,note_on,60,0,8,,,,,,,,7,,,61,92
321780,note_on,180,0,2,,,,,,,,1,,,61,0
321780,note_on,180,0,6,,,,,,,,5,,,64,0
321780,note_on,180,0,8,,,,,,,,7,,,61,0
321780,note_on,180,0,9,,,,,,,,8,,,49,0
321780,note_on,180,0,7,,,,,,,,6,,,61,0
321792,note_on,0,0,5,,,,,,,,4,,,81,0
321792,note_on,192,0,5,,,,,,,,4,,,69,0
321840,note_on,60,0,8,,,,,,,,7,,,62,92
321840,note_on,48,0,5,,,,,,,,4,,,69,92
321840,note_on,0,0,5,,,,,,,,4,,,81,92
321840,note_on,60,0,2,,,,,,,,1,,,62,105
321840,note_on,60,0,9,,,,,,,,8,,,50,105
321840,note_on,60,0,7,,,,,,,,6,,,62,92
321840,note_on,60,0,6,,,,,,,,5,,,65,116
322020,note_on,180,0,7,,,,,,,,6,,,62,0
322020,note_on,180,0,9,,,,,,,,8,,,50,0
322020,note_on,180,0,8,,,,,,,,7,,,62,0
322020,note_on,180,0,2,,,,,,,,1,,,62,0
322020,note_on,180,0,6,,,,,,,,5,,,65,0
322032,note_on,0,0,5,,,,,,,,4,,,69,0
322032,note_on,192,0,5,,,,,,,,4,,,81,0
322080,note_on,60,0,6,,,,,,,,5,,,67,116
322080,note_on,0,0,5,,,,,,,,4,,,81,92
322080,note_on,60,0,9,,,,,,,,8,,,52,105
322080,note_on,60,0,8,,,,,,,,7,,,64,92
322080,note_on,60,0,7,,,,,,,,6,,,64,92
322080,note_on,48,0,5,,,,,,,,4,,,69,92
322080,note_on,60,0,2,,,,,,,,1,,,64,105
322260,note_on,180,0,6,,,,,,,,5,,,67,0
322260,note_on,180,0,8,,,,,,,,7,,,64,0
322260,note_on,180,0,7,,,,,,,,6,,,64,0
322260,note_on,180,0,2,,,,,,,,1,,,64,0
322260,note_on,180,0,9,,,,,,,,8,,,52,0
322272,note_on,192,0,5,,,,,,,,4,,,81,0
322272,note_on,0,0,5,,,,,,,,4,,,69,0
322320,note_on,60,0,8,,,,,,,,7,,,61,92
322320,note_on,60,0,9,,,,,,,,8,,,49,105
322320,note_on,0,0,5,,,,,,,,4,,,69,92
322320,note_on,48,0,5,,,,,,,,4,,,81,92
322320,note_on,60,0,2,,,,,,,,1,,,61,105
322320,note_on,60,0,7,,,,,,,,6,,,61,92
322320,note_on,60,0,6,,,,,,,,5,,,64,116
322500,note_on,180,0,9,,,,,,,,8,,,49,0
322500,note_on,180,0,7,,,,,,,,6,,,61,0
322500,note_on,180,0,8,,,,,,,,7,,,61,0
322500,note_on,180,0,6,,,,,,,,5,,,64,0
322500,note_on,180,0,2,,,,,,,,1,,,61,0
322512,note_on,192,0,5,,,,,,,,4,,,69,0
322512,note_on,0,0,5,,,,,,,,4,,,81,0
322560,note_on,0,0,5,,,,,,,,4,,,69,92
322560,note_on,60,0,7,,,,,,,,6,,,62,92
322560,note_on,60,0,6,,,,,,,,5,,,65,116
322560,note_on,60,0,9,,,,,,,,8,,,50,105
322560,note_on,60,0,2,,,,,,,,1,,,62,105
322560,note_on,60,0,8,,,,,,,,7,,,62,92
322560,note_on,48,0,5,,,,,,,,4,,,81,92
322740,note_on,180,0,9,,,,,,,,8,,,50,0
322740,note_on,180,0,2,,,,,,,,1,,,62,0
322740,note_on,180,0,7,,,,,,,,6,,,62,0
322740,note_on,180,0,8,,,,,,,,7,,,62,0
322740,note_on,180,0,6,,,,,,,,5,,,65,0
322752,note_on,0,0,5,,,,,,,,4,,,81,0
322752,note_on,192,0,5,,,,,,,,4,,,69,0
322800,note_on,60,0,9,,,,,,,,8,,,52,105
322800,note_on,60,0,7,,,,,,,,6,,,64,92
322800,note_on,60,0,2,,,,,,,,1,,,64,105
322800,note_on,0,0,5,,,,,,,,4,,,69,92
322800,note_on,60,0,8,,,,,,,,7,,,64,92
322800,note_on,48,0,5,,,,,,,,4,,,81,92
322800,note_on,60,0,6,,,,,,,,5,,,67,116
322980,note_on,180,0,6,,,,,,,,5,,,67,0
322980,note_on,180,0,9,,,,,,,,8,,,52,0
322980,note_on,180,0,2,,,,,,,,1,,,64,0
322980,note_on,180,0,7,,,,,,,,6,,,64,0
322980,note_on,180,0,8,,,,,,,,7,,,64,0
322992,note_on,192,0,5,,,,,,,,4,,,69,0
322992,note_on,0,0,5,,,,,,,,4,,,81,0
323040,note_on,48,0,5,,,,,,,,4,,,69,92
323040,note_on,0,0,5,,,,,,,,4,,,81,92
323040,note_on,60,0,2,,,,,,,,1,,,65,105
323040,note_on,60,0,9,,,,,,,,8,,,53,105
323040,note_on,60,0,6,,,,,,,,5,,,69,116
323040,note_on,60,0,8,,,,,,,,7,,,65,92
323040,note_on,60,0,7,,,,,,,,6,,,65,92
323220,note_on,180,0,2,,,,,,,,1,,,65,0
323220,note_on,180,0,6,,,,,,,,5,,,69,0
323220,note_on,180,0,8,,,,,,,,7,,,65,0
323220,note_on,180,0,9,,,,,,,,8,,,53,0
323220,note_on,180,0,7,,,,,,,,6,,,65,0
323232,note_on,192,0,5,,,,,,,,4,,,81,0
323232,note_on,0,0,5,,,,,,,,4,,,69,0
323280,note_on,60,0,7,,,,,,,,6,,,62,92
323280,note_on,48,0,5,,,,,,,,4,,,69,92
323280,note_on,0,0,5,,,,,,,,4,,,81,92
323280,note_on,60,0,6,,,,,,,,5,,,65,116
323280,note_on,60,0,8,,,,,,,,7,,,62,92
323280,note_on,60,0,9,,,,,,,,8,,,50,105
323280,note_on,60,0,2,,,,,,,,1,,,62,105
323460,note_on,180,0,7,,,,,,,,6,,,62,0
323460,note_on,180,0,9,,,,,,,,8,,,50,0
323460,note_on,180,0,8,,,,,,,,7,,,62,0
323460,note_on,180,0,6,,,,,,,,5,,,65,0
323460,note_on,180,0,2,,,,,,,,1,,,62,0
323472,note_on,0,0,5,,,,,,,,4,,,69,0
323472,note_on,192,0,5,,,,,,,,4,,,81,0
323520,note_on,0,0,5,,,,,,,,4,,,81,92
323520,note_on,48,0,5,,,,,,,,4,,,69,92
323520,note_on,60,0,9,,,,,,,,8,,,49,105
323520,note_on,60,0,2,,,,,,,,1,,,61,105
323520,note_on,60,0,7,,,,,,,,6,,,61,92
323520,note_on,60,0,8,,,,,,,,7,,,61,92
323520,note_on,60,0,6,,,,,,,,5,,,64,116
323700,note_on,180,0,2,,,,,,,,1,,,61,0
323700,note_on,180,0,8,,,,,,,,7,,,61,0
323700,note_on,180,0,7,,,,,,,,6,,,61,0
323700,note_on,180,0,6,,,,,,,,5,,,64,0
323700,note_on,180,0,9,,,,,,,,8,,,49,0
323712,note_on,192,0,5,,,,,,,,4,,,81,0
323712,note_on,0,0,5,,,,,,,,4,,,69,0
323760,note_on,60,0,8,,,,,,,,7,,,62,92
323760,note_on,0,0,5,,,,,,,,4,,,81,92
323760,note_on,60,0,6,,,,,,,,5,,,65,116
323760,note_on,60,0,2,,,,,,,,1,,,62,105
323760,note_on,48,0,5,,,,,,,,4,,,69,92
323760,note_on,60,0,7,,,,,,,,6,,,62,92
323760,note_on,60,0,9,,,,,,,,8,,,50,105
323940,note_on,180,0,6,,,,,,,,5,,,65,0
323940,note_on,180,0,8,,,,,,,,7,,,62,0
323940,note_on,180,0,7,,,,,,,,6,,,62,0
323940,note_on,180,0,2,,,,,,,,1,,,62,0
323940,note_on,180,0,9,,,,,,,,8,,,50,0
323952,note_on,192,0,5,,,,,,,,4,,,81,0
323952,note_on,0,0,5,,,,,,,,4,,,69,0
324000,note_on,60,0,7,,,,,,,,6,,,64,92
324000,note_on,60,0,8,,,,,,,,7,,,64,92
324000,note_on,60,0,9,,,,,,,,8,,,52,105
324000,note_on,60,0,6,,,,,,,,5,,,67,116
324000,note_on,48,0,5,,,,,,,,4,,,69,92
324000,note_on,0,0,5,,,,,,,,4,,,81,92
324000,note_on,60,0,2,,,,,,,,1,,,64,105
324180,note_on,180,0,2,,,,,,,,1,,,64,0
324180,note_on,180,0,8,,,,,,,,7,,,64,0
324180,note_on,180,0,6,,,,,,,,5,,,67,0
324180,note_on,180,0,9,,,,,,,,8,,,52,0
324180,note_on,180,0,7,,,,,,,,6,,,64,0
324192,note_on,192,0,5,,,,,,,,4,,,81,0
324192,note_on,0,0,5,,,,,,,,4,,,69,0
324240,note_on,48,0,5,,,,,,,,4,,,69,92
324240,note_on,60,0,8,,,,,,,,7,,,61,92
324240,note_on,60,0,7,,,,,,,,6,,,61,92
324240,note_on,60,0,6,,,,,,,,5,,,64,116
324240,note_on,60,0,9,,,,,,,,8,,,49,105
324240,note_on,60,0,2,,,,,,,,1,,,61,105
324240,note_on,0,0,5,,,,,,,,4,,,81,92
324420,note_on,180,0,7,,,,,,,,6,,,61,0
324420,note_on,180,0,6,,,,,,,,5,,,64,0
324420,note_on,180,0,8,,,,,,,,7,,,61,0
324420,note_on,180,0,2,,,,,,,,1,,,61,0
324420,note_on,180,0,9,,,,,,,,8,,,49,0
324432,note_on,192,0,5,,,,,,,,4,,,81,0
324432,note_on,0,0,5,,,,,,,,4,,,69,0
324480,note_on,48,0,5,,,,,,,,4,,,81,92
324480,note_on,0,0,5,,,,,,,,4,,,69,92
324480,note_on,60,0,7,,,,,,,,6,,,62,92
324480,note_on,60,0,6,,,,,,,,5,,,65,116
324480,note_on,60,0,2,,,,,,,,1,,,62,105
324480,note_on,60,0,9,,,,,,,,8,,,50,105
324480,note_on,60,0,8,,,,,,,,7,,,62,92
324672,note_on,192,0,5,,,,,,,,4,,,69,0
324672,note_on,0,0,5,,,,,,,,4,,,81,0
324720,note_on,48,0,5,,,,,,,,4,,,69,92
324720,note_on,0,0,5,,,,,,,,4,,,81,92
324864,note_on,384,0,7,,,,,,,,6,,,62,0
324864,note_on,384,0,6,,,,,,,,5,,,65,0
324864,note_on,384,0,8,,,,,,,,7,,,62,0
324864,note_on,11904,0,4,,,,,,,,3,,,69,0
324864,note_on,384,0,2,,,,,,,,1,,,62,0
324864,note_on,384,0,9,,,,,,,,8,,,50,0
324912,note_on,0,0,5,,,,,,,,4,,,69,0
324912,note_on,192,0,5,,,,,,,,4,,,81,0
324960,note_on,48,0,5,,,,,,,,4,,,81,92
324960,note_on,0,0,5,,,,,,,,4,,,69,92
325152,note_on,192,0,5,,,,,,,,4,,,69,0
325152,note_on,0,0,5,,,,,,,,4,,,81,0
325200,note_on,48,0,5,,,,,,,,4,,,69,92
325200,note_on,0,0,5,,,,,,,,4,,,81,92
325392,note_on,192,0,5,,,,,,,,4,,,81,0
325392,note_on,0,0,5,,,,,,,,4,,,69,0
325440,note_on,48,0,5,,,,,,,,4,,,81,92
325440,note_on,0,0,5,,,,,,,,4,,,69,92
325632,note_on,192,0,5,,,,,,,,4,,,69,0
325632,note_on,0,0,5,,,,,,,,4,,,81,0
325680,note_on,0,0,5,,,,,,,,4,,,69,92
325680,note_on,48,0,5,,,,,,,,4,,,81,92
325872,note_on,192,0,5,,,,,,,,4,,,69,0
325872,note_on,0,0,5,,,,,,,,4,,,81,0
325920,note_on,48,0,5,,,,,,,,4,,,81,92
325920,note_on,0,0,5,,,,,,,,4,,,69,92
326112,note_on,192,0,5,,,,,,,,4,,,69,0
326112,note_on,0,0,5,,,,,,,,4,,,81,0
326160,note_on,48,0,5,,,,,,,,4,,,69,92
326160,note_on,0,0,5,,,,,,,,4,,,81,92
326304,note_on,0,0,1,,,,,,,,0,,,81,0
326304,note_on,5664,0,1,,,,,,,,0,,,69,0
326352,note_on,192,0,5,,,,,,,,4,,,81,0
326352,note_on,0,0,5,,,,,,,,4,,,69,0
326400,note_on,48,0,5,,,,,,,,4,,,66,92
326400,note_on,0,0,5,,,,,,,,4,,,78,92
326400,note_on,0,0,1,,,,,,,,0,,,78,105
326400,note_on,96,0,1,,,,,,,,0,,,66,105
326592,note_on,192,0,5,,,,,,,,4,,,78,0
326592,note_on,0,0,5,,,,,,,,4,,,66,0
326640,note_on,48,0,5,,,,,,,,4,,,78,92
326640,note_on,0,0,5,,,,,,,,4,,,66,92
326832,note_on,192,0,5,,,,,,,,4,,,66,0
326832,note_on,0,0,5,,,,,,,,4,,,78,0
326880,note_on,48,0,5,,,,,,,,4,,,66,92
326880,note_on,0,0,5,,,,,,,,4,,,78,92
327072,note_on,192,0,5,,,,,,,,4,,,78,0
327072,note_on,0,0,5,,,,,,,,4,,,66,0
327120,note_on,0,0,5,,,,,,,,4,,,66,92
327120,note_on,48,0,5,,,,,,,,4,,,78,92
327312,note_on,0,0,5,,,,,,,,4,,,78,0
327312,note_on,192,0,5,,,,,,,,4,,,66,0
327360,note_on,0,0,5,,,,,,,,4,,,78,92
327360,note_on,48,0,5,,,,,,,,4,,,66,92
327552,note_on,192,0,5,,,,,,,,4,,,78,0
327552,note_on,0,0,5,,,,,,,,4,,,66,0
327600,note_on,48,0,5,,,,,,,,4,,,66,92
327600,note_on,0,0,5,,,,,,,,4,,,78,92
327792,note_on,192,0,5,,,,,,,,4,,,78,0
327792,note_on,0,0,5,,,,,,,,4,,,66,0
327840,note_on,0,0,5,,,,,,,,4,,,78,92
327840,note_on,48,0,5,,,,,,,,4,,,66,92
328032,note_on,0,0,5,,,,,,,,4,,,66,0
328032,note_on,192,0,5,,,,,,,,4,,,78,0
328080,note_on,0,0,5,,,,,,,,4,,,78,92
328080,note_on,48,0,5,,,,,,,,4,,,66,92
328272,note_on,192,0,5,,,,,,,,4,,,78,0
328272,note_on,0,0,5,,,,,,,,4,,,66,0
328320,note_on,0,0,5,,,,,,,,4,,,79,92
328320,note_on,48,0,5,,,,,,,,4,,,67,92
328320,note_on,1920,0,1,,,,,,,,0,,,78,0
328320,note_on,0,0,1,,,,,,,,0,,,66,0
328320,note_on,3456,0,4,,,,,,,,3,,,55,92
328320,note_on,0,0,4,,,,,,,,3,,,67,92
328320,note_on,0,0,1,,,,,,,,0,,,67,92
328320,note_on,0,0,1,,,,,,,,0,,,79,92
328512,note_on,192,0,5,,,,,,,,4,,,79,0
328512,note_on,0,0,5,,,,,,,,4,,,67,0
328560,note_on,48,0,5,,,,,,,,4,,,67,92
328560,note_on,0,0,5,,,,,,,,4,,,79,92
328704,note_on,384,0,1,,,,,,,,0,,,79,0
328704,note_on,0,0,1,,,,,,,,0,,,67,0
328752,note_on,192,0,5,,,,,,,,4,,,79,0
328752,note_on,0,0,5,,,,,,,,4,,,67,0
328800,note_on,0,0,5,,,,,,,,4,,,67,92
328800,note_on,48,0,5,,,,,,,,4,,,79,92
328992,note_on,0,0,5,,,,,,,,4,,,79,0
328992,note_on,192,0,5,,,,,,,,4,,,67,0
329040,note_on,48,0,5,,,,,,,,4,,,79,92
329040,note_on,0,0,5,,,,,,,,4,,,67,92
329232,note_on,0,0,5,,,,,,,,4,,,79,0
329232,note_on,192,0,5,,,,,,,,4,,,67,0
329280,note_on,48,0,5,,,,,,,,4,,,79,92
329280,note_on,0,0,5,,,,,,,,4,,,67,92
329472,note_on,0,0,5,,,,,,,,4,,,79,0
329472,note_on,192,0,5,,,,,,,,4,,,67,0
329520,note_on,48,0,5,,,,,,,,4,,,67,92
329520,note_on,0,0,5,,,,,,,,4,,,79,92
329712,note_on,192,0,5,,,,,,,,4,,,79,0
329712,note_on,0,0,5,,,,,,,,4,,,67,0
329760,note_on,4896,0,6,,,,,,,,5,,,62,116
329760,note_on,4896,0,7,,,,,,,,6,,,59,92
329760,note_on,0,0,5,,,,,,,,4,,,79,92
329760,note_on,48,0,5,,,,,,,,4,,,67,92
329760,note_on,4896,0,2,,,,,,,,1,,,59,105
329760,note_on,4896,0,9,,,,,,,,8,,,47,105
329760,note_on,4896,0,8,,,,,,,,7,,,59,92
329952,note_on,192,0,5,,,,,,,,4,,,79,0
329952,note_on,0,0,5,,,,,,,,4,,,67,0
330000,note_on,48,0,5,,,,,,,,4,,,67,92
330000,note_on,0,0,5,,,,,,,,4,,,79,92
330024,note_on,264,0,6,,,,,,,,5,,,62,0
330024,note_on,264,0,7,,,,,,,,6,,,59,0
330024,note_on,264,0,8,,,,,,,,7,,,59,0
330024,note_on,264,0,2,,,,,,,,1,,,59,0
330024,note_on,264,0,9,,,,,,,,8,,,47,0
330192,note_on,0,0,5,,,,,,,,4,,,67,0
330192,note_on,192,0,5,,,,,,,,4,,,79,0
330240,note_on,216,0,6,,,,,,,,5,,,62,116
330240,note_on,216,0,9,,,,,,,,8,,,47,105
330240,note_on,216,0,8,,,,,,,,7,,,59,92
330240,note_on,0,0,5,,,,,,,,4,,,67,92
330240,note_on,48,0,5,,,,,,,,4,,,79,92
330240,note_on,216,0,2,,,,,,,,1,,,59,105
330240,note_on,216,0,7,,,,,,,,6,,,59,92
330432,note_on,192,0,5,,,,,,,,4,,,67,0
330432,note_on,0,0,5,,,,,,,,4,,,79,0
330480,note_on,0,0,5,,,,,,,,4,,,79,92
330480,note_on,48,0,5,,,,,,,,4,,,67,92
330672,note_on,0,0,5,,,,,,,,4,,,67,0
330672,note_on,192,0,5,,,,,,,,4,,,79,0
330720,note_on,48,0,5,,,,,,,,4,,,67,92
330720,note_on,0,0,5,,,,,,,,4,,,79,92
330912,note_on,192,0,5,,,,,,,,4,,,79,0
330912,note_on,0,0,5,,,,,,,,4,,,67,0
330960,note_on,48,0,5,,,,,,,,4,,,67,92
330960,note_on,0,0,5,,,,,,,,4,,,79,92
331152,note_on,192,0,5,,,,,,,,4,,,79,0
331152,note_on,0,0,5,,,,,,,,4,,,67,0
331200,note_on,960,0,8,,,,,,,,7,,,59,0
331200,note_on,960,0,9,,,,,,,,8,,,47,0
331200,note_on,0,0,9,,,,,,,,8,,,48,105
331200,note_on,0,0,5,,,,,,,,4,,,67,92
331200,note_on,960,0,7,,,,,,,,6,,,59,0
331200,note_on,0,0,7,,,,,,,,6,,,60,92
331200,note_on,48,0,5,,,,,,,,4,,,79,92
331200,note_on,0,0,2,,,,,,,,1,,,60,105
331200,note_on,960,0,2,,,,,,,,1,,,59,0
331200,note_on,0,0,8,,,,,,,,7,,,60,92
331200,note_on,960,0,6,,,,,,,,5,,,62,0
331200,note_on,0,0,6,,,,,,,,5,,,63,116
331392,note_on,192,0,5,,,,,,,,4,,,67,0
331392,note_on,0,0,5,,,,,,,,4,,,79,0
331440,note_on,48,0,5,,,,,,,,4,,,79,92
331440,note_on,0,0,5,,,,,,,,4,,,67,92
331512,note_on,312,0,6,,,,,,,,5,,,63,0
331512,note_on,312,0,2,,,,,,,,1,,,60,0
331512,note_on,312,0,7,,,,,,,,6,,,60,0
331512,note_on,312,0,8,,,,,,,,7,,,60,0
331512,note_on,312,0,9,,,,,,,,8,,,48,0
331632,note_on,0,0,5,,,,,,,,4,,,79,0
331632,note_on,192,0,5,,,,,,,,4,,,67,0
331680,note_on,168,0,6,,,,,,,,5,,,64,116
331680,note_on,168,0,2,,,,,,,,1,,,61,105
331680,note_on,168,0,7,,,,,,,,6,,,61,92
331680,note_on,168,0,8,,,,,,,,7,,,61,92
331680,note_on,168,0,9,,,,,,,,8,,,49,105
331680,note_on,48,0,5,,,,,,,,4,,,67,92
331680,note_on,0,0,5,,,,,,,,4,,,79,92
331872,note_on,192,0,5,,,,,,,,4,,,79,0
331872,note_on,0,0,5,,,,,,,,4,,,67,0
331920,note_on,48,0,5,,,,,,,,4,,,67,92
331920,note_on,0,0,5,,,,,,,,4,,,79,92
331944,note_on,264,0,8,,,,,,,,7,,,61,0
331944,note_on,264,0,7,,,,,,,,6,,,61,0
331944,note_on,264,0,2,,,,,,,,1,,,61,0
331944,note_on,264,0,9,,,,,,,,8,,,49,0
331944,note_on,264,0,6,,,,,,,,5,,,64,0
332112,note_on,192,0,5,,,,,,,,4,,,79,0
332112,note_on,0,0,5,,,,,,,,4,,,67,0
332160,note_on,48,0,5,,,,,,,,4,,,79,92
332160,note_on,216,0,6,,,,,,,,5,,,64,116
332160,note_on,216,0,8,,,,,,,,7,,,61,92
332160,note_on,216,0,9,,,,,,,,8,,,49,105
332160,note_on,216,0,7,,,,,,,,6,,,61,92
332160,note_on,216,0,2,,,,,,,,1,,,61,105
332160,note_on,0,0,5,,,,,,,,4,,,67,92
332352,note_on,192,0,5,,,,,,,,4,,,67,0
332352,note_on,0,0,5,,,,,,,,4,,,79,0
332400,note_on,0,0,5,,,,,,,,4,,,79,92
332400,note_on,48,0,5,,,,,,,,4,,,67,92
332592,note_on,0,0,5,,,,,,,,4,,,67,0
332592,note_on,192,0,5,,,,,,,,4,,,79,0
332640,note_on,48,0,5,,,,,,,,4,,,67,92
332640,note_on,0,0,5,,,,,,,,4,,,79,92
332832,note_on,192,0,5,,,,,,,,4,,,79,0
332832,note_on,0,0,5,,,,,,,,4,,,67,0
332880,note_on,48,0,5,,,,,,,,4,,,67,92
332880,note_on,0,0,5,,,,,,,,4,,,79,92
332928,note_on,768,0,6,,,,,,,,5,,,64,0
333072,note_on,0,0,5,,,,,,,,4,,,67,0
333072,note_on,192,0,5,,,,,,,,4,,,79,0
333120,note_on,0,0,9,,,,,,,,8,,,50,105
333120,note_on,0,0,2,,,,,,,,1,,,62,105
333120,note_on,960,0,8,,,,,,,,7,,,61,0
333120,note_on,0,0,8,,,,,,,,7,,,62,92
333120,note_on,192,0,6,,,,,,,,5,,,65,116
333120,note_on,960,0,7,,,,,,,,6,,,61,0
333120,note_on,960,0,9,,,,,,,,8,,,49,0
333120,note_on,0,0,7,,,,,,,,6,,,62,92
333120,note_on,960,0,2,,,,,,,,1,,,61,0
333120,note_on,48,0,5,,,,,,,,4,,,79,92
333120,note_on,0,0,5,,,,,,,,4,,,67,92
333312,note_on,0,0,5,,,,,,,,4,,,79,0
333312,note_on,192,0,5,,,,,,,,4,,,67,0
333360,note_on,48,0,5,,,,,,,,4,,,79,92
333360,note_on,0,0,5,,,,,,,,4,,,67,92
333432,note_on,312,0,8,,,,,,,,7,,,62,0
333432,note_on,312,0,7,,,,,,,,6,,,62,0
333432,note_on,312,0,9,,,,,,,,8,,,50,0
333432,note_on,312,0,6,,,,,,,,5,,,65,0
333432,note_on,312,0,2,,,,,,,,1,,,62,0
333552,note_on,192,0,5,,,,,,,,4,,,67,0
333552,note_on,0,0,5,,,,,,,,4,,,79,0
333600,note_on,168,0,9,,,,,,,,8,,,50,105
333600,note_on,168,0,2,,,,,,,,1,,,62,105
333600,note_on,0,0,5,,,,,,,,4,,,67,92
333600,note_on,168,0,8,,,,,,,,7,,,62,92
333600,note_on,168,0,6,,,,,,,,5,,,66,116
333600,note_on,48,0,5,,,,,,,,4,,,79,92
333600,note_on,168,0,7,,,,,,,,6,,,62,92
333792,note_on,192,0,5,,,,,,,,4,,,67,0
333792,note_on,0,0,5,,,,,,,,4,,,79,0
333840,note_on,48,0,5,,,,,,,,4,,,67,92
333840,note_on,0,0,5,,,,,,,,4,,,79,92
333864,note_on,264,0,2,,,,,,,,1,,,62,0
333864,note_on,264,0,9,,,,,,,,8,,,50,0
333864,note_on,264,0,8,,,,,,,,7,,,62,0
333864,note_on,264,0,6,,,,,,,,5,,,66,0
333864,note_on,264,0,7,,,,,,,,6,,,62,0
334032,note_on,192,0,5,,,,,,,,4,,,79,0
334032,note_on,0,0,5,,,,,,,,4,,,67,0
334080,note_on,0,0,5,,,,,,,,4,,,67,92
334080,note_on,216,0,8,,,,,,,,7,,,63,92
334080,note_on,48,0,5,,,,,,,,4,,,79,92
334080,note_on,216,0,7,,,,,,,,6,,,63,92
334080,note_on,216,0,2,,,,,,,,1,,,63,105
334080,note_on,216,0,9,,,,,,,,8,,,51,105
334080,note_on,216,0,6,,,,,,,,5,,,67,116
334272,note_on,0,0,5,,,,,,,,4,,,79,0
334272,note_on,192,0,5,,,,,,,,4,,,67,0
334320,note_on,48,0,5,,,,,,,,4,,,67,92
334320,note_on,0,0,5,,,,,,,,4,,,79,92
334392,note_on,312,0,8,,,,,,,,7,,,63,0
334392,note_on,312,0,7,,,,,,,,6,,,63,0
334392,note_on,312,0,6,,,,,,,,5,,,67,0
334392,note_on,312,0,2,,,,,,,,1,,,63,0
334392,note_on,312,0,9,,,,,,,,8,,,51,0
334512,note_on,192,0,5,,,,,,,,4,,,79,0
334512,note_on,0,0,5,,,,,,,,4,,,67,0
334560,note_on,168,0,9,,,,,,,,8,,,48,105
334560,note_on,0,0,5,,,,,,,,4,,,67,92
334560,note_on,168,0,8,,,,,,,,7,,,60,92
334560,note_on,168,0,2,,,,,,,,1,,,60,105
334560,note_on,48,0,5,,,,,,,,4,,,79,92
334560,note_on,168,0,7,,,,,,,,6,,,60,92
334560,note_on,168,0,6,,,,,,,,5,,,63,116
334752,note_on,0,0,5,,,,,,,,4,,,79,0
334752,note_on,192,0,5,,,,,,,,4,,,67,0
334800,note_on,0,0,5,,,,,,,,4,,,79,92
334800,note_on,48,0,5,,,,,,,,4,,,67,92
334872,note_on,312,0,2,,,,,,,,1,,,60,0
334872,note_on,312,0,6,,,,,,,,5,,,63,0
334872,note_on,312,0,9,,,,,,,,8,,,48,0
334872,note_on,312,0,8,,,,,,,,7,,,60,0
334872,note_on,312,0,7,,,,,,,,6,,,60,0
334992,note_on,192,0,5,,,,,,,,4,,,79,0
334992,note_on,0,0,5,,,,,,,,4,,,67,0
335040,note_on,168,0,7,,,,,,,,6,,,62,92
335040,note_on,48,0,5,,,,,,,,4,,,67,92
335040,note_on,0,0,5,,,,,,,,4,,,79,92
335040,note_on,168,0,6,,,,,,,,5,,,65,116
335040,note_on,168,0,2,,,,,,,,1,,,62,105
335040,note_on,168,0,8,,,,,,,,7,,,62,92
335040,note_on,168,0,9,,,,,,,,8,,,50,105
335232,note_on,192,0,5,,,,,,,,4,,,79,0
335232,note_on,0,0,5,,,,,,,,4,,,67,0
335280,note_on,0,0,5,,,,,,,,4,,,67,92
335280,note_on,48,0,5,,,,,,,,4,,,79,92
335352,note_on,312,0,8,,,,,,,,7,,,62,0
335352,note_on,312,0,2,,,,,,,,1,,,62,0
335352,note_on,312,0,7,,,,,,,,6,,,62,0
335352,note_on,312,0,9,,,,,,,,8,,,50,0
335352,note_on,312,0,6,,,,,,,,5,,,65,0
335472,note_on,192,0,5,,,,,,,,4,,,67,0
335472,note_on,0,0,5,,,,,,,,4,,,79,0
335520,note_on,168,0,8,,,,,,,,7,,,59,92
335520,note_on,168,0,9,,,,,,,,8,,,47,105
335520,note_on,168,0,6,,,,,,,,5,,,62,116
335520,note_on,168,0,2,,,,,,,,1,,,59,105
335520,note_on,168,0,7,,,,,,,,6,,,59,92
335520,note_on,0,0,5,,,,,,,,4,,,79,92
335520,note_on,48,0,5,,,,,,,,4,,,67,92
335712,note_on,192,0,5,,,,,,,,4,,,79,0
335712,note_on,0,0,5,,,,,,,,4,,,67,0
335760,note_on,0,0,5,,,,,,,,4,,,67,92
335760,note_on,48,0,5,,,,,,,,4,,,79,92
335832,note_on,312,0,2,,,,,,,,1,,,59,0
335832,note_on,312,0,6,,,,,,,,5,,,62,0
335832,note_on,312,0,7,,,,,,,,6,,,59,0
335832,note_on,312,0,9,,,,,,,,8,,,47,0
335832,note_on,312,0,8,,,,,,,,7,,,59,0
335952,note_on,0,0,5,,,,,,,,4,,,79,0
335952,note_on,192,0,5,,,,,,,,4,,,67,0
336000,note_on,168,0,2,,,,,,,,1,,,60,105
336000,note_on,0,0,5,,,,,,,,4,,,79,92
336000,note_on,7296,0,1,,,,,,,,0,,,79,92
336000,note_on,48,0,5,,,,,,,,4,,,67,92
336000,note_on,168,0,9,,,,,,,,8,,,48,105
336000,note_on,168,0,7,,,,,,,,6,,,60,92
336000,note_on,168,0,6,,,,,,,,5,,,63,116
336000,note_on,168,0,8,,,,,,,,7,,,60,92
336000,note_on,0,0,1,,,,,,,,0,,,67,92
336180,note_on,180,0,2,,,,,,,,1,,,60,0
336180,note_on,180,0,9,,,,,,,,8,,,48,0
336180,note_on,180,0,6,,,,,,,,5,,,63,0
336180,note_on,180,0,7,,,,,,,,6,,,60,0
336180,note_on,180,0,8,,,,,,,,7,,,60,0
336192,note_on,192,0,5,,,,,,,,4,,,79,0
336192,note_on,0,0,5,,,,,,,,4,,,67,0
336240,note_on,60,0,2,,,,,,,,1,,,62,105
336240,note_on,60,0,8,,,,,,,,7,,,62,92
336240,note_on,0,0,5,,,,,,,,4,,,67,92
336240,note_on,48,0,5,,,,,,,,4,,,79,92
336240,note_on,60,0,6,,,,,,,,5,,,65,116
336240,note_on,60,0,9,,,,,,,,8,,,50,105
336240,note_on,60,0,7,,,,,,,,6,,,62,92
336420,note_on,180,0,8,,,,,,,,7,,,62,0
336420,note_on,180,0,2,,,,,,,,1,,,62,0
336420,note_on,180,0,6,,,,,,,,5,,,65,0
336420,note_on,180,0,9,,,,,,,,8,,,50,0
336420,note_on,180,0,7,,,,,,,,6,,,62,0
336432,note_on,192,0,5,,,,,,,,4,,,67,0
336432,note_on,0,0,5,,,,,,,,4,,,79,0
336480,note_on,60,0,6,,,,,,,,5,,,67,116
336480,note_on,48,0,5,,,,,,,,4,,,67,92
336480,note_on,60,0,9,,,,,,,,8,,,51,105
336480,note_on,60,0,7,,,,,,,,6,,,63,92
336480,note_on,0,0,5,,,,,,,,4,,,79,92
336480,note_on,60,0,2,,,,,,,,1,,,63,105
336480,note_on,60,0,8,,,,,,,,7,,,63,92
336660,note_on,180,0,9,,,,,,,,8,,,51,0
336660,note_on,180,0,7,,,,,,,,6,,,63,0
336660,note_on,180,0,2,,,,,,,,1,,,63,0
336660,note_on,180,0,8,,,,,,,,7,,,63,0
336660,note_on,180,0,6,,,,,,,,5,,,67,0
336672,note_on,0,0,5,,,,,,,,4,,,67,0
336672,note_on,192,0,5,,,,,,,,4,,,79,0
336720,note_on,60,0,8,,,,,,,,7,,,60,92
336720,note_on,60,0,2,,,,,,,,1,,,60,105
336720,note_on,60,0,7,,,,,,,,6,,,60,92
336720,note_on,60,0,9,,,,,,,,8,,,48,105
336720,note_on,48,0,5,,,,,,,,4,,,67,92
336720,note_on,0,0,5,,,,,,,,4,,,79,92
336720,note_on,60,0,6,,,,,,,,5,,,63,116
336900,note_on,180,0,6,,,,,,,,5,,,63,0
336900,note_on,180,0,7,,,,,,,,6,,,60,0
336900,note_on,180,0,8,,,,,,,,7,,,60,0
336900,note_on,180,0,9,,,,,,,,8,,,48,0
336900,note_on,180,0,2,,,,,,,,1,,,60,0
336912,note_on,192,0,5,,,,,,,,4,,,79,0
336912,note_on,0,0,5,,,,,,,,4,,,67,0
336960,note_on,48,0,5,,,,,,,,4,,,79,92
336960,note_on,0,0,5,,,,,,,,4,,,67,92
336960,note_on,60,0,2,,,,,,,,1,,,59,105
336960,note_on,60,0,6,,,,,,,,5,,,62,116
336960,note_on,60,0,7,,,,,,,,6,,,59,92
336960,note_on,60,0,8,,,,,,,,7,,,59,92
336960,note_on,60,0,9,,,,,,,,8,,,47,105
337140,note_on,180,0,7,,,,,,,,6,,,59,0
337140,note_on,180,0,8,,,,,,,,7,,,59,0
337140,note_on,180,0,6,,,,,,,,5,,,62,0
337140,note_on,180,0,9,,,,,,,,8,,,47,0
337140,note_on,180,0,2,,,,,,,,1,,,59,0
337152,note_on,192,0,5,,,,,,,,4,,,67,0
337152,note_on,0,0,5,,,,,,,,4,,,79,0
337200,note_on,48,0,5,,,,,,,,4,,,79,92
337200,note_on,0,0,5,,,,,,,,4,,,67,92
337200,note_on,60,0,2,,,,,,,,1,,,60,105
337200,note_on,60,0,7,,,,,,,,6,,,60,92
337200,note_on,60,0,6,,,,,,,,5,,,63,116
337200,note_on,60,0,9,,,,,,,,8,,,48,105
337200,note_on,60,0,8,,,,,,,,7,,,60,92
337380,note_on,180,0,9,,,,,,,,8,,,48,0
337380,note_on,180,0,7,,,,,,,,6,,,60,0
337380,note_on,180,0,6,,,,,,,,5,,,63,0
337380,note_on,180,0,8,,,,,,,,7,,,60,0
337380,note_on,180,0,2,,,,,,,,1,,,60,0
337392,note_on,192,0,5,,,,,,,,4,,,67,0
337392,note_on,0,0,5,,,,,,,,4,,,79,0
337440,note_on,60,0,6,,,,,,,,5,,,65,116
337440,note_on,60,0,2,,,,,,,,1,,,62,105
337440,note_on,60,0,7,,,,,,,,6,,,62,92
337440,note_on,60,0,8,,,,,,,,7,,,62,92
337440,note_on,60,0,9,,,,,,,,8,,,50,105
337440,note_on,48,0,5,,,,,,,,4,,,67,92
337440,note_on,0,0,5,,,,,,,,4,,,79,92
337620,note_on,180,0,8,,,,,,,,7,,,62,0
337620,note_on,180,0,2,,,,,,,,1,,,62,0
337620,note_on,180,0,7,,,,,,,,6,,,62,0
337620,note_on,180,0,9,,,,,,,,8,,,50,0
337620,note_on,180,0,6,,,,,,,,5,,,65,0
337632,note_on,192,0,5,,,,,,,,4,,,79,0
337632,note_on,0,0,5,,,,,,,,4,,,67,0
337680,note_on,60,0,8,,,,,,,,7,,,59,92
337680,note_on,60,0,2,,,,,,,,1,,,59,105
337680,note_on,0,0,5,,,,,,,,4,,,79,92
337680,note_on,60,0,9,,,,,,,,8,,,47,105
337680,note_on,60,0,7,,,,,,,,6,,,59,92
337680,note_on,48,0,5,,,,,,,,4,,,67,92
337680,note_on,60,0,6,,,,,,,,5,,,62,116
337860,note_on,180,0,8,,,,,,,,7,,,59,0
337860,note_on,180,0,6,,,,,,,,5,,,62,0
337860,note_on,180,0,9,,,,,,,,8,,,47,0
337860,note_on,180,0,7,,,,,,,,6,,,59,0
337860,note_on,180,0,2,,,,,,,,1,,,59,0
337872,note_on,0,0,5,,,,,,,,4,,,67,0
337872,note_on,192,0,5,,,,,,,,4,,,79,0
337920,note_on,60,0,6,,,,,,,,5,,,63,116
337920,note_on,48,0,5,,,,,,,,4,,,67,92
337920,note_on,60,0,7,,,,,,,,6,,,60,92
337920,note_on,0,0,5,,,,,,,,4,,,79,92
337920,note_on,60,0,9,,,,,,,,8,,,48,105
337920,note_on,60,0,8,,,,,,,,7,,,60,92
337920,note_on,60,0,2,,,,,,,,1,,,60,105
338100,note_on,180,0,6,,,,,,,,5,,,63,0
338100,note_on,180,0,2,,,,,,,,1,,,60,0
338100,note_on,180,0,7,,,,,,,,6,,,60,0
338100,note_on,180,0,9,,,,,,,,8,,,48,0
338100,note_on,180,0,8,,,,,,,,7,,,60,0
338112,note_on,0,0,5,,,,,,,,4,,,67,0
338112,note_on,192,0,5,,,,,,,,4,,,79,0
338160,note_on,60,0,2,,,,,,,,1,,,62,105
338160,note_on,60,0,7,,,,,,,,6,,,62,92
338160,note_on,60,0,8,,,,,,,,7,,,62,92
338160,note_on,60,0,6,,,,,,,,5,,,65,116
338160,note_on,60,0,9,,,,,,,,8,,,50,105
338160,note_on,48,0,5,,,,,,,,4,,,67,92
338160,note_on,0,0,5,,,,,,,,4,,,79,92
338340,note_on,180,0,7,,,,,,,,6,,,62,0
338340,note_on,180,0,9,,,,,,,,8,,,50,0
338340,note_on,180,0,8,,,,,,,,7,,,62,0
338340,note_on,180,0,2,,,,,,,,1,,,62,0
338340,note_on,180,0,6,,,,,,,,5,,,65,0
338352,note_on,192,0,5,,,,,,,,4,,,79,0
338352,note_on,0,0,5,,,,,,,,4,,,67,0
338400,note_on,60,0,6,,,,,,,,5,,,67,116
338400,note_on,60,0,8,,,,,,,,7,,,63,92
338400,note_on,60,0,2,,,,,,,,1,,,63,105
338400,note_on,60,0,7,,,,,,,,6,,,63,92
338400,note_on,0,0,5,,,,,,,,4,,,79,92
338400,note_on,60,0,9,,,,,,,,8,,,51,105
338400,note_on,48,0,5,,,,,,,,4,,,67,92
338580,note_on,180,0,9,,,,,,,,8,,,51,0
338580,note_on,180,0,8,,,,,,,,7,,,63,0
338580,note_on,180,0,7,,,,,,,,6,,,63,0
338580,note_on,180,0,2,,,,,,,,1,,,63,0
338580,note_on,180,0,6,,,,,,,,5,,,67,0
338592,note_on,192,0,5,,,,,,,,4,,,79,0
338592,note_on,0,0,5,,,,,,,,4,,,67,0
338640,note_on,48,0,5,,,,,,,,4,,,67,92
338640,note_on,0,0,5,,,,,,,,4,,,79,92
338640,note_on,60,0,7,,,,,,,,6,,,60,92
338640,note_on,60,0,8,,,,,,,,7,,,60,92
338640,note_on,60,0,6,,,,,,,,5,,,63,116
338640,note_on,60,0,9,,,,,,,,8,,,48,105
338640,note_on,60,0,2,,,,,,,,1,,,60,105
338820,note_on,180,0,7,,,,,,,,6,,,60,0
338820,note_on,180,0,6,,,,,,,,5,,,63,0
338820,note_on,180,0,2,,,,,,,,1,,,60,0
338820,note_on,180,0,9,,,,,,,,8,,,48,0
338820,note_on,180,0,8,,,,,,,,7,,,60,0
338832,note_on,192,0,5,,,,,,,,4,,,79,0
338832,note_on,0,0,5,,,,,,,,4,,,67,0
338880,note_on,60,0,7,,,,,,,,6,,,59,92
338880,note_on,60,0,2,,,,,,,,1,,,59,105
338880,note_on,0,0,5,,,,,,,,4,,,67,92
338880,note_on,48,0,5,,,,,,,,4,,,79,92
338880,note_on,60,0,6,,,,,,,,5,,,62,116
338880,note_on,60,0,8,,,,,,,,7,,,59,92
338880,note_on,60,0,9,,,,,,,,8,,,47,105
339060,note_on,180,0,8,,,,,,,,7,,,59,0
339060,note_on,180,0,9,,,,,,,,8,,,47,0
339060,note_on,180,0,2,,,,,,,,1,,,59,0
339060,note_on,180,0,6,,,,,,,,5,,,62,0
339060,note_on,180,0,7,,,,,,,,6,,,59,0
339072,note_on,192,0,5,,,,,,,,4,,,67,0
339072,note_on,0,0,5,,,,,,,,4,,,79,0
339120,note_on,0,0,5,,,,,,,,4,,,67,92
339120,note_on,60,0,6,,,,,,,,5,,,63,116
339120,note_on,60,0,8,,,,,,,,7,,,60,92
339120,note_on,48,0,5,,,,,,,,4,,,79,92
339120,note_on,60,0,9,,,,,,,,8,,,48,105
339120,note_on,60,0,2,,,,,,,,1,,,60,105
339120,note_on,60,0,7,,,,,,,,6,,,60,92
339300,note_on,180,0,6,,,,,,,,5,,,63,0
339300,note_on,180,0,7,,,,,,,,6,,,60,0
339300,note_on,180,0,9,,,,,,,,8,,,48,0
339300,note_on,180,0,2,,,,,,,,1,,,60,0
339300,note_on,180,0,8,,,,,,,,7,,,60,0
339312,note_on,192,0,5,,,,,,,,4,,,67,0
339312,note_on,0,0,5,,,,,,,,4,,,79,0
339360,note_on,60,0,7,,,,,,,,6,,,62,92
339360,note_on,60,0,9,,,,,,,,8,,,50,105
339360,note_on,60,0,2,,,,,,,,1,,,62,105
339360,note_on,0,0,5,,,,,,,,4,,,79,92
339360,note_on,48,0,5,,,,,,,,4,,,67,92
339360,note_on,60,0,6,,,,,,,,5,,,65,116
339360,note_on,60,0,8,,,,,,,,7,,,62,92
339540,note_on,180,0,9,,,,,,,,8,,,50,0
339540,note_on,180,0,7,,,,,,,,6,,,62,0
339540,note_on,180,0,6,,,,,,,,5,,,65,0
339540,note_on,180,0,2,,,,,,,,1,,,62,0
339540,note_on,180,0,8,,,,,,,,7,,,62,0
339552,note_on,192,0,5,,,,,,,,4,,,79,0
339552,note_on,0,0,5,,,,,,,,4,,,67,0
339600,note_on,48,0,5,,,,,,,,4,,,67,92
339600,note_on,60,0,7,,,,,,,,6,,,59,92
339600,note_on,60,0,2,,,,,,,,1,,,59,105
339600,note_on,60,0,6,,,,,,,,5,,,62,116
339600,note_on,0,0,5,,,,,,,,4,,,79,92
339600,note_on,60,0,8,,,,,,,,7,,,59,92
339600,note_on,60,0,9,,,,,,,,8,,,47,105
339744,note_on,3744,0,1,,,,,,,,0,,,67,0
339744,note_on,0,0,1,,,,,,,,0,,,79,0
339780,note_on,180,0,2,,,,,,,,1,,,59,0
339780,note_on,180,0,9,,,,,,,,8,,,47,0
339780,note_on,180,0,6,,,,,,,,5,,,62,0
339780,note_on,180,0,7,,,,,,,,6,,,59,0
339780,note_on,180,0,8,,,,,,,,7,,,59,0
339792,note_on,192,0,5,,,,,,,,4,,,79,0
339792,note_on,0,0,5,,,,,,,,4,,,67,0
339840,note_on,96,0,1,,,,,,,,0,,,67,105
339840,note_on,60,0,2,,,,,,,,1,,,60,105
339840,note_on,60,0,6,,,,,,,,5,,,63,116
339840,note_on,48,0,5,,,,,,,,4,,,79,92
339840,note_on,60,0,7,,,,,,,,6,,,60,92
339840,note_on,60,0,9,,,,,,,,8,,,48,105
339840,note_on,60,0,8,,,,,,,,7,,,60,92
340020,note_on,180,0,8,,,,,,,,7,,,60,0
340020,note_on,180,0,6,,,,,,,,5,,,63,0
340020,note_on,180,0,2,,,,,,,,1,,,60,0
340020,note_on,180,0,9,,,,,,,,8,,,48,0
340020,note_on,180,0,7,,,,,,,,6,,,60,0
340032,note_on,192,0,5,,,,,,,,4,,,79,0
340080,note_on,60,0,6,,,,,,,,5,,,65,116
340080,note_on,60,0,7,,,,,,,,6,,,62,92
340080,note_on,48,0,5,,,,,,,,4,,,79,92
340080,note_on,60,0,2,,,,,,,,1,,,62,105
340080,note_on,60,0,9,,,,,,,,8,,,50,105
340080,note_on,60,0,8,,,,,,,,7,,,62,92
340224,note_on,0,0,4,,,,,,,,3,,,55,0
340224,note_on,11904,0,4,,,,,,,,3,,,67,0
340260,note_on,180,0,2,,,,,,,,1,,,62,0
340260,note_on,180,0,8,,,,,,,,7,,,62,0
340260,note_on,180,0,6,,,,,,,,5,,,65,0
340260,note_on,180,0,9,,,,,,,,8,,,50,0
340260,note_on,180,0,7,,,,,,,,6,,,62,0
340272,note_on,192,0,5,,,,,,,,4,,,79,0
340320,note_on,60,0,2,,,,,,,,1,,,63,105
340320,note_on,48,0,5,,,,,,,,4,,,79,92
340320,note_on,60,0,8,,,,,,,,7,,,63,92
340320,note_on,60,0,9,,,,,,,,8,,,51,105
340320,note_on,60,0,7,,,,,,,,6,,,63,92
340320,note_on,60,0,6,,,,,,,,5,,,67,116
340500,note_on,180,0,2,,,,,,,,1,,,63,0
340500,note_on,180,0,8,,,,,,,,7,,,63,0
340500,note_on,180,0,7,,,,,,,,6,,,63,0
340500,note_on,180,0,9,,,,,,,,8,,,51,0
340500,note_on,180,0,6,,,,,,,,5,,,67,0
340512,note_on,192,0,5,,,,,,,,4,,,79,0
340560,note_on,60,0,6,,,,,,,,5,,,63,116
340560,note_on,60,0,7,,,,,,,,6,,,60,92
340560,note_on,48,0,5,,,,,,,,4,,,79,92
340560,note_on,60,0,9,,,,,,,,8,,,48,105
340560,note_on,60,0,8,,,,,,,,7,,,60,92
340560,note_on,60,0,2,,,,,,,,1,,,60,105
340740,note_on,180,0,6,,,,,,,,5,,,63,0
340740,note_on,180,0,7,,,,,,,,6,,,60,0
340740,note_on,180,0,9,,,,,,,,8,,,48,0
340740,note_on,180,0,2,,,,,,,,1,,,60,0
340740,note_on,180,0,8,,,,,,,,7,,,60,0
340752,note_on,192,0,5,,,,,,,,4,,,79,0
340800,note_on,60,0,7,,,,,,,,6,,,58,92
340800,note_on,60,0,6,,,,,,,,5,,,62,116
340800,note_on,60,0,9,,,,,,,,8,,,46,105
340800,note_on,60,0,8,,,,,,,,7,,,58,92
340800,note_on,48,0,5,,,,,,,,4,,,79,92
340800,note_on,60,0,2,,,,,,,,1,,,58,105
340980,note_on,180,0,2,,,,,,,,1,,,58,0
340980,note_on,180,0,7,,,,,,,,6,,,58,0
340980,note_on,180,0,9,,,,,,,,8,,,46,0
340980,note_on,180,0,8,,,,,,,,7,,,58,0
340992,note_on,192,0,6,,,,,,,,5,,,62,0
340992,note_on,192,0,5,,,,,,,,4,,,79,0
341040,note_on,60,0,2,,,,,,,,1,,,57,105
341040,note_on,60,0,8,,,,,,,,7,,,57,92
341040,note_on,60,0,9,,,,,,,,8,,,45,105
341040,note_on,48,0,6,,,,,,,,5,,,60,116
341040,note_on,60,0,7,,,,,,,,6,,,57,92
341040,note_on,48,0,5,,,,,,,,4,,,79,92
341220,note_on,180,0,7,,,,,,,,6,,,57,0
341220,note_on,180,0,8,,,,,,,,7,,,57,0
341220,note_on,180,0,9,,,,,,,,8,,,45,0
341220,note_on,180,0,2,,,,,,,,1,,,57,0
341232,note_on,192,0,6,,,,,,,,5,,,60,0
341232,note_on,192,0,5,,,,,,,,4,,,79,0
341280,note_on,60,0,8,,,,,,,,7,,,58,92
341280,note_on,60,0,7,,,,,,,,6,,,58,92
341280,note_on,48,0,5,,,,,,,,4,,,79,92
341280,note_on,48,0,6,,,,,,,,5,,,62,116
341280,note_on,60,0,9,,,,,,,,8,,,46,105
341280,note_on,60,0,2,,,,,,,,1,,,58,105
341460,note_on,180,0,8,,,,,,,,7,,,58,0
341460,note_on,180,0,9,,,,,,,,8,,,46,0
341460,note_on,180,0,7,,,,,,,,6,,,58,0
341460,note_on,180,0,2,,,,,,,,1,,,58,0
341472,note_on,192,0,5,,,,,,,,4,,,79,0
341472,note_on,192,0,6,,,,,,,,5,,,62,0
341520,note_on,60,0,2,,,,,,,,1,,,55,105
341520,note_on,48,0,6,,,,,,,,5,,,58,116
341520,note_on,60,0,8,,,,,,,,7,,,55,92
341520,note_on,60,0,7,,,,,,,,6,,,55,92
341520,note_on,60,0,9,,,,,,,,8,,,43,105
341520,note_on,48,0,5,,,,,,,,4,,,79,92
341664,note_on,1824,0,1,,,,,,,,0,,,67,0
341700,note_on,180,0,8,,,,,,,,7,,,55,0
341700,note_on,180,0,9,,,,,,,,8,,,43,0
341700,note_on,180,0,2,,,,,,,,1,,,55,0
341700,note_on,180,0,7,,,,,,,,6,,,55,0
341712,note_on,192,0,6,,,,,,,,5,,,58,0
341712,note_on,192,0,5,,,,,,,,4,,,79,0
341760,note_on,60,0,7,,,,,,,,6,,,57,92
341760,note_on,48,0,5,,,,,,,,4,,,78,92
341760,note_on,96,0,1,,,,,,,,0,,,66,105
341760,note_on,60,0,9,,,,,,,,8,,,45,105
341760,note_on,48,0,6,,,,,,,,5,,,60,116
341760,note_on,60,0,8,,,,,,,,7,,,57,92
341760,note_on,60,0,2,,,,,,,,1,,,57,105
341940,note_on,180,0,7,,,,,,,,6,,,57,0
341940,note_on,180,0,8,,,,,,,,7,,,57,0
341940,note_on,180,0,9,,,,,,,,8,,,45,0
341940,note_on,180,0,2,,,,,,,,1,,,57,0
341940,note_on,180,0,6,,,,,,,,5,,,60,0
341952,note_on,192,0,5,,,,,,,,4,,,78,0
342000,note_on,48,0,5,,,,,,,,4,,,78,105
342000,note_on,60,0,7,,,,,,,,6,,,55,92
342000,note_on,60,0,9,,,,,,,,8,,,43,105
342000,note_on,60,0,2,,,,,,,,1,,,55,105
342000,note_on,60,0,8,,,,,,,,7,,,55,92
342000,note_on,60,0,6,,,,,,,,5,,,58,105
342180,note_on,180,0,6,,,,,,,,5,,,58,0
342180,note_on,180,0,8,,,,,,,,7,,,55,0
342180,note_on,180,0,7,,,,,,,,6,,,55,0
342180,note_on,180,0,9,,,,,,,,8,,,43,0
342180,note_on,180,0,2,,,,,,,,1,,,55,0
342192,note_on,192,0,5,,,,,,,,4,,,78,0
342240,note_on,60,0,6,,,,,,,,5,,,60,105
342240,note_on,60,0,2,,,,,,,,1,,,57,105
342240,note_on,48,0,5,,,,,,,,4,,,78,105
342240,note_on,60,0,9,,,,,,,,8,,,45,105
342240,note_on,60,0,8,,,,,,,,7,,,57,92
342240,note_on,60,0,7,,,,,,,,6,,,57,92
342420,note_on,180,0,8,,,,,,,,7,,,57,0
342420,note_on,180,0,9,,,,,,,,8,,,45,0
342420,note_on,180,0,2,,,,,,,,1,,,57,0
342420,note_on,180,0,6,,,,,,,,5,,,60,0
342420,note_on,180,0,7,,,,,,,,6,,,57,0
342432,note_on,192,0,5,,,,,,,,4,,,78,0
342480,note_on,60,0,9,,,,,,,,8,,,42,105
342480,note_on,60,0,7,,,,,,,,6,,,54,92
342480,note_on,60,0,2,,,,,,,,1,,,54,105
342480,note_on,60,0,8,,,,,,,,7,,,54,92
342480,note_on,48,0,5,,,,,,,,4,,,78,105
342480,note_on,60,0,6,,,,,,,,5,,,57,105
342660,note_on,180,0,7,,,,,,,,6,,,54,0
342660,note_on,180,0,8,,,,,,,,7,,,54,0
342660,note_on,180,0,2,,,,,,,,1,,,54,0
342660,note_on,180,0,9,,,,,,,,8,,,42,0
342660,note_on,180,0,6,,,,,,,,5,,,57,0
342672,note_on,192,0,5,,,,,,,,4,,,78,0
342720,note_on,0,0,1,,,,,,,,0,,,72,105
342720,note_on,960,0,1,,,,,,,,0,,,66,0
342720,note_on,60,0,7,,,,,,,,6,,,66,105
342720,note_on,48,0,5,,,,,,,,4,,,84,105
342720,note_on,60,0,8,,,,,,,,7,,,54,105
342720,note_on,60,0,2,,,,,,,,1,,,54,105
342720,note_on,60,0,6,,,,,,,,5,,,69,105
342720,note_on,60,0,9,,,,,,,,8,,,42,105
342900,note_on,180,0,2,,,,,,,,1,,,54,0
342900,note_on,180,0,6,,,,,,,,5,,,69,0
342900,note_on,180,0,8,,,,,,,,7,,,54,0
342900,note_on,180,0,9,,,,,,,,8,,,42,0
342900,note_on,180,0,7,,,,,,,,6,,,66,0
342912,note_on,192,0,5,,,,,,,,4,,,84,0
342960,note_on,60,0,8,,,,,,,,7,,,52,105
342960,note_on,60,0,9,,,,,,,,8,,,40,105
342960,note_on,60,0,2,,,,,,,,1,,,52,105
342960,note_on,60,0,7,,,,,,,,6,,,64,105
342960,note_on,48,0,5,,,,,,,,4,,,84,105
342960,note_on,60,0,6,,,,,,,,5,,,67,105
343140,note_on,180,0,7,,,,,,,,6,,,64,0
343140,note_on,180,0,8,,,,,,,,7,,,52,0
343140,note_on,180,0,2,,,,,,,,1,,,52,0
343140,note_on,180,0,6,,,,,,,,5,,,67,0
343140,note_on,180,0,9,,,,,,,,8,,,40,0
343152,note_on,192,0,5,,,,,,,,4,,,84,0
343200,note_on,60,0,8,,,,,,,,7,,,54,105
343200,note_on,60,0,2,,,,,,,,1,,,54,105
343200,note_on,60,0,7,,,,,,,,6,,,66,105
343200,note_on,60,0,6,,,,,,,,5,,,69,105
343200,note_on,60,0,9,,,,,,,,8,,,42,105
343200,note_on,48,0,5,,,,,,,,4,,,84,105
343380,note_on,180,0,2,,,,,,,,1,,,54,0
343380,note_on,180,0,8,,,,,,,,7,,,54,0
343380,note_on,180,0,7,,,,,,,,6,,,66,0
343380,note_on,180,0,9,,,,,,,,8,,,42,0
343380,note_on,180,0,6,,,,,,,,5,,,69,0
343392,note_on,192,0,5,,,,,,,,4,,,84,0
343440,note_on,60,0,8,,,,,,,,7,,,50,105
343440,note_on,60,0,9,,,,,,,,8,,,38,105
343440,note_on,60,0,2,,,,,,,,1,,,50,105
343440,note_on,48,0,5,,,,,,,,4,,,84,105
343440,note_on,60,0,7,,,,,,,,6,,,62,105
343440,note_on,60,0,6,,,,,,,,5,,,66,105
343620,note_on,180,0,2,,,,,,,,1,,,50,0
343620,note_on,180,0,9,,,,,,,,8,,,38,0
343620,note_on,180,0,7,,,,,,,,6,,,62,0
343620,note_on,180,0,6,,,,,,,,5,,,66,0
343620,note_on,180,0,8,,,,,,,,7,,,50,0
343632,note_on,912,0,1,,,,,,,,0,,,72,0
343632,note_on,192,0,5,,,,,,,,4,,,84,0
343680,note_on,60,0,8,,,,,,,,7,,,57,105
343680,note_on,48,0,1,,,,,,,,0,,,70,105
343680,note_on,48,0,5,,,,,,,,4,,,82,105
343680,note_on,60,0,6,,,,,,,,5,,,74,105
343680,note_on,60,0,7,,,,,,,,6,,,67,105
343680,note_on,60,0,2,,,,,,,,1,,,57,105
343680,note_on,60,0,9,,,,,,,,8,,,45,105
343860,note_on,180,0,6,,,,,,,,5,,,74,0
343860,note_on,180,0,7,,,,,,,,6,,,67,0
343860,note_on,180,0,8,,,,,,,,7,,,57,0
343860,note_on,180,0,2,,,,,,,,1,,,57,0
343860,note_on,180,0,9,,,,,,,,8,,,45,0
343872,note_on,192,0,5,,,,,,,,4,,,82,0
343920,note_on,60,0,9,,,,,,,,8,,,46,105
343920,note_on,60,0,7,,,,,,,,6,,,62,105
343920,note_on,60,0,2,,,,,,,,1,,,58,105
343920,note_on,48,0,5,,,,,,,,4,,,82,105
343920,note_on,60,0,6,,,,,,,,5,,,70,105
343920,note_on,60,0,8,,,,,,,,7,,,58,105
344100,note_on,180,0,7,,,,,,,,6,,,62,0
344100,note_on,180,0,6,,,,,,,,5,,,70,0
344100,note_on,180,0,8,,,,,,,,7,,,58,0
344100,note_on,180,0,2,,,,,,,,1,,,58,0
344100,note_on,180,0,9,,,,,,,,8,,,46,0
344112,note_on,192,0,5,,,,,,,,4,,,82,0
344160,note_on,60,0,7,,,,,,,,6,,,58,105
344160,note_on,48,0,5,,,,,,,,4,,,82,105
344160,note_on,60,0,2,,,,,,,,1,,,62,105
344160,note_on,60,0,8,,,,,,,,7,,,62,105
344160,note_on,60,0,6,,,,,,,,5,,,67,105
344160,note_on,60,0,9,,,,,,,,8,,,50,105
344340,note_on,180,0,8,,,,,,,,7,,,62,0
344340,note_on,180,0,6,,,,,,,,5,,,67,0
344340,note_on,180,0,7,,,,,,,,6,,,58,0
344340,note_on,180,0,9,,,,,,,,8,,,50,0
344340,note_on,180,0,2,,,,,,,,1,,,62,0
344352,note_on,192,0,5,,,,,,,,4,,,82,0
344400,note_on,60,0,9,,,,,,,,8,,,43,105
344400,note_on,48,0,5,,,,,,,,4,,,82,105
344400,note_on,60,0,8,,,,,,,,7,,,55,105
344400,note_on,60,0,6,,,,,,,,5,,,70,105
344400,note_on,60,0,2,,,,,,,,1,,,55,105
344400,note_on,60,0,7,,,,,,,,6,,,62,105
344448,note_on,768,0,1,,,,,,,,0,,,70,0
344580,note_on,180,0,8,,,,,,,,7,,,55,0
344580,note_on,180,0,6,,,,,,,,5,,,70,0
344580,note_on,180,0,9,,,,,,,,8,,,43,0
344580,note_on,180,0,7,,,,,,,,6,,,62,0
344580,note_on,180,0,2,,,,,,,,1,,,55,0
344592,note_on,192,0,5,,,,,,,,4,,,82,0
344640,note_on,48,0,5,,,,,,,,4,,,73,105
344640,note_on,60,0,8,,,,,,,,7,,,51,105
344640,note_on,60,0,7,,,,,,,,6,,,63,105
344640,note_on,60,0,6,,,,,,,,5,,,67,105
344640,note_on,60,0,2,,,,,,,,1,,,51,105
344640,note_on,60,0,9,,,,,,,,8,,,39,105
344820,note_on,180,0,8,,,,,,,,7,,,51,0
344820,note_on,180,0,9,,,,,,,,8,,,39,0
344820,note_on,180,0,7,,,,,,,,6,,,63,0
344820,note_on,180,0,6,,,,,,,,5,,,67,0
344820,note_on,180,0,2,,,,,,,,1,,,51,0
344832,note_on,192,0,5,,,,,,,,4,,,73,0
344880,note_on,60,0,6,,,,,,,,5,,,70,105
344880,note_on,60,0,8,,,,,,,,7,,,55,105
344880,note_on,60,0,2,,,,,,,,1,,,55,105
344880,note_on,60,0,9,,,,,,,,8,,,43,105
344880,note_on,48,0,5,,,,,,,,4,,,73,105
344880,note_on,60,0,7,,,,,,,,6,,,67,105
345060,note_on,180,0,8,,,,,,,,7,,,55,0
345060,note_on,180,0,2,,,,,,,,1,,,55,0
345060,note_on,180,0,6,,,,,,,,5,,,70,0
345060,note_on,180,0,7,,,,,,,,6,,,67,0
345060,note_on,180,0,9,,,,,,,,8,,,43,0
345072,note_on,192,0,5,,,,,,,,4,,,73,0
345120,note_on,48,0,5,,,,,,,,4,,,73,105
345120,note_on,60,0,6,,,,,,,,5,,,69,105
345120,note_on,60,0,7,,,,,,,,6,,,65,105
345120,note_on,60,0,9,,,,,,,,8,,,41,105
345120,note_on,60,0,8,,,,,,,,7,,,53,105
345120,note_on,60,0,2,,,,,,,,1,,,53,105
345300,note_on,180,0,6,,,,,,,,5,,,69,0
345300,note_on,180,0,9,,,,,,,,8,,,41,0
345300,note_on,180,0,2,,,,,,,,1,,,53,0
345300,note_on,180,0,7,,,,,,,,6,,,65,0
345300,note_on,180,0,8,,,,,,,,7,,,53,0
345312,note_on,192,0,5,,,,,,,,4,,,73,0
345360,note_on,60,0,7,,,,,,,,6,,,63,105
345360,note_on,60,0,6,,,,,,,,5,,,67,105
345360,note_on,60,0,2,,,,,,,,1,,,51,105
345360,note_on,60,0,8,,,,,,,,7,,,51,105
345360,note_on,48,0,5,,,,,,,,4,,,73,105
345360,note_on,60,0,9,,,,,,,,8,,,39,105
345540,note_on,180,0,8,,,,,,,,7,,,51,0
345540,note_on,180,0,6,,,,,,,,5,,,67,0
345540,note_on,180,0,9,,,,,,,,8,,,39,0
345540,note_on,180,0,7,,,,,,,,6,,,63,0
345540,note_on,180,0,2,,,,,,,,1,,,51,0
345552,note_on,192,0,5,,,,,,,,4,,,73,0
345600,note_on,60,0,9,,,,,,,,8,,,38,105
345600,note_on,60,0,2,,,,,,,,1,,,50,105
345600,note_on,60,0,7,,,,,,,,6,,,69,105
345600,note_on,5376,0,4,,,,,,,,3,,,62,105
345600,note_on,0,0,1,,,,,,,,0,,,69,105
345600,note_on,60,0,6,,,,,,,,5,,,66,105
345600,note_on,0,0,3,,,,,,,,2,,,62,105
345600,note_on,37056,0,3,,,,,,,,2,,,74,105
345600,note_on,48,0,5,,,,,,,,4,,,74,105
345600,note_on,1152,0,1,,,,,,,,0,,,74,105
345600,note_on,60,0,8,,,,,,,,7,,,50,105
345792,note_on,192,0,5,,,,,,,,4,,,74,0
345792,note_on,192,0,7,,,,,,,,6,,,69,0
345792,note_on,192,0,6,,,,,,,,5,,,66,0
345840,note_on,48,0,7,,,,,,,,6,,,69,105
345840,note_on,48,0,5,,,,,,,,4,,,74,105
345840,note_on,48,0,6,,,,,,,,5,,,66,105
345912,note_on,312,0,9,,,,,,,,8,,,38,0
345912,note_on,312,0,2,,,,,,,,1,,,50,0
345912,note_on,312,0,8,,,,,,,,7,,,50,0
346080,note_on,168,0,2,,,,,,,,1,,,62,105
346080,note_on,168,0,8,,,,,,,,7,,,62,105
346080,note_on,168,0,9,,,,,,,,8,,,50,105
346224,note_on,384,0,6,,,,,,,,5,,,66,0
346224,note_on,384,0,7,,,,,,,,6,,,69,0
346224,note_on,384,0,5,,,,,,,,4,,,74,0
346320,note_on,96,0,7,,,,,,,,6,,,69,105
346320,note_on,96,0,5,,,,,,,,4,,,74,105
346320,note_on,96,0,6,,,,,,,,5,,,66,105
346392,note_on,312,0,8,,,,,,,,7,,,62,0
346392,note_on,312,0,9,,,,,,,,8,,,50,0
346392,note_on,312,0,2,,,,,,,,1,,,62,0
346512,note_on,192,0,6,,,,,,,,5,,,66,0
346512,note_on,192,0,5,,,,,,,,4,,,74,0
346560,note_on,48,0,6,,,,,,,,5,,,78,105
346560,note_on,0,0,1,,,,,,,,0,,,78,105
346560,note_on,960,0,1,,,,,,,,0,,,74,0
346560,note_on,48,0,5,,,,,,,,4,,,86,105
346704,note_on,384,0,7,,,,,,,,6,,,69,0
346752,note_on,192,0,6,,,,,,,,5,,,78,0
346752,note_on,192,0,5,,,,,,,,4,,,86,0
346800,note_on,96,0,7,,,,,,,,6,,,69,105
346800,note_on,48,0,6,,,,,,,,5,,,78,105
346800,note_on,48,0,5,,,,,,,,4,,,86,105
347040,note_on,648,0,9,,,,,,,,8,,,50,105
347040,note_on,648,0,8,,,,,,,,7,,,62,105
347040,note_on,648,0,2,,,,,,,,1,,,62,105
347184,note_on,384,0,5,,,,,,,,4,,,86,0
347184,note_on,384,0,7,,,,,,,,6,,,69,0
347184,note_on,384,0,6,,,,,,,,5,,,78,0
347280,note_on,96,0,7,,,,,,,,6,,,69,105
347280,note_on,96,0,6,,,,,,,,5,,,78,105
347280,note_on,96,0,5,,,,,,,,4,,,86,105
347328,note_on,0,0,1,,,,,,,,0,,,69,0
347328,note_on,768,0,1,,,,,,,,0,,,78,0
347352,note_on,312,0,9,,,,,,,,8,,,50,0
347352,note_on,312,0,2,,,,,,,,1,,,62,0
347352,note_on,312,0,8,,,,,,,,7,,,62,0
347424,note_on,1824,0,3,,,,,,,,2,,,62,0
347424,note_on,1824,0,4,,,,,,,,3,,,62,0
347424,note_on,0,0,3,,,,,,,,2,,,74,0
347472,note_on,192,0,6,,,,,,,,5,,,78,0
347472,note_on,192,0,5,,,,,,,,4,,,86,0
347472,note_on,192,0,7,,,,,,,,6,,,69,0
347520,note_on,96,0,4,,,,,,,,3,,,67,105
347520,note_on,0,0,3,,,,,,,,2,,,58,105
347520,note_on,96,0,3,,,,,,,,2,,,70,105
347520,note_on,168,0,9,,,,,,,,8,,,51,105
347520,note_on,0,0,4,,,,,,,,3,,,55,105
347520,note_on,192,0,1,,,,,,,,0,,,79,105
347520,note_on,0,0,1,,,,,,,,0,,,67,105
347520,note_on,48,0,7,,,,,,,,6,,,70,105
347520,note_on,168,0,2,,,,,,,,1,,,63,105
347520,note_on,168,0,8,,,,,,,,7,,,63,105
347520,note_on,48,0,5,,,,,,,,4,,,85,105
347520,note_on,48,0,6,,,,,,,,5,,,79,105
347712,note_on,192,0,6,,,,,,,,5,,,79,0
347712,note_on,192,0,7,,,,,,,,6,,,70,0
347712,note_on,192,0,5,,,,,,,,4,,,85,0
347760,note_on,48,0,7,,,,,,,,6,,,70,105
347760,note_on,48,0,6,,,,,,,,5,,,79,105
347760,note_on,48,0,5,,,,,,,,4,,,85,105
347832,note_on,312,0,8,,,,,,,,7,,,63,0
347832,note_on,312,0,2,,,,,,,,1,,,63,0
347832,note_on,312,0,9,,,,,,,,8,,,51,0
348000,note_on,168,0,9,,,,,,,,8,,,39,105
348000,note_on,168,0,2,,,,,,,,1,,,51,105
348000,note_on,168,0,8,,,,,,,,7,,,51,105
348144,note_on,384,0,6,,,,,,,,5,,,79,0
348144,note_on,384,0,7,,,,,,,,6,,,70,0
348144,note_on,384,0,5,,,,,,,,4,,,85,0
348240,note_on,96,0,5,,,,,,,,4,,,85,105
348240,note_on,96,0,7,,,,,,,,6,,,70,105
348240,note_on,96,0,6,,,,,,,,5,,,79,105
348312,note_on,312,0,2,,,,,,,,1,,,51,0
348312,note_on,312,0,9,,,,,,,,8,,,39,0
348312,note_on,312,0,8,,,,,,,,7,,,51,0
348432,note_on,192,0,5,,,,,,,,4,,,85,0
348432,note_on,192,0,6,,,,,,,,5,,,79,0
348480,note_on,48,0,6,,,,,,,,5,,,73,105
348480,note_on,0,0,1,,,,,,,,0,,,73,105
348480,note_on,960,0,1,,,,,,,,0,,,67,0
348480,note_on,48,0,5,,,,,,,,4,,,79,105
348624,note_on,384,0,7,,,,,,,,6,,,70,0
348672,note_on,192,0,5,,,,,,,,4,,,79,0
348672,note_on,192,0,6,,,,,,,,5,,,73,0
348720,note_on,96,0,7,,,,,,,,6,,,70,105
348720,note_on,48,0,6,,,,,,,,5,,,73,105
348720,note_on,48,0,5,,,,,,,,4,,,79,105
348960,note_on,648,0,2,,,,,,,,1,,,51,105
348960,note_on,648,0,8,,,,,,,,7,,,51,105
348960,note_on,648,0,9,,,,,,,,8,,,39,105
349104,note_on,384,0,5,,,,,,,,4,,,79,0
349104,note_on,384,0,7,,,,,,,,6,,,70,0
349104,note_on,384,0,6,,,,,,,,5,,,73,0
349200,note_on,96,0,5,,,,,,,,4,,,79,105
349200,note_on,96,0,7,,,,,,,,6,,,70,105
349200,note_on,96,0,6,,,,,,,,5,,,73,105
349272,note_on,312,0,8,,,,,,,,7,,,51,0
349272,note_on,312,0,9,,,,,,,,8,,,39,0
349272,note_on,312,0,2,,,,,,,,1,,,51,0
349344,note_on,1824,0,4,,,,,,,,3,,,55,0
349344,note_on,0,0,4,,,,,,,,3,,,67,0
349344,note_on,0,0,3,,,,,,,,2,,,70,0
349344,note_on,1824,0,3,,,,,,,,2,,,58,0
349392,note_on,192,0,5,,,,,,,,4,,,79,0
349392,note_on,192,0,7,,,,,,,,6,,,70,0
349392,note_on,192,0,6,,,,,,,,5,,,73,0
349440,note_on,960,0,1,,,,,,,,0,,,73,0
349440,set_tempo,55680,1,0,,,,,,322581,,,,,,
349440,note_on,0,0,1,,,,,,,,0,,,78,92
349440,note_on,168,0,9,,,,,,,,8,,,38,92
349440,note_on,96,0,3,,,,,,,,2,,,62,92
349440,note_on,0,0,1,,,,,,,,0,,,74,92
349440,note_on,168,0,8,,,,,,,,7,,,50,105
349440,note_on,48,0,6,,,,,,,,5,,,74,92
349440,note_on,168,0,2,,,,,,,,1,,,50,92
349440,note_on,0,0,3,,,,,,,,2,,,74,92
349440,note_on,0,0,1,,,,,,,,0,,,79,0
349440,note_on,48,0,5,,,,,,,,4,,,78,110
349440,note_on,0,0,4,,,,,,,,3,,,69,92
349440,note_on,96,0,4,,,,,,,,3,,,50,92
349440,note_on,0,0,7,,,,,,,,6,,,69,92
349440,note_on,48,0,7,,,,,,,,6,,,62,92
349752,note_on,312,0,2,,,,,,,,1,,,50,0
349752,note_on,312,0,9,,,,,,,,8,,,38,0
349752,note_on,312,0,8,,,,,,,,7,,,50,0
349824,note_on,384,0,5,,,,,,,,4,,,78,0
349824,note_on,0,0,7,,,,,,,,6,,,62,0
349824,note_on,384,0,7,,,,,,,,6,,,69,0
349824,note_on,384,0,6,,,,,,,,5,,,74,0
349824,note_on,0,0,1,,,,,,,,0,,,74,0
349824,note_on,0,0,3,,,,,,,,2,,,62,0
349824,note_on,0,0,4,,,,,,,,3,,,50,0
349824,note_on,384,0,4,,,,,,,,3,,,69,0
349824,note_on,384,0,1,,,,,,,,0,,,78,0
349824,note_on,384,0,3,,,,,,,,2,,,74,0
349920,note_on,96,0,5,,,,,,,,4,,,75,70
350784,note_on,864,0,5,,,,,,,,4,,,75,0
350880,note_on,96,0,5,,,,,,,,4,,,72,70
351792,note_on,912,0,5,,,,,,,,4,,,72,0
351840,note_on,48,0,5,,,,,,,,4,,,69,70
352704,note_on,864,0,5,,,,,,,,4,,,69,0
352800,note_on,96,0,5,,,,,,,,4,,,66,70
353232,note_on,432,0,5,,,,,,,,4,,,66,0
353280,note_on,3528,0,9,,,,,,,,8,,,43,58
353280,note_on,3456,0,6,,,,,,,,5,,,67,58
353280,set_tempo,3840,1,0,,,,,,300000,,,,,,
353280,note_on,3528,0,8,,,,,,,,7,,,55,58
353280,note_on,48,0,5,,,,,,,,4,,,67,70
353280,note_on,3456,0,7,,,,,,,,6,,,55,58
353592,note_on,312,0,7,,,,,,,,6,,,55,0
353592,note_on,312,0,8,,,,,,,,7,,,55,0
353592,note_on,312,0,9,,,,,,,,8,,,43,0
353592,note_on,312,0,5,,,,,,,,4,,,67,0
353592,note_on,312,0,6,,,,,,,,5,,,67,0
353760,note_on,168,0,6,,,,,,,,5,,,62,58
353760,note_on,168,0,7,,,,,,,,6,,,50,58
353760,note_on,168,0,9,,,,,,,,8,,,38,58
353760,note_on,168,0,8,,,,,,,,7,,,50,58
353760,note_on,168,0,5,,,,,,,,4,,,62,58
354072,note_on,312,0,9,,,,,,,,8,,,38,0
354072,note_on,312,0,6,,,,,,,,5,,,62,0
354072,note_on,312,0,8,,,,,,,,7,,,50,0
354072,note_on,312,0,5,,,,,,,,4,,,62,0
354072,note_on,312,0,7,,,,,,,,6,,,50,0
354240,note_on,168,0,5,,,,,,,,4,,,70,58
354240,note_on,168,0,6,,,,,,,,5,,,70,58
354240,note_on,168,0,8,,,,,,,,7,,,58,58
354240,note_on,168,0,9,,,,,,,,8,,,46,58
354240,note_on,168,0,7,,,,,,,,6,,,58,58
354780,note_on,540,0,8,,,,,,,,7,,,58,0
354780,note_on,540,0,6,,,,,,,,5,,,70,0
354780,note_on,540,0,5,,,,,,,,4,,,70,0
354780,note_on,540,0,9,,,,,,,,8,,,46,0
354780,note_on,540,0,7,,,,,,,,6,,,58,0
354960,note_on,180,0,9,,,,,,,,8,,,45,58
354960,note_on,180,0,5,,,,,,,,4,,,69,58
354960,note_on,180,0,6,,,,,,,,5,,,69,58
354960,note_on,180,0,7,,,,,,,,6,,,57,58
354960,note_on,180,0,8,,,,,,,,7,,,57,58
355116,note_on,156,0,9,,,,,,,,8,,,45,0
355116,note_on,156,0,5,,,,,,,,4,,,69,0
355116,note_on,156,0,7,,,,,,,,6,,,57,0
355116,note_on,156,0,8,,,,,,,,7,,,57,0
355116,note_on,156,0,6,,,,,,,,5,,,69,0
355200,note_on,84,0,5,,,,,,,,4,,,67,58
355200,note_on,84,0,6,,,,,,,,5,,,67,58
355200,note_on,84,0,7,,,,,,,,6,,,55,58
355200,note_on,84,0,9,,,,,,,,8,,,43,58
355200,note_on,84,0,8,,,,,,,,7,,,55,58
355512,note_on,312,0,7,,,,,,,,6,,,55,0
355512,note_on,312,0,5,,,,,,,,4,,,67,0
355512,note_on,312,0,9,,,,,,,,8,,,43,0
355512,note_on,312,0,6,,,,,,,,5,,,67,0
355512,note_on,312,0,8,,,,,,,,7,,,55,0
355680,note_on,168,0,8,,,,,,,,7,,,58,58
355680,note_on,168,0,7,,,,,,,,6,,,58,58
355680,note_on,168,0,9,,,,,,,,8,,,46,58
355680,note_on,168,0,5,,,,,,,,4,,,70,58
355680,note_on,168,0,6,,,,,,,,5,,,70,58
356160,note_on,0,0,6,,,,,,,,5,,,69,58
356160,note_on,480,0,8,,,,,,,,7,,,58,0
356160,note_on,0,0,8,,,,,,,,7,,,57,58
356160,note_on,480,0,6,,,,,,,,5,,,70,0
356160,note_on,0,0,7,,,,,,,,6,,,57,58
356160,note_on,480,0,7,,,,,,,,6,,,58,0
356160,note_on,480,0,9,,,,,,,,8,,,46,0
356160,note_on,0,0,9,,,,,,,,8,,,45,58
356160,note_on,0,0,5,,,,,,,,4,,,69,58
356160,note_on,480,0,5,,,,,,,,4,,,70,0
356640,note_on,0,0,9,,,,,,,,8,,,43,58
356640,note_on,480,0,9,,,,,,,,8,,,45,0
356640,note_on,0,0,7,,,,,,,,6,,,55,58
356640,note_on,0,0,8,,,,,,,,7,,,55,58
356640,note_on,480,0,5,,,,,,,,4,,,69,0
356640,note_on,480,0,7,,,,,,,,6,,,57,0
356640,note_on,0,0,6,,,,,,,,5,,,67,58
356640,note_on,480,0,6,,,,,,,,5,,,69,0
356640,note_on,480,0,8,,,,,,,,7,,,57,0
356640,note_on,0,0,5,,,,,,,,4,,,67,58
357096,note_on,456,0,8,,,,,,,,7,,,55,0
357096,note_on,456,0,9,,,,,,,,8,,,43,0
357096,note_on,456,0,5,,,,,,,,4,,,67,0
357096,note_on,456,0,7,,,,,,,,6,,,55,0
357096,note_on,456,0,6,,,,,,,,5,,,67,0
357120,note_on,24,0,7,,,,,,,,6,,,54,58
357120,note_on,24,0,8,,,,,,,,7,,,54,58
357120,note_on,24,0,9,,,,,,,,8,,,42,58
357120,note_on,24,0,5,,,,,,,,4,,,66,58
357120,note_on,24,0,6,,,,,,,,5,,,66,58
357432,note_on,312,0,9,,,,,,,,8,,,42,0
357432,note_on,312,0,7,,,,,,,,6,,,54,0
357432,note_on,312,0,8,,,,,,,,7,,,54,0
357432,note_on,312,0,6,,,,,,,,5,,,66,0
357432,note_on,312,0,5,,,,,,,,4,,,66,0
357600,note_on,168,0,6,,,,,,,,5,,,62,58
357600,note_on,168,0,8,,,,,,,,7,,,50,58
357600,note_on,168,0,7,,,,,,,,6,,,50,58
357600,note_on,168,0,9,,,,,,,,8,,,38,58
357600,note_on,168,0,5,,,,,,,,4,,,62,58
357912,note_on,312,0,5,,,,,,,,4,,,62,0
357912,note_on,312,0,8,,,,,,,,7,,,50,0
357912,note_on,312,0,6,,,,,,,,5,,,62,0
357912,note_on,312,0,7,,,,,,,,6,,,50,0
357912,note_on,312,0,9,,,,,,,,8,,,38,0
358080,note_on,168,0,9,,,,,,,,8,,,48,58
358080,note_on,168,0,8,,,,,,,,7,,,60,58
358080,note_on,168,0,6,,,,,,,,5,,,72,58
358080,note_on,168,0,7,,,,,,,,6,,,60,58
358080,note_on,168,0,5,,,,,,,,4,,,72,58
358620,note_on,540,0,9,,,,,,,,8,,,48,0
358620,note_on,540,0,7,,,,,,,,6,,,60,0
358620,note_on,540,0,5,,,,,,,,4,,,72,0
358620,note_on,540,0,6,,,,,,,,5,,,72,0
358620,note_on,540,0,8,,,,,,,,7,,,60,0
358800,note_on,180,0,7,,,,,,,,6,,,58,58
358800,note_on,180,0,5,,,,,,,,4,,,70,58
358800,note_on,180,0,9,,,,,,,,8,,,46,58
358800,note_on,180,0,8,,,,,,,,7,,,58,58
358800,note_on,180,0,6,,,,,,,,5,,,70,58
358956,note_on,156,0,8,,,,,,,,7,,,58,0
358956,note_on,156,0,5,,,,,,,,4,,,70,0
358956,note_on,156,0,7,,,,,,,,6,,,58,0
358956,note_on,156,0,6,,,,,,,,5,,,70,0
358956,note_on,156,0,9,,,,,,,,8,,,46,0
359040,note_on,84,0,7,,,,,,,,6,,,57,58
359040,note_on,84,0,5,,,,,,,,4,,,69,58
359040,note_on,84,0,9,,,,,,,,8,,,45,58
359040,note_on,84,0,8,,,,,,,,7,,,57,58
359040,note_on,84,0,6,,,,,,,,5,,,69,58
359352,note_on,312,0,9,,,,,,,,8,,,45,0
359352,note_on,312,0,6,,,,,,,,5,,,69,0
359352,note_on,312,0,7,,,,,,,,6,,,57,0
359352,note_on,312,0,8,,,,,,,,7,,,57,0
359352,note_on,312,0,5,,,,,,,,4,,,69,0
359520,note_on,168,0,6,,,,,,,,5,,,72,58
359520,note_on,168,0,7,,,,,,,,6,,,60,58
359520,note_on,168,0,5,,,,,,,,4,,,72,58
359520,note_on,168,0,8,,,,,,,,7,,,60,58
359520,note_on,168,0,9,,,,,,,,8,,,48,58
360000,note_on,0,0,5,,,,,,,,4,,,70,58
360000,note_on,480,0,5,,,,,,,,4,,,72,0
360000,note_on,0,0,6,,,,,,,,5,,,70,58
360000,note_on,480,0,6,,,,,,,,5,,,72,0
360000,note_on,480,0,8,,,,,,,,7,,,60,0
360000,note_on,0,0,8,,,,,,,,7,,,58,58
360000,note_on,0,0,7,,,,,,,,6,,,58,58
360000,note_on,480,0,7,,,,,,,,6,,,60,0
360000,note_on,480,0,9,,,,,,,,8,,,48,0
360000,note_on,0,0,9,,,,,,,,8,,,46,58
360480,note_on,480,0,8,,,,,,,,7,,,58,0
360480,note_on,0,0,8,,,,,,,,7,,,57,58
360480,note_on,480,0,9,,,,,,,,8,,,46,0
360480,note_on,480,0,7,,,,,,,,6,,,58,0
360480,note_on,0,0,7,,,,,,,,6,,,57,58
360480,note_on,0,0,9,,,,,,,,8,,,45,58
360480,note_on,0,0,5,,,,,,,,4,,,69,58
360480,note_on,480,0,6,,,,,,,,5,,,70,0
360480,note_on,480,0,5,,,,,,,,4,,,70,0
360480,note_on,0,0,6,,,,,,,,5,,,69,58
360936,note_on,456,0,7,,,,,,,,6,,,57,0
360936,note_on,456,0,9,,,,,,,,8,,,45,0
360936,note_on,456,0,5,,,,,,,,4,,,69,0
360936,note_on,456,0,6,,,,,,,,5,,,69,0
360936,note_on,456,0,8,,,,,,,,7,,,57,0
360960,note_on,24,0,6,,,,,,,,5,,,67,58
360960,note_on,24,0,7,,,,,,,,6,,,55,58
360960,note_on,24,0,9,,,,,,,,8,,,43,58
360960,note_on,24,0,8,,,,,,,,7,,,55,58
360960,note_on,24,0,5,,,,,,,,4,,,67,58
361272,note_on,312,0,8,,,,,,,,7,,,55,0
361272,note_on,312,0,9,,,,,,,,8,,,43,0
361272,note_on,312,0,7,,,,,,,,6,,,55,0
361272,note_on,312,0,6,,,,,,,,5,,,67,0
361272,note_on,312,0,5,,,,,,,,4,,,67,0
361440,note_on,168,0,6,,,,,,,,5,,,70,58
361440,note_on,168,0,9,,,,,,,,8,,,46,58
361440,note_on,168,0,7,,,,,,,,6,,,58,58
361440,note_on,168,0,8,,,,,,,,7,,,58,58
361440,note_on,168,0,5,,,,,,,,4,,,70,58
361752,note_on,312,0,8,,,,,,,,7,,,58,0
361752,note_on,312,0,7,,,,,,,,6,,,58,0
361752,note_on,312,0,5,,,,,,,,4,,,70,0
361752,note_on,312,0,6,,,,,,,,5,,,70,0
361752,note_on,312,0,9,,,,,,,,8,,,46,0
361920,note_on,168,0,7,,,,,,,,6,,,63,58
361920,note_on,168,0,5,,,,,,,,4,,,75,58
361920,note_on,168,0,8,,,,,,,,7,,,63,58
361920,note_on,168,0,9,,,,,,,,8,,,51,58
361920,note_on,168,0,6,,,,,,,,5,,,75,58
362424,note_on,504,0,9,,,,,,,,8,,,51,0
362424,note_on,504,0,5,,,,,,,,4,,,75,0
362424,note_on,504,0,6,,,,,,,,5,,,75,0
362424,note_on,504,0,8,,,,,,,,7,,,63,0
362424,note_on,504,0,7,,,,,,,,6,,,63,0
362640,note_on,216,0,5,,,,,,,,4,,,74,58
362640,note_on,216,0,6,,,,,,,,5,,,74,58
362640,note_on,216,0,7,,,,,,,,6,,,62,58
362640,note_on,216,0,8,,,,,,,,7,,,62,58
362640,note_on,216,0,9,,,,,,,,8,,,50,58
362796,note_on,156,0,7,,,,,,,,6,,,62,0
362796,note_on,156,0,8,,,,,,,,7,,,62,0
362796,note_on,156,0,9,,,,,,,,8,,,50,0
362796,note_on,156,0,5,,,,,,,,4,,,74,0
362796,note_on,156,0,6,,,,,,,,5,,,74,0
362880,note_on,84,0,6,,,,,,,,5,,,72,58
362880,note_on,84,0,5,,,,,,,,4,,,72,58
362880,note_on,84,0,9,,,,,,,,8,,,48,58
362880,note_on,84,0,7,,,,,,,,6,,,60,58
362880,note_on,84,0,8,,,,,,,,7,,,60,58
363192,note_on,312,0,7,,,,,,,,6,,,60,0
363192,note_on,312,0,6,,,,,,,,5,,,72,0
363192,note_on,312,0,9,,,,,,,,8,,,48,0
363192,note_on,312,0,8,,,,,,,,7,,,60,0
363192,note_on,312,0,5,,,,,,,,4,,,72,0
363360,note_on,168,0,5,,,,,,,,4,,,69,58
363360,note_on,168,0,8,,,,,,,,7,,,57,58
363360,note_on,168,0,6,,,,,,,,5,,,69,58
363360,note_on,168,0,9,,,,,,,,8,,,45,58
363360,note_on,168,0,7,,,,,,,,6,,,57,58
363672,note_on,312,0,5,,,,,,,,4,,,69,0
363672,note_on,312,0,7,,,,,,,,6,,,57,0
363672,note_on,312,0,6,,,,,,,,5,,,69,0
363672,note_on,312,0,8,,,,,,,,7,,,57,0
363672,note_on,312,0,9,,,,,,,,8,,,45,0
363840,note_on,168,0,7,,,,,,,,6,,,62,58
363840,note_on,168,0,5,,,,,,,,4,,,74,58
363840,note_on,168,0,8,,,,,,,,7,,,62,58
363840,note_on,168,0,6,,,,,,,,5,,,74,58
363840,note_on,168,0,9,,,,,,,,8,,,50,58
364344,note_on,504,0,5,,,,,,,,4,,,74,0
364344,note_on,504,0,7,,,,,,,,6,,,62,0
364344,note_on,504,0,8,,,,,,,,7,,,62,0
364344,note_on,504,0,6,,,,,,,,5,,,74,0
364344,note_on,504,0,9,,,,,,,,8,,,50,0
364560,note_on,216,0,6,,,,,,,,5,,,72,58
364560,note_on,216,0,5,,,,,,,,4,,,72,58
364560,note_on,216,0,8,,,,,,,,7,,,60,58
364560,note_on,216,0,7,,,,,,,,6,,,60,58
364560,note_on,216,0,9,,,,,,,,8,,,48,58
364716,note_on,156,0,8,,,,,,,,7,,,60,0
364716,note_on,156,0,5,,,,,,,,4,,,72,0
364716,note_on,156,0,6,,,,,,,,5,,,72,0
364716,note_on,156,0,7,,,,,,,,6,,,60,0
364716,note_on,156,0,9,,,,,,,,8,,,48,0
364800,note_on,84,0,9,,,,,,,,8,,,46,58
364800,note_on,84,0,6,,,,,,,,5,,,70,58
364800,note_on,84,0,8,,,,,,,,7,,,58,58
364800,note_on,84,0,5,,,,,,,,4,,,70,58
364800,note_on,84,0,7,,,,,,,,6,,,58,58
365112,note_on,312,0,8,,,,,,,,7,,,58,0
365112,note_on,312,0,7,,,,,,,,6,,,58,0
365112,note_on,312,0,5,,,,,,,,4,,,70,0
365112,note_on,312,0,9,,,,,,,,8,,,46,0
365112,note_on,312,0,6,,,,,,,,5,,,70,0
365280,note_on,168,0,7,,,,,,,,6,,,55,58
365280,note_on,168,0,5,,,,,,,,4,,,67,58
365280,note_on,168,0,9,,,,,,,,8,,,43,58
365280,note_on,168,0,8,,,,,,,,7,,,55,58
365280,note_on,168,0,6,,,,,,,,5,,,67,58
365592,note_on,312,0,7,,,,,,,,6,,,55,0
365592,note_on,312,0,5,,,,,,,,4,,,67,0
365592,note_on,312,0,9,,,,,,,,8,,,43,0
365592,note_on,312,0,8,,,,,,,,7,,,55,0
365592,note_on,312,0,6,,,,,,,,5,,,67,0
365760,note_on,168,0,8,,,,,,,,7,,,51,58
365760,note_on,168,0,6,,,,,,,,5,,,63,58
365760,note_on,168,0,9,,,,,,,,8,,,39,58
365760,note_on,168,0,7,,,,,,,,6,,,51,58
365760,note_on,168,0,5,,,,,,,,4,,,63,58
366072,note_on,312,0,6,,,,,,,,5,,,63,0
366072,note_on,312,0,9,,,,,,,,8,,,39,0
366072,note_on,312,0,8,,,,,,,,7,,,51,0
366072,note_on,312,0,5,,,,,,,,4,,,63,0
366072,note_on,312,0,7,,,,,,,,6,,,51,0
366240,note_on,168,0,5,,,,,,,,4,,,61,58
366240,note_on,168,0,9,,,,,,,,8,,,37,58
366240,note_on,168,0,6,,,,,,,,5,,,61,58
366240,note_on,168,0,7,,,,,,,,6,,,49,58
366240,note_on,168,0,8,,,,,,,,7,,,49,58
366552,note_on,312,0,7,,,,,,,,6,,,49,0
366552,note_on,312,0,9,,,,,,,,8,,,37,0
366552,note_on,312,0,6,,,,,,,,5,,,61,0
366552,note_on,312,0,8,,,,,,,,7,,,49,0
366552,note_on,312,0,5,,,,,,,,4,,,61,0
366720,note_on,168,0,5,,,,,,,,4,,,62,58
366720,note_on,168,0,7,,,,,,,,6,,,50,58
366720,note_on,168,0,6,,,,,,,,5,,,62,58
366720,note_on,168,0,9,,,,,,,,8,,,38,58
366720,note_on,168,0,8,,,,,,,,7,,,50,58
367032,note_on,312,0,9,,,,,,,,8,,,38,0
367032,note_on,312,0,5,,,,,,,,4,,,62,0
367032,note_on,312,0,7,,,,,,,,6,,,50,0
367032,note_on,312,0,6,,,,,,,,5,,,62,0
367032,note_on,312,0,8,,,,,,,,7,,,50,0
367200,note_on,168,0,9,,,,,,,,8,,,48,58
367200,note_on,168,0,7,,,,,,,,6,,,60,58
367200,note_on,168,0,6,,,,,,,,5,,,72,58
367200,note_on,168,0,5,,,,,,,,4,,,72,58
367200,note_on,168,0,8,,,,,,,,7,,,60,58
367680,note_on,0,0,7,,,,,,,,6,,,58,58
367680,note_on,0,0,8,,,,,,,,7,,,58,58
367680,note_on,480,0,6,,,,,,,,5,,,72,0
367680,note_on,0,0,6,,,,,,,,5,,,70,58
367680,note_on,480,0,7,,,,,,,,6,,,60,0
367680,note_on,480,0,9,,,,,,,,8,,,48,0
367680,note_on,480,0,8,,,,,,,,7,,,60,0
367680,note_on,480,0,5,,,,,,,,4,,,72,0
367680,note_on,0,0,9,,,,,,,,8,,,46,58
367680,note_on,0,0,5,,,,,,,,4,,,70,58
368160,note_on,480,0,5,,,,,,,,4,,,70,0
368160,note_on,0,0,5,,,,,,,,4,,,69,58
368160,note_on,480,0,6,,,,,,,,5,,,70,0
368160,note_on,0,0,8,,,,,,,,7,,,57,58
368160,note_on,480,0,8,,,,,,,,7,,,58,0
368160,note_on,0,0,6,,,,,,,,5,,,69,58
368160,note_on,480,0,7,,,,,,,,6,,,58,0
368160,note_on,0,0,7,,,,,,,,6,,,57,58
368160,note_on,0,0,9,,,,,,,,8,,,45,58
368160,note_on,480,0,9,,,,,,,,8,,,46,0
368472,note_on,312,0,8,,,,,,,,7,,,57,0
368472,note_on,312,0,9,,,,,,,,8,,,45,0
368472,note_on,312,0,7,,,,,,,,6,,,57,0
368472,note_on,312,0,6,,,,,,,,5,,,69,0
368472,note_on,312,0,5,,,,,,,,4,,,69,0
368640,note_on,18816,0,1,,,,,,,,0,,,67,105
368640,note_on,168,0,9,,,,,,,,8,,,43,105
368640,note_on,18888,0,2,,,,,,,,1,,,55,105
368640,note_on,168,0,6,,,,,,,,5,,,67,105
368640,note_on,168,0,5,,,,,,,,4,,,67,105
368640,note_on,168,0,8,,,,,,,,7,,,55,105
368640,note_on,168,0,7,,,,,,,,6,,,55,105
368640,note_on,18816,0,4,,,,,,,,3,,,67,105
368832,note_on,192,0,6,,,,,,,,5,,,67,0
368832,note_on,192,0,5,,,,,,,,4,,,67,0
368880,note_on,48,0,6,,,,,,,,5,,,74,105
368880,note_on,48,0,5,,,,,,,,4,,,74,105
368952,note_on,312,0,7,,,,,,,,6,,,55,0
368952,note_on,312,0,1,,,,,,,,0,,,67,0
368952,note_on,312,0,8,,,,,,,,7,,,55,0
368952,note_on,312,0,2,,,,,,,,1,,,55,0
368952,note_on,312,0,9,,,,,,,,8,,,43,0
369024,note_on,384,0,4,,,,,,,,3,,,67,0
369120,note_on,168,0,1,,,,,,,,0,,,62,105
369120,note_on,168,0,2,,,,,,,,1,,,50,105
369120,note_on,168,0,7,,,,,,,,6,,,50,105
369120,note_on,96,0,4,,,,,,,,3,,,62,105
369120,note_on,168,0,8,,,,,,,,7,,,50,105
369120,note_on,168,0,9,,,,,,,,8,,,38,105
369264,note_on,384,0,6,,,,,,,,5,,,74,0
369264,note_on,384,0,5,,,,,,,,4,,,74,0
369360,note_on,96,0,6,,,,,,,,5,,,74,105
369360,note_on,96,0,5,,,,,,,,4,,,74,105
369432,note_on,312,0,2,,,,,,,,1,,,50,0
369432,note_on,312,0,1,,,,,,,,0,,,62,0
369432,note_on,312,0,8,,,,,,,,7,,,50,0
369432,note_on,312,0,9,,,,,,,,8,,,38,0
369432,note_on,312,0,7,,,,,,,,6,,,50,0
369504,note_on,384,0,4,,,,,,,,3,,,62,0
369600,note_on,168,0,8,,,,,,,,7,,,58,105
369600,note_on,168,0,2,,,,,,,,1,,,58,105
369600,note_on,168,0,9,,,,,,,,8,,,46,105
369600,note_on,168,0,1,,,,,,,,0,,,70,105
369600,note_on,19776,0,3,,,,,,,,2,,,70,105
369600,note_on,168,0,7,,,,,,,,6,,,58,105
369744,note_on,384,0,5,,,,,,,,4,,,74,0
369744,note_on,384,0,6,,,,,,,,5,,,74,0
369840,note_on,96,0,6,,,,,,,,5,,,74,105
369840,note_on,96,0,5,,,,,,,,4,,,74,105
369984,note_on,384,0,3,,,,,,,,2,,,70,0
370176,note_on,576,0,1,,,,,,,,0,,,70,0
370176,note_on,576,0,2,,,,,,,,1,,,58,0
370176,note_on,576,0,8,,,,,,,,7,,,58,0
370176,note_on,576,0,7,,,,,,,,6,,,58,0
370176,note_on,576,0,9,,,,,,,,8,,,46,0
370224,note_on,384,0,6,,,,,,,,5,,,74,0
370224,note_on,384,0,5,,,,,,,,4,,,74,0
370320,note_on,144,0,8,,,,,,,,7,,,57,105
370320,note_on,96,0,5,,,,,,,,4,,,74,105
370320,note_on,144,0,1,,,,,,,,0,,,69,105
370320,note_on,816,0,4,,,,,,,,3,,,69,105
370320,note_on,144,0,9,,,,,,,,8,,,45,105
370320,note_on,96,0,6,,,,,,,,5,,,74,105
370320,note_on,144,0,2,,,,,,,,1,,,57,105
370320,note_on,144,0,7,,,,,,,,6,,,57,105
370476,note_on,156,0,8,,,,,,,,7,,,57,0
370476,note_on,156,0,2,,,,,,,,1,,,57,0
370476,note_on,156,0,9,,,,,,,,8,,,45,0
370476,note_on,156,0,7,,,,,,,,6,,,57,0
370476,note_on,156,0,1,,,,,,,,0,,,69,0
370512,note_on,192,0,4,,,,,,,,3,,,69,0
370560,note_on,84,0,9,,,,,,,,8,,,43,105
370560,note_on,84,0,7,,,,,,,,6,,,55,105
370560,note_on,48,0,4,,,,,,,,3,,,67,105
370560,note_on,84,0,2,,,,,,,,1,,,55,105
370560,note_on,84,0,8,,,,,,,,7,,,55,105
370560,note_on,84,0,1,,,,,,,,0,,,67,105
370872,note_on,312,0,9,,,,,,,,8,,,43,0
370872,note_on,312,0,7,,,,,,,,6,,,55,0
370872,note_on,312,0,2,,,,,,,,1,,,55,0
370872,note_on,312,0,8,,,,,,,,7,,,55,0
370872,note_on,312,0,1,,,,,,,,0,,,67,0
370944,note_on,384,0,4,,,,,,,,3,,,67,0
370944,note_on,624,0,5,,,,,,,,4,,,74,0
370944,note_on,624,0,6,,,,,,,,5,,,74,0
371040,note_on,0,0,1,,,,,,,,0,,,79,105
371040,note_on,96,0,6,,,,,,,,5,,,74,105
371040,note_on,96,0,5,,,,,,,,4,,,79,105
371040,note_on,1056,0,3,,,,,,,,2,,,70,105
371040,note_on,168,0,2,,,,,,,,1,,,58,105
371040,note_on,168,0,8,,,,,,,,7,,,58,105
371040,note_on,168,0,1,,,,,,,,0,,,74,105
371040,note_on,168,0,7,,,,,,,,6,,,62,105
371040,note_on,168,0,9,,,,,,,,8,,,46,105
371424,note_on,384,0,3,,,,,,,,2,,,70,0
371520,note_on,0,0,9,,,,,,,,8,,,45,105
371520,note_on,0,0,1,,,,,,,,0,,,72,105
371520,note_on,480,0,9,,,,,,,,8,,,46,0
371520,note_on,0,0,1,,,,,,,,0,,,74,0
371520,note_on,480,0,1,,,,,,,,0,,,79,0
371520,note_on,576,0,4,,,,,,,,3,,,69,105
371520,note_on,0,0,1,,,,,,,,0,,,78,105
371520,note_on,480,0,6,,,,,,,,5,,,74,0
371520,note_on,0,0,6,,,,,,,,5,,,72,105
371520,note_on,480,0,5,,,,,,,,4,,,79,0
371520,note_on,0,0,5,,,,,,,,4,,,78,105
371520,note_on,0,0,2,,,,,,,,1,,,57,105
371520,note_on,480,0,2,,,,,,,,1,,,58,0
371520,note_on,480,0,8,,,,,,,,7,,,58,0
371520,note_on,0,0,8,,,,,,,,7,,,57,105
371808,note_on,768,0,7,,,,,,,,6,,,62,0
371904,note_on,384,0,4,,,,,,,,3,,,69,0
372000,note_on,0,0,2,,,,,,,,1,,,55,105
372000,note_on,480,0,2,,,,,,,,1,,,57,0
372000,note_on,480,0,8,,,,,,,,7,,,57,0
372000,note_on,0,0,5,,,,,,,,4,,,79,105
372000,note_on,480,0,5,,,,,,,,4,,,78,0
372000,note_on,480,0,1,,,,,,,,0,,,72,0
372000,note_on,0,0,1,,,,,,,,0,,,78,0
372000,note_on,0,0,1,,,,,,,,0,,,70,105
372000,note_on,0,0,8,,,,,,,,7,,,55,105
372000,note_on,192,0,7,,,,,,,,6,,,62,105
372000,note_on,0,0,1,,,,,,,,0,,,79,105
372000,note_on,0,0,6,,,,,,,,5,,,70,105
372000,note_on,480,0,9,,,,,,,,8,,,45,0
372000,note_on,0,0,9,,,,,,,,8,,,43,105
372000,note_on,96,0,4,,,,,,,,3,,,67,105
372000,note_on,480,0,6,,,,,,,,5,,,72,0
372384,note_on,384,0,6,,,,,,,,5,,,70,0
372384,note_on,384,0,5,,,,,,,,4,,,79,0
372384,note_on,384,0,4,,,,,,,,3,,,67,0
372480,note_on,480,0,9,,,,,,,,8,,,43,0
372480,note_on,0,0,9,,,,,,,,8,,,42,105
372480,note_on,0,0,8,,,,,,,,7,,,54,105
372480,note_on,480,0,8,,,,,,,,7,,,55,0
372480,note_on,0,0,1,,,,,,,,0,,,69,105
372480,note_on,0,0,1,,,,,,,,0,,,70,0
372480,note_on,480,0,1,,,,,,,,0,,,79,0
372480,note_on,96,0,4,,,,,,,,3,,,69,105
372480,note_on,96,0,5,,,,,,,,4,,,81,105
372480,note_on,0,0,1,,,,,,,,0,,,81,105
372480,note_on,96,0,6,,,,,,,,5,,,69,105
372480,note_on,0,0,2,,,,,,,,1,,,54,105
372480,note_on,480,0,2,,,,,,,,1,,,55,0
372672,note_on,192,0,6,,,,,,,,5,,,69,0
372672,note_on,192,0,5,,,,,,,,4,,,81,0
372720,note_on,48,0,6,,,,,,,,5,,,74,105
372720,note_on,48,0,5,,,,,,,,4,,,74,105
372792,note_on,792,0,7,,,,,,,,6,,,62,0
372792,note_on,312,0,9,,,,,,,,8,,,42,0
372792,note_on,0,0,1,,,,,,,,0,,,69,0
372792,note_on,312,0,1,,,,,,,,0,,,81,0
372792,note_on,312,0,2,,,,,,,,1,,,54,0
372792,note_on,312,0,8,,,,,,,,7,,,54,0
372864,note_on,384,0,4,,,,,,,,3,,,69,0
372960,note_on,168,0,7,,,,,,,,6,,,50,105
372960,note_on,168,0,1,,,,,,,,0,,,62,105
372960,note_on,168,0,9,,,,,,,,8,,,38,105
372960,note_on,96,0,4,,,,,,,,3,,,62,105
372960,note_on,168,0,2,,,,,,,,1,,,50,105
372960,note_on,1536,0,3,,,,,,,,2,,,62,105
372960,note_on,168,0,8,,,,,,,,7,,,50,105
373104,note_on,384,0,6,,,,,,,,5,,,74,0
373104,note_on,384,0,5,,,,,,,,4,,,74,0
373200,note_on,96,0,5,,,,,,,,4,,,74,105
373200,note_on,96,0,6,,,,,,,,5,,,74,105
373272,note_on,312,0,8,,,,,,,,7,,,50,0
373272,note_on,312,0,2,,,,,,,,1,,,50,0
373272,note_on,312,0,9,,,,,,,,8,,,38,0
373272,note_on,312,0,1,,,,,,,,0,,,62,0
373272,note_on,312,0,7,,,,,,,,6,,,50,0
373344,note_on,384,0,3,,,,,,,,2,,,62,0
373344,note_on,384,0,4,,,,,,,,3,,,62,0
373440,note_on,168,0,2,,,,,,,,1,,,60,105
373440,note_on,168,0,7,,,,,,,,6,,,60,105
373440,note_on,168,0,8,,,,,,,,7,,,60,105
373440,note_on,168,0,1,,,,,,,,0,,,72,105
373440,note_on,96,0,4,,,,,,,,3,,,72,105
373440,note_on,96,0,3,,,,,,,,2,,,72,105
373440,note_on,168,0,9,,,,,,,,8,,,48,105
373584,note_on,384,0,5,,,,,,,,4,,,74,0
373584,note_on,384,0,6,,,,,,,,5,,,74,0
373680,note_on,96,0,5,,,,,,,,4,,,74,105
373680,note_on,96,0,6,,,,,,,,5,,,74,105
373824,note_on,384,0,3,,,,,,,,2,,,72,0
373824,note_on,384,0,4,,,,,,,,3,,,72,0
374016,note_on,576,0,8,,,,,,,,7,,,60,0
374016,note_on,576,0,2,,,,,,,,1,,,60,0
374016,note_on,576,0,7,,,,,,,,6,,,60,0
374016,note_on,576,0,9,,,,,,,,8,,,48,0
374016,note_on,576,0,1,,,,,,,,0,,,72,0
374064,note_on,384,0,5,,,,,,,,4,,,74,0
374064,note_on,384,0,6,,,,,,,,5,,,74,0
374160,note_on,144,0,8,,,,,,,,7,,,58,105
374160,note_on,144,0,1,,,,,,,,0,,,70,105
374160,note_on,96,0,5,,,,,,,,4,,,74,105
374160,note_on,144,0,7,,,,,,,,6,,,58,105
374160,note_on,144,0,9,,,,,,,,8,,,46,105
374160,note_on,144,0,2,,,,,,,,1,,,58,105
374160,note_on,96,0,6,,,,,,,,5,,,74,105
374316,note_on,156,0,9,,,,,,,,8,,,46,0
374316,note_on,156,0,1,,,,,,,,0,,,70,0
374316,note_on,156,0,7,,,,,,,,6,,,58,0
374316,note_on,156,0,8,,,,,,,,7,,,58,0
374316,note_on,156,0,2,,,,,,,,1,,,58,0
374400,note_on,84,0,1,,,,,,,,0,,,69,105
374400,note_on,576,0,4,,,,,,,,3,,,69,105
374400,note_on,84,0,2,,,,,,,,1,,,57,105
374400,note_on,84,0,8,,,,,,,,7,,,57,105
374400,note_on,84,0,7,,,,,,,,6,,,57,105
374400,note_on,84,0,9,,,,,,,,8,,,45,105
374712,note_on,312,0,8,,,,,,,,7,,,57,0
374712,note_on,312,0,9,,,,,,,,8,,,45,0
374712,note_on,312,0,1,,,,,,,,0,,,69,0
374712,note_on,312,0,7,,,,,,,,6,,,57,0
374712,note_on,312,0,2,,,,,,,,1,,,57,0
374784,note_on,624,0,6,,,,,,,,5,,,74,0
374784,note_on,624,0,5,,,,,,,,4,,,74,0
374784,note_on,384,0,4,,,,,,,,3,,,69,0
374880,note_on,96,0,6,,,,,,,,5,,,75,105
374880,note_on,0,0,1,,,,,,,,0,,,81,105
374880,note_on,1056,0,3,,,,,,,,2,,,72,105
374880,note_on,168,0,8,,,,,,,,7,,,60,105
374880,note_on,168,0,9,,,,,,,,8,,,48,105
374880,note_on,168,0,1,,,,,,,,0,,,75,105
374880,note_on,168,0,7,,,,,,,,6,,,66,105
374880,note_on,96,0,4,,,,,,,,3,,,72,105
374880,note_on,168,0,2,,,,,,,,1,,,60,105
374880,note_on,96,0,5,,,,,,,,4,,,81,105
375264,note_on,384,0,3,,,,,,,,2,,,72,0
375264,note_on,384,0,4,,,,,,,,3,,,72,0
375360,note_on,480,0,1,,,,,,,,0,,,81,0
375360,note_on,480,0,9,,,,,,,,8,,,48,0
375360,note_on,0,0,9,,,,,,,,8,,,46,105
375360,note_on,96,0,3,,,,,,,,2,,,70,105
375360,note_on,0,0,1,,,,,,,,0,,,79,105
375360,note_on,0,0,6,,,,,,,,5,,,74,105
375360,note_on,480,0,6,,,,,,,,5,,,75,0
375360,note_on,0,0,7,,,,,,,,6,,,67,105
375360,note_on,0,0,1,,,,,,,,0,,,74,105
375360,note_on,480,0,7,,,,,,,,6,,,66,0
375360,note_on,0,0,8,,,,,,,,7,,,58,105
375360,note_on,480,0,8,,,,,,,,7,,,60,0
375360,note_on,480,0,5,,,,,,,,4,,,81,0
375360,note_on,0,0,2,,,,,,,,1,,,58,105
375360,note_on,480,0,2,,,,,,,,1,,,60,0
375360,note_on,0,0,1,,,,,,,,0,,,75,0
375360,note_on,0,0,5,,,,,,,,4,,,79,105
375744,note_on,384,0,7,,,,,,,,6,,,67,0
375744,note_on,384,0,3,,,,,,,,2,,,70,0
375840,note_on,480,0,2,,,,,,,,1,,,58,0
375840,note_on,0,0,9,,,,,,,,8,,,45,105
375840,note_on,0,0,2,,,,,,,,1,,,57,105
375840,note_on,480,0,9,,,,,,,,8,,,46,0
375840,note_on,0,0,8,,,,,,,,7,,,57,105
375840,note_on,0,0,5,,,,,,,,4,,,81,105
375840,note_on,480,0,5,,,,,,,,4,,,79,0
375840,note_on,480,0,8,,,,,,,,7,,,58,0
375840,note_on,576,0,4,,,,,,,,3,,,69,105
375840,note_on,96,0,7,,,,,,,,6,,,72,105
375840,note_on,0,0,1,,,,,,,,0,,,81,105
375840,note_on,0,0,1,,,,,,,,0,,,78,105
375840,note_on,0,0,1,,,,,,,,0,,,74,0
375840,note_on,480,0,1,,,,,,,,0,,,79,0
375840,note_on,480,0,6,,,,,,,,5,,,74,0
375840,note_on,0,0,6,,,,,,,,5,,,78,105
376224,note_on,384,0,5,,,,,,,,4,,,81,0
376224,note_on,384,0,4,,,,,,,,3,,,69,0
376224,note_on,384,0,6,,,,,,,,5,,,78,0
376320,note_on,480,0,9,,,,,,,,8,,,45,0
376320,note_on,0,0,9,,,,,,,,8,,,43,105
376320,note_on,480,0,8,,,,,,,,7,,,57,0
376320,note_on,480,0,7,,,,,,,,6,,,72,0
376320,note_on,96,0,4,,,,,,,,3,,,67,105
376320,note_on,0,0,2,,,,,,,,1,,,55,105
376320,note_on,480,0,1,,,,,,,,0,,,81,0
376320,note_on,0,0,1,,,,,,,,0,,,78,0
376320,note_on,0,0,1,,,,,,,,0,,,79,105
376320,note_on,0,0,1,,,,,,,,0,,,82,105
376320,note_on,480,0,2,,,,,,,,1,,,57,0
376320,note_on,96,0,6,,,,,,,,5,,,79,105
376320,note_on,96,0,5,,,,,,,,4,,,82,105
376320,note_on,0,0,7,,,,,,,,6,,,70,105
376320,note_on,0,0,8,,,,,,,,7,,,55,105
376512,note_on,192,0,5,,,,,,,,4,,,82,0
376512,note_on,192,0,6,,,,,,,,5,,,79,0
376560,note_on,48,0,5,,,,,,,,4,,,79,105
376560,note_on,48,0,6,,,,,,,,5,,,79,105
376632,note_on,312,0,2,,,,,,,,1,,,55,0
376632,note_on,312,0,7,,,,,,,,6,,,70,0
376632,note_on,312,0,9,,,,,,,,8,,,43,0
376632,note_on,0,0,1,,,,,,,,0,,,79,0
376632,note_on,312,0,1,,,,,,,,0,,,82,0
376632,note_on,312,0,8,,,,,,,,7,,,55,0
376704,note_on,384,0,4,,,,,,,,3,,,67,0
376800,note_on,168,0,8,,,,,,,,7,,,58,105
376800,note_on,1056,0,3,,,,,,,,2,,,70,105
376800,note_on,168,0,1,,,,,,,,0,,,67,105
376800,note_on,168,0,9,,,,,,,,8,,,46,105
376800,note_on,168,0,2,,,,,,,,1,,,58,105
376800,note_on,168,0,7,,,,,,,,6,,,58,105
376944,note_on,384,0,5,,,,,,,,4,,,79,0
376944,note_on,384,0,6,,,,,,,,5,,,79,0
377040,note_on,96,0,5,,,,,,,,4,,,79,105
377040,note_on,96,0,6,,,,,,,,5,,,79,105
377112,note_on,312,0,7,,,,,,,,6,,,58,0
377112,note_on,312,0,9,,,,,,,,8,,,46,0
377112,note_on,312,0,8,,,,,,,,7,,,58,0
377112,note_on,312,0,2,,,,,,,,1,,,58,0
377112,note_on,312,0,1,,,,,,,,0,,,67,0
377184,note_on,384,0,3,,,,,,,,2,,,70,0
377280,note_on,168,0,9,,,,,,,,8,,,51,105
377280,note_on,96,0,3,,,,,,,,2,,,75,105
377280,note_on,168,0,1,,,,,,,,0,,,79,105
377280,note_on,168,0,8,,,,,,,,7,,,63,105
377280,note_on,168,0,2,,,,,,,,1,,,63,105
377280,note_on,168,0,7,,,,,,,,6,,,63,105
377424,note_on,384,0,6,,,,,,,,5,,,79,0
377424,note_on,384,0,5,,,,,,,,4,,,79,0
377520,note_on,96,0,5,,,,,,,,4,,,79,105
377520,note_on,96,0,6,,,,,,,,5,,,79,105
377856,note_on,576,0,9,,,,,,,,8,,,51,0
377856,note_on,576,0,3,,,,,,,,2,,,75,0
377856,note_on,576,0,2,,,,,,,,1,,,63,0
377856,note_on,576,0,8,,,,,,,,7,,,63,0
377856,note_on,576,0,1,,,,,,,,0,,,79,0
377856,note_on,576,0,7,,,,,,,,6,,,63,0
377904,note_on,384,0,6,,,,,,,,5,,,79,0
377904,note_on,384,0,5,,,,,,,,4,,,79,0
378000,note_on,144,0,2,,,,,,,,1,,,62,105
378000,note_on,144,0,3,,,,,,,,2,,,74,105
378000,note_on,144,0,8,,,,,,,,7,,,62,105
378000,note_on,1296,0,4,,,,,,,,3,,,74,105
378000,note_on,144,0,1,,,,,,,,0,,,77,105
378000,note_on,144,0,7,,,,,,,,6,,,62,105
378000,note_on,96,0,6,,,,,,,,5,,,79,105
378000,note_on,144,0,9,,,,,,,,8,,,50,105
378000,note_on,96,0,5,,,,,,,,4,,,79,105
378156,note_on,156,0,1,,,,,,,,0,,,77,0
378156,note_on,156,0,8,,,,,,,,7,,,62,0
378156,note_on,156,0,9,,,,,,,,8,,,50,0
378156,note_on,156,0,7,,,,,,,,6,,,62,0
378156,note_on,156,0,2,,,,,,,,1,,,62,0
378192,note_on,192,0,4,,,,,,,,3,,,74,0
378192,note_on,192,0,6,,,,,,,,5,,,79,0
378192,note_on,192,0,3,,,,,,,,2,,,74,0
378192,note_on,192,0,5,,,,,,,,4,,,79,0
378240,note_on,84,0,1,,,,,,,,0,,,75,105
378240,note_on,48,0,5,,,,,,,,4,,,87,105
378240,note_on,84,0,8,,,,,,,,7,,,60,105
378240,note_on,48,0,6,,,,,,,,5,,,87,105
378240,note_on,48,0,3,,,,,,,,2,,,72,105
378240,note_on,84,0,9,,,,,,,,8,,,48,105
378240,note_on,84,0,2,,,,,,,,1,,,60,105
378240,note_on,48,0,4,,,,,,,,3,,,72,105
378240,note_on,84,0,7,,,,,,,,6,,,60,105
378432,note_on,192,0,5,,,,,,,,4,,,87,0
378432,note_on,192,0,6,,,,,,,,5,,,87,0
378480,note_on,48,0,6,,,,,,,,5,,,87,105
378480,note_on,48,0,5,,,,,,,,4,,,87,105
378552,note_on,312,0,7,,,,,,,,6,,,60,0
378552,note_on,312,0,8,,,,,,,,7,,,60,0
378552,note_on,312,0,2,,,,,,,,1,,,60,0
378552,note_on,312,0,1,,,,,,,,0,,,75,0
378552,note_on,312,0,9,,,,,,,,8,,,48,0
378624,note_on,384,0,3,,,,,,,,2,,,72,0
378624,note_on,384,0,4,,,,,,,,3,,,72,0
378720,note_on,168,0,8,,,,,,,,7,,,57,105
378720,note_on,96,0,4,,,,,,,,3,,,69,105
378720,note_on,168,0,9,,,,,,,,8,,,45,105
378720,note_on,168,0,7,,,,,,,,6,,,57,105
378720,note_on,168,0,1,,,,,,,,0,,,72,105
378720,note_on,168,0,2,,,,,,,,1,,,57,105
378864,note_on,384,0,6,,,,,,,,5,,,87,0
378864,note_on,384,0,5,,,,,,,,4,,,87,0
378960,note_on,96,0,5,,,,,,,,4,,,87,105
378960,note_on,96,0,6,,,,,,,,5,,,87,105
379032,note_on,312,0,1,,,,,,,,0,,,72,0
379032,note_on,312,0,7,,,,,,,,6,,,57,0
379032,note_on,312,0,8,,,,,,,,7,,,57,0
379032,note_on,312,0,9,,,,,,,,8,,,45,0
379032,note_on,312,0,2,,,,,,,,1,,,57,0
379104,note_on,384,0,4,,,,,,,,3,,,69,0
379152,note_on,192,0,5,,,,,,,,4,,,87,0
379152,note_on,192,0,6,,,,,,,,5,,,87,0
379200,note_on,48,0,5,,,,,,,,4,,,78,105
379200,note_on,168,0,1,,,,,,,,0,,,69,105
379200,note_on,168,0,7,,,,,,,,6,,,62,105
379200,note_on,168,0,8,,,,,,,,7,,,62,105
379200,note_on,48,0,6,,,,,,,,5,,,78,105
379200,note_on,168,0,9,,,,,,,,8,,,50,105
379200,note_on,576,0,3,,,,,,,,2,,,74,105
379200,note_on,96,0,4,,,,,,,,3,,,74,105
379200,note_on,168,0,2,,,,,,,,1,,,62,105
379392,note_on,192,0,6,,,,,,,,5,,,78,0
379392,note_on,192,0,5,,,,,,,,4,,,78,0
379440,note_on,48,0,6,,,,,,,,5,,,78,105
379440,note_on,48,0,5,,,,,,,,4,,,78,105
379584,note_on,384,0,4,,,,,,,,3,,,74,0
379776,note_on,576,0,3,,,,,,,,2,,,74,0
379824,note_on,384,0,6,,,,,,,,5,,,78,0
379824,note_on,384,0,5,,,,,,,,4,,,78,0
379920,note_on,720,0,9,,,,,,,,8,,,50,0
379920,note_on,0,0,9,,,,,,,,8,,,48,105
379920,note_on,720,0,7,,,,,,,,6,,,62,0
379920,note_on,0,0,2,,,,,,,,1,,,60,105
379920,note_on,720,0,2,,,,,,,,1,,,62,0
379920,note_on,96,0,6,,,,,,,,5,,,78,105
379920,note_on,96,0,5,,,,,,,,4,,,78,105
379920,note_on,720,0,8,,,,,,,,7,,,62,0
379920,note_on,144,0,3,,,,,,,,2,,,72,105
379920,note_on,0,0,8,,,,,,,,7,,,60,105
379920,note_on,0,0,7,,,,,,,,6,,,60,105
379968,note_on,768,0,1,,,,,,,,0,,,69,0
380112,note_on,192,0,5,,,,,,,,4,,,78,0
380112,note_on,192,0,9,,,,,,,,8,,,48,0
380112,note_on,192,0,7,,,,,,,,6,,,60,0
380112,note_on,192,0,2,,,,,,,,1,,,60,0
380112,note_on,192,0,8,,,,,,,,7,,,60,0
380112,note_on,192,0,3,,,,,,,,2,,,72,0
380112,note_on,192,0,6,,,,,,,,5,,,78,0
380160,note_on,48,0,9,,,,,,,,8,,,46,105
380160,note_on,0,0,1,,,,,,,,0,,,62,105
380160,note_on,576,0,4,,,,,,,,3,,,67,105
380160,note_on,48,0,5,,,,,,,,4,,,79,105
380160,note_on,48,0,3,,,,,,,,2,,,70,105
380160,note_on,48,0,7,,,,,,,,6,,,58,105
380160,note_on,192,0,1,,,,,,,,0,,,74,105
380160,note_on,48,0,6,,,,,,,,5,,,79,105
380160,note_on,48,0,2,,,,,,,,1,,,58,105
380160,note_on,48,0,8,,,,,,,,7,,,58,105
380472,note_on,312,0,6,,,,,,,,5,,,79,0
380472,note_on,0,0,1,,,,,,,,0,,,74,0
380472,note_on,312,0,9,,,,,,,,8,,,46,0
380472,note_on,312,0,8,,,,,,,,7,,,58,0
380472,note_on,312,0,2,,,,,,,,1,,,58,0
380472,note_on,312,0,1,,,,,,,,0,,,62,0
380472,note_on,312,0,5,,,,,,,,4,,,79,0
380472,note_on,312,0,7,,,,,,,,6,,,58,0
380640,note_on,168,0,6,,,,,,,,5,,,70,105
380640,note_on,168,0,5,,,,,,,,4,,,70,105
380640,note_on,168,0,8,,,,,,,,7,,,51,105
380640,note_on,168,0,7,,,,,,,,6,,,63,105
380640,note_on,168,0,9,,,,,,,,8,,,39,105
380640,note_on,168,0,2,,,,,,,,1,,,51,105
380640,note_on,0,0,1,,,,,,,,0,,,67,105
380640,note_on,168,0,1,,,,,,,,0,,,70,105
380928,note_on,768,0,3,,,,,,,,2,,,70,0
380928,note_on,768,0,4,,,,,,,,3,,,67,0
380952,note_on,312,0,6,,,,,,,,5,,,70,0
380952,note_on,312,0,7,,,,,,,,6,,,63,0
380952,note_on,312,0,9,,,,,,,,8,,,39,0
380952,note_on,312,0,2,,,,,,,,1,,,51,0
380952,note_on,312,0,8,,,,,,,,7,,,51,0
380952,note_on,312,0,1,,,,,,,,0,,,70,0
380952,note_on,312,0,5,,,,,,,,4,,,70,0
381120,note_on,168,0,9,,,,,,,,8,,,36,105
381120,note_on,168,0,1,,,,,,,,0,,,69,105
381120,note_on,168,0,8,,,,,,,,7,,,48,105
381120,note_on,168,0,7,,,,,,,,6,,,63,105
381120,note_on,168,0,6,,,,,,,,5,,,69,105
381120,note_on,168,0,5,,,,,,,,4,,,69,105
381120,note_on,0,0,4,,,,,,,,3,,,69,105
381120,note_on,192,0,4,,,,,,,,3,,,67,105
381120,note_on,168,0,2,,,,,,,,1,,,48,105
381432,note_on,312,0,1,,,,,,,,0,,,67,0
381432,note_on,312,0,8,,,,,,,,7,,,48,0
381432,note_on,312,0,6,,,,,,,,5,,,69,0
381432,note_on,312,0,5,,,,,,,,4,,,69,0
381432,note_on,312,0,7,,,,,,,,6,,,63,0
381432,note_on,312,0,2,,,,,,,,1,,,48,0
381432,note_on,312,0,9,,,,,,,,8,,,36,0
381504,note_on,0,0,4,,,,,,,,3,,,67,0
381504,note_on,384,0,4,,,,,,,,3,,,69,0
381600,note_on,168,0,5,,,,,,,,4,,,78,105
381600,note_on,168,0,2,,,,,,,,1,,,50,105
381600,note_on,168,0,6,,,,,,,,5,,,78,105
381600,note_on,672,0,3,,,,,,,,2,,,62,105
381600,note_on,96,0,4,,,,,,,,3,,,62,105
381600,note_on,0,0,4,,,,,,,,3,,,69,105
381600,note_on,168,0,7,,,,,,,,6,,,62,105
381600,note_on,168,0,8,,,,,,,,7,,,50,105
381600,note_on,168,0,9,,,,,,,,8,,,38,105
381600,note_on,168,0,1,,,,,,,,0,,,66,105
381912,note_on,312,0,2,,,,,,,,1,,,50,0
381912,note_on,312,0,8,,,,,,,,7,,,50,0
381912,note_on,312,0,1,,,,,,,,0,,,66,0
381912,note_on,312,0,9,,,,,,,,8,,,38,0
381912,note_on,312,0,5,,,,,,,,4,,,78,0
381912,note_on,312,0,6,,,,,,,,5,,,78,0
381912,note_on,312,0,7,,,,,,,,6,,,62,0
381912,note_on,0,0,1,,,,,,,,0,,,69,0
381984,note_on,384,0,3,,,,,,,,2,,,62,0
381984,note_on,0,0,4,,,,,,,,3,,,62,0
381984,note_on,384,0,4,,,,,,,,3,,,69,0
382080,note_on,96,0,4,,,,,,,,3,,,67,105
382080,note_on,168,0,2,,,,,,,,1,,,43,105
382080,note_on,168,0,7,,,,,,,,6,,,62,105
382080,note_on,168,0,1,,,,,,,,0,,,67,105
382080,note_on,168,0,8,,,,,,,,7,,,43,105
382080,note_on,0,0,3,,,,,,,,2,,,58,105
382080,note_on,96,0,3,,,,,,,,2,,,62,105
382080,note_on,168,0,6,,,,,,,,5,,,79,105
382080,note_on,168,0,5,,,,,,,,4,,,79,105
382080,note_on,168,0,9,,,,,,,,8,,,31,105
382080,note_on,0,0,4,,,,,,,,3,,,55,105
382392,note_on,312,0,6,,,,,,,,5,,,79,0
382392,note_on,312,0,5,,,,,,,,4,,,79,0
382392,note_on,312,0,7,,,,,,,,6,,,62,0
382560,note_on,168,0,6,,,,,,,,5,,,67,105
382560,note_on,168,0,5,,,,,,,,4,,,67,105
382560,note_on,168,0,7,,,,,,,,6,,,58,105
382848,note_on,768,0,4,,,,,,,,3,,,55,0
382848,note_on,0,0,4,,,,,,,,3,,,67,0
382848,note_on,0,0,3,,,,,,,,2,,,62,0
382848,note_on,768,0,3,,,,,,,,2,,,58,0
382848,note_on,768,0,9,,,,,,,,8,,,31,0
382848,note_on,768,0,1,,,,,,,,0,,,67,0
382848,note_on,768,0,8,,,,,,,,7,,,43,0
382848,note_on,768,0,2,,,,,,,,1,,,43,0
382872,note_on,312,0,7,,,,,,,,6,,,58,0
382872,note_on,312,0,6,,,,,,,,5,,,67,0
382872,note_on,312,0,5,,,,,,,,4,,,67,0
383520,note_on,648,0,5,,,,,,,,4,,,70,80
383760,note_on,0,0,5,,,,,,,,4,,,67,80
383760,note_on,240,0,5,,,,,,,,4,,,70,0
383952,note_on,192,0,5,,,,,,,,4,,,67,0
384000,note_on,48,0,5,,,,,,,,4,,,74,80
384408,note_on,408,0,5,,,,,,,,4,,,74,0
384480,note_on,72,0,5,,,,,,,,4,,,74,80
384888,note_on,408,0,5,,,,,,,,4,,,74,0
384960,note_on,2088,0,7,,,,,,,,6,,,65,58
384960,note_on,2088,0,6,,,,,,,,5,,,67,58
384960,note_on,2112,0,9,,,,,,,,8,,,47,58
384960,note_on,2112,0,8,,,,,,,,7,,,59,58
384960,note_on,72,0,5,,,,,,,,4,,,74,80
385368,note_on,408,0,5,,,,,,,,4,,,74,0
385440,note_on,72,0,5,,,,,,,,4,,,74,80
385728,note_on,768,0,8,,,,,,,,7,,,59,0
385728,note_on,768,0,9,,,,,,,,8,,,47,0
385728,note_on,768,0,7,,,,,,,,6,,,65,0
385728,note_on,768,0,6,,,,,,,,5,,,67,0
385848,note_on,408,0,5,,,,,,,,4,,,74,0
385920,note_on,192,0,7,,,,,,,,6,,,65,58
385920,note_on,192,0,8,,,,,,,,7,,,59,58
385920,note_on,72,0,5,,,,,,,,4,,,74,80
385920,note_on,192,0,6,,,,,,,,5,,,67,58
385920,note_on,192,0,9,,,,,,,,8,,,47,58
386880,note_on,960,0,8,,,,,,,,7,,,59,0
386880,note_on,960,0,9,,,,,,,,8,,,47,0
386880,note_on,0,0,9,,,,,,,,8,,,48,58
386880,note_on,0,0,5,,,,,,,,4,,,75,70
386880,note_on,0,0,6,,,,,,,,5,,,67,58
386880,note_on,960,0,6,,,,,,,,5,,,67,0
386880,note_on,0,0,8,,,,,,,,7,,,60,58
386880,note_on,960,0,5,,,,,,,,4,,,74,0
386880,note_on,0,0,7,,,,,,,,6,,,63,58
386880,note_on,960,0,7,,,,,,,,6,,,65,0
387264,note_on,384,0,7,,,,,,,,6,,,63,0
387264,note_on,384,0,6,,,,,,,,5,,,67,0
387264,note_on,384,0,8,,,,,,,,7,,,60,0
387264,note_on,384,0,9,,,,,,,,8,,,48,0
387288,note_on,408,0,5,,,,,,,,4,,,75,0
387360,note_on,72,0,5,,,,,,,,4,,,72,70
387768,note_on,408,0,5,,,,,,,,4,,,72,0
387840,note_on,72,0,5,,,,,,,,4,,,72,80
388320,note_on,0,0,5,,,,,,,,4,,,71,80
388320,note_on,480,0,5,,,,,,,,4,,,72,0
388728,note_on,408,0,5,,,,,,,,4,,,71,0
388800,note_on,1536,0,7,,,,,,,,6,,,62,58
388800,note_on,1536,0,9,,,,,,,,8,,,41,58
388800,note_on,1536,0,6,,,,,,,,5,,,68,58
388800,note_on,1536,0,8,,,,,,,,7,,,53,58
388800,note_on,72,0,5,,,,,,,,4,,,71,80
389184,note_on,384,0,9,,,,,,,,8,,,41,0
389184,note_on,384,0,7,,,,,,,,6,,,62,0
389184,note_on,384,0,8,,,,,,,,7,,,53,0
389184,note_on,384,0,6,,,,,,,,5,,,68,0
389208,note_on,408,0,5,,,,,,,,4,,,71,0
389280,note_on,72,0,5,,,,,,,,4,,,71,80
389280,note_on,96,0,9,,,,,,,,8,,,41,58
389280,note_on,96,0,7,,,,,,,,6,,,62,58
389280,note_on,96,0,8,,,,,,,,7,,,53,58
389280,note_on,96,0,6,,,,,,,,5,,,68,58
389664,note_on,384,0,6,,,,,,,,5,,,68,0
389664,note_on,384,0,7,,,,,,,,6,,,62,0
389664,note_on,384,0,8,,,,,,,,7,,,53,0
389664,note_on,384,0,9,,,,,,,,8,,,41,0
389688,note_on,408,0,5,,,,,,,,4,,,71,0
389760,note_on,96,0,8,,,,,,,,7,,,53,58
389760,note_on,96,0,6,,,,,,,,5,,,68,58
389760,note_on,96,0,7,,,,,,,,6,,,62,58
389760,note_on,72,0,5,,,,,,,,4,,,71,80
389760,note_on,96,0,9,,,,,,,,8,,,41,58
390720,note_on,0,0,9,,,,,,,,8,,,39,58
390720,note_on,0,0,6,,,,,,,,5,,,67,58
390720,note_on,960,0,8,,,,,,,,7,,,53,0
390720,note_on,0,0,8,,,,,,,,7,,,51,58
390720,note_on,0,0,5,,,,,,,,4,,,72,70
390720,note_on,0,0,7,,,,,,,,6,,,63,58
390720,note_on,960,0,7,,,,,,,,6,,,62,0
390720,note_on,960,0,5,,,,,,,,4,,,71,0
390720,note_on,960,0,6,,,,,,,,5,,,68,0
390720,note_on,960,0,9,,,,,,,,8,,,41,0
391032,note_on,312,0,5,,,,,,,,4,,,72,0
391104,note_on,384,0,6,,,,,,,,5,,,67,0
391104,note_on,384,0,8,,,,,,,,7,,,51,0
391104,note_on,384,0,9,,,,,,,,8,,,39,0
391104,note_on,384,0,7,,,,,,,,6,,,63,0
391200,note_on,168,0,5,,,,,,,,4,,,72,70
391440,note_on,0,0,5,,,,,,,,4,,,69,80
391440,note_on,240,0,5,,,,,,,,4,,,72,0
391632,note_on,192,0,5,,,,,,,,4,,,69,0
391680,note_on,48,0,5,,,,,,,,4,,,66,80
392088,note_on,408,0,5,,,,,,,,4,,,66,0
392160,note_on,72,0,5,,,,,,,,4,,,66,80
392568,note_on,408,0,5,,,,,,,,4,,,66,0
392640,note_on,1536,0,9,,,,,,,,8,,,36,58
392640,note_on,1536,0,6,,,,,,,,5,,,63,58
392640,note_on,1536,0,8,,,,,,,,7,,,48,58
392640,note_on,1536,0,7,,,,,,,,6,,,57,58
392640,note_on,72,0,5,,,,,,,,4,,,66,80
393048,note_on,408,0,5,,,,,,,,4,,,66,0
393120,note_on,72,0,5,,,,,,,,4,,,66,80
393408,note_on,768,0,7,,,,,,,,6,,,57,0
393408,note_on,768,0,8,,,,,,,,7,,,48,0
393408,note_on,768,0,6,,,,,,,,5,,,63,0
393408,note_on,768,0,9,,,,,,,,8,,,36,0
393528,note_on,408,0,5,,,,,,,,4,,,66,0
393600,note_on,192,0,7,,,,,,,,6,,,57,58
393600,note_on,72,0,5,,,,,,,,4,,,66,80
393600,note_on,192,0,8,,,,,,,,7,,,48,58
393600,note_on,192,0,6,,,,,,,,5,,,63,70
393600,note_on,192,0,9,,,,,,,,8,,,36,58
394560,note_on,0,0,6,,,,,,,,5,,,62,58
394560,note_on,960,0,6,,,,,,,,5,,,63,0
394560,note_on,960,0,5,,,,,,,,4,,,66,0
394560,note_on,0,0,7,,,,,,,,6,,,58,58
394560,note_on,960,0,8,,,,,,,,7,,,48,0
394560,note_on,960,0,9,,,,,,,,8,,,36,0
394560,note_on,0,0,9,,,,,,,,8,,,34,58
394560,note_on,0,0,5,,,,,,,,4,,,67,70
394560,note_on,0,0,8,,,,,,,,7,,,46,58
394560,note_on,960,0,7,,,,,,,,6,,,57,0
394944,note_on,384,0,9,,,,,,,,8,,,34,0
394944,note_on,384,0,6,,,,,,,,5,,,62,0
394944,note_on,384,0,5,,,,,,,,4,,,67,0
394944,note_on,384,0,7,,,,,,,,6,,,58,0
394944,note_on,384,0,8,,,,,,,,7,,,46,0
395040,note_on,96,0,5,,,,,,,,4,,,74,70
395040,note_on,96,0,6,,,,,,,,5,,,70,58
395520,note_on,576,0,7,,,,,,,,6,,,62,58
395520,note_on,576,0,8,,,,,,,,7,,,54,58
395520,note_on,576,0,9,,,,,,,,8,,,42,58
395904,note_on,864,0,6,,,,,,,,5,,,70,0
395904,note_on,864,0,5,,,,,,,,4,,,74,0
396000,note_on,96,0,6,,,,,,,,5,,,69,70
396000,note_on,96,0,5,,,,,,,,4,,,72,70
396288,note_on,768,0,8,,,,,,,,7,,,54,0
396288,note_on,768,0,9,,,,,,,,8,,,42,0
396288,note_on,768,0,7,,,,,,,,6,,,62,0
396480,note_on,192,0,9,,,,,,,,8,,,43,58
396480,note_on,192,0,8,,,,,,,,7,,,55,58
396480,note_on,192,0,7,,,,,,,,6,,,62,58
396768,note_on,768,0,5,,,,,,,,4,,,72,0
396768,note_on,768,0,6,,,,,,,,5,,,69,0
396960,note_on,192,0,6,,,,,,,,5,,,67,70
396960,note_on,192,0,5,,,,,,,,4,,,70,70
397248,note_on,768,0,9,,,,,,,,8,,,43,0
397248,note_on,768,0,7,,,,,,,,6,,,62,0
397248,note_on,768,0,8,,,,,,,,7,,,55,0
397440,note_on,192,0,9,,,,,,,,8,,,38,58
397440,note_on,192,0,7,,,,,,,,6,,,62,58
397440,note_on,192,0,8,,,,,,,,7,,,50,58
397920,note_on,960,0,6,,,,,,,,5,,,67,0
397920,note_on,0,0,5,,,,,,,,4,,,69,58
397920,note_on,960,0,5,,,,,,,,4,,,70,0
397920,note_on,0,0,6,,,,,,,,5,,,66,58
398208,note_on,768,0,7,,,,,,,,6,,,62,0
398208,note_on,768,0,8,,,,,,,,7,,,50,0
398208,note_on,768,0,9,,,,,,,,8,,,38,0
398304,note_on,384,0,6,,,,,,,,5,,,66,0
398304,note_on,384,0,5,,,,,,,,4,,,69,0
398400,note_on,192,0,8,,,,,,,,7,,,43,58
398400,note_on,192,0,9,,,,,,,,8,,,31,58
398880,note_on,576,0,5,,,,,,,,4,,,70,58
398880,note_on,576,0,6,,,,,,,,5,,,62,70
399168,note_on,768,0,8,,,,,,,,7,,,43,0
399168,note_on,768,0,9,,,,,,,,8,,,31,0
399360,note_on,192,0,9,,,,,,,,8,,,36,58
399360,note_on,192,0,8,,,,,,,,7,,,48,58
399360,note_on,1152,0,7,,,,,,,,6,,,51,58
399744,note_on,864,0,6,,,,,,,,5,,,62,0
399744,note_on,864,0,5,,,,,,,,4,,,70,0
399840,note_on,96,0,6,,,,,,,,5,,,60,70
399840,note_on,96,0,5,,,,,,,,4,,,69,70
400512,note_on,1152,0,7,,,,,,,,6,,,51,0
400512,note_on,1152,0,9,,,,,,,,8,,,36,0
400512,note_on,1152,0,8,,,,,,,,7,,,48,0
400608,note_on,768,0,5,,,,,,,,4,,,69,0
400608,note_on,768,0,6,,,,,,,,5,,,60,0
400800,note_on,288,0,8,,,,,,,,7,,,49,58
400800,note_on,288,0,7,,,,,,,,6,,,52,58
400800,note_on,192,0,5,,,,,,,,4,,,67,70
400800,note_on,288,0,9,,,,,,,,8,,,37,58
400800,note_on,192,0,6,,,,,,,,5,,,58,70
401184,note_on,384,0,9,,,,,,,,8,,,37,0
401184,note_on,384,0,7,,,,,,,,6,,,52,0
401184,note_on,384,0,8,,,,,,,,7,,,49,0
401280,note_on,96,0,7,,,,,,,,6,,,50,58
401280,note_on,96,0,9,,,,,,,,8,,,38,58
401280,note_on,96,0,8,,,,,,,,7,,,50,58
401280,set_tempo,48000,1,0,,,,,,309278,,,,,,
402240,note_on,0,0,6,,,,,,,,5,,,57,70
402240,note_on,1440,0,6,,,,,,,,5,,,58,0
402240,note_on,1440,0,5,,,,,,,,4,,,67,0
402240,note_on,0,0,5,,,,,,,,4,,,66,80
402480,note_on,0,0,5,,,,,,,,4,,,67,80
402480,note_on,240,0,5,,,,,,,,4,,,66,0
402624,note_on,1344,0,9,,,,,,,,8,,,38,0
402624,note_on,1344,0,8,,,,,,,,7,,,50,0
402624,note_on,384,0,6,,,,,,,,5,,,57,0
402624,note_on,1344,0,7,,,,,,,,6,,,50,0
402720,note_on,240,0,5,,,,,,,,4,,,67,0
402720,note_on,0,0,5,,,,,,,,4,,,69,80
402960,note_on,240,0,5,,,,,,,,4,,,69,0
402960,note_on,0,0,5,,,,,,,,4,,,70,80
403200,note_on,240,0,5,,,,,,,,4,,,70,0
403200,note_on,0,0,5,,,,,,,,4,,,72,70
403200,set_tempo,1920,1,0,,,,,,312500,,,,,,
403584,note_on,384,0,5,,,,,,,,4,,,72,0
404160,note_on,576,0,5,,,,,,,,4,,,78,70
404400,note_on,0,0,5,,,,,,,,4,,,79,70
404400,note_on,240,0,5,,,,,,,,4,,,78,0
404640,note_on,240,0,5,,,,,,,,4,,,79,0
404640,note_on,0,0,5,,,,,,,,4,,,81,70
404880,note_on,240,0,5,,,,,,,,4,,,81,0
404880,note_on,0,0,5,,,,,,,,4,,,82,70
405120,set_tempo,1920,1,0,,,,,,300000,,,,,,
405120,note_on,240,0,5,,,,,,,,4,,,82,0
405120,note_on,0,0,5,,,,,,,,4,,,84,70
405504,note_on,384,0,5,,,,,,,,4,,,84,0
406080,note_on,3456,0,8,,,,,,,,7,,,60,105
406080,note_on,23232,0,1,,,,,,,,0,,,84,105
406080,note_on,3456,0,7,,,,,,,,6,,,72,105
406080,note_on,3456,0,6,,,,,,,,5,,,72,105
406080,note_on,3456,0,9,,,,,,,,8,,,48,105
406080,note_on,576,0,5,,,,,,,,4,,,72,105
406080,note_on,23232,0,2,,,,,,,,1,,,60,105
406224,note_on,144,0,7,,,,,,,,6,,,72,0
406224,note_on,144,0,2,,,,,,,,1,,,60,0
406224,note_on,144,0,9,,,,,,,,8,,,48,0
406224,note_on,144,0,8,,,,,,,,7,,,60,0
406224,note_on,144,0,6,,,,,,,,5,,,72,0
406224,note_on,144,0,5,,,,,,,,4,,,72,0
406224,note_on,144,0,1,,,,,,,,0,,,84,0
406320,note_on,96,0,8,,,,,,,,7,,,58,105
406320,note_on,96,0,1,,,,,,,,0,,,82,105
406320,note_on,96,0,2,,,,,,,,1,,,58,105
406320,note_on,96,0,9,,,,,,,,8,,,46,105
406320,note_on,96,0,5,,,,,,,,4,,,70,105
406320,note_on,96,0,7,,,,,,,,6,,,70,105
406320,note_on,96,0,6,,,,,,,,5,,,70,105
406464,note_on,144,0,7,,,,,,,,6,,,70,0
406464,note_on,144,0,2,,,,,,,,1,,,58,0
406464,note_on,144,0,8,,,,,,,,7,,,58,0
406464,note_on,144,0,9,,,,,,,,8,,,46,0
406464,note_on,144,0,1,,,,,,,,0,,,82,0
406464,note_on,144,0,5,,,,,,,,4,,,70,0
406464,note_on,144,0,6,,,,,,,,5,,,70,0
406560,note_on,96,0,7,,,,,,,,6,,,69,105
406560,note_on,96,0,1,,,,,,,,0,,,81,105
406560,note_on,96,0,8,,,,,,,,7,,,57,105
406560,note_on,96,0,2,,,,,,,,1,,,57,105
406560,note_on,96,0,6,,,,,,,,5,,,69,105
406560,note_on,96,0,9,,,,,,,,8,,,45,105
406560,note_on,96,0,5,,,,,,,,4,,,69,105
406704,note_on,144,0,7,,,,,,,,6,,,69,0
406704,note_on,144,0,6,,,,,,,,5,,,69,0
406704,note_on,144,0,8,,,,,,,,7,,,57,0
406704,note_on,144,0,2,,,,,,,,1,,,57,0
406704,note_on,144,0,1,,,,,,,,0,,,81,0
406704,note_on,144,0,5,,,,,,,,4,,,69,0
406704,note_on,144,0,9,,,,,,,,8,,,45,0
406800,note_on,96,0,5,,,,,,,,4,,,67,105
406800,note_on,96,0,1,,,,,,,,0,,,79,105
406800,note_on,96,0,9,,,,,,,,8,,,43,105
406800,note_on,96,0,2,,,,,,,,1,,,55,105
406800,note_on,96,0,6,,,,,,,,5,,,67,105
406800,note_on,96,0,8,,,,,,,,7,,,55,105
406800,note_on,96,0,7,,,,,,,,6,,,67,105
406944,note_on,144,0,2,,,,,,,,1,,,55,0
406944,note_on,144,0,6,,,,,,,,5,,,67,0
406944,note_on,144,0,5,,,,,,,,4,,,67,0
406944,note_on,144,0,8,,,,,,,,7,,,55,0
406944,note_on,144,0,7,,,,,,,,6,,,67,0
406944,note_on,144,0,1,,,,,,,,0,,,79,0
406944,note_on,144,0,9,,,,,,,,8,,,43,0
407040,note_on,96,0,9,,,,,,,,8,,,42,105
407040,note_on,96,0,6,,,,,,,,5,,,66,105
407040,note_on,96,0,1,,,,,,,,0,,,78,105
407040,note_on,96,0,8,,,,,,,,7,,,54,105
407040,note_on,96,0,5,,,,,,,,4,,,66,105
407040,note_on,96,0,2,,,,,,,,1,,,54,105
407040,note_on,96,0,7,,,,,,,,6,,,66,105
407280,note_on,240,0,2,,,,,,,,1,,,54,0
407280,note_on,0,0,2,,,,,,,,1,,,55,105
407280,note_on,0,0,6,,,,,,,,5,,,67,105
407280,note_on,240,0,6,,,,,,,,5,,,66,0
407280,note_on,240,0,5,,,,,,,,4,,,66,0
407280,note_on,0,0,5,,,,,,,,4,,,67,105
407280,note_on,240,0,7,,,,,,,,6,,,66,0
407280,note_on,0,0,7,,,,,,,,6,,,67,105
407280,note_on,0,0,8,,,,,,,,7,,,55,105
407280,note_on,0,0,1,,,,,,,,0,,,79,105
407280,note_on,240,0,8,,,,,,,,7,,,54,0
407280,note_on,240,0,9,,,,,,,,8,,,42,0
407280,note_on,0,0,9,,,,,,,,8,,,43,105
407280,note_on,240,0,1,,,,,,,,0,,,78,0
407424,note_on,144,0,5,,,,,,,,4,,,67,0
407424,note_on,144,0,9,,,,,,,,8,,,43,0
407424,note_on,144,0,2,,,,,,,,1,,,55,0
407424,note_on,144,0,6,,,,,,,,5,,,67,0
407424,note_on,144,0,8,,,,,,,,7,,,55,0
407424,note_on,144,0,1,,,,,,,,0,,,79,0
407424,note_on,144,0,7,,,,,,,,6,,,67,0
407520,note_on,96,0,7,,,,,,,,6,,,66,105
407520,note_on,96,0,8,,,,,,,,7,,,54,105
407520,note_on,96,0,5,,,,,,,,4,,,66,105
407520,note_on,96,0,1,,,,,,,,0,,,78,105
407520,note_on,96,0,6,,,,,,,,5,,,66,105
407520,note_on,96,0,2,,,,,,,,1,,,54,105
407520,note_on,96,0,9,,,,,,,,8,,,42,105
407664,note_on,144,0,7,,,,,,,,6,,,66,0
407664,note_on,144,0,1,,,,,,,,0,,,78,0
407664,note_on,144,0,2,,,,,,,,1,,,54,0
407664,note_on,144,0,8,,,,,,,,7,,,54,0
407664,note_on,144,0,9,,,,,,,,8,,,42,0
407664,note_on,144,0,5,,,,,,,,4,,,66,0
407664,note_on,144,0,6,,,,,,,,5,,,66,0
407760,note_on,96,0,6,,,,,,,,5,,,63,105
407760,note_on,96,0,2,,,,,,,,1,,,51,105
407760,note_on,96,0,8,,,,,,,,7,,,51,105
407760,note_on,96,0,5,,,,,,,,4,,,63,105
407760,note_on,96,0,9,,,,,,,,8,,,39,105
407760,note_on,96,0,1,,,,,,,,0,,,75,105
407760,note_on,96,0,7,,,,,,,,6,,,63,105
407904,note_on,144,0,6,,,,,,,,5,,,63,0
407904,note_on,144,0,8,,,,,,,,7,,,51,0
407904,note_on,144,0,5,,,,,,,,4,,,63,0
407904,note_on,144,0,1,,,,,,,,0,,,75,0
407904,note_on,144,0,7,,,,,,,,6,,,63,0
407904,note_on,144,0,2,,,,,,,,1,,,51,0
407904,note_on,144,0,9,,,,,,,,8,,,39,0
408000,note_on,96,0,1,,,,,,,,0,,,74,105
408000,note_on,96,0,2,,,,,,,,1,,,50,105
408000,note_on,96,0,5,,,,,,,,4,,,62,105
408000,note_on,96,0,9,,,,,,,,8,,,38,105
408000,note_on,96,0,7,,,,,,,,6,,,62,105
408000,note_on,96,0,8,,,,,,,,7,,,50,105
408000,note_on,96,0,6,,,,,,,,5,,,62,105
408144,note_on,144,0,6,,,,,,,,5,,,62,0
408144,note_on,144,0,1,,,,,,,,0,,,74,0
408144,note_on,144,0,5,,,,,,,,4,,,62,0
408144,note_on,144,0,8,,,,,,,,7,,,50,0
408144,note_on,144,0,2,,,,,,,,1,,,50,0
408144,note_on,144,0,7,,,,,,,,6,,,62,0
408144,note_on,144,0,9,,,,,,,,8,,,38,0
408240,note_on,96,0,7,,,,,,,,6,,,60,105
408240,note_on,96,0,8,,,,,,,,7,,,48,105
408240,note_on,96,0,2,,,,,,,,1,,,48,105
408240,note_on,96,0,5,,,,,,,,4,,,60,105
408240,note_on,96,0,6,,,,,,,,5,,,60,105
408240,note_on,96,0,1,,,,,,,,0,,,72,105
408240,note_on,96,0,9,,,,,,,,8,,,36,105
408384,note_on,144,0,2,,,,,,,,1,,,48,0
408384,note_on,144,0,1,,,,,,,,0,,,72,0
408384,note_on,144,0,5,,,,,,,,4,,,60,0
408384,note_on,144,0,7,,,,,,,,6,,,60,0
408384,note_on,144,0,9,,,,,,,,8,,,36,0
408384,note_on,144,0,8,,,,,,,,7,,,48,0
408384,note_on,144,0,6,,,,,,,,5,,,60,0
408480,note_on,96,0,6,,,,,,,,5,,,58,105
408480,note_on,96,0,7,,,,,,,,6,,,58,105
408480,note_on,96,0,9,,,,,,,,8,,,34,105
408480,note_on,96,0,1,,,,,,,,0,,,70,105
408480,note_on,96,0,2,,,,,,,,1,,,46,105
408480,note_on,96,0,5,,,,,,,,4,,,58,105
408480,note_on,96,0,8,,,,,,,,7,,,46,105
408624,note_on,144,0,7,,,,,,,,6,,,58,0
408624,note_on,144,0,2,,,,,,,,1,,,46,0
408624,note_on,144,0,1,,,,,,,,0,,,70,0
408624,note_on,144,0,8,,,,,,,,7,,,46,0
408624,note_on,144,0,9,,,,,,,,8,,,34,0
408624,note_on,144,0,5,,,,,,,,4,,,58,0
408624,note_on,144,0,6,,,,,,,,5,,,58,0
408720,note_on,96,0,8,,,,,,,,7,,,45,105
408720,note_on,96,0,7,,,,,,,,6,,,57,105
408720,note_on,96,0,2,,,,,,,,1,,,45,105
408720,note_on,96,0,9,,,,,,,,8,,,33,105
408720,note_on,96,0,6,,,,,,,,5,,,57,105
408720,note_on,96,0,1,,,,,,,,0,,,69,105
408720,note_on,96,0,5,,,,,,,,4,,,57,105
408864,note_on,144,0,1,,,,,,,,0,,,69,0
408864,note_on,144,0,5,,,,,,,,4,,,57,0
408864,note_on,144,0,6,,,,,,,,5,,,57,0
408864,note_on,144,0,9,,,,,,,,8,,,33,0
408864,note_on,144,0,8,,,,,,,,7,,,45,0
408864,note_on,144,0,2,,,,,,,,1,,,45,0
408864,note_on,144,0,7,,,,,,,,6,,,57,0
408960,note_on,96,0,2,,,,,,,,1,,,43,105
408960,note_on,96,0,7,,,,,,,,6,,,55,105
408960,note_on,96,0,6,,,,,,,,5,,,55,105
408960,note_on,0,0,4,,,,,,,,3,,,55,105
408960,note_on,96,0,1,,,,,,,,0,,,67,105
408960,note_on,26112,0,4,,,,,,,,3,,,55,105
408960,note_on,96,0,8,,,,,,,,7,,,43,105
408960,note_on,96,0,9,,,,,,,,8,,,31,105
408960,note_on,96,0,5,,,,,,,,4,,,55,105
409272,note_on,312,0,5,,,,,,,,4,,,55,0
409272,note_on,312,0,6,,,,,,,,5,,,55,0
409344,note_on,384,0,8,,,,,,,,7,,,43,0
409344,note_on,384,0,9,,,,,,,,8,,,31,0
409344,note_on,384,0,7,,,,,,,,6,,,55,0
409344,note_on,384,0,2,,,,,,,,1,,,43,0
409344,note_on,384,0,1,,,,,,,,0,,,67,0
409440,note_on,168,0,6,,,,,,,,5,,,67,105
409440,note_on,168,0,5,,,,,,,,4,,,67,105
409728,note_on,0,0,4,,,,,,,,3,,,55,0
409728,note_on,768,0,4,,,,,,,,3,,,55,0
409752,note_on,312,0,5,,,,,,,,4,,,67,0
409752,note_on,312,0,6,,,,,,,,5,,,67,0
409920,note_on,576,0,2,,,,,,,,1,,,67,105
409920,note_on,168,0,5,,,,,,,,4,,,75,105
409920,note_on,576,0,9,,,,,,,,8,,,55,105
409920,note_on,168,0,6,,,,,,,,5,,,70,105
409920,note_on,576,0,8,,,,,,,,7,,,67,105
410496,note_on,576,0,5,,,,,,,,4,,,75,0
410496,note_on,576,0,2,,,,,,,,1,,,67,0
410496,note_on,576,0,9,,,,,,,,8,,,55,0
410496,note_on,576,0,8,,,,,,,,7,,,67,0
410496,note_on,576,0,6,,,,,,,,5,,,70,0
410640,note_on,144,0,6,,,,,,,,5,,,69,105
410640,note_on,144,0,2,,,,,,,,1,,,65,105
410640,note_on,144,0,8,,,,,,,,7,,,65,105
410640,note_on,144,0,9,,,,,,,,8,,,53,105
410640,note_on,144,0,5,,,,,,,,4,,,74,105
410832,note_on,192,0,9,,,,,,,,8,,,53,0
410832,note_on,192,0,8,,,,,,,,7,,,65,0
410832,note_on,192,0,2,,,,,,,,1,,,65,0
410832,note_on,192,0,6,,,,,,,,5,,,69,0
410832,note_on,192,0,5,,,,,,,,4,,,74,0
410880,note_on,0,0,4,,,,,,,,3,,,55,105
410880,note_on,1152,0,4,,,,,,,,3,,,67,105
410880,note_on,0,0,1,,,,,,,,0,,,67,105
410880,note_on,1536,0,1,,,,,,,,0,,,73,105
410880,note_on,48,0,6,,,,,,,,5,,,67,105
410880,note_on,1536,0,7,,,,,,,,6,,,70,92
410880,note_on,48,0,8,,,,,,,,7,,,64,105
410880,note_on,48,0,2,,,,,,,,1,,,64,105
410880,note_on,48,0,5,,,,,,,,4,,,73,105
410880,note_on,48,0,9,,,,,,,,8,,,52,105
411144,note_on,264,0,7,,,,,,,,6,,,70,0
411144,note_on,264,0,2,,,,,,,,1,,,64,0
411144,note_on,264,0,9,,,,,,,,8,,,52,0
411144,note_on,264,0,5,,,,,,,,4,,,73,0
411144,note_on,264,0,8,,,,,,,,7,,,64,0
411144,note_on,0,0,1,,,,,,,,0,,,73,0
411144,note_on,264,0,1,,,,,,,,0,,,67,0
411144,note_on,264,0,6,,,,,,,,5,,,67,0
411264,note_on,384,0,4,,,,,,,,3,,,55,0
411264,note_on,0,0,4,,,,,,,,3,,,67,0
411360,note_on,216,0,7,,,,,,,,6,,,69,92
411360,note_on,216,0,8,,,,,,,,7,,,65,105
411360,note_on,216,0,6,,,,,,,,5,,,69,105
411360,note_on,216,0,1,,,,,,,,0,,,69,105
411360,note_on,216,0,5,,,,,,,,4,,,74,105
411360,note_on,216,0,2,,,,,,,,1,,,65,105
411360,note_on,216,0,9,,,,,,,,8,,,53,105
411360,note_on,0,0,1,,,,,,,,0,,,74,105
411360,note_on,96,0,4,,,,,,,,3,,,62,105
411624,note_on,264,0,2,,,,,,,,1,,,65,0
411624,note_on,264,0,9,,,,,,,,8,,,53,0
411624,note_on,264,0,8,,,,,,,,7,,,65,0
411624,note_on,264,0,7,,,,,,,,6,,,69,0
411624,note_on,0,0,1,,,,,,,,0,,,69,0
411624,note_on,264,0,6,,,,,,,,5,,,69,0
411624,note_on,264,0,5,,,,,,,,4,,,74,0
411624,note_on,264,0,1,,,,,,,,0,,,74,0
411744,note_on,384,0,4,,,,,,,,3,,,62,0
411840,note_on,216,0,6,,,,,,,,5,,,67,105
411840,note_on,216,0,8,,,,,,,,7,,,63,105
411840,note_on,216,0,5,,,,,,,,4,,,72,105
411840,note_on,216,0,2,,,,,,,,1,,,63,105
411840,note_on,216,0,9,,,,,,,,8,,,51,105
412416,note_on,576,0,8,,,,,,,,7,,,63,0
412416,note_on,576,0,5,,,,,,,,4,,,72,0
412416,note_on,576,0,2,,,,,,,,1,,,63,0
412416,note_on,576,0,6,,,,,,,,5,,,67,0
412416,note_on,576,0,9,,,,,,,,8,,,51,0
412560,note_on,144,0,2,,,,,,,,1,,,62,105
412560,note_on,144,0,5,,,,,,,,4,,,70,105
412560,note_on,144,0,8,,,,,,,,7,,,62,105
412560,note_on,144,0,9,,,,,,,,8,,,50,105
412560,note_on,144,0,6,,,,,,,,5,,,65,105
412752,note_on,192,0,9,,,,,,,,8,,,50,0
412752,note_on,192,0,5,,,,,,,,4,,,70,0
412752,note_on,192,0,2,,,,,,,,1,,,62,0
412752,note_on,192,0,8,,,,,,,,7,,,62,0
412752,note_on,192,0,6,,,,,,,,5,,,65,0
412800,note_on,48,0,5,,,,,,,,4,,,69,105
412800,note_on,48,0,8,,,,,,,,7,,,60,105
412800,note_on,1176,0,7,,,,,,,,6,,,66,92
412800,note_on,48,0,6,,,,,,,,5,,,63,105
412800,note_on,29952,0,3,,,,,,,,2,,,72,105
412800,note_on,48,0,9,,,,,,,,8,,,48,105
412800,note_on,48,0,2,,,,,,,,1,,,60,105
412800,note_on,1176,0,1,,,,,,,,0,,,69,105
412800,note_on,0,0,1,,,,,,,,0,,,63,105
413064,note_on,264,0,6,,,,,,,,5,,,63,0
413064,note_on,264,0,5,,,,,,,,4,,,69,0
413064,note_on,0,0,1,,,,,,,,0,,,69,0
413064,note_on,264,0,7,,,,,,,,6,,,66,0
413064,note_on,264,0,1,,,,,,,,0,,,63,0
413064,note_on,264,0,2,,,,,,,,1,,,60,0
413064,note_on,264,0,8,,,,,,,,7,,,60,0
413064,note_on,264,0,9,,,,,,,,8,,,48,0
413184,note_on,384,0,3,,,,,,,,2,,,72,0
413280,note_on,216,0,8,,,,,,,,7,,,62,105
413280,note_on,216,0,6,,,,,,,,5,,,65,105
413280,note_on,216,0,7,,,,,,,,6,,,65,92
413280,note_on,216,0,1,,,,,,,,0,,,65,105
413280,note_on,96,0,3,,,,,,,,2,,,70,105
413280,note_on,216,0,5,,,,,,,,4,,,70,105
413280,note_on,0,0,1,,,,,,,,0,,,70,105
413280,note_on,216,0,2,,,,,,,,1,,,62,105
413280,note_on,216,0,9,,,,,,,,8,,,50,105
413544,note_on,264,0,5,,,,,,,,4,,,70,0
413544,note_on,264,0,1,,,,,,,,0,,,70,0
413544,note_on,264,0,6,,,,,,,,5,,,65,0
413544,note_on,264,0,9,,,,,,,,8,,,50,0
413544,note_on,0,0,1,,,,,,,,0,,,65,0
413544,note_on,264,0,2,,,,,,,,1,,,62,0
413544,note_on,264,0,8,,,,,,,,7,,,62,0
413544,note_on,264,0,7,,,,,,,,6,,,65,0
413664,note_on,384,0,3,,,,,,,,2,,,70,0
413760,note_on,216,0,8,,,,,,,,7,,,63,105
413760,note_on,216,0,2,,,,,,,,1,,,63,105
413760,note_on,216,0,6,,,,,,,,5,,,79,105
413760,note_on,216,0,5,,,,,,,,4,,,84,105
413760,note_on,216,0,9,,,,,,,,8,,,51,105
414336,note_on,576,0,9,,,,,,,,8,,,51,0
414336,note_on,576,0,8,,,,,,,,7,,,63,0
414336,note_on,576,0,5,,,,,,,,4,,,84,0
414336,note_on,576,0,2,,,,,,,,1,,,63,0
414336,note_on,576,0,6,,,,,,,,5,,,79,0
414480,note_on,144,0,2,,,,,,,,1,,,62,105
414480,note_on,144,0,9,,,,,,,,8,,,50,105
414480,note_on,144,0,8,,,,,,,,7,,,62,105
414480,note_on,144,0,5,,,,,,,,4,,,82,105
414480,note_on,144,0,6,,,,,,,,5,,,77,105
414672,note_on,192,0,6,,,,,,,,5,,,77,0
414672,note_on,192,0,2,,,,,,,,1,,,62,0
414672,note_on,192,0,5,,,,,,,,4,,,82,0
414672,note_on,192,0,9,,,,,,,,8,,,50,0
414672,note_on,192,0,8,,,,,,,,7,,,62,0
414720,note_on,48,0,2,,,,,,,,1,,,60,105
414720,note_on,48,0,9,,,,,,,,8,,,48,105
414720,note_on,1176,0,1,,,,,,,,0,,,81,105
414720,note_on,0,0,1,,,,,,,,0,,,75,105
414720,note_on,1176,0,7,,,,,,,,6,,,66,92
414720,note_on,48,0,5,,,,,,,,4,,,81,105
414720,note_on,48,0,6,,,,,,,,5,,,75,105
414720,note_on,48,0,8,,,,,,,,7,,,60,105
414720,note_on,1056,0,3,,,,,,,,2,,,72,105
414984,note_on,264,0,8,,,,,,,,7,,,60,0
414984,note_on,264,0,7,,,,,,,,6,,,66,0
414984,note_on,264,0,6,,,,,,,,5,,,75,0
414984,note_on,264,0,1,,,,,,,,0,,,75,0
414984,note_on,0,0,1,,,,,,,,0,,,81,0
414984,note_on,264,0,9,,,,,,,,8,,,48,0
414984,note_on,264,0,5,,,,,,,,4,,,81,0
414984,note_on,264,0,2,,,,,,,,1,,,60,0
415104,note_on,384,0,3,,,,,,,,2,,,72,0
415200,note_on,96,0,3,,,,,,,,2,,,70,105
415200,note_on,216,0,5,,,,,,,,4,,,82,105
415200,note_on,216,0,7,,,,,,,,6,,,65,92
415200,note_on,216,0,1,,,,,,,,0,,,77,105
415200,note_on,0,0,1,,,,,,,,0,,,82,105
415200,note_on,216,0,9,,,,,,,,8,,,50,105
415200,note_on,216,0,6,,,,,,,,5,,,77,105
415200,note_on,216,0,8,,,,,,,,7,,,62,105
415200,note_on,216,0,2,,,,,,,,1,,,62,105
415464,note_on,264,0,1,,,,,,,,0,,,82,0
415464,note_on,0,0,1,,,,,,,,0,,,77,0
415464,note_on,264,0,2,,,,,,,,1,,,62,0
415464,note_on,264,0,7,,,,,,,,6,,,65,0
415464,note_on,264,0,6,,,,,,,,5,,,77,0
415464,note_on,264,0,9,,,,,,,,8,,,50,0
415464,note_on,264,0,5,,,,,,,,4,,,82,0
415464,note_on,264,0,8,,,,,,,,7,,,62,0
415584,note_on,384,0,3,,,,,,,,2,,,70,0
415680,note_on,216,0,8,,,,,,,,7,,,60,105
415680,note_on,216,0,9,,,,,,,,8,,,48,105
415680,note_on,216,0,5,,,,,,,,4,,,80,105
415680,note_on,216,0,6,,,,,,,,5,,,75,105
415680,note_on,216,0,2,,,,,,,,1,,,60,105
416256,note_on,576,0,9,,,,,,,,8,,,48,0
416256,note_on,576,0,8,,,,,,,,7,,,60,0
416256,note_on,576,0,5,,,,,,,,4,,,80,0
416256,note_on,576,0,6,,,,,,,,5,,,75,0
416256,note_on,576,0,2,,,,,,,,1,,,60,0
416400,note_on,144,0,2,,,,,,,,1,,,58,105
416400,note_on,144,0,6,,,,,,,,5,,,74,105
416400,note_on,144,0,8,,,,,,,,7,,,58,105
416400,note_on,144,0,5,,,,,,,,4,,,79,105
416400,note_on,144,0,9,,,,,,,,8,,,46,105
416592,note_on,192,0,5,,,,,,,,4,,,79,0
416592,note_on,192,0,8,,,,,,,,7,,,58,0
416592,note_on,192,0,6,,,,,,,,5,,,74,0
416592,note_on,192,0,2,,,,,,,,1,,,58,0
416592,note_on,192,0,9,,,,,,,,8,,,46,0
416640,note_on,1176,0,7,,,,,,,,6,,,63,92
416640,note_on,48,0,9,,,,,,,,8,,,45,105
416640,note_on,48,0,2,,,,,,,,1,,,57,105
416640,note_on,48,0,8,,,,,,,,7,,,57,105
416640,note_on,48,0,5,,,,,,,,4,,,78,105
416640,note_on,4896,0,4,,,,,,,,3,,,69,105
416640,note_on,48,0,6,,,,,,,,5,,,72,105
416640,note_on,0,0,1,,,,,,,,0,,,72,105
416640,note_on,1176,0,1,,,,,,,,0,,,78,105
416904,note_on,264,0,5,,,,,,,,4,,,78,0
416904,note_on,264,0,6,,,,,,,,5,,,72,0
416904,note_on,264,0,2,,,,,,,,1,,,57,0
416904,note_on,264,0,7,,,,,,,,6,,,63,0
416904,note_on,264,0,8,,,,,,,,7,,,57,0
416904,note_on,264,0,1,,,,,,,,0,,,72,0
416904,note_on,0,0,1,,,,,,,,0,,,78,0
416904,note_on,264,0,9,,,,,,,,8,,,45,0
417024,note_on,384,0,4,,,,,,,,3,,,69,0
417120,note_on,216,0,9,,,,,,,,8,,,46,105
417120,note_on,96,0,4,,,,,,,,3,,,67,105
417120,note_on,216,0,5,,,,,,,,4,,,79,105
417120,note_on,216,0,8,,,,,,,,7,,,58,105
417120,note_on,0,0,1,,,,,,,,0,,,79,105
417120,note_on,216,0,6,,,,,,,,5,,,74,105
417120,note_on,216,0,2,,,,,,,,1,,,58,105
417120,note_on,216,0,7,,,,,,,,6,,,62,92
417120,note_on,216,0,1,,,,,,,,0,,,74,105
417384,note_on,0,0,1,,,,,,,,0,,,74,0
417384,note_on,264,0,2,,,,,,,,1,,,58,0
417384,note_on,264,0,6,,,,,,,,5,,,74,0
417384,note_on,264,0,7,,,,,,,,6,,,62,0
417384,note_on,264,0,9,,,,,,,,8,,,46,0
417384,note_on,264,0,1,,,,,,,,0,,,79,0
417384,note_on,264,0,8,,,,,,,,7,,,58,0
417384,note_on,264,0,5,,,,,,,,4,,,79,0
417504,note_on,384,0,4,,,,,,,,3,,,67,0
417600,note_on,216,0,5,,,,,,,,4,,,72,105
417600,note_on,216,0,7,,,,,,,,6,,,69,92
417600,note_on,216,0,1,,,,,,,,0,,,72,105
417600,note_on,216,0,6,,,,,,,,5,,,60,105
417600,note_on,2016,0,3,,,,,,,,2,,,72,105
417600,note_on,216,0,2,,,,,,,,1,,,57,105
417600,note_on,216,0,9,,,,,,,,8,,,45,105
417600,note_on,0,0,3,,,,,,,,2,,,75,105
417600,note_on,216,0,8,,,,,,,,7,,,57,105
417840,note_on,0,0,2,,,,,,,,1,,,58,105
417840,note_on,0,0,1,,,,,,,,0,,,74,105
417840,note_on,0,0,7,,,,,,,,6,,,70,92
417840,note_on,240,0,7,,,,,,,,6,,,69,0
417840,note_on,0,0,8,,,,,,,,7,,,58,105
417840,note_on,240,0,8,,,,,,,,7,,,57,0
417840,note_on,240,0,1,,,,,,,,0,,,72,0
417840,note_on,240,0,9,,,,,,,,8,,,45,0
417840,note_on,0,0,9,,,,,,,,8,,,46,105
417840,note_on,240,0,2,,,,,,,,1,,,57,0
418080,note_on,0,0,8,,,,,,,,7,,,60,105
418080,note_on,240,0,7,,,,,,,,6,,,70,0
418080,note_on,0,0,7,,,,,,,,6,,,72,92
418080,note_on,240,0,1,,,,,,,,0,,,74,0
418080,note_on,240,0,9,,,,,,,,8,,,46,0
418080,note_on,0,0,2,,,,,,,,1,,,60,105
418080,note_on,240,0,2,,,,,,,,1,,,58,0
418080,note_on,240,0,8,,,,,,,,7,,,58,0
418080,note_on,0,0,9,,,,,,,,8,,,48,105
418080,note_on,0,0,1,,,,,,,,0,,,75,105
418176,note_on,576,0,6,,,,,,,,5,,,60,0
418176,note_on,576,0,5,,,,,,,,4,,,72,0
418212,note_on,132,0,8,,,,,,,,7,,,60,0
418212,note_on,132,0,2,,,,,,,,1,,,60,0
418212,note_on,132,0,7,,,,,,,,6,,,72,0
418212,note_on,132,0,9,,,,,,,,8,,,48,0
418272,note_on,192,0,1,,,,,,,,0,,,75,0
418320,note_on,108,0,7,,,,,,,,6,,,70,92
418320,note_on,108,0,8,,,,,,,,7,,,58,105
418320,note_on,108,0,9,,,,,,,,8,,,46,105
418320,note_on,144,0,5,,,,,,,,4,,,72,105
418320,note_on,108,0,2,,,,,,,,1,,,58,105
418320,note_on,48,0,1,,,,,,,,0,,,74,105
418320,note_on,144,0,6,,,,,,,,5,,,60,105
418368,note_on,0,0,3,,,,,,,,2,,,72,0
418368,note_on,768,0,3,,,,,,,,2,,,75,0
418452,note_on,132,0,8,,,,,,,,7,,,58,0
418452,note_on,132,0,2,,,,,,,,1,,,58,0
418452,note_on,132,0,9,,,,,,,,8,,,46,0
418452,note_on,132,0,7,,,,,,,,6,,,70,0
418512,note_on,192,0,6,,,,,,,,5,,,60,0
418512,note_on,192,0,1,,,,,,,,0,,,74,0
418512,note_on,192,0,5,,,,,,,,4,,,72,0
418560,note_on,108,0,9,,,,,,,,8,,,57,105
418560,note_on,1056,0,4,,,,,,,,3,,,69,105
418560,note_on,192,0,3,,,,,,,,2,,,72,105
418560,note_on,0,0,3,,,,,,,,2,,,74,105
418560,note_on,108,0,8,,,,,,,,7,,,57,105
418560,note_on,108,0,7,,,,,,,,6,,,69,92
418560,note_on,48,0,6,,,,,,,,5,,,66,105
418560,note_on,108,0,2,,,,,,,,1,,,57,105
418560,note_on,48,0,1,,,,,,,,0,,,72,105
418560,note_on,48,0,5,,,,,,,,4,,,78,105
418752,note_on,192,0,7,,,,,,,,6,,,69,0
418752,note_on,192,0,1,,,,,,,,0,,,72,0
418752,note_on,192,0,2,,,,,,,,1,,,57,0
418752,note_on,192,0,9,,,,,,,,8,,,57,0
418752,note_on,192,0,8,,,,,,,,7,,,57,0
418800,note_on,48,0,9,,,,,,,,8,,,55,105
418800,note_on,48,0,7,,,,,,,,6,,,67,92
418800,note_on,48,0,8,,,,,,,,7,,,55,105
418800,note_on,48,0,2,,,,,,,,1,,,55,105
418800,note_on,48,0,1,,,,,,,,0,,,70,105
418992,note_on,192,0,9,,,,,,,,8,,,55,0
418992,note_on,192,0,2,,,,,,,,1,,,55,0
418992,note_on,192,0,7,,,,,,,,6,,,67,0
418992,note_on,192,0,1,,,,,,,,0,,,70,0
418992,note_on,192,0,8,,,,,,,,7,,,55,0
419040,note_on,48,0,1,,,,,,,,0,,,69,105
419040,note_on,48,0,8,,,,,,,,7,,,54,105
419040,note_on,48,0,9,,,,,,,,8,,,54,105
419040,note_on,48,0,7,,,,,,,,6,,,66,92
419040,note_on,48,0,2,,,,,,,,1,,,54,105
419136,note_on,576,0,5,,,,,,,,4,,,78,0
419136,note_on,576,0,6,,,,,,,,5,,,66,0
419232,note_on,192,0,2,,,,,,,,1,,,54,0
419232,note_on,192,0,9,,,,,,,,8,,,54,0
419232,note_on,192,0,8,,,,,,,,7,,,54,0
419232,note_on,192,0,1,,,,,,,,0,,,69,0
419232,note_on,192,0,7,,,,,,,,6,,,66,0
419280,note_on,144,0,6,,,,,,,,5,,,66,105
419280,note_on,144,0,5,,,,,,,,4,,,78,105
419280,note_on,48,0,9,,,,,,,,8,,,51,105
419280,note_on,48,0,8,,,,,,,,7,,,51,105
419280,note_on,48,0,1,,,,,,,,0,,,67,105
419280,note_on,48,0,7,,,,,,,,6,,,63,92
419280,note_on,48,0,2,,,,,,,,1,,,51,105
419328,note_on,768,0,3,,,,,,,,2,,,74,0
419328,note_on,0,0,3,,,,,,,,2,,,72,0
419328,note_on,768,0,4,,,,,,,,3,,,69,0
419472,note_on,192,0,1,,,,,,,,0,,,67,0
419472,note_on,192,0,6,,,,,,,,5,,,66,0
419472,note_on,192,0,5,,,,,,,,4,,,78,0
419472,note_on,192,0,9,,,,,,,,8,,,51,0
419472,note_on,192,0,7,,,,,,,,6,,,63,0
419472,note_on,192,0,2,,,,,,,,1,,,51,0
419472,note_on,192,0,8,,,,,,,,7,,,51,0
419520,note_on,48,0,5,,,,,,,,4,,,84,105
419520,note_on,48,0,6,,,,,,,,5,,,72,105
419520,note_on,0,0,4,,,,,,,,3,,,69,105
419520,note_on,48,0,8,,,,,,,,7,,,50,105
419520,note_on,48,0,2,,,,,,,,1,,,50,105
419520,note_on,48,0,1,,,,,,,,0,,,66,105
419520,note_on,48,0,7,,,,,,,,6,,,62,92
419520,note_on,48,0,9,,,,,,,,8,,,50,105
419520,note_on,0,0,3,,,,,,,,2,,,62,105
419520,note_on,192,0,3,,,,,,,,2,,,72,105
419520,note_on,192,0,4,,,,,,,,3,,,62,105
419712,note_on,192,0,7,,,,,,,,6,,,62,0
419712,note_on,192,0,9,,,,,,,,8,,,50,0
419712,note_on,192,0,8,,,,,,,,7,,,50,0
419760,note_on,48,0,7,,,,,,,,6,,,64,92
419760,note_on,0,0,2,,,,,,,,1,,,52,105
419760,note_on,0,0,1,,,,,,,,0,,,67,105
419760,note_on,240,0,1,,,,,,,,0,,,66,0
419760,note_on,48,0,8,,,,,,,,7,,,52,105
419760,note_on,240,0,2,,,,,,,,1,,,50,0
419760,note_on,48,0,9,,,,,,,,8,,,52,105
419952,note_on,192,0,7,,,,,,,,6,,,64,0
419952,note_on,192,0,8,,,,,,,,7,,,52,0
419952,note_on,192,0,9,,,,,,,,8,,,52,0
420000,note_on,240,0,2,,,,,,,,1,,,52,0
420000,note_on,240,0,1,,,,,,,,0,,,67,0
420000,note_on,0,0,1,,,,,,,,0,,,69,105
420000,note_on,0,0,2,,,,,,,,1,,,54,105
420000,note_on,48,0,8,,,,,,,,7,,,54,105
420000,note_on,48,0,7,,,,,,,,6,,,66,92
420000,note_on,48,0,9,,,,,,,,8,,,54,105
420096,note_on,576,0,5,,,,,,,,4,,,84,0
420096,note_on,576,0,6,,,,,,,,5,,,72,0
420192,note_on,192,0,8,,,,,,,,7,,,54,0
420192,note_on,192,0,9,,,,,,,,8,,,54,0
420192,note_on,192,0,7,,,,,,,,6,,,66,0
420240,note_on,144,0,5,,,,,,,,4,,,84,105
420240,note_on,48,0,7,,,,,,,,6,,,62,92
420240,note_on,240,0,1,,,,,,,,0,,,69,0
420240,note_on,48,0,8,,,,,,,,7,,,50,105
420240,note_on,48,0,9,,,,,,,,8,,,50,105
420240,note_on,240,0,2,,,,,,,,1,,,54,0
420240,note_on,0,0,2,,,,,,,,1,,,50,105
420240,note_on,0,0,1,,,,,,,,0,,,66,105
420240,note_on,144,0,6,,,,,,,,5,,,72,105
420288,note_on,768,0,4,,,,,,,,3,,,69,0
420288,note_on,0,0,4,,,,,,,,3,,,62,0
420288,note_on,768,0,3,,,,,,,,2,,,62,0
420288,note_on,0,0,3,,,,,,,,2,,,72,0
420432,note_on,192,0,1,,,,,,,,0,,,66,0
420432,note_on,192,0,2,,,,,,,,1,,,50,0
420432,note_on,192,0,8,,,,,,,,7,,,50,0
420432,note_on,192,0,6,,,,,,,,5,,,72,0
420432,note_on,192,0,9,,,,,,,,8,,,50,0
420432,note_on,192,0,5,,,,,,,,4,,,84,0
420432,note_on,192,0,7,,,,,,,,6,,,62,0
420480,note_on,192,0,3,,,,,,,,2,,,62,105
420480,note_on,0,0,3,,,,,,,,2,,,70,105
420480,note_on,0,0,4,,,,,,,,3,,,55,105
420480,note_on,48,0,1,,,,,,,,0,,,67,105
420480,note_on,48,0,6,,,,,,,,5,,,70,105
420480,note_on,48,0,9,,,,,,,,8,,,43,105
420480,note_on,48,0,8,,,,,,,,7,,,55,105
420480,note_on,192,0,4,,,,,,,,3,,,67,105
420480,note_on,48,0,7,,,,,,,,6,,,67,92
420480,note_on,48,0,5,,,,,,,,4,,,82,105
420480,note_on,48,0,2,,,,,,,,1,,,55,105
420636,note_on,156,0,7,,,,,,,,6,,,67,0
420636,note_on,156,0,6,,,,,,,,5,,,70,0
420636,note_on,156,0,9,,,,,,,,8,,,43,0
420636,note_on,156,0,8,,,,,,,,7,,,55,0
420636,note_on,156,0,2,,,,,,,,1,,,55,0
420636,note_on,156,0,5,,,,,,,,4,,,82,0
420720,note_on,84,0,6,,,,,,,,5,,,69,105
420720,note_on,84,0,7,,,,,,,,6,,,65,92
420720,note_on,84,0,2,,,,,,,,1,,,53,105
420720,note_on,84,0,8,,,,,,,,7,,,53,105
420720,note_on,84,0,9,,,,,,,,8,,,41,105
420720,note_on,84,0,5,,,,,,,,4,,,81,105
420864,note_on,0,0,3,,,,,,,,2,,,62,0
420864,note_on,384,0,3,,,,,,,,2,,,70,0
420864,note_on,384,0,1,,,,,,,,0,,,67,0
420876,note_on,156,0,8,,,,,,,,7,,,53,0
420876,note_on,156,0,6,,,,,,,,5,,,69,0
420876,note_on,156,0,5,,,,,,,,4,,,81,0
420876,note_on,156,0,7,,,,,,,,6,,,65,0
420876,note_on,156,0,9,,,,,,,,8,,,41,0
420876,note_on,156,0,2,,,,,,,,1,,,53,0
420960,note_on,84,0,6,,,,,,,,5,,,67,105
420960,note_on,84,0,7,,,,,,,,6,,,63,92
420960,note_on,84,0,8,,,,,,,,7,,,51,105
420960,note_on,84,0,2,,,,,,,,1,,,51,105
420960,note_on,84,0,5,,,,,,,,4,,,79,105
420960,note_on,84,0,9,,,,,,,,8,,,39,105
421116,note_on,156,0,5,,,,,,,,4,,,79,0
421116,note_on,156,0,9,,,,,,,,8,,,39,0
421116,note_on,156,0,8,,,,,,,,7,,,51,0
421116,note_on,156,0,6,,,,,,,,5,,,67,0
421116,note_on,156,0,7,,,,,,,,6,,,63,0
421116,note_on,156,0,2,,,,,,,,1,,,51,0
421200,note_on,84,0,6,,,,,,,,5,,,65,105
421200,note_on,84,0,5,,,,,,,,4,,,77,105
421200,note_on,84,0,9,,,,,,,,8,,,38,105
421200,note_on,84,0,8,,,,,,,,7,,,50,105
421200,note_on,84,0,7,,,,,,,,6,,,62,92
421200,note_on,84,0,2,,,,,,,,1,,,50,105
421356,note_on,156,0,5,,,,,,,,4,,,77,0
421356,note_on,156,0,8,,,,,,,,7,,,50,0
421356,note_on,156,0,2,,,,,,,,1,,,50,0
421356,note_on,156,0,7,,,,,,,,6,,,62,0
421356,note_on,156,0,6,,,,,,,,5,,,65,0
421356,note_on,156,0,9,,,,,,,,8,,,38,0
421440,note_on,84,0,9,,,,,,,,8,,,36,105
421440,note_on,84,0,8,,,,,,,,7,,,48,105
421440,note_on,84,0,2,,,,,,,,1,,,48,105
421440,note_on,84,0,7,,,,,,,,6,,,60,92
421440,note_on,84,0,6,,,,,,,,5,,,63,105
421440,note_on,84,0,5,,,,,,,,4,,,75,105
421596,note_on,156,0,9,,,,,,,,8,,,36,0
421596,note_on,156,0,7,,,,,,,,6,,,60,0
421596,note_on,156,0,6,,,,,,,,5,,,63,0
421596,note_on,156,0,5,,,,,,,,4,,,75,0
421596,note_on,156,0,8,,,,,,,,7,,,48,0
421596,note_on,156,0,2,,,,,,,,1,,,48,0
421680,note_on,84,0,5,,,,,,,,4,,,74,105
421680,note_on,84,0,7,,,,,,,,6,,,58,92
421680,note_on,84,0,8,,,,,,,,7,,,46,105
421680,note_on,84,0,9,,,,,,,,8,,,34,105
421680,note_on,84,0,2,,,,,,,,1,,,46,105
421680,note_on,84,0,6,,,,,,,,5,,,62,105
421836,note_on,156,0,7,,,,,,,,6,,,58,0
421836,note_on,156,0,9,,,,,,,,8,,,34,0
421836,note_on,156,0,8,,,,,,,,7,,,46,0
421836,note_on,156,0,5,,,,,,,,4,,,74,0
421836,note_on,156,0,2,,,,,,,,1,,,46,0
421836,note_on,156,0,6,,,,,,,,5,,,62,0
421920,note_on,84,0,9,,,,,,,,8,,,33,105
421920,note_on,84,0,2,,,,,,,,1,,,45,105
421920,note_on,84,0,7,,,,,,,,6,,,57,92
421920,note_on,84,0,8,,,,,,,,7,,,45,105
421920,note_on,84,0,6,,,,,,,,5,,,60,105
421920,note_on,84,0,5,,,,,,,,4,,,72,105
422076,note_on,156,0,9,,,,,,,,8,,,33,0
422076,note_on,156,0,2,,,,,,,,1,,,45,0
422076,note_on,156,0,7,,,,,,,,6,,,57,0
422076,note_on,156,0,5,,,,,,,,4,,,72,0
422076,note_on,156,0,8,,,,,,,,7,,,45,0
422076,note_on,156,0,6,,,,,,,,5,,,60,0
422160,note_on,84,0,7,,,,,,,,6,,,55,92
422160,note_on,84,0,5,,,,,,,,4,,,70,105
422160,note_on,84,0,9,,,,,,,,8,,,31,105
422160,note_on,84,0,8,,,,,,,,7,,,43,105
422160,note_on,84,0,6,,,,,,,,5,,,58,105
422160,note_on,84,0,2,,,,,,,,1,,,43,105
422316,note_on,156,0,5,,,,,,,,4,,,70,0
422316,note_on,156,0,9,,,,,,,,8,,,31,0
422316,note_on,156,0,7,,,,,,,,6,,,55,0
422316,note_on,156,0,2,,,,,,,,1,,,43,0
422316,note_on,156,0,8,,,,,,,,7,,,43,0
422316,note_on,156,0,6,,,,,,,,5,,,58,0
422400,note_on,84,0,2,,,,,,,,1,,,48,105
422400,note_on,84,0,6,,,,,,,,5,,,57,105
422400,note_on,84,0,7,,,,,,,,6,,,60,92
422400,note_on,84,0,9,,,,,,,,8,,,36,105
422400,note_on,84,0,5,,,,,,,,4,,,69,105
422400,note_on,84,0,8,,,,,,,,7,,,48,105
422688,note_on,288,0,9,,,,,,,,8,,,36,0
422688,note_on,288,0,6,,,,,,,,5,,,57,0
422688,note_on,288,0,7,,,,,,,,6,,,60,0
422688,note_on,288,0,5,,,,,,,,4,,,69,0
422688,note_on,288,0,8,,,,,,,,7,,,48,0
422688,note_on,288,0,2,,,,,,,,1,,,48,0
422880,note_on,192,0,2,,,,,,,,1,,,60,105
422880,note_on,2016,0,1,,,,,,,,0,,,75,105
422880,note_on,0,0,1,,,,,,,,0,,,72,105
422880,note_on,192,0,8,,,,,,,,7,,,60,105
422880,note_on,192,0,6,,,,,,,,5,,,72,105
422880,note_on,192,0,9,,,,,,,,8,,,48,105
422880,note_on,192,0,5,,,,,,,,4,,,75,105
422880,note_on,192,0,7,,,,,,,,6,,,60,92
422976,note_on,2496,0,4,,,,,,,,3,,,55,0
423168,note_on,288,0,6,,,,,,,,5,,,72,0
423168,note_on,0,0,1,,,,,,,,0,,,75,0
423168,note_on,288,0,1,,,,,,,,0,,,72,0
423168,note_on,288,0,2,,,,,,,,1,,,60,0
423168,note_on,288,0,7,,,,,,,,6,,,60,0
423168,note_on,288,0,9,,,,,,,,8,,,48,0
423168,note_on,288,0,8,,,,,,,,7,,,60,0
423168,note_on,288,0,5,,,,,,,,4,,,75,0
423360,note_on,192,0,2,,,,,,,,1,,,62,105
423360,note_on,192,0,7,,,,,,,,6,,,62,92
423360,note_on,0,0,3,,,,,,,,2,,,62,105
423360,note_on,2496,0,3,,,,,,,,2,,,70,105
423360,note_on,384,0,4,,,,,,,,3,,,62,105
423360,note_on,0,0,1,,,,,,,,0,,,74,105
423360,note_on,192,0,1,,,,,,,,0,,,70,105
423360,note_on,192,0,8,,,,,,,,7,,,62,105
423360,note_on,192,0,6,,,,,,,,5,,,70,105
423360,note_on,192,0,9,,,,,,,,8,,,50,105
423360,note_on,192,0,5,,,,,,,,4,,,74,105
423648,note_on,0,0,4,,,,,,,,3,,,67,0
423648,note_on,288,0,2,,,,,,,,1,,,62,0
423648,note_on,288,0,9,,,,,,,,8,,,50,0
423648,note_on,288,0,3,,,,,,,,2,,,62,0
423648,note_on,0,0,3,,,,,,,,2,,,70,0
423648,note_on,288,0,6,,,,,,,,5,,,70,0
423648,note_on,288,0,5,,,,,,,,4,,,74,0
423648,note_on,288,0,4,,,,,,,,3,,,62,0
423648,note_on,288,0,8,,,,,,,,7,,,62,0
423648,note_on,288,0,1,,,,,,,,0,,,74,0
423648,note_on,0,0,1,,,,,,,,0,,,70,0
423648,note_on,288,0,7,,,,,,,,6,,,62,0
423840,note_on,192,0,3,,,,,,,,2,,,62,105
423840,note_on,192,0,7,,,,,,,,6,,,62,92
423840,note_on,192,0,6,,,,,,,,5,,,69,105
423840,note_on,192,0,4,,,,,,,,3,,,50,105
423840,note_on,0,0,4,,,,,,,,3,,,69,105
423840,note_on,192,0,1,,,,,,,,0,,,69,105
423840,note_on,192,0,5,,,,,,,,4,,,78,105
423840,note_on,192,0,8,,,,,,,,7,,,50,105
423840,note_on,192,0,2,,,,,,,,1,,,50,105
423840,note_on,0,0,1,,,,,,,,0,,,72,105
423840,note_on,192,0,9,,,,,,,,8,,,38,105
424128,note_on,288,0,8,,,,,,,,7,,,50,0
424128,note_on,0,0,1,,,,,,,,0,,,69,0
424128,note_on,288,0,5,,,,,,,,4,,,78,0
424128,note_on,0,0,4,,,,,,,,3,,,50,0
424128,note_on,288,0,4,,,,,,,,3,,,69,0
424128,note_on,288,0,6,,,,,,,,5,,,69,0
424128,note_on,288,0,9,,,,,,,,8,,,38,0
424128,note_on,288,0,2,,,,,,,,1,,,50,0
424128,note_on,288,0,1,,,,,,,,0,,,72,0
424128,note_on,288,0,7,,,,,,,,6,,,62,0
424128,note_on,288,0,3,,,,,,,,2,,,62,0
424320,note_on,0,0,3,,,,,,,,2,,,62,105
424320,note_on,192,0,5,,,,,,,,4,,,79,105
424320,note_on,192,0,2,,,,,,,,1,,,55,105
424320,note_on,192,0,9,,,,,,,,8,,,43,105
424320,note_on,192,0,3,,,,,,,,2,,,58,105
424320,note_on,192,0,4,,,,,,,,3,,,55,105
424320,note_on,0,0,4,,,,,,,,3,,,67,105
424320,note_on,0,0,1,,,,,,,,0,,,67,105
424320,note_on,192,0,1,,,,,,,,0,,,70,105
424320,note_on,192,0,8,,,,,,,,7,,,55,105
424320,note_on,192,0,6,,,,,,,,5,,,67,105
424320,note_on,192,0,7,,,,,,,,6,,,67,92
424608,note_on,0,0,1,,,,,,,,0,,,70,0
424608,note_on,288,0,9,,,,,,,,8,,,43,0
424608,note_on,288,0,7,,,,,,,,6,,,67,0
424608,note_on,288,0,1,,,,,,,,0,,,67,0
424608,note_on,288,0,6,,,,,,,,5,,,67,0
424608,note_on,288,0,3,,,,,,,,2,,,62,0
424608,note_on,288,0,5,,,,,,,,4,,,79,0
424608,note_on,0,0,4,,,,,,,,3,,,55,0
424608,note_on,288,0,4,,,,,,,,3,,,67,0
424608,note_on,288,0,2,,,,,,,,1,,,55,0
424608,note_on,288,0,8,,,,,,,,7,,,55,0
424608,note_on,0,0,3,,,,,,,,2,,,58,0
424800,note_on,192,0,9,,,,,,,,8,,,38,105
424800,note_on,192,0,5,,,,,,,,4,,,62,105
424800,note_on,192,0,3,,,,,,,,2,,,62,105
424800,note_on,192,0,1,,,,,,,,0,,,74,105
424800,note_on,192,0,2,,,,,,,,1,,,50,105
424800,note_on,192,0,6,,,,,,,,5,,,62,105
424800,note_on,192,0,4,,,,,,,,3,,,62,105
424800,note_on,192,0,8,,,,,,,,7,,,50,105
424800,note_on,192,0,7,,,,,,,,6,,,62,92
425088,note_on,288,0,1,,,,,,,,0,,,74,0
425088,note_on,288,0,9,,,,,,,,8,,,38,0
425088,note_on,288,0,6,,,,,,,,5,,,62,0
425088,note_on,288,0,4,,,,,,,,3,,,62,0
425088,note_on,288,0,2,,,,,,,,1,,,50,0
425088,note_on,288,0,7,,,,,,,,6,,,62,0
425088,note_on,288,0,3,,,,,,,,2,,,62,0
425088,note_on,288,0,5,,,,,,,,4,,,62,0
425088,note_on,288,0,8,,,,,,,,7,,,50,0
425280,note_on,192,0,8,,,,,,,,7,,,58,105
425280,note_on,192,0,7,,,,,,,,6,,,70,92
425280,note_on,192,0,3,,,,,,,,2,,,70,105
425280,note_on,192,0,6,,,,,,,,5,,,70,105
425280,note_on,192,0,9,,,,,,,,8,,,46,105
425280,note_on,192,0,1,,,,,,,,0,,,82,105
425280,note_on,192,0,2,,,,,,,,1,,,58,105
425280,note_on,192,0,5,,,,,,,,4,,,70,105
425664,note_on,384,0,3,,,,,,,,2,,,70,0
425856,note_on,576,0,6,,,,,,,,5,,,70,0
425856,note_on,576,0,1,,,,,,,,0,,,82,0
425856,note_on,576,0,9,,,,,,,,8,,,46,0
425856,note_on,576,0,5,,,,,,,,4,,,70,0
425856,note_on,576,0,8,,,,,,,,7,,,58,0
425856,note_on,576,0,2,,,,,,,,1,,,58,0
425856,note_on,576,0,7,,,,,,,,6,,,70,0
426000,note_on,144,0,9,,,,,,,,8,,,45,105
426000,note_on,144,0,8,,,,,,,,7,,,57,105
426000,note_on,144,0,5,,,,,,,,4,,,69,105
426000,note_on,144,0,2,,,,,,,,1,,,57,105
426000,note_on,912,0,4,,,,,,,,3,,,69,105
426000,note_on,144,0,1,,,,,,,,0,,,81,105
426000,note_on,144,0,6,,,,,,,,5,,,69,105
426000,note_on,144,0,7,,,,,,,,6,,,69,92
426192,note_on,192,0,6,,,,,,,,5,,,69,0
426192,note_on,192,0,9,,,,,,,,8,,,45,0
426192,note_on,192,0,4,,,,,,,,3,,,69,0
426192,note_on,192,0,5,,,,,,,,4,,,69,0
426192,note_on,192,0,8,,,,,,,,7,,,57,0
426192,note_on,192,0,2,,,,,,,,1,,,57,0
426192,note_on,192,0,1,,,,,,,,0,,,81,0
426192,note_on,192,0,7,,,,,,,,6,,,69,0
426240,note_on,48,0,9,,,,,,,,8,,,43,105
426240,note_on,48,0,5,,,,,,,,4,,,67,105
426240,note_on,48,0,2,,,,,,,,1,,,55,105
426240,note_on,48,0,4,,,,,,,,3,,,67,105
426240,note_on,48,0,1,,,,,,,,0,,,79,105
426240,note_on,48,0,8,,,,,,,,7,,,55,105
426240,note_on,48,0,7,,,,,,,,6,,,67,92
426240,note_on,48,0,6,,,,,,,,5,,,67,105
426528,note_on,288,0,7,,,,,,,,6,,,67,0
426528,note_on,288,0,2,,,,,,,,1,,,55,0
426528,note_on,288,0,4,,,,,,,,3,,,67,0
426528,note_on,288,0,6,,,,,,,,5,,,67,0
426528,note_on,288,0,5,,,,,,,,4,,,67,0
426528,note_on,288,0,9,,,,,,,,8,,,43,0
426528,note_on,288,0,8,,,,,,,,7,,,55,0
426528,note_on,288,0,1,,,,,,,,0,,,79,0
426720,note_on,192,0,4,,,,,,,,3,,,62,105
426720,note_on,192,0,1,,,,,,,,0,,,74,105
426720,note_on,192,0,8,,,,,,,,7,,,50,105
426720,note_on,192,0,2,,,,,,,,1,,,50,105
426720,note_on,192,0,7,,,,,,,,6,,,62,92
426720,note_on,1056,0,3,,,,,,,,2,,,62,105
426720,note_on,192,0,5,,,,,,,,4,,,62,105
426720,note_on,192,0,6,,,,,,,,5,,,62,105
426720,note_on,192,0,9,,,,,,,,8,,,38,105
427008,note_on,288,0,2,,,,,,,,1,,,50,0
427008,note_on,288,0,4,,,,,,,,3,,,62,0
427008,note_on,288,0,9,,,,,,,,8,,,38,0
427008,note_on,288,0,8,,,,,,,,7,,,50,0
427008,note_on,288,0,1,,,,,,,,0,,,74,0
427008,note_on,288,0,3,,,,,,,,2,,,62,0
427008,note_on,288,0,6,,,,,,,,5,,,62,0
427008,note_on,288,0,5,,,,,,,,4,,,62,0
427008,note_on,288,0,7,,,,,,,,6,,,62,0
427200,note_on,192,0,6,,,,,,,,5,,,58,105
427200,note_on,192,0,1,,,,,,,,0,,,70,105
427200,note_on,192,0,2,,,,,,,,1,,,46,105
427200,note_on,192,0,3,,,,,,,,2,,,58,105
427200,note_on,192,0,5,,,,,,,,4,,,58,105
427200,note_on,192,0,9,,,,,,,,8,,,34,105
427200,note_on,192,0,8,,,,,,,,7,,,46,105
427200,note_on,192,0,7,,,,,,,,6,,,58,92
427488,note_on,288,0,7,,,,,,,,6,,,58,0
427488,note_on,288,0,2,,,,,,,,1,,,46,0
427488,note_on,288,0,8,,,,,,,,7,,,46,0
427488,note_on,288,0,6,,,,,,,,5,,,58,0
427488,note_on,288,0,9,,,,,,,,8,,,34,0
427488,note_on,288,0,3,,,,,,,,2,,,58,0
427488,note_on,288,0,5,,,,,,,,4,,,58,0
427488,note_on,288,0,1,,,,,,,,0,,,70,0
427680,note_on,672,0,4,,,,,,,,3,,,55,105
427680,note_on,192,0,8,,,,,,,,7,,,43,105
427680,note_on,192,0,1,,,,,,,,0,,,67,105
427680,note_on,192,0,7,,,,,,,,6,,,55,92
427680,note_on,192,0,9,,,,,,,,8,,,31,105
427680,note_on,192,0,2,,,,,,,,1,,,43,105
427680,note_on,192,0,6,,,,,,,,5,,,55,105
427680,note_on,192,0,5,,,,,,,,4,,,55,105
427968,note_on,288,0,9,,,,,,,,8,,,31,0
427968,note_on,288,0,6,,,,,,,,5,,,55,0
427968,note_on,288,0,8,,,,,,,,7,,,43,0
427968,note_on,288,0,7,,,,,,,,6,,,55,0
427968,note_on,288,0,1,,,,,,,,0,,,67,0
427968,note_on,288,0,2,,,,,,,,1,,,43,0
427968,note_on,288,0,4,,,,,,,,3,,,55,0
427968,note_on,288,0,5,,,,,,,,4,,,55,0
428160,note_on,192,0,7,,,,,,,,6,,,62,92
428160,note_on,192,0,1,,,,,,,,0,,,74,92
428160,note_on,192,0,6,,,,,,,,5,,,62,80
428160,note_on,192,0,9,,,,,,,,8,,,38,92
428160,note_on,192,0,5,,,,,,,,4,,,62,92
428160,note_on,192,0,8,,,,,,,,7,,,50,105
428160,note_on,192,0,2,,,,,,,,1,,,50,92
428160,note_on,192,0,4,,,,,,,,3,,,50,92
428160,note_on,672,0,3,,,,,,,,2,,,62,92
428448,note_on,288,0,7,,,,,,,,6,,,62,0
428448,note_on,288,0,2,,,,,,,,1,,,50,0
428448,note_on,288,0,9,,,,,,,,8,,,38,0
428448,note_on,288,0,5,,,,,,,,4,,,62,0
428448,note_on,288,0,1,,,,,,,,0,,,74,0
428448,note_on,288,0,8,,,,,,,,7,,,50,0
428448,note_on,288,0,3,,,,,,,,2,,,62,0
428448,note_on,288,0,4,,,,,,,,3,,,50,0
428472,note_on,312,0,6,,,,,,,,5,,,62,0
428640,note_on,168,0,6,,,,,,,,5,,,57,80
428952,note_on,312,0,6,,,,,,,,5,,,57,0
429120,note_on,168,0,6,,,,,,,,5,,,66,80
429696,note_on,576,0,6,,,,,,,,5,,,66,0
429840,note_on,144,0,6,,,,,,,,5,,,64,80
430032,note_on,192,0,6,,,,,,,,5,,,64,0
430080,note_on,48,0,6,,,,,,,,5,,,62,80
430392,note_on,312,0,6,,,,,,,,5,,,62,0
430560,note_on,168,0,6,,,,,,,,5,,,69,80
430872,note_on,312,0,6,,,,,,,,5,,,69,0
431040,note_on,168,0,6,,,,,,,,5,,,66,80
431352,note_on,312,0,6,,,,,,,,5,,,66,0
431520,note_on,168,0,6,,,,,,,,5,,,62,80
431832,note_on,312,0,6,,,,,,,,5,,,62,0
432000,note_on,3552,0,5,,,,,,,,4,,,74,70
432000,note_on,168,0,6,,,,,,,,5,,,72,70
432312,note_on,312,0,5,,,,,,,,4,,,74,0
432480,note_on,168,0,5,,,,,,,,4,,,69,70
432792,note_on,312,0,5,,,,,,,,4,,,69,0
432960,note_on,168,0,5,,,,,,,,4,,,78,70
432960,note_on,0,0,6,,,,,,,,5,,,69,70
432960,note_on,960,0,6,,,,,,,,5,,,72,0
433536,note_on,576,0,5,,,,,,,,4,,,78,0
433680,note_on,144,0,5,,,,,,,,4,,,76,70
433872,note_on,192,0,5,,,,,,,,4,,,76,0
433872,note_on,912,0,6,,,,,,,,5,,,69,0
433920,note_on,48,0,5,,,,,,,,4,,,74,70
433920,note_on,48,0,6,,,,,,,,5,,,66,70
434232,note_on,312,0,5,,,,,,,,4,,,74,0
434400,note_on,168,0,5,,,,,,,,4,,,81,70
434712,note_on,312,0,5,,,,,,,,4,,,81,0
434880,note_on,0,0,6,,,,,,,,5,,,60,70
434880,note_on,168,0,5,,,,,,,,4,,,78,70
434880,note_on,960,0,6,,,,,,,,5,,,66,0
435192,note_on,312,0,5,,,,,,,,4,,,78,0
435360,note_on,168,0,5,,,,,,,,4,,,74,70
435648,note_on,768,0,6,,,,,,,,5,,,60,0
435672,note_on,312,0,5,,,,,,,,4,,,74,0
435840,note_on,192,0,6,,,,,,,,5,,,58,70
435840,note_on,7392,0,9,,,,,,,,8,,,31,70
435840,note_on,168,0,5,,,,,,,,4,,,79,70
435840,note_on,7392,0,8,,,,,,,,7,,,43,70
436080,note_on,240,0,6,,,,,,,,5,,,58,0
436080,note_on,0,0,6,,,,,,,,5,,,55,70
436224,note_on,384,0,5,,,,,,,,4,,,79,0
436320,note_on,240,0,6,,,,,,,,5,,,55,0
436320,note_on,0,0,6,,,,,,,,5,,,58,70
436560,note_on,240,0,6,,,,,,,,5,,,58,0
436560,note_on,0,0,6,,,,,,,,5,,,62,70
436560,note_on,336,0,5,,,,,,,,4,,,74,80
436608,note_on,768,0,8,,,,,,,,7,,,43,0
436608,note_on,768,0,9,,,,,,,,8,,,31,0
436752,note_on,192,0,6,,,,,,,,5,,,62,0
436752,note_on,192,0,5,,,,,,,,4,,,74,0
436800,note_on,48,0,5,,,,,,,,4,,,70,80
436800,note_on,8352,0,7,,,,,,,,6,,,58,70
436800,note_on,48,0,6,,,,,,,,5,,,67,70
437040,note_on,240,0,6,,,,,,,,5,,,67,0
437040,note_on,0,0,6,,,,,,,,5,,,62,70
437280,note_on,240,0,6,,,,,,,,5,,,62,0
437280,note_on,0,0,6,,,,,,,,5,,,67,70
437520,note_on,0,0,5,,,,,,,,4,,,72,80
437520,note_on,720,0,5,,,,,,,,4,,,70,0
437520,note_on,240,0,6,,,,,,,,5,,,67,0
437520,note_on,0,0,6,,,,,,,,5,,,69,70
437520,note_on,720,0,7,,,,,,,,6,,,58,0
437520,note_on,0,0,7,,,,,,,,6,,,60,70
437712,note_on,192,0,6,,,,,,,,5,,,69,0
437712,note_on,192,0,5,,,,,,,,4,,,72,0
437712,note_on,192,0,7,,,,,,,,6,,,60,0
437760,note_on,1152,0,9,,,,,,,,8,,,38,70
437760,note_on,48,0,6,,,,,,,,5,,,66,70
437760,note_on,48,0,5,,,,,,,,4,,,69,80
437760,note_on,48,0,7,,,,,,,,6,,,57,70
437760,note_on,1152,0,8,,,,,,,,7,,,50,70
438000,note_on,240,0,6,,,,,,,,5,,,66,0
438000,note_on,0,0,6,,,,,,,,5,,,62,70
438240,note_on,240,0,6,,,,,,,,5,,,62,0
438240,note_on,0,0,6,,,,,,,,5,,,66,70
438240,note_on,480,0,7,,,,,,,,6,,,57,0
438480,note_on,0,0,6,,,,,,,,5,,,67,70
438480,note_on,240,0,6,,,,,,,,5,,,66,0
438480,note_on,720,0,5,,,,,,,,4,,,69,0
438480,note_on,0,0,5,,,,,,,,4,,,70,80
438528,note_on,768,0,9,,,,,,,,8,,,38,0
438528,note_on,768,0,8,,,,,,,,7,,,50,0
438672,note_on,192,0,6,,,,,,,,5,,,67,0
438672,note_on,192,0,5,,,,,,,,4,,,70,0
438720,note_on,48,0,5,,,,,,,,4,,,72,80
438720,note_on,48,0,6,,,,,,,,5,,,69,70
438720,note_on,480,0,7,,,,,,,,6,,,60,70
438960,note_on,240,0,6,,,,,,,,5,,,69,0
438960,note_on,0,0,6,,,,,,,,5,,,62,70
439200,note_on,0,0,6,,,,,,,,5,,,69,70
439200,note_on,240,0,6,,,,,,,,5,,,62,0
439440,note_on,720,0,5,,,,,,,,4,,,72,0
439440,note_on,720,0,7,,,,,,,,6,,,60,0
439440,note_on,0,0,6,,,,,,,,5,,,70,70
439440,note_on,240,0,6,,,,,,,,5,,,69,0
439440,note_on,0,0,7,,,,,,,,6,,,62,70
439440,note_on,0,0,5,,,,,,,,4,,,74,80
439632,note_on,192,0,5,,,,,,,,4,,,74,0
439632,note_on,192,0,7,,,,,,,,6,,,62,0
439632,note_on,192,0,6,,,,,,,,5,,,70,0
439680,note_on,48,0,6,,,,,,,,5,,,67,70
439680,note_on,48,0,7,,,,,,,,6,,,58,70
439680,note_on,1152,0,8,,,,,,,,7,,,55,70
439680,note_on,1152,0,9,,,,,,,,8,,,43,70
439680,note_on,48,0,5,,,,,,,,4,,,70,80
439920,note_on,240,0,6,,,,,,,,5,,,67,0
439920,note_on,0,0,6,,,,,,,,5,,,62,70
440160,note_on,240,0,6,,,,,,,,5,,,62,0
440160,note_on,0,0,6,,,,,,,,5,,,67,70
440160,note_on,480,0,7,,,,,,,,6,,,58,0
440400,note_on,0,0,6,,,,,,,,5,,,70,70
440400,note_on,720,0,5,,,,,,,,4,,,70,0
440400,note_on,0,0,5,,,,,,,,4,,,74,80
440400,note_on,240,0,6,,,,,,,,5,,,67,0
440592,note_on,192,0,6,,,,,,,,5,,,70,0
440592,note_on,192,0,5,,,,,,,,4,,,74,0
440640,note_on,480,0,7,,,,,,,,6,,,67,70
440640,note_on,48,0,5,,,,,,,,4,,,79,80
440640,note_on,48,0,6,,,,,,,,5,,,58,70
440880,note_on,0,0,6,,,,,,,,5,,,62,70
440880,note_on,240,0,6,,,,,,,,5,,,58,0
441120,note_on,240,0,6,,,,,,,,5,,,62,0
441120,note_on,0,0,6,,,,,,,,5,,,67,70
441360,note_on,720,0,5,,,,,,,,4,,,79,0
441360,note_on,720,0,7,,,,,,,,6,,,67,0
441360,note_on,0,0,6,,,,,,,,5,,,62,70
441360,note_on,0,0,5,,,,,,,,4,,,82,80
441360,note_on,240,0,6,,,,,,,,5,,,67,0
441360,note_on,0,0,7,,,,,,,,6,,,70,70
441552,note_on,192,0,5,,,,,,,,4,,,82,0
441552,note_on,192,0,7,,,,,,,,6,,,70,0
441552,note_on,192,0,6,,,,,,,,5,,,62,0
441600,note_on,48,0,5,,,,,,,,4,,,81,80
441600,note_on,0,0,9,,,,,,,,8,,,38,70
441600,note_on,1920,0,8,,,,,,,,7,,,55,0
441600,note_on,48,0,6,,,,,,,,5,,,60,70
441600,note_on,48,0,7,,,,,,,,6,,,69,70
441600,note_on,1920,0,9,,,,,,,,8,,,43,0
441600,note_on,0,0,8,,,,,,,,7,,,50,70
441840,note_on,0,0,6,,,,,,,,5,,,62,70
441840,note_on,240,0,6,,,,,,,,5,,,60,0
442080,note_on,0,0,6,,,,,,,,5,,,66,70
442080,note_on,240,0,6,,,,,,,,5,,,62,0
442320,note_on,720,0,5,,,,,,,,4,,,81,0
442320,note_on,0,0,6,,,,,,,,5,,,62,70
442320,note_on,240,0,6,,,,,,,,5,,,66,0
442320,note_on,0,0,7,,,,,,,,6,,,72,70
442320,note_on,720,0,7,,,,,,,,6,,,69,0
442320,note_on,0,0,5,,,,,,,,4,,,84,80
442512,note_on,192,0,6,,,,,,,,5,,,62,0
442512,note_on,192,0,5,,,,,,,,4,,,84,0
442512,note_on,192,0,7,,,,,,,,6,,,72,0
442560,note_on,48,0,5,,,,,,,,4,,,74,80
442560,note_on,48,0,7,,,,,,,,6,,,62,70
442560,note_on,48,0,6,,,,,,,,5,,,57,70
442800,note_on,0,0,6,,,,,,,,5,,,60,70
442800,note_on,240,0,6,,,,,,,,5,,,57,0
443040,note_on,0,0,6,,,,,,,,5,,,62,70
443040,note_on,240,0,6,,,,,,,,5,,,60,0
443280,note_on,0,0,5,,,,,,,,4,,,78,80
443280,note_on,0,0,6,,,,,,,,5,,,60,70
443280,note_on,240,0,6,,,,,,,,5,,,62,0
443280,note_on,0,0,7,,,,,,,,6,,,66,70
443280,note_on,720,0,7,,,,,,,,6,,,62,0
443280,note_on,720,0,5,,,,,,,,4,,,74,0
443424,note_on,1824,0,9,,,,,,,,8,,,38,0
443424,note_on,1824,0,8,,,,,,,,7,,,50,0
443472,note_on,192,0,7,,,,,,,,6,,,66,0
443472,note_on,192,0,6,,,,,,,,5,,,60,0
443472,note_on,192,0,5,,,,,,,,4,,,78,0
443520,note_on,96,0,8,,,,,,,,7,,,43,70
443520,note_on,48,0,7,,,,,,,,6,,,67,70
443520,note_on,0,0,1,,,,,,,,0,,,62,58
443520,note_on,96,0,9,,,,,,,,8,,,31,70
443520,note_on,15072,0,1,,,,,,,,0,,,74,58
443520,note_on,48,0,5,,,,,,,,4,,,79,70
443520,note_on,48,0,6,,,,,,,,5,,,58,70
443760,note_on,240,0,6,,,,,,,,5,,,58,0
443760,note_on,0,0,6,,,,,,,,5,,,55,70
443904,note_on,384,0,7,,,,,,,,6,,,67,0
443904,note_on,384,0,5,,,,,,,,4,,,79,0
444000,note_on,0,0,6,,,,,,,,5,,,58,70
444000,note_on,240,0,6,,,,,,,,5,,,55,0
444240,note_on,0,0,6,,,,,,,,5,,,62,70
444240,note_on,336,0,5,,,,,,,,4,,,74,80
444240,note_on,240,0,6,,,,,,,,5,,,58,0
444288,note_on,768,0,9,,,,,,,,8,,,31,0
444288,note_on,768,0,8,,,,,,,,7,,,43,0
444432,note_on,192,0,5,,,,,,,,4,,,74,0
444432,note_on,192,0,6,,,,,,,,5,,,62,0
444480,note_on,48,0,5,,,,,,,,4,,,70,80
444480,note_on,48,0,6,,,,,,,,5,,,67,70
444480,note_on,576,0,7,,,,,,,,6,,,58,70
444720,note_on,240,0,6,,,,,,,,5,,,67,0
444720,note_on,0,0,6,,,,,,,,5,,,62,70
444960,note_on,240,0,6,,,,,,,,5,,,62,0
444960,note_on,0,0,6,,,,,,,,5,,,67,70
445200,note_on,0,0,5,,,,,,,,4,,,72,80
445200,note_on,240,0,6,,,,,,,,5,,,67,0
445200,note_on,0,0,7,,,,,,,,6,,,60,70
445200,note_on,720,0,7,,,,,,,,6,,,58,0
445200,note_on,0,0,6,,,,,,,,5,,,69,70
445200,note_on,720,0,5,,,,,,,,4,,,70,0
445392,note_on,192,0,7,,,,,,,,6,,,60,0
445392,note_on,192,0,5,,,,,,,,4,,,72,0
445392,note_on,192,0,6,,,,,,,,5,,,69,0
445440,note_on,48,0,6,,,,,,,,5,,,66,70
445440,note_on,1152,0,9,,,,,,,,8,,,38,70
445440,note_on,1152,0,8,,,,,,,,7,,,50,70
445440,note_on,48,0,5,,,,,,,,4,,,69,80
445440,note_on,48,0,7,,,,,,,,6,,,57,70
445680,note_on,0,0,6,,,,,,,,5,,,62,70
445680,note_on,240,0,6,,,,,,,,5,,,66,0
445920,note_on,0,0,6,,,,,,,,5,,,66,70
445920,note_on,240,0,6,,,,,,,,5,,,62,0
445920,note_on,480,0,7,,,,,,,,6,,,57,0
446160,note_on,0,0,6,,,,,,,,5,,,67,70
446160,note_on,720,0,5,,,,,,,,4,,,69,0
446160,note_on,0,0,5,,,,,,,,4,,,70,80
446160,note_on,240,0,6,,,,,,,,5,,,66,0
446208,note_on,768,0,9,,,,,,,,8,,,38,0
446208,note_on,768,0,8,,,,,,,,7,,,50,0
446352,note_on,192,0,5,,,,,,,,4,,,70,0
446352,note_on,192,0,6,,,,,,,,5,,,67,0
446400,note_on,48,0,5,,,,,,,,4,,,72,80
446400,note_on,480,0,7,,,,,,,,6,,,60,70
446400,note_on,48,0,6,,,,,,,,5,,,69,70
446640,note_on,240,0,6,,,,,,,,5,,,69,0
446640,note_on,0,0,6,,,,,,,,5,,,62,70
446880,note_on,240,0,6,,,,,,,,5,,,62,0
446880,note_on,0,0,6,,,,,,,,5,,,69,70
447120,note_on,0,0,6,,,,,,,,5,,,70,70
447120,note_on,240,0,6,,,,,,,,5,,,69,0
447120,note_on,720,0,5,,,,,,,,4,,,72,0
447120,note_on,720,0,7,,,,,,,,6,,,60,0
447120,note_on,0,0,7,,,,,,,,6,,,62,70
447120,note_on,0,0,5,,,,,,,,4,,,74,80
447312,note_on,192,0,5,,,,,,,,4,,,74,0
447312,note_on,192,0,6,,,,,,,,5,,,70,0
447312,note_on,192,0,7,,,,,,,,6,,,62,0
447360,note_on,1152,0,9,,,,,,,,8,,,43,70
447360,note_on,48,0,5,,,,,,,,4,,,70,80
447360,note_on,48,0,7,,,,,,,,6,,,58,70
447360,note_on,1152,0,8,,,,,,,,7,,,55,70
447360,note_on,48,0,6,,,,,,,,5,,,67,70
447600,note_on,0,0,6,,,,,,,,5,,,62,70
447600,note_on,240,0,6,,,,,,,,5,,,67,0
447840,note_on,240,0,6,,,,,,,,5,,,62,0
447840,note_on,0,0,6,,,,,,,,5,,,67,70
447840,note_on,480,0,7,,,,,,,,6,,,58,0
448080,note_on,0,0,5,,,,,,,,4,,,74,80
448080,note_on,720,0,5,,,,,,,,4,,,70,0
448080,note_on,0,0,6,,,,,,,,5,,,70,70
448080,note_on,240,0,6,,,,,,,,5,,,67,0
448272,note_on,192,0,6,,,,,,,,5,,,70,0
448272,note_on,192,0,5,,,,,,,,4,,,74,0
448320,note_on,48,0,5,,,,,,,,4,,,79,80
448320,note_on,480,0,7,,,,,,,,6,,,67,70
448320,note_on,48,0,6,,,,,,,,5,,,58,70
448560,note_on,240,0,6,,,,,,,,5,,,58,0
448560,note_on,0,0,6,,,,,,,,5,,,62,70
448800,note_on,240,0,6,,,,,,,,5,,,62,0
448800,note_on,0,0,6,,,,,,,,5,,,67,70
449040,note_on,0,0,6,,,,,,,,5,,,62,70
449040,note_on,240,0,6,,,,,,,,5,,,67,0
449040,note_on,0,0,5,,,,,,,,4,,,82,80
449040,note_on,720,0,5,,,,,,,,4,,,79,0
449040,note_on,720,0,7,,,,,,,,6,,,67,0
449040,note_on,0,0,7,,,,,,,,6,,,70,70
449232,note_on,192,0,6,,,,,,,,5,,,62,0
449232,note_on,192,0,7,,,,,,,,6,,,70,0
449232,note_on,192,0,5,,,,,,,,4,,,82,0
449280,note_on,48,0,6,,,,,,,,5,,,60,70
449280,note_on,1920,0,8,,,,,,,,7,,,55,0
449280,note_on,0,0,8,,,,,,,,7,,,50,70
449280,note_on,48,0,7,,,,,,,,6,,,69,70
449280,note_on,48,0,5,,,,,,,,4,,,81,80
449280,note_on,1920,0,9,,,,,,,,8,,,43,0
449280,note_on,0,0,9,,,,,,,,8,,,38,70
449520,note_on,0,0,6,,,,,,,,5,,,62,70
449520,note_on,240,0,6,,,,,,,,5,,,60,0
449760,note_on,240,0,6,,,,,,,,5,,,62,0
449760,note_on,0,0,6,,,,,,,,5,,,66,70
450000,note_on,0,0,5,,,,,,,,4,,,84,80
450000,note_on,0,0,6,,,,,,,,5,,,62,70
450000,note_on,240,0,6,,,,,,,,5,,,66,0
450000,note_on,720,0,5,,,,,,,,4,,,81,0
450000,note_on,720,0,7,,,,,,,,6,,,69,0
450000,note_on,0,0,7,,,,,,,,6,,,72,70
450048,note_on,6528,0,1,,,,,,,,0,,,62,0
450048,note_on,0,0,1,,,,,,,,0,,,74,0
450192,note_on,192,0,6,,,,,,,,5,,,62,0
450192,note_on,192,0,7,,,,,,,,6,,,72,0
450192,note_on,192,0,5,,,,,,,,4,,,84,0
450240,note_on,192,0,1,,,,,,,,0,,,72,58
450240,note_on,48,0,5,,,,,,,,4,,,74,80
450240,note_on,48,0,7,,,,,,,,6,,,62,70
450240,note_on,48,0,6,,,,,,,,5,,,57,70
450240,note_on,0,0,1,,,,,,,,0,,,66,58
450480,note_on,240,0,6,,,,,,,,5,,,57,0
450480,note_on,0,0,6,,,,,,,,5,,,60,70
450720,note_on,0,0,1,,,,,,,,0,,,69,58
450720,note_on,0,0,6,,,,,,,,5,,,62,70
450720,note_on,240,0,6,,,,,,,,5,,,60,0
450720,note_on,480,0,1,,,,,,,,0,,,66,0
450960,note_on,0,0,7,,,,,,,,6,,,66,70
450960,note_on,0,0,6,,,,,,,,5,,,60,70
450960,note_on,720,0,7,,,,,,,,6,,,62,0
450960,note_on,0,0,5,,,,,,,,4,,,78,80
450960,note_on,240,0,6,,,,,,,,5,,,62,0
450960,note_on,720,0,5,,,,,,,,4,,,74,0
451104,note_on,0,0,1,,,,,,,,0,,,72,0
451104,note_on,384,0,1,,,,,,,,0,,,69,0
451104,note_on,1824,0,9,,,,,,,,8,,,38,0
451104,note_on,1824,0,8,,,,,,,,7,,,50,0
451152,note_on,192,0,6,,,,,,,,5,,,60,0
451152,note_on,192,0,7,,,,,,,,6,,,66,0
451152,note_on,192,0,5,,,,,,,,4,,,78,0
451200,note_on,48,0,5,,,,,,,,4,,,79,80
451200,note_on,48,0,7,,,,,,,,6,,,67,70
451200,note_on,0,0,1,,,,,,,,0,,,67,58
451200,note_on,22752,0,2,,,,,,,,1,,,55,105
451200,note_on,96,0,9,,,,,,,,8,,,43,105
451200,note_on,96,0,8,,,,,,,,7,,,55,105
451200,note_on,96,0,1,,,,,,,,0,,,70,58
451200,note_on,22752,0,4,,,,,,,,3,,,67,105
451200,note_on,48,0,6,,,,,,,,5,,,58,70
451392,note_on,192,0,5,,,,,,,,4,,,79,0
451440,note_on,48,0,5,,,,,,,,4,,,86,80
451488,note_on,288,0,6,,,,,,,,5,,,58,0
451512,note_on,312,0,7,,,,,,,,6,,,67,0
451512,note_on,312,0,9,,,,,,,,8,,,43,0
451512,note_on,312,0,8,,,,,,,,7,,,55,0
451512,note_on,312,0,4,,,,,,,,3,,,67,0
451512,note_on,312,0,2,,,,,,,,1,,,55,0
451680,note_on,192,0,6,,,,,,,,5,,,70,105
451680,note_on,168,0,7,,,,,,,,6,,,62,105
451680,note_on,168,0,4,,,,,,,,3,,,62,105
451680,note_on,168,0,8,,,,,,,,7,,,50,105
451680,note_on,168,0,2,,,,,,,,1,,,50,105
451680,note_on,168,0,9,,,,,,,,8,,,38,105
451740,note_on,0,0,6,,,,,,,,5,,,69,105
451740,note_on,60,0,6,,,,,,,,5,,,70,0
451800,note_on,60,0,6,,,,,,,,5,,,69,0
451800,note_on,0,0,6,,,,,,,,5,,,67,105
451824,note_on,384,0,5,,,,,,,,4,,,86,0
451920,note_on,96,0,5,,,,,,,,4,,,86,105
451992,note_on,312,0,9,,,,,,,,8,,,38,0
451992,note_on,312,0,2,,,,,,,,1,,,50,0
451992,note_on,312,0,7,,,,,,,,6,,,62,0
451992,note_on,312,0,8,,,,,,,,7,,,50,0
451992,note_on,312,0,4,,,,,,,,3,,,62,0
452160,note_on,168,0,7,,,,,,,,6,,,70,105
452160,note_on,168,0,2,,,,,,,,1,,,58,105
452160,note_on,168,0,8,,,,,,,,7,,,58,105
452160,note_on,168,0,9,,,,,,,,8,,,46,105
452160,note_on,360,0,6,,,,,,,,5,,,67,0
452160,note_on,23712,0,3,,,,,,,,2,,,70,105
452304,note_on,384,0,5,,,,,,,,4,,,86,0
452400,note_on,96,0,5,,,,,,,,4,,,86,105
452472,note_on,312,0,3,,,,,,,,2,,,70,0
452640,note_on,480,0,6,,,,,,,,5,,,58,105
452700,note_on,0,0,6,,,,,,,,5,,,57,105
452700,note_on,60,0,6,,,,,,,,5,,,58,0
452736,note_on,576,0,2,,,,,,,,1,,,58,0
452736,note_on,576,0,7,,,,,,,,6,,,70,0
452736,note_on,576,0,9,,,,,,,,8,,,46,0
452736,note_on,576,0,8,,,,,,,,7,,,58,0
452760,note_on,0,0,6,,,,,,,,5,,,55,105
452760,note_on,60,0,6,,,,,,,,5,,,57,0
452784,note_on,384,0,5,,,,,,,,4,,,86,0
452880,note_on,888,0,4,,,,,,,,3,,,69,105
452880,note_on,144,0,9,,,,,,,,8,,,45,105
452880,note_on,144,0,7,,,,,,,,6,,,69,105
452880,note_on,144,0,2,,,,,,,,1,,,57,105
452880,note_on,96,0,5,,,,,,,,4,,,86,105
452880,note_on,144,0,8,,,,,,,,7,,,57,105
453036,note_on,156,0,4,,,,,,,,3,,,69,0
453072,note_on,192,0,7,,,,,,,,6,,,69,0
453072,note_on,192,0,9,,,,,,,,8,,,45,0
453072,note_on,192,0,8,,,,,,,,7,,,57,0
453072,note_on,192,0,2,,,,,,,,1,,,57,0
453120,note_on,48,0,7,,,,,,,,6,,,67,105
453120,note_on,360,0,6,,,,,,,,5,,,55,0
453120,note_on,84,0,4,,,,,,,,3,,,67,105
453120,note_on,48,0,2,,,,,,,,1,,,55,105
453120,note_on,48,0,9,,,,,,,,8,,,43,105
453120,note_on,48,0,8,,,,,,,,7,,,55,105
453312,note_on,432,0,5,,,,,,,,4,,,86,0
453360,note_on,48,0,5,,,,,,,,4,,,86,105
453432,note_on,312,0,8,,,,,,,,7,,,55,0
453432,note_on,312,0,4,,,,,,,,3,,,67,0
453432,note_on,312,0,7,,,,,,,,6,,,67,0
453432,note_on,312,0,9,,,,,,,,8,,,43,0
453432,note_on,312,0,2,,,,,,,,1,,,55,0
453600,note_on,168,0,2,,,,,,,,1,,,50,105
453600,note_on,168,0,9,,,,,,,,8,,,38,105
453600,note_on,168,0,8,,,,,,,,7,,,50,105
453600,note_on,168,0,7,,,,,,,,6,,,62,105
453600,note_on,168,0,4,,,,,,,,3,,,62,105
453600,note_on,480,0,6,,,,,,,,5,,,82,105
453660,note_on,60,0,6,,,,,,,,5,,,82,0
453660,note_on,0,0,6,,,,,,,,5,,,81,105
453720,note_on,0,0,6,,,,,,,,5,,,79,105
453720,note_on,60,0,6,,,,,,,,5,,,81,0
453744,note_on,384,0,5,,,,,,,,4,,,86,0
453840,note_on,96,0,5,,,,,,,,4,,,86,105
453888,note_on,2688,0,1,,,,,,,,0,,,70,0
453912,note_on,312,0,7,,,,,,,,6,,,62,0
453912,note_on,312,0,2,,,,,,,,1,,,50,0
453912,note_on,312,0,4,,,,,,,,3,,,62,0
453912,note_on,312,0,9,,,,,,,,8,,,38,0
453912,note_on,312,0,8,,,,,,,,7,,,50,0
454080,note_on,168,0,8,,,,,,,,7,,,58,105
454080,note_on,192,0,1,,,,,,,,0,,,74,105
454080,note_on,168,0,2,,,,,,,,1,,,58,105
454080,note_on,168,0,7,,,,,,,,6,,,70,105
454080,note_on,360,0,6,,,,,,,,5,,,79,0
454080,note_on,168,0,9,,,,,,,,8,,,46,105
454080,note_on,1608,0,3,,,,,,,,2,,,70,105
454224,note_on,384,0,5,,,,,,,,4,,,86,0
454320,note_on,96,0,5,,,,,,,,4,,,86,105
454392,note_on,312,0,3,,,,,,,,2,,,70,0
454392,note_on,312,0,9,,,,,,,,8,,,46,0
454392,note_on,312,0,7,,,,,,,,6,,,70,0
454392,note_on,312,0,8,,,,,,,,7,,,58,0
454392,note_on,312,0,2,,,,,,,,1,,,58,0
454464,note_on,384,0,1,,,,,,,,0,,,67,0
454560,note_on,168,0,9,,,,,,,,8,,,43,105
454560,note_on,168,0,8,,,,,,,,7,,,55,105
454560,note_on,96,0,1,,,,,,,,0,,,70,105
454560,note_on,168,0,7,,,,,,,,6,,,67,105
454560,note_on,648,0,4,,,,,,,,3,,,67,105
454560,note_on,480,0,6,,,,,,,,5,,,70,105
454560,note_on,168,0,2,,,,,,,,1,,,55,105
454620,note_on,0,0,6,,,,,,,,5,,,69,105
454620,note_on,60,0,6,,,,,,,,5,,,70,0
454680,note_on,0,0,6,,,,,,,,5,,,67,105
454680,note_on,60,0,6,,,,,,,,5,,,69,0
454704,note_on,384,0,5,,,,,,,,4,,,86,0
454800,note_on,96,0,5,,,,,,,,4,,,86,105
454872,note_on,312,0,2,,,,,,,,1,,,55,0
454872,note_on,312,0,8,,,,,,,,7,,,55,0
454872,note_on,312,0,9,,,,,,,,8,,,43,0
454872,note_on,312,0,7,,,,,,,,6,,,67,0
454872,note_on,312,0,4,,,,,,,,3,,,67,0
454944,note_on,0,0,1,,,,,,,,0,,,74,0
454944,note_on,384,0,1,,,,,,,,0,,,70,0
455040,note_on,96,0,1,,,,,,,,0,,,72,105
455040,note_on,168,0,9,,,,,,,,8,,,45,105
455040,note_on,360,0,6,,,,,,,,5,,,67,0
455040,note_on,168,0,8,,,,,,,,7,,,57,105
455040,note_on,168,0,7,,,,,,,,6,,,69,105
455040,note_on,168,0,2,,,,,,,,1,,,57,105
455040,note_on,0,0,1,,,,,,,,0,,,74,105
455040,note_on,168,0,4,,,,,,,,3,,,69,105
455232,note_on,432,0,5,,,,,,,,4,,,86,0
455280,note_on,48,0,5,,,,,,,,4,,,86,105
455352,note_on,312,0,4,,,,,,,,3,,,69,0
455352,note_on,312,0,9,,,,,,,,8,,,45,0
455352,note_on,312,0,8,,,,,,,,7,,,57,0
455352,note_on,312,0,7,,,,,,,,6,,,69,0
455352,note_on,312,0,2,,,,,,,,1,,,57,0
455520,note_on,168,0,7,,,,,,,,6,,,62,105
455520,note_on,168,0,4,,,,,,,,3,,,62,105
455520,note_on,480,0,6,,,,,,,,5,,,69,105
455520,note_on,168,0,2,,,,,,,,1,,,50,105
455520,note_on,1128,0,3,,,,,,,,2,,,62,92
455520,note_on,168,0,9,,,,,,,,8,,,38,105
455520,note_on,168,0,8,,,,,,,,7,,,50,105
455580,note_on,0,0,6,,,,,,,,5,,,67,105
455580,note_on,60,0,6,,,,,,,,5,,,69,0
455640,note_on,60,0,6,,,,,,,,5,,,67,0
455640,note_on,0,0,6,,,,,,,,5,,,66,105
455664,note_on,384,0,5,,,,,,,,4,,,86,0
455760,note_on,96,0,5,,,,,,,,4,,,86,105
455832,note_on,312,0,8,,,,,,,,7,,,50,0
455832,note_on,312,0,9,,,,,,,,8,,,38,0
455832,note_on,312,0,4,,,,,,,,3,,,62,0
455832,note_on,312,0,7,,,,,,,,6,,,62,0
455832,note_on,312,0,2,,,,,,,,1,,,50,0
455832,note_on,312,0,3,,,,,,,,2,,,62,0
456000,note_on,168,0,4,,,,,,,,3,,,72,105
456000,note_on,168,0,8,,,,,,,,7,,,60,105
456000,note_on,168,0,2,,,,,,,,1,,,60,105
456000,note_on,168,0,9,,,,,,,,8,,,48,105
456000,note_on,360,0,6,,,,,,,,5,,,66,0
456000,note_on,168,0,3,,,,,,,,2,,,72,92
456000,note_on,168,0,7,,,,,,,,6,,,72,105
456144,note_on,384,0,5,,,,,,,,4,,,86,0
456240,note_on,96,0,5,,,,,,,,4,,,86,105
456312,note_on,312,0,3,,,,,,,,2,,,72,0
456312,note_on,312,0,4,,,,,,,,3,,,72,0
456480,note_on,480,0,6,,,,,,,,5,,,81,105
456540,note_on,60,0,6,,,,,,,,5,,,81,0
456540,note_on,0,0,6,,,,,,,,5,,,79,105
456576,note_on,576,0,8,,,,,,,,7,,,60,0
456576,note_on,576,0,9,,,,,,,,8,,,48,0
456576,note_on,576,0,2,,,,,,,,1,,,60,0
456576,note_on,576,0,7,,,,,,,,6,,,72,0
456600,note_on,0,0,6,,,,,,,,5,,,78,105
456600,note_on,60,0,6,,,,,,,,5,,,79,0
456624,note_on,384,0,5,,,,,,,,4,,,86,0
456720,note_on,144,0,9,,,,,,,,8,,,46,105
456720,note_on,96,0,5,,,,,,,,4,,,86,105
456720,note_on,144,0,7,,,,,,,,6,,,70,105
456720,note_on,144,0,8,,,,,,,,7,,,58,105
456720,note_on,144,0,2,,,,,,,,1,,,58,105
456912,note_on,192,0,7,,,,,,,,6,,,70,0
456912,note_on,192,0,9,,,,,,,,8,,,46,0
456912,note_on,192,0,8,,,,,,,,7,,,58,0
456912,note_on,192,0,2,,,,,,,,1,,,58,0
456960,note_on,48,0,8,,,,,,,,7,,,57,105
456960,note_on,360,0,6,,,,,,,,5,,,78,0
456960,note_on,648,0,4,,,,,,,,3,,,69,105
456960,note_on,48,0,7,,,,,,,,6,,,69,105
456960,note_on,48,0,9,,,,,,,,8,,,45,105
456960,note_on,48,0,2,,,,,,,,1,,,57,105
457152,note_on,432,0,5,,,,,,,,4,,,86,0
457200,note_on,48,0,5,,,,,,,,4,,,86,105
457272,note_on,312,0,4,,,,,,,,3,,,69,0
457272,note_on,312,0,9,,,,,,,,8,,,45,0
457272,note_on,312,0,8,,,,,,,,7,,,57,0
457272,note_on,312,0,2,,,,,,,,1,,,57,0
457272,note_on,312,0,7,,,,,,,,6,,,69,0
457440,note_on,168,0,4,,,,,,,,3,,,62,105
457440,note_on,480,0,6,,,,,,,,5,,,84,105
457440,note_on,168,0,9,,,,,,,,8,,,38,105
457440,note_on,1128,0,3,,,,,,,,2,,,62,92
457440,note_on,168,0,7,,,,,,,,6,,,62,105
457440,note_on,168,0,2,,,,,,,,1,,,50,105
457440,note_on,168,0,8,,,,,,,,7,,,50,105
457500,note_on,0,0,6,,,,,,,,5,,,82,105
457500,note_on,60,0,6,,,,,,,,5,,,84,0
457560,note_on,60,0,6,,,,,,,,5,,,82,0
457560,note_on,0,0,6,,,,,,,,5,,,81,105
457584,note_on,384,0,5,,,,,,,,4,,,86,0
457680,note_on,96,0,5,,,,,,,,4,,,86,105
457752,note_on,312,0,4,,,,,,,,3,,,62,0
457752,note_on,312,0,3,,,,,,,,2,,,62,0
457752,note_on,312,0,9,,,,,,,,8,,,38,0
457752,note_on,312,0,2,,,,,,,,1,,,50,0
457752,note_on,312,0,8,,,,,,,,7,,,50,0
457752,note_on,312,0,7,,,,,,,,6,,,62,0
457920,note_on,360,0,6,,,,,,,,5,,,81,0
457920,note_on,168,0,3,,,,,,,,2,,,72,92
457920,note_on,168,0,2,,,,,,,,1,,,60,105
457920,note_on,168,0,8,,,,,,,,7,,,60,105
457920,note_on,168,0,9,,,,,,,,8,,,48,105
457920,note_on,168,0,7,,,,,,,,6,,,72,105
457920,note_on,168,0,4,,,,,,,,3,,,72,105
458064,note_on,384,0,5,,,,,,,,4,,,86,0
458160,note_on,96,0,5,,,,,,,,4,,,86,105
458232,note_on,312,0,7,,,,,,,,6,,,72,0
458232,note_on,312,0,8,,,,,,,,7,,,60,0
458232,note_on,312,0,9,,,,,,,,8,,,48,0
458232,note_on,312,0,2,,,,,,,,1,,,60,0
458232,note_on,312,0,4,,,,,,,,3,,,72,0
458232,note_on,312,0,3,,,,,,,,2,,,72,0
458400,note_on,168,0,8,,,,,,,,7,,,57,105
458400,note_on,168,0,2,,,,,,,,1,,,57,105
458400,note_on,168,0,4,,,,,,,,3,,,69,105
458400,note_on,480,0,6,,,,,,,,5,,,69,105
458400,note_on,168,0,7,,,,,,,,6,,,69,105
458400,note_on,168,0,9,,,,,,,,8,,,45,105
458460,note_on,0,0,6,,,,,,,,5,,,67,105
458460,note_on,60,0,6,,,,,,,,5,,,69,0
458496,note_on,3456,0,1,,,,,,,,0,,,74,0
458496,note_on,0,0,1,,,,,,,,0,,,72,0
458520,note_on,60,0,6,,,,,,,,5,,,67,0
458520,note_on,0,0,6,,,,,,,,5,,,66,105
458544,note_on,384,0,5,,,,,,,,4,,,86,0
458640,note_on,96,0,5,,,,,,,,4,,,86,105
458712,note_on,312,0,4,,,,,,,,3,,,69,0
458712,note_on,312,0,8,,,,,,,,7,,,57,0
458712,note_on,312,0,7,,,,,,,,6,,,69,0
458712,note_on,312,0,2,,,,,,,,1,,,57,0
458712,note_on,312,0,9,,,,,,,,8,,,45,0
458808,note_on,288,0,6,,,,,,,,5,,,66,0
458880,note_on,168,0,4,,,,,,,,3,,,67,105
458880,note_on,72,0,6,,,,,,,,5,,,67,105
458880,note_on,0,0,1,,,,,,,,0,,,74,105
458880,note_on,384,0,1,,,,,,,,0,,,70,105
458880,note_on,168,0,8,,,,,,,,7,,,55,105
458880,note_on,168,0,9,,,,,,,,8,,,43,105
458880,note_on,168,0,7,,,,,,,,6,,,67,105
458880,note_on,168,0,2,,,,,,,,1,,,55,105
459072,note_on,192,0,6,,,,,,,,5,,,67,0
459072,note_on,432,0,5,,,,,,,,4,,,86,0
459120,note_on,48,0,5,,,,,,,,4,,,79,105
459120,note_on,48,0,6,,,,,,,,5,,,70,105
459240,note_on,360,0,2,,,,,,,,1,,,55,0
459240,note_on,360,0,9,,,,,,,,8,,,43,0
459240,note_on,360,0,7,,,,,,,,6,,,67,0
459240,note_on,360,0,8,,,,,,,,7,,,55,0
459360,note_on,120,0,7,,,,,,,,6,,,70,105
459360,note_on,120,0,8,,,,,,,,7,,,58,105
459360,note_on,120,0,2,,,,,,,,1,,,58,105
459360,note_on,120,0,9,,,,,,,,8,,,46,105
459504,note_on,384,0,5,,,,,,,,4,,,79,0
459504,note_on,384,0,6,,,,,,,,5,,,70,0
459600,note_on,96,0,6,,,,,,,,5,,,70,105
459600,note_on,96,0,5,,,,,,,,4,,,79,105
459630,note_on,270,0,2,,,,,,,,1,,,58,0
459630,note_on,270,0,7,,,,,,,,6,,,70,0
459630,note_on,270,0,8,,,,,,,,7,,,58,0
459630,note_on,270,0,9,,,,,,,,8,,,46,0
459648,note_on,0,0,1,,,,,,,,0,,,70,0
459648,note_on,768,0,4,,,,,,,,3,,,67,0
459648,note_on,768,0,1,,,,,,,,0,,,74,0
459720,note_on,90,0,7,,,,,,,,6,,,67,105
459720,note_on,90,0,8,,,,,,,,7,,,55,105
459720,note_on,90,0,9,,,,,,,,8,,,43,105
459720,note_on,90,0,2,,,,,,,,1,,,55,105
459792,note_on,192,0,5,,,,,,,,4,,,79,0
459792,note_on,192,0,6,,,,,,,,5,,,70,0
459810,note_on,90,0,7,,,,,,,,6,,,67,0
459810,note_on,90,0,9,,,,,,,,8,,,43,0
459810,note_on,90,0,8,,,,,,,,7,,,55,0
459810,note_on,90,0,2,,,,,,,,1,,,55,0
459840,note_on,48,0,5,,,,,,,,4,,,77,105
459840,note_on,30,0,2,,,,,,,,1,,,47,105
459840,note_on,30,0,8,,,,,,,,7,,,47,105
459840,note_on,0,0,1,,,,,,,,0,,,74,105
459840,note_on,30,0,7,,,,,,,,6,,,59,105
459840,note_on,48,0,6,,,,,,,,5,,,74,105
459840,note_on,192,0,1,,,,,,,,0,,,77,105
459840,note_on,192,0,4,,,,,,,,3,,,55,105
459840,note_on,0,0,4,,,,,,,,3,,,67,105
459840,note_on,30,0,9,,,,,,,,8,,,35,105
460032,note_on,192,0,6,,,,,,,,5,,,74,0
460032,note_on,192,0,5,,,,,,,,4,,,77,0
460080,note_on,48,0,6,,,,,,,,5,,,74,105
460080,note_on,48,0,5,,,,,,,,4,,,77,105
460200,note_on,360,0,2,,,,,,,,1,,,47,0
460200,note_on,360,0,8,,,,,,,,7,,,47,0
460200,note_on,360,0,9,,,,,,,,8,,,35,0
460200,note_on,360,0,7,,,,,,,,6,,,59,0
460320,note_on,120,0,2,,,,,,,,1,,,55,105
460320,note_on,120,0,7,,,,,,,,6,,,67,105
460320,note_on,120,0,9,,,,,,,,8,,,43,105
460320,note_on,120,0,8,,,,,,,,7,,,55,105
460464,note_on,384,0,6,,,,,,,,5,,,74,0
460464,note_on,384,0,5,,,,,,,,4,,,77,0
460560,note_on,96,0,6,,,,,,,,5,,,74,105
460560,note_on,96,0,5,,,,,,,,4,,,77,105
460590,note_on,270,0,9,,,,,,,,8,,,43,0
460590,note_on,270,0,2,,,,,,,,1,,,55,0
460590,note_on,270,0,7,,,,,,,,6,,,67,0
460590,note_on,270,0,8,,,,,,,,7,,,55,0
460608,note_on,768,0,4,,,,,,,,3,,,67,0
460608,note_on,768,0,1,,,,,,,,0,,,74,0
460608,note_on,0,0,4,,,,,,,,3,,,55,0
460608,note_on,0,0,1,,,,,,,,0,,,77,0
460680,note_on,90,0,8,,,,,,,,7,,,47,105
460680,note_on,90,0,9,,,,,,,,8,,,35,105
460680,note_on,90,0,7,,,,,,,,6,,,59,105
460680,note_on,90,0,2,,,,,,,,1,,,47,105
460752,note_on,192,0,5,,,,,,,,4,,,77,0
460752,note_on,192,0,6,,,,,,,,5,,,74,0
460770,note_on,90,0,7,,,,,,,,6,,,59,0
460770,note_on,90,0,9,,,,,,,,8,,,35,0
460770,note_on,90,0,2,,,,,,,,1,,,47,0
460770,note_on,90,0,8,,,,,,,,7,,,47,0
460800,note_on,192,0,1,,,,,,,,0,,,75,105
460800,note_on,30,0,2,,,,,,,,1,,,48,105
460800,note_on,0,0,1,,,,,,,,0,,,72,105
460800,note_on,48,0,5,,,,,,,,4,,,75,105
460800,note_on,30,0,7,,,,,,,,6,,,60,105
460800,note_on,48,0,6,,,,,,,,5,,,72,105
460800,note_on,192,0,4,,,,,,,,3,,,67,105
460800,note_on,0,0,4,,,,,,,,3,,,55,105
460800,note_on,30,0,9,,,,,,,,8,,,36,105
460800,note_on,30,0,8,,,,,,,,7,,,48,105
460992,note_on,192,0,5,,,,,,,,4,,,75,0
460992,note_on,192,0,6,,,,,,,,5,,,72,0
461040,note_on,48,0,5,,,,,,,,4,,,75,105
461040,note_on,48,0,6,,,,,,,,5,,,72,105
461160,note_on,360,0,7,,,,,,,,6,,,60,0
461160,note_on,360,0,9,,,,,,,,8,,,36,0
461160,note_on,360,0,2,,,,,,,,1,,,48,0
461160,note_on,360,0,8,,,,,,,,7,,,48,0
461280,note_on,120,0,2,,,,,,,,1,,,55,105
461280,note_on,120,0,9,,,,,,,,8,,,43,105
461280,note_on,120,0,7,,,,,,,,6,,,67,105
461280,note_on,120,0,8,,,,,,,,7,,,55,105
461424,note_on,384,0,5,,,,,,,,4,,,75,0
461424,note_on,384,0,6,,,,,,,,5,,,72,0
461520,note_on,96,0,5,,,,,,,,4,,,75,105
461520,note_on,96,0,6,,,,,,,,5,,,72,105
461550,note_on,270,0,8,,,,,,,,7,,,55,0
461550,note_on,270,0,7,,,,,,,,6,,,67,0
461550,note_on,270,0,2,,,,,,,,1,,,55,0
461550,note_on,270,0,9,,,,,,,,8,,,43,0
461568,note_on,0,0,1,,,,,,,,0,,,75,0
461568,note_on,768,0,1,,,,,,,,0,,,72,0
461640,note_on,90,0,7,,,,,,,,6,,,60,105
461640,note_on,90,0,2,,,,,,,,1,,,48,105
461640,note_on,90,0,9,,,,,,,,8,,,36,105
461640,note_on,90,0,8,,,,,,,,7,,,48,105
461712,note_on,192,0,5,,,,,,,,4,,,75,0
461712,note_on,192,0,6,,,,,,,,5,,,72,0
461730,note_on,90,0,8,,,,,,,,7,,,48,0
461730,note_on,90,0,2,,,,,,,,1,,,48,0
461730,note_on,90,0,7,,,,,,,,6,,,60,0
461730,note_on,90,0,9,,,,,,,,8,,,36,0
461760,note_on,30,0,9,,,,,,,,8,,,39,105
461760,note_on,30,0,7,,,,,,,,6,,,63,105
461760,note_on,30,0,2,,,,,,,,1,,,51,105
461760,note_on,0,0,3,,,,,,,,2,,,70,105
461760,note_on,48,0,5,,,,,,,,4,,,73,105
461760,note_on,3528,0,3,,,,,,,,2,,,58,105
461760,note_on,0,0,1,,,,,,,,0,,,73,105
461760,note_on,48,0,6,,,,,,,,5,,,67,105
461760,note_on,30,0,8,,,,,,,,7,,,51,105
461760,note_on,192,0,1,,,,,,,,0,,,67,105
461952,note_on,192,0,5,,,,,,,,4,,,73,0
461952,note_on,192,0,6,,,,,,,,5,,,67,0
462000,note_on,48,0,5,,,,,,,,4,,,73,105
462000,note_on,48,0,6,,,,,,,,5,,,67,105
462120,note_on,360,0,7,,,,,,,,6,,,63,0
462120,note_on,360,0,2,,,,,,,,1,,,51,0
462120,note_on,360,0,8,,,,,,,,7,,,51,0
462120,note_on,360,0,9,,,,,,,,8,,,39,0
462240,note_on,120,0,8,,,,,,,,7,,,55,105
462240,note_on,120,0,7,,,,,,,,6,,,67,105
462240,note_on,120,0,2,,,,,,,,1,,,55,105
462240,note_on,120,0,9,,,,,,,,8,,,43,105
462336,note_on,1536,0,4,,,,,,,,3,,,55,0
462336,note_on,0,0,4,,,,,,,,3,,,67,0
462384,note_on,384,0,5,,,,,,,,4,,,73,0
462384,note_on,384,0,6,,,,,,,,5,,,67,0
462480,note_on,96,0,5,,,,,,,,4,,,73,105
462480,note_on,96,0,6,,,,,,,,5,,,67,105
462510,note_on,270,0,8,,,,,,,,7,,,55,0
462510,note_on,270,0,7,,,,,,,,6,,,67,0
462510,note_on,270,0,9,,,,,,,,8,,,43,0
462510,note_on,270,0,2,,,,,,,,1,,,55,0
462528,note_on,0,0,3,,,,,,,,2,,,58,0
462528,note_on,0,0,1,,,,,,,,0,,,67,0
462528,note_on,768,0,1,,,,,,,,0,,,73,0
462528,note_on,768,0,3,,,,,,,,2,,,70,0
462600,note_on,90,0,8,,,,,,,,7,,,51,105
462600,note_on,90,0,9,,,,,,,,8,,,39,105
462600,note_on,90,0,2,,,,,,,,1,,,51,105
462600,note_on,90,0,7,,,,,,,,6,,,63,105
462672,note_on,192,0,6,,,,,,,,5,,,67,0
462672,note_on,192,0,5,,,,,,,,4,,,73,0
462690,note_on,90,0,9,,,,,,,,8,,,39,0
462690,note_on,90,0,8,,,,,,,,7,,,51,0
462690,note_on,90,0,7,,,,,,,,6,,,63,0
462690,note_on,90,0,2,,,,,,,,1,,,51,0
462720,note_on,0,0,3,,,,,,,,2,,,62,105
462720,note_on,0,0,4,,,,,,,,3,,,69,105
462720,note_on,30,0,9,,,,,,,,8,,,38,105
462720,note_on,192,0,1,,,,,,,,0,,,74,105
462720,note_on,0,0,1,,,,,,,,0,,,66,105
462720,note_on,30,0,2,,,,,,,,1,,,50,105
462720,note_on,30,0,8,,,,,,,,7,,,50,105
462720,note_on,30,0,7,,,,,,,,6,,,62,105
462720,note_on,48,0,5,,,,,,,,4,,,74,105
462720,note_on,48,0,6,,,,,,,,5,,,69,105
462720,note_on,192,0,3,,,,,,,,2,,,74,105
462720,note_on,384,0,4,,,,,,,,3,,,50,105
462912,note_on,192,0,5,,,,,,,,4,,,74,0
462912,note_on,192,0,6,,,,,,,,5,,,69,0
462960,note_on,48,0,5,,,,,,,,4,,,74,105
462960,note_on,48,0,6,,,,,,,,5,,,69,105
463080,note_on,360,0,7,,,,,,,,6,,,62,0
463080,note_on,360,0,9,,,,,,,,8,,,38,0
463080,note_on,360,0,8,,,,,,,,7,,,50,0
463080,note_on,360,0,2,,,,,,,,1,,,50,0
463200,note_on,120,0,2,,,,,,,,1,,,62,105
463200,note_on,120,0,7,,,,,,,,6,,,74,105
463200,note_on,120,0,9,,,,,,,,8,,,50,105
463200,note_on,120,0,8,,,,,,,,7,,,62,105
463344,note_on,384,0,6,,,,,,,,5,,,69,0
463344,note_on,384,0,5,,,,,,,,4,,,74,0
463440,note_on,96,0,6,,,,,,,,5,,,69,105
463440,note_on,96,0,5,,,,,,,,4,,,74,105
463470,note_on,270,0,9,,,,,,,,8,,,50,0
463470,note_on,270,0,2,,,,,,,,1,,,62,0
463470,note_on,270,0,8,,,,,,,,7,,,62,0
463470,note_on,270,0,7,,,,,,,,6,,,74,0
463560,note_on,90,0,2,,,,,,,,1,,,50,105
463560,note_on,90,0,9,,,,,,,,8,,,38,105
463560,note_on,90,0,8,,,,,,,,7,,,50,105
463560,note_on,90,0,7,,,,,,,,6,,,62,105
463632,note_on,192,0,5,,,,,,,,4,,,74,0
463632,note_on,192,0,6,,,,,,,,5,,,69,0
463650,note_on,90,0,7,,,,,,,,6,,,62,0
463650,note_on,90,0,9,,,,,,,,8,,,38,0
463650,note_on,90,0,8,,,,,,,,7,,,50,0
463650,note_on,90,0,2,,,,,,,,1,,,50,0
463680,note_on,48,0,6,,,,,,,,5,,,69,105
463680,note_on,30,0,9,,,,,,,,8,,,42,105
463680,note_on,0,0,6,,,,,,,,5,,,66,105
463680,note_on,960,0,1,,,,,,,,0,,,66,0
463680,note_on,0,0,1,,,,,,,,0,,,74,0
463680,note_on,30,0,2,,,,,,,,1,,,54,105
463680,note_on,30,0,8,,,,,,,,7,,,54,105
463680,note_on,0,0,1,,,,,,,,0,,,69,105
463680,note_on,0,0,1,,,,,,,,0,,,72,105
463680,note_on,48,0,5,,,,,,,,4,,,72,105
463680,note_on,30,0,7,,,,,,,,6,,,66,105
463872,note_on,192,0,6,,,,,,,,5,,,66,0
463872,note_on,0,0,6,,,,,,,,5,,,69,0
463872,note_on,192,0,5,,,,,,,,4,,,72,0
463920,note_on,48,0,5,,,,,,,,4,,,72,105
463920,note_on,0,0,6,,,,,,,,5,,,69,105
463920,note_on,48,0,6,,,,,,,,5,,,66,105
464040,note_on,360,0,9,,,,,,,,8,,,42,0
464040,note_on,360,0,2,,,,,,,,1,,,54,0
464040,note_on,360,0,8,,,,,,,,7,,,54,0
464040,note_on,360,0,7,,,,,,,,6,,,66,0
464160,note_on,120,0,7,,,,,,,,6,,,69,105
464160,note_on,120,0,2,,,,,,,,1,,,57,105
464160,note_on,120,0,9,,,,,,,,8,,,45,105
464160,note_on,120,0,8,,,,,,,,7,,,57,105
464256,note_on,0,0,4,,,,,,,,3,,,50,0
464256,note_on,1536,0,4,,,,,,,,3,,,69,0
464304,note_on,384,0,5,,,,,,,,4,,,72,0
464304,note_on,0,0,6,,,,,,,,5,,,66,0
464304,note_on,384,0,6,,,,,,,,5,,,69,0
464400,note_on,96,0,6,,,,,,,,5,,,66,105
464400,note_on,0,0,6,,,,,,,,5,,,69,105
464400,note_on,96,0,5,,,,,,,,4,,,72,105
464430,note_on,270,0,9,,,,,,,,8,,,45,0
464430,note_on,270,0,7,,,,,,,,6,,,69,0
464430,note_on,270,0,8,,,,,,,,7,,,57,0
464430,note_on,270,0,2,,,,,,,,1,,,57,0
464448,note_on,0,0,1,,,,,,,,0,,,69,0
464448,note_on,768,0,1,,,,,,,,0,,,72,0
464520,note_on,90,0,9,,,,,,,,8,,,38,105
464520,note_on,90,0,8,,,,,,,,7,,,50,105
464520,note_on,90,0,2,,,,,,,,1,,,50,105
464520,note_on,90,0,7,,,,,,,,6,,,62,105
464592,note_on,192,0,6,,,,,,,,5,,,69,0
464592,note_on,0,0,6,,,,,,,,5,,,66,0
464592,note_on,192,0,5,,,,,,,,4,,,72,0
464610,note_on,90,0,8,,,,,,,,7,,,50,0
464610,note_on,90,0,2,,,,,,,,1,,,50,0
464610,note_on,90,0,9,,,,,,,,8,,,38,0
464610,note_on,90,0,7,,,,,,,,6,,,62,0
464640,note_on,30,0,8,,,,,,,,7,,,55,105
464640,note_on,30,0,7,,,,,,,,6,,,67,105
464640,note_on,384,0,4,,,,,,,,3,,,67,105
464640,note_on,0,0,4,,,,,,,,3,,,55,105
464640,note_on,30,0,9,,,,,,,,8,,,43,105
464640,note_on,30,0,2,,,,,,,,1,,,55,105
464640,note_on,0,0,1,,,,,,,,0,,,70,105
464640,note_on,192,0,1,,,,,,,,0,,,67,105
464640,note_on,48,0,6,,,,,,,,5,,,67,105
464640,note_on,48,0,5,,,,,,,,4,,,70,105
464952,note_on,312,0,5,,,,,,,,4,,,70,0
464952,note_on,312,0,2,,,,,,,,1,,,55,0
464952,note_on,312,0,7,,,,,,,,6,,,67,0
464952,note_on,312,0,6,,,,,,,,5,,,67,0
464952,note_on,0,0,1,,,,,,,,0,,,67,0
464952,note_on,312,0,1,,,,,,,,0,,,70,0
464952,note_on,312,0,9,,,,,,,,8,,,43,0
464952,note_on,312,0,8,,,,,,,,7,,,55,0
465024,note_on,0,0,3,,,,,,,,2,,,74,0
465024,note_on,2304,0,3,,,,,,,,2,,,62,0
465024,note_on,0,0,4,,,,,,,,3,,,67,0
465024,note_on,384,0,4,,,,,,,,3,,,55,0
465120,note_on,0,0,4,,,,,,,,3,,,67,105
465120,note_on,96,0,4,,,,,,,,3,,,55,105
465120,note_on,168,0,9,,,,,,,,8,,,39,105
465120,note_on,168,0,2,,,,,,,,1,,,51,105
465120,note_on,168,0,6,,,,,,,,5,,,70,105
465120,note_on,168,0,7,,,,,,,,6,,,63,105
465120,note_on,0,0,1,,,,,,,,0,,,79,105
465120,note_on,168,0,1,,,,,,,,0,,,70,105
465120,note_on,168,0,8,,,,,,,,7,,,51,105
465120,note_on,168,0,5,,,,,,,,4,,,79,105
465432,note_on,312,0,2,,,,,,,,1,,,51,0
465432,note_on,312,0,9,,,,,,,,8,,,39,0
465432,note_on,0,0,1,,,,,,,,0,,,70,0
465432,note_on,312,0,5,,,,,,,,4,,,79,0
465432,note_on,312,0,1,,,,,,,,0,,,79,0
465432,note_on,312,0,7,,,,,,,,6,,,63,0
465432,note_on,312,0,8,,,,,,,,7,,,51,0
465432,note_on,312,0,6,,,,,,,,5,,,70,0
465600,note_on,168,0,5,,,,,,,,4,,,75,105
465600,note_on,168,0,7,,,,,,,,6,,,60,105
465600,note_on,168,0,6,,,,,,,,5,,,69,105
465600,note_on,168,0,9,,,,,,,,8,,,36,105
465600,note_on,168,0,2,,,,,,,,1,,,48,105
465600,note_on,0,0,1,,,,,,,,0,,,75,105
465600,note_on,168,0,1,,,,,,,,0,,,69,105
465600,note_on,168,0,8,,,,,,,,7,,,48,105
465888,note_on,0,0,4,,,,,,,,3,,,55,0
465888,note_on,768,0,4,,,,,,,,3,,,67,0
465912,note_on,312,0,5,,,,,,,,4,,,75,0
465912,note_on,0,0,1,,,,,,,,0,,,69,0
465912,note_on,312,0,1,,,,,,,,0,,,75,0
465912,note_on,312,0,7,,,,,,,,6,,,60,0
465912,note_on,312,0,9,,,,,,,,8,,,36,0
465912,note_on,312,0,2,,,,,,,,1,,,48,0
465912,note_on,312,0,8,,,,,,,,7,,,48,0
465912,note_on,312,0,6,,,,,,,,5,,,69,0
466080,note_on,1056,0,3,,,,,,,,2,,,62,105
466080,note_on,192,0,4,,,,,,,,3,,,50,105
466080,note_on,168,0,9,,,,,,,,8,,,38,105
466080,note_on,168,0,8,,,,,,,,7,,,50,105
466080,note_on,168,0,1,,,,,,,,0,,,69,105
466080,note_on,0,0,1,,,,,,,,0,,,66,105
466080,note_on,0,0,6,,,,,,,,5,,,60,105
466080,note_on,0,0,4,,,,,,,,3,,,69,105
466080,note_on,168,0,5,,,,,,,,4,,,66,105
466080,note_on,0,0,5,,,,,,,,4,,,57,105
466080,note_on,168,0,2,,,,,,,,1,,,50,105
466080,note_on,168,0,7,,,,,,,,6,,,62,105
466080,note_on,168,0,6,,,,,,,,5,,,62,105
466392,note_on,312,0,2,,,,,,,,1,,,50,0
466392,note_on,0,0,5,,,,,,,,4,,,66,0
466392,note_on,312,0,1,,,,,,,,0,,,66,0
466392,note_on,312,0,5,,,,,,,,4,,,57,0
466392,note_on,312,0,8,,,,,,,,7,,,50,0
466392,note_on,0,0,1,,,,,,,,0,,,69,0
466392,note_on,312,0,7,,,,,,,,6,,,62,0
466392,note_on,312,0,6,,,,,,,,5,,,60,0
466392,note_on,0,0,6,,,,,,,,5,,,62,0
466392,note_on,312,0,9,,,,,,,,8,,,38,0
466464,note_on,384,0,4,,,,,,,,3,,,69,0
466464,note_on,384,0,3,,,,,,,,2,,,62,0
466464,note_on,0,0,4,,,,,,,,3,,,50,0
466560,note_on,168,0,8,,,,,,,,7,,,43,105
466560,note_on,168,0,5,,,,,,,,4,,,67,105
466560,note_on,0,0,5,,,,,,,,4,,,55,105
466560,note_on,168,0,9,,,,,,,,8,,,31,105
466560,note_on,168,0,1,,,,,,,,0,,,67,105
466560,note_on,96,0,3,,,,,,,,2,,,62,105
466560,note_on,168,0,6,,,,,,,,5,,,62,105
466560,note_on,0,0,3,,,,,,,,2,,,58,105
466560,note_on,168,0,2,,,,,,,,1,,,43,105
466560,note_on,0,0,4,,,,,,,,3,,,55,105
466560,note_on,0,0,6,,,,,,,,5,,,58,105
466560,note_on,96,0,4,,,,,,,,3,,,67,105
466560,note_on,168,0,7,,,,,,,,6,,,55,105
466752,note_on,0,0,5,,,,,,,,4,,,67,0
466752,note_on,192,0,5,,,,,,,,4,,,55,0
466752,note_on,0,0,6,,,,,,,,5,,,62,0
466752,note_on,192,0,6,,,,,,,,5,,,58,0
466800,note_on,48,0,6,,,,,,,,5,,,70,105
466800,note_on,48,0,5,,,,,,,,4,,,79,105
466920,note_on,360,0,7,,,,,,,,6,,,55,0
466920,note_on,360,0,9,,,,,,,,8,,,31,0
466920,note_on,360,0,8,,,,,,,,7,,,43,0
466920,note_on,360,0,2,,,,,,,,1,,,43,0
467040,note_on,0,0,1,,,,,,,,0,,,79,105
467040,note_on,480,0,1,,,,,,,,0,,,67,0
467040,note_on,120,0,2,,,,,,,,1,,,55,105
467040,note_on,120,0,9,,,,,,,,8,,,43,105
467040,note_on,0,0,1,,,,,,,,0,,,70,105
467040,note_on,120,0,7,,,,,,,,6,,,67,105
467040,note_on,120,0,8,,,,,,,,7,,,55,105
467184,note_on,384,0,6,,,,,,,,5,,,70,0
467184,note_on,384,0,5,,,,,,,,4,,,79,0
467280,note_on,96,0,6,,,,,,,,5,,,70,105
467280,note_on,96,0,5,,,,,,,,4,,,79,105
467310,note_on,270,0,8,,,,,,,,7,,,55,0
467310,note_on,270,0,7,,,,,,,,6,,,67,0
467310,note_on,270,0,2,,,,,,,,1,,,55,0
467310,note_on,270,0,9,,,,,,,,8,,,43,0
467328,note_on,768,0,3,,,,,,,,2,,,58,0
467328,note_on,0,0,3,,,,,,,,2,,,62,0
467400,note_on,90,0,8,,,,,,,,7,,,43,105
467400,note_on,90,0,9,,,,,,,,8,,,31,105
467400,note_on,90,0,2,,,,,,,,1,,,43,105
467400,note_on,90,0,7,,,,,,,,6,,,55,105
467424,note_on,0,0,1,,,,,,,,0,,,79,0
467424,note_on,384,0,1,,,,,,,,0,,,70,0
467472,note_on,192,0,6,,,,,,,,5,,,70,0
467472,note_on,192,0,5,,,,,,,,4,,,79,0
467490,note_on,90,0,2,,,,,,,,1,,,43,0
467490,note_on,90,0,7,,,,,,,,6,,,55,0
467490,note_on,90,0,8,,,,,,,,7,,,43,0
467490,note_on,90,0,9,,,,,,,,8,,,31,0
467520,note_on,96,0,1,,,,,,,,0,,,77,105
467520,note_on,48,0,5,,,,,,,,4,,,77,105
467520,note_on,30,0,7,,,,,,,,6,,,59,105
467520,note_on,30,0,2,,,,,,,,1,,,47,105
467520,note_on,48,0,6,,,,,,,,5,,,74,105
467520,note_on,0,0,1,,,,,,,,0,,,74,105
467520,note_on,30,0,8,,,,,,,,7,,,47,105
467520,note_on,30,0,9,,,,,,,,8,,,35,105
467712,note_on,192,0,5,,,,,,,,4,,,77,0
467712,note_on,192,0,6,,,,,,,,5,,,74,0
467760,note_on,48,0,5,,,,,,,,4,,,77,105
467760,note_on,48,0,6,,,,,,,,5,,,74,105
467880,note_on,360,0,9,,,,,,,,8,,,35,0
467880,note_on,360,0,8,,,,,,,,7,,,47,0
467880,note_on,360,0,2,,,,,,,,1,,,47,0
467880,note_on,360,0,7,,,,,,,,6,,,59,0
468000,note_on,120,0,8,,,,,,,,7,,,55,105
468000,note_on,120,0,2,,,,,,,,1,,,55,105
468000,note_on,120,0,7,,,,,,,,6,,,67,105
468000,note_on,120,0,9,,,,,,,,8,,,43,105
468144,note_on,384,0,6,,,,,,,,5,,,74,0
468144,note_on,384,0,5,,,,,,,,4,,,77,0
468240,note_on,96,0,6,,,,,,,,5,,,74,105
468240,note_on,96,0,5,,,,,,,,4,,,77,105
468270,note_on,270,0,9,,,,,,,,8,,,43,0
468270,note_on,270,0,7,,,,,,,,6,,,67,0
468270,note_on,270,0,2,,,,,,,,1,,,55,0
468270,note_on,270,0,8,,,,,,,,7,,,55,0
468288,note_on,768,0,1,,,,,,,,0,,,74,0
468288,note_on,0,0,1,,,,,,,,0,,,77,0
468360,note_on,90,0,8,,,,,,,,7,,,47,105
468360,note_on,90,0,9,,,,,,,,8,,,35,105
468360,note_on,90,0,2,,,,,,,,1,,,47,105
468360,note_on,90,0,7,,,,,,,,6,,,59,105
468432,note_on,192,0,5,,,,,,,,4,,,77,0
468432,note_on,192,0,6,,,,,,,,5,,,74,0
468450,note_on,90,0,9,,,,,,,,8,,,35,0
468450,note_on,90,0,8,,,,,,,,7,,,47,0
468450,note_on,90,0,2,,,,,,,,1,,,47,0
468450,note_on,90,0,7,,,,,,,,6,,,59,0
468480,note_on,30,0,8,,,,,,,,7,,,48,105
468480,note_on,30,0,9,,,,,,,,8,,,36,105
468480,note_on,30,0,7,,,,,,,,6,,,60,105
468480,note_on,192,0,1,,,,,,,,0,,,75,105
468480,note_on,48,0,5,,,,,,,,4,,,75,105
468480,note_on,30,0,2,,,,,,,,1,,,48,105
468480,note_on,0,0,1,,,,,,,,0,,,72,105
468480,note_on,48,0,6,,,,,,,,5,,,72,105
468672,note_on,192,0,5,,,,,,,,4,,,75,0
468672,note_on,192,0,6,,,,,,,,5,,,72,0
468720,note_on,48,0,5,,,,,,,,4,,,75,105
468720,note_on,48,0,6,,,,,,,,5,,,72,105
468840,note_on,360,0,8,,,,,,,,7,,,48,0
468840,note_on,360,0,7,,,,,,,,6,,,60,0
468840,note_on,360,0,9,,,,,,,,8,,,36,0
468840,note_on,360,0,2,,,,,,,,1,,,48,0
468960,note_on,120,0,9,,,,,,,,8,,,43,105
468960,note_on,120,0,7,,,,,,,,6,,,67,105
468960,note_on,120,0,2,,,,,,,,1,,,55,105
468960,note_on,120,0,8,,,,,,,,7,,,55,105
469104,note_on,384,0,6,,,,,,,,5,,,72,0
469104,note_on,384,0,5,,,,,,,,4,,,75,0
469200,note_on,96,0,5,,,,,,,,4,,,75,105
469200,note_on,96,0,6,,,,,,,,5,,,72,105
469230,note_on,270,0,9,,,,,,,,8,,,43,0
469230,note_on,270,0,2,,,,,,,,1,,,55,0
469230,note_on,270,0,8,,,,,,,,7,,,55,0
469230,note_on,270,0,7,,,,,,,,6,,,67,0
469248,note_on,768,0,1,,,,,,,,0,,,72,0
469248,note_on,0,0,1,,,,,,,,0,,,75,0
469320,note_on,90,0,2,,,,,,,,1,,,48,105
469320,note_on,90,0,8,,,,,,,,7,,,48,105
469320,note_on,90,0,7,,,,,,,,6,,,60,105
469320,note_on,90,0,9,,,,,,,,8,,,36,105
469392,note_on,192,0,5,,,,,,,,4,,,75,0
469392,note_on,192,0,6,,,,,,,,5,,,72,0
469410,note_on,90,0,9,,,,,,,,8,,,36,0
469410,note_on,90,0,8,,,,,,,,7,,,48,0
469410,note_on,90,0,2,,,,,,,,1,,,48,0
469410,note_on,90,0,7,,,,,,,,6,,,60,0
469440,note_on,30,0,8,,,,,,,,7,,,52,105
469440,note_on,30,0,2,,,,,,,,1,,,52,105
469440,note_on,48,0,6,,,,,,,,5,,,67,105
469440,note_on,2112,0,3,,,,,,,,2,,,70,105
469440,note_on,30,0,9,,,,,,,,8,,,40,105
469440,note_on,0,0,3,,,,,,,,2,,,58,105
469440,note_on,0,0,1,,,,,,,,0,,,73,105
469440,note_on,192,0,1,,,,,,,,0,,,67,105
469440,note_on,48,0,5,,,,,,,,4,,,73,105
469440,note_on,30,0,7,,,,,,,,6,,,64,105
469632,note_on,192,0,6,,,,,,,,5,,,67,0
469632,note_on,192,0,5,,,,,,,,4,,,73,0
469680,note_on,48,0,5,,,,,,,,4,,,73,105
469680,note_on,48,0,6,,,,,,,,5,,,67,105
469800,note_on,360,0,9,,,,,,,,8,,,40,0
469800,note_on,360,0,7,,,,,,,,6,,,64,0
469800,note_on,360,0,8,,,,,,,,7,,,52,0
469800,note_on,360,0,2,,,,,,,,1,,,52,0
469920,note_on,120,0,2,,,,,,,,1,,,55,105
469920,note_on,120,0,7,,,,,,,,6,,,67,105
469920,note_on,120,0,8,,,,,,,,7,,,55,105
469920,note_on,120,0,9,,,,,,,,8,,,43,105
470016,note_on,3456,0,4,,,,,,,,3,,,55,0
470016,note_on,0,0,4,,,,,,,,3,,,67,0
470064,note_on,384,0,5,,,,,,,,4,,,73,0
470064,note_on,384,0,6,,,,,,,,5,,,67,0
470160,note_on,96,0,5,,,,,,,,4,,,73,105
470160,note_on,96,0,6,,,,,,,,5,,,67,105
470190,note_on,270,0,7,,,,,,,,6,,,67,0
470190,note_on,270,0,9,,,,,,,,8,,,43,0
470190,note_on,270,0,2,,,,,,,,1,,,55,0
470190,note_on,270,0,8,,,,,,,,7,,,55,0
470208,note_on,0,0,1,,,,,,,,0,,,67,0
470208,note_on,768,0,1,,,,,,,,0,,,73,0
470208,note_on,0,0,3,,,,,,,,2,,,70,0
470208,note_on,768,0,3,,,,,,,,2,,,58,0
470280,note_on,90,0,9,,,,,,,,8,,,40,105
470280,note_on,90,0,7,,,,,,,,6,,,64,105
470280,note_on,90,0,2,,,,,,,,1,,,52,105
470280,note_on,90,0,8,,,,,,,,7,,,52,105
470352,note_on,192,0,6,,,,,,,,5,,,67,0
470352,note_on,192,0,5,,,,,,,,4,,,73,0
470370,note_on,90,0,9,,,,,,,,8,,,40,0
470370,note_on,90,0,2,,,,,,,,1,,,52,0
470370,note_on,90,0,7,,,,,,,,6,,,64,0
470370,note_on,90,0,8,,,,,,,,7,,,52,0
470400,note_on,30,0,9,,,,,,,,8,,,42,105
470400,note_on,30,0,2,,,,,,,,1,,,54,105
470400,note_on,0,0,3,,,,,,,,2,,,74,105
470400,note_on,192,0,3,,,,,,,,2,,,62,105
470400,note_on,384,0,4,,,,,,,,3,,,69,105
470400,note_on,0,0,4,,,,,,,,3,,,50,105
470400,note_on,30,0,8,,,,,,,,7,,,54,105
470400,note_on,48,0,6,,,,,,,,5,,,69,105
470400,note_on,30,0,7,,,,,,,,6,,,66,105
470400,note_on,192,0,1,,,,,,,,0,,,74,105
470400,note_on,48,0,5,,,,,,,,4,,,74,105
470400,note_on,0,0,1,,,,,,,,0,,,69,105
470592,note_on,192,0,6,,,,,,,,5,,,69,0
470592,note_on,192,0,5,,,,,,,,4,,,74,0
470640,note_on,48,0,6,,,,,,,,5,,,69,105
470640,note_on,48,0,5,,,,,,,,4,,,74,105
470760,note_on,360,0,7,,,,,,,,6,,,66,0
470760,note_on,360,0,2,,,,,,,,1,,,54,0
470760,note_on,360,0,9,,,,,,,,8,,,42,0
470760,note_on,360,0,8,,,,,,,,7,,,54,0
470880,note_on,120,0,2,,,,,,,,1,,,57,105
470880,note_on,120,0,8,,,,,,,,7,,,57,105
470880,note_on,120,0,7,,,,,,,,6,,,69,105
470880,note_on,120,0,9,,,,,,,,8,,,45,105
471024,note_on,384,0,6,,,,,,,,5,,,69,0
471024,note_on,384,0,5,,,,,,,,4,,,74,0
471120,note_on,96,0,6,,,,,,,,5,,,69,105
471120,note_on,96,0,5,,,,,,,,4,,,74,105
471150,note_on,270,0,8,,,,,,,,7,,,57,0
471150,note_on,270,0,2,,,,,,,,1,,,57,0
471150,note_on,270,0,9,,,,,,,,8,,,45,0
471150,note_on,270,0,7,,,,,,,,6,,,69,0
471168,note_on,768,0,1,,,,,,,,0,,,69,0
471168,note_on,0,0,1,,,,,,,,0,,,74,0
471168,note_on,768,0,3,,,,,,,,2,,,74,0
471240,note_on,90,0,7,,,,,,,,6,,,66,105
471240,note_on,90,0,2,,,,,,,,1,,,54,105
471240,note_on,90,0,8,,,,,,,,7,,,54,105
471240,note_on,90,0,9,,,,,,,,8,,,42,105
471312,note_on,192,0,5,,,,,,,,4,,,74,0
471312,note_on,192,0,6,,,,,,,,5,,,69,0
471330,note_on,90,0,2,,,,,,,,1,,,54,0
471330,note_on,90,0,9,,,,,,,,8,,,42,0
471330,note_on,90,0,7,,,,,,,,6,,,66,0
471330,note_on,90,0,8,,,,,,,,7,,,54,0
471360,note_on,48,0,5,,,,,,,,4,,,84,105
471360,note_on,30,0,7,,,,,,,,6,,,62,105
471360,note_on,30,0,8,,,,,,,,7,,,50,105
471360,note_on,0,0,6,,,,,,,,5,,,69,105
471360,note_on,0,0,1,,,,,,,,0,,,78,105
471360,note_on,30,0,9,,,,,,,,8,,,38,105
471360,note_on,192,0,3,,,,,,,,2,,,72,105
471360,note_on,30,0,2,,,,,,,,1,,,50,105
471360,note_on,48,0,6,,,,,,,,5,,,66,105
471360,note_on,192,0,1,,,,,,,,0,,,84,105
471552,note_on,192,0,6,,,,,,,,5,,,69,0
471552,note_on,192,0,5,,,,,,,,4,,,84,0
471552,note_on,0,0,6,,,,,,,,5,,,66,0
471600,note_on,48,0,5,,,,,,,,4,,,84,105
471600,note_on,0,0,6,,,,,,,,5,,,66,105
471600,note_on,48,0,6,,,,,,,,5,,,69,105
471720,note_on,360,0,9,,,,,,,,8,,,38,0
471720,note_on,360,0,2,,,,,,,,1,,,50,0
471720,note_on,360,0,7,,,,,,,,6,,,62,0
471720,note_on,360,0,8,,,,,,,,7,,,50,0
471840,note_on,120,0,2,,,,,,,,1,,,54,105
471840,note_on,120,0,7,,,,,,,,6,,,66,105
471840,note_on,120,0,9,,,,,,,,8,,,42,105
471840,note_on,120,0,8,,,,,,,,7,,,54,105
471936,note_on,1536,0,4,,,,,,,,3,,,50,0
471936,note_on,0,0,4,,,,,,,,3,,,69,0
471984,note_on,384,0,5,,,,,,,,4,,,84,0
471984,note_on,384,0,6,,,,,,,,5,,,66,0
471984,note_on,0,0,6,,,,,,,,5,,,69,0
472080,note_on,96,0,5,,,,,,,,4,,,84,105
472080,note_on,96,0,6,,,,,,,,5,,,69,105
472080,note_on,0,0,6,,,,,,,,5,,,66,105
472110,note_on,270,0,2,,,,,,,,1,,,54,0
472110,note_on,270,0,7,,,,,,,,6,,,66,0
472110,note_on,270,0,9,,,,,,,,8,,,42,0
472110,note_on,270,0,8,,,,,,,,7,,,54,0
472128,note_on,0,0,1,,,,,,,,0,,,84,0
472128,note_on,768,0,3,,,,,,,,2,,,72,0
472128,note_on,768,0,1,,,,,,,,0,,,78,0
472128,note_on,0,0,3,,,,,,,,2,,,62,0
472200,note_on,90,0,9,,,,,,,,8,,,38,105
472200,note_on,90,0,2,,,,,,,,1,,,50,105
472200,note_on,90,0,7,,,,,,,,6,,,62,105
472200,note_on,90,0,8,,,,,,,,7,,,50,105
472272,note_on,192,0,5,,,,,,,,4,,,84,0
472272,note_on,0,0,6,,,,,,,,5,,,69,0
472272,note_on,192,0,6,,,,,,,,5,,,66,0
472290,note_on,90,0,8,,,,,,,,7,,,50,0
472290,note_on,90,0,7,,,,,,,,6,,,62,0
472290,note_on,90,0,2,,,,,,,,1,,,50,0
472290,note_on,90,0,9,,,,,,,,8,,,38,0
472320,note_on,192,0,3,,,,,,,,2,,,70,105
472320,note_on,384,0,4,,,,,,,,3,,,55,105
472320,note_on,0,0,4,,,,,,,,3,,,67,105
472320,note_on,30,0,9,,,,,,,,8,,,39,105
472320,note_on,30,0,7,,,,,,,,6,,,63,105
472320,note_on,48,0,5,,,,,,,,4,,,82,105
472320,note_on,48,0,6,,,,,,,,5,,,67,105
472320,note_on,30,0,8,,,,,,,,7,,,51,105
472320,note_on,30,0,2,,,,,,,,1,,,51,105
472320,note_on,192,0,1,,,,,,,,0,,,82,105
472320,note_on,0,0,1,,,,,,,,0,,,79,105
472608,note_on,288,0,6,,,,,,,,5,,,67,0
472608,note_on,288,0,9,,,,,,,,8,,,39,0
472608,note_on,288,0,2,,,,,,,,1,,,51,0
472608,note_on,288,0,5,,,,,,,,4,,,82,0
472608,note_on,288,0,7,,,,,,,,6,,,63,0
472608,note_on,288,0,8,,,,,,,,7,,,51,0
472632,note_on,0,0,4,,,,,,,,3,,,55,0
472632,note_on,0,0,1,,,,,,,,0,,,82,0
472632,note_on,312,0,1,,,,,,,,0,,,79,0
472632,note_on,312,0,4,,,,,,,,3,,,67,0
472704,note_on,384,0,3,,,,,,,,2,,,70,0
472800,note_on,192,0,2,,,,,,,,1,,,46,105
472800,note_on,0,0,1,,,,,,,,0,,,70,105
472800,note_on,168,0,1,,,,,,,,0,,,79,105
472800,note_on,192,0,9,,,,,,,,8,,,34,105
472800,note_on,192,0,6,,,,,,,,5,,,79,105
472800,note_on,192,0,8,,,,,,,,7,,,46,105
472800,note_on,0,0,4,,,,,,,,3,,,67,105
472800,note_on,192,0,5,,,,,,,,4,,,86,105
472800,note_on,192,0,7,,,,,,,,6,,,58,105
472800,note_on,168,0,4,,,,,,,,3,,,55,105
473088,note_on,288,0,9,,,,,,,,8,,,34,0
473088,note_on,288,0,5,,,,,,,,4,,,86,0
473088,note_on,288,0,2,,,,,,,,1,,,46,0
473088,note_on,288,0,6,,,,,,,,5,,,79,0
473088,note_on,288,0,7,,,,,,,,6,,,58,0
473088,note_on,288,0,8,,,,,,,,7,,,46,0
473280,note_on,192,0,7,,,,,,,,6,,,60,105
473280,note_on,192,0,9,,,,,,,,8,,,36,105
473280,note_on,192,0,2,,,,,,,,1,,,48,105
473280,note_on,0,0,1,,,,,,,,0,,,69,105
473280,note_on,192,0,6,,,,,,,,5,,,79,105
473280,note_on,192,0,8,,,,,,,,7,,,48,105
473280,note_on,192,0,5,,,,,,,,4,,,87,105
473280,note_on,480,0,1,,,,,,,,0,,,70,0
473568,note_on,768,0,4,,,,,,,,3,,,67,0
473568,note_on,288,0,2,,,,,,,,1,,,48,0
473568,note_on,288,0,6,,,,,,,,5,,,79,0
473568,note_on,288,0,9,,,,,,,,8,,,36,0
473568,note_on,288,0,5,,,,,,,,4,,,87,0
473568,note_on,288,0,7,,,,,,,,6,,,60,0
473568,note_on,288,0,8,,,,,,,,7,,,48,0
473568,note_on,0,0,4,,,,,,,,3,,,55,0
473664,note_on,0,0,1,,,,,,,,0,,,79,0
473664,note_on,384,0,1,,,,,,,,0,,,69,0
473760,note_on,192,0,5,,,,,,,,4,,,62,105
473760,note_on,0,0,5,,,,,,,,4,,,78,105
473760,note_on,192,0,7,,,,,,,,6,,,62,105
473760,note_on,1056,0,3,,,,,,,,2,,,62,105
473760,note_on,192,0,2,,,,,,,,1,,,50,105
473760,note_on,0,0,6,,,,,,,,5,,,72,105
473760,note_on,0,0,5,,,,,,,,4,,,69,105
473760,note_on,192,0,6,,,,,,,,5,,,62,105
473760,note_on,192,0,8,,,,,,,,7,,,50,105
473760,note_on,0,0,1,,,,,,,,0,,,72,105
473760,note_on,192,0,9,,,,,,,,8,,,38,105
473760,note_on,96,0,1,,,,,,,,0,,,78,105
473760,note_on,192,0,4,,,,,,,,3,,,50,105
473760,note_on,0,0,4,,,,,,,,3,,,69,105
474048,note_on,288,0,5,,,,,,,,4,,,78,0
474048,note_on,288,0,7,,,,,,,,6,,,62,0
474048,note_on,288,0,9,,,,,,,,8,,,38,0
474048,note_on,0,0,5,,,,,,,,4,,,69,0
474048,note_on,0,0,5,,,,,,,,4,,,62,0
474048,note_on,0,0,6,,,,,,,,5,,,62,0
474048,note_on,288,0,8,,,,,,,,7,,,50,0
474048,note_on,288,0,6,,,,,,,,5,,,72,0
474048,note_on,288,0,2,,,,,,,,1,,,50,0
474072,note_on,312,0,1,,,,,,,,0,,,72,0
474072,note_on,0,0,1,,,,,,,,0,,,78,0
474072,note_on,312,0,4,,,,,,,,3,,,69,0
474072,note_on,0,0,4,,,,,,,,3,,,50,0
474144,note_on,384,0,3,,,,,,,,2,,,62,0
474240,note_on,0,0,3,,,,,,,,2,,,58,105
474240,note_on,168,0,4,,,,,,,,3,,,67,105
474240,note_on,0,0,6,,,,,,,,5,,,62,105
474240,note_on,0,0,6,,,,,,,,5,,,55,105
474240,note_on,96,0,3,,,,,,,,2,,,62,105
474240,note_on,192,0,6,,,,,,,,5,,,70,105
474240,note_on,192,0,7,,,,,,,,6,,,55,105
474240,note_on,192,0,2,,,,,,,,1,,,43,105
474240,note_on,192,0,8,,,,,,,,7,,,43,105
474240,note_on,0,0,4,,,,,,,,3,,,55,105
474240,note_on,192,0,9,,,,,,,,8,,,31,105
474240,note_on,192,0,5,,,,,,,,4,,,62,105
474240,note_on,0,0,5,,,,,,,,4,,,79,105
474240,note_on,0,0,1,,,,,,,,0,,,79,105
474240,note_on,168,0,1,,,,,,,,0,,,70,105
474240,note_on,0,0,5,,,,,,,,4,,,70,105
474528,note_on,288,0,7,,,,,,,,6,,,55,0
474528,note_on,288,0,2,,,,,,,,1,,,43,0
474528,note_on,288,0,9,,,,,,,,8,,,31,0
474528,note_on,0,0,5,,,,,,,,4,,,79,0
474528,note_on,288,0,8,,,,,,,,7,,,43,0
474528,note_on,288,0,6,,,,,,,,5,,,55,0
474528,note_on,288,0,5,,,,,,,,4,,,70,0
474528,note_on,0,0,6,,,,,,,,5,,,70,0
474528,note_on,0,0,6,,,,,,,,5,,,62,0
474528,note_on,0,0,5,,,,,,,,4,,,62,0
474624,note_on,0,0,4,,,,,,,,3,,,67,0
474624,note_on,384,0,3,,,,,,,,2,,,58,0
474624,note_on,384,0,1,,,,,,,,0,,,79,0
474624,note_on,0,0,3,,,,,,,,2,,,62,0
474624,note_on,0,0,1,,,,,,,,0,,,70,0
474624,note_on,384,0,4,,,,,,,,3,,,55,0
474720,note_on,192,0,5,,,,,,,,4,,,55,105
474720,note_on,192,0,8,,,,,,,,7,,,43,105
474720,note_on,192,0,2,,,,,,,,1,,,43,105
474720,note_on,192,0,9,,,,,,,,8,,,31,105
474720,note_on,192,0,7,,,,,,,,6,,,55,105
474720,note_on,192,0,6,,,,,,,,5,,,55,105
475008,note_on,288,0,6,,,,,,,,5,,,55,0
475008,note_on,288,0,9,,,,,,,,8,,,31,0
475008,note_on,288,0,7,,,,,,,,6,,,55,0
475008,note_on,288,0,5,,,,,,,,4,,,55,0
475008,note_on,288,0,8,,,,,,,,7,,,43,0
475008,note_on,288,0,2,,,,,,,,1,,,43,0
475200,note_on,192,0,5,,,,,,,,4,,,70,105
475200,note_on,192,0,9,,,,,,,,8,,,46,105
475200,note_on,192,0,6,,,,,,,,5,,,70,105
475200,note_on,192,0,7,,,,,,,,6,,,70,92
475200,note_on,576,0,1,,,,,,,,0,,,70,105
475200,note_on,192,0,2,,,,,,,,1,,,58,105
475200,note_on,192,0,8,,,,,,,,7,,,58,105
475776,note_on,576,0,6,,,,,,,,5,,,70,0
475776,note_on,576,0,5,,,,,,,,4,,,70,0
475776,note_on,576,0,8,,,,,,,,7,,,58,0
475776,note_on,576,0,7,,,,,,,,6,,,70,0
475776,note_on,576,0,1,,,,,,,,0,,,70,0
475776,note_on,576,0,2,,,,,,,,1,,,58,0
475776,note_on,576,0,9,,,,,,,,8,,,46,0
475920,note_on,144,0,7,,,,,,,,6,,,69,92
475920,note_on,144,0,8,,,,,,,,7,,,57,105
475920,note_on,144,0,9,,,,,,,,8,,,45,105
475920,note_on,144,0,6,,,,,,,,5,,,69,92
475920,note_on,144,0,2,,,,,,,,1,,,57,105
475920,note_on,144,0,5,,,,,,,,4,,,69,105
475920,note_on,144,0,1,,,,,,,,0,,,69,105
476112,note_on,192,0,9,,,,,,,,8,,,45,0
476112,note_on,192,0,1,,,,,,,,0,,,69,0
476112,note_on,192,0,8,,,,,,,,7,,,57,0
476112,note_on,192,0,7,,,,,,,,6,,,69,0
476112,note_on,192,0,6,,,,,,,,5,,,69,0
476112,note_on,192,0,5,,,,,,,,4,,,69,0
476112,note_on,192,0,2,,,,,,,,1,,,57,0
476160,note_on,48,0,1,,,,,,,,0,,,67,105
476160,note_on,48,0,2,,,,,,,,1,,,55,105
476160,note_on,48,0,6,,,,,,,,5,,,67,92
476160,note_on,48,0,5,,,,,,,,4,,,67,105
476160,note_on,48,0,8,,,,,,,,7,,,55,105
476160,note_on,48,0,9,,,,,,,,8,,,43,105
476160,note_on,48,0,7,,,,,,,,6,,,67,92
476736,note_on,576,0,6,,,,,,,,5,,,67,0
476736,note_on,576,0,7,,,,,,,,6,,,67,0
476736,note_on,576,0,9,,,,,,,,8,,,43,0
476736,note_on,576,0,1,,,,,,,,0,,,67,0
476736,note_on,576,0,2,,,,,,,,1,,,55,0
476736,note_on,576,0,5,,,,,,,,4,,,67,0
476736,note_on,576,0,8,,,,,,,,7,,,55,0
476880,note_on,144,0,6,,,,,,,,5,,,65,92
476880,note_on,144,0,7,,,,,,,,6,,,65,92
476880,note_on,144,0,5,,,,,,,,4,,,65,105
476880,note_on,144,0,2,,,,,,,,1,,,53,105
476880,note_on,144,0,9,,,,,,,,8,,,41,105
476880,note_on,144,0,1,,,,,,,,0,,,65,105
476880,note_on,144,0,8,,,,,,,,7,,,53,105
477072,note_on,192,0,8,,,,,,,,7,,,53,0
477072,note_on,192,0,7,,,,,,,,6,,,65,0
477072,note_on,192,0,5,,,,,,,,4,,,65,0
477072,note_on,192,0,1,,,,,,,,0,,,65,0
477072,note_on,192,0,9,,,,,,,,8,,,41,0
477072,note_on,192,0,6,,,,,,,,5,,,65,0
477072,note_on,192,0,2,,,,,,,,1,,,53,0
477120,note_on,48,0,1,,,,,,,,0,,,63,105
477120,note_on,48,0,9,,,,,,,,8,,,39,105
477120,note_on,48,0,6,,,,,,,,5,,,63,92
477120,note_on,48,0,7,,,,,,,,6,,,63,92
477120,note_on,48,0,5,,,,,,,,4,,,63,105
477120,note_on,48,0,8,,,,,,,,7,,,51,105
477120,note_on,48,0,2,,,,,,,,1,,,51,105
477696,note_on,576,0,6,,,,,,,,5,,,63,0
477696,note_on,576,0,1,,,,,,,,0,,,63,0
477696,note_on,576,0,7,,,,,,,,6,,,63,0
477696,note_on,576,0,8,,,,,,,,7,,,51,0
477696,note_on,576,0,9,,,,,,,,8,,,39,0
477696,note_on,576,0,5,,,,,,,,4,,,63,0
477696,note_on,576,0,2,,,,,,,,1,,,51,0
477840,note_on,144,0,8,,,,,,,,7,,,50,105
477840,note_on,144,0,1,,,,,,,,0,,,62,105
477840,note_on,144,0,5,,,,,,,,4,,,62,105
477840,note_on,144,0,6,,,,,,,,5,,,62,92
477840,note_on,144,0,9,,,,,,,,8,,,38,105
477840,note_on,144,0,7,,,,,,,,6,,,62,92
477840,note_on,144,0,2,,,,,,,,1,,,50,105
478032,note_on,192,0,5,,,,,,,,4,,,62,0
478032,note_on,192,0,9,,,,,,,,8,,,38,0
478032,note_on,192,0,6,,,,,,,,5,,,62,0
478032,note_on,192,0,2,,,,,,,,1,,,50,0
478032,note_on,192,0,8,,,,,,,,7,,,50,0
478032,note_on,192,0,7,,,,,,,,6,,,62,0
478032,note_on,192,0,1,,,,,,,,0,,,62,0
478080,note_on,48,0,6,,,,,,,,5,,,60,92
478080,note_on,48,0,5,,,,,,,,4,,,60,105
478080,note_on,48,0,2,,,,,,,,1,,,48,105
478080,note_on,48,0,7,,,,,,,,6,,,60,92
478080,note_on,48,0,8,,,,,,,,7,,,48,105
478080,note_on,48,0,9,,,,,,,,8,,,36,105
478080,note_on,48,0,1,,,,,,,,0,,,60,105
478440,note_on,360,0,9,,,,,,,,8,,,36,0
478440,note_on,360,0,7,,,,,,,,6,,,60,0
478440,note_on,360,0,1,,,,,,,,0,,,60,0
478440,note_on,360,0,8,,,,,,,,7,,,48,0
478440,note_on,360,0,5,,,,,,,,4,,,60,0
478440,note_on,360,0,6,,,,,,,,5,,,60,0
478440,note_on,360,0,2,,,,,,,,1,,,48,0
478560,note_on,120,0,5,,,,,,,,4,,,66,105
478560,note_on,120,0,8,,,,,,,,7,,,60,105
478560,note_on,120,0,6,,,,,,,,5,,,62,105
478560,note_on,120,0,9,,,,,,,,8,,,48,105
478560,note_on,120,0,7,,,,,,,,6,,,60,92
478560,note_on,120,0,2,,,,,,,,1,,,60,105
478740,note_on,180,0,5,,,,,,,,4,,,66,0
478740,note_on,180,0,7,,,,,,,,6,,,60,0
478740,note_on,180,0,2,,,,,,,,1,,,60,0
478740,note_on,180,0,8,,,,,,,,7,,,60,0
478740,note_on,180,0,9,,,,,,,,8,,,48,0
478740,note_on,180,0,6,,,,,,,,5,,,62,0
478800,note_on,60,0,5,,,,,,,,4,,,67,116
478800,note_on,60,0,6,,,,,,,,5,,,63,105
478800,note_on,60,0,8,,,,,,,,7,,,58,105
478800,note_on,60,0,9,,,,,,,,8,,,46,105
478800,note_on,60,0,7,,,,,,,,6,,,58,105
478800,note_on,60,0,2,,,,,,,,1,,,58,105
478980,note_on,180,0,8,,,,,,,,7,,,58,0
478980,note_on,180,0,6,,,,,,,,5,,,63,0
478980,note_on,180,0,2,,,,,,,,1,,,58,0
478980,note_on,180,0,9,,,,,,,,8,,,46,0
478980,note_on,180,0,5,,,,,,,,4,,,67,0
478980,note_on,180,0,7,,,,,,,,6,,,58,0
479040,note_on,60,0,7,,,,,,,,6,,,57,105
479040,note_on,60,0,8,,,,,,,,7,,,57,105
479040,note_on,60,0,6,,,,,,,,5,,,66,105
479040,note_on,60,0,2,,,,,,,,1,,,57,105
479040,note_on,60,0,9,,,,,,,,8,,,45,105
479040,note_on,60,0,5,,,,,,,,4,,,69,116
479220,note_on,180,0,5,,,,,,,,4,,,69,0
479220,note_on,180,0,6,,,,,,,,5,,,66,0
479220,note_on,180,0,2,,,,,,,,1,,,57,0
479220,note_on,180,0,8,,,,,,,,7,,,57,0
479220,note_on,180,0,9,,,,,,,,8,,,45,0
479220,note_on,180,0,7,,,,,,,,6,,,57,0
479280,note_on,60,0,6,,,,,,,,5,,,67,105
479280,note_on,60,0,7,,,,,,,,6,,,55,105
479280,note_on,60,0,9,,,,,,,,8,,,43,105
479280,note_on,60,0,5,,,,,,,,4,,,70,116
479280,note_on,60,0,8,,,,,,,,7,,,55,105
479280,note_on,60,0,2,,,,,,,,1,,,55,105
479460,note_on,180,0,9,,,,,,,,8,,,43,0
479460,note_on,180,0,7,,,,,,,,6,,,55,0
479460,note_on,180,0,2,,,,,,,,1,,,55,0
479460,note_on,180,0,5,,,,,,,,4,,,70,0
479460,note_on,180,0,8,,,,,,,,7,,,55,0
479460,note_on,180,0,6,,,,,,,,5,,,67,0
479520,note_on,60,0,5,,,,,,,,4,,,72,116
479520,note_on,60,0,8,,,,,,,,7,,,54,105
479520,note_on,60,0,7,,,,,,,,6,,,54,105
479520,note_on,60,0,9,,,,,,,,8,,,42,105
479520,note_on,60,0,2,,,,,,,,1,,,54,105
479520,note_on,60,0,6,,,,,,,,5,,,69,105
479700,note_on,180,0,8,,,,,,,,7,,,54,0
479700,note_on,180,0,9,,,,,,,,8,,,42,0
479700,note_on,180,0,7,,,,,,,,6,,,54,0
479700,note_on,180,0,2,,,,,,,,1,,,54,0
479700,note_on,180,0,5,,,,,,,,4,,,72,0
479700,note_on,180,0,6,,,,,,,,5,,,69,0
479760,note_on,60,0,6,,,,,,,,5,,,67,105
479760,note_on,60,0,9,,,,,,,,8,,,43,105
479760,note_on,60,0,7,,,,,,,,6,,,55,105
479760,note_on,60,0,2,,,,,,,,1,,,55,105
479760,note_on,60,0,8,,,,,,,,7,,,55,105
479760,note_on,60,0,5,,,,,,,,4,,,70,116
479940,note_on,180,0,7,,,,,,,,6,,,55,0
479940,note_on,180,0,5,,,,,,,,4,,,70,0
479940,note_on,180,0,9,,,,,,,,8,,,43,0
479940,note_on,180,0,2,,,,,,,,1,,,55,0
479940,note_on,180,0,6,,,,,,,,5,,,67,0
479940,note_on,180,0,8,,,,,,,,7,,,55,0
480000,note_on,60,0,8,,,,,,,,7,,,54,105
480000,note_on,60,0,9,,,,,,,,8,,,42,105
480000,note_on,60,0,5,,,,,,,,4,,,72,116
480000,note_on,60,0,6,,,,,,,,5,,,69,105
480000,note_on,1560,0,1,,,,,,,,0,,,72,105
480000,note_on,0,0,1,,,,,,,,0,,,69,105
480000,note_on,60,0,7,,,,,,,,6,,,54,105
480000,note_on,0,0,4,,,,,,,,3,,,50,105
480000,note_on,5376,0,4,,,,,,,,3,,,69,105
480000,note_on,5376,0,3,,,,,,,,2,,,72,105
480000,note_on,0,0,3,,,,,,,,2,,,62,105
480000,note_on,60,0,2,,,,,,,,1,,,54,105
480360,note_on,360,0,7,,,,,,,,6,,,54,0
480360,note_on,360,0,6,,,,,,,,5,,,69,0
480360,note_on,360,0,5,,,,,,,,4,,,72,0
480360,note_on,360,0,8,,,,,,,,7,,,54,0
480360,note_on,360,0,9,,,,,,,,8,,,42,0
480360,note_on,360,0,2,,,,,,,,1,,,54,0
480384,note_on,384,0,4,,,,,,,,3,,,50,0
480384,note_on,0,0,4,,,,,,,,3,,,69,0
480384,note_on,384,0,3,,,,,,,,2,,,62,0
480384,note_on,0,0,1,,,,,,,,0,,,72,0
480384,note_on,384,0,1,,,,,,,,0,,,69,0
480384,note_on,0,0,3,,,,,,,,2,,,72,0
480480,note_on,120,0,6,,,,,,,,5,,,62,105
480480,note_on,120,0,5,,,,,,,,4,,,66,116
480480,note_on,120,0,8,,,,,,,,7,,,60,105
480480,note_on,120,0,7,,,,,,,,6,,,60,105
480480,note_on,120,0,2,,,,,,,,1,,,60,105
480480,note_on,120,0,9,,,,,,,,8,,,48,105
480660,note_on,180,0,7,,,,,,,,6,,,60,0
480660,note_on,180,0,5,,,,,,,,4,,,66,0
480660,note_on,180,0,9,,,,,,,,8,,,48,0
480660,note_on,180,0,6,,,,,,,,5,,,62,0
480660,note_on,180,0,8,,,,,,,,7,,,60,0
480660,note_on,180,0,2,,,,,,,,1,,,60,0
480720,note_on,60,0,2,,,,,,,,1,,,58,105
480720,note_on,60,0,5,,,,,,,,4,,,67,116
480720,note_on,60,0,6,,,,,,,,5,,,63,105
480720,note_on,60,0,9,,,,,,,,8,,,46,105
480720,note_on,60,0,8,,,,,,,,7,,,58,105
480720,note_on,60,0,7,,,,,,,,6,,,58,105
480900,note_on,180,0,6,,,,,,,,5,,,63,0
480900,note_on,180,0,2,,,,,,,,1,,,58,0
480900,note_on,180,0,5,,,,,,,,4,,,67,0
480900,note_on,180,0,7,,,,,,,,6,,,58,0
480900,note_on,180,0,8,,,,,,,,7,,,58,0
480900,note_on,180,0,9,,,,,,,,8,,,46,0
480960,note_on,60,0,2,,,,,,,,1,,,57,105
480960,note_on,60,0,7,,,,,,,,6,,,57,105
480960,note_on,60,0,9,,,,,,,,8,,,45,105
480960,note_on,60,0,8,,,,,,,,7,,,57,105
480960,note_on,60,0,6,,,,,,,,5,,,66,105
480960,note_on,60,0,5,,,,,,,,4,,,69,116
481140,note_on,180,0,8,,,,,,,,7,,,57,0
481140,note_on,180,0,9,,,,,,,,8,,,45,0
481140,note_on,180,0,7,,,,,,,,6,,,57,0
481140,note_on,180,0,2,,,,,,,,1,,,57,0
481140,note_on,180,0,6,,,,,,,,5,,,66,0
481140,note_on,180,0,5,,,,,,,,4,,,69,0
481200,note_on,60,0,7,,,,,,,,6,,,55,105
481200,note_on,60,0,8,,,,,,,,7,,,55,105
481200,note_on,60,0,9,,,,,,,,8,,,43,105
481200,note_on,60,0,6,,,,,,,,5,,,67,105
481200,note_on,60,0,2,,,,,,,,1,,,55,105
481200,note_on,60,0,5,,,,,,,,4,,,70,116
481380,note_on,180,0,7,,,,,,,,6,,,55,0
481380,note_on,180,0,5,,,,,,,,4,,,70,0
481380,note_on,180,0,6,,,,,,,,5,,,67,0
481380,note_on,180,0,9,,,,,,,,8,,,43,0
481380,note_on,180,0,8,,,,,,,,7,,,55,0
481380,note_on,180,0,2,,,,,,,,1,,,55,0
481440,note_on,60,0,6,,,,,,,,5,,,69,105
481440,note_on,60,0,9,,,,,,,,8,,,42,105
481440,note_on,60,0,5,,,,,,,,4,,,72,116
481440,note_on,60,0,8,,,,,,,,7,,,54,105
481440,note_on,60,0,7,,,,,,,,6,,,54,105
481440,note_on,60,0,2,,,,,,,,1,,,54,105
481620,note_on,180,0,6,,,,,,,,5,,,69,0
481620,note_on,180,0,8,,,,,,,,7,,,54,0
481620,note_on,180,0,5,,,,,,,,4,,,72,0
481620,note_on,180,0,2,,,,,,,,1,,,54,0
481620,note_on,180,0,7,,,,,,,,6,,,54,0
481620,note_on,180,0,9,,,,,,,,8,,,42,0
481680,note_on,60,0,2,,,,,,,,1,,,55,105
481680,note_on,60,0,8,,,,,,,,7,,,55,105
481680,note_on,60,0,9,,,,,,,,8,,,43,105
481680,note_on,60,0,7,,,,,,,,6,,,55,105
481680,note_on,60,0,5,,,,,,,,4,,,70,116
481680,note_on,60,0,6,,,,,,,,5,,,67,105
481860,note_on,180,0,6,,,,,,,,5,,,67,0
481860,note_on,180,0,8,,,,,,,,7,,,55,0
481860,note_on,180,0,7,,,,,,,,6,,,55,0
481860,note_on,180,0,5,,,,,,,,4,,,70,0
481860,note_on,180,0,9,,,,,,,,8,,,43,0
481860,note_on,180,0,2,,,,,,,,1,,,55,0
481920,note_on,0,0,3,,,,,,,,2,,,62,105
481920,note_on,60,0,2,,,,,,,,1,,,54,105
481920,note_on,0,0,1,,,,,,,,0,,,69,105
481920,note_on,60,0,6,,,,,,,,5,,,69,105
481920,note_on,1536,0,4,,,,,,,,3,,,69,105
481920,note_on,0,0,4,,,,,,,,3,,,50,105
481920,note_on,1536,0,1,,,,,,,,0,,,72,105
481920,note_on,60,0,9,,,,,,,,8,,,42,105
481920,note_on,1536,0,3,,,,,,,,2,,,72,105
481920,note_on,60,0,7,,,,,,,,6,,,54,105
481920,note_on,60,0,5,,,,,,,,4,,,72,116
481920,note_on,60,0,8,,,,,,,,7,,,54,105
482280,note_on,360,0,9,,,,,,,,8,,,42,0
482280,note_on,360,0,6,,,,,,,,5,,,69,0
482280,note_on,360,0,2,,,,,,,,1,,,54,0
482280,note_on,360,0,7,,,,,,,,6,,,54,0
482280,note_on,360,0,5,,,,,,,,4,,,72,0
482280,note_on,360,0,8,,,,,,,,7,,,54,0
482304,note_on,384,0,3,,,,,,,,2,,,62,0
482304,note_on,0,0,3,,,,,,,,2,,,72,0
482304,note_on,384,0,4,,,,,,,,3,,,50,0
482304,note_on,0,0,4,,,,,,,,3,,,69,0
482304,note_on,384,0,1,,,,,,,,0,,,69,0
482304,note_on,0,0,1,,,,,,,,0,,,72,0
482400,note_on,120,0,9,,,,,,,,8,,,48,105
482400,note_on,120,0,8,,,,,,,,7,,,60,105
482400,note_on,120,0,5,,,,,,,,4,,,66,116
482400,note_on,120,0,7,,,,,,,,6,,,60,105
482400,note_on,120,0,2,,,,,,,,1,,,60,105
482400,note_on,120,0,6,,,,,,,,5,,,62,105
482580,note_on,180,0,8,,,,,,,,7,,,60,0
482580,note_on,180,0,5,,,,,,,,4,,,66,0
482580,note_on,180,0,7,,,,,,,,6,,,60,0
482580,note_on,180,0,9,,,,,,,,8,,,48,0
482580,note_on,180,0,6,,,,,,,,5,,,62,0
482580,note_on,180,0,2,,,,,,,,1,,,60,0
482640,note_on,60,0,6,,,,,,,,5,,,63,105
482640,note_on,60,0,8,,,,,,,,7,,,58,105
482640,note_on,60,0,7,,,,,,,,6,,,58,105
482640,note_on,60,0,9,,,,,,,,8,,,46,105
482640,note_on,60,0,2,,,,,,,,1,,,58,105
482640,note_on,60,0,5,,,,,,,,4,,,67,116
482820,note_on,180,0,7,,,,,,,,6,,,58,0
482820,note_on,180,0,6,,,,,,,,5,,,63,0
482820,note_on,180,0,2,,,,,,,,1,,,58,0
482820,note_on,180,0,8,,,,,,,,7,,,58,0
482820,note_on,180,0,5,,,,,,,,4,,,67,0
482820,note_on,180,0,9,,,,,,,,8,,,46,0
482880,note_on,60,0,9,,,,,,,,8,,,45,105
482880,note_on,60,0,5,,,,,,,,4,,,69,116
482880,note_on,60,0,2,,,,,,,,1,,,57,105
482880,note_on,60,0,7,,,,,,,,6,,,57,105
482880,note_on,60,0,8,,,,,,,,7,,,57,105
482880,note_on,60,0,6,,,,,,,,5,,,66,105
483060,note_on,180,0,5,,,,,,,,4,,,69,0
483060,note_on,180,0,8,,,,,,,,7,,,57,0
483060,note_on,180,0,6,,,,,,,,5,,,66,0
483060,note_on,180,0,9,,,,,,,,8,,,45,0
483060,note_on,180,0,7,,,,,,,,6,,,57,0
483060,note_on,180,0,2,,,,,,,,1,,,57,0
483120,note_on,60,0,2,,,,,,,,1,,,55,105
483120,note_on,60,0,8,,,,,,,,7,,,55,105
483120,note_on,60,0,6,,,,,,,,5,,,67,105
483120,note_on,60,0,9,,,,,,,,8,,,43,105
483120,note_on,60,0,5,,,,,,,,4,,,70,116
483120,note_on,60,0,7,,,,,,,,6,,,55,105
483300,note_on,180,0,8,,,,,,,,7,,,55,0
483300,note_on,180,0,2,,,,,,,,1,,,55,0
483300,note_on,180,0,9,,,,,,,,8,,,43,0
483300,note_on,180,0,7,,,,,,,,6,,,55,0
483300,note_on,180,0,6,,,,,,,,5,,,67,0
483300,note_on,180,0,5,,,,,,,,4,,,70,0
483360,note_on,60,0,7,,,,,,,,6,,,54,105
483360,note_on,60,0,2,,,,,,,,1,,,54,105
483360,note_on,60,0,9,,,,,,,,8,,,42,105
483360,note_on,60,0,6,,,,,,,,5,,,69,105
483360,note_on,60,0,8,,,,,,,,7,,,54,105
483360,note_on,60,0,5,,,,,,,,4,,,72,116
483540,note_on,180,0,7,,,,,,,,6,,,54,0
483540,note_on,180,0,9,,,,,,,,8,,,42,0
483540,note_on,180,0,2,,,,,,,,1,,,54,0
483540,note_on,180,0,6,,,,,,,,5,,,69,0
483540,note_on,180,0,8,,,,,,,,7,,,54,0
483540,note_on,180,0,5,,,,,,,,4,,,72,0
483600,note_on,60,0,9,,,,,,,,8,,,43,105
483600,note_on,60,0,6,,,,,,,,5,,,67,105
483600,note_on,60,0,5,,,,,,,,4,,,70,116
483600,note_on,60,0,8,,,,,,,,7,,,55,105
483600,note_on,60,0,2,,,,,,,,1,,,55,105
483600,note_on,60,0,7,,,,,,,,6,,,55,105
483780,note_on,180,0,5,,,,,,,,4,,,70,0
483780,note_on,180,0,2,,,,,,,,1,,,55,0
483780,note_on,180,0,8,,,,,,,,7,,,55,0
483780,note_on,180,0,7,,,,,,,,6,,,55,0
483780,note_on,180,0,9,,,,,,,,8,,,43,0
483780,note_on,180,0,6,,,,,,,,5,,,67,0
483840,note_on,60,0,2,,,,,,,,1,,,54,105
483840,note_on,1536,0,4,,,,,,,,3,,,69,105
483840,note_on,1536,0,3,,,,,,,,2,,,72,105
483840,note_on,0,0,3,,,,,,,,2,,,62,105
483840,note_on,0,0,4,,,,,,,,3,,,50,105
483840,note_on,60,0,9,,,,,,,,8,,,42,105
483840,note_on,60,0,6,,,,,,,,5,,,69,105
483840,note_on,60,0,7,,,,,,,,6,,,54,105
483840,note_on,1536,0,1,,,,,,,,0,,,69,105
483840,note_on,60,0,8,,,,,,,,7,,,54,105
483840,note_on,0,0,1,,,,,,,,0,,,72,105
483840,note_on,60,0,5,,,,,,,,4,,,72,116
484128,note_on,288,0,8,,,,,,,,7,,,54,0
484128,note_on,288,0,2,,,,,,,,1,,,54,0
484128,note_on,288,0,7,,,,,,,,6,,,54,0
484128,note_on,288,0,6,,,,,,,,5,,,69,0
484128,note_on,288,0,5,,,,,,,,4,,,72,0
484128,note_on,288,0,9,,,,,,,,8,,,42,0
484200,note_on,360,0,1,,,,,,,,0,,,72,0
484200,note_on,0,0,1,,,,,,,,0,,,69,0
484200,note_on,0,0,4,,,,,,,,3,,,69,0
484200,note_on,360,0,4,,,,,,,,3,,,50,0
484200,note_on,360,0,3,,,,,,,,2,,,72,0
484320,note_on,0,0,1,,,,,,,,0,,,67,105
484320,note_on,192,0,5,,,,,,,,4,,,70,116
484320,note_on,192,0,6,,,,,,,,5,,,67,105
484320,note_on,192,0,2,,,,,,,,1,,,55,105
484320,note_on,192,0,8,,,,,,,,7,,,55,105
484320,note_on,120,0,3,,,,,,,,2,,,70,105
484320,note_on,120,0,1,,,,,,,,0,,,70,105
484320,note_on,192,0,7,,,,,,,,6,,,55,105
484320,note_on,120,0,4,,,,,,,,3,,,55,105
484320,note_on,0,0,4,,,,,,,,3,,,67,105
484320,note_on,192,0,9,,,,,,,,8,,,43,105
484608,note_on,288,0,9,,,,,,,,8,,,43,0
484608,note_on,288,0,6,,,,,,,,5,,,67,0
484608,note_on,288,0,5,,,,,,,,4,,,70,0
484608,note_on,288,0,7,,,,,,,,6,,,55,0
484608,note_on,288,0,8,,,,,,,,7,,,55,0
484608,note_on,288,0,2,,,,,,,,1,,,55,0
484680,note_on,360,0,1,,,,,,,,0,,,70,0
484680,note_on,360,0,3,,,,,,,,2,,,62,0
484800,note_on,192,0,2,,,,,,,,1,,,48,105
484800,note_on,192,0,7,,,,,,,,6,,,60,105
484800,note_on,120,0,1,,,,,,,,0,,,69,105
484800,note_on,192,0,8,,,,,,,,7,,,48,105
484800,note_on,192,0,9,,,,,,,,8,,,36,105
484800,note_on,192,0,5,,,,,,,,4,,,75,116
484800,note_on,192,0,6,,,,,,,,5,,,67,105
485040,note_on,720,0,4,,,,,,,,3,,,67,0
485040,note_on,0,0,4,,,,,,,,3,,,55,0
485088,note_on,288,0,9,,,,,,,,8,,,36,0
485088,note_on,288,0,2,,,,,,,,1,,,48,0
485088,note_on,288,0,6,,,,,,,,5,,,67,0
485088,note_on,288,0,8,,,,,,,,7,,,48,0
485088,note_on,288,0,5,,,,,,,,4,,,75,0
485088,note_on,288,0,7,,,,,,,,6,,,60,0
485160,note_on,360,0,1,,,,,,,,0,,,67,0
485160,note_on,480,0,3,,,,,,,,2,,,70,0
485280,note_on,192,0,9,,,,,,,,8,,,38,105
485280,note_on,192,0,5,,,,,,,,4,,,66,116
485280,note_on,192,0,7,,,,,,,,6,,,62,105
485280,note_on,0,0,6,,,,,,,,5,,,62,105
485280,note_on,120,0,1,,,,,,,,0,,,66,105
485280,note_on,0,0,5,,,,,,,,4,,,57,116
485280,note_on,192,0,2,,,,,,,,1,,,50,105
485280,note_on,240,0,4,,,,,,,,3,,,69,105
485280,note_on,192,0,8,,,,,,,,7,,,50,105
485280,note_on,120,0,3,,,,,,,,2,,,62,105
485280,note_on,192,0,6,,,,,,,,5,,,60,105
485280,note_on,0,0,4,,,,,,,,3,,,50,105
485568,note_on,288,0,6,,,,,,,,5,,,62,0
485568,note_on,0,0,6,,,,,,,,5,,,60,0
485568,note_on,288,0,9,,,,,,,,8,,,38,0
485568,note_on,288,0,2,,,,,,,,1,,,50,0
485568,note_on,288,0,8,,,,,,,,7,,,50,0
485568,note_on,288,0,7,,,,,,,,6,,,62,0
485568,note_on,0,0,5,,,,,,,,4,,,66,0
485568,note_on,288,0,5,,,,,,,,4,,,57,0
485640,note_on,0,0,1,,,,,,,,0,,,69,0
485640,note_on,360,0,1,,,,,,,,0,,,66,0
485640,note_on,0,0,4,,,,,,,,3,,,69,0
485640,note_on,360,0,4,,,,,,,,3,,,50,0
485640,note_on,360,0,3,,,,,,,,2,,,62,0
485760,note_on,120,0,3,,,,,,,,2,,,62,105
485760,note_on,0,0,3,,,,,,,,2,,,58,105
485760,note_on,192,0,9,,,,,,,,8,,,31,110
485760,note_on,0,0,6,,,,,,,,5,,,62,110
485760,note_on,0,0,5,,,,,,,,4,,,67,70
485760,note_on,192,0,5,,,,,,,,4,,,55,110
485760,note_on,192,0,8,,,,,,,,7,,,43,110
485760,note_on,120,0,1,,,,,,,,0,,,67,105
485760,note_on,192,0,6,,,,,,,,5,,,58,105
485760,note_on,0,0,4,,,,,,,,3,,,55,105
485760,note_on,120,0,4,,,,,,,,3,,,67,105
485760,note_on,192,0,7,,,,,,,,6,,,55,105
485760,note_on,192,0,2,,,,,,,,1,,,43,110
486144,note_on,384,0,2,,,,,,,,1,,,43,0
486144,note_on,384,0,9,,,,,,,,8,,,31,0
486144,note_on,0,0,4,,,,,,,,3,,,67,0
486144,note_on,384,0,4,,,,,,,,3,,,55,0
486144,note_on,384,0,7,,,,,,,,6,,,55,0
486144,note_on,384,0,3,,,,,,,,2,,,58,0
486144,note_on,0,0,3,,,,,,,,2,,,62,0
486144,note_on,384,0,8,,,,,,,,7,,,43,0
486144,note_on,384,0,5,,,,,,,,4,,,67,0
486144,note_on,0,0,5,,,,,,,,4,,,55,0
486144,note_on,384,0,6,,,,,,,,5,,,62,0
486144,note_on,0,0,6,,,,,,,,5,,,58,0
486144,note_on,384,0,1,,,,,,,,0,,,67,0
486240,note_on,96,0,8,,,,,,,,7,,,48,70
486240,note_on,96,0,2,,,,,,,,1,,,48,70
486240,note_on,96,0,6,,,,,,,,5,,,62,70
486240,note_on,96,0,5,,,,,,,,4,,,66,70
486240,note_on,96,0,9,,,,,,,,8,,,36,70
486420,note_on,180,0,9,,,,,,,,8,,,36,0
486420,note_on,180,0,2,,,,,,,,1,,,48,0
486420,note_on,180,0,6,,,,,,,,5,,,62,0
486420,note_on,180,0,5,,,,,,,,4,,,66,0
486420,note_on,180,0,8,,,,,,,,7,,,48,0
486480,note_on,60,0,5,,,,,,,,4,,,67,70
486480,note_on,60,0,2,,,,,,,,1,,,46,70
486480,note_on,60,0,9,,,,,,,,8,,,34,70
486480,note_on,60,0,8,,,,,,,,7,,,46,70
486480,note_on,60,0,6,,,,,,,,5,,,63,70
486660,note_on,180,0,9,,,,,,,,8,,,34,0
486660,note_on,180,0,8,,,,,,,,7,,,46,0
486660,note_on,180,0,6,,,,,,,,5,,,63,0
486660,note_on,180,0,5,,,,,,,,4,,,67,0
486660,note_on,180,0,2,,,,,,,,1,,,46,0
486720,note_on,60,0,9,,,,,,,,8,,,33,70
486720,note_on,60,0,2,,,,,,,,1,,,45,70
486720,note_on,60,0,6,,,,,,,,5,,,66,70
486720,note_on,60,0,8,,,,,,,,7,,,45,70
486720,note_on,60,0,5,,,,,,,,4,,,69,70
486900,note_on,180,0,2,,,,,,,,1,,,45,0
486900,note_on,180,0,8,,,,,,,,7,,,45,0
486900,note_on,180,0,5,,,,,,,,4,,,69,0
486900,note_on,180,0,6,,,,,,,,5,,,66,0
486900,note_on,180,0,9,,,,,,,,8,,,33,0
486960,note_on,60,0,5,,,,,,,,4,,,70,70
486960,note_on,60,0,8,,,,,,,,7,,,43,70
486960,note_on,60,0,6,,,,,,,,5,,,67,70
486960,note_on,60,0,2,,,,,,,,1,,,43,70
486960,note_on,60,0,9,,,,,,,,8,,,31,70
487140,note_on,180,0,9,,,,,,,,8,,,31,0
487140,note_on,180,0,8,,,,,,,,7,,,43,0
487140,note_on,180,0,5,,,,,,,,4,,,70,0
487140,note_on,180,0,6,,,,,,,,5,,,67,0
487140,note_on,180,0,2,,,,,,,,1,,,43,0
487200,note_on,60,0,2,,,,,,,,1,,,42,70
487200,note_on,60,0,5,,,,,,,,4,,,72,70
487200,note_on,60,0,6,,,,,,,,5,,,69,70
487200,note_on,60,0,8,,,,,,,,7,,,42,70
487200,note_on,60,0,9,,,,,,,,8,,,30,70
487380,note_on,180,0,6,,,,,,,,5,,,69,0
487380,note_on,180,0,2,,,,,,,,1,,,42,0
487380,note_on,180,0,8,,,,,,,,7,,,42,0
487380,note_on,180,0,9,,,,,,,,8,,,30,0
487380,note_on,180,0,5,,,,,,,,4,,,72,0
487440,note_on,60,0,5,,,,,,,,4,,,70,70
487440,note_on,60,0,6,,,,,,,,5,,,67,70
487440,note_on,60,0,8,,,,,,,,7,,,43,70
487440,note_on,60,0,2,,,,,,,,1,,,43,70
487440,note_on,60,0,9,,,,,,,,8,,,31,70
487620,note_on,180,0,9,,,,,,,,8,,,31,0
487620,note_on,180,0,2,,,,,,,,1,,,43,0
487620,note_on,180,0,6,,,,,,,,5,,,67,0
487620,note_on,180,0,5,,,,,,,,4,,,70,0
487620,note_on,180,0,8,,,,,,,,7,,,43,0
487680,note_on,1536,0,7,,,,,,,,6,,,50,70
487680,note_on,60,0,9,,,,,,,,8,,,30,70
487680,note_on,60,0,2,,,,,,,,1,,,42,70
487680,note_on,60,0,6,,,,,,,,5,,,69,70
487680,note_on,60,0,8,,,,,,,,7,,,42,70
487680,note_on,60,0,5,,,,,,,,4,,,72,70
487968,note_on,288,0,8,,,,,,,,7,,,42,0
487968,note_on,288,0,9,,,,,,,,8,,,30,0
487968,note_on,288,0,6,,,,,,,,5,,,69,0
487968,note_on,288,0,2,,,,,,,,1,,,42,0
487968,note_on,288,0,5,,,,,,,,4,,,72,0
488064,note_on,384,0,7,,,,,,,,6,,,50,0
488160,note_on,192,0,8,,,,,,,,7,,,48,70
488160,note_on,192,0,9,,,,,,,,8,,,36,70
488160,note_on,192,0,2,,,,,,,,1,,,48,70
488160,note_on,192,0,5,,,,,,,,4,,,66,70
488160,note_on,192,0,6,,,,,,,,5,,,62,70
488340,note_on,180,0,2,,,,,,,,1,,,48,0
488340,note_on,180,0,8,,,,,,,,7,,,48,0
488340,note_on,180,0,9,,,,,,,,8,,,36,0
488340,note_on,180,0,5,,,,,,,,4,,,66,0
488340,note_on,180,0,6,,,,,,,,5,,,62,0
488400,note_on,60,0,2,,,,,,,,1,,,46,70
488400,note_on,60,0,8,,,,,,,,7,,,46,70
488400,note_on,60,0,9,,,,,,,,8,,,34,70
488400,note_on,60,0,5,,,,,,,,4,,,67,70
488400,note_on,60,0,6,,,,,,,,5,,,63,70
488580,note_on,180,0,9,,,,,,,,8,,,34,0
488580,note_on,180,0,6,,,,,,,,5,,,63,0
488580,note_on,180,0,5,,,,,,,,4,,,67,0
488580,note_on,180,0,2,,,,,,,,1,,,46,0
488580,note_on,180,0,8,,,,,,,,7,,,46,0
488640,note_on,60,0,6,,,,,,,,5,,,66,70
488640,note_on,60,0,9,,,,,,,,8,,,33,70
488640,note_on,60,0,5,,,,,,,,4,,,69,70
488640,note_on,60,0,2,,,,,,,,1,,,45,70
488640,note_on,60,0,8,,,,,,,,7,,,45,70
488820,note_on,180,0,9,,,,,,,,8,,,33,0
488820,note_on,180,0,2,,,,,,,,1,,,45,0
488820,note_on,180,0,5,,,,,,,,4,,,69,0
488820,note_on,180,0,8,,,,,,,,7,,,45,0
488820,note_on,180,0,6,,,,,,,,5,,,66,0
488880,note_on,60,0,8,,,,,,,,7,,,43,70
488880,note_on,60,0,5,,,,,,,,4,,,70,70
488880,note_on,60,0,2,,,,,,,,1,,,43,70
488880,note_on,60,0,9,,,,,,,,8,,,31,70
488880,note_on,60,0,6,,,,,,,,5,,,67,70
489060,note_on,180,0,5,,,,,,,,4,,,70,0
489060,note_on,180,0,2,,,,,,,,1,,,43,0
489060,note_on,180,0,9,,,,,,,,8,,,31,0
489060,note_on,180,0,6,,,,,,,,5,,,67,0
489060,note_on,180,0,8,,,,,,,,7,,,43,0
489120,note_on,60,0,6,,,,,,,,5,,,69,70
489120,note_on,60,0,9,,,,,,,,8,,,30,70
489120,note_on,60,0,2,,,,,,,,1,,,42,70
489120,note_on,60,0,5,,,,,,,,4,,,72,70
489120,note_on,60,0,8,,,,,,,,7,,,42,70
489300,note_on,180,0,2,,,,,,,,1,,,42,0
489300,note_on,180,0,9,,,,,,,,8,,,30,0
489300,note_on,180,0,8,,,,,,,,7,,,42,0
489300,note_on,180,0,5,,,,,,,,4,,,72,0
489300,note_on,180,0,6,,,,,,,,5,,,69,0
489360,note_on,60,0,8,,,,,,,,7,,,43,70
489360,note_on,60,0,9,,,,,,,,8,,,31,70
489360,note_on,60,0,5,,,,,,,,4,,,70,70
489360,note_on,60,0,2,,,,,,,,1,,,43,70
489360,note_on,60,0,6,,,,,,,,5,,,67,70
489540,note_on,180,0,2,,,,,,,,1,,,43,0
489540,note_on,180,0,6,,,,,,,,5,,,67,0
489540,note_on,180,0,8,,,,,,,,7,,,43,0
489540,note_on,180,0,5,,,,,,,,4,,,70,0
489540,note_on,180,0,9,,,,,,,,8,,,31,0
489600,note_on,60,0,5,,,,,,,,4,,,72,70
489600,note_on,1536,0,7,,,,,,,,6,,,50,70
489600,note_on,60,0,8,,,,,,,,7,,,42,70
489600,note_on,60,0,9,,,,,,,,8,,,30,70
489600,note_on,60,0,6,,,,,,,,5,,,69,70
489600,note_on,60,0,2,,,,,,,,1,,,42,70
489888,note_on,288,0,8,,,,,,,,7,,,42,0
489888,note_on,288,0,5,,,,,,,,4,,,72,0
489888,note_on,288,0,9,,,,,,,,8,,,30,0
489888,note_on,288,0,6,,,,,,,,5,,,69,0
489888,note_on,288,0,2,,,,,,,,1,,,42,0
489984,note_on,384,0,7,,,,,,,,6,,,50,0
490080,note_on,96,0,7,,,,,,,,6,,,72,105
490080,note_on,192,0,6,,,,,,,,5,,,74,116
490080,note_on,192,0,5,,,,,,,,4,,,78,116
490080,note_on,192,0,2,,,,,,,,1,,,60,105
490080,note_on,192,0,9,,,,,,,,8,,,48,105
490080,note_on,192,0,8,,,,,,,,7,,,60,105
490260,note_on,180,0,5,,,,,,,,4,,,78,0
490260,note_on,180,0,2,,,,,,,,1,,,60,0
490260,note_on,180,0,7,,,,,,,,6,,,72,0
490260,note_on,180,0,9,,,,,,,,8,,,48,0
490260,note_on,180,0,6,,,,,,,,5,,,74,0
490260,note_on,180,0,8,,,,,,,,7,,,60,0
490320,note_on,60,0,2,,,,,,,,1,,,58,105
490320,note_on,60,0,9,,,,,,,,8,,,46,105
490320,note_on,60,0,8,,,,,,,,7,,,58,105
490320,note_on,60,0,5,,,,,,,,4,,,79,116
490320,note_on,60,0,6,,,,,,,,5,,,75,116
490320,note_on,60,0,7,,,,,,,,6,,,70,105
490500,note_on,180,0,6,,,,,,,,5,,,75,0
490500,note_on,180,0,8,,,,,,,,7,,,58,0
490500,note_on,180,0,2,,,,,,,,1,,,58,0
490500,note_on,180,0,5,,,,,,,,4,,,79,0
490500,note_on,180,0,7,,,,,,,,6,,,70,0
490500,note_on,180,0,9,,,,,,,,8,,,46,0
490560,note_on,60,0,6,,,,,,,,5,,,78,116
490560,note_on,60,0,8,,,,,,,,7,,,57,105
490560,note_on,60,0,2,,,,,,,,1,,,57,105
490560,note_on,60,0,7,,,,,,,,6,,,69,105
490560,note_on,60,0,5,,,,,,,,4,,,81,116
490560,note_on,60,0,9,,,,,,,,8,,,45,105
490740,note_on,180,0,6,,,,,,,,5,,,78,0
490740,note_on,180,0,8,,,,,,,,7,,,57,0
490740,note_on,180,0,2,,,,,,,,1,,,57,0
490740,note_on,180,0,9,,,,,,,,8,,,45,0
490740,note_on,180,0,7,,,,,,,,6,,,69,0
490740,note_on,180,0,5,,,,,,,,4,,,81,0
490800,note_on,60,0,6,,,,,,,,5,,,79,116
490800,note_on,60,0,7,,,,,,,,6,,,67,105
490800,note_on,60,0,9,,,,,,,,8,,,43,105
490800,note_on,60,0,8,,,,,,,,7,,,55,105
490800,note_on,60,0,5,,,,,,,,4,,,82,116
490800,note_on,60,0,2,,,,,,,,1,,,55,105
490980,note_on,180,0,9,,,,,,,,8,,,43,0
490980,note_on,180,0,2,,,,,,,,1,,,55,0
490980,note_on,180,0,8,,,,,,,,7,,,55,0
490980,note_on,180,0,7,,,,,,,,6,,,67,0
490980,note_on,180,0,5,,,,,,,,4,,,82,0
490980,note_on,180,0,6,,,,,,,,5,,,79,0
491040,note_on,60,0,9,,,,,,,,8,,,42,105
491040,note_on,60,0,2,,,,,,,,1,,,54,105
491040,note_on,60,0,7,,,,,,,,6,,,66,105
491040,note_on,60,0,8,,,,,,,,7,,,54,105
491040,note_on,60,0,5,,,,,,,,4,,,84,116
491040,note_on,60,0,6,,,,,,,,5,,,81,116
491220,note_on,180,0,5,,,,,,,,4,,,84,0
491220,note_on,180,0,8,,,,,,,,7,,,54,0
491220,note_on,180,0,2,,,,,,,,1,,,54,0
491220,note_on,180,0,7,,,,,,,,6,,,66,0
491220,note_on,180,0,9,,,,,,,,8,,,42,0
491220,note_on,180,0,6,,,,,,,,5,,,81,0
491280,note_on,60,0,7,,,,,,,,6,,,67,105
491280,note_on,60,0,2,,,,,,,,1,,,55,105
491280,note_on,60,0,6,,,,,,,,5,,,79,116
491280,note_on,60,0,8,,,,,,,,7,,,55,105
491280,note_on,60,0,9,,,,,,,,8,,,43,105
491280,note_on,60,0,5,,,,,,,,4,,,82,116
491460,note_on,180,0,9,,,,,,,,8,,,43,0
491460,note_on,180,0,7,,,,,,,,6,,,67,0
491460,note_on,180,0,8,,,,,,,,7,,,55,0
491460,note_on,180,0,5,,,,,,,,4,,,82,0
491460,note_on,180,0,2,,,,,,,,1,,,55,0
491460,note_on,180,0,6,,,,,,,,5,,,79,0
491520,note_on,60,0,6,,,,,,,,5,,,81,116
491520,note_on,0,0,4,,,,,,,,3,,,62,105
491520,note_on,5376,0,4,,,,,,,,3,,,69,105
491520,note_on,60,0,5,,,,,,,,4,,,84,116
491520,note_on,60,0,8,,,,,,,,7,,,54,105
491520,note_on,60,0,2,,,,,,,,1,,,54,105
491520,note_on,5376,0,1,,,,,,,,0,,,84,105
491520,note_on,0,0,3,,,,,,,,2,,,72,105
491520,note_on,5376,0,3,,,,,,,,2,,,62,105
491520,note_on,60,0,9,,,,,,,,8,,,42,105
491520,note_on,60,0,7,,,,,,,,6,,,66,105
491520,note_on,0,0,1,,,,,,,,0,,,81,105
491808,note_on,288,0,9,,,,,,,,8,,,42,0
491808,note_on,288,0,8,,,,,,,,7,,,54,0
491808,note_on,0,0,4,,,,,,,,3,,,69,0
491808,note_on,288,0,2,,,,,,,,1,,,54,0
491808,note_on,288,0,6,,,,,,,,5,,,81,0
491808,note_on,288,0,1,,,,,,,,0,,,81,0
491808,note_on,288,0,5,,,,,,,,4,,,84,0
491808,note_on,0,0,1,,,,,,,,0,,,84,0
491808,note_on,288,0,3,,,,,,,,2,,,72,0
491808,note_on,288,0,4,,,,,,,,3,,,62,0
491808,note_on,288,0,7,,,,,,,,6,,,66,0
492000,note_on,192,0,5,,,,,,,,4,,,82,116
492000,note_on,192,0,3,,,,,,,,2,,,70,105
492000,note_on,192,0,4,,,,,,,,3,,,67,105
492000,note_on,192,0,1,,,,,,,,0,,,82,105
492000,note_on,0,0,1,,,,,,,,0,,,79,105
492000,note_on,192,0,8,,,,,,,,7,,,55,105
492000,note_on,192,0,6,,,,,,,,5,,,79,116
492000,note_on,192,0,2,,,,,,,,1,,,55,105
492000,note_on,192,0,9,,,,,,,,8,,,43,105
492000,note_on,192,0,7,,,,,,,,6,,,67,105
492288,note_on,288,0,9,,,,,,,,8,,,43,0
492288,note_on,288,0,2,,,,,,,,1,,,55,0
492288,note_on,288,0,6,,,,,,,,5,,,79,0
492288,note_on,288,0,8,,,,,,,,7,,,55,0
492288,note_on,0,0,3,,,,,,,,2,,,62,0
492288,note_on,288,0,7,,,,,,,,6,,,67,0
492288,note_on,288,0,3,,,,,,,,2,,,70,0
492288,note_on,288,0,1,,,,,,,,0,,,82,0
492288,note_on,288,0,5,,,,,,,,4,,,82,0
492480,note_on,192,0,8,,,,,,,,7,,,48,105
492480,note_on,192,0,3,,,,,,,,2,,,72,105
492480,note_on,192,0,1,,,,,,,,0,,,81,105
492480,note_on,192,0,2,,,,,,,,1,,,48,105
492480,note_on,192,0,9,,,,,,,,8,,,36,105
492480,note_on,480,0,4,,,,,,,,3,,,55,105
492480,note_on,192,0,7,,,,,,,,6,,,60,105
492480,note_on,192,0,5,,,,,,,,4,,,87,116
492480,note_on,192,0,6,,,,,,,,5,,,79,116
492768,note_on,288,0,6,,,,,,,,5,,,79,0
492768,note_on,288,0,9,,,,,,,,8,,,36,0
492768,note_on,288,0,5,,,,,,,,4,,,87,0
492768,note_on,0,0,4,,,,,,,,3,,,67,0
492768,note_on,288,0,2,,,,,,,,1,,,48,0
492768,note_on,288,0,4,,,,,,,,3,,,55,0
492768,note_on,288,0,7,,,,,,,,6,,,60,0
492768,note_on,288,0,3,,,,,,,,2,,,72,0
492768,note_on,288,0,8,,,,,,,,7,,,48,0
492768,note_on,288,0,1,,,,,,,,0,,,79,0
492960,note_on,192,0,9,,,,,,,,8,,,38,105
492960,note_on,192,0,4,,,,,,,,3,,,50,105
492960,note_on,192,0,8,,,,,,,,7,,,50,105
492960,note_on,0,0,4,,,,,,,,3,,,69,105
492960,note_on,0,0,5,,,,,,,,4,,,78,116
492960,note_on,0,0,5,,,,,,,,4,,,69,116
492960,note_on,192,0,1,,,,,,,,0,,,78,105
492960,note_on,192,0,3,,,,,,,,2,,,62,105
492960,note_on,192,0,5,,,,,,,,4,,,62,116
492960,note_on,192,0,7,,,,,,,,6,,,62,105
492960,note_on,192,0,2,,,,,,,,1,,,50,105
492960,note_on,0,0,3,,,,,,,,2,,,74,105
492960,note_on,0,0,6,,,,,,,,5,,,72,116
492960,note_on,192,0,6,,,,,,,,5,,,62,116
493248,note_on,288,0,2,,,,,,,,1,,,50,0
493248,note_on,288,0,6,,,,,,,,5,,,72,0
493248,note_on,288,0,8,,,,,,,,7,,,50,0
493248,note_on,288,0,1,,,,,,,,0,,,78,0
493248,note_on,0,0,1,,,,,,,,0,,,81,0
493248,note_on,288,0,5,,,,,,,,4,,,78,0
493248,note_on,288,0,7,,,,,,,,6,,,62,0
493248,note_on,0,0,5,,,,,,,,4,,,69,0
493248,note_on,0,0,6,,,,,,,,5,,,62,0
493248,note_on,288,0,9,,,,,,,,8,,,38,0
493248,note_on,0,0,5,,,,,,,,4,,,62,0
493248,note_on,0,0,4,,,,,,,,3,,,50,0
493248,note_on,0,0,3,,,,,,,,2,,,62,0
493248,note_on,288,0,3,,,,,,,,2,,,74,0
493248,note_on,288,0,4,,,,,,,,3,,,69,0
493440,note_on,192,0,3,,,,,,,,2,,,62,105
493440,note_on,192,0,8,,,,,,,,7,,,43,105
493440,note_on,192,0,2,,,,,,,,1,,,43,105
493440,note_on,0,0,6,,,,,,,,5,,,55,116
493440,note_on,0,0,6,,,,,,,,5,,,62,116
493440,note_on,192,0,4,,,,,,,,3,,,55,105
493440,note_on,192,0,7,,,,,,,,6,,,55,105
493440,note_on,192,0,1,,,,,,,,0,,,79,105
493440,note_on,192,0,6,,,,,,,,5,,,70,116
493440,note_on,0,0,5,,,,,,,,4,,,62,116
493440,note_on,0,0,4,,,,,,,,3,,,67,105
493440,note_on,192,0,9,,,,,,,,8,,,31,105
493440,note_on,0,0,5,,,,,,,,4,,,79,116
493440,note_on,0,0,3,,,,,,,,2,,,70,105
493440,note_on,192,0,5,,,,,,,,4,,,70,116
493728,note_on,0,0,3,,,,,,,,2,,,62,0
493728,note_on,288,0,2,,,,,,,,1,,,43,0
493728,note_on,0,0,5,,,,,,,,4,,,70,0
493728,note_on,0,0,5,,,,,,,,4,,,79,0
493728,note_on,288,0,8,,,,,,,,7,,,43,0
493728,note_on,288,0,5,,,,,,,,4,,,62,0
493728,note_on,288,0,3,,,,,,,,2,,,70,0
493728,note_on,288,0,4,,,,,,,,3,,,67,0
493728,note_on,0,0,6,,,,,,,,5,,,70,0
493728,note_on,0,0,6,,,,,,,,5,,,62,0
493728,note_on,288,0,6,,,,,,,,5,,,55,0
493728,note_on,0,0,4,,,,,,,,3,,,55,0
493728,note_on,288,0,7,,,,,,,,6,,,55,0
493728,note_on,288,0,9,,,,,,,,8,,,31,0
493728,note_on,288,0,1,,,,,,,,0,,,79,0
493920,note_on,192,0,9,,,,,,,,8,,,31,105
493920,note_on,192,0,6,,,,,,,,5,,,55,116
493920,note_on,192,0,2,,,,,,,,1,,,43,105
493920,note_on,192,0,8,,,,,,,,7,,,43,105
493920,note_on,192,0,7,,,,,,,,6,,,55,105
493920,note_on,192,0,5,,,,,,,,4,,,55,116
494208,note_on,288,0,2,,,,,,,,1,,,43,0
494208,note_on,288,0,9,,,,,,,,8,,,31,0
494208,note_on,288,0,7,,,,,,,,6,,,55,0
494208,note_on,288,0,8,,,,,,,,7,,,43,0
494208,note_on,288,0,6,,,,,,,,5,,,55,0
494208,note_on,288,0,5,,,,,,,,4,,,55,0
494400,note_on,192,0,8,,,,,,,,7,,,58,105
494400,note_on,192,0,5,,,,,,,,4,,,70,116
494400,note_on,192,0,2,,,,,,,,1,,,58,105
494400,note_on,192,0,6,,,,,,,,5,,,70,116
494400,note_on,672,0,3,,,,,,,,2,,,70,105
494400,note_on,192,0,9,,,,,,,,8,,,46,105
494400,note_on,192,0,7,,,,,,,,6,,,70,105
494400,note_on,672,0,1,,,,,,,,0,,,70,105
494784,note_on,384,0,3,,,,,,,,2,,,70,0
494976,note_on,576,0,8,,,,,,,,7,,,58,0
494976,note_on,576,0,5,,,,,,,,4,,,70,0
494976,note_on,576,0,6,,,,,,,,5,,,70,0
494976,note_on,576,0,9,,,,,,,,8,,,46,0
494976,note_on,576,0,1,,,,,,,,0,,,70,0
494976,note_on,576,0,7,,,,,,,,6,,,70,0
494976,note_on,576,0,2,,,,,,,,1,,,58,0
495120,note_on,144,0,2,,,,,,,,1,,,57,105
495120,note_on,144,0,7,,,,,,,,6,,,69,105
495120,note_on,1392,0,4,,,,,,,,3,,,69,105
495120,note_on,144,0,8,,,,,,,,7,,,57,105
495120,note_on,144,0,1,,,,,,,,0,,,69,105
495120,note_on,144,0,5,,,,,,,,4,,,69,116
495120,note_on,144,0,9,,,,,,,,8,,,45,105
495120,note_on,144,0,6,,,,,,,,5,,,69,116
495312,note_on,192,0,5,,,,,,,,4,,,69,0
495312,note_on,192,0,1,,,,,,,,0,,,69,0
495312,note_on,192,0,9,,,,,,,,8,,,45,0
495312,note_on,192,0,2,,,,,,,,1,,,57,0
495312,note_on,192,0,4,,,,,,,,3,,,69,0
495312,note_on,192,0,7,,,,,,,,6,,,69,0
495312,note_on,192,0,6,,,,,,,,5,,,69,0
495312,note_on,192,0,8,,,,,,,,7,,,57,0
495360,note_on,48,0,5,,,,,,,,4,,,67,116
495360,note_on,48,0,7,,,,,,,,6,,,67,105
495360,note_on,48,0,4,,,,,,,,3,,,67,105
495360,note_on,48,0,2,,,,,,,,1,,,55,105
495360,note_on,48,0,8,,,,,,,,7,,,55,105
495360,note_on,48,0,6,,,,,,,,5,,,67,116
495360,note_on,48,0,1,,,,,,,,0,,,67,105
495360,note_on,48,0,9,,,,,,,,8,,,43,105
495648,note_on,288,0,7,,,,,,,,6,,,67,0
495648,note_on,288,0,8,,,,,,,,7,,,55,0
495648,note_on,288,0,5,,,,,,,,4,,,67,0
495648,note_on,288,0,1,,,,,,,,0,,,67,0
495648,note_on,288,0,4,,,,,,,,3,,,67,0
495648,note_on,288,0,6,,,,,,,,5,,,67,0
495648,note_on,288,0,2,,,,,,,,1,,,55,0
495648,note_on,288,0,9,,,,,,,,8,,,43,0
495840,note_on,192,0,4,,,,,,,,3,,,55,105
495840,note_on,192,0,2,,,,,,,,1,,,43,105
495840,note_on,192,0,7,,,,,,,,6,,,55,105
495840,note_on,192,0,6,,,,,,,,5,,,55,116
495840,note_on,192,0,8,,,,,,,,7,,,43,105
495840,note_on,192,0,9,,,,,,,,8,,,31,105
495840,note_on,192,0,5,,,,,,,,4,,,55,116
496128,note_on,288,0,7,,,,,,,,6,,,55,0
496128,note_on,288,0,6,,,,,,,,5,,,55,0
496128,note_on,288,0,4,,,,,,,,3,,,55,0
496128,note_on,288,0,8,,,,,,,,7,,,43,0
496128,note_on,288,0,9,,,,,,,,8,,,31,0
496128,note_on,288,0,2,,,,,,,,1,,,43,0
496128,note_on,288,0,5,,,,,,,,4,,,55,0
496320,note_on,192,0,5,,,,,,,,4,,,70,116
496320,note_on,192,0,2,,,,,,,,1,,,58,105
496320,note_on,1536,0,3,,,,,,,,2,,,70,105
496320,note_on,672,0,1,,,,,,,,0,,,70,105
496320,note_on,192,0,6,,,,,,,,5,,,70,116
496320,note_on,192,0,8,,,,,,,,7,,,58,105
496320,note_on,192,0,7,,,,,,,,6,,,70,105
496320,note_on,192,0,9,,,,,,,,8,,,46,105
496704,note_on,384,0,3,,,,,,,,2,,,70,0
496896,note_on,576,0,9,,,,,,,,8,,,46,0
496896,note_on,576,0,7,,,,,,,,6,,,70,0
496896,note_on,576,0,1,,,,,,,,0,,,70,0
496896,note_on,576,0,6,,,,,,,,5,,,70,0
496896,note_on,576,0,5,,,,,,,,4,,,70,0
496896,note_on,576,0,8,,,,,,,,7,,,58,0
496896,note_on,576,0,2,,,,,,,,1,,,58,0
497040,note_on,144,0,6,,,,,,,,5,,,69,116
497040,note_on,912,0,4,,,,,,,,3,,,69,105
497040,note_on,144,0,5,,,,,,,,4,,,69,116
497040,note_on,144,0,8,,,,,,,,7,,,57,105
497040,note_on,144,0,1,,,,,,,,0,,,69,105
497040,note_on,144,0,9,,,,,,,,8,,,45,105
497040,note_on,144,0,2,,,,,,,,1,,,57,105
497040,note_on,144,0,7,,,,,,,,6,,,69,105
497232,note_on,192,0,6,,,,,,,,5,,,69,0
497232,note_on,192,0,1,,,,,,,,0,,,69,0
497232,note_on,192,0,2,,,,,,,,1,,,57,0
497232,note_on,192,0,9,,,,,,,,8,,,45,0
497232,note_on,192,0,8,,,,,,,,7,,,57,0
497232,note_on,192,0,7,,,,,,,,6,,,69,0
497232,note_on,192,0,5,,,,,,,,4,,,69,0
497232,note_on,192,0,4,,,,,,,,3,,,69,0
497280,note_on,48,0,4,,,,,,,,3,,,67,105
497280,note_on,48,0,8,,,,,,,,7,,,55,105
497280,note_on,48,0,6,,,,,,,,5,,,67,116
497280,note_on,48,0,1,,,,,,,,0,,,67,105
497280,set_tempo,92160,1,0,,,,,,331492,,,,,,
497280,note_on,48,0,9,,,,,,,,8,,,43,105
497280,note_on,48,0,7,,,,,,,,6,,,67,105
497280,note_on,48,0,5,,,,,,,,4,,,67,116
497280,note_on,48,0,2,,,,,,,,1,,,55,105
498048,note_on,768,0,2,,,,,,,,1,,,55,0
498048,note_on,768,0,6,,,,,,,,5,,,67,0
498048,note_on,768,0,7,,,,,,,,6,,,67,0
498048,note_on,768,0,1,,,,,,,,0,,,67,0
498048,note_on,768,0,4,,,,,,,,3,,,67,0
498048,note_on,768,0,8,,,,,,,,7,,,55,0
498048,note_on,768,0,9,,,,,,,,8,,,43,0
498048,note_on,768,0,5,,,,,,,,4,,,67,0
498240,note_on,192,0,5,,,,,,,,4,,,58,80
499200,set_tempo,1920,1,0,,,,,,329670,,,,,,
499200,note_on,960,0,5,,,,,,,,4,,,58,0
499200,note_on,0,0,5,,,,,,,,4,,,60,70
500160,note_on,960,0,5,,,,,,,,4,,,60,0
500160,note_on,0,0,5,,,,,,,,4,,,61,70
501120,note_on,960,0,5,,,,,,,,4,,,61,0
501120,note_on,0,0,5,,,,,,,,4,,,62,70
501120,set_tempo,1920,1,0,,,,,,338983,,,,,,
501888,note_on,768,0,5,,,,,,,,4,,,62,0
502080,note_on,192,0,5,,,,,,,,4,,,74,70
503040,set_tempo,1920,1,0,,,,,,322581,,,,,,
503400,note_on,1320,0,5,,,,,,,,4,,,74,0
503520,note_on,120,0,5,,,,,,,,4,,,75,70
503700,note_on,180,0,5,,,,,,,,4,,,75,0
503760,note_on,60,0,5,,,,,,,,4,,,72,70
503940,note_on,180,0,5,,,,,,,,4,,,72,0
504000,note_on,60,0,5,,,,,,,,4,,,70,70
504360,note_on,360,0,5,,,,,,,,4,,,70,0
504480,note_on,120,0,5,,,,,,,,4,,,72,70
504660,note_on,180,0,5,,,,,,,,4,,,72,0
504720,note_on,60,0,5,,,,,,,,4,,,69,70
504900,note_on,180,0,5,,,,,,,,4,,,69,0
504960,note_on,6912,0,7,,,,,,,,6,,,67,105
504960,note_on,6912,0,6,,,,,,,,5,,,67,105
504960,set_tempo,1920,1,0,,,,,,300000,,,,,,
504960,note_on,6912,0,2,,,,,,,,1,,,55,105
504960,note_on,6912,0,8,,,,,,,,7,,,55,105
504960,note_on,6912,0,9,,,,,,,,8,,,43,105
504960,note_on,60,0,5,,,,,,,,4,,,67,105
505344,note_on,384,0,6,,,,,,,,5,,,67,0
505344,note_on,384,0,8,,,,,,,,7,,,55,0
505344,note_on,384,0,9,,,,,,,,8,,,43,0
505344,note_on,384,0,7,,,,,,,,6,,,67,0
505344,note_on,384,0,2,,,,,,,,1,,,55,0
505344,note_on,384,0,5,,,,,,,,4,,,67,0
505440,note_on,96,0,5,,,,,,,,4,,,68,105
505440,note_on,96,0,8,,,,,,,,7,,,56,105
505440,note_on,96,0,2,,,,,,,,1,,,56,105
505440,note_on,96,0,7,,,,,,,,6,,,68,105
505440,note_on,96,0,6,,,,,,,,5,,,68,105
505440,note_on,96,0,9,,,,,,,,8,,,44,105
505632,note_on,192,0,5,,,,,,,,4,,,68,0
505632,note_on,192,0,2,,,,,,,,1,,,56,0
505632,note_on,192,0,8,,,,,,,,7,,,56,0
505632,note_on,192,0,9,,,,,,,,8,,,44,0
505632,note_on,192,0,7,,,,,,,,6,,,68,0
505632,note_on,192,0,6,,,,,,,,5,,,68,0
505680,note_on,48,0,5,,,,,,,,4,,,65,105
505680,note_on,48,0,9,,,,,,,,8,,,41,105
505680,note_on,48,0,2,,,,,,,,1,,,53,105
505680,note_on,48,0,7,,,,,,,,6,,,65,105
505680,note_on,48,0,8,,,,,,,,7,,,53,105
505680,note_on,48,0,6,,,,,,,,5,,,65,105
505872,note_on,192,0,2,,,,,,,,1,,,53,0
505872,note_on,192,0,8,,,,,,,,7,,,53,0
505872,note_on,192,0,7,,,,,,,,6,,,65,0
505872,note_on,192,0,9,,,,,,,,8,,,41,0
505872,note_on,192,0,6,,,,,,,,5,,,65,0
505872,note_on,192,0,5,,,,,,,,4,,,65,0
505920,note_on,48,0,9,,,,,,,,8,,,39,105
505920,note_on,48,0,2,,,,,,,,1,,,51,105
505920,note_on,48,0,5,,,,,,,,4,,,63,105
505920,note_on,48,0,7,,,,,,,,6,,,63,105
505920,note_on,48,0,8,,,,,,,,7,,,51,105
505920,note_on,48,0,6,,,,,,,,5,,,63,105
506304,note_on,384,0,2,,,,,,,,1,,,51,0
506304,note_on,384,0,7,,,,,,,,6,,,63,0
506304,note_on,384,0,8,,,,,,,,7,,,51,0
506304,note_on,384,0,6,,,,,,,,5,,,63,0
506304,note_on,384,0,5,,,,,,,,4,,,63,0
506304,note_on,384,0,9,,,,,,,,8,,,39,0
506400,note_on,96,0,8,,,,,,,,7,,,53,105
506400,note_on,96,0,2,,,,,,,,1,,,53,105
506400,note_on,96,0,9,,,,,,,,8,,,41,105
506400,note_on,96,0,7,,,,,,,,6,,,65,105
506400,note_on,96,0,5,,,,,,,,4,,,65,105
506400,note_on,96,0,6,,,,,,,,5,,,65,105
506592,note_on,192,0,7,,,,,,,,6,,,65,0
506592,note_on,192,0,9,,,,,,,,8,,,41,0
506592,note_on,192,0,6,,,,,,,,5,,,65,0
506592,note_on,192,0,5,,,,,,,,4,,,65,0
506592,note_on,192,0,2,,,,,,,,1,,,53,0
506592,note_on,192,0,8,,,,,,,,7,,,53,0
506640,note_on,48,0,8,,,,,,,,7,,,50,105
506640,note_on,48,0,7,,,,,,,,6,,,62,105
506640,note_on,48,0,9,,,,,,,,8,,,38,105
506640,note_on,48,0,5,,,,,,,,4,,,62,105
506640,note_on,48,0,2,,,,,,,,1,,,50,105
506640,note_on,48,0,6,,,,,,,,5,,,62,105
506832,note_on,192,0,5,,,,,,,,4,,,62,0
506832,note_on,192,0,6,,,,,,,,5,,,62,0
506832,note_on,192,0,2,,,,,,,,1,,,50,0
506832,note_on,192,0,8,,,,,,,,7,,,50,0
506832,note_on,192,0,7,,,,,,,,6,,,62,0
506832,note_on,192,0,9,,,,,,,,8,,,38,0
506880,note_on,48,0,5,,,,,,,,4,,,60,105
506880,note_on,48,0,2,,,,,,,,1,,,48,105
506880,note_on,48,0,9,,,,,,,,8,,,36,105
506880,note_on,48,0,6,,,,,,,,5,,,60,105
506880,note_on,48,0,7,,,,,,,,6,,,60,105
506880,note_on,48,0,8,,,,,,,,7,,,48,105
507264,note_on,384,0,5,,,,,,,,4,,,60,0
507264,note_on,384,0,7,,,,,,,,6,,,60,0
507264,note_on,384,0,2,,,,,,,,1,,,48,0
507264,note_on,384,0,9,,,,,,,,8,,,36,0
507264,note_on,384,0,8,,,,,,,,7,,,48,0
507264,note_on,384,0,6,,,,,,,,5,,,60,0
507360,note_on,96,0,7,,,,,,,,6,,,62,105
507360,note_on,96,0,8,,,,,,,,7,,,50,105
507360,note_on,96,0,9,,,,,,,,8,,,38,105
507360,note_on,96,0,5,,,,,,,,4,,,62,105
507360,note_on,96,0,2,,,,,,,,1,,,50,105
507360,note_on,96,0,6,,,,,,,,5,,,62,105
507552,note_on,192,0,6,,,,,,,,5,,,62,0
507552,note_on,192,0,8,,,,,,,,7,,,50,0
507552,note_on,192,0,5,,,,,,,,4,,,62,0
507552,note_on,192,0,7,,,,,,,,6,,,62,0
507552,note_on,192,0,2,,,,,,,,1,,,50,0
507552,note_on,192,0,9,,,,,,,,8,,,38,0
507600,note_on,48,0,6,,,,,,,,5,,,58,105
507600,note_on,48,0,7,,,,,,,,6,,,58,105
507600,note_on,48,0,8,,,,,,,,7,,,46,105
507600,note_on,48,0,5,,,,,,,,4,,,58,105
507600,note_on,48,0,2,,,,,,,,1,,,46,105
507600,note_on,48,0,9,,,,,,,,8,,,34,105
507792,note_on,192,0,9,,,,,,,,8,,,34,0
507792,note_on,192,0,7,,,,,,,,6,,,58,0
507792,note_on,192,0,8,,,,,,,,7,,,46,0
507792,note_on,192,0,2,,,,,,,,1,,,46,0
507792,note_on,192,0,5,,,,,,,,4,,,58,0
507792,note_on,192,0,6,,,,,,,,5,,,58,0
507840,note_on,48,0,9,,,,,,,,8,,,33,105
507840,note_on,48,0,8,,,,,,,,7,,,45,105
507840,note_on,48,0,6,,,,,,,,5,,,57,105
507840,note_on,48,0,2,,,,,,,,1,,,45,105
507840,note_on,48,0,5,,,,,,,,4,,,57,105
507840,note_on,48,0,7,,,,,,,,6,,,57,105
508224,note_on,384,0,5,,,,,,,,4,,,57,0
508224,note_on,384,0,9,,,,,,,,8,,,33,0
508224,note_on,384,0,2,,,,,,,,1,,,45,0
508224,note_on,384,0,6,,,,,,,,5,,,57,0
508224,note_on,384,0,7,,,,,,,,6,,,57,0
508224,note_on,384,0,8,,,,,,,,7,,,45,0
508320,note_on,96,0,2,,,,,,,,1,,,46,105
508320,note_on,96,0,8,,,,,,,,7,,,46,105
508320,note_on,96,0,9,,,,,,,,8,,,34,105
508320,note_on,96,0,6,,,,,,,,5,,,58,105
508320,note_on,96,0,5,,,,,,,,4,,,58,105
508320,note_on,96,0,7,,,,,,,,6,,,58,105
508512,note_on,192,0,7,,,,,,,,6,,,58,0
508512,note_on,192,0,8,,,,,,,,7,,,46,0
508512,note_on,192,0,5,,,,,,,,4,,,58,0
508512,note_on,192,0,9,,,,,,,,8,,,34,0
508512,note_on,192,0,6,,,,,,,,5,,,58,0
508512,note_on,192,0,2,,,,,,,,1,,,46,0
508560,note_on,48,0,8,,,,,,,,7,,,43,105
508560,note_on,48,0,6,,,,,,,,5,,,55,105
508560,note_on,48,0,2,,,,,,,,1,,,43,105
508560,note_on,48,0,9,,,,,,,,8,,,31,105
508560,note_on,48,0,7,,,,,,,,6,,,55,105
508560,note_on,48,0,5,,,,,,,,4,,,55,105
508752,note_on,192,0,6,,,,,,,,5,,,55,0
508752,note_on,192,0,7,,,,,,,,6,,,55,0
508752,note_on,192,0,5,,,,,,,,4,,,55,0
508752,note_on,192,0,2,,,,,,,,1,,,43,0
508752,note_on,192,0,9,,,,,,,,8,,,31,0
508752,note_on,192,0,8,,,,,,,,7,,,43,0
508800,note_on,48,0,8,,,,,,,,7,,,49,105
508800,note_on,48,0,2,,,,,,,,1,,,49,105
508800,note_on,48,0,5,,,,,,,,4,,,82,105
508800,note_on,48,0,9,,,,,,,,8,,,37,105
508800,note_on,48,0,6,,,,,,,,5,,,82,105
508800,note_on,48,0,7,,,,,,,,6,,,61,105
508992,note_on,192,0,6,,,,,,,,5,,,82,0
508992,note_on,192,0,5,,,,,,,,4,,,82,0
509040,note_on,48,0,5,,,,,,,,4,,,82,105
509040,note_on,48,0,6,,,,,,,,5,,,82,105
509184,note_on,384,0,7,,,,,,,,6,,,61,0
509184,note_on,384,0,2,,,,,,,,1,,,49,0
509184,note_on,384,0,8,,,,,,,,7,,,49,0
509184,note_on,384,0,9,,,,,,,,8,,,37,0
509232,note_on,192,0,6,,,,,,,,5,,,82,0
509232,note_on,192,0,5,,,,,,,,4,,,82,0
509280,note_on,48,0,5,,,,,,,,4,,,79,105
509280,note_on,48,0,6,,,,,,,,5,,,79,105
509472,note_on,192,0,5,,,,,,,,4,,,79,0
509472,note_on,192,0,6,,,,,,,,5,,,79,0
509520,note_on,48,0,6,,,,,,,,5,,,79,105
509520,note_on,48,0,5,,,,,,,,4,,,79,105
509712,note_on,192,0,6,,,,,,,,5,,,79,0
509712,note_on,192,0,5,,,,,,,,4,,,79,0
509760,note_on,48,0,5,,,,,,,,4,,,76,105
509760,note_on,48,0,6,,,,,,,,5,,,76,105
509952,note_on,192,0,5,,,,,,,,4,,,76,0
509952,note_on,192,0,6,,,,,,,,5,,,76,0
510000,note_on,48,0,6,,,,,,,,5,,,76,105
510000,note_on,48,0,5,,,,,,,,4,,,76,105
510192,note_on,192,0,6,,,,,,,,5,,,76,0
510192,note_on,192,0,5,,,,,,,,4,,,76,0
510240,note_on,48,0,6,,,,,,,,5,,,73,105
510240,note_on,48,0,5,,,,,,,,4,,,73,105
510432,note_on,192,0,5,,,,,,,,4,,,73,0
510432,note_on,192,0,6,,,,,,,,5,,,73,0
510480,note_on,48,0,5,,,,,,,,4,,,73,105
510480,note_on,48,0,6,,,,,,,,5,,,73,105
510672,note_on,192,0,5,,,,,,,,4,,,73,0
510672,note_on,192,0,6,,,,,,,,5,,,73,0
510720,note_on,1536,0,9,,,,,,,,8,,,46,105
510720,note_on,1536,0,7,,,,,,,,6,,,70,105
510720,note_on,48,0,6,,,,,,,,5,,,70,105
510720,note_on,1536,0,2,,,,,,,,1,,,58,105
510720,note_on,12672,0,4,,,,,,,,3,,,55,105
510720,note_on,12672,0,1,,,,,,,,0,,,79,105
510720,note_on,14016,0,3,,,,,,,,2,,,58,105
510720,note_on,1536,0,8,,,,,,,,7,,,58,105
510720,note_on,0,0,4,,,,,,,,3,,,67,105
510720,note_on,0,0,3,,,,,,,,2,,,70,105
510720,note_on,0,0,1,,,,,,,,0,,,82,105
510720,note_on,48,0,5,,,,,,,,4,,,70,105
510912,note_on,192,0,6,,,,,,,,5,,,70,0
510912,note_on,192,0,5,,,,,,,,4,,,70,0
510960,note_on,48,0,6,,,,,,,,5,,,70,105
510960,note_on,48,0,5,,,,,,,,4,,,70,105
511032,note_on,312,0,9,,,,,,,,8,,,46,0
511032,note_on,312,0,2,,,,,,,,1,,,58,0
511032,note_on,312,0,8,,,,,,,,7,,,58,0
511032,note_on,312,0,7,,,,,,,,6,,,70,0
511152,note_on,192,0,5,,,,,,,,4,,,70,0
511152,note_on,192,0,6,,,,,,,,5,,,70,0
511200,note_on,168,0,2,,,,,,,,1,,,55,105
511200,note_on,48,0,5,,,,,,,,4,,,67,105
511200,note_on,168,0,9,,,,,,,,8,,,43,105
511200,note_on,168,0,7,,,,,,,,6,,,67,105
511200,note_on,168,0,8,,,,,,,,7,,,55,105
511200,note_on,48,0,6,,,,,,,,5,,,67,105
511392,note_on,192,0,5,,,,,,,,4,,,67,0
511392,note_on,192,0,6,,,,,,,,5,,,67,0
511440,note_on,48,0,6,,,,,,,,5,,,67,105
511440,note_on,48,0,5,,,,,,,,4,,,67,105
511512,note_on,312,0,8,,,,,,,,7,,,55,0
511512,note_on,312,0,7,,,,,,,,6,,,67,0
511512,note_on,312,0,2,,,,,,,,1,,,55,0
511512,note_on,312,0,9,,,,,,,,8,,,43,0
511632,note_on,192,0,6,,,,,,,,5,,,67,0
511632,note_on,192,0,5,,,,,,,,4,,,67,0
511680,note_on,48,0,6,,,,,,,,5,,,64,105
511680,note_on,168,0,7,,,,,,,,6,,,64,105
511680,note_on,168,0,2,,,,,,,,1,,,52,105
511680,note_on,168,0,9,,,,,,,,8,,,40,105
511680,note_on,168,0,8,,,,,,,,7,,,52,105
511680,note_on,48,0,5,,,,,,,,4,,,64,105
511872,note_on,192,0,6,,,,,,,,5,,,64,0
511872,note_on,192,0,5,,,,,,,,4,,,64,0
511920,note_on,48,0,6,,,,,,,,5,,,64,105
511920,note_on,48,0,5,,,,,,,,4,,,64,105
511992,note_on,312,0,7,,,,,,,,6,,,64,0
511992,note_on,312,0,8,,,,,,,,7,,,52,0
511992,note_on,312,0,9,,,,,,,,8,,,40,0
511992,note_on,312,0,2,,,,,,,,1,,,52,0
512112,note_on,192,0,5,,,,,,,,4,,,64,0
512112,note_on,192,0,6,,,,,,,,5,,,64,0
512160,note_on,168,0,2,,,,,,,,1,,,49,105
512160,note_on,48,0,5,,,,,,,,4,,,61,105
512160,note_on,48,0,6,,,,,,,,5,,,61,105
512160,note_on,168,0,8,,,,,,,,7,,,49,105
512160,note_on,168,0,9,,,,,,,,8,,,37,105
512160,note_on,168,0,7,,,,,,,,6,,,61,105
512352,note_on,192,0,6,,,,,,,,5,,,61,0
512352,note_on,192,0,5,,,,,,,,4,,,61,0
512400,note_on,48,0,5,,,,,,,,4,,,61,105
512400,note_on,48,0,6,,,,,,,,5,,,61,105
512472,note_on,312,0,7,,,,,,,,6,,,61,0
512472,note_on,312,0,8,,,,,,,,7,,,49,0
512472,note_on,312,0,9,,,,,,,,8,,,37,0
512472,note_on,312,0,2,,,,,,,,1,,,49,0
512592,note_on,192,0,5,,,,,,,,4,,,61,0
512592,note_on,192,0,6,,,,,,,,5,,,61,0
512640,note_on,168,0,8,,,,,,,,7,,,50,105
512640,note_on,1920,0,3,,,,,,,,2,,,58,0
512640,note_on,0,0,3,,,,,,,,2,,,62,105
512640,note_on,1920,0,4,,,,,,,,3,,,55,0
512640,note_on,168,0,2,,,,,,,,1,,,50,105
512640,note_on,168,0,9,,,,,,,,8,,,38,105
512640,note_on,48,0,6,,,,,,,,5,,,62,116
512640,note_on,0,0,4,,,,,,,,3,,,50,105
512640,note_on,48,0,5,,,,,,,,4,,,62,116
512640,note_on,168,0,7,,,,,,,,6,,,62,105
512952,note_on,312,0,9,,,,,,,,8,,,38,0
512952,note_on,312,0,7,,,,,,,,6,,,62,0
512952,note_on,312,0,8,,,,,,,,7,,,50,0
512952,note_on,312,0,2,,,,,,,,1,,,50,0
513024,note_on,384,0,6,,,,,,,,5,,,62,0
513024,note_on,0,0,1,,,,,,,,0,,,79,0
513024,note_on,0,0,3,,,,,,,,2,,,70,0
513024,note_on,2304,0,1,,,,,,,,0,,,82,0
513024,note_on,384,0,4,,,,,,,,3,,,50,0
513024,note_on,0,0,4,,,,,,,,3,,,67,0
513024,note_on,384,0,5,,,,,,,,4,,,62,0
513024,note_on,384,0,3,,,,,,,,2,,,62,0
513120,note_on,96,0,6,,,,,,,,5,,,67,116
513120,set_tempo,8160,1,0,,,,,,304569,,,,,,
513120,note_on,96,0,5,,,,,,,,4,,,67,116
513312,note_on,192,0,5,,,,,,,,4,,,67,0
513312,note_on,192,0,6,,,,,,,,5,,,67,0
513360,note_on,48,0,6,,,,,,,,5,,,66,116
513360,note_on,48,0,5,,,,,,,,4,,,66,116
513552,note_on,192,0,5,,,,,,,,4,,,66,0
513552,note_on,192,0,6,,,,,,,,5,,,66,0
513600,note_on,48,0,6,,,,,,,,5,,,67,116
513600,note_on,48,0,5,,,,,,,,4,,,67,116
513600,set_tempo,480,1,0,,,,,,310881,,,,,,
513984,note_on,384,0,6,,,,,,,,5,,,67,0
513984,note_on,384,0,5,,,,,,,,4,,,67,0
514080,note_on,1128,0,2,,,,,,,,1,,,63,105
514080,set_tempo,480,1,0,,,,,,315789,,,,,,
514080,note_on,1056,0,1,,,,,,,,0,,,75,105
514080,note_on,1128,0,8,,,,,,,,7,,,63,105
514080,note_on,1128,0,7,,,,,,,,6,,,63,105
514080,note_on,1128,0,9,,,,,,,,8,,,51,105
514080,note_on,96,0,5,,,,,,,,4,,,75,116
514080,note_on,96,0,6,,,,,,,,5,,,75,116
514272,note_on,192,0,6,,,,,,,,5,,,75,0
514272,note_on,192,0,1,,,,,,,,0,,,75,0
514272,note_on,192,0,8,,,,,,,,7,,,63,0
514272,note_on,192,0,7,,,,,,,,6,,,63,0
514272,note_on,192,0,5,,,,,,,,4,,,75,0
514272,note_on,192,0,9,,,,,,,,8,,,51,0
514272,note_on,192,0,2,,,,,,,,1,,,63,0
514320,note_on,48,0,8,,,,,,,,7,,,62,105
514320,note_on,48,0,9,,,,,,,,8,,,50,105
514320,note_on,48,0,7,,,,,,,,6,,,62,105
514320,note_on,48,0,2,,,,,,,,1,,,62,105
514320,note_on,48,0,6,,,,,,,,5,,,74,116
514320,note_on,48,0,5,,,,,,,,4,,,74,116
514320,note_on,48,0,1,,,,,,,,0,,,74,105
514512,note_on,192,0,8,,,,,,,,7,,,62,0
514512,note_on,192,0,9,,,,,,,,8,,,50,0
514512,note_on,192,0,2,,,,,,,,1,,,62,0
514512,note_on,192,0,7,,,,,,,,6,,,62,0
514512,note_on,192,0,5,,,,,,,,4,,,74,0
514512,note_on,192,0,6,,,,,,,,5,,,74,0
514512,note_on,192,0,1,,,,,,,,0,,,74,0
514560,note_on,48,0,1,,,,,,,,0,,,75,105
514560,note_on,48,0,7,,,,,,,,6,,,63,105
514560,note_on,48,0,2,,,,,,,,1,,,63,105
514560,note_on,48,0,8,,,,,,,,7,,,63,105
514560,note_on,48,0,5,,,,,,,,4,,,75,116
514560,set_tempo,480,1,0,,,,,,320856,,,,,,
514560,note_on,48,0,6,,,,,,,,5,,,75,116
514560,note_on,48,0,9,,,,,,,,8,,,51,105
514944,note_on,384,0,2,,,,,,,,1,,,63,0
514944,note_on,384,0,1,,,,,,,,0,,,75,0
514944,note_on,384,0,6,,,,,,,,5,,,75,0
514944,note_on,384,0,8,,,,,,,,7,,,63,0
514944,note_on,384,0,7,,,,,,,,6,,,63,0
514944,note_on,384,0,9,,,,,,,,8,,,51,0
514944,note_on,384,0,5,,,,,,,,4,,,75,0
515040,set_tempo,480,1,0,,,,,,327869,,,,,,
515040,note_on,96,0,5,,,,,,,,4,,,69,116
515040,note_on,96,0,6,,,,,,,,5,,,69,116
515232,note_on,192,0,5,,,,,,,,4,,,69,0
515232,note_on,192,0,6,,,,,,,,5,,,69,0
515280,note_on,48,0,5,,,,,,,,4,,,68,116
515280,note_on,48,0,6,,,,,,,,5,,,68,116
515472,note_on,192,0,5,,,,,,,,4,,,68,0
515472,note_on,192,0,6,,,,,,,,5,,,68,0
515520,note_on,48,0,5,,,,,,,,4,,,69,116
515520,set_tempo,480,1,0,,,,,,331492,,,,,,
515520,note_on,48,0,6,,,,,,,,5,,,69,116
515904,note_on,384,0,5,,,,,,,,4,,,69,0
515904,note_on,384,0,6,,,,,,,,5,,,69,0
516000,note_on,96,0,6,,,,,,,,5,,,74,116
516000,note_on,96,0,5,,,,,,,,4,,,74,116
516000,note_on,1056,0,7,,,,,,,,6,,,62,105
516000,note_on,1056,0,2,,,,,,,,1,,,62,105
516000,note_on,1056,0,8,,,,,,,,7,,,62,105
516000,note_on,1056,0,9,,,,,,,,8,,,50,105
516000,set_tempo,480,1,0,,,,,,337079,,,,,,
516000,note_on,1056,0,1,,,,,,,,0,,,74,105
516192,note_on,192,0,5,,,,,,,,4,,,74,0
516192,note_on,192,0,9,,,,,,,,8,,,50,0
516192,note_on,192,0,7,,,,,,,,6,,,62,0
516192,note_on,192,0,1,,,,,,,,0,,,74,0
516192,note_on,192,0,2,,,,,,,,1,,,62,0
516192,note_on,192,0,6,,,,,,,,5,,,74,0
516192,note_on,192,0,8,,,,,,,,7,,,62,0
516240,note_on,48,0,1,,,,,,,,0,,,73,105
516240,note_on,48,0,5,,,,,,,,4,,,73,116
516240,note_on,48,0,2,,,,,,,,1,,,61,105
516240,note_on,48,0,7,,,,,,,,6,,,61,105
516240,note_on,48,0,9,,,,,,,,8,,,49,105
516240,note_on,48,0,6,,,,,,,,5,,,73,116
516240,note_on,48,0,8,,,,,,,,7,,,61,105
516432,note_on,192,0,6,,,,,,,,5,,,73,0
516432,note_on,192,0,2,,,,,,,,1,,,61,0
516432,note_on,192,0,9,,,,,,,,8,,,49,0
516432,note_on,192,0,8,,,,,,,,7,,,61,0
516432,note_on,192,0,7,,,,,,,,6,,,61,0
516432,note_on,192,0,5,,,,,,,,4,,,73,0
516432,note_on,192,0,1,,,,,,,,0,,,73,0
516480,set_tempo,480,1,0,,,,,,405405,,,,,,
516480,note_on,48,0,9,,,,,,,,8,,,50,105
516480,note_on,48,0,1,,,,,,,,0,,,74,105
516480,note_on,48,0,8,,,,,,,,7,,,62,105
516480,note_on,48,0,7,,,,,,,,6,,,62,105
516480,note_on,48,0,5,,,,,,,,4,,,74,116
516480,note_on,48,0,2,,,,,,,,1,,,62,105
516480,note_on,48,0,6,,,,,,,,5,,,74,116
517248,note_on,768,0,6,,,,,,,,5,,,74,0
517248,note_on,768,0,1,,,,,,,,0,,,74,0
517248,note_on,768,0,9,,,,,,,,8,,,50,0
517248,note_on,768,0,2,,,,,,,,1,,,62,0
517248,note_on,768,0,8,,,,,,,,7,,,62,0
517248,note_on,768,0,5,,,,,,,,4,,,74,0
517248,note_on,768,0,7,,,,,,,,6,,,62,0
517440,note_on,192,0,6,,,,,,,,5,,,78,116
517440,note_on,0,0,6,,,,,,,,5,,,69,116
517440,note_on,4416,0,4,,,,,,,,3,,,50,105
517440,note_on,0,0,4,,,,,,,,3,,,69,105
517440,note_on,192,0,5,,,,,,,,4,,,62,105
517440,note_on,0,0,5,,,,,,,,4,,,69,105
517440,note_on,0,0,5,,,,,,,,4,,,78,105
517440,note_on,192,0,8,,,,,,,,7,,,50,105
517440,note_on,192,0,7,,,,,,,,6,,,62,105
517440,note_on,4416,0,3,,,,,,,,2,,,62,105
517440,note_on,192,0,1,,,,,,,,0,,,72,105
517440,note_on,0,0,1,,,,,,,,0,,,78,105
517440,note_on,192,0,2,,,,,,,,1,,,50,105
517440,note_on,192,0,9,,,,,,,,8,,,38,105
517440,note_on,0,0,6,,,,,,,,5,,,62,116
518208,note_on,768,0,6,,,,,,,,5,,,62,0
518208,note_on,768,0,7,,,,,,,,6,,,62,0
518208,note_on,0,0,6,,,,,,,,5,,,78,0
518208,note_on,768,0,1,,,,,,,,0,,,78,0
518208,note_on,0,0,1,,,,,,,,0,,,72,0
518208,note_on,0,0,6,,,,,,,,5,,,69,0
518208,note_on,0,0,4,,,,,,,,3,,,50,0
518208,note_on,768,0,3,,,,,,,,2,,,62,0
518208,note_on,768,0,4,,,,,,,,3,,,69,0
518208,note_on,768,0,5,,,,,,,,4,,,78,0
518208,note_on,0,0,5,,,,,,,,4,,,69,0
518208,note_on,0,0,5,,,,,,,,4,,,62,0
518208,note_on,768,0,8,,,,,,,,7,,,50,0
518208,note_on,768,0,2,,,,,,,,1,,,50,0
518208,note_on,768,0,9,,,,,,,,8,,,38,0
518400,note_on,192,0,3,,,,,,,,2,,,62,105
518400,note_on,192,0,8,,,,,,,,7,,,55,105
518400,set_tempo,1920,1,0,,,,,,526316,,,,,,
518400,note_on,192,0,2,,,,,,,,1,,,55,105
518400,note_on,192,0,9,,,,,,,,8,,,43,105
518400,note_on,192,0,1,,,,,,,,0,,,70,105
518400,note_on,0,0,3,,,,,,,,2,,,58,105
518400,note_on,0,0,1,,,,,,,,0,,,79,105
518400,note_on,192,0,5,,,,,,,,4,,,79,105
518400,note_on,0,0,5,,,,,,,,4,,,55,105
518400,note_on,0,0,5,,,,,,,,4,,,62,105
518400,note_on,192,0,4,,,,,,,,3,,,67,105
518400,note_on,0,0,4,,,,,,,,3,,,55,105
518400,note_on,0,0,7,,,,,,,,6,,,62,105
518400,note_on,192,0,7,,,,,,,,6,,,55,105
518400,note_on,192,0,6,,,,,,,,5,,,79,105
518400,note_on,0,0,6,,,,,,,,5,,,70,105
518400,note_on,0,0,6,,,,,,,,5,,,62,105
518400,note_on,0,0,6,,,,,,,,5,,,55,105
518400,note_on,0,0,5,,,,,,,,4,,,70,105
519360,end_of_track,0,1,2,,,,,,,,,,,,
519360,note_on,960,0,2,,,,,,,,1,,,55,0
519360,note_on,0,0,5,,,,,,,,4,,,79,0
519360,note_on,0,0,5,,,,,,,,4,,,70,0
519360,note_on,0,0,1,,,,,,,,0,,,70,0
519360,end_of_track,0,1,5,,,,,,,,,,,,
519360,end_of_track,0,1,4,,,,,,,,,,,,
519360,note_on,960,0,5,,,,,,,,4,,,55,0
519360,note_on,960,0,4,,,,,,,,3,,,55,0
519360,note_on,960,0,9,,,,,,,,8,,,43,0
519360,note_on,0,0,5,,,,,,,,4,,,62,0
519360,note_on,0,0,4,,,,,,,,3,,,67,0
519360,note_on,960,0,8,,,,,,,,7,,,55,0
519360,note_on,0,0,3,,,,,,,,2,,,62,0
519360,end_of_track,0,1,7,,,,,,,,,,,,
519360,note_on,0,0,7,,,,,,,,6,,,55,0
519360,note_on,960,0,7,,,,,,,,6,,,62,0
519360,note_on,960,0,6,,,,,,,,5,,,55,0
519360,end_of_track,0,1,3,,,,,,,,,,,,
519360,note_on,960,0,3,,,,,,,,2,,,58,0
519360,end_of_track,0,1,1,,,,,,,,,,,,
519360,note_on,0,0,6,,,,,,,,5,,,70,0
519360,note_on,0,0,6,,,,,,,,5,,,62,0
519360,end_of_track,0,1,6,,,,,,,,,,,,
519360,note_on,960,0,1,,,,,,,,0,,,79,0
519360,end_of_track,0,1,8,,,,,,,,,,,,
519360,note_on,0,0,6,,,,,,,,5,,,79,0
520320,end_of_track,0,1,0,,,,,,,,,,,,
520320,note_on,960,0,9,,,,,,,,8,,,31,1
520320,set_tempo,1920,1,0,,,,,,1000000,,,,,,
521856,end_of_track,0,1,9,,,,,,,,,,,,
521856,note_on,1536,0,9,,,,,,,,8,,,31,0
