tick,type,time,meta,track,tempo,numerator,denominator,clocks_per_click,notated_32nd_notes_per_beat,port,program,channel,control,value,note,velocity
0,track_name,0,1,0,,,,,,,,,,,,
0,program_change,0,0,2,,,,,,,0,1,,,,
0,control_change,0,0,2,,,,,,,,1,7,127,,
0,control_change,0,0,2,,,,,,,,1,10,64,,
0,note_on,0,0,2,,,,,,,,1,,,48,92
0,track_name,0,1,2,,,,,,,,,,,,
0,note_on,0,0,1,,,,,,,,0,,,72,92
0,control_change,0,0,1,,,,,,,,0,10,64,,
0,control_change,0,0,1,,,,,,,,0,7,127,,
0,program_change,0,0,1,,,,,,,0,0,,,,
0,midi_port,0,1,2,,,,,,0,,,,,,
0,midi_port,0,1,1,,,,,,0,,,,,,
0,copyright,0,1,0,,,,,,,,,,,,
0,track_name,0,1,1,,,,,,,,,,,,
0,copyright,0,1,0,,,,,,,,,,,,
0,set_tempo,0,1,0,428571,,,,,,,,,,,
0,time_signature,0,1,0,,2,2,24,8,,,,,,,
0,text,0,1,0,,,,,,,,,,,,
0,text,0,1,0,,,,,,,,,,,,
160,note_on,160,0,1,,,,,,,,0,,,72,0
160,note_on,160,0,2,,,,,,,,1,,,48,0
288,note_on,128,0,2,,,,,,,,1,,,43,92
288,note_on,128,0,1,,,,,,,,0,,,67,92
320,note_on,32,0,2,,,,,,,,1,,,43,0
320,note_on,32,0,1,,,,,,,,0,,,67,0
384,note_on,64,0,1,,,,,,,,0,,,72,92
384,note_on,64,0,2,,,,,,,,1,,,48,92
544,note_on,160,0,2,,,,,,,,1,,,48,0
544,note_on,160,0,1,,,,,,,,0,,,72,0
672,note_on,128,0,1,,,,,,,,0,,,67,92
672,note_on,128,0,2,,,,,,,,1,,,43,92
704,note_on,32,0,2,,,,,,,,1,,,43,0
704,note_on,32,0,1,,,,,,,,0,,,67,0
768,note_on,64,0,2,,,,,,,,1,,,48,92
768,note_on,64,0,1,,,,,,,,0,,,72,92
800,note_on,32,0,1,,,,,,,,0,,,72,0
800,note_on,32,0,2,,,,,,,,1,,,48,0
864,note_on,64,0,2,,,,,,,,1,,,52,92
864,note_on,64,0,1,,,,,,,,0,,,76,92
896,note_on,32,0,1,,,,,,,,0,,,76,0
896,note_on,32,0,2,,,,,,,,1,,,52,0
960,note_on,64,0,2,,,,,,,,1,,,55,92
960,note_on,64,0,1,,,,,,,,0,,,79,92
992,note_on,32,0,1,,,,,,,,0,,,79,0
992,note_on,32,0,2,,,,,,,,1,,,55,0
1056,note_on,64,0,1,,,,,,,,0,,,76,92
1056,note_on,64,0,2,,,,,,,,1,,,52,92
1088,note_on,32,0,2,,,,,,,,1,,,52,0
1088,note_on,32,0,1,,,,,,,,0,,,76,0
1152,note_on,64,0,2,,,,,,,,1,,,48,92
1152,note_on,64,0,1,,,,,,,,0,,,72,92
1312,note_on,160,0,1,,,,,,,,0,,,72,0
1312,note_on,160,0,2,,,,,,,,1,,,48,0
1536,note_on,224,0,1,,,,,,,,0,,,67,45
1536,note_on,0,0,1,,,,,,,,0,,,76,45
1584,note_on,48,0,1,,,,,,,,0,,,67,0
1584,note_on,0,0,1,,,,,,,,0,,,76,0
1728,note_on,0,0,1,,,,,,,,0,,,77,45
1728,note_on,144,0,1,,,,,,,,0,,,69,45
2112,note_on,384,0,1,,,,,,,,0,,,69,0
2112,note_on,0,0,1,,,,,,,,0,,,77,0
2112,note_on,0,0,1,,,,,,,,0,,,67,45
2112,note_on,0,0,1,,,,,,,,0,,,76,45
2272,note_on,0,0,1,,,,,,,,0,,,76,0
2272,note_on,160,0,1,,,,,,,,0,,,67,0
2304,note_on,992,0,2,,,,,,,,1,,,55,45
2304,note_on,32,0,1,,,,,,,,0,,,67,45
2304,note_on,0,0,1,,,,,,,,0,,,76,45
2400,note_on,0,0,1,,,,,,,,0,,,74,45
2400,note_on,96,0,1,,,,,,,,0,,,67,0
2400,note_on,0,0,1,,,,,,,,0,,,76,0
2400,note_on,0,0,1,,,,,,,,0,,,65,45
2464,note_on,160,0,2,,,,,,,,1,,,55,0
2494,note_on,94,0,1,,,,,,,,0,,,65,0
2494,note_on,0,0,1,,,,,,,,0,,,74,0
2496,note_on,32,0,2,,,,,,,,1,,,55,45
2496,note_on,0,0,1,,,,,,,,0,,,74,45
2496,note_on,2,0,1,,,,,,,,0,,,65,45
2592,note_on,96,0,1,,,,,,,,0,,,74,0
2592,note_on,0,0,1,,,,,,,,0,,,71,45
2656,note_on,64,0,1,,,,,,,,0,,,65,0
2656,note_on,160,0,2,,,,,,,,1,,,55,0
2686,note_on,30,0,1,,,,,,,,0,,,71,0
2688,note_on,32,0,2,,,,,,,,1,,,60,45
2688,note_on,0,0,1,,,,,,,,0,,,72,45
2688,note_on,2,0,1,,,,,,,,0,,,64,45
2720,note_on,32,0,2,,,,,,,,1,,,60,0
2784,note_on,64,0,2,,,,,,,,1,,,48,45
2848,note_on,0,0,1,,,,,,,,0,,,72,0
2848,note_on,160,0,1,,,,,,,,0,,,64,0
2880,note_on,0,0,2,,,,,,,,1,,,52,45
2880,note_on,96,0,2,,,,,,,,1,,,48,0
2976,note_on,96,0,2,,,,,,,,1,,,52,0
2976,note_on,0,0,2,,,,,,,,1,,,55,45
3070,note_on,94,0,2,,,,,,,,1,,,55,0
3072,note_on,224,0,1,,,,,,,,0,,,76,45
3072,note_on,0,0,1,,,,,,,,0,,,79,45
3072,note_on,2,0,2,,,,,,,,1,,,60,45
3120,note_on,48,0,1,,,,,,,,0,,,76,0
3120,note_on,0,0,1,,,,,,,,0,,,79,0
3232,note_on,160,0,2,,,,,,,,1,,,60,0
3264,note_on,0,0,1,,,,,,,,0,,,81,45
3264,note_on,144,0,1,,,,,,,,0,,,77,45
3648,note_on,0,0,1,,,,,,,,0,,,79,45
3648,note_on,384,0,1,,,,,,,,0,,,77,0
3648,note_on,0,0,1,,,,,,,,0,,,81,0
3648,note_on,0,0,1,,,,,,,,0,,,76,45
3808,note_on,160,0,1,,,,,,,,0,,,76,0
3808,note_on,0,0,1,,,,,,,,0,,,79,0
3840,note_on,32,0,1,,,,,,,,0,,,76,45
3840,note_on,0,0,1,,,,,,,,0,,,79,45
3840,note_on,608,0,2,,,,,,,,1,,,55,45
3936,note_on,96,0,1,,,,,,,,0,,,76,0
3936,note_on,0,0,1,,,,,,,,0,,,79,0
3936,note_on,0,0,1,,,,,,,,0,,,74,45
3936,note_on,0,0,1,,,,,,,,0,,,77,45
4000,note_on,160,0,2,,,,,,,,1,,,55,0
4030,note_on,0,0,1,,,,,,,,0,,,77,0
4030,note_on,94,0,1,,,,,,,,0,,,74,0
4032,note_on,0,0,1,,,,,,,,0,,,77,45
4032,note_on,32,0,2,,,,,,,,1,,,55,45
4032,note_on,2,0,1,,,,,,,,0,,,74,45
4128,note_on,0,0,1,,,,,,,,0,,,77,0
4128,note_on,0,0,1,,,,,,,,0,,,71,45
4128,note_on,0,0,1,,,,,,,,0,,,74,45
4128,note_on,96,0,1,,,,,,,,0,,,74,0
4192,note_on,160,0,2,,,,,,,,1,,,55,0
4222,note_on,94,0,1,,,,,,,,0,,,71,0
4222,note_on,0,0,1,,,,,,,,0,,,74,0
4224,note_on,2,0,1,,,,,,,,0,,,72,45
4224,note_on,0,0,1,,,,,,,,0,,,76,45
4224,note_on,32,0,2,,,,,,,,1,,,60,45
4256,note_on,32,0,2,,,,,,,,1,,,60,0
4320,note_on,64,0,2,,,,,,,,1,,,48,45
4384,note_on,160,0,1,,,,,,,,0,,,72,0
4384,note_on,0,0,1,,,,,,,,0,,,76,0
4416,note_on,96,0,2,,,,,,,,1,,,48,0
4416,note_on,0,0,2,,,,,,,,1,,,52,45
4512,note_on,0,0,2,,,,,,,,1,,,55,45
4512,note_on,96,0,2,,,,,,,,1,,,52,0
4606,note_on,94,0,2,,,,,,,,1,,,55,0
4608,note_on,0,0,1,,,,,,,,0,,,84,92
4608,note_on,224,0,1,,,,,,,,0,,,72,92
4608,note_on,2,0,2,,,,,,,,1,,,60,92
4640,note_on,32,0,2,,,,,,,,1,,,60,0
4704,note_on,0,0,1,,,,,,,,0,,,79,92
4704,note_on,96,0,1,,,,,,,,0,,,84,0
4704,note_on,64,0,2,,,,,,,,1,,,52,92
4798,note_on,94,0,1,,,,,,,,0,,,79,0
4800,note_on,96,0,2,,,,,,,,1,,,52,0
4800,note_on,0,0,2,,,,,,,,1,,,64,92
4800,note_on,2,0,1,,,,,,,,0,,,79,92
4832,note_on,32,0,1,,,,,,,,0,,,79,0
4894,note_on,94,0,2,,,,,,,,1,,,64,0
4896,note_on,64,0,1,,,,,,,,0,,,79,92
4896,note_on,2,0,2,,,,,,,,1,,,64,92
4928,note_on,32,0,2,,,,,,,,1,,,64,0
4928,note_on,32,0,1,,,,,,,,0,,,79,0
4992,note_on,64,0,2,,,,,,,,1,,,64,92
4992,note_on,64,0,1,,,,,,,,0,,,79,92
5024,note_on,32,0,2,,,,,,,,1,,,64,0
5088,note_on,64,0,2,,,,,,,,1,,,64,92
5120,note_on,32,0,2,,,,,,,,1,,,64,0
5184,note_on,64,0,2,,,,,,,,1,,,64,92
5216,note_on,32,0,2,,,,,,,,1,,,64,0
5280,note_on,64,0,2,,,,,,,,1,,,64,92
5280,note_on,0,0,1,,,,,,,,0,,,80,92
5280,note_on,288,0,1,,,,,,,,0,,,79,0
5312,note_on,32,0,2,,,,,,,,1,,,64,0
5328,note_on,48,0,1,,,,,,,,0,,,72,0
5374,note_on,46,0,1,,,,,,,,0,,,80,0
5376,note_on,2,0,1,,,,,,,,0,,,72,92
5376,note_on,0,0,1,,,,,,,,0,,,81,92
5472,note_on,96,0,1,,,,,,,,0,,,81,0
5472,note_on,0,0,1,,,,,,,,0,,,74,92
5472,note_on,160,0,2,,,,,,,,1,,,53,92
5566,note_on,94,0,1,,,,,,,,0,,,74,0
5568,note_on,2,0,1,,,,,,,,0,,,74,92
5568,note_on,96,0,2,,,,,,,,1,,,53,0
5568,note_on,0,0,2,,,,,,,,1,,,65,92
5600,note_on,32,0,1,,,,,,,,0,,,74,0
5662,note_on,94,0,2,,,,,,,,1,,,65,0
5664,note_on,2,0,2,,,,,,,,1,,,65,92
5664,note_on,64,0,1,,,,,,,,0,,,74,92
5696,note_on,32,0,2,,,,,,,,1,,,65,0
5696,note_on,32,0,1,,,,,,,,0,,,74,0
5712,note_on,16,0,1,,,,,,,,0,,,72,0
5760,note_on,64,0,2,,,,,,,,1,,,65,92
5760,note_on,0,0,1,,,,,,,,0,,,74,92
5760,note_on,48,0,1,,,,,,,,0,,,71,92
5792,note_on,32,0,2,,,,,,,,1,,,65,0
5856,note_on,64,0,2,,,,,,,,1,,,65,92
5888,note_on,32,0,2,,,,,,,,1,,,65,0
5952,note_on,64,0,2,,,,,,,,1,,,65,92
5984,note_on,32,0,2,,,,,,,,1,,,65,0
6048,note_on,64,0,2,,,,,,,,1,,,65,92
6080,note_on,32,0,2,,,,,,,,1,,,65,0
6096,note_on,0,0,1,,,,,,,,0,,,74,0
6096,note_on,336,0,1,,,,,,,,0,,,71,0
6144,note_on,64,0,2,,,,,,,,1,,,64,92
6144,note_on,48,0,1,,,,,,,,0,,,72,92
6144,note_on,0,0,1,,,,,,,,0,,,79,92
6176,note_on,32,0,2,,,,,,,,1,,,64,0
6288,note_on,144,0,1,,,,,,,,0,,,72,0
6288,note_on,0,0,1,,,,,,,,0,,,79,0
6288,note_on,0,0,1,,,,,,,,0,,,81,92
6334,note_on,46,0,1,,,,,,,,0,,,81,0
6336,note_on,2,0,1,,,,,,,,0,,,74,92
6336,note_on,0,0,1,,,,,,,,0,,,77,92
6336,note_on,160,0,2,,,,,,,,1,,,65,92
6368,note_on,32,0,2,,,,,,,,1,,,65,0
6480,note_on,144,0,1,,,,,,,,0,,,74,0
6480,note_on,0,0,1,,,,,,,,0,,,77,0
6480,note_on,0,0,1,,,,,,,,0,,,79,92
6526,note_on,46,0,1,,,,,,,,0,,,79,0
6528,note_on,2,0,1,,,,,,,,0,,,72,92
6528,note_on,160,0,2,,,,,,,,1,,,67,92
6528,note_on,0,0,1,,,,,,,,0,,,76,92
6560,note_on,32,0,2,,,,,,,,1,,,67,0
6672,note_on,0,0,1,,,,,,,,0,,,77,92
6672,note_on,0,0,1,,,,,,,,0,,,76,0
6672,note_on,144,0,1,,,,,,,,0,,,72,0
6718,note_on,46,0,1,,,,,,,,0,,,77,0
6720,note_on,160,0,2,,,,,,,,1,,,55,92
6720,note_on,2,0,1,,,,,,,,0,,,71,92
6720,note_on,0,0,1,,,,,,,,0,,,74,92
6752,note_on,32,0,2,,,,,,,,1,,,55,0
6864,note_on,0,0,1,,,,,,,,0,,,74,0
6864,note_on,0,0,1,,,,,,,,0,,,76,92
6864,note_on,144,0,1,,,,,,,,0,,,71,0
6910,note_on,46,0,1,,,,,,,,0,,,76,0
6912,note_on,2,0,1,,,,,,,,0,,,72,45
6912,note_on,160,0,2,,,,,,,,1,,,60,45
7072,note_on,160,0,2,,,,,,,,1,,,60,0
7072,note_on,160,0,1,,,,,,,,0,,,72,0
7104,note_on,32,0,2,,,,,,,,1,,,64,45
7136,note_on,32,0,2,,,,,,,,1,,,64,0
7200,note_on,64,0,2,,,,,,,,1,,,60,45
7232,note_on,32,0,2,,,,,,,,1,,,60,0
7296,note_on,64,0,2,,,,,,,,1,,,57,45
7456,note_on,160,0,2,,,,,,,,1,,,57,0
7488,note_on,0,0,1,,,,,,,,0,,,76,45
7488,note_on,416,0,1,,,,,,,,0,,,72,45
7488,note_on,32,0,2,,,,,,,,1,,,60,45
7520,note_on,32,0,2,,,,,,,,1,,,60,0
7584,note_on,64,0,2,,,,,,,,1,,,57,45
7616,note_on,32,0,2,,,,,,,,1,,,57,0
7648,note_on,0,0,1,,,,,,,,0,,,76,0
7648,note_on,160,0,1,,,,,,,,0,,,72,0
7680,note_on,32,0,1,,,,,,,,0,,,72,45
7680,note_on,64,0,2,,,,,,,,1,,,53,45
7680,note_on,0,0,1,,,,,,,,0,,,74,45
7840,note_on,160,0,2,,,,,,,,1,,,53,0
7872,note_on,192,0,1,,,,,,,,0,,,74,0
7872,note_on,0,0,1,,,,,,,,0,,,74,45
7872,note_on,32,0,2,,,,,,,,1,,,57,45
7904,note_on,32,0,2,,,,,,,,1,,,57,0
7968,note_on,64,0,2,,,,,,,,1,,,53,45
8000,note_on,32,0,2,,,,,,,,1,,,53,0
8064,note_on,64,0,2,,,,,,,,1,,,55,45
8064,note_on,0,0,1,,,,,,,,0,,,76,45
8064,note_on,192,0,1,,,,,,,,0,,,74,0
8208,note_on,144,0,1,,,,,,,,0,,,72,0
8224,note_on,160,0,2,,,,,,,,1,,,55,0
8256,note_on,32,0,2,,,,,,,,1,,,59,45
8256,note_on,48,0,1,,,,,,,,0,,,76,0
8256,note_on,0,0,1,,,,,,,,0,,,77,45
8256,note_on,0,0,1,,,,,,,,0,,,74,45
8288,note_on,32,0,2,,,,,,,,1,,,59,0
8352,note_on,64,0,2,,,,,,,,1,,,55,45
8384,note_on,32,0,2,,,,,,,,1,,,55,0
8416,note_on,160,0,1,,,,,,,,0,,,74,0
8416,note_on,0,0,1,,,,,,,,0,,,77,0
8448,note_on,0,0,1,,,,,,,,0,,,77,45
8448,note_on,64,0,2,,,,,,,,1,,,60,45
8448,note_on,32,0,1,,,,,,,,0,,,74,45
8608,note_on,160,0,2,,,,,,,,1,,,60,0
8640,note_on,0,0,1,,,,,,,,0,,,77,0
8640,note_on,192,0,1,,,,,,,,0,,,74,0
8640,note_on,0,0,1,,,,,,,,0,,,72,45
8640,note_on,0,0,1,,,,,,,,0,,,76,45
8640,note_on,32,0,2,,,,,,,,1,,,64,45
8672,note_on,32,0,2,,,,,,,,1,,,64,0
8736,note_on,64,0,2,,,,,,,,1,,,60,45
8768,note_on,32,0,2,,,,,,,,1,,,60,0
8800,note_on,160,0,1,,,,,,,,0,,,72,0
8800,note_on,0,0,1,,,,,,,,0,,,76,0
8832,note_on,64,0,2,,,,,,,,1,,,57,45
8992,note_on,160,0,2,,,,,,,,1,,,57,0
9024,note_on,32,0,2,,,,,,,,1,,,60,45
9024,note_on,224,0,1,,,,,,,,0,,,76,45
9024,note_on,0,0,1,,,,,,,,0,,,84,45
9056,note_on,32,0,2,,,,,,,,1,,,60,0
9072,note_on,0,0,1,,,,,,,,0,,,84,0
9072,note_on,48,0,1,,,,,,,,0,,,76,0
9120,note_on,64,0,2,,,,,,,,1,,,57,45
9152,note_on,32,0,2,,,,,,,,1,,,57,0
9216,note_on,144,0,1,,,,,,,,0,,,74,45
9216,note_on,0,0,1,,,,,,,,0,,,81,45
9216,note_on,64,0,2,,,,,,,,1,,,53,45
9376,note_on,160,0,2,,,,,,,,1,,,53,0
9408,note_on,32,0,2,,,,,,,,1,,,57,45
9408,note_on,192,0,1,,,,,,,,0,,,74,0
9408,note_on,0,0,1,,,,,,,,0,,,72,45
9408,note_on,0,0,1,,,,,,,,0,,,77,45
9408,note_on,0,0,1,,,,,,,,0,,,81,0
9440,note_on,32,0,2,,,,,,,,1,,,57,0
9504,note_on,64,0,2,,,,,,,,1,,,53,45
9536,note_on,32,0,2,,,,,,,,1,,,53,0
9600,note_on,192,0,1,,,,,,,,0,,,72,0
9600,note_on,0,0,1,,,,,,,,0,,,77,0
9600,note_on,0,0,1,,,,,,,,0,,,71,45
9600,note_on,64,0,2,,,,,,,,1,,,55,45
9600,note_on,0,0,1,,,,,,,,0,,,74,45
9760,note_on,160,0,2,,,,,,,,1,,,55,0
9792,note_on,0,0,1,,,,,,,,0,,,74,45
9792,note_on,0,0,1,,,,,,,,0,,,74,0
9792,note_on,32,0,2,,,,,,,,1,,,59,45
9792,note_on,192,0,1,,,,,,,,0,,,71,0
9792,note_on,0,0,1,,,,,,,,0,,,79,45
9824,note_on,32,0,2,,,,,,,,1,,,59,0
9888,note_on,64,0,2,,,,,,,,1,,,55,45
9920,note_on,32,0,2,,,,,,,,1,,,55,0
9952,note_on,0,0,1,,,,,,,,0,,,79,0
9952,note_on,160,0,1,,,,,,,,0,,,74,0
9984,note_on,64,0,2,,,,,,,,1,,,60,92
9984,note_on,32,0,1,,,,,,,,0,,,72,92
10144,note_on,160,0,1,,,,,,,,0,,,72,0
10144,note_on,160,0,2,,,,,,,,1,,,60,0
10176,note_on,32,0,1,,,,,,,,0,,,76,92
10272,note_on,0,0,1,,,,,,,,0,,,72,92
10272,note_on,96,0,1,,,,,,,,0,,,76,0
10366,note_on,94,0,1,,,,,,,,0,,,72,0
10368,note_on,224,0,2,,,,,,,,1,,,53,92
10368,note_on,2,0,1,,,,,,,,0,,,69,92
10528,note_on,160,0,1,,,,,,,,0,,,69,0
10528,note_on,160,0,2,,,,,,,,1,,,53,0
10560,note_on,32,0,1,,,,,,,,0,,,72,92
10560,note_on,32,0,2,,,,,,,,1,,,57,92
10656,note_on,96,0,1,,,,,,,,0,,,72,0
10656,note_on,0,0,1,,,,,,,,0,,,69,92
10656,note_on,96,0,2,,,,,,,,1,,,57,0
10656,note_on,0,0,2,,,,,,,,1,,,53,92
10750,note_on,94,0,1,,,,,,,,0,,,69,0
10750,note_on,94,0,2,,,,,,,,1,,,53,0
10752,note_on,2,0,1,,,,,,,,0,,,74,92
10752,note_on,2,0,2,,,,,,,,1,,,50,92
10912,note_on,160,0,1,,,,,,,,0,,,74,0
10912,note_on,160,0,2,,,,,,,,1,,,50,0
10944,note_on,32,0,1,,,,,,,,0,,,77,92
11040,note_on,96,0,1,,,,,,,,0,,,77,0
11040,note_on,0,0,1,,,,,,,,0,,,74,92
11134,note_on,94,0,1,,,,,,,,0,,,74,0
11136,note_on,224,0,2,,,,,,,,1,,,55,92
11136,note_on,2,0,1,,,,,,,,0,,,71,92
11296,note_on,160,0,2,,,,,,,,1,,,55,0
11296,note_on,160,0,1,,,,,,,,0,,,71,0
11328,note_on,32,0,2,,,,,,,,1,,,59,92
11328,note_on,32,0,1,,,,,,,,0,,,74,92
11424,note_on,0,0,1,,,,,,,,0,,,71,92
11424,note_on,96,0,1,,,,,,,,0,,,74,0
11424,note_on,0,0,2,,,,,,,,1,,,55,92
11424,note_on,96,0,2,,,,,,,,1,,,59,0
11518,note_on,94,0,2,,,,,,,,1,,,55,0
11518,note_on,94,0,1,,,,,,,,0,,,71,0
11520,note_on,2,0,1,,,,,,,,0,,,76,92
11520,note_on,2,0,2,,,,,,,,1,,,52,92
11680,note_on,160,0,2,,,,,,,,1,,,52,0
11680,note_on,160,0,1,,,,,,,,0,,,76,0
11712,note_on,32,0,1,,,,,,,,0,,,79,92
11808,note_on,0,0,1,,,,,,,,0,,,76,92
11808,note_on,96,0,1,,,,,,,,0,,,79,0
11902,note_on,94,0,1,,,,,,,,0,,,76,0
11904,note_on,2,0,1,,,,,,,,0,,,72,92
11904,note_on,224,0,2,,,,,,,,1,,,57,92
12064,note_on,160,0,2,,,,,,,,1,,,57,0
12064,note_on,160,0,1,,,,,,,,0,,,72,0
12096,note_on,32,0,1,,,,,,,,0,,,76,92
12096,note_on,32,0,2,,,,,,,,1,,,60,92
12192,note_on,96,0,1,,,,,,,,0,,,76,0
12192,note_on,0,0,1,,,,,,,,0,,,72,92
12192,note_on,96,0,2,,,,,,,,1,,,60,0
12192,note_on,0,0,2,,,,,,,,1,,,57,92
12286,note_on,94,0,1,,,,,,,,0,,,72,0
12286,note_on,94,0,2,,,,,,,,1,,,57,0
12288,note_on,2,0,1,,,,,,,,0,,,77,92
12288,note_on,2,0,2,,,,,,,,1,,,53,92
12448,note_on,160,0,2,,,,,,,,1,,,53,0
12448,note_on,160,0,1,,,,,,,,0,,,77,0
12480,note_on,32,0,1,,,,,,,,0,,,81,92
12576,note_on,0,0,1,,,,,,,,0,,,77,92
12576,note_on,96,0,1,,,,,,,,0,,,81,0
12670,note_on,94,0,1,,,,,,,,0,,,77,0
12672,note_on,224,0,2,,,,,,,,1,,,50,92
12672,note_on,2,0,1,,,,,,,,0,,,74,92
12832,note_on,160,0,2,,,,,,,,1,,,50,0
12832,note_on,160,0,1,,,,,,,,0,,,74,0
12864,note_on,32,0,1,,,,,,,,0,,,77,92
12864,note_on,32,0,2,,,,,,,,1,,,53,92
12960,note_on,96,0,2,,,,,,,,1,,,53,0
12960,note_on,96,0,1,,,,,,,,0,,,77,0
12960,note_on,0,0,1,,,,,,,,0,,,74,92
12960,note_on,0,0,2,,,,,,,,1,,,50,92
13054,note_on,94,0,2,,,,,,,,1,,,50,0
13054,note_on,94,0,1,,,,,,,,0,,,74,0
13056,note_on,2,0,2,,,,,,,,1,,,47,92
13056,note_on,2,0,1,,,,,,,,0,,,71,92
13152,note_on,96,0,2,,,,,,,,1,,,47,0
13152,note_on,96,0,1,,,,,,,,0,,,71,0
13152,note_on,0,0,2,,,,,,,,1,,,43,93
13152,note_on,0,0,1,,,,,,,,0,,,67,93
13248,note_on,96,0,2,,,,,,,,1,,,43,0
13248,note_on,96,0,1,,,,,,,,0,,,67,0
13248,note_on,0,0,2,,,,,,,,1,,,45,94
13248,note_on,0,0,1,,,,,,,,0,,,69,94
13344,note_on,96,0,1,,,,,,,,0,,,69,0
13344,note_on,0,0,2,,,,,,,,1,,,47,95
13344,note_on,96,0,2,,,,,,,,1,,,45,0
13344,note_on,0,0,1,,,,,,,,0,,,71,95
13438,note_on,94,0,2,,,,,,,,1,,,47,0
13438,note_on,94,0,1,,,,,,,,0,,,71,0
13440,note_on,2,0,2,,,,,,,,1,,,48,96
13440,note_on,2,0,1,,,,,,,,0,,,72,96
13536,note_on,0,0,2,,,,,,,,1,,,47,97
13536,note_on,96,0,2,,,,,,,,1,,,48,0
13536,note_on,96,0,1,,,,,,,,0,,,72,0
13536,note_on,0,0,1,,,,,,,,0,,,71,97
13632,note_on,0,0,1,,,,,,,,0,,,72,98
13632,note_on,0,0,2,,,,,,,,1,,,48,98
13632,note_on,96,0,2,,,,,,,,1,,,47,0
13632,note_on,96,0,1,,,,,,,,0,,,71,0
13728,note_on,96,0,1,,,,,,,,0,,,72,0
13728,note_on,96,0,2,,,,,,,,1,,,48,0
13728,note_on,0,0,2,,,,,,,,1,,,50,99
13728,note_on,0,0,1,,,,,,,,0,,,74,99
13822,note_on,94,0,1,,,,,,,,0,,,74,0
13822,note_on,94,0,2,,,,,,,,1,,,50,0
13824,note_on,2,0,1,,,,,,,,0,,,76,100
13824,note_on,2,0,2,,,,,,,,1,,,52,100
13920,note_on,96,0,1,,,,,,,,0,,,76,0
13920,note_on,0,0,1,,,,,,,,0,,,74,101
13984,note_on,160,0,2,,,,,,,,1,,,52,0
14016,note_on,32,0,2,,,,,,,,1,,,48,102
14016,note_on,96,0,1,,,,,,,,0,,,74,0
14016,note_on,0,0,1,,,,,,,,0,,,72,102
14112,note_on,0,0,2,,,,,,,,1,,,50,103
14112,note_on,96,0,2,,,,,,,,1,,,48,0
14112,note_on,96,0,1,,,,,,,,0,,,72,0
14112,note_on,0,0,1,,,,,,,,0,,,74,103
14206,note_on,94,0,1,,,,,,,,0,,,74,0
14208,note_on,2,0,1,,,,,,,,0,,,76,104
14208,note_on,96,0,2,,,,,,,,1,,,50,0
14208,note_on,0,0,2,,,,,,,,1,,,52,104
14304,note_on,96,0,2,,,,,,,,1,,,52,0
14304,note_on,96,0,1,,,,,,,,0,,,76,0
14304,note_on,0,0,1,,,,,,,,0,,,74,105
14304,note_on,0,0,2,,,,,,,,1,,,50,105
14400,note_on,96,0,2,,,,,,,,1,,,50,0
14400,note_on,0,0,2,,,,,,,,1,,,52,106
14400,note_on,96,0,1,,,,,,,,0,,,74,0
14400,note_on,0,0,1,,,,,,,,0,,,76,106
14496,note_on,0,0,2,,,,,,,,1,,,54,107
14496,note_on,96,0,2,,,,,,,,1,,,52,0
14496,note_on,96,0,1,,,,,,,,0,,,76,0
14496,note_on,0,0,1,,,,,,,,0,,,78,107
14590,note_on,94,0,1,,,,,,,,0,,,78,0
14590,note_on,94,0,2,,,,,,,,1,,,54,0
14592,note_on,2,0,1,,,,,,,,0,,,79,108
14592,note_on,2,0,2,,,,,,,,1,,,55,108
14686,note_on,94,0,1,,,,,,,,0,,,79,0
14686,note_on,94,0,2,,,,,,,,1,,,55,0
14784,note_on,98,0,2,,,,,,,,1,,,43,108
14784,note_on,0,0,1,,,,,,,,0,,,83,108
14784,note_on,98,0,1,,,,,,,,0,,,77,108
14816,note_on,32,0,2,,,,,,,,1,,,43,0
14880,note_on,64,0,2,,,,,,,,1,,,55,108
14912,note_on,32,0,2,,,,,,,,1,,,55,0
14976,note_on,192,0,1,,,,,,,,0,,,77,0
14976,note_on,0,0,1,,,,,,,,0,,,76,108
14976,note_on,0,0,1,,,,,,,,0,,,84,108
14976,note_on,0,0,1,,,,,,,,0,,,83,0
14976,note_on,64,0,2,,,,,,,,1,,,43,108
15008,note_on,32,0,2,,,,,,,,1,,,43,0
15070,note_on,0,0,1,,,,,,,,0,,,84,0
15070,note_on,94,0,1,,,,,,,,0,,,76,0
15072,note_on,64,0,2,,,,,,,,1,,,55,108
15104,note_on,32,0,2,,,,,,,,1,,,55,0
15168,note_on,64,0,2,,,,,,,,1,,,43,108
15168,note_on,0,0,1,,,,,,,,0,,,76,108
15168,note_on,98,0,1,,,,,,,,0,,,72,108
15200,note_on,32,0,2,,,,,,,,1,,,43,0
15262,note_on,0,0,1,,,,,,,,0,,,76,0
15262,note_on,94,0,1,,,,,,,,0,,,72,0
15264,note_on,64,0,2,,,,,,,,1,,,55,108
15296,note_on,32,0,2,,,,,,,,1,,,55,0
15360,note_on,64,0,2,,,,,,,,1,,,43,108
15360,note_on,0,0,1,,,,,,,,0,,,74,108
15360,note_on,98,0,1,,,,,,,,0,,,71,108
15392,note_on,32,0,2,,,,,,,,1,,,43,0
15454,note_on,94,0,1,,,,,,,,0,,,71,0
15454,note_on,0,0,1,,,,,,,,0,,,74,0
15456,note_on,64,0,2,,,,,,,,1,,,55,108
15488,note_on,32,0,2,,,,,,,,1,,,55,0
15552,note_on,98,0,1,,,,,,,,0,,,77,108
15552,note_on,64,0,2,,,,,,,,1,,,43,108
15552,note_on,0,0,1,,,,,,,,0,,,83,108
15584,note_on,32,0,2,,,,,,,,1,,,43,0
15648,note_on,64,0,2,,,,,,,,1,,,55,108
15680,note_on,32,0,2,,,,,,,,1,,,55,0
15744,note_on,192,0,1,,,,,,,,0,,,77,0
15744,note_on,0,0,1,,,,,,,,0,,,83,0
15744,note_on,0,0,1,,,,,,,,0,,,76,108
15744,note_on,0,0,1,,,,,,,,0,,,84,108
15744,note_on,64,0,2,,,,,,,,1,,,43,108
15776,note_on,32,0,2,,,,,,,,1,,,43,0
15838,note_on,94,0,1,,,,,,,,0,,,76,0
15838,note_on,0,0,1,,,,,,,,0,,,84,0
15840,note_on,64,0,2,,,,,,,,1,,,55,108
15872,note_on,32,0,2,,,,,,,,1,,,55,0
15936,note_on,0,0,1,,,,,,,,0,,,76,108
15936,note_on,64,0,2,,,,,,,,1,,,43,108
15936,note_on,98,0,1,,,,,,,,0,,,72,108
15968,note_on,32,0,2,,,,,,,,1,,,43,0
16030,note_on,94,0,1,,,,,,,,0,,,72,0
16030,note_on,0,0,1,,,,,,,,0,,,76,0
16032,note_on,64,0,2,,,,,,,,1,,,55,108
16064,note_on,32,0,2,,,,,,,,1,,,55,0
16128,note_on,0,0,1,,,,,,,,0,,,74,108
16128,note_on,98,0,1,,,,,,,,0,,,71,108
16128,note_on,64,0,2,,,,,,,,1,,,43,108
16176,note_on,48,0,2,,,,,,,,1,,,43,0
16288,note_on,0,0,1,,,,,,,,0,,,74,0
16288,note_on,160,0,1,,,,,,,,0,,,71,0
16320,note_on,144,0,2,,,,,,,,1,,,55,108
16320,note_on,32,0,1,,,,,,,,0,,,71,108
16320,note_on,0,0,1,,,,,,,,0,,,79,108
16368,note_on,48,0,1,,,,,,,,0,,,71,0
16368,note_on,48,0,2,,,,,,,,1,,,55,0
16368,note_on,0,0,1,,,,,,,,0,,,79,0
16512,note_on,144,0,2,,,,,,,,1,,,43,108
16512,note_on,144,0,1,,,,,,,,0,,,71,108
16512,note_on,0,0,1,,,,,,,,0,,,79,108
16560,note_on,48,0,1,,,,,,,,0,,,71,0
16560,note_on,0,0,1,,,,,,,,0,,,79,0
16560,note_on,48,0,2,,,,,,,,1,,,43,0
16896,note_on,336,0,1,,,,,,,,0,,,74,45
17280,note_on,0,0,1,,,,,,,,0,,,79,45
17280,note_on,0,0,1,,,,,,,,0,,,73,45
17280,note_on,384,0,1,,,,,,,,0,,,74,0
17280,note_on,720,0,2,,,,,,,,1,,,64,45
17616,note_on,336,0,1,,,,,,,,0,,,73,0
17616,note_on,0,0,1,,,,,,,,0,,,79,0
17664,note_on,384,0,2,,,,,,,,1,,,64,0
17664,note_on,0,0,2,,,,,,,,1,,,62,45
17664,note_on,48,0,1,,,,,,,,0,,,74,45
17664,note_on,0,0,1,,,,,,,,0,,,78,45
17758,note_on,94,0,2,,,,,,,,1,,,62,0
17760,note_on,96,0,1,,,,,,,,0,,,74,0
17760,note_on,0,0,1,,,,,,,,0,,,78,0
17760,note_on,0,0,1,,,,,,,,0,,,81,45
17856,note_on,98,0,2,,,,,,,,1,,,57,45
17856,note_on,96,0,1,,,,,,,,0,,,81,0
17856,note_on,0,0,1,,,,,,,,0,,,79,45
17888,note_on,32,0,2,,,,,,,,1,,,57,0
17952,note_on,0,0,1,,,,,,,,0,,,76,45
17952,note_on,96,0,1,,,,,,,,0,,,79,0
18046,note_on,94,0,1,,,,,,,,0,,,76,0
18048,note_on,2,0,1,,,,,,,,0,,,74,45
18048,note_on,160,0,2,,,,,,,,1,,,54,45
18080,note_on,32,0,2,,,,,,,,1,,,54,0
18208,note_on,160,0,1,,,,,,,,0,,,74,0
18240,note_on,160,0,2,,,,,,,,1,,,50,45
18272,note_on,32,0,2,,,,,,,,1,,,50,0
18432,note_on,0,0,1,,,,,,,,0,,,74,45
18432,note_on,224,0,1,,,,,,,,0,,,74,45
18816,note_on,0,0,1,,,,,,,,0,,,84,45
18816,note_on,384,0,1,,,,,,,,0,,,74,0
18816,note_on,544,0,2,,,,,,,,1,,,66,45
19152,note_on,336,0,1,,,,,,,,0,,,74,0
19152,note_on,0,0,1,,,,,,,,0,,,84,0
19200,note_on,0,0,2,,,,,,,,1,,,67,45
19200,note_on,384,0,2,,,,,,,,1,,,66,0
19200,note_on,48,0,1,,,,,,,,0,,,74,45
19200,note_on,0,0,1,,,,,,,,0,,,83,45
19294,note_on,94,0,2,,,,,,,,1,,,67,0
19296,note_on,96,0,1,,,,,,,,0,,,74,0
19296,note_on,0,0,1,,,,,,,,0,,,83,0
19296,note_on,0,0,1,,,,,,,,0,,,86,45
19392,note_on,96,0,1,,,,,,,,0,,,86,0
19392,note_on,0,0,1,,,,,,,,0,,,78,45
19392,note_on,0,0,1,,,,,,,,0,,,84,45
19392,note_on,98,0,2,,,,,,,,1,,,62,45
19424,note_on,32,0,2,,,,,,,,1,,,62,0
19488,note_on,0,0,1,,,,,,,,0,,,81,45
19488,note_on,0,0,1,,,,,,,,0,,,84,0
19488,note_on,96,0,1,,,,,,,,0,,,78,0
19582,note_on,94,0,1,,,,,,,,0,,,81,0
19584,note_on,2,0,1,,,,,,,,0,,,79,45
19584,note_on,160,0,2,,,,,,,,1,,,59,45
19616,note_on,32,0,2,,,,,,,,1,,,59,0
19744,note_on,160,0,1,,,,,,,,0,,,79,0
19776,note_on,160,0,2,,,,,,,,1,,,55,45
19808,note_on,32,0,2,,,,,,,,1,,,55,0
19968,note_on,224,0,1,,,,,,,,0,,,76,45
20064,note_on,96,0,1,,,,,,,,0,,,76,0
20064,note_on,0,0,1,,,,,,,,0,,,78,45
20160,note_on,96,0,1,,,,,,,,0,,,78,0
20160,note_on,0,0,1,,,,,,,,0,,,79,45
20256,note_on,96,0,1,,,,,,,,0,,,79,0
20256,note_on,0,0,1,,,,,,,,0,,,80,45
20350,note_on,94,0,1,,,,,,,,0,,,80,0
20352,note_on,2,0,1,,,,,,,,0,,,81,45
20352,note_on,544,0,2,,,,,,,,1,,,60,45
20352,note_on,0,0,2,,,,,,,,1,,,64,45
20448,note_on,96,0,1,,,,,,,,0,,,81,0
20448,note_on,0,0,1,,,,,,,,0,,,83,45
20544,note_on,96,0,1,,,,,,,,0,,,83,0
20544,note_on,0,0,1,,,,,,,,0,,,84,45
20640,note_on,96,0,1,,,,,,,,0,,,84,0
20640,note_on,0,0,1,,,,,,,,0,,,81,45
20734,note_on,94,0,1,,,,,,,,0,,,81,0
20736,note_on,0,0,2,,,,,,,,1,,,62,45
20736,note_on,384,0,2,,,,,,,,1,,,64,0
20736,note_on,2,0,1,,,,,,,,0,,,79,45
20832,note_on,0,0,1,,,,,,,,0,,,78,45
20832,note_on,96,0,1,,,,,,,,0,,,79,0
20928,note_on,96,0,1,,,,,,,,0,,,78,0
20928,note_on,0,0,1,,,,,,,,0,,,76,45
21024,note_on,0,0,1,,,,,,,,0,,,78,45
21024,note_on,96,0,1,,,,,,,,0,,,76,0
21118,note_on,94,0,1,,,,,,,,0,,,78,0
21120,note_on,384,0,2,,,,,,,,1,,,60,0
21120,note_on,0,0,2,,,,,,,,1,,,59,45
21120,note_on,2,0,1,,,,,,,,0,,,79,45
21216,note_on,96,0,1,,,,,,,,0,,,79,0
21216,note_on,0,0,1,,,,,,,,0,,,83,45
21312,note_on,96,0,1,,,,,,,,0,,,83,0
21312,note_on,0,0,1,,,,,,,,0,,,79,45
21408,note_on,96,0,1,,,,,,,,0,,,79,0
21408,note_on,0,0,1,,,,,,,,0,,,74,45
21456,note_on,336,0,2,,,,,,,,1,,,62,0
21456,note_on,0,0,2,,,,,,,,1,,,59,0
21502,note_on,94,0,1,,,,,,,,0,,,74,0
21504,note_on,48,0,2,,,,,,,,1,,,60,45
21504,note_on,2,0,1,,,,,,,,0,,,76,45
21552,note_on,48,0,2,,,,,,,,1,,,60,0
21600,note_on,0,0,1,,,,,,,,0,,,78,45
21600,note_on,96,0,1,,,,,,,,0,,,76,0
21696,note_on,144,0,2,,,,,,,,1,,,48,45
21696,note_on,96,0,1,,,,,,,,0,,,78,0
21696,note_on,0,0,1,,,,,,,,0,,,79,45
21744,note_on,48,0,2,,,,,,,,1,,,48,0
21792,note_on,0,0,1,,,,,,,,0,,,80,45
21792,note_on,96,0,1,,,,,,,,0,,,79,0
21886,note_on,94,0,1,,,,,,,,0,,,80,0
21888,note_on,144,0,2,,,,,,,,1,,,60,45
21888,note_on,0,0,2,,,,,,,,1,,,64,45
21888,note_on,2,0,1,,,,,,,,0,,,81,45
21984,note_on,0,0,1,,,,,,,,0,,,83,45
21984,note_on,96,0,1,,,,,,,,0,,,81,0
22080,note_on,0,0,1,,,,,,,,0,,,84,45
22080,note_on,96,0,1,,,,,,,,0,,,83,0
22176,note_on,0,0,1,,,,,,,,0,,,81,45
22176,note_on,96,0,1,,,,,,,,0,,,84,0
22270,note_on,94,0,1,,,,,,,,0,,,81,0
22272,note_on,0,0,2,,,,,,,,1,,,62,45
22272,note_on,384,0,2,,,,,,,,1,,,64,0
22272,note_on,2,0,1,,,,,,,,0,,,79,45
22368,note_on,96,0,1,,,,,,,,0,,,79,0
22368,note_on,0,0,1,,,,,,,,0,,,78,45
22464,note_on,0,0,1,,,,,,,,0,,,76,45
22464,note_on,96,0,1,,,,,,,,0,,,78,0
22560,note_on,96,0,1,,,,,,,,0,,,76,0
22560,note_on,0,0,1,,,,,,,,0,,,78,45
22654,note_on,94,0,1,,,,,,,,0,,,78,0
22656,note_on,2,0,1,,,,,,,,0,,,79,45
22656,note_on,384,0,2,,,,,,,,1,,,60,0
22656,note_on,0,0,2,,,,,,,,1,,,59,45
22752,note_on,0,0,1,,,,,,,,0,,,86,45
22752,note_on,96,0,1,,,,,,,,0,,,79,0
22848,note_on,0,0,1,,,,,,,,0,,,84,45
22848,note_on,96,0,1,,,,,,,,0,,,86,0
22944,note_on,96,0,1,,,,,,,,0,,,84,0
22944,note_on,0,0,1,,,,,,,,0,,,83,45
22992,note_on,336,0,2,,,,,,,,1,,,62,0
22992,note_on,0,0,2,,,,,,,,1,,,59,0
23038,note_on,94,0,1,,,,,,,,0,,,83,0
23040,note_on,48,0,2,,,,,,,,1,,,60,45
23040,note_on,2,0,1,,,,,,,,0,,,76,45
23040,note_on,0,0,1,,,,,,,,0,,,83,45
23088,note_on,48,0,2,,,,,,,,1,,,60,0
23136,note_on,0,0,1,,,,,,,,0,,,81,45
23136,note_on,96,0,1,,,,,,,,0,,,83,0
23232,note_on,0,0,1,,,,,,,,0,,,84,45
23232,note_on,96,0,1,,,,,,,,0,,,81,0
23232,note_on,144,0,2,,,,,,,,1,,,48,45
23280,note_on,48,0,2,,,,,,,,1,,,48,0
23296,note_on,64,0,1,,,,,,,,0,,,76,0
23328,note_on,32,0,1,,,,,,,,0,,,84,0
23328,note_on,0,0,1,,,,,,,,0,,,81,45
23328,note_on,0,0,1,,,,,,,,0,,,72,45
23422,note_on,94,0,1,,,,,,,,0,,,72,0
23422,note_on,0,0,1,,,,,,,,0,,,81,0
23424,note_on,2,0,1,,,,,,,,0,,,72,45
23424,note_on,144,0,2,,,,,,,,1,,,50,45
23424,note_on,0,0,1,,,,,,,,0,,,81,45
23472,note_on,48,0,2,,,,,,,,1,,,50,0
23520,note_on,0,0,1,,,,,,,,0,,,79,45
23520,note_on,96,0,1,,,,,,,,0,,,72,0
23520,note_on,0,0,1,,,,,,,,0,,,81,0
23520,note_on,0,0,1,,,,,,,,0,,,71,45
23614,note_on,94,0,1,,,,,,,,0,,,71,0
23614,note_on,0,0,1,,,,,,,,0,,,79,0
23616,note_on,2,0,1,,,,,,,,0,,,71,45
23616,note_on,0,0,1,,,,,,,,0,,,79,45
23616,note_on,144,0,2,,,,,,,,1,,,38,45
23664,note_on,48,0,2,,,,,,,,1,,,38,0
23712,note_on,0,0,1,,,,,,,,0,,,78,45
23712,note_on,0,0,1,,,,,,,,0,,,69,45
23712,note_on,0,0,1,,,,,,,,0,,,79,0
23712,note_on,96,0,1,,,,,,,,0,,,71,0
23806,note_on,0,0,1,,,,,,,,0,,,78,0
23806,note_on,94,0,1,,,,,,,,0,,,69,0
23808,note_on,144,0,2,,,,,,,,1,,,43,45
23808,note_on,2,0,1,,,,,,,,0,,,71,45
23808,note_on,0,0,1,,,,,,,,0,,,79,45
23968,note_on,160,0,2,,,,,,,,1,,,43,0
23968,note_on,0,0,1,,,,,,,,0,,,79,0
23968,note_on,160,0,1,,,,,,,,0,,,71,0
24096,note_on,128,0,1,,,,,,,,0,,,74,92
24096,note_on,0,0,1,,,,,,,,0,,,83,92
24096,note_on,128,0,2,,,,,,,,1,,,55,92
24128,note_on,0,0,1,,,,,,,,0,,,83,0
24128,note_on,32,0,2,,,,,,,,1,,,55,0
24128,note_on,32,0,1,,,,,,,,0,,,74,0
24192,note_on,0,0,1,,,,,,,,0,,,83,92
24192,note_on,64,0,1,,,,,,,,0,,,74,92
24192,note_on,64,0,2,,,,,,,,1,,,55,92
24224,note_on,0,0,1,,,,,,,,0,,,83,0
24224,note_on,32,0,1,,,,,,,,0,,,74,0
24224,note_on,32,0,2,,,,,,,,1,,,55,0
24288,note_on,0,0,1,,,,,,,,0,,,83,92
24288,note_on,64,0,1,,,,,,,,0,,,74,92
24288,note_on,64,0,2,,,,,,,,1,,,55,92
24320,note_on,0,0,1,,,,,,,,0,,,83,0
24320,note_on,32,0,1,,,,,,,,0,,,74,0
24320,note_on,32,0,2,,,,,,,,1,,,55,0
24384,note_on,64,0,2,,,,,,,,1,,,55,92
24384,note_on,0,0,1,,,,,,,,0,,,83,92
24384,note_on,64,0,1,,,,,,,,0,,,74,92
24416,note_on,32,0,2,,,,,,,,1,,,55,0
24416,note_on,0,0,1,,,,,,,,0,,,83,0
24416,note_on,32,0,1,,,,,,,,0,,,74,0
24480,note_on,0,0,1,,,,,,,,0,,,83,92
24480,note_on,64,0,1,,,,,,,,0,,,74,92
24480,note_on,64,0,2,,,,,,,,1,,,55,92
24512,note_on,32,0,2,,,,,,,,1,,,55,0
24512,note_on,32,0,1,,,,,,,,0,,,74,0
24512,note_on,0,0,1,,,,,,,,0,,,83,0
24576,note_on,0,0,1,,,,,,,,0,,,86,92
24576,note_on,64,0,2,,,,,,,,1,,,54,92
24576,note_on,64,0,1,,,,,,,,0,,,74,92
24672,note_on,96,0,1,,,,,,,,0,,,74,0
24672,note_on,0,0,1,,,,,,,,0,,,86,0
24672,note_on,0,0,1,,,,,,,,0,,,85,92
24736,note_on,160,0,2,,,,,,,,1,,,54,0
24768,note_on,96,0,1,,,,,,,,0,,,85,0
24768,note_on,0,0,1,,,,,,,,0,,,84,92
24862,note_on,94,0,1,,,,,,,,0,,,84,0
24864,note_on,2,0,1,,,,,,,,0,,,81,45
24896,note_on,32,0,1,,,,,,,,0,,,81,0
24960,note_on,64,0,1,,,,,,,,0,,,72,45
24960,note_on,224,0,2,,,,,,,,1,,,50,45
24960,note_on,0,0,1,,,,,,,,0,,,78,45
24992,note_on,0,0,1,,,,,,,,0,,,78,0
24992,note_on,32,0,1,,,,,,,,0,,,72,0
24992,note_on,32,0,2,,,,,,,,1,,,50,0
25056,note_on,64,0,1,,,,,,,,0,,,72,45
25056,note_on,64,0,2,,,,,,,,1,,,50,45
25056,note_on,0,0,1,,,,,,,,0,,,78,45
25088,note_on,0,0,1,,,,,,,,0,,,78,0
25088,note_on,32,0,1,,,,,,,,0,,,72,0
25088,note_on,32,0,2,,,,,,,,1,,,50,0
25152,note_on,64,0,1,,,,,,,,0,,,72,45
25152,note_on,64,0,2,,,,,,,,1,,,50,45
25152,note_on,0,0,1,,,,,,,,0,,,78,45
25184,note_on,0,0,1,,,,,,,,0,,,78,0
25184,note_on,32,0,2,,,,,,,,1,,,50,0
25184,note_on,32,0,1,,,,,,,,0,,,72,0
25248,note_on,64,0,1,,,,,,,,0,,,72,45
25248,note_on,0,0,1,,,,,,,,0,,,78,45
25248,note_on,64,0,2,,,,,,,,1,,,50,45
25280,note_on,32,0,2,,,,,,,,1,,,50,0
25280,note_on,0,0,1,,,,,,,,0,,,78,0
25280,note_on,32,0,1,,,,,,,,0,,,72,0
25344,note_on,0,0,1,,,,,,,,0,,,78,45
25344,note_on,64,0,2,,,,,,,,1,,,43,45
25344,note_on,64,0,1,,,,,,,,0,,,71,45
25440,note_on,96,0,1,,,,,,,,0,,,78,0
25440,note_on,0,0,1,,,,,,,,0,,,79,45
25504,note_on,160,0,2,,,,,,,,1,,,43,0
25504,note_on,64,0,1,,,,,,,,0,,,71,0
25536,note_on,32,0,1,,,,,,,,0,,,79,0
25536,note_on,0,0,1,,,,,,,,0,,,74,45
25630,note_on,94,0,1,,,,,,,,0,,,74,0
25632,note_on,128,0,2,,,,,,,,1,,,55,92
25632,note_on,2,0,1,,,,,,,,0,,,74,92
25632,note_on,0,0,1,,,,,,,,0,,,83,92
25664,note_on,32,0,2,,,,,,,,1,,,55,0
25664,note_on,0,0,1,,,,,,,,0,,,83,0
25664,note_on,32,0,1,,,,,,,,0,,,74,0
25728,note_on,0,0,1,,,,,,,,0,,,83,92
25728,note_on,64,0,1,,,,,,,,0,,,74,92
25728,note_on,64,0,2,,,,,,,,1,,,55,92
25760,note_on,32,0,2,,,,,,,,1,,,55,0
25760,note_on,0,0,1,,,,,,,,0,,,83,0
25760,note_on,32,0,1,,,,,,,,0,,,74,0
25824,note_on,64,0,2,,,,,,,,1,,,55,92
25824,note_on,0,0,1,,,,,,,,0,,,83,92
25824,note_on,64,0,1,,,,,,,,0,,,74,92
25856,note_on,32,0,1,,,,,,,,0,,,74,0
25856,note_on,0,0,1,,,,,,,,0,,,83,0
25856,note_on,32,0,2,,,,,,,,1,,,55,0
25920,note_on,0,0,1,,,,,,,,0,,,83,92
25920,note_on,64,0,1,,,,,,,,0,,,74,92
25920,note_on,64,0,2,,,,,,,,1,,,55,92
25952,note_on,0,0,1,,,,,,,,0,,,83,0
25952,note_on,32,0,1,,,,,,,,0,,,74,0
25952,note_on,32,0,2,,,,,,,,1,,,55,0
26016,note_on,0,0,1,,,,,,,,0,,,83,92
26016,note_on,64,0,1,,,,,,,,0,,,74,92
26016,note_on,64,0,2,,,,,,,,1,,,55,92
26048,note_on,32,0,1,,,,,,,,0,,,74,0
26048,note_on,0,0,1,,,,,,,,0,,,83,0
26048,note_on,32,0,2,,,,,,,,1,,,55,0
26112,note_on,64,0,2,,,,,,,,1,,,54,92
26112,note_on,64,0,1,,,,,,,,0,,,74,92
26112,note_on,0,0,1,,,,,,,,0,,,86,92
26208,note_on,96,0,1,,,,,,,,0,,,74,0
26208,note_on,0,0,1,,,,,,,,0,,,86,0
26208,note_on,0,0,1,,,,,,,,0,,,85,92
26272,note_on,160,0,2,,,,,,,,1,,,54,0
26304,note_on,96,0,1,,,,,,,,0,,,85,0
26304,note_on,0,0,1,,,,,,,,0,,,84,92
26398,note_on,94,0,1,,,,,,,,0,,,84,0
26400,note_on,2,0,1,,,,,,,,0,,,81,45
26432,note_on,32,0,1,,,,,,,,0,,,81,0
26496,note_on,224,0,2,,,,,,,,1,,,50,45
26496,note_on,64,0,1,,,,,,,,0,,,72,45
26496,note_on,0,0,1,,,,,,,,0,,,78,45
26528,note_on,32,0,1,,,,,,,,0,,,72,0
26528,note_on,0,0,1,,,,,,,,0,,,78,0
26528,note_on,32,0,2,,,,,,,,1,,,50,0
26592,note_on,64,0,1,,,,,,,,0,,,72,45
26592,note_on,0,0,1,,,,,,,,0,,,78,45
26592,note_on,64,0,2,,,,,,,,1,,,50,45
26624,note_on,32,0,1,,,,,,,,0,,,72,0
26624,note_on,0,0,1,,,,,,,,0,,,78,0
26624,note_on,32,0,2,,,,,,,,1,,,50,0
26688,note_on,64,0,2,,,,,,,,1,,,50,45
26688,note_on,0,0,1,,,,,,,,0,,,78,45
26688,note_on,64,0,1,,,,,,,,0,,,72,45
26720,note_on,32,0,1,,,,,,,,0,,,72,0
26720,note_on,0,0,1,,,,,,,,0,,,78,0
26720,note_on,32,0,2,,,,,,,,1,,,50,0
26784,note_on,64,0,2,,,,,,,,1,,,50,45
26784,note_on,64,0,1,,,,,,,,0,,,72,45
26784,note_on,0,0,1,,,,,,,,0,,,78,45
26816,note_on,32,0,1,,,,,,,,0,,,72,0
26816,note_on,0,0,1,,,,,,,,0,,,78,0
26816,note_on,32,0,2,,,,,,,,1,,,50,0
26880,note_on,64,0,2,,,,,,,,1,,,55,45
26880,note_on,64,0,1,,,,,,,,0,,,71,45
26880,note_on,0,0,1,,,,,,,,0,,,79,45
26912,note_on,32,0,2,,,,,,,,1,,,55,0
26976,note_on,0,0,1,,,,,,,,0,,,83,45
26976,note_on,96,0,1,,,,,,,,0,,,71,0
26976,note_on,0,0,1,,,,,,,,0,,,79,0
27072,note_on,160,0,2,,,,,,,,1,,,50,45
27072,note_on,0,0,1,,,,,,,,0,,,72,45
27072,note_on,0,0,1,,,,,,,,0,,,81,45
27072,note_on,96,0,1,,,,,,,,0,,,83,0
27104,note_on,32,0,2,,,,,,,,1,,,50,0
27168,note_on,0,0,1,,,,,,,,0,,,78,45
27168,note_on,0,0,1,,,,,,,,0,,,81,0
27168,note_on,96,0,1,,,,,,,,0,,,72,0
27262,note_on,94,0,1,,,,,,,,0,,,78,0
27264,note_on,2,0,1,,,,,,,,0,,,71,45
27264,note_on,160,0,2,,,,,,,,1,,,55,45
27264,note_on,0,0,1,,,,,,,,0,,,79,45
27296,note_on,32,0,2,,,,,,,,1,,,55,0
27360,note_on,96,0,1,,,,,,,,0,,,71,0
27360,note_on,0,0,1,,,,,,,,0,,,79,0
27360,note_on,0,0,1,,,,,,,,0,,,83,45
27456,note_on,0,0,1,,,,,,,,0,,,72,45
27456,note_on,0,0,1,,,,,,,,0,,,81,45
27456,note_on,160,0,2,,,,,,,,1,,,50,45
27456,note_on,96,0,1,,,,,,,,0,,,83,0
27488,note_on,32,0,2,,,,,,,,1,,,50,0
27552,note_on,96,0,1,,,,,,,,0,,,72,0
27552,note_on,0,0,1,,,,,,,,0,,,81,0
27552,note_on,0,0,1,,,,,,,,0,,,78,45
27646,note_on,94,0,1,,,,,,,,0,,,78,0
27648,note_on,2,0,1,,,,,,,,0,,,71,45
27648,note_on,0,0,1,,,,,,,,0,,,79,45
27648,note_on,160,0,2,,,,,,,,1,,,43,45
27680,note_on,0,0,1,,,,,,,,0,,,79,0
27680,note_on,32,0,1,,,,,,,,0,,,71,0
27680,note_on,32,0,2,,,,,,,,1,,,43,0
27840,note_on,160,0,2,,,,,,,,1,,,55,45
27840,note_on,160,0,1,,,,,,,,0,,,74,45
27840,note_on,0,0,1,,,,,,,,0,,,83,45
27872,note_on,32,0,2,,,,,,,,1,,,55,0
27872,note_on,0,0,1,,,,,,,,0,,,83,0
27872,note_on,32,0,1,,,,,,,,0,,,74,0
28032,note_on,160,0,1,,,,,,,,0,,,71,45
28032,note_on,0,0,1,,,,,,,,0,,,79,45
28032,note_on,160,0,2,,,,,,,,1,,,43,45
28064,note_on,32,0,2,,,,,,,,1,,,43,0
28064,note_on,32,0,1,,,,,,,,0,,,71,0
28064,note_on,0,0,1,,,,,,,,0,,,79,0
28416,end_of_track,0,1,0,,,,,,,,,,,,
28416,set_tempo,28416,1,0,428571,,,,,,,,,,,
28416,note_on,352,0,1,,,,,,,,0,,,72,92
28416,note_on,352,0,2,,,,,,,,1,,,48,92
28576,note_on,160,0,1,,,,,,,,0,,,72,0
28576,note_on,160,0,2,,,,,,,,1,,,48,0
28704,note_on,128,0,1,,,,,,,,0,,,67,92
28704,note_on,128,0,2,,,,,,,,1,,,43,92
28736,note_on,32,0,2,,,,,,,,1,,,43,0
28736,note_on,32,0,1,,,,,,,,0,,,67,0
28800,note_on,64,0,2,,,,,,,,1,,,48,92
28800,note_on,64,0,1,,,,,,,,0,,,72,92
28960,note_on,160,0,1,,,,,,,,0,,,72,0
28960,note_on,160,0,2,,,,,,,,1,,,48,0
29088,note_on,128,0,2,,,,,,,,1,,,43,92
29088,note_on,128,0,1,,,,,,,,0,,,67,92
29120,note_on,32,0,2,,,,,,,,1,,,43,0
29120,note_on,32,0,1,,,,,,,,0,,,67,0
29184,note_on,64,0,2,,,,,,,,1,,,48,92
29184,note_on,64,0,1,,,,,,,,0,,,72,92
29216,note_on,32,0,1,,,,,,,,0,,,72,0
29216,note_on,32,0,2,,,,,,,,1,,,48,0
29280,note_on,64,0,2,,,,,,,,1,,,52,92
29280,note_on,64,0,1,,,,,,,,0,,,76,92
29312,note_on,32,0,2,,,,,,,,1,,,52,0
29312,note_on,32,0,1,,,,,,,,0,,,76,0
29376,note_on,64,0,1,,,,,,,,0,,,79,92
29376,note_on,64,0,2,,,,,,,,1,,,55,92
29408,note_on,32,0,1,,,,,,,,0,,,79,0
29408,note_on,32,0,2,,,,,,,,1,,,55,0
29472,note_on,64,0,1,,,,,,,,0,,,76,92
29472,note_on,64,0,2,,,,,,,,1,,,52,92
29504,note_on,32,0,2,,,,,,,,1,,,52,0
29504,note_on,32,0,1,,,,,,,,0,,,76,0
29568,note_on,64,0,1,,,,,,,,0,,,72,92
29568,note_on,64,0,2,,,,,,,,1,,,48,92
29728,note_on,160,0,2,,,,,,,,1,,,48,0
29728,note_on,160,0,1,,,,,,,,0,,,72,0
29952,note_on,224,0,1,,,,,,,,0,,,67,45
29952,note_on,0,0,1,,,,,,,,0,,,76,45
30000,note_on,48,0,1,,,,,,,,0,,,67,0
30000,note_on,0,0,1,,,,,,,,0,,,76,0
30144,note_on,144,0,1,,,,,,,,0,,,69,45
30144,note_on,0,0,1,,,,,,,,0,,,77,45
30528,note_on,0,0,1,,,,,,,,0,,,67,45
30528,note_on,384,0,1,,,,,,,,0,,,69,0
30528,note_on,0,0,1,,,,,,,,0,,,77,0
30528,note_on,0,0,1,,,,,,,,0,,,76,45
30688,note_on,160,0,1,,,,,,,,0,,,67,0
30688,note_on,0,0,1,,,,,,,,0,,,76,0
30720,note_on,0,0,1,,,,,,,,0,,,76,45
30720,note_on,32,0,1,,,,,,,,0,,,67,45
30720,note_on,992,0,2,,,,,,,,1,,,55,45
30816,note_on,0,0,1,,,,,,,,0,,,74,45
30816,note_on,96,0,1,,,,,,,,0,,,67,0
30816,note_on,0,0,1,,,,,,,,0,,,76,0
30816,note_on,0,0,1,,,,,,,,0,,,65,45
30880,note_on,160,0,2,,,,,,,,1,,,55,0
30910,note_on,94,0,1,,,,,,,,0,,,65,0
30910,note_on,0,0,1,,,,,,,,0,,,74,0
30912,note_on,2,0,1,,,,,,,,0,,,65,45
30912,note_on,0,0,1,,,,,,,,0,,,74,45
30912,note_on,32,0,2,,,,,,,,1,,,55,45
31008,note_on,0,0,1,,,,,,,,0,,,71,45
31008,note_on,96,0,1,,,,,,,,0,,,74,0
31072,note_on,64,0,1,,,,,,,,0,,,65,0
31072,note_on,160,0,2,,,,,,,,1,,,55,0
31102,note_on,30,0,1,,,,,,,,0,,,71,0
31104,note_on,2,0,1,,,,,,,,0,,,64,45
31104,note_on,0,0,1,,,,,,,,0,,,72,45
31104,note_on,32,0,2,,,,,,,,1,,,60,45
31136,note_on,32,0,2,,,,,,,,1,,,60,0
31200,note_on,64,0,2,,,,,,,,1,,,48,45
31264,note_on,0,0,1,,,,,,,,0,,,72,0
31264,note_on,160,0,1,,,,,,,,0,,,64,0
31296,note_on,0,0,2,,,,,,,,1,,,52,45
31296,note_on,96,0,2,,,,,,,,1,,,48,0
31392,note_on,96,0,2,,,,,,,,1,,,52,0
31392,note_on,0,0,2,,,,,,,,1,,,55,45
31486,note_on,94,0,2,,,,,,,,1,,,55,0
31488,note_on,2,0,2,,,,,,,,1,,,60,45
31488,note_on,0,0,1,,,,,,,,0,,,79,45
31488,note_on,224,0,1,,,,,,,,0,,,76,45
31536,note_on,0,0,1,,,,,,,,0,,,79,0
31536,note_on,48,0,1,,,,,,,,0,,,76,0
31648,note_on,160,0,2,,,,,,,,1,,,60,0
31680,note_on,144,0,1,,,,,,,,0,,,77,45
31680,note_on,0,0,1,,,,,,,,0,,,81,45
32064,note_on,384,0,1,,,,,,,,0,,,77,0
32064,note_on,0,0,1,,,,,,,,0,,,81,0
32064,note_on,0,0,1,,,,,,,,0,,,76,45
32064,note_on,0,0,1,,,,,,,,0,,,79,45
32224,note_on,160,0,1,,,,,,,,0,,,76,0
32224,note_on,0,0,1,,,,,,,,0,,,79,0
32256,note_on,608,0,2,,,,,,,,1,,,55,45
32256,note_on,32,0,1,,,,,,,,0,,,76,45
32256,note_on,0,0,1,,,,,,,,0,,,79,45
32352,note_on,0,0,1,,,,,,,,0,,,77,45
32352,note_on,96,0,1,,,,,,,,0,,,76,0
32352,note_on,0,0,1,,,,,,,,0,,,79,0
32352,note_on,0,0,1,,,,,,,,0,,,74,45
32416,note_on,160,0,2,,,,,,,,1,,,55,0
32446,note_on,94,0,1,,,,,,,,0,,,74,0
32446,note_on,0,0,1,,,,,,,,0,,,77,0
32448,note_on,2,0,1,,,,,,,,0,,,74,45
32448,note_on,0,0,1,,,,,,,,0,,,77,45
32448,note_on,32,0,2,,,,,,,,1,,,55,45
32544,note_on,96,0,1,,,,,,,,0,,,74,0
32544,note_on,0,0,1,,,,,,,,0,,,77,0
32544,note_on,0,0,1,,,,,,,,0,,,71,45
32544,note_on,0,0,1,,,,,,,,0,,,74,45
32608,note_on,160,0,2,,,,,,,,1,,,55,0
32638,note_on,94,0,1,,,,,,,,0,,,71,0
32638,note_on,0,0,1,,,,,,,,0,,,74,0
32640,note_on,2,0,1,,,,,,,,0,,,72,45
32640,note_on,0,0,1,,,,,,,,0,,,76,45
32640,note_on,32,0,2,,,,,,,,1,,,60,45
32672,note_on,32,0,2,,,,,,,,1,,,60,0
32736,note_on,64,0,2,,,,,,,,1,,,48,45
32800,note_on,160,0,1,,,,,,,,0,,,72,0
32800,note_on,0,0,1,,,,,,,,0,,,76,0
32832,note_on,96,0,2,,,,,,,,1,,,48,0
32832,note_on,0,0,2,,,,,,,,1,,,52,45
32928,note_on,0,0,2,,,,,,,,1,,,55,45
32928,note_on,96,0,2,,,,,,,,1,,,52,0
33022,note_on,94,0,2,,,,,,,,1,,,55,0
33024,note_on,2,0,2,,,,,,,,1,,,60,92
33024,note_on,224,0,1,,,,,,,,0,,,72,92
33024,note_on,0,0,1,,,,,,,,0,,,84,92
33056,note_on,32,0,2,,,,,,,,1,,,60,0
33120,note_on,64,0,2,,,,,,,,1,,,52,92
33120,note_on,96,0,1,,,,,,,,0,,,84,0
33120,note_on,0,0,1,,,,,,,,0,,,79,92
33214,note_on,94,0,1,,,,,,,,0,,,79,0
33216,note_on,0,0,2,,,,,,,,1,,,64,92
33216,note_on,2,0,1,,,,,,,,0,,,79,92
33216,note_on,96,0,2,,,,,,,,1,,,52,0
33248,note_on,32,0,1,,,,,,,,0,,,79,0
33310,note_on,94,0,2,,,,,,,,1,,,64,0
33312,note_on,64,0,1,,,,,,,,0,,,79,92
33312,note_on,2,0,2,,,,,,,,1,,,64,92
33344,note_on,32,0,1,,,,,,,,0,,,79,0
33344,note_on,32,0,2,,,,,,,,1,,,64,0
33408,note_on,64,0,1,,,,,,,,0,,,79,92
33408,note_on,64,0,2,,,,,,,,1,,,64,92
33440,note_on,32,0,2,,,,,,,,1,,,64,0
33504,note_on,64,0,2,,,,,,,,1,,,64,92
33536,note_on,32,0,2,,,,,,,,1,,,64,0
33600,note_on,64,0,2,,,,,,,,1,,,64,92
33632,note_on,32,0,2,,,,,,,,1,,,64,0
33696,note_on,64,0,2,,,,,,,,1,,,64,92
33696,note_on,0,0,1,,,,,,,,0,,,80,92
33696,note_on,288,0,1,,,,,,,,0,,,79,0
33728,note_on,32,0,2,,,,,,,,1,,,64,0
33744,note_on,48,0,1,,,,,,,,0,,,72,0
33790,note_on,46,0,1,,,,,,,,0,,,80,0
33792,note_on,0,0,1,,,,,,,,0,,,81,92
33792,note_on,2,0,1,,,,,,,,0,,,72,92
33888,note_on,160,0,2,,,,,,,,1,,,53,92
33888,note_on,96,0,1,,,,,,,,0,,,81,0
33888,note_on,0,0,1,,,,,,,,0,,,74,92
33982,note_on,94,0,1,,,,,,,,0,,,74,0
33984,note_on,96,0,2,,,,,,,,1,,,53,0
33984,note_on,0,0,2,,,,,,,,1,,,65,92
33984,note_on,2,0,1,,,,,,,,0,,,74,92
34016,note_on,32,0,1,,,,,,,,0,,,74,0
34078,note_on,94,0,2,,,,,,,,1,,,65,0
34080,note_on,2,0,2,,,,,,,,1,,,65,92
34080,note_on,64,0,1,,,,,,,,0,,,74,92
34112,note_on,32,0,1,,,,,,,,0,,,74,0
34112,note_on,32,0,2,,,,,,,,1,,,65,0
34128,note_on,16,0,1,,,,,,,,0,,,72,0
34176,note_on,0,0,1,,,,,,,,0,,,74,92
34176,note_on,48,0,1,,,,,,,,0,,,71,92
34176,note_on,64,0,2,,,,,,,,1,,,65,92
34208,note_on,32,0,2,,,,,,,,1,,,65,0
34272,note_on,64,0,2,,,,,,,,1,,,65,92
34304,note_on,32,0,2,,,,,,,,1,,,65,0
34368,note_on,64,0,2,,,,,,,,1,,,65,92
34400,note_on,32,0,2,,,,,,,,1,,,65,0
34464,note_on,64,0,2,,,,,,,,1,,,65,92
34496,note_on,32,0,2,,,,,,,,1,,,65,0
34512,note_on,336,0,1,,,,,,,,0,,,71,0
34512,note_on,0,0,1,,,,,,,,0,,,74,0
34560,note_on,64,0,2,,,,,,,,1,,,64,92
34560,note_on,48,0,1,,,,,,,,0,,,72,92
34560,note_on,0,0,1,,,,,,,,0,,,79,92
34592,note_on,32,0,2,,,,,,,,1,,,64,0
34704,note_on,144,0,1,,,,,,,,0,,,72,0
34704,note_on,0,0,1,,,,,,,,0,,,79,0
34704,note_on,0,0,1,,,,,,,,0,,,81,92
34750,note_on,46,0,1,,,,,,,,0,,,81,0
34752,note_on,160,0,2,,,,,,,,1,,,65,92
34752,note_on,0,0,1,,,,,,,,0,,,77,92
34752,note_on,2,0,1,,,,,,,,0,,,74,92
34784,note_on,32,0,2,,,,,,,,1,,,65,0
34896,note_on,144,0,1,,,,,,,,0,,,74,0
34896,note_on,0,0,1,,,,,,,,0,,,77,0
34896,note_on,0,0,1,,,,,,,,0,,,79,92
34942,note_on,46,0,1,,,,,,,,0,,,79,0
34944,note_on,160,0,2,,,,,,,,1,,,67,92
34944,note_on,2,0,1,,,,,,,,0,,,72,92
34944,note_on,0,0,1,,,,,,,,0,,,76,92
34976,note_on,32,0,2,,,,,,,,1,,,67,0
35088,note_on,144,0,1,,,,,,,,0,,,72,0
35088,note_on,0,0,1,,,,,,,,0,,,76,0
35088,note_on,0,0,1,,,,,,,,0,,,77,92
35134,note_on,46,0,1,,,,,,,,0,,,77,0
35136,note_on,160,0,2,,,,,,,,1,,,55,92
35136,note_on,2,0,1,,,,,,,,0,,,71,92
35136,note_on,0,0,1,,,,,,,,0,,,74,92
35168,note_on,32,0,2,,,,,,,,1,,,55,0
35280,note_on,0,0,1,,,,,,,,0,,,74,0
35280,note_on,144,0,1,,,,,,,,0,,,71,0
35280,note_on,0,0,1,,,,,,,,0,,,76,92
35326,note_on,46,0,1,,,,,,,,0,,,76,0
35328,note_on,2,0,1,,,,,,,,0,,,72,45
35328,note_on,160,0,2,,,,,,,,1,,,60,45
35488,note_on,160,0,2,,,,,,,,1,,,60,0
35488,note_on,160,0,1,,,,,,,,0,,,72,0
35520,note_on,32,0,2,,,,,,,,1,,,64,45
35552,note_on,32,0,2,,,,,,,,1,,,64,0
35616,note_on,64,0,2,,,,,,,,1,,,60,45
35648,note_on,32,0,2,,,,,,,,1,,,60,0
35712,note_on,64,0,2,,,,,,,,1,,,57,45
35872,note_on,160,0,2,,,,,,,,1,,,57,0
35904,note_on,0,0,1,,,,,,,,0,,,76,45
35904,note_on,416,0,1,,,,,,,,0,,,72,45
35904,note_on,32,0,2,,,,,,,,1,,,60,45
35936,note_on,32,0,2,,,,,,,,1,,,60,0
36000,note_on,64,0,2,,,,,,,,1,,,57,45
36032,note_on,32,0,2,,,,,,,,1,,,57,0
36064,note_on,160,0,1,,,,,,,,0,,,72,0
36064,note_on,0,0,1,,,,,,,,0,,,76,0
36096,note_on,32,0,1,,,,,,,,0,,,72,45
36096,note_on,0,0,1,,,,,,,,0,,,74,45
36096,note_on,64,0,2,,,,,,,,1,,,53,45
36256,note_on,160,0,2,,,,,,,,1,,,53,0
36288,note_on,192,0,1,,,,,,,,0,,,74,0
36288,note_on,0,0,1,,,,,,,,0,,,74,45
36288,note_on,32,0,2,,,,,,,,1,,,57,45
36320,note_on,32,0,2,,,,,,,,1,,,57,0
36384,note_on,64,0,2,,,,,,,,1,,,53,45
36416,note_on,32,0,2,,,,,,,,1,,,53,0
36480,note_on,192,0,1,,,,,,,,0,,,74,0
36480,note_on,0,0,1,,,,,,,,0,,,76,45
36480,note_on,64,0,2,,,,,,,,1,,,55,45
36624,note_on,144,0,1,,,,,,,,0,,,72,0
36640,note_on,160,0,2,,,,,,,,1,,,55,0
36672,note_on,0,0,1,,,,,,,,0,,,77,45
36672,note_on,0,0,1,,,,,,,,0,,,74,45
36672,note_on,48,0,1,,,,,,,,0,,,76,0
36672,note_on,32,0,2,,,,,,,,1,,,59,45
36704,note_on,32,0,2,,,,,,,,1,,,59,0
36768,note_on,64,0,2,,,,,,,,1,,,55,45
36800,note_on,32,0,2,,,,,,,,1,,,55,0
36832,note_on,160,0,1,,,,,,,,0,,,74,0
36832,note_on,0,0,1,,,,,,,,0,,,77,0
36864,note_on,64,0,2,,,,,,,,1,,,60,45
36864,note_on,32,0,1,,,,,,,,0,,,74,45
36864,note_on,0,0,1,,,,,,,,0,,,77,45
37024,note_on,160,0,2,,,,,,,,1,,,60,0
37056,note_on,0,0,1,,,,,,,,0,,,77,0
37056,note_on,32,0,2,,,,,,,,1,,,64,45
37056,note_on,0,0,1,,,,,,,,0,,,76,45
37056,note_on,0,0,1,,,,,,,,0,,,72,45
37056,note_on,192,0,1,,,,,,,,0,,,74,0
37088,note_on,32,0,2,,,,,,,,1,,,64,0
37152,note_on,64,0,2,,,,,,,,1,,,60,45
37184,note_on,32,0,2,,,,,,,,1,,,60,0
37216,note_on,0,0,1,,,,,,,,0,,,76,0
37216,note_on,160,0,1,,,,,,,,0,,,72,0
37248,note_on,64,0,2,,,,,,,,1,,,57,45
37408,note_on,160,0,2,,,,,,,,1,,,57,0
37440,note_on,224,0,1,,,,,,,,0,,,76,45
37440,note_on,0,0,1,,,,,,,,0,,,84,45
37440,note_on,32,0,2,,,,,,,,1,,,60,45
37472,note_on,32,0,2,,,,,,,,1,,,60,0
37488,note_on,48,0,1,,,,,,,,0,,,76,0
37488,note_on,0,0,1,,,,,,,,0,,,84,0
37536,note_on,64,0,2,,,,,,,,1,,,57,45
37568,note_on,32,0,2,,,,,,,,1,,,57,0
37632,note_on,144,0,1,,,,,,,,0,,,74,45
37632,note_on,0,0,1,,,,,,,,0,,,81,45
37632,note_on,64,0,2,,,,,,,,1,,,53,45
37792,note_on,160,0,2,,,,,,,,1,,,53,0
37824,note_on,0,0,1,,,,,,,,0,,,72,45
37824,note_on,0,0,1,,,,,,,,0,,,81,0
37824,note_on,0,0,1,,,,,,,,0,,,77,45
37824,note_on,32,0,2,,,,,,,,1,,,57,45
37824,note_on,192,0,1,,,,,,,,0,,,74,0
37856,note_on,32,0,2,,,,,,,,1,,,57,0
37920,note_on,64,0,2,,,,,,,,1,,,53,45
37952,note_on,32,0,2,,,,,,,,1,,,53,0
38016,note_on,64,0,2,,,,,,,,1,,,55,45
38016,note_on,192,0,1,,,,,,,,0,,,72,0
38016,note_on,0,0,1,,,,,,,,0,,,77,0
38016,note_on,0,0,1,,,,,,,,0,,,71,45
38016,note_on,0,0,1,,,,,,,,0,,,74,45
38176,note_on,160,0,2,,,,,,,,1,,,55,0
38208,note_on,192,0,1,,,,,,,,0,,,71,0
38208,note_on,0,0,1,,,,,,,,0,,,74,0
38208,note_on,0,0,1,,,,,,,,0,,,74,45
38208,note_on,32,0,2,,,,,,,,1,,,59,45
38208,note_on,0,0,1,,,,,,,,0,,,79,45
38240,note_on,32,0,2,,,,,,,,1,,,59,0
38304,note_on,64,0,2,,,,,,,,1,,,55,45
38336,note_on,32,0,2,,,,,,,,1,,,55,0
38368,note_on,160,0,1,,,,,,,,0,,,74,0
38368,note_on,0,0,1,,,,,,,,0,,,79,0
38400,note_on,64,0,2,,,,,,,,1,,,60,92
38400,note_on,32,0,1,,,,,,,,0,,,72,92
38560,note_on,160,0,1,,,,,,,,0,,,72,0
38560,note_on,160,0,2,,,,,,,,1,,,60,0
38592,note_on,32,0,1,,,,,,,,0,,,76,92
38688,note_on,0,0,1,,,,,,,,0,,,72,92
38688,note_on,96,0,1,,,,,,,,0,,,76,0
38782,note_on,94,0,1,,,,,,,,0,,,72,0
38784,note_on,224,0,2,,,,,,,,1,,,53,92
38784,note_on,2,0,1,,,,,,,,0,,,69,92
38944,note_on,160,0,2,,,,,,,,1,,,53,0
38944,note_on,160,0,1,,,,,,,,0,,,69,0
38976,note_on,32,0,1,,,,,,,,0,,,72,92
38976,note_on,32,0,2,,,,,,,,1,,,57,92
39072,note_on,0,0,1,,,,,,,,0,,,69,92
39072,note_on,96,0,1,,,,,,,,0,,,72,0
39072,note_on,96,0,2,,,,,,,,1,,,57,0
39072,note_on,0,0,2,,,,,,,,1,,,53,92
39166,note_on,94,0,2,,,,,,,,1,,,53,0
39166,note_on,94,0,1,,,,,,,,0,,,69,0
39168,note_on,2,0,1,,,,,,,,0,,,74,92
39168,note_on,2,0,2,,,,,,,,1,,,50,92
39328,note_on,160,0,1,,,,,,,,0,,,74,0
39328,note_on,160,0,2,,,,,,,,1,,,50,0
39360,note_on,32,0,1,,,,,,,,0,,,77,92
39456,note_on,0,0,1,,,,,,,,0,,,74,92
39456,note_on,96,0,1,,,,,,,,0,,,77,0
39550,note_on,94,0,1,,,,,,,,0,,,74,0
39552,note_on,224,0,2,,,,,,,,1,,,55,92
39552,note_on,2,0,1,,,,,,,,0,,,71,92
39712,note_on,160,0,2,,,,,,,,1,,,55,0
39712,note_on,160,0,1,,,,,,,,0,,,71,0
39744,note_on,32,0,1,,,,,,,,0,,,74,92
39744,note_on,32,0,2,,,,,,,,1,,,59,92
39840,note_on,0,0,1,,,,,,,,0,,,71,92
39840,note_on,96,0,1,,,,,,,,0,,,74,0
39840,note_on,96,0,2,,,,,,,,1,,,59,0
39840,note_on,0,0,2,,,,,,,,1,,,55,92
39934,note_on,94,0,2,,,,,,,,1,,,55,0
39934,note_on,94,0,1,,,,,,,,0,,,71,0
39936,note_on,2,0,2,,,,,,,,1,,,52,92
39936,note_on,2,0,1,,,,,,,,0,,,76,92
40096,note_on,160,0,2,,,,,,,,1,,,52,0
40096,note_on,160,0,1,,,,,,,,0,,,76,0
40128,note_on,32,0,1,,,,,,,,0,,,79,92
40224,note_on,0,0,1,,,,,,,,0,,,76,92
40224,note_on,96,0,1,,,,,,,,0,,,79,0
40318,note_on,94,0,1,,,,,,,,0,,,76,0
40320,note_on,2,0,1,,,,,,,,0,,,72,92
40320,note_on,224,0,2,,,,,,,,1,,,57,92
40480,note_on,160,0,2,,,,,,,,1,,,57,0
40480,note_on,160,0,1,,,,,,,,0,,,72,0
40512,note_on,32,0,1,,,,,,,,0,,,76,92
40512,note_on,32,0,2,,,,,,,,1,,,60,92
40608,note_on,96,0,1,,,,,,,,0,,,76,0
40608,note_on,0,0,1,,,,,,,,0,,,72,92
40608,note_on,0,0,2,,,,,,,,1,,,57,92
40608,note_on,96,0,2,,,,,,,,1,,,60,0
40702,note_on,94,0,1,,,,,,,,0,,,72,0
40702,note_on,94,0,2,,,,,,,,1,,,57,0
40704,note_on,2,0,2,,,,,,,,1,,,53,92
40704,note_on,2,0,1,,,,,,,,0,,,77,92
40864,note_on,160,0,1,,,,,,,,0,,,77,0
40864,note_on,160,0,2,,,,,,,,1,,,53,0
40896,note_on,32,0,1,,,,,,,,0,,,81,92
40992,note_on,0,0,1,,,,,,,,0,,,77,92
40992,note_on,96,0,1,,,,,,,,0,,,81,0
41086,note_on,94,0,1,,,,,,,,0,,,77,0
41088,note_on,224,0,2,,,,,,,,1,,,50,92
41088,note_on,2,0,1,,,,,,,,0,,,74,92
41248,note_on,160,0,2,,,,,,,,1,,,50,0
41248,note_on,160,0,1,,,,,,,,0,,,74,0
41280,note_on,32,0,2,,,,,,,,1,,,53,92
41280,note_on,32,0,1,,,,,,,,0,,,77,92
41376,note_on,96,0,1,,,,,,,,0,,,77,0
41376,note_on,0,0,1,,,,,,,,0,,,74,92
41376,note_on,96,0,2,,,,,,,,1,,,53,0
41376,note_on,0,0,2,,,,,,,,1,,,50,92
41470,note_on,94,0,1,,,,,,,,0,,,74,0
41470,note_on,94,0,2,,,,,,,,1,,,50,0
41472,note_on,2,0,1,,,,,,,,0,,,71,92
41472,note_on,2,0,2,,,,,,,,1,,,47,92
41568,note_on,96,0,2,,,,,,,,1,,,47,0
41568,note_on,0,0,2,,,,,,,,1,,,43,93
41568,note_on,0,0,1,,,,,,,,0,,,67,93
41568,note_on,96,0,1,,,,,,,,0,,,71,0
41664,note_on,0,0,2,,,,,,,,1,,,45,94
41664,note_on,96,0,2,,,,,,,,1,,,43,0
41664,note_on,0,0,1,,,,,,,,0,,,69,94
41664,note_on,96,0,1,,,,,,,,0,,,67,0
41760,note_on,0,0,2,,,,,,,,1,,,47,95
41760,note_on,96,0,2,,,,,,,,1,,,45,0
41760,note_on,0,0,1,,,,,,,,0,,,71,95
41760,note_on,96,0,1,,,,,,,,0,,,69,0
41854,note_on,94,0,1,,,,,,,,0,,,71,0
41854,note_on,94,0,2,,,,,,,,1,,,47,0
41856,note_on,2,0,2,,,,,,,,1,,,48,96
41856,note_on,2,0,1,,,,,,,,0,,,72,96
41952,note_on,0,0,1,,,,,,,,0,,,71,97
41952,note_on,96,0,1,,,,,,,,0,,,72,0
41952,note_on,0,0,2,,,,,,,,1,,,47,97
41952,note_on,96,0,2,,,,,,,,1,,,48,0
42048,note_on,0,0,2,,,,,,,,1,,,48,98
42048,note_on,96,0,1,,,,,,,,0,,,71,0
42048,note_on,0,0,1,,,,,,,,0,,,72,98
42048,note_on,96,0,2,,,,,,,,1,,,47,0
42144,note_on,96,0,2,,,,,,,,1,,,48,0
42144,note_on,0,0,1,,,,,,,,0,,,74,99
42144,note_on,96,0,1,,,,,,,,0,,,72,0
42144,note_on,0,0,2,,,,,,,,1,,,50,99
42238,note_on,94,0,1,,,,,,,,0,,,74,0
42238,note_on,94,0,2,,,,,,,,1,,,50,0
42240,note_on,2,0,1,,,,,,,,0,,,76,100
42240,note_on,2,0,2,,,,,,,,1,,,52,100
42336,note_on,0,0,1,,,,,,,,0,,,74,101
42336,note_on,96,0,1,,,,,,,,0,,,76,0
42400,note_on,160,0,2,,,,,,,,1,,,52,0
42432,note_on,0,0,1,,,,,,,,0,,,72,102
42432,note_on,96,0,1,,,,,,,,0,,,74,0
42432,note_on,32,0,2,,,,,,,,1,,,48,102
42528,note_on,96,0,1,,,,,,,,0,,,72,0
42528,note_on,0,0,1,,,,,,,,0,,,74,103
42528,note_on,0,0,2,,,,,,,,1,,,50,103
42528,note_on,96,0,2,,,,,,,,1,,,48,0
42622,note_on,94,0,1,,,,,,,,0,,,74,0
42624,note_on,96,0,2,,,,,,,,1,,,50,0
42624,note_on,0,0,2,,,,,,,,1,,,52,104
42624,note_on,2,0,1,,,,,,,,0,,,76,104
42720,note_on,96,0,1,,,,,,,,0,,,76,0
42720,note_on,0,0,2,,,,,,,,1,,,50,105
42720,note_on,96,0,2,,,,,,,,1,,,52,0
42720,note_on,0,0,1,,,,,,,,0,,,74,105
42816,note_on,0,0,2,,,,,,,,1,,,52,106
42816,note_on,96,0,2,,,,,,,,1,,,50,0
42816,note_on,96,0,1,,,,,,,,0,,,74,0
42816,note_on,0,0,1,,,,,,,,0,,,76,106
42912,note_on,0,0,1,,,,,,,,0,,,78,107
42912,note_on,96,0,2,,,,,,,,1,,,52,0
42912,note_on,96,0,1,,,,,,,,0,,,76,0
42912,note_on,0,0,2,,,,,,,,1,,,54,107
43006,note_on,94,0,2,,,,,,,,1,,,54,0
43006,note_on,94,0,1,,,,,,,,0,,,78,0
43008,note_on,2,0,1,,,,,,,,0,,,79,108
43008,note_on,2,0,2,,,,,,,,1,,,55,108
43102,note_on,94,0,1,,,,,,,,0,,,79,0
43102,note_on,94,0,2,,,,,,,,1,,,55,0
43200,note_on,0,0,1,,,,,,,,0,,,83,108
43200,note_on,98,0,1,,,,,,,,0,,,77,108
43200,note_on,98,0,2,,,,,,,,1,,,43,108
43232,note_on,32,0,2,,,,,,,,1,,,43,0
43296,note_on,64,0,2,,,,,,,,1,,,55,108
43328,note_on,32,0,2,,,,,,,,1,,,55,0
43392,note_on,0,0,1,,,,,,,,0,,,84,108
43392,note_on,0,0,1,,,,,,,,0,,,76,108
43392,note_on,0,0,1,,,,,,,,0,,,83,0
43392,note_on,192,0,1,,,,,,,,0,,,77,0
43392,note_on,64,0,2,,,,,,,,1,,,43,108
43424,note_on,32,0,2,,,,,,,,1,,,43,0
43486,note_on,0,0,1,,,,,,,,0,,,84,0
43486,note_on,94,0,1,,,,,,,,0,,,76,0
43488,note_on,64,0,2,,,,,,,,1,,,55,108
43520,note_on,32,0,2,,,,,,,,1,,,55,0
43584,note_on,0,0,1,,,,,,,,0,,,76,108
43584,note_on,98,0,1,,,,,,,,0,,,72,108
43584,note_on,64,0,2,,,,,,,,1,,,43,108
43616,note_on,32,0,2,,,,,,,,1,,,43,0
43678,note_on,94,0,1,,,,,,,,0,,,72,0
43678,note_on,0,0,1,,,,,,,,0,,,76,0
43680,note_on,64,0,2,,,,,,,,1,,,55,108
43712,note_on,32,0,2,,,,,,,,1,,,55,0
43776,note_on,64,0,2,,,,,,,,1,,,43,108
43776,note_on,98,0,1,,,,,,,,0,,,71,108
43776,note_on,0,0,1,,,,,,,,0,,,74,108
43808,note_on,32,0,2,,,,,,,,1,,,43,0
43870,note_on,0,0,1,,,,,,,,0,,,74,0
43870,note_on,94,0,1,,,,,,,,0,,,71,0
43872,note_on,64,0,2,,,,,,,,1,,,55,108
43904,note_on,32,0,2,,,,,,,,1,,,55,0
43968,note_on,0,0,1,,,,,,,,0,,,83,108
43968,note_on,98,0,1,,,,,,,,0,,,77,108
43968,note_on,64,0,2,,,,,,,,1,,,43,108
44000,note_on,32,0,2,,,,,,,,1,,,43,0
44064,note_on,64,0,2,,,,,,,,1,,,55,108
44096,note_on,32,0,2,,,,,,,,1,,,55,0
44160,note_on,0,0,1,,,,,,,,0,,,76,108
44160,note_on,0,0,1,,,,,,,,0,,,84,108
44160,note_on,192,0,1,,,,,,,,0,,,77,0
44160,note_on,64,0,2,,,,,,,,1,,,43,108
44160,note_on,0,0,1,,,,,,,,0,,,83,0
44192,note_on,32,0,2,,,,,,,,1,,,43,0
44254,note_on,0,0,1,,,,,,,,0,,,84,0
44254,note_on,94,0,1,,,,,,,,0,,,76,0
44256,note_on,64,0,2,,,,,,,,1,,,55,108
44288,note_on,32,0,2,,,,,,,,1,,,55,0
44352,note_on,98,0,1,,,,,,,,0,,,72,108
44352,note_on,0,0,1,,,,,,,,0,,,76,108
44352,note_on,64,0,2,,,,,,,,1,,,43,108
44384,note_on,32,0,2,,,,,,,,1,,,43,0
44446,note_on,0,0,1,,,,,,,,0,,,76,0
44446,note_on,94,0,1,,,,,,,,0,,,72,0
44448,note_on,64,0,2,,,,,,,,1,,,55,108
44480,note_on,32,0,2,,,,,,,,1,,,55,0
44544,note_on,64,0,2,,,,,,,,1,,,43,108
44544,note_on,98,0,1,,,,,,,,0,,,71,108
44544,note_on,0,0,1,,,,,,,,0,,,74,108
44592,note_on,48,0,2,,,,,,,,1,,,43,0
44704,note_on,0,0,1,,,,,,,,0,,,74,0
44704,note_on,160,0,1,,,,,,,,0,,,71,0
44736,note_on,0,0,1,,,,,,,,0,,,79,108
44736,note_on,32,0,1,,,,,,,,0,,,71,108
44736,note_on,144,0,2,,,,,,,,1,,,55,108
44784,note_on,0,0,1,,,,,,,,0,,,79,0
44784,note_on,48,0,1,,,,,,,,0,,,71,0
44784,note_on,48,0,2,,,,,,,,1,,,55,0
44928,note_on,144,0,2,,,,,,,,1,,,43,108
44928,note_on,144,0,1,,,,,,,,0,,,71,108
44928,note_on,0,0,1,,,,,,,,0,,,79,108
44976,note_on,48,0,1,,,,,,,,0,,,71,0
44976,note_on,0,0,1,,,,,,,,0,,,79,0
44976,note_on,48,0,2,,,,,,,,1,,,43,0
45312,note_on,336,0,1,,,,,,,,0,,,74,45
45696,note_on,384,0,1,,,,,,,,0,,,74,0
45696,note_on,0,0,1,,,,,,,,0,,,79,45
45696,note_on,720,0,2,,,,,,,,1,,,64,45
45696,note_on,0,0,1,,,,,,,,0,,,73,45
46032,note_on,336,0,1,,,,,,,,0,,,73,0
46032,note_on,0,0,1,,,,,,,,0,,,79,0
46080,note_on,0,0,1,,,,,,,,0,,,78,45
46080,note_on,48,0,1,,,,,,,,0,,,74,45
46080,note_on,0,0,2,,,,,,,,1,,,62,45
46080,note_on,384,0,2,,,,,,,,1,,,64,0
46174,note_on,94,0,2,,,,,,,,1,,,62,0
46176,note_on,96,0,1,,,,,,,,0,,,74,0
46176,note_on,0,0,1,,,,,,,,0,,,78,0
46176,note_on,0,0,1,,,,,,,,0,,,81,45
46272,note_on,98,0,2,,,,,,,,1,,,57,45
46272,note_on,0,0,1,,,,,,,,0,,,79,45
46272,note_on,96,0,1,,,,,,,,0,,,81,0
46304,note_on,32,0,2,,,,,,,,1,,,57,0
46368,note_on,0,0,1,,,,,,,,0,,,76,45
46368,note_on,96,0,1,,,,,,,,0,,,79,0
46462,note_on,94,0,1,,,,,,,,0,,,76,0
46464,note_on,160,0,2,,,,,,,,1,,,54,45
46464,note_on,2,0,1,,,,,,,,0,,,74,45
46496,note_on,32,0,2,,,,,,,,1,,,54,0
46624,note_on,160,0,1,,,,,,,,0,,,74,0
46656,note_on,160,0,2,,,,,,,,1,,,50,45
46688,note_on,32,0,2,,,,,,,,1,,,50,0
46848,note_on,0,0,1,,,,,,,,0,,,74,45
46848,note_on,224,0,1,,,,,,,,0,,,74,45
47232,note_on,544,0,2,,,,,,,,1,,,66,45
47232,note_on,0,0,1,,,,,,,,0,,,84,45
47232,note_on,384,0,1,,,,,,,,0,,,74,0
47568,note_on,336,0,1,,,,,,,,0,,,74,0
47568,note_on,0,0,1,,,,,,,,0,,,84,0
47616,note_on,0,0,2,,,,,,,,1,,,67,45
47616,note_on,384,0,2,,,,,,,,1,,,66,0
47616,note_on,0,0,1,,,,,,,,0,,,83,45
47616,note_on,48,0,1,,,,,,,,0,,,74,45
47710,note_on,94,0,2,,,,,,,,1,,,67,0
47712,note_on,0,0,1,,,,,,,,0,,,83,0
47712,note_on,0,0,1,,,,,,,,0,,,86,45
47712,note_on,96,0,1,,,,,,,,0,,,74,0
47808,note_on,98,0,2,,,,,,,,1,,,62,45
47808,note_on,0,0,1,,,,,,,,0,,,84,45
47808,note_on,96,0,1,,,,,,,,0,,,86,0
47808,note_on,0,0,1,,,,,,,,0,,,78,45
47840,note_on,32,0,2,,,,,,,,1,,,62,0
47904,note_on,0,0,1,,,,,,,,0,,,84,0
47904,note_on,0,0,1,,,,,,,,0,,,81,45
47904,note_on,96,0,1,,,,,,,,0,,,78,0
47998,note_on,94,0,1,,,,,,,,0,,,81,0
48000,note_on,160,0,2,,,,,,,,1,,,59,45
48000,note_on,2,0,1,,,,,,,,0,,,79,45
48032,note_on,32,0,2,,,,,,,,1,,,59,0
48160,note_on,160,0,1,,,,,,,,0,,,79,0
48192,note_on,160,0,2,,,,,,,,1,,,55,45
48224,note_on,32,0,2,,,,,,,,1,,,55,0
48384,note_on,224,0,1,,,,,,,,0,,,76,45
48480,note_on,0,0,1,,,,,,,,0,,,78,45
48480,note_on,96,0,1,,,,,,,,0,,,76,0
48576,note_on,96,0,1,,,,,,,,0,,,78,0
48576,note_on,0,0,1,,,,,,,,0,,,79,45
48672,note_on,96,0,1,,,,,,,,0,,,79,0
48672,note_on,0,0,1,,,,,,,,0,,,80,45
48766,note_on,94,0,1,,,,,,,,0,,,80,0
48768,note_on,2,0,1,,,,,,,,0,,,81,45
48768,note_on,544,0,2,,,,,,,,1,,,60,45
48768,note_on,0,0,2,,,,,,,,1,,,64,45
48864,note_on,96,0,1,,,,,,,,0,,,81,0
48864,note_on,0,0,1,,,,,,,,0,,,83,45
48960,note_on,96,0,1,,,,,,,,0,,,83,0
48960,note_on,0,0,1,,,,,,,,0,,,84,45
49056,note_on,0,0,1,,,,,,,,0,,,81,45
49056,note_on,96,0,1,,,,,,,,0,,,84,0
49150,note_on,94,0,1,,,,,,,,0,,,81,0
49152,note_on,0,0,2,,,,,,,,1,,,62,45
49152,note_on,384,0,2,,,,,,,,1,,,64,0
49152,note_on,2,0,1,,,,,,,,0,,,79,45
49248,note_on,0,0,1,,,,,,,,0,,,78,45
49248,note_on,96,0,1,,,,,,,,0,,,79,0
49344,note_on,0,0,1,,,,,,,,0,,,76,45
49344,note_on,96,0,1,,,,,,,,0,,,78,0
49440,note_on,96,0,1,,,,,,,,0,,,76,0
49440,note_on,0,0,1,,,,,,,,0,,,78,45
49534,note_on,94,0,1,,,,,,,,0,,,78,0
49536,note_on,384,0,2,,,,,,,,1,,,60,0
49536,note_on,0,0,2,,,,,,,,1,,,59,45
49536,note_on,2,0,1,,,,,,,,0,,,79,45
49632,note_on,0,0,1,,,,,,,,0,,,83,45
49632,note_on,96,0,1,,,,,,,,0,,,79,0
49728,note_on,96,0,1,,,,,,,,0,,,83,0
49728,note_on,0,0,1,,,,,,,,0,,,79,45
49824,note_on,0,0,1,,,,,,,,0,,,74,45
49824,note_on,96,0,1,,,,,,,,0,,,79,0
49872,note_on,336,0,2,,,,,,,,1,,,62,0
49872,note_on,0,0,2,,,,,,,,1,,,59,0
49918,note_on,94,0,1,,,,,,,,0,,,74,0
49920,note_on,48,0,2,,,,,,,,1,,,60,45
49920,note_on,2,0,1,,,,,,,,0,,,76,45
49968,note_on,48,0,2,,,,,,,,1,,,60,0
50016,note_on,0,0,1,,,,,,,,0,,,78,45
50016,note_on,96,0,1,,,,,,,,0,,,76,0
50112,note_on,0,0,1,,,,,,,,0,,,79,45
50112,note_on,96,0,1,,,,,,,,0,,,78,0
50112,note_on,144,0,2,,,,,,,,1,,,48,45
50160,note_on,48,0,2,,,,,,,,1,,,48,0
50208,note_on,0,0,1,,,,,,,,0,,,80,45
50208,note_on,96,0,1,,,,,,,,0,,,79,0
50302,note_on,94,0,1,,,,,,,,0,,,80,0
50304,note_on,2,0,1,,,,,,,,0,,,81,45
50304,note_on,0,0,2,,,,,,,,1,,,64,45
50304,note_on,144,0,2,,,,,,,,1,,,60,45
50400,note_on,96,0,1,,,,,,,,0,,,81,0
50400,note_on,0,0,1,,,,,,,,0,,,83,45
50496,note_on,96,0,1,,,,,,,,0,,,83,0
50496,note_on,0,0,1,,,,,,,,0,,,84,45
50592,note_on,96,0,1,,,,,,,,0,,,84,0
50592,note_on,0,0,1,,,,,,,,0,,,81,45
50686,note_on,94,0,1,,,,,,,,0,,,81,0
50688,note_on,384,0,2,,,,,,,,1,,,64,0
50688,note_on,0,0,2,,,,,,,,1,,,62,45
50688,note_on,2,0,1,,,,,,,,0,,,79,45
50784,note_on,96,0,1,,,,,,,,0,,,79,0
50784,note_on,0,0,1,,,,,,,,0,,,78,45
50880,note_on,96,0,1,,,,,,,,0,,,78,0
50880,note_on,0,0,1,,,,,,,,0,,,76,45
50976,note_on,0,0,1,,,,,,,,0,,,78,45
50976,note_on,96,0,1,,,,,,,,0,,,76,0
51070,note_on,94,0,1,,,,,,,,0,,,78,0
51072,note_on,0,0,2,,,,,,,,1,,,59,45
51072,note_on,384,0,2,,,,,,,,1,,,60,0
51072,note_on,2,0,1,,,,,,,,0,,,79,45
51168,note_on,0,0,1,,,,,,,,0,,,86,45
51168,note_on,96,0,1,,,,,,,,0,,,79,0
51264,note_on,0,0,1,,,,,,,,0,,,84,45
51264,note_on,96,0,1,,,,,,,,0,,,86,0
51360,note_on,96,0,1,,,,,,,,0,,,84,0
51360,note_on,0,0,1,,,,,,,,0,,,83,45
51408,note_on,336,0,2,,,,,,,,1,,,62,0
51408,note_on,0,0,2,,,,,,,,1,,,59,0
51454,note_on,94,0,1,,,,,,,,0,,,83,0
51456,note_on,48,0,2,,,,,,,,1,,,60,45
51456,note_on,0,0,1,,,,,,,,0,,,83,45
51456,note_on,2,0,1,,,,,,,,0,,,76,45
51504,note_on,48,0,2,,,,,,,,1,,,60,0
51552,note_on,96,0,1,,,,,,,,0,,,83,0
51552,note_on,0,0,1,,,,,,,,0,,,81,45
51648,note_on,144,0,2,,,,,,,,1,,,48,45
51648,note_on,0,0,1,,,,,,,,0,,,84,45
51648,note_on,96,0,1,,,,,,,,0,,,81,0
51696,note_on,48,0,2,,,,,,,,1,,,48,0
51712,note_on,64,0,1,,,,,,,,0,,,76,0
51744,note_on,0,0,1,,,,,,,,0,,,81,45
51744,note_on,32,0,1,,,,,,,,0,,,84,0
51744,note_on,0,0,1,,,,,,,,0,,,72,45
51838,note_on,0,0,1,,,,,,,,0,,,81,0
51838,note_on,94,0,1,,,,,,,,0,,,72,0
51840,note_on,144,0,2,,,,,,,,1,,,50,45
51840,note_on,0,0,1,,,,,,,,0,,,81,45
51840,note_on,2,0,1,,,,,,,,0,,,72,45
51888,note_on,48,0,2,,,,,,,,1,,,50,0
51936,note_on,0,0,1,,,,,,,,0,,,71,45
51936,note_on,0,0,1,,,,,,,,0,,,79,45
51936,note_on,0,0,1,,,,,,,,0,,,81,0
51936,note_on,96,0,1,,,,,,,,0,,,72,0
52030,note_on,0,0,1,,,,,,,,0,,,79,0
52030,note_on,94,0,1,,,,,,,,0,,,71,0
52032,note_on,2,0,1,,,,,,,,0,,,71,45
52032,note_on,144,0,2,,,,,,,,1,,,38,45
52032,note_on,0,0,1,,,,,,,,0,,,79,45
52080,note_on,48,0,2,,,,,,,,1,,,38,0
52128,note_on,0,0,1,,,,,,,,0,,,69,45
52128,note_on,96,0,1,,,,,,,,0,,,71,0
52128,note_on,0,0,1,,,,,,,,0,,,79,0
52128,note_on,0,0,1,,,,,,,,0,,,78,45
52222,note_on,0,0,1,,,,,,,,0,,,78,0
52222,note_on,94,0,1,,,,,,,,0,,,69,0
52224,note_on,0,0,1,,,,,,,,0,,,79,45
52224,note_on,2,0,1,,,,,,,,0,,,71,45
52224,note_on,144,0,2,,,,,,,,1,,,43,45
52384,note_on,0,0,1,,,,,,,,0,,,79,0
52384,note_on,160,0,1,,,,,,,,0,,,71,0
52384,note_on,160,0,2,,,,,,,,1,,,43,0
52512,note_on,0,0,1,,,,,,,,0,,,83,92
52512,note_on,128,0,1,,,,,,,,0,,,74,92
52512,note_on,128,0,2,,,,,,,,1,,,55,92
52544,note_on,32,0,2,,,,,,,,1,,,55,0
52544,note_on,32,0,1,,,,,,,,0,,,74,0
52544,note_on,0,0,1,,,,,,,,0,,,83,0
52608,note_on,64,0,1,,,,,,,,0,,,74,92
52608,note_on,0,0,1,,,,,,,,0,,,83,92
52608,note_on,64,0,2,,,,,,,,1,,,55,92
52640,note_on,32,0,1,,,,,,,,0,,,74,0
52640,note_on,0,0,1,,,,,,,,0,,,83,0
52640,note_on,32,0,2,,,,,,,,1,,,55,0
52704,note_on,64,0,1,,,,,,,,0,,,74,92
52704,note_on,64,0,2,,,,,,,,1,,,55,92
52704,note_on,0,0,1,,,,,,,,0,,,83,92
52736,note_on,32,0,2,,,,,,,,1,,,55,0
52736,note_on,32,0,1,,,,,,,,0,,,74,0
52736,note_on,0,0,1,,,,,,,,0,,,83,0
52800,note_on,64,0,2,,,,,,,,1,,,55,92
52800,note_on,0,0,1,,,,,,,,0,,,83,92
52800,note_on,64,0,1,,,,,,,,0,,,74,92
52832,note_on,0,0,1,,,,,,,,0,,,83,0
52832,note_on,32,0,1,,,,,,,,0,,,74,0
52832,note_on,32,0,2,,,,,,,,1,,,55,0
52896,note_on,64,0,2,,,,,,,,1,,,55,92
52896,note_on,64,0,1,,,,,,,,0,,,74,92
52896,note_on,0,0,1,,,,,,,,0,,,83,92
52928,note_on,32,0,2,,,,,,,,1,,,55,0
52928,note_on,32,0,1,,,,,,,,0,,,74,0
52928,note_on,0,0,1,,,,,,,,0,,,83,0
52992,note_on,64,0,1,,,,,,,,0,,,74,92
52992,note_on,0,0,1,,,,,,,,0,,,86,92
52992,note_on,64,0,2,,,,,,,,1,,,54,92
53088,note_on,96,0,1,,,,,,,,0,,,74,0
53088,note_on,0,0,1,,,,,,,,0,,,85,92
53088,note_on,0,0,1,,,,,,,,0,,,86,0
53152,note_on,160,0,2,,,,,,,,1,,,54,0
53184,note_on,0,0,1,,,,,,,,0,,,84,92
53184,note_on,96,0,1,,,,,,,,0,,,85,0
53278,note_on,94,0,1,,,,,,,,0,,,84,0
53280,note_on,2,0,1,,,,,,,,0,,,81,45
53312,note_on,32,0,1,,,,,,,,0,,,81,0
53376,note_on,0,0,1,,,,,,,,0,,,78,45
53376,note_on,64,0,1,,,,,,,,0,,,72,45
53376,note_on,224,0,2,,,,,,,,1,,,50,45
53408,note_on,32,0,1,,,,,,,,0,,,72,0
53408,note_on,0,0,1,,,,,,,,0,,,78,0
53408,note_on,32,0,2,,,,,,,,1,,,50,0
53472,note_on,64,0,1,,,,,,,,0,,,72,45
53472,note_on,0,0,1,,,,,,,,0,,,78,45
53472,note_on,64,0,2,,,,,,,,1,,,50,45
53504,note_on,32,0,2,,,,,,,,1,,,50,0
53504,note_on,32,0,1,,,,,,,,0,,,72,0
53504,note_on,0,0,1,,,,,,,,0,,,78,0
53568,note_on,64,0,2,,,,,,,,1,,,50,45
53568,note_on,64,0,1,,,,,,,,0,,,72,45
53568,note_on,0,0,1,,,,,,,,0,,,78,45
53600,note_on,32,0,1,,,,,,,,0,,,72,0
53600,note_on,0,0,1,,,,,,,,0,,,78,0
53600,note_on,32,0,2,,,,,,,,1,,,50,0
53664,note_on,64,0,2,,,,,,,,1,,,50,45
53664,note_on,64,0,1,,,,,,,,0,,,72,45
53664,note_on,0,0,1,,,,,,,,0,,,78,45
53696,note_on,32,0,1,,,,,,,,0,,,72,0
53696,note_on,32,0,2,,,,,,,,1,,,50,0
53696,note_on,0,0,1,,,,,,,,0,,,78,0
53760,note_on,64,0,2,,,,,,,,1,,,43,45
53760,note_on,64,0,1,,,,,,,,0,,,71,45
53760,note_on,0,0,1,,,,,,,,0,,,78,45
53856,note_on,96,0,1,,,,,,,,0,,,78,0
53856,note_on,0,0,1,,,,,,,,0,,,79,45
53920,note_on,64,0,1,,,,,,,,0,,,71,0
53920,note_on,160,0,2,,,,,,,,1,,,43,0
53952,note_on,32,0,1,,,,,,,,0,,,79,0
53952,note_on,0,0,1,,,,,,,,0,,,74,45
54046,note_on,94,0,1,,,,,,,,0,,,74,0
54048,note_on,2,0,1,,,,,,,,0,,,74,92
54048,note_on,0,0,1,,,,,,,,0,,,83,92
54048,note_on,128,0,2,,,,,,,,1,,,55,92
54080,note_on,0,0,1,,,,,,,,0,,,83,0
54080,note_on,32,0,1,,,,,,,,0,,,74,0
54080,note_on,32,0,2,,,,,,,,1,,,55,0
54144,note_on,64,0,1,,,,,,,,0,,,74,92
54144,note_on,64,0,2,,,,,,,,1,,,55,92
54144,note_on,0,0,1,,,,,,,,0,,,83,92
54176,note_on,32,0,2,,,,,,,,1,,,55,0
54176,note_on,32,0,1,,,,,,,,0,,,74,0
54176,note_on,0,0,1,,,,,,,,0,,,83,0
54240,note_on,64,0,2,,,,,,,,1,,,55,92
54240,note_on,0,0,1,,,,,,,,0,,,83,92
54240,note_on,64,0,1,,,,,,,,0,,,74,92
54272,note_on,32,0,1,,,,,,,,0,,,74,0
54272,note_on,32,0,2,,,,,,,,1,,,55,0
54272,note_on,0,0,1,,,,,,,,0,,,83,0
54336,note_on,64,0,1,,,,,,,,0,,,74,92
54336,note_on,0,0,1,,,,,,,,0,,,83,92
54336,note_on,64,0,2,,,,,,,,1,,,55,92
54368,note_on,32,0,1,,,,,,,,0,,,74,0
54368,note_on,0,0,1,,,,,,,,0,,,83,0
54368,note_on,32,0,2,,,,,,,,1,,,55,0
54432,note_on,64,0,1,,,,,,,,0,,,74,92
54432,note_on,64,0,2,,,,,,,,1,,,55,92
54432,note_on,0,0,1,,,,,,,,0,,,83,92
54464,note_on,32,0,2,,,,,,,,1,,,55,0
54464,note_on,0,0,1,,,,,,,,0,,,83,0
54464,note_on,32,0,1,,,,,,,,0,,,74,0
54528,note_on,0,0,1,,,,,,,,0,,,86,92
54528,note_on,64,0,1,,,,,,,,0,,,74,92
54528,note_on,64,0,2,,,,,,,,1,,,54,92
54624,note_on,0,0,1,,,,,,,,0,,,85,92
54624,note_on,0,0,1,,,,,,,,0,,,86,0
54624,note_on,96,0,1,,,,,,,,0,,,74,0
54688,note_on,160,0,2,,,,,,,,1,,,54,0
54720,note_on,0,0,1,,,,,,,,0,,,84,92
54720,note_on,96,0,1,,,,,,,,0,,,85,0
54814,note_on,94,0,1,,,,,,,,0,,,84,0
54816,note_on,2,0,1,,,,,,,,0,,,81,45
54848,note_on,32,0,1,,,,,,,,0,,,81,0
54912,note_on,224,0,2,,,,,,,,1,,,50,45
54912,note_on,0,0,1,,,,,,,,0,,,78,45
54912,note_on,64,0,1,,,,,,,,0,,,72,45
54944,note_on,0,0,1,,,,,,,,0,,,78,0
54944,note_on,32,0,1,,,,,,,,0,,,72,0
54944,note_on,32,0,2,,,,,,,,1,,,50,0
55008,note_on,0,0,1,,,,,,,,0,,,78,45
55008,note_on,64,0,1,,,,,,,,0,,,72,45
55008,note_on,64,0,2,,,,,,,,1,,,50,45
55040,note_on,0,0,1,,,,,,,,0,,,78,0
55040,note_on,32,0,1,,,,,,,,0,,,72,0
55040,note_on,32,0,2,,,,,,,,1,,,50,0
55104,note_on,0,0,1,,,,,,,,0,,,78,45
55104,note_on,64,0,2,,,,,,,,1,,,50,45
55104,note_on,64,0,1,,,,,,,,0,,,72,45
55136,note_on,32,0,2,,,,,,,,1,,,50,0
55136,note_on,0,0,1,,,,,,,,0,,,78,0
55136,note_on,32,0,1,,,,,,,,0,,,72,0
55200,note_on,64,0,2,,,,,,,,1,,,50,45
55200,note_on,64,0,1,,,,,,,,0,,,72,45
55200,note_on,0,0,1,,,,,,,,0,,,78,45
55232,note_on,32,0,2,,,,,,,,1,,,50,0
55232,note_on,32,0,1,,,,,,,,0,,,72,0
55232,note_on,0,0,1,,,,,,,,0,,,78,0
55296,note_on,64,0,1,,,,,,,,0,,,71,45
55296,note_on,64,0,2,,,,,,,,1,,,55,45
55296,note_on,0,0,1,,,,,,,,0,,,79,45
55328,note_on,32,0,2,,,,,,,,1,,,55,0
55392,note_on,96,0,1,,,,,,,,0,,,71,0
55392,note_on,0,0,1,,,,,,,,0,,,79,0
55392,note_on,0,0,1,,,,,,,,0,,,83,45
55488,note_on,0,0,1,,,,,,,,0,,,81,45
55488,note_on,0,0,1,,,,,,,,0,,,72,45
55488,note_on,160,0,2,,,,,,,,1,,,50,45
55488,note_on,96,0,1,,,,,,,,0,,,83,0
55520,note_on,32,0,2,,,,,,,,1,,,50,0
55584,note_on,0,0,1,,,,,,,,0,,,78,45
55584,note_on,96,0,1,,,,,,,,0,,,72,0
55584,note_on,0,0,1,,,,,,,,0,,,81,0
55678,note_on,94,0,1,,,,,,,,0,,,78,0
55680,note_on,160,0,2,,,,,,,,1,,,55,45
55680,note_on,0,0,1,,,,,,,,0,,,79,45
55680,note_on,2,0,1,,,,,,,,0,,,71,45
55712,note_on,32,0,2,,,,,,,,1,,,55,0
55776,note_on,96,0,1,,,,,,,,0,,,71,0
55776,note_on,0,0,1,,,,,,,,0,,,83,45
55776,note_on,0,0,1,,,,,,,,0,,,79,0
55872,note_on,96,0,1,,,,,,,,0,,,83,0
55872,note_on,160,0,2,,,,,,,,1,,,50,45
55872,note_on,0,0,1,,,,,,,,0,,,72,45
55872,note_on,0,0,1,,,,,,,,0,,,81,45
55904,note_on,32,0,2,,,,,,,,1,,,50,0
55968,note_on,96,0,1,,,,,,,,0,,,72,0
55968,note_on,0,0,1,,,,,,,,0,,,81,0
55968,note_on,0,0,1,,,,,,,,0,,,78,45
56062,note_on,94,0,1,,,,,,,,0,,,78,0
56064,note_on,160,0,2,,,,,,,,1,,,43,45
56064,note_on,0,0,1,,,,,,,,0,,,79,45
56064,note_on,2,0,1,,,,,,,,0,,,71,45
56096,note_on,0,0,1,,,,,,,,0,,,79,0
56096,note_on,32,0,1,,,,,,,,0,,,71,0
56096,note_on,32,0,2,,,,,,,,1,,,43,0
56256,note_on,160,0,2,,,,,,,,1,,,55,45
56256,note_on,160,0,1,,,,,,,,0,,,74,45
56256,note_on,0,0,1,,,,,,,,0,,,83,45
56288,note_on,32,0,2,,,,,,,,1,,,55,0
56288,note_on,32,0,1,,,,,,,,0,,,74,0
56288,note_on,0,0,1,,,,,,,,0,,,83,0
56448,note_on,160,0,1,,,,,,,,0,,,71,45
56448,note_on,0,0,1,,,,,,,,0,,,79,45
56448,note_on,160,0,2,,,,,,,,1,,,43,45
56480,note_on,32,0,2,,,,,,,,1,,,43,0
56480,note_on,32,0,1,,,,,,,,0,,,71,0
56480,note_on,0,0,1,,,,,,,,0,,,79,0
56832,note_on,352,0,1,,,,,,,,0,,,79,92
56832,note_on,352,0,2,,,,,,,,1,,,55,92
57216,note_on,0,0,2,,,,,,,,1,,,58,92
57216,note_on,384,0,2,,,,,,,,1,,,55,0
57216,note_on,384,0,1,,,,,,,,0,,,79,0
57216,note_on,0,0,1,,,,,,,,0,,,82,92
57552,note_on,336,0,2,,,,,,,,1,,,58,0
57552,note_on,336,0,1,,,,,,,,0,,,82,0
57600,note_on,48,0,2,,,,,,,,1,,,49,92
57600,note_on,48,0,1,,,,,,,,0,,,73,92
57648,note_on,48,0,1,,,,,,,,0,,,73,0
57648,note_on,48,0,2,,,,,,,,1,,,49,0
57792,note_on,144,0,1,,,,,,,,0,,,74,92
57792,note_on,144,0,2,,,,,,,,1,,,50,92
57840,note_on,48,0,2,,,,,,,,1,,,50,0
57840,note_on,48,0,1,,,,,,,,0,,,74,0
58368,note_on,528,0,1,,,,,,,,0,,,69,45
58368,note_on,0,0,1,,,,,,,,0,,,77,45
58416,note_on,48,0,1,,,,,,,,0,,,69,0
58416,note_on,0,0,1,,,,,,,,0,,,77,0
58560,note_on,144,0,1,,,,,,,,0,,,70,45
58560,note_on,0,0,1,,,,,,,,0,,,79,45
58944,note_on,384,0,1,,,,,,,,0,,,70,0
58944,note_on,0,0,1,,,,,,,,0,,,79,0
58944,note_on,0,0,1,,,,,,,,0,,,77,45
58944,note_on,0,0,1,,,,,,,,0,,,69,45
59104,note_on,0,0,1,,,,,,,,0,,,77,0
59104,note_on,160,0,1,,,,,,,,0,,,69,0
59136,note_on,1296,0,2,,,,,,,,1,,,57,45
59136,note_on,0,0,1,,,,,,,,0,,,77,45
59136,note_on,32,0,1,,,,,,,,0,,,67,45
59184,note_on,48,0,2,,,,,,,,1,,,57,0
59232,note_on,96,0,1,,,,,,,,0,,,67,0
59232,note_on,0,0,1,,,,,,,,0,,,76,45
59232,note_on,0,0,1,,,,,,,,0,,,77,0
59326,note_on,94,0,1,,,,,,,,0,,,76,0
59328,note_on,144,0,2,,,,,,,,1,,,57,45
59328,note_on,0,0,1,,,,,,,,0,,,76,45
59328,note_on,2,0,1,,,,,,,,0,,,67,45
59376,note_on,48,0,2,,,,,,,,1,,,57,0
59424,note_on,0,0,1,,,,,,,,0,,,73,45
59424,note_on,96,0,1,,,,,,,,0,,,67,0
59424,note_on,0,0,1,,,,,,,,0,,,76,0
59518,note_on,94,0,1,,,,,,,,0,,,73,0
59520,note_on,144,0,2,,,,,,,,1,,,50,45
59520,note_on,0,0,1,,,,,,,,0,,,74,45
59520,note_on,2,0,1,,,,,,,,0,,,65,45
59568,note_on,48,0,2,,,,,,,,1,,,50,0
59614,note_on,94,0,1,,,,,,,,0,,,65,0
59680,note_on,66,0,1,,,,,,,,0,,,74,0
59904,note_on,224,0,1,,,,,,,,0,,,77,45
59904,note_on,336,0,2,,,,,,,,1,,,53,45
60288,note_on,384,0,1,,,,,,,,0,,,77,0
60288,note_on,0,0,1,,,,,,,,0,,,80,45
60288,note_on,384,0,2,,,,,,,,1,,,53,0
60288,note_on,0,0,2,,,,,,,,1,,,56,45
60624,note_on,336,0,1,,,,,,,,0,,,80,0
60624,note_on,336,0,2,,,,,,,,1,,,56,0
60672,note_on,48,0,1,,,,,,,,0,,,71,45
60672,note_on,48,0,2,,,,,,,,1,,,47,45
60720,note_on,48,0,1,,,,,,,,0,,,71,0
60720,note_on,48,0,2,,,,,,,,1,,,47,0
60864,note_on,144,0,1,,,,,,,,0,,,72,45
60864,note_on,144,0,2,,,,,,,,1,,,48,45
60912,note_on,48,0,2,,,,,,,,1,,,48,0
60912,note_on,48,0,1,,,,,,,,0,,,72,0
61440,note_on,0,0,1,,,,,,,,0,,,76,45
61440,note_on,528,0,1,,,,,,,,0,,,67,45
61488,note_on,0,0,1,,,,,,,,0,,,76,0
61488,note_on,48,0,1,,,,,,,,0,,,67,0
61632,note_on,0,0,1,,,,,,,,0,,,77,45
61632,note_on,144,0,1,,,,,,,,0,,,69,45
62016,note_on,384,0,1,,,,,,,,0,,,69,0
62016,note_on,0,0,1,,,,,,,,0,,,77,0
62016,note_on,0,0,1,,,,,,,,0,,,67,45
62016,note_on,0,0,1,,,,,,,,0,,,76,45
62176,note_on,160,0,1,,,,,,,,0,,,67,0
62176,note_on,0,0,1,,,,,,,,0,,,76,0
62208,note_on,32,0,1,,,,,,,,0,,,65,45
62208,note_on,0,0,1,,,,,,,,0,,,76,45
62208,note_on,1296,0,2,,,,,,,,1,,,55,45
62256,note_on,48,0,2,,,,,,,,1,,,55,0
62304,note_on,0,0,1,,,,,,,,0,,,74,45
62304,note_on,0,0,1,,,,,,,,0,,,76,0
62304,note_on,96,0,1,,,,,,,,0,,,65,0
62398,note_on,94,0,1,,,,,,,,0,,,74,0
62400,note_on,2,0,1,,,,,,,,0,,,65,45
62400,note_on,0,0,1,,,,,,,,0,,,74,45
62400,note_on,144,0,2,,,,,,,,1,,,55,45
62448,note_on,48,0,2,,,,,,,,1,,,55,0
62496,note_on,96,0,1,,,,,,,,0,,,65,0
62496,note_on,0,0,1,,,,,,,,0,,,74,0
62496,note_on,0,0,1,,,,,,,,0,,,71,45
62590,note_on,94,0,1,,,,,,,,0,,,71,0
62592,note_on,2,0,1,,,,,,,,0,,,64,45
62592,note_on,0,0,1,,,,,,,,0,,,72,45
62592,note_on,144,0,2,,,,,,,,1,,,48,45
62640,note_on,48,0,2,,,,,,,,1,,,48,0
62686,note_on,94,0,1,,,,,,,,0,,,64,0
62752,note_on,66,0,1,,,,,,,,0,,,72,0
62976,note_on,336,0,2,,,,,,,,1,,,57,45
62976,note_on,0,0,2,,,,,,,,1,,,60,45
63024,note_on,48,0,2,,,,,,,,1,,,57,0
63024,note_on,0,0,2,,,,,,,,1,,,60,0
63168,note_on,144,0,2,,,,,,,,1,,,58,56
63168,note_on,0,0,2,,,,,,,,1,,,62,56
63552,note_on,0,0,2,,,,,,,,1,,,60,80
63552,note_on,0,0,2,,,,,,,,1,,,57,80
63552,note_on,0,0,2,,,,,,,,1,,,62,0
63552,note_on,384,0,2,,,,,,,,1,,,58,0
63712,note_on,160,0,2,,,,,,,,1,,,57,0
63712,note_on,0,0,2,,,,,,,,1,,,60,0
63744,note_on,992,0,1,,,,,,,,0,,,84,92
63744,note_on,32,0,2,,,,,,,,1,,,57,92
63744,note_on,0,0,2,,,,,,,,1,,,60,92
63840,note_on,0,0,2,,,,,,,,1,,,55,92
63840,note_on,96,0,2,,,,,,,,1,,,57,0
63840,note_on,0,0,2,,,,,,,,1,,,60,0
63840,note_on,0,0,2,,,,,,,,1,,,58,92
63934,note_on,94,0,2,,,,,,,,1,,,55,0
63934,note_on,0,0,2,,,,,,,,1,,,58,0
63936,note_on,2,0,2,,,,,,,,1,,,55,92
63936,note_on,0,0,2,,,,,,,,1,,,58,92
64032,note_on,96,0,2,,,,,,,,1,,,55,0
64032,note_on,0,0,2,,,,,,,,1,,,58,0
64032,note_on,0,0,2,,,,,,,,1,,,55,92
64032,note_on,0,0,2,,,,,,,,1,,,52,92
64126,note_on,0,0,2,,,,,,,,1,,,55,0
64126,note_on,94,0,2,,,,,,,,1,,,52,0
64128,note_on,0,0,2,,,,,,,,1,,,57,92
64128,note_on,2,0,2,,,,,,,,1,,,53,92
64222,note_on,478,0,1,,,,,,,,0,,,84,0
64224,note_on,2,0,1,,,,,,,,0,,,83,92
64288,note_on,0,0,2,,,,,,,,1,,,57,0
64288,note_on,160,0,2,,,,,,,,1,,,53,0
64320,note_on,96,0,1,,,,,,,,0,,,83,0
64320,note_on,0,0,1,,,,,,,,0,,,84,92
64416,note_on,96,0,1,,,,,,,,0,,,84,0
64416,note_on,0,0,1,,,,,,,,0,,,82,92
64510,note_on,94,0,1,,,,,,,,0,,,82,0
64512,note_on,0,0,1,,,,,,,,0,,,81,92
64512,note_on,2,0,1,,,,,,,,0,,,77,92
64608,note_on,320,0,2,,,,,,,,1,,,41,92
64640,note_on,32,0,2,,,,,,,,1,,,41,0
64704,note_on,64,0,2,,,,,,,,1,,,45,92
64736,note_on,32,0,2,,,,,,,,1,,,45,0
64800,note_on,64,0,2,,,,,,,,1,,,48,92
64832,note_on,32,0,2,,,,,,,,1,,,48,0
64896,note_on,64,0,2,,,,,,,,1,,,53,92
64990,note_on,0,0,1,,,,,,,,0,,,81,0
64990,note_on,478,0,1,,,,,,,,0,,,77,0
64992,note_on,0,0,1,,,,,,,,0,,,80,92
64992,note_on,2,0,1,,,,,,,,0,,,76,92
65056,note_on,160,0,2,,,,,,,,1,,,53,0
65088,note_on,0,0,1,,,,,,,,0,,,80,0
65088,note_on,0,0,1,,,,,,,,0,,,77,92
65088,note_on,0,0,1,,,,,,,,0,,,81,92
65088,note_on,96,0,1,,,,,,,,0,,,76,0
65184,note_on,96,0,1,,,,,,,,0,,,77,0
65184,note_on,0,0,1,,,,,,,,0,,,76,92
65184,note_on,0,0,1,,,,,,,,0,,,81,0
65184,note_on,0,0,1,,,,,,,,0,,,79,92
65278,note_on,0,0,1,,,,,,,,0,,,79,0
65278,note_on,94,0,1,,,,,,,,0,,,76,0
65280,note_on,224,0,2,,,,,,,,1,,,45,92
65280,note_on,2,0,1,,,,,,,,0,,,74,92
65280,note_on,0,0,1,,,,,,,,0,,,77,92
65376,note_on,0,0,1,,,,,,,,0,,,76,92
65376,note_on,0,0,1,,,,,,,,0,,,73,92
65376,note_on,96,0,1,,,,,,,,0,,,74,0
65376,note_on,0,0,1,,,,,,,,0,,,77,0
65472,note_on,0,0,1,,,,,,,,0,,,76,0
65472,note_on,0,0,1,,,,,,,,0,,,74,92
65472,note_on,0,0,1,,,,,,,,0,,,77,92
65472,note_on,96,0,1,,,,,,,,0,,,73,0
65568,note_on,0,0,1,,,,,,,,0,,,77,0
65568,note_on,96,0,1,,,,,,,,0,,,74,0
65568,note_on,0,0,1,,,,,,,,0,,,76,92
65568,note_on,0,0,1,,,,,,,,0,,,73,92
65662,note_on,0,0,1,,,,,,,,0,,,76,0
65662,note_on,94,0,1,,,,,,,,0,,,73,0
65664,note_on,0,0,1,,,,,,,,0,,,77,92
65664,note_on,2,0,1,,,,,,,,0,,,74,92
65760,note_on,480,0,2,,,,,,,,1,,,45,0
65760,note_on,0,0,1,,,,,,,,0,,,76,92
65760,note_on,96,0,1,,,,,,,,0,,,77,0
65760,note_on,0,0,2,,,,,,,,1,,,44,92
65856,note_on,0,0,1,,,,,,,,0,,,77,92
65856,note_on,96,0,1,,,,,,,,0,,,76,0
65856,note_on,96,0,2,,,,,,,,1,,,44,0
65856,note_on,0,0,2,,,,,,,,1,,,45,92
65920,note_on,64,0,1,,,,,,,,0,,,74,0
65952,note_on,0,0,2,,,,,,,,1,,,43,92
65952,note_on,96,0,2,,,,,,,,1,,,45,0
65952,note_on,0,0,1,,,,,,,,0,,,73,92
65952,note_on,32,0,1,,,,,,,,0,,,77,0
65952,note_on,0,0,1,,,,,,,,0,,,76,92
66046,note_on,94,0,1,,,,,,,,0,,,73,0
66046,note_on,0,0,1,,,,,,,,0,,,76,0
66046,note_on,94,0,2,,,,,,,,1,,,43,0
66048,note_on,2,0,2,,,,,,,,1,,,41,92
66048,note_on,2,0,1,,,,,,,,0,,,74,92
66048,note_on,0,0,1,,,,,,,,0,,,74,92
66208,note_on,160,0,1,,,,,,,,0,,,74,0
66240,note_on,0,0,1,,,,,,,,0,,,75,92
66240,note_on,0,0,1,,,,,,,,0,,,69,92
66240,note_on,32,0,1,,,,,,,,0,,,74,0
66432,note_on,384,0,2,,,,,,,,1,,,41,0
66432,note_on,192,0,1,,,,,,,,0,,,75,0
66432,note_on,0,0,1,,,,,,,,0,,,74,92
66432,note_on,0,0,2,,,,,,,,1,,,42,92
66576,note_on,144,0,1,,,,,,,,0,,,69,0
66624,note_on,48,0,1,,,,,,,,0,,,74,0
66624,note_on,0,0,1,,,,,,,,0,,,69,92
66624,note_on,0,0,1,,,,,,,,0,,,72,92
66768,note_on,336,0,2,,,,,,,,1,,,42,0
66784,note_on,160,0,1,,,,,,,,0,,,69,0
66784,note_on,0,0,1,,,,,,,,0,,,72,0
66816,note_on,32,0,1,,,,,,,,0,,,67,92
66816,note_on,0,0,1,,,,,,,,0,,,71,92
66816,note_on,48,0,2,,,,,,,,1,,,43,92
66864,note_on,48,0,2,,,,,,,,1,,,43,0
66976,note_on,0,0,1,,,,,,,,0,,,71,0
66976,note_on,160,0,1,,,,,,,,0,,,67,0
67008,note_on,144,0,2,,,,,,,,1,,,55,127
67200,note_on,224,0,1,,,,,,,,0,,,67,92
67248,note_on,48,0,1,,,,,,,,0,,,67,0
67294,note_on,286,0,2,,,,,,,,1,,,55,0
67296,note_on,2,0,2,,,,,,,,1,,,54,92
67392,note_on,96,0,2,,,,,,,,1,,,54,0
67392,note_on,0,0,2,,,,,,,,1,,,55,92
67392,note_on,144,0,1,,,,,,,,0,,,79,127
67488,note_on,96,0,2,,,,,,,,1,,,55,0
67488,note_on,0,0,2,,,,,,,,1,,,53,92
67582,note_on,94,0,2,,,,,,,,1,,,53,0
67584,note_on,2,0,2,,,,,,,,1,,,52,92
67678,note_on,286,0,1,,,,,,,,0,,,79,0
67680,note_on,2,0,1,,,,,,,,0,,,78,92
67680,note_on,0,0,2,,,,,,,,1,,,51,92
67680,note_on,96,0,2,,,,,,,,1,,,52,0
67776,note_on,96,0,2,,,,,,,,1,,,51,0
67776,note_on,0,0,2,,,,,,,,1,,,52,92
67776,note_on,96,0,1,,,,,,,,0,,,78,0
67776,note_on,0,0,1,,,,,,,,0,,,79,92
67872,note_on,0,0,2,,,,,,,,1,,,50,92
67872,note_on,96,0,2,,,,,,,,1,,,52,0
67872,note_on,96,0,1,,,,,,,,0,,,79,0
67872,note_on,0,0,1,,,,,,,,0,,,77,92
67966,note_on,94,0,1,,,,,,,,0,,,77,0
67966,note_on,94,0,2,,,,,,,,1,,,50,0
67968,note_on,2,0,2,,,,,,,,1,,,48,92
67968,note_on,2,0,1,,,,,,,,0,,,76,92
68064,note_on,96,0,1,,,,,,,,0,,,78,92
68128,note_on,64,0,1,,,,,,,,0,,,76,0
68160,note_on,32,0,1,,,,,,,,0,,,78,0
68160,note_on,192,0,2,,,,,,,,1,,,48,0
68160,note_on,0,0,1,,,,,,,,0,,,72,92
68160,note_on,0,0,1,,,,,,,,0,,,79,92
68160,note_on,0,0,2,,,,,,,,1,,,45,92
68256,note_on,96,0,1,,,,,,,,0,,,79,0
68256,note_on,0,0,1,,,,,,,,0,,,78,92
68320,note_on,160,0,2,,,,,,,,1,,,45,0
68320,note_on,64,0,1,,,,,,,,0,,,72,0
68350,note_on,30,0,1,,,,,,,,0,,,78,0
68352,note_on,32,0,2,,,,,,,,1,,,43,92
68352,note_on,0,0,1,,,,,,,,0,,,79,92
68352,note_on,2,0,1,,,,,,,,0,,,71,92
68400,note_on,48,0,2,,,,,,,,1,,,43,0
68512,note_on,160,0,1,,,,,,,,0,,,71,0
68512,note_on,0,0,1,,,,,,,,0,,,79,0
68544,note_on,144,0,2,,,,,,,,1,,,55,127
68736,note_on,224,0,1,,,,,,,,0,,,67,92
68784,note_on,48,0,1,,,,,,,,0,,,67,0
68830,note_on,286,0,2,,,,,,,,1,,,55,0
68832,note_on,2,0,2,,,,,,,,1,,,54,92
68928,note_on,0,0,2,,,,,,,,1,,,55,92
68928,note_on,96,0,2,,,,,,,,1,,,54,0
68928,note_on,144,0,1,,,,,,,,0,,,79,127
69024,note_on,0,0,2,,,,,,,,1,,,53,92
69024,note_on,96,0,2,,,,,,,,1,,,55,0
69118,note_on,94,0,2,,,,,,,,1,,,53,0
69120,note_on,2,0,2,,,,,,,,1,,,51,92
69214,note_on,286,0,1,,,,,,,,0,,,79,0
69216,note_on,0,0,2,,,,,,,,1,,,50,92
69216,note_on,96,0,2,,,,,,,,1,,,51,0
69216,note_on,2,0,1,,,,,,,,0,,,78,92
69312,note_on,0,0,1,,,,,,,,0,,,79,92
69312,note_on,96,0,1,,,,,,,,0,,,78,0
69312,note_on,96,0,2,,,,,,,,1,,,50,0
69312,note_on,0,0,2,,,,,,,,1,,,51,92
69408,note_on,96,0,2,,,,,,,,1,,,51,0
69408,note_on,0,0,2,,,,,,,,1,,,50,92
69408,note_on,0,0,1,,,,,,,,0,,,77,92
69408,note_on,96,0,1,,,,,,,,0,,,79,0
69502,note_on,94,0,2,,,,,,,,1,,,50,0
69502,note_on,94,0,1,,,,,,,,0,,,77,0
69504,note_on,2,0,2,,,,,,,,1,,,48,92
69504,note_on,2,0,1,,,,,,,,0,,,75,92
69600,note_on,96,0,1,,,,,,,,0,,,78,92
69664,note_on,64,0,1,,,,,,,,0,,,75,0
69696,note_on,0,0,2,,,,,,,,1,,,56,92
69696,note_on,192,0,2,,,,,,,,1,,,48,0
69696,note_on,0,0,1,,,,,,,,0,,,79,92
69696,note_on,0,0,1,,,,,,,,0,,,72,92
69696,note_on,32,0,1,,,,,,,,0,,,78,0
69792,note_on,96,0,1,,,,,,,,0,,,79,0
69792,note_on,0,0,1,,,,,,,,0,,,78,92
69856,note_on,160,0,2,,,,,,,,1,,,56,0
69856,note_on,64,0,1,,,,,,,,0,,,72,0
69886,note_on,30,0,1,,,,,,,,0,,,78,0
69888,note_on,32,0,2,,,,,,,,1,,,55,92
69888,note_on,0,0,1,,,,,,,,0,,,79,92
69888,note_on,2,0,1,,,,,,,,0,,,71,92
69982,note_on,0,0,1,,,,,,,,0,,,79,0
69982,note_on,94,0,1,,,,,,,,0,,,71,0
69982,note_on,94,0,2,,,,,,,,1,,,55,0
70080,note_on,98,0,2,,,,,,,,1,,,43,92
70080,note_on,0,0,1,,,,,,,,0,,,83,92
70080,note_on,98,0,1,,,,,,,,0,,,77,92
70174,note_on,94,0,2,,,,,,,,1,,,43,0
70176,note_on,2,0,2,,,,,,,,1,,,55,92
70208,note_on,32,0,2,,,,,,,,1,,,55,0
70272,note_on,64,0,2,,,,,,,,1,,,43,92
70272,note_on,0,0,1,,,,,,,,0,,,84,92
70272,note_on,0,0,1,,,,,,,,0,,,76,92
70272,note_on,0,0,1,,,,,,,,0,,,83,0
70272,note_on,192,0,1,,,,,,,,0,,,77,0
70304,note_on,32,0,2,,,,,,,,1,,,43,0
70366,note_on,94,0,1,,,,,,,,0,,,76,0
70366,note_on,0,0,1,,,,,,,,0,,,84,0
70368,note_on,64,0,2,,,,,,,,1,,,55,92
70400,note_on,32,0,2,,,,,,,,1,,,55,0
70464,note_on,64,0,2,,,,,,,,1,,,43,92
70464,note_on,0,0,1,,,,,,,,0,,,76,92
70464,note_on,98,0,1,,,,,,,,0,,,72,92
70496,note_on,32,0,2,,,,,,,,1,,,43,0
70560,note_on,64,0,2,,,,,,,,1,,,55,92
70592,note_on,32,0,2,,,,,,,,1,,,55,0
70656,note_on,0,0,1,,,,,,,,0,,,71,92
70656,note_on,0,0,1,,,,,,,,0,,,76,0
70656,note_on,192,0,1,,,,,,,,0,,,72,0
70656,note_on,0,0,1,,,,,,,,0,,,74,92
70656,note_on,64,0,2,,,,,,,,1,,,43,92
70688,note_on,32,0,2,,,,,,,,1,,,43,0
70750,note_on,94,0,1,,,,,,,,0,,,71,0
70750,note_on,0,0,1,,,,,,,,0,,,74,0
70752,note_on,64,0,2,,,,,,,,1,,,55,92
70784,note_on,32,0,2,,,,,,,,1,,,55,0
70848,note_on,64,0,2,,,,,,,,1,,,43,92
70848,note_on,0,0,1,,,,,,,,0,,,83,92
70848,note_on,98,0,1,,,,,,,,0,,,77,92
70880,note_on,32,0,2,,,,,,,,1,,,43,0
70944,note_on,64,0,2,,,,,,,,1,,,55,92
70976,note_on,32,0,2,,,,,,,,1,,,55,0
71040,note_on,0,0,1,,,,,,,,0,,,84,92
71040,note_on,0,0,1,,,,,,,,0,,,83,0
71040,note_on,64,0,2,,,,,,,,1,,,43,92
71040,note_on,192,0,1,,,,,,,,0,,,77,0
71040,note_on,0,0,1,,,,,,,,0,,,76,92
71072,note_on,32,0,2,,,,,,,,1,,,43,0
71134,note_on,94,0,1,,,,,,,,0,,,76,0
71134,note_on,0,0,1,,,,,,,,0,,,84,0
71136,note_on,64,0,2,,,,,,,,1,,,55,92
71168,note_on,32,0,2,,,,,,,,1,,,55,0
71232,note_on,98,0,1,,,,,,,,0,,,72,92
71232,note_on,0,0,1,,,,,,,,0,,,76,92
71232,note_on,64,0,2,,,,,,,,1,,,43,92
71264,note_on,32,0,2,,,,,,,,1,,,43,0
71328,note_on,64,0,2,,,,,,,,1,,,55,92
71360,note_on,32,0,2,,,,,,,,1,,,55,0
71424,note_on,64,0,2,,,,,,,,1,,,43,92
71424,note_on,192,0,1,,,,,,,,0,,,72,0
71424,note_on,0,0,1,,,,,,,,0,,,76,0
71424,note_on,0,0,1,,,,,,,,0,,,74,92
71424,note_on,0,0,1,,,,,,,,0,,,71,92
71472,note_on,48,0,2,,,,,,,,1,,,43,0
71584,note_on,0,0,1,,,,,,,,0,,,74,0
71584,note_on,160,0,1,,,,,,,,0,,,71,0
71616,note_on,144,0,2,,,,,,,,1,,,55,92
71616,note_on,32,0,1,,,,,,,,0,,,71,92
71616,note_on,0,0,1,,,,,,,,0,,,79,92
71664,note_on,48,0,2,,,,,,,,1,,,55,0
71664,note_on,48,0,1,,,,,,,,0,,,71,0
71664,note_on,0,0,1,,,,,,,,0,,,79,0
71808,note_on,144,0,2,,,,,,,,1,,,43,92
71808,note_on,144,0,1,,,,,,,,0,,,71,92
71808,note_on,0,0,1,,,,,,,,0,,,79,92
71856,note_on,48,0,2,,,,,,,,1,,,43,0
71856,note_on,48,0,1,,,,,,,,0,,,71,0
71856,note_on,0,0,1,,,,,,,,0,,,79,0
72192,note_on,336,0,2,,,,,,,,1,,,48,92
72192,note_on,336,0,1,,,,,,,,0,,,72,92
72352,note_on,160,0,2,,,,,,,,1,,,48,0
72352,note_on,160,0,1,,,,,,,,0,,,72,0
72480,note_on,128,0,2,,,,,,,,1,,,43,92
72480,note_on,128,0,1,,,,,,,,0,,,67,92
72512,note_on,32,0,2,,,,,,,,1,,,43,0
72512,note_on,32,0,1,,,,,,,,0,,,67,0
72576,note_on,64,0,2,,,,,,,,1,,,48,92
72576,note_on,64,0,1,,,,,,,,0,,,72,92
72736,note_on,160,0,2,,,,,,,,1,,,48,0
72736,note_on,160,0,1,,,,,,,,0,,,72,0
72864,note_on,128,0,2,,,,,,,,1,,,43,92
72864,note_on,128,0,1,,,,,,,,0,,,67,92
72896,note_on,32,0,1,,,,,,,,0,,,67,0
72896,note_on,32,0,2,,,,,,,,1,,,43,0
72960,note_on,64,0,2,,,,,,,,1,,,48,92
72960,note_on,64,0,1,,,,,,,,0,,,72,92
72992,note_on,32,0,2,,,,,,,,1,,,48,0
72992,note_on,32,0,1,,,,,,,,0,,,72,0
73056,note_on,64,0,1,,,,,,,,0,,,76,92
73056,note_on,64,0,2,,,,,,,,1,,,52,92
73088,note_on,32,0,1,,,,,,,,0,,,76,0
73088,note_on,32,0,2,,,,,,,,1,,,52,0
73152,note_on,64,0,1,,,,,,,,0,,,79,92
73152,note_on,64,0,2,,,,,,,,1,,,55,92
73184,note_on,32,0,2,,,,,,,,1,,,55,0
73184,note_on,32,0,1,,,,,,,,0,,,79,0
73248,note_on,64,0,1,,,,,,,,0,,,76,92
73248,note_on,64,0,2,,,,,,,,1,,,52,92
73280,note_on,32,0,2,,,,,,,,1,,,52,0
73280,note_on,32,0,1,,,,,,,,0,,,76,0
73344,note_on,64,0,2,,,,,,,,1,,,48,92
73344,note_on,64,0,1,,,,,,,,0,,,72,92
73504,note_on,160,0,2,,,,,,,,1,,,48,0
73504,note_on,160,0,1,,,,,,,,0,,,72,0
73728,note_on,0,0,1,,,,,,,,0,,,76,45
73728,note_on,224,0,1,,,,,,,,0,,,67,45
73776,note_on,0,0,1,,,,,,,,0,,,76,0
73776,note_on,48,0,1,,,,,,,,0,,,67,0
73920,note_on,0,0,1,,,,,,,,0,,,77,45
73920,note_on,144,0,1,,,,,,,,0,,,69,45
74304,note_on,0,0,1,,,,,,,,0,,,77,0
74304,note_on,0,0,1,,,,,,,,0,,,76,45
74304,note_on,0,0,1,,,,,,,,0,,,67,45
74304,note_on,384,0,1,,,,,,,,0,,,69,0
74464,note_on,0,0,1,,,,,,,,0,,,76,0
74464,note_on,160,0,1,,,,,,,,0,,,67,0
74496,note_on,32,0,1,,,,,,,,0,,,67,45
74496,note_on,992,0,2,,,,,,,,1,,,55,45
74496,note_on,0,0,1,,,,,,,,0,,,76,45
74592,note_on,0,0,1,,,,,,,,0,,,65,45
74592,note_on,0,0,1,,,,,,,,0,,,76,0
74592,note_on,96,0,1,,,,,,,,0,,,67,0
74592,note_on,0,0,1,,,,,,,,0,,,74,45
74656,note_on,160,0,2,,,,,,,,1,,,55,0
74686,note_on,94,0,1,,,,,,,,0,,,65,0
74686,note_on,0,0,1,,,,,,,,0,,,74,0
74688,note_on,2,0,1,,,,,,,,0,,,65,45
74688,note_on,0,0,1,,,,,,,,0,,,74,45
74688,note_on,32,0,2,,,,,,,,1,,,55,45
74784,note_on,96,0,1,,,,,,,,0,,,74,0
74784,note_on,0,0,1,,,,,,,,0,,,71,45
74848,note_on,64,0,1,,,,,,,,0,,,65,0
74848,note_on,160,0,2,,,,,,,,1,,,55,0
74878,note_on,30,0,1,,,,,,,,0,,,71,0
74880,note_on,0,0,1,,,,,,,,0,,,72,45
74880,note_on,32,0,2,,,,,,,,1,,,60,45
74880,note_on,2,0,1,,,,,,,,0,,,64,45
74912,note_on,32,0,2,,,,,,,,1,,,60,0
74976,note_on,64,0,2,,,,,,,,1,,,48,45
75040,note_on,0,0,1,,,,,,,,0,,,72,0
75040,note_on,160,0,1,,,,,,,,0,,,64,0
75072,note_on,0,0,2,,,,,,,,1,,,52,45
75072,note_on,96,0,2,,,,,,,,1,,,48,0
75168,note_on,0,0,2,,,,,,,,1,,,55,45
75168,note_on,96,0,2,,,,,,,,1,,,52,0
75262,note_on,94,0,2,,,,,,,,1,,,55,0
75264,note_on,0,0,1,,,,,,,,0,,,79,45
75264,note_on,2,0,2,,,,,,,,1,,,60,45
75264,note_on,224,0,1,,,,,,,,0,,,76,45
75312,note_on,0,0,1,,,,,,,,0,,,79,0
75312,note_on,48,0,1,,,,,,,,0,,,76,0
75424,note_on,160,0,2,,,,,,,,1,,,60,0
75456,note_on,144,0,1,,,,,,,,0,,,77,45
75456,note_on,0,0,1,,,,,,,,0,,,81,45
75840,note_on,0,0,1,,,,,,,,0,,,76,45
75840,note_on,0,0,1,,,,,,,,0,,,79,45
75840,note_on,0,0,1,,,,,,,,0,,,81,0
75840,note_on,384,0,1,,,,,,,,0,,,77,0
76000,note_on,0,0,1,,,,,,,,0,,,79,0
76000,note_on,160,0,1,,,,,,,,0,,,76,0
76032,note_on,608,0,2,,,,,,,,1,,,55,45
76032,note_on,32,0,1,,,,,,,,0,,,76,45
76032,note_on,0,0,1,,,,,,,,0,,,79,45
76128,note_on,0,0,1,,,,,,,,0,,,74,45
76128,note_on,0,0,1,,,,,,,,0,,,79,0
76128,note_on,96,0,1,,,,,,,,0,,,76,0
76128,note_on,0,0,1,,,,,,,,0,,,77,45
76192,note_on,160,0,2,,,,,,,,1,,,55,0
76222,note_on,0,0,1,,,,,,,,0,,,77,0
76222,note_on,94,0,1,,,,,,,,0,,,74,0
76224,note_on,0,0,1,,,,,,,,0,,,77,45
76224,note_on,2,0,1,,,,,,,,0,,,74,45
76224,note_on,32,0,2,,,,,,,,1,,,55,45
76320,note_on,96,0,1,,,,,,,,0,,,74,0
76320,note_on,0,0,1,,,,,,,,0,,,77,0
76320,note_on,0,0,1,,,,,,,,0,,,71,45
76320,note_on,0,0,1,,,,,,,,0,,,74,45
76384,note_on,160,0,2,,,,,,,,1,,,55,0
76414,note_on,0,0,1,,,,,,,,0,,,74,0
76414,note_on,94,0,1,,,,,,,,0,,,71,0
76416,note_on,0,0,1,,,,,,,,0,,,76,45
76416,note_on,2,0,1,,,,,,,,0,,,72,45
76416,note_on,32,0,2,,,,,,,,1,,,60,45
76448,note_on,32,0,2,,,,,,,,1,,,60,0
76512,note_on,64,0,2,,,,,,,,1,,,48,45
76576,note_on,160,0,1,,,,,,,,0,,,72,0
76576,note_on,0,0,1,,,,,,,,0,,,76,0
76608,note_on,96,0,2,,,,,,,,1,,,48,0
76608,note_on,0,0,2,,,,,,,,1,,,52,45
76704,note_on,96,0,2,,,,,,,,1,,,52,0
76704,note_on,0,0,2,,,,,,,,1,,,55,45
76798,note_on,94,0,2,,,,,,,,1,,,55,0
76800,note_on,0,0,1,,,,,,,,0,,,84,92
76800,note_on,2,0,2,,,,,,,,1,,,60,92
76800,note_on,224,0,1,,,,,,,,0,,,72,92
76832,note_on,32,0,2,,,,,,,,1,,,60,0
76896,note_on,64,0,2,,,,,,,,1,,,52,92
76896,note_on,96,0,1,,,,,,,,0,,,84,0
76896,note_on,0,0,1,,,,,,,,0,,,79,92
76990,note_on,94,0,1,,,,,,,,0,,,79,0
76992,note_on,96,0,2,,,,,,,,1,,,52,0
76992,note_on,0,0,2,,,,,,,,1,,,64,92
76992,note_on,2,0,1,,,,,,,,0,,,79,92
77024,note_on,32,0,1,,,,,,,,0,,,79,0
77086,note_on,94,0,2,,,,,,,,1,,,64,0
77088,note_on,2,0,2,,,,,,,,1,,,64,92
77088,note_on,64,0,1,,,,,,,,0,,,79,92
77120,note_on,32,0,1,,,,,,,,0,,,79,0
77120,note_on,32,0,2,,,,,,,,1,,,64,0
77184,note_on,64,0,2,,,,,,,,1,,,64,92
77184,note_on,64,0,1,,,,,,,,0,,,79,92
77216,note_on,32,0,2,,,,,,,,1,,,64,0
77280,note_on,64,0,2,,,,,,,,1,,,64,92
77312,note_on,32,0,2,,,,,,,,1,,,64,0
77376,note_on,64,0,2,,,,,,,,1,,,64,92
77408,note_on,32,0,2,,,,,,,,1,,,64,0
77472,note_on,64,0,2,,,,,,,,1,,,64,92
77472,note_on,288,0,1,,,,,,,,0,,,79,0
77472,note_on,0,0,1,,,,,,,,0,,,80,92
77504,note_on,32,0,2,,,,,,,,1,,,64,0
77520,note_on,48,0,1,,,,,,,,0,,,72,0
77566,note_on,46,0,1,,,,,,,,0,,,80,0
77568,note_on,0,0,1,,,,,,,,0,,,81,92
77568,note_on,2,0,1,,,,,,,,0,,,72,92
77664,note_on,160,0,2,,,,,,,,1,,,53,92
77664,note_on,0,0,1,,,,,,,,0,,,74,92
77664,note_on,96,0,1,,,,,,,,0,,,81,0
77758,note_on,94,0,1,,,,,,,,0,,,74,0
77760,note_on,2,0,1,,,,,,,,0,,,74,92
77760,note_on,96,0,2,,,,,,,,1,,,53,0
77760,note_on,0,0,2,,,,,,,,1,,,65,92
77792,note_on,32,0,1,,,,,,,,0,,,74,0
77854,note_on,94,0,2,,,,,,,,1,,,65,0
77856,note_on,64,0,1,,,,,,,,0,,,74,92
77856,note_on,2,0,2,,,,,,,,1,,,65,92
77888,note_on,32,0,2,,,,,,,,1,,,65,0
77888,note_on,32,0,1,,,,,,,,0,,,74,0
77904,note_on,16,0,1,,,,,,,,0,,,72,0
77952,note_on,0,0,1,,,,,,,,0,,,74,92
77952,note_on,48,0,1,,,,,,,,0,,,71,92
77952,note_on,64,0,2,,,,,,,,1,,,65,92
77984,note_on,32,0,2,,,,,,,,1,,,65,0
78048,note_on,64,0,2,,,,,,,,1,,,65,92
78080,note_on,32,0,2,,,,,,,,1,,,65,0
78144,note_on,64,0,2,,,,,,,,1,,,65,92
78176,note_on,32,0,2,,,,,,,,1,,,65,0
78240,note_on,64,0,2,,,,,,,,1,,,65,92
78272,note_on,32,0,2,,,,,,,,1,,,65,0
78288,note_on,0,0,1,,,,,,,,0,,,74,0
78288,note_on,336,0,1,,,,,,,,0,,,71,0
78336,note_on,0,0,1,,,,,,,,0,,,79,92
78336,note_on,48,0,1,,,,,,,,0,,,72,92
78336,note_on,64,0,2,,,,,,,,1,,,64,92
78368,note_on,32,0,2,,,,,,,,1,,,64,0
78480,note_on,0,0,1,,,,,,,,0,,,81,92
78480,note_on,0,0,1,,,,,,,,0,,,79,0
78480,note_on,144,0,1,,,,,,,,0,,,72,0
78526,note_on,46,0,1,,,,,,,,0,,,81,0
78528,note_on,0,0,1,,,,,,,,0,,,77,92
78528,note_on,2,0,1,,,,,,,,0,,,74,92
78528,note_on,160,0,2,,,,,,,,1,,,65,92
78560,note_on,32,0,2,,,,,,,,1,,,65,0
78672,note_on,0,0,1,,,,,,,,0,,,77,0
78672,note_on,144,0,1,,,,,,,,0,,,74,0
78672,note_on,0,0,1,,,,,,,,0,,,79,92
78718,note_on,46,0,1,,,,,,,,0,,,79,0
78720,note_on,160,0,2,,,,,,,,1,,,67,92
78720,note_on,0,0,1,,,,,,,,0,,,76,92
78720,note_on,2,0,1,,,,,,,,0,,,72,92
78752,note_on,32,0,2,,,,,,,,1,,,67,0
78864,note_on,144,0,1,,,,,,,,0,,,72,0
78864,note_on,0,0,1,,,,,,,,0,,,76,0
78864,note_on,0,0,1,,,,,,,,0,,,77,92
78910,note_on,46,0,1,,,,,,,,0,,,77,0
78912,note_on,0,0,1,,,,,,,,0,,,74,92
78912,note_on,160,0,2,,,,,,,,1,,,55,92
78912,note_on,2,0,1,,,,,,,,0,,,71,92
78944,note_on,32,0,2,,,,,,,,1,,,55,0
79056,note_on,0,0,1,,,,,,,,0,,,76,92
79056,note_on,0,0,1,,,,,,,,0,,,74,0
79056,note_on,144,0,1,,,,,,,,0,,,71,0
79102,note_on,46,0,1,,,,,,,,0,,,76,0
79104,note_on,160,0,2,,,,,,,,1,,,60,45
79104,note_on,2,0,1,,,,,,,,0,,,72,45
79264,note_on,160,0,1,,,,,,,,0,,,72,0
79264,note_on,160,0,2,,,,,,,,1,,,60,0
79296,note_on,32,0,2,,,,,,,,1,,,64,45
79328,note_on,32,0,2,,,,,,,,1,,,64,0
79392,note_on,64,0,2,,,,,,,,1,,,60,45
79424,note_on,32,0,2,,,,,,,,1,,,60,0
79488,note_on,64,0,2,,,,,,,,1,,,57,45
79648,note_on,160,0,2,,,,,,,,1,,,57,0
79680,note_on,0,0,1,,,,,,,,0,,,76,45
79680,note_on,416,0,1,,,,,,,,0,,,72,45
79680,note_on,32,0,2,,,,,,,,1,,,60,45
79712,note_on,32,0,2,,,,,,,,1,,,60,0
79776,note_on,64,0,2,,,,,,,,1,,,57,45
79808,note_on,32,0,2,,,,,,,,1,,,57,0
79840,note_on,0,0,1,,,,,,,,0,,,76,0
79840,note_on,160,0,1,,,,,,,,0,,,72,0
79872,note_on,64,0,2,,,,,,,,1,,,53,45
79872,note_on,0,0,1,,,,,,,,0,,,74,45
79872,note_on,32,0,1,,,,,,,,0,,,72,45
80032,note_on,160,0,2,,,,,,,,1,,,53,0
80064,note_on,32,0,2,,,,,,,,1,,,57,45
80064,note_on,192,0,1,,,,,,,,0,,,74,0
80064,note_on,0,0,1,,,,,,,,0,,,74,45
80096,note_on,32,0,2,,,,,,,,1,,,57,0
80160,note_on,64,0,2,,,,,,,,1,,,53,45
80192,note_on,32,0,2,,,,,,,,1,,,53,0
80256,note_on,192,0,1,,,,,,,,0,,,74,0
80256,note_on,0,0,1,,,,,,,,0,,,76,45
80256,note_on,64,0,2,,,,,,,,1,,,55,45
80400,note_on,144,0,1,,,,,,,,0,,,72,0
80416,note_on,160,0,2,,,,,,,,1,,,55,0
80448,note_on,0,0,1,,,,,,,,0,,,77,45
80448,note_on,0,0,1,,,,,,,,0,,,74,45
80448,note_on,48,0,1,,,,,,,,0,,,76,0
80448,note_on,32,0,2,,,,,,,,1,,,59,45
80480,note_on,32,0,2,,,,,,,,1,,,59,0
80544,note_on,64,0,2,,,,,,,,1,,,55,45
80576,note_on,32,0,2,,,,,,,,1,,,55,0
80608,note_on,160,0,1,,,,,,,,0,,,74,0
80608,note_on,0,0,1,,,,,,,,0,,,77,0
80640,note_on,0,0,1,,,,,,,,0,,,77,45
80640,note_on,32,0,1,,,,,,,,0,,,74,45
80640,note_on,64,0,2,,,,,,,,1,,,60,45
80800,note_on,160,0,2,,,,,,,,1,,,60,0
80832,note_on,32,0,2,,,,,,,,1,,,64,45
80832,note_on,0,0,1,,,,,,,,0,,,77,0
80832,note_on,192,0,1,,,,,,,,0,,,74,0
80832,note_on,0,0,1,,,,,,,,0,,,72,45
80832,note_on,0,0,1,,,,,,,,0,,,76,45
80864,note_on,32,0,2,,,,,,,,1,,,64,0
80928,note_on,64,0,2,,,,,,,,1,,,60,45
80960,note_on,32,0,2,,,,,,,,1,,,60,0
80992,note_on,160,0,1,,,,,,,,0,,,72,0
80992,note_on,0,0,1,,,,,,,,0,,,76,0
81024,note_on,64,0,2,,,,,,,,1,,,57,45
81184,note_on,160,0,2,,,,,,,,1,,,57,0
81216,note_on,0,0,1,,,,,,,,0,,,84,45
81216,note_on,32,0,2,,,,,,,,1,,,60,45
81216,note_on,224,0,1,,,,,,,,0,,,76,45
81248,note_on,32,0,2,,,,,,,,1,,,60,0
81264,note_on,48,0,1,,,,,,,,0,,,76,0
81264,note_on,0,0,1,,,,,,,,0,,,84,0
81312,note_on,64,0,2,,,,,,,,1,,,57,45
81344,note_on,32,0,2,,,,,,,,1,,,57,0
81408,note_on,144,0,1,,,,,,,,0,,,74,45
81408,note_on,0,0,1,,,,,,,,0,,,81,45
81408,note_on,64,0,2,,,,,,,,1,,,53,45
81568,note_on,160,0,2,,,,,,,,1,,,53,0
81600,note_on,32,0,2,,,,,,,,1,,,57,45
81600,note_on,192,0,1,,,,,,,,0,,,74,0
81600,note_on,0,0,1,,,,,,,,0,,,72,45
81600,note_on,0,0,1,,,,,,,,0,,,77,45
81600,note_on,0,0,1,,,,,,,,0,,,81,0
81632,note_on,32,0,2,,,,,,,,1,,,57,0
81696,note_on,64,0,2,,,,,,,,1,,,53,45
81728,note_on,32,0,2,,,,,,,,1,,,53,0
81792,note_on,0,0,1,,,,,,,,0,,,74,45
81792,note_on,0,0,1,,,,,,,,0,,,71,45
81792,note_on,0,0,1,,,,,,,,0,,,77,0
81792,note_on,192,0,1,,,,,,,,0,,,72,0
81792,note_on,64,0,2,,,,,,,,1,,,55,45
81952,note_on,160,0,2,,,,,,,,1,,,55,0
81984,note_on,0,0,1,,,,,,,,0,,,74,0
81984,note_on,0,0,1,,,,,,,,0,,,74,45
81984,note_on,192,0,1,,,,,,,,0,,,71,0
81984,note_on,0,0,1,,,,,,,,0,,,79,45
81984,note_on,32,0,2,,,,,,,,1,,,59,45
82016,note_on,32,0,2,,,,,,,,1,,,59,0
82080,note_on,64,0,2,,,,,,,,1,,,55,45
82112,note_on,32,0,2,,,,,,,,1,,,55,0
82144,note_on,160,0,1,,,,,,,,0,,,74,0
82144,note_on,0,0,1,,,,,,,,0,,,79,0
82176,note_on,64,0,2,,,,,,,,1,,,60,92
82176,note_on,32,0,1,,,,,,,,0,,,72,92
82336,note_on,160,0,2,,,,,,,,1,,,60,0
82336,note_on,160,0,1,,,,,,,,0,,,72,0
82368,note_on,32,0,1,,,,,,,,0,,,76,92
82464,note_on,0,0,1,,,,,,,,0,,,72,92
82464,note_on,96,0,1,,,,,,,,0,,,76,0
82558,note_on,94,0,1,,,,,,,,0,,,72,0
82560,note_on,224,0,2,,,,,,,,1,,,53,92
82560,note_on,2,0,1,,,,,,,,0,,,69,92
82720,note_on,160,0,1,,,,,,,,0,,,69,0
82720,note_on,160,0,2,,,,,,,,1,,,53,0
82752,note_on,32,0,1,,,,,,,,0,,,72,92
82752,note_on,32,0,2,,,,,,,,1,,,57,92
82848,note_on,96,0,2,,,,,,,,1,,,57,0
82848,note_on,96,0,1,,,,,,,,0,,,72,0
82848,note_on,0,0,1,,,,,,,,0,,,69,92
82848,note_on,0,0,2,,,,,,,,1,,,53,92
82942,note_on,94,0,2,,,,,,,,1,,,53,0
82942,note_on,94,0,1,,,,,,,,0,,,69,0
82944,note_on,2,0,2,,,,,,,,1,,,50,92
82944,note_on,2,0,1,,,,,,,,0,,,74,92
83104,note_on,160,0,2,,,,,,,,1,,,50,0
83104,note_on,160,0,1,,,,,,,,0,,,74,0
83136,note_on,32,0,1,,,,,,,,0,,,77,92
83232,note_on,0,0,1,,,,,,,,0,,,74,92
83232,note_on,96,0,1,,,,,,,,0,,,77,0
83326,note_on,94,0,1,,,,,,,,0,,,74,0
83328,note_on,224,0,2,,,,,,,,1,,,55,92
83328,note_on,2,0,1,,,,,,,,0,,,71,92
83488,note_on,160,0,1,,,,,,,,0,,,71,0
83488,note_on,160,0,2,,,,,,,,1,,,55,0
83520,note_on,32,0,1,,,,,,,,0,,,74,92
83520,note_on,32,0,2,,,,,,,,1,,,59,92
83616,note_on,0,0,2,,,,,,,,1,,,55,92
83616,note_on,96,0,2,,,,,,,,1,,,59,0
83616,note_on,0,0,1,,,,,,,,0,,,71,92
83616,note_on,96,0,1,,,,,,,,0,,,74,0
83710,note_on,94,0,1,,,,,,,,0,,,71,0
83710,note_on,94,0,2,,,,,,,,1,,,55,0
83712,note_on,2,0,1,,,,,,,,0,,,76,92
83712,note_on,2,0,2,,,,,,,,1,,,52,92
83872,note_on,160,0,1,,,,,,,,0,,,76,0
83872,note_on,160,0,2,,,,,,,,1,,,52,0
83904,note_on,32,0,1,,,,,,,,0,,,79,92
84000,note_on,0,0,1,,,,,,,,0,,,76,92
84000,note_on,96,0,1,,,,,,,,0,,,79,0
84094,note_on,94,0,1,,,,,,,,0,,,76,0
84096,note_on,224,0,2,,,,,,,,1,,,57,92
84096,note_on,2,0,1,,,,,,,,0,,,72,92
84256,note_on,160,0,1,,,,,,,,0,,,72,0
84256,note_on,160,0,2,,,,,,,,1,,,57,0
84288,note_on,32,0,1,,,,,,,,0,,,76,92
84288,note_on,32,0,2,,,,,,,,1,,,60,92
84384,note_on,0,0,1,,,,,,,,0,,,72,92
84384,note_on,96,0,1,,,,,,,,0,,,76,0
84384,note_on,96,0,2,,,,,,,,1,,,60,0
84384,note_on,0,0,2,,,,,,,,1,,,57,92
84478,note_on,94,0,1,,,,,,,,0,,,72,0
84478,note_on,94,0,2,,,,,,,,1,,,57,0
84480,note_on,2,0,2,,,,,,,,1,,,53,92
84480,note_on,2,0,1,,,,,,,,0,,,77,92
84640,note_on,160,0,2,,,,,,,,1,,,53,0
84640,note_on,160,0,1,,,,,,,,0,,,77,0
84672,note_on,32,0,1,,,,,,,,0,,,81,92
84768,note_on,96,0,1,,,,,,,,0,,,81,0
84768,note_on,0,0,1,,,,,,,,0,,,77,92
84862,note_on,94,0,1,,,,,,,,0,,,77,0
84864,note_on,2,0,1,,,,,,,,0,,,74,92
84864,note_on,224,0,2,,,,,,,,1,,,50,92
85024,note_on,160,0,2,,,,,,,,1,,,50,0
85024,note_on,160,0,1,,,,,,,,0,,,74,0
85056,note_on,32,0,1,,,,,,,,0,,,77,92
85056,note_on,32,0,2,,,,,,,,1,,,53,92
85152,note_on,96,0,1,,,,,,,,0,,,77,0
85152,note_on,0,0,2,,,,,,,,1,,,50,92
85152,note_on,0,0,1,,,,,,,,0,,,74,92
85152,note_on,96,0,2,,,,,,,,1,,,53,0
85246,note_on,94,0,1,,,,,,,,0,,,74,0
85246,note_on,94,0,2,,,,,,,,1,,,50,0
85248,note_on,2,0,2,,,,,,,,1,,,47,92
85248,note_on,2,0,1,,,,,,,,0,,,71,92
85344,note_on,96,0,1,,,,,,,,0,,,71,0
85344,note_on,0,0,1,,,,,,,,0,,,67,93
85344,note_on,0,0,2,,,,,,,,1,,,43,93
85344,note_on,96,0,2,,,,,,,,1,,,47,0
85440,note_on,0,0,2,,,,,,,,1,,,45,94
85440,note_on,96,0,2,,,,,,,,1,,,43,0
85440,note_on,0,0,1,,,,,,,,0,,,69,94
85440,note_on,96,0,1,,,,,,,,0,,,67,0
85536,note_on,0,0,2,,,,,,,,1,,,47,95
85536,note_on,96,0,2,,,,,,,,1,,,45,0
85536,note_on,0,0,1,,,,,,,,0,,,71,95
85536,note_on,96,0,1,,,,,,,,0,,,69,0
85630,note_on,94,0,2,,,,,,,,1,,,47,0
85630,note_on,94,0,1,,,,,,,,0,,,71,0
85632,note_on,2,0,1,,,,,,,,0,,,72,96
85632,note_on,2,0,2,,,,,,,,1,,,48,96
85728,note_on,96,0,1,,,,,,,,0,,,72,0
85728,note_on,96,0,2,,,,,,,,1,,,48,0
85728,note_on,0,0,1,,,,,,,,0,,,71,97
85728,note_on,0,0,2,,,,,,,,1,,,47,97
85824,note_on,96,0,1,,,,,,,,0,,,71,0
85824,note_on,0,0,1,,,,,,,,0,,,72,98
85824,note_on,96,0,2,,,,,,,,1,,,47,0
85824,note_on,0,0,2,,,,,,,,1,,,48,98
85920,note_on,0,0,2,,,,,,,,1,,,50,99
85920,note_on,96,0,2,,,,,,,,1,,,48,0
85920,note_on,96,0,1,,,,,,,,0,,,72,0
85920,note_on,0,0,1,,,,,,,,0,,,74,99
86014,note_on,94,0,2,,,,,,,,1,,,50,0
86014,note_on,94,0,1,,,,,,,,0,,,74,0
86016,note_on,2,0,2,,,,,,,,1,,,52,100
86016,note_on,2,0,1,,,,,,,,0,,,76,100
86112,note_on,0,0,1,,,,,,,,0,,,74,101
86112,note_on,96,0,1,,,,,,,,0,,,76,0
86176,note_on,160,0,2,,,,,,,,1,,,52,0
86208,note_on,0,0,1,,,,,,,,0,,,72,102
86208,note_on,32,0,2,,,,,,,,1,,,48,102
86208,note_on,96,0,1,,,,,,,,0,,,74,0
86304,note_on,96,0,1,,,,,,,,0,,,72,0
86304,note_on,96,0,2,,,,,,,,1,,,48,0
86304,note_on,0,0,2,,,,,,,,1,,,50,103
86304,note_on,0,0,1,,,,,,,,0,,,74,103
86398,note_on,94,0,1,,,,,,,,0,,,74,0
86400,note_on,2,0,1,,,,,,,,0,,,76,104
86400,note_on,96,0,2,,,,,,,,1,,,50,0
86400,note_on,0,0,2,,,,,,,,1,,,52,104
86496,note_on,96,0,2,,,,,,,,1,,,52,0
86496,note_on,0,0,2,,,,,,,,1,,,50,105
86496,note_on,96,0,1,,,,,,,,0,,,76,0
86496,note_on,0,0,1,,,,,,,,0,,,74,105
86592,note_on,96,0,1,,,,,,,,0,,,74,0
86592,note_on,0,0,1,,,,,,,,0,,,76,106
86592,note_on,96,0,2,,,,,,,,1,,,50,0
86592,note_on,0,0,2,,,,,,,,1,,,52,106
86688,note_on,0,0,1,,,,,,,,0,,,78,107
86688,note_on,96,0,1,,,,,,,,0,,,76,0
86688,note_on,0,0,2,,,,,,,,1,,,54,107
86688,note_on,96,0,2,,,,,,,,1,,,52,0
86782,note_on,94,0,1,,,,,,,,0,,,78,0
86782,note_on,94,0,2,,,,,,,,1,,,54,0
86784,note_on,2,0,2,,,,,,,,1,,,55,108
86784,note_on,2,0,1,,,,,,,,0,,,79,108
86878,note_on,94,0,1,,,,,,,,0,,,79,0
86880,note_on,96,0,2,,,,,,,,1,,,55,0
86880,note_on,0,0,2,,,,,,,,1,,,59,108
86974,note_on,94,0,2,,,,,,,,1,,,59,0
86976,note_on,98,0,1,,,,,,,,0,,,74,108
86976,note_on,0,0,1,,,,,,,,0,,,83,108
86976,note_on,2,0,2,,,,,,,,1,,,62,108
87008,note_on,32,0,2,,,,,,,,1,,,62,0
87072,note_on,64,0,2,,,,,,,,1,,,67,108
87104,note_on,32,0,2,,,,,,,,1,,,67,0
87168,note_on,0,0,1,,,,,,,,0,,,84,108
87168,note_on,192,0,1,,,,,,,,0,,,74,0
87168,note_on,64,0,2,,,,,,,,1,,,64,108
87168,note_on,0,0,1,,,,,,,,0,,,76,108
87168,note_on,0,0,1,,,,,,,,0,,,83,0
87262,note_on,94,0,1,,,,,,,,0,,,76,0
87262,note_on,0,0,1,,,,,,,,0,,,84,0
87264,note_on,96,0,2,,,,,,,,1,,,64,0
87264,note_on,0,0,2,,,,,,,,1,,,67,108
87358,note_on,94,0,2,,,,,,,,1,,,67,0
87360,note_on,0,0,1,,,,,,,,0,,,76,108
87360,note_on,98,0,1,,,,,,,,0,,,72,108
87360,note_on,2,0,2,,,,,,,,1,,,64,108
87392,note_on,32,0,2,,,,,,,,1,,,64,0
87392,note_on,32,0,1,,,,,,,,0,,,72,0
87392,note_on,0,0,1,,,,,,,,0,,,76,0
87456,note_on,64,0,2,,,,,,,,1,,,60,108
87488,note_on,32,0,2,,,,,,,,1,,,60,0
87552,note_on,64,0,2,,,,,,,,1,,,59,108
87552,note_on,160,0,1,,,,,,,,0,,,74,108
87552,note_on,0,0,1,,,,,,,,0,,,79,108
87584,note_on,0,0,1,,,,,,,,0,,,79,0
87584,note_on,32,0,1,,,,,,,,0,,,74,0
87648,note_on,0,0,2,,,,,,,,1,,,62,108
87648,note_on,96,0,2,,,,,,,,1,,,59,0
87742,note_on,94,0,2,,,,,,,,1,,,62,0
87744,note_on,2,0,2,,,,,,,,1,,,59,108
87744,note_on,0,0,1,,,,,,,,0,,,83,108
87744,note_on,160,0,1,,,,,,,,0,,,74,108
87776,note_on,32,0,2,,,,,,,,1,,,59,0
87840,note_on,64,0,2,,,,,,,,1,,,55,108
87872,note_on,32,0,2,,,,,,,,1,,,55,0
87936,note_on,0,0,1,,,,,,,,0,,,84,108
87936,note_on,0,0,1,,,,,,,,0,,,76,108
87936,note_on,0,0,1,,,,,,,,0,,,83,0
87936,note_on,192,0,1,,,,,,,,0,,,74,0
87936,note_on,64,0,2,,,,,,,,1,,,52,108
88030,note_on,94,0,1,,,,,,,,0,,,76,0
88030,note_on,0,0,1,,,,,,,,0,,,84,0
88032,note_on,0,0,2,,,,,,,,1,,,55,108
88032,note_on,96,0,2,,,,,,,,1,,,52,0
88126,note_on,94,0,2,,,,,,,,1,,,55,0
88128,note_on,0,0,1,,,,,,,,0,,,76,108
88128,note_on,2,0,2,,,,,,,,1,,,52,108
88128,note_on,98,0,1,,,,,,,,0,,,72,108
88160,note_on,0,0,1,,,,,,,,0,,,76,0
88160,note_on,32,0,1,,,,,,,,0,,,72,0
88160,note_on,32,0,2,,,,,,,,1,,,52,0
88224,note_on,64,0,2,,,,,,,,1,,,48,108
88256,note_on,32,0,2,,,,,,,,1,,,48,0
88320,note_on,64,0,2,,,,,,,,1,,,55,108
88320,note_on,160,0,1,,,,,,,,0,,,71,108
88320,note_on,0,0,1,,,,,,,,0,,,74,108
88368,note_on,48,0,1,,,,,,,,0,,,71,0
88368,note_on,48,0,2,,,,,,,,1,,,55,0
88368,note_on,0,0,1,,,,,,,,0,,,74,0
88512,note_on,144,0,2,,,,,,,,1,,,55,108
88512,note_on,144,0,1,,,,,,,,0,,,71,108
88512,note_on,0,0,1,,,,,,,,0,,,79,108
88560,note_on,48,0,2,,,,,,,,1,,,55,0
88560,note_on,48,0,1,,,,,,,,0,,,71,0
88560,note_on,0,0,1,,,,,,,,0,,,79,0
88704,note_on,0,0,1,,,,,,,,0,,,79,108
88704,note_on,144,0,2,,,,,,,,1,,,55,108
88704,note_on,144,0,1,,,,,,,,0,,,71,108
88752,note_on,48,0,1,,,,,,,,0,,,71,0
88752,note_on,0,0,1,,,,,,,,0,,,79,0
88752,note_on,48,0,2,,,,,,,,1,,,55,0
89088,note_on,336,0,1,,,,,,,,0,,,79,45
89472,note_on,0,0,1,,,,,,,,0,,,78,45
89472,note_on,0,0,1,,,,,,,,0,,,84,45
89472,note_on,720,0,2,,,,,,,,1,,,57,45
89472,note_on,384,0,1,,,,,,,,0,,,79,0
89808,note_on,0,0,1,,,,,,,,0,,,84,0
89808,note_on,336,0,1,,,,,,,,0,,,78,0
89856,note_on,48,0,1,,,,,,,,0,,,79,45
89856,note_on,0,0,1,,,,,,,,0,,,83,45
89856,note_on,0,0,2,,,,,,,,1,,,55,45
89856,note_on,384,0,2,,,,,,,,1,,,57,0
89888,note_on,32,0,2,,,,,,,,1,,,55,0
89952,note_on,0,0,1,,,,,,,,0,,,86,45
89952,note_on,0,0,1,,,,,,,,0,,,83,0
89952,note_on,96,0,1,,,,,,,,0,,,79,0
90048,note_on,0,0,1,,,,,,,,0,,,84,45
90048,note_on,0,0,1,,,,,,,,0,,,78,45
90048,note_on,96,0,1,,,,,,,,0,,,86,0
90048,note_on,160,0,2,,,,,,,,1,,,50,45
90080,note_on,32,0,2,,,,,,,,1,,,50,0
90144,note_on,0,0,1,,,,,,,,0,,,81,45
90144,note_on,96,0,1,,,,,,,,0,,,78,0
90144,note_on,0,0,1,,,,,,,,0,,,84,0
90240,note_on,160,0,2,,,,,,,,1,,,47,45
90240,note_on,96,0,1,,,,,,,,0,,,81,0
90240,note_on,0,0,1,,,,,,,,0,,,79,45
90272,note_on,32,0,2,,,,,,,,1,,,47,0
90400,note_on,160,0,1,,,,,,,,0,,,79,0
90432,note_on,160,0,2,,,,,,,,1,,,43,45
90464,note_on,32,0,2,,,,,,,,1,,,43,0
90624,note_on,224,0,1,,,,,,,,0,,,67,45
91008,note_on,544,0,2,,,,,,,,1,,,59,45
91008,note_on,384,0,1,,,,,,,,0,,,67,0
91008,note_on,0,0,1,,,,,,,,0,,,74,45
91008,note_on,0,0,1,,,,,,,,0,,,77,45
91344,note_on,336,0,1,,,,,,,,0,,,74,0
91344,note_on,0,0,1,,,,,,,,0,,,77,0
91392,note_on,48,0,1,,,,,,,,0,,,72,45
91392,note_on,0,0,1,,,,,,,,0,,,76,45
91392,note_on,0,0,2,,,,,,,,1,,,60,45
91392,note_on,384,0,2,,,,,,,,1,,,59,0
91424,note_on,32,0,2,,,,,,,,1,,,60,0
91488,note_on,96,0,1,,,,,,,,0,,,72,0
91488,note_on,0,0,1,,,,,,,,0,,,79,45
91488,note_on,0,0,1,,,,,,,,0,,,76,0
91584,note_on,160,0,2,,,,,,,,1,,,55,45
91584,note_on,96,0,1,,,,,,,,0,,,79,0
91584,note_on,0,0,1,,,,,,,,0,,,71,45
91584,note_on,0,0,1,,,,,,,,0,,,77,45
91616,note_on,32,0,2,,,,,,,,1,,,55,0
91680,note_on,96,0,1,,,,,,,,0,,,71,0
91680,note_on,0,0,1,,,,,,,,0,,,77,0
91680,note_on,0,0,1,,,,,,,,0,,,74,45
91776,note_on,96,0,1,,,,,,,,0,,,74,0
91776,note_on,0,0,1,,,,,,,,0,,,72,45
91776,note_on,160,0,2,,,,,,,,1,,,52,45
91808,note_on,32,0,2,,,,,,,,1,,,52,0
91936,note_on,160,0,1,,,,,,,,0,,,72,0
91968,note_on,160,0,2,,,,,,,,1,,,48,45
92000,note_on,32,0,2,,,,,,,,1,,,48,0
92160,note_on,224,0,1,,,,,,,,0,,,74,45
92256,note_on,0,0,1,,,,,,,,0,,,73,45
92256,note_on,96,0,1,,,,,,,,0,,,74,0
92352,note_on,96,0,1,,,,,,,,0,,,73,0
92352,note_on,0,0,1,,,,,,,,0,,,74,45
92448,note_on,96,0,1,,,,,,,,0,,,74,0
92448,note_on,0,0,1,,,,,,,,0,,,76,45
92542,note_on,94,0,1,,,,,,,,0,,,76,0
92544,note_on,544,0,2,,,,,,,,1,,,53,45
92544,note_on,0,0,2,,,,,,,,1,,,62,45
92544,note_on,2,0,1,,,,,,,,0,,,77,50
92640,note_on,0,0,1,,,,,,,,0,,,76,55
92640,note_on,96,0,1,,,,,,,,0,,,77,0
92736,note_on,96,0,1,,,,,,,,0,,,76,0
92736,note_on,0,0,1,,,,,,,,0,,,77,60
92832,note_on,96,0,1,,,,,,,,0,,,77,0
92832,note_on,0,0,1,,,,,,,,0,,,79,65
92926,note_on,94,0,1,,,,,,,,0,,,79,0
92928,note_on,2,0,1,,,,,,,,0,,,80,70
93024,note_on,96,0,1,,,,,,,,0,,,80,0
93024,note_on,0,0,1,,,,,,,,0,,,81,75
93120,note_on,0,0,1,,,,,,,,0,,,82,80
93120,note_on,96,0,1,,,,,,,,0,,,81,0
93216,note_on,96,0,1,,,,,,,,0,,,82,0
93216,note_on,0,0,1,,,,,,,,0,,,83,86
93310,note_on,94,0,1,,,,,,,,0,,,83,0
93312,note_on,2,0,1,,,,,,,,0,,,84,92
93312,note_on,0,0,2,,,,,,,,1,,,60,92
93312,note_on,0,0,2,,,,,,,,1,,,52,92
93312,note_on,0,0,2,,,,,,,,1,,,62,0
93312,note_on,768,0,2,,,,,,,,1,,,53,0
93408,note_on,0,0,1,,,,,,,,0,,,79,81
93408,note_on,96,0,1,,,,,,,,0,,,84,0
93472,note_on,0,0,2,,,,,,,,1,,,60,0
93472,note_on,160,0,2,,,,,,,,1,,,52,0
93504,note_on,96,0,1,,,,,,,,0,,,79,0
93504,note_on,0,0,1,,,,,,,,0,,,77,69
93600,note_on,96,0,1,,,,,,,,0,,,77,0
93600,note_on,0,0,1,,,,,,,,0,,,76,57
93694,note_on,94,0,1,,,,,,,,0,,,76,0
93696,note_on,224,0,2,,,,,,,,1,,,53,45
93696,note_on,2,0,1,,,,,,,,0,,,74,45
93744,note_on,48,0,2,,,,,,,,1,,,53,0
93792,note_on,0,0,1,,,,,,,,0,,,73,48
93792,note_on,96,0,1,,,,,,,,0,,,74,0
93888,note_on,144,0,2,,,,,,,,1,,,41,52
93888,note_on,0,0,1,,,,,,,,0,,,74,52
93888,note_on,96,0,1,,,,,,,,0,,,73,0
93936,note_on,48,0,2,,,,,,,,1,,,41,0
93984,note_on,96,0,1,,,,,,,,0,,,74,0
93984,note_on,0,0,1,,,,,,,,0,,,76,56
94078,note_on,94,0,1,,,,,,,,0,,,76,0
94080,note_on,0,0,2,,,,,,,,1,,,62,60
94080,note_on,144,0,2,,,,,,,,1,,,53,60
94080,note_on,2,0,1,,,,,,,,0,,,77,60
94176,note_on,96,0,1,,,,,,,,0,,,77,0
94176,note_on,0,0,1,,,,,,,,0,,,76,64
94272,note_on,96,0,1,,,,,,,,0,,,76,0
94272,note_on,0,0,1,,,,,,,,0,,,77,68
94368,note_on,96,0,1,,,,,,,,0,,,77,0
94368,note_on,0,0,1,,,,,,,,0,,,79,72
94462,note_on,94,0,1,,,,,,,,0,,,79,0
94464,note_on,2,0,1,,,,,,,,0,,,81,76
94560,note_on,0,0,1,,,,,,,,0,,,80,80
94560,note_on,96,0,1,,,,,,,,0,,,81,0
94656,note_on,0,0,1,,,,,,,,0,,,81,84
94656,note_on,96,0,1,,,,,,,,0,,,80,0
94752,note_on,0,0,1,,,,,,,,0,,,83,88
94752,note_on,96,0,1,,,,,,,,0,,,81,0
94800,note_on,720,0,2,,,,,,,,1,,,53,0
94800,note_on,0,0,2,,,,,,,,1,,,62,0
94846,note_on,94,0,1,,,,,,,,0,,,83,0
94848,note_on,2,0,1,,,,,,,,0,,,84,92
94848,note_on,48,0,2,,,,,,,,1,,,52,92
94944,note_on,96,0,1,,,,,,,,0,,,84,0
94944,note_on,0,0,1,,,,,,,,0,,,79,81
94944,note_on,0,0,2,,,,,,,,1,,,64,92
94944,note_on,96,0,2,,,,,,,,1,,,52,0
95040,note_on,0,0,1,,,,,,,,0,,,77,69
95040,note_on,96,0,1,,,,,,,,0,,,79,0
95040,note_on,96,0,2,,,,,,,,1,,,64,0
95040,note_on,0,0,2,,,,,,,,1,,,62,77
95136,note_on,96,0,2,,,,,,,,1,,,62,0
95136,note_on,0,0,2,,,,,,,,1,,,60,61
95136,note_on,96,0,1,,,,,,,,0,,,77,0
95136,note_on,0,0,1,,,,,,,,0,,,76,57
95230,note_on,94,0,2,,,,,,,,1,,,60,0
95230,note_on,94,0,1,,,,,,,,0,,,76,0
95232,note_on,2,0,1,,,,,,,,0,,,76,45
95232,note_on,2,0,2,,,,,,,,1,,,53,45
95232,note_on,0,0,2,,,,,,,,1,,,57,45
95328,note_on,96,0,1,,,,,,,,0,,,76,0
95328,note_on,0,0,1,,,,,,,,0,,,74,45
95424,note_on,0,0,1,,,,,,,,0,,,81,45
95424,note_on,96,0,1,,,,,,,,0,,,74,0
95424,note_on,0,0,2,,,,,,,,1,,,50,45
95424,note_on,0,0,2,,,,,,,,1,,,57,0
95424,note_on,192,0,2,,,,,,,,1,,,53,0
95520,note_on,0,0,1,,,,,,,,0,,,77,45
95520,note_on,96,0,1,,,,,,,,0,,,81,0
95584,note_on,160,0,2,,,,,,,,1,,,50,0
95614,note_on,94,0,1,,,,,,,,0,,,77,0
95616,note_on,2,0,1,,,,,,,,0,,,76,45
95616,note_on,32,0,2,,,,,,,,1,,,55,45
95664,note_on,48,0,2,,,,,,,,1,,,55,0
95712,note_on,96,0,1,,,,,,,,0,,,76,0
95712,note_on,0,0,1,,,,,,,,0,,,79,45
95808,note_on,96,0,1,,,,,,,,0,,,79,0
95808,note_on,0,0,1,,,,,,,,0,,,77,45
95808,note_on,144,0,2,,,,,,,,1,,,43,45
95856,note_on,48,0,2,,,,,,,,1,,,43,0
95904,note_on,0,0,1,,,,,,,,0,,,74,45
95904,note_on,96,0,1,,,,,,,,0,,,77,0
95998,note_on,94,0,1,,,,,,,,0,,,74,0
96000,note_on,2,0,1,,,,,,,,0,,,72,45
96000,note_on,144,0,2,,,,,,,,1,,,48,45
96160,note_on,160,0,1,,,,,,,,0,,,72,0
96160,note_on,160,0,2,,,,,,,,1,,,48,0
96288,note_on,128,0,1,,,,,,,,0,,,67,92
96288,note_on,128,0,2,,,,,,,,1,,,48,92
96288,note_on,0,0,1,,,,,,,,0,,,76,92
96320,note_on,0,0,1,,,,,,,,0,,,76,0
96320,note_on,32,0,2,,,,,,,,1,,,48,0
96320,note_on,32,0,1,,,,,,,,0,,,67,0
96384,note_on,0,0,1,,,,,,,,0,,,76,92
96384,note_on,64,0,2,,,,,,,,1,,,48,92
96384,note_on,64,0,1,,,,,,,,0,,,67,92
96416,note_on,32,0,1,,,,,,,,0,,,67,0
96416,note_on,32,0,2,,,,,,,,1,,,48,0
96416,note_on,0,0,1,,,,,,,,0,,,76,0
96480,note_on,0,0,1,,,,,,,,0,,,76,92
96480,note_on,64,0,2,,,,,,,,1,,,48,92
96480,note_on,64,0,1,,,,,,,,0,,,67,92
96512,note_on,32,0,1,,,,,,,,0,,,67,0
96512,note_on,0,0,1,,,,,,,,0,,,76,0
96512,note_on,32,0,2,,,,,,,,1,,,48,0
96576,note_on,0,0,1,,,,,,,,0,,,76,92
96576,note_on,64,0,1,,,,,,,,0,,,67,92
96576,note_on,64,0,2,,,,,,,,1,,,48,92
96608,note_on,32,0,1,,,,,,,,0,,,67,0
96608,note_on,32,0,2,,,,,,,,1,,,48,0
96608,note_on,0,0,1,,,,,,,,0,,,76,0
96672,note_on,64,0,2,,,,,,,,1,,,48,92
96672,note_on,64,0,1,,,,,,,,0,,,67,92
96672,note_on,0,0,1,,,,,,,,0,,,76,92
96704,note_on,32,0,2,,,,,,,,1,,,48,0
96704,note_on,0,0,1,,,,,,,,0,,,76,0
96704,note_on,32,0,1,,,,,,,,0,,,67,0
96768,note_on,64,0,2,,,,,,,,1,,,47,92
96768,note_on,0,0,1,,,,,,,,0,,,79,92
96768,note_on,64,0,1,,,,,,,,0,,,67,92
96864,note_on,0,0,1,,,,,,,,0,,,78,92
96864,note_on,0,0,1,,,,,,,,0,,,79,0
96864,note_on,96,0,1,,,,,,,,0,,,67,0
96928,note_on,160,0,2,,,,,,,,1,,,47,0
96960,note_on,0,0,1,,,,,,,,0,,,77,92
96960,note_on,96,0,1,,,,,,,,0,,,78,0
97054,note_on,94,0,1,,,,,,,,0,,,77,0
97056,note_on,2,0,1,,,,,,,,0,,,83,45
97088,note_on,32,0,1,,,,,,,,0,,,83,0
97152,note_on,0,0,1,,,,,,,,0,,,83,45
97152,note_on,224,0,2,,,,,,,,1,,,55,45
97152,note_on,64,0,1,,,,,,,,0,,,77,45
97184,note_on,32,0,2,,,,,,,,1,,,55,0
97184,note_on,0,0,1,,,,,,,,0,,,83,0
97184,note_on,32,0,1,,,,,,,,0,,,77,0
97248,note_on,64,0,2,,,,,,,,1,,,55,45
97248,note_on,64,0,1,,,,,,,,0,,,77,45
97248,note_on,0,0,1,,,,,,,,0,,,83,45
97280,note_on,32,0,1,,,,,,,,0,,,77,0
97280,note_on,0,0,1,,,,,,,,0,,,83,0
97280,note_on,32,0,2,,,,,,,,1,,,55,0
97344,note_on,64,0,1,,,,,,,,0,,,77,45
97344,note_on,0,0,1,,,,,,,,0,,,83,45
97344,note_on,64,0,2,,,,,,,,1,,,55,45
97376,note_on,0,0,1,,,,,,,,0,,,83,0
97376,note_on,32,0,1,,,,,,,,0,,,77,0
97376,note_on,32,0,2,,,,,,,,1,,,55,0
97440,note_on,64,0,1,,,,,,,,0,,,77,45
97440,note_on,64,0,2,,,,,,,,1,,,55,45
97440,note_on,0,0,1,,,,,,,,0,,,83,45
97472,note_on,0,0,1,,,,,,,,0,,,83,0
97472,note_on,32,0,1,,,,,,,,0,,,77,0
97472,note_on,32,0,2,,,,,,,,1,,,55,0
97536,note_on,64,0,2,,,,,,,,1,,,48,45
97536,note_on,64,0,1,,,,,,,,0,,,76,45
97536,note_on,0,0,1,,,,,,,,0,,,83,45
97632,note_on,96,0,1,,,,,,,,0,,,83,0
97632,note_on,0,0,1,,,,,,,,0,,,84,45
97696,note_on,160,0,2,,,,,,,,1,,,48,0
97696,note_on,64,0,1,,,,,,,,0,,,76,0
97728,note_on,32,0,1,,,,,,,,0,,,84,0
97728,note_on,0,0,1,,,,,,,,0,,,79,45
97822,note_on,94,0,1,,,,,,,,0,,,79,0
97824,note_on,128,0,2,,,,,,,,1,,,48,92
97824,note_on,2,0,1,,,,,,,,0,,,67,92
97824,note_on,0,0,1,,,,,,,,0,,,76,92
97856,note_on,32,0,2,,,,,,,,1,,,48,0
97856,note_on,0,0,1,,,,,,,,0,,,76,0
97856,note_on,32,0,1,,,,,,,,0,,,67,0
97920,note_on,64,0,2,,,,,,,,1,,,48,92
97920,note_on,0,0,1,,,,,,,,0,,,76,92
97920,note_on,64,0,1,,,,,,,,0,,,67,92
97952,note_on,32,0,2,,,,,,,,1,,,48,0
97952,note_on,0,0,1,,,,,,,,0,,,76,0
97952,note_on,32,0,1,,,,,,,,0,,,67,0
98016,note_on,0,0,1,,,,,,,,0,,,76,92
98016,note_on,64,0,1,,,,,,,,0,,,67,92
98016,note_on,64,0,2,,,,,,,,1,,,48,92
98048,note_on,32,0,1,,,,,,,,0,,,67,0
98048,note_on,32,0,2,,,,,,,,1,,,48,0
98048,note_on,0,0,1,,,,,,,,0,,,76,0
98112,note_on,64,0,2,,,,,,,,1,,,48,92
98112,note_on,64,0,1,,,,,,,,0,,,67,92
98112,note_on,0,0,1,,,,,,,,0,,,76,92
98144,note_on,32,0,2,,,,,,,,1,,,48,0
98144,note_on,32,0,1,,,,,,,,0,,,67,0
98144,note_on,0,0,1,,,,,,,,0,,,76,0
98208,note_on,64,0,2,,,,,,,,1,,,48,92
98208,note_on,64,0,1,,,,,,,,0,,,67,92
98208,note_on,0,0,1,,,,,,,,0,,,76,92
98240,note_on,32,0,1,,,,,,,,0,,,67,0
98240,note_on,0,0,1,,,,,,,,0,,,76,0
98240,note_on,32,0,2,,,,,,,,1,,,48,0
98304,note_on,0,0,1,,,,,,,,0,,,79,92
98304,note_on,64,0,1,,,,,,,,0,,,67,92
98304,note_on,64,0,2,,,,,,,,1,,,47,92
98398,note_on,0,0,1,,,,,,,,0,,,79,0
98398,note_on,94,0,1,,,,,,,,0,,,67,0
98400,note_on,2,0,1,,,,,,,,0,,,78,92
98464,note_on,160,0,2,,,,,,,,1,,,47,0
98494,note_on,94,0,1,,,,,,,,0,,,78,0
98496,note_on,2,0,1,,,,,,,,0,,,77,92
98590,note_on,94,0,1,,,,,,,,0,,,77,0
98592,note_on,2,0,1,,,,,,,,0,,,74,45
98624,note_on,32,0,1,,,,,,,,0,,,74,0
98688,note_on,0,0,2,,,,,,,,1,,,65,45
98688,note_on,224,0,2,,,,,,,,1,,,55,45
98688,note_on,64,0,1,,,,,,,,0,,,71,45
98720,note_on,32,0,1,,,,,,,,0,,,71,0
98720,note_on,0,0,2,,,,,,,,1,,,65,0
98720,note_on,32,0,2,,,,,,,,1,,,55,0
98784,note_on,0,0,2,,,,,,,,1,,,65,45
98784,note_on,64,0,2,,,,,,,,1,,,55,45
98784,note_on,64,0,1,,,,,,,,0,,,71,45
98816,note_on,32,0,1,,,,,,,,0,,,71,0
98816,note_on,32,0,2,,,,,,,,1,,,55,0
98816,note_on,0,0,2,,,,,,,,1,,,65,0
98880,note_on,0,0,2,,,,,,,,1,,,65,45
98880,note_on,64,0,2,,,,,,,,1,,,55,45
98880,note_on,64,0,1,,,,,,,,0,,,71,45
98912,note_on,0,0,2,,,,,,,,1,,,65,0
98912,note_on,32,0,1,,,,,,,,0,,,71,0
98912,note_on,32,0,2,,,,,,,,1,,,55,0
98976,note_on,64,0,2,,,,,,,,1,,,55,45
98976,note_on,0,0,2,,,,,,,,1,,,65,45
98976,note_on,64,0,1,,,,,,,,0,,,71,45
99008,note_on,32,0,2,,,,,,,,1,,,55,0
99008,note_on,0,0,2,,,,,,,,1,,,65,0
99008,note_on,32,0,1,,,,,,,,0,,,71,0
99072,note_on,64,0,1,,,,,,,,0,,,64,45
99072,note_on,0,0,1,,,,,,,,0,,,72,45
99072,note_on,64,0,2,,,,,,,,1,,,60,45
99104,note_on,32,0,2,,,,,,,,1,,,60,0
99168,note_on,96,0,1,,,,,,,,0,,,64,0
99168,note_on,0,0,1,,,,,,,,0,,,72,0
99168,note_on,0,0,1,,,,,,,,0,,,76,45
99264,note_on,160,0,2,,,,,,,,1,,,55,45
99264,note_on,96,0,1,,,,,,,,0,,,76,0
99264,note_on,0,0,1,,,,,,,,0,,,65,45
99264,note_on,0,0,1,,,,,,,,0,,,74,45
99296,note_on,32,0,2,,,,,,,,1,,,55,0
99360,note_on,0,0,1,,,,,,,,0,,,71,45
99360,note_on,0,0,1,,,,,,,,0,,,74,0
99360,note_on,96,0,1,,,,,,,,0,,,65,0
99454,note_on,94,0,1,,,,,,,,0,,,71,0
99456,note_on,2,0,1,,,,,,,,0,,,64,45
99456,note_on,0,0,1,,,,,,,,0,,,72,45
99456,note_on,160,0,2,,,,,,,,1,,,60,45
99488,note_on,32,0,2,,,,,,,,1,,,60,0
99552,note_on,96,0,1,,,,,,,,0,,,64,0
99552,note_on,0,0,1,,,,,,,,0,,,72,0
99552,note_on,0,0,1,,,,,,,,0,,,76,45
99648,note_on,160,0,2,,,,,,,,1,,,55,45
99648,note_on,96,0,1,,,,,,,,0,,,76,0
99648,note_on,0,0,1,,,,,,,,0,,,65,45
99648,note_on,0,0,1,,,,,,,,0,,,74,45
99680,note_on,32,0,2,,,,,,,,1,,,55,0
99744,note_on,0,0,1,,,,,,,,0,,,71,45
99744,note_on,0,0,1,,,,,,,,0,,,74,0
99744,note_on,96,0,1,,,,,,,,0,,,65,0
99838,note_on,94,0,1,,,,,,,,0,,,71,0
99840,note_on,0,0,1,,,,,,,,0,,,72,45
99840,note_on,160,0,2,,,,,,,,1,,,48,45
99840,note_on,2,0,1,,,,,,,,0,,,64,45
99872,note_on,32,0,2,,,,,,,,1,,,48,0
99872,note_on,32,0,1,,,,,,,,0,,,64,0
99872,note_on,0,0,1,,,,,,,,0,,,72,0
100032,note_on,160,0,2,,,,,,,,1,,,60,45
100032,note_on,0,0,1,,,,,,,,0,,,76,45
100032,note_on,160,0,1,,,,,,,,0,,,67,45
100064,note_on,32,0,2,,,,,,,,1,,,60,0
100064,note_on,0,0,1,,,,,,,,0,,,76,0
100064,note_on,32,0,1,,,,,,,,0,,,67,0
100224,note_on,0,0,1,,,,,,,,0,,,72,45
100224,note_on,160,0,1,,,,,,,,0,,,64,45
100224,note_on,160,0,2,,,,,,,,1,,,48,45
100256,note_on,0,0,1,,,,,,,,0,,,72,0
100256,note_on,32,0,2,,,,,,,,1,,,48,0
100256,note_on,32,0,1,,,,,,,,0,,,64,0
100608,note_on,352,0,1,,,,,,,,0,,,79,92
100608,note_on,352,0,2,,,,,,,,1,,,55,92
100992,note_on,384,0,1,,,,,,,,0,,,79,0
100992,note_on,384,0,2,,,,,,,,1,,,55,0
100992,note_on,0,0,2,,,,,,,,1,,,58,92
100992,note_on,0,0,1,,,,,,,,0,,,82,92
101328,note_on,336,0,1,,,,,,,,0,,,82,0
101328,note_on,336,0,2,,,,,,,,1,,,58,0
101376,note_on,48,0,2,,,,,,,,1,,,49,92
101376,note_on,48,0,1,,,,,,,,0,,,73,92
101424,note_on,48,0,2,,,,,,,,1,,,49,0
101424,note_on,48,0,1,,,,,,,,0,,,73,0
101568,note_on,144,0,2,,,,,,,,1,,,50,92
101568,note_on,144,0,1,,,,,,,,0,,,74,92
101616,note_on,48,0,2,,,,,,,,1,,,50,0
101616,note_on,48,0,1,,,,,,,,0,,,74,0
102144,note_on,528,0,1,,,,,,,,0,,,69,45
102144,note_on,0,0,1,,,,,,,,0,,,77,45
102192,note_on,0,0,1,,,,,,,,0,,,77,0
102192,note_on,48,0,1,,,,,,,,0,,,69,0
102336,note_on,0,0,1,,,,,,,,0,,,79,45
102336,note_on,144,0,1,,,,,,,,0,,,70,45
102720,note_on,384,0,1,,,,,,,,0,,,70,0
102720,note_on,0,0,1,,,,,,,,0,,,77,45
102720,note_on,0,0,1,,,,,,,,0,,,69,45
102720,note_on,0,0,1,,,,,,,,0,,,79,0
102880,note_on,0,0,1,,,,,,,,0,,,77,0
102880,note_on,160,0,1,,,,,,,,0,,,69,0
102912,note_on,32,0,1,,,,,,,,0,,,67,45
102912,note_on,0,0,1,,,,,,,,0,,,77,45
102912,note_on,1296,0,2,,,,,,,,1,,,57,45
102960,note_on,48,0,2,,,,,,,,1,,,57,0
103008,note_on,96,0,1,,,,,,,,0,,,67,0
103008,note_on,0,0,1,,,,,,,,0,,,76,45
103008,note_on,0,0,1,,,,,,,,0,,,77,0
103102,note_on,94,0,1,,,,,,,,0,,,76,0
103104,note_on,2,0,1,,,,,,,,0,,,67,45
103104,note_on,0,0,1,,,,,,,,0,,,76,45
103104,note_on,144,0,2,,,,,,,,1,,,57,45
103152,note_on,48,0,2,,,,,,,,1,,,57,0
103200,note_on,0,0,1,,,,,,,,0,,,73,45
103200,note_on,0,0,1,,,,,,,,0,,,76,0
103200,note_on,96,0,1,,,,,,,,0,,,67,0
103294,note_on,94,0,1,,,,,,,,0,,,73,0
103296,note_on,0,0,1,,,,,,,,0,,,74,45
103296,note_on,144,0,2,,,,,,,,1,,,50,45
103296,note_on,2,0,1,,,,,,,,0,,,65,45
103344,note_on,48,0,2,,,,,,,,1,,,50,0
103390,note_on,94,0,1,,,,,,,,0,,,65,0
103456,note_on,66,0,1,,,,,,,,0,,,74,0
103680,note_on,336,0,2,,,,,,,,1,,,53,45
103680,note_on,224,0,1,,,,,,,,0,,,77,45
104064,note_on,0,0,2,,,,,,,,1,,,56,45
104064,note_on,384,0,2,,,,,,,,1,,,53,0
104064,note_on,0,0,1,,,,,,,,0,,,80,45
104064,note_on,384,0,1,,,,,,,,0,,,77,0
104400,note_on,336,0,1,,,,,,,,0,,,80,0
104400,note_on,336,0,2,,,,,,,,1,,,56,0
104448,note_on,48,0,1,,,,,,,,0,,,71,45
104448,note_on,48,0,2,,,,,,,,1,,,47,45
104496,note_on,48,0,1,,,,,,,,0,,,71,0
104496,note_on,48,0,2,,,,,,,,1,,,47,0
104640,note_on,144,0,1,,,,,,,,0,,,72,45
104640,note_on,144,0,2,,,,,,,,1,,,48,45
104688,note_on,48,0,1,,,,,,,,0,,,72,0
104688,note_on,48,0,2,,,,,,,,1,,,48,0
105216,note_on,528,0,1,,,,,,,,0,,,67,45
105216,note_on,0,0,1,,,,,,,,0,,,76,45
105264,note_on,48,0,1,,,,,,,,0,,,67,0
105264,note_on,0,0,1,,,,,,,,0,,,76,0
105408,note_on,144,0,1,,,,,,,,0,,,69,45
105408,note_on,0,0,1,,,,,,,,0,,,77,45
105792,note_on,0,0,1,,,,,,,,0,,,77,0
105792,note_on,0,0,1,,,,,,,,0,,,76,45
105792,note_on,0,0,1,,,,,,,,0,,,67,45
105792,note_on,384,0,1,,,,,,,,0,,,69,0
105952,note_on,0,0,1,,,,,,,,0,,,76,0
105952,note_on,160,0,1,,,,,,,,0,,,67,0
105984,note_on,32,0,1,,,,,,,,0,,,65,45
105984,note_on,0,0,1,,,,,,,,0,,,76,45
105984,note_on,1296,0,2,,,,,,,,1,,,55,45
106032,note_on,48,0,2,,,,,,,,1,,,55,0
106080,note_on,96,0,1,,,,,,,,0,,,65,0
106080,note_on,0,0,1,,,,,,,,0,,,74,45
106080,note_on,0,0,1,,,,,,,,0,,,76,0
106174,note_on,94,0,1,,,,,,,,0,,,74,0
106176,note_on,0,0,1,,,,,,,,0,,,74,45
106176,note_on,2,0,1,,,,,,,,0,,,65,45
106176,note_on,144,0,2,,,,,,,,1,,,55,45
106224,note_on,48,0,2,,,,,,,,1,,,55,0
106272,note_on,0,0,1,,,,,,,,0,,,74,0
106272,note_on,0,0,1,,,,,,,,0,,,71,45
106272,note_on,96,0,1,,,,,,,,0,,,65,0
106366,note_on,94,0,1,,,,,,,,0,,,71,0
106368,note_on,2,0,1,,,,,,,,0,,,64,45
106368,note_on,144,0,2,,,,,,,,1,,,48,45
106368,note_on,0,0,1,,,,,,,,0,,,72,45
106416,note_on,48,0,2,,,,,,,,1,,,48,0
106462,note_on,94,0,1,,,,,,,,0,,,64,0
106528,note_on,66,0,1,,,,,,,,0,,,72,0
106752,note_on,0,0,2,,,,,,,,1,,,60,45
106752,note_on,336,0,2,,,,,,,,1,,,57,45
106800,note_on,48,0,2,,,,,,,,1,,,57,0
106800,note_on,0,0,2,,,,,,,,1,,,60,0
106944,note_on,144,0,2,,,,,,,,1,,,58,56
106944,note_on,0,0,2,,,,,,,,1,,,62,56
107328,note_on,384,0,2,,,,,,,,1,,,58,0
107328,note_on,0,0,2,,,,,,,,1,,,62,0
107328,note_on,0,0,2,,,,,,,,1,,,57,80
107328,note_on,0,0,2,,,,,,,,1,,,60,80
107488,note_on,160,0,2,,,,,,,,1,,,57,0
107488,note_on,0,0,2,,,,,,,,1,,,60,0
107520,note_on,32,0,2,,,,,,,,1,,,57,92
107520,note_on,0,0,2,,,,,,,,1,,,60,92
107520,note_on,992,0,1,,,,,,,,0,,,84,92
107616,note_on,0,0,2,,,,,,,,1,,,55,92
107616,note_on,0,0,2,,,,,,,,1,,,58,92
107616,note_on,96,0,2,,,,,,,,1,,,57,0
107616,note_on,0,0,2,,,,,,,,1,,,60,0
107710,note_on,0,0,2,,,,,,,,1,,,58,0
107710,note_on,94,0,2,,,,,,,,1,,,55,0
107712,note_on,0,0,2,,,,,,,,1,,,58,92
107712,note_on,2,0,2,,,,,,,,1,,,55,92
107808,note_on,0,0,2,,,,,,,,1,,,55,92
107808,note_on,0,0,2,,,,,,,,1,,,52,92
107808,note_on,0,0,2,,,,,,,,1,,,58,0
107808,note_on,96,0,2,,,,,,,,1,,,55,0
107902,note_on,0,0,2,,,,,,,,1,,,55,0
107902,note_on,94,0,2,,,,,,,,1,,,52,0
107904,note_on,0,0,2,,,,,,,,1,,,57,92
107904,note_on,2,0,2,,,,,,,,1,,,53,92
107998,note_on,478,0,1,,,,,,,,0,,,84,0
108000,note_on,2,0,1,,,,,,,,0,,,83,92
108064,note_on,160,0,2,,,,,,,,1,,,53,0
108064,note_on,0,0,2,,,,,,,,1,,,57,0
108096,note_on,0,0,1,,,,,,,,0,,,84,92
108096,note_on,96,0,1,,,,,,,,0,,,83,0
108192,note_on,0,0,1,,,,,,,,0,,,82,92
108192,note_on,96,0,1,,,,,,,,0,,,84,0
108286,note_on,94,0,1,,,,,,,,0,,,82,0
108288,note_on,0,0,1,,,,,,,,0,,,81,92
108288,note_on,2,0,1,,,,,,,,0,,,77,92
108384,note_on,320,0,2,,,,,,,,1,,,41,92
108416,note_on,32,0,2,,,,,,,,1,,,41,0
108480,note_on,64,0,2,,,,,,,,1,,,45,92
108512,note_on,32,0,2,,,,,,,,1,,,45,0
108576,note_on,64,0,2,,,,,,,,1,,,48,92
108608,note_on,32,0,2,,,,,,,,1,,,48,0
108672,note_on,64,0,2,,,,,,,,1,,,53,92
108766,note_on,0,0,1,,,,,,,,0,,,81,0
108766,note_on,478,0,1,,,,,,,,0,,,77,0
108768,note_on,0,0,1,,,,,,,,0,,,80,92
108768,note_on,2,0,1,,,,,,,,0,,,76,92
108832,note_on,160,0,2,,,,,,,,1,,,53,0
108864,note_on,0,0,1,,,,,,,,0,,,77,92
108864,note_on,96,0,1,,,,,,,,0,,,76,0
108864,note_on,0,0,1,,,,,,,,0,,,80,0
108864,note_on,0,0,1,,,,,,,,0,,,81,92
108960,note_on,0,0,1,,,,,,,,0,,,79,92
108960,note_on,0,0,1,,,,,,,,0,,,76,92
108960,note_on,96,0,1,,,,,,,,0,,,77,0
108960,note_on,0,0,1,,,,,,,,0,,,81,0
109054,note_on,0,0,1,,,,,,,,0,,,79,0
109054,note_on,94,0,1,,,,,,,,0,,,76,0
109056,note_on,2,0,1,,,,,,,,0,,,74,92
109056,note_on,0,0,1,,,,,,,,0,,,77,92
109056,note_on,224,0,2,,,,,,,,1,,,45,92
109152,note_on,96,0,1,,,,,,,,0,,,74,0
109152,note_on,0,0,1,,,,,,,,0,,,77,0
109152,note_on,0,0,1,,,,,,,,0,,,73,92
109152,note_on,0,0,1,,,,,,,,0,,,76,92
109248,note_on,96,0,1,,,,,,,,0,,,73,0
109248,note_on,0,0,1,,,,,,,,0,,,76,0
109248,note_on,0,0,1,,,,,,,,0,,,74,92
109248,note_on,0,0,1,,,,,,,,0,,,77,92
109344,note_on,0,0,1,,,,,,,,0,,,73,92
109344,note_on,0,0,1,,,,,,,,0,,,77,0
109344,note_on,96,0,1,,,,,,,,0,,,74,0
109344,note_on,0,0,1,,,,,,,,0,,,76,92
109438,note_on,94,0,1,,,,,,,,0,,,73,0
109438,note_on,0,0,1,,,,,,,,0,,,76,0
109440,note_on,0,0,1,,,,,,,,0,,,77,92
109440,note_on,2,0,1,,,,,,,,0,,,74,92
109536,note_on,480,0,2,,,,,,,,1,,,45,0
109536,note_on,96,0,1,,,,,,,,0,,,77,0
109536,note_on,0,0,2,,,,,,,,1,,,44,92
109536,note_on,0,0,1,,,,,,,,0,,,76,92
109632,note_on,0,0,2,,,,,,,,1,,,45,92
109632,note_on,96,0,1,,,,,,,,0,,,76,0
109632,note_on,0,0,1,,,,,,,,0,,,77,92
109632,note_on,96,0,2,,,,,,,,1,,,44,0
109696,note_on,64,0,1,,,,,,,,0,,,74,0
109728,note_on,96,0,2,,,,,,,,1,,,45,0
109728,note_on,0,0,1,,,,,,,,0,,,73,92
109728,note_on,0,0,1,,,,,,,,0,,,76,92
109728,note_on,32,0,1,,,,,,,,0,,,77,0
109728,note_on,0,0,2,,,,,,,,1,,,43,92
109822,note_on,0,0,1,,,,,,,,0,,,76,0
109822,note_on,94,0,1,,,,,,,,0,,,73,0
109822,note_on,94,0,2,,,,,,,,1,,,43,0
109824,note_on,0,0,1,,,,,,,,0,,,74,92
109824,note_on,2,0,1,,,,,,,,0,,,74,92
109824,note_on,2,0,2,,,,,,,,1,,,41,92
109984,note_on,160,0,1,,,,,,,,0,,,74,0
110016,note_on,0,0,1,,,,,,,,0,,,75,92
110016,note_on,0,0,1,,,,,,,,0,,,69,92
110016,note_on,32,0,1,,,,,,,,0,,,74,0
110208,note_on,0,0,1,,,,,,,,0,,,74,92
110208,note_on,0,0,2,,,,,,,,1,,,42,92
110208,note_on,384,0,2,,,,,,,,1,,,41,0
110208,note_on,192,0,1,,,,,,,,0,,,75,0
110352,note_on,144,0,1,,,,,,,,0,,,69,0
110400,note_on,48,0,1,,,,,,,,0,,,74,0
110400,note_on,0,0,1,,,,,,,,0,,,69,92
110400,note_on,0,0,1,,,,,,,,0,,,72,92
110544,note_on,336,0,2,,,,,,,,1,,,42,0
110560,note_on,0,0,1,,,,,,,,0,,,72,0
110560,note_on,160,0,1,,,,,,,,0,,,69,0
110592,note_on,48,0,2,,,,,,,,1,,,43,92
110592,note_on,32,0,1,,,,,,,,0,,,67,92
110592,note_on,0,0,1,,,,,,,,0,,,71,92
110640,note_on,48,0,2,,,,,,,,1,,,43,0
110752,note_on,160,0,1,,,,,,,,0,,,67,0
110752,note_on,0,0,1,,,,,,,,0,,,71,0
110784,note_on,144,0,2,,,,,,,,1,,,55,127
110976,note_on,224,0,1,,,,,,,,0,,,67,92
111024,note_on,48,0,1,,,,,,,,0,,,67,0
111070,note_on,286,0,2,,,,,,,,1,,,55,0
111072,note_on,2,0,2,,,,,,,,1,,,54,92
111168,note_on,144,0,1,,,,,,,,0,,,79,127
111168,note_on,0,0,2,,,,,,,,1,,,55,92
111168,note_on,96,0,2,,,,,,,,1,,,54,0
111264,note_on,96,0,2,,,,,,,,1,,,55,0
111264,note_on,0,0,2,,,,,,,,1,,,53,92
111358,note_on,94,0,2,,,,,,,,1,,,53,0
111360,note_on,2,0,2,,,,,,,,1,,,52,92
111454,note_on,286,0,1,,,,,,,,0,,,79,0
111456,note_on,2,0,1,,,,,,,,0,,,78,92
111456,note_on,96,0,2,,,,,,,,1,,,52,0
111456,note_on,0,0,2,,,,,,,,1,,,51,92
111552,note_on,96,0,2,,,,,,,,1,,,51,0
111552,note_on,0,0,2,,,,,,,,1,,,52,92
111552,note_on,96,0,1,,,,,,,,0,,,78,0
111552,note_on,0,0,1,,,,,,,,0,,,79,92
111648,note_on,96,0,2,,,,,,,,1,,,52,0
111648,note_on,0,0,2,,,,,,,,1,,,50,92
111648,note_on,0,0,1,,,,,,,,0,,,77,92
111648,note_on,96,0,1,,,,,,,,0,,,79,0
111742,note_on,94,0,2,,,,,,,,1,,,50,0
111742,note_on,94,0,1,,,,,,,,0,,,77,0
111744,note_on,2,0,2,,,,,,,,1,,,48,92
111744,note_on,2,0,1,,,,,,,,0,,,76,92
111840,note_on,96,0,1,,,,,,,,0,,,78,92
111904,note_on,64,0,1,,,,,,,,0,,,76,0
111936,note_on,192,0,2,,,,,,,,1,,,48,0
111936,note_on,0,0,2,,,,,,,,1,,,45,92
111936,note_on,32,0,1,,,,,,,,0,,,78,0
111936,note_on,0,0,1,,,,,,,,0,,,79,92
111936,note_on,0,0,1,,,,,,,,0,,,72,92
112032,note_on,0,0,1,,,,,,,,0,,,78,92
112032,note_on,96,0,1,,,,,,,,0,,,79,0
112096,note_on,160,0,2,,,,,,,,1,,,45,0
112096,note_on,64,0,1,,,,,,,,0,,,72,0
112126,note_on,30,0,1,,,,,,,,0,,,78,0
112128,note_on,0,0,1,,,,,,,,0,,,79,92
112128,note_on,2,0,1,,,,,,,,0,,,71,92
112128,note_on,32,0,2,,,,,,,,1,,,43,92
112176,note_on,48,0,2,,,,,,,,1,,,43,0
112288,note_on,0,0,1,,,,,,,,0,,,79,0
112288,note_on,160,0,1,,,,,,,,0,,,71,0
112320,note_on,144,0,2,,,,,,,,1,,,55,127
112512,note_on,224,0,1,,,,,,,,0,,,67,92
112560,note_on,48,0,1,,,,,,,,0,,,67,0
112606,note_on,286,0,2,,,,,,,,1,,,55,0
112608,note_on,2,0,2,,,,,,,,1,,,54,92
112704,note_on,96,0,2,,,,,,,,1,,,54,0
112704,note_on,0,0,2,,,,,,,,1,,,55,92
112704,note_on,144,0,1,,,,,,,,0,,,79,127
112800,note_on,96,0,2,,,,,,,,1,,,55,0
112800,note_on,0,0,2,,,,,,,,1,,,53,92
112894,note_on,94,0,2,,,,,,,,1,,,53,0
112896,note_on,2,0,2,,,,,,,,1,,,51,92
112990,note_on,286,0,1,,,,,,,,0,,,79,0
112992,note_on,96,0,2,,,,,,,,1,,,51,0
112992,note_on,0,0,2,,,,,,,,1,,,50,92
112992,note_on,2,0,1,,,,,,,,0,,,78,92
113088,note_on,96,0,2,,,,,,,,1,,,50,0
113088,note_on,0,0,2,,,,,,,,1,,,51,92
113088,note_on,0,0,1,,,,,,,,0,,,79,92
113088,note_on,96,0,1,,,,,,,,0,,,78,0
113184,note_on,96,0,2,,,,,,,,1,,,51,0
113184,note_on,96,0,1,,,,,,,,0,,,79,0
113184,note_on,0,0,1,,,,,,,,0,,,77,92
113184,note_on,0,0,2,,,,,,,,1,,,50,92
113278,note_on,94,0,1,,,,,,,,0,,,77,0
113278,note_on,94,0,2,,,,,,,,1,,,50,0
113280,note_on,2,0,2,,,,,,,,1,,,48,92
113280,note_on,2,0,1,,,,,,,,0,,,75,92
113376,note_on,96,0,1,,,,,,,,0,,,78,92
113440,note_on,64,0,1,,,,,,,,0,,,75,0
113472,note_on,0,0,1,,,,,,,,0,,,72,92
113472,note_on,32,0,1,,,,,,,,0,,,78,0
113472,note_on,0,0,1,,,,,,,,0,,,79,92
113472,note_on,0,0,2,,,,,,,,1,,,56,92
113472,note_on,192,0,2,,,,,,,,1,,,48,0
113568,note_on,0,0,1,,,,,,,,0,,,78,92
113568,note_on,96,0,1,,,,,,,,0,,,79,0
113632,note_on,160,0,2,,,,,,,,1,,,56,0
113632,note_on,64,0,1,,,,,,,,0,,,72,0
113662,note_on,30,0,1,,,,,,,,0,,,78,0
113664,note_on,0,0,1,,,,,,,,0,,,79,92
113664,note_on,32,0,2,,,,,,,,1,,,55,92
113664,note_on,2,0,1,,,,,,,,0,,,71,92
113758,note_on,0,0,1,,,,,,,,0,,,79,0
113758,note_on,94,0,2,,,,,,,,1,,,55,0
113758,note_on,94,0,1,,,,,,,,0,,,71,0
113856,note_on,98,0,2,,,,,,,,1,,,43,92
113856,note_on,98,0,1,,,,,,,,0,,,77,92
113856,note_on,0,0,1,,,,,,,,0,,,83,92
113950,note_on,94,0,2,,,,,,,,1,,,43,0
113952,note_on,2,0,2,,,,,,,,1,,,55,92
113984,note_on,32,0,2,,,,,,,,1,,,55,0
114048,note_on,0,0,1,,,,,,,,0,,,76,92
114048,note_on,0,0,1,,,,,,,,0,,,84,92
114048,note_on,64,0,2,,,,,,,,1,,,43,92
114048,note_on,0,0,1,,,,,,,,0,,,83,0
114048,note_on,192,0,1,,,,,,,,0,,,77,0
114080,note_on,32,0,2,,,,,,,,1,,,43,0
114142,note_on,94,0,1,,,,,,,,0,,,76,0
114142,note_on,0,0,1,,,,,,,,0,,,84,0
114144,note_on,64,0,2,,,,,,,,1,,,55,92
114176,note_on,32,0,2,,,,,,,,1,,,55,0
114240,note_on,64,0,2,,,,,,,,1,,,43,92
114240,note_on,0,0,1,,,,,,,,0,,,76,92
114240,note_on,98,0,1,,,,,,,,0,,,72,92
114272,note_on,32,0,2,,,,,,,,1,,,43,0
114336,note_on,64,0,2,,,,,,,,1,,,55,92
114368,note_on,32,0,2,,,,,,,,1,,,55,0
114432,note_on,0,0,1,,,,,,,,0,,,74,92
114432,note_on,64,0,2,,,,,,,,1,,,43,92
114432,note_on,0,0,1,,,,,,,,0,,,76,0
114432,note_on,192,0,1,,,,,,,,0,,,72,0
114432,note_on,0,0,1,,,,,,,,0,,,71,92
114464,note_on,32,0,2,,,,,,,,1,,,43,0
114526,note_on,94,0,1,,,,,,,,0,,,71,0
114526,note_on,0,0,1,,,,,,,,0,,,74,0
114528,note_on,64,0,2,,,,,,,,1,,,55,92
114560,note_on,32,0,2,,,,,,,,1,,,55,0
114624,note_on,64,0,2,,,,,,,,1,,,43,92
114624,note_on,98,0,1,,,,,,,,0,,,77,92
114624,note_on,0,0,1,,,,,,,,0,,,83,92
114656,note_on,32,0,2,,,,,,,,1,,,43,0
114720,note_on,64,0,2,,,,,,,,1,,,55,92
114752,note_on,32,0,2,,,,,,,,1,,,55,0
114816,note_on,64,0,2,,,,,,,,1,,,43,92
114816,note_on,0,0,1,,,,,,,,0,,,83,0
114816,note_on,0,0,1,,,,,,,,0,,,76,92
114816,note_on,192,0,1,,,,,,,,0,,,77,0
114816,note_on,0,0,1,,,,,,,,0,,,84,92
114848,note_on,32,0,2,,,,,,,,1,,,43,0
114910,note_on,94,0,1,,,,,,,,0,,,76,0
114910,note_on,0,0,1,,,,,,,,0,,,84,0
114912,note_on,64,0,2,,,,,,,,1,,,55,92
114944,note_on,32,0,2,,,,,,,,1,,,55,0
115008,note_on,64,0,2,,,,,,,,1,,,43,92
115008,note_on,98,0,1,,,,,,,,0,,,72,92
115008,note_on,0,0,1,,,,,,,,0,,,76,92
115040,note_on,32,0,2,,,,,,,,1,,,43,0
115104,note_on,64,0,2,,,,,,,,1,,,55,92
115136,note_on,32,0,2,,,,,,,,1,,,55,0
115200,note_on,0,0,1,,,,,,,,0,,,76,0
115200,note_on,0,0,1,,,,,,,,0,,,74,92
115200,note_on,0,0,1,,,,,,,,0,,,71,92
115200,note_on,64,0,2,,,,,,,,1,,,43,92
115200,note_on,192,0,1,,,,,,,,0,,,72,0
115248,note_on,48,0,2,,,,,,,,1,,,43,0
115360,note_on,160,0,1,,,,,,,,0,,,71,0
115360,note_on,0,0,1,,,,,,,,0,,,74,0
115392,note_on,0,0,1,,,,,,,,0,,,79,92
115392,note_on,32,0,1,,,,,,,,0,,,71,92
115392,note_on,144,0,2,,,,,,,,1,,,55,92
115440,note_on,48,0,2,,,,,,,,1,,,55,0
115440,note_on,0,0,1,,,,,,,,0,,,79,0
115440,note_on,48,0,1,,,,,,,,0,,,71,0
115584,note_on,144,0,2,,,,,,,,1,,,43,92
115584,note_on,0,0,1,,,,,,,,0,,,79,92
115584,note_on,144,0,1,,,,,,,,0,,,71,92
115632,note_on,48,0,1,,,,,,,,0,,,71,0
115632,note_on,0,0,1,,,,,,,,0,,,79,0
115632,note_on,48,0,2,,,,,,,,1,,,43,0
115968,note_on,336,0,1,,,,,,,,0,,,72,92
115968,note_on,336,0,2,,,,,,,,1,,,48,92
116128,note_on,160,0,2,,,,,,,,1,,,48,0
116128,note_on,160,0,1,,,,,,,,0,,,72,0
116256,note_on,128,0,2,,,,,,,,1,,,43,92
116256,note_on,128,0,1,,,,,,,,0,,,67,92
116288,note_on,32,0,2,,,,,,,,1,,,43,0
116288,note_on,32,0,1,,,,,,,,0,,,67,0
116352,note_on,64,0,2,,,,,,,,1,,,48,92
116352,note_on,64,0,1,,,,,,,,0,,,72,92
116512,note_on,160,0,2,,,,,,,,1,,,48,0
116512,note_on,160,0,1,,,,,,,,0,,,72,0
116640,note_on,128,0,2,,,,,,,,1,,,43,92
116640,note_on,128,0,1,,,,,,,,0,,,67,92
116672,note_on,32,0,1,,,,,,,,0,,,67,0
116672,note_on,32,0,2,,,,,,,,1,,,43,0
116736,note_on,64,0,2,,,,,,,,1,,,48,92
116736,note_on,64,0,1,,,,,,,,0,,,72,92
116768,note_on,32,0,1,,,,,,,,0,,,72,0
116768,note_on,32,0,2,,,,,,,,1,,,48,0
116832,note_on,64,0,1,,,,,,,,0,,,76,92
116832,note_on,64,0,2,,,,,,,,1,,,52,92
116864,note_on,32,0,1,,,,,,,,0,,,76,0
116864,note_on,32,0,2,,,,,,,,1,,,52,0
116928,note_on,64,0,1,,,,,,,,0,,,79,92
116928,note_on,64,0,2,,,,,,,,1,,,55,92
116960,note_on,32,0,1,,,,,,,,0,,,79,0
116960,note_on,32,0,2,,,,,,,,1,,,55,0
117024,note_on,64,0,2,,,,,,,,1,,,52,92
117024,note_on,64,0,1,,,,,,,,0,,,76,92
117056,note_on,32,0,2,,,,,,,,1,,,52,0
117056,note_on,32,0,1,,,,,,,,0,,,76,0
117120,note_on,64,0,2,,,,,,,,1,,,48,92
117120,note_on,64,0,1,,,,,,,,0,,,72,92
117280,note_on,160,0,2,,,,,,,,1,,,48,0
117280,note_on,160,0,1,,,,,,,,0,,,72,0
117504,note_on,224,0,1,,,,,,,,0,,,67,45
117504,note_on,0,0,1,,,,,,,,0,,,76,45
117552,note_on,48,0,1,,,,,,,,0,,,67,0
117552,note_on,0,0,1,,,,,,,,0,,,76,0
117696,note_on,144,0,1,,,,,,,,0,,,69,45
117696,note_on,0,0,1,,,,,,,,0,,,77,45
118080,note_on,384,0,1,,,,,,,,0,,,69,0
118080,note_on,0,0,1,,,,,,,,0,,,77,0
118080,note_on,0,0,1,,,,,,,,0,,,67,45
118080,note_on,0,0,1,,,,,,,,0,,,76,45
118240,note_on,0,0,1,,,,,,,,0,,,76,0
118240,note_on,160,0,1,,,,,,,,0,,,67,0
118272,note_on,0,0,1,,,,,,,,0,,,76,45
118272,note_on,992,0,2,,,,,,,,1,,,55,45
118272,note_on,32,0,1,,,,,,,,0,,,67,45
118368,note_on,96,0,1,,,,,,,,0,,,67,0
118368,note_on,0,0,1,,,,,,,,0,,,76,0
118368,note_on,0,0,1,,,,,,,,0,,,74,45
118368,note_on,0,0,1,,,,,,,,0,,,65,45
118432,note_on,160,0,2,,,,,,,,1,,,55,0
118462,note_on,94,0,1,,,,,,,,0,,,65,0
118462,note_on,0,0,1,,,,,,,,0,,,74,0
118464,note_on,2,0,1,,,,,,,,0,,,65,45
118464,note_on,0,0,1,,,,,,,,0,,,74,45
118464,note_on,32,0,2,,,,,,,,1,,,55,45
118560,note_on,96,0,1,,,,,,,,0,,,74,0
118560,note_on,0,0,1,,,,,,,,0,,,71,45
118624,note_on,160,0,2,,,,,,,,1,,,55,0
118624,note_on,64,0,1,,,,,,,,0,,,65,0
118654,note_on,30,0,1,,,,,,,,0,,,71,0
118656,note_on,32,0,2,,,,,,,,1,,,60,45
118656,note_on,2,0,1,,,,,,,,0,,,64,45
118656,note_on,0,0,1,,,,,,,,0,,,72,45
118688,note_on,32,0,2,,,,,,,,1,,,60,0
118752,note_on,64,0,2,,,,,,,,1,,,48,45
118816,note_on,160,0,1,,,,,,,,0,,,64,0
118816,note_on,0,0,1,,,,,,,,0,,,72,0
118848,note_on,0,0,2,,,,,,,,1,,,52,45
118848,note_on,96,0,2,,,,,,,,1,,,48,0
118944,note_on,96,0,2,,,,,,,,1,,,52,0
118944,note_on,0,0,2,,,,,,,,1,,,55,45
119038,note_on,94,0,2,,,,,,,,1,,,55,0
119040,note_on,224,0,1,,,,,,,,0,,,76,45
119040,note_on,0,0,1,,,,,,,,0,,,79,45
119040,note_on,2,0,2,,,,,,,,1,,,60,45
119088,note_on,48,0,1,,,,,,,,0,,,76,0
119088,note_on,0,0,1,,,,,,,,0,,,79,0
119200,note_on,160,0,2,,,,,,,,1,,,60,0
119232,note_on,0,0,1,,,,,,,,0,,,81,45
119232,note_on,144,0,1,,,,,,,,0,,,77,45
119616,note_on,0,0,1,,,,,,,,0,,,81,0
119616,note_on,0,0,1,,,,,,,,0,,,76,45
119616,note_on,0,0,1,,,,,,,,0,,,79,45
119616,note_on,384,0,1,,,,,,,,0,,,77,0
119776,note_on,160,0,1,,,,,,,,0,,,76,0
119776,note_on,0,0,1,,,,,,,,0,,,79,0
119808,note_on,32,0,1,,,,,,,,0,,,76,45
119808,note_on,0,0,1,,,,,,,,0,,,79,45
119808,note_on,608,0,2,,,,,,,,1,,,55,45
119904,note_on,96,0,1,,,,,,,,0,,,76,0
119904,note_on,0,0,1,,,,,,,,0,,,79,0
119904,note_on,0,0,1,,,,,,,,0,,,74,45
119904,note_on,0,0,1,,,,,,,,0,,,77,45
119968,note_on,160,0,2,,,,,,,,1,,,55,0
119998,note_on,0,0,1,,,,,,,,0,,,77,0
119998,note_on,94,0,1,,,,,,,,0,,,74,0
120000,note_on,2,0,1,,,,,,,,0,,,74,45
120000,note_on,32,0,2,,,,,,,,1,,,55,45
120000,note_on,0,0,1,,,,,,,,0,,,77,45
120096,note_on,0,0,1,,,,,,,,0,,,74,45
120096,note_on,96,0,1,,,,,,,,0,,,74,0
120096,note_on,0,0,1,,,,,,,,0,,,77,0
120096,note_on,0,0,1,,,,,,,,0,,,71,45
120160,note_on,160,0,2,,,,,,,,1,,,55,0
120190,note_on,0,0,1,,,,,,,,0,,,74,0
120190,note_on,94,0,1,,,,,,,,0,,,71,0
120192,note_on,0,0,1,,,,,,,,0,,,76,45
120192,note_on,2,0,1,,,,,,,,0,,,72,45
120192,note_on,32,0,2,,,,,,,,1,,,60,45
120224,note_on,32,0,2,,,,,,,,1,,,60,0
120288,note_on,64,0,2,,,,,,,,1,,,48,45
120352,note_on,0,0,1,,,,,,,,0,,,76,0
120352,note_on,160,0,1,,,,,,,,0,,,72,0
120384,note_on,96,0,2,,,,,,,,1,,,48,0
120384,note_on,0,0,2,,,,,,,,1,,,52,45
120480,note_on,96,0,2,,,,,,,,1,,,52,0
120480,note_on,0,0,2,,,,,,,,1,,,55,45
120574,note_on,94,0,2,,,,,,,,1,,,55,0
120576,note_on,224,0,1,,,,,,,,0,,,72,92
120576,note_on,0,0,1,,,,,,,,0,,,84,92
120576,note_on,2,0,2,,,,,,,,1,,,60,92
120608,note_on,32,0,2,,,,,,,,1,,,60,0
120672,note_on,64,0,2,,,,,,,,1,,,52,92
120672,note_on,0,0,1,,,,,,,,0,,,79,92
120672,note_on,96,0,1,,,,,,,,0,,,84,0
120766,note_on,94,0,1,,,,,,,,0,,,79,0
120768,note_on,2,0,1,,,,,,,,0,,,79,92
120768,note_on,96,0,2,,,,,,,,1,,,52,0
120768,note_on,0,0,2,,,,,,,,1,,,64,92
120800,note_on,32,0,1,,,,,,,,0,,,79,0
120862,note_on,94,0,2,,,,,,,,1,,,64,0
120864,note_on,64,0,1,,,,,,,,0,,,79,92
120864,note_on,2,0,2,,,,,,,,1,,,64,92
120896,note_on,32,0,1,,,,,,,,0,,,79,0
120896,note_on,32,0,2,,,,,,,,1,,,64,0
120960,note_on,64,0,1,,,,,,,,0,,,79,92
120960,note_on,64,0,2,,,,,,,,1,,,64,92
120992,note_on,32,0,2,,,,,,,,1,,,64,0
121056,note_on,64,0,2,,,,,,,,1,,,64,92
121088,note_on,32,0,2,,,,,,,,1,,,64,0
121152,note_on,64,0,2,,,,,,,,1,,,64,92
121184,note_on,32,0,2,,,,,,,,1,,,64,0
121248,note_on,0,0,1,,,,,,,,0,,,80,92
121248,note_on,288,0,1,,,,,,,,0,,,79,0
121248,note_on,64,0,2,,,,,,,,1,,,64,92
121280,note_on,32,0,2,,,,,,,,1,,,64,0
121296,note_on,48,0,1,,,,,,,,0,,,72,0
121342,note_on,46,0,1,,,,,,,,0,,,80,0
121344,note_on,0,0,1,,,,,,,,0,,,81,92
121344,note_on,2,0,1,,,,,,,,0,,,72,92
121440,note_on,96,0,1,,,,,,,,0,,,81,0
121440,note_on,0,0,1,,,,,,,,0,,,74,92
121440,note_on,160,0,2,,,,,,,,1,,,53,92
121534,note_on,94,0,1,,,,,,,,0,,,74,0
121536,note_on,0,0,2,,,,,,,,1,,,65,92
121536,note_on,96,0,2,,,,,,,,1,,,53,0
121536,note_on,2,0,1,,,,,,,,0,,,74,92
121568,note_on,32,0,1,,,,,,,,0,,,74,0
121630,note_on,94,0,2,,,,,,,,1,,,65,0
121632,note_on,2,0,2,,,,,,,,1,,,65,92
121632,note_on,64,0,1,,,,,,,,0,,,74,92
121664,note_on,32,0,2,,,,,,,,1,,,65,0
121664,note_on,32,0,1,,,,,,,,0,,,74,0
121680,note_on,16,0,1,,,,,,,,0,,,72,0
121728,note_on,64,0,2,,,,,,,,1,,,65,92
121728,note_on,48,0,1,,,,,,,,0,,,71,92
121728,note_on,0,0,1,,,,,,,,0,,,74,92
121760,note_on,32,0,2,,,,,,,,1,,,65,0
121824,note_on,64,0,2,,,,,,,,1,,,65,92
121856,note_on,32,0,2,,,,,,,,1,,,65,0
121920,note_on,64,0,2,,,,,,,,1,,,65,92
121952,note_on,32,0,2,,,,,,,,1,,,65,0
122016,note_on,64,0,2,,,,,,,,1,,,65,92
122048,note_on,32,0,2,,,,,,,,1,,,65,0
122064,note_on,0,0,1,,,,,,,,0,,,74,0
122064,note_on,336,0,1,,,,,,,,0,,,71,0
122112,note_on,0,0,1,,,,,,,,0,,,79,92
122112,note_on,48,0,1,,,,,,,,0,,,72,92
122112,note_on,64,0,2,,,,,,,,1,,,64,92
122144,note_on,32,0,2,,,,,,,,1,,,64,0
122256,note_on,0,0,1,,,,,,,,0,,,79,0
122256,note_on,144,0,1,,,,,,,,0,,,72,0
122256,note_on,0,0,1,,,,,,,,0,,,81,92
122302,note_on,46,0,1,,,,,,,,0,,,81,0
122304,note_on,0,0,1,,,,,,,,0,,,77,92
122304,note_on,2,0,1,,,,,,,,0,,,74,92
122304,note_on,160,0,2,,,,,,,,1,,,65,92
122336,note_on,32,0,2,,,,,,,,1,,,65,0
122448,note_on,0,0,1,,,,,,,,0,,,79,92
122448,note_on,0,0,1,,,,,,,,0,,,77,0
122448,note_on,144,0,1,,,,,,,,0,,,74,0
122494,note_on,46,0,1,,,,,,,,0,,,79,0
122496,note_on,0,0,1,,,,,,,,0,,,76,92
122496,note_on,2,0,1,,,,,,,,0,,,72,92
122496,note_on,160,0,2,,,,,,,,1,,,67,92
122528,note_on,32,0,2,,,,,,,,1,,,67,0
122640,note_on,0,0,1,,,,,,,,0,,,76,0
122640,note_on,144,0,1,,,,,,,,0,,,72,0
122640,note_on,0,0,1,,,,,,,,0,,,77,92
122686,note_on,46,0,1,,,,,,,,0,,,77,0
122688,note_on,2,0,1,,,,,,,,0,,,71,92
122688,note_on,0,0,1,,,,,,,,0,,,74,92
122688,note_on,160,0,2,,,,,,,,1,,,55,92
122720,note_on,32,0,2,,,,,,,,1,,,55,0
122832,note_on,144,0,1,,,,,,,,0,,,71,0
122832,note_on,0,0,1,,,,,,,,0,,,76,92
122832,note_on,0,0,1,,,,,,,,0,,,74,0
122878,note_on,46,0,1,,,,,,,,0,,,76,0
122880,note_on,160,0,2,,,,,,,,1,,,60,45
122880,note_on,2,0,1,,,,,,,,0,,,72,45
123040,note_on,160,0,2,,,,,,,,1,,,60,0
123040,note_on,160,0,1,,,,,,,,0,,,72,0
123072,note_on,32,0,2,,,,,,,,1,,,64,45
123104,note_on,32,0,2,,,,,,,,1,,,64,0
123168,note_on,64,0,2,,,,,,,,1,,,60,45
123200,note_on,32,0,2,,,,,,,,1,,,60,0
123264,note_on,64,0,2,,,,,,,,1,,,57,45
123424,note_on,160,0,2,,,,,,,,1,,,57,0
123456,note_on,0,0,1,,,,,,,,0,,,76,45
123456,note_on,32,0,2,,,,,,,,1,,,60,45
123456,note_on,416,0,1,,,,,,,,0,,,72,45
123488,note_on,32,0,2,,,,,,,,1,,,60,0
123552,note_on,64,0,2,,,,,,,,1,,,57,45
123584,note_on,32,0,2,,,,,,,,1,,,57,0
123616,note_on,160,0,1,,,,,,,,0,,,72,0
123616,note_on,0,0,1,,,,,,,,0,,,76,0
123648,note_on,0,0,1,,,,,,,,0,,,74,45
123648,note_on,32,0,1,,,,,,,,0,,,72,45
123648,note_on,64,0,2,,,,,,,,1,,,53,45
123808,note_on,160,0,2,,,,,,,,1,,,53,0
123840,note_on,32,0,2,,,,,,,,1,,,57,45
123840,note_on,0,0,1,,,,,,,,0,,,74,45
123840,note_on,192,0,1,,,,,,,,0,,,74,0
123872,note_on,32,0,2,,,,,,,,1,,,57,0
123936,note_on,64,0,2,,,,,,,,1,,,53,45
123968,note_on,32,0,2,,,,,,,,1,,,53,0
124032,note_on,64,0,2,,,,,,,,1,,,55,45
124032,note_on,0,0,1,,,,,,,,0,,,76,45
124032,note_on,192,0,1,,,,,,,,0,,,74,0
124176,note_on,144,0,1,,,,,,,,0,,,72,0
124192,note_on,160,0,2,,,,,,,,1,,,55,0
124224,note_on,0,0,1,,,,,,,,0,,,74,45
124224,note_on,0,0,1,,,,,,,,0,,,77,45
124224,note_on,48,0,1,,,,,,,,0,,,76,0
124224,note_on,32,0,2,,,,,,,,1,,,59,45
124256,note_on,32,0,2,,,,,,,,1,,,59,0
124320,note_on,64,0,2,,,,,,,,1,,,55,45
124352,note_on,32,0,2,,,,,,,,1,,,55,0
124384,note_on,0,0,1,,,,,,,,0,,,77,0
124384,note_on,160,0,1,,,,,,,,0,,,74,0
124416,note_on,0,0,1,,,,,,,,0,,,77,45
124416,note_on,32,0,1,,,,,,,,0,,,74,45
124416,note_on,64,0,2,,,,,,,,1,,,60,45
124576,note_on,160,0,2,,,,,,,,1,,,60,0
124608,note_on,0,0,1,,,,,,,,0,,,77,0
124608,note_on,192,0,1,,,,,,,,0,,,74,0
124608,note_on,32,0,2,,,,,,,,1,,,64,45
124608,note_on,0,0,1,,,,,,,,0,,,76,45
124608,note_on,0,0,1,,,,,,,,0,,,72,45
124640,note_on,32,0,2,,,,,,,,1,,,64,0
124704,note_on,64,0,2,,,,,,,,1,,,60,45
124736,note_on,32,0,2,,,,,,,,1,,,60,0
124768,note_on,0,0,1,,,,,,,,0,,,76,0
124768,note_on,160,0,1,,,,,,,,0,,,72,0
124800,note_on,64,0,2,,,,,,,,1,,,57,45
124960,note_on,160,0,2,,,,,,,,1,,,57,0
124992,note_on,0,0,1,,,,,,,,0,,,84,45
124992,note_on,224,0,1,,,,,,,,0,,,76,45
124992,note_on,32,0,2,,,,,,,,1,,,60,45
125024,note_on,32,0,2,,,,,,,,1,,,60,0
125040,note_on,0,0,1,,,,,,,,0,,,84,0
125040,note_on,48,0,1,,,,,,,,0,,,76,0
125088,note_on,64,0,2,,,,,,,,1,,,57,45
125120,note_on,32,0,2,,,,,,,,1,,,57,0
125184,note_on,144,0,1,,,,,,,,0,,,74,45
125184,note_on,0,0,1,,,,,,,,0,,,81,45
125184,note_on,64,0,2,,,,,,,,1,,,53,45
125344,note_on,160,0,2,,,,,,,,1,,,53,0
125376,note_on,192,0,1,,,,,,,,0,,,74,0
125376,note_on,0,0,1,,,,,,,,0,,,81,0
125376,note_on,0,0,1,,,,,,,,0,,,77,45
125376,note_on,0,0,1,,,,,,,,0,,,72,45
125376,note_on,32,0,2,,,,,,,,1,,,57,45
125408,note_on,32,0,2,,,,,,,,1,,,57,0
125472,note_on,64,0,2,,,,,,,,1,,,53,45
125504,note_on,32,0,2,,,,,,,,1,,,53,0
125568,note_on,0,0,1,,,,,,,,0,,,77,0
125568,note_on,192,0,1,,,,,,,,0,,,72,0
125568,note_on,64,0,2,,,,,,,,1,,,55,45
125568,note_on,0,0,1,,,,,,,,0,,,71,45
125568,note_on,0,0,1,,,,,,,,0,,,74,45
125728,note_on,160,0,2,,,,,,,,1,,,55,0
125760,note_on,32,0,2,,,,,,,,1,,,59,45
125760,note_on,0,0,1,,,,,,,,0,,,74,45
125760,note_on,192,0,1,,,,,,,,0,,,71,0
125760,note_on,0,0,1,,,,,,,,0,,,79,45
125760,note_on,0,0,1,,,,,,,,0,,,74,0
125792,note_on,32,0,2,,,,,,,,1,,,59,0
125856,note_on,64,0,2,,,,,,,,1,,,55,45
125888,note_on,32,0,2,,,,,,,,1,,,55,0
125920,note_on,160,0,1,,,,,,,,0,,,74,0
125920,note_on,0,0,1,,,,,,,,0,,,79,0
125952,note_on,64,0,2,,,,,,,,1,,,60,92
125952,note_on,32,0,1,,,,,,,,0,,,72,92
126112,note_on,160,0,1,,,,,,,,0,,,72,0
126112,note_on,160,0,2,,,,,,,,1,,,60,0
126144,note_on,32,0,1,,,,,,,,0,,,76,92
126240,note_on,96,0,1,,,,,,,,0,,,76,0
126240,note_on,0,0,1,,,,,,,,0,,,72,92
126334,note_on,94,0,1,,,,,,,,0,,,72,0
126336,note_on,224,0,2,,,,,,,,1,,,53,92
126336,note_on,2,0,1,,,,,,,,0,,,69,92
126496,note_on,160,0,1,,,,,,,,0,,,69,0
126496,note_on,160,0,2,,,,,,,,1,,,53,0
126528,note_on,32,0,1,,,,,,,,0,,,72,92
126528,note_on,32,0,2,,,,,,,,1,,,57,92
126624,note_on,96,0,1,,,,,,,,0,,,72,0
126624,note_on,0,0,1,,,,,,,,0,,,69,92
126624,note_on,96,0,2,,,,,,,,1,,,57,0
126624,note_on,0,0,2,,,,,,,,1,,,53,92
126718,note_on,94,0,1,,,,,,,,0,,,69,0
126718,note_on,94,0,2,,,,,,,,1,,,53,0
126720,note_on,2,0,1,,,,,,,,0,,,74,92
126720,note_on,2,0,2,,,,,,,,1,,,50,92
126880,note_on,160,0,2,,,,,,,,1,,,50,0
126880,note_on,160,0,1,,,,,,,,0,,,74,0
126912,note_on,32,0,1,,,,,,,,0,,,77,92
127008,note_on,0,0,1,,,,,,,,0,,,74,92
127008,note_on,96,0,1,,,,,,,,0,,,77,0
127102,note_on,94,0,1,,,,,,,,0,,,74,0
127104,note_on,2,0,1,,,,,,,,0,,,71,92
127104,note_on,224,0,2,,,,,,,,1,,,55,92
127264,note_on,160,0,2,,,,,,,,1,,,55,0
127264,note_on,160,0,1,,,,,,,,0,,,71,0
127296,note_on,32,0,2,,,,,,,,1,,,59,92
127296,note_on,32,0,1,,,,,,,,0,,,74,92
127392,note_on,0,0,1,,,,,,,,0,,,71,92
127392,note_on,96,0,1,,,,,,,,0,,,74,0
127392,note_on,96,0,2,,,,,,,,1,,,59,0
127392,note_on,0,0,2,,,,,,,,1,,,55,92
127486,note_on,94,0,1,,,,,,,,0,,,71,0
127486,note_on,94,0,2,,,,,,,,1,,,55,0
127488,note_on,2,0,1,,,,,,,,0,,,76,92
127488,note_on,2,0,2,,,,,,,,1,,,52,92
127648,note_on,160,0,1,,,,,,,,0,,,76,0
127648,note_on,160,0,2,,,,,,,,1,,,52,0
127680,note_on,32,0,1,,,,,,,,0,,,79,92
127776,note_on,0,0,1,,,,,,,,0,,,76,92
127776,note_on,96,0,1,,,,,,,,0,,,79,0
127870,note_on,94,0,1,,,,,,,,0,,,76,0
127872,note_on,2,0,1,,,,,,,,0,,,72,92
127872,note_on,224,0,2,,,,,,,,1,,,57,92
128032,note_on,160,0,1,,,,,,,,0,,,72,0
128032,note_on,160,0,2,,,,,,,,1,,,57,0
128064,note_on,32,0,1,,,,,,,,0,,,76,92
128064,note_on,32,0,2,,,,,,,,1,,,60,92
128160,note_on,0,0,2,,,,,,,,1,,,57,92
128160,note_on,0,0,1,,,,,,,,0,,,72,92
128160,note_on,96,0,2,,,,,,,,1,,,60,0
128160,note_on,96,0,1,,,,,,,,0,,,76,0
128254,note_on,94,0,1,,,,,,,,0,,,72,0
128254,note_on,94,0,2,,,,,,,,1,,,57,0
128256,note_on,2,0,1,,,,,,,,0,,,77,92
128256,note_on,2,0,2,,,,,,,,1,,,53,92
128416,note_on,160,0,2,,,,,,,,1,,,53,0
128416,note_on,160,0,1,,,,,,,,0,,,77,0
128448,note_on,32,0,1,,,,,,,,0,,,81,92
128544,note_on,96,0,1,,,,,,,,0,,,81,0
128544,note_on,0,0,1,,,,,,,,0,,,77,92
128638,note_on,94,0,1,,,,,,,,0,,,77,0
128640,note_on,2,0,1,,,,,,,,0,,,74,92
128640,note_on,224,0,2,,,,,,,,1,,,50,92
128800,note_on,160,0,1,,,,,,,,0,,,74,0
128800,note_on,160,0,2,,,,,,,,1,,,50,0
128832,note_on,32,0,2,,,,,,,,1,,,53,92
128832,note_on,32,0,1,,,,,,,,0,,,77,92
128928,note_on,96,0,1,,,,,,,,0,,,77,0
128928,note_on,0,0,1,,,,,,,,0,,,74,92
128928,note_on,96,0,2,,,,,,,,1,,,53,0
128928,note_on,0,0,2,,,,,,,,1,,,50,92
129022,note_on,94,0,1,,,,,,,,0,,,74,0
129022,note_on,94,0,2,,,,,,,,1,,,50,0
129024,note_on,2,0,1,,,,,,,,0,,,71,92
129024,note_on,2,0,2,,,,,,,,1,,,47,92
129120,note_on,96,0,1,,,,,,,,0,,,71,0
129120,note_on,0,0,1,,,,,,,,0,,,67,93
129120,note_on,0,0,2,,,,,,,,1,,,43,93
129120,note_on,96,0,2,,,,,,,,1,,,47,0
129216,note_on,96,0,2,,,,,,,,1,,,43,0
129216,note_on,0,0,2,,,,,,,,1,,,45,94
129216,note_on,96,0,1,,,,,,,,0,,,67,0
129216,note_on,0,0,1,,,,,,,,0,,,69,94
129312,note_on,0,0,2,,,,,,,,1,,,47,95
129312,note_on,96,0,2,,,,,,,,1,,,45,0
129312,note_on,96,0,1,,,,,,,,0,,,69,0
129312,note_on,0,0,1,,,,,,,,0,,,71,95
129406,note_on,94,0,2,,,,,,,,1,,,47,0
129406,note_on,94,0,1,,,,,,,,0,,,71,0
129408,note_on,2,0,2,,,,,,,,1,,,48,96
129408,note_on,2,0,1,,,,,,,,0,,,72,96
129504,note_on,0,0,2,,,,,,,,1,,,47,97
129504,note_on,96,0,2,,,,,,,,1,,,48,0
129504,note_on,96,0,1,,,,,,,,0,,,72,0
129504,note_on,0,0,1,,,,,,,,0,,,71,97
129600,note_on,96,0,2,,,,,,,,1,,,47,0
129600,note_on,0,0,1,,,,,,,,0,,,72,98
129600,note_on,96,0,1,,,,,,,,0,,,71,0
129600,note_on,0,0,2,,,,,,,,1,,,48,98
129696,note_on,0,0,2,,,,,,,,1,,,50,99
129696,note_on,96,0,2,,,,,,,,1,,,48,0
129696,note_on,0,0,1,,,,,,,,0,,,74,99
129696,note_on,96,0,1,,,,,,,,0,,,72,0
129790,note_on,94,0,2,,,,,,,,1,,,50,0
129790,note_on,94,0,1,,,,,,,,0,,,74,0
129792,note_on,2,0,2,,,,,,,,1,,,52,100
129792,note_on,2,0,1,,,,,,,,0,,,76,100
129888,note_on,0,0,1,,,,,,,,0,,,74,101
129888,note_on,96,0,1,,,,,,,,0,,,76,0
129952,note_on,160,0,2,,,,,,,,1,,,52,0
129984,note_on,96,0,1,,,,,,,,0,,,74,0
129984,note_on,0,0,1,,,,,,,,0,,,72,102
129984,note_on,32,0,2,,,,,,,,1,,,48,102
130080,note_on,96,0,1,,,,,,,,0,,,72,0
130080,note_on,96,0,2,,,,,,,,1,,,48,0
130080,note_on,0,0,2,,,,,,,,1,,,50,103
130080,note_on,0,0,1,,,,,,,,0,,,74,103
130174,note_on,94,0,1,,,,,,,,0,,,74,0
130176,note_on,96,0,2,,,,,,,,1,,,50,0
130176,note_on,2,0,1,,,,,,,,0,,,76,104
130176,note_on,0,0,2,,,,,,,,1,,,52,104
130272,note_on,0,0,2,,,,,,,,1,,,50,105
130272,note_on,96,0,2,,,,,,,,1,,,52,0
130272,note_on,96,0,1,,,,,,,,0,,,76,0
130272,note_on,0,0,1,,,,,,,,0,,,74,105
130368,note_on,0,0,1,,,,,,,,0,,,76,106
130368,note_on,0,0,2,,,,,,,,1,,,52,106
130368,note_on,96,0,1,,,,,,,,0,,,74,0
130368,note_on,96,0,2,,,,,,,,1,,,50,0
130464,note_on,0,0,2,,,,,,,,1,,,54,107
130464,note_on,96,0,1,,,,,,,,0,,,76,0
130464,note_on,96,0,2,,,,,,,,1,,,52,0
130464,note_on,0,0,1,,,,,,,,0,,,78,107
130558,note_on,94,0,2,,,,,,,,1,,,54,0
130558,note_on,94,0,1,,,,,,,,0,,,78,0
130560,note_on,2,0,2,,,,,,,,1,,,55,108
130560,note_on,2,0,1,,,,,,,,0,,,79,108
130654,note_on,94,0,1,,,,,,,,0,,,79,0
130656,note_on,0,0,2,,,,,,,,1,,,59,108
130656,note_on,96,0,2,,,,,,,,1,,,55,0
130750,note_on,94,0,2,,,,,,,,1,,,59,0
130752,note_on,98,0,1,,,,,,,,0,,,74,108
130752,note_on,2,0,2,,,,,,,,1,,,62,108
130752,note_on,0,0,1,,,,,,,,0,,,83,108
130784,note_on,32,0,2,,,,,,,,1,,,62,0
130848,note_on,64,0,2,,,,,,,,1,,,67,108
130880,note_on,32,0,2,,,,,,,,1,,,67,0
130944,note_on,0,0,1,,,,,,,,0,,,84,108
130944,note_on,192,0,1,,,,,,,,0,,,74,0
130944,note_on,0,0,1,,,,,,,,0,,,76,108
130944,note_on,0,0,1,,,,,,,,0,,,83,0
130944,note_on,64,0,2,,,,,,,,1,,,64,108
131038,note_on,0,0,1,,,,,,,,0,,,84,0
131038,note_on,94,0,1,,,,,,,,0,,,76,0
131040,note_on,0,0,2,,,,,,,,1,,,67,108
131040,note_on,96,0,2,,,,,,,,1,,,64,0
131134,note_on,94,0,2,,,,,,,,1,,,67,0
131136,note_on,2,0,2,,,,,,,,1,,,64,108
131136,note_on,0,0,1,,,,,,,,0,,,76,108
131136,note_on,98,0,1,,,,,,,,0,,,72,108
131168,note_on,0,0,1,,,,,,,,0,,,76,0
131168,note_on,32,0,1,,,,,,,,0,,,72,0
131168,note_on,32,0,2,,,,,,,,1,,,64,0
131232,note_on,64,0,2,,,,,,,,1,,,60,108
131264,note_on,32,0,2,,,,,,,,1,,,60,0
131328,note_on,64,0,2,,,,,,,,1,,,59,108
131328,note_on,160,0,1,,,,,,,,0,,,74,108
131328,note_on,0,0,1,,,,,,,,0,,,79,108
131360,note_on,0,0,1,,,,,,,,0,,,79,0
131360,note_on,32,0,1,,,,,,,,0,,,74,0
131424,note_on,96,0,2,,,,,,,,1,,,59,0
131424,note_on,0,0,2,,,,,,,,1,,,62,108
131518,note_on,94,0,2,,,,,,,,1,,,62,0
131520,note_on,2,0,2,,,,,,,,1,,,59,108
131520,note_on,160,0,1,,,,,,,,0,,,74,108
131520,note_on,0,0,1,,,,,,,,0,,,83,108
131552,note_on,32,0,2,,,,,,,,1,,,59,0
131616,note_on,64,0,2,,,,,,,,1,,,55,108
131648,note_on,32,0,2,,,,,,,,1,,,55,0
131712,note_on,64,0,2,,,,,,,,1,,,52,108
131712,note_on,0,0,1,,,,,,,,0,,,84,108
131712,note_on,192,0,1,,,,,,,,0,,,74,0
131712,note_on,0,0,1,,,,,,,,0,,,83,0
131712,note_on,0,0,1,,,,,,,,0,,,76,108
131806,note_on,0,0,1,,,,,,,,0,,,84,0
131806,note_on,94,0,1,,,,,,,,0,,,76,0
131808,note_on,96,0,2,,,,,,,,1,,,52,0
131808,note_on,0,0,2,,,,,,,,1,,,55,108
131902,note_on,94,0,2,,,,,,,,1,,,55,0
131904,note_on,2,0,2,,,,,,,,1,,,52,108
131904,note_on,98,0,1,,,,,,,,0,,,72,108
131904,note_on,0,0,1,,,,,,,,0,,,76,108
131936,note_on,0,0,1,,,,,,,,0,,,76,0
131936,note_on,32,0,2,,,,,,,,1,,,52,0
131936,note_on,32,0,1,,,,,,,,0,,,72,0
132000,note_on,64,0,2,,,,,,,,1,,,48,108
132032,note_on,32,0,2,,,,,,,,1,,,48,0
132096,note_on,64,0,2,,,,,,,,1,,,55,108
132096,note_on,0,0,1,,,,,,,,0,,,74,108
132096,note_on,160,0,1,,,,,,,,0,,,71,108
132144,note_on,48,0,2,,,,,,,,1,,,55,0
132144,note_on,0,0,1,,,,,,,,0,,,74,0
132144,note_on,48,0,1,,,,,,,,0,,,71,0
132288,note_on,144,0,2,,,,,,,,1,,,55,108
132288,note_on,0,0,1,,,,,,,,0,,,79,108
132288,note_on,144,0,1,,,,,,,,0,,,71,108
132336,note_on,0,0,1,,,,,,,,0,,,79,0
132336,note_on,48,0,2,,,,,,,,1,,,55,0
132336,note_on,48,0,1,,,,,,,,0,,,71,0
132480,note_on,144,0,2,,,,,,,,1,,,55,108
132480,note_on,144,0,1,,,,,,,,0,,,71,108
132480,note_on,0,0,1,,,,,,,,0,,,79,108
132528,note_on,0,0,1,,,,,,,,0,,,79,0
132528,note_on,48,0,2,,,,,,,,1,,,55,0
132528,note_on,48,0,1,,,,,,,,0,,,71,0
132864,note_on,336,0,1,,,,,,,,0,,,79,45
133248,note_on,384,0,1,,,,,,,,0,,,79,0
133248,note_on,0,0,1,,,,,,,,0,,,78,45
133248,note_on,0,0,1,,,,,,,,0,,,84,45
133248,note_on,720,0,2,,,,,,,,1,,,57,45
133584,note_on,0,0,1,,,,,,,,0,,,84,0
133584,note_on,336,0,1,,,,,,,,0,,,78,0
133632,note_on,0,0,1,,,,,,,,0,,,83,45
133632,note_on,48,0,1,,,,,,,,0,,,79,45
133632,note_on,0,0,2,,,,,,,,1,,,55,45
133632,note_on,384,0,2,,,,,,,,1,,,57,0
133664,note_on,32,0,2,,,,,,,,1,,,55,0
133728,note_on,0,0,1,,,,,,,,0,,,86,45
133728,note_on,96,0,1,,,,,,,,0,,,79,0
133728,note_on,0,0,1,,,,,,,,0,,,83,0
133824,note_on,160,0,2,,,,,,,,1,,,50,45
133824,note_on,96,0,1,,,,,,,,0,,,86,0
133824,note_on,0,0,1,,,,,,,,0,,,78,45
133824,note_on,0,0,1,,,,,,,,0,,,84,45
133856,note_on,32,0,2,,,,,,,,1,,,50,0
133920,note_on,0,0,1,,,,,,,,0,,,84,0
133920,note_on,0,0,1,,,,,,,,0,,,81,45
133920,note_on,96,0,1,,,,,,,,0,,,78,0
134016,note_on,0,0,1,,,,,,,,0,,,79,45
134016,note_on,96,0,1,,,,,,,,0,,,81,0
134016,note_on,160,0,2,,,,,,,,1,,,47,45
134048,note_on,32,0,2,,,,,,,,1,,,47,0
134176,note_on,160,0,1,,,,,,,,0,,,79,0
134208,note_on,160,0,2,,,,,,,,1,,,43,45
134240,note_on,32,0,2,,,,,,,,1,,,43,0
134400,note_on,224,0,1,,,,,,,,0,,,67,45
134784,note_on,544,0,2,,,,,,,,1,,,59,45
134784,note_on,0,0,1,,,,,,,,0,,,77,45
134784,note_on,0,0,1,,,,,,,,0,,,74,45
134784,note_on,384,0,1,,,,,,,,0,,,67,0
135120,note_on,0,0,1,,,,,,,,0,,,77,0
135120,note_on,336,0,1,,,,,,,,0,,,74,0
135168,note_on,48,0,1,,,,,,,,0,,,72,45
135168,note_on,0,0,1,,,,,,,,0,,,76,45
135168,note_on,384,0,2,,,,,,,,1,,,59,0
135168,note_on,0,0,2,,,,,,,,1,,,60,45
135200,note_on,32,0,2,,,,,,,,1,,,60,0
135264,note_on,0,0,1,,,,,,,,0,,,76,0
135264,note_on,96,0,1,,,,,,,,0,,,72,0
135264,note_on,0,0,1,,,,,,,,0,,,79,45
135360,note_on,96,0,1,,,,,,,,0,,,79,0
135360,note_on,0,0,1,,,,,,,,0,,,71,45
135360,note_on,0,0,1,,,,,,,,0,,,77,45
135360,note_on,160,0,2,,,,,,,,1,,,55,45
135392,note_on,32,0,2,,,,,,,,1,,,55,0
135456,note_on,0,0,1,,,,,,,,0,,,77,0
135456,note_on,0,0,1,,,,,,,,0,,,74,45
135456,note_on,96,0,1,,,,,,,,0,,,71,0
135552,note_on,0,0,1,,,,,,,,0,,,72,45
135552,note_on,96,0,1,,,,,,,,0,,,74,0
135552,note_on,160,0,2,,,,,,,,1,,,52,45
135584,note_on,32,0,2,,,,,,,,1,,,52,0
135712,note_on,160,0,1,,,,,,,,0,,,72,0
135744,note_on,160,0,2,,,,,,,,1,,,48,45
135776,note_on,32,0,2,,,,,,,,1,,,48,0
135936,note_on,224,0,1,,,,,,,,0,,,74,45
136032,note_on,96,0,1,,,,,,,,0,,,74,0
136032,note_on,0,0,1,,,,,,,,0,,,73,45
136128,note_on,0,0,1,,,,,,,,0,,,74,45
136128,note_on,96,0,1,,,,,,,,0,,,73,0
136224,note_on,0,0,1,,,,,,,,0,,,76,45
136224,note_on,96,0,1,,,,,,,,0,,,74,0
136318,note_on,94,0,1,,,,,,,,0,,,76,0
136320,note_on,2,0,1,,,,,,,,0,,,77,50
136320,note_on,544,0,2,,,,,,,,1,,,53,45
136320,note_on,0,0,2,,,,,,,,1,,,62,45
136416,note_on,0,0,1,,,,,,,,0,,,76,55
136416,note_on,96,0,1,,,,,,,,0,,,77,0
136512,note_on,0,0,1,,,,,,,,0,,,77,60
136512,note_on,96,0,1,,,,,,,,0,,,76,0
136608,note_on,96,0,1,,,,,,,,0,,,77,0
136608,note_on,0,0,1,,,,,,,,0,,,79,65
136702,note_on,94,0,1,,,,,,,,0,,,79,0
136704,note_on,2,0,1,,,,,,,,0,,,80,70
136800,note_on,96,0,1,,,,,,,,0,,,80,0
136800,note_on,0,0,1,,,,,,,,0,,,81,75
136896,note_on,96,0,1,,,,,,,,0,,,81,0
136896,note_on,0,0,1,,,,,,,,0,,,82,80
136992,note_on,96,0,1,,,,,,,,0,,,82,0
136992,note_on,0,0,1,,,,,,,,0,,,83,86
137086,note_on,94,0,1,,,,,,,,0,,,83,0
137088,note_on,0,0,2,,,,,,,,1,,,62,0
137088,note_on,768,0,2,,,,,,,,1,,,53,0
137088,note_on,0,0,2,,,,,,,,1,,,60,92
137088,note_on,0,0,2,,,,,,,,1,,,52,92
137088,note_on,2,0,1,,,,,,,,0,,,84,92
137184,note_on,96,0,1,,,,,,,,0,,,84,0
137184,note_on,0,0,1,,,,,,,,0,,,79,81
137248,note_on,0,0,2,,,,,,,,1,,,60,0
137248,note_on,160,0,2,,,,,,,,1,,,52,0
137280,note_on,96,0,1,,,,,,,,0,,,79,0
137280,note_on,0,0,1,,,,,,,,0,,,77,69
137376,note_on,96,0,1,,,,,,,,0,,,77,0
137376,note_on,0,0,1,,,,,,,,0,,,76,57
137470,note_on,94,0,1,,,,,,,,0,,,76,0
137472,note_on,2,0,1,,,,,,,,0,,,74,45
137472,note_on,224,0,2,,,,,,,,1,,,53,45
137520,note_on,48,0,2,,,,,,,,1,,,53,0
137568,note_on,96,0,1,,,,,,,,0,,,74,0
137568,note_on,0,0,1,,,,,,,,0,,,73,48
137664,note_on,144,0,2,,,,,,,,1,,,41,52
137664,note_on,0,0,1,,,,,,,,0,,,74,52
137664,note_on,96,0,1,,,,,,,,0,,,73,0
137712,note_on,48,0,2,,,,,,,,1,,,41,0
137760,note_on,0,0,1,,,,,,,,0,,,76,56
137760,note_on,96,0,1,,,,,,,,0,,,74,0
137854,note_on,94,0,1,,,,,,,,0,,,76,0
137856,note_on,0,0,2,,,,,,,,1,,,62,60
137856,note_on,2,0,1,,,,,,,,0,,,77,60
137856,note_on,144,0,2,,,,,,,,1,,,53,60
137952,note_on,0,0,1,,,,,,,,0,,,76,64
137952,note_on,96,0,1,,,,,,,,0,,,77,0
138048,note_on,96,0,1,,,,,,,,0,,,76,0
138048,note_on,0,0,1,,,,,,,,0,,,77,68
138144,note_on,0,0,1,,,,,,,,0,,,79,72
138144,note_on,96,0,1,,,,,,,,0,,,77,0
138238,note_on,94,0,1,,,,,,,,0,,,79,0
138240,note_on,2,0,1,,,,,,,,0,,,81,76
138336,note_on,96,0,1,,,,,,,,0,,,81,0
138336,note_on,0,0,1,,,,,,,,0,,,80,80
138432,note_on,96,0,1,,,,,,,,0,,,80,0
138432,note_on,0,0,1,,,,,,,,0,,,81,84
138528,note_on,96,0,1,,,,,,,,0,,,81,0
138528,note_on,0,0,1,,,,,,,,0,,,83,88
138576,note_on,720,0,2,,,,,,,,1,,,53,0
138576,note_on,0,0,2,,,,,,,,1,,,62,0
138622,note_on,94,0,1,,,,,,,,0,,,83,0
138624,note_on,2,0,1,,,,,,,,0,,,84,92
138624,note_on,48,0,2,,,,,,,,1,,,52,92
138720,note_on,96,0,1,,,,,,,,0,,,84,0
138720,note_on,96,0,2,,,,,,,,1,,,52,0
138720,note_on,0,0,1,,,,,,,,0,,,79,81
138720,note_on,0,0,2,,,,,,,,1,,,64,92
138816,note_on,0,0,2,,,,,,,,1,,,62,77
138816,note_on,96,0,1,,,,,,,,0,,,79,0
138816,note_on,96,0,2,,,,,,,,1,,,64,0
138816,note_on,0,0,1,,,,,,,,0,,,77,69
138912,note_on,96,0,2,,,,,,,,1,,,62,0
138912,note_on,0,0,1,,,,,,,,0,,,76,57
138912,note_on,96,0,1,,,,,,,,0,,,77,0
138912,note_on,0,0,2,,,,,,,,1,,,60,61
139006,note_on,94,0,2,,,,,,,,1,,,60,0
139006,note_on,94,0,1,,,,,,,,0,,,76,0
139008,note_on,2,0,2,,,,,,,,1,,,53,45
139008,note_on,0,0,2,,,,,,,,1,,,57,45
139008,note_on,2,0,1,,,,,,,,0,,,76,45
139104,note_on,96,0,1,,,,,,,,0,,,76,0
139104,note_on,0,0,1,,,,,,,,0,,,74,45
139200,note_on,192,0,2,,,,,,,,1,,,53,0
139200,note_on,96,0,1,,,,,,,,0,,,74,0
139200,note_on,0,0,1,,,,,,,,0,,,81,45
139200,note_on,0,0,2,,,,,,,,1,,,50,45
139200,note_on,0,0,2,,,,,,,,1,,,57,0
139296,note_on,96,0,1,,,,,,,,0,,,81,0
139296,note_on,0,0,1,,,,,,,,0,,,77,45
139360,note_on,160,0,2,,,,,,,,1,,,50,0
139390,note_on,94,0,1,,,,,,,,0,,,77,0
139392,note_on,32,0,2,,,,,,,,1,,,55,45
139392,note_on,2,0,1,,,,,,,,0,,,76,45
139440,note_on,48,0,2,,,,,,,,1,,,55,0
139488,note_on,0,0,1,,,,,,,,0,,,79,45
139488,note_on,96,0,1,,,,,,,,0,,,76,0
139584,note_on,144,0,2,,,,,,,,1,,,43,45
139584,note_on,0,0,1,,,,,,,,0,,,77,45
139584,note_on,96,0,1,,,,,,,,0,,,79,0
139632,note_on,48,0,2,,,,,,,,1,,,43,0
139680,note_on,0,0,1,,,,,,,,0,,,74,45
139680,note_on,96,0,1,,,,,,,,0,,,77,0
139774,note_on,94,0,1,,,,,,,,0,,,74,0
139776,note_on,144,0,2,,,,,,,,1,,,48,45
139776,note_on,2,0,1,,,,,,,,0,,,72,45
139936,note_on,160,0,2,,,,,,,,1,,,48,0
139936,note_on,160,0,1,,,,,,,,0,,,72,0
140064,note_on,0,0,1,,,,,,,,0,,,76,92
140064,note_on,128,0,1,,,,,,,,0,,,67,92
140064,note_on,128,0,2,,,,,,,,1,,,48,92
140096,note_on,32,0,1,,,,,,,,0,,,67,0
140096,note_on,32,0,2,,,,,,,,1,,,48,0
140096,note_on,0,0,1,,,,,,,,0,,,76,0
140160,note_on,0,0,1,,,,,,,,0,,,76,92
140160,note_on,64,0,2,,,,,,,,1,,,48,92
140160,note_on,64,0,1,,,,,,,,0,,,67,92
140192,note_on,32,0,2,,,,,,,,1,,,48,0
140192,note_on,0,0,1,,,,,,,,0,,,76,0
140192,note_on,32,0,1,,,,,,,,0,,,67,0
140256,note_on,0,0,1,,,,,,,,0,,,76,92
140256,note_on,64,0,1,,,,,,,,0,,,67,92
140256,note_on,64,0,2,,,,,,,,1,,,48,92
140288,note_on,32,0,2,,,,,,,,1,,,48,0
140288,note_on,32,0,1,,,,,,,,0,,,67,0
140288,note_on,0,0,1,,,,,,,,0,,,76,0
140352,note_on,64,0,1,,,,,,,,0,,,67,92
140352,note_on,0,0,1,,,,,,,,0,,,76,92
140352,note_on,64,0,2,,,,,,,,1,,,48,92
140384,note_on,0,0,1,,,,,,,,0,,,76,0
140384,note_on,32,0,2,,,,,,,,1,,,48,0
140384,note_on,32,0,1,,,,,,,,0,,,67,0
140448,note_on,64,0,2,,,,,,,,1,,,48,92
140448,note_on,0,0,1,,,,,,,,0,,,76,92
140448,note_on,64,0,1,,,,,,,,0,,,67,92
140480,note_on,32,0,2,,,,,,,,1,,,48,0
140480,note_on,0,0,1,,,,,,,,0,,,76,0
140480,note_on,32,0,1,,,,,,,,0,,,67,0
140544,note_on,64,0,2,,,,,,,,1,,,47,92
140544,note_on,64,0,1,,,,,,,,0,,,67,92
140544,note_on,0,0,1,,,,,,,,0,,,79,92
140640,note_on,0,0,1,,,,,,,,0,,,78,92
140640,note_on,96,0,1,,,,,,,,0,,,67,0
140640,note_on,0,0,1,,,,,,,,0,,,79,0
140704,note_on,160,0,2,,,,,,,,1,,,47,0
140736,note_on,0,0,1,,,,,,,,0,,,77,92
140736,note_on,96,0,1,,,,,,,,0,,,78,0
140830,note_on,94,0,1,,,,,,,,0,,,77,0
140832,note_on,2,0,1,,,,,,,,0,,,83,45
140864,note_on,32,0,1,,,,,,,,0,,,83,0
140928,note_on,224,0,2,,,,,,,,1,,,55,45
140928,note_on,0,0,1,,,,,,,,0,,,83,45
140928,note_on,64,0,1,,,,,,,,0,,,77,45
140960,note_on,32,0,2,,,,,,,,1,,,55,0
140960,note_on,32,0,1,,,,,,,,0,,,77,0
140960,note_on,0,0,1,,,,,,,,0,,,83,0
141024,note_on,64,0,1,,,,,,,,0,,,77,45
141024,note_on,0,0,1,,,,,,,,0,,,83,45
141024,note_on,64,0,2,,,,,,,,1,,,55,45
141056,note_on,32,0,1,,,,,,,,0,,,77,0
141056,note_on,0,0,1,,,,,,,,0,,,83,0
141056,note_on,32,0,2,,,,,,,,1,,,55,0
141120,note_on,64,0,2,,,,,,,,1,,,55,45
141120,note_on,0,0,1,,,,,,,,0,,,83,45
141120,note_on,64,0,1,,,,,,,,0,,,77,45
141152,note_on,0,0,1,,,,,,,,0,,,83,0
141152,note_on,32,0,2,,,,,,,,1,,,55,0
141152,note_on,32,0,1,,,,,,,,0,,,77,0
141216,note_on,64,0,2,,,,,,,,1,,,55,45
141216,note_on,0,0,1,,,,,,,,0,,,83,45
141216,note_on,64,0,1,,,,,,,,0,,,77,45
141248,note_on,0,0,1,,,,,,,,0,,,83,0
141248,note_on,32,0,2,,,,,,,,1,,,55,0
141248,note_on,32,0,1,,,,,,,,0,,,77,0
141312,note_on,64,0,1,,,,,,,,0,,,76,45
141312,note_on,64,0,2,,,,,,,,1,,,48,45
141312,note_on,0,0,1,,,,,,,,0,,,83,45
141408,note_on,96,0,1,,,,,,,,0,,,83,0
141408,note_on,0,0,1,,,,,,,,0,,,84,45
141472,note_on,160,0,2,,,,,,,,1,,,48,0
141472,note_on,64,0,1,,,,,,,,0,,,76,0
141504,note_on,32,0,1,,,,,,,,0,,,84,0
141504,note_on,0,0,1,,,,,,,,0,,,79,45
141598,note_on,94,0,1,,,,,,,,0,,,79,0
141600,note_on,0,0,1,,,,,,,,0,,,76,92
141600,note_on,2,0,1,,,,,,,,0,,,67,92
141600,note_on,128,0,2,,,,,,,,1,,,48,92
141632,note_on,0,0,1,,,,,,,,0,,,76,0
141632,note_on,32,0,2,,,,,,,,1,,,48,0
141632,note_on,32,0,1,,,,,,,,0,,,67,0
141696,note_on,64,0,2,,,,,,,,1,,,48,92
141696,note_on,64,0,1,,,,,,,,0,,,67,92
141696,note_on,0,0,1,,,,,,,,0,,,76,92
141728,note_on,32,0,1,,,,,,,,0,,,67,0
141728,note_on,0,0,1,,,,,,,,0,,,76,0
141728,note_on,32,0,2,,,,,,,,1,,,48,0
141792,note_on,64,0,2,,,,,,,,1,,,48,92
141792,note_on,64,0,1,,,,,,,,0,,,67,92
141792,note_on,0,0,1,,,,,,,,0,,,76,92
141824,note_on,32,0,2,,,,,,,,1,,,48,0
141824,note_on,0,0,1,,,,,,,,0,,,76,0
141824,note_on,32,0,1,,,,,,,,0,,,67,0
141888,note_on,64,0,2,,,,,,,,1,,,48,92
141888,note_on,64,0,1,,,,,,,,0,,,67,92
141888,note_on,0,0,1,,,,,,,,0,,,76,92
141920,note_on,0,0,1,,,,,,,,0,,,76,0
141920,note_on,32,0,1,,,,,,,,0,,,67,0
141920,note_on,32,0,2,,,,,,,,1,,,48,0
141984,note_on,64,0,2,,,,,,,,1,,,48,92
141984,note_on,64,0,1,,,,,,,,0,,,67,92
141984,note_on,0,0,1,,,,,,,,0,,,76,92
142016,note_on,32,0,2,,,,,,,,1,,,48,0
142016,note_on,32,0,1,,,,,,,,0,,,67,0
142016,note_on,0,0,1,,,,,,,,0,,,76,0
142080,note_on,64,0,2,,,,,,,,1,,,47,92
142080,note_on,0,0,1,,,,,,,,0,,,79,92
142080,note_on,64,0,1,,,,,,,,0,,,67,92
142174,note_on,94,0,1,,,,,,,,0,,,67,0
142174,note_on,0,0,1,,,,,,,,0,,,79,0
142176,note_on,2,0,1,,,,,,,,0,,,78,92
142240,note_on,160,0,2,,,,,,,,1,,,47,0
142270,note_on,94,0,1,,,,,,,,0,,,78,0
142272,note_on,2,0,1,,,,,,,,0,,,77,92
142366,note_on,94,0,1,,,,,,,,0,,,77,0
142368,note_on,2,0,1,,,,,,,,0,,,74,45
142400,note_on,32,0,1,,,,,,,,0,,,74,0
142464,note_on,0,0,2,,,,,,,,1,,,65,45
142464,note_on,64,0,1,,,,,,,,0,,,71,45
142464,note_on,224,0,2,,,,,,,,1,,,55,45
142496,note_on,32,0,2,,,,,,,,1,,,55,0
142496,note_on,0,0,2,,,,,,,,1,,,65,0
142496,note_on,32,0,1,,,,,,,,0,,,71,0
142560,note_on,0,0,2,,,,,,,,1,,,65,45
142560,note_on,64,0,2,,,,,,,,1,,,55,45
142560,note_on,64,0,1,,,,,,,,0,,,71,45
142592,note_on,32,0,1,,,,,,,,0,,,71,0
142592,note_on,0,0,2,,,,,,,,1,,,65,0
142592,note_on,32,0,2,,,,,,,,1,,,55,0
142656,note_on,0,0,2,,,,,,,,1,,,65,45
142656,note_on,64,0,2,,,,,,,,1,,,55,45
142656,note_on,64,0,1,,,,,,,,0,,,71,45
142688,note_on,32,0,1,,,,,,,,0,,,71,0
142688,note_on,0,0,2,,,,,,,,1,,,65,0
142688,note_on,32,0,2,,,,,,,,1,,,55,0
142752,note_on,64,0,1,,,,,,,,0,,,71,45
142752,note_on,0,0,2,,,,,,,,1,,,65,45
142752,note_on,64,0,2,,,,,,,,1,,,55,45
142784,note_on,32,0,1,,,,,,,,0,,,71,0
142784,note_on,0,0,2,,,,,,,,1,,,65,0
142784,note_on,32,0,2,,,,,,,,1,,,55,0
142848,note_on,64,0,2,,,,,,,,1,,,60,45
142848,note_on,64,0,1,,,,,,,,0,,,64,45
142848,note_on,0,0,1,,,,,,,,0,,,72,45
142880,note_on,32,0,2,,,,,,,,1,,,60,0
142944,note_on,96,0,1,,,,,,,,0,,,64,0
142944,note_on,0,0,1,,,,,,,,0,,,72,0
142944,note_on,0,0,1,,,,,,,,0,,,76,45
143040,note_on,0,0,1,,,,,,,,0,,,74,45
143040,note_on,160,0,2,,,,,,,,1,,,55,45
143040,note_on,96,0,1,,,,,,,,0,,,76,0
143040,note_on,0,0,1,,,,,,,,0,,,65,45
143072,note_on,32,0,2,,,,,,,,1,,,55,0
143136,note_on,0,0,1,,,,,,,,0,,,74,0
143136,note_on,96,0,1,,,,,,,,0,,,65,0
143136,note_on,0,0,1,,,,,,,,0,,,71,45
143230,note_on,94,0,1,,,,,,,,0,,,71,0
143232,note_on,160,0,2,,,,,,,,1,,,60,45
143232,note_on,2,0,1,,,,,,,,0,,,64,45
143232,note_on,0,0,1,,,,,,,,0,,,72,45
143264,note_on,32,0,2,,,,,,,,1,,,60,0
143328,note_on,96,0,1,,,,,,,,0,,,64,0
143328,note_on,0,0,1,,,,,,,,0,,,76,45
143328,note_on,0,0,1,,,,,,,,0,,,72,0
143424,note_on,0,0,1,,,,,,,,0,,,74,45
143424,note_on,0,0,1,,,,,,,,0,,,65,45
143424,note_on,96,0,1,,,,,,,,0,,,76,0
143424,note_on,160,0,2,,,,,,,,1,,,55,45
143456,note_on,32,0,2,,,,,,,,1,,,55,0
143520,note_on,0,0,1,,,,,,,,0,,,74,0
143520,note_on,0,0,1,,,,,,,,0,,,71,45
143520,note_on,96,0,1,,,,,,,,0,,,65,0
143614,note_on,94,0,1,,,,,,,,0,,,71,0
143616,note_on,160,0,2,,,,,,,,1,,,48,45
143616,note_on,0,0,1,,,,,,,,0,,,72,45
143616,note_on,2,0,1,,,,,,,,0,,,64,45
143648,note_on,32,0,2,,,,,,,,1,,,48,0
143648,note_on,32,0,1,,,,,,,,0,,,64,0
143648,note_on,0,0,1,,,,,,,,0,,,72,0
143808,note_on,160,0,2,,,,,,,,1,,,60,45
143808,note_on,160,0,1,,,,,,,,0,,,67,45
143808,note_on,0,0,1,,,,,,,,0,,,76,45
143840,note_on,32,0,1,,,,,,,,0,,,67,0
143840,note_on,0,0,1,,,,,,,,0,,,76,0
143840,note_on,32,0,2,,,,,,,,1,,,60,0
144000,note_on,160,0,2,,,,,,,,1,,,48,45
144000,note_on,160,0,1,,,,,,,,0,,,64,45
144000,note_on,0,0,1,,,,,,,,0,,,72,45
144032,note_on,0,0,1,,,,,,,,0,,,72,0
144032,end_of_track,0,1,1,,,,,,,,,,,,
144032,note_on,32,0,1,,,,,,,,0,,,64,0
144032,note_on,32,0,2,,,,,,,,1,,,48,0
144032,end_of_track,0,1,2,,,,,,,,,,,,
