,note,step,duration,channel,velocity
0,68.0,231,132,0.0,73.0
1,67.0,126,132,0.0,73.0
2,65.0,116,132,0.0,79.0
3,62.0,126,132,0.0,72.0
4,63.0,118,132,0.0,72.0
5,77.0,0,960,0.0,94.0
6,83.0,0,960,0.0,103.0
7,71.0,0,960,0.0,94.0
8,74.0,0,960,0.0,94.0
9,79.0,0,960,0.0,94.0
10,62.0,119,132,0.0,71.0
11,59.0,118,132,0.0,79.0
12,55.0,126,132,0.0,72.0
13,56.0,120,132,0.0,72.0
14,55.0,119,132,0.0,70.0
15,53.0,113,132,0.0,79.0
16,50.0,128,132,0.0,71.0
17,51.0,118,132,0.0,71.0
18,50.0,118,132,0.0,68.0
19,47.0,118,132,0.0,79.0
20,43.0,117,132,0.0,71.0
21,44.0,121,132,0.0,71.0
22,43.0,123,132,0.0,69.0
23,41.0,117,132,0.0,79.0
24,38.0,120,132,0.0,71.0
25,39.0,129,132,0.0,71.0
26,38.0,114,132,0.0,68.0
27,36.0,117,158,0.0,76.0
28,31.0,119,158,0.0,69.0
29,36.0,120,158,0.0,70.0
30,31.0,124,158,0.0,68.0
31,36.0,0,158,0.0,74.0
32,31.0,121,158,0.0,71.0
33,80.0,0,360,0.0,102.0
34,68.0,121,360,0.0,93.0
35,75.0,0,360,0.0,93.0
36,77.0,0,360,0.0,93.0
37,36.0,120,158,0.0,75.0
38,67.0,0,120,0.0,87.0
39,79.0,0,0,0.0,96.0
40,31.0,1,132,0.0,74.0
41,35.0,115,120,0.0,79.0
42,68.0,242,132,0.0,71.0
43,67.0,117,132,0.0,70.0
44,65.0,119,132,0.0,79.0
45,62.0,117,132,0.0,72.0
46,63.0,126,132,0.0,72.0
47,74.0,0,960,0.0,96.0
48,86.0,4,960,0.0,106.0
49,77.0,0,960,0.0,96.0
50,62.0,122,132,0.0,70.0
51,59.0,120,132,0.0,79.0
52,55.0,117,132,0.0,71.0
53,56.0,118,132,0.0,71.0
54,55.0,126,132,0.0,68.0
55,53.0,118,132,0.0,79.0
56,50.0,123,132,0.0,72.0
57,51.0,120,132,0.0,72.0
58,50.0,115,132,0.0,70.0
59,47.0,116,132,0.0,79.0
60,43.0,124,132,0.0,71.0
61,44.0,117,132,0.0,71.0
62,43.0,127,132,0.0,70.0
63,41.0,113,132,0.0,79.0
64,38.0,126,132,0.0,71.0
65,39.0,121,132,0.0,71.0
66,38.0,121,132,0.0,69.0
67,36.0,120,158,0.0,79.0
68,31.0,116,158,0.0,72.0
69,36.0,118,158,0.0,73.0
70,31.0,118,158,0.0,73.0
71,36.0,121,158,0.0,76.0
72,31.0,124,158,0.0,76.0
73,77.0,2,360,0.0,92.0
74,80.0,0,360,0.0,101.0
75,68.0,0,360,0.0,92.0
76,75.0,0,360,0.0,92.0
77,36.0,111,158,0.0,79.0
78,67.0,0,120,0.0,88.0
79,79.0,0,0,0.0,96.0
80,31.0,124,132,0.0,76.0
81,35.0,116,120,0.0,79.0
82,86.0,4,240,0.0,96.0
83,77.0,0,240,0.0,96.0
84,89.0,0,240,0.0,106.0
85,92.0,0,132,0.0,87.0
86,80.0,242,132,0.0,79.0
87,91.0,113,132,0.0,80.0
88,79.0,8,132,0.0,71.0
89,89.0,112,132,0.0,87.0
90,77.0,7,132,0.0,79.0
91,74.0,118,132,0.0,71.0
92,86.0,5,132,0.0,77.0
93,75.0,111,132,0.0,71.0
94,87.0,2,132,0.0,77.0
95,86.0,120,132,0.0,76.0
96,74.0,1,132,0.0,70.0
97,83.0,122,132,0.0,87.0
98,71.0,3,132,0.0,79.0
99,67.0,111,132,0.0,70.0
100,79.0,7,132,0.0,77.0
101,68.0,118,132,0.0,70.0
102,80.0,4,132,0.0,77.0
103,67.0,118,132,0.0,69.0
104,79.0,0,132,0.0,76.0
105,65.0,117,132,0.0,79.0
106,77.0,1,132,0.0,87.0
107,62.0,116,132,0.0,71.0
108,74.0,1,132,0.0,77.0
109,75.0,126,132,0.0,77.0
110,63.0,2,132,0.0,71.0
111,74.0,115,132,0.0,76.0
112,62.0,5,132,0.0,69.0
113,71.0,115,132,0.0,87.0
114,59.0,1,132,0.0,79.0
115,55.0,117,132,0.0,71.0
116,67.0,7,132,0.0,77.0
117,56.0,115,132,0.0,71.0
118,68.0,3,132,0.0,77.0
119,67.0,113,132,0.0,76.0
120,55.0,3,132,0.0,69.0
121,65.0,122,132,0.0,87.0
122,53.0,3,132,0.0,79.0
123,50.0,114,132,0.0,71.0
124,62.0,1,132,0.0,77.0
125,51.0,121,132,0.0,71.0
126,63.0,3,132,0.0,77.0
127,50.0,114,132,0.0,69.0
128,62.0,4,132,0.0,76.0
129,59.0,120,132,0.0,87.0
130,47.0,4,132,0.0,79.0
131,55.0,0,132,0.0,77.0
132,43.0,113,132,0.0,71.0
133,56.0,118,132,0.0,77.0
134,44.0,7,132,0.0,71.0
135,55.0,114,132,0.0,76.0
136,43.0,4,132,0.0,69.0
137,41.0,116,132,0.0,79.0
138,53.0,2,132,0.0,87.0
139,50.0,124,132,0.0,77.0
140,38.0,0,132,0.0,71.0
141,51.0,117,132,0.0,77.0
142,39.0,4,132,0.0,71.0
143,38.0,115,132,0.0,70.0
144,50.0,6,132,0.0,76.0
145,36.0,115,120,0.0,62.0
146,48.0,3,120,0.0,69.0
147,47.0,115,120,0.0,69.0
148,35.0,6,120,0.0,62.0
149,43.0,111,120,0.0,67.0
150,55.0,1,120,0.0,73.0
151,53.0,126,132,0.0,72.0
152,41.0,3,132,0.0,66.0
153,51.0,115,132,0.0,71.0
154,39.0,1,132,0.0,65.0
155,50.0,114,132,0.0,70.0
156,38.0,0,132,0.0,65.0
157,39.0,125,132,0.0,64.0
158,51.0,2,132,0.0,69.0
159,38.0,115,132,0.0,63.0
160,50.0,3,132,0.0,69.0
161,48.0,116,132,0.0,69.0
162,36.0,8,132,0.0,63.0
163,35.0,117,120,0.0,62.0
164,47.0,4,120,0.0,68.0
165,58.0,111,132,0.0,76.0
166,46.0,6,132,0.0,70.0
167,44.0,115,132,0.0,68.0
168,56.0,7,132,0.0,74.0
169,55.0,118,132,0.0,76.0
170,43.0,2,132,0.0,69.0
171,41.0,112,132,0.0,69.0
172,53.0,2,132,0.0,74.0
173,43.0,118,132,0.0,68.0
174,55.0,3,132,0.0,74.0
175,53.0,116,132,0.0,73.0
176,41.0,8,132,0.0,68.0
177,39.0,115,132,0.0,67.0
178,51.0,7,132,0.0,73.0
179,50.0,117,120,0.0,73.0
180,38.0,3,120,0.0,67.0
181,63.0,111,132,0.0,82.0
182,51.0,2,132,0.0,76.0
183,50.0,120,132,0.0,73.0
184,62.0,6,132,0.0,83.0
185,48.0,112,132,0.0,74.0
186,60.0,8,132,0.0,84.0
187,59.0,117,132,0.0,85.0
188,47.0,2,132,0.0,75.0
189,60.0,114,132,0.0,85.0
190,48.0,7,132,0.0,76.0
191,59.0,112,132,0.0,87.0
192,47.0,6,132,0.0,77.0
193,44.0,119,132,0.0,79.0
194,56.0,2,132,0.0,88.0
195,55.0,117,132,0.0,89.0
196,43.0,3,132,0.0,80.0
197,56.0,113,132,0.0,90.0
198,44.0,1,132,0.0,81.0
199,43.0,119,132,0.0,83.0
200,55.0,4,132,0.0,89.0
201,41.0,115,132,0.0,83.0
202,53.0,8,132,0.0,92.0
203,39.0,112,132,0.0,85.0
204,51.0,4,132,0.0,94.0
205,53.0,119,132,0.0,97.0
206,41.0,5,132,0.0,88.0
207,51.0,118,132,0.0,102.0
208,39.0,3,132,0.0,90.0
209,36.0,112,120,0.0,92.0
210,48.0,114,2,0.0,50.0
211,43.0,124,132,0.0,49.0
212,50.0,121,132,0.0,52.0
213,51.0,123,132,0.0,54.0
214,55.0,124,132,0.0,55.0
215,60.0,119,132,0.0,57.0
216,62.0,118,132,0.0,59.0
217,63.0,115,132,0.0,60.0
218,62.0,124,132,0.0,59.0
219,60.0,118,132,0.0,57.0
220,55.0,125,132,0.0,57.0
221,51.0,116,132,0.0,57.0
222,50.0,121,132,0.0,56.0
223,48.0,118,132,0.0,55.0
224,43.0,124,132,0.0,54.0
225,36.0,119,132,0.0,56.0
226,43.0,121,132,0.0,59.0
227,48.0,115,132,0.0,62.0
228,50.0,124,132,0.0,63.0
229,51.0,125,132,0.0,68.0
230,50.0,117,132,0.0,66.0
231,48.0,123,132,0.0,63.0
232,43.0,112,120,0.0,59.0
233,36.0,121,132,0.0,56.0
234,43.0,118,132,0.0,59.0
235,48.0,129,132,0.0,63.0
236,72.0,115,130,0.0,87.0
237,84.0,0,130,0.0,95.0
238,50.0,0,132,0.0,65.0
239,51.0,5,132,0.0,67.0
240,50.0,111,132,0.0,65.0
241,86.0,120,370,0.0,102.0
242,74.0,0,370,0.0,93.0
243,48.0,125,132,0.0,63.0
244,43.0,115,120,0.0,61.0
245,87.0,4,120,0.0,107.0
246,75.0,0,120,0.0,97.0
247,36.0,119,132,0.0,59.0
248,43.0,125,132,0.0,46.0
249,48.0,110,132,0.0,47.0
250,50.0,129,132,0.0,49.0
251,51.0,114,132,0.0,51.0
252,55.0,119,132,0.0,52.0
253,60.0,126,132,0.0,54.0
254,75.0,1,960,0.0,104.0
255,87.0,0,960,0.0,114.0
256,62.0,116,132,0.0,55.0
257,63.0,118,132,0.0,57.0
258,62.0,124,132,0.0,55.0
259,60.0,120,132,0.0,54.0
260,67.0,0,0,0.0,47.0
261,75.0,120,0,0.0,47.0
262,79.0,0,0,0.0,47.0
263,72.0,0,0,0.0,47.0
264,55.0,118,132,0.0,52.0
265,51.0,0,132,0.0,50.0
266,50.0,121,132,0.0,49.0
267,75.0,0,0,0.0,54.0
268,72.0,0,0,0.0,54.0
269,79.0,119,0,0.0,54.0
270,48.0,120,132,0.0,47.0
271,67.0,0,120,0.0,54.0
272,43.0,4,120,0.0,43.0
273,36.0,4,132,0.0,33.0
274,43.0,117,132,0.0,36.0
275,48.0,121,132,0.0,39.0
276,50.0,119,132,0.0,40.0
277,51.0,118,132,0.0,45.0
278,50.0,118,132,0.0,46.0
279,48.0,126,132,0.0,45.0
280,68.0,0,960,0.0,55.0
281,80.0,116,960,0.0,55.0
282,72.0,0,960,0.0,55.0
283,75.0,0,960,0.0,55.0
284,43.0,118,120,0.0,43.0
285,36.0,4,132,0.0,40.0
286,72.0,0,240,0.0,47.0
287,67.0,0,240,0.0,47.0
288,79.0,119,240,0.0,47.0
289,75.0,0,240,0.0,47.0
290,43.0,113,132,0.0,45.0
291,48.0,120,132,0.0,50.0
292,84.0,0,130,0.0,95.0
293,72.0,123,130,0.0,87.0
294,50.0,1,132,0.0,54.0
295,51.0,2,132,0.0,59.0
296,50.0,119,132,0.0,57.0
297,74.0,0,370,0.0,92.0
298,86.0,119,370,0.0,101.0
299,48.0,117,132,0.0,57.0
300,87.0,122,120,0.0,107.0
301,75.0,0,120,0.0,97.0
302,43.0,0,120,0.0,55.0
303,36.0,115,132,0.0,53.0
304,43.0,123,132,0.0,51.0
305,48.0,118,132,0.0,53.0
306,50.0,120,132,0.0,54.0
307,51.0,121,132,0.0,56.0
308,55.0,121,132,0.0,57.0
309,60.0,113,132,0.0,60.0
310,87.0,0,960,0.0,113.0
311,75.0,5,960,0.0,103.0
312,62.0,125,132,0.0,62.0
313,63.0,123,132,0.0,64.0
314,62.0,121,132,0.0,61.0
315,60.0,116,132,0.0,59.0
316,79.0,0,0,0.0,76.0
317,67.0,5,0,0.0,69.0
318,72.0,0,120,0.0,69.0
319,75.0,0,120,0.0,69.0
320,55.0,3,132,0.0,57.0
321,51.0,112,132,0.0,55.0
322,50.0,122,132,0.0,52.0
323,75.0,0,0,0.0,75.0
324,72.0,0,0,0.0,75.0
325,67.0,2,0,0.0,75.0
326,48.0,123,132,0.0,50.0
327,43.0,113,120,0.0,48.0
328,75.0,0,0,0.0,84.0
329,72.0,0,0,0.0,84.0
330,79.0,0,120,0.0,82.0
331,36.0,1,132,0.0,77.0
332,42.0,117,132,0.0,53.0
333,48.0,118,132,0.0,56.0
334,50.0,120,132,0.0,54.0
335,51.0,128,132,0.0,56.0
336,50.0,120,132,0.0,57.0
337,48.0,119,132,0.0,57.0
338,42.0,113,120,0.0,59.0
339,36.0,122,132,0.0,77.0
340,42.0,117,132,0.0,56.0
341,48.0,120,132,0.0,59.0
342,50.0,127,132,0.0,57.0
343,51.0,122,132,0.0,57.0
344,50.0,116,132,0.0,60.0
345,48.0,119,132,0.0,62.0
346,42.0,120,120,0.0,60.0
347,81.0,0,0,0.0,95.0
348,69.0,0,1920,0.0,84.0
349,35.0,119,132,0.0,70.0
350,47.0,120,132,0.0,54.0
351,74.0,0,300,0.0,95.0
352,86.0,2,300,0.0,105.0
353,50.0,120,132,0.0,57.0
354,55.0,116,132,0.0,61.0
355,62.0,122,132,0.0,61.0
356,55.0,123,132,0.0,60.0
357,50.0,115,132,0.0,59.0
358,79.0,0,480,0.0,91.0
359,74.0,0,480,0.0,83.0
360,67.0,2,480,0.0,83.0
361,47.0,126,120,0.0,61.0
362,34.0,121,132,0.0,57.0
363,46.0,119,132,0.0,59.0
364,49.0,118,132,0.0,62.0
365,67.0,0,120,0.0,66.0
366,79.0,0,120,0.0,72.0
367,73.0,0,0,0.0,81.0
368,55.0,116,132,0.0,64.0
369,61.0,5,132,0.0,67.0
370,55.0,111,132,0.0,65.0
371,73.0,0,0,0.0,65.0
372,80.0,0,360,0.0,89.0
373,68.0,120,360,0.0,81.0
374,49.0,119,132,0.0,66.0
375,79.0,125,120,0.0,71.0
376,67.0,117,0,0.0,74.0
377,46.0,3,120,0.0,65.0
378,33.0,0,132,0.0,60.0
379,72.0,0,240,0.0,74.0
380,79.0,0,250,0.0,81.0
381,45.0,121,132,0.0,62.0
382,72.0,119,120,0.0,70.0
383,84.0,0,120,0.0,76.0
384,48.0,5,132,0.0,63.0
385,53.0,110,132,0.0,65.0
386,60.0,4,132,0.0,67.0
387,53.0,118,132,0.0,60.0
388,48.0,116,132,0.0,62.0
389,45.0,118,120,0.0,60.0
390,77.0,125,480,0.0,86.0
391,72.0,0,480,0.0,77.0
392,65.0,0,480,0.0,77.0
393,32.0,124,132,0.0,57.0
394,44.0,117,132,0.0,59.0
395,48.0,121,132,0.0,59.0
396,77.0,0,120,0.0,69.0
397,72.0,0,120,0.0,63.0
398,65.0,122,120,0.0,63.0
399,53.0,5,132,0.0,56.0
400,60.0,1,132,0.0,61.0
401,53.0,121,132,0.0,57.0
402,67.0,115,360,0.0,79.0
403,72.0,0,360,0.0,79.0
404,79.0,0,360,0.0,87.0
405,48.0,114,132,0.0,55.0
406,77.0,0,120,0.0,69.0
407,72.0,0,120,0.0,63.0
408,65.0,0,120,0.0,63.0
409,44.0,124,120,0.0,51.0
410,31.0,119,132,0.0,47.0
411,43.0,120,132,0.0,47.0
412,48.0,123,132,0.0,48.0
413,47.0,117,132,0.0,47.0
414,49.0,119,132,0.0,51.0
415,48.0,123,132,0.0,53.0
416,50.0,118,132,0.0,55.0
417,49.0,121,132,0.0,54.0
418,51.0,118,132,0.0,56.0
419,50.0,116,132,0.0,55.0
420,52.0,127,132,0.0,57.0
421,51.0,114,132,0.0,57.0
422,53.0,125,132,0.0,59.0
423,52.0,123,132,0.0,60.0
424,72.0,0,1800,0.0,76.0
425,64.0,1,1800,0.0,76.0
426,76.0,0,1800,0.0,84.0
427,54.0,116,132,0.0,57.0
428,63.0,0,120,0.0,70.0
429,75.0,0,0,0.0,75.0
430,53.0,3,132,0.0,57.0
431,55.0,117,132,0.0,54.0
432,54.0,119,132,0.0,54.0
433,56.0,124,132,0.0,54.0
434,63.0,0,480,0.0,75.0
435,55.0,118,132,0.0,54.0
436,58.0,117,132,0.0,54.0
437,56.0,125,132,0.0,54.0
438,55.0,116,132,0.0,54.0
439,71.0,0,960,0.0,75.0
440,62.0,0,480,0.0,63.0
441,74.0,2,480,0.0,63.0
442,53.0,115,132,0.0,54.0
443,51.0,123,132,0.0,54.0
444,50.0,117,132,0.0,54.0
445,48.0,127,132,0.0,52.0
446,47.0,122,132,0.0,51.0
447,44.0,116,132,0.0,47.0
448,43.0,114,132,0.0,44.0
449,41.0,123,132,0.0,40.0
450,38.0,117,120,0.0,37.0
451,36.0,127,132,0.0,31.0
452,43.0,114,132,0.0,32.0
453,48.0,128,132,0.0,35.0
454,50.0,120,132,0.0,36.0
455,51.0,117,132,0.0,39.0
456,55.0,121,132,0.0,40.0
457,60.0,122,132,0.0,43.0
458,62.0,111,132,0.0,44.0
459,63.0,121,132,0.0,47.0
460,62.0,126,132,0.0,44.0
461,60.0,119,132,0.0,43.0
462,55.0,116,132,0.0,41.0
463,51.0,118,132,0.0,39.0
464,50.0,121,132,0.0,37.0
465,48.0,125,132,0.0,35.0
466,43.0,117,120,0.0,33.0
467,36.0,120,132,0.0,31.0
468,43.0,121,132,0.0,35.0
469,48.0,123,132,0.0,39.0
470,50.0,121,132,0.0,43.0
471,51.0,120,132,0.0,45.0
472,50.0,117,132,0.0,42.0
473,48.0,121,132,0.0,39.0
474,43.0,122,120,0.0,35.0
475,36.0,121,132,0.0,32.0
476,43.0,112,132,0.0,34.0
477,48.0,125,132,0.0,37.0
478,72.0,0,130,0.0,61.0
479,84.0,1,130,0.0,67.0
480,50.0,118,132,0.0,40.0
481,51.0,117,132,0.0,44.0
482,50.0,116,132,0.0,44.0
483,86.0,0,370,0.0,67.0
484,74.0,3,370,0.0,61.0
485,48.0,128,132,0.0,42.0
486,43.0,111,120,0.0,38.0
487,75.0,0,120,0.0,62.0
488,87.0,5,120,0.0,68.0
489,36.0,119,132,0.0,31.0
490,43.0,121,132,0.0,33.0
491,48.0,117,132,0.0,35.0
492,50.0,123,132,0.0,36.0
493,51.0,116,132,0.0,39.0
494,55.0,121,132,0.0,40.0
495,60.0,118,132,0.0,42.0
496,75.0,1,960,0.0,72.0
497,87.0,0,960,0.0,79.0
498,62.0,127,132,0.0,43.0
499,63.0,113,132,0.0,47.0
500,62.0,122,132,0.0,46.0
501,60.0,125,132,0.0,44.0
502,79.0,117,120,0.0,56.0
503,75.0,0,0,0.0,51.0
504,72.0,0,0,0.0,51.0
505,67.0,0,0,0.0,51.0
506,55.0,4,132,0.0,43.0
507,51.0,3,132,0.0,41.0
508,50.0,120,132,0.0,39.0
509,79.0,116,360,0.0,56.0
510,72.0,0,0,0.0,51.0
511,48.0,118,132,0.0,38.0
512,43.0,117,120,0.0,36.0
513,79.0,0,120,0.0,56.0
514,75.0,2,120,0.0,51.0
515,67.0,0,120,0.0,51.0
516,36.0,4,132,0.0,38.0
517,43.0,113,132,0.0,41.0
518,48.0,127,132,0.0,43.0
519,50.0,113,132,0.0,47.0
520,51.0,120,132,0.0,50.0
521,50.0,123,132,0.0,47.0
522,48.0,125,132,0.0,45.0
523,43.0,110,120,0.0,43.0
524,75.0,0,960,0.0,60.0
525,80.0,0,960,0.0,66.0
526,68.0,120,960,0.0,60.0
527,72.0,0,960,0.0,60.0
528,36.0,120,132,0.0,41.0
529,67.0,0,240,0.0,51.0
530,79.0,5,240,0.0,56.0
531,72.0,0,240,0.0,51.0
532,75.0,0,240,0.0,51.0
533,43.0,120,132,0.0,43.0
534,48.0,119,132,0.0,44.0
535,50.0,117,132,0.0,49.0
536,84.0,4,130,0.0,79.0
537,72.0,0,130,0.0,72.0
538,51.0,117,132,0.0,51.0
539,50.0,124,132,0.0,51.0
540,48.0,113,132,0.0,49.0
541,74.0,3,370,0.0,84.0
542,86.0,0,370,0.0,92.0
543,43.0,119,120,0.0,47.0
544,75.0,4,120,0.0,92.0
545,87.0,4,0,0.0,107.0
546,36.0,116,132,0.0,47.0
547,43.0,125,132,0.0,47.0
548,48.0,110,132,0.0,48.0
549,50.0,120,132,0.0,50.0
550,51.0,120,132,0.0,51.0
551,55.0,123,132,0.0,51.0
552,60.0,127,132,0.0,54.0
553,75.0,0,960,0.0,97.0
554,62.0,114,132,0.0,55.0
555,63.0,120,132,0.0,57.0
556,62.0,126,132,0.0,55.0
557,60.0,119,132,0.0,55.0
558,67.0,0,120,0.0,74.0
559,79.0,0,120,0.0,81.0
560,72.0,0,120,0.0,74.0
561,75.0,116,120,0.0,74.0
562,55.0,0,132,0.0,53.0
563,51.0,4,132,0.0,51.0
564,50.0,118,132,0.0,50.0
565,75.0,0,360,0.0,74.0
566,72.0,0,360,0.0,74.0
567,79.0,0,360,0.0,81.0
568,67.0,3,0,0.0,76.0
569,48.0,117,132,0.0,48.0
570,43.0,118,120,0.0,47.0
571,75.0,0,0,0.0,87.0
572,72.0,0,120,0.0,76.0
573,79.0,0,120,0.0,83.0
574,36.0,115,132,0.0,57.0
575,43.0,120,132,0.0,48.0
576,48.0,125,132,0.0,50.0
577,50.0,114,132,0.0,51.0
578,51.0,118,132,0.0,54.0
579,50.0,124,132,0.0,52.0
580,48.0,116,132,0.0,51.0
581,41.0,123,120,0.0,49.0
582,36.0,125,132,0.0,57.0
583,43.0,114,132,0.0,49.0
584,48.0,125,132,0.0,51.0
585,50.0,111,132,0.0,53.0
586,51.0,130,132,0.0,55.0
587,50.0,116,132,0.0,54.0
588,48.0,122,132,0.0,53.0
589,41.0,117,120,0.0,51.0
590,69.0,0,1920,0.0,87.0
591,81.0,0,1920,0.0,95.0
592,77.0,5,1920,0.0,87.0
593,38.0,116,132,0.0,73.0
594,46.0,117,132,0.0,42.0
595,47.0,122,132,0.0,42.0
596,46.0,116,120,0.0,41.0
597,58.0,124,132,0.0,57.0
598,77.0,125,0,0.0,73.0
599,82.0,0,0,0.0,80.0
600,70.0,0,0,0.0,73.0
601,46.0,116,132,0.0,44.0
602,47.0,2,132,0.0,44.0
603,46.0,122,120,0.0,43.0
604,39.0,111,132,0.0,72.0
605,82.0,0,0,0.0,84.0
606,46.0,128,132,0.0,46.0
607,47.0,2,132,0.0,47.0
608,46.0,120,120,0.0,47.0
609,58.0,121,132,0.0,63.0
610,70.0,117,480,0.0,76.0
611,79.0,0,480,0.0,76.0
612,46.0,117,132,0.0,49.0
613,47.0,2,132,0.0,49.0
614,46.0,114,120,0.0,49.0
615,40.0,126,132,0.0,77.0
616,79.0,0,0,0.0,82.0
617,71.0,0,480,0.0,79.0
618,83.0,0,480,0.0,87.0
619,46.0,121,132,0.0,52.0
620,48.0,3,132,0.0,52.0
621,46.0,112,120,0.0,51.0
622,58.0,129,132,0.0,63.0
623,84.0,0,480,0.0,90.0
624,72.0,117,480,0.0,82.0
625,82.0,118,0,0.0,85.0
626,46.0,118,132,0.0,54.0
627,48.0,2,132,0.0,54.0
628,46.0,113,120,0.0,56.0
629,41.0,126,132,0.0,84.0
630,85.0,0,480,0.0,93.0
631,73.0,0,480,0.0,85.0
632,46.0,124,132,0.0,57.0
633,58.0,110,132,0.0,57.0
634,46.0,118,120,0.0,57.0
635,82.0,0,240,0.0,89.0
636,74.0,5,250,0.0,89.0
637,86.0,0,250,0.0,97.0
638,42.0,118,132,0.0,73.0
639,82.0,0,0,0.0,92.0
640,75.0,0,250,0.0,90.0
641,87.0,0,250,0.0,99.0
642,46.0,125,132,0.0,60.0
643,58.0,1,132,0.0,60.0
644,46.0,117,120,0.0,59.0
645,76.0,115,250,0.0,92.0
646,88.0,0,250,0.0,101.0
647,41.0,5,132,0.0,79.0
648,46.0,114,132,0.0,63.0
649,50.0,123,132,0.0,65.0
650,53.0,115,132,0.0,68.0
651,58.0,119,132,0.0,71.0
652,62.0,121,120,0.0,73.0
653,67.0,123,180,0.0,74.0
654,82.0,0,960,0.0,97.0
655,65.0,180,60,0.0,76.0
656,86.0,0,960,0.0,97.0
657,77.0,122,960,0.0,97.0
658,89.0,0,960,0.0,107.0
659,65.0,60,132,0.0,79.0
660,62.0,124,132,0.0,76.0
661,58.0,115,132,0.0,76.0
662,77.0,0,0,0.0,84.0
663,82.0,0,480,0.0,90.0
664,74.0,0,480,0.0,90.0
665,55.0,116,132,0.0,73.0
666,53.0,3,132,0.0,71.0
667,51.0,113,132,0.0,67.0
668,86.0,0,840,0.0,99.0
669,48.0,129,132,0.0,65.0
670,81.0,125,480,0.0,84.0
671,84.0,115,120,0.0,85.0
672,75.0,0,480,0.0,84.0
673,41.0,3,132,0.0,61.0
674,34.0,4,120,0.0,61.0
675,74.0,117,240,0.0,76.0
676,82.0,0,240,0.0,83.0
677,49.0,113,132,0.0,63.0
678,48.0,123,132,0.0,62.0
679,47.0,115,132,0.0,59.0
680,46.0,128,132,0.0,57.0
681,48.0,113,132,0.0,63.0
682,47.0,123,132,0.0,61.0
683,46.0,119,132,0.0,59.0
684,45.0,127,132,0.0,56.0
685,47.0,110,132,0.0,64.0
686,46.0,122,132,0.0,61.0
687,45.0,120,132,0.0,59.0
688,44.0,120,132,0.0,64.0
689,46.0,119,132,0.0,55.0
690,45.0,125,132,0.0,61.0
691,44.0,123,120,0.0,66.0
692,32.0,5,120,0.0,71.0
693,43.0,232,132,0.0,50.0
694,44.0,126,132,0.0,52.0
695,47.0,119,132,0.0,53.0
696,51.0,120,132,0.0,56.0
697,46.0,123,132,0.0,52.0
698,47.0,115,132,0.0,53.0
699,51.0,125,132,0.0,56.0
700,56.0,117,132,0.0,57.0
701,50.0,114,132,0.0,54.0
702,71.0,0,1440,0.0,83.0
703,80.0,0,1440,0.0,83.0
704,75.0,0,0,0.0,72.0
705,83.0,116,1440,0.0,91.0
706,51.0,125,132,0.0,56.0
707,56.0,1,132,0.0,59.0
708,59.0,118,132,0.0,62.0
709,63.0,119,360,0.0,66.0
710,71.0,0,360,0.0,66.0
711,68.0,0,360,0.0,66.0
712,55.0,126,132,0.0,61.0
713,56.0,115,120,0.0,65.0
714,65.0,0,120,0.0,74.0
715,77.0,0,120,0.0,81.0
716,39.0,1,60,0.0,71.0
717,63.0,119,132,0.0,55.0
718,53.0,117,132,0.0,56.0
719,54.0,122,132,0.0,55.0
720,58.0,119,132,0.0,59.0
721,63.0,117,132,0.0,61.0
722,50.0,128,132,0.0,51.0
723,51.0,114,132,0.0,54.0
724,54.0,118,132,0.0,59.0
725,58.0,124,132,0.0,61.0
726,45.0,122,132,0.0,54.0
727,75.0,0,1440,0.0,83.0
728,66.0,0,1440,0.0,83.0
729,78.0,0,1440,0.0,91.0
730,70.0,120,1440,0.0,83.0
731,46.0,114,132,0.0,56.0
732,51.0,122,132,0.0,57.0
733,54.0,116,132,0.0,61.0
734,78.0,3,360,0.0,80.0
735,66.0,0,360,0.0,73.0
736,41.0,126,132,0.0,63.0
737,42.0,117,120,0.0,69.0
738,68.0,0,120,0.0,76.0
739,80.0,1,120,0.0,85.0
740,30.0,1,120,0.0,74.0
741,41.0,241,132,0.0,49.0
742,42.0,117,132,0.0,50.0
743,45.0,123,132,0.0,52.0
744,49.0,117,132,0.0,55.0
745,44.0,125,132,0.0,51.0
746,45.0,117,132,0.0,52.0
747,49.0,116,132,0.0,54.0
748,54.0,128,132,0.0,56.0
749,48.0,119,132,0.0,54.0
750,81.0,0,1440,0.0,91.0
751,78.0,0,1440,0.0,83.0
752,73.0,121,0,0.0,76.0
753,69.0,0,1440,0.0,83.0
754,49.0,115,132,0.0,56.0
755,54.0,5,132,0.0,57.0
756,57.0,112,132,0.0,61.0
757,61.0,0,360,0.0,70.0
758,66.0,0,360,0.0,70.0
759,69.0,0,360,0.0,70.0
760,53.0,127,132,0.0,65.0
761,63.0,116,120,0.0,77.0
762,75.0,0,120,0.0,86.0
763,54.0,1,120,0.0,67.0
764,37.0,118,60,0.0,70.0
765,61.0,121,132,0.0,60.0
766,51.0,121,132,0.0,53.0
767,52.0,113,132,0.0,56.0
768,56.0,123,132,0.0,59.0
769,61.0,119,132,0.0,61.0
770,48.0,122,132,0.0,54.0
771,49.0,125,132,0.0,55.0
772,52.0,118,132,0.0,59.0
773,56.0,121,132,0.0,62.0
774,43.0,121,132,0.0,53.0
775,64.0,1,1440,0.0,83.0
776,68.0,0,1440,0.0,83.0
777,76.0,1,0,0.0,80.0
778,73.0,0,1440,0.0,83.0
779,44.0,115,132,0.0,56.0
780,49.0,120,132,0.0,57.0
781,52.0,124,132,0.0,61.0
782,64.0,0,360,0.0,73.0
783,39.0,114,132,0.0,62.0
784,40.0,121,120,0.0,65.0
785,66.0,1,120,0.0,77.0
786,78.0,0,0,0.0,83.0
787,36.0,1,60,0.0,70.0
788,63.0,117,132,0.0,60.0
789,55.0,125,132,0.0,57.0
790,56.0,120,132,0.0,59.0
791,57.0,120,132,0.0,60.0
792,56.0,120,132,0.0,61.0
793,54.0,113,132,0.0,63.0
794,52.0,121,132,0.0,64.0
795,51.0,120,132,0.0,66.0
796,49.0,125,132,0.0,65.0
797,48.0,123,132,0.0,68.0
798,78.0,0,0,0.0,80.0
799,75.0,0,0,0.0,80.0
800,68.0,121,0,0.0,80.0
801,80.0,0,0,0.0,88.0
802,45.0,114,132,0.0,70.0
803,43.0,0,132,0.0,71.0
804,44.0,116,132,0.0,71.0
805,39.0,128,132,0.0,74.0
806,44.0,113,120,0.0,75.0
807,82.0,0,120,0.0,92.0
808,70.0,3,120,0.0,84.0
809,38.0,0,60,0.0,77.0
810,65.0,122,132,0.0,73.0
811,57.0,117,132,0.0,73.0
812,80.0,0,480,0.0,91.0
813,77.0,0,480,0.0,91.0
814,83.0,120,480,0.0,99.0
815,71.0,0,480,0.0,91.0
816,58.0,123,132,0.0,71.0
817,59.0,113,132,0.0,72.0
818,58.0,115,132,0.0,69.0
819,56.0,120,132,0.0,71.0
820,54.0,120,132,0.0,69.0
821,53.0,123,132,0.0,68.0
822,51.0,120,132,0.0,67.0
823,50.0,124,132,0.0,67.0
824,70.0,0,960,0.0,91.0
825,82.0,5,960,0.0,99.0
826,77.0,0,960,0.0,91.0
827,80.0,0,960,0.0,91.0
828,47.0,114,132,0.0,66.0
829,45.0,123,132,0.0,64.0
830,46.0,115,132,0.0,63.0
831,80.0,0,360,0.0,93.0
832,77.0,0,360,0.0,93.0
833,70.0,0,360,0.0,93.0
834,82.0,1,360,0.0,102.0
835,41.0,127,132,0.0,63.0
836,72.0,0,120,0.0,93.0
837,84.0,118,120,0.0,102.0
838,46.0,2,120,0.0,62.0
839,40.0,115,60,0.0,60.0
840,67.0,122,132,0.0,57.0
841,59.0,119,132,0.0,57.0
842,79.0,0,480,0.0,95.0
843,82.0,118,0,0.0,90.0
844,73.0,3,480,0.0,95.0
845,85.0,0,480,0.0,106.0
846,60.0,121,132,0.0,56.0
847,61.0,0,132,0.0,59.0
848,60.0,116,132,0.0,59.0
849,58.0,124,132,0.0,59.0
850,84.0,0,480,0.0,97.0
851,72.0,0,480,0.0,90.0
852,79.0,0,480,0.0,90.0
853,56.0,115,132,0.0,57.0
854,55.0,130,132,0.0,57.0
855,53.0,115,132,0.0,57.0
856,52.0,125,132,0.0,57.0
857,55.0,118,132,0.0,55.0
858,53.0,117,132,0.0,56.0
859,52.0,122,132,0.0,56.0
860,49.0,120,132,0.0,55.0
861,48.0,117,132,0.0,52.0
862,47.0,120,132,0.0,55.0
863,48.0,116,132,0.0,55.0
864,49.0,128,132,0.0,57.0
865,48.0,113,132,0.0,55.0
866,46.0,119,132,0.0,57.0
867,44.0,123,132,0.0,59.0
868,43.0,125,132,0.0,60.0
869,41.0,114,132,0.0,62.0
870,40.0,121,145,0.0,63.0
871,37.0,122,145,0.0,63.0
872,36.0,115,145,0.0,67.0
873,35.0,124,145,0.0,67.0
874,36.0,121,145,0.0,71.0
875,34.0,121,145,0.0,70.0
876,32.0,122,145,0.0,74.0
877,31.0,116,120,0.0,73.0
878,29.0,119,132,0.0,76.0
879,36.0,124,132,0.0,63.0
880,41.0,121,132,0.0,63.0
881,43.0,116,132,0.0,63.0
882,44.0,124,132,0.0,63.0
883,48.0,110,132,0.0,64.0
884,53.0,126,132,0.0,68.0
885,89.0,0,960,0.0,95.0
886,80.0,0,960,0.0,95.0
887,84.0,0,0,0.0,88.0
888,92.0,2,960,0.0,104.0
889,55.0,123,132,0.0,68.0
890,56.0,115,132,0.0,72.0
891,60.0,118,132,0.0,75.0
892,65.0,120,132,0.0,76.0
893,77.0,1,480,0.0,88.0
894,89.0,0,480,0.0,95.0
895,67.0,117,132,0.0,77.0
896,68.0,1,132,0.0,79.0
897,67.0,118,132,0.0,77.0
898,65.0,116,132,0.0,71.0
899,60.0,120,120,0.0,67.0
900,84.0,0,480,0.0,92.0
901,77.0,0,480,0.0,84.0
902,72.0,125,480,0.0,84.0
903,61.0,125,132,0.0,64.0
904,65.0,124,132,0.0,63.0
905,61.0,121,132,0.0,62.0
906,56.0,114,132,0.0,61.0
907,53.0,124,132,0.0,59.0
908,49.0,118,132,0.0,57.0
909,44.0,122,132,0.0,57.0
910,70.0,0,960,0.0,87.0
911,82.0,0,960,0.0,95.0
912,41.0,121,120,0.0,56.0
913,37.0,1,158,0.0,55.0
914,32.0,120,158,0.0,54.0
915,37.0,114,158,0.0,55.0
916,80.0,0,480,0.0,77.0
917,68.0,116,480,0.0,71.0
918,77.0,0,1440,0.0,87.0
919,41.0,128,144,0.0,52.0
920,37.0,117,158,0.0,55.0
921,32.0,121,158,0.0,54.0
922,37.0,120,158,0.0,55.0
923,41.0,120,120,0.0,53.0
924,29.0,3,132,0.0,55.0
925,36.0,119,132,0.0,53.0
926,41.0,116,132,0.0,55.0
927,43.0,117,132,0.0,53.0
928,44.0,122,132,0.0,56.0
929,48.0,121,132,0.0,57.0
930,53.0,119,132,0.0,57.0
931,84.0,0,0,0.0,79.0
932,89.0,1,0,0.0,87.0
933,80.0,119,960,0.0,84.0
934,92.0,0,960,0.0,92.0
935,55.0,126,132,0.0,57.0
936,56.0,116,132,0.0,59.0
937,60.0,124,132,0.0,57.0
938,65.0,112,132,0.0,59.0
939,77.0,0,480,0.0,79.0
940,84.0,0,0,0.0,87.0
941,67.0,126,132,0.0,57.0
942,68.0,1,132,0.0,60.0
943,67.0,123,132,0.0,63.0
944,65.0,113,132,0.0,60.0
945,77.0,118,480,0.0,79.0
946,60.0,123,120,0.0,57.0
947,72.0,0,0,0.0,86.0
948,62.0,4,132,0.0,59.0
949,65.0,119,132,0.0,57.0
950,62.0,122,132,0.0,59.0
951,60.0,112,132,0.0,57.0
952,56.0,127,132,0.0,59.0
953,53.0,119,132,0.0,59.0
954,50.0,122,132,0.0,59.0
955,48.0,119,132,0.0,57.0
956,44.0,120,132,0.0,57.0
957,41.0,117,132,0.0,57.0
958,38.0,116,132,0.0,57.0
959,84.0,0,1440,0.0,94.0
960,77.0,120,1440,0.0,86.0
961,36.0,124,132,0.0,55.0
962,32.0,116,132,0.0,57.0
963,36.0,117,132,0.0,61.0
964,71.0,3,360,0.0,75.0
965,77.0,0,360,0.0,75.0
966,83.0,0,360,0.0,82.0
967,38.0,126,132,0.0,65.0
968,84.0,117,120,0.0,93.0
969,72.0,0,120,0.0,85.0
970,44.0,3,120,0.0,68.0
971,31.0,113,240,0.0,79.0
972,43.0,2,240,0.0,79.0
973,68.0,238,132,0.0,73.0
974,67.0,115,132,0.0,72.0
975,65.0,128,132,0.0,79.0
976,62.0,121,132,0.0,72.0
977,63.0,112,132,0.0,72.0
978,83.0,0,960,0.0,93.0
979,74.0,0,960,0.0,93.0
980,86.0,0,960,0.0,102.0
981,77.0,4,960,0.0,93.0
982,62.0,122,132,0.0,69.0
983,59.0,123,132,0.0,79.0
984,55.0,119,132,0.0,72.0
985,56.0,123,132,0.0,72.0
986,55.0,114,132,0.0,70.0
987,53.0,126,132,0.0,79.0
988,50.0,122,132,0.0,71.0
989,51.0,110,132,0.0,71.0
990,50.0,127,132,0.0,70.0
991,47.0,120,132,0.0,79.0
992,43.0,114,132,0.0,70.0
993,44.0,119,132,0.0,71.0
994,43.0,123,132,0.0,69.0
995,41.0,124,132,0.0,79.0
996,38.0,122,132,0.0,70.0
997,39.0,117,132,0.0,71.0
998,38.0,118,120,0.0,68.0
999,36.0,124,158,0.0,79.0
1000,31.0,114,158,0.0,69.0
1001,36.0,125,158,0.0,72.0
1002,31.0,115,158,0.0,71.0
1003,36.0,120,158,0.0,75.0
1004,31.0,125,158,0.0,76.0
1005,68.0,0,360,0.0,94.0
1006,75.0,0,360,0.0,94.0
1007,77.0,3,360,0.0,94.0
1008,80.0,0,360,0.0,103.0
1009,36.0,113,158,0.0,77.0
1010,31.0,117,120,0.0,76.0
1011,67.0,5,120,0.0,89.0
1012,79.0,0,0,0.0,97.0
1013,35.0,3,120,0.0,79.0
1014,68.0,233,132,0.0,71.0
1015,67.0,119,132,0.0,71.0
1016,65.0,120,132,0.0,79.0
1017,62.0,123,132,0.0,72.0
1018,63.0,124,132,0.0,72.0
1019,89.0,0,960,0.0,107.0
1020,77.0,0,960,0.0,97.0
1021,86.0,120,960,0.0,97.0
1022,62.0,116,132,0.0,71.0
1023,59.0,121,132,0.0,79.0
1024,55.0,120,132,0.0,71.0
1025,56.0,116,132,0.0,71.0
1026,55.0,125,132,0.0,69.0
1027,53.0,122,132,0.0,79.0
1028,50.0,116,132,0.0,72.0
1029,51.0,124,132,0.0,72.0
1030,50.0,122,132,0.0,71.0
1031,47.0,116,132,0.0,79.0
1032,43.0,121,132,0.0,71.0
1033,44.0,114,132,0.0,71.0
1034,43.0,125,132,0.0,70.0
1035,41.0,117,132,0.0,79.0
1036,38.0,122,132,0.0,71.0
1037,39.0,125,132,0.0,71.0
1038,38.0,116,132,0.0,70.0
1039,36.0,115,132,0.0,79.0
1040,31.0,126,132,0.0,71.0
1041,36.0,121,132,0.0,73.0
1042,31.0,121,132,0.0,74.0
1043,36.0,4,132,0.0,76.0
1044,31.0,120,132,0.0,76.0
1045,75.0,117,360,0.0,88.0
1046,80.0,0,360,0.0,95.0
1047,68.0,0,360,0.0,88.0
1048,77.0,0,360,0.0,88.0
1049,36.0,114,132,0.0,79.0
1050,67.0,122,120,0.0,84.0
1051,79.0,0,0,0.0,98.0
1052,31.0,4,120,0.0,79.0
1053,35.0,0,120,0.0,79.0
1054,86.0,0,240,0.0,98.0
1055,77.0,0,240,0.0,98.0
1056,91.0,116,240,0.0,108.0
1057,92.0,242,132,0.0,87.0
1058,80.0,0,132,0.0,79.0
1059,79.0,116,132,0.0,71.0
1060,91.0,5,132,0.0,80.0
1061,77.0,118,132,0.0,79.0
1062,89.0,3,132,0.0,87.0
1063,74.0,114,132,0.0,71.0
1064,86.0,5,132,0.0,77.0
1065,75.0,118,132,0.0,71.0
1066,87.0,3,132,0.0,77.0
1067,74.0,118,132,0.0,70.0
1068,86.0,2,132,0.0,76.0
1069,71.0,113,132,0.0,79.0
1070,83.0,8,132,0.0,87.0
1071,79.0,115,132,0.0,77.0
1072,67.0,1,132,0.0,70.0
1073,80.0,118,132,0.0,77.0
1074,68.0,1,132,0.0,70.0
1075,79.0,116,132,0.0,76.0
1076,67.0,9,132,0.0,69.0
1077,77.0,113,132,0.0,87.0
1078,65.0,4,132,0.0,79.0
1079,62.0,121,132,0.0,71.0
1080,74.0,1,132,0.0,77.0
1081,75.0,115,132,0.0,77.0
1082,63.0,2,132,0.0,71.0
1083,74.0,115,132,0.0,76.0
1084,62.0,3,132,0.0,69.0
1085,71.0,116,132,0.0,87.0
1086,59.0,8,132,0.0,79.0
1087,67.0,119,132,0.0,77.0
1088,55.0,1,132,0.0,71.0
1089,68.0,120,132,0.0,77.0
1090,56.0,2,132,0.0,71.0
1091,67.0,110,132,0.0,76.0
1092,55.0,2,132,0.0,69.0
1093,65.0,118,132,0.0,87.0
1094,53.0,6,132,0.0,79.0
1095,62.0,118,132,0.0,77.0
1096,50.0,6,132,0.0,71.0
1097,51.0,116,132,0.0,71.0
1098,63.0,1,132,0.0,77.0
1099,62.0,121,132,0.0,76.0
1100,50.0,2,132,0.0,69.0
1101,59.0,111,132,0.0,87.0
1102,47.0,4,132,0.0,79.0
1103,55.0,116,132,0.0,77.0
1104,43.0,4,132,0.0,71.0
1105,56.0,115,132,0.0,77.0
1106,44.0,4,132,0.0,71.0
1107,55.0,119,132,0.0,76.0
1108,43.0,6,132,0.0,69.0
1109,53.0,111,132,0.0,87.0
1110,41.0,10,132,0.0,79.0
1111,38.0,112,132,0.0,71.0
1112,50.0,8,132,0.0,77.0
1113,39.0,112,132,0.0,71.0
1114,51.0,5,132,0.0,76.0
1115,50.0,113,132,0.0,76.0
1116,38.0,2,132,0.0,69.0
1117,36.0,126,132,0.0,69.0
1118,48.0,2,132,0.0,76.0
1119,47.0,117,120,0.0,76.0
1120,35.0,3,120,0.0,65.0
1121,55.0,114,132,0.0,77.0
1122,43.0,2,132,0.0,69.0
1123,41.0,114,132,0.0,68.0
1124,53.0,0,132,0.0,76.0
1125,51.0,122,132,0.0,74.0
1126,39.0,5,132,0.0,67.0
1127,38.0,113,132,0.0,66.0
1128,50.0,4,132,0.0,73.0
1129,39.0,122,132,0.0,65.0
1130,51.0,1,132,0.0,72.0
1131,38.0,118,132,0.0,64.0
1132,50.0,3,132,0.0,71.0
1133,48.0,112,132,0.0,69.0
1134,36.0,4,132,0.0,63.0
1135,47.0,9,120,0.0,69.0
1136,35.0,116,132,0.0,62.0
1137,58.0,112,132,0.0,74.0
1138,46.0,9,132,0.0,68.0
1139,44.0,111,132,0.0,67.0
1140,56.0,5,132,0.0,73.0
1141,55.0,0,132,0.0,73.0
1142,43.0,120,132,0.0,67.0
1143,41.0,114,132,0.0,65.0
1144,53.0,10,132,0.0,72.0
1145,43.0,111,132,0.0,64.0
1146,55.0,4,132,0.0,72.0
1147,53.0,117,132,0.0,71.0
1148,41.0,5,132,0.0,63.0
1149,51.0,0,132,0.0,70.0
1150,39.0,116,132,0.0,62.0
1151,50.0,5,120,0.0,69.0
1152,38.0,120,132,0.0,61.0
1153,63.0,115,132,0.0,76.0
1154,51.0,4,132,0.0,70.0
1155,50.0,117,132,0.0,71.0
1156,62.0,1,132,0.0,77.0
1157,48.0,119,145,0.0,72.0
1158,60.0,2,145,0.0,80.0
1159,59.0,115,145,0.0,81.0
1160,47.0,1,145,0.0,73.0
1161,48.0,125,145,0.0,75.0
1162,60.0,3,145,0.0,82.0
1163,47.0,111,145,0.0,76.0
1164,59.0,7,145,0.0,84.0
1165,56.0,113,145,0.0,87.0
1166,44.0,4,145,0.0,76.0
1167,43.0,120,145,0.0,77.0
1168,55.0,0,145,0.0,88.0
1169,56.0,122,145,0.0,90.0
1170,44.0,1,145,0.0,80.0
1171,43.0,116,145,0.0,82.0
1172,55.0,6,145,0.0,92.0
1173,41.0,110,145,0.0,84.0
1174,53.0,8,145,0.0,94.0
1175,39.0,115,145,0.0,86.0
1176,51.0,4,145,0.0,95.0
1177,41.0,117,145,0.0,88.0
1178,53.0,2,145,0.0,99.0
1179,39.0,115,132,0.0,90.0
1180,51.0,9,132,0.0,101.0
1181,48.0,1,120,0.0,103.0
1182,36.0,118,132,0.0,93.0
1183,43.0,120,132,0.0,51.0
1184,48.0,118,132,0.0,52.0
1185,50.0,120,132,0.0,53.0
1186,51.0,118,132,0.0,54.0
1187,55.0,123,132,0.0,56.0
1188,60.0,120,132,0.0,57.0
1189,62.0,122,132,0.0,57.0
1190,63.0,115,132,0.0,60.0
1191,62.0,118,132,0.0,60.0
1192,60.0,118,132,0.0,59.0
1193,55.0,128,132,0.0,57.0
1194,51.0,120,132,0.0,57.0
1195,50.0,116,132,0.0,57.0
1196,48.0,116,132,0.0,56.0
1197,43.0,128,120,0.0,55.0
1198,36.0,119,132,0.0,53.0
1199,43.0,112,132,0.0,55.0
1200,48.0,124,132,0.0,57.0
1201,50.0,126,132,0.0,59.0
1202,51.0,110,132,0.0,61.0
1203,50.0,121,132,0.0,61.0
1204,48.0,121,132,0.0,60.0
1205,43.0,119,120,0.0,59.0
1206,36.0,125,132,0.0,63.0
1207,43.0,115,132,0.0,59.0
1208,48.0,125,132,0.0,63.0
1209,72.0,119,130,0.0,89.0
1210,84.0,0,130,0.0,97.0
1211,50.0,1,132,0.0,66.0
1212,51.0,2,132,0.0,68.0
1213,85.0,119,170,0.0,100.0
1214,73.0,0,170,0.0,91.0
1215,50.0,121,132,0.0,64.0
1216,48.0,85,132,0.0,60.0
1217,74.0,0,245,0.0,96.0
1218,86.0,37,245,0.0,106.0
1219,87.0,0,70,0.0,100.0
1220,75.0,38,70,0.0,91.0
1221,43.0,117,120,0.0,56.0
1222,36.0,78,132,0.0,52.0
1223,43.0,123,132,0.0,46.0
1224,48.0,116,132,0.0,47.0
1225,50.0,126,132,0.0,48.0
1226,51.0,118,132,0.0,49.0
1227,55.0,114,132,0.0,50.0
1228,60.0,119,132,0.0,51.0
1229,87.0,2,960,0.0,114.0
1230,75.0,0,960,0.0,104.0
1231,62.0,123,132,0.0,52.0
1232,63.0,117,132,0.0,53.0
1233,62.0,125,132,0.0,52.0
1234,60.0,116,132,0.0,51.0
1235,75.0,0,120,0.0,49.0
1236,79.0,0,0,0.0,49.0
1237,67.0,3,0,0.0,49.0
1238,72.0,0,0,0.0,49.0
1239,55.0,5,132,0.0,49.0
1240,51.0,112,132,0.0,48.0
1241,50.0,119,132,0.0,47.0
1242,67.0,4,0,0.0,56.0
1243,75.0,0,360,0.0,49.0
1244,48.0,119,132,0.0,45.0
1245,43.0,118,120,0.0,44.0
1246,75.0,0,120,0.0,56.0
1247,72.0,3,0,0.0,57.0
1248,79.0,0,120,0.0,56.0
1249,36.0,117,132,0.0,43.0
1250,43.0,115,132,0.0,45.0
1251,48.0,128,132,0.0,47.0
1252,50.0,120,132,0.0,50.0
1253,51.0,121,132,0.0,50.0
1254,50.0,111,132,0.0,50.0
1255,48.0,124,132,0.0,50.0
1256,43.0,120,120,0.0,49.0
1257,75.0,0,960,0.0,57.0
1258,80.0,0,960,0.0,57.0
1259,68.0,0,960,0.0,57.0
1260,36.0,3,132,0.0,47.0
1261,67.0,121,160,0.0,63.0
1262,75.0,0,160,0.0,63.0
1263,72.0,0,160,0.0,63.0
1264,79.0,0,170,0.0,69.0
1265,43.0,117,132,0.0,49.0
1266,83.0,40,160,0.0,82.0
1267,71.0,0,170,0.0,75.0
1268,48.0,80,132,0.0,51.0
1269,84.0,0,170,0.0,87.0
1270,72.0,80,170,0.0,79.0
1271,50.0,43,132,0.0,53.0
1272,51.0,114,132,0.0,55.0
1273,85.0,3,170,0.0,95.0
1274,73.0,0,170,0.0,88.0
1275,50.0,121,132,0.0,55.0
1276,86.0,0,160,0.0,109.0
1277,74.0,39,160,0.0,99.0
1278,48.0,76,132,0.0,55.0
1279,87.0,35,80,0.0,104.0
1280,75.0,0,80,0.0,95.0
1281,43.0,129,120,0.0,53.0
1282,36.0,4,132,0.0,54.0
1283,43.0,120,132,0.0,54.0
1284,48.0,111,132,0.0,55.0
1285,50.0,125,132,0.0,57.0
1286,51.0,121,132,0.0,59.0
1287,55.0,122,132,0.0,61.0
1288,60.0,120,132,0.0,63.0
1289,87.0,0,960,0.0,115.0
1290,75.0,80,960,0.0,106.0
1291,62.0,114,132,0.0,65.0
1292,63.0,128,132,0.0,67.0
1293,62.0,118,132,0.0,63.0
1294,60.0,114,132,0.0,61.0
1295,75.0,0,0,0.0,55.0
1296,72.0,0,0,0.0,55.0
1297,79.0,5,0,0.0,60.0
1298,67.0,0,0,0.0,55.0
1299,55.0,1,132,0.0,59.0
1300,51.0,114,132,0.0,56.0
1301,50.0,120,132,0.0,53.0
1302,75.0,0,0,0.0,67.0
1303,72.0,0,0,0.0,67.0
1304,48.0,123,132,0.0,51.0
1305,75.0,0,0,0.0,75.0
1306,67.0,0,120,0.0,67.0
1307,79.0,117,120,0.0,73.0
1308,43.0,2,120,0.0,49.0
1309,36.0,113,132,0.0,51.0
1310,42.0,123,132,0.0,52.0
1311,48.0,118,132,0.0,55.0
1312,50.0,124,132,0.0,56.0
1313,51.0,119,132,0.0,57.0
1314,50.0,119,132,0.0,54.0
1315,48.0,115,132,0.0,55.0
1316,42.0,121,120,0.0,54.0
1317,36.0,121,132,0.0,53.0
1318,42.0,115,132,0.0,54.0
1319,48.0,127,132,0.0,55.0
1320,50.0,113,132,0.0,57.0
1321,69.0,5,1560,0.0,75.0
1322,81.0,0,1560,0.0,82.0
1323,72.0,0,1560,0.0,75.0
1324,51.0,128,132,0.0,59.0
1325,50.0,120,132,0.0,57.0
1326,48.0,114,132,0.0,57.0
1327,42.0,56,120,0.0,56.0
1328,35.0,55,132,0.0,55.0
1329,86.0,5,180,0.0,95.0
1330,69.0,63,360,0.0,85.0
1331,74.0,4,300,0.0,85.0
1332,81.0,60,240,0.0,87.0
1333,47.0,122,132,0.0,55.0
1334,50.0,113,132,0.0,56.0
1335,55.0,123,132,0.0,55.0
1336,62.0,2,132,0.0,57.0
1337,55.0,121,132,0.0,55.0
1338,50.0,116,132,0.0,55.0
1339,67.0,0,480,0.0,95.0
1340,74.0,122,480,0.0,95.0
1341,79.0,0,480,0.0,104.0
1342,47.0,126,120,0.0,54.0
1343,34.0,116,132,0.0,55.0
1344,46.0,117,132,0.0,54.0
1345,79.0,0,160,0.0,76.0
1346,67.0,0,160,0.0,69.0
1347,73.0,42,160,0.0,69.0
1348,49.0,80,132,0.0,55.0
1349,73.0,80,160,0.0,67.0
1350,79.0,0,160,0.0,73.0
1351,67.0,0,160,0.0,67.0
1352,55.0,44,132,0.0,55.0
1353,61.0,111,132,0.0,56.0
1354,73.0,0,160,0.0,69.0
1355,79.0,5,160,0.0,76.0
1356,67.0,0,160,0.0,69.0
1357,55.0,116,132,0.0,53.0
1358,68.0,0,160,0.0,67.0
1359,73.0,0,160,0.0,67.0
1360,80.0,44,160,0.0,73.0
1361,49.0,76,132,0.0,55.0
1362,46.0,120,120,0.0,50.0
1363,79.0,0,80,0.0,76.0
1364,73.0,0,80,0.0,69.0
1365,67.0,80,0,0.0,72.0
1366,72.0,0,120,0.0,72.0
1367,79.0,0,130,0.0,82.0
1368,33.0,5,132,0.0,55.0
1369,72.0,2,120,0.0,69.0
1370,84.0,0,120,0.0,76.0
1371,45.0,113,132,0.0,55.0
1372,48.0,119,132,0.0,56.0
1373,53.0,124,132,0.0,55.0
1374,60.0,112,132,0.0,57.0
1375,53.0,123,132,0.0,54.0
1376,48.0,114,132,0.0,56.0
1377,77.0,0,480,0.0,91.0
1378,72.0,0,480,0.0,83.0
1379,65.0,5,480,0.0,83.0
1380,45.0,127,120,0.0,55.0
1381,32.0,113,132,0.0,55.0
1382,44.0,120,132,0.0,55.0
1383,77.0,43,160,0.0,74.0
1384,72.0,0,160,0.0,68.0
1385,65.0,0,160,0.0,68.0
1386,48.0,77,132,0.0,56.0
1387,72.0,0,160,0.0,66.0
1388,65.0,83,160,0.0,66.0
1389,77.0,0,160,0.0,72.0
1390,53.0,37,132,0.0,57.0
1391,72.0,0,120,0.0,68.0
1392,76.0,0,130,0.0,74.0
1393,64.0,123,130,0.0,68.0
1394,60.0,4,132,0.0,54.0
1395,72.0,116,0,0.0,74.0
1396,65.0,0,130,0.0,71.0
1397,77.0,116,130,0.0,77.0
1398,53.0,4,132,0.0,51.0
1399,79.0,0,90,0.0,81.0
1400,67.0,0,90,0.0,74.0
1401,48.0,4,132,0.0,50.0
1402,65.0,56,50,0.0,72.0
1403,72.0,0,50,0.0,72.0
1404,77.0,0,50,0.0,79.0
1405,44.0,120,120,0.0,48.0
1406,31.0,1,132,0.0,46.0
1407,64.0,60,240,0.0,79.0
1408,72.0,0,240,0.0,79.0
1409,76.0,0,240,0.0,87.0
1410,43.0,114,132,0.0,47.0
1411,48.0,121,132,0.0,48.0
1412,47.0,121,132,0.0,49.0
1413,49.0,121,132,0.0,51.0
1414,48.0,119,132,0.0,53.0
1415,50.0,118,132,0.0,55.0
1416,49.0,127,132,0.0,55.0
1417,51.0,117,132,0.0,56.0
1418,50.0,120,132,0.0,55.0
1419,52.0,124,132,0.0,57.0
1420,51.0,115,132,0.0,55.0
1421,53.0,123,132,0.0,59.0
1422,52.0,122,132,0.0,57.0
1423,63.0,0,1320,0.0,69.0
1424,75.0,2,1320,0.0,76.0
1425,54.0,120,132,0.0,61.0
1426,72.0,0,1440,0.0,69.0
1427,75.0,0,0,0.0,77.0
1428,63.0,116,0,0.0,71.0
1429,53.0,4,132,0.0,57.0
1430,55.0,4,132,0.0,64.0
1431,54.0,112,132,0.0,60.0
1432,56.0,123,132,0.0,62.0
1433,55.0,119,132,0.0,60.0
1434,58.0,118,132,0.0,63.0
1435,56.0,125,132,0.0,61.0
1436,55.0,118,132,0.0,63.0
1437,71.0,0,960,0.0,71.0
1438,62.0,4,480,0.0,69.0
1439,74.0,0,480,0.0,76.0
1440,53.0,119,132,0.0,60.0
1441,51.0,113,132,0.0,63.0
1442,50.0,127,132,0.0,59.0
1443,48.0,121,132,0.0,60.0
1444,47.0,120,132,0.0,59.0
1445,44.0,121,132,0.0,57.0
1446,43.0,112,132,0.0,53.0
1447,41.0,126,132,0.0,51.0
1448,38.0,117,120,0.0,47.0
1449,36.0,123,132,0.0,41.0
1450,43.0,123,132,0.0,42.0
1451,48.0,119,132,0.0,43.0
1452,50.0,111,132,0.0,44.0
1453,51.0,128,132,0.0,45.0
1454,55.0,116,132,0.0,46.0
1455,60.0,116,132,0.0,47.0
1456,62.0,122,132,0.0,48.0
1457,63.0,122,132,0.0,50.0
1458,62.0,117,132,0.0,49.0
1459,60.0,129,132,0.0,48.0
1460,55.0,115,132,0.0,47.0
1461,51.0,117,132,0.0,47.0
1462,50.0,126,132,0.0,46.0
1463,48.0,121,132,0.0,45.0
1464,43.0,113,120,0.0,44.0
1465,36.0,118,132,0.0,45.0
1466,43.0,128,132,0.0,48.0
1467,48.0,114,132,0.0,51.0
1468,50.0,124,132,0.0,53.0
1469,51.0,122,132,0.0,56.0
1470,50.0,121,132,0.0,53.0
1471,48.0,114,132,0.0,51.0
1472,43.0,122,120,0.0,49.0
1473,36.0,125,132,0.0,47.0
1474,43.0,119,132,0.0,47.0
1475,83.0,36,170,0.0,89.0
1476,71.0,0,170,0.0,81.0
1477,48.0,82,132,0.0,51.0
1478,50.0,37,132,0.0,53.0
1479,84.0,78,170,0.0,92.0
1480,72.0,0,170,0.0,84.0
1481,51.0,3,132,0.0,56.0
1482,73.0,0,170,0.0,87.0
1483,85.0,123,170,0.0,95.0
1484,50.0,116,132,0.0,54.0
1485,86.0,0,160,0.0,105.0
1486,74.0,41,160,0.0,95.0
1487,48.0,79,132,0.0,51.0
1488,43.0,116,120,0.0,48.0
1489,75.0,80,0,0.0,107.0
1490,87.0,0,0,0.0,116.0
1491,36.0,1,132,0.0,47.0
1492,43.0,118,132,0.0,43.0
1493,48.0,117,132,0.0,44.0
1494,50.0,122,132,0.0,46.0
1495,51.0,126,132,0.0,47.0
1496,55.0,113,132,0.0,48.0
1497,60.0,128,132,0.0,49.0
1498,62.0,111,132,0.0,50.0
1499,63.0,128,132,0.0,52.0
1500,62.0,120,132,0.0,51.0
1501,60.0,115,132,0.0,51.0
1502,79.0,0,120,0.0,54.0
1503,75.0,0,0,0.0,49.0
1504,72.0,120,0,0.0,49.0
1505,67.0,0,0,0.0,49.0
1506,55.0,118,132,0.0,50.0
1507,51.0,1,132,0.0,49.0
1508,50.0,120,132,0.0,48.0
1509,79.0,0,360,0.0,54.0
1510,48.0,120,132,0.0,47.0
1511,43.0,118,120,0.0,46.0
1512,67.0,1,120,0.0,49.0
1513,79.0,0,120,0.0,54.0
1514,72.0,0,120,0.0,49.0
1515,75.0,0,120,0.0,49.0
1516,36.0,115,132,0.0,44.0
1517,43.0,124,132,0.0,46.0
1518,48.0,112,132,0.0,47.0
1519,50.0,121,132,0.0,49.0
1520,51.0,121,132,0.0,51.0
1521,50.0,124,132,0.0,50.0
1522,48.0,119,132,0.0,49.0
1523,72.0,0,960,0.0,57.0
1524,75.0,115,0,0.0,71.0
1525,68.0,0,960,0.0,57.0
1526,80.0,5,960,0.0,62.0
1527,43.0,124,120,0.0,48.0
1528,36.0,1,132,0.0,47.0
1529,79.0,0,160,0.0,77.0
1530,67.0,0,160,0.0,71.0
1531,72.0,0,160,0.0,71.0
1532,43.0,122,132,0.0,49.0
1533,83.0,0,170,0.0,77.0
1534,71.0,37,170,0.0,71.0
1535,48.0,79,132,0.0,51.0
1536,84.0,0,170,0.0,79.0
1537,72.0,81,170,0.0,72.0
1538,50.0,44,132,0.0,54.0
1539,85.0,116,130,0.0,89.0
1540,73.0,0,130,0.0,81.0
1541,51.0,3,132,0.0,57.0
1542,74.0,0,120,0.0,84.0
1543,50.0,113,132,0.0,54.0
1544,86.0,4,130,0.0,92.0
1545,89.0,0,90,0.0,103.0
1546,77.0,0,90,0.0,94.0
1547,48.0,120,132,0.0,53.0
1548,87.0,65,50,0.0,88.0
1549,75.0,0,50,0.0,80.0
1550,43.0,115,120,0.0,51.0
1551,36.0,55,132,0.0,45.0
1552,43.0,123,132,0.0,47.0
1553,48.0,115,132,0.0,48.0
1554,50.0,126,132,0.0,49.0
1555,51.0,116,132,0.0,52.0
1556,55.0,123,132,0.0,54.0
1557,60.0,112,132,0.0,55.0
1558,87.0,5,960,0.0,110.0
1559,75.0,0,960,0.0,100.0
1560,62.0,126,132,0.0,57.0
1561,63.0,114,132,0.0,60.0
1562,62.0,127,132,0.0,56.0
1563,60.0,123,132,0.0,57.0
1564,67.0,115,120,0.0,54.0
1565,79.0,0,120,0.0,59.0
1566,72.0,120,0,0.0,56.0
1567,75.0,0,0,0.0,56.0
1568,55.0,0,132,0.0,55.0
1569,51.0,2,132,0.0,54.0
1570,50.0,115,132,0.0,51.0
1571,79.0,0,360,0.0,61.0
1572,67.0,0,360,0.0,56.0
1573,48.0,127,132,0.0,51.0
1574,79.0,0,120,0.0,70.0
1575,67.0,116,120,0.0,64.0
1576,72.0,0,120,0.0,64.0
1577,75.0,0,120,0.0,64.0
1578,43.0,2,120,0.0,49.0
1579,36.0,1,132,0.0,60.0
1580,42.0,116,132,0.0,47.0
1581,48.0,127,132,0.0,50.0
1582,50.0,116,132,0.0,52.0
1583,51.0,123,132,0.0,53.0
1584,50.0,115,132,0.0,52.0
1585,48.0,117,132,0.0,51.0
1586,42.0,125,120,0.0,49.0
1587,36.0,121,132,0.0,64.0
1588,42.0,118,132,0.0,55.0
1589,48.0,120,132,0.0,57.0
1590,50.0,116,132,0.0,63.0
1591,51.0,123,132,0.0,64.0
1592,50.0,123,132,0.0,62.0
1593,48.0,123,132,0.0,61.0
1594,42.0,115,120,0.0,59.0
1595,75.0,0,1920,0.0,75.0
1596,81.0,0,1920,0.0,82.0
1597,69.0,118,1920,0.0,75.0
1598,37.0,5,132,0.0,63.0
1599,49.0,114,132,0.0,64.0
1600,54.0,121,132,0.0,69.0
1601,56.0,115,132,0.0,71.0
1602,58.0,130,132,0.0,77.0
1603,56.0,119,132,0.0,74.0
1604,54.0,115,132,0.0,73.0
1605,82.0,0,960,0.0,106.0
1606,70.0,121,960,0.0,95.0
1607,73.0,0,0,0.0,83.0
1608,49.0,123,120,0.0,67.0
1609,37.0,116,132,0.0,62.0
1610,49.0,121,132,0.0,65.0
1611,54.0,119,132,0.0,69.0
1612,70.0,0,480,0.0,83.0
1613,68.0,0,480,0.0,83.0
1614,80.0,2,480,0.0,91.0
1615,56.0,121,132,0.0,74.0
1616,58.0,114,132,0.0,76.0
1617,56.0,119,132,0.0,72.0
1618,66.0,5,360,0.0,83.0
1619,70.0,0,360,0.0,83.0
1620,73.0,0,360,0.0,83.0
1621,78.0,0,360,0.0,91.0
1622,54.0,118,132,0.0,71.0
1623,77.0,123,120,0.0,91.0
1624,65.0,0,0,0.0,89.0
1625,70.0,115,0,0.0,89.0
1626,73.0,0,0,0.0,89.0
1627,49.0,5,120,0.0,65.0
1628,37.0,4,132,0.0,60.0
1629,49.0,121,132,0.0,63.0
1630,55.0,116,132,0.0,66.0
1631,58.0,120,132,0.0,68.0
1632,61.0,114,132,0.0,70.0
1633,60.0,124,132,0.0,70.0
1634,58.0,119,132,0.0,69.0
1635,77.0,0,960,0.0,98.0
1636,56.0,122,120,0.0,68.0
1637,55.0,115,132,0.0,68.0
1638,53.0,124,132,0.0,68.0
1639,52.0,114,132,0.0,69.0
1640,64.0,0,480,0.0,83.0
1641,76.0,5,480,0.0,91.0
1642,49.0,125,132,0.0,67.0
1643,48.0,122,132,0.0,66.0
1644,46.0,116,132,0.0,64.0
1645,44.0,116,132,0.0,63.0
1646,43.0,121,120,0.0,62.0
1647,35.0,1,132,0.0,62.0
1648,47.0,123,132,0.0,65.0
1649,52.0,113,132,0.0,67.0
1650,54.0,121,132,0.0,69.0
1651,56.0,124,132,0.0,72.0
1652,54.0,122,132,0.0,73.0
1653,52.0,113,132,0.0,71.0
1654,47.0,120,120,0.0,67.0
1655,76.0,0,960,0.0,91.0
1656,68.0,0,0,0.0,79.0
1657,71.0,0,0,0.0,79.0
1658,80.0,122,960,0.0,100.0
1659,35.0,122,132,0.0,62.0
1660,47.0,124,132,0.0,67.0
1661,52.0,117,132,0.0,72.0
1662,78.0,1,480,0.0,87.0
1663,66.0,0,480,0.0,79.0
1664,54.0,114,132,0.0,71.0
1665,56.0,5,132,0.0,76.0
1666,54.0,110,132,0.0,73.0
1667,76.0,0,360,0.0,87.0
1668,64.0,125,360,0.0,79.0
1669,68.0,0,0,0.0,76.0
1670,71.0,0,0,0.0,76.0
1671,52.0,126,132,0.0,74.0
1672,47.0,116,120,0.0,70.0
1673,63.0,0,0,0.0,87.0
1674,75.0,0,120,0.0,84.0
1675,71.0,4,0,0.0,87.0
1676,68.0,0,0,0.0,87.0
1677,35.0,116,132,0.0,64.0
1678,47.0,116,132,0.0,65.0
1679,53.0,121,132,0.0,67.0
1680,56.0,123,132,0.0,71.0
1681,59.0,125,132,0.0,73.0
1682,58.0,110,132,0.0,73.0
1683,56.0,120,132,0.0,72.0
1684,75.0,0,960,0.0,95.0
1685,54.0,123,132,0.0,71.0
1686,53.0,120,132,0.0,71.0
1687,51.0,120,132,0.0,71.0
1688,50.0,120,132,0.0,72.0
1689,62.0,0,480,0.0,79.0
1690,74.0,2,480,0.0,87.0
1691,47.0,119,132,0.0,71.0
1692,46.0,126,132,0.0,70.0
1693,44.0,116,132,0.0,67.0
1694,42.0,117,132,0.0,64.0
1695,41.0,122,120,0.0,62.0
1696,34.0,119,132,0.0,59.0
1697,46.0,125,132,0.0,54.0
1698,51.0,116,132,0.0,45.0
1699,53.0,123,132,0.0,48.0
1700,55.0,119,132,0.0,50.0
1701,53.0,120,132,0.0,47.0
1702,51.0,118,132,0.0,45.0
1703,46.0,123,120,0.0,43.0
1704,34.0,114,132,0.0,38.0
1705,46.0,127,132,0.0,41.0
1706,51.0,112,132,0.0,44.0
1707,53.0,128,132,0.0,46.0
1708,55.0,117,132,0.0,49.0
1709,53.0,114,132,0.0,48.0
1710,51.0,127,132,0.0,45.0
1711,46.0,117,120,0.0,44.0
1712,79.0,0,1920,0.0,87.0
1713,75.0,1,1920,0.0,77.0
1714,67.0,0,1920,0.0,77.0
1715,35.0,116,132,0.0,31.0
1716,47.0,115,132,0.0,33.0
1717,50.0,120,132,0.0,34.0
1718,55.0,125,132,0.0,35.0
1719,62.0,124,132,0.0,36.0
1720,55.0,112,132,0.0,35.0
1721,50.0,119,132,0.0,34.0
1722,47.0,122,120,0.0,32.0
1723,67.0,0,960,0.0,53.0
1724,35.0,4,132,0.0,31.0
1725,47.0,119,132,0.0,31.0
1726,50.0,120,132,0.0,33.0
1727,55.0,119,132,0.0,34.0
1728,62.0,116,132,0.0,35.0
1729,79.0,0,1680,0.0,65.0
1730,55.0,125,132,0.0,34.0
1731,50.0,5,132,0.0,34.0
1732,67.0,123,960,0.0,60.0
1733,74.0,4,1920,0.0,53.0
1734,77.0,117,240,0.0,67.0
1735,47.0,119,120,0.0,33.0
1736,36.0,113,132,0.0,32.0
1737,43.0,120,132,0.0,29.0
1738,48.0,115,132,0.0,30.0
1739,50.0,120,132,0.0,31.0
1740,51.0,120,132,0.0,32.0
1741,55.0,123,132,0.0,33.0
1742,60.0,124,132,0.0,34.0
1743,77.0,0,960,0.0,74.0
1744,62.0,117,132,0.0,35.0
1745,63.0,117,132,0.0,35.0
1746,62.0,118,132,0.0,35.0
1747,60.0,119,132,0.0,35.0
1748,55.0,126,132,0.0,34.0
1749,51.0,113,132,0.0,34.0
1750,50.0,119,132,0.0,33.0
1751,48.0,125,132,0.0,32.0
1752,43.0,118,120,0.0,32.0
1753,67.0,3,1920,0.0,61.0
1754,72.0,0,1920,0.0,61.0
1755,75.0,4,960,0.0,70.0
1756,29.0,3,132,0.0,35.0
1757,75.0,4,120,0.0,57.0
1758,37.0,56,132,0.0,35.0
1759,77.0,120,120,0.0,59.0
1760,41.0,4,132,0.0,36.0
1761,75.0,4,120,0.0,62.0
1762,43.0,112,132,0.0,38.0
1763,44.0,115,132,0.0,39.0
1764,49.0,116,132,0.0,40.0
1765,73.0,5,360,0.0,66.0
1766,53.0,127,132,0.0,42.0
1767,75.0,3,120,0.0,70.0
1768,55.0,114,132,0.0,43.0
1769,56.0,1,132,0.0,44.0
1770,55.0,117,132,0.0,44.0
1771,53.0,122,132,0.0,43.0
1772,77.0,120,480,0.0,75.0
1773,49.0,122,132,0.0,42.0
1774,44.0,4,132,0.0,41.0
1775,41.0,121,132,0.0,40.0
1776,37.0,120,132,0.0,40.0
1777,32.0,111,120,0.0,39.0
1778,65.0,122,1920,0.0,48.0
1779,68.0,118,480,0.0,66.0
1780,31.0,120,120,0.0,38.0
1781,40.0,241,132,0.0,42.0
1782,39.0,122,132,0.0,43.0
1783,41.0,121,132,0.0,43.0
1784,40.0,111,132,0.0,44.0
1785,42.0,129,132,0.0,44.0
1786,41.0,120,132,0.0,45.0
1787,43.0,115,132,0.0,45.0
1788,42.0,122,132,0.0,45.0
1789,44.0,121,132,0.0,46.0
1790,43.0,117,132,0.0,45.0
1791,45.0,119,132,0.0,47.0
1792,44.0,127,132,0.0,48.0
1793,46.0,120,132,0.0,49.0
1794,45.0,118,132,0.0,48.0
1795,47.0,118,132,0.0,49.0
1796,46.0,116,132,0.0,50.0
1797,48.0,119,132,0.0,50.0
1798,47.0,121,132,0.0,49.0
1799,49.0,124,132,0.0,52.0
1800,48.0,119,132,0.0,53.0
1801,50.0,118,132,0.0,53.0
1802,49.0,119,132,0.0,52.0
1803,51.0,123,132,0.0,53.0
1804,50.0,122,132,0.0,51.0
1805,52.0,123,132,0.0,54.0
1806,51.0,117,132,0.0,55.0
1807,53.0,123,132,0.0,56.0
1808,52.0,112,132,0.0,54.0
1809,54.0,123,132,0.0,56.0
1810,72.0,4,3840,0.0,68.0
1811,63.0,0,3840,0.0,63.0
1812,53.0,117,132,0.0,55.0
1813,55.0,4,132,0.0,57.0
1814,54.0,116,132,0.0,55.0
1815,56.0,118,132,0.0,57.0
1816,55.0,122,132,0.0,56.0
1817,58.0,121,132,0.0,57.0
1818,72.0,0,720,0.0,67.0
1819,56.0,117,132,0.0,54.0
1820,55.0,120,132,0.0,53.0
1821,71.0,2,240,0.0,60.0
1822,53.0,116,132,0.0,50.0
1823,51.0,122,132,0.0,53.0
1824,50.0,117,132,0.0,48.0
1825,53.0,128,132,0.0,51.0
1826,62.0,123,1440,0.0,60.0
1827,74.0,2,480,0.0,67.0
1828,65.0,0,1440,0.0,60.0
1829,51.0,118,132,0.0,47.0
1830,55.0,120,132,0.0,52.0
1831,53.0,119,132,0.0,49.0
1832,51.0,120,132,0.0,51.0
1833,50.0,115,132,0.0,47.0
1834,48.0,126,132,0.0,51.0
1835,47.0,112,132,0.0,48.0
1836,50.0,127,132,0.0,53.0
1837,48.0,122,132,0.0,49.0
1838,46.0,114,132,0.0,51.0
1839,44.0,117,132,0.0,50.0
1840,43.0,125,132,0.0,50.0
1841,42.0,115,132,0.0,49.0
1842,43.0,129,132,0.0,49.0
1843,44.0,117,132,0.0,47.0
1844,41.0,119,132,0.0,48.0
1845,43.0,121,132,0.0,46.0
1846,39.0,120,132,0.0,46.0
1847,41.0,122,132,0.0,44.0
1848,38.0,119,132,0.0,44.0
1849,39.0,120,120,0.0,43.0
1850,60.0,118,120,0.0,71.0
1851,36.0,0,120,0.0,43.0
1852,61.0,243,132,0.0,49.0
1853,60.0,121,132,0.0,48.0
1854,58.0,112,132,0.0,47.0
1855,55.0,123,132,0.0,46.0
1856,56.0,124,132,0.0,45.0
1857,55.0,112,132,0.0,44.0
1858,52.0,124,132,0.0,44.0
1859,48.0,116,132,0.0,43.0
1860,49.0,125,132,0.0,42.0
1861,48.0,117,132,0.0,41.0
1862,46.0,118,132,0.0,40.0
1863,43.0,122,132,0.0,39.0
1864,44.0,128,132,0.0,38.0
1865,43.0,115,132,0.0,37.0
1866,41.0,1,132,0.0,35.0
1867,36.0,114,132,0.0,32.0
1868,41.0,124,132,0.0,35.0
1869,36.0,126,132,0.0,28.0
1870,41.0,119,132,0.0,35.0
1871,36.0,114,132,0.0,31.0
1872,41.0,119,132,0.0,35.0
1873,72.0,0,2880,0.0,71.0
1874,36.0,121,132,0.0,28.0
1875,41.0,117,132,0.0,35.0
1876,36.0,125,132,0.0,32.0
1877,41.0,111,132,0.0,35.0
1878,36.0,119,132,0.0,30.0
1879,41.0,122,132,0.0,35.0
1880,36.0,121,132,0.0,32.0
1881,41.0,125,132,0.0,35.0
1882,65.0,0,1920,0.0,49.0
1883,74.0,5,960,0.0,55.0
1884,68.0,120,1920,0.0,49.0
1885,36.0,119,132,0.0,28.0
1886,48.0,0,120,0.0,35.0
1887,61.0,235,132,0.0,47.0
1888,60.0,122,132,0.0,46.0
1889,58.0,119,132,0.0,45.0
1890,55.0,121,132,0.0,44.0
1891,56.0,124,132,0.0,44.0
1892,55.0,115,132,0.0,44.0
1893,52.0,125,132,0.0,43.0
1894,48.0,115,132,0.0,42.0
1895,49.0,123,132,0.0,41.0
1896,48.0,124,132,0.0,40.0
1897,46.0,115,132,0.0,39.0
1898,43.0,117,132,0.0,38.0
1899,44.0,123,132,0.0,37.0
1900,76.0,0,1920,0.0,56.0
1901,67.0,118,1920,0.0,53.0
1902,64.0,0,1920,0.0,53.0
1903,43.0,124,132,0.0,36.0
1904,41.0,4,132,0.0,35.0
1905,36.0,117,132,0.0,33.0
1906,41.0,123,132,0.0,35.0
1907,36.0,111,132,0.0,30.0
1908,41.0,128,132,0.0,35.0
1909,36.0,122,132,0.0,34.0
1910,41.0,116,132,0.0,35.0
1911,67.0,0,960,0.0,41.0
1912,36.0,120,132,0.0,29.0
1913,41.0,1,132,0.0,35.0
1914,36.0,120,132,0.0,33.0
1915,41.0,116,132,0.0,35.0
1916,72.0,118,1440,0.0,50.0
1917,36.0,128,132,0.0,31.0
1918,41.0,112,132,0.0,35.0
1919,36.0,115,132,0.0,33.0
1920,41.0,122,132,0.0,35.0
1921,36.0,120,120,0.0,32.0
1922,68.0,0,1920,0.0,41.0
1923,71.0,3,480,0.0,51.0
1924,60.0,0,1920,0.0,41.0
1925,74.0,0,480,0.0,55.0
1926,65.0,119,960,0.0,46.0
1927,48.0,0,120,0.0,35.0
1928,76.0,0,240,0.0,64.0
1929,72.0,0,240,0.0,54.0
1930,67.0,0,240,0.0,54.0
1931,64.0,123,240,0.0,54.0
1932,80.0,235,120,0.0,81.0
1933,92.0,4,120,0.0,89.0
1934,79.0,121,132,0.0,80.0
1935,91.0,3,132,0.0,88.0
1936,88.0,114,132,0.0,85.0
1937,76.0,4,132,0.0,77.0
1938,84.0,123,132,0.0,84.0
1939,72.0,1,132,0.0,76.0
1940,73.0,113,132,0.0,81.0
1941,85.0,1,132,0.0,91.0
1942,72.0,122,132,0.0,77.0
1943,84.0,2,132,0.0,87.0
1944,82.0,114,132,0.0,89.0
1945,70.0,6,132,0.0,79.0
1946,79.0,112,132,0.0,87.0
1947,67.0,9,132,0.0,77.0
1948,80.0,117,132,0.0,89.0
1949,68.0,4,132,0.0,84.0
1950,79.0,113,132,0.0,88.0
1951,67.0,6,132,0.0,81.0
1952,76.0,114,132,0.0,88.0
1953,64.0,3,132,0.0,81.0
1954,60.0,117,132,0.0,79.0
1955,72.0,4,132,0.0,87.0
1956,61.0,121,132,0.0,84.0
1957,73.0,2,132,0.0,91.0
1958,60.0,111,132,0.0,80.0
1959,72.0,1,132,0.0,88.0
1960,58.0,123,132,0.0,80.0
1961,70.0,4,132,0.0,89.0
1962,67.0,114,132,0.0,88.0
1963,55.0,4,132,0.0,80.0
1964,56.0,117,132,0.0,85.0
1965,68.0,6,132,0.0,95.0
1966,67.0,117,132,0.0,92.0
1967,55.0,3,132,0.0,82.0
1968,52.0,111,132,0.0,83.0
1969,64.0,1,132,0.0,90.0
1970,60.0,121,132,0.0,89.0
1971,48.0,1,132,0.0,81.0
1972,49.0,116,132,0.0,84.0
1973,61.0,3,132,0.0,93.0
1974,60.0,122,132,0.0,92.0
1975,48.0,2,132,0.0,84.0
1976,46.0,115,132,0.0,83.0
1977,58.0,1,132,0.0,91.0
1978,43.0,118,132,0.0,83.0
1979,55.0,1,132,0.0,90.0
1980,56.0,119,132,0.0,94.0
1981,44.0,1,132,0.0,88.0
1982,55.0,119,132,0.0,92.0
1983,43.0,1,132,0.0,84.0
1984,52.0,125,132,0.0,91.0
1985,40.0,2,132,0.0,83.0
1986,36.0,119,132,0.0,83.0
1987,48.0,1,132,0.0,90.0
1988,37.0,111,132,0.0,84.0
1989,49.0,7,132,0.0,94.0
1990,36.0,118,120,0.0,93.0
1991,48.0,0,4,0.0,100.0
1992,57.0,0,940,0.0,110.0
1993,53.0,0,940,0.0,100.0
1994,60.0,116,940,0.0,110.0
1995,29.0,0,940,0.0,102.0
1996,41.0,0,940,0.0,102.0
1997,29.0,0,900,0.0,97.0
1998,48.0,0,900,0.0,97.0
1999,56.0,0,900,0.0,108.0
2000,53.0,0,900,0.0,97.0
2001,60.0,0,900,0.0,108.0
2002,41.0,960,900,0.0,97.0
2003,53.0,0,240,0.0,99.0
2004,48.0,0,240,0.0,99.0
2005,36.0,0,240,0.0,99.0
2006,24.0,0,240,0.0,99.0
2007,60.0,960,240,0.0,109.0
2008,55.0,0,240,0.0,109.0
2009,24.0,0,240,0.0,95.0
2010,48.0,480,240,0.0,93.0
2011,60.0,0,240,0.0,102.0
2012,52.0,0,240,0.0,93.0
2013,55.0,0,240,0.0,102.0
2014,36.0,0,240,0.0,95.0
