,note,step,duration,channel,velocity
0,52.0,0,480,0.0,55.0
1,45.0,480,120,0.0,55.0
2,52.0,0,120,0.0,31.0
3,60.0,0,120,0.0,38.0
4,64.0,0,120,0.0,48.0
5,69.0,240,120,0.0,48.0
6,76.0,0,120,0.0,55.0
7,48.0,240,120,0.0,55.0
8,64.0,0,120,0.0,38.0
9,57.0,0,120,0.0,31.0
10,81.0,240,120,0.0,55.0
11,76.0,0,120,0.0,48.0
12,69.0,0,120,0.0,48.0
13,47.0,240,120,0.0,55.0
14,81.0,240,120,0.0,55.0
15,74.0,0,120,0.0,48.0
16,69.0,0,120,0.0,48.0
17,53.0,0,120,0.0,31.0
18,62.0,0,120,0.0,38.0
19,52.0,240,120,0.0,55.0
20,80.0,0,120,0.0,55.0
21,76.0,0,120,0.0,48.0
22,59.0,0,120,0.0,31.0
23,68.0,0,120,0.0,48.0
24,64.0,240,120,0.0,38.0
25,48.0,240,120,0.0,55.0
26,64.0,0,120,0.0,38.0
27,57.0,240,120,0.0,31.0
28,69.0,0,120,0.0,48.0
29,76.0,0,120,0.0,55.0
30,45.0,240,120,0.0,55.0
31,57.0,0,120,0.0,31.0
32,76.0,0,120,0.0,48.0
33,64.0,240,120,0.0,38.0
34,84.0,0,120,0.0,55.0
35,72.0,0,120,0.0,48.0
36,50.0,240,120,0.0,56.0
37,77.0,0,120,0.0,49.0
38,84.0,0,120,0.0,56.0
39,57.0,0,120,0.0,33.0
40,65.0,0,120,0.0,39.0
41,72.0,240,120,0.0,49.0
42,50.0,240,120,0.0,58.0
43,56.0,0,120,0.0,35.0
44,65.0,0,120,0.0,41.0
45,71.0,0,120,0.0,51.0
46,77.0,240,120,0.0,51.0
47,83.0,0,120,0.0,58.0
48,48.0,240,120,0.0,60.0
49,65.0,0,120,0.0,41.0
50,69.0,0,120,0.0,53.0
51,81.0,0,120,0.0,61.0
52,77.0,0,120,0.0,53.0
53,57.0,240,120,0.0,35.0
54,48.0,240,120,0.0,61.0
55,57.0,240,120,0.0,37.0
56,64.0,0,120,0.0,44.0
57,88.0,0,120,0.0,62.0
58,81.0,0,120,0.0,55.0
59,76.0,0,120,0.0,55.0
60,47.0,240,120,0.0,63.0
61,53.0,240,120,0.0,37.0
62,62.0,0,120,0.0,45.0
63,74.0,0,120,0.0,57.0
64,81.0,0,120,0.0,57.0
65,86.0,0,120,0.0,64.0
66,40.0,240,120,0.0,66.0
67,76.0,0,120,0.0,58.0
68,80.0,0,120,0.0,58.0
69,88.0,0,120,0.0,66.0
70,62.0,0,120,0.0,46.0
71,59.0,240,120,0.0,38.0
72,52.0,0,120,0.0,38.0
73,45.0,240,120,0.0,68.0
74,52.0,0,120,0.0,38.0
75,72.0,240,120,0.0,58.0
76,84.0,0,120,0.0,66.0
77,60.0,0,120,0.0,46.0
78,76.0,0,120,0.0,58.0
79,47.0,240,120,0.0,66.0
80,52.0,0,120,0.0,37.0
81,62.0,0,120,0.0,44.0
82,76.0,0,120,0.0,56.0
83,68.0,240,120,0.0,56.0
84,80.0,0,120,0.0,63.0
85,48.0,240,120,0.0,61.0
86,52.0,240,120,0.0,35.0
87,69.0,0,120,0.0,51.0
88,76.0,0,120,0.0,51.0
89,81.0,0,120,0.0,58.0
90,64.0,0,120,0.0,41.0
91,45.0,240,120,0.0,58.0
92,52.0,0,120,0.0,31.0
93,60.0,0,120,0.0,38.0
94,76.0,240,120,0.0,48.0
95,72.0,0,120,0.0,48.0
96,84.0,0,120,0.0,55.0
97,40.0,240,120,0.0,55.0
98,71.0,0,120,0.0,48.0
99,52.0,240,120,0.0,31.0
100,62.0,0,120,0.0,38.0
101,83.0,0,120,0.0,55.0
102,76.0,0,120,0.0,48.0
103,45.0,240,120,0.0,55.0
104,69.0,0,120,0.0,48.0
105,76.0,0,120,0.0,48.0
106,81.0,0,120,0.0,55.0
107,60.0,240,120,0.0,38.0
108,52.0,0,120,0.0,31.0
109,47.0,240,120,0.0,55.0
110,71.0,0,120,0.0,48.0
111,64.0,0,120,0.0,48.0
112,56.0,0,120,0.0,31.0
113,62.0,0,120,0.0,38.0
114,52.0,240,120,0.0,31.0
115,76.0,0,120,0.0,55.0
116,45.0,240,120,0.0,55.0
117,60.0,0,120,0.0,38.0
118,69.0,240,120,0.0,48.0
119,57.0,0,120,0.0,31.0
120,81.0,0,120,0.0,55.0
121,76.0,0,120,0.0,48.0
122,52.0,0,120,0.0,31.0
123,40.0,240,120,0.0,55.0
124,52.0,0,120,0.0,31.0
125,62.0,0,120,0.0,38.0
126,56.0,0,120,0.0,31.0
127,76.0,0,120,0.0,48.0
128,71.0,0,120,0.0,48.0
129,83.0,240,120,0.0,55.0
130,45.0,240,120,0.0,55.0
131,52.0,0,120,0.0,31.0
132,60.0,0,120,0.0,38.0
133,57.0,0,120,0.0,31.0
134,69.0,0,120,0.0,48.0
135,76.0,240,120,0.0,48.0
136,81.0,0,120,0.0,55.0
137,47.0,240,120,0.0,56.0
138,76.0,0,120,0.0,57.0
139,71.0,0,120,0.0,50.0
140,64.0,0,120,0.0,50.0
141,62.0,0,120,0.0,41.0
142,52.0,240,120,0.0,35.0
143,56.0,0,120,0.0,35.0
144,45.0,240,120,0.0,60.0
145,76.0,0,120,0.0,53.0
146,52.0,0,120,0.0,38.0
147,81.0,0,120,0.0,61.0
148,60.0,0,120,0.0,46.0
149,57.0,0,120,0.0,38.0
150,69.0,240,120,0.0,53.0
151,43.0,240,120,0.0,64.0
152,71.0,0,120,0.0,58.0
153,64.0,0,120,0.0,46.0
154,83.0,240,120,0.0,66.0
155,55.0,0,120,0.0,38.0
156,76.0,0,120,0.0,58.0
157,45.0,240,120,0.0,68.0
158,72.0,0,120,0.0,62.0
159,76.0,240,120,0.0,62.0
160,84.0,0,120,0.0,72.0
161,64.0,0,120,0.0,44.0
162,57.0,0,120,0.0,37.0
163,47.0,240,120,0.0,63.0
164,64.0,240,120,0.0,45.0
165,79.0,0,120,0.0,63.0
166,59.0,0,120,0.0,37.0
167,67.0,0,120,0.0,56.0
168,71.0,0,120,0.0,56.0
169,47.0,240,120,0.0,62.0
170,78.0,0,120,0.0,62.0
171,71.0,0,120,0.0,55.0
172,69.0,0,120,0.0,55.0
173,63.0,240,120,0.0,44.0
174,59.0,0,120,0.0,37.0
175,52.0,240,120,0.0,61.0
176,68.0,0,120,0.0,55.0
177,71.0,0,120,0.0,55.0
178,76.0,0,120,0.0,62.0
179,64.0,0,120,0.0,44.0
180,59.0,240,120,0.0,37.0
181,51.0,240,120,0.0,60.0
182,78.0,0,120,0.0,61.0
183,72.0,240,120,0.0,53.0
184,60.0,0,120,0.0,37.0
185,69.0,0,120,0.0,53.0
186,66.0,0,120,0.0,44.0
187,50.0,240,120,0.0,61.0
188,77.0,0,120,0.0,51.0
189,79.0,0,120,0.0,58.0
190,71.0,0,120,0.0,51.0
191,67.0,0,120,0.0,51.0
192,59.0,0,120,0.0,35.0
193,65.0,240,120,0.0,41.0
194,40.0,240,120,0.0,58.0
195,59.0,0,120,0.0,31.0
196,64.0,0,120,0.0,38.0
197,68.0,240,120,0.0,48.0
198,71.0,0,120,0.0,48.0
199,80.0,0,120,0.0,55.0
200,76.0,0,120,0.0,48.0
201,45.0,240,120,0.0,55.0
202,76.0,0,120,0.0,47.0
203,81.0,0,120,0.0,56.0
204,72.0,0,120,0.0,47.0
205,69.0,240,120,0.0,47.0
206,57.0,0,120,0.0,31.0
207,64.0,0,120,0.0,38.0
208,48.0,240,120,0.0,55.0
209,57.0,240,120,0.0,31.0
210,76.0,0,120,0.0,51.0
211,64.0,0,120,0.0,38.0
212,69.0,0,120,0.0,51.0
213,47.0,240,120,0.0,55.0
214,62.0,0,120,0.0,38.0
215,53.0,0,120,0.0,31.0
216,74.0,240,120,0.0,57.0
217,69.0,0,120,0.0,48.0
218,52.0,240,120,0.0,55.0
219,81.0,0,960,0.0,71.0
220,59.0,0,120,0.0,31.0
221,64.0,0,120,0.0,38.0
222,80.0,240,120,0.0,53.0
223,76.0,0,120,0.0,44.0
224,68.0,0,120,0.0,44.0
225,48.0,240,120,0.0,55.0
226,69.0,0,120,0.0,47.0
227,76.0,0,120,0.0,56.0
228,64.0,240,120,0.0,38.0
229,57.0,0,120,0.0,31.0
230,45.0,240,120,0.0,55.0
231,76.0,0,120,0.0,52.0
232,57.0,0,120,0.0,31.0
233,64.0,240,120,0.0,38.0
234,72.0,0,120,0.0,52.0
235,50.0,240,120,0.0,56.0
236,57.0,0,120,0.0,33.0
237,77.0,240,120,0.0,56.0
238,72.0,0,120,0.0,47.0
239,65.0,0,120,0.0,39.0
240,50.0,240,120,0.0,58.0
241,84.0,0,960,0.0,71.0
242,71.0,0,120,0.0,47.0
243,77.0,0,120,0.0,47.0
244,56.0,0,120,0.0,35.0
245,65.0,0,120,0.0,41.0
246,48.0,240,120,0.0,60.0
247,83.0,240,480,0.0,56.0
248,57.0,0,120,0.0,35.0
249,65.0,0,120,0.0,41.0
250,69.0,0,120,0.0,49.0
251,77.0,240,120,0.0,49.0
252,81.0,0,240,0.0,58.0
253,48.0,240,120,0.0,61.0
254,64.0,0,120,0.0,44.0
255,57.0,0,120,0.0,37.0
256,76.0,0,120,0.0,51.0
257,81.0,240,120,0.0,51.0
258,47.0,240,120,0.0,63.0
259,88.0,0,480,0.0,69.0
260,81.0,0,120,0.0,55.0
261,74.0,0,120,0.0,55.0
262,53.0,0,120,0.0,37.0
263,62.0,0,120,0.0,45.0
264,40.0,240,120,0.0,66.0
265,86.0,240,480,0.0,70.0
266,76.0,0,120,0.0,58.0
267,80.0,0,120,0.0,58.0
268,62.0,240,120,0.0,46.0
269,59.0,0,120,0.0,38.0
270,52.0,0,120,0.0,38.0
271,45.0,240,120,0.0,68.0
272,88.0,0,480,0.0,75.0
273,60.0,0,120,0.0,46.0
274,52.0,0,120,0.0,38.0
275,76.0,0,120,0.0,55.0
276,72.0,0,120,0.0,55.0
277,84.0,240,240,0.0,70.0
278,47.0,240,120,0.0,66.0
279,56.0,0,120,0.0,37.0
280,52.0,0,120,0.0,37.0
281,71.0,0,120,0.0,51.0
282,62.0,240,120,0.0,44.0
283,76.0,0,120,0.0,51.0
284,48.0,240,120,0.0,61.0
285,83.0,0,480,0.0,66.0
286,57.0,0,120,0.0,35.0
287,52.0,0,120,0.0,35.0
288,64.0,0,120,0.0,41.0
289,76.0,0,120,0.0,47.0
290,69.0,0,120,0.0,47.0
291,45.0,240,120,0.0,58.0
292,60.0,0,120,0.0,38.0
293,72.0,0,120,0.0,44.0
294,76.0,0,120,0.0,52.0
295,52.0,240,120,0.0,31.0
296,81.0,240,720,0.0,61.0
297,40.0,240,120,0.0,55.0
298,62.0,0,120,0.0,38.0
299,52.0,0,120,0.0,31.0
300,71.0,0,240,0.0,53.0
301,76.0,0,240,0.0,53.0
302,45.0,240,120,0.0,55.0
303,83.0,240,480,0.0,71.0
304,52.0,240,120,0.0,31.0
305,60.0,0,120,0.0,38.0
306,69.0,0,240,0.0,51.0
307,76.0,0,240,0.0,51.0
308,47.0,240,120,0.0,55.0
309,81.0,0,480,0.0,66.0
310,56.0,0,120,0.0,31.0
311,62.0,240,120,0.0,38.0
312,52.0,0,120,0.0,31.0
313,64.0,0,240,0.0,50.0
314,71.0,0,240,0.0,50.0
315,45.0,240,120,0.0,55.0
316,76.0,0,0,0.0,46.0
317,60.0,0,120,0.0,38.0
318,57.0,0,120,0.0,31.0
319,52.0,240,120,0.0,31.0
320,81.0,0,240,0.0,60.0
321,69.0,0,240,0.0,46.0
322,40.0,240,120,0.0,55.0
323,76.0,0,120,0.0,50.0
324,52.0,0,120,0.0,31.0
325,62.0,0,120,0.0,38.0
326,56.0,240,120,0.0,31.0
327,71.0,0,240,0.0,50.0
328,45.0,240,120,0.0,55.0
329,83.0,0,480,0.0,67.0
330,60.0,0,120,0.0,38.0
331,52.0,0,120,0.0,31.0
332,57.0,0,120,0.0,31.0
333,76.0,0,120,0.0,53.0
334,69.0,0,240,0.0,53.0
335,47.0,240,120,0.0,56.0
336,81.0,240,480,0.0,69.0
337,52.0,0,120,0.0,35.0
338,62.0,0,120,0.0,41.0
339,56.0,0,120,0.0,35.0
340,64.0,0,240,0.0,58.0
341,71.0,0,240,0.0,58.0
342,45.0,240,120,0.0,60.0
343,76.0,240,480,0.0,75.0
344,57.0,0,120,0.0,38.0
345,52.0,240,120,0.0,38.0
346,60.0,0,120,0.0,46.0
347,76.0,0,240,0.0,57.0
348,69.0,0,240,0.0,57.0
349,81.0,0,240,0.0,67.0
350,43.0,240,120,0.0,64.0
351,64.0,240,120,0.0,46.0
352,55.0,0,120,0.0,38.0
353,71.0,0,240,0.0,61.0
354,76.0,0,240,0.0,61.0
355,45.0,240,120,0.0,68.0
356,83.0,0,480,0.0,75.0
357,57.0,0,120,0.0,37.0
358,64.0,0,120,0.0,44.0
359,76.0,0,240,0.0,63.0
360,72.0,0,240,0.0,63.0
361,47.0,240,120,0.0,63.0
362,84.0,240,480,0.0,77.0
363,59.0,0,120,0.0,37.0
364,64.0,0,120,0.0,45.0
365,67.0,240,240,0.0,59.0
366,71.0,0,240,0.0,59.0
367,47.0,240,120,0.0,62.0
368,79.0,0,480,0.0,73.0
369,59.0,0,120,0.0,37.0
370,63.0,0,120,0.0,44.0
371,71.0,240,240,0.0,56.0
372,69.0,0,240,0.0,56.0
373,52.0,240,120,0.0,61.0
374,78.0,0,480,0.0,68.0
375,59.0,0,120,0.0,37.0
376,64.0,0,120,0.0,44.0
377,67.0,0,240,0.0,53.0
378,71.0,0,240,0.0,53.0
379,45.0,240,120,0.0,60.0
380,57.0,0,120,0.0,37.0
381,64.0,240,120,0.0,44.0
382,72.0,0,240,0.0,53.0
383,69.0,0,240,0.0,44.0
384,52.0,240,120,0.0,61.0
385,62.0,240,120,0.0,41.0
386,59.0,0,120,0.0,35.0
387,71.0,0,240,0.0,51.0
388,67.0,0,240,0.0,42.0
389,45.0,240,120,0.0,58.0
390,57.0,0,120,0.0,31.0
391,64.0,240,120,0.0,38.0
392,76.0,240,1680,0.0,64.0
393,72.0,0,240,0.0,48.0
394,69.0,0,240,0.0,39.0
395,43.0,240,120,0.0,55.0
396,64.0,0,120,0.0,38.0
397,55.0,240,120,0.0,31.0
398,71.0,0,240,0.0,51.0
399,76.0,0,240,0.0,51.0
400,45.0,240,120,0.0,57.0
401,83.0,0,480,0.0,61.0
402,57.0,0,120,0.0,30.0
403,64.0,0,120,0.0,37.0
404,72.0,0,240,0.0,53.0
405,76.0,240,240,0.0,53.0
406,47.0,240,120,0.0,53.0
407,84.0,0,480,0.0,64.0
408,64.0,0,120,0.0,37.0
409,59.0,0,120,0.0,30.0
410,71.0,0,240,0.0,49.0
411,67.0,0,240,0.0,49.0
412,47.0,240,120,0.0,52.0
413,79.0,240,480,0.0,60.0
414,59.0,0,120,0.0,30.0
415,63.0,240,120,0.0,37.0
416,71.0,0,240,0.0,47.0
417,78.0,0,240,0.0,56.0
418,69.0,0,240,0.0,47.0
419,52.0,240,120,0.0,59.0
420,55.0,0,120,0.0,36.0
421,64.0,0,120,0.0,45.0
422,59.0,0,120,0.0,36.0
423,67.0,0,240,0.0,53.0
424,71.0,0,240,0.0,53.0
425,51.0,240,120,0.0,63.0
426,55.0,0,120,0.0,40.0
427,64.0,240,120,0.0,50.0
428,59.0,0,120,0.0,40.0
429,67.0,0,240,0.0,50.0
430,71.0,0,240,0.0,60.0
431,50.0,240,120,0.0,72.0
432,76.0,240,960,0.0,63.0
433,59.0,0,120,0.0,44.0
434,56.0,240,120,0.0,44.0
435,65.0,0,120,0.0,51.0
436,68.0,0,240,0.0,53.0
437,71.0,0,240,0.0,63.0
438,49.0,240,120,0.0,77.0
439,59.0,0,120,0.0,42.0
440,65.0,0,120,0.0,51.0
441,56.0,0,120,0.0,42.0
442,71.0,0,240,0.0,64.0
443,77.0,0,720,0.0,80.0
444,68.0,240,240,0.0,52.0
445,48.0,240,120,0.0,77.0
446,57.0,0,120,0.0,44.0
447,65.0,0,120,0.0,53.0
448,48.0,240,120,0.0,77.0
449,81.0,0,480,0.0,89.0
450,72.0,240,480,0.0,74.0
451,69.0,0,480,0.0,74.0
452,65.0,240,120,0.0,53.0
453,56.0,0,120,0.0,44.0
454,48.0,240,120,0.0,77.0
455,68.0,0,480,0.0,71.0
456,71.0,0,480,0.0,71.0
457,80.0,0,480,0.0,84.0
458,70.0,0,120,0.0,70.0
459,67.0,0,120,0.0,70.0
460,55.0,240,120,0.0,44.0
461,79.0,0,120,0.0,82.0
462,64.0,0,120,0.0,53.0
463,48.0,240,120,0.0,77.0
464,60.0,0,120,0.0,53.0
465,55.0,0,120,0.0,44.0
466,72.0,0,120,0.0,77.0
467,70.0,0,120,0.0,63.0
468,64.0,240,120,0.0,63.0
469,48.0,240,120,0.0,77.0
470,79.0,0,120,0.0,82.0
471,55.0,0,120,0.0,44.0
472,64.0,0,120,0.0,53.0
473,67.0,240,120,0.0,70.0
474,70.0,0,120,0.0,70.0
475,48.0,240,120,0.0,77.0
476,55.0,240,120,0.0,44.0
477,60.0,0,120,0.0,53.0
478,72.0,0,120,0.0,77.0
479,70.0,0,120,0.0,63.0
480,64.0,0,120,0.0,63.0
481,48.0,240,120,0.0,77.0
482,55.0,0,120,0.0,44.0
483,64.0,240,120,0.0,53.0
484,70.0,0,120,0.0,70.0
485,67.0,0,120,0.0,70.0
486,79.0,0,120,0.0,82.0
487,53.0,240,120,0.0,77.0
488,57.0,240,120,0.0,44.0
489,65.0,0,120,0.0,53.0
490,69.0,0,120,0.0,63.0
491,77.0,0,120,0.0,77.0
492,44.0,240,120,0.0,61.0
493,53.0,0,120,0.0,35.0
494,61.0,0,120,0.0,42.0
495,44.0,240,120,0.0,61.0
496,77.0,0,480,0.0,70.0
497,65.0,240,480,0.0,59.0
498,68.0,0,480,0.0,59.0
499,61.0,0,120,0.0,42.0
500,52.0,240,120,0.0,35.0
501,44.0,240,120,0.0,61.0
502,64.0,0,480,0.0,57.0
503,76.0,0,480,0.0,67.0
504,67.0,0,480,0.0,57.0
505,66.0,240,120,0.0,56.0
506,63.0,0,120,0.0,56.0
507,60.0,0,120,0.0,42.0
508,51.0,0,120,0.0,35.0
509,75.0,0,120,0.0,66.0
510,44.0,240,120,0.0,61.0
511,56.0,0,120,0.0,42.0
512,51.0,0,120,0.0,35.0
513,68.0,0,120,0.0,61.0
514,66.0,240,120,0.0,50.0
515,60.0,0,120,0.0,50.0
516,44.0,240,120,0.0,61.0
517,51.0,0,120,0.0,35.0
518,60.0,0,120,0.0,42.0
519,68.0,0,120,0.0,56.0
520,75.0,240,120,0.0,66.0
521,66.0,0,120,0.0,56.0
522,44.0,240,120,0.0,61.0
523,68.0,0,120,0.0,61.0
524,60.0,0,120,0.0,50.0
525,56.0,240,120,0.0,42.0
526,51.0,0,120,0.0,35.0
527,66.0,0,120,0.0,50.0
528,44.0,240,120,0.0,61.0
529,75.0,0,120,0.0,66.0
530,51.0,0,120,0.0,35.0
531,66.0,240,120,0.0,56.0
532,60.0,0,120,0.0,42.0
533,70.0,0,120,0.0,56.0
534,44.0,240,120,0.0,61.0
535,53.0,0,120,0.0,35.0
536,61.0,0,120,0.0,42.0
537,68.0,0,240,0.0,50.0
538,65.0,240,240,0.0,50.0
539,44.0,240,120,0.0,61.0
540,73.0,0,480,0.0,61.0
541,60.0,240,120,0.0,42.0
542,51.0,0,120,0.0,35.0
543,63.0,0,240,0.0,56.0
544,68.0,0,240,0.0,56.0
545,44.0,240,120,0.0,61.0
546,72.0,0,480,0.0,66.0
547,49.0,0,120,0.0,35.0
548,58.0,0,120,0.0,42.0
549,61.0,0,240,0.0,50.0
550,68.0,240,240,0.0,50.0
551,44.0,240,120,0.0,62.0
552,70.0,0,480,0.0,62.0
553,48.0,0,120,0.0,35.0
554,56.0,0,120,0.0,44.0
555,60.0,0,240,0.0,57.0
556,44.0,240,120,0.0,63.0
557,68.0,0,0,0.0,52.0
558,54.0,0,120,0.0,36.0
559,63.0,0,120,0.0,44.0
560,66.0,240,240,0.0,52.0
561,44.0,240,120,0.0,64.0
562,75.0,0,480,0.0,63.0
563,61.0,240,120,0.0,45.0
564,53.0,0,120,0.0,37.0
565,65.0,0,240,0.0,59.0
566,68.0,0,240,0.0,59.0
567,44.0,240,120,0.0,64.0
568,73.0,0,480,0.0,70.0
569,58.0,0,120,0.0,46.0
570,49.0,0,120,0.0,37.0
571,61.0,240,240,0.0,53.0
572,68.0,0,240,0.0,53.0
573,44.0,240,120,0.0,67.0
574,70.0,0,480,0.0,66.0
575,61.0,240,120,0.0,46.0
576,53.0,0,120,0.0,38.0
577,65.0,0,240,0.0,61.0
578,68.0,0,240,0.0,61.0
579,44.0,240,120,0.0,67.0
580,73.0,0,480,0.0,72.0
581,60.0,0,120,0.0,47.0
582,51.0,0,120,0.0,38.0
583,68.0,240,240,0.0,56.0
584,63.0,0,240,0.0,56.0
585,44.0,240,120,0.0,68.0
586,72.0,0,480,0.0,68.0
587,54.0,0,120,0.0,39.0
588,63.0,0,120,0.0,48.0
589,66.0,0,240,0.0,62.0
590,68.0,240,240,0.0,62.0
591,44.0,240,120,0.0,69.0
592,75.0,0,480,0.0,73.0
593,61.0,0,120,0.0,48.0
594,53.0,0,120,0.0,39.0
595,68.0,240,240,0.0,57.0
596,65.0,0,240,0.0,57.0
597,44.0,240,120,0.0,70.0
598,73.0,0,480,0.0,69.0
599,51.0,240,120,0.0,40.0
600,60.0,0,120,0.0,49.0
601,68.0,0,240,0.0,64.0
602,63.0,0,240,0.0,64.0
603,45.0,240,120,0.0,71.0
604,72.0,0,480,0.0,75.0
605,54.0,240,120,0.0,40.0
606,65.0,0,120,0.0,49.0
607,72.0,0,240,0.0,58.0
608,66.0,0,240,0.0,58.0
609,44.0,240,120,0.0,72.0
610,77.0,0,480,0.0,71.0
611,54.0,0,120,0.0,41.0
612,63.0,0,120,0.0,50.0
613,66.0,0,240,0.0,66.0
614,72.0,240,240,0.0,66.0
615,44.0,240,120,0.0,73.0
616,75.0,0,480,0.0,78.0
617,60.0,240,120,0.0,51.0
618,54.0,0,120,0.0,41.0
619,66.0,0,240,0.0,60.0
620,63.0,0,240,0.0,60.0
621,46.0,240,120,0.0,73.0
622,72.0,0,480,0.0,73.0
623,54.0,240,120,0.0,42.0
624,63.0,0,120,0.0,51.0
625,70.0,0,240,0.0,68.0
626,66.0,0,240,0.0,68.0
627,47.0,240,120,0.0,74.0
628,75.0,0,480,0.0,80.0
629,62.0,0,120,0.0,52.0
630,53.0,0,120,0.0,42.0
631,65.0,0,240,0.0,62.0
632,70.0,0,240,0.0,62.0
633,47.0,240,120,0.0,77.0
634,74.0,240,480,0.0,75.0
635,56.0,0,120,0.0,44.0
636,65.0,0,120,0.0,53.0
637,74.0,0,240,0.0,71.0
638,68.0,240,240,0.0,71.0
639,47.0,240,120,0.0,77.0
640,80.0,0,480,0.0,84.0
641,65.0,0,120,0.0,53.0
642,55.0,0,120,0.0,44.0
643,67.0,240,240,0.0,71.0
644,74.0,0,240,0.0,71.0
645,48.0,240,120,0.0,77.0
646,79.0,0,480,0.0,84.0
647,55.0,240,120,0.0,44.0
648,60.0,0,120,0.0,53.0
649,72.0,0,240,0.0,82.0
650,41.0,240,120,0.0,77.0
651,64.0,0,480,0.0,70.0
652,70.0,0,480,0.0,70.0
653,53.0,0,120,0.0,44.0
654,60.0,0,120,0.0,53.0
655,65.0,0,240,0.0,63.0
656,68.0,0,240,0.0,63.0
657,77.0,240,240,0.0,77.0
658,47.0,240,120,0.0,77.0
659,65.0,0,120,0.0,53.0
660,56.0,0,120,0.0,44.0
661,68.0,0,240,0.0,70.0
662,80.0,0,240,0.0,83.0
663,74.0,240,240,0.0,70.0
664,47.0,240,120,0.0,77.0
665,65.0,0,120,0.0,53.0
666,55.0,0,120,0.0,44.0
667,67.0,240,240,0.0,71.0
668,74.0,0,240,0.0,71.0
669,79.0,0,240,0.0,84.0
670,48.0,240,120,0.0,77.0
671,55.0,0,120,0.0,44.0
672,60.0,0,120,0.0,53.0
673,72.0,0,240,0.0,82.0
674,70.0,240,240,0.0,70.0
675,64.0,0,240,0.0,70.0
676,41.0,240,120,0.0,77.0
677,53.0,0,120,0.0,44.0
678,60.0,0,120,0.0,53.0
679,68.0,0,240,0.0,63.0
680,65.0,240,240,0.0,63.0
681,77.0,0,240,0.0,77.0
682,39.0,240,120,0.0,69.0
683,51.0,240,120,0.0,39.0
684,60.0,0,120,0.0,48.0
685,72.0,0,120,0.0,62.0
686,67.0,0,120,0.0,62.0
687,79.0,0,120,0.0,74.0
688,41.0,240,120,0.0,69.0
689,53.0,0,120,0.0,39.0
690,68.0,240,120,0.0,63.0
691,60.0,0,120,0.0,48.0
692,72.0,0,120,0.0,63.0
693,80.0,0,120,0.0,75.0
694,43.0,240,120,0.0,69.0
695,60.0,0,120,0.0,48.0
696,63.0,0,120,0.0,62.0
697,67.0,0,120,0.0,62.0
698,75.0,240,120,0.0,73.0
699,55.0,0,120,0.0,39.0
700,43.0,240,120,0.0,69.0
701,59.0,0,120,0.0,48.0
702,74.0,240,120,0.0,69.0
703,65.0,0,120,0.0,57.0
704,55.0,0,120,0.0,39.0
705,67.0,0,120,0.0,57.0
706,48.0,240,120,0.0,61.0
707,60.0,240,120,0.0,42.0
708,55.0,0,120,0.0,35.0
709,67.0,0,240,0.0,56.0
710,63.0,0,240,0.0,56.0
711,41.0,240,120,0.0,61.0
712,60.0,0,120,0.0,42.0
713,53.0,0,120,0.0,35.0
714,68.0,240,240,0.0,57.0
715,65.0,0,240,0.0,57.0
716,48.0,240,120,0.0,61.0
717,55.0,0,120,0.0,35.0
718,60.0,240,120,0.0,42.0
719,67.0,0,240,0.0,56.0
720,63.0,0,240,0.0,56.0
721,41.0,240,120,0.0,61.0
722,53.0,0,120,0.0,35.0
723,60.0,0,120,0.0,42.0
724,65.0,240,240,0.0,50.0
725,72.0,0,1680,0.0,67.0
726,68.0,0,240,0.0,50.0
727,39.0,240,120,0.0,55.0
728,51.0,0,120,0.0,27.0
729,60.0,0,120,0.0,34.0
730,41.0,240,120,0.0,49.0
731,79.0,240,480,0.0,52.0
732,72.0,0,0,0.0,45.0
733,67.0,0,480,0.0,44.0
734,53.0,0,120,0.0,27.0
735,60.0,0,120,0.0,34.0
736,43.0,240,120,0.0,49.0
737,80.0,240,480,0.0,53.0
738,68.0,0,480,0.0,45.0
739,60.0,0,120,0.0,34.0
740,55.0,240,120,0.0,27.0
741,43.0,240,120,0.0,49.0
742,67.0,0,480,0.0,44.0
743,63.0,0,480,0.0,44.0
744,75.0,0,480,0.0,51.0
745,59.0,0,120,0.0,34.0
746,55.0,240,120,0.0,27.0
747,65.0,0,240,0.0,39.0
748,67.0,0,240,0.0,39.0
749,48.0,240,120,0.0,42.0
750,74.0,0,480,0.0,49.0
751,60.0,0,120,0.0,29.0
752,55.0,0,120,0.0,24.0
753,67.0,0,240,0.0,39.0
754,63.0,240,240,0.0,39.0
755,41.0,240,120,0.0,39.0
756,53.0,0,120,0.0,27.0
757,60.0,0,120,0.0,34.0
758,65.0,0,240,0.0,45.0
759,68.0,240,240,0.0,45.0
760,48.0,240,120,0.0,41.0
761,60.0,0,120,0.0,34.0
762,55.0,240,120,0.0,27.0
763,67.0,0,240,0.0,44.0
764,63.0,0,240,0.0,44.0
765,41.0,240,120,0.0,42.0
766,60.0,0,120,0.0,34.0
767,53.0,240,120,0.0,27.0
768,65.0,0,240,0.0,39.0
769,72.0,0,1680,0.0,47.0
770,68.0,0,240,0.0,39.0
771,39.0,240,120,0.0,58.0
772,51.0,240,120,0.0,35.0
773,60.0,0,120,0.0,44.0
774,41.0,240,120,0.0,64.0
775,79.0,0,480,0.0,68.0
776,67.0,0,480,0.0,57.0
777,72.0,0,0,0.0,60.0
778,53.0,0,120,0.0,36.0
779,60.0,0,120,0.0,46.0
780,44.0,240,120,0.0,68.0
781,68.0,0,480,0.0,60.0
782,72.0,0,0,0.0,59.0
783,80.0,240,480,0.0,72.0
784,56.0,0,120,0.0,37.0
785,60.0,0,120,0.0,37.0
786,65.0,0,120,0.0,47.0
787,43.0,240,120,0.0,70.0
788,77.0,0,480,0.0,59.0
789,84.0,240,480,0.0,70.0
790,67.0,0,120,0.0,49.0
791,55.0,240,120,0.0,39.0
792,62.0,0,120,0.0,39.0
793,83.0,0,240,0.0,69.0
794,79.0,0,240,0.0,53.0
795,74.0,0,240,0.0,53.0
796,48.0,240,120,0.0,71.0
797,67.0,0,120,0.0,42.0
798,60.0,240,120,0.0,34.0
799,53.0,240,120,0.0,60.0
800,82.0,0,480,0.0,63.0
801,76.0,0,480,0.0,52.0
802,70.0,0,480,0.0,52.0
803,60.0,0,120,0.0,33.0
804,65.0,240,120,0.0,40.0
805,55.0,240,120,0.0,57.0
806,80.0,0,480,0.0,64.0
807,72.0,0,480,0.0,53.0
808,68.0,0,480,0.0,53.0
809,63.0,0,120,0.0,38.0
810,60.0,0,120,0.0,30.0
811,43.0,240,120,0.0,55.0
812,75.0,0,480,0.0,50.0
813,79.0,0,480,0.0,59.0
814,67.0,0,0,0.0,39.0
815,62.0,240,120,0.0,35.0
816,55.0,0,120,0.0,27.0
817,65.0,0,240,0.0,39.0
818,48.0,240,120,0.0,49.0
819,71.0,0,480,0.0,50.0
820,55.0,240,120,0.0,27.0
821,60.0,0,120,0.0,34.0
822,64.0,0,240,0.0,44.0
823,67.0,0,240,0.0,44.0
824,47.0,240,120,0.0,49.0
825,72.0,0,480,0.0,52.0
826,61.0,0,120,0.0,34.0
827,56.0,0,120,0.0,27.0
828,68.0,0,240,0.0,39.0
829,65.0,0,240,0.0,39.0
830,48.0,240,120,0.0,49.0
831,73.0,240,480,0.0,49.0
832,55.0,0,120,0.0,27.0
833,60.0,0,120,0.0,35.0
834,64.0,0,240,0.0,45.0
835,67.0,240,240,0.0,45.0
836,47.0,240,120,0.0,50.0
837,72.0,0,480,0.0,52.0
838,62.0,0,120,0.0,35.0
839,56.0,240,120,0.0,28.0
840,68.0,0,240,0.0,41.0
841,65.0,0,240,0.0,41.0
842,48.0,240,120,0.0,51.0
843,74.0,0,480,0.0,50.0
844,60.0,0,120,0.0,35.0
845,55.0,0,120,0.0,29.0
846,67.0,240,240,0.0,47.0
847,64.0,0,240,0.0,47.0
848,47.0,240,120,0.0,51.0
849,72.0,0,480,0.0,56.0
850,56.0,0,120,0.0,29.0
851,61.0,240,120,0.0,36.0
852,65.0,0,240,0.0,42.0
853,68.0,0,240,0.0,42.0
854,48.0,240,120,0.0,52.0
855,73.0,0,480,0.0,52.0
856,55.0,0,120,0.0,29.0
857,60.0,240,120,0.0,36.0
858,64.0,0,240,0.0,49.0
859,67.0,0,240,0.0,49.0
860,47.0,240,120,0.0,52.0
861,72.0,0,480,0.0,58.0
862,62.0,0,120,0.0,37.0
863,56.0,0,120,0.0,29.0
864,68.0,240,240,0.0,44.0
865,65.0,0,240,0.0,44.0
866,48.0,240,120,0.0,53.0
867,74.0,0,480,0.0,53.0
868,60.0,240,120,0.0,37.0
869,55.0,0,120,0.0,29.0
870,67.0,0,240,0.0,49.0
871,64.0,0,240,0.0,49.0
872,47.0,240,120,0.0,52.0
873,72.0,0,480,0.0,58.0
874,56.0,0,120,0.0,29.0
875,62.0,0,120,0.0,36.0
876,65.0,240,240,0.0,42.0
877,68.0,0,240,0.0,42.0
878,48.0,240,120,0.0,52.0
879,74.0,0,480,0.0,52.0
880,60.0,0,120,0.0,36.0
881,55.0,0,120,0.0,29.0
882,67.0,240,240,0.0,48.0
883,64.0,0,240,0.0,48.0
884,47.0,240,120,0.0,51.0
885,72.0,0,480,0.0,57.0
886,56.0,0,120,0.0,29.0
887,61.0,0,120,0.0,35.0
888,68.0,0,240,0.0,41.0
889,65.0,0,240,0.0,41.0
890,48.0,240,120,0.0,51.0
891,73.0,240,480,0.0,51.0
892,60.0,240,120,0.0,35.0
893,55.0,0,120,0.0,29.0
894,64.0,0,240,0.0,47.0
895,67.0,0,240,0.0,47.0
896,47.0,240,120,0.0,50.0
897,72.0,0,480,0.0,55.0
898,56.0,0,120,0.0,28.0
899,62.0,240,120,0.0,35.0
900,65.0,0,240,0.0,40.0
901,68.0,0,240,0.0,40.0
902,47.0,240,120,0.0,49.0
903,74.0,0,480,0.0,50.0
904,63.0,240,120,0.0,34.0
905,57.0,0,120,0.0,28.0
906,66.0,0,240,0.0,45.0
907,69.0,0,240,0.0,45.0
908,40.0,240,120,0.0,49.0
909,75.0,0,480,0.0,52.0
910,62.0,240,120,0.0,34.0
911,59.0,0,120,0.0,27.0
912,52.0,0,120,0.0,27.0
913,68.0,0,240,0.0,39.0
914,64.0,0,240,0.0,39.0
915,45.0,240,120,0.0,55.0
916,76.0,0,480,0.0,49.0
917,52.0,240,120,0.0,30.0
918,60.0,0,120,0.0,38.0
919,64.0,0,240,0.0,50.0
920,69.0,0,240,0.0,50.0
921,48.0,240,120,0.0,64.0
922,76.0,240,0,0.0,60.0
923,64.0,0,120,0.0,45.0
924,57.0,0,120,0.0,37.0
925,69.0,0,240,0.0,60.0
926,47.0,240,120,0.0,64.0
927,62.0,0,120,0.0,45.0
928,53.0,0,120,0.0,37.0
929,74.0,0,240,0.0,60.0
930,69.0,240,240,0.0,59.0
931,52.0,240,120,0.0,64.0
932,81.0,0,960,0.0,70.0
933,64.0,0,120,0.0,45.0
934,59.0,0,120,0.0,37.0
935,76.0,0,240,0.0,53.0
936,80.0,0,240,0.0,64.0
937,68.0,240,240,0.0,53.0
938,48.0,240,120,0.0,55.0
939,64.0,0,120,0.0,38.0
940,57.0,240,120,0.0,30.0
941,69.0,0,240,0.0,50.0
942,76.0,0,240,0.0,50.0
943,45.0,240,120,0.0,64.0
944,64.0,0,120,0.0,45.0
945,57.0,240,120,0.0,37.0
946,76.0,0,240,0.0,60.0
947,69.0,0,240,0.0,60.0
948,50.0,240,120,0.0,64.0
949,65.0,0,120,0.0,45.0
950,57.0,0,120,0.0,37.0
951,72.0,0,240,0.0,59.0
952,77.0,240,240,0.0,60.0
953,50.0,240,120,0.0,64.0
954,84.0,0,960,0.0,70.0
955,65.0,0,120,0.0,45.0
956,56.0,0,120,0.0,37.0
957,77.0,0,240,0.0,53.0
958,71.0,240,240,0.0,53.0
959,48.0,240,120,0.0,55.0
960,83.0,0,480,0.0,64.0
961,65.0,240,120,0.0,38.0
962,57.0,0,120,0.0,31.0
963,77.0,0,120,0.0,55.0
964,69.0,0,120,0.0,48.0
965,81.0,0,240,0.0,64.0
966,48.0,240,120,0.0,61.0
967,88.0,0,120,0.0,62.0
968,64.0,0,120,0.0,44.0
969,81.0,0,120,0.0,55.0
970,57.0,240,120,0.0,37.0
971,76.0,0,120,0.0,55.0
972,47.0,240,120,0.0,63.0
973,53.0,0,120,0.0,37.0
974,86.0,0,120,0.0,64.0
975,81.0,240,120,0.0,57.0
976,62.0,0,120,0.0,45.0
977,74.0,0,120,0.0,57.0
978,40.0,240,120,0.0,66.0
979,80.0,240,120,0.0,58.0
980,76.0,0,120,0.0,58.0
981,62.0,0,120,0.0,46.0
982,59.0,0,120,0.0,38.0
983,52.0,0,120,0.0,38.0
984,88.0,0,120,0.0,66.0
985,45.0,240,120,0.0,68.0
986,76.0,0,120,0.0,58.0
987,84.0,240,120,0.0,66.0
988,72.0,0,120,0.0,58.0
989,52.0,0,120,0.0,38.0
990,60.0,0,120,0.0,46.0
991,47.0,240,120,0.0,66.0
992,68.0,0,120,0.0,56.0
993,76.0,0,120,0.0,56.0
994,80.0,0,120,0.0,63.0
995,62.0,0,120,0.0,44.0
996,52.0,240,120,0.0,37.0
997,48.0,240,120,0.0,61.0
998,81.0,0,120,0.0,58.0
999,76.0,0,120,0.0,51.0
1000,69.0,0,120,0.0,51.0
1001,52.0,0,120,0.0,35.0
1002,64.0,240,120,0.0,41.0
1003,45.0,240,120,0.0,58.0
1004,60.0,0,120,0.0,38.0
1005,52.0,240,120,0.0,31.0
1006,72.0,0,120,0.0,48.0
1007,84.0,0,120,0.0,55.0
1008,76.0,0,120,0.0,48.0
1009,40.0,240,120,0.0,55.0
1010,83.0,0,120,0.0,55.0
1011,76.0,0,120,0.0,48.0
1012,62.0,0,120,0.0,38.0
1013,71.0,0,120,0.0,48.0
1014,52.0,240,120,0.0,31.0
1015,45.0,240,120,0.0,55.0
1016,69.0,0,120,0.0,48.0
1017,76.0,240,120,0.0,48.0
1018,81.0,0,120,0.0,55.0
1019,52.0,0,120,0.0,31.0
1020,60.0,0,120,0.0,38.0
1021,47.0,240,120,0.0,55.0
1022,64.0,0,120,0.0,48.0
1023,71.0,0,120,0.0,48.0
1024,76.0,0,120,0.0,55.0
1025,56.0,0,120,0.0,31.0
1026,52.0,240,120,0.0,31.0
1027,62.0,0,120,0.0,38.0
1028,45.0,240,120,0.0,55.0
1029,69.0,0,120,0.0,48.0
1030,76.0,0,120,0.0,48.0
1031,81.0,0,120,0.0,55.0
1032,57.0,0,120,0.0,31.0
1033,60.0,0,120,0.0,38.0
1034,52.0,240,120,0.0,31.0
1035,40.0,240,120,0.0,55.0
1036,52.0,0,120,0.0,31.0
1037,62.0,0,120,0.0,38.0
1038,56.0,0,120,0.0,31.0
1039,83.0,0,120,0.0,55.0
1040,71.0,240,120,0.0,48.0
1041,76.0,0,120,0.0,48.0
1042,45.0,240,120,0.0,55.0
1043,81.0,0,120,0.0,55.0
1044,52.0,240,120,0.0,31.0
1045,60.0,0,120,0.0,38.0
1046,57.0,0,120,0.0,31.0
1047,69.0,0,120,0.0,48.0
1048,76.0,0,120,0.0,48.0
1049,47.0,240,120,0.0,56.0
1050,71.0,240,120,0.0,50.0
1051,76.0,0,120,0.0,57.0
1052,64.0,0,120,0.0,50.0
1053,52.0,0,120,0.0,35.0
1054,62.0,0,120,0.0,41.0
1055,56.0,0,120,0.0,35.0
1056,45.0,240,120,0.0,60.0
1057,76.0,0,120,0.0,53.0
1058,57.0,0,120,0.0,38.0
1059,60.0,0,120,0.0,46.0
1060,52.0,0,120,0.0,38.0
1061,69.0,0,120,0.0,53.0
1062,81.0,240,120,0.0,61.0
1063,43.0,240,120,0.0,64.0
1064,64.0,0,120,0.0,46.0
1065,71.0,0,120,0.0,58.0
1066,76.0,0,120,0.0,58.0
1067,83.0,240,120,0.0,66.0
1068,55.0,0,120,0.0,38.0
1069,45.0,240,120,0.0,68.0
1070,76.0,0,120,0.0,62.0
1071,57.0,240,120,0.0,37.0
1072,72.0,0,120,0.0,62.0
1073,84.0,0,120,0.0,72.0
1074,64.0,0,120,0.0,44.0
1075,47.0,240,120,0.0,63.0
1076,59.0,0,120,0.0,37.0
1077,64.0,0,120,0.0,45.0
1078,67.0,0,120,0.0,56.0
1079,71.0,0,120,0.0,56.0
1080,79.0,240,120,0.0,63.0
1081,47.0,240,120,0.0,62.0
1082,69.0,240,120,0.0,55.0
1083,78.0,0,120,0.0,62.0
1084,71.0,0,120,0.0,55.0
1085,63.0,0,120,0.0,44.0
1086,59.0,0,120,0.0,37.0
1087,52.0,240,120,0.0,61.0
1088,71.0,0,120,0.0,55.0
1089,68.0,240,120,0.0,55.0
1090,76.0,0,120,0.0,62.0
1091,59.0,0,120,0.0,37.0
1092,64.0,0,120,0.0,44.0
1093,51.0,240,120,0.0,60.0
1094,78.0,0,120,0.0,61.0
1095,66.0,240,120,0.0,44.0
1096,60.0,0,120,0.0,37.0
1097,69.0,0,120,0.0,53.0
1098,72.0,0,120,0.0,53.0
1099,50.0,240,120,0.0,61.0
1100,77.0,0,120,0.0,51.0
1101,79.0,0,120,0.0,58.0
1102,71.0,240,120,0.0,51.0
1103,67.0,0,120,0.0,51.0
1104,59.0,0,120,0.0,35.0
1105,65.0,0,120,0.0,41.0
1106,40.0,240,120,0.0,58.0
1107,64.0,0,120,0.0,38.0
1108,68.0,0,120,0.0,48.0
1109,71.0,240,120,0.0,48.0
1110,80.0,0,120,0.0,55.0
1111,76.0,0,120,0.0,48.0
1112,59.0,0,120,0.0,31.0
1113,45.0,240,120,0.0,55.0
1114,76.0,0,120,0.0,47.0
1115,72.0,240,120,0.0,47.0
1116,64.0,0,120,0.0,38.0
1117,57.0,0,120,0.0,31.0
1118,69.0,0,120,0.0,47.0
1119,81.0,0,120,0.0,56.0
1120,48.0,240,120,0.0,55.0
1121,57.0,240,120,0.0,31.0
1122,76.0,0,120,0.0,51.0
1123,69.0,0,120,0.0,51.0
1124,64.0,0,120,0.0,38.0
1125,47.0,240,120,0.0,55.0
1126,69.0,240,120,0.0,48.0
1127,53.0,0,120,0.0,31.0
1128,62.0,0,120,0.0,38.0
1129,74.0,0,120,0.0,57.0
1130,52.0,240,120,0.0,55.0
1131,81.0,0,960,0.0,71.0
1132,76.0,0,120,0.0,44.0
1133,68.0,0,120,0.0,44.0
1134,59.0,0,120,0.0,31.0
1135,64.0,0,120,0.0,38.0
1136,48.0,240,120,0.0,55.0
1137,80.0,240,480,0.0,53.0
1138,69.0,0,120,0.0,47.0
1139,57.0,0,120,0.0,31.0
1140,64.0,0,120,0.0,38.0
1141,76.0,0,120,0.0,56.0
1142,45.0,240,120,0.0,55.0
1143,81.0,240,480,0.0,58.0
1144,64.0,0,120,0.0,38.0
1145,57.0,0,120,0.0,31.0
1146,76.0,0,120,0.0,52.0
1147,72.0,0,120,0.0,52.0
1148,50.0,240,120,0.0,56.0
1149,72.0,0,120,0.0,47.0
1150,65.0,0,120,0.0,39.0
1151,57.0,240,120,0.0,33.0
1152,77.0,0,120,0.0,56.0
1153,50.0,240,120,0.0,58.0
1154,84.0,240,960,0.0,71.0
1155,56.0,0,120,0.0,35.0
1156,65.0,240,120,0.0,41.0
1157,71.0,0,120,0.0,47.0
1158,77.0,0,120,0.0,47.0
1159,48.0,240,120,0.0,60.0
1160,83.0,0,480,0.0,56.0
1161,65.0,0,120,0.0,41.0
1162,57.0,0,120,0.0,35.0
1163,69.0,0,120,0.0,49.0
1164,77.0,0,120,0.0,49.0
1165,48.0,240,120,0.0,61.0
1166,81.0,240,0,0.0,51.0
1167,57.0,0,120,0.0,37.0
1168,64.0,0,120,0.0,44.0
1169,76.0,0,120,0.0,51.0
1170,47.0,240,120,0.0,63.0
1171,88.0,0,480,0.0,67.0
1172,81.0,240,120,0.0,55.0
1173,74.0,0,120,0.0,55.0
1174,53.0,0,120,0.0,37.0
1175,62.0,0,120,0.0,45.0
1176,40.0,240,120,0.0,66.0
1177,86.0,0,480,0.0,70.0
1178,76.0,0,120,0.0,58.0
1179,80.0,0,120,0.0,58.0
1180,59.0,0,120,0.0,38.0
1181,52.0,0,120,0.0,38.0
1182,62.0,0,120,0.0,46.0
1183,45.0,240,120,0.0,68.0
1184,88.0,240,480,0.0,75.0
1185,52.0,240,120,0.0,38.0
1186,60.0,0,120,0.0,46.0
1187,72.0,0,240,0.0,55.0
1188,76.0,0,240,0.0,55.0
1189,84.0,0,240,0.0,70.0
1190,47.0,240,120,0.0,66.0
1191,62.0,0,120,0.0,44.0
1192,56.0,0,120,0.0,37.0
1193,52.0,0,120,0.0,37.0
1194,76.0,0,240,0.0,51.0
1195,71.0,0,240,0.0,51.0
1196,48.0,240,120,0.0,61.0
1197,83.0,240,480,0.0,66.0
1198,57.0,0,120,0.0,35.0
1199,52.0,0,120,0.0,35.0
1200,64.0,0,120,0.0,41.0
1201,76.0,0,240,0.0,47.0
1202,69.0,240,240,0.0,47.0
1203,45.0,240,120,0.0,58.0
1204,60.0,0,120,0.0,38.0
1205,52.0,0,120,0.0,31.0
1206,72.0,240,240,0.0,44.0
1207,76.0,0,240,0.0,52.0
1208,81.0,0,720,0.0,61.0
1209,40.0,240,120,0.0,55.0
1210,52.0,240,120,0.0,31.0
1211,62.0,0,120,0.0,38.0
1212,76.0,0,240,0.0,53.0
1213,71.0,0,240,0.0,53.0
1214,45.0,240,120,0.0,55.0
1215,83.0,0,480,0.0,69.0
1216,60.0,0,120,0.0,38.0
1217,52.0,0,120,0.0,31.0
1218,76.0,0,240,0.0,51.0
1219,69.0,0,240,0.0,51.0
1220,47.0,240,120,0.0,55.0
1221,81.0,240,480,0.0,66.0
1222,52.0,240,120,0.0,31.0
1223,62.0,0,120,0.0,38.0
1224,56.0,0,120,0.0,31.0
1225,71.0,0,240,0.0,50.0
1226,64.0,0,240,0.0,50.0
1227,45.0,240,120,0.0,55.0
1228,76.0,0,480,0.0,64.0
1229,52.0,0,120,0.0,31.0
1230,60.0,0,120,0.0,38.0
1231,57.0,240,120,0.0,31.0
1232,69.0,0,240,0.0,46.0
1233,76.0,0,240,0.0,46.0
1234,40.0,240,120,0.0,55.0
1235,81.0,0,480,0.0,60.0
1236,62.0,0,120,0.0,38.0
1237,52.0,240,120,0.0,31.0
1238,76.0,0,240,0.0,50.0
1239,71.0,0,240,0.0,50.0
1240,45.0,240,120,0.0,55.0
1241,83.0,0,480,0.0,64.0
1242,52.0,0,120,0.0,31.0
1243,60.0,0,120,0.0,38.0
1244,69.0,0,240,0.0,53.0
1245,76.0,0,240,0.0,53.0
1246,47.0,240,120,0.0,56.0
1247,81.0,240,480,0.0,69.0
1248,52.0,0,120,0.0,35.0
1249,62.0,0,120,0.0,41.0
1250,64.0,0,240,0.0,58.0
1251,71.0,0,240,0.0,58.0
1252,49.0,240,120,0.0,60.0
1253,76.0,240,480,0.0,75.0
1254,64.0,0,120,0.0,46.0
1255,58.0,240,120,0.0,38.0
1256,79.0,0,240,0.0,67.0
1257,70.0,0,240,0.0,57.0
1258,67.0,0,240,0.0,57.0
1259,58.0,0,120,0.0,38.0
1260,62.0,240,120,0.0,46.0
1261,66.0,0,240,0.0,61.0
1262,70.0,0,240,0.0,61.0
1263,78.0,0,240,0.0,75.0
1264,53.0,240,120,0.0,68.0
1265,58.0,0,120,0.0,37.0
1266,62.0,240,120,0.0,44.0
1267,50.0,240,960,0.0,64.0
1268,65.0,0,240,0.0,63.0
1269,70.0,0,240,0.0,63.0
1270,77.0,0,240,0.0,77.0
1271,38.0,240,120,0.0,63.0
1272,53.0,0,120,0.0,37.0
1273,58.0,0,120,0.0,45.0
1274,74.0,0,240,0.0,73.0
1275,70.0,0,240,0.0,59.0
1276,65.0,240,240,0.0,59.0
1277,40.0,240,120,0.0,62.0
1278,59.0,240,120,0.0,41.0
1279,52.0,0,120,0.0,35.0
1280,62.0,0,240,0.0,52.0
1281,71.0,0,240,0.0,63.0
1282,68.0,0,240,0.0,52.0
1283,45.0,240,120,0.0,58.0
1284,52.0,0,120,0.0,35.0
1285,57.0,240,120,0.0,41.0
1286,60.0,0,240,0.0,50.0
1287,50.0,240,120,0.0,57.0
1288,53.0,0,120,0.0,35.0
1289,57.0,240,120,0.0,41.0
1290,65.0,0,240,0.0,50.0
1291,62.0,0,240,0.0,41.0
1292,45.0,240,120,0.0,58.0
1293,57.0,240,120,0.0,39.0
1294,52.0,0,120,0.0,33.0
1295,64.0,0,240,0.0,48.0
1296,60.0,0,240,0.0,40.0
1297,50.0,240,120,0.0,55.0
1298,53.0,0,120,0.0,29.0
1299,57.0,0,120,0.0,36.0
1300,69.0,0,1680,0.0,61.0
1301,62.0,0,240,0.0,37.0
1302,65.0,240,240,0.0,45.0
1303,45.0,240,120,0.0,51.0
1304,52.0,240,120,0.0,23.0
1305,57.0,0,120,0.0,28.0
1306,36.0,240,120,0.0,45.0
1307,64.0,240,0,0.0,42.0
1308,60.0,0,480,0.0,38.0
1309,57.0,0,120,0.0,29.0
1310,52.0,0,120,0.0,24.0
1311,38.0,240,120,0.0,42.0
1312,69.0,0,480,0.0,42.0
1313,76.0,0,480,0.0,51.0
1314,58.0,240,120,0.0,29.0
1315,53.0,0,120,0.0,24.0
1316,65.0,0,240,0.0,39.0
1317,70.0,0,240,0.0,39.0
1318,40.0,240,120,0.0,41.0
1319,74.0,0,480,0.0,50.0
1320,52.0,0,120,0.0,24.0
1321,59.0,0,120,0.0,29.0
1322,45.0,240,120,0.0,44.0
1323,71.0,0,480,0.0,44.0
1324,68.0,240,480,0.0,37.0
1325,62.0,0,480,0.0,37.0
1326,57.0,0,120,0.0,30.0
1327,52.0,0,120,0.0,25.0
1328,60.0,240,240,0.0,42.0
1329,50.0,240,120,0.0,41.0
1330,57.0,0,120,0.0,28.0
1331,53.0,240,120,0.0,23.0
1332,62.0,0,240,0.0,37.0
1333,65.0,0,240,0.0,45.0
1334,45.0,240,120,0.0,39.0
1335,52.0,0,120,0.0,25.0
1336,57.0,0,120,0.0,30.0
1337,60.0,240,240,0.0,40.0
1338,64.0,0,240,0.0,47.0
1339,50.0,240,120,0.0,38.0
1340,57.0,0,120,0.0,33.0
1341,53.0,0,120,0.0,27.0
1342,62.0,240,240,0.0,39.0
1343,65.0,0,240,0.0,48.0
1344,45.0,240,120,0.0,40.0
1345,57.0,240,120,0.0,34.0
1346,52.0,0,120,0.0,28.0
1347,64.0,0,240,0.0,50.0
1348,60.0,0,240,0.0,41.0
1349,48.0,240,120,0.0,64.0
1350,69.0,0,2400,0.0,50.0
1351,55.0,0,120,0.0,39.0
1352,64.0,0,120,0.0,48.0
1353,69.0,0,240,0.0,63.0
1354,47.0,240,120,0.0,62.0
1355,76.0,0,480,0.0,75.0
1356,65.0,0,120,0.0,48.0
1357,59.0,0,120,0.0,39.0
1358,69.0,240,240,0.0,62.0
1359,75.0,0,240,0.0,62.0
1360,52.0,240,120,0.0,62.0
1361,81.0,0,480,0.0,73.0
1362,64.0,0,120,0.0,48.0
1363,59.0,0,120,0.0,39.0
1364,76.0,0,240,0.0,57.0
1365,68.0,0,240,0.0,57.0
1366,45.0,240,120,0.0,69.0
1367,80.0,240,480,0.0,69.0
1368,57.0,0,120,0.0,39.0
1369,64.0,0,120,0.0,48.0
1370,73.0,0,240,0.0,62.0
1371,67.0,240,240,0.0,62.0
1372,50.0,240,120,0.0,59.0
1373,79.0,0,480,0.0,73.0
1374,62.0,0,120,0.0,48.0
1375,57.0,240,120,0.0,39.0
1376,74.0,0,240,0.0,57.0
1377,66.0,0,240,0.0,57.0
1378,38.0,240,120,0.0,59.0
1379,78.0,0,480,0.0,69.0
1380,58.0,240,120,0.0,40.0
1381,53.0,0,120,0.0,33.0
1382,65.0,0,240,0.0,52.0
1383,70.0,0,240,0.0,52.0
1384,40.0,240,120,0.0,41.0
1385,77.0,0,480,0.0,62.0
1386,59.0,0,120,0.0,29.0
1387,52.0,0,120,0.0,24.0
1388,45.0,240,120,0.0,44.0
1389,71.0,0,480,0.0,44.0
1390,68.0,0,480,0.0,37.0
1391,62.0,240,480,0.0,37.0
1392,52.0,0,120,0.0,25.0
1393,57.0,0,120,0.0,30.0
1394,60.0,240,240,0.0,42.0
1395,65.0,0,240,0.0,42.0
1396,50.0,240,120,0.0,41.0
1397,57.0,0,120,0.0,30.0
1398,53.0,240,120,0.0,25.0
1399,69.0,0,720,0.0,50.0
1400,65.0,0,240,0.0,48.0
1401,62.0,0,240,0.0,39.0
1402,38.0,240,120,0.0,39.0
1403,58.0,0,120,0.0,30.0
1404,53.0,240,120,0.0,25.0
1405,40.0,240,120,0.0,38.0
1406,70.0,0,480,0.0,40.0
1407,74.0,0,480,0.0,47.0
1408,52.0,0,120,0.0,24.0
1409,59.0,0,120,0.0,28.0
1410,41.0,240,120,0.0,36.0
1411,62.0,240,480,0.0,35.0
1412,71.0,0,480,0.0,42.0
1413,68.0,0,480,0.0,35.0
1414,57.0,0,120,0.0,29.0
1415,53.0,0,120,0.0,25.0
1416,36.0,240,120,0.0,55.0
1417,60.0,240,480,0.0,37.0
1418,69.0,0,480,0.0,45.0
1419,48.0,240,120,0.0,30.0
1420,57.0,0,120,0.0,38.0
1421,38.0,240,120,0.0,55.0
1422,64.0,0,480,0.0,50.0
1423,69.0,0,480,0.0,50.0
1424,76.0,0,480,0.0,60.0
1425,58.0,0,120,0.0,38.0
1426,50.0,0,120,0.0,30.0
1427,40.0,240,120,0.0,55.0
1428,70.0,0,480,0.0,49.0
1429,65.0,240,480,0.0,49.0
1430,74.0,0,480,0.0,58.0
1431,59.0,0,120,0.0,38.0
1432,52.0,0,120,0.0,30.0
1433,45.0,240,120,0.0,41.0
1434,68.0,0,480,0.0,55.0
1435,62.0,240,480,0.0,45.0
1436,52.0,0,120,0.0,23.0
1437,57.0,240,120,0.0,28.0
1438,60.0,0,240,0.0,40.0
1439,50.0,240,120,0.0,39.0
1440,57.0,0,120,0.0,28.0
1441,53.0,0,120,0.0,23.0
1442,62.0,240,240,0.0,37.0
1443,65.0,0,240,0.0,45.0
1444,45.0,240,120,0.0,38.0
1445,69.0,0,960,0.0,47.0
1446,57.0,0,120,0.0,29.0
1447,52.0,240,120,0.0,24.0
1448,60.0,0,240,0.0,39.0
1449,64.0,0,240,0.0,46.0
1450,50.0,240,120,0.0,36.0
1451,72.0,0,480,0.0,46.0
1452,57.0,0,120,0.0,30.0
1453,53.0,0,120,0.0,26.0
1454,62.0,240,240,0.0,37.0
1455,65.0,0,240,0.0,38.0
1456,45.0,240,120,0.0,39.0
1457,70.0,0,480,0.0,42.0
1458,52.0,0,120,0.0,20.0
1459,57.0,240,120,0.0,26.0
1460,60.0,0,240,0.0,37.0
1461,50.0,240,120,0.0,36.0
1462,53.0,0,120,0.0,20.0
1463,57.0,0,120,0.0,25.0
1464,62.0,240,240,0.0,33.0
1465,65.0,0,240,0.0,40.0
1466,45.0,240,120,0.0,35.0
1467,69.0,0,960,0.0,42.0
1468,52.0,0,120,0.0,22.0
1469,57.0,240,120,0.0,26.0
1470,60.0,0,240,0.0,35.0
1471,64.0,0,240,0.0,41.0
1472,72.0,0,480,0.0,41.0
1473,45.0,240,240,0.0,33.0
1474,58.0,0,240,0.0,28.0
1475,50.0,0,240,0.0,23.0
1476,70.0,240,240,0.0,38.0
1477,65.0,0,240,0.0,35.0
1478,62.0,0,240,0.0,34.0
1479,58.0,120,1560,0.0,33.0
1480,50.0,120,1800,0.0,27.0
1481,70.0,120,2160,0.0,41.0
1482,74.0,2160,480,0.0,41.0
1483,65.0,120,3240,0.0,35.0
1484,62.0,120,3360,0.0,35.0
1485,73.0,480,480,0.0,41.0
1486,45.0,480,0,0.0,27.0
1487,53.0,120,3600,0.0,33.0
1488,64.0,120,1440,0.0,35.0
1489,69.0,120,1320,0.0,41.0
1490,52.0,120,1800,0.0,27.0
1491,57.0,120,1680,0.0,33.0
1492,61.0,120,1560,0.0,35.0
