,note,step,duration,channel,velocity
0,70.0,960,0,0.0,74.0
1,70.0,240,120,0.0,70.0
2,70.0,240,960,0.0,79.0
3,70.0,960,120,0.0,75.0
4,70.0,240,120,0.0,69.0
5,70.0,240,480,0.0,78.0
6,70.0,480,120,0.0,72.0
7,70.0,240,120,0.0,67.0
8,70.0,240,480,0.0,74.0
9,70.0,480,120,0.0,69.0
10,70.0,240,120,0.0,66.0
11,70.0,480,0,0.0,59.0
12,70.0,240,120,0.0,59.0
13,70.0,240,540,0.0,72.0
14,46.0,0,720,0.0,40.0
15,74.0,0,260,0.0,60.0
16,65.0,0,0,0.0,51.0
17,68.0,0,0,0.0,51.0
18,58.0,240,0,0.0,51.0
19,75.0,240,260,0.0,49.0
20,77.0,0,480,0.0,57.0
21,74.0,0,480,0.0,57.0
22,70.0,480,240,0.0,67.0
23,51.0,0,720,0.0,40.0
24,75.0,0,260,0.0,64.0
25,63.0,480,480,0.0,46.0
26,58.0,0,480,0.0,46.0
27,67.0,240,0,0.0,50.0
28,77.0,240,260,0.0,48.0
29,79.0,0,480,0.0,56.0
30,75.0,0,480,0.0,56.0
31,58.0,0,480,0.0,50.0
32,63.0,0,480,0.0,50.0
33,70.0,480,240,0.0,72.0
34,50.0,0,720,0.0,44.0
35,77.0,480,260,0.0,67.0
36,58.0,0,480,0.0,54.0
37,65.0,0,0,0.0,59.0
38,68.0,240,0,0.0,59.0
39,79.0,240,260,0.0,52.0
40,80.0,0,480,0.0,75.0
41,77.0,0,480,0.0,75.0
42,58.0,0,480,0.0,59.0
43,51.0,0,240,0.0,69.0
44,61.0,0,240,0.0,62.0
45,67.0,0,240,0.0,62.0
46,58.0,480,240,0.0,62.0
47,73.0,0,960,0.0,82.0
48,82.0,0,0,0.0,68.0
49,79.0,0,0,0.0,68.0
50,82.0,0,0,0.0,58.0
51,79.0,0,0,0.0,58.0
52,73.0,240,0,0.0,58.0
53,52.0,480,480,0.0,70.0
54,82.0,0,0,0.0,63.0
55,53.0,240,240,0.0,36.0
56,56.0,0,240,0.0,33.0
57,65.0,0,240,0.0,33.0
58,84.0,480,260,0.0,52.0
59,73.0,0,960,0.0,63.0
60,82.0,240,260,0.0,48.0
61,79.0,0,980,0.0,63.0
62,80.0,0,240,0.0,54.0
63,44.0,0,240,0.0,37.0
64,72.0,240,240,0.0,54.0
65,46.0,0,240,0.0,58.0
66,80.0,0,500,0.0,67.0
67,82.0,480,260,0.0,47.0
68,55.0,0,480,0.0,31.0
69,71.0,480,960,0.0,67.0
70,63.0,0,0,0.0,44.0
71,80.0,240,260,0.0,44.0
72,79.0,0,240,0.0,54.0
73,70.0,0,240,0.0,54.0
74,55.0,240,480,0.0,44.0
75,46.0,480,240,0.0,37.0
76,79.0,0,500,0.0,66.0
77,80.0,0,260,0.0,59.0
78,53.0,0,480,0.0,38.0
79,62.0,480,480,0.0,38.0
80,70.0,0,960,0.0,66.0
81,79.0,240,260,0.0,53.0
82,77.0,0,240,0.0,59.0
83,68.0,0,240,0.0,59.0
84,62.0,0,480,0.0,45.0
85,58.0,240,480,0.0,45.0
86,77.0,480,500,0.0,64.0
87,79.0,0,260,0.0,60.0
88,63.0,0,0,0.0,57.0
89,58.0,0,0,0.0,57.0
90,68.0,0,960,0.0,64.0
91,77.0,240,260,0.0,49.0
92,67.0,0,240,0.0,53.0
93,75.0,240,240,0.0,53.0
94,51.0,0,1440,0.0,28.0
95,70.0,0,240,0.0,65.0
96,46.0,480,720,0.0,61.0
97,74.0,480,260,0.0,49.0
98,58.0,0,480,0.0,32.0
99,65.0,0,480,0.0,32.0
100,68.0,240,0,0.0,32.0
101,75.0,240,260,0.0,60.0
102,77.0,0,480,0.0,63.0
103,65.0,0,480,0.0,32.0
104,74.0,0,480,0.0,63.0
105,58.0,0,480,0.0,32.0
106,70.0,0,240,0.0,69.0
107,51.0,480,720,0.0,43.0
108,75.0,0,260,0.0,68.0
109,67.0,0,480,0.0,37.0
110,63.0,0,0,0.0,48.0
111,58.0,480,480,0.0,37.0
112,77.0,240,260,0.0,64.0
113,67.0,0,480,0.0,48.0
114,79.0,240,480,0.0,73.0
115,75.0,0,480,0.0,73.0
116,58.0,0,480,0.0,48.0
117,70.0,480,240,0.0,76.0
118,50.0,0,720,0.0,60.0
119,77.0,0,260,0.0,72.0
120,58.0,0,480,0.0,62.0
121,65.0,0,0,0.0,66.0
122,68.0,0,0,0.0,66.0
123,79.0,240,260,0.0,62.0
124,77.0,240,480,0.0,75.0
125,58.0,0,480,0.0,66.0
126,80.0,0,480,0.0,75.0
127,51.0,480,240,0.0,61.0
128,73.0,0,720,0.0,89.0
129,67.0,0,240,0.0,42.0
130,61.0,0,240,0.0,42.0
131,58.0,480,240,0.0,42.0
132,79.0,0,0,0.0,74.0
133,82.0,240,0,0.0,74.0
134,79.0,0,240,0.0,73.0
135,52.0,0,480,0.0,32.0
136,73.0,240,480,0.0,80.0
137,82.0,240,240,0.0,73.0
138,53.0,0,240,0.0,43.0
139,82.0,240,260,0.0,72.0
140,65.0,0,240,0.0,49.0
141,56.0,0,240,0.0,49.0
142,84.0,240,260,0.0,64.0
143,73.0,240,960,0.0,64.0
144,82.0,240,260,0.0,58.0
145,44.0,240,240,0.0,37.0
146,80.0,0,240,0.0,54.0
147,72.0,0,240,0.0,54.0
148,46.0,480,240,0.0,43.0
149,80.0,240,260,0.0,69.0
150,82.0,0,260,0.0,65.0
151,55.0,0,480,0.0,31.0
152,63.0,240,480,0.0,31.0
153,71.0,0,960,0.0,65.0
154,80.0,240,260,0.0,63.0
155,79.0,0,240,0.0,51.0
156,70.0,0,240,0.0,51.0
157,63.0,240,480,0.0,41.0
158,55.0,0,480,0.0,41.0
159,46.0,0,240,0.0,33.0
160,79.0,240,260,0.0,46.0
161,80.0,240,260,0.0,58.0
162,70.0,480,960,0.0,63.0
163,53.0,0,480,0.0,40.0
164,62.0,0,480,0.0,40.0
165,79.0,240,260,0.0,45.0
166,62.0,0,480,0.0,27.0
167,68.0,240,480,0.0,50.0
168,77.0,0,480,0.0,50.0
169,75.0,0,240,0.0,59.0
170,67.0,480,240,0.0,59.0
171,51.0,0,480,0.0,44.0
172,58.0,0,960,0.0,27.0
173,63.0,0,480,0.0,44.0
174,70.0,480,120,0.0,57.0
175,70.0,240,120,0.0,50.0
176,70.0,240,120,0.0,56.0
177,70.0,240,120,0.0,58.0
178,70.0,240,540,0.0,78.0
179,46.0,0,720,0.0,26.0
180,74.0,480,260,0.0,65.0
181,58.0,0,480,0.0,38.0
182,68.0,0,0,0.0,34.0
183,65.0,240,0,0.0,34.0
184,75.0,240,260,0.0,57.0
185,58.0,0,480,0.0,34.0
186,74.0,0,480,0.0,66.0
187,77.0,0,480,0.0,66.0
188,70.0,480,240,0.0,69.0
189,51.0,0,720,0.0,34.0
190,75.0,0,260,0.0,66.0
191,63.0,0,0,0.0,57.0
192,67.0,0,0,0.0,57.0
193,58.0,0,0,0.0,57.0
194,77.0,240,260,0.0,56.0
195,79.0,240,480,0.0,73.0
196,75.0,0,480,0.0,73.0
197,70.0,0,240,0.0,77.0
198,50.0,480,720,0.0,71.0
199,77.0,0,260,0.0,75.0
200,58.0,0,480,0.0,52.0
201,65.0,0,0,0.0,56.0
202,68.0,0,0,0.0,56.0
203,79.0,240,260,0.0,58.0
204,58.0,0,480,0.0,56.0
205,77.0,240,480,0.0,75.0
206,80.0,0,480,0.0,75.0
207,51.0,480,240,0.0,62.0
208,67.0,480,240,0.0,56.0
209,61.0,0,240,0.0,56.0
210,58.0,0,240,0.0,56.0
211,73.0,0,960,0.0,85.0
212,82.0,0,0,0.0,69.0
213,79.0,480,0,0.0,69.0
214,73.0,0,240,0.0,69.0
215,73.0,0,240,0.0,47.0
216,52.0,0,480,0.0,37.0
217,79.0,240,240,0.0,47.0
218,82.0,0,240,0.0,47.0
219,53.0,0,240,0.0,40.0
220,82.0,0,500,0.0,65.0
221,65.0,0,240,0.0,34.0
222,56.0,0,240,0.0,34.0
223,84.0,480,260,0.0,53.0
224,73.0,240,960,0.0,65.0
225,79.0,0,960,0.0,65.0
226,82.0,240,260,0.0,49.0
227,72.0,240,240,0.0,51.0
228,80.0,0,240,0.0,51.0
229,44.0,0,240,0.0,38.0
230,46.0,0,240,0.0,31.0
231,80.0,480,500,0.0,68.0
232,82.0,480,260,0.0,47.0
233,71.0,0,960,0.0,68.0
234,55.0,0,480,0.0,33.0
235,63.0,240,0,0.0,43.0
236,80.0,240,260,0.0,46.0
237,70.0,0,240,0.0,53.0
238,79.0,0,240,0.0,53.0
239,55.0,0,480,0.0,43.0
240,46.0,480,240,0.0,50.0
241,79.0,0,500,0.0,68.0
242,80.0,0,260,0.0,51.0
243,53.0,0,480,0.0,37.0
244,62.0,240,0,0.0,27.0
245,70.0,0,960,0.0,68.0
246,79.0,240,260,0.0,49.0
247,77.0,0,240,0.0,61.0
248,68.0,0,240,0.0,61.0
249,58.0,0,480,0.0,27.0
250,77.0,480,500,0.0,74.0
251,79.0,480,260,0.0,69.0
252,63.0,0,480,0.0,36.0
253,68.0,0,960,0.0,74.0
254,58.0,0,0,0.0,42.0
255,77.0,240,260,0.0,53.0
256,67.0,0,240,0.0,68.0
257,75.0,240,240,0.0,68.0
258,51.0,0,1440,0.0,33.0
259,63.0,0,480,0.0,42.0
260,70.0,0,240,0.0,70.0
261,46.0,480,720,0.0,58.0
262,74.0,0,260,0.0,68.0
263,68.0,480,480,0.0,47.0
264,65.0,240,0,0.0,44.0
265,58.0,0,480,0.0,47.0
266,75.0,240,260,0.0,60.0
267,68.0,0,480,0.0,44.0
268,77.0,0,480,0.0,63.0
269,74.0,0,480,0.0,63.0
270,58.0,0,480,0.0,44.0
271,70.0,480,240,0.0,72.0
272,51.0,0,720,0.0,49.0
273,75.0,0,260,0.0,65.0
274,58.0,480,480,0.0,43.0
275,67.0,0,480,0.0,43.0
276,63.0,0,0,0.0,64.0
277,77.0,240,260,0.0,60.0
278,58.0,0,480,0.0,64.0
279,79.0,0,480,0.0,68.0
280,67.0,0,480,0.0,64.0
281,75.0,240,480,0.0,68.0
282,70.0,480,240,0.0,76.0
283,50.0,0,720,0.0,67.0
284,77.0,0,260,0.0,77.0
285,68.0,480,480,0.0,49.0
286,65.0,0,480,0.0,49.0
287,58.0,240,0,0.0,61.0
288,79.0,240,260,0.0,70.0
289,68.0,0,480,0.0,61.0
290,65.0,0,480,0.0,61.0
291,77.0,0,480,0.0,77.0
292,80.0,0,480,0.0,77.0
293,51.0,480,240,0.0,65.0
294,61.0,0,240,0.0,48.0
295,58.0,0,240,0.0,48.0
296,67.0,480,240,0.0,48.0
297,73.0,0,720,0.0,84.0
298,79.0,0,0,0.0,72.0
299,82.0,240,0,0.0,72.0
300,82.0,0,240,0.0,65.0
301,52.0,240,480,0.0,49.0
302,73.0,0,480,0.0,80.0
303,79.0,240,240,0.0,65.0
304,53.0,240,240,0.0,44.0
305,82.0,240,260,0.0,58.0
306,65.0,0,240,0.0,33.0
307,56.0,240,240,0.0,33.0
308,84.0,0,260,0.0,48.0
309,73.0,0,960,0.0,67.0
310,82.0,240,260,0.0,60.0
311,80.0,240,240,0.0,54.0
312,44.0,0,240,0.0,28.0
313,72.0,0,240,0.0,54.0
314,46.0,480,240,0.0,26.0
315,80.0,240,260,0.0,69.0
316,82.0,0,260,0.0,45.0
317,55.0,0,480,0.0,34.0
318,63.0,240,480,0.0,34.0
319,71.0,0,960,0.0,70.0
320,80.0,240,260,0.0,65.0
321,79.0,0,240,0.0,55.0
322,70.0,0,240,0.0,55.0
323,63.0,240,480,0.0,38.0
324,55.0,0,480,0.0,38.0
325,46.0,480,240,0.0,30.0
326,79.0,240,260,0.0,50.0
327,80.0,240,260,0.0,44.0
328,53.0,0,480,0.0,36.0
329,70.0,0,960,0.0,65.0
330,62.0,0,0,0.0,24.0
331,79.0,240,260,0.0,62.0
332,77.0,240,480,0.0,57.0
333,68.0,0,480,0.0,57.0
334,58.0,0,480,0.0,24.0
335,67.0,480,240,0.0,48.0
336,75.0,0,240,0.0,48.0
337,75.0,0,120,0.0,53.0
338,75.0,240,120,0.0,64.0
339,63.0,480,480,0.0,45.0
340,55.0,240,0,0.0,52.0
341,51.0,0,960,0.0,30.0
342,75.0,0,120,0.0,67.0
343,75.0,240,120,0.0,69.0
344,51.0,0,480,0.0,52.0
345,61.0,0,480,0.0,52.0
346,75.0,0,120,0.0,75.0
347,75.0,240,120,0.0,64.0
348,75.0,0,120,0.0,75.0
349,44.0,240,720,0.0,25.0
350,75.0,240,120,0.0,74.0
351,60.0,0,480,0.0,33.0
352,56.0,0,480,0.0,33.0
353,51.0,0,0,0.0,41.0
354,75.0,240,120,0.0,69.0
355,75.0,240,120,0.0,69.0
356,56.0,0,480,0.0,41.0
357,60.0,0,480,0.0,41.0
358,77.0,0,260,0.0,65.0
359,75.0,240,260,0.0,58.0
360,44.0,240,720,0.0,33.0
361,72.0,240,260,0.0,56.0
362,60.0,0,480,0.0,33.0
363,51.0,0,0,0.0,37.0
364,56.0,0,0,0.0,37.0
365,68.0,240,260,0.0,49.0
366,63.0,240,240,0.0,49.0
367,64.0,240,240,0.0,51.0
368,60.0,0,480,0.0,37.0
369,65.0,0,120,0.0,58.0
370,65.0,240,120,0.0,51.0
371,65.0,240,120,0.0,55.0
372,44.0,240,720,0.0,37.0
373,65.0,240,120,0.0,51.0
374,56.0,0,480,0.0,26.0
375,50.0,0,480,0.0,26.0
376,59.0,0,480,0.0,26.0
377,65.0,0,120,0.0,54.0
378,65.0,240,120,0.0,58.0
379,50.0,240,480,0.0,32.0
380,56.0,0,480,0.0,32.0
381,59.0,0,480,0.0,32.0
382,63.0,240,260,0.0,61.0
383,68.0,240,260,0.0,53.0
384,44.0,0,720,0.0,38.0
385,72.0,0,260,0.0,48.0
386,60.0,0,480,0.0,29.0
387,51.0,240,0,0.0,48.0
388,56.0,240,480,0.0,29.0
389,75.0,240,260,0.0,64.0
390,80.0,0,260,0.0,61.0
391,60.0,0,480,0.0,48.0
392,76.0,240,240,0.0,52.0
393,56.0,0,480,0.0,48.0
394,77.0,240,120,0.0,52.0
395,77.0,240,120,0.0,44.0
396,77.0,240,120,0.0,68.0
397,50.0,0,720,0.0,55.0
398,77.0,240,120,0.0,60.0
399,59.0,0,0,0.0,36.0
400,56.0,240,0,0.0,36.0
401,65.0,0,480,0.0,24.0
402,77.0,0,120,0.0,53.0
403,77.0,240,120,0.0,73.0
404,65.0,0,480,0.0,36.0
405,77.0,0,180,0.0,77.0
406,79.0,160,180,0.0,55.0
407,77.0,160,180,0.0,55.0
408,51.0,240,720,0.0,44.0
409,75.0,160,260,0.0,65.0
410,60.0,0,480,0.0,32.0
411,63.0,0,480,0.0,32.0
412,68.0,0,480,0.0,32.0
413,80.0,240,260,0.0,57.0
414,84.0,0,240,0.0,51.0
415,63.0,0,480,0.0,42.0
416,68.0,0,480,0.0,42.0
417,60.0,240,480,0.0,42.0
418,89.0,0,500,0.0,66.0
419,51.0,480,720,0.0,20.0
420,87.0,480,260,0.0,51.0
421,61.0,0,480,0.0,20.0
422,63.0,0,480,0.0,20.0
423,67.0,0,0,0.0,30.0
424,85.0,240,260,0.0,45.0
425,79.0,240,240,0.0,50.0
426,63.0,0,480,0.0,30.0
427,61.0,0,480,0.0,30.0
428,82.0,0,500,0.0,58.0
429,56.0,480,720,0.0,34.0
430,80.0,0,260,0.0,43.0
431,60.0,0,0,0.0,38.0
432,63.0,240,0,0.0,38.0
433,68.0,0,480,0.0,23.0
434,75.0,240,260,0.0,44.0
435,72.0,0,240,0.0,38.0
436,68.0,0,480,0.0,38.0
437,75.0,0,120,0.0,48.0
438,75.0,240,120,0.0,44.0
439,75.0,0,120,0.0,65.0
440,44.0,480,720,0.0,34.0
441,75.0,240,120,0.0,69.0
442,56.0,240,480,0.0,31.0
443,51.0,0,480,0.0,31.0
444,60.0,240,0,0.0,49.0
445,75.0,0,120,0.0,63.0
446,75.0,240,120,0.0,71.0
447,51.0,0,480,0.0,49.0
448,56.0,0,480,0.0,49.0
449,77.0,240,260,0.0,61.0
450,75.0,240,260,0.0,59.0
451,44.0,0,720,0.0,47.0
452,72.0,0,260,0.0,52.0
453,60.0,240,0,0.0,52.0
454,56.0,0,480,0.0,35.0
455,51.0,0,480,0.0,35.0
456,68.0,240,260,0.0,52.0
457,63.0,0,240,0.0,47.0
458,64.0,240,240,0.0,55.0
459,56.0,0,480,0.0,52.0
460,51.0,0,480,0.0,52.0
461,65.0,240,120,0.0,57.0
462,65.0,240,120,0.0,47.0
463,65.0,0,120,0.0,59.0
464,44.0,0,720,0.0,40.0
465,65.0,240,120,0.0,55.0
466,50.0,0,480,0.0,35.0
467,59.0,240,480,0.0,35.0
468,56.0,0,0,0.0,31.0
469,65.0,0,120,0.0,61.0
470,65.0,240,120,0.0,63.0
471,59.0,0,480,0.0,31.0
472,50.0,240,480,0.0,31.0
473,63.0,240,260,0.0,58.0
474,68.0,240,260,0.0,54.0
475,44.0,0,720,0.0,38.0
476,72.0,240,260,0.0,50.0
477,51.0,0,480,0.0,30.0
478,56.0,240,0,0.0,36.0
479,60.0,0,0,0.0,36.0
480,75.0,240,260,0.0,43.0
481,80.0,0,260,0.0,52.0
482,76.0,240,240,0.0,47.0
483,51.0,0,480,0.0,36.0
484,77.0,0,120,0.0,58.0
485,77.0,240,120,0.0,50.0
486,77.0,240,120,0.0,61.0
487,50.0,240,720,0.0,38.0
488,77.0,240,120,0.0,57.0
489,56.0,0,0,0.0,36.0
490,65.0,0,0,0.0,36.0
491,59.0,240,0,0.0,36.0
492,77.0,0,120,0.0,65.0
493,77.0,240,120,0.0,65.0
494,77.0,0,180,0.0,75.0
495,79.0,160,180,0.0,55.0
496,77.0,160,180,0.0,55.0
497,51.0,240,720,0.0,44.0
498,75.0,0,260,0.0,66.0
499,63.0,0,480,0.0,29.0
500,60.0,160,480,0.0,29.0
501,68.0,0,480,0.0,29.0
502,80.0,240,260,0.0,64.0
503,84.0,240,240,0.0,60.0
504,60.0,0,480,0.0,44.0
505,68.0,0,480,0.0,44.0
506,63.0,0,480,0.0,44.0
507,89.0,0,500,0.0,67.0
508,51.0,480,720,0.0,27.0
509,87.0,480,260,0.0,52.0
510,63.0,240,0,0.0,37.0
511,61.0,0,480,0.0,32.0
512,67.0,0,0,0.0,37.0
513,85.0,240,260,0.0,48.0
514,79.0,0,240,0.0,52.0
515,61.0,0,480,0.0,37.0
516,60.0,0,480,0.0,35.0
517,68.0,480,480,0.0,35.0
518,80.0,480,960,0.0,65.0
519,74.0,0,80,0.0,55.0
520,72.0,80,80,0.0,49.0
521,74.0,80,80,0.0,65.0
522,72.0,80,80,0.0,53.0
523,71.0,80,80,0.0,67.0
524,56.0,0,1440,0.0,44.0
525,65.0,480,480,0.0,47.0
526,72.0,80,80,0.0,56.0
527,68.0,0,480,0.0,47.0
528,70.0,0,500,0.0,87.0
529,46.0,80,720,0.0,86.0
530,74.0,0,260,0.0,62.0
531,65.0,0,480,0.0,55.0
532,58.0,480,480,0.0,55.0
533,68.0,240,0,0.0,65.0
534,75.0,240,260,0.0,62.0
535,77.0,0,480,0.0,67.0
536,74.0,0,480,0.0,67.0
537,58.0,0,480,0.0,65.0
538,65.0,0,480,0.0,65.0
539,70.0,480,240,0.0,85.0
540,51.0,0,720,0.0,74.0
541,75.0,480,260,0.0,73.0
542,58.0,0,0,0.0,62.0
543,63.0,240,0,0.0,62.0
544,67.0,0,0,0.0,62.0
545,77.0,240,260,0.0,69.0
546,75.0,0,480,0.0,76.0
547,79.0,0,480,0.0,76.0
548,70.0,0,240,0.0,87.0
549,50.0,480,720,0.0,65.0
550,77.0,0,260,0.0,73.0
551,58.0,480,480,0.0,56.0
552,65.0,0,480,0.0,56.0
553,68.0,0,480,0.0,56.0
554,79.0,240,260,0.0,68.0
555,58.0,240,480,0.0,69.0
556,68.0,0,480,0.0,69.0
557,77.0,0,480,0.0,83.0
558,80.0,0,480,0.0,83.0
559,65.0,0,480,0.0,69.0
560,51.0,0,240,0.0,61.0
561,61.0,480,240,0.0,61.0
562,58.0,0,240,0.0,61.0
563,67.0,0,240,0.0,61.0
564,82.0,0,960,0.0,77.0
565,73.0,0,0,0.0,75.0
566,79.0,0,0,0.0,75.0
567,82.0,0,240,0.0,75.0
568,52.0,480,240,0.0,38.0
569,82.0,240,240,0.0,69.0
570,73.0,0,0,0.0,70.0
571,79.0,240,0,0.0,70.0
572,53.0,0,240,0.0,38.0
573,82.0,0,500,0.0,70.0
574,65.0,0,240,0.0,41.0
575,56.0,480,240,0.0,41.0
576,84.0,0,260,0.0,59.0
577,82.0,240,260,0.0,50.0
578,44.0,240,240,0.0,36.0
579,72.0,0,240,0.0,53.0
580,80.0,0,240,0.0,53.0
581,46.0,480,240,0.0,31.0
582,80.0,0,500,0.0,69.0
583,82.0,0,260,0.0,47.0
584,71.0,0,960,0.0,69.0
585,63.0,0,0,0.0,41.0
586,55.0,0,0,0.0,41.0
587,80.0,240,260,0.0,46.0
588,70.0,0,240,0.0,52.0
589,79.0,240,240,0.0,52.0
590,46.0,0,240,0.0,39.0
591,79.0,0,500,0.0,66.0
592,80.0,0,260,0.0,53.0
593,62.0,0,480,0.0,26.0
594,53.0,480,480,0.0,26.0
595,70.0,480,960,0.0,66.0
596,79.0,240,260,0.0,47.0
597,68.0,0,240,0.0,56.0
598,77.0,0,240,0.0,56.0
599,58.0,240,480,0.0,34.0
600,62.0,0,480,0.0,34.0
601,77.0,0,500,0.0,64.0
602,79.0,0,260,0.0,52.0
603,68.0,480,960,0.0,64.0
604,63.0,480,480,0.0,33.0
605,58.0,0,0,0.0,53.0
606,77.0,240,260,0.0,48.0
607,67.0,240,240,0.0,53.0
608,75.0,0,240,0.0,53.0
609,51.0,0,1440,0.0,23.0
610,63.0,0,480,0.0,53.0
611,70.0,480,240,0.0,44.0
612,46.0,0,480,0.0,37.0
613,74.0,240,240,0.0,46.0
614,75.0,0,240,0.0,57.0
615,68.0,0,0,0.0,35.0
616,65.0,240,480,0.0,32.0
617,58.0,0,480,0.0,32.0
618,76.0,240,240,0.0,44.0
619,77.0,240,480,0.0,56.0
620,65.0,0,480,0.0,35.0
621,58.0,0,480,0.0,35.0
622,74.0,0,480,0.0,56.0
623,70.0,0,240,0.0,65.0
624,74.0,240,240,0.0,63.0
625,51.0,480,480,0.0,41.0
626,75.0,240,240,0.0,57.0
627,77.0,240,240,0.0,51.0
628,67.0,0,480,0.0,45.0
629,58.0,0,480,0.0,45.0
630,63.0,0,480,0.0,45.0
631,63.0,0,480,0.0,41.0
632,58.0,0,480,0.0,41.0
633,75.0,0,480,0.0,64.0
634,67.0,240,480,0.0,41.0
635,79.0,0,480,0.0,64.0
636,70.0,480,240,0.0,68.0
637,76.0,240,240,0.0,73.0
638,50.0,0,480,0.0,52.0
639,77.0,0,240,0.0,70.0
640,79.0,240,240,0.0,64.0
641,58.0,240,480,0.0,67.0
642,65.0,0,480,0.0,67.0
643,68.0,0,480,0.0,67.0
644,68.0,0,480,0.0,56.0
645,58.0,0,480,0.0,56.0
646,77.0,240,480,0.0,80.0
647,80.0,0,480,0.0,80.0
648,65.0,0,480,0.0,56.0
649,51.0,0,240,0.0,66.0
650,82.0,0,720,0.0,74.0
651,58.0,0,240,0.0,54.0
652,67.0,480,240,0.0,54.0
653,61.0,0,240,0.0,54.0
654,73.0,0,720,0.0,74.0
655,79.0,240,0,0.0,44.0
656,82.0,0,240,0.0,44.0
657,82.0,0,240,0.0,52.0
658,73.0,0,480,0.0,62.0
659,79.0,240,240,0.0,52.0
660,52.0,240,480,0.0,42.0
661,53.0,240,240,0.0,20.0
662,82.0,240,260,0.0,56.0
663,65.0,0,240,0.0,32.0
664,56.0,0,240,0.0,32.0
665,84.0,240,260,0.0,54.0
666,73.0,0,960,0.0,48.0
667,82.0,240,260,0.0,51.0
668,44.0,240,240,0.0,30.0
669,80.0,0,240,0.0,56.0
670,72.0,0,240,0.0,56.0
671,46.0,0,240,0.0,37.0
672,80.0,240,260,0.0,51.0
673,82.0,240,260,0.0,54.0
674,55.0,0,480,0.0,29.0
675,63.0,240,0,0.0,34.0
676,71.0,480,960,0.0,47.0
677,80.0,240,260,0.0,50.0
678,70.0,0,240,0.0,50.0
679,79.0,0,240,0.0,50.0
680,55.0,0,480,0.0,34.0
681,46.0,480,240,0.0,33.0
682,79.0,240,260,0.0,46.0
683,80.0,240,260,0.0,59.0
684,62.0,0,0,0.0,41.0
685,53.0,0,480,0.0,33.0
686,70.0,0,960,0.0,63.0
687,79.0,240,260,0.0,54.0
688,77.0,0,480,0.0,50.0
689,68.0,0,480,0.0,50.0
690,67.0,0,240,0.0,45.0
691,75.0,480,240,0.0,45.0
692,51.0,0,480,0.0,36.0
693,58.0,240,960,0.0,41.0
694,63.0,0,480,0.0,36.0
695,75.0,480,120,0.0,59.0
696,75.0,240,120,0.0,52.0
697,75.0,0,120,0.0,61.0
698,75.0,240,120,0.0,57.0
699,55.0,240,480,0.0,32.0
700,51.0,0,480,0.0,32.0
701,61.0,0,480,0.0,32.0
702,75.0,0,120,0.0,64.0
703,75.0,240,120,0.0,67.0
704,44.0,240,480,0.0,27.0
705,75.0,0,120,0.0,70.0
706,75.0,240,120,0.0,64.0
707,51.0,240,0,0.0,44.0
708,56.0,0,480,0.0,27.0
709,60.0,0,480,0.0,27.0
710,75.0,0,120,0.0,71.0
711,75.0,240,120,0.0,67.0
712,60.0,0,480,0.0,44.0
713,56.0,0,480,0.0,44.0
714,77.0,0,240,0.0,61.0
715,75.0,240,240,0.0,57.0
716,44.0,240,480,0.0,39.0
717,72.0,240,240,0.0,50.0
718,60.0,240,0,0.0,33.0
719,56.0,0,0,0.0,33.0
720,51.0,0,0,0.0,33.0
721,68.0,240,240,0.0,56.0
722,63.0,0,240,0.0,51.0
723,64.0,240,240,0.0,55.0
724,65.0,0,120,0.0,68.0
725,65.0,240,120,0.0,62.0
726,44.0,240,480,0.0,47.0
727,65.0,0,120,0.0,62.0
728,65.0,240,120,0.0,53.0
729,59.0,240,0,0.0,29.0
730,56.0,240,480,0.0,29.0
731,50.0,0,0,0.0,29.0
732,65.0,0,120,0.0,55.0
733,65.0,240,120,0.0,62.0
734,56.0,0,480,0.0,29.0
735,63.0,240,240,0.0,68.0
736,44.0,0,480,0.0,43.0
737,68.0,240,240,0.0,55.0
738,72.0,0,240,0.0,50.0
739,56.0,240,480,0.0,31.0
740,51.0,0,480,0.0,31.0
741,60.0,240,0,0.0,38.0
742,75.0,240,240,0.0,58.0
743,80.0,0,240,0.0,59.0
744,51.0,0,480,0.0,38.0
745,56.0,0,480,0.0,38.0
746,76.0,240,240,0.0,56.0
747,77.0,0,120,0.0,41.0
748,77.0,240,120,0.0,63.0
749,50.0,240,480,0.0,44.0
750,77.0,0,120,0.0,61.0
751,77.0,240,120,0.0,63.0
752,65.0,0,480,0.0,29.0
753,59.0,0,0,0.0,40.0
754,56.0,240,0,0.0,40.0
755,77.0,0,120,0.0,58.0
756,77.0,240,120,0.0,54.0
757,65.0,0,480,0.0,40.0
758,77.0,240,160,0.0,58.0
759,79.0,160,160,0.0,52.0
760,77.0,160,160,0.0,52.0
761,51.0,0,480,0.0,45.0
762,75.0,0,240,0.0,55.0
763,80.0,240,240,0.0,68.0
764,68.0,240,0,0.0,50.0
765,60.0,0,0,0.0,50.0
766,63.0,0,0,0.0,50.0
767,84.0,0,240,0.0,49.0
768,89.0,0,480,0.0,55.0
769,51.0,480,480,0.0,40.0
770,87.0,0,240,0.0,55.0
771,67.0,0,480,0.0,35.0
772,63.0,480,480,0.0,35.0
773,61.0,0,480,0.0,35.0
774,85.0,240,240,0.0,51.0
775,79.0,0,240,0.0,55.0
776,63.0,0,480,0.0,37.0
777,61.0,240,480,0.0,37.0
778,67.0,0,480,0.0,37.0
779,82.0,480,480,0.0,60.0
780,80.0,0,240,0.0,58.0
781,75.0,240,240,0.0,50.0
782,63.0,0,0,0.0,45.0
783,60.0,0,0,0.0,45.0
784,68.0,240,0,0.0,45.0
785,72.0,0,240,0.0,38.0
786,56.0,0,1440,0.0,45.0
787,75.0,0,120,0.0,48.0
788,75.0,240,120,0.0,55.0
789,44.0,480,480,0.0,27.0
790,75.0,0,120,0.0,66.0
791,75.0,240,120,0.0,73.0
792,51.0,0,480,0.0,34.0
793,56.0,0,480,0.0,34.0
794,60.0,240,480,0.0,34.0
795,75.0,240,120,0.0,69.0
796,75.0,240,120,0.0,64.0
797,51.0,0,480,0.0,41.0
798,56.0,0,480,0.0,41.0
799,60.0,0,480,0.0,41.0
800,77.0,240,240,0.0,53.0
801,75.0,240,240,0.0,61.0
802,44.0,0,480,0.0,33.0
803,72.0,240,240,0.0,50.0
804,51.0,0,480,0.0,37.0
805,60.0,240,0,0.0,37.0
806,56.0,0,0,0.0,37.0
807,68.0,240,240,0.0,40.0
808,63.0,0,240,0.0,48.0
809,64.0,240,240,0.0,43.0
810,51.0,0,480,0.0,37.0
811,65.0,0,120,0.0,43.0
812,65.0,240,120,0.0,50.0
813,44.0,240,480,0.0,35.0
814,65.0,0,120,0.0,53.0
815,65.0,240,120,0.0,56.0
816,59.0,240,480,0.0,35.0
817,50.0,0,0,0.0,35.0
818,56.0,0,0,0.0,35.0
819,65.0,240,120,0.0,46.0
820,65.0,240,120,0.0,43.0
821,59.0,0,480,0.0,35.0
822,63.0,0,240,0.0,48.0
823,68.0,240,240,0.0,48.0
824,44.0,240,480,0.0,38.0
825,72.0,240,240,0.0,45.0
826,51.0,0,480,0.0,28.0
827,60.0,0,480,0.0,28.0
828,75.0,240,240,0.0,61.0
829,56.0,0,0,0.0,41.0
830,80.0,240,240,0.0,52.0
831,76.0,240,240,0.0,45.0
832,60.0,0,480,0.0,41.0
833,51.0,0,480,0.0,41.0
834,77.0,240,120,0.0,50.0
835,77.0,240,120,0.0,45.0
836,50.0,0,480,0.0,32.0
837,77.0,0,120,0.0,60.0
838,77.0,240,120,0.0,65.0
839,56.0,240,480,0.0,25.0
840,65.0,0,480,0.0,25.0
841,59.0,240,0,0.0,31.0
842,77.0,0,120,0.0,66.0
843,77.0,240,120,0.0,51.0
844,65.0,0,480,0.0,31.0
845,56.0,0,480,0.0,31.0
846,77.0,240,160,0.0,70.0
847,79.0,160,160,0.0,55.0
848,77.0,160,160,0.0,48.0
849,75.0,0,240,0.0,55.0
850,60.0,0,480,0.0,25.0
851,63.0,160,480,0.0,25.0
852,56.0,0,480,0.0,25.0
853,80.0,240,240,0.0,51.0
854,84.0,0,240,0.0,46.0
855,56.0,0,480,0.0,33.0
856,51.0,0,1440,0.0,33.0
857,63.0,240,480,0.0,33.0
858,60.0,0,480,0.0,33.0
859,89.0,480,480,0.0,55.0
860,87.0,0,240,0.0,42.0
861,85.0,240,240,0.0,39.0
862,63.0,0,480,0.0,25.0
863,61.0,0,480,0.0,25.0
864,67.0,0,0,0.0,25.0
865,79.0,240,240,0.0,47.0
866,51.0,0,1440,0.0,44.0
867,61.0,0,480,0.0,25.0
868,63.0,0,480,0.0,25.0
869,44.0,480,480,0.0,17.0
870,60.0,0,480,0.0,24.0
871,51.0,480,480,0.0,24.0
872,80.0,0,960,0.0,57.0
873,68.0,480,480,0.0,55.0
874,44.0,480,240,0.0,34.0
875,75.0,0,980,0.0,62.0
876,60.0,480,500,0.0,44.0
877,78.0,0,980,0.0,62.0
878,51.0,0,500,0.0,44.0
879,66.0,0,480,0.0,37.0
880,56.0,0,480,0.0,37.0
881,71.0,480,500,0.0,48.0
882,74.0,0,500,0.0,48.0
883,72.0,0,240,0.0,48.0
884,75.0,480,240,0.0,48.0
885,44.0,0,240,0.0,37.0
886,68.0,480,120,0.0,50.0
887,68.0,240,120,0.0,42.0
888,60.0,0,500,0.0,29.0
889,51.0,0,500,0.0,29.0
890,68.0,240,480,0.0,56.0
891,66.0,0,480,0.0,29.0
892,56.0,0,480,0.0,29.0
893,49.0,0,240,0.0,37.0
894,82.0,0,980,0.0,60.0
895,78.0,480,980,0.0,60.0
896,61.0,0,500,0.0,34.0
897,53.0,480,500,0.0,34.0
898,56.0,0,480,0.0,41.0
899,65.0,480,480,0.0,41.0
900,76.0,0,500,0.0,48.0
901,79.0,0,500,0.0,48.0
902,49.0,0,240,0.0,31.0
903,80.0,0,240,0.0,49.0
904,77.0,480,240,0.0,49.0
905,68.0,0,120,0.0,49.0
906,68.0,240,120,0.0,42.0
907,53.0,0,500,0.0,26.0
908,61.0,480,500,0.0,26.0
909,65.0,0,480,0.0,32.0
910,56.0,0,480,0.0,32.0
911,68.0,240,480,0.0,55.0
912,44.0,0,240,0.0,40.0
913,51.0,0,500,0.0,35.0
914,78.0,480,980,0.0,58.0
915,75.0,0,980,0.0,58.0
916,60.0,480,500,0.0,35.0
917,66.0,0,480,0.0,41.0
918,56.0,0,480,0.0,41.0
919,71.0,480,500,0.0,44.0
920,74.0,0,500,0.0,44.0
921,72.0,0,240,0.0,48.0
922,44.0,480,240,0.0,37.0
923,75.0,0,240,0.0,48.0
924,68.0,0,120,0.0,51.0
925,68.0,240,120,0.0,43.0
926,51.0,480,500,0.0,25.0
927,60.0,0,500,0.0,25.0
928,56.0,0,480,0.0,37.0
929,66.0,0,480,0.0,37.0
930,68.0,240,480,0.0,52.0
931,70.0,480,480,0.0,53.0
932,78.0,0,480,0.0,53.0
933,68.0,0,480,0.0,45.0
934,77.0,480,480,0.0,45.0
935,56.0,0,480,0.0,37.0
936,60.0,0,480,0.0,18.0
937,66.0,480,480,0.0,49.0
938,75.0,0,480,0.0,49.0
939,49.0,480,0,0.0,29.0
940,65.0,0,240,0.0,47.0
941,61.0,0,240,0.0,29.0
942,73.0,0,240,0.0,47.0
943,68.0,0,120,0.0,40.0
944,68.0,240,120,0.0,36.0
945,61.0,480,500,0.0,36.0
946,53.0,0,500,0.0,36.0
947,68.0,240,480,0.0,40.0
948,56.0,0,480,0.0,36.0
949,65.0,0,480,0.0,36.0
950,44.0,0,240,0.0,36.0
951,75.0,0,980,0.0,47.0
952,60.0,480,500,0.0,31.0
953,51.0,0,500,0.0,31.0
954,78.0,480,980,0.0,47.0
955,56.0,0,480,0.0,39.0
956,66.0,480,480,0.0,39.0
957,71.0,0,500,0.0,42.0
958,74.0,0,500,0.0,42.0
959,44.0,0,240,0.0,40.0
960,75.0,0,240,0.0,42.0
961,72.0,480,240,0.0,42.0
962,68.0,0,120,0.0,44.0
963,68.0,240,120,0.0,39.0
964,51.0,0,500,0.0,36.0
965,60.0,480,500,0.0,36.0
966,68.0,0,480,0.0,53.0
967,66.0,240,480,0.0,32.0
968,56.0,0,480,0.0,32.0
969,37.0,0,240,0.0,45.0
970,53.0,480,500,0.0,30.0
971,61.0,0,500,0.0,30.0
972,78.0,480,980,0.0,64.0
973,82.0,0,980,0.0,64.0
974,56.0,0,480,0.0,53.0
975,65.0,480,480,0.0,53.0
976,76.0,0,500,0.0,52.0
977,79.0,0,500,0.0,52.0
978,77.0,0,240,0.0,52.0
979,80.0,0,240,0.0,52.0
980,49.0,480,240,0.0,32.0
981,68.0,480,120,0.0,45.0
982,68.0,240,120,0.0,36.0
983,53.0,0,500,0.0,44.0
984,61.0,0,500,0.0,44.0
985,65.0,0,480,0.0,39.0
986,56.0,240,480,0.0,39.0
987,68.0,0,480,0.0,55.0
988,42.0,0,240,0.0,38.0
989,80.0,480,240,0.0,63.0
990,80.0,240,240,0.0,49.0
991,70.0,480,480,0.0,63.0
992,62.0,0,500,0.0,43.0
993,54.0,0,500,0.0,43.0
994,58.0,240,480,0.0,37.0
995,63.0,0,480,0.0,37.0
996,44.0,480,240,0.0,37.0
997,75.0,0,960,0.0,56.0
998,78.0,240,0,0.0,46.0
999,68.0,0,480,0.0,53.0
1000,60.0,0,500,0.0,30.0
1001,53.0,480,500,0.0,30.0
1002,56.0,0,480,0.0,46.0
1003,61.0,240,480,0.0,46.0
1004,44.0,480,240,0.0,33.0
1005,73.0,0,960,0.0,50.0
1006,77.0,0,1200,0.0,50.0
1007,77.0,240,240,0.0,40.0
1008,51.0,0,480,0.0,30.0
1009,66.0,0,480,0.0,40.0
1010,60.0,480,480,0.0,30.0
1011,56.0,240,0,0.0,36.0
1012,51.0,0,480,0.0,36.0
1013,60.0,0,480,0.0,36.0
1014,66.0,0,480,0.0,38.0
1015,75.0,0,480,0.0,38.0
1016,61.0,0,480,0.0,45.0
1017,56.0,0,480,0.0,45.0
1018,73.0,480,480,0.0,36.0
1019,49.0,0,480,0.0,45.0
1020,65.0,0,480,0.0,36.0
1021,68.0,480,120,0.0,43.0
1022,68.0,240,120,0.0,35.0
1023,68.0,240,480,0.0,43.0
1024,44.0,0,240,0.0,47.0
1025,78.0,480,980,0.0,48.0
1026,60.0,480,500,0.0,44.0
1027,51.0,0,500,0.0,44.0
1028,75.0,0,980,0.0,48.0
1029,56.0,0,480,0.0,49.0
1030,66.0,480,480,0.0,49.0
1031,71.0,0,500,0.0,45.0
1032,74.0,0,500,0.0,45.0
1033,72.0,0,240,0.0,45.0
1034,75.0,480,240,0.0,45.0
1035,44.0,0,240,0.0,42.0
1036,68.0,480,120,0.0,47.0
1037,68.0,240,120,0.0,42.0
1038,51.0,0,500,0.0,39.0
1039,60.0,0,500,0.0,39.0
1040,68.0,0,480,0.0,56.0
1041,66.0,0,480,0.0,39.0
1042,56.0,240,480,0.0,39.0
1043,49.0,480,240,0.0,51.0
1044,61.0,0,500,0.0,45.0
1045,53.0,480,500,0.0,45.0
1046,82.0,0,980,0.0,60.0
1047,78.0,0,980,0.0,60.0
1048,65.0,480,480,0.0,50.0
1049,56.0,0,480,0.0,50.0
1050,79.0,0,500,0.0,48.0
1051,76.0,0,500,0.0,48.0
1052,80.0,480,240,0.0,49.0
1053,49.0,0,240,0.0,52.0
1054,77.0,0,240,0.0,49.0
1055,68.0,0,120,0.0,47.0
1056,68.0,240,120,0.0,40.0
1057,61.0,480,500,0.0,37.0
1058,53.0,0,500,0.0,37.0
1059,68.0,240,480,0.0,55.0
1060,56.0,0,480,0.0,34.0
1061,65.0,0,480,0.0,34.0
1062,44.0,0,240,0.0,45.0
1063,78.0,0,980,0.0,58.0
1064,75.0,480,980,0.0,58.0
1065,51.0,480,500,0.0,34.0
1066,60.0,0,500,0.0,34.0
1067,66.0,0,480,0.0,41.0
1068,56.0,0,480,0.0,41.0
1069,74.0,480,500,0.0,44.0
1070,71.0,0,500,0.0,44.0
1071,75.0,0,240,0.0,48.0
1072,72.0,480,240,0.0,48.0
1073,44.0,0,240,0.0,43.0
1074,68.0,0,120,0.0,44.0
1075,68.0,240,120,0.0,39.0
1076,60.0,480,500,0.0,28.0
1077,51.0,0,500,0.0,28.0
1078,56.0,0,480,0.0,43.0
1079,68.0,240,480,0.0,52.0
1080,66.0,0,480,0.0,43.0
1081,78.0,0,480,0.0,53.0
1082,70.0,0,480,0.0,53.0
1083,68.0,480,480,0.0,46.0
1084,77.0,0,480,0.0,46.0
1085,56.0,0,480,0.0,40.0
1086,75.0,0,480,0.0,49.0
1087,66.0,0,480,0.0,49.0
1088,60.0,480,480,0.0,28.0
1089,49.0,480,1440,0.0,44.0
1090,73.0,0,240,0.0,47.0
1091,65.0,480,240,0.0,47.0
1092,49.0,0,240,0.0,29.0
1093,61.0,0,240,0.0,29.0
1094,68.0,0,120,0.0,40.0
1095,53.0,0,240,0.0,35.0
1096,61.0,480,240,0.0,35.0
1097,68.0,240,120,0.0,33.0
1098,65.0,0,240,0.0,35.0
1099,56.0,0,240,0.0,35.0
1100,68.0,240,480,0.0,40.0
1101,44.0,480,240,0.0,35.0
1102,78.0,0,980,0.0,47.0
1103,75.0,0,980,0.0,47.0
1104,51.0,480,500,0.0,38.0
1105,60.0,0,500,0.0,38.0
1106,66.0,0,480,0.0,40.0
1107,56.0,480,480,0.0,40.0
1108,74.0,0,500,0.0,42.0
1109,71.0,0,500,0.0,42.0
1110,75.0,0,240,0.0,42.0
1111,44.0,0,240,0.0,61.0
1112,72.0,480,240,0.0,42.0
1113,68.0,480,120,0.0,37.0
1114,68.0,240,120,0.0,29.0
1115,60.0,0,500,0.0,49.0
1116,51.0,0,500,0.0,49.0
1117,68.0,240,480,0.0,53.0
1118,56.0,0,480,0.0,57.0
1119,66.0,0,480,0.0,57.0
1120,37.0,0,240,0.0,61.0
1121,78.0,480,980,0.0,64.0
1122,53.0,0,500,0.0,47.0
1123,82.0,0,980,0.0,64.0
1124,61.0,480,500,0.0,47.0
1125,65.0,0,480,0.0,57.0
1126,56.0,480,480,0.0,57.0
1127,76.0,0,500,0.0,52.0
1128,79.0,0,500,0.0,52.0
1129,77.0,0,240,0.0,52.0
1130,49.0,480,240,0.0,53.0
1131,80.0,0,240,0.0,52.0
1132,68.0,480,120,0.0,45.0
1133,68.0,240,120,0.0,41.0
1134,61.0,0,480,0.0,40.0
1135,53.0,0,480,0.0,40.0
1136,65.0,0,480,0.0,48.0
1137,56.0,240,480,0.0,48.0
1138,68.0,0,480,0.0,55.0
1139,80.0,480,240,0.0,63.0
1140,42.0,0,240,0.0,49.0
1141,80.0,240,240,0.0,49.0
1142,70.0,0,480,0.0,63.0
1143,54.0,480,500,0.0,43.0
1144,62.0,0,500,0.0,43.0
1145,63.0,0,480,0.0,48.0
1146,58.0,240,480,0.0,48.0
1147,44.0,480,240,0.0,42.0
1148,75.0,0,960,0.0,56.0
1149,78.0,0,1200,0.0,56.0
1150,78.0,240,240,0.0,46.0
1151,68.0,0,480,0.0,53.0
1152,53.0,0,500,0.0,28.0
1153,60.0,480,500,0.0,28.0
1154,61.0,0,480,0.0,41.0
1155,56.0,240,480,0.0,41.0
1156,44.0,480,240,0.0,43.0
1157,73.0,0,960,0.0,50.0
1158,77.0,240,0,0.0,40.0
1159,60.0,240,0,0.0,46.0
1160,66.0,480,480,0.0,40.0
1161,51.0,0,0,0.0,46.0
1162,56.0,0,480,0.0,29.0
1163,56.0,0,480,0.0,46.0
1164,75.0,0,480,0.0,38.0
1165,66.0,0,480,0.0,38.0
1166,61.0,480,480,0.0,46.0
1167,49.0,0,480,0.0,46.0
1168,56.0,0,480,0.0,46.0
1169,73.0,0,480,0.0,36.0
1170,65.0,0,480,0.0,36.0
1171,49.0,0,240,0.0,67.0
1172,56.0,960,240,0.0,67.0
1173,61.0,0,240,0.0,67.0
1174,65.0,0,240,0.0,77.0
1175,77.0,0,240,0.0,77.0
1176,77.0,420,60,0.0,69.0
1177,75.0,0,240,0.0,82.0
1178,67.0,60,240,0.0,82.0
1179,51.0,0,240,0.0,73.0
1180,61.0,0,240,0.0,73.0
1181,58.0,0,240,0.0,73.0
1182,67.0,480,240,0.0,68.0
1183,77.0,420,60,0.0,55.0
1184,51.0,0,240,0.0,67.0
1185,75.0,0,240,0.0,67.0
1186,67.0,60,240,0.0,67.0
1187,61.0,0,240,0.0,67.0
1188,58.0,0,240,0.0,67.0
1189,67.0,0,240,0.0,81.0
1190,58.0,480,240,0.0,73.0
1191,61.0,0,240,0.0,73.0
1192,51.0,0,240,0.0,73.0
1193,77.0,420,60,0.0,59.0
1194,67.0,0,240,0.0,69.0
1195,75.0,60,240,0.0,69.0
1196,67.0,0,240,0.0,66.0
1197,61.0,480,240,0.0,52.0
1198,58.0,0,240,0.0,52.0
1199,51.0,0,240,0.0,52.0
1200,68.0,0,240,0.0,59.0
1201,72.0,240,240,0.0,47.0
1202,44.0,480,480,0.0,36.0
1203,75.0,0,240,0.0,53.0
1204,51.0,0,0,0.0,37.0
1205,56.0,0,480,0.0,32.0
1206,80.0,240,240,0.0,53.0
1207,60.0,240,0,0.0,37.0
1208,84.0,0,240,0.0,59.0
1209,56.0,0,480,0.0,37.0
1210,80.0,0,160,0.0,63.0
1211,82.0,160,160,0.0,44.0
1212,44.0,480,480,0.0,38.0
1213,80.0,160,160,0.0,51.0
1214,50.0,0,240,0.0,39.0
1215,77.0,0,240,0.0,36.0
1216,53.0,240,240,0.0,29.0
1217,56.0,160,480,0.0,39.0
1218,59.0,0,480,0.0,39.0
1219,74.0,0,240,0.0,58.0
1220,75.0,0,240,0.0,63.0
1221,60.0,0,240,0.0,50.0
1222,56.0,0,240,0.0,50.0
1223,51.0,240,240,0.0,50.0
1224,77.0,420,60,0.0,64.0
1225,67.0,0,240,0.0,78.0
1226,61.0,0,240,0.0,76.0
1227,58.0,0,240,0.0,76.0
1228,51.0,60,240,0.0,76.0
1229,75.0,0,240,0.0,78.0
1230,67.0,480,240,0.0,60.0
1231,77.0,420,60,0.0,53.0
1232,61.0,0,240,0.0,63.0
1233,58.0,0,240,0.0,63.0
1234,75.0,60,240,0.0,71.0
1235,67.0,0,240,0.0,71.0
1236,51.0,0,240,0.0,63.0
1237,58.0,0,240,0.0,68.0
1238,67.0,480,240,0.0,81.0
1239,61.0,0,240,0.0,68.0
1240,51.0,0,240,0.0,68.0
1241,77.0,420,60,0.0,51.0
1242,75.0,0,240,0.0,72.0
1243,67.0,60,240,0.0,72.0
1244,67.0,480,240,0.0,72.0
1245,61.0,0,240,0.0,45.0
1246,58.0,0,240,0.0,45.0
1247,51.0,0,240,0.0,45.0
1248,63.0,480,160,0.0,64.0
1249,65.0,160,160,0.0,52.0
1250,63.0,160,160,0.0,60.0
1251,39.0,0,480,0.0,40.0
1252,62.0,160,240,0.0,44.0
1253,61.0,240,0,0.0,37.0
1254,55.0,0,480,0.0,39.0
1255,63.0,240,240,0.0,54.0
1256,72.0,0,240,0.0,58.0
1257,70.0,240,240,0.0,53.0
1258,51.0,0,480,0.0,37.0
1259,68.0,0,60,0.0,48.0
1260,70.0,60,60,0.0,41.0
1261,68.0,60,120,0.0,64.0
1262,67.0,120,240,0.0,49.0
1263,44.0,240,480,0.0,48.0
1264,68.0,240,240,0.0,71.0
1265,70.0,240,240,0.0,66.0
1266,56.0,0,480,0.0,36.0
1267,60.0,0,0,0.0,45.0
1268,72.0,240,240,0.0,77.0
1269,73.0,240,180,0.0,56.0
1270,77.0,180,60,0.0,69.0
1271,51.0,0,480,0.0,45.0
1272,51.0,0,240,0.0,72.0
1273,61.0,0,240,0.0,72.0
1274,75.0,60,240,0.0,85.0
1275,67.0,0,240,0.0,85.0
1276,58.0,0,240,0.0,72.0
1277,67.0,480,240,0.0,63.0
1278,77.0,420,60,0.0,57.0
1279,67.0,60,240,0.0,70.0
1280,75.0,0,240,0.0,70.0
1281,51.0,0,240,0.0,64.0
1282,58.0,0,240,0.0,64.0
1283,61.0,0,240,0.0,64.0
1284,58.0,0,240,0.0,73.0
1285,61.0,480,240,0.0,73.0
1286,51.0,0,240,0.0,73.0
1287,67.0,0,240,0.0,86.0
1288,77.0,420,60,0.0,67.0
1289,67.0,0,240,0.0,74.0
1290,75.0,60,240,0.0,74.0
1291,67.0,480,240,0.0,65.0
1292,61.0,0,240,0.0,51.0
1293,58.0,0,240,0.0,51.0
1294,51.0,0,240,0.0,51.0
1295,68.0,480,240,0.0,57.0
1296,72.0,240,240,0.0,38.0
1297,44.0,0,480,0.0,46.0
1298,75.0,0,240,0.0,43.0
1299,80.0,240,240,0.0,53.0
1300,60.0,0,0,0.0,42.0
1301,56.0,0,0,0.0,42.0
1302,51.0,240,0,0.0,42.0
1303,84.0,0,240,0.0,57.0
1304,80.0,480,160,0.0,67.0
1305,82.0,160,160,0.0,52.0
1306,80.0,160,160,0.0,58.0
1307,44.0,0,480,0.0,49.0
1308,50.0,0,240,0.0,44.0
1309,77.0,0,240,0.0,64.0
1310,59.0,160,480,0.0,44.0
1311,56.0,0,0,0.0,51.0
1312,53.0,240,240,0.0,29.0
1313,74.0,0,240,0.0,50.0
1314,75.0,0,240,0.0,68.0
1315,60.0,240,240,0.0,51.0
1316,51.0,0,240,0.0,51.0
1317,77.0,420,60,0.0,67.0
1318,51.0,0,240,0.0,68.0
1319,58.0,0,240,0.0,68.0
1320,61.0,60,240,0.0,68.0
1321,67.0,0,240,0.0,81.0
1322,75.0,0,240,0.0,81.0
1323,67.0,480,240,0.0,72.0
1324,77.0,420,60,0.0,67.0
1325,75.0,60,240,0.0,72.0
1326,51.0,0,240,0.0,63.0
1327,58.0,0,240,0.0,63.0
1328,61.0,0,240,0.0,63.0
1329,67.0,0,240,0.0,72.0
1330,51.0,0,240,0.0,71.0
1331,61.0,0,240,0.0,71.0
1332,58.0,480,240,0.0,71.0
1333,67.0,0,240,0.0,86.0
1334,77.0,420,60,0.0,64.0
1335,67.0,60,240,0.0,72.0
1336,75.0,0,240,0.0,72.0
1337,51.0,0,240,0.0,36.0
1338,58.0,0,240,0.0,36.0
1339,67.0,480,240,0.0,63.0
1340,61.0,0,240,0.0,36.0
1341,68.0,0,60,0.0,45.0
1342,70.0,60,60,0.0,37.0
1343,68.0,60,120,0.0,46.0
1344,60.0,0,480,0.0,45.0
1345,67.0,120,240,0.0,39.0
1346,56.0,480,480,0.0,45.0
1347,68.0,240,240,0.0,58.0
1348,70.0,240,240,0.0,53.0
1349,72.0,240,240,0.0,58.0
1350,73.0,240,240,0.0,54.0
1351,75.0,240,240,0.0,60.0
1352,77.0,240,240,0.0,57.0
1353,78.0,240,240,0.0,67.0
1354,79.0,240,240,0.0,59.0
1355,82.0,240,360,0.0,68.0
1356,80.0,360,120,0.0,47.0
1357,44.0,120,240,0.0,38.0
1358,75.0,0,980,0.0,55.0
1359,60.0,0,500,0.0,44.0
1360,51.0,480,500,0.0,44.0
1361,78.0,0,980,0.0,55.0
1362,56.0,480,480,0.0,36.0
1363,66.0,0,480,0.0,36.0
1364,74.0,0,500,0.0,48.0
1365,71.0,0,500,0.0,48.0
1366,75.0,0,240,0.0,48.0
1367,44.0,0,240,0.0,43.0
1368,72.0,480,240,0.0,48.0
1369,68.0,480,120,0.0,43.0
1370,68.0,240,120,0.0,37.0
1371,60.0,0,500,0.0,35.0
1372,51.0,0,500,0.0,35.0
1373,56.0,0,480,0.0,39.0
1374,68.0,240,480,0.0,56.0
1375,66.0,0,480,0.0,39.0
1376,37.0,480,240,0.0,51.0
1377,61.0,480,500,0.0,37.0
1378,53.0,0,500,0.0,37.0
1379,78.0,0,980,0.0,60.0
1380,82.0,0,980,0.0,60.0
1381,56.0,480,480,0.0,45.0
1382,65.0,0,480,0.0,45.0
1383,76.0,0,500,0.0,48.0
1384,79.0,0,500,0.0,48.0
1385,77.0,0,240,0.0,49.0
1386,49.0,480,240,0.0,37.0
1387,80.0,0,240,0.0,49.0
1388,68.0,0,120,0.0,42.0
1389,68.0,240,120,0.0,35.0
1390,53.0,0,500,0.0,40.0
1391,61.0,480,500,0.0,40.0
1392,56.0,0,480,0.0,39.0
1393,65.0,240,480,0.0,39.0
1394,68.0,0,480,0.0,55.0
1395,44.0,0,240,0.0,38.0
1396,75.0,480,980,0.0,58.0
1397,78.0,0,980,0.0,58.0
1398,51.0,0,500,0.0,45.0
1399,60.0,480,500,0.0,45.0
1400,56.0,0,480,0.0,45.0
1401,66.0,480,480,0.0,45.0
1402,71.0,0,500,0.0,44.0
1403,74.0,0,500,0.0,44.0
1404,72.0,0,240,0.0,48.0
1405,75.0,0,240,0.0,48.0
1406,44.0,480,240,0.0,44.0
1407,68.0,0,120,0.0,44.0
1408,68.0,240,120,0.0,44.0
1409,60.0,480,500,0.0,42.0
1410,51.0,0,500,0.0,42.0
1411,56.0,0,480,0.0,34.0
1412,66.0,240,480,0.0,34.0
1413,68.0,0,480,0.0,52.0
1414,78.0,0,480,0.0,53.0
1415,70.0,0,480,0.0,53.0
1416,77.0,0,480,0.0,51.0
1417,68.0,480,480,0.0,51.0
1418,56.0,0,480,0.0,46.0
1419,49.0,480,1440,0.0,38.0
1420,60.0,0,480,0.0,45.0
1421,66.0,0,480,0.0,49.0
1422,75.0,480,480,0.0,49.0
1423,61.0,0,240,0.0,43.0
1424,49.0,480,240,0.0,43.0
1425,73.0,0,240,0.0,47.0
1426,65.0,0,240,0.0,47.0
1427,68.0,0,120,0.0,40.0
1428,61.0,0,240,0.0,36.0
1429,53.0,480,240,0.0,36.0
1430,68.0,240,120,0.0,37.0
1431,56.0,240,240,0.0,36.0
1432,65.0,0,240,0.0,36.0
1433,68.0,0,480,0.0,40.0
1434,44.0,480,240,0.0,33.0
1435,60.0,480,500,0.0,38.0
1436,51.0,0,500,0.0,38.0
1437,78.0,0,980,0.0,47.0
1438,75.0,0,980,0.0,47.0
1439,66.0,0,480,0.0,35.0
1440,56.0,0,480,0.0,35.0
1441,71.0,480,500,0.0,42.0
1442,74.0,0,500,0.0,42.0
1443,44.0,0,240,0.0,43.0
1444,75.0,0,240,0.0,42.0
1445,72.0,480,240,0.0,42.0
1446,68.0,0,120,0.0,37.0
1447,68.0,240,120,0.0,35.0
1448,51.0,0,500,0.0,35.0
1449,60.0,480,500,0.0,35.0
1450,68.0,240,480,0.0,53.0
1451,56.0,0,480,0.0,39.0
1452,66.0,0,480,0.0,39.0
1453,37.0,0,240,0.0,48.0
1454,53.0,480,500,0.0,38.0
1455,82.0,0,980,0.0,64.0
1456,78.0,480,980,0.0,64.0
1457,61.0,0,500,0.0,38.0
1458,65.0,0,480,0.0,47.0
1459,56.0,480,480,0.0,47.0
1460,79.0,0,500,0.0,52.0
1461,76.0,0,500,0.0,52.0
1462,49.0,0,240,0.0,52.0
1463,80.0,0,240,0.0,52.0
1464,77.0,480,240,0.0,52.0
1465,68.0,480,120,0.0,45.0
1466,68.0,240,120,0.0,36.0
1467,61.0,0,500,0.0,40.0
1468,53.0,0,500,0.0,40.0
1469,65.0,0,480,0.0,39.0
1470,56.0,240,480,0.0,39.0
1471,68.0,0,480,0.0,55.0
1472,42.0,0,240,0.0,46.0
1473,80.0,480,240,0.0,63.0
1474,70.0,480,480,0.0,63.0
1475,80.0,240,240,0.0,49.0
1476,54.0,0,500,0.0,37.0
1477,62.0,0,500,0.0,37.0
1478,58.0,0,480,0.0,43.0
1479,63.0,0,480,0.0,43.0
1480,44.0,480,240,0.0,35.0
1481,75.0,0,960,0.0,56.0
1482,78.0,240,0,0.0,46.0
1483,68.0,0,480,0.0,53.0
1484,53.0,0,500,0.0,40.0
1485,60.0,480,500,0.0,40.0
1486,56.0,240,480,0.0,41.0
1487,61.0,0,480,0.0,41.0
1488,44.0,480,240,0.0,33.0
1489,73.0,0,960,0.0,50.0
1490,77.0,0,1200,0.0,50.0
1491,60.0,0,480,0.0,36.0
1492,66.0,0,480,0.0,40.0
1493,51.0,0,480,0.0,36.0
1494,77.0,240,240,0.0,40.0
1495,56.0,240,0,0.0,30.0
1496,60.0,0,480,0.0,30.0
1497,51.0,0,480,0.0,30.0
1498,75.0,0,480,0.0,38.0
1499,66.0,0,480,0.0,38.0
1500,61.0,480,240,0.0,42.0
1501,65.0,0,240,0.0,36.0
1502,56.0,0,240,0.0,42.0
1503,49.0,0,240,0.0,42.0
1504,73.0,0,240,0.0,36.0
1505,61.0,480,120,0.0,52.0
1506,61.0,240,120,0.0,52.0
1507,61.0,240,480,0.0,52.0
1508,65.0,0,240,0.0,72.0
1509,37.0,480,240,0.0,61.0
1510,68.0,0,240,0.0,72.0
1511,59.0,0,480,0.0,43.0
1512,56.0,0,480,0.0,43.0
1513,49.0,480,0,0.0,51.0
1514,65.0,0,240,0.0,69.0
1515,68.0,0,240,0.0,69.0
1516,59.0,0,480,0.0,51.0
1517,56.0,0,480,0.0,51.0
1518,68.0,0,60,0.0,66.0
1519,70.0,60,60,0.0,66.0
1520,37.0,480,240,0.0,65.0
1521,65.0,0,120,0.0,72.0
1522,68.0,60,120,0.0,72.0
1523,49.0,0,480,0.0,56.0
1524,56.0,0,480,0.0,56.0
1525,59.0,360,480,0.0,56.0
1526,66.0,240,240,0.0,60.0
1527,63.0,0,240,0.0,60.0
1528,59.0,0,480,0.0,57.0
1529,49.0,240,480,0.0,57.0
1530,68.0,0,480,0.0,72.0
1531,56.0,0,480,0.0,57.0
1532,65.0,0,480,0.0,72.0
1533,70.0,0,240,0.0,76.0
1534,42.0,0,240,0.0,63.0
1535,66.0,480,240,0.0,76.0
1536,49.0,0,480,0.0,45.0
1537,54.0,0,480,0.0,45.0
1538,58.0,480,480,0.0,45.0
1539,70.0,480,240,0.0,81.0
1540,73.0,0,240,0.0,81.0
1541,49.0,0,480,0.0,45.0
1542,54.0,0,480,0.0,45.0
1543,58.0,0,480,0.0,45.0
1544,42.0,0,240,0.0,55.0
1545,50.0,0,480,0.0,41.0
1546,58.0,480,0,0.0,46.0
1547,70.0,480,1440,0.0,87.0
1548,78.0,0,1440,0.0,87.0
1549,51.0,0,480,0.0,46.0
1550,68.0,0,240,0.0,58.0
1551,44.0,480,240,0.0,35.0
1552,77.0,0,240,0.0,58.0
1553,75.0,240,120,0.0,54.0
1554,60.0,480,480,0.0,32.0
1555,56.0,240,0,0.0,37.0
1556,51.0,0,480,0.0,32.0
1557,75.0,0,480,0.0,58.0
1558,51.0,0,480,0.0,37.0
1559,60.0,0,480,0.0,37.0
1560,66.0,0,480,0.0,58.0
1561,44.0,480,240,0.0,45.0
1562,68.0,0,240,0.0,60.0
1563,77.0,0,240,0.0,60.0
1564,75.0,240,120,0.0,50.0
1565,56.0,480,480,0.0,38.0
1566,51.0,240,0,0.0,38.0
1567,60.0,0,0,0.0,38.0
1568,66.0,0,480,0.0,56.0
1569,75.0,0,480,0.0,56.0
1570,56.0,0,480,0.0,38.0
1571,77.0,480,240,0.0,60.0
1572,68.0,0,240,0.0,60.0
1573,44.0,0,240,0.0,49.0
1574,75.0,240,120,0.0,51.0
1575,51.0,480,480,0.0,35.0
1576,60.0,240,0,0.0,40.0
1577,56.0,0,0,0.0,40.0
1578,66.0,0,480,0.0,57.0
1579,51.0,0,480,0.0,40.0
1580,75.0,0,480,0.0,57.0
1581,72.0,0,240,0.0,68.0
1582,64.0,480,240,0.0,68.0
1583,73.0,240,120,0.0,56.0
1584,56.0,480,480,0.0,38.0
1585,61.0,0,480,0.0,38.0
1586,56.0,0,480,0.0,35.0
1587,61.0,0,480,0.0,35.0
1588,49.0,0,1440,0.0,34.0
1589,73.0,0,480,0.0,62.0
1590,65.0,240,480,0.0,62.0
1591,80.0,0,240,0.0,86.0
1592,49.0,480,240,0.0,60.0
1593,77.0,0,240,0.0,86.0
1594,80.0,240,120,0.0,72.0
1595,77.0,0,120,0.0,72.0
1596,71.0,0,480,0.0,45.0
1597,68.0,240,0,0.0,54.0
1598,61.0,0,0,0.0,54.0
1599,71.0,0,480,0.0,54.0
1600,80.0,0,480,0.0,80.0
1601,77.0,0,480,0.0,80.0
1602,80.0,0,60,0.0,77.0
1603,82.0,60,60,0.0,78.0
1604,49.0,480,240,0.0,63.0
1605,80.0,0,120,0.0,86.0
1606,77.0,60,120,0.0,86.0
1607,75.0,0,240,0.0,80.0
1608,78.0,240,240,0.0,80.0
1609,71.0,0,480,0.0,45.0
1610,68.0,360,480,0.0,45.0
1611,61.0,0,0,0.0,48.0
1612,68.0,0,480,0.0,48.0
1613,71.0,0,480,0.0,48.0
1614,80.0,0,480,0.0,80.0
1615,77.0,240,480,0.0,80.0
1616,78.0,0,240,0.0,88.0
1617,54.0,480,240,0.0,50.0
1618,82.0,0,240,0.0,88.0
1619,61.0,0,480,0.0,49.0
1620,70.0,0,480,0.0,49.0
1621,66.0,0,0,0.0,55.0
1622,82.0,0,240,0.0,88.0
1623,85.0,0,240,0.0,88.0
1624,61.0,480,480,0.0,55.0
1625,70.0,0,480,0.0,55.0
1626,54.0,0,240,0.0,46.0
1627,70.0,0,480,0.0,43.0
1628,62.0,480,480,0.0,43.0
1629,82.0,0,1440,0.0,94.0
1630,63.0,480,480,0.0,43.0
1631,70.0,0,480,0.0,43.0
1632,90.0,480,1440,0.0,94.0
1633,56.0,0,240,0.0,49.0
1634,89.0,0,240,0.0,58.0
1635,80.0,480,240,0.0,58.0
1636,87.0,240,120,0.0,48.0
1637,72.0,0,480,0.0,42.0
1638,63.0,240,0,0.0,36.0
1639,68.0,0,480,0.0,42.0
1640,78.0,0,480,0.0,56.0
1641,87.0,0,480,0.0,56.0
1642,72.0,0,480,0.0,36.0
1643,68.0,0,480,0.0,36.0
1644,80.0,0,240,0.0,59.0
1645,89.0,480,240,0.0,59.0
1646,56.0,0,240,0.0,44.0
1647,87.0,240,120,0.0,55.0
1648,63.0,0,480,0.0,36.0
1649,68.0,0,480,0.0,36.0
1650,72.0,480,480,0.0,36.0
1651,63.0,0,480,0.0,36.0
1652,78.0,240,480,0.0,55.0
1653,68.0,0,480,0.0,36.0
1654,72.0,0,480,0.0,36.0
1655,87.0,0,480,0.0,55.0
1656,89.0,480,240,0.0,59.0
1657,56.0,0,240,0.0,43.0
1658,80.0,0,240,0.0,59.0
1659,87.0,240,120,0.0,50.0
1660,72.0,0,480,0.0,32.0
1661,63.0,240,0,0.0,38.0
1662,68.0,0,0,0.0,38.0
1663,87.0,0,480,0.0,55.0
1664,78.0,0,480,0.0,55.0
1665,72.0,0,480,0.0,38.0
1666,85.0,0,480,0.0,59.0
1667,61.0,0,480,0.0,38.0
1668,68.0,0,480,0.0,38.0
1669,73.0,0,480,0.0,38.0
1670,77.0,480,480,0.0,59.0
1671,61.0,960,480,0.0,67.0
1672,37.0,480,240,0.0,59.0
1673,65.0,0,240,0.0,72.0
1674,68.0,0,240,0.0,72.0
1675,59.0,480,0,0.0,55.0
1676,49.0,0,0,0.0,55.0
1677,56.0,0,0,0.0,55.0
1678,68.0,0,240,0.0,69.0
1679,65.0,0,240,0.0,69.0
1680,68.0,0,60,0.0,66.0
1681,70.0,60,60,0.0,66.0
1682,65.0,60,120,0.0,72.0
1683,68.0,0,120,0.0,72.0
1684,37.0,480,240,0.0,58.0
1685,56.0,0,480,0.0,50.0
1686,49.0,360,480,0.0,50.0
1687,59.0,0,0,0.0,54.0
1688,66.0,240,240,0.0,68.0
1689,63.0,0,240,0.0,68.0
1690,49.0,0,480,0.0,54.0
1691,56.0,240,480,0.0,54.0
1692,65.0,0,480,0.0,72.0
1693,68.0,0,480,0.0,72.0
1694,42.0,480,240,0.0,54.0
1695,70.0,0,240,0.0,76.0
1696,66.0,0,240,0.0,76.0
1697,49.0,0,0,0.0,54.0
1698,54.0,0,480,0.0,51.0
1699,58.0,0,0,0.0,54.0
1700,73.0,0,240,0.0,81.0
1701,70.0,480,240,0.0,81.0
1702,54.0,0,480,0.0,54.0
1703,42.0,0,240,0.0,63.0
1704,58.0,480,480,0.0,51.0
1705,50.0,0,480,0.0,51.0
1706,78.0,0,1440,0.0,87.0
1707,51.0,480,480,0.0,54.0
1708,58.0,0,480,0.0,54.0
1709,70.0,480,1440,0.0,87.0
1710,77.0,0,240,0.0,61.0
1711,68.0,0,240,0.0,61.0
1712,44.0,480,240,0.0,45.0
1713,75.0,240,120,0.0,52.0
1714,60.0,0,0,0.0,37.0
1715,56.0,0,0,0.0,37.0
1716,51.0,0,0,0.0,37.0
1717,75.0,0,480,0.0,56.0
1718,66.0,240,480,0.0,56.0
1719,77.0,0,240,0.0,60.0
1720,44.0,0,240,0.0,45.0
1721,68.0,480,240,0.0,60.0
1722,75.0,240,120,0.0,52.0
1723,60.0,480,480,0.0,34.0
1724,56.0,0,480,0.0,34.0
1725,51.0,0,0,0.0,38.0
1726,60.0,0,480,0.0,38.0
1727,56.0,0,480,0.0,38.0
1728,75.0,0,480,0.0,56.0
1729,66.0,240,480,0.0,56.0
1730,44.0,480,240,0.0,49.0
1731,68.0,0,240,0.0,60.0
1732,77.0,0,240,0.0,60.0
1733,75.0,240,120,0.0,55.0
1734,56.0,0,480,0.0,36.0
1735,51.0,0,0,0.0,40.0
1736,60.0,0,480,0.0,36.0
1737,56.0,0,480,0.0,40.0
1738,60.0,0,480,0.0,40.0
1739,75.0,0,480,0.0,57.0
1740,66.0,240,480,0.0,57.0
1741,72.0,0,240,0.0,68.0
1742,64.0,0,240,0.0,68.0
1743,73.0,240,120,0.0,58.0
1744,56.0,480,480,0.0,45.0
1745,61.0,0,480,0.0,45.0
1746,49.0,480,1440,0.0,52.0
1747,61.0,0,480,0.0,45.0
1748,56.0,0,480,0.0,45.0
1749,65.0,240,480,0.0,62.0
1750,73.0,0,480,0.0,62.0
1751,77.0,0,240,0.0,86.0
1752,49.0,480,240,0.0,60.0
1753,80.0,0,240,0.0,86.0
1754,77.0,0,120,0.0,80.0
1755,80.0,240,120,0.0,80.0
1756,68.0,0,480,0.0,50.0
1757,71.0,0,480,0.0,50.0
1758,61.0,0,0,0.0,56.0
1759,80.0,0,480,0.0,80.0
1760,77.0,240,480,0.0,80.0
1761,68.0,0,480,0.0,56.0
1762,71.0,0,480,0.0,56.0
1763,80.0,480,60,0.0,77.0
1764,82.0,60,60,0.0,78.0
1765,49.0,0,240,0.0,60.0
1766,77.0,0,120,0.0,86.0
1767,80.0,60,120,0.0,86.0
1768,68.0,0,480,0.0,47.0
1769,71.0,0,480,0.0,47.0
1770,75.0,0,240,0.0,75.0
1771,61.0,0,0,0.0,53.0
1772,78.0,240,240,0.0,75.0
1773,77.0,0,480,0.0,80.0
1774,80.0,0,480,0.0,80.0
1775,68.0,0,480,0.0,53.0
1776,71.0,240,480,0.0,53.0
1777,54.0,0,240,0.0,60.0
1778,82.0,0,240,0.0,88.0
1779,78.0,480,240,0.0,88.0
1780,70.0,480,0,0.0,60.0
1781,66.0,0,480,0.0,56.0
1782,61.0,0,0,0.0,60.0
1783,82.0,0,240,0.0,92.0
1784,85.0,0,240,0.0,92.0
1785,66.0,0,480,0.0,60.0
1786,54.0,480,240,0.0,67.0
1787,70.0,480,0,0.0,62.0
1788,62.0,480,480,0.0,61.0
1789,63.0,0,480,0.0,62.0
1790,90.0,0,1440,0.0,101.0
1791,82.0,0,1440,0.0,101.0
1792,89.0,0,240,0.0,59.0
1793,80.0,480,240,0.0,59.0
1794,56.0,0,240,0.0,45.0
1795,87.0,240,120,0.0,56.0
1796,72.0,0,480,0.0,35.0
1797,68.0,0,480,0.0,35.0
1798,63.0,480,480,0.0,35.0
1799,63.0,0,480,0.0,38.0
1800,68.0,0,480,0.0,38.0
1801,72.0,0,480,0.0,38.0
1802,78.0,0,480,0.0,56.0
1803,87.0,240,480,0.0,56.0
1804,56.0,480,240,0.0,44.0
1805,89.0,0,240,0.0,59.0
1806,80.0,0,240,0.0,59.0
1807,87.0,240,120,0.0,51.0
1808,68.0,0,480,0.0,35.0
1809,72.0,0,0,0.0,36.0
1810,63.0,0,0,0.0,36.0
1811,78.0,240,480,0.0,55.0
1812,87.0,0,480,0.0,55.0
1813,68.0,0,480,0.0,36.0
1814,80.0,0,240,0.0,59.0
1815,89.0,0,240,0.0,59.0
1816,56.0,480,240,0.0,46.0
1817,87.0,240,120,0.0,52.0
1818,68.0,0,480,0.0,36.0
1819,72.0,0,480,0.0,36.0
1820,63.0,480,480,0.0,36.0
1821,72.0,0,480,0.0,38.0
1822,68.0,0,480,0.0,38.0
1823,63.0,240,480,0.0,38.0
1824,87.0,0,480,0.0,55.0
1825,78.0,0,480,0.0,55.0
1826,77.0,0,480,0.0,59.0
1827,85.0,0,480,0.0,59.0
1828,73.0,0,480,0.0,45.0
1829,61.0,480,480,0.0,45.0
1830,68.0,0,480,0.0,45.0
1831,77.0,420,60,0.0,45.0
1832,78.0,60,240,0.0,52.0
1833,46.0,0,240,0.0,50.0
1834,78.0,420,60,0.0,41.0
1835,76.0,60,240,0.0,46.0
1836,53.0,0,480,0.0,42.0
1837,61.0,0,0,0.0,46.0
1838,76.0,420,60,0.0,43.0
1839,77.0,0,240,0.0,50.0
1840,77.0,420,60,0.0,46.0
1841,53.0,60,480,0.0,46.0
1842,78.0,0,240,0.0,53.0
1843,45.0,60,240,0.0,50.0
1844,78.0,420,60,0.0,44.0
1845,76.0,60,240,0.0,50.0
1846,76.0,420,60,0.0,45.0
1847,53.0,0,0,0.0,39.0
1848,63.0,0,0,0.0,39.0
1849,60.0,0,0,0.0,39.0
1850,77.0,60,240,0.0,50.0
1851,77.0,420,60,0.0,50.0
1852,85.0,60,240,0.0,57.0
1853,46.0,0,240,0.0,50.0
1854,85.0,420,60,0.0,50.0
1855,84.0,0,240,0.0,59.0
1856,84.0,420,60,0.0,56.0
1857,61.0,0,480,0.0,47.0
1858,58.0,0,0,0.0,53.0
1859,53.0,0,0,0.0,53.0
1860,83.0,60,240,0.0,66.0
1861,83.0,420,60,0.0,64.0
1862,61.0,0,480,0.0,53.0
1863,82.0,0,240,0.0,75.0
1864,51.0,60,240,0.0,56.0
1865,82.0,420,60,0.0,63.0
1866,81.0,60,240,0.0,73.0
1867,81.0,420,60,0.0,63.0
1868,66.0,0,0,0.0,50.0
1869,60.0,0,0,0.0,50.0
1870,58.0,0,0,0.0,50.0
1871,80.0,60,240,0.0,70.0
1872,80.0,420,60,0.0,58.0
1873,79.0,0,240,0.0,67.0
1874,53.0,60,240,0.0,56.0
1875,79.0,420,60,0.0,54.0
1876,78.0,0,240,0.0,65.0
1877,58.0,0,0,0.0,50.0
1878,61.0,0,480,0.0,46.0
1879,65.0,60,0,0.0,50.0
1880,78.0,420,60,0.0,51.0
1881,77.0,0,240,0.0,63.0
1882,61.0,0,480,0.0,50.0
1883,77.0,420,60,0.0,49.0
1884,76.0,0,240,0.0,60.0
1885,53.0,60,240,0.0,50.0
1886,76.0,420,60,0.0,46.0
1887,75.0,60,240,0.0,58.0
1888,57.0,0,480,0.0,46.0
1889,65.0,0,480,0.0,46.0
1890,63.0,0,480,0.0,46.0
1891,75.0,420,60,0.0,44.0
1892,72.0,0,240,0.0,54.0
1893,72.0,420,60,0.0,44.0
1894,65.0,60,480,0.0,48.0
1895,63.0,0,480,0.0,48.0
1896,57.0,0,480,0.0,48.0
1897,46.0,60,240,0.0,50.0
1898,73.0,0,240,0.0,52.0
1899,73.0,420,60,0.0,38.0
1900,69.0,0,240,0.0,48.0
1901,69.0,420,60,0.0,39.0
1902,53.0,0,0,0.0,47.0
1903,61.0,0,0,0.0,47.0
1904,70.0,60,240,0.0,50.0
1905,70.0,420,60,0.0,39.0
1906,73.0,60,240,0.0,50.0
1907,46.0,0,240,0.0,50.0
1908,73.0,420,60,0.0,39.0
1909,75.0,0,240,0.0,50.0
1910,61.0,60,480,0.0,47.0
1911,75.0,420,60,0.0,37.0
1912,53.0,0,0,0.0,47.0
1913,76.0,0,240,0.0,51.0
1914,76.0,420,60,0.0,40.0
1915,61.0,60,480,0.0,47.0
1916,78.0,60,240,0.0,54.0
1917,46.0,0,240,0.0,53.0
1918,78.0,420,60,0.0,44.0
1919,76.0,60,240,0.0,55.0
1920,76.0,420,60,0.0,44.0
1921,61.0,60,0,0.0,52.0
1922,53.0,0,480,0.0,49.0
1923,77.0,0,240,0.0,58.0
1924,77.0,420,60,0.0,49.0
1925,53.0,0,480,0.0,52.0
1926,78.0,60,240,0.0,62.0
1927,45.0,0,240,0.0,55.0
1928,78.0,420,60,0.0,51.0
1929,76.0,0,240,0.0,68.0
1930,63.0,0,0,0.0,60.0
1931,60.0,0,0,0.0,60.0
1932,53.0,0,0,0.0,60.0
1933,76.0,420,60,0.0,54.0
1934,77.0,60,240,0.0,73.0
1935,77.0,420,60,0.0,71.0
1936,89.0,60,240,0.0,83.0
1937,46.0,0,240,0.0,68.0
1938,89.0,420,60,0.0,68.0
1939,85.0,0,240,0.0,80.0
1940,61.0,60,0,0.0,56.0
1941,85.0,420,60,0.0,63.0
1942,58.0,60,480,0.0,62.0
1943,53.0,0,480,0.0,62.0
1944,82.0,0,240,0.0,76.0
1945,82.0,420,60,0.0,57.0
1946,58.0,0,480,0.0,56.0
1947,53.0,0,480,0.0,56.0
1948,78.0,60,240,0.0,71.0
1949,51.0,0,240,0.0,60.0
1950,78.0,420,60,0.0,52.0
1951,75.0,0,240,0.0,66.0
1952,75.0,420,60,0.0,44.0
1953,66.0,0,0,0.0,57.0
1954,60.0,0,0,0.0,57.0
1955,58.0,0,0,0.0,57.0
1956,72.0,60,240,0.0,57.0
1957,78.0,420,60,0.0,41.0
1958,53.0,60,240,0.0,56.0
1959,77.0,0,240,0.0,55.0
1960,77.0,420,60,0.0,42.0
1961,76.0,60,240,0.0,53.0
1962,76.0,420,60,0.0,42.0
1963,58.0,0,480,0.0,52.0
1964,61.0,0,0,0.0,52.0
1965,65.0,0,480,0.0,52.0
1966,75.0,60,240,0.0,55.0
1967,75.0,420,60,0.0,43.0
1968,58.0,0,480,0.0,52.0
1969,65.0,0,480,0.0,52.0
1970,53.0,0,240,0.0,53.0
1971,74.0,60,240,0.0,56.0
1972,74.0,420,60,0.0,44.0
1973,73.0,0,240,0.0,58.0
1974,65.0,60,0,0.0,53.0
1975,63.0,0,0,0.0,53.0
1976,57.0,0,480,0.0,49.0
1977,73.0,420,60,0.0,46.0
1978,72.0,0,240,0.0,60.0
1979,65.0,0,0,0.0,58.0
1980,72.0,420,60,0.0,46.0
1981,57.0,0,480,0.0,53.0
1982,71.0,0,240,0.0,62.0
1983,61.0,60,480,0.0,58.0
1984,58.0,0,480,0.0,58.0
1985,71.0,420,60,0.0,49.0
1986,70.0,60,240,0.0,64.0
1987,70.0,420,60,0.0,48.0
1988,69.0,60,240,0.0,66.0
1989,69.0,420,60,0.0,47.0
1990,68.0,60,240,0.0,67.0
1991,68.0,420,60,0.0,51.0
1992,67.0,60,240,0.0,69.0
1993,67.0,420,60,0.0,55.0
1994,66.0,60,240,0.0,71.0
1995,65.0,0,240,0.0,72.0
1996,37.0,0,240,0.0,54.0
1997,68.0,480,240,0.0,72.0
1998,59.0,0,0,0.0,49.0
1999,56.0,0,0,0.0,49.0
2000,49.0,0,0,0.0,49.0
2001,65.0,480,240,0.0,69.0
2002,68.0,0,240,0.0,69.0
2003,68.0,480,60,0.0,66.0
2004,70.0,60,60,0.0,66.0
2005,68.0,0,120,0.0,72.0
2006,65.0,60,120,0.0,72.0
2007,37.0,0,240,0.0,54.0
2008,63.0,240,240,0.0,68.0
2009,66.0,0,240,0.0,68.0
2010,49.0,360,480,0.0,50.0
2011,56.0,0,480,0.0,50.0
2012,59.0,0,480,0.0,50.0
2013,68.0,0,480,0.0,72.0
2014,56.0,0,480,0.0,50.0
2015,59.0,0,480,0.0,50.0
2016,65.0,240,480,0.0,72.0
2017,49.0,0,480,0.0,50.0
2018,42.0,480,240,0.0,54.0
2019,66.0,0,240,0.0,76.0
2020,70.0,0,240,0.0,76.0
2021,49.0,480,0,0.0,54.0
2022,58.0,0,0,0.0,54.0
2023,54.0,0,0,0.0,54.0
2024,70.0,0,240,0.0,81.0
2025,73.0,0,240,0.0,81.0
2026,42.0,480,240,0.0,63.0
2027,58.0,0,480,0.0,54.0
2028,50.0,480,480,0.0,54.0
2029,78.0,0,1440,0.0,87.0
2030,70.0,0,1440,0.0,87.0
2031,51.0,480,480,0.0,54.0
2032,58.0,0,480,0.0,54.0
2033,44.0,0,240,0.0,45.0
2034,68.0,480,240,0.0,61.0
2035,77.0,0,240,0.0,61.0
2036,75.0,240,120,0.0,52.0
2037,51.0,0,480,0.0,36.0
2038,56.0,480,480,0.0,36.0
2039,60.0,240,0,0.0,37.0
2040,56.0,0,480,0.0,37.0
2041,51.0,0,480,0.0,37.0
2042,75.0,0,480,0.0,56.0
2043,66.0,0,480,0.0,56.0
2044,77.0,480,240,0.0,60.0
2045,68.0,0,240,0.0,60.0
2046,44.0,0,240,0.0,45.0
2047,75.0,240,120,0.0,53.0
2048,56.0,0,480,0.0,37.0
2049,60.0,480,480,0.0,37.0
2050,51.0,240,0,0.0,38.0
2051,75.0,0,480,0.0,56.0
2052,66.0,0,480,0.0,56.0
2053,56.0,0,480,0.0,38.0
2054,60.0,0,480,0.0,38.0
2055,68.0,480,240,0.0,60.0
2056,77.0,0,240,0.0,60.0
2057,44.0,0,240,0.0,49.0
2058,75.0,240,120,0.0,53.0
2059,51.0,0,0,0.0,40.0
2060,60.0,0,0,0.0,40.0
2061,56.0,0,0,0.0,40.0
2062,75.0,0,480,0.0,57.0
2063,66.0,240,480,0.0,57.0
2064,72.0,480,240,0.0,68.0
2065,64.0,0,240,0.0,68.0
2066,73.0,240,120,0.0,57.0
2067,61.0,0,0,0.0,45.0
2068,56.0,480,480,0.0,43.0
2069,73.0,0,480,0.0,62.0
2070,65.0,240,480,0.0,62.0
2071,56.0,0,480,0.0,45.0
2072,49.0,0,1440,0.0,52.0
2073,80.0,0,240,0.0,86.0
2074,49.0,0,240,0.0,60.0
2075,77.0,480,240,0.0,86.0
2076,77.0,0,120,0.0,76.0
2077,80.0,240,120,0.0,76.0
2078,68.0,0,480,0.0,54.0
2079,71.0,480,480,0.0,54.0
2080,61.0,240,0,0.0,56.0
2081,68.0,0,480,0.0,56.0
2082,71.0,0,480,0.0,56.0
2083,77.0,0,480,0.0,80.0
2084,80.0,0,480,0.0,80.0
2085,80.0,0,60,0.0,77.0
2086,82.0,60,60,0.0,78.0
2087,77.0,60,120,0.0,86.0
2088,80.0,0,120,0.0,86.0
2089,49.0,480,240,0.0,60.0
2090,75.0,0,240,0.0,76.0
2091,78.0,240,240,0.0,76.0
2092,71.0,360,480,0.0,53.0
2093,68.0,0,480,0.0,53.0
2094,61.0,0,480,0.0,53.0
2095,80.0,0,480,0.0,80.0
2096,61.0,0,480,0.0,54.0
2097,77.0,240,480,0.0,80.0
2098,71.0,0,480,0.0,54.0
2099,68.0,0,480,0.0,54.0
2100,54.0,480,240,0.0,60.0
2101,82.0,0,240,0.0,88.0
2102,78.0,0,240,0.0,88.0
2103,66.0,0,480,0.0,56.0
2104,70.0,480,480,0.0,56.0
2105,61.0,0,480,0.0,56.0
2106,82.0,480,240,0.0,92.0
2107,85.0,0,240,0.0,92.0
2108,70.0,0,480,0.0,60.0
2109,66.0,0,480,0.0,60.0
2110,61.0,0,480,0.0,60.0
2111,54.0,480,240,0.0,65.0
2112,62.0,480,480,0.0,58.0
2113,70.0,480,0,0.0,62.0
2114,82.0,0,1440,0.0,96.0
2115,63.0,0,480,0.0,62.0
2116,90.0,0,1440,0.0,96.0
2117,80.0,0,240,0.0,59.0
2118,56.0,0,240,0.0,45.0
2119,89.0,480,240,0.0,59.0
2120,87.0,240,120,0.0,52.0
2121,63.0,0,480,0.0,36.0
2122,68.0,0,480,0.0,36.0
2123,72.0,480,480,0.0,36.0
2124,63.0,0,480,0.0,38.0
2125,68.0,0,480,0.0,38.0
2126,72.0,0,480,0.0,38.0
2127,87.0,0,480,0.0,56.0
2128,78.0,240,480,0.0,56.0
2129,56.0,0,240,0.0,44.0
2130,89.0,0,240,0.0,59.0
2131,80.0,480,240,0.0,59.0
2132,87.0,240,120,0.0,52.0
2133,63.0,0,480,0.0,34.0
2134,68.0,0,0,0.0,36.0
2135,72.0,480,480,0.0,34.0
2136,78.0,240,480,0.0,55.0
2137,87.0,0,480,0.0,55.0
2138,72.0,0,480,0.0,36.0
2139,63.0,0,480,0.0,36.0
2140,56.0,0,240,0.0,46.0
2141,89.0,480,240,0.0,59.0
2142,80.0,0,240,0.0,59.0
2143,87.0,240,120,0.0,53.0
2144,63.0,480,480,0.0,37.0
2145,68.0,0,480,0.0,37.0
2146,72.0,0,0,0.0,38.0
2147,87.0,0,480,0.0,55.0
2148,78.0,240,480,0.0,55.0
2149,63.0,0,480,0.0,38.0
2150,68.0,0,480,0.0,38.0
2151,61.0,0,480,0.0,45.0
2152,68.0,0,480,0.0,45.0
2153,85.0,480,480,0.0,59.0
2154,77.0,0,480,0.0,59.0
2155,73.0,0,480,0.0,45.0
2156,77.0,420,60,0.0,45.0
2157,78.0,60,240,0.0,52.0
2158,46.0,0,240,0.0,50.0
2159,78.0,420,60,0.0,44.0
2160,76.0,0,240,0.0,50.0
2161,61.0,60,480,0.0,45.0
2162,53.0,0,480,0.0,45.0
2163,76.0,420,60,0.0,43.0
2164,77.0,0,240,0.0,50.0
2165,77.0,420,60,0.0,46.0
2166,53.0,0,480,0.0,46.0
2167,61.0,60,480,0.0,46.0
2168,45.0,60,240,0.0,50.0
2169,78.0,0,240,0.0,53.0
2170,78.0,420,60,0.0,44.0
2171,76.0,0,240,0.0,50.0
2172,53.0,0,480,0.0,44.0
2173,76.0,420,60,0.0,45.0
2174,60.0,0,0,0.0,45.0
2175,63.0,0,0,0.0,45.0
2176,77.0,60,240,0.0,50.0
2177,53.0,0,480,0.0,45.0
2178,77.0,420,60,0.0,50.0
2179,46.0,60,240,0.0,50.0
2180,85.0,0,240,0.0,57.0
2181,85.0,420,60,0.0,50.0
2182,84.0,60,240,0.0,59.0
2183,58.0,0,480,0.0,50.0
2184,53.0,0,480,0.0,50.0
2185,61.0,0,0,0.0,53.0
2186,84.0,420,60,0.0,56.0
2187,83.0,0,240,0.0,66.0
2188,53.0,0,480,0.0,53.0
2189,58.0,60,480,0.0,53.0
2190,83.0,420,60,0.0,64.0
2191,82.0,0,240,0.0,75.0
2192,51.0,60,240,0.0,56.0
2193,82.0,420,60,0.0,63.0
2194,81.0,60,240,0.0,73.0
2195,60.0,0,0,0.0,50.0
2196,81.0,420,60,0.0,63.0
2197,58.0,0,0,0.0,50.0
2198,66.0,60,0,0.0,50.0
2199,80.0,0,240,0.0,70.0
2200,80.0,420,60,0.0,58.0
2201,53.0,60,240,0.0,56.0
2202,79.0,0,240,0.0,67.0
2203,79.0,420,60,0.0,54.0
2204,78.0,60,240,0.0,65.0
2205,65.0,60,0,0.0,50.0
2206,61.0,0,480,0.0,49.0
2207,58.0,0,480,0.0,49.0
2208,78.0,420,60,0.0,51.0
2209,77.0,0,240,0.0,63.0
2210,58.0,0,480,0.0,50.0
2211,77.0,420,60,0.0,49.0
2212,61.0,0,480,0.0,50.0
2213,53.0,60,240,0.0,50.0
2214,76.0,0,240,0.0,60.0
2215,76.0,420,60,0.0,46.0
2216,75.0,0,240,0.0,58.0
2217,57.0,0,480,0.0,48.0
2218,75.0,420,60,0.0,44.0
2219,65.0,0,480,0.0,48.0
2220,63.0,60,480,0.0,48.0
2221,72.0,60,240,0.0,54.0
2222,72.0,420,60,0.0,44.0
2223,63.0,0,480,0.0,48.0
2224,65.0,0,480,0.0,48.0
2225,57.0,0,480,0.0,48.0
2226,46.0,0,240,0.0,50.0
2227,73.0,60,240,0.0,52.0
2228,73.0,420,60,0.0,38.0
2229,69.0,0,240,0.0,50.0
2230,61.0,0,0,0.0,47.0
2231,53.0,60,0,0.0,47.0
2232,69.0,420,60,0.0,39.0
2233,70.0,0,240,0.0,50.0
2234,70.0,420,60,0.0,39.0
2235,73.0,0,240,0.0,50.0
2236,46.0,60,240,0.0,50.0
2237,73.0,420,60,0.0,39.0
2238,75.0,0,240,0.0,50.0
2239,53.0,60,480,0.0,46.0
2240,61.0,0,480,0.0,46.0
2241,75.0,420,60,0.0,37.0
2242,76.0,0,240,0.0,51.0
2243,53.0,0,480,0.0,47.0
2244,76.0,420,60,0.0,40.0
2245,61.0,60,480,0.0,47.0
2246,78.0,60,240,0.0,54.0
2247,46.0,0,240,0.0,53.0
2248,78.0,420,60,0.0,44.0
2249,76.0,0,240,0.0,55.0
2250,76.0,420,60,0.0,44.0
2251,53.0,0,480,0.0,49.0
2252,61.0,60,480,0.0,49.0
2253,77.0,60,240,0.0,58.0
2254,77.0,420,60,0.0,49.0
2255,61.0,0,480,0.0,52.0
2256,53.0,0,480,0.0,52.0
2257,45.0,60,240,0.0,55.0
2258,78.0,0,240,0.0,62.0
2259,78.0,420,60,0.0,51.0
2260,76.0,0,240,0.0,68.0
2261,76.0,420,60,0.0,54.0
2262,63.0,60,480,0.0,56.0
2263,60.0,0,0,0.0,60.0
2264,53.0,0,0,0.0,60.0
2265,77.0,60,240,0.0,73.0
2266,63.0,0,480,0.0,60.0
2267,77.0,420,60,0.0,71.0
2268,46.0,60,240,0.0,64.0
2269,89.0,0,240,0.0,83.0
2270,89.0,420,60,0.0,68.0
2271,85.0,60,240,0.0,80.0
2272,53.0,60,0,0.0,56.0
2273,61.0,0,480,0.0,62.0
2274,58.0,0,0,0.0,56.0
2275,85.0,420,60,0.0,63.0
2276,82.0,0,240,0.0,76.0
2277,61.0,0,480,0.0,56.0
2278,82.0,420,60,0.0,57.0
2279,78.0,60,240,0.0,71.0
2280,51.0,0,240,0.0,60.0
2281,78.0,420,60,0.0,52.0
2282,75.0,0,240,0.0,66.0
2283,58.0,0,0,0.0,57.0
2284,75.0,420,60,0.0,44.0
2285,66.0,0,480,0.0,55.0
2286,60.0,60,0,0.0,57.0
2287,72.0,0,240,0.0,57.0
2288,66.0,0,480,0.0,57.0
2289,78.0,420,60,0.0,41.0
2290,77.0,0,240,0.0,55.0
2291,53.0,60,240,0.0,56.0
2292,77.0,420,60,0.0,42.0
2293,76.0,0,240,0.0,53.0
2294,61.0,60,480,0.0,52.0
2295,58.0,0,480,0.0,52.0
2296,76.0,420,60,0.0,42.0
2297,65.0,0,0,0.0,52.0
2298,75.0,60,240,0.0,55.0
2299,58.0,0,480,0.0,52.0
2300,75.0,420,60,0.0,43.0
2301,61.0,0,480,0.0,52.0
2302,74.0,60,240,0.0,56.0
2303,53.0,0,240,0.0,53.0
2304,74.0,420,60,0.0,44.0
2305,73.0,0,240,0.0,58.0
2306,57.0,0,480,0.0,49.0
2307,73.0,420,60,0.0,46.0
2308,63.0,0,480,0.0,49.0
2309,65.0,60,480,0.0,49.0
2310,72.0,60,240,0.0,60.0
2311,65.0,0,480,0.0,53.0
2312,72.0,420,60,0.0,46.0
2313,57.0,0,480,0.0,53.0
2314,63.0,0,480,0.0,53.0
2315,71.0,0,240,0.0,62.0
2316,58.0,60,480,0.0,58.0
2317,61.0,0,480,0.0,58.0
2318,71.0,420,60,0.0,49.0
2319,65.0,0,480,0.0,58.0
2320,70.0,60,240,0.0,64.0
2321,70.0,420,60,0.0,48.0
2322,69.0,60,240,0.0,66.0
2323,69.0,420,60,0.0,47.0
2324,68.0,60,240,0.0,67.0
2325,68.0,420,60,0.0,51.0
2326,67.0,60,240,0.0,69.0
2327,67.0,420,60,0.0,55.0
2328,66.0,60,240,0.0,71.0
2329,65.0,0,240,0.0,72.0
2330,37.0,480,240,0.0,54.0
2331,68.0,0,240,0.0,72.0
2332,49.0,0,480,0.0,49.0
2333,56.0,0,480,0.0,49.0
2334,59.0,480,0,0.0,49.0
2335,68.0,0,240,0.0,69.0
2336,65.0,0,240,0.0,69.0
2337,56.0,0,480,0.0,49.0
2338,49.0,0,480,0.0,49.0
2339,68.0,480,60,0.0,66.0
2340,70.0,60,60,0.0,66.0
2341,65.0,0,120,0.0,72.0
2342,68.0,60,120,0.0,72.0
2343,37.0,0,240,0.0,54.0
2344,63.0,0,240,0.0,68.0
2345,66.0,240,240,0.0,68.0
2346,59.0,240,0,0.0,50.0
2347,56.0,0,0,0.0,50.0
2348,49.0,0,0,0.0,50.0
2349,65.0,0,480,0.0,72.0
2350,68.0,0,480,0.0,72.0
2351,70.0,480,240,0.0,76.0
2352,66.0,0,240,0.0,76.0
2353,42.0,0,240,0.0,54.0
2354,58.0,0,0,0.0,54.0
2355,54.0,0,0,0.0,54.0
2356,49.0,480,0,0.0,54.0
2357,70.0,0,240,0.0,81.0
2358,73.0,0,240,0.0,81.0
2359,42.0,0,240,0.0,63.0
2360,58.0,0,480,0.0,54.0
2361,50.0,480,480,0.0,54.0
2362,78.0,480,1440,0.0,87.0
2363,58.0,0,480,0.0,54.0
2364,51.0,480,480,0.0,54.0
2365,70.0,0,1440,0.0,87.0
2366,68.0,0,240,0.0,61.0
2367,77.0,480,240,0.0,61.0
2368,44.0,0,240,0.0,45.0
2369,75.0,240,120,0.0,54.0
2370,60.0,0,0,0.0,37.0
2371,56.0,0,480,0.0,36.0
2372,51.0,0,0,0.0,37.0
2373,66.0,240,480,0.0,56.0
2374,75.0,0,480,0.0,56.0
2375,56.0,0,480,0.0,37.0
2376,68.0,0,240,0.0,60.0
2377,44.0,480,240,0.0,45.0
2378,77.0,0,240,0.0,60.0
2379,75.0,240,120,0.0,54.0
2380,51.0,0,480,0.0,37.0
2381,56.0,0,480,0.0,37.0
2382,60.0,480,480,0.0,37.0
2383,75.0,0,480,0.0,56.0
2384,66.0,0,480,0.0,56.0
2385,56.0,0,480,0.0,38.0
2386,51.0,240,480,0.0,38.0
2387,60.0,0,480,0.0,38.0
2388,44.0,0,240,0.0,49.0
2389,68.0,480,240,0.0,60.0
2390,77.0,0,240,0.0,60.0
2391,75.0,240,120,0.0,55.0
2392,56.0,0,480,0.0,39.0
2393,60.0,0,480,0.0,39.0
2394,51.0,240,0,0.0,40.0
2395,75.0,0,480,0.0,57.0
2396,56.0,0,480,0.0,40.0
2397,60.0,0,480,0.0,40.0
2398,66.0,0,480,0.0,57.0
2399,72.0,0,240,0.0,68.0
2400,64.0,0,240,0.0,68.0
2401,73.0,240,120,0.0,57.0
2402,56.0,0,480,0.0,42.0
2403,61.0,480,480,0.0,42.0
2404,73.0,0,480,0.0,62.0
2405,65.0,0,480,0.0,62.0
2406,56.0,0,480,0.0,45.0
2407,61.0,240,480,0.0,45.0
2408,49.0,0,0,0.0,60.0
2409,77.0,480,240,0.0,86.0
2410,80.0,0,240,0.0,86.0
2411,80.0,0,120,0.0,77.0
2412,77.0,240,120,0.0,77.0
2413,61.0,480,480,0.0,53.0
2414,68.0,0,480,0.0,53.0
2415,71.0,0,480,0.0,53.0
2416,71.0,0,480,0.0,56.0
2417,80.0,0,480,0.0,80.0
2418,68.0,0,480,0.0,56.0
2419,61.0,240,480,0.0,56.0
2420,77.0,0,480,0.0,80.0
2421,80.0,0,60,0.0,77.0
2422,82.0,60,60,0.0,78.0
2423,80.0,0,120,0.0,86.0
2424,77.0,60,120,0.0,86.0
2425,49.0,480,240,0.0,60.0
2426,78.0,0,240,0.0,77.0
2427,75.0,240,240,0.0,77.0
2428,61.0,0,0,0.0,54.0
2429,68.0,0,480,0.0,53.0
2430,71.0,0,0,0.0,54.0
2431,68.0,0,480,0.0,54.0
2432,77.0,240,480,0.0,80.0
2433,80.0,0,480,0.0,80.0
2434,78.0,0,240,0.0,88.0
2435,54.0,0,240,0.0,60.0
2436,82.0,480,240,0.0,88.0
2437,70.0,0,480,0.0,56.0
2438,61.0,480,480,0.0,56.0
2439,66.0,0,480,0.0,56.0
2440,82.0,480,240,0.0,92.0
2441,85.0,0,240,0.0,92.0
2442,61.0,0,480,0.0,60.0
2443,66.0,0,480,0.0,60.0
2444,70.0,0,480,0.0,60.0
2445,54.0,480,240,0.0,67.0
2446,70.0,0,480,0.0,61.0
2447,62.0,480,480,0.0,61.0
2448,63.0,480,480,0.0,62.0
2449,90.0,0,1440,0.0,95.0
2450,70.0,0,480,0.0,62.0
2451,82.0,0,1440,0.0,95.0
2452,56.0,480,240,0.0,45.0
2453,89.0,0,240,0.0,59.0
2454,80.0,0,240,0.0,59.0
2455,87.0,240,120,0.0,53.0
2456,72.0,0,480,0.0,36.0
2457,68.0,0,480,0.0,36.0
2458,63.0,0,0,0.0,38.0
2459,87.0,0,480,0.0,56.0
2460,78.0,240,480,0.0,56.0
2461,72.0,0,480,0.0,38.0
2462,68.0,0,480,0.0,38.0
2463,56.0,0,240,0.0,44.0
2464,80.0,0,240,0.0,59.0
2465,89.0,480,240,0.0,59.0
2466,87.0,240,120,0.0,52.0
2467,72.0,0,480,0.0,36.0
2468,63.0,0,0,0.0,36.0
2469,68.0,0,0,0.0,36.0
2470,72.0,0,480,0.0,36.0
2471,78.0,240,480,0.0,55.0
2472,87.0,0,480,0.0,55.0
2473,56.0,0,240,0.0,46.0
2474,89.0,480,240,0.0,59.0
2475,80.0,0,240,0.0,59.0
2476,87.0,240,120,0.0,52.0
2477,68.0,240,0,0.0,38.0
2478,72.0,0,480,0.0,38.0
2479,63.0,0,0,0.0,38.0
2480,78.0,0,480,0.0,55.0
2481,87.0,0,480,0.0,55.0
2482,72.0,0,480,0.0,38.0
2483,85.0,480,480,0.0,59.0
2484,77.0,0,480,0.0,59.0
2485,73.0,0,480,0.0,45.0
2486,68.0,0,480,0.0,45.0
2487,61.0,0,480,0.0,45.0
2488,73.0,960,240,0.0,51.0
2489,73.0,240,240,0.0,51.0
2490,73.0,0,240,0.0,54.0
2491,75.0,240,240,0.0,55.0
2492,73.0,240,240,0.0,54.0
2493,54.0,0,480,0.0,36.0
2494,61.0,0,480,0.0,36.0
2495,72.0,240,240,0.0,48.0
2496,73.0,0,240,0.0,49.0
2497,54.0,0,480,0.0,36.0
2498,61.0,240,480,0.0,36.0
2499,46.0,240,1440,0.0,32.0
2500,74.0,240,240,0.0,51.0
2501,47.0,0,480,0.0,38.0
2502,54.0,0,480,0.0,35.0
2503,63.0,0,480,0.0,35.0
2504,56.0,480,480,0.0,35.0
2505,77.0,240,960,0.0,53.0
2506,75.0,0,480,0.0,50.0
2507,54.0,0,480,0.0,35.0
2508,56.0,480,480,0.0,35.0
2509,63.0,0,480,0.0,35.0
2510,68.0,480,240,0.0,50.0
2511,70.0,240,240,0.0,50.0
2512,68.0,240,240,0.0,50.0
2513,67.0,240,240,0.0,50.0
2514,59.0,0,480,0.0,24.0
2515,53.0,0,0,0.0,30.0
2516,68.0,0,240,0.0,50.0
2517,46.0,0,1440,0.0,30.0
2518,69.0,240,240,0.0,50.0
2519,59.0,240,480,0.0,30.0
2520,42.0,240,480,0.0,30.0
2521,70.0,0,480,0.0,61.0
2522,66.0,480,120,0.0,50.0
2523,70.0,240,240,0.0,51.0
2524,58.0,240,0,0.0,34.0
2525,49.0,0,0,0.0,34.0
2526,71.0,0,240,0.0,54.0
2527,72.0,240,240,0.0,56.0
2528,73.0,0,60,0.0,50.0
2529,75.0,60,60,0.0,50.0
2530,73.0,60,120,0.0,50.0
2531,72.0,120,240,0.0,55.0
2532,73.0,0,240,0.0,57.0
2533,61.0,0,480,0.0,29.0
2534,54.0,240,480,0.0,29.0
2535,82.0,240,240,0.0,58.0
2536,80.0,0,240,0.0,60.0
2537,78.0,240,240,0.0,62.0
2538,46.0,240,1440,0.0,37.0
2539,61.0,240,480,0.0,35.0
2540,54.0,0,480,0.0,35.0
2541,47.0,240,480,0.0,29.0
2542,63.0,480,480,0.0,29.0
2543,56.0,0,480,0.0,29.0
2544,54.0,480,0,0.0,36.0
2545,77.0,0,960,0.0,64.0
2546,75.0,0,480,0.0,56.0
2547,63.0,0,480,0.0,36.0
2548,56.0,0,480,0.0,36.0
2549,68.0,480,160,0.0,52.0
2550,70.0,160,160,0.0,50.0
2551,68.0,160,160,0.0,50.0
2552,67.0,0,240,0.0,52.0
2553,59.0,160,480,0.0,19.0
2554,68.0,240,240,0.0,50.0
2555,53.0,240,0,0.0,26.0
2556,71.0,0,240,0.0,56.0
2557,70.0,240,240,0.0,50.0
2558,59.0,0,480,0.0,26.0
2559,49.0,0,1440,0.0,36.0
2560,66.0,240,120,0.0,50.0
2561,60.0,240,240,0.0,42.0
2562,42.0,0,480,0.0,27.0
2563,61.0,240,240,0.0,43.0
2564,65.0,240,240,0.0,45.0
2565,58.0,0,480,0.0,32.0
2566,49.0,0,480,0.0,32.0
2567,66.0,0,240,0.0,47.0
2568,58.0,240,480,0.0,34.0
2569,49.0,0,480,0.0,34.0
2570,70.0,240,240,0.0,48.0
2571,73.0,240,240,0.0,50.0
2572,75.0,240,240,0.0,51.0
2573,73.0,240,240,0.0,53.0
2574,61.0,0,480,0.0,28.0
2575,72.0,240,240,0.0,55.0
2576,54.0,0,0,0.0,37.0
2577,73.0,0,240,0.0,56.0
2578,74.0,180,0,0.0,54.0
2579,61.0,240,480,0.0,37.0
2580,46.0,0,1440,0.0,28.0
2581,47.0,60,480,0.0,33.0
2582,63.0,0,480,0.0,30.0
2583,55.0,480,480,0.0,30.0
2584,77.0,0,960,0.0,67.0
2585,56.0,0,480,0.0,33.0
2586,63.0,0,480,0.0,33.0
2587,75.0,480,480,0.0,59.0
2588,68.0,0,240,0.0,50.0
2589,70.0,240,240,0.0,50.0
2590,68.0,0,60,0.0,41.0
2591,70.0,60,60,0.0,41.0
2592,68.0,60,120,0.0,49.0
2593,67.0,120,240,0.0,50.0
2594,53.0,0,480,0.0,20.0
2595,59.0,0,0,0.0,29.0
2596,68.0,240,240,0.0,52.0
2597,49.0,480,1440,0.0,25.0
2598,69.0,240,240,0.0,55.0
2599,53.0,0,480,0.0,29.0
2600,42.0,0,480,0.0,34.0
2601,70.0,240,480,0.0,64.0
2602,66.0,0,120,0.0,54.0
2603,58.0,0,480,0.0,28.0
2604,70.0,240,240,0.0,53.0
2605,49.0,0,0,0.0,33.0
2606,71.0,240,240,0.0,55.0
2607,72.0,240,240,0.0,57.0
2608,58.0,0,480,0.0,33.0
2609,73.0,0,60,0.0,50.0
2610,75.0,60,60,0.0,50.0
2611,73.0,60,120,0.0,59.0
2612,72.0,120,240,0.0,57.0
2613,73.0,0,160,0.0,58.0
2614,83.0,160,160,0.0,67.0
2615,82.0,160,160,0.0,65.0
2616,54.0,0,0,0.0,28.0
2617,61.0,160,0,0.0,28.0
2618,82.0,0,160,0.0,63.0
2619,80.0,160,160,0.0,61.0
2620,46.0,240,1440,0.0,38.0
2621,78.0,160,160,0.0,59.0
2622,47.0,160,480,0.0,35.0
2623,63.0,480,480,0.0,30.0
2624,54.0,0,480,0.0,30.0
2625,56.0,0,480,0.0,30.0
2626,77.0,0,960,0.0,57.0
2627,54.0,0,480,0.0,28.0
2628,63.0,0,480,0.0,28.0
2629,75.0,480,480,0.0,55.0
2630,56.0,0,480,0.0,28.0
2631,68.0,0,160,0.0,46.0
2632,70.0,160,160,0.0,46.0
2633,68.0,160,160,0.0,46.0
2634,67.0,160,240,0.0,46.0
2635,53.0,0,480,0.0,26.0
2636,59.0,0,480,0.0,26.0
2637,68.0,240,240,0.0,47.0
2638,71.0,0,240,0.0,49.0
2639,70.0,240,240,0.0,45.0
2640,53.0,240,480,0.0,25.0
2641,49.0,480,1440,0.0,26.0
2642,59.0,0,480,0.0,25.0
2643,66.0,240,240,0.0,39.0
2644,42.0,0,480,0.0,30.0
2645,49.0,480,480,0.0,27.0
2646,58.0,0,480,0.0,27.0
2647,70.0,480,120,0.0,39.0
2648,70.0,240,120,0.0,39.0
2649,70.0,240,240,0.0,39.0
2650,34.0,0,480,0.0,35.0
2651,46.0,0,480,0.0,35.0
2652,70.0,0,120,0.0,39.0
2653,70.0,240,120,0.0,39.0
2654,56.0,0,480,0.0,37.0
2655,65.0,960,480,0.0,37.0
2656,58.0,0,480,0.0,37.0
2657,70.0,240,240,0.0,39.0
2658,64.0,0,480,0.0,32.0
2659,58.0,0,480,0.0,32.0
2660,55.0,0,480,0.0,32.0
2661,70.0,0,120,0.0,39.0
2662,70.0,240,120,0.0,39.0
2663,63.0,0,480,0.0,36.0
2664,54.0,960,480,0.0,36.0
2665,58.0,0,0,0.0,32.0
2666,70.0,0,240,0.0,39.0
2667,62.0,0,480,0.0,32.0
2668,53.0,240,480,0.0,32.0
2669,34.0,480,120,0.0,82.0
2670,82.0,0,120,0.0,94.0
2671,70.0,0,120,0.0,94.0
2672,46.0,0,120,0.0,82.0
2673,82.0,0,120,0.0,91.0
2674,70.0,0,120,0.0,91.0
2675,34.0,240,120,0.0,78.0
2676,46.0,0,120,0.0,78.0
2677,82.0,240,240,0.0,95.0
2678,34.0,0,240,0.0,82.0
2679,46.0,0,240,0.0,82.0
2680,70.0,0,240,0.0,95.0
2681,46.0,0,120,0.0,82.0
2682,70.0,0,120,0.0,95.0
2683,82.0,480,120,0.0,95.0
2684,34.0,0,120,0.0,82.0
2685,34.0,0,120,0.0,78.0
2686,46.0,0,120,0.0,78.0
2687,70.0,240,120,0.0,91.0
2688,82.0,0,120,0.0,91.0
2689,34.0,0,240,0.0,82.0
2690,82.0,240,240,0.0,95.0
2691,70.0,0,240,0.0,95.0
2692,46.0,0,240,0.0,82.0
2693,46.0,0,120,0.0,82.0
2694,34.0,480,120,0.0,82.0
2695,82.0,0,120,0.0,95.0
2696,70.0,0,120,0.0,95.0
2697,46.0,0,120,0.0,78.0
2698,34.0,240,120,0.0,78.0
2699,82.0,0,120,0.0,91.0
2700,70.0,0,120,0.0,91.0
2701,82.0,0,240,0.0,95.0
2702,46.0,0,240,0.0,82.0
2703,70.0,240,240,0.0,95.0
2704,34.0,0,240,0.0,82.0
2705,58.0,960,120,0.0,39.0
2706,65.0,0,120,0.0,39.0
2707,70.0,0,120,0.0,39.0
2708,70.0,0,120,0.0,39.0
2709,58.0,240,120,0.0,39.0
2710,46.0,240,0,0.0,36.0
2711,56.0,0,480,0.0,39.0
2712,58.0,0,240,0.0,39.0
2713,64.0,0,240,0.0,39.0
2714,70.0,0,240,0.0,39.0
2715,55.0,0,240,0.0,36.0
2716,63.0,0,120,0.0,39.0
2717,58.0,960,120,0.0,39.0
2718,70.0,0,120,0.0,39.0
2719,58.0,0,120,0.0,39.0
2720,70.0,240,120,0.0,39.0
2721,46.0,0,480,0.0,39.0
2722,54.0,0,480,0.0,39.0
2723,58.0,0,240,0.0,39.0
2724,62.0,0,240,0.0,39.0
2725,70.0,0,240,0.0,39.0
2726,46.0,0,240,0.0,36.0
2727,53.0,240,240,0.0,36.0
2728,58.0,0,120,0.0,43.0
2729,70.0,480,120,0.0,43.0
2730,70.0,240,120,0.0,47.0
2731,58.0,0,120,0.0,47.0
2732,70.0,0,480,0.0,52.0
2733,58.0,240,480,0.0,52.0
2734,70.0,0,120,0.0,55.0
2735,58.0,480,120,0.0,55.0
2736,58.0,240,120,0.0,57.0
2737,70.0,0,120,0.0,57.0
2738,58.0,0,0,0.0,72.0
2739,70.0,480,0,0.0,72.0
2740,58.0,0,120,0.0,67.0
2741,70.0,240,120,0.0,67.0
2742,70.0,0,240,0.0,97.0
2743,58.0,240,240,0.0,97.0
2744,46.0,0,240,0.0,95.0
2745,34.0,0,240,0.0,95.0
2746,74.0,480,260,0.0,56.0
2747,68.0,0,0,0.0,62.0
2748,65.0,0,0,0.0,62.0
2749,58.0,240,0,0.0,62.0
2750,75.0,240,260,0.0,51.0
2751,74.0,0,480,0.0,64.0
2752,77.0,0,480,0.0,64.0
2753,70.0,480,240,0.0,96.0
2754,51.0,0,240,0.0,95.0
2755,39.0,0,240,0.0,95.0
2756,75.0,480,260,0.0,59.0
2757,58.0,0,480,0.0,57.0
2758,67.0,0,480,0.0,57.0
2759,63.0,0,480,0.0,57.0
2760,77.0,240,260,0.0,55.0
2761,58.0,240,480,0.0,61.0
2762,67.0,0,480,0.0,61.0
2763,63.0,0,480,0.0,61.0
2764,75.0,0,480,0.0,67.0
2765,79.0,0,480,0.0,67.0
2766,46.0,480,240,0.0,96.0
2767,58.0,0,240,0.0,96.0
2768,70.0,0,240,0.0,97.0
2769,77.0,0,260,0.0,67.0
2770,68.0,480,480,0.0,60.0
2771,65.0,0,480,0.0,60.0
2772,58.0,240,0,0.0,67.0
2773,79.0,240,260,0.0,65.0
2774,68.0,0,480,0.0,67.0
2775,65.0,0,480,0.0,67.0
2776,80.0,0,480,0.0,75.0
2777,77.0,0,480,0.0,75.0
2778,51.0,480,240,0.0,97.0
2779,67.0,0,240,0.0,71.0
2780,61.0,0,240,0.0,71.0
2781,58.0,480,240,0.0,71.0
2782,73.0,0,0,0.0,69.0
2783,79.0,0,0,0.0,69.0
2784,82.0,0,0,0.0,69.0
2785,82.0,240,0,0.0,69.0
2786,52.0,480,240,0.0,92.0
2787,73.0,0,0,0.0,69.0
2788,79.0,240,0,0.0,77.0
2789,73.0,0,0,0.0,77.0
2790,53.0,0,240,0.0,60.0
2791,82.0,0,500,0.0,77.0
2792,65.0,0,240,0.0,47.0
2793,56.0,0,240,0.0,47.0
2794,84.0,480,260,0.0,60.0
2795,82.0,240,260,0.0,54.0
2796,72.0,240,240,0.0,58.0
2797,80.0,0,240,0.0,58.0
2798,44.0,0,240,0.0,53.0
2799,46.0,0,240,0.0,55.0
2800,80.0,480,500,0.0,76.0
2801,82.0,0,260,0.0,57.0
2802,71.0,0,960,0.0,76.0
2803,63.0,0,0,0.0,51.0
2804,55.0,0,0,0.0,51.0
2805,80.0,240,260,0.0,53.0
2806,70.0,0,240,0.0,56.0
2807,79.0,240,240,0.0,56.0
2808,46.0,480,240,0.0,54.0
2809,79.0,0,500,0.0,71.0
2810,80.0,0,260,0.0,55.0
2811,53.0,0,480,0.0,41.0
2812,62.0,0,0,0.0,49.0
2813,70.0,0,960,0.0,71.0
2814,79.0,240,260,0.0,51.0
2815,77.0,0,240,0.0,54.0
2816,68.0,0,240,0.0,54.0
2817,58.0,240,480,0.0,49.0
2818,77.0,0,500,0.0,64.0
2819,79.0,0,260,0.0,48.0
2820,58.0,240,0,0.0,47.0
2821,68.0,0,960,0.0,64.0
2822,63.0,0,480,0.0,38.0
2823,77.0,240,260,0.0,45.0
2824,75.0,0,240,0.0,48.0
2825,67.0,0,240,0.0,48.0
2826,58.0,480,0,0.0,95.0
2827,51.0,480,1440,0.0,51.0
2828,63.0,0,480,0.0,47.0
2829,82.0,0,480,0.0,96.0
2830,70.0,0,480,0.0,96.0
2831,58.0,480,240,0.0,54.0
2832,46.0,0,720,0.0,95.0
2833,74.0,0,260,0.0,57.0
2834,68.0,0,480,0.0,54.0
2835,58.0,240,0,0.0,58.0
2836,65.0,0,0,0.0,58.0
2837,75.0,240,260,0.0,52.0
2838,74.0,0,480,0.0,63.0
2839,77.0,0,480,0.0,63.0
2840,68.0,0,480,0.0,58.0
2841,70.0,0,480,0.0,95.0
2842,82.0,480,480,0.0,95.0
2843,51.0,0,720,0.0,94.0
2844,39.0,0,720,0.0,94.0
2845,75.0,0,260,0.0,60.0
2846,67.0,0,0,0.0,69.0
2847,63.0,0,0,0.0,69.0
2848,58.0,240,0,0.0,69.0
2849,77.0,240,260,0.0,57.0
2850,79.0,0,480,0.0,68.0
2851,75.0,0,480,0.0,68.0
2852,70.0,0,480,0.0,93.0
2853,82.0,0,480,0.0,93.0
2854,46.0,480,720,0.0,95.0
2855,58.0,480,240,0.0,66.0
2856,77.0,0,260,0.0,72.0
2857,68.0,0,480,0.0,66.0
2858,65.0,0,0,0.0,70.0
2859,79.0,240,260,0.0,68.0
2860,58.0,0,480,0.0,70.0
2861,80.0,240,480,0.0,80.0
2862,68.0,0,480,0.0,70.0
2863,77.0,0,480,0.0,80.0
2864,51.0,0,240,0.0,78.0
2865,73.0,0,720,0.0,101.0
2866,79.0,0,720,0.0,101.0
2867,82.0,480,720,0.0,101.0
2868,58.0,480,240,0.0,48.0
2869,67.0,0,240,0.0,48.0
2870,61.0,0,240,0.0,48.0
2871,82.0,0,240,0.0,76.0
2872,79.0,240,240,0.0,76.0
2873,79.0,0,240,0.0,74.0
2874,82.0,240,240,0.0,74.0
2875,52.0,240,480,0.0,49.0
2876,73.0,240,0,0.0,64.0
2877,53.0,0,240,0.0,43.0
2878,82.0,240,260,0.0,72.0
2879,56.0,0,240,0.0,49.0
2880,65.0,0,240,0.0,49.0
2881,84.0,240,260,0.0,64.0
2882,82.0,240,260,0.0,57.0
2883,80.0,0,240,0.0,54.0
2884,44.0,240,240,0.0,37.0
2885,72.0,0,240,0.0,54.0
2886,46.0,0,240,0.0,43.0
2887,80.0,240,260,0.0,69.0
2888,82.0,240,260,0.0,65.0
2889,71.0,480,960,0.0,65.0
2890,63.0,0,480,0.0,31.0
2891,55.0,0,480,0.0,31.0
2892,80.0,240,260,0.0,55.0
2893,79.0,240,240,0.0,51.0
2894,70.0,0,240,0.0,51.0
2895,63.0,0,480,0.0,41.0
2896,55.0,0,480,0.0,41.0
2897,46.0,480,240,0.0,33.0
2898,79.0,240,260,0.0,46.0
2899,80.0,240,260,0.0,58.0
2900,70.0,0,960,0.0,63.0
2901,62.0,0,480,0.0,40.0
2902,53.0,0,480,0.0,40.0
2903,79.0,240,260,0.0,45.0
2904,68.0,240,480,0.0,50.0
2905,77.0,0,480,0.0,50.0
2906,62.0,0,480,0.0,27.0
2907,75.0,480,240,0.0,59.0
2908,67.0,0,240,0.0,59.0
2909,63.0,0,480,0.0,44.0
2910,51.0,0,480,0.0,44.0
2911,58.0,0,960,0.0,27.0
2912,75.0,480,120,0.0,53.0
2913,75.0,240,120,0.0,64.0
2914,75.0,0,120,0.0,67.0
2915,75.0,240,120,0.0,69.0
2916,61.0,0,480,0.0,52.0
2917,55.0,0,480,0.0,52.0
2918,51.0,240,480,0.0,52.0
2919,75.0,240,120,0.0,78.0
2920,75.0,240,120,0.0,64.0
2921,75.0,0,120,0.0,78.0
2922,44.0,0,720,0.0,25.0
2923,75.0,240,120,0.0,74.0
2924,56.0,0,480,0.0,33.0
2925,60.0,0,480,0.0,33.0
2926,51.0,240,480,0.0,33.0
2927,75.0,240,120,0.0,69.0
2928,75.0,240,120,0.0,69.0
2929,51.0,0,480,0.0,41.0
2930,56.0,0,480,0.0,41.0
2931,60.0,0,480,0.0,41.0
2932,77.0,0,260,0.0,65.0
2933,75.0,240,260,0.0,58.0
2934,44.0,240,720,0.0,33.0
2935,72.0,0,260,0.0,56.0
2936,60.0,0,0,0.0,37.0
2937,56.0,0,0,0.0,37.0
2938,51.0,0,0,0.0,37.0
2939,68.0,240,260,0.0,48.0
2940,63.0,240,240,0.0,52.0
2941,64.0,240,240,0.0,44.0
2942,65.0,240,120,0.0,58.0
2943,65.0,240,120,0.0,51.0
2944,65.0,0,120,0.0,55.0
2945,44.0,0,720,0.0,37.0
2946,65.0,240,120,0.0,46.0
2947,56.0,240,480,0.0,26.0
2948,59.0,0,480,0.0,26.0
2949,50.0,0,0,0.0,32.0
2950,65.0,240,120,0.0,54.0
2951,65.0,240,120,0.0,64.0
2952,56.0,0,480,0.0,32.0
2953,59.0,0,480,0.0,32.0
2954,63.0,240,260,0.0,61.0
2955,68.0,240,260,0.0,53.0
2956,44.0,0,720,0.0,38.0
2957,72.0,240,260,0.0,46.0
2958,56.0,0,0,0.0,48.0
2959,51.0,0,0,0.0,48.0
2960,60.0,240,0,0.0,48.0
2961,75.0,240,260,0.0,64.0
2962,80.0,0,260,0.0,59.0
2963,76.0,240,240,0.0,52.0
2964,77.0,0,120,0.0,52.0
2965,77.0,240,120,0.0,48.0
2966,77.0,0,120,0.0,64.0
2967,50.0,240,720,0.0,55.0
2968,77.0,240,120,0.0,60.0
2969,65.0,240,480,0.0,24.0
2970,59.0,0,480,0.0,24.0
2971,56.0,240,0,0.0,36.0
2972,77.0,0,120,0.0,53.0
2973,77.0,240,120,0.0,73.0
2974,59.0,0,480,0.0,36.0
2975,65.0,0,480,0.0,36.0
2976,77.0,0,180,0.0,77.0
2977,79.0,160,180,0.0,55.0
2978,77.0,160,180,0.0,55.0
2979,51.0,240,720,0.0,44.0
2980,75.0,0,260,0.0,65.0
2981,68.0,160,480,0.0,32.0
2982,60.0,0,0,0.0,42.0
2983,63.0,0,0,0.0,42.0
2984,80.0,240,260,0.0,57.0
2985,84.0,240,240,0.0,51.0
2986,68.0,0,480,0.0,42.0
2987,89.0,480,500,0.0,66.0
2988,51.0,0,720,0.0,20.0
2989,87.0,0,260,0.0,50.0
2990,67.0,240,0,0.0,30.0
2991,61.0,0,0,0.0,30.0
2992,63.0,0,0,0.0,30.0
2993,85.0,240,260,0.0,45.0
2994,79.0,0,240,0.0,52.0
2995,82.0,0,500,0.0,58.0
2996,56.0,480,720,0.0,34.0
2997,80.0,480,260,0.0,43.0
2998,68.0,0,480,0.0,23.0
2999,63.0,0,480,0.0,23.0
3000,60.0,0,480,0.0,23.0
3001,75.0,240,260,0.0,44.0
3002,72.0,240,240,0.0,38.0
3003,63.0,0,480,0.0,38.0
3004,60.0,0,480,0.0,38.0
3005,68.0,0,480,0.0,38.0
3006,75.0,0,120,0.0,48.0
3007,75.0,240,120,0.0,44.0
3008,75.0,0,120,0.0,65.0
3009,44.0,480,720,0.0,34.0
3010,75.0,240,120,0.0,69.0
3011,56.0,240,480,0.0,31.0
3012,60.0,0,480,0.0,31.0
3013,51.0,0,0,0.0,49.0
3014,75.0,240,120,0.0,63.0
3015,75.0,240,120,0.0,71.0
3016,56.0,0,480,0.0,49.0
3017,60.0,0,480,0.0,49.0
3018,77.0,0,260,0.0,61.0
3019,75.0,240,260,0.0,56.0
3020,44.0,240,720,0.0,47.0
3021,72.0,0,260,0.0,50.0
3022,60.0,0,0,0.0,52.0
3023,51.0,0,0,0.0,52.0
3024,56.0,0,0,0.0,52.0
3025,68.0,240,260,0.0,50.0
3026,63.0,240,240,0.0,48.0
3027,64.0,240,240,0.0,53.0
3028,65.0,240,120,0.0,57.0
3029,65.0,240,120,0.0,51.0
3030,65.0,0,120,0.0,55.0
3031,44.0,0,720,0.0,40.0
3032,65.0,240,120,0.0,55.0
3033,56.0,240,480,0.0,35.0
3034,59.0,0,480,0.0,35.0
3035,50.0,0,480,0.0,35.0
3036,65.0,0,120,0.0,61.0
3037,65.0,240,120,0.0,65.0
3038,50.0,240,480,0.0,31.0
3039,56.0,0,480,0.0,31.0
3040,59.0,0,480,0.0,31.0
3041,63.0,0,260,0.0,58.0
3042,68.0,240,260,0.0,52.0
3043,44.0,240,720,0.0,38.0
3044,72.0,0,260,0.0,49.0
3045,56.0,0,480,0.0,30.0
3046,60.0,240,480,0.0,30.0
3047,51.0,0,480,0.0,30.0
3048,75.0,240,260,0.0,45.0
3049,80.0,0,260,0.0,52.0
3050,56.0,240,480,0.0,36.0
3051,60.0,0,480,0.0,36.0
3052,51.0,0,480,0.0,36.0
3053,76.0,240,240,0.0,48.0
3054,77.0,0,120,0.0,58.0
3055,77.0,240,120,0.0,49.0
3056,77.0,0,120,0.0,61.0
3057,50.0,240,720,0.0,38.0
3058,77.0,240,120,0.0,57.0
3059,56.0,0,480,0.0,33.0
3060,59.0,240,480,0.0,33.0
3061,65.0,0,0,0.0,36.0
3062,77.0,0,120,0.0,65.0
3063,77.0,240,120,0.0,65.0
3064,59.0,0,480,0.0,36.0
3065,56.0,240,480,0.0,36.0
3066,77.0,240,180,0.0,75.0
3067,79.0,160,180,0.0,55.0
3068,77.0,160,180,0.0,55.0
3069,51.0,0,720,0.0,44.0
3070,75.0,0,260,0.0,66.0
3071,60.0,0,480,0.0,29.0
3072,68.0,160,480,0.0,29.0
3073,63.0,0,480,0.0,29.0
3074,80.0,240,260,0.0,64.0
3075,84.0,0,240,0.0,60.0
3076,68.0,240,480,0.0,44.0
3077,63.0,0,480,0.0,44.0
3078,60.0,0,480,0.0,44.0
3079,89.0,0,500,0.0,67.0
3080,51.0,480,720,0.0,27.0
3081,87.0,0,260,0.0,52.0
3082,67.0,0,0,0.0,37.0
3083,61.0,240,0,0.0,37.0
3084,63.0,0,0,0.0,37.0
3085,85.0,240,260,0.0,50.0
3086,79.0,0,240,0.0,52.0
3087,68.0,0,0,0.0,47.0
3088,60.0,480,480,0.0,35.0
3089,80.0,0,960,0.0,65.0
3090,74.0,480,80,0.0,55.0
3091,72.0,80,80,0.0,49.0
3092,74.0,80,80,0.0,65.0
3093,72.0,80,80,0.0,53.0
3094,71.0,80,80,0.0,67.0
3095,56.0,480,1440,0.0,44.0
3096,65.0,0,480,0.0,47.0
3097,72.0,80,80,0.0,56.0
3098,70.0,0,500,0.0,87.0
3099,46.0,80,720,0.0,86.0
3100,74.0,0,260,0.0,62.0
3101,65.0,0,0,0.0,65.0
3102,68.0,0,0,0.0,65.0
3103,58.0,240,0,0.0,65.0
3104,75.0,240,260,0.0,62.0
3105,77.0,0,480,0.0,67.0
3106,74.0,0,480,0.0,67.0
3107,70.0,0,240,0.0,85.0
3108,51.0,480,720,0.0,74.0
3109,75.0,0,260,0.0,73.0
3110,63.0,0,480,0.0,57.0
3111,67.0,0,480,0.0,57.0
3112,58.0,240,0,0.0,62.0
3113,77.0,240,260,0.0,69.0
3114,79.0,0,480,0.0,76.0
3115,75.0,0,480,0.0,76.0
3116,63.0,0,480,0.0,62.0
3117,67.0,0,480,0.0,62.0
3118,70.0,0,240,0.0,87.0
3119,50.0,480,720,0.0,65.0
3120,77.0,0,260,0.0,73.0
3121,58.0,0,480,0.0,56.0
3122,68.0,240,0,0.0,69.0
3123,65.0,0,0,0.0,69.0
3124,79.0,240,260,0.0,68.0
3125,77.0,0,480,0.0,83.0
3126,80.0,0,480,0.0,83.0
3127,58.0,0,480,0.0,69.0
3128,51.0,0,240,0.0,61.0
3129,67.0,0,240,0.0,61.0
3130,58.0,0,240,0.0,61.0
3131,61.0,480,240,0.0,61.0
3132,82.0,0,960,0.0,77.0
3133,79.0,0,0,0.0,75.0
3134,73.0,0,0,0.0,75.0
3135,82.0,0,240,0.0,75.0
3136,52.0,480,240,0.0,38.0
3137,79.0,240,240,0.0,69.0
3138,82.0,0,0,0.0,70.0
3139,73.0,0,240,0.0,69.0
3140,53.0,0,240,0.0,38.0
3141,65.0,480,240,0.0,41.0
3142,56.0,0,240,0.0,41.0
3143,84.0,0,260,0.0,59.0
3144,73.0,0,960,0.0,70.0
3145,79.0,240,960,0.0,70.0
3146,82.0,240,260,0.0,56.0
3147,44.0,240,240,0.0,36.0
3148,72.0,0,240,0.0,53.0
3149,80.0,0,240,0.0,53.0
3150,46.0,0,240,0.0,31.0
3151,80.0,480,500,0.0,69.0
3152,82.0,0,260,0.0,47.0
3153,63.0,480,480,0.0,27.0
3154,55.0,0,480,0.0,27.0
3155,71.0,0,960,0.0,69.0
3156,80.0,240,260,0.0,45.0
3157,70.0,240,240,0.0,52.0
3158,79.0,0,240,0.0,52.0
3159,63.0,0,480,0.0,41.0
3160,55.0,0,480,0.0,41.0
3161,46.0,480,240,0.0,39.0
3162,79.0,0,500,0.0,66.0
3163,80.0,0,260,0.0,53.0
3164,70.0,0,960,0.0,66.0
3165,53.0,0,480,0.0,26.0
3166,62.0,240,0,0.0,34.0
3167,79.0,240,260,0.0,47.0
3168,77.0,0,240,0.0,67.0
3169,68.0,0,240,0.0,67.0
3170,58.0,0,480,0.0,34.0
3171,77.0,480,500,0.0,64.0
3172,79.0,0,260,0.0,52.0
3173,68.0,0,960,0.0,64.0
3174,58.0,480,480,0.0,33.0
3175,63.0,0,0,0.0,53.0
3176,77.0,240,260,0.0,48.0
3177,75.0,0,240,0.0,53.0
3178,67.0,0,240,0.0,53.0
3179,51.0,0,1440,0.0,23.0
3180,58.0,240,480,0.0,53.0
3181,70.0,0,240,0.0,97.0
3182,82.0,0,240,0.0,97.0
3183,34.0,480,720,0.0,91.0
3184,46.0,0,720,0.0,91.0
3185,74.0,0,260,0.0,57.0
3186,58.0,0,480,0.0,54.0
3187,65.0,480,480,0.0,54.0
3188,68.0,240,0,0.0,58.0
3189,75.0,240,260,0.0,53.0
3190,65.0,0,480,0.0,58.0
3191,58.0,0,480,0.0,58.0
3192,74.0,0,480,0.0,63.0
3193,77.0,0,480,0.0,63.0
3194,82.0,0,240,0.0,97.0
3195,70.0,0,240,0.0,97.0
3196,39.0,480,720,0.0,92.0
3197,51.0,0,720,0.0,92.0
3198,75.0,0,260,0.0,60.0
3199,58.0,0,0,0.0,64.0
3200,63.0,0,0,0.0,64.0
3201,67.0,0,0,0.0,64.0
3202,77.0,240,260,0.0,57.0
3203,79.0,0,480,0.0,68.0
3204,75.0,240,480,0.0,68.0
3205,70.0,0,240,0.0,96.0
3206,82.0,480,240,0.0,96.0
3207,58.0,0,240,0.0,66.0
3208,46.0,0,720,0.0,91.0
3209,77.0,480,260,0.0,72.0
3210,65.0,0,0,0.0,72.0
3211,68.0,0,0,0.0,72.0
3212,79.0,240,260,0.0,70.0
3213,80.0,240,480,0.0,80.0
3214,58.0,0,480,0.0,72.0
3215,77.0,0,480,0.0,80.0
3216,67.0,0,480,0.0,90.0
3217,58.0,0,480,0.0,90.0
3218,73.0,480,480,0.0,99.0
3219,79.0,0,480,0.0,99.0
3220,82.0,0,480,0.0,99.0
3221,61.0,0,480,0.0,90.0
3222,51.0,0,480,0.0,90.0
3223,79.0,0,240,0.0,49.0
3224,73.0,0,0,0.0,49.0
3225,82.0,240,0,0.0,49.0
3226,52.0,3840,480,0.0,40.0
3227,79.0,0,0,0.0,55.0
3228,73.0,240,0,0.0,55.0
3229,53.0,0,240,0.0,48.0
3230,82.0,0,500,0.0,55.0
3231,65.0,480,240,0.0,44.0
3232,56.0,0,240,0.0,44.0
3233,84.0,0,260,0.0,53.0
3234,82.0,240,260,0.0,52.0
3235,72.0,0,240,0.0,48.0
3236,80.0,240,240,0.0,48.0
3237,44.0,0,240,0.0,44.0
3238,46.0,0,240,0.0,39.0
3239,80.0,480,500,0.0,54.0
3240,82.0,0,260,0.0,51.0
3241,71.0,0,960,0.0,54.0
3242,63.0,480,480,0.0,36.0
3243,55.0,0,0,0.0,36.0
3244,80.0,240,260,0.0,48.0
3245,79.0,240,240,0.0,45.0
3246,70.0,0,240,0.0,45.0
3247,63.0,0,480,0.0,36.0
3248,46.0,480,240,0.0,35.0
3249,79.0,0,500,0.0,44.0
3250,80.0,0,260,0.0,41.0
3251,62.0,0,480,0.0,32.0
3252,58.0,0,0,0.0,30.0
3253,53.0,0,0,0.0,32.0
3254,70.0,0,960,0.0,44.0
3255,79.0,240,260,0.0,38.0
3256,68.0,240,240,0.0,35.0
3257,77.0,0,240,0.0,35.0
3258,62.0,0,480,0.0,30.0
3259,39.0,1920,480,0.0,33.0
3260,55.0,480,480,0.0,29.0
3261,46.0,480,0,0.0,31.0
3262,55.0,0,480,0.0,31.0
3263,39.0,480,480,0.0,32.0
3264,55.0,480,480,0.0,29.0
3265,46.0,0,0,0.0,31.0
3266,55.0,480,480,0.0,31.0
3267,39.0,480,480,0.0,34.0
3268,55.0,0,480,0.0,29.0
3269,46.0,480,480,0.0,29.0
3270,55.0,480,480,0.0,32.0
3271,46.0,0,480,0.0,32.0
3272,39.0,480,480,0.0,33.0
3273,55.0,0,480,0.0,30.0
3274,46.0,480,0,0.0,32.0
3275,55.0,0,480,0.0,32.0
3276,63.0,0,120,0.0,40.0
3277,63.0,240,120,0.0,38.0
3278,39.0,480,480,0.0,33.0
3279,63.0,240,120,0.0,40.0
3280,63.0,240,120,0.0,37.0
3281,46.0,240,0,0.0,31.0
3282,55.0,0,480,0.0,29.0
3283,55.0,0,480,0.0,31.0
3284,63.0,0,480,0.0,49.0
3285,55.0,0,240,0.0,39.0
3286,39.0,480,480,0.0,33.0
3287,58.0,240,240,0.0,39.0
3288,63.0,0,240,0.0,46.0
3289,55.0,0,480,0.0,30.0
3290,46.0,240,480,0.0,30.0
3291,67.0,240,240,0.0,45.0
3292,72.0,420,0,0.0,44.0
3293,46.0,0,480,0.0,30.0
3294,55.0,240,480,0.0,30.0
3295,71.0,60,240,0.0,51.0
3296,39.0,0,480,0.0,36.0
3297,71.0,420,60,0.0,39.0
3298,70.0,0,240,0.0,48.0
3299,51.0,0,480,0.0,33.0
3300,55.0,0,480,0.0,33.0
3301,61.0,60,480,0.0,33.0
3302,70.0,420,60,0.0,39.0
3303,69.0,0,240,0.0,46.0
3304,55.0,0,480,0.0,30.0
3305,69.0,420,60,0.0,35.0
3306,51.0,0,480,0.0,30.0
3307,61.0,60,480,0.0,30.0
3308,68.0,60,240,0.0,44.0
3309,68.0,420,60,0.0,33.0
3310,55.0,0,0,0.0,29.0
3311,61.0,60,0,0.0,29.0
3312,51.0,0,480,0.0,33.0
3313,67.0,0,240,0.0,41.0
3314,67.0,420,60,0.0,32.0
3315,51.0,60,0,0.0,29.0
3316,65.0,0,240,0.0,39.0
3317,55.0,0,480,0.0,29.0
3318,61.0,0,480,0.0,29.0
3319,63.0,0,120,0.0,44.0
3320,63.0,240,120,0.0,41.0
3321,39.0,480,480,0.0,36.0
3322,63.0,0,120,0.0,44.0
3323,63.0,240,120,0.0,41.0
3324,60.0,240,480,0.0,31.0
3325,51.0,0,480,0.0,31.0
3326,56.0,0,480,0.0,31.0
3327,56.0,0,480,0.0,31.0
3328,51.0,0,480,0.0,31.0
3329,60.0,0,480,0.0,31.0
3330,63.0,240,480,0.0,53.0
3331,60.0,0,240,0.0,42.0
3332,63.0,240,240,0.0,42.0
3333,39.0,480,480,0.0,36.0
3334,68.0,240,240,0.0,50.0
3335,51.0,0,480,0.0,33.0
3336,72.0,240,240,0.0,49.0
3337,56.0,0,480,0.0,33.0
3338,60.0,0,0,0.0,33.0
3339,77.0,240,420,0.0,59.0
3340,56.0,0,480,0.0,33.0
3341,51.0,0,480,0.0,33.0
3342,79.0,420,60,0.0,48.0
3343,77.0,0,240,0.0,56.0
3344,77.0,420,60,0.0,42.0
3345,39.0,60,480,0.0,39.0
3346,76.0,0,240,0.0,52.0
3347,51.0,60,0,0.0,33.0
3348,56.0,0,480,0.0,36.0
3349,60.0,60,480,0.0,36.0
3350,76.0,420,60,0.0,42.0
3351,75.0,0,240,0.0,50.0
3352,75.0,420,60,0.0,38.0
3353,56.0,0,480,0.0,33.0
3354,60.0,0,480,0.0,33.0
3355,51.0,60,0,0.0,36.0
3356,74.0,0,240,0.0,48.0
3357,60.0,0,480,0.0,36.0
3358,74.0,420,60,0.0,36.0
3359,56.0,0,480,0.0,36.0
3360,73.0,60,240,0.0,45.0
3361,56.0,0,0,0.0,31.0
3362,51.0,60,0,0.0,31.0
3363,60.0,0,0,0.0,31.0
3364,73.0,420,60,0.0,35.0
3365,72.0,0,240,0.0,42.0
3366,51.0,0,0,0.0,39.0
3367,71.0,0,60,0.0,48.0
3368,71.0,120,60,0.0,45.0
3369,51.0,120,0,0.0,32.0
3370,39.0,480,240,0.0,39.0
3371,71.0,0,60,0.0,48.0
3372,71.0,120,60,0.0,37.0
3373,62.0,0,240,0.0,32.0
3374,56.0,0,0,0.0,34.0
3375,71.0,120,60,0.0,48.0
3376,71.0,120,60,0.0,42.0
3377,62.0,0,240,0.0,34.0
3378,51.0,120,0,0.0,39.0
3379,68.0,0,120,0.0,46.0
3380,71.0,120,120,0.0,45.0
3381,51.0,120,0,0.0,35.0
3382,39.0,0,240,0.0,39.0
3383,74.0,0,120,0.0,55.0
3384,56.0,0,240,0.0,35.0
3385,62.0,0,240,0.0,35.0
3386,77.0,120,120,0.0,53.0
3387,83.0,210,0,0.0,52.0
3388,62.0,0,240,0.0,36.0
3389,56.0,0,240,0.0,36.0
3390,51.0,0,240,0.0,36.0
3391,82.0,0,120,0.0,62.0
3392,82.0,210,30,0.0,53.0
3393,39.0,30,240,0.0,40.0
3394,51.0,0,0,0.0,39.0
3395,81.0,30,120,0.0,65.0
3396,59.0,0,240,0.0,39.0
3397,56.0,0,240,0.0,39.0
3398,62.0,30,0,0.0,44.0
3399,81.0,210,30,0.0,54.0
3400,80.0,0,120,0.0,68.0
3401,56.0,0,240,0.0,44.0
3402,59.0,0,0,0.0,46.0
3403,80.0,210,30,0.0,59.0
3404,51.0,0,0,0.0,46.0
3405,62.0,30,0,0.0,46.0
3406,79.0,0,120,0.0,70.0
3407,56.0,0,240,0.0,46.0
3408,79.0,210,30,0.0,60.0
3409,51.0,0,0,0.0,46.0
3410,78.0,0,120,0.0,73.0
3411,78.0,210,30,0.0,65.0
3412,62.0,30,240,0.0,46.0
3413,59.0,0,240,0.0,46.0
3414,56.0,0,240,0.0,46.0
3415,77.0,30,60,0.0,76.0
3416,62.0,0,240,0.0,50.0
3417,51.0,0,240,0.0,50.0
3418,77.0,210,30,0.0,70.0
3419,56.0,0,0,0.0,47.0
3420,59.0,0,0,0.0,47.0
3421,91.0,30,120,0.0,88.0
3422,91.0,210,30,0.0,71.0
3423,56.0,30,0,0.0,38.0
3424,59.0,0,0,0.0,38.0
3425,51.0,0,0,0.0,38.0
3426,62.0,0,0,0.0,38.0
3427,89.0,0,120,0.0,80.0
3428,56.0,0,0,0.0,45.0
3429,59.0,0,0,0.0,45.0
3430,62.0,0,0,0.0,45.0
3431,89.0,210,30,0.0,70.0
3432,51.0,30,0,0.0,45.0
3433,88.0,0,120,0.0,80.0
3434,88.0,210,30,0.0,69.0
3435,51.0,0,0,0.0,47.0
3436,62.0,30,0,0.0,47.0
3437,59.0,0,0,0.0,47.0
3438,56.0,0,0,0.0,47.0
3439,87.0,0,120,0.0,80.0
3440,87.0,210,30,0.0,72.0
3441,86.0,0,120,0.0,80.0
3442,86.0,210,30,0.0,70.0
3443,51.0,30,240,0.0,38.0
3444,62.0,0,240,0.0,38.0
3445,59.0,0,0,0.0,45.0
3446,56.0,0,240,0.0,38.0
3447,85.0,30,120,0.0,80.0
3448,85.0,210,30,0.0,70.0
3449,51.0,30,0,0.0,45.0
3450,62.0,0,240,0.0,45.0
3451,56.0,0,240,0.0,45.0
3452,84.0,0,120,0.0,80.0
3453,84.0,210,30,0.0,70.0
3454,62.0,30,0,0.0,43.0
3455,56.0,0,240,0.0,45.0
3456,58.0,0,240,0.0,45.0
3457,83.0,0,120,0.0,83.0
3458,58.0,0,240,0.0,43.0
3459,51.0,0,240,0.0,43.0
3460,83.0,210,30,0.0,71.0
3461,56.0,0,240,0.0,43.0
3462,82.0,30,120,0.0,86.0
3463,51.0,0,240,0.0,48.0
3464,62.0,0,240,0.0,48.0
3465,56.0,0,0,0.0,49.0
3466,58.0,0,0,0.0,49.0
3467,82.0,210,30,0.0,73.0
3468,81.0,30,120,0.0,89.0
3469,81.0,210,30,0.0,77.0
3470,58.0,0,0,0.0,46.0
3471,62.0,0,0,0.0,46.0
3472,51.0,0,240,0.0,49.0
3473,56.0,30,0,0.0,46.0
3474,80.0,0,120,0.0,92.0
3475,51.0,30,0,0.0,52.0
3476,56.0,0,0,0.0,52.0
3477,80.0,210,30,0.0,79.0
3478,58.0,0,0,0.0,52.0
3479,77.0,0,120,0.0,95.0
3480,62.0,0,240,0.0,52.0
3481,51.0,240,120,0.0,96.0
3482,39.0,0,120,0.0,96.0
3483,87.0,0,120,0.0,100.0
3484,75.0,0,120,0.0,100.0
3485,79.0,0,120,0.0,75.0
3486,70.0,0,240,0.0,74.0
3487,80.0,120,120,0.0,84.0
3488,61.0,240,240,0.0,74.0
3489,63.0,0,240,0.0,74.0
3490,67.0,0,240,0.0,74.0
3491,70.0,0,240,0.0,80.0
3492,79.0,120,240,0.0,87.0
3493,82.0,0,240,0.0,87.0
3494,63.0,0,240,0.0,80.0
3495,61.0,0,240,0.0,80.0
3496,67.0,0,240,0.0,80.0
3497,87.0,0,120,0.0,100.0
3498,75.0,240,120,0.0,100.0
3499,51.0,0,120,0.0,96.0
3500,39.0,0,120,0.0,96.0
3501,78.0,0,120,0.0,78.0
3502,60.0,0,240,0.0,76.0
3503,69.0,0,240,0.0,76.0
3504,66.0,0,240,0.0,76.0
3505,63.0,0,0,0.0,81.0
3506,80.0,120,120,0.0,83.0
3507,69.0,120,240,0.0,81.0
3508,81.0,0,240,0.0,86.0
3509,78.0,0,240,0.0,86.0
3510,66.0,0,240,0.0,81.0
3511,60.0,0,240,0.0,81.0
3512,75.0,0,120,0.0,100.0
3513,87.0,240,120,0.0,100.0
3514,51.0,0,120,0.0,96.0
3515,39.0,0,120,0.0,96.0
3516,77.0,0,120,0.0,86.0
3517,59.0,240,240,0.0,78.0
3518,68.0,0,240,0.0,78.0
3519,63.0,0,240,0.0,78.0
3520,65.0,0,240,0.0,78.0
3521,79.0,120,120,0.0,82.0
3522,68.0,0,240,0.0,83.0
3523,65.0,0,240,0.0,83.0
3524,63.0,0,240,0.0,83.0
3525,59.0,0,240,0.0,83.0
3526,80.0,0,240,0.0,89.0
3527,77.0,120,240,0.0,89.0
3528,51.0,240,240,0.0,98.0
3529,39.0,0,240,0.0,98.0
3530,58.0,0,240,0.0,78.0
3531,63.0,0,240,0.0,78.0
3532,55.0,0,240,0.0,78.0
3533,67.0,240,0,0.0,84.0
3534,70.0,0,0,0.0,95.0
3535,82.0,0,0,0.0,95.0
3536,79.0,0,0,0.0,95.0
3537,82.0,120,0,0.0,100.0
3538,79.0,0,0,0.0,100.0
3539,70.0,0,0,0.0,100.0
3540,55.0,0,240,0.0,84.0
3541,58.0,0,240,0.0,84.0
3542,63.0,0,240,0.0,84.0
3543,46.0,0,240,0.0,97.0
3544,34.0,0,240,0.0,97.0
3545,80.0,240,120,0.0,96.0
3546,79.0,120,120,0.0,91.0
3547,56.0,0,0,0.0,84.0
3548,65.0,0,240,0.0,78.0
3549,62.0,0,240,0.0,78.0
3550,58.0,0,240,0.0,78.0
3551,77.0,120,120,0.0,96.0
3552,82.0,240,0,0.0,94.0
3553,65.0,0,240,0.0,84.0
3554,62.0,0,240,0.0,84.0
3555,58.0,0,240,0.0,84.0
3556,77.0,0,240,0.0,94.0
3557,39.0,0,240,0.0,85.0
3558,51.0,0,240,0.0,85.0
3559,79.0,240,120,0.0,84.0
3560,55.0,120,0,0.0,66.0
3561,63.0,0,0,0.0,66.0
3562,77.0,120,120,0.0,78.0
3563,58.0,0,0,0.0,66.0
3564,75.0,0,120,0.0,75.0
3565,70.0,0,720,0.0,94.0
3566,58.0,240,0,0.0,67.0
3567,46.0,0,240,0.0,67.0
3568,70.0,0,240,0.0,77.0
3569,72.0,0,120,0.0,69.0
3570,58.0,0,240,0.0,53.0
3571,56.0,120,0,0.0,56.0
3572,62.0,240,240,0.0,53.0
3573,53.0,0,0,0.0,56.0
3574,70.0,120,120,0.0,58.0
3575,79.0,0,480,0.0,77.0
3576,68.0,0,120,0.0,62.0
3577,77.0,0,120,0.0,62.0
3578,58.0,0,240,0.0,56.0
3579,62.0,0,240,0.0,56.0
3580,51.0,240,240,0.0,63.0
3581,68.0,0,240,0.0,71.0
3582,39.0,0,240,0.0,63.0
3583,70.0,0,120,0.0,62.0
3584,51.0,0,240,0.0,42.0
3585,58.0,0,240,0.0,42.0
3586,61.0,240,240,0.0,42.0
3587,77.0,0,480,0.0,71.0
3588,68.0,120,120,0.0,52.0
3589,67.0,0,120,0.0,56.0
3590,75.0,0,120,0.0,56.0
3591,61.0,120,240,0.0,49.0
3592,58.0,0,240,0.0,49.0
3593,51.0,0,240,0.0,49.0
3594,44.0,240,240,0.0,62.0
3595,56.0,0,0,0.0,47.0
3596,68.0,0,120,0.0,55.0
3597,51.0,0,240,0.0,47.0
3598,56.0,0,0,0.0,51.0
3599,60.0,0,0,0.0,51.0
3600,70.0,120,120,0.0,57.0
3601,72.0,0,120,0.0,59.0
3602,68.0,0,120,0.0,59.0
3603,56.0,240,0,0.0,59.0
3604,51.0,120,240,0.0,51.0
3605,75.0,0,720,0.0,68.0
3606,63.0,0,720,0.0,68.0
3607,44.0,0,240,0.0,59.0
3608,68.0,0,120,0.0,51.0
3609,59.0,0,240,0.0,45.0
3610,70.0,120,120,0.0,54.0
3611,51.0,120,0,0.0,48.0
3612,56.0,0,0,0.0,48.0
3613,71.0,0,120,0.0,56.0
3614,68.0,0,120,0.0,56.0
3615,75.0,0,720,0.0,65.0
3616,63.0,0,720,0.0,65.0
3617,59.0,0,240,0.0,48.0
3618,39.0,240,240,0.0,56.0
3619,67.0,0,120,0.0,46.0
3620,51.0,0,240,0.0,45.0
3621,55.0,240,240,0.0,45.0
3622,46.0,120,0,0.0,48.0
3623,68.0,120,120,0.0,49.0
3624,70.0,0,120,0.0,51.0
3625,67.0,0,120,0.0,51.0
3626,55.0,0,240,0.0,48.0
3627,51.0,0,240,0.0,48.0
3628,63.0,0,720,0.0,62.0
3629,75.0,0,720,0.0,62.0
3630,39.0,240,240,0.0,52.0
3631,51.0,240,240,0.0,41.0
3632,46.0,0,240,0.0,41.0
3633,55.0,240,0,0.0,45.0
3634,70.0,0,480,0.0,59.0
3635,67.0,0,480,0.0,59.0
3636,58.0,0,480,0.0,59.0
3637,67.0,0,0,0.0,45.0
3638,58.0,0,120,0.0,49.0
3639,70.0,120,0,0.0,45.0
3640,58.0,0,120,0.0,45.0
3641,67.0,120,0,0.0,55.0
3642,46.0,0,240,0.0,45.0
3643,51.0,0,240,0.0,45.0
3644,39.0,0,240,0.0,48.0
3645,68.0,0,120,0.0,48.0
3646,56.0,240,240,0.0,38.0
3647,67.0,120,120,0.0,43.0
3648,50.0,0,240,0.0,38.0
3649,46.0,120,0,0.0,44.0
3650,65.0,0,120,0.0,48.0
3651,50.0,0,240,0.0,44.0
3652,70.0,0,720,0.0,55.0
3653,56.0,0,240,0.0,44.0
3654,58.0,0,720,0.0,55.0
3655,65.0,0,240,0.0,55.0
3656,39.0,240,240,0.0,46.0
3657,67.0,0,120,0.0,46.0
3658,65.0,120,120,0.0,44.0
3659,55.0,240,240,0.0,38.0
3660,51.0,0,240,0.0,38.0
3661,46.0,0,240,0.0,38.0
3662,63.0,120,120,0.0,47.0
3663,46.0,0,240,0.0,41.0
3664,58.0,0,720,0.0,52.0
3665,70.0,0,720,0.0,52.0
3666,51.0,0,240,0.0,41.0
3667,55.0,0,240,0.0,41.0
3668,71.0,0,60,0.0,50.0
3669,71.0,120,60,0.0,46.0
3670,39.0,0,240,0.0,46.0
3671,62.0,240,240,0.0,46.0
3672,71.0,0,60,0.0,50.0
3673,71.0,120,60,0.0,45.0
3674,56.0,120,0,0.0,39.0
3675,46.0,0,0,0.0,39.0
3676,53.0,0,0,0.0,39.0
3677,71.0,0,60,0.0,39.0
3678,71.0,120,60,0.0,46.0
3679,71.0,0,120,0.0,48.0
3680,70.0,120,120,0.0,43.0
3681,39.0,120,240,0.0,43.0
3682,67.0,0,120,0.0,47.0
3683,63.0,120,120,0.0,41.0
3684,55.0,120,240,0.0,29.0
3685,51.0,0,240,0.0,29.0
3686,46.0,0,0,0.0,34.0
3687,58.0,120,120,0.0,46.0
3688,55.0,0,240,0.0,34.0
3689,51.0,0,240,0.0,34.0
3690,67.0,240,240,0.0,55.0
3691,39.0,0,240,0.0,48.0
3692,68.0,0,120,0.0,42.0
3693,67.0,120,120,0.0,45.0
3694,46.0,240,240,0.0,38.0
3695,50.0,0,240,0.0,38.0
3696,56.0,0,240,0.0,38.0
3697,65.0,0,120,0.0,48.0
3698,70.0,0,720,0.0,55.0
3699,58.0,0,720,0.0,55.0
3700,50.0,0,240,0.0,44.0
3701,46.0,120,240,0.0,44.0
3702,56.0,0,240,0.0,44.0
3703,39.0,0,240,0.0,46.0
3704,65.0,240,240,0.0,55.0
3705,67.0,0,120,0.0,46.0
3706,65.0,120,120,0.0,44.0
3707,55.0,240,240,0.0,37.0
3708,46.0,0,240,0.0,37.0
3709,51.0,0,240,0.0,37.0
3710,63.0,120,120,0.0,40.0
3711,70.0,0,720,0.0,52.0
3712,46.0,0,240,0.0,41.0
3713,51.0,0,240,0.0,41.0
3714,55.0,0,240,0.0,41.0
3715,58.0,0,720,0.0,52.0
3716,72.0,0,60,0.0,50.0
3717,62.0,240,120,0.0,50.0
3718,72.0,120,60,0.0,48.0
3719,39.0,0,240,0.0,46.0
3720,72.0,0,60,0.0,50.0
3721,72.0,120,60,0.0,47.0
3722,56.0,120,0,0.0,39.0
3723,53.0,0,240,0.0,36.0
3724,46.0,0,240,0.0,36.0
3725,72.0,0,60,0.0,44.0
3726,72.0,120,60,0.0,47.0
3727,46.0,0,240,0.0,39.0
3728,53.0,0,240,0.0,39.0
3729,72.0,120,120,0.0,48.0
3730,70.0,120,120,0.0,45.0
3731,39.0,0,240,0.0,43.0
3732,67.0,0,120,0.0,47.0
3733,63.0,120,120,0.0,42.0
3734,55.0,0,240,0.0,33.0
3735,51.0,0,240,0.0,33.0
3736,46.0,0,0,0.0,36.0
3737,58.0,120,120,0.0,46.0
3738,55.0,0,240,0.0,36.0
3739,51.0,0,240,0.0,36.0
3740,71.0,0,60,0.0,52.0
3741,62.0,240,120,0.0,52.0
3742,71.0,120,60,0.0,50.0
3743,39.0,0,240,0.0,46.0
3744,71.0,120,60,0.0,53.0
3745,71.0,120,60,0.0,51.0
3746,56.0,120,0,0.0,43.0
3747,53.0,0,0,0.0,43.0
3748,46.0,0,0,0.0,43.0
3749,71.0,0,60,0.0,48.0
3750,71.0,120,60,0.0,53.0
3751,71.0,0,120,0.0,56.0
3752,39.0,120,240,0.0,48.0
3753,70.0,120,120,0.0,53.0
3754,68.0,120,120,0.0,57.0
3755,56.0,0,240,0.0,42.0
3756,53.0,0,240,0.0,42.0
3757,46.0,120,0,0.0,44.0
3758,65.0,120,120,0.0,56.0
3759,62.0,0,120,0.0,55.0
3760,53.0,0,240,0.0,44.0
3761,56.0,0,240,0.0,44.0
3762,79.0,0,120,0.0,73.0
3763,77.0,120,120,0.0,59.0
3764,39.0,240,240,0.0,56.0
3765,74.0,0,120,0.0,64.0
3766,53.0,120,240,0.0,49.0
3767,46.0,0,240,0.0,49.0
3768,56.0,0,240,0.0,49.0
3769,71.0,120,120,0.0,59.0
3770,68.0,120,120,0.0,58.0
3771,56.0,0,240,0.0,51.0
3772,53.0,0,240,0.0,51.0
3773,46.0,0,240,0.0,51.0
3774,83.0,0,120,0.0,80.0
3775,39.0,240,240,0.0,67.0
3776,80.0,120,120,0.0,67.0
3777,77.0,0,120,0.0,71.0
3778,74.0,120,120,0.0,67.0
3779,53.0,120,0,0.0,60.0
3780,56.0,120,240,0.0,56.0
3781,46.0,0,0,0.0,60.0
3782,71.0,0,120,0.0,68.0
3783,56.0,0,240,0.0,60.0
3784,95.0,0,120,0.0,90.0
3785,51.0,0,0,0.0,61.0
3786,91.0,120,120,0.0,74.0
3787,39.0,240,240,0.0,67.0
3788,95.0,0,120,0.0,77.0
3789,92.0,120,120,0.0,76.0
3790,56.0,0,240,0.0,61.0
3791,62.0,120,240,0.0,61.0
3792,59.0,0,240,0.0,61.0
3793,89.0,120,120,0.0,74.0
3794,86.0,120,120,0.0,72.0
3795,83.0,120,120,0.0,80.0
3796,56.0,0,240,0.0,63.0
3797,79.0,120,120,0.0,73.0
3798,59.0,0,240,0.0,63.0
3799,62.0,0,240,0.0,63.0
3800,51.0,0,0,0.0,58.0
3801,83.0,120,120,0.0,77.0
3802,62.0,0,240,0.0,58.0
3803,59.0,0,240,0.0,58.0
3804,56.0,0,240,0.0,58.0
3805,80.0,120,120,0.0,76.0
3806,77.0,120,120,0.0,76.0
3807,74.0,120,120,0.0,75.0
3808,71.0,0,120,0.0,80.0
3809,51.0,120,0,0.0,60.0
3810,62.0,0,240,0.0,63.0
3811,59.0,0,0,0.0,60.0
3812,56.0,120,240,0.0,63.0
3813,67.0,120,120,0.0,73.0
3814,70.0,0,120,0.0,75.0
3815,68.0,120,120,0.0,74.0
3816,62.0,0,240,0.0,60.0
3817,56.0,0,240,0.0,60.0
3818,65.0,120,120,0.0,73.0
3819,62.0,120,120,0.0,72.0
3820,59.0,120,120,0.0,80.0
3821,55.0,120,120,0.0,73.0
3822,59.0,120,120,0.0,76.0
3823,56.0,120,120,0.0,75.0
3824,53.0,120,120,0.0,75.0
3825,50.0,120,120,0.0,74.0
3826,27.0,0,120,0.0,67.0
3827,51.0,0,120,0.0,89.0
3828,39.0,120,120,0.0,67.0
3829,55.0,240,120,0.0,50.0
3830,56.0,120,120,0.0,50.0
3831,58.0,120,120,0.0,50.0
3832,60.0,120,120,0.0,50.0
3833,62.0,120,120,0.0,50.0
3834,63.0,120,120,0.0,50.0
3835,65.0,120,120,0.0,50.0
3836,67.0,120,120,0.0,50.0
3837,68.0,120,120,0.0,50.0
3838,69.0,120,120,0.0,50.0
3839,72.0,120,120,0.0,53.0
3840,70.0,120,120,0.0,50.0
3841,67.0,0,120,0.0,45.0
3842,63.0,0,240,0.0,33.0
3843,58.0,0,0,0.0,33.0
3844,55.0,120,0,0.0,33.0
3845,68.0,120,120,0.0,45.0
3846,70.0,0,120,0.0,46.0
3847,58.0,0,0,0.0,36.0
3848,63.0,0,0,0.0,36.0
3849,67.0,0,0,0.0,36.0
3850,55.0,120,0,0.0,36.0
3851,72.0,120,120,0.0,47.0
3852,74.0,0,120,0.0,50.0
3853,75.0,120,120,0.0,50.0
3854,55.0,0,0,0.0,33.0
3855,58.0,0,0,0.0,33.0
3856,77.0,120,120,0.0,50.0
3857,79.0,120,120,0.0,49.0
3858,67.0,120,0,0.0,33.0
3859,63.0,0,240,0.0,33.0
3860,80.0,0,120,0.0,51.0
3861,55.0,0,0,0.0,33.0
3862,63.0,0,240,0.0,33.0
3863,58.0,120,0,0.0,33.0
3864,81.0,120,120,0.0,53.0
3865,84.0,0,120,0.0,59.0
3866,82.0,120,120,0.0,55.0
3867,67.0,0,0,0.0,30.0
3868,63.0,0,0,0.0,30.0
3869,55.0,0,0,0.0,30.0
3870,58.0,0,0,0.0,30.0
3871,79.0,120,120,0.0,51.0
3872,80.0,120,120,0.0,50.0
3873,82.0,120,120,0.0,50.0
3874,63.0,0,240,0.0,30.0
3875,84.0,120,120,0.0,51.0
3876,55.0,120,0,0.0,33.0
3877,67.0,0,240,0.0,30.0
3878,58.0,0,240,0.0,30.0
3879,86.0,0,120,0.0,52.0
3880,63.0,0,0,0.0,29.0
3881,67.0,0,240,0.0,33.0
3882,87.0,120,120,0.0,53.0
3883,58.0,0,0,0.0,29.0
3884,89.0,120,120,0.0,54.0
3885,58.0,120,0,0.0,29.0
3886,67.0,0,0,0.0,29.0
3887,55.0,0,0,0.0,29.0
3888,91.0,120,120,0.0,55.0
3889,63.0,0,0,0.0,29.0
3890,92.0,0,120,0.0,55.0
3891,93.0,120,120,0.0,56.0
3892,58.0,0,0,0.0,33.0
3893,63.0,0,0,0.0,33.0
3894,67.0,0,0,0.0,33.0
3895,55.0,0,0,0.0,33.0
3896,96.0,120,120,0.0,65.0
3897,94.0,120,120,0.0,58.0
3898,91.0,120,120,0.0,55.0
3899,55.0,0,240,0.0,31.0
3900,67.0,0,240,0.0,31.0
3901,63.0,0,240,0.0,31.0
3902,92.0,120,120,0.0,51.0
3903,58.0,0,240,0.0,31.0
3904,93.0,120,120,0.0,53.0
3905,58.0,0,240,0.0,31.0
3906,63.0,120,0,0.0,33.0
3907,94.0,120,120,0.0,55.0
3908,67.0,0,0,0.0,33.0
3909,55.0,0,0,0.0,33.0
3910,96.0,0,120,0.0,64.0
3911,94.0,120,120,0.0,59.0
3912,58.0,120,0,0.0,30.0
3913,55.0,0,0,0.0,30.0
3914,63.0,0,0,0.0,30.0
3915,91.0,0,120,0.0,51.0
3916,58.0,0,0,0.0,30.0
3917,67.0,0,0,0.0,30.0
3918,63.0,0,0,0.0,30.0
3919,92.0,120,120,0.0,52.0
3920,55.0,120,0,0.0,30.0
3921,93.0,0,120,0.0,54.0
3922,94.0,120,120,0.0,55.0
3923,99.0,120,120,0.0,57.0
3924,55.0,0,240,0.0,33.0
3925,67.0,0,240,0.0,33.0
3926,63.0,0,240,0.0,33.0
3927,58.0,0,240,0.0,33.0
3928,91.0,240,120,0.0,50.0
3929,92.0,120,120,0.0,51.0
3930,93.0,120,120,0.0,53.0
3931,94.0,120,120,0.0,55.0
3932,99.0,120,120,0.0,57.0
3933,51.0,0,240,0.0,29.0
3934,55.0,0,240,0.0,29.0
3935,63.0,0,240,0.0,29.0
3936,91.0,240,120,0.0,46.0
3937,92.0,120,120,0.0,48.0
3938,93.0,120,120,0.0,50.0
3939,94.0,120,120,0.0,52.0
3940,99.0,0,120,0.0,54.0
3941,55.0,0,240,0.0,31.0
3942,67.0,0,240,0.0,31.0
3943,63.0,120,240,0.0,31.0
3944,58.0,0,240,0.0,31.0
3945,91.0,240,120,0.0,49.0
3946,92.0,120,120,0.0,50.0
3947,93.0,120,120,0.0,52.0
3948,94.0,120,120,0.0,53.0
3949,99.0,0,120,0.0,55.0
3950,67.0,0,240,0.0,33.0
3951,70.0,0,240,0.0,33.0
3952,58.0,120,240,0.0,33.0
3953,91.0,240,120,0.0,50.0
3954,92.0,120,120,0.0,52.0
3955,93.0,120,120,0.0,55.0
3956,94.0,120,120,0.0,57.0
3957,99.0,120,120,0.0,59.0
3958,67.0,0,240,0.0,36.0
3959,63.0,0,240,0.0,36.0
3960,75.0,0,240,0.0,36.0
3961,91.0,240,120,0.0,50.0
3962,92.0,120,120,0.0,51.0
3963,93.0,120,120,0.0,53.0
3964,94.0,120,120,0.0,55.0
3965,99.0,120,120,0.0,57.0
3966,67.0,0,240,0.0,35.0
3967,58.0,0,240,0.0,35.0
3968,70.0,0,240,0.0,35.0
3969,91.0,240,120,0.0,44.0
3970,92.0,120,120,0.0,46.0
3971,93.0,120,120,0.0,48.0
3972,94.0,120,120,0.0,50.0
3973,99.0,0,120,0.0,53.0
3974,79.0,120,240,0.0,33.0
3975,75.0,0,240,0.0,33.0
3976,67.0,0,240,0.0,33.0
3977,91.0,240,120,0.0,33.0
3978,92.0,120,120,0.0,35.0
3979,93.0,120,120,0.0,37.0
3980,94.0,120,120,0.0,39.0
3981,99.0,120,120,0.0,42.0
3982,79.0,0,240,0.0,28.0
3983,82.0,0,240,0.0,28.0
3984,70.0,0,240,0.0,28.0
3985,91.0,240,120,0.0,30.0
3986,92.0,120,120,0.0,31.0
3987,93.0,120,120,0.0,32.0
3988,94.0,120,120,0.0,33.0
3989,91.0,0,120,0.0,34.0
3990,99.0,120,120,0.0,34.0
3991,87.0,0,240,0.0,24.0
3992,79.0,0,240,0.0,24.0
3993,79.0,0,120,0.0,92.0
3994,63.0,0,120,0.0,90.0
3995,70.0,1440,120,0.0,90.0
3996,75.0,0,120,0.0,90.0
3997,82.0,0,120,0.0,92.0
3998,87.0,0,120,0.0,92.0
3999,91.0,0,120,0.0,92.0
4000,51.0,0,120,0.0,90.0
4001,67.0,0,120,0.0,92.0
4002,79.0,0,120,0.0,92.0
4003,75.0,0,120,0.0,92.0
4004,70.0,0,120,0.0,92.0
4005,63.0,720,120,0.0,90.0
4006,58.0,0,120,0.0,90.0
4007,58.0,0,120,0.0,90.0
4008,51.0,240,120,0.0,90.0
4009,75.0,0,120,0.0,92.0
4010,70.0,0,120,0.0,92.0
4011,67.0,0,120,0.0,92.0
4012,79.0,0,120,0.0,92.0
4013,63.0,0,120,0.0,90.0
4014,70.0,240,120,0.0,92.0
4015,75.0,0,120,0.0,92.0
4016,79.0,0,120,0.0,92.0
4017,67.0,0,120,0.0,92.0
4018,58.0,0,120,0.0,90.0
4019,63.0,0,120,0.0,90.0
4020,51.0,0,120,0.0,90.0
4021,27.0,0,720,0.0,101.0
4022,39.0,240,720,0.0,101.0
4023,51.0,0,720,0.0,113.0
