,note,step,duration,channel,velocity
0,56.0,0,427,0.0,85.0
1,44.0,4,1279,0.0,82.0
2,37.0,1169,263,0.0,53.0
3,49.0,195,109,0.0,72.0
4,56.0,189,109,0.0,40.0
5,61.0,99,47,0.0,49.0
6,64.0,92,77,0.0,58.0
7,61.0,76,41,0.0,56.0
8,56.0,66,69,0.0,37.0
9,49.0,65,67,0.0,56.0
10,56.0,80,53,0.0,47.0
11,61.0,59,39,0.0,48.0
12,64.0,70,35,0.0,49.0
13,61.0,53,30,0.0,45.0
14,56.0,52,34,0.0,33.0
15,49.0,55,32,0.0,51.0
16,56.0,64,38,0.0,42.0
17,61.0,63,29,0.0,47.0
18,64.0,60,33,0.0,45.0
19,61.0,48,29,0.0,53.0
20,56.0,50,34,0.0,43.0
21,49.0,56,32,0.0,52.0
22,56.0,73,36,0.0,41.0
23,61.0,57,32,0.0,38.0
24,64.0,58,42,0.0,43.0
25,61.0,55,29,0.0,48.0
26,56.0,54,38,0.0,30.0
27,68.0,63,33,0.0,54.0
28,49.0,75,99,0.0,42.0
29,69.0,11,41,0.0,50.0
30,56.0,33,70,0.0,42.0
31,68.0,46,28,0.0,55.0
32,61.0,23,31,0.0,40.0
33,67.0,22,40,0.0,69.0
34,64.0,31,40,0.0,37.0
35,68.0,9,39,0.0,65.0
36,73.0,40,32,0.0,60.0
37,61.0,8,31,0.0,18.0
38,56.0,2,30,0.0,13.0
39,76.0,34,63,0.0,63.0
40,75.0,1,57,0.0,78.0
41,73.0,40,33,0.0,66.0
42,75.0,33,42,0.0,72.0
43,56.0,14,77,0.0,33.0
44,61.0,33,44,0.0,41.0
45,73.0,3,45,0.0,67.0
46,72.0,46,55,0.0,66.0
47,64.0,25,34,0.0,44.0
48,52.0,41,252,0.0,51.0
49,73.0,14,48,0.0,54.0
50,61.0,38,32,0.0,44.0
51,76.0,10,32,0.0,56.0
52,80.0,3,20,0.0,73.0
53,56.0,44,62,0.0,27.0
54,68.0,67,30,0.0,55.0
55,49.0,81,113,0.0,51.0
56,69.0,12,36,0.0,50.0
57,56.0,29,82,0.0,47.0
58,68.0,35,43,0.0,43.0
59,61.0,30,37,0.0,29.0
60,67.0,16,42,0.0,69.0
61,64.0,32,36,0.0,41.0
62,68.0,10,49,0.0,59.0
63,73.0,9,30,0.0,60.0
64,61.0,37,40,0.0,18.0
65,56.0,31,34,0.0,34.0
66,76.0,4,63,0.0,60.0
67,75.0,46,50,0.0,79.0
68,73.0,42,28,0.0,66.0
69,56.0,19,42,0.0,48.0
70,52.0,1,116,0.0,62.0
71,61.0,24,38,0.0,53.0
72,75.0,20,63,0.0,70.0
73,73.0,10,50,0.0,63.0
74,72.0,42,60,0.0,76.0
75,64.0,12,59,0.0,54.0
76,73.0,30,57,0.0,71.0
77,61.0,12,63,0.0,55.0
78,56.0,16,36,0.0,45.0
79,76.0,35,59,0.0,74.0
80,80.0,30,38,0.0,82.0
81,51.0,56,112,0.0,68.0
82,57.0,19,42,0.0,51.0
83,69.0,60,61,0.0,63.0
84,61.0,22,31,0.0,55.0
85,73.0,27,55,0.0,65.0
86,78.0,39,16,0.0,76.0
87,75.0,19,61,0.0,79.0
88,81.0,38,26,0.0,76.0
89,66.0,6,68,0.0,53.0
90,61.0,10,45,0.0,52.0
91,85.0,24,35,0.0,85.0
92,87.0,14,18,0.0,67.0
93,57.0,21,35,0.0,34.0
94,95.0,6,70,0.0,93.0
95,54.0,38,84,0.0,71.0
96,61.0,12,36,0.0,52.0
97,93.0,48,61,0.0,80.0
98,63.0,18,25,0.0,59.0
99,92.0,23,52,0.0,66.0
100,90.0,14,31,0.0,80.0
101,69.0,41,44,0.0,52.0
102,88.0,3,64,0.0,72.0
103,63.0,10,21,0.0,59.0
104,61.0,16,23,0.0,66.0
105,87.0,39,61,0.0,77.0
106,90.0,21,71,0.0,77.0
107,85.0,44,36,0.0,70.0
108,84.0,13,24,0.0,81.0
109,44.0,30,74,0.0,75.0
110,87.0,35,28,0.0,67.0
111,51.0,22,42,0.0,48.0
112,81.0,26,28,0.0,76.0
113,54.0,28,33,0.0,35.0
114,80.0,20,31,0.0,60.0
115,60.0,22,49,0.0,50.0
116,78.0,12,44,0.0,62.0
117,81.0,34,28,0.0,81.0
118,54.0,6,31,0.0,38.0
119,76.0,26,34,0.0,64.0
120,51.0,27,45,0.0,20.0
121,75.0,14,41,0.0,70.0
122,78.0,12,59,0.0,78.0
123,73.0,37,29,0.0,59.0
124,44.0,36,78,0.0,55.0
125,51.0,27,38,0.0,46.0
126,72.0,22,28,0.0,47.0
127,75.0,4,22,0.0,64.0
128,54.0,25,28,0.0,51.0
129,69.0,48,37,0.0,55.0
130,60.0,16,46,0.0,36.0
131,68.0,32,27,0.0,53.0
132,54.0,25,51,0.0,49.0
133,71.0,28,39,0.0,53.0
134,51.0,36,35,0.0,27.0
135,69.0,8,51,0.0,53.0
136,49.0,78,70,0.0,58.0
137,68.0,43,31,0.0,53.0
138,56.0,25,44,0.0,47.0
139,69.0,11,41,0.0,47.0
140,68.0,42,35,0.0,40.0
141,61.0,13,30,0.0,43.0
142,67.0,31,41,0.0,57.0
143,64.0,21,51,0.0,37.0
144,68.0,23,31,0.0,51.0
145,61.0,23,35,0.0,26.0
146,73.0,12,29,0.0,44.0
147,56.0,29,36,0.0,30.0
148,76.0,9,44,0.0,58.0
149,75.0,45,30,0.0,67.0
150,73.0,33,30,0.0,50.0
151,75.0,10,67,0.0,57.0
152,56.0,26,77,0.0,33.0
153,73.0,6,51,0.0,55.0
154,61.0,35,64,0.0,49.0
155,64.0,19,40,0.0,53.0
156,72.0,47,69,0.0,69.0
157,52.0,4,247,0.0,55.0
158,73.0,23,52,0.0,55.0
159,61.0,28,45,0.0,30.0
160,76.0,20,30,0.0,56.0
161,56.0,24,26,0.0,51.0
162,80.0,18,19,0.0,75.0
163,68.0,51,24,0.0,69.0
164,49.0,56,126,0.0,63.0
165,70.0,18,56,0.0,62.0
166,56.0,17,85,0.0,44.0
167,68.0,5,45,0.0,53.0
168,58.0,34,60,0.0,48.0
169,67.0,43,56,0.0,74.0
170,64.0,15,81,0.0,54.0
171,68.0,28,58,0.0,61.0
172,58.0,31,35,0.0,28.0
173,73.0,7,54,0.0,62.0
174,56.0,20,36,0.0,52.0
175,76.0,16,68,0.0,71.0
176,75.0,8,55,0.0,80.0
177,73.0,34,54,0.0,69.0
178,56.0,13,68,0.0,46.0
179,58.0,24,33,0.0,42.0
180,75.0,35,61,0.0,85.0
181,73.0,14,50,0.0,74.0
182,52.0,47,231,0.0,70.0
183,72.0,7,60,0.0,72.0
184,61.0,39,85,0.0,57.0
185,73.0,35,70,0.0,68.0
186,58.0,13,66,0.0,52.0
187,56.0,19,33,0.0,50.0
188,76.0,31,56,0.0,66.0
189,80.0,17,66,0.0,81.0
190,75.0,21,43,0.0,76.0
191,56.0,0,54,0.0,43.0
192,76.0,37,65,0.0,70.0
193,59.0,19,29,0.0,48.0
194,75.0,41,49,0.0,73.0
195,74.0,24,47,0.0,79.0
196,75.0,4,51,0.0,73.0
197,51.0,38,245,0.0,57.0
198,63.0,39,70,0.0,48.0
199,83.0,51,57,0.0,89.0
200,59.0,1,61,0.0,42.0
201,56.0,21,37,0.0,39.0
202,82.0,39,67,0.0,79.0
203,80.0,30,59,0.0,81.0
204,79.0,26,28,0.0,85.0
205,51.0,25,114,0.0,61.0
206,88.0,46,59,0.0,70.0
207,58.0,17,57,0.0,36.0
208,61.0,22,37,0.0,41.0
209,87.0,32,59,0.0,55.0
210,85.0,18,27,0.0,75.0
211,67.0,5,43,0.0,49.0
212,83.0,36,61,0.0,99.0
213,61.0,12,31,0.0,54.0
214,82.0,44,69,0.0,77.0
215,58.0,10,36,0.0,26.0
216,80.0,29,54,0.0,72.0
217,79.0,37,25,0.0,87.0
218,82.0,47,60,0.0,75.0
219,44.0,1,78,0.0,64.0
220,80.0,40,61,0.0,76.0
221,83.0,21,21,0.0,93.0
222,51.0,34,43,0.0,48.0
223,74.0,36,27,0.0,69.0
224,56.0,9,32,0.0,46.0
225,76.0,44,29,0.0,57.0
226,75.0,22,23,0.0,72.0
227,59.0,22,45,0.0,44.0
228,56.0,24,33,0.0,38.0
229,80.0,20,21,0.0,73.0
230,70.0,30,35,0.0,68.0
231,51.0,6,39,0.0,34.0
232,73.0,51,63,0.0,65.0
233,44.0,11,73,0.0,53.0
234,71.0,36,56,0.0,60.0
235,51.0,35,42,0.0,47.0
236,75.0,4,47,0.0,62.0
237,67.0,56,29,0.0,67.0
238,56.0,0,36,0.0,45.0
239,70.0,55,69,0.0,59.0
240,59.0,14,81,0.0,41.0
241,68.0,48,44,0.0,51.0
242,56.0,12,34,0.0,35.0
243,51.0,10,41,0.0,25.0
244,67.0,45,70,0.0,55.0
245,68.0,55,37,0.0,68.0
246,80.0,59,58,0.0,56.0
247,45.0,27,148,0.0,30.0
248,68.0,105,185,0.0,78.0
249,72.0,53,37,0.0,31.0
250,49.0,11,97,0.0,36.0
251,54.0,10,55,0.0,56.0
252,73.0,26,46,0.0,55.0
253,78.0,30,68,0.0,72.0
254,54.0,27,48,0.0,53.0
255,72.0,14,37,0.0,44.0
256,66.0,38,149,0.0,82.0
257,49.0,4,43,0.0,36.0
258,73.0,38,47,0.0,60.0
259,57.0,19,175,0.0,40.0
260,77.0,32,79,0.0,73.0
261,65.0,56,137,0.0,87.0
262,45.0,19,125,0.0,32.0
263,72.0,22,29,0.0,48.0
264,49.0,43,68,0.0,44.0
265,73.0,3,29,0.0,54.0
266,54.0,19,38,0.0,61.0
267,78.0,24,73,0.0,70.0
268,72.0,8,42,0.0,48.0
269,66.0,42,129,0.0,86.0
270,54.0,27,63,0.0,65.0
271,49.0,38,29,0.0,49.0
272,73.0,5,29,0.0,36.0
273,57.0,19,196,0.0,41.0
274,47.0,53,133,0.0,71.0
275,61.0,12,130,0.0,84.0
276,73.0,56,86,0.0,54.0
277,54.0,32,71,0.0,68.0
278,66.0,5,68,0.0,46.0
279,57.0,43,57,0.0,58.0
280,69.0,3,70,0.0,51.0
281,59.0,6,69,0.0,51.0
282,57.0,11,53,0.0,31.0
283,54.0,13,20,0.0,76.0
284,75.0,39,85,0.0,68.0
285,63.0,52,158,0.0,82.0
286,69.0,36,32,0.0,46.0
287,66.0,33,86,0.0,46.0
288,40.0,69,123,0.0,101.0
289,64.0,21,126,0.0,80.0
290,76.0,75,58,0.0,64.0
291,47.0,26,45,0.0,76.0
292,68.0,17,64,0.0,59.0
293,71.0,47,22,0.0,64.0
294,52.0,10,27,0.0,55.0
295,56.0,15,58,0.0,64.0
296,68.0,33,76,0.0,90.0
297,80.0,37,53,0.0,78.0
298,52.0,25,50,0.0,71.0
299,71.0,19,44,0.0,67.0
300,47.0,30,39,0.0,45.0
301,76.0,15,28,0.0,65.0
302,80.0,51,53,0.0,65.0
303,68.0,3,134,0.0,93.0
304,45.0,27,137,0.0,86.0
305,72.0,12,68,0.0,56.0
306,49.0,21,87,0.0,71.0
307,54.0,35,63,0.0,70.0
308,73.0,8,72,0.0,68.0
309,78.0,32,84,0.0,81.0
310,66.0,41,129,0.0,92.0
311,54.0,26,62,0.0,64.0
312,57.0,12,122,0.0,63.0
313,72.0,4,68,0.0,54.0
314,49.0,41,69,0.0,66.0
315,73.0,4,96,0.0,69.0
316,65.0,11,123,0.0,95.0
317,77.0,41,86,0.0,76.0
318,49.0,37,64,0.0,67.0
319,45.0,44,160,0.0,85.0
320,72.0,14,67,0.0,52.0
321,54.0,24,62,0.0,63.0
322,73.0,6,91,0.0,50.0
323,78.0,35,83,0.0,74.0
324,54.0,17,67,0.0,62.0
325,72.0,27,49,0.0,40.0
326,66.0,43,147,0.0,90.0
327,49.0,22,36,0.0,61.0
328,57.0,11,207,0.0,54.0
329,73.0,11,102,0.0,59.0
330,47.0,38,136,0.0,78.0
331,77.0,42,90,0.0,69.0
332,65.0,16,136,0.0,91.0
333,71.0,11,52,0.0,63.0
334,54.0,46,73,0.0,70.0
335,75.0,3,27,0.0,61.0
336,57.0,38,55,0.0,61.0
337,59.0,14,72,0.0,64.0
338,57.0,16,51,0.0,33.0
339,66.0,38,118,0.0,90.0
340,54.0,12,20,0.0,75.0
341,78.0,29,91,0.0,73.0
342,71.0,28,76,0.0,65.0
343,75.0,34,99,0.0,57.0
344,40.0,61,106,0.0,98.0
345,81.0,78,24,0.0,72.0
346,47.0,25,27,0.0,65.0
347,69.0,11,169,0.0,73.0
348,52.0,20,26,0.0,69.0
349,71.0,49,57,0.0,63.0
350,76.0,32,24,0.0,46.0
351,56.0,30,53,0.0,56.0
352,68.0,2,70,0.0,80.0
353,80.0,48,33,0.0,64.0
354,52.0,11,38,0.0,68.0
355,71.0,31,61,0.0,70.0
356,47.0,25,44,0.0,21.0
357,76.0,33,33,0.0,46.0
358,49.0,19,105,0.0,38.0
359,68.0,27,269,0.0,71.0
360,72.0,67,74,0.0,49.0
361,80.0,114,164,0.0,86.0
362,54.0,21,70,0.0,49.0
363,73.0,49,42,0.0,47.0
364,45.0,14,368,0.0,58.0
365,54.0,47,73,0.0,54.0
366,66.0,25,129,0.0,68.0
367,72.0,70,35,0.0,33.0
368,57.0,36,200,0.0,37.0
369,78.0,4,131,0.0,88.0
370,49.0,3,63,0.0,37.0
371,73.0,24,61,0.0,48.0
372,65.0,20,112,0.0,53.0
373,49.0,38,41,0.0,45.0
374,72.0,22,42,0.0,49.0
375,77.0,41,103,0.0,92.0
376,45.0,48,171,0.0,54.0
377,73.0,5,37,0.0,60.0
378,54.0,27,57,0.0,51.0
379,66.0,47,104,0.0,59.0
380,54.0,43,39,0.0,60.0
381,72.0,8,35,0.0,48.0
382,78.0,17,95,0.0,86.0
383,73.0,9,25,0.0,51.0
384,49.0,27,35,0.0,58.0
385,57.0,18,221,0.0,40.0
386,61.0,12,120,0.0,72.0
387,47.0,59,143,0.0,58.0
388,66.0,5,59,0.0,48.0
389,54.0,53,67,0.0,64.0
390,73.0,53,122,0.0,84.0
391,69.0,8,32,0.0,48.0
392,57.0,45,52,0.0,52.0
393,63.0,36,51,0.0,70.0
394,59.0,19,75,0.0,60.0
395,57.0,35,46,0.0,50.0
396,54.0,32,19,0.0,78.0
397,75.0,23,108,0.0,80.0
398,66.0,6,75,0.0,55.0
399,69.0,21,30,0.0,54.0
400,40.0,9,68,0.0,77.0
401,64.0,61,101,0.0,76.0
402,76.0,44,63,0.0,86.0
403,47.0,29,36,0.0,66.0
404,68.0,20,58,0.0,65.0
405,71.0,42,21,0.0,71.0
406,52.0,3,24,0.0,59.0
407,68.0,39,52,0.0,91.0
408,56.0,9,44,0.0,74.0
409,70.0,15,36,0.0,24.0
410,52.0,20,32,0.0,72.0
411,80.0,24,52,0.0,82.0
412,71.0,25,43,0.0,78.0
413,47.0,18,48,0.0,49.0
414,76.0,22,45,0.0,63.0
415,68.0,3,114,0.0,85.0
416,80.0,48,94,0.0,94.0
417,72.0,13,63,0.0,64.0
418,49.0,32,80,0.0,61.0
419,45.0,29,189,0.0,71.0
420,54.0,35,67,0.0,70.0
421,73.0,10,63,0.0,68.0
422,66.0,52,65,0.0,81.0
423,72.0,23,37,0.0,58.0
424,54.0,20,67,0.0,60.0
425,73.0,7,19,0.0,72.0
426,78.0,28,115,0.0,88.0
427,57.0,0,153,0.0,56.0
428,49.0,33,69,0.0,59.0
429,75.0,17,163,0.0,87.0
430,51.0,43,79,0.0,47.0
431,87.0,75,129,0.0,93.0
432,78.0,35,58,0.0,69.0
433,54.0,23,57,0.0,64.0
434,45.0,46,252,0.0,69.0
435,81.0,25,68,0.0,65.0
436,73.0,38,61,0.0,85.0
437,57.0,2,120,0.0,56.0
438,54.0,32,57,0.0,55.0
439,78.0,19,45,0.0,69.0
440,51.0,32,26,0.0,60.0
441,85.0,44,114,0.0,90.0
442,81.0,13,34,0.0,69.0
443,73.0,46,78,0.0,72.0
444,44.0,1,107,0.0,76.0
445,51.0,49,45,0.0,53.0
446,75.0,13,42,0.0,52.0
447,85.0,41,119,0.0,92.0
448,54.0,6,28,0.0,57.0
449,78.0,28,60,0.0,70.0
450,60.0,20,33,0.0,47.0
451,72.0,43,67,0.0,79.0
452,54.0,43,31,0.0,56.0
453,84.0,21,80,0.0,94.0
454,75.0,4,62,0.0,57.0
455,51.0,33,43,0.0,62.0
456,78.0,5,70,0.0,67.0
457,72.0,60,103,0.0,72.0
458,44.0,14,97,0.0,60.0
459,51.0,45,30,0.0,48.0
460,84.0,35,85,0.0,77.0
461,75.0,13,28,0.0,45.0
462,54.0,21,38,0.0,52.0
463,78.0,6,72,0.0,57.0
464,60.0,10,43,0.0,51.0
465,72.0,53,61,0.0,66.0
466,54.0,24,45,0.0,48.0
467,84.0,38,76,0.0,83.0
468,75.0,18,42,0.0,43.0
469,51.0,21,34,0.0,35.0
470,78.0,14,41,0.0,59.0
471,72.0,44,124,0.0,81.0
472,84.0,50,89,0.0,87.0
473,51.0,46,44,0.0,48.0
474,75.0,11,37,0.0,50.0
475,45.0,2,144,0.0,86.0
476,54.0,20,58,0.0,64.0
477,78.0,2,79,0.0,69.0
478,71.0,46,70,0.0,91.0
479,59.0,14,102,0.0,63.0
480,83.0,30,87,0.0,103.0
481,75.0,23,48,0.0,39.0
482,54.0,25,77,0.0,51.0
483,51.0,1,29,0.0,56.0
484,78.0,29,62,0.0,69.0
485,71.0,49,114,0.0,85.0
486,83.0,43,88,0.0,106.0
487,46.0,9,135,0.0,84.0
488,75.0,17,51,0.0,48.0
489,54.0,27,30,0.0,52.0
490,51.0,33,76,0.0,63.0
491,78.0,8,59,0.0,61.0
492,58.0,3,78,0.0,42.0
493,70.0,30,84,0.0,72.0
494,82.0,39,104,0.0,79.0
495,54.0,32,89,0.0,68.0
496,75.0,21,69,0.0,56.0
497,78.0,9,38,0.0,62.0
498,51.0,33,55,0.0,64.0
499,51.0,40,41,0.0,61.0
500,75.0,21,44,0.0,40.0
501,82.0,39,111,0.0,71.0
502,70.0,3,152,0.0,69.0
503,54.0,17,49,0.0,61.0
504,78.0,15,97,0.0,61.0
505,48.0,40,266,0.0,68.0
506,69.0,1,102,0.0,55.0
507,81.0,40,83,0.0,71.0
508,75.0,20,44,0.0,44.0
509,54.0,25,74,0.0,53.0
510,51.0,26,66,0.0,39.0
511,78.0,7,73,0.0,53.0
512,57.0,55,217,0.0,46.0
513,69.0,51,128,0.0,58.0
514,51.0,32,59,0.0,52.0
515,75.0,8,65,0.0,52.0
516,81.0,37,105,0.0,69.0
517,54.0,29,45,0.0,53.0
518,78.0,12,45,0.0,55.0
519,69.0,37,71,0.0,54.0
520,48.0,10,245,0.0,49.0
521,54.0,19,37,0.0,51.0
522,75.0,13,33,0.0,36.0
523,81.0,41,69,0.0,74.0
524,78.0,11,28,0.0,60.0
525,51.0,17,39,0.0,48.0
526,57.0,19,204,0.0,45.0
527,72.0,47,135,0.0,64.0
528,84.0,63,73,0.0,82.0
529,45.0,4,138,0.0,57.0
530,75.0,25,44,0.0,47.0
531,51.0,28,72,0.0,49.0
532,54.0,14,48,0.0,57.0
533,78.0,15,39,0.0,50.0
534,71.0,47,65,0.0,78.0
535,59.0,4,76,0.0,45.0
536,54.0,29,36,0.0,61.0
537,83.0,34,80,0.0,97.0
538,75.0,19,47,0.0,55.0
539,51.0,28,34,0.0,23.0
540,78.0,1,61,0.0,65.0
541,71.0,10,94,0.0,78.0
542,51.0,24,36,0.0,46.0
543,83.0,49,63,0.0,98.0
544,46.0,44,140,0.0,67.0
545,75.0,15,43,0.0,42.0
546,54.0,23,30,0.0,53.0
547,78.0,19,40,0.0,39.0
548,58.0,3,67,0.0,36.0
549,70.0,26,95,0.0,67.0
550,82.0,45,87,0.0,68.0
551,54.0,19,69,0.0,60.0
552,75.0,28,44,0.0,46.0
553,51.0,27,37,0.0,53.0
554,78.0,8,33,0.0,58.0
555,51.0,28,33,0.0,48.0
556,82.0,51,92,0.0,59.0
557,75.0,23,45,0.0,46.0
558,54.0,17,35,0.0,53.0
559,70.0,6,158,0.0,55.0
560,78.0,28,77,0.0,49.0
561,47.0,49,251,0.0,60.0
562,69.0,10,70,0.0,40.0
563,81.0,41,80,0.0,62.0
564,54.0,23,58,0.0,48.0
565,75.0,11,37,0.0,37.0
566,51.0,29,80,0.0,48.0
567,78.0,37,53,0.0,49.0
568,57.0,40,216,0.0,38.0
569,51.0,27,45,0.0,40.0
570,69.0,18,149,0.0,41.0
571,81.0,56,98,0.0,49.0
572,75.0,46,50,0.0,35.0
573,54.0,15,54,0.0,37.0
574,78.0,41,41,0.0,31.0
575,68.0,1,123,0.0,51.0
576,48.0,44,377,0.0,47.0
577,75.0,40,36,0.0,31.0
578,80.0,57,106,0.0,48.0
579,54.0,29,96,0.0,57.0
580,78.0,12,26,0.0,42.0
581,56.0,40,201,0.0,38.0
582,51.0,36,45,0.0,40.0
583,68.0,35,33,0.0,42.0
584,49.0,95,95,0.0,49.0
585,69.0,44,42,0.0,45.0
586,56.0,12,35,0.0,41.0
587,68.0,30,30,0.0,42.0
588,61.0,25,31,0.0,37.0
589,67.0,24,46,0.0,59.0
590,64.0,26,50,0.0,39.0
591,68.0,25,28,0.0,48.0
592,61.0,14,38,0.0,30.0
593,73.0,12,45,0.0,57.0
594,56.0,32,37,0.0,27.0
595,76.0,16,71,0.0,53.0
596,75.0,19,56,0.0,73.0
597,73.0,43,35,0.0,65.0
598,56.0,4,58,0.0,43.0
599,75.0,41,65,0.0,70.0
600,61.0,11,59,0.0,47.0
601,73.0,23,52,0.0,59.0
602,64.0,40,60,0.0,57.0
603,72.0,3,63,0.0,69.0
604,52.0,30,254,0.0,67.0
605,61.0,9,35,0.0,37.0
606,73.0,41,60,0.0,66.0
607,56.0,38,27,0.0,50.0
608,76.0,6,26,0.0,49.0
609,80.0,27,20,0.0,73.0
610,68.0,56,24,0.0,64.0
611,49.0,42,102,0.0,55.0
612,69.0,3,42,0.0,53.0
613,56.0,27,69,0.0,47.0
614,68.0,41,31,0.0,43.0
615,61.0,19,33,0.0,52.0
616,67.0,24,41,0.0,70.0
617,64.0,32,44,0.0,36.0
618,68.0,16,36,0.0,55.0
619,73.0,33,36,0.0,62.0
620,61.0,6,34,0.0,24.0
621,56.0,23,35,0.0,38.0
622,76.0,21,41,0.0,50.0
623,75.0,10,40,0.0,75.0
624,73.0,41,29,0.0,51.0
625,56.0,13,56,0.0,35.0
626,61.0,29,30,0.0,47.0
627,75.0,20,60,0.0,65.0
628,73.0,11,44,0.0,55.0
629,52.0,31,169,0.0,64.0
630,72.0,44,61,0.0,67.0
631,64.0,3,59,0.0,50.0
632,61.0,6,60,0.0,47.0
633,73.0,35,74,0.0,57.0
634,56.0,2,32,0.0,51.0
635,76.0,40,40,0.0,51.0
636,80.0,33,23,0.0,76.0
637,51.0,45,94,0.0,67.0
638,57.0,22,34,0.0,52.0
639,69.0,42,63,0.0,67.0
640,73.0,18,55,0.0,61.0
641,61.0,27,29,0.0,50.0
642,78.0,32,18,0.0,76.0
643,75.0,14,58,0.0,69.0
644,66.0,11,60,0.0,55.0
645,81.0,37,32,0.0,82.0
646,61.0,14,40,0.0,51.0
647,85.0,27,36,0.0,74.0
648,57.0,9,35,0.0,41.0
649,87.0,22,19,0.0,77.0
650,95.0,15,85,0.0,89.0
651,54.0,35,100,0.0,76.0
652,61.0,8,39,0.0,50.0
653,93.0,52,54,0.0,78.0
654,63.0,6,30,0.0,52.0
655,92.0,33,56,0.0,66.0
656,90.0,31,23,0.0,73.0
657,69.0,27,44,0.0,39.0
658,88.0,10,55,0.0,78.0
659,63.0,4,26,0.0,44.0
660,87.0,44,55,0.0,75.0
661,61.0,18,34,0.0,31.0
662,85.0,25,31,0.0,62.0
663,90.0,25,57,0.0,75.0
664,84.0,14,23,0.0,75.0
665,44.0,32,71,0.0,69.0
666,87.0,22,39,0.0,67.0
667,51.0,32,37,0.0,48.0
668,81.0,19,26,0.0,73.0
669,54.0,34,33,0.0,34.0
670,80.0,11,48,0.0,65.0
671,60.0,29,52,0.0,51.0
672,78.0,8,60,0.0,70.0
673,81.0,39,24,0.0,75.0
674,54.0,1,32,0.0,29.0
675,76.0,26,44,0.0,57.0
676,51.0,20,57,0.0,26.0
677,75.0,22,52,0.0,69.0
678,44.0,30,80,0.0,59.0
679,78.0,19,63,0.0,73.0
680,73.0,35,39,0.0,52.0
681,51.0,26,37,0.0,35.0
682,72.0,34,29,0.0,40.0
683,54.0,13,26,0.0,53.0
684,75.0,8,40,0.0,60.0
685,69.0,4,61,0.0,52.0
686,60.0,56,67,0.0,40.0
687,68.0,60,31,0.0,44.0
688,54.0,2,63,0.0,55.0
689,71.0,33,58,0.0,62.0
690,51.0,33,32,0.0,32.0
691,69.0,20,77,0.0,53.0
692,68.0,49,27,0.0,50.0
693,49.0,49,86,0.0,58.0
694,56.0,27,46,0.0,49.0
695,69.0,5,47,0.0,37.0
696,68.0,42,32,0.0,33.0
697,61.0,12,41,0.0,27.0
698,67.0,29,53,0.0,52.0
699,64.0,25,46,0.0,30.0
700,68.0,18,43,0.0,46.0
701,61.0,18,41,0.0,27.0
702,73.0,13,36,0.0,51.0
703,56.0,32,36,0.0,30.0
704,76.0,20,44,0.0,35.0
705,75.0,3,24,0.0,67.0
706,73.0,19,47,0.0,61.0
707,56.0,49,41,0.0,39.0
708,52.0,39,127,0.0,67.0
709,75.0,4,66,0.0,54.0
710,61.0,36,38,0.0,51.0
711,73.0,3,39,0.0,51.0
712,72.0,45,59,0.0,61.0
713,64.0,18,50,0.0,47.0
714,61.0,26,40,0.0,48.0
715,73.0,20,66,0.0,50.0
716,76.0,6,50,0.0,46.0
717,80.0,39,26,0.0,72.0
718,56.0,4,24,0.0,8.0
719,76.0,51,45,0.0,66.0
720,75.0,33,32,0.0,65.0
721,54.0,5,108,0.0,64.0
722,76.0,15,36,0.0,39.0
723,61.0,32,72,0.0,46.0
724,63.0,31,27,0.0,56.0
725,75.0,5,28,0.0,60.0
726,74.0,38,50,0.0,63.0
727,69.0,14,60,0.0,35.0
728,75.0,27,58,0.0,54.0
729,63.0,25,35,0.0,55.0
730,78.0,7,42,0.0,69.0
731,61.0,29,31,0.0,44.0
732,81.0,15,58,0.0,76.0
733,78.0,8,49,0.0,72.0
734,77.0,44,21,0.0,74.0
735,56.0,35,120,0.0,58.0
736,61.0,21,56,0.0,41.0
737,78.0,10,57,0.0,79.0
738,77.0,3,36,0.0,63.0
739,65.0,40,50,0.0,48.0
740,76.0,42,64,0.0,67.0
741,71.0,14,66,0.0,69.0
742,77.0,22,50,0.0,73.0
743,65.0,34,50,0.0,30.0
744,80.0,8,54,0.0,81.0
745,85.0,6,22,0.0,81.0
746,61.0,39,35,0.0,56.0
747,73.0,45,33,0.0,69.0
748,74.0,19,27,0.0,50.0
749,61.0,24,49,0.0,54.0
750,66.0,2,33,0.0,50.0
751,73.0,23,40,0.0,64.0
752,57.0,56,177,0.0,66.0
753,72.0,38,55,0.0,68.0
754,69.0,18,73,0.0,46.0
755,73.0,25,52,0.0,65.0
756,66.0,25,54,0.0,51.0
757,78.0,9,52,0.0,72.0
758,61.0,29,27,0.0,61.0
759,81.0,14,65,0.0,78.0
760,78.0,5,47,0.0,72.0
761,77.0,43,22,0.0,70.0
762,56.0,37,101,0.0,69.0
763,61.0,27,32,0.0,51.0
764,78.0,8,56,0.0,65.0
765,65.0,4,37,0.0,41.0
766,77.0,32,48,0.0,59.0
767,76.0,41,53,0.0,63.0
768,71.0,8,51,0.0,75.0
769,77.0,27,51,0.0,83.0
770,65.0,20,52,0.0,32.0
771,61.0,22,29,0.0,58.0
772,80.0,22,58,0.0,83.0
773,85.0,20,59,0.0,72.0
774,80.0,7,45,0.0,88.0
775,78.0,35,46,0.0,73.0
776,57.0,35,122,0.0,64.0
777,61.0,33,70,0.0,52.0
778,80.0,8,69,0.0,72.0
779,66.0,39,40,0.0,55.0
780,78.0,1,52,0.0,63.0
781,77.0,39,64,0.0,78.0
782,69.0,20,63,0.0,58.0
783,66.0,31,26,0.0,40.0
784,61.0,12,22,0.0,67.0
785,78.0,24,76,0.0,76.0
786,81.0,8,63,0.0,72.0
787,85.0,38,37,0.0,83.0
788,81.0,66,56,0.0,78.0
789,80.0,24,51,0.0,81.0
790,48.0,19,112,0.0,59.0
791,81.0,40,56,0.0,87.0
792,54.0,7,52,0.0,72.0
793,56.0,4,28,0.0,70.0
794,80.0,34,54,0.0,79.0
795,79.0,30,66,0.0,91.0
796,63.0,30,61,0.0,68.0
797,80.0,16,68,0.0,85.0
798,56.0,31,44,0.0,58.0
799,84.0,2,57,0.0,76.0
800,54.0,37,25,0.0,67.0
801,87.0,6,52,0.0,78.0
802,80.0,7,26,0.0,73.0
803,81.0,30,63,0.0,73.0
804,49.0,45,104,0.0,79.0
805,80.0,18,29,0.0,63.0
806,56.0,30,82,0.0,67.0
807,61.0,21,34,0.0,70.0
808,79.0,30,58,0.0,82.0
809,80.0,35,23,0.0,79.0
810,64.0,14,63,0.0,61.0
811,88.0,17,80,0.0,66.0
812,61.0,37,58,0.0,75.0
813,56.0,31,31,0.0,49.0
814,87.0,9,72,0.0,76.0
815,86.0,11,81,0.0,79.0
816,85.0,8,27,0.0,62.0
817,84.0,29,60,0.0,83.0
818,51.0,49,107,0.0,92.0
819,56.0,26,74,0.0,69.0
820,83.0,20,58,0.0,95.0
821,60.0,25,50,0.0,65.0
822,82.0,13,41,0.0,73.0
823,81.0,34,49,0.0,73.0
824,66.0,5,56,0.0,65.0
825,80.0,3,30,0.0,79.0
826,60.0,43,66,0.0,54.0
827,79.0,31,46,0.0,80.0
828,56.0,14,63,0.0,70.0
829,78.0,39,25,0.0,76.0
830,76.0,3,28,0.0,74.0
831,52.0,37,89,0.0,102.0
832,78.0,43,58,0.0,79.0
833,76.0,23,51,0.0,70.0
834,56.0,12,83,0.0,75.0
835,61.0,32,60,0.0,76.0
836,75.0,13,55,0.0,88.0
837,76.0,2,29,0.0,62.0
838,68.0,44,70,0.0,77.0
839,61.0,47,68,0.0,61.0
840,88.0,1,73,0.0,98.0
841,56.0,23,59,0.0,64.0
842,87.0,11,100,0.0,75.0
843,86.0,31,74,0.0,88.0
844,85.0,26,54,0.0,76.0
845,54.0,25,93,0.0,97.0
846,84.0,5,39,0.0,85.0
847,61.0,27,89,0.0,82.0
848,83.0,36,69,0.0,106.0
849,63.0,14,61,0.0,78.0
850,82.0,34,48,0.0,79.0
851,81.0,22,23,0.0,74.0
852,69.0,13,85,0.0,70.0
853,80.0,4,51,0.0,85.0
854,63.0,31,75,0.0,59.0
855,79.0,40,56,0.0,96.0
856,61.0,3,62,0.0,59.0
857,78.0,42,42,0.0,92.0
858,80.0,0,49,0.0,102.0
859,61.0,5,94,0.0,66.0
860,68.0,45,116,0.0,98.0
861,64.0,5,121,0.0,93.0
862,56.0,0,131,0.0,89.0
863,92.0,132,64,0.0,100.0
864,91.0,52,57,0.0,91.0
865,90.0,47,84,0.0,89.0
866,89.0,52,44,0.0,87.0
867,88.0,33,59,0.0,89.0
868,55.0,8,55,0.0,89.0
869,61.0,30,70,0.0,83.0
870,64.0,16,59,0.0,83.0
871,69.0,8,58,0.0,95.0
872,87.0,7,114,0.0,90.0
873,86.0,24,86,0.0,85.0
874,85.0,48,48,0.0,84.0
875,83.0,41,69,0.0,102.0
876,84.0,31,111,0.0,82.0
877,82.0,47,55,0.0,72.0
878,81.0,34,56,0.0,77.0
879,80.0,45,79,0.0,87.0
880,79.0,39,71,0.0,83.0
881,78.0,44,41,0.0,84.0
882,77.0,39,51,0.0,66.0
883,76.0,29,65,0.0,80.0
884,75.0,48,35,0.0,79.0
885,74.0,29,26,0.0,79.0
886,73.0,38,71,0.0,72.0
887,72.0,42,30,0.0,83.0
888,71.0,29,57,0.0,88.0
889,70.0,39,88,0.0,88.0
890,69.0,39,62,0.0,69.0
891,68.0,38,32,0.0,75.0
892,67.0,25,29,0.0,80.0
893,66.0,51,48,0.0,84.0
894,64.0,39,31,0.0,90.0
895,63.0,38,52,0.0,87.0
896,61.0,49,20,0.0,83.0
897,32.0,3,15,0.0,99.0
898,56.0,49,46,0.0,109.0
899,44.0,2,48,0.0,112.0
900,64.0,5,56,0.0,99.0
901,93.0,293,73,0.0,104.0
902,76.0,8,70,0.0,101.0
903,92.0,47,64,0.0,88.0
904,100.0,66,50,0.0,93.0
905,88.0,50,27,0.0,77.0
906,90.0,52,77,0.0,88.0
907,73.0,3,98,0.0,102.0
908,88.0,43,57,0.0,71.0
909,97.0,48,49,0.0,80.0
910,61.0,3,141,0.0,103.0
911,85.0,41,39,0.0,76.0
912,87.0,1,69,0.0,81.0
913,68.0,58,97,0.0,95.0
914,85.0,46,56,0.0,78.0
915,92.0,45,25,0.0,77.0
916,56.0,3,131,0.0,92.0
917,80.0,33,31,0.0,79.0
918,81.0,66,54,0.0,98.0
919,64.0,1,71,0.0,97.0
920,80.0,42,57,0.0,84.0
921,52.0,11,102,0.0,88.0
922,88.0,49,19,0.0,89.0
923,76.0,33,23,0.0,74.0
924,78.0,5,62,0.0,89.0
925,61.0,34,87,0.0,103.0
926,76.0,51,36,0.0,70.0
927,49.0,4,110,0.0,98.0
928,85.0,30,38,0.0,76.0
929,73.0,35,34,0.0,77.0
930,56.0,39,81,0.0,98.0
931,75.0,9,77,0.0,83.0
932,44.0,1,101,0.0,104.0
933,80.0,34,20,0.0,70.0
934,73.0,44,58,0.0,65.0
935,68.0,23,20,0.0,77.0
936,78.0,3,33,0.0,30.0
937,69.0,6,43,0.0,72.0
938,52.0,47,88,0.0,106.0
939,68.0,38,60,0.0,79.0
940,76.0,47,18,0.0,80.0
941,40.0,1,113,0.0,110.0
942,64.0,28,26,0.0,90.0
943,66.0,2,63,0.0,75.0
944,49.0,41,93,0.0,100.0
945,64.0,42,53,0.0,81.0
946,37.0,4,118,0.0,97.0
947,73.0,35,46,0.0,70.0
948,61.0,32,44,0.0,83.0
949,63.0,3,80,0.0,86.0
950,61.0,40,62,0.0,60.0
951,44.0,49,114,0.0,97.0
952,32.0,1,127,0.0,95.0
953,68.0,36,83,0.0,69.0
954,56.0,39,69,0.0,79.0
955,63.0,1,94,0.0,76.0
956,44.0,2,103,0.0,100.0
957,32.0,54,107,0.0,79.0
958,61.0,44,73,0.0,70.0
959,68.0,40,60,0.0,67.0
960,56.0,29,47,0.0,80.0
961,63.0,53,90,0.0,79.0
962,61.0,39,80,0.0,81.0
963,45.0,6,120,0.0,95.0
964,69.0,46,49,0.0,74.0
965,33.0,0,151,0.0,98.0
966,57.0,43,79,0.0,82.0
967,63.0,4,97,0.0,85.0
968,61.0,47,80,0.0,80.0
969,44.0,47,131,0.0,96.0
970,32.0,0,155,0.0,86.0
971,68.0,50,96,0.0,79.0
972,56.0,34,63,0.0,86.0
973,63.0,5,115,0.0,81.0
974,43.0,1,134,0.0,96.0
975,61.0,51,83,0.0,74.0
976,31.0,50,146,0.0,100.0
977,55.0,48,68,0.0,96.0
978,67.0,53,135,0.0,82.0
979,63.0,2,176,0.0,88.0
980,61.0,66,141,0.0,79.0
981,68.0,60,186,0.0,75.0
982,56.0,46,304,0.0,82.0
983,44.0,61,506,0.0,97.0
984,60.0,88,202,0.0,83.0
985,63.0,88,303,0.0,81.0
986,32.0,2,589,0.0,88.0
987,56.0,127,196,0.0,87.0
988,68.0,105,375,0.0,75.0
989,25.0,101,261,0.0,97.0
990,37.0,194,125,0.0,99.0
991,44.0,230,180,0.0,79.0
992,49.0,150,128,0.0,78.0
993,53.0,122,109,0.0,105.0
994,61.0,96,89,0.0,83.0
995,56.0,110,265,0.0,78.0
996,65.0,93,95,0.0,76.0
997,61.0,95,90,0.0,69.0
998,56.0,89,24,0.0,60.0
999,53.0,84,61,0.0,92.0
1000,49.0,72,66,0.0,70.0
1001,44.0,72,105,0.0,66.0
1002,37.0,96,126,0.0,78.0
1003,44.0,107,115,0.0,74.0
1004,49.0,97,71,0.0,64.0
1005,53.0,118,39,0.0,54.0
1006,56.0,91,98,0.0,36.0
1007,61.0,87,40,0.0,49.0
1008,65.0,92,74,0.0,39.0
1009,61.0,97,39,0.0,43.0
1010,56.0,91,31,0.0,30.0
1011,53.0,106,31,0.0,53.0
1012,49.0,97,75,0.0,38.0
1013,44.0,116,281,0.0,29.0
1014,37.0,184,102,0.0,37.0
1015,56.0,195,80,0.0,37.0
1016,60.0,142,50,0.0,18.0
1017,63.0,102,49,0.0,40.0
1018,60.0,105,36,0.0,31.0
1019,56.0,79,41,0.0,18.0
1020,68.0,24,664,0.0,81.0
1021,70.0,26,23,0.0,61.0
1022,72.0,28,69,0.0,66.0
1023,49.0,14,129,0.0,29.0
1024,70.0,20,217,0.0,70.0
1025,56.0,109,97,0.0,39.0
1026,60.0,47,43,0.0,25.0
1027,68.0,60,171,0.0,76.0
1028,66.0,86,61,0.0,34.0
1029,60.0,114,40,0.0,32.0
1030,73.0,5,183,0.0,83.0
1031,56.0,57,42,0.0,22.0
1032,75.0,34,222,0.0,86.0
1033,49.0,95,147,0.0,30.0
1034,56.0,107,101,0.0,33.0
1035,61.0,107,45,0.0,30.0
1036,65.0,113,85,0.0,30.0
1037,61.0,110,47,0.0,35.0
1038,56.0,101,101,0.0,33.0
1039,77.0,36,679,0.0,80.0
1040,49.0,116,127,0.0,21.0
1041,56.0,127,37,0.0,37.0
1042,65.0,105,30,0.0,34.0
1043,68.0,140,118,0.0,54.0
1044,65.0,134,33,0.0,34.0
1045,80.0,4,855,0.0,65.0
1046,56.0,98,317,0.0,31.0
1047,63.0,124,90,0.0,43.0
1048,66.0,10,230,0.0,39.0
1049,78.0,166,378,0.0,88.0
1050,56.0,100,200,0.0,47.0
1051,65.0,11,173,0.0,48.0
1052,61.0,95,108,0.0,52.0
1053,56.0,109,181,0.0,44.0
1054,77.0,92,404,0.0,91.0
1055,60.0,110,87,0.0,39.0
1056,63.0,1,209,0.0,52.0
1057,56.0,96,98,0.0,40.0
1058,75.0,101,395,0.0,79.0
1059,56.0,134,96,0.0,38.0
1060,61.0,128,254,0.0,37.0
1061,53.0,135,33,0.0,44.0
1062,77.0,5,350,0.0,76.0
1063,73.0,29,188,0.0,58.0
1064,44.0,11,140,0.0,34.0
1065,51.0,140,88,0.0,29.0
1066,56.0,107,104,0.0,21.0
1067,60.0,119,99,0.0,36.0
1068,56.0,106,82,0.0,38.0
1069,51.0,118,34,0.0,24.0
1070,68.0,155,715,0.0,52.0
1071,42.0,21,108,0.0,22.0
1072,54.0,120,67,0.0,44.0
1073,58.0,104,57,0.0,36.0
1074,61.0,98,97,0.0,52.0
1075,58.0,101,78,0.0,42.0
1076,54.0,92,32,0.0,41.0
1077,46.0,85,123,0.0,50.0
1078,53.0,103,85,0.0,76.0
1079,58.0,94,55,0.0,43.0
1080,62.0,89,81,0.0,64.0
1081,58.0,81,60,0.0,47.0
1082,70.0,160,1074,0.0,64.0
1083,53.0,94,23,0.0,21.0
1084,71.0,12,22,0.0,72.0
1085,73.0,26,67,0.0,75.0
1086,46.0,20,97,0.0,43.0
1087,58.0,97,43,0.0,38.0
1088,71.0,27,198,0.0,85.0
1089,62.0,56,56,0.0,47.0
1090,70.0,60,208,0.0,84.0
1091,68.0,92,75,0.0,32.0
1092,62.0,98,35,0.0,47.0
1093,75.0,32,186,0.0,88.0
1094,58.0,51,31,0.0,36.0
1095,77.0,53,190,0.0,93.0
1096,51.0,97,162,0.0,48.0
1097,66.0,123,67,0.0,41.0
1098,58.0,98,63,0.0,38.0
1099,78.0,11,353,0.0,84.0
1100,53.0,9,178,0.0,68.0
1101,65.0,86,93,0.0,40.0
1102,57.0,101,49,0.0,28.0
1103,77.0,94,365,0.0,82.0
1104,58.0,96,35,0.0,30.0
1105,63.0,107,137,0.0,47.0
1106,54.0,0,334,0.0,40.0
1107,75.0,111,386,0.0,75.0
1108,66.0,110,84,0.0,24.0
1109,56.0,11,280,0.0,22.0
1110,60.0,145,32,0.0,35.0
1111,77.0,141,494,0.0,66.0
1112,49.0,10,139,0.0,29.0
1113,56.0,134,92,0.0,31.0
1114,61.0,120,49,0.0,23.0
1115,65.0,102,90,0.0,24.0
1116,61.0,128,164,0.0,35.0
1117,73.0,159,731,0.0,53.0
1118,72.0,221,60,0.0,56.0
1119,73.0,54,61,0.0,47.0
1120,56.0,3,122,0.0,18.0
1121,75.0,49,73,0.0,61.0
1122,73.0,51,136,0.0,59.0
1123,51.0,25,297,0.0,17.0
1124,55.0,110,136,0.0,27.0
1125,61.0,126,87,0.0,26.0
1126,63.0,118,81,0.0,30.0
1127,61.0,142,84,0.0,34.0
1128,77.0,75,685,0.0,59.0
1129,55.0,64,59,0.0,19.0
1130,75.0,164,220,0.0,48.0
1131,44.0,20,143,0.0,23.0
1132,51.0,151,77,0.0,18.0
1133,56.0,93,53,0.0,24.0
1134,60.0,111,89,0.0,28.0
1135,56.0,103,41,0.0,34.0
1136,51.0,95,78,0.0,15.0
1137,44.0,87,96,0.0,38.0
1138,51.0,102,91,0.0,42.0
1139,56.0,94,48,0.0,37.0
1140,58.0,98,84,0.0,41.0
1141,75.0,207,1069,0.0,26.0
1142,56.0,104,87,0.0,47.0
1143,51.0,116,112,0.0,36.0
1144,44.0,113,171,0.0,45.0
1145,51.0,126,101,0.0,41.0
1146,56.0,107,46,0.0,30.0
1147,60.0,109,92,0.0,44.0
1148,56.0,97,62,0.0,52.0
1149,51.0,83,28,0.0,52.0
1150,68.0,39,569,0.0,79.0
1151,70.0,38,22,0.0,56.0
1152,72.0,25,63,0.0,72.0
1153,44.0,5,107,0.0,51.0
1154,56.0,111,32,0.0,38.0
1155,70.0,20,185,0.0,73.0
1156,60.0,62,39,0.0,44.0
1157,68.0,32,171,0.0,78.0
1158,66.0,12,54,0.0,42.0
1159,60.0,116,44,0.0,42.0
1160,73.0,72,205,0.0,85.0
1161,56.0,58,85,0.0,28.0
1162,75.0,41,231,0.0,87.0
1163,49.0,116,141,0.0,36.0
1164,56.0,113,93,0.0,35.0
1165,61.0,118,64,0.0,22.0
1166,65.0,127,69,0.0,25.0
1167,61.0,113,53,0.0,36.0
1168,56.0,112,78,0.0,32.0
1169,77.0,22,763,0.0,84.0
1170,49.0,139,155,0.0,27.0
1171,56.0,134,38,0.0,32.0
1172,65.0,111,28,0.0,33.0
1173,68.0,147,83,0.0,48.0
1174,65.0,132,37,0.0,25.0
1175,80.0,23,836,0.0,66.0
1176,56.0,88,264,0.0,24.0
1177,66.0,17,183,0.0,35.0
1178,63.0,106,89,0.0,46.0
1179,78.0,141,358,0.0,78.0
1180,56.0,99,212,0.0,35.0
1181,65.0,6,173,0.0,36.0
1182,61.0,97,92,0.0,47.0
1183,77.0,108,349,0.0,79.0
1184,56.0,104,223,0.0,25.0
1185,60.0,121,50,0.0,30.0
1186,75.0,108,209,0.0,61.0
1187,77.0,57,80,0.0,58.0
1188,63.0,15,276,0.0,37.0
1189,75.0,76,74,0.0,43.0
1190,56.0,19,65,0.0,28.0
1191,73.0,49,81,0.0,51.0
1192,75.0,59,102,0.0,43.0
1193,61.0,41,252,0.0,31.0
1194,56.0,98,110,0.0,27.0
1195,53.0,170,39,0.0,36.0
1196,77.0,58,350,0.0,56.0
1197,73.0,66,177,0.0,35.0
1198,44.0,11,131,0.0,31.0
1199,51.0,136,95,0.0,27.0
1200,56.0,107,82,0.0,26.0
1201,60.0,116,51,0.0,30.0
1202,56.0,104,53,0.0,27.0
1203,51.0,129,54,0.0,17.0
1204,68.0,158,814,0.0,41.0
1205,42.0,12,127,0.0,36.0
1206,54.0,141,39,0.0,42.0
1207,58.0,111,49,0.0,23.0
1208,61.0,93,98,0.0,37.0
1209,58.0,107,49,0.0,32.0
1210,54.0,99,33,0.0,29.0
1211,46.0,108,99,0.0,35.0
1212,53.0,140,24,0.0,59.0
1213,58.0,101,44,0.0,16.0
1214,62.0,89,47,0.0,37.0
1215,58.0,95,64,0.0,29.0
1216,70.0,162,1175,0.0,49.0
1217,53.0,99,24,0.0,59.0
1218,71.0,42,26,0.0,57.0
1219,73.0,24,65,0.0,59.0
1220,46.0,17,52,0.0,32.0
1221,58.0,89,36,0.0,38.0
1222,71.0,30,173,0.0,90.0
1223,62.0,71,51,0.0,44.0
1224,70.0,43,206,0.0,76.0
1225,68.0,87,76,0.0,41.0
1226,62.0,107,32,0.0,53.0
1227,75.0,7,184,0.0,82.0
1228,58.0,63,29,0.0,38.0
1229,77.0,41,192,0.0,87.0
1230,51.0,1,112,0.0,45.0
1231,66.0,131,106,0.0,37.0
1232,58.0,116,96,0.0,28.0
1233,78.0,99,410,0.0,78.0
1234,53.0,7,178,0.0,45.0
1235,65.0,102,83,0.0,32.0
1236,57.0,93,59,0.0,25.0
1237,77.0,114,397,0.0,63.0
1238,63.0,94,122,0.0,46.0
1239,58.0,103,44,0.0,31.0
1240,54.0,99,271,0.0,36.0
1241,75.0,4,350,0.0,60.0
1242,66.0,89,85,0.0,36.0
1243,60.0,132,39,0.0,32.0
1244,56.0,19,284,0.0,21.0
1245,77.0,109,476,0.0,65.0
1246,49.0,16,137,0.0,31.0
1247,56.0,138,105,0.0,28.0
1248,61.0,108,45,0.0,28.0
1249,65.0,104,77,0.0,32.0
1250,73.0,159,593,0.0,46.0
1251,67.0,134,98,0.0,64.0
1252,61.0,19,106,0.0,35.0
1253,68.0,54,76,0.0,68.0
1254,70.0,61,38,0.0,73.0
1255,56.0,15,94,0.0,18.0
1256,68.0,46,164,0.0,64.0
1257,49.0,57,228,0.0,33.0
1258,56.0,130,125,0.0,33.0
1259,60.0,125,67,0.0,30.0
1260,66.0,116,71,0.0,31.0
1261,60.0,126,45,0.0,36.0
1262,77.0,61,587,0.0,79.0
1263,75.0,49,137,0.0,69.0
1264,56.0,54,88,0.0,20.0
1265,49.0,108,121,0.0,30.0
1266,56.0,120,114,0.0,37.0
1267,60.0,116,109,0.0,32.0
1268,66.0,58,84,0.0,27.0
1269,56.0,63,150,0.0,12.0
1270,60.0,136,52,0.0,27.0
1271,56.0,89,99,0.0,31.0
1272,75.0,1,778,0.0,79.0
1273,49.0,4,135,0.0,30.0
1274,56.0,127,83,0.0,38.0
1275,61.0,96,41,0.0,35.0
1276,73.0,120,316,0.0,49.0
1277,65.0,96,90,0.0,44.0
1278,61.0,98,63,0.0,44.0
1279,56.0,85,45,0.0,36.0
1280,80.0,42,291,0.0,85.0
1281,44.0,16,135,0.0,51.0
1282,51.0,136,115,0.0,44.0
1283,56.0,81,86,0.0,41.0
1284,60.0,101,154,0.0,47.0
1285,68.0,138,526,0.0,78.0
1286,56.0,139,101,0.0,46.0
1287,70.0,55,22,0.0,57.0
1288,51.0,112,93,0.0,44.0
1289,72.0,21,56,0.0,78.0
1290,44.0,5,131,0.0,48.0
1291,51.0,118,106,0.0,55.0
1292,55.0,93,40,0.0,54.0
1293,70.0,24,283,0.0,78.0
1294,69.0,36,104,0.0,79.0
1295,61.0,1,98,0.0,49.0
1296,51.0,67,127,0.0,26.0
1297,55.0,112,37,0.0,53.0
1298,70.0,5,250,0.0,71.0
1299,51.0,67,88,0.0,35.0
1300,72.0,45,97,0.0,77.0
1301,44.0,31,140,0.0,56.0
1302,68.0,31,145,0.0,85.0
1303,56.0,101,124,0.0,48.0
1304,51.0,101,412,0.0,51.0
1305,56.0,112,155,0.0,51.0
1306,60.0,132,313,0.0,42.0
1307,51.0,103,106,0.0,60.0
1308,84.0,44,567,0.0,104.0
1309,49.0,106,295,0.0,62.0
1310,82.0,167,231,0.0,75.0
1311,80.0,76,133,0.0,77.0
1312,56.0,90,228,0.0,46.0
1313,76.0,31,120,0.0,71.0
1314,61.0,91,158,0.0,44.0
1315,73.0,94,143,0.0,67.0
1316,56.0,47,49,0.0,2.0
1317,64.0,53,178,0.0,36.0
1318,70.0,28,209,0.0,62.0
1319,61.0,98,135,0.0,45.0
1320,56.0,155,56,0.0,36.0
1321,80.0,94,62,0.0,73.0
1322,39.0,2,112,0.0,27.0
1323,51.0,191,176,0.0,41.0
1324,56.0,136,94,0.0,46.0
1325,60.0,121,94,0.0,46.0
1326,56.0,102,68,0.0,46.0
1327,51.0,116,35,0.0,21.0
1328,63.0,143,808,0.0,76.0
1329,72.0,51,108,0.0,59.0
1330,39.0,3,88,0.0,48.0
1331,70.0,59,350,0.0,67.0
1332,69.0,38,109,0.0,51.0
1333,55.0,121,153,0.0,35.0
1334,61.0,4,117,0.0,35.0
1335,51.0,183,373,0.0,37.0
1336,55.0,138,39,0.0,35.0
1337,51.0,112,45,0.0,23.0
1338,70.0,89,328,0.0,55.0
1339,75.0,43,97,0.0,51.0
1340,44.0,3,139,0.0,40.0
1341,51.0,149,90,0.0,26.0
1342,56.0,102,122,0.0,26.0
1343,60.0,130,98,0.0,31.0
1344,56.0,123,97,0.0,36.0
1345,51.0,155,79,0.0,33.0
1346,68.0,81,920,0.0,54.0
1347,42.0,3,142,0.0,36.0
1348,54.0,169,105,0.0,30.0
1349,58.0,135,97,0.0,23.0
1350,70.0,215,542,0.0,43.0
1351,61.0,202,99,0.0,24.0
1352,73.0,11,234,0.0,36.0
1353,58.0,197,113,0.0,15.0
1354,72.0,18,145,0.0,37.0
1355,54.0,155,38,0.0,32.0
1356,70.0,15,141,0.0,37.0
1357,44.0,133,137,0.0,40.0
1358,51.0,134,101,0.0,34.0
1359,56.0,98,52,0.0,33.0
1360,60.0,112,50,0.0,33.0
1361,56.0,103,43,0.0,36.0
1362,68.0,1,550,0.0,48.0
1363,70.0,122,27,0.0,47.0
1364,72.0,31,30,0.0,54.0
1365,44.0,8,99,0.0,34.0
1366,56.0,107,33,0.0,38.0
1367,70.0,22,187,0.0,68.0
1368,60.0,74,52,0.0,35.0
1369,68.0,40,181,0.0,65.0
1370,66.0,9,73,0.0,39.0
1371,60.0,123,43,0.0,28.0
1372,73.0,70,188,0.0,73.0
1373,56.0,66,41,0.0,34.0
1374,75.0,20,213,0.0,80.0
1375,49.0,1,117,0.0,27.0
1376,56.0,115,59,0.0,36.0
1377,61.0,102,47,0.0,30.0
1378,65.0,95,86,0.0,35.0
1379,61.0,104,59,0.0,43.0
1380,56.0,86,57,0.0,25.0
1381,77.0,113,658,0.0,75.0
1382,49.0,129,109,0.0,28.0
1383,56.0,111,41,0.0,36.0
1384,65.0,104,27,0.0,37.0
1385,68.0,128,99,0.0,56.0
1386,65.0,117,31,0.0,30.0
1387,80.0,6,696,0.0,53.0
1388,56.0,85,203,0.0,32.0
1389,63.0,108,56,0.0,47.0
1390,66.0,7,185,0.0,37.0
1391,78.0,94,338,0.0,83.0
1392,56.0,94,189,0.0,35.0
1393,61.0,98,39,0.0,52.0
1394,65.0,8,161,0.0,42.0
1395,77.0,93,337,0.0,89.0
1396,56.0,107,202,0.0,43.0
1397,75.0,93,153,0.0,74.0
1398,60.0,106,80,0.0,29.0
1399,77.0,10,83,0.0,71.0
1400,63.0,25,202,0.0,41.0
1401,75.0,69,79,0.0,55.0
1402,56.0,45,93,0.0,31.0
1403,73.0,26,82,0.0,57.0
1404,75.0,63,123,0.0,63.0
1405,61.0,47,249,0.0,26.0
1406,56.0,90,120,0.0,35.0
1407,53.0,142,31,0.0,42.0
1408,77.0,65,326,0.0,64.0
1409,73.0,62,141,0.0,41.0
1410,44.0,4,133,0.0,34.0
1411,51.0,128,95,0.0,38.0
1412,56.0,100,50,0.0,30.0
1413,60.0,102,83,0.0,42.0
1414,56.0,95,44,0.0,50.0
1415,51.0,101,27,0.0,38.0
1416,68.0,118,666,0.0,50.0
1417,42.0,16,104,0.0,43.0
1418,54.0,105,43,0.0,57.0
1419,58.0,104,74,0.0,43.0
1420,61.0,110,94,0.0,51.0
1421,58.0,103,63,0.0,37.0
1422,54.0,90,29,0.0,38.0
1423,46.0,94,107,0.0,44.0
1424,53.0,113,63,0.0,46.0
1425,58.0,87,53,0.0,27.0
1426,62.0,89,49,0.0,52.0
1427,70.0,97,988,0.0,67.0
1428,58.0,91,80,0.0,31.0
1429,53.0,63,23,0.0,74.0
1430,71.0,41,22,0.0,71.0
1431,73.0,22,67,0.0,73.0
1432,46.0,16,83,0.0,42.0
1433,58.0,92,42,0.0,35.0
1434,71.0,29,168,0.0,88.0
1435,62.0,70,78,0.0,48.0
1436,70.0,35,188,0.0,83.0
1437,68.0,7,91,0.0,59.0
1438,62.0,113,40,0.0,50.0
1439,75.0,86,187,0.0,86.0
1440,58.0,58,29,0.0,32.0
1441,77.0,27,181,0.0,92.0
1442,51.0,76,173,0.0,52.0
1443,66.0,102,99,0.0,43.0
1444,58.0,99,92,0.0,34.0
1445,78.0,13,367,0.0,79.0
1446,65.0,105,90,0.0,30.0
1447,53.0,8,229,0.0,45.0
1448,57.0,91,83,0.0,25.0
1449,77.0,114,382,0.0,70.0
1450,63.0,108,123,0.0,41.0
1451,58.0,98,55,0.0,29.0
1452,54.0,100,307,0.0,48.0
1453,75.0,1,381,0.0,58.0
1454,66.0,101,77,0.0,26.0
1455,60.0,126,41,0.0,20.0
1456,56.0,14,294,0.0,29.0
1457,77.0,129,478,0.0,64.0
1458,49.0,18,135,0.0,28.0
1459,56.0,134,95,0.0,25.0
1460,61.0,117,50,0.0,22.0
1461,65.0,109,99,0.0,25.0
1462,73.0,154,587,0.0,44.0
1463,67.0,42,50,0.0,44.0
1464,61.0,121,119,0.0,33.0
1465,68.0,66,66,0.0,44.0
1466,70.0,12,29,0.0,48.0
1467,56.0,46,106,0.0,17.0
1468,68.0,47,153,0.0,55.0
1469,49.0,78,159,0.0,19.0
1470,56.0,114,92,0.0,34.0
1471,60.0,127,121,0.0,18.0
1472,66.0,148,101,0.0,28.0
1473,60.0,147,51,0.0,25.0
1474,75.0,47,95,0.0,55.0
1475,56.0,74,60,0.0,13.0
1476,77.0,31,828,0.0,73.0
1477,49.0,98,124,0.0,20.0
1478,56.0,128,88,0.0,26.0
1479,60.0,114,62,0.0,23.0
1480,66.0,101,73,0.0,21.0
1481,60.0,111,53,0.0,24.0
1482,56.0,83,70,0.0,29.0
1483,75.0,1,735,0.0,55.0
1484,49.0,136,139,0.0,18.0
1485,56.0,126,67,0.0,27.0
1486,61.0,124,56,0.0,15.0
1487,65.0,113,110,0.0,22.0
1488,73.0,7,499,0.0,29.0
1489,61.0,153,79,0.0,27.0
1490,56.0,76,32,0.0,30.0
1491,80.0,71,298,0.0,85.0
1492,44.0,14,146,0.0,44.0
1493,51.0,143,114,0.0,34.0
1494,56.0,107,99,0.0,36.0
1495,60.0,134,115,0.0,36.0
1496,68.0,134,549,0.0,68.0
1497,56.0,104,92,0.0,40.0
1498,51.0,92,41,0.0,45.0
1499,70.0,29,24,0.0,63.0
1500,72.0,29,55,0.0,74.0
1501,44.0,1,136,0.0,51.0
1502,70.0,21,291,0.0,69.0
1503,55.0,101,99,0.0,57.0
1504,69.0,39,107,0.0,79.0
1505,61.0,5,99,0.0,50.0
1506,51.0,124,348,0.0,51.0
1507,55.0,111,70,0.0,64.0
1508,70.0,77,236,0.0,73.0
1509,51.0,76,83,0.0,47.0
1510,72.0,29,69,0.0,81.0
1511,68.0,18,122,0.0,88.0
1512,44.0,40,140,0.0,55.0
1513,56.0,115,147,0.0,56.0
1514,51.0,109,393,0.0,52.0
1515,60.0,141,165,0.0,59.0
1516,56.0,114,125,0.0,48.0
1517,51.0,109,121,0.0,56.0
1518,96.0,54,505,0.0,105.0
1519,94.0,123,146,0.0,81.0
1520,49.0,112,282,0.0,62.0
1521,92.0,117,82,0.0,73.0
1522,88.0,61,73,0.0,80.0
1523,87.0,61,89,0.0,79.0
1524,85.0,50,53,0.0,78.0
1525,61.0,19,151,0.0,47.0
1526,81.0,64,84,0.0,68.0
1527,56.0,14,373,0.0,43.0
1528,84.0,56,64,0.0,80.0
1529,82.0,56,69,0.0,67.0
1530,80.0,56,53,0.0,76.0
1531,76.0,45,73,0.0,68.0
1532,73.0,50,77,0.0,83.0
1533,61.0,1,218,0.0,34.0
1534,64.0,34,388,0.0,38.0
1535,70.0,68,93,0.0,78.0
1536,56.0,4,94,0.0,37.0
1537,80.0,189,61,0.0,87.0
1538,39.0,94,130,0.0,31.0
1539,51.0,178,143,0.0,34.0
1540,56.0,121,73,0.0,56.0
1541,60.0,111,105,0.0,52.0
1542,56.0,114,42,0.0,49.0
1543,51.0,105,29,0.0,45.0
1544,63.0,21,763,0.0,81.0
1545,72.0,70,102,0.0,61.0
1546,39.0,59,90,0.0,45.0
1547,70.0,1,339,0.0,70.0
1548,55.0,115,52,0.0,41.0
1549,69.0,41,98,0.0,54.0
1550,61.0,7,110,0.0,35.0
1551,51.0,177,365,0.0,37.0
1552,55.0,136,38,0.0,32.0
1553,51.0,119,47,0.0,18.0
1554,70.0,81,311,0.0,58.0
1555,75.0,27,82,0.0,59.0
1556,44.0,6,132,0.0,39.0
1557,51.0,142,101,0.0,25.0
1558,56.0,103,105,0.0,29.0
1559,60.0,133,111,0.0,27.0
1560,56.0,136,94,0.0,28.0
1561,51.0,148,41,0.0,22.0
1562,68.0,68,848,0.0,51.0
1563,42.0,12,139,0.0,31.0
1564,54.0,166,83,0.0,26.0
1565,58.0,140,137,0.0,22.0
1566,70.0,154,552,0.0,36.0
1567,61.0,6,105,0.0,28.0
1568,73.0,209,206,0.0,34.0
1569,58.0,185,63,0.0,20.0
1570,72.0,2,136,0.0,25.0
1571,54.0,11,32,0.0,27.0
1572,70.0,149,180,0.0,22.0
1573,44.0,26,119,0.0,32.0
1574,51.0,135,96,0.0,20.0
1575,56.0,101,81,0.0,30.0
1576,60.0,113,50,0.0,26.0
1577,56.0,96,47,0.0,26.0
1578,51.0,100,71,0.0,19.0
1579,68.0,142,686,0.0,33.0
1580,70.0,101,31,0.0,37.0
1581,72.0,35,30,0.0,42.0
1582,44.0,20,88,0.0,25.0
1583,56.0,108,37,0.0,29.0
1584,70.0,6,174,0.0,68.0
1585,60.0,78,98,0.0,22.0
1586,68.0,38,183,0.0,63.0
1587,66.0,15,69,0.0,28.0
1588,60.0,127,38,0.0,33.0
1589,73.0,74,199,0.0,57.0
1590,56.0,81,74,0.0,28.0
1591,75.0,4,226,0.0,71.0
1592,49.0,5,113,0.0,28.0
1593,56.0,109,98,0.0,32.0
1594,61.0,102,52,0.0,29.0
1595,65.0,96,63,0.0,38.0
1596,61.0,104,40,0.0,36.0
1597,56.0,79,77,0.0,20.0
1598,77.0,113,652,0.0,65.0
1599,49.0,126,120,0.0,24.0
1600,56.0,118,103,0.0,33.0
1601,65.0,120,120,0.0,25.0
1602,68.0,139,218,0.0,36.0
1603,65.0,152,76,0.0,17.0
1604,80.0,9,876,0.0,52.0
1605,56.0,131,278,0.0,26.0
1606,63.0,127,87,0.0,35.0
1607,66.0,7,222,0.0,23.0
1608,56.0,108,43,0.0,36.0
1609,78.0,159,460,0.0,56.0
1610,56.0,126,121,0.0,2.0
1611,65.0,4,181,0.0,44.0
1612,61.0,111,109,0.0,28.0
1613,77.0,34,355,0.0,62.0
1614,56.0,116,125,0.0,32.0
1615,75.0,87,169,0.0,59.0
1616,60.0,112,81,0.0,26.0
1617,77.0,30,92,0.0,66.0
1618,63.0,13,264,0.0,50.0
1619,56.0,17,57,0.0,28.0
1620,75.0,79,75,0.0,53.0
1621,73.0,58,101,0.0,52.0
1622,75.0,80,120,0.0,55.0
1623,56.0,96,119,0.0,27.0
1624,61.0,28,292,0.0,29.0
1625,53.0,179,51,0.0,37.0
1626,77.0,76,450,0.0,49.0
1627,73.0,116,163,0.0,37.0
1628,44.0,122,164,0.0,26.0
1629,51.0,153,119,0.0,23.0
1630,56.0,128,103,0.0,30.0
1631,60.0,122,93,0.0,29.0
1632,56.0,107,50,0.0,35.0
1633,51.0,128,31,0.0,30.0
1634,68.0,10,671,0.0,36.0
1635,42.0,19,104,0.0,29.0
1636,54.0,117,53,0.0,34.0
1637,58.0,105,90,0.0,23.0
1638,61.0,109,94,0.0,35.0
1639,58.0,126,93,0.0,19.0
1640,54.0,114,36,0.0,19.0
1641,46.0,114,123,0.0,31.0
1642,53.0,124,62,0.0,52.0
1643,58.0,89,48,0.0,36.0
1644,62.0,105,72,0.0,53.0
1645,58.0,98,76,0.0,35.0
1646,70.0,105,1238,0.0,62.0
1647,53.0,121,33,0.0,34.0
1648,71.0,39,27,0.0,57.0
1649,73.0,23,64,0.0,69.0
1650,46.0,20,106,0.0,28.0
1651,58.0,114,44,0.0,35.0
1652,71.0,33,194,0.0,90.0
1653,62.0,78,41,0.0,33.0
1654,70.0,40,219,0.0,75.0
1655,68.0,76,166,0.0,59.0
1656,62.0,128,35,0.0,39.0
1657,75.0,27,201,0.0,84.0
1658,58.0,63,33,0.0,24.0
1659,77.0,35,218,0.0,92.0
1660,51.0,96,219,0.0,40.0
1661,66.0,121,73,0.0,34.0
1662,58.0,114,70,0.0,29.0
1663,78.0,40,391,0.0,74.0
1664,65.0,106,81,0.0,30.0
1665,53.0,15,192,0.0,36.0
1666,57.0,106,72,0.0,19.0
1667,77.0,104,419,0.0,66.0
1668,63.0,109,114,0.0,36.0
1669,54.0,102,251,0.0,37.0
1670,58.0,112,126,0.0,19.0
1671,75.0,8,429,0.0,57.0
1672,66.0,141,104,0.0,19.0
1673,56.0,160,381,0.0,20.0
1674,77.0,0,593,0.0,44.0
1675,49.0,10,172,0.0,28.0
1676,56.0,177,111,0.0,22.0
1677,61.0,129,91,0.0,19.0
1678,65.0,111,109,0.0,24.0
1679,73.0,338,688,0.0,24.0
1680,67.0,50,84,0.0,42.0
1681,61.0,129,152,0.0,31.0
1682,68.0,81,69,0.0,47.0
1683,70.0,23,33,0.0,50.0
1684,56.0,52,126,0.0,17.0
1685,68.0,71,151,0.0,61.0
1686,49.0,59,228,0.0,26.0
1687,56.0,127,144,0.0,32.0
1688,60.0,168,136,0.0,26.0
1689,66.0,155,86,0.0,28.0
1690,60.0,137,65,0.0,25.0
1691,77.0,76,676,0.0,63.0
1692,56.0,79,92,0.0,21.0
1693,75.0,34,190,0.0,57.0
1694,49.0,130,117,0.0,25.0
1695,56.0,125,97,0.0,33.0
1696,60.0,118,52,0.0,30.0
1697,66.0,106,86,0.0,25.0
1698,60.0,119,65,0.0,29.0
1699,56.0,96,93,0.0,22.0
1700,49.0,125,96,0.0,17.0
1701,56.0,123,97,0.0,22.0
1702,60.0,153,107,0.0,8.0
1703,66.0,134,79,0.0,12.0
1704,60.0,142,108,0.0,14.0
1705,75.0,13,1461,0.0,66.0
1706,56.0,137,153,0.0,21.0
1707,68.0,56,39,0.0,33.0
1708,49.0,197,106,0.0,25.0
1709,69.0,4,56,0.0,32.0
1710,68.0,39,39,0.0,38.0
1711,56.0,54,97,0.0,28.0
1712,61.0,39,38,0.0,31.0
1713,67.0,20,33,0.0,57.0
1714,68.0,42,37,0.0,42.0
1715,73.0,33,40,0.0,54.0
1716,61.0,16,32,0.0,39.0
1717,64.0,9,89,0.0,34.0
1718,56.0,11,37,0.0,22.0
1719,76.0,32,53,0.0,51.0
1720,75.0,31,49,0.0,73.0
1721,73.0,29,26,0.0,50.0
1722,56.0,24,44,0.0,34.0
1723,75.0,13,54,0.0,62.0
1724,73.0,32,36,0.0,38.0
1725,61.0,7,32,0.0,33.0
1726,72.0,34,41,0.0,57.0
1727,64.0,19,39,0.0,44.0
1728,73.0,20,35,0.0,44.0
1729,52.0,19,213,0.0,51.0
1730,76.0,1,31,0.0,58.0
1731,61.0,38,35,0.0,19.0
1732,56.0,21,36,0.0,54.0
1733,80.0,20,20,0.0,72.0
1734,68.0,51,27,0.0,53.0
1735,49.0,82,106,0.0,47.0
1736,69.0,39,36,0.0,43.0
1737,56.0,6,52,0.0,42.0
1738,68.0,31,28,0.0,42.0
1739,61.0,35,32,0.0,37.0
1740,67.0,2,33,0.0,59.0
1741,68.0,41,40,0.0,55.0
1742,64.0,6,53,0.0,38.0
1743,61.0,3,32,0.0,38.0
1744,73.0,33,40,0.0,62.0
1745,56.0,33,38,0.0,42.0
1746,76.0,4,50,0.0,60.0
1747,75.0,45,39,0.0,76.0
1748,73.0,23,29,0.0,60.0
1749,56.0,13,39,0.0,48.0
1750,75.0,33,55,0.0,85.0
1751,73.0,32,35,0.0,66.0
1752,52.0,12,137,0.0,60.0
1753,61.0,8,32,0.0,39.0
1754,64.0,18,44,0.0,50.0
1755,72.0,32,65,0.0,77.0
1756,73.0,22,60,0.0,69.0
1757,61.0,7,66,0.0,39.0
1758,56.0,15,30,0.0,48.0
1759,76.0,37,52,0.0,65.0
1760,80.0,25,34,0.0,84.0
1761,51.0,67,94,0.0,57.0
1762,69.0,33,66,0.0,66.0
1763,57.0,41,30,0.0,44.0
1764,73.0,4,53,0.0,61.0
1765,61.0,4,32,0.0,40.0
1766,78.0,33,17,0.0,78.0
1767,75.0,36,54,0.0,79.0
1768,81.0,25,22,0.0,87.0
1769,66.0,18,71,0.0,55.0
1770,61.0,26,44,0.0,46.0
1771,87.0,4,18,0.0,77.0
1772,85.0,8,60,0.0,86.0
1773,57.0,33,39,0.0,37.0
1774,95.0,41,80,0.0,94.0
1775,54.0,5,76,0.0,73.0
1776,61.0,12,43,0.0,55.0
1777,93.0,44,56,0.0,79.0
1778,63.0,25,27,0.0,47.0
1779,92.0,18,62,0.0,73.0
1780,90.0,11,29,0.0,79.0
1781,69.0,4,35,0.0,50.0
1782,88.0,35,55,0.0,79.0
1783,63.0,12,24,0.0,42.0
1784,87.0,35,52,0.0,76.0
1785,61.0,18,30,0.0,47.0
1786,85.0,33,27,0.0,65.0
1787,90.0,12,68,0.0,79.0
1788,84.0,40,20,0.0,82.0
1789,87.0,26,33,0.0,73.0
1790,44.0,4,65,0.0,64.0
1791,81.0,6,21,0.0,73.0
1792,51.0,42,42,0.0,50.0
1793,54.0,3,29,0.0,42.0
1794,80.0,41,38,0.0,67.0
1795,78.0,34,45,0.0,73.0
1796,60.0,12,40,0.0,42.0
1797,81.0,34,28,0.0,43.0
1798,76.0,2,23,0.0,66.0
1799,79.0,11,35,0.0,45.0
1800,54.0,10,26,0.0,42.0
1801,75.0,5,41,0.0,61.0
1802,51.0,33,55,0.0,40.0
1803,73.0,31,28,0.0,36.0
1804,78.0,43,63,0.0,78.0
1805,44.0,4,68,0.0,58.0
1806,72.0,9,27,0.0,62.0
1807,51.0,28,61,0.0,45.0
1808,75.0,33,25,0.0,68.0
1809,54.0,20,31,0.0,44.0
1810,69.0,27,45,0.0,63.0
1811,68.0,28,32,0.0,62.0
1812,60.0,17,60,0.0,40.0
1813,54.0,11,31,0.0,48.0
1814,71.0,37,61,0.0,59.0
1815,51.0,11,38,0.0,18.0
1816,69.0,38,64,0.0,53.0
1817,68.0,37,27,0.0,43.0
1818,49.0,57,77,0.0,46.0
1819,69.0,31,39,0.0,51.0
1820,56.0,4,38,0.0,44.0
1821,68.0,32,34,0.0,34.0
1822,61.0,27,29,0.0,47.0
1823,67.0,18,37,0.0,54.0
1824,68.0,5,32,0.0,52.0
1825,64.0,36,46,0.0,35.0
1826,61.0,31,35,0.0,28.0
1827,73.0,7,33,0.0,57.0
1828,56.0,37,30,0.0,40.0
1829,76.0,12,48,0.0,36.0
1830,75.0,36,45,0.0,76.0
1831,73.0,37,30,0.0,51.0
1832,56.0,21,60,0.0,42.0
1833,75.0,13,59,0.0,71.0
1834,73.0,1,40,0.0,53.0
1835,61.0,40,43,0.0,50.0
1836,72.0,42,55,0.0,63.0
1837,64.0,23,33,0.0,46.0
1838,52.0,5,214,0.0,60.0
1839,73.0,11,53,0.0,62.0
1840,61.0,29,36,0.0,35.0
1841,56.0,17,26,0.0,52.0
1842,76.0,20,51,0.0,64.0
1843,80.0,30,21,0.0,76.0
1844,68.0,37,26,0.0,62.0
1845,49.0,63,111,0.0,52.0
1846,70.0,9,42,0.0,53.0
1847,56.0,30,74,0.0,48.0
1848,68.0,0,30,0.0,36.0
1849,58.0,41,38,0.0,36.0
1850,67.0,38,33,0.0,64.0
1851,68.0,26,59,0.0,46.0
1852,64.0,18,95,0.0,43.0
1853,73.0,5,27,0.0,50.0
1854,58.0,38,36,0.0,33.0
1855,56.0,19,40,0.0,48.0
1856,76.0,12,31,0.0,58.0
1857,75.0,5,23,0.0,55.0
1858,73.0,23,35,0.0,57.0
1859,56.0,25,64,0.0,46.0
1860,75.0,16,66,0.0,50.0
1861,58.0,38,31,0.0,42.0
1862,73.0,7,26,0.0,52.0
1863,72.0,35,54,0.0,64.0
1864,52.0,55,224,0.0,61.0
1865,61.0,14,65,0.0,45.0
1866,73.0,25,51,0.0,60.0
1867,76.0,11,31,0.0,56.0
1868,58.0,27,54,0.0,51.0
1869,56.0,36,35,0.0,41.0
1870,80.0,0,37,0.0,69.0
1871,75.0,45,28,0.0,77.0
1872,76.0,33,42,0.0,71.0
1873,56.0,30,37,0.0,50.0
1874,75.0,6,41,0.0,69.0
1875,59.0,41,27,0.0,44.0
1876,74.0,1,41,0.0,81.0
1877,75.0,41,35,0.0,73.0
1878,63.0,14,45,0.0,55.0
1879,51.0,6,221,0.0,56.0
1880,83.0,33,39,0.0,89.0
1881,59.0,16,44,0.0,55.0
1882,82.0,17,63,0.0,78.0
1883,56.0,36,31,0.0,40.0
1884,80.0,5,43,0.0,84.0
1885,79.0,7,22,0.0,88.0
1886,51.0,40,84,0.0,57.0
1887,88.0,37,55,0.0,87.0
1888,58.0,21,59,0.0,44.0
1889,87.0,19,69,0.0,73.0
1890,61.0,33,37,0.0,43.0
1891,85.0,8,30,0.0,78.0
1892,67.0,8,38,0.0,56.0
1893,83.0,38,64,0.0,103.0
1894,61.0,22,27,0.0,54.0
1895,82.0,36,69,0.0,81.0
1896,80.0,22,54,0.0,70.0
1897,79.0,36,23,0.0,85.0
1898,82.0,35,63,0.0,65.0
1899,44.0,15,69,0.0,72.0
1900,80.0,30,61,0.0,81.0
1901,83.0,10,19,0.0,100.0
1902,51.0,40,48,0.0,52.0
1903,74.0,32,24,0.0,73.0
1904,56.0,17,30,0.0,48.0
1905,76.0,24,34,0.0,78.0
1906,75.0,16,23,0.0,75.0
1907,59.0,33,49,0.0,46.0
1908,80.0,8,22,0.0,78.0
1909,56.0,30,35,0.0,59.0
1910,70.0,28,35,0.0,69.0
1911,51.0,16,35,0.0,48.0
1912,73.0,38,64,0.0,68.0
1913,44.0,18,65,0.0,63.0
1914,71.0,18,51,0.0,60.0
1915,75.0,35,28,0.0,66.0
1916,67.0,41,26,0.0,72.0
1917,51.0,5,67,0.0,55.0
1918,56.0,16,41,0.0,47.0
1919,70.0,28,74,0.0,76.0
1920,68.0,13,57,0.0,73.0
1921,59.0,34,78,0.0,42.0
1922,56.0,4,33,0.0,59.0
1923,67.0,34,63,0.0,79.0
1924,51.0,2,26,0.0,55.0
1925,68.0,45,28,0.0,86.0
1926,80.0,66,72,0.0,68.0
1927,49.0,23,68,0.0,40.0
1928,45.0,18,171,0.0,38.0
1929,68.0,56,189,0.0,91.0
1930,72.0,32,59,0.0,59.0
1931,54.0,23,54,0.0,55.0
1932,73.0,21,69,0.0,65.0
1933,78.0,27,81,0.0,75.0
1934,66.0,43,146,0.0,91.0
1935,54.0,33,65,0.0,62.0
1936,72.0,4,73,0.0,60.0
1937,49.0,8,38,0.0,43.0
1938,57.0,22,171,0.0,41.0
1939,73.0,41,80,0.0,62.0
1940,45.0,12,110,0.0,49.0
1941,65.0,38,128,0.0,93.0
1942,77.0,29,88,0.0,74.0
1943,72.0,21,40,0.0,56.0
1944,49.0,39,66,0.0,55.0
1945,73.0,6,31,0.0,37.0
1946,54.0,28,40,0.0,59.0
1947,78.0,12,68,0.0,74.0
1948,72.0,3,37,0.0,56.0
1949,66.0,32,126,0.0,94.0
1950,54.0,34,55,0.0,53.0
1951,73.0,0,24,0.0,49.0
1952,49.0,37,29,0.0,56.0
1953,57.0,28,217,0.0,41.0
1954,47.0,1,96,0.0,49.0
1955,61.0,60,122,0.0,97.0
1956,54.0,17,58,0.0,72.0
1957,73.0,58,81,0.0,55.0
1958,66.0,9,61,0.0,45.0
1959,57.0,39,58,0.0,36.0
1960,69.0,9,76,0.0,54.0
1961,59.0,14,75,0.0,59.0
1962,57.0,24,48,0.0,36.0
1963,75.0,29,78,0.0,73.0
1964,54.0,38,24,0.0,62.0
1965,63.0,32,145,0.0,87.0
1966,69.0,12,26,0.0,56.0
1967,66.0,8,87,0.0,55.0
1968,40.0,5,76,0.0,93.0
1969,47.0,11,32,0.0,68.0
1970,64.0,66,120,0.0,97.0
1971,76.0,69,62,0.0,53.0
1972,68.0,23,56,0.0,65.0
1973,52.0,46,27,0.0,64.0
1974,71.0,9,36,0.0,39.0
1975,68.0,29,77,0.0,90.0
1976,56.0,20,63,0.0,59.0
1977,80.0,27,61,0.0,81.0
1978,52.0,31,37,0.0,56.0
1979,71.0,10,64,0.0,77.0
1980,76.0,8,27,0.0,64.0
1981,47.0,38,37,0.0,43.0
1982,80.0,35,50,0.0,70.0
1983,45.0,18,106,0.0,53.0
1984,49.0,29,59,0.0,59.0
1985,68.0,28,145,0.0,84.0
1986,72.0,14,53,0.0,43.0
1987,54.0,34,37,0.0,61.0
1988,73.0,6,75,0.0,57.0
1989,78.0,21,58,0.0,75.0
1990,57.0,13,94,0.0,39.0
1991,66.0,40,117,0.0,88.0
1992,54.0,35,63,0.0,67.0
1993,72.0,1,67,0.0,68.0
1994,49.0,11,43,0.0,56.0
1995,73.0,41,85,0.0,62.0
1996,45.0,14,91,0.0,63.0
1997,77.0,18,86,0.0,83.0
1998,65.0,37,118,0.0,92.0
1999,49.0,48,46,0.0,60.0
2000,72.0,1,62,0.0,56.0
2001,54.0,6,39,0.0,66.0
2002,73.0,32,87,0.0,61.0
2003,78.0,17,84,0.0,83.0
2004,66.0,33,125,0.0,89.0
2005,54.0,2,61,0.0,78.0
2006,72.0,35,67,0.0,54.0
2007,49.0,42,30,0.0,62.0
2008,57.0,23,136,0.0,48.0
2009,73.0,0,72,0.0,70.0
2010,47.0,1,86,0.0,77.0
2011,65.0,52,113,0.0,87.0
2012,77.0,39,78,0.0,80.0
2013,54.0,36,43,0.0,81.0
2014,71.0,12,54,0.0,66.0
2015,57.0,26,39,0.0,52.0
2016,75.0,15,28,0.0,57.0
2017,59.0,1,83,0.0,70.0
2018,57.0,19,43,0.0,57.0
2019,66.0,34,108,0.0,88.0
2020,54.0,20,22,0.0,66.0
2021,71.0,22,57,0.0,73.0
2022,78.0,45,98,0.0,76.0
2023,75.0,25,72,0.0,69.0
2024,40.0,5,64,0.0,86.0
2025,81.0,59,23,0.0,83.0
2026,47.0,20,33,0.0,53.0
2027,69.0,60,147,0.0,84.0
2028,52.0,20,28,0.0,59.0
2029,71.0,53,58,0.0,63.0
2030,76.0,38,29,0.0,49.0
2031,56.0,31,54,0.0,60.0
2032,68.0,7,56,0.0,77.0
2033,80.0,44,56,0.0,76.0
2034,52.0,24,38,0.0,61.0
2035,71.0,18,63,0.0,68.0
2036,76.0,10,26,0.0,59.0
2037,47.0,42,36,0.0,25.0
2038,80.0,78,94,0.0,86.0
2039,49.0,21,76,0.0,40.0
2040,68.0,4,182,0.0,76.0
2041,45.0,39,187,0.0,42.0
2042,72.0,51,34,0.0,40.0
2043,73.0,24,38,0.0,47.0
2044,54.0,21,67,0.0,54.0
2045,66.0,49,94,0.0,66.0
2046,72.0,33,29,0.0,42.0
2047,54.0,28,70,0.0,64.0
2048,78.0,30,100,0.0,84.0
2049,49.0,11,35,0.0,42.0
2050,57.0,14,164,0.0,42.0
2051,73.0,25,82,0.0,65.0
2052,45.0,52,93,0.0,53.0
2053,65.0,0,108,0.0,69.0
2054,49.0,28,59,0.0,49.0
2055,77.0,41,90,0.0,83.0
2056,72.0,40,31,0.0,46.0
2057,54.0,18,35,0.0,53.0
2058,73.0,12,29,0.0,46.0
2059,66.0,34,98,0.0,71.0
2060,54.0,45,41,0.0,62.0
2061,72.0,9,40,0.0,52.0
2062,78.0,9,97,0.0,90.0
2063,73.0,38,24,0.0,52.0
2064,49.0,4,29,0.0,57.0
2065,57.0,19,203,0.0,37.0
2066,47.0,6,87,0.0,55.0
2067,61.0,65,108,0.0,77.0
2068,54.0,31,58,0.0,78.0
2069,66.0,18,46,0.0,49.0
2070,73.0,41,104,0.0,68.0
2071,57.0,34,37,0.0,51.0
2072,69.0,21,42,0.0,34.0
2073,59.0,13,85,0.0,56.0
2074,57.0,35,40,0.0,49.0
2075,63.0,17,121,0.0,73.0
2076,75.0,33,96,0.0,78.0
2077,54.0,27,26,0.0,57.0
2078,66.0,16,65,0.0,52.0
2079,69.0,24,35,0.0,26.0
2080,64.0,4,101,0.0,70.0
2081,40.0,53,109,0.0,102.0
2082,47.0,35,21,0.0,72.0
2083,76.0,71,64,0.0,69.0
2084,68.0,3,40,0.0,61.0
2085,52.0,56,24,0.0,71.0
2086,71.0,1,29,0.0,22.0
2087,56.0,30,37,0.0,70.0
2088,68.0,24,70,0.0,83.0
2089,80.0,18,69,0.0,89.0
2090,52.0,38,38,0.0,70.0
2091,71.0,1,58,0.0,64.0
2092,47.0,40,33,0.0,50.0
2093,76.0,12,103,0.0,67.0
2094,80.0,40,85,0.0,84.0
2095,45.0,38,125,0.0,88.0
2096,68.0,0,130,0.0,84.0
2097,72.0,48,63,0.0,63.0
2098,49.0,0,70,0.0,71.0
2099,54.0,3,40,0.0,75.0
2100,73.0,45,70,0.0,73.0
2101,66.0,37,72,0.0,86.0
2102,72.0,32,50,0.0,64.0
2103,73.0,37,21,0.0,73.0
2104,54.0,3,58,0.0,78.0
2105,57.0,14,126,0.0,58.0
2106,78.0,19,109,0.0,93.0
2107,49.0,3,46,0.0,62.0
2108,75.0,21,107,0.0,100.0
2109,45.0,43,130,0.0,87.0
2110,87.0,54,68,0.0,88.0
2111,85.0,11,38,0.0,26.0
2112,51.0,30,65,0.0,67.0
2113,78.0,8,57,0.0,75.0
2114,54.0,25,58,0.0,67.0
2115,81.0,21,70,0.0,76.0
2116,73.0,30,76,0.0,92.0
2117,57.0,1,138,0.0,54.0
2118,54.0,15,81,0.0,49.0
2119,78.0,25,68,0.0,77.0
2120,51.0,36,36,0.0,59.0
2121,85.0,49,112,0.0,92.0
2122,81.0,9,62,0.0,75.0
2123,44.0,18,120,0.0,87.0
2124,73.0,62,144,0.0,88.0
2125,75.0,74,62,0.0,63.0
2126,51.0,7,58,0.0,55.0
2127,85.0,27,143,0.0,79.0
2128,54.0,33,32,0.0,21.0
2129,78.0,32,94,0.0,69.0
2130,60.0,23,73,0.0,51.0
2131,72.0,9,108,0.0,80.0
2132,84.0,20,76,0.0,88.0
2133,54.0,1,51,0.0,51.0
2134,75.0,46,65,0.0,59.0
2135,51.0,9,60,0.0,47.0
2136,78.0,41,94,0.0,62.0
2137,44.0,9,94,0.0,68.0
2138,72.0,47,113,0.0,80.0
2139,84.0,41,73,0.0,85.0
2140,75.0,11,42,0.0,60.0
2141,51.0,34,67,0.0,61.0
2142,54.0,27,70,0.0,66.0
2143,78.0,1,104,0.0,61.0
2144,60.0,15,82,0.0,57.0
2145,84.0,28,79,0.0,88.0
2146,72.0,47,123,0.0,79.0
2147,54.0,21,75,0.0,53.0
2148,75.0,21,57,0.0,53.0
2149,51.0,22,59,0.0,62.0
2150,78.0,10,74,0.0,59.0
2151,45.0,3,122,0.0,84.0
2152,84.0,34,89,0.0,84.0
2153,72.0,53,139,0.0,76.0
2154,75.0,2,69,0.0,51.0
2155,51.0,44,78,0.0,58.0
2156,54.0,37,58,0.0,68.0
2157,78.0,10,98,0.0,66.0
2158,71.0,36,121,0.0,103.0
2159,59.0,10,120,0.0,68.0
2160,83.0,42,79,0.0,104.0
2161,54.0,12,82,0.0,49.0
2162,75.0,19,68,0.0,57.0
2163,51.0,31,63,0.0,71.0
2164,78.0,4,71,0.0,61.0
2165,83.0,33,79,0.0,105.0
2166,71.0,51,120,0.0,88.0
2167,46.0,8,133,0.0,84.0
2168,75.0,45,59,0.0,53.0
2169,51.0,2,68,0.0,66.0
2170,54.0,1,44,0.0,56.0
2171,78.0,30,88,0.0,58.0
2172,58.0,12,95,0.0,56.0
2173,70.0,41,116,0.0,79.0
2174,82.0,24,90,0.0,72.0
2175,75.0,31,64,0.0,51.0
2176,78.0,35,33,0.0,61.0
2177,54.0,13,78,0.0,68.0
2178,51.0,1,69,0.0,49.0
2179,82.0,45,98,0.0,76.0
2180,75.0,6,77,0.0,49.0
2181,51.0,30,83,0.0,55.0
2182,70.0,48,171,0.0,70.0
2183,54.0,31,65,0.0,65.0
2184,78.0,11,86,0.0,64.0
2185,48.0,6,274,0.0,72.0
2186,69.0,46,111,0.0,64.0
2187,54.0,28,58,0.0,52.0
2188,81.0,40,88,0.0,75.0
2189,75.0,11,53,0.0,41.0
2190,51.0,20,61,0.0,62.0
2191,78.0,12,67,0.0,68.0
2192,57.0,10,204,0.0,51.0
2193,69.0,40,125,0.0,67.0
2194,51.0,31,62,0.0,68.0
2195,81.0,37,104,0.0,81.0
2196,75.0,5,74,0.0,60.0
2197,54.0,32,46,0.0,68.0
2198,78.0,4,55,0.0,67.0
2199,69.0,49,79,0.0,60.0
2200,48.0,12,250,0.0,58.0
2201,54.0,25,51,0.0,60.0
2202,81.0,33,78,0.0,77.0
2203,75.0,1,59,0.0,46.0
2204,51.0,34,35,0.0,52.0
2205,78.0,10,38,0.0,61.0
2206,57.0,15,174,0.0,61.0
2207,84.0,60,72,0.0,85.0
2208,45.0,0,138,0.0,83.0
2209,72.0,44,150,0.0,74.0
2210,75.0,27,35,0.0,51.0
2211,51.0,36,76,0.0,52.0
2212,54.0,3,61,0.0,64.0
2213,78.0,20,84,0.0,61.0
2214,71.0,4,79,0.0,81.0
2215,59.0,43,91,0.0,51.0
2216,83.0,44,67,0.0,91.0
2217,54.0,10,58,0.0,47.0
2218,75.0,32,43,0.0,49.0
2219,51.0,12,32,0.0,46.0
2220,78.0,16,43,0.0,53.0
2221,71.0,11,100,0.0,74.0
2222,51.0,38,34,0.0,59.0
2223,83.0,42,74,0.0,84.0
2224,75.0,11,36,0.0,44.0
2225,54.0,25,32,0.0,51.0
2226,78.0,22,37,0.0,28.0
2227,58.0,4,71,0.0,36.0
2228,70.0,23,119,0.0,62.0
2229,82.0,38,86,0.0,56.0
2230,46.0,29,304,0.0,79.0
2231,75.0,21,41,0.0,43.0
2232,51.0,22,34,0.0,42.0
2233,54.0,38,84,0.0,49.0
2234,78.0,23,35,0.0,33.0
2235,75.0,16,38,0.0,29.0
2236,82.0,53,122,0.0,50.0
2237,51.0,58,72,0.0,45.0
2238,54.0,26,45,0.0,41.0
2239,70.0,45,210,0.0,48.0
2240,47.0,3,258,0.0,59.0
2241,78.0,17,97,0.0,49.0
2242,69.0,9,94,0.0,36.0
2243,81.0,45,64,0.0,61.0
2244,75.0,21,36,0.0,37.0
2245,54.0,25,77,0.0,39.0
2246,51.0,15,88,0.0,44.0
2247,78.0,45,71,0.0,35.0
2248,57.0,55,278,0.0,30.0
2249,51.0,20,47,0.0,32.0
2250,81.0,58,81,0.0,52.0
2251,69.0,25,148,0.0,44.0
2252,75.0,36,38,0.0,35.0
2253,78.0,33,41,0.0,31.0
2254,54.0,11,82,0.0,35.0
2255,68.0,59,117,0.0,43.0
2256,48.0,25,379,0.0,41.0
2257,80.0,47,93,0.0,41.0
2258,75.0,21,37,0.0,33.0
2259,78.0,61,33,0.0,32.0
2260,54.0,36,119,0.0,43.0
2261,51.0,5,53,0.0,20.0
2262,56.0,4,276,0.0,33.0
2263,68.0,32,33,0.0,35.0
2264,49.0,101,110,0.0,42.0
2265,69.0,46,53,0.0,38.0
2266,56.0,31,46,0.0,38.0
2267,68.0,12,35,0.0,36.0
2268,61.0,49,34,0.0,32.0
2269,67.0,6,41,0.0,52.0
2270,68.0,40,39,0.0,51.0
2271,73.0,2,30,0.0,49.0
2272,61.0,40,40,0.0,26.0
2273,64.0,8,103,0.0,34.0
2274,56.0,1,34,0.0,45.0
2275,76.0,37,70,0.0,57.0
2276,75.0,53,33,0.0,66.0
2277,73.0,29,30,0.0,52.0
2278,56.0,32,58,0.0,47.0
2279,75.0,2,63,0.0,58.0
2280,73.0,3,43,0.0,56.0
2281,61.0,40,59,0.0,54.0
2282,72.0,44,62,0.0,61.0
2283,64.0,20,53,0.0,55.0
2284,52.0,11,238,0.0,60.0
2285,73.0,18,54,0.0,64.0
2286,61.0,24,51,0.0,47.0
2287,76.0,29,28,0.0,52.0
2288,56.0,15,25,0.0,52.0
2289,80.0,17,21,0.0,66.0
2290,68.0,47,30,0.0,67.0
2291,49.0,54,95,0.0,62.0
2292,69.0,19,37,0.0,34.0
2293,56.0,29,75,0.0,53.0
2294,68.0,21,39,0.0,55.0
2295,61.0,23,40,0.0,51.0
2296,67.0,23,62,0.0,70.0
2297,68.0,12,56,0.0,57.0
2298,64.0,32,69,0.0,42.0
2299,61.0,28,46,0.0,41.0
2300,73.0,10,37,0.0,57.0
2301,56.0,25,35,0.0,47.0
2302,76.0,15,42,0.0,46.0
2303,75.0,37,44,0.0,80.0
2304,73.0,15,44,0.0,69.0
2305,75.0,40,44,0.0,80.0
2306,73.0,24,44,0.0,69.0
2307,56.0,1,73,0.0,47.0
2308,52.0,10,131,0.0,69.0
2309,61.0,9,62,0.0,59.0
2310,72.0,27,58,0.0,57.0
2311,64.0,35,63,0.0,62.0
2312,73.0,7,79,0.0,53.0
2313,61.0,32,70,0.0,55.0
2314,76.0,17,64,0.0,58.0
2315,56.0,22,53,0.0,55.0
2316,80.0,20,43,0.0,75.0
2317,69.0,48,57,0.0,65.0
2318,51.0,69,106,0.0,77.0
2319,57.0,23,54,0.0,54.0
2320,73.0,17,60,0.0,68.0
2321,61.0,30,38,0.0,58.0
2322,78.0,33,19,0.0,78.0
2323,75.0,11,58,0.0,76.0
2324,81.0,26,43,0.0,90.0
2325,66.0,16,72,0.0,52.0
2326,61.0,23,45,0.0,51.0
2327,87.0,18,19,0.0,73.0
2328,85.0,15,55,0.0,83.0
2329,57.0,17,43,0.0,44.0
2330,54.0,0,80,0.0,76.0
2331,95.0,43,81,0.0,91.0
2332,93.0,47,53,0.0,80.0
2333,61.0,15,39,0.0,57.0
2334,63.0,22,26,0.0,65.0
2335,92.0,17,59,0.0,67.0
2336,90.0,14,32,0.0,80.0
2337,69.0,5,37,0.0,50.0
2338,88.0,36,58,0.0,73.0
2339,61.0,19,24,0.0,61.0
2340,87.0,34,57,0.0,75.0
2341,85.0,22,28,0.0,66.0
2342,90.0,26,62,0.0,73.0
2343,84.0,5,21,0.0,80.0
2344,87.0,30,26,0.0,67.0
2345,44.0,44,67,0.0,72.0
2346,51.0,34,31,0.0,48.0
2347,81.0,12,25,0.0,78.0
2348,54.0,31,29,0.0,45.0
2349,80.0,15,54,0.0,65.0
2350,60.0,30,41,0.0,43.0
2351,78.0,6,53,0.0,68.0
2352,81.0,33,32,0.0,63.0
2353,54.0,21,25,0.0,50.0
2354,76.0,11,30,0.0,57.0
2355,51.0,19,32,0.0,42.0
2356,75.0,19,56,0.0,67.0
2357,73.0,8,30,0.0,52.0
2358,44.0,35,72,0.0,65.0
2359,78.0,14,63,0.0,69.0
2360,72.0,8,30,0.0,52.0
2361,51.0,49,39,0.0,55.0
2362,75.0,35,27,0.0,61.0
2363,54.0,4,27,0.0,52.0
2364,69.0,43,61,0.0,57.0
2365,60.0,15,48,0.0,40.0
2366,68.0,37,37,0.0,53.0
2367,54.0,25,60,0.0,50.0
2368,71.0,8,67,0.0,58.0
2369,51.0,47,38,0.0,36.0
2370,69.0,4,113,0.0,54.0
2371,68.0,31,28,0.0,51.0
2372,49.0,85,71,0.0,47.0
2373,56.0,6,49,0.0,42.0
2374,69.0,31,60,0.0,53.0
2375,68.0,46,29,0.0,37.0
2376,61.0,16,36,0.0,44.0
2377,67.0,21,51,0.0,50.0
2378,64.0,4,42,0.0,30.0
2379,68.0,38,59,0.0,43.0
2380,61.0,29,35,0.0,31.0
2381,73.0,12,27,0.0,41.0
2382,56.0,24,35,0.0,41.0
2383,76.0,19,39,0.0,32.0
2384,75.0,38,29,0.0,68.0
2385,73.0,28,51,0.0,56.0
2386,56.0,40,43,0.0,43.0
2387,52.0,0,111,0.0,63.0
2388,75.0,5,67,0.0,54.0
2389,61.0,37,33,0.0,47.0
2390,73.0,7,30,0.0,50.0
2391,72.0,39,49,0.0,55.0
2392,64.0,19,60,0.0,44.0
2393,73.0,10,68,0.0,42.0
2394,61.0,43,32,0.0,41.0
2395,76.0,4,33,0.0,33.0
2396,56.0,21,32,0.0,35.0
2397,80.0,8,25,0.0,68.0
2398,76.0,57,25,0.0,47.0
2399,75.0,14,32,0.0,65.0
2400,54.0,10,84,0.0,66.0
2401,76.0,37,54,0.0,62.0
2402,61.0,8,50,0.0,54.0
2403,75.0,35,28,0.0,53.0
2404,63.0,6,25,0.0,55.0
2405,74.0,36,53,0.0,65.0
2406,69.0,15,65,0.0,43.0
2407,75.0,24,57,0.0,60.0
2408,63.0,37,27,0.0,47.0
2409,78.0,4,32,0.0,69.0
2410,61.0,15,30,0.0,58.0
2411,81.0,24,59,0.0,71.0
2412,78.0,9,49,0.0,79.0
2413,77.0,50,22,0.0,63.0
2414,56.0,35,87,0.0,61.0
2415,61.0,3,45,0.0,54.0
2416,78.0,25,64,0.0,72.0
2417,65.0,25,48,0.0,52.0
2418,77.0,8,47,0.0,50.0
2419,76.0,44,35,0.0,60.0
2420,71.0,8,60,0.0,72.0
2421,77.0,25,52,0.0,69.0
2422,65.0,25,62,0.0,32.0
2423,85.0,1,22,0.0,75.0
2424,80.0,8,61,0.0,77.0
2425,61.0,36,51,0.0,66.0
2426,73.0,33,25,0.0,68.0
2427,74.0,29,34,0.0,72.0
2428,57.0,70,127,0.0,76.0
2429,73.0,36,31,0.0,39.0
2430,61.0,0,73,0.0,59.0
2431,66.0,5,42,0.0,52.0
2432,72.0,30,54,0.0,72.0
2433,73.0,17,52,0.0,64.0
2434,69.0,23,80,0.0,47.0
2435,66.0,27,67,0.0,44.0
2436,78.0,8,60,0.0,71.0
2437,61.0,26,44,0.0,65.0
2438,81.0,16,75,0.0,78.0
2439,78.0,52,33,0.0,62.0
2440,77.0,28,30,0.0,70.0
2441,56.0,6,96,0.0,71.0
2442,61.0,20,72,0.0,58.0
2443,78.0,23,54,0.0,69.0
2444,65.0,20,56,0.0,59.0
2445,77.0,16,41,0.0,64.0
2446,71.0,37,66,0.0,78.0
2447,76.0,3,80,0.0,64.0
2448,77.0,34,64,0.0,79.0
2449,65.0,9,57,0.0,38.0
2450,80.0,37,30,0.0,64.0
2451,61.0,4,38,0.0,67.0
2452,85.0,32,26,0.0,67.0
2453,80.0,9,32,0.0,69.0
2454,78.0,25,24,0.0,72.0
2455,57.0,37,115,0.0,71.0
2456,61.0,23,79,0.0,60.0
2457,78.0,11,26,0.0,55.0
2458,80.0,18,69,0.0,74.0
2459,66.0,29,56,0.0,60.0
2460,77.0,25,60,0.0,81.0
2461,69.0,16,66,0.0,54.0
2462,66.0,24,33,0.0,50.0
2463,61.0,6,21,0.0,68.0
2464,78.0,19,74,0.0,71.0
2465,81.0,22,54,0.0,75.0
2466,85.0,32,49,0.0,81.0
2467,81.0,51,48,0.0,71.0
2468,80.0,32,31,0.0,79.0
2469,48.0,9,69,0.0,84.0
2470,81.0,15,37,0.0,52.0
2471,54.0,28,61,0.0,66.0
2472,56.0,25,27,0.0,60.0
2473,80.0,0,51,0.0,66.0
2474,79.0,41,56,0.0,86.0
2475,63.0,10,64,0.0,70.0
2476,80.0,27,66,0.0,86.0
2477,56.0,23,64,0.0,64.0
2478,54.0,34,29,0.0,66.0
2479,84.0,10,64,0.0,72.0
2480,87.0,14,52,0.0,82.0
2481,80.0,13,32,0.0,85.0
2482,49.0,42,87,0.0,75.0
2483,81.0,31,61,0.0,80.0
2484,80.0,25,35,0.0,65.0
2485,56.0,21,76,0.0,65.0
2486,79.0,32,50,0.0,85.0
2487,61.0,7,47,0.0,66.0
2488,80.0,44,38,0.0,72.0
2489,64.0,20,67,0.0,62.0
2490,88.0,14,76,0.0,74.0
2491,61.0,35,53,0.0,63.0
2492,56.0,36,33,0.0,55.0
2493,87.0,4,72,0.0,76.0
2494,86.0,3,66,0.0,68.0
2495,85.0,31,39,0.0,3.0
2496,51.0,15,72,0.0,86.0
2497,84.0,17,60,0.0,85.0
2498,83.0,3,60,0.0,104.0
2499,56.0,36,71,0.0,69.0
2500,82.0,1,50,0.0,78.0
2501,60.0,35,54,0.0,60.0
2502,81.0,38,33,0.0,73.0
2503,66.0,18,52,0.0,66.0
2504,80.0,28,49,0.0,81.0
2505,79.0,21,32,0.0,80.0
2506,60.0,13,63,0.0,55.0
2507,78.0,26,36,0.0,76.0
2508,56.0,23,62,0.0,65.0
2509,76.0,40,33,0.0,71.0
2510,52.0,12,78,0.0,100.0
2511,78.0,22,76,0.0,72.0
2512,76.0,4,60,0.0,67.0
2513,56.0,33,103,0.0,78.0
2514,75.0,46,54,0.0,81.0
2515,61.0,3,55,0.0,69.0
2516,76.0,44,37,0.0,72.0
2517,68.0,12,64,0.0,73.0
2518,88.0,37,68,0.0,96.0
2519,61.0,13,64,0.0,61.0
2520,56.0,4,58,0.0,64.0
2521,87.0,22,86,0.0,78.0
2522,86.0,25,77,0.0,85.0
2523,85.0,23,41,0.0,66.0
2524,54.0,28,89,0.0,94.0
2525,84.0,31,39,0.0,82.0
2526,61.0,1,83,0.0,82.0
2527,63.0,16,56,0.0,78.0
2528,83.0,27,74,0.0,105.0
2529,82.0,37,34,0.0,76.0
2530,81.0,19,22,0.0,72.0
2531,69.0,11,92,0.0,65.0
2532,80.0,35,55,0.0,87.0
2533,63.0,6,65,0.0,62.0
2534,79.0,13,50,0.0,97.0
2535,61.0,20,66,0.0,58.0
2536,78.0,44,72,0.0,84.0
2537,80.0,3,42,0.0,103.0
2538,61.0,0,124,0.0,75.0
2539,64.0,3,144,0.0,87.0
2540,68.0,32,173,0.0,100.0
2541,56.0,0,189,0.0,88.0
2542,92.0,157,66,0.0,101.0
2543,91.0,53,60,0.0,94.0
2544,90.0,50,83,0.0,92.0
2545,89.0,51,55,0.0,85.0
2546,88.0,41,60,0.0,83.0
2547,55.0,24,38,0.0,74.0
2548,61.0,7,66,0.0,67.0
2549,64.0,21,48,0.0,88.0
2550,87.0,18,94,0.0,88.0
2551,69.0,4,45,0.0,104.0
2552,86.0,18,77,0.0,88.0
2553,85.0,40,48,0.0,83.0
2554,84.0,39,60,0.0,84.0
2555,83.0,34,74,0.0,107.0
2556,82.0,47,53,0.0,75.0
2557,81.0,31,60,0.0,83.0
2558,80.0,41,85,0.0,87.0
2559,79.0,36,74,0.0,81.0
2560,78.0,46,56,0.0,86.0
2561,77.0,38,62,0.0,69.0
2562,76.0,31,75,0.0,81.0
2563,75.0,46,47,0.0,84.0
2564,74.0,32,24,0.0,81.0
2565,73.0,36,80,0.0,73.0
2566,72.0,43,50,0.0,83.0
2567,71.0,32,56,0.0,89.0
2568,70.0,42,84,0.0,85.0
2569,69.0,34,64,0.0,68.0
2570,68.0,37,28,0.0,75.0
2571,67.0,28,27,0.0,76.0
2572,66.0,46,50,0.0,83.0
2573,64.0,47,22,0.0,85.0
2574,63.0,36,54,0.0,83.0
2575,61.0,48,19,0.0,82.0
2576,32.0,0,19,0.0,100.0
2577,56.0,3,42,0.0,111.0
2578,44.0,56,45,0.0,116.0
2579,93.0,265,77,0.0,104.0
2580,92.0,55,58,0.0,88.0
2581,76.0,0,144,0.0,104.0
2582,100.0,61,36,0.0,94.0
2583,64.0,3,169,0.0,104.0
2584,88.0,47,26,0.0,79.0
2585,90.0,56,72,0.0,88.0
2586,88.0,42,47,0.0,66.0
2587,73.0,0,93,0.0,103.0
2588,97.0,44,48,0.0,74.0
2589,61.0,3,144,0.0,99.0
2590,85.0,36,37,0.0,78.0
2591,87.0,1,57,0.0,81.0
2592,68.0,59,95,0.0,93.0
2593,85.0,44,58,0.0,73.0
2594,92.0,43,19,0.0,71.0
2595,56.0,1,124,0.0,95.0
2596,80.0,26,26,0.0,79.0
2597,81.0,58,44,0.0,98.0
2598,64.0,5,81,0.0,105.0
2599,80.0,32,59,0.0,84.0
2600,88.0,57,17,0.0,86.0
2601,52.0,0,110,0.0,106.0
2602,76.0,29,23,0.0,81.0
2603,78.0,0,53,0.0,81.0
2604,61.0,41,78,0.0,100.0
2605,76.0,33,62,0.0,65.0
2606,49.0,5,104,0.0,92.0
2607,85.0,41,36,0.0,75.0
2608,73.0,27,48,0.0,82.0
2609,75.0,6,52,0.0,84.0
2610,56.0,47,80,0.0,92.0
2611,80.0,42,18,0.0,72.0
2612,73.0,36,63,0.0,57.0
2613,44.0,2,105,0.0,100.0
2614,68.0,19,21,0.0,76.0
2615,69.0,4,54,0.0,78.0
2616,52.0,1,75,0.0,109.0
2617,68.0,35,49,0.0,78.0
2618,76.0,49,17,0.0,83.0
2619,40.0,52,106,0.0,109.0
2620,64.0,30,22,0.0,83.0
2621,66.0,3,37,0.0,71.0
2622,49.0,34,72,0.0,100.0
2623,64.0,29,51,0.0,75.0
2624,37.0,6,92,0.0,99.0
2625,73.0,41,20,0.0,70.0
2626,61.0,24,35,0.0,82.0
2627,63.0,1,72,0.0,90.0
2628,44.0,48,94,0.0,101.0
2629,61.0,41,56,0.0,68.0
2630,32.0,2,109,0.0,93.0
2631,68.0,36,60,0.0,78.0
2632,56.0,37,66,0.0,87.0
2633,63.0,43,78,0.0,79.0
2634,44.0,0,84,0.0,94.0
2635,32.0,0,92,0.0,73.0
2636,61.0,37,77,0.0,79.0
2637,56.0,27,45,0.0,86.0
2638,68.0,46,74,0.0,77.0
2639,45.0,0,89,0.0,94.0
2640,63.0,47,103,0.0,81.0
2641,61.0,43,71,0.0,81.0
2642,33.0,2,124,0.0,98.0
2643,69.0,43,59,0.0,76.0
2644,57.0,37,84,0.0,85.0
2645,44.0,38,99,0.0,99.0
2646,63.0,8,111,0.0,83.0
2647,32.0,1,127,0.0,88.0
2648,61.0,37,83,0.0,84.0
2649,56.0,30,66,0.0,89.0
2650,68.0,46,108,0.0,83.0
2651,43.0,0,97,0.0,95.0
2652,63.0,8,109,0.0,68.0
2653,31.0,44,120,0.0,97.0
2654,61.0,49,86,0.0,81.0
2655,55.0,40,66,0.0,90.0
2656,67.0,49,125,0.0,83.0
2657,63.0,3,142,0.0,88.0
2658,61.0,56,92,0.0,78.0
2659,68.0,48,133,0.0,79.0
2660,44.0,55,253,0.0,104.0
2661,56.0,38,139,0.0,85.0
2662,32.0,2,320,0.0,90.0
2663,63.0,62,138,0.0,74.0
2664,60.0,56,106,0.0,80.0
2665,68.0,49,171,0.0,72.0
2666,25.0,23,151,0.0,100.0
2667,56.0,51,203,0.0,83.0
2668,37.0,45,76,0.0,103.0
2669,63.0,62,188,0.0,80.0
2670,61.0,27,121,0.0,72.0
2671,56.0,57,23,0.0,83.0
2672,68.0,82,90,0.0,69.0
2673,69.0,106,57,0.0,79.0
2674,49.0,5,104,0.0,61.0
2675,68.0,46,62,0.0,77.0
2676,52.0,6,233,0.0,85.0
2677,44.0,3,56,0.0,65.0
2678,76.0,57,175,0.0,94.0
2679,37.0,2,74,0.0,86.0
2680,64.0,41,142,0.0,78.0
2681,70.0,26,117,0.0,19.0
2682,69.0,39,94,0.0,41.0
2683,68.0,58,77,0.0,66.0
2684,76.0,55,68,0.0,80.0
2685,54.0,1,81,0.0,84.0
2686,64.0,31,59,0.0,81.0
2687,69.0,62,82,0.0,61.0
2688,48.0,7,76,0.0,64.0
2689,68.0,30,61,0.0,78.0
2690,44.0,5,23,0.0,65.0
2691,75.0,48,117,0.0,83.0
2692,37.0,55,61,0.0,83.0
2693,63.0,19,121,0.0,83.0
2694,69.0,1,87,0.0,54.0
2695,68.0,43,58,0.0,60.0
2696,75.0,33,79,0.0,70.0
2697,52.0,16,79,0.0,79.0
2698,63.0,24,63,0.0,69.0
2699,69.0,51,65,0.0,48.0
2700,49.0,16,79,0.0,66.0
2701,68.0,24,57,0.0,65.0
2702,44.0,10,24,0.0,70.0
2703,73.0,38,42,0.0,73.0
2704,61.0,23,45,0.0,81.0
2705,37.0,8,58,0.0,78.0
2706,64.0,56,80,0.0,78.0
2707,63.0,28,77,0.0,50.0
2708,54.0,28,71,0.0,82.0
2709,68.0,42,107,0.0,72.0
2710,56.0,35,71,0.0,75.0
2711,64.0,30,75,0.0,72.0
2712,48.0,20,95,0.0,62.0
2713,63.0,24,76,0.0,79.0
2714,44.0,6,36,0.0,72.0
2715,68.0,50,117,0.0,73.0
2716,56.0,39,88,0.0,78.0
2717,37.0,12,77,0.0,79.0
2718,63.0,46,136,0.0,58.0
2719,61.0,38,91,0.0,71.0
2720,56.0,12,21,0.0,79.0
2721,68.0,59,53,0.0,68.0
2722,52.0,12,74,0.0,92.0
2723,69.0,95,52,0.0,81.0
2724,49.0,8,71,0.0,71.0
2725,68.0,31,51,0.0,81.0
2726,44.0,5,58,0.0,71.0
2727,76.0,66,176,0.0,98.0
2728,64.0,44,137,0.0,68.0
2729,37.0,30,63,0.0,74.0
2730,69.0,62,106,0.0,41.0
2731,68.0,40,87,0.0,64.0
2732,76.0,79,66,0.0,89.0
2733,54.0,3,77,0.0,75.0
2734,64.0,39,64,0.0,57.0
2735,69.0,64,62,0.0,54.0
2736,48.0,17,63,0.0,45.0
2737,68.0,23,50,0.0,70.0
2738,44.0,14,32,0.0,55.0
2739,75.0,51,72,0.0,84.0
2740,63.0,15,134,0.0,64.0
2741,69.0,58,93,0.0,49.0
2742,37.0,19,75,0.0,71.0
2743,68.0,30,67,0.0,64.0
2744,52.0,17,61,0.0,75.0
2745,75.0,48,86,0.0,83.0
2746,63.0,31,55,0.0,59.0
2747,49.0,21,42,0.0,59.0
2748,69.0,42,82,0.0,37.0
2749,68.0,29,54,0.0,61.0
2750,73.0,36,29,0.0,62.0
2751,44.0,3,29,0.0,61.0
2752,61.0,30,35,0.0,75.0
2753,37.0,10,64,0.0,76.0
2754,64.0,54,77,0.0,75.0
2755,63.0,37,51,0.0,58.0
2756,68.0,31,81,0.0,70.0
2757,56.0,28,62,0.0,73.0
2758,54.0,6,62,0.0,76.0
2759,64.0,60,69,0.0,67.0
2760,48.0,21,62,0.0,53.0
2761,63.0,20,61,0.0,70.0
2762,44.0,18,25,0.0,58.0
2763,68.0,34,74,0.0,69.0
2764,56.0,20,63,0.0,68.0
2765,37.0,16,51,0.0,72.0
2766,63.0,49,109,0.0,52.0
2767,61.0,28,73,0.0,61.0
2768,68.0,53,35,0.0,63.0
2769,56.0,21,20,0.0,68.0
2770,52.0,1,95,0.0,78.0
2771,69.0,90,53,0.0,75.0
2772,49.0,11,66,0.0,57.0
2773,68.0,31,38,0.0,70.0
2774,76.0,54,18,0.0,89.0
2775,44.0,0,28,0.0,60.0
2776,64.0,38,24,0.0,72.0
2777,37.0,5,28,0.0,60.0
2778,66.0,43,61,0.0,72.0
2779,64.0,42,25,0.0,60.0
2780,61.0,7,27,0.0,65.0
2781,73.0,37,56,0.0,74.0
2782,52.0,18,77,0.0,74.0
2783,69.0,50,61,0.0,47.0
2784,68.0,15,30,0.0,66.0
2785,49.0,30,63,0.0,63.0
2786,76.0,52,19,0.0,85.0
2787,44.0,17,32,0.0,61.0
2788,64.0,23,20,0.0,75.0
2789,37.0,12,31,0.0,59.0
2790,63.0,59,76,0.0,83.0
2791,61.0,33,38,0.0,71.0
2792,56.0,20,24,0.0,72.0
2793,68.0,43,63,0.0,75.0
2794,52.0,15,77,0.0,70.0
2795,69.0,0,35,0.0,70.0
2796,68.0,39,25,0.0,59.0
2797,49.0,88,64,0.0,67.0
2798,76.0,51,24,0.0,92.0
2799,44.0,2,43,0.0,62.0
2800,64.0,34,25,0.0,74.0
2801,37.0,9,24,0.0,59.0
2802,66.0,52,58,0.0,69.0
2803,64.0,45,25,0.0,49.0
2804,61.0,10,33,0.0,50.0
2805,73.0,28,59,0.0,73.0
2806,52.0,11,71,0.0,74.0
2807,69.0,51,51,0.0,43.0
2808,68.0,20,23,0.0,62.0
2809,49.0,25,63,0.0,67.0
2810,76.0,52,21,0.0,89.0
2811,44.0,9,28,0.0,67.0
2812,64.0,34,23,0.0,56.0
2813,37.0,14,30,0.0,62.0
2814,66.0,45,68,0.0,76.0
2815,64.0,24,48,0.0,61.0
2816,52.0,7,39,0.0,65.0
2817,73.0,56,46,0.0,70.0
2818,61.0,14,31,0.0,49.0
2819,49.0,28,46,0.0,56.0
2820,68.0,30,28,0.0,52.0
2821,69.0,50,91,0.0,50.0
2822,73.0,25,47,0.0,67.0
2823,44.0,32,28,0.0,50.0
2824,61.0,15,36,0.0,59.0
2825,37.0,18,26,0.0,56.0
2826,64.0,21,24,0.0,71.0
2827,66.0,48,63,0.0,57.0
2828,73.0,67,44,0.0,64.0
2829,52.0,8,44,0.0,56.0
2830,61.0,21,30,0.0,54.0
2831,49.0,11,43,0.0,60.0
2832,69.0,59,72,0.0,63.0
2833,68.0,59,34,0.0,40.0
2834,44.0,0,30,0.0,48.0
2835,73.0,35,32,0.0,61.0
2836,61.0,44,44,0.0,47.0
2837,37.0,0,32,0.0,50.0
2838,66.0,50,60,0.0,48.0
2839,64.0,52,25,0.0,45.0
2840,73.0,55,62,0.0,67.0
2841,52.0,0,85,0.0,48.0
2842,61.0,45,47,0.0,38.0
2843,49.0,5,39,0.0,53.0
2844,69.0,51,70,0.0,45.0
2845,68.0,50,31,0.0,45.0
2846,73.0,39,31,0.0,58.0
2847,44.0,5,27,0.0,44.0
2848,61.0,35,42,0.0,52.0
2849,37.0,8,28,0.0,46.0
2850,66.0,47,62,0.0,43.0
2851,64.0,41,24,0.0,55.0
2852,73.0,61,45,0.0,59.0
2853,61.0,28,51,0.0,46.0
2854,52.0,6,98,0.0,44.0
2855,69.0,62,71,0.0,41.0
2856,68.0,39,48,0.0,44.0
2857,49.0,13,90,0.0,50.0
2858,73.0,57,50,0.0,42.0
2859,61.0,39,47,0.0,49.0
2860,44.0,10,151,0.0,42.0
2861,63.0,108,43,0.0,32.0
2862,61.0,39,50,0.0,35.0
2863,68.0,50,118,0.0,41.0
2864,56.0,47,98,0.0,46.0
2865,63.0,60,83,0.0,55.0
2866,61.0,47,43,0.0,54.0
2867,68.0,50,73,0.0,49.0
2868,56.0,45,57,0.0,46.0
2869,63.0,54,44,0.0,47.0
2870,61.0,39,40,0.0,49.0
2871,68.0,47,55,0.0,48.0
2872,37.0,19,548,0.0,32.0
2873,56.0,37,69,0.0,50.0
2874,63.0,59,61,0.0,48.0
2875,61.0,45,42,0.0,47.0
2876,68.0,45,56,0.0,41.0
2877,56.0,34,68,0.0,48.0
2878,63.0,62,36,0.0,42.0
2879,61.0,40,38,0.0,40.0
2880,68.0,44,84,0.0,38.0
2881,56.0,37,60,0.0,40.0
2882,63.0,59,36,0.0,38.0
2883,61.0,45,38,0.0,38.0
2884,68.0,37,68,0.0,30.0
2885,56.0,41,65,0.0,43.0
2886,63.0,69,35,0.0,34.0
2887,61.0,41,38,0.0,34.0
2888,68.0,43,63,0.0,33.0
2889,56.0,33,53,0.0,39.0
2890,63.0,65,37,0.0,37.0
2891,61.0,51,39,0.0,27.0
2892,68.0,39,91,0.0,35.0
2893,56.0,39,94,0.0,41.0
2894,63.0,13,39,0.0,30.0
2895,61.0,66,44,0.0,13.0
2896,68.0,29,114,0.0,40.0
2897,63.0,81,43,0.0,33.0
2898,56.0,43,136,0.0,36.0
2899,61.0,53,50,0.0,26.0
2900,68.0,41,61,0.0,33.0
2901,56.0,45,56,0.0,40.0
2902,63.0,67,39,0.0,39.0
2903,61.0,51,38,0.0,32.0
2904,68.0,41,95,0.0,36.0
2905,56.0,40,75,0.0,41.0
2906,63.0,65,49,0.0,37.0
2907,61.0,53,40,0.0,35.0
2908,68.0,51,59,0.0,40.0
2909,37.0,69,807,0.0,84.0
2910,56.0,39,75,0.0,49.0
2911,44.0,2,877,0.0,88.0
2912,63.0,11,58,0.0,52.0
2913,61.0,47,77,0.0,40.0
2914,68.0,66,84,0.0,45.0
2915,56.0,71,77,0.0,42.0
2916,46.0,53,314,0.0,84.0
2917,63.0,78,94,0.0,48.0
2918,61.0,57,51,0.0,39.0
2919,68.0,57,115,0.0,40.0
2920,56.0,49,79,0.0,46.0
2921,44.0,5,264,0.0,91.0
2922,63.0,12,90,0.0,49.0
2923,61.0,67,43,0.0,38.0
2924,68.0,40,91,0.0,43.0
2925,56.0,47,73,0.0,46.0
2926,49.0,58,259,0.0,83.0
2927,63.0,9,65,0.0,47.0
2928,61.0,59,58,0.0,36.0
2929,68.0,51,134,0.0,42.0
2930,56.0,53,83,0.0,44.0
2931,51.0,51,305,0.0,84.0
2932,63.0,90,68,0.0,48.0
2933,61.0,54,63,0.0,38.0
2934,68.0,55,114,0.0,41.0
2935,56.0,54,89,0.0,37.0
2936,63.0,75,37,0.0,31.0
2937,61.0,45,40,0.0,37.0
2938,68.0,47,54,0.0,38.0
2939,56.0,47,51,0.0,43.0
2940,63.0,70,38,0.0,36.0
2941,61.0,56,39,0.0,30.0
2942,56.0,46,40,0.0,35.0
2943,68.0,54,90,0.0,32.0
2944,63.0,79,37,0.0,31.0
2945,61.0,52,45,0.0,34.0
2946,68.0,56,74,0.0,32.0
2947,56.0,60,34,0.0,37.0
2948,53.0,10,1023,0.0,100.0
2949,63.0,117,182,0.0,40.0
2950,61.0,103,59,0.0,37.0
2951,56.0,45,205,0.0,80.0
2952,68.0,69,101,0.0,30.0
2953,56.0,71,105,0.0,40.0
2954,63.0,70,50,0.0,35.0
2955,61.0,63,43,0.0,20.0
2956,68.0,39,43,0.0,38.0
2957,56.0,45,45,0.0,38.0
2958,63.0,70,35,0.0,33.0
2959,61.0,49,41,0.0,32.0
2960,68.0,58,51,0.0,33.0
2961,56.0,43,51,0.0,38.0
2962,63.0,71,35,0.0,28.0
2963,61.0,43,49,0.0,36.0
2964,68.0,69,55,0.0,28.0
2965,56.0,59,165,0.0,28.0
2966,63.0,155,72,0.0,24.0
2967,61.0,57,97,0.0,32.0
2968,68.0,96,97,0.0,34.0
2969,56.0,60,74,0.0,38.0
2970,63.0,75,43,0.0,34.0
2971,61.0,51,47,0.0,35.0
2972,68.0,65,53,0.0,29.0
2973,56.0,46,107,0.0,36.0
2974,54.0,37,561,0.0,81.0
2975,63.0,100,54,0.0,38.0
2976,61.0,61,47,0.0,23.0
2977,68.0,54,119,0.0,36.0
2978,56.0,48,84,0.0,40.0
2979,63.0,69,41,0.0,39.0
2980,61.0,45,45,0.0,41.0
2981,68.0,60,76,0.0,37.0
2982,53.0,14,454,0.0,81.0
2983,56.0,44,74,0.0,44.0
2984,63.0,14,46,0.0,42.0
2985,61.0,54,71,0.0,36.0
2986,68.0,57,58,0.0,36.0
2987,56.0,47,64,0.0,42.0
2988,63.0,78,39,0.0,33.0
2989,61.0,58,53,0.0,32.0
2990,68.0,54,60,0.0,35.0
2991,56.0,60,105,0.0,38.0
2992,51.0,58,574,0.0,65.0
2993,63.0,98,83,0.0,36.0
2994,61.0,77,85,0.0,28.0
2995,68.0,64,97,0.0,32.0
2996,56.0,40,84,0.0,43.0
2997,53.0,11,298,0.0,74.0
2998,63.0,7,52,0.0,42.0
2999,61.0,61,87,0.0,32.0
3000,68.0,69,181,0.0,38.0
3001,56.0,79,119,0.0,28.0
3002,49.0,61,387,0.0,56.0
3003,63.0,115,124,0.0,35.0
3004,61.0,95,47,0.0,31.0
3005,68.0,67,30,0.0,33.0
3006,53.0,79,33,0.0,61.0
3007,63.0,69,51,0.0,44.0
3008,61.0,64,43,0.0,51.0
3009,68.0,63,28,0.0,40.0
3010,63.0,127,36,0.0,43.0
3011,61.0,63,32,0.0,42.0
3012,68.0,64,28,0.0,50.0
3013,53.0,86,32,0.0,40.0
3014,63.0,69,34,0.0,27.0
3015,61.0,59,50,0.0,36.0
3016,68.0,71,31,0.0,40.0
3017,53.0,97,30,0.0,45.0
3018,65.0,5,107,0.0,40.0
3019,63.0,104,78,0.0,46.0
3020,68.0,79,38,0.0,57.0
3021,54.0,74,36,0.0,57.0
3022,65.0,79,74,0.0,46.0
3023,63.0,79,29,0.0,50.0
3024,68.0,72,52,0.0,52.0
3025,54.0,84,34,0.0,46.0
3026,65.0,95,93,0.0,33.0
3027,63.0,108,57,0.0,26.0
3028,68.0,91,42,0.0,33.0
3029,54.0,103,36,0.0,36.0
3030,65.0,126,132,0.0,28.0
3031,63.0,149,167,0.0,32.0
3032,68.0,166,146,0.0,30.0
3033,44.0,16,2855,0.0,62.0
3034,32.0,83,2010,0.0,38.0
3035,54.0,263,362,0.0,26.0
3036,56.0,98,343,0.0,50.0
3037,37.0,213,1898,0.0,39.0
3038,44.0,125,2106,0.0,52.0
3039,56.0,161,1566,0.0,2.0
3040,54.0,104,2176,0.0,61.0
3041,60.0,116,2131,0.0,56.0
3042,63.0,225,3093,0.0,62.0
3043,53.0,188,2548,0.0,44.0
3044,49.0,147,2809,0.0,24.0
3045,44.0,185,3020,0.0,29.0
3046,56.0,252,2433,0.0,32.0
3047,61.0,607,1832,0.0,31.0
3048,37.0,1429,3257,0.0,24.0
