,note,step,duration,channel,velocity
0,49.0,0,51,0.0,62.0
1,51.0,48,40,0.0,68.0
2,49.0,38,35,0.0,68.0
3,48.0,38,44,0.0,79.0
4,49.0,37,35,0.0,82.0
5,58.0,42,44,0.0,75.0
6,56.0,40,40,0.0,73.0
7,54.0,38,34,0.0,76.0
8,53.0,39,41,0.0,82.0
9,63.0,43,37,0.0,78.0
10,61.0,40,36,0.0,72.0
11,60.0,37,41,0.0,78.0
12,59.0,43,35,0.0,82.0
13,61.0,38,36,0.0,77.0
14,59.0,39,43,0.0,76.0
15,58.0,43,34,0.0,79.0
16,59.0,39,35,0.0,72.0
17,70.0,47,44,0.0,74.0
18,68.0,44,42,0.0,75.0
19,66.0,43,40,0.0,73.0
20,65.0,46,52,0.0,70.0
21,75.0,49,52,0.0,70.0
22,73.0,52,54,0.0,69.0
23,69.0,60,73,0.0,50.0
24,30.0,5,35,0.0,46.0
25,70.0,74,50,0.0,66.0
26,71.0,51,33,0.0,65.0
27,72.0,42,44,0.0,85.0
28,66.0,0,29,0.0,50.0
29,75.0,44,29,0.0,82.0
30,58.0,39,25,0.0,46.0
31,73.0,3,28,0.0,86.0
32,82.0,36,34,0.0,84.0
33,49.0,4,34,0.0,43.0
34,83.0,41,25,0.0,86.0
35,54.0,5,41,0.0,48.0
36,66.0,7,26,0.0,58.0
37,82.0,37,35,0.0,79.0
38,77.0,32,27,0.0,92.0
39,58.0,8,25,0.0,46.0
40,66.0,3,19,0.0,43.0
41,78.0,34,28,0.0,88.0
42,58.0,0,26,0.0,46.0
43,75.0,35,29,0.0,89.0
44,78.0,40,44,0.0,95.0
45,49.0,6,54,0.0,47.0
46,77.0,48,42,0.0,88.0
47,56.0,8,40,0.0,52.0
48,68.0,43,24,0.0,62.0
49,65.0,5,23,0.0,57.0
50,71.0,36,24,0.0,70.0
51,59.0,13,17,0.0,36.0
52,65.0,2,15,0.0,58.0
53,73.0,25,35,0.0,77.0
54,59.0,33,19,0.0,50.0
55,77.0,4,26,0.0,89.0
56,75.0,1,23,0.0,85.0
57,49.0,36,35,0.0,49.0
58,77.0,29,24,0.0,79.0
59,75.0,16,32,0.0,81.0
60,56.0,5,44,0.0,43.0
61,74.0,31,25,0.0,88.0
62,65.0,11,17,0.0,44.0
63,68.0,28,32,0.0,69.0
64,59.0,11,25,0.0,45.0
65,65.0,6,13,0.0,44.0
66,70.0,31,24,0.0,81.0
67,59.0,31,24,0.0,62.0
68,73.0,3,28,0.0,79.0
69,72.0,41,30,0.0,88.0
70,50.0,3,40,0.0,62.0
71,51.0,6,37,0.0,58.0
72,71.0,45,45,0.0,77.0
73,63.0,8,22,0.0,58.0
74,66.0,41,31,0.0,72.0
75,54.0,7,21,0.0,61.0
76,68.0,34,30,0.0,81.0
77,63.0,3,20,0.0,52.0
78,69.0,31,34,0.0,88.0
79,70.0,35,33,0.0,88.0
80,54.0,2,35,0.0,47.0
81,78.0,42,32,0.0,89.0
82,46.0,3,35,0.0,49.0
83,51.0,1,29,0.0,61.0
84,77.0,40,35,0.0,95.0
85,63.0,0,28,0.0,61.0
86,76.0,40,32,0.0,96.0
87,54.0,5,26,0.0,52.0
88,75.0,36,35,0.0,92.0
89,63.0,1,20,0.0,59.0
90,74.0,36,25,0.0,76.0
91,75.0,1,27,0.0,82.0
92,54.0,36,29,0.0,46.0
93,71.0,40,19,0.0,78.0
94,46.0,6,36,0.0,49.0
95,73.0,22,26,0.0,66.0
96,71.0,16,33,0.0,87.0
97,53.0,2,35,0.0,64.0
98,62.0,2,15,0.0,52.0
99,65.0,41,30,0.0,73.0
100,68.0,40,23,0.0,82.0
101,56.0,2,27,0.0,48.0
102,62.0,2,19,0.0,45.0
103,70.0,37,35,0.0,74.0
104,73.0,4,27,0.0,78.0
105,56.0,33,31,0.0,57.0
106,72.0,1,29,0.0,84.0
107,46.0,43,34,0.0,47.0
108,71.0,44,42,0.0,73.0
109,62.0,2,20,0.0,39.0
110,65.0,43,29,0.0,69.0
111,53.0,4,80,0.0,48.0
112,69.0,2,27,0.0,75.0
113,56.0,41,38,0.0,51.0
114,62.0,4,20,0.0,47.0
115,70.0,42,31,0.0,70.0
116,71.0,0,31,0.0,75.0
117,56.0,39,35,0.0,49.0
118,68.0,47,23,0.0,72.0
119,46.0,4,66,0.0,41.0
120,51.0,8,37,0.0,51.0
121,63.0,44,37,0.0,64.0
122,51.0,39,29,0.0,43.0
123,61.0,6,37,0.0,59.0
124,58.0,43,19,0.0,42.0
125,66.0,63,170,0.0,78.0
126,44.0,10,31,0.0,52.0
127,56.0,0,29,0.0,50.0
128,60.0,1,76,0.0,75.0
129,65.0,35,36,0.0,84.0
130,51.0,41,18,0.0,68.0
131,66.0,2,28,0.0,89.0
132,54.0,4,41,0.0,49.0
133,70.0,53,63,0.0,89.0
134,53.0,6,25,0.0,54.0
135,68.0,44,33,0.0,81.0
136,54.0,4,29,0.0,52.0
137,63.0,37,35,0.0,79.0
138,61.0,43,36,0.0,74.0
139,59.0,1,191,0.0,69.0
140,65.0,37,20,0.0,69.0
141,56.0,3,68,0.0,36.0
142,49.0,0,207,0.0,53.0
143,63.0,12,30,0.0,78.0
144,61.0,43,22,0.0,70.0
145,58.0,34,35,0.0,66.0
146,42.0,25,18,0.0,51.0
147,54.0,6,8,0.0,46.0
148,58.0,0,8,0.0,49.0
149,61.0,46,15,0.0,74.0
150,62.0,38,14,0.0,79.0
151,58.0,0,20,0.0,51.0
152,54.0,0,26,0.0,56.0
153,63.0,40,21,0.0,84.0
154,70.0,8,156,0.0,89.0
155,54.0,2,32,0.0,41.0
156,58.0,2,30,0.0,62.0
157,69.0,40,29,0.0,99.0
158,70.0,45,50,0.0,100.0
159,41.0,55,22,0.0,64.0
160,73.0,5,33,0.0,94.0
161,63.0,3,16,0.0,55.0
162,53.0,0,9,0.0,52.0
163,57.0,10,9,0.0,50.0
164,72.0,48,31,0.0,88.0
165,63.0,1,11,0.0,45.0
166,58.0,4,17,0.0,48.0
167,53.0,0,19,0.0,38.0
168,66.0,30,32,0.0,83.0
169,65.0,39,39,0.0,86.0
170,68.0,24,20,0.0,60.0
171,60.0,7,53,0.0,60.0
172,63.0,1,52,0.0,62.0
173,53.0,0,52,0.0,44.0
174,66.0,16,33,0.0,92.0
175,65.0,43,27,0.0,89.0
176,46.0,49,14,0.0,69.0
177,65.0,0,7,0.0,66.0
178,58.0,2,11,0.0,46.0
179,61.0,48,17,0.0,55.0
180,58.0,1,10,0.0,38.0
181,66.0,41,18,0.0,74.0
182,73.0,2,110,0.0,98.0
183,61.0,0,21,0.0,63.0
184,57.0,2,24,0.0,47.0
185,67.0,1,41,0.0,84.0
186,61.0,43,50,0.0,58.0
187,75.0,41,27,0.0,95.0
188,76.0,43,37,0.0,96.0
189,68.0,5,21,0.0,70.0
190,56.0,33,50,0.0,60.0
191,77.0,14,38,0.0,104.0
192,61.0,2,58,0.0,49.0
193,78.0,44,38,0.0,92.0
194,80.0,41,19,0.0,99.0
195,55.0,23,8,0.0,57.0
196,61.0,9,34,0.0,61.0
197,64.0,12,26,0.0,63.0
198,70.0,9,34,0.0,67.0
199,82.0,0,34,0.0,92.0
200,84.0,48,36,0.0,97.0
201,85.0,50,18,0.0,89.0
202,32.0,58,32,0.0,42.0
203,56.0,56,12,0.0,54.0
204,61.0,0,12,0.0,54.0
205,66.0,0,14,0.0,60.0
206,66.0,49,17,0.0,58.0
207,61.0,1,20,0.0,54.0
208,56.0,0,32,0.0,52.0
209,78.0,58,51,0.0,85.0
210,60.0,3,74,0.0,47.0
211,56.0,0,90,0.0,48.0
212,66.0,2,89,0.0,45.0
213,75.0,55,39,0.0,87.0
214,77.0,45,49,0.0,90.0
215,49.0,48,11,0.0,32.0
216,68.0,14,339,0.0,87.0
217,73.0,2,35,0.0,83.0
218,65.0,47,15,0.0,45.0
219,59.0,1,32,0.0,48.0
220,75.0,3,35,0.0,81.0
221,49.0,4,7,0.0,44.0
222,70.0,50,31,0.0,66.0
223,71.0,56,54,0.0,67.0
224,65.0,2,70,0.0,47.0
225,59.0,2,74,0.0,40.0
226,73.0,60,60,0.0,71.0
227,68.0,65,44,0.0,60.0
228,70.0,70,40,0.0,66.0
229,54.0,7,69,0.0,41.0
230,66.0,0,28,0.0,49.0
231,71.0,52,31,0.0,75.0
232,69.0,4,12,0.0,59.0
233,72.0,46,27,0.0,85.0
234,58.0,1,24,0.0,46.0
235,71.0,0,12,0.0,75.0
236,66.0,39,20,0.0,47.0
237,75.0,2,22,0.0,79.0
238,70.0,15,6,0.0,69.0
239,73.0,2,7,0.0,82.0
240,58.0,32,38,0.0,50.0
241,73.0,1,17,0.0,72.0
242,82.0,39,30,0.0,91.0
243,61.0,0,30,0.0,34.0
244,49.0,5,32,0.0,52.0
245,83.0,39,22,0.0,95.0
246,75.0,1,25,0.0,82.0
247,54.0,4,38,0.0,49.0
248,73.0,1,16,0.0,72.0
249,82.0,37,21,0.0,90.0
250,66.0,7,22,0.0,61.0
251,68.0,1,14,0.0,72.0
252,77.0,35,21,0.0,81.0
253,58.0,1,26,0.0,57.0
254,66.0,37,21,0.0,50.0
255,70.0,5,16,0.0,78.0
256,78.0,5,22,0.0,83.0
257,66.0,5,10,0.0,69.0
258,75.0,2,25,0.0,88.0
259,58.0,36,41,0.0,55.0
260,70.0,3,18,0.0,78.0
261,78.0,41,37,0.0,90.0
262,49.0,0,38,0.0,50.0
263,71.0,3,37,0.0,76.0
264,77.0,3,49,0.0,90.0
265,68.0,3,28,0.0,50.0
266,56.0,60,86,0.0,58.0
267,65.0,46,63,0.0,69.0
268,71.0,41,26,0.0,79.0
269,59.0,6,20,0.0,49.0
270,65.0,0,21,0.0,52.0
271,68.0,4,21,0.0,52.0
272,73.0,32,35,0.0,83.0
273,59.0,1,27,0.0,55.0
274,77.0,35,28,0.0,93.0
275,65.0,5,9,0.0,60.0
276,49.0,3,10,0.0,49.0
277,75.0,36,24,0.0,91.0
278,61.0,1,32,0.0,39.0
279,77.0,24,26,0.0,68.0
280,71.0,12,24,0.0,57.0
281,75.0,1,36,0.0,86.0
282,56.0,5,37,0.0,58.0
283,68.0,2,20,0.0,62.0
284,65.0,0,20,0.0,54.0
285,74.0,41,24,0.0,86.0
286,71.0,7,13,0.0,50.0
287,73.0,35,27,0.0,85.0
288,59.0,1,22,0.0,52.0
289,65.0,35,22,0.0,43.0
290,68.0,0,22,0.0,49.0
291,72.0,1,27,0.0,92.0
292,65.0,3,12,0.0,56.0
293,59.0,36,28,0.0,63.0
294,73.0,7,23,0.0,92.0
295,65.0,2,8,0.0,70.0
296,50.0,6,36,0.0,60.0
297,51.0,5,26,0.0,54.0
298,71.0,43,92,0.0,90.0
299,66.0,45,42,0.0,81.0
300,63.0,3,19,0.0,49.0
301,58.0,48,23,0.0,61.0
302,66.0,6,11,0.0,57.0
303,54.0,1,20,0.0,48.0
304,70.0,32,29,0.0,81.0
305,58.0,0,19,0.0,55.0
306,63.0,2,19,0.0,55.0
307,69.0,36,33,0.0,90.0
308,70.0,0,17,0.0,86.0
309,66.0,0,17,0.0,55.0
310,54.0,38,22,0.0,57.0
311,66.0,30,12,0.0,79.0
312,70.0,3,19,0.0,75.0
313,78.0,14,28,0.0,91.0
314,46.0,4,23,0.0,53.0
315,68.0,2,19,0.0,64.0
316,51.0,2,18,0.0,39.0
317,77.0,39,23,0.0,89.0
318,67.0,3,8,0.0,65.0
319,76.0,40,22,0.0,99.0
320,63.0,1,24,0.0,68.0
321,66.0,4,8,0.0,60.0
322,54.0,1,20,0.0,61.0
323,75.0,35,27,0.0,91.0
324,63.0,34,20,0.0,49.0
325,74.0,1,26,0.0,91.0
326,54.0,43,19,0.0,62.0
327,66.0,0,19,0.0,54.0
328,75.0,2,19,0.0,92.0
329,63.0,5,7,0.0,46.0
330,46.0,43,42,0.0,46.0
331,71.0,1,68,0.0,90.0
332,62.0,43,22,0.0,79.0
333,70.0,15,14,0.0,70.0
334,53.0,5,34,0.0,50.0
335,71.0,10,13,0.0,73.0
336,65.0,6,12,0.0,27.0
337,70.0,11,25,0.0,84.0
338,68.0,0,25,0.0,60.0
339,62.0,5,15,0.0,51.0
340,69.0,33,26,0.0,90.0
341,56.0,1,30,0.0,63.0
342,65.0,0,17,0.0,60.0
343,68.0,2,17,0.0,60.0
344,70.0,35,31,0.0,89.0
345,56.0,36,25,0.0,55.0
346,62.0,5,30,0.0,55.0
347,73.0,0,30,0.0,91.0
348,68.0,1,29,0.0,54.0
349,46.0,3,39,0.0,46.0
350,72.0,46,60,0.0,90.0
351,62.0,42,24,0.0,69.0
352,53.0,2,44,0.0,50.0
353,65.0,0,18,0.0,53.0
354,68.0,2,18,0.0,61.0
355,71.0,39,29,0.0,75.0
356,70.0,0,27,0.0,75.0
357,56.0,42,33,0.0,55.0
358,65.0,1,22,0.0,56.0
359,68.0,0,24,0.0,51.0
360,69.0,46,24,0.0,82.0
361,62.0,1,19,0.0,55.0
362,56.0,40,30,0.0,43.0
363,70.0,4,31,0.0,73.0
364,65.0,0,23,0.0,50.0
365,68.0,42,23,0.0,72.0
366,46.0,3,63,0.0,49.0
367,63.0,0,24,0.0,49.0
368,51.0,7,39,0.0,49.0
369,62.0,42,27,0.0,64.0
370,51.0,37,25,0.0,55.0
371,61.0,4,40,0.0,72.0
372,58.0,3,120,0.0,52.0
373,66.0,57,172,0.0,81.0
374,44.0,7,27,0.0,49.0
375,60.0,47,58,0.0,75.0
376,65.0,39,34,0.0,90.0
377,56.0,1,34,0.0,58.0
378,51.0,42,20,0.0,68.0
379,66.0,1,33,0.0,89.0
380,70.0,50,41,0.0,91.0
381,54.0,1,43,0.0,60.0
382,53.0,4,20,0.0,57.0
383,68.0,44,37,0.0,78.0
384,54.0,35,39,0.0,61.0
385,63.0,2,40,0.0,79.0
386,61.0,2,34,0.0,76.0
387,59.0,0,192,0.0,64.0
388,65.0,38,25,0.0,66.0
389,56.0,44,90,0.0,38.0
390,49.0,3,224,0.0,49.0
391,63.0,15,43,0.0,83.0
392,61.0,47,24,0.0,78.0
393,58.0,31,31,0.0,76.0
394,42.0,25,19,0.0,57.0
395,58.0,4,7,0.0,50.0
396,61.0,49,15,0.0,77.0
397,54.0,2,15,0.0,59.0
398,66.0,0,29,0.0,69.0
399,62.0,0,12,0.0,82.0
400,65.0,1,12,0.0,63.0
401,54.0,12,6,0.0,58.0
402,58.0,33,19,0.0,69.0
403,70.0,3,159,0.0,90.0
404,63.0,29,35,0.0,80.0
405,54.0,2,42,0.0,68.0
406,58.0,2,41,0.0,57.0
407,69.0,42,28,0.0,93.0
408,70.0,43,32,0.0,106.0
409,41.0,43,15,0.0,71.0
410,73.0,11,31,0.0,96.0
411,57.0,4,11,0.0,47.0
412,53.0,5,8,0.0,55.0
413,63.0,0,17,0.0,37.0
414,72.0,53,29,0.0,101.0
415,53.0,4,8,0.0,48.0
416,63.0,3,12,0.0,57.0
417,58.0,2,18,0.0,59.0
418,66.0,32,29,0.0,96.0
419,65.0,38,46,0.0,93.0
420,60.0,4,50,0.0,50.0
421,63.0,3,55,0.0,57.0
422,53.0,5,52,0.0,45.0
423,68.0,30,25,0.0,82.0
424,66.0,17,31,0.0,86.0
425,65.0,40,32,0.0,81.0
426,46.0,38,14,0.0,60.0
427,65.0,0,8,0.0,63.0
428,61.0,42,18,0.0,60.0
429,73.0,6,64,0.0,100.0
430,70.0,2,39,0.0,83.0
431,65.0,0,13,0.0,69.0
432,61.0,1,17,0.0,51.0
433,58.0,2,21,0.0,60.0
434,68.0,41,39,0.0,74.0
435,64.0,0,19,0.0,69.0
436,58.0,4,25,0.0,42.0
437,61.0,3,29,0.0,41.0
438,67.0,42,39,0.0,91.0
439,63.0,2,24,0.0,68.0
440,75.0,38,33,0.0,100.0
441,67.0,4,9,0.0,73.0
442,57.0,1,12,0.0,59.0
443,61.0,0,21,0.0,56.0
444,76.0,43,36,0.0,101.0
445,68.0,2,15,0.0,75.0
446,77.0,43,21,0.0,96.0
447,70.0,2,14,0.0,72.0
448,78.0,41,22,0.0,95.0
449,72.0,2,10,0.0,78.0
450,80.0,44,19,0.0,93.0
451,73.0,2,14,0.0,82.0
452,82.0,43,28,0.0,92.0
453,61.0,1,173,0.0,58.0
454,56.0,2,180,0.0,60.0
455,75.0,2,15,0.0,78.0
456,84.0,43,20,0.0,90.0
457,77.0,49,15,0.0,90.0
458,85.0,1,15,0.0,93.0
459,32.0,0,18,0.0,50.0
460,44.0,0,18,0.0,52.0
461,60.0,58,8,0.0,75.0
462,51.0,0,22,0.0,73.0
463,68.0,72,83,0.0,91.0
464,56.0,53,16,0.0,55.0
465,44.0,0,16,0.0,57.0
466,75.0,3,51,0.0,68.0
467,78.0,55,70,0.0,87.0
468,66.0,54,29,0.0,50.0
469,70.0,0,33,0.0,68.0
470,72.0,4,19,0.0,69.0
471,60.0,2,124,0.0,51.0
472,77.0,45,26,0.0,88.0
473,51.0,3,130,0.0,48.0
474,65.0,1,38,0.0,60.0
475,56.0,2,43,0.0,37.0
476,58.0,3,28,0.0,35.0
477,66.0,52,34,0.0,74.0
478,63.0,1,41,0.0,68.0
479,54.0,46,61,0.0,51.0
480,56.0,5,32,0.0,43.0
481,49.0,7,204,0.0,38.0
482,65.0,62,84,0.0,60.0
483,61.0,65,19,0.0,54.0
484,73.0,60,273,0.0,85.0
485,76.0,81,31,0.0,88.0
486,37.0,95,67,0.0,34.0
487,49.0,55,9,0.0,50.0
488,76.0,15,195,0.0,88.0
489,75.0,41,38,0.0,78.0
490,74.0,45,29,0.0,88.0
491,69.0,10,93,0.0,38.0
492,73.0,45,35,0.0,87.0
493,72.0,43,36,0.0,84.0
494,71.0,42,28,0.0,84.0
495,70.0,44,41,0.0,75.0
496,64.0,55,320,0.0,50.0
497,57.0,50,384,0.0,63.0
498,69.0,44,29,0.0,83.0
499,68.0,44,27,0.0,83.0
500,49.0,4,17,0.0,66.0
501,70.0,33,23,0.0,77.0
502,64.0,18,12,0.0,57.0
503,68.0,15,35,0.0,76.0
504,58.0,7,29,0.0,45.0
505,67.0,24,36,0.0,88.0
506,64.0,0,10,0.0,45.0
507,76.0,38,28,0.0,87.0
508,63.0,47,29,0.0,51.0
509,75.0,2,34,0.0,83.0
510,59.0,42,9,0.0,48.0
511,67.0,2,31,0.0,69.0
512,47.0,35,15,0.0,61.0
513,68.0,6,23,0.0,70.0
514,67.0,32,18,0.0,71.0
515,68.0,17,16,0.0,81.0
516,70.0,19,18,0.0,79.0
517,49.0,9,35,0.0,54.0
518,68.0,4,46,0.0,76.0
519,67.0,47,34,0.0,74.0
520,58.0,3,37,0.0,47.0
521,64.0,5,9,0.0,47.0
522,76.0,44,26,0.0,79.0
523,63.0,7,27,0.0,57.0
524,75.0,42,41,0.0,76.0
525,59.0,38,10,0.0,57.0
526,67.0,8,35,0.0,65.0
527,47.0,50,25,0.0,48.0
528,68.0,0,25,0.0,58.0
529,62.0,47,77,0.0,55.0
530,67.0,21,61,0.0,70.0
531,74.0,25,37,0.0,89.0
532,35.0,19,67,0.0,44.0
533,47.0,47,7,0.0,65.0
534,55.0,1,51,0.0,48.0
535,79.0,58,92,0.0,91.0
536,62.0,54,38,0.0,54.0
537,67.0,2,7,0.0,64.0
538,78.0,47,47,0.0,84.0
539,76.0,50,44,0.0,82.0
540,74.0,47,14,0.0,87.0
541,62.0,54,70,0.0,72.0
542,71.0,47,29,0.0,82.0
543,69.0,45,38,0.0,86.0
544,67.0,46,31,0.0,88.0
545,66.0,44,24,0.0,83.0
546,68.0,46,19,0.0,78.0
547,47.0,1,26,0.0,43.0
548,66.0,13,41,0.0,70.0
549,56.0,41,34,0.0,51.0
550,65.0,3,35,0.0,85.0
551,62.0,2,10,0.0,41.0
552,74.0,46,24,0.0,79.0
553,73.0,44,33,0.0,76.0
554,61.0,4,31,0.0,47.0
555,57.0,36,8,0.0,38.0
556,65.0,7,33,0.0,68.0
557,45.0,3,9,0.0,54.0
558,66.0,42,22,0.0,74.0
559,65.0,30,16,0.0,71.0
560,66.0,16,16,0.0,74.0
561,68.0,18,19,0.0,78.0
562,47.0,1,32,0.0,59.0
563,66.0,14,47,0.0,76.0
564,65.0,49,28,0.0,77.0
565,56.0,5,35,0.0,50.0
566,62.0,3,10,0.0,38.0
567,74.0,45,24,0.0,80.0
568,73.0,46,37,0.0,72.0
569,61.0,7,32,0.0,49.0
570,57.0,37,7,0.0,31.0
571,65.0,7,49,0.0,69.0
572,45.0,10,8,0.0,49.0
573,66.0,58,39,0.0,63.0
574,33.0,13,92,0.0,39.0
575,61.0,46,134,0.0,46.0
576,45.0,57,8,0.0,47.0
577,67.0,23,140,0.0,62.0
578,52.0,48,81,0.0,49.0
579,73.0,43,187,0.0,93.0
580,57.0,49,39,0.0,39.0
581,62.0,2,39,0.0,57.0
582,71.0,46,43,0.0,79.0
583,64.0,4,30,0.0,57.0
584,73.0,35,41,0.0,82.0
585,67.0,10,100,0.0,32.0
586,62.0,4,33,0.0,55.0
587,71.0,44,45,0.0,84.0
588,69.0,2,34,0.0,89.0
589,61.0,41,50,0.0,47.0
590,67.0,7,12,0.0,54.0
591,76.0,49,32,0.0,91.0
592,74.0,53,48,0.0,84.0
593,66.0,7,56,0.0,39.0
594,62.0,1,59,0.0,41.0
595,69.0,52,34,0.0,85.0
596,71.0,44,28,0.0,83.0
597,33.0,1,44,0.0,55.0
598,61.0,4,56,0.0,57.0
599,45.0,50,7,0.0,66.0
600,67.0,2,100,0.0,69.0
601,52.0,46,64,0.0,55.0
602,73.0,65,184,0.0,95.0
603,62.0,3,34,0.0,60.0
604,71.0,41,37,0.0,87.0
605,64.0,2,27,0.0,62.0
606,73.0,42,37,0.0,83.0
607,62.0,7,28,0.0,52.0
608,57.0,46,170,0.0,52.0
609,71.0,46,47,0.0,79.0
610,69.0,4,31,0.0,84.0
611,61.0,39,51,0.0,42.0
612,67.0,6,22,0.0,44.0
613,76.0,50,30,0.0,83.0
614,74.0,53,60,0.0,77.0
615,66.0,7,68,0.0,34.0
616,62.0,3,67,0.0,41.0
617,69.0,55,35,0.0,79.0
618,71.0,46,26,0.0,75.0
619,61.0,2,58,0.0,57.0
620,45.0,2,78,0.0,56.0
621,67.0,1,85,0.0,66.0
622,52.0,49,43,0.0,58.0
623,57.0,47,9,0.0,71.0
624,73.0,63,136,0.0,95.0
625,64.0,45,37,0.0,76.0
626,63.0,42,31,0.0,61.0
627,57.0,4,79,0.0,49.0
628,75.0,8,33,0.0,92.0
629,61.0,36,32,0.0,60.0
630,76.0,8,25,0.0,100.0
631,65.0,3,12,0.0,73.0
632,77.0,49,26,0.0,99.0
633,78.0,34,23,0.0,98.0
634,56.0,6,62,0.0,49.0
635,61.0,1,73,0.0,58.0
636,80.0,49,21,0.0,98.0
637,70.0,1,14,0.0,93.0
638,82.0,13,41,0.0,99.0
639,64.0,15,36,0.0,50.0
640,61.0,11,79,0.0,58.0
641,55.0,25,91,0.0,63.0
642,84.0,36,25,0.0,104.0
643,85.0,52,24,0.0,106.0
644,32.0,0,17,0.0,52.0
645,61.0,63,12,0.0,58.0
646,56.0,5,8,0.0,48.0
647,66.0,0,13,0.0,61.0
648,61.0,48,10,0.0,47.0
649,56.0,2,14,0.0,45.0
650,66.0,0,16,0.0,57.0
651,78.0,62,58,0.0,90.0
652,60.0,3,82,0.0,47.0
653,56.0,4,82,0.0,46.0
654,66.0,1,81,0.0,54.0
655,75.0,57,38,0.0,87.0
656,68.0,73,291,0.0,90.0
657,77.0,44,52,0.0,96.0
658,49.0,46,18,0.0,58.0
659,73.0,4,34,0.0,84.0
660,65.0,5,14,0.0,49.0
661,75.0,0,33,0.0,82.0
662,59.0,49,41,0.0,56.0
663,49.0,49,13,0.0,57.0
664,70.0,2,29,0.0,76.0
665,71.0,61,53,0.0,74.0
666,65.0,1,83,0.0,46.0
667,59.0,2,87,0.0,43.0
668,73.0,59,54,0.0,70.0
669,56.0,2,117,0.0,40.0
670,68.0,56,39,0.0,62.0
671,42.0,8,22,0.0,53.0
672,70.0,80,37,0.0,76.0
673,66.0,2,19,0.0,55.0
674,71.0,54,27,0.0,76.0
675,69.0,0,16,0.0,68.0
676,58.0,2,16,0.0,49.0
677,72.0,44,26,0.0,87.0
678,71.0,0,17,0.0,81.0
679,66.0,2,26,0.0,59.0
680,75.0,44,28,0.0,78.0
681,70.0,4,7,0.0,41.0
682,73.0,1,16,0.0,88.0
683,58.0,44,30,0.0,47.0
684,73.0,0,19,0.0,75.0
685,61.0,0,14,0.0,50.0
686,49.0,10,14,0.0,48.0
687,82.0,39,28,0.0,91.0
688,75.0,2,19,0.0,78.0
689,83.0,35,22,0.0,91.0
690,54.0,2,32,0.0,52.0
691,82.0,41,20,0.0,90.0
692,73.0,0,18,0.0,54.0
693,66.0,5,21,0.0,66.0
694,68.0,3,18,0.0,62.0
695,77.0,38,25,0.0,96.0
696,58.0,2,25,0.0,58.0
697,70.0,0,21,0.0,50.0
698,66.0,36,21,0.0,55.0
699,78.0,2,26,0.0,84.0
700,66.0,4,20,0.0,61.0
701,58.0,35,35,0.0,57.0
702,75.0,9,26,0.0,91.0
703,70.0,0,16,0.0,81.0
704,78.0,42,35,0.0,93.0
705,61.0,1,40,0.0,50.0
706,49.0,0,40,0.0,50.0
707,71.0,2,32,0.0,69.0
708,77.0,3,70,0.0,93.0
709,65.0,54,24,0.0,70.0
710,68.0,2,27,0.0,48.0
711,56.0,57,91,0.0,62.0
712,59.0,4,15,0.0,47.0
713,71.0,41,27,0.0,84.0
714,65.0,3,20,0.0,52.0
715,68.0,0,20,0.0,52.0
716,73.0,35,35,0.0,83.0
717,59.0,0,28,0.0,52.0
718,71.0,0,28,0.0,52.0
719,77.0,38,28,0.0,95.0
720,75.0,46,28,0.0,92.0
721,49.0,2,25,0.0,49.0
722,61.0,0,49,0.0,50.0
723,77.0,30,29,0.0,68.0
724,71.0,12,21,0.0,50.0
725,75.0,1,33,0.0,76.0
726,56.0,2,52,0.0,57.0
727,65.0,1,12,0.0,56.0
728,68.0,0,20,0.0,60.0
729,74.0,42,25,0.0,84.0
730,59.0,2,23,0.0,55.0
731,73.0,0,29,0.0,77.0
732,71.0,37,29,0.0,50.0
733,68.0,3,18,0.0,50.0
734,72.0,43,27,0.0,83.0
735,65.0,6,54,0.0,50.0
736,59.0,33,26,0.0,47.0
737,68.0,0,23,0.0,49.0
738,73.0,4,23,0.0,83.0
739,65.0,6,9,0.0,55.0
740,62.0,3,8,0.0,50.0
741,50.0,2,22,0.0,48.0
742,71.0,45,77,0.0,88.0
743,51.0,2,23,0.0,59.0
744,66.0,45,37,0.0,75.0
745,63.0,3,20,0.0,61.0
746,58.0,50,23,0.0,65.0
747,66.0,6,12,0.0,57.0
748,54.0,3,23,0.0,60.0
749,70.0,37,30,0.0,85.0
750,58.0,5,7,0.0,44.0
751,63.0,1,19,0.0,65.0
752,69.0,34,31,0.0,89.0
753,54.0,32,15,0.0,60.0
754,66.0,2,15,0.0,59.0
755,70.0,1,17,0.0,87.0
756,66.0,22,13,0.0,70.0
757,70.0,3,16,0.0,76.0
758,78.0,21,26,0.0,92.0
759,58.0,1,25,0.0,52.0
760,46.0,2,25,0.0,52.0
761,68.0,2,17,0.0,69.0
762,77.0,38,21,0.0,90.0
763,51.0,2,27,0.0,55.0
764,67.0,9,8,0.0,59.0
765,63.0,40,22,0.0,60.0
766,76.0,3,21,0.0,96.0
767,66.0,2,16,0.0,74.0
768,54.0,0,24,0.0,61.0
769,75.0,30,29,0.0,87.0
770,63.0,39,18,0.0,55.0
771,74.0,0,24,0.0,90.0
772,65.0,2,24,0.0,60.0
773,66.0,0,24,0.0,57.0
774,75.0,2,24,0.0,98.0
775,54.0,41,37,0.0,54.0
776,63.0,1,16,0.0,72.0
777,46.0,43,38,0.0,54.0
778,58.0,0,38,0.0,54.0
779,62.0,46,24,0.0,69.0
780,71.0,2,73,0.0,93.0
781,70.0,20,11,0.0,69.0
782,53.0,3,35,0.0,51.0
783,71.0,8,11,0.0,70.0
784,65.0,7,14,0.0,54.0
785,68.0,11,26,0.0,60.0
786,70.0,0,26,0.0,82.0
787,69.0,35,25,0.0,88.0
788,56.0,4,25,0.0,60.0
789,62.0,4,14,0.0,58.0
790,68.0,2,21,0.0,58.0
791,70.0,35,33,0.0,88.0
792,73.0,3,29,0.0,88.0
793,56.0,35,34,0.0,55.0
794,68.0,5,29,0.0,58.0
795,58.0,45,39,0.0,52.0
796,46.0,0,39,0.0,49.0
797,72.0,1,53,0.0,85.0
798,62.0,41,28,0.0,72.0
799,53.0,3,42,0.0,48.0
800,65.0,3,20,0.0,59.0
801,68.0,0,25,0.0,55.0
802,71.0,41,25,0.0,75.0
803,62.0,34,28,0.0,50.0
804,56.0,3,28,0.0,59.0
805,70.0,1,28,0.0,74.0
806,68.0,0,25,0.0,60.0
807,69.0,42,25,0.0,76.0
808,65.0,0,64,0.0,61.0
809,56.0,39,29,0.0,47.0
810,70.0,6,29,0.0,76.0
811,62.0,0,29,0.0,50.0
812,68.0,41,26,0.0,76.0
813,46.0,0,48,0.0,45.0
814,58.0,3,48,0.0,48.0
815,65.0,0,100,0.0,48.0
816,51.0,5,42,0.0,52.0
817,63.0,46,40,0.0,65.0
818,51.0,0,16,0.0,48.0
819,61.0,40,41,0.0,74.0
820,58.0,7,100,0.0,39.0
821,66.0,52,164,0.0,84.0
822,44.0,8,30,0.0,50.0
823,60.0,48,62,0.0,77.0
824,56.0,39,29,0.0,47.0
825,65.0,1,35,0.0,86.0
826,51.0,44,17,0.0,61.0
827,66.0,1,32,0.0,90.0
828,59.0,1,10,0.0,66.0
829,54.0,1,36,0.0,59.0
830,70.0,57,60,0.0,90.0
831,53.0,1,24,0.0,52.0
832,68.0,7,38,0.0,81.0
833,54.0,2,26,0.0,60.0
834,63.0,40,37,0.0,81.0
835,61.0,45,41,0.0,82.0
836,59.0,40,162,0.0,22.0
837,65.0,40,23,0.0,69.0
838,56.0,4,81,0.0,48.0
839,49.0,2,230,0.0,56.0
840,63.0,9,46,0.0,83.0
841,61.0,48,16,0.0,90.0
842,30.0,5,20,0.0,58.0
843,61.0,1,7,0.0,64.0
844,54.0,8,8,0.0,56.0
845,64.0,55,19,0.0,65.0
846,54.0,1,10,0.0,49.0
847,61.0,1,14,0.0,68.0
848,64.0,37,20,0.0,65.0
849,70.0,68,198,0.0,97.0
850,61.0,1,69,0.0,64.0
851,54.0,48,81,0.0,61.0
852,68.0,47,44,0.0,96.0
853,64.0,1,100,0.0,68.0
854,70.0,53,36,0.0,96.0
855,64.0,6,29,0.0,71.0
856,73.0,67,59,0.0,92.0
857,55.0,5,72,0.0,47.0
858,63.0,4,50,0.0,65.0
859,71.0,54,56,0.0,90.0
860,56.0,5,53,0.0,57.0
861,61.0,2,8,0.0,57.0
862,67.0,2,8,0.0,54.0
863,58.0,2,15,0.0,58.0
864,70.0,88,19,0.0,78.0
865,67.0,3,26,0.0,47.0
866,61.0,2,33,0.0,58.0
867,58.0,3,40,0.0,46.0
868,70.0,27,78,0.0,76.0
869,47.0,6,329,0.0,51.0
870,59.0,5,64,0.0,38.0
871,63.0,4,73,0.0,54.0
872,68.0,71,77,0.0,74.0
873,75.0,76,34,0.0,69.0
874,62.0,64,23,0.0,61.0
875,61.0,48,19,0.0,45.0
876,60.0,39,36,0.0,53.0
877,68.0,96,218,0.0,70.0
878,59.0,43,36,0.0,52.0
879,66.0,0,240,0.0,46.0
880,63.0,3,244,0.0,44.0
881,58.0,7,17,0.0,59.0
882,70.0,34,41,0.0,82.0
883,58.0,3,30,0.0,30.0
884,73.0,50,44,0.0,92.0
885,71.0,8,39,0.0,92.0
886,51.0,45,48,0.0,51.0
887,47.0,46,10,0.0,57.0
888,70.0,35,17,0.0,83.0
889,70.0,35,62,0.0,75.0
890,63.0,2,128,0.0,46.0
891,68.0,66,63,0.0,73.0
892,66.0,2,153,0.0,46.0
893,75.0,69,24,0.0,76.0
894,62.0,55,25,0.0,60.0
895,61.0,41,27,0.0,58.0
896,60.0,42,39,0.0,57.0
897,68.0,72,196,0.0,70.0
898,66.0,1,204,0.0,50.0
899,59.0,39,41,0.0,56.0
900,58.0,10,15,0.0,55.0
901,70.0,31,49,0.0,78.0
902,73.0,2,39,0.0,76.0
903,56.0,48,49,0.0,54.0
904,63.0,2,355,0.0,46.0
905,51.0,48,41,0.0,52.0
906,47.0,48,7,0.0,48.0
907,71.0,6,59,0.0,74.0
908,70.0,30,17,0.0,73.0
909,70.0,38,78,0.0,70.0
910,68.0,66,32,0.0,68.0
911,63.0,2,130,0.0,48.0
912,66.0,4,177,0.0,52.0
913,78.0,87,29,0.0,60.0
914,35.0,8,66,0.0,34.0
915,66.0,2,77,0.0,41.0
916,47.0,1,68,0.0,27.0
917,63.0,4,83,0.0,45.0
918,68.0,132,91,0.0,65.0
919,66.0,0,58,0.0,41.0
920,61.0,0,65,0.0,41.0
921,37.0,3,63,0.0,32.0
922,49.0,6,68,0.0,35.0
923,70.0,157,76,0.0,65.0
924,66.0,2,56,0.0,50.0
925,39.0,2,73,0.0,38.0
926,59.0,0,76,0.0,43.0
927,51.0,2,80,0.0,46.0
928,71.0,148,110,0.0,73.0
929,59.0,8,62,0.0,43.0
930,41.0,6,56,0.0,43.0
931,53.0,1,70,0.0,36.0
932,61.0,1,75,0.0,42.0
933,68.0,145,88,0.0,66.0
934,54.0,4,76,0.0,41.0
935,70.0,138,89,0.0,69.0
936,42.0,3,82,0.0,34.0
937,58.0,5,93,0.0,35.0
938,61.0,2,102,0.0,45.0
939,59.0,3,52,0.0,43.0
940,47.0,2,110,0.0,47.0
941,54.0,3,136,0.0,32.0
942,63.0,143,140,0.0,66.0
943,58.0,5,111,0.0,36.0
944,49.0,0,131,0.0,42.0
945,66.0,150,168,0.0,63.0
946,56.0,173,78,0.0,38.0
947,61.0,2,254,0.0,37.0
948,65.0,2,91,0.0,61.0
949,54.0,4,56,0.0,36.0
950,63.0,4,60,0.0,55.0
951,47.0,6,60,0.0,41.0
952,50.0,70,26,0.0,50.0
953,62.0,0,26,0.0,48.0
954,61.0,1,14,0.0,52.0
955,49.0,44,28,0.0,50.0
956,68.0,182,164,0.0,64.0
957,60.0,2,16,0.0,50.0
958,48.0,40,27,0.0,54.0
959,59.0,4,14,0.0,56.0
960,47.0,38,25,0.0,51.0
961,58.0,0,23,0.0,55.0
962,70.0,3,23,0.0,84.0
963,46.0,38,34,0.0,57.0
964,66.0,2,8,0.0,50.0
965,56.0,1,11,0.0,64.0
966,63.0,4,15,0.0,72.0
967,44.0,1,16,0.0,64.0
968,73.0,52,35,0.0,97.0
969,39.0,4,10,0.0,55.0
970,51.0,0,10,0.0,64.0
971,71.0,42,42,0.0,81.0
972,32.0,2,7,0.0,68.0
973,44.0,41,10,0.0,65.0
974,70.0,23,15,0.0,79.0
975,70.0,29,50,0.0,74.0
976,68.0,57,46,0.0,76.0
977,66.0,0,120,0.0,61.0
978,75.0,47,28,0.0,82.0
979,66.0,9,9,0.0,45.0
980,51.0,4,191,0.0,66.0
981,68.0,60,49,0.0,72.0
982,50.0,1,17,0.0,57.0
983,63.0,0,240,0.0,53.0
984,62.0,48,26,0.0,64.0
985,49.0,1,23,0.0,58.0
986,61.0,41,27,0.0,61.0
987,48.0,40,21,0.0,77.0
988,60.0,2,26,0.0,68.0
989,59.0,39,16,0.0,69.0
990,47.0,2,22,0.0,55.0
991,58.0,2,12,0.0,68.0
992,70.0,0,18,0.0,88.0
993,46.0,38,31,0.0,64.0
994,56.0,0,12,0.0,61.0
995,44.0,0,19,0.0,58.0
996,73.0,53,26,0.0,89.0
997,63.0,1,29,0.0,74.0
998,66.0,2,31,0.0,62.0
999,51.0,1,8,0.0,64.0
1000,39.0,6,14,0.0,70.0
1001,71.0,45,46,0.0,87.0
1002,32.0,0,7,0.0,73.0
1003,44.0,41,11,0.0,60.0
1004,70.0,31,18,0.0,79.0
1005,70.0,40,70,0.0,78.0
1006,63.0,2,76,0.0,52.0
1007,66.0,0,76,0.0,59.0
1008,68.0,63,19,0.0,78.0
1009,51.0,4,93,0.0,45.0
1010,78.0,4,35,0.0,54.0
1011,90.0,113,47,0.0,66.0
1012,66.0,5,71,0.0,39.0
1013,63.0,1,72,0.0,27.0
1014,35.0,1,70,0.0,27.0
1015,47.0,5,72,0.0,27.0
1016,68.0,250,86,0.0,60.0
1017,66.0,3,57,0.0,41.0
1018,70.0,146,62,0.0,62.0
1019,61.0,0,60,0.0,34.0
1020,37.0,4,59,0.0,29.0
1021,49.0,5,67,0.0,36.0
1022,66.0,4,64,0.0,46.0
1023,71.0,140,72,0.0,72.0
1024,39.0,0,74,0.0,38.0
1025,51.0,2,76,0.0,36.0
1026,59.0,0,87,0.0,37.0
1027,59.0,7,51,0.0,43.0
1028,41.0,0,58,0.0,44.0
1029,61.0,1,69,0.0,41.0
1030,68.0,141,78,0.0,66.0
1031,53.0,4,68,0.0,42.0
1032,70.0,138,68,0.0,70.0
1033,58.0,3,72,0.0,37.0
1034,42.0,1,75,0.0,45.0
1035,54.0,1,82,0.0,36.0
1036,61.0,4,111,0.0,43.0
1037,59.0,7,52,0.0,41.0
1038,47.0,4,123,0.0,46.0
1039,63.0,139,144,0.0,74.0
1040,54.0,0,144,0.0,34.0
1041,58.0,7,155,0.0,39.0
1042,66.0,145,172,0.0,64.0
1043,56.0,1,63,0.0,43.0
1044,61.0,0,250,0.0,38.0
1045,65.0,181,77,0.0,55.0
1046,49.0,2,266,0.0,47.0
1047,70.0,189,55,0.0,65.0
1048,54.0,9,60,0.0,48.0
1049,66.0,52,24,0.0,49.0
1050,71.0,10,38,0.0,75.0
1051,58.0,43,57,0.0,43.0
1052,49.0,48,10,0.0,57.0
1053,73.0,5,34,0.0,88.0
1054,75.0,46,21,0.0,88.0
1055,77.0,44,25,0.0,86.0
1056,51.0,40,22,0.0,64.0
1057,78.0,9,24,0.0,87.0
1058,66.0,40,23,0.0,59.0
1059,80.0,1,32,0.0,91.0
1060,60.0,1,7,0.0,52.0
1061,56.0,0,9,0.0,52.0
1062,82.0,41,16,0.0,83.0
1063,84.0,48,23,0.0,87.0
1064,44.0,2,32,0.0,41.0
1065,85.0,41,33,0.0,91.0
1066,87.0,52,21,0.0,87.0
1067,37.0,1,18,0.0,46.0
1068,56.0,0,11,0.0,43.0
1069,61.0,69,11,0.0,43.0
1070,66.0,0,11,0.0,45.0
1071,66.0,2,10,0.0,43.0
1072,61.0,46,15,0.0,54.0
1073,56.0,4,10,0.0,28.0
1074,56.0,2,84,0.0,27.0
1075,66.0,1,97,0.0,37.0
1076,61.0,47,131,0.0,45.0
1077,68.0,74,341,0.0,83.0
1078,49.0,7,14,0.0,48.0
1079,65.0,49,16,0.0,49.0
1080,59.0,2,23,0.0,37.0
1081,49.0,49,10,0.0,60.0
1082,73.0,155,176,0.0,75.0
1083,65.0,5,78,0.0,31.0
1084,59.0,2,78,0.0,28.0
1085,56.0,27,63,0.0,7.0
1086,75.0,64,109,0.0,75.0
1087,73.0,86,19,0.0,69.0
1088,70.0,70,42,0.0,72.0
1089,54.0,1,86,0.0,43.0
1090,73.0,4,36,0.0,78.0
1091,75.0,0,20,0.0,84.0
1092,66.0,51,75,0.0,39.0
1093,58.0,43,59,0.0,48.0
1094,53.0,3,20,0.0,79.0
1095,77.0,48,28,0.0,85.0
1096,78.0,43,29,0.0,83.0
1097,80.0,44,40,0.0,87.0
1098,82.0,1,20,0.0,82.0
1099,51.0,43,26,0.0,74.0
1100,66.0,46,21,0.0,62.0
1101,84.0,3,22,0.0,88.0
1102,60.0,45,6,0.0,65.0
1103,56.0,2,14,0.0,57.0
1104,85.0,0,22,0.0,84.0
1105,44.0,8,27,0.0,76.0
1106,87.0,54,42,0.0,83.0
1107,89.0,46,48,0.0,88.0
1108,90.0,58,22,0.0,78.0
1109,37.0,6,19,0.0,48.0
1110,56.0,0,11,0.0,40.0
1111,61.0,68,11,0.0,43.0
1112,66.0,0,11,0.0,48.0
1113,61.0,52,8,0.0,46.0
1114,66.0,0,14,0.0,54.0
1115,56.0,2,13,0.0,51.0
1116,56.0,6,77,0.0,27.0
1117,66.0,54,95,0.0,42.0
1118,61.0,2,93,0.0,36.0
1119,68.0,82,339,0.0,82.0
1120,49.0,4,14,0.0,46.0
1121,65.0,50,13,0.0,48.0
1122,59.0,4,19,0.0,38.0
1123,49.0,48,16,0.0,52.0
1124,73.0,155,159,0.0,75.0
1125,77.0,54,20,0.0,73.0
1126,59.0,1,96,0.0,31.0
1127,65.0,9,89,0.0,40.0
1128,75.0,0,103,0.0,78.0
1129,56.0,16,116,0.0,33.0
1130,73.0,104,29,0.0,66.0
1131,70.0,76,43,0.0,64.0
1132,66.0,49,24,0.0,46.0
1133,54.0,4,75,0.0,42.0
1134,73.0,0,34,0.0,74.0
1135,75.0,4,21,0.0,79.0
1136,58.0,38,43,0.0,56.0
1137,61.0,1,18,0.0,74.0
1138,49.0,4,16,0.0,49.0
1139,77.0,47,28,0.0,82.0
1140,78.0,42,30,0.0,83.0
1141,80.0,44,54,0.0,88.0
1142,82.0,41,18,0.0,81.0
1143,54.0,3,30,0.0,64.0
1144,66.0,4,23,0.0,75.0
1145,85.0,46,39,0.0,96.0
1146,58.0,48,20,0.0,57.0
1147,90.0,2,43,0.0,82.0
1148,61.0,8,20,0.0,50.0
1149,49.0,2,20,0.0,49.0
1150,92.0,60,53,0.0,85.0
1151,94.0,51,23,0.0,81.0
1152,99.0,79,107,0.0,82.0
1153,97.0,134,95,0.0,74.0
1154,25.0,6,94,0.0,39.0
1155,59.0,1,78,0.0,48.0
1156,65.0,250,89,0.0,82.0
1157,56.0,6,125,0.0,43.0
1158,49.0,2,126,0.0,39.0
1159,54.0,2,67,0.0,49.0
1160,51.0,4,66,0.0,50.0
1161,58.0,6,73,0.0,65.0
1162,66.0,163,81,0.0,89.0
1163,71.0,154,70,0.0,97.0
1164,44.0,2,76,0.0,50.0
1165,59.0,3,88,0.0,65.0
1166,63.0,1,93,0.0,62.0
1167,56.0,3,98,0.0,48.0
1168,63.0,2,177,0.0,57.0
1169,66.0,2,192,0.0,68.0
1170,59.0,0,373,0.0,65.0
1171,61.0,7,107,0.0,48.0
1172,65.0,271,130,0.0,63.0
1173,68.0,166,591,0.0,85.0
1174,49.0,4,609,0.0,55.0
1175,59.0,5,212,0.0,59.0
1176,42.0,9,47,0.0,44.0
1177,63.0,146,236,0.0,65.0
1178,41.0,60,43,0.0,46.0
1179,42.0,19,51,0.0,47.0
1180,61.0,30,103,0.0,58.0
1181,47.0,49,36,0.0,50.0
1182,58.0,1,105,0.0,48.0
1183,66.0,160,222,0.0,70.0
1184,45.0,50,47,0.0,54.0
1185,46.0,52,18,0.0,58.0
1186,51.0,50,39,0.0,63.0
1187,48.0,51,43,0.0,68.0
1188,49.0,52,23,0.0,68.0
1189,56.0,54,64,0.0,60.0
1190,53.0,63,55,0.0,56.0
1191,54.0,74,53,0.0,60.0
1192,66.0,78,50,0.0,51.0
1193,75.0,58,18,0.0,63.0
1194,70.0,1,26,0.0,50.0
1195,63.0,128,181,0.0,75.0
1196,63.0,51,32,0.0,63.0
1197,75.0,50,18,0.0,63.0
1198,67.0,1,13,0.0,37.0
1199,70.0,5,25,0.0,39.0
1200,61.0,50,136,0.0,76.0
1201,63.0,51,29,0.0,56.0
1202,75.0,44,21,0.0,65.0
1203,68.0,3,42,0.0,49.0
1204,59.0,42,142,0.0,79.0
1205,63.0,42,29,0.0,59.0
1206,71.0,1,11,0.0,56.0
1207,68.0,45,12,0.0,38.0
1208,58.0,40,106,0.0,81.0
1209,56.0,30,31,0.0,74.0
1210,62.0,50,28,0.0,55.0
1211,65.0,3,14,0.0,41.0
1212,70.0,45,21,0.0,57.0
1213,58.0,43,142,0.0,74.0
1214,58.0,52,25,0.0,58.0
1215,62.0,1,11,0.0,29.0
1216,70.0,45,19,0.0,41.0
1217,65.0,3,20,0.0,38.0
1218,56.0,43,133,0.0,83.0
1219,58.0,54,27,0.0,49.0
1220,70.0,41,33,0.0,60.0
1221,54.0,42,137,0.0,70.0
1222,63.0,4,50,0.0,47.0
1223,58.0,43,39,0.0,52.0
1224,53.0,40,102,0.0,75.0
1225,66.0,38,22,0.0,62.0
1226,63.0,3,22,0.0,54.0
1227,51.0,27,35,0.0,70.0
1228,58.0,46,32,0.0,58.0
1229,53.0,37,79,0.0,74.0
1230,65.0,35,22,0.0,59.0
1231,61.0,4,25,0.0,38.0
1232,49.0,23,68,0.0,72.0
1233,51.0,30,69,0.0,81.0
1234,58.0,45,27,0.0,57.0
1235,65.0,39,17,0.0,47.0
1236,61.0,2,23,0.0,33.0
1237,53.0,27,74,0.0,84.0
1238,49.0,26,65,0.0,76.0
1239,58.0,44,27,0.0,55.0
1240,61.0,2,23,0.0,39.0
1241,65.0,37,25,0.0,59.0
1242,46.0,25,66,0.0,76.0
1243,48.0,35,60,0.0,88.0
1244,58.0,35,32,0.0,52.0
1245,65.0,37,15,0.0,47.0
1246,61.0,1,23,0.0,37.0
1247,49.0,35,63,0.0,85.0
1248,58.0,44,27,0.0,54.0
1249,41.0,38,102,0.0,83.0
1250,60.0,6,14,0.0,50.0
1251,65.0,44,31,0.0,68.0
1252,44.0,29,29,0.0,70.0
1253,57.0,43,27,0.0,57.0
1254,60.0,44,16,0.0,44.0
1255,65.0,1,17,0.0,51.0
1256,42.0,27,113,0.0,80.0
1257,63.0,3,29,0.0,37.0
1258,41.0,43,32,0.0,70.0
1259,58.0,62,27,0.0,43.0
1260,46.0,40,95,0.0,76.0
1261,65.0,3,14,0.0,39.0
1262,62.0,51,19,0.0,52.0
1263,62.0,51,24,0.0,73.0
1264,58.0,69,106,0.0,75.0
1265,65.0,50,17,0.0,55.0
1266,74.0,1,25,0.0,79.0
1267,70.0,3,26,0.0,54.0
1268,66.0,53,50,0.0,72.0
1269,70.0,2,20,0.0,73.0
1270,75.0,38,29,0.0,90.0
1271,78.0,39,17,0.0,70.0
1272,63.0,49,167,0.0,87.0
1273,76.0,16,64,0.0,86.0
1274,67.0,59,29,0.0,69.0
1275,70.0,6,21,0.0,52.0
1276,75.0,40,36,0.0,82.0
1277,61.0,11,138,0.0,88.0
1278,63.0,48,25,0.0,66.0
1279,68.0,7,33,0.0,42.0
1280,59.0,43,138,0.0,85.0
1281,75.0,41,71,0.0,69.0
1282,63.0,42,31,0.0,57.0
1283,58.0,41,112,0.0,73.0
1284,71.0,45,29,0.0,68.0
1285,68.0,0,33,0.0,48.0
1286,56.0,33,36,0.0,68.0
1287,71.0,39,31,0.0,74.0
1288,66.0,4,66,0.0,49.0
1289,59.0,41,164,0.0,77.0
1290,75.0,51,45,0.0,59.0
1291,63.0,52,147,0.0,49.0
1292,73.0,4,52,0.0,70.0
1293,63.0,72,42,0.0,66.0
1294,66.0,1,17,0.0,60.0
1295,57.0,20,138,0.0,79.0
1296,71.0,35,29,0.0,81.0
1297,64.0,49,43,0.0,68.0
1298,57.0,46,94,0.0,83.0
1299,76.0,31,17,0.0,79.0
1300,71.0,1,22,0.0,60.0
1301,56.0,31,76,0.0,88.0
1302,59.0,46,28,0.0,65.0
1303,54.0,41,92,0.0,85.0
1304,71.0,23,12,0.0,45.0
1305,64.0,5,26,0.0,59.0
1306,68.0,0,33,0.0,38.0
1307,52.0,42,63,0.0,84.0
1308,59.0,55,30,0.0,57.0
1309,71.0,48,24,0.0,69.0
1310,64.0,1,23,0.0,62.0
1311,56.0,48,155,0.0,78.0
1312,70.0,0,81,0.0,72.0
1313,58.0,58,35,0.0,54.0
1314,65.0,6,9,0.0,58.0
1315,68.0,43,25,0.0,68.0
1316,50.0,54,143,0.0,66.0
1317,58.0,48,33,0.0,49.0
1318,63.0,42,35,0.0,63.0
1319,54.0,45,139,0.0,77.0
1320,65.0,51,48,0.0,70.0
1321,54.0,49,33,0.0,51.0
1322,59.0,6,10,0.0,52.0
1323,45.0,5,111,0.0,66.0
1324,66.0,46,22,0.0,73.0
1325,53.0,48,25,0.0,58.0
1326,46.0,49,75,0.0,74.0
1327,63.0,39,24,0.0,60.0
1328,58.0,6,28,0.0,39.0
1329,49.0,33,30,0.0,68.0
1330,53.0,37,42,0.0,56.0
1331,47.0,32,82,0.0,78.0
1332,62.0,4,12,0.0,45.0
1333,46.0,41,27,0.0,69.0
1334,58.0,46,78,0.0,34.0
1335,56.0,0,78,0.0,34.0
1336,54.0,63,29,0.0,42.0
1337,39.0,44,117,0.0,70.0
1338,58.0,1,16,0.0,43.0
1339,63.0,43,19,0.0,55.0
1340,46.0,36,42,0.0,79.0
1341,51.0,42,62,0.0,84.0
1342,58.0,51,29,0.0,61.0
1343,53.0,28,60,0.0,88.0
1344,70.0,35,30,0.0,68.0
1345,63.0,4,29,0.0,50.0
1346,58.0,53,28,0.0,54.0
1347,54.0,39,116,0.0,83.0
1348,70.0,46,57,0.0,61.0
1349,61.0,4,63,0.0,45.0
1350,54.0,48,77,0.0,91.0
1351,58.0,54,25,0.0,61.0
1352,61.0,47,19,0.0,57.0
1353,70.0,1,24,0.0,59.0
1354,44.0,39,33,0.0,62.0
1355,54.0,25,37,0.0,89.0
1356,56.0,39,25,0.0,82.0
1357,60.0,4,27,0.0,71.0
1358,54.0,29,26,0.0,86.0
1359,68.0,19,9,0.0,30.0
1360,53.0,14,31,0.0,88.0
1361,54.0,33,40,0.0,93.0
1362,60.0,56,22,0.0,59.0
1363,66.0,43,23,0.0,50.0
1364,63.0,0,25,0.0,43.0
1365,58.0,54,132,0.0,81.0
1366,56.0,45,15,0.0,72.0
1367,56.0,58,29,0.0,56.0
1368,54.0,46,132,0.0,78.0
1369,68.0,40,31,0.0,60.0
1370,61.0,5,83,0.0,37.0
1371,49.0,8,197,0.0,34.0
1372,56.0,53,28,0.0,46.0
1373,53.0,48,115,0.0,68.0
1374,61.0,3,21,0.0,35.0
1375,68.0,38,30,0.0,54.0
1376,51.0,32,45,0.0,79.0
1377,49.0,39,71,0.0,82.0
1378,56.0,46,38,0.0,64.0
1379,65.0,10,8,0.0,48.0
1380,61.0,2,19,0.0,47.0
1381,48.0,31,56,0.0,84.0
1382,68.0,33,30,0.0,60.0
1383,47.0,23,69,0.0,86.0
1384,61.0,45,38,0.0,72.0
1385,63.0,3,9,0.0,63.0
1386,67.0,1,22,0.0,62.0
1387,70.0,38,27,0.0,74.0
1388,46.0,30,83,0.0,87.0
1389,59.0,55,30,0.0,59.0
1390,44.0,49,118,0.0,86.0
1391,71.0,46,23,0.0,71.0
1392,63.0,0,29,0.0,55.0
1393,68.0,0,30,0.0,45.0
1394,59.0,58,26,0.0,58.0
1395,56.0,44,94,0.0,87.0
1396,63.0,2,19,0.0,55.0
1397,68.0,41,27,0.0,64.0
1398,56.0,54,31,0.0,78.0
1399,58.0,29,27,0.0,81.0
1400,56.0,33,33,0.0,90.0
1401,61.0,10,26,0.0,48.0
1402,68.0,0,8,0.0,54.0
1403,64.0,11,8,0.0,43.0
1404,55.0,27,37,0.0,90.0
1405,56.0,21,51,0.0,90.0
1406,76.0,53,16,0.0,79.0
1407,64.0,62,69,0.0,79.0
1408,49.0,4,318,0.0,55.0
1409,59.0,52,137,0.0,88.0
1410,68.0,0,29,0.0,58.0
1411,58.0,39,21,0.0,74.0
1412,58.0,64,33,0.0,60.0
1413,70.0,45,17,0.0,58.0
1414,63.0,1,20,0.0,50.0
1415,56.0,44,138,0.0,74.0
1416,58.0,47,26,0.0,52.0
1417,55.0,49,107,0.0,84.0
1418,70.0,1,16,0.0,53.0
1419,63.0,43,21,0.0,47.0
1420,51.0,4,282,0.0,58.0
1421,53.0,41,43,0.0,77.0
1422,55.0,39,69,0.0,83.0
1423,58.0,50,34,0.0,43.0
1424,63.0,47,15,0.0,52.0
1425,70.0,1,21,0.0,44.0
1426,41.0,39,10,0.0,64.0
1427,57.0,28,52,0.0,83.0
1428,63.0,49,35,0.0,61.0
1429,72.0,0,10,0.0,63.0
1430,65.0,48,16,0.0,52.0
1431,61.0,54,20,0.0,66.0
1432,73.0,2,17,0.0,62.0
1433,65.0,44,19,0.0,45.0
1434,70.0,4,14,0.0,39.0
1435,58.0,27,130,0.0,84.0
1436,62.0,48,26,0.0,68.0
1437,56.0,42,86,0.0,83.0
1438,65.0,0,12,0.0,59.0
1439,74.0,45,17,0.0,69.0
1440,70.0,1,22,0.0,46.0
1441,46.0,41,315,0.0,58.0
1442,63.0,51,31,0.0,65.0
1443,75.0,42,19,0.0,76.0
1444,66.0,5,16,0.0,42.0
1445,70.0,6,10,0.0,24.0
1446,54.0,44,139,0.0,83.0
1447,58.0,41,31,0.0,61.0
1448,70.0,42,20,0.0,55.0
1449,63.0,1,23,0.0,45.0
1450,53.0,35,107,0.0,93.0
1451,66.0,1,26,0.0,46.0
1452,51.0,29,37,0.0,87.0
1453,70.0,43,48,0.0,81.0
1454,54.0,51,160,0.0,83.0
1455,58.0,50,118,0.0,69.0
1456,68.0,60,85,0.0,72.0
1457,58.0,54,36,0.0,52.0
1458,66.0,46,22,0.0,74.0
1459,61.0,0,22,0.0,53.0
1460,52.0,8,125,0.0,73.0
1461,59.0,44,31,0.0,57.0
1462,52.0,59,81,0.0,81.0
1463,71.0,34,18,0.0,75.0
1464,66.0,4,21,0.0,43.0
1465,51.0,26,69,0.0,84.0
1466,54.0,47,47,0.0,60.0
1467,59.0,7,12,0.0,44.0
1468,49.0,38,107,0.0,76.0
1469,66.0,40,22,0.0,56.0
1470,63.0,2,17,0.0,47.0
1471,47.0,21,29,0.0,83.0
1472,54.0,57,34,0.0,63.0
1473,66.0,42,27,0.0,70.0
1474,59.0,6,39,0.0,60.0
1475,51.0,42,151,0.0,84.0
1476,65.0,56,75,0.0,70.0
1477,54.0,51,42,0.0,49.0
1478,60.0,6,9,0.0,48.0
1479,63.0,46,25,0.0,64.0
1480,45.0,2,126,0.0,66.0
1481,53.0,51,33,0.0,70.0
1482,58.0,48,22,0.0,59.0
1483,49.0,49,139,0.0,70.0
1484,60.0,47,49,0.0,76.0
1485,54.0,51,44,0.0,64.0
1486,40.0,2,126,0.0,57.0
1487,58.0,4,21,0.0,47.0
1488,61.0,52,66,0.0,68.0
1489,41.0,49,69,0.0,79.0
1490,53.0,42,29,0.0,62.0
1491,61.0,39,30,0.0,58.0
1492,58.0,4,28,0.0,35.0
1493,44.0,42,28,0.0,64.0
1494,51.0,43,37,0.0,58.0
1495,60.0,48,10,0.0,52.0
1496,42.0,27,103,0.0,74.0
1497,57.0,3,22,0.0,46.0
1498,41.0,40,29,0.0,72.0
1499,50.0,49,25,0.0,63.0
1500,34.0,44,95,0.0,68.0
1501,53.0,53,18,0.0,63.0
1502,62.0,4,21,0.0,69.0
1503,62.0,56,26,0.0,64.0
1504,58.0,63,109,0.0,90.0
1505,65.0,1,17,0.0,54.0
1506,74.0,45,24,0.0,78.0
1507,70.0,1,25,0.0,61.0
1508,66.0,48,30,0.0,82.0
1509,75.0,39,33,0.0,91.0
1510,70.0,4,54,0.0,72.0
1511,63.0,48,153,0.0,91.0
1512,78.0,33,33,0.0,75.0
1513,76.0,20,66,0.0,90.0
1514,67.0,56,29,0.0,69.0
1515,70.0,6,23,0.0,61.0
1516,61.0,11,128,0.0,83.0
1517,75.0,37,49,0.0,90.0
1518,63.0,41,31,0.0,65.0
1519,71.0,7,17,0.0,52.0
1520,59.0,42,126,0.0,84.0
1521,68.0,2,37,0.0,39.0
1522,75.0,41,63,0.0,72.0
1523,63.0,41,30,0.0,58.0
1524,58.0,39,101,0.0,83.0
1525,71.0,42,24,0.0,51.0
1526,68.0,0,24,0.0,51.0
1527,75.0,0,25,0.0,70.0
1528,56.0,27,35,0.0,84.0
1529,70.0,43,27,0.0,65.0
1530,73.0,25,32,0.0,76.0
1531,65.0,5,73,0.0,41.0
1532,62.0,50,126,0.0,63.0
1533,58.0,41,177,0.0,85.0
1534,71.0,21,38,0.0,77.0
1535,62.0,60,44,0.0,73.0
1536,65.0,7,10,0.0,47.0
1537,56.0,23,56,0.0,83.0
1538,70.0,33,32,0.0,75.0
1539,56.0,39,80,0.0,87.0
1540,58.0,48,39,0.0,66.0
1541,70.0,25,43,0.0,73.0
1542,54.0,26,73,0.0,84.0
1543,63.0,9,40,0.0,49.0
1544,46.0,2,369,0.0,59.0
1545,53.0,45,70,0.0,75.0
1546,68.0,1,80,0.0,65.0
1547,58.0,47,57,0.0,56.0
1548,66.0,37,32,0.0,66.0
1549,63.0,7,29,0.0,37.0
1550,51.0,24,76,0.0,83.0
1551,53.0,35,75,0.0,81.0
1552,58.0,39,54,0.0,57.0
1553,49.0,29,71,0.0,68.0
1554,61.0,5,39,0.0,36.0
1555,65.0,34,49,0.0,69.0
1556,51.0,34,74,0.0,79.0
1557,58.0,42,44,0.0,63.0
1558,53.0,33,69,0.0,78.0
1559,65.0,36,45,0.0,52.0
1560,61.0,1,52,0.0,43.0
1561,49.0,32,65,0.0,76.0
1562,58.0,44,36,0.0,63.0
1563,46.0,28,63,0.0,73.0
1564,61.0,3,28,0.0,42.0
1565,65.0,38,33,0.0,60.0
1566,48.0,29,58,0.0,87.0
1567,58.0,41,36,0.0,59.0
1568,65.0,40,10,0.0,48.0
1569,49.0,31,59,0.0,83.0
1570,61.0,1,25,0.0,41.0
1571,58.0,41,24,0.0,69.0
1572,41.0,28,67,0.0,79.0
1573,60.0,4,15,0.0,48.0
1574,42.0,28,60,0.0,74.0
1575,65.0,35,27,0.0,56.0
1576,40.0,33,68,0.0,79.0
1577,57.0,42,41,0.0,61.0
1578,60.0,37,12,0.0,40.0
1579,65.0,2,12,0.0,49.0
1580,41.0,31,60,0.0,79.0
1581,63.0,0,22,0.0,40.0
1582,46.0,34,55,0.0,77.0
1583,58.0,57,29,0.0,59.0
1584,65.0,2,10,0.0,41.0
1585,70.0,46,17,0.0,45.0
1586,62.0,44,26,0.0,76.0
1587,74.0,46,23,0.0,87.0
1588,70.0,2,24,0.0,61.0
1589,58.0,55,120,0.0,78.0
1590,66.0,51,28,0.0,85.0
1591,70.0,2,16,0.0,77.0
1592,75.0,2,22,0.0,66.0
1593,78.0,40,26,0.0,90.0
1594,63.0,43,134,0.0,92.0
1595,67.0,44,32,0.0,85.0
1596,70.0,1,16,0.0,72.0
1597,79.0,44,21,0.0,93.0
1598,75.0,2,23,0.0,65.0
1599,61.0,46,121,0.0,90.0
1600,68.0,56,33,0.0,75.0
1601,68.0,0,12,0.0,28.0
1602,71.0,1,16,0.0,62.0
1603,80.0,39,26,0.0,89.0
1604,75.0,4,26,0.0,63.0
1605,59.0,55,133,0.0,96.0
1606,63.0,47,23,0.0,82.0
1607,58.0,39,93,0.0,87.0
1608,68.0,2,14,0.0,45.0
1609,71.0,5,19,0.0,62.0
1610,75.0,37,36,0.0,81.0
1611,56.0,15,39,0.0,85.0
1612,59.0,41,64,0.0,93.0
1613,63.0,42,33,0.0,70.0
1614,66.0,3,21,0.0,47.0
1615,60.0,24,60,0.0,88.0
1616,71.0,1,27,0.0,63.0
1617,75.0,34,35,0.0,74.0
1618,61.0,34,64,0.0,95.0
1619,63.0,40,33,0.0,72.0
1620,57.0,29,51,0.0,88.0
1621,66.0,2,21,0.0,50.0
1622,71.0,1,21,0.0,63.0
1623,75.0,33,33,0.0,70.0
1624,57.0,52,85,0.0,88.0
1625,64.0,48,40,0.0,66.0
1626,76.0,2,12,0.0,68.0
1627,71.0,33,25,0.0,52.0
1628,56.0,27,66,0.0,88.0
1629,59.0,44,30,0.0,73.0
1630,54.0,33,75,0.0,84.0
1631,71.0,3,10,0.0,62.0
1632,52.0,32,56,0.0,89.0
1633,64.0,2,22,0.0,69.0
1634,68.0,33,30,0.0,58.0
1635,59.0,52,60,0.0,61.0
1636,71.0,43,29,0.0,81.0
1637,64.0,4,34,0.0,66.0
1638,56.0,37,153,0.0,84.0
1639,70.0,52,81,0.0,69.0
1640,58.0,52,36,0.0,61.0
1641,65.0,4,16,0.0,56.0
1642,68.0,44,30,0.0,61.0
1643,50.0,4,146,0.0,68.0
1644,58.0,45,33,0.0,50.0
1645,63.0,50,38,0.0,64.0
1646,54.0,47,147,0.0,78.0
1647,65.0,54,48,0.0,68.0
1648,54.0,44,35,0.0,50.0
1649,68.0,43,31,0.0,55.0
1650,66.0,4,26,0.0,65.0
1651,59.0,24,45,0.0,48.0
1652,45.0,4,172,0.0,70.0
1653,53.0,52,29,0.0,62.0
1654,46.0,69,126,0.0,64.0
1655,63.0,49,29,0.0,70.0
1656,58.0,4,27,0.0,50.0
1657,53.0,48,28,0.0,71.0
1658,62.0,49,8,0.0,59.0
1659,58.0,3,9,0.0,33.0
1660,46.0,50,134,0.0,78.0
1661,45.0,39,65,0.0,73.0
1662,46.0,56,43,0.0,78.0
1663,47.0,43,47,0.0,80.0
1664,46.0,45,26,0.0,84.0
1665,54.0,52,62,0.0,75.0
1666,53.0,47,42,0.0,73.0
1667,54.0,55,35,0.0,73.0
1668,46.0,53,127,0.0,70.0
1669,59.0,4,25,0.0,64.0
1670,65.0,45,137,0.0,79.0
1671,46.0,50,117,0.0,80.0
1672,54.0,56,70,0.0,55.0
1673,59.0,2,10,0.0,47.0
1674,63.0,60,36,0.0,62.0
1675,45.0,58,53,0.0,73.0
1676,46.0,49,39,0.0,82.0
1677,47.0,43,51,0.0,89.0
1678,46.0,46,20,0.0,84.0
1679,56.0,48,49,0.0,77.0
1680,54.0,54,48,0.0,74.0
1681,46.0,61,102,0.0,68.0
1682,56.0,59,72,0.0,66.0
1683,59.0,9,93,0.0,57.0
1684,66.0,48,164,0.0,77.0
1685,56.0,64,43,0.0,62.0
1686,46.0,56,117,0.0,78.0
1687,59.0,2,10,0.0,63.0
1688,64.0,62,27,0.0,69.0
1689,59.0,91,97,0.0,83.0
1690,58.0,93,76,0.0,82.0
1691,56.0,68,59,0.0,89.0
1692,54.0,52,45,0.0,83.0
1693,52.0,51,50,0.0,86.0
1694,51.0,50,63,0.0,89.0
1695,59.0,1,14,0.0,55.0
1696,62.0,68,52,0.0,68.0
1697,52.0,1,59,0.0,60.0
1698,51.0,1,51,0.0,58.0
1699,63.0,58,91,0.0,78.0
1700,64.0,56,42,0.0,79.0
1701,56.0,1,179,0.0,51.0
1702,50.0,4,64,0.0,63.0
1703,49.0,5,56,0.0,43.0
1704,56.0,74,90,0.0,27.0
1705,59.0,1,87,0.0,34.0
1706,65.0,0,108,0.0,75.0
1707,50.0,63,48,0.0,63.0
1708,49.0,53,48,0.0,54.0
1709,48.0,58,50,0.0,70.0
1710,47.0,51,43,0.0,66.0
1711,46.0,59,66,0.0,54.0
1712,47.0,77,85,0.0,51.0
1713,39.0,87,76,0.0,51.0
1714,41.0,84,73,0.0,44.0
1715,70.0,119,72,0.0,59.0
1716,42.0,4,69,0.0,47.0
1717,71.0,69,40,0.0,68.0
1718,72.0,51,39,0.0,79.0
1719,75.0,49,27,0.0,79.0
1720,66.0,6,24,0.0,50.0
1721,58.0,3,29,0.0,43.0
1722,73.0,38,36,0.0,79.0
1723,82.0,42,35,0.0,83.0
1724,49.0,2,37,0.0,58.0
1725,83.0,45,26,0.0,79.0
1726,54.0,5,37,0.0,47.0
1727,66.0,6,25,0.0,51.0
1728,82.0,37,32,0.0,81.0
1729,58.0,35,25,0.0,49.0
1730,77.0,1,27,0.0,88.0
1731,66.0,40,22,0.0,45.0
1732,78.0,3,29,0.0,89.0
1733,75.0,5,29,0.0,90.0
1734,58.0,34,35,0.0,52.0
1735,78.0,41,33,0.0,92.0
1736,49.0,2,47,0.0,49.0
1737,77.0,53,35,0.0,90.0
1738,56.0,3,40,0.0,53.0
1739,68.0,48,27,0.0,63.0
1740,65.0,4,27,0.0,62.0
1741,71.0,37,27,0.0,82.0
1742,59.0,8,21,0.0,49.0
1743,65.0,30,20,0.0,56.0
1744,73.0,0,33,0.0,83.0
1745,59.0,31,18,0.0,52.0
1746,77.0,9,26,0.0,93.0
1747,75.0,2,24,0.0,93.0
1748,49.0,38,31,0.0,50.0
1749,77.0,34,22,0.0,76.0
1750,75.0,10,36,0.0,78.0
1751,56.0,4,41,0.0,51.0
1752,74.0,37,27,0.0,83.0
1753,65.0,10,23,0.0,50.0
1754,68.0,30,32,0.0,77.0
1755,59.0,5,30,0.0,50.0
1756,65.0,2,18,0.0,39.0
1757,70.0,38,28,0.0,83.0
1758,59.0,31,31,0.0,62.0
1759,73.0,6,30,0.0,83.0
1760,72.0,42,37,0.0,87.0
1761,50.0,2,41,0.0,42.0
1762,71.0,45,48,0.0,74.0
1763,51.0,10,40,0.0,51.0
1764,66.0,38,27,0.0,66.0
1765,63.0,8,23,0.0,53.0
1766,54.0,7,22,0.0,52.0
1767,68.0,33,35,0.0,79.0
1768,63.0,0,27,0.0,56.0
1769,69.0,34,49,0.0,85.0
1770,70.0,39,31,0.0,91.0
1771,54.0,3,30,0.0,39.0
1772,78.0,0,31,0.0,87.0
1773,46.0,39,38,0.0,49.0
1774,77.0,46,33,0.0,89.0
1775,51.0,0,43,0.0,55.0
1776,63.0,4,25,0.0,61.0
1777,76.0,41,33,0.0,90.0
1778,54.0,7,25,0.0,50.0
1779,75.0,36,33,0.0,92.0
1780,74.0,33,27,0.0,85.0
1781,63.0,0,28,0.0,52.0
1782,75.0,4,30,0.0,92.0
1783,54.0,34,37,0.0,55.0
1784,71.0,39,19,0.0,75.0
1785,46.0,9,35,0.0,46.0
1786,73.0,23,26,0.0,64.0
1787,53.0,3,31,0.0,61.0
1788,71.0,17,38,0.0,86.0
1789,62.0,40,21,0.0,65.0
1790,65.0,3,62,0.0,71.0
1791,56.0,38,26,0.0,61.0
1792,68.0,2,24,0.0,89.0
1793,62.0,37,20,0.0,46.0
1794,70.0,1,34,0.0,88.0
1795,56.0,32,29,0.0,48.0
1796,73.0,8,29,0.0,91.0
1797,46.0,41,38,0.0,47.0
1798,72.0,3,37,0.0,93.0
1799,71.0,41,42,0.0,79.0
1800,62.0,4,24,0.0,59.0
1801,53.0,3,88,0.0,51.0
1802,69.0,41,28,0.0,79.0
1803,56.0,4,38,0.0,47.0
1804,62.0,6,23,0.0,42.0
1805,70.0,42,31,0.0,73.0
1806,71.0,39,33,0.0,73.0
1807,56.0,1,34,0.0,49.0
1808,65.0,47,184,0.0,62.0
1809,68.0,48,23,0.0,70.0
1810,46.0,5,57,0.0,45.0
1811,51.0,7,42,0.0,45.0
1812,58.0,0,35,0.0,47.0
1813,63.0,50,45,0.0,66.0
1814,51.0,39,26,0.0,55.0
1815,61.0,2,38,0.0,62.0
1816,58.0,47,23,0.0,49.0
1817,66.0,61,183,0.0,87.0
1818,44.0,8,35,0.0,55.0
1819,60.0,1,64,0.0,73.0
1820,65.0,40,32,0.0,87.0
1821,56.0,4,31,0.0,47.0
1822,51.0,8,6,0.0,54.0
1823,66.0,41,31,0.0,88.0
1824,70.0,48,45,0.0,84.0
1825,54.0,3,39,0.0,50.0
1826,68.0,42,33,0.0,81.0
1827,53.0,7,33,0.0,55.0
1828,54.0,4,35,0.0,58.0
1829,63.0,39,40,0.0,82.0
1830,61.0,43,42,0.0,78.0
1831,65.0,45,20,0.0,64.0
1832,56.0,1,74,0.0,49.0
1833,59.0,4,213,0.0,63.0
1834,49.0,0,216,0.0,49.0
1835,63.0,8,45,0.0,81.0
1836,61.0,49,24,0.0,65.0
1837,42.0,28,21,0.0,52.0
1838,58.0,32,50,0.0,70.0
1839,61.0,0,17,0.0,62.0
1840,58.0,48,17,0.0,50.0
1841,54.0,0,17,0.0,50.0
1842,62.0,1,20,0.0,78.0
1843,58.0,0,31,0.0,58.0
1844,63.0,44,29,0.0,84.0
1845,70.0,10,165,0.0,86.0
1846,54.0,42,86,0.0,46.0
1847,58.0,1,46,0.0,62.0
1848,69.0,43,30,0.0,93.0
1849,70.0,44,73,0.0,103.0
1850,41.0,61,25,0.0,63.0
1851,73.0,3,35,0.0,97.0
1852,53.0,3,8,0.0,59.0
1853,63.0,3,16,0.0,59.0
1854,57.0,4,13,0.0,39.0
1855,72.0,50,34,0.0,100.0
1856,58.0,4,9,0.0,51.0
1857,63.0,5,9,0.0,41.0
1858,53.0,2,10,0.0,47.0
1859,66.0,33,28,0.0,90.0
1860,65.0,38,43,0.0,88.0
1861,68.0,28,20,0.0,82.0
1862,60.0,1,72,0.0,62.0
1863,63.0,4,75,0.0,37.0
1864,53.0,8,68,0.0,33.0
1865,66.0,14,38,0.0,88.0
1866,65.0,42,30,0.0,82.0
1867,46.0,1,15,0.0,68.0
1868,58.0,6,8,0.0,50.0
1869,65.0,1,7,0.0,66.0
1870,61.0,47,20,0.0,49.0
1871,61.0,2,6,0.0,56.0
1872,58.0,0,18,0.0,55.0
1873,66.0,36,22,0.0,83.0
1874,73.0,53,114,0.0,98.0
1875,57.0,5,38,0.0,69.0
1876,67.0,0,47,0.0,88.0
1877,61.0,45,58,0.0,76.0
1878,75.0,41,25,0.0,98.0
1879,76.0,41,37,0.0,99.0
1880,56.0,47,20,0.0,61.0
1881,68.0,0,20,0.0,58.0
1882,61.0,1,24,0.0,57.0
1883,77.0,2,33,0.0,104.0
1884,78.0,45,38,0.0,98.0
1885,80.0,46,21,0.0,103.0
1886,55.0,16,19,0.0,70.0
1887,64.0,16,28,0.0,58.0
1888,70.0,5,16,0.0,64.0
1889,82.0,9,22,0.0,96.0
1890,61.0,18,53,0.0,60.0
1891,84.0,47,34,0.0,93.0
1892,85.0,52,25,0.0,88.0
1893,32.0,64,19,0.0,54.0
1894,61.0,2,7,0.0,44.0
1895,66.0,1,10,0.0,57.0
1896,56.0,60,11,0.0,45.0
1897,66.0,0,21,0.0,57.0
1898,61.0,46,25,0.0,45.0
1899,78.0,64,61,0.0,84.0
1900,60.0,4,85,0.0,56.0
1901,56.0,0,91,0.0,49.0
1902,66.0,1,92,0.0,49.0
1903,75.0,63,40,0.0,86.0
1904,77.0,48,51,0.0,89.0
1905,49.0,49,21,0.0,58.0
1906,73.0,5,34,0.0,83.0
1907,65.0,53,13,0.0,46.0
1908,68.0,9,417,0.0,83.0
1909,75.0,3,30,0.0,87.0
1910,59.0,1,36,0.0,55.0
1911,49.0,1,9,0.0,34.0
1912,70.0,54,28,0.0,76.0
1913,71.0,64,66,0.0,68.0
1914,65.0,6,126,0.0,47.0
1915,73.0,68,60,0.0,68.0
1916,59.0,0,130,0.0,38.0
1917,68.0,66,60,0.0,59.0
1918,42.0,8,23,0.0,52.0
1919,70.0,77,37,0.0,70.0
1920,66.0,7,23,0.0,57.0
1921,71.0,59,31,0.0,75.0
1922,69.0,4,9,0.0,60.0
1923,72.0,41,28,0.0,82.0
1924,58.0,3,26,0.0,45.0
1925,71.0,0,19,0.0,70.0
1926,66.0,2,21,0.0,58.0
1927,75.0,39,29,0.0,78.0
1928,70.0,45,13,0.0,66.0
1929,73.0,1,15,0.0,80.0
1930,58.0,1,35,0.0,57.0
1931,73.0,2,16,0.0,79.0
1932,82.0,39,28,0.0,86.0
1933,49.0,3,20,0.0,48.0
1934,61.0,7,24,0.0,50.0
1935,75.0,2,19,0.0,76.0
1936,83.0,34,22,0.0,91.0
1937,54.0,3,29,0.0,46.0
1938,73.0,8,8,0.0,68.0
1939,82.0,35,27,0.0,85.0
1940,66.0,0,24,0.0,65.0
1941,68.0,2,23,0.0,70.0
1942,77.0,0,23,0.0,96.0
1943,58.0,37,26,0.0,62.0
1944,66.0,35,23,0.0,59.0
1945,78.0,7,21,0.0,91.0
1946,70.0,0,21,0.0,70.0
1947,66.0,6,8,0.0,39.0
1948,75.0,1,26,0.0,91.0
1949,58.0,38,37,0.0,55.0
1950,70.0,5,7,0.0,64.0
1951,78.0,2,24,0.0,92.0
1952,61.0,0,42,0.0,56.0
1953,49.0,36,42,0.0,56.0
1954,71.0,7,30,0.0,56.0
1955,77.0,0,84,0.0,90.0
1956,68.0,0,30,0.0,50.0
1957,65.0,48,32,0.0,66.0
1958,56.0,56,89,0.0,55.0
1959,59.0,43,27,0.0,58.0
1960,71.0,0,31,0.0,77.0
1961,65.0,0,19,0.0,50.0
1962,68.0,4,19,0.0,47.0
1963,73.0,35,39,0.0,84.0
1964,59.0,34,24,0.0,52.0
1965,77.0,0,31,0.0,91.0
1966,71.0,2,31,0.0,55.0
1967,49.0,2,25,0.0,42.0
1968,75.0,44,30,0.0,91.0
1969,61.0,4,33,0.0,38.0
1970,77.0,28,28,0.0,70.0
1971,65.0,1,66,0.0,74.0
1972,75.0,0,35,0.0,82.0
1973,71.0,16,35,0.0,53.0
1974,56.0,0,43,0.0,58.0
1975,65.0,2,9,0.0,55.0
1976,68.0,6,23,0.0,65.0
1977,74.0,45,30,0.0,88.0
1978,68.0,32,33,0.0,53.0
1979,73.0,0,33,0.0,78.0
1980,59.0,6,29,0.0,60.0
1981,65.0,2,21,0.0,55.0
1982,68.0,0,21,0.0,62.0
1983,72.0,36,30,0.0,91.0
1984,68.0,3,14,0.0,71.0
1985,59.0,41,27,0.0,49.0
1986,73.0,3,24,0.0,92.0
1987,65.0,4,14,0.0,71.0
1988,50.0,3,32,0.0,51.0
1989,51.0,4,29,0.0,49.0
1990,71.0,44,90,0.0,88.0
1991,66.0,48,40,0.0,79.0
1992,63.0,5,15,0.0,51.0
1993,58.0,49,22,0.0,56.0
1994,66.0,7,12,0.0,39.0
1995,54.0,5,23,0.0,52.0
1996,70.0,34,30,0.0,83.0
1997,58.0,5,8,0.0,50.0
1998,63.0,1,22,0.0,61.0
1999,69.0,30,35,0.0,89.0
2000,54.0,36,18,0.0,62.0
2001,70.0,2,18,0.0,82.0
2002,66.0,0,18,0.0,51.0
2003,70.0,34,36,0.0,85.0
2004,58.0,20,26,0.0,52.0
2005,46.0,0,26,0.0,50.0
2006,78.0,2,32,0.0,89.0
2007,68.0,4,19,0.0,65.0
2008,51.0,39,24,0.0,39.0
2009,77.0,1,22,0.0,84.0
2010,67.0,4,8,0.0,50.0
2011,76.0,2,22,0.0,97.0
2012,63.0,41,25,0.0,59.0
2013,66.0,2,9,0.0,59.0
2014,54.0,2,21,0.0,66.0
2015,75.0,33,27,0.0,90.0
2016,63.0,35,19,0.0,55.0
2017,74.0,3,25,0.0,95.0
2018,75.0,3,20,0.0,93.0
2019,54.0,0,38,0.0,63.0
2020,66.0,39,38,0.0,63.0
2021,46.0,42,46,0.0,51.0
2022,58.0,0,46,0.0,51.0
2023,71.0,0,64,0.0,91.0
2024,63.0,0,64,0.0,65.0
2025,62.0,46,26,0.0,75.0
2026,70.0,5,12,0.0,69.0
2027,53.0,14,26,0.0,51.0
2028,71.0,11,12,0.0,73.0
2029,70.0,12,26,0.0,83.0
2030,68.0,0,26,0.0,60.0
2031,65.0,6,20,0.0,56.0
2032,56.0,2,27,0.0,62.0
2033,62.0,0,29,0.0,52.0
2034,69.0,36,29,0.0,85.0
2035,65.0,40,20,0.0,62.0
2036,68.0,4,23,0.0,74.0
2037,70.0,0,35,0.0,86.0
2038,56.0,31,35,0.0,57.0
2039,73.0,0,29,0.0,88.0
2040,62.0,8,29,0.0,51.0
2041,68.0,43,26,0.0,72.0
2042,58.0,0,38,0.0,50.0
2043,46.0,0,38,0.0,50.0
2044,72.0,1,44,0.0,82.0
2045,68.0,3,19,0.0,58.0
2046,65.0,0,19,0.0,52.0
2047,71.0,41,28,0.0,77.0
2048,53.0,0,71,0.0,57.0
2049,62.0,46,71,0.0,57.0
2050,62.0,37,10,0.0,50.0
2051,70.0,0,25,0.0,81.0
2052,56.0,1,31,0.0,65.0
2053,69.0,42,24,0.0,88.0
2054,68.0,0,24,0.0,50.0
2055,65.0,0,28,0.0,66.0
2056,62.0,6,13,0.0,51.0
2057,56.0,43,25,0.0,57.0
2058,70.0,2,31,0.0,81.0
2059,68.0,35,27,0.0,78.0
2060,58.0,3,45,0.0,50.0
2061,46.0,0,45,0.0,48.0
2062,51.0,5,38,0.0,55.0
2063,65.0,5,120,0.0,59.0
2064,63.0,40,44,0.0,66.0
2065,51.0,39,17,0.0,49.0
2066,61.0,2,38,0.0,69.0
2067,66.0,50,159,0.0,87.0
2068,44.0,2,29,0.0,41.0
2069,58.0,5,120,0.0,52.0
2070,60.0,48,43,0.0,73.0
2071,60.0,8,12,0.0,16.0
2072,56.0,1,30,0.0,54.0
2073,65.0,43,39,0.0,88.0
2074,51.0,36,18,0.0,72.0
2075,66.0,1,35,0.0,90.0
2076,54.0,0,41,0.0,61.0
2077,70.0,53,66,0.0,84.0
2078,53.0,11,26,0.0,60.0
2079,68.0,40,40,0.0,81.0
2080,63.0,1,33,0.0,78.0
2081,54.0,38,38,0.0,60.0
2082,61.0,49,39,0.0,76.0
2083,65.0,41,24,0.0,66.0
2084,59.0,5,211,0.0,62.0
2085,56.0,1,95,0.0,54.0
2086,49.0,1,241,0.0,55.0
2087,63.0,13,47,0.0,86.0
2088,61.0,51,18,0.0,77.0
2089,30.0,7,21,0.0,70.0
2090,54.0,9,9,0.0,57.0
2091,64.0,54,19,0.0,60.0
2092,61.0,2,9,0.0,51.0
2093,54.0,1,11,0.0,68.0
2094,61.0,2,13,0.0,74.0
2095,64.0,36,20,0.0,71.0
2096,61.0,48,41,0.0,74.0
2097,70.0,64,209,0.0,91.0
2098,54.0,1,49,0.0,63.0
2099,68.0,49,51,0.0,93.0
2100,64.0,1,122,0.0,77.0
2101,70.0,57,66,0.0,99.0
2102,64.0,6,32,0.0,73.0
2103,73.0,76,64,0.0,91.0
2104,55.0,2,71,0.0,64.0
2105,63.0,4,49,0.0,72.0
2106,56.0,5,54,0.0,60.0
2107,71.0,60,63,0.0,88.0
2108,61.0,2,9,0.0,64.0
2109,58.0,4,10,0.0,51.0
2110,70.0,96,17,0.0,74.0
2111,61.0,1,41,0.0,58.0
2112,67.0,4,55,0.0,59.0
2113,58.0,8,49,0.0,47.0
2114,70.0,23,83,0.0,83.0
2115,59.0,8,54,0.0,51.0
2116,47.0,3,345,0.0,52.0
2117,68.0,72,68,0.0,76.0
2118,63.0,4,104,0.0,60.0
2119,75.0,78,32,0.0,78.0
2120,62.0,62,23,0.0,59.0
2121,61.0,44,28,0.0,58.0
2122,60.0,41,35,0.0,73.0
2123,66.0,4,186,0.0,43.0
2124,68.0,87,212,0.0,69.0
2125,59.0,43,41,0.0,69.0
2126,63.0,3,252,0.0,52.0
2127,58.0,4,23,0.0,69.0
2128,70.0,37,45,0.0,88.0
2129,73.0,0,40,0.0,95.0
2130,56.0,54,51,0.0,60.0
2131,51.0,51,35,0.0,48.0
2132,71.0,2,38,0.0,87.0
2133,47.0,43,8,0.0,47.0
2134,70.0,41,14,0.0,76.0
2135,70.0,9,55,0.0,73.0
2136,63.0,27,97,0.0,34.0
2137,68.0,65,59,0.0,69.0
2138,66.0,3,149,0.0,52.0
2139,75.0,64,28,0.0,78.0
2140,62.0,51,31,0.0,68.0
2141,61.0,45,28,0.0,63.0
2142,60.0,38,33,0.0,82.0
2143,68.0,70,192,0.0,72.0
2144,66.0,4,188,0.0,51.0
2145,59.0,39,35,0.0,78.0
2146,63.0,0,226,0.0,37.0
2147,58.0,6,16,0.0,64.0
2148,70.0,36,39,0.0,91.0
2149,73.0,3,48,0.0,98.0
2150,56.0,50,64,0.0,42.0
2151,51.0,46,50,0.0,55.0
2152,71.0,15,39,0.0,91.0
2153,47.0,45,9,0.0,49.0
2154,70.0,43,17,0.0,83.0
2155,70.0,38,67,0.0,65.0
2156,68.0,76,35,0.0,63.0
2157,63.0,1,135,0.0,41.0
2158,78.0,99,23,0.0,69.0
2159,66.0,1,201,0.0,50.0
2160,66.0,3,88,0.0,50.0
2161,63.0,2,90,0.0,39.0
2162,35.0,11,79,0.0,29.0
2163,68.0,151,103,0.0,65.0
2164,66.0,5,59,0.0,48.0
2165,61.0,0,64,0.0,46.0
2166,70.0,154,82,0.0,73.0
2167,37.0,4,90,0.0,32.0
2168,49.0,4,100,0.0,38.0
2169,66.0,2,76,0.0,45.0
2170,71.0,148,85,0.0,79.0
2171,39.0,4,77,0.0,36.0
2172,51.0,4,89,0.0,43.0
2173,59.0,2,95,0.0,58.0
2174,59.0,4,71,0.0,56.0
2175,41.0,1,66,0.0,50.0
2176,61.0,0,84,0.0,48.0
2177,68.0,139,88,0.0,74.0
2178,53.0,8,77,0.0,47.0
2179,54.0,4,81,0.0,37.0
2180,58.0,0,89,0.0,34.0
2181,70.0,139,95,0.0,78.0
2182,42.0,2,93,0.0,39.0
2183,61.0,5,113,0.0,45.0
2184,59.0,6,73,0.0,50.0
2185,47.0,0,132,0.0,59.0
2186,54.0,0,147,0.0,34.0
2187,63.0,129,156,0.0,70.0
2188,58.0,3,95,0.0,34.0
2189,66.0,157,152,0.0,64.0
2190,61.0,1,238,0.0,39.0
2191,56.0,6,79,0.0,20.0
2192,49.0,2,268,0.0,43.0
2193,65.0,167,99,0.0,58.0
2194,47.0,5,34,0.0,50.0
2195,54.0,1,49,0.0,38.0
2196,63.0,1,62,0.0,57.0
2197,50.0,63,22,0.0,61.0
2198,62.0,4,28,0.0,56.0
2199,49.0,39,31,0.0,57.0
2200,61.0,4,32,0.0,54.0
2201,48.0,45,18,0.0,52.0
2202,68.0,173,183,0.0,65.0
2203,60.0,0,27,0.0,64.0
2204,59.0,3,11,0.0,68.0
2205,47.0,33,26,0.0,57.0
2206,70.0,4,18,0.0,89.0
2207,46.0,40,34,0.0,55.0
2208,56.0,3,16,0.0,70.0
2209,44.0,1,17,0.0,68.0
2210,63.0,3,24,0.0,64.0
2211,73.0,49,29,0.0,91.0
2212,66.0,0,34,0.0,46.0
2213,51.0,8,9,0.0,74.0
2214,39.0,5,7,0.0,42.0
2215,71.0,43,44,0.0,84.0
2216,32.0,34,8,0.0,74.0
2217,44.0,0,14,0.0,73.0
2218,70.0,31,15,0.0,81.0
2219,70.0,29,56,0.0,78.0
2220,68.0,64,76,0.0,70.0
2221,66.0,2,149,0.0,59.0
2222,75.0,66,24,0.0,75.0
2223,66.0,7,29,0.0,24.0
2224,63.0,3,46,0.0,43.0
2225,68.0,77,60,0.0,69.0
2226,51.0,0,270,0.0,56.0
2227,62.0,55,27,0.0,60.0
2228,50.0,1,29,0.0,58.0
2229,61.0,42,23,0.0,56.0
2230,49.0,0,28,0.0,52.0
2231,60.0,41,24,0.0,63.0
2232,48.0,4,32,0.0,60.0
2233,59.0,34,17,0.0,74.0
2234,47.0,7,29,0.0,69.0
2235,58.0,2,7,0.0,61.0
2236,45.0,2,9,0.0,51.0
2237,70.0,37,16,0.0,89.0
2238,63.0,1,16,0.0,76.0
2239,56.0,3,18,0.0,62.0
2240,44.0,1,19,0.0,56.0
2241,73.0,52,29,0.0,95.0
2242,51.0,8,8,0.0,64.0
2243,39.0,2,11,0.0,55.0
2244,71.0,45,52,0.0,93.0
2245,32.0,1,7,0.0,63.0
2246,44.0,38,10,0.0,60.0
2247,70.0,33,15,0.0,82.0
2248,51.0,6,54,0.0,59.0
2249,70.0,38,64,0.0,84.0
2250,66.0,2,76,0.0,66.0
2251,68.0,62,21,0.0,86.0
2252,78.0,2,17,0.0,60.0
2253,90.0,134,32,0.0,68.0
2254,66.0,8,72,0.0,36.0
2255,63.0,0,72,0.0,29.0
2256,35.0,4,72,0.0,31.0
2257,47.0,2,84,0.0,30.0
2258,68.0,338,96,0.0,64.0
2259,61.0,4,59,0.0,45.0
2260,66.0,1,63,0.0,41.0
2261,37.0,4,65,0.0,33.0
2262,70.0,150,81,0.0,70.0
2263,49.0,4,80,0.0,38.0
2264,71.0,133,73,0.0,79.0
2265,59.0,3,75,0.0,49.0
2266,39.0,3,71,0.0,33.0
2267,66.0,5,76,0.0,45.0
2268,51.0,2,85,0.0,39.0
2269,59.0,6,66,0.0,47.0
2270,41.0,5,61,0.0,38.0
2271,53.0,4,75,0.0,56.0
2272,61.0,2,83,0.0,38.0
2273,68.0,129,92,0.0,70.0
2274,58.0,4,72,0.0,36.0
2275,70.0,127,77,0.0,75.0
2276,54.0,1,73,0.0,38.0
2277,42.0,1,77,0.0,38.0
2278,61.0,3,99,0.0,37.0
2279,59.0,8,64,0.0,34.0
2280,47.0,2,106,0.0,47.0
2281,54.0,0,110,0.0,28.0
2282,63.0,124,132,0.0,65.0
2283,58.0,5,99,0.0,35.0
2284,66.0,133,140,0.0,62.0
2285,56.0,162,76,0.0,29.0
2286,61.0,2,238,0.0,39.0
2287,49.0,1,251,0.0,41.0
2288,65.0,1,86,0.0,49.0
2289,70.0,178,67,0.0,69.0
2290,54.0,12,63,0.0,28.0
2291,66.0,46,26,0.0,52.0
2292,71.0,6,44,0.0,71.0
2293,49.0,45,17,0.0,50.0
2294,58.0,39,69,0.0,51.0
2295,73.0,5,37,0.0,81.0
2296,75.0,43,23,0.0,83.0
2297,77.0,45,31,0.0,82.0
2298,51.0,44,20,0.0,69.0
2299,78.0,1,25,0.0,84.0
2300,66.0,1,26,0.0,51.0
2301,80.0,45,33,0.0,83.0
2302,60.0,41,7,0.0,61.0
2303,56.0,1,12,0.0,55.0
2304,82.0,1,16,0.0,77.0
2305,44.0,6,24,0.0,36.0
2306,84.0,50,32,0.0,84.0
2307,85.0,39,38,0.0,89.0
2308,87.0,55,19,0.0,88.0
2309,37.0,1,15,0.0,41.0
2310,61.0,3,11,0.0,27.0
2311,66.0,65,17,0.0,54.0
2312,66.0,1,9,0.0,47.0
2313,56.0,3,11,0.0,30.0
2314,61.0,47,15,0.0,47.0
2315,61.0,2,74,0.0,39.0
2316,56.0,2,78,0.0,32.0
2317,66.0,44,89,0.0,41.0
2318,68.0,78,310,0.0,81.0
2319,49.0,1,20,0.0,61.0
2320,65.0,47,21,0.0,51.0
2321,49.0,62,11,0.0,57.0
2322,73.0,161,170,0.0,74.0
2323,59.0,4,88,0.0,31.0
2324,65.0,3,92,0.0,46.0
2325,75.0,64,109,0.0,70.0
2326,56.0,1,103,0.0,28.0
2327,73.0,111,23,0.0,62.0
2328,70.0,70,42,0.0,57.0
2329,54.0,1,91,0.0,41.0
2330,73.0,54,38,0.0,74.0
2331,66.0,2,53,0.0,54.0
2332,75.0,1,19,0.0,72.0
2333,53.0,9,8,0.0,59.0
2334,58.0,45,58,0.0,55.0
2335,77.0,40,34,0.0,86.0
2336,78.0,40,30,0.0,86.0
2337,80.0,42,52,0.0,89.0
2338,82.0,44,19,0.0,81.0
2339,51.0,1,21,0.0,73.0
2340,66.0,46,23,0.0,58.0
2341,84.0,0,27,0.0,88.0
2342,60.0,49,7,0.0,58.0
2343,56.0,0,14,0.0,58.0
2344,85.0,0,30,0.0,88.0
2345,44.0,10,35,0.0,59.0
2346,87.0,56,50,0.0,84.0
2347,89.0,48,38,0.0,88.0
2348,90.0,60,19,0.0,83.0
2349,37.0,4,20,0.0,50.0
2350,61.0,4,14,0.0,24.0
2351,66.0,70,18,0.0,46.0
2352,66.0,1,11,0.0,45.0
2353,61.0,52,16,0.0,48.0
2354,56.0,7,10,0.0,21.0
2355,56.0,0,99,0.0,39.0
2356,61.0,2,100,0.0,39.0
2357,66.0,52,107,0.0,50.0
2358,68.0,82,314,0.0,76.0
2359,49.0,3,15,0.0,57.0
2360,72.0,176,41,0.0,77.0
2361,65.0,11,15,0.0,50.0
2362,73.0,51,36,0.0,76.0
2363,59.0,1,41,0.0,35.0
2364,72.0,31,28,0.0,89.0
2365,49.0,25,22,0.0,54.0
2366,73.0,12,27,0.0,86.0
2367,77.0,31,29,0.0,82.0
2368,75.0,12,110,0.0,84.0
2369,65.0,18,98,0.0,47.0
2370,59.0,4,118,0.0,32.0
2371,56.0,13,146,0.0,48.0
2372,73.0,96,34,0.0,72.0
2373,70.0,66,44,0.0,68.0
2374,54.0,6,62,0.0,55.0
2375,66.0,5,23,0.0,51.0
2376,73.0,48,33,0.0,74.0
2377,75.0,39,24,0.0,78.0
2378,58.0,0,40,0.0,56.0
2379,49.0,0,19,0.0,64.0
2380,61.0,6,19,0.0,66.0
2381,77.0,47,32,0.0,86.0
2382,78.0,40,31,0.0,86.0
2383,80.0,47,61,0.0,84.0
2384,82.0,50,22,0.0,83.0
2385,85.0,47,29,0.0,85.0
2386,66.0,6,27,0.0,52.0
2387,54.0,4,80,0.0,50.0
2388,58.0,44,43,0.0,47.0
2389,90.0,5,48,0.0,75.0
2390,61.0,4,27,0.0,37.0
2391,49.0,1,34,0.0,39.0
2392,92.0,63,66,0.0,79.0
2393,94.0,69,23,0.0,77.0
2394,99.0,89,109,0.0,68.0
2395,25.0,8,114,0.0,37.0
2396,97.0,126,122,0.0,62.0
2397,59.0,5,75,0.0,66.0
2398,65.0,276,90,0.0,90.0
2399,49.0,2,113,0.0,60.0
2400,56.0,1,132,0.0,45.0
2401,54.0,6,64,0.0,63.0
2402,51.0,2,65,0.0,59.0
2403,58.0,3,76,0.0,74.0
2404,66.0,157,80,0.0,97.0
2405,56.0,4,67,0.0,75.0
2406,71.0,151,81,0.0,110.0
2407,44.0,2,73,0.0,66.0
2408,63.0,3,87,0.0,76.0
2409,59.0,0,88,0.0,84.0
2410,37.0,4,178,0.0,57.0
2411,49.0,3,186,0.0,77.0
2412,66.0,3,239,0.0,81.0
2413,56.0,0,240,0.0,83.0
2414,61.0,1,291,0.0,78.0
2415,68.0,167,318,0.0,99.0
2416,25.0,4,80,0.0,65.0
2417,37.0,2,91,0.0,73.0
2418,65.0,310,184,0.0,88.0
2419,59.0,1,214,0.0,82.0
2420,61.0,3,221,0.0,79.0
2421,30.0,48,43,0.0,79.0
2422,42.0,42,13,0.0,78.0
2423,66.0,216,141,0.0,93.0
2424,49.0,40,12,0.0,83.0
2425,54.0,32,211,0.0,79.0
2426,58.0,27,186,0.0,77.0
2427,66.0,47,144,0.0,95.0
