,note,step,duration,channel,velocity
0,35.0,0,24,0.0,22.0
1,75.0,0,48,0.0,45.0
2,66.0,24,24,0.0,18.0
3,54.0,24,24,0.0,23.0
4,76.0,0,36,0.0,49.0
5,75.0,12,12,0.0,47.0
6,66.0,24,24,0.0,18.0
7,58.0,0,24,0.0,21.0
8,52.0,0,24,0.0,25.0
9,66.0,24,24,0.0,18.0
10,73.0,12,48,0.0,45.0
11,54.0,24,24,0.0,23.0
12,75.0,0,48,0.0,47.0
13,66.0,24,24,0.0,18.0
14,63.0,0,24,0.0,27.0
15,59.0,0,24,0.0,21.0
16,66.0,24,24,0.0,20.0
17,71.0,24,60,0.0,38.0
18,75.0,12,12,0.0,40.0
19,54.0,24,24,0.0,20.0
20,83.0,12,12,0.0,42.0
21,66.0,0,24,0.0,20.0
22,80.0,12,12,0.0,39.0
23,58.0,0,24,0.0,20.0
24,61.0,12,24,0.0,26.0
25,66.0,24,24,0.0,20.0
26,54.0,24,24,0.0,24.0
27,78.0,0,72,0.0,38.0
28,66.0,0,24,0.0,18.0
29,76.0,24,24,0.0,36.0
30,75.0,0,22,0.0,45.0
31,47.0,24,24,0.0,27.0
32,75.0,0,8,0.0,45.0
33,76.0,8,8,0.0,48.0
34,66.0,24,24,0.0,18.0
35,78.0,8,8,0.0,51.0
36,54.0,8,24,0.0,23.0
37,76.0,0,36,0.0,49.0
38,66.0,24,24,0.0,18.0
39,75.0,12,12,0.0,47.0
40,58.0,0,24,0.0,21.0
41,52.0,12,24,0.0,25.0
42,73.0,0,48,0.0,45.0
43,66.0,24,24,0.0,18.0
44,54.0,0,24,0.0,23.0
45,75.0,24,36,0.0,47.0
46,70.0,12,10,0.0,43.0
47,66.0,24,24,0.0,18.0
48,71.0,0,12,0.0,45.0
49,73.0,12,6,0.0,47.0
50,71.0,6,4,0.0,45.0
51,59.0,12,24,0.0,21.0
52,63.0,0,24,0.0,22.0
53,73.0,4,4,0.0,47.0
54,71.0,2,10,0.0,45.0
55,66.0,2,24,0.0,25.0
56,70.0,10,12,0.0,43.0
57,71.0,0,12,0.0,45.0
58,54.0,12,24,0.0,23.0
59,75.0,12,12,0.0,49.0
60,83.0,12,12,0.0,42.0
61,80.0,12,12,0.0,41.0
62,66.0,0,24,0.0,20.0
63,58.0,0,24,0.0,19.0
64,61.0,12,24,0.0,25.0
65,66.0,24,24,0.0,20.0
66,78.0,0,72,0.0,40.0
67,54.0,24,24,0.0,25.0
68,76.0,24,22,0.0,42.0
69,66.0,0,24,0.0,20.0
70,47.0,0,24,0.0,27.0
71,54.0,24,24,0.0,26.0
72,75.0,24,48,0.0,45.0
73,57.0,0,24,0.0,29.0
74,74.0,24,36,0.0,48.0
75,75.0,12,12,0.0,51.0
76,63.0,24,24,0.0,32.0
77,46.0,12,24,0.0,31.0
78,77.0,0,36,0.0,54.0
79,77.0,12,6,0.0,52.0
80,56.0,24,24,0.0,32.0
81,80.0,6,6,0.0,56.0
82,58.0,6,24,0.0,33.0
83,78.0,0,36,0.0,62.0
84,77.0,12,12,0.0,61.0
85,62.0,24,24,0.0,36.0
86,39.0,12,24,0.0,35.0
87,75.0,0,48,0.0,63.0
88,54.0,24,24,0.0,34.0
89,58.0,0,24,0.0,36.0
90,70.0,24,48,0.0,68.0
91,63.0,24,24,0.0,37.0
92,40.0,24,24,0.0,40.0
93,52.0,24,24,0.0,39.0
94,73.0,0,48,0.0,70.0
95,56.0,24,24,0.0,38.0
96,61.0,24,10,0.0,36.0
97,68.0,0,34,0.0,54.0
98,43.0,24,12,0.0,32.0
99,71.0,12,12,0.0,32.0
100,52.0,24,24,0.0,25.0
101,71.0,0,10,0.0,36.0
102,73.0,10,10,0.0,40.0
103,59.0,12,24,0.0,23.0
104,71.0,10,9,0.0,39.0
105,70.0,5,9,0.0,38.0
106,71.0,9,10,0.0,42.0
107,64.0,4,24,0.0,25.0
108,42.0,0,12,0.0,25.0
109,75.0,10,24,0.0,44.0
110,54.0,0,24,0.0,23.0
111,75.0,24,48,0.0,42.0
112,58.0,24,24,0.0,21.0
113,64.0,24,24,0.0,19.0
114,73.0,0,24,0.0,34.0
115,47.0,24,12,0.0,23.0
116,54.0,24,48,0.0,25.0
117,65.0,0,24,0.0,25.0
118,63.0,0,24,0.0,21.0
119,71.0,0,94,0.0,34.0
120,80.0,24,48,0.0,46.0
121,54.0,24,0,0.0,25.0
122,73.0,0,48,0.0,50.0
123,70.0,24,48,0.0,30.0
124,64.0,0,48,0.0,28.0
125,54.0,24,24,0.0,25.0
126,78.0,18,6,0.0,48.0
127,69.0,0,48,0.0,30.0
128,75.0,24,48,0.0,54.0
129,60.0,0,48,0.0,27.0
130,61.0,6,24,0.0,27.0
131,76.0,0,48,0.0,44.0
132,66.0,24,24,0.0,29.0
133,75.0,0,24,0.0,42.0
134,64.0,24,24,0.0,28.0
135,73.0,0,24,0.0,40.0
136,70.0,0,96,0.0,30.0
137,54.0,24,0,0.0,25.0
138,66.0,0,48,0.0,28.0
139,63.0,24,48,0.0,27.0
140,71.0,0,48,0.0,34.0
141,54.0,24,0,0.0,25.0
142,68.0,24,48,0.0,26.0
143,65.0,0,48,0.0,29.0
144,73.0,0,48,0.0,42.0
145,70.0,0,46,0.0,36.0
146,66.0,24,48,0.0,30.0
147,54.0,24,48,0.0,25.0
148,71.0,0,48,0.0,34.0
149,80.0,24,48,0.0,50.0
150,65.0,0,48,0.0,29.0
151,54.0,24,0,0.0,25.0
152,64.0,0,48,0.0,28.0
153,70.0,0,48,0.0,40.0
154,73.0,24,48,0.0,56.0
155,54.0,24,0,0.0,25.0
156,69.0,0,48,0.0,44.0
157,75.0,0,48,0.0,60.0
158,78.0,18,6,0.0,56.0
159,60.0,24,48,0.0,27.0
160,76.0,0,48,0.0,52.0
161,61.0,0,48,0.0,27.0
162,66.0,0,24,0.0,30.0
163,54.0,24,48,0.0,25.0
164,75.0,24,24,0.0,57.0
165,64.0,0,24,0.0,29.0
166,55.0,24,24,0.0,22.0
167,70.0,6,96,0.0,46.0
168,73.0,0,24,0.0,60.0
169,56.0,0,24,0.0,23.0
170,63.0,24,24,0.0,28.0
171,71.0,0,48,0.0,50.0
172,68.0,0,48,0.0,42.0
173,59.0,24,24,0.0,27.0
174,52.0,0,24,0.0,25.0
175,61.0,16,0,0.0,36.0
176,68.0,0,44,0.0,42.0
177,59.0,24,22,0.0,27.0
178,73.0,0,0,0.0,52.0
179,42.0,4,22,0.0,23.0
180,58.0,24,24,0.0,26.0
181,66.0,4,52,0.0,40.0
182,59.0,0,24,0.0,28.0
183,68.0,12,12,0.0,34.0
184,75.0,24,48,0.0,45.0
185,58.0,0,24,0.0,27.0
186,54.0,24,48,0.0,25.0
187,64.0,0,0,0.0,24.0
188,73.0,12,48,0.0,50.0
189,54.0,24,48,0.0,23.0
190,63.0,8,4,0.0,28.0
191,63.0,4,4,0.0,26.0
192,66.0,0,88,0.0,40.0
193,66.0,4,4,0.0,30.0
194,54.0,24,22,0.0,19.0
195,74.0,24,48,0.0,38.0
196,69.0,0,48,0.0,28.0
197,71.0,4,4,0.0,34.0
198,35.0,4,24,0.0,25.0
199,75.0,0,48,0.0,40.0
200,66.0,24,24,0.0,18.0
201,54.0,0,24,0.0,23.0
202,76.0,24,36,0.0,44.0
203,66.0,24,24,0.0,18.0
204,75.0,12,12,0.0,42.0
205,52.0,12,24,0.0,25.0
206,58.0,0,24,0.0,21.0
207,73.0,0,48,0.0,40.0
208,66.0,24,24,0.0,18.0
209,54.0,0,24,0.0,23.0
210,75.0,24,48,0.0,42.0
211,66.0,24,24,0.0,18.0
212,59.0,0,24,0.0,21.0
213,63.0,0,24,0.0,27.0
214,66.0,24,24,0.0,20.0
215,71.0,24,60,0.0,38.0
216,54.0,24,24,0.0,20.0
217,75.0,12,12,0.0,36.0
218,83.0,0,12,0.0,38.0
219,66.0,12,24,0.0,20.0
220,80.0,12,12,0.0,37.0
221,61.0,12,24,0.0,26.0
222,58.0,0,24,0.0,20.0
223,66.0,24,24,0.0,20.0
224,78.0,0,72,0.0,36.0
225,54.0,24,24,0.0,24.0
226,66.0,0,24,0.0,18.0
227,76.0,24,24,0.0,36.0
228,75.0,0,22,0.0,41.0
229,47.0,24,24,0.0,27.0
230,75.0,0,8,0.0,45.0
231,76.0,8,8,0.0,48.0
232,66.0,24,24,0.0,18.0
233,78.0,8,8,0.0,51.0
234,54.0,0,24,0.0,23.0
235,76.0,8,36,0.0,49.0
236,75.0,12,12,0.0,47.0
237,66.0,24,24,0.0,18.0
238,58.0,0,24,0.0,21.0
239,52.0,0,24,0.0,25.0
240,66.0,24,24,0.0,18.0
241,73.0,12,48,0.0,45.0
242,54.0,24,24,0.0,23.0
243,75.0,0,36,0.0,44.0
244,70.0,12,10,0.0,40.0
245,66.0,24,24,0.0,18.0
246,71.0,0,4,0.0,39.0
247,73.0,6,4,0.0,41.0
248,71.0,6,4,0.0,40.0
249,70.0,6,4,0.0,39.0
250,59.0,12,24,0.0,21.0
251,63.0,0,24,0.0,22.0
252,71.0,6,4,0.0,41.0
253,75.0,6,4,0.0,43.0
254,83.0,6,4,0.0,45.0
255,80.0,6,4,0.0,43.0
256,66.0,0,24,0.0,25.0
257,78.0,0,6,0.0,41.0
258,83.0,8,2,0.0,42.0
259,85.0,2,2,0.0,44.0
260,83.0,2,4,0.0,43.0
261,82.0,6,4,0.0,42.0
262,54.0,6,24,0.0,23.0
263,83.0,0,4,0.0,44.0
264,87.0,6,4,0.0,46.0
265,95.0,6,4,0.0,44.0
266,92.0,6,4,0.0,42.0
267,66.0,6,24,0.0,20.0
268,90.0,0,6,0.0,40.0
269,58.0,0,24,0.0,19.0
270,61.0,6,24,0.0,25.0
271,66.0,24,24,0.0,20.0
272,54.0,24,24,0.0,25.0
273,76.0,0,24,0.0,42.0
274,66.0,24,24,0.0,20.0
275,47.0,0,24,0.0,27.0
276,54.0,24,24,0.0,26.0
277,75.0,24,48,0.0,45.0
278,57.0,24,24,0.0,29.0
279,74.0,0,36,0.0,48.0
280,75.0,12,12,0.0,56.0
281,63.0,24,24,0.0,32.0
282,46.0,0,24,0.0,31.0
283,77.0,12,36,0.0,56.0
284,77.0,12,6,0.0,54.0
285,56.0,24,24,0.0,30.0
286,80.0,6,6,0.0,58.0
287,58.0,6,24,0.0,33.0
288,78.0,0,36,0.0,66.0
289,62.0,24,24,0.0,36.0
290,77.0,12,12,0.0,65.0
291,39.0,12,24,0.0,35.0
292,54.0,24,24,0.0,34.0
293,75.0,0,48,0.0,63.0
294,58.0,24,24,0.0,36.0
295,63.0,24,24,0.0,37.0
296,70.0,0,48,0.0,66.0
297,40.0,0,24,0.0,40.0
298,73.0,24,48,0.0,68.0
299,52.0,24,24,0.0,39.0
300,56.0,24,24,0.0,38.0
301,61.0,24,10,0.0,35.0
302,68.0,0,34,0.0,56.0
303,31.0,24,12,0.0,25.0
304,71.0,12,12,0.0,30.0
305,52.0,24,24,0.0,23.0
306,71.0,0,10,0.0,34.0
307,73.0,10,10,0.0,38.0
308,59.0,12,24,0.0,25.0
309,71.0,10,9,0.0,37.0
310,70.0,5,9,0.0,36.0
311,64.0,4,22,0.0,27.0
312,71.0,9,10,0.0,40.0
313,30.0,10,12,0.0,25.0
314,75.0,0,24,0.0,40.0
315,54.0,0,24,0.0,25.0
316,58.0,24,24,0.0,23.0
317,75.0,24,56,0.0,42.0
318,73.0,8,8,0.0,34.0
319,64.0,24,22,0.0,21.0
320,71.0,8,8,0.0,33.0
321,35.0,8,24,0.0,24.0
322,71.0,0,46,0.0,34.0
323,54.0,24,24,0.0,20.0
324,66.0,0,24,0.0,28.0
325,63.0,0,24,0.0,24.0
326,54.0,24,24,0.0,20.0
327,78.0,24,48,0.0,44.0
328,64.0,24,24,0.0,27.0
329,61.0,0,24,0.0,23.0
330,54.0,24,24,0.0,20.0
331,76.0,0,48,0.0,56.0
332,63.0,0,24,0.0,26.0
333,59.0,0,24,0.0,22.0
334,54.0,24,22,0.0,20.0
335,75.0,24,46,0.0,60.0
336,42.0,24,24,0.0,24.0
337,49.0,24,24,0.0,26.0
338,58.0,0,24,0.0,30.0
339,54.0,24,24,0.0,26.0
340,73.0,0,96,0.0,52.0
341,49.0,24,24,0.0,26.0
342,46.0,0,24,0.0,25.0
343,75.0,24,24,0.0,44.0
344,73.0,24,24,0.0,52.0
345,49.0,0,24,0.0,27.0
346,71.0,0,24,0.0,50.0
347,54.0,24,24,0.0,26.0
348,61.0,0,24,0.0,32.0
349,49.0,0,22,0.0,27.0
350,70.0,24,24,0.0,48.0
351,37.0,0,12,0.0,24.0
352,66.0,0,24,0.0,46.0
353,71.0,24,0,0.0,44.0
354,65.0,24,24,0.0,47.0
355,49.0,0,24,0.0,26.0
356,59.0,0,24,0.0,31.0
357,53.0,0,24,0.0,27.0
358,63.0,0,24,0.0,48.0
359,49.0,24,22,0.0,26.0
360,61.0,0,24,0.0,50.0
361,71.0,24,0,0.0,44.0
362,42.0,0,24,0.0,23.0
363,49.0,24,24,0.0,24.0
364,68.0,0,48,0.0,36.0
365,58.0,0,24,0.0,28.0
366,54.0,0,24,0.0,24.0
367,66.0,24,46,0.0,30.0
368,70.0,0,46,0.0,38.0
369,49.0,24,22,0.0,24.0
370,73.0,16,4,0.0,52.0
371,42.0,24,24,0.0,28.0
372,75.0,4,4,0.0,54.0
373,49.0,0,24,0.0,27.0
374,73.0,4,24,0.0,52.0
375,70.0,0,24,0.0,40.0
376,54.0,0,24,0.0,28.0
377,72.0,0,24,0.0,58.0
378,69.0,0,24,0.0,46.0
379,58.0,24,24,0.0,32.0
380,49.0,24,22,0.0,29.0
381,73.0,0,24,0.0,60.0
382,70.0,0,24,0.0,48.0
383,70.0,24,12,0.0,50.0
384,78.0,0,12,0.0,58.0
385,42.0,0,24,0.0,32.0
386,73.0,0,10,0.0,60.0
387,70.0,12,10,0.0,54.0
388,49.0,24,24,0.0,29.0
389,70.0,12,16,0.0,48.0
390,73.0,0,16,0.0,54.0
391,61.0,0,24,0.0,32.0
392,71.0,0,16,0.0,53.0
393,68.0,16,16,0.0,47.0
394,66.0,8,14,0.0,46.0
395,49.0,8,22,0.0,27.0
396,70.0,0,14,0.0,52.0
397,66.0,0,12,0.0,48.0
398,71.0,16,12,0.0,54.0
399,37.0,0,24,0.0,28.0
400,71.0,0,12,0.0,52.0
401,65.0,12,0,0.0,45.0
402,49.0,24,24,0.0,28.0
403,71.0,0,16,0.0,51.0
404,59.0,0,24,0.0,30.0
405,53.0,0,24,0.0,26.0
406,71.0,0,16,0.0,50.0
407,63.0,16,16,0.0,43.0
408,49.0,8,22,0.0,28.0
409,61.0,8,16,0.0,41.0
410,71.0,0,0,0.0,46.0
411,42.0,0,24,0.0,30.0
412,68.0,16,48,0.0,40.0
413,49.0,24,24,0.0,30.0
414,58.0,24,24,0.0,30.0
415,50.0,24,22,0.0,40.0
416,66.0,0,46,0.0,36.0
417,70.0,0,46,0.0,42.0
418,39.0,24,24,0.0,40.0
419,46.0,24,24,0.0,40.0
420,51.0,0,24,0.0,32.0
421,54.0,0,24,0.0,34.0
422,58.0,24,24,0.0,36.0
423,46.0,24,22,0.0,40.0
424,66.0,0,24,0.0,40.0
425,70.0,0,24,0.0,46.0
426,39.0,0,24,0.0,36.0
427,68.0,24,24,0.0,46.0
428,71.0,0,24,0.0,52.0
429,70.0,24,24,0.0,50.0
430,66.0,0,24,0.0,44.0
431,46.0,0,24,0.0,34.0
432,68.0,0,24,0.0,48.0
433,65.0,0,24,0.0,42.0
434,58.0,24,24,0.0,36.0
435,46.0,0,22,0.0,34.0
436,66.0,0,24,0.0,46.0
437,63.0,24,24,0.0,40.0
438,34.0,0,24,0.0,36.0
439,63.0,0,24,0.0,40.0
440,62.0,0,24,0.0,44.0
441,68.0,0,48,0.0,48.0
442,65.0,24,48,0.0,42.0
443,46.0,24,24,0.0,34.0
444,53.0,0,24,0.0,32.0
445,59.0,24,24,0.0,44.0
446,63.0,0,24,0.0,48.0
447,56.0,0,22,0.0,32.0
448,62.0,24,24,0.0,50.0
449,58.0,0,0,0.0,34.0
450,68.0,0,0,0.0,42.0
451,39.0,0,24,0.0,34.0
452,46.0,24,24,0.0,32.0
453,65.0,24,48,0.0,38.0
454,54.0,0,24,0.0,35.0
455,63.0,24,46,0.0,34.0
456,51.0,24,22,0.0,38.0
457,66.0,0,46,0.0,40.0
458,45.0,24,24,0.0,48.0
459,64.0,24,12,0.0,50.0
460,51.0,0,24,0.0,36.0
461,68.0,8,4,0.0,48.0
462,65.0,12,12,0.0,52.0
463,66.0,0,12,0.0,50.0
464,65.0,12,12,0.0,48.0
465,60.0,4,24,0.0,38.0
466,70.0,12,12,0.0,54.0
467,53.0,0,22,0.0,36.0
468,72.0,12,12,0.0,56.0
469,46.0,12,24,0.0,38.0
470,53.0,24,24,0.0,35.0
471,61.0,24,24,0.0,32.0
472,58.0,24,22,0.0,30.0
473,73.0,0,94,0.0,52.0
474,66.0,0,24,0.0,30.0
475,72.0,4,0,0.0,34.0
476,73.0,5,5,0.0,36.0
477,72.0,5,5,0.0,34.0
478,71.0,5,4,0.0,32.0
479,58.0,0,24,0.0,24.0
480,72.0,4,5,0.0,34.0
481,51.0,24,48,0.0,26.0
482,65.0,5,24,0.0,20.0
483,75.0,0,24,0.0,36.0
484,63.0,24,22,0.0,24.0
485,73.0,12,12,0.0,32.0
486,53.0,0,48,0.0,16.0
487,57.0,0,48,0.0,18.0
488,46.0,0,24,0.0,28.0
489,70.0,12,46,0.0,28.0
490,53.0,24,24,0.0,26.0
491,61.0,24,24,0.0,34.0
492,52.0,0,22,0.0,32.0
493,56.0,24,22,0.0,36.0
494,39.0,24,24,0.0,42.0
495,62.0,24,12,0.0,52.0
496,51.0,0,24,0.0,34.0
497,66.0,8,4,0.0,50.0
498,63.0,12,12,0.0,54.0
499,64.0,0,1,0.0,52.0
500,63.0,12,12,0.0,52.0
501,55.0,4,24,0.0,26.0
502,61.0,0,24,0.0,30.0
503,68.0,0,12,0.0,54.0
504,51.0,12,22,0.0,28.0
505,70.0,12,12,0.0,52.0
506,44.0,0,24,0.0,34.0
507,51.0,24,24,0.0,31.0
508,59.0,24,24,0.0,30.0
509,56.0,0,24,0.0,26.0
510,51.0,24,22,0.0,30.0
511,71.0,12,94,0.0,50.0
512,70.0,12,12,0.0,32.0
513,64.0,24,24,0.0,27.0
514,70.0,12,5,0.0,32.0
515,71.0,5,5,0.0,34.0
516,70.0,5,5,0.0,32.0
517,69.0,5,4,0.0,30.0
518,70.0,4,5,0.0,32.0
519,56.0,0,24,0.0,24.0
520,49.0,0,48,0.0,23.0
521,63.0,5,24,0.0,26.0
522,73.0,0,36,0.0,36.0
523,61.0,24,22,0.0,24.0
524,55.0,0,48,0.0,20.0
525,71.0,12,12,0.0,32.0
526,51.0,0,48,0.0,18.0
527,44.0,0,24,0.0,26.0
528,68.0,12,46,0.0,30.0
529,51.0,24,24,0.0,26.0
530,59.0,24,24,0.0,28.0
531,56.0,0,24,0.0,26.0
532,51.0,24,22,0.0,26.0
533,39.0,24,12,0.0,28.0
534,75.0,0,94,0.0,50.0
535,67.0,0,46,0.0,34.0
536,51.0,24,0,0.0,26.0
537,62.0,0,48,0.0,30.0
538,68.0,0,48,0.0,36.0
539,51.0,24,0,0.0,25.0
540,61.0,0,48,0.0,29.0
541,70.0,24,48,0.0,44.0
542,67.0,0,48,0.0,34.0
543,51.0,24,0,0.0,24.0
544,59.0,24,48,0.0,28.0
545,75.0,18,6,0.0,54.0
546,71.0,0,48,0.0,48.0
547,68.0,0,48,0.0,36.0
548,76.0,24,144,0.0,42.0
549,58.0,6,24,0.0,28.0
550,73.0,0,48,0.0,54.0
551,63.0,0,24,0.0,32.0
552,71.0,24,24,0.0,46.0
553,61.0,24,24,0.0,30.0
554,70.0,0,24,0.0,44.0
555,67.0,0,96,0.0,36.0
556,51.0,24,0,0.0,23.0
557,68.0,0,48,0.0,46.0
558,63.0,24,48,0.0,34.0
559,59.0,0,48,0.0,28.0
560,65.0,0,48,0.0,34.0
561,70.0,0,48,0.0,46.0
562,51.0,24,24,0.0,22.0
563,62.0,24,48,0.0,27.0
564,67.0,24,46,0.0,44.0
565,63.0,0,48,0.0,25.0
566,51.0,24,48,0.0,20.0
567,62.0,24,48,0.0,28.0
568,68.0,0,48,0.0,30.0
569,51.0,24,0,0.0,24.0
570,67.0,0,48,0.0,34.0
571,61.0,24,48,0.0,29.0
572,70.0,0,48,0.0,40.0
573,59.0,0,48,0.0,30.0
574,76.0,0,144,0.0,40.0
575,75.0,18,6,0.0,46.0
576,71.0,24,48,0.0,44.0
577,68.0,0,48,0.0,36.0
578,51.0,24,0,0.0,26.0
579,58.0,0,24,0.0,30.0
580,73.0,0,48,0.0,44.0
581,71.0,24,24,0.0,44.0
582,63.0,0,24,0.0,34.0
583,70.0,24,24,0.0,44.0
584,67.0,6,96,0.0,34.0
585,61.0,0,24,0.0,32.0
586,51.0,24,0,0.0,28.0
587,68.0,0,48,0.0,48.0
588,63.0,24,48,0.0,34.0
589,59.0,0,48,0.0,30.0
590,51.0,24,22,0.0,26.0
591,62.0,24,46,0.0,32.0
592,65.0,0,48,0.0,36.0
593,70.0,0,48,0.0,50.0
594,39.0,24,24,0.0,36.0
595,55.0,24,24,0.0,34.0
596,67.0,0,48,0.0,52.0
597,58.0,0,24,0.0,36.0
598,63.0,24,22,0.0,36.0
599,75.0,24,48,0.0,63.0
600,40.0,24,24,0.0,40.0
601,52.0,24,24,0.0,36.0
602,73.0,0,48,0.0,60.0
603,56.0,24,24,0.0,38.0
604,68.0,0,34,0.0,55.0
605,61.0,24,10,0.0,34.0
606,31.0,24,12,0.0,30.0
607,71.0,12,12,0.0,30.0
608,52.0,24,24,0.0,23.0
609,71.0,0,10,0.0,34.0
610,73.0,10,10,0.0,38.0
611,59.0,12,24,0.0,25.0
612,71.0,10,9,0.0,37.0
613,70.0,5,9,0.0,36.0
614,64.0,4,22,0.0,27.0
615,71.0,9,10,0.0,40.0
616,30.0,0,12,0.0,25.0
617,75.0,24,0,0.0,46.0
618,54.0,0,24,0.0,23.0
619,58.0,24,24,0.0,30.0
620,64.0,0,22,0.0,28.0
621,73.0,24,24,0.0,58.0
622,36.0,24,24,0.0,40.0
623,48.0,24,24,0.0,38.0
624,56.0,24,24,0.0,36.0
625,63.0,24,22,0.0,34.0
626,78.0,0,96,0.0,66.0
627,37.0,24,24,0.0,32.0
628,49.0,24,24,0.0,35.0
629,59.0,0,24,0.0,35.0
630,65.0,24,22,0.0,34.0
631,77.0,0,94,0.0,62.0
632,68.0,24,48,0.0,50.0
633,42.0,24,24,0.0,34.0
634,54.0,24,24,0.0,36.0
635,58.0,0,24,0.0,38.0
636,64.0,24,22,0.0,36.0
637,76.0,24,48,0.0,60.0
638,47.0,0,24,0.0,38.0
639,70.0,0,142,0.0,52.0
640,75.0,24,48,0.0,56.0
641,54.0,24,24,0.0,40.0
642,59.0,0,24,0.0,42.0
643,63.0,24,22,0.0,40.0
644,71.0,24,48,0.0,56.0
645,40.0,0,16,0.0,40.0
646,68.0,24,24,0.0,60.0
647,52.0,16,16,0.0,44.0
648,56.0,16,16,0.0,46.0
649,63.0,0,24,0.0,42.0
650,61.0,24,24,0.0,40.0
651,83.0,16,70,0.0,62.0
652,82.0,24,12,0.0,42.0
653,68.0,24,46,0.0,38.0
654,80.0,12,12,0.0,44.0
655,76.0,12,12,0.0,44.0
656,75.0,12,12,0.0,42.0
657,73.0,12,12,0.0,40.0
658,71.0,12,10,0.0,38.0
659,70.0,4,5,0.0,32.0
660,71.0,4,5,0.0,31.0
661,70.0,4,5,0.0,30.0
662,71.0,4,5,0.0,33.0
663,70.0,4,5,0.0,32.0
664,71.0,4,5,0.0,35.0
665,70.0,4,5,0.0,33.0
666,71.0,4,5,0.0,36.0
667,70.0,4,5,0.0,34.0
668,71.0,4,5,0.0,36.0
669,70.0,4,5,0.0,34.0
670,71.0,4,5,0.0,36.0
671,30.0,12,54,0.0,35.0
672,70.0,4,5,0.0,35.0
673,71.0,0,5,0.0,37.0
674,70.0,4,5,0.0,35.0
675,71.0,4,5,0.0,37.0
676,70.0,4,5,0.0,35.0
677,71.0,4,5,0.0,37.0
678,70.0,4,5,0.0,35.0
679,71.0,4,5,0.0,37.0
680,70.0,4,5,0.0,35.0
681,71.0,4,5,0.0,37.0
682,68.0,0,96,0.0,38.0
683,70.0,4,5,0.0,35.0
684,71.0,4,5,0.0,37.0
685,70.0,4,5,0.0,35.0
686,71.0,4,5,0.0,37.0
687,70.0,4,5,0.0,35.0
688,71.0,2,5,0.0,36.0
689,70.0,4,5,0.0,34.0
690,71.0,4,5,0.0,36.0
691,70.0,4,5,0.0,34.0
692,71.0,4,5,0.0,35.0
693,70.0,4,5,0.0,33.0
694,71.0,4,5,0.0,35.0
695,70.0,4,5,0.0,33.0
696,71.0,4,5,0.0,34.0
697,70.0,4,5,0.0,32.0
698,71.0,4,5,0.0,34.0
699,70.0,4,5,0.0,32.0
700,63.0,0,52,0.0,26.0
701,66.0,2,52,0.0,30.0
702,71.0,4,5,0.0,34.0
703,70.0,2,6,0.0,32.0
704,68.0,6,10,0.0,34.0
705,70.0,10,10,0.0,28.0
706,75.0,10,6,0.0,32.0
707,73.0,6,6,0.0,31.0
708,64.0,0,44,0.0,24.0
709,61.0,2,44,0.0,20.0
710,54.0,4,150,0.0,28.0
711,71.0,6,0,0.0,32.0
712,35.0,0,24,0.0,24.0
713,54.0,24,24,0.0,20.0
714,66.0,0,24,0.0,28.0
715,63.0,24,24,0.0,24.0
716,78.0,0,48,0.0,36.0
717,54.0,24,24,0.0,20.0
718,61.0,0,24,0.0,23.0
719,64.0,24,24,0.0,27.0
720,54.0,24,24,0.0,20.0
721,76.0,0,48,0.0,52.0
722,63.0,0,24,0.0,26.0
723,59.0,24,24,0.0,22.0
724,54.0,24,22,0.0,20.0
725,75.0,0,46,0.0,54.0
726,42.0,0,24,0.0,24.0
727,49.0,24,24,0.0,26.0
728,54.0,24,24,0.0,26.0
729,58.0,0,24,0.0,30.0
730,49.0,24,24,0.0,26.0
731,73.0,24,96,0.0,52.0
732,46.0,0,24,0.0,25.0
733,75.0,24,24,0.0,44.0
734,73.0,24,24,0.0,52.0
735,49.0,0,24,0.0,27.0
736,71.0,24,24,0.0,50.0
737,61.0,0,24,0.0,32.0
738,54.0,0,24,0.0,26.0
739,49.0,0,22,0.0,27.0
740,70.0,24,24,0.0,48.0
741,37.0,24,12,0.0,24.0
742,66.0,0,24,0.0,46.0
743,65.0,18,0,0.0,47.0
744,49.0,0,24,0.0,26.0
745,71.0,0,48,0.0,44.0
746,59.0,6,24,0.0,31.0
747,53.0,0,24,0.0,27.0
748,63.0,0,24,0.0,48.0
749,49.0,24,22,0.0,26.0
750,61.0,0,24,0.0,50.0
751,71.0,0,48,0.0,44.0
752,42.0,0,24,0.0,23.0
753,71.0,0,48,0.0,44.0
754,68.0,24,48,0.0,36.0
755,49.0,24,24,0.0,24.0
756,58.0,0,24,0.0,28.0
757,54.0,0,24,0.0,24.0
758,49.0,24,22,0.0,24.0
759,66.0,0,46,0.0,30.0
760,70.0,24,46,0.0,38.0
761,73.0,16,4,0.0,52.0
762,42.0,24,24,0.0,28.0
763,75.0,4,4,0.0,54.0
764,49.0,0,24,0.0,27.0
765,73.0,4,24,0.0,52.0
766,70.0,0,24,0.0,40.0
767,58.0,24,24,0.0,32.0
768,69.0,0,24,0.0,46.0
769,54.0,0,24,0.0,28.0
770,72.0,0,24,0.0,58.0
771,49.0,0,22,0.0,29.0
772,73.0,24,24,0.0,60.0
773,70.0,0,24,0.0,48.0
774,78.0,0,12,0.0,58.0
775,70.0,0,12,0.0,50.0
776,42.0,24,24,0.0,32.0
777,70.0,0,10,0.0,54.0
778,73.0,12,10,0.0,60.0
779,49.0,24,24,0.0,29.0
780,70.0,0,16,0.0,48.0
781,73.0,12,16,0.0,54.0
782,61.0,0,24,0.0,32.0
783,71.0,16,16,0.0,53.0
784,68.0,0,16,0.0,47.0
785,49.0,8,22,0.0,27.0
786,70.0,0,14,0.0,52.0
787,66.0,8,14,0.0,46.0
788,71.0,16,12,0.0,54.0
789,66.0,0,12,0.0,48.0
790,37.0,0,24,0.0,28.0
791,71.0,0,12,0.0,52.0
792,49.0,24,24,0.0,28.0
793,65.0,12,12,0.0,46.0
794,65.0,0,16,0.0,45.0
795,71.0,0,16,0.0,51.0
796,59.0,12,24,0.0,30.0
797,53.0,0,24,0.0,26.0
798,71.0,16,16,0.0,50.0
799,63.0,0,16,0.0,43.0
800,49.0,8,22,0.0,28.0
801,71.0,0,16,0.0,49.0
802,61.0,8,16,0.0,41.0
803,42.0,0,24,0.0,30.0
804,68.0,0,48,0.0,40.0
805,71.0,16,48,0.0,46.0
806,49.0,24,24,0.0,30.0
807,58.0,0,24,0.0,30.0
808,70.0,24,46,0.0,42.0
809,50.0,24,22,0.0,40.0
810,66.0,0,46,0.0,36.0
811,39.0,24,24,0.0,40.0
812,46.0,24,24,0.0,40.0
813,51.0,0,24,0.0,32.0
814,54.0,0,24,0.0,34.0
815,58.0,24,24,0.0,36.0
816,46.0,0,22,0.0,40.0
817,66.0,24,24,0.0,40.0
818,70.0,0,24,0.0,46.0
819,39.0,0,24,0.0,36.0
820,71.0,0,24,0.0,52.0
821,68.0,24,24,0.0,46.0
822,66.0,0,24,0.0,44.0
823,70.0,24,24,0.0,50.0
824,46.0,0,24,0.0,34.0
825,58.0,0,24,0.0,36.0
826,68.0,0,24,0.0,48.0
827,65.0,24,24,0.0,42.0
828,46.0,0,22,0.0,34.0
829,63.0,24,0,0.0,40.0
830,66.0,24,24,0.0,46.0
831,34.0,0,24,0.0,36.0
832,62.0,0,24,0.0,44.0
833,68.0,0,48,0.0,48.0
834,65.0,0,48,0.0,42.0
835,46.0,24,24,0.0,34.0
836,59.0,0,24,0.0,44.0
837,53.0,0,24,0.0,32.0
838,63.0,24,24,0.0,48.0
839,56.0,0,22,0.0,32.0
840,58.0,24,24,0.0,44.0
841,68.0,0,48,0.0,54.0
842,62.0,0,24,0.0,50.0
843,39.0,24,24,0.0,34.0
844,46.0,24,24,0.0,32.0
845,65.0,0,48,0.0,38.0
846,68.0,0,48,0.0,42.0
847,54.0,24,24,0.0,35.0
848,58.0,0,94,0.0,34.0
849,63.0,0,46,0.0,34.0
850,66.0,0,46,0.0,40.0
851,51.0,24,22,0.0,38.0
852,45.0,24,24,0.0,48.0
853,64.0,0,12,0.0,50.0
854,51.0,24,24,0.0,36.0
855,68.0,8,4,0.0,48.0
856,65.0,12,12,0.0,52.0
857,66.0,0,12,0.0,50.0
858,60.0,4,24,0.0,38.0
859,65.0,12,12,0.0,48.0
860,70.0,12,12,0.0,54.0
861,53.0,0,22,0.0,36.0
862,72.0,12,12,0.0,56.0
863,46.0,12,24,0.0,38.0
864,53.0,24,24,0.0,35.0
865,61.0,24,24,0.0,32.0
866,58.0,24,22,0.0,30.0
867,73.0,0,94,0.0,52.0
868,72.0,4,0,0.0,34.0
869,66.0,0,24,0.0,30.0
870,73.0,5,5,0.0,36.0
871,72.0,5,5,0.0,34.0
872,71.0,5,4,0.0,32.0
873,72.0,4,5,0.0,34.0
874,58.0,0,24,0.0,24.0
875,51.0,24,48,0.0,26.0
876,75.0,0,24,0.0,36.0
877,65.0,5,24,0.0,20.0
878,63.0,24,22,0.0,24.0
879,73.0,12,12,0.0,32.0
880,53.0,0,48,0.0,16.0
881,57.0,0,48,0.0,18.0
882,46.0,0,24,0.0,28.0
883,70.0,12,46,0.0,28.0
884,53.0,24,24,0.0,26.0
885,61.0,24,24,0.0,34.0
886,52.0,24,22,0.0,32.0
887,56.0,0,22,0.0,36.0
888,39.0,24,24,0.0,42.0
889,62.0,24,12,0.0,52.0
890,66.0,8,4,0.0,50.0
891,63.0,12,12,0.0,54.0
892,51.0,0,24,0.0,34.0
893,64.0,4,1,0.0,52.0
894,61.0,0,24,0.0,30.0
895,55.0,0,24,0.0,26.0
896,63.0,12,12,0.0,52.0
897,68.0,0,12,0.0,54.0
898,51.0,12,22,0.0,28.0
899,70.0,12,12,0.0,52.0
900,44.0,0,24,0.0,34.0
901,51.0,24,24,0.0,31.0
902,59.0,0,24,0.0,30.0
903,56.0,24,24,0.0,26.0
904,51.0,24,22,0.0,30.0
905,71.0,12,94,0.0,50.0
906,64.0,24,24,0.0,27.0
907,70.0,12,0,0.0,32.0
908,71.0,5,5,0.0,34.0
909,70.0,5,5,0.0,32.0
910,69.0,5,4,0.0,30.0
911,49.0,0,48,0.0,23.0
912,56.0,0,24,0.0,24.0
913,70.0,4,5,0.0,32.0
914,63.0,5,24,0.0,26.0
915,73.0,0,36,0.0,36.0
916,61.0,24,22,0.0,24.0
917,51.0,0,48,0.0,18.0
918,55.0,0,48,0.0,20.0
919,71.0,12,12,0.0,32.0
920,44.0,12,24,0.0,26.0
921,68.0,0,46,0.0,30.0
922,51.0,24,24,0.0,26.0
923,59.0,0,24,0.0,28.0
924,56.0,0,24,0.0,26.0
925,51.0,24,22,0.0,26.0
926,39.0,24,12,0.0,28.0
927,67.0,0,46,0.0,34.0
928,75.0,24,94,0.0,50.0
929,51.0,24,48,0.0,26.0
930,62.0,0,48,0.0,30.0
931,68.0,0,48,0.0,36.0
932,51.0,24,48,0.0,26.0
933,61.0,24,48,0.0,29.0
934,67.0,0,48,0.0,34.0
935,70.0,0,48,0.0,44.0
936,51.0,24,48,0.0,25.0
937,51.0,24,24,0.0,24.0
938,59.0,24,48,0.0,28.0
939,75.0,18,6,0.0,54.0
940,68.0,0,48,0.0,36.0
941,76.0,24,144,0.0,42.0
942,71.0,0,48,0.0,48.0
943,58.0,0,24,0.0,28.0
944,73.0,0,48,0.0,54.0
945,71.0,0,24,0.0,46.0
946,63.0,24,24,0.0,32.0
947,61.0,0,24,0.0,30.0
948,67.0,6,96,0.0,36.0
949,70.0,24,24,0.0,44.0
950,51.0,24,96,0.0,24.0
951,63.0,0,48,0.0,34.0
952,68.0,0,48,0.0,46.0
953,59.0,24,48,0.0,28.0
954,51.0,24,0,0.0,22.0
955,70.0,24,48,0.0,46.0
956,62.0,0,48,0.0,27.0
957,65.0,0,48,0.0,34.0
958,67.0,0,46,0.0,44.0
959,63.0,24,48,0.0,25.0
960,51.0,24,48,0.0,20.0
961,62.0,0,48,0.0,28.0
962,68.0,24,48,0.0,30.0
963,51.0,24,48,0.0,24.0
964,70.0,0,48,0.0,40.0
965,67.0,0,48,0.0,34.0
966,61.0,24,48,0.0,29.0
967,51.0,24,48,0.0,24.0
968,59.0,0,48,0.0,30.0
969,76.0,0,144,0.0,40.0
970,68.0,24,48,0.0,36.0
971,75.0,18,6,0.0,46.0
972,71.0,0,48,0.0,44.0
973,58.0,0,24,0.0,30.0
974,51.0,24,0,0.0,26.0
975,73.0,6,48,0.0,44.0
976,63.0,24,24,0.0,34.0
977,71.0,0,24,0.0,44.0
978,61.0,24,24,0.0,32.0
979,67.0,0,96,0.0,34.0
980,70.0,0,24,0.0,44.0
981,68.0,0,48,0.0,48.0
982,63.0,0,48,0.0,34.0
983,59.0,24,48,0.0,30.0
984,51.0,24,48,0.0,28.0
985,51.0,24,22,0.0,26.0
986,62.0,0,46,0.0,32.0
987,70.0,24,48,0.0,50.0
988,65.0,0,48,0.0,36.0
989,39.0,0,24,0.0,36.0
990,67.0,24,48,0.0,52.0
991,55.0,24,24,0.0,34.0
992,58.0,0,24,0.0,36.0
993,63.0,24,22,0.0,36.0
994,75.0,24,48,0.0,63.0
995,40.0,24,24,0.0,40.0
996,52.0,24,24,0.0,36.0
997,73.0,0,48,0.0,60.0
998,56.0,24,24,0.0,38.0
999,61.0,24,10,0.0,34.0
1000,68.0,0,34,0.0,55.0
1001,31.0,24,12,0.0,30.0
1002,52.0,24,24,0.0,23.0
1003,71.0,12,12,0.0,30.0
1004,71.0,12,10,0.0,34.0
1005,73.0,10,10,0.0,38.0
1006,59.0,0,24,0.0,25.0
1007,71.0,10,9,0.0,37.0
1008,70.0,5,9,0.0,36.0
1009,64.0,4,22,0.0,27.0
1010,71.0,9,10,0.0,40.0
1011,30.0,0,12,0.0,25.0
1012,75.0,10,24,0.0,44.0
1013,54.0,24,24,0.0,23.0
1014,58.0,24,24,0.0,30.0
1015,75.0,0,48,0.0,46.0
1016,64.0,24,22,0.0,28.0
1017,73.0,0,24,0.0,58.0
1018,36.0,0,24,0.0,40.0
1019,48.0,24,24,0.0,38.0
1020,56.0,24,24,0.0,36.0
1021,63.0,24,22,0.0,34.0
1022,78.0,24,96,0.0,66.0
1023,37.0,24,24,0.0,32.0
1024,49.0,24,24,0.0,35.0
1025,59.0,0,24,0.0,35.0
1026,77.0,0,94,0.0,62.0
1027,65.0,24,22,0.0,34.0
1028,68.0,24,48,0.0,54.0
1029,42.0,0,24,0.0,34.0
1030,54.0,24,24,0.0,36.0
1031,58.0,24,24,0.0,38.0
1032,64.0,24,22,0.0,36.0
1033,76.0,0,48,0.0,60.0
1034,47.0,24,24,0.0,38.0
1035,70.0,24,142,0.0,54.0
1036,54.0,24,24,0.0,40.0
1037,75.0,0,48,0.0,56.0
1038,59.0,0,24,0.0,42.0
1039,63.0,24,22,0.0,40.0
1040,71.0,24,48,0.0,58.0
1041,40.0,0,16,0.0,40.0
1042,68.0,24,24,0.0,64.0
1043,52.0,16,16,0.0,44.0
1044,56.0,16,16,0.0,46.0
1045,63.0,16,24,0.0,42.0
1046,61.0,24,24,0.0,40.0
1047,68.0,24,46,0.0,38.0
1048,95.0,0,108,0.0,72.0
1049,94.0,60,12,0.0,42.0
1050,92.0,12,12,0.0,46.0
1051,88.0,12,12,0.0,50.0
1052,87.0,12,12,0.0,52.0
1053,85.0,12,12,0.0,52.0
1054,83.0,12,12,0.0,51.0
1055,82.0,12,12,0.0,50.0
1056,80.0,12,12,0.0,48.0
1057,76.0,12,12,0.0,46.0
1058,75.0,12,12,0.0,46.0
1059,73.0,12,12,0.0,46.0
1060,71.0,12,12,0.0,42.0
1061,70.0,4,5,0.0,32.0
1062,71.0,4,5,0.0,30.0
1063,70.0,4,5,0.0,30.0
1064,71.0,4,5,0.0,33.0
1065,70.0,4,5,0.0,32.0
1066,71.0,4,5,0.0,35.0
1067,70.0,4,5,0.0,33.0
1068,71.0,4,5,0.0,35.0
1069,70.0,4,5,0.0,33.0
1070,71.0,4,5,0.0,36.0
1071,70.0,4,5,0.0,34.0
1072,71.0,4,5,0.0,36.0
1073,30.0,0,54,0.0,35.0
1074,70.0,4,5,0.0,34.0
1075,71.0,0,5,0.0,37.0
1076,70.0,4,5,0.0,35.0
1077,71.0,4,5,0.0,37.0
1078,70.0,4,5,0.0,35.0
1079,71.0,4,5,0.0,37.0
1080,70.0,4,5,0.0,35.0
1081,71.0,4,5,0.0,37.0
1082,70.0,4,5,0.0,35.0
1083,71.0,4,5,0.0,37.0
1084,68.0,12,96,0.0,38.0
1085,70.0,4,5,0.0,35.0
1086,71.0,4,5,0.0,37.0
1087,70.0,4,5,0.0,35.0
1088,71.0,4,5,0.0,37.0
1089,70.0,4,5,0.0,35.0
1090,71.0,2,5,0.0,37.0
1091,70.0,4,5,0.0,35.0
1092,71.0,4,5,0.0,36.0
1093,70.0,4,5,0.0,34.0
1094,71.0,4,5,0.0,36.0
1095,70.0,4,5,0.0,34.0
1096,71.0,4,5,0.0,35.0
1097,70.0,4,5,0.0,33.0
1098,71.0,4,5,0.0,34.0
1099,70.0,4,5,0.0,32.0
1100,71.0,4,5,0.0,34.0
1101,70.0,4,5,0.0,31.0
1102,63.0,0,52,0.0,28.0
1103,66.0,2,52,0.0,32.0
1104,71.0,4,5,0.0,33.0
1105,70.0,2,5,0.0,30.0
1106,68.0,4,8,0.0,32.0
1107,70.0,8,8,0.0,28.0
1108,75.0,8,8,0.0,32.0
1109,73.0,8,8,0.0,31.0
1110,54.0,4,150,0.0,28.0
1111,61.0,0,56,0.0,20.0
1112,64.0,2,56,0.0,24.0
1113,71.0,8,20,0.0,30.0
1114,41.0,0,22,0.0,30.0
1115,41.0,12,22,0.0,28.0
1116,41.0,24,14,0.0,32.0
1117,41.0,16,14,0.0,31.0
1118,41.0,16,14,0.0,33.0
1119,41.0,16,22,0.0,38.0
1120,41.0,24,22,0.0,37.0
1121,41.0,24,14,0.0,32.0
1122,41.0,16,14,0.0,30.0
1123,41.0,16,14,0.0,28.0
1124,41.0,16,142,0.0,26.0
1125,29.0,20,334,0.0,30.0
1126,71.0,4,322,0.0,32.0
1127,67.0,4,326,0.0,30.0
1128,62.0,4,330,0.0,28.0
1129,59.0,0,334,0.0,26.0
1130,59.0,156,6,0.0,60.0
1131,61.0,6,6,0.0,64.0
1132,64.0,6,6,0.0,68.0
1133,62.0,6,6,0.0,67.0
1134,61.0,6,6,0.0,66.0
1135,59.0,6,4,0.0,65.0
1136,38.0,0,46,0.0,65.0
1137,50.0,0,46,0.0,60.0
1138,53.0,0,46,0.0,60.0
1139,62.0,0,46,0.0,75.0
1140,59.0,48,46,0.0,70.0
1141,55.0,0,46,0.0,65.0
1142,67.0,6,94,0.0,75.0
1143,47.0,0,46,0.0,60.0
1144,59.0,108,6,0.0,64.0
1145,61.0,6,6,0.0,68.0
1146,64.0,6,6,0.0,78.0
1147,62.0,6,6,0.0,70.0
1148,61.0,6,6,0.0,69.0
1149,59.0,6,4,0.0,68.0
1150,67.0,0,46,0.0,80.0
1151,62.0,0,46,0.0,75.0
1152,59.0,48,46,0.0,70.0
1153,71.0,6,94,0.0,80.0
1154,41.0,0,46,0.0,75.0
1155,55.0,0,46,0.0,70.0
1156,53.0,0,46,0.0,70.0
1157,50.0,0,46,0.0,70.0
1158,47.0,0,46,0.0,70.0
1159,71.0,0,24,0.0,32.0
1160,59.0,96,24,0.0,26.0
1161,61.0,0,24,0.0,39.0
1162,73.0,24,24,0.0,45.0
1163,64.0,0,24,0.0,34.0
1164,76.0,24,24,0.0,40.0
1165,74.0,0,24,0.0,48.0
1166,62.0,24,24,0.0,42.0
1167,73.0,24,24,0.0,54.0
1168,61.0,0,24,0.0,48.0
1169,59.0,0,24,0.0,46.0
1170,71.0,24,24,0.0,52.0
1171,58.0,24,24,0.0,50.0
1172,70.0,0,24,0.0,56.0
1173,59.0,0,24,0.0,56.0
1174,71.0,24,24,0.0,62.0
1175,70.0,0,24,0.0,60.0
1176,58.0,24,24,0.0,54.0
1177,57.0,0,24,0.0,60.0
1178,69.0,24,24,0.0,66.0
1179,70.0,0,24,0.0,76.0
1180,58.0,24,24,0.0,70.0
1181,73.0,24,24,0.0,68.0
1182,61.0,0,24,0.0,62.0
1183,71.0,24,36,0.0,62.0
1184,59.0,0,36,0.0,56.0
1185,67.0,36,10,0.0,72.0
1186,55.0,0,10,0.0,66.0
1187,67.0,0,18,0.0,72.0
1188,55.0,12,18,0.0,66.0
1189,54.0,18,6,0.0,64.0
1190,42.0,0,6,0.0,58.0
1191,47.0,0,6,0.0,62.0
1192,59.0,6,6,0.0,68.0
1193,62.0,0,6,0.0,72.0
1194,50.0,6,6,0.0,66.0
1195,66.0,6,6,0.0,76.0
1196,54.0,0,6,0.0,70.0
1197,69.0,6,6,0.0,80.0
1198,57.0,0,6,0.0,74.0
1199,55.0,6,22,0.0,70.0
1200,67.0,0,22,0.0,76.0
1201,54.0,0,10,0.0,76.0
1202,66.0,36,10,0.0,86.0
1203,42.0,24,12,0.0,70.0
1204,51.0,0,12,0.0,74.0
1205,63.0,0,12,0.0,84.0
1206,59.0,0,12,0.0,78.0
1207,42.0,0,9,0.0,74.0
1208,50.0,0,9,0.0,78.0
1209,62.0,24,9,0.0,88.0
1210,59.0,0,9,0.0,82.0
1211,66.0,0,94,0.0,90.0
1212,54.0,12,94,0.0,80.0
1213,42.0,0,46,0.0,48.0
1214,59.0,0,46,0.0,58.0
1215,56.0,48,46,0.0,56.0
1216,54.0,0,46,0.0,54.0
1217,49.0,0,112,0.0,66.0
1218,61.0,16,0,0.0,54.0
1219,49.0,0,16,0.0,46.0
1220,59.0,0,46,0.0,50.0
1221,53.0,0,46,0.0,46.0
1222,42.0,0,46,0.0,44.0
1223,56.0,48,46,0.0,48.0
1224,49.0,16,16,0.0,52.0
1225,61.0,0,16,0.0,62.0
1226,61.0,16,0,0.0,76.0
1227,49.0,0,0,0.0,66.0
1228,49.0,16,0,0.0,64.0
1229,61.0,0,0,0.0,74.0
1230,61.0,16,0,0.0,72.0
1231,49.0,0,48,0.0,62.0
1232,42.0,0,48,0.0,66.0
1233,55.0,0,48,0.0,74.0
1234,58.0,0,48,0.0,78.0
1235,52.0,48,48,0.0,70.0
1236,42.0,0,46,0.0,70.0
1237,50.0,0,142,0.0,72.0
1238,52.0,0,46,0.0,74.0
1239,55.0,48,46,0.0,78.0
1240,62.0,48,142,0.0,82.0
1241,58.0,0,46,0.0,82.0
1242,46.0,48,0,0.0,90.0
1243,58.0,96,48,0.0,86.0
1244,58.0,0,48,0.0,100.0
1245,40.0,96,48,0.0,88.0
1246,55.0,0,48,0.0,100.0
1247,52.0,0,48,0.0,94.0
1248,50.0,0,48,0.0,102.0
1249,54.0,0,48,0.0,106.0
1250,35.0,48,48,0.0,102.0
1251,59.0,0,324,0.0,110.0
1252,47.0,48,324,0.0,100.0
