,note,step,duration,channel,velocity
0,48.0,0,24,0.0,47.0
1,36.0,0,24,0.0,37.0
2,63.0,0,24,0.0,30.0
3,55.0,0,24,0.0,25.0
4,67.0,48,24,0.0,35.0
5,79.0,0,46,0.0,58.0
6,48.0,0,24,0.0,50.0
7,36.0,48,24,0.0,40.0
8,68.0,0,24,0.0,35.0
9,56.0,48,24,0.0,25.0
10,63.0,0,24,0.0,30.0
11,80.0,0,46,0.0,69.0
12,47.0,48,24,0.0,42.0
13,35.0,0,24,0.0,32.0
14,55.0,24,24,0.0,28.0
15,79.0,24,48,0.0,60.0
16,62.0,0,24,0.0,32.0
17,65.0,0,24,0.0,35.0
18,67.0,0,24,0.0,38.0
19,74.0,24,36,0.0,53.0
20,75.0,12,12,0.0,59.0
21,36.0,0,24,0.0,35.0
22,48.0,24,24,0.0,45.0
23,77.0,12,12,0.0,60.0
24,75.0,12,12,0.0,59.0
25,74.0,12,12,0.0,62.0
26,75.0,12,12,0.0,65.0
27,67.0,0,24,0.0,38.0
28,63.0,0,24,0.0,35.0
29,60.0,0,24,0.0,32.0
30,55.0,0,24,0.0,28.0
31,77.0,12,12,0.0,66.0
32,79.0,12,12,0.0,67.0
33,44.0,12,24,0.0,45.0
34,32.0,0,24,0.0,35.0
35,72.0,0,36,0.0,60.0
36,60.0,0,24,0.0,25.0
37,68.0,0,24,0.0,35.0
38,72.0,0,24,0.0,55.0
39,63.0,48,24,0.0,30.0
40,72.0,36,8,0.0,62.0
41,41.0,0,24,0.0,50.0
42,29.0,12,24,0.0,40.0
43,74.0,0,48,0.0,59.0
44,62.0,0,24,0.0,38.0
45,60.0,0,24,0.0,33.0
46,53.0,0,24,0.0,28.0
47,72.0,48,36,0.0,57.0
48,68.0,36,12,0.0,54.0
49,43.0,0,24,0.0,40.0
50,31.0,0,24,0.0,30.0
51,70.0,9,3,0.0,42.0
52,67.0,12,60,0.0,45.0
53,53.0,0,24,0.0,35.0
54,59.0,48,24,0.0,40.0
55,68.0,3,12,0.0,49.0
56,67.0,12,12,0.0,55.0
57,62.0,12,12,0.0,60.0
58,63.0,0,12,0.0,55.0
59,24.0,0,24,0.0,25.0
60,60.0,12,12,0.0,38.0
61,36.0,12,24,0.0,35.0
62,51.0,0,24,0.0,30.0
63,55.0,36,24,0.0,35.0
64,39.0,48,24,0.0,50.0
65,27.0,0,24,0.0,40.0
66,58.0,0,24,0.0,25.0
67,55.0,48,24,0.0,20.0
68,63.0,0,24,0.0,30.0
69,67.0,0,24,0.0,35.0
70,79.0,0,46,0.0,65.0
71,44.0,0,24,0.0,55.0
72,32.0,48,24,0.0,45.0
73,60.0,0,24,0.0,35.0
74,63.0,0,24,0.0,40.0
75,53.0,0,24,0.0,30.0
76,34.0,48,24,0.0,50.0
77,46.0,0,24,0.0,60.0
78,80.0,48,72,0.0,75.0
79,68.0,0,24,0.0,48.0
80,62.0,0,24,0.0,45.0
81,58.0,24,24,0.0,42.0
82,79.0,24,48,0.0,65.0
83,47.0,0,10,0.0,55.0
84,35.0,12,10,0.0,45.0
85,77.0,24,36,0.0,60.0
86,36.0,12,24,0.0,45.0
87,75.0,12,12,0.0,60.0
88,48.0,0,24,0.0,55.0
89,77.0,12,6,0.0,57.0
90,75.0,6,3,0.0,60.0
91,77.0,3,3,0.0,62.0
92,75.0,3,12,0.0,65.0
93,74.0,12,12,0.0,62.0
94,75.0,12,12,0.0,65.0
95,57.0,0,24,0.0,32.0
96,63.0,0,24,0.0,35.0
97,67.0,0,24,0.0,38.0
98,77.0,12,12,0.0,68.0
99,79.0,12,12,0.0,71.0
100,50.0,0,24,0.0,55.0
101,74.0,12,24,0.0,61.0
102,38.0,0,24,0.0,45.0
103,62.0,24,36,0.0,61.0
104,67.0,0,12,0.0,40.0
105,58.0,24,24,0.0,35.0
106,67.0,12,12,0.0,62.0
107,72.0,12,12,0.0,64.0
108,74.0,12,12,0.0,66.0
109,38.0,0,24,0.0,50.0
110,26.0,12,24,0.0,50.0
111,60.0,48,24,0.0,38.0
112,57.0,0,24,0.0,33.0
113,75.0,0,84,0.0,68.0
114,66.0,36,8,0.0,45.0
115,31.0,12,24,0.0,45.0
116,43.0,0,24,0.0,45.0
117,62.0,0,24,0.0,32.0
118,58.0,48,24,0.0,27.0
119,50.0,0,24,0.0,22.0
120,66.0,0,78,0.0,45.0
121,67.0,30,6,0.0,33.0
122,70.0,6,6,0.0,35.0
123,69.0,6,6,0.0,32.0
124,38.0,0,12,0.0,35.0
125,43.0,0,24,0.0,35.0
126,31.0,0,24,0.0,25.0
127,67.0,6,46,0.0,30.0
128,62.0,0,24,0.0,30.0
129,50.0,48,24,0.0,20.0
130,58.0,0,24,0.0,25.0
131,42.0,48,24,0.0,50.0
132,30.0,0,24,0.0,40.0
133,63.0,0,24,0.0,40.0
134,60.0,48,24,0.0,35.0
135,56.0,0,24,0.0,30.0
136,54.0,0,24,0.0,25.0
137,68.0,0,72,0.0,64.0
138,29.0,0,24,0.0,40.0
139,41.0,48,24,0.0,50.0
140,73.0,24,24,0.0,62.0
141,77.0,0,24,0.0,64.0
142,65.0,24,24,0.0,40.0
143,61.0,0,24,0.0,35.0
144,56.0,0,24,0.0,30.0
145,53.0,0,24,0.0,25.0
146,82.0,24,24,0.0,68.0
147,24.0,0,24,0.0,40.0
148,36.0,0,24,0.0,45.0
149,80.0,24,57,0.0,65.0
150,66.0,9,3,0.0,40.0
151,68.0,3,3,0.0,43.0
152,75.0,3,3,0.0,45.0
153,80.0,3,6,0.0,50.0
154,51.0,48,24,0.0,32.0
155,56.0,0,24,0.0,35.0
156,63.0,0,24,0.0,38.0
157,78.0,6,6,0.0,48.0
158,77.0,6,6,0.0,45.0
159,65.0,6,3,0.0,35.0
160,68.0,4,3,0.0,38.0
161,73.0,4,3,0.0,40.0
162,25.0,4,24,0.0,35.0
163,37.0,0,24,0.0,40.0
164,77.0,0,46,0.0,43.0
165,56.0,0,24,0.0,35.0
166,61.0,48,24,0.0,38.0
167,53.0,0,24,0.0,32.0
168,48.0,0,12,0.0,55.0
169,36.0,36,12,0.0,45.0
170,47.0,0,24,0.0,55.0
171,35.0,12,24,0.0,45.0
172,65.0,0,24,0.0,40.0
173,62.0,0,24,0.0,35.0
174,55.0,48,24,0.0,35.0
175,68.0,40,4,0.0,53.0
176,70.0,4,4,0.0,55.0
177,67.0,0,48,0.0,65.0
178,68.0,0,12,0.0,63.0
179,67.0,12,12,0.0,60.0
180,36.0,4,24,0.0,45.0
181,48.0,0,24,0.0,55.0
182,71.0,12,12,0.0,65.0
183,72.0,12,12,0.0,67.0
184,74.0,0,12,0.0,69.0
185,55.0,0,24,0.0,38.0
186,75.0,12,12,0.0,71.0
187,60.0,12,24,0.0,38.0
188,67.0,0,24,0.0,43.0
189,84.0,12,12,0.0,76.0
190,80.0,12,12,0.0,75.0
191,50.0,12,24,0.0,55.0
192,38.0,0,24,0.0,45.0
193,79.0,0,56,0.0,70.0
194,73.0,8,8,0.0,50.0
195,67.0,0,24,0.0,40.0
196,74.0,8,8,0.0,50.0
197,55.0,48,24,0.0,25.0
198,59.0,0,24,0.0,30.0
199,65.0,0,24,0.0,35.0
200,79.0,8,8,0.0,48.0
201,77.0,8,8,0.0,46.0
202,75.0,8,6,0.0,43.0
203,51.0,0,24,0.0,40.0
204,39.0,0,24,0.0,30.0
205,75.0,8,46,0.0,43.0
206,67.0,48,24,0.0,35.0
207,60.0,0,24,0.0,30.0
208,55.0,0,24,0.0,35.0
209,51.0,0,12,0.0,50.0
210,39.0,36,12,0.0,40.0
211,53.0,0,24,0.0,45.0
212,41.0,12,24,0.0,35.0
213,68.0,0,24,0.0,40.0
214,62.0,48,24,0.0,35.0
215,56.0,0,24,0.0,30.0
216,51.0,0,24,0.0,50.0
217,39.0,48,24,0.0,40.0
218,71.0,0,72,0.0,50.0
219,72.0,24,24,0.0,56.0
220,67.0,0,24,0.0,45.0
221,60.0,0,24,0.0,40.0
222,55.0,0,24,0.0,40.0
223,74.0,24,24,0.0,58.0
224,75.0,24,24,0.0,60.0
225,48.0,12,12,0.0,55.0
226,36.0,0,12,0.0,45.0
227,47.0,0,24,0.0,50.0
228,35.0,12,24,0.0,40.0
229,67.0,0,24,0.0,45.0
230,65.0,0,24,0.0,40.0
231,62.0,0,24,0.0,35.0
232,55.0,0,24,0.0,35.0
233,74.0,48,72,0.0,68.0
234,48.0,48,24,0.0,60.0
235,36.0,0,24,0.0,50.0
236,75.0,24,24,0.0,72.0
237,67.0,0,24,0.0,45.0
238,60.0,0,24,0.0,35.0
239,55.0,24,24,0.0,35.0
240,63.0,0,24,0.0,40.0
241,77.0,0,24,0.0,74.0
242,79.0,24,16,0.0,70.0
243,36.0,12,12,0.0,58.0
244,29.0,0,24,0.0,35.0
245,41.0,12,24,0.0,45.0
246,79.0,0,24,0.0,45.0
247,77.0,24,24,0.0,43.0
248,80.0,0,24,0.0,48.0
249,60.0,24,24,0.0,30.0
250,53.0,0,24,0.0,25.0
251,68.0,0,24,0.0,35.0
252,72.0,24,24,0.0,40.0
253,74.0,0,24,0.0,41.0
254,32.0,24,24,0.0,30.0
255,44.0,0,24,0.0,40.0
256,75.0,24,6,0.0,42.0
257,75.0,9,3,0.0,42.0
258,77.0,3,3,0.0,43.0
259,75.0,3,3,0.0,41.0
260,74.0,3,3,0.0,39.0
261,75.0,3,3,0.0,41.0
262,53.0,0,24,0.0,20.0
263,60.0,0,24,0.0,25.0
264,68.0,3,24,0.0,30.0
265,79.0,0,24,0.0,50.0
266,77.0,24,24,0.0,48.0
267,34.0,0,24,0.0,25.0
268,46.0,0,24,0.0,35.0
269,53.0,0,24,0.0,30.0
270,58.0,0,24,0.0,30.0
271,62.0,48,24,0.0,33.0
272,68.0,0,24,0.0,38.0
273,74.0,24,94,0.0,43.0
274,46.0,0,12,0.0,55.0
275,34.0,36,12,0.0,45.0
276,47.0,12,24,0.0,60.0
277,35.0,0,24,0.0,50.0
278,55.0,0,24,0.0,46.0
279,67.0,0,24,0.0,55.0
280,65.0,0,24,0.0,52.0
281,62.0,48,24,0.0,49.0
282,43.0,0,12,0.0,65.0
283,31.0,36,12,0.0,55.0
284,36.0,12,24,0.0,60.0
285,48.0,0,24,0.0,70.0
286,60.0,48,24,0.0,35.0
287,64.0,0,24,0.0,40.0
288,70.0,0,24,0.0,45.0
289,79.0,0,46,0.0,70.0
290,29.0,0,24,0.0,55.0
291,41.0,48,24,0.0,65.0
292,60.0,0,24,0.0,35.0
293,63.0,48,24,0.0,40.0
294,68.0,0,24,0.0,45.0
295,80.0,0,72,0.0,81.0
296,34.0,0,24,0.0,55.0
297,46.0,48,24,0.0,65.0
298,53.0,0,24,0.0,43.0
299,62.0,0,24,0.0,50.0
300,68.0,24,24,0.0,53.0
301,58.0,0,24,0.0,47.0
302,79.0,24,48,0.0,70.0
303,77.0,24,36,0.0,60.0
304,39.0,0,24,0.0,50.0
305,75.0,12,12,0.0,62.0
306,51.0,24,24,0.0,60.0
307,77.0,12,6,0.0,65.0
308,75.0,6,3,0.0,60.0
309,77.0,3,3,0.0,60.0
310,75.0,3,12,0.0,63.0
311,74.0,0,12,0.0,62.0
312,58.0,0,24,0.0,47.0
313,62.0,0,24,0.0,50.0
314,67.0,12,24,0.0,53.0
315,75.0,12,12,0.0,66.0
316,55.0,0,24,0.0,43.0
317,77.0,12,12,0.0,69.0
318,79.0,12,5,0.0,73.0
319,79.0,7,5,0.0,77.0
320,32.0,0,24,0.0,50.0
321,44.0,0,24,0.0,60.0
322,72.0,5,24,0.0,65.0
323,68.0,0,24,0.0,53.0
324,60.0,48,24,0.0,48.0
325,56.0,0,24,0.0,43.0
326,38.0,48,24,0.0,55.0
327,50.0,0,24,0.0,65.0
328,56.0,48,24,0.0,38.0
329,60.0,0,24,0.0,43.0
330,65.0,0,24,0.0,48.0
331,77.0,0,48,0.0,75.0
332,71.0,42,6,0.0,50.0
333,43.0,0,24,0.0,60.0
334,31.0,6,24,0.0,50.0
335,75.0,0,48,0.0,75.0
336,55.0,48,24,0.0,45.0
337,59.0,0,24,0.0,50.0
338,65.0,0,24,0.0,55.0
339,74.0,24,36,0.0,70.0
340,72.0,12,12,0.0,67.0
341,32.0,0,24,0.0,55.0
342,44.0,24,24,0.0,65.0
343,74.0,12,6,0.0,70.0
344,72.0,6,3,0.0,65.0
345,74.0,3,3,0.0,65.0
346,72.0,3,12,0.0,68.0
347,71.0,12,12,0.0,67.0
348,63.0,0,24,0.0,55.0
349,56.0,0,24,0.0,50.0
350,51.0,0,24,0.0,45.0
351,72.0,12,12,0.0,70.0
352,74.0,12,12,0.0,73.0
353,75.0,12,12,0.0,76.0
354,27.0,12,24,0.0,60.0
355,39.0,0,24,0.0,70.0
356,67.0,0,24,0.0,81.0
357,60.0,0,24,0.0,55.0
358,55.0,48,24,0.0,50.0
359,51.0,0,24,0.0,45.0
360,84.0,0,60,0.0,88.0
361,29.0,48,24,0.0,53.0
362,83.0,12,12,0.0,60.0
363,41.0,0,24,0.0,63.0
364,82.0,12,12,0.0,64.0
365,81.0,12,12,0.0,68.0
366,80.0,12,12,0.0,73.0
367,56.0,0,24,0.0,49.0
368,61.0,0,24,0.0,54.0
369,77.0,12,12,0.0,72.0
370,49.0,0,24,0.0,44.0
371,68.0,12,12,0.0,65.0
372,73.0,12,24,0.0,70.0
373,64.0,12,12,0.0,66.0
374,75.0,9,3,0.0,67.0
375,31.0,0,24,0.0,65.0
376,72.0,12,12,0.0,75.0
377,43.0,0,24,0.0,75.0
378,73.0,3,12,0.0,72.0
379,72.0,12,12,0.0,76.0
380,75.0,0,12,0.0,81.0
381,60.0,0,24,0.0,63.0
382,52.0,12,24,0.0,57.0
383,58.0,0,24,0.0,60.0
384,76.0,12,12,0.0,84.0
385,80.0,12,12,0.0,87.0
386,79.0,12,12,0.0,86.0
387,65.0,0,12,0.0,67.0
388,72.0,12,12,0.0,83.0
389,44.0,12,24,0.0,80.0
390,32.0,0,24,0.0,70.0
391,77.0,12,12,0.0,88.0
392,79.0,12,12,0.0,90.0
393,82.0,0,12,0.0,94.0
394,53.0,12,24,0.0,63.0
395,80.0,12,12,0.0,93.0
396,60.0,0,24,0.0,68.0
397,72.0,12,12,0.0,85.0
398,74.0,12,12,0.0,86.0
399,31.0,12,24,0.0,75.0
400,43.0,0,24,0.0,85.0
401,75.0,0,46,0.0,87.0
402,60.0,48,24,0.0,75.0
403,55.0,0,24,0.0,70.0
404,51.0,0,24,0.0,65.0
405,72.0,24,8,0.0,82.0
406,74.0,8,8,0.0,84.0
407,72.0,8,8,0.0,82.0
408,31.0,8,24,0.0,80.0
409,43.0,0,24,0.0,90.0
410,67.0,0,46,0.0,79.0
411,50.0,0,24,0.0,73.0
412,59.0,0,24,0.0,83.0
413,55.0,48,24,0.0,78.0
414,67.0,24,8,0.0,90.0
415,68.0,8,8,0.0,92.0
416,67.0,8,8,0.0,96.0
417,58.0,0,48,0.0,75.0
418,55.0,48,48,0.0,70.0
419,57.0,0,48,0.0,63.0
420,54.0,48,48,0.0,58.0
421,24.0,0,190,0.0,85.0
422,53.0,0,46,0.0,40.0
423,56.0,48,46,0.0,45.0
424,48.0,48,72,0.0,35.0
425,36.0,8,264,0.0,95.0
426,60.0,0,264,0.0,90.0
427,64.0,0,72,0.0,45.0
428,52.0,0,72,0.0,33.0
429,55.0,0,72,0.0,37.0
430,59.0,96,36,0.0,34.0
431,53.0,0,36,0.0,28.0
432,31.0,0,36,0.0,25.0
433,43.0,0,36,0.0,30.0
434,55.0,0,36,0.0,31.0
435,62.0,0,36,0.0,49.0
436,43.0,48,24,0.0,28.0
437,53.0,0,24,0.0,28.0
438,59.0,0,24,0.0,34.0
439,55.0,0,24,0.0,31.0
440,64.0,0,24,0.0,51.0
441,65.0,0,8,0.0,53.0
442,43.0,36,8,0.0,30.0
443,59.0,0,8,0.0,34.0
444,55.0,0,8,0.0,31.0
445,53.0,0,8,0.0,28.0
446,36.0,0,36,0.0,25.0
447,48.0,12,36,0.0,30.0
448,64.0,0,36,0.0,51.0
449,60.0,0,36,0.0,41.0
450,52.0,0,36,0.0,35.0
451,52.0,0,36,0.0,45.0
452,55.0,48,36,0.0,50.0
453,36.0,0,36,0.0,27.0
454,48.0,0,36,0.0,32.0
455,36.0,0,36,0.0,29.0
456,48.0,0,36,0.0,34.0
457,52.0,0,36,0.0,46.0
458,60.0,48,36,0.0,51.0
459,43.0,0,36,0.0,31.0
460,48.0,0,36,0.0,36.0
461,55.0,0,36,0.0,40.0
462,36.0,48,36,0.0,31.0
463,60.0,0,36,0.0,45.0
464,64.0,0,36,0.0,53.0
465,67.0,0,72,0.0,55.0
466,60.0,48,72,0.0,45.0
467,55.0,0,72,0.0,40.0
468,52.0,0,72,0.0,36.0
469,43.0,0,72,0.0,33.0
470,36.0,0,72,0.0,30.0
471,52.0,0,36,0.0,40.0
472,45.0,0,36,0.0,35.0
473,60.0,96,36,0.0,43.0
474,64.0,0,36,0.0,53.0
475,57.0,0,36,0.0,40.0
476,64.0,42,6,0.0,52.0
477,45.0,6,24,0.0,35.0
478,57.0,0,24,0.0,43.0
479,52.0,0,24,0.0,40.0
480,33.0,0,24,0.0,30.0
481,62.0,0,24,0.0,52.0
482,33.0,36,8,0.0,30.0
483,52.0,0,8,0.0,40.0
484,45.0,0,58,0.0,35.0
485,50.0,0,72,0.0,35.0
486,38.0,0,72,0.0,30.0
487,62.0,12,72,0.0,57.0
488,54.0,0,72,0.0,40.0
489,57.0,0,84,0.0,43.0
490,60.0,0,84,0.0,55.0
491,31.0,0,36,0.0,30.0
492,50.0,0,36,0.0,34.0
493,55.0,96,36,0.0,37.0
494,59.0,0,36,0.0,40.0
495,62.0,0,36,0.0,48.0
496,43.0,0,36,0.0,35.0
497,65.0,0,36,0.0,40.0
498,53.0,0,36,0.0,35.0
499,43.0,48,36,0.0,30.0
500,67.0,0,36,0.0,55.0
501,55.0,0,36,0.0,40.0
502,63.0,0,36,0.0,40.0
503,48.0,4,76,0.0,46.0
504,43.0,4,80,0.0,44.0
505,36.0,36,84,0.0,42.0
506,67.0,0,72,0.0,47.0
507,76.0,0,72,0.0,60.0
508,55.0,0,72,0.0,43.0
509,64.0,4,72,0.0,45.0
510,36.0,0,36,0.0,29.0
511,74.0,96,36,0.0,53.0
512,43.0,0,36,0.0,33.0
513,55.0,0,36,0.0,41.0
514,53.0,0,36,0.0,37.0
515,67.0,0,36,0.0,45.0
516,62.0,0,36,0.0,40.0
517,67.0,0,16,0.0,45.0
518,64.0,48,16,0.0,40.0
519,36.0,0,16,0.0,31.0
520,48.0,0,16,0.0,39.0
521,55.0,0,16,0.0,43.0
522,76.0,0,16,0.0,55.0
523,43.0,0,16,0.0,35.0
524,36.0,24,8,0.0,33.0
525,43.0,0,8,0.0,37.0
526,50.0,0,8,0.0,41.0
527,55.0,0,8,0.0,45.0
528,65.0,0,16,0.0,40.0
529,71.0,0,16,0.0,50.0
530,77.0,0,16,0.0,57.0
531,67.0,0,16,0.0,45.0
532,76.0,2,36,0.0,60.0
533,72.0,2,38,0.0,57.0
534,55.0,2,44,0.0,48.0
535,64.0,2,42,0.0,51.0
536,48.0,2,46,0.0,45.0
537,43.0,2,48,0.0,42.0
538,36.0,10,50,0.0,40.0
539,67.0,2,40,0.0,54.0
540,36.0,0,36,0.0,35.0
541,43.0,0,36,0.0,40.0
542,52.0,0,36,0.0,45.0
543,55.0,48,36,0.0,46.0
544,60.0,0,36,0.0,50.0
545,64.0,0,36,0.0,54.0
546,67.0,0,36,0.0,58.0
547,72.0,0,36,0.0,62.0
548,69.0,48,36,0.0,58.0
549,64.0,0,36,0.0,54.0
550,60.0,0,36,0.0,50.0
551,45.0,0,36,0.0,40.0
552,52.0,0,36,0.0,45.0
553,57.0,0,36,0.0,50.0
554,64.0,39,3,0.0,50.0
555,67.0,2,3,0.0,54.0
556,40.0,1,8,0.0,50.0
557,71.0,1,3,0.0,58.0
558,52.0,2,2,0.0,58.0
559,59.0,3,36,0.0,55.0
560,76.0,0,46,0.0,66.0
561,72.0,2,76,0.0,63.0
562,67.0,2,78,0.0,62.0
563,64.0,2,80,0.0,61.0
564,60.0,2,82,0.0,60.0
565,55.0,2,84,0.0,59.0
566,48.0,2,88,0.0,60.0
567,79.0,2,72,0.0,74.0
568,36.0,28,92,0.0,64.0
569,76.0,2,74,0.0,64.0
570,43.0,2,90,0.0,62.0
571,56.0,0,36,0.0,40.0
572,47.0,96,36,0.0,35.0
573,40.0,0,36,0.0,30.0
574,76.0,0,36,0.0,62.0
575,71.0,0,36,0.0,58.0
576,68.0,0,36,0.0,54.0
577,64.0,0,36,0.0,50.0
578,50.0,0,16,0.0,36.0
579,57.0,0,16,0.0,41.0
580,41.0,48,16,0.0,31.0
581,60.0,0,24,0.0,46.0
582,62.0,0,24,0.0,50.0
583,74.0,0,24,0.0,58.0
584,69.0,0,24,0.0,52.0
585,67.0,0,2,0.0,53.0
586,65.0,0,2,0.0,47.0
587,59.0,36,2,0.0,43.0
588,59.0,4,1,0.0,49.0
589,50.0,0,8,0.0,38.0
590,55.0,0,8,0.0,41.0
591,43.0,0,8,0.0,35.0
592,55.0,0,42,0.0,41.0
593,50.0,2,42,0.0,38.0
594,74.0,0,72,0.0,55.0
595,67.0,2,74,0.0,53.0
596,59.0,2,78,0.0,43.0
597,65.0,2,76,0.0,47.0
598,43.0,2,10,0.0,36.0
599,31.0,48,48,0.0,50.0
600,72.0,2,72,0.0,48.0
601,64.0,2,74,0.0,42.0
602,60.0,2,76,0.0,40.0
603,36.0,36,84,0.0,35.0
604,48.0,2,80,0.0,37.0
605,55.0,2,78,0.0,38.0
606,69.0,0,72,0.0,50.0
607,81.0,0,72,0.0,60.0
608,41.0,0,72,0.0,33.0
609,53.0,96,72,0.0,41.0
610,60.0,0,72,0.0,45.0
611,48.0,0,72,0.0,37.0
612,72.0,0,72,0.0,55.0
613,48.0,0,36,0.0,35.0
614,55.0,0,36,0.0,40.0
615,40.0,0,36,0.0,30.0
616,79.0,96,36,0.0,56.0
617,72.0,0,36,0.0,50.0
618,67.0,0,36,0.0,45.0
619,39.0,0,36,0.0,31.0
620,48.0,0,36,0.0,37.0
621,57.0,0,36,0.0,43.0
622,67.0,48,36,0.0,42.0
623,69.0,0,36,0.0,47.0
624,72.0,0,36,0.0,52.0
625,81.0,0,36,0.0,60.0
626,78.0,0,36,0.0,55.0
627,74.0,0,36,0.0,50.0
628,69.0,0,36,0.0,45.0
629,57.0,0,36,0.0,43.0
630,45.0,48,36,0.0,35.0
631,38.0,0,36,0.0,31.0
632,66.0,0,36,0.0,40.0
633,50.0,0,36,0.0,39.0
634,57.0,0,24,0.0,45.0
635,42.0,0,24,0.0,33.0
636,62.0,0,24,0.0,45.0
637,69.0,0,24,0.0,50.0
638,74.0,0,24,0.0,55.0
639,50.0,0,24,0.0,39.0
640,60.0,48,24,0.0,40.0
641,62.0,36,8,0.0,43.0
642,74.0,0,8,0.0,53.0
643,70.0,0,8,0.0,48.0
644,50.0,0,8,0.0,38.0
645,42.0,0,8,0.0,33.0
646,58.0,0,8,0.0,43.0
647,62.0,0,36,0.0,45.0
648,74.0,0,36,0.0,55.0
649,59.0,12,36,0.0,43.0
650,50.0,0,36,0.0,38.0
651,43.0,0,36,0.0,33.0
652,71.0,0,36,0.0,50.0
653,74.0,48,36,0.0,50.0
654,66.0,0,36,0.0,45.0
655,62.0,0,36,0.0,40.0
656,50.0,0,36,0.0,40.0
657,45.0,0,36,0.0,35.0
658,60.0,0,36,0.0,45.0
659,62.0,0,72,0.0,45.0
660,83.0,2,72,0.0,60.0
661,74.0,1,75,0.0,47.0
662,71.0,0,78,0.0,45.0
663,43.0,42,78,0.0,35.0
664,50.0,2,76,0.0,37.0
665,55.0,1,74,0.0,39.0
666,69.0,0,36,0.0,45.0
667,42.0,96,36,0.0,30.0
668,74.0,0,36,0.0,50.0
669,57.0,0,36,0.0,40.0
670,81.0,0,36,0.0,55.0
671,50.0,0,36,0.0,35.0
672,69.0,0,36,0.0,48.0
673,71.0,48,36,0.0,53.0
674,75.0,0,36,0.0,58.0
675,83.0,0,36,0.0,62.0
676,41.0,0,36,0.0,31.0
677,47.0,0,36,0.0,35.0
678,51.0,0,36,0.0,39.0
679,59.0,0,36,0.0,43.0
680,80.0,0,72,0.0,50.0
681,76.0,0,72,0.0,40.0
682,71.0,2,72,0.0,35.0
683,68.0,0,72,0.0,30.0
684,59.0,0,72,0.0,37.0
685,52.0,2,74,0.0,33.0
686,47.0,2,76,0.0,31.0
687,40.0,42,78,0.0,29.0
688,47.0,0,36,0.0,29.0
689,79.0,96,36,0.0,45.0
690,76.0,0,36,0.0,34.0
691,71.0,0,36,0.0,31.0
692,67.0,0,36,0.0,28.0
693,40.0,0,36,0.0,26.0
694,59.0,0,36,0.0,35.0
695,52.0,0,36,0.0,32.0
696,74.0,48,16,0.0,34.0
697,43.0,0,30,0.0,27.0
698,50.0,0,30,0.0,31.0
699,59.0,0,30,0.0,35.0
700,77.0,16,16,0.0,42.0
701,65.0,0,36,0.0,28.0
702,67.0,0,36,0.0,31.0
703,79.0,0,36,0.0,45.0
704,76.0,16,8,0.0,38.0
705,79.0,0,72,0.0,40.0
706,36.0,0,84,0.0,25.0
707,43.0,0,80,0.0,28.0
708,48.0,0,76,0.0,31.0
709,55.0,4,72,0.0,34.0
710,64.0,4,84,0.0,26.0
711,72.0,4,80,0.0,29.0
712,76.0,4,76,0.0,32.0
713,71.0,0,36,0.0,28.0
714,36.0,90,42,0.0,31.0
715,43.0,3,39,0.0,33.0
716,79.0,0,36,0.0,35.0
717,74.0,0,36,0.0,45.0
718,55.0,3,36,0.0,35.0
719,67.0,0,36,0.0,26.0
720,65.0,0,36,0.0,24.0
721,79.0,0,16,0.0,37.0
722,55.0,0,16,0.0,40.0
723,76.0,0,16,0.0,49.0
724,71.0,0,16,0.0,30.0
725,67.0,3,16,0.0,28.0
726,65.0,0,16,0.0,26.0
727,43.0,3,19,0.0,38.0
728,36.0,42,22,0.0,36.0
729,79.0,0,16,0.0,39.0
730,77.0,0,16,0.0,53.0
731,67.0,0,16,0.0,28.0
732,65.0,3,16,0.0,26.0
733,71.0,0,16,0.0,31.0
734,55.0,0,16,0.0,45.0
735,43.0,3,63,0.0,43.0
736,64.0,24,36,0.0,25.0
737,72.0,0,36,0.0,27.0
738,79.0,0,36,0.0,38.0
739,36.0,18,66,0.0,41.0
740,76.0,0,36,0.0,52.0
741,48.0,0,36,0.0,45.0
742,55.0,0,36,0.0,50.0
743,64.0,0,36,0.0,46.0
744,52.0,0,36,0.0,40.0
745,43.0,0,36,0.0,35.0
746,36.0,0,36,0.0,30.0
747,67.0,48,36,0.0,55.0
748,60.0,0,36,0.0,43.0
749,55.0,0,36,0.0,40.0
750,72.0,48,36,0.0,68.0
751,64.0,0,36,0.0,55.0
752,60.0,0,36,0.0,50.0
753,69.0,0,36,0.0,60.0
754,52.0,0,36,0.0,50.0
755,45.0,0,36,0.0,45.0
756,57.0,0,36,0.0,55.0
757,43.0,0,36,0.0,55.0
758,52.0,48,36,0.0,60.0
759,60.0,0,36,0.0,65.0
760,64.0,0,36,0.0,55.0
761,72.0,0,36,0.0,65.0
762,76.0,0,36,0.0,73.0
763,67.0,0,36,0.0,60.0
764,72.0,0,16,0.0,60.0
765,79.0,0,16,0.0,75.0
766,67.0,48,16,0.0,55.0
767,76.0,0,16,0.0,65.0
768,31.0,0,16,0.0,62.0
769,43.0,0,16,0.0,72.0
770,54.0,0,8,0.0,53.0
771,66.0,0,8,0.0,53.0
772,42.0,24,8,0.0,48.0
773,30.0,0,8,0.0,48.0
774,55.0,0,8,0.0,54.0
775,67.0,8,8,0.0,54.0
776,43.0,0,0,0.0,50.0
777,31.0,0,8,0.0,49.0
778,67.0,0,8,0.0,55.0
779,31.0,8,0,0.0,51.0
780,55.0,0,0,0.0,56.0
781,43.0,0,8,0.0,51.0
782,67.0,0,8,0.0,56.0
783,68.0,0,8,0.0,58.0
784,44.0,0,8,0.0,53.0
785,32.0,8,0,0.0,55.0
786,56.0,0,0,0.0,60.0
787,44.0,0,8,0.0,55.0
788,56.0,0,0,0.0,64.0
789,68.0,0,0,0.0,64.0
790,32.0,8,8,0.0,59.0
791,44.0,0,8,0.0,59.0
792,31.0,0,0,0.0,70.0
793,43.0,8,0,0.0,70.0
794,67.0,0,8,0.0,68.0
795,55.0,8,8,0.0,68.0
796,67.0,0,6,0.0,75.0
797,55.0,0,6,0.0,75.0
798,43.0,0,0,0.0,55.0
799,50.0,2,46,0.0,61.0
800,53.0,42,0,0.0,50.0
801,48.0,0,42,0.0,55.0
802,64.0,2,42,0.0,70.0
803,76.0,0,42,0.0,80.0
804,67.0,0,42,0.0,75.0
805,74.0,0,24,0.0,75.0
806,67.0,0,24,0.0,70.0
807,59.0,0,0,0.0,65.0
808,50.0,0,24,0.0,50.0
809,43.0,0,0,0.0,50.0
810,62.0,0,24,0.0,65.0
811,31.0,24,22,0.0,50.0
812,67.0,0,24,0.0,75.0
813,65.0,0,24,0.0,70.0
814,59.0,0,0,0.0,50.0
815,55.0,0,24,0.0,60.0
816,74.0,0,22,0.0,85.0
817,62.0,0,22,0.0,65.0
818,65.0,0,22,0.0,70.0
819,43.0,24,22,0.0,50.0
820,50.0,0,22,0.0,46.0
821,53.0,0,22,0.0,48.0
822,67.0,0,22,0.0,75.0
823,54.0,24,8,0.0,55.0
824,66.0,0,8,0.0,55.0
825,30.0,0,8,0.0,45.0
826,42.0,0,8,0.0,45.0
827,31.0,0,0,0.0,47.0
828,43.0,0,8,0.0,46.0
829,67.0,0,0,0.0,57.0
830,55.0,8,0,0.0,57.0
831,43.0,0,8,0.0,47.0
832,44.0,0,8,0.0,48.0
833,56.0,0,8,0.0,58.0
834,68.0,0,8,0.0,58.0
835,32.0,8,8,0.0,48.0
836,57.0,0,0,0.0,62.0
837,69.0,8,0,0.0,62.0
838,33.0,0,8,0.0,49.0
839,45.0,0,0,0.0,50.0
840,33.0,0,8,0.0,50.0
841,46.0,8,8,0.0,52.0
842,34.0,0,8,0.0,52.0
843,58.0,0,8,0.0,64.0
844,70.0,0,8,0.0,64.0
845,59.0,0,8,0.0,67.0
846,71.0,0,0,0.0,70.0
847,35.0,0,0,0.0,57.0
848,47.0,0,0,0.0,57.0
849,59.0,8,8,0.0,70.0
850,36.0,0,96,0.0,65.0
851,48.0,0,96,0.0,70.0
852,60.0,0,0,0.0,65.0
853,64.0,0,96,0.0,70.0
854,72.0,0,0,0.0,75.0
855,81.0,0,22,0.0,85.0
856,69.0,0,22,0.0,80.0
857,41.0,96,22,0.0,55.0
858,48.0,0,22,0.0,55.0
859,53.0,0,22,0.0,60.0
860,47.0,24,8,0.0,48.0
861,35.0,0,8,0.0,48.0
862,59.0,0,8,0.0,58.0
863,71.0,0,8,0.0,58.0
864,36.0,8,8,0.0,49.0
865,72.0,8,0,0.0,60.0
866,60.0,0,0,0.0,60.0
867,48.0,0,8,0.0,49.0
868,48.0,8,0,0.0,51.0
869,36.0,0,0,0.0,51.0
870,60.0,0,8,0.0,61.0
871,72.0,0,8,0.0,61.0
872,73.0,8,8,0.0,62.0
873,61.0,0,8,0.0,62.0
874,49.0,0,8,0.0,52.0
875,37.0,0,8,0.0,52.0
876,73.0,0,8,0.0,64.0
877,49.0,0,8,0.0,54.0
878,37.0,0,8,0.0,54.0
879,61.0,8,0,0.0,66.0
880,37.0,0,8,0.0,56.0
881,49.0,0,8,0.0,56.0
882,73.0,0,8,0.0,66.0
883,50.0,8,8,0.0,59.0
884,38.0,0,8,0.0,59.0
885,62.0,0,8,0.0,69.0
886,74.0,0,8,0.0,69.0
887,51.0,0,8,0.0,62.0
888,39.0,0,8,0.0,62.0
889,63.0,0,0,0.0,66.0
890,75.0,0,0,0.0,71.0
891,72.0,0,22,0.0,73.0
892,51.0,0,22,0.0,61.0
893,55.0,8,22,0.0,60.0
894,60.0,0,22,0.0,60.0
895,79.0,0,22,0.0,86.0
896,67.0,0,22,0.0,78.0
897,48.0,0,8,0.0,48.0
898,72.0,24,8,0.0,58.0
899,60.0,0,8,0.0,58.0
900,36.0,0,8,0.0,48.0
901,49.0,0,8,0.0,49.0
902,37.0,0,8,0.0,49.0
903,61.0,0,0,0.0,60.0
904,73.0,0,0,0.0,60.0
905,73.0,8,0,0.0,61.0
906,37.0,8,8,0.0,50.0
907,49.0,0,8,0.0,50.0
908,61.0,0,8,0.0,61.0
909,49.0,0,8,0.0,51.0
910,37.0,0,8,0.0,51.0
911,62.0,0,0,0.0,64.0
912,74.0,8,0,0.0,64.0
913,50.0,0,0,0.0,54.0
914,38.0,0,0,0.0,54.0
915,74.0,0,0,0.0,66.0
916,50.0,0,8,0.0,56.0
917,62.0,8,8,0.0,66.0
918,38.0,0,8,0.0,56.0
919,39.0,0,8,0.0,59.0
920,75.0,0,8,0.0,69.0
921,63.0,0,8,0.0,69.0
922,51.0,8,8,0.0,59.0
923,67.0,0,8,0.0,76.0
924,69.0,8,0,0.0,80.0
925,72.0,8,8,0.0,85.0
926,81.0,0,8,0.0,90.0
927,63.0,0,8,0.0,71.0
928,57.0,0,8,0.0,65.0
929,55.0,0,8,0.0,65.0
930,51.0,0,8,0.0,71.0
931,74.0,0,22,0.0,82.0
932,78.0,0,22,0.0,90.0
933,45.0,0,22,0.0,60.0
934,66.0,0,22,0.0,78.0
935,38.0,0,22,0.0,65.0
936,50.0,0,22,0.0,65.0
937,49.0,0,8,0.0,50.0
938,37.0,24,8,0.0,50.0
939,73.0,0,8,0.0,60.0
940,61.0,0,8,0.0,60.0
941,74.0,0,8,0.0,61.0
942,38.0,0,0,0.0,53.0
943,50.0,0,0,0.0,53.0
944,62.0,8,0,0.0,62.0
945,74.0,0,8,0.0,62.0
946,38.0,0,0,0.0,63.0
947,50.0,8,0,0.0,63.0
948,74.0,0,8,0.0,70.0
949,62.0,0,8,0.0,70.0
950,51.0,8,0,0.0,60.0
951,39.0,0,8,0.0,59.0
952,75.0,8,8,0.0,65.0
953,63.0,0,8,0.0,65.0
954,63.0,0,8,0.0,66.0
955,39.0,0,0,0.0,61.0
956,51.0,0,0,0.0,61.0
957,75.0,8,0,0.0,67.0
958,63.0,0,8,0.0,67.0
959,64.0,0,0,0.0,70.0
960,52.0,0,8,0.0,67.0
961,76.0,8,0,0.0,70.0
962,40.0,0,8,0.0,67.0
963,52.0,0,8,0.0,63.0
964,76.0,0,0,0.0,71.0
965,64.0,8,0,0.0,71.0
966,40.0,0,0,0.0,65.0
967,52.0,0,8,0.0,65.0
968,65.0,0,0,0.0,74.0
969,77.0,8,0,0.0,74.0
970,41.0,0,8,0.0,67.0
971,53.0,0,0,0.0,69.0
972,53.0,8,0,0.0,78.0
973,77.0,0,0,0.0,83.0
974,41.0,0,0,0.0,78.0
975,65.0,0,8,0.0,83.0
976,54.0,0,8,0.0,72.0
977,42.0,0,0,0.0,73.0
978,78.0,0,0,0.0,78.0
979,66.0,8,0,0.0,78.0
980,54.0,0,8,0.0,73.0
981,78.0,0,0,0.0,79.0
982,54.0,0,8,0.0,74.0
983,66.0,8,8,0.0,79.0
984,42.0,0,8,0.0,74.0
985,79.0,8,8,0.0,85.0
986,67.0,0,8,0.0,85.0
987,55.0,0,8,0.0,80.0
988,43.0,0,8,0.0,80.0
989,68.0,8,8,0.0,81.0
990,44.0,0,8,0.0,76.0
991,56.0,0,8,0.0,76.0
992,80.0,0,0,0.0,82.0
993,56.0,0,8,0.0,77.0
994,44.0,0,8,0.0,77.0
995,68.0,8,8,0.0,82.0
996,45.0,8,8,0.0,78.0
997,57.0,0,8,0.0,78.0
998,69.0,0,8,0.0,83.0
999,81.0,0,8,0.0,83.0
1000,58.0,8,8,0.0,79.0
1001,46.0,0,8,0.0,79.0
1002,70.0,0,8,0.0,84.0
1003,82.0,0,8,0.0,84.0
1004,74.0,0,22,0.0,85.0
1005,83.0,0,22,0.0,95.0
1006,71.0,0,22,0.0,85.0
1007,43.0,8,22,0.0,80.0
1008,59.0,0,22,0.0,80.0
1009,50.0,0,22,0.0,75.0
1010,61.0,0,8,0.0,68.0
1011,37.0,0,8,0.0,58.0
1012,49.0,24,8,0.0,58.0
1013,73.0,0,8,0.0,68.0
1014,74.0,0,8,0.0,69.0
1015,62.0,8,8,0.0,69.0
1016,50.0,0,8,0.0,59.0
1017,38.0,0,8,0.0,59.0
1018,62.0,0,0,0.0,71.0
1019,74.0,8,0,0.0,71.0
1020,38.0,0,8,0.0,60.0
1021,50.0,0,0,0.0,61.0
1022,38.0,0,8,0.0,61.0
1023,63.0,0,8,0.0,72.0
1024,75.0,0,8,0.0,72.0
1025,39.0,8,8,0.0,62.0
1026,51.0,8,0,0.0,64.0
1027,63.0,0,8,0.0,74.0
1028,75.0,0,8,0.0,74.0
1029,39.0,8,0,0.0,66.0
1030,51.0,0,0,0.0,66.0
1031,75.0,0,8,0.0,76.0
1032,63.0,0,8,0.0,76.0
1033,52.0,0,8,0.0,69.0
1034,40.0,0,8,0.0,69.0
1035,64.0,0,8,0.0,79.0
1036,76.0,8,8,0.0,79.0
1037,53.0,0,8,0.0,72.0
1038,41.0,0,8,0.0,72.0
1039,77.0,8,8,0.0,82.0
1040,65.0,0,8,0.0,82.0
1041,57.0,0,22,0.0,70.0
1042,59.0,0,22,0.0,70.0
1043,65.0,0,22,0.0,75.0
1044,62.0,0,22,0.0,70.0
1045,74.0,0,22,0.0,85.0
1046,71.0,0,22,0.0,85.0
1047,69.0,0,22,0.0,88.0
1048,53.0,8,22,0.0,75.0
1049,81.0,0,22,0.0,98.0
1050,38.0,0,8,0.0,58.0
1051,50.0,0,8,0.0,58.0
1052,74.0,0,8,0.0,68.0
1053,62.0,24,8,0.0,68.0
1054,75.0,0,8,0.0,69.0
1055,63.0,8,0,0.0,70.0
1056,39.0,0,0,0.0,60.0
1057,51.0,0,0,0.0,60.0
1058,63.0,8,0,0.0,71.0
1059,75.0,0,8,0.0,70.0
1060,39.0,0,0,0.0,61.0
1061,51.0,0,8,0.0,61.0
1062,75.0,0,8,0.0,71.0
1063,40.0,0,8,0.0,62.0
1064,52.0,0,8,0.0,62.0
1065,76.0,8,8,0.0,72.0
1066,64.0,0,8,0.0,72.0
1067,64.0,0,8,0.0,74.0
1068,76.0,0,8,0.0,74.0
1069,52.0,0,0,0.0,66.0
1070,40.0,0,8,0.0,64.0
1071,76.0,0,8,0.0,76.0
1072,40.0,0,8,0.0,66.0
1073,64.0,8,8,0.0,76.0
1074,77.0,0,8,0.0,79.0
1075,53.0,0,8,0.0,69.0
1076,41.0,0,8,0.0,69.0
1077,65.0,8,0,0.0,77.0
1078,83.0,0,8,0.0,100.0
1079,75.0,0,8,0.0,91.0
1080,71.0,0,8,0.0,88.0
1081,69.0,0,8,0.0,85.0
1082,63.0,0,8,0.0,72.0
1083,59.0,0,8,0.0,72.0
1084,57.0,0,8,0.0,72.0
1085,53.0,0,8,0.0,77.0
1086,64.0,0,22,0.0,77.0
1087,52.0,0,22,0.0,77.0
1088,59.0,0,22,0.0,72.0
1089,80.0,0,22,0.0,100.0
1090,76.0,0,22,0.0,89.0
1091,71.0,8,22,0.0,86.0
1092,68.0,0,22,0.0,83.0
1093,63.0,0,8,0.0,70.0
1094,75.0,0,8,0.0,70.0
1095,51.0,0,8,0.0,65.0
1096,39.0,24,8,0.0,65.0
1097,52.0,8,0,0.0,64.0
1098,40.0,0,8,0.0,62.0
1099,76.0,0,8,0.0,67.0
1100,64.0,8,8,0.0,67.0
1101,40.0,0,0,0.0,65.0
1102,52.0,8,0,0.0,65.0
1103,64.0,0,8,0.0,69.0
1104,76.0,0,0,0.0,70.0
1105,64.0,0,8,0.0,70.0
1106,53.0,8,8,0.0,66.0
1107,77.0,8,0,0.0,77.0
1108,41.0,0,8,0.0,66.0
1109,65.0,0,0,0.0,77.0
1110,53.0,0,8,0.0,72.0
1111,41.0,0,8,0.0,72.0
1112,77.0,0,0,0.0,73.0
1113,65.0,0,8,0.0,73.0
1114,53.0,8,8,0.0,68.0
1115,41.0,0,8,0.0,68.0
1116,54.0,0,8,0.0,75.0
1117,42.0,8,0,0.0,76.0
1118,78.0,8,8,0.0,80.0
1119,66.0,0,8,0.0,80.0
1120,42.0,0,0,0.0,77.0
1121,54.0,0,0,0.0,77.0
1122,66.0,8,0,0.0,82.0
1123,78.0,0,0,0.0,82.0
1124,55.0,0,8,0.0,77.0
1125,43.0,0,8,0.0,77.0
1126,67.0,8,8,0.0,82.0
1127,79.0,0,8,0.0,82.0
1128,79.0,0,8,0.0,84.0
1129,43.0,0,0,0.0,81.0
1130,55.0,8,0,0.0,81.0
1131,67.0,0,8,0.0,84.0
1132,67.0,0,0,0.0,88.0
1133,79.0,0,0,0.0,88.0
1134,56.0,8,8,0.0,83.0
1135,44.0,0,8,0.0,83.0
1136,67.0,0,0,0.0,90.0
1137,79.0,0,0,0.0,90.0
1138,77.0,0,0,0.0,88.0
1139,57.0,8,8,0.0,85.0
1140,45.0,0,8,0.0,85.0
1141,67.0,0,0,0.0,92.0
1142,79.0,0,8,0.0,92.0
1143,77.0,0,8,0.0,90.0
1144,46.0,0,8,0.0,87.0
1145,58.0,8,8,0.0,87.0
1146,67.0,8,8,0.0,94.0
1147,47.0,0,8,0.0,89.0
1148,59.0,0,8,0.0,89.0
1149,79.0,0,0,0.0,96.0
1150,77.0,0,0,0.0,94.0
1151,67.0,0,8,0.0,96.0
1152,60.0,8,8,0.0,91.0
1153,48.0,0,8,0.0,91.0
1154,77.0,0,0,0.0,96.0
1155,79.0,0,0,0.0,98.0
1156,49.0,8,8,0.0,93.0
1157,61.0,0,8,0.0,93.0
1158,67.0,0,0,0.0,100.0
1159,71.0,0,0,0.0,90.0
1160,77.0,0,0,0.0,98.0
1161,79.0,0,0,0.0,100.0
1162,62.0,0,8,0.0,95.0
1163,50.0,8,8,0.0,95.0
1164,79.0,0,8,0.0,100.0
1165,77.0,0,8,0.0,98.0
1166,71.0,8,8,0.0,90.0
1167,67.0,0,8,0.0,100.0
1168,51.0,0,8,0.0,95.0
1169,63.0,0,8,0.0,95.0
1170,55.0,0,22,0.0,85.0
1171,60.0,0,22,0.0,90.0
1172,64.0,0,22,0.0,95.0
1173,88.0,0,22,0.0,110.0
1174,79.0,0,22,0.0,106.0
1175,76.0,8,22,0.0,110.0
1176,48.0,0,22,0.0,80.0
1177,42.0,24,3,0.0,81.0
1178,54.0,0,3,0.0,85.0
1179,43.0,0,3,0.0,77.0
1180,55.0,3,3,0.0,81.0
1181,57.0,3,3,0.0,79.0
1182,45.0,0,3,0.0,75.0
1183,55.0,3,3,0.0,75.0
1184,43.0,0,3,0.0,69.0
1185,57.0,3,3,0.0,71.0
1186,45.0,0,3,0.0,65.0
1187,43.0,0,3,0.0,64.0
1188,55.0,3,3,0.0,70.0
1189,45.0,0,3,0.0,63.0
1190,57.0,3,3,0.0,69.0
1191,55.0,3,3,0.0,67.0
1192,43.0,0,3,0.0,61.0
1193,45.0,0,3,0.0,63.0
1194,57.0,3,3,0.0,69.0
1195,55.0,0,3,0.0,67.0
1196,43.0,3,3,0.0,61.0
1197,45.0,3,3,0.0,63.0
1198,57.0,0,3,0.0,69.0
1199,55.0,0,3,0.0,67.0
1200,43.0,3,3,0.0,61.0
1201,45.0,0,3,0.0,63.0
1202,57.0,3,3,0.0,69.0
1203,43.0,3,3,0.0,61.0
1204,55.0,0,3,0.0,67.0
1205,45.0,0,3,0.0,63.0
1206,57.0,3,3,0.0,69.0
1207,55.0,0,3,0.0,67.0
1208,43.0,3,3,0.0,61.0
1209,45.0,3,3,0.0,63.0
1210,57.0,0,3,0.0,69.0
1211,43.0,3,3,0.0,61.0
1212,55.0,0,3,0.0,68.0
1213,45.0,3,3,0.0,63.0
1214,57.0,0,3,0.0,71.0
1215,43.0,3,3,0.0,62.0
1216,55.0,0,3,0.0,70.0
1217,57.0,3,3,0.0,70.0
1218,45.0,0,3,0.0,65.0
1219,43.0,0,3,0.0,64.0
1220,55.0,3,3,0.0,71.0
1221,54.0,0,3,0.0,79.0
1222,42.0,3,3,0.0,73.0
1223,55.0,3,3,0.0,85.0
1224,31.0,3,16,0.0,80.0
1225,43.0,0,19,0.0,79.0
1226,88.0,0,24,0.0,108.0
1227,79.0,0,24,0.0,104.0
1228,76.0,0,24,0.0,108.0
1229,55.0,18,22,0.0,71.0
1230,62.0,2,20,0.0,73.0
1231,65.0,2,18,0.0,75.0
1232,71.0,2,16,0.0,85.0
1233,79.0,0,24,0.0,100.0
1234,86.0,0,24,0.0,104.0
1235,74.0,6,24,0.0,104.0
1236,60.0,3,16,0.0,91.0
1237,64.0,3,19,0.0,81.0
1238,55.0,12,22,0.0,77.0
1239,88.0,6,24,0.0,110.0
1240,79.0,0,24,0.0,106.0
1241,76.0,0,24,0.0,110.0
1242,74.0,2,16,0.0,95.0
1243,55.0,12,22,0.0,77.0
1244,62.0,2,20,0.0,81.0
1245,67.0,2,18,0.0,85.0
1246,83.0,0,16,0.0,110.0
1247,79.0,0,16,0.0,110.0
1248,77.0,6,16,0.0,115.0
1249,89.0,0,16,0.0,115.0
1250,48.0,12,14,0.0,83.0
1251,55.0,2,12,0.0,87.0
1252,67.0,2,8,0.0,100.0
1253,60.0,0,0,0.0,94.0
1254,88.0,0,8,0.0,113.0
1255,84.0,0,8,0.0,108.0
1256,79.0,0,8,0.0,108.0
1257,76.0,0,8,0.0,113.0
1258,84.0,0,8,0.0,99.0
1259,96.0,0,8,0.0,99.0
1260,72.0,8,8,0.0,94.0
1261,62.0,8,8,0.0,96.0
1262,98.0,0,8,0.0,101.0
1263,86.0,0,8,0.0,101.0
1264,74.0,0,8,0.0,96.0
1265,84.0,0,8,0.0,99.0
1266,96.0,0,8,0.0,99.0
1267,72.0,8,8,0.0,94.0
1268,60.0,0,8,0.0,94.0
1269,91.0,8,8,0.0,97.0
1270,79.0,0,8,0.0,97.0
1271,67.0,0,8,0.0,92.0
1272,55.0,0,8,0.0,92.0
1273,57.0,0,8,0.0,94.0
1274,69.0,8,8,0.0,94.0
1275,93.0,0,8,0.0,99.0
1276,81.0,0,8,0.0,99.0
1277,67.0,0,8,0.0,92.0
1278,79.0,0,8,0.0,97.0
1279,91.0,0,8,0.0,97.0
1280,55.0,8,8,0.0,92.0
1281,52.0,0,8,0.0,90.0
1282,64.0,0,8,0.0,90.0
1283,76.0,0,8,0.0,95.0
1284,88.0,8,8,0.0,95.0
1285,53.0,8,8,0.0,92.0
1286,65.0,0,8,0.0,92.0
1287,77.0,0,8,0.0,97.0
1288,89.0,0,8,0.0,97.0
1289,76.0,0,8,0.0,95.0
1290,88.0,8,8,0.0,95.0
1291,52.0,0,8,0.0,90.0
1292,64.0,0,8,0.0,90.0
1293,60.0,0,8,0.0,88.0
1294,48.0,0,8,0.0,88.0
1295,72.0,8,8,0.0,93.0
1296,84.0,0,8,0.0,93.0
1297,86.0,0,8,0.0,95.0
1298,62.0,0,8,0.0,90.0
1299,74.0,0,8,0.0,95.0
1300,50.0,8,8,0.0,90.0
1301,48.0,0,8,0.0,88.0
1302,60.0,8,8,0.0,88.0
1303,84.0,0,8,0.0,93.0
1304,72.0,0,8,0.0,93.0
1305,67.0,0,8,0.0,91.0
1306,79.0,0,8,0.0,91.0
1307,55.0,0,8,0.0,86.0
1308,43.0,8,8,0.0,86.0
1309,45.0,0,8,0.0,88.0
1310,57.0,0,8,0.0,88.0
1311,81.0,8,8,0.0,93.0
1312,69.0,0,8,0.0,93.0
1313,55.0,0,8,0.0,84.0
1314,43.0,0,8,0.0,84.0
1315,67.0,8,8,0.0,92.0
1316,79.0,0,8,0.0,92.0
1317,76.0,0,8,0.0,91.0
1318,64.0,0,8,0.0,91.0
1319,52.0,0,8,0.0,86.0
1320,40.0,8,8,0.0,86.0
1321,41.0,0,8,0.0,89.0
1322,53.0,0,8,0.0,89.0
1323,77.0,0,8,0.0,94.0
1324,65.0,8,8,0.0,94.0
1325,76.0,0,8,0.0,93.0
1326,64.0,0,8,0.0,93.0
1327,52.0,8,8,0.0,88.0
1328,40.0,0,8,0.0,88.0
1329,36.0,0,8,0.0,87.0
1330,48.0,0,8,0.0,87.0
1331,72.0,8,8,0.0,92.0
1332,60.0,0,8,0.0,92.0
1333,62.0,0,8,0.0,95.0
1334,38.0,8,8,0.0,90.0
1335,50.0,0,8,0.0,90.0
1336,74.0,0,8,0.0,95.0
1337,48.0,8,8,0.0,89.0
1338,36.0,0,8,0.0,89.0
1339,60.0,0,8,0.0,94.0
1340,72.0,0,8,0.0,94.0
1341,69.0,0,8,0.0,93.0
1342,57.0,0,8,0.0,93.0
1343,45.0,0,8,0.0,88.0
1344,33.0,8,8,0.0,88.0
1345,28.0,0,8,0.0,87.0
1346,52.0,8,8,0.0,92.0
1347,64.0,0,0,0.0,103.0
1348,40.0,0,8,0.0,87.0
1349,43.0,8,8,0.0,96.0
1350,31.0,0,8,0.0,96.0
1351,60.0,0,8,0.0,103.0
1352,55.0,0,8,0.0,107.0
1353,67.0,0,8,0.0,107.0
1354,63.0,0,8,0.0,96.0
1355,51.0,8,8,0.0,96.0
1356,87.0,0,8,0.0,101.0
1357,75.0,0,8,0.0,101.0
1358,86.0,0,8,0.0,100.0
1359,74.0,0,8,0.0,100.0
1360,62.0,0,8,0.0,95.0
1361,50.0,8,8,0.0,95.0
1362,85.0,0,8,0.0,99.0
1363,49.0,8,8,0.0,94.0
1364,73.0,0,8,0.0,99.0
1365,61.0,0,8,0.0,94.0
1366,84.0,0,8,0.0,98.0
1367,72.0,0,8,0.0,98.0
1368,60.0,0,8,0.0,93.0
1369,48.0,8,8,0.0,93.0
1370,71.0,0,8,0.0,97.0
1371,83.0,8,8,0.0,97.0
1372,59.0,0,8,0.0,92.0
1373,47.0,0,8,0.0,92.0
1374,58.0,0,8,0.0,91.0
1375,70.0,0,8,0.0,96.0
1376,82.0,8,8,0.0,96.0
1377,46.0,0,8,0.0,91.0
1378,57.0,0,8,0.0,90.0
1379,81.0,8,8,0.0,95.0
1380,69.0,0,8,0.0,95.0
1381,45.0,0,8,0.0,90.0
1382,44.0,8,8,0.0,89.0
1383,80.0,0,8,0.0,94.0
1384,56.0,0,8,0.0,89.0
1385,68.0,0,8,0.0,94.0
1386,55.0,8,8,0.0,88.0
1387,79.0,0,8,0.0,93.0
1388,67.0,0,8,0.0,93.0
1389,43.0,0,8,0.0,88.0
1390,42.0,0,8,0.0,87.0
1391,54.0,8,8,0.0,87.0
1392,66.0,0,8,0.0,92.0
1393,78.0,0,8,0.0,92.0
1394,53.0,0,8,0.0,86.0
1395,41.0,0,8,0.0,86.0
1396,77.0,0,8,0.0,91.0
1397,65.0,8,8,0.0,91.0
1398,52.0,0,8,0.0,85.0
1399,40.0,8,8,0.0,85.0
1400,39.0,8,8,0.0,86.0
1401,51.0,0,8,0.0,86.0
1402,38.0,0,8,0.0,87.0
1403,50.0,8,8,0.0,87.0
1404,49.0,0,8,0.0,88.0
1405,37.0,8,8,0.0,88.0
1406,36.0,8,8,0.0,89.0
1407,48.0,0,8,0.0,89.0
1408,80.0,0,48,0.0,115.0
1409,76.0,0,48,0.0,115.0
1410,88.0,0,48,0.0,120.0
1411,47.0,8,8,0.0,90.0
1412,35.0,0,8,0.0,90.0
1413,46.0,8,8,0.0,91.0
1414,34.0,0,8,0.0,91.0
1415,45.0,0,8,0.0,92.0
1416,33.0,8,8,0.0,92.0
1417,44.0,8,8,0.0,93.0
1418,86.0,0,24,0.0,108.0
1419,77.0,0,24,0.0,102.0
1420,74.0,0,0,0.0,98.0
1421,32.0,0,8,0.0,93.0
1422,43.0,0,8,0.0,94.0
1423,31.0,8,8,0.0,94.0
1424,42.0,0,8,0.0,95.0
1425,30.0,8,8,0.0,95.0
1426,79.0,0,22,0.0,102.0
1427,67.0,0,22,0.0,98.0
1428,65.0,0,22,0.0,102.0
1429,33.0,8,8,0.0,96.0
1430,45.0,0,8,0.0,96.0
1431,50.0,2,20,0.0,81.0
1432,53.0,2,18,0.0,85.0
1433,59.0,0,16,0.0,90.0
1434,77.0,0,16,0.0,107.0
1435,43.0,8,22,0.0,77.0
1436,86.0,0,16,0.0,115.0
1437,83.0,0,16,0.0,107.0
1438,79.0,0,16,0.0,107.0
1439,74.0,2,16,0.0,115.0
1440,76.0,0,8,0.0,105.0
1441,100.0,0,8,0.0,106.0
1442,88.0,0,8,0.0,106.0
1443,64.0,18,8,0.0,105.0
1444,74.0,8,8,0.0,103.0
1445,62.0,0,8,0.0,103.0
1446,86.0,0,8,0.0,105.0
1447,98.0,0,8,0.0,105.0
1448,57.0,0,8,0.0,102.0
1449,69.0,8,8,0.0,102.0
1450,93.0,0,8,0.0,104.0
1451,81.0,0,8,0.0,104.0
1452,79.0,0,8,0.0,103.0
1453,91.0,8,8,0.0,103.0
1454,67.0,0,8,0.0,100.0
1455,55.0,0,8,0.0,100.0
1456,88.0,0,8,0.0,102.0
1457,64.0,0,8,0.0,99.0
1458,52.0,0,8,0.0,99.0
1459,76.0,8,8,0.0,102.0
1460,50.0,0,8,0.0,97.0
1461,62.0,0,8,0.0,97.0
1462,86.0,0,8,0.0,101.0
1463,74.0,8,8,0.0,101.0
1464,57.0,8,8,0.0,95.0
1465,81.0,0,8,0.0,100.0
1466,69.0,0,8,0.0,100.0
1467,45.0,0,8,0.0,95.0
1468,55.0,0,8,0.0,94.0
1469,43.0,0,8,0.0,94.0
1470,67.0,0,0,0.0,94.0
1471,79.0,0,8,0.0,99.0
1472,59.0,0,8,0.0,88.0
1473,65.0,0,8,0.0,88.0
1474,43.0,0,8,0.0,85.0
1475,31.0,8,8,0.0,85.0
1476,55.0,0,8,0.0,94.0
1477,36.0,0,8,0.0,90.0
1478,24.0,0,8,0.0,90.0
1479,31.0,8,8,0.0,60.0
1480,43.0,8,0,0.0,73.0
1481,31.0,0,6,0.0,63.0
1482,31.0,0,8,0.0,59.0
1483,43.0,8,8,0.0,69.0
1484,36.0,0,0,0.0,55.0
1485,48.0,8,0,0.0,65.0
1486,72.0,0,46,0.0,96.0
1487,60.0,0,46,0.0,96.0
1488,64.0,8,46,0.0,92.0
1489,36.0,0,0,0.0,53.0
1490,48.0,8,8,0.0,63.0
1491,55.0,8,8,0.0,61.0
1492,43.0,0,8,0.0,51.0
1493,43.0,0,6,0.0,48.0
1494,55.0,8,6,0.0,58.0
1495,43.0,0,8,0.0,45.0
1496,55.0,8,8,0.0,55.0
1497,60.0,8,8,0.0,50.0
1498,48.0,0,8,0.0,40.0
1499,60.0,0,8,0.0,45.0
1500,48.0,8,0,0.0,34.0
1501,60.0,0,16,0.0,42.0
1502,67.0,0,0,0.0,42.0
1503,72.0,0,0,0.0,44.0
1504,75.0,16,0,0.0,46.0
1505,60.0,0,16,0.0,42.0
1506,51.0,16,16,0.0,38.0
1507,63.0,0,16,0.0,46.0
1508,55.0,0,16,0.0,42.0
1509,67.0,0,16,0.0,46.0
1510,72.0,0,16,0.0,48.0
1511,75.0,0,16,0.0,50.0
1512,60.0,16,16,0.0,42.0
1513,51.0,0,16,0.0,38.0
1514,75.0,16,16,0.0,48.0
1515,60.0,0,16,0.0,42.0
1516,72.0,0,16,0.0,46.0
1517,67.0,0,16,0.0,44.0
1518,55.0,0,16,0.0,42.0
1519,51.0,0,14,0.0,38.0
1520,60.0,0,14,0.0,42.0
1521,79.0,0,48,0.0,76.0
1522,67.0,16,16,0.0,42.0
1523,72.0,0,0,0.0,44.0
1524,75.0,0,0,0.0,46.0
1525,41.0,0,16,0.0,54.0
1526,68.0,0,16,0.0,42.0
1527,72.0,0,0,0.0,48.0
1528,53.0,16,0,0.0,42.0
1529,60.0,0,16,0.0,46.0
1530,75.0,0,16,0.0,50.0
1531,68.0,0,16,0.0,46.0
1532,68.0,16,0,0.0,54.0
1533,72.0,0,0,0.0,56.0
1534,75.0,0,0,0.0,58.0
1535,56.0,0,16,0.0,46.0
1536,63.0,0,16,0.0,50.0
1537,53.0,0,16,0.0,42.0
1538,60.0,0,16,0.0,46.0
1539,75.0,0,0,0.0,52.0
1540,72.0,0,16,0.0,50.0
1541,68.0,0,16,0.0,48.0
1542,75.0,0,0,0.0,46.0
1543,63.0,0,16,0.0,50.0
1544,56.0,16,16,0.0,46.0
1545,53.0,0,14,0.0,42.0
1546,60.0,16,14,0.0,46.0
1547,72.0,0,16,0.0,44.0
1548,68.0,0,16,0.0,42.0
1549,80.0,0,48,0.0,88.0
1550,47.0,0,16,0.0,50.0
1551,65.0,0,0,0.0,44.0
1552,35.0,0,16,0.0,52.0
1553,67.0,0,0,0.0,46.0
1554,74.0,16,0,0.0,48.0
1555,55.0,0,16,0.0,44.0
1556,47.0,0,16,0.0,38.0
1557,62.0,0,16,0.0,46.0
1558,50.0,0,16,0.0,42.0
1559,65.0,0,0,0.0,48.0
1560,79.0,16,16,0.0,80.0
1561,74.0,0,0,0.0,52.0
1562,67.0,16,0,0.0,50.0
1563,47.0,0,16,0.0,38.0
1564,55.0,0,16,0.0,44.0
1565,65.0,0,0,0.0,46.0
1566,67.0,16,0,0.0,48.0
1567,62.0,0,16,0.0,46.0
1568,50.0,0,16,0.0,42.0
1569,74.0,0,16,0.0,50.0
1570,55.0,16,14,0.0,44.0
1571,47.0,0,14,0.0,38.0
1572,65.0,0,16,0.0,46.0
1573,67.0,0,0,0.0,46.0
1574,74.0,0,22,0.0,74.0
1575,63.0,0,6,0.0,44.0
1576,48.0,0,16,0.0,52.0
1577,36.0,16,16,0.0,54.0
1578,67.0,12,6,0.0,50.0
1579,75.0,0,6,0.0,73.0
1580,72.0,0,6,0.0,52.0
1581,72.0,8,6,0.0,55.0
1582,77.0,0,6,0.0,76.0
1583,67.0,0,6,0.0,53.0
1584,48.0,4,16,0.0,38.0
1585,55.0,0,16,0.0,44.0
1586,72.0,0,6,0.0,52.0
1587,75.0,4,6,0.0,73.0
1588,67.0,0,6,0.0,50.0
1589,51.0,8,16,0.0,42.0
1590,63.0,0,16,0.0,46.0
1591,67.0,0,6,0.0,47.0
1592,74.0,0,6,0.0,76.0
1593,72.0,0,6,0.0,50.0
1594,48.0,12,16,0.0,38.0
1595,55.0,0,16,0.0,44.0
1596,67.0,0,6,0.0,50.0
1597,72.0,0,6,0.0,53.0
1598,75.0,12,6,0.0,79.0
1599,77.0,8,6,0.0,82.0
1600,72.0,0,6,0.0,56.0
1601,67.0,0,6,0.0,53.0
1602,63.0,4,16,0.0,46.0
1603,51.0,0,16,0.0,42.0
1604,67.0,4,6,0.0,56.0
1605,72.0,0,6,0.0,59.0
1606,79.0,0,6,0.0,80.0
1607,60.0,8,14,0.0,44.0
1608,48.0,0,14,0.0,38.0
1609,68.0,16,0,0.0,48.0
1610,32.0,0,16,0.0,54.0
1611,44.0,12,16,0.0,52.0
1612,63.0,0,16,0.0,46.0
1613,48.0,0,16,0.0,38.0
1614,56.0,0,16,0.0,44.0
1615,68.0,0,0,0.0,50.0
1616,72.0,0,0,0.0,78.0
1617,63.0,16,0,0.0,50.0
1618,51.0,16,16,0.0,42.0
1619,60.0,0,16,0.0,46.0
1620,68.0,0,16,0.0,52.0
1621,48.0,0,16,0.0,38.0
1622,56.0,0,16,0.0,44.0
1623,51.0,16,16,0.0,42.0
1624,60.0,0,16,0.0,46.0
1625,68.0,0,16,0.0,54.0
1626,63.0,0,16,0.0,52.0
1627,63.0,0,8,0.0,54.0
1628,68.0,0,0,0.0,56.0
1629,56.0,0,14,0.0,44.0
1630,48.0,16,14,0.0,38.0
1631,72.0,8,8,0.0,82.0
1632,63.0,0,8,0.0,54.0
1633,62.0,0,16,0.0,56.0
1634,41.0,8,16,0.0,58.0
1635,29.0,0,16,0.0,60.0
1636,68.0,0,0,0.0,57.0
1637,56.0,0,16,0.0,46.0
1638,53.0,16,16,0.0,44.0
1639,50.0,0,16,0.0,42.0
1640,68.0,0,0,0.0,56.0
1641,62.0,16,0,0.0,54.0
1642,53.0,0,0,0.0,44.0
1643,56.0,16,0,0.0,46.0
1644,60.0,0,16,0.0,48.0
1645,74.0,0,48,0.0,80.0
1646,62.0,0,0,0.0,52.0
1647,72.0,0,16,0.0,76.0
1648,68.0,16,0,0.0,50.0
1649,50.0,0,16,0.0,42.0
1650,56.0,0,0,0.0,46.0
1651,53.0,0,16,0.0,44.0
1652,60.0,0,16,0.0,48.0
1653,68.0,0,0,0.0,42.0
1654,62.0,0,0,0.0,40.0
1655,62.0,8,0,0.0,42.0
1656,50.0,16,14,0.0,42.0
1657,56.0,0,14,0.0,46.0
1658,53.0,0,14,0.0,44.0
1659,68.0,0,8,0.0,72.0
1660,60.0,0,8,0.0,40.0
1661,65.0,8,16,0.0,40.0
1662,62.0,0,16,0.0,38.0
1663,60.0,0,16,0.0,36.0
1664,43.0,0,16,0.0,56.0
1665,31.0,0,16,0.0,58.0
1666,65.0,0,16,0.0,42.0
1667,62.0,0,16,0.0,40.0
1668,60.0,16,16,0.0,38.0
1669,50.0,0,16,0.0,46.0
1670,43.0,0,16,0.0,40.0
1671,60.0,16,16,0.0,40.0
1672,67.0,0,0,0.0,58.0
1673,62.0,0,0,0.0,38.0
1674,65.0,0,0,0.0,40.0
1675,55.0,0,16,0.0,50.0
1676,50.0,0,16,0.0,46.0
1677,59.0,0,8,0.0,36.0
1678,70.0,8,4,0.0,60.0
1679,43.0,16,16,0.0,44.0
1680,50.0,0,0,0.0,50.0
1681,68.0,0,12,0.0,70.0
1682,65.0,0,12,0.0,40.0
1683,59.0,4,12,0.0,36.0
1684,62.0,0,0,0.0,37.0
1685,55.0,4,16,0.0,54.0
1686,65.0,0,12,0.0,39.0
1687,59.0,0,12,0.0,35.0
1688,67.0,8,12,0.0,70.0
1689,50.0,0,14,0.0,55.0
1690,43.0,8,14,0.0,49.0
1691,53.0,4,12,0.0,34.0
1692,55.0,0,0,0.0,40.0
1693,59.0,0,12,0.0,38.0
1694,62.0,0,12,0.0,72.0
1695,63.0,12,8,0.0,66.0
1696,55.0,0,0,0.0,36.0
1697,51.0,0,0,0.0,34.0
1698,60.0,8,6,0.0,60.0
1699,48.0,8,0,0.0,52.0
1700,36.0,0,16,0.0,62.0
1701,51.0,0,14,0.0,38.0
1702,43.0,0,16,0.0,48.0
1703,48.0,16,0,0.0,46.0
1704,51.0,0,14,0.0,40.0
1705,48.0,0,0,0.0,48.0
1706,55.0,0,16,0.0,50.0
1707,51.0,16,14,0.0,42.0
1708,43.0,0,16,0.0,44.0
1709,51.0,0,14,0.0,40.0
1710,48.0,0,16,0.0,42.0
1711,55.0,16,16,0.0,46.0
1712,43.0,0,14,0.0,36.0
1713,48.0,0,14,0.0,40.0
1714,51.0,16,14,0.0,38.0
1715,55.0,0,14,0.0,40.0
1716,27.0,0,14,0.0,54.0
1717,51.0,0,14,0.0,38.0
1718,39.0,16,14,0.0,52.0
1719,58.0,0,14,0.0,42.0
1720,70.0,16,0,0.0,44.0
1721,58.0,0,16,0.0,44.0
1722,51.0,0,16,0.0,40.0
1723,75.0,0,0,0.0,46.0
1724,67.0,0,0,0.0,42.0
1725,55.0,0,16,0.0,42.0
1726,63.0,0,16,0.0,46.0
1727,75.0,0,16,0.0,50.0
1728,67.0,0,16,0.0,46.0
1729,70.0,0,0,0.0,44.0
1730,51.0,0,16,0.0,40.0
1731,58.0,16,16,0.0,44.0
1732,55.0,0,16,0.0,42.0
1733,63.0,0,16,0.0,46.0
1734,67.0,16,0,0.0,38.0
1735,75.0,0,16,0.0,46.0
1736,70.0,0,0,0.0,40.0
1737,51.0,0,14,0.0,40.0
1738,58.0,0,14,0.0,44.0
1739,79.0,0,48,0.0,82.0
1740,75.0,0,16,0.0,42.0
1741,32.0,0,16,0.0,54.0
1742,72.0,0,16,0.0,44.0
1743,75.0,0,0,0.0,50.0
1744,44.0,0,16,0.0,52.0
1745,68.0,16,16,0.0,42.0
1746,72.0,0,16,0.0,48.0
1747,68.0,0,16,0.0,46.0
1748,60.0,16,16,0.0,44.0
1749,53.0,0,16,0.0,40.0
1750,75.0,0,16,0.0,54.0
1751,72.0,16,0,0.0,56.0
1752,68.0,0,0,0.0,54.0
1753,56.0,0,16,0.0,42.0
1754,63.0,0,16,0.0,46.0
1755,53.0,0,16,0.0,40.0
1756,60.0,0,16,0.0,44.0
1757,75.0,0,16,0.0,58.0
1758,72.0,0,16,0.0,50.0
1759,68.0,0,16,0.0,48.0
1760,75.0,0,0,0.0,46.0
1761,63.0,0,16,0.0,46.0
1762,56.0,16,16,0.0,42.0
1763,60.0,0,14,0.0,44.0
1764,53.0,0,14,0.0,40.0
1765,72.0,0,16,0.0,44.0
1766,68.0,0,0,0.0,40.0
1767,74.0,0,16,0.0,44.0
1768,70.0,0,16,0.0,42.0
1769,34.0,16,16,0.0,54.0
1770,46.0,16,0,0.0,40.0
1771,68.0,0,0,0.0,44.0
1772,80.0,0,80,0.0,92.0
1773,74.0,0,16,0.0,48.0
1774,70.0,0,16,0.0,46.0
1775,56.0,0,16,0.0,44.0
1776,53.0,16,16,0.0,42.0
1777,62.0,0,16,0.0,46.0
1778,70.0,0,16,0.0,50.0
1779,74.0,0,16,0.0,52.0
1780,68.0,0,0,0.0,50.0
1781,46.0,16,16,0.0,40.0
1782,56.0,0,16,0.0,44.0
1783,74.0,0,16,0.0,52.0
1784,74.0,0,16,0.0,50.0
1785,79.0,0,48,0.0,86.0
1786,68.0,16,0,0.0,46.0
1787,53.0,0,16,0.0,42.0
1788,62.0,16,16,0.0,46.0
1789,47.0,0,14,0.0,50.0
1790,35.0,0,14,0.0,52.0
1791,74.0,0,16,0.0,48.0
1792,67.0,0,6,0.0,44.0
1793,77.0,0,22,0.0,80.0
1794,72.0,0,6,0.0,46.0
1795,48.0,0,16,0.0,52.0
1796,36.0,16,16,0.0,54.0
1797,72.0,0,6,0.0,46.0
1798,75.0,0,6,0.0,78.0
1799,67.0,12,6,0.0,44.0
1800,67.0,8,6,0.0,46.0
1801,72.0,0,6,0.0,48.0
1802,77.0,0,6,0.0,80.0
1803,55.0,0,16,0.0,44.0
1804,48.0,4,16,0.0,40.0
1805,72.0,0,6,0.0,49.0
1806,67.0,4,6,0.0,47.0
1807,75.0,0,6,0.0,79.0
1808,63.0,0,16,0.0,46.0
1809,51.0,8,16,0.0,42.0
1810,67.0,0,6,0.0,46.0
1811,74.0,12,6,0.0,78.0
1812,72.0,0,6,0.0,48.0
1813,48.0,0,16,0.0,40.0
1814,55.0,0,16,0.0,44.0
1815,75.0,0,6,0.0,82.0
1816,72.0,0,6,0.0,52.0
1817,67.0,12,6,0.0,50.0
1818,77.0,0,6,0.0,84.0
1819,72.0,0,6,0.0,54.0
1820,69.0,8,6,0.0,52.0
1821,67.0,0,6,0.0,50.0
1822,51.0,0,16,0.0,42.0
1823,63.0,4,16,0.0,46.0
1824,72.0,0,6,0.0,50.0
1825,69.0,4,6,0.0,48.0
1826,67.0,0,6,0.0,46.0
1827,79.0,0,6,0.0,80.0
1828,55.0,8,14,0.0,44.0
1829,48.0,0,14,0.0,40.0
1830,67.0,0,16,0.0,46.0
1831,38.0,0,16,0.0,52.0
1832,50.0,0,16,0.0,50.0
1833,70.0,0,16,0.0,48.0
1834,62.0,16,0,0.0,44.0
1835,74.0,0,32,0.0,80.0
1836,46.0,0,16,0.0,40.0
1837,55.0,0,16,0.0,44.0
1838,67.0,0,16,0.0,46.0
1839,62.0,16,0,0.0,74.0
1840,50.0,0,16,0.0,42.0
1841,58.0,0,16,0.0,46.0
1842,62.0,0,12,0.0,46.0
1843,55.0,0,16,0.0,48.0
1844,46.0,16,16,0.0,44.0
1845,67.0,12,12,0.0,78.0
1846,62.0,0,12,0.0,50.0
1847,58.0,4,16,0.0,52.0
1848,50.0,0,0,0.0,62.0
1849,62.0,8,12,0.0,52.0
1850,72.0,0,12,0.0,82.0
1851,67.0,4,0,0.0,58.0
1852,38.0,8,14,0.0,64.0
1853,62.0,0,12,0.0,56.0
1854,74.0,0,12,0.0,86.0
1855,67.0,0,0,0.0,58.0
1856,38.0,0,16,0.0,66.0
1857,63.0,0,16,0.0,56.0
1858,26.0,12,16,0.0,68.0
1859,63.0,0,0,0.0,54.0
1860,67.0,16,0,0.0,56.0
1861,50.0,0,16,0.0,52.0
1862,57.0,0,0,0.0,54.0
1863,60.0,0,16,0.0,58.0
1864,63.0,0,0,0.0,52.0
1865,57.0,0,16,0.0,54.0
1866,50.0,16,16,0.0,50.0
1867,66.0,0,16,0.0,54.0
1868,57.0,0,0,0.0,48.0
1869,60.0,16,16,0.0,54.0
1870,66.0,0,16,0.0,52.0
1871,63.0,16,0,0.0,46.0
1872,75.0,0,80,0.0,82.0
1873,50.0,0,14,0.0,44.0
1874,66.0,0,0,0.0,68.0
1875,60.0,0,16,0.0,44.0
1876,62.0,0,16,0.0,46.0
1877,31.0,16,16,0.0,60.0
1878,58.0,0,0,0.0,42.0
1879,43.0,16,0,0.0,50.0
1880,50.0,0,16,0.0,44.0
1881,62.0,0,16,0.0,44.0
1882,58.0,0,0,0.0,40.0
1883,50.0,16,16,0.0,50.0
1884,55.0,0,16,0.0,46.0
1885,62.0,0,16,0.0,42.0
1886,58.0,16,0,0.0,39.0
1887,43.0,16,16,0.0,50.0
1888,50.0,0,0,0.0,50.0
1889,62.0,0,0,0.0,41.0
1890,55.0,0,16,0.0,46.0
1891,38.0,16,14,0.0,56.0
1892,58.0,0,0,0.0,36.0
1893,62.0,16,0,0.0,38.0
1894,31.0,0,16,0.0,56.0
1895,43.0,16,0,0.0,42.0
1896,62.0,0,0,0.0,41.0
1897,59.0,0,0,0.0,42.0
1898,50.0,0,16,0.0,46.0
1899,67.0,0,110,0.0,70.0
1900,62.0,16,16,0.0,44.0
1901,59.0,16,0,0.0,45.0
1902,55.0,0,16,0.0,50.0
1903,50.0,0,16,0.0,46.0
1904,43.0,0,16,0.0,46.0
1905,50.0,0,0,0.0,44.0
1906,62.0,0,0,0.0,50.0
1907,59.0,16,16,0.0,48.0
1908,55.0,0,16,0.0,48.0
1909,62.0,0,0,0.0,44.0
1910,31.0,16,14,0.0,58.0
1911,43.0,0,14,0.0,60.0
1912,59.0,0,16,0.0,42.0
1913,62.0,0,16,0.0,46.0
1914,59.0,0,16,0.0,44.0
1915,42.0,16,0,0.0,40.0
1916,30.0,0,16,0.0,58.0
1917,51.0,0,16,0.0,44.0
1918,63.0,0,16,0.0,48.0
1919,60.0,0,16,0.0,46.0
1920,67.0,0,96,0.0,72.0
1921,60.0,0,0,0.0,48.0
1922,48.0,16,16,0.0,42.0
1923,56.0,0,16,0.0,46.0
1924,63.0,0,0,0.0,50.0
1925,51.0,0,16,0.0,44.0
1926,42.0,0,16,0.0,40.0
1927,56.0,16,16,0.0,42.0
1928,48.0,0,16,0.0,38.0
1929,60.0,0,0,0.0,48.0
1930,63.0,0,0,0.0,50.0
1931,30.0,16,14,0.0,58.0
1932,42.0,0,14,0.0,56.0
1933,41.0,16,0,0.0,48.0
1934,29.0,0,16,0.0,58.0
1935,56.0,0,0,0.0,52.0
1936,61.0,0,0,0.0,54.0
1937,49.0,0,16,0.0,52.0
1938,56.0,0,0,0.0,58.0
1939,68.0,16,80,0.0,82.0
1940,61.0,0,16,0.0,56.0
1941,68.0,16,0,0.0,58.0
1942,73.0,0,0,0.0,60.0
1943,49.0,0,0,0.0,58.0
1944,65.0,16,0,0.0,62.0
1945,41.0,0,16,0.0,54.0
1946,49.0,0,0,0.0,60.0
1947,68.0,0,0,0.0,64.0
1948,73.0,0,16,0.0,64.0
1949,77.0,0,32,0.0,94.0
1950,56.0,0,16,0.0,64.0
1951,29.0,0,14,0.0,68.0
1952,41.0,16,14,0.0,66.0
1953,82.0,0,16,0.0,100.0
1954,70.0,0,16,0.0,68.0
1955,61.0,0,16,0.0,70.0
1956,48.0,0,16,0.0,60.0
1957,36.0,0,16,0.0,62.0
1958,66.0,0,0,0.0,58.0
1959,68.0,0,0,0.0,60.0
1960,75.0,16,0,0.0,62.0
1961,48.0,0,16,0.0,48.0
1962,66.0,0,0,0.0,54.0
1963,68.0,16,0,0.0,56.0
1964,56.0,0,16,0.0,52.0
1965,66.0,0,0,0.0,50.0
1966,68.0,0,0,0.0,52.0
1967,75.0,16,0,0.0,54.0
1968,51.0,0,16,0.0,48.0
1969,63.0,0,16,0.0,52.0
1970,48.0,0,16,0.0,44.0
1971,56.0,0,16,0.0,48.0
1972,75.0,16,0,0.0,50.0
1973,68.0,0,16,0.0,48.0
1974,80.0,16,80,0.0,94.0
1975,51.0,0,16,0.0,44.0
1976,63.0,0,16,0.0,48.0
1977,75.0,0,0,0.0,48.0
1978,66.0,16,0,0.0,44.0
1979,78.0,0,8,0.0,78.0
1980,68.0,0,8,0.0,46.0
1981,66.0,8,0,0.0,44.0
1982,36.0,0,14,0.0,54.0
1983,48.0,0,14,0.0,52.0
1984,68.0,0,8,0.0,46.0
1985,77.0,0,8,0.0,74.0
1986,68.0,0,16,0.0,44.0
1987,73.0,0,16,0.0,46.0
1988,37.0,0,16,0.0,56.0
1989,49.0,0,0,0.0,40.0
1990,65.0,0,0,0.0,44.0
1991,68.0,0,0,0.0,48.0
1992,73.0,16,0,0.0,50.0
1993,56.0,16,16,0.0,44.0
1994,61.0,0,16,0.0,46.0
1995,53.0,0,16,0.0,42.0
1996,65.0,0,16,0.0,46.0
1997,68.0,16,0,0.0,50.0
1998,73.0,16,0,0.0,50.0
1999,65.0,0,16,0.0,48.0
2000,49.0,0,16,0.0,40.0
2001,56.0,0,16,0.0,44.0
2002,65.0,0,16,0.0,46.0
2003,68.0,0,16,0.0,48.0
2004,73.0,16,0,0.0,46.0
2005,61.0,0,16,0.0,46.0
2006,53.0,0,16,0.0,42.0
2007,48.0,0,14,0.0,48.0
2008,36.0,0,14,0.0,50.0
2009,68.0,0,16,0.0,44.0
2010,65.0,0,16,0.0,42.0
2011,65.0,0,16,0.0,42.0
2012,67.0,0,0,0.0,44.0
2013,74.0,0,0,0.0,46.0
2014,47.0,0,16,0.0,50.0
2015,35.0,0,16,0.0,52.0
2016,74.0,16,0,0.0,46.0
2017,65.0,16,16,0.0,42.0
2018,55.0,0,16,0.0,44.0
2019,47.0,0,16,0.0,40.0
2020,77.0,0,142,0.0,68.0
2021,65.0,0,16,0.0,42.0
2022,67.0,16,0,0.0,80.0
2023,62.0,0,0,0.0,42.0
2024,50.0,0,16,0.0,42.0
2025,62.0,0,0,0.0,42.0
2026,65.0,16,0,0.0,44.0
2027,47.0,0,16,0.0,40.0
2028,55.0,0,16,0.0,44.0
2029,55.0,0,16,0.0,46.0
2030,50.0,0,16,0.0,42.0
2031,47.0,0,14,0.0,54.0
2032,35.0,0,14,0.0,56.0
2033,62.0,0,16,0.0,42.0
2034,65.0,16,16,0.0,44.0
2035,63.0,16,6,0.0,54.0
2036,68.0,0,6,0.0,78.0
2037,36.0,0,16,0.0,58.0
2038,48.0,0,0,0.0,49.0
2039,67.0,12,6,0.0,77.0
2040,63.0,0,6,0.0,55.0
2041,67.0,0,6,0.0,60.0
2042,63.0,0,6,0.0,58.0
2043,71.0,8,6,0.0,81.0
2044,55.0,4,16,0.0,53.0
2045,67.0,4,6,0.0,63.0
2046,63.0,0,6,0.0,61.0
2047,72.0,0,6,0.0,85.0
2048,60.0,8,16,0.0,58.0
2049,51.0,0,16,0.0,54.0
2050,67.0,12,6,0.0,64.0
2051,63.0,0,6,0.0,62.0
2052,72.0,0,6,0.0,66.0
2053,74.0,0,6,0.0,89.0
2054,55.0,0,16,0.0,59.0
2055,48.0,0,16,0.0,55.0
2056,75.0,0,6,0.0,93.0
2057,72.0,12,6,0.0,69.0
2058,67.0,0,6,0.0,67.0
2059,84.0,0,6,0.0,106.0
2060,75.0,0,6,0.0,78.0
2061,72.0,8,6,0.0,76.0
2062,63.0,0,16,0.0,64.0
2063,51.0,4,16,0.0,60.0
2064,80.0,0,6,0.0,102.0
2065,72.0,4,6,0.0,72.0
2066,75.0,0,6,0.0,74.0
2067,36.0,0,14,0.0,72.0
2068,48.0,8,14,0.0,70.0
2069,50.0,0,0,0.0,56.0
2070,38.0,0,16,0.0,71.0
2071,71.0,16,0,0.0,62.0
2072,65.0,0,0,0.0,58.0
2073,67.0,0,0,0.0,60.0
2074,65.0,0,0,0.0,54.0
2075,71.0,16,0,0.0,58.0
2076,55.0,0,16,0.0,60.0
2077,67.0,0,0,0.0,56.0
2078,67.0,16,0,0.0,47.0
2079,62.0,0,16,0.0,59.0
2080,71.0,0,0,0.0,49.0
2081,55.0,0,16,0.0,55.0
2082,79.0,12,54,0.0,94.0
2083,65.0,0,6,0.0,45.0
2084,65.0,0,4,0.0,44.0
2085,73.0,0,4,0.0,72.0
2086,71.0,8,4,0.0,48.0
2087,67.0,0,4,0.0,46.0
2088,55.0,0,16,0.0,54.0
2089,50.0,0,16,0.0,50.0
2090,74.0,8,4,0.0,73.0
2091,71.0,0,4,0.0,47.0
2092,67.0,0,4,0.0,45.0
2093,65.0,0,4,0.0,43.0
2094,79.0,0,4,0.0,76.0
2095,71.0,0,4,0.0,46.0
2096,67.0,0,4,0.0,44.0
2097,65.0,8,4,0.0,42.0
2098,55.0,0,16,0.0,49.0
2099,62.0,0,16,0.0,53.0
2100,67.0,0,4,0.0,43.0
2101,71.0,0,4,0.0,45.0
2102,77.0,0,4,0.0,73.0
2103,65.0,8,4,0.0,41.0
2104,75.0,0,4,0.0,70.0
2105,71.0,8,4,0.0,44.0
2106,67.0,0,4,0.0,42.0
2107,38.0,0,14,0.0,50.0
2108,50.0,0,14,0.0,52.0
2109,72.0,0,16,0.0,44.0
2110,51.0,0,16,0.0,50.0
2111,39.0,0,16,0.0,48.0
2112,67.0,0,0,0.0,42.0
2113,72.0,0,0,0.0,43.0
2114,51.0,0,16,0.0,40.0
2115,60.0,0,16,0.0,44.0
2116,67.0,0,0,0.0,41.0
2117,75.0,8,46,0.0,66.0
2118,55.0,0,16,0.0,42.0
2119,63.0,16,16,0.0,46.0
2120,72.0,0,16,0.0,42.0
2121,60.0,0,16,0.0,44.0
2122,51.0,16,16,0.0,40.0
2123,67.0,0,0,0.0,39.0
2124,72.0,0,16,0.0,41.0
2125,55.0,0,16,0.0,42.0
2126,63.0,16,16,0.0,46.0
2127,51.0,0,14,0.0,54.0
2128,39.0,0,14,0.0,56.0
2129,67.0,0,16,0.0,38.0
2130,72.0,16,16,0.0,40.0
2131,53.0,16,16,0.0,56.0
2132,41.0,0,16,0.0,58.0
2133,62.0,0,16,0.0,38.0
2134,68.0,0,0,0.0,44.0
2135,62.0,0,16,0.0,42.0
2136,59.0,16,16,0.0,46.0
2137,53.0,0,16,0.0,42.0
2138,59.0,0,16,0.0,46.0
2139,65.0,0,16,0.0,50.0
2140,62.0,0,0,0.0,50.0
2141,68.0,0,0,0.0,52.0
2142,62.0,0,0,0.0,46.0
2143,68.0,16,0,0.0,48.0
2144,59.0,0,16,0.0,50.0
2145,53.0,16,16,0.0,46.0
2146,59.0,0,16,0.0,46.0
2147,65.0,0,16,0.0,50.0
2148,41.0,0,14,0.0,56.0
2149,53.0,16,14,0.0,54.0
2150,62.0,0,16,0.0,42.0
2151,68.0,0,16,0.0,44.0
2152,63.0,0,0,0.0,44.0
2153,67.0,16,0,0.0,48.0
2154,51.0,16,16,0.0,52.0
2155,39.0,0,16,0.0,54.0
2156,71.0,0,80,0.0,74.0
2157,48.0,0,16,0.0,42.0
2158,55.0,0,0,0.0,46.0
2159,67.0,0,16,0.0,56.0
2160,63.0,16,16,0.0,52.0
2161,72.0,0,16,0.0,82.0
2162,60.0,0,16,0.0,50.0
2163,55.0,0,0,0.0,50.0
2164,48.0,0,16,0.0,46.0
2165,67.0,0,0,0.0,67.0
2166,63.0,16,16,0.0,60.0
2167,74.0,0,32,0.0,88.0
2168,63.0,0,0,0.0,58.0
2169,67.0,0,0,0.0,62.0
2170,60.0,16,16,0.0,52.0
2171,55.0,0,16,0.0,48.0
2172,48.0,0,14,0.0,58.0
2173,36.0,0,14,0.0,56.0
2174,75.0,16,16,0.0,86.0
2175,35.0,16,16,0.0,54.0
2176,47.0,0,0,0.0,42.0
2177,67.0,0,16,0.0,56.0
2178,65.0,0,16,0.0,52.0
2179,55.0,16,16,0.0,46.0
2180,67.0,0,16,0.0,62.0
2181,65.0,0,16,0.0,58.0
2182,50.0,16,16,0.0,46.0
2183,65.0,0,0,0.0,64.0
2184,62.0,0,16,0.0,50.0
2185,67.0,0,0,0.0,68.0
2186,55.0,0,16,0.0,50.0
2187,47.0,16,16,0.0,46.0
2188,62.0,0,16,0.0,50.0
2189,50.0,16,16,0.0,46.0
2190,65.0,0,0,0.0,60.0
2191,67.0,16,0,0.0,64.0
2192,35.0,0,14,0.0,58.0
2193,47.0,0,14,0.0,60.0
2194,63.0,0,0,0.0,62.0
2195,67.0,16,0,0.0,66.0
2196,36.0,0,16,0.0,60.0
2197,48.0,0,0,0.0,46.0
2198,55.0,0,16,0.0,50.0
2199,67.0,16,0,0.0,70.0
2200,74.0,0,80,0.0,94.0
2201,60.0,0,16,0.0,54.0
2202,51.0,0,16,0.0,50.0
2203,63.0,0,16,0.0,66.0
2204,75.0,16,0,0.0,74.0
2205,48.0,0,16,0.0,54.0
2206,55.0,0,16,0.0,58.0
2207,72.0,0,16,0.0,72.0
2208,67.0,0,0,0.0,76.0
2209,63.0,16,16,0.0,62.0
2210,55.0,0,16,0.0,60.0
2211,51.0,0,16,0.0,58.0
2212,75.0,0,16,0.0,80.0
2213,72.0,0,16,0.0,78.0
2214,67.0,0,0,0.0,74.0
2215,77.0,0,32,0.0,106.0
2216,36.0,16,14,0.0,62.0
2217,48.0,0,14,0.0,66.0
2218,75.0,16,0,0.0,40.0
2219,79.0,0,16,0.0,106.0
2220,72.0,0,0,0.0,38.0
2221,41.0,0,16,0.0,50.0
2222,29.0,0,16,0.0,52.0
2223,68.0,0,16,0.0,36.0
2224,68.0,0,0,0.0,40.0
2225,72.0,16,0,0.0,42.0
2226,60.0,0,0,0.0,44.0
2227,56.0,0,16,0.0,42.0
2228,53.0,16,16,0.0,40.0
2229,79.0,0,32,0.0,80.0
2230,75.0,0,0,0.0,44.0
2231,63.0,0,16,0.0,46.0
2232,56.0,0,0,0.0,42.0
2233,77.0,0,16,0.0,78.0
2234,60.0,0,0,0.0,44.0
2235,60.0,0,0,0.0,44.0
2236,72.0,0,0,0.0,40.0
2237,68.0,0,0,0.0,38.0
2238,75.0,0,0,0.0,42.0
2239,53.0,16,16,0.0,40.0
2240,63.0,16,16,0.0,46.0
2241,56.0,0,16,0.0,42.0
2242,80.0,0,32,0.0,86.0
2243,41.0,0,14,0.0,50.0
2244,29.0,0,14,0.0,52.0
2245,68.0,0,16,0.0,38.0
2246,72.0,0,16,0.0,72.0
2247,65.0,16,0,0.0,44.0
2248,72.0,0,16,0.0,48.0
2249,44.0,0,16,0.0,52.0
2250,68.0,0,16,0.0,46.0
2251,32.0,0,16,0.0,54.0
2252,53.0,0,16,0.0,40.0
2253,56.0,0,16,0.0,42.0
2254,74.0,0,32,0.0,76.0
2255,65.0,0,0,0.0,42.0
2256,68.0,0,0,0.0,44.0
2257,72.0,0,0,0.0,46.0
2258,60.0,0,16,0.0,44.0
2259,75.0,16,0,0.0,78.0
2260,68.0,0,0,0.0,46.0
2261,72.0,0,0,0.0,48.0
2262,56.0,0,0,0.0,42.0
2263,60.0,0,0,0.0,44.0
2264,63.0,0,16,0.0,46.0
2265,77.0,0,4,0.0,81.0
2266,68.0,6,4,0.0,49.0
2267,72.0,0,4,0.0,51.0
2268,53.0,0,16,0.0,40.0
2269,60.0,0,0,0.0,44.0
2270,75.0,7,4,0.0,80.0
2271,68.0,0,4,0.0,48.0
2272,72.0,0,4,0.0,50.0
2273,74.0,0,4,0.0,79.0
2274,72.0,0,4,0.0,49.0
2275,68.0,4,4,0.0,47.0
2276,72.0,0,4,0.0,51.0
2277,75.0,7,4,0.0,81.0
2278,68.0,0,4,0.0,49.0
2279,56.0,0,16,0.0,42.0
2280,63.0,3,16,0.0,46.0
2281,68.0,0,4,0.0,36.0
2282,79.0,0,4,0.0,75.0
2283,75.0,0,4,0.0,40.0
2284,72.0,2,4,0.0,38.0
2285,72.0,7,4,0.0,34.0
2286,75.0,0,4,0.0,36.0
2287,77.0,0,4,0.0,70.0
2288,68.0,0,4,0.0,32.0
2289,44.0,5,14,0.0,50.0
2290,32.0,0,14,0.0,52.0
2291,34.0,0,16,0.0,54.0
2292,70.0,0,0,0.0,40.0
2293,68.0,0,0,0.0,38.0
2294,46.0,16,0,0.0,40.0
2295,65.0,0,0,0.0,36.0
2296,56.0,0,16,0.0,44.0
2297,70.0,16,0,0.0,44.0
2298,68.0,0,0,0.0,42.0
2299,53.0,0,16,0.0,42.0
2300,62.0,0,16,0.0,46.0
2301,65.0,0,0,0.0,44.0
2302,68.0,0,0,0.0,46.0
2303,70.0,0,16,0.0,48.0
2304,56.0,0,16,0.0,44.0
2305,46.0,16,16,0.0,40.0
2306,62.0,0,16,0.0,46.0
2307,53.0,0,16,0.0,42.0
2308,70.0,16,16,0.0,46.0
2309,65.0,16,0,0.0,46.0
2310,46.0,0,14,0.0,50.0
2311,34.0,0,14,0.0,52.0
2312,68.0,0,16,0.0,44.0
2313,35.0,0,16,0.0,54.0
2314,65.0,0,16,0.0,40.0
2315,47.0,0,0,0.0,40.0
2316,67.0,0,0,0.0,46.0
2317,65.0,0,16,0.0,44.0
2318,67.0,16,0,0.0,50.0
2319,55.0,16,16,0.0,44.0
2320,65.0,0,16,0.0,48.0
2321,50.0,0,16,0.0,42.0
2322,67.0,0,0,0.0,54.0
2323,62.0,0,16,0.0,46.0
2324,65.0,0,0,0.0,60.0
2325,47.0,0,16,0.0,40.0
2326,55.0,0,16,0.0,44.0
2327,65.0,16,0,0.0,52.0
2328,68.0,16,16,0.0,64.0
2329,62.0,0,16,0.0,46.0
2330,50.0,0,16,0.0,42.0
2331,35.0,0,14,0.0,52.0
2332,74.0,0,190,0.0,70.0
2333,67.0,0,14,0.0,56.0
2334,47.0,0,14,0.0,50.0
2335,48.0,0,16,0.0,52.0
2336,72.0,0,16,0.0,48.0
2337,76.0,0,16,0.0,56.0
2338,36.0,16,16,0.0,54.0
2339,64.0,0,16,0.0,42.0
2340,67.0,0,0,0.0,44.0
2341,70.0,0,0,0.0,46.0
2342,60.0,0,16,0.0,44.0
2343,55.0,16,16,0.0,40.0
2344,67.0,0,0,0.0,48.0
2345,70.0,0,0,0.0,50.0
2346,72.0,0,0,0.0,52.0
2347,76.0,0,0,0.0,56.0
2348,58.0,0,0,0.0,42.0
2349,64.0,16,16,0.0,46.0
2350,60.0,0,16,0.0,44.0
2351,70.0,0,0,0.0,52.0
2352,72.0,0,0,0.0,54.0
2353,76.0,0,0,0.0,56.0
2354,58.0,0,16,0.0,42.0
2355,60.0,0,16,0.0,44.0
2356,55.0,16,16,0.0,40.0
2357,76.0,0,16,0.0,52.0
2358,58.0,16,16,0.0,42.0
2359,60.0,0,16,0.0,44.0
2360,72.0,0,16,0.0,50.0
2361,70.0,0,16,0.0,48.0
2362,64.0,0,16,0.0,46.0
2363,48.0,0,14,0.0,50.0
2364,36.0,16,14,0.0,52.0
2365,72.0,0,16,0.0,46.0
2366,70.0,0,16,0.0,44.0
2367,79.0,0,48,0.0,86.0
2368,76.0,0,0,0.0,48.0
2369,41.0,0,16,0.0,56.0
2370,72.0,0,16,0.0,46.0
2371,53.0,0,0,0.0,44.0
2372,68.0,16,0,0.0,48.0
2373,76.0,16,0,0.0,56.0
2374,72.0,0,16,0.0,50.0
2375,56.0,0,0,0.0,46.0
2376,60.0,0,0,0.0,48.0
2377,64.0,0,16,0.0,50.0
2378,60.0,16,0,0.0,48.0
2379,68.0,0,0,0.0,56.0
2380,72.0,0,16,0.0,54.0
2381,56.0,0,16,0.0,46.0
2382,53.0,0,16,0.0,44.0
2383,77.0,0,16,0.0,60.0
2384,72.0,0,16,0.0,58.0
2385,77.0,0,16,0.0,54.0
2386,68.0,0,16,0.0,50.0
2387,65.0,0,16,0.0,50.0
2388,60.0,0,16,0.0,48.0
2389,56.0,16,16,0.0,46.0
2390,72.0,0,0,0.0,46.0
2391,41.0,0,14,0.0,58.0
2392,53.0,0,14,0.0,56.0
2393,77.0,0,16,0.0,48.0
2394,80.0,0,48,0.0,96.0
2395,68.0,16,16,0.0,44.0
2396,46.0,0,16,0.0,52.0
2397,34.0,16,16,0.0,54.0
2398,72.0,0,16,0.0,48.0
2399,68.0,0,16,0.0,46.0
2400,75.0,0,16,0.0,50.0
2401,68.0,0,0,0.0,54.0
2402,72.0,0,16,0.0,52.0
2403,75.0,0,16,0.0,54.0
2404,56.0,0,16,0.0,42.0
2405,53.0,16,16,0.0,40.0
2406,60.0,0,0,0.0,44.0
2407,68.0,16,0,0.0,54.0
2408,79.0,16,16,0.0,86.0
2409,75.0,0,16,0.0,58.0
2410,63.0,0,16,0.0,46.0
2411,72.0,0,0,0.0,56.0
2412,56.0,0,16,0.0,42.0
2413,60.0,0,16,0.0,44.0
2414,56.0,0,16,0.0,42.0
2415,75.0,0,16,0.0,58.0
2416,53.0,0,16,0.0,40.0
2417,56.0,0,16,0.0,42.0
2418,58.0,0,16,0.0,44.0
2419,74.0,0,16,0.0,56.0
2420,68.0,0,0,0.0,50.0
2421,62.0,0,16,0.0,46.0
2422,70.0,0,0,0.0,52.0
2423,46.0,16,14,0.0,50.0
2424,34.0,0,14,0.0,52.0
2425,74.0,0,0,0.0,52.0
2426,77.0,0,22,0.0,80.0
2427,70.0,0,6,0.0,50.0
2428,67.0,16,6,0.0,48.0
2429,51.0,0,16,0.0,50.0
2430,39.0,0,16,0.0,52.0
2431,75.0,0,6,0.0,79.0
2432,70.0,0,6,0.0,58.0
2433,67.0,12,6,0.0,56.0
2434,67.0,8,6,0.0,59.0
2435,70.0,0,6,0.0,61.0
2436,77.0,0,6,0.0,82.0
2437,58.0,4,16,0.0,45.0
2438,51.0,0,16,0.0,41.0
2439,55.0,8,0,0.0,44.0
2440,70.0,0,6,0.0,58.0
2441,75.0,0,6,0.0,79.0
2442,67.0,4,6,0.0,56.0
2443,58.0,0,0,0.0,47.0
2444,55.0,0,0,0.0,45.0
2445,62.0,0,16,0.0,48.0
2446,67.0,0,6,0.0,53.0
2447,70.0,0,6,0.0,56.0
2448,74.0,0,6,0.0,82.0
2449,58.0,4,0,0.0,48.0
2450,51.0,12,16,0.0,43.0
2451,70.0,0,6,0.0,59.0
2452,75.0,0,6,0.0,85.0
2453,67.0,12,6,0.0,56.0
2454,77.0,0,6,0.0,88.0
2455,70.0,0,6,0.0,62.0
2456,67.0,8,6,0.0,59.0
2457,55.0,0,16,0.0,46.0
2458,62.0,0,16,0.0,50.0
2459,79.0,0,6,0.0,86.0
2460,70.0,0,6,0.0,65.0
2461,67.0,4,6,0.0,62.0
2462,51.0,8,14,0.0,55.0
2463,39.0,0,14,0.0,57.0
2464,79.0,0,4,0.0,90.0
2465,72.0,0,4,0.0,62.0
2466,67.0,0,0,0.0,50.0
2467,44.0,0,16,0.0,54.0
2468,32.0,4,16,0.0,56.0
2469,68.0,0,0,0.0,54.0
2470,56.0,0,16,0.0,46.0
2471,51.0,0,16,0.0,44.0
2472,67.0,16,0,0.0,54.0
2473,48.0,0,16,0.0,42.0
2474,72.0,0,48,0.0,78.0
2475,67.0,0,0,0.0,56.0
2476,68.0,16,0,0.0,58.0
2477,60.0,0,16,0.0,48.0
2478,56.0,0,16,0.0,46.0
2479,51.0,0,16,0.0,44.0
2480,48.0,0,16,0.0,42.0
2481,56.0,0,16,0.0,46.0
2482,51.0,16,0,0.0,44.0
2483,68.0,0,0,0.0,60.0
2484,60.0,0,16,0.0,48.0
2485,67.0,0,16,0.0,58.0
2486,72.0,0,32,0.0,82.0
2487,56.0,0,16,0.0,46.0
2488,32.0,0,14,0.0,54.0
2489,44.0,16,14,0.0,52.0
2490,68.0,0,16,0.0,56.0
2491,67.0,0,16,0.0,54.0
2492,72.0,0,0,0.0,86.0
2493,68.0,0,16,0.0,56.0
2494,65.0,0,0,0.0,56.0
2495,50.0,0,0,0.0,45.0
2496,38.0,16,16,0.0,58.0
2497,56.0,16,16,0.0,49.0
2498,68.0,16,0,0.0,60.0
2499,53.0,0,16,0.0,47.0
2500,72.0,16,0,0.0,62.0
2501,65.0,0,0,0.0,58.0
2502,68.0,0,0,0.0,60.0
2503,53.0,0,16,0.0,48.0
2504,56.0,0,0,0.0,51.0
2505,60.0,0,16,0.0,52.0
2506,65.0,0,0,0.0,60.0
2507,72.0,16,0,0.0,64.0
2508,50.0,0,16,0.0,47.0
2509,68.0,0,0,0.0,62.0
2510,53.0,0,0,0.0,50.0
2511,68.0,16,0,0.0,54.0
2512,60.0,0,16,0.0,54.0
2513,72.0,0,0,0.0,56.0
2514,77.0,0,32,0.0,96.0
2515,56.0,0,16,0.0,52.0
2516,50.0,0,14,0.0,60.0
2517,38.0,0,14,0.0,62.0
2518,75.0,0,16,0.0,92.0
2519,65.0,0,16,0.0,52.0
2520,31.0,0,16,0.0,63.0
2521,43.0,16,16,0.0,61.0
2522,72.0,0,16,0.0,58.0
2523,65.0,0,0,0.0,58.0
2524,68.0,0,0,0.0,60.0
2525,56.0,16,16,0.0,50.0
2526,72.0,16,0,0.0,65.0
2527,53.0,0,16,0.0,48.0
2528,50.0,0,16,0.0,42.0
2529,56.0,0,16,0.0,52.0
2530,60.0,0,16,0.0,54.0
2531,53.0,0,16,0.0,50.0
2532,68.0,0,16,0.0,63.0
2533,65.0,0,16,0.0,61.0
2534,55.0,16,16,0.0,50.0
2535,65.0,0,0,0.0,54.0
2536,50.0,0,16,0.0,46.0
2537,67.0,0,16,0.0,61.0
2538,71.0,0,0,0.0,58.0
2539,67.0,0,16,0.0,56.0
2540,59.0,16,16,0.0,50.0
2541,55.0,0,16,0.0,46.0
2542,75.0,0,80,0.0,86.0
2543,31.0,0,14,0.0,61.0
2544,43.0,0,14,0.0,59.0
2545,65.0,0,16,0.0,50.0
2546,67.0,0,16,0.0,52.0
2547,71.0,0,16,0.0,54.0
2548,68.0,16,10,0.0,52.0
2549,74.0,16,26,0.0,78.0
2550,63.0,0,10,0.0,50.0
2551,32.0,0,16,0.0,65.0
2552,44.0,0,16,0.0,63.0
2553,68.0,0,6,0.0,54.0
2554,63.0,0,6,0.0,52.0
2555,72.0,12,6,0.0,78.0
2556,63.0,0,6,0.0,58.0
2557,74.0,8,6,0.0,84.0
2558,68.0,0,6,0.0,60.0
2559,48.0,4,16,0.0,50.0
2560,56.0,0,0,0.0,58.0
2561,68.0,0,6,0.0,61.0
2562,63.0,0,6,0.0,59.0
2563,72.0,4,6,0.0,83.0
2564,51.0,8,16,0.0,56.0
2565,60.0,0,16,0.0,60.0
2566,63.0,0,6,0.0,62.0
2567,68.0,0,6,0.0,64.0
2568,71.0,0,6,0.0,90.0
2569,48.0,0,16,0.0,58.0
2570,56.0,0,0,0.0,66.0
2571,72.0,0,6,0.0,95.0
2572,63.0,12,6,0.0,69.0
2573,68.0,0,6,0.0,71.0
2574,74.0,0,6,0.0,96.0
2575,68.0,0,6,0.0,70.0
2576,63.0,8,6,0.0,68.0
2577,51.0,4,16,0.0,64.0
2578,56.0,8,0,0.0,64.0
2579,60.0,0,16,0.0,68.0
2580,63.0,0,6,0.0,68.0
2581,75.0,4,6,0.0,93.0
2582,68.0,0,6,0.0,70.0
2583,44.0,0,14,0.0,60.0
2584,27.0,0,16,0.0,74.0
2585,55.0,0,16,0.0,78.0
2586,39.0,0,16,0.0,72.0
2587,60.0,0,0,0.0,83.0
2588,51.0,16,16,0.0,64.0
2589,55.0,0,0,0.0,62.0
2590,67.0,0,46,0.0,100.0
2591,60.0,0,14,0.0,86.0
2592,63.0,16,16,0.0,66.0
2593,79.0,0,16,0.0,82.0
2594,60.0,0,16,0.0,64.0
2595,55.0,0,16,0.0,62.0
2596,51.0,16,16,0.0,60.0
2597,72.0,0,16,0.0,80.0
2598,67.0,0,16,0.0,66.0
2599,79.0,0,16,0.0,78.0
2600,72.0,0,16,0.0,76.0
2601,55.0,16,16,0.0,62.0
2602,60.0,0,16,0.0,64.0
2603,84.0,0,46,0.0,105.0
2604,39.0,0,14,0.0,70.0
2605,27.0,16,14,0.0,72.0
2606,79.0,0,16,0.0,74.0
2607,72.0,0,16,0.0,72.0
2608,84.0,16,12,0.0,73.0
2609,74.0,0,12,0.0,59.0
2610,72.0,0,12,0.0,57.0
2611,29.0,0,16,0.0,64.0
2612,41.0,0,16,0.0,62.0
2613,83.0,0,12,0.0,76.0
2614,74.0,0,12,0.0,62.0
2615,72.0,12,12,0.0,60.0
2616,62.0,4,16,0.0,48.0
2617,53.0,0,16,0.0,44.0
2618,60.0,8,0,0.0,47.0
2619,74.0,0,12,0.0,65.0
2620,82.0,0,12,0.0,79.0
2621,72.0,0,0,0.0,66.0
2622,62.0,0,16,0.0,49.0
2623,65.0,0,16,0.0,51.0
2624,72.0,0,0,0.0,69.0
2625,74.0,0,0,0.0,71.0
2626,81.0,4,12,0.0,82.0
2627,60.0,0,0,0.0,46.0
2628,80.0,0,12,0.0,85.0
2629,72.0,0,0,0.0,72.0
2630,53.0,12,16,0.0,44.0
2631,60.0,0,0,0.0,45.0
2632,62.0,0,0,0.0,47.0
2633,68.0,4,8,0.0,49.0
2634,72.0,8,0,0.0,94.0
2635,77.0,0,12,0.0,88.0
2636,65.0,0,12,0.0,76.0
2637,72.0,0,0,0.0,73.0
2638,29.0,0,14,0.0,72.0
2639,41.0,8,14,0.0,70.0
2640,74.0,0,12,0.0,91.0
2641,65.0,0,12,0.0,69.0
2642,68.0,4,12,0.0,71.0
2643,72.0,0,0,0.0,75.0
2644,76.0,0,12,0.0,95.0
2645,70.0,12,0,0.0,75.0
2646,64.0,0,12,0.0,71.0
2647,31.0,0,16,0.0,74.0
2648,43.0,12,16,0.0,72.0
2649,72.0,0,12,0.0,77.0
2650,65.0,0,12,0.0,73.0
2651,70.0,8,0,0.0,74.0
2652,77.0,0,12,0.0,97.0
2653,60.0,4,16,0.0,64.0
2654,55.0,0,16,0.0,60.0
2655,72.0,0,12,0.0,76.0
2656,64.0,0,12,0.0,71.0
2657,76.0,0,12,0.0,96.0
2658,60.0,0,16,0.0,62.0
2659,67.0,8,16,0.0,66.0
2660,72.0,0,0,0.0,76.0
2661,70.0,0,0,0.0,74.0
2662,62.0,0,12,0.0,70.0
2663,74.0,4,12,0.0,94.0
2664,64.0,12,12,0.0,72.0
2665,70.0,0,0,0.0,78.0
2666,72.0,12,0,0.0,80.0
2667,76.0,0,12,0.0,96.0
2668,55.0,0,16,0.0,60.0
2669,60.0,0,0,0.0,62.0
2670,77.0,0,12,0.0,98.0
2671,72.0,0,0,0.0,84.0
2672,70.0,8,0,0.0,82.0
2673,67.0,4,16,0.0,66.0
2674,76.0,0,12,0.0,86.0
2675,70.0,4,0,0.0,80.0
2676,80.0,0,12,0.0,104.0
2677,43.0,0,14,0.0,70.0
2678,31.0,8,14,0.0,72.0
2679,79.0,0,12,0.0,102.0
2680,76.0,0,12,0.0,84.0
2681,72.0,0,0,0.0,86.0
2682,65.0,12,12,0.0,76.0
2683,44.0,0,16,0.0,72.0
2684,32.0,0,16,0.0,74.0
2685,65.0,12,12,0.0,82.0
2686,76.0,0,12,0.0,104.0
2687,72.0,8,0,0.0,86.0
2688,60.0,0,0,0.0,62.0
2689,53.0,0,16,0.0,60.0
2690,77.0,0,12,0.0,106.0
2691,65.0,8,4,0.0,66.0
2692,60.0,0,0,0.0,64.0
2693,77.0,4,12,0.0,91.0
2694,79.0,0,12,0.0,107.0
2695,72.0,0,0,0.0,87.0
2696,74.0,12,0,0.0,89.0
2697,82.0,0,12,0.0,110.0
2698,53.0,12,16,0.0,60.0
2699,80.0,0,12,0.0,107.0
2700,68.0,0,16,0.0,66.0
2701,62.0,4,16,0.0,64.0
2702,60.0,0,16,0.0,62.0
2703,72.0,4,0,0.0,80.0
2704,65.0,0,0,0.0,78.0
2705,44.0,8,14,0.0,74.0
2706,32.0,0,14,0.0,76.0
2707,72.0,0,0,0.0,81.0
2708,74.0,0,12,0.0,106.0
2709,31.0,0,16,0.0,72.0
2710,67.0,12,16,0.0,79.0
2711,63.0,0,16,0.0,77.0
2712,43.0,0,16,0.0,70.0
2713,63.0,0,16,0.0,75.0
2714,72.0,0,16,0.0,79.0
2715,67.0,0,16,0.0,77.0
2716,55.0,0,16,0.0,62.0
2717,48.0,16,16,0.0,58.0
2718,75.0,0,46,0.0,106.0
2719,72.0,0,16,0.0,77.0
2720,67.0,0,16,0.0,75.0
2721,60.0,16,16,0.0,64.0
2722,55.0,16,0,0.0,62.0
2723,63.0,0,0,0.0,71.0
2724,72.0,0,16,0.0,75.0
2725,48.0,0,16,0.0,58.0
2726,67.0,0,0,0.0,71.0
2727,55.0,0,0,0.0,60.0
2728,63.0,16,0,0.0,69.0
2729,60.0,0,16,0.0,64.0
2730,72.0,0,16,0.0,73.0
2731,55.0,0,0,0.0,62.0
2732,63.0,0,3,0.0,70.0
2733,67.0,0,3,0.0,72.0
2734,72.0,0,3,0.0,99.0
2735,63.0,0,3,0.0,72.0
2736,74.0,0,3,0.0,101.0
2737,67.0,6,3,0.0,74.0
2738,48.0,16,14,0.0,58.0
2739,72.0,0,3,0.0,99.0
2740,63.0,0,3,0.0,70.0
2741,67.0,5,3,0.0,72.0
2742,60.0,16,0,0.0,74.0
2743,62.0,0,16,0.0,74.0
2744,31.0,0,16,0.0,72.0
2745,43.0,0,0,0.0,58.0
2746,50.0,0,16,0.0,62.0
2747,60.0,0,0,0.0,76.0
2748,62.0,16,0,0.0,78.0
2749,50.0,0,16,0.0,60.0
2750,55.0,0,16,0.0,64.0
2751,43.0,16,16,0.0,58.0
2752,59.0,0,0,0.0,74.0
2753,62.0,16,0,0.0,76.0
2754,50.0,0,16,0.0,62.0
2755,67.0,0,78,0.0,95.0
2756,50.0,16,0,0.0,62.0
2757,55.0,0,16,0.0,64.0
2758,59.0,0,0,0.0,74.0
2759,62.0,0,0,0.0,76.0
2760,67.0,0,3,0.0,96.0
2761,59.0,6,3,0.0,72.0
2762,68.0,0,3,0.0,98.0
2763,62.0,0,3,0.0,74.0
2764,67.0,0,3,0.0,96.0
2765,59.0,5,3,0.0,70.0
2766,43.0,0,14,0.0,58.0
2767,62.0,0,3,0.0,72.0
2768,56.0,0,16,0.0,72.0
2769,51.0,0,16,0.0,70.0
2770,42.0,0,16,0.0,66.0
2771,30.0,5,16,0.0,68.0
2772,51.0,0,16,0.0,62.0
2773,42.0,16,16,0.0,58.0
2774,56.0,0,16,0.0,64.0
2775,48.0,16,16,0.0,60.0
2776,51.0,0,16,0.0,62.0
2777,42.0,16,16,0.0,58.0
2778,48.0,16,16,0.0,60.0
2779,56.0,0,16,0.0,64.0
2780,51.0,0,14,0.0,62.0
2781,42.0,16,14,0.0,58.0
2782,60.0,0,108,0.0,90.0
2783,41.0,0,0,0.0,58.0
2784,29.0,16,16,0.0,68.0
2785,61.0,12,12,0.0,80.0
2786,49.0,4,16,0.0,62.0
2787,65.0,8,12,0.0,82.0
2788,49.0,12,0,0.0,62.0
2789,68.0,4,12,0.0,83.0
2790,56.0,0,16,0.0,64.0
2791,73.0,0,12,0.0,84.0
2792,41.0,0,16,0.0,58.0
2793,76.0,12,12,0.0,85.0
2794,56.0,4,16,0.0,64.0
2795,49.0,8,0,0.0,62.0
2796,77.0,8,12,0.0,86.0
2797,41.0,0,14,0.0,58.0
2798,80.0,4,12,0.0,84.0
2799,43.0,0,16,0.0,60.0
2800,31.0,12,16,0.0,62.0
2801,50.0,0,16,0.0,58.0
2802,43.0,16,16,0.0,54.0
2803,53.0,0,16,0.0,60.0
2804,50.0,16,16,0.0,56.0
2805,53.0,0,16,0.0,60.0
2806,56.0,0,0,0.0,60.0
2807,53.0,16,16,0.0,58.0
2808,53.0,16,14,0.0,56.0
2809,56.0,0,14,0.0,58.0
2810,59.0,0,108,0.0,85.0
2811,43.0,0,16,0.0,60.0
2812,31.0,16,16,0.0,62.0
2813,68.0,12,12,0.0,78.0
2814,50.0,0,16,0.0,58.0
2815,43.0,4,16,0.0,54.0
2816,67.0,8,12,0.0,79.0
2817,53.0,8,16,0.0,58.0
2818,50.0,0,16,0.0,54.0
2819,66.0,4,12,0.0,80.0
2820,65.0,0,12,0.0,78.0
2821,53.0,0,0,0.0,54.0
2822,59.0,4,0,0.0,56.0
2823,55.0,12,12,0.0,72.0
2824,59.0,8,0,0.0,53.0
2825,65.0,8,12,0.0,74.0
2826,53.0,0,14,0.0,51.0
2827,63.0,4,12,0.0,69.0
2828,24.0,0,16,0.0,62.0
2829,43.0,16,16,0.0,39.0
2830,43.0,0,16,0.0,44.0
2831,51.0,16,16,0.0,48.0
2832,55.0,16,16,0.0,49.0
2833,51.0,16,0,0.0,46.0
2834,55.0,0,16,0.0,48.0
2835,31.0,16,14,0.0,51.0
2836,36.0,16,16,0.0,48.0
2837,43.0,16,16,0.0,45.0
2838,51.0,0,16,0.0,46.0
2839,43.0,16,16,0.0,42.0
2840,55.0,16,16,0.0,41.0
2841,51.0,0,16,0.0,37.0
2842,55.0,0,16,0.0,48.0
2843,51.0,16,16,0.0,34.0
2844,31.0,16,14,0.0,45.0
2845,60.0,12,204,0.0,66.0
2846,55.0,12,12,0.0,56.0
2847,60.0,12,12,0.0,58.0
2848,24.0,16,46,0.0,50.0
2849,62.0,12,12,0.0,60.0
2850,63.0,12,12,0.0,62.0
2851,66.0,12,12,0.0,64.0
2852,68.0,12,12,0.0,66.0
2853,67.0,12,12,0.0,64.0
2854,71.0,12,12,0.0,64.0
2855,74.0,12,12,0.0,62.0
2856,72.0,12,12,0.0,62.0
2857,75.0,12,12,0.0,62.0
2858,78.0,12,12,0.0,62.0
2859,79.0,12,12,0.0,58.0
2860,82.0,8,4,0.0,54.0
2861,80.0,4,12,0.0,56.0
2862,79.0,12,12,0.0,54.0
2863,84.0,12,46,0.0,54.0
2864,51.0,96,36,0.0,38.0
2865,36.0,0,36,0.0,36.0
2866,48.0,0,36,0.0,36.0
2867,55.0,0,36,0.0,40.0
2868,63.0,0,36,0.0,44.0
2869,60.0,0,36,0.0,42.0
2870,55.0,48,36,0.0,40.0
2871,60.0,0,36,0.0,42.0
2872,63.0,0,36,0.0,44.0
2873,51.0,0,36,0.0,38.0
2874,48.0,0,36,0.0,36.0
2875,36.0,0,36,0.0,36.0
2876,51.0,0,144,0.0,34.0
2877,36.0,0,144,0.0,32.0
2878,43.0,0,144,0.0,30.0
2879,48.0,48,144,0.0,32.0
2880,63.0,0,144,0.0,40.0
2881,60.0,0,144,0.0,38.0
2882,55.0,0,144,0.0,36.0
