,note,step,duration,channel,velocity
0,68.0,1536.0,1050.0,0.0,0.0
1,56.0,0.0,1050.0,0.0,0.0
2,44.0,0.0,1050.0,0.0,0.0
3,61.0,0.0,1560.0,0.0,0.0
4,73.0,512.0,1560.0,0.0,0.0
5,49.0,0.0,1560.0,0.0,0.0
6,75.0,0.0,540.0,0.0,0.0
7,51.0,512.0,540.0,0.0,0.0
8,63.0,0.0,540.0,0.0,0.0
9,52.0,0.0,540.0,0.0,0.0
10,76.0,0.0,540.0,0.0,0.0
11,64.0,512.0,540.0,0.0,0.0
12,61.0,512.0,540.0,0.0,0.0
13,73.0,0.0,540.0,0.0,0.0
14,49.0,0.0,540.0,0.0,0.0
15,57.0,0.0,540.0,0.0,0.0
16,69.0,0.0,540.0,0.0,0.0
17,45.0,512.0,540.0,0.0,0.0
18,61.0,0.0,540.0,0.0,0.0
19,49.0,0.0,540.0,0.0,0.0
20,73.0,1536.0,540.0,0.0,0.0
21,68.0,512.0,1560.0,0.0,0.0
22,56.0,0.0,1560.0,0.0,0.0
23,44.0,0.0,1560.0,0.0,0.0
24,63.0,0.0,540.0,0.0,0.0
25,51.0,512.0,540.0,0.0,0.0
26,75.0,0.0,540.0,0.0,0.0
27,76.0,0.0,540.0,0.0,0.0
28,52.0,0.0,540.0,0.0,0.0
29,64.0,512.0,540.0,0.0,0.0
30,61.0,0.0,540.0,0.0,0.0
31,49.0,512.0,540.0,0.0,0.0
32,73.0,0.0,540.0,0.0,0.0
33,45.0,0.0,540.0,0.0,0.0
34,57.0,512.0,540.0,0.0,0.0
35,69.0,0.0,540.0,0.0,0.0
36,61.0,0.0,540.0,0.0,0.0
37,73.0,0.0,540.0,0.0,0.0
38,49.0,512.0,540.0,0.0,0.0
39,63.0,0.0,540.0,0.0,0.0
40,75.0,512.0,540.0,0.0,0.0
41,51.0,0.0,540.0,0.0,0.0
42,59.0,512.0,540.0,0.0,0.0
43,47.0,0.0,540.0,0.0,0.0
44,71.0,0.0,540.0,0.0,0.0
45,56.0,512.0,540.0,0.0,0.0
46,44.0,0.0,540.0,0.0,0.0
47,68.0,0.0,540.0,0.0,0.0
48,59.0,0.0,540.0,0.0,0.0
49,47.0,0.0,540.0,0.0,0.0
50,71.0,512.0,540.0,0.0,0.0
51,51.0,0.0,540.0,0.0,0.0
52,63.0,0.0,540.0,0.0,0.0
53,75.0,512.0,540.0,0.0,0.0
54,58.0,512.0,540.0,0.0,0.0
55,46.0,0.0,540.0,0.0,0.0
56,70.0,0.0,540.0,0.0,0.0
57,63.0,0.0,540.0,0.0,0.0
58,39.0,512.0,540.0,0.0,0.0
59,51.0,0.0,540.0,0.0,0.0
60,58.0,512.0,540.0,0.0,0.0
61,70.0,0.0,540.0,0.0,0.0
62,46.0,0.0,540.0,0.0,0.0
63,72.0,0.0,3060.0,0.0,0.0
64,51.0,512.0,540.0,0.0,0.0
65,75.0,0.0,3060.0,0.0,0.0
66,32.0,0.0,3060.0,0.0,0.0
67,48.0,0.0,540.0,0.0,0.0
68,60.0,512.0,540.0,0.0,0.0
69,51.0,0.0,540.0,0.0,0.0
70,39.0,512.0,540.0,0.0,0.0
71,60.0,1004.0,540.0,0.0,0.0
72,48.0,0.0,540.0,0.0,0.0
73,51.0,0.0,1050.0,0.0,0.0
74,63.0,0.0,1020.0,0.0,0.0
75,51.0,256.0,270.0,0.0,0.0
76,63.0,0.0,270.0,0.0,0.0
77,66.0,0.0,270.0,0.0,0.0
78,54.0,256.0,270.0,0.0,0.0
79,68.0,512.0,270.0,0.0,0.0
80,56.0,0.0,270.0,0.0,0.0
81,57.0,0.0,1020.0,0.0,0.0
82,69.0,0.0,1020.0,0.0,0.0
83,54.0,0.0,210.0,0.0,0.0
84,66.0,256.0,210.0,0.0,0.0
85,51.0,256.0,210.0,0.0,0.0
86,63.0,0.0,210.0,0.0,0.0
87,66.0,276.0,210.0,0.0,0.0
88,54.0,0.0,210.0,0.0,0.0
89,73.0,0.0,510.0,0.0,0.0
90,33.0,256.0,510.0,0.0,0.0
91,57.0,236.0,270.0,0.0,0.0
92,64.0,0.0,270.0,0.0,0.0
93,52.0,0.0,270.0,0.0,0.0
94,57.0,256.0,270.0,0.0,0.0
95,45.0,0.0,15.0,0.0,0.0
96,64.0,256.0,270.0,0.0,0.0
97,52.0,0.0,270.0,0.0,0.0
98,45.0,0.0,20.0,0.0,0.0
99,72.0,0.0,2040.0,0.0,0.0
100,60.0,0.0,2040.0,0.0,0.0
101,39.0,0.0,2040.0,0.0,0.0
102,57.0,236.0,270.0,0.0,0.0
103,69.0,20.0,15.0,0.0,0.0
104,66.0,0.0,270.0,0.0,0.0
105,54.0,256.0,270.0,0.0,0.0
106,63.0,256.0,270.0,0.0,0.0
107,51.0,0.0,270.0,0.0,0.0
108,54.0,512.0,270.0,0.0,0.0
109,66.0,0.0,270.0,0.0,0.0
110,69.0,492.0,540.0,0.0,0.0
111,57.0,0.0,540.0,0.0,0.0
112,66.0,0.0,270.0,0.0,0.0
113,54.0,256.0,270.0,0.0,0.0
114,57.0,256.0,270.0,0.0,0.0
115,69.0,0.0,270.0,0.0,0.0
116,71.0,0.0,270.0,0.0,0.0
117,59.0,256.0,270.0,0.0,0.0
118,73.0,0.0,270.0,0.0,0.0
119,61.0,256.0,270.0,0.0,0.0
120,69.0,256.0,270.0,0.0,0.0
121,57.0,0.0,270.0,0.0,0.0
122,54.0,256.0,270.0,0.0,0.0
123,66.0,0.0,270.0,0.0,0.0
124,69.0,256.0,270.0,0.0,0.0
125,57.0,0.0,270.0,0.0,0.0
126,64.0,0.0,510.0,0.0,0.0
127,76.0,0.0,510.0,0.0,0.0
128,37.0,0.0,510.0,0.0,0.0
129,49.0,0.0,510.0,0.0,0.0
130,61.0,256.0,270.0,0.0,0.0
131,68.0,0.0,270.0,0.0,0.0
132,56.0,256.0,270.0,0.0,0.0
133,49.0,256.0,270.0,0.0,0.0
134,61.0,0.0,270.0,0.0,0.0
135,68.0,512.0,270.0,0.0,0.0
136,56.0,0.0,270.0,0.0,0.0
137,63.0,0.0,2040.0,0.0,0.0
138,75.0,0.0,2040.0,0.0,0.0
139,42.0,0.0,2040.0,0.0,0.0
140,49.0,0.0,2040.0,0.0,0.0
141,73.0,0.0,15.0,0.0,0.0
142,61.0,256.0,510.0,0.0,0.0
143,69.0,0.0,270.0,0.0,0.0
144,57.0,0.0,270.0,0.0,0.0
145,66.0,256.0,270.0,0.0,0.0
146,54.0,0.0,270.0,0.0,0.0
147,57.0,512.0,270.0,0.0,0.0
148,69.0,0.0,270.0,0.0,0.0
149,61.0,512.0,510.0,0.0,0.0
150,73.0,0.0,510.0,0.0,0.0
151,69.0,0.0,270.0,0.0,0.0
152,57.0,256.0,270.0,0.0,0.0
153,61.0,256.0,270.0,0.0,0.0
154,73.0,0.0,270.0,0.0,0.0
155,75.0,512.0,270.0,0.0,0.0
156,63.0,0.0,270.0,0.0,0.0
157,76.0,0.0,1020.0,0.0,0.0
158,64.0,0.0,1020.0,0.0,0.0
159,73.0,0.0,210.0,0.0,0.0
160,61.0,512.0,210.0,0.0,0.0
161,69.0,306.0,450.0,0.0,0.0
162,57.0,0.0,450.0,0.0,0.0
163,61.0,0.0,210.0,0.0,0.0
164,73.0,0.0,210.0,0.0,0.0
165,76.0,0.0,1020.0,0.0,0.0
166,64.0,206.0,300.0,0.0,0.0
167,68.0,0.0,510.0,0.0,0.0
168,80.0,0.0,510.0,0.0,0.0
169,40.0,0.0,510.0,0.0,0.0
170,52.0,0.0,510.0,0.0,0.0
171,71.0,0.0,210.0,0.0,0.0
172,59.0,0.0,210.0,0.0,0.0
173,64.0,256.0,210.0,0.0,0.0
174,52.0,0.0,450.0,0.0,0.0
175,59.0,0.0,210.0,0.0,0.0
176,71.0,512.0,210.0,0.0,0.0
177,64.0,0.0,1020.0,0.0,0.0
178,66.0,512.0,510.0,0.0,0.0
179,78.0,0.0,510.0,0.0,0.0
180,45.0,0.0,510.0,0.0,0.0
181,57.0,0.0,510.0,0.0,0.0
182,76.0,0.0,1020.0,0.0,0.0
183,73.0,0.0,210.0,0.0,0.0
184,61.0,0.0,210.0,0.0,0.0
185,69.0,0.0,450.0,0.0,0.0
186,57.0,0.0,450.0,0.0,0.0
187,73.0,306.0,210.0,0.0,0.0
188,61.0,0.0,210.0,0.0,0.0
189,63.0,206.0,300.0,0.0,0.0
190,75.0,0.0,1020.0,0.0,0.0
191,51.0,0.0,510.0,0.0,0.0
192,39.0,256.0,510.0,0.0,0.0
193,78.0,0.0,510.0,0.0,0.0
194,66.0,0.0,510.0,0.0,0.0
195,69.0,0.0,210.0,0.0,0.0
196,57.0,0.0,210.0,0.0,0.0
197,63.0,256.0,210.0,0.0,0.0
198,51.0,0.0,450.0,0.0,0.0
199,69.0,0.0,210.0,0.0,0.0
200,57.0,512.0,210.0,0.0,0.0
201,75.0,0.0,1020.0,0.0,0.0
202,63.0,0.0,1020.0,0.0,0.0
203,56.0,0.0,510.0,0.0,0.0
204,44.0,0.0,510.0,0.0,0.0
205,76.0,0.0,510.0,0.0,0.0
206,64.0,0.0,510.0,0.0,0.0
207,71.0,0.0,210.0,0.0,0.0
208,59.0,0.0,210.0,0.0,0.0
209,68.0,0.0,210.0,0.0,0.0
210,56.0,256.0,210.0,0.0,0.0
211,71.0,0.0,210.0,0.0,0.0
212,59.0,306.0,210.0,0.0,0.0
213,76.0,0.0,510.0,0.0,0.0
214,64.0,0.0,510.0,0.0,0.0
215,37.0,0.0,510.0,0.0,0.0
216,61.0,206.0,300.0,0.0,0.0
217,49.0,0.0,510.0,0.0,0.0
218,56.0,0.0,210.0,0.0,0.0
219,68.0,0.0,210.0,0.0,0.0
220,49.0,0.0,450.0,0.0,0.0
221,61.0,256.0,210.0,0.0,0.0
222,56.0,0.0,210.0,0.0,0.0
223,68.0,512.0,210.0,0.0,0.0
224,73.0,0.0,15.0,0.0,0.0
225,54.0,256.0,510.0,0.0,0.0
226,63.0,0.0,510.0,0.0,0.0
227,75.0,0.0,510.0,0.0,0.0
228,42.0,0.0,510.0,0.0,0.0
229,61.0,306.0,1020.0,0.0,0.0
230,57.0,256.0,450.0,0.0,0.0
231,69.0,0.0,210.0,0.0,0.0
232,54.0,0.0,210.0,0.0,0.0
233,66.0,0.0,210.0,0.0,0.0
234,57.0,0.0,210.0,0.0,0.0
235,69.0,0.0,210.0,0.0,0.0
236,73.0,0.0,1020.0,0.0,0.0
237,61.0,206.0,300.0,0.0,0.0
238,49.0,0.0,510.0,0.0,0.0
239,64.0,0.0,510.0,0.0,0.0
240,37.0,256.0,510.0,0.0,0.0
241,76.0,0.0,510.0,0.0,0.0
242,56.0,256.0,450.0,0.0,0.0
243,68.0,0.0,210.0,0.0,0.0
244,61.0,0.0,210.0,0.0,0.0
245,49.0,0.0,450.0,0.0,0.0
246,68.0,0.0,210.0,0.0,0.0
247,56.0,256.0,210.0,0.0,0.0
248,73.0,60.0,270.0,0.0,0.0
249,61.0,0.0,510.0,0.0,0.0
250,63.0,60.0,510.0,0.0,0.0
251,67.0,0.0,510.0,0.0,0.0
252,75.0,0.0,510.0,0.0,0.0
253,49.0,196.0,330.0,0.0,0.0
254,70.0,0.0,270.0,0.0,0.0
255,58.0,196.0,330.0,0.0,0.0
256,55.0,196.0,330.0,0.0,0.0
257,67.0,60.0,270.0,0.0,0.0
258,58.0,256.0,330.0,0.0,0.0
259,70.0,60.0,15.0,0.0,0.0
260,75.0,60.0,510.0,0.0,0.0
261,67.0,0.0,510.0,0.0,0.0
262,55.0,196.0,330.0,0.0,0.0
263,51.0,196.0,330.0,0.0,0.0
264,63.0,0.0,270.0,0.0,0.0
265,49.0,196.0,330.0,0.0,0.0
266,61.0,60.0,270.0,0.0,0.0
267,63.0,60.0,270.0,0.0,0.0
268,51.0,196.0,330.0,0.0,0.0
269,27.0,0.0,15.0,0.0,0.0
270,39.0,0.0,15.0,0.0,0.0
271,61.0,60.0,270.0,0.0,0.0
272,49.0,196.0,330.0,0.0,0.0
273,75.0,60.0,510.0,0.0,0.0
274,70.0,0.0,510.0,0.0,0.0
275,67.0,0.0,510.0,0.0,0.0
276,63.0,0.0,510.0,0.0,0.0
277,46.0,196.0,330.0,0.0,0.0
278,58.0,0.0,270.0,0.0,0.0
279,55.0,60.0,270.0,0.0,0.0
280,43.0,196.0,330.0,0.0,0.0
281,58.0,60.0,270.0,0.0,0.0
282,46.0,196.0,330.0,0.0,0.0
283,67.0,0.0,510.0,0.0,0.0
284,63.0,0.0,510.0,0.0,0.0
285,75.0,0.0,510.0,0.0,0.0
286,55.0,60.0,270.0,0.0,0.0
287,27.0,0.0,1020.0,0.0,0.0
288,43.0,196.0,330.0,0.0,0.0
289,70.0,0.0,510.0,0.0,0.0
290,51.0,60.0,270.0,0.0,0.0
291,39.0,196.0,330.0,0.0,0.0
292,49.0,60.0,270.0,0.0,0.0
293,37.0,196.0,330.0,0.0,0.0
294,46.0,60.0,270.0,0.0,0.0
295,34.0,196.0,330.0,0.0,0.0
296,39.0,0.0,15.0,0.0,0.0
297,20.0,256.0,270.0,0.0,0.0
298,44.0,256.0,510.0,0.0,0.0
299,32.0,0.0,270.0,0.0,0.0
300,51.0,256.0,270.0,0.0,0.0
301,39.0,0.0,270.0,0.0,0.0
302,44.0,171.0,270.0,0.0,0.0
303,56.0,0.0,270.0,0.0,0.0
304,48.0,170.0,180.0,0.0,0.0
305,60.0,0.0,180.0,0.0,0.0
306,51.0,0.0,180.0,0.0,0.0
307,63.0,171.0,180.0,0.0,0.0
308,56.0,0.0,180.0,0.0,0.0
309,68.0,171.0,180.0,0.0,0.0
310,72.0,0.0,180.0,0.0,0.0
311,60.0,170.0,180.0,0.0,0.0
312,63.0,0.0,180.0,0.0,0.0
313,75.0,171.0,180.0,0.0,0.0
314,68.0,512.0,180.0,0.0,0.0
315,80.0,0.0,180.0,0.0,0.0
316,84.0,0.0,510.0,0.0,0.0
317,72.0,0.0,510.0,0.0,0.0
318,80.0,0.0,510.0,0.0,0.0
319,60.0,0.0,510.0,0.0,0.0
320,66.0,0.0,510.0,0.0,0.0
321,44.0,0.0,510.0,0.0,0.0
322,51.0,0.0,510.0,0.0,0.0
323,54.0,0.0,510.0,0.0,0.0
324,56.0,0.0,510.0,0.0,0.0
325,78.0,1536.0,510.0,0.0,0.0
326,68.0,0.0,510.0,0.0,0.0
327,72.0,0.0,510.0,0.0,0.0
328,85.0,512.0,1020.0,0.0,0.0
329,76.0,0.0,1020.0,0.0,0.0
330,52.0,0.0,1020.0,0.0,0.0
331,64.0,0.0,1560.0,0.0,0.0
332,61.0,0.0,1560.0,0.0,0.0
333,56.0,0.0,510.0,0.0,0.0
334,80.0,0.0,510.0,0.0,0.0
335,49.0,0.0,15.0,0.0,0.0
336,73.0,0.0,510.0,0.0,0.0
337,63.0,0.0,540.0,0.0,0.0
338,75.0,512.0,540.0,0.0,0.0
339,68.0,0.0,510.0,0.0,0.0
340,44.0,0.0,510.0,0.0,0.0
341,64.0,492.0,540.0,0.0,0.0
342,49.0,0.0,1020.0,0.0,0.0
343,37.0,0.0,15.0,0.0,0.0
344,25.0,0.0,2040.0,0.0,0.0
345,76.0,0.0,540.0,0.0,0.0
346,37.0,0.0,1020.0,0.0,0.0
347,45.0,0.0,510.0,0.0,0.0
348,73.0,0.0,510.0,0.0,0.0
349,61.0,0.0,510.0,0.0,0.0
350,40.0,20.0,510.0,0.0,0.0
351,64.0,0.0,510.0,0.0,0.0
352,57.0,492.0,540.0,0.0,0.0
353,69.0,20.0,15.0,0.0,0.0
354,37.0,0.0,510.0,0.0,0.0
355,61.0,0.0,510.0,0.0,0.0
356,64.0,0.0,1560.0,0.0,0.0
357,37.0,20.0,15.0,0.0,0.0
358,73.0,1004.0,20.0,0.0,0.0
359,76.0,0.0,1020.0,0.0,0.0
360,85.0,0.0,1020.0,0.0,0.0
361,52.0,0.0,1020.0,0.0,0.0
362,61.0,0.0,20.0,0.0,0.0
363,56.0,0.0,510.0,0.0,0.0
364,80.0,512.0,510.0,0.0,0.0
365,49.0,0.0,15.0,0.0,0.0
366,73.0,0.0,510.0,0.0,0.0
367,63.0,0.0,540.0,0.0,0.0
368,75.0,512.0,540.0,0.0,0.0
369,68.0,492.0,20.0,0.0,0.0
370,44.0,20.0,510.0,0.0,0.0
371,25.0,20.0,2040.0,0.0,0.0
372,37.0,0.0,15.0,0.0,0.0
373,49.0,0.0,1020.0,0.0,0.0
374,76.0,0.0,540.0,0.0,0.0
375,64.0,492.0,540.0,0.0,0.0
376,45.0,0.0,510.0,0.0,0.0
377,61.0,0.0,510.0,0.0,0.0
378,73.0,0.0,510.0,0.0,0.0
379,69.0,20.0,15.0,0.0,0.0
380,64.0,0.0,510.0,0.0,0.0
381,57.0,492.0,540.0,0.0,0.0
382,40.0,20.0,510.0,0.0,0.0
383,73.0,1004.0,540.0,0.0,0.0
384,61.0,0.0,510.0,0.0,0.0
385,37.0,0.0,510.0,0.0,0.0
386,60.0,0.0,1020.0,0.0,0.0
387,84.0,0.0,1020.0,0.0,0.0
388,72.0,0.0,1020.0,0.0,0.0
389,48.0,0.0,1020.0,0.0,0.0
390,63.0,0.0,1530.0,0.0,0.0
391,68.0,0.0,1530.0,0.0,0.0
392,36.0,0.0,2040.0,0.0,0.0
393,44.0,0.0,2040.0,0.0,0.0
394,56.0,0.0,510.0,0.0,0.0
395,80.0,512.0,510.0,0.0,0.0
396,51.0,0.0,510.0,0.0,0.0
397,63.0,0.0,510.0,0.0,0.0
398,75.0,0.0,15.0,0.0,0.0
399,48.0,0.0,510.0,0.0,0.0
400,72.0,512.0,510.0,0.0,0.0
401,62.0,512.0,510.0,0.0,0.0
402,74.0,0.0,510.0,0.0,0.0
403,23.0,0.0,2040.0,0.0,0.0
404,47.0,0.0,1020.0,0.0,0.0
405,35.0,0.0,1020.0,0.0,0.0
406,59.0,0.0,510.0,0.0,0.0
407,71.0,0.0,510.0,0.0,0.0
408,44.0,0.0,510.0,0.0,0.0
409,68.0,0.0,510.0,0.0,0.0
410,38.0,0.0,510.0,0.0,0.0
411,62.0,0.0,510.0,0.0,0.0
412,68.0,512.0,510.0,0.0,0.0
413,56.0,0.0,510.0,0.0,0.0
414,71.0,1024.0,510.0,0.0,0.0
415,59.0,0.0,510.0,0.0,0.0
416,35.0,0.0,510.0,0.0,0.0
417,70.0,0.0,1020.0,0.0,0.0
418,82.0,0.0,1020.0,0.0,0.0
419,46.0,0.0,1020.0,0.0,0.0
420,37.0,0.0,2040.0,0.0,0.0
421,66.0,512.0,1530.0,0.0,0.0
422,58.0,512.0,1020.0,0.0,0.0
423,54.0,0.0,510.0,0.0,0.0
424,78.0,0.0,510.0,0.0,0.0
425,73.0,0.0,510.0,0.0,0.0
426,49.0,0.0,510.0,0.0,0.0
427,61.0,0.0,15.0,0.0,0.0
428,46.0,0.0,510.0,0.0,0.0
429,70.0,0.0,510.0,0.0,0.0
430,73.0,0.0,510.0,0.0,0.0
431,21.0,0.0,2040.0,0.0,0.0
432,45.0,0.0,1020.0,0.0,0.0
433,72.0,512.0,510.0,0.0,0.0
434,60.0,0.0,510.0,0.0,0.0
435,33.0,0.0,1020.0,0.0,0.0
436,42.0,0.0,510.0,0.0,0.0
437,66.0,0.0,510.0,0.0,0.0
438,69.0,0.0,510.0,0.0,0.0
439,57.0,0.0,510.0,0.0,0.0
440,39.0,0.0,510.0,0.0,0.0
441,63.0,512.0,510.0,0.0,0.0
442,66.0,0.0,510.0,0.0,0.0
443,54.0,0.0,510.0,0.0,0.0
444,33.0,0.0,510.0,0.0,0.0
445,57.0,0.0,510.0,0.0,0.0
446,61.0,341.0,510.0,0.0,0.0
447,73.0,0.0,510.0,0.0,0.0
448,42.0,0.0,2040.0,0.0,0.0
449,33.0,0.0,15.0,0.0,0.0
450,72.0,0.0,1530.0,0.0,0.0
451,60.0,512.0,1530.0,0.0,0.0
452,45.0,512.0,2040.0,0.0,0.0
453,51.0,171.0,180.0,0.0,0.0
454,54.0,171.0,180.0,0.0,0.0
455,63.0,170.0,15.0,0.0,0.0
456,66.0,512.0,180.0,0.0,0.0
457,75.0,0.0,510.0,0.0,0.0
458,73.0,0.0,510.0,0.0,0.0
459,61.0,0.0,510.0,0.0,0.0
460,56.0,0.0,510.0,0.0,0.0
461,72.0,0.0,510.0,0.0,0.0
462,60.0,512.0,510.0,0.0,0.0
463,20.0,0.0,2040.0,0.0,0.0
464,68.0,0.0,510.0,0.0,0.0
465,32.0,0.0,510.0,0.0,0.0
466,44.0,0.0,510.0,0.0,0.0
467,57.0,512.0,510.0,0.0,0.0
468,66.0,0.0,510.0,0.0,0.0
469,69.0,0.0,510.0,0.0,0.0
470,42.0,0.0,510.0,0.0,0.0
471,54.0,0.0,510.0,0.0,0.0
472,39.0,0.0,510.0,0.0,0.0
473,63.0,512.0,510.0,0.0,0.0
474,66.0,0.0,510.0,0.0,0.0
475,61.0,0.0,510.0,0.0,0.0
476,73.0,0.0,510.0,0.0,0.0
477,32.0,0.0,510.0,0.0,0.0
478,56.0,341.0,510.0,0.0,0.0
479,60.0,256.0,1530.0,0.0,0.0
480,72.0,0.0,1530.0,0.0,0.0
481,42.0,0.0,2040.0,0.0,0.0
482,44.0,0.0,2040.0,0.0,0.0
483,51.0,171.0,180.0,0.0,0.0
484,54.0,171.0,180.0,0.0,0.0
485,63.0,170.0,15.0,0.0,0.0
486,66.0,512.0,180.0,0.0,0.0
487,75.0,0.0,510.0,0.0,0.0
488,51.0,0.0,270.0,0.0,0.0
489,54.0,256.0,270.0,0.0,0.0
490,73.0,0.0,540.0,0.0,0.0
491,61.0,236.0,540.0,0.0,0.0
492,56.0,0.0,270.0,0.0,0.0
493,72.0,0.0,300.0,0.0,0.0
494,57.0,56.0,270.0,0.0,0.0
495,60.0,200.0,300.0,0.0,0.0
496,54.0,256.0,270.0,0.0,0.0
497,75.0,0.0,540.0,0.0,0.0
498,63.0,236.0,540.0,0.0,0.0
499,51.0,256.0,270.0,0.0,0.0
500,54.0,20.0,270.0,0.0,0.0
501,61.0,0.0,300.0,0.0,0.0
502,73.0,200.0,300.0,0.0,0.0
503,52.0,56.0,270.0,0.0,0.0
504,68.0,0.0,270.0,0.0,0.0
505,56.0,256.0,270.0,0.0,0.0
506,49.0,0.0,270.0,0.0,0.0
507,73.0,0.0,270.0,0.0,0.0
508,61.0,0.0,270.0,0.0,0.0
509,44.0,256.0,270.0,0.0,0.0
510,80.0,0.0,540.0,0.0,0.0
511,68.0,236.0,540.0,0.0,0.0
512,40.0,0.0,270.0,0.0,0.0
513,75.0,0.0,270.0,0.0,0.0
514,63.0,20.0,270.0,0.0,0.0
515,46.0,0.0,1020.0,0.0,0.0
516,49.0,0.0,1020.0,0.0,0.0
517,67.0,256.0,1530.0,0.0,0.0
518,79.0,0.0,1530.0,0.0,0.0
519,39.0,0.0,1020.0,0.0,0.0
520,76.0,0.0,270.0,0.0,0.0
521,64.0,256.0,270.0,0.0,0.0
522,61.0,0.0,270.0,0.0,0.0
523,73.0,256.0,270.0,0.0,0.0
524,70.0,0.0,270.0,0.0,0.0
525,58.0,256.0,270.0,0.0,0.0
526,73.0,0.0,270.0,0.0,0.0
527,61.0,512.0,270.0,0.0,0.0
528,64.0,0.0,510.0,0.0,0.0
529,76.0,0.0,510.0,0.0,0.0
530,58.0,0.0,270.0,0.0,0.0
531,80.0,0.0,540.0,0.0,0.0
532,61.0,256.0,270.0,0.0,0.0
533,68.0,236.0,540.0,0.0,0.0
534,63.0,20.0,270.0,0.0,0.0
535,67.0,0.0,300.0,0.0,0.0
536,79.0,200.0,300.0,0.0,0.0
537,64.0,56.0,270.0,0.0,0.0
538,61.0,256.0,270.0,0.0,0.0
539,70.0,236.0,540.0,0.0,0.0
540,58.0,256.0,270.0,0.0,0.0
541,82.0,0.0,540.0,0.0,0.0
542,61.0,20.0,270.0,0.0,0.0
543,68.0,200.0,300.0,0.0,0.0
544,80.0,0.0,300.0,0.0,0.0
545,59.0,56.0,270.0,0.0,0.0
546,63.0,256.0,270.0,0.0,0.0
547,75.0,0.0,270.0,0.0,0.0
548,56.0,0.0,270.0,0.0,0.0
549,51.0,0.0,270.0,0.0,0.0
550,87.0,0.0,540.0,0.0,0.0
551,75.0,236.0,540.0,0.0,0.0
552,80.0,256.0,270.0,0.0,0.0
553,68.0,0.0,270.0,0.0,0.0
554,70.0,0.0,270.0,0.0,0.0
555,47.0,20.0,270.0,0.0,0.0
556,82.0,0.0,270.0,0.0,0.0
557,74.0,0.0,1530.0,0.0,0.0
558,81.0,256.0,1530.0,0.0,0.0
559,71.0,256.0,270.0,0.0,0.0
560,86.0,0.0,1530.0,0.0,0.0
561,83.0,0.0,270.0,0.0,0.0
562,46.0,0.0,1530.0,0.0,0.0
563,68.0,0.0,270.0,0.0,0.0
564,80.0,256.0,270.0,0.0,0.0
565,65.0,0.0,270.0,0.0,0.0
566,77.0,256.0,270.0,0.0,0.0
567,68.0,0.0,270.0,0.0,0.0
568,80.0,128.0,270.0,0.0,0.0
569,83.0,384.0,120.0,0.0,0.0
570,71.0,0.0,120.0,0.0,0.0
571,53.0,0.0,270.0,0.0,0.0
572,65.0,0.0,270.0,0.0,0.0
573,68.0,0.0,270.0,0.0,0.0
574,56.0,0.0,15.0,0.0,0.0
575,75.0,0.0,510.0,0.0,0.0
576,63.0,256.0,510.0,0.0,0.0
577,70.0,0.0,270.0,0.0,0.0
578,58.0,0.0,270.0,0.0,0.0
579,71.0,0.0,270.0,0.0,0.0
580,46.0,0.0,1530.0,0.0,0.0
581,59.0,256.0,270.0,0.0,0.0
582,41.0,256.0,1530.0,0.0,0.0
583,34.0,0.0,1530.0,0.0,0.0
584,62.0,0.0,1530.0,0.0,0.0
585,56.0,256.0,270.0,0.0,0.0
586,68.0,0.0,270.0,0.0,0.0
587,65.0,128.0,270.0,0.0,0.0
588,53.0,0.0,270.0,0.0,0.0
589,56.0,128.0,270.0,0.0,0.0
590,68.0,128.0,120.0,0.0,0.0
591,59.0,128.0,120.0,0.0,0.0
592,71.0,256.0,270.0,0.0,0.0
593,77.0,0.0,270.0,0.0,0.0
594,74.0,0.0,15.0,0.0,0.0
595,86.0,0.0,510.0,0.0,0.0
596,80.0,256.0,270.0,0.0,0.0
597,83.0,0.0,270.0,0.0,0.0
598,58.0,0.0,1020.0,0.0,0.0
599,46.0,0.0,1020.0,0.0,0.0
600,54.0,0.0,1020.0,0.0,0.0
601,85.0,256.0,270.0,0.0,0.0
602,78.0,256.0,270.0,0.0,0.0
603,73.0,256.0,270.0,0.0,0.0
604,78.0,0.0,270.0,0.0,0.0
605,85.0,0.0,15.0,0.0,0.0
606,57.0,0.0,330.0,0.0,0.0
607,45.0,171.0,330.0,0.0,0.0
608,73.0,0.0,15.0,0.0,0.0
609,78.0,256.0,1020.0,0.0,0.0
610,66.0,0.0,270.0,0.0,0.0
611,56.0,85.0,330.0,0.0,0.0
612,44.0,0.0,330.0,0.0,0.0
613,61.0,256.0,270.0,0.0,0.0
614,54.0,0.0,1380.0,0.0,0.0
615,42.0,0.0,1380.0,0.0,0.0
616,66.0,0.0,270.0,0.0,0.0
617,81.0,256.0,270.0,0.0,0.0
618,74.0,0.0,270.0,0.0,0.0
619,69.0,256.0,15.0,0.0,0.0
620,69.0,0.0,15.0,0.0,0.0
621,74.0,0.0,15.0,0.0,0.0
622,53.0,0.0,330.0,0.0,0.0
623,41.0,171.0,330.0,0.0,0.0
624,81.0,171.0,510.0,0.0,0.0
625,69.0,85.0,270.0,0.0,0.0
626,62.0,0.0,270.0,0.0,0.0
627,52.0,0.0,330.0,0.0,0.0
628,40.0,85.0,330.0,0.0,0.0
629,57.0,256.0,270.0,0.0,0.0
630,50.0,0.0,1380.0,0.0,0.0
631,38.0,0.0,1380.0,0.0,0.0
632,62.0,0.0,270.0,0.0,0.0
633,77.0,256.0,270.0,0.0,0.0
634,65.0,256.0,510.0,0.0,0.0
635,69.0,0.0,270.0,0.0,0.0
636,65.0,256.0,270.0,0.0,0.0
637,69.0,0.0,270.0,0.0,0.0
638,36.0,0.0,330.0,0.0,0.0
639,65.0,0.0,1020.0,0.0,0.0
640,62.0,0.0,1020.0,0.0,0.0
641,48.0,171.0,330.0,0.0,0.0
642,77.0,0.0,510.0,0.0,0.0
643,57.0,171.0,270.0,0.0,0.0
644,46.0,0.0,330.0,0.0,0.0
645,34.0,85.0,330.0,0.0,0.0
646,53.0,256.0,270.0,0.0,0.0
647,33.0,0.0,1380.0,0.0,0.0
648,45.0,341.0,1380.0,0.0,0.0
649,57.0,256.0,270.0,0.0,0.0
650,55.0,256.0,270.0,0.0,0.0
651,67.0,0.0,270.0,0.0,0.0
652,52.0,256.0,270.0,0.0,0.0
653,64.0,0.0,270.0,0.0,0.0
654,61.0,0.0,270.0,0.0,0.0
655,49.0,256.0,270.0,0.0,0.0
656,64.0,0.0,270.0,0.0,0.0
657,52.0,0.0,270.0,0.0,0.0
658,56.0,0.0,1020.0,0.0,0.0
659,68.0,0.0,1020.0,0.0,0.0
660,32.0,171.0,330.0,0.0,0.0
661,44.0,0.0,330.0,0.0,0.0
662,52.0,0.0,270.0,0.0,0.0
663,64.0,171.0,270.0,0.0,0.0
664,30.0,0.0,330.0,0.0,0.0
665,42.0,85.0,330.0,0.0,0.0
666,61.0,0.0,270.0,0.0,0.0
667,49.0,256.0,270.0,0.0,0.0
668,28.0,0.0,330.0,0.0,0.0
669,40.0,0.0,330.0,0.0,0.0
670,52.0,1024.0,270.0,0.0,0.0
671,64.0,0.0,270.0,0.0,0.0
672,27.0,0.0,1020.0,0.0,0.0
673,49.0,0.0,1020.0,0.0,0.0
674,54.0,0.0,1020.0,0.0,0.0
675,39.0,0.0,1020.0,0.0,0.0
676,69.0,0.0,1020.0,0.0,0.0
677,61.0,0.0,15.0,0.0,0.0
678,57.0,768.0,1020.0,0.0,0.0
679,66.0,0.0,1020.0,0.0,0.0
680,68.0,256.0,780.0,0.0,0.0
681,56.0,0.0,780.0,0.0,0.0
682,57.0,1024.0,270.0,0.0,0.0
683,69.0,0.0,270.0,0.0,0.0
684,54.0,0.0,1020.0,0.0,0.0
685,60.0,0.0,1020.0,0.0,0.0
686,69.0,0.0,1530.0,0.0,0.0
687,20.0,0.0,1020.0,0.0,0.0
688,44.0,0.0,1020.0,0.0,0.0
689,51.0,0.0,1020.0,0.0,0.0
690,57.0,512.0,1530.0,0.0,0.0
691,32.0,0.0,1020.0,0.0,0.0
692,60.0,0.0,510.0,0.0,0.0
693,48.0,683.0,510.0,0.0,0.0
694,37.0,20.0,1020.0,0.0,0.0
695,69.0,663.0,1050.0,0.0,0.0
696,44.0,341.0,330.0,0.0,0.0
697,54.0,0.0,330.0,0.0,0.0
698,52.0,0.0,1020.0,0.0,0.0
699,68.0,236.0,780.0,0.0,0.0
700,56.0,105.0,330.0,0.0,0.0
701,61.0,683.0,330.0,0.0,0.0
702,69.0,0.0,15.0,0.0,0.0
703,36.0,532.0,1020.0,0.0,0.0
704,44.0,341.0,330.0,0.0,0.0
705,54.0,0.0,330.0,0.0,0.0
706,51.0,0.0,15.0,0.0,0.0
707,54.0,341.0,330.0,0.0,0.0
708,68.0,512.0,540.0,0.0,0.0
709,63.0,20.0,330.0,0.0,0.0
710,64.0,0.0,1020.0,0.0,0.0
711,37.0,20.0,1020.0,0.0,0.0
712,69.0,151.0,540.0,0.0,0.0
713,44.0,341.0,330.0,0.0,0.0
714,68.0,512.0,540.0,0.0,0.0
715,52.0,0.0,330.0,0.0,0.0
716,64.0,151.0,540.0,0.0,0.0
717,49.0,20.0,1020.0,0.0,0.0
718,52.0,341.0,330.0,0.0,0.0
719,66.0,0.0,540.0,0.0,0.0
720,61.0,0.0,330.0,0.0,0.0
721,68.0,20.0,2040.0,0.0,0.0
722,32.0,20.0,1020.0,0.0,0.0
723,60.0,512.0,1050.0,0.0,0.0
724,44.0,341.0,330.0,0.0,0.0
725,56.0,0.0,330.0,0.0,0.0
726,61.0,151.0,540.0,0.0,0.0
727,51.0,0.0,15.0,0.0,0.0
728,54.0,341.0,330.0,0.0,0.0
729,63.0,663.0,540.0,0.0,0.0
730,69.0,663.0,1050.0,0.0,0.0
731,64.0,0.0,2040.0,0.0,0.0
732,37.0,20.0,1020.0,0.0,0.0
733,44.0,341.0,330.0,0.0,0.0
734,49.0,0.0,330.0,0.0,0.0
735,52.0,0.0,15.0,0.0,0.0
736,68.0,236.0,780.0,0.0,0.0
737,52.0,105.0,330.0,0.0,0.0
738,56.0,0.0,330.0,0.0,0.0
739,74.0,683.0,15.0,0.0,0.0
740,35.0,532.0,1020.0,0.0,0.0
741,59.0,0.0,1020.0,0.0,0.0
742,47.0,341.0,330.0,0.0,0.0
743,50.0,0.0,330.0,0.0,0.0
744,54.0,341.0,330.0,0.0,0.0
745,73.0,512.0,540.0,0.0,0.0
746,62.0,0.0,330.0,0.0,0.0
747,33.0,0.0,1020.0,0.0,0.0
748,66.0,0.0,15.0,0.0,0.0
749,74.0,151.0,540.0,0.0,0.0
750,66.0,0.0,1020.0,0.0,0.0
751,45.0,341.0,330.0,0.0,0.0
752,69.0,512.0,540.0,0.0,0.0
753,50.0,20.0,330.0,0.0,0.0
754,66.0,151.0,540.0,0.0,0.0
755,54.0,341.0,330.0,0.0,0.0
756,68.0,663.0,540.0,0.0,0.0
757,57.0,0.0,330.0,0.0,0.0
758,62.0,0.0,1020.0,0.0,0.0
759,30.0,0.0,1020.0,0.0,0.0
760,69.0,663.0,1050.0,0.0,0.0
761,45.0,341.0,330.0,0.0,0.0
762,50.0,20.0,330.0,0.0,0.0
763,66.0,0.0,1020.0,0.0,0.0
764,54.0,0.0,1020.0,0.0,0.0
765,57.0,341.0,330.0,0.0,0.0
766,62.0,0.0,330.0,0.0,0.0
767,44.0,0.0,1020.0,0.0,0.0
768,69.0,663.0,1050.0,0.0,0.0
769,32.0,0.0,1020.0,0.0,0.0
770,64.0,0.0,1020.0,0.0,0.0
771,61.0,0.0,1020.0,0.0,0.0
772,49.0,341.0,330.0,0.0,0.0
773,54.0,20.0,330.0,0.0,0.0
774,68.0,236.0,780.0,0.0,0.0
775,52.0,105.0,330.0,0.0,0.0
776,61.0,0.0,330.0,0.0,0.0
777,69.0,683.0,270.0,0.0,0.0
778,63.0,0.0,1020.0,0.0,0.0
779,32.0,0.0,690.0,0.0,0.0
780,60.0,0.0,1020.0,0.0,0.0
781,69.0,151.0,1560.0,0.0,0.0
782,44.0,341.0,330.0,0.0,0.0
783,52.0,532.0,330.0,0.0,0.0
784,51.0,0.0,1020.0,0.0,0.0
785,54.0,341.0,330.0,0.0,0.0
786,68.0,512.0,540.0,0.0,0.0
787,63.0,20.0,330.0,0.0,0.0
788,78.0,0.0,330.0,0.0,0.0
789,32.0,0.0,690.0,0.0,0.0
790,76.0,20.0,1020.0,0.0,0.0
791,64.0,0.0,1020.0,0.0,0.0
792,61.0,0.0,1020.0,0.0,0.0
793,69.0,151.0,540.0,0.0,0.0
794,44.0,341.0,330.0,0.0,0.0
795,68.0,512.0,540.0,0.0,0.0
796,52.0,0.0,330.0,0.0,0.0
797,64.0,151.0,540.0,0.0,0.0
798,49.0,0.0,1020.0,0.0,0.0
799,52.0,341.0,330.0,0.0,0.0
800,66.0,663.0,540.0,0.0,0.0
801,61.0,20.0,330.0,0.0,0.0
802,63.0,0.0,1020.0,0.0,0.0
803,32.0,0.0,690.0,0.0,0.0
804,60.0,0.0,1020.0,0.0,0.0
805,68.0,0.0,2040.0,0.0,0.0
806,75.0,0.0,1020.0,0.0,0.0
807,44.0,341.0,330.0,0.0,0.0
808,56.0,683.0,330.0,0.0,0.0
809,51.0,341.0,1020.0,0.0,0.0
810,54.0,341.0,330.0,0.0,0.0
811,63.0,0.0,330.0,0.0,0.0
812,69.0,0.0,1020.0,0.0,0.0
813,37.0,342.0,330.0,0.0,0.0
814,64.0,0.0,1020.0,0.0,0.0
815,52.0,0.0,1020.0,0.0,0.0
816,44.0,341.0,330.0,0.0,0.0
817,68.0,256.0,780.0,0.0,0.0
818,49.0,341.0,15.0,0.0,0.0
819,52.0,85.0,330.0,0.0,0.0
820,56.0,341.0,330.0,0.0,0.0
821,74.0,0.0,270.0,0.0,0.0
822,66.0,0.0,2040.0,0.0,0.0
823,74.0,171.0,1530.0,0.0,0.0
824,62.0,0.0,2040.0,0.0,0.0
825,50.0,0.0,330.0,0.0,0.0
826,35.0,0.0,2040.0,0.0,0.0
827,59.0,342.0,15.0,0.0,0.0
828,47.0,341.0,330.0,0.0,0.0
829,54.0,0.0,15.0,0.0,0.0
830,59.0,0.0,15.0,0.0,0.0
831,50.0,0.0,15.0,0.0,0.0
832,54.0,0.0,330.0,0.0,0.0
833,50.0,0.0,15.0,0.0,0.0
834,59.0,171.0,330.0,0.0,0.0
835,54.0,0.0,15.0,0.0,0.0
836,50.0,0.0,330.0,0.0,0.0
837,69.0,0.0,510.0,0.0,0.0
838,59.0,341.0,15.0,0.0,0.0
839,54.0,0.0,330.0,0.0,0.0
840,64.0,0.0,1020.0,0.0,0.0
841,40.0,0.0,1020.0,0.0,0.0
842,59.0,0.0,15.0,0.0,0.0
843,50.0,683.0,15.0,0.0,0.0
844,69.0,0.0,1020.0,0.0,0.0
845,47.0,341.0,330.0,0.0,0.0
846,52.0,0.0,330.0,0.0,0.0
847,62.0,0.0,15.0,0.0,0.0
848,68.0,256.0,780.0,0.0,0.0
849,59.0,0.0,15.0,0.0,0.0
850,52.0,341.0,15.0,0.0,0.0
851,56.0,85.0,330.0,0.0,0.0
852,59.0,0.0,330.0,0.0,0.0
853,41.0,0.0,2040.0,0.0,0.0
854,29.0,0.0,2040.0,0.0,0.0
855,53.0,0.0,330.0,0.0,0.0
856,65.0,0.0,2040.0,0.0,0.0
857,62.0,341.0,15.0,0.0,0.0
858,74.0,0.0,15.0,0.0,0.0
859,62.0,0.0,330.0,0.0,0.0
860,57.0,342.0,15.0,0.0,0.0
861,53.0,0.0,330.0,0.0,0.0
862,45.0,341.0,330.0,0.0,0.0
863,57.0,0.0,15.0,0.0,0.0
864,50.0,0.0,330.0,0.0,0.0
865,53.0,0.0,15.0,0.0,0.0
866,62.0,341.0,15.0,0.0,0.0
867,57.0,0.0,330.0,0.0,0.0
868,53.0,0.0,330.0,0.0,0.0
869,57.0,0.0,330.0,0.0,0.0
870,62.0,341.0,330.0,0.0,0.0
871,53.0,0.0,330.0,0.0,0.0
872,69.0,0.0,510.0,0.0,0.0
873,57.0,683.0,330.0,0.0,0.0
874,62.0,0.0,330.0,0.0,0.0
875,53.0,0.0,330.0,0.0,0.0
876,69.0,0.0,1020.0,0.0,0.0
877,43.0,0.0,1020.0,0.0,0.0
878,62.0,0.0,15.0,0.0,0.0
879,59.0,0.0,1020.0,0.0,0.0
880,50.0,341.0,330.0,0.0,0.0
881,53.0,0.0,330.0,0.0,0.0
882,31.0,0.0,15.0,0.0,0.0
883,43.0,0.0,1020.0,0.0,0.0
884,65.0,341.0,15.0,0.0,0.0
885,67.0,256.0,780.0,0.0,0.0
886,59.0,0.0,330.0,0.0,0.0
887,62.0,342.0,15.0,0.0,0.0
888,65.0,85.0,330.0,0.0,0.0
889,59.0,0.0,330.0,0.0,0.0
890,62.0,683.0,330.0,0.0,0.0
891,65.0,0.0,330.0,0.0,0.0
892,74.0,0.0,270.0,0.0,0.0
893,74.0,0.0,1020.0,0.0,0.0
894,44.0,683.0,1020.0,0.0,0.0
895,59.0,0.0,15.0,0.0,0.0
896,32.0,0.0,1020.0,0.0,0.0
897,50.0,341.0,330.0,0.0,0.0
898,53.0,0.0,330.0,0.0,0.0
899,62.0,0.0,15.0,0.0,0.0
900,65.0,0.0,15.0,0.0,0.0
901,45.0,0.0,1020.0,0.0,0.0
902,33.0,0.0,1020.0,0.0,0.0
903,62.0,0.0,330.0,0.0,0.0
904,65.0,0.0,330.0,0.0,0.0
905,57.0,85.0,15.0,0.0,0.0
906,62.0,0.0,330.0,0.0,0.0
907,65.0,256.0,90.0,0.0,0.0
908,62.0,0.0,15.0,0.0,0.0
909,34.0,0.0,1020.0,0.0,0.0
910,46.0,0.0,1020.0,0.0,0.0
911,74.0,683.0,15.0,0.0,0.0
912,65.0,0.0,1020.0,0.0,0.0
913,50.0,341.0,330.0,0.0,0.0
914,53.0,341.0,330.0,0.0,0.0
915,35.0,0.0,1020.0,0.0,0.0
916,56.0,0.0,15.0,0.0,0.0
917,47.0,683.0,1020.0,0.0,0.0
918,56.0,342.0,15.0,0.0,0.0
919,65.0,0.0,330.0,0.0,0.0
920,62.0,0.0,330.0,0.0,0.0
921,65.0,256.0,90.0,0.0,0.0
922,62.0,0.0,330.0,0.0,0.0
923,56.0,0.0,330.0,0.0,0.0
924,74.0,0.0,270.0,0.0,0.0
925,75.0,341.0,1020.0,0.0,0.0
926,63.0,0.0,1020.0,0.0,0.0
927,65.0,0.0,1020.0,0.0,0.0
928,36.0,0.0,1020.0,0.0,0.0
929,53.0,341.0,330.0,0.0,0.0
930,57.0,0.0,330.0,0.0,0.0
931,69.0,342.0,330.0,0.0,0.0
932,60.0,0.0,330.0,0.0,0.0
933,48.0,0.0,15.0,0.0,0.0
934,29.0,341.0,1020.0,0.0,0.0
935,41.0,0.0,1020.0,0.0,0.0
936,60.0,0.0,330.0,0.0,0.0
937,63.0,0.0,330.0,0.0,0.0
938,69.0,341.0,15.0,0.0,0.0
939,60.0,0.0,330.0,0.0,0.0
940,63.0,0.0,330.0,0.0,0.0
941,69.0,0.0,270.0,0.0,0.0
942,75.0,0.0,270.0,0.0,0.0
943,56.0,256.0,1020.0,0.0,0.0
944,40.0,171.0,330.0,0.0,0.0
945,28.0,0.0,510.0,0.0,0.0
946,64.0,0.0,510.0,0.0,0.0
947,68.0,171.0,510.0,0.0,0.0
948,76.0,0.0,510.0,0.0,0.0
949,41.0,91.0,330.0,0.0,0.0
950,65.0,250.0,270.0,0.0,0.0
951,77.0,0.0,270.0,0.0,0.0
952,40.0,0.0,15.0,0.0,0.0
953,76.0,0.0,270.0,0.0,0.0
954,68.0,85.0,270.0,0.0,0.0
955,64.0,0.0,270.0,0.0,0.0
956,59.0,0.0,15.0,0.0,0.0
957,56.0,0.0,270.0,0.0,0.0
958,28.0,0.0,270.0,0.0,0.0
959,41.0,341.0,330.0,0.0,0.0
960,40.0,341.0,15.0,0.0,0.0
961,41.0,341.0,330.0,0.0,0.0
962,40.0,341.0,330.0,0.0,0.0
963,40.0,342.0,330.0,0.0,0.0
964,41.0,341.0,330.0,0.0,0.0
965,40.0,341.0,330.0,0.0,0.0
966,33.0,0.0,330.0,0.0,0.0
967,40.0,342.0,330.0,0.0,0.0
968,41.0,341.0,330.0,0.0,0.0
969,40.0,341.0,330.0,0.0,0.0
970,33.0,0.0,330.0,0.0,0.0
971,40.0,342.0,330.0,0.0,0.0
972,41.0,341.0,330.0,0.0,0.0
973,40.0,341.0,330.0,0.0,0.0
974,33.0,342.0,330.0,0.0,0.0
975,40.0,0.0,330.0,0.0,0.0
976,41.0,341.0,330.0,0.0,0.0
977,40.0,341.0,15.0,0.0,0.0
978,33.0,342.0,330.0,0.0,0.0
979,41.0,85.0,330.0,0.0,0.0
980,76.0,0.0,270.0,0.0,0.0
981,72.0,0.0,270.0,0.0,0.0
982,88.0,256.0,270.0,0.0,0.0
983,84.0,0.0,270.0,0.0,0.0
984,45.0,0.0,270.0,0.0,0.0
985,40.0,341.0,330.0,0.0,0.0
986,64.0,171.0,510.0,0.0,0.0
987,60.0,0.0,510.0,0.0,0.0
988,72.0,0.0,510.0,0.0,0.0
989,40.0,171.0,330.0,0.0,0.0
990,57.0,0.0,510.0,0.0,0.0
991,33.0,0.0,330.0,0.0,0.0
992,76.0,0.0,510.0,0.0,0.0
993,41.0,91.0,330.0,0.0,0.0
994,56.0,0.0,270.0,0.0,0.0
995,74.0,0.0,270.0,0.0,0.0
996,77.0,250.0,270.0,0.0,0.0
997,65.0,0.0,270.0,0.0,0.0
998,62.0,0.0,270.0,0.0,0.0
999,40.0,256.0,330.0,0.0,0.0
1000,57.0,0.0,270.0,0.0,0.0
1001,72.0,0.0,270.0,0.0,0.0
1002,33.0,342.0,330.0,0.0,0.0
1003,76.0,0.0,270.0,0.0,0.0
1004,60.0,0.0,270.0,0.0,0.0
1005,40.0,0.0,330.0,0.0,0.0
1006,64.0,85.0,270.0,0.0,0.0
1007,41.0,341.0,330.0,0.0,0.0
1008,48.0,341.0,270.0,0.0,0.0
1009,69.0,0.0,270.0,0.0,0.0
1010,72.0,0.0,270.0,0.0,0.0
1011,81.0,0.0,270.0,0.0,0.0
1012,84.0,0.0,270.0,0.0,0.0
1013,69.0,0.0,510.0,0.0,0.0
1014,72.0,0.0,510.0,0.0,0.0
1015,57.0,0.0,510.0,0.0,0.0
1016,40.0,0.0,15.0,0.0,0.0
1017,33.0,0.0,330.0,0.0,0.0
1018,60.0,0.0,510.0,0.0,0.0
1019,41.0,91.0,330.0,0.0,0.0
1020,62.0,0.0,270.0,0.0,0.0
1021,74.0,0.0,270.0,0.0,0.0
1022,71.0,0.0,270.0,0.0,0.0
1023,59.0,0.0,270.0,0.0,0.0
1024,40.0,256.0,330.0,0.0,0.0
1025,60.0,0.0,270.0,0.0,0.0
1026,69.0,85.0,270.0,0.0,0.0
1027,72.0,0.0,270.0,0.0,0.0
1028,57.0,0.0,270.0,0.0,0.0
1029,33.0,0.0,330.0,0.0,0.0
1030,40.0,342.0,330.0,0.0,0.0
1031,41.0,341.0,330.0,0.0,0.0
1032,40.0,0.0,330.0,0.0,0.0
1033,65.0,0.0,270.0,0.0,0.0
1034,69.0,0.0,270.0,0.0,0.0
1035,77.0,0.0,270.0,0.0,0.0
1036,81.0,341.0,270.0,0.0,0.0
1037,57.0,0.0,270.0,0.0,0.0
1038,33.0,171.0,330.0,0.0,0.0
1039,41.0,0.0,330.0,0.0,0.0
1040,69.0,0.0,510.0,0.0,0.0
1041,53.0,0.0,510.0,0.0,0.0
1042,43.0,341.0,330.0,0.0,0.0
1043,65.0,0.0,15.0,0.0,0.0
1044,57.0,171.0,15.0,0.0,0.0
1045,69.0,0.0,510.0,0.0,0.0
1046,33.0,0.0,330.0,0.0,0.0
1047,41.0,341.0,15.0,0.0,0.0
1048,60.0,0.0,15.0,0.0,0.0
1049,72.0,0.0,15.0,0.0,0.0
1050,65.0,171.0,510.0,0.0,0.0
1051,43.0,341.0,330.0,0.0,0.0
1052,77.0,0.0,15.0,0.0,0.0
1053,65.0,0.0,510.0,0.0,0.0
1054,57.0,341.0,510.0,0.0,0.0
1055,41.0,0.0,330.0,0.0,0.0
1056,33.0,171.0,330.0,0.0,0.0
1057,41.0,0.0,330.0,0.0,0.0
1058,72.0,0.0,510.0,0.0,0.0
1059,81.0,0.0,15.0,0.0,0.0
1060,53.0,0.0,1020.0,0.0,0.0
1061,69.0,0.0,15.0,0.0,0.0
1062,84.0,171.0,510.0,0.0,0.0
1063,43.0,341.0,330.0,0.0,0.0
1064,74.0,0.0,510.0,0.0,0.0
1065,86.0,0.0,510.0,0.0,0.0
1066,41.0,341.0,330.0,0.0,0.0
1067,76.0,0.0,510.0,0.0,0.0
1068,88.0,171.0,510.0,0.0,0.0
1069,80.0,0.0,1020.0,0.0,0.0
1070,40.0,0.0,330.0,0.0,0.0
1071,33.0,171.0,330.0,0.0,0.0
1072,52.0,0.0,1020.0,0.0,0.0
1073,68.0,0.0,1020.0,0.0,0.0
1074,41.0,341.0,330.0,0.0,0.0
1075,74.0,0.0,510.0,0.0,0.0
1076,86.0,0.0,510.0,0.0,0.0
1077,40.0,341.0,330.0,0.0,0.0
1078,69.0,0.0,1020.0,0.0,0.0
1079,72.0,171.0,510.0,0.0,0.0
1080,81.0,0.0,1020.0,0.0,0.0
1081,84.0,0.0,510.0,0.0,0.0
1082,53.0,341.0,1020.0,0.0,0.0
1083,41.0,171.0,330.0,0.0,0.0
1084,33.0,0.0,330.0,0.0,0.0
1085,43.0,341.0,330.0,0.0,0.0
1086,86.0,0.0,510.0,0.0,0.0
1087,74.0,0.0,510.0,0.0,0.0
1088,41.0,0.0,330.0,0.0,0.0
1089,76.0,171.0,1530.0,0.0,0.0
1090,68.0,0.0,2040.0,0.0,0.0
1091,88.0,0.0,1530.0,0.0,0.0
1092,80.0,0.0,2040.0,0.0,0.0
1093,33.0,0.0,330.0,0.0,0.0
1094,40.0,342.0,330.0,0.0,0.0
1095,41.0,341.0,330.0,0.0,0.0
1096,40.0,341.0,330.0,0.0,0.0
1097,33.0,0.0,330.0,0.0,0.0
1098,40.0,171.0,330.0,0.0,0.0
1099,41.0,341.0,330.0,0.0,0.0
1100,71.0,0.0,510.0,0.0,0.0
1101,83.0,341.0,510.0,0.0,0.0
1102,40.0,0.0,330.0,0.0,0.0
1103,52.0,0.0,15.0,0.0,0.0
1104,33.0,0.0,330.0,0.0,0.0
1105,40.0,171.0,330.0,0.0,0.0
1106,64.0,0.0,510.0,0.0,0.0
1107,84.0,0.0,510.0,0.0,0.0
1108,76.0,171.0,510.0,0.0,0.0
1109,41.0,341.0,330.0,0.0,0.0
1110,60.0,0.0,510.0,0.0,0.0
1111,72.0,0.0,15.0,0.0,0.0
1112,69.0,0.0,510.0,0.0,0.0
1113,81.0,0.0,510.0,0.0,0.0
1114,40.0,0.0,330.0,0.0,0.0
1115,79.0,171.0,510.0,0.0,0.0
1116,76.0,0.0,1020.0,0.0,0.0
1117,64.0,0.0,1020.0,0.0,0.0
1118,43.0,171.0,330.0,0.0,0.0
1119,35.0,0.0,330.0,0.0,0.0
1120,55.0,0.0,1020.0,0.0,0.0
1121,67.0,0.0,510.0,0.0,0.0
1122,45.0,341.0,330.0,0.0,0.0
1123,81.0,0.0,510.0,0.0,0.0
1124,69.0,0.0,510.0,0.0,0.0
1125,43.0,341.0,330.0,0.0,0.0
1126,71.0,0.0,1530.0,0.0,0.0
1127,75.0,0.0,3060.0,0.0,0.0
1128,63.0,0.0,3060.0,0.0,0.0
1129,54.0,0.0,2040.0,0.0,0.0
1130,35.0,342.0,330.0,0.0,0.0
1131,42.0,0.0,330.0,0.0,0.0
1132,83.0,171.0,1530.0,0.0,0.0
1133,43.0,341.0,330.0,0.0,0.0
1134,42.0,341.0,330.0,0.0,0.0
1135,42.0,0.0,330.0,0.0,0.0
1136,35.0,171.0,330.0,0.0,0.0
1137,43.0,341.0,330.0,0.0,0.0
1138,78.0,341.0,510.0,0.0,0.0
1139,66.0,0.0,510.0,0.0,0.0
1140,42.0,0.0,330.0,0.0,0.0
1141,68.0,171.0,510.0,0.0,0.0
1142,80.0,0.0,510.0,0.0,0.0
1143,40.0,171.0,330.0,0.0,0.0
1144,52.0,683.0,1020.0,0.0,0.0
1145,41.0,341.0,330.0,0.0,0.0
1146,76.0,0.0,510.0,0.0,0.0
1147,64.0,0.0,510.0,0.0,0.0
1148,40.0,0.0,330.0,0.0,0.0
1149,45.0,0.0,690.0,0.0,0.0
1150,57.0,341.0,690.0,0.0,0.0
1151,38.0,0.0,1020.0,0.0,0.0
1152,26.0,0.0,1020.0,0.0,0.0
1153,65.0,0.0,1020.0,0.0,0.0
1154,53.0,191.0,1020.0,0.0,0.0
1155,47.0,192.0,1020.0,0.0,0.0
1156,59.0,0.0,1020.0,0.0,0.0
1157,45.0,0.0,330.0,0.0,0.0
1158,57.0,0.0,330.0,0.0,0.0
1159,52.0,0.0,180.0,0.0,0.0
1160,28.0,0.0,180.0,0.0,0.0
1161,40.0,150.0,180.0,0.0,0.0
1162,64.0,0.0,180.0,0.0,0.0
1163,50.0,0.0,180.0,0.0,0.0
1164,62.0,0.0,180.0,0.0,0.0
1165,29.0,0.0,180.0,0.0,0.0
1166,41.0,150.0,180.0,0.0,0.0
1167,26.0,0.0,180.0,0.0,0.0
1168,45.0,0.0,15.0,0.0,0.0
1169,57.0,191.0,15.0,0.0,0.0
1170,65.0,0.0,180.0,0.0,0.0
1171,53.0,0.0,180.0,0.0,0.0
1172,38.0,150.0,180.0,0.0,0.0
1173,57.0,341.0,15.0,0.0,0.0
1174,40.0,0.0,1020.0,0.0,0.0
1175,28.0,0.0,1020.0,0.0,0.0
1176,52.0,0.0,1020.0,0.0,0.0
1177,64.0,341.0,1020.0,0.0,0.0
1178,59.0,0.0,15.0,0.0,0.0
1179,47.0,342.0,15.0,0.0,0.0
1180,45.0,341.0,15.0,0.0,0.0
1181,57.0,0.0,330.0,0.0,0.0
1182,45.0,0.0,15.0,0.0,0.0
1183,41.0,171.0,510.0,0.0,0.0
1184,29.0,0.0,510.0,0.0,0.0
1185,62.0,0.0,510.0,0.0,0.0
1186,50.0,0.0,510.0,0.0,0.0
1187,57.0,341.0,690.0,0.0,0.0
1188,47.0,0.0,690.0,0.0,0.0
1189,59.0,171.0,15.0,0.0,0.0
1190,57.0,0.0,15.0,0.0,0.0
1191,45.0,0.0,15.0,0.0,0.0
1192,53.0,0.0,300.0,0.0,0.0
1193,65.0,0.0,300.0,0.0,0.0
1194,26.0,0.0,300.0,0.0,0.0
1195,38.0,371.0,300.0,0.0,0.0
1196,47.0,0.0,1020.0,0.0,0.0
1197,52.0,200.0,300.0,0.0,0.0
1198,64.0,0.0,300.0,0.0,0.0
1199,40.0,0.0,300.0,0.0,0.0
1200,28.0,0.0,300.0,0.0,0.0
1201,50.0,29.0,300.0,0.0,0.0
1202,62.0,0.0,300.0,0.0,0.0
1203,29.0,0.0,300.0,0.0,0.0
1204,41.0,0.0,300.0,0.0,0.0
1205,57.0,0.0,15.0,0.0,0.0
1206,45.0,312.0,15.0,0.0,0.0
1207,59.0,342.0,15.0,0.0,0.0
1208,47.0,0.0,1020.0,0.0,0.0
1209,65.0,0.0,300.0,0.0,0.0
1210,53.0,0.0,300.0,0.0,0.0
1211,38.0,200.0,300.0,0.0,0.0
1212,26.0,0.0,300.0,0.0,0.0
1213,57.0,0.0,15.0,0.0,0.0
1214,45.0,141.0,15.0,0.0,0.0
1215,40.0,0.0,1020.0,0.0,0.0
1216,57.0,0.0,15.0,0.0,0.0
1217,45.0,341.0,15.0,0.0,0.0
1218,28.0,0.0,1020.0,0.0,0.0
1219,64.0,0.0,1020.0,0.0,0.0
1220,52.0,341.0,1020.0,0.0,0.0
1221,47.0,0.0,1020.0,0.0,0.0
1222,45.0,0.0,330.0,0.0,0.0
1223,57.0,0.0,330.0,0.0,0.0
1224,57.0,0.0,690.0,0.0,0.0
1225,41.0,0.0,510.0,0.0,0.0
1226,29.0,171.0,510.0,0.0,0.0
1227,62.0,0.0,510.0,0.0,0.0
1228,50.0,0.0,510.0,0.0,0.0
1229,47.0,0.0,690.0,0.0,0.0
1230,59.0,171.0,15.0,0.0,0.0
1231,45.0,341.0,15.0,0.0,0.0
1232,57.0,0.0,15.0,0.0,0.0
1233,45.0,361.0,15.0,0.0,0.0
1234,28.0,20.0,2040.0,0.0,0.0
1235,40.0,0.0,2040.0,0.0,0.0
1236,47.0,0.0,360.0,0.0,0.0
1237,59.0,341.0,360.0,0.0,0.0
1238,45.0,683.0,360.0,0.0,0.0
1239,57.0,0.0,360.0,0.0,0.0
1240,61.0,0.0,1020.0,0.0,0.0
1241,49.0,0.0,1020.0,0.0,0.0
1242,64.0,321.0,360.0,0.0,0.0
1243,52.0,0.0,360.0,0.0,0.0
1244,57.0,0.0,360.0,0.0,0.0
1245,69.0,683.0,360.0,0.0,0.0
1246,62.0,0.0,2040.0,0.0,0.0
1247,52.0,0.0,2040.0,0.0,0.0
1248,56.0,0.0,1020.0,0.0,0.0
1249,68.0,341.0,1020.0,0.0,0.0
1250,71.0,321.0,360.0,0.0,0.0
1251,59.0,0.0,360.0,0.0,0.0
1252,76.0,0.0,15.0,0.0,0.0
1253,64.0,0.0,15.0,0.0,0.0
1254,28.0,20.0,2040.0,0.0,0.0
1255,45.0,0.0,360.0,0.0,0.0
1256,57.0,342.0,360.0,0.0,0.0
1257,40.0,0.0,2040.0,0.0,0.0
1258,47.0,0.0,360.0,0.0,0.0
1259,59.0,341.0,360.0,0.0,0.0
1260,57.0,0.0,360.0,0.0,0.0
1261,45.0,683.0,360.0,0.0,0.0
1262,49.0,0.0,1020.0,0.0,0.0
1263,61.0,0.0,1020.0,0.0,0.0
1264,52.0,0.0,360.0,0.0,0.0
1265,64.0,321.0,360.0,0.0,0.0
1266,57.0,683.0,360.0,0.0,0.0
1267,69.0,0.0,360.0,0.0,0.0
1268,68.0,0.0,1020.0,0.0,0.0
1269,56.0,0.0,1020.0,0.0,0.0
1270,62.0,0.0,2040.0,0.0,0.0
1271,52.0,0.0,2040.0,0.0,0.0
1272,71.0,0.0,360.0,0.0,0.0
1273,59.0,321.0,360.0,0.0,0.0
1274,64.0,341.0,15.0,0.0,0.0
1275,76.0,0.0,15.0,0.0,0.0
1276,67.0,0.0,1020.0,0.0,0.0
1277,55.0,0.0,1020.0,0.0,0.0
1278,40.0,0.0,1020.0,0.0,0.0
1279,46.0,0.0,690.0,0.0,0.0
1280,28.0,191.0,1020.0,0.0,0.0
1281,60.0,0.0,1020.0,0.0,0.0
1282,48.0,192.0,1020.0,0.0,0.0
1283,58.0,341.0,15.0,0.0,0.0
1284,29.0,0.0,180.0,0.0,0.0
1285,53.0,150.0,180.0,0.0,0.0
1286,58.0,0.0,15.0,0.0,0.0
1287,46.0,0.0,15.0,0.0,0.0
1288,41.0,0.0,180.0,0.0,0.0
1289,65.0,0.0,180.0,0.0,0.0
1290,31.0,150.0,180.0,0.0,0.0
1291,43.0,0.0,180.0,0.0,0.0
1292,64.0,0.0,180.0,0.0,0.0
1293,52.0,0.0,180.0,0.0,0.0
1294,55.0,0.0,180.0,0.0,0.0
1295,67.0,0.0,180.0,0.0,0.0
1296,28.0,150.0,180.0,0.0,0.0
1297,40.0,0.0,180.0,0.0,0.0
1298,58.0,0.0,330.0,0.0,0.0
1299,46.0,0.0,15.0,0.0,0.0
1300,61.0,341.0,15.0,0.0,0.0
1301,41.0,0.0,1020.0,0.0,0.0
1302,29.0,0.0,1020.0,0.0,0.0
1303,65.0,0.0,1020.0,0.0,0.0
1304,53.0,0.0,1020.0,0.0,0.0
1305,48.0,342.0,15.0,0.0,0.0
1306,60.0,0.0,15.0,0.0,0.0
1307,58.0,341.0,15.0,0.0,0.0
1308,46.0,0.0,15.0,0.0,0.0
1309,46.0,341.0,15.0,0.0,0.0
1310,52.0,0.0,510.0,0.0,0.0
1311,64.0,0.0,510.0,0.0,0.0
1312,31.0,0.0,510.0,0.0,0.0
1313,43.0,171.0,510.0,0.0,0.0
1314,58.0,341.0,690.0,0.0,0.0
1315,48.0,0.0,690.0,0.0,0.0
1316,60.0,0.0,690.0,0.0,0.0
1317,46.0,0.0,15.0,0.0,0.0
1318,58.0,0.0,15.0,0.0,0.0
1319,46.0,0.0,15.0,0.0,0.0
1320,40.0,371.0,300.0,0.0,0.0
1321,28.0,0.0,300.0,0.0,0.0
1322,67.0,0.0,300.0,0.0,0.0
1323,55.0,0.0,300.0,0.0,0.0
1324,48.0,0.0,1020.0,0.0,0.0
1325,60.0,342.0,1020.0,0.0,0.0
1326,41.0,0.0,300.0,0.0,0.0
1327,29.0,200.0,300.0,0.0,0.0
1328,65.0,0.0,300.0,0.0,0.0
1329,53.0,0.0,300.0,0.0,0.0
1330,58.0,0.0,15.0,0.0,0.0
1331,46.0,141.0,15.0,0.0,0.0
1332,58.0,312.0,15.0,0.0,0.0
1333,52.0,0.0,300.0,0.0,0.0
1334,64.0,0.0,300.0,0.0,0.0
1335,31.0,29.0,300.0,0.0,0.0
1336,43.0,0.0,300.0,0.0,0.0
1337,48.0,0.0,1020.0,0.0,0.0
1338,60.0,342.0,1020.0,0.0,0.0
1339,55.0,200.0,300.0,0.0,0.0
1340,28.0,0.0,300.0,0.0,0.0
1341,67.0,0.0,300.0,0.0,0.0
1342,40.0,0.0,300.0,0.0,0.0
1343,46.0,0.0,15.0,0.0,0.0
1344,58.0,341.0,330.0,0.0,0.0
1345,65.0,0.0,1020.0,0.0,0.0
1346,53.0,0.0,1020.0,0.0,0.0
1347,61.0,0.0,15.0,0.0,0.0
1348,46.0,0.0,15.0,0.0,0.0
1349,41.0,0.0,1020.0,0.0,0.0
1350,29.0,0.0,1020.0,0.0,0.0
1351,60.0,0.0,1020.0,0.0,0.0
1352,58.0,341.0,15.0,0.0,0.0
1353,46.0,0.0,330.0,0.0,0.0
1354,64.0,0.0,510.0,0.0,0.0
1355,52.0,0.0,510.0,0.0,0.0
1356,31.0,171.0,510.0,0.0,0.0
1357,43.0,0.0,510.0,0.0,0.0
1358,48.0,171.0,15.0,0.0,0.0
1359,60.0,361.0,690.0,0.0,0.0
1360,58.0,0.0,15.0,0.0,0.0
1361,46.0,341.0,15.0,0.0,0.0
1362,29.0,0.0,2040.0,0.0,0.0
1363,46.0,342.0,360.0,0.0,0.0
1364,58.0,0.0,360.0,0.0,0.0
1365,41.0,0.0,2040.0,0.0,0.0
1366,60.0,341.0,360.0,0.0,0.0
1367,48.0,0.0,360.0,0.0,0.0
1368,46.0,683.0,360.0,0.0,0.0
1369,58.0,0.0,360.0,0.0,0.0
1370,62.0,0.0,1020.0,0.0,0.0
1371,50.0,20.0,1020.0,0.0,0.0
1372,53.0,0.0,360.0,0.0,0.0
1373,65.0,321.0,360.0,0.0,0.0
1374,58.0,683.0,360.0,0.0,0.0
1375,70.0,0.0,360.0,0.0,0.0
1376,69.0,341.0,1020.0,0.0,0.0
1377,48.0,0.0,2040.0,0.0,0.0
1378,41.0,0.0,2040.0,0.0,0.0
1379,57.0,0.0,1020.0,0.0,0.0
1380,60.0,321.0,360.0,0.0,0.0
1381,72.0,0.0,360.0,0.0,0.0
1382,77.0,0.0,330.0,0.0,0.0
1383,65.0,0.0,15.0,0.0,0.0
1384,77.0,683.0,330.0,0.0,0.0
1385,46.0,0.0,360.0,0.0,0.0
1386,53.0,361.0,15.0,0.0,0.0
1387,58.0,342.0,360.0,0.0,0.0
1388,29.0,0.0,2040.0,0.0,0.0
1389,41.0,0.0,2040.0,0.0,0.0
1390,48.0,0.0,360.0,0.0,0.0
1391,60.0,341.0,360.0,0.0,0.0
1392,46.0,683.0,360.0,0.0,0.0
1393,58.0,0.0,360.0,0.0,0.0
1394,62.0,0.0,1020.0,0.0,0.0
1395,50.0,0.0,1020.0,0.0,0.0
1396,53.0,0.0,360.0,0.0,0.0
1397,65.0,321.0,360.0,0.0,0.0
1398,58.0,683.0,360.0,0.0,0.0
1399,70.0,0.0,360.0,0.0,0.0
1400,69.0,341.0,1020.0,0.0,0.0
1401,41.0,0.0,2040.0,0.0,0.0
1402,57.0,0.0,1020.0,0.0,0.0
1403,53.0,0.0,1530.0,0.0,0.0
1404,48.0,341.0,2040.0,0.0,0.0
1405,72.0,321.0,360.0,0.0,0.0
1406,60.0,0.0,360.0,0.0,0.0
1407,77.0,0.0,330.0,0.0,0.0
1408,65.0,0.0,15.0,0.0,0.0
1409,77.0,0.0,330.0,0.0,0.0
1410,64.0,0.0,270.0,0.0,0.0
1411,76.0,256.0,270.0,0.0,0.0
1412,64.0,171.0,510.0,0.0,0.0
1413,33.0,0.0,330.0,0.0,0.0
1414,40.0,171.0,330.0,0.0,0.0
1415,52.0,0.0,510.0,0.0,0.0
1416,84.0,256.0,1020.0,0.0,0.0
1417,81.0,0.0,1020.0,0.0,0.0
1418,41.0,91.0,330.0,0.0,0.0
1419,53.0,250.0,270.0,0.0,0.0
1420,65.0,0.0,270.0,0.0,0.0
1421,40.0,0.0,330.0,0.0,0.0
1422,64.0,0.0,270.0,0.0,0.0
1423,33.0,0.0,330.0,0.0,0.0
1424,40.0,171.0,330.0,0.0,0.0
1425,72.0,0.0,15.0,0.0,0.0
1426,52.0,85.0,270.0,0.0,0.0
1427,69.0,171.0,510.0,0.0,0.0
1428,41.0,341.0,330.0,0.0,0.0
1429,72.0,0.0,270.0,0.0,0.0
1430,76.0,0.0,1020.0,0.0,0.0
1431,40.0,0.0,15.0,0.0,0.0
1432,33.0,0.0,330.0,0.0,0.0
1433,60.0,341.0,15.0,0.0,0.0
1434,69.0,256.0,1020.0,0.0,0.0
1435,48.0,171.0,510.0,0.0,0.0
1436,41.0,91.0,330.0,0.0,0.0
1437,62.0,0.0,270.0,0.0,0.0
1438,50.0,250.0,270.0,0.0,0.0
1439,40.0,0.0,330.0,0.0,0.0
1440,33.0,171.0,330.0,0.0,0.0
1441,40.0,0.0,330.0,0.0,0.0
1442,57.0,0.0,510.0,0.0,0.0
1443,60.0,0.0,270.0,0.0,0.0
1444,64.0,0.0,15.0,0.0,0.0
1445,48.0,85.0,270.0,0.0,0.0
1446,41.0,341.0,330.0,0.0,0.0
1447,40.0,0.0,330.0,0.0,0.0
1448,57.0,0.0,270.0,0.0,0.0
1449,45.0,0.0,510.0,0.0,0.0
1450,72.0,0.0,510.0,0.0,0.0
1451,69.0,341.0,15.0,0.0,0.0
1452,57.0,171.0,510.0,0.0,0.0
1453,33.0,0.0,330.0,0.0,0.0
1454,41.0,171.0,330.0,0.0,0.0
1455,43.0,341.0,330.0,0.0,0.0
1456,48.0,341.0,510.0,0.0,0.0
1457,60.0,0.0,510.0,0.0,0.0
1458,69.0,0.0,510.0,0.0,0.0
1459,41.0,0.0,15.0,0.0,0.0
1460,65.0,0.0,15.0,0.0,0.0
1461,33.0,0.0,330.0,0.0,0.0
1462,53.0,0.0,510.0,0.0,0.0
1463,43.0,341.0,330.0,0.0,0.0
1464,60.0,0.0,15.0,0.0,0.0
1465,69.0,0.0,510.0,0.0,0.0
1466,57.0,0.0,15.0,0.0,0.0
1467,53.0,0.0,1020.0,0.0,0.0
1468,41.0,341.0,15.0,0.0,0.0
1469,60.0,0.0,510.0,0.0,0.0
1470,72.0,171.0,510.0,0.0,0.0
1471,33.0,0.0,330.0,0.0,0.0
1472,43.0,341.0,330.0,0.0,0.0
1473,62.0,0.0,510.0,0.0,0.0
1474,74.0,341.0,510.0,0.0,0.0
1475,41.0,0.0,330.0,0.0,0.0
1476,56.0,0.0,1020.0,0.0,0.0
1477,52.0,341.0,1020.0,0.0,0.0
1478,40.0,171.0,330.0,0.0,0.0
1479,33.0,0.0,330.0,0.0,0.0
1480,76.0,0.0,510.0,0.0,0.0
1481,64.0,171.0,510.0,0.0,0.0
1482,41.0,341.0,330.0,0.0,0.0
1483,74.0,0.0,510.0,0.0,0.0
1484,62.0,0.0,510.0,0.0,0.0
1485,40.0,0.0,330.0,0.0,0.0
1486,60.0,121.0,570.0,0.0,0.0
1487,33.0,0.0,330.0,0.0,0.0
1488,41.0,221.0,330.0,0.0,0.0
1489,53.0,0.0,1020.0,0.0,0.0
1490,57.0,0.0,1020.0,0.0,0.0
1491,72.0,0.0,570.0,0.0,0.0
1492,43.0,341.0,330.0,0.0,0.0
1493,62.0,0.0,450.0,0.0,0.0
1494,74.0,0.0,450.0,0.0,0.0
1495,41.0,341.0,330.0,0.0,0.0
1496,64.0,171.0,1530.0,0.0,0.0
1497,56.0,341.0,2040.0,0.0,0.0
1498,76.0,0.0,1530.0,0.0,0.0
1499,40.0,0.0,330.0,0.0,0.0
1500,33.0,342.0,330.0,0.0,0.0
1501,41.0,341.0,330.0,0.0,0.0
1502,40.0,341.0,15.0,0.0,0.0
1503,33.0,0.0,330.0,0.0,0.0
1504,41.0,341.0,330.0,0.0,0.0
1505,59.0,0.0,510.0,0.0,0.0
1506,71.0,0.0,510.0,0.0,0.0
1507,40.0,0.0,330.0,0.0,0.0
1508,60.0,171.0,510.0,0.0,0.0
1509,72.0,0.0,510.0,0.0,0.0
1510,33.0,171.0,330.0,0.0,0.0
1511,69.0,0.0,1020.0,0.0,0.0
1512,48.0,0.0,1020.0,0.0,0.0
1513,52.0,0.0,15.0,0.0,0.0
1514,57.0,0.0,1020.0,0.0,0.0
1515,35.0,341.0,330.0,0.0,0.0
1516,62.0,0.0,510.0,0.0,0.0
1517,74.0,0.0,510.0,0.0,0.0
1518,33.0,0.0,330.0,0.0,0.0
1519,52.0,0.0,15.0,0.0,0.0
1520,72.0,0.0,1020.0,0.0,0.0
1521,67.0,0.0,1020.0,0.0,0.0
1522,64.0,341.0,15.0,0.0,0.0
1523,76.0,131.0,540.0,0.0,0.0
1524,31.0,211.0,330.0,0.0,0.0
1525,60.0,341.0,1020.0,0.0,0.0
1526,33.0,341.0,330.0,0.0,0.0
1527,65.0,0.0,480.0,0.0,0.0
1528,77.0,0.0,480.0,0.0,0.0
1529,31.0,0.0,330.0,0.0,0.0
1530,59.0,0.0,1020.0,0.0,0.0
1531,31.0,171.0,330.0,0.0,0.0
1532,55.0,0.0,15.0,0.0,0.0
1533,50.0,0.0,1020.0,0.0,0.0
1534,71.0,341.0,1020.0,0.0,0.0
1535,62.0,0.0,1020.0,0.0,0.0
1536,79.0,171.0,480.0,0.0,0.0
1537,67.0,0.0,480.0,0.0,0.0
1538,33.0,341.0,330.0,0.0,0.0
1539,65.0,0.0,480.0,0.0,0.0
1540,77.0,0.0,480.0,0.0,0.0
1541,60.0,0.0,1020.0,0.0,0.0
1542,55.0,0.0,15.0,0.0,0.0
1543,52.0,0.0,1020.0,0.0,0.0
1544,72.0,0.0,1020.0,0.0,0.0
1545,31.0,0.0,15.0,0.0,0.0
1546,64.0,171.0,510.0,0.0,0.0
1547,76.0,0.0,510.0,0.0,0.0
1548,33.0,341.0,330.0,0.0,0.0
1549,77.0,0.0,510.0,0.0,0.0
1550,65.0,341.0,510.0,0.0,0.0
1551,71.0,0.0,1530.0,0.0,0.0
1552,50.0,0.0,1530.0,0.0,0.0
1553,55.0,0.0,15.0,0.0,0.0
1554,59.0,0.0,1530.0,0.0,0.0
1555,31.0,0.0,15.0,0.0,0.0
1556,79.0,0.0,1530.0,0.0,0.0
1557,67.0,341.0,1020.0,0.0,0.0
1558,33.0,341.0,330.0,0.0,0.0
1559,31.0,0.0,15.0,0.0,0.0
1560,33.0,341.0,330.0,0.0,0.0
1561,62.0,0.0,15.0,0.0,0.0
1562,71.0,0.0,510.0,0.0,0.0
1563,74.0,341.0,510.0,0.0,0.0
1564,31.0,0.0,330.0,0.0,0.0
1565,72.0,0.0,510.0,0.0,0.0
1566,36.0,171.0,330.0,0.0,0.0
1567,52.0,341.0,1020.0,0.0,0.0
1568,55.0,0.0,1020.0,0.0,0.0
1569,76.0,0.0,510.0,0.0,0.0
1570,64.0,171.0,510.0,0.0,0.0
1571,43.0,341.0,330.0,0.0,0.0
1572,60.0,0.0,510.0,0.0,0.0
1573,79.0,0.0,510.0,0.0,0.0
1574,67.0,0.0,510.0,0.0,0.0
1575,36.0,0.0,330.0,0.0,0.0
1576,29.0,171.0,330.0,0.0,0.0
1577,57.0,0.0,1020.0,0.0,0.0
1578,48.0,0.0,15.0,0.0,0.0
1579,81.0,0.0,510.0,0.0,0.0
1580,53.0,0.0,1020.0,0.0,0.0
1581,69.0,171.0,510.0,0.0,0.0
1582,60.0,341.0,330.0,0.0,0.0
1583,41.0,0.0,330.0,0.0,0.0
1584,72.0,0.0,510.0,0.0,0.0
1585,84.0,0.0,510.0,0.0,0.0
1586,69.0,341.0,330.0,0.0,0.0
1587,29.0,0.0,330.0,0.0,0.0
1588,73.0,171.0,510.0,0.0,0.0
1589,58.0,0.0,1020.0,0.0,0.0
1590,70.0,171.0,330.0,0.0,0.0
1591,85.0,0.0,510.0,0.0,0.0
1592,67.0,0.0,330.0,0.0,0.0
1593,28.0,0.0,690.0,0.0,0.0
1594,70.0,0.0,510.0,0.0,0.0
1595,82.0,0.0,510.0,0.0,0.0
1596,40.0,341.0,15.0,0.0,0.0
1597,55.0,0.0,330.0,0.0,0.0
1598,48.0,512.0,15.0,0.0,0.0
1599,53.0,0.0,1020.0,0.0,0.0
1600,69.0,0.0,510.0,0.0,0.0
1601,81.0,171.0,510.0,0.0,0.0
1602,57.0,0.0,1020.0,0.0,0.0
1603,60.0,0.0,330.0,0.0,0.0
1604,41.0,0.0,690.0,0.0,0.0
1605,84.0,0.0,510.0,0.0,0.0
1606,72.0,341.0,510.0,0.0,0.0
1607,29.0,341.0,15.0,0.0,0.0
1608,69.0,0.0,330.0,0.0,0.0
1609,70.0,171.0,330.0,0.0,0.0
1610,40.0,341.0,690.0,0.0,0.0
1611,73.0,171.0,510.0,0.0,0.0
1612,85.0,0.0,510.0,0.0,0.0
1613,58.0,0.0,1020.0,0.0,0.0
1614,28.0,512.0,690.0,0.0,0.0
1615,67.0,0.0,330.0,0.0,0.0
1616,82.0,0.0,510.0,0.0,0.0
1617,70.0,0.0,510.0,0.0,0.0
1618,55.0,0.0,330.0,0.0,0.0
1619,40.0,0.0,330.0,0.0,0.0
1620,48.0,0.0,15.0,0.0,0.0
1621,81.0,171.0,510.0,0.0,0.0
1622,29.0,341.0,690.0,0.0,0.0
1623,69.0,0.0,510.0,0.0,0.0
1624,41.0,0.0,690.0,0.0,0.0
1625,60.0,0.0,330.0,0.0,0.0
1626,86.0,0.0,510.0,0.0,0.0
1627,74.0,0.0,510.0,0.0,0.0
1628,69.0,341.0,330.0,0.0,0.0
1629,29.0,0.0,330.0,0.0,0.0
1630,48.0,0.0,15.0,0.0,0.0
1631,53.0,0.0,15.0,0.0,0.0
1632,57.0,0.0,15.0,0.0,0.0
1633,87.0,0.0,510.0,0.0,0.0
1634,72.0,171.0,330.0,0.0,0.0
1635,36.0,341.0,690.0,0.0,0.0
1636,75.0,171.0,510.0,0.0,0.0
1637,69.0,0.0,330.0,0.0,0.0
1638,24.0,0.0,690.0,0.0,0.0
1639,72.0,0.0,510.0,0.0,0.0
1640,84.0,0.0,510.0,0.0,0.0
1641,36.0,341.0,330.0,0.0,0.0
1642,81.0,0.0,1020.0,0.0,0.0
1643,57.0,0.0,15.0,0.0,0.0
1644,41.0,0.0,690.0,0.0,0.0
1645,60.0,341.0,330.0,0.0,0.0
1646,29.0,0.0,15.0,0.0,0.0
1647,69.0,0.0,330.0,0.0,0.0
1648,76.0,0.0,1020.0,0.0,0.0
1649,72.0,342.0,330.0,0.0,0.0
1650,88.0,0.0,1020.0,0.0,0.0
1651,52.0,0.0,1020.0,0.0,0.0
1652,48.0,0.0,1020.0,0.0,0.0
1653,69.0,341.0,330.0,0.0,0.0
1654,24.0,0.0,690.0,0.0,0.0
1655,36.0,0.0,15.0,0.0,0.0
1656,60.0,341.0,330.0,0.0,0.0
1657,89.0,0.0,1020.0,0.0,0.0
1658,77.0,0.0,1020.0,0.0,0.0
1659,50.0,0.0,1020.0,0.0,0.0
1660,47.0,0.0,1020.0,0.0,0.0
1661,74.0,342.0,330.0,0.0,0.0
1662,23.0,341.0,690.0,0.0,0.0
1663,35.0,0.0,690.0,0.0,0.0
1664,69.0,0.0,330.0,0.0,0.0
1665,62.0,0.0,330.0,0.0,0.0
1666,23.0,341.0,330.0,0.0,0.0
1667,53.0,0.0,1020.0,0.0,0.0
1668,57.0,0.0,15.0,0.0,0.0
1669,86.0,0.0,1020.0,0.0,0.0
1670,50.0,0.0,1020.0,0.0,0.0
1671,69.0,342.0,330.0,0.0,0.0
1672,38.0,341.0,690.0,0.0,0.0
1673,74.0,0.0,1020.0,0.0,0.0
1674,62.0,0.0,330.0,0.0,0.0
1675,26.0,0.0,690.0,0.0,0.0
1676,57.0,0.0,330.0,0.0,0.0
1677,38.0,0.0,330.0,0.0,0.0
1678,72.0,0.0,2040.0,0.0,0.0
1679,84.0,341.0,2040.0,0.0,0.0
1680,52.0,0.0,1020.0,0.0,0.0
1681,57.0,341.0,15.0,0.0,0.0
1682,69.0,171.0,510.0,0.0,0.0
1683,28.0,171.0,330.0,0.0,0.0
1684,40.0,341.0,330.0,0.0,0.0
1685,57.0,341.0,510.0,0.0,0.0
1686,28.0,0.0,330.0,0.0,0.0
1687,41.0,171.0,330.0,0.0,0.0
1688,60.0,171.0,510.0,0.0,0.0
1689,29.0,341.0,330.0,0.0,0.0
1690,57.0,0.0,510.0,0.0,0.0
1691,41.0,0.0,330.0,0.0,0.0
1692,53.0,0.0,15.0,0.0,0.0
1693,65.0,171.0,510.0,0.0,0.0
1694,57.0,0.0,15.0,0.0,0.0
1695,71.0,0.0,1530.0,0.0,0.0
1696,83.0,0.0,1530.0,0.0,0.0
1697,50.0,0.0,1020.0,0.0,0.0
1698,26.0,171.0,330.0,0.0,0.0
1699,38.0,341.0,330.0,0.0,0.0
1700,57.0,0.0,510.0,0.0,0.0
1701,26.0,341.0,330.0,0.0,0.0
1702,64.0,171.0,510.0,0.0,0.0
1703,40.0,171.0,330.0,0.0,0.0
1704,52.0,0.0,1020.0,0.0,0.0
1705,28.0,341.0,330.0,0.0,0.0
1706,56.0,0.0,510.0,0.0,0.0
1707,69.0,0.0,510.0,0.0,0.0
1708,81.0,0.0,510.0,0.0,0.0
1709,40.0,0.0,330.0,0.0,0.0
1710,25.0,171.0,330.0,0.0,0.0
1711,57.0,0.0,1020.0,0.0,0.0
1712,69.0,0.0,1020.0,0.0,0.0
1713,81.0,0.0,1020.0,0.0,0.0
1714,37.0,341.0,330.0,0.0,0.0
1715,45.0,171.0,15.0,0.0,0.0
1716,25.0,0.0,330.0,0.0,0.0
1717,64.0,0.0,1020.0,0.0,0.0
1718,55.0,0.0,1020.0,0.0,0.0
1719,45.0,341.0,15.0,0.0,0.0
1720,76.0,0.0,1020.0,0.0,0.0
1721,37.0,171.0,330.0,0.0,0.0
1722,25.0,341.0,330.0,0.0,0.0
1723,37.0,341.0,330.0,0.0,0.0
1724,53.0,341.0,1020.0,0.0,0.0
1725,45.0,0.0,15.0,0.0,0.0
1726,77.0,0.0,1020.0,0.0,0.0
1727,65.0,0.0,1020.0,0.0,0.0
1728,26.0,171.0,330.0,0.0,0.0
1729,38.0,341.0,330.0,0.0,0.0
1730,45.0,171.0,15.0,0.0,0.0
1731,26.0,0.0,330.0,0.0,0.0
1732,62.0,0.0,1020.0,0.0,0.0
1733,57.0,0.0,1020.0,0.0,0.0
1734,50.0,0.0,1020.0,0.0,0.0
1735,41.0,171.0,330.0,0.0,0.0
1736,74.0,0.0,1020.0,0.0,0.0
1737,29.0,341.0,330.0,0.0,0.0
1738,41.0,0.0,330.0,0.0,0.0
1739,72.0,0.0,2040.0,0.0,0.0
1740,60.0,0.0,2040.0,0.0,0.0
1741,28.0,171.0,330.0,0.0,0.0
1742,52.0,0.0,2040.0,0.0,0.0
1743,57.0,0.0,2040.0,0.0,0.0
1744,40.0,171.0,15.0,0.0,0.0
1745,28.0,0.0,330.0,0.0,0.0
1746,40.0,341.0,15.0,0.0,0.0
1747,40.0,171.0,330.0,0.0,0.0
1748,28.0,341.0,330.0,0.0,0.0
1749,40.0,0.0,330.0,0.0,0.0
1750,59.0,0.0,1530.0,0.0,0.0
1751,71.0,0.0,1530.0,0.0,0.0
1752,28.0,171.0,330.0,0.0,0.0
1753,52.0,1024.0,2040.0,0.0,0.0
1754,56.0,171.0,1530.0,0.0,0.0
1755,40.0,171.0,180.0,0.0,0.0
1756,28.0,341.0,330.0,0.0,0.0
1757,33.0,171.0,330.0,0.0,0.0
1758,21.0,341.0,330.0,0.0,0.0
1759,69.0,0.0,510.0,0.0,0.0
1760,57.0,0.0,510.0,0.0,0.0
1761,33.0,0.0,330.0,0.0,0.0
1762,69.0,0.0,1020.0,0.0,0.0
1763,57.0,0.0,780.0,0.0,0.0
1764,61.0,20.0,510.0,0.0,0.0
1765,64.0,171.0,270.0,0.0,0.0
1766,70.0,342.0,180.0,0.0,0.0
1767,69.0,235.0,180.0,0.0,0.0
1768,55.0,0.0,1530.0,0.0,0.0
1769,72.0,426.0,180.0,0.0,0.0
1770,62.0,106.0,15.0,0.0,0.0
1771,65.0,256.0,270.0,0.0,0.0
1772,70.0,20.0,1020.0,0.0,0.0
1773,64.0,256.0,270.0,0.0,0.0
1774,65.0,236.0,270.0,0.0,0.0
1775,67.0,0.0,270.0,0.0,0.0
1776,69.0,20.0,510.0,0.0,0.0
1777,64.0,0.0,1050.0,0.0,0.0
1778,61.0,256.0,270.0,0.0,0.0
1779,57.0,256.0,270.0,0.0,0.0
1780,61.0,0.0,270.0,0.0,0.0
1781,70.0,512.0,300.0,0.0,0.0
1782,57.0,0.0,780.0,0.0,0.0
1783,69.0,200.0,300.0,0.0,0.0
1784,61.0,20.0,510.0,0.0,0.0
1785,64.0,292.0,270.0,0.0,0.0
1786,70.0,456.0,300.0,0.0,0.0
1787,62.0,56.0,510.0,0.0,0.0
1788,72.0,476.0,300.0,0.0,0.0
1789,55.0,20.0,1530.0,0.0,0.0
1790,62.0,0.0,1290.0,0.0,0.0
1791,65.0,256.0,270.0,0.0,0.0
1792,70.0,0.0,1020.0,0.0,0.0
1793,64.0,256.0,270.0,0.0,0.0
1794,65.0,236.0,270.0,0.0,0.0
1795,67.0,0.0,270.0,0.0,0.0
1796,69.0,20.0,510.0,0.0,0.0
1797,64.0,0.0,1050.0,0.0,0.0
1798,61.0,256.0,270.0,0.0,0.0
1799,57.0,256.0,270.0,0.0,0.0
1800,61.0,0.0,270.0,0.0,0.0
1801,33.0,0.0,1050.0,0.0,0.0
1802,45.0,321.0,1050.0,0.0,0.0
1803,69.0,171.0,180.0,0.0,0.0
1804,61.0,0.0,15.0,0.0,0.0
1805,69.0,341.0,15.0,0.0,0.0
1806,57.0,0.0,15.0,0.0,0.0
1807,40.0,0.0,1050.0,0.0,0.0
1808,69.0,0.0,15.0,0.0,0.0
1809,61.0,0.0,15.0,0.0,0.0
1810,57.0,20.0,15.0,0.0,0.0
1811,52.0,663.0,1050.0,0.0,0.0
1812,61.0,0.0,15.0,0.0,0.0
1813,57.0,342.0,15.0,0.0,0.0
1814,69.0,341.0,330.0,0.0,0.0
1815,61.0,0.0,15.0,0.0,0.0
1816,41.0,0.0,1050.0,0.0,0.0
1817,53.0,0.0,1050.0,0.0,0.0
1818,69.0,0.0,15.0,0.0,0.0
1819,57.0,0.0,15.0,0.0,0.0
1820,69.0,0.0,15.0,0.0,0.0
1821,62.0,0.0,15.0,0.0,0.0
1822,57.0,341.0,15.0,0.0,0.0
1823,57.0,321.0,20.0,0.0,0.0
1824,38.0,663.0,1050.0,0.0,0.0
1825,50.0,0.0,1050.0,0.0,0.0
1826,77.0,0.0,1050.0,0.0,0.0
1827,57.0,341.0,15.0,0.0,0.0
1828,65.0,0.0,15.0,0.0,0.0
1829,49.0,0.0,1050.0,0.0,0.0
1830,81.0,0.0,1050.0,0.0,0.0
1831,69.0,0.0,1050.0,0.0,0.0
1832,37.0,321.0,1050.0,0.0,0.0
1833,57.0,0.0,330.0,0.0,0.0
1834,64.0,341.0,330.0,0.0,0.0
1835,57.0,0.0,330.0,0.0,0.0
1836,64.0,20.0,330.0,0.0,0.0
1837,76.0,0.0,1050.0,0.0,0.0
1838,45.0,0.0,1050.0,0.0,0.0
1839,33.0,321.0,1050.0,0.0,0.0
1840,61.0,0.0,330.0,0.0,0.0
1841,57.0,342.0,15.0,0.0,0.0
1842,61.0,341.0,15.0,0.0,0.0
1843,40.0,0.0,2070.0,0.0,0.0
1844,28.0,1004.0,2070.0,0.0,0.0
1845,64.0,0.0,20.0,0.0,0.0
1846,57.0,20.0,15.0,0.0,0.0
1847,62.0,0.0,1050.0,0.0,0.0
1848,74.0,321.0,1050.0,0.0,0.0
1849,64.0,0.0,15.0,0.0,0.0
1850,57.0,342.0,15.0,0.0,0.0
1851,59.0,0.0,15.0,0.0,0.0
1852,64.0,0.0,15.0,0.0,0.0
1853,59.0,0.0,15.0,0.0,0.0
1854,57.0,341.0,15.0,0.0,0.0
1855,56.0,0.0,330.0,0.0,0.0
1856,71.0,0.0,1050.0,0.0,0.0
1857,56.0,0.0,330.0,0.0,0.0
1858,59.0,0.0,330.0,0.0,0.0
1859,64.0,342.0,15.0,0.0,0.0
1860,59.0,0.0,330.0,0.0,0.0
1861,64.0,20.0,330.0,0.0,0.0
1862,56.0,0.0,330.0,0.0,0.0
1863,57.0,191.0,1020.0,0.0,0.0
1864,65.0,0.0,780.0,0.0,0.0
1865,69.0,0.0,510.0,0.0,0.0
1866,72.0,0.0,270.0,0.0,0.0
1867,73.0,256.0,1020.0,0.0,0.0
1868,58.0,342.0,180.0,0.0,0.0
1869,67.0,106.0,510.0,0.0,0.0
1870,57.0,235.0,180.0,0.0,0.0
1871,64.0,0.0,1530.0,0.0,0.0
1872,60.0,150.0,180.0,0.0,0.0
1873,67.0,0.0,1290.0,0.0,0.0
1874,58.0,20.0,1020.0,0.0,0.0
1875,73.0,256.0,270.0,0.0,0.0
1876,72.0,256.0,270.0,0.0,0.0
1877,73.0,256.0,270.0,0.0,0.0
1878,75.0,0.0,270.0,0.0,0.0
1879,72.0,20.0,1020.0,0.0,0.0
1880,57.0,256.0,510.0,0.0,0.0
1881,69.0,256.0,510.0,0.0,0.0
1882,65.0,0.0,510.0,0.0,0.0
1883,69.0,0.0,270.0,0.0,0.0
1884,58.0,512.0,300.0,0.0,0.0
1885,65.0,0.0,780.0,0.0,0.0
1886,69.0,312.0,510.0,0.0,0.0
1887,57.0,200.0,300.0,0.0,0.0
1888,72.0,0.0,270.0,0.0,0.0
1889,73.0,256.0,1020.0,0.0,0.0
1890,58.0,456.0,300.0,0.0,0.0
1891,67.0,56.0,510.0,0.0,0.0
1892,64.0,20.0,1530.0,0.0,0.0
1893,60.0,200.0,300.0,0.0,0.0
1894,67.0,0.0,1290.0,0.0,0.0
1895,58.0,0.0,1020.0,0.0,0.0
1896,73.0,256.0,270.0,0.0,0.0
1897,72.0,256.0,270.0,0.0,0.0
1898,73.0,256.0,270.0,0.0,0.0
1899,75.0,0.0,270.0,0.0,0.0
1900,57.0,256.0,510.0,0.0,0.0
1901,72.0,0.0,1020.0,0.0,0.0
1902,69.0,256.0,510.0,0.0,0.0
1903,65.0,0.0,510.0,0.0,0.0
1904,69.0,0.0,270.0,0.0,0.0
1905,69.0,0.0,15.0,0.0,0.0
1906,41.0,663.0,2070.0,0.0,0.0
1907,48.0,0.0,2040.0,0.0,0.0
1908,29.0,0.0,2070.0,0.0,0.0
1909,72.0,171.0,510.0,0.0,0.0
1910,57.0,0.0,15.0,0.0,0.0
1911,45.0,341.0,15.0,0.0,0.0
1912,63.0,0.0,1050.0,0.0,0.0
1913,75.0,0.0,1050.0,0.0,0.0
1914,45.0,0.0,330.0,0.0,0.0
1915,57.0,342.0,330.0,0.0,0.0
1916,57.0,0.0,15.0,0.0,0.0
1917,45.0,341.0,15.0,0.0,0.0
1918,64.0,20.0,1020.0,0.0,0.0
1919,40.0,0.0,2070.0,0.0,0.0
1920,76.0,321.0,1050.0,0.0,0.0
1921,49.0,20.0,2040.0,0.0,0.0
1922,28.0,0.0,2070.0,0.0,0.0
1923,57.0,0.0,15.0,0.0,0.0
1924,45.0,341.0,15.0,0.0,0.0
1925,61.0,0.0,1050.0,0.0,0.0
1926,73.0,663.0,1050.0,0.0,0.0
1927,57.0,0.0,15.0,0.0,0.0
1928,45.0,0.0,15.0,0.0,0.0
1929,64.0,0.0,1020.0,0.0,0.0
1930,57.0,0.0,15.0,0.0,0.0
1931,45.0,342.0,15.0,0.0,0.0
1932,45.0,341.0,15.0,0.0,0.0
1933,57.0,0.0,330.0,0.0,0.0
1934,69.0,321.0,1050.0,0.0,0.0
1935,54.0,20.0,2040.0,0.0,0.0
1936,38.0,0.0,2070.0,0.0,0.0
1937,26.0,0.0,2070.0,0.0,0.0
1938,45.0,0.0,330.0,0.0,0.0
1939,57.0,341.0,15.0,0.0,0.0
1940,45.0,0.0,15.0,0.0,0.0
1941,78.0,0.0,1050.0,0.0,0.0
1942,66.0,0.0,20.0,0.0,0.0
1943,62.0,0.0,1050.0,0.0,0.0
1944,57.0,20.0,15.0,0.0,0.0
1945,45.0,0.0,330.0,0.0,0.0
1946,57.0,342.0,15.0,0.0,0.0
1947,57.0,0.0,330.0,0.0,0.0
1948,45.0,0.0,330.0,0.0,0.0
1949,69.0,20.0,1020.0,0.0,0.0
1950,81.0,321.0,1050.0,0.0,0.0
1951,52.0,20.0,2040.0,0.0,0.0
1952,25.0,0.0,2070.0,0.0,0.0
1953,37.0,492.0,2070.0,0.0,0.0
1954,57.0,341.0,15.0,0.0,0.0
1955,45.0,0.0,15.0,0.0,0.0
1956,45.0,0.0,15.0,0.0,0.0
1957,57.0,0.0,15.0,0.0,0.0
1958,69.0,0.0,1050.0,0.0,0.0
1959,64.0,0.0,1020.0,0.0,0.0
1960,57.0,0.0,15.0,0.0,0.0
1961,45.0,342.0,15.0,0.0,0.0
1962,57.0,0.0,330.0,0.0,0.0
1963,45.0,0.0,330.0,0.0,0.0
1964,28.0,0.0,1020.0,0.0,0.0
1965,74.0,171.0,1380.0,0.0,0.0
1966,64.0,256.0,270.0,0.0,0.0
1967,68.0,0.0,270.0,0.0,0.0
1968,52.0,256.0,270.0,0.0,0.0
1969,54.0,256.0,270.0,0.0,0.0
1970,69.0,0.0,270.0,0.0,0.0
1971,71.0,85.0,270.0,0.0,0.0
1972,40.0,0.0,15.0,0.0,0.0
1973,52.0,0.0,1020.0,0.0,0.0
1974,56.0,0.0,1020.0,0.0,0.0
1975,68.0,191.0,270.0,0.0,0.0
1976,73.0,65.0,360.0,0.0,0.0
1977,64.0,256.0,270.0,0.0,0.0
1978,76.0,236.0,360.0,0.0,0.0
1979,68.0,20.0,270.0,0.0,0.0
1980,74.0,236.0,1560.0,0.0,0.0
1981,71.0,256.0,270.0,0.0,0.0
1982,70.0,0.0,270.0,0.0,0.0
1983,55.0,256.0,270.0,0.0,0.0
1984,71.0,0.0,270.0,0.0,0.0
1985,56.0,256.0,270.0,0.0,0.0
1986,73.0,256.0,270.0,0.0,0.0
1987,57.0,0.0,270.0,0.0,0.0
1988,56.0,256.0,1020.0,0.0,0.0
1989,52.0,0.0,15.0,0.0,0.0
1990,71.0,256.0,270.0,0.0,0.0
1991,40.0,0.0,15.0,0.0,0.0
1992,68.0,20.0,270.0,0.0,0.0
1993,73.0,0.0,510.0,0.0,0.0
1994,64.0,256.0,270.0,0.0,0.0
1995,68.0,0.0,270.0,0.0,0.0
1996,76.0,0.0,15.0,0.0,0.0
1997,28.0,0.0,1020.0,0.0,0.0
1998,40.0,0.0,15.0,0.0,0.0
1999,71.0,256.0,270.0,0.0,0.0
2000,64.0,20.0,270.0,0.0,0.0
2001,68.0,0.0,270.0,0.0,0.0
2002,52.0,256.0,270.0,0.0,0.0
2003,56.0,20.0,270.0,0.0,0.0
2004,71.0,0.0,270.0,0.0,0.0
2005,59.0,0.0,1020.0,0.0,0.0
2006,40.0,0.0,2040.0,0.0,0.0
2007,52.0,20.0,1020.0,0.0,0.0
2008,74.0,236.0,20.0,0.0,0.0
2009,71.0,20.0,270.0,0.0,0.0
2010,64.0,256.0,270.0,0.0,0.0
2011,69.0,236.0,540.0,0.0,0.0
2012,71.0,0.0,270.0,0.0,0.0
2013,74.0,256.0,270.0,0.0,0.0
2014,68.0,236.0,540.0,0.0,0.0
2015,73.0,20.0,270.0,0.0,0.0
2016,58.0,0.0,270.0,0.0,0.0
2017,71.0,492.0,540.0,0.0,0.0
2018,74.0,0.0,270.0,0.0,0.0
2019,59.0,256.0,270.0,0.0,0.0
2020,76.0,0.0,270.0,0.0,0.0
2021,56.0,20.0,270.0,0.0,0.0
2022,57.0,0.0,510.0,0.0,0.0
2023,52.0,20.0,1020.0,0.0,0.0
2024,73.0,236.0,540.0,0.0,0.0
2025,40.0,0.0,1020.0,0.0,0.0
2026,76.0,20.0,270.0,0.0,0.0
2027,71.0,256.0,270.0,0.0,0.0
2028,56.0,0.0,510.0,0.0,0.0
2029,74.0,236.0,540.0,0.0,0.0
2030,76.0,0.0,270.0,0.0,0.0
2031,67.0,171.0,1380.0,0.0,0.0
2032,79.0,0.0,1380.0,0.0,0.0
2033,33.0,0.0,1020.0,0.0,0.0
2034,73.0,256.0,270.0,0.0,0.0
2035,69.0,256.0,270.0,0.0,0.0
2036,57.0,0.0,270.0,0.0,0.0
2037,73.0,256.0,270.0,0.0,0.0
2038,59.0,0.0,270.0,0.0,0.0
2039,74.0,0.0,270.0,0.0,0.0
2040,45.0,256.0,15.0,0.0,0.0
2041,76.0,85.0,270.0,0.0,0.0
2042,61.0,0.0,1020.0,0.0,0.0
2043,73.0,171.0,270.0,0.0,0.0
2044,78.0,0.0,330.0,0.0,0.0
2045,66.0,341.0,330.0,0.0,0.0
2046,81.0,0.0,330.0,0.0,0.0
2047,69.0,256.0,330.0,0.0,0.0
2048,73.0,0.0,270.0,0.0,0.0
2049,76.0,256.0,270.0,0.0,0.0
2050,79.0,0.0,1530.0,0.0,0.0
2051,67.0,256.0,1530.0,0.0,0.0
2052,75.0,0.0,270.0,0.0,0.0
2053,60.0,256.0,270.0,0.0,0.0
2054,61.0,0.0,270.0,0.0,0.0
2055,76.0,256.0,270.0,0.0,0.0
2056,62.0,256.0,270.0,0.0,0.0
2057,78.0,0.0,270.0,0.0,0.0
2058,76.0,256.0,270.0,0.0,0.0
2059,57.0,0.0,15.0,0.0,0.0
2060,61.0,0.0,1020.0,0.0,0.0
2061,73.0,0.0,270.0,0.0,0.0
2062,69.0,256.0,270.0,0.0,0.0
2063,78.0,256.0,510.0,0.0,0.0
2064,66.0,0.0,510.0,0.0,0.0
2065,73.0,0.0,270.0,0.0,0.0
2066,45.0,0.0,15.0,0.0,0.0
2067,33.0,0.0,1020.0,0.0,0.0
2068,81.0,0.0,540.0,0.0,0.0
2069,76.0,276.0,270.0,0.0,0.0
2070,69.0,236.0,270.0,0.0,0.0
2071,73.0,0.0,270.0,0.0,0.0
2072,67.0,236.0,540.0,0.0,0.0
2073,57.0,256.0,270.0,0.0,0.0
2074,61.0,0.0,270.0,0.0,0.0
2075,76.0,0.0,270.0,0.0,0.0
2076,79.0,0.0,20.0,0.0,0.0
2077,57.0,0.0,2040.0,0.0,0.0
2078,64.0,0.0,540.0,0.0,0.0
2079,76.0,236.0,270.0,0.0,0.0
2080,74.0,236.0,540.0,0.0,0.0
2081,69.0,0.0,270.0,0.0,0.0
2082,62.0,0.0,540.0,0.0,0.0
2083,76.0,256.0,15.0,0.0,0.0
2084,73.0,0.0,540.0,0.0,0.0
2085,61.0,236.0,540.0,0.0,0.0
2086,79.0,256.0,270.0,0.0,0.0
2087,78.0,0.0,270.0,0.0,0.0
2088,63.0,20.0,270.0,0.0,0.0
2089,75.0,0.0,270.0,0.0,0.0
2090,79.0,256.0,270.0,0.0,0.0
2091,64.0,0.0,270.0,0.0,0.0
2092,76.0,236.0,540.0,0.0,0.0
2093,61.0,0.0,270.0,0.0,0.0
2094,81.0,20.0,270.0,0.0,0.0
2095,73.0,0.0,270.0,0.0,0.0
2096,45.0,0.0,15.0,0.0,0.0
2097,74.0,256.0,270.0,0.0,0.0
2098,62.0,0.0,510.0,0.0,0.0
2099,78.0,0.0,540.0,0.0,0.0
2100,66.0,236.0,540.0,0.0,0.0
2101,81.0,0.0,270.0,0.0,0.0
2102,79.0,0.0,540.0,0.0,0.0
2103,76.0,256.0,270.0,0.0,0.0
2104,67.0,492.0,540.0,0.0,0.0
2105,57.0,20.0,510.0,0.0,0.0
2106,61.0,0.0,510.0,0.0,0.0
2107,73.0,0.0,270.0,0.0,0.0
2108,81.0,0.0,270.0,0.0,0.0
2109,38.0,256.0,750.0,0.0,0.0
2110,48.0,0.0,630.0,0.0,0.0
2111,54.0,0.0,510.0,0.0,0.0
2112,81.0,0.0,1050.0,0.0,0.0
2113,62.0,321.0,1200.0,0.0,0.0
2114,50.0,0.0,1020.0,0.0,0.0
2115,60.0,0.0,270.0,0.0,0.0
2116,66.0,256.0,270.0,0.0,0.0
2117,69.0,20.0,270.0,0.0,0.0
2118,55.0,0.0,2040.0,0.0,0.0
2119,82.0,0.0,2070.0,0.0,0.0
2120,43.0,0.0,2040.0,0.0,0.0
2121,46.0,20.0,2040.0,0.0,0.0
2122,67.0,21.0,270.0,0.0,0.0
2123,61.0,235.0,180.0,0.0,0.0
2124,58.0,106.0,270.0,0.0,0.0
2125,64.0,150.0,180.0,0.0,0.0
2126,67.0,256.0,270.0,0.0,0.0
2127,70.0,512.0,270.0,0.0,0.0
2128,62.0,0.0,510.0,0.0,0.0
2129,58.0,256.0,270.0,0.0,0.0
2130,67.0,0.0,1050.0,0.0,0.0
2131,79.0,512.0,1050.0,0.0,0.0
2132,55.0,20.0,1020.0,0.0,0.0
2133,31.0,0.0,1020.0,0.0,0.0
2134,43.0,0.0,1020.0,0.0,0.0
2135,62.0,256.0,15.0,0.0,0.0
2136,61.0,0.0,540.0,0.0,0.0
2137,58.0,256.0,270.0,0.0,0.0
2138,62.0,0.0,270.0,0.0,0.0
2139,38.0,0.0,1020.0,0.0,0.0
2140,50.0,20.0,1020.0,0.0,0.0
2141,64.0,236.0,540.0,0.0,0.0
2142,77.0,0.0,1050.0,0.0,0.0
2143,65.0,0.0,1050.0,0.0,0.0
2144,57.0,0.0,510.0,0.0,0.0
2145,62.0,256.0,15.0,0.0,0.0
2146,61.0,0.0,540.0,0.0,0.0
2147,76.0,0.0,2040.0,0.0,0.0
2148,49.0,492.0,540.0,0.0,0.0
2149,57.0,20.0,270.0,0.0,0.0
2150,48.0,236.0,540.0,0.0,0.0
2151,60.0,0.0,540.0,0.0,0.0
2152,57.0,20.0,270.0,0.0,0.0
2153,59.0,236.0,540.0,0.0,0.0
2154,64.0,256.0,270.0,0.0,0.0
2155,47.0,0.0,540.0,0.0,0.0
2156,57.0,0.0,270.0,0.0,0.0
2157,52.0,20.0,15.0,0.0,0.0
2158,49.0,492.0,540.0,0.0,0.0
2159,61.0,0.0,510.0,0.0,0.0
2160,57.0,0.0,270.0,0.0,0.0
2161,68.0,0.0,1020.0,0.0,0.0
2162,40.0,20.0,15.0,0.0,0.0
2163,76.0,0.0,1020.0,0.0,0.0
2164,62.0,0.0,540.0,0.0,0.0
2165,50.0,236.0,540.0,0.0,0.0
2166,59.0,20.0,270.0,0.0,0.0
2167,56.0,256.0,270.0,0.0,0.0
2168,52.0,20.0,510.0,0.0,0.0
2169,64.0,492.0,540.0,0.0,0.0
2170,59.0,0.0,270.0,0.0,0.0
2171,38.0,0.0,750.0,0.0,0.0
2172,50.0,256.0,750.0,0.0,0.0
2173,48.0,0.0,630.0,0.0,0.0
2174,57.0,0.0,630.0,0.0,0.0
2175,54.0,0.0,510.0,0.0,0.0
2176,81.0,171.0,1050.0,0.0,0.0
2177,66.0,0.0,510.0,0.0,0.0
2178,60.0,0.0,270.0,0.0,0.0
2179,62.0,321.0,690.0,0.0,0.0
2180,66.0,256.0,270.0,0.0,0.0
2181,69.0,20.0,270.0,0.0,0.0
2182,82.0,236.0,2070.0,0.0,0.0
2183,55.0,0.0,2040.0,0.0,0.0
2184,46.0,0.0,2040.0,0.0,0.0
2185,67.0,21.0,270.0,0.0,0.0
2186,61.0,235.0,180.0,0.0,0.0
2187,58.0,106.0,270.0,0.0,0.0
2188,64.0,150.0,180.0,0.0,0.0
2189,67.0,256.0,270.0,0.0,0.0
2190,70.0,512.0,270.0,0.0,0.0
2191,58.0,0.0,270.0,0.0,0.0
2192,62.0,256.0,15.0,0.0,0.0
2193,79.0,492.0,1050.0,0.0,0.0
2194,67.0,0.0,1050.0,0.0,0.0
2195,43.0,20.0,15.0,0.0,0.0
2196,31.0,20.0,1020.0,0.0,0.0
2197,55.0,0.0,1020.0,0.0,0.0
2198,62.0,0.0,270.0,0.0,0.0
2199,58.0,256.0,270.0,0.0,0.0
2200,61.0,0.0,510.0,0.0,0.0
2201,62.0,0.0,270.0,0.0,0.0
2202,50.0,0.0,1020.0,0.0,0.0
2203,65.0,492.0,1050.0,0.0,0.0
2204,77.0,0.0,1050.0,0.0,0.0
2205,64.0,256.0,510.0,0.0,0.0
2206,38.0,20.0,1020.0,0.0,0.0
2207,57.0,256.0,270.0,0.0,0.0
2208,62.0,0.0,15.0,0.0,0.0
2209,62.0,0.0,270.0,0.0,0.0
2210,40.0,0.0,2040.0,0.0,0.0
2211,49.0,512.0,1020.0,0.0,0.0
2212,52.0,20.0,2040.0,0.0,0.0
2213,76.0,236.0,2070.0,0.0,0.0
2214,57.0,256.0,270.0,0.0,0.0
2215,61.0,0.0,15.0,0.0,0.0
2216,64.0,0.0,510.0,0.0,0.0
2217,60.0,256.0,15.0,0.0,0.0
2218,57.0,256.0,270.0,0.0,0.0
2219,60.0,0.0,270.0,0.0,0.0
2220,53.0,20.0,1020.0,0.0,0.0
2221,69.0,256.0,270.0,0.0,0.0
2222,63.0,236.0,1050.0,0.0,0.0
2223,75.0,0.0,1050.0,0.0,0.0
2224,41.0,0.0,1020.0,0.0,0.0
2225,60.0,0.0,270.0,0.0,0.0
2226,59.0,0.0,510.0,0.0,0.0
2227,57.0,256.0,270.0,0.0,0.0
2228,60.0,0.0,270.0,0.0,0.0
2229,39.0,0.0,1020.0,0.0,0.0
2230,48.0,0.0,15.0,0.0,0.0
2231,69.0,256.0,270.0,0.0,0.0
2232,66.0,236.0,1050.0,0.0,0.0
2233,78.0,0.0,1050.0,0.0,0.0
2234,51.0,0.0,1020.0,0.0,0.0
2235,60.0,256.0,270.0,0.0,0.0
2236,57.0,256.0,270.0,0.0,0.0
2237,60.0,0.0,15.0,0.0,0.0
2238,52.0,0.0,1020.0,0.0,0.0
2239,76.0,236.0,2070.0,0.0,0.0
2240,49.0,0.0,2040.0,0.0,0.0
2241,40.0,0.0,2040.0,0.0,0.0
2242,69.0,256.0,270.0,0.0,0.0
2243,61.0,256.0,270.0,0.0,0.0
2244,57.0,0.0,270.0,0.0,0.0
2245,61.0,256.0,15.0,0.0,0.0
2246,57.0,0.0,15.0,0.0,0.0
2247,64.0,256.0,270.0,0.0,0.0
2248,61.0,256.0,270.0,0.0,0.0
2249,52.0,20.0,510.0,0.0,0.0
2250,57.0,256.0,270.0,0.0,0.0
2251,61.0,0.0,270.0,0.0,0.0
2252,64.0,0.0,20.0,0.0,0.0
2253,50.0,256.0,510.0,0.0,0.0
2254,40.0,0.0,1020.0,0.0,0.0
2255,68.0,0.0,1020.0,0.0,0.0
2256,59.0,0.0,270.0,0.0,0.0
2257,47.0,853.0,510.0,0.0,0.0
2258,56.0,256.0,270.0,0.0,0.0
2259,59.0,0.0,270.0,0.0,0.0
2260,49.0,0.0,1020.0,0.0,0.0
2261,61.0,1536.0,1020.0,0.0,0.0
2262,69.0,0.0,1020.0,0.0,0.0
2263,57.0,0.0,1020.0,0.0,0.0
2264,33.0,0.0,90.0,0.0,0.0
2265,45.0,86.0,90.0,0.0,0.0
2266,44.0,0.0,90.0,0.0,0.0
2267,32.0,85.0,90.0,0.0,0.0
2268,42.0,0.0,90.0,0.0,0.0
2269,30.0,0.0,90.0,0.0,0.0
2270,28.0,20.0,2040.0,0.0,0.0
2271,49.0,0.0,1530.0,0.0,0.0
2272,57.0,512.0,1530.0,0.0,0.0
2273,52.0,512.0,540.0,0.0,0.0
2274,59.0,0.0,540.0,0.0,0.0
2275,57.0,512.0,540.0,0.0,0.0
2276,61.0,0.0,540.0,0.0,0.0
2277,49.0,0.0,540.0,0.0,0.0
2278,47.0,0.0,540.0,0.0,0.0
2279,64.0,512.0,540.0,0.0,0.0
2280,59.0,0.0,540.0,0.0,0.0
2281,45.0,0.0,540.0,0.0,0.0
2282,69.0,0.0,540.0,0.0,0.0
2283,61.0,492.0,540.0,0.0,0.0
2284,40.0,20.0,510.0,0.0,0.0
2285,71.0,0.0,540.0,0.0,0.0
2286,64.0,0.0,540.0,0.0,0.0
2287,33.0,0.0,1020.0,0.0,0.0
2288,52.0,0.0,2040.0,0.0,0.0
2289,40.0,512.0,20.0,0.0,0.0
2290,73.0,492.0,540.0,0.0,0.0
2291,69.0,0.0,540.0,0.0,0.0
2292,64.0,492.0,540.0,0.0,0.0
2293,71.0,0.0,540.0,0.0,0.0
2294,40.0,20.0,510.0,0.0,0.0
2295,73.0,492.0,540.0,0.0,0.0
2296,69.0,20.0,510.0,0.0,0.0
2297,37.0,492.0,540.0,0.0,0.0
2298,64.0,0.0,540.0,0.0,0.0
2299,69.0,0.0,540.0,0.0,0.0
2300,54.0,0.0,1020.0,0.0,0.0
2301,66.0,492.0,540.0,0.0,0.0
2302,38.0,0.0,1020.0,0.0,0.0
2303,62.0,20.0,510.0,0.0,0.0
2304,59.0,0.0,510.0,0.0,0.0
2305,62.0,0.0,510.0,0.0,0.0
2306,42.0,0.0,510.0,0.0,0.0
2307,61.0,0.0,360.0,0.0,0.0
2308,57.0,0.0,15.0,0.0,0.0
2309,45.0,256.0,15.0,0.0,0.0
2310,33.0,106.0,270.0,0.0,0.0
2311,52.0,0.0,510.0,0.0,0.0
2312,49.0,512.0,510.0,0.0,0.0
2313,45.0,0.0,270.0,0.0,0.0
2314,57.0,0.0,270.0,0.0,0.0
2315,61.0,362.0,270.0,0.0,0.0
2316,58.0,0.0,360.0,0.0,0.0
2317,66.0,150.0,360.0,0.0,0.0
2318,42.0,0.0,360.0,0.0,0.0
2319,30.0,512.0,510.0,0.0,0.0
2320,58.0,0.0,270.0,0.0,0.0
2321,66.0,0.0,270.0,0.0,0.0
2322,42.0,256.0,270.0,0.0,0.0
2323,62.0,0.0,360.0,0.0,0.0
2324,59.0,0.0,360.0,0.0,0.0
2325,47.0,662.0,360.0,0.0,0.0
2326,35.0,106.0,270.0,0.0,0.0
2327,62.0,0.0,270.0,0.0,0.0
2328,47.0,256.0,270.0,0.0,0.0
2329,59.0,0.0,270.0,0.0,0.0
2330,28.0,106.0,270.0,0.0,0.0
2331,56.0,662.0,360.0,0.0,0.0
2332,64.0,0.0,360.0,0.0,0.0
2333,40.0,0.0,360.0,0.0,0.0
2334,64.0,0.0,270.0,0.0,0.0
2335,40.0,512.0,270.0,0.0,0.0
2336,56.0,0.0,270.0,0.0,0.0
2337,57.0,0.0,510.0,0.0,0.0
2338,61.0,0.0,510.0,0.0,0.0
2339,45.0,512.0,510.0,0.0,0.0
2340,33.0,0.0,510.0,0.0,0.0
2341,62.0,0.0,270.0,0.0,0.0
2342,38.0,0.0,270.0,0.0,0.0
2343,59.0,788.0,270.0,0.0,0.0
2344,42.0,0.0,780.0,0.0,0.0
2345,61.0,0.0,780.0,0.0,0.0
2346,54.0,236.0,780.0,0.0,0.0
2347,50.0,0.0,15.0,0.0,0.0
2348,59.0,512.0,15.0,0.0,0.0
2349,47.0,0.0,15.0,0.0,0.0
2350,61.0,0.0,270.0,0.0,0.0
2351,37.0,788.0,270.0,0.0,0.0
2352,57.0,0.0,270.0,0.0,0.0
2353,52.0,0.0,780.0,0.0,0.0
2354,59.0,0.0,780.0,0.0,0.0
2355,40.0,236.0,780.0,0.0,0.0
2356,45.0,0.0,270.0,0.0,0.0
2357,57.0,0.0,270.0,0.0,0.0
2358,49.0,512.0,15.0,0.0,0.0
2359,57.0,341.0,510.0,0.0,0.0
2360,45.0,0.0,510.0,0.0,0.0
2361,49.0,86.0,90.0,0.0,0.0
2362,37.0,0.0,90.0,0.0,0.0
2363,47.0,85.0,90.0,0.0,0.0
2364,35.0,0.0,90.0,0.0,0.0
2365,33.0,0.0,90.0,0.0,0.0
2366,45.0,1536.0,90.0,0.0,0.0
2367,52.0,532.0,1530.0,0.0,0.0
2368,49.0,0.0,1530.0,0.0,0.0
2369,61.0,0.0,1530.0,0.0,0.0
2370,63.0,492.0,540.0,0.0,0.0
2371,56.0,0.0,540.0,0.0,0.0
2372,52.0,20.0,510.0,0.0,0.0
2373,64.0,492.0,540.0,0.0,0.0
2374,61.0,0.0,540.0,0.0,0.0
2375,63.0,0.0,540.0,0.0,0.0
2376,68.0,512.0,540.0,0.0,0.0
2377,51.0,20.0,510.0,0.0,0.0
2378,64.0,0.0,540.0,0.0,0.0
2379,73.0,0.0,540.0,0.0,0.0
2380,49.0,492.0,540.0,0.0,0.0
2381,68.0,492.0,540.0,0.0,0.0
2382,44.0,0.0,510.0,0.0,0.0
2383,75.0,0.0,540.0,0.0,0.0
2384,76.0,0.0,510.0,0.0,0.0
2385,73.0,0.0,510.0,0.0,0.0
2386,52.0,0.0,2040.0,0.0,0.0
2387,40.0,0.0,1020.0,0.0,0.0
2388,32.0,512.0,15.0,0.0,0.0
2389,64.0,0.0,510.0,0.0,0.0
2390,74.0,0.0,510.0,0.0,0.0
2391,76.0,0.0,510.0,0.0,0.0
2392,64.0,0.0,510.0,0.0,0.0
2393,73.0,0.0,510.0,0.0,0.0
2394,76.0,512.0,510.0,0.0,0.0
2395,33.0,20.0,15.0,0.0,0.0
2396,40.0,0.0,1020.0,0.0,0.0
2397,37.0,492.0,540.0,0.0,0.0
2398,73.0,0.0,510.0,0.0,0.0
2399,38.0,0.0,1020.0,0.0,0.0
2400,54.0,0.0,1020.0,0.0,0.0
2401,57.0,0.0,1020.0,0.0,0.0
2402,69.0,20.0,15.0,0.0,0.0
2403,62.0,0.0,510.0,0.0,0.0
2404,66.0,512.0,15.0,0.0,0.0
2405,42.0,0.0,510.0,0.0,0.0
2406,61.0,0.0,360.0,0.0,0.0
2407,64.0,0.0,360.0,0.0,0.0
2408,45.0,256.0,15.0,0.0,0.0
2409,33.0,106.0,270.0,0.0,0.0
2410,52.0,512.0,510.0,0.0,0.0
2411,49.0,0.0,510.0,0.0,0.0
2412,64.0,0.0,270.0,0.0,0.0
2413,45.0,0.0,270.0,0.0,0.0
2414,52.0,362.0,270.0,0.0,0.0
2415,69.0,150.0,360.0,0.0,0.0
2416,54.0,0.0,360.0,0.0,0.0
2417,42.0,0.0,360.0,0.0,0.0
2418,61.0,0.0,15.0,0.0,0.0
2419,30.0,512.0,510.0,0.0,0.0
2420,54.0,0.0,270.0,0.0,0.0
2421,42.0,0.0,270.0,0.0,0.0
2422,69.0,0.0,270.0,0.0,0.0
2423,61.0,256.0,270.0,0.0,0.0
2424,50.0,662.0,360.0,0.0,0.0
2425,47.0,0.0,360.0,0.0,0.0
2426,66.0,0.0,360.0,0.0,0.0
2427,62.0,0.0,360.0,0.0,0.0
2428,35.0,106.0,270.0,0.0,0.0
2429,62.0,256.0,270.0,0.0,0.0
2430,66.0,0.0,270.0,0.0,0.0
2431,47.0,0.0,270.0,0.0,0.0
2432,50.0,0.0,270.0,0.0,0.0
2433,68.0,0.0,360.0,0.0,0.0
2434,40.0,0.0,360.0,0.0,0.0
2435,52.0,0.0,360.0,0.0,0.0
2436,28.0,106.0,270.0,0.0,0.0
2437,59.0,662.0,360.0,0.0,0.0
2438,59.0,0.0,270.0,0.0,0.0
2439,68.0,0.0,270.0,0.0,0.0
2440,40.0,0.0,270.0,0.0,0.0
2441,52.0,512.0,270.0,0.0,0.0
2442,49.0,0.0,510.0,0.0,0.0
2443,61.0,512.0,510.0,0.0,0.0
2444,64.0,0.0,510.0,0.0,0.0
2445,45.0,0.0,510.0,0.0,0.0
2446,33.0,0.0,510.0,0.0,0.0
2447,38.0,788.0,270.0,0.0,0.0
2448,62.0,0.0,270.0,0.0,0.0
2449,66.0,0.0,270.0,0.0,0.0
2450,61.0,0.0,780.0,0.0,0.0
2451,64.0,0.0,780.0,0.0,0.0
2452,42.0,236.0,780.0,0.0,0.0
2453,59.0,0.0,270.0,0.0,0.0
2454,62.0,0.0,270.0,0.0,0.0
2455,47.0,512.0,15.0,0.0,0.0
2456,59.0,512.0,510.0,0.0,0.0
2457,62.0,0.0,510.0,0.0,0.0
2458,64.0,0.0,270.0,0.0,0.0
2459,61.0,0.0,270.0,0.0,0.0
2460,37.0,788.0,270.0,0.0,0.0
2461,59.0,0.0,780.0,0.0,0.0
2462,62.0,0.0,780.0,0.0,0.0
2463,40.0,236.0,780.0,0.0,0.0
2464,61.0,512.0,270.0,0.0,0.0
2465,45.0,0.0,270.0,0.0,0.0
2466,57.0,0.0,270.0,0.0,0.0
2467,57.0,0.0,510.0,0.0,0.0
2468,61.0,0.0,510.0,0.0,0.0
2469,45.0,512.0,510.0,0.0,0.0
2470,74.0,0.0,270.0,0.0,0.0
2471,66.0,788.0,270.0,0.0,0.0
2472,50.0,0.0,270.0,0.0,0.0
2473,64.0,0.0,780.0,0.0,0.0
2474,73.0,236.0,780.0,0.0,0.0
2475,54.0,0.0,780.0,0.0,0.0
2476,62.0,0.0,270.0,0.0,0.0
2477,71.0,0.0,270.0,0.0,0.0
2478,59.0,512.0,270.0,0.0,0.0
2479,62.0,512.0,510.0,0.0,0.0
2480,71.0,0.0,510.0,0.0,0.0
2481,59.0,0.0,510.0,0.0,0.0
2482,64.0,788.0,270.0,0.0,0.0
2483,73.0,0.0,270.0,0.0,0.0
2484,49.0,0.0,270.0,0.0,0.0
2485,62.0,236.0,780.0,0.0,0.0
2486,52.0,0.0,780.0,0.0,0.0
2487,71.0,0.0,780.0,0.0,0.0
2488,69.0,0.0,270.0,0.0,0.0
2489,57.0,0.0,270.0,0.0,0.0
2490,61.0,512.0,15.0,0.0,0.0
2491,69.0,0.0,510.0,0.0,0.0
2492,57.0,532.0,510.0,0.0,0.0
2493,62.0,0.0,540.0,0.0,0.0
2494,66.0,0.0,540.0,0.0,0.0
2495,38.0,512.0,540.0,0.0,0.0
2496,64.0,0.0,540.0,0.0,0.0
2497,61.0,0.0,540.0,0.0,0.0
2498,42.0,372.0,540.0,0.0,0.0
2499,47.0,652.0,390.0,0.0,0.0
2500,62.0,0.0,390.0,0.0,0.0
2501,59.0,0.0,390.0,0.0,0.0
2502,37.0,512.0,540.0,0.0,0.0
2503,64.0,0.0,540.0,0.0,0.0
2504,61.0,0.0,540.0,0.0,0.0
2505,59.0,0.0,540.0,0.0,0.0
2506,62.0,0.0,540.0,0.0,0.0
2507,40.0,372.0,540.0,0.0,0.0
2508,57.0,652.0,390.0,0.0,0.0
2509,61.0,0.0,390.0,0.0,0.0
2510,45.0,0.0,390.0,0.0,0.0
2511,59.0,0.0,540.0,0.0,0.0
2512,62.0,0.0,540.0,0.0,0.0
2513,35.0,512.0,540.0,0.0,0.0
2514,61.0,372.0,540.0,0.0,0.0
2515,38.0,0.0,540.0,0.0,0.0
2516,57.0,0.0,540.0,0.0,0.0
2517,71.0,0.0,540.0,0.0,0.0
2518,74.0,0.0,540.0,0.0,0.0
2519,47.0,512.0,540.0,0.0,0.0
2520,56.0,0.0,390.0,0.0,0.0
2521,59.0,0.0,390.0,0.0,0.0
2522,44.0,140.0,390.0,0.0,0.0
2523,69.0,0.0,540.0,0.0,0.0
2524,73.0,0.0,540.0,0.0,0.0
2525,50.0,372.0,540.0,0.0,0.0
2526,71.0,0.0,390.0,0.0,0.0
2527,56.0,652.0,390.0,0.0,0.0
2528,68.0,0.0,390.0,0.0,0.0
2529,69.0,512.0,540.0,0.0,0.0
2530,73.0,0.0,540.0,0.0,0.0
2531,45.0,0.0,540.0,0.0,0.0
2532,49.0,0.0,540.0,0.0,0.0
2533,71.0,0.0,540.0,0.0,0.0
2534,68.0,372.0,540.0,0.0,0.0
2535,69.0,0.0,390.0,0.0,0.0
2536,66.0,652.0,390.0,0.0,0.0
2537,54.0,0.0,390.0,0.0,0.0
2538,43.0,512.0,540.0,0.0,0.0
2539,67.0,0.0,540.0,0.0,0.0
2540,71.0,0.0,540.0,0.0,0.0
2541,66.0,0.0,540.0,0.0,0.0
2542,69.0,372.0,540.0,0.0,0.0
2543,47.0,0.0,540.0,0.0,0.0
2544,31.0,512.0,540.0,0.0,0.0
2545,59.0,0.0,540.0,0.0,0.0
2546,55.0,0.0,540.0,0.0,0.0
2547,64.0,0.0,390.0,0.0,0.0
2548,52.0,140.0,390.0,0.0,0.0
2549,67.0,0.0,390.0,0.0,0.0
2550,54.0,0.0,540.0,0.0,0.0
2551,57.0,0.0,540.0,0.0,0.0
2552,35.0,372.0,540.0,0.0,0.0
2553,55.0,0.0,390.0,0.0,0.0
2554,52.0,652.0,390.0,0.0,0.0
2555,40.0,0.0,390.0,0.0,0.0
2556,54.0,0.0,540.0,0.0,0.0
2557,57.0,512.0,540.0,0.0,0.0
2558,30.0,0.0,540.0,0.0,0.0
2559,55.0,0.0,540.0,0.0,0.0
2560,52.0,0.0,540.0,0.0,0.0
2561,33.0,372.0,540.0,0.0,0.0
2562,54.0,0.0,390.0,0.0,0.0
2563,50.0,0.0,390.0,0.0,0.0
2564,38.0,652.0,390.0,0.0,0.0
2565,53.0,512.0,540.0,0.0,0.0
2566,57.0,0.0,540.0,0.0,0.0
2567,29.0,0.0,540.0,0.0,0.0
2568,33.0,0.0,540.0,0.0,0.0
2569,55.0,0.0,540.0,0.0,0.0
2570,52.0,372.0,540.0,0.0,0.0
2571,41.0,0.0,540.0,0.0,0.0
2572,53.0,0.0,540.0,0.0,0.0
2573,29.0,492.0,540.0,0.0,0.0
2574,81.0,20.0,510.0,0.0,0.0
2575,77.0,0.0,540.0,0.0,0.0
2576,69.0,0.0,540.0,0.0,0.0
2577,38.0,120.0,390.0,0.0,0.0
2578,50.0,0.0,540.0,0.0,0.0
2579,64.0,0.0,540.0,0.0,0.0
2580,67.0,372.0,540.0,0.0,0.0
2581,45.0,0.0,540.0,0.0,0.0
2582,33.0,0.0,540.0,0.0,0.0
2583,76.0,0.0,540.0,0.0,0.0
2584,79.0,20.0,510.0,0.0,0.0
2585,74.0,120.0,390.0,0.0,0.0
2586,62.0,0.0,390.0,0.0,0.0
2587,65.0,0.0,390.0,0.0,0.0
2588,77.0,512.0,510.0,0.0,0.0
2589,50.0,0.0,390.0,0.0,0.0
2590,38.0,0.0,390.0,0.0,0.0
2591,40.0,512.0,540.0,0.0,0.0
2592,69.0,0.0,540.0,0.0,0.0
2593,61.0,0.0,540.0,0.0,0.0
2594,73.0,0.0,540.0,0.0,0.0
2595,81.0,20.0,510.0,0.0,0.0
2596,28.0,0.0,540.0,0.0,0.0
2597,33.0,372.0,540.0,0.0,0.0
2598,77.0,0.0,540.0,0.0,0.0
2599,74.0,0.0,540.0,0.0,0.0
2600,45.0,0.0,540.0,0.0,0.0
2601,65.0,0.0,540.0,0.0,0.0
2602,62.0,0.0,540.0,0.0,0.0
2603,73.0,0.0,390.0,0.0,0.0
2604,37.0,0.0,390.0,0.0,0.0
2605,49.0,512.0,540.0,0.0,0.0
2606,64.0,0.0,390.0,0.0,0.0
2607,61.0,140.0,390.0,0.0,0.0
2608,76.0,0.0,390.0,0.0,0.0
2609,27.0,492.0,540.0,0.0,0.0
2610,81.0,0.0,540.0,0.0,0.0
2611,72.0,0.0,1050.0,0.0,0.0
2612,60.0,0.0,1020.0,0.0,0.0
2613,39.0,0.0,540.0,0.0,0.0
2614,64.0,20.0,510.0,0.0,0.0
2615,45.0,0.0,540.0,0.0,0.0
2616,33.0,0.0,540.0,0.0,0.0
2617,76.0,0.0,510.0,0.0,0.0
2618,69.0,372.0,20.0,0.0,0.0
2619,75.0,0.0,390.0,0.0,0.0
2620,36.0,0.0,390.0,0.0,0.0
2621,57.0,0.0,15.0,0.0,0.0
2622,63.0,1024.0,510.0,0.0,0.0
2623,48.0,0.0,510.0,0.0,0.0
2624,39.0,1024.0,1020.0,0.0,0.0
2625,54.0,0.0,2040.0,0.0,0.0
2626,69.0,0.0,3060.0,0.0,0.0
2627,57.0,0.0,3060.0,0.0,0.0
2628,81.0,0.0,1020.0,0.0,0.0
2629,72.0,0.0,1020.0,0.0,0.0
2630,64.0,0.0,1020.0,0.0,0.0
2631,72.0,0.0,1020.0,0.0,0.0
2632,76.0,0.0,1020.0,0.0,0.0
2633,45.0,0.0,1020.0,0.0,0.0
2634,48.0,0.0,1020.0,0.0,0.0
2635,75.0,0.0,1020.0,0.0,0.0
2636,42.0,0.0,15.0,0.0,0.0
2637,30.0,0.0,1020.0,0.0,0.0
2638,60.0,1024.0,15.0,0.0,0.0
2639,63.0,0.0,1020.0,0.0,0.0
2640,61.0,0.0,2040.0,0.0,0.0
2641,52.0,0.0,2040.0,0.0,0.0
2642,49.0,0.0,2040.0,0.0,0.0
2643,45.0,0.0,2040.0,0.0,0.0
2644,76.0,1024.0,1020.0,0.0,0.0
2645,40.0,0.0,2040.0,0.0,0.0
2646,69.0,0.0,1020.0,0.0,0.0
2647,64.0,0.0,15.0,0.0,0.0
2648,68.0,0.0,1020.0,0.0,0.0
2649,40.0,1024.0,15.0,0.0,0.0
2650,28.0,0.0,15.0,0.0,0.0
2651,50.0,0.0,1020.0,0.0,0.0
2652,52.0,0.0,1020.0,0.0,0.0
2653,59.0,0.0,1020.0,0.0,0.0
2654,47.0,0.0,1020.0,0.0,0.0
2655,40.0,0.0,1020.0,0.0,0.0
2656,60.0,0.0,2040.0,0.0,0.0
2657,69.0,1024.0,1020.0,0.0,0.0
2658,39.0,0.0,1020.0,0.0,0.0
2659,42.0,0.0,2040.0,0.0,0.0
2660,45.0,0.0,1020.0,0.0,0.0
2661,64.0,0.0,1020.0,0.0,0.0
2662,54.0,0.0,15.0,0.0,0.0
2663,63.0,0.0,1020.0,0.0,0.0
2664,30.0,2048.0,1020.0,0.0,0.0
2665,42.0,0.0,1020.0,0.0,0.0
2666,48.0,0.0,1020.0,0.0,0.0
2667,57.0,1024.0,15.0,0.0,0.0
2668,45.0,0.0,2040.0,0.0,0.0
2669,52.0,0.0,2040.0,0.0,0.0
2670,64.0,1024.0,1020.0,0.0,0.0
2671,28.0,0.0,2040.0,0.0,0.0
2672,40.0,0.0,2040.0,0.0,0.0
2673,49.0,0.0,2040.0,0.0,0.0
2674,57.0,0.0,1020.0,0.0,0.0
2675,50.0,0.0,1020.0,0.0,0.0
2676,40.0,0.0,15.0,0.0,0.0
2677,28.0,0.0,1020.0,0.0,0.0
2678,47.0,0.0,1020.0,0.0,0.0
2679,40.0,0.0,1020.0,0.0,0.0
2680,56.0,0.0,1020.0,0.0,0.0
2681,52.0,0.0,1020.0,0.0,0.0
2682,57.0,2048.0,1020.0,0.0,0.0
2683,33.0,0.0,1020.0,0.0,0.0
2684,45.0,0.0,1020.0,0.0,0.0
2685,49.0,0.0,1020.0,0.0,0.0
2686,52.0,0.0,1020.0,0.0,0.0
2687,57.0,0.0,1020.0,0.0,0.0
2688,52.0,0.0,1020.0,0.0,0.0
2689,49.0,0.0,1020.0,0.0,0.0
2690,33.0,2048.0,1020.0,0.0,0.0
2691,33.0,0.0,1020.0,0.0,0.0
2692,49.0,0.0,1020.0,0.0,0.0
2693,57.0,1024.0,1020.0,0.0,0.0
2694,64.0,1024.0,2040.0,0.0,0.0
2695,52.0,0.0,2040.0,0.0,0.0
2696,66.0,0.0,1020.0,0.0,0.0
2697,54.0,1536.0,1020.0,0.0,0.0
2698,55.0,512.0,1530.0,0.0,0.0
2699,67.0,0.0,1530.0,0.0,0.0
2700,52.0,0.0,1020.0,0.0,0.0
2701,49.0,0.0,1020.0,0.0,0.0
2702,33.0,2048.0,1020.0,0.0,0.0
2703,49.0,0.0,1020.0,0.0,0.0
2704,52.0,0.0,1020.0,0.0,0.0
2705,33.0,2048.0,1020.0,0.0,0.0
2706,55.0,0.0,2040.0,0.0,0.0
2707,33.0,0.0,1020.0,0.0,0.0
2708,52.0,0.0,1020.0,0.0,0.0
2709,49.0,1024.0,1020.0,0.0,0.0
2710,67.0,1024.0,2040.0,0.0,0.0
2711,69.0,1536.0,1020.0,0.0,0.0
2712,57.0,0.0,1020.0,0.0,0.0
2713,58.0,0.0,1530.0,0.0,0.0
2714,70.0,512.0,1530.0,0.0,0.0
2715,49.0,0.0,1020.0,0.0,0.0
2716,31.0,2048.0,1020.0,0.0,0.0
2717,52.0,0.0,1020.0,0.0,0.0
2718,31.0,0.0,1020.0,0.0,0.0
2719,49.0,0.0,1020.0,0.0,0.0
2720,52.0,2048.0,1020.0,0.0,0.0
2721,52.0,0.0,1020.0,0.0,0.0
2722,31.0,0.0,1020.0,0.0,0.0
2723,49.0,1044.0,1020.0,0.0,0.0
2724,70.0,1024.0,2070.0,0.0,0.0
2725,58.0,0.0,2070.0,0.0,0.0
2726,59.0,0.0,1050.0,0.0,0.0
2727,71.0,1536.0,1050.0,0.0,0.0
2728,73.0,0.0,1560.0,0.0,0.0
2729,61.0,492.0,1560.0,0.0,0.0
2730,43.0,512.0,2070.0,0.0,0.0
2731,46.0,0.0,2070.0,0.0,0.0
2732,27.0,0.0,1020.0,0.0,0.0
2733,39.0,20.0,1020.0,0.0,0.0
2734,63.0,0.0,540.0,0.0,0.0
2735,75.0,512.0,540.0,0.0,0.0
2736,76.0,0.0,540.0,0.0,0.0
2737,64.0,512.0,540.0,0.0,0.0
2738,61.0,0.0,540.0,0.0,0.0
2739,73.0,0.0,540.0,0.0,0.0
2740,71.0,0.0,540.0,0.0,0.0
2741,59.0,492.0,540.0,0.0,0.0
2742,44.0,1004.0,1050.0,0.0,0.0
2743,39.0,0.0,1020.0,0.0,0.0
2744,27.0,20.0,1020.0,0.0,0.0
2745,47.0,0.0,1050.0,0.0,0.0
2746,63.0,0.0,540.0,0.0,0.0
2747,75.0,0.0,540.0,0.0,0.0
2748,58.0,0.0,1560.0,0.0,0.0
2749,70.0,492.0,1560.0,0.0,0.0
2750,46.0,532.0,15.0,0.0,0.0
2751,39.0,20.0,1020.0,0.0,0.0
2752,27.0,0.0,1020.0,0.0,0.0
2753,49.0,0.0,15.0,0.0,0.0
2754,71.0,512.0,540.0,0.0,0.0
2755,59.0,0.0,540.0,0.0,0.0
2756,61.0,512.0,540.0,0.0,0.0
2757,73.0,0.0,540.0,0.0,0.0
2758,70.0,0.0,540.0,0.0,0.0
2759,58.0,512.0,540.0,0.0,0.0
2760,27.0,20.0,1020.0,0.0,0.0
2761,39.0,0.0,1020.0,0.0,0.0
2762,68.0,0.0,540.0,0.0,0.0
2763,56.0,492.0,540.0,0.0,0.0
2764,47.0,0.0,1050.0,0.0,0.0
2765,51.0,1004.0,1050.0,0.0,0.0
2766,71.0,0.0,540.0,0.0,0.0
2767,59.0,0.0,540.0,0.0,0.0
2768,49.0,0.0,1020.0,0.0,0.0
2769,55.0,492.0,1560.0,0.0,0.0
2770,67.0,0.0,1560.0,0.0,0.0
2771,52.0,532.0,15.0,0.0,0.0
2772,64.0,0.0,2070.0,0.0,0.0
2773,49.0,0.0,2070.0,0.0,0.0
2774,39.0,20.0,1020.0,0.0,0.0
2775,68.0,0.0,540.0,0.0,0.0
2776,56.0,512.0,540.0,0.0,0.0
2777,58.0,512.0,540.0,0.0,0.0
2778,70.0,0.0,540.0,0.0,0.0
2779,71.0,0.0,540.0,0.0,0.0
2780,61.0,0.0,20.0,0.0,0.0
2781,59.0,512.0,20.0,0.0,0.0
2782,73.0,492.0,540.0,0.0,0.0
2783,51.0,0.0,1050.0,0.0,0.0
2784,39.0,20.0,1020.0,0.0,0.0
2785,47.0,0.0,1050.0,0.0,0.0
2786,75.0,0.0,540.0,0.0,0.0
2787,63.0,0.0,540.0,0.0,0.0
2788,64.0,0.0,1560.0,0.0,0.0
2789,76.0,492.0,1560.0,0.0,0.0
2790,46.0,0.0,15.0,0.0,0.0
2791,61.0,0.0,15.0,0.0,0.0
2792,58.0,532.0,15.0,0.0,0.0
2793,49.0,0.0,15.0,0.0,0.0
2794,39.0,20.0,1020.0,0.0,0.0
2795,78.0,0.0,540.0,0.0,0.0
2796,66.0,512.0,540.0,0.0,0.0
2797,68.0,0.0,540.0,0.0,0.0
2798,80.0,512.0,540.0,0.0,0.0
2799,82.0,0.0,540.0,0.0,0.0
2800,70.0,0.0,540.0,0.0,0.0
2801,83.0,492.0,540.0,0.0,0.0
2802,71.0,0.0,540.0,0.0,0.0
2803,56.0,0.0,1050.0,0.0,0.0
2804,47.0,0.0,1050.0,0.0,0.0
2805,39.0,20.0,1020.0,0.0,0.0
2806,59.0,0.0,1050.0,0.0,0.0
2807,44.0,1004.0,1050.0,0.0,0.0
2808,73.0,0.0,540.0,0.0,0.0
2809,85.0,0.0,540.0,0.0,0.0
2810,82.0,0.0,8190.0,0.0,0.0
2811,87.0,0.0,8190.0,0.0,0.0
2812,70.0,0.0,8190.0,0.0,0.0
2813,55.0,0.0,1020.0,0.0,0.0
2814,58.0,0.0,1020.0,0.0,0.0
2815,46.0,0.0,1020.0,0.0,0.0
2816,43.0,1024.0,1020.0,0.0,0.0
2817,58.0,0.0,2040.0,0.0,0.0
2818,39.0,1024.0,1020.0,0.0,0.0
2819,55.0,0.0,15.0,0.0,0.0
2820,51.0,1024.0,15.0,0.0,0.0
2821,39.0,0.0,1020.0,0.0,0.0
2822,58.0,2048.0,1020.0,0.0,0.0
2823,39.0,1024.0,2040.0,0.0,0.0
2824,55.0,0.0,1020.0,0.0,0.0
2825,58.0,0.0,1020.0,0.0,0.0
2826,51.0,1024.0,1020.0,0.0,0.0
2827,27.0,0.0,2040.0,0.0,0.0
2828,26.0,1024.0,1020.0,0.0,0.0
2829,38.0,0.0,1020.0,0.0,0.0
2830,67.0,0.0,15.0,0.0,0.0
2831,63.0,0.0,15.0,0.0,0.0
2832,84.0,0.0,8190.0,0.0,0.0
2833,79.0,0.0,15.0,0.0,0.0
2834,75.0,0.0,15.0,0.0,0.0
2835,36.0,0.0,1020.0,0.0,0.0
2836,24.0,1024.0,1020.0,0.0,0.0
2837,51.0,2048.0,1020.0,0.0,0.0
2838,55.0,0.0,1020.0,0.0,0.0
2839,60.0,0.0,1020.0,0.0,0.0
2840,48.0,0.0,1020.0,0.0,0.0
2841,51.0,0.0,1020.0,0.0,0.0
2842,55.0,0.0,1020.0,0.0,0.0
2843,60.0,0.0,1020.0,0.0,0.0
2844,48.0,2048.0,1020.0,0.0,0.0
2845,36.0,0.0,2040.0,0.0,0.0
2846,60.0,1024.0,1020.0,0.0,0.0
2847,55.0,0.0,1020.0,0.0,0.0
2848,51.0,0.0,1020.0,0.0,0.0
2849,24.0,1024.0,2040.0,0.0,0.0
2850,22.0,1024.0,1020.0,0.0,0.0
2851,34.0,0.0,1020.0,0.0,0.0
2852,75.0,0.0,15.0,0.0,0.0
2853,72.0,0.0,15.0,0.0,0.0
2854,87.0,0.0,15.0,0.0,0.0
2855,84.0,0.0,1560.0,0.0,0.0
2856,33.0,532.0,1020.0,0.0,0.0
2857,21.0,0.0,1020.0,0.0,0.0
2858,60.0,20.0,2040.0,0.0,0.0
2859,48.0,0.0,2040.0,0.0,0.0
2860,33.0,0.0,2040.0,0.0,0.0
2861,21.0,0.0,2040.0,0.0,0.0
2862,86.0,0.0,540.0,0.0,0.0
2863,82.0,0.0,540.0,0.0,0.0
2864,74.0,0.0,540.0,0.0,0.0
2865,70.0,492.0,540.0,0.0,0.0
2866,87.0,0.0,540.0,0.0,0.0
2867,75.0,492.0,540.0,0.0,0.0
2868,81.0,0.0,540.0,0.0,0.0
2869,84.0,20.0,15.0,0.0,0.0
2870,69.0,0.0,540.0,0.0,0.0
2871,72.0,0.0,15.0,0.0,0.0
2872,62.0,0.0,1020.0,0.0,0.0
2873,50.0,0.0,1020.0,0.0,0.0
2874,79.0,0.0,540.0,0.0,0.0
2875,67.0,492.0,540.0,0.0,0.0
2876,34.0,20.0,1020.0,0.0,0.0
2877,22.0,0.0,1020.0,0.0,0.0
2878,70.0,0.0,15.0,0.0,0.0
2879,74.0,0.0,540.0,0.0,0.0
2880,82.0,20.0,15.0,0.0,0.0
2881,86.0,0.0,540.0,0.0,0.0
2882,24.0,0.0,1020.0,0.0,0.0
2883,36.0,532.0,1020.0,0.0,0.0
2884,51.0,0.0,1020.0,0.0,0.0
2885,78.0,0.0,1560.0,0.0,0.0
2886,81.0,0.0,1560.0,0.0,0.0
2887,66.0,0.0,1560.0,0.0,0.0
2888,69.0,512.0,1560.0,0.0,0.0
2889,63.0,0.0,1020.0,0.0,0.0
2890,51.0,0.0,2040.0,0.0,0.0
2891,63.0,0.0,2040.0,0.0,0.0
2892,24.0,0.0,2040.0,0.0,0.0
2893,36.0,20.0,2040.0,0.0,0.0
2894,82.0,0.0,540.0,0.0,0.0
2895,67.0,0.0,540.0,0.0,0.0
2896,70.0,0.0,540.0,0.0,0.0
2897,79.0,492.0,540.0,0.0,0.0
2898,84.0,0.0,540.0,0.0,0.0
2899,81.0,20.0,510.0,0.0,0.0
2900,72.0,492.0,540.0,0.0,0.0
2901,69.0,0.0,510.0,0.0,0.0
2902,78.0,0.0,540.0,0.0,0.0
2903,81.0,0.0,540.0,0.0,0.0
2904,66.0,0.0,540.0,0.0,0.0
2905,69.0,492.0,540.0,0.0,0.0
2906,76.0,492.0,540.0,0.0,0.0
2907,67.0,0.0,510.0,0.0,0.0
2908,52.0,0.0,1020.0,0.0,0.0
2909,25.0,0.0,1020.0,0.0,0.0
2910,37.0,20.0,1020.0,0.0,0.0
2911,64.0,0.0,540.0,0.0,0.0
2912,79.0,20.0,15.0,0.0,0.0
2913,70.0,1004.0,540.0,0.0,0.0
2914,67.0,0.0,540.0,0.0,0.0
2915,82.0,0.0,540.0,0.0,0.0
2916,26.0,532.0,1020.0,0.0,0.0
2917,66.0,0.0,1560.0,0.0,0.0
2918,54.0,0.0,1020.0,0.0,0.0
2919,74.0,492.0,1560.0,0.0,0.0
2920,38.0,0.0,1020.0,0.0,0.0
2921,62.0,0.0,1560.0,0.0,0.0
2922,78.0,0.0,1560.0,0.0,0.0
2923,63.0,0.0,2040.0,0.0,0.0
2924,75.0,0.0,2040.0,0.0,0.0
2925,60.0,0.0,2040.0,0.0,0.0
2926,50.0,20.0,1020.0,0.0,0.0
2927,79.0,0.0,540.0,0.0,0.0
2928,67.0,512.0,540.0,0.0,0.0
2929,81.0,492.0,540.0,0.0,0.0
2930,69.0,0.0,540.0,0.0,0.0
2931,82.0,0.0,540.0,0.0,0.0
2932,84.0,0.0,540.0,0.0,0.0
2933,72.0,20.0,15.0,0.0,0.0
2934,62.0,0.0,510.0,0.0,0.0
2935,70.0,492.0,20.0,0.0,0.0
2936,50.0,0.0,1020.0,0.0,0.0
2937,58.0,20.0,1020.0,0.0,0.0
2938,86.0,1004.0,540.0,0.0,0.0
2939,74.0,0.0,15.0,0.0,0.0
2940,75.0,0.0,1560.0,0.0,0.0
2941,60.0,0.0,1020.0,0.0,0.0
2942,69.0,0.0,1020.0,0.0,0.0
2943,63.0,492.0,1560.0,0.0,0.0
2944,72.0,532.0,1020.0,0.0,0.0
2945,57.0,0.0,1020.0,0.0,0.0
2946,50.0,20.0,1020.0,0.0,0.0
2947,38.0,0.0,1020.0,0.0,0.0
2948,60.0,20.0,2040.0,0.0,0.0
2949,72.0,0.0,2040.0,0.0,0.0
2950,77.0,0.0,540.0,0.0,0.0
2951,65.0,512.0,540.0,0.0,0.0
2952,79.0,492.0,540.0,0.0,0.0
2953,67.0,0.0,540.0,0.0,0.0
2954,81.0,0.0,540.0,0.0,0.0
2955,69.0,0.0,510.0,0.0,0.0
2956,82.0,0.0,540.0,0.0,0.0
2957,50.0,0.0,1020.0,0.0,0.0
2958,38.0,0.0,1020.0,0.0,0.0
2959,70.0,492.0,540.0,0.0,0.0
2960,67.0,0.0,1020.0,0.0,0.0
2961,58.0,20.0,1020.0,0.0,0.0
2962,84.0,0.0,540.0,0.0,0.0
2963,72.0,1004.0,540.0,0.0,0.0
2964,66.0,0.0,1020.0,0.0,0.0
2965,74.0,0.0,9210.0,0.0,0.0
2966,69.0,0.0,15.0,0.0,0.0
2967,66.0,2048.0,1020.0,0.0,0.0
2968,57.0,1024.0,15.0,0.0,0.0
2969,54.0,0.0,1020.0,0.0,0.0
2970,50.0,0.0,1020.0,0.0,0.0
2971,57.0,0.0,1020.0,0.0,0.0
2972,50.0,2048.0,1020.0,0.0,0.0
2973,66.0,0.0,1020.0,0.0,0.0
2974,69.0,0.0,1020.0,0.0,0.0
2975,54.0,0.0,1020.0,0.0,0.0
2976,57.0,0.0,1020.0,0.0,0.0
2977,66.0,1024.0,1020.0,0.0,0.0
2978,69.0,0.0,1020.0,0.0,0.0
2979,38.0,0.0,2040.0,0.0,0.0
2980,50.0,1024.0,2040.0,0.0,0.0
2981,37.0,0.0,1020.0,0.0,0.0
2982,49.0,1024.0,1020.0,0.0,0.0
2983,47.0,1024.0,1020.0,0.0,0.0
2984,35.0,0.0,1020.0,0.0,0.0
2985,71.0,0.0,2040.0,0.0,0.0
2986,62.0,0.0,15.0,0.0,0.0
2987,54.0,1024.0,1020.0,0.0,0.0
2988,50.0,0.0,1020.0,0.0,0.0
2989,74.0,0.0,2040.0,0.0,0.0
2990,59.0,0.0,15.0,0.0,0.0
2991,54.0,0.0,1020.0,0.0,0.0
2992,50.0,0.0,1020.0,0.0,0.0
2993,64.0,0.0,1020.0,0.0,0.0
2994,73.0,0.0,1020.0,0.0,0.0
2995,76.0,0.0,1020.0,0.0,0.0
2996,61.0,0.0,1020.0,0.0,0.0
2997,66.0,0.0,1020.0,0.0,0.0
2998,74.0,1024.0,1020.0,0.0,0.0
2999,78.0,0.0,1020.0,0.0,0.0
3000,62.0,0.0,1020.0,0.0,0.0
3001,35.0,0.0,2040.0,0.0,0.0
3002,47.0,1024.0,2040.0,0.0,0.0
3003,59.0,1024.0,1020.0,0.0,0.0
3004,54.0,0.0,1020.0,0.0,0.0
3005,50.0,0.0,1020.0,0.0,0.0
3006,54.0,0.0,1020.0,0.0,0.0
3007,33.0,1024.0,1020.0,0.0,0.0
3008,59.0,0.0,1020.0,0.0,0.0
3009,50.0,0.0,1020.0,0.0,0.0
3010,45.0,0.0,1020.0,0.0,0.0
3011,44.0,0.0,1020.0,0.0,0.0
3012,32.0,1024.0,1020.0,0.0,0.0
3013,59.0,0.0,1020.0,0.0,0.0
3014,54.0,0.0,1020.0,0.0,0.0
3015,78.0,0.0,2040.0,0.0,0.0
3016,74.0,0.0,2040.0,0.0,0.0
3017,62.0,0.0,2040.0,0.0,0.0
3018,66.0,1024.0,2040.0,0.0,0.0
3019,50.0,1024.0,1020.0,0.0,0.0
3020,71.0,0.0,1020.0,0.0,0.0
3021,74.0,1024.0,1020.0,0.0,0.0
3022,83.0,0.0,1020.0,0.0,0.0
3023,62.0,0.0,1020.0,0.0,0.0
3024,50.0,0.0,1020.0,0.0,0.0
3025,54.0,0.0,1020.0,0.0,0.0
3026,59.0,0.0,1020.0,0.0,0.0
3027,65.0,0.0,1020.0,0.0,0.0
3028,77.0,0.0,1020.0,0.0,0.0
3029,73.0,1024.0,1020.0,0.0,0.0
3030,61.0,0.0,1020.0,0.0,0.0
3031,53.0,1024.0,1020.0,0.0,0.0
3032,56.0,0.0,1020.0,0.0,0.0
3033,37.0,1024.0,2040.0,0.0,0.0
3034,49.0,0.0,2040.0,0.0,0.0
3035,59.0,0.0,1020.0,0.0,0.0
3036,35.0,0.0,1020.0,0.0,0.0
3037,61.0,0.0,1020.0,0.0,0.0
3038,56.0,0.0,1020.0,0.0,0.0
3039,53.0,0.0,1020.0,0.0,0.0
3040,47.0,1024.0,1020.0,0.0,0.0
3041,45.0,0.0,1020.0,0.0,0.0
3042,33.0,1024.0,1020.0,0.0,0.0
3043,66.0,0.0,2040.0,0.0,0.0
3044,78.0,1024.0,2040.0,0.0,0.0
3045,73.0,0.0,2040.0,0.0,0.0
3046,57.0,1024.0,1020.0,0.0,0.0
3047,54.0,0.0,1020.0,0.0,0.0
3048,49.0,0.0,1020.0,0.0,0.0
3049,56.0,0.0,1020.0,0.0,0.0
3050,61.0,0.0,15.0,0.0,0.0
3051,77.0,0.0,1020.0,0.0,0.0
3052,80.0,0.0,1020.0,0.0,0.0
3053,65.0,0.0,1020.0,0.0,0.0
3054,68.0,1024.0,1020.0,0.0,0.0
3055,78.0,0.0,1020.0,0.0,0.0
3056,69.0,1024.0,1020.0,0.0,0.0
3057,66.0,0.0,1020.0,0.0,0.0
3058,81.0,0.0,1020.0,0.0,0.0
3059,50.0,1024.0,2040.0,0.0,0.0
3060,38.0,0.0,2040.0,0.0,0.0
3061,57.0,1024.0,1020.0,0.0,0.0
3062,54.0,0.0,1020.0,0.0,0.0
3063,62.0,0.0,1020.0,0.0,0.0
3064,37.0,0.0,1020.0,0.0,0.0
3065,49.0,1024.0,1020.0,0.0,0.0
3066,57.0,0.0,1020.0,0.0,0.0
3067,54.0,0.0,1020.0,0.0,0.0
3068,35.0,0.0,1020.0,0.0,0.0
3069,47.0,1024.0,1020.0,0.0,0.0
3070,62.0,0.0,1020.0,0.0,0.0
3071,54.0,1024.0,1020.0,0.0,0.0
3072,69.0,0.0,2040.0,0.0,0.0
3073,81.0,0.0,2040.0,0.0,0.0
3074,78.0,1024.0,2040.0,0.0,0.0
3075,57.0,0.0,1020.0,0.0,0.0
3076,62.0,0.0,1020.0,0.0,0.0
3077,74.0,0.0,1020.0,0.0,0.0
3078,66.0,0.0,15.0,0.0,0.0
3079,57.0,0.0,1020.0,0.0,0.0
3080,86.0,0.0,1020.0,0.0,0.0
3081,78.0,0.0,1020.0,0.0,0.0
3082,54.0,1024.0,1020.0,0.0,0.0
3083,64.0,0.0,1020.0,0.0,0.0
3084,68.0,1024.0,1020.0,0.0,0.0
3085,76.0,0.0,1020.0,0.0,0.0
3086,80.0,0.0,1020.0,0.0,0.0
3087,40.0,1024.0,2040.0,0.0,0.0
3088,52.0,0.0,2040.0,0.0,0.0
3089,62.0,0.0,1020.0,0.0,0.0
3090,59.0,0.0,1020.0,0.0,0.0
3091,56.0,1024.0,1020.0,0.0,0.0
3092,56.0,0.0,1020.0,0.0,0.0
3093,38.0,0.0,1020.0,0.0,0.0
3094,62.0,0.0,1020.0,0.0,0.0
3095,59.0,0.0,1020.0,0.0,0.0
3096,50.0,1024.0,1020.0,0.0,0.0
3097,49.0,0.0,1020.0,0.0,0.0
3098,37.0,1024.0,1020.0,0.0,0.0
3099,69.0,0.0,2040.0,0.0,0.0
3100,61.0,1024.0,1020.0,0.0,0.0
3101,81.0,0.0,2040.0,0.0,0.0
3102,76.0,0.0,2040.0,0.0,0.0
3103,64.0,0.0,1020.0,0.0,0.0
3104,57.0,0.0,1020.0,0.0,0.0
3105,80.0,0.0,1020.0,0.0,0.0
3106,83.0,0.0,1020.0,0.0,0.0
3107,68.0,0.0,1020.0,0.0,0.0
3108,64.0,1024.0,15.0,0.0,0.0
3109,52.0,0.0,1020.0,0.0,0.0
3110,71.0,1024.0,1020.0,0.0,0.0
3111,85.0,0.0,1020.0,0.0,0.0
3112,69.0,0.0,1020.0,0.0,0.0
3113,73.0,0.0,1020.0,0.0,0.0
3114,81.0,2048.0,15.0,0.0,0.0
3115,74.0,1004.0,2070.0,0.0,0.0
3116,54.0,0.0,2040.0,0.0,0.0
3117,62.0,20.0,2040.0,0.0,0.0
3118,86.0,0.0,2070.0,0.0,0.0
3119,57.0,0.0,2040.0,0.0,0.0
3120,30.0,0.0,2070.0,0.0,0.0
3121,42.0,0.0,2070.0,0.0,0.0
3122,45.0,0.0,15.0,0.0,0.0
3123,52.0,0.0,1020.0,0.0,0.0
3124,28.0,0.0,1050.0,0.0,0.0
3125,40.0,0.0,1050.0,0.0,0.0
3126,61.0,0.0,1020.0,0.0,0.0
3127,76.0,0.0,1050.0,0.0,0.0
3128,85.0,2028.0,1050.0,0.0,0.0
3129,88.0,0.0,1050.0,0.0,0.0
3130,57.0,0.0,15.0,0.0,0.0
3131,64.0,20.0,1020.0,0.0,0.0
3132,45.0,0.0,2040.0,0.0,0.0
3133,50.0,0.0,2040.0,0.0,0.0
3134,57.0,0.0,15.0,0.0,0.0
3135,26.0,0.0,2040.0,0.0,0.0
3136,38.0,0.0,2040.0,0.0,0.0
3137,78.0,0.0,4110.0,0.0,0.0
3138,81.0,2048.0,2040.0,0.0,0.0
3139,90.0,0.0,4110.0,0.0,0.0
3140,66.0,0.0,4110.0,0.0,0.0
3141,62.0,0.0,2040.0,0.0,0.0
3142,35.0,0.0,2040.0,0.0,0.0
3143,23.0,0.0,2040.0,0.0,0.0
3144,50.0,0.0,2040.0,0.0,0.0
3145,71.0,2048.0,2040.0,0.0,0.0
3146,83.0,0.0,2040.0,0.0,0.0
3147,54.0,0.0,15.0,0.0,0.0
3148,37.0,1536.0,2040.0,0.0,0.0
3149,25.0,0.0,2040.0,0.0,0.0
3150,57.0,0.0,2040.0,0.0,0.0
3151,49.0,0.0,4110.0,0.0,0.0
3152,69.0,0.0,2040.0,0.0,0.0
3153,66.0,0.0,2040.0,0.0,0.0
3154,85.0,0.0,4110.0,0.0,0.0
3155,81.0,0.0,2040.0,0.0,0.0
3156,73.0,0.0,4110.0,0.0,0.0
3157,80.0,0.0,2040.0,0.0,0.0
3158,61.0,0.0,15.0,0.0,0.0
3159,65.0,0.0,2040.0,0.0,0.0
3160,68.0,0.0,2040.0,0.0,0.0
3161,53.0,0.0,2040.0,0.0,0.0
3162,56.0,0.0,2040.0,0.0,0.0
3163,37.0,0.0,15.0,0.0,0.0
3164,25.0,512.0,15.0,0.0,0.0
3165,30.0,0.0,1020.0,0.0,0.0
3166,42.0,0.0,1020.0,0.0,0.0
3167,78.0,20.0,1020.0,0.0,0.0
3168,66.0,0.0,1020.0,0.0,0.0
3169,49.0,1004.0,540.0,0.0,0.0
3170,54.0,0.0,15.0,0.0,0.0
3171,32.0,1004.0,540.0,0.0,0.0
3172,44.0,0.0,540.0,0.0,0.0
3173,61.0,0.0,540.0,0.0,0.0
3174,45.0,0.0,1020.0,0.0,0.0
3175,33.0,0.0,1020.0,0.0,0.0
3176,56.0,1004.0,540.0,0.0,0.0
3177,73.0,0.0,540.0,0.0,0.0
3178,78.0,0.0,1020.0,0.0,0.0
3179,66.0,20.0,15.0,0.0,0.0
3180,57.0,20.0,1020.0,0.0,0.0
3181,68.0,0.0,540.0,0.0,0.0
3182,61.0,0.0,540.0,0.0,0.0
3183,42.0,1004.0,540.0,0.0,0.0
3184,30.0,0.0,540.0,0.0,0.0
3185,26.0,0.0,1020.0,0.0,0.0
3186,38.0,20.0,1020.0,0.0,0.0
3187,69.0,0.0,1020.0,0.0,0.0
3188,66.0,0.0,1020.0,0.0,0.0
3189,80.0,1004.0,540.0,0.0,0.0
3190,54.0,0.0,540.0,0.0,0.0
3191,69.0,0.0,1020.0,0.0,0.0
3192,81.0,0.0,1020.0,0.0,0.0
3193,50.0,0.0,1020.0,0.0,0.0
3194,71.0,0.0,510.0,0.0,0.0
3195,68.0,20.0,510.0,0.0,0.0
3196,42.0,1004.0,540.0,0.0,0.0
3197,30.0,0.0,540.0,0.0,0.0
3198,37.0,0.0,1020.0,0.0,0.0
3199,25.0,20.0,1020.0,0.0,0.0
3200,69.0,0.0,1020.0,0.0,0.0
3201,61.0,0.0,1050.0,0.0,0.0
3202,83.0,0.0,540.0,0.0,0.0
3203,54.0,0.0,540.0,0.0,0.0
3204,57.0,0.0,540.0,0.0,0.0
3205,66.0,0.0,540.0,0.0,0.0
3206,69.0,492.0,540.0,0.0,0.0
3207,49.0,20.0,1020.0,0.0,0.0
3208,73.0,512.0,20.0,0.0,0.0
3209,85.0,0.0,1020.0,0.0,0.0
3210,25.0,0.0,540.0,0.0,0.0
3211,56.0,0.0,540.0,0.0,0.0
3212,65.0,0.0,510.0,0.0,0.0
3213,37.0,0.0,540.0,0.0,0.0
3214,68.0,1004.0,540.0,0.0,0.0
3215,71.0,0.0,1050.0,0.0,0.0
3216,42.0,20.0,1020.0,0.0,0.0
3217,30.0,0.0,1020.0,0.0,0.0
3218,59.0,0.0,1050.0,0.0,0.0
3219,65.0,0.0,1050.0,0.0,0.0
3220,49.0,0.0,540.0,0.0,0.0
3221,74.0,372.0,540.0,0.0,0.0
3222,86.0,0.0,540.0,0.0,0.0
3223,85.0,0.0,1020.0,0.0,0.0
3224,73.0,0.0,1020.0,0.0,0.0
3225,54.0,20.0,1020.0,0.0,0.0
3226,70.0,632.0,390.0,0.0,0.0
3227,66.0,0.0,390.0,0.0,0.0
3228,58.0,0.0,390.0,0.0,0.0
3229,44.0,0.0,540.0,0.0,0.0
3230,61.0,0.0,540.0,0.0,0.0
3231,32.0,1004.0,540.0,0.0,0.0
3232,34.0,0.0,1020.0,0.0,0.0
3233,46.0,20.0,1020.0,0.0,0.0
3234,56.0,0.0,540.0,0.0,0.0
3235,73.0,0.0,540.0,0.0,0.0
3236,78.0,0.0,1020.0,0.0,0.0
3237,66.0,1004.0,20.0,0.0,0.0
3238,58.0,0.0,1020.0,0.0,0.0
3239,42.0,0.0,540.0,0.0,0.0
3240,30.0,0.0,540.0,0.0,0.0
3241,61.0,0.0,540.0,0.0,0.0
3242,70.0,1004.0,540.0,0.0,0.0
3243,38.0,0.0,1020.0,0.0,0.0
3244,26.0,0.0,1020.0,0.0,0.0
3245,66.0,20.0,15.0,0.0,0.0
3246,54.0,0.0,540.0,0.0,0.0
3247,82.0,1004.0,540.0,0.0,0.0
3248,71.0,20.0,15.0,0.0,0.0
3249,83.0,0.0,1020.0,0.0,0.0
3250,50.0,20.0,1020.0,0.0,0.0
3251,30.0,0.0,540.0,0.0,0.0
3252,42.0,0.0,540.0,0.0,0.0
3253,70.0,1004.0,540.0,0.0,0.0
3254,73.0,0.0,540.0,0.0,0.0
3255,71.0,0.0,15.0,0.0,0.0
3256,62.0,0.0,1050.0,0.0,0.0
3257,23.0,0.0,1020.0,0.0,0.0
3258,35.0,20.0,1020.0,0.0,0.0
3259,85.0,512.0,540.0,0.0,0.0
3260,54.0,0.0,540.0,0.0,0.0
3261,86.0,0.0,1020.0,0.0,0.0
3262,74.0,0.0,20.0,0.0,0.0
3263,61.0,492.0,540.0,0.0,0.0
3264,69.0,0.0,540.0,0.0,0.0
3265,73.0,0.0,540.0,0.0,0.0
3266,47.0,0.0,1020.0,0.0,0.0
3267,59.0,0.0,540.0,0.0,0.0
3268,71.0,1004.0,540.0,0.0,0.0
3269,40.0,0.0,540.0,0.0,0.0
3270,28.0,0.0,540.0,0.0,0.0
3271,45.0,0.0,1020.0,0.0,0.0
3272,33.0,0.0,1020.0,0.0,0.0
3273,74.0,0.0,1050.0,0.0,0.0
3274,68.0,20.0,15.0,0.0,0.0
3275,62.0,372.0,1050.0,0.0,0.0
3276,52.0,0.0,540.0,0.0,0.0
3277,76.0,0.0,510.0,0.0,0.0
3278,88.0,20.0,510.0,0.0,0.0
3279,88.0,0.0,1020.0,0.0,0.0
3280,61.0,0.0,390.0,0.0,0.0
3281,69.0,0.0,390.0,0.0,0.0
3282,57.0,20.0,1020.0,0.0,0.0
3283,76.0,0.0,1020.0,0.0,0.0
3284,73.0,632.0,390.0,0.0,0.0
3285,64.0,0.0,540.0,0.0,0.0
3286,35.0,0.0,540.0,0.0,0.0
3287,47.0,1004.0,540.0,0.0,0.0
3288,37.0,20.0,1020.0,0.0,0.0
3289,49.0,0.0,1020.0,0.0,0.0
3290,59.0,0.0,510.0,0.0,0.0
3291,76.0,1004.0,540.0,0.0,0.0
3292,69.0,0.0,20.0,0.0,0.0
3293,61.0,0.0,1020.0,0.0,0.0
3294,81.0,0.0,1020.0,0.0,0.0
3295,33.0,0.0,540.0,0.0,0.0
3296,71.0,0.0,510.0,0.0,0.0
3297,45.0,1004.0,540.0,0.0,0.0
3298,64.0,20.0,510.0,0.0,0.0
3299,30.0,0.0,1020.0,0.0,0.0
3300,42.0,20.0,1020.0,0.0,0.0
3301,69.0,0.0,15.0,0.0,0.0
3302,73.0,0.0,1020.0,0.0,0.0
3303,57.0,0.0,540.0,0.0,0.0
3304,83.0,1004.0,540.0,0.0,0.0
3305,54.0,20.0,1020.0,0.0,0.0
3306,85.0,0.0,1020.0,0.0,0.0
3307,74.0,1004.0,540.0,0.0,0.0
3308,45.0,0.0,540.0,0.0,0.0
3309,33.0,0.0,540.0,0.0,0.0
3310,71.0,0.0,540.0,0.0,0.0
3311,64.0,512.0,1050.0,0.0,0.0
3312,73.0,0.0,15.0,0.0,0.0
3313,28.0,0.0,1020.0,0.0,0.0
3314,40.0,20.0,1020.0,0.0,0.0
3315,86.0,0.0,540.0,0.0,0.0
3316,57.0,0.0,540.0,0.0,0.0
3317,69.0,0.0,540.0,0.0,0.0
3318,73.0,0.0,20.0,0.0,0.0
3319,52.0,0.0,1020.0,0.0,0.0
3320,88.0,0.0,1020.0,0.0,0.0
3321,76.0,0.0,20.0,0.0,0.0
3322,61.0,0.0,540.0,0.0,0.0
3323,71.0,0.0,540.0,0.0,0.0
3324,40.0,0.0,540.0,0.0,0.0
3325,59.0,1004.0,540.0,0.0,0.0
3326,28.0,0.0,540.0,0.0,0.0
3327,33.0,0.0,1020.0,0.0,0.0
3328,45.0,20.0,1020.0,0.0,0.0
3329,74.0,0.0,1050.0,0.0,0.0
3330,68.0,20.0,15.0,0.0,0.0
3331,62.0,0.0,1050.0,0.0,0.0
3332,77.0,0.0,540.0,0.0,0.0
3333,89.0,0.0,540.0,0.0,0.0
3334,52.0,0.0,540.0,0.0,0.0
3335,88.0,20.0,1020.0,0.0,0.0
3336,76.0,0.0,1020.0,0.0,0.0
3337,57.0,120.0,900.0,0.0,0.0
3338,73.0,0.0,390.0,0.0,0.0
3339,61.0,512.0,390.0,0.0,0.0
3340,69.0,0.0,390.0,0.0,0.0
3341,35.0,0.0,540.0,0.0,0.0
3342,47.0,321.0,540.0,0.0,0.0
3343,69.0,120.0,900.0,0.0,0.0
3344,37.0,0.0,1020.0,0.0,0.0
3345,64.0,0.0,20.0,0.0,0.0
3346,55.0,0.0,330.0,0.0,0.0
3347,49.0,20.0,1020.0,0.0,0.0
3348,76.0,0.0,540.0,0.0,0.0
3349,59.0,321.0,540.0,0.0,0.0
3350,64.0,221.0,15.0,0.0,0.0
3351,55.0,0.0,15.0,0.0,0.0
3352,64.0,0.0,15.0,0.0,0.0
3353,81.0,291.0,390.0,0.0,0.0
3354,61.0,120.0,900.0,0.0,0.0
3355,64.0,0.0,15.0,0.0,0.0
3356,55.0,51.0,15.0,0.0,0.0
3357,45.0,0.0,540.0,0.0,0.0
3358,33.0,0.0,540.0,0.0,0.0
3359,70.0,884.0,540.0,0.0,0.0
3360,55.0,221.0,15.0,0.0,0.0
3361,64.0,20.0,330.0,0.0,0.0
3362,66.0,0.0,1020.0,0.0,0.0
3363,38.0,0.0,1020.0,0.0,0.0
3364,50.0,0.0,1020.0,0.0,0.0
3365,69.0,120.0,900.0,0.0,0.0
3366,54.0,20.0,1020.0,0.0,0.0
3367,57.0,372.0,540.0,0.0,0.0
3368,82.0,0.0,540.0,0.0,0.0
3369,81.0,512.0,390.0,0.0,0.0
3370,62.0,140.0,900.0,0.0,0.0
3371,40.0,321.0,540.0,0.0,0.0
3372,52.0,0.0,540.0,0.0,0.0
3373,69.0,0.0,20.0,0.0,0.0
3374,42.0,0.0,1020.0,0.0,0.0
3375,54.0,0.0,1020.0,0.0,0.0
3376,74.0,120.0,900.0,0.0,0.0
3377,60.0,342.0,15.0,0.0,0.0
3378,69.0,0.0,330.0,0.0,0.0
3379,81.0,321.0,540.0,0.0,0.0
3380,64.0,0.0,540.0,0.0,0.0
3381,60.0,221.0,15.0,0.0,0.0
3382,86.0,291.0,390.0,0.0,0.0
3383,69.0,0.0,15.0,0.0,0.0
3384,60.0,20.0,15.0,0.0,0.0
3385,66.0,120.0,900.0,0.0,0.0
3386,60.0,51.0,15.0,0.0,0.0
3387,69.0,0.0,330.0,0.0,0.0
3388,21.0,0.0,540.0,0.0,0.0
3389,33.0,0.0,540.0,0.0,0.0
3390,75.0,884.0,540.0,0.0,0.0
3391,60.0,0.0,330.0,0.0,0.0
3392,38.0,0.0,1020.0,0.0,0.0
3393,26.0,0.0,1020.0,0.0,0.0
3394,69.0,20.0,15.0,0.0,0.0
3395,74.0,120.0,900.0,0.0,0.0
3396,60.0,20.0,1020.0,0.0,0.0
3397,45.0,372.0,540.0,0.0,0.0
3398,87.0,0.0,540.0,0.0,0.0
3399,50.0,652.0,390.0,0.0,0.0
3400,86.0,0.0,390.0,0.0,0.0
3401,40.0,0.0,540.0,0.0,0.0
3402,57.0,0.0,540.0,0.0,0.0
3403,28.0,0.0,540.0,0.0,0.0
3404,74.0,120.0,900.0,0.0,0.0
3405,62.0,291.0,390.0,0.0,0.0
3406,69.0,321.0,20.0,0.0,0.0
3407,60.0,0.0,330.0,0.0,0.0
3408,30.0,0.0,1020.0,0.0,0.0
3409,42.0,0.0,1020.0,0.0,0.0
3410,52.0,321.0,540.0,0.0,0.0
3411,81.0,0.0,540.0,0.0,0.0
3412,69.0,221.0,15.0,0.0,0.0
3413,60.0,0.0,15.0,0.0,0.0
3414,69.0,0.0,330.0,0.0,0.0
3415,60.0,20.0,15.0,0.0,0.0
3416,86.0,0.0,390.0,0.0,0.0
3417,54.0,291.0,390.0,0.0,0.0
3418,60.0,51.0,15.0,0.0,0.0
3419,79.0,372.0,540.0,0.0,0.0
3420,67.0,0.0,540.0,0.0,0.0
3421,21.0,0.0,540.0,0.0,0.0
3422,33.0,0.0,540.0,0.0,0.0
3423,69.0,341.0,15.0,0.0,0.0
3424,66.0,512.0,390.0,0.0,0.0
3425,78.0,120.0,900.0,0.0,0.0
3426,60.0,20.0,15.0,0.0,0.0
3427,38.0,0.0,1020.0,0.0,0.0
3428,69.0,0.0,1020.0,0.0,0.0
3429,26.0,20.0,1020.0,0.0,0.0
3430,91.0,0.0,540.0,0.0,0.0
3431,45.0,372.0,540.0,0.0,0.0
3432,90.0,0.0,390.0,0.0,0.0
3433,50.0,652.0,390.0,0.0,0.0
3434,40.0,321.0,540.0,0.0,0.0
3435,28.0,0.0,540.0,0.0,0.0
3436,57.0,0.0,540.0,0.0,0.0
3437,30.0,0.0,1020.0,0.0,0.0
3438,42.0,20.0,1020.0,0.0,0.0
3439,74.0,120.0,900.0,0.0,0.0
3440,62.0,291.0,390.0,0.0,0.0
3441,69.0,0.0,20.0,0.0,0.0
3442,60.0,51.0,15.0,0.0,0.0
3443,69.0,0.0,330.0,0.0,0.0
3444,81.0,0.0,540.0,0.0,0.0
3445,52.0,321.0,540.0,0.0,0.0
3446,60.0,221.0,15.0,0.0,0.0
3447,69.0,0.0,330.0,0.0,0.0
3448,60.0,0.0,15.0,0.0,0.0
3449,69.0,0.0,330.0,0.0,0.0
3450,86.0,0.0,390.0,0.0,0.0
3451,54.0,291.0,390.0,0.0,0.0
3452,60.0,51.0,15.0,0.0,0.0
3453,69.0,341.0,330.0,0.0,0.0
3454,21.0,0.0,540.0,0.0,0.0
3455,70.0,0.0,540.0,0.0,0.0
3456,82.0,272.0,540.0,0.0,0.0
3457,33.0,0.0,540.0,0.0,0.0
3458,81.0,512.0,510.0,0.0,0.0
3459,26.0,0.0,300.0,0.0,0.0
3460,69.0,0.0,15.0,0.0,0.0
3461,60.0,20.0,15.0,0.0,0.0
3462,38.0,220.0,300.0,0.0,0.0
3463,33.0,0.0,540.0,0.0,0.0
3464,75.0,0.0,540.0,0.0,0.0
3465,55.0,0.0,540.0,0.0,0.0
3466,63.0,0.0,540.0,0.0,0.0
3467,67.0,0.0,540.0,0.0,0.0
3468,21.0,272.0,540.0,0.0,0.0
3469,38.0,0.0,300.0,0.0,0.0
3470,66.0,0.0,300.0,0.0,0.0
3471,26.0,49.0,300.0,0.0,0.0
3472,74.0,0.0,300.0,0.0,0.0
3473,62.0,0.0,300.0,0.0,0.0
3474,69.0,0.0,330.0,0.0,0.0
3475,54.0,0.0,300.0,0.0,0.0
3476,69.0,341.0,330.0,0.0,0.0
3477,60.0,342.0,15.0,0.0,0.0
3478,57.0,0.0,15.0,0.0,0.0
3479,33.0,0.0,540.0,0.0,0.0
3480,21.0,0.0,540.0,0.0,0.0
3481,75.0,0.0,540.0,0.0,0.0
3482,79.0,0.0,540.0,0.0,0.0
3483,67.0,272.0,540.0,0.0,0.0
3484,63.0,0.0,540.0,0.0,0.0
3485,57.0,0.0,15.0,0.0,0.0
3486,38.0,0.0,300.0,0.0,0.0
3487,26.0,732.0,300.0,0.0,0.0
3488,69.0,0.0,15.0,0.0,0.0
3489,60.0,20.0,15.0,0.0,0.0
3490,57.0,0.0,1020.0,0.0,0.0
3491,74.0,0.0,300.0,0.0,0.0
3492,78.0,0.0,300.0,0.0,0.0
3493,62.0,0.0,300.0,0.0,0.0
3494,66.0,0.0,300.0,0.0,0.0
3495,21.0,0.0,540.0,0.0,0.0
3496,33.0,0.0,540.0,0.0,0.0
3497,82.0,272.0,540.0,0.0,0.0
3498,79.0,0.0,540.0,0.0,0.0
3499,67.0,0.0,540.0,0.0,0.0
3500,70.0,0.0,540.0,0.0,0.0
3501,81.0,0.0,300.0,0.0,0.0
3502,78.0,0.0,300.0,0.0,0.0
3503,38.0,49.0,300.0,0.0,0.0
3504,26.0,0.0,300.0,0.0,0.0
3505,69.0,0.0,300.0,0.0,0.0
3506,66.0,0.0,300.0,0.0,0.0
3507,60.0,20.0,15.0,0.0,0.0
3508,66.0,342.0,15.0,0.0,0.0
3509,84.0,0.0,540.0,0.0,0.0
3510,72.0,354.0,540.0,0.0,0.0
3511,69.0,0.0,180.0,0.0,0.0
3512,42.0,0.0,540.0,0.0,0.0
3513,54.0,0.0,540.0,0.0,0.0
3514,66.0,0.0,15.0,0.0,0.0
3515,60.0,341.0,15.0,0.0,0.0
3516,69.0,0.0,330.0,0.0,0.0
3517,61.0,0.0,360.0,0.0,0.0
3518,85.0,0.0,360.0,0.0,0.0
3519,81.0,0.0,15.0,0.0,0.0
3520,78.0,0.0,360.0,0.0,0.0
3521,73.0,0.0,360.0,0.0,0.0
3522,66.0,0.0,15.0,0.0,0.0
3523,69.0,0.0,15.0,0.0,0.0
3524,37.0,1024.0,360.0,0.0,0.0
3525,49.0,0.0,360.0,0.0,0.0
3526,61.0,0.0,360.0,0.0,0.0
3527,49.0,0.0,360.0,0.0,0.0
3528,68.0,0.0,360.0,0.0,0.0
3529,71.0,0.0,360.0,0.0,0.0
3530,77.0,1024.0,360.0,0.0,0.0
3531,59.0,0.0,360.0,0.0,0.0
3532,65.0,0.0,360.0,0.0,0.0
3533,69.0,0.0,360.0,0.0,0.0
3534,78.0,0.0,360.0,0.0,0.0
3535,81.0,0.0,360.0,0.0,0.0
3536,57.0,1024.0,360.0,0.0,0.0
3537,66.0,0.0,360.0,0.0,0.0
3538,37.0,0.0,360.0,0.0,0.0
3539,25.0,0.0,360.0,0.0,0.0
3540,60.0,0.0,360.0,0.0,0.0
3541,57.0,0.0,360.0,0.0,0.0
3542,66.0,1024.0,360.0,0.0,0.0
3543,37.0,0.0,360.0,0.0,0.0
3544,72.0,0.0,360.0,0.0,0.0
3545,69.0,0.0,360.0,0.0,0.0
3546,54.0,0.0,360.0,0.0,0.0
3547,49.0,0.0,360.0,0.0,0.0
3548,49.0,0.0,360.0,0.0,0.0
3549,37.0,0.0,360.0,0.0,0.0
3550,73.0,0.0,360.0,0.0,0.0
3551,61.0,0.0,360.0,0.0,0.0
3552,65.0,1024.0,360.0,0.0,0.0
3553,53.0,0.0,360.0,0.0,0.0
3554,41.0,0.0,360.0,0.0,0.0
3555,29.0,0.0,360.0,0.0,0.0
3556,57.0,1024.0,360.0,0.0,0.0
3557,69.0,0.0,360.0,0.0,0.0
3558,45.0,0.0,360.0,0.0,0.0
3559,33.0,0.0,360.0,0.0,0.0
3560,24.0,0.0,360.0,0.0,0.0
3561,60.0,0.0,360.0,0.0,0.0
3562,36.0,1011.0,360.0,0.0,0.0
3563,48.0,0.0,360.0,0.0,0.0
3564,25.0,0.0,510.0,0.0,0.0
3565,37.0,0.0,510.0,0.0,0.0
3566,49.0,151.0,360.0,0.0,0.0
3567,61.0,0.0,360.0,0.0,0.0
3568,62.0,0.0,360.0,0.0,0.0
3569,50.0,171.0,360.0,0.0,0.0
3570,26.0,150.0,360.0,0.0,0.0
3571,38.0,0.0,360.0,0.0,0.0
3572,49.0,0.0,330.0,0.0,0.0
3573,73.0,256.0,270.0,0.0,0.0
3574,49.0,151.0,360.0,0.0,0.0
3575,61.0,0.0,15.0,0.0,0.0
3576,37.0,0.0,270.0,0.0,0.0
3577,25.0,105.0,270.0,0.0,0.0
3578,85.0,0.0,510.0,0.0,0.0
3579,73.0,191.0,510.0,0.0,0.0
3580,50.0,171.0,360.0,0.0,0.0
3581,62.0,0.0,360.0,0.0,0.0
3582,86.0,150.0,360.0,0.0,0.0
3583,74.0,0.0,360.0,0.0,0.0
3584,61.0,0.0,330.0,0.0,0.0
3585,61.0,0.0,360.0,0.0,0.0
3586,49.0,256.0,15.0,0.0,0.0
3587,73.0,0.0,270.0,0.0,0.0
3588,85.0,105.0,270.0,0.0,0.0
3589,50.0,321.0,360.0,0.0,0.0
3590,62.0,0.0,360.0,0.0,0.0
3591,61.0,361.0,330.0,0.0,0.0
3592,49.0,0.0,330.0,0.0,0.0
3593,61.0,0.0,360.0,0.0,0.0
3594,49.0,342.0,360.0,0.0,0.0
3595,50.0,321.0,360.0,0.0,0.0
3596,62.0,0.0,360.0,0.0,0.0
3597,49.0,361.0,330.0,0.0,0.0
3598,61.0,0.0,330.0,0.0,0.0
3599,61.0,151.0,360.0,0.0,0.0
3600,49.0,191.0,510.0,0.0,0.0
3601,62.0,321.0,360.0,0.0,0.0
3602,61.0,361.0,330.0,0.0,0.0
3603,61.0,342.0,360.0,0.0,0.0
3604,62.0,321.0,360.0,0.0,0.0
3605,61.0,361.0,330.0,0.0,0.0
3606,61.0,342.0,360.0,0.0,0.0
3607,62.0,321.0,360.0,0.0,0.0
3608,61.0,361.0,15.0,0.0,0.0
3609,62.0,65.0,360.0,0.0,0.0
3610,57.0,0.0,270.0,0.0,0.0
3611,61.0,768.0,270.0,0.0,0.0
3612,61.0,20.0,510.0,0.0,0.0
3613,45.0,364.0,540.0,0.0,0.0
3614,49.0,0.0,540.0,0.0,0.0
3615,50.0,0.0,390.0,0.0,0.0
3616,47.0,376.0,390.0,0.0,0.0
3617,61.0,8.0,120.0,0.0,0.0
3618,49.0,105.0,270.0,0.0,0.0
3619,45.0,0.0,270.0,0.0,0.0
3620,69.0,171.0,540.0,0.0,0.0
3621,73.0,0.0,540.0,0.0,0.0
3622,61.0,171.0,360.0,0.0,0.0
3623,49.0,193.0,360.0,0.0,0.0
3624,72.0,140.0,390.0,0.0,0.0
3625,68.0,0.0,390.0,0.0,0.0
3626,61.0,236.0,360.0,0.0,0.0
3627,57.0,8.0,120.0,0.0,0.0
3628,54.0,0.0,120.0,0.0,0.0
3629,49.0,171.0,360.0,0.0,0.0
3630,73.0,105.0,270.0,0.0,0.0
3631,69.0,0.0,270.0,0.0,0.0
3632,45.0,171.0,540.0,0.0,0.0
3633,42.0,0.0,540.0,0.0,0.0
3634,61.0,193.0,360.0,0.0,0.0
3635,44.0,0.0,390.0,0.0,0.0
3636,47.0,140.0,390.0,0.0,0.0
3637,49.0,236.0,360.0,0.0,0.0
3638,66.0,8.0,120.0,0.0,0.0
3639,42.0,105.0,270.0,0.0,0.0
3640,45.0,0.0,270.0,0.0,0.0
3641,78.0,0.0,540.0,0.0,0.0
3642,62.0,171.0,360.0,0.0,0.0
3643,69.0,171.0,540.0,0.0,0.0
3644,50.0,193.0,360.0,0.0,0.0
3645,68.0,0.0,390.0,0.0,0.0
3646,77.0,140.0,390.0,0.0,0.0
3647,62.0,236.0,360.0,0.0,0.0
3648,54.0,0.0,120.0,0.0,0.0
3649,50.0,8.0,120.0,0.0,0.0
3650,38.0,171.0,540.0,0.0,0.0
3651,42.0,20.0,510.0,0.0,0.0
3652,50.0,151.0,360.0,0.0,0.0
3653,78.0,0.0,270.0,0.0,0.0
3654,69.0,105.0,270.0,0.0,0.0
3655,62.0,193.0,360.0,0.0,0.0
3656,45.0,20.0,510.0,0.0,0.0
3657,42.0,236.0,540.0,0.0,0.0
3658,66.0,128.0,120.0,0.0,0.0
3659,45.0,171.0,540.0,0.0,0.0
3660,50.0,0.0,20.0,0.0,0.0
3661,81.0,105.0,270.0,0.0,0.0
3662,62.0,151.0,360.0,0.0,0.0
3663,78.0,0.0,270.0,0.0,0.0
3664,50.0,20.0,15.0,0.0,0.0
3665,62.0,0.0,360.0,0.0,0.0
3666,69.0,128.0,120.0,0.0,0.0
3667,50.0,341.0,20.0,0.0,0.0
3668,57.0,171.0,540.0,0.0,0.0
3669,81.0,20.0,510.0,0.0,0.0
3670,54.0,20.0,15.0,0.0,0.0
3671,84.0,0.0,540.0,0.0,0.0
3672,62.0,321.0,360.0,0.0,0.0
3673,81.0,0.0,540.0,0.0,0.0
3674,59.0,0.0,540.0,0.0,0.0
3675,56.0,0.0,540.0,0.0,0.0
3676,50.0,341.0,360.0,0.0,0.0
3677,60.0,0.0,390.0,0.0,0.0
3678,62.0,31.0,360.0,0.0,0.0
3679,57.0,120.0,390.0,0.0,0.0
3680,74.0,20.0,510.0,0.0,0.0
3681,78.0,20.0,15.0,0.0,0.0
3682,50.0,341.0,360.0,0.0,0.0
3683,71.0,341.0,540.0,0.0,0.0
3684,74.0,0.0,540.0,0.0,0.0
3685,53.0,0.0,540.0,0.0,0.0
3686,56.0,0.0,540.0,0.0,0.0
3687,62.0,0.0,360.0,0.0,0.0
3688,54.0,0.0,540.0,0.0,0.0
3689,57.0,0.0,540.0,0.0,0.0
3690,72.0,0.0,540.0,0.0,0.0
3691,69.0,171.0,540.0,0.0,0.0
3692,50.0,171.0,360.0,0.0,0.0
3693,62.0,341.0,360.0,0.0,0.0
3694,68.0,0.0,540.0,0.0,0.0
3695,71.0,0.0,540.0,0.0,0.0
3696,59.0,341.0,540.0,0.0,0.0
3697,56.0,0.0,540.0,0.0,0.0
3698,50.0,0.0,360.0,0.0,0.0
3699,69.0,0.0,390.0,0.0,0.0
3700,66.0,0.0,390.0,0.0,0.0
3701,57.0,311.0,390.0,0.0,0.0
3702,62.0,31.0,360.0,0.0,0.0
3703,60.0,0.0,390.0,0.0,0.0
3704,50.0,341.0,360.0,0.0,0.0
3705,69.0,0.0,1050.0,0.0,0.0
3706,56.0,0.0,540.0,0.0,0.0
3707,53.0,341.0,540.0,0.0,0.0
3708,72.0,0.0,1050.0,0.0,0.0
3709,62.0,0.0,360.0,0.0,0.0
3710,57.0,0.0,540.0,0.0,0.0
3711,50.0,171.0,360.0,0.0,0.0
3712,54.0,171.0,540.0,0.0,0.0
3713,62.0,341.0,360.0,0.0,0.0
3714,56.0,0.0,540.0,0.0,0.0
3715,59.0,0.0,540.0,0.0,0.0
3716,68.0,0.0,540.0,0.0,0.0
3717,71.0,0.0,540.0,0.0,0.0
3718,50.0,341.0,360.0,0.0,0.0
3719,57.0,171.0,1560.0,0.0,0.0
3720,69.0,311.0,390.0,0.0,0.0
3721,62.0,31.0,360.0,0.0,0.0
3722,60.0,0.0,1560.0,0.0,0.0
3723,66.0,0.0,390.0,0.0,0.0
3724,50.0,341.0,360.0,0.0,0.0
3725,65.0,341.0,540.0,0.0,0.0
3726,68.0,0.0,540.0,0.0,0.0
3727,62.0,0.0,360.0,0.0,0.0
3728,69.0,0.0,540.0,0.0,0.0
3729,66.0,0.0,540.0,0.0,0.0
3730,50.0,171.0,360.0,0.0,0.0
3731,62.0,341.0,360.0,0.0,0.0
3732,71.0,0.0,540.0,0.0,0.0
3733,68.0,341.0,540.0,0.0,0.0
3734,56.0,0.0,540.0,0.0,0.0
3735,59.0,0.0,540.0,0.0,0.0
3736,50.0,0.0,360.0,0.0,0.0
3737,57.0,0.0,390.0,0.0,0.0
3738,54.0,0.0,390.0,0.0,0.0
3739,62.0,31.0,360.0,0.0,0.0
3740,69.0,311.0,390.0,0.0,0.0
3741,72.0,0.0,390.0,0.0,0.0
3742,50.0,341.0,360.0,0.0,0.0
3743,68.0,0.0,540.0,0.0,0.0
3744,65.0,0.0,540.0,0.0,0.0
3745,60.0,0.0,1050.0,0.0,0.0
3746,57.0,0.0,1050.0,0.0,0.0
3747,62.0,341.0,360.0,0.0,0.0
3748,50.0,171.0,360.0,0.0,0.0
3749,66.0,171.0,540.0,0.0,0.0
3750,69.0,0.0,540.0,0.0,0.0
3751,62.0,321.0,360.0,0.0,0.0
3752,56.0,0.0,540.0,0.0,0.0
3753,59.0,0.0,540.0,0.0,0.0
3754,68.0,341.0,540.0,0.0,0.0
3755,71.0,0.0,540.0,0.0,0.0
3756,50.0,20.0,330.0,0.0,0.0
3757,54.0,0.0,780.0,0.0,0.0
3758,57.0,256.0,780.0,0.0,0.0
3759,72.0,20.0,1020.0,0.0,0.0
3760,62.0,342.0,360.0,0.0,0.0
3761,69.0,0.0,1020.0,0.0,0.0
3762,50.0,65.0,180.0,0.0,0.0
3763,62.0,0.0,270.0,0.0,0.0
3764,46.0,0.0,540.0,0.0,0.0
3765,50.0,364.0,540.0,0.0,0.0
3766,70.0,20.0,510.0,0.0,0.0
3767,67.0,0.0,510.0,0.0,0.0
3768,51.0,0.0,390.0,0.0,0.0
3769,48.0,376.0,390.0,0.0,0.0
3770,62.0,8.0,120.0,0.0,0.0
3771,70.0,0.0,540.0,0.0,0.0
3772,74.0,171.0,540.0,0.0,0.0
3773,62.0,171.0,360.0,0.0,0.0
3774,50.0,0.0,270.0,0.0,0.0
3775,46.0,105.0,270.0,0.0,0.0
3776,50.0,193.0,360.0,0.0,0.0
3777,69.0,140.0,390.0,0.0,0.0
3778,73.0,0.0,390.0,0.0,0.0
3779,62.0,236.0,360.0,0.0,0.0
3780,58.0,0.0,120.0,0.0,0.0
3781,55.0,8.0,120.0,0.0,0.0
3782,46.0,171.0,540.0,0.0,0.0
3783,43.0,0.0,540.0,0.0,0.0
3784,50.0,171.0,360.0,0.0,0.0
3785,74.0,105.0,270.0,0.0,0.0
3786,70.0,0.0,270.0,0.0,0.0
3787,62.0,193.0,360.0,0.0,0.0
3788,48.0,140.0,390.0,0.0,0.0
3789,45.0,0.0,390.0,0.0,0.0
3790,50.0,236.0,360.0,0.0,0.0
3791,67.0,8.0,120.0,0.0,0.0
3792,70.0,0.0,540.0,0.0,0.0
3793,43.0,0.0,270.0,0.0,0.0
3794,46.0,105.0,270.0,0.0,0.0
3795,63.0,171.0,360.0,0.0,0.0
3796,79.0,171.0,540.0,0.0,0.0
3797,51.0,193.0,360.0,0.0,0.0
3798,78.0,140.0,390.0,0.0,0.0
3799,69.0,0.0,390.0,0.0,0.0
3800,63.0,236.0,360.0,0.0,0.0
3801,55.0,0.0,120.0,0.0,0.0
3802,51.0,8.0,120.0,0.0,0.0
3803,39.0,171.0,540.0,0.0,0.0
3804,70.0,105.0,270.0,0.0,0.0
3805,79.0,0.0,270.0,0.0,0.0
3806,51.0,151.0,360.0,0.0,0.0
3807,63.0,193.0,360.0,0.0,0.0
3808,43.0,20.0,15.0,0.0,0.0
3809,67.0,128.0,120.0,0.0,0.0
3810,79.0,0.0,270.0,0.0,0.0
3811,46.0,20.0,15.0,0.0,0.0
3812,51.0,0.0,20.0,0.0,0.0
3813,82.0,105.0,270.0,0.0,0.0
3814,63.0,151.0,360.0,0.0,0.0
3815,51.0,20.0,15.0,0.0,0.0
3816,55.0,20.0,510.0,0.0,0.0
3817,63.0,0.0,360.0,0.0,0.0
3818,70.0,128.0,120.0,0.0,0.0
3819,82.0,20.0,510.0,0.0,0.0
3820,51.0,341.0,20.0,0.0,0.0
3821,85.0,171.0,540.0,0.0,0.0
3822,58.0,0.0,540.0,0.0,0.0
3823,55.0,0.0,540.0,0.0,0.0
3824,63.0,321.0,360.0,0.0,0.0
3825,60.0,0.0,540.0,0.0,0.0
3826,82.0,341.0,540.0,0.0,0.0
3827,57.0,0.0,540.0,0.0,0.0
3828,51.0,0.0,360.0,0.0,0.0
3829,79.0,20.0,15.0,0.0,0.0
3830,63.0,31.0,360.0,0.0,0.0
3831,61.0,120.0,390.0,0.0,0.0
3832,58.0,0.0,390.0,0.0,0.0
3833,51.0,341.0,360.0,0.0,0.0
3834,57.0,341.0,540.0,0.0,0.0
3835,75.0,20.0,15.0,0.0,0.0
3836,72.0,0.0,540.0,0.0,0.0
3837,54.0,0.0,540.0,0.0,0.0
3838,63.0,0.0,360.0,0.0,0.0
3839,51.0,171.0,360.0,0.0,0.0
3840,73.0,0.0,540.0,0.0,0.0
3841,70.0,171.0,540.0,0.0,0.0
3842,55.0,0.0,540.0,0.0,0.0
3843,58.0,0.0,540.0,0.0,0.0
3844,63.0,341.0,360.0,0.0,0.0
3845,69.0,0.0,540.0,0.0,0.0
3846,72.0,0.0,540.0,0.0,0.0
3847,60.0,0.0,540.0,0.0,0.0
3848,57.0,341.0,540.0,0.0,0.0
3849,51.0,0.0,360.0,0.0,0.0
3850,67.0,0.0,390.0,0.0,0.0
3851,70.0,0.0,390.0,0.0,0.0
3852,63.0,31.0,360.0,0.0,0.0
3853,58.0,0.0,390.0,0.0,0.0
3854,61.0,311.0,390.0,0.0,0.0
3855,51.0,341.0,360.0,0.0,0.0
3856,57.0,0.0,540.0,0.0,0.0
3857,54.0,341.0,540.0,0.0,0.0
3858,70.0,0.0,1050.0,0.0,0.0
3859,73.0,0.0,1050.0,0.0,0.0
3860,63.0,0.0,360.0,0.0,0.0
3861,55.0,0.0,540.0,0.0,0.0
3862,51.0,171.0,360.0,0.0,0.0
3863,58.0,171.0,540.0,0.0,0.0
3864,63.0,341.0,360.0,0.0,0.0
3865,60.0,0.0,540.0,0.0,0.0
3866,69.0,0.0,540.0,0.0,0.0
3867,72.0,0.0,540.0,0.0,0.0
3868,57.0,0.0,540.0,0.0,0.0
3869,51.0,341.0,360.0,0.0,0.0
3870,67.0,0.0,390.0,0.0,0.0
3871,63.0,31.0,360.0,0.0,0.0
3872,58.0,0.0,1560.0,0.0,0.0
3873,61.0,0.0,1560.0,0.0,0.0
3874,70.0,311.0,390.0,0.0,0.0
3875,51.0,341.0,360.0,0.0,0.0
3876,66.0,341.0,540.0,0.0,0.0
3877,69.0,0.0,540.0,0.0,0.0
3878,63.0,0.0,360.0,0.0,0.0
3879,51.0,171.0,360.0,0.0,0.0
3880,70.0,171.0,540.0,0.0,0.0
3881,67.0,0.0,540.0,0.0,0.0
3882,63.0,341.0,360.0,0.0,0.0
3883,69.0,0.0,540.0,0.0,0.0
3884,57.0,0.0,540.0,0.0,0.0
3885,60.0,0.0,540.0,0.0,0.0
3886,72.0,0.0,540.0,0.0,0.0
3887,51.0,341.0,360.0,0.0,0.0
3888,73.0,311.0,390.0,0.0,0.0
3889,70.0,0.0,390.0,0.0,0.0
3890,55.0,0.0,390.0,0.0,0.0
3891,58.0,0.0,390.0,0.0,0.0
3892,63.0,31.0,360.0,0.0,0.0
3893,51.0,341.0,360.0,0.0,0.0
3894,66.0,341.0,540.0,0.0,0.0
3895,69.0,0.0,540.0,0.0,0.0
3896,61.0,0.0,1050.0,0.0,0.0
3897,58.0,0.0,1050.0,0.0,0.0
3898,63.0,0.0,360.0,0.0,0.0
3899,67.0,0.0,540.0,0.0,0.0
3900,70.0,171.0,540.0,0.0,0.0
3901,51.0,171.0,360.0,0.0,0.0
3902,63.0,321.0,360.0,0.0,0.0
3903,72.0,0.0,540.0,0.0,0.0
3904,69.0,341.0,540.0,0.0,0.0
3905,60.0,0.0,540.0,0.0,0.0
3906,57.0,0.0,540.0,0.0,0.0
3907,51.0,20.0,330.0,0.0,0.0
3908,73.0,0.0,1020.0,0.0,0.0
3909,70.0,0.0,1020.0,0.0,0.0
3910,58.0,256.0,780.0,0.0,0.0
3911,55.0,0.0,780.0,0.0,0.0
3912,63.0,342.0,360.0,0.0,0.0
3913,51.0,65.0,180.0,0.0,0.0
3914,63.0,20.0,270.0,0.0,0.0
3915,71.0,0.0,510.0,0.0,0.0
3916,51.0,20.0,510.0,0.0,0.0
3917,39.0,312.0,540.0,0.0,0.0
3918,68.0,0.0,510.0,0.0,0.0
3919,52.0,52.0,330.0,0.0,0.0
3920,40.0,0.0,330.0,0.0,0.0
3921,56.0,0.0,780.0,0.0,0.0
3922,59.0,0.0,780.0,0.0,0.0
3923,64.0,384.0,120.0,0.0,0.0
3924,68.0,0.0,540.0,0.0,0.0
3925,76.0,0.0,540.0,0.0,0.0
3926,64.0,362.0,540.0,0.0,0.0
3927,51.0,0.0,270.0,0.0,0.0
3928,39.0,276.0,270.0,0.0,0.0
3929,67.0,2.0,390.0,0.0,0.0
3930,75.0,0.0,390.0,0.0,0.0
3931,63.0,0.0,390.0,0.0,0.0
3932,55.0,0.0,390.0,0.0,0.0
3933,58.0,0.0,390.0,0.0,0.0
3934,61.0,0.0,120.0,0.0,0.0
3935,49.0,384.0,120.0,0.0,0.0
3936,59.0,0.0,270.0,0.0,0.0
3937,68.0,0.0,270.0,0.0,0.0
3938,76.0,0.0,270.0,0.0,0.0
3939,56.0,0.0,270.0,0.0,0.0
3940,37.0,0.0,540.0,0.0,0.0
3941,64.0,276.0,270.0,0.0,0.0
3942,49.0,312.0,540.0,0.0,0.0
3943,39.0,0.0,330.0,0.0,0.0
3944,51.0,52.0,330.0,0.0,0.0
3945,64.0,0.0,780.0,0.0,0.0
3946,61.0,362.0,780.0,0.0,0.0
3947,70.0,384.0,120.0,0.0,0.0
3948,49.0,276.0,270.0,0.0,0.0
3949,37.0,0.0,270.0,0.0,0.0
3950,73.0,0.0,540.0,0.0,0.0
3951,82.0,0.0,540.0,0.0,0.0
3952,70.0,0.0,540.0,0.0,0.0
3953,59.0,0.0,390.0,0.0,0.0
3954,63.0,0.0,390.0,0.0,0.0
3955,71.0,0.0,390.0,0.0,0.0
3956,68.0,2.0,390.0,0.0,0.0
3957,80.0,0.0,390.0,0.0,0.0
3958,49.0,384.0,120.0,0.0,0.0
3959,61.0,0.0,120.0,0.0,0.0
3960,37.0,312.0,540.0,0.0,0.0
3961,49.0,0.0,540.0,0.0,0.0
3962,82.0,0.0,270.0,0.0,0.0
3963,64.0,0.0,270.0,0.0,0.0
3964,61.0,0.0,270.0,0.0,0.0
3965,73.0,0.0,270.0,0.0,0.0
3966,70.0,276.0,270.0,0.0,0.0
3967,39.0,52.0,330.0,0.0,0.0
3968,51.0,0.0,330.0,0.0,0.0
3969,63.0,384.0,120.0,0.0,0.0
3970,58.0,0.0,780.0,0.0,0.0
3971,54.0,0.0,780.0,0.0,0.0
3972,75.0,0.0,540.0,0.0,0.0
3973,66.0,0.0,540.0,0.0,0.0
3974,49.0,276.0,270.0,0.0,0.0
3975,37.0,0.0,270.0,0.0,0.0
3976,63.0,362.0,540.0,0.0,0.0
3977,61.0,2.0,390.0,0.0,0.0
3978,52.0,0.0,390.0,0.0,0.0
3979,73.0,0.0,390.0,0.0,0.0
3980,64.0,0.0,390.0,0.0,0.0
3981,56.0,0.0,390.0,0.0,0.0
3982,47.0,0.0,120.0,0.0,0.0
3983,59.0,384.0,120.0,0.0,0.0
3984,75.0,0.0,270.0,0.0,0.0
3985,54.0,0.0,270.0,0.0,0.0
3986,58.0,0.0,270.0,0.0,0.0
3987,63.0,0.0,270.0,0.0,0.0
3988,66.0,276.0,270.0,0.0,0.0
3989,35.0,312.0,540.0,0.0,0.0
3990,47.0,0.0,540.0,0.0,0.0
3991,37.0,52.0,330.0,0.0,0.0
3992,49.0,0.0,330.0,0.0,0.0
3993,68.0,384.0,120.0,0.0,0.0
3994,63.0,0.0,780.0,0.0,0.0
3995,59.0,0.0,780.0,0.0,0.0
3996,47.0,0.0,270.0,0.0,0.0
3997,35.0,276.0,270.0,0.0,0.0
3998,68.0,106.0,540.0,0.0,0.0
3999,80.0,0.0,540.0,0.0,0.0
4000,71.0,0.0,540.0,0.0,0.0
4001,79.0,256.0,120.0,0.0,0.0
4002,67.0,130.0,390.0,0.0,0.0
4003,58.0,0.0,390.0,0.0,0.0
4004,61.0,0.0,390.0,0.0,0.0
4005,70.0,0.0,120.0,0.0,0.0
4006,52.0,256.0,270.0,0.0,0.0
4007,64.0,0.0,270.0,0.0,0.0
4008,40.0,0.0,330.0,0.0,0.0
4009,59.0,0.0,270.0,0.0,0.0
4010,71.0,76.0,270.0,0.0,0.0
4011,80.0,0.0,270.0,0.0,0.0
4012,52.0,692.0,330.0,0.0,0.0
4013,68.0,0.0,270.0,0.0,0.0
4014,46.0,312.0,540.0,0.0,0.0
4015,70.0,0.0,540.0,0.0,0.0
4016,49.0,0.0,270.0,0.0,0.0
4017,68.0,0.0,510.0,0.0,0.0
4018,73.0,0.0,510.0,0.0,0.0
4019,52.0,512.0,510.0,0.0,0.0
4020,61.0,20.0,15.0,0.0,0.0
4021,34.0,180.0,330.0,0.0,0.0
4022,58.0,0.0,330.0,0.0,0.0
4023,64.0,0.0,510.0,0.0,0.0
4024,56.0,0.0,510.0,0.0,0.0
4025,27.0,312.0,540.0,0.0,0.0
4026,51.0,0.0,540.0,0.0,0.0
4027,61.0,0.0,270.0,0.0,0.0
4028,73.0,0.0,270.0,0.0,0.0
4029,66.0,20.0,270.0,0.0,0.0
4030,70.0,0.0,270.0,0.0,0.0
4031,58.0,0.0,270.0,0.0,0.0
4032,78.0,0.0,270.0,0.0,0.0
4033,66.0,512.0,510.0,0.0,0.0
4034,54.0,0.0,510.0,0.0,0.0
4035,63.0,0.0,330.0,0.0,0.0
4036,39.0,180.0,330.0,0.0,0.0
4037,68.0,0.0,540.0,0.0,0.0
4038,44.0,312.0,540.0,0.0,0.0
4039,47.0,0.0,270.0,0.0,0.0
4040,32.0,180.0,330.0,0.0,0.0
4041,63.0,512.0,510.0,0.0,0.0
4042,66.0,0.0,510.0,0.0,0.0
4043,71.0,0.0,510.0,0.0,0.0
4044,51.0,0.0,510.0,0.0,0.0
4045,54.0,0.0,510.0,0.0,0.0
4046,59.0,20.0,15.0,0.0,0.0
4047,56.0,0.0,330.0,0.0,0.0
4048,25.0,0.0,510.0,0.0,0.0
4049,49.0,332.0,510.0,0.0,0.0
4050,76.0,0.0,270.0,0.0,0.0
4051,71.0,0.0,270.0,0.0,0.0
4052,56.0,0.0,270.0,0.0,0.0
4053,59.0,0.0,270.0,0.0,0.0
4054,64.0,0.0,270.0,0.0,0.0
4055,68.0,0.0,270.0,0.0,0.0
4056,64.0,0.0,510.0,0.0,0.0
4057,37.0,0.0,330.0,0.0,0.0
4058,61.0,180.0,330.0,0.0,0.0
4059,52.0,512.0,510.0,0.0,0.0
4060,42.0,312.0,540.0,0.0,0.0
4061,66.0,0.0,540.0,0.0,0.0
4062,58.0,0.0,270.0,0.0,0.0
4063,46.0,20.0,270.0,0.0,0.0
4064,58.0,0.0,510.0,0.0,0.0
4065,52.0,512.0,510.0,0.0,0.0
4066,49.0,0.0,510.0,0.0,0.0
4067,70.0,0.0,510.0,0.0,0.0
4068,64.0,0.0,510.0,0.0,0.0
4069,61.0,0.0,510.0,0.0,0.0
4070,30.0,0.0,330.0,0.0,0.0
4071,54.0,180.0,330.0,0.0,0.0
4072,23.0,312.0,540.0,0.0,0.0
4073,47.0,0.0,540.0,0.0,0.0
4074,63.0,0.0,270.0,0.0,0.0
4075,70.0,20.0,270.0,0.0,0.0
4076,58.0,0.0,270.0,0.0,0.0
4077,66.0,0.0,270.0,0.0,0.0
4078,75.0,0.0,270.0,0.0,0.0
4079,54.0,0.0,270.0,0.0,0.0
4080,51.0,512.0,510.0,0.0,0.0
4081,35.0,180.0,330.0,0.0,0.0
4082,59.0,0.0,330.0,0.0,0.0
4083,63.0,0.0,510.0,0.0,0.0
4084,40.0,0.0,540.0,0.0,0.0
4085,64.0,312.0,540.0,0.0,0.0
4086,44.0,20.0,270.0,0.0,0.0
4087,56.0,0.0,270.0,0.0,0.0
4088,52.0,180.0,330.0,0.0,0.0
4089,28.0,0.0,330.0,0.0,0.0
4090,59.0,512.0,510.0,0.0,0.0
4091,68.0,0.0,510.0,0.0,0.0
4092,47.0,0.0,510.0,0.0,0.0
4093,51.0,0.0,510.0,0.0,0.0
4094,56.0,0.0,510.0,0.0,0.0
4095,63.0,0.0,510.0,0.0,0.0
4096,46.0,0.0,510.0,0.0,0.0
4097,22.0,512.0,1020.0,0.0,0.0
4098,64.0,0.0,270.0,0.0,0.0
4099,68.0,0.0,270.0,0.0,0.0
4100,73.0,0.0,270.0,0.0,0.0
4101,52.0,0.0,270.0,0.0,0.0
4102,56.0,332.0,270.0,0.0,0.0
4103,61.0,0.0,270.0,0.0,0.0
4104,34.0,0.0,1020.0,0.0,0.0
4105,58.0,180.0,330.0,0.0,0.0
4106,61.0,0.0,510.0,0.0,0.0
4107,49.0,0.0,510.0,0.0,0.0
4108,23.0,0.0,510.0,0.0,0.0
4109,46.0,312.0,540.0,0.0,0.0
4110,70.0,0.0,540.0,0.0,0.0
4111,49.0,20.0,270.0,0.0,0.0
4112,34.0,180.0,330.0,0.0,0.0
4113,58.0,0.0,330.0,0.0,0.0
4114,22.0,0.0,510.0,0.0,0.0
4115,61.0,0.0,15.0,0.0,0.0
4116,56.0,0.0,510.0,0.0,0.0
4117,64.0,0.0,510.0,0.0,0.0
4118,68.0,0.0,510.0,0.0,0.0
4119,73.0,0.0,510.0,0.0,0.0
4120,52.0,0.0,510.0,0.0,0.0
4121,46.0,312.0,540.0,0.0,0.0
4122,22.0,512.0,2040.0,0.0,0.0
4123,77.0,0.0,270.0,0.0,0.0
4124,80.0,0.0,270.0,0.0,0.0
4125,86.0,0.0,270.0,0.0,0.0
4126,56.0,0.0,270.0,0.0,0.0
4127,65.0,20.0,270.0,0.0,0.0
4128,62.0,0.0,270.0,0.0,0.0
4129,53.0,512.0,510.0,0.0,0.0
4130,58.0,0.0,330.0,0.0,0.0
4131,34.0,180.0,330.0,0.0,0.0
4132,74.0,0.0,510.0,0.0,0.0
4133,70.0,0.0,540.0,0.0,0.0
4134,62.0,0.0,270.0,0.0,0.0
4135,46.0,20.0,270.0,0.0,0.0
4136,65.0,0.0,510.0,0.0,0.0
4137,50.0,0.0,510.0,0.0,0.0
4138,74.0,0.0,510.0,0.0,0.0
4139,34.0,180.0,330.0,0.0,0.0
4140,58.0,0.0,330.0,0.0,0.0
4141,53.0,0.0,510.0,0.0,0.0
4142,68.0,0.0,510.0,0.0,0.0
4143,39.0,0.0,510.0,0.0,0.0
4144,51.0,0.0,270.0,0.0,0.0
4145,87.0,0.0,270.0,0.0,0.0
4146,75.0,0.0,270.0,0.0,0.0
4147,63.0,0.0,15.0,0.0,0.0
4148,71.0,0.0,540.0,0.0,0.0
4149,75.0,0.0,15.0,0.0,0.0
4150,44.0,0.0,330.0,0.0,0.0
4151,51.0,341.0,15.0,0.0,0.0
4152,59.0,151.0,540.0,0.0,0.0
4153,32.0,0.0,330.0,0.0,0.0
4154,39.0,191.0,330.0,0.0,0.0
4155,40.0,0.0,330.0,0.0,0.0
4156,52.0,161.0,330.0,0.0,0.0
4157,73.0,0.0,330.0,0.0,0.0
4158,76.0,0.0,330.0,0.0,0.0
4159,61.0,120.0,390.0,0.0,0.0
4160,64.0,60.0,330.0,0.0,0.0
4161,32.0,0.0,330.0,0.0,0.0
4162,39.0,341.0,330.0,0.0,0.0
4163,44.0,0.0,330.0,0.0,0.0
4164,51.0,0.0,15.0,0.0,0.0
4165,59.0,0.0,510.0,0.0,0.0
4166,32.0,0.0,330.0,0.0,0.0
4167,39.0,171.0,330.0,0.0,0.0
4168,63.0,0.0,510.0,0.0,0.0
4169,71.0,0.0,510.0,0.0,0.0
4170,44.0,0.0,330.0,0.0,0.0
4171,75.0,171.0,510.0,0.0,0.0
4172,40.0,341.0,330.0,0.0,0.0
4173,52.0,0.0,330.0,0.0,0.0
4174,51.0,0.0,330.0,0.0,0.0
4175,32.0,0.0,330.0,0.0,0.0
4176,39.0,0.0,330.0,0.0,0.0
4177,83.0,0.0,270.0,0.0,0.0
4178,71.0,0.0,270.0,0.0,0.0
4179,59.0,0.0,540.0,0.0,0.0
4180,68.0,0.0,15.0,0.0,0.0
4181,71.0,0.0,540.0,0.0,0.0
4182,44.0,341.0,15.0,0.0,0.0
4183,51.0,0.0,330.0,0.0,0.0
4184,56.0,151.0,540.0,0.0,0.0
4185,32.0,0.0,330.0,0.0,0.0
4186,39.0,191.0,330.0,0.0,0.0
4187,52.0,161.0,330.0,0.0,0.0
4188,40.0,0.0,330.0,0.0,0.0
4189,58.0,120.0,390.0,0.0,0.0
4190,73.0,60.0,330.0,0.0,0.0
4191,61.0,0.0,330.0,0.0,0.0
4192,70.0,0.0,330.0,0.0,0.0
4193,32.0,0.0,330.0,0.0,0.0
4194,51.0,0.0,330.0,0.0,0.0
4195,44.0,0.0,330.0,0.0,0.0
4196,39.0,341.0,330.0,0.0,0.0
4197,51.0,171.0,330.0,0.0,0.0
4198,44.0,0.0,330.0,0.0,0.0
4199,71.0,171.0,510.0,0.0,0.0
4200,68.0,0.0,510.0,0.0,0.0
4201,59.0,0.0,510.0,0.0,0.0
4202,32.0,0.0,330.0,0.0,0.0
4203,56.0,0.0,510.0,0.0,0.0
4204,39.0,0.0,330.0,0.0,0.0
4205,40.0,0.0,15.0,0.0,0.0
4206,52.0,341.0,15.0,0.0,0.0
4207,68.0,341.0,270.0,0.0,0.0
4208,80.0,0.0,270.0,0.0,0.0
4209,64.0,0.0,270.0,0.0,0.0
4210,32.0,0.0,330.0,0.0,0.0
4211,52.0,0.0,15.0,0.0,0.0
4212,44.0,171.0,330.0,0.0,0.0
4213,64.0,0.0,510.0,0.0,0.0
4214,56.0,0.0,510.0,0.0,0.0
4215,40.0,0.0,330.0,0.0,0.0
4216,42.0,341.0,330.0,0.0,0.0
4217,54.0,0.0,330.0,0.0,0.0
4218,71.0,0.0,510.0,0.0,0.0
4219,68.0,0.0,15.0,0.0,0.0
4220,56.0,341.0,510.0,0.0,0.0
4221,32.0,0.0,330.0,0.0,0.0
4222,44.0,0.0,330.0,0.0,0.0
4223,52.0,0.0,330.0,0.0,0.0
4224,40.0,0.0,330.0,0.0,0.0
4225,59.0,0.0,15.0,0.0,0.0
4226,32.0,0.0,330.0,0.0,0.0
4227,40.0,171.0,330.0,0.0,0.0
4228,64.0,0.0,510.0,0.0,0.0
4229,71.0,0.0,510.0,0.0,0.0
4230,44.0,0.0,330.0,0.0,0.0
4231,52.0,0.0,330.0,0.0,0.0
4232,54.0,341.0,330.0,0.0,0.0
4233,42.0,0.0,330.0,0.0,0.0
4234,76.0,171.0,15.0,0.0,0.0
4235,56.0,0.0,510.0,0.0,0.0
4236,68.0,0.0,510.0,0.0,0.0
4237,80.0,0.0,510.0,0.0,0.0
4238,44.0,0.0,330.0,0.0,0.0
4239,40.0,341.0,330.0,0.0,0.0
4240,32.0,0.0,330.0,0.0,0.0
4241,52.0,0.0,15.0,0.0,0.0
4242,44.0,191.0,330.0,0.0,0.0
4243,83.0,0.0,540.0,0.0,0.0
4244,80.0,0.0,1050.0,0.0,0.0
4245,71.0,0.0,540.0,0.0,0.0
4246,56.0,0.0,1050.0,0.0,0.0
4247,59.0,151.0,540.0,0.0,0.0
4248,68.0,0.0,1050.0,0.0,0.0
4249,32.0,0.0,330.0,0.0,0.0
4250,40.0,0.0,330.0,0.0,0.0
4251,42.0,0.0,330.0,0.0,0.0
4252,54.0,341.0,330.0,0.0,0.0
4253,73.0,321.0,540.0,0.0,0.0
4254,85.0,0.0,540.0,0.0,0.0
4255,61.0,0.0,540.0,0.0,0.0
4256,32.0,0.0,330.0,0.0,0.0
4257,40.0,0.0,330.0,0.0,0.0
4258,44.0,0.0,330.0,0.0,0.0
4259,52.0,20.0,330.0,0.0,0.0
4260,75.0,121.0,570.0,0.0,0.0
4261,79.0,341.0,1020.0,0.0,0.0
4262,39.0,0.0,330.0,0.0,0.0
4263,51.0,0.0,330.0,0.0,0.0
4264,63.0,30.0,540.0,0.0,0.0
4265,67.0,0.0,1020.0,0.0,0.0
4266,87.0,0.0,570.0,0.0,0.0
4267,44.0,0.0,330.0,0.0,0.0
4268,32.0,191.0,330.0,0.0,0.0
4269,55.0,0.0,1020.0,0.0,0.0
4270,40.0,341.0,330.0,0.0,0.0
4271,52.0,0.0,330.0,0.0,0.0
4272,61.0,0.0,510.0,0.0,0.0
4273,85.0,0.0,450.0,0.0,0.0
4274,73.0,0.0,450.0,0.0,0.0
4275,44.0,0.0,330.0,0.0,0.0
4276,39.0,0.0,330.0,0.0,0.0
4277,51.0,0.0,330.0,0.0,0.0
4278,40.0,0.0,330.0,0.0,0.0
4279,32.0,0.0,15.0,0.0,0.0
4280,68.0,0.0,1020.0,0.0,0.0
4281,59.0,151.0,540.0,0.0,0.0
4282,71.0,0.0,540.0,0.0,0.0
4283,83.0,0.0,540.0,0.0,0.0
4284,44.0,191.0,330.0,0.0,0.0
4285,52.0,0.0,330.0,0.0,0.0
4286,56.0,0.0,1020.0,0.0,0.0
4287,80.0,321.0,1050.0,0.0,0.0
4288,42.0,0.0,330.0,0.0,0.0
4289,54.0,341.0,330.0,0.0,0.0
4290,85.0,0.0,540.0,0.0,0.0
4291,73.0,0.0,540.0,0.0,0.0
4292,61.0,0.0,540.0,0.0,0.0
4293,44.0,0.0,330.0,0.0,0.0
4294,40.0,20.0,330.0,0.0,0.0
4295,52.0,0.0,330.0,0.0,0.0
4296,39.0,0.0,330.0,0.0,0.0
4297,51.0,342.0,330.0,0.0,0.0
4298,44.0,0.0,330.0,0.0,0.0
4299,87.0,0.0,1560.0,0.0,0.0
4300,32.0,0.0,15.0,0.0,0.0
4301,55.0,20.0,1530.0,0.0,0.0
4302,63.0,0.0,1560.0,0.0,0.0
4303,67.0,0.0,1530.0,0.0,0.0
4304,75.0,0.0,1560.0,0.0,0.0
4305,40.0,0.0,330.0,0.0,0.0
4306,52.0,341.0,330.0,0.0,0.0
4307,44.0,0.0,330.0,0.0,0.0
4308,32.0,0.0,330.0,0.0,0.0
4309,39.0,341.0,330.0,0.0,0.0
4310,51.0,0.0,330.0,0.0,0.0
4311,32.0,0.0,330.0,0.0,0.0
4312,44.0,0.0,330.0,0.0,0.0
4313,51.0,0.0,330.0,0.0,0.0
4314,39.0,171.0,330.0,0.0,0.0
4315,52.0,341.0,330.0,0.0,0.0
4316,40.0,0.0,330.0,0.0,0.0
4317,58.0,0.0,540.0,0.0,0.0
4318,79.0,151.0,20.0,0.0,0.0
4319,70.0,0.0,540.0,0.0,0.0
4320,82.0,321.0,540.0,0.0,0.0
4321,67.0,0.0,540.0,0.0,0.0
4322,32.0,0.0,330.0,0.0,0.0
4323,44.0,0.0,330.0,0.0,0.0
4324,51.0,0.0,330.0,0.0,0.0
4325,51.0,0.0,330.0,0.0,0.0
4326,44.0,0.0,330.0,0.0,0.0
4327,83.0,151.0,540.0,0.0,0.0
4328,71.0,0.0,510.0,0.0,0.0
4329,39.0,20.0,15.0,0.0,0.0
4330,59.0,0.0,540.0,0.0,0.0
4331,32.0,0.0,330.0,0.0,0.0
4332,52.0,0.0,330.0,0.0,0.0
4333,40.0,341.0,330.0,0.0,0.0
4334,80.0,0.0,15.0,0.0,0.0
4335,71.0,0.0,510.0,0.0,0.0
4336,68.0,20.0,15.0,0.0,0.0
4337,44.0,0.0,330.0,0.0,0.0
4338,39.0,0.0,330.0,0.0,0.0
4339,32.0,20.0,330.0,0.0,0.0
4340,51.0,0.0,330.0,0.0,0.0
4341,75.0,341.0,1020.0,0.0,0.0
4342,78.0,171.0,510.0,0.0,0.0
4343,66.0,0.0,510.0,0.0,0.0
4344,34.0,0.0,330.0,0.0,0.0
4345,54.0,171.0,330.0,0.0,0.0
4346,42.0,0.0,330.0,0.0,0.0
4347,63.0,0.0,20.0,0.0,0.0
4348,46.0,0.0,330.0,0.0,0.0
4349,44.0,0.0,330.0,0.0,0.0
4350,56.0,341.0,330.0,0.0,0.0
4351,68.0,0.0,510.0,0.0,0.0
4352,80.0,0.0,510.0,0.0,0.0
4353,42.0,0.0,330.0,0.0,0.0
4354,34.0,0.0,330.0,0.0,0.0
4355,46.0,0.0,330.0,0.0,0.0
4356,54.0,0.0,330.0,0.0,0.0
4357,62.0,171.0,1530.0,0.0,0.0
4358,46.0,0.0,330.0,0.0,0.0
4359,53.0,0.0,330.0,0.0,0.0
4360,34.0,0.0,330.0,0.0,0.0
4361,41.0,342.0,330.0,0.0,0.0
4362,82.0,0.0,1530.0,0.0,0.0
4363,42.0,0.0,330.0,0.0,0.0
4364,54.0,341.0,330.0,0.0,0.0
4365,41.0,0.0,15.0,0.0,0.0
4366,34.0,0.0,15.0,0.0,0.0
4367,53.0,341.0,15.0,0.0,0.0
4368,46.0,0.0,15.0,0.0,0.0
4369,42.0,341.0,330.0,0.0,0.0
4370,54.0,0.0,330.0,0.0,0.0
4371,74.0,0.0,15.0,0.0,0.0
4372,58.0,0.0,510.0,0.0,0.0
4373,70.0,0.0,15.0,0.0,0.0
4374,65.0,0.0,510.0,0.0,0.0
4375,77.0,0.0,510.0,0.0,0.0
4376,46.0,0.0,330.0,0.0,0.0
4377,41.0,341.0,330.0,0.0,0.0
4378,34.0,0.0,330.0,0.0,0.0
4379,53.0,0.0,330.0,0.0,0.0
4380,75.0,0.0,510.0,0.0,0.0
4381,67.0,0.0,510.0,0.0,0.0
4382,63.0,0.0,510.0,0.0,0.0
4383,39.0,171.0,330.0,0.0,0.0
4384,51.0,0.0,510.0,0.0,0.0
4385,79.0,171.0,510.0,0.0,0.0
4386,40.0,341.0,330.0,0.0,0.0
4387,63.0,0.0,510.0,0.0,0.0
4388,75.0,0.0,510.0,0.0,0.0
4389,39.0,0.0,330.0,0.0,0.0
4390,56.0,341.0,270.0,0.0,0.0
4391,44.0,151.0,540.0,0.0,0.0
4392,32.0,191.0,15.0,0.0,0.0
4393,47.0,321.0,540.0,0.0,0.0
4394,32.0,20.0,330.0,0.0,0.0
4395,68.0,0.0,270.0,0.0,0.0
4396,52.0,0.0,330.0,0.0,0.0
4397,32.0,171.0,330.0,0.0,0.0
4398,56.0,20.0,510.0,0.0,0.0
4399,54.0,341.0,330.0,0.0,0.0
4400,56.0,321.0,540.0,0.0,0.0
4401,59.0,0.0,510.0,0.0,0.0
4402,52.0,0.0,330.0,0.0,0.0
4403,32.0,0.0,15.0,0.0,0.0
4404,80.0,0.0,270.0,0.0,0.0
4405,68.0,20.0,510.0,0.0,0.0
4406,59.0,151.0,540.0,0.0,0.0
4407,64.0,0.0,540.0,0.0,0.0
4408,52.0,0.0,510.0,0.0,0.0
4409,44.0,171.0,15.0,0.0,0.0
4410,68.0,0.0,540.0,0.0,0.0
4411,61.0,321.0,540.0,0.0,0.0
4412,44.0,20.0,330.0,0.0,0.0
4413,71.0,0.0,15.0,0.0,0.0
4414,62.0,0.0,1560.0,0.0,0.0
4415,52.0,0.0,330.0,0.0,0.0
4416,44.0,171.0,330.0,0.0,0.0
4417,54.0,0.0,330.0,0.0,0.0
4418,44.0,341.0,330.0,0.0,0.0
4419,76.0,20.0,15.0,0.0,0.0
4420,80.0,20.0,510.0,0.0,0.0
4421,44.0,0.0,330.0,0.0,0.0
4422,52.0,0.0,330.0,0.0,0.0
4423,64.0,20.0,510.0,0.0,0.0
4424,32.0,171.0,330.0,0.0,0.0
4425,83.0,0.0,540.0,0.0,0.0
4426,71.0,151.0,540.0,0.0,0.0
4427,80.0,0.0,3060.0,0.0,0.0
4428,32.0,341.0,330.0,0.0,0.0
4429,61.0,0.0,540.0,0.0,0.0
4430,85.0,0.0,540.0,0.0,0.0
4431,73.0,321.0,540.0,0.0,0.0
4432,32.0,20.0,330.0,0.0,0.0
4433,52.0,0.0,330.0,0.0,0.0
4434,59.0,151.0,1560.0,0.0,0.0
4435,86.0,0.0,1560.0,0.0,0.0
4436,64.0,342.0,330.0,0.0,0.0
4437,74.0,20.0,1530.0,0.0,0.0
4438,32.0,0.0,15.0,0.0,0.0
4439,66.0,341.0,330.0,0.0,0.0
4440,54.0,0.0,330.0,0.0,0.0
4441,64.0,0.0,330.0,0.0,0.0
4442,32.0,341.0,330.0,0.0,0.0
4443,52.0,0.0,330.0,0.0,0.0
4444,44.0,171.0,330.0,0.0,0.0
4445,53.0,0.0,510.0,0.0,0.0
4446,65.0,0.0,510.0,0.0,0.0
4447,73.0,321.0,540.0,0.0,0.0
4448,56.0,0.0,540.0,0.0,0.0
4449,85.0,0.0,540.0,0.0,0.0
4450,44.0,341.0,15.0,0.0,0.0
4451,50.0,0.0,540.0,0.0,0.0
4452,44.0,20.0,15.0,0.0,0.0
4453,80.0,0.0,1020.0,0.0,0.0
4454,71.0,151.0,540.0,0.0,0.0
4455,83.0,0.0,540.0,0.0,0.0
4456,65.0,0.0,330.0,0.0,0.0
4457,53.0,191.0,330.0,0.0,0.0
4458,44.0,0.0,15.0,0.0,0.0
4459,54.0,341.0,330.0,0.0,0.0
4460,66.0,0.0,330.0,0.0,0.0
4461,47.0,0.0,540.0,0.0,0.0
4462,86.0,321.0,540.0,0.0,0.0
4463,74.0,0.0,540.0,0.0,0.0
4464,44.0,0.0,15.0,0.0,0.0
4465,65.0,20.0,330.0,0.0,0.0
4466,53.0,0.0,330.0,0.0,0.0
4467,46.0,151.0,540.0,0.0,0.0
4468,32.0,171.0,330.0,0.0,0.0
4469,73.0,20.0,1020.0,0.0,0.0
4470,78.0,0.0,1020.0,0.0,0.0
4471,85.0,0.0,1020.0,0.0,0.0
4472,66.0,20.0,510.0,0.0,0.0
4473,54.0,0.0,510.0,0.0,0.0
4474,32.0,341.0,330.0,0.0,0.0
4475,49.0,321.0,540.0,0.0,0.0
4476,32.0,0.0,330.0,0.0,0.0
4477,70.0,0.0,270.0,0.0,0.0
4478,32.0,171.0,330.0,0.0,0.0
4479,54.0,0.0,330.0,0.0,0.0
4480,32.0,341.0,330.0,0.0,0.0
4481,56.0,0.0,330.0,0.0,0.0
4482,61.0,0.0,510.0,0.0,0.0
4483,58.0,20.0,15.0,0.0,0.0
4484,54.0,0.0,330.0,0.0,0.0
4485,32.0,0.0,330.0,0.0,0.0
4486,82.0,20.0,270.0,0.0,0.0
4487,54.0,20.0,510.0,0.0,0.0
4488,61.0,0.0,540.0,0.0,0.0
4489,66.0,151.0,540.0,0.0,0.0
4490,44.0,171.0,15.0,0.0,0.0
4491,70.0,0.0,15.0,0.0,0.0
4492,63.0,0.0,540.0,0.0,0.0
4493,73.0,20.0,510.0,0.0,0.0
4494,44.0,341.0,15.0,0.0,0.0
4495,54.0,171.0,330.0,0.0,0.0
4496,44.0,0.0,330.0,0.0,0.0
4497,78.0,20.0,510.0,0.0,0.0
4498,73.0,151.0,540.0,0.0,0.0
4499,64.0,0.0,1560.0,0.0,0.0
4500,56.0,0.0,330.0,0.0,0.0
4501,44.0,341.0,330.0,0.0,0.0
4502,78.0,0.0,540.0,0.0,0.0
4503,54.0,20.0,330.0,0.0,0.0
4504,44.0,0.0,330.0,0.0,0.0
4505,82.0,321.0,20.0,0.0,0.0
4506,66.0,20.0,510.0,0.0,0.0
4507,73.0,0.0,540.0,0.0,0.0
4508,85.0,151.0,540.0,0.0,0.0
4509,32.0,171.0,15.0,0.0,0.0
4510,63.0,0.0,540.0,0.0,0.0
4511,87.0,321.0,540.0,0.0,0.0
4512,75.0,0.0,540.0,0.0,0.0
4513,32.0,20.0,15.0,0.0,0.0
4514,88.0,0.0,1560.0,0.0,0.0
4515,76.0,0.0,1530.0,0.0,0.0
4516,61.0,151.0,1560.0,0.0,0.0
4517,66.0,0.0,330.0,0.0,0.0
4518,54.0,0.0,330.0,0.0,0.0
4519,56.0,0.0,330.0,0.0,0.0
4520,68.0,0.0,330.0,0.0,0.0
4521,54.0,0.0,330.0,0.0,0.0
4522,32.0,341.0,15.0,0.0,0.0
4523,66.0,0.0,330.0,0.0,0.0
4524,55.0,0.0,510.0,0.0,0.0
4525,67.0,20.0,510.0,0.0,0.0
4526,44.0,171.0,330.0,0.0,0.0
4527,44.0,341.0,330.0,0.0,0.0
4528,58.0,321.0,540.0,0.0,0.0
4529,75.0,0.0,540.0,0.0,0.0
4530,87.0,0.0,540.0,0.0,0.0
4531,44.0,20.0,330.0,0.0,0.0
4532,55.0,191.0,330.0,0.0,0.0
4533,52.0,0.0,540.0,0.0,0.0
4534,85.0,0.0,540.0,0.0,0.0
4535,73.0,151.0,540.0,0.0,0.0
4536,67.0,0.0,330.0,0.0,0.0
4537,82.0,0.0,1020.0,0.0,0.0
4538,56.0,341.0,330.0,0.0,0.0
4539,44.0,0.0,15.0,0.0,0.0
4540,68.0,0.0,330.0,0.0,0.0
4541,49.0,321.0,540.0,0.0,0.0
4542,88.0,0.0,540.0,0.0,0.0
4543,76.0,0.0,540.0,0.0,0.0
4544,67.0,0.0,330.0,0.0,0.0
4545,55.0,20.0,330.0,0.0,0.0
4546,44.0,0.0,15.0,0.0,0.0
4547,56.0,20.0,510.0,0.0,0.0
4548,75.0,0.0,1020.0,0.0,0.0
4549,68.0,0.0,510.0,0.0,0.0
4550,32.0,171.0,330.0,0.0,0.0
4551,80.0,0.0,1020.0,0.0,0.0
4552,87.0,20.0,1020.0,0.0,0.0
4553,48.0,151.0,540.0,0.0,0.0
4554,51.0,321.0,540.0,0.0,0.0
4555,32.0,341.0,15.0,0.0,0.0
4556,72.0,0.0,270.0,0.0,0.0
4557,32.0,0.0,330.0,0.0,0.0
4558,56.0,171.0,330.0,0.0,0.0
4559,60.0,20.0,510.0,0.0,0.0
4560,32.0,0.0,330.0,0.0,0.0
4561,57.0,341.0,330.0,0.0,0.0
4562,60.0,321.0,540.0,0.0,0.0
4563,63.0,0.0,510.0,0.0,0.0
4564,32.0,0.0,330.0,0.0,0.0
4565,84.0,0.0,270.0,0.0,0.0
4566,72.0,0.0,510.0,0.0,0.0
4567,56.0,20.0,15.0,0.0,0.0
4568,68.0,0.0,540.0,0.0,0.0
4569,63.0,151.0,540.0,0.0,0.0
4570,44.0,171.0,15.0,0.0,0.0
4571,75.0,0.0,510.0,0.0,0.0
4572,64.0,321.0,540.0,0.0,0.0
4573,72.0,0.0,540.0,0.0,0.0
4574,44.0,341.0,15.0,0.0,0.0
4575,75.0,151.0,540.0,0.0,0.0
4576,56.0,171.0,330.0,0.0,0.0
4577,44.0,20.0,15.0,0.0,0.0
4578,66.0,171.0,1530.0,0.0,0.0
4579,57.0,341.0,330.0,0.0,0.0
4580,80.0,20.0,15.0,0.0,0.0
4581,44.0,0.0,15.0,0.0,0.0
4582,56.0,20.0,15.0,0.0,0.0
4583,32.0,171.0,330.0,0.0,0.0
4584,87.0,0.0,510.0,0.0,0.0
4585,84.0,0.0,20.0,0.0,0.0
4586,32.0,341.0,330.0,0.0,0.0
4587,85.0,0.0,510.0,0.0,0.0
4588,68.0,0.0,510.0,0.0,0.0
4589,88.0,341.0,510.0,0.0,0.0
4590,90.0,0.0,2040.0,0.0,0.0
4591,69.0,0.0,2040.0,0.0,0.0
4592,75.0,0.0,2040.0,0.0,0.0
4593,78.0,341.0,2040.0,0.0,0.0
4594,32.0,0.0,15.0,0.0,0.0
4595,56.0,0.0,510.0,0.0,0.0
4596,44.0,171.0,510.0,0.0,0.0
4597,87.0,0.0,2040.0,0.0,0.0
4598,81.0,0.0,2040.0,0.0,0.0
4599,32.0,341.0,15.0,0.0,0.0
4600,44.0,342.0,330.0,0.0,0.0
4601,44.0,341.0,330.0,0.0,0.0
4602,44.0,0.0,330.0,0.0,0.0
4603,80.0,0.0,2040.0,0.0,0.0
4604,73.0,341.0,2040.0,0.0,0.0
4605,77.0,0.0,2040.0,0.0,0.0
4606,89.0,0.0,2040.0,0.0,0.0
4607,56.0,321.0,1050.0,0.0,0.0
4608,44.0,342.0,330.0,0.0,0.0
4609,85.0,0.0,2040.0,0.0,0.0
4610,68.0,0.0,2040.0,0.0,0.0
4611,44.0,341.0,330.0,0.0,0.0
4612,44.0,20.0,330.0,0.0,0.0
4613,61.0,151.0,1560.0,0.0,0.0
4614,32.0,342.0,15.0,0.0,0.0
4615,32.0,0.0,15.0,0.0,0.0
4616,81.0,0.0,2040.0,0.0,0.0
4617,69.0,0.0,2040.0,0.0,0.0
4618,88.0,0.0,2040.0,0.0,0.0
4619,85.0,20.0,2040.0,0.0,0.0
4620,32.0,191.0,15.0,0.0,0.0
4621,63.0,321.0,540.0,0.0,0.0
4622,32.0,341.0,15.0,0.0,0.0
4623,44.0,191.0,330.0,0.0,0.0
4624,64.0,151.0,540.0,0.0,0.0
4625,44.0,341.0,15.0,0.0,0.0
4626,73.0,0.0,15.0,0.0,0.0
4627,76.0,0.0,15.0,0.0,0.0
4628,79.0,0.0,2040.0,0.0,0.0
4629,61.0,321.0,20.0,0.0,0.0
4630,64.0,0.0,2040.0,0.0,0.0
4631,67.0,0.0,2040.0,0.0,0.0
4632,44.0,0.0,15.0,0.0,0.0
4633,57.0,151.0,540.0,0.0,0.0
4634,44.0,341.0,330.0,0.0,0.0
4635,61.0,321.0,540.0,0.0,0.0
4636,44.0,20.0,330.0,0.0,0.0
4637,56.0,341.0,2040.0,0.0,0.0
4638,44.0,342.0,15.0,0.0,0.0
4639,44.0,341.0,15.0,0.0,0.0
4640,63.0,0.0,2040.0,0.0,0.0
4641,72.0,0.0,2040.0,0.0,0.0
4642,75.0,0.0,2040.0,0.0,0.0
4643,60.0,341.0,2040.0,0.0,0.0
4644,68.0,0.0,2040.0,0.0,0.0
4645,80.0,0.0,2040.0,0.0,0.0
4646,44.0,342.0,15.0,0.0,0.0
4647,44.0,341.0,15.0,0.0,0.0
4648,44.0,342.0,330.0,0.0,0.0
4649,32.0,321.0,2070.0,0.0,0.0
4650,44.0,341.0,330.0,0.0,0.0
4651,44.0,0.0,330.0,0.0,0.0
4652,44.0,342.0,330.0,0.0,0.0
4653,69.0,341.0,2040.0,0.0,0.0
4654,72.0,0.0,2040.0,0.0,0.0
4655,75.0,0.0,2040.0,0.0,0.0
4656,57.0,0.0,2040.0,0.0,0.0
4657,78.0,0.0,2040.0,0.0,0.0
4658,66.0,0.0,2040.0,0.0,0.0
4659,63.0,0.0,2040.0,0.0,0.0
4660,60.0,0.0,2040.0,0.0,0.0
4661,44.0,341.0,330.0,0.0,0.0
4662,44.0,20.0,330.0,0.0,0.0
4663,37.0,151.0,1560.0,0.0,0.0
4664,44.0,342.0,15.0,0.0,0.0
4665,44.0,341.0,15.0,0.0,0.0
4666,44.0,191.0,330.0,0.0,0.0
4667,77.0,0.0,2040.0,0.0,0.0
4668,61.0,0.0,2040.0,0.0,0.0
4669,65.0,0.0,2040.0,0.0,0.0
4670,39.0,321.0,540.0,0.0,0.0
4671,44.0,341.0,15.0,0.0,0.0
4672,41.0,151.0,540.0,0.0,0.0
4673,44.0,20.0,15.0,0.0,0.0
4674,44.0,191.0,15.0,0.0,0.0
4675,37.0,151.0,1050.0,0.0,0.0
4676,44.0,341.0,15.0,0.0,0.0
4677,68.0,341.0,15.0,0.0,0.0
4678,73.0,0.0,15.0,0.0,0.0
4679,76.0,0.0,2040.0,0.0,0.0
4680,56.0,0.0,15.0,0.0,0.0
4681,44.0,0.0,15.0,0.0,0.0
4682,39.0,321.0,540.0,0.0,0.0
4683,44.0,341.0,15.0,0.0,0.0
4684,40.0,151.0,540.0,0.0,0.0
4685,44.0,20.0,15.0,0.0,0.0
4686,44.0,341.0,330.0,0.0,0.0
4687,37.0,151.0,1050.0,0.0,0.0
4688,44.0,0.0,15.0,0.0,0.0
4689,61.0,0.0,15.0,0.0,0.0
4690,57.0,0.0,2040.0,0.0,0.0
4691,73.0,341.0,15.0,0.0,0.0
4692,69.0,0.0,2040.0,0.0,0.0
4693,64.0,0.0,15.0,0.0,0.0
4694,44.0,341.0,330.0,0.0,0.0
4695,39.0,321.0,540.0,0.0,0.0
4696,40.0,151.0,540.0,0.0,0.0
4697,44.0,20.0,15.0,0.0,0.0
4698,44.0,191.0,15.0,0.0,0.0
4699,37.0,321.0,540.0,0.0,0.0
4700,44.0,0.0,330.0,0.0,0.0
4701,33.0,151.0,540.0,0.0,0.0
4702,67.0,0.0,2040.0,0.0,0.0
4703,49.0,0.0,2040.0,0.0,0.0
4704,64.0,0.0,15.0,0.0,0.0
4705,61.0,20.0,15.0,0.0,0.0
4706,55.0,0.0,2040.0,0.0,0.0
4707,52.0,0.0,15.0,0.0,0.0
4708,44.0,191.0,15.0,0.0,0.0
4709,37.0,321.0,540.0,0.0,0.0
4710,44.0,20.0,330.0,0.0,0.0
4711,56.0,0.0,330.0,0.0,0.0
4712,32.0,341.0,2040.0,0.0,0.0
4713,44.0,342.0,15.0,0.0,0.0
4714,56.0,341.0,330.0,0.0,0.0
4715,44.0,0.0,330.0,0.0,0.0
4716,56.0,0.0,330.0,0.0,0.0
4717,48.0,0.0,1020.0,0.0,0.0
4718,68.0,0.0,1020.0,0.0,0.0
4719,60.0,0.0,1020.0,0.0,0.0
4720,56.0,0.0,15.0,0.0,0.0
4721,44.0,342.0,15.0,0.0,0.0
4722,56.0,0.0,330.0,0.0,0.0
4723,44.0,341.0,15.0,0.0,0.0
4724,57.0,0.0,1020.0,0.0,0.0
4725,51.0,0.0,15.0,0.0,0.0
4726,69.0,0.0,1020.0,0.0,0.0
4727,66.0,341.0,1020.0,0.0,0.0
4728,63.0,0.0,15.0,0.0,0.0
4729,54.0,0.0,1020.0,0.0,0.0
4730,56.0,0.0,330.0,0.0,0.0
4731,44.0,342.0,330.0,0.0,0.0
4732,44.0,0.0,330.0,0.0,0.0
4733,56.0,341.0,15.0,0.0,0.0
4734,44.0,0.0,15.0,0.0,0.0
4735,56.0,342.0,15.0,0.0,0.0
4736,44.0,341.0,330.0,0.0,0.0
4737,56.0,0.0,180.0,0.0,0.0
4738,52.0,0.0,1530.0,0.0,0.0
4739,49.0,0.0,1530.0,0.0,0.0
4740,68.0,0.0,510.0,0.0,0.0
4741,64.0,0.0,1530.0,0.0,0.0
4742,61.0,341.0,1530.0,0.0,0.0
4743,56.0,0.0,330.0,0.0,0.0
4744,44.0,341.0,330.0,0.0,0.0
4745,69.0,0.0,1020.0,0.0,0.0
4746,57.0,0.0,1020.0,0.0,0.0
4747,56.0,0.0,330.0,0.0,0.0
4748,44.0,342.0,330.0,0.0,0.0
4749,56.0,0.0,330.0,0.0,0.0
4750,44.0,341.0,330.0,0.0,0.0
4751,56.0,0.0,15.0,0.0,0.0
4752,44.0,0.0,15.0,0.0,0.0
4753,56.0,342.0,15.0,0.0,0.0
4754,44.0,0.0,15.0,0.0,0.0
4755,62.0,0.0,810.0,0.0,0.0
4756,56.0,0.0,180.0,0.0,0.0
4757,65.0,0.0,810.0,0.0,0.0
4758,68.0,292.0,540.0,0.0,0.0
4759,53.0,29.0,810.0,0.0,0.0
4760,50.0,0.0,810.0,0.0,0.0
4761,44.0,341.0,15.0,0.0,0.0
4762,44.0,0.0,15.0,0.0,0.0
4763,56.0,20.0,15.0,0.0,0.0
4764,69.0,0.0,300.0,0.0,0.0
4765,57.0,0.0,300.0,0.0,0.0
4766,63.0,200.0,810.0,0.0,0.0
4767,66.0,0.0,810.0,0.0,0.0
4768,68.0,0.0,540.0,0.0,0.0
4769,51.0,0.0,810.0,0.0,0.0
4770,54.0,0.0,810.0,0.0,0.0
4771,56.0,0.0,180.0,0.0,0.0
4772,44.0,341.0,15.0,0.0,0.0
4773,69.0,0.0,300.0,0.0,0.0
4774,44.0,0.0,15.0,0.0,0.0
4775,56.0,20.0,15.0,0.0,0.0
4776,57.0,0.0,300.0,0.0,0.0
4777,56.0,0.0,15.0,0.0,0.0
4778,44.0,56.0,15.0,0.0,0.0
4779,51.0,256.0,270.0,0.0,0.0
4780,44.0,0.0,15.0,0.0,0.0
4781,56.0,256.0,15.0,0.0,0.0
4782,63.0,0.0,270.0,0.0,0.0
4783,68.0,20.0,270.0,0.0,0.0
4784,56.0,0.0,270.0,0.0,0.0
4785,69.0,0.0,1020.0,0.0,0.0
4786,66.0,0.0,270.0,0.0,0.0
4787,54.0,256.0,270.0,0.0,0.0
4788,63.0,236.0,270.0,0.0,0.0
4789,51.0,0.0,270.0,0.0,0.0
4790,54.0,0.0,270.0,0.0,0.0
4791,66.0,256.0,270.0,0.0,0.0
4792,57.0,20.0,15.0,0.0,0.0
4793,45.0,0.0,510.0,0.0,0.0
4794,33.0,0.0,510.0,0.0,0.0
4795,73.0,0.0,510.0,0.0,0.0
4796,69.0,0.0,1020.0,0.0,0.0
4797,64.0,0.0,270.0,0.0,0.0
4798,52.0,256.0,270.0,0.0,0.0
4799,57.0,256.0,270.0,0.0,0.0
4800,52.0,256.0,270.0,0.0,0.0
4801,64.0,0.0,270.0,0.0,0.0
4802,60.0,0.0,2040.0,0.0,0.0
4803,72.0,0.0,2040.0,0.0,0.0
4804,39.0,0.0,2040.0,0.0,0.0
4805,45.0,20.0,15.0,0.0,0.0
4806,69.0,20.0,510.0,0.0,0.0
4807,57.0,236.0,270.0,0.0,0.0
4808,66.0,256.0,270.0,0.0,0.0
4809,54.0,0.0,270.0,0.0,0.0
4810,51.0,256.0,270.0,0.0,0.0
4811,63.0,0.0,270.0,0.0,0.0
4812,54.0,0.0,270.0,0.0,0.0
4813,66.0,512.0,270.0,0.0,0.0
4814,69.0,492.0,540.0,0.0,0.0
4815,57.0,0.0,540.0,0.0,0.0
4816,66.0,0.0,270.0,0.0,0.0
4817,54.0,256.0,270.0,0.0,0.0
4818,69.0,256.0,270.0,0.0,0.0
4819,57.0,0.0,270.0,0.0,0.0
4820,71.0,256.0,270.0,0.0,0.0
4821,59.0,0.0,270.0,0.0,0.0
4822,61.0,256.0,270.0,0.0,0.0
4823,73.0,0.0,270.0,0.0,0.0
4824,69.0,256.0,270.0,0.0,0.0
4825,57.0,0.0,270.0,0.0,0.0
4826,54.0,256.0,270.0,0.0,0.0
4827,66.0,0.0,270.0,0.0,0.0
4828,69.0,256.0,270.0,0.0,0.0
4829,57.0,0.0,270.0,0.0,0.0
4830,61.0,256.0,270.0,0.0,0.0
4831,64.0,0.0,510.0,0.0,0.0
4832,76.0,0.0,510.0,0.0,0.0
4833,37.0,0.0,510.0,0.0,0.0
4834,49.0,0.0,510.0,0.0,0.0
4835,73.0,0.0,1020.0,0.0,0.0
4836,56.0,0.0,270.0,0.0,0.0
4837,68.0,0.0,270.0,0.0,0.0
4838,61.0,256.0,270.0,0.0,0.0
4839,56.0,0.0,270.0,0.0,0.0
4840,68.0,512.0,270.0,0.0,0.0
4841,63.0,0.0,2040.0,0.0,0.0
4842,75.0,1536.0,2040.0,0.0,0.0
4843,42.0,0.0,2040.0,0.0,0.0
4844,49.0,0.0,15.0,0.0,0.0
4845,73.0,0.0,510.0,0.0,0.0
4846,61.0,256.0,510.0,0.0,0.0
4847,69.0,0.0,270.0,0.0,0.0
4848,57.0,0.0,270.0,0.0,0.0
4849,54.0,256.0,270.0,0.0,0.0
4850,66.0,0.0,270.0,0.0,0.0
4851,69.0,0.0,270.0,0.0,0.0
4852,57.0,512.0,270.0,0.0,0.0
4853,73.0,0.0,510.0,0.0,0.0
4854,61.0,512.0,510.0,0.0,0.0
4855,57.0,256.0,270.0,0.0,0.0
4856,69.0,0.0,270.0,0.0,0.0
4857,73.0,256.0,270.0,0.0,0.0
4858,61.0,0.0,270.0,0.0,0.0
4859,75.0,0.0,270.0,0.0,0.0
4860,63.0,512.0,270.0,0.0,0.0
4861,64.0,306.0,1020.0,0.0,0.0
4862,76.0,0.0,1020.0,0.0,0.0
4863,73.0,0.0,210.0,0.0,0.0
4864,61.0,512.0,210.0,0.0,0.0
4865,57.0,0.0,450.0,0.0,0.0
4866,69.0,0.0,450.0,0.0,0.0
4867,73.0,0.0,210.0,0.0,0.0
4868,61.0,0.0,210.0,0.0,0.0
4869,80.0,0.0,510.0,0.0,0.0
4870,68.0,0.0,510.0,0.0,0.0
4871,40.0,0.0,510.0,0.0,0.0
4872,52.0,0.0,510.0,0.0,0.0
4873,64.0,206.0,300.0,0.0,0.0
4874,71.0,0.0,210.0,0.0,0.0
4875,59.0,0.0,210.0,0.0,0.0
4876,52.0,0.0,450.0,0.0,0.0
4877,64.0,256.0,210.0,0.0,0.0
4878,59.0,512.0,210.0,0.0,0.0
4879,71.0,0.0,210.0,0.0,0.0
4880,64.0,306.0,1020.0,0.0,0.0
4881,57.0,0.0,510.0,0.0,0.0
4882,76.0,0.0,15.0,0.0,0.0
4883,78.0,0.0,510.0,0.0,0.0
4884,45.0,512.0,510.0,0.0,0.0
4885,66.0,0.0,510.0,0.0,0.0
4886,73.0,0.0,210.0,0.0,0.0
4887,61.0,0.0,210.0,0.0,0.0
4888,57.0,0.0,450.0,0.0,0.0
4889,73.0,0.0,210.0,0.0,0.0
4890,61.0,0.0,210.0,0.0,0.0
4891,66.0,0.0,510.0,0.0,0.0
4892,69.0,0.0,15.0,0.0,0.0
4893,78.0,0.0,510.0,0.0,0.0
4894,63.0,206.0,300.0,0.0,0.0
4895,39.0,0.0,510.0,0.0,0.0
4896,51.0,256.0,510.0,0.0,0.0
4897,69.0,0.0,210.0,0.0,0.0
4898,57.0,0.0,210.0,0.0,0.0
4899,63.0,256.0,210.0,0.0,0.0
4900,51.0,0.0,450.0,0.0,0.0
4901,69.0,0.0,210.0,0.0,0.0
4902,57.0,512.0,210.0,0.0,0.0
4903,75.0,0.0,15.0,0.0,0.0
4904,63.0,0.0,1020.0,0.0,0.0
4905,56.0,0.0,510.0,0.0,0.0
4906,64.0,0.0,510.0,0.0,0.0
4907,76.0,0.0,510.0,0.0,0.0
4908,44.0,0.0,510.0,0.0,0.0
4909,71.0,0.0,210.0,0.0,0.0
4910,59.0,0.0,210.0,0.0,0.0
4911,68.0,256.0,210.0,0.0,0.0
4912,56.0,0.0,210.0,0.0,0.0
4913,59.0,306.0,210.0,0.0,0.0
4914,71.0,0.0,210.0,0.0,0.0
4915,76.0,0.0,510.0,0.0,0.0
4916,37.0,0.0,510.0,0.0,0.0
4917,49.0,256.0,510.0,0.0,0.0
4918,61.0,206.0,300.0,0.0,0.0
4919,64.0,0.0,510.0,0.0,0.0
4920,68.0,0.0,210.0,0.0,0.0
4921,56.0,0.0,210.0,0.0,0.0
4922,49.0,0.0,450.0,0.0,0.0
4923,61.0,256.0,210.0,0.0,0.0
4924,56.0,0.0,210.0,0.0,0.0
4925,68.0,512.0,210.0,0.0,0.0
4926,61.0,0.0,1020.0,0.0,0.0
4927,73.0,0.0,15.0,0.0,0.0
4928,63.0,256.0,510.0,0.0,0.0
4929,75.0,0.0,510.0,0.0,0.0
4930,42.0,0.0,510.0,0.0,0.0
4931,54.0,0.0,510.0,0.0,0.0
4932,69.0,0.0,210.0,0.0,0.0
4933,57.0,0.0,450.0,0.0,0.0
4934,66.0,256.0,210.0,0.0,0.0
4935,54.0,0.0,210.0,0.0,0.0
4936,57.0,0.0,210.0,0.0,0.0
4937,69.0,0.0,210.0,0.0,0.0
4938,73.0,306.0,15.0,0.0,0.0
4939,61.0,206.0,300.0,0.0,0.0
4940,64.0,256.0,510.0,0.0,0.0
4941,49.0,0.0,510.0,0.0,0.0
4942,37.0,0.0,510.0,0.0,0.0
4943,76.0,0.0,510.0,0.0,0.0
4944,68.0,0.0,210.0,0.0,0.0
4945,56.0,0.0,450.0,0.0,0.0
4946,61.0,0.0,210.0,0.0,0.0
4947,68.0,256.0,210.0,0.0,0.0
4948,56.0,0.0,210.0,0.0,0.0
4949,49.0,0.0,15.0,0.0,0.0
4950,75.0,60.0,510.0,0.0,0.0
4951,63.0,0.0,510.0,0.0,0.0
4952,73.0,0.0,15.0,0.0,0.0
4953,61.0,0.0,510.0,0.0,0.0
4954,70.0,0.0,270.0,0.0,0.0
4955,58.0,196.0,330.0,0.0,0.0
4956,67.0,0.0,15.0,0.0,0.0
4957,55.0,196.0,330.0,0.0,0.0
4958,58.0,196.0,330.0,0.0,0.0
4959,70.0,60.0,270.0,0.0,0.0
4960,67.0,60.0,270.0,0.0,0.0
4961,55.0,196.0,330.0,0.0,0.0
4962,75.0,60.0,510.0,0.0,0.0
4963,70.0,0.0,510.0,0.0,0.0
4964,63.0,0.0,270.0,0.0,0.0
4965,51.0,196.0,330.0,0.0,0.0
4966,61.0,60.0,270.0,0.0,0.0
4967,49.0,196.0,330.0,0.0,0.0
4968,51.0,196.0,330.0,0.0,0.0
4969,27.0,0.0,15.0,0.0,0.0
4970,39.0,60.0,15.0,0.0,0.0
4971,49.0,196.0,330.0,0.0,0.0
4972,75.0,60.0,510.0,0.0,0.0
4973,70.0,0.0,510.0,0.0,0.0
4974,67.0,0.0,510.0,0.0,0.0
4975,63.0,0.0,15.0,0.0,0.0
4976,61.0,60.0,270.0,0.0,0.0
4977,46.0,196.0,330.0,0.0,0.0
4978,58.0,0.0,270.0,0.0,0.0
4979,43.0,196.0,330.0,0.0,0.0
4980,55.0,60.0,270.0,0.0,0.0
4981,46.0,196.0,330.0,0.0,0.0
4982,58.0,60.0,270.0,0.0,0.0
4983,27.0,0.0,1020.0,0.0,0.0
4984,55.0,60.0,270.0,0.0,0.0
4985,43.0,196.0,330.0,0.0,0.0
4986,63.0,0.0,510.0,0.0,0.0
4987,67.0,60.0,510.0,0.0,0.0
4988,70.0,0.0,510.0,0.0,0.0
4989,75.0,0.0,510.0,0.0,0.0
4990,39.0,196.0,330.0,0.0,0.0
4991,51.0,0.0,270.0,0.0,0.0
4992,49.0,60.0,270.0,0.0,0.0
4993,37.0,196.0,330.0,0.0,0.0
4994,34.0,196.0,330.0,0.0,0.0
4995,46.0,0.0,270.0,0.0,0.0
4996,39.0,60.0,15.0,0.0,0.0
4997,44.0,0.0,510.0,0.0,0.0
4998,20.0,256.0,270.0,0.0,0.0
4999,32.0,256.0,270.0,0.0,0.0
5000,39.0,0.0,270.0,0.0,0.0
5001,51.0,256.0,270.0,0.0,0.0
5002,44.0,0.0,270.0,0.0,0.0
5003,56.0,171.0,270.0,0.0,0.0
5004,60.0,0.0,180.0,0.0,0.0
5005,48.0,170.0,180.0,0.0,0.0
5006,51.0,0.0,180.0,0.0,0.0
5007,63.0,171.0,180.0,0.0,0.0
5008,68.0,0.0,180.0,0.0,0.0
5009,56.0,171.0,180.0,0.0,0.0
5010,72.0,0.0,180.0,0.0,0.0
5011,60.0,170.0,180.0,0.0,0.0
5012,63.0,0.0,180.0,0.0,0.0
5013,75.0,171.0,180.0,0.0,0.0
5014,68.0,0.0,180.0,0.0,0.0
5015,80.0,512.0,180.0,0.0,0.0
5016,72.0,0.0,510.0,0.0,0.0
5017,84.0,0.0,510.0,0.0,0.0
5018,78.0,1536.0,510.0,0.0,0.0
5019,80.0,0.0,510.0,0.0,0.0
5020,66.0,0.0,510.0,0.0,0.0
5021,44.0,0.0,510.0,0.0,0.0
5022,51.0,0.0,510.0,0.0,0.0
5023,60.0,0.0,510.0,0.0,0.0
5024,72.0,0.0,510.0,0.0,0.0
5025,68.0,0.0,510.0,0.0,0.0
5026,56.0,0.0,510.0,0.0,0.0
5027,54.0,0.0,510.0,0.0,0.0
5028,49.0,0.0,1020.0,0.0,0.0
5029,85.0,0.0,1020.0,0.0,0.0
5030,76.0,0.0,1020.0,0.0,0.0
5031,37.0,0.0,2040.0,0.0,0.0
5032,61.0,492.0,1560.0,0.0,0.0
5033,64.0,0.0,1560.0,0.0,0.0
5034,52.0,0.0,1020.0,0.0,0.0
5035,80.0,0.0,510.0,0.0,0.0
5036,56.0,512.0,510.0,0.0,0.0
5037,73.0,20.0,510.0,0.0,0.0
5038,49.0,0.0,510.0,0.0,0.0
5039,44.0,20.0,510.0,0.0,0.0
5040,68.0,0.0,510.0,0.0,0.0
5041,63.0,512.0,540.0,0.0,0.0
5042,75.0,0.0,540.0,0.0,0.0
5043,64.0,492.0,540.0,0.0,0.0
5044,76.0,0.0,540.0,0.0,0.0
5045,25.0,20.0,2040.0,0.0,0.0
5046,37.0,0.0,1020.0,0.0,0.0
5047,49.0,0.0,1020.0,0.0,0.0
5048,73.0,0.0,510.0,0.0,0.0
5049,61.0,0.0,510.0,0.0,0.0
5050,69.0,0.0,510.0,0.0,0.0
5051,45.0,20.0,510.0,0.0,0.0
5052,57.0,0.0,540.0,0.0,0.0
5053,69.0,492.0,540.0,0.0,0.0
5054,40.0,0.0,510.0,0.0,0.0
5055,64.0,20.0,510.0,0.0,0.0
5056,37.0,0.0,510.0,0.0,0.0
5057,61.0,0.0,510.0,0.0,0.0
5058,76.0,0.0,1020.0,0.0,0.0
5059,61.0,0.0,20.0,0.0,0.0
5060,85.0,0.0,1020.0,0.0,0.0
5061,52.0,0.0,1020.0,0.0,0.0
5062,73.0,1004.0,20.0,0.0,0.0
5063,64.0,0.0,1560.0,0.0,0.0
5064,37.0,0.0,2040.0,0.0,0.0
5065,56.0,0.0,510.0,0.0,0.0
5066,80.0,0.0,510.0,0.0,0.0
5067,49.0,0.0,15.0,0.0,0.0
5068,73.0,20.0,510.0,0.0,0.0
5069,68.0,492.0,20.0,0.0,0.0
5070,44.0,20.0,510.0,0.0,0.0
5071,75.0,512.0,540.0,0.0,0.0
5072,63.0,0.0,540.0,0.0,0.0
5073,64.0,492.0,540.0,0.0,0.0
5074,76.0,0.0,540.0,0.0,0.0
5075,25.0,20.0,2040.0,0.0,0.0
5076,37.0,0.0,1020.0,0.0,0.0
5077,49.0,20.0,1020.0,0.0,0.0
5078,45.0,0.0,510.0,0.0,0.0
5079,73.0,0.0,510.0,0.0,0.0
5080,61.0,0.0,510.0,0.0,0.0
5081,69.0,0.0,15.0,0.0,0.0
5082,57.0,492.0,540.0,0.0,0.0
5083,40.0,20.0,510.0,0.0,0.0
5084,64.0,0.0,510.0,0.0,0.0
5085,73.0,1004.0,540.0,0.0,0.0
5086,61.0,0.0,510.0,0.0,0.0
5087,37.0,0.0,510.0,0.0,0.0
5088,72.0,0.0,1020.0,0.0,0.0
5089,84.0,0.0,1020.0,0.0,0.0
5090,60.0,0.0,1020.0,0.0,0.0
5091,48.0,0.0,1020.0,0.0,0.0
5092,44.0,0.0,2040.0,0.0,0.0
5093,36.0,0.0,2040.0,0.0,0.0
5094,68.0,0.0,1530.0,0.0,0.0
5095,63.0,0.0,1530.0,0.0,0.0
5096,56.0,512.0,510.0,0.0,0.0
5097,80.0,0.0,510.0,0.0,0.0
5098,51.0,512.0,510.0,0.0,0.0
5099,72.0,0.0,510.0,0.0,0.0
5100,48.0,0.0,510.0,0.0,0.0
5101,75.0,0.0,15.0,0.0,0.0
5102,63.0,0.0,510.0,0.0,0.0
5103,47.0,0.0,1020.0,0.0,0.0
5104,62.0,512.0,510.0,0.0,0.0
5105,74.0,0.0,510.0,0.0,0.0
5106,23.0,1024.0,2040.0,0.0,0.0
5107,35.0,0.0,1020.0,0.0,0.0
5108,44.0,0.0,510.0,0.0,0.0
5109,59.0,0.0,510.0,0.0,0.0
5110,68.0,0.0,510.0,0.0,0.0
5111,71.0,0.0,510.0,0.0,0.0
5112,56.0,0.0,510.0,0.0,0.0
5113,38.0,512.0,510.0,0.0,0.0
5114,62.0,0.0,510.0,0.0,0.0
5115,68.0,0.0,510.0,0.0,0.0
5116,35.0,0.0,510.0,0.0,0.0
5117,59.0,0.0,510.0,0.0,0.0
5118,71.0,0.0,510.0,0.0,0.0
5119,37.0,0.0,2040.0,0.0,0.0
5120,58.0,0.0,1020.0,0.0,0.0
5121,82.0,0.0,1020.0,0.0,0.0
5122,70.0,0.0,1020.0,0.0,0.0
5123,46.0,0.0,1020.0,0.0,0.0
5124,66.0,0.0,1530.0,0.0,0.0
5125,61.0,0.0,1530.0,0.0,0.0
5126,78.0,512.0,510.0,0.0,0.0
5127,54.0,0.0,510.0,0.0,0.0
5128,49.0,512.0,510.0,0.0,0.0
5129,73.0,0.0,510.0,0.0,0.0
5130,70.0,0.0,510.0,0.0,0.0
5131,46.0,0.0,510.0,0.0,0.0
5132,61.0,0.0,510.0,0.0,0.0
5133,73.0,0.0,510.0,0.0,0.0
5134,45.0,0.0,1020.0,0.0,0.0
5135,60.0,0.0,510.0,0.0,0.0
5136,72.0,512.0,510.0,0.0,0.0
5137,21.0,0.0,2040.0,0.0,0.0
5138,33.0,0.0,1020.0,0.0,0.0
5139,66.0,0.0,510.0,0.0,0.0
5140,42.0,512.0,510.0,0.0,0.0
5141,57.0,0.0,510.0,0.0,0.0
5142,69.0,0.0,510.0,0.0,0.0
5143,39.0,512.0,510.0,0.0,0.0
5144,63.0,0.0,510.0,0.0,0.0
5145,66.0,0.0,510.0,0.0,0.0
5146,54.0,0.0,510.0,0.0,0.0
5147,61.0,0.0,510.0,0.0,0.0
5148,57.0,0.0,510.0,0.0,0.0
5149,73.0,0.0,510.0,0.0,0.0
5150,45.0,512.0,2040.0,0.0,0.0
5151,42.0,0.0,2040.0,0.0,0.0
5152,33.0,0.0,15.0,0.0,0.0
5153,72.0,512.0,1530.0,0.0,0.0
5154,60.0,0.0,1530.0,0.0,0.0
5155,51.0,171.0,180.0,0.0,0.0
5156,54.0,171.0,180.0,0.0,0.0
5157,63.0,170.0,15.0,0.0,0.0
5158,66.0,512.0,180.0,0.0,0.0
5159,75.0,0.0,510.0,0.0,0.0
5160,61.0,0.0,510.0,0.0,0.0
5161,73.0,0.0,510.0,0.0,0.0
5162,72.0,0.0,510.0,0.0,0.0
5163,60.0,0.0,510.0,0.0,0.0
5164,20.0,341.0,2040.0,0.0,0.0
5165,56.0,0.0,510.0,0.0,0.0
5166,68.0,512.0,510.0,0.0,0.0
5167,32.0,0.0,510.0,0.0,0.0
5168,44.0,0.0,510.0,0.0,0.0
5169,42.0,0.0,510.0,0.0,0.0
5170,69.0,0.0,510.0,0.0,0.0
5171,57.0,0.0,510.0,0.0,0.0
5172,66.0,512.0,15.0,0.0,0.0
5173,39.0,0.0,510.0,0.0,0.0
5174,63.0,0.0,510.0,0.0,0.0
5175,54.0,0.0,510.0,0.0,0.0
5176,32.0,0.0,510.0,0.0,0.0
5177,56.0,0.0,510.0,0.0,0.0
5178,61.0,0.0,510.0,0.0,0.0
5179,73.0,0.0,510.0,0.0,0.0
5180,42.0,0.0,2040.0,0.0,0.0
5181,44.0,0.0,2040.0,0.0,0.0
5182,60.0,0.0,1530.0,0.0,0.0
5183,72.0,256.0,1530.0,0.0,0.0
5184,51.0,171.0,180.0,0.0,0.0
5185,54.0,171.0,180.0,0.0,0.0
5186,63.0,170.0,180.0,0.0,0.0
5187,63.0,171.0,180.0,0.0,0.0
5188,66.0,512.0,180.0,0.0,0.0
5189,75.0,0.0,510.0,0.0,0.0
5190,51.0,0.0,270.0,0.0,0.0
5191,61.0,236.0,540.0,0.0,0.0
5192,73.0,0.0,540.0,0.0,0.0
5193,54.0,256.0,270.0,0.0,0.0
5194,56.0,20.0,270.0,0.0,0.0
5195,57.0,56.0,270.0,0.0,0.0
5196,72.0,200.0,300.0,0.0,0.0
5197,60.0,0.0,300.0,0.0,0.0
5198,54.0,256.0,270.0,0.0,0.0
5199,63.0,236.0,540.0,0.0,0.0
5200,75.0,0.0,540.0,0.0,0.0
5201,51.0,256.0,270.0,0.0,0.0
5202,54.0,20.0,270.0,0.0,0.0
5203,52.0,56.0,270.0,0.0,0.0
5204,73.0,0.0,300.0,0.0,0.0
5205,61.0,200.0,300.0,0.0,0.0
5206,49.0,0.0,270.0,0.0,0.0
5207,56.0,0.0,270.0,0.0,0.0
5208,44.0,0.0,270.0,0.0,0.0
5209,68.0,256.0,15.0,0.0,0.0
5210,80.0,236.0,540.0,0.0,0.0
5211,73.0,256.0,270.0,0.0,0.0
5212,61.0,0.0,270.0,0.0,0.0
5213,40.0,0.0,270.0,0.0,0.0
5214,75.0,0.0,270.0,0.0,0.0
5215,63.0,20.0,270.0,0.0,0.0
5216,49.0,0.0,1020.0,0.0,0.0
5217,46.0,0.0,1020.0,0.0,0.0
5218,64.0,256.0,270.0,0.0,0.0
5219,79.0,256.0,1530.0,0.0,0.0
5220,67.0,0.0,1530.0,0.0,0.0
5221,76.0,0.0,270.0,0.0,0.0
5222,39.0,0.0,1020.0,0.0,0.0
5223,61.0,0.0,270.0,0.0,0.0
5224,73.0,256.0,270.0,0.0,0.0
5225,58.0,256.0,270.0,0.0,0.0
5226,70.0,0.0,270.0,0.0,0.0
5227,61.0,512.0,270.0,0.0,0.0
5228,73.0,0.0,270.0,0.0,0.0
5229,64.0,0.0,510.0,0.0,0.0
5230,76.0,0.0,510.0,0.0,0.0
5231,58.0,0.0,270.0,0.0,0.0
5232,80.0,236.0,540.0,0.0,0.0
5233,61.0,256.0,270.0,0.0,0.0
5234,68.0,0.0,540.0,0.0,0.0
5235,63.0,20.0,270.0,0.0,0.0
5236,67.0,0.0,300.0,0.0,0.0
5237,64.0,56.0,270.0,0.0,0.0
5238,79.0,200.0,300.0,0.0,0.0
5239,61.0,256.0,270.0,0.0,0.0
5240,70.0,236.0,540.0,0.0,0.0
5241,82.0,0.0,540.0,0.0,0.0
5242,58.0,256.0,270.0,0.0,0.0
5243,61.0,20.0,270.0,0.0,0.0
5244,59.0,56.0,270.0,0.0,0.0
5245,80.0,200.0,300.0,0.0,0.0
5246,68.0,0.0,300.0,0.0,0.0
5247,56.0,0.0,270.0,0.0,0.0
5248,63.0,0.0,270.0,0.0,0.0
5249,68.0,256.0,270.0,0.0,0.0
5250,80.0,0.0,270.0,0.0,0.0
5251,75.0,256.0,15.0,0.0,0.0
5252,87.0,0.0,540.0,0.0,0.0
5253,51.0,0.0,270.0,0.0,0.0
5254,47.0,20.0,270.0,0.0,0.0
5255,82.0,0.0,270.0,0.0,0.0
5256,70.0,0.0,270.0,0.0,0.0
5257,86.0,0.0,1530.0,0.0,0.0
5258,74.0,0.0,1530.0,0.0,0.0
5259,71.0,0.0,270.0,0.0,0.0
5260,46.0,0.0,1530.0,0.0,0.0
5261,83.0,256.0,270.0,0.0,0.0
5262,81.0,0.0,1530.0,0.0,0.0
5263,68.0,256.0,270.0,0.0,0.0
5264,80.0,0.0,270.0,0.0,0.0
5265,65.0,256.0,270.0,0.0,0.0
5266,77.0,0.0,270.0,0.0,0.0
5267,80.0,128.0,270.0,0.0,0.0
5268,68.0,0.0,270.0,0.0,0.0
5269,71.0,384.0,120.0,0.0,0.0
5270,83.0,0.0,120.0,0.0,0.0
5271,65.0,0.0,270.0,0.0,0.0
5272,53.0,0.0,270.0,0.0,0.0
5273,56.0,0.0,15.0,0.0,0.0
5274,68.0,0.0,270.0,0.0,0.0
5275,63.0,0.0,510.0,0.0,0.0
5276,75.0,0.0,510.0,0.0,0.0
5277,70.0,256.0,270.0,0.0,0.0
5278,58.0,0.0,270.0,0.0,0.0
5279,62.0,0.0,1530.0,0.0,0.0
5280,74.0,0.0,1530.0,0.0,0.0
5281,34.0,0.0,1530.0,0.0,0.0
5282,41.0,0.0,1530.0,0.0,0.0
5283,46.0,256.0,1530.0,0.0,0.0
5284,59.0,256.0,270.0,0.0,0.0
5285,71.0,0.0,270.0,0.0,0.0
5286,68.0,0.0,270.0,0.0,0.0
5287,56.0,256.0,270.0,0.0,0.0
5288,65.0,128.0,270.0,0.0,0.0
5289,53.0,0.0,270.0,0.0,0.0
5290,68.0,128.0,120.0,0.0,0.0
5291,56.0,128.0,270.0,0.0,0.0
5292,59.0,128.0,120.0,0.0,0.0
5293,71.0,256.0,270.0,0.0,0.0
5294,77.0,0.0,270.0,0.0,0.0
5295,80.0,256.0,270.0,0.0,0.0
5296,86.0,0.0,510.0,0.0,0.0
5297,74.0,0.0,510.0,0.0,0.0
5298,83.0,256.0,270.0,0.0,0.0
5299,54.0,0.0,1020.0,0.0,0.0
5300,46.0,0.0,1020.0,0.0,0.0
5301,58.0,0.0,1020.0,0.0,0.0
5302,85.0,256.0,270.0,0.0,0.0
5303,78.0,256.0,270.0,0.0,0.0
5304,73.0,256.0,270.0,0.0,0.0
5305,78.0,0.0,270.0,0.0,0.0
5306,85.0,0.0,15.0,0.0,0.0
5307,57.0,0.0,330.0,0.0,0.0
5308,45.0,171.0,330.0,0.0,0.0
5309,78.0,0.0,15.0,0.0,0.0
5310,73.0,256.0,15.0,0.0,0.0
5311,66.0,0.0,270.0,0.0,0.0
5312,56.0,85.0,330.0,0.0,0.0
5313,44.0,0.0,330.0,0.0,0.0
5314,61.0,256.0,270.0,0.0,0.0
5315,54.0,0.0,1380.0,0.0,0.0
5316,42.0,0.0,1380.0,0.0,0.0
5317,66.0,0.0,270.0,0.0,0.0
5318,69.0,256.0,510.0,0.0,0.0
5319,81.0,256.0,270.0,0.0,0.0
5320,74.0,0.0,270.0,0.0,0.0
5321,69.0,256.0,270.0,0.0,0.0
5322,74.0,0.0,270.0,0.0,0.0
5323,81.0,0.0,15.0,0.0,0.0
5324,69.0,0.0,15.0,0.0,0.0
5325,74.0,256.0,15.0,0.0,0.0
5326,41.0,0.0,330.0,0.0,0.0
5327,53.0,171.0,330.0,0.0,0.0
5328,62.0,0.0,270.0,0.0,0.0
5329,40.0,0.0,330.0,0.0,0.0
5330,52.0,85.0,330.0,0.0,0.0
5331,57.0,256.0,270.0,0.0,0.0
5332,50.0,0.0,1380.0,0.0,0.0
5333,38.0,341.0,1380.0,0.0,0.0
5334,62.0,0.0,270.0,0.0,0.0
5335,69.0,0.0,15.0,0.0,0.0
5336,77.0,256.0,270.0,0.0,0.0
5337,69.0,0.0,270.0,0.0,0.0
5338,65.0,256.0,15.0,0.0,0.0
5339,69.0,0.0,270.0,0.0,0.0
5340,65.0,0.0,15.0,0.0,0.0
5341,48.0,171.0,330.0,0.0,0.0
5342,36.0,0.0,330.0,0.0,0.0
5343,62.0,0.0,1020.0,0.0,0.0
5344,77.0,171.0,510.0,0.0,0.0
5345,57.0,0.0,270.0,0.0,0.0
5346,34.0,0.0,330.0,0.0,0.0
5347,46.0,85.0,330.0,0.0,0.0
5348,53.0,256.0,270.0,0.0,0.0
5349,33.0,0.0,1380.0,0.0,0.0
5350,45.0,0.0,1380.0,0.0,0.0
5351,57.0,0.0,270.0,0.0,0.0
5352,55.0,0.0,270.0,0.0,0.0
5353,67.0,256.0,270.0,0.0,0.0
5354,64.0,0.0,270.0,0.0,0.0
5355,52.0,256.0,270.0,0.0,0.0
5356,49.0,256.0,270.0,0.0,0.0
5357,61.0,0.0,270.0,0.0,0.0
5358,64.0,0.0,270.0,0.0,0.0
5359,52.0,0.0,270.0,0.0,0.0
5360,56.0,0.0,1020.0,0.0,0.0
5361,68.0,0.0,1020.0,0.0,0.0
5362,44.0,0.0,330.0,0.0,0.0
5363,32.0,171.0,330.0,0.0,0.0
5364,64.0,341.0,15.0,0.0,0.0
5365,52.0,0.0,270.0,0.0,0.0
5366,64.0,171.0,270.0,0.0,0.0
5367,42.0,0.0,330.0,0.0,0.0
5368,30.0,85.0,330.0,0.0,0.0
5369,49.0,0.0,270.0,0.0,0.0
5370,61.0,256.0,270.0,0.0,0.0
5371,40.0,1024.0,330.0,0.0,0.0
5372,28.0,0.0,330.0,0.0,0.0
5373,52.0,0.0,270.0,0.0,0.0
5374,64.0,0.0,270.0,0.0,0.0
5375,57.0,0.0,1020.0,0.0,0.0
5376,66.0,768.0,1020.0,0.0,0.0
5377,54.0,0.0,1020.0,0.0,0.0
5378,49.0,0.0,1020.0,0.0,0.0
5379,61.0,0.0,1020.0,0.0,0.0
5380,39.0,0.0,1020.0,0.0,0.0
5381,27.0,0.0,1020.0,0.0,0.0
5382,69.0,0.0,1020.0,0.0,0.0
5383,56.0,0.0,780.0,0.0,0.0
5384,68.0,256.0,780.0,0.0,0.0
5385,57.0,0.0,270.0,0.0,0.0
5386,51.0,0.0,1020.0,0.0,0.0
5387,69.0,1024.0,15.0,0.0,0.0
5388,20.0,0.0,1020.0,0.0,0.0
5389,57.0,512.0,1530.0,0.0,0.0
5390,44.0,0.0,1020.0,0.0,0.0
5391,32.0,0.0,1020.0,0.0,0.0
5392,54.0,512.0,1020.0,0.0,0.0
5393,60.0,0.0,1020.0,0.0,0.0
5394,48.0,0.0,510.0,0.0,0.0
5395,60.0,683.0,510.0,0.0,0.0
5396,62.0,768.0,1050.0,0.0,0.0
5397,37.0,20.0,1020.0,0.0,0.0
5398,49.0,341.0,330.0,0.0,0.0
5399,54.0,0.0,1020.0,0.0,0.0
5400,57.0,0.0,690.0,0.0,0.0
5401,61.0,236.0,120.0,0.0,0.0
5402,62.0,0.0,270.0,0.0,0.0
5403,35.0,0.0,1020.0,0.0,0.0
5404,53.0,0.0,1020.0,0.0,0.0
5405,47.0,341.0,330.0,0.0,0.0
5406,57.0,0.0,330.0,0.0,0.0
5407,56.0,0.0,1020.0,0.0,0.0
5408,62.0,492.0,180.0,0.0,0.0
5409,53.0,512.0,540.0,0.0,0.0
5410,68.0,20.0,330.0,0.0,0.0
5411,33.0,0.0,1020.0,0.0,0.0
5412,56.0,0.0,15.0,0.0,0.0
5413,61.0,0.0,1020.0,0.0,0.0
5414,45.0,0.0,1020.0,0.0,0.0
5415,49.0,0.0,690.0,0.0,0.0
5416,54.0,0.0,540.0,0.0,0.0
5417,59.0,20.0,330.0,0.0,0.0
5418,45.0,151.0,540.0,0.0,0.0
5419,30.0,0.0,1020.0,0.0,0.0
5420,42.0,20.0,1020.0,0.0,0.0
5421,57.0,0.0,1020.0,0.0,0.0
5422,61.0,341.0,330.0,0.0,0.0
5423,47.0,663.0,540.0,0.0,0.0
5424,66.0,0.0,330.0,0.0,0.0
5425,44.0,0.0,2040.0,0.0,0.0
5426,29.0,683.0,1020.0,0.0,0.0
5427,41.0,0.0,1020.0,0.0,0.0
5428,49.0,341.0,330.0,0.0,0.0
5429,61.0,0.0,330.0,0.0,0.0
5430,56.0,0.0,15.0,0.0,0.0
5431,59.0,341.0,330.0,0.0,0.0
5432,68.0,683.0,330.0,0.0,0.0
5433,30.0,0.0,1020.0,0.0,0.0
5434,62.0,321.0,1050.0,0.0,0.0
5435,57.0,342.0,1380.0,0.0,0.0
5436,42.0,20.0,1020.0,0.0,0.0
5437,45.0,341.0,330.0,0.0,0.0
5438,49.0,0.0,330.0,0.0,0.0
5439,54.0,0.0,1020.0,0.0,0.0
5440,57.0,105.0,330.0,0.0,0.0
5441,61.0,236.0,120.0,0.0,0.0
5442,67.0,0.0,270.0,0.0,0.0
5443,64.0,0.0,1020.0,0.0,0.0
5444,28.0,532.0,1020.0,0.0,0.0
5445,40.0,0.0,1020.0,0.0,0.0
5446,67.0,151.0,1560.0,0.0,0.0
5447,47.0,341.0,330.0,0.0,0.0
5448,52.0,0.0,330.0,0.0,0.0
5449,59.0,341.0,330.0,0.0,0.0
5450,66.0,512.0,540.0,0.0,0.0
5451,55.0,0.0,330.0,0.0,0.0
5452,67.0,151.0,540.0,0.0,0.0
5453,59.0,0.0,15.0,0.0,0.0
5454,26.0,0.0,1020.0,0.0,0.0
5455,38.0,0.0,1020.0,0.0,0.0
5456,71.0,0.0,1020.0,0.0,0.0
5457,47.0,341.0,330.0,0.0,0.0
5458,62.0,663.0,540.0,0.0,0.0
5459,50.0,20.0,330.0,0.0,0.0
5460,59.0,341.0,330.0,0.0,0.0
5461,61.0,663.0,540.0,0.0,0.0
5462,62.0,0.0,330.0,0.0,0.0
5463,67.0,0.0,1020.0,0.0,0.0
5464,55.0,20.0,15.0,0.0,0.0
5465,62.0,663.0,1050.0,0.0,0.0
5466,23.0,0.0,1020.0,0.0,0.0
5467,35.0,0.0,1020.0,0.0,0.0
5468,50.0,341.0,330.0,0.0,0.0
5469,55.0,20.0,330.0,0.0,0.0
5470,59.0,0.0,1020.0,0.0,0.0
5471,62.0,341.0,330.0,0.0,0.0
5472,67.0,20.0,330.0,0.0,0.0
5473,25.0,0.0,690.0,0.0,0.0
5474,54.0,0.0,1020.0,0.0,0.0
5475,57.0,20.0,1020.0,0.0,0.0
5476,74.0,663.0,1050.0,0.0,0.0
5477,37.0,341.0,330.0,0.0,0.0
5478,42.0,0.0,330.0,0.0,0.0
5479,73.0,236.0,780.0,0.0,0.0
5480,49.0,683.0,1020.0,0.0,0.0
5481,57.0,105.0,330.0,0.0,0.0
5482,66.0,0.0,330.0,0.0,0.0
5483,74.0,0.0,270.0,0.0,0.0
5484,65.0,0.0,1020.0,0.0,0.0
5485,53.0,0.0,1020.0,0.0,0.0
5486,74.0,151.0,1560.0,0.0,0.0
5487,56.0,0.0,1020.0,0.0,0.0
5488,25.0,0.0,690.0,0.0,0.0
5489,37.0,341.0,330.0,0.0,0.0
5490,44.0,532.0,330.0,0.0,0.0
5491,49.0,20.0,1020.0,0.0,0.0
5492,53.0,0.0,330.0,0.0,0.0
5493,73.0,562.0,540.0,0.0,0.0
5494,68.0,0.0,330.0,0.0,0.0
5495,59.0,341.0,15.0,0.0,0.0
5496,74.0,101.0,570.0,0.0,0.0
5497,25.0,0.0,690.0,0.0,0.0
5498,57.0,0.0,1020.0,0.0,0.0
5499,54.0,20.0,1020.0,0.0,0.0
5500,37.0,341.0,330.0,0.0,0.0
5501,73.0,512.0,480.0,0.0,0.0
5502,42.0,0.0,330.0,0.0,0.0
5503,49.0,20.0,1020.0,0.0,0.0
5504,69.0,151.0,480.0,0.0,0.0
5505,57.0,341.0,330.0,0.0,0.0
5506,71.0,663.0,480.0,0.0,0.0
5507,66.0,0.0,330.0,0.0,0.0
5508,53.0,683.0,1020.0,0.0,0.0
5509,56.0,0.0,1020.0,0.0,0.0
5510,65.0,0.0,1020.0,0.0,0.0
5511,25.0,0.0,690.0,0.0,0.0
5512,73.0,0.0,1020.0,0.0,0.0
5513,37.0,341.0,330.0,0.0,0.0
5514,44.0,0.0,330.0,0.0,0.0
5515,49.0,0.0,1020.0,0.0,0.0
5516,59.0,341.0,330.0,0.0,0.0
5517,68.0,341.0,330.0,0.0,0.0
5518,74.0,683.0,1020.0,0.0,0.0
5519,30.0,341.0,690.0,0.0,0.0
5520,42.0,342.0,330.0,0.0,0.0
5521,49.0,0.0,330.0,0.0,0.0
5522,54.0,0.0,330.0,0.0,0.0
5523,57.0,0.0,15.0,0.0,0.0
5524,73.0,256.0,780.0,0.0,0.0
5525,57.0,85.0,330.0,0.0,0.0
5526,66.0,0.0,330.0,0.0,0.0
5527,40.0,0.0,330.0,0.0,0.0
5528,28.0,341.0,690.0,0.0,0.0
5529,67.0,0.0,1020.0,0.0,0.0
5530,79.0,0.0,15.0,0.0,0.0
5531,59.0,0.0,15.0,0.0,0.0
5532,55.0,0.0,15.0,0.0,0.0
5533,52.0,342.0,15.0,0.0,0.0
5534,47.0,0.0,330.0,0.0,0.0
5535,59.0,0.0,15.0,0.0,0.0
5536,52.0,0.0,15.0,0.0,0.0
5537,55.0,0.0,15.0,0.0,0.0
5538,59.0,0.0,330.0,0.0,0.0
5539,52.0,171.0,15.0,0.0,0.0
5540,59.0,0.0,330.0,0.0,0.0
5541,64.0,0.0,330.0,0.0,0.0
5542,59.0,341.0,15.0,0.0,0.0
5543,55.0,0.0,15.0,0.0,0.0
5544,52.0,0.0,15.0,0.0,0.0
5545,67.0,0.0,1020.0,0.0,0.0
5546,33.0,0.0,2040.0,0.0,0.0
5547,74.0,0.0,15.0,0.0,0.0
5548,55.0,0.0,1020.0,0.0,0.0
5549,52.0,683.0,15.0,0.0,0.0
5550,45.0,341.0,330.0,0.0,0.0
5551,52.0,0.0,330.0,0.0,0.0
5552,57.0,683.0,15.0,0.0,0.0
5553,73.0,256.0,780.0,0.0,0.0
5554,64.0,85.0,330.0,0.0,0.0
5555,69.0,0.0,330.0,0.0,0.0
5556,34.0,0.0,2040.0,0.0,0.0
5557,74.0,341.0,1020.0,0.0,0.0
5558,67.0,0.0,1020.0,0.0,0.0
5559,46.0,342.0,330.0,0.0,0.0
5560,79.0,341.0,15.0,0.0,0.0
5561,58.0,0.0,15.0,0.0,0.0
5562,50.0,0.0,330.0,0.0,0.0
5563,62.0,0.0,15.0,0.0,0.0
5564,55.0,0.0,15.0,0.0,0.0
5565,58.0,0.0,15.0,0.0,0.0
5566,62.0,341.0,15.0,0.0,0.0
5567,62.0,0.0,15.0,0.0,0.0
5568,55.0,0.0,15.0,0.0,0.0
5569,62.0,0.0,15.0,0.0,0.0
5570,55.0,171.0,15.0,0.0,0.0
5571,62.0,0.0,330.0,0.0,0.0
5572,74.0,0.0,510.0,0.0,0.0
5573,58.0,0.0,15.0,0.0,0.0
5574,55.0,0.0,15.0,0.0,0.0
5575,62.0,341.0,15.0,0.0,0.0
5576,67.0,0.0,330.0,0.0,0.0
5577,64.0,341.0,1020.0,0.0,0.0
5578,70.0,341.0,690.0,0.0,0.0
5579,48.0,0.0,1020.0,0.0,0.0
5580,74.0,0.0,1020.0,0.0,0.0
5581,55.0,0.0,330.0,0.0,0.0
5582,58.0,0.0,330.0,0.0,0.0
5583,36.0,0.0,15.0,0.0,0.0
5584,72.0,256.0,780.0,0.0,0.0
5585,55.0,0.0,330.0,0.0,0.0
5586,58.0,0.0,330.0,0.0,0.0
5587,64.0,342.0,330.0,0.0,0.0
5588,48.0,0.0,1020.0,0.0,0.0
5589,58.0,0.0,15.0,0.0,0.0
5590,64.0,0.0,15.0,0.0,0.0
5591,55.0,85.0,15.0,0.0,0.0
5592,70.0,0.0,690.0,0.0,0.0
5593,37.0,0.0,1020.0,0.0,0.0
5594,49.0,0.0,1020.0,0.0,0.0
5595,58.0,0.0,15.0,0.0,0.0
5596,79.0,0.0,15.0,0.0,0.0
5597,67.0,0.0,15.0,0.0,0.0
5598,55.0,0.0,330.0,0.0,0.0
5599,64.0,341.0,330.0,0.0,0.0
5600,58.0,0.0,330.0,0.0,0.0
5601,38.0,0.0,1020.0,0.0,0.0
5602,50.0,0.0,1020.0,0.0,0.0
5603,62.0,342.0,330.0,0.0,0.0
5604,58.0,341.0,15.0,0.0,0.0
5605,55.0,0.0,15.0,0.0,0.0
5606,70.0,256.0,780.0,0.0,0.0
5607,62.0,0.0,330.0,0.0,0.0
5608,58.0,0.0,15.0,0.0,0.0
5609,55.0,85.0,15.0,0.0,0.0
5610,62.0,0.0,330.0,0.0,0.0
5611,70.0,0.0,690.0,0.0,0.0
5612,61.0,341.0,1020.0,0.0,0.0
5613,58.0,683.0,15.0,0.0,0.0
5614,39.0,0.0,1020.0,0.0,0.0
5615,55.0,0.0,15.0,0.0,0.0
5616,79.0,0.0,15.0,0.0,0.0
5617,51.0,0.0,1020.0,0.0,0.0
5618,67.0,0.0,15.0,0.0,0.0
5619,55.0,341.0,330.0,0.0,0.0
5620,58.0,0.0,330.0,0.0,0.0
5621,40.0,0.0,1020.0,0.0,0.0
5622,58.0,0.0,15.0,0.0,0.0
5623,70.0,256.0,780.0,0.0,0.0
5624,52.0,0.0,330.0,0.0,0.0
5625,55.0,0.0,330.0,0.0,0.0
5626,61.0,342.0,330.0,0.0,0.0
5627,52.0,0.0,330.0,0.0,0.0
5628,55.0,0.0,330.0,0.0,0.0
5629,58.0,0.0,330.0,0.0,0.0
5630,61.0,85.0,330.0,0.0,0.0
5631,52.0,0.0,330.0,0.0,0.0
5632,55.0,0.0,330.0,0.0,0.0
5633,58.0,0.0,330.0,0.0,0.0
5634,61.0,0.0,330.0,0.0,0.0
5635,79.0,341.0,270.0,0.0,0.0
5636,67.0,0.0,270.0,0.0,0.0
5637,58.0,0.0,1020.0,0.0,0.0
5638,62.0,0.0,1020.0,0.0,0.0
5639,80.0,0.0,1020.0,0.0,0.0
5640,41.0,0.0,1020.0,0.0,0.0
5641,70.0,342.0,330.0,0.0,0.0
5642,68.0,0.0,1020.0,0.0,0.0
5643,53.0,341.0,330.0,0.0,0.0
5644,56.0,0.0,330.0,0.0,0.0
5645,50.0,0.0,330.0,0.0,0.0
5646,53.0,0.0,15.0,0.0,0.0
5647,34.0,0.0,1020.0,0.0,0.0
5648,62.0,85.0,690.0,0.0,0.0
5649,65.0,0.0,330.0,0.0,0.0
5650,53.0,342.0,15.0,0.0,0.0
5651,46.0,0.0,15.0,0.0,0.0
5652,53.0,0.0,15.0,0.0,0.0
5653,50.0,0.0,15.0,0.0,0.0
5654,46.0,0.0,15.0,0.0,0.0
5655,68.0,256.0,90.0,0.0,0.0
5656,74.0,0.0,270.0,0.0,0.0
5657,80.0,341.0,270.0,0.0,0.0
5658,64.0,0.0,510.0,0.0,0.0
5659,33.0,171.0,330.0,0.0,0.0
5660,61.0,0.0,510.0,0.0,0.0
5661,69.0,0.0,510.0,0.0,0.0
5662,73.0,0.0,510.0,0.0,0.0
5663,81.0,0.0,510.0,0.0,0.0
5664,46.0,141.0,330.0,0.0,0.0
5665,82.0,0.0,300.0,0.0,0.0
5666,70.0,0.0,300.0,0.0,0.0
5667,73.0,0.0,270.0,0.0,0.0
5668,57.0,0.0,15.0,0.0,0.0
5669,52.0,0.0,15.0,0.0,0.0
5670,45.0,0.0,15.0,0.0,0.0
5671,45.0,256.0,15.0,0.0,0.0
5672,64.0,0.0,270.0,0.0,0.0
5673,61.0,0.0,270.0,0.0,0.0
5674,81.0,85.0,270.0,0.0,0.0
5675,69.0,0.0,270.0,0.0,0.0
5676,46.0,341.0,330.0,0.0,0.0
5677,45.0,341.0,330.0,0.0,0.0
5678,45.0,342.0,330.0,0.0,0.0
5679,46.0,341.0,330.0,0.0,0.0
5680,45.0,341.0,330.0,0.0,0.0
5681,45.0,342.0,330.0,0.0,0.0
5682,46.0,341.0,330.0,0.0,0.0
5683,45.0,341.0,15.0,0.0,0.0
5684,38.0,342.0,330.0,0.0,0.0
5685,46.0,341.0,330.0,0.0,0.0
5686,45.0,341.0,15.0,0.0,0.0
5687,38.0,0.0,330.0,0.0,0.0
5688,46.0,341.0,330.0,0.0,0.0
5689,45.0,341.0,330.0,0.0,0.0
5690,45.0,342.0,330.0,0.0,0.0
5691,38.0,0.0,330.0,0.0,0.0
5692,46.0,341.0,330.0,0.0,0.0
5693,45.0,341.0,15.0,0.0,0.0
5694,38.0,0.0,330.0,0.0,0.0
5695,46.0,85.0,330.0,0.0,0.0
5696,89.0,0.0,270.0,0.0,0.0
5697,93.0,0.0,270.0,0.0,0.0
5698,69.0,256.0,270.0,0.0,0.0
5699,81.0,0.0,270.0,0.0,0.0
5700,50.0,0.0,270.0,0.0,0.0
5701,45.0,341.0,330.0,0.0,0.0
5702,50.0,0.0,510.0,0.0,0.0
5703,81.0,0.0,510.0,0.0,0.0
5704,62.0,0.0,510.0,0.0,0.0
5705,69.0,0.0,510.0,0.0,0.0
5706,57.0,0.0,510.0,0.0,0.0
5707,53.0,0.0,510.0,0.0,0.0
5708,77.0,171.0,510.0,0.0,0.0
5709,38.0,171.0,330.0,0.0,0.0
5710,45.0,0.0,330.0,0.0,0.0
5711,46.0,91.0,330.0,0.0,0.0
5712,70.0,256.0,510.0,0.0,0.0
5713,82.0,0.0,270.0,0.0,0.0
5714,55.0,0.0,270.0,0.0,0.0
5715,58.0,250.0,270.0,0.0,0.0
5716,49.0,0.0,270.0,0.0,0.0
5717,79.0,0.0,270.0,0.0,0.0
5718,61.0,0.0,510.0,0.0,0.0
5719,45.0,0.0,330.0,0.0,0.0
5720,69.0,0.0,270.0,0.0,0.0
5721,45.0,342.0,330.0,0.0,0.0
5722,77.0,0.0,270.0,0.0,0.0
5723,38.0,0.0,330.0,0.0,0.0
5724,81.0,0.0,270.0,0.0,0.0
5725,57.0,0.0,270.0,0.0,0.0
5726,50.0,85.0,270.0,0.0,0.0
5727,62.0,0.0,270.0,0.0,0.0
5728,53.0,0.0,270.0,0.0,0.0
5729,46.0,341.0,330.0,0.0,0.0
5730,65.0,0.0,270.0,0.0,0.0
5731,89.0,0.0,270.0,0.0,0.0
5732,62.0,0.0,270.0,0.0,0.0
5733,57.0,0.0,270.0,0.0,0.0
5734,77.0,0.0,15.0,0.0,0.0
5735,74.0,0.0,510.0,0.0,0.0
5736,65.0,0.0,510.0,0.0,0.0
5737,57.0,171.0,510.0,0.0,0.0
5738,53.0,0.0,510.0,0.0,0.0
5739,38.0,0.0,330.0,0.0,0.0
5740,45.0,341.0,15.0,0.0,0.0
5741,69.0,0.0,510.0,0.0,0.0
5742,50.0,0.0,510.0,0.0,0.0
5743,46.0,91.0,330.0,0.0,0.0
5744,76.0,250.0,270.0,0.0,0.0
5745,79.0,0.0,270.0,0.0,0.0
5746,52.0,0.0,270.0,0.0,0.0
5747,55.0,0.0,270.0,0.0,0.0
5748,67.0,0.0,510.0,0.0,0.0
5749,56.0,0.0,270.0,0.0,0.0
5750,68.0,256.0,510.0,0.0,0.0
5751,45.0,0.0,330.0,0.0,0.0
5752,65.0,0.0,270.0,0.0,0.0
5753,74.0,85.0,270.0,0.0,0.0
5754,50.0,0.0,270.0,0.0,0.0
5755,53.0,0.0,270.0,0.0,0.0
5756,38.0,342.0,330.0,0.0,0.0
5757,57.0,0.0,270.0,0.0,0.0
5758,77.0,0.0,270.0,0.0,0.0
5759,45.0,0.0,330.0,0.0,0.0
5760,69.0,0.0,270.0,0.0,0.0
5761,46.0,341.0,330.0,0.0,0.0
5762,45.0,341.0,330.0,0.0,0.0
5763,58.0,0.0,270.0,0.0,0.0
5764,62.0,0.0,270.0,0.0,0.0
5765,74.0,0.0,270.0,0.0,0.0
5766,86.0,0.0,270.0,0.0,0.0
5767,62.0,0.0,510.0,0.0,0.0
5768,50.0,0.0,510.0,0.0,0.0
5769,38.0,0.0,330.0,0.0,0.0
5770,46.0,171.0,330.0,0.0,0.0
5771,48.0,341.0,330.0,0.0,0.0
5772,58.0,171.0,15.0,0.0,0.0
5773,62.0,0.0,510.0,0.0,0.0
5774,65.0,0.0,510.0,0.0,0.0
5775,50.0,0.0,510.0,0.0,0.0
5776,53.0,0.0,510.0,0.0,0.0
5777,46.0,0.0,330.0,0.0,0.0
5778,46.0,171.0,330.0,0.0,0.0
5779,38.0,0.0,330.0,0.0,0.0
5780,53.0,171.0,510.0,0.0,0.0
5781,58.0,0.0,510.0,0.0,0.0
5782,65.0,0.0,510.0,0.0,0.0
5783,70.0,0.0,510.0,0.0,0.0
5784,48.0,341.0,330.0,0.0,0.0
5785,62.0,0.0,510.0,0.0,0.0
5786,70.0,0.0,510.0,0.0,0.0
5787,50.0,0.0,510.0,0.0,0.0
5788,74.0,0.0,15.0,0.0,0.0
5789,58.0,341.0,15.0,0.0,0.0
5790,38.0,171.0,330.0,0.0,0.0
5791,46.0,0.0,15.0,0.0,0.0
5792,77.0,0.0,510.0,0.0,0.0
5793,65.0,171.0,510.0,0.0,0.0
5794,62.0,341.0,1020.0,0.0,0.0
5795,48.0,341.0,330.0,0.0,0.0
5796,79.0,0.0,510.0,0.0,0.0
5797,67.0,0.0,510.0,0.0,0.0
5798,46.0,0.0,330.0,0.0,0.0
5799,69.0,171.0,510.0,0.0,0.0
5800,38.0,0.0,330.0,0.0,0.0
5801,45.0,171.0,330.0,0.0,0.0
5802,61.0,0.0,1020.0,0.0,0.0
5803,57.0,0.0,1020.0,0.0,0.0
5804,81.0,0.0,510.0,0.0,0.0
5805,73.0,0.0,1020.0,0.0,0.0
5806,46.0,341.0,330.0,0.0,0.0
5807,79.0,0.0,510.0,0.0,0.0
5808,67.0,341.0,510.0,0.0,0.0
5809,45.0,0.0,330.0,0.0,0.0
5810,62.0,0.0,1020.0,0.0,0.0
5811,65.0,171.0,510.0,0.0,0.0
5812,74.0,0.0,1020.0,0.0,0.0
5813,77.0,0.0,510.0,0.0,0.0
5814,58.0,0.0,1020.0,0.0,0.0
5815,38.0,0.0,330.0,0.0,0.0
5816,46.0,171.0,330.0,0.0,0.0
5817,48.0,341.0,330.0,0.0,0.0
5818,79.0,0.0,510.0,0.0,0.0
5819,67.0,0.0,510.0,0.0,0.0
5820,46.0,341.0,330.0,0.0,0.0
5821,73.0,0.0,2040.0,0.0,0.0
5822,81.0,0.0,1530.0,0.0,0.0
5823,61.0,0.0,2040.0,0.0,0.0
5824,69.0,171.0,1530.0,0.0,0.0
5825,38.0,342.0,330.0,0.0,0.0
5826,45.0,0.0,330.0,0.0,0.0
5827,46.0,341.0,330.0,0.0,0.0
5828,45.0,341.0,330.0,0.0,0.0
5829,38.0,0.0,330.0,0.0,0.0
5830,45.0,171.0,330.0,0.0,0.0
5831,46.0,341.0,330.0,0.0,0.0
5832,76.0,0.0,510.0,0.0,0.0
5833,64.0,0.0,510.0,0.0,0.0
5834,57.0,0.0,15.0,0.0,0.0
5835,57.0,0.0,510.0,0.0,0.0
5836,77.0,0.0,510.0,0.0,0.0
5837,69.0,0.0,510.0,0.0,0.0
5838,38.0,171.0,330.0,0.0,0.0
5839,45.0,341.0,15.0,0.0,0.0
5840,46.0,341.0,330.0,0.0,0.0
5841,65.0,171.0,15.0,0.0,0.0
5842,74.0,0.0,510.0,0.0,0.0
5843,53.0,0.0,510.0,0.0,0.0
5844,62.0,0.0,510.0,0.0,0.0
5845,45.0,0.0,330.0,0.0,0.0
5846,72.0,0.0,540.0,0.0,0.0
5847,69.0,0.0,1020.0,0.0,0.0
5848,57.0,341.0,15.0,0.0,0.0
5849,48.0,211.0,330.0,0.0,0.0
5850,40.0,0.0,330.0,0.0,0.0
5851,60.0,131.0,540.0,0.0,0.0
5852,50.0,341.0,330.0,0.0,0.0
5853,74.0,0.0,480.0,0.0,0.0
5854,62.0,0.0,480.0,0.0,0.0
5855,48.0,0.0,330.0,0.0,0.0
5856,40.0,0.0,330.0,0.0,0.0
5857,47.0,342.0,330.0,0.0,0.0
5858,56.0,0.0,3060.0,0.0,0.0
5859,76.0,171.0,1530.0,0.0,0.0
5860,68.0,0.0,3060.0,0.0,0.0
5861,64.0,0.0,1530.0,0.0,0.0
5862,48.0,341.0,330.0,0.0,0.0
5863,40.0,0.0,330.0,0.0,0.0
5864,47.0,341.0,15.0,0.0,0.0
5865,48.0,341.0,330.0,0.0,0.0
5866,59.0,0.0,510.0,0.0,0.0
5867,71.0,0.0,510.0,0.0,0.0
5868,47.0,341.0,330.0,0.0,0.0
5869,73.0,171.0,510.0,0.0,0.0
5870,61.0,0.0,510.0,0.0,0.0
5871,45.0,171.0,330.0,0.0,0.0
5872,46.0,341.0,330.0,0.0,0.0
5873,57.0,0.0,510.0,0.0,0.0
5874,69.0,0.0,510.0,0.0,0.0
5875,45.0,0.0,330.0,0.0,0.0
5876,58.0,0.0,1020.0,0.0,0.0
5877,70.0,0.0,1020.0,0.0,0.0
5878,62.0,0.0,330.0,0.0,0.0
5879,50.0,341.0,690.0,0.0,0.0
5880,31.0,0.0,1020.0,0.0,0.0
5881,43.0,0.0,1020.0,0.0,0.0
5882,64.0,342.0,330.0,0.0,0.0
5883,52.0,0.0,1020.0,0.0,0.0
5884,62.0,0.0,330.0,0.0,0.0
5885,50.0,191.0,330.0,0.0,0.0
5886,69.0,0.0,180.0,0.0,0.0
5887,50.0,0.0,690.0,0.0,0.0
5888,45.0,0.0,180.0,0.0,0.0
5889,33.0,0.0,180.0,0.0,0.0
5890,62.0,0.0,330.0,0.0,0.0
5891,57.0,150.0,180.0,0.0,0.0
5892,67.0,150.0,180.0,0.0,0.0
5893,55.0,0.0,180.0,0.0,0.0
5894,64.0,192.0,15.0,0.0,0.0
5895,46.0,0.0,180.0,0.0,0.0
5896,34.0,0.0,180.0,0.0,0.0
5897,31.0,150.0,180.0,0.0,0.0
5898,70.0,0.0,180.0,0.0,0.0
5899,58.0,0.0,180.0,0.0,0.0
5900,43.0,0.0,180.0,0.0,0.0
5901,50.0,0.0,330.0,0.0,0.0
5902,62.0,341.0,15.0,0.0,0.0
5903,33.0,0.0,1020.0,0.0,0.0
5904,45.0,0.0,1020.0,0.0,0.0
5905,69.0,0.0,1020.0,0.0,0.0
5906,57.0,0.0,1020.0,0.0,0.0
5907,52.0,0.0,15.0,0.0,0.0
5908,64.0,0.0,15.0,0.0,0.0
5909,50.0,341.0,15.0,0.0,0.0
5910,62.0,0.0,330.0,0.0,0.0
5911,46.0,0.0,510.0,0.0,0.0
5912,34.0,0.0,510.0,0.0,0.0
5913,67.0,0.0,510.0,0.0,0.0
5914,55.0,171.0,510.0,0.0,0.0
5915,50.0,341.0,15.0,0.0,0.0
5916,62.0,0.0,330.0,0.0,0.0
5917,64.0,312.0,690.0,0.0,0.0
5918,52.0,171.0,15.0,0.0,0.0
5919,62.0,0.0,330.0,0.0,0.0
5920,50.0,0.0,330.0,0.0,0.0
5921,50.0,141.0,690.0,0.0,0.0
5922,31.0,0.0,300.0,0.0,0.0
5923,43.0,0.0,300.0,0.0,0.0
5924,58.0,0.0,300.0,0.0,0.0
5925,70.0,29.0,300.0,0.0,0.0
5926,62.0,342.0,330.0,0.0,0.0
5927,64.0,0.0,330.0,0.0,0.0
5928,52.0,0.0,1020.0,0.0,0.0
5929,57.0,200.0,300.0,0.0,0.0
5930,33.0,0.0,300.0,0.0,0.0
5931,45.0,0.0,300.0,0.0,0.0
5932,69.0,0.0,300.0,0.0,0.0
5933,50.0,312.0,330.0,0.0,0.0
5934,55.0,0.0,300.0,0.0,0.0
5935,62.0,0.0,15.0,0.0,0.0
5936,67.0,0.0,300.0,0.0,0.0
5937,34.0,0.0,300.0,0.0,0.0
5938,46.0,29.0,300.0,0.0,0.0
5939,64.0,0.0,15.0,0.0,0.0
5940,70.0,200.0,300.0,0.0,0.0
5941,58.0,0.0,300.0,0.0,0.0
5942,43.0,0.0,300.0,0.0,0.0
5943,31.0,0.0,300.0,0.0,0.0
5944,50.0,141.0,15.0,0.0,0.0
5945,62.0,0.0,330.0,0.0,0.0
5946,33.0,0.0,1020.0,0.0,0.0
5947,62.0,0.0,330.0,0.0,0.0
5948,64.0,0.0,330.0,0.0,0.0
5949,45.0,0.0,1020.0,0.0,0.0
5950,57.0,341.0,1020.0,0.0,0.0
5951,50.0,341.0,690.0,0.0,0.0
5952,69.0,0.0,1020.0,0.0,0.0
5953,52.0,342.0,15.0,0.0,0.0
5954,62.0,0.0,330.0,0.0,0.0
5955,50.0,0.0,15.0,0.0,0.0
5956,34.0,171.0,510.0,0.0,0.0
5957,46.0,0.0,510.0,0.0,0.0
5958,67.0,0.0,510.0,0.0,0.0
5959,55.0,0.0,510.0,0.0,0.0
5960,62.0,0.0,330.0,0.0,0.0
5961,52.0,0.0,15.0,0.0,0.0
5962,64.0,171.0,15.0,0.0,0.0
5963,50.0,0.0,15.0,0.0,0.0
5964,62.0,361.0,15.0,0.0,0.0
5965,33.0,20.0,2040.0,0.0,0.0
5966,45.0,0.0,2040.0,0.0,0.0
5967,64.0,341.0,360.0,0.0,0.0
5968,52.0,0.0,360.0,0.0,0.0
5969,50.0,0.0,360.0,0.0,0.0
5970,62.0,683.0,360.0,0.0,0.0
5971,66.0,0.0,1020.0,0.0,0.0
5972,54.0,0.0,1020.0,0.0,0.0
5973,57.0,321.0,360.0,0.0,0.0
5974,69.0,0.0,360.0,0.0,0.0
5975,74.0,683.0,360.0,0.0,0.0
5976,62.0,0.0,360.0,0.0,0.0
5977,73.0,0.0,1020.0,0.0,0.0
5978,61.0,341.0,1020.0,0.0,0.0
5979,57.0,0.0,2040.0,0.0,0.0
5980,64.0,0.0,360.0,0.0,0.0
5981,76.0,321.0,360.0,0.0,0.0
5982,81.0,0.0,15.0,0.0,0.0
5983,69.0,0.0,15.0,0.0,0.0
5984,33.0,0.0,2040.0,0.0,0.0
5985,45.0,0.0,2040.0,0.0,0.0
5986,50.0,0.0,360.0,0.0,0.0
5987,62.0,342.0,360.0,0.0,0.0
5988,52.0,0.0,360.0,0.0,0.0
5989,64.0,341.0,360.0,0.0,0.0
5990,50.0,683.0,360.0,0.0,0.0
5991,62.0,0.0,360.0,0.0,0.0
5992,66.0,0.0,1020.0,0.0,0.0
5993,54.0,0.0,1020.0,0.0,0.0
5994,57.0,0.0,360.0,0.0,0.0
5995,69.0,321.0,360.0,0.0,0.0
5996,74.0,0.0,360.0,0.0,0.0
5997,62.0,683.0,360.0,0.0,0.0
5998,61.0,0.0,1020.0,0.0,0.0
5999,73.0,0.0,1020.0,0.0,0.0
6000,57.0,0.0,2040.0,0.0,0.0
6001,64.0,0.0,360.0,0.0,0.0
6002,76.0,321.0,360.0,0.0,0.0
6003,81.0,341.0,330.0,0.0,0.0
6004,69.0,0.0,330.0,0.0,0.0
6005,69.0,683.0,330.0,0.0,0.0
6006,81.0,0.0,330.0,0.0,0.0
6007,51.0,341.0,690.0,0.0,0.0
6008,60.0,0.0,1020.0,0.0,0.0
6009,72.0,0.0,1020.0,0.0,0.0
6010,66.0,0.0,330.0,0.0,0.0
6011,33.0,0.0,1020.0,0.0,0.0
6012,45.0,0.0,1020.0,0.0,0.0
6013,63.0,342.0,330.0,0.0,0.0
6014,51.0,0.0,330.0,0.0,0.0
6015,51.0,191.0,690.0,0.0,0.0
6016,46.0,150.0,180.0,0.0,0.0
6017,70.0,0.0,180.0,0.0,0.0
6018,34.0,0.0,180.0,0.0,0.0
6019,58.0,0.0,180.0,0.0,0.0
6020,63.0,191.0,15.0,0.0,0.0
6021,53.0,0.0,15.0,0.0,0.0
6022,36.0,0.0,180.0,0.0,0.0
6023,57.0,0.0,180.0,0.0,0.0
6024,48.0,150.0,180.0,0.0,0.0
6025,65.0,0.0,15.0,0.0,0.0
6026,69.0,0.0,180.0,0.0,0.0
6027,45.0,150.0,180.0,0.0,0.0
6028,51.0,0.0,330.0,0.0,0.0
6029,63.0,0.0,330.0,0.0,0.0
6030,33.0,0.0,180.0,0.0,0.0
6031,60.0,0.0,180.0,0.0,0.0
6032,72.0,0.0,180.0,0.0,0.0
6033,51.0,341.0,690.0,0.0,0.0
6034,66.0,342.0,330.0,0.0,0.0
6035,46.0,341.0,1020.0,0.0,0.0
6036,34.0,0.0,1020.0,0.0,0.0
6037,70.0,0.0,1020.0,0.0,0.0
6038,58.0,0.0,1020.0,0.0,0.0
6039,63.0,0.0,330.0,0.0,0.0
6040,65.0,0.0,1020.0,0.0,0.0
6041,53.0,0.0,15.0,0.0,0.0
6042,51.0,0.0,330.0,0.0,0.0
6043,63.0,0.0,330.0,0.0,0.0
6044,51.0,341.0,690.0,0.0,0.0
6045,48.0,0.0,510.0,0.0,0.0
6046,63.0,0.0,330.0,0.0,0.0
6047,57.0,171.0,510.0,0.0,0.0
6048,69.0,0.0,510.0,0.0,0.0
6049,36.0,0.0,510.0,0.0,0.0
6050,65.0,0.0,690.0,0.0,0.0
6051,53.0,0.0,690.0,0.0,0.0
6052,63.0,0.0,330.0,0.0,0.0
6053,60.0,29.0,300.0,0.0,0.0
6054,72.0,0.0,300.0,0.0,0.0
6055,33.0,0.0,300.0,0.0,0.0
6056,66.0,0.0,330.0,0.0,0.0
6057,45.0,0.0,300.0,0.0,0.0
6058,63.0,342.0,330.0,0.0,0.0
6059,51.0,312.0,15.0,0.0,0.0
6060,65.0,0.0,1020.0,0.0,0.0
6061,58.0,0.0,300.0,0.0,0.0
6062,70.0,0.0,300.0,0.0,0.0
6063,34.0,0.0,300.0,0.0,0.0
6064,46.0,200.0,300.0,0.0,0.0
6065,51.0,141.0,15.0,0.0,0.0
6066,48.0,29.0,300.0,0.0,0.0
6067,36.0,0.0,300.0,0.0,0.0
6068,69.0,0.0,300.0,0.0,0.0
6069,57.0,0.0,300.0,0.0,0.0
6070,63.0,312.0,15.0,0.0,0.0
6071,51.0,0.0,15.0,0.0,0.0
6072,53.0,0.0,15.0,0.0,0.0
6073,65.0,0.0,690.0,0.0,0.0
6074,45.0,0.0,300.0,0.0,0.0
6075,33.0,0.0,300.0,0.0,0.0
6076,72.0,0.0,300.0,0.0,0.0
6077,60.0,200.0,300.0,0.0,0.0
6078,63.0,341.0,330.0,0.0,0.0
6079,51.0,0.0,330.0,0.0,0.0
6080,51.0,341.0,690.0,0.0,0.0
6081,46.0,0.0,1020.0,0.0,0.0
6082,70.0,0.0,1020.0,0.0,0.0
6083,63.0,0.0,330.0,0.0,0.0
6084,58.0,0.0,1020.0,0.0,0.0
6085,66.0,0.0,330.0,0.0,0.0
6086,34.0,0.0,1020.0,0.0,0.0
6087,65.0,0.0,1020.0,0.0,0.0
6088,53.0,0.0,1020.0,0.0,0.0
6089,63.0,341.0,330.0,0.0,0.0
6090,51.0,0.0,330.0,0.0,0.0
6091,48.0,171.0,510.0,0.0,0.0
6092,36.0,0.0,510.0,0.0,0.0
6093,69.0,0.0,510.0,0.0,0.0
6094,57.0,0.0,510.0,0.0,0.0
6095,63.0,171.0,330.0,0.0,0.0
6096,65.0,0.0,690.0,0.0,0.0
6097,53.0,0.0,690.0,0.0,0.0
6098,63.0,341.0,330.0,0.0,0.0
6099,51.0,341.0,15.0,0.0,0.0
6100,46.0,0.0,2040.0,0.0,0.0
6101,34.0,0.0,2040.0,0.0,0.0
6102,70.0,0.0,2040.0,0.0,0.0
6103,67.0,0.0,2040.0,0.0,0.0
6104,51.0,342.0,330.0,0.0,0.0
6105,53.0,341.0,330.0,0.0,0.0
6106,51.0,341.0,330.0,0.0,0.0
6107,55.0,342.0,330.0,0.0,0.0
6108,58.0,341.0,330.0,0.0,0.0
6109,63.0,341.0,330.0,0.0,0.0
6110,53.0,341.0,2040.0,0.0,0.0
6111,46.0,0.0,2040.0,0.0,0.0
6112,65.0,0.0,330.0,0.0,0.0
6113,62.0,342.0,15.0,0.0,0.0
6114,70.0,0.0,330.0,0.0,0.0
6115,50.0,0.0,15.0,0.0,0.0
6116,62.0,341.0,15.0,0.0,0.0
6117,62.0,341.0,15.0,0.0,0.0
6118,70.0,342.0,330.0,0.0,0.0
6119,50.0,0.0,15.0,0.0,0.0
6120,62.0,0.0,15.0,0.0,0.0
6121,50.0,0.0,15.0,0.0,0.0
6122,50.0,0.0,15.0,0.0,0.0
6123,62.0,0.0,330.0,0.0,0.0
6124,65.0,0.0,2040.0,0.0,0.0
6125,69.0,0.0,2040.0,0.0,0.0
6126,45.0,683.0,2040.0,0.0,0.0
6127,33.0,0.0,2040.0,0.0,0.0
6128,50.0,342.0,330.0,0.0,0.0
6129,52.0,341.0,330.0,0.0,0.0
6130,50.0,341.0,330.0,0.0,0.0
6131,53.0,342.0,330.0,0.0,0.0
6132,57.0,341.0,330.0,0.0,0.0
6133,62.0,0.0,330.0,0.0,0.0
6134,45.0,0.0,1530.0,0.0,0.0
6135,52.0,0.0,1530.0,0.0,0.0
6136,61.0,0.0,330.0,0.0,0.0
6137,64.0,341.0,330.0,0.0,0.0
6138,49.0,0.0,15.0,0.0,0.0
6139,69.0,341.0,330.0,0.0,0.0
6140,61.0,0.0,330.0,0.0,0.0
6141,49.0,0.0,330.0,0.0,0.0
6142,69.0,0.0,330.0,0.0,0.0
6143,61.0,171.0,15.0,0.0,0.0
6144,61.0,171.0,15.0,0.0,0.0
6145,49.0,0.0,180.0,0.0,0.0
6146,64.0,0.0,540.0,0.0,0.0
6147,68.0,151.0,540.0,0.0,0.0
6148,49.0,0.0,540.0,0.0,0.0
6149,32.0,341.0,330.0,0.0,0.0
6150,66.0,0.0,540.0,0.0,0.0
6151,69.0,321.0,540.0,0.0,0.0
6152,48.0,0.0,540.0,0.0,0.0
6153,32.0,20.0,330.0,0.0,0.0
6154,32.0,191.0,330.0,0.0,0.0
6155,64.0,0.0,540.0,0.0,0.0
6156,68.0,151.0,540.0,0.0,0.0
6157,49.0,0.0,540.0,0.0,0.0
6158,63.0,321.0,540.0,0.0,0.0
6159,51.0,0.0,540.0,0.0,0.0
6160,66.0,0.0,540.0,0.0,0.0
6161,32.0,341.0,15.0,0.0,0.0
6162,64.0,0.0,540.0,0.0,0.0
6163,61.0,0.0,540.0,0.0,0.0
6164,52.0,151.0,540.0,0.0,0.0
6165,32.0,191.0,330.0,0.0,0.0
6166,51.0,0.0,540.0,0.0,0.0
6167,66.0,321.0,540.0,0.0,0.0
6168,63.0,0.0,540.0,0.0,0.0
6169,32.0,341.0,15.0,0.0,0.0
6170,52.0,151.0,540.0,0.0,0.0
6171,64.0,0.0,540.0,0.0,0.0
6172,61.0,0.0,540.0,0.0,0.0
6173,32.0,191.0,15.0,0.0,0.0
6174,56.0,0.0,540.0,0.0,0.0
6175,59.0,0.0,540.0,0.0,0.0
6176,63.0,321.0,540.0,0.0,0.0
6177,32.0,341.0,15.0,0.0,0.0
6178,57.0,0.0,510.0,0.0,0.0
6179,32.0,171.0,330.0,0.0,0.0
6180,61.0,171.0,15.0,0.0,0.0
6181,52.0,321.0,540.0,0.0,0.0
6182,32.0,341.0,15.0,0.0,0.0
6183,32.0,0.0,15.0,0.0,0.0
6184,49.0,151.0,540.0,0.0,0.0
6185,69.0,20.0,510.0,0.0,0.0
6186,64.0,0.0,15.0,0.0,0.0
6187,32.0,171.0,15.0,0.0,0.0
6188,47.0,321.0,540.0,0.0,0.0
6189,69.0,0.0,510.0,0.0,0.0
6190,73.0,0.0,510.0,0.0,0.0
6191,57.0,0.0,510.0,0.0,0.0
6192,61.0,0.0,510.0,0.0,0.0
6193,32.0,341.0,15.0,0.0,0.0
6194,76.0,151.0,540.0,0.0,0.0
6195,73.0,321.0,1050.0,0.0,0.0
6196,64.0,20.0,510.0,0.0,0.0
6197,61.0,0.0,1020.0,0.0,0.0
6198,45.0,0.0,1050.0,0.0,0.0
6199,32.0,20.0,15.0,0.0,0.0
6200,32.0,171.0,15.0,0.0,0.0
6201,78.0,0.0,540.0,0.0,0.0
6202,66.0,20.0,510.0,0.0,0.0
6203,32.0,341.0,15.0,0.0,0.0
6204,60.0,20.0,1020.0,0.0,0.0
6205,32.0,0.0,15.0,0.0,0.0
6206,72.0,0.0,1050.0,0.0,0.0
6207,80.0,151.0,540.0,0.0,0.0
6208,68.0,20.0,510.0,0.0,0.0
6209,44.0,0.0,1050.0,0.0,0.0
6210,32.0,341.0,330.0,0.0,0.0
6211,66.0,0.0,510.0,0.0,0.0
6212,78.0,321.0,540.0,0.0,0.0
6213,32.0,0.0,330.0,0.0,0.0
6214,76.0,0.0,570.0,0.0,0.0
6215,61.0,20.0,1020.0,0.0,0.0
6216,64.0,111.0,570.0,0.0,0.0
6217,73.0,0.0,1050.0,0.0,0.0
6218,45.0,321.0,1050.0,0.0,0.0
6219,32.0,231.0,15.0,0.0,0.0
6220,78.0,0.0,480.0,0.0,0.0
6221,66.0,0.0,480.0,0.0,0.0
6222,32.0,0.0,330.0,0.0,0.0
6223,68.0,20.0,1530.0,0.0,0.0
6224,60.0,0.0,1530.0,0.0,0.0
6225,80.0,151.0,1560.0,0.0,0.0
6226,72.0,0.0,1560.0,0.0,0.0
6227,44.0,40.0,2070.0,0.0,0.0
6228,32.0,342.0,15.0,0.0,0.0
6229,32.0,341.0,15.0,0.0,0.0
6230,32.0,341.0,15.0,0.0,0.0
6231,63.0,281.0,570.0,0.0,0.0
6232,32.0,341.0,15.0,0.0,0.0
6233,52.0,0.0,1020.0,0.0,0.0
6234,61.0,20.0,1020.0,0.0,0.0
6235,37.0,191.0,330.0,0.0,0.0
6236,64.0,151.0,480.0,0.0,0.0
6237,44.0,341.0,330.0,0.0,0.0
6238,66.0,321.0,480.0,0.0,0.0
6239,37.0,0.0,330.0,0.0,0.0
6240,68.0,171.0,510.0,0.0,0.0
6241,35.0,171.0,330.0,0.0,0.0
6242,64.0,0.0,1020.0,0.0,0.0
6243,56.0,0.0,15.0,0.0,0.0
6244,47.0,341.0,330.0,0.0,0.0
6245,69.0,0.0,510.0,0.0,0.0
6246,35.0,0.0,330.0,0.0,0.0
6247,63.0,341.0,1020.0,0.0,0.0
6248,59.0,0.0,15.0,0.0,0.0
6249,54.0,0.0,1020.0,0.0,0.0
6250,71.0,171.0,510.0,0.0,0.0
6251,47.0,171.0,330.0,0.0,0.0
6252,35.0,341.0,330.0,0.0,0.0
6253,69.0,0.0,510.0,0.0,0.0
6254,47.0,0.0,330.0,0.0,0.0
6255,68.0,171.0,510.0,0.0,0.0
6256,56.0,0.0,1020.0,0.0,0.0
6257,59.0,0.0,1020.0,0.0,0.0
6258,64.0,0.0,1020.0,0.0,0.0
6259,35.0,171.0,330.0,0.0,0.0
6260,47.0,341.0,330.0,0.0,0.0
6261,69.0,0.0,510.0,0.0,0.0
6262,35.0,341.0,330.0,0.0,0.0
6263,71.0,0.0,1530.0,0.0,0.0
6264,47.0,342.0,330.0,0.0,0.0
6265,59.0,0.0,1530.0,0.0,0.0
6266,35.0,341.0,330.0,0.0,0.0
6267,47.0,512.0,330.0,0.0,0.0
6268,35.0,341.0,690.0,0.0,0.0
6269,47.0,0.0,690.0,0.0,0.0
6270,51.0,0.0,510.0,0.0,0.0
6271,63.0,171.0,15.0,0.0,0.0
6272,54.0,0.0,15.0,0.0,0.0
6273,66.0,0.0,510.0,0.0,0.0
6274,35.0,0.0,330.0,0.0,0.0
6275,40.0,341.0,690.0,0.0,0.0
6276,68.0,0.0,510.0,0.0,0.0
6277,56.0,0.0,510.0,0.0,0.0
6278,52.0,0.0,510.0,0.0,0.0
6279,64.0,171.0,510.0,0.0,0.0
6280,28.0,0.0,690.0,0.0,0.0
6281,71.0,0.0,510.0,0.0,0.0
6282,59.0,0.0,510.0,0.0,0.0
6283,56.0,0.0,510.0,0.0,0.0
6284,68.0,341.0,510.0,0.0,0.0
6285,40.0,0.0,330.0,0.0,0.0
6286,73.0,0.0,510.0,0.0,0.0
6287,52.0,171.0,330.0,0.0,0.0
6288,64.0,0.0,330.0,0.0,0.0
6289,61.0,171.0,510.0,0.0,0.0
6290,45.0,341.0,690.0,0.0,0.0
6291,57.0,341.0,330.0,0.0,0.0
6292,69.0,0.0,330.0,0.0,0.0
6293,64.0,0.0,510.0,0.0,0.0
6294,76.0,0.0,510.0,0.0,0.0
6295,33.0,0.0,15.0,0.0,0.0
6296,73.0,0.0,330.0,0.0,0.0
6297,61.0,0.0,330.0,0.0,0.0
6298,74.0,171.0,330.0,0.0,0.0
6299,65.0,171.0,510.0,0.0,0.0
6300,77.0,0.0,510.0,0.0,0.0
6301,62.0,0.0,330.0,0.0,0.0
6302,32.0,0.0,690.0,0.0,0.0
6303,71.0,0.0,330.0,0.0,0.0
6304,59.0,0.0,330.0,0.0,0.0
6305,62.0,0.0,510.0,0.0,0.0
6306,74.0,0.0,510.0,0.0,0.0
6307,44.0,341.0,15.0,0.0,0.0
6308,53.0,341.0,330.0,0.0,0.0
6309,65.0,0.0,330.0,0.0,0.0
6310,73.0,171.0,510.0,0.0,0.0
6311,61.0,0.0,510.0,0.0,0.0
6312,52.0,171.0,330.0,0.0,0.0
6313,64.0,0.0,330.0,0.0,0.0
6314,57.0,0.0,330.0,0.0,0.0
6315,69.0,341.0,330.0,0.0,0.0
6316,45.0,0.0,690.0,0.0,0.0
6317,76.0,0.0,510.0,0.0,0.0
6318,64.0,0.0,510.0,0.0,0.0
6319,61.0,0.0,330.0,0.0,0.0
6320,73.0,341.0,330.0,0.0,0.0
6321,33.0,0.0,15.0,0.0,0.0
6322,65.0,171.0,510.0,0.0,0.0
6323,77.0,0.0,510.0,0.0,0.0
6324,62.0,171.0,330.0,0.0,0.0
6325,74.0,0.0,330.0,0.0,0.0
6326,59.0,341.0,330.0,0.0,0.0
6327,71.0,0.0,330.0,0.0,0.0
6328,32.0,0.0,690.0,0.0,0.0
6329,74.0,0.0,510.0,0.0,0.0
6330,62.0,341.0,510.0,0.0,0.0
6331,44.0,0.0,15.0,0.0,0.0
6332,65.0,0.0,330.0,0.0,0.0
6333,53.0,0.0,330.0,0.0,0.0
6334,61.0,171.0,510.0,0.0,0.0
6335,52.0,0.0,330.0,0.0,0.0
6336,64.0,171.0,330.0,0.0,0.0
6337,73.0,0.0,510.0,0.0,0.0
6338,33.0,0.0,690.0,0.0,0.0
6339,69.0,0.0,330.0,0.0,0.0
6340,57.0,341.0,330.0,0.0,0.0
6341,45.0,0.0,690.0,0.0,0.0
6342,78.0,0.0,510.0,0.0,0.0
6343,66.0,341.0,510.0,0.0,0.0
6344,61.0,0.0,330.0,0.0,0.0
6345,73.0,0.0,330.0,0.0,0.0
6346,33.0,0.0,330.0,0.0,0.0
6347,49.0,171.0,330.0,0.0,0.0
6348,61.0,0.0,330.0,0.0,0.0
6349,40.0,0.0,690.0,0.0,0.0
6350,79.0,0.0,510.0,0.0,0.0
6351,67.0,171.0,510.0,0.0,0.0
6352,28.0,0.0,690.0,0.0,0.0
6353,69.0,341.0,330.0,0.0,0.0
6354,57.0,0.0,330.0,0.0,0.0
6355,76.0,0.0,510.0,0.0,0.0
6356,64.0,0.0,510.0,0.0,0.0
6357,40.0,0.0,330.0,0.0,0.0
6358,61.0,0.0,15.0,0.0,0.0
6359,73.0,341.0,15.0,0.0,0.0
6360,33.0,0.0,690.0,0.0,0.0
6361,64.0,342.0,330.0,0.0,0.0
6362,52.0,0.0,330.0,0.0,0.0
6363,69.0,341.0,330.0,0.0,0.0
6364,57.0,0.0,330.0,0.0,0.0
6365,45.0,0.0,690.0,0.0,0.0
6366,33.0,0.0,330.0,0.0,0.0
6367,73.0,0.0,330.0,0.0,0.0
6368,61.0,0.0,330.0,0.0,0.0
6369,40.0,341.0,690.0,0.0,0.0
6370,49.0,0.0,330.0,0.0,0.0
6371,61.0,0.0,15.0,0.0,0.0
6372,80.0,341.0,1020.0,0.0,0.0
6373,56.0,0.0,330.0,0.0,0.0
6374,68.0,0.0,330.0,0.0,0.0
6375,28.0,0.0,690.0,0.0,0.0
6376,61.0,0.0,330.0,0.0,0.0
6377,73.0,0.0,330.0,0.0,0.0
6378,40.0,0.0,330.0,0.0,0.0
6379,81.0,0.0,1020.0,0.0,0.0
6380,27.0,0.0,690.0,0.0,0.0
6381,54.0,0.0,330.0,0.0,0.0
6382,66.0,342.0,330.0,0.0,0.0
6383,69.0,341.0,330.0,0.0,0.0
6384,57.0,0.0,330.0,0.0,0.0
6385,39.0,0.0,690.0,0.0,0.0
6386,27.0,0.0,330.0,0.0,0.0
6387,61.0,0.0,330.0,0.0,0.0
6388,73.0,0.0,330.0,0.0,0.0
6389,63.0,0.0,330.0,0.0,0.0
6390,51.0,342.0,330.0,0.0,0.0
6391,66.0,0.0,1020.0,0.0,0.0
6392,78.0,0.0,1020.0,0.0,0.0
6393,30.0,0.0,690.0,0.0,0.0
6394,69.0,341.0,330.0,0.0,0.0
6395,57.0,0.0,330.0,0.0,0.0
6396,42.0,0.0,15.0,0.0,0.0
6397,61.0,341.0,330.0,0.0,0.0
6398,73.0,0.0,330.0,0.0,0.0
6399,64.0,0.0,330.0,0.0,0.0
6400,52.0,342.0,330.0,0.0,0.0
6401,76.0,0.0,2040.0,0.0,0.0
6402,44.0,341.0,330.0,0.0,0.0
6403,68.0,0.0,330.0,0.0,0.0
6404,56.0,0.0,330.0,0.0,0.0
6405,73.0,341.0,330.0,0.0,0.0
6406,61.0,0.0,330.0,0.0,0.0
6407,32.0,0.0,15.0,0.0,0.0
6408,49.0,0.0,330.0,0.0,0.0
6409,61.0,0.0,330.0,0.0,0.0
6410,45.0,342.0,330.0,0.0,0.0
6411,64.0,341.0,330.0,0.0,0.0
6412,52.0,0.0,330.0,0.0,0.0
6413,33.0,0.0,330.0,0.0,0.0
6414,45.0,0.0,330.0,0.0,0.0
6415,69.0,341.0,330.0,0.0,0.0
6416,57.0,0.0,330.0,0.0,0.0
6417,51.0,342.0,330.0,0.0,0.0
6418,75.0,0.0,1530.0,0.0,0.0
6419,66.0,0.0,330.0,0.0,0.0
6420,42.0,341.0,330.0,0.0,0.0
6421,54.0,0.0,330.0,0.0,0.0
6422,30.0,0.0,15.0,0.0,0.0
6423,57.0,0.0,330.0,0.0,0.0
6424,69.0,341.0,330.0,0.0,0.0
6425,60.0,0.0,330.0,0.0,0.0
6426,48.0,171.0,330.0,0.0,0.0
6427,63.0,171.0,180.0,0.0,0.0
6428,32.0,0.0,330.0,0.0,0.0
6429,51.0,0.0,330.0,0.0,0.0
6430,73.0,0.0,510.0,0.0,0.0
6431,44.0,0.0,15.0,0.0,0.0
6432,68.0,0.0,330.0,0.0,0.0
6433,56.0,0.0,330.0,0.0,0.0
6434,29.0,342.0,330.0,0.0,0.0
6435,61.0,0.0,15.0,0.0,0.0
6436,41.0,341.0,330.0,0.0,0.0
6437,29.0,0.0,330.0,0.0,0.0
6438,61.0,0.0,15.0,0.0,0.0
6439,59.0,20.0,15.0,0.0,0.0
6440,49.0,0.0,15.0,0.0,0.0
6441,41.0,342.0,330.0,0.0,0.0
6442,56.0,0.0,1050.0,0.0,0.0
6443,68.0,321.0,1050.0,0.0,0.0
6444,29.0,341.0,330.0,0.0,0.0
6445,41.0,0.0,330.0,0.0,0.0
6446,30.0,342.0,330.0,0.0,0.0
6447,69.0,321.0,1050.0,0.0,0.0
6448,42.0,341.0,330.0,0.0,0.0
6449,49.0,0.0,510.0,0.0,0.0
6450,61.0,0.0,510.0,0.0,0.0
6451,57.0,0.0,510.0,0.0,0.0
6452,30.0,20.0,330.0,0.0,0.0
6453,57.0,0.0,20.0,0.0,0.0
6454,61.0,20.0,1020.0,0.0,0.0
6455,45.0,342.0,330.0,0.0,0.0
6456,54.0,321.0,1050.0,0.0,0.0
6457,66.0,0.0,1050.0,0.0,0.0
6458,49.0,0.0,1020.0,0.0,0.0
6459,33.0,341.0,330.0,0.0,0.0
6460,45.0,0.0,330.0,0.0,0.0
6461,64.0,0.0,2070.0,0.0,0.0
6462,32.0,342.0,330.0,0.0,0.0
6463,49.0,0.0,2040.0,0.0,0.0
6464,52.0,321.0,2070.0,0.0,0.0
6465,44.0,341.0,330.0,0.0,0.0
6466,32.0,341.0,330.0,0.0,0.0
6467,44.0,342.0,330.0,0.0,0.0
6468,32.0,341.0,330.0,0.0,0.0
6469,44.0,0.0,330.0,0.0,0.0
6470,32.0,342.0,330.0,0.0,0.0
6471,63.0,151.0,1560.0,0.0,0.0
6472,51.0,0.0,1560.0,0.0,0.0
6473,56.0,20.0,15.0,0.0,0.0
6474,48.0,341.0,1020.0,0.0,0.0
6475,44.0,341.0,330.0,0.0,0.0
6476,32.0,0.0,330.0,0.0,0.0
6477,37.0,191.0,330.0,0.0,0.0
6478,25.0,341.0,330.0,0.0,0.0
6479,61.0,1024.0,510.0,0.0,0.0
6480,49.0,0.0,510.0,0.0,0.0
6481,37.0,0.0,330.0,0.0,0.0
6482,61.0,191.0,1020.0,0.0,0.0
6483,49.0,0.0,780.0,0.0,0.0
6484,53.0,0.0,510.0,0.0,0.0
6485,56.0,0.0,270.0,0.0,0.0
6486,62.0,342.0,180.0,0.0,0.0
6487,54.0,106.0,510.0,0.0,0.0
6488,61.0,235.0,180.0,0.0,0.0
6489,47.0,20.0,1530.0,0.0,0.0
6490,64.0,426.0,180.0,0.0,0.0
6491,54.0,0.0,1290.0,0.0,0.0
6492,62.0,0.0,1020.0,0.0,0.0
6493,57.0,256.0,270.0,0.0,0.0
6494,56.0,256.0,270.0,0.0,0.0
6495,57.0,236.0,270.0,0.0,0.0
6496,59.0,0.0,270.0,0.0,0.0
6497,56.0,292.0,1050.0,0.0,0.0
6498,61.0,256.0,510.0,0.0,0.0
6499,49.0,0.0,510.0,0.0,0.0
6500,53.0,256.0,15.0,0.0,0.0
6501,62.0,512.0,300.0,0.0,0.0
6502,49.0,0.0,780.0,0.0,0.0
6503,53.0,312.0,510.0,0.0,0.0
6504,61.0,200.0,300.0,0.0,0.0
6505,56.0,0.0,270.0,0.0,0.0
6506,62.0,456.0,300.0,0.0,0.0
6507,47.0,0.0,1530.0,0.0,0.0
6508,64.0,476.0,300.0,0.0,0.0
6509,54.0,56.0,15.0,0.0,0.0
6510,57.0,256.0,270.0,0.0,0.0
6511,62.0,20.0,1020.0,0.0,0.0
6512,56.0,256.0,270.0,0.0,0.0
6513,57.0,236.0,270.0,0.0,0.0
6514,59.0,0.0,270.0,0.0,0.0
6515,56.0,0.0,1050.0,0.0,0.0
6516,61.0,256.0,510.0,0.0,0.0
6517,53.0,256.0,510.0,0.0,0.0
6518,49.0,0.0,510.0,0.0,0.0
6519,53.0,20.0,270.0,0.0,0.0
6520,37.0,321.0,1050.0,0.0,0.0
6521,25.0,0.0,1050.0,0.0,0.0
6522,61.0,171.0,180.0,0.0,0.0
6523,53.0,0.0,330.0,0.0,0.0
6524,49.0,0.0,330.0,0.0,0.0
6525,61.0,0.0,330.0,0.0,0.0
6526,49.0,0.0,15.0,0.0,0.0
6527,53.0,20.0,15.0,0.0,0.0
6528,61.0,342.0,330.0,0.0,0.0
6529,32.0,0.0,1050.0,0.0,0.0
6530,44.0,663.0,1050.0,0.0,0.0
6531,49.0,0.0,330.0,0.0,0.0
6532,53.0,0.0,330.0,0.0,0.0
6533,61.0,341.0,15.0,0.0,0.0
6534,53.0,0.0,330.0,0.0,0.0
6535,49.0,0.0,330.0,0.0,0.0
6536,73.0,0.0,1050.0,0.0,0.0
6537,45.0,321.0,1050.0,0.0,0.0
6538,61.0,20.0,15.0,0.0,0.0
6539,33.0,0.0,1050.0,0.0,0.0
6540,61.0,341.0,330.0,0.0,0.0
6541,54.0,0.0,330.0,0.0,0.0
6542,49.0,0.0,330.0,0.0,0.0
6543,49.0,0.0,330.0,0.0,0.0
6544,54.0,0.0,330.0,0.0,0.0
6545,61.0,20.0,330.0,0.0,0.0
6546,30.0,663.0,1050.0,0.0,0.0
6547,49.0,342.0,330.0,0.0,0.0
6548,42.0,0.0,1050.0,0.0,0.0
6549,81.0,0.0,1050.0,0.0,0.0
6550,69.0,0.0,1050.0,0.0,0.0
6551,49.0,341.0,330.0,0.0,0.0
6552,57.0,0.0,330.0,0.0,0.0
6553,49.0,0.0,330.0,0.0,0.0
6554,57.0,20.0,330.0,0.0,0.0
6555,41.0,0.0,1050.0,0.0,0.0
6556,85.0,0.0,1050.0,0.0,0.0
6557,73.0,321.0,1050.0,0.0,0.0
6558,29.0,0.0,1050.0,0.0,0.0
6559,49.0,0.0,15.0,0.0,0.0
6560,56.0,341.0,15.0,0.0,0.0
6561,80.0,0.0,1050.0,0.0,0.0
6562,37.0,663.0,1050.0,0.0,0.0
6563,68.0,0.0,1050.0,0.0,0.0
6564,56.0,20.0,15.0,0.0,0.0
6565,25.0,0.0,1050.0,0.0,0.0
6566,56.0,0.0,15.0,0.0,0.0
6567,61.0,0.0,15.0,0.0,0.0
6568,53.0,342.0,15.0,0.0,0.0
6569,61.0,341.0,15.0,0.0,0.0
6570,56.0,0.0,15.0,0.0,0.0
6571,53.0,0.0,330.0,0.0,0.0
6572,66.0,321.0,1050.0,0.0,0.0
6573,32.0,0.0,2070.0,0.0,0.0
6574,20.0,0.0,2070.0,0.0,0.0
6575,78.0,0.0,1050.0,0.0,0.0
6576,61.0,0.0,15.0,0.0,0.0
6577,56.0,0.0,15.0,0.0,0.0
6578,51.0,341.0,15.0,0.0,0.0
6579,51.0,20.0,15.0,0.0,0.0
6580,63.0,1004.0,1050.0,0.0,0.0
6581,75.0,0.0,1050.0,0.0,0.0
6582,51.0,342.0,15.0,0.0,0.0
6583,60.0,0.0,15.0,0.0,0.0
6584,56.0,0.0,15.0,0.0,0.0
6585,56.0,0.0,15.0,0.0,0.0
6586,60.0,0.0,330.0,0.0,0.0
6587,51.0,20.0,330.0,0.0,0.0
6588,49.0,191.0,1020.0,0.0,0.0
6589,57.0,0.0,780.0,0.0,0.0
6590,61.0,0.0,510.0,0.0,0.0
6591,64.0,0.0,270.0,0.0,0.0
6592,50.0,342.0,180.0,0.0,0.0
6593,49.0,235.0,180.0,0.0,0.0
6594,56.0,0.0,1530.0,0.0,0.0
6595,52.0,150.0,180.0,0.0,0.0
6596,59.0,106.0,15.0,0.0,0.0
6597,65.0,256.0,15.0,0.0,0.0
6598,50.0,20.0,1020.0,0.0,0.0
6599,64.0,256.0,270.0,0.0,0.0
6600,65.0,256.0,270.0,0.0,0.0
6601,67.0,0.0,270.0,0.0,0.0
6602,64.0,20.0,1020.0,0.0,0.0
6603,49.0,256.0,510.0,0.0,0.0
6604,61.0,256.0,510.0,0.0,0.0
6605,57.0,0.0,510.0,0.0,0.0
6606,61.0,0.0,270.0,0.0,0.0
6607,50.0,512.0,300.0,0.0,0.0
6608,57.0,0.0,780.0,0.0,0.0
6609,49.0,200.0,300.0,0.0,0.0
6610,61.0,0.0,510.0,0.0,0.0
6611,64.0,312.0,270.0,0.0,0.0
6612,50.0,456.0,300.0,0.0,0.0
6613,59.0,56.0,510.0,0.0,0.0
6614,56.0,0.0,1530.0,0.0,0.0
6615,52.0,200.0,300.0,0.0,0.0
6616,59.0,0.0,1290.0,0.0,0.0
6617,50.0,0.0,1020.0,0.0,0.0
6618,65.0,256.0,15.0,0.0,0.0
6619,64.0,256.0,270.0,0.0,0.0
6620,65.0,256.0,270.0,0.0,0.0
6621,67.0,20.0,270.0,0.0,0.0
6622,49.0,256.0,510.0,0.0,0.0
6623,57.0,0.0,510.0,0.0,0.0
6624,61.0,256.0,15.0,0.0,0.0
6625,64.0,0.0,15.0,0.0,0.0
6626,45.0,663.0,2070.0,0.0,0.0
6627,33.0,0.0,2070.0,0.0,0.0
6628,52.0,0.0,2040.0,0.0,0.0
6629,61.0,0.0,330.0,0.0,0.0
6630,49.0,341.0,15.0,0.0,0.0
6631,67.0,0.0,1050.0,0.0,0.0
6632,61.0,0.0,15.0,0.0,0.0
6633,49.0,0.0,330.0,0.0,0.0
6634,79.0,0.0,1050.0,0.0,0.0
6635,61.0,341.0,15.0,0.0,0.0
6636,49.0,0.0,15.0,0.0,0.0
6637,44.0,663.0,2070.0,0.0,0.0
6638,49.0,0.0,15.0,0.0,0.0
6639,61.0,20.0,15.0,0.0,0.0
6640,32.0,0.0,2070.0,0.0,0.0
6641,80.0,0.0,1050.0,0.0,0.0
6642,53.0,0.0,2040.0,0.0,0.0
6643,61.0,341.0,15.0,0.0,0.0
6644,49.0,0.0,15.0,0.0,0.0
6645,49.0,321.0,20.0,0.0,0.0
6646,61.0,20.0,15.0,0.0,0.0
6647,65.0,0.0,1050.0,0.0,0.0
6648,68.0,0.0,15.0,0.0,0.0
6649,77.0,0.0,1020.0,0.0,0.0
6650,56.0,0.0,1050.0,0.0,0.0
6651,61.0,0.0,15.0,0.0,0.0
6652,49.0,341.0,15.0,0.0,0.0
6653,61.0,20.0,330.0,0.0,0.0
6654,30.0,0.0,2070.0,0.0,0.0
6655,42.0,0.0,2070.0,0.0,0.0
6656,73.0,321.0,1050.0,0.0,0.0
6657,58.0,0.0,1050.0,0.0,0.0
6658,49.0,0.0,330.0,0.0,0.0
6659,61.0,341.0,15.0,0.0,0.0
6660,49.0,0.0,330.0,0.0,0.0
6661,70.0,20.0,15.0,0.0,0.0
6662,49.0,342.0,330.0,0.0,0.0
6663,61.0,0.0,330.0,0.0,0.0
6664,54.0,0.0,1050.0,0.0,0.0
6665,82.0,663.0,1050.0,0.0,0.0
6666,66.0,0.0,1020.0,0.0,0.0
6667,61.0,0.0,330.0,0.0,0.0
6668,49.0,341.0,330.0,0.0,0.0
6669,49.0,20.0,330.0,0.0,0.0
6670,61.0,0.0,330.0,0.0,0.0
6671,56.0,0.0,2040.0,0.0,0.0
6672,85.0,0.0,1050.0,0.0,0.0
6673,41.0,0.0,2070.0,0.0,0.0
6674,29.0,492.0,2070.0,0.0,0.0
6675,61.0,341.0,15.0,0.0,0.0
6676,49.0,0.0,15.0,0.0,0.0
6677,73.0,321.0,20.0,0.0,0.0
6678,49.0,20.0,15.0,0.0,0.0
6679,61.0,0.0,20.0,0.0,0.0
6680,61.0,0.0,330.0,0.0,0.0
6681,49.0,341.0,15.0,0.0,0.0
6682,61.0,20.0,330.0,0.0,0.0
6683,44.0,0.0,1020.0,0.0,0.0
6684,32.0,0.0,1020.0,0.0,0.0
6685,78.0,171.0,1380.0,0.0,0.0
6686,68.0,0.0,15.0,0.0,0.0
6687,56.0,256.0,270.0,0.0,0.0
6688,60.0,256.0,270.0,0.0,0.0
6689,61.0,256.0,270.0,0.0,0.0
6690,51.0,0.0,2040.0,0.0,0.0
6691,63.0,85.0,270.0,0.0,0.0
6692,44.0,0.0,2040.0,0.0,0.0
6693,60.0,191.0,270.0,0.0,0.0
6694,77.0,321.0,360.0,0.0,0.0
6695,56.0,0.0,1530.0,0.0,0.0
6696,80.0,236.0,360.0,0.0,0.0
6697,60.0,20.0,270.0,0.0,0.0
6698,78.0,492.0,1560.0,0.0,0.0
6699,63.0,256.0,270.0,0.0,0.0
6700,62.0,256.0,270.0,0.0,0.0
6701,63.0,256.0,270.0,0.0,0.0
6702,65.0,0.0,270.0,0.0,0.0
6703,48.0,256.0,15.0,0.0,0.0
6704,51.0,0.0,1020.0,0.0,0.0
6705,63.0,256.0,270.0,0.0,0.0
6706,60.0,0.0,270.0,0.0,0.0
6707,56.0,20.0,15.0,0.0,0.0
6708,77.0,0.0,510.0,0.0,0.0
6709,60.0,0.0,270.0,0.0,0.0
6710,63.0,20.0,510.0,0.0,0.0
6711,44.0,0.0,15.0,0.0,0.0
6712,80.0,236.0,540.0,0.0,0.0
6713,32.0,0.0,1020.0,0.0,0.0
6714,56.0,0.0,270.0,0.0,0.0
6715,78.0,236.0,540.0,0.0,0.0
6716,60.0,256.0,270.0,0.0,0.0
6717,63.0,0.0,270.0,0.0,0.0
6718,66.0,256.0,270.0,0.0,0.0
6719,54.0,0.0,2040.0,0.0,0.0
6720,75.0,236.0,540.0,0.0,0.0
6721,51.0,0.0,2040.0,0.0,0.0
6722,63.0,20.0,270.0,0.0,0.0
6723,73.0,236.0,540.0,0.0,0.0
6724,56.0,256.0,270.0,0.0,0.0
6725,63.0,20.0,270.0,0.0,0.0
6726,72.0,236.0,540.0,0.0,0.0
6727,66.0,256.0,270.0,0.0,0.0
6728,65.0,20.0,270.0,0.0,0.0
6729,66.0,256.0,270.0,0.0,0.0
6730,75.0,236.0,540.0,0.0,0.0
6731,68.0,20.0,270.0,0.0,0.0
6732,44.0,0.0,15.0,0.0,0.0
6733,77.0,236.0,540.0,0.0,0.0
6734,53.0,0.0,510.0,0.0,0.0
6735,61.0,0.0,270.0,0.0,0.0
6736,65.0,256.0,270.0,0.0,0.0
6737,49.0,0.0,510.0,0.0,0.0
6738,68.0,20.0,270.0,0.0,0.0
6739,78.0,236.0,540.0,0.0,0.0
6740,48.0,0.0,510.0,0.0,0.0
6741,51.0,0.0,510.0,0.0,0.0
6742,63.0,0.0,270.0,0.0,0.0
6743,60.0,256.0,270.0,0.0,0.0
6744,68.0,20.0,270.0,0.0,0.0
6745,37.0,0.0,1020.0,0.0,0.0
6746,65.0,256.0,270.0,0.0,0.0
6747,83.0,0.0,1380.0,0.0,0.0
6748,71.0,171.0,1380.0,0.0,0.0
6749,61.0,256.0,270.0,0.0,0.0
6750,65.0,0.0,270.0,0.0,0.0
6751,49.0,256.0,270.0,0.0,0.0
6752,66.0,256.0,270.0,0.0,0.0
6753,51.0,0.0,270.0,0.0,0.0
6754,53.0,0.0,1020.0,0.0,0.0
6755,68.0,85.0,270.0,0.0,0.0
6756,65.0,171.0,270.0,0.0,0.0
6757,82.0,341.0,330.0,0.0,0.0
6758,70.0,0.0,330.0,0.0,0.0
6759,61.0,0.0,1530.0,0.0,0.0
6760,85.0,256.0,330.0,0.0,0.0
6761,73.0,0.0,330.0,0.0,0.0
6762,65.0,0.0,270.0,0.0,0.0
6763,68.0,256.0,270.0,0.0,0.0
6764,83.0,512.0,1530.0,0.0,0.0
6765,71.0,0.0,1530.0,0.0,0.0
6766,67.0,256.0,270.0,0.0,0.0
6767,52.0,0.0,270.0,0.0,0.0
6768,68.0,256.0,270.0,0.0,0.0
6769,53.0,0.0,270.0,0.0,0.0
6770,54.0,0.0,270.0,0.0,0.0
6771,70.0,0.0,270.0,0.0,0.0
6772,68.0,256.0,270.0,0.0,0.0
6773,53.0,0.0,1020.0,0.0,0.0
6774,49.0,256.0,15.0,0.0,0.0
6775,65.0,0.0,270.0,0.0,0.0
6776,61.0,0.0,510.0,0.0,0.0
6777,70.0,0.0,510.0,0.0,0.0
6778,82.0,256.0,510.0,0.0,0.0
6779,65.0,0.0,270.0,0.0,0.0
6780,68.0,256.0,270.0,0.0,0.0
6781,49.0,0.0,15.0,0.0,0.0
6782,37.0,0.0,1020.0,0.0,0.0
6783,85.0,236.0,540.0,0.0,0.0
6784,73.0,0.0,540.0,0.0,0.0
6785,61.0,20.0,270.0,0.0,0.0
6786,83.0,236.0,540.0,0.0,0.0
6787,49.0,0.0,270.0,0.0,0.0
6788,65.0,256.0,270.0,0.0,0.0
6789,68.0,0.0,270.0,0.0,0.0
6790,53.0,0.0,270.0,0.0,0.0
6791,56.0,20.0,1020.0,0.0,0.0
6792,80.0,0.0,540.0,0.0,0.0
6793,71.0,0.0,20.0,0.0,0.0
6794,68.0,20.0,270.0,0.0,0.0
6795,61.0,256.0,270.0,0.0,0.0
6796,78.0,236.0,540.0,0.0,0.0
6797,66.0,0.0,540.0,0.0,0.0
6798,68.0,0.0,270.0,0.0,0.0
6799,71.0,256.0,270.0,0.0,0.0
6800,65.0,0.0,540.0,0.0,0.0
6801,77.0,236.0,540.0,0.0,0.0
6802,70.0,20.0,270.0,0.0,0.0
6803,55.0,0.0,270.0,0.0,0.0
6804,68.0,0.0,540.0,0.0,0.0
6805,56.0,0.0,270.0,0.0,0.0
6806,71.0,256.0,270.0,0.0,0.0
6807,80.0,492.0,540.0,0.0,0.0
6808,53.0,0.0,270.0,0.0,0.0
6809,73.0,0.0,270.0,0.0,0.0
6810,70.0,236.0,540.0,0.0,0.0
6811,49.0,20.0,15.0,0.0,0.0
6812,37.0,20.0,510.0,0.0,0.0
6813,82.0,0.0,540.0,0.0,0.0
6814,54.0,0.0,510.0,0.0,0.0
6815,73.0,0.0,270.0,0.0,0.0
6816,68.0,256.0,270.0,0.0,0.0
6817,53.0,0.0,510.0,0.0,0.0
6818,71.0,492.0,540.0,0.0,0.0
6819,83.0,0.0,540.0,0.0,0.0
6820,61.0,0.0,510.0,0.0,0.0
6821,42.0,256.0,750.0,0.0,0.0
6822,52.0,0.0,630.0,0.0,0.0
6823,58.0,0.0,510.0,0.0,0.0
6824,66.0,0.0,1260.0,0.0,0.0
6825,85.0,201.0,1050.0,0.0,0.0
6826,73.0,20.0,15.0,0.0,0.0
6827,54.0,291.0,1260.0,0.0,0.0
6828,64.0,0.0,270.0,0.0,0.0
6829,70.0,256.0,270.0,0.0,0.0
6830,73.0,20.0,270.0,0.0,0.0
6831,86.0,236.0,2070.0,0.0,0.0
6832,59.0,20.0,2040.0,0.0,0.0
6833,50.0,0.0,2040.0,0.0,0.0
6834,47.0,0.0,2040.0,0.0,0.0
6835,71.0,51.0,270.0,0.0,0.0
6836,53.0,0.0,210.0,0.0,0.0
6837,65.0,205.0,210.0,0.0,0.0
6838,62.0,136.0,270.0,0.0,0.0
6839,55.0,0.0,210.0,0.0,0.0
6840,67.0,120.0,210.0,0.0,0.0
6841,71.0,256.0,270.0,0.0,0.0
6842,74.0,512.0,270.0,0.0,0.0
6843,54.0,256.0,1530.0,0.0,0.0
6844,62.0,256.0,270.0,0.0,0.0
6845,66.0,0.0,15.0,0.0,0.0
6846,26.0,0.0,1020.0,0.0,0.0
6847,71.0,492.0,1050.0,0.0,0.0
6848,83.0,0.0,1050.0,0.0,0.0
6849,38.0,20.0,1020.0,0.0,0.0
6850,66.0,256.0,15.0,0.0,0.0
6851,62.0,256.0,270.0,0.0,0.0
6852,53.0,0.0,510.0,0.0,0.0
6853,65.0,0.0,510.0,0.0,0.0
6854,66.0,0.0,270.0,0.0,0.0
6855,68.0,226.0,540.0,0.0,0.0
6856,56.0,0.0,540.0,0.0,0.0
6857,81.0,0.0,1050.0,0.0,0.0
6858,69.0,492.0,1050.0,0.0,0.0
6859,42.0,0.0,1020.0,0.0,0.0
6860,30.0,0.0,1020.0,0.0,0.0
6861,66.0,30.0,270.0,0.0,0.0
6862,54.0,20.0,510.0,0.0,0.0
6863,61.0,256.0,270.0,0.0,0.0
6864,66.0,0.0,270.0,0.0,0.0
6865,53.0,256.0,510.0,0.0,0.0
6866,65.0,0.0,510.0,0.0,0.0
6867,32.0,0.0,2040.0,0.0,0.0
6868,80.0,0.0,2040.0,0.0,0.0
6869,61.0,0.0,270.0,0.0,0.0
6870,56.0,256.0,270.0,0.0,0.0
6871,52.0,0.0,510.0,0.0,0.0
6872,64.0,256.0,510.0,0.0,0.0
6873,61.0,0.0,270.0,0.0,0.0
6874,68.0,256.0,270.0,0.0,0.0
6875,63.0,256.0,510.0,0.0,0.0
6876,51.0,0.0,510.0,0.0,0.0
6877,61.0,0.0,270.0,0.0,0.0
6878,56.0,256.0,270.0,0.0,0.0
6879,65.0,0.0,510.0,0.0,0.0
6880,53.0,0.0,510.0,0.0,0.0
6881,61.0,0.0,270.0,0.0,0.0
6882,44.0,0.0,15.0,0.0,0.0
6883,66.0,0.0,510.0,0.0,0.0
6884,72.0,0.0,1020.0,0.0,0.0
6885,54.0,256.0,510.0,0.0,0.0
6886,63.0,0.0,270.0,0.0,0.0
6887,56.0,0.0,510.0,0.0,0.0
6888,60.0,256.0,270.0,0.0,0.0
6889,68.0,392.0,510.0,0.0,0.0
6890,63.0,0.0,270.0,0.0,0.0
6891,42.0,0.0,750.0,0.0,0.0
6892,52.0,0.0,630.0,0.0,0.0
6893,58.0,256.0,510.0,0.0,0.0
6894,85.0,321.0,1050.0,0.0,0.0
6895,70.0,120.0,390.0,0.0,0.0
6896,64.0,0.0,270.0,0.0,0.0
6897,54.0,0.0,840.0,0.0,0.0
6898,66.0,171.0,840.0,0.0,0.0
6899,70.0,256.0,270.0,0.0,0.0
6900,73.0,20.0,270.0,0.0,0.0
6901,35.0,20.0,2040.0,0.0,0.0
6902,47.0,0.0,2040.0,0.0,0.0
6903,86.0,236.0,2070.0,0.0,0.0
6904,71.0,51.0,270.0,0.0,0.0
6905,53.0,0.0,210.0,0.0,0.0
6906,65.0,205.0,210.0,0.0,0.0
6907,62.0,136.0,270.0,0.0,0.0
6908,55.0,0.0,210.0,0.0,0.0
6909,67.0,120.0,210.0,0.0,0.0
6910,71.0,256.0,270.0,0.0,0.0
6911,54.0,256.0,1530.0,0.0,0.0
6912,74.0,512.0,270.0,0.0,0.0
6913,62.0,256.0,270.0,0.0,0.0
6914,66.0,0.0,15.0,0.0,0.0
6915,38.0,0.0,1020.0,0.0,0.0
6916,26.0,0.0,1020.0,0.0,0.0
6917,71.0,0.0,1050.0,0.0,0.0
6918,83.0,492.0,1050.0,0.0,0.0
6919,66.0,256.0,15.0,0.0,0.0
6920,53.0,0.0,510.0,0.0,0.0
6921,65.0,0.0,510.0,0.0,0.0
6922,62.0,256.0,270.0,0.0,0.0
6923,66.0,20.0,270.0,0.0,0.0
6924,68.0,0.0,510.0,0.0,0.0
6925,81.0,492.0,1050.0,0.0,0.0
6926,69.0,0.0,1050.0,0.0,0.0
6927,56.0,0.0,510.0,0.0,0.0
6928,42.0,20.0,1020.0,0.0,0.0
6929,30.0,0.0,1020.0,0.0,0.0
6930,66.0,256.0,270.0,0.0,0.0
6931,61.0,256.0,270.0,0.0,0.0
6932,54.0,256.0,1020.0,0.0,0.0
6933,66.0,0.0,780.0,0.0,0.0
6934,80.0,236.0,2070.0,0.0,0.0
6935,44.0,20.0,2040.0,0.0,0.0
6936,65.0,0.0,270.0,0.0,0.0
6937,53.0,512.0,510.0,0.0,0.0
6938,61.0,256.0,270.0,0.0,0.0
6939,65.0,0.0,270.0,0.0,0.0
6940,56.0,256.0,510.0,0.0,0.0
6941,68.0,0.0,510.0,0.0,0.0
6942,64.0,0.0,270.0,0.0,0.0
6943,61.0,256.0,270.0,0.0,0.0
6944,52.0,0.0,1020.0,0.0,0.0
6945,64.0,0.0,510.0,0.0,0.0
6946,79.0,236.0,1050.0,0.0,0.0
6947,73.0,256.0,270.0,0.0,0.0
6948,45.0,20.0,1020.0,0.0,0.0
6949,67.0,0.0,1050.0,0.0,0.0
6950,33.0,0.0,1020.0,0.0,0.0
6951,64.0,0.0,270.0,0.0,0.0
6952,63.0,0.0,510.0,0.0,0.0
6953,61.0,256.0,270.0,0.0,0.0
6954,51.0,0.0,510.0,0.0,0.0
6955,52.0,512.0,510.0,0.0,0.0
6956,31.0,0.0,1020.0,0.0,0.0
6957,43.0,0.0,1020.0,0.0,0.0
6958,64.0,0.0,15.0,0.0,0.0
6959,73.0,256.0,270.0,0.0,0.0
6960,82.0,236.0,1050.0,0.0,0.0
6961,70.0,0.0,1050.0,0.0,0.0
6962,64.0,0.0,270.0,0.0,0.0
6963,49.0,20.0,510.0,0.0,0.0
6964,61.0,0.0,510.0,0.0,0.0
6965,64.0,0.0,270.0,0.0,0.0
6966,32.0,0.0,2040.0,0.0,0.0
6967,53.0,0.0,510.0,0.0,0.0
6968,73.0,256.0,270.0,0.0,0.0
6969,80.0,236.0,2070.0,0.0,0.0
6970,65.0,0.0,270.0,0.0,0.0
6971,61.0,0.0,510.0,0.0,0.0
6972,49.0,256.0,510.0,0.0,0.0
6973,65.0,0.0,270.0,0.0,0.0
6974,68.0,256.0,270.0,0.0,0.0
6975,56.0,0.0,510.0,0.0,0.0
6976,65.0,256.0,270.0,0.0,0.0
6977,53.0,0.0,510.0,0.0,0.0
6978,61.0,256.0,270.0,0.0,0.0
6979,65.0,0.0,270.0,0.0,0.0
6980,68.0,0.0,20.0,0.0,0.0
6981,44.0,0.0,15.0,0.0,0.0
6982,72.0,833.0,1050.0,0.0,0.0
6983,54.0,0.0,510.0,0.0,0.0
6984,63.0,256.0,270.0,0.0,0.0
6985,60.0,256.0,270.0,0.0,0.0
6986,51.0,20.0,510.0,0.0,0.0
6987,63.0,0.0,270.0,0.0,0.0
6988,65.0,0.0,1020.0,0.0,0.0
6989,61.0,0.0,1020.0,0.0,0.0
6990,73.0,0.0,1020.0,0.0,0.0
6991,37.0,0.0,90.0,0.0,0.0
6992,49.0,86.0,90.0,0.0,0.0
6993,48.0,85.0,90.0,0.0,0.0
6994,36.0,0.0,90.0,0.0,0.0
6995,34.0,1536.0,90.0,0.0,0.0
6996,46.0,0.0,90.0,0.0,0.0
6997,53.0,0.0,15.0,0.0,0.0
6998,32.0,20.0,2040.0,0.0,0.0
6999,61.0,0.0,1530.0,0.0,0.0
7000,63.0,512.0,540.0,0.0,0.0
7001,56.0,0.0,540.0,0.0,0.0
7002,61.0,0.0,540.0,0.0,0.0
7003,65.0,512.0,540.0,0.0,0.0
7004,53.0,0.0,540.0,0.0,0.0
7005,51.0,0.0,540.0,0.0,0.0
7006,63.0,512.0,540.0,0.0,0.0
7007,68.0,0.0,540.0,0.0,0.0
7008,73.0,492.0,540.0,0.0,0.0
7009,49.0,0.0,540.0,0.0,0.0
7010,65.0,0.0,540.0,0.0,0.0
7011,68.0,0.0,540.0,0.0,0.0
7012,75.0,0.0,540.0,0.0,0.0
7013,56.0,20.0,15.0,0.0,0.0
7014,44.0,0.0,15.0,0.0,0.0
7015,73.0,0.0,540.0,0.0,0.0
7016,77.0,492.0,540.0,0.0,0.0
7017,68.0,0.0,540.0,0.0,0.0
7018,75.0,492.0,540.0,0.0,0.0
7019,44.0,0.0,510.0,0.0,0.0
7020,77.0,492.0,540.0,0.0,0.0
7021,37.0,20.0,15.0,0.0,0.0
7022,68.0,492.0,540.0,0.0,0.0
7023,73.0,20.0,15.0,0.0,0.0
7024,41.0,0.0,510.0,0.0,0.0
7025,58.0,0.0,1020.0,0.0,0.0
7026,66.0,20.0,510.0,0.0,0.0
7027,70.0,492.0,540.0,0.0,0.0
7028,42.0,0.0,1020.0,0.0,0.0
7029,63.0,0.0,510.0,0.0,0.0
7030,66.0,0.0,510.0,0.0,0.0
7031,46.0,0.0,510.0,0.0,0.0
7032,65.0,150.0,360.0,0.0,0.0
7033,61.0,256.0,15.0,0.0,0.0
7034,49.0,0.0,15.0,0.0,0.0
7035,37.0,106.0,270.0,0.0,0.0
7036,53.0,512.0,510.0,0.0,0.0
7037,56.0,0.0,510.0,0.0,0.0
7038,65.0,0.0,270.0,0.0,0.0
7039,49.0,0.0,270.0,0.0,0.0
7040,61.0,362.0,270.0,0.0,0.0
7041,34.0,512.0,510.0,0.0,0.0
7042,46.0,150.0,360.0,0.0,0.0
7043,62.0,0.0,360.0,0.0,0.0
7044,70.0,0.0,360.0,0.0,0.0
7045,70.0,0.0,270.0,0.0,0.0
7046,46.0,256.0,270.0,0.0,0.0
7047,62.0,0.0,270.0,0.0,0.0
7048,63.0,0.0,360.0,0.0,0.0
7049,66.0,662.0,360.0,0.0,0.0
7050,51.0,0.0,360.0,0.0,0.0
7051,39.0,106.0,270.0,0.0,0.0
7052,51.0,0.0,270.0,0.0,0.0
7053,63.0,0.0,270.0,0.0,0.0
7054,66.0,256.0,270.0,0.0,0.0
7055,32.0,106.0,270.0,0.0,0.0
7056,60.0,0.0,360.0,0.0,0.0
7057,68.0,0.0,360.0,0.0,0.0
7058,44.0,662.0,360.0,0.0,0.0
7059,44.0,512.0,270.0,0.0,0.0
7060,68.0,0.0,270.0,0.0,0.0
7061,60.0,0.0,270.0,0.0,0.0
7062,37.0,0.0,510.0,0.0,0.0
7063,49.0,0.0,510.0,0.0,0.0
7064,65.0,512.0,510.0,0.0,0.0
7065,61.0,0.0,510.0,0.0,0.0
7066,66.0,0.0,270.0,0.0,0.0
7067,42.0,788.0,270.0,0.0,0.0
7068,63.0,0.0,270.0,0.0,0.0
7069,65.0,0.0,780.0,0.0,0.0
7070,58.0,0.0,780.0,0.0,0.0
7071,46.0,236.0,780.0,0.0,0.0
7072,54.0,512.0,15.0,0.0,0.0
7073,63.0,0.0,15.0,0.0,0.0
7074,51.0,0.0,15.0,0.0,0.0
7075,41.0,788.0,270.0,0.0,0.0
7076,61.0,0.0,270.0,0.0,0.0
7077,65.0,0.0,270.0,0.0,0.0
7078,56.0,0.0,780.0,0.0,0.0
7079,63.0,0.0,780.0,0.0,0.0
7080,44.0,236.0,780.0,0.0,0.0
7081,49.0,0.0,15.0,0.0,0.0
7082,61.0,0.0,15.0,0.0,0.0
7083,53.0,512.0,15.0,0.0,0.0
7084,41.0,86.0,90.0,0.0,0.0
7085,53.0,0.0,90.0,0.0,0.0
7086,39.0,85.0,90.0,0.0,0.0
7087,51.0,0.0,90.0,0.0,0.0
7088,37.0,1536.0,90.0,0.0,0.0
7089,49.0,0.0,90.0,0.0,0.0
7090,65.0,0.0,1530.0,0.0,0.0
7091,56.0,532.0,1530.0,0.0,0.0
7092,60.0,492.0,540.0,0.0,0.0
7093,67.0,0.0,540.0,0.0,0.0
7094,65.0,492.0,540.0,0.0,0.0
7095,68.0,0.0,540.0,0.0,0.0
7096,56.0,20.0,510.0,0.0,0.0
7097,72.0,512.0,540.0,0.0,0.0
7098,55.0,20.0,510.0,0.0,0.0
7099,67.0,0.0,540.0,0.0,0.0
7100,53.0,0.0,540.0,0.0,0.0
7101,77.0,0.0,540.0,0.0,0.0
7102,68.0,492.0,540.0,0.0,0.0
7103,48.0,20.0,510.0,0.0,0.0
7104,79.0,0.0,540.0,0.0,0.0
7105,72.0,0.0,540.0,0.0,0.0
7106,56.0,0.0,2040.0,0.0,0.0
7107,77.0,0.0,510.0,0.0,0.0
7108,80.0,0.0,510.0,0.0,0.0
7109,68.0,0.0,510.0,0.0,0.0
7110,78.0,0.0,510.0,0.0,0.0
7111,36.0,512.0,15.0,0.0,0.0
7112,80.0,0.0,510.0,0.0,0.0
7113,68.0,0.0,510.0,0.0,0.0
7114,44.0,20.0,15.0,0.0,0.0
7115,80.0,0.0,510.0,0.0,0.0
7116,77.0,512.0,15.0,0.0,0.0
7117,41.0,0.0,510.0,0.0,0.0
7118,70.0,0.0,510.0,0.0,0.0
7119,73.0,512.0,15.0,0.0,0.0
7120,61.0,256.0,1020.0,0.0,0.0
7121,58.0,0.0,1020.0,0.0,0.0
7122,42.0,0.0,1020.0,0.0,0.0
7123,66.0,0.0,510.0,0.0,0.0
7124,70.0,0.0,510.0,0.0,0.0
7125,46.0,0.0,510.0,0.0,0.0
7126,65.0,0.0,360.0,0.0,0.0
7127,68.0,150.0,360.0,0.0,0.0
7128,49.0,0.0,15.0,0.0,0.0
7129,53.0,0.0,510.0,0.0,0.0
7130,56.0,512.0,510.0,0.0,0.0
7131,37.0,106.0,270.0,0.0,0.0
7132,65.0,362.0,270.0,0.0,0.0
7133,68.0,0.0,270.0,0.0,0.0
7134,49.0,0.0,270.0,0.0,0.0
7135,56.0,0.0,270.0,0.0,0.0
7136,34.0,512.0,510.0,0.0,0.0
7137,73.0,0.0,360.0,0.0,0.0
7138,46.0,0.0,360.0,0.0,0.0
7139,65.0,0.0,360.0,0.0,0.0
7140,58.0,150.0,360.0,0.0,0.0
7141,65.0,256.0,270.0,0.0,0.0
7142,46.0,0.0,270.0,0.0,0.0
7143,58.0,0.0,270.0,0.0,0.0
7144,73.0,0.0,270.0,0.0,0.0
7145,39.0,106.0,270.0,0.0,0.0
7146,51.0,0.0,360.0,0.0,0.0
7147,70.0,662.0,360.0,0.0,0.0
7148,66.0,0.0,360.0,0.0,0.0
7149,54.0,0.0,360.0,0.0,0.0
7150,70.0,0.0,270.0,0.0,0.0
7151,66.0,0.0,270.0,0.0,0.0
7152,54.0,256.0,270.0,0.0,0.0
7153,51.0,0.0,270.0,0.0,0.0
7154,44.0,0.0,360.0,0.0,0.0
7155,32.0,106.0,270.0,0.0,0.0
7156,63.0,0.0,360.0,0.0,0.0
7157,72.0,662.0,360.0,0.0,0.0
7158,56.0,0.0,360.0,0.0,0.0
7159,63.0,512.0,270.0,0.0,0.0
7160,72.0,0.0,270.0,0.0,0.0
7161,44.0,0.0,270.0,0.0,0.0
7162,56.0,0.0,270.0,0.0,0.0
7163,65.0,512.0,510.0,0.0,0.0
7164,68.0,0.0,510.0,0.0,0.0
7165,53.0,0.0,510.0,0.0,0.0
7166,37.0,0.0,510.0,0.0,0.0
7167,49.0,0.0,510.0,0.0,0.0
7168,66.0,0.0,270.0,0.0,0.0
7169,70.0,0.0,270.0,0.0,0.0
7170,42.0,788.0,270.0,0.0,0.0
7171,65.0,0.0,780.0,0.0,0.0
7172,46.0,236.0,780.0,0.0,0.0
7173,68.0,0.0,780.0,0.0,0.0
7174,63.0,0.0,270.0,0.0,0.0
7175,66.0,0.0,270.0,0.0,0.0
7176,51.0,512.0,270.0,0.0,0.0
7177,63.0,0.0,510.0,0.0,0.0
7178,66.0,512.0,510.0,0.0,0.0
7179,51.0,0.0,510.0,0.0,0.0
7180,65.0,0.0,270.0,0.0,0.0
7181,68.0,0.0,270.0,0.0,0.0
7182,41.0,788.0,270.0,0.0,0.0
7183,63.0,236.0,780.0,0.0,0.0
7184,66.0,0.0,780.0,0.0,0.0
7185,44.0,0.0,780.0,0.0,0.0
7186,49.0,0.0,270.0,0.0,0.0
7187,61.0,0.0,15.0,0.0,0.0
7188,65.0,512.0,15.0,0.0,0.0
7189,49.0,0.0,510.0,0.0,0.0
7190,70.0,788.0,270.0,0.0,0.0
7191,54.0,0.0,270.0,0.0,0.0
7192,78.0,0.0,270.0,0.0,0.0
7193,68.0,236.0,780.0,0.0,0.0
7194,77.0,0.0,780.0,0.0,0.0
7195,58.0,0.0,780.0,0.0,0.0
7196,63.0,0.0,15.0,0.0,0.0
7197,75.0,0.0,15.0,0.0,0.0
7198,66.0,512.0,15.0,0.0,0.0
7199,77.0,0.0,270.0,0.0,0.0
7200,68.0,0.0,270.0,0.0,0.0
7201,53.0,788.0,270.0,0.0,0.0
7202,56.0,0.0,780.0,0.0,0.0
7203,66.0,236.0,780.0,0.0,0.0
7204,75.0,0.0,780.0,0.0,0.0
7205,73.0,0.0,15.0,0.0,0.0
7206,65.0,0.0,15.0,0.0,0.0
7207,61.0,512.0,15.0,0.0,0.0
7208,42.0,512.0,540.0,0.0,0.0
7209,70.0,0.0,540.0,0.0,0.0
7210,66.0,0.0,540.0,0.0,0.0
7211,68.0,0.0,540.0,0.0,0.0
7212,46.0,0.0,540.0,0.0,0.0
7213,65.0,372.0,540.0,0.0,0.0
7214,66.0,0.0,390.0,0.0,0.0
7215,63.0,0.0,390.0,0.0,0.0
7216,51.0,652.0,390.0,0.0,0.0
7217,41.0,512.0,540.0,0.0,0.0
7218,68.0,0.0,540.0,0.0,0.0
7219,65.0,0.0,540.0,0.0,0.0
7220,63.0,0.0,540.0,0.0,0.0
7221,44.0,372.0,540.0,0.0,0.0
7222,66.0,0.0,540.0,0.0,0.0
7223,61.0,0.0,390.0,0.0,0.0
7224,49.0,0.0,390.0,0.0,0.0
7225,65.0,652.0,390.0,0.0,0.0
7226,39.0,0.0,540.0,0.0,0.0
7227,66.0,0.0,540.0,0.0,0.0
7228,63.0,512.0,540.0,0.0,0.0
7229,61.0,0.0,540.0,0.0,0.0
7230,42.0,0.0,540.0,0.0,0.0
7231,65.0,372.0,540.0,0.0,0.0
7232,60.0,0.0,390.0,0.0,0.0
7233,63.0,0.0,390.0,0.0,0.0
7234,48.0,120.0,390.0,0.0,0.0
7235,39.0,492.0,540.0,0.0,0.0
7236,78.0,0.0,540.0,0.0,0.0
7237,75.0,0.0,540.0,0.0,0.0
7238,66.0,20.0,510.0,0.0,0.0
7239,42.0,372.0,540.0,0.0,0.0
7240,77.0,0.0,540.0,0.0,0.0
7241,73.0,0.0,540.0,0.0,0.0
7242,65.0,20.0,510.0,0.0,0.0
7243,75.0,120.0,390.0,0.0,0.0
7244,48.0,0.0,390.0,0.0,0.0
7245,63.0,512.0,510.0,0.0,0.0
7246,72.0,0.0,390.0,0.0,0.0
7247,73.0,492.0,540.0,0.0,0.0
7248,77.0,0.0,540.0,0.0,0.0
7249,65.0,20.0,510.0,0.0,0.0
7250,37.0,0.0,540.0,0.0,0.0
7251,75.0,0.0,540.0,0.0,0.0
7252,63.0,20.0,510.0,0.0,0.0
7253,72.0,0.0,540.0,0.0,0.0
7254,41.0,372.0,540.0,0.0,0.0
7255,61.0,512.0,510.0,0.0,0.0
7256,70.0,0.0,390.0,0.0,0.0
7257,73.0,120.0,390.0,0.0,0.0
7258,46.0,0.0,390.0,0.0,0.0
7259,63.0,20.0,510.0,0.0,0.0
7260,71.0,0.0,540.0,0.0,0.0
7261,75.0,0.0,540.0,0.0,0.0
7262,35.0,492.0,540.0,0.0,0.0
7263,70.0,0.0,540.0,0.0,0.0
7264,73.0,372.0,540.0,0.0,0.0
7265,39.0,0.0,540.0,0.0,0.0
7266,61.0,20.0,510.0,0.0,0.0
7267,68.0,0.0,390.0,0.0,0.0
7268,47.0,512.0,540.0,0.0,0.0
7269,63.0,0.0,540.0,0.0,0.0
7270,59.0,20.0,510.0,0.0,0.0
7271,71.0,120.0,390.0,0.0,0.0
7272,44.0,0.0,390.0,0.0,0.0
7273,61.0,0.0,540.0,0.0,0.0
7274,51.0,372.0,540.0,0.0,0.0
7275,58.0,0.0,540.0,0.0,0.0
7276,56.0,652.0,390.0,0.0,0.0
7277,59.0,0.0,390.0,0.0,0.0
7278,46.0,512.0,540.0,0.0,0.0
7279,61.0,0.0,540.0,0.0,0.0
7280,58.0,0.0,540.0,0.0,0.0
7281,56.0,0.0,540.0,0.0,0.0
7282,59.0,372.0,540.0,0.0,0.0
7283,49.0,0.0,540.0,0.0,0.0
7284,54.0,652.0,390.0,0.0,0.0
7285,58.0,0.0,390.0,0.0,0.0
7286,57.0,0.0,540.0,0.0,0.0
7287,45.0,512.0,540.0,0.0,0.0
7288,61.0,0.0,540.0,0.0,0.0
7289,56.0,492.0,540.0,0.0,0.0
7290,37.0,0.0,540.0,0.0,0.0
7291,59.0,0.0,540.0,0.0,0.0
7292,45.0,0.0,540.0,0.0,0.0
7293,57.0,0.0,540.0,0.0,0.0
7294,54.0,492.0,540.0,0.0,0.0
7295,33.0,0.0,1530.0,0.0,0.0
7296,85.0,20.0,510.0,0.0,0.0
7297,78.0,0.0,540.0,0.0,0.0
7298,73.0,0.0,540.0,0.0,0.0
7299,49.0,0.0,540.0,0.0,0.0
7300,68.0,0.0,540.0,0.0,0.0
7301,80.0,20.0,510.0,0.0,0.0
7302,71.0,0.0,540.0,0.0,0.0
7303,83.0,372.0,540.0,0.0,0.0
7304,37.0,0.0,540.0,0.0,0.0
7305,66.0,0.0,390.0,0.0,0.0
7306,42.0,0.0,390.0,0.0,0.0
7307,81.0,0.0,390.0,0.0,0.0
7308,78.0,0.0,510.0,0.0,0.0
7309,69.0,120.0,390.0,0.0,0.0
7310,54.0,0.0,390.0,0.0,0.0
7311,64.0,0.0,540.0,0.0,0.0
7312,73.0,0.0,540.0,0.0,0.0
7313,32.0,0.0,1530.0,0.0,0.0
7314,85.0,512.0,540.0,0.0,0.0
7315,76.0,20.0,510.0,0.0,0.0
7316,44.0,532.0,1530.0,0.0,0.0
7317,69.0,0.0,540.0,0.0,0.0
7318,78.0,372.0,540.0,0.0,0.0
7319,49.0,0.0,540.0,0.0,0.0
7320,81.0,0.0,540.0,0.0,0.0
7321,37.0,0.0,540.0,0.0,0.0
7322,66.0,0.0,540.0,0.0,0.0
7323,52.0,0.0,390.0,0.0,0.0
7324,64.0,0.0,390.0,0.0,0.0
7325,76.0,0.0,390.0,0.0,0.0
7326,80.0,120.0,390.0,0.0,0.0
7327,40.0,0.0,390.0,0.0,0.0
7328,68.0,0.0,390.0,0.0,0.0
7329,85.0,492.0,540.0,0.0,0.0
7330,64.0,0.0,1020.0,0.0,0.0
7331,61.0,0.0,1020.0,0.0,0.0
7332,31.0,0.0,2550.0,0.0,0.0
7333,76.0,372.0,1050.0,0.0,0.0
7334,68.0,0.0,510.0,0.0,0.0
7335,49.0,0.0,510.0,0.0,0.0
7336,80.0,20.0,510.0,0.0,0.0
7337,37.0,0.0,540.0,0.0,0.0
7338,61.0,0.0,510.0,0.0,0.0
7339,67.0,1024.0,510.0,0.0,0.0
7340,52.0,0.0,510.0,0.0,0.0
7341,79.0,0.0,390.0,0.0,0.0
7342,40.0,0.0,390.0,0.0,0.0
7343,73.0,0.0,20.0,0.0,0.0
7344,73.0,0.0,3060.0,0.0,0.0
7345,46.0,0.0,2040.0,0.0,0.0
7346,43.0,0.0,15.0,0.0,0.0
7347,61.0,0.0,3060.0,0.0,0.0
7348,64.0,0.0,2040.0,0.0,0.0
7349,85.0,0.0,1020.0,0.0,0.0
7350,58.0,1024.0,2040.0,0.0,0.0
7351,68.0,0.0,1020.0,0.0,0.0
7352,76.0,1024.0,15.0,0.0,0.0
7353,80.0,0.0,1020.0,0.0,0.0
7354,49.0,0.0,1020.0,0.0,0.0
7355,79.0,0.0,1020.0,0.0,0.0
7356,52.0,0.0,1020.0,0.0,0.0
7357,64.0,0.0,1020.0,0.0,0.0
7358,67.0,0.0,1020.0,0.0,0.0
7359,46.0,2048.0,1020.0,0.0,0.0
7360,34.0,0.0,1020.0,0.0,0.0
7361,49.0,0.0,2040.0,0.0,0.0
7362,53.0,1024.0,2040.0,0.0,0.0
7363,80.0,1024.0,1020.0,0.0,0.0
7364,68.0,0.0,1020.0,0.0,0.0
7365,56.0,0.0,2040.0,0.0,0.0
7366,65.0,0.0,2040.0,0.0,0.0
7367,32.0,0.0,2040.0,0.0,0.0
7368,44.0,0.0,2040.0,0.0,0.0
7369,61.0,0.0,1020.0,0.0,0.0
7370,73.0,0.0,1020.0,0.0,0.0
7371,60.0,0.0,1020.0,0.0,0.0
7372,72.0,0.0,1020.0,0.0,0.0
7373,51.0,0.0,1020.0,0.0,0.0
7374,54.0,0.0,1020.0,0.0,0.0
7375,44.0,0.0,15.0,0.0,0.0
7376,68.0,0.0,1020.0,0.0,0.0
7377,63.0,0.0,1020.0,0.0,0.0
7378,56.0,0.0,1020.0,0.0,0.0
7379,32.0,0.0,1020.0,0.0,0.0
7380,46.0,0.0,2040.0,0.0,0.0
7381,43.0,1024.0,1020.0,0.0,0.0
7382,64.0,0.0,2040.0,0.0,0.0
7383,61.0,0.0,2040.0,0.0,0.0
7384,73.0,0.0,1020.0,0.0,0.0
7385,68.0,994.0,1050.0,0.0,0.0
7386,49.0,0.0,1020.0,0.0,0.0
7387,52.0,30.0,15.0,0.0,0.0
7388,34.0,0.0,1020.0,0.0,0.0
7389,46.0,0.0,1020.0,0.0,0.0
7390,67.0,0.0,1020.0,0.0,0.0
7391,61.0,2078.0,1020.0,0.0,0.0
7392,52.0,0.0,1020.0,0.0,0.0
7393,49.0,0.0,2040.0,0.0,0.0
7394,32.0,0.0,2040.0,0.0,0.0
7395,44.0,0.0,2040.0,0.0,0.0
7396,56.0,0.0,2040.0,0.0,0.0
7397,68.0,994.0,1050.0,0.0,0.0
7398,53.0,0.0,2040.0,0.0,0.0
7399,61.0,0.0,1020.0,0.0,0.0
7400,51.0,0.0,1020.0,0.0,0.0
7401,56.0,0.0,1020.0,0.0,0.0
7402,60.0,0.0,1020.0,0.0,0.0
7403,44.0,30.0,15.0,0.0,0.0
7404,54.0,2068.0,1020.0,0.0,0.0
7405,32.0,0.0,1020.0,0.0,0.0
7406,56.0,1004.0,1050.0,0.0,0.0
7407,41.0,0.0,1020.0,0.0,0.0
7408,49.0,1004.0,1050.0,0.0,0.0
7409,39.0,0.0,1020.0,0.0,0.0
7410,32.0,20.0,15.0,0.0,0.0
7411,44.0,0.0,2070.0,0.0,0.0
7412,48.0,0.0,1050.0,0.0,0.0
7413,68.0,1024.0,1050.0,0.0,0.0
7414,54.0,1024.0,1050.0,0.0,0.0
7415,63.0,0.0,1050.0,0.0,0.0
7416,46.0,1004.0,1050.0,0.0,0.0
7417,62.0,0.0,1050.0,0.0,0.0
7418,53.0,0.0,1050.0,0.0,0.0
7419,34.0,20.0,2040.0,0.0,0.0
7420,58.0,0.0,1050.0,0.0,0.0
7421,51.0,1004.0,1050.0,0.0,0.0
7422,42.0,0.0,1020.0,0.0,0.0
7423,46.0,0.0,2070.0,0.0,0.0
7424,70.0,1024.0,1050.0,0.0,0.0
7425,50.0,0.0,1050.0,0.0,0.0
7426,41.0,20.0,1020.0,0.0,0.0
7427,65.0,1024.0,1050.0,0.0,0.0
7428,56.0,0.0,1050.0,0.0,0.0
7429,60.0,0.0,1050.0,0.0,0.0
7430,55.0,1004.0,1050.0,0.0,0.0
7431,48.0,0.0,1050.0,0.0,0.0
7432,64.0,0.0,1050.0,0.0,0.0
7433,36.0,0.0,2040.0,0.0,0.0
7434,53.0,1004.0,1050.0,0.0,0.0
7435,44.0,20.0,1020.0,0.0,0.0
7436,48.0,0.0,2070.0,0.0,0.0
7437,72.0,0.0,1050.0,0.0,0.0
7438,43.0,20.0,1020.0,0.0,0.0
7439,52.0,1024.0,1050.0,0.0,0.0
7440,64.0,0.0,1050.0,0.0,0.0
7441,67.0,0.0,1050.0,0.0,0.0
7442,58.0,924.0,1050.0,0.0,0.0
7443,49.0,100.0,930.0,0.0,0.0
7444,56.0,0.0,930.0,0.0,0.0
7445,37.0,0.0,1050.0,0.0,0.0
7446,61.0,1024.0,1050.0,0.0,0.0
7447,65.0,0.0,1050.0,0.0,0.0
7448,47.0,0.0,1050.0,0.0,0.0
7449,56.0,0.0,1050.0,0.0,0.0
7450,53.0,1024.0,1050.0,0.0,0.0
7451,73.0,0.0,1050.0,0.0,0.0
7452,25.0,0.0,4110.0,0.0,0.0
7453,61.0,0.0,1050.0,0.0,0.0
7454,55.0,0.0,1050.0,0.0,0.0
7455,46.0,884.0,1050.0,0.0,0.0
7456,52.0,0.0,1050.0,0.0,0.0
7457,59.0,1004.0,1050.0,0.0,0.0
7458,47.0,0.0,900.0,0.0,0.0
7459,56.0,0.0,900.0,0.0,0.0
7460,53.0,140.0,900.0,0.0,0.0
7461,68.0,0.0,1050.0,0.0,0.0
7462,65.0,0.0,1050.0,0.0,0.0
7463,37.0,0.0,1050.0,0.0,0.0
7464,64.0,0.0,1050.0,0.0,0.0
7465,58.0,0.0,1050.0,0.0,0.0
7466,67.0,844.0,1050.0,0.0,0.0
7467,61.0,20.0,1020.0,0.0,0.0
7468,53.0,0.0,1020.0,0.0,0.0
7469,56.0,20.0,1020.0,0.0,0.0
7470,47.0,1004.0,1050.0,0.0,0.0
7471,59.0,0.0,870.0,0.0,0.0
7472,65.0,160.0,870.0,0.0,0.0
7473,68.0,0.0,870.0,0.0,0.0
7474,73.0,0.0,1050.0,0.0,0.0
7475,61.0,0.0,1050.0,0.0,0.0
7476,52.0,20.0,1020.0,0.0,0.0
7477,55.0,0.0,1020.0,0.0,0.0
7478,46.0,884.0,1050.0,0.0,0.0
7479,65.0,0.0,1050.0,0.0,0.0
7480,68.0,1004.0,1050.0,0.0,0.0
7481,47.0,0.0,900.0,0.0,0.0
7482,59.0,0.0,1050.0,0.0,0.0
7483,53.0,0.0,900.0,0.0,0.0
7484,56.0,140.0,900.0,0.0,0.0
7485,64.0,0.0,1050.0,0.0,0.0
7486,58.0,0.0,1050.0,0.0,0.0
7487,37.0,844.0,1050.0,0.0,0.0
7488,67.0,0.0,1050.0,0.0,0.0
7489,61.0,20.0,990.0,0.0,0.0
7490,47.0,1004.0,1050.0,0.0,0.0
7491,68.0,0.0,870.0,0.0,0.0
7492,65.0,160.0,870.0,0.0,0.0
7493,59.0,0.0,870.0,0.0,0.0
7494,56.0,0.0,990.0,0.0,0.0
7495,44.0,0.0,1050.0,0.0,0.0
7496,75.0,0.0,1050.0,0.0,0.0
7497,71.0,0.0,1050.0,0.0,0.0
7498,25.0,0.0,15.0,0.0,0.0
7499,63.0,844.0,1050.0,0.0,0.0
7500,53.0,20.0,990.0,0.0,0.0
7501,70.0,0.0,870.0,0.0,0.0
7502,46.0,120.0,900.0,0.0,0.0
7503,54.0,0.0,900.0,0.0,0.0
7504,61.0,40.0,870.0,0.0,0.0
7505,42.0,0.0,1050.0,0.0,0.0
7506,25.0,1024.0,15.0,0.0,0.0
7507,73.0,0.0,1050.0,0.0,0.0
7508,37.0,0.0,2040.0,0.0,0.0
7509,69.0,0.0,1050.0,0.0,0.0
7510,61.0,844.0,1050.0,0.0,0.0
7511,51.0,20.0,990.0,0.0,0.0
7512,59.0,40.0,870.0,0.0,0.0
7513,68.0,0.0,870.0,0.0,0.0
7514,44.0,120.0,900.0,0.0,0.0
7515,53.0,0.0,900.0,0.0,0.0
7516,71.0,0.0,1050.0,0.0,0.0
7517,25.0,0.0,2040.0,0.0,0.0
7518,68.0,844.0,1050.0,0.0,0.0
7519,59.0,0.0,1050.0,0.0,0.0
7520,41.0,0.0,1050.0,0.0,0.0
7521,50.0,20.0,990.0,0.0,0.0
7522,58.0,40.0,870.0,0.0,0.0
7523,49.0,120.0,900.0,0.0,0.0
7524,42.0,1024.0,1020.0,0.0,0.0
7525,66.0,0.0,870.0,0.0,0.0
7526,66.0,0.0,1050.0,0.0,0.0
7527,37.0,0.0,2040.0,0.0,0.0
7528,48.0,0.0,1020.0,0.0,0.0
7529,25.0,1024.0,2040.0,0.0,0.0
7530,70.0,844.0,1050.0,0.0,0.0
7531,39.0,20.0,990.0,0.0,0.0
7532,58.0,40.0,870.0,0.0,0.0
7533,63.0,0.0,870.0,0.0,0.0
7534,54.0,0.0,900.0,0.0,0.0
7535,48.0,120.0,900.0,0.0,0.0
7536,69.0,0.0,1050.0,0.0,0.0
7537,66.0,844.0,1050.0,0.0,0.0
7538,39.0,20.0,990.0,0.0,0.0
7539,63.0,40.0,870.0,0.0,0.0
7540,54.0,0.0,900.0,0.0,0.0
7541,48.0,0.0,15.0,0.0,0.0
7542,57.0,0.0,870.0,0.0,0.0
7543,25.0,1024.0,15.0,0.0,0.0
7544,69.0,0.0,1050.0,0.0,0.0
7545,66.0,844.0,1050.0,0.0,0.0
7546,37.0,0.0,2040.0,0.0,0.0
7547,39.0,20.0,990.0,0.0,0.0
7548,57.0,40.0,870.0,0.0,0.0
7549,54.0,120.0,900.0,0.0,0.0
7550,48.0,0.0,15.0,0.0,0.0
7551,63.0,0.0,870.0,0.0,0.0
7552,48.0,0.0,1020.0,0.0,0.0
7553,66.0,0.0,1050.0,0.0,0.0
7554,68.0,844.0,1050.0,0.0,0.0
7555,25.0,0.0,1020.0,0.0,0.0
7556,39.0,0.0,990.0,0.0,0.0
7557,37.0,0.0,15.0,0.0,0.0
7558,54.0,120.0,900.0,0.0,0.0
7559,48.0,0.0,900.0,0.0,0.0
7560,56.0,0.0,870.0,0.0,0.0
7561,63.0,40.0,870.0,0.0,0.0
7562,68.0,844.0,1050.0,0.0,0.0
7563,66.0,0.0,1050.0,0.0,0.0
7564,25.0,0.0,3060.0,0.0,0.0
7565,37.0,1024.0,15.0,0.0,0.0
7566,48.0,20.0,1020.0,0.0,0.0
7567,39.0,0.0,990.0,0.0,0.0
7568,63.0,160.0,870.0,0.0,0.0
7569,54.0,0.0,1020.0,0.0,0.0
7570,56.0,0.0,870.0,0.0,0.0
7571,48.0,1024.0,15.0,0.0,0.0
7572,80.0,512.0,1020.0,0.0,0.0
7573,54.0,20.0,6150.0,0.0,0.0
7574,39.0,0.0,1530.0,0.0,0.0
7575,75.0,512.0,1560.0,0.0,0.0
7576,25.0,0.0,10230.0,0.0,0.0
7577,68.0,0.0,1050.0,0.0,0.0
7578,77.0,512.0,540.0,0.0,0.0
7579,78.0,512.0,540.0,0.0,0.0
7580,63.0,492.0,1560.0,0.0,0.0
7581,75.0,512.0,540.0,0.0,0.0
7582,72.0,0.0,540.0,0.0,0.0
7583,73.0,0.0,540.0,0.0,0.0
7584,65.0,512.0,540.0,0.0,0.0
7585,66.0,20.0,15.0,0.0,0.0
7586,75.0,0.0,540.0,0.0,0.0
7587,72.0,512.0,540.0,0.0,0.0
7588,63.0,512.0,1050.0,0.0,0.0
7589,66.0,0.0,540.0,0.0,0.0
7590,68.0,512.0,540.0,0.0,0.0
7591,65.0,0.0,540.0,0.0,0.0
7592,70.0,0.0,540.0,0.0,0.0
7593,60.0,0.0,1050.0,0.0,0.0
7594,66.0,512.0,20.0,0.0,0.0
7595,63.0,512.0,540.0,0.0,0.0
7596,65.0,0.0,540.0,0.0,0.0
7597,62.0,512.0,540.0,0.0,0.0
7598,66.0,492.0,1560.0,0.0,0.0
7599,63.0,512.0,540.0,0.0,0.0
7600,56.0,492.0,540.0,0.0,0.0
7601,63.0,0.0,540.0,0.0,0.0
7602,67.0,0.0,540.0,0.0,0.0
7603,61.0,512.0,540.0,0.0,0.0
7604,46.0,0.0,510.0,0.0,0.0
7605,68.0,492.0,540.0,0.0,0.0
7606,56.0,20.0,1020.0,0.0,0.0
7607,37.0,20.0,15.0,0.0,0.0
7608,44.0,20.0,2040.0,0.0,0.0
7609,60.0,0.0,540.0,0.0,0.0
7610,58.0,512.0,540.0,0.0,0.0
7611,70.0,0.0,540.0,0.0,0.0
7612,72.0,0.0,540.0,0.0,0.0
7613,56.0,492.0,540.0,0.0,0.0
7614,58.0,0.0,510.0,0.0,0.0
7615,55.0,512.0,540.0,0.0,0.0
7616,73.0,0.0,540.0,0.0,0.0
7617,75.0,0.0,540.0,0.0,0.0
7618,54.0,512.0,540.0,0.0,0.0
7619,37.0,0.0,2040.0,0.0,0.0
7620,56.0,0.0,3060.0,0.0,0.0
7621,60.0,20.0,3060.0,0.0,0.0
7622,53.0,0.0,540.0,0.0,0.0
7623,77.0,1004.0,540.0,0.0,0.0
7624,51.0,0.0,2040.0,0.0,0.0
7625,78.0,1004.0,2070.0,0.0,0.0
7626,44.0,1024.0,15.0,0.0,0.0
7627,63.0,1004.0,1050.0,0.0,0.0
7628,72.0,0.0,1020.0,0.0,0.0
7629,66.0,0.0,2040.0,0.0,0.0
7630,56.0,532.0,1020.0,0.0,0.0
7631,37.0,20.0,15.0,0.0,0.0
7632,25.0,0.0,8190.0,0.0,0.0
7633,73.0,20.0,1020.0,0.0,0.0
7634,65.0,20.0,2040.0,0.0,0.0
7635,49.0,512.0,4110.0,0.0,0.0
7636,58.0,512.0,540.0,0.0,0.0
7637,59.0,492.0,540.0,0.0,0.0
7638,68.0,20.0,1530.0,0.0,0.0
7639,56.0,492.0,540.0,0.0,0.0
7640,61.0,0.0,5130.0,0.0,0.0
7641,53.0,492.0,540.0,0.0,0.0
7642,70.0,20.0,510.0,0.0,0.0
7643,54.0,492.0,540.0,0.0,0.0
7644,71.0,492.0,540.0,0.0,0.0
7645,56.0,20.0,510.0,0.0,0.0
7646,53.0,0.0,510.0,0.0,0.0
7647,68.0,492.0,1050.0,0.0,0.0
7648,53.0,20.0,4620.0,0.0,0.0
7649,47.0,20.0,510.0,0.0,0.0
7650,70.0,492.0,540.0,0.0,0.0
7651,49.0,20.0,510.0,0.0,0.0
7652,51.0,20.0,510.0,0.0,0.0
7653,71.0,492.0,540.0,0.0,0.0
7654,65.0,492.0,1050.0,0.0,0.0
7655,47.0,512.0,510.0,0.0,0.0
7656,44.0,20.0,510.0,0.0,0.0
7657,46.0,0.0,510.0,0.0,0.0
7658,67.0,1024.0,540.0,0.0,0.0
7659,37.0,20.0,15.0,0.0,0.0
7660,47.0,492.0,1560.0,0.0,0.0
7661,25.0,20.0,8190.0,0.0,0.0
7662,61.0,492.0,540.0,0.0,0.0
7663,68.0,0.0,540.0,0.0,0.0
7664,48.0,512.0,540.0,0.0,0.0
7665,66.0,0.0,540.0,0.0,0.0
7666,51.0,20.0,510.0,0.0,0.0
7667,49.0,512.0,540.0,0.0,0.0
7668,65.0,0.0,540.0,0.0,0.0
7669,63.0,492.0,540.0,0.0,0.0
7670,51.0,0.0,540.0,0.0,0.0
7671,53.0,0.0,540.0,0.0,0.0
7672,61.0,492.0,540.0,0.0,0.0
7673,51.0,20.0,510.0,0.0,0.0
7674,54.0,512.0,540.0,0.0,0.0
7675,60.0,0.0,540.0,0.0,0.0
7676,53.0,512.0,540.0,0.0,0.0
7677,59.0,0.0,1560.0,0.0,0.0
7678,56.0,0.0,20.0,0.0,0.0
7679,54.0,512.0,540.0,0.0,0.0
7680,53.0,0.0,540.0,0.0,0.0
7681,68.0,512.0,540.0,0.0,0.0
7682,51.0,512.0,540.0,0.0,0.0
7683,60.0,0.0,540.0,0.0,0.0
7684,66.0,0.0,540.0,0.0,0.0
7685,49.0,0.0,540.0,0.0,0.0
7686,61.0,0.0,540.0,0.0,0.0
7687,65.0,512.0,540.0,0.0,0.0
7688,63.0,0.0,540.0,0.0,0.0
7689,47.0,512.0,540.0,0.0,0.0
7690,46.0,0.0,540.0,0.0,0.0
7691,61.0,0.0,540.0,0.0,0.0
7692,65.0,492.0,540.0,0.0,0.0
7693,45.0,0.0,540.0,0.0,0.0
7694,60.0,512.0,540.0,0.0,0.0
7695,66.0,0.0,540.0,0.0,0.0
7696,37.0,0.0,15.0,0.0,0.0
7697,68.0,0.0,540.0,0.0,0.0
7698,44.0,512.0,540.0,0.0,0.0
7699,59.0,0.0,540.0,0.0,0.0
7700,58.0,0.0,540.0,0.0,0.0
7701,73.0,0.0,540.0,0.0,0.0
7702,42.0,512.0,540.0,0.0,0.0
7703,70.0,0.0,540.0,0.0,0.0
7704,80.0,492.0,540.0,0.0,0.0
7705,41.0,0.0,540.0,0.0,0.0
7706,71.0,0.0,540.0,0.0,0.0
7707,72.0,0.0,540.0,0.0,0.0
7708,56.0,0.0,20.0,0.0,0.0
7709,78.0,0.0,540.0,0.0,0.0
7710,39.0,0.0,540.0,0.0,0.0
7711,77.0,512.0,540.0,0.0,0.0
7712,25.0,1024.0,6150.0,0.0,0.0
7713,73.0,0.0,540.0,0.0,0.0
7714,68.0,0.0,540.0,0.0,0.0
7715,66.0,0.0,540.0,0.0,0.0
7716,75.0,0.0,540.0,0.0,0.0
7717,77.0,0.0,540.0,0.0,0.0
7718,65.0,0.0,540.0,0.0,0.0
7719,73.0,512.0,540.0,0.0,0.0
7720,63.0,0.0,540.0,0.0,0.0
7721,78.0,0.0,540.0,0.0,0.0
7722,72.0,512.0,540.0,0.0,0.0
7723,80.0,0.0,540.0,0.0,0.0
7724,71.0,512.0,540.0,0.0,0.0
7725,65.0,0.0,540.0,0.0,0.0
7726,66.0,0.0,540.0,0.0,0.0
7727,82.0,0.0,540.0,0.0,0.0
7728,70.0,512.0,540.0,0.0,0.0
7729,68.0,512.0,540.0,0.0,0.0
7730,70.0,512.0,540.0,0.0,0.0
7731,71.0,512.0,540.0,0.0,0.0
7732,73.0,1004.0,540.0,0.0,0.0
7733,83.0,0.0,20.0,0.0,0.0
7734,77.0,0.0,2040.0,0.0,0.0
7735,74.0,0.0,2040.0,0.0,0.0
7736,65.0,0.0,2040.0,0.0,0.0
7737,68.0,0.0,20.0,0.0,0.0
7738,37.0,0.0,15.0,0.0,0.0
7739,66.0,0.0,2040.0,0.0,0.0
7740,70.0,1044.0,2040.0,0.0,0.0
7741,82.0,0.0,2040.0,0.0,0.0
7742,73.0,0.0,2040.0,0.0,0.0
7743,42.0,1004.0,2070.0,0.0,0.0
7744,78.0,0.0,15.0,0.0,0.0
7745,81.0,0.0,2040.0,0.0,0.0
7746,73.0,0.0,2040.0,0.0,0.0
7747,69.0,1044.0,2040.0,0.0,0.0
7748,85.0,0.0,2040.0,0.0,0.0
7749,49.0,1004.0,2070.0,0.0,0.0
7750,68.0,0.0,2040.0,0.0,0.0
7751,84.0,0.0,2040.0,0.0,0.0
7752,56.0,1004.0,2070.0,0.0,0.0
7753,78.0,0.0,15.0,0.0,0.0
7754,75.0,0.0,15.0,0.0,0.0
7755,72.0,0.0,15.0,0.0,0.0
7756,80.0,1044.0,15.0,0.0,0.0
7757,90.0,0.0,2040.0,0.0,0.0
7758,84.0,0.0,2040.0,0.0,0.0
7759,61.0,512.0,1560.0,0.0,0.0
7760,77.0,0.0,2040.0,0.0,0.0
7761,80.0,0.0,2040.0,0.0,0.0
7762,89.0,0.0,2040.0,0.0,0.0
7763,63.0,512.0,540.0,0.0,0.0
7764,65.0,492.0,540.0,0.0,0.0
7765,61.0,512.0,1050.0,0.0,0.0
7766,73.0,0.0,15.0,0.0,0.0
7767,80.0,0.0,2040.0,0.0,0.0
7768,85.0,532.0,15.0,0.0,0.0
7769,88.0,0.0,2040.0,0.0,0.0
7770,63.0,512.0,540.0,0.0,0.0
7771,64.0,492.0,540.0,0.0,0.0
7772,61.0,512.0,1050.0,0.0,0.0
7773,76.0,0.0,15.0,0.0,0.0
7774,81.0,0.0,2040.0,0.0,0.0
7775,73.0,532.0,15.0,0.0,0.0
7776,85.0,0.0,2040.0,0.0,0.0
7777,63.0,512.0,540.0,0.0,0.0
7778,64.0,492.0,540.0,0.0,0.0
7779,61.0,512.0,540.0,0.0,0.0
7780,73.0,0.0,15.0,0.0,0.0
7781,76.0,20.0,15.0,0.0,0.0
7782,79.0,0.0,2040.0,0.0,0.0
7783,57.0,512.0,540.0,0.0,0.0
7784,61.0,1004.0,540.0,0.0,0.0
7785,56.0,1004.0,2070.0,0.0,0.0
7786,72.0,0.0,2040.0,0.0,0.0
7787,75.0,0.0,2040.0,0.0,0.0
7788,80.0,1044.0,2040.0,0.0,0.0
7789,32.0,1004.0,2070.0,0.0,0.0
7790,63.0,0.0,2040.0,0.0,0.0
7791,72.0,0.0,2040.0,0.0,0.0
7792,75.0,0.0,2040.0,0.0,0.0
7793,78.0,532.0,2040.0,0.0,0.0
7794,33.0,512.0,1560.0,0.0,0.0
7795,76.0,20.0,2040.0,0.0,0.0
7796,73.0,0.0,2040.0,0.0,0.0
7797,64.0,512.0,1050.0,0.0,0.0
7798,35.0,0.0,540.0,0.0,0.0
7799,37.0,492.0,540.0,0.0,0.0
7800,67.0,512.0,1050.0,0.0,0.0
7801,33.0,512.0,1050.0,0.0,0.0
7802,65.0,20.0,2040.0,0.0,0.0
7803,69.0,512.0,1050.0,0.0,0.0
7804,74.0,0.0,2040.0,0.0,0.0
7805,37.0,0.0,540.0,0.0,0.0
7806,68.0,512.0,1050.0,0.0,0.0
7807,38.0,492.0,540.0,0.0,0.0
7808,33.0,512.0,1050.0,0.0,0.0
7809,73.0,20.0,2040.0,0.0,0.0
7810,69.0,0.0,2040.0,0.0,0.0
7811,64.0,0.0,2040.0,0.0,0.0
7812,39.0,512.0,540.0,0.0,0.0
7813,40.0,492.0,540.0,0.0,0.0
7814,37.0,512.0,540.0,0.0,0.0
7815,67.0,0.0,1020.0,0.0,0.0
7816,52.0,20.0,1020.0,0.0,0.0
7817,33.0,492.0,540.0,0.0,0.0
7818,61.0,0.0,1020.0,0.0,0.0
7819,64.0,0.0,1020.0,0.0,0.0
7820,37.0,1536.0,540.0,0.0,0.0
7821,32.0,492.0,1560.0,0.0,0.0
7822,68.0,0.0,1020.0,0.0,0.0
7823,60.0,0.0,1020.0,0.0,0.0
7824,51.0,20.0,1020.0,0.0,0.0
7825,63.0,0.0,1020.0,0.0,0.0
7826,39.0,512.0,540.0,0.0,0.0
7827,40.0,512.0,540.0,0.0,0.0
7828,37.0,512.0,540.0,0.0,0.0
7829,52.0,20.0,1020.0,0.0,0.0
7830,61.0,0.0,1020.0,0.0,0.0
7831,67.0,0.0,1020.0,0.0,0.0
7832,33.0,492.0,540.0,0.0,0.0
7833,37.0,1536.0,540.0,0.0,0.0
7834,32.0,492.0,1560.0,0.0,0.0
7835,56.0,20.0,1020.0,0.0,0.0
7836,68.0,0.0,1020.0,0.0,0.0
7837,51.0,0.0,1020.0,0.0,0.0
7838,60.0,0.0,1020.0,0.0,0.0
7839,38.0,512.0,540.0,0.0,0.0
7840,39.0,512.0,540.0,0.0,0.0
7841,36.0,372.0,540.0,0.0,0.0
7842,68.0,0.0,1020.0,0.0,0.0
7843,60.0,0.0,1020.0,0.0,0.0
7844,56.0,0.0,1020.0,0.0,0.0
7845,32.0,632.0,390.0,0.0,0.0
7846,50.0,512.0,540.0,0.0,0.0
7847,51.0,20.0,15.0,0.0,0.0
7848,48.0,372.0,540.0,0.0,0.0
7849,51.0,0.0,1020.0,0.0,0.0
7850,56.0,0.0,1020.0,0.0,0.0
7851,60.0,0.0,1020.0,0.0,0.0
7852,68.0,20.0,1020.0,0.0,0.0
7853,44.0,632.0,390.0,0.0,0.0
7854,53.0,512.0,540.0,0.0,0.0
7855,54.0,512.0,540.0,0.0,0.0
7856,51.0,372.0,540.0,0.0,0.0
7857,48.0,632.0,390.0,0.0,0.0
7858,56.0,0.0,510.0,0.0,0.0
7859,44.0,361.0,510.0,0.0,0.0
7860,57.0,342.0,360.0,0.0,0.0
7861,45.0,0.0,360.0,0.0,0.0
7862,42.0,0.0,360.0,0.0,0.0
7863,54.0,341.0,360.0,0.0,0.0
7864,51.0,341.0,360.0,0.0,0.0
7865,39.0,0.0,360.0,0.0,0.0
7866,42.0,0.0,360.0,0.0,0.0
7867,54.0,342.0,360.0,0.0,0.0
7868,45.0,341.0,360.0,0.0,0.0
7869,57.0,0.0,360.0,0.0,0.0
7870,59.0,341.0,360.0,0.0,0.0
7871,47.0,0.0,360.0,0.0,0.0
7872,60.0,0.0,360.0,0.0,0.0
7873,48.0,342.0,360.0,0.0,0.0
7874,57.0,341.0,360.0,0.0,0.0
7875,45.0,0.0,360.0,0.0,0.0
7876,54.0,341.0,360.0,0.0,0.0
7877,42.0,0.0,360.0,0.0,0.0
7878,57.0,342.0,360.0,0.0,0.0
7879,45.0,0.0,360.0,0.0,0.0
7880,48.0,341.0,360.0,0.0,0.0
7881,60.0,0.0,360.0,0.0,0.0
7882,62.0,0.0,360.0,0.0,0.0
7883,50.0,321.0,360.0,0.0,0.0
7884,51.0,0.0,330.0,0.0,0.0
7885,63.0,342.0,330.0,0.0,0.0
7886,60.0,0.0,330.0,0.0,0.0
7887,48.0,341.0,330.0,0.0,0.0
7888,45.0,341.0,330.0,0.0,0.0
7889,57.0,0.0,330.0,0.0,0.0
7890,60.0,0.0,330.0,0.0,0.0
7891,48.0,342.0,330.0,0.0,0.0
7892,63.0,0.0,330.0,0.0,0.0
7893,51.0,341.0,330.0,0.0,0.0
7894,65.0,0.0,330.0,0.0,0.0
7895,53.0,341.0,330.0,0.0,0.0
7896,54.0,342.0,330.0,0.0,0.0
7897,66.0,0.0,330.0,0.0,0.0
7898,51.0,341.0,330.0,0.0,0.0
7899,63.0,0.0,330.0,0.0,0.0
7900,60.0,0.0,330.0,0.0,0.0
7901,48.0,341.0,330.0,0.0,0.0
7902,63.0,0.0,330.0,0.0,0.0
7903,51.0,342.0,330.0,0.0,0.0
7904,54.0,0.0,330.0,0.0,0.0
7905,66.0,341.0,330.0,0.0,0.0
7906,56.0,512.0,330.0,0.0,0.0
7907,68.0,0.0,330.0,0.0,0.0
7908,54.0,256.0,210.0,0.0,0.0
7909,66.0,0.0,210.0,0.0,0.0
7910,51.0,256.0,210.0,0.0,0.0
7911,63.0,0.0,210.0,0.0,0.0
7912,66.0,306.0,210.0,0.0,0.0
7913,54.0,0.0,210.0,0.0,0.0
7914,45.0,0.0,510.0,0.0,0.0
7915,33.0,0.0,510.0,0.0,0.0
7916,73.0,0.0,510.0,0.0,0.0
7917,57.0,0.0,15.0,0.0,0.0
7918,69.0,0.0,15.0,0.0,0.0
7919,52.0,0.0,210.0,0.0,0.0
7920,64.0,0.0,210.0,0.0,0.0
7921,45.0,0.0,450.0,0.0,0.0
7922,57.0,256.0,210.0,0.0,0.0
7923,52.0,0.0,210.0,0.0,0.0
7924,64.0,276.0,210.0,0.0,0.0
7925,60.0,0.0,2040.0,0.0,0.0
7926,57.0,236.0,270.0,0.0,0.0
7927,69.0,20.0,510.0,0.0,0.0
7928,45.0,0.0,2040.0,0.0,0.0
7929,39.0,1536.0,2040.0,0.0,0.0
7930,72.0,0.0,2040.0,0.0,0.0
7931,66.0,0.0,270.0,0.0,0.0
7932,54.0,256.0,270.0,0.0,0.0
7933,51.0,0.0,270.0,0.0,0.0
7934,63.0,256.0,270.0,0.0,0.0
7935,66.0,512.0,270.0,0.0,0.0
7936,54.0,0.0,270.0,0.0,0.0
7937,69.0,0.0,540.0,0.0,0.0
7938,57.0,492.0,540.0,0.0,0.0
7939,54.0,256.0,270.0,0.0,0.0
7940,66.0,0.0,270.0,0.0,0.0
7941,69.0,0.0,270.0,0.0,0.0
7942,57.0,256.0,270.0,0.0,0.0
7943,71.0,0.0,270.0,0.0,0.0
7944,59.0,256.0,270.0,0.0,0.0
7945,73.0,0.0,270.0,0.0,0.0
7946,61.0,256.0,270.0,0.0,0.0
7947,69.0,0.0,270.0,0.0,0.0
7948,57.0,256.0,270.0,0.0,0.0
7949,66.0,256.0,270.0,0.0,0.0
7950,54.0,0.0,270.0,0.0,0.0
7951,57.0,316.0,270.0,0.0,0.0
7952,69.0,0.0,270.0,0.0,0.0
7953,61.0,196.0,330.0,0.0,0.0
7954,76.0,0.0,510.0,0.0,0.0
7955,37.0,0.0,510.0,0.0,0.0
7956,49.0,256.0,510.0,0.0,0.0
7957,73.0,0.0,1020.0,0.0,0.0
7958,64.0,0.0,510.0,0.0,0.0
7959,68.0,0.0,210.0,0.0,0.0
7960,56.0,0.0,210.0,0.0,0.0
7961,61.0,256.0,210.0,0.0,0.0
7962,49.0,0.0,450.0,0.0,0.0
7963,68.0,0.0,210.0,0.0,0.0
7964,56.0,512.0,210.0,0.0,0.0
7965,73.0,256.0,510.0,0.0,0.0
7966,49.0,0.0,2040.0,0.0,0.0
7967,42.0,0.0,2040.0,0.0,0.0
7968,63.0,0.0,2040.0,0.0,0.0
7969,75.0,0.0,2040.0,0.0,0.0
7970,61.0,0.0,510.0,0.0,0.0
7971,69.0,0.0,210.0,0.0,0.0
7972,57.0,0.0,210.0,0.0,0.0
7973,54.0,256.0,210.0,0.0,0.0
7974,66.0,0.0,210.0,0.0,0.0
7975,57.0,0.0,210.0,0.0,0.0
7976,69.0,512.0,210.0,0.0,0.0
7977,61.0,0.0,510.0,0.0,0.0
7978,73.0,512.0,510.0,0.0,0.0
7979,69.0,256.0,270.0,0.0,0.0
7980,57.0,0.0,270.0,0.0,0.0
7981,73.0,0.0,270.0,0.0,0.0
7982,61.0,256.0,270.0,0.0,0.0
7983,63.0,256.0,270.0,0.0,0.0
7984,75.0,0.0,270.0,0.0,0.0
7985,76.0,0.0,270.0,0.0,0.0
7986,64.0,336.0,270.0,0.0,0.0
7987,73.0,0.0,270.0,0.0,0.0
7988,61.0,256.0,270.0,0.0,0.0
7989,69.0,256.0,270.0,0.0,0.0
7990,57.0,0.0,270.0,0.0,0.0
7991,73.0,0.0,270.0,0.0,0.0
7992,61.0,176.0,270.0,0.0,0.0
7993,64.0,256.0,270.0,0.0,0.0
7994,80.0,0.0,510.0,0.0,0.0
7995,76.0,0.0,270.0,0.0,0.0
7996,52.0,0.0,510.0,0.0,0.0
7997,68.0,0.0,510.0,0.0,0.0
7998,71.0,0.0,210.0,0.0,0.0
7999,59.0,0.0,270.0,0.0,0.0
8000,52.0,256.0,270.0,0.0,0.0
8001,64.0,0.0,270.0,0.0,0.0
8002,71.0,176.0,270.0,0.0,0.0
8003,59.0,0.0,270.0,0.0,0.0
8004,69.0,0.0,510.0,0.0,0.0
8005,81.0,0.0,510.0,0.0,0.0
8006,45.0,0.0,510.0,0.0,0.0
8007,57.0,0.0,510.0,0.0,0.0
8008,76.0,0.0,270.0,0.0,0.0
8009,64.0,256.0,270.0,0.0,0.0
8010,73.0,80.0,210.0,0.0,0.0
8011,61.0,0.0,270.0,0.0,0.0
8012,57.0,256.0,270.0,0.0,0.0
8013,69.0,0.0,270.0,0.0,0.0
8014,61.0,0.0,270.0,0.0,0.0
8015,73.0,176.0,270.0,0.0,0.0
8016,52.0,80.0,510.0,0.0,0.0
8017,40.0,0.0,510.0,0.0,0.0
8018,68.0,0.0,510.0,0.0,0.0
8019,80.0,0.0,510.0,0.0,0.0
8020,76.0,256.0,270.0,0.0,0.0
8021,64.0,0.0,270.0,0.0,0.0
8022,59.0,256.0,270.0,0.0,0.0
8023,71.0,0.0,210.0,0.0,0.0
8024,52.0,256.0,270.0,0.0,0.0
8025,64.0,0.0,270.0,0.0,0.0
8026,59.0,176.0,270.0,0.0,0.0
8027,71.0,0.0,270.0,0.0,0.0
8028,45.0,0.0,510.0,0.0,0.0
8029,33.0,0.0,510.0,0.0,0.0
8030,81.0,0.0,510.0,0.0,0.0
8031,69.0,0.0,510.0,0.0,0.0
8032,64.0,256.0,270.0,0.0,0.0
8033,76.0,0.0,270.0,0.0,0.0
8034,73.0,0.0,210.0,0.0,0.0
8035,61.0,0.0,270.0,0.0,0.0
8036,57.0,0.0,270.0,0.0,0.0
8037,69.0,256.0,270.0,0.0,0.0
8038,61.0,0.0,270.0,0.0,0.0
8039,73.0,176.0,270.0,0.0,0.0
8040,62.0,0.0,270.0,0.0,0.0
8041,66.0,0.0,510.0,0.0,0.0
8042,78.0,0.0,510.0,0.0,0.0
8043,50.0,0.0,510.0,0.0,0.0
8044,74.0,256.0,270.0,0.0,0.0
8045,57.0,0.0,270.0,0.0,0.0
8046,69.0,0.0,210.0,0.0,0.0
8047,62.0,256.0,270.0,0.0,0.0
8048,50.0,0.0,270.0,0.0,0.0
8049,69.0,176.0,270.0,0.0,0.0
8050,57.0,0.0,270.0,0.0,0.0
8051,62.0,256.0,270.0,0.0,0.0
8052,74.0,0.0,270.0,0.0,0.0
8053,79.0,0.0,510.0,0.0,0.0
8054,43.0,0.0,510.0,0.0,0.0
8055,55.0,0.0,510.0,0.0,0.0
8056,67.0,0.0,510.0,0.0,0.0
8057,71.0,80.0,210.0,0.0,0.0
8058,59.0,256.0,270.0,0.0,0.0
8059,55.0,256.0,270.0,0.0,0.0
8060,67.0,0.0,270.0,0.0,0.0
8061,71.0,176.0,270.0,0.0,0.0
8062,59.0,0.0,270.0,0.0,0.0
8063,62.0,0.0,270.0,0.0,0.0
8064,74.0,256.0,270.0,0.0,0.0
8065,78.0,80.0,510.0,0.0,0.0
8066,66.0,0.0,510.0,0.0,0.0
8067,50.0,0.0,510.0,0.0,0.0
8068,38.0,0.0,510.0,0.0,0.0
8069,57.0,0.0,270.0,0.0,0.0
8070,69.0,0.0,210.0,0.0,0.0
8071,50.0,256.0,270.0,0.0,0.0
8072,62.0,0.0,270.0,0.0,0.0
8073,69.0,0.0,270.0,0.0,0.0
8074,57.0,176.0,270.0,0.0,0.0
8075,62.0,256.0,270.0,0.0,0.0
8076,67.0,0.0,510.0,0.0,0.0
8077,74.0,0.0,270.0,0.0,0.0
8078,79.0,0.0,510.0,0.0,0.0
8079,31.0,0.0,510.0,0.0,0.0
8080,43.0,80.0,510.0,0.0,0.0
8081,71.0,0.0,210.0,0.0,0.0
8082,59.0,0.0,270.0,0.0,0.0
8083,55.0,0.0,270.0,0.0,0.0
8084,67.0,256.0,270.0,0.0,0.0
8085,59.0,0.0,270.0,0.0,0.0
8086,71.0,176.0,270.0,0.0,0.0
8087,49.0,0.0,510.0,0.0,0.0
8088,37.0,0.0,510.0,0.0,0.0
8089,77.0,0.0,510.0,0.0,0.0
8090,73.0,256.0,270.0,0.0,0.0
8091,65.0,0.0,510.0,0.0,0.0
8092,61.0,0.0,270.0,0.0,0.0
8093,56.0,256.0,270.0,0.0,0.0
8094,68.0,0.0,210.0,0.0,0.0
8095,61.0,0.0,270.0,0.0,0.0
8096,49.0,256.0,270.0,0.0,0.0
8097,56.0,176.0,270.0,0.0,0.0
8098,68.0,0.0,270.0,0.0,0.0
8099,78.0,0.0,510.0,0.0,0.0
8100,73.0,0.0,270.0,0.0,0.0
8101,66.0,0.0,510.0,0.0,0.0
8102,42.0,0.0,510.0,0.0,0.0
8103,61.0,256.0,270.0,0.0,0.0
8104,30.0,80.0,510.0,0.0,0.0
8105,69.0,0.0,210.0,0.0,0.0
8106,57.0,0.0,270.0,0.0,0.0
8107,54.0,0.0,270.0,0.0,0.0
8108,66.0,256.0,270.0,0.0,0.0
8109,57.0,176.0,270.0,0.0,0.0
8110,45.0,0.0,510.0,0.0,0.0
8111,76.0,80.0,510.0,0.0,0.0
8112,61.0,0.0,270.0,0.0,0.0
8113,69.0,0.0,90.0,0.0,0.0
8114,64.0,0.0,510.0,0.0,0.0
8115,73.0,256.0,270.0,0.0,0.0
8116,33.0,0.0,510.0,0.0,0.0
8117,57.0,256.0,270.0,0.0,0.0
8118,69.0,0.0,210.0,0.0,0.0
8119,49.0,0.0,270.0,0.0,0.0
8120,61.0,256.0,270.0,0.0,0.0
8121,64.0,0.0,510.0,0.0,0.0
8122,69.0,0.0,90.0,0.0,0.0
8123,76.0,0.0,510.0,0.0,0.0
8124,26.0,80.0,510.0,0.0,0.0
8125,38.0,0.0,510.0,0.0,0.0
8126,57.0,176.0,90.0,0.0,0.0
8127,66.0,0.0,210.0,0.0,0.0
8128,54.0,256.0,270.0,0.0,0.0
8129,64.0,0.0,270.0,0.0,0.0
8130,52.0,256.0,270.0,0.0,0.0
8131,54.0,0.0,270.0,0.0,0.0
8132,66.0,176.0,90.0,0.0,0.0
8133,57.0,256.0,270.0,0.0,0.0
8134,69.0,0.0,270.0,0.0,0.0
8135,62.0,0.0,510.0,0.0,0.0
8136,42.0,0.0,510.0,0.0,0.0
8137,74.0,0.0,510.0,0.0,0.0
8138,30.0,80.0,510.0,0.0,0.0
8139,54.0,256.0,270.0,0.0,0.0
8140,66.0,0.0,210.0,0.0,0.0
8141,50.0,0.0,270.0,0.0,0.0
8142,62.0,256.0,270.0,0.0,0.0
8143,54.0,176.0,270.0,0.0,0.0
8144,66.0,0.0,270.0,0.0,0.0
8145,73.0,0.0,510.0,0.0,0.0
8146,52.0,256.0,270.0,0.0,0.0
8147,32.0,0.0,510.0,0.0,0.0
8148,44.0,80.0,510.0,0.0,0.0
8149,64.0,0.0,270.0,0.0,0.0
8150,61.0,0.0,210.0,0.0,0.0
8151,49.0,0.0,270.0,0.0,0.0
8152,56.0,0.0,270.0,0.0,0.0
8153,44.0,256.0,270.0,0.0,0.0
8154,61.0,0.0,270.0,0.0,0.0
8155,49.0,176.0,270.0,0.0,0.0
8156,60.0,0.0,510.0,0.0,0.0
8157,72.0,0.0,510.0,0.0,0.0
8158,44.0,80.0,510.0,0.0,0.0
8159,68.0,0.0,270.0,0.0,0.0
8160,56.0,256.0,270.0,0.0,0.0
8161,63.0,0.0,210.0,0.0,0.0
8162,51.0,0.0,270.0,0.0,0.0
8163,44.0,0.0,270.0,0.0,0.0
8164,56.0,256.0,20.0,0.0,0.0
8165,56.0,432.0,90.0,0.0,0.0
8166,68.0,0.0,90.0,0.0,0.0
8167,52.0,512.0,510.0,0.0,0.0
8168,64.0,0.0,510.0,0.0,0.0
8169,76.0,0.0,510.0,0.0,0.0
8170,61.0,0.0,510.0,0.0,0.0
8171,49.0,0.0,510.0,0.0,0.0
8172,73.0,0.0,510.0,0.0,0.0
8173,80.0,0.0,270.0,0.0,0.0
8174,68.0,0.0,270.0,0.0,0.0
8175,61.0,0.0,15.0,0.0,0.0
8176,85.0,0.0,1020.0,0.0,0.0
8177,73.0,0.0,15.0,0.0,0.0
8178,57.0,0.0,1020.0,0.0,0.0
8179,45.0,0.0,510.0,0.0,0.0
8180,81.0,512.0,270.0,0.0,0.0
8181,69.0,0.0,270.0,0.0,0.0
8182,61.0,0.0,510.0,0.0,0.0
8183,64.0,0.0,510.0,0.0,0.0
8184,76.0,256.0,510.0,0.0,0.0
8185,49.0,0.0,510.0,0.0,0.0
8186,73.0,0.0,510.0,0.0,0.0
8187,81.0,0.0,270.0,0.0,0.0
8188,69.0,0.0,270.0,0.0,0.0
8189,51.0,256.0,510.0,0.0,0.0
8190,75.0,0.0,1020.0,0.0,0.0
8191,59.0,256.0,270.0,0.0,0.0
8192,83.0,256.0,1020.0,0.0,0.0
8193,47.0,0.0,510.0,0.0,0.0
8194,59.0,0.0,510.0,0.0,0.0
8195,71.0,0.0,510.0,0.0,0.0
8196,63.0,256.0,270.0,0.0,0.0
8197,51.0,0.0,270.0,0.0,0.0
8198,54.0,0.0,270.0,0.0,0.0
8199,66.0,0.0,270.0,0.0,0.0
8200,44.0,0.0,510.0,0.0,0.0
8201,71.0,0.0,15.0,0.0,0.0
8202,59.0,0.0,15.0,0.0,0.0
8203,56.0,256.0,270.0,0.0,0.0
8204,68.0,0.0,270.0,0.0,0.0
8205,51.0,0.0,270.0,0.0,0.0
8206,63.0,256.0,270.0,0.0,0.0
8207,47.0,0.0,510.0,0.0,0.0
8208,59.0,0.0,510.0,0.0,0.0
8209,71.0,0.0,510.0,0.0,0.0
8210,56.0,0.0,270.0,0.0,0.0
8211,68.0,0.0,270.0,0.0,0.0
8212,52.0,0.0,1020.0,0.0,0.0
8213,49.0,256.0,510.0,0.0,0.0
8214,57.0,0.0,15.0,0.0,0.0
8215,69.0,256.0,15.0,0.0,0.0
8216,61.0,256.0,270.0,0.0,0.0
8217,73.0,0.0,510.0,0.0,0.0
8218,69.0,0.0,510.0,0.0,0.0
8219,45.0,0.0,510.0,0.0,0.0
8220,57.0,0.0,510.0,0.0,0.0
8221,64.0,0.0,270.0,0.0,0.0
8222,76.0,0.0,270.0,0.0,0.0
8223,57.0,0.0,15.0,0.0,0.0
8224,69.0,0.0,15.0,0.0,0.0
8225,81.0,0.0,1020.0,0.0,0.0
8226,54.0,0.0,1020.0,0.0,0.0
8227,42.0,256.0,510.0,0.0,0.0
8228,66.0,0.0,510.0,0.0,0.0
8229,45.0,0.0,510.0,0.0,0.0
8230,69.0,0.0,510.0,0.0,0.0
8231,61.0,0.0,510.0,0.0,0.0
8232,73.0,0.0,510.0,0.0,0.0
8233,78.0,256.0,15.0,0.0,0.0
8234,66.0,0.0,270.0,0.0,0.0
8235,56.0,256.0,270.0,0.0,0.0
8236,47.0,256.0,510.0,0.0,0.0
8237,71.0,0.0,1020.0,0.0,0.0
8238,80.0,0.0,1020.0,0.0,0.0
8239,68.0,0.0,510.0,0.0,0.0
8240,56.0,0.0,510.0,0.0,0.0
8241,44.0,0.0,510.0,0.0,0.0
8242,47.0,0.0,510.0,0.0,0.0
8243,59.0,256.0,270.0,0.0,0.0
8244,63.0,0.0,270.0,0.0,0.0
8245,51.0,0.0,270.0,0.0,0.0
8246,40.0,256.0,510.0,0.0,0.0
8247,56.0,0.0,15.0,0.0,0.0
8248,52.0,0.0,510.0,0.0,0.0
8249,64.0,256.0,510.0,0.0,0.0
8250,59.0,0.0,270.0,0.0,0.0
8251,47.0,0.0,270.0,0.0,0.0
8252,68.0,0.0,510.0,0.0,0.0
8253,44.0,0.0,510.0,0.0,0.0
8254,56.0,0.0,510.0,0.0,0.0
8255,52.0,0.0,270.0,0.0,0.0
8256,64.0,0.0,270.0,0.0,0.0
8257,54.0,0.0,270.0,0.0,0.0
8258,66.0,0.0,270.0,0.0,0.0
8259,45.0,0.0,270.0,0.0,0.0
8260,49.0,0.0,270.0,0.0,0.0
8261,57.0,0.0,270.0,0.0,0.0
8262,69.0,512.0,270.0,0.0,0.0
8263,54.0,0.0,270.0,0.0,0.0
8264,66.0,256.0,270.0,0.0,0.0
8265,69.0,0.0,510.0,0.0,0.0
8266,57.0,0.0,270.0,0.0,0.0
8267,42.0,0.0,270.0,0.0,0.0
8268,73.0,0.0,270.0,0.0,0.0
8269,61.0,0.0,270.0,0.0,0.0
8270,76.0,0.0,1020.0,0.0,0.0
8271,68.0,0.0,270.0,0.0,0.0
8272,44.0,0.0,270.0,0.0,0.0
8273,49.0,256.0,270.0,0.0,0.0
8274,56.0,0.0,270.0,0.0,0.0
8275,73.0,0.0,510.0,0.0,0.0
8276,61.0,256.0,270.0,0.0,0.0
8277,68.0,0.0,510.0,0.0,0.0
8278,40.0,0.0,270.0,0.0,0.0
8279,52.0,0.0,270.0,0.0,0.0
8280,64.0,0.0,270.0,0.0,0.0
8281,56.0,256.0,510.0,0.0,0.0
8282,61.0,0.0,270.0,0.0,0.0
8283,73.0,0.0,270.0,0.0,0.0
8284,75.0,0.0,780.0,0.0,0.0
8285,42.0,0.0,270.0,0.0,0.0
8286,54.0,0.0,270.0,0.0,0.0
8287,66.0,0.0,270.0,0.0,0.0
8288,49.0,256.0,270.0,0.0,0.0
8289,61.0,0.0,270.0,0.0,0.0
8290,73.0,256.0,270.0,0.0,0.0
8291,69.0,0.0,510.0,0.0,0.0
8292,57.0,256.0,510.0,0.0,0.0
8293,39.0,0.0,270.0,0.0,0.0
8294,51.0,0.0,270.0,0.0,0.0
8295,63.0,0.0,270.0,0.0,0.0
8296,73.0,0.0,270.0,0.0,0.0
8297,61.0,0.0,270.0,0.0,0.0
8298,75.0,512.0,1020.0,0.0,0.0
8299,63.0,0.0,1020.0,0.0,0.0
8300,56.0,0.0,270.0,0.0,0.0
8301,48.0,0.0,270.0,0.0,0.0
8302,68.0,256.0,270.0,0.0,0.0
8303,44.0,0.0,270.0,0.0,0.0
8304,60.0,0.0,270.0,0.0,0.0
8305,72.0,256.0,270.0,0.0,0.0
8306,68.0,256.0,270.0,0.0,0.0
8307,32.0,0.0,4620.0,0.0,0.0
8308,44.0,0.0,270.0,0.0,0.0
8309,56.0,0.0,270.0,0.0,0.0
8310,60.0,0.0,270.0,0.0,0.0
8311,72.0,0.0,270.0,0.0,0.0
8312,88.0,0.0,1020.0,0.0,0.0
8313,80.0,0.0,1020.0,0.0,0.0
8314,76.0,0.0,1020.0,0.0,0.0
8315,49.0,0.0,780.0,0.0,0.0
8316,64.0,512.0,15.0,0.0,0.0
8317,52.0,0.0,780.0,0.0,0.0
8318,85.0,0.0,510.0,0.0,0.0
8319,73.0,0.0,510.0,0.0,0.0
8320,61.0,0.0,510.0,0.0,0.0
8321,56.0,0.0,270.0,0.0,0.0
8322,68.0,0.0,270.0,0.0,0.0
8323,49.0,0.0,1020.0,0.0,0.0
8324,61.0,0.0,15.0,0.0,0.0
8325,81.0,0.0,1020.0,0.0,0.0
8326,57.0,0.0,270.0,0.0,0.0
8327,69.0,0.0,270.0,0.0,0.0
8328,64.0,0.0,510.0,0.0,0.0
8329,85.0,256.0,510.0,0.0,0.0
8330,52.0,0.0,510.0,0.0,0.0
8331,61.0,0.0,510.0,0.0,0.0
8332,73.0,0.0,510.0,0.0,0.0
8333,57.0,0.0,270.0,0.0,0.0
8334,69.0,0.0,270.0,0.0,0.0
8335,78.0,0.0,1020.0,0.0,0.0
8336,66.0,0.0,1020.0,0.0,0.0
8337,87.0,0.0,1020.0,0.0,0.0
8338,75.0,0.0,1020.0,0.0,0.0
8339,63.0,256.0,510.0,0.0,0.0
8340,47.0,256.0,15.0,0.0,0.0
8341,35.0,0.0,780.0,0.0,0.0
8342,59.0,0.0,510.0,0.0,0.0
8343,51.0,256.0,270.0,0.0,0.0
8344,39.0,0.0,270.0,0.0,0.0
8345,71.0,0.0,510.0,0.0,0.0
8346,83.0,0.0,510.0,0.0,0.0
8347,54.0,0.0,270.0,0.0,0.0
8348,42.0,0.0,270.0,0.0,0.0
8349,47.0,0.0,15.0,0.0,0.0
8350,35.0,0.0,1020.0,0.0,0.0
8351,68.0,0.0,1020.0,0.0,0.0
8352,59.0,256.0,15.0,0.0,0.0
8353,80.0,0.0,1020.0,0.0,0.0
8354,44.0,0.0,270.0,0.0,0.0
8355,56.0,0.0,270.0,0.0,0.0
8356,59.0,0.0,510.0,0.0,0.0
8357,71.0,0.0,510.0,0.0,0.0
8358,83.0,256.0,510.0,0.0,0.0
8359,51.0,256.0,270.0,0.0,0.0
8360,39.0,0.0,270.0,0.0,0.0
8361,44.0,0.0,270.0,0.0,0.0
8362,56.0,0.0,270.0,0.0,0.0
8363,45.0,0.0,270.0,0.0,0.0
8364,57.0,256.0,270.0,0.0,0.0
8365,33.0,0.0,1020.0,0.0,0.0
8366,76.0,0.0,1020.0,0.0,0.0
8367,61.0,256.0,510.0,0.0,0.0
8368,73.0,0.0,1020.0,0.0,0.0
8369,85.0,0.0,1020.0,0.0,0.0
8370,49.0,256.0,270.0,0.0,0.0
8371,81.0,0.0,510.0,0.0,0.0
8372,69.0,0.0,510.0,0.0,0.0
8373,57.0,0.0,510.0,0.0,0.0
8374,61.0,0.0,510.0,0.0,0.0
8375,64.0,0.0,270.0,0.0,0.0
8376,52.0,0.0,270.0,0.0,0.0
8377,78.0,0.0,1020.0,0.0,0.0
8378,45.0,0.0,15.0,0.0,0.0
8379,69.0,256.0,1020.0,0.0,0.0
8380,57.0,256.0,15.0,0.0,0.0
8381,54.0,256.0,270.0,0.0,0.0
8382,49.0,0.0,510.0,0.0,0.0
8383,61.0,0.0,510.0,0.0,0.0
8384,81.0,0.0,510.0,0.0,0.0
8385,57.0,0.0,510.0,0.0,0.0
8386,66.0,256.0,15.0,0.0,0.0
8387,54.0,0.0,270.0,0.0,0.0
8388,71.0,0.0,1020.0,0.0,0.0
8389,59.0,256.0,510.0,0.0,0.0
8390,83.0,0.0,1020.0,0.0,0.0
8391,63.0,0.0,1020.0,0.0,0.0
8392,75.0,0.0,1020.0,0.0,0.0
8393,44.0,256.0,270.0,0.0,0.0
8394,44.0,0.0,780.0,0.0,0.0
8395,32.0,0.0,780.0,0.0,0.0
8396,56.0,0.0,510.0,0.0,0.0
8397,68.0,0.0,510.0,0.0,0.0
8398,80.0,0.0,510.0,0.0,0.0
8399,35.0,0.0,510.0,0.0,0.0
8400,47.0,256.0,270.0,0.0,0.0
8401,51.0,256.0,270.0,0.0,0.0
8402,39.0,0.0,270.0,0.0,0.0
8403,64.0,0.0,1020.0,0.0,0.0
8404,76.0,256.0,1020.0,0.0,0.0
8405,32.0,0.0,1020.0,0.0,0.0
8406,44.0,256.0,270.0,0.0,0.0
8407,56.0,0.0,15.0,0.0,0.0
8408,52.0,256.0,270.0,0.0,0.0
8409,35.0,0.0,270.0,0.0,0.0
8410,47.0,256.0,270.0,0.0,0.0
8411,80.0,0.0,510.0,0.0,0.0
8412,68.0,0.0,510.0,0.0,0.0
8413,56.0,0.0,510.0,0.0,0.0
8414,52.0,0.0,270.0,0.0,0.0
8415,40.0,0.0,15.0,0.0,0.0
8416,81.0,0.0,270.0,0.0,0.0
8417,69.0,0.0,270.0,0.0,0.0
8418,42.0,0.0,1020.0,0.0,0.0
8419,30.0,0.0,1020.0,0.0,0.0
8420,61.0,0.0,270.0,0.0,0.0
8421,57.0,256.0,270.0,0.0,0.0
8422,61.0,256.0,270.0,0.0,0.0
8423,49.0,256.0,780.0,0.0,0.0
8424,78.0,0.0,270.0,0.0,0.0
8425,66.0,0.0,270.0,0.0,0.0
8426,54.0,0.0,270.0,0.0,0.0
8427,57.0,0.0,270.0,0.0,0.0
8428,69.0,0.0,270.0,0.0,0.0
8429,28.0,256.0,1020.0,0.0,0.0
8430,80.0,0.0,270.0,0.0,0.0
8431,40.0,0.0,1020.0,0.0,0.0
8432,73.0,512.0,270.0,0.0,0.0
8433,68.0,0.0,15.0,0.0,0.0
8434,76.0,0.0,270.0,0.0,0.0
8435,64.0,0.0,270.0,0.0,0.0
8436,52.0,0.0,510.0,0.0,0.0
8437,56.0,0.0,15.0,0.0,0.0
8438,68.0,256.0,15.0,0.0,0.0
8439,73.0,0.0,15.0,0.0,0.0
8440,61.0,0.0,15.0,0.0,0.0
8441,27.0,256.0,1020.0,0.0,0.0
8442,66.0,512.0,270.0,0.0,0.0
8443,73.0,0.0,270.0,0.0,0.0
8444,78.0,0.0,270.0,0.0,0.0
8445,39.0,0.0,1020.0,0.0,0.0
8446,57.0,0.0,510.0,0.0,0.0
8447,69.0,0.0,510.0,0.0,0.0
8448,63.0,0.0,270.0,0.0,0.0
8449,75.0,256.0,270.0,0.0,0.0
8450,54.0,0.0,270.0,0.0,0.0
8451,66.0,0.0,270.0,0.0,0.0
8452,57.0,0.0,270.0,0.0,0.0
8453,69.0,0.0,270.0,0.0,0.0
8454,60.0,0.0,1020.0,0.0,0.0
8455,44.0,512.0,1020.0,0.0,0.0
8456,68.0,512.0,270.0,0.0,0.0
8457,80.0,0.0,270.0,0.0,0.0
8458,32.0,0.0,1020.0,0.0,0.0
8459,72.0,0.0,270.0,0.0,0.0
8460,51.0,0.0,510.0,0.0,0.0
8461,63.0,0.0,270.0,0.0,0.0
8462,68.0,0.0,15.0,0.0,0.0
8463,56.0,0.0,15.0,0.0,0.0
8464,49.0,512.0,510.0,0.0,0.0
8465,37.0,0.0,1020.0,0.0,0.0
8466,61.0,0.0,1020.0,0.0,0.0
8467,64.0,0.0,1020.0,0.0,0.0
8468,68.0,0.0,480.0,0.0,0.0
8469,56.0,512.0,480.0,0.0,0.0
8470,25.0,0.0,1020.0,0.0,0.0
8471,81.0,0.0,1020.0,0.0,0.0
8472,78.0,0.0,1020.0,0.0,0.0
8473,73.0,0.0,15.0,0.0,0.0
8474,37.0,0.0,1020.0,0.0,0.0
8475,85.0,512.0,1020.0,0.0,0.0
8476,54.0,512.0,480.0,0.0,0.0
8477,66.0,0.0,480.0,0.0,0.0
8478,68.0,0.0,480.0,0.0,0.0
8479,56.0,0.0,480.0,0.0,0.0
8480,61.0,0.0,1020.0,0.0,0.0
8481,49.0,512.0,510.0,0.0,0.0
8482,73.0,0.0,15.0,0.0,0.0
8483,42.0,0.0,1020.0,0.0,0.0
8484,45.0,0.0,1020.0,0.0,0.0
8485,69.0,0.0,1020.0,0.0,0.0
8486,54.0,0.0,480.0,0.0,0.0
8487,66.0,0.0,480.0,0.0,0.0
8488,25.0,0.0,1020.0,0.0,0.0
8489,37.0,0.0,1020.0,0.0,0.0
8490,76.0,0.0,1020.0,0.0,0.0
8491,73.0,512.0,15.0,0.0,0.0
8492,85.0,512.0,1020.0,0.0,0.0
8493,80.0,0.0,1020.0,0.0,0.0
8494,64.0,512.0,480.0,0.0,0.0
8495,52.0,0.0,480.0,0.0,0.0
8496,56.0,0.0,480.0,0.0,0.0
8497,68.0,0.0,480.0,0.0,0.0
8498,49.0,512.0,510.0,0.0,0.0
8499,68.0,512.0,1020.0,0.0,0.0
8500,44.0,0.0,1020.0,0.0,0.0
8501,40.0,0.0,1020.0,0.0,0.0
8502,61.0,0.0,1020.0,0.0,0.0
8503,64.0,0.0,480.0,0.0,0.0
8504,52.0,0.0,480.0,0.0,0.0
8505,73.0,0.0,15.0,0.0,0.0
8506,37.0,0.0,1020.0,0.0,0.0
8507,85.0,0.0,1020.0,0.0,0.0
8508,78.0,0.0,1020.0,0.0,0.0
8509,25.0,0.0,1020.0,0.0,0.0
8510,75.0,0.0,1020.0,0.0,0.0
8511,51.0,0.0,480.0,0.0,0.0
8512,63.0,512.0,480.0,0.0,0.0
8513,66.0,0.0,480.0,0.0,0.0
8514,54.0,0.0,480.0,0.0,0.0
8515,42.0,0.0,1020.0,0.0,0.0
8516,39.0,0.0,1020.0,0.0,0.0
8517,73.0,512.0,15.0,0.0,0.0
8518,66.0,512.0,1020.0,0.0,0.0
8519,61.0,0.0,1020.0,0.0,0.0
8520,49.0,512.0,510.0,0.0,0.0
8521,51.0,0.0,480.0,0.0,0.0
8522,63.0,0.0,480.0,0.0,0.0
8523,85.0,0.0,1020.0,0.0,0.0
8524,73.0,0.0,15.0,0.0,0.0
8525,25.0,0.0,1020.0,0.0,0.0
8526,76.0,0.0,1020.0,0.0,0.0
8527,44.0,0.0,480.0,0.0,0.0
8528,56.0,512.0,480.0,0.0,0.0
8529,52.0,0.0,480.0,0.0,0.0
8530,37.0,0.0,270.0,0.0,0.0
8531,40.0,0.0,1200.0,0.0,0.0
8532,44.0,0.0,1110.0,0.0,0.0
8533,64.0,512.0,15.0,0.0,0.0
8534,68.0,0.0,1020.0,0.0,0.0
8535,73.0,0.0,1020.0,0.0,0.0
8536,61.0,0.0,1020.0,0.0,0.0
8537,49.0,512.0,510.0,0.0,0.0
8538,52.0,0.0,480.0,0.0,0.0
8539,64.0,0.0,480.0,0.0,0.0
8540,44.0,0.0,480.0,0.0,0.0
8541,56.0,512.0,480.0,0.0,0.0
8542,52.0,0.0,480.0,0.0,0.0
8543,37.0,0.0,1290.0,0.0,0.0
8544,40.0,0.0,1200.0,0.0,0.0
8545,44.0,0.0,1110.0,0.0,0.0
8546,61.0,0.0,1020.0,0.0,0.0
8547,64.0,512.0,15.0,0.0,0.0
8548,68.0,0.0,1020.0,0.0,0.0
8549,49.0,512.0,510.0,0.0,0.0
8550,73.0,0.0,1020.0,0.0,0.0
8551,52.0,0.0,480.0,0.0,0.0
8552,64.0,0.0,480.0,0.0,0.0
8553,44.0,512.0,480.0,0.0,0.0
8554,56.0,0.0,480.0,0.0,0.0
8555,64.0,4096.0,480.0,0.0,0.0
8556,52.0,0.0,480.0,0.0,0.0
8557,25.0,0.0,4380.0,0.0,0.0
8558,37.0,0.0,4320.0,0.0,0.0
8559,40.0,0.0,4230.0,0.0,0.0
8560,44.0,0.0,4170.0,0.0,0.0
8561,52.0,0.0,4110.0,0.0,0.0
8562,64.0,0.0,4110.0,0.0,0.0
8563,68.0,0.0,4110.0,0.0,0.0
8564,73.0,0.0,4110.0,0.0,0.0
8565,61.0,4097.0,4110.0,0.0,0.0
