,note,step,duration,channel,velocity
0,39.0,14.0,930.0,2.0,100.0
1,51.0,240.0,240.0,2.0,100.0
2,54.0,0.0,240.0,2.0,100.0
3,58.0,226.0,240.0,2.0,100.0
4,63.0,476.0,240.0,2.0,100.0
5,42.0,4.0,480.0,2.0,100.0
6,58.0,479.0,240.0,2.0,100.0
7,63.0,1.0,240.0,2.0,100.0
8,46.0,14.0,930.0,2.0,100.0
9,54.0,239.0,240.0,2.0,100.0
10,58.0,0.0,240.0,2.0,100.0
11,61.0,228.0,240.0,2.0,100.0
12,66.0,476.0,240.0,2.0,100.0
13,54.0,3.0,480.0,2.0,100.0
14,58.0,1.0,240.0,2.0,100.0
15,61.0,475.0,240.0,2.0,100.0
16,53.0,4.0,480.0,2.0,100.0
17,61.0,239.0,240.0,2.0,100.0
18,56.0,0.0,240.0,2.0,100.0
19,65.0,238.0,240.0,2.0,100.0
20,49.0,3.0,480.0,2.0,100.0
21,68.0,475.0,240.0,2.0,100.0
22,51.0,4.0,480.0,2.0,100.0
23,58.0,1.0,240.0,2.0,100.0
24,66.0,476.0,240.0,2.0,100.0
25,47.0,3.0,480.0,2.0,100.0
26,56.0,1.0,240.0,2.0,100.0
27,51.0,241.0,240.0,2.0,100.0
28,59.0,235.0,240.0,2.0,100.0
29,44.0,5.0,480.0,2.0,100.0
30,63.0,474.0,240.0,2.0,100.0
31,46.0,3.0,480.0,2.0,100.0
32,53.0,1.0,240.0,2.0,100.0
33,62.0,1.0,240.0,2.0,100.0
34,58.0,477.0,240.0,2.0,100.0
35,63.0,0.0,930.0,2.0,100.0
36,54.0,0.0,930.0,2.0,100.0
37,58.0,10.0,930.0,2.0,100.0
38,63.0,2.0,480.0,0.0,100.0
39,39.0,242.0,240.0,2.0,100.0
40,63.0,4.0,480.0,0.0,100.0
41,42.0,225.0,240.0,2.0,100.0
42,46.0,475.0,240.0,2.0,100.0
43,63.0,1.0,480.0,2.0,100.0
44,66.0,0.0,480.0,2.0,100.0
45,58.0,3.0,480.0,2.0,100.0
46,51.0,2.0,240.0,2.0,100.0
47,66.0,474.0,240.0,0.0,100.0
48,70.0,9.0,930.0,1.0,100.0
49,70.0,6.0,480.0,0.0,100.0
50,63.0,1.0,930.0,1.0,100.0
51,66.0,0.0,930.0,1.0,100.0
52,39.0,240.0,240.0,2.0,100.0
53,42.0,224.0,240.0,2.0,100.0
54,70.0,6.0,480.0,0.0,100.0
55,46.0,474.0,240.0,2.0,100.0
56,75.0,1.0,480.0,1.0,100.0
57,78.0,2.0,480.0,1.0,100.0
58,70.0,1.0,480.0,1.0,100.0
59,78.0,1.0,240.0,0.0,100.0
60,51.0,476.0,240.0,2.0,100.0
61,77.0,4.0,480.0,0.0,100.0
62,68.0,0.0,930.0,1.0,100.0
63,73.0,10.0,930.0,1.0,100.0
64,77.0,0.0,930.0,1.0,100.0
65,41.0,240.0,240.0,2.0,100.0
66,73.0,4.0,480.0,0.0,100.0
67,44.0,226.0,240.0,2.0,100.0
68,49.0,475.0,240.0,2.0,100.0
69,70.0,0.0,480.0,1.0,100.0
70,66.0,2.0,480.0,1.0,100.0
71,75.0,1.0,480.0,1.0,100.0
72,75.0,1.0,480.0,0.0,100.0
73,42.0,481.0,240.0,2.0,100.0
74,65.0,1.0,930.0,1.0,100.0
75,70.0,1.0,930.0,1.0,100.0
76,62.0,0.0,930.0,1.0,100.0
77,70.0,13.0,930.0,0.0,100.0
78,46.0,240.0,240.0,2.0,100.0
79,50.0,225.0,240.0,2.0,100.0
80,53.0,475.0,240.0,2.0,100.0
81,75.0,3.0,480.0,1.0,100.0
82,70.0,0.0,480.0,1.0,100.0
83,78.0,2.0,480.0,1.0,100.0
84,39.0,476.0,240.0,2.0,100.0
85,77.0,1.0,930.0,1.0,100.0
86,73.0,0.0,930.0,1.0,100.0
87,77.0,4.0,480.0,0.0,100.0
88,68.0,10.0,930.0,1.0,100.0
89,41.0,239.0,240.0,2.0,100.0
90,44.0,226.0,240.0,2.0,100.0
91,73.0,4.0,480.0,0.0,100.0
92,49.0,475.0,240.0,2.0,100.0
93,75.0,4.0,480.0,0.0,100.0
94,66.0,1.0,480.0,1.0,100.0
95,75.0,0.0,480.0,1.0,100.0
96,70.0,0.0,480.0,1.0,100.0
97,42.0,475.0,240.0,2.0,100.0
98,71.0,1.0,930.0,1.0,100.0
99,71.0,4.0,480.0,0.0,100.0
100,68.0,10.0,930.0,1.0,100.0
101,63.0,0.0,930.0,1.0,100.0
102,44.0,241.0,240.0,2.0,100.0
103,68.0,5.0,480.0,0.0,100.0
104,47.0,225.0,240.0,2.0,100.0
105,51.0,475.0,240.0,2.0,100.0
106,70.0,3.0,480.0,0.0,100.0
107,70.0,0.0,480.0,1.0,100.0
108,61.0,0.0,480.0,1.0,100.0
109,66.0,1.0,480.0,1.0,100.0
110,49.0,478.0,240.0,2.0,100.0
111,66.0,15.0,930.0,1.0,100.0
112,73.0,10.0,690.0,0.0,100.0
113,61.0,3.0,1440.0,1.0,100.0
114,69.0,2.0,480.0,1.0,100.0
115,37.0,230.0,240.0,2.0,100.0
116,68.0,10.0,930.0,1.0,100.0
117,42.0,225.0,240.0,2.0,100.0
118,49.0,1.0,240.0,2.0,100.0
119,61.0,465.0,240.0,0.0,100.0
120,68.0,1.0,480.0,0.0,100.0
121,49.0,475.0,240.0,2.0,100.0
122,66.0,3.0,480.0,0.0,100.0
123,61.0,2.0,1170.0,1.0,100.0
124,66.0,1.0,480.0,1.0,100.0
125,42.0,242.0,240.0,2.0,100.0
126,65.0,250.0,690.0,1.0,100.0
127,68.0,0.0,690.0,1.0,100.0
128,45.0,239.0,240.0,2.0,100.0
129,49.0,228.0,240.0,2.0,100.0
130,54.0,479.0,240.0,2.0,100.0
131,66.0,0.0,240.0,1.0,100.0
132,69.0,1.0,240.0,1.0,100.0
133,61.0,0.0,240.0,1.0,100.0
134,66.0,2.0,930.0,1.0,100.0
135,60.0,14.0,930.0,1.0,100.0
136,69.0,0.0,930.0,1.0,100.0
137,37.0,240.0,240.0,2.0,100.0
138,42.0,225.0,240.0,2.0,100.0
139,49.0,475.0,240.0,2.0,100.0
140,68.0,0.0,480.0,1.0,100.0
141,61.0,0.0,480.0,1.0,100.0
142,65.0,4.0,480.0,1.0,100.0
143,49.0,477.0,240.0,2.0,100.0
144,61.0,0.0,1170.0,1.0,100.0
145,66.0,3.0,480.0,1.0,100.0
146,66.0,10.0,690.0,0.0,100.0
147,42.0,230.0,240.0,2.0,100.0
148,68.0,0.0,690.0,1.0,100.0
149,45.0,240.0,240.0,2.0,100.0
150,65.0,7.0,690.0,1.0,100.0
151,49.0,230.0,240.0,2.0,100.0
152,68.0,242.0,480.0,0.0,100.0
153,69.0,0.0,240.0,1.0,100.0
154,54.0,0.0,240.0,2.0,100.0
155,66.0,1.0,240.0,1.0,100.0
156,69.0,0.0,240.0,0.0,100.0
157,61.0,480.0,240.0,1.0,100.0
158,69.0,0.0,930.0,0.0,100.0
159,69.0,0.0,930.0,1.0,100.0
160,66.0,1.0,930.0,1.0,100.0
161,60.0,14.0,930.0,1.0,100.0
162,37.0,241.0,240.0,2.0,100.0
163,42.0,225.0,240.0,2.0,100.0
164,49.0,474.0,240.0,2.0,100.0
165,65.0,1.0,480.0,1.0,100.0
166,68.0,0.0,480.0,1.0,100.0
167,61.0,1.0,480.0,1.0,100.0
168,68.0,2.0,480.0,0.0,100.0
169,53.0,475.0,240.0,2.0,100.0
170,65.0,1.0,480.0,1.0,100.0
171,70.0,1.0,480.0,1.0,100.0
172,73.0,0.0,480.0,1.0,100.0
173,73.0,5.0,480.0,0.0,100.0
174,46.0,239.0,240.0,2.0,100.0
175,63.0,248.0,720.0,1.0,100.0
176,49.0,241.0,240.0,2.0,100.0
177,72.0,1.0,690.0,1.0,100.0
178,72.0,0.0,690.0,0.0,100.0
179,69.0,0.0,690.0,1.0,100.0
180,53.0,229.0,240.0,2.0,100.0
181,70.0,1.0,240.0,0.0,100.0
182,70.0,1.0,240.0,1.0,100.0
183,65.0,479.0,240.0,1.0,100.0
184,61.0,0.0,240.0,1.0,100.0
185,58.0,0.0,240.0,2.0,100.0
186,65.0,1.0,930.0,1.0,100.0
187,69.0,0.0,930.0,1.0,100.0
188,72.0,1.0,930.0,1.0,100.0
189,72.0,14.0,930.0,0.0,100.0
190,41.0,241.0,240.0,2.0,100.0
191,48.0,224.0,240.0,2.0,100.0
192,53.0,474.0,240.0,2.0,100.0
193,77.0,1.0,480.0,1.0,100.0
194,77.0,1.0,480.0,0.0,100.0
195,65.0,3.0,480.0,1.0,100.0
196,53.0,480.0,240.0,2.0,100.0
197,74.0,1.0,930.0,1.0,100.0
198,68.0,1.0,930.0,1.0,100.0
199,65.0,9.0,930.0,1.0,100.0
200,46.0,240.0,240.0,2.0,100.0
201,74.0,3.0,480.0,0.0,100.0
202,53.0,225.0,240.0,2.0,100.0
203,58.0,476.0,240.0,2.0,100.0
204,66.0,1.0,480.0,1.0,100.0
205,75.0,0.0,480.0,1.0,100.0
206,63.0,1.0,480.0,1.0,100.0
207,75.0,3.0,480.0,0.0,100.0
208,47.0,476.0,240.0,2.0,100.0
209,73.0,1.0,930.0,1.0,100.0
210,73.0,3.0,480.0,0.0,100.0
211,70.0,1.0,930.0,1.0,100.0
212,64.0,9.0,930.0,1.0,100.0
213,43.0,240.0,240.0,2.0,100.0
214,49.0,226.0,240.0,2.0,100.0
215,70.0,2.0,480.0,0.0,100.0
216,55.0,476.0,240.0,2.0,100.0
217,63.0,2.0,480.0,1.0,100.0
218,68.0,1.0,480.0,1.0,100.0
219,71.0,0.0,480.0,1.0,100.0
220,71.0,4.0,480.0,0.0,100.0
221,44.0,474.0,240.0,2.0,100.0
222,63.0,1.0,930.0,1.0,100.0
223,66.0,1.0,930.0,1.0,100.0
224,66.0,6.0,480.0,0.0,100.0
225,70.0,13.0,930.0,1.0,100.0
226,34.0,239.0,240.0,2.0,100.0
227,39.0,225.0,240.0,2.0,100.0
228,70.0,244.0,690.0,0.0,100.0
229,46.0,230.0,240.0,2.0,100.0
230,65.0,1.0,480.0,1.0,100.0
231,70.0,0.0,480.0,1.0,100.0
232,62.0,4.0,480.0,1.0,100.0
233,70.0,477.0,240.0,0.0,100.0
234,46.0,1.0,240.0,2.0,100.0
235,63.0,4.0,480.0,0.0,100.0
236,39.0,15.0,930.0,2.0,100.0
237,51.0,239.0,240.0,2.0,100.0
238,54.0,0.0,240.0,2.0,100.0
239,58.0,226.0,240.0,2.0,100.0
240,63.0,475.0,240.0,2.0,100.0
241,42.0,5.0,480.0,2.0,100.0
242,58.0,1.0,240.0,2.0,100.0
243,63.0,478.0,240.0,2.0,100.0
244,46.0,13.0,930.0,2.0,100.0
245,58.0,1.0,240.0,2.0,100.0
246,54.0,239.0,240.0,2.0,100.0
247,61.0,227.0,240.0,2.0,100.0
248,66.0,475.0,240.0,2.0,100.0
249,54.0,4.0,480.0,2.0,100.0
250,58.0,476.0,240.0,2.0,100.0
251,61.0,1.0,240.0,2.0,100.0
252,53.0,4.0,480.0,2.0,100.0
253,61.0,241.0,240.0,2.0,100.0
254,56.0,0.0,240.0,2.0,100.0
255,65.0,235.0,240.0,2.0,100.0
256,49.0,4.0,480.0,2.0,100.0
257,68.0,476.0,240.0,2.0,100.0
258,51.0,4.0,480.0,2.0,100.0
259,58.0,0.0,240.0,2.0,100.0
260,66.0,477.0,240.0,2.0,100.0
261,47.0,3.0,480.0,2.0,100.0
262,51.0,238.0,240.0,2.0,100.0
263,56.0,1.0,240.0,2.0,100.0
264,59.0,237.0,240.0,2.0,100.0
265,44.0,4.0,480.0,2.0,100.0
266,63.0,476.0,240.0,2.0,100.0
267,46.0,4.0,480.0,2.0,100.0
268,53.0,0.0,240.0,2.0,100.0
269,58.0,479.0,240.0,2.0,100.0
270,62.0,1.0,240.0,2.0,100.0
271,63.0,2.0,930.0,2.0,100.0
272,63.0,10.0,720.0,0.0,100.0
273,58.0,0.0,930.0,2.0,100.0
274,54.0,12.0,930.0,2.0,100.0
275,39.0,231.0,240.0,2.0,100.0
276,42.0,224.0,240.0,2.0,100.0
277,46.0,475.0,240.0,2.0,100.0
278,63.0,1.0,240.0,0.0,100.0
279,63.0,0.0,480.0,2.0,100.0
280,66.0,1.0,480.0,0.0,100.0
281,58.0,0.0,480.0,2.0,100.0
282,66.0,5.0,480.0,2.0,100.0
283,51.0,475.0,240.0,2.0,100.0
284,66.0,1.0,930.0,1.0,100.0
285,63.0,0.0,930.0,1.0,100.0
286,70.0,9.0,930.0,1.0,100.0
287,70.0,4.0,480.0,0.0,100.0
288,39.0,240.0,240.0,2.0,100.0
289,70.0,5.0,480.0,0.0,100.0
290,42.0,225.0,240.0,2.0,100.0
291,46.0,475.0,240.0,2.0,100.0
292,78.0,0.0,480.0,1.0,100.0
293,78.0,1.0,480.0,0.0,100.0
294,75.0,1.0,480.0,1.0,100.0
295,70.0,3.0,480.0,1.0,100.0
296,51.0,475.0,240.0,2.0,100.0
297,73.0,1.0,930.0,1.0,100.0
298,77.0,1.0,930.0,1.0,100.0
299,77.0,6.0,480.0,0.0,100.0
300,68.0,9.0,930.0,1.0,100.0
301,41.0,239.0,240.0,2.0,100.0
302,44.0,225.0,240.0,2.0,100.0
303,73.0,3.0,480.0,0.0,100.0
304,49.0,476.0,240.0,2.0,100.0
305,66.0,1.0,480.0,1.0,100.0
306,75.0,1.0,480.0,0.0,100.0
307,75.0,0.0,480.0,1.0,100.0
308,70.0,2.0,480.0,1.0,100.0
309,42.0,480.0,240.0,2.0,100.0
310,65.0,1.0,930.0,1.0,100.0
311,70.0,0.0,930.0,1.0,100.0
312,62.0,0.0,930.0,1.0,100.0
313,70.0,14.0,930.0,0.0,100.0
314,46.0,242.0,240.0,2.0,100.0
315,50.0,224.0,240.0,2.0,100.0
316,53.0,475.0,240.0,2.0,100.0
317,70.0,1.0,480.0,1.0,100.0
318,75.0,1.0,480.0,1.0,100.0
319,78.0,4.0,480.0,1.0,100.0
320,39.0,474.0,240.0,2.0,100.0
321,77.0,5.0,480.0,0.0,100.0
322,68.0,0.0,930.0,1.0,100.0
323,77.0,1.0,930.0,1.0,100.0
324,73.0,9.0,930.0,1.0,100.0
325,41.0,242.0,240.0,2.0,100.0
326,73.0,5.0,480.0,0.0,100.0
327,44.0,224.0,240.0,2.0,100.0
328,49.0,474.0,240.0,2.0,100.0
329,66.0,0.0,480.0,1.0,100.0
330,70.0,3.0,480.0,1.0,100.0
331,75.0,1.0,480.0,1.0,100.0
332,75.0,0.0,480.0,0.0,100.0
333,42.0,477.0,240.0,2.0,100.0
334,71.0,4.0,480.0,0.0,100.0
335,68.0,0.0,930.0,1.0,100.0
336,71.0,10.0,930.0,1.0,100.0
337,63.0,0.0,930.0,1.0,100.0
338,44.0,240.0,240.0,2.0,100.0
339,47.0,226.0,240.0,2.0,100.0
340,68.0,4.0,480.0,0.0,100.0
341,51.0,474.0,240.0,2.0,100.0
342,70.0,2.0,480.0,0.0,100.0
343,70.0,1.0,480.0,1.0,100.0
344,66.0,3.0,480.0,1.0,100.0
345,61.0,0.0,480.0,1.0,100.0
346,49.0,476.0,240.0,2.0,100.0
347,66.0,0.0,930.0,1.0,100.0
348,61.0,13.0,930.0,1.0,100.0
349,73.0,9.0,720.0,0.0,100.0
350,69.0,5.0,480.0,1.0,100.0
351,37.0,230.0,240.0,2.0,100.0
352,68.0,10.0,930.0,1.0,100.0
353,42.0,226.0,240.0,2.0,100.0
354,49.0,1.0,240.0,2.0,100.0
355,61.0,465.0,240.0,0.0,100.0
356,61.0,1.0,480.0,1.0,100.0
357,65.0,1.0,480.0,1.0,100.0
358,68.0,3.0,480.0,0.0,100.0
359,49.0,476.0,240.0,2.0,100.0
360,61.0,1.0,1170.0,1.0,100.0
361,66.0,0.0,480.0,1.0,100.0
362,66.0,4.0,480.0,0.0,100.0
363,42.0,240.0,240.0,2.0,100.0
364,68.0,0.0,690.0,1.0,100.0
365,45.0,241.0,240.0,2.0,100.0
366,65.0,249.0,690.0,1.0,100.0
367,49.0,229.0,240.0,2.0,100.0
368,54.0,478.0,240.0,2.0,100.0
369,61.0,1.0,240.0,1.0,100.0
370,66.0,0.0,240.0,1.0,100.0
371,69.0,0.0,240.0,1.0,100.0
372,60.0,1.0,930.0,1.0,100.0
373,69.0,0.0,930.0,1.0,100.0
374,66.0,12.0,930.0,1.0,100.0
375,37.0,241.0,240.0,2.0,100.0
376,42.0,226.0,240.0,2.0,100.0
377,49.0,477.0,240.0,2.0,100.0
378,61.0,0.0,480.0,1.0,100.0
379,68.0,1.0,480.0,1.0,100.0
380,65.0,3.0,480.0,1.0,100.0
381,49.0,477.0,240.0,2.0,100.0
382,66.0,11.0,690.0,0.0,100.0
383,66.0,2.0,480.0,1.0,100.0
384,61.0,0.0,1170.0,1.0,100.0
385,42.0,230.0,240.0,2.0,100.0
386,65.0,6.0,690.0,1.0,100.0
387,68.0,0.0,690.0,1.0,100.0
388,45.0,241.0,240.0,2.0,100.0
389,68.0,243.0,480.0,0.0,100.0
390,49.0,229.0,240.0,2.0,100.0
391,69.0,1.0,240.0,0.0,100.0
392,66.0,0.0,240.0,1.0,100.0
393,54.0,1.0,240.0,2.0,100.0
394,61.0,0.0,240.0,1.0,100.0
395,69.0,479.0,240.0,1.0,100.0
396,69.0,13.0,930.0,1.0,100.0
397,66.0,0.0,930.0,1.0,100.0
398,60.0,1.0,930.0,1.0,100.0
399,69.0,9.0,720.0,0.0,100.0
400,37.0,231.0,240.0,2.0,100.0
401,42.0,225.0,240.0,2.0,100.0
402,49.0,475.0,240.0,2.0,100.0
403,68.0,1.0,240.0,0.0,100.0
404,65.0,0.0,480.0,1.0,100.0
405,68.0,1.0,480.0,0.0,100.0
406,68.0,1.0,480.0,1.0,100.0
407,61.0,3.0,480.0,1.0,100.0
408,53.0,475.0,240.0,2.0,100.0
409,73.0,1.0,480.0,1.0,100.0
410,65.0,0.0,480.0,1.0,100.0
411,73.0,0.0,480.0,0.0,100.0
412,70.0,3.0,480.0,1.0,100.0
413,46.0,242.0,240.0,2.0,100.0
414,72.0,5.0,480.0,0.0,100.0
415,63.0,1.0,690.0,1.0,100.0
416,72.0,247.0,690.0,1.0,100.0
417,69.0,0.0,690.0,1.0,100.0
418,49.0,234.0,240.0,2.0,100.0
419,53.0,229.0,240.0,2.0,100.0
420,70.0,3.0,480.0,0.0,100.0
421,61.0,0.0,240.0,1.0,100.0
422,70.0,0.0,240.0,1.0,100.0
423,65.0,0.0,240.0,1.0,100.0
424,58.0,480.0,240.0,2.0,100.0
425,69.0,1.0,930.0,1.0,100.0
426,72.0,1.0,930.0,1.0,100.0
427,72.0,1.0,930.0,0.0,100.0
428,65.0,12.0,930.0,1.0,100.0
429,41.0,240.0,240.0,2.0,100.0
430,48.0,225.0,240.0,2.0,100.0
431,53.0,476.0,240.0,2.0,100.0
432,77.0,5.0,480.0,1.0,100.0
433,65.0,0.0,480.0,1.0,100.0
434,53.0,475.0,240.0,2.0,100.0
435,68.0,1.0,930.0,1.0,100.0
436,65.0,0.0,930.0,1.0,100.0
437,74.0,9.0,930.0,1.0,100.0
438,74.0,4.0,480.0,0.0,100.0
439,46.0,239.0,240.0,2.0,100.0
440,74.0,5.0,480.0,0.0,100.0
441,53.0,226.0,240.0,2.0,100.0
442,58.0,476.0,240.0,2.0,100.0
443,75.0,1.0,480.0,0.0,100.0
444,66.0,0.0,480.0,1.0,100.0
445,63.0,0.0,480.0,1.0,100.0
446,75.0,4.0,480.0,1.0,100.0
447,47.0,475.0,240.0,2.0,100.0
448,73.0,4.0,480.0,0.0,100.0
449,64.0,1.0,930.0,1.0,100.0
450,70.0,9.0,930.0,1.0,100.0
451,73.0,1.0,930.0,1.0,100.0
452,43.0,239.0,240.0,2.0,100.0
453,49.0,226.0,240.0,2.0,100.0
454,70.0,3.0,480.0,0.0,100.0
455,55.0,477.0,240.0,2.0,100.0
456,71.0,1.0,480.0,0.0,100.0
457,68.0,0.0,480.0,1.0,100.0
458,63.0,0.0,480.0,1.0,100.0
459,71.0,3.0,480.0,1.0,100.0
460,44.0,476.0,240.0,2.0,100.0
461,66.0,0.0,930.0,1.0,100.0
462,63.0,1.0,930.0,1.0,100.0
463,66.0,5.0,480.0,0.0,100.0
464,70.0,14.0,930.0,1.0,100.0
465,34.0,240.0,240.0,2.0,100.0
466,70.0,246.0,690.0,0.0,100.0
467,39.0,225.0,240.0,2.0,100.0
468,46.0,228.0,240.0,2.0,100.0
469,70.0,1.0,480.0,1.0,100.0
470,62.0,0.0,480.0,1.0,100.0
471,65.0,4.0,480.0,1.0,100.0
472,46.0,0.0,240.0,2.0,100.0
473,70.0,480.0,240.0,0.0,100.0
474,39.0,0.0,930.0,2.0,100.0
475,70.0,15.0,930.0,0.0,100.0
476,54.0,238.0,240.0,2.0,100.0
477,51.0,1.0,240.0,2.0,100.0
478,58.0,226.0,240.0,2.0,100.0
479,63.0,477.0,240.0,2.0,100.0
480,42.0,2.0,480.0,2.0,100.0
481,63.0,480.0,240.0,2.0,100.0
482,58.0,0.0,240.0,2.0,100.0
483,46.0,15.0,930.0,2.0,100.0
484,54.0,240.0,240.0,2.0,100.0
485,58.0,2.0,240.0,2.0,100.0
486,61.0,224.0,240.0,2.0,100.0
487,66.0,475.0,240.0,2.0,100.0
488,54.0,4.0,480.0,2.0,100.0
489,58.0,2.0,240.0,2.0,100.0
490,61.0,475.0,240.0,2.0,100.0
491,53.0,4.0,480.0,2.0,100.0
492,61.0,239.0,240.0,2.0,100.0
493,56.0,0.0,240.0,2.0,100.0
494,65.0,236.0,240.0,2.0,100.0
495,49.0,4.0,480.0,2.0,100.0
496,68.0,476.0,240.0,2.0,100.0
497,51.0,3.0,480.0,2.0,100.0
498,66.0,2.0,240.0,2.0,100.0
499,58.0,475.0,240.0,2.0,100.0
500,47.0,5.0,480.0,2.0,100.0
501,51.0,1.0,240.0,2.0,100.0
502,56.0,239.0,240.0,2.0,100.0
503,44.0,3.0,480.0,2.0,100.0
504,59.0,236.0,240.0,2.0,100.0
505,63.0,477.0,240.0,2.0,100.0
506,46.0,4.0,480.0,2.0,100.0
507,53.0,1.0,240.0,2.0,100.0
508,58.0,0.0,240.0,2.0,100.0
509,62.0,321.0,240.0,2.0,100.0
510,39.0,6.0,480.0,2.0,100.0
511,70.0,2.0,480.0,0.0,100.0
512,70.0,153.0,150.0,1.0,100.0
513,75.0,159.0,150.0,1.0,100.0
514,63.0,0.0,690.0,2.0,100.0
515,54.0,1.0,690.0,2.0,100.0
516,75.0,92.0,690.0,0.0,100.0
517,82.0,160.0,150.0,1.0,100.0
518,70.0,160.0,150.0,1.0,100.0
519,75.0,159.0,150.0,1.0,100.0
520,82.0,68.0,150.0,1.0,100.0
521,70.0,157.0,150.0,1.0,100.0
522,54.0,1.0,240.0,2.0,100.0
523,75.0,1.0,240.0,0.0,100.0
524,63.0,0.0,240.0,2.0,100.0
525,75.0,321.0,150.0,1.0,100.0
526,58.0,1.0,480.0,2.0,100.0
527,77.0,16.0,930.0,0.0,100.0
528,65.0,5.0,480.0,2.0,100.0
529,70.0,154.0,150.0,1.0,100.0
530,77.0,160.0,150.0,1.0,100.0
531,82.0,160.0,150.0,1.0,100.0
532,34.0,0.0,690.0,2.0,100.0
533,46.0,91.0,690.0,2.0,100.0
534,70.0,144.0,150.0,1.0,100.0
535,77.0,158.0,150.0,1.0,100.0
536,82.0,70.0,150.0,1.0,100.0
537,70.0,158.0,150.0,1.0,100.0
538,34.0,3.0,240.0,2.0,100.0
539,46.0,238.0,240.0,2.0,100.0
540,77.0,0.0,150.0,1.0,100.0
541,51.0,3.0,480.0,2.0,100.0
542,70.0,83.0,240.0,0.0,100.0
543,39.0,3.0,480.0,2.0,100.0
544,70.0,151.0,150.0,1.0,100.0
545,75.0,2.0,240.0,0.0,100.0
546,75.0,159.0,150.0,1.0,100.0
547,82.0,78.0,150.0,1.0,100.0
548,77.0,83.0,240.0,0.0,100.0
549,54.0,0.0,690.0,2.0,100.0
550,63.0,9.0,690.0,2.0,100.0
551,70.0,158.0,150.0,1.0,100.0
552,78.0,2.0,240.0,0.0,100.0
553,75.0,160.0,150.0,1.0,100.0
554,77.0,83.0,240.0,0.0,100.0
555,82.0,68.0,150.0,1.0,100.0
556,70.0,157.0,150.0,1.0,100.0
557,54.0,0.0,240.0,2.0,100.0
558,63.0,4.0,240.0,2.0,100.0
559,75.0,1.0,240.0,0.0,100.0
560,75.0,318.0,150.0,1.0,100.0
561,58.0,4.0,480.0,2.0,100.0
562,77.0,18.0,930.0,0.0,100.0
563,65.0,1.0,480.0,2.0,100.0
564,70.0,154.0,150.0,1.0,100.0
565,77.0,160.0,150.0,1.0,100.0
566,82.0,160.0,150.0,1.0,100.0
567,46.0,1.0,690.0,2.0,100.0
568,34.0,92.0,690.0,2.0,100.0
569,70.0,145.0,150.0,1.0,100.0
570,77.0,159.0,150.0,1.0,100.0
571,82.0,66.0,150.0,1.0,100.0
572,70.0,157.0,150.0,1.0,100.0
573,46.0,2.0,240.0,2.0,100.0
574,34.0,0.0,240.0,2.0,100.0
575,77.0,161.0,150.0,1.0,100.0
576,39.0,2.0,480.0,2.0,100.0
577,51.0,1.0,480.0,2.0,100.0
578,78.0,7.0,480.0,0.0,100.0
579,82.0,159.0,150.0,1.0,100.0
580,70.0,153.0,150.0,1.0,100.0
581,78.0,158.0,150.0,1.0,100.0
582,80.0,160.0,150.0,1.0,100.0
583,77.0,1.0,480.0,0.0,100.0
584,53.0,1.0,480.0,2.0,100.0
585,41.0,3.0,480.0,2.0,100.0
586,68.0,154.0,150.0,1.0,100.0
587,77.0,160.0,150.0,1.0,100.0
588,78.0,162.0,150.0,1.0,100.0
589,54.0,0.0,480.0,2.0,100.0
590,42.0,1.0,480.0,2.0,100.0
591,75.0,6.0,480.0,0.0,100.0
592,66.0,153.0,150.0,1.0,100.0
593,75.0,159.0,150.0,1.0,100.0
594,73.0,10.0,930.0,0.0,100.0
595,77.0,160.0,150.0,1.0,100.0
596,44.0,0.0,480.0,2.0,100.0
597,56.0,6.0,480.0,2.0,100.0
598,65.0,154.0,150.0,1.0,100.0
599,73.0,161.0,150.0,1.0,100.0
600,77.0,160.0,150.0,1.0,100.0
601,37.0,0.0,480.0,2.0,100.0
602,49.0,7.0,480.0,2.0,100.0
603,65.0,143.0,150.0,1.0,100.0
604,68.0,159.0,150.0,1.0,100.0
605,71.0,0.0,480.0,0.0,100.0
606,51.0,0.0,480.0,2.0,100.0
607,39.0,5.0,480.0,2.0,100.0
608,75.0,160.0,150.0,1.0,100.0
609,63.0,154.0,150.0,1.0,100.0
610,66.0,161.0,150.0,1.0,100.0
611,41.0,2.0,930.0,2.0,100.0
612,70.0,125.0,360.0,0.0,100.0
613,73.0,160.0,150.0,1.0,100.0
614,53.0,9.0,930.0,2.0,100.0
615,61.0,35.0,150.0,1.0,100.0
616,65.0,160.0,150.0,1.0,100.0
617,72.0,0.0,120.0,0.0,100.0
618,70.0,159.0,150.0,1.0,100.0
619,73.0,6.0,480.0,0.0,100.0
620,61.0,144.0,150.0,1.0,100.0
621,65.0,159.0,150.0,1.0,100.0
622,72.0,159.0,150.0,1.0,100.0
623,41.0,1.0,480.0,2.0,100.0
624,29.0,1.0,480.0,2.0,100.0
625,69.0,6.0,480.0,0.0,100.0
626,63.0,155.0,150.0,1.0,100.0
627,65.0,158.0,150.0,1.0,100.0
628,70.0,161.0,150.0,1.0,100.0
629,70.0,1.0,930.0,0.0,100.0
630,34.0,1.0,930.0,2.0,100.0
631,46.0,15.0,930.0,2.0,100.0
632,58.0,161.0,150.0,1.0,100.0
633,65.0,159.0,150.0,1.0,100.0
634,77.0,160.0,150.0,1.0,100.0
635,65.0,143.0,150.0,1.0,100.0
636,70.0,160.0,150.0,1.0,100.0
637,82.0,160.0,150.0,1.0,100.0
638,70.0,160.0,150.0,1.0,100.0
639,77.0,160.0,150.0,1.0,100.0
640,39.0,1.0,480.0,2.0,100.0
641,82.0,161.0,150.0,1.0,100.0
642,51.0,0.0,480.0,2.0,100.0
643,70.0,6.0,480.0,0.0,100.0
644,70.0,152.0,150.0,1.0,100.0
645,75.0,160.0,150.0,1.0,100.0
646,82.0,160.0,150.0,1.0,100.0
647,75.0,92.0,690.0,0.0,100.0
648,63.0,0.0,690.0,2.0,100.0
649,54.0,0.0,690.0,2.0,100.0
650,70.0,159.0,150.0,1.0,100.0
651,75.0,161.0,150.0,1.0,100.0
652,82.0,68.0,150.0,1.0,100.0
653,70.0,157.0,150.0,1.0,100.0
654,54.0,1.0,240.0,2.0,100.0
655,75.0,1.0,240.0,0.0,100.0
656,63.0,160.0,240.0,2.0,100.0
657,75.0,0.0,150.0,1.0,100.0
658,82.0,161.0,150.0,1.0,100.0
659,58.0,5.0,480.0,2.0,100.0
660,77.0,15.0,930.0,0.0,100.0
661,65.0,0.0,480.0,2.0,100.0
662,70.0,155.0,150.0,1.0,100.0
663,77.0,160.0,150.0,1.0,100.0
664,46.0,0.0,690.0,2.0,100.0
665,34.0,10.0,690.0,2.0,100.0
666,82.0,160.0,150.0,1.0,100.0
667,70.0,145.0,150.0,1.0,100.0
668,77.0,160.0,150.0,1.0,100.0
669,82.0,68.0,150.0,1.0,100.0
670,70.0,82.0,240.0,0.0,100.0
671,70.0,157.0,150.0,1.0,100.0
672,70.0,1.0,240.0,0.0,100.0
673,34.0,0.0,240.0,2.0,100.0
674,46.0,1.0,240.0,2.0,100.0
675,77.0,162.0,150.0,1.0,100.0
676,70.0,82.0,240.0,0.0,100.0
677,39.0,1.0,480.0,2.0,100.0
678,51.0,1.0,480.0,2.0,100.0
679,82.0,77.0,150.0,1.0,100.0
680,70.0,154.0,150.0,1.0,100.0
681,75.0,3.0,240.0,0.0,100.0
682,75.0,161.0,150.0,1.0,100.0
683,63.0,0.0,690.0,2.0,100.0
684,54.0,9.0,690.0,2.0,100.0
685,82.0,79.0,150.0,1.0,100.0
686,77.0,81.0,240.0,0.0,100.0
687,70.0,157.0,150.0,1.0,100.0
688,78.0,3.0,240.0,0.0,100.0
689,75.0,160.0,150.0,1.0,100.0
690,77.0,83.0,240.0,0.0,100.0
691,82.0,68.0,150.0,1.0,100.0
692,70.0,158.0,150.0,1.0,100.0
693,63.0,1.0,240.0,2.0,100.0
694,75.0,0.0,240.0,0.0,100.0
695,54.0,160.0,240.0,2.0,100.0
696,75.0,1.0,150.0,1.0,100.0
697,58.0,1.0,480.0,2.0,100.0
698,77.0,16.0,930.0,0.0,100.0
699,82.0,160.0,150.0,1.0,100.0
700,65.0,5.0,480.0,2.0,100.0
701,70.0,154.0,150.0,1.0,100.0
702,77.0,160.0,150.0,1.0,100.0
703,82.0,160.0,150.0,1.0,100.0
704,46.0,91.0,720.0,2.0,100.0
705,34.0,0.0,690.0,2.0,100.0
706,70.0,144.0,150.0,1.0,100.0
707,77.0,161.0,150.0,1.0,100.0
708,82.0,68.0,150.0,1.0,100.0
709,70.0,158.0,150.0,1.0,100.0
710,46.0,1.0,240.0,2.0,100.0
711,34.0,0.0,240.0,2.0,100.0
712,77.0,161.0,150.0,1.0,100.0
713,51.0,1.0,480.0,2.0,100.0
714,78.0,0.0,480.0,0.0,100.0
715,82.0,160.0,150.0,1.0,100.0
716,39.0,5.0,480.0,2.0,100.0
717,70.0,153.0,150.0,1.0,100.0
718,78.0,161.0,150.0,1.0,100.0
719,41.0,0.0,480.0,2.0,100.0
720,53.0,0.0,480.0,2.0,100.0
721,77.0,5.0,480.0,0.0,100.0
722,80.0,161.0,150.0,1.0,100.0
723,68.0,153.0,150.0,1.0,100.0
724,77.0,162.0,150.0,1.0,100.0
725,75.0,1.0,480.0,0.0,100.0
726,42.0,1.0,480.0,2.0,100.0
727,54.0,6.0,480.0,2.0,100.0
728,78.0,159.0,150.0,1.0,100.0
729,66.0,153.0,150.0,1.0,100.0
730,75.0,158.0,150.0,1.0,100.0
731,44.0,6.0,480.0,2.0,100.0
732,56.0,1.0,480.0,2.0,100.0
733,73.0,91.0,690.0,0.0,100.0
734,77.0,160.0,150.0,1.0,100.0
735,65.0,154.0,150.0,1.0,100.0
736,73.0,161.0,150.0,1.0,100.0
737,77.0,67.0,150.0,1.0,100.0
738,49.0,2.0,480.0,2.0,100.0
739,37.0,4.0,480.0,2.0,100.0
740,65.0,154.0,150.0,1.0,100.0
741,73.0,1.0,240.0,0.0,100.0
742,68.0,159.0,150.0,1.0,100.0
743,71.0,0.0,480.0,0.0,100.0
744,51.0,5.0,480.0,2.0,100.0
745,39.0,1.0,480.0,2.0,100.0
746,75.0,160.0,150.0,1.0,100.0
747,63.0,155.0,150.0,1.0,100.0
748,66.0,159.0,150.0,1.0,100.0
749,53.0,1.0,930.0,2.0,100.0
750,70.0,125.0,360.0,0.0,100.0
751,73.0,161.0,150.0,1.0,100.0
752,41.0,10.0,930.0,2.0,100.0
753,61.0,35.0,150.0,1.0,100.0
754,65.0,158.0,150.0,1.0,100.0
755,72.0,1.0,120.0,0.0,100.0
756,70.0,162.0,150.0,1.0,100.0
757,73.0,6.0,480.0,0.0,100.0
758,61.0,142.0,150.0,1.0,100.0
759,65.0,160.0,150.0,1.0,100.0
760,29.0,2.0,480.0,2.0,100.0
761,41.0,7.0,480.0,2.0,100.0
762,72.0,161.0,150.0,1.0,100.0
763,69.0,0.0,480.0,0.0,100.0
764,63.0,151.0,150.0,1.0,100.0
765,65.0,159.0,150.0,1.0,100.0
766,34.0,1.0,930.0,2.0,100.0
767,70.0,17.0,930.0,0.0,100.0
768,46.0,0.0,930.0,2.0,100.0
769,70.0,160.0,150.0,1.0,100.0
770,58.0,161.0,150.0,1.0,100.0
771,65.0,160.0,150.0,1.0,100.0
772,77.0,159.0,150.0,1.0,100.0
773,65.0,143.0,150.0,1.0,100.0
774,70.0,160.0,150.0,1.0,100.0
775,82.0,159.0,150.0,1.0,100.0
776,70.0,160.0,150.0,1.0,100.0
777,77.0,160.0,150.0,1.0,100.0
778,39.0,0.0,480.0,2.0,100.0
779,75.0,1.0,480.0,0.0,100.0
780,51.0,7.0,480.0,2.0,100.0
781,87.0,160.0,150.0,1.0,100.0
782,75.0,153.0,150.0,1.0,100.0
783,82.0,160.0,150.0,1.0,100.0
784,59.0,0.0,690.0,2.0,100.0
785,77.0,93.0,690.0,0.0,100.0
786,68.0,0.0,690.0,2.0,100.0
787,87.0,158.0,150.0,1.0,100.0
788,75.0,162.0,150.0,1.0,100.0
789,80.0,159.0,150.0,1.0,100.0
790,87.0,68.0,150.0,1.0,100.0
791,75.0,157.0,150.0,1.0,100.0
792,59.0,1.0,240.0,2.0,100.0
793,68.0,0.0,240.0,2.0,100.0
794,77.0,0.0,240.0,0.0,100.0
795,77.0,160.0,150.0,1.0,100.0
796,78.0,91.0,720.0,0.0,100.0
797,63.0,7.0,480.0,2.0,100.0
798,87.0,159.0,150.0,1.0,100.0
799,70.0,1.0,480.0,2.0,100.0
800,75.0,155.0,150.0,1.0,100.0
801,78.0,158.0,150.0,1.0,100.0
802,51.0,1.0,690.0,2.0,100.0
803,39.0,91.0,690.0,2.0,100.0
804,87.0,70.0,150.0,1.0,100.0
805,75.0,158.0,150.0,1.0,100.0
806,77.0,2.0,240.0,0.0,100.0
807,78.0,160.0,150.0,1.0,100.0
808,87.0,67.0,150.0,1.0,100.0
809,75.0,3.0,480.0,0.0,100.0
810,75.0,155.0,150.0,1.0,100.0
811,39.0,2.0,240.0,2.0,100.0
812,51.0,161.0,240.0,2.0,100.0
813,78.0,0.0,150.0,1.0,100.0
814,75.0,82.0,240.0,0.0,100.0
815,56.0,3.0,480.0,2.0,100.0
816,87.0,78.0,150.0,1.0,100.0
817,44.0,0.0,480.0,2.0,100.0
818,75.0,154.0,150.0,1.0,100.0
819,78.0,3.0,240.0,0.0,100.0
820,83.0,160.0,150.0,1.0,100.0
821,59.0,0.0,690.0,2.0,100.0
822,87.0,78.0,150.0,1.0,100.0
823,68.0,9.0,690.0,2.0,100.0
824,77.0,84.0,240.0,0.0,100.0
825,75.0,156.0,150.0,1.0,100.0
826,80.0,1.0,240.0,0.0,100.0
827,80.0,162.0,150.0,1.0,100.0
828,78.0,82.0,240.0,0.0,100.0
829,87.0,67.0,150.0,1.0,100.0
830,75.0,159.0,150.0,1.0,100.0
831,68.0,1.0,240.0,2.0,100.0
832,77.0,0.0,240.0,0.0,100.0
833,59.0,2.0,240.0,2.0,100.0
834,77.0,158.0,150.0,1.0,100.0
835,70.0,1.0,480.0,2.0,100.0
836,78.0,17.0,930.0,0.0,100.0
837,87.0,162.0,150.0,1.0,100.0
838,63.0,4.0,480.0,2.0,100.0
839,75.0,153.0,150.0,1.0,100.0
840,78.0,161.0,150.0,1.0,100.0
841,87.0,159.0,150.0,1.0,100.0
842,51.0,91.0,720.0,2.0,100.0
843,39.0,1.0,690.0,2.0,100.0
844,75.0,146.0,150.0,1.0,100.0
845,78.0,158.0,150.0,1.0,100.0
846,87.0,68.0,150.0,1.0,100.0
847,75.0,158.0,150.0,1.0,100.0
848,51.0,0.0,240.0,2.0,100.0
849,39.0,2.0,240.0,2.0,100.0
850,78.0,160.0,150.0,1.0,100.0
851,47.0,1.0,480.0,2.0,100.0
852,87.0,160.0,150.0,1.0,100.0
853,78.0,5.0,480.0,0.0,100.0
854,35.0,0.0,480.0,2.0,100.0
855,75.0,153.0,150.0,1.0,100.0
856,78.0,161.0,150.0,1.0,100.0
857,49.0,1.0,480.0,2.0,100.0
858,37.0,6.0,480.0,2.0,100.0
859,77.0,0.0,480.0,0.0,100.0
860,85.0,161.0,150.0,1.0,100.0
861,73.0,152.0,150.0,1.0,100.0
862,77.0,160.0,150.0,1.0,100.0
863,75.0,6.0,480.0,0.0,100.0
864,51.0,1.0,360.0,2.0,100.0
865,39.0,118.0,360.0,2.0,100.0
866,83.0,160.0,150.0,1.0,100.0
867,71.0,35.0,150.0,1.0,100.0
868,75.0,161.0,150.0,1.0,100.0
869,41.0,0.0,120.0,2.0,100.0
870,53.0,0.0,120.0,2.0,100.0
871,42.0,1.0,360.0,2.0,100.0
872,54.0,119.0,360.0,2.0,100.0
873,82.0,159.0,150.0,1.0,100.0
874,73.0,4.0,480.0,0.0,100.0
875,70.0,35.0,150.0,1.0,100.0
876,73.0,1.0,150.0,1.0,100.0
877,56.0,160.0,120.0,2.0,100.0
878,44.0,0.0,120.0,2.0,100.0
879,46.0,1.0,480.0,2.0,100.0
880,70.0,2.0,480.0,0.0,100.0
881,78.0,159.0,150.0,1.0,100.0
882,58.0,4.0,480.0,2.0,100.0
883,66.0,154.0,150.0,1.0,100.0
884,73.0,160.0,150.0,1.0,100.0
885,53.0,1.0,480.0,2.0,100.0
886,80.0,1.0,480.0,0.0,100.0
887,83.0,159.0,150.0,1.0,100.0
888,41.0,5.0,480.0,2.0,100.0
889,71.0,154.0,150.0,1.0,100.0
890,75.0,159.0,150.0,1.0,100.0
891,82.0,160.0,150.0,1.0,100.0
892,54.0,0.0,360.0,2.0,100.0
893,78.0,5.0,480.0,0.0,100.0
894,42.0,117.0,360.0,2.0,100.0
895,70.0,38.0,150.0,1.0,100.0
896,75.0,1.0,150.0,1.0,100.0
897,56.0,0.0,120.0,2.0,100.0
898,44.0,160.0,120.0,2.0,100.0
899,46.0,0.0,480.0,2.0,100.0
900,82.0,161.0,150.0,1.0,100.0
901,58.0,1.0,480.0,2.0,100.0
902,75.0,4.0,480.0,0.0,100.0
903,70.0,153.0,150.0,1.0,100.0
904,78.0,161.0,150.0,1.0,100.0
905,74.0,0.0,480.0,0.0,100.0
906,82.0,160.0,150.0,1.0,100.0
907,34.0,5.0,480.0,2.0,100.0
908,46.0,0.0,480.0,2.0,100.0
909,70.0,154.0,150.0,1.0,100.0
910,77.0,161.0,150.0,1.0,100.0
911,51.0,5.0,480.0,2.0,100.0
912,39.0,1.0,480.0,2.0,100.0
913,75.0,15.0,930.0,0.0,100.0
914,87.0,160.0,150.0,1.0,100.0
915,75.0,154.0,150.0,1.0,100.0
916,82.0,159.0,150.0,1.0,100.0
917,59.0,1.0,690.0,2.0,100.0
918,87.0,161.0,150.0,1.0,100.0
919,68.0,92.0,690.0,2.0,100.0
920,75.0,145.0,150.0,1.0,100.0
921,80.0,161.0,150.0,1.0,100.0
922,87.0,67.0,150.0,1.0,100.0
923,75.0,156.0,150.0,1.0,100.0
924,59.0,3.0,240.0,2.0,100.0
925,68.0,0.0,240.0,2.0,100.0
926,77.0,160.0,150.0,1.0,100.0
927,87.0,160.0,150.0,1.0,100.0
928,70.0,0.0,480.0,2.0,100.0
929,63.0,6.0,480.0,2.0,100.0
930,75.0,155.0,150.0,1.0,100.0
931,78.0,158.0,150.0,1.0,100.0
932,87.0,162.0,150.0,1.0,100.0
933,39.0,91.0,690.0,2.0,100.0
934,51.0,0.0,690.0,2.0,100.0
935,75.0,158.0,150.0,1.0,100.0
936,78.0,161.0,150.0,1.0,100.0
937,87.0,69.0,150.0,1.0,100.0
938,75.0,158.0,150.0,1.0,100.0
939,39.0,1.0,240.0,2.0,100.0
940,51.0,1.0,240.0,2.0,100.0
941,78.0,159.0,150.0,1.0,100.0
942,87.0,78.0,150.0,1.0,100.0
943,44.0,82.0,240.0,2.0,100.0
944,56.0,2.0,240.0,2.0,100.0
945,75.0,157.0,150.0,1.0,100.0
946,59.0,1.0,240.0,2.0,100.0
947,68.0,1.0,240.0,2.0,100.0
948,83.0,161.0,150.0,1.0,100.0
949,63.0,1.0,240.0,2.0,100.0
950,70.0,82.0,240.0,2.0,100.0
951,87.0,77.0,150.0,1.0,100.0
952,75.0,157.0,150.0,1.0,100.0
953,68.0,2.0,240.0,2.0,100.0
954,71.0,161.0,240.0,2.0,100.0
955,80.0,0.0,150.0,1.0,100.0
956,70.0,1.0,240.0,2.0,100.0
957,63.0,82.0,240.0,2.0,100.0
958,87.0,76.0,150.0,1.0,100.0
959,75.0,158.0,150.0,1.0,100.0
960,59.0,1.0,240.0,2.0,100.0
961,68.0,2.0,240.0,2.0,100.0
962,77.0,160.0,150.0,1.0,100.0
963,87.0,76.0,150.0,1.0,100.0
964,70.0,2.0,240.0,2.0,100.0
965,63.0,81.0,240.0,2.0,100.0
966,75.0,157.0,150.0,1.0,100.0
967,39.0,2.0,240.0,2.0,100.0
968,51.0,1.0,240.0,2.0,100.0
969,78.0,159.0,150.0,1.0,100.0
970,87.0,78.0,150.0,1.0,100.0
971,41.0,2.0,240.0,2.0,100.0
972,53.0,82.0,240.0,2.0,100.0
973,75.0,157.0,150.0,1.0,100.0
974,54.0,0.0,240.0,2.0,100.0
975,42.0,3.0,240.0,2.0,100.0
976,78.0,159.0,150.0,1.0,100.0
977,53.0,1.0,240.0,2.0,100.0
978,41.0,83.0,240.0,2.0,100.0
979,87.0,77.0,150.0,1.0,100.0
980,75.0,157.0,150.0,1.0,100.0
981,51.0,1.0,240.0,2.0,100.0
982,39.0,1.0,240.0,2.0,100.0
983,78.0,160.0,150.0,1.0,100.0
984,44.0,1.0,240.0,2.0,100.0
985,87.0,77.0,150.0,1.0,100.0
986,56.0,82.0,240.0,2.0,100.0
987,75.0,156.0,150.0,1.0,100.0
988,68.0,4.0,240.0,2.0,100.0
989,59.0,0.0,240.0,2.0,100.0
990,83.0,160.0,150.0,1.0,100.0
991,70.0,0.0,240.0,2.0,100.0
992,87.0,78.0,150.0,1.0,100.0
993,63.0,83.0,240.0,2.0,100.0
994,75.0,156.0,150.0,1.0,100.0
995,71.0,1.0,240.0,2.0,100.0
996,68.0,1.0,240.0,2.0,100.0
997,80.0,161.0,150.0,1.0,100.0
998,63.0,1.0,240.0,2.0,100.0
999,70.0,83.0,240.0,2.0,100.0
1000,87.0,77.0,150.0,1.0,100.0
1001,75.0,156.0,150.0,1.0,100.0
1002,68.0,1.0,240.0,2.0,100.0
1003,59.0,2.0,240.0,2.0,100.0
1004,77.0,159.0,150.0,1.0,100.0
1005,87.0,78.0,150.0,1.0,100.0
1006,66.0,2.0,240.0,2.0,100.0
1007,58.0,81.0,240.0,2.0,100.0
1008,75.0,156.0,150.0,1.0,100.0
1009,59.0,2.0,240.0,2.0,100.0
1010,68.0,2.0,240.0,2.0,100.0
1011,80.0,160.0,150.0,1.0,100.0
1012,58.0,81.0,240.0,2.0,100.0
1013,66.0,1.0,240.0,2.0,100.0
1014,87.0,78.0,150.0,1.0,100.0
1015,75.0,158.0,150.0,1.0,100.0
1016,65.0,0.0,240.0,2.0,100.0
1017,56.0,2.0,240.0,2.0,100.0
1018,77.0,160.0,150.0,1.0,100.0
1019,63.0,1.0,240.0,2.0,100.0
1020,54.0,82.0,240.0,2.0,100.0
1021,82.0,77.0,150.0,1.0,100.0
1022,70.0,157.0,150.0,1.0,100.0
1023,65.0,1.0,240.0,2.0,100.0
1024,56.0,2.0,240.0,2.0,100.0
1025,77.0,161.0,150.0,1.0,100.0
1026,63.0,81.0,240.0,2.0,100.0
1027,54.0,2.0,240.0,2.0,100.0
1028,82.0,76.0,150.0,1.0,100.0
1029,70.0,158.0,150.0,1.0,100.0
1030,61.0,4.0,240.0,2.0,100.0
1031,53.0,0.0,240.0,2.0,100.0
1032,73.0,160.0,150.0,1.0,100.0
1033,59.0,4.0,240.0,2.0,100.0
1034,78.0,74.0,150.0,1.0,100.0
1035,51.0,80.0,240.0,2.0,100.0
1036,66.0,158.0,150.0,1.0,100.0
1037,53.0,1.0,240.0,2.0,100.0
1038,61.0,160.0,240.0,2.0,100.0
1039,73.0,0.0,150.0,1.0,100.0
1040,59.0,83.0,240.0,2.0,100.0
1041,78.0,79.0,150.0,1.0,100.0
1042,51.0,0.0,240.0,2.0,100.0
1043,66.0,157.0,150.0,1.0,100.0
1044,58.0,1.0,240.0,2.0,100.0
1045,49.0,1.0,240.0,2.0,100.0
1046,70.0,160.0,150.0,1.0,100.0
1047,56.0,0.0,930.0,2.0,100.0
1048,75.0,160.0,150.0,1.0,100.0
1049,47.0,16.0,930.0,2.0,100.0
1050,63.0,161.0,150.0,1.0,100.0
1051,65.0,159.0,150.0,1.0,100.0
1052,75.0,161.0,150.0,1.0,100.0
1053,63.0,143.0,150.0,1.0,100.0
1054,65.0,161.0,150.0,1.0,100.0
1055,46.0,5.0,960.0,2.0,100.0
1056,54.0,1.0,960.0,2.0,100.0
1057,75.0,160.0,150.0,1.0,100.0
1058,63.0,159.0,150.0,1.0,100.0
1059,66.0,160.0,150.0,1.0,100.0
1060,75.0,159.0,150.0,1.0,100.0
1061,63.0,155.0,150.0,1.0,100.0
1062,66.0,161.0,150.0,1.0,100.0
1063,45.0,1.0,930.0,2.0,100.0
1064,53.0,16.0,930.0,2.0,100.0
1065,75.0,158.0,150.0,1.0,100.0
1066,63.0,161.0,150.0,1.0,100.0
1067,65.0,160.0,150.0,1.0,100.0
1068,75.0,161.0,150.0,1.0,100.0
1069,63.0,143.0,150.0,1.0,100.0
1070,65.0,159.0,150.0,1.0,100.0
1071,53.0,2.0,1410.0,2.0,100.0
1072,75.0,159.0,150.0,1.0,100.0
1073,46.0,24.0,1410.0,2.0,100.0
1074,63.0,161.0,150.0,1.0,100.0
1075,65.0,160.0,150.0,1.0,100.0
1076,70.0,160.0,150.0,1.0,100.0
1077,63.0,160.0,150.0,1.0,100.0
1078,65.0,160.0,150.0,1.0,100.0
1079,70.0,160.0,150.0,1.0,100.0
1080,63.0,133.0,150.0,1.0,100.0
1081,65.0,160.0,150.0,1.0,100.0
1082,46.0,24.0,1410.0,2.0,100.0
1083,70.0,163.0,150.0,1.0,100.0
1084,53.0,1.0,1410.0,2.0,100.0
1085,62.0,158.0,150.0,1.0,100.0
1086,65.0,159.0,150.0,1.0,100.0
1087,70.0,160.0,150.0,1.0,100.0
1088,62.0,161.0,150.0,1.0,100.0
1089,65.0,160.0,150.0,1.0,100.0
1090,70.0,159.0,150.0,1.0,100.0
1091,58.0,135.0,150.0,1.0,100.0
1092,65.0,238.0,150.0,1.0,100.0
1093,39.0,5.0,480.0,2.0,100.0
1094,67.0,235.0,240.0,2.0,100.0
1095,63.0,1.0,240.0,2.0,100.0
1096,70.0,23.0,1410.0,1.0,100.0
1097,65.0,0.0,240.0,2.0,100.0
1098,58.0,239.0,240.0,2.0,100.0
1099,67.0,0.0,240.0,2.0,100.0
1100,39.0,240.0,240.0,2.0,100.0
1101,63.0,1.0,240.0,2.0,100.0
1102,70.0,0.0,480.0,0.0,100.0
1103,65.0,1.0,480.0,2.0,100.0
1104,58.0,220.0,480.0,2.0,100.0
1105,46.0,235.0,240.0,2.0,100.0
1106,70.0,1.0,240.0,0.0,100.0
1107,58.0,240.0,240.0,2.0,100.0
1108,72.0,5.0,480.0,0.0,100.0
1109,70.0,24.0,1410.0,1.0,100.0
1110,67.0,233.0,240.0,2.0,100.0
1111,39.0,2.0,480.0,2.0,100.0
1112,63.0,0.0,240.0,2.0,100.0
1113,58.0,240.0,240.0,2.0,100.0
1114,65.0,0.0,240.0,2.0,100.0
1115,70.0,0.0,240.0,0.0,100.0
1116,67.0,1.0,240.0,2.0,100.0
1117,63.0,0.0,240.0,2.0,100.0
1118,39.0,239.0,240.0,2.0,100.0
1119,58.0,1.0,480.0,2.0,100.0
1120,65.0,1.0,480.0,2.0,100.0
1121,46.0,235.0,240.0,2.0,100.0
1122,70.0,219.0,480.0,0.0,100.0
1123,58.0,240.0,240.0,2.0,100.0
1124,67.0,0.0,240.0,2.0,100.0
1125,75.0,10.0,690.0,0.0,100.0
1126,63.0,234.0,240.0,2.0,100.0
1127,39.0,6.0,480.0,2.0,100.0
1128,70.0,22.0,1410.0,1.0,100.0
1129,65.0,0.0,240.0,2.0,100.0
1130,58.0,230.0,240.0,2.0,100.0
1131,67.0,0.0,240.0,2.0,100.0
1132,63.0,0.0,240.0,2.0,100.0
1133,39.0,240.0,240.0,2.0,100.0
1134,70.0,2.0,480.0,0.0,100.0
1135,46.0,235.0,240.0,2.0,100.0
1136,65.0,1.0,480.0,2.0,100.0
1137,58.0,219.0,480.0,2.0,100.0
1138,68.0,1.0,240.0,0.0,100.0
1139,58.0,239.0,240.0,2.0,100.0
1140,39.0,3.0,480.0,2.0,100.0
1141,67.0,1.0,240.0,2.0,100.0
1142,63.0,233.0,240.0,2.0,100.0
1143,67.0,3.0,480.0,0.0,100.0
1144,70.0,23.0,1410.0,1.0,100.0
1145,65.0,2.0,240.0,2.0,100.0
1146,58.0,238.0,240.0,2.0,100.0
1147,39.0,1.0,240.0,2.0,100.0
1148,63.0,1.0,240.0,2.0,100.0
1149,67.0,238.0,240.0,2.0,100.0
1150,46.0,237.0,240.0,2.0,100.0
1151,65.0,0.0,480.0,2.0,100.0
1152,58.0,220.0,480.0,2.0,100.0
1153,58.0,240.0,240.0,2.0,100.0
1154,70.0,25.0,1410.0,1.0,100.0
1155,39.0,6.0,480.0,2.0,100.0
1156,67.0,1.0,240.0,2.0,100.0
1157,63.0,233.0,240.0,2.0,100.0
1158,70.0,10.0,690.0,0.0,100.0
1159,65.0,2.0,240.0,2.0,100.0
1160,58.0,229.0,240.0,2.0,100.0
1161,67.0,1.0,240.0,2.0,100.0
1162,63.0,0.0,240.0,2.0,100.0
1163,39.0,239.0,240.0,2.0,100.0
1164,70.0,219.0,480.0,0.0,100.0
1165,58.0,0.0,480.0,2.0,100.0
1166,46.0,236.0,240.0,2.0,100.0
1167,65.0,0.0,480.0,2.0,100.0
1168,70.0,239.0,240.0,0.0,100.0
1169,58.0,1.0,240.0,2.0,100.0
1170,70.0,24.0,1410.0,1.0,100.0
1171,67.0,0.0,240.0,2.0,100.0
1172,63.0,234.0,240.0,2.0,100.0
1173,39.0,6.0,480.0,2.0,100.0
1174,73.0,8.0,720.0,0.0,100.0
1175,65.0,231.0,240.0,2.0,100.0
1176,58.0,0.0,240.0,2.0,100.0
1177,39.0,1.0,240.0,2.0,100.0
1178,67.0,239.0,240.0,2.0,100.0
1179,63.0,0.0,240.0,2.0,100.0
1180,46.0,236.0,240.0,2.0,100.0
1181,73.0,1.0,480.0,0.0,100.0
1182,58.0,220.0,480.0,2.0,100.0
1183,65.0,0.0,480.0,2.0,100.0
1184,73.0,122.0,240.0,0.0,100.0
1185,58.0,0.0,240.0,2.0,100.0
1186,63.0,2.0,240.0,2.0,100.0
1187,39.0,7.0,480.0,2.0,100.0
1188,67.0,1.0,240.0,2.0,100.0
1189,73.0,116.0,120.0,0.0,100.0
1190,70.0,242.0,1200.0,1.0,100.0
1191,75.0,232.0,120.0,0.0,100.0
1192,58.0,0.0,240.0,2.0,100.0
1193,65.0,237.0,240.0,2.0,100.0
1194,77.0,2.0,480.0,0.0,100.0
1195,39.0,1.0,240.0,2.0,100.0
1196,67.0,238.0,240.0,2.0,100.0
1197,63.0,1.0,240.0,2.0,100.0
1198,75.0,0.0,480.0,0.0,100.0
1199,55.0,1.0,480.0,2.0,100.0
1200,51.0,236.0,240.0,2.0,100.0
1201,63.0,1.0,480.0,2.0,100.0
1202,63.0,1.0,240.0,1.0,100.0
1203,75.0,2.0,240.0,1.0,100.0
1204,73.0,237.0,240.0,0.0,100.0
1205,72.0,3.0,480.0,0.0,100.0
1206,44.0,2.0,480.0,2.0,100.0
1207,72.0,2.0,240.0,1.0,100.0
1208,75.0,232.0,240.0,1.0,100.0
1209,68.0,10.0,690.0,1.0,100.0
1210,32.0,1.0,480.0,2.0,100.0
1211,70.0,229.0,240.0,1.0,100.0
1212,73.0,2.0,240.0,1.0,100.0
1213,72.0,0.0,240.0,1.0,100.0
1214,75.0,237.0,240.0,1.0,100.0
1215,32.0,1.0,240.0,2.0,100.0
1216,44.0,0.0,240.0,2.0,100.0
1217,51.0,2.0,240.0,2.0,100.0
1218,60.0,240.0,240.0,2.0,100.0
1219,63.0,9.0,690.0,1.0,100.0
1220,44.0,0.0,240.0,2.0,100.0
1221,56.0,0.0,240.0,2.0,100.0
1222,58.0,0.0,240.0,2.0,100.0
1223,55.0,230.0,240.0,2.0,100.0
1224,56.0,2.0,240.0,2.0,100.0
1225,60.0,240.0,240.0,2.0,100.0
1226,32.0,0.0,480.0,2.0,100.0
1227,68.0,9.0,690.0,1.0,100.0
1228,44.0,6.0,480.0,2.0,100.0
1229,75.0,232.0,240.0,1.0,100.0
1230,75.0,232.0,960.0,0.0,100.0
1231,72.0,0.0,240.0,1.0,100.0
1232,70.0,1.0,240.0,1.0,100.0
1233,73.0,230.0,240.0,1.0,100.0
1234,72.0,1.0,240.0,1.0,100.0
1235,75.0,0.0,240.0,1.0,100.0
1236,44.0,1.0,240.0,2.0,100.0
1237,32.0,237.0,240.0,2.0,100.0
1238,56.0,2.0,240.0,2.0,100.0
1239,63.0,9.0,690.0,1.0,100.0
1240,51.0,6.0,480.0,2.0,100.0
1241,44.0,1.0,480.0,2.0,100.0
1242,60.0,1.0,240.0,2.0,100.0
1243,55.0,0.0,240.0,2.0,100.0
1244,58.0,230.0,240.0,2.0,100.0
1245,73.0,0.0,240.0,0.0,100.0
1246,72.0,238.0,240.0,0.0,100.0
1247,56.0,1.0,240.0,2.0,100.0
1248,60.0,0.0,240.0,2.0,100.0
1249,44.0,0.0,240.0,2.0,100.0
1250,51.0,1.0,240.0,2.0,100.0
1251,72.0,1.0,240.0,1.0,100.0
1252,75.0,0.0,690.0,0.0,100.0
1253,32.0,2.0,480.0,2.0,100.0
1254,68.0,10.0,690.0,1.0,100.0
1255,75.0,234.0,240.0,1.0,100.0
1256,44.0,4.0,480.0,2.0,100.0
1257,70.0,1.0,240.0,1.0,100.0
1258,73.0,228.0,240.0,1.0,100.0
1259,44.0,0.0,240.0,2.0,100.0
1260,75.0,1.0,240.0,1.0,100.0
1261,32.0,1.0,240.0,2.0,100.0
1262,72.0,238.0,240.0,1.0,100.0
1263,51.0,1.0,480.0,2.0,100.0
1264,56.0,235.0,240.0,2.0,100.0
1265,60.0,1.0,240.0,2.0,100.0
1266,63.0,8.0,690.0,1.0,100.0
1267,44.0,4.0,480.0,2.0,100.0
1268,58.0,230.0,240.0,2.0,100.0
1269,55.0,0.0,240.0,2.0,100.0
1270,72.0,0.0,240.0,0.0,100.0
1271,56.0,2.0,240.0,2.0,100.0
1272,60.0,0.0,240.0,2.0,100.0
1273,44.0,0.0,240.0,2.0,100.0
1274,51.0,238.0,240.0,2.0,100.0
1275,72.0,1.0,240.0,0.0,100.0
1276,72.0,2.0,240.0,1.0,100.0
1277,29.0,1.0,480.0,2.0,100.0
1278,69.0,9.0,690.0,1.0,100.0
1279,75.0,1.0,960.0,0.0,100.0
1280,75.0,233.0,240.0,1.0,100.0
1281,41.0,5.0,480.0,2.0,100.0
1282,70.0,1.0,240.0,1.0,100.0
1283,74.0,229.0,240.0,1.0,100.0
1284,75.0,0.0,240.0,1.0,100.0
1285,72.0,238.0,240.0,1.0,100.0
1286,41.0,1.0,240.0,2.0,100.0
1287,29.0,1.0,240.0,2.0,100.0
1288,41.0,1.0,480.0,2.0,100.0
1289,57.0,233.0,240.0,2.0,100.0
1290,60.0,1.0,240.0,2.0,100.0
1291,63.0,9.0,690.0,1.0,100.0
1292,53.0,4.0,480.0,2.0,100.0
1293,58.0,0.0,240.0,2.0,100.0
1294,55.0,0.0,240.0,2.0,100.0
1295,74.0,231.0,240.0,0.0,100.0
1296,41.0,0.0,240.0,2.0,100.0
1297,60.0,1.0,240.0,2.0,100.0
1298,53.0,1.0,240.0,2.0,100.0
1299,57.0,0.0,240.0,2.0,100.0
1300,72.0,239.0,240.0,0.0,100.0
1301,69.0,10.0,690.0,1.0,100.0
1302,75.0,233.0,240.0,1.0,100.0
1303,75.0,0.0,690.0,0.0,100.0
1304,72.0,0.0,240.0,1.0,100.0
1305,41.0,6.0,480.0,2.0,100.0
1306,29.0,0.0,480.0,2.0,100.0
1307,70.0,0.0,240.0,1.0,100.0
1308,74.0,230.0,240.0,1.0,100.0
1309,29.0,1.0,240.0,2.0,100.0
1310,41.0,0.0,240.0,2.0,100.0
1311,72.0,0.0,240.0,1.0,100.0
1312,75.0,238.0,240.0,1.0,100.0
1313,57.0,2.0,240.0,2.0,100.0
1314,53.0,1.0,480.0,2.0,100.0
1315,60.0,234.0,240.0,2.0,100.0
1316,41.0,4.0,480.0,2.0,100.0
1317,63.0,8.0,690.0,1.0,100.0
1318,58.0,2.0,240.0,2.0,100.0
1319,55.0,230.0,240.0,2.0,100.0
1320,41.0,1.0,240.0,2.0,100.0
1321,57.0,1.0,240.0,2.0,100.0
1322,60.0,0.0,240.0,2.0,100.0
1323,53.0,239.0,240.0,2.0,100.0
1324,68.0,0.0,690.0,1.0,100.0
1325,77.0,1.0,240.0,1.0,100.0
1326,77.0,10.0,690.0,0.0,100.0
1327,34.0,1.0,480.0,2.0,100.0
1328,46.0,5.0,480.0,2.0,100.0
1329,74.0,233.0,240.0,1.0,100.0
1330,73.0,229.0,240.0,1.0,100.0
1331,76.0,0.0,240.0,1.0,100.0
1332,74.0,239.0,240.0,1.0,100.0
1333,46.0,0.0,240.0,2.0,100.0
1334,34.0,0.0,240.0,2.0,100.0
1335,77.0,1.0,240.0,1.0,100.0
1336,65.0,2.0,240.0,1.0,100.0
1337,70.0,12.0,690.0,1.0,100.0
1338,75.0,4.0,480.0,0.0,100.0
1339,58.0,2.0,480.0,2.0,100.0
1340,46.0,1.0,480.0,2.0,100.0
1341,68.0,232.0,240.0,1.0,100.0
1342,64.0,228.0,240.0,1.0,100.0
1343,67.0,0.0,240.0,1.0,100.0
1344,65.0,1.0,240.0,1.0,100.0
1345,68.0,0.0,240.0,1.0,100.0
1346,46.0,0.0,240.0,2.0,100.0
1347,74.0,1.0,240.0,0.0,100.0
1348,58.0,239.0,240.0,2.0,100.0
1349,77.0,232.0,240.0,1.0,100.0
1350,70.0,9.0,690.0,1.0,100.0
1351,80.0,1.0,690.0,0.0,100.0
1352,46.0,6.0,480.0,2.0,100.0
1353,34.0,1.0,480.0,2.0,100.0
1354,80.0,0.0,240.0,1.0,100.0
1355,79.0,229.0,240.0,1.0,100.0
1356,76.0,0.0,240.0,1.0,100.0
1357,46.0,0.0,240.0,2.0,100.0
1358,77.0,1.0,240.0,1.0,100.0
1359,80.0,240.0,240.0,1.0,100.0
1360,34.0,0.0,240.0,2.0,100.0
1361,77.0,3.0,480.0,0.0,100.0
1362,58.0,2.0,480.0,2.0,100.0
1363,46.0,0.0,480.0,2.0,100.0
1364,74.0,10.0,690.0,1.0,100.0
1365,65.0,1.0,240.0,1.0,100.0
1366,68.0,233.0,240.0,1.0,100.0
1367,64.0,230.0,240.0,1.0,100.0
1368,67.0,1.0,240.0,1.0,100.0
1369,68.0,0.0,240.0,1.0,100.0
1370,65.0,239.0,240.0,1.0,100.0
1371,46.0,0.0,240.0,2.0,100.0
1372,58.0,0.0,240.0,2.0,100.0
1373,74.0,1.0,240.0,0.0,100.0
1374,75.0,234.0,240.0,1.0,100.0
1375,34.0,1.0,480.0,2.0,100.0
1376,78.0,0.0,240.0,1.0,100.0
1377,78.0,4.0,480.0,0.0,100.0
1378,84.0,9.0,690.0,1.0,100.0
1379,46.0,1.0,480.0,2.0,100.0
1380,74.0,230.0,240.0,1.0,100.0
1381,77.0,0.0,240.0,1.0,100.0
1382,78.0,0.0,240.0,1.0,100.0
1383,34.0,1.0,240.0,2.0,100.0
1384,46.0,1.0,240.0,2.0,100.0
1385,75.0,0.0,240.0,1.0,100.0
1386,75.0,239.0,240.0,0.0,100.0
1387,66.0,234.0,240.0,1.0,100.0
1388,72.0,3.0,480.0,0.0,100.0
1389,58.0,2.0,480.0,2.0,100.0
1390,46.0,0.0,480.0,2.0,100.0
1391,75.0,1.0,690.0,1.0,100.0
1392,69.0,9.0,690.0,1.0,100.0
1393,65.0,230.0,240.0,1.0,100.0
1394,69.0,1.0,240.0,0.0,100.0
1395,46.0,1.0,240.0,2.0,100.0
1396,66.0,0.0,240.0,1.0,100.0
1397,58.0,239.0,240.0,2.0,100.0
1398,34.0,4.0,480.0,2.0,100.0
1399,74.0,1.0,240.0,1.0,100.0
1400,46.0,1.0,480.0,2.0,100.0
1401,82.0,9.0,720.0,1.0,100.0
1402,77.0,233.0,240.0,1.0,100.0
1403,70.0,0.0,690.0,0.0,100.0
1404,76.0,231.0,240.0,1.0,100.0
1405,73.0,1.0,240.0,1.0,100.0
1406,74.0,1.0,240.0,1.0,100.0
1407,46.0,0.0,240.0,2.0,100.0
1408,34.0,1.0,240.0,2.0,100.0
1409,77.0,237.0,240.0,1.0,100.0
1410,80.0,1.0,240.0,1.0,100.0
1411,46.0,241.0,240.0,2.0,100.0
1412,58.0,0.0,240.0,2.0,100.0
1413,70.0,1.0,690.0,1.0,100.0
1414,74.0,11.0,690.0,1.0,100.0
1415,79.0,229.0,240.0,1.0,100.0
1416,80.0,237.0,240.0,1.0,100.0
1417,68.0,234.0,240.0,1.0,100.0
1418,74.0,9.0,720.0,1.0,100.0
1419,46.0,2.0,480.0,2.0,100.0
1420,77.0,1.0,690.0,1.0,100.0
1421,34.0,5.0,480.0,2.0,100.0
1422,67.0,230.0,240.0,1.0,100.0
1423,68.0,0.0,240.0,1.0,100.0
1424,46.0,1.0,240.0,2.0,100.0
1425,34.0,237.0,240.0,2.0,100.0
1426,58.0,2.0,240.0,2.0,100.0
1427,65.0,10.0,690.0,1.0,100.0
1428,68.0,1.0,690.0,1.0,100.0
1429,74.0,1.0,240.0,1.0,100.0
1430,46.0,238.0,240.0,2.0,100.0
1431,73.0,230.0,240.0,1.0,100.0
1432,74.0,240.0,240.0,1.0,100.0
1433,34.0,1.0,480.0,2.0,100.0
1434,68.0,234.0,240.0,1.0,100.0
1435,46.0,5.0,480.0,2.0,100.0
1436,62.0,8.0,690.0,2.0,100.0
1437,70.0,2.0,4080.0,1.0,100.0
1438,67.0,231.0,240.0,1.0,100.0
1439,34.0,0.0,240.0,2.0,100.0
1440,46.0,2.0,240.0,2.0,100.0
1441,68.0,238.0,240.0,1.0,100.0
1442,61.0,12.0,690.0,2.0,100.0
1443,46.0,0.0,240.0,2.0,100.0
1444,67.0,241.0,240.0,1.0,100.0
1445,52.0,1.0,240.0,2.0,100.0
1446,68.0,228.0,240.0,1.0,100.0
1447,67.0,237.0,240.0,1.0,100.0
1448,68.0,237.0,240.0,1.0,100.0
1449,62.0,9.0,690.0,2.0,100.0
1450,34.0,0.0,480.0,2.0,100.0
1451,46.0,6.0,480.0,2.0,100.0
1452,67.0,229.0,240.0,1.0,100.0
1453,34.0,1.0,240.0,2.0,100.0
1454,68.0,1.0,240.0,1.0,100.0
1455,46.0,239.0,240.0,2.0,100.0
1456,67.0,0.0,240.0,1.0,100.0
1457,46.0,241.0,240.0,2.0,100.0
1458,52.0,0.0,240.0,2.0,100.0
1459,61.0,8.0,720.0,2.0,100.0
1460,68.0,231.0,240.0,1.0,100.0
1461,67.0,239.0,240.0,1.0,100.0
1462,62.0,3.0,1200.0,2.0,100.0
1463,68.0,1.0,240.0,1.0,100.0
1464,53.0,1.0,240.0,2.0,100.0
1465,46.0,239.0,240.0,2.0,100.0
1466,67.0,241.0,240.0,1.0,100.0
1467,68.0,237.0,240.0,1.0,100.0
1468,67.0,2.0,240.0,1.0,100.0
1469,58.0,1.0,240.0,2.0,100.0
1470,46.0,234.0,240.0,2.0,100.0
1471,68.0,238.0,240.0,1.0,100.0
1472,58.0,1.0,240.0,1.0,100.0
1473,65.0,241.0,240.0,1.0,100.0
1474,70.0,243.0,1440.0,1.0,100.0
1475,51.0,1.0,480.0,2.0,100.0
1476,67.0,234.0,240.0,2.0,100.0
1477,63.0,0.0,240.0,2.0,100.0
1478,70.0,11.0,690.0,0.0,100.0
1479,39.0,5.0,480.0,2.0,100.0
1480,58.0,0.0,240.0,2.0,100.0
1481,65.0,229.0,240.0,2.0,100.0
1482,63.0,239.0,240.0,2.0,100.0
1483,67.0,0.0,240.0,2.0,100.0
1484,51.0,1.0,240.0,2.0,100.0
1485,39.0,0.0,240.0,2.0,100.0
1486,68.0,1.0,480.0,0.0,100.0
1487,65.0,1.0,480.0,2.0,100.0
1488,58.0,2.0,240.0,2.0,100.0
1489,46.0,233.0,240.0,2.0,100.0
1490,58.0,240.0,240.0,2.0,100.0
1491,70.0,0.0,1440.0,1.0,100.0
1492,65.0,0.0,240.0,0.0,100.0
1493,70.0,9.0,690.0,0.0,100.0
1494,51.0,1.0,480.0,2.0,100.0
1495,39.0,6.0,480.0,2.0,100.0
1496,67.0,233.0,240.0,2.0,100.0
1497,63.0,0.0,240.0,2.0,100.0
1498,58.0,1.0,240.0,2.0,100.0
1499,65.0,228.0,240.0,2.0,100.0
1500,51.0,1.0,240.0,2.0,100.0
1501,67.0,1.0,240.0,2.0,100.0
1502,63.0,1.0,240.0,2.0,100.0
1503,39.0,239.0,240.0,2.0,100.0
1504,46.0,235.0,240.0,2.0,100.0
1505,68.0,0.0,480.0,0.0,100.0
1506,65.0,0.0,480.0,2.0,100.0
1507,58.0,1.0,240.0,2.0,100.0
1508,65.0,3.0,240.0,0.0,100.0
1509,70.0,1.0,1440.0,1.0,100.0
1510,58.0,238.0,240.0,2.0,100.0
1511,63.0,1.0,240.0,2.0,100.0
1512,67.0,234.0,240.0,2.0,100.0
1513,51.0,1.0,480.0,2.0,100.0
1514,75.0,10.0,690.0,0.0,100.0
1515,39.0,4.0,480.0,2.0,100.0
1516,58.0,0.0,240.0,2.0,100.0
1517,65.0,231.0,240.0,2.0,100.0
1518,51.0,0.0,240.0,2.0,100.0
1519,63.0,2.0,240.0,2.0,100.0
1520,67.0,0.0,240.0,2.0,100.0
1521,39.0,238.0,240.0,2.0,100.0
1522,46.0,234.0,240.0,2.0,100.0
1523,74.0,0.0,480.0,0.0,100.0
1524,65.0,0.0,480.0,2.0,100.0
1525,58.0,1.0,240.0,2.0,100.0
1526,70.0,0.0,1440.0,1.0,100.0
1527,58.0,1.0,240.0,2.0,100.0
1528,74.0,239.0,240.0,0.0,100.0
1529,67.0,1.0,240.0,2.0,100.0
1530,75.0,3.0,480.0,0.0,100.0
1531,63.0,235.0,240.0,2.0,100.0
1532,51.0,0.0,480.0,2.0,100.0
1533,39.0,1.0,480.0,2.0,100.0
1534,65.0,0.0,240.0,2.0,100.0
1535,58.0,240.0,240.0,2.0,100.0
1536,51.0,0.0,240.0,2.0,100.0
1537,63.0,240.0,240.0,2.0,100.0
1538,67.0,1.0,240.0,2.0,100.0
1539,39.0,0.0,240.0,2.0,100.0
1540,58.0,0.0,240.0,2.0,100.0
1541,46.0,235.0,240.0,2.0,100.0
1542,65.0,241.0,480.0,2.0,100.0
1543,70.0,1.0,1440.0,1.0,100.0
1544,58.0,240.0,240.0,2.0,100.0
1545,67.0,1.0,240.0,2.0,100.0
1546,63.0,233.0,240.0,2.0,100.0
1547,39.0,6.0,480.0,2.0,100.0
1548,51.0,1.0,480.0,2.0,100.0
1549,70.0,7.0,720.0,0.0,100.0
1550,65.0,1.0,240.0,2.0,100.0
1551,58.0,231.0,240.0,2.0,100.0
1552,39.0,1.0,240.0,2.0,100.0
1553,51.0,1.0,240.0,2.0,100.0
1554,67.0,238.0,240.0,2.0,100.0
1555,63.0,0.0,240.0,2.0,100.0
1556,70.0,0.0,480.0,0.0,100.0
1557,46.0,1.0,240.0,2.0,100.0
1558,65.0,241.0,480.0,2.0,100.0
1559,58.0,236.0,240.0,2.0,100.0
1560,70.0,1.0,240.0,0.0,100.0
1561,70.0,1.0,1440.0,1.0,100.0
1562,58.0,240.0,240.0,2.0,100.0
1563,67.0,1.0,240.0,2.0,100.0
1564,39.0,0.0,480.0,2.0,100.0
1565,51.0,5.0,480.0,2.0,100.0
1566,63.0,233.0,240.0,2.0,100.0
1567,73.0,9.0,690.0,0.0,100.0
1568,58.0,2.0,240.0,2.0,100.0
1569,65.0,229.0,240.0,2.0,100.0
1570,67.0,1.0,240.0,2.0,100.0
1571,39.0,0.0,240.0,2.0,100.0
1572,63.0,0.0,240.0,2.0,100.0
1573,51.0,240.0,240.0,2.0,100.0
1574,46.0,235.0,240.0,2.0,100.0
1575,58.0,0.0,240.0,2.0,100.0
1576,73.0,2.0,480.0,0.0,100.0
1577,65.0,241.0,480.0,2.0,100.0
1578,58.0,1.0,240.0,2.0,100.0
1579,73.0,121.0,240.0,0.0,100.0
1580,70.0,243.0,1440.0,1.0,100.0
1581,39.0,7.0,480.0,2.0,100.0
1582,67.0,1.0,240.0,2.0,100.0
1583,51.0,0.0,480.0,2.0,100.0
1584,73.0,118.0,120.0,0.0,100.0
1585,63.0,2.0,240.0,2.0,100.0
1586,75.0,231.0,120.0,0.0,100.0
1587,77.0,3.0,480.0,0.0,100.0
1588,65.0,235.0,240.0,2.0,100.0
1589,58.0,1.0,240.0,2.0,100.0
1590,39.0,240.0,240.0,2.0,100.0
1591,51.0,0.0,240.0,2.0,100.0
1592,63.0,1.0,240.0,2.0,100.0
1593,67.0,0.0,240.0,2.0,100.0
1594,75.0,1.0,480.0,0.0,100.0
1595,55.0,0.0,480.0,2.0,100.0
1596,51.0,1.0,240.0,2.0,100.0
1597,63.0,0.0,480.0,2.0,100.0
1598,58.0,235.0,240.0,2.0,100.0
1599,75.0,1.0,240.0,1.0,100.0
1600,73.0,0.0,240.0,0.0,100.0
1601,63.0,238.0,240.0,1.0,100.0
1602,44.0,1.0,480.0,2.0,100.0
1603,68.0,1.0,480.0,1.0,100.0
1604,32.0,2.0,480.0,2.0,100.0
1605,72.0,233.0,240.0,1.0,100.0
1606,75.0,1.0,240.0,1.0,100.0
1607,72.0,3.0,480.0,0.0,100.0
1608,73.0,2.0,240.0,1.0,100.0
1609,70.0,236.0,240.0,1.0,100.0
1610,32.0,1.0,240.0,2.0,100.0
1611,75.0,1.0,240.0,1.0,100.0
1612,44.0,0.0,240.0,2.0,100.0
1613,72.0,239.0,240.0,1.0,100.0
1614,68.0,0.0,240.0,1.0,100.0
1615,44.0,0.0,240.0,2.0,100.0
1616,60.0,0.0,240.0,2.0,100.0
1617,56.0,2.0,240.0,2.0,100.0
1618,63.0,9.0,690.0,1.0,100.0
1619,51.0,239.0,240.0,2.0,100.0
1620,55.0,1.0,240.0,2.0,100.0
1621,58.0,230.0,240.0,2.0,100.0
1622,60.0,0.0,240.0,2.0,100.0
1623,56.0,240.0,240.0,2.0,100.0
1624,32.0,0.0,480.0,2.0,100.0
1625,44.0,3.0,480.0,2.0,100.0
1626,68.0,3.0,480.0,1.0,100.0
1627,75.0,234.0,240.0,1.0,100.0
1628,72.0,0.0,240.0,1.0,100.0
1629,75.0,0.0,960.0,0.0,100.0
1630,70.0,240.0,240.0,1.0,100.0
1631,73.0,0.0,240.0,1.0,100.0
1632,44.0,1.0,240.0,2.0,100.0
1633,68.0,0.0,240.0,1.0,100.0
1634,32.0,237.0,240.0,2.0,100.0
1635,75.0,0.0,240.0,1.0,100.0
1636,72.0,0.0,240.0,1.0,100.0
1637,56.0,2.0,240.0,2.0,100.0
1638,44.0,0.0,480.0,2.0,100.0
1639,60.0,234.0,240.0,2.0,100.0
1640,51.0,5.0,480.0,2.0,100.0
1641,63.0,9.0,690.0,1.0,100.0
1642,73.0,1.0,240.0,0.0,100.0
1643,55.0,1.0,240.0,2.0,100.0
1644,58.0,229.0,240.0,2.0,100.0
1645,51.0,1.0,240.0,2.0,100.0
1646,60.0,0.0,240.0,2.0,100.0
1647,56.0,240.0,240.0,2.0,100.0
1648,44.0,0.0,240.0,2.0,100.0
1649,72.0,0.0,240.0,0.0,100.0
1650,68.0,5.0,480.0,1.0,100.0
1651,75.0,9.0,690.0,0.0,100.0
1652,32.0,2.0,480.0,2.0,100.0
1653,44.0,0.0,480.0,2.0,100.0
1654,75.0,1.0,240.0,1.0,100.0
1655,72.0,232.0,240.0,1.0,100.0
1656,73.0,229.0,240.0,1.0,100.0
1657,70.0,0.0,240.0,1.0,100.0
1658,32.0,1.0,240.0,2.0,100.0
1659,68.0,1.0,240.0,1.0,100.0
1660,75.0,1.0,240.0,1.0,100.0
1661,44.0,0.0,240.0,2.0,100.0
1662,72.0,240.0,240.0,1.0,100.0
1663,51.0,2.0,480.0,2.0,100.0
1664,56.0,231.0,240.0,2.0,100.0
1665,60.0,0.0,240.0,2.0,100.0
1666,44.0,5.0,480.0,2.0,100.0
1667,63.0,9.0,690.0,1.0,100.0
1668,58.0,2.0,240.0,2.0,100.0
1669,55.0,230.0,240.0,2.0,100.0
1670,56.0,0.0,240.0,2.0,100.0
1671,60.0,1.0,240.0,2.0,100.0
1672,44.0,0.0,240.0,2.0,100.0
1673,72.0,0.0,240.0,0.0,100.0
1674,51.0,239.0,240.0,2.0,100.0
1675,41.0,2.0,480.0,2.0,100.0
1676,75.0,1.0,960.0,0.0,100.0
1677,29.0,2.0,480.0,2.0,100.0
1678,72.0,232.0,240.0,1.0,100.0
1679,75.0,0.0,240.0,1.0,100.0
1680,69.0,3.0,480.0,1.0,100.0
1681,74.0,239.0,240.0,1.0,100.0
1682,70.0,1.0,240.0,1.0,100.0
1683,75.0,1.0,240.0,1.0,100.0
1684,41.0,0.0,240.0,2.0,100.0
1685,72.0,1.0,240.0,1.0,100.0
1686,69.0,237.0,240.0,1.0,100.0
1687,29.0,0.0,240.0,2.0,100.0
1688,60.0,3.0,240.0,2.0,100.0
1689,63.0,8.0,720.0,1.0,100.0
1690,41.0,1.0,480.0,2.0,100.0
1691,53.0,4.0,480.0,2.0,100.0
1692,57.0,232.0,240.0,2.0,100.0
1693,74.0,1.0,240.0,0.0,100.0
1694,55.0,2.0,240.0,2.0,100.0
1695,58.0,229.0,240.0,2.0,100.0
1696,60.0,1.0,240.0,2.0,100.0
1697,41.0,0.0,240.0,2.0,100.0
1698,53.0,0.0,240.0,2.0,100.0
1699,57.0,0.0,240.0,2.0,100.0
1700,72.0,240.0,240.0,0.0,100.0
1701,75.0,233.0,240.0,1.0,100.0
1702,29.0,2.0,480.0,2.0,100.0
1703,75.0,11.0,690.0,0.0,100.0
1704,41.0,1.0,480.0,2.0,100.0
1705,72.0,0.0,240.0,1.0,100.0
1706,69.0,4.0,480.0,1.0,100.0
1707,74.0,228.0,240.0,1.0,100.0
1708,70.0,1.0,240.0,1.0,100.0
1709,75.0,1.0,240.0,1.0,100.0
1710,69.0,0.0,240.0,1.0,100.0
1711,72.0,238.0,240.0,1.0,100.0
1712,41.0,0.0,240.0,2.0,100.0
1713,29.0,0.0,240.0,2.0,100.0
1714,60.0,2.0,240.0,2.0,100.0
1715,41.0,6.0,480.0,2.0,100.0
1716,53.0,0.0,480.0,2.0,100.0
1717,63.0,9.0,720.0,1.0,100.0
1718,57.0,233.0,240.0,2.0,100.0
1719,55.0,0.0,240.0,2.0,100.0
1720,58.0,231.0,240.0,2.0,100.0
1721,60.0,1.0,240.0,2.0,100.0
1722,53.0,0.0,240.0,2.0,100.0
1723,57.0,238.0,240.0,2.0,100.0
1724,41.0,1.0,240.0,2.0,100.0
1725,74.0,233.0,240.0,1.0,100.0
1726,68.0,5.0,480.0,1.0,100.0
1727,46.0,1.0,480.0,2.0,100.0
1728,77.0,0.0,240.0,1.0,100.0
1729,34.0,1.0,480.0,2.0,100.0
1730,77.0,10.0,690.0,0.0,100.0
1731,73.0,230.0,240.0,1.0,100.0
1732,76.0,0.0,240.0,1.0,100.0
1733,34.0,1.0,240.0,2.0,100.0
1734,68.0,0.0,240.0,1.0,100.0
1735,77.0,1.0,240.0,1.0,100.0
1736,46.0,238.0,240.0,2.0,100.0
1737,74.0,0.0,240.0,1.0,100.0
1738,75.0,5.0,480.0,0.0,100.0
1739,70.0,10.0,690.0,1.0,100.0
1740,46.0,0.0,480.0,2.0,100.0
1741,65.0,2.0,240.0,1.0,100.0
1742,58.0,1.0,480.0,2.0,100.0
1743,68.0,232.0,240.0,1.0,100.0
1744,64.0,0.0,240.0,1.0,100.0
1745,67.0,229.0,240.0,1.0,100.0
1746,68.0,1.0,240.0,1.0,100.0
1747,65.0,0.0,240.0,1.0,100.0
1748,74.0,0.0,240.0,0.0,100.0
1749,58.0,0.0,240.0,2.0,100.0
1750,46.0,239.0,240.0,2.0,100.0
1751,34.0,0.0,480.0,2.0,100.0
1752,46.0,2.0,480.0,2.0,100.0
1753,70.0,2.0,480.0,1.0,100.0
1754,80.0,235.0,240.0,1.0,100.0
1755,77.0,0.0,240.0,1.0,100.0
1756,80.0,9.0,690.0,0.0,100.0
1757,79.0,2.0,240.0,1.0,100.0
1758,76.0,231.0,240.0,1.0,100.0
1759,46.0,0.0,240.0,2.0,100.0
1760,34.0,0.0,240.0,2.0,100.0
1761,80.0,1.0,240.0,1.0,100.0
1762,70.0,0.0,240.0,1.0,100.0
1763,77.0,239.0,240.0,1.0,100.0
1764,77.0,5.0,480.0,0.0,100.0
1765,65.0,0.0,240.0,1.0,100.0
1766,68.0,234.0,240.0,1.0,100.0
1767,74.0,10.0,690.0,1.0,100.0
1768,58.0,1.0,480.0,2.0,100.0
1769,46.0,0.0,480.0,2.0,100.0
1770,64.0,1.0,240.0,1.0,100.0
1771,67.0,229.0,240.0,1.0,100.0
1772,58.0,0.0,240.0,2.0,100.0
1773,68.0,0.0,240.0,1.0,100.0
1774,65.0,0.0,240.0,1.0,100.0
1775,46.0,239.0,240.0,2.0,100.0
1776,82.0,10.0,690.0,0.0,100.0
1777,39.0,3.0,480.0,2.0,100.0
1778,82.0,1.0,240.0,1.0,100.0
1779,79.0,237.0,240.0,1.0,100.0
1780,70.0,229.0,240.0,1.0,100.0
1781,75.0,1.0,240.0,1.0,100.0
1782,79.0,241.0,240.0,1.0,100.0
1783,43.0,0.0,480.0,2.0,100.0
1784,79.0,4.0,480.0,0.0,100.0
1785,67.0,235.0,240.0,1.0,100.0
1786,72.0,0.0,240.0,1.0,100.0
1787,36.0,0.0,480.0,2.0,100.0
1788,75.0,237.0,240.0,1.0,100.0
1789,48.0,3.0,480.0,2.0,100.0
1790,63.0,239.0,240.0,1.0,100.0
1791,75.0,0.0,240.0,0.0,100.0
1792,80.0,1.0,240.0,1.0,100.0
1793,80.0,8.0,720.0,0.0,100.0
1794,41.0,5.0,480.0,2.0,100.0
1795,77.0,236.0,240.0,1.0,100.0
1796,68.0,230.0,240.0,1.0,100.0
1797,77.0,241.0,240.0,1.0,100.0
1798,72.0,0.0,240.0,1.0,100.0
1799,44.0,235.0,480.0,2.0,100.0
1800,77.0,4.0,480.0,0.0,100.0
1801,65.0,0.0,240.0,1.0,100.0
1802,68.0,1.0,240.0,1.0,100.0
1803,38.0,3.0,480.0,2.0,100.0
1804,50.0,0.0,480.0,2.0,100.0
1805,72.0,236.0,240.0,1.0,100.0
1806,72.0,239.0,240.0,0.0,100.0
1807,60.0,2.0,240.0,1.0,100.0
1808,71.0,0.0,240.0,1.0,100.0
1809,77.0,236.0,240.0,1.0,100.0
1810,43.0,0.0,480.0,2.0,100.0
1811,77.0,4.0,480.0,0.0,100.0
1812,65.0,239.0,240.0,1.0,100.0
1813,48.0,0.0,240.0,2.0,100.0
1814,75.0,0.0,240.0,0.0,100.0
1815,72.0,239.0,240.0,1.0,100.0
1816,75.0,1.0,240.0,1.0,100.0
1817,41.0,11.0,690.0,2.0,100.0
1818,80.0,3.0,1410.0,0.0,100.0
1819,63.0,240.0,240.0,1.0,100.0
1820,53.0,0.0,690.0,2.0,100.0
1821,72.0,0.0,240.0,1.0,100.0
1822,75.0,2.0,240.0,1.0,100.0
1823,80.0,228.0,240.0,1.0,100.0
1824,68.0,239.0,240.0,1.0,100.0
1825,46.0,1.0,690.0,2.0,100.0
1826,84.0,1.0,240.0,1.0,100.0
1827,75.0,239.0,240.0,1.0,100.0
1828,80.0,1.0,240.0,1.0,100.0
1829,34.0,7.0,720.0,2.0,100.0
1830,72.0,228.0,240.0,1.0,100.0
1831,80.0,1.0,240.0,1.0,100.0
1832,75.0,239.0,240.0,1.0,100.0
1833,84.0,0.0,240.0,1.0,100.0
1834,79.0,1.0,240.0,1.0,100.0
1835,74.0,0.0,240.0,1.0,100.0
1836,62.0,1.0,480.0,2.0,100.0
1837,82.0,236.0,240.0,1.0,100.0
1838,79.0,0.0,480.0,0.0,100.0
1839,58.0,11.0,690.0,2.0,100.0
1840,67.0,3.0,480.0,2.0,100.0
1841,70.0,229.0,240.0,1.0,100.0
1842,77.0,0.0,240.0,0.0,100.0
1843,68.0,1.0,240.0,2.0,100.0
1844,65.0,0.0,240.0,2.0,100.0
1845,80.0,0.0,240.0,1.0,100.0
1846,77.0,0.0,240.0,1.0,100.0
1847,74.0,239.0,240.0,1.0,100.0
1848,79.0,236.0,240.0,1.0,100.0
1849,87.0,0.0,240.0,1.0,100.0
1850,39.0,1.0,480.0,2.0,100.0
1851,75.0,0.0,480.0,0.0,100.0
1852,51.0,4.0,480.0,2.0,100.0
1853,75.0,239.0,240.0,1.0,100.0
1854,79.0,1.0,240.0,1.0,100.0
1855,82.0,238.0,240.0,1.0,100.0
1856,43.0,2.0,480.0,2.0,100.0
1857,55.0,238.0,480.0,2.0,100.0
1858,70.0,1.0,240.0,1.0,100.0
1859,79.0,1.0,240.0,1.0,100.0
1860,48.0,3.0,480.0,2.0,100.0
1861,75.0,236.0,240.0,1.0,100.0
1862,67.0,239.0,240.0,1.0,100.0
1863,80.0,1.0,240.0,1.0,100.0
1864,84.0,236.0,240.0,1.0,100.0
1865,53.0,1.0,480.0,2.0,100.0
1866,41.0,3.0,480.0,2.0,100.0
1867,72.0,239.0,240.0,1.0,100.0
1868,77.0,1.0,240.0,1.0,100.0
1869,80.0,239.0,240.0,1.0,100.0
1870,56.0,1.0,480.0,2.0,100.0
1871,44.0,240.0,480.0,2.0,100.0
1872,68.0,0.0,240.0,1.0,100.0
1873,72.0,0.0,240.0,1.0,100.0
1874,68.0,237.0,240.0,1.0,100.0
1875,50.0,3.0,480.0,2.0,100.0
1876,60.0,239.0,240.0,1.0,100.0
1877,77.0,2.0,240.0,1.0,100.0
1878,55.0,1.0,480.0,2.0,100.0
1879,43.0,2.0,480.0,2.0,100.0
1880,71.0,235.0,240.0,1.0,100.0
1881,65.0,241.0,240.0,1.0,100.0
1882,72.0,0.0,240.0,1.0,100.0
1883,75.0,239.0,240.0,1.0,100.0
1884,48.0,238.0,480.0,2.0,100.0
1885,63.0,2.0,240.0,1.0,100.0
1886,68.0,1.0,240.0,1.0,100.0
1887,53.0,1.0,480.0,2.0,100.0
1888,72.0,235.0,240.0,1.0,100.0
1889,41.0,4.0,480.0,2.0,100.0
1890,63.0,241.0,240.0,1.0,100.0
1891,46.0,5.0,1410.0,2.0,100.0
1892,72.0,3.0,480.0,1.0,100.0
1893,68.0,236.0,240.0,1.0,100.0
1894,62.0,240.0,240.0,1.0,100.0
1895,70.0,5.0,480.0,1.0,100.0
1896,67.0,236.0,240.0,1.0,100.0
1897,58.0,238.0,240.0,1.0,100.0
1898,68.0,3.0,480.0,1.0,100.0
1899,65.0,232.0,240.0,1.0,100.0
1900,58.0,1417.0,240.0,1.0,100.0
1901,46.0,0.0,1410.0,2.0,100.0
1902,63.0,1.0,1410.0,1.0,100.0
1903,67.0,0.0,1410.0,1.0,100.0
1904,39.0,0.0,1410.0,2.0,100.0
1905,58.0,28.0,1410.0,1.0,100.0
