,note,step,duration,channel,velocity
0,83.0,0.0,480.0,0.0,0.0
1,79.0,0.0,480.0,0.0,0.0
2,74.0,0.0,480.0,0.0,0.0
3,71.0,0.0,480.0,0.0,0.0
4,43.0,120.0,480.0,0.0,0.0
5,55.0,0.0,480.0,0.0,0.0
6,50.0,0.0,480.0,0.0,0.0
7,69.0,240.0,120.0,0.0,0.0
8,78.0,0.0,120.0,0.0,0.0
9,81.0,0.0,120.0,0.0,0.0
10,74.0,0.0,120.0,0.0,0.0
11,38.0,0.0,120.0,0.0,0.0
12,50.0,0.0,120.0,0.0,0.0
13,79.0,0.0,120.0,0.0,0.0
14,83.0,0.0,120.0,0.0,0.0
15,55.0,0.0,120.0,0.0,0.0
16,74.0,600.0,120.0,0.0,0.0
17,43.0,0.0,120.0,0.0,0.0
18,71.0,0.0,120.0,0.0,0.0
19,84.0,0.0,480.0,0.0,0.0
20,76.0,0.0,480.0,0.0,0.0
21,36.0,120.0,480.0,0.0,0.0
22,79.0,0.0,480.0,0.0,0.0
23,72.0,0.0,480.0,0.0,0.0
24,48.0,0.0,480.0,0.0,0.0
25,79.0,0.0,120.0,0.0,0.0
26,74.0,0.0,120.0,0.0,0.0
27,71.0,240.0,120.0,0.0,0.0
28,83.0,0.0,120.0,0.0,0.0
29,43.0,0.0,120.0,0.0,0.0
30,55.0,0.0,120.0,0.0,0.0
31,36.0,0.0,120.0,0.0,0.0
32,48.0,600.0,120.0,0.0,0.0
33,79.0,0.0,120.0,0.0,0.0
34,81.0,0.0,120.0,0.0,0.0
35,76.0,0.0,120.0,0.0,0.0
36,69.0,0.0,120.0,0.0,0.0
37,74.0,0.0,480.0,0.0,0.0
38,71.0,0.0,480.0,0.0,0.0
39,79.0,0.0,480.0,0.0,0.0
40,83.0,0.0,480.0,0.0,0.0
41,55.0,0.0,480.0,0.0,0.0
42,43.0,0.0,480.0,0.0,0.0
43,78.0,0.0,120.0,0.0,0.0
44,72.0,0.0,120.0,0.0,0.0
45,81.0,0.0,120.0,0.0,0.0
46,69.0,0.0,120.0,0.0,0.0
47,50.0,120.0,15.0,0.0,0.0
48,38.0,0.0,120.0,0.0,0.0
49,31.0,0.0,120.0,0.0,0.0
50,43.0,240.0,120.0,0.0,0.0
51,71.0,0.0,120.0,0.0,0.0
52,67.0,0.0,120.0,0.0,0.0
53,74.0,0.0,120.0,0.0,0.0
54,79.0,0.0,120.0,0.0,0.0
55,69.0,240.0,120.0,0.0,0.0
56,78.0,0.0,120.0,0.0,0.0
57,81.0,0.0,120.0,0.0,0.0
58,38.0,0.0,120.0,0.0,0.0
59,50.0,0.0,120.0,0.0,0.0
60,62.0,0.0,120.0,0.0,0.0
61,50.0,600.0,120.0,0.0,0.0
62,74.0,0.0,120.0,0.0,0.0
63,76.0,0.0,480.0,0.0,0.0
64,79.0,0.0,480.0,0.0,0.0
65,43.0,0.0,480.0,0.0,0.0
66,55.0,0.0,480.0,0.0,0.0
67,78.0,0.0,480.0,0.0,0.0
68,67.0,480.0,15.0,0.0,0.0
69,74.0,0.0,480.0,0.0,0.0
70,62.0,420.0,480.0,0.0,0.0
71,66.0,0.0,480.0,0.0,0.0
72,79.0,0.0,480.0,0.0,0.0
73,55.0,0.0,480.0,0.0,0.0
74,72.0,0.0,420.0,0.0,0.0
75,64.0,0.0,420.0,0.0,0.0
76,60.0,0.0,420.0,0.0,0.0
77,55.0,0.0,420.0,0.0,0.0
78,67.0,540.0,420.0,0.0,0.0
79,76.0,0.0,420.0,0.0,0.0
80,79.0,0.0,420.0,0.0,0.0
81,67.0,0.0,480.0,0.0,0.0
82,79.0,0.0,480.0,0.0,0.0
83,71.0,0.0,480.0,0.0,0.0
84,55.0,0.0,480.0,0.0,0.0
85,50.0,0.0,480.0,0.0,0.0
86,43.0,120.0,480.0,0.0,0.0
87,74.0,0.0,15.0,0.0,0.0
88,38.0,240.0,120.0,0.0,0.0
89,50.0,0.0,120.0,0.0,0.0
90,66.0,0.0,120.0,0.0,0.0
91,78.0,0.0,120.0,0.0,0.0
92,69.0,0.0,120.0,0.0,0.0
93,79.0,0.0,120.0,0.0,0.0
94,43.0,600.0,120.0,0.0,0.0
95,74.0,0.0,120.0,0.0,0.0
96,67.0,0.0,120.0,0.0,0.0
97,71.0,0.0,120.0,0.0,0.0
98,55.0,0.0,120.0,0.0,0.0
99,52.0,120.0,480.0,0.0,0.0
100,83.0,0.0,480.0,0.0,0.0
101,79.0,0.0,480.0,0.0,0.0
102,40.0,0.0,480.0,0.0,0.0
103,71.0,0.0,480.0,0.0,0.0
104,81.0,0.0,120.0,0.0,0.0
105,69.0,0.0,120.0,0.0,0.0
106,72.0,240.0,120.0,0.0,0.0
107,76.0,0.0,15.0,0.0,0.0
108,57.0,0.0,120.0,0.0,0.0
109,45.0,0.0,120.0,0.0,0.0
110,40.0,0.0,120.0,0.0,0.0
111,79.0,0.0,120.0,0.0,0.0
112,52.0,600.0,120.0,0.0,0.0
113,71.0,0.0,120.0,0.0,0.0
114,76.0,0.0,120.0,0.0,0.0
115,67.0,0.0,120.0,0.0,0.0
116,47.0,0.0,480.0,0.0,0.0
117,50.0,0.0,480.0,0.0,0.0
118,54.0,0.0,480.0,0.0,0.0
119,59.0,0.0,480.0,0.0,0.0
120,66.0,0.0,480.0,0.0,0.0
121,78.0,120.0,480.0,0.0,0.0
122,74.0,0.0,480.0,0.0,0.0
123,52.0,0.0,120.0,0.0,0.0
124,40.0,240.0,120.0,0.0,0.0
125,76.0,0.0,120.0,0.0,0.0
126,71.0,0.0,15.0,0.0,0.0
127,64.0,0.0,120.0,0.0,0.0
128,67.0,0.0,120.0,0.0,0.0
129,71.0,0.0,120.0,0.0,0.0
130,74.0,0.0,120.0,0.0,0.0
131,35.0,240.0,120.0,0.0,0.0
132,47.0,0.0,120.0,0.0,0.0
133,62.0,0.0,120.0,0.0,0.0
134,66.0,0.0,120.0,0.0,0.0
135,30.0,0.0,120.0,0.0,0.0
136,42.0,0.0,120.0,0.0,0.0
137,73.0,0.0,120.0,0.0,0.0
138,70.0,240.0,120.0,0.0,0.0
139,61.0,0.0,120.0,0.0,0.0
140,42.0,600.0,120.0,0.0,0.0
141,66.0,0.0,120.0,0.0,0.0
142,54.0,0.0,120.0,0.0,0.0
143,59.0,0.0,480.0,0.0,0.0
144,35.0,0.0,480.0,0.0,0.0
145,70.0,420.0,480.0,0.0,0.0
146,71.0,0.0,15.0,0.0,0.0
147,47.0,480.0,15.0,0.0,0.0
148,58.0,0.0,480.0,0.0,0.0
149,59.0,0.0,480.0,0.0,0.0
150,57.0,540.0,420.0,0.0,0.0
151,47.0,0.0,420.0,0.0,0.0
152,59.0,0.0,420.0,0.0,0.0
153,69.0,0.0,420.0,0.0,0.0
154,71.0,0.0,420.0,0.0,0.0
155,55.0,0.0,480.0,0.0,0.0
156,50.0,120.0,480.0,0.0,0.0
157,79.0,0.0,480.0,0.0,0.0
158,43.0,0.0,480.0,0.0,0.0
159,74.0,0.0,480.0,0.0,0.0
160,83.0,0.0,480.0,0.0,0.0
161,71.0,0.0,480.0,0.0,0.0
162,69.0,0.0,120.0,0.0,0.0
163,78.0,0.0,120.0,0.0,0.0
164,74.0,240.0,120.0,0.0,0.0
165,81.0,0.0,120.0,0.0,0.0
166,50.0,0.0,120.0,0.0,0.0
167,38.0,0.0,120.0,0.0,0.0
168,71.0,0.0,120.0,0.0,0.0
169,55.0,0.0,120.0,0.0,0.0
170,83.0,600.0,120.0,0.0,0.0
171,79.0,0.0,120.0,0.0,0.0
172,74.0,0.0,120.0,0.0,0.0
173,43.0,0.0,120.0,0.0,0.0
174,84.0,0.0,480.0,0.0,0.0
175,79.0,0.0,480.0,0.0,0.0
176,48.0,0.0,480.0,0.0,0.0
177,36.0,120.0,480.0,0.0,0.0
178,72.0,0.0,480.0,0.0,0.0
179,76.0,0.0,480.0,0.0,0.0
180,71.0,0.0,120.0,0.0,0.0
181,74.0,0.0,120.0,0.0,0.0
182,55.0,0.0,120.0,0.0,0.0
183,83.0,0.0,120.0,0.0,0.0
184,43.0,240.0,120.0,0.0,0.0
185,79.0,0.0,120.0,0.0,0.0
186,48.0,0.0,120.0,0.0,0.0
187,36.0,0.0,120.0,0.0,0.0
188,79.0,0.0,120.0,0.0,0.0
189,76.0,600.0,120.0,0.0,0.0
190,81.0,0.0,120.0,0.0,0.0
191,69.0,0.0,120.0,0.0,0.0
192,79.0,0.0,480.0,0.0,0.0
193,43.0,120.0,480.0,0.0,0.0
194,50.0,0.0,480.0,0.0,0.0
195,55.0,0.0,480.0,0.0,0.0
196,71.0,0.0,480.0,0.0,0.0
197,83.0,0.0,480.0,0.0,0.0
198,74.0,0.0,480.0,0.0,0.0
199,81.0,0.0,120.0,0.0,0.0
200,69.0,0.0,120.0,0.0,0.0
201,78.0,0.0,120.0,0.0,0.0
202,72.0,0.0,120.0,0.0,0.0
203,38.0,0.0,120.0,0.0,0.0
204,50.0,240.0,120.0,0.0,0.0
205,79.0,240.0,120.0,0.0,0.0
206,31.0,0.0,120.0,0.0,0.0
207,67.0,0.0,120.0,0.0,0.0
208,71.0,0.0,120.0,0.0,0.0
209,43.0,0.0,120.0,0.0,0.0
210,74.0,0.0,120.0,0.0,0.0
211,81.0,0.0,120.0,0.0,0.0
212,78.0,0.0,120.0,0.0,0.0
213,38.0,240.0,120.0,0.0,0.0
214,50.0,0.0,120.0,0.0,0.0
215,69.0,0.0,120.0,0.0,0.0
216,74.0,0.0,120.0,0.0,0.0
217,62.0,600.0,120.0,0.0,0.0
218,50.0,0.0,120.0,0.0,0.0
219,55.0,0.0,480.0,0.0,0.0
220,43.0,0.0,480.0,0.0,0.0
221,79.0,480.0,480.0,0.0,0.0
222,67.0,0.0,480.0,0.0,0.0
223,41.0,0.0,480.0,0.0,0.0
224,53.0,0.0,480.0,0.0,0.0
225,67.0,0.0,480.0,0.0,0.0
226,79.0,0.0,480.0,0.0,0.0
227,77.0,0.0,480.0,0.0,0.0
228,39.0,0.0,450.0,0.0,0.0
229,75.0,0.0,450.0,0.0,0.0
230,67.0,0.0,450.0,0.0,0.0
231,79.0,0.0,450.0,0.0,0.0
232,43.0,450.0,15.0,0.0,0.0
233,51.0,0.0,450.0,0.0,0.0
234,82.0,0.0,480.0,0.0,0.0
235,91.0,0.0,480.0,0.0,0.0
236,79.0,0.0,480.0,0.0,0.0
237,38.0,0.0,480.0,0.0,0.0
238,86.0,0.0,480.0,0.0,0.0
239,50.0,0.0,480.0,0.0,0.0
240,43.0,0.0,480.0,0.0,0.0
241,90.0,0.0,240.0,0.0,0.0
242,78.0,0.0,240.0,0.0,0.0
243,58.0,240.0,240.0,0.0,0.0
244,46.0,240.0,15.0,0.0,0.0
245,82.0,0.0,240.0,0.0,0.0
246,86.0,0.0,240.0,0.0,0.0
247,55.0,0.0,240.0,0.0,0.0
248,91.0,0.0,240.0,0.0,0.0
249,86.0,0.0,240.0,0.0,0.0
250,43.0,0.0,240.0,0.0,0.0
251,75.0,0.0,480.0,0.0,0.0
252,79.0,480.0,15.0,0.0,0.0
253,87.0,0.0,480.0,0.0,0.0
254,82.0,0.0,15.0,0.0,0.0
255,63.0,0.0,480.0,0.0,0.0
256,55.0,0.0,480.0,0.0,0.0
257,51.0,0.0,480.0,0.0,0.0
258,58.0,240.0,480.0,0.0,0.0
259,79.0,0.0,15.0,0.0,0.0
260,86.0,0.0,240.0,0.0,0.0
261,74.0,0.0,240.0,0.0,0.0
262,43.0,0.0,240.0,0.0,0.0
263,55.0,240.0,240.0,0.0,0.0
264,75.0,0.0,240.0,0.0,0.0
265,79.0,0.0,15.0,0.0,0.0
266,87.0,0.0,240.0,0.0,0.0
267,82.0,0.0,15.0,0.0,0.0
268,39.0,0.0,240.0,0.0,0.0
269,72.0,240.0,480.0,0.0,0.0
270,84.0,0.0,480.0,0.0,0.0
271,51.0,480.0,15.0,0.0,0.0
272,48.0,0.0,480.0,0.0,0.0
273,60.0,0.0,480.0,0.0,0.0
274,79.0,0.0,480.0,0.0,0.0
275,75.0,0.0,480.0,0.0,0.0
276,55.0,0.0,480.0,0.0,0.0
277,39.0,240.0,240.0,0.0,0.0
278,83.0,0.0,240.0,0.0,0.0
279,79.0,0.0,240.0,0.0,0.0
280,75.0,0.0,240.0,0.0,0.0
281,71.0,0.0,240.0,0.0,0.0
282,51.0,0.0,240.0,0.0,0.0
283,36.0,0.0,240.0,0.0,0.0
284,48.0,0.0,240.0,0.0,0.0
285,79.0,0.0,240.0,0.0,0.0
286,84.0,480.0,240.0,0.0,0.0
287,75.0,0.0,240.0,0.0,0.0
288,72.0,0.0,240.0,0.0,0.0
289,43.0,120.0,480.0,0.0,0.0
290,49.0,0.0,480.0,0.0,0.0
291,55.0,0.0,480.0,0.0,0.0
292,70.0,0.0,480.0,0.0,0.0
293,52.0,0.0,480.0,0.0,0.0
294,73.0,0.0,480.0,0.0,0.0
295,76.0,0.0,480.0,0.0,0.0
296,82.0,0.0,480.0,0.0,0.0
297,81.0,120.0,120.0,0.0,0.0
298,26.0,0.0,480.0,0.0,0.0
299,38.0,0.0,480.0,0.0,0.0
300,78.0,120.0,120.0,0.0,0.0
301,74.0,120.0,120.0,0.0,0.0
302,73.0,120.0,120.0,0.0,0.0
303,78.0,120.0,120.0,0.0,0.0
304,74.0,120.0,120.0,0.0,0.0
305,69.0,120.0,120.0,0.0,0.0
306,68.0,120.0,120.0,0.0,0.0
307,38.0,0.0,15.0,0.0,0.0
308,26.0,0.0,15.0,0.0,0.0
309,74.0,120.0,120.0,0.0,0.0
310,69.0,120.0,120.0,0.0,0.0
311,66.0,120.0,120.0,0.0,0.0
312,64.0,0.0,120.0,0.0,0.0
313,62.0,480.0,480.0,0.0,0.0
314,50.0,0.0,480.0,0.0,0.0
315,49.0,0.0,480.0,0.0,0.0
316,50.0,0.0,15.0,0.0,0.0
317,62.0,480.0,15.0,0.0,0.0
318,47.0,480.0,480.0,0.0,0.0
319,45.0,0.0,480.0,0.0,0.0
320,50.0,480.0,480.0,0.0,0.0
321,62.0,0.0,480.0,0.0,0.0
322,61.0,0.0,480.0,0.0,0.0
323,43.0,480.0,480.0,0.0,0.0
324,62.0,0.0,480.0,0.0,0.0
325,59.0,0.0,480.0,0.0,0.0
326,64.0,0.0,480.0,0.0,0.0
327,40.0,0.0,480.0,0.0,0.0
328,50.0,0.0,15.0,0.0,0.0
329,55.0,0.0,480.0,0.0,0.0
330,61.0,600.0,480.0,0.0,0.0
331,57.0,0.0,1920.0,0.0,0.0
332,50.0,0.0,15.0,0.0,0.0
333,66.0,480.0,1920.0,0.0,0.0
334,38.0,0.0,480.0,0.0,0.0
335,93.0,120.0,120.0,0.0,0.0
336,26.0,0.0,480.0,0.0,0.0
337,90.0,120.0,120.0,0.0,0.0
338,86.0,120.0,120.0,0.0,0.0
339,85.0,120.0,120.0,0.0,0.0
340,90.0,120.0,120.0,0.0,0.0
341,26.0,0.0,480.0,0.0,0.0
342,38.0,0.0,480.0,0.0,0.0
343,86.0,120.0,120.0,0.0,0.0
344,81.0,120.0,120.0,0.0,0.0
345,80.0,120.0,120.0,0.0,0.0
346,26.0,0.0,480.0,0.0,0.0
347,38.0,0.0,480.0,0.0,0.0
348,86.0,120.0,120.0,0.0,0.0
349,81.0,120.0,120.0,0.0,0.0
350,78.0,120.0,120.0,0.0,0.0
351,76.0,0.0,120.0,0.0,0.0
352,62.0,0.0,15.0,0.0,0.0
353,59.0,0.0,480.0,0.0,0.0
354,74.0,480.0,15.0,0.0,0.0
355,62.0,0.0,480.0,0.0,0.0
356,74.0,0.0,15.0,0.0,0.0
357,71.0,480.0,15.0,0.0,0.0
358,59.0,0.0,15.0,0.0,0.0
359,55.0,0.0,15.0,0.0,0.0
360,67.0,0.0,15.0,0.0,0.0
361,71.0,0.0,480.0,0.0,0.0
362,64.0,0.0,480.0,0.0,0.0
363,72.0,0.0,480.0,0.0,0.0
364,67.0,480.0,15.0,0.0,0.0
365,60.0,0.0,480.0,0.0,0.0
366,55.0,0.0,15.0,0.0,0.0
367,52.0,0.0,15.0,0.0,0.0
368,76.0,0.0,15.0,0.0,0.0
369,64.0,0.0,480.0,0.0,0.0
370,45.0,0.0,480.0,0.0,0.0
371,48.0,0.0,15.0,0.0,0.0
372,52.0,0.0,15.0,0.0,0.0
373,57.0,600.0,480.0,0.0,0.0
374,69.0,0.0,480.0,0.0,0.0
375,81.0,0.0,480.0,0.0,0.0
376,76.0,0.0,15.0,0.0,0.0
377,72.0,0.0,480.0,0.0,0.0
378,54.0,0.0,1920.0,0.0,0.0
379,51.0,0.0,1920.0,0.0,0.0
380,47.0,0.0,1920.0,0.0,0.0
381,71.0,0.0,1920.0,0.0,0.0
382,66.0,0.0,1920.0,0.0,0.0
383,90.0,120.0,120.0,0.0,0.0
384,35.0,0.0,480.0,0.0,0.0
385,87.0,120.0,120.0,0.0,0.0
386,83.0,120.0,120.0,0.0,0.0
387,82.0,120.0,120.0,0.0,0.0
388,35.0,0.0,480.0,0.0,0.0
389,87.0,120.0,120.0,0.0,0.0
390,83.0,120.0,120.0,0.0,0.0
391,78.0,120.0,120.0,0.0,0.0
392,77.0,120.0,120.0,0.0,0.0
393,35.0,0.0,480.0,0.0,0.0
394,83.0,120.0,120.0,0.0,0.0
395,78.0,120.0,120.0,0.0,0.0
396,75.0,120.0,120.0,0.0,0.0
397,73.0,0.0,120.0,0.0,0.0
398,59.0,0.0,15.0,0.0,0.0
399,71.0,0.0,480.0,0.0,0.0
400,59.0,480.0,15.0,0.0,0.0
401,57.0,0.0,480.0,0.0,0.0
402,69.0,480.0,480.0,0.0,0.0
403,59.0,0.0,15.0,0.0,0.0
404,55.0,480.0,480.0,0.0,0.0
405,71.0,0.0,15.0,0.0,0.0
406,67.0,0.0,480.0,0.0,0.0
407,71.0,0.0,15.0,0.0,0.0
408,66.0,0.0,480.0,0.0,0.0
409,69.0,0.0,480.0,0.0,0.0
410,54.0,480.0,480.0,0.0,0.0
411,57.0,0.0,480.0,0.0,0.0
412,64.0,0.0,480.0,0.0,0.0
413,71.0,0.0,15.0,0.0,0.0
414,59.0,0.0,15.0,0.0,0.0
415,55.0,0.0,480.0,0.0,0.0
416,67.0,0.0,15.0,0.0,0.0
417,57.0,0.0,480.0,0.0,0.0
418,52.0,0.0,15.0,0.0,0.0
419,45.0,0.0,480.0,0.0,0.0
420,73.0,600.0,480.0,0.0,0.0
421,64.0,0.0,480.0,0.0,0.0
422,50.0,0.0,1920.0,0.0,0.0
423,54.0,0.0,1920.0,0.0,0.0
424,57.0,0.0,1920.0,0.0,0.0
425,74.0,480.0,1920.0,0.0,0.0
426,66.0,0.0,1920.0,0.0,0.0
427,93.0,120.0,120.0,0.0,0.0
428,90.0,120.0,120.0,0.0,0.0
429,86.0,120.0,120.0,0.0,0.0
430,85.0,0.0,120.0,0.0,0.0
431,90.0,120.0,120.0,0.0,0.0
432,38.0,120.0,15.0,0.0,0.0
433,26.0,0.0,15.0,0.0,0.0
434,86.0,120.0,120.0,0.0,0.0
435,81.0,120.0,120.0,0.0,0.0
436,80.0,0.0,120.0,0.0,0.0
437,38.0,0.0,15.0,0.0,0.0
438,86.0,120.0,120.0,0.0,0.0
439,26.0,120.0,15.0,0.0,0.0
440,81.0,120.0,120.0,0.0,0.0
441,78.0,120.0,120.0,0.0,0.0
442,76.0,0.0,120.0,0.0,0.0
443,62.0,0.0,15.0,0.0,0.0
444,74.0,480.0,480.0,0.0,0.0
445,74.0,0.0,480.0,0.0,0.0
446,70.0,0.0,15.0,0.0,0.0
447,67.0,0.0,480.0,0.0,0.0
448,58.0,0.0,15.0,0.0,0.0
449,74.0,0.0,480.0,0.0,0.0
450,62.0,480.0,15.0,0.0,0.0
451,79.0,0.0,480.0,0.0,0.0
452,75.0,0.0,480.0,0.0,0.0
453,67.0,0.0,480.0,0.0,0.0
454,63.0,0.0,480.0,0.0,0.0
455,58.0,480.0,15.0,0.0,0.0
456,55.0,0.0,15.0,0.0,0.0
457,70.0,0.0,480.0,0.0,0.0
458,55.0,0.0,15.0,0.0,0.0
459,67.0,0.0,480.0,0.0,0.0
460,79.0,0.0,480.0,0.0,0.0
461,72.0,0.0,480.0,0.0,0.0
462,75.0,0.0,480.0,0.0,0.0
463,60.0,0.0,480.0,0.0,0.0
464,51.0,0.0,15.0,0.0,0.0
465,56.0,0.0,480.0,0.0,0.0
466,51.0,480.0,15.0,0.0,0.0
467,48.0,0.0,15.0,0.0,0.0
468,44.0,0.0,480.0,0.0,0.0
469,75.0,0.0,480.0,0.0,0.0
470,72.0,0.0,480.0,0.0,0.0
471,80.0,720.0,480.0,0.0,0.0
472,84.0,0.0,480.0,0.0,0.0
473,70.0,0.0,960.0,0.0,0.0
474,82.0,0.0,960.0,0.0,0.0
475,75.0,0.0,960.0,0.0,0.0
476,51.0,0.0,960.0,0.0,0.0
477,55.0,0.0,960.0,0.0,0.0
478,58.0,0.0,960.0,0.0,0.0
479,63.0,240.0,960.0,0.0,0.0
480,79.0,0.0,480.0,0.0,0.0
481,91.0,0.0,480.0,0.0,0.0
482,87.0,0.0,480.0,0.0,0.0
483,31.0,0.0,480.0,0.0,0.0
484,34.0,120.0,120.0,0.0,0.0
485,39.0,120.0,120.0,0.0,0.0
486,43.0,0.0,120.0,0.0,0.0
487,86.0,0.0,480.0,0.0,0.0
488,79.0,0.0,15.0,0.0,0.0
489,46.0,240.0,480.0,0.0,0.0
490,51.0,120.0,120.0,0.0,0.0
491,55.0,120.0,120.0,0.0,0.0
492,58.0,0.0,120.0,0.0,0.0
493,91.0,0.0,15.0,0.0,0.0
494,63.0,0.0,480.0,0.0,0.0
495,85.0,360.0,480.0,0.0,0.0
496,79.0,0.0,480.0,0.0,0.0
497,67.0,120.0,120.0,0.0,0.0
498,70.0,120.0,120.0,0.0,0.0
499,75.0,0.0,120.0,0.0,0.0
500,62.0,0.0,360.0,0.0,0.0
501,67.0,0.0,360.0,0.0,0.0
502,71.0,0.0,360.0,0.0,0.0
503,74.0,0.0,360.0,0.0,0.0
504,86.0,240.0,360.0,0.0,0.0
505,91.0,0.0,360.0,0.0,0.0
506,83.0,0.0,360.0,0.0,0.0
507,79.0,0.0,360.0,0.0,0.0
508,78.0,240.0,120.0,0.0,0.0
509,69.0,0.0,120.0,0.0,0.0
510,74.0,0.0,120.0,0.0,0.0
511,81.0,0.0,120.0,0.0,0.0
512,50.0,0.0,120.0,0.0,0.0
513,62.0,0.0,120.0,0.0,0.0
514,74.0,0.0,120.0,0.0,0.0
515,83.0,0.0,120.0,0.0,0.0
516,79.0,0.0,120.0,0.0,0.0
517,71.0,0.0,120.0,0.0,0.0
518,43.0,600.0,120.0,0.0,0.0
519,55.0,0.0,120.0,0.0,0.0
520,84.0,0.0,480.0,0.0,0.0
521,67.0,0.0,480.0,0.0,0.0
522,64.0,0.0,480.0,0.0,0.0
523,60.0,120.0,480.0,0.0,0.0
524,55.0,0.0,480.0,0.0,0.0
525,79.0,0.0,480.0,0.0,0.0
526,72.0,0.0,480.0,0.0,0.0
527,76.0,0.0,480.0,0.0,0.0
528,55.0,0.0,120.0,0.0,0.0
529,71.0,0.0,120.0,0.0,0.0
530,74.0,240.0,120.0,0.0,0.0
531,79.0,0.0,120.0,0.0,0.0
532,83.0,0.0,120.0,0.0,0.0
533,43.0,0.0,120.0,0.0,0.0
534,48.0,600.0,120.0,0.0,0.0
535,36.0,0.0,120.0,0.0,0.0
536,69.0,0.0,120.0,0.0,0.0
537,81.0,0.0,120.0,0.0,0.0
538,79.0,0.0,120.0,0.0,0.0
539,76.0,0.0,120.0,0.0,0.0
540,55.0,120.0,480.0,0.0,0.0
541,74.0,0.0,480.0,0.0,0.0
542,83.0,0.0,480.0,0.0,0.0
543,43.0,0.0,480.0,0.0,0.0
544,71.0,0.0,480.0,0.0,0.0
545,79.0,0.0,480.0,0.0,0.0
546,69.0,0.0,120.0,0.0,0.0
547,72.0,0.0,120.0,0.0,0.0
548,81.0,0.0,120.0,0.0,0.0
549,78.0,240.0,120.0,0.0,0.0
550,50.0,0.0,15.0,0.0,0.0
551,38.0,0.0,120.0,0.0,0.0
552,31.0,240.0,120.0,0.0,0.0
553,43.0,0.0,120.0,0.0,0.0
554,74.0,0.0,120.0,0.0,0.0
555,71.0,0.0,120.0,0.0,0.0
556,67.0,0.0,120.0,0.0,0.0
557,79.0,0.0,120.0,0.0,0.0
558,69.0,0.0,120.0,0.0,0.0
559,81.0,0.0,120.0,0.0,0.0
560,78.0,0.0,120.0,0.0,0.0
561,38.0,240.0,120.0,0.0,0.0
562,50.0,0.0,120.0,0.0,0.0
563,74.0,0.0,120.0,0.0,0.0
564,62.0,600.0,120.0,0.0,0.0
565,50.0,0.0,120.0,0.0,0.0
566,76.0,0.0,480.0,0.0,0.0
567,67.0,0.0,480.0,0.0,0.0
568,43.0,480.0,480.0,0.0,0.0
569,79.0,0.0,480.0,0.0,0.0
570,55.0,0.0,480.0,0.0,0.0
571,67.0,0.0,480.0,0.0,0.0
572,74.0,0.0,480.0,0.0,0.0
573,78.0,0.0,480.0,0.0,0.0
574,79.0,0.0,480.0,0.0,0.0
575,66.0,0.0,480.0,0.0,0.0
576,62.0,0.0,480.0,0.0,0.0
577,72.0,0.0,480.0,0.0,0.0
578,76.0,0.0,480.0,0.0,0.0
579,79.0,0.0,480.0,0.0,0.0
580,64.0,480.0,480.0,0.0,0.0
581,60.0,0.0,480.0,0.0,0.0
582,55.0,480.0,15.0,0.0,0.0
583,67.0,0.0,15.0,0.0,0.0
584,43.0,120.0,480.0,0.0,0.0
585,55.0,0.0,15.0,0.0,0.0
586,50.0,0.0,480.0,0.0,0.0
587,71.0,0.0,480.0,0.0,0.0
588,79.0,0.0,480.0,0.0,0.0
589,74.0,0.0,480.0,0.0,0.0
590,78.0,0.0,120.0,0.0,0.0
591,69.0,0.0,120.0,0.0,0.0
592,74.0,0.0,120.0,0.0,0.0
593,66.0,0.0,120.0,0.0,0.0
594,38.0,0.0,120.0,0.0,0.0
595,50.0,240.0,120.0,0.0,0.0
596,43.0,0.0,120.0,0.0,0.0
597,55.0,600.0,120.0,0.0,0.0
598,67.0,0.0,120.0,0.0,0.0
599,71.0,0.0,120.0,0.0,0.0
600,74.0,0.0,120.0,0.0,0.0
601,79.0,0.0,120.0,0.0,0.0
602,83.0,120.0,480.0,0.0,0.0
603,40.0,0.0,480.0,0.0,0.0
604,52.0,0.0,480.0,0.0,0.0
605,71.0,0.0,480.0,0.0,0.0
606,79.0,0.0,480.0,0.0,0.0
607,76.0,0.0,15.0,0.0,0.0
608,81.0,0.0,120.0,0.0,0.0
609,72.0,240.0,120.0,0.0,0.0
610,69.0,0.0,120.0,0.0,0.0
611,57.0,0.0,120.0,0.0,0.0
612,45.0,0.0,120.0,0.0,0.0
613,76.0,0.0,120.0,0.0,0.0
614,67.0,0.0,120.0,0.0,0.0
615,52.0,600.0,120.0,0.0,0.0
616,40.0,0.0,120.0,0.0,0.0
617,71.0,0.0,120.0,0.0,0.0
618,79.0,0.0,120.0,0.0,0.0
619,78.0,0.0,480.0,0.0,0.0
620,66.0,0.0,480.0,0.0,0.0
621,71.0,0.0,480.0,0.0,0.0
622,74.0,0.0,480.0,0.0,0.0
623,59.0,0.0,480.0,0.0,0.0
624,54.0,120.0,480.0,0.0,0.0
625,47.0,0.0,480.0,0.0,0.0
626,71.0,240.0,120.0,0.0,0.0
627,76.0,0.0,120.0,0.0,0.0
628,67.0,0.0,120.0,0.0,0.0
629,52.0,0.0,120.0,0.0,0.0
630,64.0,0.0,120.0,0.0,0.0
631,40.0,0.0,120.0,0.0,0.0
632,35.0,0.0,120.0,0.0,0.0
633,47.0,240.0,120.0,0.0,0.0
634,71.0,0.0,120.0,0.0,0.0
635,62.0,0.0,120.0,0.0,0.0
636,66.0,0.0,120.0,0.0,0.0
637,74.0,0.0,120.0,0.0,0.0
638,30.0,240.0,120.0,0.0,0.0
639,42.0,0.0,120.0,0.0,0.0
640,61.0,0.0,120.0,0.0,0.0
641,70.0,0.0,120.0,0.0,0.0
642,73.0,0.0,120.0,0.0,0.0
643,42.0,0.0,120.0,0.0,0.0
644,54.0,600.0,120.0,0.0,0.0
645,66.0,0.0,120.0,0.0,0.0
646,71.0,0.0,480.0,0.0,0.0
647,47.0,480.0,480.0,0.0,0.0
648,35.0,0.0,480.0,0.0,0.0
649,71.0,0.0,480.0,0.0,0.0
650,59.0,0.0,15.0,0.0,0.0
651,70.0,0.0,480.0,0.0,0.0
652,58.0,0.0,480.0,0.0,0.0
653,59.0,600.0,360.0,0.0,0.0
654,69.0,0.0,360.0,0.0,0.0
655,71.0,0.0,360.0,0.0,0.0
656,57.0,0.0,360.0,0.0,0.0
657,47.0,360.0,15.0,0.0,0.0
658,43.0,0.0,480.0,0.0,0.0
659,83.0,0.0,480.0,0.0,0.0
660,79.0,0.0,480.0,0.0,0.0
661,71.0,120.0,480.0,0.0,0.0
662,55.0,0.0,480.0,0.0,0.0
663,74.0,0.0,480.0,0.0,0.0
664,69.0,0.0,120.0,0.0,0.0
665,74.0,0.0,120.0,0.0,0.0
666,81.0,0.0,120.0,0.0,0.0
667,38.0,0.0,120.0,0.0,0.0
668,50.0,0.0,15.0,0.0,0.0
669,78.0,0.0,120.0,0.0,0.0
670,43.0,0.0,120.0,0.0,0.0
671,55.0,0.0,120.0,0.0,0.0
672,71.0,0.0,120.0,0.0,0.0
673,74.0,600.0,120.0,0.0,0.0
674,83.0,0.0,120.0,0.0,0.0
675,79.0,0.0,120.0,0.0,0.0
676,36.0,120.0,480.0,0.0,0.0
677,84.0,0.0,480.0,0.0,0.0
678,76.0,0.0,480.0,0.0,0.0
679,72.0,0.0,480.0,0.0,0.0
680,48.0,0.0,480.0,0.0,0.0
681,74.0,240.0,120.0,0.0,0.0
682,71.0,0.0,120.0,0.0,0.0
683,83.0,0.0,120.0,0.0,0.0
684,79.0,0.0,15.0,0.0,0.0
685,43.0,0.0,120.0,0.0,0.0
686,55.0,0.0,120.0,0.0,0.0
687,36.0,0.0,120.0,0.0,0.0
688,76.0,0.0,120.0,0.0,0.0
689,81.0,0.0,120.0,0.0,0.0
690,48.0,0.0,120.0,0.0,0.0
691,69.0,0.0,120.0,0.0,0.0
692,79.0,600.0,120.0,0.0,0.0
693,43.0,120.0,480.0,0.0,0.0
694,55.0,0.0,480.0,0.0,0.0
695,50.0,0.0,480.0,0.0,0.0
696,79.0,0.0,480.0,0.0,0.0
697,71.0,0.0,480.0,0.0,0.0
698,74.0,0.0,480.0,0.0,0.0
699,83.0,0.0,480.0,0.0,0.0
700,78.0,0.0,120.0,0.0,0.0
701,69.0,0.0,120.0,0.0,0.0
702,72.0,0.0,120.0,0.0,0.0
703,81.0,0.0,120.0,0.0,0.0
704,38.0,0.0,120.0,0.0,0.0
705,50.0,240.0,120.0,0.0,0.0
706,55.0,240.0,120.0,0.0,0.0
707,43.0,0.0,120.0,0.0,0.0
708,74.0,0.0,120.0,0.0,0.0
709,71.0,0.0,120.0,0.0,0.0
710,67.0,0.0,120.0,0.0,0.0
711,79.0,0.0,120.0,0.0,0.0
712,69.0,0.0,120.0,0.0,0.0
713,78.0,0.0,120.0,0.0,0.0
714,81.0,0.0,120.0,0.0,0.0
715,38.0,0.0,120.0,0.0,0.0
716,50.0,240.0,120.0,0.0,0.0
717,74.0,0.0,120.0,0.0,0.0
718,62.0,600.0,120.0,0.0,0.0
719,50.0,0.0,120.0,0.0,0.0
720,43.0,0.0,480.0,0.0,0.0
721,55.0,480.0,480.0,0.0,0.0
722,79.0,0.0,15.0,0.0,0.0
723,67.0,0.0,15.0,0.0,0.0
724,78.0,0.0,480.0,0.0,0.0
725,43.0,0.0,480.0,0.0,0.0
726,54.0,0.0,480.0,0.0,0.0
727,42.0,0.0,480.0,0.0,0.0
728,79.0,480.0,15.0,0.0,0.0
729,67.0,0.0,480.0,0.0,0.0
730,76.0,0.0,480.0,0.0,0.0
731,40.0,0.0,480.0,0.0,0.0
732,43.0,0.0,480.0,0.0,0.0
733,52.0,0.0,480.0,0.0,0.0
734,35.0,0.0,480.0,0.0,0.0
735,40.0,0.0,480.0,0.0,0.0
736,43.0,0.0,480.0,0.0,0.0
737,47.0,0.0,480.0,0.0,0.0
738,95.0,0.0,480.0,0.0,0.0
739,91.0,120.0,480.0,0.0,0.0
740,88.0,0.0,480.0,0.0,0.0
741,83.0,0.0,480.0,0.0,0.0
742,43.0,0.0,120.0,0.0,0.0
743,55.0,0.0,120.0,0.0,0.0
744,78.0,240.0,120.0,0.0,0.0
745,87.0,0.0,120.0,0.0,0.0
746,90.0,0.0,120.0,0.0,0.0
747,79.0,0.0,120.0,0.0,0.0
748,88.0,0.0,120.0,0.0,0.0
749,91.0,0.0,120.0,0.0,0.0
750,52.0,0.0,120.0,0.0,0.0
751,40.0,600.0,120.0,0.0,0.0
752,60.0,0.0,480.0,0.0,0.0
753,48.0,0.0,480.0,0.0,0.0
754,87.0,0.0,480.0,0.0,0.0
755,84.0,0.0,480.0,0.0,0.0
756,75.0,120.0,480.0,0.0,0.0
757,79.0,0.0,480.0,0.0,0.0
758,55.0,0.0,480.0,0.0,0.0
759,40.0,240.0,120.0,0.0,0.0
760,52.0,0.0,120.0,0.0,0.0
761,84.0,0.0,120.0,0.0,0.0
762,88.0,0.0,120.0,0.0,0.0
763,76.0,0.0,120.0,0.0,0.0
764,79.0,0.0,120.0,0.0,0.0
765,36.0,0.0,120.0,0.0,0.0
766,48.0,600.0,120.0,0.0,0.0
767,71.0,0.0,120.0,0.0,0.0
768,80.0,0.0,120.0,0.0,0.0
769,83.0,0.0,120.0,0.0,0.0
770,84.0,0.0,480.0,0.0,0.0
771,57.0,0.0,480.0,0.0,0.0
772,52.0,0.0,480.0,0.0,0.0
773,81.0,0.0,480.0,0.0,0.0
774,45.0,0.0,480.0,0.0,0.0
775,76.0,240.0,480.0,0.0,0.0
776,72.0,0.0,480.0,0.0,0.0
777,48.0,0.0,480.0,0.0,0.0
778,36.0,240.0,240.0,0.0,0.0
779,48.0,0.0,240.0,0.0,0.0
780,67.0,0.0,240.0,0.0,0.0
781,80.0,0.0,240.0,0.0,0.0
782,77.0,0.0,240.0,0.0,0.0
783,69.0,0.0,240.0,0.0,0.0
784,81.0,0.0,240.0,0.0,0.0
785,78.0,480.0,240.0,0.0,0.0
786,45.0,0.0,240.0,0.0,0.0
787,33.0,0.0,240.0,0.0,0.0
788,79.0,120.0,600.0,0.0,0.0
789,64.0,0.0,480.0,0.0,0.0
790,61.0,120.0,480.0,0.0,0.0
791,58.0,0.0,480.0,0.0,0.0
792,55.0,0.0,480.0,0.0,0.0
793,52.0,0.0,480.0,0.0,0.0
794,73.0,0.0,960.0,0.0,0.0
795,47.0,0.0,240.0,0.0,0.0
796,35.0,120.0,240.0,0.0,0.0
797,78.0,0.0,120.0,0.0,0.0
798,76.0,120.0,120.0,0.0,0.0
799,75.0,180.0,120.0,0.0,0.0
800,35.0,480.0,180.0,0.0,0.0
801,76.0,0.0,180.0,0.0,0.0
802,67.0,0.0,15.0,0.0,0.0
803,70.0,0.0,15.0,0.0,0.0
804,47.0,0.0,180.0,0.0,0.0
805,64.0,0.0,180.0,0.0,0.0
806,35.0,1260.0,180.0,0.0,0.0
807,47.0,0.0,180.0,0.0,0.0
808,63.0,0.0,180.0,0.0,0.0
809,71.0,0.0,180.0,0.0,0.0
810,66.0,0.0,180.0,0.0,0.0
811,52.0,960.0,960.0,0.0,0.0
812,36.0,0.0,1920.0,0.0,0.0
813,40.0,1920.0,1920.0,0.0,0.0
814,48.0,0.0,1920.0,0.0,0.0
815,66.0,0.0,960.0,0.0,0.0
816,54.0,0.0,960.0,0.0,0.0
817,64.0,0.0,15.0,0.0,0.0
818,67.0,0.0,1920.0,0.0,0.0
819,76.0,0.0,1920.0,0.0,0.0
820,79.0,0.0,1920.0,0.0,0.0
821,60.0,0.0,1920.0,0.0,0.0
822,55.0,160.0,15.0,0.0,0.0
823,40.0,0.0,480.0,0.0,0.0
824,52.0,0.0,150.0,0.0,0.0
825,64.0,160.0,150.0,0.0,0.0
826,47.0,160.0,150.0,0.0,0.0
827,59.0,0.0,150.0,0.0,0.0
828,52.0,480.0,150.0,0.0,0.0
829,55.0,0.0,150.0,0.0,0.0
830,64.0,0.0,150.0,0.0,0.0
831,59.0,0.0,480.0,0.0,0.0
832,47.0,0.0,480.0,0.0,0.0
833,54.0,0.0,480.0,0.0,0.0
834,66.0,0.0,480.0,0.0,0.0
835,67.0,0.0,150.0,0.0,0.0
836,55.0,0.0,150.0,0.0,0.0
837,52.0,160.0,150.0,0.0,0.0
838,40.0,160.0,15.0,0.0,0.0
839,59.0,0.0,150.0,0.0,0.0
840,47.0,160.0,150.0,0.0,0.0
841,55.0,0.0,150.0,0.0,0.0
842,67.0,0.0,150.0,0.0,0.0
843,52.0,480.0,150.0,0.0,0.0
844,54.0,0.0,480.0,0.0,0.0
845,47.0,0.0,480.0,0.0,0.0
846,66.0,0.0,480.0,0.0,0.0
847,40.0,160.0,15.0,0.0,0.0
848,71.0,0.0,150.0,0.0,0.0
849,59.0,0.0,15.0,0.0,0.0
850,55.0,160.0,150.0,0.0,0.0
851,67.0,0.0,150.0,0.0,0.0
852,47.0,160.0,150.0,0.0,0.0
853,69.0,0.0,150.0,0.0,0.0
854,57.0,0.0,150.0,0.0,0.0
855,54.0,0.0,150.0,0.0,0.0
856,66.0,160.0,480.0,0.0,0.0
857,40.0,480.0,15.0,0.0,0.0
858,47.0,0.0,480.0,0.0,0.0
859,52.0,0.0,150.0,0.0,0.0
860,40.0,0.0,15.0,0.0,0.0
861,55.0,160.0,150.0,0.0,0.0
862,64.0,0.0,150.0,0.0,0.0
863,47.0,0.0,150.0,0.0,0.0
864,59.0,160.0,150.0,0.0,0.0
865,50.0,0.0,150.0,0.0,0.0
866,53.0,0.0,150.0,0.0,0.0
867,65.0,0.0,150.0,0.0,0.0
868,40.0,480.0,15.0,0.0,0.0
869,62.0,160.0,480.0,0.0,0.0
870,47.0,0.0,480.0,0.0,0.0
871,76.0,0.0,150.0,0.0,0.0
872,64.0,8.0,150.0,0.0,0.0
873,48.0,152.0,150.0,0.0,0.0
874,72.0,0.0,150.0,0.0,0.0
875,52.0,160.0,150.0,0.0,0.0
876,40.0,0.0,15.0,0.0,0.0
877,74.0,0.0,150.0,0.0,0.0
878,62.0,0.0,150.0,0.0,0.0
879,47.0,476.0,150.0,0.0,0.0
880,50.0,4.0,480.0,0.0,0.0
881,71.0,0.0,480.0,0.0,0.0
882,76.0,160.0,150.0,0.0,0.0
883,48.0,0.0,150.0,0.0,0.0
884,40.0,160.0,15.0,0.0,0.0
885,64.0,0.0,150.0,0.0,0.0
886,72.0,160.0,150.0,0.0,0.0
887,52.0,0.0,150.0,0.0,0.0
888,74.0,0.0,150.0,0.0,0.0
889,40.0,0.0,15.0,0.0,0.0
890,47.0,160.0,150.0,0.0,0.0
891,62.0,0.0,150.0,0.0,0.0
892,71.0,0.0,150.0,0.0,0.0
893,50.0,0.0,150.0,0.0,0.0
894,72.0,0.0,150.0,0.0,0.0
895,45.0,160.0,150.0,0.0,0.0
896,60.0,0.0,150.0,0.0,0.0
897,69.0,0.0,150.0,0.0,0.0
898,48.0,160.0,150.0,0.0,0.0
899,58.0,4.0,150.0,0.0,0.0
900,70.0,0.0,150.0,0.0,0.0
901,40.0,0.0,15.0,0.0,0.0
902,43.0,156.0,150.0,0.0,0.0
903,48.0,160.0,150.0,0.0,0.0
904,67.0,0.0,150.0,0.0,0.0
905,58.0,4.0,150.0,0.0,0.0
906,70.0,0.0,150.0,0.0,0.0
907,43.0,476.0,150.0,0.0,0.0
908,47.0,160.0,480.0,0.0,0.0
909,35.0,0.0,480.0,0.0,0.0
910,71.0,0.0,480.0,0.0,0.0
911,66.0,0.0,480.0,0.0,0.0
912,59.0,0.0,480.0,0.0,0.0
913,40.0,0.0,480.0,0.0,0.0
914,73.0,4.0,150.0,0.0,0.0
915,43.0,0.0,150.0,0.0,0.0
916,61.0,156.0,150.0,0.0,0.0
917,49.0,0.0,150.0,0.0,0.0
918,67.0,160.0,150.0,0.0,0.0
919,43.0,0.0,150.0,0.0,0.0
920,73.0,4.0,150.0,0.0,0.0
921,61.0,476.0,150.0,0.0,0.0
922,66.0,0.0,480.0,0.0,0.0
923,35.0,160.0,480.0,0.0,0.0
924,47.0,0.0,480.0,0.0,0.0
925,71.0,0.0,480.0,0.0,0.0
926,59.0,0.0,480.0,0.0,0.0
927,56.0,0.0,150.0,0.0,0.0
928,64.0,160.0,150.0,0.0,0.0
929,76.0,0.0,150.0,0.0,0.0
930,40.0,0.0,480.0,0.0,0.0
931,47.0,160.0,150.0,0.0,0.0
932,71.0,0.0,150.0,0.0,0.0
933,56.0,0.0,150.0,0.0,0.0
934,76.0,480.0,150.0,0.0,0.0
935,64.0,0.0,150.0,0.0,0.0
936,54.0,0.0,480.0,0.0,0.0
937,47.0,0.0,480.0,0.0,0.0
938,59.0,0.0,480.0,0.0,0.0
939,66.0,160.0,480.0,0.0,0.0
940,71.0,0.0,480.0,0.0,0.0
941,78.0,0.0,480.0,0.0,0.0
942,52.0,0.0,15.0,0.0,0.0
943,40.0,0.0,480.0,0.0,0.0
944,80.0,160.0,150.0,0.0,0.0
945,68.0,0.0,150.0,0.0,0.0
946,47.0,0.0,150.0,0.0,0.0
947,71.0,160.0,150.0,0.0,0.0
948,52.0,0.0,150.0,0.0,0.0
949,68.0,480.0,150.0,0.0,0.0
950,80.0,0.0,150.0,0.0,0.0
951,59.0,0.0,480.0,0.0,0.0
952,47.0,0.0,480.0,0.0,0.0
953,78.0,0.0,480.0,0.0,0.0
954,71.0,0.0,480.0,0.0,0.0
955,66.0,160.0,480.0,0.0,0.0
956,54.0,0.0,480.0,0.0,0.0
957,52.0,0.0,480.0,0.0,0.0
958,83.0,160.0,150.0,0.0,0.0
959,71.0,0.0,150.0,0.0,0.0
960,40.0,0.0,480.0,0.0,0.0
961,56.0,0.0,150.0,0.0,0.0
962,47.0,0.0,150.0,0.0,0.0
963,80.0,160.0,150.0,0.0,0.0
964,81.0,480.0,150.0,0.0,0.0
965,69.0,0.0,150.0,0.0,0.0
966,54.0,0.0,150.0,0.0,0.0
967,47.0,0.0,480.0,0.0,0.0
968,54.0,160.0,480.0,0.0,0.0
969,66.0,0.0,480.0,0.0,0.0
970,78.0,0.0,480.0,0.0,0.0
971,71.0,0.0,480.0,0.0,0.0
972,59.0,0.0,480.0,0.0,0.0
973,52.0,0.0,15.0,0.0,0.0
974,40.0,0.0,480.0,0.0,0.0
975,68.0,0.0,150.0,0.0,0.0
976,80.0,0.0,150.0,0.0,0.0
977,47.0,0.0,150.0,0.0,0.0
978,76.0,160.0,150.0,0.0,0.0
979,78.0,0.0,150.0,0.0,0.0
980,50.0,0.0,150.0,0.0,0.0
981,66.0,480.0,150.0,0.0,0.0
982,59.0,0.0,480.0,0.0,0.0
983,52.0,0.0,480.0,0.0,0.0
984,47.0,160.0,480.0,0.0,0.0
985,74.0,0.0,480.0,0.0,0.0
986,68.0,0.0,480.0,0.0,0.0
987,62.0,0.0,480.0,0.0,0.0
988,40.0,0.0,150.0,0.0,0.0
989,76.0,0.0,150.0,0.0,0.0
990,88.0,0.0,150.0,0.0,0.0
991,45.0,0.0,150.0,0.0,0.0
992,49.0,80.0,150.0,0.0,0.0
993,85.0,200.0,90.0,0.0,0.0
994,81.0,0.0,90.0,0.0,0.0
995,52.0,0.0,90.0,0.0,0.0
996,56.0,0.0,630.0,0.0,0.0
997,52.0,160.0,630.0,0.0,0.0
998,88.0,0.0,120.0,0.0,0.0
999,76.0,520.0,120.0,0.0,0.0
1000,59.0,0.0,630.0,0.0,0.0
1001,64.0,0.0,480.0,0.0,0.0
1002,80.0,0.0,480.0,0.0,0.0
1003,83.0,0.0,480.0,0.0,0.0
1004,85.0,80.0,150.0,0.0,0.0
1005,73.0,0.0,150.0,0.0,0.0
1006,45.0,0.0,150.0,0.0,0.0
1007,49.0,0.0,150.0,0.0,0.0
1008,42.0,0.0,150.0,0.0,0.0
1009,54.0,0.0,90.0,0.0,0.0
1010,81.0,160.0,90.0,0.0,0.0
1011,78.0,0.0,90.0,0.0,0.0
1012,85.0,0.0,90.0,0.0,0.0
1013,56.0,0.0,630.0,0.0,0.0
1014,49.0,0.0,630.0,0.0,0.0
1015,52.0,0.0,630.0,0.0,0.0
1016,73.0,560.0,90.0,0.0,0.0
1017,61.0,0.0,480.0,0.0,0.0
1018,76.0,160.0,480.0,0.0,0.0
1019,80.0,0.0,480.0,0.0,0.0
1020,35.0,160.0,150.0,0.0,0.0
1021,71.0,0.0,150.0,0.0,0.0
1022,83.0,0.0,150.0,0.0,0.0
1023,76.0,0.0,150.0,0.0,0.0
1024,47.0,160.0,150.0,0.0,0.0
1025,80.0,0.0,150.0,0.0,0.0
1026,52.0,0.0,150.0,0.0,0.0
1027,83.0,0.0,150.0,0.0,0.0
1028,71.0,160.0,150.0,0.0,0.0
1029,56.0,0.0,150.0,0.0,0.0
1030,47.0,0.0,150.0,0.0,0.0
1031,59.0,0.0,150.0,0.0,0.0
1032,81.0,0.0,150.0,0.0,0.0
1033,78.0,160.0,150.0,0.0,0.0
1034,54.0,0.0,150.0,0.0,0.0
1035,57.0,0.0,150.0,0.0,0.0
1036,83.0,0.0,150.0,0.0,0.0
1037,71.0,160.0,150.0,0.0,0.0
1038,59.0,0.0,150.0,0.0,0.0
1039,47.0,0.0,150.0,0.0,0.0
1040,80.0,0.0,150.0,0.0,0.0
1041,76.0,160.0,150.0,0.0,0.0
1042,56.0,0.0,150.0,0.0,0.0
1043,52.0,0.0,150.0,0.0,0.0
1044,83.0,0.0,150.0,0.0,0.0
1045,71.0,160.0,150.0,0.0,0.0
1046,73.0,0.0,150.0,0.0,0.0
1047,76.0,0.0,150.0,0.0,0.0
1048,59.0,160.0,150.0,0.0,0.0
1049,47.0,0.0,150.0,0.0,0.0
1050,49.0,0.0,150.0,0.0,0.0
1051,52.0,0.0,150.0,0.0,0.0
1052,51.0,0.0,480.0,0.0,0.0
1053,47.0,0.0,480.0,0.0,0.0
1054,59.0,0.0,480.0,0.0,0.0
1055,54.0,160.0,480.0,0.0,0.0
1056,78.0,0.0,480.0,0.0,0.0
1057,71.0,480.0,15.0,0.0,0.0
1058,75.0,0.0,480.0,0.0,0.0
1059,83.0,0.0,15.0,0.0,0.0
1060,40.0,0.0,150.0,0.0,0.0
1061,88.0,0.0,150.0,0.0,0.0
1062,76.0,160.0,150.0,0.0,0.0
1063,52.0,160.0,150.0,0.0,0.0
1064,83.0,0.0,150.0,0.0,0.0
1065,87.0,0.0,150.0,0.0,0.0
1066,57.0,0.0,480.0,0.0,0.0
1067,61.0,0.0,480.0,0.0,0.0
1068,88.0,160.0,150.0,0.0,0.0
1069,76.0,0.0,150.0,0.0,0.0
1070,52.0,0.0,480.0,0.0,0.0
1071,81.0,0.0,150.0,0.0,0.0
1072,85.0,160.0,150.0,0.0,0.0
1073,64.0,0.0,480.0,0.0,0.0
1074,88.0,160.0,150.0,0.0,0.0
1075,76.0,0.0,150.0,0.0,0.0
1076,59.0,0.0,150.0,0.0,0.0
1077,56.0,0.0,150.0,0.0,0.0
1078,80.0,0.0,150.0,0.0,0.0
1079,83.0,160.0,150.0,0.0,0.0
1080,85.0,160.0,150.0,0.0,0.0
1081,37.0,0.0,150.0,0.0,0.0
1082,73.0,0.0,150.0,0.0,0.0
1083,80.0,0.0,150.0,0.0,0.0
1084,83.0,0.0,150.0,0.0,0.0
1085,49.0,160.0,150.0,0.0,0.0
1086,54.0,0.0,480.0,0.0,0.0
1087,57.0,0.0,480.0,0.0,0.0
1088,73.0,160.0,150.0,0.0,0.0
1089,85.0,0.0,150.0,0.0,0.0
1090,49.0,160.0,480.0,0.0,0.0
1091,61.0,0.0,480.0,0.0,0.0
1092,78.0,0.0,150.0,0.0,0.0
1093,81.0,160.0,150.0,0.0,0.0
1094,85.0,0.0,150.0,0.0,0.0
1095,73.0,160.0,150.0,0.0,0.0
1096,76.0,0.0,150.0,0.0,0.0
1097,52.0,0.0,150.0,0.0,0.0
1098,56.0,0.0,150.0,0.0,0.0
1099,80.0,0.0,150.0,0.0,0.0
1100,35.0,0.0,150.0,0.0,0.0
1101,83.0,0.0,150.0,0.0,0.0
1102,71.0,160.0,150.0,0.0,0.0
1103,78.0,0.0,150.0,0.0,0.0
1104,81.0,0.0,150.0,0.0,0.0
1105,47.0,160.0,150.0,0.0,0.0
1106,71.0,0.0,150.0,0.0,0.0
1107,83.0,160.0,150.0,0.0,0.0
1108,56.0,0.0,150.0,0.0,0.0
1109,52.0,0.0,150.0,0.0,0.0
1110,47.0,0.0,150.0,0.0,0.0
1111,59.0,0.0,150.0,0.0,0.0
1112,76.0,160.0,150.0,0.0,0.0
1113,80.0,0.0,150.0,0.0,0.0
1114,52.0,160.0,150.0,0.0,0.0
1115,49.0,0.0,150.0,0.0,0.0
1116,83.0,0.0,150.0,0.0,0.0
1117,71.0,0.0,150.0,0.0,0.0
1118,59.0,480.0,150.0,0.0,0.0
1119,73.0,0.0,150.0,0.0,0.0
1120,76.0,0.0,150.0,0.0,0.0
1121,47.0,0.0,15.0,0.0,0.0
1122,42.0,0.0,480.0,0.0,0.0
1123,39.0,0.0,480.0,0.0,0.0
1124,35.0,0.0,480.0,0.0,0.0
1125,78.0,0.0,480.0,0.0,0.0
1126,75.0,0.0,480.0,0.0,0.0
1127,71.0,0.0,480.0,0.0,0.0
1128,83.0,180.0,480.0,0.0,0.0
1129,40.0,0.0,180.0,0.0,0.0
1130,52.0,60.0,180.0,0.0,0.0
1131,64.0,180.0,240.0,0.0,0.0
1132,76.0,0.0,240.0,0.0,0.0
1133,50.0,1020.0,180.0,0.0,0.0
1134,38.0,0.0,180.0,0.0,0.0
1135,52.0,960.0,960.0,0.0,0.0
1136,64.0,0.0,1920.0,0.0,0.0
1137,36.0,0.0,1920.0,0.0,0.0
1138,40.0,0.0,1920.0,0.0,0.0
1139,48.0,1920.0,1920.0,0.0,0.0
1140,66.0,0.0,960.0,0.0,0.0
1141,54.0,0.0,960.0,0.0,0.0
1142,76.0,480.0,1920.0,0.0,0.0
1143,55.0,0.0,1920.0,0.0,0.0
1144,60.0,0.0,1920.0,0.0,0.0
1145,79.0,0.0,1920.0,0.0,0.0
1146,64.0,0.0,1920.0,0.0,0.0
1147,67.0,0.0,1920.0,0.0,0.0
1148,36.0,0.0,960.0,0.0,0.0
1149,40.0,0.0,960.0,0.0,0.0
1150,64.0,480.0,960.0,0.0,0.0
1151,52.0,480.0,480.0,0.0,0.0
1152,66.0,0.0,480.0,0.0,0.0
1153,54.0,0.0,480.0,0.0,0.0
1154,57.0,0.0,480.0,0.0,0.0
1155,52.0,0.0,960.0,0.0,0.0
1156,48.0,0.0,15.0,0.0,0.0
1157,69.0,0.0,480.0,0.0,0.0
1158,76.0,0.0,960.0,0.0,0.0
1159,81.0,480.0,480.0,0.0,0.0
1160,80.0,1920.0,480.0,0.0,0.0
1161,68.0,0.0,480.0,0.0,0.0
1162,56.0,0.0,480.0,0.0,0.0
1163,55.0,0.0,1920.0,0.0,0.0
1164,91.0,0.0,1920.0,0.0,0.0
1165,79.0,0.0,1920.0,0.0,0.0
1166,88.0,0.0,1920.0,0.0,0.0
1167,60.0,0.0,1920.0,0.0,0.0
1168,64.0,120.0,120.0,0.0,0.0
1169,36.0,0.0,240.0,0.0,0.0
1170,67.0,0.0,90.0,0.0,0.0
1171,72.0,0.0,270.0,0.0,0.0
1172,76.0,0.0,240.0,0.0,0.0
1173,48.0,120.0,120.0,0.0,0.0
1174,77.0,240.0,120.0,0.0,0.0
1175,52.0,0.0,120.0,0.0,0.0
1176,64.0,0.0,360.0,0.0,0.0
1177,67.0,0.0,330.0,0.0,0.0
1178,48.0,0.0,180.0,0.0,0.0
1179,72.0,0.0,300.0,0.0,0.0
1180,76.0,0.0,270.0,0.0,0.0
1181,60.0,120.0,120.0,0.0,0.0
1182,78.0,120.0,240.0,0.0,0.0
1183,79.0,0.0,120.0,0.0,0.0
1184,64.0,240.0,120.0,0.0,0.0
1185,60.0,0.0,180.0,0.0,0.0
1186,84.0,120.0,300.0,0.0,0.0
1187,72.0,0.0,120.0,0.0,0.0
1188,88.0,0.0,120.0,0.0,0.0
1189,83.0,0.0,120.0,0.0,0.0
1190,64.0,240.0,120.0,0.0,0.0
1191,72.0,0.0,240.0,0.0,0.0
1192,84.0,0.0,210.0,0.0,0.0
1193,48.0,0.0,180.0,0.0,0.0
1194,81.0,120.0,270.0,0.0,0.0
1195,88.0,0.0,120.0,0.0,0.0
1196,60.0,120.0,120.0,0.0,0.0
1197,52.0,0.0,120.0,0.0,0.0
1198,80.0,240.0,120.0,0.0,0.0
1199,72.0,0.0,240.0,0.0,0.0
1200,84.0,240.0,180.0,0.0,0.0
1201,36.0,0.0,180.0,0.0,0.0
1202,79.0,120.0,960.0,0.0,0.0
1203,88.0,0.0,120.0,0.0,0.0
1204,48.0,0.0,120.0,0.0,0.0
1205,52.0,240.0,120.0,0.0,0.0
1206,72.0,0.0,240.0,0.0,0.0
1207,84.0,0.0,180.0,0.0,0.0
1208,48.0,240.0,180.0,0.0,0.0
1209,88.0,0.0,120.0,0.0,0.0
1210,60.0,0.0,120.0,0.0,0.0
1211,64.0,120.0,120.0,0.0,0.0
1212,86.0,0.0,360.0,0.0,0.0
1213,60.0,120.0,180.0,0.0,0.0
1214,83.0,120.0,300.0,0.0,0.0
1215,77.0,0.0,240.0,0.0,0.0
1216,67.0,0.0,120.0,0.0,0.0
1217,76.0,0.0,120.0,0.0,0.0
1218,71.0,240.0,120.0,0.0,0.0
1219,83.0,120.0,360.0,0.0,0.0
1220,79.0,0.0,300.0,0.0,0.0
1221,60.0,120.0,180.0,0.0,0.0
1222,74.0,0.0,240.0,0.0,0.0
1223,65.0,0.0,120.0,0.0,0.0
1224,76.0,240.0,120.0,0.0,0.0
1225,67.0,0.0,120.0,0.0,0.0
1226,84.0,0.0,360.0,0.0,0.0
1227,81.0,0.0,300.0,0.0,0.0
1228,60.0,120.0,180.0,0.0,0.0
1229,69.0,0.0,120.0,0.0,0.0
1230,77.0,120.0,240.0,0.0,0.0
1231,76.0,0.0,120.0,0.0,0.0
1232,72.0,240.0,120.0,0.0,0.0
1233,81.0,120.0,360.0,0.0,0.0
1234,60.0,120.0,180.0,0.0,0.0
1235,77.0,0.0,300.0,0.0,0.0
1236,65.0,0.0,120.0,0.0,0.0
1237,74.0,0.0,240.0,0.0,0.0
1238,69.0,0.0,120.0,0.0,0.0
1239,72.0,240.0,120.0,0.0,0.0
1240,79.0,0.0,360.0,0.0,0.0
1241,48.0,120.0,180.0,0.0,0.0
1242,74.0,120.0,300.0,0.0,0.0
1243,71.0,0.0,240.0,0.0,0.0
1244,53.0,0.0,120.0,0.0,0.0
1245,69.0,0.0,120.0,0.0,0.0
1246,55.0,240.0,120.0,0.0,0.0
1247,77.0,120.0,360.0,0.0,0.0
1248,48.0,0.0,240.0,0.0,0.0
1249,74.0,0.0,300.0,0.0,0.0
1250,55.0,0.0,180.0,0.0,0.0
1251,59.0,120.0,120.0,0.0,0.0
1252,67.0,0.0,240.0,0.0,0.0
1253,69.0,0.0,120.0,0.0,0.0
1254,60.0,240.0,120.0,0.0,0.0
1255,48.0,0.0,240.0,0.0,0.0
1256,79.0,0.0,360.0,0.0,0.0
1257,55.0,0.0,180.0,0.0,0.0
1258,77.0,0.0,300.0,0.0,0.0
1259,62.0,120.0,120.0,0.0,0.0
1260,71.0,120.0,240.0,0.0,0.0
1261,74.0,240.0,120.0,0.0,0.0
1262,65.0,0.0,120.0,0.0,0.0
1263,79.0,120.0,360.0,0.0,0.0
1264,48.0,0.0,240.0,0.0,0.0
1265,55.0,0.0,180.0,0.0,0.0
1266,77.0,0.0,300.0,0.0,0.0
1267,60.0,120.0,120.0,0.0,0.0
1268,69.0,0.0,240.0,0.0,0.0
1269,64.0,240.0,120.0,0.0,0.0
1270,72.0,0.0,120.0,0.0,0.0
1271,79.0,120.0,360.0,0.0,0.0
1272,48.0,0.0,240.0,0.0,0.0
1273,55.0,0.0,180.0,0.0,0.0
1274,76.0,0.0,300.0,0.0,0.0
1275,59.0,120.0,120.0,0.0,0.0
1276,67.0,0.0,240.0,0.0,0.0
1277,62.0,240.0,120.0,0.0,0.0
1278,71.0,0.0,120.0,0.0,0.0
1279,48.0,0.0,240.0,0.0,0.0
1280,79.0,0.0,360.0,0.0,0.0
1281,74.0,0.0,300.0,0.0,0.0
1282,55.0,120.0,180.0,0.0,0.0
1283,65.0,120.0,240.0,0.0,0.0
1284,60.0,0.0,120.0,0.0,0.0
1285,59.0,0.0,120.0,0.0,0.0
1286,69.0,240.0,120.0,0.0,0.0
1287,48.0,0.0,180.0,0.0,0.0
1288,60.0,60.0,120.0,0.0,0.0
1289,64.0,120.0,240.0,0.0,0.0
1290,72.0,60.0,120.0,0.0,0.0
1291,76.0,0.0,120.0,0.0,0.0
1292,52.0,120.0,120.0,0.0,0.0
1293,65.0,120.0,240.0,0.0,0.0
1294,36.0,60.0,180.0,0.0,0.0
1295,66.0,120.0,240.0,0.0,0.0
1296,48.0,0.0,120.0,0.0,0.0
1297,72.0,60.0,120.0,0.0,0.0
1298,76.0,0.0,120.0,0.0,0.0
1299,67.0,60.0,240.0,0.0,0.0
1300,52.0,120.0,120.0,0.0,0.0
1301,64.0,60.0,120.0,0.0,0.0
1302,48.0,60.0,180.0,0.0,0.0
1303,60.0,0.0,120.0,0.0,0.0
1304,76.0,120.0,240.0,0.0,0.0
1305,79.0,60.0,120.0,0.0,0.0
1306,52.0,120.0,120.0,0.0,0.0
1307,72.0,120.0,240.0,0.0,0.0
1308,36.0,60.0,180.0,0.0,0.0
1309,69.0,0.0,240.0,0.0,0.0
1310,48.0,0.0,120.0,0.0,0.0
1311,76.0,60.0,120.0,0.0,0.0
1312,79.0,120.0,120.0,0.0,0.0
1313,52.0,120.0,120.0,0.0,0.0
1314,70.0,120.0,240.0,0.0,0.0
1315,35.0,60.0,180.0,0.0,0.0
1316,47.0,0.0,120.0,0.0,0.0
1317,71.0,120.0,960.0,0.0,0.0
1318,76.0,60.0,120.0,0.0,0.0
1319,79.0,120.0,120.0,0.0,0.0
1320,52.0,240.0,120.0,0.0,0.0
1321,47.0,0.0,180.0,0.0,0.0
1322,76.0,0.0,120.0,0.0,0.0
1323,59.0,60.0,120.0,0.0,0.0
1324,79.0,60.0,120.0,0.0,0.0
1325,83.0,120.0,120.0,0.0,0.0
1326,64.0,120.0,120.0,0.0,0.0
1327,87.0,120.0,360.0,0.0,0.0
1328,83.0,0.0,300.0,0.0,0.0
1329,57.0,0.0,180.0,0.0,0.0
1330,79.0,0.0,240.0,0.0,0.0
1331,59.0,120.0,120.0,0.0,0.0
1332,78.0,240.0,120.0,0.0,0.0
1333,63.0,0.0,120.0,0.0,0.0
1334,83.0,120.0,360.0,0.0,0.0
1335,55.0,0.0,180.0,0.0,0.0
1336,79.0,0.0,300.0,0.0,0.0
1337,64.0,120.0,120.0,0.0,0.0
1338,76.0,0.0,240.0,0.0,0.0
1339,71.0,240.0,120.0,0.0,0.0
1340,67.0,0.0,120.0,0.0,0.0
1341,81.0,120.0,360.0,0.0,0.0
1342,78.0,0.0,300.0,0.0,0.0
1343,57.0,120.0,180.0,0.0,0.0
1344,74.0,0.0,240.0,0.0,0.0
1345,66.0,0.0,120.0,0.0,0.0
1346,69.0,240.0,120.0,0.0,0.0
1347,72.0,0.0,120.0,0.0,0.0
1348,78.0,120.0,360.0,0.0,0.0
1349,75.0,0.0,300.0,0.0,0.0
1350,59.0,0.0,180.0,0.0,0.0
1351,63.0,120.0,120.0,0.0,0.0
1352,71.0,0.0,240.0,0.0,0.0
1353,69.0,240.0,120.0,0.0,0.0
1354,66.0,0.0,120.0,0.0,0.0
1355,75.0,0.0,360.0,0.0,0.0
1356,47.0,0.0,180.0,0.0,0.0
1357,71.0,0.0,300.0,0.0,0.0
1358,59.0,120.0,120.0,0.0,0.0
1359,67.0,120.0,240.0,0.0,0.0
1360,63.0,0.0,120.0,0.0,0.0
1361,66.0,240.0,120.0,0.0,0.0
1362,71.0,0.0,360.0,0.0,0.0
1363,43.0,0.0,180.0,0.0,0.0
1364,67.0,0.0,300.0,0.0,0.0
1365,52.0,120.0,120.0,0.0,0.0
1366,64.0,120.0,240.0,0.0,0.0
1367,55.0,0.0,120.0,0.0,0.0
1368,59.0,240.0,120.0,0.0,0.0
1369,71.0,0.0,360.0,0.0,0.0
1370,67.0,0.0,300.0,0.0,0.0
1371,43.0,120.0,180.0,0.0,0.0
1372,64.0,120.0,240.0,0.0,0.0
1373,53.0,0.0,120.0,0.0,0.0
1374,55.0,0.0,120.0,0.0,0.0
1375,62.0,240.0,120.0,0.0,0.0
1376,67.0,0.0,360.0,0.0,0.0
1377,64.0,120.0,540.0,0.0,0.0
1378,48.0,120.0,180.0,0.0,0.0
1379,52.0,0.0,120.0,0.0,0.0
1380,60.0,120.0,240.0,0.0,0.0
1381,55.0,120.0,120.0,0.0,0.0
1382,36.0,240.0,180.0,0.0,0.0
1383,63.0,0.0,960.0,0.0,0.0
1384,59.0,480.0,480.0,0.0,0.0
1385,66.0,0.0,960.0,0.0,0.0
1386,43.0,0.0,120.0,0.0,0.0
1387,48.0,120.0,120.0,0.0,0.0
1388,57.0,120.0,480.0,0.0,0.0
1389,71.0,0.0,480.0,0.0,0.0
1390,55.0,240.0,120.0,0.0,0.0
1391,67.0,120.0,480.0,0.0,0.0
1392,59.0,0.0,480.0,0.0,0.0
1393,43.0,120.0,120.0,0.0,0.0
1394,61.0,0.0,480.0,0.0,0.0
1395,73.0,960.0,480.0,0.0,0.0
1396,70.0,0.0,480.0,0.0,0.0
1397,31.0,240.0,120.0,0.0,0.0
1398,43.0,120.0,120.0,0.0,0.0
1399,62.0,0.0,960.0,0.0,0.0
1400,74.0,0.0,960.0,0.0,0.0
1401,65.0,0.0,960.0,0.0,0.0
1402,55.0,120.0,960.0,0.0,0.0
1403,71.0,0.0,15.0,0.0,0.0
1404,83.0,0.0,480.0,0.0,0.0
1405,79.0,120.0,480.0,0.0,0.0
1406,53.0,240.0,120.0,0.0,0.0
1407,41.0,120.0,120.0,0.0,0.0
1408,73.0,0.0,480.0,0.0,0.0
1409,29.0,240.0,120.0,0.0,0.0
1410,82.0,0.0,480.0,0.0,0.0
1411,85.0,960.0,480.0,0.0,0.0
1412,41.0,120.0,120.0,0.0,0.0
1413,56.0,0.0,960.0,0.0,0.0
1414,65.0,0.0,960.0,0.0,0.0
1415,68.0,0.0,960.0,0.0,0.0
1416,83.0,0.0,960.0,0.0,0.0
1417,74.0,0.0,960.0,0.0,0.0
1418,86.0,120.0,960.0,0.0,0.0
1419,52.0,240.0,120.0,0.0,0.0
1420,71.0,0.0,480.0,0.0,0.0
1421,68.0,120.0,480.0,0.0,0.0
1422,59.0,0.0,480.0,0.0,0.0
1423,40.0,120.0,120.0,0.0,0.0
1424,28.0,240.0,120.0,0.0,0.0
1425,70.0,0.0,480.0,0.0,0.0
1426,73.0,60.0,480.0,0.0,0.0
1427,61.0,0.0,480.0,0.0,0.0
1428,40.0,120.0,120.0,0.0,0.0
1429,52.0,300.0,120.0,0.0,0.0
1430,74.0,0.0,480.0,0.0,0.0
1431,56.0,0.0,60.0,0.0,0.0
1432,62.0,0.0,480.0,0.0,0.0
1433,71.0,120.0,480.0,0.0,0.0
1434,52.0,120.0,120.0,0.0,0.0
1435,76.0,60.0,480.0,0.0,0.0
1436,64.0,0.0,480.0,0.0,0.0
1437,40.0,240.0,120.0,0.0,0.0
1438,73.0,0.0,480.0,0.0,0.0
1439,52.0,120.0,120.0,0.0,0.0
1440,50.0,300.0,120.0,0.0,0.0
1441,77.0,0.0,480.0,0.0,0.0
1442,74.0,0.0,480.0,0.0,0.0
1443,65.0,120.0,480.0,0.0,0.0
1444,57.0,0.0,60.0,0.0,0.0
1445,50.0,120.0,120.0,0.0,0.0
1446,38.0,240.0,120.0,0.0,0.0
1447,76.0,0.0,480.0,0.0,0.0
1448,68.0,0.0,480.0,0.0,0.0
1449,80.0,60.0,480.0,0.0,0.0
1450,57.0,120.0,120.0,0.0,0.0
1451,55.0,300.0,120.0,0.0,0.0
1452,81.0,0.0,480.0,0.0,0.0
1453,69.0,120.0,480.0,0.0,0.0
1454,77.0,0.0,960.0,0.0,0.0
1455,62.0,0.0,60.0,0.0,0.0
1456,43.0,120.0,120.0,0.0,0.0
1457,31.0,240.0,120.0,0.0,0.0
1458,83.0,120.0,480.0,0.0,0.0
1459,71.0,0.0,480.0,0.0,0.0
1460,55.0,120.0,120.0,0.0,0.0
1461,36.0,60.0,180.0,0.0,0.0
1462,48.0,0.0,120.0,0.0,0.0
1463,76.0,120.0,240.0,0.0,0.0
1464,84.0,60.0,120.0,0.0,0.0
1465,88.0,0.0,120.0,0.0,0.0
1466,77.0,120.0,240.0,0.0,0.0
1467,52.0,120.0,120.0,0.0,0.0
1468,48.0,120.0,180.0,0.0,0.0
1469,78.0,120.0,240.0,0.0,0.0
1470,60.0,0.0,120.0,0.0,0.0
1471,84.0,0.0,180.0,0.0,0.0
1472,88.0,0.0,120.0,0.0,0.0
1473,79.0,60.0,240.0,0.0,0.0
1474,64.0,120.0,120.0,0.0,0.0
1475,60.0,0.0,180.0,0.0,0.0
1476,76.0,60.0,120.0,0.0,0.0
1477,72.0,60.0,120.0,0.0,0.0
1478,84.0,120.0,240.0,0.0,0.0
1479,88.0,60.0,120.0,0.0,0.0
1480,64.0,120.0,120.0,0.0,0.0
1481,83.0,120.0,240.0,0.0,0.0
1482,48.0,60.0,180.0,0.0,0.0
1483,60.0,0.0,120.0,0.0,0.0
1484,81.0,0.0,240.0,0.0,0.0
1485,84.0,60.0,120.0,0.0,0.0
1486,88.0,120.0,120.0,0.0,0.0
1487,52.0,120.0,120.0,0.0,0.0
1488,80.0,120.0,240.0,0.0,0.0
1489,36.0,0.0,180.0,0.0,0.0
1490,76.0,60.0,120.0,0.0,0.0
1491,79.0,120.0,960.0,0.0,0.0
1492,48.0,0.0,120.0,0.0,0.0
1493,84.0,60.0,120.0,0.0,0.0
1494,88.0,120.0,120.0,0.0,0.0
1495,52.0,240.0,120.0,0.0,0.0
1496,48.0,0.0,180.0,0.0,0.0
1497,60.0,0.0,120.0,0.0,0.0
1498,76.0,60.0,120.0,0.0,0.0
1499,84.0,60.0,120.0,0.0,0.0
1500,88.0,120.0,120.0,0.0,0.0
1501,64.0,120.0,120.0,0.0,0.0
1502,86.0,0.0,360.0,0.0,0.0
1503,83.0,120.0,300.0,0.0,0.0
1504,60.0,120.0,180.0,0.0,0.0
1505,67.0,0.0,120.0,0.0,0.0
1506,77.0,0.0,240.0,0.0,0.0
1507,71.0,240.0,120.0,0.0,0.0
1508,76.0,0.0,120.0,0.0,0.0
1509,83.0,0.0,360.0,0.0,0.0
1510,60.0,0.0,180.0,0.0,0.0
1511,79.0,120.0,300.0,0.0,0.0
1512,74.0,0.0,240.0,0.0,0.0
1513,65.0,120.0,120.0,0.0,0.0
1514,67.0,0.0,120.0,0.0,0.0
1515,76.0,240.0,120.0,0.0,0.0
1516,84.0,120.0,360.0,0.0,0.0
1517,60.0,0.0,180.0,0.0,0.0
1518,81.0,0.0,300.0,0.0,0.0
1519,77.0,0.0,240.0,0.0,0.0
1520,69.0,120.0,120.0,0.0,0.0
1521,72.0,240.0,120.0,0.0,0.0
1522,76.0,0.0,120.0,0.0,0.0
1523,81.0,120.0,360.0,0.0,0.0
1524,60.0,0.0,180.0,0.0,0.0
1525,77.0,0.0,300.0,0.0,0.0
1526,74.0,0.0,240.0,0.0,0.0
1527,65.0,120.0,120.0,0.0,0.0
1528,72.0,240.0,120.0,0.0,0.0
1529,69.0,0.0,120.0,0.0,0.0
1530,79.0,0.0,360.0,0.0,0.0
1531,48.0,0.0,180.0,0.0,0.0
1532,74.0,0.0,300.0,0.0,0.0
1533,71.0,120.0,240.0,0.0,0.0
1534,53.0,120.0,120.0,0.0,0.0
1535,55.0,240.0,120.0,0.0,0.0
1536,69.0,0.0,120.0,0.0,0.0
1537,48.0,0.0,240.0,0.0,0.0
1538,77.0,120.0,360.0,0.0,0.0
1539,74.0,0.0,300.0,0.0,0.0
1540,55.0,0.0,180.0,0.0,0.0
1541,67.0,0.0,240.0,0.0,0.0
1542,59.0,120.0,120.0,0.0,0.0
1543,60.0,240.0,120.0,0.0,0.0
1544,69.0,0.0,120.0,0.0,0.0
1545,79.0,120.0,360.0,0.0,0.0
1546,48.0,120.0,240.0,0.0,0.0
1547,55.0,0.0,180.0,0.0,0.0
1548,77.0,0.0,300.0,0.0,0.0
1549,62.0,0.0,120.0,0.0,0.0
1550,71.0,0.0,240.0,0.0,0.0
1551,74.0,0.0,120.0,0.0,0.0
1552,65.0,240.0,120.0,0.0,0.0
1553,79.0,120.0,360.0,0.0,0.0
1554,48.0,0.0,240.0,0.0,0.0
1555,55.0,120.0,180.0,0.0,0.0
1556,77.0,0.0,300.0,0.0,0.0
1557,69.0,0.0,240.0,0.0,0.0
1558,60.0,0.0,120.0,0.0,0.0
1559,72.0,240.0,120.0,0.0,0.0
1560,64.0,0.0,120.0,0.0,0.0
1561,79.0,0.0,360.0,0.0,0.0
1562,48.0,0.0,240.0,0.0,0.0
1563,76.0,120.0,300.0,0.0,0.0
1564,55.0,0.0,180.0,0.0,0.0
1565,67.0,0.0,240.0,0.0,0.0
1566,59.0,120.0,120.0,0.0,0.0
1567,71.0,0.0,120.0,0.0,0.0
1568,62.0,240.0,120.0,0.0,0.0
1569,79.0,0.0,360.0,0.0,0.0
1570,48.0,120.0,240.0,0.0,0.0
1571,55.0,0.0,180.0,0.0,0.0
1572,74.0,120.0,300.0,0.0,0.0
1573,60.0,0.0,120.0,0.0,0.0
1574,65.0,0.0,240.0,0.0,0.0
1575,69.0,0.0,120.0,0.0,0.0
1576,59.0,240.0,120.0,0.0,0.0
1577,48.0,60.0,180.0,0.0,0.0
1578,60.0,0.0,120.0,0.0,0.0
1579,64.0,120.0,240.0,0.0,0.0
1580,72.0,60.0,120.0,0.0,0.0
1581,76.0,0.0,120.0,0.0,0.0
1582,65.0,120.0,240.0,0.0,0.0
1583,52.0,120.0,120.0,0.0,0.0
1584,36.0,0.0,180.0,0.0,0.0
1585,66.0,120.0,240.0,0.0,0.0
1586,48.0,60.0,120.0,0.0,0.0
1587,72.0,60.0,120.0,0.0,0.0
1588,76.0,0.0,120.0,0.0,0.0
1589,52.0,120.0,120.0,0.0,0.0
1590,67.0,120.0,240.0,0.0,0.0
1591,48.0,0.0,180.0,0.0,0.0
1592,64.0,0.0,240.0,0.0,0.0
1593,60.0,60.0,120.0,0.0,0.0
1594,76.0,60.0,120.0,0.0,0.0
1595,79.0,120.0,120.0,0.0,0.0
1596,52.0,120.0,120.0,0.0,0.0
1597,72.0,120.0,240.0,0.0,0.0
1598,36.0,60.0,180.0,0.0,0.0
1599,48.0,0.0,120.0,0.0,0.0
1600,69.0,0.0,240.0,0.0,0.0
1601,76.0,60.0,120.0,0.0,0.0
1602,79.0,120.0,120.0,0.0,0.0
1603,52.0,120.0,120.0,0.0,0.0
1604,68.0,120.0,240.0,0.0,0.0
1605,48.0,120.0,180.0,0.0,0.0
1606,60.0,0.0,120.0,0.0,0.0
1607,64.0,0.0,240.0,0.0,0.0
1608,67.0,0.0,180.0,0.0,0.0
1609,71.0,0.0,120.0,0.0,0.0
1610,76.0,120.0,60.0,0.0,0.0
1611,77.0,0.0,240.0,0.0,0.0
1612,74.0,0.0,240.0,0.0,0.0
1613,65.0,120.0,240.0,0.0,0.0
1614,55.0,120.0,120.0,0.0,0.0
1615,36.0,0.0,240.0,0.0,0.0
1616,48.0,120.0,120.0,0.0,0.0
1617,75.0,120.0,240.0,0.0,0.0
1618,78.0,0.0,240.0,0.0,0.0
1619,66.0,0.0,240.0,0.0,0.0
1620,52.0,120.0,120.0,0.0,0.0
1621,76.0,120.0,240.0,0.0,0.0
1622,79.0,0.0,240.0,0.0,0.0
1623,67.0,0.0,240.0,0.0,0.0
1624,60.0,120.0,240.0,0.0,0.0
1625,72.0,0.0,120.0,0.0,0.0
1626,91.0,120.0,240.0,0.0,0.0
1627,82.0,0.0,240.0,0.0,0.0
1628,79.0,0.0,240.0,0.0,0.0
1629,88.0,0.0,240.0,0.0,0.0
1630,76.0,120.0,240.0,0.0,0.0
1631,84.0,0.0,240.0,0.0,0.0
1632,64.0,120.0,120.0,0.0,0.0
1633,48.0,0.0,240.0,0.0,0.0
1634,60.0,120.0,120.0,0.0,0.0
1635,84.0,120.0,240.0,0.0,0.0
1636,81.0,0.0,240.0,0.0,0.0
1637,72.0,0.0,240.0,0.0,0.0
1638,70.0,120.0,240.0,0.0,0.0
1639,79.0,0.0,240.0,0.0,0.0
1640,82.0,0.0,240.0,0.0,0.0
1641,52.0,120.0,120.0,0.0,0.0
1642,29.0,0.0,240.0,0.0,0.0
1643,41.0,240.0,120.0,0.0,0.0
1644,81.0,120.0,480.0,0.0,0.0
1645,69.0,0.0,480.0,0.0,0.0
1646,48.0,120.0,120.0,0.0,0.0
1647,41.0,240.0,180.0,0.0,0.0
1648,80.0,900.0,480.0,0.0,0.0
1649,68.0,0.0,480.0,0.0,0.0
1650,53.0,0.0,120.0,0.0,0.0
1651,77.0,0.0,15.0,0.0,0.0
1652,60.0,120.0,120.0,0.0,0.0
1653,72.0,60.0,900.0,0.0,0.0
1654,64.0,0.0,900.0,0.0,0.0
1655,60.0,0.0,900.0,0.0,0.0
1656,67.0,0.0,960.0,0.0,0.0
1657,76.0,0.0,960.0,0.0,0.0
1658,79.0,120.0,960.0,0.0,0.0
1659,28.0,0.0,240.0,0.0,0.0
1660,72.0,120.0,480.0,0.0,0.0
1661,60.0,0.0,480.0,0.0,0.0
1662,67.0,0.0,480.0,0.0,0.0
1663,40.0,240.0,120.0,0.0,0.0
1664,48.0,120.0,120.0,0.0,0.0
1665,40.0,240.0,180.0,0.0,0.0
1666,71.0,960.0,480.0,0.0,0.0
1667,52.0,0.0,120.0,0.0,0.0
1668,59.0,0.0,480.0,0.0,0.0
1669,60.0,120.0,120.0,0.0,0.0
1670,70.0,0.0,960.0,0.0,0.0
1671,58.0,0.0,960.0,0.0,0.0
1672,67.0,0.0,15.0,0.0,0.0
1673,60.0,0.0,960.0,0.0,0.0
1674,64.0,0.0,960.0,0.0,0.0
1675,76.0,0.0,480.0,0.0,0.0
1676,83.0,0.0,480.0,0.0,0.0
1677,40.0,0.0,480.0,0.0,0.0
1678,52.0,160.0,15.0,0.0,0.0
1679,47.0,160.0,150.0,0.0,0.0
1680,52.0,0.0,150.0,0.0,0.0
1681,83.0,0.0,480.0,0.0,0.0
1682,78.0,0.0,480.0,0.0,0.0
1683,71.0,480.0,15.0,0.0,0.0
1684,66.0,160.0,480.0,0.0,0.0
1685,59.0,0.0,480.0,0.0,0.0
1686,54.0,0.0,480.0,0.0,0.0
1687,79.0,0.0,480.0,0.0,0.0
1688,40.0,480.0,480.0,0.0,0.0
1689,55.0,160.0,150.0,0.0,0.0
1690,71.0,0.0,480.0,0.0,0.0
1691,83.0,0.0,480.0,0.0,0.0
1692,47.0,160.0,150.0,0.0,0.0
1693,55.0,0.0,150.0,0.0,0.0
1694,83.0,0.0,480.0,0.0,0.0
1695,78.0,160.0,480.0,0.0,0.0
1696,71.0,0.0,480.0,0.0,0.0
1697,54.0,0.0,480.0,0.0,0.0
1698,59.0,0.0,480.0,0.0,0.0
1699,66.0,0.0,480.0,0.0,0.0
1700,83.0,0.0,480.0,0.0,0.0
1701,71.0,0.0,480.0,0.0,0.0
1702,55.0,160.0,150.0,0.0,0.0
1703,40.0,480.0,480.0,0.0,0.0
1704,47.0,0.0,150.0,0.0,0.0
1705,79.0,160.0,150.0,0.0,0.0
1706,54.0,0.0,150.0,0.0,0.0
1707,81.0,0.0,150.0,0.0,0.0
1708,78.0,0.0,480.0,0.0,0.0
1709,47.0,0.0,480.0,0.0,0.0
1710,59.0,0.0,480.0,0.0,0.0
1711,40.0,0.0,480.0,0.0,0.0
1712,52.0,0.0,15.0,0.0,0.0
1713,71.0,0.0,15.0,0.0,0.0
1714,79.0,160.0,150.0,0.0,0.0
1715,83.0,160.0,15.0,0.0,0.0
1716,47.0,160.0,150.0,0.0,0.0
1717,76.0,0.0,150.0,0.0,0.0
1718,50.0,0.0,150.0,0.0,0.0
1719,77.0,480.0,150.0,0.0,0.0
1720,83.0,0.0,15.0,0.0,0.0
1721,59.0,0.0,480.0,0.0,0.0
1722,71.0,0.0,480.0,0.0,0.0
1723,74.0,0.0,480.0,0.0,0.0
1724,52.0,0.0,480.0,0.0,0.0
1725,47.0,0.0,480.0,0.0,0.0
1726,88.0,160.0,150.0,0.0,0.0
1727,76.0,0.0,150.0,0.0,0.0
1728,48.0,0.0,150.0,0.0,0.0
1729,40.0,480.0,480.0,0.0,0.0
1730,84.0,0.0,150.0,0.0,0.0
1731,52.0,160.0,150.0,0.0,0.0
1732,86.0,0.0,150.0,0.0,0.0
1733,74.0,0.0,150.0,0.0,0.0
1734,52.0,160.0,630.0,0.0,0.0
1735,59.0,0.0,150.0,0.0,0.0
1736,83.0,0.0,480.0,0.0,0.0
1737,62.0,0.0,480.0,0.0,0.0
1738,48.0,0.0,150.0,0.0,0.0
1739,88.0,160.0,150.0,0.0,0.0
1740,76.0,0.0,150.0,0.0,0.0
1741,40.0,0.0,330.0,0.0,0.0
1742,84.0,160.0,150.0,0.0,0.0
1743,74.0,0.0,150.0,0.0,0.0
1744,86.0,0.0,150.0,0.0,0.0
1745,59.0,160.0,150.0,0.0,0.0
1746,52.0,0.0,15.0,0.0,0.0
1747,83.0,0.0,150.0,0.0,0.0
1748,62.0,0.0,150.0,0.0,0.0
1749,72.0,0.0,150.0,0.0,0.0
1750,84.0,160.0,150.0,0.0,0.0
1751,52.0,160.0,330.0,0.0,0.0
1752,57.0,0.0,150.0,0.0,0.0
1753,81.0,0.0,150.0,0.0,0.0
1754,60.0,0.0,150.0,0.0,0.0
1755,70.0,0.0,150.0,0.0,0.0
1756,82.0,160.0,150.0,0.0,0.0
1757,43.0,0.0,150.0,0.0,0.0
1758,40.0,0.0,480.0,0.0,0.0
1759,48.0,0.0,150.0,0.0,0.0
1760,79.0,160.0,150.0,0.0,0.0
1761,55.0,0.0,150.0,0.0,0.0
1762,82.0,480.0,150.0,0.0,0.0
1763,70.0,0.0,150.0,0.0,0.0
1764,71.0,0.0,480.0,0.0,0.0
1765,78.0,0.0,480.0,0.0,0.0
1766,83.0,160.0,480.0,0.0,0.0
1767,59.0,0.0,480.0,0.0,0.0
1768,54.0,0.0,480.0,0.0,0.0
1769,52.0,0.0,480.0,0.0,0.0
1770,47.0,0.0,480.0,0.0,0.0
1771,43.0,160.0,150.0,0.0,0.0
1772,85.0,0.0,150.0,0.0,0.0
1773,73.0,0.0,150.0,0.0,0.0
1774,40.0,480.0,480.0,0.0,0.0
1775,79.0,0.0,150.0,0.0,0.0
1776,49.0,160.0,150.0,0.0,0.0
1777,85.0,0.0,150.0,0.0,0.0
1778,73.0,0.0,150.0,0.0,0.0
1779,55.0,0.0,150.0,0.0,0.0
1780,52.0,0.0,480.0,0.0,0.0
1781,54.0,0.0,480.0,0.0,0.0
1782,59.0,0.0,480.0,0.0,0.0
1783,71.0,0.0,480.0,0.0,0.0
1784,83.0,160.0,480.0,0.0,0.0
1785,78.0,0.0,480.0,0.0,0.0
1786,88.0,160.0,150.0,0.0,0.0
1787,56.0,0.0,480.0,0.0,0.0
1788,47.0,0.0,15.0,0.0,0.0
1789,40.0,0.0,480.0,0.0,0.0
1790,76.0,0.0,150.0,0.0,0.0
1791,83.0,160.0,150.0,0.0,0.0
1792,88.0,0.0,150.0,0.0,0.0
1793,76.0,0.0,150.0,0.0,0.0
1794,90.0,160.0,480.0,0.0,0.0
1795,54.0,160.0,150.0,0.0,0.0
1796,52.0,0.0,150.0,0.0,0.0
1797,59.0,0.0,150.0,0.0,0.0
1798,78.0,0.0,480.0,0.0,0.0
1799,83.0,0.0,480.0,0.0,0.0
1800,47.0,160.0,150.0,0.0,0.0
1801,59.0,0.0,150.0,0.0,0.0
1802,52.0,0.0,150.0,0.0,0.0
1803,54.0,0.0,150.0,0.0,0.0
1804,40.0,0.0,480.0,0.0,0.0
1805,47.0,160.0,480.0,0.0,0.0
1806,92.0,160.0,150.0,0.0,0.0
1807,80.0,0.0,150.0,0.0,0.0
1808,52.0,0.0,480.0,0.0,0.0
1809,83.0,160.0,150.0,0.0,0.0
1810,80.0,0.0,150.0,0.0,0.0
1811,92.0,0.0,150.0,0.0,0.0
1812,90.0,0.0,480.0,0.0,0.0
1813,78.0,0.0,480.0,0.0,0.0
1814,52.0,160.0,150.0,0.0,0.0
1815,54.0,0.0,150.0,0.0,0.0
1816,59.0,0.0,150.0,0.0,0.0
1817,47.0,160.0,150.0,0.0,0.0
1818,52.0,0.0,150.0,0.0,0.0
1819,54.0,0.0,150.0,0.0,0.0
1820,59.0,160.0,150.0,0.0,0.0
1821,83.0,0.0,15.0,0.0,0.0
1822,56.0,80.0,240.0,0.0,0.0
1823,47.0,0.0,480.0,0.0,0.0
1824,40.0,0.0,480.0,0.0,0.0
1825,95.0,80.0,150.0,0.0,0.0
1826,92.0,160.0,150.0,0.0,0.0
1827,54.0,0.0,240.0,0.0,0.0
1828,81.0,0.0,150.0,0.0,0.0
1829,93.0,160.0,150.0,0.0,0.0
1830,59.0,0.0,150.0,0.0,0.0
1831,54.0,160.0,150.0,0.0,0.0
1832,52.0,0.0,150.0,0.0,0.0
1833,78.0,0.0,480.0,0.0,0.0
1834,66.0,0.0,480.0,0.0,0.0
1835,71.0,160.0,480.0,0.0,0.0
1836,47.0,160.0,150.0,0.0,0.0
1837,59.0,0.0,150.0,0.0,0.0
1838,52.0,0.0,150.0,0.0,0.0
1839,54.0,0.0,150.0,0.0,0.0
1840,40.0,0.0,480.0,0.0,0.0
1841,47.0,0.0,480.0,0.0,0.0
1842,52.0,80.0,240.0,0.0,0.0
1843,92.0,0.0,150.0,0.0,0.0
1844,80.0,80.0,150.0,0.0,0.0
1845,83.0,160.0,150.0,0.0,0.0
1846,50.0,0.0,240.0,0.0,0.0
1847,78.0,160.0,150.0,0.0,0.0
1848,90.0,0.0,150.0,0.0,0.0
1849,62.0,0.0,480.0,0.0,0.0
1850,68.0,0.0,480.0,0.0,0.0
1851,74.0,160.0,480.0,0.0,0.0
1852,52.0,160.0,150.0,0.0,0.0
1853,59.0,0.0,150.0,0.0,0.0
1854,47.0,160.0,150.0,0.0,0.0
1855,52.0,0.0,150.0,0.0,0.0
1856,59.0,0.0,150.0,0.0,0.0
1857,88.0,80.0,150.0,0.0,0.0
1858,49.0,0.0,480.0,0.0,0.0
1859,76.0,0.0,150.0,0.0,0.0
1860,45.0,0.0,480.0,0.0,0.0
1861,40.0,0.0,480.0,0.0,0.0
1862,52.0,160.0,480.0,0.0,0.0
1863,81.0,0.0,90.0,0.0,0.0
1864,85.0,200.0,90.0,0.0,0.0
1865,76.0,40.0,120.0,0.0,0.0
1866,88.0,0.0,120.0,0.0,0.0
1867,83.0,0.0,480.0,0.0,0.0
1868,80.0,0.0,480.0,0.0,0.0
1869,71.0,0.0,480.0,0.0,0.0
1870,56.0,0.0,150.0,0.0,0.0
1871,59.0,0.0,150.0,0.0,0.0
1872,64.0,160.0,150.0,0.0,0.0
1873,52.0,160.0,150.0,0.0,0.0
1874,56.0,0.0,150.0,0.0,0.0
1875,59.0,0.0,150.0,0.0,0.0
1876,64.0,160.0,150.0,0.0,0.0
1877,45.0,0.0,480.0,0.0,0.0
1878,85.0,80.0,150.0,0.0,0.0
1879,73.0,0.0,150.0,0.0,0.0
1880,54.0,0.0,480.0,0.0,0.0
1881,49.0,0.0,480.0,0.0,0.0
1882,42.0,160.0,480.0,0.0,0.0
1883,81.0,0.0,90.0,0.0,0.0
1884,78.0,200.0,90.0,0.0,0.0
1885,85.0,40.0,120.0,0.0,0.0
1886,73.0,0.0,120.0,0.0,0.0
1887,68.0,0.0,480.0,0.0,0.0
1888,61.0,160.0,150.0,0.0,0.0
1889,76.0,0.0,480.0,0.0,0.0
1890,52.0,0.0,150.0,0.0,0.0
1891,56.0,0.0,150.0,0.0,0.0
1892,80.0,0.0,480.0,0.0,0.0
1893,49.0,160.0,150.0,0.0,0.0
1894,56.0,160.0,150.0,0.0,0.0
1895,61.0,0.0,150.0,0.0,0.0
1896,52.0,0.0,150.0,0.0,0.0
1897,83.0,0.0,150.0,0.0,0.0
1898,35.0,0.0,330.0,0.0,0.0
1899,47.0,160.0,330.0,0.0,0.0
1900,71.0,160.0,150.0,0.0,0.0
1901,80.0,0.0,150.0,0.0,0.0
1902,76.0,0.0,150.0,0.0,0.0
1903,83.0,0.0,150.0,0.0,0.0
1904,71.0,0.0,150.0,0.0,0.0
1905,56.0,160.0,150.0,0.0,0.0
1906,52.0,0.0,150.0,0.0,0.0
1907,59.0,0.0,150.0,0.0,0.0
1908,81.0,0.0,150.0,0.0,0.0
1909,78.0,160.0,150.0,0.0,0.0
1910,47.0,0.0,150.0,0.0,0.0
1911,54.0,0.0,150.0,0.0,0.0
1912,57.0,160.0,150.0,0.0,0.0
1913,71.0,0.0,150.0,0.0,0.0
1914,83.0,0.0,150.0,0.0,0.0
1915,47.0,0.0,150.0,0.0,0.0
1916,59.0,0.0,150.0,0.0,0.0
1917,80.0,160.0,150.0,0.0,0.0
1918,76.0,0.0,150.0,0.0,0.0
1919,52.0,0.0,150.0,0.0,0.0
1920,83.0,0.0,150.0,0.0,0.0
1921,56.0,160.0,150.0,0.0,0.0
1922,71.0,0.0,150.0,0.0,0.0
1923,76.0,160.0,150.0,0.0,0.0
1924,73.0,0.0,150.0,0.0,0.0
1925,59.0,0.0,150.0,0.0,0.0
1926,47.0,0.0,150.0,0.0,0.0
1927,52.0,480.0,150.0,0.0,0.0
1928,49.0,0.0,150.0,0.0,0.0
1929,83.0,0.0,150.0,0.0,0.0
1930,75.0,0.0,480.0,0.0,0.0
1931,59.0,0.0,480.0,0.0,0.0
1932,54.0,0.0,480.0,0.0,0.0
1933,51.0,160.0,480.0,0.0,0.0
1934,71.0,0.0,15.0,0.0,0.0
1935,78.0,0.0,480.0,0.0,0.0
1936,83.0,0.0,480.0,0.0,0.0
1937,47.0,0.0,480.0,0.0,0.0
1938,88.0,0.0,150.0,0.0,0.0
1939,76.0,160.0,150.0,0.0,0.0
1940,40.0,0.0,150.0,0.0,0.0
1941,52.0,0.0,150.0,0.0,0.0
1942,87.0,0.0,150.0,0.0,0.0
1943,83.0,160.0,150.0,0.0,0.0
1944,57.0,0.0,480.0,0.0,0.0
1945,61.0,160.0,480.0,0.0,0.0
1946,88.0,160.0,150.0,0.0,0.0
1947,76.0,0.0,150.0,0.0,0.0
1948,64.0,160.0,480.0,0.0,0.0
1949,85.0,0.0,150.0,0.0,0.0
1950,81.0,160.0,150.0,0.0,0.0
1951,52.0,0.0,480.0,0.0,0.0
1952,76.0,0.0,150.0,0.0,0.0
1953,88.0,0.0,150.0,0.0,0.0
1954,80.0,0.0,150.0,0.0,0.0
1955,83.0,0.0,150.0,0.0,0.0
1956,59.0,0.0,150.0,0.0,0.0
1957,56.0,0.0,150.0,0.0,0.0
1958,73.0,160.0,150.0,0.0,0.0
1959,85.0,0.0,150.0,0.0,0.0
1960,37.0,0.0,150.0,0.0,0.0
1961,83.0,0.0,150.0,0.0,0.0
1962,49.0,160.0,150.0,0.0,0.0
1963,80.0,0.0,150.0,0.0,0.0
1964,73.0,0.0,150.0,0.0,0.0
1965,85.0,160.0,150.0,0.0,0.0
1966,57.0,0.0,480.0,0.0,0.0
1967,54.0,0.0,480.0,0.0,0.0
1968,61.0,0.0,480.0,0.0,0.0
1969,49.0,0.0,480.0,0.0,0.0
1970,81.0,160.0,150.0,0.0,0.0
1971,78.0,0.0,150.0,0.0,0.0
1972,85.0,0.0,150.0,0.0,0.0
1973,73.0,160.0,150.0,0.0,0.0
1974,76.0,0.0,150.0,0.0,0.0
1975,80.0,160.0,150.0,0.0,0.0
1976,52.0,0.0,150.0,0.0,0.0
1977,56.0,0.0,150.0,0.0,0.0
1978,83.0,160.0,150.0,0.0,0.0
1979,71.0,0.0,150.0,0.0,0.0
1980,35.0,0.0,150.0,0.0,0.0
1981,47.0,0.0,150.0,0.0,0.0
1982,78.0,160.0,150.0,0.0,0.0
1983,81.0,0.0,150.0,0.0,0.0
1984,71.0,160.0,150.0,0.0,0.0
1985,83.0,0.0,150.0,0.0,0.0
1986,54.0,0.0,150.0,0.0,0.0
1987,57.0,0.0,150.0,0.0,0.0
1988,76.0,0.0,150.0,0.0,0.0
1989,59.0,0.0,150.0,0.0,0.0
1990,47.0,160.0,150.0,0.0,0.0
1991,80.0,0.0,150.0,0.0,0.0
1992,56.0,160.0,150.0,0.0,0.0
1993,83.0,0.0,150.0,0.0,0.0
1994,71.0,0.0,150.0,0.0,0.0
1995,52.0,0.0,150.0,0.0,0.0
1996,76.0,480.0,150.0,0.0,0.0
1997,73.0,0.0,150.0,0.0,0.0
1998,52.0,0.0,480.0,0.0,0.0
1999,49.0,0.0,480.0,0.0,0.0
2000,83.0,0.0,480.0,0.0,0.0
2001,71.0,0.0,480.0,0.0,0.0
2002,76.0,0.0,480.0,0.0,0.0
2003,80.0,0.0,480.0,0.0,0.0
2004,47.0,0.0,180.0,0.0,0.0
2005,51.0,0.0,240.0,0.0,0.0
2006,54.0,480.0,180.0,0.0,0.0
2007,75.0,0.0,120.0,0.0,0.0
2008,78.0,0.0,120.0,0.0,0.0
2009,71.0,0.0,120.0,0.0,0.0
2010,83.0,0.0,120.0,0.0,0.0
2011,59.0,120.0,15.0,0.0,0.0
2012,40.0,240.0,120.0,0.0,0.0
2013,68.0,240.0,120.0,0.0,0.0
2014,64.0,0.0,120.0,0.0,0.0
2015,59.0,0.0,120.0,0.0,0.0
2016,66.0,0.0,120.0,0.0,0.0
2017,63.0,240.0,120.0,0.0,0.0
2018,35.0,0.0,120.0,0.0,0.0
2019,59.0,0.0,120.0,0.0,0.0
2020,59.0,0.0,120.0,0.0,0.0
2021,64.0,240.0,120.0,0.0,0.0
2022,68.0,0.0,120.0,0.0,0.0
2023,40.0,0.0,120.0,0.0,0.0
2024,33.0,240.0,120.0,0.0,0.0
2025,64.0,240.0,120.0,0.0,0.0
2026,69.0,0.0,120.0,0.0,0.0
2027,61.0,0.0,120.0,0.0,0.0
2028,64.0,0.0,120.0,0.0,0.0
2029,68.0,240.0,120.0,0.0,0.0
2030,59.0,0.0,120.0,0.0,0.0
2031,40.0,0.0,120.0,0.0,0.0
2032,61.0,0.0,120.0,0.0,0.0
2033,66.0,240.0,120.0,0.0,0.0
2034,33.0,0.0,120.0,0.0,0.0
2035,64.0,0.0,120.0,0.0,0.0
2036,40.0,240.0,120.0,0.0,0.0
2037,59.0,0.0,120.0,0.0,0.0
2038,68.0,0.0,120.0,0.0,0.0
2039,64.0,240.0,120.0,0.0,0.0
2040,57.0,0.0,120.0,0.0,0.0
2041,63.0,0.0,120.0,0.0,0.0
2042,35.0,240.0,120.0,0.0,0.0
2043,66.0,0.0,120.0,0.0,0.0
2044,56.0,0.0,120.0,0.0,0.0
2045,40.0,240.0,120.0,0.0,0.0
2046,64.0,0.0,120.0,0.0,0.0
2047,66.0,0.0,120.0,0.0,0.0
2048,54.0,240.0,120.0,0.0,0.0
2049,63.0,0.0,120.0,0.0,0.0
2050,35.0,0.0,120.0,0.0,0.0
2051,59.0,0.0,120.0,0.0,0.0
2052,47.0,240.0,120.0,0.0,0.0
2053,40.0,240.0,120.0,0.0,0.0
2054,52.0,0.0,120.0,0.0,0.0
2055,61.0,240.0,120.0,0.0,0.0
2056,64.0,0.0,120.0,0.0,0.0
2057,52.0,0.0,120.0,0.0,0.0
2058,59.0,240.0,120.0,0.0,0.0
2059,63.0,0.0,120.0,0.0,0.0
2060,71.0,0.0,120.0,0.0,0.0
2061,64.0,240.0,120.0,0.0,0.0
2062,75.0,0.0,120.0,0.0,0.0
2063,76.0,0.0,120.0,0.0,0.0
2064,73.0,0.0,120.0,0.0,0.0
2065,64.0,240.0,120.0,0.0,0.0
2066,69.0,0.0,120.0,0.0,0.0
2067,88.0,0.0,120.0,0.0,0.0
2068,76.0,0.0,120.0,0.0,0.0
2069,81.0,0.0,120.0,0.0,0.0
2070,85.0,240.0,120.0,0.0,0.0
2071,64.0,0.0,120.0,0.0,0.0
2072,71.0,240.0,120.0,0.0,0.0
2073,68.0,0.0,120.0,0.0,0.0
2074,83.0,240.0,120.0,0.0,0.0
2075,88.0,0.0,120.0,0.0,0.0
2076,80.0,0.0,120.0,0.0,0.0
2077,87.0,0.0,120.0,0.0,0.0
2078,78.0,0.0,120.0,0.0,0.0
2079,83.0,240.0,120.0,0.0,0.0
2080,59.0,0.0,120.0,0.0,0.0
2081,83.0,0.0,120.0,0.0,0.0
2082,88.0,0.0,120.0,0.0,0.0
2083,64.0,0.0,120.0,0.0,0.0
2084,80.0,240.0,120.0,0.0,0.0
2085,61.0,240.0,120.0,0.0,0.0
2086,85.0,0.0,120.0,0.0,0.0
2087,92.0,240.0,120.0,0.0,0.0
2088,88.0,0.0,120.0,0.0,0.0
2089,66.0,0.0,120.0,0.0,0.0
2090,90.0,0.0,120.0,0.0,0.0
2091,85.0,240.0,120.0,0.0,0.0
2092,81.0,0.0,120.0,0.0,0.0
2093,61.0,0.0,120.0,0.0,0.0
2094,80.0,0.0,120.0,0.0,0.0
2095,88.0,0.0,120.0,0.0,0.0
2096,85.0,240.0,120.0,0.0,0.0
2097,68.0,240.0,120.0,0.0,0.0
2098,80.0,0.0,120.0,0.0,0.0
2099,87.0,0.0,120.0,0.0,0.0
2100,83.0,240.0,120.0,0.0,0.0
2101,85.0,0.0,120.0,0.0,0.0
2102,76.0,240.0,120.0,0.0,0.0
2103,61.0,0.0,120.0,0.0,0.0
2104,80.0,0.0,120.0,0.0,0.0
2105,68.0,0.0,120.0,0.0,0.0
2106,83.0,240.0,120.0,0.0,0.0
2107,80.0,0.0,120.0,0.0,0.0
2108,75.0,0.0,120.0,0.0,0.0
2109,82.0,0.0,120.0,0.0,0.0
2110,70.0,0.0,120.0,0.0,0.0
2111,79.0,0.0,120.0,0.0,0.0
2112,63.0,240.0,120.0,0.0,0.0
2113,75.0,240.0,120.0,0.0,0.0
2114,68.0,240.0,120.0,0.0,0.0
2115,80.0,240.0,120.0,0.0,0.0
2116,55.0,0.0,120.0,0.0,0.0
2117,67.0,240.0,120.0,0.0,0.0
2118,56.0,0.0,120.0,0.0,0.0
2119,79.0,0.0,120.0,0.0,0.0
2120,68.0,240.0,120.0,0.0,0.0
2121,80.0,0.0,120.0,0.0,0.0
2122,42.0,0.0,120.0,0.0,0.0
2123,44.0,240.0,120.0,0.0,0.0
2124,54.0,0.0,120.0,0.0,0.0
2125,68.0,240.0,120.0,0.0,0.0
2126,66.0,0.0,120.0,0.0,0.0
2127,56.0,0.0,120.0,0.0,0.0
2128,28.0,0.0,120.0,0.0,0.0
2129,40.0,240.0,120.0,0.0,0.0
2130,59.0,240.0,120.0,0.0,0.0
2131,64.0,0.0,120.0,0.0,0.0
2132,68.0,0.0,120.0,0.0,0.0
2133,66.0,240.0,120.0,0.0,0.0
2134,63.0,0.0,120.0,0.0,0.0
2135,59.0,0.0,120.0,0.0,0.0
2136,35.0,0.0,120.0,0.0,0.0
2137,40.0,240.0,120.0,0.0,0.0
2138,59.0,0.0,120.0,0.0,0.0
2139,68.0,0.0,120.0,0.0,0.0
2140,64.0,0.0,120.0,0.0,0.0
2141,33.0,240.0,120.0,0.0,0.0
2142,61.0,240.0,120.0,0.0,0.0
2143,64.0,0.0,120.0,0.0,0.0
2144,69.0,0.0,120.0,0.0,0.0
2145,40.0,0.0,120.0,0.0,0.0
2146,64.0,240.0,120.0,0.0,0.0
2147,68.0,0.0,120.0,0.0,0.0
2148,59.0,0.0,120.0,0.0,0.0
2149,33.0,240.0,120.0,0.0,0.0
2150,61.0,0.0,120.0,0.0,0.0
2151,64.0,0.0,120.0,0.0,0.0
2152,66.0,0.0,120.0,0.0,0.0
2153,40.0,240.0,120.0,0.0,0.0
2154,64.0,0.0,120.0,0.0,0.0
2155,59.0,240.0,120.0,0.0,0.0
2156,68.0,0.0,120.0,0.0,0.0
2157,57.0,0.0,120.0,0.0,0.0
2158,66.0,0.0,120.0,0.0,0.0
2159,63.0,240.0,120.0,0.0,0.0
2160,35.0,0.0,120.0,0.0,0.0
2161,40.0,0.0,120.0,0.0,0.0
2162,56.0,0.0,120.0,0.0,0.0
2163,64.0,240.0,120.0,0.0,0.0
2164,63.0,0.0,120.0,0.0,0.0
2165,54.0,0.0,120.0,0.0,0.0
2166,66.0,0.0,120.0,0.0,0.0
2167,35.0,240.0,120.0,0.0,0.0
2168,59.0,240.0,120.0,0.0,0.0
2169,47.0,0.0,120.0,0.0,0.0
2170,40.0,240.0,120.0,0.0,0.0
2171,52.0,0.0,120.0,0.0,0.0
2172,64.0,240.0,120.0,0.0,0.0
2173,52.0,0.0,120.0,0.0,0.0
2174,50.0,240.0,120.0,0.0,0.0
2175,62.0,0.0,120.0,0.0,0.0
2176,64.0,0.0,120.0,0.0,0.0
2177,74.0,240.0,120.0,0.0,0.0
2178,76.0,0.0,120.0,0.0,0.0
2179,64.0,0.0,120.0,0.0,0.0
2180,60.0,240.0,120.0,0.0,0.0
2181,72.0,0.0,120.0,0.0,0.0
2182,76.0,600.0,120.0,0.0,0.0
2183,88.0,0.0,120.0,0.0,0.0
2184,84.0,0.0,120.0,0.0,0.0
2185,35.0,0.0,960.0,0.0,0.0
2186,83.0,480.0,720.0,0.0,0.0
2187,88.0,240.0,240.0,0.0,0.0
2188,79.0,0.0,240.0,0.0,0.0
2189,52.0,0.0,480.0,0.0,0.0
2190,78.0,240.0,240.0,0.0,0.0
2191,87.0,0.0,240.0,0.0,0.0
2192,79.0,0.0,240.0,0.0,0.0
2193,88.0,0.0,240.0,0.0,0.0
2194,47.0,0.0,960.0,0.0,0.0
2195,55.0,0.0,480.0,0.0,0.0
2196,76.0,0.0,720.0,0.0,0.0
2197,83.0,240.0,240.0,0.0,0.0
2198,79.0,0.0,240.0,0.0,0.0
2199,59.0,0.0,1440.0,0.0,0.0
2200,78.0,240.0,240.0,0.0,0.0
2201,81.0,0.0,240.0,0.0,0.0
2202,83.0,0.0,240.0,0.0,0.0
2203,79.0,480.0,240.0,0.0,0.0
2204,64.0,0.0,480.0,0.0,0.0
2205,71.0,0.0,720.0,0.0,0.0
2206,79.0,0.0,240.0,0.0,0.0
2207,76.0,240.0,240.0,0.0,0.0
2208,67.0,0.0,480.0,0.0,0.0
2209,78.0,0.0,240.0,0.0,0.0
2210,75.0,240.0,240.0,0.0,0.0
2211,79.0,0.0,240.0,0.0,0.0
2212,35.0,480.0,960.0,0.0,0.0
2213,76.0,480.0,15.0,0.0,0.0
2214,72.0,0.0,15.0,0.0,0.0
2215,76.0,480.0,15.0,0.0,0.0
2216,69.0,0.0,480.0,0.0,0.0
2217,72.0,0.0,15.0,0.0,0.0
2218,76.0,0.0,15.0,0.0,0.0
2219,64.0,0.0,480.0,0.0,0.0
2220,47.0,0.0,960.0,0.0,0.0
2221,60.0,0.0,480.0,0.0,0.0
2222,69.0,480.0,480.0,0.0,0.0
2223,77.0,0.0,480.0,0.0,0.0
2224,35.0,0.0,960.0,0.0,0.0
2225,84.0,480.0,720.0,0.0,0.0
2226,81.0,240.0,240.0,0.0,0.0
2227,90.0,0.0,240.0,0.0,0.0
2228,88.0,240.0,240.0,0.0,0.0
2229,79.0,0.0,240.0,0.0,0.0
2230,54.0,0.0,480.0,0.0,0.0
2231,81.0,0.0,240.0,0.0,0.0
2232,90.0,0.0,240.0,0.0,0.0
2233,47.0,0.0,960.0,0.0,0.0
2234,59.0,240.0,480.0,0.0,0.0
2235,78.0,480.0,720.0,0.0,0.0
2236,83.0,0.0,240.0,0.0,0.0
2237,86.0,0.0,240.0,0.0,0.0
2238,62.0,0.0,480.0,0.0,0.0
2239,81.0,240.0,240.0,0.0,0.0
2240,84.0,0.0,240.0,0.0,0.0
2241,86.0,0.0,240.0,0.0,0.0
2242,83.0,0.0,240.0,0.0,0.0
2243,59.0,0.0,960.0,0.0,0.0
2244,67.0,240.0,480.0,0.0,0.0
2245,74.0,480.0,720.0,0.0,0.0
2246,79.0,0.0,240.0,0.0,0.0
2247,83.0,0.0,240.0,0.0,0.0
2248,71.0,0.0,480.0,0.0,0.0
2249,81.0,0.0,240.0,0.0,0.0
2250,78.0,240.0,240.0,0.0,0.0
2251,79.0,0.0,240.0,0.0,0.0
2252,83.0,0.0,240.0,0.0,0.0
2253,76.0,0.0,480.0,0.0,0.0
2254,35.0,0.0,960.0,0.0,0.0
2255,79.0,480.0,15.0,0.0,0.0
2256,72.0,0.0,480.0,0.0,0.0
2257,47.0,0.0,960.0,0.0,0.0
2258,76.0,480.0,15.0,0.0,0.0
2259,79.0,0.0,480.0,0.0,0.0
2260,67.0,480.0,480.0,0.0,0.0
2261,81.0,480.0,480.0,0.0,0.0
2262,72.0,0.0,480.0,0.0,0.0
2263,64.0,0.0,480.0,0.0,0.0
2264,35.0,0.0,960.0,0.0,0.0
2265,95.0,240.0,240.0,0.0,0.0
2266,86.0,0.0,240.0,0.0,0.0
2267,90.0,480.0,720.0,0.0,0.0
2268,84.0,240.0,240.0,0.0,0.0
2269,93.0,0.0,240.0,0.0,0.0
2270,59.0,0.0,480.0,0.0,0.0
2271,47.0,0.0,1200.0,0.0,0.0
2272,86.0,0.0,240.0,0.0,0.0
2273,95.0,0.0,240.0,0.0,0.0
2274,64.0,0.0,480.0,0.0,0.0
2275,83.0,0.0,720.0,0.0,0.0
2276,91.0,0.0,240.0,0.0,0.0
2277,88.0,240.0,240.0,0.0,0.0
2278,67.0,0.0,480.0,0.0,0.0
2279,86.0,0.0,240.0,0.0,0.0
2280,90.0,240.0,240.0,0.0,0.0
2281,91.0,480.0,240.0,0.0,0.0
2282,88.0,0.0,240.0,0.0,0.0
2283,59.0,0.0,960.0,0.0,0.0
2284,72.0,240.0,480.0,0.0,0.0
2285,88.0,0.0,240.0,0.0,0.0
2286,79.0,0.0,720.0,0.0,0.0
2287,84.0,0.0,240.0,0.0,0.0
2288,76.0,0.0,480.0,0.0,0.0
2289,86.0,240.0,240.0,0.0,0.0
2290,83.0,0.0,240.0,0.0,0.0
2291,88.0,480.0,240.0,0.0,0.0
2292,84.0,0.0,15.0,0.0,0.0
2293,35.0,0.0,960.0,0.0,0.0
2294,78.0,0.0,480.0,0.0,0.0
2295,81.0,480.0,15.0,0.0,0.0
2296,84.0,0.0,15.0,0.0,0.0
2297,47.0,0.0,960.0,0.0,0.0
2298,72.0,0.0,480.0,0.0,0.0
2299,84.0,0.0,15.0,0.0,0.0
2300,81.0,480.0,15.0,0.0,0.0
2301,69.0,0.0,480.0,0.0,0.0
2302,84.0,480.0,15.0,0.0,0.0
2303,78.0,0.0,480.0,0.0,0.0
2304,82.0,0.0,480.0,0.0,0.0
2305,59.0,360.0,1440.0,0.0,0.0
2306,67.0,480.0,480.0,0.0,0.0
2307,79.0,0.0,15.0,0.0,0.0
2308,76.0,0.0,15.0,0.0,0.0
2309,85.0,0.0,15.0,0.0,0.0
2310,82.0,0.0,480.0,0.0,0.0
2311,64.0,0.0,480.0,0.0,0.0
2312,79.0,0.0,15.0,0.0,0.0
2313,61.0,0.0,480.0,0.0,0.0
2314,82.0,0.0,480.0,0.0,0.0
2315,85.0,0.0,480.0,0.0,0.0
2316,76.0,0.0,480.0,0.0,0.0
2317,82.0,0.0,480.0,0.0,0.0
2318,85.0,0.0,480.0,0.0,0.0
2319,79.0,120.0,480.0,0.0,0.0
2320,58.0,120.0,360.0,0.0,0.0
2321,76.0,0.0,480.0,0.0,0.0
2322,47.0,0.0,240.0,0.0,0.0
2323,52.0,480.0,180.0,0.0,0.0
2324,55.0,0.0,120.0,0.0,0.0
2325,47.0,0.0,240.0,0.0,0.0
2326,52.0,0.0,180.0,0.0,0.0
2327,91.0,0.0,120.0,0.0,0.0
2328,55.0,120.0,120.0,0.0,0.0
2329,88.0,120.0,120.0,0.0,0.0
2330,85.0,120.0,120.0,0.0,0.0
2331,47.0,120.0,240.0,0.0,0.0
2332,82.0,120.0,120.0,0.0,0.0
2333,52.0,0.0,180.0,0.0,0.0
2334,55.0,0.0,120.0,0.0,0.0
2335,76.0,0.0,120.0,0.0,0.0
2336,73.0,120.0,120.0,0.0,0.0
2337,70.0,120.0,120.0,0.0,0.0
2338,67.0,120.0,120.0,0.0,0.0
2339,47.0,0.0,240.0,0.0,0.0
2340,52.0,0.0,180.0,0.0,0.0
2341,55.0,120.0,120.0,0.0,0.0
2342,61.0,0.0,120.0,0.0,0.0
2343,58.0,120.0,120.0,0.0,0.0
2344,55.0,120.0,120.0,0.0,0.0
2345,52.0,480.0,120.0,0.0,0.0
2346,59.0,0.0,480.0,0.0,0.0
2347,47.0,480.0,480.0,0.0,0.0
2348,47.0,0.0,480.0,0.0,0.0
2349,45.0,0.0,480.0,0.0,0.0
2350,43.0,480.0,480.0,0.0,0.0
2351,47.0,0.0,480.0,0.0,0.0
2352,59.0,480.0,15.0,0.0,0.0
2353,59.0,0.0,15.0,0.0,0.0
2354,57.0,0.0,480.0,0.0,0.0
2355,42.0,480.0,480.0,0.0,0.0
2356,47.0,0.0,480.0,0.0,0.0
2357,59.0,0.0,15.0,0.0,0.0
2358,40.0,480.0,480.0,0.0,0.0
2359,47.0,0.0,480.0,0.0,0.0
2360,61.0,0.0,480.0,0.0,0.0
2361,55.0,0.0,15.0,0.0,0.0
2362,39.0,0.0,480.0,0.0,0.0
2363,51.0,0.0,480.0,0.0,0.0
2364,43.0,0.0,480.0,0.0,0.0
2365,62.0,0.0,1920.0,0.0,0.0
2366,54.0,480.0,1920.0,0.0,0.0
2367,45.0,0.0,960.0,0.0,0.0
2368,38.0,0.0,240.0,0.0,0.0
2369,26.0,120.0,240.0,0.0,0.0
2370,105.0,120.0,120.0,0.0,0.0
2371,102.0,0.0,120.0,0.0,0.0
2372,93.0,120.0,120.0,0.0,0.0
2373,89.0,0.0,120.0,0.0,0.0
2374,26.0,0.0,240.0,0.0,0.0
2375,38.0,120.0,15.0,0.0,0.0
2376,90.0,120.0,120.0,0.0,0.0
2377,86.0,120.0,120.0,0.0,0.0
2378,78.0,120.0,120.0,0.0,0.0
2379,73.0,120.0,120.0,0.0,0.0
2380,38.0,0.0,240.0,0.0,0.0
2381,26.0,0.0,240.0,0.0,0.0
2382,74.0,120.0,120.0,0.0,0.0
2383,69.0,120.0,120.0,0.0,0.0
2384,66.0,120.0,120.0,0.0,0.0
2385,64.0,0.0,120.0,0.0,0.0
2386,50.0,0.0,15.0,0.0,0.0
2387,62.0,0.0,480.0,0.0,0.0
2388,46.0,0.0,480.0,0.0,0.0
2389,43.0,480.0,480.0,0.0,0.0
2390,58.0,0.0,480.0,0.0,0.0
2391,62.0,480.0,15.0,0.0,0.0
2392,39.0,0.0,480.0,0.0,0.0
2393,63.0,0.0,480.0,0.0,0.0
2394,55.0,0.0,480.0,0.0,0.0
2395,58.0,440.0,480.0,0.0,0.0
2396,36.0,0.0,450.0,0.0,0.0
2397,55.0,0.0,450.0,0.0,0.0
2398,63.0,0.0,450.0,0.0,0.0
2399,60.0,520.0,450.0,0.0,0.0
2400,68.0,0.0,480.0,0.0,0.0
2401,63.0,600.0,480.0,0.0,0.0
2402,60.0,0.0,480.0,0.0,0.0
2403,32.0,0.0,480.0,0.0,0.0
2404,44.0,0.0,480.0,0.0,0.0
2405,51.0,0.0,960.0,0.0,0.0
2406,58.0,0.0,1920.0,0.0,0.0
2407,63.0,0.0,1920.0,0.0,0.0
2408,106.0,120.0,120.0,0.0,0.0
2409,27.0,0.0,240.0,0.0,0.0
2410,39.0,0.0,240.0,0.0,0.0
2411,103.0,120.0,120.0,0.0,0.0
2412,94.0,120.0,120.0,0.0,0.0
2413,90.0,0.0,120.0,0.0,0.0
2414,27.0,0.0,240.0,0.0,0.0
2415,39.0,120.0,15.0,0.0,0.0
2416,91.0,120.0,120.0,0.0,0.0
2417,87.0,0.0,120.0,0.0,0.0
2418,79.0,120.0,120.0,0.0,0.0
2419,74.0,120.0,120.0,0.0,0.0
2420,75.0,120.0,120.0,0.0,0.0
2421,39.0,0.0,240.0,0.0,0.0
2422,27.0,120.0,240.0,0.0,0.0
2423,70.0,0.0,120.0,0.0,0.0
2424,67.0,120.0,120.0,0.0,0.0
2425,65.0,0.0,120.0,0.0,0.0
2426,63.0,0.0,480.0,0.0,0.0
2427,51.0,480.0,480.0,0.0,0.0
2428,63.0,0.0,480.0,0.0,0.0
2429,49.0,0.0,480.0,0.0,0.0
2430,47.0,480.0,480.0,0.0,0.0
2431,51.0,480.0,15.0,0.0,0.0
2432,63.0,0.0,480.0,0.0,0.0
2433,46.0,0.0,480.0,0.0,0.0
2434,51.0,0.0,480.0,0.0,0.0
2435,61.0,0.0,480.0,0.0,0.0
2436,63.0,480.0,15.0,0.0,0.0
2437,44.0,480.0,480.0,0.0,0.0
2438,51.0,0.0,480.0,0.0,0.0
2439,59.0,0.0,480.0,0.0,0.0
2440,42.0,0.0,480.0,0.0,0.0
2441,46.0,0.0,480.0,0.0,0.0
2442,54.0,600.0,480.0,0.0,0.0
2443,58.0,0.0,480.0,0.0,0.0
2444,64.0,0.0,480.0,0.0,0.0
2445,57.0,0.0,1920.0,0.0,0.0
2446,53.0,0.0,960.0,0.0,0.0
2447,48.0,120.0,960.0,0.0,0.0
2448,29.0,0.0,240.0,0.0,0.0
2449,108.0,120.0,120.0,0.0,0.0
2450,41.0,0.0,240.0,0.0,0.0
2451,105.0,120.0,120.0,0.0,0.0
2452,96.0,120.0,120.0,0.0,0.0
2453,92.0,0.0,120.0,0.0,0.0
2454,93.0,120.0,120.0,0.0,0.0
2455,41.0,0.0,15.0,0.0,0.0
2456,29.0,120.0,240.0,0.0,0.0
2457,89.0,0.0,120.0,0.0,0.0
2458,81.0,120.0,120.0,0.0,0.0
2459,76.0,120.0,120.0,0.0,0.0
2460,77.0,120.0,120.0,0.0,0.0
2461,29.0,0.0,240.0,0.0,0.0
2462,41.0,0.0,240.0,0.0,0.0
2463,72.0,120.0,120.0,0.0,0.0
2464,69.0,120.0,120.0,0.0,0.0
2465,67.0,0.0,120.0,0.0,0.0
2466,65.0,475.0,15.0,0.0,0.0
2467,53.0,480.0,480.0,0.0,0.0
2468,62.0,480.0,480.0,0.0,0.0
2469,58.0,0.0,480.0,0.0,0.0
2470,50.0,0.0,15.0,0.0,0.0
2471,46.0,0.0,480.0,0.0,0.0
2472,74.0,0.0,480.0,0.0,0.0
2473,65.0,0.0,15.0,0.0,0.0
2474,77.0,0.0,15.0,0.0,0.0
2475,43.0,0.0,480.0,0.0,0.0
2476,50.0,480.0,480.0,0.0,0.0
2477,55.0,0.0,480.0,0.0,0.0
2478,74.0,0.0,480.0,0.0,0.0
2479,79.0,0.0,480.0,0.0,0.0
2480,82.0,0.0,480.0,0.0,0.0
2481,70.0,0.0,15.0,0.0,0.0
2482,39.0,0.0,480.0,0.0,0.0
2483,43.0,0.0,480.0,0.0,0.0
2484,79.0,0.0,480.0,0.0,0.0
2485,75.0,0.0,480.0,0.0,0.0
2486,82.0,0.0,480.0,0.0,0.0
2487,51.0,0.0,480.0,0.0,0.0
2488,36.0,600.0,480.0,0.0,0.0
2489,43.0,0.0,480.0,0.0,0.0
2490,48.0,0.0,480.0,0.0,0.0
2491,87.0,0.0,480.0,0.0,0.0
2492,84.0,0.0,480.0,0.0,0.0
2493,75.0,0.0,480.0,0.0,0.0
2494,79.0,0.0,480.0,0.0,0.0
2495,78.0,120.0,960.0,0.0,0.0
2496,81.0,0.0,960.0,0.0,0.0
2497,86.0,0.0,960.0,0.0,0.0
2498,38.0,0.0,960.0,0.0,0.0
2499,42.0,0.0,960.0,0.0,0.0
2500,45.0,0.0,960.0,0.0,0.0
2501,50.0,0.0,960.0,0.0,0.0
2502,66.0,0.0,960.0,0.0,0.0
2503,105.0,120.0,120.0,0.0,0.0
2504,74.0,0.0,480.0,0.0,0.0
2505,62.0,0.0,960.0,0.0,0.0
2506,69.0,0.0,960.0,0.0,0.0
2507,102.0,120.0,120.0,0.0,0.0
2508,93.0,120.0,120.0,0.0,0.0
2509,90.0,0.0,120.0,0.0,0.0
2510,86.0,120.0,120.0,0.0,0.0
2511,78.0,240.0,120.0,0.0,0.0
2512,74.0,480.0,240.0,0.0,0.0
2513,55.0,0.0,480.0,0.0,0.0
2514,58.0,0.0,480.0,0.0,0.0
2515,67.0,0.0,480.0,0.0,0.0
2516,82.0,0.0,480.0,0.0,0.0
2517,91.0,600.0,480.0,0.0,0.0
2518,94.0,0.0,480.0,0.0,0.0
2519,93.0,0.0,960.0,0.0,0.0
2520,90.0,0.0,960.0,0.0,0.0
2521,86.0,0.0,15.0,0.0,0.0
2522,62.0,0.0,15.0,0.0,0.0
2523,66.0,120.0,960.0,0.0,0.0
2524,81.0,0.0,480.0,0.0,0.0
2525,69.0,0.0,480.0,0.0,0.0
2526,74.0,0.0,480.0,0.0,0.0
2527,78.0,0.0,960.0,0.0,0.0
2528,38.0,120.0,120.0,0.0,0.0
2529,45.0,120.0,120.0,0.0,0.0
2530,50.0,120.0,120.0,0.0,0.0
2531,54.0,0.0,120.0,0.0,0.0
2532,62.0,120.0,120.0,0.0,0.0
2533,66.0,240.0,120.0,0.0,0.0
2534,69.0,0.0,240.0,0.0,0.0
2535,43.0,0.0,480.0,0.0,0.0
2536,79.0,0.0,480.0,0.0,0.0
2537,82.0,600.0,480.0,0.0,0.0
2538,87.0,0.0,480.0,0.0,0.0
2539,91.0,0.0,480.0,0.0,0.0
2540,39.0,0.0,480.0,0.0,0.0
2541,46.0,0.0,480.0,0.0,0.0
2542,51.0,0.0,480.0,0.0,0.0
2543,45.0,120.0,960.0,0.0,0.0
2544,41.0,0.0,960.0,0.0,0.0
2545,81.0,0.0,960.0,0.0,0.0
2546,84.0,0.0,960.0,0.0,0.0
2547,48.0,0.0,960.0,0.0,0.0
2548,53.0,0.0,960.0,0.0,0.0
2549,69.0,0.0,960.0,0.0,0.0
2550,72.0,480.0,960.0,0.0,0.0
2551,77.0,0.0,480.0,0.0,0.0
2552,65.0,0.0,960.0,0.0,0.0
2553,108.0,120.0,120.0,0.0,0.0
2554,105.0,120.0,120.0,0.0,0.0
2555,96.0,120.0,120.0,0.0,0.0
2556,93.0,0.0,120.0,0.0,0.0
2557,89.0,0.0,15.0,0.0,0.0
2558,81.0,240.0,120.0,0.0,0.0
2559,77.0,0.0,240.0,0.0,0.0
2560,62.0,0.0,480.0,0.0,0.0
2561,94.0,0.0,480.0,0.0,0.0
2562,98.0,0.0,480.0,0.0,0.0
2563,58.0,600.0,480.0,0.0,0.0
2564,70.0,0.0,480.0,0.0,0.0
2565,65.0,0.0,480.0,0.0,0.0
2566,86.0,0.0,480.0,0.0,0.0
2567,89.0,0.0,15.0,0.0,0.0
2568,93.0,0.0,960.0,0.0,0.0
2569,96.0,0.0,960.0,0.0,0.0
2570,69.0,0.0,960.0,0.0,0.0
2571,65.0,0.0,960.0,0.0,0.0
2572,72.0,120.0,480.0,0.0,0.0
2573,84.0,0.0,480.0,0.0,0.0
2574,77.0,0.0,480.0,0.0,0.0
2575,41.0,120.0,120.0,0.0,0.0
2576,81.0,0.0,960.0,0.0,0.0
2577,48.0,120.0,120.0,0.0,0.0
2578,53.0,120.0,120.0,0.0,0.0
2579,57.0,0.0,120.0,0.0,0.0
2580,65.0,120.0,120.0,0.0,0.0
2581,69.0,240.0,120.0,0.0,0.0
2582,80.0,0.0,960.0,0.0,0.0
2583,84.0,0.0,15.0,0.0,0.0
2584,72.0,0.0,15.0,0.0,0.0
2585,77.0,0.0,15.0,0.0,0.0
2586,41.0,120.0,120.0,0.0,0.0
2587,48.0,120.0,120.0,0.0,0.0
2588,53.0,120.0,120.0,0.0,0.0
2589,56.0,120.0,120.0,0.0,0.0
2590,65.0,120.0,120.0,0.0,0.0
2591,68.0,240.0,120.0,0.0,0.0
2592,72.0,0.0,240.0,0.0,0.0
2593,34.0,120.0,240.0,0.0,0.0
2594,96.0,0.0,480.0,0.0,0.0
2595,92.0,0.0,480.0,0.0,0.0
2596,84.0,0.0,15.0,0.0,0.0
2597,89.0,0.0,480.0,0.0,0.0
2598,38.0,0.0,120.0,0.0,0.0
2599,41.0,120.0,120.0,0.0,0.0
2600,46.0,120.0,120.0,0.0,0.0
2601,50.0,120.0,120.0,0.0,0.0
2602,94.0,0.0,480.0,0.0,0.0
2603,82.0,0.0,480.0,0.0,0.0
2604,53.0,120.0,120.0,0.0,0.0
2605,58.0,120.0,120.0,0.0,0.0
2606,62.0,0.0,120.0,0.0,0.0
2607,65.0,120.0,240.0,0.0,0.0
2608,89.0,240.0,15.0,0.0,0.0
2609,86.0,0.0,15.0,0.0,0.0
2610,93.0,0.0,480.0,0.0,0.0
2611,81.0,0.0,480.0,0.0,0.0
2612,70.0,0.0,120.0,0.0,0.0
2613,74.0,120.0,120.0,0.0,0.0
2614,70.0,0.0,210.0,0.0,0.0
2615,74.0,0.0,180.0,0.0,0.0
2616,77.0,0.0,20.0,0.0,0.0
2617,82.0,0.0,120.0,0.0,0.0
2618,80.0,0.0,480.0,0.0,0.0
2619,86.0,240.0,480.0,0.0,0.0
2620,92.0,0.0,480.0,0.0,0.0
2621,89.0,0.0,480.0,0.0,0.0
2622,75.0,120.0,240.0,0.0,0.0
2623,87.0,0.0,480.0,0.0,0.0
2624,70.0,0.0,120.0,0.0,0.0
2625,67.0,120.0,120.0,0.0,0.0
2626,63.0,0.0,120.0,0.0,0.0
2627,58.0,120.0,240.0,0.0,0.0
2628,79.0,0.0,15.0,0.0,0.0
2629,86.0,0.0,480.0,0.0,0.0
2630,91.0,240.0,15.0,0.0,0.0
2631,55.0,0.0,120.0,0.0,0.0
2632,51.0,120.0,120.0,0.0,0.0
2633,46.0,0.0,120.0,0.0,0.0
2634,79.0,0.0,15.0,0.0,0.0
2635,91.0,240.0,15.0,0.0,0.0
2636,85.0,0.0,480.0,0.0,0.0
2637,43.0,120.0,240.0,0.0,0.0
2638,39.0,0.0,120.0,0.0,0.0
2639,34.0,120.0,120.0,0.0,0.0
2640,31.0,360.0,120.0,0.0,0.0
2641,86.0,0.0,360.0,0.0,0.0
2642,83.0,0.0,360.0,0.0,0.0
2643,62.0,0.0,360.0,0.0,0.0
2644,67.0,0.0,360.0,0.0,0.0
2645,71.0,0.0,360.0,0.0,0.0
2646,74.0,0.0,360.0,0.0,0.0
2647,91.0,240.0,360.0,0.0,0.0
2648,79.0,0.0,360.0,0.0,0.0
2649,62.0,240.0,120.0,0.0,0.0
2650,69.0,0.0,120.0,0.0,0.0
2651,81.0,0.0,120.0,0.0,0.0
2652,74.0,0.0,120.0,0.0,0.0
2653,78.0,0.0,120.0,0.0,0.0
2654,50.0,0.0,120.0,0.0,0.0
2655,43.0,0.0,120.0,0.0,0.0
2656,55.0,0.0,120.0,0.0,0.0
2657,83.0,600.0,120.0,0.0,0.0
2658,79.0,0.0,120.0,0.0,0.0
2659,74.0,0.0,120.0,0.0,0.0
2660,71.0,0.0,120.0,0.0,0.0
2661,67.0,0.0,480.0,0.0,0.0
2662,64.0,0.0,480.0,0.0,0.0
2663,60.0,0.0,480.0,0.0,0.0
2664,76.0,0.0,480.0,0.0,0.0
2665,84.0,0.0,480.0,0.0,0.0
2666,72.0,0.0,480.0,0.0,0.0
2667,71.0,0.0,120.0,0.0,0.0
2668,83.0,0.0,120.0,0.0,0.0
2669,79.0,0.0,15.0,0.0,0.0
2670,74.0,0.0,120.0,0.0,0.0
2671,43.0,240.0,120.0,0.0,0.0
2672,55.0,120.0,15.0,0.0,0.0
2673,81.0,600.0,120.0,0.0,0.0
2674,76.0,0.0,120.0,0.0,0.0
2675,69.0,0.0,120.0,0.0,0.0
2676,79.0,0.0,120.0,0.0,0.0
2677,36.0,0.0,120.0,0.0,0.0
2678,48.0,0.0,120.0,0.0,0.0
2679,83.0,0.0,480.0,0.0,0.0
2680,50.0,0.0,480.0,0.0,0.0
2681,43.0,120.0,480.0,0.0,0.0
2682,71.0,0.0,480.0,0.0,0.0
2683,74.0,0.0,480.0,0.0,0.0
2684,79.0,0.0,480.0,0.0,0.0
2685,55.0,0.0,480.0,0.0,0.0
2686,72.0,240.0,120.0,0.0,0.0
2687,69.0,0.0,120.0,0.0,0.0
2688,81.0,0.0,120.0,0.0,0.0
2689,38.0,0.0,120.0,0.0,0.0
2690,50.0,0.0,120.0,0.0,0.0
2691,78.0,0.0,120.0,0.0,0.0
2692,67.0,0.0,120.0,0.0,0.0
2693,71.0,0.0,120.0,0.0,0.0
2694,74.0,240.0,120.0,0.0,0.0
2695,79.0,0.0,120.0,0.0,0.0
2696,31.0,0.0,120.0,0.0,0.0
2697,43.0,0.0,120.0,0.0,0.0
2698,78.0,0.0,120.0,0.0,0.0
2699,69.0,0.0,120.0,0.0,0.0
2700,81.0,0.0,120.0,0.0,0.0
2701,50.0,240.0,120.0,0.0,0.0
2702,38.0,0.0,120.0,0.0,0.0
2703,74.0,0.0,120.0,0.0,0.0
2704,62.0,0.0,120.0,0.0,0.0
2705,50.0,600.0,120.0,0.0,0.0
2706,76.0,0.0,480.0,0.0,0.0
2707,43.0,480.0,480.0,0.0,0.0
2708,55.0,0.0,480.0,0.0,0.0
2709,67.0,0.0,15.0,0.0,0.0
2710,78.0,0.0,480.0,0.0,0.0
2711,74.0,0.0,480.0,0.0,0.0
2712,79.0,0.0,15.0,0.0,0.0
2713,55.0,0.0,480.0,0.0,0.0
2714,62.0,0.0,480.0,0.0,0.0
2715,66.0,420.0,480.0,0.0,0.0
2716,79.0,0.0,15.0,0.0,0.0
2717,76.0,60.0,420.0,0.0,0.0
2718,72.0,0.0,420.0,0.0,0.0
2719,67.0,0.0,15.0,0.0,0.0
2720,64.0,0.0,480.0,0.0,0.0
2721,60.0,0.0,480.0,0.0,0.0
2722,55.0,480.0,480.0,0.0,0.0
2723,71.0,0.0,480.0,0.0,0.0
2724,79.0,0.0,480.0,0.0,0.0
2725,67.0,0.0,480.0,0.0,0.0
2726,43.0,0.0,480.0,0.0,0.0
2727,50.0,0.0,480.0,0.0,0.0
2728,55.0,0.0,480.0,0.0,0.0
2729,69.0,0.0,120.0,0.0,0.0
2730,38.0,0.0,120.0,0.0,0.0
2731,66.0,0.0,120.0,0.0,0.0
2732,78.0,0.0,120.0,0.0,0.0
2733,74.0,120.0,15.0,0.0,0.0
2734,50.0,0.0,120.0,0.0,0.0
2735,67.0,600.0,120.0,0.0,0.0
2736,71.0,0.0,120.0,0.0,0.0
2737,79.0,0.0,120.0,0.0,0.0
2738,74.0,0.0,120.0,0.0,0.0
2739,43.0,0.0,120.0,0.0,0.0
2740,31.0,0.0,120.0,0.0,0.0
2741,83.0,0.0,480.0,0.0,0.0
2742,55.0,0.0,480.0,0.0,0.0
2743,52.0,120.0,480.0,0.0,0.0
2744,64.0,0.0,480.0,0.0,0.0
2745,71.0,0.0,480.0,0.0,0.0
2746,59.0,0.0,480.0,0.0,0.0
2747,79.0,0.0,480.0,0.0,0.0
2748,72.0,240.0,120.0,0.0,0.0
2749,76.0,0.0,15.0,0.0,0.0
2750,69.0,0.0,120.0,0.0,0.0
2751,81.0,0.0,120.0,0.0,0.0
2752,45.0,0.0,120.0,0.0,0.0
2753,57.0,0.0,120.0,0.0,0.0
2754,52.0,0.0,120.0,0.0,0.0
2755,40.0,0.0,120.0,0.0,0.0
2756,71.0,0.0,120.0,0.0,0.0
2757,67.0,0.0,120.0,0.0,0.0
2758,79.0,0.0,120.0,0.0,0.0
2759,76.0,600.0,120.0,0.0,0.0
2760,54.0,120.0,480.0,0.0,0.0
2761,50.0,0.0,480.0,0.0,0.0
2762,47.0,0.0,480.0,0.0,0.0
2763,74.0,0.0,480.0,0.0,0.0
2764,66.0,0.0,480.0,0.0,0.0
2765,78.0,0.0,480.0,0.0,0.0
2766,59.0,0.0,480.0,0.0,0.0
2767,64.0,0.0,120.0,0.0,0.0
2768,67.0,0.0,120.0,0.0,0.0
2769,71.0,0.0,15.0,0.0,0.0
2770,76.0,0.0,120.0,0.0,0.0
2771,52.0,0.0,120.0,0.0,0.0
2772,40.0,0.0,120.0,0.0,0.0
2773,62.0,0.0,120.0,0.0,0.0
2774,71.0,0.0,120.0,0.0,0.0
2775,74.0,0.0,120.0,0.0,0.0
2776,47.0,240.0,120.0,0.0,0.0
2777,35.0,0.0,120.0,0.0,0.0
2778,66.0,0.0,120.0,0.0,0.0
2779,61.0,240.0,120.0,0.0,0.0
2780,73.0,0.0,120.0,0.0,0.0
2781,42.0,0.0,120.0,0.0,0.0
2782,70.0,0.0,120.0,0.0,0.0
2783,30.0,0.0,120.0,0.0,0.0
2784,42.0,0.0,120.0,0.0,0.0
2785,66.0,600.0,120.0,0.0,0.0
2786,54.0,0.0,120.0,0.0,0.0
2787,35.0,0.0,480.0,0.0,0.0
2788,71.0,0.0,480.0,0.0,0.0
2789,47.0,0.0,15.0,0.0,0.0
2790,58.0,0.0,480.0,0.0,0.0
2791,59.0,480.0,15.0,0.0,0.0
2792,70.0,0.0,480.0,0.0,0.0
2793,71.0,0.0,480.0,0.0,0.0
2794,59.0,420.0,15.0,0.0,0.0
2795,69.0,540.0,420.0,0.0,0.0
2796,71.0,0.0,420.0,0.0,0.0
2797,47.0,0.0,420.0,0.0,0.0
2798,57.0,0.0,420.0,0.0,0.0
2799,67.0,0.0,480.0,0.0,0.0
2800,59.0,0.0,480.0,0.0,0.0
2801,55.0,0.0,480.0,0.0,0.0
2802,83.0,240.0,480.0,0.0,0.0
2803,79.0,0.0,480.0,0.0,0.0
2804,71.0,0.0,480.0,0.0,0.0
2805,62.0,0.0,15.0,0.0,0.0
2806,50.0,0.0,240.0,0.0,0.0
2807,74.0,0.0,15.0,0.0,0.0
2808,81.0,0.0,240.0,0.0,0.0
2809,78.0,0.0,240.0,0.0,0.0
2810,69.0,0.0,240.0,0.0,0.0
2811,43.0,0.0,240.0,0.0,0.0
2812,55.0,0.0,240.0,0.0,0.0
2813,71.0,0.0,240.0,0.0,0.0
2814,74.0,0.0,240.0,0.0,0.0
2815,79.0,480.0,240.0,0.0,0.0
2816,83.0,0.0,240.0,0.0,0.0
2817,48.0,0.0,480.0,0.0,0.0
2818,55.0,240.0,480.0,0.0,0.0
2819,60.0,0.0,480.0,0.0,0.0
2820,79.0,0.0,480.0,0.0,0.0
2821,72.0,0.0,480.0,0.0,0.0
2822,76.0,0.0,480.0,0.0,0.0
2823,84.0,0.0,480.0,0.0,0.0
2824,71.0,0.0,240.0,0.0,0.0
2825,74.0,240.0,240.0,0.0,0.0
2826,83.0,0.0,240.0,0.0,0.0
2827,43.0,0.0,240.0,0.0,0.0
2828,55.0,0.0,240.0,0.0,0.0
2829,79.0,0.0,240.0,0.0,0.0
2830,48.0,0.0,240.0,0.0,0.0
2831,36.0,0.0,240.0,0.0,0.0
2832,81.0,480.0,240.0,0.0,0.0
2833,76.0,0.0,240.0,0.0,0.0
2834,69.0,0.0,240.0,0.0,0.0
2835,55.0,0.0,480.0,0.0,0.0
2836,43.0,0.0,480.0,0.0,0.0
2837,79.0,0.0,15.0,0.0,0.0
2838,83.0,240.0,480.0,0.0,0.0
2839,71.0,0.0,480.0,0.0,0.0
2840,74.0,0.0,480.0,0.0,0.0
2841,50.0,0.0,15.0,0.0,0.0
2842,38.0,0.0,240.0,0.0,0.0
2843,72.0,0.0,240.0,0.0,0.0
2844,69.0,0.0,240.0,0.0,0.0
2845,78.0,240.0,240.0,0.0,0.0
2846,81.0,0.0,240.0,0.0,0.0
2847,31.0,0.0,240.0,0.0,0.0
2848,43.0,240.0,240.0,0.0,0.0
2849,71.0,0.0,240.0,0.0,0.0
2850,67.0,0.0,240.0,0.0,0.0
2851,79.0,0.0,240.0,0.0,0.0
2852,74.0,0.0,240.0,0.0,0.0
2853,81.0,0.0,240.0,0.0,0.0
2854,69.0,0.0,240.0,0.0,0.0
2855,78.0,0.0,240.0,0.0,0.0
2856,38.0,0.0,240.0,0.0,0.0
2857,74.0,480.0,240.0,0.0,0.0
2858,62.0,0.0,240.0,0.0,0.0
2859,50.0,240.0,15.0,0.0,0.0
2860,43.0,480.0,480.0,0.0,0.0
2861,55.0,0.0,480.0,0.0,0.0
2862,79.0,0.0,480.0,0.0,0.0
2863,67.0,0.0,15.0,0.0,0.0
2864,77.0,0.0,480.0,0.0,0.0
2865,79.0,0.0,480.0,0.0,0.0
2866,41.0,0.0,480.0,0.0,0.0
2867,53.0,420.0,480.0,0.0,0.0
2868,43.0,0.0,15.0,0.0,0.0
2869,50.0,0.0,420.0,0.0,0.0
2870,67.0,0.0,420.0,0.0,0.0
2871,74.0,540.0,420.0,0.0,0.0
2872,38.0,0.0,420.0,0.0,0.0
2873,79.0,0.0,420.0,0.0,0.0
2874,84.0,0.0,480.0,0.0,0.0
2875,87.0,0.0,480.0,0.0,0.0
2876,96.0,0.0,480.0,0.0,0.0
2877,91.0,0.0,480.0,0.0,0.0
2878,36.0,120.0,480.0,0.0,0.0
2879,43.0,0.0,480.0,0.0,0.0
2880,48.0,0.0,480.0,0.0,0.0
2881,86.0,0.0,120.0,0.0,0.0
2882,78.0,0.0,120.0,0.0,0.0
2883,90.0,0.0,120.0,0.0,0.0
2884,51.0,0.0,120.0,0.0,0.0
2885,39.0,240.0,120.0,0.0,0.0
2886,91.0,0.0,120.0,0.0,0.0
2887,48.0,600.0,120.0,0.0,0.0
2888,79.0,0.0,120.0,0.0,0.0
2889,36.0,0.0,120.0,0.0,0.0
2890,87.0,0.0,120.0,0.0,0.0
2891,84.0,120.0,480.0,0.0,0.0
2892,80.0,0.0,480.0,0.0,0.0
2893,87.0,0.0,480.0,0.0,0.0
2894,51.0,0.0,480.0,0.0,0.0
2895,44.0,0.0,480.0,0.0,0.0
2896,48.0,0.0,480.0,0.0,0.0
2897,56.0,0.0,480.0,0.0,0.0
2898,75.0,0.0,480.0,0.0,0.0
2899,83.0,0.0,120.0,0.0,0.0
2900,71.0,0.0,120.0,0.0,0.0
2901,79.0,240.0,120.0,0.0,0.0
2902,60.0,0.0,120.0,0.0,0.0
2903,48.0,0.0,120.0,0.0,0.0
2904,80.0,0.0,120.0,0.0,0.0
2905,84.0,600.0,120.0,0.0,0.0
2906,72.0,0.0,120.0,0.0,0.0
2907,44.0,0.0,120.0,0.0,0.0
2908,56.0,0.0,120.0,0.0,0.0
2909,53.0,0.0,480.0,0.0,0.0
2910,56.0,0.0,480.0,0.0,0.0
2911,60.0,0.0,480.0,0.0,0.0
2912,65.0,0.0,480.0,0.0,0.0
2913,77.0,0.0,480.0,0.0,0.0
2914,80.0,0.0,480.0,0.0,0.0
2915,68.0,120.0,480.0,0.0,0.0
2916,72.0,0.0,15.0,0.0,0.0
2917,76.0,0.0,120.0,0.0,0.0
2918,64.0,240.0,120.0,0.0,0.0
2919,56.0,0.0,120.0,0.0,0.0
2920,44.0,0.0,120.0,0.0,0.0
2921,68.0,600.0,120.0,0.0,0.0
2922,77.0,0.0,120.0,0.0,0.0
2923,65.0,0.0,120.0,0.0,0.0
2924,41.0,0.0,120.0,0.0,0.0
2925,53.0,0.0,120.0,0.0,0.0
2926,69.0,0.0,480.0,0.0,0.0
2927,75.0,0.0,480.0,0.0,0.0
2928,63.0,120.0,480.0,0.0,0.0
2929,48.0,0.0,480.0,0.0,0.0
2930,54.0,0.0,480.0,0.0,0.0
2931,66.0,0.0,480.0,0.0,0.0
2932,57.0,0.0,480.0,0.0,0.0
2933,60.0,0.0,480.0,0.0,0.0
2934,58.0,0.0,120.0,0.0,0.0
2935,46.0,0.0,120.0,0.0,0.0
2936,62.0,0.0,120.0,0.0,0.0
2937,67.0,240.0,120.0,0.0,0.0
2938,45.0,0.0,120.0,0.0,0.0
2939,57.0,0.0,120.0,0.0,0.0
2940,67.0,0.0,120.0,0.0,0.0
2941,72.0,0.0,120.0,0.0,0.0
2942,63.0,120.0,120.0,0.0,0.0
2943,50.0,0.0,360.0,0.0,0.0
2944,74.0,360.0,15.0,0.0,0.0
2945,67.0,0.0,360.0,0.0,0.0
2946,70.0,0.0,360.0,0.0,0.0
2947,62.0,0.0,360.0,0.0,0.0
2948,60.0,0.0,360.0,0.0,0.0
2949,66.0,240.0,360.0,0.0,0.0
2950,74.0,0.0,360.0,0.0,0.0
2951,69.0,0.0,360.0,0.0,0.0
2952,50.0,0.0,360.0,0.0,0.0
2953,38.0,0.0,360.0,0.0,0.0
2954,43.0,0.0,120.0,0.0,0.0
2955,67.0,0.0,120.0,0.0,0.0
2956,58.0,120.0,120.0,0.0,0.0
2957,62.0,0.0,120.0,0.0,0.0
2958,50.0,120.0,120.0,0.0,0.0
2959,55.0,120.0,120.0,0.0,0.0
2960,74.0,120.0,120.0,0.0,0.0
2961,58.0,0.0,120.0,0.0,0.0
2962,86.0,0.0,120.0,0.0,0.0
2963,69.0,360.0,120.0,0.0,0.0
2964,50.0,120.0,480.0,0.0,0.0
2965,54.0,0.0,480.0,0.0,0.0
2966,60.0,0.0,480.0,0.0,0.0
2967,70.0,0.0,120.0,0.0,0.0
2968,82.0,0.0,120.0,0.0,0.0
2969,67.0,0.0,120.0,0.0,0.0
2970,43.0,120.0,120.0,0.0,0.0
2971,50.0,120.0,120.0,0.0,0.0
2972,55.0,120.0,120.0,0.0,0.0
2973,86.0,0.0,120.0,0.0,0.0
2974,74.0,0.0,120.0,0.0,0.0
2975,58.0,120.0,120.0,0.0,0.0
2976,60.0,120.0,480.0,0.0,0.0
2977,54.0,0.0,480.0,0.0,0.0
2978,50.0,0.0,480.0,0.0,0.0
2979,69.0,360.0,120.0,0.0,0.0
2980,70.0,0.0,120.0,0.0,0.0
2981,82.0,0.0,120.0,0.0,0.0
2982,67.0,120.0,120.0,0.0,0.0
2983,43.0,120.0,240.0,0.0,0.0
2984,51.0,0.0,120.0,0.0,0.0
2985,55.0,120.0,120.0,0.0,0.0
2986,58.0,120.0,120.0,0.0,0.0
2987,91.0,0.0,120.0,0.0,0.0
2988,79.0,0.0,120.0,0.0,0.0
2989,69.0,360.0,120.0,0.0,0.0
2990,61.0,0.0,480.0,0.0,0.0
2991,52.0,120.0,480.0,0.0,0.0
2992,55.0,0.0,480.0,0.0,0.0
2993,81.0,0.0,120.0,0.0,0.0
2994,93.0,0.0,120.0,0.0,0.0
2995,70.0,120.0,120.0,0.0,0.0
2996,43.0,120.0,240.0,0.0,0.0
2997,52.0,0.0,120.0,0.0,0.0
2998,55.0,120.0,120.0,0.0,0.0
2999,94.0,0.0,120.0,0.0,0.0
3000,82.0,0.0,120.0,0.0,0.0
3001,61.0,120.0,120.0,0.0,0.0
3002,73.0,360.0,120.0,0.0,0.0
3003,64.0,0.0,480.0,0.0,0.0
3004,58.0,0.0,480.0,0.0,0.0
3005,55.0,480.0,480.0,0.0,0.0
3006,97.0,0.0,120.0,0.0,0.0
3007,85.0,0.0,120.0,0.0,0.0
3008,94.0,0.0,480.0,0.0,0.0
3009,98.0,480.0,480.0,0.0,0.0
3010,86.0,0.0,480.0,0.0,0.0
3011,91.0,0.0,480.0,0.0,0.0
3012,46.0,0.0,480.0,0.0,0.0
3013,43.0,0.0,480.0,0.0,0.0
3014,38.0,0.0,480.0,0.0,0.0
3015,50.0,0.0,15.0,0.0,0.0
3016,57.0,120.0,480.0,0.0,0.0
3017,60.0,0.0,480.0,0.0,0.0
3018,62.0,0.0,480.0,0.0,0.0
3019,66.0,0.0,480.0,0.0,0.0
3020,78.0,0.0,480.0,0.0,0.0
3021,72.0,0.0,480.0,0.0,0.0
3022,74.0,0.0,480.0,0.0,0.0
3023,67.0,0.0,120.0,0.0,0.0
3024,70.0,0.0,120.0,0.0,0.0
3025,79.0,0.0,120.0,0.0,0.0
3026,39.0,120.0,120.0,0.0,0.0
3027,46.0,120.0,120.0,0.0,0.0
3028,51.0,120.0,120.0,0.0,0.0
3029,55.0,120.0,120.0,0.0,0.0
3030,87.0,0.0,120.0,0.0,0.0
3031,75.0,0.0,120.0,0.0,0.0
3032,56.0,0.0,480.0,0.0,0.0
3033,51.0,0.0,480.0,0.0,0.0
3034,62.0,120.0,480.0,0.0,0.0
3035,70.0,360.0,120.0,0.0,0.0
3036,71.0,0.0,120.0,0.0,0.0
3037,83.0,0.0,120.0,0.0,0.0
3038,67.0,0.0,120.0,0.0,0.0
3039,39.0,120.0,120.0,0.0,0.0
3040,46.0,120.0,120.0,0.0,0.0
3041,51.0,120.0,120.0,0.0,0.0
3042,87.0,0.0,120.0,0.0,0.0
3043,55.0,120.0,120.0,0.0,0.0
3044,75.0,0.0,120.0,0.0,0.0
3045,70.0,360.0,120.0,0.0,0.0
3046,62.0,120.0,480.0,0.0,0.0
3047,51.0,0.0,480.0,0.0,0.0
3048,56.0,0.0,480.0,0.0,0.0
3049,83.0,0.0,120.0,0.0,0.0
3050,71.0,0.0,120.0,0.0,0.0
3051,67.0,120.0,120.0,0.0,0.0
3052,39.0,0.0,120.0,0.0,0.0
3053,46.0,120.0,120.0,0.0,0.0
3054,51.0,120.0,120.0,0.0,0.0
3055,55.0,0.0,600.0,0.0,0.0
3056,94.0,0.0,120.0,0.0,0.0
3057,82.0,120.0,120.0,0.0,0.0
3058,69.0,360.0,120.0,0.0,0.0
3059,61.0,120.0,480.0,0.0,0.0
3060,52.0,0.0,480.0,0.0,0.0
3061,93.0,0.0,120.0,0.0,0.0
3062,81.0,0.0,120.0,0.0,0.0
3063,33.0,0.0,120.0,0.0,0.0
3064,67.0,120.0,120.0,0.0,0.0
3065,45.0,120.0,120.0,0.0,0.0
3066,49.0,120.0,120.0,0.0,0.0
3067,91.0,120.0,120.0,0.0,0.0
3068,52.0,0.0,600.0,0.0,0.0
3069,79.0,0.0,120.0,0.0,0.0
3070,61.0,360.0,120.0,0.0,0.0
3071,45.0,0.0,480.0,0.0,0.0
3072,55.0,0.0,480.0,0.0,0.0
3073,85.0,0.0,120.0,0.0,0.0
3074,97.0,480.0,120.0,0.0,0.0
3075,38.0,0.0,480.0,0.0,0.0
3076,43.0,0.0,480.0,0.0,0.0
3077,50.0,0.0,480.0,0.0,0.0
3078,46.0,0.0,480.0,0.0,0.0
3079,98.0,0.0,480.0,0.0,0.0
3080,86.0,0.0,480.0,0.0,0.0
3081,94.0,0.0,480.0,0.0,0.0
3082,84.0,0.0,480.0,0.0,0.0
3083,87.0,0.0,480.0,0.0,0.0
3084,50.0,0.0,480.0,0.0,0.0
3085,55.0,0.0,480.0,0.0,0.0
3086,60.0,0.0,480.0,0.0,0.0
3087,63.0,0.0,480.0,0.0,0.0
3088,91.0,480.0,15.0,0.0,0.0
3089,57.0,0.0,480.0,0.0,0.0
3090,64.0,0.0,480.0,0.0,0.0
3091,50.0,0.0,480.0,0.0,0.0
3092,79.0,0.0,15.0,0.0,0.0
3093,73.0,480.0,480.0,0.0,0.0
3094,67.0,0.0,480.0,0.0,0.0
3095,76.0,0.0,480.0,0.0,0.0
3096,38.0,0.0,480.0,0.0,0.0
3097,66.0,80.0,480.0,0.0,0.0
3098,69.0,0.0,480.0,0.0,0.0
3099,60.0,0.0,480.0,0.0,0.0
3100,62.0,0.0,480.0,0.0,0.0
3101,74.0,0.0,480.0,0.0,0.0
3102,43.0,0.0,150.0,0.0,0.0
3103,46.0,0.0,120.0,0.0,0.0
3104,50.0,0.0,20.0,0.0,0.0
3105,55.0,160.0,90.0,0.0,0.0
3106,54.0,160.0,90.0,0.0,0.0
3107,55.0,160.0,90.0,0.0,0.0
3108,43.0,0.0,150.0,0.0,0.0
3109,48.0,0.0,120.0,0.0,0.0
3110,51.0,0.0,90.0,0.0,0.0
3111,57.0,160.0,90.0,0.0,0.0
3112,55.0,160.0,90.0,0.0,0.0
3113,54.0,160.0,90.0,0.0,0.0
3114,43.0,160.0,120.0,0.0,0.0
3115,50.0,0.0,90.0,0.0,0.0
3116,58.0,0.0,90.0,0.0,0.0
3117,54.0,0.0,90.0,0.0,0.0
3118,57.0,160.0,90.0,0.0,0.0
3119,55.0,0.0,90.0,0.0,0.0
3120,58.0,160.0,90.0,0.0,0.0
3121,43.0,160.0,120.0,0.0,0.0
3122,51.0,0.0,90.0,0.0,0.0
3123,60.0,0.0,90.0,0.0,0.0
3124,55.0,160.0,90.0,0.0,0.0
3125,58.0,0.0,90.0,0.0,0.0
3126,57.0,160.0,90.0,0.0,0.0
3127,54.0,0.0,90.0,0.0,0.0
3128,55.0,0.0,150.0,0.0,0.0
3129,58.0,0.0,120.0,0.0,0.0
3130,62.0,0.0,90.0,0.0,0.0
3131,67.0,160.0,90.0,0.0,0.0
3132,66.0,160.0,90.0,0.0,0.0
3133,67.0,160.0,90.0,0.0,0.0
3134,55.0,0.0,150.0,0.0,0.0
3135,60.0,0.0,120.0,0.0,0.0
3136,63.0,160.0,90.0,0.0,0.0
3137,69.0,0.0,90.0,0.0,0.0
3138,67.0,160.0,90.0,0.0,0.0
3139,66.0,160.0,90.0,0.0,0.0
3140,55.0,0.0,120.0,0.0,0.0
3141,62.0,0.0,90.0,0.0,0.0
3142,70.0,160.0,90.0,0.0,0.0
3143,69.0,0.0,90.0,0.0,0.0
3144,66.0,160.0,90.0,0.0,0.0
3145,67.0,160.0,90.0,0.0,0.0
3146,70.0,0.0,90.0,0.0,0.0
3147,55.0,0.0,120.0,0.0,0.0
3148,63.0,0.0,90.0,0.0,0.0
3149,72.0,160.0,90.0,0.0,0.0
3150,67.0,160.0,90.0,0.0,0.0
3151,70.0,0.0,90.0,0.0,0.0
3152,66.0,0.0,90.0,0.0,0.0
3153,69.0,160.0,90.0,0.0,0.0
3154,67.0,0.0,150.0,0.0,0.0
3155,70.0,0.0,120.0,0.0,0.0
3156,74.0,0.0,90.0,0.0,0.0
3157,79.0,160.0,90.0,0.0,0.0
3158,90.0,160.0,90.0,0.0,0.0
3159,78.0,0.0,90.0,0.0,0.0
3160,79.0,0.0,90.0,0.0,0.0
3161,91.0,160.0,90.0,0.0,0.0
3162,67.0,0.0,150.0,0.0,0.0
3163,72.0,0.0,120.0,0.0,0.0
3164,75.0,160.0,90.0,0.0,0.0
3165,81.0,0.0,90.0,0.0,0.0
3166,79.0,160.0,90.0,0.0,0.0
3167,91.0,0.0,90.0,0.0,0.0
3168,93.0,0.0,90.0,0.0,0.0
3169,81.0,160.0,90.0,0.0,0.0
3170,67.0,0.0,120.0,0.0,0.0
3171,74.0,0.0,90.0,0.0,0.0
3172,82.0,160.0,90.0,0.0,0.0
3173,81.0,160.0,90.0,0.0,0.0
3174,93.0,0.0,90.0,0.0,0.0
3175,94.0,160.0,90.0,0.0,0.0
3176,82.0,0.0,90.0,0.0,0.0
3177,67.0,0.0,120.0,0.0,0.0
3178,75.0,0.0,90.0,0.0,0.0
3179,84.0,160.0,90.0,0.0,0.0
3180,94.0,0.0,90.0,0.0,0.0
3181,82.0,160.0,90.0,0.0,0.0
3182,93.0,0.0,90.0,0.0,0.0
3183,81.0,160.0,90.0,0.0,0.0
3184,91.0,40.0,90.0,0.0,0.0
3185,79.0,120.0,120.0,0.0,0.0
3186,86.0,0.0,90.0,0.0,0.0
3187,94.0,0.0,90.0,0.0,0.0
3188,82.0,0.0,90.0,0.0,0.0
3189,67.0,0.0,120.0,0.0,0.0
3190,70.0,0.0,120.0,0.0,0.0
3191,74.0,0.0,120.0,0.0,0.0
3192,93.0,120.0,90.0,0.0,0.0
3193,81.0,0.0,90.0,0.0,0.0
3194,67.0,0.0,120.0,0.0,0.0
3195,55.0,40.0,120.0,0.0,0.0
3196,94.0,160.0,90.0,0.0,0.0
3197,82.0,0.0,90.0,0.0,0.0
3198,84.0,40.0,90.0,0.0,0.0
3199,75.0,0.0,120.0,0.0,0.0
3200,79.0,120.0,120.0,0.0,0.0
3201,91.0,0.0,90.0,0.0,0.0
3202,87.0,0.0,90.0,0.0,0.0
3203,96.0,0.0,90.0,0.0,0.0
3204,72.0,0.0,120.0,0.0,0.0
3205,67.0,0.0,120.0,0.0,0.0
3206,94.0,120.0,90.0,0.0,0.0
3207,82.0,0.0,90.0,0.0,0.0
3208,60.0,40.0,120.0,0.0,0.0
3209,48.0,0.0,120.0,0.0,0.0
3210,81.0,160.0,90.0,0.0,0.0
3211,93.0,0.0,90.0,0.0,0.0
3212,94.0,0.0,90.0,0.0,0.0
3213,91.0,0.0,90.0,0.0,0.0
3214,58.0,0.0,120.0,0.0,0.0
3215,82.0,40.0,90.0,0.0,0.0
3216,62.0,120.0,120.0,0.0,0.0
3217,55.0,0.0,120.0,0.0,0.0
3218,86.0,0.0,90.0,0.0,0.0
3219,67.0,0.0,120.0,0.0,0.0
3220,81.0,120.0,90.0,0.0,0.0
3221,93.0,0.0,90.0,0.0,0.0
3222,55.0,40.0,120.0,0.0,0.0
3223,43.0,0.0,120.0,0.0,0.0
3224,94.0,160.0,90.0,0.0,0.0
3225,82.0,0.0,90.0,0.0,0.0
3226,87.0,40.0,90.0,0.0,0.0
3227,96.0,0.0,90.0,0.0,0.0
3228,91.0,0.0,90.0,0.0,0.0
3229,55.0,0.0,120.0,0.0,0.0
3230,63.0,0.0,120.0,0.0,0.0
3231,67.0,120.0,120.0,0.0,0.0
3232,60.0,0.0,120.0,0.0,0.0
3233,84.0,0.0,90.0,0.0,0.0
3234,82.0,0.0,90.0,0.0,0.0
3235,94.0,120.0,90.0,0.0,0.0
3236,36.0,0.0,120.0,0.0,0.0
3237,48.0,40.0,120.0,0.0,0.0
3238,81.0,0.0,90.0,0.0,0.0
3239,93.0,160.0,90.0,0.0,0.0
3240,94.0,40.0,90.0,0.0,0.0
3241,91.0,0.0,90.0,0.0,0.0
3242,86.0,0.0,90.0,0.0,0.0
3243,62.0,120.0,120.0,0.0,0.0
3244,58.0,0.0,120.0,0.0,0.0
3245,55.0,0.0,120.0,0.0,0.0
3246,82.0,0.0,90.0,0.0,0.0
3247,50.0,0.0,120.0,0.0,0.0
3248,93.0,120.0,90.0,0.0,0.0
3249,81.0,0.0,90.0,0.0,0.0
3250,43.0,0.0,120.0,0.0,0.0
3251,31.0,40.0,120.0,0.0,0.0
3252,79.0,160.0,90.0,0.0,0.0
3253,91.0,0.0,90.0,0.0,0.0
3254,63.0,0.0,120.0,0.0,0.0
3255,58.0,120.0,120.0,0.0,0.0
3256,51.0,0.0,120.0,0.0,0.0
3257,82.0,0.0,90.0,0.0,0.0
3258,55.0,0.0,120.0,0.0,0.0
3259,91.0,40.0,90.0,0.0,0.0
3260,87.0,0.0,90.0,0.0,0.0
3261,94.0,0.0,90.0,0.0,0.0
3262,81.0,120.0,90.0,0.0,0.0
3263,93.0,0.0,90.0,0.0,0.0
3264,43.0,40.0,120.0,0.0,0.0
3265,31.0,0.0,120.0,0.0,0.0
3266,91.0,0.0,90.0,0.0,0.0
3267,79.0,160.0,90.0,0.0,0.0
3268,55.0,0.0,480.0,0.0,0.0
3269,94.0,0.0,90.0,0.0,0.0
3270,82.0,0.0,90.0,0.0,0.0
3271,91.0,0.0,90.0,0.0,0.0
3272,88.0,160.0,90.0,0.0,0.0
3273,85.0,0.0,90.0,0.0,0.0
3274,52.0,0.0,480.0,0.0,0.0
3275,64.0,0.0,480.0,0.0,0.0
3276,61.0,80.0,480.0,0.0,0.0
3277,58.0,0.0,480.0,0.0,0.0
3278,81.0,0.0,90.0,0.0,0.0
3279,93.0,160.0,90.0,0.0,0.0
3280,91.0,80.0,90.0,0.0,0.0
3281,79.0,0.0,90.0,0.0,0.0
3282,50.0,0.0,180.0,0.0,0.0
3283,57.0,0.0,150.0,0.0,0.0
3284,62.0,200.0,150.0,0.0,0.0
3285,90.0,40.0,90.0,0.0,0.0
3286,66.0,0.0,120.0,0.0,0.0
3287,93.0,0.0,90.0,0.0,0.0
3288,86.0,0.0,90.0,0.0,0.0
3289,81.0,0.0,90.0,0.0,0.0
3290,50.0,0.0,120.0,0.0,0.0
3291,38.0,280.0,120.0,0.0,0.0
3292,86.0,40.0,90.0,0.0,0.0
3293,74.0,0.0,90.0,0.0,0.0
3294,31.0,0.0,150.0,0.0,0.0
3295,43.0,800.0,150.0,0.0,0.0
3296,79.0,0.0,150.0,0.0,0.0
3297,91.0,0.0,150.0,0.0,0.0
3298,43.0,0.0,480.0,0.0,0.0
3299,51.0,0.0,480.0,0.0,0.0
3300,91.0,0.0,480.0,0.0,0.0
3301,82.0,0.0,480.0,0.0,0.0
3302,87.0,480.0,480.0,0.0,0.0
3303,39.0,0.0,480.0,0.0,0.0
3304,79.0,0.0,480.0,0.0,0.0
3305,58.0,0.0,480.0,0.0,0.0
3306,53.0,0.0,480.0,0.0,0.0
3307,50.0,0.0,480.0,0.0,0.0
3308,46.0,0.0,15.0,0.0,0.0
3309,82.0,480.0,480.0,0.0,0.0
3310,86.0,0.0,480.0,0.0,0.0
3311,89.0,0.0,480.0,0.0,0.0
3312,77.0,0.0,480.0,0.0,0.0
3313,51.0,0.0,480.0,0.0,0.0
3314,84.0,0.0,480.0,0.0,0.0
3315,48.0,0.0,480.0,0.0,0.0
3316,87.0,0.0,480.0,0.0,0.0
3317,79.0,0.0,480.0,0.0,0.0
3318,60.0,960.0,480.0,0.0,0.0
3319,75.0,0.0,480.0,0.0,0.0
3320,86.0,0.0,1920.0,0.0,0.0
3321,67.0,0.0,960.0,0.0,0.0
3322,58.0,240.0,1440.0,0.0,0.0
3323,55.0,0.0,15.0,0.0,0.0
3324,74.0,240.0,960.0,0.0,0.0
3325,82.0,0.0,1920.0,0.0,0.0
3326,31.0,0.0,240.0,0.0,0.0
3327,43.0,0.0,240.0,0.0,0.0
3328,70.0,0.0,240.0,0.0,0.0
3329,79.0,0.0,15.0,0.0,0.0
3330,74.0,0.0,240.0,0.0,0.0
3331,67.0,0.0,240.0,0.0,0.0
3332,62.0,240.0,240.0,0.0,0.0
3333,50.0,0.0,240.0,0.0,0.0
3334,67.0,0.0,240.0,0.0,0.0
3335,79.0,0.0,240.0,0.0,0.0
3336,70.0,0.0,240.0,0.0,0.0
3337,74.0,0.0,240.0,0.0,0.0
3338,58.0,0.0,240.0,0.0,0.0
3339,55.0,0.0,240.0,0.0,0.0
3340,91.0,0.0,960.0,0.0,0.0
3341,103.0,0.0,960.0,0.0,0.0
3342,98.0,0.0,960.0,0.0,0.0
3343,70.0,0.0,960.0,0.0,0.0
3344,74.0,0.0,960.0,0.0,0.0
3345,79.0,0.0,960.0,0.0,0.0
3346,82.0,0.0,960.0,0.0,0.0
3347,94.0,613.0,960.0,0.0,0.0
