,note,step,duration,channel,velocity
0,58.0,39.0,180.0,0.0,0.0
1,39.0,39.0,60.0,15.0,0.0
2,42.0,10.0,40.0,15.0,0.0
3,46.0,10.0,40.0,15.0,0.0
4,54.0,40.0,40.0,15.0,0.0
5,34.0,21.0,40.0,15.0,0.0
6,54.0,21.0,40.0,15.0,0.0
7,46.0,0.0,40.0,15.0,0.0
8,63.0,60.0,60.0,0.0,0.0
9,39.0,39.0,60.0,15.0,0.0
10,66.0,39.0,180.0,0.0,0.0
11,42.0,10.0,40.0,15.0,0.0
12,46.0,10.0,40.0,15.0,0.0
13,54.0,40.0,40.0,15.0,0.0
14,34.0,21.0,40.0,15.0,0.0
15,46.0,21.0,40.0,15.0,0.0
16,54.0,0.0,40.0,15.0,0.0
17,63.0,60.0,60.0,0.0,0.0
18,62.0,30.0,180.0,0.0,0.0
19,39.0,39.0,60.0,15.0,0.0
20,44.0,10.0,40.0,15.0,0.0
21,47.0,10.0,40.0,15.0,0.0
22,56.0,40.0,40.0,15.0,0.0
23,32.0,21.0,40.0,15.0,0.0
24,63.0,9.0,30.0,0.0,0.0
25,47.0,21.0,40.0,15.0,0.0
26,56.0,0.0,40.0,15.0,0.0
27,65.0,60.0,30.0,0.0,0.0
28,39.0,39.0,60.0,15.0,0.0
29,63.0,60.0,240.0,0.0,0.0
30,42.0,10.0,40.0,15.0,0.0
31,46.0,10.0,40.0,15.0,0.0
32,54.0,40.0,40.0,15.0,0.0
33,34.0,60.0,40.0,15.0,0.0
34,46.0,21.0,40.0,15.0,0.0
35,54.0,0.0,40.0,15.0,0.0
36,59.0,30.0,180.0,0.0,0.0
37,39.0,39.0,60.0,15.0,0.0
38,56.0,0.0,60.0,15.0,0.0
39,44.0,10.0,40.0,15.0,0.0
40,47.0,10.0,40.0,15.0,0.0
41,56.0,40.0,40.0,15.0,0.0
42,32.0,21.0,40.0,15.0,0.0
43,61.0,9.0,30.0,0.0,0.0
44,58.0,0.0,30.0,15.0,0.0
45,61.0,0.0,30.0,15.0,0.0
46,56.0,0.0,40.0,15.0,0.0
47,44.0,21.0,40.0,15.0,0.0
48,63.0,0.0,30.0,15.0,0.0
49,59.0,0.0,30.0,15.0,0.0
50,63.0,1.0,30.0,0.0,0.0
51,58.0,30.0,240.0,15.0,0.0
52,54.0,39.0,60.0,15.0,0.0
53,39.0,0.0,60.0,15.0,0.0
54,58.0,0.0,240.0,0.0,0.0
55,42.0,10.0,40.0,15.0,0.0
56,46.0,10.0,40.0,15.0,0.0
57,54.0,40.0,40.0,15.0,0.0
58,34.0,60.0,40.0,15.0,0.0
59,46.0,21.0,40.0,15.0,0.0
60,54.0,0.0,40.0,15.0,0.0
61,56.0,30.0,30.0,0.0,0.0
62,38.0,30.0,60.0,15.0,0.0
63,54.0,0.0,30.0,0.0,0.0
64,54.0,9.0,30.0,0.0,0.0
65,46.0,10.0,40.0,15.0,0.0
66,50.0,10.0,40.0,15.0,0.0
67,58.0,1.0,40.0,15.0,0.0
68,53.0,39.0,30.0,0.0,0.0
69,34.0,51.0,40.0,15.0,0.0
70,53.0,9.0,90.0,0.0,0.0
71,46.0,21.0,40.0,15.0,0.0
72,56.0,0.0,40.0,15.0,0.0
73,50.0,0.0,40.0,15.0,0.0
74,58.0,60.0,30.0,0.0,0.0
75,39.0,39.0,60.0,15.0,0.0
76,51.0,60.0,240.0,0.0,0.0
77,42.0,10.0,40.0,15.0,0.0
78,46.0,10.0,40.0,15.0,0.0
79,54.0,40.0,40.0,15.0,0.0
80,34.0,60.0,40.0,15.0,0.0
81,46.0,21.0,40.0,15.0,0.0
82,54.0,0.0,40.0,15.0,0.0
83,58.0,30.0,180.0,15.0,0.0
84,58.0,0.0,180.0,0.0,0.0
85,70.0,0.0,180.0,15.0,0.0
86,39.0,39.0,60.0,15.0,0.0
87,42.0,10.0,40.0,15.0,0.0
88,46.0,10.0,40.0,15.0,0.0
89,54.0,40.0,40.0,15.0,0.0
90,34.0,21.0,40.0,15.0,0.0
91,54.0,0.0,40.0,15.0,0.0
92,63.0,0.0,30.0,0.0,0.0
93,46.0,21.0,40.0,15.0,0.0
94,63.0,0.0,30.0,15.0,0.0
95,75.0,9.0,30.0,15.0,0.0
96,66.0,60.0,30.0,0.0,0.0
97,66.0,0.0,30.0,15.0,0.0
98,78.0,0.0,30.0,15.0,0.0
99,39.0,39.0,60.0,15.0,0.0
100,70.0,0.0,180.0,15.0,0.0
101,82.0,39.0,180.0,15.0,0.0
102,70.0,0.0,180.0,0.0,0.0
103,42.0,10.0,40.0,15.0,0.0
104,46.0,10.0,40.0,15.0,0.0
105,54.0,40.0,40.0,15.0,0.0
106,34.0,21.0,40.0,15.0,0.0
107,66.0,0.0,60.0,15.0,0.0
108,78.0,0.0,60.0,15.0,0.0
109,66.0,60.0,60.0,0.0,0.0
110,46.0,21.0,40.0,15.0,0.0
111,54.0,0.0,40.0,15.0,0.0
112,39.0,39.0,60.0,15.0,0.0
113,65.0,30.0,180.0,0.0,0.0
114,65.0,0.0,180.0,15.0,0.0
115,71.0,0.0,180.0,15.0,0.0
116,74.0,0.0,180.0,15.0,0.0
117,77.0,0.0,180.0,15.0,0.0
118,44.0,10.0,40.0,15.0,0.0
119,47.0,10.0,40.0,15.0,0.0
120,56.0,40.0,40.0,15.0,0.0
121,32.0,21.0,40.0,15.0,0.0
122,56.0,0.0,40.0,15.0,0.0
123,47.0,21.0,40.0,15.0,0.0
124,78.0,0.0,30.0,15.0,0.0
125,66.0,0.0,30.0,15.0,0.0
126,66.0,9.0,30.0,0.0,0.0
127,68.0,0.0,30.0,0.0,0.0
128,68.0,0.0,30.0,15.0,0.0
129,80.0,60.0,30.0,15.0,0.0
130,66.0,0.0,240.0,0.0,0.0
131,75.0,0.0,240.0,15.0,0.0
132,66.0,30.0,240.0,15.0,0.0
133,78.0,0.0,240.0,15.0,0.0
134,70.0,0.0,240.0,15.0,0.0
135,39.0,39.0,60.0,15.0,0.0
136,42.0,10.0,40.0,15.0,0.0
137,46.0,10.0,40.0,15.0,0.0
138,54.0,40.0,40.0,15.0,0.0
139,34.0,60.0,40.0,15.0,0.0
140,54.0,21.0,40.0,15.0,0.0
141,46.0,0.0,40.0,15.0,0.0
142,51.0,21.0,40.0,15.0,0.0
143,71.0,9.0,30.0,0.0,0.0
144,73.0,30.0,30.0,0.0,0.0
145,75.0,9.0,30.0,0.0,0.0
146,54.0,21.0,40.0,15.0,0.0
147,71.0,30.0,30.0,0.0,0.0
148,49.0,21.0,40.0,15.0,0.0
149,70.0,9.0,30.0,0.0,0.0
150,71.0,30.0,30.0,0.0,0.0
151,58.0,0.0,40.0,15.0,0.0
152,73.0,9.0,30.0,0.0,0.0
153,53.0,21.0,40.0,15.0,0.0
154,70.0,30.0,30.0,0.0,0.0
155,68.0,9.0,30.0,0.0,0.0
156,47.0,21.0,40.0,15.0,0.0
157,70.0,30.0,30.0,0.0,0.0
158,71.0,9.0,30.0,0.0,0.0
159,56.0,0.0,40.0,15.0,0.0
160,59.0,0.0,40.0,15.0,0.0
161,51.0,21.0,40.0,15.0,0.0
162,68.0,30.0,30.0,0.0,0.0
163,66.0,9.0,30.0,0.0,0.0
164,46.0,21.0,40.0,15.0,0.0
165,68.0,30.0,30.0,0.0,0.0
166,54.0,21.0,40.0,15.0,0.0
167,58.0,0.0,40.0,15.0,0.0
168,61.0,0.0,40.0,15.0,0.0
169,70.0,9.0,30.0,0.0,0.0
170,66.0,30.0,30.0,0.0,0.0
171,68.0,9.0,30.0,15.0,0.0
172,34.0,21.0,40.0,15.0,0.0
173,68.0,0.0,30.0,0.0,0.0
174,66.0,30.0,30.0,15.0,0.0
175,66.0,0.0,30.0,0.0,0.0
176,66.0,9.0,30.0,15.0,0.0
177,62.0,0.0,40.0,15.0,0.0
178,53.0,21.0,40.0,15.0,0.0
179,66.0,0.0,30.0,0.0,0.0
180,56.0,0.0,40.0,15.0,0.0
181,65.0,0.0,30.0,0.0,0.0
182,65.0,90.0,30.0,15.0,0.0
183,65.0,9.0,90.0,0.0,0.0
184,65.0,0.0,90.0,15.0,0.0
185,46.0,21.0,40.0,15.0,0.0
186,56.0,0.0,40.0,15.0,0.0
187,50.0,0.0,40.0,15.0,0.0
188,70.0,0.0,30.0,15.0,0.0
189,70.0,39.0,30.0,0.0,0.0
190,63.0,0.0,120.0,15.0,0.0
191,39.0,60.0,40.0,15.0,0.0
192,63.0,39.0,120.0,0.0,0.0
193,42.0,10.0,40.0,15.0,0.0
194,46.0,10.0,40.0,15.0,0.0
195,54.0,1.0,40.0,15.0,0.0
196,27.0,21.0,40.0,15.0,0.0
197,39.0,0.0,40.0,15.0,0.0
198,63.0,10.0,60.0,15.0,0.0
199,66.0,10.0,60.0,15.0,0.0
200,70.0,10.0,60.0,15.0,0.0
201,75.0,90.0,60.0,15.0,0.0
202,58.0,0.0,180.0,15.0,0.0
203,70.0,39.0,180.0,15.0,0.0
204,39.0,39.0,60.0,15.0,0.0
205,58.0,0.0,180.0,0.0,0.0
206,42.0,10.0,40.0,15.0,0.0
207,46.0,10.0,40.0,15.0,0.0
208,54.0,40.0,40.0,15.0,0.0
209,34.0,21.0,40.0,15.0,0.0
210,63.0,60.0,60.0,0.0,0.0
211,46.0,0.0,40.0,15.0,0.0
212,54.0,21.0,40.0,15.0,0.0
213,63.0,0.0,60.0,15.0,0.0
214,75.0,0.0,60.0,15.0,0.0
215,78.0,0.0,180.0,15.0,0.0
216,66.0,0.0,180.0,15.0,0.0
217,66.0,39.0,180.0,0.0,0.0
218,39.0,39.0,60.0,15.0,0.0
219,42.0,10.0,40.0,15.0,0.0
220,46.0,10.0,40.0,15.0,0.0
221,54.0,40.0,40.0,15.0,0.0
222,34.0,21.0,40.0,15.0,0.0
223,63.0,0.0,60.0,15.0,0.0
224,75.0,60.0,60.0,15.0,0.0
225,63.0,0.0,60.0,0.0,0.0
226,54.0,0.0,40.0,15.0,0.0
227,46.0,21.0,40.0,15.0,0.0
228,62.0,0.0,180.0,0.0,0.0
229,74.0,30.0,180.0,15.0,0.0
230,71.0,0.0,180.0,15.0,0.0
231,68.0,0.0,180.0,15.0,0.0
232,62.0,0.0,180.0,15.0,0.0
233,39.0,39.0,60.0,15.0,0.0
234,44.0,10.0,40.0,15.0,0.0
235,47.0,10.0,40.0,15.0,0.0
236,56.0,40.0,40.0,15.0,0.0
237,32.0,21.0,40.0,15.0,0.0
238,63.0,9.0,30.0,0.0,0.0
239,63.0,0.0,30.0,15.0,0.0
240,56.0,0.0,40.0,15.0,0.0
241,47.0,21.0,40.0,15.0,0.0
242,75.0,0.0,30.0,15.0,0.0
243,65.0,0.0,30.0,15.0,0.0
244,77.0,60.0,30.0,15.0,0.0
245,65.0,0.0,30.0,0.0,0.0
246,75.0,0.0,240.0,15.0,0.0
247,63.0,0.0,240.0,0.0,0.0
248,70.0,0.0,240.0,15.0,0.0
249,63.0,60.0,240.0,15.0,0.0
250,39.0,39.0,60.0,15.0,0.0
251,42.0,10.0,40.0,15.0,0.0
252,46.0,10.0,40.0,15.0,0.0
253,54.0,40.0,40.0,15.0,0.0
254,34.0,60.0,40.0,15.0,0.0
255,54.0,21.0,40.0,15.0,0.0
256,46.0,0.0,40.0,15.0,0.0
257,68.0,0.0,180.0,15.0,0.0
258,59.0,0.0,180.0,0.0,0.0
259,39.0,39.0,60.0,15.0,0.0
260,71.0,30.0,180.0,15.0,0.0
261,44.0,10.0,40.0,15.0,0.0
262,47.0,10.0,40.0,15.0,0.0
263,56.0,40.0,40.0,15.0,0.0
264,32.0,21.0,40.0,15.0,0.0
265,56.0,0.0,40.0,15.0,0.0
266,73.0,0.0,30.0,15.0,0.0
267,47.0,21.0,40.0,15.0,0.0
268,61.0,9.0,30.0,0.0,0.0
269,70.0,0.0,30.0,15.0,0.0
270,63.0,0.0,30.0,0.0,0.0
271,75.0,0.0,30.0,15.0,0.0
272,71.0,60.0,30.0,15.0,0.0
273,58.0,0.0,240.0,0.0,0.0
274,39.0,39.0,60.0,15.0,0.0
275,66.0,0.0,240.0,15.0,0.0
276,70.0,30.0,240.0,15.0,0.0
277,42.0,10.0,40.0,15.0,0.0
278,46.0,10.0,40.0,15.0,0.0
279,54.0,40.0,40.0,15.0,0.0
280,34.0,60.0,40.0,15.0,0.0
281,54.0,0.0,40.0,15.0,0.0
282,46.0,21.0,40.0,15.0,0.0
283,56.0,0.0,30.0,0.0,0.0
284,68.0,30.0,30.0,15.0,0.0
285,38.0,0.0,60.0,15.0,0.0
286,66.0,0.0,30.0,15.0,0.0
287,54.0,30.0,30.0,0.0,0.0
288,46.0,10.0,40.0,15.0,0.0
289,66.0,0.0,30.0,15.0,0.0
290,54.0,9.0,30.0,0.0,0.0
291,50.0,10.0,40.0,15.0,0.0
292,58.0,1.0,40.0,15.0,0.0
293,53.0,0.0,30.0,0.0,0.0
294,65.0,39.0,30.0,15.0,0.0
295,53.0,9.0,90.0,0.0,0.0
296,65.0,0.0,90.0,15.0,0.0
297,34.0,51.0,40.0,15.0,0.0
298,46.0,0.0,40.0,15.0,0.0
299,56.0,0.0,40.0,15.0,0.0
300,50.0,21.0,40.0,15.0,0.0
301,58.0,0.0,30.0,15.0,0.0
302,58.0,0.0,30.0,0.0,0.0
303,70.0,60.0,30.0,15.0,0.0
304,63.0,0.0,240.0,15.0,0.0
305,39.0,39.0,60.0,15.0,0.0
306,51.0,0.0,240.0,0.0,0.0
307,51.0,60.0,240.0,15.0,0.0
308,42.0,10.0,40.0,15.0,0.0
309,46.0,10.0,40.0,15.0,0.0
310,54.0,40.0,40.0,15.0,0.0
311,34.0,60.0,40.0,15.0,0.0
312,54.0,21.0,40.0,15.0,0.0
313,46.0,0.0,40.0,15.0,0.0
314,39.0,30.0,60.0,15.0,0.0
315,46.0,0.0,90.0,0.0,0.0
316,58.0,0.0,90.0,15.0,0.0
317,70.0,9.0,90.0,15.0,0.0
318,42.0,10.0,40.0,15.0,0.0
319,46.0,10.0,40.0,15.0,0.0
320,54.0,1.0,40.0,15.0,0.0
321,51.0,0.0,30.0,0.0,0.0
322,63.0,30.0,30.0,15.0,0.0
323,75.0,0.0,30.0,15.0,0.0
324,34.0,21.0,40.0,15.0,0.0
325,66.0,9.0,30.0,15.0,0.0
326,78.0,0.0,30.0,15.0,0.0
327,54.0,0.0,30.0,0.0,0.0
328,82.0,30.0,30.0,15.0,0.0
329,70.0,0.0,30.0,15.0,0.0
330,58.0,0.0,30.0,0.0,0.0
331,46.0,0.0,40.0,15.0,0.0
332,63.0,9.0,30.0,0.0,0.0
333,75.0,0.0,30.0,15.0,0.0
334,87.0,0.0,30.0,15.0,0.0
335,54.0,21.0,40.0,15.0,0.0
336,66.0,0.0,30.0,0.0,0.0
337,90.0,60.0,30.0,15.0,0.0
338,78.0,0.0,30.0,15.0,0.0
339,94.0,0.0,180.0,15.0,0.0
340,82.0,39.0,180.0,15.0,0.0
341,39.0,39.0,60.0,15.0,0.0
342,70.0,0.0,180.0,0.0,0.0
343,42.0,10.0,40.0,15.0,0.0
344,46.0,10.0,40.0,15.0,0.0
345,54.0,40.0,40.0,15.0,0.0
346,34.0,21.0,40.0,15.0,0.0
347,66.0,0.0,60.0,0.0,0.0
348,54.0,21.0,40.0,15.0,0.0
349,46.0,0.0,40.0,15.0,0.0
350,78.0,60.0,60.0,15.0,0.0
351,90.0,0.0,60.0,15.0,0.0
352,39.0,39.0,60.0,15.0,0.0
353,65.0,30.0,180.0,0.0,0.0
354,83.0,0.0,180.0,15.0,0.0
355,86.0,0.0,180.0,15.0,0.0
356,77.0,0.0,180.0,15.0,0.0
357,89.0,0.0,180.0,15.0,0.0
358,44.0,10.0,40.0,15.0,0.0
359,47.0,10.0,40.0,15.0,0.0
360,56.0,40.0,40.0,15.0,0.0
361,32.0,21.0,40.0,15.0,0.0
362,78.0,0.0,30.0,15.0,0.0
363,90.0,9.0,30.0,15.0,0.0
364,47.0,0.0,40.0,15.0,0.0
365,56.0,21.0,40.0,15.0,0.0
366,66.0,0.0,30.0,0.0,0.0
367,92.0,0.0,30.0,15.0,0.0
368,80.0,0.0,30.0,15.0,0.0
369,68.0,60.0,30.0,0.0,0.0
370,39.0,39.0,60.0,15.0,0.0
371,90.0,30.0,240.0,15.0,0.0
372,87.0,0.0,240.0,15.0,0.0
373,66.0,0.0,240.0,0.0,0.0
374,78.0,0.0,240.0,15.0,0.0
375,82.0,0.0,240.0,15.0,0.0
376,42.0,10.0,40.0,15.0,0.0
377,46.0,10.0,40.0,15.0,0.0
378,54.0,40.0,40.0,15.0,0.0
379,34.0,60.0,40.0,15.0,0.0
380,54.0,0.0,40.0,15.0,0.0
381,46.0,21.0,40.0,15.0,0.0
382,51.0,0.0,60.0,15.0,0.0
383,54.0,0.0,60.0,15.0,0.0
384,71.0,30.0,30.0,0.0,0.0
385,59.0,0.0,60.0,15.0,0.0
386,73.0,30.0,30.0,0.0,0.0
387,63.0,0.0,40.0,15.0,0.0
388,75.0,9.0,30.0,0.0,0.0
389,59.0,21.0,40.0,15.0,0.0
390,54.0,0.0,40.0,15.0,0.0
391,71.0,30.0,30.0,0.0,0.0
392,53.0,0.0,40.0,15.0,0.0
393,49.0,21.0,40.0,15.0,0.0
394,58.0,0.0,40.0,15.0,0.0
395,70.0,9.0,30.0,0.0,0.0
396,71.0,30.0,30.0,0.0,0.0
397,58.0,0.0,40.0,15.0,0.0
398,73.0,9.0,30.0,0.0,0.0
399,61.0,0.0,40.0,15.0,0.0
400,53.0,21.0,40.0,15.0,0.0
401,70.0,30.0,30.0,0.0,0.0
402,47.0,21.0,40.0,15.0,0.0
403,51.0,0.0,40.0,15.0,0.0
404,56.0,0.0,40.0,15.0,0.0
405,68.0,9.0,30.0,0.0,0.0
406,70.0,30.0,30.0,0.0,0.0
407,59.0,0.0,40.0,15.0,0.0
408,51.0,21.0,40.0,15.0,0.0
409,71.0,9.0,30.0,0.0,0.0
410,56.0,0.0,40.0,15.0,0.0
411,68.0,30.0,30.0,0.0,0.0
412,49.0,21.0,40.0,15.0,0.0
413,54.0,0.0,40.0,15.0,0.0
414,46.0,0.0,40.0,15.0,0.0
415,66.0,9.0,30.0,0.0,0.0
416,68.0,30.0,30.0,0.0,0.0
417,54.0,0.0,40.0,15.0,0.0
418,49.0,0.0,40.0,15.0,0.0
419,58.0,21.0,40.0,15.0,0.0
420,70.0,9.0,30.0,0.0,0.0
421,66.0,30.0,30.0,0.0,0.0
422,68.0,0.0,30.0,0.0,0.0
423,68.0,9.0,30.0,15.0,0.0
424,34.0,21.0,40.0,15.0,0.0
425,66.0,30.0,30.0,0.0,0.0
426,66.0,0.0,30.0,15.0,0.0
427,46.0,0.0,40.0,15.0,0.0
428,58.0,21.0,40.0,15.0,0.0
429,50.0,0.0,40.0,15.0,0.0
430,66.0,0.0,30.0,15.0,0.0
431,66.0,9.0,30.0,0.0,0.0
432,65.0,0.0,30.0,15.0,0.0
433,65.0,90.0,30.0,0.0,0.0
434,65.0,9.0,90.0,0.0,0.0
435,65.0,0.0,90.0,15.0,0.0
436,50.0,0.0,40.0,15.0,0.0
437,56.0,21.0,40.0,15.0,0.0
438,46.0,0.0,40.0,15.0,0.0
439,70.0,0.0,30.0,0.0,0.0
440,70.0,60.0,30.0,15.0,0.0
441,39.0,10.0,60.0,15.0,0.0
442,63.0,0.0,120.0,0.0,0.0
443,63.0,0.0,120.0,15.0,0.0
444,75.0,39.0,120.0,15.0,0.0
445,70.0,0.0,120.0,15.0,0.0
446,46.0,10.0,60.0,15.0,0.0
447,54.0,40.0,60.0,15.0,0.0
448,27.0,0.0,40.0,15.0,0.0
449,39.0,21.0,40.0,15.0,0.0
450,87.0,0.0,60.0,15.0,0.0
451,75.0,99.0,60.0,15.0,0.0
452,70.0,0.0,90.0,15.0,0.0
453,73.0,0.0,90.0,15.0,0.0
454,82.0,20.0,90.0,15.0,0.0
455,70.0,0.0,90.0,0.0,0.0
456,43.0,40.0,40.0,15.0,0.0
457,61.0,0.0,40.0,15.0,0.0
458,55.0,0.0,40.0,15.0,0.0
459,51.0,60.0,40.0,15.0,0.0
460,39.0,40.0,40.0,15.0,0.0
461,70.0,20.0,90.0,15.0,0.0
462,73.0,0.0,90.0,15.0,0.0
463,82.0,0.0,90.0,15.0,0.0
464,70.0,0.0,90.0,0.0,0.0
465,61.0,60.0,40.0,15.0,0.0
466,55.0,0.0,40.0,15.0,0.0
467,51.0,0.0,40.0,15.0,0.0
468,71.0,0.0,180.0,15.0,0.0
469,83.0,0.0,180.0,15.0,0.0
470,43.0,60.0,40.0,15.0,0.0
471,71.0,0.0,180.0,0.0,0.0
472,75.0,39.0,180.0,15.0,0.0
473,63.0,0.0,40.0,15.0,0.0
474,51.0,0.0,40.0,15.0,0.0
475,55.0,60.0,40.0,15.0,0.0
476,39.0,21.0,40.0,15.0,0.0
477,73.0,0.0,40.0,15.0,0.0
478,82.0,0.0,40.0,15.0,0.0
479,70.0,60.0,40.0,0.0,0.0
480,55.0,0.0,40.0,15.0,0.0
481,61.0,0.0,40.0,15.0,0.0
482,51.0,0.0,40.0,15.0,0.0
483,70.0,0.0,40.0,15.0,0.0
484,44.0,60.0,40.0,15.0,0.0
485,71.0,30.0,120.0,15.0,0.0
486,68.0,0.0,120.0,15.0,0.0
487,56.0,0.0,40.0,15.0,0.0
488,51.0,60.0,40.0,15.0,0.0
489,68.0,0.0,120.0,0.0,0.0
490,83.0,0.0,120.0,15.0,0.0
491,59.0,0.0,40.0,15.0,0.0
492,39.0,21.0,40.0,15.0,0.0
493,71.0,0.0,240.0,15.0,0.0
494,67.0,9.0,30.0,0.0,0.0
495,51.0,21.0,40.0,15.0,0.0
496,59.0,0.0,40.0,15.0,0.0
497,56.0,0.0,40.0,15.0,0.0
498,68.0,30.0,30.0,0.0,0.0
499,44.0,30.0,60.0,15.0,0.0
500,70.0,30.0,30.0,0.0,0.0
501,68.0,0.0,30.0,0.0,0.0
502,67.0,9.0,30.0,0.0,0.0
503,59.0,0.0,40.0,15.0,0.0
504,51.0,21.0,40.0,15.0,0.0
505,56.0,0.0,40.0,15.0,0.0
506,70.0,39.0,30.0,0.0,0.0
507,42.0,21.0,40.0,15.0,0.0
508,68.0,39.0,60.0,0.0,0.0
509,51.0,0.0,40.0,15.0,0.0
510,59.0,60.0,40.0,15.0,0.0
511,56.0,0.0,40.0,15.0,0.0
512,68.0,0.0,90.0,15.0,0.0
513,71.0,0.0,90.0,15.0,0.0
514,80.0,0.0,90.0,15.0,0.0
515,68.0,20.0,90.0,0.0,0.0
516,41.0,40.0,40.0,15.0,0.0
517,49.0,0.0,40.0,15.0,0.0
518,53.0,0.0,40.0,15.0,0.0
519,59.0,60.0,40.0,15.0,0.0
520,68.0,20.0,90.0,0.0,0.0
521,71.0,0.0,90.0,15.0,0.0
522,80.0,0.0,90.0,15.0,0.0
523,37.0,40.0,40.0,15.0,0.0
524,68.0,0.0,90.0,15.0,0.0
525,59.0,0.0,40.0,15.0,0.0
526,49.0,0.0,40.0,15.0,0.0
527,53.0,60.0,40.0,15.0,0.0
528,82.0,0.0,180.0,15.0,0.0
529,41.0,60.0,40.0,15.0,0.0
530,73.0,0.0,180.0,15.0,0.0
531,70.0,39.0,180.0,15.0,0.0
532,70.0,0.0,180.0,0.0,0.0
533,53.0,0.0,40.0,15.0,0.0
534,61.0,0.0,40.0,15.0,0.0
535,49.0,60.0,40.0,15.0,0.0
536,37.0,21.0,40.0,15.0,0.0
537,80.0,0.0,90.0,15.0,0.0
538,68.0,0.0,90.0,0.0,0.0
539,59.0,51.0,40.0,15.0,0.0
540,49.0,0.0,40.0,15.0,0.0
541,53.0,0.0,40.0,15.0,0.0
542,68.0,30.0,90.0,15.0,0.0
543,71.0,0.0,90.0,15.0,0.0
544,42.0,60.0,60.0,15.0,0.0
545,66.0,29.0,120.0,0.0,0.0
546,58.0,0.0,60.0,15.0,0.0
547,49.0,0.0,60.0,15.0,0.0
548,54.0,60.0,60.0,15.0,0.0
549,66.0,0.0,180.0,15.0,0.0
550,78.0,30.0,180.0,15.0,0.0
551,37.0,1.0,60.0,15.0,0.0
552,70.0,0.0,60.0,15.0,0.0
553,65.0,30.0,30.0,0.0,0.0
554,54.0,0.0,60.0,15.0,0.0
555,49.0,0.0,60.0,15.0,0.0
556,58.0,0.0,60.0,15.0,0.0
557,66.0,0.0,30.0,0.0,0.0
558,42.0,30.0,60.0,15.0,0.0
559,68.0,30.0,30.0,0.0,0.0
560,66.0,0.0,30.0,0.0,0.0
561,58.0,0.0,60.0,15.0,0.0
562,65.0,30.0,30.0,0.0,0.0
563,49.0,0.0,60.0,15.0,0.0
564,54.0,60.0,60.0,15.0,0.0
565,68.0,0.0,30.0,0.0,0.0
566,37.0,0.0,60.0,15.0,0.0
567,66.0,60.0,60.0,0.0,0.0
568,58.0,39.0,60.0,15.0,0.0
569,49.0,0.0,60.0,15.0,0.0
570,54.0,0.0,60.0,15.0,0.0
571,68.0,8.0,90.0,15.0,0.0
572,77.0,0.0,90.0,15.0,0.0
573,65.0,0.0,90.0,0.0,0.0
574,38.0,21.0,40.0,15.0,0.0
575,56.0,0.0,40.0,15.0,0.0
576,46.0,60.0,40.0,15.0,0.0
577,65.0,0.0,90.0,0.0,0.0
578,34.0,52.0,40.0,15.0,0.0
579,68.0,0.0,90.0,15.0,0.0
580,77.0,8.0,90.0,15.0,0.0
581,56.0,60.0,40.0,15.0,0.0
582,46.0,0.0,40.0,15.0,0.0
583,68.0,0.0,40.0,0.0,0.0
584,38.0,60.0,60.0,15.0,0.0
585,71.0,21.0,40.0,15.0,0.0
586,80.0,0.0,40.0,15.0,0.0
587,58.0,0.0,60.0,15.0,0.0
588,66.0,0.0,90.0,0.0,0.0
589,70.0,29.0,90.0,15.0,0.0
590,46.0,31.0,60.0,15.0,0.0
591,78.0,0.0,90.0,15.0,0.0
592,34.0,60.0,60.0,15.0,0.0
593,65.0,0.0,120.0,0.0,0.0
594,77.0,0.0,120.0,15.0,0.0
595,46.0,60.0,60.0,15.0,0.0
596,56.0,0.0,60.0,15.0,0.0
597,68.0,0.0,120.0,15.0,0.0
598,35.0,60.0,60.0,15.0,0.0
599,63.0,0.0,120.0,0.0,0.0
600,54.0,0.0,60.0,15.0,0.0
601,42.0,60.0,60.0,15.0,0.0
602,75.0,30.0,120.0,15.0,0.0
603,71.0,0.0,300.0,15.0,0.0
604,47.0,0.0,60.0,15.0,0.0
605,66.0,0.0,120.0,15.0,0.0
606,30.0,0.0,60.0,15.0,0.0
607,62.0,0.0,30.0,0.0,0.0
608,74.0,0.0,30.0,15.0,0.0
609,47.0,0.0,60.0,15.0,0.0
610,42.0,0.0,60.0,15.0,0.0
611,54.0,0.0,60.0,15.0,0.0
612,65.0,30.0,30.0,15.0,0.0
613,66.0,0.0,30.0,15.0,0.0
614,75.0,30.0,30.0,15.0,0.0
615,63.0,0.0,30.0,0.0,0.0
616,77.0,30.0,30.0,15.0,0.0
617,35.0,0.0,60.0,15.0,0.0
618,68.0,0.0,30.0,15.0,0.0
619,65.0,0.0,30.0,0.0,0.0
620,63.0,0.0,30.0,0.0,0.0
621,75.0,30.0,30.0,15.0,0.0
622,66.0,0.0,30.0,15.0,0.0
623,47.0,0.0,60.0,15.0,0.0
624,54.0,0.0,60.0,15.0,0.0
625,74.0,0.0,30.0,15.0,0.0
626,65.0,0.0,30.0,15.0,0.0
627,42.0,0.0,60.0,15.0,0.0
628,62.0,30.0,30.0,0.0,0.0
629,77.0,60.0,30.0,15.0,0.0
630,65.0,0.0,30.0,0.0,0.0
631,68.0,0.0,30.0,15.0,0.0
632,63.0,0.0,120.0,0.0,0.0
633,70.0,0.0,120.0,15.0,0.0
634,66.0,15.0,120.0,15.0,0.0
635,75.0,0.0,120.0,15.0,0.0
636,30.0,60.0,60.0,15.0,0.0
637,46.0,0.0,60.0,15.0,0.0
638,51.0,0.0,60.0,15.0,0.0
639,54.0,0.0,60.0,15.0,0.0
640,82.0,0.0,40.0,15.0,0.0
641,77.0,0.0,40.0,15.0,0.0
642,74.0,0.0,40.0,15.0,0.0
643,10.0,15.0,15.0,15.0,0.0
644,70.0,16.0,40.0,0.0,0.0
645,70.0,0.0,40.0,15.0,0.0
646,22.0,9.0,15.0,15.0,0.0
647,50.0,0.0,20.0,15.0,0.0
648,53.0,0.0,20.0,15.0,0.0
649,58.0,0.0,20.0,15.0,0.0
650,62.0,175.0,20.0,15.0,0.0
651,58.0,0.0,20.0,15.0,0.0
652,70.0,0.0,20.0,15.0,0.0
653,46.0,0.0,20.0,15.0,0.0
654,58.0,49.0,20.0,0.0,0.0
655,34.0,0.0,20.0,15.0,0.0
656,72.0,0.0,40.0,15.0,0.0
657,36.0,0.0,40.0,15.0,0.0
658,48.0,0.0,40.0,15.0,0.0
659,60.0,120.0,40.0,15.0,0.0
660,60.0,0.0,40.0,0.0,0.0
661,62.0,0.0,40.0,0.0,0.0
662,38.0,0.0,40.0,15.0,0.0
663,50.0,0.0,40.0,15.0,0.0
664,62.0,0.0,40.0,15.0,0.0
665,74.0,96.0,40.0,15.0,0.0
666,63.0,15.0,40.0,0.0,0.0
667,26.0,0.0,40.0,15.0,0.0
668,38.0,0.0,40.0,15.0,0.0
669,77.0,24.0,15.0,15.0,0.0
670,75.0,126.0,40.0,15.0,0.0
671,70.0,0.0,40.0,15.0,0.0
672,63.0,0.0,40.0,15.0,0.0
673,63.0,0.0,120.0,15.0,0.0
674,54.0,0.0,120.0,15.0,0.0
675,42.0,0.0,120.0,15.0,0.0
676,70.0,0.0,120.0,15.0,0.0
677,46.0,0.0,120.0,15.0,0.0
678,75.0,30.0,120.0,15.0,0.0
679,63.0,0.0,120.0,0.0,0.0
680,74.0,0.0,30.0,15.0,0.0
681,62.0,30.0,30.0,0.0,0.0
682,63.0,24.0,30.0,0.0,0.0
683,75.0,0.0,30.0,15.0,0.0
684,77.0,0.0,20.0,15.0,0.0
685,65.0,24.0,20.0,0.0,0.0
686,65.0,0.0,20.0,15.0,0.0
687,39.0,0.0,120.0,15.0,0.0
688,71.0,0.0,20.0,15.0,0.0
689,47.0,10.0,120.0,15.0,0.0
690,56.0,19.0,120.0,15.0,0.0
691,75.0,0.0,20.0,15.0,0.0
692,63.0,24.0,20.0,0.0,0.0
693,62.0,24.0,20.0,0.0,0.0
694,74.0,0.0,20.0,15.0,0.0
695,75.0,24.0,20.0,15.0,0.0
696,63.0,0.0,20.0,0.0,0.0
697,77.0,10.0,20.0,15.0,0.0
698,65.0,0.0,20.0,0.0,0.0
699,75.0,0.0,40.0,15.0,0.0
700,63.0,10.0,40.0,0.0,0.0
701,39.0,0.0,40.0,15.0,0.0
702,70.0,0.0,40.0,15.0,0.0
703,63.0,0.0,40.0,15.0,0.0
704,46.0,10.0,40.0,15.0,0.0
705,54.0,100.0,40.0,15.0,0.0
706,70.0,20.0,90.0,15.0,0.0
707,43.0,40.0,40.0,15.0,0.0
708,70.0,0.0,90.0,0.0,0.0
709,82.0,0.0,90.0,15.0,0.0
710,73.0,0.0,90.0,15.0,0.0
711,51.0,60.0,40.0,15.0,0.0
712,55.0,0.0,40.0,15.0,0.0
713,61.0,0.0,40.0,15.0,0.0
714,73.0,20.0,90.0,15.0,0.0
715,70.0,0.0,90.0,0.0,0.0
716,70.0,0.0,90.0,15.0,0.0
717,82.0,0.0,90.0,15.0,0.0
718,39.0,40.0,40.0,15.0,0.0
719,55.0,0.0,40.0,15.0,0.0
720,51.0,0.0,40.0,15.0,0.0
721,61.0,60.0,40.0,15.0,0.0
722,75.0,39.0,180.0,15.0,0.0
723,71.0,0.0,180.0,15.0,0.0
724,83.0,0.0,180.0,15.0,0.0
725,71.0,0.0,180.0,0.0,0.0
726,43.0,60.0,40.0,15.0,0.0
727,55.0,0.0,40.0,15.0,0.0
728,63.0,0.0,40.0,15.0,0.0
729,51.0,60.0,40.0,15.0,0.0
730,39.0,21.0,40.0,15.0,0.0
731,55.0,0.0,40.0,15.0,0.0
732,70.0,60.0,40.0,0.0,0.0
733,51.0,0.0,40.0,15.0,0.0
734,61.0,0.0,40.0,15.0,0.0
735,70.0,0.0,40.0,15.0,0.0
736,73.0,0.0,40.0,15.0,0.0
737,82.0,0.0,40.0,15.0,0.0
738,44.0,60.0,40.0,15.0,0.0
739,68.0,30.0,120.0,15.0,0.0
740,71.0,0.0,120.0,15.0,0.0
741,83.0,0.0,120.0,15.0,0.0
742,59.0,60.0,40.0,15.0,0.0
743,56.0,0.0,40.0,15.0,0.0
744,68.0,0.0,120.0,0.0,0.0
745,51.0,0.0,40.0,15.0,0.0
746,39.0,21.0,40.0,15.0,0.0
747,51.0,0.0,40.0,15.0,0.0
748,56.0,0.0,40.0,15.0,0.0
749,59.0,21.0,40.0,15.0,0.0
750,67.0,9.0,30.0,0.0,0.0
751,71.0,0.0,240.0,15.0,0.0
752,68.0,30.0,30.0,0.0,0.0
753,44.0,0.0,60.0,15.0,0.0
754,70.0,30.0,30.0,0.0,0.0
755,68.0,30.0,30.0,0.0,0.0
756,59.0,21.0,40.0,15.0,0.0
757,56.0,0.0,40.0,15.0,0.0
758,51.0,0.0,40.0,15.0,0.0
759,67.0,9.0,30.0,0.0,0.0
760,70.0,39.0,30.0,0.0,0.0
761,42.0,21.0,40.0,15.0,0.0
762,68.0,39.0,60.0,0.0,0.0
763,59.0,60.0,40.0,15.0,0.0
764,51.0,0.0,40.0,15.0,0.0
765,56.0,0.0,40.0,15.0,0.0
766,68.0,0.0,90.0,15.0,0.0
767,71.0,20.0,90.0,15.0,0.0
768,80.0,0.0,90.0,15.0,0.0
769,68.0,0.0,90.0,0.0,0.0
770,41.0,40.0,40.0,15.0,0.0
771,59.0,0.0,40.0,15.0,0.0
772,53.0,0.0,40.0,15.0,0.0
773,49.0,60.0,40.0,15.0,0.0
774,68.0,20.0,90.0,0.0,0.0
775,68.0,0.0,90.0,15.0,0.0
776,71.0,0.0,90.0,15.0,0.0
777,80.0,0.0,90.0,15.0,0.0
778,37.0,40.0,40.0,15.0,0.0
779,59.0,0.0,40.0,15.0,0.0
780,49.0,60.0,40.0,15.0,0.0
781,53.0,0.0,40.0,15.0,0.0
782,41.0,60.0,40.0,15.0,0.0
783,82.0,0.0,180.0,15.0,0.0
784,70.0,0.0,180.0,0.0,0.0
785,70.0,39.0,180.0,15.0,0.0
786,73.0,0.0,180.0,15.0,0.0
787,49.0,60.0,40.0,15.0,0.0
788,61.0,0.0,40.0,15.0,0.0
789,53.0,0.0,40.0,15.0,0.0
790,37.0,21.0,40.0,15.0,0.0
791,59.0,0.0,40.0,15.0,0.0
792,49.0,0.0,40.0,15.0,0.0
793,80.0,0.0,90.0,15.0,0.0
794,68.0,0.0,90.0,0.0,0.0
795,53.0,51.0,40.0,15.0,0.0
796,68.0,30.0,90.0,15.0,0.0
797,71.0,0.0,90.0,15.0,0.0
798,42.0,60.0,60.0,15.0,0.0
799,54.0,0.0,60.0,15.0,0.0
800,58.0,60.0,60.0,15.0,0.0
801,49.0,0.0,60.0,15.0,0.0
802,66.0,29.0,120.0,0.0,0.0
803,78.0,0.0,180.0,15.0,0.0
804,66.0,0.0,180.0,15.0,0.0
805,37.0,1.0,60.0,15.0,0.0
806,54.0,0.0,60.0,15.0,0.0
807,49.0,0.0,60.0,15.0,0.0
808,65.0,30.0,30.0,0.0,0.0
809,58.0,30.0,60.0,15.0,0.0
810,70.0,0.0,60.0,15.0,0.0
811,66.0,0.0,30.0,0.0,0.0
812,68.0,30.0,30.0,0.0,0.0
813,42.0,30.0,60.0,15.0,0.0
814,66.0,0.0,30.0,0.0,0.0
815,58.0,0.0,60.0,15.0,0.0
816,54.0,60.0,60.0,15.0,0.0
817,49.0,0.0,60.0,15.0,0.0
818,65.0,30.0,30.0,0.0,0.0
819,68.0,0.0,30.0,0.0,0.0
820,37.0,0.0,60.0,15.0,0.0
821,66.0,60.0,60.0,0.0,0.0
822,54.0,39.0,60.0,15.0,0.0
823,49.0,0.0,60.0,15.0,0.0
824,58.0,0.0,60.0,15.0,0.0
825,65.0,8.0,90.0,0.0,0.0
826,38.0,21.0,40.0,15.0,0.0
827,77.0,0.0,90.0,15.0,0.0
828,68.0,0.0,90.0,15.0,0.0
829,46.0,60.0,40.0,15.0,0.0
830,56.0,0.0,40.0,15.0,0.0
831,77.0,0.0,90.0,15.0,0.0
832,34.0,52.0,40.0,15.0,0.0
833,68.0,8.0,90.0,15.0,0.0
834,65.0,0.0,90.0,0.0,0.0
835,56.0,60.0,40.0,15.0,0.0
836,46.0,0.0,40.0,15.0,0.0
837,38.0,60.0,60.0,15.0,0.0
838,71.0,0.0,40.0,15.0,0.0
839,80.0,0.0,40.0,15.0,0.0
840,68.0,21.0,40.0,0.0,0.0
841,66.0,0.0,90.0,0.0,0.0
842,58.0,0.0,60.0,15.0,0.0
843,70.0,29.0,90.0,15.0,0.0
844,46.0,31.0,60.0,15.0,0.0
845,78.0,0.0,90.0,15.0,0.0
846,34.0,60.0,60.0,15.0,0.0
847,56.0,60.0,60.0,15.0,0.0
848,46.0,0.0,60.0,15.0,0.0
849,77.0,0.0,120.0,15.0,0.0
850,65.0,0.0,120.0,0.0,0.0
851,68.0,60.0,120.0,15.0,0.0
852,35.0,0.0,60.0,15.0,0.0
853,47.0,0.0,60.0,15.0,0.0
854,54.0,0.0,60.0,15.0,0.0
855,42.0,60.0,60.0,15.0,0.0
856,71.0,0.0,300.0,15.0,0.0
857,66.0,0.0,120.0,15.0,0.0
858,75.0,0.0,120.0,15.0,0.0
859,63.0,0.0,120.0,0.0,0.0
860,30.0,30.0,60.0,15.0,0.0
861,47.0,0.0,60.0,15.0,0.0
862,62.0,0.0,30.0,0.0,0.0
863,74.0,30.0,30.0,15.0,0.0
864,65.0,0.0,30.0,15.0,0.0
865,54.0,0.0,60.0,15.0,0.0
866,42.0,0.0,60.0,15.0,0.0
867,63.0,0.0,30.0,0.0,0.0
868,75.0,30.0,30.0,15.0,0.0
869,66.0,0.0,30.0,15.0,0.0
870,68.0,30.0,30.0,15.0,0.0
871,77.0,0.0,30.0,15.0,0.0
872,65.0,0.0,30.0,0.0,0.0
873,35.0,0.0,60.0,15.0,0.0
874,66.0,0.0,30.0,15.0,0.0
875,75.0,0.0,30.0,15.0,0.0
876,63.0,30.0,30.0,0.0,0.0
877,62.0,0.0,30.0,0.0,0.0
878,47.0,0.0,60.0,15.0,0.0
879,74.0,30.0,30.0,15.0,0.0
880,42.0,0.0,60.0,15.0,0.0
881,65.0,0.0,30.0,15.0,0.0
882,54.0,0.0,60.0,15.0,0.0
883,77.0,60.0,30.0,15.0,0.0
884,68.0,0.0,30.0,15.0,0.0
885,65.0,0.0,30.0,0.0,0.0
886,70.0,0.0,120.0,15.0,0.0
887,75.0,15.0,120.0,15.0,0.0
888,66.0,0.0,120.0,15.0,0.0
889,63.0,0.0,120.0,0.0,0.0
890,30.0,60.0,60.0,15.0,0.0
891,54.0,0.0,60.0,15.0,0.0
892,51.0,0.0,60.0,15.0,0.0
893,46.0,0.0,60.0,15.0,0.0
894,70.0,0.0,40.0,0.0,0.0
895,82.0,16.0,40.0,15.0,0.0
896,74.0,0.0,40.0,15.0,0.0
897,10.0,15.0,15.0,15.0,0.0
898,70.0,0.0,40.0,15.0,0.0
899,77.0,0.0,40.0,15.0,0.0
900,22.0,9.0,15.0,15.0,0.0
901,58.0,0.0,20.0,15.0,0.0
902,50.0,175.0,20.0,15.0,0.0
903,62.0,0.0,20.0,15.0,0.0
904,53.0,0.0,20.0,15.0,0.0
905,46.0,0.0,20.0,15.0,0.0
906,58.0,0.0,20.0,15.0,0.0
907,70.0,49.0,20.0,15.0,0.0
908,58.0,0.0,20.0,0.0,0.0
909,34.0,0.0,20.0,15.0,0.0
910,72.0,0.0,40.0,15.0,0.0
911,60.0,0.0,40.0,15.0,0.0
912,60.0,0.0,40.0,0.0,0.0
913,36.0,0.0,40.0,15.0,0.0
914,48.0,120.0,40.0,15.0,0.0
915,50.0,0.0,40.0,15.0,0.0
916,62.0,0.0,40.0,0.0,0.0
917,74.0,0.0,40.0,15.0,0.0
918,62.0,0.0,40.0,15.0,0.0
919,38.0,96.0,40.0,15.0,0.0
920,77.0,24.0,15.0,15.0,0.0
921,26.0,0.0,40.0,15.0,0.0
922,38.0,15.0,40.0,15.0,0.0
923,63.0,0.0,40.0,0.0,0.0
924,75.0,126.0,40.0,15.0,0.0
925,70.0,0.0,40.0,15.0,0.0
926,63.0,0.0,40.0,15.0,0.0
927,42.0,0.0,120.0,15.0,0.0
928,46.0,0.0,120.0,15.0,0.0
929,75.0,0.0,120.0,15.0,0.0
930,70.0,0.0,120.0,15.0,0.0
931,63.0,0.0,120.0,15.0,0.0
932,63.0,30.0,120.0,0.0,0.0
933,54.0,0.0,120.0,15.0,0.0
934,62.0,0.0,30.0,0.0,0.0
935,74.0,30.0,30.0,15.0,0.0
936,63.0,0.0,30.0,0.0,0.0
937,75.0,24.0,30.0,15.0,0.0
938,65.0,0.0,20.0,15.0,0.0
939,71.0,0.0,20.0,15.0,0.0
940,77.0,24.0,20.0,15.0,0.0
941,39.0,10.0,120.0,15.0,0.0
942,65.0,0.0,20.0,0.0,0.0
943,47.0,10.0,120.0,15.0,0.0
944,56.0,19.0,120.0,15.0,0.0
945,75.0,0.0,20.0,15.0,0.0
946,63.0,24.0,20.0,0.0,0.0
947,74.0,24.0,20.0,15.0,0.0
948,62.0,0.0,20.0,0.0,0.0
949,63.0,24.0,20.0,0.0,0.0
950,75.0,0.0,20.0,15.0,0.0
951,65.0,0.0,20.0,0.0,0.0
952,77.0,0.0,20.0,15.0,0.0
953,63.0,0.0,40.0,0.0,0.0
954,39.0,10.0,40.0,15.0,0.0
955,70.0,0.0,40.0,15.0,0.0
956,63.0,0.0,40.0,15.0,0.0
957,75.0,0.0,40.0,15.0,0.0
958,46.0,10.0,40.0,15.0,0.0
959,54.0,121.0,40.0,15.0,0.0
960,27.0,60.0,60.0,15.0,0.0
961,75.0,0.0,60.0,0.0,0.0
962,63.0,0.0,60.0,15.0,0.0
963,67.0,0.0,60.0,15.0,0.0
964,67.0,0.0,60.0,15.0,0.0
965,70.0,0.0,60.0,0.0,0.0
966,46.0,0.0,60.0,15.0,0.0
967,39.0,0.0,60.0,15.0,0.0
968,34.0,0.0,60.0,15.0,0.0
969,58.0,39.0,60.0,15.0,0.0
970,67.0,0.0,40.0,15.0,0.0
971,58.0,21.0,40.0,15.0,0.0
972,27.0,39.0,60.0,15.0,0.0
973,70.0,0.0,40.0,0.0,0.0
974,67.0,0.0,40.0,15.0,0.0
975,39.0,60.0,60.0,15.0,0.0
976,34.0,0.0,60.0,15.0,0.0
977,70.0,0.0,40.0,0.0,0.0
978,58.0,21.0,40.0,15.0,0.0
979,46.0,0.0,60.0,15.0,0.0
980,58.0,60.0,60.0,15.0,0.0
981,67.0,0.0,60.0,15.0,0.0
982,27.0,0.0,60.0,15.0,0.0
983,70.0,0.0,60.0,0.0,0.0
984,39.0,0.0,60.0,15.0,0.0
985,34.0,0.0,60.0,15.0,0.0
986,46.0,0.0,60.0,15.0,0.0
987,65.0,0.0,60.0,15.0,0.0
988,68.0,0.0,60.0,0.0,0.0
989,56.0,60.0,60.0,15.0,0.0
990,55.0,0.0,60.0,15.0,0.0
991,63.0,60.0,60.0,15.0,0.0
992,67.0,0.0,60.0,0.0,0.0
993,27.0,0.0,60.0,15.0,0.0
994,46.0,0.0,60.0,15.0,0.0
995,34.0,0.0,60.0,15.0,0.0
996,65.0,0.0,60.0,15.0,0.0
997,68.0,0.0,60.0,0.0,0.0
998,39.0,60.0,60.0,15.0,0.0
999,56.0,0.0,60.0,15.0,0.0
1000,27.0,60.0,60.0,15.0,0.0
1001,63.0,0.0,60.0,15.0,0.0
1002,67.0,0.0,60.0,15.0,0.0
1003,58.0,0.0,60.0,15.0,0.0
1004,70.0,0.0,120.0,0.0,0.0
1005,67.0,0.0,60.0,15.0,0.0
1006,63.0,0.0,60.0,15.0,0.0
1007,58.0,0.0,60.0,15.0,0.0
1008,39.0,0.0,60.0,15.0,0.0
1009,46.0,60.0,60.0,15.0,0.0
1010,34.0,0.0,60.0,15.0,0.0
1011,58.0,60.0,60.0,15.0,0.0
1012,70.0,0.0,120.0,0.0,0.0
1013,27.0,0.0,60.0,15.0,0.0
1014,67.0,0.0,60.0,15.0,0.0
1015,63.0,0.0,60.0,15.0,0.0
1016,58.0,0.0,60.0,15.0,0.0
1017,67.0,60.0,60.0,15.0,0.0
1018,63.0,0.0,60.0,15.0,0.0
1019,46.0,0.0,60.0,15.0,0.0
1020,34.0,0.0,60.0,15.0,0.0
1021,39.0,0.0,60.0,15.0,0.0
1022,75.0,60.0,60.0,0.0,0.0
1023,63.0,0.0,60.0,15.0,0.0
1024,67.0,0.0,60.0,15.0,0.0
1025,27.0,0.0,60.0,15.0,0.0
1026,39.0,0.0,60.0,15.0,0.0
1027,46.0,39.0,60.0,15.0,0.0
1028,34.0,0.0,60.0,15.0,0.0
1029,70.0,0.0,60.0,0.0,0.0
1030,67.0,0.0,60.0,15.0,0.0
1031,58.0,0.0,60.0,15.0,0.0
1032,67.0,0.0,40.0,15.0,0.0
1033,58.0,0.0,40.0,15.0,0.0
1034,27.0,39.0,60.0,15.0,0.0
1035,70.0,21.0,40.0,0.0,0.0
1036,67.0,0.0,40.0,15.0,0.0
1037,39.0,60.0,60.0,15.0,0.0
1038,46.0,0.0,60.0,15.0,0.0
1039,70.0,0.0,40.0,0.0,0.0
1040,34.0,0.0,60.0,15.0,0.0
1041,58.0,21.0,40.0,15.0,0.0
1042,70.0,0.0,60.0,0.0,0.0
1043,27.0,0.0,60.0,15.0,0.0
1044,67.0,60.0,60.0,15.0,0.0
1045,58.0,0.0,60.0,15.0,0.0
1046,39.0,0.0,60.0,15.0,0.0
1047,46.0,60.0,60.0,15.0,0.0
1048,34.0,0.0,60.0,15.0,0.0
1049,56.0,0.0,60.0,15.0,0.0
1050,65.0,0.0,60.0,15.0,0.0
1051,68.0,0.0,60.0,0.0,0.0
1052,55.0,60.0,60.0,15.0,0.0
1053,67.0,0.0,60.0,0.0,0.0
1054,63.0,0.0,60.0,15.0,0.0
1055,27.0,0.0,60.0,15.0,0.0
1056,34.0,0.0,60.0,15.0,0.0
1057,62.0,0.0,60.0,15.0,0.0
1058,39.0,0.0,60.0,15.0,0.0
1059,53.0,60.0,60.0,15.0,0.0
1060,65.0,0.0,60.0,0.0,0.0
1061,46.0,0.0,60.0,15.0,0.0
1062,63.0,0.0,120.0,0.0,0.0
1063,58.0,0.0,60.0,15.0,0.0
1064,55.0,0.0,60.0,15.0,0.0
1065,27.0,0.0,60.0,15.0,0.0
1066,51.0,60.0,60.0,15.0,0.0
1067,46.0,0.0,60.0,15.0,0.0
1068,39.0,0.0,60.0,15.0,0.0
1069,34.0,0.0,60.0,15.0,0.0
1070,51.0,60.0,60.0,15.0,0.0
1071,55.0,0.0,60.0,15.0,0.0
1072,58.0,0.0,60.0,15.0,0.0
1073,27.0,60.0,60.0,15.0,0.0
1074,63.0,0.0,120.0,0.0,0.0
1075,51.0,0.0,60.0,15.0,0.0
1076,55.0,0.0,60.0,15.0,0.0
1077,58.0,0.0,60.0,15.0,0.0
1078,55.0,0.0,60.0,15.0,0.0
1079,46.0,0.0,60.0,15.0,0.0
1080,39.0,0.0,60.0,15.0,0.0
1081,34.0,0.0,60.0,15.0,0.0
1082,58.0,0.0,60.0,15.0,0.0
1083,51.0,60.0,60.0,15.0,0.0
1084,75.0,0.0,60.0,15.0,0.0
1085,63.0,60.0,60.0,15.0,0.0
1086,27.0,0.0,60.0,15.0,0.0
1087,67.0,0.0,60.0,15.0,0.0
1088,34.0,39.0,60.0,15.0,0.0
1089,39.0,0.0,60.0,15.0,0.0
1090,46.0,0.0,60.0,15.0,0.0
1091,58.0,0.0,60.0,15.0,0.0
1092,67.0,0.0,60.0,15.0,0.0
1093,70.0,0.0,60.0,15.0,0.0
1094,67.0,0.0,40.0,15.0,0.0
1095,27.0,39.0,60.0,15.0,0.0
1096,58.0,0.0,40.0,15.0,0.0
1097,70.0,21.0,40.0,15.0,0.0
1098,70.0,0.0,40.0,15.0,0.0
1099,34.0,60.0,60.0,15.0,0.0
1100,58.0,21.0,40.0,15.0,0.0
1101,46.0,0.0,60.0,15.0,0.0
1102,39.0,0.0,60.0,15.0,0.0
1103,67.0,0.0,40.0,15.0,0.0
1104,70.0,0.0,60.0,15.0,0.0
1105,67.0,0.0,60.0,15.0,0.0
1106,27.0,60.0,60.0,15.0,0.0
1107,58.0,0.0,60.0,15.0,0.0
1108,39.0,0.0,60.0,15.0,0.0
1109,46.0,0.0,60.0,15.0,0.0
1110,34.0,0.0,60.0,15.0,0.0
1111,68.0,0.0,60.0,15.0,0.0
1112,65.0,0.0,60.0,15.0,0.0
1113,56.0,60.0,60.0,15.0,0.0
1114,27.0,60.0,60.0,15.0,0.0
1115,67.0,0.0,60.0,15.0,0.0
1116,63.0,0.0,60.0,15.0,0.0
1117,55.0,0.0,60.0,15.0,0.0
1118,65.0,0.0,60.0,15.0,0.0
1119,68.0,0.0,60.0,15.0,0.0
1120,46.0,0.0,60.0,15.0,0.0
1121,39.0,60.0,60.0,15.0,0.0
1122,34.0,0.0,60.0,15.0,0.0
1123,56.0,0.0,60.0,15.0,0.0
1124,63.0,60.0,60.0,15.0,0.0
1125,27.0,0.0,60.0,15.0,0.0
1126,58.0,0.0,60.0,15.0,0.0
1127,67.0,0.0,60.0,15.0,0.0
1128,70.0,0.0,120.0,15.0,0.0
1129,67.0,0.0,60.0,15.0,0.0
1130,63.0,0.0,60.0,15.0,0.0
1131,39.0,0.0,60.0,15.0,0.0
1132,46.0,60.0,60.0,15.0,0.0
1133,34.0,0.0,60.0,15.0,0.0
1134,58.0,0.0,60.0,15.0,0.0
1135,27.0,0.0,60.0,15.0,0.0
1136,63.0,60.0,60.0,15.0,0.0
1137,70.0,0.0,120.0,15.0,0.0
1138,58.0,0.0,60.0,15.0,0.0
1139,67.0,0.0,60.0,15.0,0.0
1140,34.0,0.0,60.0,15.0,0.0
1141,39.0,0.0,60.0,15.0,0.0
1142,46.0,0.0,60.0,15.0,0.0
1143,58.0,60.0,60.0,15.0,0.0
1144,63.0,0.0,60.0,15.0,0.0
1145,67.0,0.0,60.0,15.0,0.0
1146,63.0,0.0,60.0,15.0,0.0
1147,67.0,0.0,60.0,15.0,0.0
1148,27.0,0.0,60.0,15.0,0.0
1149,75.0,60.0,60.0,15.0,0.0
1150,46.0,0.0,60.0,15.0,0.0
1151,34.0,0.0,60.0,15.0,0.0
1152,67.0,0.0,60.0,15.0,0.0
1153,58.0,0.0,60.0,15.0,0.0
1154,39.0,0.0,60.0,15.0,0.0
1155,70.0,39.0,60.0,15.0,0.0
1156,58.0,0.0,40.0,15.0,0.0
1157,27.0,39.0,60.0,15.0,0.0
1158,67.0,21.0,40.0,15.0,0.0
1159,70.0,0.0,40.0,15.0,0.0
1160,39.0,0.0,60.0,15.0,0.0
1161,46.0,0.0,60.0,15.0,0.0
1162,34.0,60.0,60.0,15.0,0.0
1163,70.0,21.0,40.0,15.0,0.0
1164,58.0,0.0,40.0,15.0,0.0
1165,67.0,0.0,40.0,15.0,0.0
1166,70.0,60.0,60.0,15.0,0.0
1167,58.0,0.0,60.0,15.0,0.0
1168,27.0,0.0,60.0,15.0,0.0
1169,67.0,0.0,60.0,15.0,0.0
1170,68.0,60.0,60.0,15.0,0.0
1171,34.0,0.0,60.0,15.0,0.0
1172,46.0,0.0,60.0,15.0,0.0
1173,56.0,0.0,60.0,15.0,0.0
1174,65.0,0.0,60.0,15.0,0.0
1175,39.0,0.0,60.0,15.0,0.0
1176,55.0,0.0,60.0,15.0,0.0
1177,67.0,60.0,60.0,15.0,0.0
1178,27.0,0.0,60.0,15.0,0.0
1179,63.0,0.0,60.0,15.0,0.0
1180,53.0,60.0,60.0,15.0,0.0
1181,62.0,0.0,60.0,15.0,0.0
1182,46.0,0.0,60.0,15.0,0.0
1183,65.0,0.0,60.0,15.0,0.0
1184,34.0,0.0,60.0,15.0,0.0
1185,39.0,0.0,60.0,15.0,0.0
1186,27.0,0.0,60.0,15.0,0.0
1187,51.0,0.0,60.0,15.0,0.0
1188,58.0,60.0,60.0,15.0,0.0
1189,55.0,0.0,60.0,15.0,0.0
1190,63.0,0.0,120.0,15.0,0.0
1191,39.0,0.0,60.0,15.0,0.0
1192,34.0,0.0,60.0,15.0,0.0
1193,51.0,60.0,60.0,15.0,0.0
1194,58.0,0.0,60.0,15.0,0.0
1195,55.0,0.0,60.0,15.0,0.0
1196,46.0,0.0,60.0,15.0,0.0
1197,55.0,0.0,60.0,15.0,0.0
1198,58.0,0.0,60.0,15.0,0.0
1199,63.0,0.0,120.0,15.0,0.0
1200,27.0,0.0,60.0,15.0,0.0
1201,51.0,60.0,60.0,15.0,0.0
1202,51.0,0.0,60.0,15.0,0.0
1203,55.0,0.0,60.0,15.0,0.0
1204,58.0,60.0,60.0,15.0,0.0
1205,39.0,0.0,60.0,15.0,0.0
1206,46.0,0.0,60.0,15.0,0.0
1207,34.0,0.0,60.0,15.0,0.0
1208,27.0,60.0,60.0,15.0,0.0
1209,67.0,0.0,120.0,0.0,0.0
1210,67.0,0.0,120.0,15.0,0.0
1211,63.0,60.0,60.0,15.0,0.0
1212,55.0,0.0,60.0,15.0,0.0
1213,58.0,0.0,60.0,15.0,0.0
1214,39.0,0.0,60.0,15.0,0.0
1215,34.0,0.0,60.0,15.0,0.0
1216,46.0,0.0,60.0,15.0,0.0
1217,27.0,60.0,60.0,15.0,0.0
1218,68.0,0.0,120.0,0.0,0.0
1219,68.0,0.0,120.0,15.0,0.0
1220,56.0,0.0,60.0,15.0,0.0
1221,46.0,0.0,60.0,15.0,0.0
1222,39.0,0.0,60.0,15.0,0.0
1223,34.0,0.0,60.0,15.0,0.0
1224,63.0,0.0,60.0,15.0,0.0
1225,60.0,60.0,60.0,15.0,0.0
1226,67.0,0.0,120.0,15.0,0.0
1227,67.0,0.0,120.0,0.0,0.0
1228,27.0,60.0,60.0,15.0,0.0
1229,46.0,0.0,60.0,15.0,0.0
1230,39.0,0.0,60.0,15.0,0.0
1231,34.0,60.0,60.0,15.0,0.0
1232,63.0,0.0,60.0,15.0,0.0
1233,55.0,0.0,60.0,15.0,0.0
1234,58.0,0.0,60.0,15.0,0.0
1235,65.0,0.0,120.0,15.0,0.0
1236,27.0,60.0,60.0,15.0,0.0
1237,65.0,0.0,120.0,0.0,0.0
1238,39.0,0.0,60.0,15.0,0.0
1239,62.0,0.0,60.0,15.0,0.0
1240,58.0,39.0,60.0,15.0,0.0
1241,53.0,0.0,60.0,15.0,0.0
1242,46.0,0.0,60.0,15.0,0.0
1243,34.0,0.0,60.0,15.0,0.0
1244,79.0,0.0,40.0,15.0,0.0
1245,67.0,0.0,40.0,15.0,0.0
1246,67.0,0.0,40.0,0.0,0.0
1247,39.0,0.0,40.0,15.0,0.0
1248,75.0,60.0,40.0,15.0,0.0
1249,67.0,0.0,40.0,0.0,0.0
1250,79.0,0.0,40.0,15.0,0.0
1251,67.0,0.0,40.0,15.0,0.0
1252,51.0,0.0,40.0,15.0,0.0
1253,75.0,60.0,40.0,15.0,0.0
1254,63.0,0.0,40.0,15.0,0.0
1255,60.0,60.0,40.0,15.0,0.0
1256,68.0,0.0,40.0,15.0,0.0
1257,80.0,0.0,40.0,15.0,0.0
1258,77.0,0.0,40.0,15.0,0.0
1259,48.0,0.0,40.0,15.0,0.0
1260,68.0,0.0,40.0,0.0,0.0
1261,77.0,0.0,40.0,15.0,0.0
1262,68.0,81.0,40.0,15.0,0.0
1263,80.0,0.0,40.0,15.0,0.0
1264,68.0,0.0,40.0,0.0,0.0
1265,56.0,0.0,40.0,15.0,0.0
1266,44.0,0.0,40.0,15.0,0.0
1267,79.0,0.0,60.0,15.0,0.0
1268,82.0,39.0,60.0,15.0,0.0
1269,70.0,0.0,60.0,0.0,0.0
1270,39.0,0.0,60.0,15.0,0.0
1271,51.0,0.0,60.0,15.0,0.0
1272,70.0,0.0,60.0,15.0,0.0
1273,87.0,0.0,60.0,15.0,0.0
1274,79.0,0.0,60.0,15.0,0.0
1275,75.0,99.0,60.0,0.0,0.0
1276,75.0,0.0,60.0,15.0,0.0
1277,51.0,0.0,40.0,15.0,0.0
1278,63.0,0.0,40.0,15.0,0.0
1279,55.0,0.0,40.0,15.0,0.0
1280,58.0,21.0,40.0,15.0,0.0
1281,70.0,60.0,120.0,0.0,0.0
1282,70.0,0.0,120.0,15.0,0.0
1283,79.0,0.0,120.0,15.0,0.0
1284,82.0,0.0,120.0,15.0,0.0
1285,63.0,0.0,40.0,15.0,0.0
1286,58.0,0.0,40.0,15.0,0.0
1287,55.0,0.0,40.0,15.0,0.0
1288,51.0,21.0,40.0,15.0,0.0
1289,67.0,0.0,120.0,0.0,0.0
1290,67.0,60.0,120.0,15.0,0.0
1291,27.0,60.0,60.0,15.0,0.0
1292,58.0,0.0,60.0,15.0,0.0
1293,46.0,0.0,60.0,15.0,0.0
1294,39.0,0.0,60.0,15.0,0.0
1295,34.0,0.0,60.0,15.0,0.0
1296,63.0,0.0,60.0,15.0,0.0
1297,55.0,0.0,60.0,15.0,0.0
1298,27.0,60.0,60.0,15.0,0.0
1299,68.0,0.0,120.0,0.0,0.0
1300,68.0,60.0,120.0,15.0,0.0
1301,63.0,0.0,60.0,15.0,0.0
1302,39.0,0.0,60.0,15.0,0.0
1303,48.0,0.0,60.0,15.0,0.0
1304,36.0,0.0,60.0,15.0,0.0
1305,56.0,0.0,60.0,15.0,0.0
1306,70.0,60.0,120.0,0.0,0.0
1307,27.0,60.0,60.0,15.0,0.0
1308,70.0,0.0,120.0,15.0,0.0
1309,38.0,0.0,60.0,15.0,0.0
1310,41.0,0.0,60.0,15.0,0.0
1311,50.0,0.0,60.0,15.0,0.0
1312,65.0,0.0,60.0,15.0,0.0
1313,68.0,0.0,60.0,15.0,0.0
1314,58.0,0.0,60.0,15.0,0.0
1315,27.0,60.0,60.0,15.0,0.0
1316,70.0,0.0,120.0,15.0,0.0
1317,70.0,0.0,120.0,0.0,0.0
1318,58.0,0.0,60.0,15.0,0.0
1319,67.0,0.0,60.0,15.0,0.0
1320,63.0,39.0,60.0,15.0,0.0
1321,43.0,0.0,60.0,15.0,0.0
1322,51.0,0.0,60.0,15.0,0.0
1323,39.0,0.0,60.0,15.0,0.0
1324,39.0,0.0,40.0,15.0,0.0
1325,70.0,60.0,40.0,0.0,0.0
1326,82.0,0.0,40.0,15.0,0.0
1327,70.0,0.0,40.0,15.0,0.0
1328,79.0,0.0,40.0,15.0,0.0
1329,56.0,0.0,40.0,15.0,0.0
1330,68.0,0.0,40.0,15.0,0.0
1331,68.0,0.0,40.0,0.0,0.0
1332,80.0,60.0,40.0,15.0,0.0
1333,77.0,0.0,40.0,15.0,0.0
1334,44.0,0.0,40.0,15.0,0.0
1335,75.0,60.0,40.0,15.0,0.0
1336,58.0,0.0,40.0,15.0,0.0
1337,46.0,0.0,40.0,15.0,0.0
1338,79.0,0.0,40.0,15.0,0.0
1339,67.0,0.0,40.0,0.0,0.0
1340,67.0,0.0,40.0,15.0,0.0
1341,34.0,0.0,40.0,15.0,0.0
1342,46.0,81.0,40.0,15.0,0.0
1343,65.0,0.0,40.0,0.0,0.0
1344,65.0,0.0,40.0,15.0,0.0
1345,77.0,0.0,40.0,15.0,0.0
1346,74.0,0.0,40.0,15.0,0.0
1347,46.0,39.0,120.0,15.0,0.0
1348,39.0,0.0,120.0,15.0,0.0
1349,75.0,0.0,60.0,15.0,0.0
1350,63.0,0.0,60.0,0.0,0.0
1351,67.0,0.0,60.0,15.0,0.0
1352,63.0,60.0,60.0,15.0,0.0
1353,51.0,0.0,120.0,15.0,0.0
1354,70.0,0.0,60.0,15.0,0.0
1355,82.0,0.0,60.0,15.0,0.0
1356,75.0,0.0,60.0,0.0,0.0
1357,79.0,0.0,60.0,15.0,0.0
1358,75.0,0.0,60.0,15.0,0.0
1359,87.0,0.0,60.0,15.0,0.0
1360,63.0,120.0,60.0,0.0,0.0
1361,63.0,0.0,40.0,15.0,0.0
1362,51.0,21.0,40.0,15.0,0.0
1363,55.0,0.0,40.0,15.0,0.0
1364,58.0,0.0,40.0,15.0,0.0
1365,67.0,60.0,120.0,15.0,0.0
1366,27.0,60.0,60.0,15.0,0.0
1367,67.0,0.0,120.0,0.0,0.0
1368,55.0,0.0,60.0,15.0,0.0
1369,39.0,0.0,60.0,15.0,0.0
1370,58.0,0.0,60.0,15.0,0.0
1371,63.0,0.0,60.0,15.0,0.0
1372,34.0,0.0,60.0,15.0,0.0
1373,46.0,0.0,60.0,15.0,0.0
1374,68.0,0.0,120.0,15.0,0.0
1375,68.0,0.0,120.0,0.0,0.0
1376,27.0,60.0,60.0,15.0,0.0
1377,39.0,0.0,60.0,15.0,0.0
1378,56.0,0.0,60.0,15.0,0.0
1379,60.0,60.0,60.0,15.0,0.0
1380,63.0,0.0,60.0,15.0,0.0
1381,46.0,0.0,60.0,15.0,0.0
1382,34.0,0.0,60.0,15.0,0.0
1383,67.0,0.0,120.0,15.0,0.0
1384,67.0,0.0,120.0,0.0,0.0
1385,27.0,60.0,60.0,15.0,0.0
1386,55.0,0.0,60.0,15.0,0.0
1387,58.0,0.0,60.0,15.0,0.0
1388,39.0,0.0,60.0,15.0,0.0
1389,63.0,60.0,60.0,15.0,0.0
1390,34.0,0.0,60.0,15.0,0.0
1391,46.0,0.0,60.0,15.0,0.0
1392,65.0,0.0,120.0,15.0,0.0
1393,27.0,60.0,60.0,15.0,0.0
1394,65.0,0.0,120.0,0.0,0.0
1395,34.0,39.0,60.0,15.0,0.0
1396,39.0,0.0,60.0,15.0,0.0
1397,46.0,0.0,60.0,15.0,0.0
1398,58.0,0.0,60.0,15.0,0.0
1399,62.0,0.0,60.0,15.0,0.0
1400,53.0,0.0,60.0,15.0,0.0
1401,39.0,0.0,40.0,15.0,0.0
1402,67.0,60.0,40.0,0.0,0.0
1403,75.0,0.0,40.0,15.0,0.0
1404,79.0,0.0,40.0,15.0,0.0
1405,67.0,0.0,40.0,15.0,0.0
1406,79.0,0.0,40.0,15.0,0.0
1407,51.0,0.0,40.0,15.0,0.0
1408,75.0,0.0,40.0,15.0,0.0
1409,67.0,60.0,40.0,0.0,0.0
1410,63.0,0.0,40.0,15.0,0.0
1411,67.0,0.0,40.0,15.0,0.0
1412,68.0,0.0,40.0,0.0,0.0
1413,60.0,0.0,40.0,15.0,0.0
1414,48.0,0.0,40.0,15.0,0.0
1415,68.0,60.0,40.0,15.0,0.0
1416,77.0,0.0,40.0,15.0,0.0
1417,80.0,0.0,40.0,15.0,0.0
1418,68.0,0.0,40.0,0.0,0.0
1419,77.0,0.0,40.0,15.0,0.0
1420,68.0,0.0,40.0,15.0,0.0
1421,44.0,81.0,40.0,15.0,0.0
1422,80.0,0.0,40.0,15.0,0.0
1423,56.0,0.0,40.0,15.0,0.0
1424,79.0,39.0,60.0,15.0,0.0
1425,70.0,0.0,60.0,15.0,0.0
1426,51.0,0.0,60.0,15.0,0.0
1427,70.0,0.0,60.0,0.0,0.0
1428,82.0,0.0,60.0,15.0,0.0
1429,39.0,0.0,60.0,15.0,0.0
1430,63.0,21.0,40.0,15.0,0.0
1431,58.0,0.0,40.0,15.0,0.0
1432,55.0,0.0,40.0,15.0,0.0
1433,79.0,99.0,60.0,15.0,0.0
1434,75.0,0.0,60.0,0.0,0.0
1435,75.0,0.0,60.0,15.0,0.0
1436,87.0,0.0,60.0,15.0,0.0
1437,51.0,0.0,40.0,15.0,0.0
1438,82.0,0.0,120.0,15.0,0.0
1439,70.0,0.0,120.0,0.0,0.0
1440,79.0,60.0,120.0,15.0,0.0
1441,70.0,0.0,120.0,15.0,0.0
1442,55.0,0.0,40.0,15.0,0.0
1443,58.0,21.0,40.0,15.0,0.0
1444,63.0,0.0,40.0,15.0,0.0
1445,51.0,0.0,40.0,15.0,0.0
1446,67.0,0.0,120.0,0.0,0.0
1447,67.0,60.0,120.0,15.0,0.0
1448,27.0,60.0,60.0,15.0,0.0
1449,63.0,0.0,60.0,15.0,0.0
1450,46.0,0.0,60.0,15.0,0.0
1451,39.0,0.0,60.0,15.0,0.0
1452,34.0,0.0,60.0,15.0,0.0
1453,55.0,0.0,60.0,15.0,0.0
1454,58.0,0.0,60.0,15.0,0.0
1455,68.0,0.0,120.0,15.0,0.0
1456,27.0,60.0,60.0,15.0,0.0
1457,68.0,0.0,120.0,0.0,0.0
1458,39.0,0.0,60.0,15.0,0.0
1459,48.0,60.0,60.0,15.0,0.0
1460,56.0,0.0,60.0,15.0,0.0
1461,63.0,0.0,60.0,15.0,0.0
1462,36.0,0.0,60.0,15.0,0.0
1463,70.0,60.0,120.0,15.0,0.0
1464,70.0,0.0,120.0,0.0,0.0
1465,27.0,60.0,60.0,15.0,0.0
1466,41.0,0.0,60.0,15.0,0.0
1467,65.0,0.0,60.0,15.0,0.0
1468,50.0,0.0,60.0,15.0,0.0
1469,58.0,0.0,60.0,15.0,0.0
1470,38.0,0.0,60.0,15.0,0.0
1471,68.0,0.0,60.0,15.0,0.0
1472,70.0,0.0,120.0,0.0,0.0
1473,27.0,60.0,60.0,15.0,0.0
1474,70.0,0.0,120.0,15.0,0.0
1475,43.0,0.0,60.0,15.0,0.0
1476,63.0,0.0,60.0,15.0,0.0
1477,58.0,0.0,60.0,15.0,0.0
1478,51.0,0.0,60.0,15.0,0.0
1479,67.0,39.0,60.0,15.0,0.0
1480,39.0,0.0,60.0,15.0,0.0
1481,70.0,0.0,40.0,15.0,0.0
1482,79.0,60.0,40.0,15.0,0.0
1483,82.0,0.0,40.0,15.0,0.0
1484,39.0,0.0,40.0,15.0,0.0
1485,70.0,0.0,40.0,0.0,0.0
1486,44.0,0.0,40.0,15.0,0.0
1487,56.0,0.0,40.0,15.0,0.0
1488,68.0,60.0,40.0,15.0,0.0
1489,68.0,0.0,40.0,0.0,0.0
1490,80.0,0.0,40.0,15.0,0.0
1491,77.0,0.0,40.0,15.0,0.0
1492,67.0,0.0,40.0,15.0,0.0
1493,58.0,0.0,40.0,15.0,0.0
1494,46.0,0.0,40.0,15.0,0.0
1495,67.0,0.0,40.0,0.0,0.0
1496,75.0,60.0,40.0,15.0,0.0
1497,79.0,0.0,40.0,15.0,0.0
1498,74.0,0.0,40.0,15.0,0.0
1499,77.0,81.0,40.0,15.0,0.0
1500,34.0,0.0,40.0,15.0,0.0
1501,46.0,0.0,40.0,15.0,0.0
1502,65.0,0.0,40.0,15.0,0.0
1503,65.0,0.0,40.0,0.0,0.0
1504,51.0,0.0,120.0,15.0,0.0
1505,63.0,60.0,60.0,15.0,0.0
1506,46.0,39.0,120.0,15.0,0.0
1507,63.0,0.0,60.0,0.0,0.0
1508,39.0,0.0,120.0,15.0,0.0
1509,67.0,0.0,60.0,15.0,0.0
1510,70.0,0.0,60.0,15.0,0.0
1511,75.0,0.0,60.0,15.0,0.0
1512,75.0,0.0,60.0,15.0,0.0
1513,87.0,0.0,60.0,15.0,0.0
1514,82.0,0.0,60.0,15.0,0.0
1515,79.0,0.0,60.0,15.0,0.0
1516,75.0,0.0,60.0,0.0,0.0
1517,63.0,21.0,40.0,15.0,0.0
1518,51.0,0.0,40.0,15.0,0.0
1519,63.0,120.0,60.0,0.0,0.0
1520,55.0,0.0,40.0,15.0,0.0
1521,58.0,0.0,40.0,15.0,0.0
1522,39.0,39.0,60.0,15.0,0.0
1523,58.0,39.0,180.0,0.0,0.0
1524,42.0,10.0,40.0,15.0,0.0
1525,46.0,10.0,40.0,15.0,0.0
1526,54.0,40.0,40.0,15.0,0.0
1527,34.0,21.0,40.0,15.0,0.0
1528,46.0,21.0,40.0,15.0,0.0
1529,54.0,0.0,40.0,15.0,0.0
1530,63.0,60.0,60.0,0.0,0.0
1531,66.0,39.0,180.0,0.0,0.0
1532,39.0,39.0,60.0,15.0,0.0
1533,42.0,10.0,40.0,15.0,0.0
1534,46.0,10.0,40.0,15.0,0.0
1535,54.0,40.0,40.0,15.0,0.0
1536,34.0,21.0,40.0,15.0,0.0
1537,63.0,60.0,60.0,0.0,0.0
1538,46.0,21.0,40.0,15.0,0.0
1539,54.0,0.0,40.0,15.0,0.0
1540,62.0,30.0,180.0,0.0,0.0
1541,39.0,39.0,60.0,15.0,0.0
1542,44.0,10.0,40.0,15.0,0.0
1543,47.0,10.0,40.0,15.0,0.0
1544,56.0,40.0,40.0,15.0,0.0
1545,32.0,21.0,40.0,15.0,0.0
1546,63.0,9.0,30.0,0.0,0.0
1547,56.0,0.0,40.0,15.0,0.0
1548,47.0,21.0,40.0,15.0,0.0
1549,65.0,60.0,30.0,0.0,0.0
1550,39.0,39.0,60.0,15.0,0.0
1551,63.0,60.0,240.0,0.0,0.0
1552,42.0,10.0,40.0,15.0,0.0
1553,46.0,10.0,40.0,15.0,0.0
1554,54.0,40.0,40.0,15.0,0.0
1555,34.0,60.0,40.0,15.0,0.0
1556,46.0,21.0,40.0,15.0,0.0
1557,54.0,0.0,40.0,15.0,0.0
1558,39.0,0.0,60.0,15.0,0.0
1559,59.0,0.0,180.0,0.0,0.0
1560,59.0,30.0,180.0,15.0,0.0
1561,56.0,39.0,60.0,15.0,0.0
1562,44.0,10.0,40.0,15.0,0.0
1563,47.0,10.0,40.0,15.0,0.0
1564,56.0,40.0,40.0,15.0,0.0
1565,32.0,21.0,40.0,15.0,0.0
1566,44.0,0.0,40.0,15.0,0.0
1567,56.0,21.0,40.0,15.0,0.0
1568,61.0,0.0,30.0,0.0,0.0
1569,58.0,0.0,30.0,15.0,0.0
1570,61.0,9.0,30.0,15.0,0.0
1571,59.0,0.0,30.0,15.0,0.0
1572,63.0,0.0,30.0,15.0,0.0
1573,63.0,60.0,30.0,0.0,0.0
1574,39.0,0.0,60.0,15.0,0.0
1575,58.0,0.0,240.0,15.0,0.0
1576,54.0,39.0,60.0,15.0,0.0
1577,58.0,30.0,240.0,0.0,0.0
1578,42.0,10.0,40.0,15.0,0.0
1579,46.0,10.0,40.0,15.0,0.0
1580,54.0,40.0,40.0,15.0,0.0
1581,34.0,60.0,40.0,15.0,0.0
1582,54.0,0.0,40.0,15.0,0.0
1583,46.0,21.0,40.0,15.0,0.0
1584,56.0,0.0,30.0,0.0,0.0
1585,38.0,0.0,60.0,15.0,0.0
1586,56.0,30.0,30.0,15.0,0.0
1587,54.0,0.0,30.0,0.0,0.0
1588,54.0,30.0,30.0,15.0,0.0
1589,54.0,9.0,30.0,15.0,0.0
1590,54.0,0.0,30.0,0.0,0.0
1591,46.0,10.0,40.0,15.0,0.0
1592,50.0,10.0,40.0,15.0,0.0
1593,58.0,1.0,40.0,15.0,0.0
1594,53.0,0.0,30.0,0.0,0.0
1595,53.0,39.0,30.0,15.0,0.0
1596,34.0,52.0,40.0,15.0,0.0
1597,53.0,8.0,90.0,15.0,0.0
1598,53.0,0.0,90.0,0.0,0.0
1599,46.0,21.0,40.0,15.0,0.0
1600,56.0,0.0,40.0,15.0,0.0
1601,50.0,0.0,40.0,15.0,0.0
1602,58.0,0.0,30.0,0.0,0.0
1603,58.0,60.0,30.0,15.0,0.0
1604,51.0,0.0,240.0,15.0,0.0
1605,39.0,39.0,60.0,15.0,0.0
1606,51.0,60.0,240.0,0.0,0.0
1607,42.0,10.0,40.0,15.0,0.0
1608,46.0,10.0,40.0,15.0,0.0
1609,54.0,40.0,40.0,15.0,0.0
1610,34.0,60.0,40.0,15.0,0.0
1611,46.0,21.0,40.0,15.0,0.0
1612,54.0,0.0,40.0,15.0,0.0
1613,58.0,0.0,90.0,15.0,0.0
1614,39.0,30.0,60.0,15.0,0.0
1615,70.0,9.0,90.0,15.0,0.0
1616,42.0,10.0,40.0,15.0,0.0
1617,46.0,10.0,40.0,15.0,0.0
1618,54.0,1.0,40.0,15.0,0.0
1619,75.0,30.0,30.0,15.0,0.0
1620,63.0,0.0,30.0,15.0,0.0
1621,66.0,9.0,30.0,15.0,0.0
1622,34.0,21.0,40.0,15.0,0.0
1623,78.0,0.0,30.0,15.0,0.0
1624,70.0,30.0,30.0,15.0,0.0
1625,82.0,0.0,30.0,15.0,0.0
1626,87.0,9.0,30.0,15.0,0.0
1627,75.0,0.0,30.0,15.0,0.0
1628,54.0,21.0,40.0,15.0,0.0
1629,46.0,0.0,40.0,15.0,0.0
1630,90.0,60.0,30.0,15.0,0.0
1631,78.0,0.0,30.0,15.0,0.0
1632,94.0,39.0,180.0,15.0,0.0
1633,82.0,0.0,180.0,15.0,0.0
1634,39.0,39.0,60.0,15.0,0.0
1635,42.0,10.0,40.0,15.0,0.0
1636,46.0,10.0,40.0,15.0,0.0
1637,54.0,40.0,40.0,15.0,0.0
1638,34.0,21.0,40.0,15.0,0.0
1639,54.0,0.0,40.0,15.0,0.0
1640,46.0,21.0,40.0,15.0,0.0
1641,78.0,60.0,60.0,15.0,0.0
1642,90.0,0.0,60.0,15.0,0.0
1643,89.0,0.0,180.0,15.0,0.0
1644,86.0,30.0,180.0,15.0,0.0
1645,83.0,0.0,180.0,15.0,0.0
1646,77.0,0.0,180.0,15.0,0.0
1647,39.0,39.0,60.0,15.0,0.0
1648,44.0,10.0,40.0,15.0,0.0
1649,47.0,10.0,40.0,15.0,0.0
1650,56.0,40.0,40.0,15.0,0.0
1651,32.0,21.0,40.0,15.0,0.0
1652,47.0,0.0,40.0,15.0,0.0
1653,56.0,21.0,40.0,15.0,0.0
1654,78.0,9.0,30.0,15.0,0.0
1655,90.0,0.0,30.0,15.0,0.0
1656,80.0,60.0,30.0,15.0,0.0
1657,92.0,0.0,30.0,15.0,0.0
1658,39.0,39.0,60.0,15.0,0.0
1659,78.0,0.0,240.0,15.0,0.0
1660,82.0,0.0,240.0,15.0,0.0
1661,87.0,30.0,240.0,15.0,0.0
1662,90.0,0.0,240.0,15.0,0.0
1663,42.0,10.0,40.0,15.0,0.0
1664,46.0,10.0,40.0,15.0,0.0
1665,54.0,40.0,40.0,15.0,0.0
1666,34.0,60.0,40.0,15.0,0.0
1667,54.0,21.0,40.0,15.0,0.0
1668,46.0,0.0,40.0,15.0,0.0
1669,71.0,0.0,30.0,0.0,0.0
1670,54.0,0.0,60.0,15.0,0.0
1671,51.0,0.0,60.0,15.0,0.0
1672,59.0,0.0,60.0,15.0,0.0
1673,71.0,30.0,30.0,15.0,0.0
1674,73.0,30.0,30.0,0.0,0.0
1675,73.0,0.0,30.0,15.0,0.0
1676,75.0,0.0,30.0,15.0,0.0
1677,54.0,21.0,40.0,15.0,0.0
1678,63.0,0.0,40.0,15.0,0.0
1679,59.0,0.0,40.0,15.0,0.0
1680,75.0,9.0,30.0,0.0,0.0
1681,71.0,30.0,30.0,15.0,0.0
1682,71.0,0.0,30.0,0.0,0.0
1683,70.0,9.0,30.0,0.0,0.0
1684,70.0,0.0,30.0,15.0,0.0
1685,58.0,0.0,40.0,15.0,0.0
1686,49.0,0.0,40.0,15.0,0.0
1687,53.0,21.0,40.0,15.0,0.0
1688,71.0,0.0,30.0,15.0,0.0
1689,71.0,30.0,30.0,0.0,0.0
1690,58.0,21.0,40.0,15.0,0.0
1691,73.0,9.0,30.0,15.0,0.0
1692,73.0,0.0,30.0,0.0,0.0
1693,53.0,0.0,40.0,15.0,0.0
1694,61.0,0.0,40.0,15.0,0.0
1695,70.0,30.0,30.0,0.0,0.0
1696,70.0,0.0,30.0,15.0,0.0
1697,68.0,0.0,30.0,15.0,0.0
1698,68.0,9.0,30.0,0.0,0.0
1699,51.0,0.0,40.0,15.0,0.0
1700,56.0,0.0,40.0,15.0,0.0
1701,47.0,21.0,40.0,15.0,0.0
1702,70.0,0.0,30.0,0.0,0.0
1703,70.0,30.0,30.0,15.0,0.0
1704,56.0,0.0,40.0,15.0,0.0
1705,59.0,0.0,40.0,15.0,0.0
1706,51.0,21.0,40.0,15.0,0.0
1707,71.0,9.0,30.0,15.0,0.0
1708,71.0,0.0,30.0,0.0,0.0
1709,68.0,0.0,30.0,15.0,0.0
1710,68.0,30.0,30.0,0.0,0.0
1711,66.0,0.0,30.0,15.0,0.0
1712,54.0,0.0,40.0,15.0,0.0
1713,49.0,0.0,40.0,15.0,0.0
1714,66.0,9.0,30.0,0.0,0.0
1715,46.0,21.0,40.0,15.0,0.0
1716,68.0,30.0,30.0,15.0,0.0
1717,68.0,0.0,30.0,0.0,0.0
1718,70.0,0.0,30.0,15.0,0.0
1719,70.0,9.0,30.0,0.0,0.0
1720,54.0,21.0,40.0,15.0,0.0
1721,49.0,0.0,40.0,15.0,0.0
1722,58.0,0.0,40.0,15.0,0.0
1723,66.0,0.0,30.0,0.0,0.0
1724,66.0,30.0,30.0,15.0,0.0
1725,68.0,0.0,30.0,15.0,0.0
1726,34.0,21.0,40.0,15.0,0.0
1727,68.0,9.0,30.0,0.0,0.0
1728,66.0,30.0,30.0,15.0,0.0
1729,66.0,0.0,30.0,0.0,0.0
1730,50.0,0.0,40.0,15.0,0.0
1731,58.0,0.0,40.0,15.0,0.0
1732,46.0,21.0,40.0,15.0,0.0
1733,66.0,0.0,30.0,15.0,0.0
1734,66.0,9.0,30.0,0.0,0.0
1735,65.0,90.0,30.0,0.0,0.0
1736,65.0,0.0,30.0,15.0,0.0
1737,65.0,0.0,90.0,0.0,0.0
1738,65.0,9.0,90.0,15.0,0.0
1739,46.0,0.0,40.0,15.0,0.0
1740,56.0,21.0,40.0,15.0,0.0
1741,50.0,0.0,40.0,15.0,0.0
1742,70.0,60.0,30.0,0.0,0.0
1743,70.0,0.0,30.0,15.0,0.0
1744,39.0,10.0,60.0,15.0,0.0
1745,63.0,39.0,120.0,15.0,0.0
1746,63.0,0.0,120.0,0.0,0.0
1747,46.0,10.0,60.0,15.0,0.0
1748,54.0,40.0,60.0,15.0,0.0
1749,39.0,21.0,40.0,15.0,0.0
1750,27.0,0.0,40.0,15.0,0.0
1751,75.0,99.0,60.0,15.0,0.0
1752,75.0,0.0,60.0,0.0,0.0
1753,87.0,0.0,60.0,15.0,0.0
1754,43.0,40.0,40.0,15.0,0.0
1755,82.0,0.0,90.0,15.0,0.0
1756,73.0,0.0,90.0,15.0,0.0
1757,70.0,20.0,90.0,15.0,0.0
1758,51.0,0.0,40.0,15.0,0.0
1759,61.0,0.0,40.0,15.0,0.0
1760,55.0,60.0,40.0,15.0,0.0
1761,70.0,0.0,90.0,15.0,0.0
1762,39.0,40.0,40.0,15.0,0.0
1763,73.0,0.0,90.0,15.0,0.0
1764,82.0,20.0,90.0,15.0,0.0
1765,55.0,60.0,40.0,15.0,0.0
1766,61.0,0.0,40.0,15.0,0.0
1767,51.0,0.0,40.0,15.0,0.0
1768,43.0,60.0,40.0,15.0,0.0
1769,83.0,0.0,180.0,15.0,0.0
1770,71.0,39.0,180.0,15.0,0.0
1771,75.0,0.0,180.0,15.0,0.0
1772,63.0,0.0,40.0,15.0,0.0
1773,55.0,0.0,40.0,15.0,0.0
1774,51.0,60.0,40.0,15.0,0.0
1775,39.0,21.0,40.0,15.0,0.0
1776,51.0,0.0,40.0,15.0,0.0
1777,61.0,0.0,40.0,15.0,0.0
1778,82.0,60.0,40.0,15.0,0.0
1779,73.0,0.0,40.0,15.0,0.0
1780,70.0,0.0,40.0,15.0,0.0
1781,55.0,0.0,40.0,15.0,0.0
1782,44.0,60.0,40.0,15.0,0.0
1783,59.0,0.0,40.0,15.0,0.0
1784,68.0,0.0,120.0,15.0,0.0
1785,56.0,60.0,40.0,15.0,0.0
1786,83.0,0.0,120.0,15.0,0.0
1787,51.0,0.0,40.0,15.0,0.0
1788,71.0,30.0,120.0,15.0,0.0
1789,39.0,21.0,40.0,15.0,0.0
1790,59.0,0.0,40.0,15.0,0.0
1791,51.0,21.0,40.0,15.0,0.0
1792,79.0,9.0,30.0,15.0,0.0
1793,71.0,39.0,240.0,15.0,0.0
1794,56.0,0.0,40.0,15.0,0.0
1795,80.0,30.0,30.0,15.0,0.0
1796,44.0,0.0,60.0,15.0,0.0
1797,82.0,30.0,30.0,15.0,0.0
1798,80.0,30.0,30.0,15.0,0.0
1799,59.0,21.0,40.0,15.0,0.0
1800,56.0,0.0,40.0,15.0,0.0
1801,51.0,0.0,40.0,15.0,0.0
1802,79.0,9.0,30.0,15.0,0.0
1803,82.0,39.0,30.0,15.0,0.0
1804,42.0,21.0,40.0,15.0,0.0
1805,80.0,0.0,60.0,15.0,0.0
1806,56.0,0.0,40.0,15.0,0.0
1807,51.0,0.0,40.0,15.0,0.0
1808,59.0,60.0,40.0,15.0,0.0
1809,41.0,40.0,40.0,15.0,0.0
1810,71.0,0.0,90.0,15.0,0.0
1811,80.0,0.0,90.0,15.0,0.0
1812,68.0,20.0,90.0,15.0,0.0
1813,49.0,60.0,40.0,15.0,0.0
1814,59.0,0.0,40.0,15.0,0.0
1815,53.0,0.0,40.0,15.0,0.0
1816,37.0,40.0,40.0,15.0,0.0
1817,68.0,0.0,90.0,15.0,0.0
1818,80.0,20.0,90.0,15.0,0.0
1819,71.0,0.0,90.0,15.0,0.0
1820,49.0,60.0,40.0,15.0,0.0
1821,53.0,0.0,40.0,15.0,0.0
1822,59.0,0.0,40.0,15.0,0.0
1823,73.0,0.0,180.0,15.0,0.0
1824,41.0,60.0,40.0,15.0,0.0
1825,70.0,0.0,180.0,15.0,0.0
1826,82.0,39.0,180.0,15.0,0.0
1827,49.0,60.0,40.0,15.0,0.0
1828,53.0,0.0,40.0,15.0,0.0
1829,61.0,0.0,40.0,15.0,0.0
1830,37.0,21.0,40.0,15.0,0.0
1831,68.0,0.0,90.0,15.0,0.0
1832,53.0,0.0,40.0,15.0,0.0
1833,80.0,30.0,90.0,15.0,0.0
1834,71.0,0.0,90.0,15.0,0.0
1835,59.0,51.0,40.0,15.0,0.0
1836,49.0,0.0,40.0,15.0,0.0
1837,42.0,60.0,60.0,15.0,0.0
1838,54.0,0.0,60.0,15.0,0.0
1839,49.0,0.0,60.0,15.0,0.0
1840,58.0,60.0,60.0,15.0,0.0
1841,66.0,0.0,180.0,15.0,0.0
1842,37.0,30.0,60.0,15.0,0.0
1843,77.0,30.0,30.0,15.0,0.0
1844,70.0,0.0,60.0,15.0,0.0
1845,49.0,30.0,60.0,15.0,0.0
1846,58.0,0.0,60.0,15.0,0.0
1847,54.0,0.0,60.0,15.0,0.0
1848,78.0,0.0,30.0,15.0,0.0
1849,80.0,30.0,30.0,15.0,0.0
1850,42.0,0.0,60.0,15.0,0.0
1851,78.0,30.0,30.0,15.0,0.0
1852,49.0,0.0,60.0,15.0,0.0
1853,54.0,0.0,60.0,15.0,0.0
1854,77.0,30.0,30.0,15.0,0.0
1855,58.0,0.0,60.0,15.0,0.0
1856,80.0,60.0,30.0,15.0,0.0
1857,78.0,0.0,60.0,15.0,0.0
1858,37.0,60.0,60.0,15.0,0.0
1859,54.0,39.0,60.0,15.0,0.0
1860,49.0,0.0,60.0,15.0,0.0
1861,58.0,0.0,60.0,15.0,0.0
1862,65.0,8.0,90.0,0.0,0.0
1863,38.0,21.0,40.0,15.0,0.0
1864,68.0,0.0,90.0,15.0,0.0
1865,77.0,0.0,90.0,15.0,0.0
1866,56.0,60.0,40.0,15.0,0.0
1867,46.0,0.0,40.0,15.0,0.0
1868,34.0,52.0,40.0,15.0,0.0
1869,65.0,0.0,90.0,0.0,0.0
1870,68.0,8.0,90.0,15.0,0.0
1871,77.0,0.0,90.0,15.0,0.0
1872,56.0,0.0,40.0,15.0,0.0
1873,46.0,60.0,40.0,15.0,0.0
1874,38.0,60.0,60.0,15.0,0.0
1875,71.0,0.0,40.0,15.0,0.0
1876,80.0,0.0,40.0,15.0,0.0
1877,68.0,21.0,40.0,0.0,0.0
1878,70.0,0.0,90.0,15.0,0.0
1879,78.0,29.0,90.0,15.0,0.0
1880,58.0,0.0,60.0,15.0,0.0
1881,46.0,31.0,60.0,15.0,0.0
1882,66.0,0.0,90.0,0.0,0.0
1883,34.0,60.0,60.0,15.0,0.0
1884,68.0,0.0,120.0,15.0,0.0
1885,65.0,0.0,120.0,0.0,0.0
1886,56.0,60.0,60.0,15.0,0.0
1887,46.0,0.0,60.0,15.0,0.0
1888,77.0,0.0,120.0,15.0,0.0
1889,35.0,60.0,60.0,15.0,0.0
1890,47.0,0.0,60.0,15.0,0.0
1891,54.0,0.0,60.0,15.0,0.0
1892,71.0,0.0,300.0,15.0,0.0
1893,75.0,30.0,120.0,15.0,0.0
1894,66.0,0.0,120.0,15.0,0.0
1895,42.0,60.0,60.0,15.0,0.0
1896,63.0,0.0,120.0,0.0,0.0
1897,30.0,0.0,60.0,15.0,0.0
1898,65.0,0.0,30.0,15.0,0.0
1899,62.0,0.0,30.0,0.0,0.0
1900,47.0,30.0,60.0,15.0,0.0
1901,42.0,0.0,60.0,15.0,0.0
1902,54.0,0.0,60.0,15.0,0.0
1903,74.0,30.0,30.0,15.0,0.0
1904,66.0,0.0,30.0,15.0,0.0
1905,75.0,0.0,30.0,15.0,0.0
1906,63.0,0.0,30.0,0.0,0.0
1907,35.0,0.0,60.0,15.0,0.0
1908,68.0,0.0,30.0,15.0,0.0
1909,77.0,30.0,30.0,15.0,0.0
1910,65.0,0.0,30.0,0.0,0.0
1911,63.0,0.0,30.0,0.0,0.0
1912,75.0,0.0,30.0,15.0,0.0
1913,66.0,30.0,30.0,15.0,0.0
1914,65.0,0.0,30.0,15.0,0.0
1915,74.0,0.0,30.0,15.0,0.0
1916,54.0,0.0,60.0,15.0,0.0
1917,42.0,0.0,60.0,15.0,0.0
1918,62.0,30.0,30.0,0.0,0.0
1919,47.0,0.0,60.0,15.0,0.0
1920,68.0,0.0,30.0,15.0,0.0
1921,77.0,60.0,30.0,15.0,0.0
1922,65.0,0.0,30.0,0.0,0.0
1923,63.0,15.0,120.0,0.0,0.0
1924,30.0,60.0,60.0,15.0,0.0
1925,66.0,0.0,120.0,15.0,0.0
1926,70.0,0.0,120.0,15.0,0.0
1927,75.0,0.0,120.0,15.0,0.0
1928,54.0,0.0,60.0,15.0,0.0
1929,51.0,0.0,60.0,15.0,0.0
1930,46.0,0.0,60.0,15.0,0.0
1931,82.0,0.0,40.0,15.0,0.0
1932,10.0,15.0,15.0,15.0,0.0
1933,70.0,0.0,40.0,0.0,0.0
1934,77.0,0.0,40.0,15.0,0.0
1935,74.0,0.0,40.0,15.0,0.0
1936,70.0,16.0,40.0,15.0,0.0
1937,22.0,9.0,15.0,15.0,0.0
1938,50.0,0.0,20.0,15.0,0.0
1939,62.0,175.0,20.0,15.0,0.0
1940,53.0,0.0,20.0,15.0,0.0
1941,58.0,0.0,20.0,15.0,0.0
1942,34.0,49.0,20.0,15.0,0.0
1943,58.0,0.0,20.0,15.0,0.0
1944,70.0,0.0,20.0,15.0,0.0
1945,58.0,0.0,20.0,0.0,0.0
1946,46.0,0.0,20.0,15.0,0.0
1947,72.0,120.0,40.0,15.0,0.0
1948,60.0,0.0,40.0,0.0,0.0
1949,60.0,0.0,40.0,15.0,0.0
1950,48.0,0.0,40.0,15.0,0.0
1951,36.0,0.0,40.0,15.0,0.0
1952,38.0,0.0,40.0,15.0,0.0
1953,50.0,0.0,40.0,15.0,0.0
1954,62.0,0.0,40.0,15.0,0.0
1955,74.0,0.0,40.0,15.0,0.0
1956,62.0,96.0,40.0,0.0,0.0
1957,63.0,0.0,40.0,0.0,0.0
1958,77.0,24.0,15.0,15.0,0.0
1959,38.0,15.0,40.0,15.0,0.0
1960,26.0,0.0,40.0,15.0,0.0
1961,70.0,0.0,40.0,15.0,0.0
1962,63.0,0.0,40.0,15.0,0.0
1963,75.0,126.0,40.0,15.0,0.0
1964,42.0,0.0,120.0,15.0,0.0
1965,46.0,0.0,120.0,15.0,0.0
1966,54.0,30.0,120.0,15.0,0.0
1967,63.0,0.0,120.0,15.0,0.0
1968,70.0,0.0,120.0,15.0,0.0
1969,75.0,0.0,120.0,15.0,0.0
1970,63.0,0.0,120.0,0.0,0.0
1971,74.0,0.0,30.0,15.0,0.0
1972,62.0,30.0,30.0,0.0,0.0
1973,63.0,24.0,30.0,0.0,0.0
1974,75.0,0.0,30.0,15.0,0.0
1975,77.0,0.0,20.0,15.0,0.0
1976,71.0,0.0,20.0,15.0,0.0
1977,65.0,0.0,20.0,15.0,0.0
1978,39.0,0.0,120.0,15.0,0.0
1979,65.0,24.0,20.0,0.0,0.0
1980,47.0,10.0,120.0,15.0,0.0
1981,56.0,19.0,120.0,15.0,0.0
1982,63.0,0.0,20.0,0.0,0.0
1983,75.0,24.0,20.0,15.0,0.0
1984,74.0,0.0,20.0,15.0,0.0
1985,62.0,24.0,20.0,0.0,0.0
1986,75.0,24.0,20.0,15.0,0.0
1987,63.0,0.0,20.0,0.0,0.0
1988,77.0,0.0,20.0,15.0,0.0
1989,65.0,10.0,20.0,0.0,0.0
1990,39.0,0.0,40.0,15.0,0.0
1991,63.0,0.0,40.0,0.0,0.0
1992,70.0,10.0,40.0,15.0,0.0
1993,75.0,0.0,40.0,15.0,0.0
1994,63.0,0.0,40.0,15.0,0.0
1995,46.0,10.0,40.0,15.0,0.0
1996,54.0,100.0,40.0,15.0,0.0
1997,83.0,0.0,60.0,15.0,0.0
1998,75.0,1.0,60.0,15.0,0.0
1999,75.0,98.0,60.0,0.0,0.0
2000,87.0,0.0,60.0,15.0,0.0
2001,77.0,0.0,60.0,15.0,0.0
2002,33.0,10.0,40.0,15.0,0.0
2003,41.0,10.0,40.0,15.0,0.0
2004,47.0,1.0,40.0,15.0,0.0
2005,74.0,239.0,60.0,0.0,0.0
2006,46.0,0.0,40.0,15.0,0.0
2007,41.0,21.0,40.0,15.0,0.0
2008,34.0,0.0,40.0,15.0,0.0
2009,74.0,1.0,60.0,15.0,0.0
2010,77.0,0.0,60.0,15.0,0.0
2011,70.0,0.0,60.0,15.0,0.0
2012,82.0,0.0,60.0,15.0,0.0
2013,75.0,0.0,180.0,15.0,0.0
2014,39.0,0.0,180.0,15.0,0.0
2015,66.0,0.0,180.0,15.0,0.0
2016,63.0,10.0,180.0,15.0,0.0
2017,70.0,0.0,180.0,15.0,0.0
2018,75.0,0.0,240.0,0.0,0.0
2019,46.0,10.0,180.0,15.0,0.0
2020,54.0,41.0,180.0,15.0,0.0
