,note,step,duration,channel,velocity
0,70.0,227.0,210.0,0.0,0.0
1,65.0,0.0,180.0,0.0,0.0
2,41.0,0.0,180.0,0.0,0.0
3,68.0,13.0,180.0,0.0,0.0
4,67.0,0.0,180.0,0.0,0.0
5,48.0,236.0,210.0,0.0,0.0
6,64.0,46.0,180.0,0.0,0.0
7,68.0,0.0,420.0,0.0,0.0
8,65.0,34.0,420.0,0.0,0.0
9,48.0,216.0,210.0,0.0,0.0
10,48.0,55.0,210.0,0.0,0.0
11,70.0,133.0,60.0,0.0,0.0
12,65.0,0.0,180.0,0.0,0.0
13,41.0,0.0,180.0,0.0,0.0
14,68.0,240.0,180.0,0.0,0.0
15,48.0,194.0,210.0,0.0,0.0
16,64.0,0.0,180.0,0.0,0.0
17,67.0,46.0,180.0,0.0,0.0
18,68.0,0.0,180.0,0.0,0.0
19,41.0,0.0,180.0,0.0,0.0
20,65.0,240.0,180.0,0.0,0.0
21,70.0,0.0,180.0,0.0,0.0
22,48.0,236.0,210.0,0.0,0.0
23,67.0,46.0,180.0,0.0,0.0
24,72.0,0.0,720.0,0.0,0.0
25,68.0,220.0,720.0,0.0,0.0
26,48.0,250.0,210.0,0.0,0.0
27,48.0,188.0,210.0,0.0,0.0
28,36.0,66.0,180.0,0.0,0.0
29,67.0,0.0,240.0,0.0,0.0
30,48.0,24.0,210.0,0.0,0.0
31,64.0,37.0,240.0,0.0,0.0
32,70.0,133.0,60.0,0.0,0.0
33,68.0,220.0,180.0,0.0,0.0
34,41.0,0.0,180.0,0.0,0.0
35,65.0,20.0,180.0,0.0,0.0
36,67.0,0.0,180.0,0.0,0.0
37,48.0,236.0,210.0,0.0,0.0
38,64.0,46.0,180.0,0.0,0.0
39,48.0,216.0,210.0,0.0,0.0
40,65.0,0.0,420.0,0.0,0.0
41,68.0,34.0,420.0,0.0,0.0
42,48.0,55.0,210.0,0.0,0.0
43,70.0,77.0,60.0,0.0,0.0
44,65.0,0.0,120.0,0.0,0.0
45,41.0,174.0,180.0,0.0,0.0
46,68.0,56.0,120.0,0.0,0.0
47,48.0,0.0,120.0,0.0,0.0
48,67.0,0.0,120.0,0.0,0.0
49,64.0,236.0,120.0,0.0,0.0
50,34.0,4.0,120.0,0.0,0.0
51,65.0,0.0,120.0,0.0,0.0
52,68.0,236.0,120.0,0.0,0.0
53,46.0,4.0,120.0,0.0,0.0
54,67.0,0.0,120.0,0.0,0.0
55,70.0,236.0,120.0,0.0,0.0
56,46.0,4.0,120.0,0.0,0.0
57,68.0,0.0,120.0,0.0,0.0
58,72.0,236.0,120.0,0.0,0.0
59,46.0,4.0,120.0,0.0,0.0
60,65.0,0.0,120.0,0.0,0.0
61,74.0,342.0,120.0,0.0,0.0
62,39.0,240.0,210.0,0.0,0.0
63,75.0,0.0,480.0,0.0,0.0
64,67.0,37.0,480.0,0.0,0.0
65,46.0,34.0,210.0,0.0,0.0
66,77.0,133.0,60.0,0.0,0.0
67,75.0,0.0,180.0,0.0,0.0
68,39.0,20.0,180.0,0.0,0.0
69,66.0,240.0,180.0,0.0,0.0
70,74.0,0.0,180.0,0.0,0.0
71,46.0,236.0,210.0,0.0,0.0
72,65.0,26.0,180.0,0.0,0.0
73,66.0,0.0,480.0,0.0,0.0
74,75.0,41.0,480.0,0.0,0.0
75,46.0,250.0,210.0,0.0,0.0
76,46.0,14.0,210.0,0.0,0.0
77,77.0,133.0,60.0,0.0,0.0
78,75.0,0.0,180.0,0.0,0.0
79,39.0,20.0,180.0,0.0,0.0
80,66.0,240.0,180.0,0.0,0.0
81,74.0,0.0,180.0,0.0,0.0
82,46.0,194.0,210.0,0.0,0.0
83,65.0,26.0,180.0,0.0,0.0
84,75.0,0.0,180.0,0.0,0.0
85,39.0,20.0,180.0,0.0,0.0
86,66.0,240.0,180.0,0.0,0.0
87,77.0,0.0,180.0,0.0,0.0
88,46.0,236.0,210.0,0.0,0.0
89,68.0,26.0,180.0,0.0,0.0
90,70.0,0.0,720.0,0.0,0.0
91,78.0,220.0,720.0,0.0,0.0
92,46.0,250.0,210.0,0.0,0.0
93,46.0,188.0,210.0,0.0,0.0
94,34.0,66.0,180.0,0.0,0.0
95,74.0,0.0,210.0,0.0,0.0
96,46.0,0.0,210.0,0.0,0.0
97,68.0,61.0,210.0,0.0,0.0
98,77.0,133.0,60.0,0.0,0.0
99,75.0,0.0,180.0,0.0,0.0
100,39.0,0.0,180.0,0.0,0.0
101,66.0,240.0,180.0,0.0,0.0
102,74.0,0.0,180.0,0.0,0.0
103,46.0,236.0,210.0,0.0,0.0
104,65.0,46.0,180.0,0.0,0.0
105,75.0,0.0,480.0,0.0,0.0
106,66.0,174.0,480.0,0.0,0.0
107,46.0,250.0,210.0,0.0,0.0
108,46.0,14.0,210.0,0.0,0.0
109,75.0,0.0,180.0,0.0,0.0
110,35.0,0.0,180.0,0.0,0.0
111,66.0,240.0,180.0,0.0,0.0
112,75.0,0.0,180.0,0.0,0.0
113,47.0,194.0,210.0,0.0,0.0
114,66.0,46.0,180.0,0.0,0.0
115,76.0,0.0,180.0,0.0,0.0
116,40.0,0.0,180.0,0.0,0.0
117,68.0,240.0,180.0,0.0,0.0
118,78.0,0.0,180.0,0.0,0.0
119,47.0,236.0,210.0,0.0,0.0
120,69.0,46.0,180.0,0.0,0.0
121,71.0,0.0,720.0,0.0,0.0
122,80.0,220.0,720.0,0.0,0.0
123,47.0,250.0,210.0,0.0,0.0
124,47.0,188.0,210.0,0.0,0.0
125,35.0,66.0,180.0,0.0,0.0
126,75.0,0.0,210.0,0.0,0.0
127,47.0,0.0,210.0,0.0,0.0
128,66.0,194.0,210.0,0.0,0.0
129,76.0,24.0,420.0,0.0,0.0
130,40.0,46.0,180.0,0.0,0.0
131,68.0,216.0,210.0,0.0,0.0
132,47.0,236.0,210.0,0.0,0.0
133,47.0,250.0,210.0,0.0,0.0
134,76.0,0.0,210.0,0.0,0.0
135,47.0,0.0,210.0,0.0,0.0
136,68.0,188.0,210.0,0.0,0.0
137,42.0,46.0,180.0,0.0,0.0
138,75.0,216.0,210.0,0.0,0.0
139,69.0,24.0,420.0,0.0,0.0
140,54.0,194.0,210.0,0.0,0.0
141,72.0,0.0,420.0,0.0,0.0
142,44.0,262.0,180.0,0.0,0.0
143,66.0,24.0,420.0,0.0,0.0
144,51.0,236.0,210.0,0.0,0.0
145,51.0,250.0,210.0,0.0,0.0
146,66.0,0.0,210.0,0.0,0.0
147,72.0,0.0,210.0,0.0,0.0
148,51.0,188.0,210.0,0.0,0.0
149,68.0,0.0,420.0,0.0,0.0
150,48.0,262.0,180.0,0.0,0.0
151,63.0,24.0,420.0,0.0,0.0
152,56.0,194.0,210.0,0.0,0.0
153,77.0,0.0,420.0,0.0,0.0
154,37.0,262.0,180.0,0.0,0.0
155,68.0,24.0,420.0,0.0,0.0
156,49.0,236.0,210.0,0.0,0.0
157,49.0,250.0,210.0,0.0,0.0
158,68.0,0.0,210.0,0.0,0.0
159,49.0,0.0,210.0,0.0,0.0
160,77.0,188.0,210.0,0.0,0.0
161,70.0,0.0,420.0,0.0,0.0
162,42.0,262.0,180.0,0.0,0.0
163,75.0,24.0,420.0,0.0,0.0
164,54.0,194.0,210.0,0.0,0.0
165,72.0,0.0,420.0,0.0,0.0
166,44.0,262.0,180.0,0.0,0.0
167,66.0,24.0,420.0,0.0,0.0
168,51.0,236.0,210.0,0.0,0.0
169,51.0,250.0,210.0,0.0,0.0
170,72.0,0.0,210.0,0.0,0.0
171,51.0,0.0,210.0,0.0,0.0
172,66.0,188.0,210.0,0.0,0.0
173,65.0,0.0,420.0,0.0,0.0
174,49.0,262.0,180.0,0.0,0.0
175,68.0,24.0,420.0,0.0,0.0
176,56.0,0.0,210.0,0.0,0.0
177,53.0,194.0,210.0,0.0,0.0
178,70.0,222.0,210.0,0.0,0.0
179,65.0,0.0,180.0,0.0,0.0
180,68.0,0.0,180.0,0.0,0.0
181,41.0,18.0,180.0,0.0,0.0
182,67.0,0.0,180.0,0.0,0.0
183,48.0,240.0,210.0,0.0,0.0
184,64.0,46.0,180.0,0.0,0.0
185,65.0,0.0,420.0,0.0,0.0
186,68.0,30.0,420.0,0.0,0.0
187,48.0,216.0,210.0,0.0,0.0
188,48.0,60.0,210.0,0.0,0.0
189,70.0,128.0,60.0,0.0,0.0
190,68.0,0.0,180.0,0.0,0.0
191,65.0,0.0,180.0,0.0,0.0
192,41.0,240.0,180.0,0.0,0.0
193,48.0,194.0,210.0,0.0,0.0
194,64.0,0.0,180.0,0.0,0.0
195,67.0,46.0,180.0,0.0,0.0
196,68.0,0.0,180.0,0.0,0.0
197,41.0,0.0,180.0,0.0,0.0
198,65.0,240.0,180.0,0.0,0.0
199,70.0,0.0,180.0,0.0,0.0
200,48.0,240.0,210.0,0.0,0.0
201,67.0,46.0,180.0,0.0,0.0
202,72.0,0.0,720.0,0.0,0.0
203,48.0,246.0,210.0,0.0,0.0
204,68.0,216.0,720.0,0.0,0.0
205,48.0,188.0,210.0,0.0,0.0
206,36.0,70.0,180.0,0.0,0.0
207,67.0,0.0,240.0,0.0,0.0
208,48.0,24.0,210.0,0.0,0.0
209,64.0,42.0,240.0,0.0,0.0
210,70.0,128.0,60.0,0.0,0.0
211,68.0,220.0,180.0,0.0,0.0
212,65.0,0.0,180.0,0.0,0.0
213,41.0,20.0,180.0,0.0,0.0
214,67.0,0.0,180.0,0.0,0.0
215,48.0,240.0,210.0,0.0,0.0
216,64.0,46.0,180.0,0.0,0.0
217,65.0,0.0,420.0,0.0,0.0
218,68.0,30.0,420.0,0.0,0.0
219,48.0,216.0,210.0,0.0,0.0
220,48.0,56.0,210.0,0.0,0.0
221,70.0,76.0,60.0,0.0,0.0
222,68.0,0.0,120.0,0.0,0.0
223,65.0,0.0,120.0,0.0,0.0
224,41.0,230.0,120.0,0.0,0.0
225,48.0,0.0,120.0,0.0,0.0
226,67.0,0.0,120.0,0.0,0.0
227,64.0,240.0,120.0,0.0,0.0
228,34.0,0.0,120.0,0.0,0.0
229,65.0,0.0,120.0,0.0,0.0
230,68.0,240.0,120.0,0.0,0.0
231,46.0,0.0,120.0,0.0,0.0
232,67.0,0.0,120.0,0.0,0.0
233,70.0,240.0,120.0,0.0,0.0
234,46.0,0.0,120.0,0.0,0.0
235,68.0,0.0,120.0,0.0,0.0
236,72.0,240.0,120.0,0.0,0.0
237,46.0,0.0,120.0,0.0,0.0
238,65.0,0.0,120.0,0.0,0.0
239,74.0,240.0,120.0,0.0,0.0
240,39.0,240.0,120.0,0.0,0.0
241,75.0,0.0,480.0,0.0,0.0
242,67.0,52.0,480.0,0.0,0.0
243,46.0,126.0,120.0,0.0,0.0
244,77.0,128.0,60.0,0.0,0.0
245,75.0,0.0,180.0,0.0,0.0
246,66.0,240.0,180.0,0.0,0.0
247,39.0,20.0,180.0,0.0,0.0
248,74.0,0.0,180.0,0.0,0.0
249,46.0,240.0,210.0,0.0,0.0
250,65.0,26.0,180.0,0.0,0.0
251,75.0,0.0,480.0,0.0,0.0
252,46.0,246.0,210.0,0.0,0.0
253,66.0,42.0,480.0,0.0,0.0
254,46.0,18.0,210.0,0.0,0.0
255,77.0,128.0,60.0,0.0,0.0
256,75.0,0.0,180.0,0.0,0.0
257,66.0,240.0,180.0,0.0,0.0
258,39.0,20.0,180.0,0.0,0.0
259,74.0,0.0,180.0,0.0,0.0
260,46.0,194.0,210.0,0.0,0.0
261,65.0,26.0,180.0,0.0,0.0
262,75.0,0.0,180.0,0.0,0.0
263,39.0,20.0,180.0,0.0,0.0
264,66.0,240.0,180.0,0.0,0.0
265,77.0,0.0,180.0,0.0,0.0
266,46.0,240.0,210.0,0.0,0.0
267,68.0,26.0,180.0,0.0,0.0
268,78.0,0.0,720.0,0.0,0.0
269,46.0,246.0,210.0,0.0,0.0
270,70.0,216.0,720.0,0.0,0.0
271,46.0,188.0,210.0,0.0,0.0
272,34.0,70.0,180.0,0.0,0.0
273,74.0,0.0,210.0,0.0,0.0
274,46.0,0.0,210.0,0.0,0.0
275,68.0,66.0,210.0,0.0,0.0
276,77.0,128.0,60.0,0.0,0.0
277,75.0,0.0,180.0,0.0,0.0
278,66.0,0.0,180.0,0.0,0.0
279,39.0,240.0,180.0,0.0,0.0
280,74.0,0.0,180.0,0.0,0.0
281,46.0,240.0,210.0,0.0,0.0
282,65.0,46.0,180.0,0.0,0.0
283,46.0,246.0,210.0,0.0,0.0
284,66.0,0.0,480.0,0.0,0.0
285,75.0,170.0,480.0,0.0,0.0
286,46.0,18.0,210.0,0.0,0.0
287,75.0,0.0,180.0,0.0,0.0
288,35.0,0.0,180.0,0.0,0.0
289,66.0,240.0,180.0,0.0,0.0
290,75.0,0.0,180.0,0.0,0.0
291,47.0,194.0,210.0,0.0,0.0
292,66.0,46.0,180.0,0.0,0.0
293,76.0,0.0,180.0,0.0,0.0
294,40.0,0.0,180.0,0.0,0.0
295,68.0,240.0,180.0,0.0,0.0
296,78.0,0.0,180.0,0.0,0.0
297,47.0,240.0,210.0,0.0,0.0
298,69.0,46.0,180.0,0.0,0.0
299,80.0,0.0,720.0,0.0,0.0
300,47.0,246.0,210.0,0.0,0.0
301,71.0,216.0,720.0,0.0,0.0
302,47.0,188.0,210.0,0.0,0.0
303,35.0,70.0,180.0,0.0,0.0
304,75.0,0.0,210.0,0.0,0.0
305,47.0,0.0,210.0,0.0,0.0
306,66.0,194.0,210.0,0.0,0.0
307,76.0,24.0,420.0,0.0,0.0
308,40.0,46.0,180.0,0.0,0.0
309,68.0,216.0,210.0,0.0,0.0
310,47.0,240.0,210.0,0.0,0.0
311,47.0,246.0,210.0,0.0,0.0
312,76.0,0.0,210.0,0.0,0.0
313,47.0,0.0,210.0,0.0,0.0
314,68.0,188.0,210.0,0.0,0.0
315,42.0,46.0,180.0,0.0,0.0
316,75.0,216.0,210.0,0.0,0.0
317,69.0,24.0,420.0,0.0,0.0
318,54.0,194.0,210.0,0.0,0.0
319,72.0,0.0,420.0,0.0,0.0
320,44.0,262.0,180.0,0.0,0.0
321,66.0,24.0,420.0,0.0,0.0
322,51.0,240.0,210.0,0.0,0.0
323,51.0,246.0,210.0,0.0,0.0
324,72.0,0.0,210.0,0.0,0.0
325,51.0,0.0,210.0,0.0,0.0
326,66.0,188.0,210.0,0.0,0.0
327,68.0,0.0,420.0,0.0,0.0
328,48.0,262.0,180.0,0.0,0.0
329,63.0,24.0,420.0,0.0,0.0
330,56.0,194.0,210.0,0.0,0.0
331,77.0,0.0,420.0,0.0,0.0
332,37.0,262.0,180.0,0.0,0.0
333,68.0,24.0,420.0,0.0,0.0
334,49.0,240.0,210.0,0.0,0.0
335,49.0,246.0,210.0,0.0,0.0
336,77.0,0.0,210.0,0.0,0.0
337,49.0,0.0,210.0,0.0,0.0
338,68.0,188.0,210.0,0.0,0.0
339,70.0,0.0,420.0,0.0,0.0
340,42.0,262.0,180.0,0.0,0.0
341,75.0,24.0,420.0,0.0,0.0
342,54.0,194.0,210.0,0.0,0.0
343,72.0,0.0,420.0,0.0,0.0
344,44.0,262.0,180.0,0.0,0.0
345,66.0,24.0,420.0,0.0,0.0
346,51.0,240.0,210.0,0.0,0.0
347,51.0,246.0,210.0,0.0,0.0
348,72.0,0.0,210.0,0.0,0.0
349,51.0,0.0,210.0,0.0,0.0
350,66.0,188.0,210.0,0.0,0.0
351,65.0,0.0,420.0,0.0,0.0
352,49.0,262.0,180.0,0.0,0.0
353,68.0,24.0,420.0,0.0,0.0
354,56.0,0.0,210.0,0.0,0.0
355,53.0,61.0,210.0,0.0,0.0
356,70.0,133.0,60.0,0.0,0.0
357,68.0,0.0,180.0,0.0,0.0
358,37.0,0.0,180.0,0.0,0.0
359,65.0,286.0,180.0,0.0,0.0
360,49.0,0.0,210.0,0.0,0.0
361,64.0,0.0,210.0,0.0,0.0
362,67.0,236.0,210.0,0.0,0.0
363,65.0,0.0,720.0,0.0,0.0
364,68.0,220.0,720.0,0.0,0.0
365,49.0,250.0,210.0,0.0,0.0
366,49.0,188.0,210.0,0.0,0.0
367,37.0,66.0,180.0,0.0,0.0
368,65.0,0.0,240.0,0.0,0.0
369,49.0,24.0,210.0,0.0,0.0
370,61.0,37.0,240.0,0.0,0.0
371,75.0,133.0,60.0,0.0,0.0
372,65.0,0.0,180.0,0.0,0.0
373,37.0,0.0,180.0,0.0,0.0
374,73.0,240.0,180.0,0.0,0.0
375,64.0,0.0,180.0,0.0,0.0
376,72.0,46.0,180.0,0.0,0.0
377,49.0,236.0,210.0,0.0,0.0
378,73.0,0.0,720.0,0.0,0.0
379,65.0,220.0,720.0,0.0,0.0
380,49.0,250.0,210.0,0.0,0.0
381,49.0,188.0,210.0,0.0,0.0
382,37.0,66.0,180.0,0.0,0.0
383,65.0,0.0,240.0,0.0,0.0
384,68.0,37.0,240.0,0.0,0.0
385,49.0,24.0,210.0,0.0,0.0
386,71.0,133.0,60.0,0.0,0.0
387,33.0,0.0,180.0,0.0,0.0
388,69.0,0.0,180.0,0.0,0.0
389,64.0,240.0,180.0,0.0,0.0
390,68.0,0.0,180.0,0.0,0.0
391,49.0,236.0,210.0,0.0,0.0
392,64.0,46.0,180.0,0.0,0.0
393,69.0,0.0,720.0,0.0,0.0
394,64.0,220.0,720.0,0.0,0.0
395,49.0,250.0,210.0,0.0,0.0
396,49.0,188.0,210.0,0.0,0.0
397,45.0,66.0,180.0,0.0,0.0
398,49.0,24.0,210.0,0.0,0.0
399,64.0,37.0,240.0,0.0,0.0
400,78.0,133.0,60.0,0.0,0.0
401,76.0,0.0,180.0,0.0,0.0
402,33.0,0.0,180.0,0.0,0.0
403,73.0,240.0,180.0,0.0,0.0
404,72.0,0.0,180.0,0.0,0.0
405,49.0,236.0,210.0,0.0,0.0
406,75.0,46.0,180.0,0.0,0.0
407,73.0,0.0,720.0,0.0,0.0
408,76.0,220.0,720.0,0.0,0.0
409,49.0,250.0,210.0,0.0,0.0
410,49.0,188.0,210.0,0.0,0.0
411,45.0,66.0,180.0,0.0,0.0
412,73.0,0.0,240.0,0.0,0.0
413,49.0,24.0,210.0,0.0,0.0
414,69.0,216.0,240.0,0.0,0.0
415,74.0,0.0,420.0,0.0,0.0
416,40.0,216.0,210.0,0.0,0.0
417,71.0,48.0,420.0,0.0,0.0
418,52.0,236.0,240.0,0.0,0.0
419,62.0,0.0,240.0,0.0,0.0
420,59.0,250.0,240.0,0.0,0.0
421,78.0,0.0,240.0,0.0,0.0
422,50.0,0.0,240.0,0.0,0.0
423,68.0,234.0,240.0,0.0,0.0
424,57.0,0.0,240.0,0.0,0.0
425,69.0,0.0,240.0,0.0,0.0
426,61.0,0.0,240.0,0.0,0.0
427,73.0,240.0,240.0,0.0,0.0
428,76.0,0.0,240.0,0.0,0.0
429,52.0,0.0,240.0,0.0,0.0
430,66.0,432.0,240.0,0.0,0.0
431,68.0,0.0,420.0,0.0,0.0
432,71.0,48.0,420.0,0.0,0.0
433,52.0,236.0,240.0,0.0,0.0
434,56.0,0.0,240.0,0.0,0.0
435,59.0,250.0,240.0,0.0,0.0
436,64.0,0.0,240.0,0.0,0.0
437,74.0,0.0,240.0,0.0,0.0
438,52.0,234.0,240.0,0.0,0.0
439,58.0,0.0,240.0,0.0,0.0
440,67.0,0.0,240.0,0.0,0.0
441,55.0,0.0,240.0,0.0,0.0
442,70.0,240.0,240.0,0.0,0.0
443,73.0,0.0,240.0,0.0,0.0
444,52.0,0.0,240.0,0.0,0.0
445,64.0,240.0,240.0,0.0,0.0
446,74.0,0.0,420.0,0.0,0.0
447,40.0,192.0,240.0,0.0,0.0
448,71.0,48.0,420.0,0.0,0.0
449,52.0,240.0,240.0,0.0,0.0
450,62.0,0.0,240.0,0.0,0.0
451,59.0,240.0,240.0,0.0,0.0
452,78.0,0.0,240.0,0.0,0.0
453,52.0,0.0,240.0,0.0,0.0
454,68.0,240.0,240.0,0.0,0.0
455,57.0,0.0,240.0,0.0,0.0
456,69.0,0.0,240.0,0.0,0.0
457,61.0,0.0,240.0,0.0,0.0
458,73.0,240.0,240.0,0.0,0.0
459,76.0,0.0,240.0,0.0,0.0
460,52.0,0.0,240.0,0.0,0.0
461,66.0,432.0,240.0,0.0,0.0
462,68.0,0.0,420.0,0.0,0.0
463,71.0,48.0,420.0,0.0,0.0
464,52.0,236.0,240.0,0.0,0.0
465,56.0,0.0,240.0,0.0,0.0
466,59.0,250.0,240.0,0.0,0.0
467,64.0,0.0,240.0,0.0,0.0
468,74.0,0.0,240.0,0.0,0.0
469,52.0,234.0,240.0,0.0,0.0
470,67.0,0.0,240.0,0.0,0.0
471,70.0,0.0,240.0,0.0,0.0
472,58.0,0.0,240.0,0.0,0.0
473,55.0,240.0,240.0,0.0,0.0
474,73.0,0.0,240.0,0.0,0.0
475,64.0,0.0,240.0,0.0,0.0
476,52.0,240.0,240.0,0.0,0.0
477,58.0,0.0,240.0,0.0,0.0
478,67.0,0.0,420.0,0.0,0.0
479,55.0,192.0,240.0,0.0,0.0
480,72.0,48.0,420.0,0.0,0.0
481,52.0,236.0,240.0,0.0,0.0
482,51.0,250.0,240.0,0.0,0.0
483,58.0,0.0,240.0,0.0,0.0
484,70.0,0.0,480.0,0.0,0.0
485,55.0,0.0,240.0,0.0,0.0
486,73.0,234.0,240.0,0.0,0.0
487,67.0,0.0,480.0,0.0,0.0
488,72.0,0.0,240.0,0.0,0.0
489,52.0,240.0,240.0,0.0,0.0
490,55.0,0.0,240.0,0.0,0.0
491,58.0,240.0,240.0,0.0,0.0
492,46.0,216.0,240.0,0.0,0.0
493,58.0,236.0,240.0,0.0,0.0
494,80.0,0.0,210.0,0.0,0.0
495,77.0,24.0,210.0,0.0,0.0
496,79.0,0.0,420.0,0.0,0.0
497,76.0,58.0,420.0,0.0,0.0
498,48.0,192.0,240.0,0.0,0.0
499,60.0,234.0,240.0,0.0,0.0
500,34.0,216.0,240.0,0.0,0.0
501,89.0,0.0,210.0,0.0,0.0
502,85.0,0.0,210.0,0.0,0.0
503,46.0,368.0,240.0,0.0,0.0
504,77.0,24.0,210.0,0.0,0.0
505,48.0,0.0,360.0,0.0,0.0
506,88.0,144.0,420.0,0.0,0.0
507,36.0,64.0,360.0,0.0,0.0
508,76.0,0.0,570.0,0.0,0.0
509,87.0,108.0,600.0,0.0,0.0
510,84.0,12.0,570.0,0.0,0.0
511,48.0,0.0,360.0,0.0,0.0
512,52.0,0.0,360.0,0.0,0.0
513,58.0,88.0,360.0,0.0,0.0
514,85.0,120.0,90.0,0.0,0.0
515,84.0,32.0,90.0,0.0,0.0
516,82.0,120.0,90.0,0.0,0.0
517,80.0,120.0,90.0,0.0,0.0
518,79.0,120.0,90.0,0.0,0.0
519,77.0,120.0,90.0,0.0,0.0
520,76.0,120.0,90.0,0.0,0.0
521,36.0,88.0,360.0,0.0,0.0
522,73.0,120.0,90.0,0.0,0.0
523,72.0,120.0,90.0,0.0,0.0
524,70.0,32.0,90.0,0.0,0.0
525,68.0,120.0,90.0,0.0,0.0
526,52.0,0.0,360.0,0.0,0.0
527,48.0,0.0,360.0,0.0,0.0
528,58.0,88.0,360.0,0.0,0.0
529,67.0,120.0,90.0,0.0,0.0
530,65.0,120.0,90.0,0.0,0.0
531,64.0,32.0,90.0,0.0,0.0
532,61.0,120.0,90.0,0.0,0.0
533,60.0,96.0,90.0,0.0,0.0
534,61.0,96.0,90.0,0.0,0.0
535,64.0,96.0,90.0,0.0,0.0
536,65.0,96.0,90.0,0.0,0.0
537,67.0,170.0,90.0,0.0,0.0
538,70.0,227.0,210.0,0.0,0.0
539,65.0,0.0,180.0,0.0,0.0
540,41.0,0.0,180.0,0.0,0.0
541,68.0,13.0,180.0,0.0,0.0
542,67.0,0.0,180.0,0.0,0.0
543,48.0,236.0,210.0,0.0,0.0
544,64.0,46.0,180.0,0.0,0.0
545,68.0,0.0,420.0,0.0,0.0
546,65.0,34.0,420.0,0.0,0.0
547,48.0,216.0,210.0,0.0,0.0
548,48.0,55.0,210.0,0.0,0.0
549,70.0,133.0,60.0,0.0,0.0
550,65.0,0.0,180.0,0.0,0.0
551,41.0,0.0,180.0,0.0,0.0
552,68.0,240.0,180.0,0.0,0.0
553,48.0,194.0,210.0,0.0,0.0
554,64.0,0.0,180.0,0.0,0.0
555,67.0,46.0,180.0,0.0,0.0
556,68.0,0.0,180.0,0.0,0.0
557,41.0,0.0,180.0,0.0,0.0
558,65.0,240.0,180.0,0.0,0.0
559,70.0,0.0,180.0,0.0,0.0
560,48.0,236.0,210.0,0.0,0.0
561,67.0,46.0,180.0,0.0,0.0
562,72.0,0.0,720.0,0.0,0.0
563,68.0,220.0,720.0,0.0,0.0
564,48.0,250.0,210.0,0.0,0.0
565,48.0,188.0,210.0,0.0,0.0
566,36.0,66.0,180.0,0.0,0.0
567,67.0,0.0,240.0,0.0,0.0
568,48.0,24.0,210.0,0.0,0.0
569,64.0,37.0,240.0,0.0,0.0
570,70.0,133.0,60.0,0.0,0.0
571,68.0,220.0,180.0,0.0,0.0
572,41.0,0.0,180.0,0.0,0.0
573,65.0,20.0,180.0,0.0,0.0
574,67.0,0.0,180.0,0.0,0.0
575,48.0,236.0,210.0,0.0,0.0
576,64.0,46.0,180.0,0.0,0.0
577,48.0,216.0,210.0,0.0,0.0
578,65.0,0.0,420.0,0.0,0.0
579,68.0,34.0,420.0,0.0,0.0
580,48.0,55.0,210.0,0.0,0.0
581,70.0,77.0,60.0,0.0,0.0
582,65.0,0.0,120.0,0.0,0.0
583,41.0,174.0,180.0,0.0,0.0
584,68.0,56.0,120.0,0.0,0.0
585,48.0,0.0,120.0,0.0,0.0
586,67.0,0.0,120.0,0.0,0.0
587,64.0,236.0,120.0,0.0,0.0
588,34.0,4.0,120.0,0.0,0.0
589,65.0,0.0,120.0,0.0,0.0
590,68.0,236.0,120.0,0.0,0.0
591,46.0,4.0,120.0,0.0,0.0
592,67.0,0.0,120.0,0.0,0.0
593,70.0,236.0,120.0,0.0,0.0
594,46.0,4.0,120.0,0.0,0.0
595,68.0,0.0,120.0,0.0,0.0
596,72.0,236.0,120.0,0.0,0.0
597,46.0,4.0,120.0,0.0,0.0
598,65.0,0.0,120.0,0.0,0.0
599,74.0,342.0,120.0,0.0,0.0
600,39.0,240.0,210.0,0.0,0.0
601,75.0,0.0,480.0,0.0,0.0
602,67.0,37.0,480.0,0.0,0.0
603,46.0,34.0,210.0,0.0,0.0
604,77.0,133.0,60.0,0.0,0.0
605,75.0,0.0,180.0,0.0,0.0
606,39.0,20.0,180.0,0.0,0.0
607,66.0,240.0,180.0,0.0,0.0
608,74.0,0.0,180.0,0.0,0.0
609,46.0,236.0,210.0,0.0,0.0
610,65.0,26.0,180.0,0.0,0.0
611,66.0,0.0,480.0,0.0,0.0
612,75.0,41.0,480.0,0.0,0.0
613,46.0,250.0,210.0,0.0,0.0
614,46.0,14.0,210.0,0.0,0.0
615,77.0,133.0,60.0,0.0,0.0
616,75.0,0.0,180.0,0.0,0.0
617,39.0,20.0,180.0,0.0,0.0
618,66.0,240.0,180.0,0.0,0.0
619,74.0,0.0,180.0,0.0,0.0
620,46.0,194.0,210.0,0.0,0.0
621,65.0,26.0,180.0,0.0,0.0
622,75.0,0.0,180.0,0.0,0.0
623,39.0,20.0,180.0,0.0,0.0
624,66.0,240.0,180.0,0.0,0.0
625,77.0,0.0,180.0,0.0,0.0
626,46.0,236.0,210.0,0.0,0.0
627,68.0,26.0,180.0,0.0,0.0
628,70.0,0.0,720.0,0.0,0.0
629,78.0,220.0,720.0,0.0,0.0
630,46.0,250.0,210.0,0.0,0.0
631,46.0,188.0,210.0,0.0,0.0
632,34.0,66.0,180.0,0.0,0.0
633,74.0,0.0,210.0,0.0,0.0
634,46.0,0.0,210.0,0.0,0.0
635,68.0,61.0,210.0,0.0,0.0
636,77.0,133.0,60.0,0.0,0.0
637,75.0,0.0,180.0,0.0,0.0
638,39.0,0.0,180.0,0.0,0.0
639,66.0,240.0,180.0,0.0,0.0
640,74.0,0.0,180.0,0.0,0.0
641,46.0,236.0,210.0,0.0,0.0
642,65.0,46.0,180.0,0.0,0.0
643,75.0,0.0,480.0,0.0,0.0
644,66.0,174.0,480.0,0.0,0.0
645,46.0,250.0,210.0,0.0,0.0
646,46.0,14.0,210.0,0.0,0.0
647,76.0,0.0,180.0,0.0,0.0
648,36.0,194.0,210.0,0.0,0.0
649,67.0,46.0,180.0,0.0,0.0
650,76.0,0.0,180.0,0.0,0.0
651,48.0,194.0,210.0,0.0,0.0
652,67.0,46.0,180.0,0.0,0.0
653,77.0,0.0,180.0,0.0,0.0
654,41.0,0.0,180.0,0.0,0.0
655,68.0,286.0,180.0,0.0,0.0
656,70.0,0.0,210.0,0.0,0.0
657,48.0,0.0,210.0,0.0,0.0
658,79.0,236.0,210.0,0.0,0.0
659,48.0,250.0,210.0,0.0,0.0
660,72.0,0.0,720.0,0.0,0.0
661,80.0,220.0,720.0,0.0,0.0
662,48.0,188.0,210.0,0.0,0.0
663,36.0,66.0,180.0,0.0,0.0
664,76.0,0.0,240.0,0.0,0.0
665,48.0,24.0,210.0,0.0,0.0
666,67.0,216.0,240.0,0.0,0.0
667,80.0,0.0,720.0,0.0,0.0
668,77.0,0.0,720.0,0.0,0.0
669,29.0,240.0,210.0,0.0,0.0
670,72.0,221.0,720.0,0.0,0.0
671,41.0,236.0,210.0,0.0,0.0
672,41.0,28.0,210.0,0.0,0.0
673,77.0,0.0,210.0,0.0,0.0
674,80.0,0.0,210.0,0.0,0.0
675,72.0,1.0,210.0,0.0,0.0
676,41.0,234.0,210.0,0.0,0.0
677,79.0,0.0,420.0,0.0,0.0
678,72.0,0.0,420.0,0.0,0.0
679,31.0,216.0,210.0,0.0,0.0
680,75.0,24.0,420.0,0.0,0.0
681,43.0,240.0,210.0,0.0,0.0
682,68.0,0.0,720.0,0.0,0.0
683,73.0,0.0,720.0,0.0,0.0
684,32.0,240.0,210.0,0.0,0.0
685,77.0,222.0,720.0,0.0,0.0
686,44.0,236.0,210.0,0.0,0.0
687,44.0,28.0,210.0,0.0,0.0
688,77.0,0.0,210.0,0.0,0.0
689,68.0,0.0,210.0,0.0,0.0
690,44.0,0.0,210.0,0.0,0.0
691,73.0,234.0,210.0,0.0,0.0
692,67.0,0.0,420.0,0.0,0.0
693,70.0,0.0,420.0,0.0,0.0
694,34.0,216.0,210.0,0.0,0.0
695,75.0,24.0,420.0,0.0,0.0
696,46.0,240.0,210.0,0.0,0.0
697,68.0,0.0,720.0,0.0,0.0
698,36.0,0.0,210.0,0.0,0.0
699,72.0,0.0,720.0,0.0,0.0
700,48.0,264.0,210.0,0.0,0.0
701,65.0,176.0,720.0,0.0,0.0
702,48.0,236.0,240.0,0.0,0.0
703,53.0,0.0,240.0,0.0,0.0
704,56.0,4.0,240.0,0.0,0.0
705,70.0,0.0,180.0,0.0,0.0
706,48.0,166.0,240.0,0.0,0.0
707,61.0,68.0,180.0,0.0,0.0
708,68.0,0.0,180.0,0.0,0.0
709,52.0,194.0,210.0,0.0,0.0
710,60.0,46.0,180.0,0.0,0.0
711,67.0,0.0,180.0,0.0,0.0
712,48.0,240.0,210.0,0.0,0.0
713,58.0,46.0,180.0,0.0,0.0
714,67.0,0.0,720.0,0.0,0.0
715,41.0,264.0,210.0,0.0,0.0
716,58.0,222.0,720.0,0.0,0.0
717,48.0,236.0,240.0,0.0,0.0
718,52.0,4.0,240.0,0.0,0.0
719,56.0,0.0,210.0,0.0,0.0
720,48.0,426.0,240.0,0.0,0.0
721,65.0,24.0,210.0,0.0,0.0
722,53.0,0.0,420.0,0.0,0.0
723,65.0,0.0,420.0,0.0,0.0
724,41.0,0.0,420.0,0.0,0.0
725,56.0,85.0,420.0,0.0,0.0
726,70.0,133.0,60.0,0.0,0.0
727,68.0,0.0,180.0,0.0,0.0
728,37.0,0.0,180.0,0.0,0.0
729,65.0,286.0,180.0,0.0,0.0
730,49.0,0.0,210.0,0.0,0.0
731,64.0,0.0,210.0,0.0,0.0
732,67.0,236.0,210.0,0.0,0.0
733,65.0,0.0,720.0,0.0,0.0
734,68.0,220.0,720.0,0.0,0.0
735,49.0,250.0,210.0,0.0,0.0
736,49.0,188.0,210.0,0.0,0.0
737,37.0,66.0,180.0,0.0,0.0
738,65.0,0.0,240.0,0.0,0.0
739,49.0,24.0,210.0,0.0,0.0
740,61.0,37.0,240.0,0.0,0.0
741,75.0,133.0,60.0,0.0,0.0
742,65.0,0.0,180.0,0.0,0.0
743,37.0,0.0,180.0,0.0,0.0
744,73.0,240.0,180.0,0.0,0.0
745,64.0,0.0,180.0,0.0,0.0
746,72.0,46.0,180.0,0.0,0.0
747,49.0,236.0,210.0,0.0,0.0
748,73.0,0.0,720.0,0.0,0.0
749,65.0,220.0,720.0,0.0,0.0
750,49.0,250.0,210.0,0.0,0.0
751,49.0,188.0,210.0,0.0,0.0
752,37.0,66.0,180.0,0.0,0.0
753,65.0,0.0,240.0,0.0,0.0
754,68.0,37.0,240.0,0.0,0.0
755,49.0,24.0,210.0,0.0,0.0
756,71.0,133.0,60.0,0.0,0.0
757,33.0,0.0,180.0,0.0,0.0
758,69.0,0.0,180.0,0.0,0.0
759,64.0,240.0,180.0,0.0,0.0
760,68.0,0.0,180.0,0.0,0.0
761,49.0,236.0,210.0,0.0,0.0
762,64.0,46.0,180.0,0.0,0.0
763,69.0,0.0,720.0,0.0,0.0
764,64.0,220.0,720.0,0.0,0.0
765,49.0,250.0,210.0,0.0,0.0
766,49.0,188.0,210.0,0.0,0.0
767,45.0,66.0,180.0,0.0,0.0
768,49.0,24.0,210.0,0.0,0.0
769,64.0,37.0,240.0,0.0,0.0
770,78.0,133.0,60.0,0.0,0.0
771,76.0,0.0,180.0,0.0,0.0
772,33.0,0.0,180.0,0.0,0.0
773,73.0,240.0,180.0,0.0,0.0
774,72.0,0.0,180.0,0.0,0.0
775,49.0,236.0,210.0,0.0,0.0
776,75.0,46.0,180.0,0.0,0.0
777,73.0,0.0,720.0,0.0,0.0
778,76.0,220.0,720.0,0.0,0.0
779,49.0,250.0,210.0,0.0,0.0
780,49.0,188.0,210.0,0.0,0.0
781,45.0,66.0,180.0,0.0,0.0
782,73.0,0.0,240.0,0.0,0.0
783,49.0,24.0,210.0,0.0,0.0
784,69.0,216.0,240.0,0.0,0.0
785,74.0,0.0,420.0,0.0,0.0
786,40.0,216.0,210.0,0.0,0.0
787,71.0,48.0,420.0,0.0,0.0
788,52.0,236.0,240.0,0.0,0.0
789,62.0,0.0,240.0,0.0,0.0
790,59.0,250.0,240.0,0.0,0.0
791,78.0,0.0,240.0,0.0,0.0
792,50.0,0.0,240.0,0.0,0.0
793,68.0,234.0,240.0,0.0,0.0
794,57.0,0.0,240.0,0.0,0.0
795,69.0,0.0,240.0,0.0,0.0
796,61.0,0.0,240.0,0.0,0.0
797,73.0,240.0,240.0,0.0,0.0
798,76.0,0.0,240.0,0.0,0.0
799,52.0,0.0,240.0,0.0,0.0
800,66.0,432.0,240.0,0.0,0.0
801,68.0,0.0,420.0,0.0,0.0
802,71.0,48.0,420.0,0.0,0.0
803,52.0,236.0,240.0,0.0,0.0
804,56.0,0.0,240.0,0.0,0.0
805,59.0,250.0,240.0,0.0,0.0
806,64.0,0.0,240.0,0.0,0.0
807,74.0,0.0,240.0,0.0,0.0
808,52.0,234.0,240.0,0.0,0.0
809,58.0,0.0,240.0,0.0,0.0
810,67.0,0.0,240.0,0.0,0.0
811,55.0,0.0,240.0,0.0,0.0
812,70.0,240.0,240.0,0.0,0.0
813,73.0,0.0,240.0,0.0,0.0
814,52.0,0.0,240.0,0.0,0.0
815,64.0,240.0,240.0,0.0,0.0
816,74.0,0.0,420.0,0.0,0.0
817,40.0,192.0,240.0,0.0,0.0
818,71.0,48.0,420.0,0.0,0.0
819,52.0,240.0,240.0,0.0,0.0
820,62.0,0.0,240.0,0.0,0.0
821,59.0,240.0,240.0,0.0,0.0
822,78.0,0.0,240.0,0.0,0.0
823,52.0,0.0,240.0,0.0,0.0
824,68.0,240.0,240.0,0.0,0.0
825,57.0,0.0,240.0,0.0,0.0
826,69.0,0.0,240.0,0.0,0.0
827,61.0,0.0,240.0,0.0,0.0
828,73.0,240.0,240.0,0.0,0.0
829,76.0,0.0,240.0,0.0,0.0
830,52.0,0.0,240.0,0.0,0.0
831,66.0,432.0,240.0,0.0,0.0
832,68.0,0.0,420.0,0.0,0.0
833,71.0,48.0,420.0,0.0,0.0
834,52.0,236.0,240.0,0.0,0.0
835,56.0,0.0,240.0,0.0,0.0
836,59.0,250.0,240.0,0.0,0.0
837,64.0,0.0,240.0,0.0,0.0
838,74.0,0.0,240.0,0.0,0.0
839,52.0,234.0,240.0,0.0,0.0
840,67.0,0.0,240.0,0.0,0.0
841,70.0,0.0,240.0,0.0,0.0
842,58.0,0.0,240.0,0.0,0.0
843,55.0,240.0,240.0,0.0,0.0
844,73.0,0.0,240.0,0.0,0.0
845,64.0,0.0,240.0,0.0,0.0
846,52.0,240.0,240.0,0.0,0.0
847,58.0,0.0,240.0,0.0,0.0
848,67.0,0.0,420.0,0.0,0.0
849,55.0,192.0,240.0,0.0,0.0
850,72.0,48.0,420.0,0.0,0.0
851,52.0,236.0,240.0,0.0,0.0
852,51.0,250.0,240.0,0.0,0.0
853,58.0,0.0,240.0,0.0,0.0
854,70.0,0.0,480.0,0.0,0.0
855,55.0,0.0,240.0,0.0,0.0
856,73.0,234.0,240.0,0.0,0.0
857,67.0,0.0,480.0,0.0,0.0
858,72.0,0.0,240.0,0.0,0.0
859,52.0,240.0,240.0,0.0,0.0
860,55.0,0.0,240.0,0.0,0.0
861,58.0,240.0,240.0,0.0,0.0
862,46.0,216.0,240.0,0.0,0.0
863,58.0,236.0,240.0,0.0,0.0
864,80.0,0.0,210.0,0.0,0.0
865,77.0,24.0,210.0,0.0,0.0
866,79.0,0.0,420.0,0.0,0.0
867,76.0,58.0,420.0,0.0,0.0
868,48.0,192.0,240.0,0.0,0.0
869,60.0,234.0,240.0,0.0,0.0
870,34.0,216.0,240.0,0.0,0.0
871,89.0,0.0,210.0,0.0,0.0
872,85.0,0.0,210.0,0.0,0.0
873,46.0,368.0,240.0,0.0,0.0
874,77.0,24.0,210.0,0.0,0.0
875,48.0,0.0,360.0,0.0,0.0
876,88.0,144.0,420.0,0.0,0.0
877,36.0,64.0,360.0,0.0,0.0
878,76.0,0.0,570.0,0.0,0.0
879,87.0,108.0,600.0,0.0,0.0
880,84.0,12.0,570.0,0.0,0.0
881,48.0,0.0,360.0,0.0,0.0
882,52.0,0.0,360.0,0.0,0.0
883,58.0,88.0,360.0,0.0,0.0
884,85.0,120.0,90.0,0.0,0.0
885,84.0,32.0,90.0,0.0,0.0
886,82.0,120.0,90.0,0.0,0.0
887,80.0,120.0,90.0,0.0,0.0
888,79.0,120.0,90.0,0.0,0.0
889,77.0,120.0,90.0,0.0,0.0
890,76.0,120.0,90.0,0.0,0.0
891,36.0,88.0,360.0,0.0,0.0
892,73.0,120.0,90.0,0.0,0.0
893,72.0,120.0,90.0,0.0,0.0
894,70.0,32.0,90.0,0.0,0.0
895,68.0,120.0,90.0,0.0,0.0
896,52.0,0.0,360.0,0.0,0.0
897,48.0,0.0,360.0,0.0,0.0
898,58.0,88.0,360.0,0.0,0.0
899,67.0,120.0,90.0,0.0,0.0
900,65.0,120.0,90.0,0.0,0.0
901,64.0,32.0,90.0,0.0,0.0
902,61.0,120.0,90.0,0.0,0.0
903,60.0,96.0,90.0,0.0,0.0
904,61.0,96.0,90.0,0.0,0.0
905,64.0,96.0,90.0,0.0,0.0
906,65.0,96.0,90.0,0.0,0.0
907,67.0,170.0,90.0,0.0,0.0
908,70.0,227.0,210.0,0.0,0.0
909,65.0,0.0,180.0,0.0,0.0
910,41.0,0.0,180.0,0.0,0.0
911,68.0,13.0,180.0,0.0,0.0
912,67.0,0.0,180.0,0.0,0.0
913,48.0,236.0,210.0,0.0,0.0
914,64.0,46.0,180.0,0.0,0.0
915,68.0,0.0,420.0,0.0,0.0
916,65.0,34.0,420.0,0.0,0.0
917,48.0,216.0,210.0,0.0,0.0
918,48.0,55.0,210.0,0.0,0.0
919,70.0,133.0,60.0,0.0,0.0
920,65.0,0.0,180.0,0.0,0.0
921,41.0,0.0,180.0,0.0,0.0
922,68.0,240.0,180.0,0.0,0.0
923,48.0,194.0,210.0,0.0,0.0
924,64.0,0.0,180.0,0.0,0.0
925,67.0,46.0,180.0,0.0,0.0
926,68.0,0.0,180.0,0.0,0.0
927,41.0,0.0,180.0,0.0,0.0
928,65.0,240.0,180.0,0.0,0.0
929,70.0,0.0,180.0,0.0,0.0
930,48.0,236.0,210.0,0.0,0.0
931,67.0,46.0,180.0,0.0,0.0
932,72.0,0.0,720.0,0.0,0.0
933,68.0,220.0,720.0,0.0,0.0
934,48.0,250.0,210.0,0.0,0.0
935,48.0,188.0,210.0,0.0,0.0
936,36.0,66.0,180.0,0.0,0.0
937,67.0,0.0,240.0,0.0,0.0
938,48.0,24.0,210.0,0.0,0.0
939,64.0,37.0,240.0,0.0,0.0
940,70.0,133.0,60.0,0.0,0.0
941,68.0,220.0,180.0,0.0,0.0
942,41.0,0.0,180.0,0.0,0.0
943,65.0,20.0,180.0,0.0,0.0
944,67.0,0.0,180.0,0.0,0.0
945,48.0,236.0,210.0,0.0,0.0
946,64.0,46.0,180.0,0.0,0.0
947,48.0,216.0,210.0,0.0,0.0
948,65.0,0.0,420.0,0.0,0.0
949,68.0,34.0,420.0,0.0,0.0
950,48.0,55.0,210.0,0.0,0.0
951,70.0,77.0,60.0,0.0,0.0
952,65.0,0.0,120.0,0.0,0.0
953,41.0,174.0,180.0,0.0,0.0
954,68.0,56.0,120.0,0.0,0.0
955,48.0,0.0,120.0,0.0,0.0
956,67.0,0.0,120.0,0.0,0.0
957,64.0,236.0,120.0,0.0,0.0
958,34.0,4.0,120.0,0.0,0.0
959,65.0,0.0,120.0,0.0,0.0
960,68.0,236.0,120.0,0.0,0.0
961,46.0,4.0,120.0,0.0,0.0
962,67.0,0.0,120.0,0.0,0.0
963,70.0,236.0,120.0,0.0,0.0
964,46.0,4.0,120.0,0.0,0.0
965,68.0,0.0,120.0,0.0,0.0
966,72.0,236.0,120.0,0.0,0.0
967,46.0,4.0,120.0,0.0,0.0
968,65.0,0.0,120.0,0.0,0.0
969,74.0,342.0,120.0,0.0,0.0
970,39.0,240.0,210.0,0.0,0.0
971,75.0,0.0,480.0,0.0,0.0
972,67.0,37.0,480.0,0.0,0.0
973,46.0,34.0,210.0,0.0,0.0
974,77.0,133.0,60.0,0.0,0.0
975,75.0,0.0,180.0,0.0,0.0
976,39.0,20.0,180.0,0.0,0.0
977,66.0,240.0,180.0,0.0,0.0
978,74.0,0.0,180.0,0.0,0.0
979,46.0,236.0,210.0,0.0,0.0
980,65.0,26.0,180.0,0.0,0.0
981,66.0,0.0,480.0,0.0,0.0
982,75.0,41.0,480.0,0.0,0.0
983,46.0,250.0,210.0,0.0,0.0
984,46.0,14.0,210.0,0.0,0.0
985,77.0,133.0,60.0,0.0,0.0
986,75.0,0.0,180.0,0.0,0.0
987,39.0,20.0,180.0,0.0,0.0
988,66.0,240.0,180.0,0.0,0.0
989,74.0,0.0,180.0,0.0,0.0
990,46.0,194.0,210.0,0.0,0.0
991,65.0,26.0,180.0,0.0,0.0
992,75.0,0.0,180.0,0.0,0.0
993,39.0,20.0,180.0,0.0,0.0
994,66.0,240.0,180.0,0.0,0.0
995,77.0,0.0,180.0,0.0,0.0
996,46.0,236.0,210.0,0.0,0.0
997,68.0,26.0,180.0,0.0,0.0
998,70.0,0.0,720.0,0.0,0.0
999,78.0,220.0,720.0,0.0,0.0
1000,46.0,250.0,210.0,0.0,0.0
1001,46.0,188.0,210.0,0.0,0.0
1002,34.0,66.0,180.0,0.0,0.0
1003,74.0,0.0,210.0,0.0,0.0
1004,46.0,0.0,210.0,0.0,0.0
1005,68.0,61.0,210.0,0.0,0.0
1006,77.0,133.0,60.0,0.0,0.0
1007,75.0,0.0,180.0,0.0,0.0
1008,39.0,0.0,180.0,0.0,0.0
1009,66.0,240.0,180.0,0.0,0.0
1010,74.0,0.0,180.0,0.0,0.0
1011,46.0,236.0,210.0,0.0,0.0
1012,65.0,46.0,180.0,0.0,0.0
1013,75.0,0.0,480.0,0.0,0.0
1014,66.0,174.0,480.0,0.0,0.0
1015,46.0,250.0,210.0,0.0,0.0
1016,46.0,14.0,210.0,0.0,0.0
1017,76.0,0.0,180.0,0.0,0.0
1018,36.0,194.0,210.0,0.0,0.0
1019,67.0,46.0,180.0,0.0,0.0
1020,76.0,0.0,180.0,0.0,0.0
1021,48.0,194.0,210.0,0.0,0.0
1022,67.0,46.0,180.0,0.0,0.0
1023,77.0,0.0,180.0,0.0,0.0
1024,41.0,0.0,180.0,0.0,0.0
1025,68.0,286.0,180.0,0.0,0.0
1026,70.0,0.0,210.0,0.0,0.0
1027,48.0,0.0,210.0,0.0,0.0
1028,79.0,236.0,210.0,0.0,0.0
1029,48.0,250.0,210.0,0.0,0.0
1030,72.0,0.0,720.0,0.0,0.0
1031,80.0,220.0,720.0,0.0,0.0
1032,48.0,188.0,210.0,0.0,0.0
1033,36.0,66.0,180.0,0.0,0.0
1034,76.0,0.0,240.0,0.0,0.0
1035,48.0,24.0,210.0,0.0,0.0
1036,67.0,216.0,240.0,0.0,0.0
1037,80.0,0.0,720.0,0.0,0.0
1038,77.0,0.0,720.0,0.0,0.0
1039,29.0,240.0,210.0,0.0,0.0
1040,72.0,221.0,720.0,0.0,0.0
1041,41.0,236.0,210.0,0.0,0.0
1042,41.0,28.0,210.0,0.0,0.0
1043,77.0,0.0,210.0,0.0,0.0
1044,80.0,0.0,210.0,0.0,0.0
1045,72.0,1.0,210.0,0.0,0.0
1046,41.0,234.0,210.0,0.0,0.0
1047,79.0,0.0,420.0,0.0,0.0
1048,72.0,0.0,420.0,0.0,0.0
1049,31.0,216.0,210.0,0.0,0.0
1050,75.0,24.0,420.0,0.0,0.0
1051,43.0,240.0,210.0,0.0,0.0
1052,68.0,0.0,720.0,0.0,0.0
1053,73.0,0.0,720.0,0.0,0.0
1054,32.0,240.0,210.0,0.0,0.0
1055,77.0,222.0,720.0,0.0,0.0
1056,44.0,236.0,210.0,0.0,0.0
1057,44.0,28.0,210.0,0.0,0.0
1058,77.0,0.0,210.0,0.0,0.0
1059,68.0,0.0,210.0,0.0,0.0
1060,44.0,0.0,210.0,0.0,0.0
1061,73.0,234.0,210.0,0.0,0.0
1062,67.0,0.0,420.0,0.0,0.0
1063,70.0,0.0,420.0,0.0,0.0
1064,34.0,216.0,210.0,0.0,0.0
1065,75.0,24.0,420.0,0.0,0.0
1066,46.0,240.0,210.0,0.0,0.0
1067,68.0,0.0,720.0,0.0,0.0
1068,36.0,0.0,210.0,0.0,0.0
1069,72.0,0.0,720.0,0.0,0.0
1070,48.0,264.0,210.0,0.0,0.0
1071,65.0,176.0,720.0,0.0,0.0
1072,48.0,236.0,240.0,0.0,0.0
1073,53.0,0.0,240.0,0.0,0.0
1074,56.0,4.0,240.0,0.0,0.0
1075,70.0,0.0,180.0,0.0,0.0
1076,48.0,166.0,240.0,0.0,0.0
1077,61.0,68.0,180.0,0.0,0.0
1078,68.0,0.0,180.0,0.0,0.0
1079,52.0,194.0,210.0,0.0,0.0
1080,60.0,46.0,180.0,0.0,0.0
1081,67.0,0.0,180.0,0.0,0.0
1082,48.0,240.0,210.0,0.0,0.0
1083,58.0,46.0,180.0,0.0,0.0
1084,67.0,0.0,720.0,0.0,0.0
1085,41.0,264.0,210.0,0.0,0.0
1086,58.0,222.0,720.0,0.0,0.0
1087,48.0,236.0,240.0,0.0,0.0
1088,52.0,4.0,240.0,0.0,0.0
1089,56.0,0.0,210.0,0.0,0.0
1090,48.0,426.0,240.0,0.0,0.0
1091,65.0,24.0,210.0,0.0,0.0
1092,53.0,0.0,420.0,0.0,0.0
1093,65.0,0.0,420.0,0.0,0.0
1094,41.0,0.0,420.0,0.0,0.0
1095,56.0,0.0,420.0,0.0,0.0
