,note,step,duration,channel,velocity
0,70.0,1.0,240.0,4.0,0.0
1,58.0,1.0,240.0,5.0,0.0
2,58.0,0.0,240.0,12.0,0.0
3,70.0,1.0,240.0,12.0,0.0
4,70.0,1.0,120.0,13.0,0.0
5,46.0,1.0,240.0,8.0,0.0
6,46.0,29.0,90.0,3.0,0.0
7,46.0,0.0,240.0,14.0,0.0
8,34.0,3.0,240.0,14.0,0.0
9,48.0,112.0,30.0,3.0,0.0
10,68.0,1.0,120.0,13.0,0.0
11,50.0,89.0,120.0,3.0,0.0
12,70.0,1.0,240.0,4.0,0.0
13,70.0,0.0,240.0,12.0,0.0
14,58.0,1.0,240.0,12.0,0.0
15,58.0,0.0,240.0,5.0,0.0
16,67.0,1.0,90.0,13.0,0.0
17,46.0,1.0,240.0,8.0,0.0
18,52.0,29.0,90.0,3.0,0.0
19,46.0,123.0,240.0,14.0,0.0
20,34.0,0.0,240.0,14.0,0.0
21,65.0,1.0,30.0,13.0,0.0
22,53.0,112.0,30.0,3.0,0.0
23,64.0,1.0,120.0,13.0,0.0
24,55.0,0.0,120.0,3.0,0.0
25,70.0,1.0,240.0,4.0,0.0
26,70.0,1.0,240.0,12.0,0.0
27,58.0,0.0,240.0,12.0,0.0
28,58.0,1.0,240.0,5.0,0.0
29,70.0,1.0,120.0,13.0,0.0
30,52.0,75.0,120.0,3.0,0.0
31,46.0,1.0,240.0,8.0,0.0
32,34.0,3.0,240.0,14.0,0.0
33,46.0,0.0,240.0,14.0,0.0
34,68.0,1.0,120.0,13.0,0.0
35,53.0,15.0,60.0,3.0,0.0
36,55.0,15.0,15.0,3.0,0.0
37,56.0,7.0,15.0,3.0,0.0
38,58.0,89.0,15.0,3.0,0.0
39,71.0,1.0,120.0,4.0,0.0
40,68.0,0.0,120.0,12.0,0.0
41,56.0,2.0,120.0,12.0,0.0
42,59.0,0.0,120.0,5.0,0.0
43,65.0,27.0,90.0,13.0,0.0
44,59.0,114.0,120.0,3.0,0.0
45,46.0,1.0,240.0,8.0,0.0
46,34.0,0.0,240.0,14.0,0.0
47,46.0,1.0,240.0,14.0,0.0
48,62.0,1.0,30.0,13.0,0.0
49,70.0,0.0,120.0,4.0,0.0
50,58.0,3.0,120.0,5.0,0.0
51,55.0,0.0,120.0,12.0,0.0
52,67.0,0.0,120.0,12.0,0.0
53,63.0,1.0,120.0,13.0,0.0
54,58.0,89.0,120.0,3.0,0.0
55,75.0,1.0,120.0,0.0,0.0
56,75.0,2.0,360.0,1.0,0.0
57,70.0,0.0,120.0,1.0,0.0
58,63.0,2.0,360.0,7.0,0.0
59,63.0,25.0,90.0,13.0,0.0
60,58.0,53.0,120.0,7.0,0.0
61,55.0,1.0,120.0,3.0,0.0
62,43.0,0.0,120.0,8.0,0.0
63,43.0,3.0,120.0,14.0,0.0
64,68.0,0.0,30.0,13.0,0.0
65,80.0,1.0,120.0,0.0,0.0
66,72.0,2.0,120.0,1.0,0.0
67,68.0,2.0,120.0,7.0,0.0
68,60.0,53.0,120.0,7.0,0.0
69,68.0,60.0,60.0,13.0,0.0
70,39.0,1.0,480.0,8.0,0.0
71,51.0,59.0,480.0,3.0,0.0
72,39.0,0.0,480.0,14.0,0.0
73,70.0,2.0,60.0,13.0,0.0
74,79.0,1.0,120.0,0.0,0.0
75,70.0,0.0,120.0,1.0,0.0
76,70.0,1.0,240.0,4.0,0.0
77,58.0,0.0,240.0,5.0,0.0
78,67.0,0.0,120.0,7.0,0.0
79,58.0,53.0,120.0,7.0,0.0
80,67.0,60.0,60.0,13.0,0.0
81,68.0,2.0,60.0,13.0,0.0
82,77.0,1.0,120.0,0.0,0.0
83,74.0,2.0,120.0,1.0,0.0
84,68.0,0.0,120.0,1.0,0.0
85,62.0,0.0,120.0,7.0,0.0
86,65.0,2.0,120.0,7.0,0.0
87,65.0,60.0,60.0,13.0,0.0
88,56.0,53.0,120.0,7.0,0.0
89,67.0,1.0,60.0,13.0,0.0
90,75.0,1.0,120.0,0.0,0.0
91,67.0,0.0,120.0,1.0,0.0
92,75.0,0.0,120.0,1.0,0.0
93,70.0,1.0,120.0,4.0,0.0
94,63.0,0.0,120.0,7.0,0.0
95,58.0,2.0,120.0,5.0,0.0
96,55.0,0.0,120.0,7.0,0.0
97,63.0,62.0,60.0,13.0,0.0
98,58.0,1.0,60.0,13.0,0.0
99,63.0,60.0,60.0,13.0,0.0
100,67.0,60.0,60.0,13.0,0.0
101,75.0,1.0,120.0,0.0,0.0
102,75.0,5.0,240.0,1.0,0.0
103,70.0,1.0,120.0,1.0,0.0
104,63.0,0.0,120.0,4.0,0.0
105,70.0,55.0,60.0,13.0,0.0
106,63.0,1.0,240.0,3.0,0.0
107,58.0,1.0,120.0,3.0,0.0
108,43.0,114.0,120.0,14.0,0.0
109,63.0,4.0,30.0,13.0,0.0
110,80.0,1.0,240.0,0.0,0.0
111,68.0,0.0,240.0,1.0,0.0
112,68.0,3.0,240.0,4.0,0.0
113,68.0,58.0,180.0,13.0,0.0
114,56.0,1.0,240.0,3.0,0.0
115,41.0,55.0,120.0,14.0,0.0
116,74.0,1.0,120.0,1.0,0.0
117,62.0,0.0,120.0,3.0,0.0
118,34.0,58.0,120.0,14.0,0.0
119,65.0,1.0,60.0,13.0,0.0
120,70.0,60.0,60.0,13.0,0.0
121,67.0,60.0,60.0,13.0,0.0
122,75.0,1.0,120.0,0.0,0.0
123,70.0,1.0,120.0,1.0,0.0
124,75.0,5.0,240.0,1.0,0.0
125,63.0,0.0,120.0,4.0,0.0
126,75.0,55.0,60.0,13.0,0.0
127,63.0,1.0,240.0,3.0,0.0
128,58.0,1.0,120.0,3.0,0.0
129,43.0,114.0,120.0,14.0,0.0
130,67.0,4.0,30.0,13.0,0.0
131,80.0,1.0,240.0,0.0,0.0
132,68.0,1.0,240.0,1.0,0.0
133,68.0,4.0,240.0,4.0,0.0
134,68.0,58.0,180.0,13.0,0.0
135,56.0,0.0,240.0,3.0,0.0
136,41.0,55.0,120.0,14.0,0.0
137,74.0,0.0,120.0,1.0,0.0
138,62.0,1.0,120.0,3.0,0.0
139,34.0,173.0,120.0,14.0,0.0
140,65.0,0.0,60.0,13.0,0.0
141,67.0,42.0,180.0,13.0,0.0
142,79.0,1.0,90.0,0.0,0.0
143,67.0,1.0,90.0,1.0,0.0
144,74.0,0.0,90.0,1.0,0.0
145,67.0,1.0,90.0,4.0,0.0
146,55.0,3.0,90.0,5.0,0.0
147,46.0,1.0,90.0,3.0,0.0
148,50.0,0.0,90.0,3.0,0.0
149,46.0,16.0,90.0,14.0,0.0
150,67.0,60.0,60.0,13.0,0.0
151,68.0,60.0,60.0,13.0,0.0
152,70.0,60.0,60.0,13.0,0.0
153,75.0,1.0,90.0,0.0,0.0
154,67.0,0.0,90.0,1.0,0.0
155,75.0,1.0,90.0,1.0,0.0
156,63.0,1.0,90.0,4.0,0.0
157,51.0,3.0,90.0,5.0,0.0
158,67.0,37.0,60.0,13.0,0.0
159,55.0,1.0,90.0,3.0,0.0
160,48.0,0.0,90.0,3.0,0.0
161,48.0,16.0,90.0,14.0,0.0
162,65.0,60.0,60.0,13.0,0.0
163,63.0,60.0,60.0,13.0,0.0
164,62.0,57.0,60.0,13.0,0.0
165,77.0,1.0,90.0,0.0,0.0
166,65.0,0.0,90.0,1.0,0.0
167,72.0,1.0,90.0,1.0,0.0
168,65.0,1.0,90.0,4.0,0.0
169,60.0,3.0,90.0,5.0,0.0
170,60.0,40.0,60.0,13.0,0.0
171,56.0,1.0,90.0,3.0,0.0
172,44.0,0.0,90.0,3.0,0.0
173,44.0,16.0,90.0,14.0,0.0
174,65.0,60.0,60.0,13.0,0.0
175,67.0,60.0,60.0,13.0,0.0
176,68.0,60.0,60.0,13.0,0.0
177,74.0,1.0,90.0,0.0,0.0
178,65.0,1.0,90.0,1.0,0.0
179,74.0,0.0,90.0,1.0,0.0
180,62.0,1.0,90.0,4.0,0.0
181,58.0,3.0,90.0,5.0,0.0
182,65.0,37.0,60.0,13.0,0.0
183,53.0,1.0,90.0,3.0,0.0
184,46.0,0.0,90.0,3.0,0.0
185,46.0,16.0,90.0,14.0,0.0
186,63.0,60.0,60.0,13.0,0.0
187,62.0,60.0,60.0,13.0,0.0
188,60.0,57.0,60.0,13.0,0.0
189,75.0,1.0,90.0,0.0,0.0
190,75.0,1.0,90.0,1.0,0.0
191,70.0,0.0,90.0,1.0,0.0
192,63.0,1.0,90.0,4.0,0.0
193,51.0,3.0,90.0,5.0,0.0
194,58.0,40.0,60.0,13.0,0.0
195,43.0,1.0,90.0,3.0,0.0
196,55.0,0.0,90.0,3.0,0.0
197,43.0,16.0,90.0,14.0,0.0
198,63.0,175.0,60.0,13.0,0.0
199,70.0,42.0,180.0,13.0,0.0
200,82.0,1.0,90.0,0.0,0.0
201,70.0,1.0,90.0,1.0,0.0
202,75.0,0.0,90.0,1.0,0.0
203,63.0,1.0,90.0,4.0,0.0
204,51.0,3.0,90.0,5.0,0.0
205,54.0,1.0,90.0,3.0,0.0
206,42.0,0.0,90.0,3.0,0.0
207,42.0,16.0,90.0,14.0,0.0
208,63.0,175.0,60.0,13.0,0.0
209,72.0,65.0,180.0,13.0,0.0
210,81.0,1.0,240.0,0.0,0.0
211,69.0,1.0,240.0,1.0,0.0
212,75.0,0.0,240.0,1.0,0.0
213,63.0,1.0,240.0,4.0,0.0
214,60.0,2.0,240.0,5.0,0.0
215,41.0,0.0,240.0,3.0,0.0
216,53.0,2.0,240.0,3.0,0.0
217,41.0,1.0,240.0,14.0,0.0
218,75.0,60.0,60.0,13.0,0.0
219,74.0,52.0,60.0,13.0,0.0
220,72.0,90.0,60.0,13.0,0.0
221,84.0,1.0,120.0,0.0,0.0
222,72.0,0.0,120.0,1.0,0.0
223,75.0,1.0,120.0,1.0,0.0
224,63.0,1.0,120.0,4.0,0.0
225,60.0,3.0,120.0,5.0,0.0
226,67.0,25.0,90.0,13.0,0.0
227,53.0,1.0,120.0,3.0,0.0
228,63.0,0.0,120.0,3.0,0.0
229,53.0,118.0,120.0,14.0,0.0
230,69.0,0.0,30.0,13.0,0.0
231,69.0,115.0,120.0,13.0,0.0
232,78.0,0.0,120.0,0.0,0.0
233,82.0,1.0,120.0,0.0,0.0
234,70.0,5.0,120.0,1.0,0.0
235,73.0,0.0,120.0,1.0,0.0
236,70.0,60.0,180.0,13.0,0.0
237,61.0,1.0,120.0,3.0,0.0
238,54.0,0.0,120.0,3.0,0.0
239,42.0,58.0,120.0,14.0,0.0
240,74.0,1.0,240.0,0.0,0.0
241,83.0,0.0,240.0,0.0,0.0
242,74.0,0.0,240.0,1.0,0.0
243,71.0,1.0,240.0,1.0,0.0
244,53.0,1.0,240.0,3.0,0.0
245,62.0,0.0,240.0,3.0,0.0
246,41.0,118.0,240.0,14.0,0.0
247,68.0,90.0,60.0,13.0,0.0
248,62.0,25.0,90.0,13.0,0.0
249,68.0,4.0,30.0,13.0,0.0
250,68.0,115.0,120.0,13.0,0.0
251,73.0,1.0,120.0,0.0,0.0
252,82.0,0.0,120.0,0.0,0.0
253,70.0,5.0,120.0,1.0,0.0
254,73.0,0.0,120.0,1.0,0.0
255,70.0,60.0,180.0,13.0,0.0
256,54.0,1.0,120.0,3.0,0.0
257,61.0,0.0,120.0,3.0,0.0
258,42.0,58.0,120.0,14.0,0.0
259,86.0,0.0,240.0,0.0,0.0
260,83.0,1.0,240.0,0.0,0.0
261,71.0,0.0,240.0,1.0,0.0
262,74.0,1.0,240.0,1.0,0.0
263,53.0,0.0,240.0,3.0,0.0
264,68.0,1.0,240.0,3.0,0.0
265,41.0,178.0,240.0,14.0,0.0
266,68.0,90.0,60.0,13.0,0.0
267,62.0,25.0,90.0,13.0,0.0
268,71.0,4.0,30.0,13.0,0.0
269,71.0,55.0,180.0,13.0,0.0
270,78.0,0.0,120.0,0.0,0.0
271,85.0,1.0,120.0,0.0,0.0
272,73.0,0.0,120.0,1.0,0.0
273,66.0,5.0,120.0,1.0,0.0
274,61.0,1.0,120.0,3.0,0.0
275,54.0,0.0,120.0,3.0,0.0
276,42.0,52.0,120.0,14.0,0.0
277,70.0,0.0,60.0,13.0,0.0
278,70.0,1.0,60.0,4.0,0.0
279,58.0,60.0,60.0,5.0,0.0
280,70.0,59.0,120.0,13.0,0.0
281,70.0,1.0,120.0,4.0,0.0
282,58.0,35.0,120.0,5.0,0.0
283,94.0,0.0,120.0,0.0,0.0
284,82.0,1.0,120.0,10.0,0.0
285,82.0,4.0,120.0,11.0,0.0
286,70.0,2.0,240.0,12.0,0.0
287,58.0,0.0,240.0,12.0,0.0
288,46.0,25.0,90.0,13.0,0.0
289,58.0,0.0,240.0,3.0,0.0
290,46.0,2.0,240.0,3.0,0.0
291,46.0,1.0,240.0,14.0,0.0
292,34.0,0.0,240.0,14.0,0.0
293,70.0,1.0,120.0,4.0,0.0
294,58.0,58.0,120.0,5.0,0.0
295,48.0,54.0,30.0,13.0,0.0
296,92.0,0.0,120.0,0.0,0.0
297,80.0,1.0,120.0,10.0,0.0
298,80.0,1.0,120.0,11.0,0.0
299,50.0,54.0,120.0,13.0,0.0
300,70.0,1.0,120.0,4.0,0.0
301,58.0,30.0,120.0,5.0,0.0
302,79.0,0.0,90.0,10.0,0.0
303,91.0,1.0,90.0,0.0,0.0
304,79.0,4.0,90.0,11.0,0.0
305,58.0,0.0,240.0,12.0,0.0
306,70.0,2.0,240.0,12.0,0.0
307,52.0,25.0,90.0,13.0,0.0
308,46.0,56.0,240.0,3.0,0.0
309,58.0,0.0,240.0,3.0,0.0
310,34.0,1.0,240.0,14.0,0.0
311,46.0,0.0,240.0,14.0,0.0
312,70.0,1.0,120.0,4.0,0.0
313,58.0,55.0,120.0,5.0,0.0
314,77.0,0.0,30.0,10.0,0.0
315,89.0,1.0,30.0,0.0,0.0
316,77.0,4.0,30.0,11.0,0.0
317,53.0,54.0,30.0,13.0,0.0
318,76.0,1.0,120.0,10.0,0.0
319,88.0,0.0,120.0,0.0,0.0
320,76.0,2.0,120.0,11.0,0.0
321,55.0,2.0,120.0,13.0,0.0
322,70.0,1.0,120.0,4.0,0.0
323,58.0,60.0,120.0,5.0,0.0
324,94.0,0.0,120.0,0.0,0.0
325,82.0,1.0,120.0,10.0,0.0
326,82.0,2.0,120.0,11.0,0.0
327,52.0,2.0,120.0,12.0,0.0
328,52.0,54.0,120.0,13.0,0.0
329,58.0,0.0,240.0,3.0,0.0
330,46.0,0.0,240.0,3.0,0.0
331,46.0,1.0,240.0,14.0,0.0
332,34.0,0.0,240.0,14.0,0.0
333,70.0,1.0,120.0,4.0,0.0
334,58.0,3.0,120.0,5.0,0.0
335,80.0,0.0,120.0,10.0,0.0
336,92.0,1.0,120.0,0.0,0.0
337,80.0,1.0,120.0,11.0,0.0
338,53.0,15.0,60.0,13.0,0.0
339,70.0,0.0,60.0,4.0,0.0
340,58.0,0.0,60.0,5.0,0.0
341,53.0,17.0,15.0,12.0,0.0
342,55.0,13.0,15.0,13.0,0.0
343,56.0,10.0,15.0,13.0,0.0
344,55.0,2.0,15.0,12.0,0.0
345,58.0,52.0,15.0,13.0,0.0
346,77.0,1.0,90.0,10.0,0.0
347,89.0,0.0,90.0,0.0,0.0
348,77.0,29.0,90.0,11.0,0.0
349,68.0,1.0,60.0,4.0,0.0
350,65.0,32.0,60.0,5.0,0.0
351,56.0,0.0,120.0,12.0,0.0
352,59.0,52.0,120.0,13.0,0.0
353,46.0,0.0,240.0,3.0,0.0
354,58.0,2.0,240.0,3.0,0.0
355,46.0,0.0,240.0,14.0,0.0
356,34.0,1.0,240.0,14.0,0.0
357,68.0,1.0,60.0,4.0,0.0
358,65.0,2.0,60.0,5.0,0.0
359,74.0,0.0,30.0,10.0,0.0
360,86.0,1.0,30.0,0.0,0.0
361,74.0,1.0,30.0,11.0,0.0
362,75.0,0.0,120.0,10.0,0.0
363,87.0,1.0,120.0,0.0,0.0
364,75.0,9.0,120.0,11.0,0.0
365,67.0,1.0,60.0,4.0,0.0
366,63.0,54.0,60.0,5.0,0.0
367,55.0,0.0,120.0,12.0,0.0
368,58.0,52.0,120.0,13.0,0.0
369,67.0,1.0,120.0,4.0,0.0
370,63.0,32.0,120.0,5.0,0.0
371,75.0,1.0,90.0,10.0,0.0
372,87.0,1.0,360.0,0.0,0.0
373,82.0,1.0,120.0,1.0,0.0
374,75.0,26.0,90.0,11.0,0.0
375,75.0,0.0,360.0,1.0,0.0
376,70.0,0.0,120.0,2.0,0.0
377,75.0,0.0,120.0,2.0,0.0
378,75.0,0.0,240.0,6.0,0.0
379,67.0,2.0,120.0,7.0,0.0
380,55.0,1.0,120.0,13.0,0.0
381,58.0,1.0,120.0,7.0,0.0
382,55.0,47.0,120.0,8.0,0.0
383,43.0,1.0,120.0,14.0,0.0
384,63.0,0.0,300.0,4.0,0.0
385,51.0,0.0,300.0,5.0,0.0
386,80.0,1.0,30.0,10.0,0.0
387,80.0,2.0,30.0,11.0,0.0
388,92.0,1.0,120.0,0.0,0.0
389,80.0,1.0,60.0,10.0,0.0
390,84.0,1.0,120.0,1.0,0.0
391,80.0,59.0,60.0,11.0,0.0
392,80.0,1.0,120.0,2.0,0.0
393,72.0,0.0,120.0,2.0,0.0
394,80.0,0.0,120.0,6.0,0.0
395,68.0,2.0,120.0,7.0,0.0
396,63.0,2.0,240.0,7.0,0.0
397,51.0,0.0,480.0,13.0,0.0
398,60.0,48.0,120.0,7.0,0.0
399,51.0,54.0,480.0,8.0,0.0
400,39.0,0.0,480.0,14.0,0.0
401,82.0,1.0,60.0,10.0,0.0
402,82.0,6.0,60.0,11.0,0.0
403,79.0,1.0,60.0,10.0,0.0
404,91.0,0.0,120.0,0.0,0.0
405,79.0,59.0,60.0,11.0,0.0
406,82.0,1.0,120.0,1.0,0.0
407,79.0,1.0,120.0,6.0,0.0
408,70.0,0.0,240.0,6.0,0.0
409,70.0,0.0,120.0,2.0,0.0
410,79.0,0.0,120.0,2.0,0.0
411,67.0,0.0,120.0,7.0,0.0
412,58.0,48.0,120.0,7.0,0.0
413,80.0,1.0,60.0,10.0,0.0
414,80.0,6.0,60.0,11.0,0.0
415,86.0,1.0,120.0,0.0,0.0
416,89.0,0.0,120.0,0.0,0.0
417,77.0,1.0,60.0,10.0,0.0
418,77.0,59.0,60.0,11.0,0.0
419,80.0,0.0,120.0,1.0,0.0
420,74.0,1.0,120.0,1.0,0.0
421,68.0,0.0,120.0,2.0,0.0
422,77.0,0.0,120.0,2.0,0.0
423,70.0,0.0,240.0,4.0,0.0
424,77.0,1.0,120.0,6.0,0.0
425,62.0,0.0,120.0,7.0,0.0
426,65.0,2.0,120.0,7.0,0.0
427,58.0,0.0,240.0,5.0,0.0
428,56.0,48.0,120.0,7.0,0.0
429,79.0,1.0,60.0,10.0,0.0
430,79.0,6.0,60.0,11.0,0.0
431,75.0,1.0,60.0,10.0,0.0
432,87.0,0.0,120.0,0.0,0.0
433,79.0,0.0,120.0,1.0,0.0
434,75.0,0.0,120.0,1.0,0.0
435,75.0,66.0,60.0,11.0,0.0
436,75.0,0.0,120.0,6.0,0.0
437,67.0,0.0,120.0,2.0,0.0
438,67.0,0.0,120.0,6.0,0.0
439,75.0,1.0,120.0,2.0,0.0
440,63.0,2.0,120.0,7.0,0.0
441,55.0,1.0,120.0,7.0,0.0
442,70.0,1.0,60.0,10.0,0.0
443,70.0,1.0,60.0,11.0,0.0
444,75.0,1.0,60.0,10.0,0.0
445,75.0,59.0,60.0,11.0,0.0
446,79.0,1.0,60.0,10.0,0.0
447,79.0,59.0,60.0,11.0,0.0
448,82.0,1.0,60.0,10.0,0.0
449,75.0,2.0,240.0,1.0,0.0
450,82.0,56.0,60.0,11.0,0.0
451,70.0,1.0,120.0,1.0,0.0
452,75.0,3.0,120.0,2.0,0.0
453,63.0,2.0,240.0,12.0,0.0
454,55.0,1.0,120.0,13.0,0.0
455,58.0,1.0,120.0,3.0,0.0
456,63.0,0.0,120.0,3.0,0.0
457,43.0,114.0,120.0,14.0,0.0
458,75.0,1.0,30.0,10.0,0.0
459,75.0,3.0,30.0,11.0,0.0
460,80.0,1.0,240.0,10.0,0.0
461,80.0,2.0,240.0,11.0,0.0
462,68.0,0.0,240.0,1.0,0.0
463,80.0,0.0,240.0,2.0,0.0
464,53.0,2.0,120.0,13.0,0.0
465,68.0,111.0,240.0,3.0,0.0
466,56.0,0.0,240.0,3.0,0.0
467,41.0,110.0,120.0,14.0,0.0
468,74.0,1.0,120.0,1.0,0.0
469,62.0,1.0,120.0,12.0,0.0
470,46.0,2.0,120.0,13.0,0.0
471,34.0,2.0,120.0,14.0,0.0
472,79.0,1.0,120.0,10.0,0.0
473,75.0,1.0,120.0,1.0,0.0
474,79.0,2.0,120.0,11.0,0.0
475,67.0,0.0,120.0,1.0,0.0
476,79.0,2.0,120.0,2.0,0.0
477,63.0,1.0,120.0,12.0,0.0
478,51.0,0.0,120.0,13.0,0.0
479,58.0,0.0,120.0,3.0,0.0
480,67.0,114.0,120.0,3.0,0.0
481,39.0,2.0,120.0,14.0,0.0
482,63.0,4.0,240.0,11.0,0.0
483,63.0,3.0,120.0,4.0,0.0
484,58.0,2.0,120.0,12.0,0.0
485,55.0,2.0,120.0,13.0,0.0
486,43.0,114.0,120.0,14.0,0.0
487,68.0,60.0,300.0,4.0,0.0
488,56.0,2.0,240.0,12.0,0.0
489,53.0,2.0,120.0,13.0,0.0
490,41.0,114.0,120.0,14.0,0.0
491,62.0,2.0,120.0,11.0,0.0
492,46.0,2.0,120.0,13.0,0.0
493,34.0,55.0,120.0,14.0,0.0
494,65.0,60.0,60.0,4.0,0.0
495,70.0,60.0,60.0,4.0,0.0
496,65.0,60.0,60.0,4.0,0.0
497,68.0,60.0,60.0,4.0,0.0
498,65.0,60.0,60.0,4.0,0.0
499,70.0,57.0,60.0,4.0,0.0
500,65.0,242.0,60.0,4.0,0.0
501,68.0,4.0,360.0,4.0,0.0
502,68.0,113.0,360.0,3.0,0.0
503,70.0,121.0,120.0,1.0,0.0
504,82.0,0.0,120.0,1.0,0.0
505,75.0,1.0,300.0,1.0,0.0
506,87.0,0.0,300.0,1.0,0.0
507,67.0,4.0,120.0,4.0,0.0
508,67.0,58.0,120.0,3.0,0.0
509,66.0,4.0,60.0,4.0,0.0
510,66.0,55.0,60.0,3.0,0.0
511,72.0,0.0,60.0,1.0,0.0
512,84.0,60.0,60.0,1.0,0.0
513,70.0,4.0,120.0,4.0,0.0
514,70.0,53.0,120.0,3.0,0.0
515,77.0,0.0,60.0,1.0,0.0
516,89.0,1.0,60.0,1.0,0.0
517,72.0,2.0,60.0,1.0,0.0
518,84.0,0.0,60.0,1.0,0.0
519,69.0,2.0,60.0,4.0,0.0
520,69.0,58.0,60.0,3.0,0.0
521,75.0,1.0,60.0,1.0,0.0
522,87.0,0.0,60.0,1.0,0.0
523,66.0,4.0,60.0,4.0,0.0
524,66.0,55.0,60.0,3.0,0.0
525,72.0,0.0,60.0,1.0,0.0
526,84.0,60.0,60.0,1.0,0.0
527,70.0,4.0,120.0,4.0,0.0
528,70.0,52.0,120.0,3.0,0.0
529,77.0,0.0,60.0,1.0,0.0
530,89.0,1.0,60.0,1.0,0.0
531,84.0,1.0,60.0,1.0,0.0
532,72.0,0.0,60.0,1.0,0.0
533,69.0,4.0,60.0,4.0,0.0
534,69.0,59.0,60.0,3.0,0.0
535,87.0,61.0,120.0,1.0,0.0
536,75.0,0.0,120.0,1.0,0.0
537,65.0,4.0,60.0,4.0,0.0
538,65.0,55.0,60.0,3.0,0.0
539,72.0,4.0,120.0,4.0,0.0
540,72.0,55.0,120.0,3.0,0.0
541,85.0,61.0,120.0,1.0,0.0
542,73.0,0.0,120.0,1.0,0.0
543,70.0,4.0,120.0,4.0,0.0
544,70.0,55.0,120.0,3.0,0.0
545,72.0,0.0,120.0,1.0,0.0
546,84.0,60.0,120.0,1.0,0.0
547,68.0,4.0,120.0,4.0,0.0
548,68.0,52.0,120.0,3.0,0.0
549,91.0,0.0,120.0,0.0,0.0
550,79.0,3.0,120.0,0.0,0.0
551,82.0,0.0,60.0,1.0,0.0
552,70.0,1.0,60.0,1.0,0.0
553,72.0,1.0,60.0,1.0,0.0
554,84.0,0.0,60.0,1.0,0.0
555,67.0,1.0,60.0,4.0,0.0
556,67.0,59.0,60.0,3.0,0.0
557,92.0,0.0,300.0,0.0,0.0
558,80.0,2.0,300.0,0.0,0.0
559,73.0,1.0,120.0,1.0,0.0
560,85.0,0.0,120.0,1.0,0.0
561,65.0,4.0,60.0,4.0,0.0
562,65.0,55.0,60.0,3.0,0.0
563,64.0,4.0,60.0,4.0,0.0
564,64.0,56.0,60.0,3.0,0.0
565,72.0,2.0,120.0,1.0,0.0
566,84.0,0.0,120.0,1.0,0.0
567,63.0,4.0,60.0,4.0,0.0
568,63.0,53.0,60.0,3.0,0.0
569,68.0,2.0,60.0,4.0,0.0
570,68.0,57.0,60.0,3.0,0.0
571,71.0,0.0,120.0,1.0,0.0
572,83.0,59.0,120.0,1.0,0.0
573,65.0,4.0,60.0,4.0,0.0
574,65.0,54.0,60.0,3.0,0.0
575,89.0,0.0,60.0,0.0,0.0
576,77.0,1.0,60.0,0.0,0.0
577,63.0,4.0,120.0,4.0,0.0
578,63.0,52.0,120.0,3.0,0.0
579,94.0,1.0,60.0,0.0,0.0
580,82.0,0.0,60.0,0.0,0.0
581,77.0,1.0,60.0,1.0,0.0
582,65.0,0.0,60.0,1.0,0.0
583,77.0,3.0,60.0,0.0,0.0
584,89.0,0.0,60.0,0.0,0.0
585,82.0,1.0,60.0,1.0,0.0
586,70.0,0.0,60.0,1.0,0.0
587,62.0,1.0,60.0,4.0,0.0
588,62.0,57.0,60.0,3.0,0.0
589,80.0,2.0,60.0,0.0,0.0
590,92.0,0.0,60.0,0.0,0.0
591,83.0,0.0,120.0,1.0,0.0
592,71.0,59.0,120.0,1.0,0.0
593,65.0,4.0,60.0,4.0,0.0
594,65.0,54.0,60.0,3.0,0.0
595,89.0,0.0,60.0,0.0,0.0
596,77.0,1.0,60.0,0.0,0.0
597,63.0,4.0,120.0,4.0,0.0
598,63.0,51.0,120.0,3.0,0.0
599,94.0,1.0,60.0,0.0,0.0
600,82.0,0.0,60.0,0.0,0.0
601,77.0,0.0,60.0,1.0,0.0
602,65.0,1.0,60.0,1.0,0.0
603,77.0,1.0,60.0,0.0,0.0
604,89.0,0.0,60.0,0.0,0.0
605,70.0,1.0,60.0,1.0,0.0
606,82.0,0.0,60.0,1.0,0.0
607,62.0,4.0,60.0,4.0,0.0
608,62.0,57.0,60.0,3.0,0.0
609,92.0,1.0,360.0,0.0,0.0
610,74.0,1.0,60.0,0.0,0.0
611,80.0,2.0,360.0,1.0,0.0
612,65.0,61.0,60.0,1.0,0.0
613,61.0,4.0,120.0,4.0,0.0
614,61.0,54.0,120.0,3.0,0.0
615,89.0,1.0,120.0,0.0,0.0
616,77.0,64.0,120.0,1.0,0.0
617,73.0,4.0,180.0,4.0,0.0
618,46.0,2.0,120.0,13.0,0.0
619,73.0,53.0,180.0,3.0,0.0
620,34.0,53.0,120.0,14.0,0.0
621,88.0,1.0,120.0,0.0,0.0
622,76.0,1.0,120.0,1.0,0.0
623,51.0,1.0,300.0,13.0,0.0
624,39.0,58.0,300.0,14.0,0.0
625,86.0,0.0,60.0,0.0,0.0
626,74.0,0.0,60.0,1.0,0.0
627,71.0,1.0,60.0,4.0,0.0
628,71.0,57.0,60.0,3.0,0.0
629,87.0,1.0,60.0,0.0,0.0
630,91.0,0.0,120.0,0.0,0.0
631,75.0,56.0,60.0,1.0,0.0
632,79.0,0.0,120.0,1.0,0.0
633,70.0,3.0,180.0,4.0,0.0
634,70.0,1.0,180.0,3.0,0.0
635,85.0,1.0,60.0,0.0,0.0
636,73.0,62.0,60.0,1.0,0.0
637,84.0,0.0,60.0,0.0,0.0
638,90.0,1.0,60.0,0.0,0.0
639,72.0,0.0,60.0,1.0,0.0
640,78.0,1.0,60.0,1.0,0.0
641,94.0,1.0,120.0,0.0,0.0
642,87.0,0.0,120.0,0.0,0.0
643,82.0,0.0,120.0,1.0,0.0
644,75.0,1.0,120.0,1.0,0.0
645,66.0,3.0,120.0,4.0,0.0
646,48.0,1.0,60.0,13.0,0.0
647,66.0,1.0,60.0,3.0,0.0
648,36.0,53.0,60.0,14.0,0.0
649,53.0,1.0,60.0,13.0,0.0
650,60.0,1.0,60.0,3.0,0.0
651,41.0,50.0,60.0,14.0,0.0
652,84.0,1.0,120.0,0.0,0.0
653,93.0,1.0,60.0,0.0,0.0
654,81.0,4.0,60.0,1.0,0.0
655,72.0,1.0,120.0,1.0,0.0
656,65.0,1.0,60.0,4.0,0.0
657,48.0,2.0,60.0,13.0,0.0
658,65.0,2.0,60.0,3.0,0.0
659,36.0,50.0,60.0,14.0,0.0
660,90.0,1.0,60.0,0.0,0.0
661,78.0,4.0,60.0,1.0,0.0
662,66.0,1.0,60.0,4.0,0.0
663,51.0,1.0,60.0,13.0,0.0
664,70.0,1.0,60.0,3.0,0.0
665,39.0,58.0,60.0,14.0,0.0
666,84.0,1.0,120.0,0.0,0.0
667,94.0,1.0,120.0,0.0,0.0
668,82.0,4.0,120.0,1.0,0.0
669,72.0,1.0,120.0,1.0,0.0
670,66.0,1.0,120.0,4.0,0.0
671,48.0,1.0,60.0,13.0,0.0
672,66.0,1.0,60.0,3.0,0.0
673,36.0,50.0,60.0,14.0,0.0
674,53.0,1.0,60.0,13.0,0.0
675,60.0,1.0,60.0,3.0,0.0
676,41.0,50.0,60.0,14.0,0.0
677,93.0,1.0,60.0,0.0,0.0
678,84.0,1.0,120.0,0.0,0.0
679,81.0,5.0,60.0,1.0,0.0
680,72.0,1.0,120.0,1.0,0.0
681,65.0,1.0,120.0,4.0,0.0
682,48.0,2.0,60.0,13.0,0.0
683,65.0,2.0,60.0,3.0,0.0
684,36.0,50.0,60.0,14.0,0.0
685,89.0,1.0,60.0,0.0,0.0
686,77.0,4.0,60.0,1.0,0.0
687,49.0,1.0,60.0,13.0,0.0
688,70.0,1.0,60.0,3.0,0.0
689,37.0,58.0,60.0,14.0,0.0
690,85.0,1.0,120.0,0.0,0.0
691,92.0,1.0,120.0,0.0,0.0
692,73.0,1.0,120.0,1.0,0.0
693,80.0,4.0,120.0,1.0,0.0
694,64.0,1.0,120.0,4.0,0.0
695,46.0,1.0,60.0,13.0,0.0
696,64.0,1.0,60.0,3.0,0.0
697,34.0,50.0,60.0,14.0,0.0
698,51.0,1.0,60.0,13.0,0.0
699,58.0,1.0,60.0,3.0,0.0
700,39.0,50.0,60.0,14.0,0.0
701,91.0,1.0,60.0,0.0,0.0
702,85.0,1.0,180.0,0.0,0.0
703,79.0,5.0,60.0,1.0,0.0
704,73.0,1.0,180.0,1.0,0.0
705,63.0,6.0,180.0,4.0,0.0
706,46.0,2.0,60.0,13.0,0.0
707,63.0,2.0,60.0,3.0,0.0
708,34.0,53.0,60.0,14.0,0.0
709,87.0,1.0,60.0,0.0,0.0
710,75.0,5.0,60.0,1.0,0.0
711,48.0,2.0,120.0,13.0,0.0
712,66.0,51.0,60.0,3.0,0.0
713,36.0,53.0,120.0,14.0,0.0
714,90.0,1.0,120.0,0.0,0.0
715,78.0,5.0,120.0,1.0,0.0
716,63.0,54.0,120.0,3.0,0.0
717,84.0,1.0,120.0,0.0,0.0
718,72.0,4.0,120.0,1.0,0.0
719,66.0,1.0,240.0,4.0,0.0
720,54.0,0.0,240.0,5.0,0.0
721,45.0,1.0,120.0,13.0,0.0
722,33.0,53.0,120.0,14.0,0.0
723,89.0,1.0,120.0,0.0,0.0
724,77.0,58.0,120.0,1.0,0.0
725,60.0,1.0,60.0,3.0,0.0
726,48.0,1.0,120.0,13.0,0.0
727,57.0,1.0,120.0,3.0,0.0
728,36.0,53.0,120.0,14.0,0.0
729,87.0,1.0,60.0,0.0,0.0
730,75.0,4.0,60.0,1.0,0.0
731,85.0,1.0,60.0,0.0,0.0
732,73.0,59.0,60.0,1.0,0.0
733,66.0,0.0,120.0,2.0,0.0
734,66.0,3.0,120.0,4.0,0.0
735,54.0,2.0,240.0,5.0,0.0
736,51.0,2.0,120.0,13.0,0.0
737,39.0,53.0,120.0,14.0,0.0
738,84.0,1.0,60.0,0.0,0.0
739,72.0,1.0,60.0,1.0,0.0
740,72.0,0.0,60.0,2.0,0.0
741,82.0,2.0,60.0,0.0,0.0
742,63.0,0.0,120.0,2.0,0.0
743,70.0,57.0,60.0,2.0,0.0
744,63.0,1.0,120.0,4.0,0.0
745,54.0,2.0,120.0,13.0,0.0
746,60.0,2.0,120.0,3.0,0.0
747,42.0,5.0,120.0,14.0,0.0
748,80.0,0.0,60.0,0.0,0.0
749,68.0,1.0,60.0,2.0,0.0
750,78.0,2.0,180.0,0.0,0.0
751,63.0,0.0,240.0,4.0,0.0
752,66.0,1.0,180.0,2.0,0.0
753,63.0,1.0,240.0,2.0,0.0
754,60.0,0.0,240.0,3.0,0.0
755,45.0,0.0,240.0,3.0,0.0
756,45.0,0.0,240.0,14.0,0.0
757,51.0,5.0,15.0,15.0,0.0
758,51.0,4.0,15.0,15.0,0.0
759,51.0,4.0,15.0,15.0,0.0
760,51.0,4.0,15.0,15.0,0.0
761,51.0,5.0,15.0,15.0,0.0
762,51.0,4.0,15.0,15.0,0.0
763,51.0,5.0,15.0,15.0,0.0
764,51.0,5.0,15.0,15.0,0.0
765,51.0,4.0,15.0,15.0,0.0
766,51.0,5.0,15.0,15.0,0.0
767,51.0,6.0,15.0,15.0,0.0
768,51.0,5.0,15.0,15.0,0.0
769,51.0,5.0,15.0,15.0,0.0
770,51.0,5.0,15.0,15.0,0.0
771,51.0,4.0,15.0,15.0,0.0
772,51.0,5.0,15.0,15.0,0.0
773,51.0,5.0,15.0,15.0,0.0
774,51.0,5.0,15.0,15.0,0.0
775,51.0,4.0,15.0,15.0,0.0
776,51.0,4.0,15.0,15.0,0.0
777,51.0,4.0,15.0,15.0,0.0
778,51.0,5.0,15.0,15.0,0.0
779,77.0,1.0,60.0,0.0,0.0
780,65.0,3.0,60.0,2.0,0.0
781,51.0,5.0,15.0,15.0,0.0
782,51.0,4.0,15.0,15.0,0.0
783,51.0,4.0,15.0,15.0,0.0
784,51.0,5.0,15.0,15.0,0.0
785,51.0,5.0,15.0,15.0,0.0
786,51.0,4.0,15.0,15.0,0.0
787,51.0,5.0,15.0,15.0,0.0
788,51.0,1.0,15.0,15.0,0.0
789,77.0,0.0,120.0,0.0,0.0
790,51.0,4.0,15.0,15.0,0.0
791,62.0,1.0,120.0,2.0,0.0
792,65.0,0.0,120.0,2.0,0.0
793,62.0,0.0,120.0,4.0,0.0
794,65.0,2.0,90.0,12.0,0.0
795,65.0,2.0,120.0,7.0,0.0
796,62.0,0.0,120.0,7.0,0.0
797,58.0,1.0,120.0,7.0,0.0
798,65.0,23.0,90.0,13.0,0.0
799,58.0,0.0,120.0,8.0,0.0
800,58.0,0.0,120.0,3.0,0.0
801,46.0,1.0,120.0,3.0,0.0
802,46.0,51.0,120.0,14.0,0.0
803,70.0,2.0,30.0,12.0,0.0
804,70.0,2.0,30.0,13.0,0.0
805,70.0,2.0,60.0,12.0,0.0
806,65.0,2.0,240.0,7.0,0.0
807,70.0,2.0,120.0,7.0,0.0
808,70.0,58.0,60.0,13.0,0.0
809,60.0,53.0,120.0,7.0,0.0
810,53.0,1.0,360.0,8.0,0.0
811,41.0,0.0,360.0,14.0,0.0
812,72.0,2.0,60.0,12.0,0.0
813,72.0,3.0,60.0,13.0,0.0
814,65.0,1.0,120.0,4.0,0.0
815,69.0,2.0,60.0,12.0,0.0
816,69.0,0.0,120.0,7.0,0.0
817,69.0,58.0,60.0,13.0,0.0
818,58.0,53.0,120.0,7.0,0.0
819,70.0,2.0,60.0,12.0,0.0
820,70.0,2.0,60.0,13.0,0.0
821,64.0,1.0,120.0,4.0,0.0
822,67.0,2.0,60.0,12.0,0.0
823,61.0,2.0,120.0,7.0,0.0
824,67.0,0.0,120.0,7.0,0.0
825,67.0,58.0,60.0,13.0,0.0
826,56.0,86.0,120.0,7.0,0.0
827,69.0,2.0,60.0,12.0,0.0
828,69.0,1.0,60.0,13.0,0.0
829,81.0,0.0,120.0,0.0,0.0
830,84.0,0.0,120.0,0.0,0.0
831,65.0,2.0,90.0,11.0,0.0
832,65.0,0.0,120.0,4.0,0.0
833,72.0,0.0,120.0,2.0,0.0
834,69.0,1.0,120.0,2.0,0.0
835,65.0,23.0,90.0,12.0,0.0
836,60.0,2.0,120.0,7.0,0.0
837,65.0,0.0,120.0,7.0,0.0
838,65.0,0.0,120.0,13.0,0.0
839,55.0,1.0,120.0,7.0,0.0
840,53.0,53.0,120.0,3.0,0.0
841,53.0,1.0,120.0,8.0,0.0
842,41.0,0.0,120.0,14.0,0.0
843,75.0,2.0,30.0,11.0,0.0
844,75.0,0.0,30.0,12.0,0.0
845,82.0,2.0,240.0,0.0,0.0
846,87.0,2.0,120.0,0.0,0.0
847,75.0,2.0,60.0,11.0,0.0
848,70.0,0.0,240.0,2.0,0.0
849,67.0,0.0,120.0,4.0,0.0
850,75.0,1.0,120.0,2.0,0.0
851,58.0,0.0,240.0,5.0,0.0
852,63.0,0.0,120.0,7.0,0.0
853,75.0,58.0,60.0,12.0,0.0
854,67.0,53.0,120.0,7.0,0.0
855,55.0,51.0,240.0,7.0,0.0
856,41.0,1.0,360.0,13.0,0.0
857,53.0,1.0,360.0,8.0,0.0
858,53.0,0.0,360.0,3.0,0.0
859,41.0,0.0,360.0,3.0,0.0
860,41.0,0.0,360.0,14.0,0.0
861,77.0,2.0,60.0,11.0,0.0
862,77.0,2.0,60.0,12.0,0.0
863,86.0,0.0,120.0,0.0,0.0
864,74.0,2.0,60.0,11.0,0.0
865,65.0,1.0,120.0,4.0,0.0
866,74.0,0.0,120.0,2.0,0.0
867,65.0,2.0,120.0,7.0,0.0
868,74.0,58.0,60.0,12.0,0.0
869,62.0,0.0,120.0,7.0,0.0
870,75.0,2.0,60.0,11.0,0.0
871,75.0,2.0,60.0,12.0,0.0
872,84.0,0.0,120.0,0.0,0.0
873,81.0,1.0,120.0,0.0,0.0
874,72.0,2.0,60.0,11.0,0.0
875,63.0,1.0,120.0,4.0,0.0
876,69.0,0.0,120.0,2.0,0.0
877,72.0,0.0,120.0,2.0,0.0
878,72.0,58.0,60.0,12.0,0.0
879,60.0,0.0,120.0,7.0,0.0
880,63.0,0.0,120.0,7.0,0.0
881,57.0,2.0,120.0,5.0,0.0
882,53.0,53.0,120.0,7.0,0.0
883,74.0,1.0,60.0,11.0,0.0
884,74.0,2.0,60.0,12.0,0.0
885,82.0,1.0,90.0,10.0,0.0
886,82.0,2.0,120.0,0.0,0.0
887,70.0,24.0,90.0,11.0,0.0
888,86.0,0.0,120.0,1.0,0.0
889,62.0,0.0,120.0,4.0,0.0
890,70.0,1.0,120.0,2.0,0.0
891,58.0,3.0,120.0,5.0,0.0
892,62.0,0.0,60.0,12.0,0.0
893,70.0,32.0,60.0,12.0,0.0
894,62.0,2.0,180.0,7.0,0.0
895,42.0,1.0,120.0,13.0,0.0
896,58.0,0.0,180.0,7.0,0.0
897,54.0,49.0,120.0,8.0,0.0
898,42.0,0.0,120.0,3.0,0.0
899,54.0,0.0,120.0,3.0,0.0
900,42.0,1.0,120.0,14.0,0.0
901,86.0,0.0,60.0,0.0,0.0
902,74.0,0.0,120.0,12.0,0.0
903,70.0,1.0,120.0,12.0,0.0
904,94.0,1.0,30.0,10.0,0.0
905,82.0,1.0,30.0,11.0,0.0
906,94.0,1.0,60.0,0.0,0.0
907,86.0,0.0,60.0,0.0,0.0
908,94.0,1.0,60.0,10.0,0.0
909,82.0,1.0,60.0,11.0,0.0
910,91.0,0.0,60.0,1.0,0.0
911,82.0,1.0,15.0,1.0,0.0
912,74.0,0.0,60.0,2.0,0.0
913,70.0,1.0,60.0,2.0,0.0
914,70.0,0.0,60.0,4.0,0.0
915,60.0,0.0,60.0,5.0,0.0
916,43.0,2.0,60.0,13.0,0.0
917,55.0,49.0,60.0,8.0,0.0
918,55.0,0.0,60.0,3.0,0.0
919,43.0,0.0,60.0,3.0,0.0
920,43.0,1.0,60.0,14.0,0.0
921,91.0,0.0,120.0,0.0,0.0
922,96.0,1.0,60.0,10.0,0.0
923,94.0,1.0,120.0,0.0,0.0
924,82.0,1.0,120.0,1.0,0.0
925,91.0,0.0,120.0,1.0,0.0
926,84.0,9.0,60.0,11.0,0.0
927,70.0,0.0,120.0,2.0,0.0
928,79.0,1.0,120.0,2.0,0.0
929,70.0,1.0,120.0,4.0,0.0
930,72.0,0.0,120.0,12.0,0.0
931,70.0,0.0,120.0,12.0,0.0
932,67.0,2.0,120.0,5.0,0.0
933,40.0,1.0,60.0,13.0,0.0
934,40.0,0.0,60.0,3.0,0.0
935,52.0,1.0,60.0,3.0,0.0
936,40.0,45.0,60.0,14.0,0.0
937,94.0,1.0,60.0,10.0,0.0
938,82.0,1.0,60.0,11.0,0.0
939,42.0,2.0,60.0,13.0,0.0
940,53.0,52.0,60.0,3.0,0.0
941,41.0,0.0,60.0,3.0,0.0
942,42.0,1.0,60.0,14.0,0.0
943,96.0,1.0,60.0,10.0,0.0
944,94.0,1.0,120.0,0.0,0.0
945,89.0,0.0,120.0,0.0,0.0
946,82.0,0.0,120.0,1.0,0.0
947,89.0,1.0,120.0,1.0,0.0
948,84.0,9.0,60.0,11.0,0.0
949,70.0,1.0,120.0,2.0,0.0
950,77.0,0.0,120.0,2.0,0.0
951,70.0,1.0,120.0,4.0,0.0
952,70.0,0.0,120.0,12.0,0.0
953,72.0,0.0,120.0,12.0,0.0
954,65.0,57.0,120.0,5.0,0.0
955,42.0,1.0,60.0,13.0,0.0
956,53.0,0.0,60.0,3.0,0.0
957,41.0,1.0,60.0,3.0,0.0
958,42.0,45.0,60.0,14.0,0.0
959,94.0,1.0,60.0,10.0,0.0
960,82.0,1.0,60.0,11.0,0.0
961,43.0,2.0,120.0,13.0,0.0
962,43.0,0.0,120.0,3.0,0.0
963,55.0,52.0,120.0,3.0,0.0
964,43.0,1.0,120.0,14.0,0.0
965,89.0,0.0,120.0,0.0,0.0
966,94.0,1.0,120.0,0.0,0.0
967,96.0,1.0,60.0,10.0,0.0
968,82.0,1.0,120.0,1.0,0.0
969,84.0,4.0,60.0,11.0,0.0
970,89.0,0.0,120.0,1.0,0.0
971,70.0,0.0,120.0,2.0,0.0
972,77.0,1.0,120.0,2.0,0.0
973,70.0,0.0,120.0,4.0,0.0
974,67.0,32.0,120.0,12.0,0.0
975,70.0,0.0,120.0,12.0,0.0
976,65.0,0.0,120.0,5.0,0.0
977,98.0,1.0,90.0,10.0,0.0
978,86.0,24.0,90.0,11.0,0.0
979,48.0,2.0,120.0,13.0,0.0
980,48.0,0.0,120.0,3.0,0.0
981,36.0,1.0,120.0,14.0,0.0
982,88.0,1.0,60.0,0.0,0.0
983,91.0,0.0,60.0,0.0,0.0
984,88.0,0.0,60.0,1.0,0.0
985,79.0,0.0,60.0,1.0,0.0
986,67.0,0.0,60.0,4.0,0.0
987,67.0,0.0,60.0,2.0,0.0
988,76.0,1.0,60.0,2.0,0.0
989,64.0,27.0,60.0,5.0,0.0
990,60.0,1.0,60.0,12.0,0.0
991,67.0,0.0,60.0,12.0,0.0
992,94.0,1.0,30.0,10.0,0.0
993,82.0,1.0,30.0,11.0,0.0
994,85.0,0.0,240.0,0.0,0.0
995,94.0,1.0,120.0,10.0,0.0
996,94.0,1.0,240.0,0.0,0.0
997,76.0,29.0,180.0,1.0,0.0
998,82.0,4.0,120.0,11.0,0.0
999,85.0,1.0,240.0,1.0,0.0
1000,64.0,0.0,240.0,4.0,0.0
1001,73.0,0.0,240.0,2.0,0.0
1002,70.0,4.0,240.0,2.0,0.0
1003,64.0,2.0,240.0,12.0,0.0
1004,41.0,30.0,30.0,13.0,0.0
1005,58.0,22.0,240.0,3.0,0.0
1006,61.0,0.0,240.0,3.0,0.0
1007,41.0,26.0,360.0,14.0,0.0
1008,43.0,30.0,30.0,13.0,0.0
1009,46.0,25.0,30.0,13.0,0.0
1010,49.0,30.0,30.0,13.0,0.0
1011,93.0,1.0,60.0,10.0,0.0
1012,81.0,4.0,60.0,11.0,0.0
1013,52.0,25.0,30.0,13.0,0.0
1014,55.0,1.0,30.0,13.0,0.0
1015,91.0,1.0,60.0,10.0,0.0
1016,82.0,0.0,60.0,1.0,0.0
1017,79.0,2.0,60.0,11.0,0.0
1018,58.0,25.0,30.0,13.0,0.0
1019,61.0,0.0,30.0,13.0,0.0
1020,84.0,1.0,120.0,0.0,0.0
1021,91.0,1.0,60.0,10.0,0.0
1022,93.0,0.0,120.0,0.0,0.0
1023,79.0,27.0,60.0,11.0,0.0
1024,81.0,1.0,120.0,1.0,0.0
1025,84.0,0.0,120.0,1.0,0.0
1026,69.0,0.0,240.0,2.0,0.0
1027,72.0,4.0,240.0,2.0,0.0
1028,65.0,0.0,120.0,4.0,0.0
1029,53.0,30.0,30.0,12.0,0.0
1030,53.0,0.0,120.0,13.0,0.0
1031,60.0,0.0,240.0,3.0,0.0
1032,57.0,34.0,240.0,3.0,0.0
1033,57.0,2.0,30.0,12.0,0.0
1034,89.0,0.0,60.0,10.0,0.0
1035,77.0,0.0,60.0,11.0,0.0
1036,60.0,30.0,30.0,12.0,0.0
1037,65.0,2.0,30.0,12.0,0.0
1038,69.0,30.0,30.0,12.0,0.0
1039,53.0,2.0,120.0,13.0,0.0
1040,41.0,0.0,120.0,14.0,0.0
1041,72.0,30.0,30.0,12.0,0.0
1042,77.0,3.0,60.0,10.0,0.0
1043,77.0,27.0,30.0,12.0,0.0
1044,65.0,2.0,30.0,12.0,0.0
1045,82.0,5.0,120.0,10.0,0.0
1046,76.0,36.0,240.0,2.0,0.0
1047,73.0,0.0,240.0,2.0,0.0
1048,41.0,40.0,40.0,13.0,0.0
1049,41.0,0.0,240.0,14.0,0.0
1050,46.0,35.0,40.0,13.0,0.0
1051,49.0,40.0,40.0,13.0,0.0
1052,81.0,25.0,60.0,10.0,0.0
1053,53.0,15.0,40.0,13.0,0.0
1054,58.0,35.0,40.0,13.0,0.0
1055,79.0,5.0,60.0,10.0,0.0
1056,61.0,2.0,40.0,13.0,0.0
1057,78.0,18.0,60.0,10.0,0.0
1058,72.0,4.0,180.0,2.0,0.0
1059,75.0,0.0,180.0,2.0,0.0
1060,53.0,22.0,40.0,12.0,0.0
1061,53.0,33.0,120.0,13.0,0.0
1062,69.0,12.0,180.0,3.0,0.0
1063,41.0,3.0,120.0,14.0,0.0
1064,57.0,40.0,40.0,12.0,0.0
1065,77.0,2.0,60.0,10.0,0.0
1066,60.0,2.0,40.0,12.0,0.0
1067,75.0,2.0,60.0,10.0,0.0
1068,65.0,22.0,40.0,12.0,0.0
1069,69.0,35.0,40.0,12.0,0.0
1070,74.0,2.0,60.0,10.0,0.0
1071,86.0,1.0,180.0,0.0,0.0
1072,74.0,9.0,180.0,1.0,0.0
1073,70.0,4.0,60.0,2.0,0.0
1074,74.0,0.0,60.0,2.0,0.0
1075,70.0,114.0,60.0,3.0,0.0
1076,70.0,2.0,30.0,12.0,0.0
1077,74.0,113.0,540.0,2.0,0.0
1078,70.0,4.0,720.0,2.0,0.0
1079,58.0,180.0,120.0,13.0,0.0
1080,70.0,0.0,360.0,3.0,0.0
1081,89.0,0.0,360.0,0.0,0.0
1082,77.0,0.0,360.0,1.0,0.0
1083,55.0,61.0,120.0,13.0,0.0
1084,67.0,109.0,180.0,3.0,0.0
1085,94.0,1.0,180.0,0.0,0.0
1086,82.0,9.0,180.0,1.0,0.0
1087,48.0,57.0,120.0,13.0,0.0
1088,60.0,56.0,360.0,3.0,0.0
1089,67.0,1.0,360.0,3.0,0.0
1090,87.0,1.0,180.0,0.0,0.0
1091,75.0,9.0,180.0,1.0,0.0
1092,72.0,0.0,240.0,2.0,0.0
1093,60.0,56.0,120.0,13.0,0.0
1094,96.0,1.0,180.0,0.0,0.0
1095,84.0,4.0,180.0,1.0,0.0
1096,87.0,1.0,360.0,0.0,0.0
1097,75.0,10.0,360.0,1.0,0.0
1098,69.0,58.0,60.0,2.0,0.0
1099,41.0,1.0,120.0,13.0,0.0
1100,69.0,54.0,120.0,3.0,0.0
1101,53.0,49.0,240.0,3.0,0.0
1102,94.0,1.0,60.0,0.0,0.0
1103,82.0,5.0,60.0,1.0,0.0
1104,70.0,60.0,60.0,3.0,0.0
1105,93.0,1.0,120.0,0.0,0.0
1106,81.0,59.0,120.0,1.0,0.0
1107,72.0,114.0,180.0,3.0,0.0
1108,91.0,1.0,180.0,0.0,0.0
1109,79.0,4.0,180.0,1.0,0.0
1110,85.0,0.0,240.0,0.0,0.0
1111,73.0,0.0,240.0,1.0,0.0
1112,70.0,4.0,240.0,4.0,0.0
1113,53.0,1.0,120.0,13.0,0.0
1114,64.0,49.0,120.0,3.0,0.0
1115,89.0,1.0,60.0,0.0,0.0
1116,77.0,10.0,60.0,1.0,0.0
1117,65.0,54.0,60.0,3.0,0.0
1118,88.0,1.0,60.0,0.0,0.0
1119,76.0,1.0,60.0,1.0,0.0
1120,67.0,54.0,60.0,3.0,0.0
1121,87.0,1.0,60.0,0.0,0.0
1122,84.0,0.0,60.0,0.0,0.0
1123,72.0,0.0,60.0,1.0,0.0
1124,75.0,5.0,60.0,1.0,0.0
1125,69.0,49.0,60.0,3.0,0.0
1126,86.0,0.0,60.0,0.0,0.0
1127,82.0,1.0,60.0,0.0,0.0
1128,70.0,0.0,60.0,1.0,0.0
1129,74.0,5.0,60.0,1.0,0.0
1130,70.0,8.0,180.0,2.0,0.0
1131,74.0,0.0,180.0,2.0,0.0
1132,70.0,116.0,60.0,3.0,0.0
1133,70.0,115.0,360.0,4.0,0.0
1134,58.0,61.0,120.0,13.0,0.0
1135,58.0,111.0,180.0,3.0,0.0
1136,77.0,8.0,180.0,2.0,0.0
1137,74.0,0.0,180.0,2.0,0.0
1138,55.0,57.0,120.0,13.0,0.0
1139,55.0,111.0,360.0,3.0,0.0
1140,86.0,0.0,180.0,2.0,0.0
1141,82.0,8.0,180.0,2.0,0.0
1142,64.0,115.0,360.0,4.0,0.0
1143,48.0,61.0,120.0,13.0,0.0
1144,84.0,0.0,180.0,2.0,0.0
1145,81.0,8.0,180.0,2.0,0.0
1146,60.0,52.0,120.0,13.0,0.0
1147,60.0,1.0,180.0,3.0,0.0
1148,82.0,8.0,180.0,2.0,0.0
1149,79.0,4.0,60.0,2.0,0.0
1150,76.0,0.0,120.0,2.0,0.0
1151,61.0,1.0,120.0,13.0,0.0
1152,61.0,56.0,180.0,3.0,0.0
1153,67.0,55.0,120.0,3.0,0.0
1154,77.0,0.0,60.0,2.0,0.0
1155,81.0,4.0,60.0,2.0,0.0
1156,69.0,1.0,60.0,3.0,0.0
1157,76.0,0.0,60.0,2.0,0.0
1158,79.0,4.0,60.0,2.0,0.0
1159,62.0,56.0,120.0,13.0,0.0
1160,70.0,51.0,60.0,3.0,0.0
1161,62.0,0.0,120.0,3.0,0.0
1162,77.0,4.0,60.0,2.0,0.0
1163,74.0,0.0,60.0,2.0,0.0
1164,69.0,4.0,60.0,3.0,0.0
1165,74.0,4.0,60.0,1.0,0.0
1166,82.0,3.0,180.0,2.0,0.0
1167,58.0,1.0,60.0,13.0,0.0
1168,67.0,55.0,180.0,3.0,0.0
1169,58.0,115.0,60.0,3.0,0.0
1170,75.0,1.0,120.0,1.0,0.0
1171,60.0,1.0,120.0,13.0,0.0
1172,60.0,55.0,180.0,3.0,0.0
1173,72.0,1.0,60.0,1.0,0.0
1174,76.0,1.0,120.0,1.0,0.0
1175,81.0,3.0,60.0,2.0,0.0
1176,48.0,1.0,60.0,13.0,0.0
1177,69.0,0.0,60.0,3.0,0.0
1178,73.0,0.0,60.0,1.0,0.0
1179,79.0,4.0,60.0,2.0,0.0
1180,53.0,170.0,120.0,13.0,0.0
1181,70.0,50.0,60.0,3.0,0.0
1182,53.0,4.0,120.0,3.0,0.0
1183,72.0,1.0,60.0,1.0,0.0
1184,77.0,0.0,60.0,1.0,0.0
1185,77.0,4.0,60.0,2.0,0.0
1186,69.0,0.0,60.0,3.0,0.0
1187,78.0,10.0,180.0,10.0,0.0
1188,72.0,2.0,180.0,11.0,0.0
1189,69.0,112.0,180.0,12.0,0.0
1190,63.0,56.0,120.0,13.0,0.0
1191,79.0,10.0,180.0,10.0,0.0
1192,79.0,4.0,300.0,1.0,0.0
1193,75.0,2.0,360.0,11.0,0.0
1194,70.0,112.0,360.0,12.0,0.0
1195,60.0,170.0,120.0,13.0,0.0
1196,84.0,6.0,180.0,10.0,0.0
1197,53.0,56.0,120.0,13.0,0.0
1198,77.0,10.0,180.0,10.0,0.0
1199,77.0,0.0,60.0,1.0,0.0
1200,72.0,2.0,180.0,11.0,0.0
1201,69.0,117.0,180.0,12.0,0.0
1202,65.0,51.0,120.0,13.0,0.0
1203,78.0,10.0,180.0,10.0,0.0
1204,78.0,2.0,180.0,11.0,0.0
1205,70.0,112.0,180.0,12.0,0.0
1206,63.0,56.0,120.0,13.0,0.0
1207,82.0,10.0,180.0,10.0,0.0
1208,94.0,1.0,300.0,0.0,0.0
1209,82.0,4.0,300.0,1.0,0.0
1210,75.0,2.0,360.0,11.0,0.0
1211,66.0,112.0,360.0,12.0,0.0
1212,61.0,170.0,120.0,13.0,0.0
1213,87.0,5.0,180.0,10.0,0.0
1214,60.0,55.0,120.0,13.0,0.0
1215,80.0,10.0,180.0,10.0,0.0
1216,92.0,1.0,60.0,0.0,0.0
1217,80.0,0.0,60.0,1.0,0.0
1218,72.0,2.0,180.0,11.0,0.0
1219,68.0,122.0,180.0,12.0,0.0
1220,66.0,51.0,120.0,13.0,0.0
1221,92.0,2.0,180.0,10.0,0.0
1222,80.0,3.0,180.0,2.0,0.0
1223,73.0,1.0,300.0,11.0,0.0
1224,71.0,2.0,300.0,12.0,0.0
1225,65.0,50.0,120.0,13.0,0.0
1226,90.0,7.0,60.0,10.0,0.0
1227,78.0,3.0,60.0,2.0,0.0
1228,66.0,111.0,60.0,13.0,0.0
1229,89.0,0.0,120.0,10.0,0.0
1230,77.0,1.0,120.0,2.0,0.0
1231,68.0,61.0,120.0,13.0,0.0
1232,92.0,2.0,180.0,10.0,0.0
1233,73.0,4.0,60.0,11.0,0.0
1234,80.0,3.0,180.0,2.0,0.0
1235,71.0,2.0,300.0,12.0,0.0
1236,66.0,115.0,60.0,13.0,0.0
1237,74.0,1.0,240.0,11.0,0.0
1238,65.0,52.0,120.0,13.0,0.0
1239,90.0,60.0,60.0,10.0,0.0
1240,78.0,3.0,60.0,2.0,0.0
1241,66.0,0.0,60.0,13.0,0.0
1242,89.0,1.0,60.0,10.0,0.0
1243,77.0,1.0,60.0,2.0,0.0
1244,68.0,55.0,60.0,13.0,0.0
1245,87.0,2.0,60.0,10.0,0.0
1246,78.0,1.0,120.0,11.0,0.0
1247,75.0,1.0,60.0,2.0,0.0
1248,72.0,2.0,60.0,12.0,0.0
1249,69.0,50.0,60.0,13.0,0.0
1250,85.0,1.0,60.0,10.0,0.0
1251,85.0,2.0,180.0,0.0,0.0
1252,73.0,1.0,60.0,2.0,0.0
1253,73.0,1.0,180.0,4.0,0.0
1254,73.0,2.0,60.0,12.0,0.0
1255,70.0,120.0,60.0,13.0,0.0
1256,76.0,1.0,300.0,2.0,0.0
1257,58.0,3.0,120.0,12.0,0.0
1258,66.0,0.0,300.0,5.0,0.0
1259,64.0,0.0,300.0,3.0,0.0
1260,58.0,54.0,120.0,3.0,0.0
1261,83.0,2.0,60.0,0.0,0.0
1262,71.0,1.0,60.0,4.0,0.0
1263,59.0,3.0,60.0,12.0,0.0
1264,59.0,114.0,60.0,3.0,0.0
1265,82.0,2.0,120.0,0.0,0.0
1266,70.0,0.0,120.0,4.0,0.0
1267,61.0,3.0,120.0,12.0,0.0
1268,61.0,52.0,120.0,3.0,0.0
1269,73.0,3.0,180.0,10.0,0.0
1270,64.0,2.0,360.0,11.0,0.0
1271,59.0,7.0,60.0,12.0,0.0
1272,54.0,115.0,60.0,13.0,0.0
1273,58.0,60.0,120.0,12.0,0.0
1274,55.0,55.0,180.0,13.0,0.0
1275,71.0,60.0,120.0,10.0,0.0
1276,59.0,2.0,60.0,12.0,0.0
1277,61.0,2.0,120.0,12.0,0.0
1278,54.0,50.0,120.0,13.0,0.0
1279,70.0,1.0,60.0,10.0,0.0
1280,86.0,1.0,180.0,0.0,0.0
1281,65.0,2.0,60.0,11.0,0.0
1282,74.0,69.0,180.0,1.0,0.0
1283,62.0,9.0,60.0,12.0,0.0
1284,53.0,1.0,60.0,13.0,0.0
1285,53.0,58.0,60.0,14.0,0.0
1286,70.0,3.0,360.0,2.0,0.0
1287,74.0,1.0,480.0,2.0,0.0
1288,62.0,2.0,60.0,13.0,0.0
1289,58.0,1.0,360.0,3.0,0.0
1290,62.0,60.0,480.0,3.0,0.0
1291,50.0,48.0,60.0,14.0,0.0
1292,89.0,1.0,180.0,0.0,0.0
1293,77.0,4.0,180.0,1.0,0.0
1294,58.0,2.0,60.0,13.0,0.0
1295,46.0,58.0,60.0,14.0,0.0
1296,77.0,1.0,120.0,10.0,0.0
1297,70.0,6.0,120.0,11.0,0.0
1298,55.0,2.0,60.0,13.0,0.0
1299,62.0,55.0,120.0,12.0,0.0
1300,43.0,48.0,60.0,14.0,0.0
1301,94.0,1.0,180.0,0.0,0.0
1302,82.0,4.0,180.0,1.0,0.0
1303,48.0,1.0,60.0,13.0,0.0
1304,36.0,58.0,60.0,14.0,0.0
1305,77.0,1.0,120.0,10.0,0.0
1306,70.0,1.0,120.0,11.0,0.0
1307,67.0,4.0,360.0,2.0,0.0
1308,62.0,3.0,120.0,12.0,0.0
1309,60.0,2.0,60.0,13.0,0.0
1310,55.0,0.0,180.0,3.0,0.0
1311,48.0,48.0,60.0,14.0,0.0
1312,87.0,1.0,180.0,0.0,0.0
1313,75.0,4.0,180.0,1.0,0.0
1314,75.0,1.0,180.0,2.0,0.0
1315,63.0,59.0,60.0,3.0,0.0
1316,75.0,1.0,120.0,10.0,0.0
1317,67.0,1.0,120.0,11.0,0.0
1318,60.0,54.0,120.0,12.0,0.0
1319,60.0,50.0,60.0,13.0,0.0
1320,60.0,4.0,180.0,3.0,0.0
1321,88.0,1.0,180.0,0.0,0.0
1322,76.0,69.0,180.0,1.0,0.0
1323,72.0,0.0,60.0,2.0,0.0
1324,58.0,2.0,60.0,13.0,0.0
1325,46.0,58.0,60.0,14.0,0.0
1326,70.0,59.0,540.0,2.0,0.0
1327,72.0,3.0,360.0,2.0,0.0
1328,55.0,2.0,60.0,13.0,0.0
1329,60.0,1.0,360.0,3.0,0.0
1330,58.0,56.0,480.0,3.0,0.0
1331,43.0,48.0,60.0,14.0,0.0
1332,91.0,1.0,180.0,0.0,0.0
1333,79.0,4.0,180.0,1.0,0.0
1334,52.0,2.0,60.0,13.0,0.0
1335,40.0,58.0,60.0,14.0,0.0
1336,76.0,1.0,120.0,10.0,0.0
1337,79.0,2.0,120.0,11.0,0.0
1338,72.0,59.0,120.0,12.0,0.0
1339,48.0,2.0,60.0,13.0,0.0
1340,36.0,48.0,60.0,14.0,0.0
1341,96.0,1.0,180.0,0.0,0.0
1342,84.0,4.0,180.0,1.0,0.0
1343,41.0,1.0,60.0,13.0,0.0
1344,41.0,58.0,60.0,14.0,0.0
1345,75.0,1.0,120.0,10.0,0.0
1346,79.0,2.0,120.0,11.0,0.0
1347,75.0,4.0,300.0,2.0,0.0
1348,72.0,3.0,120.0,12.0,0.0
1349,53.0,2.0,60.0,13.0,0.0
1350,63.0,51.0,300.0,3.0,0.0
1351,41.0,48.0,60.0,14.0,0.0
1352,89.0,1.0,180.0,0.0,0.0
1353,77.0,4.0,180.0,1.0,0.0
1354,89.0,2.0,120.0,10.0,0.0
1355,77.0,2.0,60.0,11.0,0.0
1356,69.0,0.0,120.0,2.0,0.0
1357,72.0,2.0,60.0,12.0,0.0
1358,53.0,50.0,60.0,13.0,0.0
1359,57.0,0.0,120.0,3.0,0.0
1360,89.0,1.0,180.0,0.0,0.0
1361,101.0,0.0,180.0,10.0,0.0
1362,92.0,0.0,180.0,0.0,0.0
1363,89.0,0.0,180.0,1.0,0.0
1364,89.0,0.0,180.0,11.0,0.0
1365,74.0,3.0,60.0,2.0,0.0
1366,58.0,1.0,180.0,4.0,0.0
1367,70.0,0.0,60.0,2.0,0.0
1368,80.0,2.0,180.0,12.0,0.0
1369,46.0,2.0,180.0,5.0,0.0
1370,58.0,1.0,60.0,13.0,0.0
1371,58.0,0.0,60.0,3.0,0.0
1372,62.0,0.0,60.0,3.0,0.0
1373,46.0,115.0,60.0,14.0,0.0
1374,80.0,1.0,15.0,1.0,0.0
1375,68.0,1.0,120.0,2.0,0.0
1376,77.0,0.0,120.0,2.0,0.0
1377,50.0,1.0,120.0,13.0,0.0
1378,50.0,0.0,120.0,3.0,0.0
1379,62.0,54.0,120.0,3.0,0.0
1380,34.0,1.0,720.0,14.0,0.0
1381,99.0,0.0,60.0,10.0,0.0
1382,91.0,0.0,60.0,0.0,0.0
1383,87.0,1.0,60.0,0.0,0.0
1384,87.0,0.0,60.0,11.0,0.0
1385,79.0,1.0,60.0,1.0,0.0
1386,87.0,0.0,60.0,1.0,0.0
1387,58.0,1.0,180.0,4.0,0.0
1388,75.0,1.0,60.0,2.0,0.0
1389,68.0,0.0,60.0,2.0,0.0
1390,46.0,2.0,180.0,5.0,0.0
1391,79.0,2.0,60.0,12.0,0.0
1392,51.0,1.0,60.0,13.0,0.0
1393,63.0,0.0,60.0,3.0,0.0
1394,51.0,111.0,60.0,3.0,0.0
1395,92.0,1.0,120.0,0.0,0.0
1396,86.0,0.0,120.0,0.0,0.0
1397,98.0,0.0,120.0,10.0,0.0
1398,80.0,1.0,120.0,1.0,0.0
1399,86.0,0.0,120.0,11.0,0.0
1400,86.0,0.0,120.0,1.0,0.0
1401,74.0,1.0,120.0,2.0,0.0
1402,68.0,0.0,120.0,2.0,0.0
1403,77.0,2.0,120.0,12.0,0.0
1404,53.0,1.0,120.0,13.0,0.0
1405,65.0,54.0,120.0,3.0,0.0
1406,53.0,0.0,120.0,3.0,0.0
1407,93.0,0.0,60.0,0.0,0.0
1408,87.0,0.0,180.0,0.0,0.0
1409,96.0,1.0,60.0,10.0,0.0
1410,84.0,0.0,60.0,11.0,0.0
1411,81.0,0.0,60.0,1.0,0.0
1412,84.0,1.0,60.0,1.0,0.0
1413,58.0,1.0,180.0,4.0,0.0
1414,75.0,1.0,180.0,2.0,0.0
1415,69.0,3.0,60.0,2.0,0.0
1416,75.0,2.0,180.0,12.0,0.0
1417,46.0,2.0,180.0,5.0,0.0
1418,54.0,1.0,60.0,13.0,0.0
1419,66.0,55.0,60.0,3.0,0.0
1420,54.0,0.0,60.0,3.0,0.0
1421,94.0,0.0,120.0,0.0,0.0
1422,94.0,1.0,120.0,10.0,0.0
1423,82.0,1.0,120.0,11.0,0.0
1424,82.0,56.0,60.0,1.0,0.0
1425,70.0,0.0,120.0,2.0,0.0
1426,55.0,1.0,120.0,13.0,0.0
1427,67.0,54.0,120.0,3.0,0.0
1428,55.0,0.0,120.0,3.0,0.0
1429,75.0,0.0,60.0,1.0,0.0
1430,92.0,0.0,60.0,0.0,0.0
1431,89.0,1.0,60.0,0.0,0.0
1432,92.0,0.0,60.0,10.0,0.0
1433,77.0,0.0,60.0,1.0,0.0
1434,80.0,0.0,60.0,1.0,0.0
1435,80.0,1.0,60.0,11.0,0.0
1436,58.0,1.0,180.0,4.0,0.0
1437,77.0,1.0,60.0,2.0,0.0
1438,68.0,0.0,60.0,2.0,0.0
1439,77.0,2.0,60.0,12.0,0.0
1440,46.0,2.0,180.0,5.0,0.0
1441,56.0,1.0,60.0,13.0,0.0
1442,56.0,111.0,60.0,3.0,0.0
1443,87.0,0.0,120.0,0.0,0.0
1444,91.0,0.0,120.0,10.0,0.0
1445,91.0,1.0,120.0,0.0,0.0
1446,79.0,0.0,120.0,1.0,0.0
1447,75.0,0.0,120.0,1.0,0.0
1448,79.0,1.0,120.0,11.0,0.0
1449,67.0,0.0,120.0,2.0,0.0
1450,75.0,1.0,120.0,2.0,0.0
1451,75.0,2.0,120.0,12.0,0.0
1452,58.0,1.0,120.0,13.0,0.0
1453,58.0,49.0,120.0,3.0,0.0
1454,89.0,1.0,60.0,0.0,0.0
1455,89.0,1.0,60.0,10.0,0.0
1456,85.0,0.0,60.0,0.0,0.0
1457,77.0,1.0,60.0,1.0,0.0
1458,73.0,0.0,60.0,1.0,0.0
1459,77.0,1.0,60.0,11.0,0.0
1460,73.0,1.0,60.0,2.0,0.0
1461,68.0,0.0,60.0,2.0,0.0
1462,58.0,0.0,60.0,4.0,0.0
1463,46.0,2.0,60.0,5.0,0.0
1464,73.0,2.0,60.0,12.0,0.0
1465,59.0,105.0,60.0,13.0,0.0
1466,59.0,0.0,60.0,3.0,0.0
1467,88.0,0.0,120.0,0.0,0.0
1468,88.0,1.0,120.0,10.0,0.0
1469,84.0,0.0,120.0,0.0,0.0
1470,72.0,1.0,120.0,1.0,0.0
1471,76.0,0.0,120.0,11.0,0.0
1472,76.0,0.0,120.0,1.0,0.0
1473,67.0,1.0,120.0,2.0,0.0
1474,72.0,0.0,120.0,2.0,0.0
1475,67.0,2.0,120.0,12.0,0.0
1476,60.0,1.0,120.0,13.0,0.0
1477,60.0,36.0,120.0,3.0,0.0
1478,46.0,108.0,540.0,14.0,0.0
1479,58.0,1.0,30.0,4.0,0.0
1480,46.0,137.0,30.0,5.0,0.0
1481,96.0,0.0,120.0,10.0,0.0
1482,87.0,0.0,120.0,0.0,0.0
1483,84.0,1.0,120.0,0.0,0.0
1484,72.0,1.0,120.0,1.0,0.0
1485,75.0,0.0,120.0,11.0,0.0
1486,84.0,0.0,120.0,11.0,0.0
1487,78.0,0.0,120.0,1.0,0.0
1488,75.0,0.0,120.0,2.0,0.0
1489,66.0,1.0,120.0,2.0,0.0
1490,66.0,2.0,120.0,12.0,0.0
1491,57.0,1.0,120.0,13.0,0.0
1492,57.0,36.0,120.0,3.0,0.0
1493,58.0,1.0,30.0,4.0,0.0
1494,46.0,137.0,30.0,5.0,0.0
1495,86.0,1.0,120.0,0.0,0.0
1496,82.0,0.0,120.0,0.0,0.0
1497,86.0,0.0,120.0,10.0,0.0
1498,74.0,1.0,120.0,1.0,0.0
1499,77.0,0.0,120.0,1.0,0.0
1500,74.0,0.0,120.0,11.0,0.0
1501,74.0,0.0,120.0,2.0,0.0
1502,65.0,1.0,120.0,2.0,0.0
1503,65.0,2.0,120.0,12.0,0.0
1504,58.0,1.0,120.0,13.0,0.0
1505,58.0,36.0,120.0,3.0,0.0
1506,58.0,1.0,30.0,4.0,0.0
1507,46.0,29.0,30.0,5.0,0.0
1508,94.0,1.0,120.0,10.0,0.0
1509,82.0,0.0,120.0,0.0,0.0
1510,85.0,0.0,120.0,0.0,0.0
1511,82.0,0.0,120.0,11.0,0.0
1512,79.0,0.0,120.0,1.0,0.0
1513,73.0,0.0,120.0,1.0,0.0
1514,73.0,1.0,120.0,11.0,0.0
1515,64.0,0.0,120.0,2.0,0.0
1516,73.0,1.0,120.0,2.0,0.0
1517,67.0,2.0,120.0,12.0,0.0
1518,52.0,1.0,120.0,13.0,0.0
1519,52.0,11.0,120.0,3.0,0.0
1520,40.0,31.0,120.0,14.0,0.0
1521,58.0,1.0,40.0,4.0,0.0
1522,46.0,261.0,40.0,5.0,0.0
1523,70.0,3.0,60.0,10.0,0.0
1524,65.0,2.0,120.0,11.0,0.0
1525,62.0,57.0,60.0,12.0,0.0
1526,53.0,0.0,180.0,13.0,0.0
1527,72.0,1.0,60.0,10.0,0.0
1528,60.0,57.0,60.0,12.0,0.0
1529,74.0,1.0,60.0,10.0,0.0
1530,65.0,62.0,60.0,11.0,0.0
1531,58.0,57.0,120.0,12.0,0.0
1532,75.0,1.0,120.0,10.0,0.0
1533,72.0,2.0,120.0,11.0,0.0
1534,53.0,1.0,180.0,13.0,0.0
1535,57.0,55.0,60.0,12.0,0.0
1536,74.0,1.0,120.0,10.0,0.0
1537,70.0,59.0,60.0,11.0,0.0
1538,58.0,2.0,60.0,12.0,0.0
1539,67.0,59.0,60.0,11.0,0.0
1540,63.0,57.0,120.0,12.0,0.0
1541,53.0,0.0,180.0,13.0,0.0
1542,72.0,1.0,60.0,10.0,0.0
1543,69.0,2.0,60.0,11.0,0.0
1544,74.0,3.0,60.0,10.0,0.0
1545,70.0,59.0,120.0,11.0,0.0
1546,62.0,58.0,60.0,12.0,0.0
1547,75.0,1.0,120.0,10.0,0.0
1548,60.0,55.0,120.0,12.0,0.0
1549,53.0,1.0,180.0,13.0,0.0
1550,69.0,2.0,60.0,11.0,0.0
1551,74.0,3.0,120.0,10.0,0.0
1552,70.0,59.0,60.0,11.0,0.0
1553,58.0,2.0,60.0,12.0,0.0
1554,70.0,2.0,120.0,11.0,0.0
1555,65.0,57.0,60.0,12.0,0.0
1556,58.0,53.0,120.0,13.0,0.0
1557,72.0,1.0,60.0,10.0,0.0
1558,62.0,2.0,60.0,12.0,0.0
1559,74.0,1.0,120.0,10.0,0.0
1560,65.0,59.0,60.0,11.0,0.0
1561,58.0,2.0,60.0,12.0,0.0
1562,56.0,1.0,60.0,13.0,0.0
1563,71.0,59.0,60.0,11.0,0.0
1564,67.0,57.0,120.0,12.0,0.0
1565,55.0,60.0,180.0,13.0,0.0
1566,72.0,1.0,60.0,10.0,0.0
1567,69.0,2.0,60.0,11.0,0.0
1568,74.0,1.0,120.0,10.0,0.0
1569,71.0,2.0,120.0,11.0,0.0
1570,65.0,57.0,120.0,12.0,0.0
1571,48.0,53.0,120.0,13.0,0.0
1572,75.0,1.0,60.0,10.0,0.0
1573,67.0,2.0,60.0,11.0,0.0
1574,63.0,2.0,60.0,12.0,0.0
1575,72.0,1.0,60.0,10.0,0.0
1576,72.0,2.0,60.0,11.0,0.0
1577,55.0,2.0,60.0,12.0,0.0
1578,51.0,58.0,60.0,13.0,0.0
1579,70.0,1.0,120.0,10.0,0.0
1580,63.0,4.0,60.0,11.0,0.0
1581,60.0,2.0,180.0,12.0,0.0
1582,54.0,55.0,60.0,13.0,0.0
1583,65.0,4.0,60.0,11.0,0.0
1584,53.0,50.0,60.0,13.0,0.0
1585,69.0,3.0,60.0,10.0,0.0
1586,66.0,59.0,60.0,11.0,0.0
1587,51.0,1.0,60.0,13.0,0.0
1588,70.0,0.0,60.0,10.0,0.0
1589,82.0,1.0,60.0,0.0,0.0
1590,65.0,1.0,60.0,11.0,0.0
1591,65.0,1.0,180.0,4.0,0.0
1592,82.0,3.0,60.0,2.0,0.0
1593,65.0,2.0,180.0,5.0,0.0
1594,53.0,0.0,180.0,12.0,0.0
1595,62.0,1.0,60.0,13.0,0.0
1596,62.0,0.0,60.0,3.0,0.0
1597,50.0,1.0,60.0,3.0,0.0
1598,50.0,53.0,60.0,14.0,0.0
1599,72.0,1.0,60.0,10.0,0.0
1600,81.0,0.0,60.0,0.0,0.0
1601,84.0,0.0,60.0,0.0,0.0
1602,69.0,1.0,60.0,11.0,0.0
1603,81.0,3.0,60.0,2.0,0.0
1604,84.0,0.0,60.0,2.0,0.0
1605,60.0,1.0,60.0,13.0,0.0
1606,48.0,0.0,60.0,3.0,0.0
1607,60.0,1.0,60.0,3.0,0.0
1608,48.0,50.0,60.0,14.0,0.0
1609,86.0,0.0,60.0,0.0,0.0
1610,74.0,1.0,60.0,10.0,0.0
1611,82.0,0.0,60.0,0.0,0.0
1612,70.0,1.0,60.0,11.0,0.0
1613,82.0,63.0,60.0,2.0,0.0
1614,86.0,0.0,60.0,2.0,0.0
1615,58.0,1.0,120.0,13.0,0.0
1616,58.0,1.0,120.0,3.0,0.0
1617,46.0,0.0,120.0,3.0,0.0
1618,46.0,53.0,120.0,14.0,0.0
1619,75.0,0.0,120.0,10.0,0.0
1620,87.0,1.0,120.0,0.0,0.0
1621,84.0,0.0,120.0,0.0,0.0
1622,72.0,1.0,120.0,11.0,0.0
1623,65.0,1.0,180.0,4.0,0.0
1624,87.0,0.0,120.0,2.0,0.0
1625,84.0,3.0,120.0,2.0,0.0
1626,53.0,2.0,180.0,12.0,0.0
1627,65.0,0.0,180.0,5.0,0.0
1628,57.0,1.0,60.0,13.0,0.0
1629,57.0,0.0,60.0,3.0,0.0
1630,45.0,1.0,60.0,3.0,0.0
1631,45.0,50.0,60.0,14.0,0.0
1632,86.0,0.0,120.0,0.0,0.0
1633,82.0,1.0,120.0,0.0,0.0
1634,74.0,0.0,120.0,10.0,0.0
1635,70.0,1.0,120.0,11.0,0.0
1636,82.0,0.0,120.0,2.0,0.0
1637,86.0,58.0,120.0,2.0,0.0
1638,58.0,2.0,60.0,13.0,0.0
1639,46.0,54.0,60.0,3.0,0.0
1640,58.0,0.0,60.0,3.0,0.0
1641,46.0,4.0,60.0,14.0,0.0
1642,65.0,0.0,180.0,4.0,0.0
1643,53.0,0.0,180.0,12.0,0.0
1644,65.0,0.0,180.0,12.0,0.0
1645,65.0,2.0,180.0,5.0,0.0
1646,63.0,1.0,120.0,13.0,0.0
1647,63.0,1.0,120.0,3.0,0.0
1648,51.0,0.0,120.0,3.0,0.0
1649,51.0,48.0,120.0,14.0,0.0
1650,84.0,0.0,60.0,0.0,0.0
1651,72.0,0.0,60.0,10.0,0.0
1652,81.0,1.0,60.0,0.0,0.0
1653,69.0,1.0,60.0,11.0,0.0
1654,81.0,0.0,60.0,2.0,0.0
1655,84.0,3.0,60.0,2.0,0.0
1656,74.0,5.0,60.0,10.0,0.0
1657,82.0,2.0,60.0,0.0,0.0
1658,86.0,0.0,60.0,0.0,0.0
1659,70.0,1.0,120.0,11.0,0.0
1660,82.0,0.0,60.0,2.0,0.0
1661,86.0,1.0,60.0,2.0,0.0
1662,62.0,1.0,60.0,13.0,0.0
1663,50.0,1.0,60.0,3.0,0.0
1664,62.0,0.0,60.0,3.0,0.0
1665,50.0,53.0,60.0,14.0,0.0
1666,75.0,0.0,120.0,10.0,0.0
1667,87.0,1.0,120.0,0.0,0.0
1668,82.0,1.0,60.0,0.0,0.0
1669,65.0,1.0,180.0,4.0,0.0
1670,82.0,3.0,60.0,2.0,0.0
1671,87.0,3.0,120.0,2.0,0.0
1672,53.0,0.0,180.0,12.0,0.0
1673,65.0,0.0,180.0,12.0,0.0
1674,65.0,2.0,180.0,5.0,0.0
1675,60.0,1.0,60.0,13.0,0.0
1676,48.0,1.0,60.0,3.0,0.0
1677,60.0,0.0,60.0,3.0,0.0
1678,48.0,53.0,60.0,14.0,0.0
1679,81.0,0.0,60.0,0.0,0.0
1680,69.0,1.0,60.0,11.0,0.0
1681,81.0,0.0,60.0,2.0,0.0
1682,53.0,1.0,60.0,13.0,0.0
1683,53.0,1.0,60.0,3.0,0.0
1684,41.0,0.0,60.0,3.0,0.0
1685,41.0,49.0,60.0,14.0,0.0
1686,74.0,1.0,120.0,10.0,0.0
1687,82.0,1.0,60.0,0.0,0.0
1688,86.0,0.0,60.0,0.0,0.0
1689,70.0,1.0,60.0,11.0,0.0
1690,86.0,3.0,120.0,2.0,0.0
1691,82.0,0.0,60.0,2.0,0.0
1692,58.0,0.0,60.0,13.0,0.0
1693,46.0,0.0,60.0,3.0,0.0
1694,58.0,1.0,60.0,3.0,0.0
1695,46.0,58.0,60.0,14.0,0.0
1696,77.0,1.0,60.0,11.0,0.0
1697,70.0,0.0,180.0,4.0,0.0
1698,77.0,0.0,60.0,2.0,0.0
1699,70.0,0.0,180.0,6.0,0.0
1700,82.0,1.0,180.0,6.0,0.0
1701,58.0,0.0,180.0,5.0,0.0
1702,70.0,3.0,180.0,12.0,0.0
1703,58.0,0.0,180.0,12.0,0.0
1704,56.0,1.0,60.0,13.0,0.0
1705,56.0,0.0,60.0,3.0,0.0
1706,44.0,1.0,60.0,3.0,0.0
1707,44.0,53.0,60.0,14.0,0.0
1708,84.0,1.0,60.0,10.0,0.0
1709,75.0,1.0,60.0,11.0,0.0
1710,84.0,3.0,60.0,2.0,0.0
1711,75.0,0.0,60.0,2.0,0.0
1712,58.0,1.0,60.0,13.0,0.0
1713,46.0,0.0,60.0,3.0,0.0
1714,58.0,1.0,60.0,3.0,0.0
1715,46.0,48.0,60.0,14.0,0.0
1716,86.0,2.0,60.0,10.0,0.0
1717,77.0,0.0,60.0,11.0,0.0
1718,77.0,0.0,60.0,2.0,0.0
1719,86.0,3.0,60.0,2.0,0.0
1720,56.0,2.0,60.0,13.0,0.0
1721,44.0,1.0,60.0,3.0,0.0
1722,56.0,0.0,60.0,3.0,0.0
1723,44.0,53.0,60.0,14.0,0.0
1724,87.0,2.0,60.0,10.0,0.0
1725,82.0,1.0,180.0,11.0,0.0
1726,75.0,1.0,60.0,2.0,0.0
1727,82.0,0.0,120.0,2.0,0.0
1728,70.0,0.0,180.0,4.0,0.0
1729,70.0,0.0,180.0,6.0,0.0
1730,82.0,1.0,180.0,6.0,0.0
1731,58.0,2.0,180.0,5.0,0.0
1732,70.0,2.0,60.0,12.0,0.0
1733,54.0,1.0,60.0,13.0,0.0
1734,54.0,1.0,60.0,3.0,0.0
1735,42.0,0.0,60.0,3.0,0.0
1736,42.0,53.0,60.0,14.0,0.0
1737,86.0,2.0,60.0,10.0,0.0
1738,74.0,1.0,60.0,2.0,0.0
1739,77.0,2.0,60.0,12.0,0.0
1740,58.0,1.0,60.0,13.0,0.0
1741,58.0,0.0,60.0,3.0,0.0
1742,46.0,1.0,60.0,3.0,0.0
1743,46.0,48.0,60.0,14.0,0.0
1744,87.0,1.0,60.0,10.0,0.0
1745,75.0,0.0,60.0,2.0,0.0
1746,75.0,0.0,60.0,12.0,0.0
1747,54.0,1.0,60.0,13.0,0.0
1748,54.0,0.0,60.0,3.0,0.0
1749,42.0,1.0,60.0,3.0,0.0
1750,42.0,58.0,60.0,14.0,0.0
1751,89.0,2.0,60.0,10.0,0.0
1752,80.0,1.0,180.0,11.0,0.0
1753,74.0,1.0,60.0,2.0,0.0
1754,82.0,1.0,180.0,6.0,0.0
1755,70.0,0.0,180.0,6.0,0.0
1756,70.0,0.0,180.0,4.0,0.0
1757,77.0,0.0,60.0,2.0,0.0
1758,74.0,2.0,60.0,12.0,0.0
1759,58.0,1.0,180.0,5.0,0.0
1760,53.0,1.0,60.0,13.0,0.0
1761,53.0,0.0,60.0,3.0,0.0
1762,41.0,1.0,60.0,3.0,0.0
1763,41.0,53.0,60.0,14.0,0.0
1764,87.0,2.0,60.0,10.0,0.0
1765,72.0,1.0,60.0,2.0,0.0
1766,75.0,0.0,60.0,2.0,0.0
1767,72.0,2.0,60.0,12.0,0.0
1768,58.0,1.0,60.0,13.0,0.0
1769,58.0,1.0,60.0,3.0,0.0
1770,46.0,45.0,60.0,14.0,0.0
1771,89.0,3.0,60.0,10.0,0.0
1772,74.0,0.0,60.0,2.0,0.0
1773,77.0,0.0,60.0,2.0,0.0
1774,74.0,1.0,60.0,12.0,0.0
1775,46.0,0.0,60.0,13.0,0.0
1776,46.0,0.0,15.0,3.0,0.0
1777,34.0,2.0,60.0,14.0,0.0
1778,66.0,1.0,60.0,10.0,0.0
1779,90.0,0.0,60.0,10.0,0.0
1780,82.0,0.0,60.0,10.0,0.0
1781,63.0,0.0,60.0,11.0,0.0
1782,70.0,0.0,60.0,11.0,0.0
1783,78.0,2.0,60.0,11.0,0.0
1784,75.0,0.0,30.0,2.0,0.0
1785,78.0,0.0,30.0,2.0,0.0
1786,63.0,0.0,30.0,6.0,0.0
1787,75.0,1.0,30.0,6.0,0.0
1788,63.0,0.0,30.0,4.0,0.0
1789,70.0,2.0,180.0,7.0,0.0
1790,63.0,2.0,60.0,12.0,0.0
1791,51.0,3.0,30.0,5.0,0.0
1792,66.0,0.0,180.0,7.0,0.0
1793,51.0,2.0,60.0,13.0,0.0
1794,58.0,1.0,180.0,7.0,0.0
1795,51.0,1.0,180.0,8.0,0.0
1796,39.0,0.0,30.0,3.0,0.0
1797,51.0,1.0,30.0,3.0,0.0
1798,39.0,9.0,30.0,14.0,0.0
1799,51.0,7.0,15.0,15.0,0.0
1800,51.0,1.0,15.0,15.0,0.0
1801,51.0,6.0,15.0,15.0,0.0
1802,51.0,0.0,15.0,15.0,0.0
1803,65.0,2.0,60.0,12.0,0.0
1804,53.0,2.0,60.0,13.0,0.0
1805,51.0,8.0,15.0,15.0,0.0
1806,51.0,7.0,15.0,15.0,0.0
1807,51.0,6.0,15.0,15.0,0.0
1808,51.0,8.0,15.0,15.0,0.0
1809,51.0,8.0,15.0,15.0,0.0
1810,51.0,2.0,15.0,15.0,0.0
1811,66.0,2.0,90.0,12.0,0.0
1812,54.0,25.0,90.0,13.0,0.0
1813,51.0,7.0,15.0,15.0,0.0
1814,51.0,7.0,15.0,15.0,0.0
1815,51.0,7.0,15.0,15.0,0.0
1816,51.0,8.0,15.0,15.0,0.0
1817,51.0,2.0,15.0,15.0,0.0
1818,87.0,1.0,60.0,0.0,0.0
1819,75.0,1.0,60.0,1.0,0.0
1820,63.0,1.0,60.0,4.0,0.0
1821,70.0,2.0,30.0,12.0,0.0
1822,58.0,28.0,30.0,13.0,0.0
1823,89.0,1.0,60.0,0.0,0.0
1824,77.0,1.0,60.0,1.0,0.0
1825,65.0,1.0,60.0,4.0,0.0
1826,68.0,2.0,30.0,12.0,0.0
1827,56.0,25.0,30.0,13.0,0.0
1828,66.0,2.0,30.0,12.0,0.0
1829,54.0,28.0,30.0,13.0,0.0
1830,90.0,1.0,60.0,0.0,0.0
1831,78.0,1.0,60.0,1.0,0.0
1832,66.0,31.0,60.0,4.0,0.0
1833,65.0,2.0,30.0,12.0,0.0
1834,53.0,25.0,30.0,13.0,0.0
1835,63.0,2.0,60.0,12.0,0.0
1836,51.0,28.0,60.0,13.0,0.0
1837,92.0,1.0,120.0,0.0,0.0
1838,80.0,1.0,120.0,1.0,0.0
1839,68.0,1.0,120.0,4.0,0.0
1840,60.0,2.0,30.0,12.0,0.0
1841,48.0,28.0,30.0,13.0,0.0
1842,62.0,2.0,30.0,12.0,0.0
1843,50.0,25.0,30.0,13.0,0.0
1844,65.0,2.0,30.0,12.0,0.0
1845,53.0,28.0,30.0,13.0,0.0
1846,90.0,1.0,120.0,0.0,0.0
1847,78.0,1.0,120.0,1.0,0.0
1848,66.0,1.0,120.0,4.0,0.0
1849,63.0,2.0,30.0,12.0,0.0
1850,51.0,28.0,30.0,13.0,0.0
1851,70.0,2.0,30.0,12.0,0.0
1852,58.0,28.0,30.0,13.0,0.0
1853,71.0,2.0,30.0,12.0,0.0
1854,59.0,25.0,30.0,13.0,0.0
1855,70.0,2.0,30.0,12.0,0.0
1856,58.0,28.0,30.0,13.0,0.0
1857,89.0,1.0,60.0,0.0,0.0
1858,77.0,1.0,60.0,1.0,0.0
1859,65.0,1.0,60.0,4.0,0.0
1860,68.0,2.0,30.0,12.0,0.0
1861,56.0,25.0,30.0,13.0,0.0
1862,66.0,2.0,30.0,12.0,0.0
1863,54.0,28.0,30.0,13.0,0.0
1864,90.0,1.0,60.0,0.0,0.0
1865,78.0,1.0,60.0,1.0,0.0
1866,66.0,31.0,60.0,4.0,0.0
1867,65.0,2.0,30.0,12.0,0.0
1868,53.0,25.0,30.0,13.0,0.0
1869,63.0,2.0,60.0,12.0,0.0
1870,51.0,28.0,60.0,13.0,0.0
1871,92.0,1.0,120.0,0.0,0.0
1872,80.0,1.0,120.0,1.0,0.0
1873,68.0,1.0,120.0,4.0,0.0
1874,60.0,2.0,30.0,12.0,0.0
1875,48.0,28.0,30.0,13.0,0.0
1876,62.0,2.0,30.0,12.0,0.0
1877,50.0,25.0,30.0,13.0,0.0
1878,65.0,2.0,30.0,12.0,0.0
1879,53.0,28.0,30.0,13.0,0.0
1880,90.0,1.0,120.0,0.0,0.0
1881,78.0,1.0,120.0,1.0,0.0
1882,66.0,6.0,120.0,4.0,0.0
1883,63.0,2.0,30.0,12.0,0.0
1884,51.0,28.0,30.0,13.0,0.0
1885,70.0,2.0,30.0,12.0,0.0
1886,58.0,13.0,30.0,13.0,0.0
1887,75.0,2.0,15.0,12.0,0.0
1888,63.0,35.0,15.0,13.0,0.0
1889,76.0,2.0,30.0,12.0,0.0
1890,64.0,28.0,30.0,13.0,0.0
1891,89.0,1.0,60.0,0.0,0.0
1892,77.0,1.0,60.0,1.0,0.0
1893,65.0,1.0,60.0,4.0,0.0
1894,73.0,2.0,30.0,12.0,0.0
1895,61.0,25.0,30.0,13.0,0.0
1896,70.0,2.0,30.0,12.0,0.0
1897,58.0,28.0,30.0,13.0,0.0
1898,90.0,1.0,60.0,0.0,0.0
1899,78.0,1.0,60.0,1.0,0.0
1900,66.0,1.0,60.0,4.0,0.0
1901,66.0,2.0,30.0,12.0,0.0
1902,54.0,25.0,30.0,13.0,0.0
1903,64.0,2.0,30.0,12.0,0.0
1904,52.0,13.0,30.0,13.0,0.0
1905,92.0,1.0,60.0,0.0,0.0
1906,80.0,1.0,60.0,1.0,0.0
1907,68.0,1.0,60.0,4.0,0.0
1908,62.0,0.0,120.0,7.0,0.0
1909,68.0,0.0,120.0,7.0,0.0
1910,62.0,2.0,15.0,12.0,0.0
1911,59.0,0.0,15.0,12.0,0.0
1912,59.0,1.0,120.0,7.0,0.0
1913,47.0,17.0,15.0,13.0,0.0
1914,50.0,0.0,15.0,13.0,0.0
1915,59.0,27.0,120.0,8.0,0.0
1916,47.0,23.0,30.0,14.0,0.0
1917,71.0,2.0,30.0,12.0,0.0
1918,59.0,28.0,30.0,13.0,0.0
1919,90.0,1.0,60.0,0.0,0.0
1920,78.0,1.0,60.0,1.0,0.0
1921,66.0,1.0,60.0,4.0,0.0
1922,68.0,2.0,30.0,12.0,0.0
1923,56.0,25.0,30.0,13.0,0.0
1924,66.0,2.0,30.0,12.0,0.0
1925,54.0,0.0,30.0,13.0,0.0
1926,92.0,1.0,60.0,0.0,0.0
1927,80.0,1.0,60.0,1.0,0.0
1928,68.0,6.0,60.0,4.0,0.0
1929,62.0,2.0,30.0,12.0,0.0
1930,50.0,20.0,30.0,13.0,0.0
1931,59.0,2.0,30.0,12.0,0.0
1932,47.0,13.0,30.0,13.0,0.0
1933,94.0,1.0,60.0,0.0,0.0
1934,82.0,1.0,60.0,1.0,0.0
1935,70.0,1.0,60.0,4.0,0.0
1936,54.0,0.0,15.0,12.0,0.0
1937,70.0,2.0,120.0,7.0,0.0
1938,61.0,2.0,15.0,12.0,0.0
1939,64.0,0.0,120.0,7.0,0.0
1940,61.0,1.0,120.0,7.0,0.0
1941,42.0,0.0,15.0,13.0,0.0
1942,49.0,17.0,15.0,13.0,0.0
1943,54.0,27.0,120.0,8.0,0.0
1944,42.0,23.0,30.0,14.0,0.0
1945,66.0,2.0,30.0,12.0,0.0
1946,54.0,28.0,30.0,13.0,0.0
1947,92.0,1.0,60.0,0.0,0.0
1948,80.0,1.0,60.0,1.0,0.0
1949,68.0,1.0,60.0,4.0,0.0
1950,64.0,2.0,30.0,12.0,0.0
1951,52.0,25.0,30.0,13.0,0.0
1952,61.0,0.0,30.0,12.0,0.0
1953,49.0,0.0,30.0,13.0,0.0
1954,94.0,1.0,60.0,0.0,0.0
1955,82.0,1.0,60.0,1.0,0.0
1956,70.0,1.0,60.0,4.0,0.0
1957,58.0,2.0,30.0,12.0,0.0
1958,46.0,20.0,30.0,13.0,0.0
1959,54.0,2.0,30.0,12.0,0.0
1960,42.0,15.0,30.0,13.0,0.0
1961,95.0,1.0,60.0,0.0,0.0
1962,83.0,0.0,60.0,10.0,0.0
1963,83.0,0.0,60.0,1.0,0.0
1964,71.0,0.0,60.0,11.0,0.0
1965,66.0,0.0,30.0,6.0,0.0
1966,66.0,1.0,30.0,4.0,0.0
1967,78.0,0.0,30.0,6.0,0.0
1968,74.0,0.0,30.0,12.0,0.0
1969,66.0,0.0,30.0,12.0,0.0
1970,59.0,0.0,30.0,12.0,0.0
1971,54.0,2.0,30.0,5.0,0.0
1972,62.0,0.0,180.0,7.0,0.0
1973,66.0,2.0,180.0,7.0,0.0
1974,59.0,1.0,180.0,7.0,0.0
1975,47.0,2.0,30.0,13.0,0.0
1976,47.0,1.0,180.0,8.0,0.0
1977,35.0,0.0,30.0,14.0,0.0
1978,51.0,7.0,15.0,15.0,0.0
1979,51.0,1.0,15.0,15.0,0.0
1980,51.0,6.0,15.0,15.0,0.0
1981,51.0,6.0,15.0,15.0,0.0
1982,97.0,0.0,60.0,0.0,0.0
1983,85.0,1.0,60.0,10.0,0.0
1984,85.0,0.0,60.0,1.0,0.0
1985,73.0,0.0,60.0,11.0,0.0
1986,51.0,8.0,15.0,15.0,0.0
1987,51.0,7.0,15.0,15.0,0.0
1988,51.0,6.0,15.0,15.0,0.0
1989,51.0,8.0,15.0,15.0,0.0
1990,51.0,7.0,15.0,15.0,0.0
1991,51.0,6.0,15.0,15.0,0.0
1992,98.0,0.0,120.0,0.0,0.0
1993,86.0,1.0,90.0,10.0,0.0
1994,86.0,0.0,120.0,1.0,0.0
1995,74.0,29.0,90.0,11.0,0.0
1996,51.0,7.0,15.0,15.0,0.0
1997,51.0,7.0,15.0,15.0,0.0
1998,51.0,7.0,15.0,15.0,0.0
1999,51.0,2.0,15.0,15.0,0.0
2000,71.0,2.0,60.0,12.0,0.0
2001,59.0,2.0,60.0,13.0,0.0
2002,47.0,23.0,60.0,14.0,0.0
2003,90.0,1.0,30.0,10.0,0.0
2004,78.0,2.0,30.0,11.0,0.0
2005,88.0,1.0,30.0,10.0,0.0
2006,76.0,29.0,30.0,11.0,0.0
2007,73.0,2.0,60.0,12.0,0.0
2008,61.0,2.0,60.0,13.0,0.0
2009,49.0,23.0,60.0,14.0,0.0
2010,86.0,1.0,30.0,10.0,0.0
2011,74.0,2.0,30.0,11.0,0.0
2012,85.0,1.0,30.0,10.0,0.0
2013,73.0,32.0,30.0,11.0,0.0
2014,74.0,2.0,60.0,12.0,0.0
2015,62.0,2.0,60.0,13.0,0.0
2016,50.0,23.0,60.0,14.0,0.0
2017,83.0,1.0,60.0,10.0,0.0
2018,71.0,29.0,60.0,11.0,0.0
2019,76.0,2.0,120.0,12.0,0.0
2020,64.0,2.0,120.0,13.0,0.0
2021,52.0,23.0,120.0,14.0,0.0
2022,80.0,1.0,30.0,10.0,0.0
2023,68.0,29.0,30.0,11.0,0.0
2024,82.0,1.0,30.0,10.0,0.0
2025,70.0,29.0,30.0,11.0,0.0
2026,85.0,1.0,30.0,10.0,0.0
2027,73.0,2.0,30.0,11.0,0.0
2028,83.0,1.0,30.0,10.0,0.0
2029,71.0,29.0,30.0,11.0,0.0
2030,74.0,2.0,120.0,12.0,0.0
2031,62.0,2.0,120.0,13.0,0.0
2032,50.0,23.0,120.0,14.0,0.0
2033,90.0,1.0,30.0,10.0,0.0
2034,78.0,29.0,30.0,11.0,0.0
2035,95.0,1.0,30.0,10.0,0.0
2036,83.0,29.0,30.0,11.0,0.0
2037,90.0,1.0,30.0,10.0,0.0
2038,78.0,2.0,30.0,11.0,0.0
2039,88.0,1.0,30.0,10.0,0.0
2040,76.0,29.0,30.0,11.0,0.0
2041,73.0,2.0,60.0,12.0,0.0
2042,61.0,2.0,60.0,13.0,0.0
2043,49.0,23.0,60.0,14.0,0.0
2044,86.0,1.0,30.0,10.0,0.0
2045,74.0,2.0,30.0,11.0,0.0
2046,85.0,1.0,30.0,10.0,0.0
2047,73.0,32.0,30.0,11.0,0.0
2048,74.0,2.0,60.0,12.0,0.0
2049,62.0,2.0,60.0,13.0,0.0
2050,50.0,23.0,60.0,14.0,0.0
2051,83.0,1.0,60.0,10.0,0.0
2052,71.0,29.0,60.0,11.0,0.0
2053,76.0,2.0,120.0,12.0,0.0
2054,64.0,2.0,120.0,13.0,0.0
2055,52.0,23.0,120.0,14.0,0.0
2056,80.0,1.0,30.0,10.0,0.0
2057,68.0,29.0,30.0,11.0,0.0
2058,82.0,1.0,30.0,10.0,0.0
2059,70.0,29.0,30.0,11.0,0.0
2060,85.0,1.0,30.0,10.0,0.0
2061,73.0,2.0,30.0,11.0,0.0
2062,83.0,1.0,30.0,10.0,0.0
2063,71.0,29.0,30.0,11.0,0.0
2064,74.0,27.0,90.0,12.0,0.0
2065,62.0,2.0,120.0,13.0,0.0
2066,50.0,21.0,120.0,14.0,0.0
2067,90.0,1.0,30.0,10.0,0.0
2068,78.0,14.0,30.0,11.0,0.0
2069,95.0,1.0,15.0,10.0,0.0
2070,83.0,17.0,15.0,11.0,0.0
2071,96.0,1.0,30.0,10.0,0.0
2072,84.0,4.0,30.0,11.0,0.0
2073,66.0,0.0,60.0,12.0,0.0
2074,69.0,2.0,60.0,12.0,0.0
2075,93.0,1.0,30.0,10.0,0.0
2076,81.0,29.0,30.0,11.0,0.0
2077,61.0,2.0,60.0,13.0,0.0
2078,49.0,21.0,60.0,14.0,0.0
2079,90.0,1.0,30.0,10.0,0.0
2080,78.0,4.0,30.0,11.0,0.0
2081,66.0,2.0,60.0,12.0,0.0
2082,69.0,0.0,60.0,12.0,0.0
2083,86.0,1.0,30.0,10.0,0.0
2084,74.0,27.0,30.0,11.0,0.0
2085,62.0,0.0,60.0,13.0,0.0
2086,50.0,13.0,60.0,14.0,0.0
2087,84.0,1.0,30.0,10.0,0.0
2088,72.0,1.0,30.0,11.0,0.0
2089,66.0,2.0,30.0,12.0,0.0
2090,69.0,0.0,30.0,12.0,0.0
2091,82.0,1.0,15.0,10.0,0.0
2092,70.0,12.0,15.0,11.0,0.0
2093,73.0,2.0,120.0,7.0,0.0
2094,61.0,0.0,30.0,12.0,0.0
2095,67.0,0.0,120.0,7.0,0.0
2096,67.0,32.0,30.0,12.0,0.0
2097,61.0,2.0,120.0,7.0,0.0
2098,64.0,2.0,60.0,13.0,0.0
2099,52.0,21.0,60.0,14.0,0.0
2100,94.0,1.0,30.0,10.0,0.0
2101,82.0,4.0,30.0,11.0,0.0
2102,61.0,2.0,60.0,12.0,0.0
2103,67.0,0.0,60.0,12.0,0.0
2104,91.0,1.0,30.0,10.0,0.0
2105,79.0,29.0,30.0,11.0,0.0
2106,62.0,0.0,60.0,13.0,0.0
2107,50.0,21.0,60.0,14.0,0.0
2108,88.0,1.0,30.0,10.0,0.0
2109,76.0,2.0,30.0,11.0,0.0
2110,61.0,0.0,60.0,12.0,0.0
2111,67.0,2.0,60.0,12.0,0.0
2112,85.0,1.0,30.0,10.0,0.0
2113,73.0,27.0,30.0,11.0,0.0
2114,64.0,1.0,60.0,13.0,0.0
2115,52.0,13.0,60.0,14.0,0.0
2116,82.0,0.0,30.0,10.0,0.0
2117,70.0,1.0,30.0,11.0,0.0
2118,61.0,2.0,30.0,12.0,0.0
2119,67.0,0.0,30.0,12.0,0.0
2120,81.0,1.0,15.0,10.0,0.0
2121,69.0,12.0,15.0,11.0,0.0
2122,69.0,0.0,120.0,7.0,0.0
2123,74.0,2.0,120.0,7.0,0.0
2124,62.0,32.0,30.0,12.0,0.0
2125,72.0,0.0,30.0,12.0,0.0
2126,66.0,0.0,60.0,13.0,0.0
2127,60.0,1.0,120.0,7.0,0.0
2128,54.0,22.0,120.0,8.0,0.0
2129,54.0,26.0,60.0,14.0,0.0
2130,93.0,1.0,30.0,10.0,0.0
2131,81.0,1.0,30.0,11.0,0.0
2132,72.0,2.0,60.0,12.0,0.0
2133,62.0,0.0,60.0,12.0,0.0
2134,90.0,1.0,30.0,10.0,0.0
2135,78.0,29.0,30.0,11.0,0.0
2136,62.0,1.0,60.0,13.0,0.0
2137,50.0,1.0,60.0,14.0,0.0
2138,84.0,0.0,30.0,10.0,0.0
2139,72.0,1.0,30.0,11.0,0.0
2140,72.0,0.0,60.0,12.0,0.0
2141,62.0,2.0,60.0,12.0,0.0
2142,81.0,1.0,30.0,10.0,0.0
2143,69.0,27.0,30.0,11.0,0.0
2144,54.0,0.0,60.0,13.0,0.0
2145,42.0,11.0,60.0,14.0,0.0
2146,78.0,1.0,30.0,10.0,0.0
2147,66.0,1.0,30.0,11.0,0.0
2148,72.0,0.0,30.0,12.0,0.0
2149,62.0,2.0,30.0,12.0,0.0
2150,73.0,0.0,30.0,10.0,0.0
2151,68.0,0.0,30.0,10.0,0.0
2152,85.0,0.0,30.0,10.0,0.0
2153,73.0,0.0,15.0,11.0,0.0
2154,85.0,2.0,15.0,11.0,0.0
2155,80.0,0.0,180.0,1.0,0.0
2156,73.0,1.0,180.0,1.0,0.0
2157,80.0,0.0,30.0,6.0,0.0
2158,73.0,0.0,180.0,2.0,0.0
2159,68.0,1.0,30.0,4.0,0.0
2160,73.0,0.0,30.0,6.0,0.0
2161,68.0,1.0,180.0,2.0,0.0
2162,73.0,0.0,15.0,12.0,0.0
2163,68.0,0.0,30.0,7.0,0.0
2164,61.0,2.0,30.0,5.0,0.0
2165,61.0,13.0,15.0,12.0,0.0
2166,49.0,1.0,60.0,13.0,0.0
2167,61.0,0.0,30.0,7.0,0.0
2168,49.0,1.0,60.0,3.0,0.0
2169,49.0,7.0,30.0,8.0,0.0
2170,37.0,6.0,60.0,14.0,0.0
2171,73.0,0.0,15.0,11.0,0.0
2172,85.0,2.0,15.0,11.0,0.0
2173,61.0,2.0,15.0,12.0,0.0
2174,73.0,0.0,15.0,12.0,0.0
2175,73.0,2.0,15.0,11.0,0.0
2176,85.0,0.0,15.0,11.0,0.0
2177,73.0,0.0,15.0,12.0,0.0
2178,61.0,13.0,15.0,12.0,0.0
2179,85.0,0.0,15.0,11.0,0.0
2180,73.0,2.0,15.0,11.0,0.0
2181,73.0,5.0,15.0,12.0,0.0
2182,61.0,0.0,15.0,12.0,0.0
2183,85.0,2.0,15.0,11.0,0.0
2184,73.0,0.0,15.0,11.0,0.0
2185,73.0,0.0,15.0,12.0,0.0
2186,61.0,13.0,15.0,12.0,0.0
2187,51.0,1.0,60.0,13.0,0.0
2188,51.0,1.0,60.0,3.0,0.0
2189,39.0,6.0,60.0,14.0,0.0
2190,73.0,0.0,15.0,11.0,0.0
2191,85.0,2.0,15.0,11.0,0.0
2192,61.0,13.0,15.0,12.0,0.0
2193,73.0,0.0,15.0,12.0,0.0
2194,85.0,2.0,15.0,11.0,0.0
2195,73.0,0.0,15.0,11.0,0.0
2196,61.0,0.0,15.0,12.0,0.0
2197,73.0,13.0,15.0,12.0,0.0
2198,73.0,0.0,15.0,11.0,0.0
2199,85.0,2.0,15.0,11.0,0.0
2200,73.0,0.0,15.0,12.0,0.0
2201,61.0,5.0,15.0,12.0,0.0
2202,85.0,2.0,15.0,11.0,0.0
2203,73.0,0.0,15.0,11.0,0.0
2204,61.0,13.0,15.0,12.0,0.0
2205,73.0,0.0,15.0,12.0,0.0
2206,52.0,1.0,90.0,13.0,0.0
2207,52.0,1.0,90.0,3.0,0.0
2208,40.0,11.0,90.0,14.0,0.0
2209,73.0,2.0,15.0,11.0,0.0
2210,85.0,0.0,15.0,11.0,0.0
2211,61.0,13.0,15.0,12.0,0.0
2212,73.0,0.0,15.0,12.0,0.0
2213,73.0,2.0,15.0,11.0,0.0
2214,85.0,0.0,15.0,11.0,0.0
2215,73.0,0.0,15.0,12.0,0.0
2216,61.0,11.0,15.0,12.0,0.0
2217,73.0,2.0,15.0,11.0,0.0
2218,85.0,0.0,15.0,11.0,0.0
2219,61.0,13.0,15.0,12.0,0.0
2220,73.0,0.0,15.0,12.0,0.0
2221,80.0,3.0,60.0,10.0,0.0
2222,92.0,0.0,60.0,0.0,0.0
2223,73.0,0.0,15.0,11.0,0.0
2224,73.0,1.0,120.0,1.0,0.0
2225,76.0,0.0,120.0,1.0,0.0
2226,76.0,15.0,15.0,11.0,0.0
2227,73.0,0.0,120.0,2.0,0.0
2228,68.0,1.0,180.0,4.0,0.0
2229,64.0,1.0,120.0,2.0,0.0
2230,68.0,2.0,180.0,5.0,0.0
2231,68.0,2.0,60.0,12.0,0.0
2232,76.0,2.0,15.0,11.0,0.0
2233,73.0,0.0,15.0,11.0,0.0
2234,76.0,15.0,15.0,11.0,0.0
2235,73.0,0.0,15.0,11.0,0.0
2236,64.0,1.0,30.0,13.0,0.0
2237,64.0,1.0,30.0,3.0,0.0
2238,52.0,6.0,30.0,14.0,0.0
2239,76.0,2.0,15.0,11.0,0.0
2240,73.0,0.0,15.0,11.0,0.0
2241,94.0,0.0,60.0,0.0,0.0
2242,82.0,1.0,60.0,10.0,0.0
2243,76.0,0.0,15.0,11.0,0.0
2244,73.0,15.0,15.0,11.0,0.0
2245,70.0,2.0,60.0,12.0,0.0
2246,61.0,1.0,30.0,13.0,0.0
2247,61.0,1.0,30.0,3.0,0.0
2248,49.0,6.0,30.0,14.0,0.0
2249,76.0,0.0,15.0,11.0,0.0
2250,73.0,7.0,15.0,11.0,0.0
2251,73.0,15.0,15.0,11.0,0.0
2252,76.0,0.0,15.0,11.0,0.0
2253,59.0,1.0,30.0,13.0,0.0
2254,59.0,1.0,30.0,3.0,0.0
2255,47.0,6.0,30.0,14.0,0.0
2256,76.0,0.0,15.0,11.0,0.0
2257,73.0,2.0,15.0,11.0,0.0
2258,95.0,0.0,90.0,0.0,0.0
2259,83.0,2.0,90.0,10.0,0.0
2260,73.0,0.0,15.0,11.0,0.0
2261,76.0,15.0,15.0,11.0,0.0
2262,77.0,1.0,60.0,1.0,0.0
2263,74.0,0.0,60.0,1.0,0.0
2264,65.0,0.0,60.0,2.0,0.0
2265,74.0,0.0,60.0,2.0,0.0
2266,71.0,10.0,90.0,12.0,0.0
2267,58.0,1.0,30.0,13.0,0.0
2268,58.0,1.0,30.0,3.0,0.0
2269,46.0,6.0,30.0,14.0,0.0
2270,76.0,7.0,15.0,11.0,0.0
2271,73.0,0.0,15.0,11.0,0.0
2272,76.0,0.0,15.0,11.0,0.0
2273,73.0,13.0,15.0,11.0,0.0
2274,56.0,1.0,30.0,13.0,0.0
2275,56.0,1.0,30.0,3.0,0.0
2276,44.0,11.0,30.0,14.0,0.0
2277,73.0,0.0,15.0,11.0,0.0
2278,76.0,0.0,15.0,11.0,0.0
2279,77.0,15.0,15.0,11.0,0.0
2280,74.0,0.0,15.0,11.0,0.0
2281,78.0,1.0,120.0,1.0,0.0
2282,75.0,0.0,120.0,1.0,0.0
2283,75.0,0.0,30.0,6.0,0.0
2284,63.0,0.0,30.0,6.0,0.0
2285,75.0,0.0,120.0,2.0,0.0
2286,66.0,1.0,120.0,2.0,0.0
2287,63.0,1.0,30.0,4.0,0.0
2288,51.0,0.0,30.0,5.0,0.0
2289,51.0,1.0,60.0,13.0,0.0
2290,51.0,1.0,60.0,3.0,0.0
2291,39.0,6.0,60.0,14.0,0.0
2292,74.0,2.0,15.0,11.0,0.0
2293,77.0,0.0,15.0,11.0,0.0
2294,94.0,3.0,30.0,0.0,0.0
2295,82.0,0.0,30.0,10.0,0.0
2296,77.0,0.0,15.0,11.0,0.0
2297,74.0,15.0,15.0,11.0,0.0
2298,70.0,2.0,30.0,12.0,0.0
2299,74.0,2.0,15.0,11.0,0.0
2300,77.0,0.0,15.0,11.0,0.0
2301,92.0,0.0,30.0,0.0,0.0
2302,80.0,3.0,30.0,10.0,0.0
2303,75.0,15.0,15.0,11.0,0.0
2304,78.0,0.0,15.0,11.0,0.0
2305,68.0,10.0,30.0,12.0,0.0
2306,53.0,1.0,60.0,13.0,0.0
2307,53.0,1.0,60.0,3.0,0.0
2308,41.0,6.0,60.0,14.0,0.0
2309,75.0,2.0,15.0,11.0,0.0
2310,78.0,0.0,15.0,11.0,0.0
2311,90.0,0.0,30.0,0.0,0.0
2312,78.0,1.0,30.0,10.0,0.0
2313,75.0,15.0,15.0,11.0,0.0
2314,78.0,0.0,15.0,11.0,0.0
2315,66.0,2.0,30.0,12.0,0.0
2316,78.0,0.0,15.0,11.0,0.0
2317,75.0,2.0,15.0,11.0,0.0
2318,89.0,0.0,30.0,0.0,0.0
2319,77.0,3.0,30.0,10.0,0.0
2320,72.0,15.0,15.0,11.0,0.0
2321,81.0,0.0,60.0,1.0,0.0
2322,72.0,1.0,60.0,1.0,0.0
2323,81.0,0.0,15.0,11.0,0.0
2324,72.0,0.0,60.0,2.0,0.0
2325,69.0,1.0,60.0,2.0,0.0
2326,65.0,10.0,30.0,12.0,0.0
2327,54.0,1.0,90.0,13.0,0.0
2328,54.0,1.0,90.0,3.0,0.0
2329,42.0,11.0,90.0,14.0,0.0
2330,72.0,2.0,15.0,11.0,0.0
2331,81.0,0.0,15.0,11.0,0.0
2332,87.0,0.0,30.0,0.0,0.0
2333,75.0,1.0,30.0,10.0,0.0
2334,81.0,12.0,15.0,11.0,0.0
2335,72.0,0.0,15.0,11.0,0.0
2336,63.0,0.0,30.0,12.0,0.0
2337,72.0,15.0,15.0,11.0,0.0
2338,81.0,0.0,15.0,11.0,0.0
2339,94.0,1.0,60.0,0.0,0.0
2340,82.0,0.0,60.0,10.0,0.0
2341,82.0,0.0,120.0,1.0,0.0
2342,73.0,1.0,60.0,1.0,0.0
2343,73.0,15.0,15.0,11.0,0.0
2344,82.0,0.0,15.0,11.0,0.0
2345,73.0,1.0,60.0,2.0,0.0
2346,70.0,0.0,120.0,2.0,0.0
2347,70.0,0.0,180.0,4.0,0.0
2348,58.0,0.0,180.0,5.0,0.0
2349,70.0,2.0,60.0,12.0,0.0
2350,82.0,2.0,15.0,11.0,0.0
2351,73.0,0.0,15.0,11.0,0.0
2352,82.0,0.0,15.0,11.0,0.0
2353,73.0,15.0,15.0,11.0,0.0
2354,66.0,1.0,30.0,13.0,0.0
2355,66.0,1.0,30.0,3.0,0.0
2356,54.0,6.0,30.0,14.0,0.0
2357,73.0,2.0,15.0,11.0,0.0
2358,82.0,0.0,15.0,11.0,0.0
2359,84.0,1.0,60.0,10.0,0.0
2360,96.0,0.0,60.0,0.0,0.0
2361,78.0,15.0,15.0,11.0,0.0
2362,82.0,0.0,15.0,11.0,0.0
2363,78.0,1.0,60.0,1.0,0.0
2364,78.0,1.0,60.0,2.0,0.0
2365,72.0,2.0,60.0,12.0,0.0
2366,63.0,1.0,30.0,13.0,0.0
2367,63.0,1.0,30.0,3.0,0.0
2368,51.0,6.0,30.0,14.0,0.0
2369,78.0,7.0,15.0,11.0,0.0
2370,82.0,0.0,15.0,11.0,0.0
2371,82.0,0.0,15.0,11.0,0.0
2372,78.0,15.0,15.0,11.0,0.0
2373,61.0,1.0,30.0,13.0,0.0
2374,61.0,1.0,30.0,3.0,0.0
2375,49.0,6.0,30.0,14.0,0.0
2376,82.0,2.0,15.0,11.0,0.0
2377,78.0,0.0,15.0,11.0,0.0
2378,97.0,0.0,90.0,0.0,0.0
2379,85.0,3.0,90.0,10.0,0.0
2380,76.0,0.0,60.0,1.0,0.0
2381,76.0,0.0,15.0,11.0,0.0
2382,79.0,15.0,15.0,11.0,0.0
2383,79.0,1.0,60.0,1.0,0.0
2384,67.0,0.0,60.0,2.0,0.0
2385,76.0,1.0,60.0,2.0,0.0
2386,73.0,10.0,90.0,12.0,0.0
2387,60.0,1.0,30.0,13.0,0.0
2388,60.0,1.0,30.0,3.0,0.0
2389,48.0,6.0,30.0,14.0,0.0
2390,76.0,0.0,15.0,11.0,0.0
2391,79.0,7.0,15.0,11.0,0.0
2392,79.0,13.0,15.0,11.0,0.0
2393,76.0,0.0,15.0,11.0,0.0
2394,58.0,1.0,30.0,13.0,0.0
2395,58.0,1.0,30.0,3.0,0.0
2396,46.0,6.0,30.0,14.0,0.0
2397,76.0,7.0,15.0,11.0,0.0
2398,79.0,0.0,15.0,11.0,0.0
2399,80.0,0.0,15.0,11.0,0.0
2400,80.0,1.0,180.0,1.0,0.0
2401,77.0,0.0,180.0,1.0,0.0
2402,77.0,15.0,15.0,11.0,0.0
2403,68.0,0.0,180.0,2.0,0.0
2404,68.0,0.0,180.0,4.0,0.0
2405,77.0,1.0,180.0,2.0,0.0
2406,77.0,0.0,180.0,6.0,0.0
2407,65.0,0.0,180.0,5.0,0.0
2408,53.0,0.0,60.0,13.0,0.0
2409,53.0,1.0,60.0,3.0,0.0
2410,41.0,1.0,60.0,14.0,0.0
2411,80.0,2.0,15.0,11.0,0.0
2412,77.0,0.0,15.0,11.0,0.0
2413,96.0,0.0,30.0,0.0,0.0
2414,84.0,1.0,30.0,10.0,0.0
2415,80.0,15.0,15.0,11.0,0.0
2416,77.0,0.0,15.0,11.0,0.0
2417,72.0,10.0,30.0,12.0,0.0
2418,77.0,0.0,15.0,11.0,0.0
2419,80.0,2.0,15.0,11.0,0.0
2420,82.0,0.0,30.0,10.0,0.0
2421,94.0,3.0,30.0,0.0,0.0
2422,80.0,0.0,15.0,11.0,0.0
2423,77.0,15.0,15.0,11.0,0.0
2424,70.0,10.0,30.0,12.0,0.0
2425,55.0,0.0,60.0,13.0,0.0
2426,55.0,1.0,60.0,3.0,0.0
2427,43.0,1.0,60.0,14.0,0.0
2428,80.0,2.0,15.0,11.0,0.0
2429,77.0,0.0,15.0,11.0,0.0
2430,92.0,1.0,30.0,0.0,0.0
2431,80.0,0.0,30.0,10.0,0.0
2432,80.0,15.0,15.0,11.0,0.0
2433,77.0,0.0,15.0,11.0,0.0
2434,68.0,10.0,30.0,12.0,0.0
2435,77.0,2.0,15.0,11.0,0.0
2436,80.0,0.0,15.0,11.0,0.0
2437,91.0,0.0,30.0,0.0,0.0
2438,79.0,3.0,30.0,10.0,0.0
2439,77.0,15.0,15.0,11.0,0.0
2440,80.0,0.0,15.0,11.0,0.0
2441,67.0,10.0,30.0,12.0,0.0
2442,56.0,1.0,60.0,13.0,0.0
2443,56.0,1.0,60.0,3.0,0.0
2444,44.0,11.0,60.0,14.0,0.0
2445,80.0,0.0,15.0,11.0,0.0
2446,77.0,2.0,15.0,11.0,0.0
2447,77.0,0.0,30.0,10.0,0.0
2448,89.0,1.0,30.0,0.0,0.0
2449,80.0,12.0,15.0,11.0,0.0
2450,77.0,0.0,15.0,11.0,0.0
2451,65.0,2.0,30.0,12.0,0.0
2452,77.0,0.0,15.0,11.0,0.0
2453,80.0,0.0,15.0,11.0,0.0
2454,89.0,0.0,30.0,10.0,0.0
2455,101.0,3.0,30.0,0.0,0.0
2456,77.0,0.0,180.0,1.0,0.0
2457,80.0,1.0,180.0,1.0,0.0
2458,77.0,0.0,15.0,11.0,0.0
2459,80.0,15.0,15.0,11.0,0.0
2460,77.0,0.0,180.0,6.0,0.0
2461,68.0,0.0,180.0,2.0,0.0
2462,68.0,0.0,180.0,4.0,0.0
2463,77.0,1.0,180.0,2.0,0.0
2464,77.0,10.0,30.0,12.0,0.0
2465,65.0,0.0,180.0,5.0,0.0
2466,49.0,0.0,60.0,13.0,0.0
2467,49.0,1.0,60.0,3.0,0.0
2468,37.0,1.0,60.0,14.0,0.0
2469,80.0,0.0,15.0,11.0,0.0
2470,77.0,2.0,15.0,11.0,0.0
2471,84.0,1.0,30.0,10.0,0.0
2472,96.0,0.0,30.0,0.0,0.0
2473,80.0,15.0,15.0,11.0,0.0
2474,77.0,0.0,15.0,11.0,0.0
2475,72.0,10.0,30.0,12.0,0.0
2476,80.0,2.0,15.0,11.0,0.0
2477,77.0,0.0,15.0,11.0,0.0
2478,82.0,0.0,30.0,10.0,0.0
2479,94.0,3.0,30.0,0.0,0.0
2480,77.0,0.0,15.0,11.0,0.0
2481,80.0,15.0,15.0,11.0,0.0
2482,70.0,10.0,30.0,12.0,0.0
2483,53.0,1.0,60.0,13.0,0.0
2484,53.0,1.0,60.0,3.0,0.0
2485,41.0,1.0,60.0,14.0,0.0
2486,77.0,2.0,15.0,11.0,0.0
2487,80.0,0.0,15.0,11.0,0.0
2488,80.0,0.0,30.0,10.0,0.0
2489,92.0,0.0,30.0,0.0,0.0
2490,77.0,15.0,15.0,11.0,0.0
2491,80.0,0.0,15.0,11.0,0.0
2492,68.0,10.0,30.0,12.0,0.0
2493,80.0,0.0,15.0,11.0,0.0
2494,77.0,2.0,15.0,11.0,0.0
2495,91.0,0.0,30.0,0.0,0.0
2496,79.0,3.0,30.0,10.0,0.0
2497,77.0,15.0,15.0,11.0,0.0
2498,80.0,0.0,15.0,11.0,0.0
2499,67.0,10.0,30.0,12.0,0.0
2500,56.0,1.0,60.0,13.0,0.0
2501,56.0,1.0,60.0,3.0,0.0
2502,44.0,10.0,60.0,14.0,0.0
2503,80.0,0.0,15.0,11.0,0.0
2504,77.0,2.0,15.0,11.0,0.0
2505,89.0,0.0,30.0,0.0,0.0
2506,77.0,1.0,30.0,10.0,0.0
2507,77.0,12.0,15.0,11.0,0.0
2508,80.0,0.0,15.0,11.0,0.0
2509,65.0,2.0,30.0,12.0,0.0
2510,77.0,0.0,15.0,11.0,0.0
2511,80.0,0.0,15.0,11.0,0.0
2512,92.0,0.0,15.0,0.0,0.0
2513,92.0,1.0,15.0,10.0,0.0
2514,80.0,2.0,15.0,11.0,0.0
2515,72.0,1.0,240.0,1.0,0.0
2516,77.0,0.0,240.0,1.0,0.0
2517,72.0,1.0,240.0,2.0,0.0
2518,77.0,0.0,240.0,2.0,0.0
2519,77.0,0.0,240.0,6.0,0.0
2520,80.0,1.0,240.0,6.0,0.0
2521,68.0,0.0,240.0,4.0,0.0
2522,72.0,0.0,15.0,12.0,0.0
2523,65.0,9.0,240.0,5.0,0.0
2524,65.0,13.0,15.0,12.0,0.0
2525,44.0,0.0,60.0,13.0,0.0
2526,44.0,1.0,60.0,3.0,0.0
2527,32.0,10.0,60.0,14.0,0.0
2528,80.0,2.0,15.0,11.0,0.0
2529,65.0,12.0,15.0,12.0,0.0
2530,72.0,0.0,15.0,12.0,0.0
2531,89.0,1.0,15.0,0.0,0.0
2532,89.0,0.0,15.0,10.0,0.0
2533,77.0,2.0,15.0,11.0,0.0
2534,65.0,13.0,15.0,12.0,0.0
2535,72.0,0.0,15.0,12.0,0.0
2536,77.0,2.0,15.0,11.0,0.0
2537,72.0,1.0,15.0,12.0,0.0
2538,65.0,0.0,15.0,12.0,0.0
2539,84.0,0.0,15.0,10.0,0.0
2540,96.0,1.0,15.0,0.0,0.0
2541,72.0,2.0,15.0,11.0,0.0
2542,72.0,13.0,15.0,12.0,0.0
2543,65.0,0.0,15.0,12.0,0.0
2544,72.0,2.0,15.0,11.0,0.0
2545,65.0,12.0,15.0,12.0,0.0
2546,72.0,0.0,15.0,12.0,0.0
2547,80.0,0.0,15.0,10.0,0.0
2548,92.0,1.0,15.0,0.0,0.0
2549,68.0,2.0,15.0,11.0,0.0
2550,65.0,0.0,15.0,12.0,0.0
2551,72.0,5.0,15.0,12.0,0.0
2552,68.0,8.0,15.0,13.0,0.0
2553,68.0,2.0,15.0,11.0,0.0
2554,65.0,0.0,15.0,12.0,0.0
2555,72.0,12.0,15.0,12.0,0.0
2556,77.0,0.0,15.0,10.0,0.0
2557,89.0,1.0,15.0,0.0,0.0
2558,77.0,2.0,15.0,11.0,0.0
2559,65.0,0.0,15.0,12.0,0.0
2560,72.0,5.0,15.0,12.0,0.0
2561,65.0,8.0,15.0,13.0,0.0
2562,77.0,2.0,15.0,11.0,0.0
2563,72.0,12.0,15.0,12.0,0.0
2564,65.0,0.0,15.0,12.0,0.0
2565,84.0,1.0,15.0,0.0,0.0
2566,72.0,0.0,15.0,10.0,0.0
2567,72.0,2.0,15.0,11.0,0.0
2568,72.0,5.0,15.0,12.0,0.0
2569,65.0,0.0,15.0,12.0,0.0
2570,60.0,8.0,15.0,13.0,0.0
2571,72.0,2.0,15.0,11.0,0.0
2572,72.0,0.0,15.0,12.0,0.0
2573,65.0,12.0,15.0,12.0,0.0
2574,80.0,2.0,60.0,0.0,0.0
2575,68.0,1.0,15.0,10.0,0.0
2576,68.0,2.0,15.0,11.0,0.0
2577,68.0,5.0,15.0,12.0,0.0
2578,56.0,1.0,15.0,13.0,0.0
2579,68.0,1.0,15.0,3.0,0.0
2580,56.0,5.0,15.0,14.0,0.0
2581,68.0,1.0,15.0,10.0,0.0
2582,68.0,2.0,15.0,11.0,0.0
2583,68.0,12.0,15.0,12.0,0.0
2584,68.0,1.0,15.0,10.0,0.0
2585,65.0,2.0,15.0,11.0,0.0
2586,65.0,5.0,15.0,12.0,0.0
2587,65.0,1.0,15.0,13.0,0.0
2588,65.0,1.0,15.0,3.0,0.0
2589,53.0,4.0,15.0,14.0,0.0
2590,68.0,0.0,15.0,10.0,0.0
2591,65.0,2.0,15.0,11.0,0.0
2592,65.0,0.0,15.0,12.0,0.0
2593,68.0,1.0,15.0,10.0,0.0
2594,65.0,2.0,15.0,11.0,0.0
2595,60.0,5.0,15.0,12.0,0.0
2596,60.0,1.0,15.0,13.0,0.0
2597,60.0,1.0,15.0,3.0,0.0
2598,48.0,5.0,15.0,14.0,0.0
2599,68.0,1.0,15.0,10.0,0.0
2600,65.0,2.0,15.0,11.0,0.0
2601,60.0,12.0,15.0,12.0,0.0
2602,68.0,1.0,15.0,10.0,0.0
2603,65.0,2.0,15.0,11.0,0.0
2604,56.0,5.0,15.0,12.0,0.0
2605,56.0,1.0,15.0,13.0,0.0
2606,56.0,1.0,15.0,3.0,0.0
2607,44.0,5.0,15.0,14.0,0.0
2608,68.0,1.0,15.0,10.0,0.0
2609,65.0,2.0,15.0,11.0,0.0
2610,56.0,12.0,15.0,12.0,0.0
2611,68.0,1.0,15.0,10.0,0.0
2612,65.0,2.0,15.0,11.0,0.0
2613,53.0,5.0,15.0,12.0,0.0
2614,53.0,1.0,15.0,13.0,0.0
2615,53.0,1.0,15.0,3.0,0.0
2616,41.0,5.0,15.0,14.0,0.0
2617,68.0,1.0,15.0,10.0,0.0
2618,65.0,2.0,15.0,11.0,0.0
2619,53.0,12.0,15.0,12.0,0.0
2620,68.0,1.0,15.0,10.0,0.0
2621,65.0,2.0,15.0,11.0,0.0
2622,53.0,5.0,15.0,12.0,0.0
2623,51.0,1.0,15.0,13.0,0.0
2624,51.0,1.0,15.0,3.0,0.0
2625,39.0,5.0,15.0,14.0,0.0
2626,68.0,1.0,15.0,10.0,0.0
2627,65.0,2.0,15.0,11.0,0.0
2628,53.0,12.0,15.0,12.0,0.0
2629,68.0,1.0,15.0,10.0,0.0
2630,65.0,2.0,15.0,11.0,0.0
2631,53.0,5.0,15.0,12.0,0.0
2632,50.0,1.0,15.0,13.0,0.0
2633,50.0,1.0,15.0,3.0,0.0
2634,38.0,5.0,15.0,14.0,0.0
2635,68.0,1.0,15.0,10.0,0.0
2636,65.0,2.0,15.0,11.0,0.0
2637,53.0,12.0,15.0,12.0,0.0
2638,68.0,1.0,15.0,10.0,0.0
2639,65.0,2.0,15.0,11.0,0.0
2640,53.0,12.0,15.0,12.0,0.0
2641,68.0,1.0,15.0,10.0,0.0
2642,65.0,2.0,15.0,11.0,0.0
2643,53.0,12.0,15.0,12.0,0.0
2644,68.0,1.0,15.0,10.0,0.0
2645,65.0,2.0,15.0,11.0,0.0
2646,53.0,12.0,15.0,12.0,0.0
2647,68.0,1.0,15.0,10.0,0.0
2648,65.0,2.0,15.0,11.0,0.0
2649,53.0,12.0,15.0,12.0,0.0
2650,68.0,1.0,15.0,10.0,0.0
2651,65.0,2.0,15.0,11.0,0.0
2652,53.0,12.0,15.0,12.0,0.0
2653,68.0,1.0,15.0,10.0,0.0
2654,65.0,2.0,15.0,11.0,0.0
2655,53.0,12.0,15.0,12.0,0.0
2656,68.0,1.0,15.0,10.0,0.0
2657,65.0,2.0,15.0,11.0,0.0
2658,53.0,12.0,15.0,12.0,0.0
2659,68.0,1.0,15.0,10.0,0.0
2660,65.0,2.0,15.0,11.0,0.0
2661,53.0,12.0,15.0,12.0,0.0
2662,68.0,1.0,15.0,10.0,0.0
2663,65.0,2.0,15.0,11.0,0.0
2664,53.0,12.0,15.0,12.0,0.0
2665,68.0,1.0,15.0,10.0,0.0
2666,65.0,2.0,15.0,11.0,0.0
2667,53.0,12.0,15.0,12.0,0.0
2668,65.0,1.0,15.0,10.0,0.0
2669,74.0,1.0,60.0,1.0,0.0
2670,62.0,2.0,15.0,11.0,0.0
2671,56.0,3.0,180.0,7.0,0.0
2672,53.0,2.0,15.0,12.0,0.0
2673,49.0,10.0,15.0,13.0,0.0
2674,68.0,6.0,180.0,3.0,0.0
2675,65.0,1.0,15.0,10.0,0.0
2676,62.0,2.0,15.0,11.0,0.0
2677,53.0,2.0,15.0,12.0,0.0
2678,49.0,10.0,15.0,13.0,0.0
2679,65.0,1.0,15.0,10.0,0.0
2680,62.0,2.0,15.0,11.0,0.0
2681,53.0,2.0,15.0,12.0,0.0
2682,49.0,10.0,15.0,13.0,0.0
2683,65.0,1.0,15.0,10.0,0.0
2684,62.0,2.0,15.0,11.0,0.0
2685,53.0,1.0,15.0,12.0,0.0
2686,49.0,10.0,15.0,13.0,0.0
2687,65.0,1.0,15.0,10.0,0.0
2688,62.0,2.0,15.0,11.0,0.0
2689,75.0,1.0,60.0,1.0,0.0
2690,53.0,2.0,15.0,12.0,0.0
2691,49.0,10.0,15.0,13.0,0.0
2692,65.0,1.0,15.0,10.0,0.0
2693,62.0,2.0,15.0,11.0,0.0
2694,53.0,2.0,15.0,12.0,0.0
2695,49.0,10.0,15.0,13.0,0.0
2696,65.0,1.0,15.0,10.0,0.0
2697,62.0,2.0,15.0,11.0,0.0
2698,53.0,2.0,15.0,12.0,0.0
2699,49.0,10.0,15.0,13.0,0.0
2700,65.0,1.0,15.0,10.0,0.0
2701,62.0,2.0,15.0,11.0,0.0
2702,53.0,1.0,15.0,12.0,0.0
2703,49.0,10.0,15.0,13.0,0.0
2704,65.0,1.0,15.0,10.0,0.0
2705,77.0,1.0,240.0,1.0,0.0
2706,62.0,2.0,15.0,11.0,0.0
2707,53.0,2.0,15.0,12.0,0.0
2708,49.0,10.0,15.0,13.0,0.0
2709,65.0,1.0,15.0,10.0,0.0
2710,62.0,2.0,15.0,11.0,0.0
2711,53.0,2.0,15.0,12.0,0.0
2712,49.0,10.0,15.0,13.0,0.0
2713,65.0,1.0,15.0,10.0,0.0
2714,62.0,2.0,15.0,11.0,0.0
2715,53.0,2.0,15.0,12.0,0.0
2716,49.0,10.0,15.0,13.0,0.0
2717,65.0,1.0,15.0,10.0,0.0
2718,62.0,2.0,15.0,11.0,0.0
2719,53.0,2.0,15.0,12.0,0.0
2720,49.0,1.0,15.0,13.0,0.0
2721,65.0,1.0,15.0,10.0,0.0
2722,62.0,2.0,15.0,11.0,0.0
2723,53.0,2.0,15.0,12.0,0.0
2724,57.0,3.0,180.0,7.0,0.0
2725,49.0,10.0,15.0,13.0,0.0
2726,69.0,6.0,180.0,3.0,0.0
2727,65.0,1.0,15.0,10.0,0.0
2728,62.0,2.0,15.0,11.0,0.0
2729,53.0,2.0,15.0,12.0,0.0
2730,49.0,10.0,15.0,13.0,0.0
2731,65.0,1.0,15.0,10.0,0.0
2732,62.0,2.0,15.0,11.0,0.0
2733,53.0,2.0,15.0,12.0,0.0
2734,49.0,10.0,15.0,13.0,0.0
2735,65.0,1.0,15.0,10.0,0.0
2736,62.0,2.0,15.0,11.0,0.0
2737,53.0,2.0,15.0,12.0,0.0
2738,49.0,10.0,15.0,13.0,0.0
2739,65.0,1.0,15.0,10.0,0.0
2740,62.0,2.0,15.0,11.0,0.0
2741,53.0,2.0,15.0,12.0,0.0
2742,49.0,10.0,15.0,13.0,0.0
2743,65.0,1.0,15.0,10.0,0.0
2744,62.0,2.0,15.0,11.0,0.0
2745,53.0,2.0,15.0,12.0,0.0
2746,49.0,10.0,15.0,13.0,0.0
2747,65.0,1.0,15.0,10.0,0.0
2748,62.0,2.0,15.0,11.0,0.0
2749,53.0,2.0,15.0,12.0,0.0
2750,49.0,10.0,15.0,13.0,0.0
2751,65.0,1.0,15.0,10.0,0.0
2752,62.0,2.0,15.0,11.0,0.0
2753,53.0,2.0,15.0,12.0,0.0
2754,49.0,10.0,15.0,13.0,0.0
2755,65.0,1.0,15.0,10.0,0.0
2756,62.0,2.0,15.0,11.0,0.0
2757,53.0,2.0,15.0,12.0,0.0
2758,49.0,10.0,15.0,13.0,0.0
2759,65.0,1.0,15.0,10.0,0.0
2760,62.0,2.0,15.0,11.0,0.0
2761,53.0,2.0,15.0,12.0,0.0
2762,49.0,10.0,15.0,13.0,0.0
2763,65.0,1.0,15.0,10.0,0.0
2764,62.0,2.0,15.0,11.0,0.0
2765,53.0,2.0,15.0,12.0,0.0
2766,49.0,10.0,15.0,13.0,0.0
2767,65.0,1.0,15.0,10.0,0.0
2768,62.0,2.0,15.0,11.0,0.0
2769,53.0,1.0,15.0,12.0,0.0
2770,49.0,1.0,15.0,13.0,0.0
2771,68.0,1.0,15.0,10.0,0.0
2772,65.0,2.0,15.0,11.0,0.0
2773,80.0,0.0,60.0,2.0,0.0
2774,77.0,10.0,60.0,2.0,0.0
2775,56.0,3.0,180.0,7.0,0.0
2776,56.0,2.0,15.0,12.0,0.0
2777,53.0,10.0,15.0,13.0,0.0
2778,68.0,1.0,180.0,3.0,0.0
2779,50.0,0.0,180.0,8.0,0.0
2780,38.0,5.0,180.0,14.0,0.0
2781,68.0,1.0,15.0,10.0,0.0
2782,65.0,2.0,15.0,11.0,0.0
2783,56.0,2.0,15.0,12.0,0.0
2784,53.0,10.0,15.0,13.0,0.0
2785,68.0,1.0,15.0,10.0,0.0
2786,65.0,2.0,15.0,11.0,0.0
2787,56.0,2.0,15.0,12.0,0.0
2788,53.0,10.0,15.0,13.0,0.0
2789,68.0,1.0,15.0,10.0,0.0
2790,65.0,2.0,15.0,11.0,0.0
2791,56.0,2.0,15.0,12.0,0.0
2792,53.0,0.0,15.0,13.0,0.0
2793,68.0,1.0,15.0,10.0,0.0
2794,65.0,2.0,15.0,11.0,0.0
2795,82.0,0.0,60.0,2.0,0.0
2796,79.0,10.0,60.0,2.0,0.0
2797,56.0,2.0,15.0,12.0,0.0
2798,53.0,10.0,15.0,13.0,0.0
2799,68.0,1.0,15.0,10.0,0.0
2800,65.0,2.0,15.0,11.0,0.0
2801,56.0,2.0,15.0,12.0,0.0
2802,53.0,10.0,15.0,13.0,0.0
2803,68.0,1.0,15.0,10.0,0.0
2804,65.0,2.0,15.0,11.0,0.0
2805,56.0,2.0,15.0,12.0,0.0
2806,53.0,10.0,15.0,13.0,0.0
2807,68.0,1.0,15.0,10.0,0.0
2808,65.0,2.0,15.0,11.0,0.0
2809,56.0,2.0,15.0,12.0,0.0
2810,53.0,0.0,15.0,13.0,0.0
2811,68.0,1.0,15.0,10.0,0.0
2812,65.0,2.0,15.0,11.0,0.0
2813,80.0,4.0,240.0,2.0,0.0
2814,83.0,0.0,240.0,2.0,0.0
2815,56.0,2.0,15.0,12.0,0.0
2816,53.0,10.0,15.0,13.0,0.0
2817,68.0,1.0,15.0,10.0,0.0
2818,65.0,2.0,15.0,11.0,0.0
2819,56.0,2.0,15.0,12.0,0.0
2820,53.0,10.0,15.0,13.0,0.0
2821,68.0,1.0,15.0,10.0,0.0
2822,65.0,2.0,15.0,11.0,0.0
2823,56.0,2.0,15.0,12.0,0.0
2824,53.0,10.0,15.0,13.0,0.0
2825,68.0,1.0,15.0,10.0,0.0
2826,65.0,2.0,15.0,11.0,0.0
2827,56.0,2.0,15.0,12.0,0.0
2828,53.0,1.0,15.0,13.0,0.0
2829,68.0,1.0,15.0,10.0,0.0
2830,65.0,2.0,15.0,11.0,0.0
2831,56.0,2.0,15.0,12.0,0.0
2832,53.0,10.0,15.0,13.0,0.0
2833,49.0,1.0,180.0,8.0,0.0
2834,37.0,5.0,180.0,14.0,0.0
2835,68.0,1.0,15.0,10.0,0.0
2836,65.0,2.0,15.0,11.0,0.0
2837,56.0,2.0,15.0,12.0,0.0
2838,53.0,10.0,15.0,13.0,0.0
2839,68.0,1.0,15.0,10.0,0.0
2840,65.0,2.0,15.0,11.0,0.0
2841,56.0,2.0,15.0,12.0,0.0
2842,53.0,10.0,15.0,13.0,0.0
2843,68.0,1.0,15.0,10.0,0.0
2844,65.0,2.0,15.0,11.0,0.0
2845,56.0,2.0,15.0,12.0,0.0
2846,53.0,10.0,15.0,13.0,0.0
2847,68.0,1.0,15.0,10.0,0.0
2848,65.0,2.0,15.0,11.0,0.0
2849,56.0,2.0,15.0,12.0,0.0
2850,53.0,10.0,15.0,13.0,0.0
2851,68.0,1.0,15.0,10.0,0.0
2852,65.0,2.0,15.0,11.0,0.0
2853,56.0,2.0,15.0,12.0,0.0
2854,53.0,10.0,15.0,13.0,0.0
2855,68.0,1.0,15.0,10.0,0.0
2856,65.0,2.0,15.0,11.0,0.0
2857,56.0,2.0,15.0,12.0,0.0
2858,53.0,10.0,15.0,13.0,0.0
2859,68.0,1.0,15.0,10.0,0.0
2860,65.0,2.0,15.0,11.0,0.0
2861,56.0,2.0,15.0,12.0,0.0
2862,53.0,10.0,15.0,13.0,0.0
2863,68.0,1.0,15.0,10.0,0.0
2864,65.0,2.0,15.0,11.0,0.0
2865,56.0,2.0,15.0,12.0,0.0
2866,53.0,10.0,15.0,13.0,0.0
2867,68.0,1.0,15.0,10.0,0.0
2868,65.0,2.0,15.0,11.0,0.0
2869,56.0,2.0,15.0,12.0,0.0
2870,53.0,10.0,15.0,13.0,0.0
2871,68.0,1.0,15.0,10.0,0.0
2872,65.0,2.0,15.0,11.0,0.0
2873,56.0,2.0,15.0,12.0,0.0
2874,53.0,10.0,15.0,13.0,0.0
2875,68.0,1.0,15.0,10.0,0.0
2876,65.0,2.0,15.0,11.0,0.0
2877,56.0,2.0,15.0,12.0,0.0
2878,53.0,0.0,15.0,13.0,0.0
2879,65.0,1.0,15.0,10.0,0.0
2880,74.0,1.0,60.0,1.0,0.0
2881,86.0,0.0,60.0,1.0,0.0
2882,62.0,2.0,15.0,11.0,0.0
2883,56.0,3.0,180.0,7.0,0.0
2884,53.0,2.0,15.0,12.0,0.0
2885,50.0,10.0,15.0,13.0,0.0
2886,68.0,1.0,180.0,3.0,0.0
2887,50.0,0.0,180.0,8.0,0.0
2888,38.0,5.0,180.0,14.0,0.0
2889,65.0,1.0,15.0,10.0,0.0
2890,62.0,2.0,15.0,11.0,0.0
2891,53.0,2.0,15.0,12.0,0.0
2892,50.0,10.0,15.0,13.0,0.0
2893,65.0,1.0,15.0,10.0,0.0
2894,62.0,2.0,15.0,11.0,0.0
2895,53.0,2.0,15.0,12.0,0.0
2896,50.0,10.0,15.0,13.0,0.0
2897,65.0,1.0,15.0,10.0,0.0
2898,62.0,2.0,15.0,11.0,0.0
2899,53.0,1.0,15.0,12.0,0.0
2900,50.0,10.0,15.0,13.0,0.0
2901,65.0,1.0,15.0,10.0,0.0
2902,62.0,2.0,15.0,11.0,0.0
2903,75.0,1.0,60.0,1.0,0.0
2904,87.0,0.0,60.0,1.0,0.0
2905,53.0,2.0,15.0,12.0,0.0
2906,50.0,10.0,15.0,13.0,0.0
2907,65.0,1.0,15.0,10.0,0.0
2908,62.0,2.0,15.0,11.0,0.0
2909,53.0,2.0,15.0,12.0,0.0
2910,50.0,10.0,15.0,13.0,0.0
2911,65.0,1.0,15.0,10.0,0.0
2912,62.0,2.0,15.0,11.0,0.0
2913,53.0,2.0,15.0,12.0,0.0
2914,50.0,10.0,15.0,13.0,0.0
2915,65.0,1.0,15.0,10.0,0.0
2916,62.0,2.0,15.0,11.0,0.0
2917,53.0,1.0,15.0,12.0,0.0
2918,50.0,10.0,15.0,13.0,0.0
2919,65.0,1.0,15.0,10.0,0.0
2920,89.0,1.0,240.0,1.0,0.0
2921,77.0,0.0,240.0,1.0,0.0
2922,62.0,2.0,15.0,11.0,0.0
2923,53.0,2.0,15.0,12.0,0.0
2924,50.0,10.0,15.0,13.0,0.0
2925,65.0,1.0,15.0,10.0,0.0
2926,62.0,2.0,15.0,11.0,0.0
2927,53.0,2.0,15.0,12.0,0.0
2928,50.0,10.0,15.0,13.0,0.0
2929,65.0,1.0,15.0,10.0,0.0
2930,62.0,2.0,15.0,11.0,0.0
2931,53.0,2.0,15.0,12.0,0.0
2932,50.0,10.0,15.0,13.0,0.0
2933,65.0,1.0,15.0,10.0,0.0
2934,62.0,2.0,15.0,11.0,0.0
2935,53.0,2.0,15.0,12.0,0.0
2936,50.0,1.0,15.0,13.0,0.0
2937,65.0,1.0,15.0,10.0,0.0
2938,62.0,2.0,15.0,11.0,0.0
2939,57.0,3.0,180.0,7.0,0.0
2940,53.0,2.0,15.0,12.0,0.0
2941,50.0,10.0,15.0,13.0,0.0
2942,69.0,6.0,180.0,3.0,0.0
2943,65.0,1.0,15.0,10.0,0.0
2944,62.0,2.0,15.0,11.0,0.0
2945,53.0,2.0,15.0,12.0,0.0
2946,50.0,10.0,15.0,13.0,0.0
2947,65.0,1.0,15.0,10.0,0.0
2948,62.0,2.0,15.0,11.0,0.0
2949,53.0,2.0,15.0,12.0,0.0
2950,50.0,10.0,15.0,13.0,0.0
2951,65.0,1.0,15.0,10.0,0.0
2952,62.0,2.0,15.0,11.0,0.0
2953,53.0,2.0,15.0,12.0,0.0
2954,50.0,10.0,15.0,13.0,0.0
2955,65.0,1.0,15.0,10.0,0.0
2956,62.0,2.0,15.0,11.0,0.0
2957,53.0,2.0,15.0,12.0,0.0
2958,50.0,10.0,15.0,13.0,0.0
2959,65.0,1.0,15.0,10.0,0.0
2960,62.0,2.0,15.0,11.0,0.0
2961,53.0,2.0,15.0,12.0,0.0
2962,50.0,10.0,15.0,13.0,0.0
2963,65.0,1.0,15.0,10.0,0.0
2964,62.0,2.0,15.0,11.0,0.0
2965,53.0,2.0,15.0,12.0,0.0
2966,50.0,10.0,15.0,13.0,0.0
2967,65.0,1.0,15.0,10.0,0.0
2968,62.0,2.0,15.0,11.0,0.0
2969,53.0,2.0,15.0,12.0,0.0
2970,50.0,10.0,15.0,13.0,0.0
2971,65.0,1.0,15.0,10.0,0.0
2972,62.0,2.0,15.0,11.0,0.0
2973,53.0,2.0,15.0,12.0,0.0
2974,50.0,10.0,15.0,13.0,0.0
2975,65.0,1.0,15.0,10.0,0.0
2976,62.0,2.0,15.0,11.0,0.0
2977,53.0,2.0,15.0,12.0,0.0
2978,50.0,10.0,15.0,13.0,0.0
2979,65.0,1.0,15.0,10.0,0.0
2980,62.0,2.0,15.0,11.0,0.0
2981,53.0,2.0,15.0,12.0,0.0
2982,50.0,10.0,15.0,13.0,0.0
2983,65.0,1.0,15.0,10.0,0.0
2984,62.0,2.0,15.0,11.0,0.0
2985,53.0,1.0,15.0,12.0,0.0
2986,50.0,1.0,15.0,13.0,0.0
2987,92.0,2.0,60.0,0.0,0.0
2988,68.0,1.0,15.0,10.0,0.0
2989,89.0,0.0,60.0,0.0,0.0
2990,65.0,2.0,15.0,11.0,0.0
2991,77.0,10.0,60.0,2.0,0.0
2992,80.0,0.0,60.0,2.0,0.0
2993,56.0,2.0,15.0,12.0,0.0
2994,56.0,3.0,180.0,7.0,0.0
2995,53.0,10.0,15.0,13.0,0.0
2996,50.0,1.0,300.0,8.0,0.0
2997,68.0,1.0,180.0,3.0,0.0
2998,38.0,3.0,180.0,14.0,0.0
2999,68.0,1.0,15.0,10.0,0.0
3000,65.0,2.0,15.0,11.0,0.0
3001,56.0,2.0,15.0,12.0,0.0
3002,53.0,10.0,15.0,13.0,0.0
3003,68.0,1.0,15.0,10.0,0.0
3004,65.0,2.0,15.0,11.0,0.0
3005,56.0,2.0,15.0,12.0,0.0
3006,53.0,10.0,15.0,13.0,0.0
3007,68.0,1.0,15.0,10.0,0.0
3008,65.0,2.0,15.0,11.0,0.0
3009,56.0,0.0,15.0,12.0,0.0
3010,53.0,0.0,15.0,13.0,0.0
3011,68.0,1.0,15.0,10.0,0.0
3012,94.0,0.0,60.0,0.0,0.0
3013,91.0,0.0,60.0,0.0,0.0
3014,65.0,2.0,15.0,11.0,0.0
3015,79.0,0.0,60.0,2.0,0.0
3016,82.0,0.0,60.0,2.0,0.0
3017,56.0,2.0,15.0,12.0,0.0
3018,53.0,10.0,15.0,13.0,0.0
3019,68.0,1.0,15.0,10.0,0.0
3020,65.0,2.0,15.0,11.0,0.0
3021,56.0,2.0,15.0,12.0,0.0
3022,53.0,10.0,15.0,13.0,0.0
3023,68.0,1.0,15.0,10.0,0.0
3024,65.0,2.0,15.0,11.0,0.0
3025,56.0,2.0,15.0,12.0,0.0
3026,53.0,10.0,15.0,13.0,0.0
3027,68.0,1.0,15.0,10.0,0.0
3028,65.0,2.0,15.0,11.0,0.0
3029,56.0,2.0,15.0,12.0,0.0
3030,53.0,10.0,15.0,13.0,0.0
3031,92.0,2.0,180.0,0.0,0.0
3032,95.0,0.0,180.0,0.0,0.0
3033,68.0,1.0,15.0,10.0,0.0
3034,65.0,2.0,15.0,11.0,0.0
3035,80.0,0.0,180.0,2.0,0.0
3036,83.0,3.0,180.0,2.0,0.0
3037,56.0,2.0,15.0,12.0,0.0
3038,53.0,10.0,15.0,13.0,0.0
3039,68.0,1.0,15.0,10.0,0.0
3040,65.0,2.0,15.0,11.0,0.0
3041,56.0,2.0,15.0,12.0,0.0
3042,53.0,10.0,15.0,13.0,0.0
3043,68.0,1.0,15.0,10.0,0.0
3044,65.0,2.0,15.0,11.0,0.0
3045,56.0,2.0,15.0,12.0,0.0
3046,53.0,10.0,15.0,13.0,0.0
3047,68.0,1.0,15.0,10.0,0.0
3048,65.0,2.0,15.0,11.0,0.0
3049,56.0,2.0,15.0,12.0,0.0
3050,53.0,1.0,15.0,13.0,0.0
3051,68.0,0.0,60.0,10.0,0.0
3052,65.0,1.0,60.0,11.0,0.0
3053,56.0,2.0,15.0,12.0,0.0
3054,53.0,8.0,15.0,13.0,0.0
3055,37.0,33.0,120.0,14.0,0.0
3056,56.0,2.0,15.0,12.0,0.0
3057,53.0,8.0,15.0,13.0,0.0
3058,56.0,2.0,15.0,12.0,0.0
3059,53.0,8.0,15.0,13.0,0.0
3060,56.0,2.0,15.0,12.0,0.0
3061,53.0,8.0,15.0,13.0,0.0
3062,56.0,2.0,15.0,12.0,0.0
3063,53.0,8.0,15.0,13.0,0.0
3064,56.0,1.0,15.0,12.0,0.0
3065,53.0,8.0,15.0,13.0,0.0
3066,56.0,2.0,15.0,12.0,0.0
3067,53.0,8.0,15.0,13.0,0.0
3068,56.0,2.0,15.0,12.0,0.0
3069,53.0,8.0,15.0,13.0,0.0
3070,56.0,2.0,15.0,12.0,0.0
3071,53.0,8.0,15.0,13.0,0.0
3072,56.0,2.0,15.0,12.0,0.0
3073,53.0,8.0,15.0,13.0,0.0
3074,56.0,2.0,15.0,12.0,0.0
3075,53.0,3.0,15.0,13.0,0.0
3076,56.0,2.0,15.0,12.0,0.0
3077,53.0,4.0,15.0,13.0,0.0
3078,90.0,1.0,120.0,10.0,0.0
3079,94.0,0.0,40.0,0.0,0.0
3080,90.0,1.0,40.0,0.0,0.0
3081,78.0,5.0,120.0,11.0,0.0
3082,82.0,1.0,40.0,1.0,0.0
3083,82.0,38.0,40.0,2.0,0.0
3084,78.0,0.0,40.0,2.0,0.0
3085,54.0,2.0,360.0,12.0,0.0
3086,42.0,0.0,360.0,13.0,0.0
3087,42.0,0.0,240.0,8.0,0.0
3088,54.0,24.0,90.0,3.0,0.0
3089,42.0,4.0,360.0,14.0,0.0
3090,95.0,1.0,40.0,0.0,0.0
3091,83.0,15.0,40.0,1.0,0.0
3092,97.0,1.0,150.0,0.0,0.0
3093,85.0,3.0,150.0,1.0,0.0
3094,56.0,110.0,30.0,3.0,0.0
3095,88.0,1.0,120.0,10.0,0.0
3096,76.0,5.0,120.0,11.0,0.0
3097,58.0,34.0,120.0,3.0,0.0
3098,90.0,1.0,40.0,0.0,0.0
3099,87.0,1.0,90.0,10.0,0.0
3100,78.0,39.0,40.0,1.0,0.0
3101,75.0,5.0,90.0,11.0,0.0
3102,60.0,22.0,90.0,3.0,0.0
3103,92.0,1.0,40.0,0.0,0.0
3104,80.0,9.0,40.0,1.0,0.0
3105,93.0,1.0,150.0,0.0,0.0
3106,81.0,4.0,150.0,1.0,0.0
3107,85.0,1.0,30.0,10.0,0.0
3108,73.0,1.0,30.0,11.0,0.0
3109,61.0,109.0,30.0,3.0,0.0
3110,84.0,1.0,120.0,10.0,0.0
3111,72.0,0.0,120.0,11.0,0.0
3112,54.0,2.0,480.0,12.0,0.0
3113,42.0,6.0,480.0,13.0,0.0
3114,63.0,39.0,120.0,3.0,0.0
3115,42.0,3.0,600.0,14.0,0.0
3116,92.0,1.0,40.0,0.0,0.0
3117,90.0,1.0,120.0,10.0,0.0
3118,80.0,39.0,40.0,1.0,0.0
3119,78.0,5.0,120.0,11.0,0.0
3120,62.0,75.0,120.0,3.0,0.0
3121,94.0,1.0,40.0,0.0,0.0
3122,82.0,39.0,40.0,1.0,0.0
3123,95.0,1.0,150.0,0.0,0.0
3124,83.0,3.0,150.0,1.0,0.0
3125,88.0,1.0,120.0,10.0,0.0
3126,76.0,5.0,120.0,11.0,0.0
3127,61.0,15.0,60.0,3.0,0.0
3128,63.0,15.0,15.0,3.0,0.0
3129,64.0,5.0,15.0,3.0,0.0
3130,66.0,34.0,15.0,3.0,0.0
3131,85.0,1.0,90.0,10.0,0.0
3132,88.0,1.0,40.0,0.0,0.0
3133,73.0,24.0,90.0,11.0,0.0
3134,76.0,39.0,40.0,1.0,0.0
3135,67.0,4.0,90.0,3.0,0.0
3136,90.0,1.0,40.0,0.0,0.0
3137,78.0,5.0,40.0,1.0,0.0
3138,91.0,1.0,60.0,0.0,0.0
3139,79.0,1.0,60.0,1.0,0.0
3140,79.0,18.0,60.0,2.0,0.0
3141,64.0,14.0,40.0,3.0,0.0
3142,82.0,1.0,30.0,10.0,0.0
3143,70.0,2.0,30.0,11.0,0.0
3144,71.0,0.0,40.0,10.0,0.0
3145,71.0,0.0,40.0,11.0,0.0
3146,59.0,17.0,40.0,12.0,0.0
3147,54.0,15.0,120.0,13.0,0.0
3148,90.0,1.0,20.0,0.0,0.0
3149,78.0,1.0,20.0,1.0,0.0
3150,78.0,1.0,20.0,2.0,0.0
3151,73.0,1.0,40.0,10.0,0.0
3152,88.0,1.0,20.0,0.0,0.0
3153,76.0,1.0,20.0,1.0,0.0
3154,73.0,0.0,40.0,11.0,0.0
3155,76.0,18.0,20.0,2.0,0.0
3156,61.0,17.0,40.0,12.0,0.0
3157,86.0,0.0,20.0,0.0,0.0
3158,74.0,1.0,20.0,1.0,0.0
3159,74.0,1.0,20.0,2.0,0.0
3160,74.0,0.0,90.0,10.0,0.0
3161,85.0,1.0,20.0,0.0,0.0
3162,74.0,1.0,40.0,11.0,0.0
3163,73.0,1.0,20.0,1.0,0.0
3164,73.0,13.0,20.0,2.0,0.0
3165,62.0,0.0,90.0,12.0,0.0
3166,83.0,1.0,15.0,0.0,0.0
3167,71.0,1.0,15.0,1.0,0.0
3168,71.0,4.0,15.0,2.0,0.0
3169,95.0,1.0,20.0,0.0,0.0
3170,83.0,1.0,20.0,1.0,0.0
3171,71.0,1.0,40.0,11.0,0.0
3172,83.0,18.0,20.0,2.0,0.0
3173,59.0,17.0,40.0,12.0,0.0
3174,55.0,2.0,120.0,13.0,0.0
3175,43.0,1.0,120.0,14.0,0.0
3176,90.0,1.0,20.0,0.0,0.0
3177,78.0,0.0,20.0,1.0,0.0
3178,78.0,1.0,20.0,2.0,0.0
3179,76.0,1.0,40.0,10.0,0.0
3180,88.0,1.0,20.0,0.0,0.0
3181,76.0,1.0,20.0,1.0,0.0
3182,73.0,1.0,40.0,11.0,0.0
3183,76.0,18.0,20.0,2.0,0.0
3184,61.0,0.0,40.0,12.0,0.0
3185,64.0,17.0,40.0,12.0,0.0
3186,86.0,0.0,20.0,0.0,0.0
3187,74.0,0.0,20.0,1.0,0.0
3188,74.0,1.0,20.0,2.0,0.0
3189,85.0,1.0,20.0,0.0,0.0
3190,77.0,1.0,40.0,10.0,0.0
3191,74.0,1.0,40.0,11.0,0.0
3192,73.0,1.0,20.0,1.0,0.0
3193,73.0,13.0,20.0,2.0,0.0
3194,62.0,2.0,40.0,12.0,0.0
3195,65.0,0.0,40.0,12.0,0.0
3196,83.0,1.0,15.0,0.0,0.0
3197,71.0,1.0,15.0,1.0,0.0
3198,71.0,3.0,15.0,2.0,0.0
3199,98.0,1.0,15.0,0.0,0.0
3200,86.0,1.0,15.0,10.0,0.0
3201,86.0,1.0,15.0,1.0,0.0
3202,86.0,2.0,15.0,11.0,0.0
3203,86.0,1.0,15.0,2.0,0.0
3204,59.0,0.0,15.0,12.0,0.0
3205,56.0,5.0,15.0,12.0,0.0
3206,74.0,0.0,15.0,12.0,0.0
3207,65.0,0.0,15.0,12.0,0.0
3208,56.0,2.0,20.0,13.0,0.0
3209,44.0,1.0,20.0,14.0,0.0
3210,86.0,2.0,15.0,11.0,0.0
3211,65.0,0.0,15.0,12.0,0.0
3212,59.0,0.0,15.0,12.0,0.0
3213,56.0,5.0,15.0,12.0,0.0
3214,74.0,0.0,15.0,12.0,0.0
3215,83.0,0.0,15.0,10.0,0.0
3216,95.0,1.0,15.0,0.0,0.0
3217,83.0,1.0,15.0,1.0,0.0
3218,83.0,2.0,15.0,11.0,0.0
3219,83.0,1.0,15.0,2.0,0.0
3220,71.0,5.0,15.0,12.0,0.0
3221,83.0,2.0,15.0,11.0,0.0
3222,71.0,7.0,15.0,12.0,0.0
3223,92.0,1.0,15.0,0.0,0.0
3224,80.0,1.0,15.0,10.0,0.0
3225,80.0,2.0,15.0,11.0,0.0
3226,80.0,1.0,15.0,1.0,0.0
3227,80.0,1.0,15.0,2.0,0.0
3228,68.0,5.0,15.0,12.0,0.0
3229,80.0,2.0,15.0,11.0,0.0
3230,68.0,7.0,15.0,12.0,0.0
3231,77.0,1.0,15.0,10.0,0.0
3232,89.0,1.0,15.0,0.0,0.0
3233,77.0,1.0,15.0,1.0,0.0
3234,77.0,2.0,15.0,11.0,0.0
3235,77.0,1.0,15.0,2.0,0.0
3236,65.0,2.0,15.0,12.0,0.0
3237,65.0,3.0,15.0,13.0,0.0
3238,77.0,2.0,15.0,11.0,0.0
3239,65.0,7.0,15.0,12.0,0.0
3240,74.0,1.0,15.0,10.0,0.0
3241,86.0,1.0,15.0,0.0,0.0
3242,74.0,2.0,15.0,11.0,0.0
3243,74.0,1.0,15.0,1.0,0.0
3244,74.0,1.0,15.0,2.0,0.0
3245,62.0,2.0,15.0,12.0,0.0
3246,62.0,3.0,15.0,13.0,0.0
3247,74.0,2.0,15.0,11.0,0.0
3248,62.0,7.0,15.0,12.0,0.0
3249,71.0,1.0,15.0,10.0,0.0
3250,83.0,1.0,15.0,0.0,0.0
3251,71.0,2.0,15.0,11.0,0.0
3252,71.0,1.0,15.0,1.0,0.0
3253,71.0,1.0,15.0,2.0,0.0
3254,59.0,2.0,15.0,12.0,0.0
3255,59.0,3.0,15.0,13.0,0.0
3256,71.0,2.0,15.0,11.0,0.0
3257,59.0,6.0,15.0,12.0,0.0
3258,80.0,1.0,20.0,0.0,0.0
3259,68.0,1.0,15.0,10.0,0.0
3260,68.0,1.0,20.0,1.0,0.0
3261,68.0,2.0,15.0,11.0,0.0
3262,68.0,4.0,20.0,2.0,0.0
3263,56.0,3.0,15.0,12.0,0.0
3264,56.0,1.0,15.0,13.0,0.0
3265,68.0,1.0,15.0,3.0,0.0
3266,56.0,0.0,15.0,3.0,0.0
3267,56.0,2.0,15.0,14.0,0.0
3268,68.0,1.0,15.0,10.0,0.0
3269,68.0,2.0,15.0,11.0,0.0
3270,56.0,1.0,15.0,12.0,0.0
3271,68.0,1.0,15.0,10.0,0.0
3272,68.0,2.0,15.0,11.0,0.0
3273,53.0,3.0,15.0,12.0,0.0
3274,65.0,1.0,15.0,13.0,0.0
3275,53.0,1.0,15.0,3.0,0.0
3276,65.0,0.0,15.0,3.0,0.0
3277,53.0,2.0,15.0,14.0,0.0
3278,68.0,1.0,15.0,10.0,0.0
3279,68.0,2.0,15.0,11.0,0.0
3280,53.0,7.0,15.0,12.0,0.0
3281,68.0,1.0,15.0,10.0,0.0
3282,68.0,2.0,15.0,11.0,0.0
3283,53.0,3.0,15.0,12.0,0.0
3284,62.0,1.0,15.0,13.0,0.0
3285,62.0,1.0,15.0,3.0,0.0
3286,50.0,0.0,15.0,3.0,0.0
3287,50.0,2.0,15.0,14.0,0.0
3288,68.0,1.0,15.0,10.0,0.0
3289,68.0,2.0,15.0,11.0,0.0
3290,53.0,7.0,15.0,12.0,0.0
3291,68.0,1.0,15.0,10.0,0.0
3292,65.0,2.0,15.0,11.0,0.0
3293,53.0,3.0,15.0,12.0,0.0
3294,59.0,1.0,15.0,13.0,0.0
3295,47.0,0.0,15.0,3.0,0.0
3296,59.0,1.0,15.0,3.0,0.0
3297,47.0,2.0,15.0,14.0,0.0
3298,68.0,1.0,15.0,10.0,0.0
3299,65.0,2.0,15.0,11.0,0.0
3300,53.0,7.0,15.0,12.0,0.0
3301,68.0,1.0,15.0,10.0,0.0
3302,65.0,2.0,15.0,11.0,0.0
3303,53.0,3.0,15.0,12.0,0.0
3304,56.0,1.0,15.0,13.0,0.0
3305,44.0,0.0,15.0,3.0,0.0
3306,56.0,1.0,15.0,3.0,0.0
3307,44.0,2.0,15.0,14.0,0.0
3308,68.0,1.0,15.0,10.0,0.0
3309,65.0,2.0,15.0,11.0,0.0
3310,53.0,7.0,15.0,12.0,0.0
3311,68.0,1.0,15.0,10.0,0.0
3312,65.0,2.0,15.0,11.0,0.0
3313,53.0,3.0,15.0,12.0,0.0
3314,54.0,1.0,15.0,13.0,0.0
3315,54.0,0.0,15.0,3.0,0.0
3316,42.0,1.0,15.0,3.0,0.0
3317,42.0,2.0,15.0,14.0,0.0
3318,68.0,1.0,15.0,10.0,0.0
3319,65.0,2.0,15.0,11.0,0.0
3320,53.0,7.0,15.0,12.0,0.0
3321,68.0,1.0,15.0,10.0,0.0
3322,65.0,2.0,15.0,11.0,0.0
3323,53.0,7.0,15.0,12.0,0.0
3324,53.0,1.0,30.0,13.0,0.0
3325,53.0,1.0,30.0,3.0,0.0
3326,41.0,0.0,30.0,3.0,0.0
3327,41.0,0.0,30.0,14.0,0.0
3328,68.0,1.0,15.0,10.0,0.0
3329,65.0,2.0,15.0,11.0,0.0
3330,53.0,7.0,15.0,12.0,0.0
3331,68.0,1.0,15.0,10.0,0.0
3332,65.0,2.0,15.0,11.0,0.0
3333,53.0,6.0,15.0,12.0,0.0
3334,68.0,0.0,15.0,10.0,0.0
3335,65.0,2.0,15.0,11.0,0.0
3336,53.0,7.0,15.0,12.0,0.0
3337,68.0,1.0,15.0,10.0,0.0
3338,65.0,2.0,15.0,11.0,0.0
3339,53.0,7.0,15.0,12.0,0.0
3340,68.0,1.0,15.0,10.0,0.0
3341,65.0,2.0,15.0,11.0,0.0
3342,53.0,7.0,15.0,12.0,0.0
3343,68.0,1.0,15.0,10.0,0.0
3344,65.0,2.0,15.0,11.0,0.0
3345,53.0,7.0,15.0,12.0,0.0
3346,68.0,1.0,15.0,10.0,0.0
3347,65.0,2.0,15.0,11.0,0.0
3348,53.0,7.0,15.0,12.0,0.0
3349,68.0,1.0,15.0,10.0,0.0
3350,65.0,2.0,15.0,11.0,0.0
3351,53.0,7.0,15.0,12.0,0.0
3352,68.0,1.0,15.0,10.0,0.0
3353,65.0,2.0,15.0,11.0,0.0
3354,53.0,7.0,15.0,12.0,0.0
3355,68.0,1.0,15.0,10.0,0.0
3356,65.0,2.0,15.0,11.0,0.0
3357,53.0,7.0,15.0,12.0,0.0
3358,68.0,1.0,15.0,10.0,0.0
3359,65.0,2.0,15.0,11.0,0.0
3360,53.0,7.0,15.0,12.0,0.0
3361,89.0,1.0,40.0,0.0,0.0
3362,68.0,1.0,15.0,10.0,0.0
3363,65.0,2.0,15.0,11.0,0.0
3364,77.0,4.0,40.0,2.0,0.0
3365,56.0,2.0,15.0,12.0,0.0
3366,59.0,3.0,120.0,7.0,0.0
3367,53.0,5.0,15.0,13.0,0.0
3368,68.0,1.0,15.0,10.0,0.0
3369,65.0,2.0,15.0,11.0,0.0
3370,56.0,2.0,15.0,12.0,0.0
3371,53.0,5.0,15.0,13.0,0.0
3372,68.0,1.0,15.0,10.0,0.0
3373,65.0,2.0,15.0,11.0,0.0
3374,56.0,2.0,15.0,12.0,0.0
3375,53.0,5.0,15.0,13.0,0.0
3376,68.0,1.0,15.0,10.0,0.0
3377,65.0,2.0,15.0,11.0,0.0
3378,56.0,1.0,15.0,12.0,0.0
3379,53.0,1.0,15.0,13.0,0.0
3380,91.0,1.0,40.0,0.0,0.0
3381,68.0,1.0,15.0,10.0,0.0
3382,65.0,2.0,15.0,11.0,0.0
3383,79.0,4.0,40.0,2.0,0.0
3384,56.0,2.0,15.0,12.0,0.0
3385,53.0,5.0,15.0,13.0,0.0
3386,68.0,1.0,15.0,10.0,0.0
3387,65.0,2.0,15.0,11.0,0.0
3388,56.0,2.0,15.0,12.0,0.0
3389,53.0,5.0,15.0,13.0,0.0
3390,68.0,1.0,15.0,10.0,0.0
3391,65.0,2.0,15.0,11.0,0.0
3392,56.0,2.0,15.0,12.0,0.0
3393,53.0,5.0,15.0,13.0,0.0
3394,68.0,1.0,15.0,10.0,0.0
3395,65.0,2.0,15.0,11.0,0.0
3396,56.0,1.0,15.0,12.0,0.0
3397,53.0,1.0,15.0,13.0,0.0
3398,68.0,1.0,15.0,10.0,0.0
3399,92.0,1.0,150.0,0.0,0.0
3400,65.0,2.0,15.0,11.0,0.0
3401,80.0,2.0,150.0,2.0,0.0
3402,56.0,2.0,15.0,12.0,0.0
3403,53.0,5.0,15.0,13.0,0.0
3404,68.0,1.0,15.0,10.0,0.0
3405,65.0,2.0,15.0,11.0,0.0
3406,56.0,2.0,15.0,12.0,0.0
3407,53.0,5.0,15.0,13.0,0.0
3408,68.0,1.0,15.0,10.0,0.0
3409,65.0,2.0,15.0,11.0,0.0
3410,56.0,2.0,15.0,12.0,0.0
3411,53.0,5.0,15.0,13.0,0.0
3412,68.0,1.0,15.0,10.0,0.0
3413,65.0,2.0,15.0,11.0,0.0
3414,56.0,2.0,15.0,12.0,0.0
3415,53.0,2.0,15.0,13.0,0.0
3416,68.0,1.0,15.0,10.0,0.0
3417,65.0,2.0,15.0,11.0,0.0
3418,56.0,2.0,15.0,12.0,0.0
3419,61.0,3.0,120.0,7.0,0.0
3420,53.0,5.0,15.0,13.0,0.0
3421,68.0,1.0,15.0,10.0,0.0
3422,65.0,2.0,15.0,11.0,0.0
3423,56.0,2.0,15.0,12.0,0.0
3424,53.0,5.0,15.0,13.0,0.0
3425,68.0,1.0,15.0,10.0,0.0
3426,65.0,2.0,15.0,11.0,0.0
3427,56.0,2.0,15.0,12.0,0.0
3428,53.0,5.0,15.0,13.0,0.0
3429,68.0,1.0,15.0,10.0,0.0
3430,65.0,2.0,15.0,11.0,0.0
3431,56.0,2.0,15.0,12.0,0.0
3432,53.0,5.0,15.0,13.0,0.0
3433,68.0,1.0,15.0,10.0,0.0
3434,65.0,2.0,15.0,11.0,0.0
3435,56.0,2.0,15.0,12.0,0.0
3436,53.0,5.0,15.0,13.0,0.0
3437,68.0,1.0,15.0,10.0,0.0
3438,65.0,2.0,15.0,11.0,0.0
3439,56.0,2.0,15.0,12.0,0.0
3440,53.0,5.0,15.0,13.0,0.0
3441,68.0,1.0,15.0,10.0,0.0
3442,65.0,2.0,15.0,11.0,0.0
3443,56.0,2.0,15.0,12.0,0.0
3444,53.0,5.0,15.0,13.0,0.0
3445,68.0,1.0,15.0,10.0,0.0
3446,65.0,2.0,15.0,11.0,0.0
3447,56.0,2.0,15.0,12.0,0.0
3448,53.0,5.0,15.0,13.0,0.0
3449,68.0,1.0,15.0,10.0,0.0
3450,65.0,2.0,15.0,11.0,0.0
3451,56.0,2.0,15.0,12.0,0.0
3452,53.0,5.0,15.0,13.0,0.0
3453,68.0,1.0,15.0,10.0,0.0
3454,65.0,2.0,15.0,11.0,0.0
3455,56.0,2.0,15.0,12.0,0.0
3456,53.0,5.0,15.0,13.0,0.0
3457,68.0,1.0,15.0,10.0,0.0
3458,65.0,2.0,15.0,11.0,0.0
3459,56.0,2.0,15.0,12.0,0.0
3460,53.0,4.0,15.0,13.0,0.0
3461,68.0,1.0,15.0,10.0,0.0
3462,65.0,0.0,15.0,11.0,0.0
3463,56.0,2.0,15.0,12.0,0.0
3464,53.0,2.0,15.0,13.0,0.0
3465,68.0,1.0,15.0,10.0,0.0
3466,80.0,1.0,40.0,1.0,0.0
3467,77.0,0.0,40.0,1.0,0.0
3468,65.0,2.0,15.0,11.0,0.0
3469,68.0,4.0,40.0,2.0,0.0
3470,65.0,0.0,40.0,2.0,0.0
3471,56.0,2.0,15.0,12.0,0.0
3472,59.0,3.0,120.0,7.0,0.0
3473,53.0,5.0,15.0,13.0,0.0
3474,50.0,0.0,120.0,8.0,0.0
3475,38.0,0.0,120.0,14.0,0.0
3476,68.0,1.0,15.0,10.0,0.0
3477,65.0,2.0,15.0,11.0,0.0
3478,56.0,2.0,15.0,12.0,0.0
3479,53.0,5.0,15.0,13.0,0.0
3480,68.0,1.0,15.0,10.0,0.0
3481,65.0,2.0,15.0,11.0,0.0
3482,56.0,2.0,15.0,12.0,0.0
3483,53.0,5.0,15.0,13.0,0.0
3484,68.0,1.0,15.0,10.0,0.0
3485,65.0,2.0,15.0,11.0,0.0
3486,56.0,2.0,15.0,12.0,0.0
3487,53.0,0.0,15.0,13.0,0.0
3488,68.0,1.0,15.0,10.0,0.0
3489,65.0,2.0,15.0,11.0,0.0
3490,82.0,0.0,40.0,1.0,0.0
3491,79.0,0.0,40.0,1.0,0.0
3492,70.0,4.0,40.0,2.0,0.0
3493,67.0,0.0,40.0,2.0,0.0
3494,56.0,2.0,15.0,12.0,0.0
3495,53.0,5.0,15.0,13.0,0.0
3496,68.0,1.0,15.0,10.0,0.0
3497,65.0,2.0,15.0,11.0,0.0
3498,56.0,2.0,15.0,12.0,0.0
3499,53.0,5.0,15.0,13.0,0.0
3500,68.0,1.0,15.0,10.0,0.0
3501,65.0,2.0,15.0,11.0,0.0
3502,56.0,2.0,15.0,12.0,0.0
3503,53.0,5.0,15.0,13.0,0.0
3504,68.0,1.0,15.0,10.0,0.0
3505,65.0,2.0,15.0,11.0,0.0
3506,56.0,2.0,15.0,12.0,0.0
3507,53.0,1.0,15.0,13.0,0.0
3508,68.0,1.0,15.0,10.0,0.0
3509,65.0,2.0,15.0,11.0,0.0
3510,80.0,0.0,150.0,1.0,0.0
3511,83.0,1.0,150.0,1.0,0.0
3512,71.0,2.0,150.0,2.0,0.0
3513,68.0,0.0,150.0,2.0,0.0
3514,56.0,2.0,15.0,12.0,0.0
3515,53.0,5.0,15.0,13.0,0.0
3516,68.0,1.0,15.0,10.0,0.0
3517,65.0,2.0,15.0,11.0,0.0
3518,56.0,2.0,15.0,12.0,0.0
3519,53.0,5.0,15.0,13.0,0.0
3520,68.0,1.0,15.0,10.0,0.0
3521,65.0,2.0,15.0,11.0,0.0
3522,56.0,2.0,15.0,12.0,0.0
3523,53.0,5.0,15.0,13.0,0.0
3524,68.0,1.0,15.0,10.0,0.0
3525,65.0,2.0,15.0,11.0,0.0
3526,56.0,2.0,15.0,12.0,0.0
3527,53.0,2.0,15.0,13.0,0.0
3528,68.0,1.0,15.0,10.0,0.0
3529,65.0,2.0,15.0,11.0,0.0
3530,56.0,2.0,15.0,12.0,0.0
3531,53.0,5.0,15.0,13.0,0.0
3532,49.0,1.0,120.0,8.0,0.0
3533,37.0,0.0,120.0,14.0,0.0
3534,68.0,1.0,15.0,10.0,0.0
3535,65.0,2.0,15.0,11.0,0.0
3536,56.0,2.0,15.0,12.0,0.0
3537,53.0,5.0,15.0,13.0,0.0
3538,68.0,1.0,15.0,10.0,0.0
3539,65.0,2.0,15.0,11.0,0.0
3540,56.0,2.0,15.0,12.0,0.0
3541,53.0,5.0,15.0,13.0,0.0
3542,68.0,1.0,15.0,10.0,0.0
3543,65.0,2.0,15.0,11.0,0.0
3544,56.0,2.0,15.0,12.0,0.0
3545,53.0,5.0,15.0,13.0,0.0
3546,68.0,1.0,15.0,10.0,0.0
3547,65.0,2.0,15.0,11.0,0.0
3548,56.0,2.0,15.0,12.0,0.0
3549,53.0,5.0,15.0,13.0,0.0
3550,68.0,1.0,15.0,10.0,0.0
3551,65.0,2.0,15.0,11.0,0.0
3552,56.0,2.0,15.0,12.0,0.0
3553,53.0,5.0,15.0,13.0,0.0
3554,68.0,1.0,15.0,10.0,0.0
3555,65.0,2.0,15.0,11.0,0.0
3556,56.0,2.0,15.0,12.0,0.0
3557,53.0,5.0,15.0,13.0,0.0
3558,68.0,1.0,15.0,10.0,0.0
3559,65.0,2.0,15.0,11.0,0.0
3560,56.0,2.0,15.0,12.0,0.0
3561,53.0,5.0,15.0,13.0,0.0
3562,68.0,1.0,15.0,10.0,0.0
3563,65.0,2.0,15.0,11.0,0.0
3564,56.0,2.0,15.0,12.0,0.0
3565,53.0,5.0,15.0,13.0,0.0
3566,68.0,1.0,15.0,10.0,0.0
3567,65.0,2.0,15.0,11.0,0.0
3568,56.0,2.0,15.0,12.0,0.0
3569,53.0,5.0,15.0,13.0,0.0
3570,68.0,1.0,15.0,10.0,0.0
3571,65.0,2.0,15.0,11.0,0.0
3572,56.0,2.0,15.0,12.0,0.0
3573,53.0,5.0,15.0,13.0,0.0
3574,68.0,0.0,15.0,10.0,0.0
3575,65.0,0.0,15.0,11.0,0.0
3576,56.0,2.0,15.0,12.0,0.0
3577,53.0,5.0,15.0,13.0,0.0
3578,65.0,0.0,15.0,10.0,0.0
3579,62.0,2.0,15.0,11.0,0.0
3580,74.0,0.0,40.0,1.0,0.0
3581,56.0,3.0,120.0,7.0,0.0
3582,53.0,2.0,15.0,12.0,0.0
3583,50.0,5.0,15.0,13.0,0.0
3584,62.0,1.0,40.0,3.0,0.0
3585,50.0,0.0,120.0,8.0,0.0
3586,38.0,2.0,120.0,14.0,0.0
3587,65.0,1.0,15.0,10.0,0.0
3588,62.0,2.0,15.0,11.0,0.0
3589,53.0,2.0,15.0,12.0,0.0
3590,50.0,5.0,15.0,13.0,0.0
3591,65.0,1.0,15.0,10.0,0.0
3592,62.0,2.0,15.0,11.0,0.0
3593,53.0,2.0,15.0,12.0,0.0
3594,50.0,5.0,15.0,13.0,0.0
3595,65.0,1.0,15.0,10.0,0.0
3596,62.0,2.0,15.0,11.0,0.0
3597,53.0,2.0,15.0,12.0,0.0
3598,50.0,5.0,15.0,13.0,0.0
3599,65.0,0.0,15.0,10.0,0.0
3600,76.0,5.0,40.0,1.0,0.0
3601,62.0,2.0,15.0,11.0,0.0
3602,53.0,2.0,15.0,12.0,0.0
3603,50.0,5.0,15.0,13.0,0.0
3604,64.0,1.0,40.0,3.0,0.0
3605,65.0,1.0,15.0,10.0,0.0
3606,62.0,2.0,15.0,11.0,0.0
3607,53.0,2.0,15.0,12.0,0.0
3608,50.0,5.0,15.0,13.0,0.0
3609,65.0,1.0,15.0,10.0,0.0
3610,62.0,2.0,15.0,11.0,0.0
3611,53.0,2.0,15.0,12.0,0.0
3612,50.0,5.0,15.0,13.0,0.0
3613,65.0,1.0,15.0,10.0,0.0
3614,62.0,2.0,15.0,11.0,0.0
3615,53.0,2.0,15.0,12.0,0.0
3616,50.0,0.0,15.0,13.0,0.0
3617,65.0,0.0,15.0,10.0,0.0
3618,77.0,0.0,150.0,1.0,0.0
3619,62.0,2.0,15.0,11.0,0.0
3620,53.0,2.0,15.0,12.0,0.0
3621,50.0,5.0,15.0,13.0,0.0
3622,65.0,0.0,150.0,3.0,0.0
3623,65.0,1.0,15.0,10.0,0.0
3624,62.0,2.0,15.0,11.0,0.0
3625,53.0,2.0,15.0,12.0,0.0
3626,50.0,5.0,15.0,13.0,0.0
3627,65.0,1.0,15.0,10.0,0.0
3628,62.0,2.0,15.0,11.0,0.0
3629,53.0,2.0,15.0,12.0,0.0
3630,50.0,5.0,15.0,13.0,0.0
3631,65.0,1.0,15.0,10.0,0.0
3632,62.0,2.0,15.0,11.0,0.0
3633,53.0,2.0,15.0,12.0,0.0
3634,50.0,2.0,15.0,13.0,0.0
3635,65.0,1.0,15.0,10.0,0.0
3636,62.0,0.0,15.0,11.0,0.0
3637,57.0,3.0,120.0,7.0,0.0
3638,53.0,2.0,15.0,12.0,0.0
3639,50.0,5.0,15.0,13.0,0.0
3640,65.0,1.0,15.0,10.0,0.0
3641,62.0,2.0,15.0,11.0,0.0
3642,53.0,2.0,15.0,12.0,0.0
3643,50.0,5.0,15.0,13.0,0.0
3644,65.0,1.0,15.0,10.0,0.0
3645,62.0,2.0,15.0,11.0,0.0
3646,53.0,2.0,15.0,12.0,0.0
3647,50.0,5.0,15.0,13.0,0.0
3648,65.0,1.0,15.0,10.0,0.0
3649,62.0,2.0,15.0,11.0,0.0
3650,53.0,2.0,15.0,12.0,0.0
3651,50.0,5.0,15.0,13.0,0.0
3652,65.0,1.0,15.0,10.0,0.0
3653,62.0,2.0,15.0,11.0,0.0
3654,53.0,2.0,15.0,12.0,0.0
3655,50.0,5.0,15.0,13.0,0.0
3656,65.0,1.0,15.0,10.0,0.0
3657,62.0,2.0,15.0,11.0,0.0
3658,53.0,2.0,15.0,12.0,0.0
3659,50.0,5.0,15.0,13.0,0.0
3660,65.0,1.0,15.0,10.0,0.0
3661,62.0,2.0,15.0,11.0,0.0
3662,53.0,2.0,15.0,12.0,0.0
3663,50.0,5.0,15.0,13.0,0.0
3664,65.0,1.0,15.0,10.0,0.0
3665,62.0,2.0,15.0,11.0,0.0
3666,53.0,2.0,15.0,12.0,0.0
3667,50.0,5.0,15.0,13.0,0.0
3668,65.0,1.0,15.0,10.0,0.0
3669,62.0,2.0,15.0,11.0,0.0
3670,53.0,2.0,15.0,12.0,0.0
3671,50.0,5.0,15.0,13.0,0.0
3672,65.0,1.0,15.0,10.0,0.0
3673,62.0,2.0,15.0,11.0,0.0
3674,53.0,2.0,15.0,12.0,0.0
3675,50.0,5.0,15.0,13.0,0.0
3676,65.0,1.0,15.0,10.0,0.0
3677,62.0,2.0,15.0,11.0,0.0
3678,53.0,2.0,15.0,12.0,0.0
3679,50.0,5.0,15.0,13.0,0.0
3680,65.0,1.0,15.0,10.0,0.0
3681,62.0,2.0,15.0,11.0,0.0
3682,53.0,2.0,15.0,12.0,0.0
3683,50.0,2.0,15.0,13.0,0.0
3684,65.0,1.0,15.0,10.0,0.0
3685,62.0,2.0,15.0,11.0,0.0
3686,65.0,4.0,40.0,2.0,0.0
3687,62.0,0.0,40.0,2.0,0.0
3688,53.0,2.0,15.0,12.0,0.0
3689,56.0,3.0,120.0,7.0,0.0
3690,50.0,5.0,15.0,13.0,0.0
3691,47.0,1.0,120.0,8.0,0.0
3692,47.0,2.0,120.0,14.0,0.0
3693,65.0,1.0,15.0,10.0,0.0
3694,62.0,2.0,15.0,11.0,0.0
3695,53.0,2.0,15.0,12.0,0.0
3696,50.0,5.0,15.0,13.0,0.0
3697,65.0,1.0,15.0,10.0,0.0
3698,62.0,2.0,15.0,11.0,0.0
3699,53.0,2.0,15.0,12.0,0.0
3700,50.0,5.0,15.0,13.0,0.0
3701,65.0,1.0,15.0,10.0,0.0
3702,62.0,2.0,15.0,11.0,0.0
3703,53.0,2.0,15.0,12.0,0.0
3704,50.0,1.0,15.0,13.0,0.0
3705,65.0,1.0,15.0,10.0,0.0
3706,62.0,2.0,15.0,11.0,0.0
3707,67.0,0.0,40.0,2.0,0.0
3708,64.0,4.0,40.0,2.0,0.0
3709,53.0,2.0,15.0,12.0,0.0
3710,50.0,5.0,15.0,13.0,0.0
3711,65.0,1.0,15.0,10.0,0.0
3712,62.0,2.0,15.0,11.0,0.0
3713,53.0,2.0,15.0,12.0,0.0
3714,50.0,5.0,15.0,13.0,0.0
3715,65.0,1.0,15.0,10.0,0.0
3716,62.0,2.0,15.0,11.0,0.0
3717,53.0,2.0,15.0,12.0,0.0
3718,50.0,5.0,15.0,13.0,0.0
3719,65.0,1.0,15.0,10.0,0.0
3720,62.0,2.0,15.0,11.0,0.0
3721,53.0,2.0,15.0,12.0,0.0
3722,50.0,1.0,15.0,13.0,0.0
3723,65.0,1.0,15.0,10.0,0.0
3724,62.0,2.0,15.0,11.0,0.0
3725,65.0,0.0,150.0,2.0,0.0
3726,68.0,4.0,150.0,2.0,0.0
3727,53.0,2.0,15.0,12.0,0.0
3728,50.0,5.0,15.0,13.0,0.0
3729,65.0,1.0,15.0,10.0,0.0
3730,62.0,2.0,15.0,11.0,0.0
3731,53.0,2.0,15.0,12.0,0.0
3732,50.0,5.0,15.0,13.0,0.0
3733,65.0,1.0,15.0,10.0,0.0
3734,62.0,2.0,15.0,11.0,0.0
3735,53.0,2.0,15.0,12.0,0.0
3736,50.0,5.0,15.0,13.0,0.0
3737,65.0,1.0,15.0,10.0,0.0
3738,62.0,2.0,15.0,11.0,0.0
3739,53.0,2.0,15.0,12.0,0.0
3740,50.0,2.0,15.0,13.0,0.0
3741,65.0,1.0,60.0,10.0,0.0
3742,62.0,0.0,60.0,11.0,0.0
3743,53.0,2.0,15.0,12.0,0.0
3744,50.0,8.0,15.0,13.0,0.0
3745,46.0,1.0,120.0,8.0,0.0
3746,46.0,39.0,120.0,14.0,0.0
3747,53.0,2.0,15.0,12.0,0.0
3748,50.0,8.0,15.0,13.0,0.0
3749,53.0,2.0,15.0,12.0,0.0
3750,50.0,8.0,15.0,13.0,0.0
3751,53.0,2.0,15.0,12.0,0.0
3752,50.0,8.0,15.0,13.0,0.0
3753,53.0,2.0,15.0,12.0,0.0
3754,50.0,8.0,15.0,13.0,0.0
3755,53.0,1.0,15.0,12.0,0.0
3756,50.0,8.0,15.0,13.0,0.0
3757,53.0,2.0,15.0,12.0,0.0
3758,50.0,8.0,15.0,13.0,0.0
3759,53.0,2.0,15.0,12.0,0.0
3760,50.0,8.0,15.0,13.0,0.0
3761,53.0,2.0,15.0,12.0,0.0
3762,50.0,8.0,15.0,13.0,0.0
3763,53.0,2.0,15.0,12.0,0.0
3764,50.0,8.0,15.0,13.0,0.0
3765,53.0,2.0,15.0,12.0,0.0
3766,50.0,8.0,15.0,13.0,0.0
3767,53.0,2.0,15.0,12.0,0.0
3768,50.0,1.0,15.0,13.0,0.0
3769,63.0,1.0,90.0,10.0,0.0
3770,87.0,0.0,120.0,1.0,0.0
3771,63.0,29.0,90.0,11.0,0.0
3772,67.0,1.0,60.0,2.0,0.0
3773,63.0,0.0,60.0,2.0,0.0
3774,53.0,23.0,60.0,12.0,0.0
3775,51.0,0.0,240.0,13.0,0.0
3776,55.0,0.0,40.0,3.0,0.0
3777,67.0,16.0,40.0,3.0,0.0
3778,39.0,114.0,120.0,8.0,0.0
3779,39.0,44.0,240.0,14.0,0.0
3780,68.0,0.0,40.0,3.0,0.0
3781,56.0,4.0,40.0,3.0,0.0
3782,58.0,0.0,150.0,3.0,0.0
3783,70.0,1.0,150.0,3.0,0.0
3784,65.0,1.0,30.0,10.0,0.0
3785,65.0,5.0,30.0,11.0,0.0
3786,67.0,1.0,120.0,10.0,0.0
3787,85.0,0.0,120.0,1.0,0.0
3788,67.0,0.0,120.0,11.0,0.0
3789,68.0,1.0,90.0,10.0,0.0
3790,68.0,29.0,90.0,11.0,0.0
3791,84.0,0.0,90.0,1.0,0.0
3792,51.0,1.0,240.0,13.0,0.0
3793,63.0,40.0,40.0,3.0,0.0
3794,51.0,0.0,40.0,3.0,0.0
3795,39.0,44.0,240.0,14.0,0.0
3796,65.0,4.0,40.0,3.0,0.0
3797,53.0,0.0,40.0,3.0,0.0
3798,67.0,1.0,150.0,3.0,0.0
3799,55.0,0.0,150.0,3.0,0.0
3800,70.0,1.0,30.0,10.0,0.0
3801,82.0,114.0,30.0,1.0,0.0
3802,70.0,0.0,30.0,11.0,0.0
3803,72.0,1.0,120.0,10.0,0.0
3804,81.0,4.0,120.0,1.0,0.0
3805,72.0,0.0,120.0,11.0,0.0
3806,71.0,1.0,120.0,10.0,0.0
3807,87.0,0.0,120.0,1.0,0.0
3808,71.0,74.0,120.0,11.0,0.0
3809,51.0,1.0,240.0,13.0,0.0
3810,65.0,0.0,40.0,3.0,0.0
3811,53.0,40.0,40.0,3.0,0.0
3812,39.0,44.0,240.0,14.0,0.0
3813,55.0,0.0,40.0,3.0,0.0
3814,67.0,34.0,40.0,3.0,0.0
3815,56.0,0.0,150.0,3.0,0.0
3816,68.0,0.0,150.0,3.0,0.0
3817,70.0,1.0,60.0,10.0,0.0
3818,85.0,0.0,120.0,1.0,0.0
3819,70.0,14.0,60.0,11.0,0.0
3820,72.0,1.0,15.0,10.0,0.0
3821,72.0,14.0,15.0,11.0,0.0
3822,73.0,1.0,15.0,10.0,0.0
3823,73.0,14.0,15.0,11.0,0.0
3824,75.0,0.0,15.0,10.0,0.0
3825,75.0,1.0,15.0,11.0,0.0
3826,76.0,1.0,90.0,10.0,0.0
3827,76.0,5.0,90.0,11.0,0.0
3828,82.0,29.0,90.0,1.0,0.0
3829,51.0,1.0,210.0,13.0,0.0
3830,61.0,0.0,40.0,3.0,0.0
3831,49.0,34.0,40.0,3.0,0.0
3832,39.0,116.0,210.0,14.0,0.0
3833,63.0,5.0,40.0,3.0,0.0
3834,51.0,0.0,40.0,3.0,0.0
3835,73.0,1.0,40.0,10.0,0.0
3836,73.0,89.0,40.0,11.0,0.0
3837,64.0,0.0,120.0,3.0,0.0
3838,52.0,1.0,120.0,3.0,0.0
3839,80.0,0.0,30.0,1.0,0.0
3840,70.0,1.0,90.0,10.0,0.0
3841,79.0,0.0,90.0,1.0,0.0
3842,70.0,4.0,90.0,11.0,0.0
3843,80.0,1.0,120.0,10.0,0.0
3844,72.0,2.0,120.0,11.0,0.0
3845,56.0,3.0,90.0,12.0,0.0
3846,44.0,55.0,240.0,13.0,0.0
3847,63.0,24.0,90.0,3.0,0.0
3848,51.0,0.0,90.0,3.0,0.0
3849,58.0,117.0,30.0,12.0,0.0
3850,78.0,1.0,120.0,10.0,0.0
3851,75.0,2.0,120.0,11.0,0.0
3852,60.0,2.0,120.0,12.0,0.0
3853,76.0,1.0,60.0,10.0,0.0
3854,73.0,2.0,60.0,11.0,0.0
3855,73.0,4.0,120.0,2.0,0.0
3856,81.0,0.0,120.0,2.0,0.0
3857,45.0,3.0,240.0,5.0,0.0
3858,61.0,2.0,60.0,12.0,0.0
3859,45.0,31.0,60.0,13.0,0.0
3860,57.0,0.0,90.0,3.0,0.0
3861,45.0,26.0,90.0,3.0,0.0
3862,45.0,0.0,240.0,8.0,0.0
3863,47.0,116.0,30.0,3.0,0.0
3864,59.0,0.0,30.0,3.0,0.0
3865,79.0,0.0,120.0,2.0,0.0
3866,76.0,1.0,120.0,2.0,0.0
3867,49.0,8.0,120.0,3.0,0.0
3868,61.0,0.0,120.0,3.0,0.0
3869,86.0,5.0,40.0,10.0,0.0
3870,94.0,0.0,120.0,0.0,0.0
3871,82.0,1.0,120.0,1.0,0.0
3872,77.0,1.0,60.0,2.0,0.0
3873,74.0,0.0,60.0,2.0,0.0
3874,70.0,1.0,120.0,4.0,0.0
3875,46.0,3.0,60.0,5.0,0.0
3876,58.0,2.0,90.0,12.0,0.0
3877,46.0,2.0,90.0,13.0,0.0
3878,50.0,0.0,60.0,3.0,0.0
3879,62.0,9.0,60.0,3.0,0.0
3880,46.0,0.0,60.0,8.0,0.0
3881,34.0,1.0,240.0,14.0,0.0
3882,46.0,8.0,15.0,15.0,0.0
3883,46.0,8.0,15.0,15.0,0.0
3884,46.0,7.0,15.0,15.0,0.0
3885,46.0,3.0,15.0,15.0,0.0
3886,87.0,2.0,40.0,10.0,0.0
3887,46.0,7.0,15.0,15.0,0.0
3888,46.0,2.0,15.0,15.0,0.0
3889,46.0,5.0,15.0,15.0,0.0
3890,46.0,8.0,15.0,15.0,0.0
3891,89.0,4.0,150.0,10.0,0.0
3892,46.0,3.0,15.0,15.0,0.0
3893,46.0,7.0,15.0,15.0,0.0
3894,60.0,2.0,30.0,12.0,0.0
3895,48.0,1.0,30.0,13.0,0.0
3896,46.0,8.0,15.0,15.0,0.0
3897,46.0,8.0,15.0,15.0,0.0
3898,46.0,1.0,15.0,15.0,0.0
3899,92.0,1.0,120.0,0.0,0.0
3900,80.0,1.0,120.0,1.0,0.0
3901,68.0,0.0,120.0,4.0,0.0
3902,62.0,2.0,120.0,12.0,0.0
3903,50.0,1.0,120.0,13.0,0.0
3904,46.0,6.0,15.0,15.0,0.0
3905,46.0,7.0,15.0,15.0,0.0
3906,46.0,7.0,15.0,15.0,0.0
3907,46.0,7.0,15.0,15.0,0.0
3908,46.0,7.0,15.0,15.0,0.0
3909,46.0,9.0,15.0,15.0,0.0
3910,46.0,6.0,15.0,15.0,0.0
3911,46.0,7.0,15.0,15.0,0.0
3912,46.0,9.0,15.0,15.0,0.0
3913,46.0,6.0,15.0,15.0,0.0
3914,46.0,1.0,15.0,15.0,0.0
3915,46.0,9.0,15.0,15.0,0.0
3916,82.0,5.0,40.0,10.0,0.0
3917,91.0,0.0,90.0,0.0,0.0
3918,79.0,1.0,90.0,1.0,0.0
3919,67.0,1.0,90.0,4.0,0.0
3920,63.0,2.0,90.0,12.0,0.0
3921,51.0,2.0,90.0,13.0,0.0
3922,34.0,0.0,240.0,14.0,0.0
3923,46.0,6.0,15.0,15.0,0.0
3924,46.0,8.0,15.0,15.0,0.0
3925,46.0,3.0,15.0,15.0,0.0
3926,84.0,1.0,40.0,10.0,0.0
3927,46.0,7.0,15.0,15.0,0.0
3928,46.0,7.0,15.0,15.0,0.0
3929,46.0,9.0,15.0,15.0,0.0
3930,46.0,5.0,15.0,15.0,0.0
3931,85.0,0.0,150.0,10.0,0.0
3932,46.0,1.0,15.0,15.0,0.0
3933,89.0,1.0,30.0,0.0,0.0
3934,46.0,7.0,15.0,15.0,0.0
3935,77.0,2.0,30.0,1.0,0.0
3936,65.0,1.0,30.0,4.0,0.0
3937,65.0,2.0,30.0,12.0,0.0
3938,53.0,2.0,30.0,13.0,0.0
3939,46.0,8.0,15.0,15.0,0.0
3940,46.0,7.0,15.0,15.0,0.0
3941,46.0,0.0,15.0,15.0,0.0
3942,88.0,1.0,120.0,0.0,0.0
3943,46.0,8.0,15.0,15.0,0.0
3944,76.0,2.0,120.0,1.0,0.0
3945,64.0,5.0,120.0,4.0,0.0
3946,67.0,1.0,120.0,12.0,0.0
3947,55.0,2.0,120.0,13.0,0.0
3948,46.0,6.0,15.0,15.0,0.0
3949,46.0,7.0,15.0,15.0,0.0
3950,46.0,8.0,15.0,15.0,0.0
3951,46.0,8.0,15.0,15.0,0.0
3952,46.0,7.0,15.0,15.0,0.0
3953,46.0,8.0,15.0,15.0,0.0
3954,46.0,7.0,15.0,15.0,0.0
3955,46.0,7.0,15.0,15.0,0.0
3956,46.0,8.0,15.0,15.0,0.0
3957,46.0,8.0,15.0,15.0,0.0
3958,46.0,6.0,15.0,15.0,0.0
3959,46.0,1.0,15.0,15.0,0.0
3960,46.0,7.0,15.0,15.0,0.0
3961,84.0,4.0,40.0,10.0,0.0
3962,94.0,0.0,120.0,0.0,0.0
3963,82.0,1.0,120.0,1.0,0.0
3964,70.0,1.0,120.0,4.0,0.0
3965,66.0,2.0,120.0,12.0,0.0
3966,54.0,1.0,120.0,13.0,0.0
3967,46.0,7.0,15.0,15.0,0.0
3968,34.0,1.0,240.0,14.0,0.0
3969,46.0,9.0,15.0,15.0,0.0
3970,46.0,6.0,15.0,15.0,0.0
3971,86.0,2.0,40.0,10.0,0.0
3972,46.0,7.0,15.0,15.0,0.0
3973,46.0,7.0,15.0,15.0,0.0
3974,46.0,7.0,15.0,15.0,0.0
3975,46.0,6.0,15.0,15.0,0.0
3976,46.0,8.0,15.0,15.0,0.0
3977,87.0,5.0,150.0,10.0,0.0
3978,46.0,7.0,15.0,15.0,0.0
3979,46.0,8.0,15.0,15.0,0.0
3980,46.0,7.0,15.0,15.0,0.0
3981,46.0,1.0,15.0,15.0,0.0
3982,93.0,0.0,60.0,0.0,0.0
3983,81.0,1.0,60.0,1.0,0.0
3984,69.0,5.0,60.0,4.0,0.0
3985,65.0,2.0,60.0,12.0,0.0
3986,53.0,2.0,60.0,13.0,0.0
3987,46.0,8.0,15.0,15.0,0.0
3988,46.0,8.0,15.0,15.0,0.0
3989,46.0,7.0,15.0,15.0,0.0
3990,46.0,8.0,15.0,15.0,0.0
3991,46.0,7.0,15.0,15.0,0.0
3992,46.0,1.0,15.0,15.0,0.0
3993,92.0,0.0,60.0,0.0,0.0
3994,80.0,1.0,60.0,1.0,0.0
3995,68.0,0.0,60.0,4.0,0.0
3996,46.0,7.0,15.0,15.0,0.0
3997,46.0,7.0,15.0,15.0,0.0
3998,67.0,2.0,15.0,12.0,0.0
3999,55.0,2.0,15.0,13.0,0.0
4000,46.0,4.0,15.0,15.0,0.0
4001,46.0,8.0,15.0,15.0,0.0
4002,68.0,2.0,15.0,12.0,0.0
4003,56.0,2.0,15.0,13.0,0.0
4004,46.0,3.0,15.0,15.0,0.0
4005,46.0,3.0,15.0,15.0,0.0
4006,70.0,2.0,15.0,12.0,0.0
4007,58.0,1.0,15.0,13.0,0.0
4008,46.0,1.0,15.0,15.0,0.0
4009,80.0,5.0,40.0,10.0,0.0
4010,89.0,1.0,90.0,0.0,0.0
4011,77.0,1.0,90.0,1.0,0.0
4012,65.0,5.0,90.0,4.0,0.0
4013,71.0,2.0,90.0,12.0,0.0
4014,59.0,4.0,90.0,13.0,0.0
4015,34.0,0.0,120.0,14.0,0.0
4016,46.0,7.0,15.0,15.0,0.0
4017,46.0,7.0,15.0,15.0,0.0
4018,46.0,7.0,15.0,15.0,0.0
4019,82.0,1.0,40.0,10.0,0.0
4020,46.0,6.0,15.0,15.0,0.0
4021,46.0,6.0,15.0,15.0,0.0
4022,46.0,5.0,15.0,15.0,0.0
4023,83.0,0.0,40.0,10.0,0.0
4024,46.0,1.0,15.0,15.0,0.0
4025,68.0,0.0,40.0,12.0,0.0
4026,56.0,2.0,40.0,13.0,0.0
4027,87.0,1.0,30.0,0.0,0.0
4028,46.0,8.0,15.0,15.0,0.0
4029,75.0,1.0,30.0,1.0,0.0
4030,46.0,7.0,15.0,15.0,0.0
4031,46.0,0.0,15.0,15.0,0.0
4032,87.0,1.0,120.0,0.0,0.0
4033,80.0,40.0,40.0,10.0,0.0
4034,75.0,1.0,120.0,1.0,0.0
4035,63.0,5.0,15.0,4.0,0.0
4036,65.0,2.0,240.0,12.0,0.0
4037,53.0,35.0,240.0,13.0,0.0
4038,46.0,33.0,15.0,15.0,0.0
4039,34.0,0.0,240.0,14.0,0.0
4040,82.0,35.0,40.0,10.0,0.0
4041,83.0,5.0,40.0,10.0,0.0
4042,86.0,1.0,120.0,0.0,0.0
4043,80.0,1.0,40.0,10.0,0.0
4044,74.0,1.0,120.0,1.0,0.0
4045,68.0,39.0,40.0,11.0,0.0
4046,62.0,1.0,120.0,4.0,0.0
4047,82.0,1.0,40.0,10.0,0.0
4048,70.0,34.0,40.0,11.0,0.0
4049,83.0,1.0,40.0,10.0,0.0
4050,71.0,4.0,40.0,11.0,0.0
4051,80.0,1.0,40.0,10.0,0.0
4052,68.0,39.0,40.0,11.0,0.0
4053,82.0,1.0,40.0,10.0,0.0
4054,70.0,34.0,40.0,11.0,0.0
4055,83.0,1.0,40.0,10.0,0.0
4056,71.0,44.0,40.0,11.0,0.0
4057,86.0,1.0,40.0,10.0,0.0
4058,74.0,22.0,40.0,11.0,0.0
4059,56.0,2.0,60.0,12.0,0.0
4060,53.0,15.0,60.0,13.0,0.0
4061,46.0,20.0,90.0,3.0,0.0
4062,46.0,0.0,240.0,14.0,0.0
4063,34.0,4.0,240.0,14.0,0.0
4064,84.0,1.0,40.0,10.0,0.0
4065,72.0,15.0,40.0,11.0,0.0
4066,65.0,2.0,60.0,12.0,0.0
4067,56.0,1.0,60.0,13.0,0.0
4068,82.0,3.0,40.0,10.0,0.0
4069,70.0,4.0,40.0,11.0,0.0
4070,48.0,34.0,30.0,3.0,0.0
4071,80.0,23.0,40.0,10.0,0.0
4072,68.0,2.0,60.0,12.0,0.0
4073,65.0,15.0,60.0,13.0,0.0
4074,50.0,34.0,120.0,3.0,0.0
4075,82.0,40.0,40.0,10.0,0.0
4076,80.0,1.0,60.0,11.0,0.0
4077,80.0,1.0,40.0,10.0,0.0
4078,79.0,23.0,40.0,10.0,0.0
4079,61.0,2.0,60.0,12.0,0.0
4080,55.0,15.0,60.0,13.0,0.0
4081,52.0,25.0,90.0,3.0,0.0
4082,34.0,0.0,240.0,14.0,0.0
4083,46.0,38.0,240.0,14.0,0.0
4084,80.0,16.0,40.0,10.0,0.0
4085,77.0,2.0,60.0,11.0,0.0
4086,67.0,2.0,60.0,12.0,0.0
4087,61.0,1.0,60.0,13.0,0.0
4088,77.0,23.0,90.0,10.0,0.0
4089,53.0,34.0,30.0,3.0,0.0
4090,73.0,2.0,60.0,12.0,0.0
4091,67.0,15.0,60.0,13.0,0.0
4092,55.0,0.0,120.0,3.0,0.0
4093,76.0,35.0,40.0,10.0,0.0
4094,76.0,1.0,60.0,11.0,0.0
4095,79.0,6.0,40.0,10.0,0.0
4096,85.0,23.0,40.0,10.0,0.0
4097,58.0,2.0,60.0,12.0,0.0
4098,55.0,15.0,60.0,13.0,0.0
4099,52.0,34.0,120.0,3.0,0.0
4100,34.0,4.0,240.0,14.0,0.0
4101,46.0,0.0,240.0,14.0,0.0
4102,84.0,40.0,40.0,10.0,0.0
4103,82.0,2.0,60.0,11.0,0.0
4104,67.0,2.0,60.0,12.0,0.0
4105,61.0,1.0,60.0,13.0,0.0
4106,82.0,1.0,40.0,10.0,0.0
4107,80.0,23.0,40.0,10.0,0.0
4108,72.0,2.0,60.0,12.0,0.0
4109,60.0,15.0,60.0,13.0,0.0
4110,53.0,15.0,60.0,3.0,0.0
4111,82.0,1.0,40.0,10.0,0.0
4112,79.0,1.0,60.0,11.0,0.0
4113,79.0,1.0,40.0,10.0,0.0
4114,55.0,15.0,15.0,3.0,0.0
4115,56.0,9.0,15.0,3.0,0.0
4116,58.0,34.0,15.0,3.0,0.0
4117,77.0,23.0,40.0,10.0,0.0
4118,62.0,2.0,60.0,12.0,0.0
4119,56.0,15.0,60.0,13.0,0.0
4120,59.0,34.0,120.0,3.0,0.0
4121,46.0,4.0,240.0,14.0,0.0
4122,34.0,0.0,240.0,14.0,0.0
4123,75.0,40.0,40.0,10.0,0.0
4124,77.0,2.0,60.0,11.0,0.0
4125,68.0,2.0,60.0,12.0,0.0
4126,65.0,1.0,60.0,13.0,0.0
4127,74.0,1.0,40.0,10.0,0.0
4128,77.0,23.0,40.0,10.0,0.0
4129,67.0,2.0,60.0,12.0,0.0
4130,63.0,15.0,60.0,13.0,0.0
4131,58.0,34.0,120.0,3.0,0.0
4132,75.0,40.0,40.0,10.0,0.0
4133,70.0,1.0,60.0,11.0,0.0
4134,77.0,1.0,40.0,10.0,0.0
4135,80.0,23.0,40.0,10.0,0.0
4136,63.0,1.0,120.0,4.0,0.0
4137,75.0,1.0,360.0,6.0,0.0
4138,63.0,0.0,360.0,6.0,0.0
4139,63.0,2.0,60.0,12.0,0.0
4140,58.0,15.0,60.0,13.0,0.0
4141,58.0,1.0,120.0,7.0,0.0
4142,55.0,1.0,120.0,3.0,0.0
4143,55.0,31.0,120.0,8.0,0.0
4144,43.0,0.0,120.0,14.0,0.0
4145,79.0,41.0,40.0,10.0,0.0
4146,82.0,0.0,60.0,11.0,0.0
4147,75.0,2.0,60.0,12.0,0.0
4148,63.0,0.0,60.0,13.0,0.0
4149,82.0,40.0,90.0,10.0,0.0
4150,68.0,1.0,120.0,4.0,0.0
4151,68.0,2.0,120.0,7.0,0.0
4152,60.0,32.0,120.0,7.0,0.0
4153,51.0,0.0,480.0,8.0,0.0
4154,53.0,34.0,480.0,3.0,0.0
4155,39.0,0.0,480.0,14.0,0.0
4156,87.0,44.0,40.0,10.0,0.0
4157,80.0,1.0,60.0,11.0,0.0
4158,75.0,0.0,60.0,12.0,0.0
4159,63.0,0.0,60.0,13.0,0.0
4160,80.0,40.0,90.0,10.0,0.0
4161,67.0,0.0,120.0,4.0,0.0
4162,67.0,0.0,120.0,7.0,0.0
4163,58.0,0.0,120.0,7.0,0.0
4164,87.0,44.0,40.0,10.0,0.0
4165,79.0,1.0,60.0,11.0,0.0
4166,75.0,2.0,60.0,12.0,0.0
4167,63.0,32.0,60.0,13.0,0.0
4168,79.0,40.0,90.0,10.0,0.0
4169,65.0,1.0,120.0,4.0,0.0
4170,70.0,1.0,240.0,6.0,0.0
4171,58.0,0.0,240.0,6.0,0.0
4172,65.0,0.0,120.0,7.0,0.0
4173,62.0,0.0,120.0,7.0,0.0
4174,56.0,0.0,120.0,7.0,0.0
4175,82.0,44.0,40.0,10.0,0.0
4176,77.0,1.0,60.0,11.0,0.0
4177,70.0,2.0,60.0,12.0,0.0
4178,58.0,32.0,60.0,13.0,0.0
4179,77.0,40.0,90.0,10.0,0.0
4180,63.0,0.0,120.0,4.0,0.0
4181,63.0,0.0,120.0,7.0,0.0
4182,55.0,0.0,120.0,7.0,0.0
4183,82.0,40.0,40.0,10.0,0.0
4184,75.0,3.0,60.0,11.0,0.0
4185,70.0,2.0,60.0,12.0,0.0
4186,58.0,1.0,60.0,13.0,0.0
4187,75.0,2.0,40.0,10.0,0.0
4188,70.0,1.0,40.0,10.0,0.0
4189,67.0,2.0,40.0,11.0,0.0
4190,63.0,37.0,40.0,12.0,0.0
4191,75.0,1.0,40.0,10.0,0.0
4192,70.0,2.0,40.0,11.0,0.0
4193,67.0,37.0,40.0,12.0,0.0
4194,79.0,1.0,40.0,10.0,0.0
4195,75.0,2.0,40.0,11.0,0.0
4196,70.0,32.0,40.0,12.0,0.0
4197,82.0,1.0,40.0,10.0,0.0
4198,70.0,2.0,40.0,11.0,0.0
4199,63.0,8.0,40.0,12.0,0.0
4200,55.0,2.0,120.0,13.0,0.0
4201,55.0,0.0,40.0,3.0,0.0
4202,43.0,114.0,120.0,14.0,0.0
4203,63.0,0.0,40.0,3.0,0.0
4204,58.0,40.0,15.0,3.0,0.0
4205,75.0,1.0,40.0,10.0,0.0
4206,75.0,4.0,150.0,11.0,0.0
4207,70.0,2.0,40.0,12.0,0.0
4208,63.0,0.0,40.0,3.0,0.0
4209,67.0,2.0,40.0,3.0,0.0
4210,80.0,0.0,240.0,10.0,0.0
4211,68.0,2.0,240.0,12.0,0.0
4212,53.0,1.0,120.0,13.0,0.0
4213,63.0,1.0,120.0,3.0,0.0
4214,53.0,0.0,120.0,3.0,0.0
4215,41.0,109.0,120.0,14.0,0.0
4216,74.0,2.0,120.0,11.0,0.0
4217,46.0,1.0,120.0,13.0,0.0
4218,62.0,1.0,120.0,3.0,0.0
4219,58.0,0.0,120.0,3.0,0.0
4220,34.0,40.0,120.0,14.0,0.0
4221,58.0,1.0,90.0,4.0,0.0
4222,79.0,1.0,60.0,10.0,0.0
4223,75.0,2.0,60.0,11.0,0.0
4224,55.0,3.0,40.0,5.0,0.0
4225,70.0,19.0,60.0,12.0,0.0
4226,51.0,1.0,120.0,13.0,0.0
4227,51.0,14.0,40.0,3.0,0.0
4228,39.0,33.0,120.0,14.0,0.0
4229,63.0,1.0,40.0,4.0,0.0
4230,58.0,3.0,40.0,5.0,0.0
4231,55.0,36.0,40.0,3.0,0.0
4232,67.0,1.0,40.0,4.0,0.0
4233,63.0,2.0,40.0,5.0,0.0
4234,58.0,1.0,40.0,3.0,0.0
4235,70.0,1.0,40.0,10.0,0.0
4236,67.0,2.0,40.0,11.0,0.0
4237,70.0,1.0,60.0,4.0,0.0
4238,63.0,19.0,40.0,12.0,0.0
4239,67.0,3.0,60.0,5.0,0.0
4240,63.0,14.0,60.0,3.0,0.0
4241,75.0,1.0,40.0,10.0,0.0
4242,70.0,2.0,40.0,11.0,0.0
4243,67.0,37.0,40.0,12.0,0.0
4244,79.0,1.0,40.0,10.0,0.0
4245,75.0,2.0,40.0,11.0,0.0
4246,70.0,39.0,40.0,12.0,0.0
4247,82.0,1.0,60.0,10.0,0.0
4248,79.0,2.0,60.0,11.0,0.0
4249,63.0,1.0,40.0,4.0,0.0
4250,75.0,19.0,60.0,12.0,0.0
4251,55.0,3.0,40.0,5.0,0.0
4252,58.0,14.0,40.0,3.0,0.0
4253,67.0,1.0,40.0,4.0,0.0
4254,58.0,3.0,40.0,5.0,0.0
4255,63.0,36.0,40.0,3.0,0.0
4256,70.0,1.0,40.0,4.0,0.0
4257,63.0,3.0,40.0,5.0,0.0
4258,67.0,34.0,40.0,3.0,0.0
4259,75.0,1.0,40.0,10.0,0.0
4260,63.0,1.0,40.0,11.0,0.0
4261,73.0,1.0,40.0,4.0,0.0
4262,79.0,1.0,300.0,6.0,0.0
4263,75.0,0.0,300.0,6.0,0.0
4264,67.0,23.0,40.0,5.0,0.0
4265,70.0,14.0,60.0,3.0,0.0
4266,79.0,1.0,40.0,10.0,0.0
4267,67.0,37.0,40.0,11.0,0.0
4268,82.0,1.0,40.0,10.0,0.0
4269,70.0,93.0,40.0,11.0,0.0
4270,73.0,71.0,120.0,4.0,0.0
4271,67.0,20.0,210.0,5.0,0.0
4272,84.0,1.0,180.0,10.0,0.0
4273,72.0,4.0,180.0,11.0,0.0
4274,55.0,2.0,40.0,12.0,0.0
4275,51.0,12.0,40.0,13.0,0.0
4276,39.0,35.0,120.0,14.0,0.0
4277,60.0,2.0,40.0,12.0,0.0
4278,55.0,35.0,40.0,13.0,0.0
4279,84.0,1.0,60.0,10.0,0.0
4280,72.0,2.0,60.0,11.0,0.0
4281,63.0,2.0,40.0,12.0,0.0
4282,60.0,2.0,40.0,13.0,0.0
4283,85.0,1.0,60.0,10.0,0.0
4284,73.0,21.0,60.0,11.0,0.0
4285,79.0,18.0,40.0,2.0,0.0
4286,75.0,0.0,40.0,2.0,0.0
4287,51.0,37.0,120.0,3.0,0.0
4288,75.0,38.0,40.0,2.0,0.0
4289,87.0,1.0,60.0,10.0,0.0
4290,75.0,1.0,60.0,11.0,0.0
4291,72.0,0.0,15.0,2.0,0.0
4292,67.0,4.0,40.0,2.0,0.0
4293,84.0,1.0,60.0,10.0,0.0
4294,72.0,22.0,60.0,11.0,0.0
4295,56.0,2.0,40.0,12.0,0.0
4296,53.0,15.0,40.0,13.0,0.0
4297,41.0,35.0,120.0,14.0,0.0
4298,60.0,2.0,40.0,12.0,0.0
4299,56.0,35.0,40.0,13.0,0.0
4300,82.0,1.0,60.0,10.0,0.0
4301,70.0,2.0,60.0,11.0,0.0
4302,65.0,2.0,40.0,12.0,0.0
4303,60.0,2.0,40.0,13.0,0.0
4304,80.0,1.0,60.0,10.0,0.0
4305,68.0,21.0,60.0,11.0,0.0
4306,80.0,0.0,40.0,2.0,0.0
4307,53.0,37.0,120.0,3.0,0.0
4308,77.0,18.0,15.0,2.0,0.0
4309,79.0,1.0,60.0,10.0,0.0
4310,67.0,1.0,60.0,11.0,0.0
4311,68.0,0.0,40.0,2.0,0.0
4312,72.0,0.0,15.0,2.0,0.0
4313,77.0,1.0,60.0,10.0,0.0
4314,65.0,25.0,60.0,11.0,0.0
4315,53.0,2.0,40.0,12.0,0.0
4316,49.0,12.0,40.0,13.0,0.0
4317,37.0,35.0,120.0,14.0,0.0
4318,58.0,2.0,40.0,12.0,0.0
4319,55.0,35.0,40.0,13.0,0.0
4320,82.0,1.0,60.0,10.0,0.0
4321,70.0,2.0,60.0,11.0,0.0
4322,61.0,2.0,40.0,12.0,0.0
4323,58.0,2.0,40.0,13.0,0.0
4324,84.0,1.0,60.0,10.0,0.0
4325,72.0,21.0,60.0,11.0,0.0
4326,77.0,18.0,40.0,2.0,0.0
4327,73.0,0.0,40.0,2.0,0.0
4328,49.0,37.0,120.0,3.0,0.0
4329,70.0,0.0,40.0,2.0,0.0
4330,73.0,38.0,40.0,2.0,0.0
4331,85.0,1.0,60.0,10.0,0.0
4332,73.0,1.0,60.0,11.0,0.0
4333,65.0,4.0,40.0,2.0,0.0
4334,70.0,0.0,40.0,2.0,0.0
4335,82.0,1.0,60.0,10.0,0.0
4336,70.0,22.0,60.0,11.0,0.0
4337,55.0,2.0,40.0,12.0,0.0
4338,51.0,15.0,40.0,13.0,0.0
4339,39.0,35.0,120.0,14.0,0.0
4340,58.0,2.0,40.0,12.0,0.0
4341,55.0,35.0,40.0,13.0,0.0
4342,80.0,1.0,60.0,10.0,0.0
4343,68.0,2.0,60.0,11.0,0.0
4344,63.0,2.0,40.0,12.0,0.0
4345,58.0,2.0,40.0,13.0,0.0
4346,79.0,1.0,60.0,10.0,0.0
4347,67.0,21.0,60.0,11.0,0.0
4348,79.0,0.0,40.0,2.0,0.0
4349,51.0,37.0,120.0,3.0,0.0
4350,75.0,18.0,15.0,2.0,0.0
4351,70.0,38.0,40.0,2.0,0.0
4352,77.0,1.0,60.0,10.0,0.0
4353,65.0,1.0,60.0,11.0,0.0
4354,70.0,0.0,40.0,2.0,0.0
4355,67.0,4.0,40.0,2.0,0.0
4356,75.0,1.0,60.0,10.0,0.0
4357,63.0,25.0,60.0,11.0,0.0
4358,56.0,2.0,40.0,12.0,0.0
4359,48.0,12.0,40.0,13.0,0.0
4360,36.0,35.0,120.0,14.0,0.0
4361,60.0,2.0,40.0,12.0,0.0
4362,56.0,35.0,40.0,13.0,0.0
4363,80.0,1.0,60.0,10.0,0.0
4364,68.0,2.0,60.0,11.0,0.0
4365,63.0,2.0,40.0,12.0,0.0
4366,60.0,2.0,40.0,13.0,0.0
4367,87.0,1.0,180.0,10.0,0.0
4368,75.0,25.0,180.0,11.0,0.0
4369,72.0,40.0,40.0,2.0,0.0
4370,75.0,0.0,40.0,2.0,0.0
4371,48.0,37.0,120.0,3.0,0.0
4372,68.0,40.0,40.0,2.0,0.0
4373,72.0,0.0,40.0,2.0,0.0
4374,63.0,4.0,40.0,2.0,0.0
4375,68.0,0.0,40.0,2.0,0.0
4376,56.0,2.0,40.0,12.0,0.0
4377,47.0,12.0,40.0,13.0,0.0
4378,35.0,35.0,120.0,14.0,0.0
4379,59.0,2.0,40.0,12.0,0.0
4380,56.0,35.0,40.0,13.0,0.0
4381,80.0,1.0,60.0,10.0,0.0
4382,68.0,2.0,60.0,11.0,0.0
4383,63.0,2.0,40.0,12.0,0.0
4384,59.0,2.0,40.0,13.0,0.0
4385,89.0,1.0,180.0,10.0,0.0
4386,77.0,25.0,180.0,11.0,0.0
4387,80.0,40.0,40.0,2.0,0.0
4388,47.0,37.0,120.0,3.0,0.0
4389,75.0,0.0,15.0,2.0,0.0
4390,71.0,35.0,15.0,2.0,0.0
4391,68.0,0.0,40.0,2.0,0.0
4392,86.0,0.0,240.0,0.0,0.0
4393,77.0,2.0,240.0,0.0,0.0
4394,77.0,0.0,150.0,2.0,0.0
4395,80.0,1.0,150.0,2.0,0.0
4396,53.0,2.0,40.0,12.0,0.0
4397,46.0,12.0,40.0,13.0,0.0
4398,46.0,1.0,240.0,3.0,0.0
4399,34.0,35.0,240.0,14.0,0.0
4400,56.0,2.0,40.0,12.0,0.0
4401,53.0,33.0,40.0,13.0,0.0
4402,92.0,1.0,60.0,10.0,0.0
4403,80.0,41.0,60.0,11.0,0.0
4404,62.0,2.0,40.0,12.0,0.0
4405,58.0,0.0,40.0,13.0,0.0
4406,91.0,1.0,60.0,10.0,0.0
4407,79.0,21.0,60.0,11.0,0.0
4408,56.0,2.0,40.0,12.0,0.0
4409,46.0,15.0,40.0,13.0,0.0
4410,77.0,0.0,40.0,2.0,0.0
4411,62.0,2.0,40.0,12.0,0.0
4412,56.0,30.0,40.0,13.0,0.0
4413,89.0,1.0,60.0,10.0,0.0
4414,77.0,5.0,60.0,11.0,0.0
4415,74.0,1.0,15.0,2.0,0.0
4416,68.0,1.0,40.0,2.0,0.0
4417,65.0,2.0,40.0,12.0,0.0
4418,62.0,0.0,40.0,13.0,0.0
4419,80.0,0.0,120.0,0.0,0.0
4420,84.0,1.0,90.0,10.0,0.0
4421,89.0,2.0,120.0,0.0,0.0
4422,72.0,26.0,90.0,11.0,0.0
4423,74.0,1.0,40.0,2.0,0.0
4424,77.0,0.0,40.0,2.0,0.0
4425,62.0,2.0,40.0,12.0,0.0
4426,58.0,37.0,40.0,13.0,0.0
4427,58.0,1.0,120.0,3.0,0.0
4428,46.0,113.0,120.0,14.0,0.0
4429,68.0,0.0,40.0,2.0,0.0
4430,74.0,1.0,40.0,2.0,0.0
4431,65.0,2.0,40.0,12.0,0.0
4432,62.0,5.0,40.0,13.0,0.0
4433,65.0,0.0,40.0,2.0,0.0
4434,68.0,4.0,40.0,2.0,0.0
4435,68.0,2.0,40.0,12.0,0.0
4436,65.0,0.0,40.0,13.0,0.0
4437,86.0,1.0,30.0,10.0,0.0
4438,74.0,0.0,30.0,11.0,0.0
4439,86.0,1.0,120.0,10.0,0.0
4440,74.0,41.0,120.0,11.0,0.0
4441,87.0,1.0,180.0,10.0,0.0
4442,78.0,1.0,120.0,0.0,0.0
4443,87.0,0.0,120.0,0.0,0.0
4444,75.0,22.0,180.0,11.0,0.0
4445,75.0,0.0,120.0,1.0,0.0
4446,78.0,5.0,120.0,1.0,0.0
4447,63.0,40.0,40.0,2.0,0.0
4448,47.0,0.0,120.0,13.0,0.0
4449,47.0,1.0,120.0,3.0,0.0
4450,35.0,36.0,120.0,14.0,0.0
4451,66.0,0.0,15.0,2.0,0.0
4452,75.0,3.0,40.0,2.0,0.0
4453,71.0,0.0,15.0,2.0,0.0
4454,79.0,0.0,240.0,0.0,0.0
4455,88.0,1.0,240.0,0.0,0.0
4456,79.0,1.0,240.0,1.0,0.0
4457,76.0,0.0,240.0,1.0,0.0
4458,64.0,0.0,240.0,4.0,0.0
4459,67.0,1.0,240.0,2.0,0.0
4460,76.0,0.0,240.0,2.0,0.0
4461,52.0,2.0,40.0,12.0,0.0
4462,58.0,0.0,240.0,5.0,0.0
4463,46.0,15.0,40.0,13.0,0.0
4464,46.0,1.0,240.0,3.0,0.0
4465,34.0,113.0,240.0,14.0,0.0
4466,55.0,2.0,40.0,12.0,0.0
4467,52.0,35.0,40.0,13.0,0.0
4468,85.0,1.0,60.0,10.0,0.0
4469,73.0,2.0,60.0,11.0,0.0
4470,64.0,2.0,40.0,12.0,0.0
4471,55.0,78.0,40.0,13.0,0.0
4472,79.0,1.0,90.0,10.0,0.0
4473,67.0,26.0,90.0,11.0,0.0
4474,64.0,2.0,40.0,12.0,0.0
4475,55.0,5.0,40.0,13.0,0.0
4476,67.0,2.0,40.0,12.0,0.0
4477,64.0,1.0,40.0,13.0,0.0
4478,85.0,1.0,30.0,10.0,0.0
4479,73.0,2.0,30.0,11.0,0.0
4480,85.0,1.0,120.0,10.0,0.0
4481,73.0,41.0,120.0,11.0,0.0
4482,85.0,0.0,120.0,0.0,0.0
4483,88.0,1.0,180.0,10.0,0.0
4484,79.0,0.0,120.0,0.0,0.0
4485,79.0,5.0,120.0,1.0,0.0
4486,73.0,0.0,120.0,1.0,0.0
4487,76.0,22.0,180.0,11.0,0.0
4488,64.0,40.0,40.0,2.0,0.0
4489,61.0,0.0,40.0,2.0,0.0
4490,46.0,1.0,120.0,13.0,0.0
4491,46.0,1.0,120.0,3.0,0.0
4492,34.0,36.0,120.0,14.0,0.0
4493,64.0,0.0,40.0,2.0,0.0
4494,67.0,35.0,15.0,2.0,0.0
4495,73.0,3.0,40.0,2.0,0.0
4496,90.0,1.0,240.0,0.0,0.0
4497,78.0,0.0,240.0,0.0,0.0
4498,78.0,1.0,240.0,1.0,0.0
4499,66.0,1.0,240.0,2.0,0.0
4500,78.0,0.0,240.0,2.0,0.0
4501,66.0,0.0,240.0,4.0,0.0
4502,54.0,2.0,240.0,5.0,0.0
4503,54.0,2.0,40.0,12.0,0.0
4504,45.0,15.0,40.0,13.0,0.0
4505,45.0,1.0,240.0,3.0,0.0
4506,33.0,113.0,240.0,14.0,0.0
4507,59.0,2.0,40.0,12.0,0.0
4508,54.0,35.0,40.0,13.0,0.0
4509,87.0,1.0,60.0,10.0,0.0
4510,75.0,2.0,60.0,11.0,0.0
4511,66.0,2.0,40.0,12.0,0.0
4512,57.0,78.0,40.0,13.0,0.0
4513,83.0,1.0,90.0,10.0,0.0
4514,71.0,27.0,90.0,11.0,0.0
4515,75.0,0.0,120.0,1.0,0.0
4516,66.0,2.0,40.0,12.0,0.0
4517,57.0,5.0,40.0,13.0,0.0
4518,71.0,0.0,40.0,12.0,0.0
4519,63.0,1.0,40.0,13.0,0.0
4520,90.0,1.0,30.0,10.0,0.0
4521,78.0,1.0,30.0,11.0,0.0
4522,90.0,1.0,120.0,10.0,0.0
4523,78.0,44.0,120.0,11.0,0.0
4524,95.0,1.0,480.0,10.0,0.0
4525,88.0,0.0,240.0,0.0,0.0
4526,83.0,0.0,480.0,11.0,0.0
4527,76.0,0.0,240.0,1.0,0.0
4528,88.0,0.0,240.0,1.0,0.0
4529,83.0,0.0,150.0,2.0,0.0
4530,80.0,40.0,150.0,2.0,0.0
4531,56.0,40.0,240.0,12.0,0.0
4532,47.0,40.0,40.0,13.0,0.0
4533,44.0,1.0,240.0,3.0,0.0
4534,32.0,1.0,240.0,14.0,0.0
4535,52.0,35.0,40.0,13.0,0.0
4536,56.0,42.0,40.0,13.0,0.0
4537,59.0,1.0,120.0,13.0,0.0
4538,76.0,35.0,40.0,2.0,0.0
4539,80.0,0.0,40.0,2.0,0.0
4540,71.0,3.0,40.0,2.0,0.0
4541,76.0,0.0,40.0,2.0,0.0
4542,87.0,0.0,240.0,0.0,0.0
4543,75.0,1.0,240.0,1.0,0.0
4544,87.0,0.0,240.0,1.0,0.0
4545,71.0,0.0,150.0,2.0,0.0
4546,59.0,2.0,40.0,12.0,0.0
4547,56.0,38.0,40.0,13.0,0.0
4548,44.0,0.0,240.0,3.0,0.0
4549,32.0,1.0,240.0,14.0,0.0
4550,63.0,2.0,40.0,12.0,0.0
4551,59.0,35.0,40.0,13.0,0.0
4552,68.0,39.0,40.0,12.0,0.0
4553,63.0,3.0,40.0,13.0,0.0
4554,71.0,117.0,120.0,12.0,0.0
4555,68.0,0.0,120.0,13.0,0.0
4556,63.0,0.0,40.0,2.0,0.0
4557,68.0,40.0,15.0,2.0,0.0
4558,59.0,3.0,40.0,2.0,0.0
4559,63.0,0.0,40.0,2.0,0.0
4560,86.0,1.0,120.0,0.0,0.0
4561,94.0,0.0,120.0,10.0,0.0
4562,86.0,0.0,120.0,1.0,0.0
4563,82.0,1.0,120.0,11.0,0.0
4564,74.0,0.0,120.0,1.0,0.0
4565,65.0,1.0,120.0,2.0,0.0
4566,58.0,0.0,120.0,2.0,0.0
4567,65.0,2.0,120.0,12.0,0.0
4568,56.0,1.0,120.0,13.0,0.0
4569,56.0,1.0,120.0,3.0,0.0
4570,44.0,233.0,120.0,14.0,0.0
4571,75.0,2.0,120.0,0.0,0.0
4572,75.0,2.0,240.0,1.0,0.0
4573,63.0,1.0,120.0,4.0,0.0
4574,63.0,2.0,240.0,12.0,0.0
4575,58.0,118.0,120.0,12.0,0.0
4576,55.0,1.0,240.0,13.0,0.0
4577,55.0,1.0,240.0,3.0,0.0
4578,43.0,114.0,240.0,14.0,0.0
4579,80.0,2.0,300.0,0.0,0.0
4580,68.0,58.0,300.0,4.0,0.0
4581,56.0,2.0,480.0,12.0,0.0
4582,74.0,2.0,120.0,1.0,0.0
4583,62.0,2.0,120.0,12.0,0.0
4584,53.0,1.0,120.0,13.0,0.0
4585,53.0,1.0,120.0,3.0,0.0
4586,41.0,53.0,120.0,14.0,0.0
4587,72.0,1.0,120.0,1.0,0.0
4588,60.0,2.0,120.0,12.0,0.0
4589,51.0,1.0,120.0,13.0,0.0
4590,51.0,1.0,120.0,3.0,0.0
4591,39.0,53.0,120.0,14.0,0.0
4592,77.0,1.0,60.0,0.0,0.0
4593,65.0,1.0,60.0,4.0,0.0
4594,82.0,2.0,60.0,0.0,0.0
4595,70.0,1.0,120.0,1.0,0.0
4596,70.0,58.0,60.0,4.0,0.0
4597,58.0,0.0,120.0,12.0,0.0
4598,50.0,1.0,120.0,13.0,0.0
4599,50.0,1.0,120.0,3.0,0.0
4600,38.0,53.0,120.0,14.0,0.0
4601,77.0,1.0,60.0,0.0,0.0
4602,65.0,1.0,60.0,4.0,0.0
4603,80.0,2.0,60.0,0.0,0.0
4604,68.0,58.0,60.0,4.0,0.0
4605,77.0,2.0,60.0,0.0,0.0
4606,65.0,58.0,60.0,4.0,0.0
4607,82.0,2.0,60.0,0.0,0.0
4608,70.0,53.0,60.0,4.0,0.0
4609,77.0,4.0,60.0,0.0,0.0
4610,65.0,242.0,60.0,4.0,0.0
4611,80.0,0.0,360.0,0.0,0.0
4612,68.0,4.0,360.0,4.0,0.0
4613,77.0,1.0,240.0,0.0,0.0
4614,73.0,4.0,120.0,1.0,0.0
4615,46.0,1.0,120.0,13.0,0.0
4616,61.0,1.0,120.0,3.0,0.0
4617,65.0,0.0,240.0,3.0,0.0
4618,34.0,113.0,120.0,14.0,0.0
4619,72.0,1.0,120.0,1.0,0.0
4620,49.0,2.0,300.0,13.0,0.0
4621,60.0,114.0,120.0,3.0,0.0
4622,37.0,52.0,300.0,14.0,0.0
4623,75.0,0.0,120.0,0.0,0.0
4624,79.0,1.0,120.0,0.0,0.0
4625,70.0,1.0,120.0,1.0,0.0
4626,70.0,3.0,360.0,2.0,0.0
4627,58.0,1.0,240.0,4.0,0.0
4628,67.0,4.0,120.0,4.0,0.0
4629,58.0,0.0,120.0,2.0,0.0
4630,58.0,0.0,120.0,3.0,0.0
4631,63.0,59.0,120.0,3.0,0.0
4632,77.0,1.0,120.0,0.0,0.0
4633,68.0,1.0,120.0,1.0,0.0
4634,65.0,3.0,120.0,4.0,0.0
4635,61.0,0.0,240.0,2.0,0.0
4636,56.0,1.0,120.0,3.0,0.0
4637,46.0,1.0,60.0,13.0,0.0
4638,34.0,58.0,60.0,14.0,0.0
4639,75.0,1.0,120.0,0.0,0.0
4640,67.0,1.0,120.0,1.0,0.0
4641,58.0,0.0,120.0,4.0,0.0
4642,63.0,0.0,120.0,4.0,0.0
4643,51.0,2.0,60.0,13.0,0.0
4644,55.0,1.0,120.0,3.0,0.0
4645,39.0,53.0,60.0,14.0,0.0
4646,46.0,1.0,60.0,13.0,0.0
4647,34.0,58.0,60.0,14.0,0.0
4648,49.0,2.0,60.0,13.0,0.0
4649,37.0,58.0,60.0,14.0,0.0
4650,46.0,2.0,60.0,13.0,0.0
4651,34.0,58.0,60.0,14.0,0.0
4652,73.0,1.0,180.0,10.0,0.0
4653,67.0,4.0,180.0,11.0,0.0
4654,63.0,2.0,180.0,12.0,0.0
4655,51.0,2.0,60.0,13.0,0.0
4656,39.0,53.0,60.0,14.0,0.0
4657,46.0,2.0,60.0,13.0,0.0
4658,34.0,56.0,60.0,14.0,0.0
4659,47.0,2.0,60.0,13.0,0.0
4660,35.0,53.0,60.0,14.0,0.0
4661,71.0,1.0,60.0,10.0,0.0
4662,68.0,2.0,60.0,11.0,0.0
4663,63.0,2.0,60.0,12.0,0.0
4664,44.0,2.0,60.0,13.0,0.0
4665,32.0,56.0,60.0,14.0,0.0
4666,65.0,2.0,60.0,12.0,0.0
4667,49.0,2.0,60.0,13.0,0.0
4668,37.0,53.0,60.0,14.0,0.0
4669,71.0,1.0,120.0,10.0,0.0
4670,65.0,4.0,120.0,11.0,0.0
4671,61.0,2.0,120.0,12.0,0.0
4672,44.0,2.0,60.0,13.0,0.0
4673,32.0,56.0,60.0,14.0,0.0
4674,46.0,1.0,60.0,13.0,0.0
4675,58.0,1.0,60.0,3.0,0.0
4676,46.0,53.0,60.0,14.0,0.0
4677,70.0,1.0,60.0,10.0,0.0
4678,66.0,2.0,60.0,11.0,0.0
4679,61.0,2.0,60.0,12.0,0.0
4680,42.0,1.0,60.0,13.0,0.0
4681,54.0,1.0,60.0,3.0,0.0
4682,42.0,56.0,60.0,14.0,0.0
4683,63.0,2.0,60.0,12.0,0.0
4684,47.0,1.0,60.0,13.0,0.0
4685,59.0,1.0,60.0,3.0,0.0
4686,47.0,53.0,60.0,14.0,0.0
4687,70.0,1.0,120.0,10.0,0.0
4688,63.0,24.0,120.0,11.0,0.0
4689,59.0,2.0,120.0,12.0,0.0
4690,42.0,1.0,60.0,13.0,0.0
4691,54.0,1.0,60.0,3.0,0.0
4692,42.0,43.0,60.0,14.0,0.0
4693,44.0,1.0,40.0,13.0,0.0
4694,56.0,1.0,40.0,3.0,0.0
4695,44.0,11.0,40.0,14.0,0.0
4696,41.0,1.0,40.0,13.0,0.0
4697,53.0,1.0,40.0,3.0,0.0
4698,41.0,33.0,40.0,14.0,0.0
4699,68.0,1.0,60.0,10.0,0.0
4700,65.0,2.0,60.0,11.0,0.0
4701,59.0,2.0,60.0,12.0,0.0
4702,47.0,1.0,40.0,13.0,0.0
4703,59.0,1.0,40.0,3.0,0.0
4704,47.0,38.0,40.0,14.0,0.0
4705,44.0,1.0,40.0,13.0,0.0
4706,56.0,1.0,40.0,3.0,0.0
4707,44.0,38.0,40.0,14.0,0.0
4708,53.0,1.0,40.0,13.0,0.0
4709,65.0,1.0,40.0,3.0,0.0
4710,53.0,33.0,40.0,14.0,0.0
4711,94.0,1.0,120.0,10.0,0.0
4712,82.0,24.0,120.0,11.0,0.0
4713,77.0,0.0,120.0,12.0,0.0
4714,65.0,2.0,120.0,12.0,0.0
4715,47.0,1.0,40.0,13.0,0.0
4716,59.0,1.0,40.0,3.0,0.0
4717,47.0,43.0,40.0,14.0,0.0
4718,56.0,1.0,40.0,13.0,0.0
4719,68.0,1.0,40.0,3.0,0.0
4720,56.0,11.0,40.0,14.0,0.0
4721,53.0,1.0,40.0,13.0,0.0
4722,65.0,1.0,40.0,3.0,0.0
4723,53.0,8.0,40.0,14.0,0.0
4724,92.0,1.0,40.0,10.0,0.0
4725,80.0,2.0,40.0,11.0,0.0
4726,77.0,108.0,40.0,12.0,0.0
4727,65.0,0.0,40.0,12.0,0.0
4728,59.0,1.0,15.0,13.0,0.0
4729,71.0,1.0,15.0,3.0,0.0
4730,59.0,5.0,15.0,14.0,0.0
4731,58.0,0.0,120.0,4.0,0.0
4732,70.0,1.0,120.0,6.0,0.0
4733,70.0,2.0,90.0,12.0,0.0
4734,58.0,2.0,120.0,5.0,0.0
4735,58.0,22.0,90.0,13.0,0.0
4736,75.0,0.0,30.0,12.0,0.0
4737,63.0,117.0,30.0,13.0,0.0
4738,63.0,0.0,120.0,4.0,0.0
4739,75.0,1.0,120.0,6.0,0.0
4740,63.0,0.0,120.0,5.0,0.0
4741,75.0,2.0,120.0,12.0,0.0
4742,63.0,67.0,120.0,13.0,0.0
4743,75.0,1.0,90.0,10.0,0.0
4744,75.0,21.0,90.0,11.0,0.0
4745,75.0,3.0,120.0,2.0,0.0
4746,63.0,1.0,120.0,4.0,0.0
4747,75.0,0.0,120.0,6.0,0.0
4748,73.0,0.0,120.0,2.0,0.0
4749,63.0,2.0,120.0,7.0,0.0
4750,73.0,0.0,120.0,12.0,0.0
4751,63.0,0.0,120.0,5.0,0.0
4752,63.0,0.0,120.0,12.0,0.0
4753,63.0,0.0,120.0,13.0,0.0
4754,61.0,1.0,120.0,7.0,0.0
4755,63.0,0.0,120.0,3.0,0.0
4756,61.0,0.0,120.0,3.0,0.0
4757,63.0,1.0,120.0,8.0,0.0
4758,51.0,12.0,120.0,14.0,0.0
4759,51.0,23.0,60.0,15.0,0.0
4760,80.0,1.0,30.0,10.0,0.0
4761,80.0,1.0,30.0,11.0,0.0
4762,80.0,3.0,15.0,10.0,0.0
4763,80.0,2.0,60.0,11.0,0.0
4764,63.0,0.0,240.0,4.0,0.0
4765,63.0,1.0,240.0,6.0,0.0
4766,75.0,0.0,240.0,6.0,0.0
4767,71.0,3.0,120.0,2.0,0.0
4768,80.0,0.0,120.0,2.0,0.0
4769,63.0,0.0,240.0,7.0,0.0
4770,51.0,0.0,240.0,5.0,0.0
4771,71.0,3.0,15.0,12.0,0.0
4772,68.0,0.0,120.0,7.0,0.0
4773,59.0,1.0,120.0,7.0,0.0
4774,51.0,1.0,360.0,13.0,0.0
4775,68.0,5.0,120.0,3.0,0.0
4776,59.0,0.0,120.0,3.0,0.0
4777,51.0,0.0,360.0,8.0,0.0
4778,51.0,1.0,15.0,15.0,0.0
4779,39.0,13.0,360.0,14.0,0.0
4780,51.0,9.0,15.0,15.0,0.0
4781,79.0,2.0,15.0,10.0,0.0
4782,51.0,5.0,15.0,15.0,0.0
4783,71.0,6.0,15.0,12.0,0.0
4784,51.0,1.0,15.0,15.0,0.0
4785,51.0,7.0,15.0,15.0,0.0
4786,80.0,1.0,15.0,10.0,0.0
4787,71.0,2.0,15.0,12.0,0.0
4788,51.0,4.0,15.0,15.0,0.0
4789,51.0,6.0,15.0,15.0,0.0
4790,82.0,3.0,15.0,10.0,0.0
4791,82.0,2.0,60.0,11.0,0.0
4792,63.0,3.0,15.0,12.0,0.0
4793,51.0,1.0,15.0,15.0,0.0
4794,51.0,8.0,15.0,15.0,0.0
4795,83.0,1.0,15.0,10.0,0.0
4796,51.0,6.0,15.0,15.0,0.0
4797,63.0,6.0,15.0,12.0,0.0
4798,51.0,2.0,15.0,15.0,0.0
4799,51.0,7.0,15.0,15.0,0.0
4800,80.0,1.0,15.0,10.0,0.0
4801,63.0,2.0,15.0,12.0,0.0
4802,51.0,1.0,15.0,15.0,0.0
4803,51.0,0.0,15.0,15.0,0.0
4804,78.0,0.0,15.0,10.0,0.0
4805,78.0,2.0,60.0,11.0,0.0
4806,70.0,0.0,120.0,2.0,0.0
4807,78.0,3.0,120.0,2.0,0.0
4808,66.0,0.0,120.0,7.0,0.0
4809,70.0,4.0,15.0,12.0,0.0
4810,58.0,1.0,120.0,7.0,0.0
4811,58.0,0.0,120.0,3.0,0.0
4812,66.0,14.0,120.0,3.0,0.0
4813,51.0,3.0,15.0,15.0,0.0
4814,77.0,1.0,15.0,10.0,0.0
4815,70.0,7.0,15.0,12.0,0.0
4816,51.0,5.0,15.0,15.0,0.0
4817,78.0,1.0,15.0,10.0,0.0
4818,70.0,2.0,15.0,12.0,0.0
4819,51.0,7.0,15.0,15.0,0.0
4820,51.0,6.0,15.0,15.0,0.0
4821,80.0,3.0,15.0,10.0,0.0
4822,80.0,1.0,60.0,11.0,0.0
4823,63.0,4.0,15.0,12.0,0.0
4824,51.0,1.0,15.0,15.0,0.0
4825,51.0,7.0,15.0,15.0,0.0
4826,82.0,2.0,15.0,10.0,0.0
4827,51.0,6.0,15.0,15.0,0.0
4828,63.0,6.0,15.0,12.0,0.0
4829,51.0,1.0,15.0,15.0,0.0
4830,51.0,8.0,15.0,15.0,0.0
4831,78.0,1.0,15.0,10.0,0.0
4832,63.0,2.0,15.0,12.0,0.0
4833,51.0,0.0,15.0,15.0,0.0
4834,51.0,0.0,15.0,15.0,0.0
4835,77.0,3.0,15.0,10.0,0.0
4836,77.0,2.0,60.0,11.0,0.0
4837,77.0,3.0,120.0,2.0,0.0
4838,74.0,0.0,120.0,2.0,0.0
4839,65.0,0.0,120.0,7.0,0.0
4840,68.0,17.0,15.0,12.0,0.0
4841,62.0,2.0,120.0,7.0,0.0
4842,56.0,0.0,120.0,7.0,0.0
4843,65.0,0.0,120.0,3.0,0.0
4844,56.0,1.0,120.0,3.0,0.0
4845,51.0,8.0,60.0,15.0,0.0
4846,75.0,3.0,15.0,10.0,0.0
4847,68.0,17.0,15.0,12.0,0.0
4848,77.0,1.0,15.0,10.0,0.0
4849,68.0,9.0,15.0,12.0,0.0
4850,78.0,3.0,15.0,10.0,0.0
4851,78.0,2.0,60.0,11.0,0.0
4852,62.0,17.0,15.0,12.0,0.0
4853,80.0,3.0,15.0,10.0,0.0
4854,62.0,14.0,15.0,12.0,0.0
4855,77.0,1.0,15.0,10.0,0.0
4856,62.0,0.0,15.0,12.0,0.0
4857,70.0,3.0,15.0,10.0,0.0
4858,70.0,4.0,90.0,11.0,0.0
4859,82.0,1.0,120.0,1.0,0.0
4860,70.0,0.0,120.0,4.0,0.0
4861,75.0,4.0,120.0,2.0,0.0
4862,82.0,1.0,120.0,6.0,0.0
4863,70.0,0.0,120.0,6.0,0.0
4864,70.0,0.0,120.0,2.0,0.0
4865,58.0,0.0,120.0,5.0,0.0
4866,66.0,17.0,15.0,12.0,0.0
4867,63.0,2.0,120.0,7.0,0.0
4868,63.0,0.0,120.0,13.0,0.0
4869,54.0,1.0,120.0,7.0,0.0
4870,63.0,1.0,120.0,3.0,0.0
4871,54.0,0.0,120.0,3.0,0.0
4872,51.0,0.0,120.0,8.0,0.0
4873,51.0,8.0,60.0,15.0,0.0
4874,51.0,12.0,120.0,14.0,0.0
4875,75.0,3.0,15.0,10.0,0.0
4876,66.0,17.0,15.0,12.0,0.0
4877,78.0,3.0,15.0,10.0,0.0
4878,66.0,9.0,15.0,12.0,0.0
4879,81.0,3.0,15.0,10.0,0.0
4880,63.0,13.0,15.0,12.0,0.0
4881,82.0,3.0,15.0,10.0,0.0
4882,63.0,13.0,15.0,12.0,0.0
4883,75.0,1.0,30.0,11.0,0.0
4884,87.0,3.0,40.0,10.0,0.0
4885,63.0,0.0,15.0,12.0,0.0
4886,78.0,1.0,120.0,1.0,0.0
4887,75.0,2.0,60.0,11.0,0.0
4888,87.0,0.0,120.0,1.0,0.0
4889,70.0,0.0,240.0,4.0,0.0
4890,78.0,3.0,120.0,2.0,0.0
4891,70.0,0.0,240.0,6.0,0.0
4892,82.0,1.0,240.0,6.0,0.0
4893,75.0,0.0,120.0,2.0,0.0
4894,58.0,2.0,240.0,5.0,0.0
4895,78.0,4.0,15.0,12.0,0.0
4896,46.0,1.0,360.0,13.0,0.0
4897,58.0,0.0,360.0,7.0,0.0
4898,66.0,0.0,120.0,3.0,0.0
4899,46.0,0.0,360.0,8.0,0.0
4900,63.0,6.0,120.0,3.0,0.0
4901,46.0,1.0,15.0,15.0,0.0
4902,34.0,13.0,360.0,14.0,0.0
4903,46.0,8.0,15.0,15.0,0.0
4904,86.0,1.0,15.0,10.0,0.0
4905,78.0,6.0,15.0,12.0,0.0
4906,46.0,5.0,15.0,15.0,0.0
4907,46.0,8.0,15.0,15.0,0.0
4908,87.0,1.0,15.0,10.0,0.0
4909,78.0,2.0,15.0,12.0,0.0
4910,46.0,3.0,15.0,15.0,0.0
4911,46.0,6.0,15.0,15.0,0.0
4912,89.0,3.0,15.0,10.0,0.0
4913,77.0,2.0,60.0,11.0,0.0
4914,70.0,4.0,15.0,12.0,0.0
4915,46.0,1.0,15.0,15.0,0.0
4916,46.0,8.0,15.0,15.0,0.0
4917,90.0,1.0,15.0,10.0,0.0
4918,70.0,7.0,15.0,12.0,0.0
4919,46.0,5.0,15.0,15.0,0.0
4920,87.0,1.0,15.0,10.0,0.0
4921,70.0,1.0,15.0,12.0,0.0
4922,46.0,6.0,15.0,15.0,0.0
4923,46.0,2.0,15.0,15.0,0.0
4924,46.0,8.0,15.0,15.0,0.0
4925,85.0,3.0,15.0,10.0,0.0
4926,77.0,0.0,120.0,1.0,0.0
4927,85.0,1.0,120.0,1.0,0.0
4928,73.0,2.0,60.0,11.0,0.0
4929,77.0,3.0,120.0,2.0,0.0
4930,73.0,0.0,120.0,2.0,0.0
4931,77.0,3.0,15.0,12.0,0.0
4932,65.0,14.0,120.0,3.0,0.0
4933,61.0,0.0,120.0,3.0,0.0
4934,46.0,0.0,15.0,15.0,0.0
4935,84.0,1.0,15.0,10.0,0.0
4936,77.0,6.0,15.0,12.0,0.0
4937,46.0,5.0,15.0,15.0,0.0
4938,85.0,1.0,15.0,10.0,0.0
4939,77.0,2.0,15.0,12.0,0.0
4940,46.0,7.0,15.0,15.0,0.0
4941,46.0,7.0,15.0,15.0,0.0
4942,87.0,3.0,15.0,10.0,0.0
4943,75.0,1.0,60.0,11.0,0.0
4944,70.0,3.0,15.0,12.0,0.0
4945,46.0,7.0,15.0,15.0,0.0
4946,46.0,8.0,15.0,15.0,0.0
4947,89.0,1.0,15.0,10.0,0.0
4948,46.0,6.0,15.0,15.0,0.0
4949,70.0,6.0,15.0,12.0,0.0
4950,46.0,2.0,15.0,15.0,0.0
4951,46.0,7.0,15.0,15.0,0.0
4952,85.0,1.0,15.0,10.0,0.0
4953,70.0,0.0,15.0,12.0,0.0
4954,46.0,0.0,15.0,15.0,0.0
4955,46.0,1.0,15.0,15.0,0.0
4956,84.0,3.0,15.0,10.0,0.0
4957,72.0,2.0,60.0,11.0,0.0
4958,81.0,0.0,120.0,1.0,0.0
4959,84.0,1.0,120.0,1.0,0.0
4960,72.0,0.0,120.0,2.0,0.0
4961,75.0,3.0,120.0,2.0,0.0
4962,75.0,17.0,15.0,12.0,0.0
4963,60.0,0.0,120.0,3.0,0.0
4964,63.0,1.0,120.0,3.0,0.0
4965,46.0,8.0,60.0,15.0,0.0
4966,82.0,3.0,15.0,10.0,0.0
4967,75.0,17.0,15.0,12.0,0.0
4968,84.0,1.0,15.0,10.0,0.0
4969,75.0,9.0,15.0,12.0,0.0
4970,85.0,3.0,15.0,10.0,0.0
4971,73.0,2.0,60.0,11.0,0.0
4972,69.0,17.0,15.0,12.0,0.0
4973,87.0,3.0,15.0,10.0,0.0
4974,69.0,13.0,15.0,12.0,0.0
4975,84.0,1.0,15.0,10.0,0.0
4976,69.0,2.0,15.0,12.0,0.0
4977,77.0,3.0,15.0,10.0,0.0
4978,89.0,1.0,120.0,0.0,0.0
4979,77.0,1.0,120.0,1.0,0.0
4980,73.0,4.0,90.0,11.0,0.0
4981,77.0,0.0,90.0,11.0,0.0
4982,65.0,1.0,120.0,4.0,0.0
4983,73.0,4.0,120.0,2.0,0.0
4984,77.0,0.0,120.0,6.0,0.0
4985,70.0,0.0,120.0,2.0,0.0
4986,73.0,17.0,15.0,12.0,0.0
4987,65.0,0.0,120.0,5.0,0.0
4988,65.0,0.0,120.0,7.0,0.0
4989,61.0,1.0,120.0,7.0,0.0
4990,58.0,0.0,120.0,13.0,0.0
4991,61.0,0.0,120.0,3.0,0.0
4992,58.0,0.0,120.0,8.0,0.0
4993,58.0,1.0,120.0,3.0,0.0
4994,46.0,5.0,120.0,14.0,0.0
4995,82.0,3.0,15.0,10.0,0.0
4996,73.0,17.0,15.0,12.0,0.0
4997,85.0,3.0,15.0,10.0,0.0
4998,73.0,17.0,15.0,12.0,0.0
4999,88.0,3.0,15.0,10.0,0.0
5000,70.0,13.0,15.0,12.0,0.0
5001,46.0,7.0,60.0,15.0,0.0
5002,89.0,3.0,15.0,10.0,0.0
5003,70.0,12.0,15.0,12.0,0.0
5004,82.0,1.0,30.0,11.0,0.0
5005,94.0,1.0,40.0,10.0,0.0
5006,70.0,2.0,15.0,12.0,0.0
5007,94.0,0.0,60.0,0.0,0.0
5008,91.0,1.0,60.0,0.0,0.0
5009,82.0,2.0,15.0,11.0,0.0
5010,79.0,0.0,60.0,1.0,0.0
5011,82.0,1.0,60.0,1.0,0.0
5012,70.0,0.0,60.0,4.0,0.0
5013,73.0,0.0,60.0,2.0,0.0
5014,67.0,1.0,60.0,2.0,0.0
5015,82.0,0.0,60.0,6.0,0.0
5016,73.0,0.0,60.0,6.0,0.0
5017,61.0,0.0,60.0,5.0,0.0
5018,70.0,0.0,60.0,7.0,0.0
5019,73.0,0.0,15.0,12.0,0.0
5020,67.0,0.0,60.0,7.0,0.0
5021,79.0,3.0,15.0,12.0,0.0
5022,61.0,1.0,60.0,7.0,0.0
5023,52.0,1.0,30.0,13.0,0.0
5024,52.0,5.0,60.0,8.0,0.0
5025,40.0,1.0,30.0,3.0,0.0
5026,52.0,0.0,30.0,3.0,0.0
5027,46.0,1.0,15.0,15.0,0.0
5028,40.0,0.0,30.0,14.0,0.0
5029,46.0,8.0,15.0,15.0,0.0
5030,93.0,0.0,15.0,10.0,0.0
5031,81.0,0.0,15.0,11.0,0.0
5032,46.0,6.0,15.0,15.0,0.0
5033,79.0,7.0,15.0,12.0,0.0
5034,73.0,0.0,15.0,12.0,0.0
5035,46.0,1.0,15.0,15.0,0.0
5036,94.0,0.0,15.0,10.0,0.0
5037,82.0,0.0,15.0,11.0,0.0
5038,73.0,0.0,15.0,12.0,0.0
5039,79.0,1.0,15.0,12.0,0.0
5040,46.0,6.0,15.0,15.0,0.0
5041,46.0,1.0,15.0,15.0,0.0
5042,91.0,0.0,60.0,0.0,0.0
5043,96.0,1.0,15.0,10.0,0.0
5044,82.0,0.0,120.0,1.0,0.0
5045,79.0,1.0,60.0,1.0,0.0
5046,84.0,2.0,15.0,11.0,0.0
5047,67.0,3.0,60.0,2.0,0.0
5048,70.0,0.0,120.0,4.0,0.0
5049,61.0,2.0,120.0,5.0,0.0
5050,79.0,3.0,15.0,12.0,0.0
5051,73.0,0.0,15.0,12.0,0.0
5052,52.0,1.0,60.0,13.0,0.0
5053,52.0,1.0,60.0,3.0,0.0
5054,40.0,0.0,60.0,3.0,0.0
5055,40.0,0.0,60.0,14.0,0.0
5056,46.0,1.0,15.0,15.0,0.0
5057,97.0,1.0,15.0,10.0,0.0
5058,85.0,0.0,15.0,11.0,0.0
5059,46.0,6.0,15.0,15.0,0.0
5060,79.0,0.0,15.0,12.0,0.0
5061,73.0,7.0,15.0,12.0,0.0
5062,46.0,2.0,15.0,15.0,0.0
5063,94.0,1.0,40.0,10.0,0.0
5064,82.0,2.0,40.0,11.0,0.0
5065,79.0,2.0,15.0,12.0,0.0
5066,73.0,0.0,15.0,12.0,0.0
5067,46.0,6.0,15.0,15.0,0.0
5068,46.0,1.0,15.0,15.0,0.0
5069,89.0,1.0,60.0,0.0,0.0
5070,77.0,1.0,60.0,1.0,0.0
5071,73.0,0.0,60.0,6.0,0.0
5072,65.0,1.0,60.0,2.0,0.0
5073,82.0,0.0,60.0,6.0,0.0
5074,77.0,0.0,15.0,12.0,0.0
5075,73.0,4.0,15.0,12.0,0.0
5076,53.0,0.0,60.0,13.0,0.0
5077,53.0,0.0,60.0,3.0,0.0
5078,41.0,1.0,60.0,3.0,0.0
5079,46.0,1.0,15.0,15.0,0.0
5080,41.0,4.0,60.0,14.0,0.0
5081,93.0,1.0,15.0,10.0,0.0
5082,81.0,0.0,15.0,11.0,0.0
5083,46.0,7.0,15.0,15.0,0.0
5084,73.0,6.0,15.0,12.0,0.0
5085,77.0,0.0,15.0,12.0,0.0
5086,46.0,6.0,15.0,15.0,0.0
5087,46.0,7.0,15.0,15.0,0.0
5088,94.0,0.0,15.0,10.0,0.0
5089,82.0,0.0,15.0,11.0,0.0
5090,73.0,0.0,15.0,12.0,0.0
5091,77.0,0.0,15.0,12.0,0.0
5092,46.0,4.0,15.0,15.0,0.0
5093,46.0,1.0,15.0,15.0,0.0
5094,89.0,1.0,60.0,0.0,0.0
5095,94.0,0.0,15.0,0.0,0.0
5096,96.0,0.0,15.0,10.0,0.0
5097,84.0,2.0,15.0,11.0,0.0
5098,82.0,1.0,120.0,1.0,0.0
5099,77.0,1.0,60.0,1.0,0.0
5100,65.0,3.0,60.0,2.0,0.0
5101,73.0,0.0,15.0,2.0,0.0
5102,70.0,1.0,120.0,4.0,0.0
5103,61.0,0.0,120.0,5.0,0.0
5104,77.0,4.0,15.0,12.0,0.0
5105,73.0,0.0,15.0,12.0,0.0
5106,53.0,1.0,60.0,13.0,0.0
5107,53.0,1.0,60.0,3.0,0.0
5108,41.0,0.0,60.0,3.0,0.0
5109,41.0,8.0,60.0,14.0,0.0
5110,46.0,1.0,15.0,15.0,0.0
5111,97.0,1.0,15.0,10.0,0.0
5112,85.0,1.0,15.0,11.0,0.0
5113,46.0,5.0,15.0,15.0,0.0
5114,77.0,7.0,15.0,12.0,0.0
5115,73.0,0.0,15.0,12.0,0.0
5116,46.0,1.0,15.0,15.0,0.0
5117,46.0,13.0,15.0,15.0,0.0
5118,94.0,1.0,40.0,10.0,0.0
5119,82.0,2.0,40.0,11.0,0.0
5120,73.0,0.0,15.0,12.0,0.0
5121,77.0,2.0,15.0,12.0,0.0
5122,46.0,0.0,15.0,15.0,0.0
5123,88.0,0.0,60.0,0.0,0.0
5124,76.0,0.0,60.0,1.0,0.0
5125,73.0,0.0,60.0,6.0,0.0
5126,64.0,0.0,60.0,2.0,0.0
5127,82.0,0.0,60.0,6.0,0.0
5128,76.0,17.0,15.0,12.0,0.0
5129,73.0,0.0,15.0,12.0,0.0
5130,55.0,1.0,60.0,13.0,0.0
5131,43.0,1.0,60.0,3.0,0.0
5132,55.0,0.0,60.0,3.0,0.0
5133,43.0,5.0,60.0,14.0,0.0
5134,46.0,8.0,60.0,15.0,0.0
5135,93.0,1.0,15.0,10.0,0.0
5136,81.0,2.0,15.0,11.0,0.0
5137,76.0,17.0,15.0,12.0,0.0
5138,73.0,0.0,15.0,12.0,0.0
5139,94.0,1.0,15.0,10.0,0.0
5140,82.0,0.0,15.0,11.0,0.0
5141,73.0,2.0,15.0,12.0,0.0
5142,76.0,0.0,15.0,12.0,0.0
5143,91.0,1.0,60.0,0.0,0.0
5144,96.0,1.0,15.0,10.0,0.0
5145,94.0,1.0,120.0,0.0,0.0
5146,82.0,0.0,120.0,1.0,0.0
5147,84.0,2.0,15.0,11.0,0.0
5148,79.0,0.0,60.0,1.0,0.0
5149,70.0,0.0,120.0,4.0,0.0
5150,73.0,0.0,60.0,2.0,0.0
5151,67.0,0.0,60.0,2.0,0.0
5152,61.0,0.0,60.0,5.0,0.0
5153,79.0,17.0,15.0,12.0,0.0
5154,52.0,0.0,60.0,13.0,0.0
5155,40.0,1.0,60.0,3.0,0.0
5156,52.0,0.0,60.0,3.0,0.0
5157,40.0,16.0,60.0,14.0,0.0
5158,97.0,1.0,15.0,10.0,0.0
5159,85.0,2.0,15.0,11.0,0.0
5160,79.0,20.0,15.0,12.0,0.0
5161,94.0,0.0,60.0,10.0,0.0
5162,82.0,1.0,60.0,11.0,0.0
5163,79.0,2.0,15.0,12.0,0.0
5164,89.0,0.0,60.0,0.0,0.0
5165,77.0,0.0,60.0,1.0,0.0
5166,77.0,0.0,60.0,6.0,0.0
5167,72.0,1.0,60.0,2.0,0.0
5168,72.0,20.0,15.0,12.0,0.0
5169,65.0,2.0,120.0,5.0,0.0
5170,53.0,1.0,60.0,13.0,0.0
5171,53.0,1.0,60.0,3.0,0.0
5172,41.0,0.0,60.0,3.0,0.0
5173,41.0,16.0,60.0,14.0,0.0
5174,72.0,17.0,15.0,12.0,0.0
5175,72.0,2.0,15.0,12.0,0.0
5176,89.0,0.0,60.0,0.0,0.0
5177,92.0,1.0,60.0,10.0,0.0
5178,92.0,0.0,60.0,0.0,0.0
5179,77.0,0.0,60.0,1.0,0.0
5180,80.0,2.0,60.0,11.0,0.0
5181,77.0,1.0,120.0,2.0,0.0
5182,72.0,0.0,60.0,2.0,0.0
5183,68.0,1.0,60.0,4.0,0.0
5184,72.0,20.0,15.0,12.0,0.0
5185,65.0,1.0,60.0,13.0,0.0
5186,65.0,0.0,60.0,3.0,0.0
5187,53.0,1.0,60.0,3.0,0.0
5188,53.0,13.0,60.0,14.0,0.0
5189,72.0,19.0,15.0,12.0,0.0
5190,72.0,0.0,15.0,12.0,0.0
5191,96.0,1.0,60.0,0.0,0.0
5192,92.0,0.0,60.0,0.0,0.0
5193,84.0,0.0,60.0,1.0,0.0
5194,80.0,0.0,15.0,1.0,0.0
5195,71.0,0.0,60.0,2.0,0.0
5196,71.0,17.0,15.0,12.0,0.0
5197,63.0,1.0,60.0,13.0,0.0
5198,51.0,0.0,60.0,3.0,0.0
5199,63.0,1.0,60.0,3.0,0.0
5200,51.0,13.0,60.0,14.0,0.0
5201,91.0,1.0,15.0,10.0,0.0
5202,79.0,2.0,15.0,11.0,0.0
5203,71.0,17.0,15.0,12.0,0.0
5204,92.0,0.0,15.0,10.0,0.0
5205,80.0,0.0,15.0,11.0,0.0
5206,71.0,2.0,15.0,12.0,0.0
5207,96.0,0.0,60.0,0.0,0.0
5208,94.0,1.0,15.0,10.0,0.0
5209,92.0,1.0,120.0,0.0,0.0
5210,84.0,1.0,60.0,1.0,0.0
5211,80.0,0.0,120.0,1.0,0.0
5212,82.0,2.0,15.0,11.0,0.0
5213,68.0,0.0,120.0,4.0,0.0
5214,71.0,0.0,60.0,2.0,0.0
5215,77.0,1.0,120.0,2.0,0.0
5216,65.0,2.0,60.0,5.0,0.0
5217,77.0,17.0,15.0,12.0,0.0
5218,62.0,1.0,60.0,13.0,0.0
5219,62.0,0.0,60.0,3.0,0.0
5220,50.0,0.0,60.0,3.0,0.0
5221,50.0,16.0,60.0,14.0,0.0
5222,95.0,1.0,15.0,10.0,0.0
5223,83.0,2.0,15.0,11.0,0.0
5224,77.0,20.0,15.0,12.0,0.0
5225,92.0,0.0,60.0,10.0,0.0
5226,80.0,1.0,60.0,11.0,0.0
5227,77.0,0.0,15.0,12.0,0.0
5228,94.0,0.0,60.0,0.0,0.0
5229,82.0,0.0,60.0,1.0,0.0
5230,70.0,0.0,60.0,2.0,0.0
5231,70.0,20.0,15.0,12.0,0.0
5232,58.0,0.0,120.0,5.0,0.0
5233,63.0,1.0,60.0,13.0,0.0
5234,51.0,0.0,60.0,3.0,0.0
5235,63.0,1.0,60.0,3.0,0.0
5236,51.0,16.0,60.0,14.0,0.0
5237,70.0,17.0,15.0,12.0,0.0
5238,70.0,2.0,15.0,12.0,0.0
5239,90.0,1.0,60.0,10.0,0.0
5240,94.0,0.0,120.0,0.0,0.0
5241,90.0,0.0,120.0,0.0,0.0
5242,82.0,0.0,120.0,1.0,0.0
5243,78.0,2.0,60.0,11.0,0.0
5244,78.0,1.0,120.0,1.0,0.0
5245,66.0,1.0,60.0,4.0,0.0
5246,70.0,0.0,60.0,2.0,0.0
5247,75.0,0.0,120.0,2.0,0.0
5248,70.0,20.0,15.0,12.0,0.0
5249,51.0,1.0,60.0,13.0,0.0
5250,39.0,0.0,60.0,3.0,0.0
5251,51.0,1.0,60.0,3.0,0.0
5252,39.0,13.0,60.0,14.0,0.0
5253,70.0,19.0,15.0,12.0,0.0
5254,70.0,2.0,15.0,12.0,0.0
5255,69.0,1.0,60.0,2.0,0.0
5256,69.0,17.0,15.0,12.0,0.0
5257,61.0,1.0,60.0,13.0,0.0
5258,49.0,0.0,60.0,3.0,0.0
5259,61.0,1.0,60.0,3.0,0.0
5260,49.0,13.0,60.0,14.0,0.0
5261,89.0,1.0,15.0,10.0,0.0
5262,77.0,2.0,15.0,11.0,0.0
5263,69.0,17.0,15.0,12.0,0.0
5264,90.0,1.0,15.0,10.0,0.0
5265,78.0,0.0,15.0,11.0,0.0
5266,69.0,2.0,15.0,12.0,0.0
5267,94.0,0.0,60.0,0.0,0.0
5268,90.0,0.0,120.0,0.0,0.0
5269,92.0,1.0,15.0,10.0,0.0
5270,80.0,2.0,15.0,11.0,0.0
5271,82.0,1.0,60.0,1.0,0.0
5272,78.0,1.0,120.0,1.0,0.0
5273,69.0,0.0,60.0,2.0,0.0
5274,75.0,13.0,60.0,2.0,0.0
5275,66.0,1.0,60.0,4.0,0.0
5276,63.0,2.0,60.0,5.0,0.0
5277,75.0,17.0,15.0,12.0,0.0
5278,60.0,1.0,60.0,13.0,0.0
5279,48.0,0.0,60.0,3.0,0.0
5280,60.0,0.0,60.0,3.0,0.0
5281,48.0,0.0,60.0,14.0,0.0
5282,93.0,1.0,15.0,10.0,0.0
5283,81.0,2.0,15.0,11.0,0.0
5284,75.0,19.0,15.0,12.0,0.0
5285,90.0,1.0,40.0,10.0,0.0
5286,78.0,2.0,40.0,11.0,0.0
5287,75.0,0.0,15.0,12.0,0.0
5288,92.0,0.0,60.0,0.0,0.0
5289,80.0,0.0,60.0,1.0,0.0
5290,68.0,1.0,60.0,2.0,0.0
5291,68.0,17.0,15.0,12.0,0.0
5292,61.0,1.0,60.0,13.0,0.0
5293,61.0,1.0,60.0,3.0,0.0
5294,49.0,0.0,60.0,3.0,0.0
5295,49.0,13.0,60.0,14.0,0.0
5296,87.0,1.0,15.0,10.0,0.0
5297,75.0,2.0,15.0,11.0,0.0
5298,68.0,17.0,15.0,12.0,0.0
5299,88.0,1.0,15.0,10.0,0.0
5300,76.0,0.0,15.0,11.0,0.0
5301,68.0,2.0,15.0,12.0,0.0
5302,88.0,0.0,120.0,0.0,0.0
5303,90.0,1.0,15.0,10.0,0.0
5304,91.0,0.0,60.0,0.0,0.0
5305,76.0,0.0,120.0,1.0,0.0
5306,78.0,2.0,15.0,11.0,0.0
5307,79.0,0.0,60.0,1.0,0.0
5308,67.0,13.0,60.0,2.0,0.0
5309,64.0,1.0,60.0,4.0,0.0
5310,76.0,1.0,120.0,2.0,0.0
5311,73.0,17.0,15.0,12.0,0.0
5312,61.0,0.0,60.0,5.0,0.0
5313,58.0,1.0,60.0,13.0,0.0
5314,46.0,0.0,60.0,3.0,0.0
5315,58.0,1.0,60.0,3.0,0.0
5316,46.0,0.0,60.0,14.0,0.0
5317,91.0,1.0,15.0,10.0,0.0
5318,79.0,2.0,15.0,11.0,0.0
5319,73.0,19.0,15.0,12.0,0.0
5320,88.0,1.0,40.0,10.0,0.0
5321,76.0,2.0,40.0,11.0,0.0
5322,73.0,2.0,15.0,12.0,0.0
5323,90.0,0.0,60.0,0.0,0.0
5324,78.0,1.0,60.0,1.0,0.0
5325,66.0,0.0,60.0,2.0,0.0
5326,66.0,17.0,15.0,12.0,0.0
5327,59.0,1.0,60.0,13.0,0.0
5328,47.0,1.0,60.0,3.0,0.0
5329,59.0,0.0,60.0,3.0,0.0
5330,47.0,13.0,60.0,14.0,0.0
5331,86.0,1.0,15.0,10.0,0.0
5332,74.0,2.0,15.0,11.0,0.0
5333,66.0,17.0,15.0,12.0,0.0
5334,87.0,1.0,15.0,10.0,0.0
5335,75.0,0.0,15.0,11.0,0.0
5336,66.0,2.0,15.0,12.0,0.0
5337,87.0,1.0,120.0,0.0,0.0
5338,90.0,0.0,120.0,0.0,0.0
5339,89.0,1.0,15.0,10.0,0.0
5340,78.0,1.0,120.0,1.0,0.0
5341,75.0,0.0,120.0,1.0,0.0
5342,77.0,2.0,15.0,11.0,0.0
5343,63.0,0.0,60.0,4.0,0.0
5344,66.0,0.0,120.0,2.0,0.0
5345,78.0,0.0,60.0,6.0,0.0
5346,66.0,1.0,60.0,6.0,0.0
5347,75.0,0.0,120.0,2.0,0.0
5348,51.0,2.0,60.0,5.0,0.0
5349,66.0,17.0,15.0,12.0,0.0
5350,58.0,1.0,60.0,13.0,0.0
5351,46.0,0.0,60.0,3.0,0.0
5352,58.0,1.0,60.0,3.0,0.0
5353,46.0,13.0,60.0,14.0,0.0
5354,90.0,1.0,15.0,10.0,0.0
5355,78.0,2.0,15.0,11.0,0.0
5356,66.0,17.0,15.0,12.0,0.0
5357,87.0,1.0,15.0,10.0,0.0
5358,75.0,1.0,15.0,11.0,0.0
5359,66.0,0.0,15.0,12.0,0.0
5360,89.0,1.0,15.0,10.0,0.0
5361,77.0,2.0,15.0,11.0,0.0
5362,66.0,1.0,60.0,6.0,0.0
5363,63.0,0.0,60.0,4.0,0.0
5364,78.0,0.0,60.0,6.0,0.0
5365,72.0,17.0,15.0,12.0,0.0
5366,51.0,2.0,60.0,5.0,0.0
5367,57.0,1.0,60.0,13.0,0.0
5368,57.0,1.0,60.0,3.0,0.0
5369,45.0,0.0,60.0,3.0,0.0
5370,45.0,13.0,60.0,14.0,0.0
5371,90.0,1.0,15.0,10.0,0.0
5372,78.0,2.0,15.0,11.0,0.0
5373,72.0,17.0,15.0,12.0,0.0
5374,87.0,0.0,15.0,10.0,0.0
5375,75.0,0.0,15.0,11.0,0.0
5376,72.0,0.0,15.0,12.0,0.0
5377,87.0,1.0,90.0,0.0,0.0
5378,89.0,1.0,15.0,10.0,0.0
5379,90.0,1.0,60.0,0.0,0.0
5380,78.0,0.0,60.0,1.0,0.0
5381,75.0,1.0,90.0,1.0,0.0
5382,77.0,2.0,15.0,11.0,0.0
5383,75.0,0.0,60.0,6.0,0.0
5384,63.0,1.0,60.0,6.0,0.0
5385,72.0,23.0,60.0,2.0,0.0
5386,75.0,1.0,90.0,2.0,0.0
5387,66.0,0.0,60.0,4.0,0.0
5388,54.0,2.0,60.0,5.0,0.0
5389,72.0,17.0,15.0,12.0,0.0
5390,51.0,0.0,60.0,13.0,0.0
5391,39.0,0.0,60.0,3.0,0.0
5392,51.0,1.0,60.0,3.0,0.0
5393,39.0,0.0,60.0,14.0,0.0
5394,90.0,1.0,15.0,10.0,0.0
5395,78.0,2.0,15.0,11.0,0.0
5396,72.0,19.0,15.0,12.0,0.0
5397,87.0,1.0,40.0,10.0,0.0
5398,75.0,4.0,40.0,11.0,0.0
5399,72.0,0.0,15.0,12.0,0.0
5400,89.0,0.0,30.0,0.0,0.0
5401,77.0,0.0,30.0,1.0,0.0
5402,70.0,0.0,30.0,6.0,0.0
5403,65.0,0.0,30.0,2.0,0.0
5404,58.0,0.0,30.0,6.0,0.0
5405,70.0,0.0,30.0,4.0,0.0
5406,65.0,2.0,30.0,12.0,0.0
5407,77.0,0.0,30.0,12.0,0.0
5408,58.0,0.0,30.0,5.0,0.0
5409,58.0,1.0,30.0,13.0,0.0
5410,46.0,1.0,30.0,3.0,0.0
5411,58.0,0.0,30.0,3.0,0.0
5412,46.0,113.0,30.0,14.0,0.0
5413,86.0,0.0,30.0,10.0,0.0
5414,89.0,0.0,30.0,0.0,0.0
5415,86.0,1.0,30.0,0.0,0.0
5416,74.0,0.0,30.0,11.0,0.0
5417,77.0,1.0,30.0,1.0,0.0
5418,74.0,0.0,30.0,1.0,0.0
5419,58.0,0.0,30.0,6.0,0.0
5420,70.0,0.0,30.0,6.0,0.0
5421,65.0,0.0,30.0,2.0,0.0
5422,74.0,0.0,30.0,2.0,0.0
5423,58.0,1.0,30.0,4.0,0.0
5424,77.0,2.0,30.0,12.0,0.0
5425,65.0,0.0,30.0,12.0,0.0
5426,46.0,0.0,30.0,5.0,0.0
5427,46.0,1.0,30.0,13.0,0.0
5428,46.0,1.0,30.0,3.0,0.0
5429,34.0,97.0,30.0,14.0,0.0
5430,63.0,1.0,180.0,4.0,0.0
5431,51.0,2.0,180.0,5.0,0.0
5432,51.0,2.0,60.0,13.0,0.0
5433,47.0,9.0,180.0,3.0,0.0
5434,47.0,4.0,180.0,14.0,0.0
5435,51.0,7.0,15.0,15.0,0.0
5436,51.0,6.0,15.0,15.0,0.0
5437,51.0,8.0,15.0,15.0,0.0
5438,51.0,7.0,15.0,15.0,0.0
5439,51.0,6.0,15.0,15.0,0.0
5440,51.0,7.0,15.0,15.0,0.0
5441,53.0,2.0,60.0,13.0,0.0
5442,51.0,8.0,15.0,15.0,0.0
5443,51.0,7.0,15.0,15.0,0.0
5444,51.0,7.0,15.0,15.0,0.0
5445,51.0,8.0,15.0,15.0,0.0
5446,51.0,7.0,15.0,15.0,0.0
5447,51.0,6.0,15.0,15.0,0.0
5448,51.0,8.0,15.0,15.0,0.0
5449,54.0,0.0,60.0,13.0,0.0
5450,51.0,6.0,15.0,15.0,0.0
5451,51.0,7.0,15.0,15.0,0.0
5452,51.0,7.0,15.0,15.0,0.0
5453,51.0,5.0,15.0,15.0,0.0
5454,51.0,2.0,15.0,15.0,0.0
5455,75.0,0.0,60.0,10.0,0.0
5456,75.0,2.0,60.0,11.0,0.0
5457,63.0,1.0,180.0,4.0,0.0
5458,51.0,0.0,180.0,5.0,0.0
5459,75.0,2.0,60.0,12.0,0.0
5460,55.0,1.0,60.0,13.0,0.0
5461,46.0,1.0,180.0,3.0,0.0
5462,46.0,4.0,180.0,14.0,0.0
5463,51.0,6.0,15.0,15.0,0.0
5464,51.0,7.0,15.0,15.0,0.0
5465,51.0,7.0,15.0,15.0,0.0
5466,51.0,8.0,15.0,15.0,0.0
5467,51.0,1.0,15.0,15.0,0.0
5468,77.0,1.0,60.0,10.0,0.0
5469,77.0,2.0,60.0,11.0,0.0
5470,74.0,2.0,60.0,12.0,0.0
5471,56.0,1.0,60.0,13.0,0.0
5472,51.0,7.0,15.0,15.0,0.0
5473,51.0,7.0,15.0,15.0,0.0
5474,51.0,8.0,15.0,15.0,0.0
5475,51.0,6.0,15.0,15.0,0.0
5476,51.0,1.0,15.0,15.0,0.0
5477,79.0,1.0,60.0,10.0,0.0
5478,79.0,1.0,60.0,11.0,0.0
5479,73.0,1.0,60.0,12.0,0.0
5480,58.0,2.0,60.0,13.0,0.0
5481,51.0,8.0,15.0,15.0,0.0
5482,51.0,8.0,15.0,15.0,0.0
5483,51.0,6.0,15.0,15.0,0.0
5484,51.0,8.0,15.0,15.0,0.0
5485,51.0,3.0,15.0,15.0,0.0
5486,80.0,1.0,120.0,10.0,0.0
5487,51.0,7.0,15.0,15.0,0.0
5488,80.0,2.0,120.0,11.0,0.0
5489,63.0,1.0,180.0,4.0,0.0
5490,51.0,2.0,180.0,5.0,0.0
5491,72.0,2.0,60.0,12.0,0.0
5492,60.0,2.0,60.0,13.0,0.0
5493,39.0,0.0,180.0,3.0,0.0
5494,51.0,1.0,180.0,3.0,0.0
5495,51.0,8.0,15.0,15.0,0.0
5496,39.0,4.0,180.0,14.0,0.0
5497,51.0,8.0,15.0,15.0,0.0
5498,51.0,6.0,15.0,15.0,0.0
5499,51.0,6.0,15.0,15.0,0.0
5500,51.0,3.0,15.0,15.0,0.0
5501,51.0,8.0,15.0,15.0,0.0
5502,71.0,2.0,60.0,12.0,0.0
5503,62.0,2.0,60.0,13.0,0.0
5504,51.0,7.0,15.0,15.0,0.0
5505,51.0,7.0,15.0,15.0,0.0
5506,51.0,7.0,15.0,15.0,0.0
5507,51.0,8.0,15.0,15.0,0.0
5508,51.0,7.0,15.0,15.0,0.0
5509,51.0,8.0,15.0,15.0,0.0
5510,51.0,1.0,15.0,15.0,0.0
5511,51.0,8.0,15.0,15.0,0.0
5512,79.0,1.0,60.0,10.0,0.0
5513,79.0,1.0,60.0,11.0,0.0
5514,70.0,0.0,60.0,12.0,0.0
5515,63.0,0.0,60.0,13.0,0.0
5516,51.0,6.0,15.0,15.0,0.0
5517,51.0,8.0,15.0,15.0,0.0
5518,51.0,7.0,15.0,15.0,0.0
5519,51.0,3.0,15.0,15.0,0.0
5520,51.0,2.0,15.0,15.0,0.0
5521,51.0,8.0,15.0,15.0,0.0
5522,63.0,1.0,180.0,4.0,0.0
5523,51.0,1.0,180.0,5.0,0.0
5524,51.0,2.0,60.0,13.0,0.0
5525,48.0,0.0,180.0,3.0,0.0
5526,48.0,4.0,180.0,14.0,0.0
5527,51.0,6.0,15.0,15.0,0.0
5528,51.0,6.0,15.0,15.0,0.0
5529,51.0,7.0,15.0,15.0,0.0
5530,51.0,7.0,15.0,15.0,0.0
5531,51.0,6.0,15.0,15.0,0.0
5532,51.0,8.0,15.0,15.0,0.0
5533,53.0,1.0,60.0,13.0,0.0
5534,51.0,7.0,15.0,15.0,0.0
5535,51.0,7.0,15.0,15.0,0.0
5536,51.0,8.0,15.0,15.0,0.0
5537,51.0,7.0,15.0,15.0,0.0
5538,51.0,7.0,15.0,15.0,0.0
5539,51.0,6.0,15.0,15.0,0.0
5540,54.0,2.0,120.0,13.0,0.0
5541,51.0,8.0,15.0,15.0,0.0
5542,51.0,7.0,15.0,15.0,0.0
5543,51.0,7.0,15.0,15.0,0.0
5544,51.0,7.0,15.0,15.0,0.0
5545,51.0,3.0,15.0,15.0,0.0
5546,51.0,8.0,15.0,15.0,0.0
5547,63.0,2.0,60.0,11.0,0.0
5548,63.0,1.0,180.0,4.0,0.0
5549,63.0,2.0,60.0,12.0,0.0
5550,51.0,2.0,180.0,5.0,0.0
5551,47.0,0.0,180.0,3.0,0.0
5552,47.0,4.0,180.0,14.0,0.0
5553,51.0,7.0,15.0,15.0,0.0
5554,51.0,6.0,15.0,15.0,0.0
5555,51.0,8.0,15.0,15.0,0.0
5556,51.0,7.0,15.0,15.0,0.0
5557,51.0,2.0,15.0,15.0,0.0
5558,51.0,7.0,15.0,15.0,0.0
5559,65.0,2.0,60.0,11.0,0.0
5560,65.0,2.0,60.0,12.0,0.0
5561,56.0,2.0,60.0,13.0,0.0
5562,51.0,8.0,15.0,15.0,0.0
5563,51.0,7.0,15.0,15.0,0.0
5564,51.0,8.0,15.0,15.0,0.0
5565,51.0,7.0,15.0,15.0,0.0
5566,51.0,7.0,15.0,15.0,0.0
5567,51.0,2.0,15.0,15.0,0.0
5568,51.0,8.0,15.0,15.0,0.0
5569,66.0,1.0,60.0,11.0,0.0
5570,66.0,0.0,60.0,12.0,0.0
5571,57.0,2.0,60.0,13.0,0.0
5572,51.0,6.0,15.0,15.0,0.0
5573,51.0,7.0,15.0,15.0,0.0
5574,51.0,8.0,15.0,15.0,0.0
5575,51.0,4.0,15.0,15.0,0.0
5576,51.0,0.0,15.0,15.0,0.0
5577,75.0,1.0,60.0,10.0,0.0
5578,67.0,2.0,60.0,11.0,0.0
5579,63.0,1.0,180.0,4.0,0.0
5580,75.0,3.0,60.0,12.0,0.0
5581,51.0,0.0,180.0,5.0,0.0
5582,58.0,2.0,180.0,13.0,0.0
5583,46.0,1.0,180.0,3.0,0.0
5584,46.0,4.0,180.0,14.0,0.0
5585,51.0,6.0,15.0,15.0,0.0
5586,51.0,7.0,15.0,15.0,0.0
5587,51.0,7.0,15.0,15.0,0.0
5588,51.0,8.0,15.0,15.0,0.0
5589,51.0,8.0,15.0,15.0,0.0
5590,51.0,0.0,15.0,15.0,0.0
5591,77.0,1.0,60.0,10.0,0.0
5592,68.0,2.0,60.0,11.0,0.0
5593,74.0,3.0,60.0,12.0,0.0
5594,51.0,7.0,15.0,15.0,0.0
5595,51.0,7.0,15.0,15.0,0.0
5596,51.0,8.0,15.0,15.0,0.0
5597,51.0,6.0,15.0,15.0,0.0
5598,51.0,1.0,15.0,15.0,0.0
5599,79.0,1.0,60.0,10.0,0.0
5600,70.0,1.0,60.0,11.0,0.0
5601,73.0,1.0,60.0,12.0,0.0
5602,51.0,8.0,15.0,15.0,0.0
5603,51.0,8.0,15.0,15.0,0.0
5604,51.0,6.0,15.0,15.0,0.0
5605,51.0,8.0,15.0,15.0,0.0
5606,51.0,3.0,15.0,15.0,0.0
5607,51.0,1.0,15.0,15.0,0.0
5608,80.0,1.0,120.0,10.0,0.0
5609,87.0,1.0,60.0,0.0,0.0
5610,51.0,7.0,15.0,15.0,0.0
5611,72.0,0.0,60.0,11.0,0.0
5612,75.0,1.0,60.0,1.0,0.0
5613,63.0,1.0,180.0,4.0,0.0
5614,75.0,1.0,60.0,2.0,0.0
5615,72.0,4.0,60.0,12.0,0.0
5616,51.0,2.0,180.0,5.0,0.0
5617,51.0,2.0,180.0,13.0,0.0
5618,39.0,0.0,180.0,3.0,0.0
5619,51.0,1.0,180.0,3.0,0.0
5620,39.0,4.0,180.0,14.0,0.0
5621,51.0,8.0,15.0,15.0,0.0
5622,51.0,8.0,15.0,15.0,0.0
5623,51.0,6.0,15.0,15.0,0.0
5624,51.0,6.0,15.0,15.0,0.0
5625,51.0,0.0,15.0,15.0,0.0
5626,89.0,0.0,60.0,0.0,0.0
5627,51.0,8.0,15.0,15.0,0.0
5628,86.0,0.0,60.0,0.0,0.0
5629,74.0,0.0,60.0,11.0,0.0
5630,77.0,0.0,60.0,1.0,0.0
5631,74.0,1.0,60.0,1.0,0.0
5632,74.0,0.0,60.0,2.0,0.0
5633,77.0,1.0,60.0,2.0,0.0
5634,71.0,4.0,60.0,12.0,0.0
5635,51.0,7.0,15.0,15.0,0.0
5636,51.0,7.0,15.0,15.0,0.0
5637,51.0,7.0,15.0,15.0,0.0
5638,51.0,8.0,15.0,15.0,0.0
5639,51.0,1.0,15.0,15.0,0.0
5640,51.0,8.0,15.0,15.0,0.0
5641,85.0,0.0,60.0,0.0,0.0
5642,91.0,1.0,60.0,0.0,0.0
5643,79.0,0.0,120.0,10.0,0.0
5644,75.0,3.0,120.0,11.0,0.0
5645,79.0,0.0,60.0,1.0,0.0
5646,75.0,1.0,60.0,1.0,0.0
5647,79.0,0.0,60.0,2.0,0.0
5648,73.0,0.0,60.0,2.0,0.0
5649,70.0,0.0,60.0,12.0,0.0
5650,51.0,6.0,15.0,15.0,0.0
5651,51.0,8.0,15.0,15.0,0.0
5652,51.0,7.0,15.0,15.0,0.0
5653,51.0,3.0,15.0,15.0,0.0
5654,83.0,0.0,120.0,0.0,0.0
5655,92.0,0.0,120.0,0.0,0.0
5656,51.0,0.0,15.0,15.0,0.0
5657,75.0,1.0,240.0,1.0,0.0
5658,80.0,1.0,120.0,1.0,0.0
5659,63.0,0.0,180.0,4.0,0.0
5660,72.0,0.0,120.0,2.0,0.0
5661,80.0,1.0,120.0,2.0,0.0
5662,71.0,7.0,60.0,12.0,0.0
5663,51.0,1.0,180.0,5.0,0.0
5664,44.0,0.0,120.0,13.0,0.0
5665,44.0,0.0,120.0,3.0,0.0
5666,32.0,0.0,120.0,14.0,0.0
5667,51.0,6.0,15.0,15.0,0.0
5668,51.0,6.0,15.0,15.0,0.0
5669,51.0,7.0,15.0,15.0,0.0
5670,51.0,4.0,15.0,15.0,0.0
5671,51.0,1.0,15.0,15.0,0.0
5672,51.0,8.0,15.0,15.0,0.0
5673,77.0,1.0,60.0,10.0,0.0
5674,75.0,1.0,120.0,11.0,0.0
5675,71.0,3.0,60.0,12.0,0.0
5676,51.0,7.0,15.0,15.0,0.0
5677,51.0,7.0,15.0,15.0,0.0
5678,51.0,7.0,15.0,15.0,0.0
5679,51.0,7.0,15.0,15.0,0.0
5680,51.0,1.0,15.0,15.0,0.0
5681,51.0,8.0,15.0,15.0,0.0
5682,79.0,1.0,60.0,10.0,0.0
5683,87.0,0.0,120.0,0.0,0.0
5684,91.0,1.0,120.0,0.0,0.0
5685,79.0,0.0,120.0,1.0,0.0
5686,79.0,1.0,120.0,2.0,0.0
5687,70.0,1.0,60.0,2.0,0.0
5688,70.0,0.0,60.0,12.0,0.0
5689,51.0,2.0,60.0,13.0,0.0
5690,51.0,49.0,60.0,3.0,0.0
5691,51.0,8.0,15.0,15.0,0.0
5692,39.0,4.0,60.0,14.0,0.0
5693,51.0,7.0,15.0,15.0,0.0
5694,51.0,7.0,15.0,15.0,0.0
5695,51.0,7.0,15.0,15.0,0.0
5696,51.0,3.0,15.0,15.0,0.0
5697,51.0,0.0,15.0,15.0,0.0
5698,80.0,0.0,120.0,10.0,0.0
5699,71.0,0.0,60.0,2.0,0.0
5700,63.0,1.0,120.0,4.0,0.0
5701,63.0,3.0,60.0,12.0,0.0
5702,51.0,2.0,120.0,5.0,0.0
5703,44.0,0.0,120.0,13.0,0.0
5704,44.0,1.0,120.0,3.0,0.0
5705,32.0,0.0,120.0,14.0,0.0
5706,89.0,1.0,60.0,0.0,0.0
5707,87.0,1.0,120.0,0.0,0.0
5708,71.0,56.0,15.0,11.0,0.0
5709,77.0,0.0,60.0,1.0,0.0
5710,75.0,1.0,120.0,1.0,0.0
5711,71.0,0.0,60.0,2.0,0.0
5712,77.0,53.0,60.0,2.0,0.0
5713,63.0,2.0,120.0,12.0,0.0
5714,79.0,1.0,120.0,10.0,0.0
5715,91.0,0.0,120.0,0.0,0.0
5716,70.0,1.0,60.0,11.0,0.0
5717,79.0,1.0,120.0,1.0,0.0
5718,70.0,1.0,60.0,2.0,0.0
5719,79.0,3.0,120.0,2.0,0.0
5720,51.0,1.0,60.0,13.0,0.0
5721,51.0,0.0,60.0,3.0,0.0
5722,39.0,53.0,60.0,14.0,0.0
5723,88.0,1.0,60.0,0.0,0.0
5724,76.0,1.0,60.0,1.0,0.0
5725,73.0,0.0,60.0,11.0,0.0
5726,73.0,1.0,60.0,2.0,0.0
5727,64.0,53.0,60.0,12.0,0.0
5728,44.0,0.0,120.0,13.0,0.0
5729,44.0,1.0,120.0,3.0,0.0
5730,32.0,0.0,120.0,14.0,0.0
5731,77.0,0.0,60.0,10.0,0.0
5732,89.0,1.0,60.0,0.0,0.0
5733,72.0,4.0,60.0,11.0,0.0
5734,77.0,0.0,60.0,1.0,0.0
5735,77.0,0.0,60.0,2.0,0.0
5736,72.0,1.0,60.0,2.0,0.0
5737,65.0,52.0,60.0,12.0,0.0
5738,88.0,1.0,120.0,0.0,0.0
5739,91.0,1.0,60.0,0.0,0.0
5740,79.0,0.0,120.0,10.0,0.0
5741,76.0,1.0,120.0,1.0,0.0
5742,76.0,0.0,120.0,11.0,0.0
5743,79.0,4.0,60.0,1.0,0.0
5744,70.0,0.0,120.0,2.0,0.0
5745,79.0,1.0,120.0,2.0,0.0
5746,70.0,62.0,120.0,12.0,0.0
5747,49.0,1.0,60.0,13.0,0.0
5748,49.0,1.0,60.0,3.0,0.0
5749,37.0,53.0,60.0,14.0,0.0
5750,44.0,0.0,120.0,13.0,0.0
5751,44.0,0.0,120.0,3.0,0.0
5752,32.0,0.0,120.0,14.0,0.0
5753,89.0,0.0,60.0,0.0,0.0
5754,89.0,1.0,60.0,10.0,0.0
5755,72.0,1.0,60.0,11.0,0.0
5756,77.0,0.0,60.0,1.0,0.0
5757,77.0,0.0,60.0,2.0,0.0
5758,68.0,1.0,60.0,2.0,0.0
5759,72.0,52.0,60.0,12.0,0.0
5760,91.0,1.0,120.0,10.0,0.0
5761,88.0,0.0,120.0,0.0,0.0
5762,91.0,1.0,60.0,0.0,0.0
5763,76.0,0.0,120.0,1.0,0.0
5764,79.0,4.0,60.0,1.0,0.0
5765,82.0,1.0,120.0,11.0,0.0
5766,70.0,0.0,120.0,4.0,0.0
5767,70.0,1.0,120.0,2.0,0.0
5768,79.0,0.0,120.0,2.0,0.0
5769,67.0,0.0,120.0,5.0,0.0
5770,76.0,62.0,120.0,12.0,0.0
5771,48.0,1.0,60.0,13.0,0.0
5772,48.0,1.0,60.0,3.0,0.0
5773,36.0,53.0,60.0,14.0,0.0
5774,53.0,1.0,120.0,13.0,0.0
5775,53.0,0.0,120.0,3.0,0.0
5776,41.0,0.0,120.0,14.0,0.0
5777,92.0,0.0,60.0,10.0,0.0
5778,92.0,0.0,60.0,0.0,0.0
5779,77.0,0.0,60.0,1.0,0.0
5780,80.0,0.0,60.0,1.0,0.0
5781,80.0,1.0,60.0,11.0,0.0
5782,80.0,0.0,60.0,2.0,0.0
5783,68.0,1.0,60.0,2.0,0.0
5784,68.0,0.0,120.0,4.0,0.0
5785,65.0,2.0,120.0,5.0,0.0
5786,72.0,52.0,60.0,12.0,0.0
5787,89.0,0.0,15.0,0.0,0.0
5788,84.0,0.0,60.0,0.0,0.0
5789,89.0,1.0,60.0,10.0,0.0
5790,72.0,0.0,60.0,1.0,0.0
5791,77.0,1.0,60.0,1.0,0.0
5792,72.0,0.0,60.0,11.0,0.0
5793,77.0,1.0,60.0,2.0,0.0
5794,72.0,0.0,60.0,2.0,0.0
5795,77.0,0.0,60.0,12.0,0.0
5796,44.0,1.0,60.0,13.0,0.0
5797,44.0,1.0,60.0,3.0,0.0
5798,32.0,56.0,60.0,14.0,0.0
5799,84.0,0.0,120.0,0.0,0.0
5800,72.0,59.0,60.0,11.0,0.0
5801,75.0,1.0,180.0,2.0,0.0
5802,67.0,0.0,180.0,4.0,0.0
5803,72.0,0.0,180.0,2.0,0.0
5804,79.0,3.0,60.0,12.0,0.0
5805,63.0,55.0,180.0,5.0,0.0
5806,48.0,0.0,120.0,13.0,0.0
5807,48.0,0.0,120.0,3.0,0.0
5808,36.0,1.0,120.0,14.0,0.0
5809,87.0,1.0,60.0,10.0,0.0
5810,87.0,0.0,60.0,0.0,0.0
5811,75.0,1.0,60.0,1.0,0.0
5812,67.0,0.0,120.0,11.0,0.0
5813,79.0,52.0,60.0,12.0,0.0
5814,79.0,0.0,60.0,0.0,0.0
5815,84.0,0.0,60.0,0.0,0.0
5816,84.0,1.0,60.0,10.0,0.0
5817,72.0,0.0,60.0,1.0,0.0
5818,72.0,2.0,60.0,12.0,0.0
5819,51.0,1.0,60.0,13.0,0.0
5820,51.0,1.0,60.0,3.0,0.0
5821,39.0,1.0,60.0,14.0,0.0
5822,68.0,59.0,60.0,11.0,0.0
5823,72.0,1.0,180.0,1.0,0.0
5824,68.0,1.0,180.0,4.0,0.0
5825,68.0,0.0,180.0,2.0,0.0
5826,72.0,0.0,180.0,2.0,0.0
5827,65.0,2.0,180.0,5.0,0.0
5828,72.0,3.0,60.0,12.0,0.0
5829,53.0,0.0,120.0,13.0,0.0
5830,53.0,0.0,120.0,3.0,0.0
5831,41.0,1.0,120.0,14.0,0.0
5832,80.0,0.0,60.0,0.0,0.0
5833,80.0,0.0,60.0,10.0,0.0
5834,60.0,0.0,120.0,11.0,0.0
5835,80.0,1.0,60.0,1.0,0.0
5836,72.0,52.0,60.0,12.0,0.0
5837,77.0,0.0,60.0,10.0,0.0
5838,72.0,0.0,60.0,0.0,0.0
5839,77.0,1.0,15.0,0.0,0.0
5840,77.0,0.0,60.0,1.0,0.0
5841,65.0,0.0,60.0,12.0,0.0
5842,56.0,1.0,60.0,13.0,0.0
5843,56.0,1.0,60.0,3.0,0.0
5844,44.0,59.0,60.0,14.0,0.0
5845,75.0,0.0,120.0,10.0,0.0
5846,75.0,1.0,120.0,0.0,0.0
5847,77.0,0.0,180.0,0.0,0.0
5848,65.0,2.0,180.0,11.0,0.0
5849,68.0,1.0,60.0,1.0,0.0
5850,75.0,1.0,120.0,1.0,0.0
5851,68.0,1.0,180.0,4.0,0.0
5852,65.0,0.0,180.0,2.0,0.0
5853,68.0,1.0,60.0,2.0,0.0
5854,68.0,2.0,60.0,12.0,0.0
5855,65.0,117.0,180.0,5.0,0.0
5856,59.0,1.0,60.0,13.0,0.0
5857,59.0,1.0,60.0,3.0,0.0
5858,47.0,53.0,60.0,14.0,0.0
5859,70.0,0.0,60.0,1.0,0.0
5860,70.0,1.0,60.0,2.0,0.0
5861,70.0,2.0,60.0,12.0,0.0
5862,58.0,1.0,60.0,13.0,0.0
5863,58.0,1.0,60.0,3.0,0.0
5864,46.0,49.0,60.0,14.0,0.0
5865,74.0,1.0,60.0,0.0,0.0
5866,74.0,0.0,60.0,10.0,0.0
5867,74.0,0.0,60.0,1.0,0.0
5868,71.0,0.0,60.0,1.0,0.0
5869,71.0,0.0,60.0,2.0,0.0
5870,71.0,2.0,60.0,12.0,0.0
5871,56.0,0.0,60.0,13.0,0.0
5872,56.0,1.0,60.0,3.0,0.0
5873,44.0,0.0,60.0,14.0,0.0
5874,71.0,2.0,180.0,11.0,0.0
5875,62.0,0.0,180.0,11.0,0.0
5876,56.0,0.0,180.0,12.0,0.0
5877,59.0,2.0,180.0,12.0,0.0
5878,41.0,1.0,120.0,13.0,0.0
5879,41.0,49.0,120.0,3.0,0.0
5880,80.0,5.0,60.0,10.0,0.0
5881,77.0,1.0,60.0,10.0,0.0
5882,43.0,1.0,60.0,13.0,0.0
5883,43.0,119.0,60.0,3.0,0.0
5884,71.0,0.0,180.0,11.0,0.0
5885,63.0,2.0,180.0,11.0,0.0
5886,56.0,2.0,180.0,12.0,0.0
5887,59.0,0.0,180.0,12.0,0.0
5888,44.0,1.0,180.0,13.0,0.0
5889,44.0,119.0,180.0,3.0,0.0
5890,75.0,55.0,60.0,10.0,0.0
5891,71.0,1.0,60.0,10.0,0.0
5892,59.0,2.0,180.0,11.0,0.0
5893,62.0,2.0,180.0,12.0,0.0
5894,41.0,1.0,120.0,13.0,0.0
5895,41.0,49.0,120.0,3.0,0.0
5896,68.0,5.0,60.0,10.0,0.0
5897,65.0,1.0,60.0,10.0,0.0
5898,43.0,1.0,60.0,13.0,0.0
5899,43.0,179.0,60.0,3.0,0.0
5900,63.0,120.0,180.0,10.0,0.0
5901,59.0,2.0,300.0,11.0,0.0
5902,53.0,2.0,300.0,12.0,0.0
5903,44.0,1.0,300.0,13.0,0.0
5904,44.0,414.0,300.0,3.0,0.0
5905,62.0,1.0,120.0,10.0,0.0
5906,63.0,5.0,240.0,10.0,0.0
5907,56.0,0.0,360.0,12.0,0.0
5908,53.0,2.0,360.0,12.0,0.0
5909,47.0,33.0,240.0,13.0,0.0
5910,62.0,1.0,120.0,10.0,0.0
5911,94.0,0.0,120.0,0.0,0.0
5912,82.0,2.0,120.0,1.0,0.0
5913,82.0,1.0,240.0,2.0,0.0
5914,70.0,0.0,240.0,2.0,0.0
5915,58.0,40.0,40.0,5.0,0.0
5916,46.0,1.0,120.0,13.0,0.0
5917,58.0,24.0,90.0,3.0,0.0
5918,58.0,18.0,40.0,5.0,0.0
5919,58.0,2.0,150.0,5.0,0.0
5920,60.0,111.0,30.0,3.0,0.0
5921,92.0,1.0,120.0,0.0,0.0
5922,80.0,0.0,120.0,1.0,0.0
5923,62.0,32.0,120.0,3.0,0.0
5924,58.0,5.0,120.0,3.0,0.0
5925,91.0,1.0,90.0,0.0,0.0
5926,79.0,5.0,90.0,1.0,0.0
5927,82.0,1.0,240.0,2.0,0.0
5928,70.0,0.0,240.0,2.0,0.0
5929,58.0,40.0,40.0,5.0,0.0
5930,64.0,24.0,90.0,3.0,0.0
5931,58.0,37.0,240.0,3.0,0.0
5932,58.0,12.0,40.0,5.0,0.0
5933,58.0,3.0,150.0,5.0,0.0
5934,89.0,1.0,30.0,0.0,0.0
5935,77.0,5.0,30.0,1.0,0.0
5936,65.0,109.0,30.0,3.0,0.0
5937,88.0,1.0,120.0,0.0,0.0
5938,76.0,1.0,120.0,1.0,0.0
5939,67.0,0.0,120.0,3.0,0.0
5940,94.0,1.0,120.0,0.0,0.0
5941,82.0,1.0,120.0,1.0,0.0
5942,73.0,4.0,120.0,2.0,0.0
5943,85.0,0.0,120.0,2.0,0.0
5944,58.0,40.0,40.0,5.0,0.0
5945,58.0,0.0,240.0,3.0,0.0
5946,64.0,75.0,120.0,3.0,0.0
5947,58.0,42.0,40.0,5.0,0.0
5948,58.0,2.0,150.0,5.0,0.0
5949,92.0,1.0,120.0,0.0,0.0
5950,80.0,1.0,120.0,1.0,0.0
5951,72.0,4.0,120.0,2.0,0.0
5952,84.0,0.0,120.0,2.0,0.0
5953,65.0,15.0,60.0,3.0,0.0
5954,67.0,15.0,15.0,3.0,0.0
5955,68.0,7.0,15.0,3.0,0.0
5956,70.0,32.0,15.0,3.0,0.0
5957,89.0,1.0,90.0,0.0,0.0
5958,77.0,1.0,90.0,1.0,0.0
5959,80.0,28.0,90.0,2.0,0.0
5960,68.0,4.0,120.0,2.0,0.0
5961,58.0,40.0,40.0,5.0,0.0
5962,58.0,1.0,240.0,3.0,0.0
5963,71.0,112.0,120.0,3.0,0.0
5964,58.0,12.0,40.0,5.0,0.0
5965,58.0,2.0,150.0,5.0,0.0
5966,86.0,1.0,30.0,0.0,0.0
5967,74.0,1.0,30.0,1.0,0.0
5968,77.0,0.0,30.0,2.0,0.0
5969,87.0,1.0,120.0,0.0,0.0
5970,75.0,0.0,120.0,1.0,0.0
5971,79.0,4.0,120.0,2.0,0.0
5972,67.0,0.0,120.0,2.0,0.0
5973,70.0,41.0,120.0,3.0,0.0
5974,82.0,0.0,120.0,10.0,0.0
5975,73.0,2.0,120.0,11.0,0.0
5976,67.0,2.0,120.0,12.0,0.0
5977,52.0,5.0,120.0,13.0,0.0
5978,46.0,43.0,240.0,14.0,0.0
5979,46.0,40.0,15.0,15.0,0.0
5980,46.0,31.0,15.0,15.0,0.0
5981,80.0,2.0,120.0,10.0,0.0
5982,72.0,2.0,120.0,11.0,0.0
5983,68.0,17.0,60.0,12.0,0.0
5984,53.0,15.0,60.0,13.0,0.0
5985,65.0,1.0,60.0,12.0,0.0
5986,55.0,15.0,15.0,13.0,0.0
5987,56.0,8.0,15.0,13.0,0.0
5988,58.0,1.0,15.0,13.0,0.0
5989,77.0,3.0,90.0,10.0,0.0
5990,68.0,2.0,120.0,11.0,0.0
5991,62.0,24.0,90.0,12.0,0.0
5992,59.0,5.0,120.0,13.0,0.0
5993,46.0,43.0,240.0,14.0,0.0
5994,46.0,40.0,15.0,15.0,0.0
5995,46.0,73.0,40.0,15.0,0.0
5996,74.0,1.0,30.0,10.0,0.0
5997,65.0,2.0,30.0,12.0,0.0
5998,78.0,2.0,120.0,10.0,0.0
5999,69.0,2.0,120.0,11.0,0.0
6000,60.0,0.0,120.0,12.0,0.0
6001,51.0,15.0,60.0,13.0,0.0
6002,53.0,15.0,15.0,13.0,0.0
6003,54.0,8.0,15.0,13.0,0.0
6004,56.0,2.0,15.0,13.0,0.0
6005,75.0,3.0,90.0,10.0,0.0
6006,66.0,1.0,120.0,11.0,0.0
6007,60.0,24.0,90.0,12.0,0.0
6008,57.0,5.0,120.0,13.0,0.0
6009,46.0,40.0,40.0,15.0,0.0
6010,46.0,1.0,120.0,14.0,0.0
6011,46.0,3.0,15.0,15.0,0.0
6012,72.0,1.0,30.0,10.0,0.0
6013,63.0,2.0,30.0,12.0,0.0
6014,76.0,1.0,120.0,10.0,0.0
6015,67.0,3.0,120.0,11.0,0.0
6016,58.0,0.0,120.0,12.0,0.0
6017,49.0,7.0,60.0,13.0,0.0
6018,39.0,1.0,120.0,14.0,0.0
6019,51.0,33.0,15.0,15.0,0.0
6020,51.0,15.0,15.0,13.0,0.0
6021,51.0,80.0,40.0,15.0,0.0
6022,52.0,10.0,15.0,13.0,0.0
6023,54.0,2.0,15.0,13.0,0.0
6024,73.0,3.0,90.0,10.0,0.0
6025,64.0,2.0,120.0,11.0,0.0
6026,58.0,25.0,90.0,12.0,0.0
6027,55.0,2.0,120.0,13.0,0.0
6028,39.0,1.0,120.0,14.0,0.0
6029,51.0,3.0,40.0,15.0,0.0
6030,70.0,0.0,30.0,10.0,0.0
6031,61.0,4.0,30.0,12.0,0.0
6032,76.0,0.0,120.0,10.0,0.0
6033,67.0,1.0,120.0,11.0,0.0
6034,58.0,1.0,120.0,12.0,0.0
6035,50.0,7.0,60.0,13.0,0.0
6036,51.0,40.0,15.0,15.0,0.0
6037,39.0,3.0,120.0,14.0,0.0
6038,51.0,8.0,40.0,15.0,0.0
6039,51.0,15.0,15.0,13.0,0.0
6040,51.0,80.0,40.0,15.0,0.0
6041,52.0,10.0,15.0,13.0,0.0
6042,54.0,2.0,15.0,13.0,0.0
6043,73.0,3.0,90.0,10.0,0.0
6044,64.0,2.0,120.0,11.0,0.0
6045,58.0,24.0,90.0,12.0,0.0
6046,55.0,2.0,120.0,13.0,0.0
6047,39.0,3.0,120.0,14.0,0.0
6048,51.0,3.0,40.0,15.0,0.0
6049,51.0,73.0,40.0,15.0,0.0
6050,70.0,1.0,30.0,10.0,0.0
6051,61.0,2.0,30.0,12.0,0.0
6052,74.0,2.0,120.0,10.0,0.0
6053,65.0,1.0,240.0,11.0,0.0
6054,71.0,3.0,120.0,2.0,0.0
6055,56.0,1.0,240.0,12.0,0.0
6056,44.0,7.0,60.0,13.0,0.0
6057,59.0,0.0,240.0,3.0,0.0
6058,39.0,3.0,120.0,14.0,0.0
6059,46.0,15.0,15.0,13.0,0.0
6060,51.0,8.0,15.0,15.0,0.0
6061,47.0,7.0,15.0,13.0,0.0
6062,49.0,2.0,15.0,13.0,0.0
6063,71.0,2.0,240.0,10.0,0.0
6064,68.0,30.0,90.0,2.0,0.0
6065,50.0,1.0,120.0,13.0,0.0
6066,39.0,3.0,120.0,14.0,0.0
6067,51.0,2.0,15.0,15.0,0.0
6068,65.0,2.0,30.0,2.0,0.0
6069,62.0,1.0,240.0,11.0,0.0
6070,68.0,3.0,120.0,2.0,0.0
6071,53.0,2.0,240.0,12.0,0.0
6072,41.0,7.0,60.0,13.0,0.0
6073,56.0,4.0,240.0,3.0,0.0
6074,51.0,8.0,40.0,15.0,0.0
6075,43.0,15.0,15.0,13.0,0.0
6076,51.0,80.0,40.0,15.0,0.0
6077,44.0,7.0,15.0,13.0,0.0
6078,46.0,2.0,15.0,13.0,0.0
6079,70.0,1.0,120.0,10.0,0.0
6080,65.0,28.0,90.0,2.0,0.0
6081,39.0,3.0,15.0,14.0,0.0
6082,47.0,1.0,120.0,13.0,0.0
6083,51.0,2.0,15.0,15.0,0.0
6084,62.0,0.0,30.0,2.0,0.0
6085,62.0,121.0,120.0,2.0,0.0
6086,67.0,1.0,210.0,10.0,0.0
6087,63.0,1.0,210.0,11.0,0.0
6088,63.0,1.0,210.0,2.0,0.0
6089,55.0,2.0,210.0,12.0,0.0
6090,51.0,97.0,120.0,15.0,0.0
6091,46.0,1.0,210.0,13.0,0.0
6092,51.0,1.0,210.0,3.0,0.0
6093,39.0,113.0,210.0,14.0,0.0
6094,67.0,1.0,90.0,10.0,0.0
6095,63.0,1.0,90.0,11.0,0.0
6096,63.0,1.0,90.0,2.0,0.0
6097,51.0,7.0,120.0,15.0,0.0
6098,55.0,2.0,90.0,12.0,0.0
6099,46.0,1.0,90.0,13.0,0.0
6100,51.0,1.0,90.0,3.0,0.0
6101,39.0,16.0,90.0,14.0,0.0
6102,82.0,0.0,360.0,0.0,0.0
6103,67.0,0.0,360.0,10.0,0.0
6104,87.0,1.0,360.0,0.0,0.0
6105,63.0,1.0,360.0,11.0,0.0
6106,79.0,0.0,360.0,1.0,0.0
6107,75.0,0.0,360.0,1.0,0.0
6108,79.0,1.0,360.0,2.0,0.0
6109,67.0,0.0,360.0,6.0,0.0
6110,70.0,0.0,360.0,2.0,0.0
6111,67.0,0.0,360.0,4.0,0.0
6112,70.0,0.0,360.0,6.0,0.0
6113,58.0,0.0,360.0,12.0,0.0
6114,58.0,2.0,360.0,5.0,0.0
6115,51.0,1.0,360.0,13.0,0.0
6116,63.0,1.0,360.0,3.0,0.0
6117,51.0,0.0,360.0,3.0,0.0
6118,39.0,120.0,360.0,14.0,0.0
6119,51.0,4.0,15.0,15.0,0.0
6120,51.0,3.0,15.0,15.0,0.0
6121,51.0,4.0,15.0,15.0,0.0
6122,51.0,5.0,15.0,15.0,0.0
6123,51.0,4.0,15.0,15.0,0.0
6124,51.0,2.0,15.0,15.0,0.0
6125,51.0,5.0,15.0,15.0,0.0
6126,51.0,4.0,15.0,15.0,0.0
6127,51.0,2.0,15.0,15.0,0.0
6128,51.0,5.0,15.0,15.0,0.0
6129,51.0,4.0,15.0,15.0,0.0
6130,51.0,2.0,15.0,15.0,0.0
6131,51.0,4.0,15.0,15.0,0.0
6132,51.0,4.0,15.0,15.0,0.0
6133,51.0,3.0,15.0,15.0,0.0
6134,51.0,5.0,15.0,15.0,0.0
6135,51.0,4.0,15.0,15.0,0.0
6136,51.0,2.0,15.0,15.0,0.0
6137,51.0,4.0,15.0,15.0,0.0
6138,51.0,4.0,15.0,15.0,0.0
6139,51.0,4.0,15.0,15.0,0.0
6140,51.0,4.0,15.0,15.0,0.0
6141,51.0,4.0,15.0,15.0,0.0
6142,51.0,4.0,15.0,15.0,0.0
6143,51.0,2.0,15.0,15.0,0.0
6144,51.0,4.0,15.0,15.0,0.0
6145,51.0,4.0,15.0,15.0,0.0
6146,51.0,3.0,15.0,15.0,0.0
6147,51.0,5.0,15.0,15.0,0.0
6148,51.0,4.0,15.0,15.0,0.0
6149,51.0,3.0,15.0,15.0,0.0
6150,51.0,4.0,15.0,15.0,0.0
6151,51.0,4.0,15.0,15.0,0.0
6152,51.0,3.0,15.0,15.0,0.0
6153,51.0,4.0,15.0,15.0,0.0
6154,51.0,4.0,15.0,15.0,0.0
6155,51.0,2.0,15.0,15.0,0.0
6156,51.0,5.0,15.0,15.0,0.0
6157,51.0,4.0,15.0,15.0,0.0
6158,51.0,3.0,15.0,15.0,0.0
6159,51.0,4.0,15.0,15.0,0.0
6160,51.0,4.0,15.0,15.0,0.0
6161,51.0,4.0,15.0,15.0,0.0
6162,51.0,3.0,15.0,15.0,0.0
6163,51.0,4.0,15.0,15.0,0.0
6164,51.0,3.0,15.0,15.0,0.0
6165,51.0,4.0,15.0,15.0,0.0
6166,51.0,4.0,15.0,15.0,0.0
6167,51.0,3.0,15.0,15.0,0.0
6168,51.0,4.0,15.0,15.0,0.0
6169,51.0,4.0,15.0,15.0,0.0
6170,51.0,3.0,15.0,15.0,0.0
6171,51.0,3.0,15.0,15.0,0.0
6172,51.0,5.0,15.0,15.0,0.0
6173,51.0,4.0,15.0,15.0,0.0
6174,51.0,3.0,15.0,15.0,0.0
6175,51.0,4.0,15.0,15.0,0.0
6176,51.0,3.0,15.0,15.0,0.0
6177,51.0,4.0,15.0,15.0,0.0
6178,51.0,4.0,15.0,15.0,0.0
6179,51.0,3.0,15.0,15.0,0.0
6180,51.0,4.0,15.0,15.0,0.0
6181,51.0,4.0,15.0,15.0,0.0
6182,51.0,2.0,15.0,15.0,0.0
6183,51.0,3.0,15.0,15.0,0.0
6184,51.0,1.0,15.0,15.0,0.0
6185,51.0,3.0,15.0,15.0,0.0
6186,51.0,0.0,15.0,15.0,0.0
6187,51.0,1.0,15.0,15.0,0.0
6188,51.0,0.0,15.0,15.0,0.0
6189,51.0,1.0,15.0,15.0,0.0
6190,51.0,1.0,15.0,15.0,0.0
6191,51.0,0.0,15.0,15.0,0.0
6192,51.0,0.0,15.0,15.0,0.0
6193,51.0,1.0,15.0,15.0,0.0
6194,51.0,1.0,15.0,15.0,0.0
6195,51.0,1.0,15.0,15.0,0.0
6196,51.0,0.0,15.0,15.0,0.0
6197,51.0,1.0,15.0,15.0,0.0
6198,51.0,1.0,15.0,15.0,0.0
6199,51.0,2.0,15.0,15.0,0.0
6200,51.0,12.0,15.0,15.0,0.0
