,note,step,duration,channel,velocity
0,74.0,0.0,240.0,1.0,0.0
1,43.0,480.0,240.0,5.0,0.0
2,67.0,0.0,480.0,2.0,0.0
3,79.0,0.0,480.0,1.0,0.0
4,59.0,0.0,480.0,4.0,0.0
5,78.0,0.0,240.0,1.0,0.0
6,59.0,0.0,240.0,4.0,0.0
7,76.0,0.0,240.0,1.0,0.0
8,55.0,240.0,15.0,5.0,0.0
9,79.0,0.0,240.0,2.0,0.0
10,67.0,480.0,240.0,2.0,0.0
11,55.0,0.0,15.0,5.0,0.0
12,59.0,0.0,480.0,4.0,0.0
13,74.0,0.0,480.0,1.0,0.0
14,43.0,0.0,240.0,5.0,0.0
15,72.0,120.0,120.0,1.0,0.0
16,79.0,0.0,15.0,2.0,0.0
17,67.0,120.0,15.0,2.0,0.0
18,71.0,0.0,120.0,1.0,0.0
19,59.0,0.0,480.0,4.0,0.0
20,69.0,240.0,240.0,1.0,0.0
21,67.0,0.0,240.0,1.0,0.0
22,79.0,0.0,15.0,2.0,0.0
23,71.0,480.0,240.0,1.0,0.0
24,55.0,240.0,15.0,5.0,0.0
25,59.0,0.0,240.0,4.0,0.0
26,59.0,120.0,480.0,4.0,0.0
27,55.0,0.0,480.0,5.0,0.0
28,79.0,0.0,15.0,2.0,0.0
29,67.0,0.0,480.0,2.0,0.0
30,74.0,0.0,480.0,1.0,0.0
31,76.0,120.0,120.0,1.0,0.0
32,35.0,0.0,240.0,5.0,0.0
33,79.0,480.0,240.0,2.0,0.0
34,78.0,0.0,120.0,1.0,0.0
35,79.0,0.0,480.0,1.0,0.0
36,67.0,0.0,15.0,2.0,0.0
37,47.0,0.0,480.0,5.0,0.0
38,78.0,240.0,240.0,1.0,0.0
39,67.0,480.0,240.0,2.0,0.0
40,76.0,0.0,240.0,1.0,0.0
41,59.0,0.0,15.0,4.0,0.0
42,55.0,0.0,15.0,4.0,0.0
43,79.0,0.0,240.0,2.0,0.0
44,59.0,0.0,15.0,4.0,0.0
45,47.0,0.0,15.0,5.0,0.0
46,55.0,0.0,480.0,4.0,0.0
47,74.0,0.0,480.0,1.0,0.0
48,79.0,0.0,480.0,2.0,0.0
49,67.0,0.0,15.0,2.0,0.0
50,38.0,0.0,240.0,5.0,0.0
51,72.0,0.0,240.0,1.0,0.0
52,71.0,0.0,120.0,1.0,0.0
53,74.0,240.0,240.0,1.0,0.0
54,79.0,0.0,15.0,2.0,0.0
55,59.0,20.0,480.0,4.0,0.0
56,67.0,0.0,240.0,1.0,0.0
57,71.0,220.0,60.0,1.0,0.0
58,78.0,0.0,240.0,2.0,0.0
59,60.0,0.0,240.0,4.0,0.0
60,69.0,0.0,240.0,1.0,0.0
61,50.0,0.0,15.0,5.0,0.0
62,59.0,120.0,480.0,4.0,0.0
63,67.0,120.0,360.0,1.0,0.0
64,79.0,0.0,480.0,2.0,0.0
65,55.0,0.0,480.0,5.0,0.0
66,71.0,0.0,120.0,1.0,0.0
67,43.0,240.0,240.0,5.0,0.0
68,74.0,120.0,120.0,1.0,0.0
69,83.0,0.0,120.0,1.0,0.0
70,64.0,0.0,480.0,4.0,0.0
71,81.0,240.0,240.0,1.0,0.0
72,72.0,0.0,480.0,2.0,0.0
73,55.0,240.0,480.0,5.0,0.0
74,84.0,0.0,480.0,2.0,0.0
75,76.0,0.0,240.0,1.0,0.0
76,78.0,0.0,240.0,1.0,0.0
77,81.0,0.0,240.0,2.0,0.0
78,60.0,0.0,240.0,4.0,0.0
79,69.0,0.0,240.0,2.0,0.0
80,83.0,0.0,480.0,2.0,0.0
81,71.0,0.0,480.0,2.0,0.0
82,62.0,120.0,480.0,4.0,0.0
83,74.0,120.0,360.0,1.0,0.0
84,55.0,360.0,15.0,5.0,0.0
85,79.0,0.0,120.0,1.0,0.0
86,43.0,240.0,240.0,5.0,0.0
87,74.0,0.0,240.0,2.0,0.0
88,83.0,120.0,120.0,1.0,0.0
89,86.0,0.0,240.0,2.0,0.0
90,79.0,0.0,120.0,1.0,0.0
91,64.0,0.0,480.0,4.0,0.0
92,84.0,0.0,480.0,2.0,0.0
93,72.0,0.0,480.0,2.0,0.0
94,81.0,240.0,240.0,1.0,0.0
95,76.0,240.0,240.0,1.0,0.0
96,81.0,0.0,240.0,2.0,0.0
97,60.0,0.0,240.0,4.0,0.0
98,55.0,0.0,15.0,5.0,0.0
99,69.0,0.0,240.0,2.0,0.0
100,78.0,0.0,240.0,1.0,0.0
101,83.0,0.0,480.0,2.0,0.0
102,79.0,240.0,240.0,1.0,0.0
103,62.0,240.0,480.0,4.0,0.0
104,74.0,0.0,240.0,1.0,0.0
105,79.0,0.0,240.0,1.0,0.0
106,55.0,0.0,15.0,5.0,0.0
107,43.0,0.0,240.0,5.0,0.0
108,76.0,0.0,240.0,2.0,0.0
109,71.0,0.0,15.0,2.0,0.0
110,81.0,0.0,480.0,1.0,0.0
111,69.0,0.0,480.0,1.0,0.0
112,50.0,240.0,240.0,5.0,0.0
113,62.0,0.0,240.0,5.0,0.0
114,49.0,0.0,240.0,5.0,0.0
115,61.0,0.0,240.0,5.0,0.0
116,74.0,0.0,480.0,1.0,0.0
117,86.0,240.0,480.0,1.0,0.0
118,47.0,240.0,240.0,5.0,0.0
119,59.0,0.0,240.0,5.0,0.0
120,78.0,240.0,15.0,2.0,0.0
121,57.0,120.0,480.0,5.0,0.0
122,45.0,0.0,480.0,5.0,0.0
123,78.0,0.0,240.0,2.0,0.0
124,74.0,0.0,15.0,2.0,0.0
125,81.0,240.0,240.0,2.0,0.0
126,43.0,0.0,120.0,5.0,0.0
127,85.0,0.0,240.0,1.0,0.0
128,55.0,120.0,120.0,5.0,0.0
129,42.0,0.0,120.0,5.0,0.0
130,54.0,0.0,120.0,5.0,0.0
131,83.0,0.0,240.0,1.0,0.0
132,57.0,0.0,450.0,5.0,0.0
133,74.0,0.0,240.0,2.0,0.0
134,79.0,195.0,240.0,2.0,0.0
135,45.0,3.0,420.0,5.0,0.0
136,73.0,154.0,210.0,2.0,0.0
137,81.0,4.0,210.0,1.0,0.0
138,78.0,4.0,210.0,2.0,0.0
139,76.0,116.0,120.0,2.0,0.0
140,50.0,4.0,240.0,5.0,0.0
141,79.0,0.0,120.0,1.0,0.0
142,71.0,0.0,120.0,2.0,0.0
143,38.0,0.0,240.0,5.0,0.0
144,69.0,0.0,120.0,2.0,0.0
145,74.0,0.0,120.0,2.0,0.0
146,78.0,1.0,120.0,1.0,0.0
147,67.0,5.0,270.0,2.0,0.0
148,76.0,236.0,240.0,2.0,0.0
149,38.0,234.0,15.0,5.0,0.0
150,50.0,4.0,480.0,5.0,0.0
151,81.0,0.0,240.0,1.0,0.0
152,72.0,0.0,480.0,2.0,0.0
153,74.0,120.0,240.0,1.0,0.0
154,66.0,0.0,240.0,2.0,0.0
155,67.0,0.0,120.0,2.0,0.0
156,60.0,0.0,240.0,4.0,0.0
157,76.0,0.0,120.0,1.0,0.0
158,50.0,440.0,240.0,5.0,0.0
159,64.0,120.0,120.0,2.0,0.0
160,74.0,0.0,120.0,1.0,0.0
161,66.0,0.0,120.0,2.0,0.0
162,69.0,0.0,120.0,2.0,0.0
163,43.0,40.0,480.0,5.0,0.0
164,79.0,240.0,480.0,1.0,0.0
165,59.0,0.0,480.0,4.0,0.0
166,67.0,0.0,480.0,2.0,0.0
167,78.0,0.0,240.0,1.0,0.0
168,79.0,480.0,240.0,2.0,0.0
169,76.0,0.0,240.0,1.0,0.0
170,55.0,0.0,240.0,5.0,0.0
171,55.0,0.0,480.0,5.0,0.0
172,67.0,0.0,15.0,2.0,0.0
173,59.0,0.0,15.0,4.0,0.0
174,74.0,0.0,480.0,1.0,0.0
175,79.0,0.0,480.0,2.0,0.0
176,72.0,120.0,120.0,1.0,0.0
177,67.0,120.0,15.0,2.0,0.0
178,43.0,0.0,240.0,5.0,0.0
179,71.0,0.0,120.0,1.0,0.0
180,55.0,0.0,480.0,5.0,0.0
181,69.0,240.0,240.0,1.0,0.0
182,79.0,240.0,15.0,2.0,0.0
183,67.0,0.0,240.0,1.0,0.0
184,59.0,0.0,15.0,4.0,0.0
185,79.0,240.0,15.0,2.0,0.0
186,71.0,0.0,240.0,1.0,0.0
187,55.0,0.0,15.0,5.0,0.0
188,74.0,0.0,480.0,1.0,0.0
189,79.0,480.0,15.0,2.0,0.0
190,59.0,120.0,480.0,4.0,0.0
191,79.0,0.0,15.0,2.0,0.0
192,76.0,120.0,120.0,1.0,0.0
193,67.0,0.0,15.0,2.0,0.0
194,40.0,0.0,240.0,5.0,0.0
195,78.0,0.0,120.0,1.0,0.0
196,67.0,480.0,15.0,2.0,0.0
197,79.0,0.0,480.0,1.0,0.0
198,59.0,0.0,480.0,4.0,0.0
199,78.0,240.0,240.0,1.0,0.0
200,79.0,0.0,240.0,2.0,0.0
201,52.0,0.0,15.0,5.0,0.0
202,76.0,0.0,240.0,1.0,0.0
203,67.0,0.0,15.0,2.0,0.0
204,74.0,240.0,480.0,1.0,0.0
205,59.0,480.0,15.0,4.0,0.0
206,52.0,0.0,480.0,5.0,0.0
207,79.0,0.0,15.0,2.0,0.0
208,67.0,0.0,240.0,2.0,0.0
209,73.0,0.0,240.0,1.0,0.0
210,45.0,240.0,240.0,5.0,0.0
211,71.0,0.0,120.0,1.0,0.0
212,64.0,0.0,480.0,4.0,0.0
213,79.0,0.0,15.0,2.0,0.0
214,69.0,0.0,480.0,2.0,0.0
215,73.0,240.0,240.0,1.0,0.0
216,74.0,0.0,240.0,1.0,0.0
217,61.0,0.0,240.0,4.0,0.0
218,69.0,0.0,240.0,2.0,0.0
219,79.0,0.0,240.0,2.0,0.0
220,76.0,0.0,240.0,1.0,0.0
221,57.0,240.0,15.0,5.0,0.0
222,81.0,0.0,480.0,2.0,0.0
223,69.0,120.0,360.0,2.0,0.0
224,74.0,0.0,360.0,2.0,0.0
225,50.0,0.0,480.0,5.0,0.0
226,79.0,0.0,360.0,1.0,0.0
227,62.0,120.0,480.0,4.0,0.0
228,78.0,0.0,120.0,1.0,0.0
229,86.0,0.0,240.0,2.0,0.0
230,66.0,440.0,240.0,4.0,0.0
231,62.0,12.0,240.0,5.0,0.0
232,76.0,108.0,120.0,1.0,0.0
233,72.0,0.0,240.0,4.0,0.0
234,74.0,0.0,120.0,1.0,0.0
235,55.0,10.0,480.0,5.0,0.0
236,79.0,0.0,480.0,2.0,0.0
237,91.0,0.0,480.0,1.0,0.0
238,62.0,30.0,420.0,4.0,0.0
239,90.0,240.0,240.0,1.0,0.0
240,55.0,4.0,510.0,5.0,0.0
241,62.0,16.0,480.0,4.0,0.0
242,71.0,0.0,15.0,4.0,0.0
243,79.0,0.0,480.0,2.0,0.0
244,91.0,0.0,480.0,2.0,0.0
245,88.0,220.0,240.0,1.0,0.0
246,78.0,0.0,240.0,2.0,0.0
247,86.0,240.0,240.0,1.0,0.0
248,62.0,0.0,480.0,4.0,0.0
249,55.0,0.0,480.0,5.0,0.0
250,76.0,240.0,240.0,2.0,0.0
251,84.0,0.0,240.0,1.0,0.0
252,83.0,0.0,240.0,1.0,0.0
253,74.0,0.0,240.0,2.0,0.0
254,62.0,0.0,480.0,4.0,0.0
255,72.0,120.0,240.0,2.0,0.0
256,81.0,0.0,240.0,1.0,0.0
257,55.0,120.0,480.0,5.0,0.0
258,79.0,240.0,15.0,2.0,0.0
259,79.0,0.0,240.0,1.0,0.0
260,71.0,120.0,120.0,2.0,0.0
261,69.0,0.0,120.0,2.0,0.0
262,76.0,0.0,240.0,1.0,0.0
263,55.0,240.0,480.0,5.0,0.0
264,67.0,120.0,120.0,2.0,0.0
265,71.0,240.0,120.0,2.0,0.0
266,74.0,120.0,480.0,1.0,0.0
267,59.0,0.0,15.0,4.0,0.0
268,47.0,480.0,480.0,5.0,0.0
269,76.0,120.0,120.0,1.0,0.0
270,78.0,0.0,120.0,1.0,0.0
271,59.0,0.0,15.0,4.0,0.0
272,55.0,0.0,15.0,4.0,0.0
273,67.0,0.0,15.0,2.0,0.0
274,79.0,0.0,480.0,1.0,0.0
275,49.0,0.0,480.0,5.0,0.0
276,78.0,0.0,240.0,1.0,0.0
277,59.0,0.0,15.0,4.0,0.0
278,76.0,240.0,240.0,1.0,0.0
279,55.0,240.0,15.0,4.0,0.0
280,50.0,0.0,480.0,5.0,0.0
281,74.0,120.0,480.0,1.0,0.0
282,52.0,0.0,480.0,5.0,0.0
283,67.0,240.0,15.0,2.0,0.0
284,79.0,0.0,15.0,2.0,0.0
285,55.0,240.0,480.0,4.0,0.0
286,59.0,0.0,15.0,4.0,0.0
287,72.0,120.0,120.0,1.0,0.0
288,71.0,0.0,120.0,1.0,0.0
289,74.0,240.0,240.0,1.0,0.0
290,50.0,0.0,480.0,5.0,0.0
291,79.0,0.0,15.0,2.0,0.0
292,59.0,0.0,15.0,4.0,0.0
293,67.0,0.0,240.0,1.0,0.0
294,71.0,220.0,60.0,1.0,0.0
295,78.0,480.0,240.0,2.0,0.0
296,50.0,0.0,240.0,5.0,0.0
297,69.0,0.0,240.0,1.0,0.0
298,60.0,0.0,240.0,4.0,0.0
299,79.0,120.0,480.0,2.0,0.0
300,59.0,0.0,480.0,4.0,0.0
301,67.0,0.0,480.0,1.0,0.0
302,55.0,0.0,480.0,5.0,0.0
303,68.0,0.0,120.0,1.0,0.0
304,80.0,120.0,120.0,1.0,0.0
305,44.0,0.0,120.0,5.0,0.0
306,56.0,0.0,120.0,5.0,0.0
307,82.0,0.0,120.0,1.0,0.0
308,46.0,240.0,120.0,5.0,0.0
309,58.0,0.0,120.0,5.0,0.0
310,70.0,0.0,120.0,1.0,0.0
311,84.0,0.0,240.0,1.0,0.0
312,72.0,240.0,240.0,1.0,0.0
313,60.0,0.0,240.0,5.0,0.0
314,48.0,0.0,240.0,5.0,0.0
315,70.0,0.0,240.0,1.0,0.0
316,58.0,0.0,240.0,5.0,0.0
317,46.0,240.0,240.0,5.0,0.0
318,82.0,0.0,240.0,1.0,0.0
319,44.0,0.0,240.0,5.0,0.0
320,68.0,0.0,240.0,1.0,0.0
321,80.0,0.0,240.0,1.0,0.0
322,56.0,480.0,240.0,5.0,0.0
323,55.0,0.0,480.0,5.0,0.0
324,43.0,120.0,480.0,5.0,0.0
325,79.0,0.0,480.0,1.0,0.0
326,67.0,0.0,480.0,1.0,0.0
327,55.0,0.0,240.0,1.0,0.0
328,67.0,0.0,240.0,1.0,0.0
329,65.0,0.0,240.0,2.0,0.0
330,53.0,0.0,120.0,5.0,0.0
331,41.0,120.0,120.0,5.0,0.0
332,51.0,240.0,120.0,5.0,0.0
333,39.0,0.0,120.0,5.0,0.0
334,63.0,240.0,480.0,2.0,0.0
335,67.0,0.0,480.0,1.0,0.0
336,38.0,240.0,240.0,5.0,0.0
337,50.0,0.0,240.0,5.0,0.0
338,36.0,0.0,240.0,5.0,0.0
339,48.0,0.0,240.0,5.0,0.0
340,55.0,0.0,15.0,1.0,0.0
341,51.0,0.0,240.0,5.0,0.0
342,60.0,0.0,240.0,2.0,0.0
343,39.0,0.0,240.0,5.0,0.0
344,55.0,0.0,480.0,1.0,0.0
345,43.0,120.0,480.0,5.0,0.0
346,67.0,480.0,15.0,1.0,0.0
347,65.0,0.0,240.0,4.0,0.0
348,80.0,0.0,120.0,1.0,0.0
349,68.0,120.0,120.0,1.0,0.0
350,70.0,240.0,120.0,1.0,0.0
351,82.0,0.0,120.0,1.0,0.0
352,55.0,0.0,15.0,5.0,0.0
353,63.0,0.0,480.0,4.0,0.0
354,72.0,0.0,240.0,1.0,0.0
355,84.0,240.0,240.0,1.0,0.0
356,70.0,0.0,240.0,1.0,0.0
357,82.0,240.0,240.0,1.0,0.0
358,80.0,0.0,240.0,1.0,0.0
359,55.0,0.0,15.0,5.0,0.0
360,68.0,0.0,240.0,1.0,0.0
361,60.0,480.0,240.0,4.0,0.0
362,55.0,0.0,15.0,5.0,0.0
363,67.0,0.0,480.0,1.0,0.0
364,79.0,120.0,480.0,1.0,0.0
365,53.0,0.0,240.0,5.0,0.0
366,41.0,0.0,240.0,5.0,0.0
367,68.0,120.0,120.0,1.0,0.0
368,80.0,0.0,120.0,1.0,0.0
369,70.0,0.0,120.0,1.0,0.0
370,82.0,0.0,120.0,1.0,0.0
371,79.0,240.0,120.0,2.0,0.0
372,72.0,0.0,240.0,1.0,0.0
373,38.0,0.0,480.0,5.0,0.0
374,50.0,240.0,480.0,5.0,0.0
375,80.0,240.0,240.0,2.0,0.0
376,84.0,0.0,240.0,1.0,0.0
377,70.0,0.0,240.0,1.0,0.0
378,82.0,0.0,240.0,1.0,0.0
379,79.0,0.0,240.0,2.0,0.0
380,80.0,240.0,240.0,1.0,0.0
381,68.0,0.0,240.0,1.0,0.0
382,35.0,0.0,480.0,5.0,0.0
383,47.0,0.0,480.0,5.0,0.0
384,77.0,0.0,240.0,2.0,0.0
385,79.0,0.0,240.0,1.0,0.0
386,67.0,240.0,240.0,1.0,0.0
387,75.0,0.0,240.0,2.0,0.0
388,77.0,0.0,240.0,1.0,0.0
389,74.0,0.0,240.0,2.0,0.0
390,65.0,240.0,240.0,1.0,0.0
391,36.0,1560.0,480.0,5.0,0.0
392,48.0,0.0,480.0,5.0,0.0
393,72.0,0.0,240.0,2.0,0.0
394,75.0,0.0,240.0,1.0,0.0
395,63.0,0.0,240.0,1.0,0.0
396,38.0,120.0,120.0,5.0,0.0
397,50.0,120.0,120.0,4.0,0.0
398,70.0,240.0,240.0,2.0,0.0
399,55.0,120.0,120.0,4.0,0.0
400,74.0,0.0,240.0,1.0,0.0
401,58.0,0.0,120.0,4.0,0.0
402,62.0,120.0,240.0,4.0,0.0
403,72.0,0.0,240.0,2.0,0.0
404,38.0,120.0,120.0,5.0,0.0
405,75.0,120.0,240.0,1.0,0.0
406,50.0,0.0,120.0,4.0,0.0
407,57.0,120.0,120.0,4.0,0.0
408,63.0,240.0,240.0,4.0,0.0
409,60.0,0.0,120.0,4.0,0.0
410,69.0,0.0,240.0,4.0,0.0
411,72.0,120.0,240.0,1.0,0.0
412,60.0,0.0,240.0,4.0,0.0
413,38.0,120.0,120.0,5.0,0.0
414,50.0,120.0,120.0,4.0,0.0
415,54.0,120.0,120.0,4.0,0.0
416,84.0,0.0,240.0,1.0,0.0
417,81.0,240.0,240.0,2.0,0.0
418,57.0,0.0,120.0,4.0,0.0
419,72.0,120.0,240.0,4.0,0.0
420,38.0,120.0,120.0,5.0,0.0
421,86.0,120.0,240.0,1.0,0.0
422,82.0,0.0,240.0,2.0,0.0
423,50.0,0.0,120.0,4.0,0.0
424,55.0,120.0,120.0,4.0,0.0
425,74.0,0.0,240.0,4.0,0.0
426,58.0,240.0,120.0,4.0,0.0
427,79.0,120.0,240.0,4.0,0.0
428,82.0,0.0,240.0,1.0,0.0
429,38.0,120.0,120.0,5.0,0.0
430,70.0,120.0,240.0,4.0,0.0
431,50.0,0.0,120.0,4.0,0.0
432,70.0,0.0,240.0,1.0,0.0
433,67.0,240.0,240.0,2.0,0.0
434,51.0,120.0,120.0,4.0,0.0
435,55.0,0.0,120.0,4.0,0.0
436,58.0,120.0,240.0,4.0,0.0
437,69.0,0.0,240.0,1.0,0.0
438,36.0,120.0,120.0,5.0,0.0
439,63.0,0.0,240.0,2.0,0.0
440,67.0,0.0,240.0,2.0,0.0
441,48.0,120.0,120.0,4.0,0.0
442,57.0,0.0,240.0,4.0,0.0
443,51.0,120.0,120.0,4.0,0.0
444,55.0,240.0,120.0,4.0,0.0
445,63.0,0.0,240.0,4.0,0.0
446,67.0,120.0,240.0,2.0,0.0
447,69.0,0.0,240.0,1.0,0.0
448,36.0,120.0,120.0,5.0,0.0
449,48.0,120.0,120.0,4.0,0.0
450,81.0,0.0,240.0,1.0,0.0
451,74.0,0.0,240.0,2.0,0.0
452,77.0,0.0,240.0,2.0,0.0
453,50.0,120.0,120.0,4.0,0.0
454,53.0,240.0,120.0,4.0,0.0
455,69.0,120.0,240.0,4.0,0.0
456,34.0,120.0,120.0,5.0,0.0
457,74.0,120.0,240.0,2.0,0.0
458,77.0,0.0,240.0,2.0,0.0
459,79.0,0.0,240.0,1.0,0.0
460,46.0,0.0,120.0,4.0,0.0
461,50.0,120.0,120.0,4.0,0.0
462,67.0,240.0,240.0,4.0,0.0
463,53.0,0.0,120.0,4.0,0.0
464,79.0,120.0,240.0,1.0,0.0
465,77.0,0.0,240.0,2.0,0.0
466,74.0,0.0,240.0,4.0,0.0
467,34.0,120.0,120.0,5.0,0.0
468,46.0,120.0,120.0,4.0,0.0
469,62.0,0.0,240.0,2.0,0.0
470,64.0,0.0,240.0,2.0,0.0
471,68.0,240.0,240.0,1.0,0.0
472,50.0,120.0,120.0,4.0,0.0
473,52.0,0.0,120.0,4.0,0.0
474,56.0,120.0,240.0,4.0,0.0
475,33.0,120.0,120.0,5.0,0.0
476,64.0,120.0,240.0,2.0,0.0
477,62.0,0.0,240.0,2.0,0.0
478,69.0,0.0,240.0,1.0,0.0
479,45.0,0.0,120.0,4.0,0.0
480,50.0,120.0,120.0,4.0,0.0
481,57.0,240.0,240.0,4.0,0.0
482,52.0,0.0,120.0,4.0,0.0
483,62.0,0.0,240.0,4.0,0.0
484,64.0,480.0,240.0,1.0,0.0
485,49.0,0.0,720.0,4.0,0.0
486,73.0,0.0,720.0,2.0,0.0
487,69.0,0.0,720.0,1.0,0.0
488,81.0,0.0,720.0,1.0,0.0
489,77.0,0.0,240.0,2.0,0.0
490,53.0,240.0,240.0,4.0,0.0
491,76.0,0.0,240.0,2.0,0.0
492,52.0,480.0,240.0,4.0,0.0
493,50.0,0.0,720.0,4.0,0.0
494,57.0,0.0,15.0,5.0,0.0
495,45.0,0.0,15.0,5.0,0.0
496,79.0,0.0,15.0,2.0,0.0
497,81.0,0.0,720.0,1.0,0.0
498,69.0,0.0,720.0,1.0,0.0
499,74.0,0.0,720.0,2.0,0.0
500,55.0,0.0,15.0,4.0,0.0
501,53.0,120.0,240.0,4.0,0.0
502,77.0,0.0,240.0,2.0,0.0
503,34.0,120.0,120.0,5.0,0.0
504,46.0,120.0,120.0,4.0,0.0
505,64.0,0.0,240.0,2.0,0.0
506,62.0,0.0,240.0,2.0,0.0
507,50.0,120.0,120.0,4.0,0.0
508,68.0,240.0,240.0,1.0,0.0
509,52.0,0.0,120.0,4.0,0.0
510,56.0,120.0,240.0,4.0,0.0
511,70.0,0.0,240.0,1.0,0.0
512,28.0,120.0,120.0,5.0,0.0
513,62.0,0.0,240.0,2.0,0.0
514,67.0,120.0,240.0,2.0,0.0
515,40.0,0.0,120.0,4.0,0.0
516,58.0,240.0,240.0,4.0,0.0
517,43.0,120.0,120.0,4.0,0.0
518,50.0,0.0,120.0,4.0,0.0
519,64.0,480.0,240.0,1.0,0.0
520,58.0,0.0,240.0,2.0,0.0
521,57.0,0.0,720.0,5.0,0.0
522,45.0,0.0,720.0,5.0,0.0
523,55.0,0.0,15.0,4.0,0.0
524,49.0,240.0,720.0,4.0,0.0
525,79.0,0.0,720.0,2.0,0.0
526,73.0,0.0,720.0,2.0,0.0
527,81.0,0.0,720.0,1.0,0.0
528,69.0,0.0,720.0,1.0,0.0
529,53.0,240.0,240.0,4.0,0.0
530,77.0,0.0,240.0,2.0,0.0
531,52.0,0.0,240.0,4.0,0.0
532,76.0,0.0,240.0,2.0,0.0
533,84.0,0.0,240.0,1.0,0.0
534,72.0,0.0,240.0,1.0,0.0
535,50.0,120.0,720.0,4.0,0.0
536,54.0,0.0,720.0,4.0,0.0
537,48.0,5.0,240.0,5.0,0.0
538,78.0,0.0,720.0,2.0,0.0
539,74.0,0.0,720.0,2.0,0.0
540,60.0,235.0,240.0,5.0,0.0
541,58.0,240.0,240.0,5.0,0.0
542,46.0,0.0,240.0,5.0,0.0
543,82.0,0.0,240.0,1.0,0.0
544,70.0,0.0,240.0,1.0,0.0
545,81.0,0.0,240.0,1.0,0.0
546,69.0,0.0,240.0,1.0,0.0
547,57.0,0.0,240.0,5.0,0.0
548,45.0,0.0,240.0,5.0,0.0
549,43.0,120.0,120.0,5.0,0.0
550,50.0,120.0,120.0,4.0,0.0
551,70.0,240.0,240.0,2.0,0.0
552,55.0,120.0,120.0,4.0,0.0
553,74.0,0.0,240.0,1.0,0.0
554,58.0,0.0,120.0,4.0,0.0
555,62.0,120.0,240.0,4.0,0.0
556,36.0,120.0,120.0,5.0,0.0
557,75.0,0.0,240.0,1.0,0.0
558,72.0,120.0,240.0,2.0,0.0
559,48.0,0.0,120.0,4.0,0.0
560,63.0,240.0,240.0,4.0,0.0
561,51.0,120.0,120.0,4.0,0.0
562,56.0,0.0,120.0,4.0,0.0
563,68.0,120.0,240.0,4.0,0.0
564,72.0,0.0,240.0,1.0,0.0
565,60.0,120.0,240.0,4.0,0.0
566,38.0,120.0,120.0,5.0,0.0
567,50.0,0.0,120.0,4.0,0.0
568,84.0,0.0,240.0,1.0,0.0
569,53.0,120.0,120.0,4.0,0.0
570,77.0,0.0,240.0,2.0,0.0
571,74.0,0.0,240.0,2.0,0.0
572,80.0,0.0,240.0,2.0,0.0
573,56.0,240.0,120.0,4.0,0.0
574,72.0,120.0,240.0,4.0,0.0
575,77.0,0.0,240.0,2.0,0.0
576,83.0,0.0,240.0,2.0,0.0
577,43.0,120.0,120.0,4.0,0.0
578,86.0,120.0,240.0,1.0,0.0
579,31.0,0.0,120.0,5.0,0.0
580,50.0,0.0,120.0,4.0,0.0
581,55.0,120.0,120.0,4.0,0.0
582,74.0,240.0,240.0,4.0,0.0
583,59.0,0.0,120.0,4.0,0.0
584,77.0,0.0,240.0,1.0,0.0
585,74.0,120.0,240.0,2.0,0.0
586,65.0,0.0,240.0,4.0,0.0
587,36.0,120.0,120.0,5.0,0.0
588,43.0,120.0,120.0,4.0,0.0
589,48.0,120.0,120.0,4.0,0.0
590,64.0,0.0,240.0,2.0,0.0
591,70.0,240.0,240.0,1.0,0.0
592,67.0,0.0,240.0,2.0,0.0
593,52.0,0.0,120.0,4.0,0.0
594,58.0,120.0,240.0,4.0,0.0
595,67.0,0.0,240.0,2.0,0.0
596,36.0,120.0,120.0,5.0,0.0
597,63.0,0.0,240.0,2.0,0.0
598,70.0,120.0,240.0,1.0,0.0
599,43.0,0.0,120.0,4.0,0.0
600,58.0,240.0,240.0,4.0,0.0
601,48.0,120.0,120.0,4.0,0.0
602,51.0,0.0,120.0,4.0,0.0
603,67.0,0.0,240.0,2.0,0.0
604,68.0,0.0,240.0,1.0,0.0
605,63.0,120.0,240.0,4.0,0.0
606,38.0,120.0,120.0,5.0,0.0
607,50.0,120.0,120.0,4.0,0.0
608,77.0,0.0,240.0,2.0,0.0
609,80.0,0.0,240.0,2.0,0.0
610,74.0,240.0,240.0,2.0,0.0
611,53.0,120.0,120.0,4.0,0.0
612,84.0,0.0,240.0,1.0,0.0
613,56.0,0.0,120.0,4.0,0.0
614,72.0,120.0,240.0,4.0,0.0
615,81.0,0.0,240.0,1.0,0.0
616,35.0,120.0,120.0,5.0,0.0
617,74.0,0.0,240.0,2.0,0.0
618,77.0,120.0,240.0,2.0,0.0
619,47.0,0.0,120.0,4.0,0.0
620,50.0,120.0,120.0,4.0,0.0
621,68.0,240.0,240.0,4.0,0.0
622,55.0,0.0,120.0,4.0,0.0
623,79.0,0.0,240.0,1.0,0.0
624,77.0,0.0,240.0,2.0,0.0
625,74.0,120.0,240.0,4.0,0.0
626,36.0,120.0,120.0,5.0,0.0
627,43.0,120.0,120.0,4.0,0.0
628,66.0,0.0,240.0,1.0,0.0
629,48.0,120.0,120.0,4.0,0.0
630,63.0,240.0,240.0,2.0,0.0
631,51.0,0.0,120.0,4.0,0.0
632,57.0,120.0,240.0,4.0,0.0
633,62.0,120.0,240.0,2.0,0.0
634,67.0,0.0,240.0,1.0,0.0
635,34.0,120.0,120.0,5.0,0.0
636,43.0,0.0,120.0,4.0,0.0
637,46.0,120.0,120.0,4.0,0.0
638,55.0,0.0,240.0,4.0,0.0
639,50.0,240.0,120.0,4.0,0.0
640,58.0,0.0,240.0,4.0,0.0
641,62.0,480.0,15.0,1.0,0.0
642,54.0,0.0,720.0,4.0,0.0
643,66.0,0.0,720.0,2.0,0.0
644,60.0,0.0,720.0,5.0,0.0
645,70.0,240.0,240.0,2.0,0.0
646,58.0,0.0,240.0,4.0,0.0
647,57.0,0.0,240.0,4.0,0.0
648,69.0,0.0,240.0,2.0,0.0
649,55.0,0.0,720.0,4.0,0.0
650,74.0,0.0,15.0,1.0,0.0
651,62.0,480.0,15.0,1.0,0.0
652,50.0,0.0,15.0,5.0,0.0
653,72.0,0.0,15.0,2.0,0.0
654,67.0,0.0,720.0,2.0,0.0
655,60.0,240.0,480.0,5.0,0.0
656,58.0,0.0,240.0,4.0,0.0
657,70.0,0.0,240.0,2.0,0.0
658,36.0,120.0,120.0,5.0,0.0
659,48.0,120.0,120.0,4.0,0.0
660,75.0,0.0,240.0,2.0,0.0
661,72.0,240.0,240.0,2.0,0.0
662,51.0,120.0,120.0,4.0,0.0
663,80.0,0.0,240.0,1.0,0.0
664,56.0,0.0,120.0,4.0,0.0
665,68.0,120.0,240.0,4.0,0.0
666,79.0,0.0,240.0,1.0,0.0
667,38.0,120.0,120.0,5.0,0.0
668,70.0,0.0,240.0,2.0,0.0
669,74.0,0.0,240.0,2.0,0.0
670,46.0,120.0,120.0,4.0,0.0
671,50.0,120.0,120.0,4.0,0.0
672,67.0,0.0,240.0,4.0,0.0
673,55.0,240.0,120.0,4.0,0.0
674,74.0,0.0,240.0,1.0,0.0
675,70.0,480.0,240.0,4.0,0.0
676,48.0,240.0,480.0,5.0,0.0
677,54.0,0.0,720.0,2.0,0.0
678,60.0,0.0,720.0,2.0,0.0
679,46.0,480.0,480.0,5.0,0.0
680,50.0,0.0,15.0,4.0,0.0
681,60.0,0.0,720.0,2.0,0.0
682,54.0,0.0,720.0,2.0,0.0
683,62.0,240.0,15.0,1.0,0.0
684,45.0,480.0,480.0,5.0,0.0
685,55.0,0.0,720.0,2.0,0.0
686,59.0,0.0,720.0,2.0,0.0
687,67.0,0.0,480.0,1.0,0.0
688,65.0,0.0,720.0,5.0,0.0
689,43.0,240.0,720.0,5.0,0.0
690,53.0,240.0,480.0,5.0,0.0
691,63.0,438.0,480.0,5.0,0.0
692,51.0,0.0,480.0,5.0,0.0
693,67.0,4.0,690.0,1.0,0.0
694,55.0,274.0,690.0,2.0,0.0
695,59.0,0.0,690.0,2.0,0.0
696,43.0,0.0,690.0,5.0,0.0
697,62.0,4.0,450.0,5.0,0.0
698,50.0,0.0,450.0,5.0,0.0
699,43.0,0.0,510.0,5.0,0.0
700,50.0,0.0,510.0,4.0,0.0
701,59.0,240.0,480.0,4.0,0.0
702,67.0,240.0,240.0,1.0,0.0
703,71.0,0.0,240.0,2.0,0.0
704,79.0,0.0,240.0,1.0,0.0
705,66.0,0.0,240.0,1.0,0.0
706,78.0,0.0,240.0,1.0,0.0
707,67.0,0.0,240.0,2.0,0.0
708,64.0,0.0,240.0,1.0,0.0
709,76.0,0.0,240.0,1.0,0.0
710,67.0,0.0,480.0,2.0,0.0
711,83.0,0.0,15.0,2.0,0.0
712,79.0,480.0,15.0,2.0,0.0
713,91.0,0.0,15.0,2.0,0.0
714,74.0,0.0,480.0,1.0,0.0
715,62.0,0.0,480.0,1.0,0.0
716,60.0,120.0,120.0,1.0,0.0
717,50.0,0.0,240.0,4.0,0.0
718,72.0,0.0,120.0,1.0,0.0
719,71.0,0.0,120.0,1.0,0.0
720,59.0,0.0,120.0,1.0,0.0
721,57.0,0.0,240.0,1.0,0.0
722,43.0,240.0,15.0,5.0,0.0
723,50.0,0.0,240.0,4.0,0.0
724,69.0,240.0,240.0,1.0,0.0
725,55.0,0.0,240.0,1.0,0.0
726,67.0,240.0,240.0,1.0,0.0
727,71.0,0.0,240.0,1.0,0.0
728,67.0,480.0,240.0,2.0,0.0
729,79.0,0.0,240.0,2.0,0.0
730,59.0,0.0,240.0,1.0,0.0
731,83.0,0.0,240.0,2.0,0.0
732,91.0,0.0,240.0,2.0,0.0
733,74.0,0.0,480.0,1.0,0.0
734,62.0,0.0,480.0,1.0,0.0
735,67.0,0.0,480.0,2.0,0.0
736,91.0,120.0,480.0,2.0,0.0
737,79.0,0.0,480.0,2.0,0.0
738,83.0,0.0,480.0,2.0,0.0
739,64.0,0.0,120.0,1.0,0.0
740,76.0,120.0,120.0,1.0,0.0
741,78.0,240.0,120.0,1.0,0.0
742,66.0,0.0,120.0,1.0,0.0
743,47.0,0.0,15.0,5.0,0.0
744,74.0,240.0,240.0,2.0,0.0
745,55.0,0.0,15.0,4.0,0.0
746,79.0,0.0,240.0,1.0,0.0
747,67.0,0.0,240.0,1.0,0.0
748,78.0,0.0,240.0,1.0,0.0
749,66.0,240.0,240.0,1.0,0.0
750,91.0,0.0,240.0,2.0,0.0
751,76.0,0.0,240.0,1.0,0.0
752,64.0,480.0,240.0,1.0,0.0
753,79.0,0.0,240.0,2.0,0.0
754,67.0,0.0,15.0,2.0,0.0
755,91.0,0.0,480.0,2.0,0.0
756,79.0,0.0,480.0,2.0,0.0
757,83.0,0.0,15.0,2.0,0.0
758,62.0,120.0,480.0,1.0,0.0
759,74.0,0.0,480.0,1.0,0.0
760,50.0,0.0,240.0,4.0,0.0
761,60.0,120.0,120.0,1.0,0.0
762,72.0,0.0,120.0,1.0,0.0
763,38.0,0.0,240.0,5.0,0.0
764,59.0,240.0,120.0,1.0,0.0
765,71.0,0.0,120.0,1.0,0.0
766,50.0,0.0,480.0,5.0,0.0
767,55.0,0.0,480.0,4.0,0.0
768,74.0,240.0,240.0,1.0,0.0
769,59.0,20.0,480.0,4.0,0.0
770,62.0,0.0,480.0,1.0,0.0
771,67.0,0.0,240.0,1.0,0.0
772,71.0,220.0,60.0,1.0,0.0
773,66.0,360.0,240.0,2.0,0.0
774,38.0,0.0,240.0,5.0,0.0
775,69.0,0.0,240.0,1.0,0.0
776,60.0,0.0,240.0,2.0,0.0
777,67.0,120.0,360.0,1.0,0.0
778,50.0,0.0,15.0,4.0,0.0
779,59.0,120.0,480.0,2.0,0.0
780,71.0,0.0,120.0,1.0,0.0
781,43.0,0.0,15.0,5.0,0.0
782,74.0,120.0,120.0,1.0,0.0
783,71.0,0.0,240.0,2.0,0.0
784,83.0,0.0,120.0,1.0,0.0
785,64.0,240.0,480.0,4.0,0.0
786,72.0,0.0,480.0,2.0,0.0
787,84.0,0.0,480.0,2.0,0.0
788,81.0,240.0,240.0,1.0,0.0
789,76.0,0.0,240.0,1.0,0.0
790,78.0,0.0,240.0,1.0,0.0
791,55.0,0.0,15.0,5.0,0.0
792,60.0,475.0,240.0,4.0,0.0
793,69.0,0.0,240.0,2.0,0.0
794,81.0,0.0,240.0,2.0,0.0
795,83.0,5.0,480.0,1.0,0.0
796,71.0,0.0,480.0,1.0,0.0
797,55.0,120.0,480.0,5.0,0.0
798,62.0,0.0,480.0,4.0,0.0
799,79.0,0.0,120.0,2.0,0.0
800,74.0,0.0,240.0,1.0,0.0
801,86.0,120.0,240.0,1.0,0.0
802,83.0,120.0,120.0,2.0,0.0
803,43.0,0.0,240.0,5.0,0.0
804,79.0,0.0,120.0,2.0,0.0
805,64.0,0.0,480.0,4.0,0.0
806,72.0,120.0,480.0,1.0,0.0
807,84.0,0.0,480.0,1.0,0.0
808,81.0,120.0,120.0,2.0,0.0
809,79.0,120.0,120.0,2.0,0.0
810,81.0,120.0,120.0,2.0,0.0
811,76.0,0.0,120.0,2.0,0.0
812,79.0,120.0,120.0,2.0,0.0
813,55.0,0.0,15.0,5.0,0.0
814,60.0,120.0,240.0,4.0,0.0
815,69.0,0.0,240.0,1.0,0.0
816,81.0,0.0,240.0,1.0,0.0
817,78.0,0.0,120.0,2.0,0.0
818,55.0,0.0,15.0,5.0,0.0
819,83.0,0.0,480.0,1.0,0.0
820,71.0,0.0,480.0,1.0,0.0
821,62.0,0.0,480.0,4.0,0.0
822,79.0,120.0,120.0,2.0,0.0
823,78.0,120.0,120.0,2.0,0.0
824,79.0,120.0,120.0,2.0,0.0
825,74.0,120.0,120.0,2.0,0.0
826,55.0,0.0,15.0,5.0,0.0
827,43.0,0.0,240.0,5.0,0.0
828,71.0,0.0,240.0,2.0,0.0
829,76.0,120.0,120.0,2.0,0.0
830,67.0,0.0,240.0,1.0,0.0
831,79.0,120.0,240.0,1.0,0.0
832,74.0,0.0,120.0,2.0,0.0
833,50.0,120.0,240.0,5.0,0.0
834,62.0,0.0,240.0,5.0,0.0
835,78.0,120.0,120.0,2.0,0.0
836,69.0,0.0,480.0,1.0,0.0
837,81.0,0.0,480.0,1.0,0.0
838,76.0,0.0,120.0,2.0,0.0
839,78.0,120.0,120.0,2.0,0.0
840,61.0,0.0,240.0,5.0,0.0
841,49.0,0.0,240.0,5.0,0.0
842,74.0,120.0,120.0,2.0,0.0
843,47.0,0.0,240.0,5.0,0.0
844,59.0,0.0,240.0,5.0,0.0
845,67.0,120.0,240.0,1.0,0.0
846,79.0,0.0,240.0,1.0,0.0
847,50.0,0.0,240.0,4.0,0.0
848,76.0,120.0,120.0,2.0,0.0
849,74.0,0.0,120.0,2.0,0.0
850,45.0,0.0,480.0,5.0,0.0
851,57.0,0.0,480.0,5.0,0.0
852,78.0,120.0,120.0,2.0,0.0
853,69.0,0.0,480.0,1.0,0.0
854,81.0,0.0,480.0,1.0,0.0
855,50.0,120.0,480.0,4.0,0.0
856,76.0,120.0,120.0,2.0,0.0
857,78.0,120.0,120.0,2.0,0.0
858,74.0,0.0,120.0,2.0,0.0
859,73.0,0.0,240.0,1.0,0.0
860,81.0,120.0,240.0,2.0,0.0
861,55.0,0.0,120.0,5.0,0.0
862,43.0,120.0,120.0,5.0,0.0
863,85.0,0.0,240.0,1.0,0.0
864,74.0,0.0,120.0,2.0,0.0
865,42.0,0.0,120.0,5.0,0.0
866,54.0,0.0,120.0,5.0,0.0
867,45.0,120.0,480.0,5.0,0.0
868,57.0,0.0,480.0,5.0,0.0
869,71.0,0.0,240.0,1.0,0.0
870,83.0,0.0,240.0,1.0,0.0
871,74.0,120.0,120.0,2.0,0.0
872,79.0,0.0,240.0,2.0,0.0
873,71.0,120.0,120.0,2.0,0.0
874,81.0,0.0,240.0,1.0,0.0
875,78.0,0.0,240.0,2.0,0.0
876,73.0,120.0,120.0,2.0,0.0
877,69.0,0.0,120.0,2.0,0.0
878,71.0,0.0,120.0,2.0,0.0
879,76.0,0.0,120.0,2.0,0.0
880,79.0,120.0,120.0,1.0,0.0
881,38.0,0.0,240.0,5.0,0.0
882,50.0,0.0,240.0,5.0,0.0
883,74.0,0.0,120.0,2.0,0.0
884,78.0,120.0,120.0,1.0,0.0
885,69.0,0.0,120.0,2.0,0.0
886,67.0,120.0,120.0,2.0,0.0
887,72.0,0.0,240.0,2.0,0.0
888,50.0,0.0,480.0,5.0,0.0
889,76.0,240.0,240.0,1.0,0.0
890,38.0,0.0,480.0,5.0,0.0
891,64.0,0.0,120.0,2.0,0.0
892,66.0,0.0,240.0,2.0,0.0
893,71.0,120.0,240.0,2.0,0.0
894,62.0,0.0,120.0,2.0,0.0
895,72.0,4.0,210.0,2.0,0.0
896,74.0,0.0,15.0,1.0,0.0
897,64.0,0.0,120.0,2.0,0.0
898,67.0,78.0,120.0,2.0,0.0
899,50.0,4.0,210.0,5.0,0.0
900,60.0,0.0,90.0,4.0,0.0
901,69.0,514.0,90.0,2.0,0.0
902,66.0,0.0,90.0,2.0,0.0
903,43.0,0.0,510.0,5.0,0.0
904,67.0,0.0,480.0,2.0,0.0
905,79.0,0.0,480.0,1.0,0.0
906,78.0,0.0,240.0,1.0,0.0
907,55.0,480.0,240.0,5.0,0.0
908,76.0,0.0,240.0,1.0,0.0
909,79.0,0.0,240.0,2.0,0.0
910,67.0,0.0,240.0,2.0,0.0
911,59.0,240.0,15.0,4.0,0.0
912,59.0,0.0,15.0,4.0,0.0
913,67.0,0.0,480.0,2.0,0.0
914,74.0,0.0,480.0,1.0,0.0
915,55.0,0.0,480.0,5.0,0.0
916,72.0,120.0,120.0,1.0,0.0
917,79.0,0.0,15.0,2.0,0.0
918,43.0,0.0,240.0,5.0,0.0
919,67.0,0.0,240.0,2.0,0.0
920,71.0,240.0,120.0,1.0,0.0
921,55.0,0.0,480.0,5.0,0.0
922,79.0,0.0,15.0,2.0,0.0
923,69.0,240.0,240.0,1.0,0.0
924,59.0,240.0,480.0,4.0,0.0
925,67.0,0.0,240.0,1.0,0.0
926,71.0,480.0,240.0,1.0,0.0
927,79.0,0.0,240.0,2.0,0.0
928,55.0,0.0,240.0,5.0,0.0
929,59.0,0.0,240.0,4.0,0.0
930,59.0,0.0,480.0,4.0,0.0
931,74.0,0.0,480.0,1.0,0.0
932,55.0,0.0,480.0,5.0,0.0
933,76.0,120.0,120.0,1.0,0.0
934,40.0,0.0,240.0,5.0,0.0
935,79.0,120.0,15.0,2.0,0.0
936,67.0,0.0,15.0,2.0,0.0
937,78.0,0.0,120.0,1.0,0.0
938,52.0,0.0,480.0,5.0,0.0
939,79.0,0.0,480.0,1.0,0.0
940,67.0,0.0,15.0,2.0,0.0
941,78.0,0.0,240.0,1.0,0.0
942,59.0,240.0,15.0,4.0,0.0
943,52.0,480.0,240.0,5.0,0.0
944,76.0,0.0,240.0,1.0,0.0
945,67.0,0.0,15.0,2.0,0.0
946,79.0,0.0,240.0,2.0,0.0
947,59.0,0.0,15.0,4.0,0.0
948,74.0,0.0,480.0,1.0,0.0
949,52.0,120.0,480.0,5.0,0.0
950,73.0,120.0,120.0,1.0,0.0
951,79.0,0.0,15.0,2.0,0.0
952,67.0,0.0,15.0,2.0,0.0
953,42.0,0.0,240.0,5.0,0.0
954,71.0,240.0,120.0,1.0,0.0
955,54.0,0.0,480.0,5.0,0.0
956,58.0,0.0,480.0,4.0,0.0
957,64.0,240.0,480.0,4.0,0.0
958,73.0,240.0,240.0,1.0,0.0
959,79.0,0.0,480.0,2.0,0.0
960,67.0,0.0,480.0,2.0,0.0
961,74.0,0.0,240.0,1.0,0.0
962,78.0,0.0,240.0,2.0,0.0
963,54.0,0.0,240.0,5.0,0.0
964,76.0,352.0,240.0,1.0,0.0
965,58.0,0.0,240.0,4.0,0.0
966,61.0,0.0,240.0,4.0,0.0
967,66.0,0.0,15.0,2.0,0.0
968,78.0,8.0,360.0,2.0,0.0
969,74.0,120.0,360.0,1.0,0.0
970,59.0,0.0,480.0,4.0,0.0
971,47.0,0.0,480.0,5.0,0.0
972,78.0,120.0,120.0,2.0,0.0
973,66.0,0.0,210.0,4.0,0.0
974,74.0,360.0,240.0,4.0,0.0
975,62.0,38.0,210.0,5.0,0.0
976,76.0,82.0,120.0,2.0,0.0
977,86.0,0.0,210.0,1.0,0.0
978,74.0,0.0,90.0,2.0,0.0
979,55.0,20.0,480.0,5.0,0.0
980,62.0,20.0,480.0,4.0,0.0
981,91.0,80.0,360.0,1.0,0.0
982,79.0,0.0,480.0,2.0,0.0
983,90.0,120.0,120.0,1.0,0.0
984,55.0,40.0,240.0,5.0,0.0
985,71.0,0.0,15.0,4.0,0.0
986,91.0,80.0,120.0,1.0,0.0
987,79.0,105.0,360.0,2.0,0.0
988,88.0,0.0,120.0,1.0,0.0
989,55.0,40.0,480.0,5.0,0.0
990,71.0,120.0,15.0,4.0,0.0
991,62.0,0.0,15.0,4.0,0.0
992,91.0,15.0,120.0,1.0,0.0
993,86.0,65.0,240.0,1.0,0.0
994,78.0,120.0,120.0,2.0,0.0
995,79.0,15.0,120.0,2.0,0.0
996,84.0,115.0,240.0,1.0,0.0
997,76.0,0.0,120.0,2.0,0.0
998,79.0,5.0,120.0,2.0,0.0
999,55.0,120.0,240.0,5.0,0.0
1000,74.0,100.0,270.0,2.0,0.0
1001,83.0,0.0,120.0,1.0,0.0
1002,62.0,0.0,15.0,4.0,0.0
1003,81.0,20.0,120.0,1.0,0.0
1004,55.0,53.0,420.0,5.0,0.0
1005,72.0,62.0,240.0,2.0,0.0
1006,78.0,120.0,120.0,1.0,0.0
1007,79.0,5.0,120.0,1.0,0.0
1008,71.0,0.0,120.0,2.0,0.0
1009,83.0,0.0,120.0,1.0,0.0
1010,60.0,20.0,240.0,4.0,0.0
1011,69.0,80.0,120.0,2.0,0.0
1012,86.0,75.0,600.0,1.0,0.0
1013,66.0,125.0,120.0,2.0,0.0
1014,55.0,20.0,15.0,5.0,0.0
1015,67.0,115.0,120.0,2.0,0.0
1016,71.0,125.0,120.0,2.0,0.0
1017,74.0,475.0,480.0,2.0,0.0
1018,76.0,20.0,120.0,1.0,0.0
1019,55.0,0.0,720.0,4.0,0.0
1020,59.0,100.0,20.0,4.0,0.0
1021,78.0,120.0,120.0,1.0,0.0
1022,47.0,0.0,240.0,5.0,0.0
1023,81.0,5.0,120.0,1.0,0.0
1024,49.0,0.0,480.0,5.0,0.0
1025,79.0,240.0,480.0,1.0,0.0
1026,78.0,0.0,240.0,1.0,0.0
1027,50.0,0.0,480.0,5.0,0.0
1028,79.0,0.0,480.0,2.0,0.0
1029,67.0,0.0,15.0,2.0,0.0
1030,55.0,0.0,480.0,4.0,0.0
1031,59.0,0.0,480.0,4.0,0.0
1032,76.0,240.0,240.0,1.0,0.0
1033,74.0,120.0,480.0,1.0,0.0
1034,55.0,0.0,480.0,4.0,0.0
1035,67.0,240.0,15.0,2.0,0.0
1036,52.0,0.0,480.0,5.0,0.0
1037,72.0,120.0,120.0,1.0,0.0
1038,71.0,0.0,120.0,1.0,0.0
1039,59.0,0.0,15.0,4.0,0.0
1040,74.0,240.0,240.0,1.0,0.0
1041,79.0,240.0,15.0,2.0,0.0
1042,50.0,0.0,480.0,5.0,0.0
1043,67.0,120.0,240.0,1.0,0.0
1044,78.0,3.0,660.0,2.0,0.0
1045,71.0,555.0,120.0,1.0,0.0
1046,50.0,278.0,690.0,5.0,0.0
1047,60.0,0.0,690.0,4.0,0.0
1048,69.0,4.0,570.0,1.0,0.0
1049,48.0,20.0,720.0,5.0,0.0
1050,55.0,20.0,720.0,4.0,0.0
1051,64.0,0.0,720.0,4.0,0.0
1052,76.0,440.0,240.0,1.0,0.0
1053,74.0,235.0,480.0,1.0,0.0
1054,55.0,240.0,720.0,4.0,0.0
1055,67.0,0.0,15.0,2.0,0.0
1056,79.0,5.0,15.0,2.0,0.0
1057,52.0,0.0,720.0,5.0,0.0
1058,73.0,480.0,240.0,1.0,0.0
1059,72.0,0.0,480.0,1.0,0.0
1060,50.0,0.0,720.0,5.0,0.0
1061,71.0,240.0,240.0,1.0,0.0
1062,67.0,240.0,480.0,2.0,0.0
1063,59.0,0.0,720.0,4.0,0.0
1064,79.0,0.0,720.0,2.0,0.0
1065,74.0,0.0,240.0,1.0,0.0
1066,67.0,120.0,240.0,1.0,0.0
1067,60.0,0.0,960.0,4.0,0.0
1068,50.0,480.0,960.0,5.0,0.0
1069,78.0,0.0,960.0,2.0,0.0
1070,71.0,725.0,120.0,1.0,0.0
1071,69.0,115.0,720.0,1.0,0.0
1072,67.0,0.0,120.0,1.0,0.0
1073,79.0,0.0,480.0,2.0,0.0
1074,55.0,0.0,480.0,5.0,0.0
1075,59.0,0.0,480.0,4.0,0.0
1076,67.0,720.0,480.0,1.0,0.0
1077,59.0,0.0,480.0,2.0,0.0
1078,50.0,2160.0,480.0,2.0,0.0
1079,62.0,0.0,480.0,1.0,0.0
1080,43.0,0.0,480.0,5.0,0.0
1081,31.0,0.0,480.0,5.0,0.0
1082,67.0,0.0,1920.0,5.0,0.0
1083,55.0,0.0,1920.0,5.0,0.0
1084,79.0,0.0,1920.0,2.0,0.0
1085,71.0,0.0,1920.0,2.0,0.0
1086,83.0,0.0,1920.0,1.0,0.0
1087,59.0,2160.0,1920.0,4.0,0.0
1088,77.0,60.0,60.0,1.0,0.0
1089,76.0,60.0,60.0,1.0,0.0
1090,43.0,60.0,240.0,5.0,0.0
1091,70.0,60.0,60.0,3.0,0.0
1092,64.0,60.0,60.0,3.0,0.0
1093,76.0,0.0,60.0,1.0,0.0
1094,74.0,60.0,60.0,1.0,0.0
1095,41.0,60.0,240.0,5.0,0.0
1096,69.0,60.0,60.0,3.0,0.0
1097,62.0,60.0,60.0,3.0,0.0
1098,56.0,0.0,60.0,3.0,0.0
1099,57.0,60.0,60.0,3.0,0.0
1100,62.0,60.0,60.0,3.0,0.0
1101,69.0,60.0,60.0,3.0,0.0
1102,74.0,60.0,60.0,1.0,0.0
1103,43.0,60.0,240.0,5.0,0.0
1104,76.0,60.0,60.0,1.0,0.0
1105,70.0,60.0,60.0,3.0,0.0
1106,64.0,60.0,60.0,3.0,0.0
1107,76.0,0.0,60.0,1.0,0.0
1108,41.0,0.0,240.0,5.0,0.0
1109,81.0,60.0,60.0,1.0,0.0
1110,74.0,60.0,60.0,3.0,0.0
1111,69.0,60.0,60.0,3.0,0.0
1112,61.0,60.0,60.0,3.0,0.0
1113,62.0,60.0,60.0,3.0,0.0
1114,69.0,60.0,60.0,3.0,0.0
1115,74.0,60.0,60.0,3.0,0.0
1116,81.0,60.0,60.0,1.0,0.0
1117,38.0,0.0,240.0,5.0,0.0
1118,84.0,60.0,60.0,1.0,0.0
1119,77.0,60.0,60.0,3.0,0.0
1120,72.0,60.0,60.0,3.0,0.0
1121,84.0,60.0,60.0,1.0,0.0
1122,82.0,60.0,60.0,1.0,0.0
1123,43.0,60.0,240.0,5.0,0.0
1124,77.0,60.0,60.0,3.0,0.0
1125,70.0,60.0,60.0,3.0,0.0
1126,61.0,0.0,60.0,3.0,0.0
1127,62.0,60.0,60.0,3.0,0.0
1128,65.0,60.0,60.0,3.0,0.0
1129,74.0,60.0,60.0,3.0,0.0
1130,77.0,60.0,60.0,1.0,0.0
1131,36.0,0.0,240.0,5.0,0.0
1132,82.0,60.0,60.0,1.0,0.0
1133,76.0,60.0,60.0,3.0,0.0
1134,70.0,60.0,60.0,3.0,0.0
1135,82.0,60.0,60.0,1.0,0.0
1136,41.0,60.0,240.0,5.0,0.0
1137,81.0,60.0,60.0,1.0,0.0
1138,76.0,60.0,60.0,3.0,0.0
1139,69.0,60.0,60.0,3.0,0.0
1140,59.0,0.0,60.0,3.0,0.0
1141,60.0,60.0,60.0,3.0,0.0
1142,64.0,60.0,60.0,3.0,0.0
1143,72.0,60.0,60.0,3.0,0.0
1144,76.0,60.0,60.0,1.0,0.0
1145,81.0,60.0,60.0,1.0,0.0
1146,34.0,0.0,240.0,5.0,0.0
1147,74.0,60.0,60.0,3.0,0.0
1148,69.0,60.0,60.0,3.0,0.0
1149,81.0,60.0,60.0,1.0,0.0
1150,79.0,60.0,60.0,1.0,0.0
1151,40.0,0.0,240.0,5.0,0.0
1152,74.0,60.0,60.0,3.0,0.0
1153,67.0,60.0,60.0,3.0,0.0
1154,77.0,60.0,60.0,1.0,0.0
1155,76.0,60.0,60.0,1.0,0.0
1156,43.0,60.0,240.0,5.0,0.0
1157,70.0,60.0,60.0,3.0,0.0
1158,64.0,60.0,60.0,3.0,0.0
1159,57.0,0.0,120.0,3.0,0.0
1160,58.0,60.0,60.0,3.0,0.0
1161,62.0,60.0,60.0,3.0,0.0
1162,70.0,60.0,60.0,3.0,0.0
1163,81.0,60.0,60.0,1.0,0.0
1164,33.0,60.0,240.0,5.0,0.0
1165,79.0,60.0,60.0,1.0,0.0
1166,73.0,60.0,60.0,3.0,0.0
1167,67.0,60.0,60.0,3.0,0.0
1168,77.0,0.0,60.0,1.0,0.0
1169,45.0,60.0,240.0,5.0,0.0
1170,76.0,60.0,60.0,1.0,0.0
1171,73.0,60.0,60.0,3.0,0.0
1172,67.0,60.0,60.0,3.0,0.0
1173,56.0,60.0,120.0,3.0,0.0
1174,57.0,0.0,60.0,3.0,0.0
1175,61.0,60.0,60.0,3.0,0.0
1176,69.0,60.0,60.0,3.0,0.0
1177,82.0,120.0,60.0,1.0,0.0
1178,81.0,0.0,240.0,1.0,0.0
1179,76.0,60.0,60.0,3.0,0.0
1180,73.0,60.0,60.0,3.0,0.0
1181,69.0,120.0,60.0,5.0,0.0
1182,80.0,120.0,240.0,1.0,0.0
1183,76.0,60.0,60.0,3.0,0.0
1184,73.0,60.0,60.0,3.0,0.0
1185,69.0,0.0,60.0,5.0,0.0
1186,79.0,0.0,240.0,1.0,0.0
1187,76.0,60.0,60.0,3.0,0.0
1188,73.0,60.0,60.0,3.0,0.0
1189,69.0,120.0,60.0,5.0,0.0
1190,77.0,60.0,240.0,1.0,0.0
1191,73.0,60.0,60.0,5.0,0.0
1192,70.0,60.0,60.0,5.0,0.0
1193,65.0,0.0,60.0,5.0,0.0
1194,61.0,60.0,60.0,5.0,0.0
1195,58.0,60.0,60.0,5.0,0.0
1196,53.0,60.0,60.0,5.0,0.0
1197,49.0,60.0,60.0,5.0,0.0
1198,46.0,60.0,60.0,5.0,0.0
1199,41.0,60.0,60.0,5.0,0.0
1200,37.0,60.0,60.0,5.0,0.0
1201,34.0,120.0,60.0,5.0,0.0
1202,31.0,0.0,240.0,5.0,0.0
1203,43.0,60.0,60.0,4.0,0.0
1204,46.0,60.0,60.0,4.0,0.0
1205,49.0,60.0,60.0,4.0,0.0
1206,55.0,60.0,60.0,4.0,0.0
1207,58.0,60.0,60.0,4.0,0.0
1208,61.0,60.0,60.0,4.0,0.0
1209,77.0,60.0,60.0,1.0,0.0
1210,76.0,60.0,60.0,1.0,0.0
1211,43.0,60.0,240.0,5.0,0.0
1212,71.0,60.0,60.0,3.0,0.0
1213,64.0,60.0,60.0,3.0,0.0
1214,76.0,0.0,60.0,1.0,0.0
1215,74.0,60.0,60.0,1.0,0.0
1216,41.0,60.0,240.0,5.0,0.0
1217,69.0,60.0,60.0,3.0,0.0
1218,62.0,60.0,60.0,3.0,0.0
1219,56.0,0.0,60.0,3.0,0.0
1220,57.0,60.0,60.0,3.0,0.0
1221,62.0,60.0,60.0,3.0,0.0
1222,69.0,60.0,60.0,3.0,0.0
1223,74.0,60.0,60.0,1.0,0.0
1224,76.0,60.0,60.0,1.0,0.0
1225,43.0,0.0,240.0,5.0,0.0
1226,71.0,60.0,60.0,3.0,0.0
1227,64.0,60.0,60.0,3.0,0.0
1228,76.0,60.0,60.0,1.0,0.0
1229,41.0,60.0,240.0,5.0,0.0
1230,81.0,60.0,60.0,1.0,0.0
1231,76.0,60.0,60.0,3.0,0.0
1232,69.0,60.0,60.0,3.0,0.0
1233,61.0,0.0,60.0,3.0,0.0
1234,62.0,60.0,60.0,3.0,0.0
1235,69.0,60.0,60.0,3.0,0.0
1236,74.0,60.0,60.0,3.0,0.0
1237,81.0,60.0,60.0,1.0,0.0
1238,40.0,0.0,240.0,5.0,0.0
1239,86.0,60.0,60.0,1.0,0.0
1240,80.0,60.0,60.0,3.0,0.0
1241,74.0,60.0,60.0,3.0,0.0
1242,86.0,60.0,60.0,1.0,0.0
1243,85.0,60.0,60.0,1.0,0.0
1244,45.0,60.0,240.0,5.0,0.0
1245,79.0,60.0,60.0,3.0,0.0
1246,73.0,60.0,60.0,3.0,0.0
1247,63.0,0.0,60.0,3.0,0.0
1248,64.0,60.0,60.0,3.0,0.0
1249,67.0,60.0,60.0,3.0,0.0
1250,76.0,60.0,60.0,3.0,0.0
1251,81.0,60.0,60.0,1.0,0.0
1252,84.0,60.0,60.0,1.0,0.0
1253,38.0,60.0,240.0,5.0,0.0
1254,78.0,60.0,60.0,3.0,0.0
1255,72.0,60.0,60.0,3.0,0.0
1256,84.0,0.0,60.0,1.0,0.0
1257,83.0,60.0,60.0,1.0,0.0
1258,43.0,0.0,240.0,5.0,0.0
1259,77.0,60.0,60.0,3.0,0.0
1260,71.0,60.0,60.0,3.0,0.0
1261,61.0,60.0,60.0,3.0,0.0
1262,62.0,60.0,60.0,3.0,0.0
1263,65.0,60.0,60.0,3.0,0.0
1264,74.0,60.0,60.0,3.0,0.0
1265,79.0,60.0,60.0,1.0,0.0
1266,82.0,60.0,60.0,1.0,0.0
1267,36.0,60.0,240.0,5.0,0.0
1268,76.0,60.0,60.0,3.0,0.0
1269,70.0,60.0,60.0,3.0,0.0
1270,82.0,0.0,60.0,1.0,0.0
1271,81.0,60.0,60.0,1.0,0.0
1272,41.0,0.0,240.0,5.0,0.0
1273,75.0,60.0,60.0,3.0,0.0
1274,69.0,60.0,60.0,3.0,0.0
1275,79.0,60.0,60.0,1.0,0.0
1276,53.0,60.0,240.0,5.0,0.0
1277,77.0,60.0,60.0,1.0,0.0
1278,75.0,60.0,60.0,3.0,0.0
1279,69.0,60.0,60.0,3.0,0.0
1280,59.0,0.0,60.0,3.0,0.0
1281,60.0,60.0,60.0,3.0,0.0
1282,63.0,60.0,60.0,3.0,0.0
1283,72.0,60.0,60.0,3.0,0.0
1284,80.0,60.0,60.0,1.0,0.0
1285,81.0,60.0,60.0,1.0,0.0
1286,40.0,0.0,240.0,5.0,0.0
1287,72.0,60.0,60.0,3.0,0.0
1288,69.0,60.0,60.0,3.0,0.0
1289,77.0,60.0,60.0,1.0,0.0
1290,52.0,0.0,240.0,5.0,0.0
1291,76.0,60.0,60.0,1.0,0.0
1292,72.0,60.0,60.0,3.0,0.0
1293,69.0,60.0,60.0,3.0,0.0
1294,56.0,60.0,60.0,3.0,0.0
1295,57.0,60.0,60.0,3.0,0.0
1296,60.0,60.0,60.0,3.0,0.0
1297,69.0,60.0,60.0,3.0,0.0
1298,76.0,120.0,60.0,1.0,0.0
1299,77.0,120.0,240.0,1.0,0.0
1300,71.0,60.0,60.0,3.0,0.0
1301,68.0,60.0,60.0,3.0,0.0
1302,64.0,0.0,60.0,5.0,0.0
1303,74.0,0.0,240.0,1.0,0.0
1304,71.0,60.0,60.0,3.0,0.0
1305,65.0,60.0,60.0,3.0,0.0
1306,64.0,120.0,60.0,5.0,0.0
1307,71.0,60.0,240.0,1.0,0.0
1308,68.0,60.0,60.0,3.0,0.0
1309,62.0,60.0,60.0,3.0,0.0
1310,64.0,0.0,60.0,5.0,0.0
1311,74.0,60.0,60.0,1.0,0.0
1312,69.0,60.0,60.0,5.0,0.0
1313,64.0,60.0,60.0,5.0,0.0
1314,57.0,60.0,60.0,5.0,0.0
1315,52.0,60.0,60.0,5.0,0.0
1316,48.0,60.0,60.0,5.0,0.0
1317,45.0,60.0,60.0,5.0,0.0
1318,72.0,0.0,60.0,3.0,0.0
1319,40.0,0.0,60.0,5.0,0.0
1320,84.0,60.0,60.0,1.0,0.0
1321,36.0,60.0,60.0,5.0,0.0
1322,82.0,0.0,60.0,1.0,0.0
1323,48.0,60.0,60.0,5.0,0.0
1324,76.0,0.0,60.0,3.0,0.0
1325,70.0,60.0,60.0,3.0,0.0
1326,82.0,60.0,60.0,1.0,0.0
1327,81.0,60.0,60.0,1.0,0.0
1328,41.0,0.0,60.0,5.0,0.0
1329,75.0,60.0,60.0,3.0,0.0
1330,69.0,60.0,60.0,3.0,0.0
1331,79.0,60.0,60.0,1.0,0.0
1332,77.0,0.0,60.0,1.0,0.0
1333,53.0,60.0,60.0,5.0,0.0
1334,75.0,60.0,60.0,3.0,0.0
1335,69.0,60.0,60.0,3.0,0.0
1336,59.0,60.0,60.0,3.0,0.0
1337,60.0,60.0,60.0,3.0,0.0
1338,63.0,60.0,60.0,3.0,0.0
1339,72.0,60.0,60.0,3.0,0.0
1340,78.0,60.0,60.0,1.0,0.0
1341,41.0,0.0,60.0,5.0,0.0
1342,77.0,60.0,60.0,1.0,0.0
1343,72.0,60.0,60.0,3.0,0.0
1344,69.0,60.0,60.0,3.0,0.0
1345,76.0,60.0,60.0,1.0,0.0
1346,75.0,0.0,60.0,1.0,0.0
1347,53.0,60.0,60.0,5.0,0.0
1348,72.0,60.0,60.0,3.0,0.0
1349,66.0,60.0,60.0,3.0,0.0
1350,56.0,60.0,60.0,3.0,0.0
1351,57.0,60.0,60.0,3.0,0.0
1352,60.0,60.0,60.0,3.0,0.0
1353,69.0,60.0,60.0,3.0,0.0
1354,77.0,120.0,60.0,1.0,0.0
1355,75.0,0.0,240.0,1.0,0.0
1356,72.0,60.0,60.0,3.0,0.0
1357,66.0,60.0,60.0,3.0,0.0
1358,34.0,120.0,60.0,5.0,0.0
1359,73.0,0.0,240.0,1.0,0.0
1360,70.0,60.0,60.0,3.0,0.0
1361,65.0,60.0,60.0,3.0,0.0
1362,34.0,120.0,60.0,5.0,0.0
1363,72.0,120.0,240.0,1.0,0.0
1364,69.0,60.0,60.0,3.0,0.0
1365,63.0,60.0,60.0,3.0,0.0
1366,34.0,0.0,60.0,5.0,0.0
1367,70.0,60.0,240.0,1.0,0.0
1368,66.0,60.0,60.0,5.0,0.0
1369,61.0,60.0,60.0,5.0,0.0
1370,58.0,0.0,60.0,5.0,0.0
1371,54.0,60.0,60.0,5.0,0.0
1372,49.0,60.0,60.0,5.0,0.0
1373,46.0,60.0,60.0,5.0,0.0
1374,42.0,60.0,60.0,5.0,0.0
1375,37.0,60.0,60.0,5.0,0.0
1376,34.0,60.0,60.0,5.0,0.0
1377,37.0,60.0,60.0,5.0,0.0
1378,42.0,80.0,60.0,5.0,0.0
1379,46.0,80.0,90.0,5.0,0.0
1380,49.0,80.0,90.0,3.0,0.0
1381,54.0,120.0,90.0,3.0,0.0
1382,58.0,840.0,120.0,3.0,0.0
1383,36.0,105.0,240.0,5.0,0.0
1384,60.0,120.0,120.0,2.0,0.0
1385,69.0,0.0,120.0,1.0,0.0
1386,64.0,15.0,240.0,2.0,0.0
1387,58.0,0.0,120.0,2.0,0.0
1388,67.0,0.0,15.0,1.0,0.0
1389,58.0,240.0,120.0,2.0,0.0
1390,64.0,0.0,120.0,2.0,0.0
1391,41.0,0.0,120.0,5.0,0.0
1392,57.0,0.0,360.0,2.0,0.0
1393,41.0,120.0,360.0,5.0,0.0
1394,65.0,0.0,360.0,1.0,0.0
1395,47.0,120.0,120.0,5.0,0.0
1396,48.0,120.0,360.0,5.0,0.0
1397,69.0,120.0,120.0,2.0,0.0
1398,77.0,0.0,120.0,1.0,0.0
1399,60.0,115.0,480.0,4.0,0.0
1400,70.0,0.0,120.0,2.0,0.0
1401,79.0,0.0,15.0,1.0,0.0
1402,76.0,0.0,15.0,2.0,0.0
1403,70.0,0.0,120.0,2.0,0.0
1404,81.0,0.0,360.0,2.0,0.0
1405,69.0,5.0,360.0,2.0,0.0
1406,84.0,120.0,360.0,1.0,0.0
1407,64.0,115.0,120.0,4.0,0.0
1408,65.0,0.0,480.0,4.0,0.0
1409,77.0,0.0,120.0,2.0,0.0
1410,81.0,120.0,120.0,1.0,0.0
1411,53.0,0.0,15.0,5.0,0.0
1412,70.0,0.0,120.0,2.0,0.0
1413,86.0,0.0,120.0,1.0,0.0
1414,60.0,110.0,360.0,4.0,0.0
1415,82.0,120.0,120.0,2.0,0.0
1416,76.0,0.0,120.0,2.0,0.0
1417,79.0,130.0,120.0,1.0,0.0
1418,81.0,5.0,360.0,2.0,0.0
1419,69.0,120.0,360.0,2.0,0.0
1420,84.0,0.0,360.0,1.0,0.0
1421,59.0,115.0,120.0,4.0,0.0
1422,60.0,0.0,480.0,4.0,0.0
1423,81.0,120.0,120.0,1.0,0.0
1424,77.0,0.0,120.0,2.0,0.0
1425,65.0,0.0,120.0,2.0,0.0
1426,72.0,115.0,120.0,2.0,0.0
1427,50.0,0.0,240.0,5.0,0.0
1428,57.0,5.0,240.0,4.0,0.0
1429,76.0,0.0,120.0,1.0,0.0
1430,77.0,120.0,120.0,1.0,0.0
1431,74.0,0.0,120.0,2.0,0.0
1432,62.0,0.0,120.0,2.0,0.0
1433,43.0,120.0,120.0,5.0,0.0
1434,69.0,10.0,360.0,2.0,0.0
1435,72.0,0.0,360.0,1.0,0.0
1436,50.0,110.0,120.0,4.0,0.0
1437,55.0,120.0,120.0,4.0,0.0
1438,67.0,235.0,120.0,2.0,0.0
1439,70.0,0.0,120.0,1.0,0.0
1440,62.0,0.0,120.0,4.0,0.0
1441,70.0,0.0,240.0,1.0,0.0
1442,67.0,5.0,240.0,2.0,0.0
1443,62.0,120.0,120.0,2.0,0.0
1444,50.0,0.0,120.0,4.0,0.0
1445,69.0,0.0,240.0,2.0,0.0
1446,42.0,0.0,240.0,5.0,0.0
1447,72.0,0.0,240.0,1.0,0.0
1448,51.0,120.0,120.0,4.0,0.0
1449,63.0,0.0,120.0,2.0,0.0
1450,62.0,0.0,120.0,2.0,0.0
1451,50.0,120.0,120.0,4.0,0.0
1452,61.0,0.0,120.0,2.0,0.0
1453,49.0,120.0,120.0,4.0,0.0
1454,67.0,0.0,240.0,2.0,0.0
1455,50.0,120.0,120.0,4.0,0.0
1456,62.0,0.0,120.0,2.0,0.0
1457,70.0,0.0,15.0,1.0,0.0
1458,51.0,120.0,120.0,4.0,0.0
1459,67.0,0.0,240.0,2.0,0.0
1460,63.0,0.0,120.0,2.0,0.0
1461,43.0,0.0,15.0,5.0,0.0
1462,52.0,0.0,120.0,4.0,0.0
1463,64.0,0.0,120.0,2.0,0.0
1464,67.0,0.0,120.0,2.0,0.0
1465,70.0,0.0,240.0,1.0,0.0
1466,45.0,0.0,240.0,5.0,0.0
1467,55.0,120.0,120.0,4.0,0.0
1468,65.0,0.0,120.0,2.0,0.0
1469,53.0,0.0,120.0,4.0,0.0
1470,52.0,0.0,120.0,4.0,0.0
1471,60.0,120.0,15.0,2.0,0.0
1472,64.0,120.0,120.0,2.0,0.0
1473,45.0,0.0,240.0,5.0,0.0
1474,53.0,0.0,120.0,4.0,0.0
1475,65.0,0.0,120.0,2.0,0.0
1476,52.0,120.0,120.0,4.0,0.0
1477,69.0,120.0,15.0,1.0,0.0
1478,64.0,0.0,120.0,2.0,0.0
1479,41.0,0.0,240.0,5.0,0.0
1480,57.0,120.0,240.0,2.0,0.0
1481,50.0,0.0,120.0,4.0,0.0
1482,62.0,0.0,120.0,2.0,0.0
1483,69.0,0.0,15.0,1.0,0.0
1484,61.0,0.0,120.0,2.0,0.0
1485,49.0,120.0,120.0,4.0,0.0
1486,46.0,120.0,240.0,5.0,0.0
1487,57.0,0.0,240.0,2.0,0.0
1488,62.0,0.0,120.0,2.0,0.0
1489,50.0,0.0,120.0,4.0,0.0
1490,55.0,0.0,240.0,2.0,0.0
1491,67.0,0.0,240.0,1.0,0.0
1492,65.0,120.0,120.0,2.0,0.0
1493,53.0,0.0,120.0,4.0,0.0
1494,52.0,120.0,120.0,4.0,0.0
1495,64.0,0.0,120.0,2.0,0.0
1496,46.0,0.0,15.0,5.0,0.0
1497,56.0,245.0,240.0,2.0,0.0
1498,62.0,0.0,120.0,2.0,0.0
1499,50.0,120.0,120.0,4.0,0.0
1500,68.0,0.0,240.0,1.0,0.0
1501,52.0,0.0,450.0,4.0,0.0
1502,64.0,0.0,120.0,2.0,0.0
1503,45.0,0.0,330.0,5.0,0.0
1504,69.0,8.0,330.0,1.0,0.0
1505,62.0,73.0,240.0,2.0,0.0
1506,57.0,0.0,330.0,2.0,0.0
1507,61.0,154.0,90.0,2.0,0.0
1508,69.0,0.0,120.0,1.0,0.0
1509,36.0,0.0,240.0,5.0,0.0
1510,60.0,120.0,120.0,2.0,0.0
1511,67.0,120.0,120.0,1.0,0.0
1512,58.0,0.0,15.0,2.0,0.0
1513,41.0,125.0,240.0,5.0,0.0
1514,64.0,0.0,15.0,2.0,0.0
1515,67.0,0.0,120.0,1.0,0.0
1516,57.0,125.0,360.0,2.0,0.0
1517,65.0,0.0,360.0,1.0,0.0
1518,47.0,115.0,120.0,5.0,0.0
1519,48.0,120.0,480.0,5.0,0.0
1520,60.0,115.0,480.0,4.0,0.0
1521,69.0,120.0,120.0,2.0,0.0
1522,77.0,0.0,120.0,1.0,0.0
1523,79.0,0.0,120.0,1.0,0.0
1524,70.0,120.0,120.0,2.0,0.0
1525,79.0,0.0,120.0,1.0,0.0
1526,76.0,0.0,15.0,2.0,0.0
1527,53.0,10.0,600.0,5.0,0.0
1528,70.0,0.0,120.0,2.0,0.0
1529,69.0,0.0,360.0,2.0,0.0
1530,84.0,110.0,360.0,1.0,0.0
1531,81.0,0.0,360.0,2.0,0.0
1532,62.0,120.0,120.0,4.0,0.0
1533,63.0,120.0,600.0,4.0,0.0
1534,77.0,0.0,120.0,2.0,0.0
1535,81.0,120.0,120.0,1.0,0.0
1536,70.0,0.0,120.0,2.0,0.0
1537,82.0,120.0,120.0,2.0,0.0
1538,53.0,5.0,720.0,5.0,0.0
1539,86.0,0.0,120.0,1.0,0.0
1540,75.0,0.0,120.0,2.0,0.0
1541,79.0,120.0,120.0,1.0,0.0
1542,69.0,115.0,360.0,2.0,0.0
1543,81.0,5.0,360.0,2.0,0.0
1544,84.0,0.0,360.0,1.0,0.0
1545,62.0,115.0,120.0,4.0,0.0
1546,63.0,115.0,240.0,4.0,0.0
1547,81.0,0.0,120.0,1.0,0.0
1548,65.0,0.0,120.0,2.0,0.0
1549,77.0,5.0,120.0,2.0,0.0
1550,72.0,0.0,120.0,2.0,0.0
1551,75.0,120.0,120.0,1.0,0.0
1552,57.0,5.0,240.0,4.0,0.0
1553,53.0,115.0,240.0,5.0,0.0
1554,62.0,0.0,120.0,2.0,0.0
1555,74.0,0.0,120.0,2.0,0.0
1556,77.0,0.0,120.0,1.0,0.0
1557,69.0,5.0,360.0,2.0,0.0
1558,46.0,120.0,120.0,5.0,0.0
1559,73.0,115.0,360.0,1.0,0.0
1560,53.0,120.0,120.0,4.0,0.0
1561,58.0,0.0,120.0,4.0,0.0
1562,65.0,0.0,120.0,4.0,0.0
1563,70.0,0.0,15.0,2.0,0.0
1564,74.0,235.0,15.0,1.0,0.0
1565,53.0,0.0,120.0,4.0,0.0
1566,65.0,120.0,120.0,2.0,0.0
1567,54.0,120.0,120.0,4.0,0.0
1568,73.0,0.0,240.0,1.0,0.0
1569,70.0,120.0,240.0,2.0,0.0
1570,66.0,0.0,120.0,2.0,0.0
1571,46.0,0.0,240.0,5.0,0.0
1572,53.0,0.0,120.0,4.0,0.0
1573,65.0,0.0,120.0,2.0,0.0
1574,46.0,0.0,240.0,5.0,0.0
1575,70.0,0.0,240.0,2.0,0.0
1576,64.0,120.0,120.0,2.0,0.0
1577,52.0,0.0,120.0,4.0,0.0
1578,53.0,0.0,120.0,4.0,0.0
1579,65.0,120.0,120.0,2.0,0.0
1580,46.0,0.0,240.0,5.0,0.0
1581,74.0,0.0,15.0,1.0,0.0
1582,54.0,120.0,120.0,4.0,0.0
1583,66.0,0.0,120.0,2.0,0.0
1584,70.0,0.0,240.0,2.0,0.0
1585,65.0,120.0,120.0,2.0,0.0
1586,53.0,0.0,120.0,4.0,0.0
1587,75.0,0.0,240.0,1.0,0.0
1588,45.0,0.0,240.0,5.0,0.0
1589,55.0,120.0,120.0,4.0,0.0
1590,72.0,0.0,240.0,2.0,0.0
1591,67.0,0.0,120.0,2.0,0.0
1592,53.0,0.0,120.0,4.0,0.0
1593,65.0,120.0,120.0,2.0,0.0
1594,74.0,120.0,240.0,1.0,0.0
1595,46.0,0.0,240.0,5.0,0.0
1596,52.0,120.0,120.0,4.0,0.0
1597,64.0,0.0,120.0,2.0,0.0
1598,70.0,0.0,240.0,2.0,0.0
1599,65.0,0.0,120.0,2.0,0.0
1600,53.0,0.0,120.0,4.0,0.0
1601,59.0,120.0,240.0,2.0,0.0
1602,67.0,0.0,120.0,2.0,0.0
1603,50.0,0.0,240.0,5.0,0.0
1604,55.0,120.0,120.0,4.0,0.0
1605,71.0,0.0,240.0,1.0,0.0
1606,65.0,0.0,120.0,2.0,0.0
1607,72.0,120.0,240.0,1.0,0.0
1608,57.0,120.0,120.0,2.0,0.0
1609,60.0,0.0,240.0,2.0,0.0
1610,69.0,0.0,120.0,2.0,0.0
1611,48.0,0.0,240.0,5.0,0.0
1612,53.0,0.0,15.0,4.0,0.0
1613,65.0,0.0,120.0,2.0,0.0
1614,55.0,0.0,120.0,4.0,0.0
1615,48.0,0.0,480.0,5.0,0.0
1616,58.0,0.0,480.0,2.0,0.0
1617,64.0,120.0,120.0,2.0,0.0
1618,70.0,240.0,480.0,1.0,0.0
1619,62.0,0.0,120.0,2.0,0.0
1620,53.0,120.0,120.0,4.0,0.0
1621,60.0,0.0,120.0,2.0,0.0
1622,52.0,120.0,120.0,4.0,0.0
1623,64.0,0.0,120.0,2.0,0.0
1624,41.0,3.0,360.0,5.0,0.0
1625,69.0,101.0,360.0,1.0,0.0
1626,57.0,0.0,360.0,2.0,0.0
1627,67.0,120.0,120.0,2.0,0.0
1628,65.0,4.0,120.0,2.0,0.0
1629,65.0,0.0,40.0,1.0,0.0
1630,53.0,108.0,40.0,5.0,0.0
1631,77.0,0.0,40.0,1.0,0.0
1632,76.0,0.0,90.0,1.0,0.0
1633,64.0,0.0,90.0,1.0,0.0
1634,52.0,132.0,90.0,5.0,0.0
1635,76.0,0.0,40.0,1.0,0.0
1636,64.0,192.0,40.0,1.0,0.0
1637,52.0,0.0,40.0,5.0,0.0
1638,50.0,60.0,180.0,5.0,0.0
1639,74.0,0.0,240.0,1.0,0.0
1640,62.0,60.0,240.0,1.0,0.0
1641,44.0,0.0,60.0,5.0,0.0
1642,69.0,0.0,240.0,1.0,0.0
1643,45.0,60.0,60.0,5.0,0.0
1644,49.0,60.0,60.0,3.0,0.0
1645,57.0,60.0,60.0,3.0,0.0
1646,45.0,60.0,60.0,5.0,0.0
1647,46.0,60.0,60.0,5.0,0.0
1648,50.0,60.0,60.0,3.0,0.0
1649,58.0,60.0,60.0,3.0,0.0
1650,81.0,60.0,60.0,1.0,0.0
1651,80.0,60.0,60.0,1.0,0.0
1652,77.0,60.0,60.0,3.0,0.0
1653,68.0,60.0,60.0,3.0,0.0
1654,80.0,0.0,60.0,1.0,0.0
1655,58.0,60.0,60.0,5.0,0.0
1656,79.0,0.0,60.0,1.0,0.0
1657,59.0,60.0,60.0,5.0,0.0
1658,62.0,60.0,60.0,3.0,0.0
1659,77.0,0.0,60.0,3.0,0.0
1660,67.0,60.0,60.0,3.0,0.0
1661,71.0,0.0,60.0,3.0,0.0
1662,59.0,60.0,60.0,5.0,0.0
1663,60.0,60.0,60.0,5.0,0.0
1664,64.0,60.0,60.0,3.0,0.0
1665,72.0,60.0,60.0,3.0,0.0
1666,84.0,60.0,60.0,1.0,0.0
1667,82.0,60.0,60.0,1.0,0.0
1668,79.0,60.0,60.0,3.0,0.0
1669,70.0,60.0,60.0,3.0,0.0
1670,48.0,60.0,60.0,5.0,0.0
1671,82.0,0.0,60.0,1.0,0.0
1672,49.0,60.0,60.0,5.0,0.0
1673,81.0,0.0,60.0,1.0,0.0
1674,52.0,0.0,60.0,3.0,0.0
1675,79.0,60.0,60.0,3.0,0.0
1676,69.0,60.0,60.0,3.0,0.0
1677,61.0,0.0,60.0,3.0,0.0
1678,49.0,60.0,60.0,5.0,0.0
1679,50.0,60.0,60.0,5.0,0.0
1680,54.0,60.0,60.0,3.0,0.0
1681,62.0,60.0,60.0,3.0,0.0
1682,86.0,60.0,60.0,1.0,0.0
1683,84.0,60.0,60.0,1.0,0.0
1684,81.0,0.0,60.0,3.0,0.0
1685,62.0,60.0,60.0,5.0,0.0
1686,72.0,0.0,60.0,3.0,0.0
1687,63.0,60.0,60.0,5.0,0.0
1688,66.0,60.0,60.0,3.0,0.0
1689,75.0,60.0,60.0,3.0,0.0
1690,86.0,0.0,60.0,1.0,0.0
1691,63.0,60.0,60.0,5.0,0.0
1692,64.0,0.0,60.0,5.0,0.0
1693,84.0,60.0,60.0,1.0,0.0
1694,69.0,0.0,60.0,3.0,0.0
1695,81.0,60.0,60.0,3.0,0.0
1696,72.0,60.0,60.0,3.0,0.0
1697,76.0,0.0,60.0,3.0,0.0
1698,64.0,60.0,60.0,5.0,0.0
1699,65.0,60.0,60.0,5.0,0.0
1700,69.0,0.0,60.0,3.0,0.0
1701,86.0,60.0,60.0,1.0,0.0
1702,77.0,0.0,60.0,5.0,0.0
1703,84.0,60.0,60.0,1.0,0.0
1704,81.0,60.0,60.0,3.0,0.0
1705,75.0,60.0,60.0,3.0,0.0
1706,74.0,60.0,60.0,5.0,0.0
1707,72.0,60.0,60.0,5.0,0.0
1708,69.0,60.0,60.0,5.0,0.0
1709,63.0,60.0,60.0,5.0,0.0
1710,62.0,60.0,60.0,1.0,0.0
1711,60.0,60.0,60.0,5.0,0.0
1712,57.0,60.0,60.0,5.0,0.0
1713,51.0,60.0,60.0,5.0,0.0
1714,40.0,60.0,60.0,1.0,0.0
1715,41.0,60.0,60.0,5.0,0.0
1716,48.0,60.0,60.0,5.0,0.0
1717,51.0,60.0,60.0,5.0,0.0
1718,52.0,60.0,60.0,1.0,0.0
1719,53.0,60.0,60.0,5.0,0.0
1720,60.0,60.0,60.0,5.0,0.0
1721,63.0,60.0,60.0,5.0,0.0
1722,64.0,60.0,60.0,1.0,0.0
1723,65.0,60.0,60.0,5.0,0.0
1724,72.0,60.0,60.0,5.0,0.0
1725,75.0,60.0,60.0,5.0,0.0
1726,84.0,60.0,60.0,1.0,0.0
1727,83.0,60.0,60.0,1.0,0.0
1728,80.0,60.0,60.0,5.0,0.0
1729,74.0,60.0,60.0,5.0,0.0
1730,72.0,60.0,60.0,1.0,0.0
1731,71.0,60.0,60.0,5.0,0.0
1732,68.0,60.0,60.0,5.0,0.0
1733,62.0,60.0,60.0,5.0,0.0
1734,60.0,60.0,60.0,1.0,0.0
1735,59.0,60.0,60.0,5.0,0.0
1736,56.0,60.0,60.0,5.0,0.0
1737,50.0,60.0,60.0,5.0,0.0
1738,39.0,60.0,60.0,1.0,0.0
1739,40.0,60.0,60.0,5.0,0.0
1740,47.0,60.0,60.0,5.0,0.0
1741,50.0,60.0,60.0,5.0,0.0
1742,51.0,60.0,60.0,1.0,0.0
1743,52.0,60.0,60.0,5.0,0.0
1744,59.0,60.0,60.0,5.0,0.0
1745,62.0,60.0,60.0,5.0,0.0
1746,63.0,60.0,60.0,1.0,0.0
1747,64.0,60.0,60.0,5.0,0.0
1748,71.0,60.0,60.0,5.0,0.0
1749,74.0,60.0,60.0,5.0,0.0
1750,86.0,0.0,240.0,2.0,0.0
1751,83.0,0.0,240.0,2.0,0.0
1752,89.0,120.0,120.0,1.0,0.0
1753,80.0,0.0,240.0,2.0,0.0
1754,88.0,120.0,120.0,1.0,0.0
1755,68.0,0.0,210.0,4.0,0.0
1756,63.0,78.0,120.0,5.0,0.0
1757,71.0,0.0,210.0,4.0,0.0
1758,64.0,162.0,90.0,5.0,0.0
1759,74.0,0.0,210.0,2.0,0.0
1760,67.0,0.0,210.0,2.0,0.0
1761,70.0,0.0,210.0,2.0,0.0
1762,77.0,78.0,120.0,1.0,0.0
1763,76.0,162.0,90.0,1.0,0.0
1764,55.0,0.0,210.0,4.0,0.0
1765,58.0,0.0,210.0,4.0,0.0
1766,51.0,78.0,120.0,5.0,0.0
1767,52.0,162.0,90.0,5.0,0.0
1768,57.0,0.0,480.0,2.0,0.0
1769,61.0,0.0,480.0,2.0,0.0
1770,55.0,0.0,480.0,2.0,0.0
1771,65.0,240.0,120.0,1.0,0.0
1772,64.0,60.0,360.0,1.0,0.0
1773,32.0,120.0,120.0,5.0,0.0
1774,33.0,60.0,180.0,5.0,0.0
1775,45.0,60.0,60.0,5.0,0.0
1776,49.0,60.0,60.0,5.0,0.0
1777,52.0,60.0,60.0,5.0,0.0
1778,55.0,0.0,60.0,5.0,0.0
1779,89.0,60.0,60.0,1.0,0.0
1780,58.0,0.0,60.0,5.0,0.0
1781,79.0,60.0,60.0,3.0,0.0
1782,61.0,0.0,60.0,5.0,0.0
1783,88.0,60.0,60.0,1.0,0.0
1784,64.0,60.0,60.0,5.0,0.0
1785,82.0,0.0,60.0,3.0,0.0
1786,70.0,60.0,60.0,5.0,0.0
1787,86.0,0.0,60.0,1.0,0.0
1788,67.0,60.0,60.0,5.0,0.0
1789,76.0,0.0,60.0,3.0,0.0
1790,58.0,0.0,60.0,5.0,0.0
1791,85.0,60.0,60.0,1.0,0.0
1792,79.0,0.0,60.0,3.0,0.0
1793,61.0,60.0,60.0,5.0,0.0
1794,84.0,60.0,60.0,1.0,0.0
1795,67.0,0.0,60.0,5.0,0.0
1796,64.0,0.0,60.0,5.0,0.0
1797,73.0,60.0,60.0,3.0,0.0
1798,55.0,60.0,60.0,5.0,0.0
1799,82.0,0.0,60.0,1.0,0.0
1800,58.0,0.0,60.0,5.0,0.0
1801,76.0,60.0,60.0,3.0,0.0
1802,64.0,60.0,60.0,5.0,0.0
1803,81.0,0.0,60.0,1.0,0.0
1804,70.0,0.0,60.0,3.0,0.0
1805,61.0,60.0,60.0,5.0,0.0
1806,79.0,0.0,60.0,1.0,0.0
1807,52.0,60.0,60.0,5.0,0.0
1808,55.0,60.0,60.0,5.0,0.0
1809,73.0,0.0,60.0,3.0,0.0
1810,61.0,60.0,60.0,5.0,0.0
1811,58.0,60.0,60.0,5.0,0.0
1812,55.0,60.0,60.0,5.0,0.0
1813,52.0,60.0,60.0,5.0,0.0
1814,49.0,0.0,60.0,5.0,0.0
1815,77.0,60.0,60.0,1.0,0.0
1816,46.0,0.0,60.0,5.0,0.0
1817,67.0,60.0,60.0,3.0,0.0
1818,43.0,0.0,60.0,5.0,0.0
1819,76.0,60.0,60.0,1.0,0.0
1820,70.0,60.0,60.0,3.0,0.0
1821,49.0,0.0,60.0,3.0,0.0
1822,58.0,240.0,60.0,3.0,0.0
1823,43.0,0.0,60.0,5.0,0.0
1824,77.0,60.0,60.0,1.0,0.0
1825,69.0,0.0,60.0,3.0,0.0
1826,48.0,60.0,60.0,3.0,0.0
1827,75.0,60.0,60.0,1.0,0.0
1828,57.0,0.0,60.0,3.0,0.0
1829,72.0,60.0,60.0,3.0,0.0
1830,63.0,60.0,60.0,3.0,0.0
1831,75.0,60.0,60.0,1.0,0.0
1832,74.0,60.0,60.0,1.0,0.0
1833,42.0,0.0,60.0,5.0,0.0
1834,72.0,60.0,60.0,3.0,0.0
1835,62.0,60.0,60.0,3.0,0.0
1836,56.0,60.0,60.0,3.0,0.0
1837,57.0,60.0,60.0,3.0,0.0
1838,60.0,60.0,60.0,3.0,0.0
1839,69.0,60.0,60.0,3.0,0.0
1840,74.0,60.0,60.0,1.0,0.0
1841,75.0,0.0,60.0,1.0,0.0
1842,43.0,60.0,60.0,5.0,0.0
1843,72.0,60.0,60.0,3.0,0.0
1844,63.0,60.0,60.0,3.0,0.0
1845,75.0,60.0,60.0,1.0,0.0
1846,42.0,0.0,60.0,5.0,0.0
1847,81.0,60.0,60.0,1.0,0.0
1848,72.0,60.0,60.0,3.0,0.0
1849,69.0,60.0,60.0,3.0,0.0
1850,61.0,60.0,60.0,3.0,0.0
1851,62.0,60.0,60.0,3.0,0.0
1852,69.0,60.0,60.0,3.0,0.0
1853,74.0,60.0,60.0,3.0,0.0
1854,81.0,60.0,60.0,1.0,0.0
1855,84.0,60.0,60.0,1.0,0.0
1856,38.0,0.0,60.0,5.0,0.0
1857,78.0,60.0,60.0,3.0,0.0
1858,72.0,60.0,60.0,3.0,0.0
1859,84.0,60.0,60.0,1.0,0.0
1860,82.0,0.0,60.0,1.0,0.0
1861,43.0,60.0,60.0,5.0,0.0
1862,79.0,60.0,60.0,3.0,0.0
1863,70.0,60.0,60.0,3.0,0.0
1864,61.0,60.0,60.0,3.0,0.0
1865,62.0,60.0,60.0,3.0,0.0
1866,65.0,60.0,60.0,3.0,0.0
1867,74.0,60.0,60.0,3.0,0.0
1868,77.0,60.0,60.0,1.0,0.0
1869,36.0,60.0,60.0,5.0,0.0
1870,82.0,0.0,60.0,1.0,0.0
1871,76.0,60.0,60.0,3.0,0.0
1872,70.0,60.0,60.0,3.0,0.0
1873,82.0,60.0,60.0,1.0,0.0
1874,41.0,60.0,60.0,5.0,0.0
1875,81.0,0.0,60.0,1.0,0.0
1876,76.0,60.0,60.0,3.0,0.0
1877,69.0,60.0,60.0,3.0,0.0
1878,59.0,60.0,60.0,3.0,0.0
1879,60.0,60.0,60.0,3.0,0.0
1880,64.0,60.0,60.0,3.0,0.0
1881,72.0,60.0,60.0,3.0,0.0
1882,76.0,60.0,60.0,1.0,0.0
1883,34.0,60.0,60.0,5.0,0.0
1884,81.0,0.0,60.0,1.0,0.0
1885,74.0,60.0,60.0,3.0,0.0
1886,69.0,60.0,60.0,3.0,0.0
1887,81.0,60.0,60.0,1.0,0.0
1888,40.0,0.0,60.0,5.0,0.0
1889,79.0,60.0,60.0,1.0,0.0
1890,74.0,60.0,60.0,3.0,0.0
1891,67.0,60.0,60.0,3.0,0.0
1892,77.0,60.0,60.0,1.0,0.0
1893,76.0,0.0,60.0,1.0,0.0
1894,43.0,60.0,60.0,5.0,0.0
1895,70.0,60.0,60.0,3.0,0.0
1896,64.0,60.0,60.0,3.0,0.0
1897,57.0,60.0,60.0,3.0,0.0
1898,58.0,60.0,60.0,3.0,0.0
1899,62.0,60.0,60.0,3.0,0.0
1900,70.0,60.0,60.0,3.0,0.0
1901,81.0,60.0,60.0,1.0,0.0
1902,79.0,60.0,60.0,1.0,0.0
1903,33.0,0.0,60.0,5.0,0.0
1904,73.0,60.0,60.0,3.0,0.0
1905,67.0,60.0,60.0,3.0,0.0
1906,77.0,60.0,60.0,1.0,0.0
1907,45.0,60.0,60.0,5.0,0.0
1908,76.0,0.0,60.0,1.0,0.0
1909,73.0,60.0,60.0,3.0,0.0
1910,67.0,60.0,60.0,3.0,0.0
1911,56.0,60.0,60.0,3.0,0.0
1912,57.0,60.0,60.0,3.0,0.0
1913,61.0,60.0,60.0,3.0,0.0
1914,69.0,60.0,60.0,3.0,0.0
1915,82.0,120.0,60.0,1.0,0.0
1916,81.0,0.0,240.0,1.0,0.0
1917,76.0,60.0,60.0,3.0,0.0
1918,73.0,60.0,60.0,3.0,0.0
1919,69.0,120.0,60.0,5.0,0.0
1920,80.0,5.0,240.0,1.0,0.0
1921,76.0,60.0,60.0,3.0,0.0
1922,73.0,55.0,60.0,3.0,0.0
1923,69.0,120.0,60.0,5.0,0.0
1924,79.0,5.0,240.0,1.0,0.0
1925,76.0,60.0,60.0,3.0,0.0
1926,73.0,55.0,60.0,3.0,0.0
1927,69.0,120.0,60.0,5.0,0.0
1928,77.0,60.0,240.0,1.0,0.0
1929,73.0,60.0,60.0,5.0,0.0
1930,70.0,60.0,60.0,5.0,0.0
1931,65.0,0.0,60.0,5.0,0.0
1932,61.0,60.0,60.0,5.0,0.0
1933,58.0,60.0,60.0,5.0,0.0
1934,53.0,60.0,60.0,5.0,0.0
1935,49.0,60.0,60.0,5.0,0.0
1936,46.0,60.0,60.0,5.0,0.0
1937,41.0,60.0,60.0,5.0,0.0
1938,37.0,60.0,60.0,5.0,0.0
1939,34.0,120.0,60.0,5.0,0.0
1940,31.0,0.0,120.0,5.0,0.0
1941,89.0,60.0,60.0,1.0,0.0
1942,87.0,60.0,60.0,1.0,0.0
1943,43.0,0.0,60.0,3.0,0.0
1944,85.0,60.0,60.0,1.0,0.0
1945,46.0,0.0,60.0,3.0,0.0
1946,49.0,60.0,60.0,3.0,0.0
1947,84.0,0.0,60.0,1.0,0.0
1948,82.0,0.0,60.0,1.0,0.0
1949,55.0,60.0,60.0,3.0,0.0
1950,79.0,60.0,60.0,1.0,0.0
1951,77.0,60.0,60.0,1.0,0.0
1952,43.0,60.0,60.0,5.0,0.0
1953,76.0,0.0,60.0,1.0,0.0
1954,71.0,60.0,60.0,3.0,0.0
1955,64.0,60.0,60.0,3.0,0.0
1956,76.0,60.0,60.0,1.0,0.0
1957,74.0,0.0,60.0,1.0,0.0
1958,41.0,60.0,60.0,5.0,0.0
1959,69.0,60.0,60.0,3.0,0.0
1960,62.0,60.0,60.0,3.0,0.0
1961,56.0,60.0,60.0,3.0,0.0
1962,57.0,60.0,60.0,3.0,0.0
1963,62.0,60.0,60.0,3.0,0.0
1964,69.0,60.0,60.0,3.0,0.0
1965,74.0,60.0,60.0,1.0,0.0
1966,77.0,0.0,60.0,1.0,0.0
1967,41.0,60.0,60.0,5.0,0.0
1968,70.0,60.0,60.0,3.0,0.0
1969,62.0,60.0,60.0,3.0,0.0
1970,77.0,60.0,60.0,1.0,0.0
1971,43.0,0.0,60.0,5.0,0.0
1972,82.0,60.0,60.0,1.0,0.0
1973,75.0,60.0,60.0,3.0,0.0
1974,70.0,60.0,60.0,3.0,0.0
1975,57.0,60.0,60.0,3.0,0.0
1976,58.0,60.0,60.0,3.0,0.0
1977,63.0,60.0,60.0,3.0,0.0
1978,70.0,60.0,60.0,3.0,0.0
1979,79.0,60.0,60.0,1.0,0.0
1980,44.0,60.0,60.0,5.0,0.0
1981,77.0,0.0,60.0,1.0,0.0
1982,71.0,60.0,60.0,3.0,0.0
1983,62.0,60.0,60.0,3.0,0.0
1984,77.0,60.0,60.0,1.0,0.0
1985,43.0,60.0,60.0,5.0,0.0
1986,75.0,0.0,60.0,1.0,0.0
1987,70.0,60.0,60.0,3.0,0.0
1988,63.0,60.0,60.0,3.0,0.0
1989,57.0,60.0,60.0,3.0,0.0
1990,58.0,60.0,60.0,3.0,0.0
1991,63.0,60.0,60.0,3.0,0.0
1992,70.0,60.0,60.0,3.0,0.0
1993,75.0,60.0,60.0,1.0,0.0
1994,46.0,0.0,60.0,5.0,0.0
1995,79.0,0.0,60.0,1.0,0.0
1996,76.0,60.0,60.0,3.0,0.0
1997,72.0,60.0,60.0,3.0,0.0
1998,64.0,60.0,60.0,3.0,0.0
1999,79.0,60.0,60.0,1.0,0.0
2000,45.0,0.0,60.0,5.0,0.0
2001,84.0,60.0,60.0,1.0,0.0
2002,77.0,60.0,60.0,3.0,0.0
2003,72.0,60.0,60.0,3.0,0.0
2004,59.0,60.0,60.0,3.0,0.0
2005,60.0,60.0,60.0,3.0,0.0
2006,65.0,60.0,60.0,3.0,0.0
2007,72.0,60.0,60.0,3.0,0.0
2008,77.0,60.0,60.0,1.0,0.0
2009,44.0,0.0,60.0,5.0,0.0
2010,84.0,60.0,60.0,1.0,0.0
2011,77.0,60.0,60.0,3.0,0.0
2012,72.0,60.0,60.0,3.0,0.0
2013,84.0,60.0,60.0,1.0,0.0
2014,89.0,60.0,60.0,1.0,0.0
2015,43.0,0.0,60.0,5.0,0.0
2016,83.0,60.0,60.0,3.0,0.0
2017,77.0,60.0,60.0,3.0,0.0
2018,61.0,60.0,60.0,3.0,0.0
2019,62.0,60.0,60.0,3.0,0.0
2020,65.0,60.0,60.0,3.0,0.0
2021,74.0,60.0,60.0,3.0,0.0
2022,77.0,60.0,60.0,1.0,0.0
2023,42.0,0.0,60.0,5.0,0.0
2024,82.0,60.0,60.0,1.0,0.0
2025,76.0,60.0,60.0,3.0,0.0
2026,70.0,60.0,60.0,3.0,0.0
2027,82.0,60.0,60.0,1.0,0.0
2028,41.0,0.0,60.0,5.0,0.0
2029,87.0,60.0,60.0,1.0,0.0
2030,81.0,60.0,60.0,3.0,0.0
2031,75.0,60.0,60.0,3.0,0.0
2032,59.0,60.0,60.0,3.0,0.0
2033,60.0,60.0,60.0,3.0,0.0
2034,63.0,60.0,60.0,3.0,0.0
2035,72.0,60.0,60.0,3.0,0.0
2036,78.0,60.0,60.0,1.0,0.0
2037,40.0,0.0,60.0,5.0,0.0
2038,80.0,60.0,60.0,1.0,0.0
2039,74.0,60.0,60.0,3.0,0.0
2040,68.0,60.0,60.0,3.0,0.0
2041,80.0,60.0,60.0,1.0,0.0
2042,39.0,60.0,60.0,5.0,0.0
2043,85.0,0.0,60.0,1.0,0.0
2044,79.0,60.0,60.0,3.0,0.0
2045,73.0,60.0,60.0,3.0,0.0
2046,63.0,60.0,60.0,5.0,0.0
2047,82.0,60.0,60.0,1.0,0.0
2048,79.0,60.0,60.0,3.0,0.0
2049,73.0,60.0,60.0,3.0,0.0
2050,51.0,60.0,60.0,5.0,0.0
2051,79.0,60.0,60.0,1.0,0.0
2052,73.0,60.0,60.0,3.0,0.0
2053,70.0,60.0,60.0,3.0,0.0
2054,39.0,60.0,60.0,5.0,0.0
2055,73.0,60.0,60.0,1.0,0.0
2056,67.0,60.0,60.0,3.0,0.0
2057,61.0,60.0,60.0,3.0,0.0
2058,51.0,60.0,60.0,5.0,0.0
2059,72.0,60.0,60.0,1.0,0.0
2060,67.0,60.0,60.0,3.0,0.0
2061,61.0,60.0,60.0,3.0,0.0
2062,39.0,60.0,60.0,5.0,0.0
2063,70.0,60.0,60.0,1.0,0.0
2064,67.0,60.0,60.0,3.0,0.0
2065,61.0,60.0,60.0,3.0,0.0
2066,51.0,60.0,60.0,5.0,0.0
2067,61.0,0.0,270.0,1.0,0.0
2068,69.0,57.0,270.0,1.0,0.0
2069,67.0,0.0,270.0,1.0,0.0
2070,45.0,0.0,60.0,4.0,0.0
2071,52.0,60.0,60.0,5.0,0.0
2072,91.0,0.0,60.0,1.0,0.0
2073,40.0,0.0,60.0,5.0,0.0
2074,85.0,60.0,60.0,3.0,0.0
2075,79.0,60.0,60.0,3.0,0.0
2076,69.0,3.0,60.0,4.0,0.0
2077,64.0,0.0,60.0,5.0,0.0
2078,84.0,60.0,60.0,1.0,0.0
2079,79.0,60.0,60.0,3.0,0.0
2080,73.0,60.0,60.0,3.0,0.0
2081,57.0,60.0,60.0,5.0,0.0
2082,64.0,0.0,60.0,4.0,0.0
2083,79.0,60.0,60.0,1.0,0.0
2084,73.0,60.0,60.0,3.0,0.0
2085,67.0,60.0,60.0,3.0,0.0
2086,52.0,0.0,60.0,5.0,0.0
2087,57.0,60.0,60.0,4.0,0.0
2088,73.0,60.0,60.0,1.0,0.0
2089,67.0,60.0,60.0,3.0,0.0
2090,61.0,60.0,60.0,3.0,0.0
2091,45.0,0.0,240.0,5.0,0.0
2092,52.0,60.0,60.0,4.0,0.0
2093,72.0,60.0,60.0,1.0,0.0
2094,67.0,60.0,60.0,3.0,0.0
2095,61.0,120.0,60.0,3.0,0.0
2096,33.0,0.0,240.0,5.0,0.0
2097,70.0,60.0,60.0,1.0,0.0
2098,67.0,60.0,60.0,3.0,0.0
2099,61.0,60.0,60.0,3.0,0.0
2100,52.0,60.0,60.0,4.0,0.0
2101,45.0,120.0,240.0,5.0,0.0
2102,69.0,60.0,60.0,1.0,0.0
2103,64.0,60.0,60.0,3.0,0.0
2104,61.0,0.0,60.0,3.0,0.0
2105,33.0,0.0,240.0,5.0,0.0
2106,68.0,60.0,60.0,1.0,0.0
2107,64.0,60.0,60.0,3.0,0.0
2108,61.0,60.0,60.0,3.0,0.0
2109,52.0,146.0,60.0,4.0,0.0
2110,45.0,37.0,240.0,5.0,0.0
2111,67.0,239.0,240.0,1.0,0.0
2112,64.0,34.0,60.0,3.0,0.0
2113,61.0,24.0,60.0,3.0,0.0
2114,33.0,240.0,240.0,5.0,0.0
2115,61.0,0.0,240.0,2.0,0.0
2116,45.0,3.0,240.0,5.0,0.0
2117,66.0,117.0,120.0,1.0,0.0
2118,55.0,0.0,120.0,4.0,0.0
2119,55.0,0.0,120.0,4.0,0.0
2120,61.0,0.0,120.0,2.0,0.0
2121,57.0,0.0,15.0,2.0,0.0
2122,45.0,120.0,240.0,5.0,0.0
2123,64.0,120.0,15.0,1.0,0.0
2124,62.0,0.0,360.0,1.0,0.0
2125,54.0,120.0,1080.0,4.0,0.0
2126,44.0,120.0,120.0,5.0,0.0
2127,45.0,3.0,840.0,5.0,0.0
2128,80.0,120.0,120.0,1.0,0.0
2129,81.0,120.0,120.0,1.0,0.0
2130,78.0,120.0,120.0,1.0,0.0
2131,74.0,120.0,120.0,1.0,0.0
2132,69.0,117.0,120.0,1.0,0.0
2133,66.0,0.0,120.0,1.0,0.0
2134,69.0,5.0,120.0,1.0,0.0
2135,60.0,0.0,120.0,2.0,0.0
2136,65.0,109.0,120.0,2.0,0.0
2137,45.0,6.0,240.0,5.0,0.0
2138,61.0,0.0,120.0,2.0,0.0
2139,64.0,0.0,120.0,2.0,0.0
2140,61.0,0.0,120.0,2.0,0.0
2141,58.0,120.0,15.0,4.0,0.0
2142,67.0,0.0,15.0,1.0,0.0
2143,45.0,120.0,240.0,5.0,0.0
2144,64.0,0.0,120.0,2.0,0.0
2145,65.0,3.0,360.0,1.0,0.0
2146,57.0,3.0,1080.0,4.0,0.0
2147,60.0,120.0,360.0,2.0,0.0
2148,44.0,117.0,120.0,5.0,0.0
2149,45.0,6.0,840.0,5.0,0.0
2150,83.0,120.0,120.0,1.0,0.0
2151,84.0,120.0,120.0,1.0,0.0
2152,81.0,120.0,120.0,1.0,0.0
2153,77.0,120.0,120.0,1.0,0.0
2154,72.0,111.0,120.0,1.0,0.0
2155,69.0,120.0,120.0,1.0,0.0
2156,45.0,9.0,240.0,5.0,0.0
2157,77.0,111.0,120.0,1.0,0.0
2158,64.0,0.0,240.0,2.0,0.0
2159,55.0,0.0,240.0,4.0,0.0
2160,70.0,3.0,240.0,2.0,0.0
2161,61.0,3.0,240.0,2.0,0.0
2162,45.0,120.0,240.0,5.0,0.0
2163,76.0,114.0,15.0,1.0,0.0
2164,74.0,117.0,360.0,1.0,0.0
2165,57.0,3.0,480.0,4.0,0.0
2166,54.0,0.0,480.0,4.0,0.0
2167,69.0,0.0,480.0,2.0,0.0
2168,62.0,3.0,480.0,2.0,0.0
2169,44.0,117.0,120.0,5.0,0.0
2170,45.0,117.0,600.0,5.0,0.0
2171,74.0,120.0,120.0,1.0,0.0
2172,53.0,3.0,240.0,4.0,0.0
2173,63.0,0.0,240.0,2.0,0.0
2174,75.0,117.0,120.0,1.0,0.0
2175,57.0,123.0,240.0,4.0,0.0
2176,69.0,0.0,240.0,2.0,0.0
2177,75.0,0.0,120.0,1.0,0.0
2178,76.0,120.0,360.0,1.0,0.0
2179,64.0,3.0,480.0,2.0,0.0
2180,52.0,0.0,480.0,4.0,0.0
2181,68.0,3.0,480.0,2.0,0.0
2182,59.0,0.0,480.0,4.0,0.0
2183,44.0,114.0,120.0,5.0,0.0
2184,45.0,123.0,600.0,5.0,0.0
2185,76.0,120.0,120.0,1.0,0.0
2186,74.0,117.0,120.0,1.0,0.0
2187,52.0,0.0,240.0,4.0,0.0
2188,59.0,3.0,240.0,4.0,0.0
2189,62.0,0.0,240.0,2.0,0.0
2190,67.0,0.0,240.0,2.0,0.0
2191,74.0,117.0,120.0,1.0,0.0
2192,57.0,0.0,480.0,4.0,0.0
2193,60.0,3.0,480.0,2.0,0.0
2194,69.0,3.0,480.0,2.0,0.0
2195,53.0,120.0,480.0,4.0,0.0
2196,72.0,120.0,360.0,1.0,0.0
2197,44.0,114.0,120.0,5.0,0.0
2198,45.0,117.0,600.0,5.0,0.0
2199,72.0,0.0,120.0,1.0,0.0
2200,67.0,3.0,240.0,2.0,0.0
2201,61.0,3.0,240.0,2.0,0.0
2202,51.0,0.0,240.0,4.0,0.0
2203,57.0,3.0,240.0,4.0,0.0
2204,73.0,111.0,15.0,1.0,0.0
2205,50.0,120.0,480.0,4.0,0.0
2206,74.0,114.0,360.0,1.0,0.0
2207,57.0,3.0,480.0,4.0,0.0
2208,66.0,3.0,480.0,2.0,0.0
2209,62.0,6.0,360.0,2.0,0.0
2210,44.0,114.0,120.0,5.0,0.0
2211,45.0,120.0,600.0,5.0,0.0
2212,62.0,0.0,120.0,1.0,0.0
2213,65.0,120.0,120.0,1.0,0.0
2214,50.0,0.0,240.0,4.0,0.0
2215,65.0,0.0,120.0,1.0,0.0
2216,57.0,120.0,15.0,4.0,0.0
2217,52.0,0.0,360.0,4.0,0.0
2218,64.0,0.0,360.0,2.0,0.0
2219,62.0,0.0,15.0,2.0,0.0
2220,69.0,240.0,360.0,1.0,0.0
2221,44.0,114.0,120.0,5.0,0.0
2222,45.0,240.0,480.0,5.0,0.0
2223,57.0,120.0,240.0,4.0,0.0
2224,64.0,0.0,120.0,1.0,0.0
2225,64.0,0.0,120.0,1.0,0.0
2226,67.0,0.0,240.0,1.0,0.0
2227,33.0,120.0,720.0,5.0,0.0
2228,61.0,240.0,240.0,2.0,0.0
2229,58.0,0.0,240.0,2.0,0.0
2230,57.0,240.0,240.0,2.0,0.0
2231,60.0,0.0,240.0,2.0,0.0
2232,65.0,0.0,240.0,1.0,0.0
2233,64.0,0.0,720.0,1.0,0.0
2234,55.0,120.0,720.0,2.0,0.0
2235,60.0,0.0,720.0,2.0,0.0
2236,26.0,120.0,120.0,5.0,0.0
2237,38.0,120.0,120.0,4.0,0.0
2238,45.0,120.0,120.0,4.0,0.0
2239,50.0,0.0,120.0,4.0,0.0
2240,53.0,120.0,120.0,4.0,0.0
2241,62.0,120.0,240.0,1.0,0.0
2242,57.0,0.0,120.0,4.0,0.0
2243,50.0,0.0,480.0,5.0,0.0
2244,53.0,120.0,480.0,4.0,0.0
2245,62.0,120.0,120.0,1.0,0.0
2246,65.0,120.0,120.0,1.0,0.0
2247,69.0,120.0,120.0,1.0,0.0
2248,74.0,0.0,120.0,1.0,0.0
2249,77.0,120.0,120.0,1.0,0.0
2250,93.0,1440.0,120.0,1.0,0.0
2251,81.0,0.0,120.0,2.0,0.0
2252,98.0,0.0,1440.0,1.0,0.0
2253,53.0,0.0,1440.0,4.0,0.0
2254,38.0,0.0,15.0,5.0,0.0
2255,86.0,1560.0,1440.0,2.0,0.0
2256,45.0,0.0,1440.0,4.0,0.0
2257,65.0,0.0,120.0,1.0,0.0
2258,41.0,0.0,120.0,5.0,0.0
2259,53.0,120.0,120.0,4.0,0.0
2260,67.0,240.0,120.0,1.0,0.0
2261,43.0,0.0,120.0,5.0,0.0
2262,55.0,0.0,120.0,4.0,0.0
2263,68.0,0.0,240.0,1.0,0.0
2264,44.0,0.0,240.0,5.0,0.0
2265,56.0,120.0,240.0,4.0,0.0
2266,55.0,0.0,120.0,4.0,0.0
2267,43.0,0.0,120.0,5.0,0.0
2268,67.0,120.0,120.0,1.0,0.0
2269,56.0,0.0,120.0,4.0,0.0
2270,44.0,240.0,120.0,5.0,0.0
2271,68.0,0.0,120.0,1.0,0.0
2272,55.0,0.0,240.0,4.0,0.0
2273,43.0,0.0,240.0,5.0,0.0
2274,67.0,120.0,240.0,1.0,0.0
2275,41.0,0.0,120.0,5.0,0.0
2276,65.0,120.0,120.0,1.0,0.0
2277,53.0,0.0,120.0,4.0,0.0
2278,55.0,120.0,120.0,4.0,0.0
2279,43.0,0.0,120.0,5.0,0.0
2280,67.0,0.0,120.0,1.0,0.0
2281,70.0,120.0,120.0,1.0,0.0
2282,46.0,0.0,120.0,5.0,0.0
2283,58.0,0.0,120.0,4.0,0.0
2284,56.0,0.0,120.0,4.0,0.0
2285,44.0,120.0,120.0,5.0,0.0
2286,68.0,0.0,120.0,1.0,0.0
2287,43.0,120.0,120.0,5.0,0.0
2288,55.0,0.0,120.0,4.0,0.0
2289,67.0,0.0,120.0,1.0,0.0
2290,44.0,0.0,120.0,5.0,0.0
2291,68.0,240.0,120.0,1.0,0.0
2292,56.0,0.0,120.0,4.0,0.0
2293,43.0,0.0,240.0,5.0,0.0
2294,67.0,0.0,240.0,1.0,0.0
2295,55.0,120.0,240.0,4.0,0.0
2296,68.0,0.0,120.0,1.0,0.0
2297,44.0,120.0,120.0,5.0,0.0
2298,56.0,0.0,120.0,4.0,0.0
2299,46.0,0.0,120.0,5.0,0.0
2300,70.0,0.0,120.0,1.0,0.0
2301,58.0,240.0,120.0,4.0,0.0
2302,72.0,120.0,240.0,1.0,0.0
2303,48.0,0.0,240.0,5.0,0.0
2304,60.0,0.0,240.0,4.0,0.0
2305,46.0,0.0,120.0,5.0,0.0
2306,70.0,120.0,120.0,1.0,0.0
2307,58.0,0.0,120.0,4.0,0.0
2308,60.0,0.0,120.0,4.0,0.0
2309,72.0,0.0,120.0,1.0,0.0
2310,48.0,240.0,120.0,5.0,0.0
2311,61.0,0.0,240.0,4.0,0.0
2312,49.0,120.0,240.0,5.0,0.0
2313,73.0,0.0,240.0,1.0,0.0
2314,72.0,120.0,120.0,1.0,0.0
2315,60.0,0.0,120.0,4.0,0.0
2316,48.0,0.0,120.0,5.0,0.0
2317,61.0,0.0,120.0,4.0,0.0
2318,73.0,0.0,120.0,1.0,0.0
2319,49.0,240.0,120.0,5.0,0.0
2320,75.0,0.0,240.0,1.0,0.0
2321,63.0,120.0,240.0,4.0,0.0
2322,51.0,0.0,240.0,5.0,0.0
2323,60.0,0.0,120.0,4.0,0.0
2324,72.0,120.0,120.0,1.0,0.0
2325,48.0,0.0,120.0,5.0,0.0
2326,49.0,0.0,120.0,5.0,0.0
2327,61.0,240.0,120.0,4.0,0.0
2328,73.0,0.0,120.0,1.0,0.0
2329,46.0,0.0,240.0,5.0,0.0
2330,70.0,0.0,240.0,1.0,0.0
2331,58.0,120.0,240.0,4.0,0.0
2332,72.0,120.0,120.0,1.0,0.0
2333,44.0,0.0,120.0,5.0,0.0
2334,65.0,0.0,240.0,2.0,0.0
2335,56.0,0.0,240.0,4.0,0.0
2336,60.0,0.0,240.0,4.0,0.0
2337,53.0,240.0,240.0,4.0,0.0
2338,68.0,0.0,120.0,1.0,0.0
2339,48.0,0.0,120.0,5.0,0.0
2340,63.0,120.0,360.0,2.0,0.0
2341,58.0,120.0,240.0,4.0,0.0
2342,46.0,0.0,240.0,5.0,0.0
2343,67.0,0.0,360.0,1.0,0.0
2344,43.0,0.0,240.0,5.0,0.0
2345,55.0,0.0,240.0,4.0,0.0
2346,61.0,0.0,120.0,2.0,0.0
2347,65.0,240.0,120.0,1.0,0.0
2348,48.0,0.0,240.0,5.0,0.0
2349,64.0,120.0,240.0,1.0,0.0
2350,60.0,0.0,240.0,4.0,0.0
2351,53.0,120.0,120.0,2.0,0.0
2352,65.0,0.0,120.0,1.0,0.0
2353,55.0,240.0,120.0,2.0,0.0
2354,67.0,0.0,120.0,1.0,0.0
2355,41.0,0.0,240.0,5.0,0.0
2356,68.0,0.0,240.0,1.0,0.0
2357,56.0,120.0,240.0,2.0,0.0
2358,48.0,0.0,120.0,4.0,0.0
2359,55.0,120.0,120.0,2.0,0.0
2360,67.0,0.0,120.0,1.0,0.0
2361,56.0,0.0,120.0,2.0,0.0
2362,68.0,240.0,120.0,1.0,0.0
2363,36.0,0.0,240.0,5.0,0.0
2364,67.0,0.0,240.0,1.0,0.0
2365,55.0,120.0,240.0,2.0,0.0
2366,48.0,0.0,120.0,4.0,0.0
2367,65.0,0.0,120.0,1.0,0.0
2368,53.0,120.0,120.0,2.0,0.0
2369,67.0,120.0,120.0,1.0,0.0
2370,55.0,0.0,120.0,2.0,0.0
2371,41.0,0.0,240.0,5.0,0.0
2372,58.0,120.0,120.0,2.0,0.0
2373,70.0,0.0,120.0,1.0,0.0
2374,56.0,0.0,120.0,2.0,0.0
2375,48.0,120.0,120.0,4.0,0.0
2376,68.0,0.0,120.0,1.0,0.0
2377,55.0,120.0,120.0,2.0,0.0
2378,67.0,0.0,120.0,1.0,0.0
2379,68.0,0.0,120.0,1.0,0.0
2380,56.0,240.0,120.0,2.0,0.0
2381,36.0,0.0,240.0,5.0,0.0
2382,55.0,0.0,240.0,2.0,0.0
2383,67.0,0.0,240.0,1.0,0.0
2384,48.0,120.0,120.0,4.0,0.0
2385,56.0,120.0,120.0,2.0,0.0
2386,68.0,0.0,120.0,1.0,0.0
2387,58.0,240.0,120.0,2.0,0.0
2388,70.0,0.0,120.0,1.0,0.0
2389,60.0,0.0,240.0,2.0,0.0
2390,44.0,0.0,240.0,5.0,0.0
2391,72.0,120.0,240.0,1.0,0.0
2392,53.0,0.0,120.0,4.0,0.0
2393,70.0,0.0,120.0,1.0,0.0
2394,58.0,120.0,120.0,2.0,0.0
2395,72.0,240.0,120.0,1.0,0.0
2396,60.0,0.0,120.0,2.0,0.0
2397,62.0,0.0,240.0,2.0,0.0
2398,41.0,120.0,240.0,5.0,0.0
2399,74.0,0.0,240.0,1.0,0.0
2400,56.0,0.0,120.0,4.0,0.0
2401,72.0,0.0,120.0,1.0,0.0
2402,60.0,120.0,120.0,2.0,0.0
2403,74.0,240.0,120.0,1.0,0.0
2404,62.0,0.0,120.0,2.0,0.0
2405,75.0,120.0,240.0,1.0,0.0
2406,39.0,0.0,240.0,5.0,0.0
2407,63.0,0.0,240.0,2.0,0.0
2408,55.0,0.0,120.0,4.0,0.0
2409,60.0,0.0,120.0,2.0,0.0
2410,72.0,120.0,120.0,1.0,0.0
2411,62.0,240.0,120.0,2.0,0.0
2412,74.0,0.0,120.0,1.0,0.0
2413,58.0,0.0,240.0,2.0,0.0
2414,70.0,120.0,240.0,1.0,0.0
2415,41.0,0.0,240.0,5.0,0.0
2416,48.0,0.0,120.0,4.0,0.0
2417,56.0,0.0,120.0,2.0,0.0
2418,68.0,120.0,120.0,1.0,0.0
2419,53.0,0.0,120.0,2.0,0.0
2420,65.0,240.0,120.0,1.0,0.0
2421,63.0,240.0,240.0,1.0,0.0
2422,60.0,0.0,240.0,2.0,0.0
2423,43.0,0.0,240.0,5.0,0.0
2424,55.0,0.0,120.0,4.0,0.0
2425,59.0,240.0,240.0,2.0,0.0
2426,62.0,0.0,240.0,1.0,0.0
2427,36.0,240.0,240.0,5.0,0.0
2428,60.0,0.0,240.0,1.0,0.0
2429,48.0,0.0,120.0,4.0,0.0
2430,72.0,240.0,240.0,1.0,0.0
2431,73.0,0.0,240.0,1.0,0.0
2432,61.0,240.0,240.0,4.0,0.0
2433,49.0,0.0,240.0,5.0,0.0
2434,68.0,240.0,240.0,1.0,0.0
2435,44.0,0.0,240.0,5.0,0.0
2436,53.0,0.0,240.0,4.0,0.0
2437,41.0,240.0,240.0,5.0,0.0
2438,65.0,0.0,240.0,1.0,0.0
2439,44.0,0.0,240.0,5.0,0.0
2440,68.0,240.0,240.0,1.0,0.0
2441,48.0,0.0,240.0,5.0,0.0
2442,60.0,0.0,240.0,4.0,0.0
2443,72.0,240.0,240.0,1.0,0.0
2444,43.0,240.0,240.0,5.0,0.0
2445,67.0,0.0,240.0,1.0,0.0
2446,63.0,240.0,240.0,1.0,0.0
2447,51.0,0.0,240.0,4.0,0.0
2448,39.0,0.0,240.0,5.0,0.0
2449,43.0,0.0,240.0,5.0,0.0
2450,67.0,240.0,240.0,1.0,0.0
2451,58.0,0.0,240.0,4.0,0.0
2452,46.0,120.0,240.0,5.0,0.0
2453,70.0,0.0,240.0,1.0,0.0
2454,68.0,0.0,120.0,1.0,0.0
2455,56.0,0.0,120.0,4.0,0.0
2456,44.0,120.0,120.0,5.0,0.0
2457,67.0,240.0,120.0,1.0,0.0
2458,43.0,0.0,120.0,5.0,0.0
2459,55.0,0.0,120.0,4.0,0.0
2460,65.0,120.0,240.0,1.0,0.0
2461,41.0,0.0,240.0,5.0,0.0
2462,53.0,0.0,240.0,4.0,0.0
2463,39.0,0.0,120.0,5.0,0.0
2464,51.0,0.0,120.0,4.0,0.0
2465,63.0,120.0,120.0,1.0,0.0
2466,62.0,0.0,120.0,1.0,0.0
2467,38.0,240.0,120.0,5.0,0.0
2468,50.0,0.0,120.0,4.0,0.0
2469,55.0,0.0,240.0,4.0,0.0
2470,67.0,0.0,240.0,1.0,0.0
2471,43.0,240.0,240.0,5.0,0.0
2472,44.0,0.0,240.0,5.0,0.0
2473,68.0,0.0,240.0,1.0,0.0
2474,56.0,240.0,240.0,4.0,0.0
2475,65.0,0.0,240.0,1.0,0.0
2476,41.0,240.0,240.0,5.0,0.0
2477,53.0,0.0,240.0,4.0,0.0
2478,67.0,0.0,240.0,1.0,0.0
2479,55.0,0.0,240.0,4.0,0.0
2480,43.0,240.0,240.0,5.0,0.0
2481,59.0,0.0,240.0,2.0,0.0
2482,65.0,0.0,240.0,1.0,0.0
2483,36.0,240.0,720.0,5.0,0.0
2484,48.0,0.0,720.0,4.0,0.0
2485,56.0,240.0,240.0,4.0,0.0
2486,63.0,0.0,240.0,2.0,0.0
2487,60.0,0.0,240.0,2.0,0.0
2488,55.0,240.0,240.0,4.0,0.0
2489,53.0,0.0,240.0,4.0,0.0
2490,58.0,0.0,240.0,2.0,0.0
2491,62.0,0.0,240.0,2.0,0.0
2492,48.0,120.0,240.0,4.0,0.0
2493,84.0,0.0,240.0,1.0,0.0
2494,51.0,0.0,240.0,2.0,0.0
2495,60.0,0.0,240.0,2.0,0.0
2496,72.0,0.0,240.0,1.0,0.0
2497,53.0,120.0,480.0,5.0,0.0
2498,56.0,120.0,120.0,4.0,0.0
2499,85.0,120.0,240.0,1.0,0.0
2500,73.0,0.0,240.0,1.0,0.0
2501,56.0,120.0,240.0,4.0,0.0
2502,68.0,0.0,240.0,1.0,0.0
2503,80.0,0.0,240.0,1.0,0.0
2504,61.0,0.0,120.0,4.0,0.0
2505,60.0,0.0,480.0,4.0,0.0
2506,65.0,0.0,240.0,1.0,0.0
2507,77.0,120.0,240.0,1.0,0.0
2508,56.0,120.0,120.0,5.0,0.0
2509,56.0,120.0,240.0,5.0,0.0
2510,68.0,0.0,240.0,1.0,0.0
2511,80.0,0.0,240.0,1.0,0.0
2512,53.0,120.0,120.0,5.0,0.0
2513,72.0,0.0,240.0,1.0,0.0
2514,51.0,120.0,480.0,5.0,0.0
2515,84.0,120.0,240.0,1.0,0.0
2516,55.0,120.0,120.0,4.0,0.0
2517,55.0,120.0,240.0,4.0,0.0
2518,79.0,0.0,240.0,1.0,0.0
2519,67.0,0.0,240.0,1.0,0.0
2520,60.0,0.0,120.0,4.0,0.0
2521,63.0,120.0,240.0,1.0,0.0
2522,55.0,120.0,120.0,5.0,0.0
2523,75.0,0.0,240.0,1.0,0.0
2524,58.0,120.0,480.0,4.0,0.0
2525,55.0,120.0,240.0,5.0,0.0
2526,67.0,0.0,240.0,1.0,0.0
2527,79.0,0.0,240.0,1.0,0.0
2528,51.0,0.0,120.0,5.0,0.0
2529,50.0,120.0,480.0,5.0,0.0
2530,70.0,120.0,240.0,1.0,0.0
2531,82.0,0.0,240.0,1.0,0.0
2532,53.0,120.0,15.0,4.0,0.0
2533,80.0,0.0,120.0,1.0,0.0
2534,68.0,0.0,120.0,1.0,0.0
2535,58.0,0.0,120.0,4.0,0.0
2536,79.0,0.0,120.0,1.0,0.0
2537,67.0,0.0,120.0,1.0,0.0
2538,77.0,120.0,240.0,1.0,0.0
2539,65.0,0.0,240.0,1.0,0.0
2540,49.0,0.0,480.0,5.0,0.0
2541,56.0,120.0,15.0,4.0,0.0
2542,67.0,0.0,120.0,1.0,0.0
2543,79.0,0.0,120.0,1.0,0.0
2544,80.0,240.0,120.0,1.0,0.0
2545,68.0,0.0,120.0,1.0,0.0
2546,53.0,0.0,120.0,4.0,0.0
2547,48.0,0.0,240.0,5.0,0.0
2548,60.0,0.0,240.0,1.0,0.0
2549,56.0,0.0,120.0,4.0,0.0
2550,53.0,0.0,120.0,4.0,0.0
2551,65.0,0.0,120.0,2.0,0.0
2552,68.0,240.0,120.0,2.0,0.0
2553,49.0,0.0,240.0,5.0,0.0
2554,61.0,0.0,240.0,1.0,0.0
2555,68.0,0.0,120.0,2.0,0.0
2556,53.0,240.0,120.0,4.0,0.0
2557,56.0,0.0,120.0,4.0,0.0
2558,65.0,0.0,120.0,2.0,0.0
2559,46.0,0.0,240.0,5.0,0.0
2560,58.0,0.0,240.0,1.0,0.0
2561,55.0,240.0,120.0,4.0,0.0
2562,65.0,0.0,120.0,2.0,0.0
2563,67.0,0.0,120.0,2.0,0.0
2564,53.0,0.0,120.0,4.0,0.0
2565,60.0,0.0,240.0,1.0,0.0
2566,48.0,0.0,240.0,5.0,0.0
2567,67.0,240.0,120.0,2.0,0.0
2568,52.0,0.0,120.0,4.0,0.0
2569,55.0,0.0,120.0,4.0,0.0
2570,64.0,0.0,120.0,2.0,0.0
2571,58.0,240.0,240.0,1.0,0.0
2572,49.0,0.0,240.0,4.0,0.0
2573,53.0,0.0,720.0,4.0,0.0
2574,48.0,0.0,240.0,4.0,0.0
2575,56.0,240.0,240.0,1.0,0.0
2576,46.0,0.0,240.0,4.0,0.0
2577,55.0,0.0,240.0,1.0,0.0
2578,44.0,0.0,240.0,4.0,0.0
2579,53.0,0.0,240.0,1.0,0.0
2580,65.0,120.0,120.0,1.0,0.0
2581,41.0,120.0,15.0,5.0,0.0
2582,67.0,0.0,120.0,1.0,0.0
2583,68.0,0.0,240.0,1.0,0.0
2584,46.0,120.0,120.0,5.0,0.0
2585,77.0,0.0,240.0,2.0,0.0
2586,53.0,0.0,120.0,4.0,0.0
2587,67.0,120.0,120.0,1.0,0.0
2588,73.0,120.0,15.0,2.0,0.0
2589,58.0,0.0,120.0,4.0,0.0
2590,68.0,0.0,120.0,1.0,0.0
2591,61.0,0.0,600.0,4.0,0.0
2592,67.0,120.0,240.0,1.0,0.0
2593,58.0,120.0,480.0,5.0,0.0
2594,73.0,240.0,15.0,2.0,0.0
2595,77.0,0.0,15.0,2.0,0.0
2596,65.0,120.0,120.0,1.0,0.0
2597,67.0,0.0,120.0,1.0,0.0
2598,73.0,120.0,240.0,2.0,0.0
2599,70.0,0.0,120.0,1.0,0.0
2600,49.0,120.0,120.0,5.0,0.0
2601,53.0,0.0,120.0,4.0,0.0
2602,68.0,0.0,120.0,1.0,0.0
2603,58.0,0.0,120.0,4.0,0.0
2604,67.0,120.0,120.0,1.0,0.0
2605,77.0,0.0,15.0,2.0,0.0
2606,61.0,0.0,600.0,4.0,0.0
2607,68.0,0.0,120.0,1.0,0.0
2608,77.0,0.0,15.0,2.0,0.0
2609,73.0,240.0,15.0,2.0,0.0
2610,58.0,0.0,480.0,5.0,0.0
2611,67.0,120.0,240.0,1.0,0.0
2612,68.0,120.0,120.0,1.0,0.0
2613,70.0,0.0,120.0,1.0,0.0
2614,44.0,120.0,120.0,5.0,0.0
2615,72.0,120.0,240.0,1.0,0.0
2616,68.0,0.0,240.0,2.0,0.0
2617,77.0,0.0,240.0,2.0,0.0
2618,56.0,0.0,120.0,4.0,0.0
2619,60.0,120.0,120.0,4.0,0.0
2620,70.0,0.0,120.0,1.0,0.0
2621,65.0,120.0,120.0,4.0,0.0
2622,72.0,0.0,120.0,1.0,0.0
2623,73.0,0.0,240.0,1.0,0.0
2624,68.0,0.0,15.0,2.0,0.0
2625,77.0,0.0,15.0,2.0,0.0
2626,41.0,120.0,120.0,5.0,0.0
2627,56.0,120.0,120.0,4.0,0.0
2628,68.0,0.0,240.0,2.0,0.0
2629,77.0,0.0,240.0,2.0,0.0
2630,72.0,0.0,120.0,1.0,0.0
2631,61.0,120.0,120.0,4.0,0.0
2632,73.0,120.0,120.0,1.0,0.0
2633,65.0,0.0,120.0,4.0,0.0
2634,43.0,120.0,120.0,5.0,0.0
2635,79.0,0.0,240.0,2.0,0.0
2636,70.0,0.0,240.0,2.0,0.0
2637,75.0,0.0,240.0,1.0,0.0
2638,55.0,120.0,120.0,4.0,0.0
2639,72.0,120.0,120.0,1.0,0.0
2640,77.0,120.0,240.0,2.0,0.0
2641,68.0,0.0,240.0,2.0,0.0
2642,44.0,0.0,120.0,5.0,0.0
2643,73.0,0.0,120.0,1.0,0.0
2644,56.0,0.0,120.0,4.0,0.0
2645,70.0,0.0,240.0,1.0,0.0
2646,46.0,120.0,120.0,5.0,0.0
2647,76.0,0.0,240.0,2.0,0.0
2648,67.0,0.0,240.0,2.0,0.0
2649,58.0,120.0,120.0,4.0,0.0
2650,48.0,120.0,120.0,5.0,0.0
2651,65.0,0.0,240.0,2.0,0.0
2652,77.0,0.0,240.0,2.0,0.0
2653,72.0,0.0,120.0,1.0,0.0
2654,60.0,120.0,120.0,4.0,0.0
2655,68.0,0.0,120.0,1.0,0.0
2656,75.0,0.0,360.0,2.0,0.0
2657,67.0,0.0,360.0,2.0,0.0
2658,70.0,0.0,480.0,1.0,0.0
2659,46.0,120.0,120.0,5.0,0.0
2660,58.0,120.0,120.0,4.0,0.0
2661,43.0,120.0,120.0,5.0,0.0
2662,55.0,240.0,120.0,4.0,0.0
2663,65.0,0.0,120.0,2.0,0.0
2664,73.0,0.0,120.0,2.0,0.0
2665,67.0,0.0,240.0,1.0,0.0
2666,72.0,0.0,240.0,2.0,0.0
2667,48.0,120.0,240.0,5.0,0.0
2668,64.0,0.0,240.0,2.0,0.0
2669,73.0,0.0,240.0,2.0,0.0
2670,65.0,0.0,120.0,1.0,0.0
2671,46.0,120.0,120.0,5.0,0.0
2672,53.0,0.0,120.0,4.0,0.0
2673,67.0,0.0,120.0,1.0,0.0
2674,58.0,120.0,120.0,5.0,0.0
2675,68.0,0.0,240.0,1.0,0.0
2676,77.0,120.0,15.0,2.0,0.0
2677,61.0,0.0,120.0,4.0,0.0
2678,73.0,120.0,15.0,2.0,0.0
2679,77.0,0.0,15.0,2.0,0.0
2680,67.0,0.0,120.0,1.0,0.0
2681,58.0,120.0,120.0,4.0,0.0
2682,61.0,0.0,120.0,4.0,0.0
2683,68.0,0.0,120.0,1.0,0.0
2684,58.0,120.0,120.0,4.0,0.0
2685,77.0,0.0,15.0,2.0,0.0
2686,67.0,120.0,240.0,1.0,0.0
2687,73.0,120.0,15.0,2.0,0.0
2688,53.0,0.0,120.0,4.0,0.0
2689,65.0,120.0,120.0,1.0,0.0
2690,49.0,0.0,120.0,5.0,0.0
2691,77.0,0.0,15.0,2.0,0.0
2692,73.0,0.0,240.0,2.0,0.0
2693,53.0,0.0,120.0,4.0,0.0
2694,67.0,120.0,120.0,1.0,0.0
2695,77.0,0.0,15.0,2.0,0.0
2696,61.0,0.0,120.0,4.0,0.0
2697,70.0,120.0,120.0,1.0,0.0
2698,68.0,120.0,120.0,1.0,0.0
2699,58.0,0.0,120.0,4.0,0.0
2700,77.0,0.0,15.0,2.0,0.0
2701,73.0,0.0,15.0,2.0,0.0
2702,61.0,0.0,120.0,4.0,0.0
2703,67.0,120.0,120.0,1.0,0.0
2704,58.0,0.0,120.0,4.0,0.0
2705,68.0,0.0,120.0,1.0,0.0
2706,73.0,120.0,15.0,2.0,0.0
2707,77.0,0.0,15.0,2.0,0.0
2708,67.0,120.0,240.0,1.0,0.0
2709,53.0,120.0,120.0,4.0,0.0
2710,49.0,0.0,120.0,4.0,0.0
2711,73.0,0.0,240.0,2.0,0.0
2712,43.0,0.0,120.0,5.0,0.0
2713,68.0,120.0,120.0,1.0,0.0
2714,55.0,0.0,120.0,4.0,0.0
2715,70.0,0.0,120.0,1.0,0.0
2716,44.0,120.0,120.0,5.0,0.0
2717,77.0,120.0,15.0,2.0,0.0
2718,72.0,0.0,240.0,1.0,0.0
2719,68.0,0.0,240.0,2.0,0.0
2720,56.0,120.0,120.0,4.0,0.0
2721,70.0,0.0,120.0,1.0,0.0
2722,77.0,0.0,15.0,2.0,0.0
2723,60.0,120.0,120.0,4.0,0.0
2724,72.0,120.0,120.0,1.0,0.0
2725,65.0,0.0,120.0,4.0,0.0
2726,80.0,0.0,240.0,2.0,0.0
2727,68.0,0.0,15.0,2.0,0.0
2728,41.0,120.0,120.0,5.0,0.0
2729,74.0,120.0,240.0,1.0,0.0
2730,56.0,0.0,120.0,4.0,0.0
2731,72.0,0.0,120.0,1.0,0.0
2732,80.0,0.0,240.0,2.0,0.0
2733,62.0,120.0,120.0,4.0,0.0
2734,68.0,0.0,240.0,2.0,0.0
2735,65.0,120.0,120.0,4.0,0.0
2736,74.0,0.0,120.0,1.0,0.0
2737,75.0,0.0,240.0,1.0,0.0
2738,43.0,120.0,120.0,5.0,0.0
2739,70.0,0.0,240.0,2.0,0.0
2740,79.0,0.0,240.0,2.0,0.0
2741,55.0,120.0,120.0,4.0,0.0
2742,72.0,120.0,120.0,1.0,0.0
2743,68.0,120.0,240.0,2.0,0.0
2744,77.0,0.0,240.0,2.0,0.0
2745,44.0,0.0,120.0,5.0,0.0
2746,74.0,0.0,120.0,1.0,0.0
2747,56.0,0.0,120.0,4.0,0.0
2748,46.0,120.0,120.0,5.0,0.0
2749,70.0,120.0,240.0,1.0,0.0
2750,75.0,0.0,240.0,2.0,0.0
2751,67.0,0.0,240.0,2.0,0.0
2752,58.0,0.0,120.0,4.0,0.0
2753,72.0,0.0,240.0,2.0,0.0
2754,38.0,0.0,120.0,5.0,0.0
2755,60.0,0.0,240.0,2.0,0.0
2756,68.0,120.0,120.0,1.0,0.0
2757,65.0,240.0,120.0,1.0,0.0
2758,50.0,0.0,120.0,4.0,0.0
2759,43.0,0.0,240.0,5.0,0.0
2760,60.0,0.0,240.0,4.0,0.0
2761,63.0,0.0,240.0,4.0,0.0
2762,55.0,0.0,120.0,4.0,0.0
2763,67.0,240.0,15.0,1.0,0.0
2764,62.0,0.0,240.0,4.0,0.0
2765,59.0,240.0,240.0,4.0,0.0
2766,36.0,0.0,240.0,5.0,0.0
2767,60.0,240.0,240.0,1.0,0.0
2768,48.0,0.0,120.0,4.0,0.0
2769,60.0,240.0,240.0,4.0,0.0
2770,72.0,0.0,240.0,1.0,0.0
2771,73.0,0.0,240.0,1.0,0.0
2772,49.0,240.0,240.0,5.0,0.0
2773,61.0,0.0,240.0,4.0,0.0
2774,68.0,240.0,240.0,1.0,0.0
2775,44.0,0.0,240.0,5.0,0.0
2776,41.0,0.0,240.0,5.0,0.0
2777,65.0,240.0,240.0,1.0,0.0
2778,53.0,0.0,240.0,4.0,0.0
2779,44.0,240.0,240.0,5.0,0.0
2780,68.0,0.0,240.0,1.0,0.0
2781,72.0,240.0,240.0,1.0,0.0
2782,60.0,0.0,240.0,4.0,0.0
2783,48.0,0.0,240.0,5.0,0.0
2784,67.0,0.0,240.0,1.0,0.0
2785,43.0,240.0,240.0,5.0,0.0
2786,51.0,0.0,240.0,4.0,0.0
2787,63.0,0.0,240.0,1.0,0.0
2788,39.0,240.0,240.0,5.0,0.0
2789,67.0,0.0,240.0,1.0,0.0
2790,43.0,240.0,240.0,5.0,0.0
2791,70.0,120.0,240.0,1.0,0.0
2792,46.0,0.0,240.0,5.0,0.0
2793,58.0,0.0,240.0,4.0,0.0
2794,44.0,0.0,120.0,5.0,0.0
2795,56.0,0.0,120.0,4.0,0.0
2796,68.0,120.0,120.0,1.0,0.0
2797,55.0,0.0,120.0,4.0,0.0
2798,43.0,240.0,120.0,5.0,0.0
2799,67.0,0.0,120.0,1.0,0.0
2800,65.0,0.0,240.0,1.0,0.0
2801,41.0,0.0,240.0,5.0,0.0
2802,53.0,120.0,240.0,4.0,0.0
2803,63.0,120.0,120.0,1.0,0.0
2804,51.0,0.0,120.0,4.0,0.0
2805,39.0,0.0,120.0,5.0,0.0
2806,62.0,0.0,120.0,1.0,0.0
2807,38.0,0.0,120.0,5.0,0.0
2808,50.0,240.0,120.0,4.0,0.0
2809,55.0,0.0,240.0,4.0,0.0
2810,43.0,0.0,240.0,5.0,0.0
2811,67.0,240.0,240.0,1.0,0.0
2812,56.0,240.0,240.0,4.0,0.0
2813,44.0,0.0,240.0,5.0,0.0
2814,68.0,0.0,240.0,1.0,0.0
2815,53.0,0.0,240.0,4.0,0.0
2816,65.0,0.0,240.0,1.0,0.0
2817,41.0,240.0,240.0,5.0,0.0
2818,43.0,240.0,240.0,5.0,0.0
2819,55.0,0.0,240.0,4.0,0.0
2820,67.0,0.0,240.0,1.0,0.0
2821,48.0,0.0,720.0,4.0,0.0
2822,56.0,0.0,240.0,4.0,0.0
2823,65.0,0.0,240.0,1.0,0.0
2824,36.0,240.0,720.0,5.0,0.0
2825,59.0,240.0,240.0,2.0,0.0
2826,63.0,240.0,240.0,2.0,0.0
2827,60.0,0.0,240.0,4.0,0.0
2828,55.0,0.0,240.0,4.0,0.0
2829,58.0,0.0,240.0,4.0,0.0
2830,53.0,0.0,240.0,4.0,0.0
2831,62.0,0.0,240.0,2.0,0.0
2832,60.0,0.0,240.0,2.0,0.0
2833,72.0,0.0,240.0,1.0,0.0
2834,48.0,0.0,240.0,5.0,0.0
2835,84.0,0.0,240.0,1.0,0.0
2836,51.0,120.0,240.0,4.0,0.0
2837,73.0,120.0,240.0,1.0,0.0
2838,85.0,0.0,240.0,1.0,0.0
2839,53.0,120.0,480.0,5.0,0.0
2840,56.0,120.0,120.0,4.0,0.0
2841,56.0,120.0,240.0,4.0,0.0
2842,80.0,0.0,240.0,1.0,0.0
2843,68.0,0.0,240.0,1.0,0.0
2844,61.0,0.0,120.0,4.0,0.0
2845,60.0,0.0,480.0,4.0,0.0
2846,65.0,120.0,240.0,1.0,0.0
2847,77.0,0.0,240.0,1.0,0.0
2848,56.0,120.0,15.0,5.0,0.0
2849,80.0,0.0,240.0,1.0,0.0
2850,68.0,0.0,240.0,1.0,0.0
2851,53.0,120.0,120.0,5.0,0.0
2852,51.0,120.0,480.0,5.0,0.0
2853,72.0,120.0,240.0,1.0,0.0
2854,84.0,0.0,240.0,1.0,0.0
2855,55.0,120.0,120.0,4.0,0.0
2856,55.0,120.0,240.0,4.0,0.0
2857,67.0,0.0,240.0,1.0,0.0
2858,79.0,0.0,240.0,1.0,0.0
2859,60.0,0.0,120.0,4.0,0.0
2860,58.0,120.0,480.0,4.0,0.0
2861,63.0,0.0,240.0,1.0,0.0
2862,75.0,120.0,240.0,1.0,0.0
2863,55.0,120.0,15.0,5.0,0.0
2864,79.0,0.0,240.0,1.0,0.0
2865,67.0,0.0,240.0,1.0,0.0
2866,51.0,0.0,120.0,5.0,0.0
2867,50.0,120.0,480.0,5.0,0.0
2868,82.0,0.0,240.0,1.0,0.0
2869,70.0,120.0,240.0,1.0,0.0
2870,53.0,120.0,120.0,4.0,0.0
2871,53.0,0.0,240.0,4.0,0.0
2872,80.0,120.0,120.0,1.0,0.0
2873,68.0,0.0,120.0,1.0,0.0
2874,67.0,0.0,120.0,1.0,0.0
2875,79.0,0.0,120.0,1.0,0.0
2876,58.0,0.0,120.0,4.0,0.0
2877,65.0,0.0,240.0,1.0,0.0
2878,56.0,120.0,120.0,4.0,0.0
2879,49.0,0.0,480.0,5.0,0.0
2880,77.0,120.0,240.0,1.0,0.0
2881,56.0,0.0,240.0,4.0,0.0
2882,67.0,0.0,120.0,1.0,0.0
2883,79.0,120.0,120.0,1.0,0.0
2884,53.0,0.0,120.0,4.0,0.0
2885,80.0,0.0,120.0,1.0,0.0
2886,68.0,240.0,120.0,1.0,0.0
2887,48.0,0.0,240.0,5.0,0.0
2888,72.0,0.0,240.0,1.0,0.0
2889,53.0,0.0,120.0,4.0,0.0
2890,56.0,240.0,120.0,4.0,0.0
2891,65.0,0.0,120.0,2.0,0.0
2892,68.0,0.0,120.0,2.0,0.0
2893,60.0,0.0,120.0,5.0,0.0
2894,73.0,0.0,240.0,1.0,0.0
2895,49.0,0.0,240.0,5.0,0.0
2896,61.0,0.0,120.0,5.0,0.0
2897,65.0,0.0,120.0,2.0,0.0
2898,68.0,0.0,120.0,2.0,0.0
2899,53.0,0.0,120.0,4.0,0.0
2900,56.0,240.0,120.0,4.0,0.0
2901,46.0,0.0,240.0,5.0,0.0
2902,70.0,240.0,240.0,1.0,0.0
2903,55.0,0.0,120.0,4.0,0.0
2904,53.0,0.0,120.0,4.0,0.0
2905,67.0,0.0,120.0,2.0,0.0
2906,65.0,0.0,120.0,2.0,0.0
2907,58.0,0.0,120.0,5.0,0.0
2908,72.0,0.0,240.0,1.0,0.0
2909,48.0,240.0,240.0,5.0,0.0
2910,60.0,0.0,120.0,5.0,0.0
2911,52.0,0.0,120.0,4.0,0.0
2912,64.0,0.0,120.0,2.0,0.0
2913,67.0,0.0,120.0,2.0,0.0
2914,55.0,0.0,120.0,4.0,0.0
2915,49.0,240.0,240.0,4.0,0.0
2916,53.0,0.0,720.0,4.0,0.0
2917,65.0,0.0,720.0,1.0,0.0
2918,58.0,0.0,240.0,1.0,0.0
2919,48.0,0.0,240.0,4.0,0.0
2920,56.0,240.0,240.0,1.0,0.0
2921,46.0,0.0,240.0,4.0,0.0
2922,55.0,120.0,240.0,1.0,0.0
2923,65.0,0.0,120.0,1.0,0.0
2924,53.0,720.0,240.0,1.0,0.0
2925,41.0,0.0,15.0,5.0,0.0
2926,44.0,0.0,240.0,4.0,0.0
2927,77.0,120.0,120.0,1.0,0.0
2928,67.0,0.0,120.0,1.0,0.0
2929,79.0,0.0,120.0,1.0,0.0
2930,80.0,0.0,720.0,1.0,0.0
2931,72.0,120.0,720.0,2.0,0.0
2932,77.0,0.0,720.0,2.0,0.0
2933,41.0,0.0,960.0,5.0,0.0
2934,68.0,0.0,720.0,1.0,0.0
2935,48.0,720.0,720.0,4.0,0.0
2936,53.0,0.0,720.0,4.0,0.0
2937,56.0,0.0,480.0,4.0,0.0
2938,60.0,0.0,480.0,4.0,0.0
2939,79.0,0.0,120.0,1.0,0.0
2940,67.0,120.0,120.0,1.0,0.0
2941,80.0,0.0,120.0,1.0,0.0
2942,68.0,0.0,120.0,1.0,0.0
2943,72.0,0.0,720.0,2.0,0.0
2944,67.0,0.0,720.0,1.0,0.0
2945,79.0,120.0,720.0,1.0,0.0
2946,77.0,0.0,720.0,2.0,0.0
2947,48.0,0.0,720.0,4.0,0.0
2948,53.0,0.0,720.0,4.0,0.0
2949,55.0,360.0,480.0,4.0,0.0
2950,60.0,0.0,480.0,4.0,0.0
2951,65.0,120.0,120.0,1.0,0.0
2952,77.0,0.0,120.0,1.0,0.0
2953,79.0,0.0,120.0,1.0,0.0
2954,67.0,0.0,120.0,1.0,0.0
2955,41.0,0.0,15.0,5.0,0.0
2956,82.0,0.0,360.0,1.0,0.0
2957,70.0,120.0,360.0,1.0,0.0
2958,48.0,0.0,720.0,4.0,0.0
2959,53.0,120.0,720.0,4.0,0.0
2960,80.0,120.0,120.0,1.0,0.0
2961,68.0,0.0,120.0,1.0,0.0
2962,67.0,0.0,120.0,1.0,0.0
2963,79.0,120.0,120.0,1.0,0.0
2964,56.0,0.0,480.0,4.0,0.0
2965,60.0,0.0,480.0,4.0,0.0
2966,68.0,120.0,120.0,1.0,0.0
2967,80.0,0.0,120.0,1.0,0.0
2968,70.0,120.0,120.0,1.0,0.0
2969,82.0,0.0,120.0,1.0,0.0
2970,80.0,0.0,120.0,1.0,0.0
2971,68.0,0.0,120.0,1.0,0.0
2972,79.0,0.0,120.0,1.0,0.0
2973,67.0,120.0,120.0,1.0,0.0
2974,77.0,0.0,15.0,2.0,0.0
2975,72.0,0.0,15.0,2.0,0.0
2976,80.0,240.0,120.0,1.0,0.0
2977,68.0,0.0,120.0,1.0,0.0
2978,79.0,0.0,600.0,1.0,0.0
2979,53.0,0.0,240.0,4.0,0.0
2980,48.0,0.0,480.0,4.0,0.0
2981,67.0,113.0,600.0,1.0,0.0
2982,76.0,0.0,480.0,2.0,0.0
2983,60.0,0.0,240.0,4.0,0.0
2984,55.0,127.0,240.0,4.0,0.0
2985,70.0,0.0,480.0,2.0,0.0
2986,64.0,480.0,240.0,4.0,0.0
2987,58.0,0.0,240.0,4.0,0.0
2988,65.0,0.0,120.0,1.0,0.0
2989,77.0,0.0,15.0,1.0,0.0
2990,41.0,0.0,15.0,5.0,0.0
2991,65.0,0.0,720.0,1.0,0.0
2992,72.0,0.0,720.0,2.0,0.0
2993,68.0,0.0,720.0,2.0,0.0
2994,48.0,240.0,240.0,4.0,0.0
2995,60.0,240.0,480.0,4.0,0.0
2996,56.0,0.0,480.0,4.0,0.0
2997,53.0,0.0,240.0,4.0,0.0
2998,68.0,240.0,480.0,1.0,0.0
2999,56.0,120.0,120.0,1.0,0.0
3000,65.0,120.0,120.0,4.0,0.0
3001,37.0,120.0,960.0,5.0,0.0
3002,56.0,120.0,120.0,4.0,0.0
3003,65.0,0.0,120.0,4.0,0.0
3004,81.0,0.0,480.0,1.0,0.0
3005,69.0,5.0,480.0,1.0,0.0
3006,66.0,120.0,120.0,4.0,0.0
3007,63.0,115.0,120.0,4.0,0.0
3008,56.0,120.0,120.0,4.0,0.0
3009,68.0,0.0,480.0,1.0,0.0
3010,80.0,0.0,480.0,1.0,0.0
3011,77.0,120.0,120.0,4.0,0.0
3012,68.0,120.0,120.0,4.0,0.0
3013,77.0,120.0,120.0,4.0,0.0
3014,87.0,5.0,480.0,1.0,0.0
3015,99.0,0.0,480.0,1.0,0.0
3016,81.0,120.0,120.0,4.0,0.0
3017,78.0,120.0,120.0,4.0,0.0
3018,68.0,115.0,120.0,4.0,0.0
3019,78.0,120.0,120.0,4.0,0.0
3020,84.0,0.0,480.0,1.0,0.0
3021,72.0,120.0,120.0,1.0,0.0
3022,49.0,0.0,15.0,5.0,0.0
3023,80.0,120.0,120.0,4.0,0.0
3024,72.0,120.0,120.0,4.0,0.0
3025,80.0,120.0,120.0,4.0,0.0
3026,73.0,5.0,480.0,1.0,0.0
3027,85.0,120.0,480.0,1.0,0.0
3028,70.0,120.0,120.0,4.0,0.0
3029,66.0,120.0,120.0,4.0,0.0
3030,58.0,115.0,120.0,4.0,0.0
3031,66.0,0.0,120.0,4.0,0.0
3032,64.0,5.0,1800.0,1.0,0.0
3033,76.0,120.0,1800.0,1.0,0.0
3034,37.0,120.0,120.0,5.0,0.0
3035,46.0,120.0,120.0,4.0,0.0
3036,67.0,120.0,240.0,2.0,0.0
3037,49.0,120.0,120.0,4.0,0.0
3038,52.0,0.0,120.0,4.0,0.0
3039,70.0,0.0,240.0,2.0,0.0
3040,55.0,120.0,120.0,4.0,0.0
3041,58.0,120.0,120.0,4.0,0.0
3042,72.0,120.0,240.0,2.0,0.0
3043,63.0,120.0,120.0,4.0,0.0
3044,61.0,0.0,120.0,4.0,0.0
3045,58.0,120.0,120.0,4.0,0.0
3046,75.0,120.0,240.0,2.0,0.0
3047,55.0,0.0,120.0,4.0,0.0
3048,73.0,0.0,240.0,2.0,0.0
3049,52.0,120.0,120.0,4.0,0.0
3050,51.0,120.0,120.0,4.0,0.0
3051,49.0,115.0,120.0,4.0,0.0
3052,70.0,0.0,240.0,2.0,0.0
3053,52.0,0.0,120.0,4.0,0.0
3054,55.0,120.0,120.0,4.0,0.0
3055,68.0,115.0,480.0,1.0,0.0
3056,56.0,120.0,120.0,1.0,0.0
3057,65.0,120.0,120.0,4.0,0.0
3058,37.0,120.0,960.0,5.0,0.0
3059,56.0,120.0,120.0,4.0,0.0
3060,65.0,5.0,120.0,4.0,0.0
3061,67.0,120.0,120.0,4.0,0.0
3062,69.0,0.0,480.0,1.0,0.0
3063,81.0,120.0,480.0,1.0,0.0
3064,63.0,120.0,120.0,4.0,0.0
3065,56.0,120.0,120.0,4.0,0.0
3066,63.0,0.0,120.0,4.0,0.0
3067,80.0,5.0,480.0,1.0,0.0
3068,68.0,0.0,120.0,1.0,0.0
3069,49.0,0.0,960.0,5.0,0.0
3070,77.0,120.0,120.0,4.0,0.0
3071,68.0,115.0,120.0,4.0,0.0
3072,77.0,120.0,120.0,4.0,0.0
3073,89.0,120.0,480.0,1.0,0.0
3074,101.0,0.0,480.0,1.0,0.0
3075,79.0,120.0,120.0,4.0,0.0
3076,70.0,120.0,120.0,4.0,0.0
3077,67.0,120.0,120.0,4.0,0.0
3078,70.0,0.0,120.0,4.0,0.0
3079,82.0,120.0,480.0,1.0,0.0
3080,70.0,120.0,120.0,1.0,0.0
3081,48.0,120.0,960.0,5.0,0.0
3082,79.0,120.0,120.0,4.0,0.0
3083,70.0,120.0,120.0,4.0,0.0
3084,79.0,0.0,120.0,4.0,0.0
3085,68.0,120.0,120.0,4.0,0.0
3086,75.0,10.0,480.0,1.0,0.0
3087,87.0,120.0,480.0,1.0,0.0
3088,60.0,120.0,120.0,4.0,0.0
3089,56.0,110.0,120.0,4.0,0.0
3090,60.0,0.0,120.0,4.0,0.0
3091,75.0,120.0,600.0,1.0,0.0
3092,63.0,0.0,600.0,1.0,0.0
3093,46.0,120.0,120.0,5.0,0.0
3094,53.0,120.0,120.0,4.0,0.0
3095,65.0,0.0,120.0,4.0,0.0
3096,56.0,120.0,120.0,4.0,0.0
3097,46.0,0.0,120.0,5.0,0.0
3098,61.0,0.0,480.0,1.0,0.0
3099,68.0,0.0,240.0,2.0,0.0
3100,73.0,0.0,480.0,1.0,0.0
3101,39.0,120.0,120.0,5.0,0.0
3102,51.0,120.0,120.0,4.0,0.0
3103,58.0,120.0,120.0,4.0,0.0
3104,67.0,0.0,240.0,2.0,0.0
3105,51.0,240.0,120.0,4.0,0.0
3106,32.0,0.0,960.0,5.0,0.0
3107,72.0,0.0,720.0,1.0,0.0
3108,60.0,105.0,720.0,1.0,0.0
3109,70.0,115.0,240.0,2.0,0.0
3110,44.0,5.0,120.0,4.0,0.0
3111,68.0,0.0,240.0,2.0,0.0
3112,48.0,120.0,120.0,4.0,0.0
3113,51.0,120.0,120.0,4.0,0.0
3114,66.0,5.0,360.0,2.0,0.0
3115,56.0,120.0,120.0,4.0,0.0
3116,60.0,10.0,120.0,4.0,0.0
3117,63.0,120.0,120.0,4.0,0.0
3118,65.0,120.0,480.0,1.0,0.0
3119,53.0,120.0,120.0,1.0,0.0
3120,60.0,120.0,120.0,4.0,0.0
3121,45.0,0.0,960.0,5.0,0.0
3122,53.0,120.0,120.0,4.0,0.0
3123,60.0,0.0,120.0,4.0,0.0
3124,78.0,0.0,480.0,1.0,0.0
3125,63.0,120.0,120.0,4.0,0.0
3126,66.0,120.0,480.0,1.0,0.0
3127,60.0,120.0,120.0,4.0,0.0
3128,53.0,120.0,120.0,4.0,0.0
3129,60.0,0.0,120.0,4.0,0.0
3130,65.0,120.0,120.0,1.0,0.0
3131,77.0,0.0,480.0,1.0,0.0
3132,44.0,120.0,960.0,5.0,0.0
3133,71.0,120.0,120.0,4.0,0.0
3134,65.0,120.0,120.0,4.0,0.0
3135,71.0,120.0,120.0,4.0,0.0
3136,90.0,0.0,480.0,1.0,0.0
3137,74.0,120.0,120.0,4.0,0.0
3138,78.0,0.0,480.0,1.0,0.0
3139,71.0,120.0,120.0,4.0,0.0
3140,62.0,120.0,120.0,4.0,0.0
3141,71.0,120.0,120.0,4.0,0.0
3142,77.0,5.0,480.0,1.0,0.0
3143,65.0,0.0,120.0,1.0,0.0
3144,43.0,120.0,960.0,5.0,0.0
3145,71.0,120.0,120.0,4.0,0.0
3146,65.0,115.0,120.0,4.0,0.0
3147,71.0,120.0,120.0,4.0,0.0
3148,68.0,120.0,120.0,4.0,0.0
3149,74.0,0.0,480.0,1.0,0.0
3150,62.0,0.0,480.0,1.0,0.0
3151,59.0,120.0,120.0,4.0,0.0
3152,55.0,120.0,120.0,4.0,0.0
3153,59.0,120.0,120.0,4.0,0.0
3154,66.0,115.0,240.0,2.0,0.0
3155,75.0,0.0,240.0,1.0,0.0
3156,30.0,5.0,120.0,5.0,0.0
3157,65.0,120.0,240.0,2.0,0.0
3158,42.0,120.0,120.0,4.0,0.0
3159,73.0,115.0,240.0,1.0,0.0
3160,63.0,5.0,240.0,2.0,0.0
3161,71.0,0.0,240.0,1.0,0.0
3162,42.0,120.0,120.0,5.0,0.0
3163,60.0,120.0,240.0,2.0,0.0
3164,54.0,125.0,120.0,4.0,0.0
3165,69.0,115.0,240.0,1.0,0.0
3166,61.0,115.0,240.0,2.0,0.0
3167,70.0,5.0,240.0,1.0,0.0
3168,37.0,0.0,120.0,5.0,0.0
3169,63.0,120.0,240.0,2.0,0.0
3170,49.0,120.0,120.0,4.0,0.0
3171,72.0,5.0,240.0,1.0,0.0
3172,64.0,115.0,120.0,2.0,0.0
3173,34.0,120.0,120.0,5.0,0.0
3174,73.0,120.0,240.0,1.0,0.0
3175,46.0,0.0,120.0,4.0,0.0
3176,55.0,120.0,240.0,2.0,0.0
3177,64.0,0.0,120.0,1.0,0.0
3178,65.0,5.0,480.0,1.0,0.0
3179,53.0,120.0,120.0,1.0,0.0
3180,33.0,120.0,120.0,5.0,0.0
3181,60.0,0.0,120.0,4.0,0.0
3182,45.0,0.0,120.0,5.0,0.0
3183,53.0,115.0,120.0,4.0,0.0
3184,60.0,120.0,120.0,4.0,0.0
3185,78.0,120.0,480.0,1.0,0.0
3186,63.0,120.0,120.0,4.0,0.0
3187,66.0,5.0,480.0,1.0,0.0
3188,60.0,120.0,120.0,4.0,0.0
3189,53.0,115.0,120.0,4.0,0.0
3190,60.0,0.0,120.0,4.0,0.0
3191,65.0,120.0,120.0,1.0,0.0
3192,77.0,120.0,480.0,1.0,0.0
3193,51.0,0.0,120.0,5.0,0.0
3194,39.0,120.0,120.0,5.0,0.0
3195,72.0,0.0,120.0,4.0,0.0
3196,65.0,120.0,120.0,4.0,0.0
3197,72.0,0.0,120.0,4.0,0.0
3198,69.0,120.0,120.0,4.0,0.0
3199,90.0,240.0,480.0,1.0,0.0
3200,78.0,0.0,480.0,1.0,0.0
3201,60.0,120.0,120.0,4.0,0.0
3202,57.0,120.0,120.0,4.0,0.0
3203,60.0,0.0,120.0,4.0,0.0
3204,77.0,120.0,360.0,1.0,0.0
3205,38.0,0.0,480.0,5.0,0.0
3206,71.0,120.0,120.0,2.0,0.0
3207,68.0,0.0,120.0,2.0,0.0
3208,50.0,0.0,120.0,4.0,0.0
3209,71.0,1.0,120.0,2.0,0.0
3210,54.0,0.0,120.0,4.0,0.0
3211,78.0,0.0,240.0,1.0,0.0
3212,59.0,120.0,120.0,4.0,0.0
3213,66.0,119.0,15.0,2.0,0.0
3214,56.0,0.0,120.0,4.0,0.0
3215,50.0,0.0,480.0,5.0,0.0
3216,72.0,120.0,120.0,2.0,0.0
3217,77.0,0.0,240.0,1.0,0.0
3218,59.0,120.0,120.0,4.0,0.0
3219,68.0,0.0,120.0,2.0,0.0
3220,78.0,0.0,240.0,1.0,0.0
3221,54.0,0.0,120.0,4.0,0.0
3222,72.0,120.0,120.0,2.0,0.0
3223,59.0,120.0,120.0,4.0,0.0
3224,66.0,0.0,120.0,2.0,0.0
3225,37.0,120.0,120.0,5.0,0.0
3226,79.0,120.0,240.0,1.0,0.0
3227,70.0,115.0,240.0,2.0,0.0
3228,49.0,0.0,120.0,4.0,0.0
3229,80.0,0.0,240.0,1.0,0.0
3230,53.0,5.0,120.0,4.0,0.0
3231,71.0,115.0,240.0,2.0,0.0
3232,56.0,120.0,120.0,4.0,0.0
3233,77.0,5.0,240.0,1.0,0.0
3234,49.0,0.0,120.0,4.0,0.0
3235,53.0,120.0,120.0,4.0,0.0
3236,68.0,0.0,240.0,2.0,0.0
3237,73.0,115.0,240.0,1.0,0.0
3238,56.0,110.0,120.0,4.0,0.0
3239,61.0,5.0,120.0,4.0,0.0
3240,65.0,10.0,120.0,2.0,0.0
3241,42.0,120.0,120.0,5.0,0.0
3242,71.0,115.0,480.0,1.0,0.0
3243,61.0,120.0,360.0,2.0,0.0
3244,49.0,120.0,120.0,4.0,0.0
3245,54.0,0.0,120.0,4.0,0.0
3246,49.0,5.0,120.0,4.0,0.0
3247,63.0,0.0,120.0,2.0,0.0
3248,64.0,0.0,360.0,2.0,0.0
3249,70.0,120.0,360.0,1.0,0.0
3250,43.0,120.0,120.0,5.0,0.0
3251,49.0,120.0,120.0,4.0,0.0
3252,55.0,0.0,120.0,4.0,0.0
3253,68.0,0.0,480.0,1.0,0.0
3254,56.0,120.0,120.0,1.0,0.0
3255,65.0,0.0,120.0,4.0,0.0
3256,44.0,120.0,120.0,5.0,0.0
3257,56.0,120.0,120.0,4.0,0.0
3258,65.0,120.0,120.0,4.0,0.0
3259,81.0,115.0,480.0,1.0,0.0
3260,69.0,5.0,480.0,1.0,0.0
3261,66.0,120.0,120.0,4.0,0.0
3262,63.0,120.0,120.0,4.0,0.0
3263,56.0,120.0,120.0,4.0,0.0
3264,63.0,0.0,120.0,4.0,0.0
3265,80.0,115.0,480.0,1.0,0.0
3266,68.0,120.0,120.0,1.0,0.0
3267,77.0,0.0,120.0,4.0,0.0
3268,44.0,120.0,120.0,5.0,0.0
3269,68.0,120.0,120.0,4.0,0.0
3270,77.0,5.0,120.0,4.0,0.0
3271,81.0,120.0,120.0,4.0,0.0
3272,99.0,0.0,480.0,1.0,0.0
3273,87.0,5.0,480.0,1.0,0.0
3274,78.0,120.0,120.0,4.0,0.0
3275,68.0,115.0,120.0,4.0,0.0
3276,78.0,120.0,120.0,4.0,0.0
3277,84.0,5.0,480.0,1.0,0.0
3278,72.0,120.0,120.0,1.0,0.0
3279,80.0,120.0,120.0,4.0,0.0
3280,37.0,0.0,120.0,5.0,0.0
3281,72.0,115.0,120.0,4.0,0.0
3282,80.0,120.0,120.0,4.0,0.0
3283,70.0,120.0,120.0,4.0,0.0
3284,73.0,0.0,480.0,1.0,0.0
3285,85.0,0.0,480.0,1.0,0.0
3286,66.0,120.0,120.0,4.0,0.0
3287,58.0,120.0,120.0,4.0,0.0
3288,66.0,240.0,120.0,4.0,0.0
3289,64.0,8.0,1800.0,1.0,0.0
3290,76.0,0.0,1800.0,1.0,0.0
3291,37.0,120.0,120.0,5.0,0.0
3292,43.0,120.0,120.0,4.0,0.0
3293,67.0,120.0,240.0,2.0,0.0
3294,49.0,120.0,120.0,4.0,0.0
3295,52.0,0.0,120.0,4.0,0.0
3296,55.0,120.0,120.0,4.0,0.0
3297,70.0,0.0,240.0,2.0,0.0
3298,58.0,120.0,120.0,4.0,0.0
3299,63.0,120.0,120.0,4.0,0.0
3300,72.0,240.0,240.0,2.0,0.0
3301,61.0,0.0,120.0,4.0,0.0
3302,75.0,0.0,240.0,2.0,0.0
3303,61.0,120.0,120.0,4.0,0.0
3304,73.0,0.0,240.0,2.0,0.0
3305,58.0,120.0,120.0,4.0,0.0
3306,55.0,120.0,120.0,4.0,0.0
3307,70.0,0.0,240.0,2.0,0.0
3308,52.0,112.0,120.0,4.0,0.0
3309,61.0,120.0,120.0,4.0,0.0
3310,67.0,120.0,120.0,4.0,0.0
3311,56.0,120.0,120.0,1.0,0.0
3312,68.0,110.0,480.0,1.0,0.0
3313,37.0,120.0,120.0,5.0,0.0
3314,65.0,0.0,120.0,4.0,0.0
3315,56.0,120.0,120.0,4.0,0.0
3316,65.0,10.0,120.0,4.0,0.0
3317,66.0,120.0,120.0,4.0,0.0
3318,69.0,0.0,480.0,1.0,0.0
3319,81.0,120.0,480.0,1.0,0.0
3320,63.0,120.0,120.0,4.0,0.0
3321,56.0,120.0,120.0,4.0,0.0
3322,63.0,0.0,120.0,4.0,0.0
3323,80.0,105.0,480.0,1.0,0.0
3324,56.0,120.0,120.0,1.0,0.0
3325,77.0,0.0,120.0,4.0,0.0
3326,49.0,120.0,120.0,5.0,0.0
3327,68.0,120.0,120.0,4.0,0.0
3328,77.0,15.0,120.0,4.0,0.0
3329,89.0,0.0,480.0,1.0,0.0
3330,101.0,115.0,480.0,1.0,0.0
3331,83.0,120.0,120.0,4.0,0.0
3332,80.0,120.0,120.0,4.0,0.0
3333,71.0,120.0,120.0,4.0,0.0
3334,80.0,5.0,120.0,4.0,0.0
3335,74.0,120.0,120.0,1.0,0.0
3336,86.0,115.0,480.0,1.0,0.0
3337,43.0,120.0,120.0,5.0,0.0
3338,77.0,0.0,120.0,4.0,0.0
3339,74.0,120.0,120.0,4.0,0.0
3340,77.0,5.0,120.0,4.0,0.0
3341,75.0,10.0,480.0,1.0,0.0
3342,78.0,120.0,120.0,4.0,0.0
3343,87.0,350.0,480.0,1.0,0.0
3344,70.0,120.0,120.0,4.0,0.0
3345,66.0,120.0,120.0,4.0,0.0
3346,70.0,0.0,120.0,4.0,0.0
3347,57.0,0.0,600.0,1.0,0.0
3348,69.0,0.0,600.0,1.0,0.0
3349,32.0,0.0,480.0,5.0,0.0
3350,44.0,120.0,120.0,4.0,0.0
3351,62.0,0.0,240.0,2.0,0.0
3352,48.0,120.0,120.0,4.0,0.0
3353,54.0,120.0,120.0,4.0,0.0
3354,56.0,240.0,480.0,1.0,0.0
3355,48.0,120.0,120.0,4.0,0.0
3356,68.0,0.0,480.0,1.0,0.0
3357,63.0,0.0,240.0,2.0,0.0
3358,44.0,120.0,120.0,4.0,0.0
3359,48.0,120.0,120.0,4.0,0.0
3360,65.0,0.0,240.0,2.0,0.0
3361,54.0,0.0,120.0,4.0,0.0
3362,37.0,1080.0,720.0,5.0,0.0
3363,66.0,0.0,480.0,1.0,0.0
3364,63.0,240.0,480.0,2.0,0.0
3365,56.0,0.0,720.0,1.0,0.0
3366,44.0,120.0,120.0,4.0,0.0
3367,48.0,120.0,120.0,4.0,0.0
3368,49.0,0.0,120.0,4.0,0.0
3369,65.0,0.0,240.0,1.0,0.0
3370,61.0,0.0,240.0,2.0,0.0
3371,36.0,0.0,240.0,5.0,0.0
3372,76.0,120.0,120.0,1.0,0.0
3373,82.0,120.0,240.0,2.0,0.0
3374,77.0,0.0,120.0,1.0,0.0
3375,73.0,120.0,120.0,1.0,0.0
3376,48.0,0.0,720.0,5.0,0.0
3377,58.0,0.0,720.0,4.0,0.0
3378,82.0,0.0,240.0,2.0,0.0
3379,55.0,0.0,720.0,4.0,0.0
3380,75.0,0.0,120.0,1.0,0.0
3381,70.0,120.0,120.0,1.0,0.0
3382,79.0,120.0,15.0,2.0,0.0
3383,72.0,0.0,120.0,1.0,0.0
3384,67.0,120.0,120.0,1.0,0.0
3385,73.0,0.0,240.0,2.0,0.0
3386,76.0,0.0,15.0,2.0,0.0
3387,68.0,120.0,120.0,1.0,0.0
3388,36.0,0.0,240.0,5.0,0.0
3389,64.0,120.0,120.0,1.0,0.0
3390,65.0,240.0,120.0,1.0,0.0
3391,58.0,0.0,720.0,4.0,0.0
3392,55.0,0.0,720.0,4.0,0.0
3393,70.0,0.0,15.0,2.0,0.0
3394,73.0,0.0,15.0,2.0,0.0
3395,48.0,0.0,720.0,5.0,0.0
3396,67.0,0.0,240.0,1.0,0.0
3397,70.0,120.0,15.0,2.0,0.0
3398,64.0,120.0,120.0,1.0,0.0
3399,65.0,0.0,120.0,1.0,0.0
3400,72.0,0.0,15.0,2.0,0.0
3401,67.0,120.0,240.0,1.0,0.0
3402,70.0,240.0,15.0,2.0,0.0
3403,73.0,0.0,240.0,2.0,0.0
3404,70.0,0.0,240.0,2.0,0.0
3405,63.0,120.0,120.0,1.0,0.0
3406,42.0,240.0,240.0,5.0,0.0
3407,65.0,0.0,120.0,1.0,0.0
3408,73.0,0.0,240.0,2.0,0.0
3409,54.0,0.0,720.0,4.0,0.0
3410,66.0,0.0,240.0,1.0,0.0
3411,58.0,0.0,720.0,4.0,0.0
3412,51.0,1080.0,720.0,5.0,0.0
3413,63.0,120.0,120.0,1.0,0.0
3414,70.0,120.0,15.0,2.0,0.0
3415,65.0,240.0,120.0,1.0,0.0
3416,70.0,0.0,15.0,2.0,0.0
3417,72.0,0.0,15.0,2.0,0.0
3418,66.0,0.0,240.0,1.0,0.0
3419,84.0,120.0,240.0,2.0,0.0
3420,38.0,0.0,240.0,5.0,0.0
3421,78.0,120.0,120.0,1.0,0.0
3422,79.0,0.0,120.0,1.0,0.0
3423,75.0,120.0,120.0,1.0,0.0
3424,50.0,0.0,720.0,5.0,0.0
3425,57.0,120.0,720.0,4.0,0.0
3426,60.0,0.0,720.0,4.0,0.0
3427,84.0,120.0,240.0,2.0,0.0
3428,77.0,0.0,120.0,1.0,0.0
3429,81.0,0.0,15.0,2.0,0.0
3430,72.0,120.0,120.0,1.0,0.0
3431,78.0,0.0,240.0,2.0,0.0
3432,74.0,0.0,120.0,1.0,0.0
3433,69.0,120.0,120.0,1.0,0.0
3434,78.0,0.0,240.0,2.0,0.0
3435,70.0,0.0,120.0,1.0,0.0
3436,75.0,0.0,15.0,2.0,0.0
3437,38.0,0.0,240.0,5.0,0.0
3438,66.0,120.0,120.0,1.0,0.0
3439,67.0,0.0,120.0,1.0,0.0
3440,69.0,120.0,240.0,1.0,0.0
3441,50.0,0.0,720.0,5.0,0.0
3442,57.0,0.0,720.0,4.0,0.0
3443,60.0,0.0,720.0,4.0,0.0
3444,75.0,0.0,15.0,2.0,0.0
3445,72.0,240.0,15.0,2.0,0.0
3446,66.0,120.0,120.0,1.0,0.0
3447,74.0,0.0,240.0,2.0,0.0
3448,67.0,240.0,120.0,1.0,0.0
3449,72.0,0.0,15.0,2.0,0.0
3450,74.0,0.0,240.0,2.0,0.0
3451,69.0,120.0,240.0,1.0,0.0
3452,72.0,0.0,15.0,2.0,0.0
3453,44.0,0.0,240.0,5.0,0.0
3454,65.0,120.0,120.0,1.0,0.0
3455,67.0,240.0,120.0,1.0,0.0
3456,60.0,0.0,720.0,4.0,0.0
3457,56.0,1080.0,720.0,4.0,0.0
3458,53.0,0.0,720.0,5.0,0.0
3459,72.0,0.0,15.0,2.0,0.0
3460,75.0,0.0,15.0,2.0,0.0
3461,68.0,0.0,240.0,1.0,0.0
3462,72.0,0.0,15.0,2.0,0.0
3463,74.0,0.0,240.0,2.0,0.0
3464,65.0,120.0,120.0,1.0,0.0
3465,67.0,240.0,120.0,1.0,0.0
3466,68.0,0.0,240.0,1.0,0.0
3467,74.0,0.0,240.0,2.0,0.0
3468,72.0,0.0,240.0,2.0,0.0
3469,74.0,120.0,240.0,2.0,0.0
3470,65.0,120.0,120.0,1.0,0.0
3471,77.0,0.0,240.0,2.0,0.0
3472,67.0,0.0,120.0,1.0,0.0
3473,43.0,120.0,120.0,5.0,0.0
3474,77.0,120.0,240.0,2.0,0.0
3475,74.0,0.0,240.0,2.0,0.0
3476,68.0,0.0,240.0,1.0,0.0
3477,50.0,0.0,120.0,4.0,0.0
3478,67.0,120.0,120.0,1.0,0.0
3479,59.0,0.0,120.0,4.0,0.0
3480,74.0,120.0,240.0,2.0,0.0
3481,68.0,0.0,120.0,1.0,0.0
3482,43.0,120.0,120.0,5.0,0.0
3483,67.0,0.0,240.0,1.0,0.0
3484,74.0,0.0,240.0,2.0,0.0
3485,50.0,120.0,120.0,4.0,0.0
3486,65.0,0.0,120.0,1.0,0.0
3487,59.0,120.0,120.0,4.0,0.0
3488,77.0,120.0,240.0,2.0,0.0
3489,74.0,0.0,240.0,2.0,0.0
3490,67.0,0.0,120.0,1.0,0.0
3491,70.0,0.0,120.0,1.0,0.0
3492,36.0,120.0,120.0,5.0,0.0
3493,77.0,0.0,240.0,2.0,0.0
3494,48.0,0.0,120.0,4.0,0.0
3495,68.0,120.0,120.0,1.0,0.0
3496,73.0,0.0,15.0,2.0,0.0
3497,76.0,120.0,240.0,2.0,0.0
3498,67.0,120.0,120.0,1.0,0.0
3499,58.0,0.0,120.0,4.0,0.0
3500,68.0,0.0,120.0,1.0,0.0
3501,67.0,0.0,240.0,1.0,0.0
3502,36.0,120.0,120.0,5.0,0.0
3503,48.0,120.0,120.0,4.0,0.0
3504,73.0,0.0,15.0,2.0,0.0
3505,76.0,0.0,15.0,2.0,0.0
3506,68.0,0.0,120.0,1.0,0.0
3507,58.0,120.0,120.0,4.0,0.0
3508,70.0,120.0,120.0,1.0,0.0
3509,68.0,0.0,240.0,2.0,0.0
3510,44.0,120.0,120.0,5.0,0.0
3511,77.0,0.0,240.0,2.0,0.0
3512,72.0,0.0,240.0,1.0,0.0
3513,56.0,120.0,120.0,4.0,0.0
3514,77.0,0.0,240.0,2.0,0.0
3515,60.0,0.0,120.0,4.0,0.0
3516,68.0,0.0,240.0,2.0,0.0
3517,70.0,120.0,120.0,1.0,0.0
3518,72.0,120.0,120.0,1.0,0.0
3519,77.0,0.0,240.0,2.0,0.0
3520,73.0,0.0,240.0,1.0,0.0
3521,41.0,120.0,120.0,5.0,0.0
3522,56.0,0.0,120.0,4.0,0.0
3523,68.0,120.0,15.0,2.0,0.0
3524,72.0,120.0,120.0,1.0,0.0
3525,61.0,0.0,120.0,4.0,0.0
3526,77.0,0.0,240.0,2.0,0.0
3527,73.0,0.0,120.0,1.0,0.0
3528,70.0,120.0,240.0,2.0,0.0
3529,79.0,0.0,240.0,2.0,0.0
3530,75.0,0.0,240.0,1.0,0.0
3531,43.0,120.0,120.0,5.0,0.0
3532,55.0,0.0,120.0,4.0,0.0
3533,44.0,120.0,120.0,5.0,0.0
3534,68.0,0.0,240.0,2.0,0.0
3535,77.0,0.0,240.0,2.0,0.0
3536,72.0,0.0,120.0,1.0,0.0
3537,56.0,120.0,120.0,4.0,0.0
3538,73.0,0.0,120.0,1.0,0.0
3539,67.0,0.0,240.0,2.0,0.0
3540,76.0,120.0,240.0,2.0,0.0
3541,70.0,0.0,240.0,1.0,0.0
3542,46.0,120.0,120.0,5.0,0.0
3543,58.0,0.0,120.0,4.0,0.0
3544,72.0,120.0,120.0,1.0,0.0
3545,65.0,120.0,240.0,2.0,0.0
3546,77.0,0.0,240.0,2.0,0.0
3547,44.0,0.0,120.0,5.0,0.0
3548,53.0,0.0,120.0,4.0,0.0
3549,68.0,0.0,120.0,1.0,0.0
3550,70.0,0.0,480.0,1.0,0.0
3551,67.0,0.0,360.0,2.0,0.0
3552,75.0,0.0,360.0,2.0,0.0
3553,46.0,120.0,120.0,5.0,0.0
3554,58.0,120.0,120.0,4.0,0.0
3555,43.0,120.0,120.0,5.0,0.0
3556,65.0,120.0,120.0,2.0,0.0
3557,55.0,0.0,120.0,4.0,0.0
3558,73.0,0.0,120.0,2.0,0.0
3559,48.0,120.0,120.0,5.0,0.0
3560,64.0,0.0,240.0,2.0,0.0
3561,72.0,0.0,240.0,2.0,0.0
3562,67.0,120.0,240.0,1.0,0.0
3563,60.0,0.0,120.0,4.0,0.0
3564,53.0,0.0,120.0,5.0,0.0
3565,61.0,0.0,120.0,4.0,0.0
3566,77.0,0.0,240.0,2.0,0.0
3567,65.0,120.0,120.0,1.0,0.0
3568,56.0,0.0,120.0,4.0,0.0
3569,67.0,120.0,120.0,1.0,0.0
3570,73.0,0.0,15.0,2.0,0.0
3571,77.0,0.0,240.0,2.0,0.0
3572,68.0,0.0,240.0,1.0,0.0
3573,53.0,120.0,120.0,5.0,0.0
3574,49.0,120.0,120.0,5.0,0.0
3575,67.0,120.0,120.0,1.0,0.0
3576,41.0,0.0,120.0,5.0,0.0
3577,49.0,120.0,120.0,5.0,0.0
3578,68.0,0.0,120.0,1.0,0.0
3579,67.0,120.0,240.0,1.0,0.0
3580,77.0,0.0,15.0,2.0,0.0
3581,73.0,0.0,15.0,2.0,0.0
3582,46.0,120.0,120.0,5.0,0.0
3583,53.0,0.0,120.0,5.0,0.0
3584,77.0,0.0,15.0,2.0,0.0
3585,65.0,0.0,120.0,1.0,0.0
3586,61.0,120.0,120.0,4.0,0.0
3587,67.0,0.0,120.0,1.0,0.0
3588,56.0,0.0,120.0,4.0,0.0
3589,77.0,120.0,15.0,2.0,0.0
3590,73.0,0.0,15.0,2.0,0.0
3591,53.0,0.0,120.0,4.0,0.0
3592,70.0,120.0,120.0,1.0,0.0
3593,68.0,120.0,120.0,1.0,0.0
3594,49.0,0.0,120.0,4.0,0.0
3595,73.0,0.0,240.0,2.0,0.0
3596,77.0,0.0,240.0,2.0,0.0
3597,41.0,120.0,120.0,5.0,0.0
3598,67.0,0.0,120.0,1.0,0.0
3599,49.0,120.0,120.0,4.0,0.0
3600,68.0,0.0,120.0,1.0,0.0
3601,67.0,0.0,240.0,1.0,0.0
3602,46.0,120.0,120.0,5.0,0.0
3603,73.0,120.0,240.0,2.0,0.0
3604,53.0,0.0,120.0,4.0,0.0
3605,77.0,0.0,15.0,2.0,0.0
3606,68.0,120.0,120.0,1.0,0.0
3607,61.0,0.0,120.0,4.0,0.0
3608,73.0,0.0,240.0,2.0,0.0
3609,70.0,0.0,120.0,1.0,0.0
3610,55.0,120.0,120.0,4.0,0.0
3611,44.0,120.0,120.0,5.0,0.0
3612,68.0,0.0,240.0,2.0,0.0
3613,77.0,0.0,240.0,2.0,0.0
3614,72.0,0.0,240.0,1.0,0.0
3615,56.0,120.0,120.0,4.0,0.0
3616,70.0,0.0,120.0,1.0,0.0
3617,60.0,120.0,120.0,4.0,0.0
3618,68.0,0.0,240.0,2.0,0.0
3619,77.0,0.0,240.0,2.0,0.0
3620,72.0,0.0,120.0,1.0,0.0
3621,65.0,120.0,120.0,4.0,0.0
3622,74.0,0.0,240.0,1.0,0.0
3623,80.0,0.0,240.0,2.0,0.0
3624,41.0,120.0,120.0,5.0,0.0
3625,56.0,120.0,120.0,4.0,0.0
3626,62.0,120.0,120.0,4.0,0.0
3627,72.0,0.0,120.0,1.0,0.0
3628,80.0,0.0,240.0,2.0,0.0
3629,68.0,0.0,15.0,2.0,0.0
3630,74.0,0.0,120.0,1.0,0.0
3631,65.0,120.0,120.0,4.0,0.0
3632,75.0,0.0,240.0,1.0,0.0
3633,70.0,0.0,240.0,2.0,0.0
3634,79.0,120.0,240.0,2.0,0.0
3635,39.0,120.0,120.0,5.0,0.0
3636,55.0,0.0,120.0,4.0,0.0
3637,41.0,120.0,120.0,5.0,0.0
3638,72.0,0.0,120.0,1.0,0.0
3639,77.0,0.0,240.0,2.0,0.0
3640,68.0,120.0,240.0,2.0,0.0
3641,74.0,0.0,120.0,1.0,0.0
3642,56.0,0.0,120.0,4.0,0.0
3643,70.0,0.0,240.0,1.0,0.0
3644,67.0,0.0,240.0,2.0,0.0
3645,75.0,0.0,240.0,2.0,0.0
3646,43.0,120.0,120.0,5.0,0.0
3647,58.0,120.0,120.0,4.0,0.0
3648,68.0,0.0,240.0,2.0,0.0
3649,75.0,120.0,120.0,1.0,0.0
3650,72.0,0.0,120.0,2.0,0.0
3651,41.0,0.0,120.0,5.0,0.0
3652,74.0,0.0,120.0,2.0,0.0
3653,56.0,120.0,120.0,4.0,0.0
3654,77.0,0.0,120.0,1.0,0.0
3655,39.0,0.0,120.0,5.0,0.0
3656,79.0,120.0,120.0,1.0,0.0
3657,70.0,120.0,240.0,2.0,0.0
3658,67.0,0.0,240.0,2.0,0.0
3659,75.0,0.0,120.0,1.0,0.0
3660,55.0,0.0,120.0,4.0,0.0
3661,72.0,120.0,120.0,1.0,0.0
3662,41.0,0.0,120.0,5.0,0.0
3663,68.0,0.0,120.0,2.0,0.0
3664,65.0,120.0,120.0,2.0,0.0
3665,74.0,0.0,120.0,1.0,0.0
3666,56.0,0.0,120.0,4.0,0.0
3667,43.0,120.0,120.0,5.0,0.0
3668,58.0,120.0,240.0,2.0,0.0
3669,63.0,0.0,240.0,2.0,0.0
3670,70.0,0.0,120.0,1.0,0.0
3671,51.0,0.0,120.0,4.0,0.0
3672,67.0,0.0,120.0,1.0,0.0
3673,48.0,120.0,120.0,4.0,0.0
3674,65.0,0.0,120.0,1.0,0.0
3675,57.0,0.0,240.0,2.0,0.0
3676,63.0,120.0,240.0,2.0,0.0
3677,67.0,0.0,120.0,1.0,0.0
3678,41.0,0.0,120.0,5.0,0.0
3679,43.0,120.0,120.0,5.0,0.0
3680,63.0,0.0,240.0,1.0,0.0
3681,60.0,0.0,240.0,2.0,0.0
3682,55.0,240.0,120.0,4.0,0.0
3683,59.0,120.0,240.0,2.0,0.0
3684,62.0,0.0,240.0,1.0,0.0
3685,60.0,0.0,240.0,1.0,0.0
3686,36.0,120.0,120.0,5.0,0.0
3687,48.0,240.0,120.0,4.0,0.0
3688,72.0,240.0,240.0,1.0,0.0
3689,61.0,240.0,240.0,4.0,0.0
3690,73.0,0.0,240.0,1.0,0.0
3691,49.0,0.0,240.0,5.0,0.0
3692,68.0,240.0,240.0,1.0,0.0
3693,44.0,0.0,240.0,5.0,0.0
3694,41.0,0.0,240.0,5.0,0.0
3695,53.0,0.0,240.0,4.0,0.0
3696,65.0,240.0,240.0,1.0,0.0
3697,44.0,0.0,240.0,5.0,0.0
3698,68.0,240.0,240.0,1.0,0.0
3699,72.0,0.0,240.0,1.0,0.0
3700,48.0,240.0,240.0,5.0,0.0
3701,60.0,0.0,240.0,4.0,0.0
3702,67.0,0.0,240.0,1.0,0.0
3703,43.0,240.0,240.0,5.0,0.0
3704,51.0,0.0,240.0,4.0,0.0
3705,63.0,0.0,240.0,1.0,0.0
3706,39.0,240.0,240.0,5.0,0.0
3707,43.0,0.0,240.0,5.0,0.0
3708,67.0,240.0,240.0,1.0,0.0
3709,70.0,0.0,240.0,1.0,0.0
3710,46.0,120.0,240.0,5.0,0.0
3711,58.0,0.0,240.0,4.0,0.0
3712,68.0,0.0,120.0,1.0,0.0
3713,56.0,0.0,120.0,4.0,0.0
3714,44.0,120.0,120.0,5.0,0.0
3715,67.0,240.0,120.0,1.0,0.0
3716,43.0,0.0,120.0,5.0,0.0
3717,55.0,0.0,120.0,4.0,0.0
3718,65.0,0.0,240.0,1.0,0.0
3719,53.0,0.0,240.0,4.0,0.0
3720,41.0,120.0,240.0,5.0,0.0
3721,51.0,120.0,120.0,4.0,0.0
3722,39.0,0.0,120.0,5.0,0.0
3723,63.0,0.0,120.0,1.0,0.0
3724,62.0,0.0,120.0,1.0,0.0
3725,50.0,0.0,120.0,4.0,0.0
3726,38.0,240.0,120.0,5.0,0.0
3727,55.0,0.0,240.0,4.0,0.0
3728,67.0,0.0,240.0,1.0,0.0
3729,43.0,240.0,240.0,5.0,0.0
3730,44.0,0.0,240.0,5.0,0.0
3731,68.0,240.0,240.0,1.0,0.0
3732,56.0,0.0,240.0,4.0,0.0
3733,41.0,0.0,240.0,5.0,0.0
3734,53.0,0.0,240.0,4.0,0.0
3735,65.0,240.0,240.0,1.0,0.0
3736,43.0,0.0,240.0,5.0,0.0
3737,67.0,0.0,240.0,1.0,0.0
3738,55.0,240.0,240.0,4.0,0.0
3739,56.0,0.0,240.0,5.0,0.0
3740,36.0,0.0,720.0,5.0,0.0
3741,48.0,0.0,720.0,5.0,0.0
3742,59.0,0.0,240.0,4.0,0.0
3743,65.0,240.0,240.0,1.0,0.0
3744,63.0,0.0,240.0,2.0,0.0
3745,60.0,0.0,240.0,4.0,0.0
3746,55.0,240.0,240.0,5.0,0.0
3747,58.0,0.0,240.0,4.0,0.0
3748,62.0,240.0,240.0,2.0,0.0
3749,53.0,0.0,240.0,5.0,0.0
3750,51.0,0.0,240.0,4.0,0.0
3751,72.0,0.0,240.0,1.0,0.0
3752,84.0,120.0,240.0,1.0,0.0
3753,60.0,0.0,240.0,2.0,0.0
3754,48.0,0.0,240.0,5.0,0.0
3755,73.0,0.0,240.0,1.0,0.0
3756,85.0,0.0,240.0,1.0,0.0
3757,53.0,120.0,120.0,5.0,0.0
3758,56.0,0.0,120.0,4.0,0.0
3759,56.0,240.0,120.0,4.0,0.0
3760,80.0,0.0,240.0,1.0,0.0
3761,68.0,120.0,240.0,1.0,0.0
3762,61.0,0.0,120.0,4.0,0.0
3763,56.0,0.0,120.0,5.0,0.0
3764,65.0,0.0,240.0,1.0,0.0
3765,77.0,240.0,240.0,1.0,0.0
3766,60.0,120.0,120.0,4.0,0.0
3767,56.0,0.0,120.0,5.0,0.0
3768,80.0,120.0,240.0,1.0,0.0
3769,68.0,0.0,240.0,1.0,0.0
3770,53.0,0.0,120.0,5.0,0.0
3771,84.0,0.0,240.0,1.0,0.0
3772,51.0,120.0,120.0,5.0,0.0
3773,72.0,240.0,240.0,1.0,0.0
3774,55.0,0.0,120.0,4.0,0.0
3775,55.0,0.0,120.0,4.0,0.0
3776,79.0,120.0,240.0,1.0,0.0
3777,67.0,0.0,240.0,1.0,0.0
3778,60.0,0.0,120.0,4.0,0.0
3779,55.0,120.0,120.0,5.0,0.0
3780,63.0,0.0,240.0,1.0,0.0
3781,75.0,240.0,240.0,1.0,0.0
3782,58.0,0.0,120.0,4.0,0.0
3783,55.0,0.0,120.0,5.0,0.0
3784,79.0,0.0,240.0,1.0,0.0
3785,67.0,120.0,240.0,1.0,0.0
3786,51.0,0.0,120.0,5.0,0.0
3787,50.0,0.0,120.0,5.0,0.0
3788,82.0,0.0,240.0,1.0,0.0
3789,70.0,0.0,240.0,1.0,0.0
3790,53.0,120.0,15.0,4.0,0.0
3791,68.0,120.0,120.0,1.0,0.0
3792,80.0,0.0,120.0,1.0,0.0
3793,79.0,0.0,120.0,1.0,0.0
3794,58.0,0.0,120.0,4.0,0.0
3795,67.0,120.0,120.0,1.0,0.0
3796,49.0,0.0,120.0,5.0,0.0
3797,65.0,120.0,240.0,1.0,0.0
3798,77.0,0.0,240.0,1.0,0.0
3799,56.0,120.0,15.0,4.0,0.0
3800,79.0,0.0,120.0,1.0,0.0
3801,67.0,120.0,120.0,1.0,0.0
3802,68.0,0.0,120.0,1.0,0.0
3803,80.0,0.0,120.0,1.0,0.0
3804,53.0,240.0,120.0,4.0,0.0
3805,48.0,0.0,240.0,5.0,0.0
3806,72.0,0.0,240.0,1.0,0.0
3807,68.0,0.0,120.0,2.0,0.0
3808,65.0,0.0,120.0,2.0,0.0
3809,56.0,0.0,120.0,4.0,0.0
3810,53.0,240.0,120.0,4.0,0.0
3811,60.0,0.0,120.0,4.0,0.0
3812,49.0,0.0,240.0,5.0,0.0
3813,73.0,0.0,240.0,1.0,0.0
3814,65.0,0.0,120.0,2.0,0.0
3815,61.0,240.0,120.0,4.0,0.0
3816,53.0,0.0,120.0,4.0,0.0
3817,68.0,0.0,120.0,2.0,0.0
3818,56.0,0.0,120.0,4.0,0.0
3819,46.0,0.0,240.0,5.0,0.0
3820,70.0,0.0,240.0,1.0,0.0
3821,67.0,0.0,120.0,2.0,0.0
3822,53.0,0.0,120.0,4.0,0.0
3823,55.0,240.0,120.0,4.0,0.0
3824,65.0,0.0,120.0,2.0,0.0
3825,58.0,0.0,120.0,4.0,0.0
3826,48.0,0.0,240.0,5.0,0.0
3827,72.0,240.0,240.0,1.0,0.0
3828,64.0,0.0,120.0,2.0,0.0
3829,67.0,0.0,120.0,2.0,0.0
3830,52.0,0.0,120.0,4.0,0.0
3831,55.0,0.0,120.0,4.0,0.0
3832,60.0,0.0,120.0,4.0,0.0
3833,49.0,240.0,240.0,5.0,0.0
3834,41.0,0.0,960.0,5.0,0.0
3835,58.0,0.0,240.0,4.0,0.0
3836,56.0,0.0,240.0,4.0,0.0
3837,48.0,240.0,240.0,5.0,0.0
3838,55.0,0.0,240.0,4.0,0.0
3839,46.0,0.0,240.0,5.0,0.0
3840,65.0,120.0,15.0,1.0,0.0
3841,44.0,0.0,240.0,5.0,0.0
3842,53.0,120.0,240.0,4.0,0.0
3843,77.0,120.0,120.0,1.0,0.0
3844,67.0,0.0,120.0,1.0,0.0
3845,79.0,0.0,120.0,1.0,0.0
3846,38.0,120.0,120.0,5.0,0.0
3847,80.0,0.0,720.0,1.0,0.0
3848,68.0,0.0,720.0,1.0,0.0
3849,72.0,120.0,720.0,2.0,0.0
3850,77.0,0.0,720.0,2.0,0.0
3851,53.0,120.0,120.0,4.0,0.0
3852,56.0,120.0,120.0,4.0,0.0
3853,60.0,120.0,120.0,4.0,0.0
3854,65.0,120.0,120.0,4.0,0.0
3855,79.0,120.0,120.0,1.0,0.0
3856,67.0,0.0,120.0,1.0,0.0
3857,68.0,0.0,120.0,1.0,0.0
3858,80.0,120.0,120.0,1.0,0.0
3859,43.0,120.0,120.0,5.0,0.0
3860,77.0,0.0,720.0,2.0,0.0
3861,71.0,0.0,720.0,2.0,0.0
3862,79.0,0.0,720.0,1.0,0.0
3863,67.0,120.0,720.0,1.0,0.0
3864,53.0,120.0,120.0,4.0,0.0
3865,59.0,120.0,120.0,4.0,0.0
3866,62.0,120.0,120.0,4.0,0.0
3867,65.0,120.0,120.0,4.0,0.0
3868,65.0,0.0,120.0,1.0,0.0
3869,77.0,120.0,120.0,1.0,0.0
3870,79.0,120.0,120.0,1.0,0.0
3871,67.0,0.0,120.0,1.0,0.0
3872,82.0,0.0,600.0,1.0,0.0
3873,31.0,120.0,120.0,5.0,0.0
3874,73.0,120.0,960.0,2.0,0.0
3875,70.0,0.0,600.0,1.0,0.0
3876,53.0,120.0,120.0,4.0,0.0
3877,58.0,120.0,120.0,4.0,0.0
3878,61.0,120.0,120.0,4.0,0.0
3879,65.0,120.0,120.0,4.0,0.0
3880,68.0,0.0,120.0,1.0,0.0
3881,80.0,120.0,120.0,1.0,0.0
3882,67.0,0.0,120.0,1.0,0.0
3883,79.0,120.0,120.0,1.0,0.0
3884,80.0,0.0,120.0,1.0,0.0
3885,68.0,0.0,120.0,1.0,0.0
3886,36.0,0.0,120.0,5.0,0.0
3887,70.0,0.0,120.0,1.0,0.0
3888,82.0,120.0,120.0,1.0,0.0
3889,77.0,0.0,15.0,2.0,0.0
3890,72.0,0.0,480.0,2.0,0.0
3891,53.0,120.0,120.0,4.0,0.0
3892,68.0,0.0,120.0,1.0,0.0
3893,80.0,0.0,120.0,1.0,0.0
3894,67.0,0.0,120.0,1.0,0.0
3895,79.0,0.0,120.0,1.0,0.0
3896,60.0,120.0,120.0,4.0,0.0
3897,65.0,0.0,120.0,4.0,0.0
3898,68.0,120.0,120.0,1.0,0.0
3899,80.0,0.0,120.0,1.0,0.0
3900,48.0,120.0,120.0,5.0,0.0
3901,79.0,120.0,360.0,1.0,0.0
3902,76.0,0.0,480.0,2.0,0.0
3903,70.0,0.0,480.0,2.0,0.0
3904,67.0,0.0,360.0,1.0,0.0
3905,60.0,120.0,120.0,4.0,0.0
3906,55.0,0.0,120.0,4.0,0.0
3907,64.0,0.0,120.0,4.0,0.0
3908,58.0,0.0,120.0,4.0,0.0
3909,65.0,240.0,120.0,1.0,0.0
3910,77.0,0.0,120.0,1.0,0.0
3911,68.0,0.0,1920.0,2.0,0.0
3912,72.0,0.0,1920.0,2.0,0.0
3913,41.0,720.0,240.0,5.0,0.0
3914,65.0,0.0,1920.0,1.0,0.0
3915,77.0,0.0,1920.0,1.0,0.0
3916,60.0,0.0,1440.0,4.0,0.0
3917,56.0,0.0,1440.0,4.0,0.0
3918,48.0,960.0,480.0,5.0,0.0
3919,53.0,0.0,960.0,5.0,0.0
