,note,step,duration,channel,velocity
0,70.0,3.0,240.0,10.0,0.0
1,65.0,0.0,240.0,6.0,0.0
2,58.0,2.0,240.0,11.0,0.0
3,53.0,0.0,240.0,6.0,0.0
4,46.0,0.0,240.0,4.0,0.0
5,53.0,2.0,240.0,4.0,0.0
6,58.0,1.0,240.0,12.0,0.0
7,58.0,4.0,240.0,5.0,0.0
8,46.0,3.0,240.0,13.0,0.0
9,34.0,105.0,240.0,14.0,0.0
10,69.0,3.0,60.0,10.0,0.0
11,57.0,4.0,60.0,11.0,0.0
12,57.0,5.0,60.0,12.0,0.0
13,45.0,3.0,60.0,13.0,0.0
14,33.0,45.0,60.0,14.0,0.0
15,70.0,3.0,60.0,10.0,0.0
16,58.0,4.0,60.0,11.0,0.0
17,58.0,5.0,60.0,12.0,0.0
18,46.0,3.0,60.0,13.0,0.0
19,34.0,45.0,60.0,14.0,0.0
20,74.0,3.0,60.0,10.0,0.0
21,62.0,4.0,60.0,11.0,0.0
22,62.0,5.0,60.0,12.0,0.0
23,50.0,3.0,60.0,13.0,0.0
24,38.0,105.0,60.0,14.0,0.0
25,70.0,3.0,120.0,10.0,0.0
26,58.0,4.0,120.0,11.0,0.0
27,58.0,5.0,120.0,12.0,0.0
28,46.0,3.0,120.0,13.0,0.0
29,34.0,105.0,120.0,14.0,0.0
30,67.0,3.0,120.0,10.0,0.0
31,55.0,4.0,120.0,11.0,0.0
32,55.0,5.0,120.0,12.0,0.0
33,43.0,3.0,120.0,13.0,0.0
34,31.0,105.0,120.0,14.0,0.0
35,65.0,3.0,120.0,10.0,0.0
36,53.0,4.0,120.0,11.0,0.0
37,53.0,5.0,120.0,12.0,0.0
38,41.0,3.0,120.0,13.0,0.0
39,29.0,102.0,120.0,14.0,0.0
40,69.0,3.0,120.0,10.0,0.0
41,57.0,4.0,120.0,11.0,0.0
42,57.0,113.0,120.0,12.0,0.0
43,45.0,3.0,120.0,13.0,0.0
44,33.0,0.0,120.0,14.0,0.0
45,70.0,3.0,120.0,10.0,0.0
46,58.0,4.0,120.0,11.0,0.0
47,46.0,3.0,120.0,13.0,0.0
48,34.0,105.0,120.0,14.0,0.0
49,74.0,3.0,120.0,10.0,0.0
50,70.0,4.0,120.0,11.0,0.0
51,58.0,5.0,15.0,12.0,0.0
52,62.0,0.0,120.0,12.0,0.0
53,43.0,3.0,120.0,13.0,0.0
54,31.0,105.0,120.0,14.0,0.0
55,77.0,3.0,120.0,10.0,0.0
56,69.0,4.0,120.0,11.0,0.0
57,65.0,5.0,120.0,12.0,0.0
58,57.0,0.0,120.0,12.0,0.0
59,41.0,3.0,120.0,13.0,0.0
60,29.0,102.0,120.0,14.0,0.0
61,75.0,3.0,120.0,10.0,0.0
62,72.0,4.0,120.0,11.0,0.0
63,63.0,0.0,120.0,12.0,0.0
64,60.0,113.0,120.0,12.0,0.0
65,45.0,3.0,120.0,13.0,0.0
66,33.0,0.0,120.0,14.0,0.0
67,74.0,3.0,120.0,10.0,0.0
68,70.0,4.0,120.0,11.0,0.0
69,62.0,0.0,120.0,12.0,0.0
70,58.0,5.0,120.0,12.0,0.0
71,46.0,3.0,120.0,13.0,0.0
72,34.0,105.0,120.0,14.0,0.0
73,82.0,3.0,120.0,10.0,0.0
74,76.0,4.0,120.0,11.0,0.0
75,64.0,0.0,120.0,12.0,0.0
76,70.0,5.0,120.0,12.0,0.0
77,43.0,3.0,120.0,13.0,0.0
78,31.0,105.0,120.0,14.0,0.0
79,81.0,3.0,120.0,10.0,0.0
80,77.0,4.0,120.0,11.0,0.0
81,69.0,0.0,120.0,12.0,0.0
82,65.0,5.0,120.0,12.0,0.0
83,41.0,3.0,120.0,13.0,0.0
84,29.0,90.0,120.0,14.0,0.0
85,77.0,3.0,120.0,10.0,0.0
86,72.0,4.0,120.0,11.0,0.0
87,60.0,0.0,120.0,12.0,0.0
88,65.0,5.0,120.0,12.0,0.0
89,45.0,3.0,120.0,13.0,0.0
90,33.0,72.0,120.0,14.0,0.0
91,79.0,3.0,120.0,10.0,0.0
92,67.0,4.0,120.0,11.0,0.0
93,67.0,0.0,120.0,12.0,0.0
94,62.0,65.0,120.0,12.0,0.0
95,46.0,3.0,60.0,13.0,0.0
96,34.0,45.0,60.0,14.0,0.0
97,74.0,3.0,120.0,10.0,0.0
98,70.0,4.0,120.0,11.0,0.0
99,58.0,0.0,120.0,12.0,0.0
100,62.0,65.0,120.0,12.0,0.0
101,43.0,3.0,60.0,13.0,0.0
102,31.0,45.0,60.0,14.0,0.0
103,77.0,3.0,120.0,10.0,0.0
104,65.0,4.0,120.0,11.0,0.0
105,65.0,0.0,120.0,12.0,0.0
106,45.0,3.0,60.0,13.0,0.0
107,33.0,45.0,60.0,14.0,0.0
108,72.0,3.0,120.0,10.0,0.0
109,69.0,4.0,120.0,11.0,0.0
110,57.0,80.0,120.0,12.0,0.0
111,60.0,65.0,15.0,12.0,0.0
112,41.0,3.0,60.0,13.0,0.0
113,29.0,30.0,60.0,14.0,0.0
114,79.0,3.0,120.0,10.0,0.0
115,67.0,4.0,120.0,11.0,0.0
116,67.0,0.0,120.0,12.0,0.0
117,46.0,3.0,60.0,13.0,0.0
118,34.0,45.0,60.0,14.0,0.0
119,74.0,3.0,120.0,10.0,0.0
120,70.0,4.0,120.0,11.0,0.0
121,58.0,65.0,120.0,12.0,0.0
122,62.0,65.0,15.0,12.0,0.0
123,43.0,3.0,60.0,13.0,0.0
124,31.0,45.0,60.0,14.0,0.0
125,77.0,3.0,120.0,10.0,0.0
126,65.0,4.0,120.0,11.0,0.0
127,65.0,65.0,120.0,12.0,0.0
128,45.0,3.0,60.0,13.0,0.0
129,33.0,45.0,60.0,14.0,0.0
130,72.0,3.0,120.0,10.0,0.0
131,69.0,4.0,120.0,11.0,0.0
132,60.0,0.0,15.0,12.0,0.0
133,57.0,80.0,120.0,12.0,0.0
134,41.0,3.0,60.0,13.0,0.0
135,29.0,30.0,60.0,14.0,0.0
136,73.0,7.0,180.0,10.0,0.0
137,69.0,4.0,120.0,11.0,0.0
138,57.0,53.0,120.0,12.0,0.0
139,61.0,5.0,180.0,12.0,0.0
140,46.0,3.0,60.0,13.0,0.0
141,34.0,48.0,60.0,14.0,0.0
142,70.0,4.0,240.0,11.0,0.0
143,43.0,3.0,60.0,13.0,0.0
144,31.0,45.0,60.0,14.0,0.0
145,74.0,7.0,60.0,10.0,0.0
146,62.0,53.0,60.0,12.0,0.0
147,72.0,7.0,60.0,10.0,0.0
148,60.0,5.0,60.0,12.0,0.0
149,50.0,3.0,60.0,13.0,0.0
150,38.0,33.0,60.0,14.0,0.0
151,70.0,7.0,60.0,10.0,0.0
152,58.0,8.0,60.0,12.0,0.0
153,69.0,7.0,60.0,10.0,0.0
154,62.0,4.0,120.0,11.0,0.0
155,50.0,53.0,120.0,12.0,0.0
156,57.0,5.0,60.0,12.0,0.0
157,46.0,3.0,60.0,13.0,0.0
158,34.0,45.0,60.0,14.0,0.0
159,67.0,3.0,60.0,10.0,0.0
160,55.0,0.0,60.0,12.0,0.0
161,70.0,7.0,60.0,10.0,0.0
162,65.0,4.0,120.0,11.0,0.0
163,53.0,8.0,120.0,12.0,0.0
164,58.0,5.0,60.0,12.0,0.0
165,48.0,3.0,60.0,13.0,0.0
166,36.0,33.0,60.0,14.0,0.0
167,69.0,7.0,60.0,10.0,0.0
168,57.0,53.0,60.0,12.0,0.0
169,67.0,7.0,60.0,10.0,0.0
170,65.0,4.0,240.0,11.0,0.0
171,55.0,5.0,60.0,12.0,0.0
172,45.0,3.0,60.0,13.0,0.0
173,33.0,45.0,60.0,14.0,0.0
174,65.0,72.0,60.0,10.0,0.0
175,53.0,0.0,180.0,12.0,0.0
176,67.0,3.0,240.0,10.0,0.0
177,55.0,65.0,240.0,12.0,0.0
178,48.0,3.0,60.0,13.0,0.0
179,36.0,48.0,60.0,14.0,0.0
180,64.0,4.0,120.0,11.0,0.0
181,52.0,15.0,120.0,12.0,0.0
182,36.0,3.0,60.0,13.0,0.0
183,24.0,30.0,60.0,14.0,0.0
184,65.0,3.0,120.0,10.0,0.0
185,65.0,4.0,120.0,11.0,0.0
186,53.0,128.0,120.0,12.0,0.0
187,53.0,3.0,60.0,13.0,0.0
188,41.0,30.0,60.0,14.0,0.0
189,77.0,3.0,120.0,10.0,0.0
190,65.0,4.0,120.0,11.0,0.0
191,65.0,4.0,120.0,12.0,0.0
192,53.0,109.0,120.0,3.0,0.0
193,41.0,48.0,840.0,13.0,0.0
194,29.0,12.0,840.0,14.0,0.0
195,72.0,3.0,120.0,10.0,0.0
196,60.0,4.0,120.0,11.0,0.0
197,60.0,4.0,120.0,12.0,0.0
198,48.0,109.0,120.0,3.0,0.0
199,74.0,3.0,120.0,10.0,0.0
200,62.0,4.0,120.0,11.0,0.0
201,62.0,4.0,120.0,12.0,0.0
202,50.0,109.0,120.0,3.0,0.0
203,69.0,3.0,120.0,10.0,0.0
204,57.0,4.0,120.0,11.0,0.0
205,57.0,4.0,120.0,12.0,0.0
206,45.0,109.0,120.0,3.0,0.0
207,72.0,3.0,120.0,10.0,0.0
208,60.0,4.0,120.0,11.0,0.0
209,60.0,4.0,120.0,12.0,0.0
210,48.0,49.0,120.0,3.0,0.0
211,67.0,3.0,60.0,10.0,0.0
212,55.0,4.0,60.0,11.0,0.0
213,55.0,4.0,60.0,12.0,0.0
214,43.0,49.0,60.0,3.0,0.0
215,70.0,3.0,60.0,10.0,0.0
216,58.0,4.0,60.0,11.0,0.0
217,58.0,4.0,60.0,12.0,0.0
218,46.0,49.0,60.0,3.0,0.0
219,69.0,3.0,60.0,10.0,0.0
220,57.0,4.0,60.0,11.0,0.0
221,57.0,4.0,60.0,12.0,0.0
222,45.0,34.0,60.0,3.0,0.0
223,67.0,3.0,60.0,10.0,0.0
224,55.0,4.0,60.0,11.0,0.0
225,55.0,4.0,60.0,12.0,0.0
226,43.0,4.0,60.0,3.0,0.0
227,69.0,3.0,60.0,10.0,0.0
228,57.0,4.0,60.0,11.0,0.0
229,57.0,4.0,60.0,12.0,0.0
230,45.0,1.0,60.0,3.0,0.0
231,53.0,3.0,60.0,13.0,0.0
232,41.0,45.0,60.0,14.0,0.0
233,65.0,3.0,60.0,10.0,0.0
234,53.0,4.0,60.0,11.0,0.0
235,53.0,4.0,60.0,12.0,0.0
236,41.0,61.0,60.0,3.0,0.0
237,77.0,3.0,120.0,10.0,0.0
238,65.0,4.0,120.0,11.0,0.0
239,65.0,4.0,120.0,12.0,0.0
240,53.0,61.0,120.0,3.0,0.0
241,41.0,48.0,60.0,13.0,0.0
242,29.0,60.0,840.0,14.0,0.0
243,72.0,3.0,120.0,10.0,0.0
244,60.0,4.0,120.0,11.0,0.0
245,60.0,4.0,120.0,12.0,0.0
246,48.0,61.0,120.0,3.0,0.0
247,57.0,48.0,60.0,13.0,0.0
248,74.0,3.0,120.0,10.0,0.0
249,62.0,4.0,120.0,11.0,0.0
250,62.0,4.0,120.0,12.0,0.0
251,50.0,61.0,120.0,3.0,0.0
252,45.0,48.0,60.0,13.0,0.0
253,69.0,3.0,120.0,10.0,0.0
254,57.0,4.0,120.0,11.0,0.0
255,57.0,4.0,120.0,12.0,0.0
256,45.0,61.0,120.0,3.0,0.0
257,53.0,48.0,60.0,13.0,0.0
258,72.0,3.0,120.0,10.0,0.0
259,60.0,4.0,120.0,11.0,0.0
260,60.0,4.0,120.0,12.0,0.0
261,48.0,49.0,120.0,3.0,0.0
262,41.0,48.0,60.0,13.0,0.0
263,67.0,3.0,60.0,10.0,0.0
264,55.0,4.0,60.0,11.0,0.0
265,55.0,4.0,60.0,12.0,0.0
266,43.0,1.0,60.0,3.0,0.0
267,48.0,48.0,60.0,13.0,0.0
268,70.0,3.0,60.0,10.0,0.0
269,58.0,4.0,60.0,11.0,0.0
270,58.0,4.0,60.0,12.0,0.0
271,46.0,49.0,60.0,3.0,0.0
272,69.0,3.0,60.0,10.0,0.0
273,57.0,4.0,60.0,11.0,0.0
274,57.0,4.0,60.0,12.0,0.0
275,45.0,1.0,60.0,3.0,0.0
276,36.0,33.0,60.0,13.0,0.0
277,67.0,3.0,60.0,10.0,0.0
278,55.0,4.0,60.0,11.0,0.0
279,55.0,4.0,60.0,12.0,0.0
280,43.0,4.0,60.0,3.0,0.0
281,65.0,3.0,60.0,10.0,0.0
282,53.0,4.0,60.0,11.0,0.0
283,53.0,5.0,60.0,12.0,0.0
284,41.0,4.0,120.0,3.0,0.0
285,41.0,3.0,60.0,13.0,0.0
286,29.0,41.0,60.0,14.0,0.0
287,57.0,3.0,60.0,10.0,0.0
288,57.0,4.0,60.0,11.0,0.0
289,57.0,5.0,60.0,12.0,0.0
290,45.0,3.0,60.0,13.0,0.0
291,33.0,45.0,60.0,14.0,0.0
292,55.0,3.0,60.0,10.0,0.0
293,89.0,2.0,120.0,0.0,0.0
294,55.0,4.0,60.0,11.0,0.0
295,77.0,0.0,120.0,2.0,0.0
296,55.0,5.0,60.0,12.0,0.0
297,65.0,1.0,120.0,3.0,0.0
298,43.0,3.0,60.0,13.0,0.0
299,31.0,45.0,60.0,14.0,0.0
300,53.0,1.0,60.0,10.0,0.0
301,53.0,4.0,60.0,11.0,0.0
302,53.0,4.0,60.0,12.0,0.0
303,41.0,3.0,60.0,13.0,0.0
304,29.0,105.0,60.0,14.0,0.0
305,52.0,1.0,120.0,10.0,0.0
306,84.0,2.0,120.0,0.0,0.0
307,52.0,4.0,120.0,11.0,0.0
308,72.0,0.0,120.0,2.0,0.0
309,52.0,4.0,120.0,12.0,0.0
310,60.0,1.0,120.0,3.0,0.0
311,40.0,3.0,120.0,13.0,0.0
312,28.0,106.0,120.0,14.0,0.0
313,53.0,1.0,240.0,10.0,0.0
314,86.0,6.0,120.0,0.0,0.0
315,53.0,4.0,240.0,11.0,0.0
316,53.0,0.0,240.0,12.0,0.0
317,74.0,4.0,120.0,2.0,0.0
318,62.0,109.0,120.0,3.0,0.0
319,41.0,3.0,240.0,13.0,0.0
320,29.0,105.0,240.0,14.0,0.0
321,81.0,2.0,120.0,0.0,0.0
322,69.0,4.0,120.0,2.0,0.0
323,57.0,1.0,120.0,3.0,0.0
324,57.0,1.0,120.0,10.0,0.0
325,84.0,2.0,120.0,0.0,0.0
326,57.0,4.0,120.0,11.0,0.0
327,57.0,0.0,120.0,12.0,0.0
328,72.0,4.0,120.0,2.0,0.0
329,60.0,1.0,120.0,3.0,0.0
330,45.0,3.0,120.0,13.0,0.0
331,33.0,46.0,120.0,14.0,0.0
332,60.0,1.0,120.0,10.0,0.0
333,79.0,6.0,60.0,0.0,0.0
334,60.0,4.0,120.0,11.0,0.0
335,67.0,4.0,60.0,2.0,0.0
336,60.0,0.0,120.0,12.0,0.0
337,55.0,49.0,60.0,3.0,0.0
338,48.0,3.0,120.0,13.0,0.0
339,36.0,46.0,120.0,14.0,0.0
340,82.0,2.0,60.0,0.0,0.0
341,70.0,4.0,60.0,2.0,0.0
342,58.0,1.0,60.0,3.0,0.0
343,64.0,1.0,120.0,10.0,0.0
344,81.0,6.0,60.0,0.0,0.0
345,64.0,4.0,120.0,11.0,0.0
346,52.0,0.0,120.0,12.0,0.0
347,69.0,4.0,60.0,2.0,0.0
348,57.0,34.0,60.0,3.0,0.0
349,52.0,3.0,120.0,13.0,0.0
350,40.0,60.0,120.0,14.0,0.0
351,79.0,2.0,60.0,0.0,0.0
352,67.0,4.0,60.0,2.0,0.0
353,55.0,1.0,60.0,3.0,0.0
354,65.0,1.0,60.0,10.0,0.0
355,81.0,2.0,60.0,0.0,0.0
356,65.0,4.0,60.0,11.0,0.0
357,69.0,0.0,60.0,2.0,0.0
358,53.0,4.0,60.0,12.0,0.0
359,57.0,1.0,60.0,3.0,0.0
360,53.0,3.0,60.0,13.0,0.0
361,41.0,45.0,60.0,14.0,0.0
362,69.0,1.0,60.0,10.0,0.0
363,77.0,2.0,60.0,0.0,0.0
364,69.0,4.0,60.0,11.0,0.0
365,65.0,4.0,60.0,2.0,0.0
366,57.0,0.0,60.0,12.0,0.0
367,53.0,1.0,60.0,3.0,0.0
368,57.0,3.0,60.0,13.0,0.0
369,45.0,45.0,60.0,14.0,0.0
370,67.0,3.0,60.0,10.0,0.0
371,89.0,2.0,120.0,0.0,0.0
372,67.0,4.0,60.0,11.0,0.0
373,77.0,4.0,120.0,2.0,0.0
374,55.0,5.0,60.0,12.0,0.0
375,65.0,1.0,120.0,3.0,0.0
376,55.0,3.0,60.0,13.0,0.0
377,43.0,45.0,60.0,14.0,0.0
378,65.0,1.0,60.0,10.0,0.0
379,65.0,4.0,60.0,11.0,0.0
380,53.0,0.0,60.0,12.0,0.0
381,53.0,3.0,60.0,13.0,0.0
382,41.0,105.0,60.0,14.0,0.0
383,64.0,1.0,120.0,10.0,0.0
384,84.0,2.0,120.0,0.0,0.0
385,64.0,4.0,120.0,11.0,0.0
386,72.0,4.0,120.0,2.0,0.0
387,52.0,0.0,120.0,12.0,0.0
388,60.0,1.0,120.0,3.0,0.0
389,52.0,3.0,120.0,13.0,0.0
390,40.0,106.0,120.0,14.0,0.0
391,65.0,1.0,240.0,10.0,0.0
392,86.0,6.0,120.0,0.0,0.0
393,65.0,4.0,240.0,11.0,0.0
394,53.0,4.0,240.0,12.0,0.0
395,74.0,4.0,120.0,2.0,0.0
396,62.0,109.0,120.0,3.0,0.0
397,53.0,3.0,240.0,13.0,0.0
398,41.0,105.0,240.0,14.0,0.0
399,81.0,2.0,120.0,0.0,0.0
400,69.0,0.0,120.0,2.0,0.0
401,57.0,1.0,120.0,3.0,0.0
402,69.0,1.0,120.0,10.0,0.0
403,84.0,2.0,120.0,0.0,0.0
404,57.0,4.0,120.0,11.0,0.0
405,72.0,4.0,120.0,2.0,0.0
406,57.0,0.0,120.0,12.0,0.0
407,60.0,1.0,120.0,3.0,0.0
408,57.0,3.0,120.0,13.0,0.0
409,45.0,46.0,120.0,14.0,0.0
410,72.0,1.0,120.0,10.0,0.0
411,79.0,6.0,60.0,0.0,0.0
412,60.0,4.0,120.0,11.0,0.0
413,60.0,0.0,120.0,12.0,0.0
414,67.0,4.0,60.0,2.0,0.0
415,55.0,49.0,60.0,3.0,0.0
416,60.0,3.0,120.0,13.0,0.0
417,48.0,46.0,120.0,14.0,0.0
418,82.0,2.0,60.0,0.0,0.0
419,70.0,4.0,60.0,2.0,0.0
420,58.0,1.0,60.0,3.0,0.0
421,70.0,3.0,120.0,10.0,0.0
422,81.0,6.0,60.0,0.0,0.0
423,58.0,4.0,120.0,11.0,0.0
424,69.0,4.0,60.0,2.0,0.0
425,58.0,5.0,120.0,12.0,0.0
426,57.0,35.0,60.0,3.0,0.0
427,58.0,3.0,120.0,13.0,0.0
428,46.0,90.0,120.0,14.0,0.0
429,79.0,6.0,60.0,0.0,0.0
430,67.0,4.0,60.0,2.0,0.0
431,55.0,4.0,60.0,3.0,0.0
432,69.0,1.0,120.0,10.0,0.0
433,77.0,2.0,120.0,0.0,0.0
434,57.0,4.0,120.0,11.0,0.0
435,57.0,0.0,120.0,12.0,0.0
436,65.0,4.0,120.0,2.0,0.0
437,53.0,1.0,120.0,3.0,0.0
438,57.0,3.0,120.0,13.0,0.0
439,45.0,121.0,120.0,14.0,0.0
440,68.0,1.0,240.0,10.0,0.0
441,78.0,3.0,120.0,0.0,0.0
442,56.0,1.0,240.0,11.0,0.0
443,78.0,3.0,120.0,1.0,0.0
444,56.0,0.0,240.0,12.0,0.0
445,66.0,4.0,120.0,2.0,0.0
446,54.0,109.0,120.0,3.0,0.0
447,56.0,3.0,240.0,13.0,0.0
448,44.0,91.0,240.0,14.0,0.0
449,75.0,2.0,120.0,0.0,0.0
450,75.0,3.0,120.0,1.0,0.0
451,63.0,4.0,120.0,2.0,0.0
452,51.0,1.0,120.0,3.0,0.0
453,66.0,3.0,120.0,10.0,0.0
454,72.0,3.0,120.0,0.0,0.0
455,54.0,4.0,120.0,11.0,0.0
456,72.0,3.0,120.0,1.0,0.0
457,54.0,5.0,120.0,12.0,0.0
458,60.0,4.0,120.0,2.0,0.0
459,48.0,4.0,120.0,3.0,0.0
460,54.0,3.0,120.0,13.0,0.0
461,42.0,90.0,120.0,14.0,0.0
462,65.0,3.0,120.0,10.0,0.0
463,68.0,3.0,480.0,0.0,0.0
464,53.0,4.0,120.0,11.0,0.0
465,68.0,3.0,480.0,1.0,0.0
466,53.0,5.0,120.0,12.0,0.0
467,56.0,4.0,480.0,2.0,0.0
468,44.0,1.0,480.0,3.0,0.0
469,53.0,3.0,120.0,13.0,0.0
470,41.0,120.0,120.0,14.0,0.0
471,66.0,3.0,120.0,10.0,0.0
472,54.0,4.0,120.0,11.0,0.0
473,54.0,113.0,120.0,12.0,0.0
474,51.0,3.0,240.0,13.0,0.0
475,39.0,90.0,240.0,14.0,0.0
476,63.0,3.0,120.0,10.0,0.0
477,51.0,4.0,120.0,11.0,0.0
478,51.0,5.0,120.0,12.0,0.0
479,60.0,3.0,120.0,10.0,0.0
480,60.0,4.0,120.0,11.0,0.0
481,48.0,9.0,120.0,12.0,0.0
482,52.0,3.0,120.0,13.0,0.0
483,40.0,102.0,120.0,14.0,0.0
484,56.0,243.0,960.0,10.0,0.0
485,56.0,4.0,480.0,11.0,0.0
486,44.0,245.0,480.0,12.0,0.0
487,53.0,3.0,120.0,13.0,0.0
488,41.0,132.0,120.0,14.0,0.0
489,54.0,3.0,120.0,13.0,0.0
490,42.0,117.0,120.0,14.0,0.0
491,51.0,3.0,120.0,13.0,0.0
492,39.0,102.0,120.0,14.0,0.0
493,48.0,3.0,120.0,13.0,0.0
494,36.0,3.0,120.0,14.0,0.0
495,51.0,9.0,720.0,11.0,0.0
496,48.0,236.0,960.0,12.0,0.0
497,44.0,3.0,240.0,13.0,0.0
498,32.0,225.0,240.0,14.0,0.0
499,42.0,3.0,480.0,13.0,0.0
500,30.0,225.0,480.0,14.0,0.0
501,57.0,7.0,480.0,10.0,0.0
502,53.0,9.0,480.0,11.0,0.0
503,41.0,3.0,480.0,13.0,0.0
504,29.0,105.0,480.0,14.0,0.0
505,60.0,3.0,360.0,10.0,0.0
506,45.0,5.0,360.0,12.0,0.0
507,54.0,4.0,120.0,11.0,0.0
508,39.0,3.0,120.0,13.0,0.0
509,27.0,195.0,120.0,14.0,0.0
510,87.0,3.0,30.0,10.0,0.0
511,75.0,4.0,30.0,11.0,0.0
512,60.0,4.0,30.0,12.0,0.0
513,53.0,0.0,30.0,12.0,0.0
514,33.0,1.0,30.0,3.0,0.0
515,33.0,3.0,30.0,13.0,0.0
516,33.0,27.0,30.0,14.0,0.0
517,84.0,3.0,30.0,10.0,0.0
518,81.0,0.0,240.0,0.0,0.0
519,87.0,2.0,240.0,0.0,0.0
520,77.0,0.0,240.0,6.0,0.0
521,65.0,1.0,240.0,6.0,0.0
522,72.0,4.0,30.0,11.0,0.0
523,75.0,1.0,240.0,1.0,0.0
524,69.0,0.0,240.0,1.0,0.0
525,65.0,2.0,240.0,4.0,0.0
526,53.0,0.0,240.0,4.0,0.0
527,69.0,0.0,240.0,2.0,0.0
528,75.0,1.0,240.0,2.0,0.0
529,53.0,0.0,30.0,12.0,0.0
530,60.0,4.0,30.0,12.0,0.0
531,60.0,19.0,240.0,5.0,0.0
532,63.0,0.0,240.0,5.0,0.0
533,36.0,1.0,30.0,3.0,0.0
534,36.0,3.0,30.0,13.0,0.0
535,41.0,18.0,15.0,15.0,0.0
536,36.0,27.0,30.0,14.0,0.0
537,81.0,3.0,30.0,10.0,0.0
538,69.0,4.0,30.0,11.0,0.0
539,60.0,4.0,30.0,12.0,0.0
540,53.0,0.0,30.0,12.0,0.0
541,39.0,1.0,30.0,3.0,0.0
542,39.0,3.0,30.0,13.0,0.0
543,41.0,18.0,15.0,15.0,0.0
544,39.0,27.0,30.0,14.0,0.0
545,77.0,3.0,30.0,10.0,0.0
546,65.0,4.0,30.0,11.0,0.0
547,53.0,0.0,30.0,12.0,0.0
548,60.0,4.0,30.0,12.0,0.0
549,41.0,1.0,30.0,3.0,0.0
550,41.0,18.0,15.0,15.0,0.0
551,41.0,3.0,30.0,13.0,0.0
552,29.0,27.0,30.0,14.0,0.0
553,75.0,3.0,30.0,10.0,0.0
554,63.0,4.0,30.0,11.0,0.0
555,53.0,0.0,30.0,12.0,0.0
556,60.0,4.0,30.0,12.0,0.0
557,45.0,1.0,30.0,3.0,0.0
558,41.0,18.0,15.0,15.0,0.0
559,45.0,3.0,30.0,13.0,0.0
560,33.0,1.0,30.0,14.0,0.0
561,72.0,3.0,30.0,10.0,0.0
562,81.0,3.0,120.0,0.0,0.0
563,53.0,2.0,60.0,6.0,0.0
564,65.0,0.0,60.0,6.0,0.0
565,60.0,4.0,30.0,11.0,0.0
566,69.0,3.0,120.0,1.0,0.0
567,65.0,0.0,60.0,4.0,0.0
568,53.0,3.0,60.0,4.0,0.0
569,69.0,20.0,120.0,2.0,0.0
570,53.0,4.0,30.0,12.0,0.0
571,60.0,0.0,30.0,12.0,0.0
572,60.0,4.0,60.0,5.0,0.0
573,63.0,0.0,60.0,5.0,0.0
574,48.0,1.0,30.0,3.0,0.0
575,41.0,18.0,15.0,15.0,0.0
576,48.0,3.0,30.0,13.0,0.0
577,36.0,18.0,30.0,14.0,0.0
578,69.0,3.0,30.0,10.0,0.0
579,57.0,4.0,30.0,11.0,0.0
580,53.0,0.0,30.0,12.0,0.0
581,60.0,4.0,30.0,12.0,0.0
582,51.0,1.0,30.0,3.0,0.0
583,51.0,3.0,30.0,13.0,0.0
584,41.0,29.0,60.0,15.0,0.0
585,39.0,1.0,30.0,14.0,0.0
586,70.0,3.0,240.0,10.0,0.0
587,82.0,3.0,240.0,0.0,0.0
588,70.0,0.0,60.0,6.0,0.0
589,58.0,2.0,60.0,6.0,0.0
590,58.0,4.0,240.0,11.0,0.0
591,70.0,3.0,240.0,1.0,0.0
592,58.0,3.0,60.0,4.0,0.0
593,46.0,0.0,60.0,4.0,0.0
594,58.0,0.0,240.0,12.0,0.0
595,62.0,65.0,240.0,12.0,0.0
596,70.0,8.0,240.0,2.0,0.0
597,58.0,0.0,60.0,5.0,0.0
598,62.0,33.0,60.0,5.0,0.0
599,50.0,1.0,30.0,3.0,0.0
600,46.0,29.0,120.0,15.0,0.0
601,50.0,3.0,30.0,13.0,0.0
602,38.0,18.0,30.0,14.0,0.0
603,51.0,1.0,30.0,3.0,0.0
604,51.0,3.0,30.0,13.0,0.0
605,39.0,27.0,30.0,14.0,0.0
606,50.0,1.0,30.0,3.0,0.0
607,50.0,3.0,30.0,13.0,0.0
608,38.0,56.0,30.0,14.0,0.0
609,46.0,1.0,30.0,3.0,0.0
610,46.0,3.0,30.0,13.0,0.0
611,34.0,1.0,30.0,14.0,0.0
612,58.0,0.0,480.0,6.0,0.0
613,70.0,1.0,480.0,6.0,0.0
614,67.0,1.0,480.0,1.0,0.0
615,70.0,0.0,480.0,1.0,0.0
616,46.0,2.0,480.0,4.0,0.0
617,58.0,0.0,480.0,4.0,0.0
618,70.0,1.0,480.0,2.0,0.0
619,62.0,20.0,240.0,2.0,0.0
620,43.0,7.0,480.0,5.0,0.0
621,55.0,0.0,480.0,5.0,0.0
622,55.0,1.0,270.0,3.0,0.0
623,55.0,3.0,270.0,13.0,0.0
624,43.0,56.0,270.0,14.0,0.0
625,69.0,3.0,30.0,10.0,0.0
626,57.0,4.0,30.0,11.0,0.0
627,62.0,35.0,30.0,12.0,0.0
628,58.0,0.0,30.0,12.0,0.0
629,46.0,18.0,15.0,15.0,0.0
630,70.0,3.0,30.0,10.0,0.0
631,58.0,4.0,30.0,11.0,0.0
632,58.0,0.0,30.0,12.0,0.0
633,62.0,35.0,30.0,12.0,0.0
634,74.0,3.0,30.0,10.0,0.0
635,62.0,4.0,30.0,11.0,0.0
636,62.0,15.0,30.0,12.0,0.0
637,58.0,0.0,30.0,12.0,0.0
638,46.0,18.0,15.0,15.0,0.0
639,70.0,3.0,120.0,10.0,0.0
640,58.0,9.0,120.0,11.0,0.0
641,67.0,0.0,240.0,2.0,0.0
642,67.0,34.0,240.0,12.0,0.0
643,58.0,0.0,240.0,12.0,0.0
644,46.0,29.0,15.0,15.0,0.0
645,53.0,1.0,30.0,3.0,0.0
646,53.0,3.0,30.0,13.0,0.0
647,41.0,15.0,30.0,14.0,0.0
648,67.0,3.0,120.0,10.0,0.0
649,55.0,4.0,120.0,11.0,0.0
650,51.0,1.0,30.0,3.0,0.0
651,51.0,3.0,30.0,13.0,0.0
652,39.0,56.0,30.0,14.0,0.0
653,50.0,1.0,30.0,3.0,0.0
654,50.0,3.0,30.0,13.0,0.0
655,38.0,3.0,30.0,14.0,0.0
656,65.0,3.0,120.0,10.0,0.0
657,53.0,9.0,120.0,11.0,0.0
658,53.0,0.0,240.0,6.0,0.0
659,65.0,0.0,240.0,6.0,0.0
660,69.0,0.0,240.0,1.0,0.0
661,72.0,1.0,240.0,1.0,0.0
662,41.0,0.0,240.0,4.0,0.0
663,53.0,2.0,240.0,4.0,0.0
664,60.0,38.0,240.0,2.0,0.0
665,69.0,0.0,240.0,2.0,0.0
666,60.0,0.0,60.0,5.0,0.0
667,48.0,29.0,60.0,5.0,0.0
668,51.0,1.0,30.0,3.0,0.0
669,41.0,25.0,120.0,15.0,0.0
670,51.0,3.0,30.0,13.0,0.0
671,39.0,23.0,30.0,14.0,0.0
672,53.0,0.0,30.0,12.0,0.0
673,60.0,4.0,30.0,12.0,0.0
674,48.0,1.0,30.0,3.0,0.0
675,48.0,3.0,30.0,13.0,0.0
676,36.0,15.0,30.0,14.0,0.0
677,69.0,3.0,120.0,10.0,0.0
678,57.0,1.0,120.0,11.0,0.0
679,60.0,0.0,30.0,12.0,0.0
680,53.0,4.0,30.0,12.0,0.0
681,53.0,1.0,30.0,3.0,0.0
682,53.0,3.0,30.0,13.0,0.0
683,41.0,52.0,30.0,14.0,0.0
684,60.0,4.0,30.0,12.0,0.0
685,53.0,0.0,30.0,12.0,0.0
686,51.0,1.0,30.0,3.0,0.0
687,51.0,3.0,30.0,13.0,0.0
688,39.0,0.0,30.0,14.0,0.0
689,82.0,1.0,30.0,10.0,0.0
690,82.0,2.0,30.0,0.0,0.0
691,70.0,4.0,30.0,11.0,0.0
692,74.0,0.0,60.0,6.0,0.0
693,70.0,2.0,60.0,6.0,0.0
694,70.0,0.0,60.0,1.0,0.0
695,65.0,3.0,60.0,1.0,0.0
696,58.0,7.0,60.0,4.0,0.0
697,62.0,0.0,60.0,4.0,0.0
698,62.0,0.0,30.0,12.0,0.0
699,70.0,3.0,60.0,2.0,0.0
700,74.0,0.0,60.0,2.0,0.0
701,58.0,20.0,30.0,12.0,0.0
702,50.0,1.0,120.0,3.0,0.0
703,50.0,0.0,60.0,13.0,0.0
704,38.0,15.0,60.0,14.0,0.0
705,81.0,1.0,30.0,10.0,0.0
706,81.0,2.0,30.0,0.0,0.0
707,69.0,4.0,30.0,11.0,0.0
708,62.0,34.0,30.0,12.0,0.0
709,58.0,0.0,30.0,12.0,0.0
710,46.0,3.0,15.0,15.0,0.0
711,82.0,1.0,30.0,10.0,0.0
712,82.0,2.0,30.0,0.0,0.0
713,70.0,4.0,30.0,11.0,0.0
714,74.0,0.0,240.0,6.0,0.0
715,70.0,1.0,240.0,6.0,0.0
716,74.0,0.0,240.0,1.0,0.0
717,70.0,1.0,240.0,1.0,0.0
718,58.0,2.0,240.0,4.0,0.0
719,62.0,0.0,240.0,4.0,0.0
720,58.0,35.0,30.0,12.0,0.0
721,62.0,0.0,30.0,12.0,0.0
722,70.0,20.0,240.0,2.0,0.0
723,74.0,0.0,240.0,2.0,0.0
724,43.0,1.0,120.0,3.0,0.0
725,43.0,3.0,60.0,13.0,0.0
726,31.0,15.0,60.0,14.0,0.0
727,86.0,1.0,30.0,10.0,0.0
728,86.0,2.0,30.0,0.0,0.0
729,74.0,4.0,30.0,11.0,0.0
730,58.0,34.0,30.0,12.0,0.0
731,62.0,0.0,30.0,12.0,0.0
732,46.0,0.0,15.0,15.0,0.0
733,82.0,1.0,30.0,10.0,0.0
734,82.0,2.0,30.0,0.0,0.0
735,70.0,4.0,30.0,11.0,0.0
736,58.0,35.0,30.0,12.0,0.0
737,62.0,0.0,30.0,12.0,0.0
738,43.0,7.0,480.0,5.0,0.0
739,55.0,0.0,480.0,5.0,0.0
740,55.0,1.0,270.0,3.0,0.0
741,55.0,3.0,270.0,13.0,0.0
742,43.0,18.0,270.0,14.0,0.0
743,81.0,1.0,30.0,10.0,0.0
744,81.0,2.0,30.0,0.0,0.0
745,69.0,4.0,30.0,11.0,0.0
746,58.0,0.0,30.0,12.0,0.0
747,62.0,11.0,30.0,12.0,0.0
748,46.0,18.0,15.0,15.0,0.0
749,82.0,1.0,30.0,10.0,0.0
750,82.0,2.0,30.0,0.0,0.0
751,74.0,0.0,60.0,6.0,0.0
752,70.0,4.0,30.0,11.0,0.0
753,70.0,2.0,60.0,6.0,0.0
754,74.0,0.0,120.0,1.0,0.0
755,70.0,3.0,120.0,1.0,0.0
756,58.0,0.0,60.0,4.0,0.0
757,62.0,7.0,60.0,4.0,0.0
758,58.0,26.0,30.0,12.0,0.0
759,74.0,20.0,120.0,2.0,0.0
760,70.0,0.0,120.0,2.0,0.0
761,62.0,0.0,30.0,12.0,0.0
762,46.0,18.0,15.0,15.0,0.0
763,86.0,1.0,30.0,10.0,0.0
764,86.0,2.0,30.0,0.0,0.0
765,74.0,4.0,30.0,11.0,0.0
766,62.0,12.0,30.0,12.0,0.0
767,58.0,0.0,30.0,12.0,0.0
768,46.0,18.0,15.0,15.0,0.0
769,82.0,0.0,120.0,10.0,0.0
770,82.0,2.0,120.0,0.0,0.0
771,58.0,2.0,60.0,6.0,0.0
772,70.0,0.0,60.0,6.0,0.0
773,70.0,19.0,120.0,11.0,0.0
774,67.0,0.0,240.0,1.0,0.0
775,70.0,3.0,240.0,1.0,0.0
776,46.0,0.0,60.0,4.0,0.0
777,58.0,7.0,60.0,4.0,0.0
778,58.0,0.0,120.0,12.0,0.0
779,67.0,0.0,120.0,12.0,0.0
780,70.0,1.0,240.0,2.0,0.0
781,62.0,34.0,120.0,2.0,0.0
782,46.0,29.0,60.0,15.0,0.0
783,53.0,1.0,30.0,3.0,0.0
784,53.0,3.0,30.0,13.0,0.0
785,41.0,1.0,30.0,14.0,0.0
786,67.0,1.0,120.0,10.0,0.0
787,79.0,2.0,120.0,0.0,0.0
788,67.0,34.0,120.0,11.0,0.0
789,67.0,0.0,120.0,2.0,0.0
790,51.0,1.0,30.0,3.0,0.0
791,51.0,3.0,30.0,13.0,0.0
792,39.0,56.0,30.0,14.0,0.0
793,50.0,1.0,30.0,3.0,0.0
794,50.0,3.0,30.0,13.0,0.0
795,38.0,4.0,30.0,14.0,0.0
796,65.0,1.0,120.0,10.0,0.0
797,77.0,2.0,120.0,0.0,0.0
798,65.0,2.0,60.0,6.0,0.0
799,65.0,34.0,120.0,11.0,0.0
800,53.0,0.0,60.0,6.0,0.0
801,72.0,3.0,240.0,1.0,0.0
802,69.0,0.0,240.0,1.0,0.0
803,53.0,3.0,60.0,4.0,0.0
804,41.0,0.0,60.0,4.0,0.0
805,69.0,45.0,240.0,2.0,0.0
806,60.0,0.0,240.0,2.0,0.0
807,53.0,0.0,30.0,12.0,0.0
808,60.0,4.0,30.0,12.0,0.0
809,60.0,0.0,60.0,5.0,0.0
810,48.0,4.0,60.0,5.0,0.0
811,51.0,1.0,30.0,3.0,0.0
812,51.0,3.0,30.0,13.0,0.0
813,41.0,25.0,60.0,15.0,0.0
814,39.0,18.0,30.0,14.0,0.0
815,60.0,4.0,30.0,12.0,0.0
816,53.0,0.0,30.0,12.0,0.0
817,48.0,1.0,30.0,3.0,0.0
818,48.0,3.0,30.0,13.0,0.0
819,36.0,15.0,30.0,14.0,0.0
820,69.0,0.0,120.0,10.0,0.0
821,81.0,2.0,120.0,0.0,0.0
822,69.0,1.0,120.0,11.0,0.0
823,53.0,0.0,60.0,6.0,0.0
824,65.0,2.0,60.0,6.0,0.0
825,41.0,7.0,60.0,4.0,0.0
826,53.0,0.0,60.0,4.0,0.0
827,60.0,4.0,30.0,12.0,0.0
828,53.0,0.0,30.0,12.0,0.0
829,53.0,1.0,30.0,3.0,0.0
830,41.0,25.0,60.0,15.0,0.0
831,53.0,3.0,30.0,13.0,0.0
832,41.0,18.0,30.0,14.0,0.0
833,60.0,4.0,30.0,12.0,0.0
834,53.0,0.0,30.0,12.0,0.0
835,51.0,1.0,30.0,3.0,0.0
836,51.0,3.0,30.0,13.0,0.0
837,39.0,1.0,30.0,14.0,0.0
838,70.0,1.0,120.0,10.0,0.0
839,82.0,2.0,120.0,0.0,0.0
840,70.0,0.0,60.0,6.0,0.0
841,58.0,2.0,60.0,6.0,0.0
842,70.0,1.0,120.0,11.0,0.0
843,70.0,3.0,120.0,1.0,0.0
844,65.0,0.0,120.0,1.0,0.0
845,46.0,7.0,60.0,4.0,0.0
846,58.0,0.0,60.0,4.0,0.0
847,62.0,30.0,120.0,2.0,0.0
848,62.0,0.0,30.0,12.0,0.0
849,65.0,4.0,30.0,12.0,0.0
850,70.0,0.0,120.0,2.0,0.0
851,50.0,1.0,30.0,3.0,0.0
852,46.0,25.0,60.0,15.0,0.0
853,50.0,3.0,30.0,13.0,0.0
854,38.0,18.0,30.0,14.0,0.0
855,62.0,4.0,30.0,12.0,0.0
856,65.0,0.0,30.0,12.0,0.0
857,48.0,1.0,30.0,3.0,0.0
858,48.0,3.0,30.0,13.0,0.0
859,36.0,15.0,30.0,14.0,0.0
860,74.0,1.0,120.0,10.0,0.0
861,86.0,0.0,120.0,0.0,0.0
862,82.0,2.0,120.0,0.0,0.0
863,62.0,1.0,120.0,11.0,0.0
864,70.0,0.0,120.0,1.0,0.0
865,65.0,30.0,240.0,2.0,0.0
866,74.0,0.0,240.0,2.0,0.0
867,62.0,4.0,30.0,12.0,0.0
868,65.0,0.0,30.0,12.0,0.0
869,46.0,1.0,30.0,3.0,0.0
870,46.0,3.0,30.0,13.0,0.0
871,34.0,52.0,30.0,14.0,0.0
872,62.0,4.0,30.0,12.0,0.0
873,65.0,0.0,30.0,12.0,0.0
874,45.0,1.0,30.0,3.0,0.0
875,45.0,3.0,30.0,13.0,0.0
876,33.0,15.0,30.0,14.0,0.0
877,77.0,1.0,120.0,10.0,0.0
878,89.0,2.0,120.0,0.0,0.0
879,86.0,0.0,120.0,0.0,0.0
880,53.0,2.0,60.0,6.0,0.0
881,65.0,1.0,120.0,11.0,0.0
882,65.0,0.0,60.0,6.0,0.0
883,74.0,33.0,15.0,1.0,0.0
884,77.0,3.0,120.0,1.0,0.0
885,41.0,7.0,60.0,4.0,0.0
886,53.0,0.0,60.0,4.0,0.0
887,62.0,4.0,30.0,12.0,0.0
888,65.0,0.0,30.0,12.0,0.0
889,43.0,1.0,30.0,3.0,0.0
890,41.0,25.0,60.0,15.0,0.0
891,43.0,3.0,30.0,13.0,0.0
892,31.0,18.0,30.0,14.0,0.0
893,62.0,0.0,30.0,12.0,0.0
894,65.0,4.0,30.0,12.0,0.0
895,46.0,1.0,30.0,3.0,0.0
896,46.0,3.0,30.0,13.0,0.0
897,34.0,15.0,30.0,14.0,0.0
898,75.0,0.0,120.0,10.0,0.0
899,87.0,2.0,120.0,0.0,0.0
900,84.0,0.0,120.0,0.0,0.0
901,53.0,0.0,60.0,6.0,0.0
902,65.0,2.0,60.0,6.0,0.0
903,63.0,1.0,120.0,11.0,0.0
904,72.0,3.0,120.0,1.0,0.0
905,75.0,0.0,120.0,1.0,0.0
906,53.0,0.0,60.0,4.0,0.0
907,41.0,7.0,60.0,4.0,0.0
908,72.0,0.0,120.0,2.0,0.0
909,63.0,45.0,120.0,2.0,0.0
910,60.0,0.0,30.0,12.0,0.0
911,53.0,4.0,30.0,12.0,0.0
912,45.0,1.0,30.0,3.0,0.0
913,45.0,3.0,30.0,13.0,0.0
914,41.0,25.0,60.0,15.0,0.0
915,33.0,18.0,30.0,14.0,0.0
916,53.0,4.0,30.0,12.0,0.0
917,60.0,0.0,30.0,12.0,0.0
918,48.0,1.0,30.0,3.0,0.0
919,48.0,3.0,30.0,13.0,0.0
920,36.0,1.0,30.0,14.0,0.0
921,74.0,1.0,120.0,10.0,0.0
922,86.0,2.0,120.0,0.0,0.0
923,77.0,0.0,120.0,0.0,0.0
924,62.0,1.0,120.0,11.0,0.0
925,70.0,0.0,60.0,6.0,0.0
926,58.0,2.0,60.0,6.0,0.0
927,65.0,3.0,120.0,1.0,0.0
928,74.0,0.0,360.0,1.0,0.0
929,46.0,7.0,60.0,4.0,0.0
930,58.0,0.0,60.0,4.0,0.0
931,65.0,30.0,120.0,2.0,0.0
932,65.0,0.0,30.0,12.0,0.0
933,62.0,8.0,360.0,2.0,0.0
934,62.0,4.0,30.0,12.0,0.0
935,46.0,1.0,30.0,3.0,0.0
936,46.0,3.0,30.0,13.0,0.0
937,46.0,25.0,60.0,15.0,0.0
938,34.0,18.0,30.0,14.0,0.0
939,65.0,4.0,30.0,12.0,0.0
940,62.0,0.0,30.0,12.0,0.0
941,58.0,1.0,30.0,3.0,0.0
942,58.0,3.0,30.0,13.0,0.0
943,46.0,15.0,30.0,14.0,0.0
944,77.0,1.0,120.0,10.0,0.0
945,74.0,0.0,120.0,0.0,0.0
946,65.0,34.0,120.0,11.0,0.0
947,70.0,3.0,240.0,1.0,0.0
948,62.0,4.0,30.0,12.0,0.0
949,65.0,0.0,30.0,12.0,0.0
950,70.0,0.0,240.0,2.0,0.0
951,62.0,1.0,30.0,3.0,0.0
952,62.0,3.0,30.0,13.0,0.0
953,50.0,52.0,30.0,14.0,0.0
954,65.0,0.0,30.0,12.0,0.0
955,62.0,4.0,30.0,12.0,0.0
956,60.0,1.0,30.0,3.0,0.0
957,60.0,3.0,30.0,13.0,0.0
958,48.0,15.0,30.0,14.0,0.0
959,82.0,1.0,120.0,10.0,0.0
960,77.0,2.0,15.0,0.0,0.0
961,70.0,34.0,120.0,11.0,0.0
962,70.0,0.0,60.0,6.0,0.0
963,58.0,2.0,60.0,6.0,0.0
964,58.0,7.0,60.0,4.0,0.0
965,46.0,0.0,60.0,4.0,0.0
966,65.0,4.0,30.0,12.0,0.0
967,62.0,0.0,30.0,12.0,0.0
968,58.0,1.0,30.0,3.0,0.0
969,58.0,3.0,30.0,13.0,0.0
970,46.0,25.0,60.0,15.0,0.0
971,46.0,18.0,30.0,14.0,0.0
972,62.0,0.0,30.0,12.0,0.0
973,65.0,4.0,30.0,12.0,0.0
974,57.0,1.0,30.0,3.0,0.0
975,57.0,3.0,30.0,13.0,0.0
976,45.0,4.0,30.0,14.0,0.0
977,86.0,0.0,120.0,10.0,0.0
978,82.0,2.0,15.0,0.0,0.0
979,86.0,0.0,120.0,0.0,0.0
980,74.0,1.0,120.0,11.0,0.0
981,70.0,0.0,60.0,6.0,0.0
982,58.0,2.0,60.0,6.0,0.0
983,70.0,0.0,120.0,1.0,0.0
984,74.0,3.0,120.0,1.0,0.0
985,58.0,7.0,60.0,4.0,0.0
986,46.0,0.0,60.0,4.0,0.0
987,70.0,0.0,120.0,2.0,0.0
988,62.0,45.0,120.0,2.0,0.0
989,58.0,4.0,30.0,12.0,0.0
990,55.0,1.0,30.0,3.0,0.0
991,55.0,3.0,30.0,13.0,0.0
992,46.0,25.0,60.0,15.0,0.0
993,43.0,18.0,30.0,14.0,0.0
994,58.0,4.0,30.0,12.0,0.0
995,53.0,1.0,30.0,3.0,0.0
996,53.0,3.0,30.0,13.0,0.0
997,41.0,1.0,30.0,14.0,0.0
998,84.0,1.0,120.0,10.0,0.0
999,79.0,2.0,120.0,0.0,0.0
1000,84.0,0.0,120.0,0.0,0.0
1001,72.0,2.0,60.0,6.0,0.0
1002,70.0,0.0,60.0,6.0,0.0
1003,72.0,1.0,120.0,11.0,0.0
1004,72.0,18.0,240.0,1.0,0.0
1005,67.0,33.0,120.0,1.0,0.0
1006,60.0,0.0,60.0,4.0,0.0
1007,58.0,7.0,60.0,4.0,0.0
1008,63.0,30.0,240.0,2.0,0.0
1009,67.0,4.0,30.0,12.0,0.0
1010,67.0,0.0,240.0,2.0,0.0
1011,51.0,1.0,30.0,3.0,0.0
1012,46.0,25.0,60.0,15.0,0.0
1013,51.0,3.0,30.0,13.0,0.0
1014,39.0,18.0,30.0,14.0,0.0
1015,67.0,4.0,30.0,12.0,0.0
1016,53.0,1.0,30.0,3.0,0.0
1017,53.0,3.0,30.0,13.0,0.0
1018,41.0,15.0,30.0,14.0,0.0
1019,79.0,1.0,120.0,10.0,0.0
1020,75.0,0.0,120.0,0.0,0.0
1021,79.0,2.0,120.0,0.0,0.0
1022,67.0,1.0,120.0,11.0,0.0
1023,63.0,0.0,120.0,1.0,0.0
1024,63.0,4.0,30.0,12.0,0.0
1025,51.0,1.0,30.0,3.0,0.0
1026,51.0,3.0,30.0,13.0,0.0
1027,39.0,52.0,30.0,14.0,0.0
1028,63.0,4.0,30.0,12.0,0.0
1029,48.0,1.0,30.0,3.0,0.0
1030,48.0,3.0,30.0,13.0,0.0
1031,36.0,0.0,30.0,14.0,0.0
1032,82.0,1.0,120.0,10.0,0.0
1033,82.0,2.0,120.0,0.0,0.0
1034,77.0,0.0,120.0,0.0,0.0
1035,70.0,0.0,60.0,6.0,0.0
1036,58.0,2.0,60.0,6.0,0.0
1037,70.0,1.0,120.0,11.0,0.0
1038,65.0,33.0,120.0,1.0,0.0
1039,70.0,3.0,240.0,1.0,0.0
1040,46.0,7.0,60.0,4.0,0.0
1041,58.0,0.0,60.0,4.0,0.0
1042,70.0,0.0,240.0,2.0,0.0
1043,65.0,45.0,240.0,2.0,0.0
1044,65.0,4.0,30.0,12.0,0.0
1045,50.0,1.0,30.0,3.0,0.0
1046,46.0,25.0,60.0,15.0,0.0
1047,50.0,3.0,30.0,13.0,0.0
1048,38.0,18.0,30.0,14.0,0.0
1049,65.0,4.0,30.0,12.0,0.0
1050,51.0,1.0,30.0,3.0,0.0
1051,51.0,3.0,30.0,13.0,0.0
1052,39.0,15.0,30.0,14.0,0.0
1053,77.0,0.0,120.0,10.0,0.0
1054,77.0,2.0,120.0,0.0,0.0
1055,74.0,0.0,120.0,0.0,0.0
1056,65.0,1.0,120.0,11.0,0.0
1057,62.0,0.0,120.0,1.0,0.0
1058,62.0,4.0,30.0,12.0,0.0
1059,50.0,1.0,30.0,3.0,0.0
1060,50.0,3.0,30.0,13.0,0.0
1061,38.0,52.0,30.0,14.0,0.0
1062,62.0,4.0,30.0,12.0,0.0
1063,46.0,1.0,30.0,3.0,0.0
1064,46.0,3.0,30.0,13.0,0.0
1065,34.0,1.0,30.0,14.0,0.0
1066,84.0,1.0,120.0,10.0,0.0
1067,79.0,0.0,120.0,0.0,0.0
1068,84.0,2.0,120.0,0.0,0.0
1069,72.0,0.0,60.0,6.0,0.0
1070,72.0,1.0,120.0,11.0,0.0
1071,70.0,2.0,60.0,6.0,0.0
1072,72.0,18.0,240.0,1.0,0.0
1073,67.0,33.0,120.0,1.0,0.0
1074,60.0,7.0,60.0,4.0,0.0
1075,58.0,0.0,60.0,4.0,0.0
1076,67.0,4.0,30.0,12.0,0.0
1077,67.0,0.0,240.0,2.0,0.0
1078,63.0,30.0,240.0,2.0,0.0
1079,51.0,1.0,30.0,3.0,0.0
1080,51.0,3.0,30.0,13.0,0.0
1081,46.0,25.0,60.0,15.0,0.0
1082,39.0,18.0,30.0,14.0,0.0
1083,67.0,4.0,30.0,12.0,0.0
1084,53.0,1.0,30.0,3.0,0.0
1085,53.0,3.0,30.0,13.0,0.0
1086,41.0,15.0,30.0,14.0,0.0
1087,79.0,1.0,120.0,10.0,0.0
1088,75.0,0.0,120.0,0.0,0.0
1089,79.0,2.0,120.0,0.0,0.0
1090,67.0,1.0,120.0,11.0,0.0
1091,63.0,0.0,120.0,1.0,0.0
1092,63.0,4.0,30.0,12.0,0.0
1093,51.0,1.0,30.0,3.0,0.0
1094,51.0,3.0,30.0,13.0,0.0
1095,39.0,52.0,30.0,14.0,0.0
1096,63.0,4.0,30.0,12.0,0.0
1097,48.0,1.0,30.0,3.0,0.0
1098,48.0,3.0,30.0,13.0,0.0
1099,36.0,0.0,30.0,14.0,0.0
1100,82.0,1.0,120.0,10.0,0.0
1101,82.0,0.0,120.0,0.0,0.0
1102,70.0,0.0,60.0,6.0,0.0
1103,58.0,2.0,60.0,6.0,0.0
1104,70.0,1.0,120.0,11.0,0.0
1105,65.0,33.0,120.0,1.0,0.0
1106,70.0,0.0,240.0,1.0,0.0
1107,46.0,7.0,60.0,4.0,0.0
1108,58.0,0.0,60.0,4.0,0.0
1109,70.0,45.0,240.0,2.0,0.0
1110,65.0,0.0,240.0,2.0,0.0
1111,65.0,4.0,30.0,12.0,0.0
1112,50.0,1.0,30.0,3.0,0.0
1113,46.0,25.0,60.0,15.0,0.0
1114,50.0,3.0,30.0,13.0,0.0
1115,38.0,18.0,30.0,14.0,0.0
1116,65.0,4.0,30.0,12.0,0.0
1117,51.0,1.0,30.0,3.0,0.0
1118,51.0,3.0,30.0,13.0,0.0
1119,39.0,15.0,30.0,14.0,0.0
1120,77.0,1.0,120.0,10.0,0.0
1121,74.0,0.0,120.0,0.0,0.0
1122,77.0,2.0,15.0,0.0,0.0
1123,65.0,1.0,120.0,11.0,0.0
1124,62.0,3.0,120.0,1.0,0.0
1125,62.0,4.0,30.0,12.0,0.0
1126,50.0,1.0,30.0,3.0,0.0
1127,50.0,3.0,30.0,13.0,0.0
1128,38.0,52.0,30.0,14.0,0.0
1129,62.0,4.0,30.0,12.0,0.0
1130,46.0,1.0,30.0,3.0,0.0
1131,46.0,3.0,30.0,13.0,0.0
1132,34.0,0.0,30.0,14.0,0.0
1133,78.0,1.0,150.0,10.0,0.0
1134,78.0,1.0,150.0,0.0,0.0
1135,82.0,0.0,150.0,0.0,0.0
1136,58.0,0.0,180.0,6.0,0.0
1137,70.0,2.0,180.0,6.0,0.0
1138,66.0,1.0,150.0,11.0,0.0
1139,70.0,1.0,150.0,1.0,0.0
1140,66.0,0.0,150.0,1.0,0.0
1141,58.0,0.0,180.0,4.0,0.0
1142,46.0,35.0,180.0,4.0,0.0
1143,70.0,16.0,150.0,2.0,0.0
1144,58.0,4.0,30.0,12.0,0.0
1145,66.0,0.0,150.0,2.0,0.0
1146,70.0,0.0,30.0,12.0,0.0
1147,51.0,1.0,30.0,3.0,0.0
1148,46.0,3.0,30.0,15.0,0.0
1149,51.0,0.0,30.0,13.0,0.0
1150,39.0,52.0,30.0,14.0,0.0
1151,58.0,0.0,30.0,12.0,0.0
1152,70.0,4.0,30.0,12.0,0.0
1153,53.0,1.0,30.0,3.0,0.0
1154,53.0,0.0,30.0,13.0,0.0
1155,46.0,3.0,30.0,15.0,0.0
1156,41.0,52.0,30.0,14.0,0.0
1157,70.0,3.0,30.0,12.0,0.0
1158,58.0,0.0,30.0,12.0,0.0
1159,54.0,0.0,30.0,3.0,0.0
1160,54.0,0.0,30.0,13.0,0.0
1161,46.0,1.0,30.0,15.0,0.0
1162,42.0,2.0,30.0,14.0,0.0
1163,77.0,3.0,30.0,10.0,0.0
1164,65.0,57.0,30.0,11.0,0.0
1165,75.0,3.0,30.0,10.0,0.0
1166,63.0,57.0,30.0,11.0,0.0
1167,70.0,3.0,30.0,10.0,0.0
1168,58.0,57.0,30.0,11.0,0.0
1169,75.0,3.0,30.0,10.0,0.0
1170,63.0,57.0,30.0,11.0,0.0
1171,77.0,3.0,30.0,10.0,0.0
1172,65.0,54.0,30.0,11.0,0.0
1173,78.0,1.0,150.0,10.0,0.0
1174,78.0,0.0,150.0,0.0,0.0
1175,82.0,0.0,150.0,0.0,0.0
1176,58.0,0.0,180.0,6.0,0.0
1177,70.0,2.0,180.0,6.0,0.0
1178,66.0,1.0,150.0,11.0,0.0
1179,70.0,0.0,150.0,1.0,0.0
1180,66.0,1.0,150.0,1.0,0.0
1181,46.0,0.0,180.0,4.0,0.0
1182,58.0,35.0,180.0,4.0,0.0
1183,70.0,4.0,30.0,12.0,0.0
1184,58.0,0.0,30.0,12.0,0.0
1185,70.0,16.0,150.0,2.0,0.0
1186,66.0,0.0,150.0,2.0,0.0
1187,39.0,1.0,30.0,3.0,0.0
1188,51.0,0.0,30.0,3.0,0.0
1189,46.0,3.0,30.0,15.0,0.0
1190,51.0,0.0,30.0,13.0,0.0
1191,39.0,52.0,30.0,14.0,0.0
1192,58.0,4.0,30.0,12.0,0.0
1193,70.0,0.0,30.0,12.0,0.0
1194,41.0,1.0,30.0,3.0,0.0
1195,53.0,0.0,30.0,3.0,0.0
1196,46.0,3.0,30.0,15.0,0.0
1197,53.0,0.0,30.0,13.0,0.0
1198,41.0,52.0,30.0,14.0,0.0
1199,58.0,0.0,30.0,12.0,0.0
1200,70.0,3.0,30.0,12.0,0.0
1201,42.0,0.0,30.0,3.0,0.0
1202,54.0,1.0,30.0,3.0,0.0
1203,54.0,0.0,30.0,13.0,0.0
1204,46.0,1.0,30.0,15.0,0.0
1205,42.0,2.0,30.0,14.0,0.0
1206,77.0,3.0,30.0,10.0,0.0
1207,65.0,57.0,30.0,11.0,0.0
1208,75.0,3.0,30.0,10.0,0.0
1209,63.0,57.0,30.0,11.0,0.0
1210,70.0,3.0,30.0,10.0,0.0
1211,58.0,57.0,30.0,11.0,0.0
1212,75.0,3.0,30.0,10.0,0.0
1213,63.0,57.0,30.0,11.0,0.0
1214,77.0,3.0,30.0,10.0,0.0
1215,65.0,54.0,30.0,11.0,0.0
1216,79.0,1.0,150.0,10.0,0.0
1217,79.0,0.0,150.0,0.0,0.0
1218,82.0,0.0,150.0,0.0,0.0
1219,67.0,1.0,150.0,11.0,0.0
1220,58.0,2.0,180.0,6.0,0.0
1221,70.0,0.0,180.0,6.0,0.0
1222,67.0,1.0,150.0,1.0,0.0
1223,70.0,0.0,150.0,1.0,0.0
1224,46.0,35.0,180.0,4.0,0.0
1225,58.0,0.0,180.0,4.0,0.0
1226,67.0,0.0,150.0,2.0,0.0
1227,70.0,16.0,150.0,2.0,0.0
1228,58.0,0.0,30.0,12.0,0.0
1229,70.0,4.0,30.0,12.0,0.0
1230,40.0,0.0,30.0,3.0,0.0
1231,52.0,1.0,30.0,3.0,0.0
1232,46.0,0.0,30.0,15.0,0.0
1233,52.0,3.0,30.0,13.0,0.0
1234,40.0,52.0,30.0,14.0,0.0
1235,70.0,0.0,30.0,12.0,0.0
1236,58.0,4.0,30.0,12.0,0.0
1237,53.0,1.0,30.0,3.0,0.0
1238,41.0,0.0,30.0,3.0,0.0
1239,46.0,3.0,30.0,15.0,0.0
1240,53.0,0.0,30.0,13.0,0.0
1241,41.0,52.0,30.0,14.0,0.0
1242,70.0,3.0,30.0,12.0,0.0
1243,58.0,0.0,30.0,12.0,0.0
1244,43.0,1.0,30.0,3.0,0.0
1245,55.0,0.0,30.0,3.0,0.0
1246,46.0,0.0,30.0,15.0,0.0
1247,55.0,1.0,30.0,13.0,0.0
1248,43.0,2.0,30.0,14.0,0.0
1249,77.0,3.0,30.0,10.0,0.0
1250,65.0,57.0,30.0,11.0,0.0
1251,76.0,3.0,30.0,10.0,0.0
1252,64.0,57.0,30.0,11.0,0.0
1253,70.0,3.0,30.0,10.0,0.0
1254,58.0,57.0,30.0,11.0,0.0
1255,76.0,3.0,30.0,10.0,0.0
1256,64.0,57.0,30.0,11.0,0.0
1257,77.0,3.0,30.0,10.0,0.0
1258,65.0,54.0,30.0,11.0,0.0
1259,79.0,1.0,150.0,10.0,0.0
1260,82.0,0.0,150.0,0.0,0.0
1261,79.0,0.0,150.0,0.0,0.0
1262,70.0,2.0,180.0,6.0,0.0
1263,58.0,0.0,180.0,6.0,0.0
1264,67.0,1.0,150.0,11.0,0.0
1265,67.0,0.0,150.0,1.0,0.0
1266,70.0,1.0,150.0,1.0,0.0
1267,58.0,0.0,180.0,4.0,0.0
1268,46.0,35.0,180.0,4.0,0.0
1269,67.0,16.0,150.0,2.0,0.0
1270,58.0,4.0,30.0,12.0,0.0
1271,70.0,0.0,30.0,12.0,0.0
1272,70.0,0.0,150.0,2.0,0.0
1273,40.0,0.0,30.0,3.0,0.0
1274,52.0,1.0,30.0,3.0,0.0
1275,46.0,0.0,30.0,15.0,0.0
1276,52.0,3.0,30.0,13.0,0.0
1277,40.0,52.0,30.0,14.0,0.0
1278,58.0,0.0,30.0,12.0,0.0
1279,70.0,4.0,30.0,12.0,0.0
1280,41.0,0.0,30.0,3.0,0.0
1281,53.0,1.0,30.0,3.0,0.0
1282,46.0,0.0,30.0,15.0,0.0
1283,53.0,3.0,30.0,13.0,0.0
1284,41.0,52.0,30.0,14.0,0.0
1285,70.0,3.0,30.0,12.0,0.0
1286,58.0,0.0,30.0,12.0,0.0
1287,43.0,1.0,30.0,3.0,0.0
1288,55.0,0.0,30.0,3.0,0.0
1289,46.0,1.0,30.0,15.0,0.0
1290,55.0,0.0,30.0,13.0,0.0
1291,43.0,2.0,30.0,14.0,0.0
1292,77.0,3.0,30.0,10.0,0.0
1293,65.0,57.0,30.0,11.0,0.0
1294,76.0,3.0,30.0,10.0,0.0
1295,64.0,57.0,30.0,11.0,0.0
1296,70.0,3.0,30.0,10.0,0.0
1297,58.0,57.0,30.0,11.0,0.0
1298,76.0,3.0,30.0,10.0,0.0
1299,64.0,57.0,30.0,11.0,0.0
1300,79.0,3.0,30.0,10.0,0.0
1301,67.0,54.0,30.0,11.0,0.0
1302,82.0,1.0,150.0,10.0,0.0
1303,82.0,0.0,150.0,0.0,0.0
1304,76.0,1.0,150.0,0.0,0.0
1305,58.0,0.0,180.0,6.0,0.0
1306,70.0,2.0,180.0,6.0,0.0
1307,70.0,1.0,150.0,11.0,0.0
1308,70.0,0.0,150.0,1.0,0.0
1309,64.0,1.0,150.0,1.0,0.0
1310,58.0,3.0,180.0,4.0,0.0
1311,46.0,0.0,180.0,4.0,0.0
1312,67.0,4.0,30.0,12.0,0.0
1313,64.0,0.0,30.0,12.0,0.0
1314,64.0,0.0,150.0,2.0,0.0
1315,70.0,16.0,150.0,2.0,0.0
1316,52.0,32.0,180.0,5.0,0.0
1317,64.0,0.0,180.0,5.0,0.0
1318,43.0,0.0,30.0,3.0,0.0
1319,55.0,1.0,30.0,3.0,0.0
1320,55.0,0.0,30.0,13.0,0.0
1321,46.0,3.0,30.0,15.0,0.0
1322,43.0,52.0,30.0,14.0,0.0
1323,64.0,4.0,30.0,12.0,0.0
1324,67.0,0.0,30.0,12.0,0.0
1325,57.0,0.0,30.0,3.0,0.0
1326,45.0,1.0,30.0,3.0,0.0
1327,57.0,0.0,30.0,13.0,0.0
1328,46.0,3.0,30.0,15.0,0.0
1329,45.0,52.0,30.0,14.0,0.0
1330,64.0,3.0,30.0,12.0,0.0
1331,67.0,0.0,30.0,12.0,0.0
1332,58.0,0.0,30.0,3.0,0.0
1333,46.0,0.0,30.0,3.0,0.0
1334,58.0,1.0,30.0,13.0,0.0
1335,46.0,0.0,30.0,15.0,0.0
1336,46.0,2.0,30.0,14.0,0.0
1337,81.0,3.0,30.0,10.0,0.0
1338,69.0,57.0,30.0,11.0,0.0
1339,79.0,3.0,30.0,10.0,0.0
1340,67.0,57.0,30.0,11.0,0.0
1341,76.0,3.0,30.0,10.0,0.0
1342,64.0,57.0,30.0,11.0,0.0
1343,79.0,3.0,30.0,10.0,0.0
1344,67.0,57.0,30.0,11.0,0.0
1345,82.0,3.0,30.0,10.0,0.0
1346,70.0,54.0,30.0,11.0,0.0
1347,86.0,1.0,150.0,10.0,0.0
1348,82.0,0.0,150.0,0.0,0.0
1349,76.0,0.0,150.0,0.0,0.0
1350,74.0,1.0,150.0,11.0,0.0
1351,70.0,2.0,180.0,6.0,0.0
1352,58.0,0.0,180.0,6.0,0.0
1353,64.0,1.0,150.0,1.0,0.0
1354,70.0,0.0,150.0,1.0,0.0
1355,58.0,3.0,180.0,4.0,0.0
1356,46.0,0.0,180.0,4.0,0.0
1357,64.0,4.0,30.0,12.0,0.0
1358,70.0,0.0,150.0,2.0,0.0
1359,64.0,16.0,150.0,2.0,0.0
1360,67.0,0.0,30.0,12.0,0.0
1361,55.0,0.0,180.0,5.0,0.0
1362,64.0,32.0,180.0,5.0,0.0
1363,58.0,1.0,30.0,3.0,0.0
1364,46.0,0.0,30.0,3.0,0.0
1365,58.0,0.0,30.0,13.0,0.0
1366,46.0,3.0,30.0,15.0,0.0
1367,46.0,52.0,30.0,14.0,0.0
1368,67.0,0.0,30.0,12.0,0.0
1369,64.0,4.0,30.0,12.0,0.0
1370,60.0,0.0,30.0,3.0,0.0
1371,48.0,1.0,30.0,3.0,0.0
1372,46.0,3.0,30.0,15.0,0.0
1373,60.0,0.0,30.0,13.0,0.0
1374,48.0,52.0,30.0,14.0,0.0
1375,67.0,3.0,30.0,12.0,0.0
1376,64.0,0.0,30.0,12.0,0.0
1377,62.0,1.0,30.0,3.0,0.0
1378,50.0,0.0,30.0,3.0,0.0
1379,62.0,1.0,30.0,13.0,0.0
1380,46.0,0.0,30.0,15.0,0.0
1381,50.0,2.0,30.0,14.0,0.0
1382,84.0,3.0,30.0,10.0,0.0
1383,72.0,57.0,30.0,11.0,0.0
1384,82.0,3.0,30.0,10.0,0.0
1385,70.0,57.0,30.0,11.0,0.0
1386,79.0,3.0,30.0,10.0,0.0
1387,67.0,57.0,30.0,11.0,0.0
1388,77.0,3.0,30.0,10.0,0.0
1389,65.0,57.0,30.0,11.0,0.0
1390,76.0,3.0,30.0,10.0,0.0
1391,64.0,57.0,30.0,11.0,0.0
1392,77.0,3.0,30.0,10.0,0.0
1393,77.0,0.0,60.0,0.0,0.0
1394,82.0,2.0,60.0,0.0,0.0
1395,70.0,0.0,60.0,6.0,0.0
1396,58.0,1.0,60.0,6.0,0.0
1397,65.0,9.0,30.0,11.0,0.0
1398,77.0,1.0,60.0,1.0,0.0
1399,70.0,0.0,60.0,1.0,0.0
1400,62.0,0.0,60.0,4.0,0.0
1401,58.0,2.0,60.0,4.0,0.0
1402,70.0,1.0,60.0,2.0,0.0
1403,58.0,9.0,60.0,12.0,0.0
1404,65.0,0.0,60.0,2.0,0.0
1405,65.0,0.0,60.0,12.0,0.0
1406,65.0,0.0,60.0,5.0,0.0
1407,58.0,3.0,60.0,5.0,0.0
1408,38.0,1.0,60.0,3.0,0.0
1409,46.0,0.0,60.0,15.0,0.0
1410,38.0,3.0,60.0,13.0,0.0
1411,26.0,25.0,60.0,14.0,0.0
1412,74.0,3.0,30.0,10.0,0.0
1413,62.0,9.0,30.0,11.0,0.0
1414,58.0,0.0,60.0,12.0,0.0
1415,65.0,48.0,60.0,12.0,0.0
1416,72.0,3.0,30.0,10.0,0.0
1417,77.0,2.0,60.0,0.0,0.0
1418,82.0,0.0,60.0,0.0,0.0
1419,70.0,0.0,60.0,6.0,0.0
1420,58.0,1.0,60.0,6.0,0.0
1421,60.0,9.0,30.0,11.0,0.0
1422,65.0,0.0,60.0,1.0,0.0
1423,70.0,1.0,60.0,1.0,0.0
1424,58.0,2.0,60.0,4.0,0.0
1425,62.0,0.0,60.0,4.0,0.0
1426,65.0,0.0,60.0,12.0,0.0
1427,58.0,9.0,60.0,12.0,0.0
1428,65.0,1.0,60.0,2.0,0.0
1429,70.0,0.0,60.0,2.0,0.0
1430,58.0,0.0,60.0,5.0,0.0
1431,65.0,3.0,60.0,5.0,0.0
1432,50.0,1.0,60.0,3.0,0.0
1433,46.0,0.0,60.0,15.0,0.0
1434,50.0,3.0,60.0,13.0,0.0
1435,38.0,25.0,60.0,14.0,0.0
1436,70.0,3.0,30.0,10.0,0.0
1437,58.0,9.0,30.0,11.0,0.0
1438,58.0,48.0,60.0,12.0,0.0
1439,65.0,0.0,60.0,12.0,0.0
1440,82.0,3.0,30.0,10.0,0.0
1441,70.0,9.0,30.0,11.0,0.0
1442,67.0,48.0,60.0,12.0,0.0
1443,64.0,0.0,60.0,12.0,0.0
1444,79.0,3.0,30.0,10.0,0.0
1445,67.0,9.0,30.0,11.0,0.0
1446,64.0,48.0,60.0,12.0,0.0
1447,67.0,0.0,60.0,12.0,0.0
1448,77.0,3.0,30.0,10.0,0.0
1449,82.0,0.0,60.0,0.0,0.0
1450,76.0,2.0,60.0,0.0,0.0
1451,58.0,0.0,60.0,6.0,0.0
1452,65.0,9.0,30.0,11.0,0.0
1453,70.0,1.0,60.0,6.0,0.0
1454,64.0,1.0,60.0,1.0,0.0
1455,70.0,0.0,60.0,1.0,0.0
1456,46.0,0.0,60.0,4.0,0.0
1457,58.0,2.0,60.0,4.0,0.0
1458,64.0,1.0,60.0,2.0,0.0
1459,67.0,9.0,60.0,12.0,0.0
1460,64.0,0.0,60.0,12.0,0.0
1461,70.0,0.0,60.0,2.0,0.0
1462,64.0,3.0,60.0,5.0,0.0
1463,55.0,0.0,60.0,5.0,0.0
1464,55.0,1.0,60.0,3.0,0.0
1465,46.0,0.0,60.0,15.0,0.0
1466,55.0,3.0,60.0,13.0,0.0
1467,43.0,25.0,60.0,14.0,0.0
1468,76.0,3.0,30.0,10.0,0.0
1469,64.0,9.0,30.0,11.0,0.0
1470,67.0,48.0,60.0,12.0,0.0
1471,64.0,0.0,60.0,12.0,0.0
1472,77.0,3.0,30.0,10.0,0.0
1473,77.0,2.0,60.0,0.0,0.0
1474,82.0,0.0,60.0,0.0,0.0
1475,70.0,0.0,60.0,6.0,0.0
1476,65.0,9.0,30.0,11.0,0.0
1477,58.0,1.0,60.0,6.0,0.0
1478,65.0,1.0,60.0,1.0,0.0
1479,77.0,0.0,60.0,1.0,0.0
1480,58.0,0.0,60.0,4.0,0.0
1481,62.0,2.0,60.0,4.0,0.0
1482,70.0,1.0,60.0,2.0,0.0
1483,65.0,9.0,60.0,12.0,0.0
1484,58.0,0.0,60.0,12.0,0.0
1485,65.0,0.0,60.0,2.0,0.0
1486,58.0,3.0,60.0,5.0,0.0
1487,65.0,0.0,60.0,5.0,0.0
1488,38.0,1.0,60.0,3.0,0.0
1489,38.0,3.0,60.0,13.0,0.0
1490,46.0,0.0,60.0,15.0,0.0
1491,26.0,25.0,60.0,14.0,0.0
1492,74.0,3.0,30.0,10.0,0.0
1493,62.0,9.0,30.0,11.0,0.0
1494,58.0,48.0,60.0,12.0,0.0
1495,65.0,0.0,60.0,12.0,0.0
1496,72.0,3.0,30.0,10.0,0.0
1497,82.0,2.0,60.0,0.0,0.0
1498,77.0,0.0,60.0,0.0,0.0
1499,70.0,1.0,60.0,6.0,0.0
1500,60.0,9.0,30.0,11.0,0.0
1501,58.0,0.0,60.0,6.0,0.0
1502,65.0,0.0,60.0,1.0,0.0
1503,70.0,1.0,60.0,1.0,0.0
1504,58.0,2.0,60.0,4.0,0.0
1505,62.0,0.0,60.0,4.0,0.0
1506,65.0,0.0,60.0,12.0,0.0
1507,65.0,1.0,60.0,2.0,0.0
1508,70.0,0.0,60.0,2.0,0.0
1509,58.0,9.0,60.0,12.0,0.0
1510,58.0,3.0,60.0,5.0,0.0
1511,65.0,0.0,60.0,5.0,0.0
1512,50.0,1.0,60.0,3.0,0.0
1513,50.0,0.0,60.0,13.0,0.0
1514,46.0,3.0,60.0,15.0,0.0
1515,38.0,25.0,60.0,14.0,0.0
1516,70.0,3.0,30.0,10.0,0.0
1517,58.0,9.0,30.0,11.0,0.0
1518,65.0,48.0,60.0,12.0,0.0
1519,58.0,0.0,60.0,12.0,0.0
1520,82.0,3.0,30.0,10.0,0.0
1521,70.0,9.0,30.0,11.0,0.0
1522,64.0,0.0,60.0,12.0,0.0
1523,67.0,48.0,60.0,12.0,0.0
1524,79.0,3.0,30.0,10.0,0.0
1525,67.0,9.0,30.0,11.0,0.0
1526,64.0,48.0,60.0,12.0,0.0
1527,67.0,0.0,60.0,12.0,0.0
1528,77.0,3.0,30.0,10.0,0.0
1529,82.0,0.0,60.0,0.0,0.0
1530,76.0,2.0,60.0,0.0,0.0
1531,65.0,9.0,30.0,11.0,0.0
1532,70.0,1.0,60.0,6.0,0.0
1533,58.0,0.0,60.0,6.0,0.0
1534,70.0,1.0,60.0,1.0,0.0
1535,64.0,0.0,60.0,1.0,0.0
1536,46.0,2.0,60.0,4.0,0.0
1537,58.0,0.0,60.0,4.0,0.0
1538,64.0,1.0,60.0,2.0,0.0
1539,64.0,0.0,60.0,12.0,0.0
1540,67.0,9.0,60.0,12.0,0.0
1541,70.0,0.0,60.0,2.0,0.0
1542,55.0,3.0,60.0,5.0,0.0
1543,64.0,0.0,60.0,5.0,0.0
1544,55.0,1.0,60.0,3.0,0.0
1545,55.0,0.0,60.0,13.0,0.0
1546,46.0,3.0,60.0,15.0,0.0
1547,43.0,25.0,60.0,14.0,0.0
1548,76.0,3.0,30.0,10.0,0.0
1549,64.0,9.0,30.0,11.0,0.0
1550,64.0,48.0,60.0,12.0,0.0
1551,67.0,0.0,60.0,12.0,0.0
1552,82.0,3.0,30.0,10.0,0.0
1553,77.0,2.0,60.0,0.0,0.0
1554,82.0,0.0,60.0,0.0,0.0
1555,74.0,0.0,60.0,6.0,0.0
1556,70.0,1.0,60.0,6.0,0.0
1557,70.0,9.0,30.0,11.0,0.0
1558,65.0,0.0,60.0,1.0,0.0
1559,77.0,1.0,60.0,1.0,0.0
1560,58.0,0.0,60.0,4.0,0.0
1561,62.0,2.0,60.0,4.0,0.0
1562,70.0,0.0,60.0,2.0,0.0
1563,65.0,1.0,60.0,2.0,0.0
1564,62.0,0.0,60.0,12.0,0.0
1565,70.0,9.0,60.0,12.0,0.0
1566,65.0,0.0,60.0,5.0,0.0
1567,58.0,3.0,60.0,5.0,0.0
1568,38.0,1.0,60.0,3.0,0.0
1569,46.0,3.0,60.0,15.0,0.0
1570,38.0,0.0,60.0,13.0,0.0
1571,26.0,25.0,60.0,14.0,0.0
1572,77.0,3.0,30.0,10.0,0.0
1573,65.0,9.0,30.0,11.0,0.0
1574,70.0,0.0,60.0,12.0,0.0
1575,62.0,48.0,60.0,12.0,0.0
1576,75.0,3.0,30.0,10.0,0.0
1577,82.0,0.0,60.0,0.0,0.0
1578,77.0,2.0,60.0,0.0,0.0
1579,63.0,9.0,30.0,11.0,0.0
1580,74.0,1.0,60.0,6.0,0.0
1581,70.0,0.0,60.0,6.0,0.0
1582,74.0,0.0,60.0,1.0,0.0
1583,70.0,1.0,60.0,1.0,0.0
1584,46.0,0.0,60.0,4.0,0.0
1585,62.0,2.0,60.0,4.0,0.0
1586,70.0,1.0,60.0,2.0,0.0
1587,65.0,0.0,60.0,2.0,0.0
1588,58.0,9.0,60.0,12.0,0.0
1589,65.0,0.0,60.0,5.0,0.0
1590,58.0,3.0,60.0,5.0,0.0
1591,38.0,0.0,60.0,3.0,0.0
1592,50.0,1.0,60.0,3.0,0.0
1593,50.0,3.0,60.0,13.0,0.0
1594,46.0,0.0,60.0,15.0,0.0
1595,38.0,25.0,60.0,14.0,0.0
1596,74.0,3.0,30.0,10.0,0.0
1597,62.0,9.0,30.0,11.0,0.0
1598,58.0,48.0,60.0,12.0,0.0
1599,82.0,3.0,30.0,10.0,0.0
1600,70.0,9.0,30.0,11.0,0.0
1601,62.0,48.0,60.0,12.0,0.0
1602,70.0,0.0,60.0,12.0,0.0
1603,77.0,3.0,30.0,10.0,0.0
1604,65.0,9.0,30.0,11.0,0.0
1605,70.0,48.0,60.0,12.0,0.0
1606,62.0,0.0,60.0,12.0,0.0
1607,75.0,3.0,30.0,10.0,0.0
1608,82.0,2.0,60.0,0.0,0.0
1609,77.0,0.0,60.0,0.0,0.0
1610,70.0,1.0,60.0,6.0,0.0
1611,74.0,0.0,60.0,6.0,0.0
1612,63.0,9.0,30.0,11.0,0.0
1613,74.0,1.0,60.0,1.0,0.0
1614,70.0,0.0,60.0,1.0,0.0
1615,46.0,0.0,60.0,4.0,0.0
1616,62.0,2.0,60.0,4.0,0.0
1617,58.0,9.0,60.0,12.0,0.0
1618,65.0,0.0,60.0,2.0,0.0
1619,70.0,1.0,60.0,2.0,0.0
1620,58.0,3.0,60.0,5.0,0.0
1621,65.0,0.0,60.0,5.0,0.0
1622,51.0,0.0,60.0,3.0,0.0
1623,39.0,1.0,60.0,3.0,0.0
1624,46.0,0.0,60.0,15.0,0.0
1625,51.0,3.0,60.0,13.0,0.0
1626,39.0,25.0,60.0,14.0,0.0
1627,74.0,3.0,30.0,10.0,0.0
1628,62.0,9.0,30.0,11.0,0.0
1629,58.0,48.0,60.0,12.0,0.0
1630,82.0,3.0,30.0,10.0,0.0
1631,70.0,9.0,30.0,11.0,0.0
1632,70.0,0.0,60.0,12.0,0.0
1633,62.0,48.0,60.0,12.0,0.0
1634,77.0,3.0,30.0,10.0,0.0
1635,65.0,9.0,30.0,11.0,0.0
1636,62.0,0.0,60.0,12.0,0.0
1637,70.0,48.0,60.0,12.0,0.0
1638,75.0,3.0,30.0,10.0,0.0
1639,82.0,0.0,60.0,0.0,0.0
1640,77.0,2.0,60.0,0.0,0.0
1641,63.0,9.0,30.0,11.0,0.0
1642,70.0,0.0,60.0,6.0,0.0
1643,74.0,1.0,60.0,6.0,0.0
1644,74.0,1.0,60.0,1.0,0.0
1645,70.0,0.0,60.0,1.0,0.0
1646,46.0,0.0,60.0,4.0,0.0
1647,62.0,2.0,60.0,4.0,0.0
1648,58.0,9.0,60.0,12.0,0.0
1649,65.0,0.0,60.0,2.0,0.0
1650,70.0,1.0,60.0,2.0,0.0
1651,58.0,0.0,60.0,5.0,0.0
1652,65.0,3.0,60.0,5.0,0.0
1653,52.0,1.0,60.0,3.0,0.0
1654,40.0,0.0,60.0,3.0,0.0
1655,46.0,0.0,60.0,15.0,0.0
1656,52.0,3.0,60.0,13.0,0.0
1657,40.0,25.0,60.0,14.0,0.0
1658,74.0,3.0,30.0,10.0,0.0
1659,62.0,9.0,30.0,11.0,0.0
1660,58.0,48.0,60.0,12.0,0.0
1661,82.0,3.0,30.0,10.0,0.0
1662,70.0,9.0,30.0,11.0,0.0
1663,70.0,0.0,60.0,12.0,0.0
1664,62.0,48.0,60.0,12.0,0.0
1665,77.0,3.0,30.0,10.0,0.0
1666,65.0,9.0,30.0,11.0,0.0
1667,62.0,48.0,60.0,12.0,0.0
1668,70.0,0.0,60.0,12.0,0.0
1669,75.0,3.0,30.0,10.0,0.0
1670,82.0,2.0,60.0,0.0,0.0
1671,77.0,0.0,60.0,0.0,0.0
1672,70.0,1.0,60.0,6.0,0.0
1673,63.0,9.0,30.0,11.0,0.0
1674,74.0,0.0,60.0,6.0,0.0
1675,74.0,1.0,60.0,1.0,0.0
1676,70.0,0.0,60.0,1.0,0.0
1677,62.0,2.0,60.0,4.0,0.0
1678,46.0,0.0,60.0,4.0,0.0
1679,58.0,9.0,60.0,12.0,0.0
1680,65.0,1.0,60.0,2.0,0.0
1681,70.0,0.0,60.0,2.0,0.0
1682,65.0,0.0,60.0,5.0,0.0
1683,58.0,3.0,60.0,5.0,0.0
1684,41.0,1.0,60.0,3.0,0.0
1685,53.0,0.0,60.0,3.0,0.0
1686,46.0,3.0,60.0,15.0,0.0
1687,53.0,0.0,60.0,13.0,0.0
1688,41.0,25.0,60.0,14.0,0.0
1689,74.0,3.0,30.0,10.0,0.0
1690,62.0,9.0,30.0,11.0,0.0
1691,58.0,48.0,60.0,12.0,0.0
1692,87.0,3.0,30.0,10.0,0.0
1693,82.0,0.0,480.0,0.0,0.0
1694,79.0,2.0,480.0,0.0,0.0
1695,70.0,0.0,480.0,6.0,0.0
1696,72.0,1.0,480.0,6.0,0.0
1697,75.0,9.0,30.0,11.0,0.0
1698,75.0,0.0,480.0,1.0,0.0
1699,67.0,1.0,480.0,1.0,0.0
1700,58.0,2.0,480.0,4.0,0.0
1701,60.0,0.0,480.0,4.0,0.0
1702,58.0,19.0,60.0,12.0,0.0
1703,67.0,0.0,60.0,12.0,0.0
1704,70.0,0.0,480.0,2.0,0.0
1705,67.0,1.0,480.0,2.0,0.0
1706,63.0,19.0,480.0,5.0,0.0
1707,55.0,0.0,480.0,5.0,0.0
1708,36.0,1.0,60.0,3.0,0.0
1709,36.0,0.0,60.0,13.0,0.0
1710,46.0,3.0,60.0,15.0,0.0
1711,24.0,25.0,60.0,14.0,0.0
1712,84.0,3.0,30.0,10.0,0.0
1713,72.0,9.0,30.0,11.0,0.0
1714,58.0,0.0,60.0,12.0,0.0
1715,67.0,20.0,60.0,12.0,0.0
1716,82.0,3.0,30.0,10.0,0.0
1717,82.0,9.0,30.0,11.0,0.0
1718,58.0,19.0,60.0,12.0,0.0
1719,67.0,0.0,60.0,12.0,0.0
1720,48.0,1.0,60.0,3.0,0.0
1721,46.0,28.0,15.0,15.0,0.0
1722,48.0,3.0,60.0,13.0,0.0
1723,36.0,25.0,60.0,14.0,0.0
1724,79.0,3.0,30.0,10.0,0.0
1725,79.0,9.0,30.0,11.0,0.0
1726,67.0,0.0,60.0,12.0,0.0
1727,58.0,20.0,60.0,12.0,0.0
1728,46.0,28.0,60.0,15.0,0.0
1729,75.0,3.0,30.0,10.0,0.0
1730,75.0,9.0,30.0,11.0,0.0
1731,67.0,20.0,60.0,12.0,0.0
1732,58.0,0.0,60.0,12.0,0.0
1733,46.0,28.0,60.0,15.0,0.0
1734,72.0,3.0,30.0,10.0,0.0
1735,72.0,9.0,30.0,11.0,0.0
1736,67.0,20.0,60.0,12.0,0.0
1737,58.0,0.0,60.0,12.0,0.0
1738,70.0,3.0,30.0,10.0,0.0
1739,70.0,9.0,30.0,11.0,0.0
1740,58.0,0.0,60.0,12.0,0.0
1741,67.0,19.0,60.0,12.0,0.0
1742,48.0,1.0,60.0,3.0,0.0
1743,48.0,3.0,60.0,13.0,0.0
1744,46.0,28.0,15.0,15.0,0.0
1745,36.0,25.0,60.0,14.0,0.0
1746,67.0,3.0,30.0,10.0,0.0
1747,67.0,3.0,30.0,11.0,0.0
1748,58.0,0.0,60.0,12.0,0.0
1749,67.0,0.0,60.0,12.0,0.0
1750,46.0,0.0,15.0,15.0,0.0
1751,65.0,3.0,30.0,10.0,0.0
1752,87.0,3.0,480.0,0.0,0.0
1753,81.0,0.0,480.0,0.0,0.0
1754,65.0,2.0,360.0,6.0,0.0
1755,65.0,9.0,30.0,11.0,0.0
1756,72.0,0.0,360.0,6.0,0.0
1757,75.0,3.0,480.0,1.0,0.0
1758,69.0,0.0,480.0,1.0,0.0
1759,53.0,0.0,360.0,4.0,0.0
1760,41.0,2.0,360.0,4.0,0.0
1761,69.0,0.0,60.0,12.0,0.0
1762,69.0,1.0,480.0,2.0,0.0
1763,63.0,0.0,480.0,2.0,0.0
1764,60.0,19.0,60.0,12.0,0.0
1765,63.0,0.0,480.0,5.0,0.0
1766,60.0,19.0,480.0,5.0,0.0
1767,41.0,1.0,60.0,3.0,0.0
1768,41.0,0.0,60.0,13.0,0.0
1769,29.0,25.0,60.0,14.0,0.0
1770,63.0,3.0,30.0,10.0,0.0
1771,63.0,9.0,30.0,11.0,0.0
1772,69.0,0.0,60.0,12.0,0.0
1773,60.0,20.0,60.0,12.0,0.0
1774,41.0,3.0,15.0,15.0,0.0
1775,60.0,3.0,30.0,10.0,0.0
1776,60.0,9.0,30.0,11.0,0.0
1777,60.0,0.0,60.0,12.0,0.0
1778,69.0,19.0,60.0,12.0,0.0
1779,53.0,1.0,60.0,3.0,0.0
1780,53.0,0.0,60.0,13.0,0.0
1781,41.0,28.0,15.0,15.0,0.0
1782,41.0,25.0,60.0,14.0,0.0
1783,57.0,3.0,30.0,10.0,0.0
1784,57.0,9.0,30.0,11.0,0.0
1785,69.0,20.0,60.0,12.0,0.0
1786,60.0,0.0,60.0,12.0,0.0
1787,41.0,3.0,15.0,15.0,0.0
1788,53.0,3.0,30.0,10.0,0.0
1789,53.0,9.0,30.0,11.0,0.0
1790,69.0,0.0,60.0,12.0,0.0
1791,60.0,20.0,60.0,12.0,0.0
1792,41.0,28.0,60.0,15.0,0.0
1793,65.0,3.0,30.0,10.0,0.0
1794,57.0,5.0,30.0,11.0,0.0
1795,69.0,20.0,60.0,12.0,0.0
1796,60.0,0.0,60.0,12.0,0.0
1797,69.0,3.0,30.0,10.0,0.0
1798,53.0,2.0,60.0,6.0,0.0
1799,65.0,0.0,60.0,6.0,0.0
1800,60.0,9.0,30.0,11.0,0.0
1801,53.0,0.0,60.0,4.0,0.0
1802,41.0,6.0,60.0,4.0,0.0
1803,60.0,11.0,60.0,12.0,0.0
1804,69.0,0.0,60.0,12.0,0.0
1805,53.0,0.0,60.0,3.0,0.0
1806,41.0,1.0,60.0,3.0,0.0
1807,41.0,3.0,60.0,13.0,0.0
1808,41.0,28.0,15.0,15.0,0.0
1809,29.0,25.0,60.0,14.0,0.0
1810,81.0,3.0,30.0,10.0,0.0
1811,63.0,3.0,30.0,11.0,0.0
1812,69.0,0.0,60.0,12.0,0.0
1813,60.0,0.0,60.0,12.0,0.0
1814,41.0,31.0,60.0,15.0,0.0
1815,58.0,3.0,60.0,10.0,0.0
1816,70.0,2.0,60.0,6.0,0.0
1817,62.0,9.0,30.0,11.0,0.0
1818,58.0,0.0,60.0,6.0,0.0
1819,58.0,0.0,60.0,4.0,0.0
1820,46.0,6.0,60.0,4.0,0.0
1821,65.0,8.0,60.0,12.0,0.0
1822,62.0,0.0,60.0,12.0,0.0
1823,46.0,0.0,60.0,3.0,0.0
1824,58.0,1.0,60.0,3.0,0.0
1825,46.0,0.0,60.0,13.0,0.0
1826,46.0,3.0,60.0,15.0,0.0
1827,34.0,28.0,60.0,14.0,0.0
1828,65.0,9.0,30.0,11.0,0.0
1829,62.0,51.0,60.0,12.0,0.0
1830,65.0,0.0,60.0,12.0,0.0
1831,82.0,1.0,60.0,10.0,0.0
1832,82.0,3.0,60.0,0.0,0.0
1833,86.0,0.0,60.0,0.0,0.0
1834,70.0,9.0,30.0,11.0,0.0
1835,70.0,3.0,60.0,1.0,0.0
1836,74.0,0.0,60.0,1.0,0.0
1837,70.0,0.0,60.0,2.0,0.0
1838,62.0,1.0,60.0,2.0,0.0
1839,65.0,0.0,60.0,12.0,0.0
1840,62.0,8.0,60.0,12.0,0.0
1841,62.0,0.0,60.0,5.0,0.0
1842,58.0,35.0,60.0,5.0,0.0
1843,72.0,9.0,30.0,11.0,0.0
1844,65.0,51.0,60.0,12.0,0.0
1845,62.0,0.0,60.0,12.0,0.0
1846,77.0,1.0,60.0,10.0,0.0
1847,77.0,0.0,60.0,0.0,0.0
1848,86.0,3.0,60.0,0.0,0.0
1849,74.0,9.0,30.0,11.0,0.0
1850,74.0,3.0,60.0,1.0,0.0
1851,65.0,0.0,60.0,1.0,0.0
1852,62.0,8.0,60.0,12.0,0.0
1853,65.0,0.0,60.0,12.0,0.0
1854,62.0,1.0,60.0,2.0,0.0
1855,65.0,0.0,60.0,2.0,0.0
1856,58.0,0.0,60.0,5.0,0.0
1857,62.0,35.0,60.0,5.0,0.0
1858,72.0,9.0,30.0,11.0,0.0
1859,65.0,51.0,60.0,12.0,0.0
1860,62.0,0.0,60.0,12.0,0.0
1861,74.0,9.0,30.0,11.0,0.0
1862,62.0,2.0,60.0,6.0,0.0
1863,70.0,0.0,60.0,6.0,0.0
1864,53.0,6.0,60.0,4.0,0.0
1865,41.0,0.0,60.0,4.0,0.0
1866,62.0,0.0,60.0,12.0,0.0
1867,65.0,11.0,60.0,12.0,0.0
1868,53.0,0.0,60.0,3.0,0.0
1869,41.0,1.0,60.0,3.0,0.0
1870,41.0,3.0,60.0,13.0,0.0
1871,41.0,0.0,60.0,15.0,0.0
1872,29.0,28.0,60.0,14.0,0.0
1873,77.0,9.0,30.0,11.0,0.0
1874,62.0,51.0,60.0,12.0,0.0
1875,65.0,0.0,60.0,12.0,0.0
1876,58.0,9.0,30.0,11.0,0.0
1877,74.0,0.0,60.0,6.0,0.0
1878,70.0,2.0,60.0,6.0,0.0
1879,53.0,0.0,60.0,4.0,0.0
1880,41.0,6.0,60.0,4.0,0.0
1881,65.0,0.0,60.0,12.0,0.0
1882,62.0,11.0,60.0,12.0,0.0
1883,58.0,1.0,60.0,3.0,0.0
1884,46.0,0.0,60.0,3.0,0.0
1885,46.0,0.0,60.0,15.0,0.0
1886,46.0,3.0,60.0,13.0,0.0
1887,34.0,28.0,60.0,14.0,0.0
1888,62.0,9.0,30.0,11.0,0.0
1889,65.0,51.0,60.0,12.0,0.0
1890,62.0,0.0,60.0,12.0,0.0
1891,79.0,1.0,60.0,10.0,0.0
1892,82.0,0.0,60.0,0.0,0.0
1893,79.0,3.0,60.0,0.0,0.0
1894,67.0,9.0,30.0,11.0,0.0
1895,67.0,0.0,60.0,1.0,0.0
1896,70.0,3.0,60.0,1.0,0.0
1897,62.0,8.0,60.0,12.0,0.0
1898,65.0,0.0,60.0,12.0,0.0
1899,67.0,1.0,60.0,2.0,0.0
1900,70.0,0.0,60.0,2.0,0.0
1901,55.0,0.0,60.0,5.0,0.0
1902,43.0,35.0,60.0,5.0,0.0
1903,69.0,9.0,30.0,11.0,0.0
1904,62.0,0.0,60.0,12.0,0.0
1905,65.0,51.0,60.0,12.0,0.0
1906,74.0,1.0,60.0,10.0,0.0
1907,74.0,3.0,60.0,0.0,0.0
1908,82.0,0.0,60.0,0.0,0.0
1909,70.0,9.0,30.0,11.0,0.0
1910,70.0,0.0,60.0,1.0,0.0
1911,74.0,3.0,60.0,1.0,0.0
1912,70.0,0.0,60.0,2.0,0.0
1913,65.0,8.0,60.0,12.0,0.0
1914,62.0,0.0,60.0,12.0,0.0
1915,62.0,1.0,60.0,2.0,0.0
1916,58.0,35.0,60.0,5.0,0.0
1917,55.0,0.0,60.0,5.0,0.0
1918,69.0,9.0,30.0,11.0,0.0
1919,65.0,51.0,60.0,12.0,0.0
1920,62.0,0.0,60.0,12.0,0.0
1921,70.0,0.0,60.0,6.0,0.0
1922,62.0,2.0,60.0,6.0,0.0
1923,70.0,9.0,30.0,11.0,0.0
1924,58.0,0.0,60.0,4.0,0.0
1925,50.0,6.0,60.0,4.0,0.0
1926,65.0,11.0,60.0,12.0,0.0
1927,62.0,0.0,60.0,12.0,0.0
1928,38.0,0.0,60.0,3.0,0.0
1929,50.0,1.0,60.0,3.0,0.0
1930,46.0,3.0,60.0,15.0,0.0
1931,38.0,0.0,60.0,13.0,0.0
1932,26.0,28.0,60.0,14.0,0.0
1933,74.0,9.0,30.0,11.0,0.0
1934,62.0,60.0,60.0,12.0,0.0
1935,65.0,0.0,60.0,12.0,0.0
1936,55.0,0.0,60.0,11.0,0.0
1937,74.0,0.0,60.0,6.0,0.0
1938,70.0,2.0,60.0,6.0,0.0
1939,50.0,6.0,60.0,4.0,0.0
1940,58.0,0.0,60.0,4.0,0.0
1941,58.0,11.0,60.0,12.0,0.0
1942,43.0,1.0,60.0,3.0,0.0
1943,55.0,0.0,60.0,3.0,0.0
1944,46.0,3.0,60.0,15.0,0.0
1945,43.0,0.0,60.0,13.0,0.0
1946,31.0,28.0,60.0,14.0,0.0
1947,58.0,9.0,30.0,11.0,0.0
1948,58.0,51.0,60.0,12.0,0.0
1949,77.0,1.0,60.0,10.0,0.0
1950,82.0,0.0,60.0,0.0,0.0
1951,77.0,2.0,60.0,0.0,0.0
1952,58.0,1.0,60.0,6.0,0.0
1953,70.0,0.0,60.0,6.0,0.0
1954,62.0,9.0,30.0,11.0,0.0
1955,65.0,1.0,60.0,1.0,0.0
1956,70.0,0.0,60.0,1.0,0.0
1957,58.0,2.0,60.0,4.0,0.0
1958,62.0,0.0,60.0,4.0,0.0
1959,58.0,0.0,60.0,12.0,0.0
1960,65.0,4.0,60.0,2.0,0.0
1961,65.0,8.0,60.0,12.0,0.0
1962,70.0,0.0,60.0,2.0,0.0
1963,38.0,1.0,60.0,3.0,0.0
1964,50.0,0.0,60.0,3.0,0.0
1965,46.0,3.0,60.0,15.0,0.0
1966,38.0,0.0,60.0,13.0,0.0
1967,26.0,28.0,60.0,14.0,0.0
1968,65.0,9.0,30.0,11.0,0.0
1969,58.0,51.0,60.0,12.0,0.0
1970,65.0,0.0,60.0,12.0,0.0
1971,72.0,3.0,150.0,10.0,0.0
1972,84.0,0.0,240.0,0.0,0.0
1973,82.0,2.0,240.0,0.0,0.0
1974,72.0,1.0,240.0,6.0,0.0
1975,70.0,9.0,30.0,11.0,0.0
1976,70.0,0.0,240.0,6.0,0.0
1977,70.0,0.0,240.0,1.0,0.0
1978,72.0,1.0,240.0,1.0,0.0
1979,60.0,2.0,240.0,4.0,0.0
1980,58.0,0.0,240.0,4.0,0.0
1981,70.0,0.0,240.0,2.0,0.0
1982,67.0,33.0,120.0,2.0,0.0
1983,67.0,19.0,60.0,12.0,0.0
1984,58.0,0.0,60.0,12.0,0.0
1985,51.0,0.0,60.0,3.0,0.0
1986,39.0,1.0,60.0,3.0,0.0
1987,46.0,3.0,60.0,15.0,0.0
1988,51.0,0.0,60.0,13.0,0.0
1989,39.0,28.0,60.0,14.0,0.0
1990,69.0,9.0,30.0,11.0,0.0
1991,58.0,0.0,60.0,12.0,0.0
1992,67.0,15.0,60.0,12.0,0.0
1993,70.0,9.0,30.0,11.0,0.0
1994,65.0,0.0,120.0,2.0,0.0
1995,58.0,19.0,60.0,12.0,0.0
1996,65.0,0.0,60.0,12.0,0.0
1997,38.0,0.0,60.0,3.0,0.0
1998,50.0,1.0,60.0,3.0,0.0
1999,46.0,0.0,60.0,15.0,0.0
2000,50.0,3.0,60.0,13.0,0.0
2001,38.0,25.0,60.0,14.0,0.0
2002,74.0,3.0,30.0,10.0,0.0
2003,70.0,3.0,30.0,11.0,0.0
2004,65.0,51.0,60.0,12.0,0.0
2005,58.0,0.0,60.0,12.0,0.0
2006,72.0,3.0,150.0,10.0,0.0
2007,84.0,2.0,240.0,0.0,0.0
2008,82.0,0.0,240.0,0.0,0.0
2009,72.0,1.0,240.0,6.0,0.0
2010,70.0,0.0,240.0,6.0,0.0
2011,70.0,9.0,30.0,11.0,0.0
2012,70.0,1.0,240.0,1.0,0.0
2013,72.0,0.0,240.0,1.0,0.0
2014,58.0,0.0,240.0,4.0,0.0
2015,60.0,2.0,240.0,4.0,0.0
2016,67.0,19.0,60.0,12.0,0.0
2017,70.0,0.0,240.0,2.0,0.0
2018,58.0,0.0,60.0,12.0,0.0
2019,67.0,0.0,240.0,2.0,0.0
2020,39.0,0.0,60.0,3.0,0.0
2021,51.0,1.0,60.0,3.0,0.0
2022,46.0,0.0,60.0,15.0,0.0
2023,51.0,3.0,60.0,13.0,0.0
2024,39.0,28.0,60.0,14.0,0.0
2025,69.0,9.0,30.0,11.0,0.0
2026,58.0,48.0,60.0,12.0,0.0
2027,67.0,0.0,60.0,12.0,0.0
2028,70.0,9.0,30.0,11.0,0.0
2029,63.0,0.0,60.0,12.0,0.0
2030,67.0,19.0,60.0,12.0,0.0
2031,48.0,1.0,60.0,3.0,0.0
2032,36.0,0.0,60.0,3.0,0.0
2033,48.0,0.0,60.0,13.0,0.0
2034,46.0,3.0,60.0,15.0,0.0
2035,36.0,25.0,60.0,14.0,0.0
2036,74.0,3.0,30.0,10.0,0.0
2037,70.0,3.0,30.0,11.0,0.0
2038,67.0,48.0,60.0,12.0,0.0
2039,63.0,0.0,60.0,12.0,0.0
2040,72.0,3.0,30.0,10.0,0.0
2041,82.0,0.0,120.0,0.0,0.0
2042,84.0,3.0,120.0,0.0,0.0
2043,70.0,9.0,30.0,11.0,0.0
2044,65.0,0.0,60.0,6.0,0.0
2045,72.0,2.0,60.0,6.0,0.0
2046,70.0,3.0,120.0,1.0,0.0
2047,72.0,0.0,120.0,1.0,0.0
2048,53.0,6.0,60.0,4.0,0.0
2049,60.0,0.0,60.0,4.0,0.0
2050,65.0,0.0,60.0,12.0,0.0
2051,63.0,11.0,60.0,12.0,0.0
2052,65.0,0.0,240.0,2.0,0.0
2053,70.0,26.0,120.0,2.0,0.0
2054,41.0,1.0,60.0,3.0,0.0
2055,53.0,0.0,60.0,3.0,0.0
2056,53.0,3.0,60.0,13.0,0.0
2057,41.0,0.0,60.0,15.0,0.0
2058,41.0,25.0,60.0,14.0,0.0
2059,75.0,3.0,30.0,10.0,0.0
2060,67.0,9.0,30.0,11.0,0.0
2061,65.0,9.0,60.0,12.0,0.0
2062,63.0,0.0,60.0,12.0,0.0
2063,74.0,2.0,30.0,10.0,0.0
2064,87.0,0.0,120.0,0.0,0.0
2065,81.0,3.0,120.0,0.0,0.0
2066,65.0,0.0,30.0,6.0,0.0
2067,72.0,2.0,30.0,6.0,0.0
2068,69.0,9.0,30.0,11.0,0.0
2069,75.0,0.0,120.0,1.0,0.0
2070,69.0,3.0,120.0,1.0,0.0
2071,41.0,5.0,30.0,4.0,0.0
2072,53.0,0.0,30.0,4.0,0.0
2073,63.0,0.0,60.0,12.0,0.0
2074,65.0,19.0,60.0,12.0,0.0
2075,69.0,0.0,120.0,2.0,0.0
2076,53.0,1.0,60.0,3.0,0.0
2077,41.0,0.0,60.0,3.0,0.0
2078,41.0,1.0,30.0,15.0,0.0
2079,41.0,3.0,60.0,13.0,0.0
2080,29.0,18.0,60.0,14.0,0.0
2081,72.0,2.0,30.0,10.0,0.0
2082,72.0,2.0,30.0,6.0,0.0
2083,65.0,0.0,30.0,6.0,0.0
2084,69.0,3.0,30.0,11.0,0.0
2085,41.0,5.0,30.0,4.0,0.0
2086,53.0,0.0,30.0,4.0,0.0
2087,63.0,51.0,60.0,12.0,0.0
2088,65.0,0.0,60.0,12.0,0.0
2089,41.0,1.0,30.0,15.0,0.0
2090,74.0,1.0,60.0,10.0,0.0
2091,82.0,2.0,60.0,0.0,0.0
2092,86.0,0.0,60.0,0.0,0.0
2093,70.0,1.0,60.0,6.0,0.0
2094,58.0,9.0,30.0,11.0,0.0
2095,74.0,0.0,60.0,6.0,0.0
2096,70.0,1.0,60.0,1.0,0.0
2097,74.0,0.0,60.0,1.0,0.0
2098,46.0,0.0,60.0,4.0,0.0
2099,58.0,2.0,60.0,4.0,0.0
2100,62.0,8.0,60.0,12.0,0.0
2101,65.0,0.0,60.0,12.0,0.0
2102,65.0,4.0,60.0,2.0,0.0
2103,70.0,0.0,60.0,2.0,0.0
2104,34.0,0.0,60.0,3.0,0.0
2105,46.0,1.0,60.0,3.0,0.0
2106,46.0,3.0,60.0,15.0,0.0
2107,46.0,0.0,60.0,13.0,0.0
2108,34.0,25.0,60.0,14.0,0.0
2109,70.0,3.0,30.0,10.0,0.0
2110,65.0,9.0,30.0,11.0,0.0
2111,62.0,0.0,60.0,12.0,0.0
2112,65.0,38.0,60.0,12.0,0.0
2113,82.0,1.0,30.0,10.0,0.0
2114,86.0,0.0,30.0,0.0,0.0
2115,82.0,3.0,30.0,0.0,0.0
2116,70.0,9.0,30.0,11.0,0.0
2117,74.0,0.0,30.0,1.0,0.0
2118,70.0,3.0,30.0,1.0,0.0
2119,74.0,0.0,30.0,2.0,0.0
2120,65.0,0.0,60.0,12.0,0.0
2121,70.0,1.0,30.0,2.0,0.0
2122,62.0,38.0,60.0,12.0,0.0
2123,62.0,0.0,30.0,5.0,0.0
2124,58.0,5.0,30.0,5.0,0.0
2125,82.0,1.0,30.0,10.0,0.0
2126,86.0,0.0,30.0,0.0,0.0
2127,82.0,3.0,30.0,0.0,0.0
2128,72.0,9.0,30.0,11.0,0.0
2129,70.0,3.0,30.0,1.0,0.0
2130,74.0,0.0,30.0,1.0,0.0
2131,74.0,0.0,30.0,2.0,0.0
2132,70.0,1.0,30.0,2.0,0.0
2133,62.0,0.0,60.0,12.0,0.0
2134,65.0,51.0,60.0,12.0,0.0
2135,58.0,0.0,30.0,5.0,0.0
2136,62.0,5.0,30.0,5.0,0.0
2137,77.0,1.0,60.0,10.0,0.0
2138,86.0,0.0,60.0,0.0,0.0
2139,77.0,3.0,60.0,0.0,0.0
2140,74.0,9.0,30.0,11.0,0.0
2141,74.0,0.0,60.0,1.0,0.0
2142,65.0,3.0,60.0,1.0,0.0
2143,65.0,0.0,60.0,12.0,0.0
2144,62.0,8.0,60.0,12.0,0.0
2145,74.0,0.0,60.0,2.0,0.0
2146,77.0,1.0,60.0,2.0,0.0
2147,58.0,35.0,60.0,5.0,0.0
2148,62.0,0.0,60.0,5.0,0.0
2149,72.0,9.0,30.0,11.0,0.0
2150,65.0,0.0,60.0,12.0,0.0
2151,62.0,41.0,60.0,12.0,0.0
2152,74.0,2.0,30.0,11.0,0.0
2153,72.0,2.0,30.0,6.0,0.0
2154,65.0,0.0,30.0,6.0,0.0
2155,53.0,6.0,30.0,4.0,0.0
2156,41.0,0.0,30.0,4.0,0.0
2157,62.0,0.0,60.0,12.0,0.0
2158,65.0,41.0,60.0,12.0,0.0
2159,41.0,1.0,30.0,3.0,0.0
2160,53.0,0.0,30.0,3.0,0.0
2161,41.0,0.0,30.0,13.0,0.0
2162,41.0,1.0,30.0,15.0,0.0
2163,29.0,7.0,30.0,14.0,0.0
2164,65.0,0.0,30.0,6.0,0.0
2165,77.0,2.0,30.0,11.0,0.0
2166,72.0,2.0,30.0,6.0,0.0
2167,41.0,0.0,30.0,4.0,0.0
2168,53.0,6.0,30.0,4.0,0.0
2169,62.0,0.0,60.0,12.0,0.0
2170,65.0,51.0,60.0,12.0,0.0
2171,41.0,0.0,30.0,3.0,0.0
2172,53.0,1.0,30.0,3.0,0.0
2173,41.0,0.0,30.0,15.0,0.0
2174,41.0,1.0,30.0,13.0,0.0
2175,29.0,7.0,30.0,14.0,0.0
2176,58.0,9.0,30.0,11.0,0.0
2177,70.0,0.0,60.0,6.0,0.0
2178,74.0,2.0,60.0,6.0,0.0
2179,46.0,0.0,60.0,4.0,0.0
2180,58.0,6.0,60.0,4.0,0.0
2181,58.0,11.0,60.0,12.0,0.0
2182,62.0,0.0,60.0,12.0,0.0
2183,46.0,0.0,60.0,3.0,0.0
2184,58.0,1.0,60.0,3.0,0.0
2185,46.0,0.0,60.0,13.0,0.0
2186,46.0,3.0,60.0,15.0,0.0
2187,34.0,28.0,60.0,14.0,0.0
2188,62.0,9.0,30.0,11.0,0.0
2189,58.0,38.0,60.0,12.0,0.0
2190,62.0,0.0,60.0,12.0,0.0
2191,79.0,1.0,30.0,10.0,0.0
2192,82.0,0.0,30.0,0.0,0.0
2193,79.0,3.0,30.0,0.0,0.0
2194,67.0,9.0,30.0,11.0,0.0
2195,70.0,0.0,30.0,1.0,0.0
2196,67.0,3.0,30.0,1.0,0.0
2197,70.0,0.0,30.0,2.0,0.0
2198,67.0,1.0,30.0,2.0,0.0
2199,58.0,0.0,60.0,12.0,0.0
2200,62.0,38.0,60.0,12.0,0.0
2201,55.0,5.0,30.0,5.0,0.0
2202,43.0,0.0,30.0,5.0,0.0
2203,79.0,1.0,30.0,10.0,0.0
2204,82.0,0.0,30.0,0.0,0.0
2205,79.0,3.0,30.0,0.0,0.0
2206,69.0,9.0,30.0,11.0,0.0
2207,70.0,0.0,30.0,1.0,0.0
2208,67.0,3.0,30.0,1.0,0.0
2209,62.0,51.0,60.0,12.0,0.0
2210,58.0,0.0,60.0,12.0,0.0
2211,67.0,1.0,30.0,2.0,0.0
2212,70.0,0.0,30.0,2.0,0.0
2213,55.0,5.0,30.0,5.0,0.0
2214,43.0,0.0,30.0,5.0,0.0
2215,74.0,1.0,60.0,10.0,0.0
2216,74.0,0.0,60.0,0.0,0.0
2217,82.0,3.0,60.0,0.0,0.0
2218,70.0,9.0,30.0,11.0,0.0
2219,70.0,3.0,60.0,1.0,0.0
2220,62.0,0.0,60.0,1.0,0.0
2221,58.0,8.0,60.0,12.0,0.0
2222,62.0,0.0,60.0,12.0,0.0
2223,74.0,0.0,60.0,2.0,0.0
2224,70.0,1.0,60.0,2.0,0.0
2225,55.0,0.0,60.0,5.0,0.0
2226,58.0,35.0,60.0,5.0,0.0
2227,67.0,9.0,30.0,11.0,0.0
2228,62.0,0.0,60.0,12.0,0.0
2229,58.0,41.0,60.0,12.0,0.0
2230,72.0,0.0,30.0,6.0,0.0
2231,65.0,2.0,30.0,6.0,0.0
2232,70.0,2.0,30.0,11.0,0.0
2233,58.0,6.0,30.0,4.0,0.0
2234,50.0,0.0,30.0,4.0,0.0
2235,62.0,41.0,60.0,12.0,0.0
2236,58.0,0.0,60.0,12.0,0.0
2237,50.0,0.0,30.0,3.0,0.0
2238,38.0,1.0,30.0,3.0,0.0
2239,38.0,0.0,30.0,13.0,0.0
2240,46.0,1.0,30.0,15.0,0.0
2241,26.0,7.0,30.0,14.0,0.0
2242,74.0,2.0,30.0,11.0,0.0
2243,65.0,0.0,30.0,6.0,0.0
2244,72.0,2.0,30.0,6.0,0.0
2245,50.0,6.0,30.0,4.0,0.0
2246,58.0,0.0,30.0,4.0,0.0
2247,58.0,60.0,60.0,12.0,0.0
2248,62.0,0.0,60.0,12.0,0.0
2249,50.0,0.0,30.0,3.0,0.0
2250,38.0,1.0,30.0,3.0,0.0
2251,38.0,1.0,30.0,13.0,0.0
2252,46.0,0.0,30.0,15.0,0.0
2253,26.0,7.0,30.0,14.0,0.0
2254,55.0,2.0,60.0,11.0,0.0
2255,74.0,0.0,60.0,6.0,0.0
2256,70.0,0.0,60.0,6.0,0.0
2257,58.0,6.0,60.0,4.0,0.0
2258,62.0,0.0,60.0,4.0,0.0
2259,58.0,11.0,60.0,12.0,0.0
2260,55.0,0.0,60.0,3.0,0.0
2261,43.0,1.0,60.0,3.0,0.0
2262,43.0,0.0,60.0,13.0,0.0
2263,46.0,3.0,60.0,15.0,0.0
2264,31.0,28.0,60.0,14.0,0.0
2265,58.0,9.0,30.0,11.0,0.0
2266,58.0,38.0,60.0,12.0,0.0
2267,77.0,13.0,30.0,10.0,0.0
2268,82.0,0.0,60.0,0.0,0.0
2269,89.0,2.0,60.0,0.0,0.0
2270,70.0,1.0,60.0,6.0,0.0
2271,62.0,9.0,30.0,11.0,0.0
2272,58.0,0.0,60.0,6.0,0.0
2273,70.0,0.0,60.0,1.0,0.0
2274,77.0,1.0,60.0,1.0,0.0
2275,58.0,2.0,60.0,4.0,0.0
2276,62.0,0.0,60.0,4.0,0.0
2277,65.0,4.0,60.0,2.0,0.0
2278,58.0,9.0,60.0,12.0,0.0
2279,65.0,0.0,60.0,12.0,0.0
2280,70.0,0.0,60.0,2.0,0.0
2281,50.0,1.0,60.0,3.0,0.0
2282,38.0,0.0,60.0,3.0,0.0
2283,46.0,0.0,60.0,15.0,0.0
2284,38.0,3.0,60.0,13.0,0.0
2285,26.0,15.0,60.0,14.0,0.0
2286,77.0,13.0,30.0,10.0,0.0
2287,65.0,9.0,30.0,11.0,0.0
2288,65.0,0.0,60.0,12.0,0.0
2289,58.0,51.0,60.0,12.0,0.0
2290,72.0,3.0,150.0,10.0,0.0
2291,84.0,2.0,240.0,0.0,0.0
2292,82.0,0.0,240.0,0.0,0.0
2293,72.0,0.0,240.0,6.0,0.0
2294,70.0,9.0,30.0,11.0,0.0
2295,70.0,1.0,240.0,6.0,0.0
2296,72.0,1.0,240.0,1.0,0.0
2297,70.0,0.0,240.0,1.0,0.0
2298,58.0,0.0,240.0,4.0,0.0
2299,60.0,2.0,240.0,4.0,0.0
2300,58.0,19.0,60.0,12.0,0.0
2301,67.0,0.0,60.0,12.0,0.0
2302,67.0,33.0,120.0,2.0,0.0
2303,70.0,0.0,240.0,2.0,0.0
2304,39.0,0.0,60.0,3.0,0.0
2305,51.0,1.0,60.0,3.0,0.0
2306,46.0,3.0,60.0,15.0,0.0
2307,51.0,0.0,60.0,13.0,0.0
2308,39.0,28.0,60.0,14.0,0.0
2309,69.0,9.0,30.0,11.0,0.0
2310,67.0,15.0,60.0,12.0,0.0
2311,58.0,0.0,60.0,12.0,0.0
2312,70.0,9.0,30.0,11.0,0.0
2313,65.0,0.0,120.0,2.0,0.0
2314,58.0,19.0,60.0,12.0,0.0
2315,65.0,0.0,60.0,12.0,0.0
2316,38.0,0.0,60.0,3.0,0.0
2317,50.0,1.0,60.0,3.0,0.0
2318,50.0,3.0,60.0,13.0,0.0
2319,46.0,0.0,60.0,15.0,0.0
2320,38.0,25.0,60.0,14.0,0.0
2321,74.0,3.0,30.0,10.0,0.0
2322,70.0,3.0,30.0,11.0,0.0
2323,58.0,0.0,60.0,12.0,0.0
2324,65.0,51.0,60.0,12.0,0.0
2325,72.0,3.0,150.0,10.0,0.0
2326,82.0,2.0,240.0,0.0,0.0
2327,84.0,0.0,240.0,0.0,0.0
2328,70.0,9.0,30.0,11.0,0.0
2329,70.0,0.0,240.0,6.0,0.0
2330,72.0,1.0,240.0,6.0,0.0
2331,70.0,1.0,240.0,1.0,0.0
2332,72.0,0.0,240.0,1.0,0.0
2333,58.0,0.0,240.0,4.0,0.0
2334,60.0,2.0,240.0,4.0,0.0
2335,58.0,0.0,60.0,12.0,0.0
2336,67.0,0.0,240.0,2.0,0.0
2337,70.0,48.0,240.0,2.0,0.0
2338,67.0,19.0,60.0,12.0,0.0
2339,39.0,0.0,60.0,3.0,0.0
2340,51.0,1.0,60.0,3.0,0.0
2341,51.0,3.0,60.0,13.0,0.0
2342,46.0,0.0,60.0,15.0,0.0
2343,39.0,28.0,60.0,14.0,0.0
2344,69.0,9.0,30.0,11.0,0.0
2345,58.0,0.0,60.0,12.0,0.0
2346,67.0,48.0,60.0,12.0,0.0
2347,70.0,9.0,30.0,11.0,0.0
2348,67.0,0.0,60.0,12.0,0.0
2349,63.0,19.0,60.0,12.0,0.0
2350,36.0,1.0,60.0,3.0,0.0
2351,48.0,0.0,60.0,3.0,0.0
2352,46.0,3.0,60.0,15.0,0.0
2353,48.0,0.0,60.0,13.0,0.0
2354,36.0,25.0,60.0,14.0,0.0
2355,74.0,3.0,30.0,10.0,0.0
2356,70.0,3.0,30.0,11.0,0.0
2357,63.0,0.0,60.0,12.0,0.0
2358,67.0,0.0,60.0,12.0,0.0
2359,72.0,3.0,30.0,10.0,0.0
2360,82.0,3.0,120.0,0.0,0.0
2361,84.0,0.0,120.0,0.0,0.0
2362,72.0,2.0,60.0,6.0,0.0
2363,70.0,9.0,30.0,11.0,0.0
2364,65.0,0.0,60.0,6.0,0.0
2365,72.0,3.0,120.0,1.0,0.0
2366,70.0,0.0,120.0,1.0,0.0
2367,53.0,3.0,60.0,4.0,0.0
2368,41.0,0.0,60.0,4.0,0.0
2369,63.0,11.0,60.0,12.0,0.0
2370,65.0,0.0,60.0,12.0,0.0
2371,70.0,0.0,120.0,2.0,0.0
2372,60.0,33.0,120.0,2.0,0.0
2373,60.0,3.0,60.0,5.0,0.0
2374,41.0,0.0,60.0,3.0,0.0
2375,53.0,1.0,60.0,3.0,0.0
2376,41.0,0.0,60.0,15.0,0.0
2377,53.0,3.0,60.0,13.0,0.0
2378,41.0,25.0,60.0,14.0,0.0
2379,70.0,3.0,30.0,10.0,0.0
2380,67.0,9.0,30.0,11.0,0.0
2381,65.0,9.0,60.0,12.0,0.0
2382,63.0,0.0,60.0,12.0,0.0
2383,72.0,3.0,30.0,10.0,0.0
2384,87.0,3.0,120.0,0.0,0.0
2385,81.0,0.0,120.0,0.0,0.0
2386,72.0,2.0,60.0,6.0,0.0
2387,65.0,0.0,60.0,6.0,0.0
2388,69.0,9.0,30.0,11.0,0.0
2389,69.0,0.0,120.0,1.0,0.0
2390,75.0,3.0,120.0,1.0,0.0
2391,41.0,3.0,60.0,4.0,0.0
2392,53.0,0.0,60.0,4.0,0.0
2393,65.0,11.0,60.0,12.0,0.0
2394,69.0,51.0,120.0,2.0,0.0
2395,63.0,0.0,120.0,2.0,0.0
2396,63.0,0.0,60.0,12.0,0.0
2397,60.0,3.0,60.0,5.0,0.0
2398,41.0,1.0,60.0,3.0,0.0
2399,41.0,0.0,60.0,15.0,0.0
2400,41.0,3.0,60.0,13.0,0.0
2401,29.0,25.0,60.0,14.0,0.0
2402,75.0,3.0,30.0,10.0,0.0
2403,69.0,3.0,30.0,11.0,0.0
2404,63.0,0.0,60.0,12.0,0.0
2405,65.0,0.0,60.0,12.0,0.0
2406,74.0,3.0,150.0,10.0,0.0
2407,86.0,0.0,240.0,0.0,0.0
2408,81.0,3.0,120.0,0.0,0.0
2409,69.0,9.0,30.0,11.0,0.0
2410,74.0,1.0,240.0,6.0,0.0
2411,65.0,0.0,240.0,6.0,0.0
2412,74.0,0.0,240.0,1.0,0.0
2413,69.0,3.0,120.0,1.0,0.0
2414,46.0,0.0,240.0,4.0,0.0
2415,58.0,2.0,240.0,4.0,0.0
2416,62.0,0.0,60.0,12.0,0.0
2417,62.0,0.0,240.0,2.0,0.0
2418,69.0,33.0,120.0,2.0,0.0
2419,65.0,19.0,60.0,12.0,0.0
2420,62.0,0.0,240.0,5.0,0.0
2421,60.0,47.0,240.0,5.0,0.0
2422,46.0,1.0,60.0,3.0,0.0
2423,46.0,0.0,60.0,15.0,0.0
2424,46.0,3.0,60.0,13.0,0.0
2425,34.0,28.0,60.0,14.0,0.0
2426,67.0,9.0,30.0,11.0,0.0
2427,62.0,0.0,60.0,12.0,0.0
2428,65.0,9.0,60.0,12.0,0.0
2429,84.0,2.0,120.0,0.0,0.0
2430,69.0,9.0,30.0,11.0,0.0
2431,72.0,1.0,120.0,1.0,0.0
2432,72.0,0.0,120.0,2.0,0.0
2433,62.0,0.0,60.0,12.0,0.0
2434,65.0,19.0,60.0,12.0,0.0
2435,34.0,1.0,60.0,3.0,0.0
2436,34.0,0.0,60.0,13.0,0.0
2437,46.0,3.0,60.0,15.0,0.0
2438,34.0,25.0,60.0,14.0,0.0
2439,75.0,3.0,30.0,10.0,0.0
2440,72.0,3.0,30.0,11.0,0.0
2441,65.0,1.0,60.0,12.0,0.0
2442,62.0,0.0,60.0,12.0,0.0
2443,74.0,12.0,30.0,10.0,0.0
2444,82.0,3.0,240.0,0.0,0.0
2445,86.0,3.0,120.0,0.0,0.0
2446,70.0,0.0,60.0,6.0,0.0
2447,74.0,2.0,60.0,6.0,0.0
2448,70.0,9.0,150.0,11.0,0.0
2449,74.0,3.0,120.0,1.0,0.0
2450,70.0,0.0,240.0,1.0,0.0
2451,62.0,3.0,60.0,4.0,0.0
2452,58.0,0.0,60.0,4.0,0.0
2453,62.0,0.0,60.0,12.0,0.0
2454,62.0,33.0,120.0,2.0,0.0
2455,70.0,51.0,240.0,2.0,0.0
2456,65.0,11.0,60.0,12.0,0.0
2457,43.0,3.0,60.0,5.0,0.0
2458,55.0,0.0,60.0,5.0,0.0
2459,55.0,1.0,60.0,3.0,0.0
2460,55.0,3.0,60.0,13.0,0.0
2461,43.0,25.0,60.0,14.0,0.0
2462,72.0,12.0,30.0,10.0,0.0
2463,65.0,0.0,60.0,12.0,0.0
2464,62.0,9.0,60.0,12.0,0.0
2465,74.0,3.0,30.0,10.0,0.0
2466,89.0,0.0,120.0,0.0,0.0
2467,70.0,0.0,60.0,6.0,0.0
2468,74.0,2.0,60.0,6.0,0.0
2469,77.0,3.0,120.0,1.0,0.0
2470,58.0,3.0,60.0,4.0,0.0
2471,62.0,0.0,60.0,4.0,0.0
2472,65.0,11.0,60.0,12.0,0.0
2473,65.0,0.0,120.0,2.0,0.0
2474,62.0,0.0,60.0,12.0,0.0
2475,43.0,3.0,60.0,5.0,0.0
2476,55.0,0.0,60.0,5.0,0.0
2477,43.0,1.0,60.0,3.0,0.0
2478,43.0,3.0,60.0,13.0,0.0
2479,31.0,25.0,60.0,14.0,0.0
2480,77.0,3.0,30.0,10.0,0.0
2481,70.0,3.0,30.0,11.0,0.0
2482,62.0,0.0,60.0,12.0,0.0
2483,65.0,0.0,60.0,12.0,0.0
2484,76.0,3.0,150.0,10.0,0.0
2485,82.0,2.0,240.0,0.0,0.0
2486,88.0,3.0,120.0,0.0,0.0
2487,70.0,1.0,240.0,6.0,0.0
2488,72.0,0.0,240.0,6.0,0.0
2489,70.0,9.0,30.0,11.0,0.0
2490,70.0,3.0,120.0,1.0,0.0
2491,76.0,1.0,240.0,1.0,0.0
2492,58.0,2.0,240.0,4.0,0.0
2493,60.0,0.0,240.0,4.0,0.0
2494,64.0,19.0,60.0,12.0,0.0
2495,67.0,0.0,60.0,12.0,0.0
2496,70.0,33.0,120.0,2.0,0.0
2497,64.0,0.0,240.0,2.0,0.0
2498,60.0,47.0,240.0,5.0,0.0
2499,48.0,0.0,240.0,5.0,0.0
2500,48.0,1.0,60.0,3.0,0.0
2501,48.0,3.0,60.0,13.0,0.0
2502,36.0,28.0,60.0,14.0,0.0
2503,69.0,3.0,30.0,11.0,0.0
2504,64.0,15.0,60.0,12.0,0.0
2505,67.0,0.0,60.0,12.0,0.0
2506,86.0,3.0,90.0,0.0,0.0
2507,70.0,9.0,30.0,11.0,0.0
2508,74.0,6.0,90.0,1.0,0.0
2509,64.0,0.0,60.0,12.0,0.0
2510,67.0,19.0,60.0,12.0,0.0
2511,74.0,0.0,120.0,2.0,0.0
2512,36.0,1.0,60.0,3.0,0.0
2513,36.0,3.0,60.0,13.0,0.0
2514,24.0,16.0,60.0,14.0,0.0
2515,77.0,3.0,30.0,10.0,0.0
2516,74.0,3.0,30.0,11.0,0.0
2517,67.0,0.0,60.0,12.0,0.0
2518,64.0,1.0,60.0,12.0,0.0
2519,76.0,12.0,30.0,10.0,0.0
2520,76.0,3.0,120.0,0.0,0.0
2521,84.0,3.0,240.0,0.0,0.0
2522,72.0,2.0,60.0,6.0,0.0
2523,72.0,9.0,150.0,11.0,0.0
2524,76.0,3.0,120.0,1.0,0.0
2525,72.0,3.0,240.0,1.0,0.0
2526,60.0,3.0,60.0,4.0,0.0
2527,72.0,0.0,240.0,2.0,0.0
2528,64.0,33.0,120.0,2.0,0.0
2529,67.0,0.0,60.0,12.0,0.0
2530,64.0,11.0,60.0,12.0,0.0
2531,60.0,3.0,60.0,5.0,0.0
2532,64.0,0.0,60.0,5.0,0.0
2533,57.0,1.0,60.0,3.0,0.0
2534,57.0,3.0,60.0,13.0,0.0
2535,45.0,25.0,60.0,14.0,0.0
2536,74.0,6.0,30.0,10.0,0.0
2537,67.0,15.0,60.0,12.0,0.0
2538,64.0,0.0,60.0,12.0,0.0
2539,76.0,3.0,30.0,10.0,0.0
2540,77.0,3.0,90.0,0.0,0.0
2541,72.0,2.0,60.0,6.0,0.0
2542,79.0,6.0,90.0,1.0,0.0
2543,60.0,3.0,60.0,4.0,0.0
2544,67.0,0.0,60.0,12.0,0.0
2545,67.0,0.0,120.0,2.0,0.0
2546,64.0,11.0,60.0,12.0,0.0
2547,60.0,0.0,60.0,5.0,0.0
2548,64.0,3.0,60.0,5.0,0.0
2549,45.0,1.0,60.0,3.0,0.0
2550,45.0,3.0,60.0,13.0,0.0
2551,33.0,16.0,60.0,14.0,0.0
2552,79.0,3.0,30.0,10.0,0.0
2553,72.0,3.0,30.0,11.0,0.0
2554,64.0,51.0,60.0,12.0,0.0
2555,67.0,0.0,60.0,12.0,0.0
2556,77.0,3.0,150.0,10.0,0.0
2557,77.0,2.0,240.0,0.0,0.0
2558,84.0,3.0,120.0,0.0,0.0
2559,72.0,1.0,240.0,6.0,0.0
2560,72.0,9.0,30.0,11.0,0.0
2561,65.0,0.0,240.0,6.0,0.0
2562,77.0,3.0,120.0,1.0,0.0
2563,72.0,1.0,240.0,1.0,0.0
2564,41.0,0.0,240.0,4.0,0.0
2565,53.0,2.0,240.0,4.0,0.0
2566,69.0,0.0,60.0,12.0,0.0
2567,65.0,19.0,60.0,12.0,0.0
2568,72.0,33.0,120.0,2.0,0.0
2569,65.0,0.0,240.0,2.0,0.0
2570,62.0,47.0,240.0,5.0,0.0
2571,60.0,0.0,240.0,5.0,0.0
2572,50.0,1.0,60.0,3.0,0.0
2573,50.0,3.0,60.0,13.0,0.0
2574,38.0,28.0,60.0,14.0,0.0
2575,70.0,3.0,30.0,11.0,0.0
2576,65.0,15.0,60.0,12.0,0.0
2577,69.0,0.0,60.0,12.0,0.0
2578,88.0,3.0,90.0,0.0,0.0
2579,72.0,9.0,30.0,11.0,0.0
2580,76.0,6.0,90.0,1.0,0.0
2581,65.0,0.0,60.0,12.0,0.0
2582,69.0,19.0,60.0,12.0,0.0
2583,76.0,0.0,120.0,2.0,0.0
2584,38.0,1.0,60.0,3.0,0.0
2585,38.0,3.0,60.0,13.0,0.0
2586,38.0,16.0,60.0,14.0,0.0
2587,79.0,3.0,30.0,10.0,0.0
2588,76.0,3.0,30.0,11.0,0.0
2589,69.0,0.0,60.0,12.0,0.0
2590,65.0,1.0,60.0,12.0,0.0
2591,77.0,12.0,30.0,10.0,0.0
2592,77.0,6.0,240.0,0.0,0.0
2593,86.0,3.0,120.0,0.0,0.0
2594,74.0,9.0,150.0,11.0,0.0
2595,58.0,0.0,60.0,6.0,0.0
2596,70.0,2.0,60.0,6.0,0.0
2597,74.0,0.0,120.0,1.0,0.0
2598,65.0,3.0,120.0,1.0,0.0
2599,46.0,3.0,60.0,4.0,0.0
2600,58.0,0.0,60.0,4.0,0.0
2601,74.0,33.0,120.0,2.0,0.0
2602,65.0,0.0,240.0,2.0,0.0
2603,65.0,11.0,60.0,12.0,0.0
2604,69.0,0.0,60.0,12.0,0.0
2605,58.0,3.0,60.0,5.0,0.0
2606,62.0,0.0,60.0,5.0,0.0
2607,58.0,0.0,60.0,3.0,0.0
2608,46.0,1.0,60.0,3.0,0.0
2609,58.0,0.0,60.0,13.0,0.0
2610,46.0,3.0,60.0,15.0,0.0
2611,46.0,25.0,60.0,14.0,0.0
2612,76.0,6.0,30.0,10.0,0.0
2613,65.0,0.0,60.0,12.0,0.0
2614,69.0,15.0,60.0,12.0,0.0
2615,77.0,3.0,30.0,10.0,0.0
2616,81.0,3.0,90.0,0.0,0.0
2617,58.0,2.0,60.0,6.0,0.0
2618,70.0,0.0,60.0,6.0,0.0
2619,77.0,0.0,90.0,1.0,0.0
2620,69.0,6.0,90.0,1.0,0.0
2621,46.0,3.0,60.0,4.0,0.0
2622,58.0,0.0,60.0,4.0,0.0
2623,69.0,11.0,60.0,12.0,0.0
2624,65.0,0.0,60.0,12.0,0.0
2625,69.0,0.0,120.0,2.0,0.0
2626,62.0,3.0,60.0,5.0,0.0
2627,58.0,0.0,60.0,5.0,0.0
2628,34.0,0.0,60.0,3.0,0.0
2629,46.0,1.0,60.0,3.0,0.0
2630,46.0,0.0,60.0,15.0,0.0
2631,46.0,3.0,60.0,13.0,0.0
2632,34.0,16.0,60.0,14.0,0.0
2633,81.0,3.0,30.0,10.0,0.0
2634,77.0,3.0,30.0,11.0,0.0
2635,69.0,0.0,60.0,12.0,0.0
2636,65.0,48.0,60.0,12.0,0.0
2637,79.0,12.0,30.0,10.0,0.0
2638,79.0,0.0,120.0,0.0,0.0
2639,76.0,3.0,120.0,0.0,0.0
2640,76.0,9.0,150.0,11.0,0.0
2641,67.0,3.0,120.0,1.0,0.0
2642,76.0,0.0,120.0,1.0,0.0
2643,67.0,19.0,60.0,12.0,0.0
2644,67.0,0.0,120.0,2.0,0.0
2645,70.0,0.0,60.0,12.0,0.0
2646,64.0,33.0,120.0,2.0,0.0
2647,58.0,0.0,60.0,3.0,0.0
2648,46.0,1.0,60.0,3.0,0.0
2649,58.0,0.0,60.0,13.0,0.0
2650,46.0,3.0,60.0,15.0,0.0
2651,46.0,25.0,60.0,14.0,0.0
2652,77.0,6.0,30.0,10.0,0.0
2653,67.0,0.0,60.0,12.0,0.0
2654,70.0,15.0,60.0,12.0,0.0
2655,79.0,3.0,30.0,10.0,0.0
2656,79.0,3.0,90.0,0.0,0.0
2657,82.0,0.0,90.0,0.0,0.0
2658,58.0,2.0,60.0,6.0,0.0
2659,70.0,0.0,60.0,6.0,0.0
2660,70.0,6.0,90.0,1.0,0.0
2661,79.0,0.0,90.0,1.0,0.0
2662,46.0,3.0,60.0,4.0,0.0
2663,58.0,0.0,60.0,4.0,0.0
2664,70.0,0.0,120.0,2.0,0.0
2665,67.0,11.0,60.0,12.0,0.0
2666,70.0,0.0,60.0,12.0,0.0
2667,67.0,48.0,120.0,2.0,0.0
2668,64.0,0.0,60.0,5.0,0.0
2669,58.0,3.0,60.0,5.0,0.0
2670,46.0,0.0,60.0,3.0,0.0
2671,34.0,1.0,60.0,3.0,0.0
2672,46.0,0.0,60.0,15.0,0.0
2673,46.0,3.0,60.0,13.0,0.0
2674,34.0,16.0,60.0,14.0,0.0
2675,82.0,3.0,30.0,10.0,0.0
2676,79.0,9.0,30.0,11.0,0.0
2677,67.0,0.0,60.0,12.0,0.0
2678,70.0,0.0,60.0,12.0,0.0
2679,81.0,12.0,30.0,10.0,0.0
2680,81.0,0.0,120.0,0.0,0.0
2681,77.0,3.0,120.0,0.0,0.0
2682,77.0,9.0,150.0,11.0,0.0
2683,77.0,0.0,120.0,1.0,0.0
2684,69.0,3.0,120.0,1.0,0.0
2685,69.0,19.0,60.0,12.0,0.0
2686,72.0,0.0,60.0,12.0,0.0
2687,65.0,0.0,120.0,2.0,0.0
2688,46.0,1.0,60.0,3.0,0.0
2689,58.0,0.0,60.0,3.0,0.0
2690,58.0,3.0,60.0,13.0,0.0
2691,46.0,0.0,60.0,15.0,0.0
2692,46.0,25.0,60.0,14.0,0.0
2693,79.0,6.0,30.0,10.0,0.0
2694,69.0,15.0,60.0,12.0,0.0
2695,72.0,0.0,60.0,12.0,0.0
2696,81.0,3.0,30.0,10.0,0.0
2697,81.0,3.0,90.0,0.0,0.0
2698,84.0,0.0,90.0,0.0,0.0
2699,58.0,0.0,60.0,6.0,0.0
2700,70.0,2.0,60.0,6.0,0.0
2701,72.0,6.0,90.0,1.0,0.0
2702,81.0,0.0,90.0,1.0,0.0
2703,46.0,3.0,60.0,4.0,0.0
2704,58.0,0.0,60.0,4.0,0.0
2705,69.0,11.0,60.0,12.0,0.0
2706,69.0,33.0,15.0,2.0,0.0
2707,72.0,0.0,120.0,2.0,0.0
2708,72.0,0.0,60.0,12.0,0.0
2709,58.0,3.0,60.0,5.0,0.0
2710,65.0,0.0,60.0,5.0,0.0
2711,34.0,1.0,60.0,3.0,0.0
2712,46.0,0.0,60.0,3.0,0.0
2713,46.0,3.0,60.0,15.0,0.0
2714,46.0,0.0,60.0,13.0,0.0
2715,34.0,16.0,60.0,14.0,0.0
2716,84.0,3.0,30.0,10.0,0.0
2717,81.0,9.0,30.0,11.0,0.0
2718,69.0,0.0,60.0,12.0,0.0
2719,72.0,0.0,60.0,12.0,0.0
2720,82.0,3.0,30.0,10.0,0.0
2721,82.0,0.0,120.0,0.0,0.0
2722,79.0,3.0,120.0,0.0,0.0
2723,79.0,9.0,30.0,11.0,0.0
2724,70.0,2.0,60.0,6.0,0.0
2725,72.0,0.0,60.0,6.0,0.0
2726,70.0,3.0,120.0,1.0,0.0
2727,79.0,0.0,120.0,1.0,0.0
2728,58.0,0.0,60.0,4.0,0.0
2729,60.0,3.0,60.0,4.0,0.0
2730,67.0,0.0,60.0,12.0,0.0
2731,67.0,0.0,120.0,2.0,0.0
2732,70.0,11.0,60.0,12.0,0.0
2733,67.0,3.0,60.0,5.0,0.0
2734,58.0,0.0,60.0,5.0,0.0
2735,46.0,0.0,60.0,3.0,0.0
2736,58.0,1.0,60.0,3.0,0.0
2737,46.0,28.0,120.0,15.0,0.0
2738,58.0,3.0,60.0,13.0,0.0
2739,46.0,25.0,60.0,14.0,0.0
2740,81.0,3.0,30.0,10.0,0.0
2741,77.0,3.0,30.0,11.0,0.0
2742,70.0,0.0,60.0,12.0,0.0
2743,67.0,15.0,60.0,12.0,0.0
2744,82.0,3.0,30.0,10.0,0.0
2745,82.0,3.0,90.0,0.0,0.0
2746,86.0,0.0,90.0,0.0,0.0
2747,79.0,9.0,30.0,11.0,0.0
2748,82.0,0.0,90.0,1.0,0.0
2749,74.0,6.0,90.0,1.0,0.0
2750,70.0,5.0,15.0,2.0,0.0
2751,70.0,39.0,60.0,12.0,0.0
2752,67.0,0.0,60.0,12.0,0.0
2753,74.0,0.0,120.0,2.0,0.0
2754,86.0,3.0,30.0,10.0,0.0
2755,70.0,9.0,30.0,11.0,0.0
2756,67.0,0.0,60.0,12.0,0.0
2757,70.0,0.0,60.0,12.0,0.0
2758,82.0,1.0,30.0,10.0,0.0
2759,86.0,3.0,450.0,0.0,0.0
2760,82.0,0.0,450.0,0.0,0.0
2761,79.0,9.0,30.0,11.0,0.0
2762,72.0,0.0,450.0,6.0,0.0
2763,70.0,0.0,450.0,6.0,0.0
2764,70.0,3.0,450.0,1.0,0.0
2765,79.0,0.0,450.0,1.0,0.0
2766,58.0,0.0,450.0,4.0,0.0
2767,46.0,3.0,450.0,4.0,0.0
2768,67.0,19.0,60.0,12.0,0.0
2769,70.0,0.0,60.0,12.0,0.0
2770,67.0,3.0,450.0,2.0,0.0
2771,74.0,0.0,450.0,2.0,0.0
2772,60.0,0.0,450.0,5.0,0.0
2773,48.0,4.0,450.0,5.0,0.0
2774,58.0,0.0,450.0,3.0,0.0
2775,46.0,1.0,450.0,3.0,0.0
2776,58.0,1.0,450.0,13.0,0.0
2777,46.0,0.0,450.0,14.0,0.0
2778,46.0,2.0,15.0,15.0,0.0
2779,81.0,3.0,30.0,10.0,0.0
2780,77.0,9.0,30.0,11.0,0.0
2781,70.0,20.0,60.0,12.0,0.0
2782,67.0,0.0,60.0,12.0,0.0
2783,46.0,0.0,15.0,15.0,0.0
2784,82.0,3.0,30.0,10.0,0.0
2785,79.0,1.0,30.0,11.0,0.0
2786,67.0,0.0,60.0,12.0,0.0
2787,70.0,19.0,60.0,12.0,0.0
2788,46.0,8.0,15.0,15.0,0.0
2789,86.0,3.0,30.0,10.0,0.0
2790,70.0,9.0,30.0,11.0,0.0
2791,70.0,20.0,60.0,12.0,0.0
2792,67.0,0.0,60.0,12.0,0.0
2793,46.0,0.0,15.0,15.0,0.0
2794,82.0,3.0,30.0,10.0,0.0
2795,79.0,9.0,30.0,11.0,0.0
2796,67.0,48.0,60.0,12.0,0.0
2797,70.0,0.0,60.0,12.0,0.0
2798,46.0,28.0,120.0,15.0,0.0
2799,81.0,3.0,30.0,10.0,0.0
2800,77.0,9.0,30.0,11.0,0.0
2801,67.0,0.0,60.0,12.0,0.0
2802,70.0,20.0,60.0,12.0,0.0
2803,82.0,3.0,30.0,10.0,0.0
2804,79.0,9.0,30.0,11.0,0.0
2805,70.0,39.0,60.0,12.0,0.0
2806,67.0,0.0,60.0,12.0,0.0
2807,86.0,1.0,30.0,10.0,0.0
2808,70.0,2.0,30.0,11.0,0.0
2809,70.0,0.0,60.0,12.0,0.0
2810,67.0,48.0,60.0,12.0,0.0
2811,82.0,1.0,30.0,10.0,0.0
2812,82.0,0.0,450.0,0.0,0.0
2813,86.0,3.0,450.0,0.0,0.0
2814,70.0,0.0,450.0,6.0,0.0
2815,79.0,9.0,30.0,11.0,0.0
2816,72.0,0.0,450.0,6.0,0.0
2817,70.0,3.0,450.0,1.0,0.0
2818,79.0,0.0,450.0,1.0,0.0
2819,58.0,0.0,450.0,4.0,0.0
2820,46.0,3.0,450.0,4.0,0.0
2821,67.0,0.0,60.0,12.0,0.0
2822,67.0,0.0,450.0,2.0,0.0
2823,74.0,3.0,450.0,2.0,0.0
2824,70.0,19.0,60.0,12.0,0.0
2825,60.0,0.0,450.0,5.0,0.0
2826,48.0,4.0,450.0,5.0,0.0
2827,46.0,2.0,30.0,15.0,0.0
2828,58.0,0.0,450.0,3.0,0.0
2829,46.0,1.0,450.0,3.0,0.0
2830,58.0,1.0,450.0,13.0,0.0
2831,46.0,0.0,450.0,14.0,0.0
2832,46.0,29.0,30.0,15.0,0.0
2833,81.0,3.0,30.0,10.0,0.0
2834,77.0,1.0,30.0,11.0,0.0
2835,67.0,19.0,60.0,12.0,0.0
2836,70.0,0.0,60.0,12.0,0.0
2837,46.0,8.0,15.0,15.0,0.0
2838,82.0,1.0,30.0,10.0,0.0
2839,79.0,9.0,30.0,11.0,0.0
2840,67.0,0.0,60.0,12.0,0.0
2841,70.0,21.0,60.0,12.0,0.0
2842,46.0,2.0,30.0,15.0,0.0
2843,86.0,3.0,30.0,10.0,0.0
2844,70.0,9.0,30.0,11.0,0.0
2845,67.0,19.0,60.0,12.0,0.0
2846,70.0,0.0,60.0,12.0,0.0
2847,46.0,27.0,15.0,15.0,0.0
2848,46.0,0.0,15.0,15.0,0.0
2849,82.0,3.0,30.0,10.0,0.0
2850,79.0,9.0,30.0,11.0,0.0
2851,70.0,48.0,60.0,12.0,0.0
2852,67.0,0.0,60.0,12.0,0.0
2853,46.0,28.0,120.0,15.0,0.0
2854,81.0,3.0,30.0,10.0,0.0
2855,77.0,9.0,30.0,11.0,0.0
2856,67.0,20.0,60.0,12.0,0.0
2857,70.0,0.0,60.0,12.0,0.0
2858,82.0,3.0,30.0,10.0,0.0
2859,79.0,9.0,30.0,11.0,0.0
2860,70.0,0.0,60.0,12.0,0.0
2861,67.0,39.0,60.0,12.0,0.0
2862,86.0,1.0,30.0,10.0,0.0
2863,70.0,2.0,30.0,11.0,0.0
2864,70.0,48.0,60.0,12.0,0.0
2865,67.0,0.0,60.0,12.0,0.0
2866,82.0,3.0,30.0,10.0,0.0
2867,82.0,0.0,120.0,0.0,0.0
2868,86.0,2.0,120.0,0.0,0.0
2869,70.0,1.0,120.0,6.0,0.0
2870,58.0,0.0,120.0,6.0,0.0
2871,79.0,9.0,30.0,11.0,0.0
2872,70.0,1.0,120.0,1.0,0.0
2873,79.0,0.0,120.0,1.0,0.0
2874,58.0,0.0,120.0,4.0,0.0
2875,46.0,2.0,120.0,4.0,0.0
2876,70.0,20.0,60.0,12.0,0.0
2877,67.0,1.0,120.0,2.0,0.0
2878,67.0,0.0,60.0,12.0,0.0
2879,74.0,0.0,120.0,2.0,0.0
2880,58.0,3.0,120.0,5.0,0.0
2881,55.0,0.0,120.0,5.0,0.0
2882,58.0,0.0,120.0,3.0,0.0
2883,46.0,1.0,120.0,3.0,0.0
2884,58.0,3.0,120.0,13.0,0.0
2885,46.0,28.0,60.0,15.0,0.0
2886,46.0,25.0,120.0,14.0,0.0
2887,81.0,3.0,30.0,10.0,0.0
2888,77.0,9.0,30.0,11.0,0.0
2889,67.0,0.0,60.0,12.0,0.0
2890,70.0,9.0,60.0,12.0,0.0
2891,82.0,3.0,30.0,10.0,0.0
2892,79.0,9.0,30.0,11.0,0.0
2893,70.0,0.0,60.0,12.0,0.0
2894,67.0,48.0,60.0,12.0,0.0
2895,86.0,3.0,30.0,10.0,0.0
2896,70.0,9.0,30.0,11.0,0.0
2897,67.0,48.0,60.0,12.0,0.0
2898,70.0,0.0,60.0,12.0,0.0
2899,82.0,3.0,30.0,10.0,0.0
2900,86.0,0.0,120.0,0.0,0.0
2901,82.0,2.0,120.0,0.0,0.0
2902,58.0,1.0,120.0,6.0,0.0
2903,79.0,9.0,30.0,11.0,0.0
2904,70.0,0.0,120.0,6.0,0.0
2905,70.0,0.0,120.0,1.0,0.0
2906,79.0,1.0,120.0,1.0,0.0
2907,46.0,0.0,120.0,4.0,0.0
2908,58.0,2.0,120.0,4.0,0.0
2909,74.0,0.0,120.0,2.0,0.0
2910,67.0,0.0,60.0,12.0,0.0
2911,70.0,20.0,60.0,12.0,0.0
2912,67.0,1.0,120.0,2.0,0.0
2913,58.0,0.0,120.0,5.0,0.0
2914,55.0,3.0,120.0,5.0,0.0
2915,43.0,1.0,120.0,3.0,0.0
2916,55.0,0.0,120.0,3.0,0.0
2917,46.0,28.0,60.0,15.0,0.0
2918,55.0,3.0,120.0,13.0,0.0
2919,43.0,25.0,120.0,14.0,0.0
2920,81.0,3.0,30.0,10.0,0.0
2921,77.0,9.0,30.0,11.0,0.0
2922,70.0,9.0,60.0,12.0,0.0
2923,67.0,0.0,60.0,12.0,0.0
2924,82.0,3.0,30.0,10.0,0.0
2925,79.0,9.0,30.0,11.0,0.0
2926,67.0,0.0,60.0,12.0,0.0
2927,70.0,48.0,60.0,12.0,0.0
2928,86.0,3.0,30.0,10.0,0.0
2929,70.0,9.0,30.0,11.0,0.0
2930,70.0,48.0,60.0,12.0,0.0
2931,67.0,0.0,60.0,12.0,0.0
2932,82.0,3.0,30.0,10.0,0.0
2933,86.0,2.0,120.0,0.0,0.0
2934,82.0,0.0,120.0,0.0,0.0
2935,70.0,0.0,120.0,6.0,0.0
2936,58.0,1.0,120.0,6.0,0.0
2937,79.0,9.0,30.0,11.0,0.0
2938,70.0,1.0,120.0,1.0,0.0
2939,79.0,0.0,120.0,1.0,0.0
2940,46.0,2.0,120.0,4.0,0.0
2941,58.0,0.0,120.0,4.0,0.0
2942,67.0,20.0,60.0,12.0,0.0
2943,67.0,0.0,120.0,2.0,0.0
2944,70.0,0.0,60.0,12.0,0.0
2945,74.0,1.0,120.0,2.0,0.0
2946,58.0,3.0,120.0,5.0,0.0
2947,55.0,0.0,120.0,5.0,0.0
2948,41.0,1.0,120.0,3.0,0.0
2949,53.0,0.0,120.0,3.0,0.0
2950,46.0,28.0,60.0,15.0,0.0
2951,53.0,3.0,120.0,13.0,0.0
2952,41.0,25.0,120.0,14.0,0.0
2953,81.0,3.0,30.0,10.0,0.0
2954,77.0,9.0,30.0,11.0,0.0
2955,67.0,0.0,60.0,12.0,0.0
2956,70.0,9.0,60.0,12.0,0.0
2957,82.0,3.0,30.0,10.0,0.0
2958,79.0,9.0,30.0,11.0,0.0
2959,67.0,48.0,60.0,12.0,0.0
2960,70.0,0.0,60.0,12.0,0.0
2961,86.0,3.0,30.0,10.0,0.0
2962,70.0,9.0,30.0,11.0,0.0
2963,67.0,48.0,60.0,12.0,0.0
2964,70.0,0.0,60.0,12.0,0.0
2965,82.0,3.0,30.0,10.0,0.0
2966,85.0,2.0,120.0,0.0,0.0
2967,82.0,0.0,120.0,0.0,0.0
2968,79.0,29.0,30.0,11.0,0.0
2969,73.0,0.0,120.0,6.0,0.0
2970,70.0,1.0,120.0,6.0,0.0
2971,70.0,0.0,120.0,1.0,0.0
2972,79.0,1.0,120.0,1.0,0.0
2973,58.0,2.0,120.0,4.0,0.0
2974,61.0,0.0,120.0,4.0,0.0
2975,67.0,0.0,120.0,2.0,0.0
2976,70.0,0.0,120.0,12.0,0.0
2977,67.0,9.0,120.0,12.0,0.0
2978,73.0,1.0,120.0,2.0,0.0
2979,58.0,0.0,120.0,5.0,0.0
2980,55.0,3.0,120.0,5.0,0.0
2981,52.0,0.0,120.0,3.0,0.0
2982,40.0,1.0,120.0,3.0,0.0
2983,52.0,3.0,120.0,13.0,0.0
2984,46.0,28.0,60.0,15.0,0.0
2985,40.0,25.0,120.0,14.0,0.0
2986,81.0,3.0,30.0,10.0,0.0
2987,77.0,9.0,30.0,11.0,0.0
2988,82.0,3.0,30.0,10.0,0.0
2989,79.0,57.0,30.0,11.0,0.0
2990,85.0,3.0,30.0,10.0,0.0
2991,70.0,74.0,30.0,11.0,0.0
2992,73.0,5.0,480.0,2.0,0.0
2993,58.0,5.0,60.0,12.0,0.0
2994,46.0,55.0,60.0,13.0,0.0
2995,28.0,2.0,480.0,14.0,0.0
2996,57.0,5.0,60.0,12.0,0.0
2997,45.0,55.0,60.0,13.0,0.0
2998,58.0,5.0,60.0,12.0,0.0
2999,46.0,55.0,60.0,13.0,0.0
3000,61.0,5.0,60.0,12.0,0.0
3001,49.0,55.0,60.0,13.0,0.0
3002,68.0,2.0,120.0,10.0,0.0
3003,65.0,54.0,120.0,11.0,0.0
3004,58.0,5.0,60.0,12.0,0.0
3005,46.0,55.0,60.0,13.0,0.0
3006,57.0,3.0,60.0,12.0,0.0
3007,45.0,1.0,60.0,13.0,0.0
3008,58.0,5.0,60.0,12.0,0.0
3009,46.0,50.0,60.0,13.0,0.0
3010,61.0,3.0,60.0,12.0,0.0
3011,49.0,9.0,60.0,13.0,0.0
3012,73.0,50.0,480.0,2.0,0.0
3013,58.0,5.0,60.0,12.0,0.0
3014,40.0,46.0,15.0,3.0,0.0
3015,46.0,55.0,60.0,13.0,0.0
3016,28.0,2.0,240.0,14.0,0.0
3017,57.0,5.0,60.0,12.0,0.0
3018,45.0,55.0,60.0,13.0,0.0
3019,58.0,5.0,60.0,12.0,0.0
3020,46.0,55.0,60.0,13.0,0.0
3021,61.0,3.0,60.0,12.0,0.0
3022,49.0,9.0,60.0,13.0,0.0
3023,66.0,2.0,120.0,10.0,0.0
3024,68.0,0.0,480.0,0.0,0.0
3025,65.0,10.0,480.0,0.0,0.0
3026,63.0,4.0,120.0,11.0,0.0
3027,56.0,55.0,120.0,12.0,0.0
3028,41.0,51.0,480.0,3.0,0.0
3029,44.0,58.0,60.0,13.0,0.0
3030,29.0,1.0,480.0,14.0,0.0
3031,43.0,1.0,60.0,13.0,0.0
3032,44.0,60.0,60.0,13.0,0.0
3033,48.0,5.0,60.0,13.0,0.0
3034,68.0,5.0,240.0,2.0,0.0
3035,49.0,60.0,60.0,12.0,0.0
3036,49.0,45.0,120.0,13.0,0.0
3037,48.0,15.0,60.0,12.0,0.0
3038,49.0,55.0,60.0,12.0,0.0
3039,53.0,3.0,60.0,12.0,0.0
3040,65.0,2.0,120.0,10.0,0.0
3041,63.0,0.0,480.0,0.0,0.0
3042,66.0,11.0,480.0,0.0,0.0
3043,61.0,4.0,120.0,11.0,0.0
3044,46.0,55.0,120.0,12.0,0.0
3045,66.0,50.0,240.0,2.0,0.0
3046,42.0,56.0,480.0,3.0,0.0
3047,46.0,58.0,60.0,13.0,0.0
3048,30.0,7.0,480.0,14.0,0.0
3049,45.0,1.0,60.0,13.0,0.0
3050,46.0,60.0,60.0,13.0,0.0
3051,51.0,5.0,60.0,13.0,0.0
3052,54.0,60.0,60.0,12.0,0.0
3053,63.0,4.0,240.0,2.0,0.0
3054,54.0,45.0,120.0,13.0,0.0
3055,53.0,15.0,60.0,12.0,0.0
3056,54.0,49.0,60.0,12.0,0.0
3057,58.0,3.0,60.0,12.0,0.0
3058,63.0,3.0,120.0,10.0,0.0
3059,61.0,0.0,480.0,0.0,0.0
3060,65.0,6.0,480.0,0.0,0.0
3061,60.0,4.0,120.0,11.0,0.0
3062,53.0,0.0,480.0,12.0,0.0
3063,49.0,5.0,480.0,12.0,0.0
3064,61.0,53.0,60.0,2.0,0.0
3065,44.0,56.0,120.0,3.0,0.0
3066,44.0,3.0,480.0,13.0,0.0
3067,32.0,1.0,480.0,14.0,0.0
3068,53.0,4.0,60.0,2.0,0.0
3069,56.0,60.0,60.0,2.0,0.0
3070,61.0,60.0,60.0,2.0,0.0
3071,65.0,60.0,60.0,2.0,0.0
3072,68.0,60.0,60.0,2.0,0.0
3073,73.0,45.0,60.0,2.0,0.0
3074,77.0,120.0,60.0,2.0,0.0
3075,60.0,6.0,480.0,0.0,0.0
3076,63.0,0.0,480.0,0.0,0.0
3077,54.0,5.0,480.0,12.0,0.0
3078,51.0,0.0,480.0,12.0,0.0
3079,80.0,39.0,420.0,2.0,0.0
3080,44.0,3.0,480.0,13.0,0.0
3081,32.0,52.0,480.0,14.0,0.0
3082,78.0,60.0,60.0,2.0,0.0
3083,75.0,60.0,60.0,2.0,0.0
3084,72.0,60.0,60.0,2.0,0.0
3085,66.0,60.0,60.0,2.0,0.0
3086,63.0,60.0,60.0,2.0,0.0
3087,60.0,0.0,60.0,2.0,0.0
3088,72.0,0.0,60.0,2.0,0.0
3089,54.0,0.0,60.0,2.0,0.0
3090,77.0,4.0,240.0,0.0,0.0
3091,53.0,0.0,1920.0,6.0,0.0
3092,65.0,8.0,1920.0,6.0,0.0
3093,72.0,4.0,480.0,1.0,0.0
3094,65.0,2.0,240.0,4.0,0.0
3095,53.0,8.0,120.0,2.0,0.0
3096,77.0,0.0,120.0,2.0,0.0
3097,48.0,60.0,60.0,12.0,0.0
3098,60.0,3.0,480.0,5.0,0.0
3099,45.0,41.0,480.0,3.0,0.0
3100,33.0,0.0,480.0,13.0,0.0
3101,41.0,7.0,480.0,13.0,0.0
3102,33.0,37.0,120.0,14.0,0.0
3103,47.0,15.0,60.0,12.0,0.0
3104,48.0,54.0,60.0,12.0,0.0
3105,53.0,56.0,60.0,12.0,0.0
3106,77.0,4.0,480.0,0.0,0.0
3107,60.0,60.0,60.0,11.0,0.0
3108,65.0,2.0,480.0,4.0,0.0
3109,59.0,60.0,60.0,11.0,0.0
3110,60.0,60.0,60.0,11.0,0.0
3111,65.0,9.0,60.0,11.0,0.0
3112,73.0,4.0,480.0,1.0,0.0
3113,49.0,60.0,60.0,12.0,0.0
3114,61.0,3.0,480.0,5.0,0.0
3115,46.0,41.0,480.0,3.0,0.0
3116,34.0,0.0,480.0,13.0,0.0
3117,41.0,7.0,480.0,13.0,0.0
3118,34.0,37.0,120.0,14.0,0.0
3119,48.0,23.0,60.0,12.0,0.0
3120,49.0,54.0,60.0,12.0,0.0
3121,53.0,56.0,60.0,12.0,0.0
3122,77.0,6.0,480.0,0.0,0.0
3123,61.0,60.0,60.0,11.0,0.0
3124,65.0,43.0,480.0,4.0,0.0
3125,60.0,60.0,60.0,11.0,0.0
3126,61.0,60.0,60.0,11.0,0.0
3127,65.0,9.0,60.0,11.0,0.0
3128,69.0,4.0,480.0,1.0,0.0
3129,45.0,60.0,60.0,12.0,0.0
3130,57.0,3.0,480.0,5.0,0.0
3131,48.0,41.0,480.0,3.0,0.0
3132,41.0,7.0,480.0,13.0,0.0
3133,36.0,0.0,480.0,13.0,0.0
3134,36.0,37.0,120.0,14.0,0.0
3135,44.0,23.0,60.0,12.0,0.0
3136,45.0,54.0,60.0,12.0,0.0
3137,53.0,13.0,60.0,12.0,0.0
3138,72.0,2.0,240.0,0.0,0.0
3139,57.0,60.0,60.0,11.0,0.0
3140,60.0,7.0,240.0,4.0,0.0
3141,56.0,60.0,60.0,11.0,0.0
3142,57.0,58.0,60.0,11.0,0.0
3143,65.0,2.0,60.0,11.0,0.0
3144,70.0,3.0,240.0,0.0,0.0
3145,70.0,1.0,240.0,1.0,0.0
3146,58.0,3.0,240.0,4.0,0.0
3147,46.0,60.0,60.0,12.0,0.0
3148,58.0,40.0,240.0,5.0,0.0
3149,49.0,34.0,480.0,3.0,0.0
3150,37.0,0.0,480.0,13.0,0.0
3151,41.0,6.0,480.0,13.0,0.0
3152,37.0,37.0,120.0,14.0,0.0
3153,45.0,23.0,60.0,12.0,0.0
3154,46.0,60.0,60.0,12.0,0.0
3155,53.0,9.0,60.0,12.0,0.0
3156,65.0,2.0,240.0,0.0,0.0
3157,58.0,60.0,60.0,11.0,0.0
3158,53.0,7.0,240.0,4.0,0.0
3159,57.0,60.0,60.0,11.0,0.0
3160,58.0,58.0,60.0,11.0,0.0
3161,65.0,2.0,60.0,11.0,0.0
3162,69.0,18.0,60.0,10.0,0.0
3163,65.0,42.0,60.0,11.0,0.0
3164,77.0,23.0,240.0,1.0,0.0
3165,53.0,0.0,1440.0,4.0,0.0
3166,41.0,2.0,1440.0,4.0,0.0
3167,69.0,4.0,480.0,2.0,0.0
3168,57.0,1.0,480.0,3.0,0.0
3169,36.0,7.0,480.0,14.0,0.0
3170,70.0,60.0,60.0,10.0,0.0
3171,69.0,18.0,60.0,10.0,0.0
3172,60.0,42.0,60.0,11.0,0.0
3173,36.0,40.0,120.0,13.0,0.0
3174,65.0,4.0,60.0,10.0,0.0
3175,77.0,14.0,480.0,1.0,0.0
3176,57.0,60.0,60.0,12.0,0.0
3177,53.0,40.0,120.0,13.0,0.0
3178,58.0,20.0,60.0,12.0,0.0
3179,57.0,60.0,60.0,12.0,0.0
3180,48.0,33.0,120.0,13.0,0.0
3181,53.0,8.0,60.0,12.0,0.0
3182,61.0,60.0,60.0,10.0,0.0
3183,53.0,42.0,120.0,11.0,0.0
3184,73.0,4.0,480.0,2.0,0.0
3185,61.0,1.0,480.0,3.0,0.0
3186,34.0,7.0,480.0,14.0,0.0
3187,63.0,18.0,60.0,10.0,0.0
3188,61.0,60.0,60.0,10.0,0.0
3189,58.0,9.0,120.0,11.0,0.0
3190,34.0,40.0,120.0,13.0,0.0
3191,58.0,4.0,60.0,10.0,0.0
3192,77.0,14.0,480.0,1.0,0.0
3193,49.0,60.0,60.0,12.0,0.0
3194,46.0,40.0,120.0,13.0,0.0
3195,51.0,20.0,60.0,12.0,0.0
3196,49.0,60.0,60.0,12.0,0.0
3197,41.0,33.0,120.0,13.0,0.0
3198,46.0,8.0,60.0,12.0,0.0
3199,60.0,60.0,60.0,10.0,0.0
3200,53.0,42.0,120.0,11.0,0.0
3201,69.0,0.0,480.0,2.0,0.0
3202,72.0,4.0,480.0,2.0,0.0
3203,45.0,0.0,480.0,3.0,0.0
3204,60.0,1.0,480.0,3.0,0.0
3205,33.0,5.0,480.0,14.0,0.0
3206,59.0,18.0,60.0,10.0,0.0
3207,60.0,60.0,60.0,10.0,0.0
3208,57.0,9.0,120.0,11.0,0.0
3209,33.0,40.0,120.0,13.0,0.0
3210,65.0,4.0,60.0,10.0,0.0
3211,72.0,3.0,240.0,1.0,0.0
3212,48.0,60.0,60.0,12.0,0.0
3213,45.0,40.0,120.0,13.0,0.0
3214,47.0,20.0,60.0,12.0,0.0
3215,48.0,57.0,60.0,12.0,0.0
3216,41.0,33.0,120.0,13.0,0.0
3217,53.0,8.0,60.0,12.0,0.0
3218,62.0,60.0,60.0,10.0,0.0
3219,55.0,42.0,120.0,11.0,0.0
3220,70.0,1.0,240.0,1.0,0.0
3221,46.0,7.0,240.0,4.0,0.0
3222,50.0,0.0,240.0,4.0,0.0
3223,70.0,4.0,480.0,2.0,0.0
3224,67.0,0.0,480.0,2.0,0.0
3225,46.0,1.0,480.0,3.0,0.0
3226,58.0,0.0,480.0,3.0,0.0
3227,34.0,7.0,480.0,14.0,0.0
3228,61.0,18.0,60.0,10.0,0.0
3229,62.0,60.0,60.0,10.0,0.0
3230,58.0,1.0,120.0,11.0,0.0
3231,34.0,40.0,120.0,13.0,0.0
3232,67.0,18.0,60.0,10.0,0.0
3233,67.0,3.0,240.0,1.0,0.0
3234,50.0,60.0,60.0,12.0,0.0
3235,46.0,40.0,120.0,13.0,0.0
3236,49.0,20.0,60.0,12.0,0.0
3237,50.0,57.0,60.0,12.0,0.0
3238,43.0,112.0,120.0,13.0,0.0
3239,55.0,8.0,60.0,12.0,0.0
3240,65.0,8.0,120.0,1.0,0.0
3241,48.0,0.0,960.0,5.0,0.0
3242,60.0,2.0,960.0,5.0,0.0
3243,53.0,0.0,720.0,3.0,0.0
3244,48.0,108.0,120.0,13.0,0.0
3245,36.0,0.0,960.0,14.0,0.0
3246,57.0,7.0,120.0,10.0,0.0
3247,45.0,113.0,120.0,12.0,0.0
3248,60.0,7.0,120.0,10.0,0.0
3249,48.0,113.0,120.0,12.0,0.0
3250,65.0,7.0,120.0,10.0,0.0
3251,53.0,113.0,120.0,12.0,0.0
3252,69.0,7.0,120.0,10.0,0.0
3253,57.0,113.0,120.0,12.0,0.0
3254,72.0,1.0,120.0,10.0,0.0
3255,60.0,0.0,120.0,12.0,0.0
3256,77.0,7.0,120.0,10.0,0.0
3257,77.0,6.0,15.0,0.0,0.0
3258,81.0,0.0,15.0,0.0,0.0
3259,65.0,0.0,15.0,2.0,0.0
3260,65.0,111.0,120.0,12.0,0.0
3261,69.0,4.0,15.0,2.0,0.0
3262,53.0,109.0,240.0,3.0,0.0
3263,57.0,109.0,15.0,3.0,0.0
3264,81.0,1.0,120.0,10.0,0.0
3265,69.0,0.0,120.0,12.0,0.0
3266,84.0,7.0,120.0,10.0,0.0
3267,84.0,0.0,720.0,0.0,0.0
3268,76.0,2.0,720.0,0.0,0.0
3269,67.0,0.0,960.0,1.0,0.0
3270,70.0,3.0,960.0,1.0,0.0
3271,58.0,0.0,960.0,4.0,0.0
3272,60.0,3.0,960.0,4.0,0.0
3273,72.0,116.0,120.0,12.0,0.0
3274,72.0,0.0,720.0,2.0,0.0
3275,55.0,2.0,960.0,5.0,0.0
3276,48.0,0.0,960.0,5.0,0.0
3277,60.0,0.0,720.0,3.0,0.0
3278,52.0,1.0,720.0,3.0,0.0
3279,24.0,1.0,960.0,14.0,0.0
3280,70.0,9.0,120.0,11.0,0.0
3281,58.0,111.0,120.0,13.0,0.0
3282,67.0,9.0,120.0,11.0,0.0
3283,55.0,111.0,120.0,13.0,0.0
3284,64.0,9.0,120.0,11.0,0.0
3285,52.0,111.0,120.0,13.0,0.0
3286,60.0,9.0,120.0,11.0,0.0
3287,48.0,109.0,120.0,13.0,0.0
3288,58.0,4.0,120.0,11.0,0.0
3289,46.0,111.0,120.0,13.0,0.0
3290,76.0,3.0,240.0,0.0,0.0
3291,70.0,0.0,240.0,0.0,0.0
3292,55.0,9.0,120.0,11.0,0.0
3293,64.0,4.0,15.0,2.0,0.0
3294,58.0,4.0,240.0,2.0,0.0
3295,58.0,61.0,240.0,3.0,0.0
3296,48.0,0.0,240.0,3.0,0.0
3297,43.0,103.0,120.0,13.0,0.0
3298,60.0,0.0,120.0,11.0,0.0
3299,36.0,0.0,120.0,13.0,0.0
3300,57.0,7.0,90.0,10.0,0.0
3301,69.0,0.0,120.0,0.0,0.0
3302,77.0,3.0,120.0,0.0,0.0
3303,69.0,0.0,120.0,1.0,0.0
3304,65.0,1.0,120.0,1.0,0.0
3305,60.0,2.0,120.0,4.0,0.0
3306,53.0,0.0,120.0,4.0,0.0
3307,48.0,24.0,90.0,12.0,0.0
3308,65.0,0.0,120.0,2.0,0.0
3309,57.0,1.0,120.0,2.0,0.0
3310,48.0,3.0,120.0,5.0,0.0
3311,57.0,1.0,120.0,3.0,0.0
3312,53.0,0.0,120.0,3.0,0.0
3313,41.0,18.0,60.0,13.0,0.0
3314,29.0,120.0,240.0,14.0,0.0
3315,40.0,60.0,60.0,13.0,0.0
3316,57.0,7.0,240.0,10.0,0.0
3317,48.0,98.0,240.0,12.0,0.0
3318,41.0,45.0,60.0,13.0,0.0
3319,45.0,3.0,60.0,13.0,0.0
3320,53.0,57.0,300.0,11.0,0.0
3321,41.0,8.0,450.0,13.0,0.0
3322,29.0,0.0,480.0,14.0,0.0
3323,58.0,7.0,120.0,10.0,0.0
3324,50.0,71.0,120.0,12.0,0.0
3325,57.0,3.0,120.0,10.0,0.0
3326,48.0,56.0,120.0,12.0,0.0
3327,52.0,4.0,60.0,11.0,0.0
3328,55.0,7.0,120.0,10.0,0.0
3329,53.0,45.0,60.0,11.0,0.0
3330,46.0,113.0,120.0,12.0,0.0
3331,69.0,4.0,60.0,11.0,0.0
3332,53.0,7.0,120.0,10.0,0.0
3333,53.0,14.0,450.0,11.0,0.0
3334,45.0,98.0,120.0,12.0,0.0
3335,41.0,18.0,300.0,13.0,0.0
3336,29.0,72.0,240.0,14.0,0.0
3337,55.0,7.0,120.0,10.0,0.0
3338,46.0,8.0,120.0,12.0,0.0
3339,57.0,7.0,90.0,10.0,0.0
3340,48.0,35.0,90.0,12.0,0.0
3341,29.0,120.0,240.0,14.0,0.0
3342,40.0,60.0,60.0,13.0,0.0
3343,57.0,7.0,240.0,10.0,0.0
3344,48.0,98.0,240.0,12.0,0.0
3345,41.0,31.0,60.0,13.0,0.0
3346,48.0,3.0,60.0,13.0,0.0
3347,53.0,57.0,300.0,11.0,0.0
3348,41.0,8.0,450.0,13.0,0.0
3349,29.0,7.0,480.0,14.0,0.0
3350,60.0,7.0,120.0,10.0,0.0
3351,51.0,71.0,120.0,12.0,0.0
3352,58.0,3.0,120.0,10.0,0.0
3353,50.0,56.0,120.0,12.0,0.0
3354,52.0,4.0,60.0,11.0,0.0
3355,55.0,0.0,120.0,10.0,0.0
3356,53.0,45.0,60.0,11.0,0.0
3357,46.0,113.0,120.0,12.0,0.0
3358,69.0,4.0,60.0,11.0,0.0
3359,53.0,3.0,120.0,10.0,0.0
3360,45.0,98.0,120.0,12.0,0.0
3361,41.0,33.0,300.0,13.0,0.0
3362,29.0,63.0,240.0,14.0,0.0
3363,55.0,7.0,120.0,10.0,0.0
3364,53.0,4.0,15.0,11.0,0.0
3365,46.0,8.0,120.0,12.0,0.0
3366,57.0,7.0,120.0,10.0,0.0
3367,48.0,11.0,120.0,12.0,0.0
3368,41.0,7.0,240.0,14.0,0.0
3369,52.0,9.0,60.0,11.0,0.0
3370,40.0,51.0,60.0,13.0,0.0
3371,60.0,0.0,120.0,10.0,0.0
3372,53.0,9.0,60.0,11.0,0.0
3373,57.0,113.0,120.0,12.0,0.0
3374,41.0,36.0,60.0,13.0,0.0
3375,57.0,9.0,60.0,11.0,0.0
3376,45.0,3.0,60.0,13.0,0.0
3377,65.0,7.0,120.0,10.0,0.0
3378,53.0,9.0,300.0,11.0,0.0
3379,62.0,98.0,120.0,12.0,0.0
3380,34.0,0.0,240.0,3.0,0.0
3381,46.0,52.0,240.0,3.0,0.0
3382,41.0,33.0,300.0,13.0,0.0
3383,34.0,11.0,240.0,14.0,0.0
3384,62.0,7.0,120.0,10.0,0.0
3385,58.0,8.0,120.0,12.0,0.0
3386,60.0,7.0,120.0,10.0,0.0
3387,57.0,11.0,120.0,12.0,0.0
3388,41.0,1.0,120.0,3.0,0.0
3389,53.0,0.0,120.0,3.0,0.0
3390,41.0,48.0,120.0,14.0,0.0
3391,52.0,8.0,60.0,11.0,0.0
3392,40.0,3.0,60.0,13.0,0.0
3393,65.0,7.0,120.0,10.0,0.0
3394,53.0,9.0,60.0,11.0,0.0
3395,57.0,113.0,120.0,12.0,0.0
3396,41.0,36.0,60.0,13.0,0.0
3397,57.0,9.0,60.0,11.0,0.0
3398,45.0,3.0,60.0,13.0,0.0
3399,69.0,7.0,120.0,10.0,0.0
3400,57.0,9.0,300.0,11.0,0.0
3401,65.0,103.0,120.0,12.0,0.0
3402,50.0,0.0,240.0,3.0,0.0
3403,38.0,52.0,240.0,3.0,0.0
3404,45.0,38.0,300.0,13.0,0.0
3405,38.0,11.0,240.0,14.0,0.0
3406,65.0,7.0,120.0,10.0,0.0
3407,62.0,3.0,120.0,12.0,0.0
3408,64.0,7.0,120.0,10.0,0.0
3409,60.0,6.0,120.0,12.0,0.0
3410,57.0,1.0,120.0,3.0,0.0
3411,45.0,0.0,120.0,3.0,0.0
3412,45.0,48.0,120.0,14.0,0.0
3413,56.0,8.0,60.0,11.0,0.0
3414,44.0,3.0,60.0,13.0,0.0
3415,69.0,7.0,120.0,10.0,0.0
3416,57.0,9.0,60.0,11.0,0.0
3417,60.0,56.0,120.0,12.0,0.0
3418,45.0,36.0,60.0,13.0,0.0
3419,60.0,9.0,60.0,11.0,0.0
3420,48.0,3.0,60.0,13.0,0.0
3421,72.0,18.0,360.0,10.0,0.0
3422,65.0,60.0,60.0,11.0,0.0
3423,57.0,56.0,120.0,12.0,0.0
3424,45.0,1.0,240.0,3.0,0.0
3425,33.0,0.0,240.0,3.0,0.0
3426,33.0,3.0,240.0,13.0,0.0
3427,33.0,48.0,240.0,14.0,0.0
3428,64.0,4.0,60.0,11.0,0.0
3429,65.0,45.0,60.0,11.0,0.0
3430,53.0,19.0,120.0,12.0,0.0
3431,69.0,4.0,60.0,11.0,0.0
3432,65.0,42.0,60.0,11.0,0.0
3433,57.0,56.0,120.0,12.0,0.0
3434,36.0,80.0,480.0,3.0,0.0
3435,36.0,3.0,480.0,13.0,0.0
3436,36.0,11.0,480.0,14.0,0.0
3437,64.0,4.0,60.0,11.0,0.0
3438,69.0,63.0,120.0,10.0,0.0
3439,65.0,45.0,60.0,11.0,0.0
3440,53.0,8.0,120.0,12.0,0.0
3441,69.0,4.0,60.0,11.0,0.0
3442,72.0,3.0,120.0,10.0,0.0
3443,64.0,57.0,60.0,11.0,0.0
3444,60.0,56.0,120.0,12.0,0.0
3445,62.0,4.0,60.0,11.0,0.0
3446,67.0,3.0,120.0,10.0,0.0
3447,64.0,42.0,60.0,11.0,0.0
3448,48.0,5.0,120.0,12.0,0.0
3449,67.0,4.0,60.0,11.0,0.0
3450,69.0,3.0,120.0,10.0,0.0
3451,72.0,6.0,90.0,0.0,0.0
3452,81.0,0.0,90.0,0.0,0.0
3453,60.0,19.0,120.0,11.0,0.0
3454,60.0,4.0,90.0,2.0,0.0
3455,69.0,0.0,90.0,2.0,0.0
3456,48.0,0.0,15.0,3.0,0.0
3457,57.0,0.0,90.0,3.0,0.0
3458,29.0,60.0,240.0,14.0,0.0
3459,52.0,5.0,60.0,12.0,0.0
3460,40.0,55.0,60.0,13.0,0.0
3461,65.0,3.0,180.0,10.0,0.0
3462,72.0,0.0,240.0,0.0,0.0
3463,81.0,2.0,240.0,0.0,0.0
3464,53.0,49.0,180.0,11.0,0.0
3465,69.0,0.0,240.0,2.0,0.0
3466,60.0,4.0,240.0,2.0,0.0
3467,53.0,5.0,60.0,12.0,0.0
3468,48.0,49.0,240.0,3.0,0.0
3469,57.0,0.0,240.0,3.0,0.0
3470,41.0,40.0,60.0,13.0,0.0
3471,57.0,5.0,60.0,12.0,0.0
3472,45.0,3.0,60.0,13.0,0.0
3473,53.0,5.0,120.0,12.0,0.0
3474,41.0,3.0,120.0,13.0,0.0
3475,29.0,1.0,480.0,14.0,0.0
3476,64.0,1.0,60.0,10.0,0.0
3477,52.0,4.0,60.0,11.0,0.0
3478,65.0,3.0,60.0,10.0,0.0
3479,74.0,2.0,120.0,0.0,0.0
3480,82.0,0.0,120.0,0.0,0.0
3481,53.0,42.0,60.0,11.0,0.0
3482,62.0,0.0,120.0,2.0,0.0
3483,53.0,5.0,240.0,12.0,0.0
3484,70.0,4.0,120.0,2.0,0.0
3485,50.0,0.0,120.0,3.0,0.0
3486,58.0,109.0,120.0,3.0,0.0
3487,41.0,4.0,240.0,13.0,0.0
3488,77.0,1.0,60.0,10.0,0.0
3489,69.0,4.0,60.0,11.0,0.0
3490,65.0,3.0,120.0,10.0,0.0
3491,81.0,0.0,120.0,0.0,0.0
3492,72.0,6.0,120.0,0.0,0.0
3493,53.0,4.0,120.0,11.0,0.0
3494,69.0,0.0,120.0,2.0,0.0
3495,60.0,4.0,120.0,2.0,0.0
3496,57.0,109.0,120.0,3.0,0.0
3497,48.0,0.0,120.0,3.0,0.0
3498,65.0,3.0,240.0,10.0,0.0
3499,70.0,6.0,120.0,0.0,0.0
3500,79.0,0.0,120.0,0.0,0.0
3501,53.0,4.0,240.0,11.0,0.0
3502,67.0,4.0,120.0,2.0,0.0
3503,58.0,0.0,120.0,2.0,0.0
3504,53.0,5.0,240.0,12.0,0.0
3505,55.0,0.0,120.0,3.0,0.0
3506,46.0,94.0,120.0,3.0,0.0
3507,41.0,4.0,240.0,13.0,0.0
3508,77.0,6.0,120.0,0.0,0.0
3509,69.0,0.0,120.0,0.0,0.0
3510,57.0,4.0,120.0,2.0,0.0
3511,65.0,0.0,120.0,2.0,0.0
3512,53.0,0.0,120.0,3.0,0.0
3513,45.0,95.0,120.0,3.0,0.0
3514,29.0,67.0,240.0,14.0,0.0
3515,65.0,3.0,240.0,10.0,0.0
3516,70.0,0.0,120.0,0.0,0.0
3517,79.0,6.0,120.0,0.0,0.0
3518,53.0,19.0,240.0,11.0,0.0
3519,53.0,5.0,180.0,12.0,0.0
3520,67.0,4.0,120.0,2.0,0.0
3521,58.0,0.0,120.0,2.0,0.0
3522,55.0,4.0,120.0,3.0,0.0
3523,46.0,0.0,120.0,3.0,0.0
3524,41.0,19.0,180.0,13.0,0.0
3525,81.0,6.0,90.0,0.0,0.0
3526,72.0,0.0,90.0,0.0,0.0
3527,69.0,4.0,90.0,2.0,0.0
3528,60.0,0.0,90.0,2.0,0.0
3529,57.0,4.0,90.0,3.0,0.0
3530,48.0,0.0,90.0,3.0,0.0
3531,41.0,60.0,240.0,14.0,0.0
3532,52.0,5.0,60.0,12.0,0.0
3533,40.0,55.0,60.0,13.0,0.0
3534,65.0,3.0,180.0,10.0,0.0
3535,81.0,0.0,240.0,0.0,0.0
3536,72.0,2.0,240.0,0.0,0.0
3537,53.0,49.0,180.0,11.0,0.0
3538,53.0,5.0,60.0,12.0,0.0
3539,60.0,4.0,240.0,2.0,0.0
3540,69.0,0.0,240.0,2.0,0.0
3541,57.0,49.0,240.0,3.0,0.0
3542,48.0,0.0,240.0,3.0,0.0
3543,41.0,40.0,60.0,13.0,0.0
3544,60.0,5.0,60.0,12.0,0.0
3545,48.0,3.0,60.0,13.0,0.0
3546,53.0,5.0,120.0,12.0,0.0
3547,41.0,3.0,120.0,13.0,0.0
3548,41.0,1.0,480.0,14.0,0.0
3549,64.0,1.0,60.0,10.0,0.0
3550,52.0,4.0,60.0,11.0,0.0
3551,65.0,3.0,60.0,10.0,0.0
3552,84.0,0.0,120.0,0.0,0.0
3553,75.0,2.0,120.0,0.0,0.0
3554,53.0,42.0,60.0,11.0,0.0
3555,53.0,5.0,240.0,12.0,0.0
3556,72.0,4.0,120.0,2.0,0.0
3557,63.0,0.0,120.0,2.0,0.0
3558,60.0,109.0,120.0,3.0,0.0
3559,51.0,0.0,120.0,3.0,0.0
3560,41.0,4.0,240.0,13.0,0.0
3561,77.0,1.0,60.0,10.0,0.0
3562,69.0,4.0,60.0,11.0,0.0
3563,65.0,3.0,120.0,10.0,0.0
3564,74.0,0.0,120.0,0.0,0.0
3565,82.0,6.0,120.0,0.0,0.0
3566,53.0,4.0,120.0,11.0,0.0
3567,62.0,4.0,120.0,2.0,0.0
3568,70.0,0.0,120.0,2.0,0.0
3569,58.0,0.0,120.0,3.0,0.0
3570,50.0,109.0,120.0,3.0,0.0
3571,65.0,3.0,240.0,10.0,0.0
3572,79.0,0.0,120.0,0.0,0.0
3573,70.0,6.0,120.0,0.0,0.0
3574,53.0,4.0,240.0,11.0,0.0
3575,67.0,4.0,120.0,2.0,0.0
3576,58.0,0.0,120.0,2.0,0.0
3577,53.0,5.0,240.0,12.0,0.0
3578,55.0,0.0,120.0,3.0,0.0
3579,46.0,94.0,120.0,3.0,0.0
3580,41.0,4.0,240.0,13.0,0.0
3581,77.0,6.0,120.0,0.0,0.0
3582,69.0,0.0,120.0,0.0,0.0
3583,65.0,4.0,120.0,2.0,0.0
3584,57.0,0.0,120.0,2.0,0.0
3585,45.0,0.0,120.0,3.0,0.0
3586,53.0,95.0,120.0,3.0,0.0
3587,41.0,67.0,240.0,14.0,0.0
3588,65.0,1.0,240.0,10.0,0.0
3589,79.0,0.0,120.0,0.0,0.0
3590,70.0,6.0,120.0,0.0,0.0
3591,53.0,4.0,240.0,11.0,0.0
3592,58.0,4.0,120.0,2.0,0.0
3593,53.0,5.0,180.0,12.0,0.0
3594,67.0,0.0,120.0,2.0,0.0
3595,55.0,4.0,120.0,3.0,0.0
3596,46.0,0.0,120.0,3.0,0.0
3597,41.0,33.0,180.0,13.0,0.0
3598,81.0,2.0,120.0,0.0,0.0
3599,72.0,0.0,120.0,0.0,0.0
3600,69.0,0.0,120.0,2.0,0.0
3601,60.0,4.0,120.0,2.0,0.0
3602,57.0,11.0,120.0,3.0,0.0
3603,48.0,0.0,120.0,3.0,0.0
3604,41.0,52.0,120.0,14.0,0.0
3605,52.0,5.0,60.0,12.0,0.0
3606,40.0,3.0,60.0,13.0,0.0
3607,65.0,3.0,180.0,10.0,0.0
3608,84.0,3.0,120.0,0.0,0.0
3609,81.0,0.0,120.0,0.0,0.0
3610,53.0,49.0,180.0,11.0,0.0
3611,69.0,3.0,120.0,1.0,0.0
3612,72.0,0.0,120.0,1.0,0.0
3613,53.0,5.0,60.0,12.0,0.0
3614,60.0,4.0,120.0,2.0,0.0
3615,57.0,0.0,120.0,2.0,0.0
3616,45.0,49.0,120.0,3.0,0.0
3617,48.0,0.0,120.0,3.0,0.0
3618,41.0,40.0,60.0,13.0,0.0
3619,57.0,5.0,60.0,12.0,0.0
3620,45.0,4.0,60.0,13.0,0.0
3621,89.0,0.0,120.0,0.0,0.0
3622,77.0,0.0,120.0,1.0,0.0
3623,62.0,62.0,240.0,4.0,0.0
3624,58.0,0.0,240.0,4.0,0.0
3625,65.0,4.0,120.0,2.0,0.0
3626,53.0,8.0,120.0,12.0,0.0
3627,62.0,0.0,120.0,2.0,0.0
3628,53.0,49.0,120.0,3.0,0.0
3629,50.0,0.0,120.0,3.0,0.0
3630,34.0,3.0,240.0,13.0,0.0
3631,34.0,5.0,240.0,14.0,0.0
3632,64.0,1.0,60.0,10.0,0.0
3633,52.0,1.0,60.0,11.0,0.0
3634,65.0,3.0,60.0,10.0,0.0
3635,86.0,2.0,15.0,0.0,0.0
3636,82.0,2.0,120.0,0.0,0.0
3637,53.0,42.0,60.0,11.0,0.0
3638,70.0,0.0,120.0,1.0,0.0
3639,74.0,3.0,15.0,1.0,0.0
3640,58.0,4.0,120.0,2.0,0.0
3641,53.0,5.0,180.0,12.0,0.0
3642,62.0,0.0,120.0,2.0,0.0
3643,46.0,1.0,120.0,3.0,0.0
3644,50.0,0.0,120.0,3.0,0.0
3645,70.0,1.0,60.0,10.0,0.0
3646,58.0,1.0,60.0,11.0,0.0
3647,65.0,1.0,120.0,10.0,0.0
3648,84.0,2.0,120.0,0.0,0.0
3649,81.0,0.0,120.0,0.0,0.0
3650,53.0,1.0,120.0,11.0,0.0
3651,72.0,3.0,120.0,1.0,0.0
3652,69.0,0.0,120.0,1.0,0.0
3653,60.0,2.0,120.0,4.0,0.0
3654,57.0,0.0,120.0,2.0,0.0
3655,60.0,4.0,120.0,2.0,0.0
3656,45.0,0.0,120.0,3.0,0.0
3657,48.0,9.0,120.0,3.0,0.0
3658,41.0,33.0,60.0,13.0,0.0
3659,41.0,52.0,120.0,14.0,0.0
3660,52.0,5.0,60.0,12.0,0.0
3661,40.0,3.0,60.0,13.0,0.0
3662,65.0,3.0,180.0,10.0,0.0
3663,77.0,0.0,240.0,0.0,0.0
3664,53.0,49.0,180.0,11.0,0.0
3665,77.0,3.0,120.0,1.0,0.0
3666,69.0,0.0,120.0,1.0,0.0
3667,65.0,4.0,120.0,2.0,0.0
3668,57.0,0.0,120.0,2.0,0.0
3669,53.0,5.0,60.0,12.0,0.0
3670,45.0,0.0,120.0,3.0,0.0
3671,41.0,40.0,60.0,13.0,0.0
3672,57.0,5.0,60.0,12.0,0.0
3673,45.0,7.0,60.0,13.0,0.0
3674,81.0,2.0,120.0,0.0,0.0
3675,81.0,0.0,120.0,1.0,0.0
3676,77.0,3.0,120.0,1.0,0.0
3677,62.0,47.0,240.0,4.0,0.0
3678,53.0,0.0,240.0,4.0,0.0
3679,45.0,8.0,120.0,12.0,0.0
3680,57.0,0.0,120.0,12.0,0.0
3681,69.0,0.0,120.0,2.0,0.0
3682,65.0,4.0,120.0,2.0,0.0
3683,53.0,49.0,15.0,3.0,0.0
3684,57.0,0.0,120.0,3.0,0.0
3685,38.0,3.0,240.0,13.0,0.0
3686,38.0,1.0,240.0,14.0,0.0
3687,64.0,1.0,60.0,10.0,0.0
3688,52.0,1.0,60.0,11.0,0.0
3689,65.0,3.0,60.0,10.0,0.0
3690,74.0,0.0,120.0,0.0,0.0
3691,77.0,3.0,120.0,0.0,0.0
3692,53.0,42.0,60.0,11.0,0.0
3693,77.0,3.0,120.0,1.0,0.0
3694,74.0,0.0,120.0,1.0,0.0
3695,65.0,0.0,120.0,2.0,0.0
3696,62.0,0.0,120.0,2.0,0.0
3697,45.0,0.0,180.0,12.0,0.0
3698,57.0,20.0,180.0,12.0,0.0
3699,50.0,4.0,120.0,3.0,0.0
3700,53.0,49.0,15.0,3.0,0.0
3701,69.0,3.0,60.0,10.0,0.0
3702,57.0,3.0,60.0,11.0,0.0
3703,64.0,3.0,120.0,10.0,0.0
3704,76.0,0.0,120.0,0.0,0.0
3705,72.0,3.0,120.0,0.0,0.0
3706,60.0,3.0,120.0,11.0,0.0
3707,72.0,0.0,120.0,1.0,0.0
3708,76.0,3.0,120.0,1.0,0.0
3709,60.0,2.0,120.0,4.0,0.0
3710,64.0,0.0,120.0,2.0,0.0
3711,60.0,4.0,120.0,2.0,0.0
3712,48.0,0.0,120.0,3.0,0.0
3713,52.0,4.0,120.0,3.0,0.0
3714,45.0,33.0,60.0,13.0,0.0
3715,45.0,52.0,120.0,14.0,0.0
3716,56.0,5.0,60.0,12.0,0.0
3717,44.0,3.0,60.0,13.0,0.0
3718,64.0,1.0,120.0,10.0,0.0
3719,76.0,2.0,120.0,0.0,0.0
3720,72.0,0.0,120.0,0.0,0.0
3721,60.0,1.0,120.0,11.0,0.0
3722,72.0,3.0,120.0,1.0,0.0
3723,76.0,0.0,120.0,1.0,0.0
3724,57.0,5.0,60.0,12.0,0.0
3725,64.0,0.0,120.0,2.0,0.0
3726,60.0,4.0,120.0,2.0,0.0
3727,52.0,0.0,120.0,3.0,0.0
3728,48.0,56.0,120.0,3.0,0.0
3729,45.0,40.0,60.0,13.0,0.0
3730,60.0,5.0,60.0,12.0,0.0
3731,48.0,3.0,60.0,13.0,0.0
3732,69.0,1.0,120.0,10.0,0.0
3733,81.0,2.0,120.0,0.0,0.0
3734,77.0,0.0,120.0,0.0,0.0
3735,65.0,1.0,120.0,11.0,0.0
3736,81.0,0.0,120.0,1.0,0.0
3737,53.0,0.0,240.0,4.0,0.0
3738,62.0,62.0,240.0,4.0,0.0
3739,57.0,53.0,60.0,12.0,0.0
3740,69.0,0.0,120.0,2.0,0.0
3741,57.0,0.0,120.0,3.0,0.0
3742,38.0,3.0,240.0,13.0,0.0
3743,38.0,5.0,240.0,14.0,0.0
3744,56.0,0.0,60.0,12.0,0.0
3745,65.0,1.0,120.0,10.0,0.0
3746,77.0,0.0,120.0,0.0,0.0
3747,74.0,2.0,120.0,0.0,0.0
3748,62.0,1.0,120.0,11.0,0.0
3749,74.0,3.0,120.0,1.0,0.0
3750,77.0,3.0,15.0,1.0,0.0
3751,65.0,4.0,15.0,2.0,0.0
3752,62.0,0.0,120.0,2.0,0.0
3753,57.0,38.0,60.0,12.0,0.0
3754,53.0,56.0,15.0,3.0,0.0
3755,50.0,0.0,120.0,3.0,0.0
3756,62.0,0.0,60.0,12.0,0.0
3757,64.0,1.0,120.0,10.0,0.0
3758,76.0,2.0,120.0,0.0,0.0
3759,72.0,0.0,120.0,0.0,0.0
3760,60.0,1.0,120.0,11.0,0.0
3761,76.0,3.0,120.0,1.0,0.0
3762,72.0,0.0,120.0,1.0,0.0
3763,60.0,2.0,120.0,4.0,0.0
3764,57.0,5.0,60.0,12.0,0.0
3765,60.0,4.0,120.0,2.0,0.0
3766,64.0,0.0,120.0,2.0,0.0
3767,52.0,9.0,120.0,3.0,0.0
3768,48.0,0.0,120.0,3.0,0.0
3769,45.0,33.0,60.0,13.0,0.0
3770,45.0,52.0,120.0,14.0,0.0
3771,56.0,5.0,60.0,12.0,0.0
3772,44.0,3.0,60.0,13.0,0.0
3773,69.0,1.0,120.0,10.0,0.0
3774,72.0,0.0,120.0,0.0,0.0
3775,81.0,2.0,120.0,0.0,0.0
3776,60.0,4.0,120.0,11.0,0.0
3777,72.0,3.0,240.0,1.0,0.0
3778,57.0,5.0,60.0,12.0,0.0
3779,60.0,4.0,120.0,2.0,0.0
3780,48.0,56.0,120.0,3.0,0.0
3781,57.0,0.0,120.0,3.0,0.0
3782,45.0,40.0,60.0,13.0,0.0
3783,60.0,5.0,60.0,12.0,0.0
3784,48.0,3.0,60.0,13.0,0.0
3785,72.0,1.0,120.0,10.0,0.0
3786,84.0,2.0,120.0,0.0,0.0
3787,81.0,0.0,120.0,0.0,0.0
3788,69.0,1.0,120.0,11.0,0.0
3789,53.0,0.0,240.0,4.0,0.0
3790,65.0,62.0,240.0,4.0,0.0
3791,60.0,53.0,60.0,12.0,0.0
3792,69.0,0.0,15.0,2.0,0.0
3793,72.0,0.0,120.0,2.0,0.0
3794,60.0,0.0,120.0,3.0,0.0
3795,41.0,3.0,240.0,13.0,0.0
3796,41.0,5.0,240.0,14.0,0.0
3797,59.0,4.0,60.0,12.0,0.0
3798,69.0,1.0,120.0,10.0,0.0
3799,77.0,0.0,120.0,0.0,0.0
3800,81.0,2.0,120.0,0.0,0.0
3801,65.0,1.0,120.0,11.0,0.0
3802,69.0,0.0,15.0,1.0,0.0
3803,65.0,3.0,120.0,1.0,0.0
3804,60.0,38.0,60.0,12.0,0.0
3805,69.0,0.0,15.0,2.0,0.0
3806,65.0,4.0,120.0,2.0,0.0
3807,57.0,56.0,15.0,3.0,0.0
3808,53.0,0.0,120.0,3.0,0.0
3809,65.0,0.0,60.0,12.0,0.0
3810,67.0,1.0,120.0,10.0,0.0
3811,79.0,0.0,120.0,0.0,0.0
3812,76.0,2.0,120.0,0.0,0.0
3813,64.0,1.0,120.0,11.0,0.0
3814,67.0,0.0,120.0,1.0,0.0
3815,64.0,3.0,120.0,1.0,0.0
3816,60.0,2.0,120.0,4.0,0.0
3817,67.0,0.0,120.0,2.0,0.0
3818,64.0,4.0,120.0,2.0,0.0
3819,60.0,5.0,60.0,12.0,0.0
3820,52.0,0.0,120.0,3.0,0.0
3821,55.0,9.0,120.0,3.0,0.0
3822,48.0,33.0,60.0,13.0,0.0
3823,48.0,52.0,120.0,14.0,0.0
3824,59.0,5.0,60.0,12.0,0.0
3825,47.0,3.0,60.0,13.0,0.0
3826,72.0,1.0,120.0,10.0,0.0
3827,76.0,2.0,120.0,0.0,0.0
3828,64.0,1.0,120.0,11.0,0.0
3829,64.0,4.0,120.0,1.0,0.0
3830,60.0,5.0,60.0,12.0,0.0
3831,52.0,59.0,120.0,5.0,0.0
3832,48.0,40.0,60.0,13.0,0.0
3833,64.0,5.0,60.0,12.0,0.0
3834,52.0,3.0,60.0,13.0,0.0
3835,76.0,1.0,360.0,10.0,0.0
3836,84.0,0.0,15.0,0.0,0.0
3837,88.0,3.0,360.0,0.0,0.0
3838,72.0,4.0,120.0,11.0,0.0
3839,72.0,0.0,15.0,1.0,0.0
3840,76.0,14.0,360.0,1.0,0.0
3841,57.0,56.0,60.0,12.0,0.0
3842,72.0,0.0,480.0,2.0,0.0
3843,69.0,4.0,480.0,2.0,0.0
3844,60.0,0.0,15.0,5.0,0.0
3845,64.0,0.0,360.0,5.0,0.0
3846,57.0,4.0,480.0,3.0,0.0
3847,60.0,0.0,480.0,3.0,0.0
3848,36.0,3.0,240.0,13.0,0.0
3849,36.0,52.0,240.0,14.0,0.0
3850,56.0,60.0,60.0,12.0,0.0
3851,69.0,4.0,120.0,11.0,0.0
3852,57.0,41.0,60.0,12.0,0.0
3853,60.0,20.0,60.0,12.0,0.0
3854,72.0,4.0,120.0,11.0,0.0
3855,57.0,38.0,60.0,12.0,0.0
3856,40.0,3.0,480.0,13.0,0.0
3857,40.0,60.0,480.0,14.0,0.0
3858,56.0,1.0,60.0,12.0,0.0
3859,72.0,1.0,120.0,10.0,0.0
3860,81.0,0.0,120.0,0.0,0.0
3861,84.0,3.0,120.0,0.0,0.0
3862,69.0,4.0,120.0,11.0,0.0
3863,69.0,4.0,120.0,1.0,0.0
3864,72.0,0.0,120.0,1.0,0.0
3865,57.0,41.0,60.0,12.0,0.0
3866,52.0,59.0,120.0,5.0,0.0
3867,60.0,59.0,15.0,5.0,0.0
3868,60.0,0.0,60.0,12.0,0.0
3869,76.0,1.0,120.0,10.0,0.0
3870,88.0,3.0,120.0,0.0,0.0
3871,80.0,2.0,240.0,0.0,0.0
3872,62.0,0.0,240.0,11.0,0.0
3873,68.0,1.0,240.0,11.0,0.0
3874,76.0,3.0,120.0,1.0,0.0
3875,68.0,3.0,240.0,1.0,0.0
3876,59.0,53.0,60.0,12.0,0.0
3877,71.0,0.0,240.0,2.0,0.0
3878,74.0,1.0,240.0,2.0,0.0
3879,52.0,3.0,240.0,5.0,0.0
3880,64.0,59.0,120.0,5.0,0.0
3881,62.0,1.0,240.0,3.0,0.0
3882,59.0,0.0,240.0,3.0,0.0
3883,58.0,1.0,60.0,12.0,0.0
3884,71.0,1.0,120.0,10.0,0.0
3885,83.0,0.0,120.0,0.0,0.0
3886,71.0,0.0,120.0,1.0,0.0
3887,59.0,38.0,60.0,12.0,0.0
3888,59.0,0.0,120.0,5.0,0.0
3889,64.0,0.0,60.0,12.0,0.0
3890,72.0,1.0,60.0,10.0,0.0
3891,81.0,0.0,60.0,0.0,0.0
3892,84.0,2.0,60.0,0.0,0.0
3893,60.0,0.0,60.0,11.0,0.0
3894,69.0,1.0,60.0,11.0,0.0
3895,72.0,3.0,60.0,1.0,0.0
3896,69.0,0.0,60.0,1.0,0.0
3897,69.0,0.0,60.0,2.0,0.0
3898,72.0,1.0,60.0,2.0,0.0
3899,60.0,0.0,60.0,12.0,0.0
3900,52.0,3.0,60.0,5.0,0.0
3901,60.0,0.0,60.0,5.0,0.0
3902,57.0,56.0,60.0,3.0,0.0
3903,60.0,0.0,60.0,3.0,0.0
3904,33.0,3.0,120.0,13.0,0.0
3905,33.0,52.0,120.0,14.0,0.0
3906,59.0,5.0,60.0,12.0,0.0
3907,76.0,1.0,120.0,10.0,0.0
3908,88.0,0.0,120.0,0.0,0.0
3909,84.0,2.0,120.0,0.0,0.0
3910,72.0,1.0,120.0,11.0,0.0
3911,72.0,4.0,120.0,1.0,0.0
3912,60.0,45.0,60.0,12.0,0.0
3913,64.0,0.0,120.0,5.0,0.0
3914,60.0,59.0,120.0,5.0,0.0
3915,64.0,8.0,60.0,12.0,0.0
3916,79.0,1.0,360.0,10.0,0.0
3917,88.0,3.0,360.0,0.0,0.0
3918,79.0,0.0,360.0,0.0,0.0
3919,76.0,4.0,120.0,11.0,0.0
3920,76.0,0.0,15.0,1.0,0.0
3921,79.0,0.0,360.0,1.0,0.0
3922,64.0,0.0,480.0,2.0,0.0
3923,72.0,0.0,480.0,2.0,0.0
3924,60.0,56.0,60.0,12.0,0.0
3925,67.0,59.0,360.0,5.0,0.0
3926,52.0,0.0,480.0,3.0,0.0
3927,60.0,4.0,480.0,3.0,0.0
3928,40.0,3.0,240.0,13.0,0.0
3929,28.0,52.0,240.0,14.0,0.0
3930,59.0,60.0,60.0,12.0,0.0
3931,72.0,4.0,120.0,11.0,0.0
3932,60.0,41.0,60.0,12.0,0.0
3933,64.0,20.0,60.0,12.0,0.0
3934,76.0,4.0,120.0,11.0,0.0
3935,60.0,38.0,60.0,12.0,0.0
3936,43.0,3.0,480.0,13.0,0.0
3937,31.0,60.0,480.0,14.0,0.0
3938,59.0,1.0,60.0,12.0,0.0
3939,76.0,1.0,120.0,10.0,0.0
3940,88.0,0.0,120.0,0.0,0.0
3941,84.0,3.0,120.0,0.0,0.0
3942,72.0,4.0,120.0,11.0,0.0
3943,72.0,4.0,120.0,1.0,0.0
3944,76.0,0.0,120.0,1.0,0.0
3945,60.0,41.0,60.0,12.0,0.0
3946,64.0,0.0,15.0,5.0,0.0
3947,60.0,0.0,120.0,5.0,0.0
3948,64.0,4.0,60.0,12.0,0.0
3949,79.0,4.0,120.0,10.0,0.0
3950,86.0,0.0,240.0,0.0,0.0
3951,83.0,2.0,240.0,0.0,0.0
3952,71.0,0.0,240.0,11.0,0.0
3953,65.0,1.0,240.0,11.0,0.0
3954,71.0,0.0,240.0,1.0,0.0
3955,79.0,3.0,120.0,1.0,0.0
3956,62.0,53.0,60.0,12.0,0.0
3957,74.0,1.0,240.0,2.0,0.0
3958,65.0,0.0,240.0,2.0,0.0
3959,67.0,59.0,120.0,5.0,0.0
3960,55.0,0.0,240.0,5.0,0.0
3961,53.0,1.0,240.0,3.0,0.0
3962,62.0,0.0,240.0,3.0,0.0
3963,61.0,1.0,60.0,12.0,0.0
3964,74.0,1.0,120.0,10.0,0.0
3965,74.0,3.0,120.0,1.0,0.0
3966,62.0,38.0,60.0,12.0,0.0
3967,62.0,3.0,120.0,5.0,0.0
3968,67.0,0.0,60.0,12.0,0.0
3969,76.0,1.0,60.0,10.0,0.0
3970,84.0,0.0,60.0,0.0,0.0
3971,88.0,2.0,60.0,0.0,0.0
3972,72.0,0.0,60.0,11.0,0.0
3973,64.0,1.0,60.0,11.0,0.0
3974,72.0,3.0,60.0,1.0,0.0
3975,76.0,0.0,60.0,1.0,0.0
3976,64.0,0.0,60.0,2.0,0.0
3977,72.0,1.0,60.0,2.0,0.0
3978,67.0,0.0,60.0,12.0,0.0
3979,48.0,3.0,60.0,5.0,0.0
3980,64.0,0.0,60.0,5.0,0.0
3981,52.0,1.0,60.0,3.0,0.0
3982,60.0,0.0,60.0,3.0,0.0
3983,36.0,3.0,60.0,13.0,0.0
3984,24.0,71.0,60.0,14.0,0.0
3985,84.0,2.0,30.0,10.0,0.0
3986,84.0,3.0,210.0,0.0,0.0
3987,72.0,4.0,30.0,11.0,0.0
3988,72.0,2.0,210.0,1.0,0.0
3989,72.0,1.0,210.0,2.0,0.0
3990,72.0,5.0,30.0,12.0,0.0
3991,60.0,4.0,60.0,5.0,0.0
3992,48.0,0.0,60.0,5.0,0.0
3993,60.0,1.0,210.0,3.0,0.0
3994,60.0,29.0,30.0,13.0,0.0
3995,48.0,26.0,240.0,14.0,0.0
3996,84.0,2.0,30.0,10.0,0.0
3997,72.0,0.0,30.0,11.0,0.0
3998,72.0,5.0,30.0,12.0,0.0
3999,60.0,29.0,30.0,13.0,0.0
4000,84.0,2.0,30.0,10.0,0.0
4001,72.0,4.0,30.0,11.0,0.0
4002,72.0,5.0,30.0,12.0,0.0
4003,60.0,29.0,30.0,13.0,0.0
4004,84.0,2.0,30.0,10.0,0.0
4005,72.0,4.0,30.0,11.0,0.0
4006,72.0,5.0,30.0,12.0,0.0
4007,60.0,29.0,30.0,13.0,0.0
4008,84.0,2.0,30.0,10.0,0.0
4009,72.0,4.0,30.0,11.0,0.0
4010,72.0,5.0,30.0,12.0,0.0
4011,60.0,24.0,30.0,13.0,0.0
4012,84.0,1.0,30.0,10.0,0.0
4013,72.0,3.0,30.0,11.0,0.0
4014,72.0,5.0,30.0,12.0,0.0
4015,60.0,3.0,30.0,13.0,0.0
4016,85.0,2.0,30.0,10.0,0.0
4017,85.0,3.0,120.0,0.0,0.0
4018,73.0,4.0,30.0,11.0,0.0
4019,73.0,3.0,120.0,1.0,0.0
4020,73.0,5.0,30.0,12.0,0.0
4021,73.0,4.0,120.0,2.0,0.0
4022,61.0,4.0,120.0,3.0,0.0
4023,61.0,29.0,30.0,13.0,0.0
4024,49.0,11.0,120.0,14.0,0.0
4025,85.0,2.0,30.0,10.0,0.0
4026,73.0,4.0,30.0,11.0,0.0
4027,73.0,5.0,30.0,12.0,0.0
4028,61.0,29.0,30.0,13.0,0.0
4029,85.0,2.0,30.0,10.0,0.0
4030,73.0,4.0,30.0,11.0,0.0
4031,73.0,5.0,30.0,12.0,0.0
4032,61.0,4.0,30.0,13.0,0.0
4033,84.0,2.0,30.0,10.0,0.0
4034,84.0,3.0,120.0,0.0,0.0
4035,72.0,4.0,30.0,11.0,0.0
4036,72.0,3.0,120.0,1.0,0.0
4037,72.0,5.0,30.0,12.0,0.0
4038,72.0,4.0,120.0,2.0,0.0
4039,60.0,4.0,120.0,3.0,0.0
4040,60.0,29.0,30.0,13.0,0.0
4041,48.0,11.0,120.0,14.0,0.0
4042,84.0,2.0,30.0,10.0,0.0
4043,72.0,4.0,30.0,11.0,0.0
4044,72.0,5.0,30.0,12.0,0.0
4045,60.0,29.0,30.0,13.0,0.0
4046,84.0,2.0,30.0,10.0,0.0
4047,72.0,4.0,30.0,11.0,0.0
4048,72.0,5.0,30.0,12.0,0.0
4049,60.0,4.0,30.0,13.0,0.0
4050,82.0,2.0,30.0,10.0,0.0
4051,82.0,3.0,120.0,0.0,0.0
4052,70.0,4.0,30.0,11.0,0.0
4053,70.0,3.0,120.0,1.0,0.0
4054,70.0,4.0,120.0,2.0,0.0
4055,70.0,5.0,30.0,12.0,0.0
4056,58.0,4.0,120.0,3.0,0.0
4057,58.0,29.0,30.0,13.0,0.0
4058,46.0,11.0,120.0,14.0,0.0
4059,82.0,2.0,30.0,10.0,0.0
4060,70.0,4.0,30.0,11.0,0.0
4061,70.0,5.0,30.0,12.0,0.0
4062,58.0,29.0,30.0,13.0,0.0
4063,82.0,2.0,30.0,10.0,0.0
4064,70.0,4.0,30.0,11.0,0.0
4065,70.0,5.0,30.0,12.0,0.0
4066,58.0,4.0,30.0,13.0,0.0
4067,80.0,2.0,30.0,10.0,0.0
4068,80.0,0.0,120.0,0.0,0.0
4069,68.0,4.0,30.0,11.0,0.0
4070,68.0,3.0,120.0,1.0,0.0
4071,68.0,5.0,30.0,12.0,0.0
4072,68.0,0.0,120.0,2.0,0.0
4073,56.0,1.0,120.0,3.0,0.0
4074,56.0,29.0,30.0,13.0,0.0
4075,44.0,26.0,120.0,14.0,0.0
4076,80.0,2.0,30.0,10.0,0.0
4077,68.0,4.0,30.0,11.0,0.0
4078,68.0,5.0,30.0,12.0,0.0
4079,56.0,29.0,30.0,13.0,0.0
4080,80.0,2.0,30.0,10.0,0.0
4081,68.0,1.0,30.0,11.0,0.0
4082,68.0,4.0,30.0,12.0,0.0
4083,56.0,3.0,30.0,13.0,0.0
4084,82.0,2.0,30.0,10.0,0.0
4085,82.0,3.0,120.0,0.0,0.0
4086,70.0,4.0,30.0,11.0,0.0
4087,70.0,3.0,120.0,1.0,0.0
4088,70.0,4.0,120.0,2.0,0.0
4089,70.0,5.0,30.0,12.0,0.0
4090,58.0,4.0,120.0,3.0,0.0
4091,58.0,29.0,30.0,13.0,0.0
4092,46.0,11.0,120.0,14.0,0.0
4093,82.0,2.0,30.0,10.0,0.0
4094,70.0,4.0,30.0,11.0,0.0
4095,70.0,5.0,30.0,12.0,0.0
4096,58.0,29.0,30.0,13.0,0.0
4097,82.0,2.0,30.0,10.0,0.0
4098,70.0,4.0,30.0,11.0,0.0
4099,70.0,5.0,30.0,12.0,0.0
4100,58.0,4.0,30.0,13.0,0.0
4101,80.0,2.0,30.0,10.0,0.0
4102,80.0,3.0,120.0,0.0,0.0
4103,68.0,4.0,30.0,11.0,0.0
4104,68.0,3.0,120.0,1.0,0.0
4105,68.0,4.0,120.0,2.0,0.0
4106,68.0,5.0,30.0,12.0,0.0
4107,56.0,4.0,120.0,3.0,0.0
4108,56.0,29.0,30.0,13.0,0.0
4109,44.0,11.0,120.0,14.0,0.0
4110,80.0,2.0,30.0,10.0,0.0
4111,68.0,4.0,30.0,11.0,0.0
4112,68.0,5.0,30.0,12.0,0.0
4113,56.0,29.0,30.0,13.0,0.0
4114,80.0,2.0,30.0,10.0,0.0
4115,68.0,4.0,30.0,11.0,0.0
4116,68.0,5.0,30.0,12.0,0.0
4117,56.0,4.0,30.0,13.0,0.0
4118,79.0,2.0,30.0,10.0,0.0
4119,79.0,3.0,120.0,0.0,0.0
4120,67.0,4.0,30.0,11.0,0.0
4121,67.0,3.0,120.0,1.0,0.0
4122,67.0,5.0,30.0,12.0,0.0
4123,67.0,4.0,120.0,2.0,0.0
4124,55.0,4.0,120.0,3.0,0.0
4125,55.0,29.0,30.0,13.0,0.0
4126,43.0,11.0,120.0,14.0,0.0
4127,79.0,2.0,30.0,10.0,0.0
4128,67.0,4.0,30.0,11.0,0.0
4129,67.0,5.0,30.0,12.0,0.0
4130,55.0,29.0,30.0,13.0,0.0
4131,79.0,2.0,30.0,10.0,0.0
4132,67.0,4.0,30.0,11.0,0.0
4133,67.0,5.0,30.0,12.0,0.0
4134,55.0,4.0,30.0,13.0,0.0
4135,77.0,2.0,30.0,10.0,0.0
4136,77.0,0.0,120.0,0.0,0.0
4137,65.0,4.0,30.0,11.0,0.0
4138,65.0,3.0,120.0,1.0,0.0
4139,65.0,4.0,120.0,2.0,0.0
4140,65.0,5.0,30.0,12.0,0.0
4141,53.0,1.0,120.0,3.0,0.0
4142,53.0,29.0,30.0,13.0,0.0
4143,41.0,26.0,120.0,14.0,0.0
4144,77.0,2.0,30.0,10.0,0.0
4145,65.0,4.0,30.0,11.0,0.0
4146,65.0,5.0,30.0,12.0,0.0
4147,53.0,29.0,30.0,13.0,0.0
4148,77.0,2.0,30.0,10.0,0.0
4149,65.0,1.0,30.0,11.0,0.0
4150,65.0,0.0,30.0,12.0,0.0
4151,53.0,3.0,30.0,13.0,0.0
4152,79.0,2.0,30.0,10.0,0.0
4153,79.0,3.0,120.0,0.0,0.0
4154,67.0,4.0,30.0,11.0,0.0
4155,67.0,3.0,120.0,1.0,0.0
4156,67.0,5.0,30.0,12.0,0.0
4157,67.0,4.0,120.0,2.0,0.0
4158,55.0,4.0,120.0,3.0,0.0
4159,55.0,29.0,30.0,13.0,0.0
4160,43.0,11.0,120.0,14.0,0.0
4161,79.0,2.0,30.0,10.0,0.0
4162,67.0,4.0,30.0,11.0,0.0
4163,67.0,5.0,30.0,12.0,0.0
4164,55.0,29.0,30.0,13.0,0.0
4165,79.0,2.0,30.0,10.0,0.0
4166,67.0,4.0,30.0,11.0,0.0
4167,67.0,5.0,30.0,12.0,0.0
4168,55.0,4.0,30.0,13.0,0.0
4169,77.0,2.0,30.0,10.0,0.0
4170,77.0,2.0,120.0,0.0,0.0
4171,65.0,4.0,30.0,11.0,0.0
4172,65.0,1.0,120.0,1.0,0.0
4173,41.0,0.0,120.0,4.0,0.0
4174,53.0,2.0,120.0,4.0,0.0
4175,65.0,4.0,120.0,2.0,0.0
4176,65.0,5.0,30.0,12.0,0.0
4177,53.0,1.0,120.0,3.0,0.0
4178,53.0,29.0,30.0,13.0,0.0
4179,41.0,26.0,120.0,14.0,0.0
4180,77.0,2.0,30.0,10.0,0.0
4181,65.0,4.0,30.0,11.0,0.0
4182,65.0,5.0,30.0,12.0,0.0
4183,53.0,29.0,30.0,13.0,0.0
4184,77.0,0.0,30.0,10.0,0.0
4185,65.0,1.0,30.0,11.0,0.0
4186,65.0,0.0,30.0,12.0,0.0
4187,53.0,3.0,30.0,13.0,0.0
4188,75.0,2.0,30.0,10.0,0.0
4189,63.0,4.0,30.0,11.0,0.0
4190,41.0,0.0,240.0,4.0,0.0
4191,53.0,2.0,240.0,4.0,0.0
4192,63.0,5.0,30.0,12.0,0.0
4193,51.0,29.0,30.0,13.0,0.0
4194,39.0,26.0,120.0,14.0,0.0
4195,75.0,2.0,30.0,10.0,0.0
4196,63.0,4.0,30.0,11.0,0.0
4197,63.0,5.0,30.0,12.0,0.0
4198,51.0,29.0,30.0,13.0,0.0
4199,75.0,2.0,30.0,10.0,0.0
4200,63.0,4.0,30.0,11.0,0.0
4201,63.0,5.0,30.0,12.0,0.0
4202,51.0,3.0,30.0,13.0,0.0
4203,73.0,2.0,30.0,10.0,0.0
4204,61.0,4.0,30.0,11.0,0.0
4205,61.0,5.0,30.0,12.0,0.0
4206,49.0,29.0,30.0,13.0,0.0
4207,37.0,26.0,120.0,14.0,0.0
4208,73.0,2.0,30.0,10.0,0.0
4209,61.0,4.0,30.0,11.0,0.0
4210,61.0,5.0,30.0,12.0,0.0
4211,49.0,29.0,30.0,13.0,0.0
4212,73.0,2.0,30.0,10.0,0.0
4213,61.0,2.0,30.0,11.0,0.0
4214,61.0,5.0,30.0,12.0,0.0
4215,49.0,3.0,30.0,13.0,0.0
4216,72.0,2.0,30.0,10.0,0.0
4217,60.0,4.0,30.0,11.0,0.0
4218,53.0,2.0,120.0,4.0,0.0
4219,41.0,0.0,120.0,4.0,0.0
4220,60.0,5.0,30.0,12.0,0.0
4221,48.0,29.0,30.0,13.0,0.0
4222,36.0,60.0,120.0,14.0,0.0
4223,72.0,2.0,30.0,10.0,0.0
4224,60.0,4.0,30.0,11.0,0.0
4225,60.0,5.0,30.0,12.0,0.0
4226,48.0,14.0,30.0,13.0,0.0
4227,80.0,3.0,30.0,0.0,0.0
4228,80.0,0.0,30.0,1.0,0.0
4229,68.0,3.0,30.0,1.0,0.0
4230,80.0,4.0,30.0,2.0,0.0
4231,68.0,0.0,30.0,2.0,0.0
4232,56.0,5.0,30.0,3.0,0.0
4233,72.0,2.0,30.0,10.0,0.0
4234,60.0,2.0,30.0,11.0,0.0
4235,60.0,5.0,30.0,12.0,0.0
4236,48.0,3.0,30.0,13.0,0.0
4237,71.0,1.0,60.0,10.0,0.0
4238,79.0,2.0,60.0,0.0,0.0
4239,59.0,1.0,60.0,11.0,0.0
4240,79.0,0.0,60.0,1.0,0.0
4241,67.0,1.0,60.0,1.0,0.0
4242,62.0,2.0,60.0,4.0,0.0
4243,53.0,0.0,60.0,4.0,0.0
4244,59.0,0.0,60.0,12.0,0.0
4245,67.0,1.0,60.0,2.0,0.0
4246,79.0,0.0,60.0,2.0,0.0
4247,55.0,0.0,60.0,5.0,0.0
4248,43.0,3.0,60.0,5.0,0.0
4249,55.0,1.0,60.0,3.0,0.0
4250,47.0,3.0,60.0,13.0,0.0
4251,35.0,26.0,60.0,14.0,0.0
4252,77.0,3.0,30.0,0.0,0.0
4253,65.0,3.0,30.0,1.0,0.0
4254,77.0,0.0,30.0,1.0,0.0
4255,65.0,4.0,30.0,2.0,0.0
4256,77.0,0.0,30.0,2.0,0.0
4257,53.0,40.0,30.0,3.0,0.0
4258,74.0,3.0,30.0,0.0,0.0
4259,62.0,0.0,30.0,1.0,0.0
4260,74.0,3.0,30.0,1.0,0.0
4261,74.0,4.0,30.0,2.0,0.0
4262,62.0,0.0,30.0,2.0,0.0
4263,50.0,49.0,30.0,3.0,0.0
4264,68.0,1.0,30.0,10.0,0.0
4265,72.0,2.0,30.0,0.0,0.0
4266,56.0,1.0,30.0,11.0,0.0
4267,72.0,1.0,30.0,1.0,0.0
4268,60.0,0.0,30.0,1.0,0.0
4269,53.0,0.0,30.0,4.0,0.0
4270,50.0,2.0,30.0,4.0,0.0
4271,56.0,0.0,30.0,12.0,0.0
4272,60.0,4.0,30.0,2.0,0.0
4273,72.0,0.0,30.0,2.0,0.0
4274,48.0,1.0,30.0,3.0,0.0
4275,44.0,3.0,30.0,13.0,0.0
4276,32.0,75.0,30.0,14.0,0.0
4277,67.0,1.0,60.0,10.0,0.0
4278,71.0,2.0,60.0,0.0,0.0
4279,55.0,1.0,60.0,11.0,0.0
4280,71.0,1.0,60.0,1.0,0.0
4281,59.0,0.0,60.0,1.0,0.0
4282,53.0,2.0,60.0,4.0,0.0
4283,50.0,0.0,60.0,4.0,0.0
4284,71.0,4.0,60.0,2.0,0.0
4285,55.0,0.0,60.0,12.0,0.0
4286,59.0,0.0,60.0,2.0,0.0
4287,47.0,1.0,60.0,3.0,0.0
4288,43.0,3.0,60.0,13.0,0.0
4289,31.0,26.0,60.0,14.0,0.0
4290,74.0,3.0,30.0,0.0,0.0
4291,74.0,3.0,30.0,1.0,0.0
4292,62.0,0.0,30.0,1.0,0.0
4293,74.0,4.0,30.0,2.0,0.0
4294,62.0,0.0,30.0,2.0,0.0
4295,50.0,40.0,30.0,3.0,0.0
4296,77.0,3.0,30.0,0.0,0.0
4297,77.0,0.0,30.0,1.0,0.0
4298,65.0,3.0,30.0,1.0,0.0
4299,77.0,4.0,30.0,2.0,0.0
4300,65.0,0.0,30.0,2.0,0.0
4301,53.0,49.0,30.0,3.0,0.0
4302,72.0,1.0,30.0,10.0,0.0
4303,80.0,2.0,30.0,0.0,0.0
4304,60.0,1.0,30.0,11.0,0.0
4305,68.0,1.0,30.0,1.0,0.0
4306,80.0,0.0,30.0,1.0,0.0
4307,62.0,2.0,30.0,4.0,0.0
4308,53.0,0.0,30.0,4.0,0.0
4309,68.0,0.0,30.0,2.0,0.0
4310,60.0,4.0,30.0,12.0,0.0
4311,80.0,0.0,30.0,2.0,0.0
4312,56.0,1.0,30.0,3.0,0.0
4313,48.0,3.0,30.0,13.0,0.0
4314,36.0,75.0,30.0,14.0,0.0
4315,71.0,1.0,60.0,10.0,0.0
4316,79.0,2.0,60.0,0.0,0.0
4317,59.0,1.0,60.0,11.0,0.0
4318,79.0,0.0,60.0,1.0,0.0
4319,67.0,1.0,60.0,1.0,0.0
4320,53.0,2.0,60.0,4.0,0.0
4321,62.0,0.0,60.0,4.0,0.0
4322,79.0,1.0,60.0,2.0,0.0
4323,67.0,0.0,60.0,2.0,0.0
4324,59.0,0.0,60.0,12.0,0.0
4325,43.0,0.0,60.0,5.0,0.0
4326,55.0,3.0,60.0,5.0,0.0
4327,55.0,1.0,60.0,3.0,0.0
4328,47.0,3.0,60.0,13.0,0.0
4329,35.0,26.0,60.0,14.0,0.0
4330,77.0,3.0,30.0,0.0,0.0
4331,65.0,0.0,30.0,1.0,0.0
4332,77.0,3.0,30.0,1.0,0.0
4333,77.0,4.0,30.0,2.0,0.0
4334,65.0,0.0,30.0,2.0,0.0
4335,53.0,40.0,30.0,3.0,0.0
4336,74.0,3.0,30.0,0.0,0.0
4337,74.0,3.0,30.0,1.0,0.0
4338,62.0,0.0,30.0,1.0,0.0
4339,62.0,0.0,30.0,2.0,0.0
4340,74.0,4.0,30.0,2.0,0.0
4341,50.0,49.0,30.0,3.0,0.0
4342,68.0,1.0,30.0,10.0,0.0
4343,72.0,2.0,30.0,0.0,0.0
4344,56.0,1.0,30.0,11.0,0.0
4345,72.0,0.0,30.0,1.0,0.0
4346,60.0,1.0,30.0,1.0,0.0
4347,53.0,2.0,30.0,4.0,0.0
4348,50.0,0.0,30.0,4.0,0.0
4349,56.0,4.0,30.0,12.0,0.0
4350,72.0,0.0,30.0,2.0,0.0
4351,60.0,0.0,30.0,2.0,0.0
4352,48.0,1.0,30.0,3.0,0.0
4353,44.0,3.0,30.0,13.0,0.0
4354,32.0,75.0,30.0,14.0,0.0
4355,67.0,1.0,60.0,10.0,0.0
4356,71.0,2.0,60.0,0.0,0.0
4357,55.0,1.0,60.0,11.0,0.0
4358,71.0,1.0,60.0,1.0,0.0
4359,59.0,0.0,60.0,1.0,0.0
4360,50.0,0.0,60.0,4.0,0.0
4361,53.0,2.0,60.0,4.0,0.0
4362,71.0,0.0,60.0,2.0,0.0
4363,59.0,0.0,60.0,2.0,0.0
4364,55.0,4.0,60.0,12.0,0.0
4365,47.0,1.0,60.0,3.0,0.0
4366,43.0,3.0,60.0,13.0,0.0
4367,31.0,26.0,60.0,14.0,0.0
4368,74.0,3.0,30.0,0.0,0.0
4369,74.0,3.0,30.0,1.0,0.0
4370,62.0,0.0,30.0,1.0,0.0
4371,74.0,0.0,30.0,2.0,0.0
4372,62.0,4.0,30.0,2.0,0.0
4373,50.0,40.0,30.0,3.0,0.0
4374,77.0,3.0,30.0,0.0,0.0
4375,77.0,3.0,30.0,1.0,0.0
4376,65.0,0.0,30.0,1.0,0.0
4377,77.0,0.0,30.0,2.0,0.0
4378,65.0,4.0,30.0,2.0,0.0
4379,53.0,49.0,30.0,3.0,0.0
4380,86.0,1.0,30.0,10.0,0.0
4381,77.0,2.0,30.0,0.0,0.0
4382,74.0,1.0,30.0,11.0,0.0
4383,77.0,3.0,30.0,1.0,0.0
4384,65.0,0.0,30.0,1.0,0.0
4385,53.0,0.0,30.0,12.0,0.0
4386,77.0,0.0,30.0,2.0,0.0
4387,65.0,1.0,30.0,2.0,0.0
4388,67.0,0.0,30.0,5.0,0.0
4389,55.0,3.0,30.0,5.0,0.0
4390,53.0,1.0,30.0,3.0,0.0
4391,41.0,3.0,30.0,13.0,0.0
4392,29.0,75.0,30.0,14.0,0.0
4393,84.0,1.0,60.0,10.0,0.0
4394,76.0,2.0,60.0,0.0,0.0
4395,72.0,1.0,60.0,11.0,0.0
4396,64.0,0.0,60.0,1.0,0.0
4397,76.0,1.0,60.0,1.0,0.0
4398,60.0,2.0,60.0,4.0,0.0
4399,64.0,0.0,60.0,2.0,0.0
4400,52.0,0.0,60.0,12.0,0.0
4401,76.0,1.0,60.0,2.0,0.0
4402,58.0,3.0,60.0,5.0,0.0
4403,67.0,0.0,60.0,5.0,0.0
4404,52.0,1.0,60.0,3.0,0.0
4405,40.0,3.0,60.0,13.0,0.0
4406,28.0,25.0,60.0,14.0,0.0
4407,82.0,3.0,30.0,10.0,0.0
4408,70.0,47.0,30.0,11.0,0.0
4409,79.0,3.0,30.0,10.0,0.0
4410,67.0,57.0,30.0,11.0,0.0
4411,77.0,1.0,30.0,10.0,0.0
4412,79.0,0.0,30.0,0.0,0.0
4413,82.0,2.0,30.0,0.0,0.0
4414,65.0,1.0,30.0,11.0,0.0
4415,70.0,0.0,30.0,1.0,0.0
4416,67.0,3.0,30.0,1.0,0.0
4417,70.0,0.0,30.0,2.0,0.0
4418,62.0,0.0,30.0,12.0,0.0
4419,67.0,1.0,30.0,2.0,0.0
4420,58.0,3.0,30.0,5.0,0.0
4421,55.0,0.0,30.0,5.0,0.0
4422,50.0,0.0,30.0,3.0,0.0
4423,62.0,1.0,30.0,3.0,0.0
4424,50.0,3.0,30.0,13.0,0.0
4425,38.0,75.0,30.0,14.0,0.0
4426,76.0,1.0,60.0,10.0,0.0
4427,82.0,0.0,60.0,0.0,0.0
4428,79.0,2.0,60.0,0.0,0.0
4429,64.0,1.0,60.0,11.0,0.0
4430,70.0,3.0,60.0,1.0,0.0
4431,67.0,0.0,60.0,1.0,0.0
4432,70.0,1.0,60.0,2.0,0.0
4433,67.0,0.0,60.0,2.0,0.0
4434,60.0,0.0,60.0,12.0,0.0
4435,58.0,3.0,60.0,5.0,0.0
4436,55.0,0.0,60.0,5.0,0.0
4437,48.0,1.0,60.0,3.0,0.0
4438,60.0,0.0,60.0,3.0,0.0
4439,48.0,3.0,60.0,13.0,0.0
4440,36.0,25.0,60.0,14.0,0.0
4441,79.0,3.0,30.0,10.0,0.0
4442,67.0,47.0,30.0,11.0,0.0
4443,82.0,3.0,30.0,10.0,0.0
4444,70.0,57.0,30.0,11.0,0.0
4445,86.0,1.0,30.0,10.0,0.0
4446,79.0,0.0,30.0,0.0,0.0
4447,82.0,2.0,30.0,0.0,0.0
4448,74.0,1.0,30.0,11.0,0.0
4449,67.0,0.0,30.0,1.0,0.0
4450,70.0,3.0,30.0,1.0,0.0
4451,67.0,0.0,30.0,2.0,0.0
4452,70.0,0.0,30.0,2.0,0.0
4453,53.0,1.0,30.0,12.0,0.0
4454,58.0,0.0,30.0,5.0,0.0
4455,67.0,3.0,30.0,5.0,0.0
4456,41.0,0.0,30.0,3.0,0.0
4457,53.0,1.0,30.0,3.0,0.0
4458,41.0,3.0,30.0,13.0,0.0
4459,29.0,75.0,30.0,14.0,0.0
4460,84.0,1.0,60.0,10.0,0.0
4461,79.0,0.0,60.0,0.0,0.0
4462,82.0,2.0,60.0,0.0,0.0
4463,72.0,1.0,60.0,11.0,0.0
4464,67.0,0.0,60.0,1.0,0.0
4465,70.0,1.0,60.0,1.0,0.0
4466,60.0,2.0,60.0,4.0,0.0
4467,52.0,1.0,60.0,12.0,0.0
4468,70.0,0.0,60.0,2.0,0.0
4469,67.0,0.0,60.0,2.0,0.0
4470,58.0,3.0,60.0,5.0,0.0
4471,67.0,0.0,60.0,5.0,0.0
4472,40.0,1.0,60.0,3.0,0.0
4473,52.0,0.0,60.0,3.0,0.0
4474,40.0,3.0,60.0,13.0,0.0
4475,28.0,25.0,60.0,14.0,0.0
4476,82.0,3.0,30.0,10.0,0.0
4477,70.0,47.0,30.0,11.0,0.0
4478,79.0,3.0,30.0,10.0,0.0
4479,67.0,57.0,30.0,11.0,0.0
4480,77.0,1.0,30.0,10.0,0.0
4481,82.0,2.0,30.0,0.0,0.0
4482,79.0,0.0,30.0,0.0,0.0
4483,65.0,1.0,30.0,11.0,0.0
4484,67.0,0.0,30.0,1.0,0.0
4485,70.0,3.0,30.0,1.0,0.0
4486,67.0,0.0,30.0,2.0,0.0
4487,70.0,0.0,30.0,2.0,0.0
4488,62.0,1.0,30.0,12.0,0.0
4489,55.0,0.0,30.0,5.0,0.0
4490,58.0,3.0,30.0,5.0,0.0
4491,50.0,1.0,30.0,3.0,0.0
4492,62.0,0.0,30.0,3.0,0.0
4493,50.0,3.0,30.0,13.0,0.0
4494,38.0,75.0,30.0,14.0,0.0
4495,76.0,1.0,60.0,10.0,0.0
4496,79.0,2.0,60.0,0.0,0.0
4497,82.0,0.0,60.0,0.0,0.0
4498,64.0,1.0,60.0,11.0,0.0
4499,67.0,0.0,60.0,1.0,0.0
4500,70.0,3.0,60.0,1.0,0.0
4501,60.0,1.0,60.0,12.0,0.0
4502,70.0,0.0,60.0,2.0,0.0
4503,67.0,0.0,60.0,2.0,0.0
4504,58.0,3.0,60.0,5.0,0.0
4505,55.0,0.0,60.0,5.0,0.0
4506,60.0,1.0,60.0,3.0,0.0
4507,48.0,0.0,60.0,3.0,0.0
4508,48.0,3.0,60.0,13.0,0.0
4509,36.0,25.0,60.0,14.0,0.0
4510,79.0,3.0,30.0,10.0,0.0
4511,67.0,47.0,30.0,11.0,0.0
4512,82.0,3.0,30.0,10.0,0.0
4513,70.0,57.0,30.0,11.0,0.0
4514,88.0,1.0,30.0,10.0,0.0
4515,79.0,0.0,30.0,0.0,0.0
4516,76.0,2.0,30.0,0.0,0.0
4517,76.0,1.0,30.0,11.0,0.0
4518,64.0,1.0,30.0,1.0,0.0
4519,67.0,0.0,30.0,1.0,0.0
4520,60.0,2.0,30.0,4.0,0.0
4521,58.0,0.0,30.0,12.0,0.0
4522,67.0,0.0,30.0,2.0,0.0
4523,64.0,1.0,30.0,2.0,0.0
4524,60.0,0.0,30.0,5.0,0.0
4525,48.0,3.0,30.0,5.0,0.0
4526,58.0,1.0,30.0,3.0,0.0
4527,46.0,0.0,30.0,3.0,0.0
4528,46.0,3.0,30.0,13.0,0.0
4529,34.0,75.0,30.0,14.0,0.0
4530,89.0,1.0,60.0,10.0,0.0
4531,77.0,2.0,60.0,0.0,0.0
4532,84.0,0.0,60.0,0.0,0.0
4533,77.0,1.0,60.0,11.0,0.0
4534,72.0,1.0,60.0,1.0,0.0
4535,65.0,0.0,60.0,1.0,0.0
4536,53.0,2.0,60.0,4.0,0.0
4537,65.0,0.0,60.0,4.0,0.0
4538,57.0,1.0,60.0,12.0,0.0
4539,72.0,0.0,60.0,2.0,0.0
4540,65.0,0.0,60.0,2.0,0.0
4541,48.0,3.0,60.0,5.0,0.0
4542,60.0,0.0,60.0,5.0,0.0
4543,57.0,0.0,60.0,3.0,0.0
4544,45.0,1.0,60.0,3.0,0.0
4545,45.0,3.0,60.0,13.0,0.0
4546,33.0,77.0,60.0,14.0,0.0
4547,85.0,3.0,210.0,10.0,0.0
4548,81.0,3.0,240.0,0.0,0.0
4549,85.0,0.0,240.0,0.0,0.0
4550,81.0,3.0,210.0,11.0,0.0
4551,73.0,0.0,240.0,1.0,0.0
4552,69.0,3.0,240.0,1.0,0.0
4553,69.0,40.0,30.0,12.0,0.0
4554,73.0,0.0,30.0,12.0,0.0
4555,69.0,4.0,240.0,2.0,0.0
4556,73.0,0.0,240.0,2.0,0.0
4557,57.0,31.0,240.0,3.0,0.0
4558,61.0,0.0,240.0,3.0,0.0
4559,73.0,0.0,30.0,12.0,0.0
4560,69.0,40.0,30.0,12.0,0.0
4561,69.0,0.0,30.0,12.0,0.0
4562,73.0,40.0,30.0,12.0,0.0
4563,69.0,0.0,30.0,12.0,0.0
4564,73.0,40.0,30.0,12.0,0.0
4565,73.0,28.0,30.0,12.0,0.0
4566,69.0,0.0,30.0,12.0,0.0
4567,73.0,0.0,30.0,12.0,0.0
4568,69.0,0.0,30.0,12.0,0.0
4569,86.0,1.0,30.0,10.0,0.0
4570,82.0,0.0,120.0,0.0,0.0
4571,86.0,3.0,120.0,0.0,0.0
4572,82.0,4.0,30.0,11.0,0.0
4573,74.0,3.0,120.0,1.0,0.0
4574,70.0,0.0,120.0,1.0,0.0
4575,50.0,0.0,240.0,4.0,0.0
4576,62.0,2.0,240.0,4.0,0.0
4577,70.0,0.0,120.0,2.0,0.0
4578,74.0,4.0,120.0,2.0,0.0
4579,74.0,35.0,30.0,12.0,0.0
4580,70.0,0.0,30.0,12.0,0.0
4581,58.0,0.0,120.0,3.0,0.0
4582,62.0,1.0,120.0,3.0,0.0
4583,54.0,3.0,120.0,13.0,0.0
4584,42.0,12.0,120.0,14.0,0.0
4585,86.0,1.0,30.0,10.0,0.0
4586,82.0,4.0,30.0,11.0,0.0
4587,70.0,0.0,30.0,12.0,0.0
4588,74.0,35.0,30.0,12.0,0.0
4589,86.0,1.0,30.0,10.0,0.0
4590,82.0,4.0,30.0,11.0,0.0
4591,74.0,9.0,30.0,12.0,0.0
4592,70.0,0.0,30.0,12.0,0.0
4593,84.0,1.0,30.0,10.0,0.0
4594,81.0,3.0,120.0,0.0,0.0
4595,84.0,0.0,120.0,0.0,0.0
4596,81.0,4.0,30.0,11.0,0.0
4597,72.0,1.0,120.0,1.0,0.0
4598,69.0,0.0,120.0,1.0,0.0
4599,69.0,0.0,30.0,12.0,0.0
4600,72.0,35.0,30.0,12.0,0.0
4601,69.0,4.0,120.0,2.0,0.0
4602,72.0,0.0,120.0,2.0,0.0
4603,60.0,16.0,120.0,3.0,0.0
4604,57.0,0.0,120.0,3.0,0.0
4605,55.0,3.0,360.0,13.0,0.0
4606,43.0,27.0,360.0,14.0,0.0
4607,84.0,1.0,30.0,10.0,0.0
4608,81.0,4.0,30.0,11.0,0.0
4609,72.0,0.0,30.0,12.0,0.0
4610,69.0,35.0,30.0,12.0,0.0
4611,84.0,1.0,30.0,10.0,0.0
4612,81.0,4.0,30.0,11.0,0.0
4613,72.0,9.0,30.0,12.0,0.0
4614,69.0,0.0,30.0,12.0,0.0
4615,82.0,1.0,30.0,10.0,0.0
4616,82.0,3.0,120.0,0.0,0.0
4617,79.0,0.0,120.0,0.0,0.0
4618,79.0,4.0,30.0,11.0,0.0
4619,70.0,0.0,120.0,1.0,0.0
4620,67.0,3.0,120.0,1.0,0.0
4621,67.0,0.0,120.0,2.0,0.0
4622,67.0,0.0,30.0,12.0,0.0
4623,70.0,35.0,30.0,12.0,0.0
4624,70.0,4.0,120.0,2.0,0.0
4625,58.0,16.0,120.0,3.0,0.0
4626,55.0,0.0,120.0,3.0,0.0
4627,82.0,1.0,30.0,10.0,0.0
4628,79.0,4.0,30.0,11.0,0.0
4629,70.0,35.0,30.0,12.0,0.0
4630,67.0,0.0,30.0,12.0,0.0
4631,82.0,1.0,30.0,10.0,0.0
4632,79.0,4.0,30.0,11.0,0.0
4633,67.0,9.0,30.0,12.0,0.0
4634,70.0,0.0,30.0,12.0,0.0
4635,81.0,1.0,30.0,10.0,0.0
4636,78.0,1.0,120.0,0.0,0.0
4637,81.0,0.0,120.0,0.0,0.0
4638,78.0,4.0,30.0,11.0,0.0
4639,69.0,3.0,120.0,1.0,0.0
4640,66.0,0.0,120.0,1.0,0.0
4641,69.0,0.0,120.0,2.0,0.0
4642,66.0,4.0,120.0,2.0,0.0
4643,69.0,0.0,30.0,12.0,0.0
4644,66.0,35.0,30.0,12.0,0.0
4645,54.0,0.0,120.0,3.0,0.0
4646,57.0,1.0,120.0,3.0,0.0
4647,81.0,1.0,30.0,10.0,0.0
4648,78.0,4.0,30.0,11.0,0.0
4649,66.0,0.0,30.0,12.0,0.0
4650,69.0,34.0,30.0,12.0,0.0
4651,81.0,1.0,30.0,10.0,0.0
4652,78.0,1.0,30.0,11.0,0.0
4653,66.0,0.0,30.0,12.0,0.0
4654,69.0,0.0,30.0,12.0,0.0
4655,82.0,1.0,30.0,10.0,0.0
4656,79.0,0.0,120.0,0.0,0.0
4657,82.0,3.0,120.0,0.0,0.0
4658,79.0,4.0,30.0,11.0,0.0
4659,70.0,3.0,120.0,1.0,0.0
4660,67.0,0.0,120.0,1.0,0.0
4661,46.0,0.0,240.0,4.0,0.0
4662,58.0,2.0,240.0,4.0,0.0
4663,70.0,0.0,120.0,2.0,0.0
4664,67.0,4.0,120.0,2.0,0.0
4665,67.0,0.0,30.0,12.0,0.0
4666,70.0,35.0,30.0,12.0,0.0
4667,55.0,0.0,120.0,3.0,0.0
4668,58.0,1.0,120.0,3.0,0.0
4669,50.0,3.0,120.0,13.0,0.0
4670,38.0,12.0,120.0,14.0,0.0
4671,82.0,1.0,30.0,10.0,0.0
4672,79.0,4.0,30.0,11.0,0.0
4673,67.0,0.0,30.0,12.0,0.0
4674,70.0,35.0,30.0,12.0,0.0
4675,82.0,1.0,30.0,10.0,0.0
4676,79.0,4.0,30.0,11.0,0.0
4677,70.0,9.0,30.0,12.0,0.0
4678,67.0,0.0,30.0,12.0,0.0
4679,81.0,1.0,30.0,10.0,0.0
4680,77.0,3.0,120.0,0.0,0.0
4681,81.0,0.0,120.0,0.0,0.0
4682,77.0,4.0,30.0,11.0,0.0
4683,65.0,1.0,120.0,1.0,0.0
4684,69.0,0.0,120.0,1.0,0.0
4685,69.0,0.0,30.0,12.0,0.0
4686,65.0,0.0,120.0,2.0,0.0
4687,69.0,4.0,120.0,2.0,0.0
4688,65.0,35.0,30.0,12.0,0.0
4689,53.0,0.0,120.0,3.0,0.0
4690,57.0,16.0,120.0,3.0,0.0
4691,51.0,3.0,360.0,13.0,0.0
4692,39.0,62.0,360.0,14.0,0.0
4693,81.0,1.0,30.0,10.0,0.0
4694,77.0,4.0,30.0,11.0,0.0
4695,65.0,0.0,30.0,12.0,0.0
4696,69.0,35.0,30.0,12.0,0.0
4697,81.0,1.0,30.0,10.0,0.0
4698,77.0,4.0,30.0,11.0,0.0
4699,69.0,9.0,30.0,12.0,0.0
4700,65.0,0.0,30.0,12.0,0.0
4701,79.0,1.0,30.0,10.0,0.0
4702,79.0,0.0,120.0,0.0,0.0
4703,75.0,3.0,120.0,0.0,0.0
4704,75.0,4.0,30.0,11.0,0.0
4705,67.0,3.0,120.0,1.0,0.0
4706,63.0,0.0,120.0,1.0,0.0
4707,67.0,0.0,30.0,12.0,0.0
4708,63.0,35.0,30.0,12.0,0.0
4709,67.0,0.0,120.0,2.0,0.0
4710,63.0,4.0,120.0,2.0,0.0
4711,55.0,16.0,120.0,3.0,0.0
4712,51.0,0.0,120.0,3.0,0.0
4713,79.0,1.0,30.0,10.0,0.0
4714,75.0,4.0,30.0,11.0,0.0
4715,67.0,35.0,30.0,12.0,0.0
4716,63.0,0.0,30.0,12.0,0.0
4717,79.0,1.0,30.0,10.0,0.0
4718,75.0,4.0,30.0,11.0,0.0
4719,63.0,0.0,30.0,12.0,0.0
4720,67.0,9.0,30.0,12.0,0.0
4721,78.0,1.0,30.0,10.0,0.0
4722,78.0,0.0,120.0,0.0,0.0
4723,74.0,1.0,120.0,0.0,0.0
4724,74.0,4.0,30.0,11.0,0.0
4725,62.0,0.0,120.0,1.0,0.0
4726,66.0,3.0,120.0,1.0,0.0
4727,62.0,0.0,120.0,2.0,0.0
4728,66.0,0.0,120.0,2.0,0.0
4729,66.0,0.0,30.0,12.0,0.0
4730,62.0,35.0,30.0,12.0,0.0
4731,50.0,1.0,120.0,3.0,0.0
4732,54.0,0.0,120.0,3.0,0.0
4733,78.0,1.0,30.0,10.0,0.0
4734,74.0,4.0,30.0,11.0,0.0
4735,66.0,0.0,30.0,12.0,0.0
4736,62.0,34.0,30.0,12.0,0.0
4737,78.0,1.0,30.0,10.0,0.0
4738,74.0,1.0,30.0,11.0,0.0
4739,62.0,0.0,30.0,12.0,0.0
4740,66.0,4.0,30.0,12.0,0.0
4741,79.0,1.0,60.0,10.0,0.0
4742,75.0,2.0,60.0,11.0,0.0
4743,55.0,2.0,60.0,4.0,0.0
4744,63.0,0.0,60.0,12.0,0.0
4745,67.0,5.0,60.0,12.0,0.0
4746,47.0,3.0,60.0,13.0,0.0
4747,35.0,105.0,60.0,14.0,0.0
4748,77.0,3.0,60.0,10.0,0.0
4749,74.0,4.0,60.0,11.0,0.0
4750,62.0,5.0,60.0,12.0,0.0
4751,65.0,0.0,60.0,12.0,0.0
4752,48.0,3.0,60.0,13.0,0.0
4753,36.0,105.0,60.0,14.0,0.0
4754,75.0,3.0,60.0,10.0,0.0
4755,72.0,2.0,60.0,11.0,0.0
4756,60.0,2.0,60.0,4.0,0.0
4757,63.0,5.0,60.0,12.0,0.0
4758,60.0,0.0,60.0,12.0,0.0
4759,51.0,3.0,60.0,13.0,0.0
4760,39.0,105.0,60.0,14.0,0.0
4761,74.0,3.0,60.0,10.0,0.0
4762,70.0,2.0,60.0,11.0,0.0
4763,53.0,2.0,60.0,4.0,0.0
4764,58.0,0.0,60.0,12.0,0.0
4765,62.0,5.0,60.0,12.0,0.0
4766,53.0,3.0,60.0,13.0,0.0
4767,41.0,117.0,60.0,14.0,0.0
4768,80.0,3.0,90.0,0.0,0.0
4769,68.0,3.0,90.0,1.0,0.0
4770,80.0,0.0,90.0,1.0,0.0
4771,80.0,0.0,90.0,2.0,0.0
4772,68.0,4.0,90.0,2.0,0.0
4773,56.0,81.0,90.0,3.0,0.0
4774,38.0,3.0,60.0,13.0,0.0
4775,26.0,15.0,60.0,14.0,0.0
4776,72.0,3.0,30.0,10.0,0.0
4777,68.0,4.0,30.0,11.0,0.0
4778,65.0,4.0,30.0,12.0,0.0
4779,79.0,3.0,90.0,0.0,0.0
4780,67.0,3.0,90.0,1.0,0.0
4781,79.0,0.0,90.0,1.0,0.0
4782,67.0,0.0,90.0,2.0,0.0
4783,79.0,4.0,90.0,2.0,0.0
4784,55.0,81.0,90.0,3.0,0.0
4785,43.0,3.0,60.0,13.0,0.0
4786,31.0,15.0,60.0,14.0,0.0
4787,71.0,3.0,30.0,10.0,0.0
4788,62.0,4.0,30.0,11.0,0.0
4789,65.0,4.0,30.0,12.0,0.0
4790,77.0,3.0,90.0,0.0,0.0
4791,65.0,0.0,90.0,1.0,0.0
4792,77.0,3.0,90.0,1.0,0.0
4793,65.0,4.0,90.0,2.0,0.0
4794,77.0,0.0,90.0,2.0,0.0
4795,53.0,81.0,90.0,3.0,0.0
4796,50.0,3.0,60.0,13.0,0.0
4797,38.0,15.0,60.0,14.0,0.0
4798,68.0,3.0,30.0,10.0,0.0
4799,60.0,4.0,30.0,11.0,0.0
4800,65.0,4.0,30.0,12.0,0.0
4801,74.0,3.0,90.0,0.0,0.0
4802,62.0,3.0,90.0,1.0,0.0
4803,74.0,0.0,90.0,1.0,0.0
4804,74.0,4.0,90.0,2.0,0.0
4805,62.0,0.0,90.0,2.0,0.0
4806,50.0,81.0,90.0,3.0,0.0
4807,62.0,0.0,90.0,3.0,0.0
4808,55.0,3.0,60.0,13.0,0.0
4809,43.0,15.0,60.0,14.0,0.0
4810,67.0,3.0,30.0,10.0,0.0
4811,59.0,4.0,30.0,11.0,0.0
4812,65.0,4.0,30.0,12.0,0.0
4813,84.0,3.0,90.0,0.0,0.0
4814,72.0,3.0,90.0,1.0,0.0
4815,72.0,4.0,90.0,2.0,0.0
4816,60.0,81.0,90.0,3.0,0.0
4817,38.0,3.0,60.0,13.0,0.0
4818,26.0,15.0,60.0,14.0,0.0
4819,65.0,3.0,30.0,10.0,0.0
4820,56.0,4.0,30.0,11.0,0.0
4821,53.0,4.0,30.0,12.0,0.0
4822,83.0,3.0,90.0,0.0,0.0
4823,71.0,3.0,90.0,1.0,0.0
4824,71.0,4.0,90.0,2.0,0.0
4825,59.0,81.0,90.0,3.0,0.0
4826,43.0,3.0,60.0,13.0,0.0
4827,31.0,15.0,60.0,14.0,0.0
4828,62.0,3.0,30.0,10.0,0.0
4829,55.0,4.0,30.0,11.0,0.0
4830,53.0,4.0,30.0,12.0,0.0
4831,80.0,3.0,90.0,0.0,0.0
4832,68.0,3.0,90.0,1.0,0.0
4833,68.0,4.0,90.0,2.0,0.0
4834,56.0,81.0,90.0,3.0,0.0
4835,50.0,3.0,60.0,13.0,0.0
4836,38.0,15.0,60.0,14.0,0.0
4837,60.0,3.0,30.0,10.0,0.0
4838,53.0,4.0,30.0,11.0,0.0
4839,50.0,4.0,30.0,12.0,0.0
4840,79.0,3.0,90.0,0.0,0.0
4841,67.0,3.0,90.0,1.0,0.0
4842,67.0,4.0,90.0,2.0,0.0
4843,55.0,77.0,90.0,3.0,0.0
4844,55.0,3.0,60.0,13.0,0.0
4845,43.0,15.0,60.0,14.0,0.0
4846,59.0,3.0,30.0,10.0,0.0
4847,53.0,4.0,30.0,11.0,0.0
4848,50.0,4.0,30.0,12.0,0.0
4849,58.0,0.0,240.0,4.0,0.0
4850,43.0,4.0,60.0,5.0,0.0
4851,55.0,0.0,60.0,5.0,0.0
4852,43.0,3.0,60.0,13.0,0.0
4853,31.0,90.0,60.0,14.0,0.0
4854,86.0,3.0,120.0,10.0,0.0
4855,82.0,0.0,180.0,0.0,0.0
4856,86.0,3.0,120.0,0.0,0.0
4857,65.0,4.0,120.0,11.0,0.0
4858,74.0,0.0,120.0,11.0,0.0
4859,70.0,0.0,180.0,1.0,0.0
4860,74.0,3.0,120.0,1.0,0.0
4861,65.0,1.0,120.0,2.0,0.0
4862,58.0,9.0,120.0,12.0,0.0
4863,77.0,0.0,120.0,2.0,0.0
4864,70.0,0.0,120.0,12.0,0.0
4865,53.0,0.0,120.0,3.0,0.0
4866,62.0,1.0,120.0,3.0,0.0
4867,60.0,3.0,60.0,5.0,0.0
4868,48.0,0.0,60.0,5.0,0.0
4869,48.0,3.0,60.0,13.0,0.0
4870,36.0,46.0,60.0,14.0,0.0
4871,84.0,3.0,120.0,10.0,0.0
4872,84.0,3.0,60.0,0.0,0.0
4873,72.0,0.0,120.0,11.0,0.0
4874,64.0,4.0,120.0,11.0,0.0
4875,72.0,1.0,60.0,1.0,0.0
4876,76.0,4.0,60.0,2.0,0.0
4877,58.0,20.0,120.0,12.0,0.0
4878,70.0,0.0,120.0,12.0,0.0
4879,64.0,0.0,60.0,2.0,0.0
4880,60.0,34.0,60.0,3.0,0.0
4881,52.0,0.0,60.0,3.0,0.0
4882,55.0,2.0,15.0,4.0,0.0
4883,58.0,0.0,240.0,4.0,0.0
4884,55.0,3.0,60.0,13.0,0.0
4885,43.0,90.0,60.0,14.0,0.0
4886,82.0,3.0,120.0,10.0,0.0
4887,77.0,3.0,120.0,0.0,0.0
4888,82.0,0.0,120.0,0.0,0.0
4889,70.0,0.0,120.0,11.0,0.0
4890,62.0,4.0,120.0,11.0,0.0
4891,65.0,3.0,120.0,1.0,0.0
4892,70.0,0.0,120.0,1.0,0.0
4893,74.0,4.0,120.0,2.0,0.0
4894,65.0,9.0,120.0,12.0,0.0
4895,62.0,0.0,120.0,2.0,0.0
4896,62.0,0.0,120.0,3.0,0.0
4897,53.0,1.0,120.0,3.0,0.0
4898,60.0,3.0,60.0,13.0,0.0
4899,48.0,46.0,60.0,14.0,0.0
4900,79.0,3.0,120.0,10.0,0.0
4901,76.0,0.0,60.0,0.0,0.0
4902,79.0,3.0,60.0,0.0,0.0
4903,58.0,4.0,120.0,11.0,0.0
4904,67.0,0.0,120.0,11.0,0.0
4905,67.0,1.0,60.0,1.0,0.0
4906,64.0,0.0,60.0,1.0,0.0
4907,72.0,0.0,60.0,2.0,0.0
4908,60.0,4.0,60.0,2.0,0.0
4909,64.0,16.0,120.0,12.0,0.0
4910,60.0,34.0,60.0,3.0,0.0
4911,52.0,0.0,60.0,3.0,0.0
4912,55.0,2.0,15.0,4.0,0.0
4913,55.0,0.0,60.0,5.0,0.0
4914,43.0,4.0,60.0,5.0,0.0
4915,43.0,3.0,60.0,13.0,0.0
4916,31.0,90.0,60.0,14.0,0.0
4917,77.0,3.0,120.0,10.0,0.0
4918,77.0,3.0,120.0,0.0,0.0
4919,74.0,0.0,120.0,0.0,0.0
4920,62.0,0.0,120.0,11.0,0.0
4921,70.0,4.0,120.0,11.0,0.0
4922,65.0,3.0,120.0,1.0,0.0
4923,70.0,0.0,120.0,1.0,0.0
4924,65.0,9.0,120.0,12.0,0.0
4925,70.0,0.0,120.0,2.0,0.0
4926,58.0,1.0,120.0,2.0,0.0
4927,58.0,0.0,120.0,3.0,0.0
4928,48.0,3.0,60.0,5.0,0.0
4929,60.0,0.0,60.0,5.0,0.0
4930,48.0,3.0,60.0,13.0,0.0
4931,36.0,46.0,60.0,14.0,0.0
4932,76.0,3.0,120.0,10.0,0.0
4933,76.0,3.0,60.0,0.0,0.0
4934,70.0,0.0,60.0,0.0,0.0
4935,60.0,4.0,120.0,11.0,0.0
4936,70.0,0.0,120.0,11.0,0.0
4937,67.0,1.0,60.0,1.0,0.0
4938,64.0,0.0,60.0,1.0,0.0
4939,64.0,20.0,120.0,12.0,0.0
4940,67.0,4.0,60.0,2.0,0.0
4941,55.0,1.0,15.0,3.0,0.0
4942,48.0,0.0,60.0,3.0,0.0
4943,55.0,0.0,15.0,4.0,0.0
4944,58.0,2.0,15.0,4.0,0.0
4945,55.0,3.0,60.0,13.0,0.0
4946,43.0,90.0,60.0,14.0,0.0
4947,74.0,3.0,120.0,10.0,0.0
4948,74.0,3.0,120.0,0.0,0.0
4949,70.0,4.0,120.0,11.0,0.0
4950,62.0,0.0,120.0,11.0,0.0
4951,74.0,3.0,120.0,1.0,0.0
4952,70.0,0.0,120.0,1.0,0.0
4953,65.0,9.0,120.0,12.0,0.0
4954,65.0,4.0,120.0,2.0,0.0
4955,58.0,1.0,120.0,3.0,0.0
4956,60.0,3.0,60.0,13.0,0.0
4957,48.0,46.0,60.0,14.0,0.0
4958,70.0,3.0,120.0,10.0,0.0
4959,70.0,3.0,60.0,0.0,0.0
4960,67.0,4.0,120.0,11.0,0.0
4961,58.0,0.0,120.0,11.0,0.0
4962,67.0,1.0,60.0,1.0,0.0
4963,70.0,0.0,60.0,1.0,0.0
4964,64.0,4.0,60.0,2.0,0.0
4965,64.0,13.0,120.0,12.0,0.0
4966,55.0,0.0,15.0,3.0,0.0
4967,48.0,34.0,60.0,3.0,0.0
4968,60.0,3.0,60.0,4.0,0.0
4969,48.0,0.0,60.0,5.0,0.0
4970,60.0,4.0,60.0,5.0,0.0
4971,48.0,3.0,60.0,13.0,0.0
4972,36.0,30.0,60.0,14.0,0.0
4973,64.0,1.0,60.0,10.0,0.0
4974,76.0,2.0,60.0,0.0,0.0
4975,64.0,4.0,60.0,11.0,0.0
4976,58.0,43.0,60.0,12.0,0.0
4977,65.0,3.0,30.0,10.0,0.0
4978,77.0,7.0,60.0,0.0,0.0
4979,53.0,50.0,270.0,6.0,0.0
4980,65.0,0.0,270.0,6.0,0.0
4981,65.0,18.0,30.0,11.0,0.0
4982,65.0,0.0,360.0,1.0,0.0
4983,69.0,3.0,360.0,1.0,0.0
4984,53.0,5.0,30.0,4.0,0.0
4985,41.0,0.0,30.0,4.0,0.0
4986,69.0,4.0,360.0,2.0,0.0
4987,65.0,0.0,360.0,2.0,0.0
4988,57.0,0.0,360.0,12.0,0.0
4989,48.0,0.0,60.0,5.0,0.0
4990,60.0,27.0,60.0,5.0,0.0
4991,53.0,1.0,360.0,3.0,0.0
4992,41.0,31.0,240.0,15.0,0.0
4993,53.0,3.0,360.0,13.0,0.0
4994,41.0,12.0,360.0,14.0,0.0
4995,64.0,3.0,30.0,10.0,0.0
4996,76.0,34.0,60.0,0.0,0.0
4997,64.0,18.0,30.0,11.0,0.0
4998,41.0,0.0,30.0,4.0,0.0
4999,53.0,5.0,30.0,4.0,0.0
5000,65.0,3.0,30.0,10.0,0.0
5001,77.0,34.0,60.0,0.0,0.0
5002,65.0,18.0,30.0,11.0,0.0
5003,41.0,0.0,30.0,4.0,0.0
5004,53.0,5.0,30.0,4.0,0.0
5005,69.0,3.0,30.0,10.0,0.0
5006,81.0,26.0,60.0,0.0,0.0
5007,69.0,3.0,30.0,11.0,0.0
5008,53.0,0.0,30.0,4.0,0.0
5009,41.0,5.0,30.0,4.0,0.0
5010,65.0,3.0,270.0,10.0,0.0
5011,77.0,34.0,300.0,0.0,0.0
5012,65.0,2.0,270.0,11.0,0.0
5013,53.0,0.0,270.0,4.0,0.0
5014,41.0,16.0,270.0,4.0,0.0
5015,53.0,0.0,30.0,6.0,0.0
5016,65.0,16.0,30.0,6.0,0.0
5017,53.0,39.0,30.0,6.0,0.0
5018,65.0,0.0,30.0,6.0,0.0
5019,65.0,0.0,120.0,1.0,0.0
5020,69.0,3.0,120.0,1.0,0.0
5021,69.0,0.0,120.0,2.0,0.0
5022,65.0,4.0,120.0,2.0,0.0
5023,57.0,0.0,120.0,12.0,0.0
5024,53.0,1.0,120.0,3.0,0.0
5025,41.0,21.0,15.0,15.0,0.0
5026,53.0,3.0,120.0,13.0,0.0
5027,41.0,12.0,120.0,14.0,0.0
5028,53.0,16.0,30.0,6.0,0.0
5029,65.0,0.0,30.0,6.0,0.0
5030,41.0,28.0,60.0,15.0,0.0
5031,53.0,50.0,270.0,6.0,0.0
5032,65.0,0.0,270.0,6.0,0.0
5033,72.0,0.0,360.0,1.0,0.0
5034,69.0,3.0,360.0,1.0,0.0
5035,69.0,0.0,360.0,2.0,0.0
5036,57.0,0.0,360.0,12.0,0.0
5037,60.0,0.0,360.0,12.0,0.0
5038,60.0,4.0,360.0,2.0,0.0
5039,52.0,1.0,360.0,3.0,0.0
5040,52.0,3.0,360.0,13.0,0.0
5041,41.0,31.0,240.0,15.0,0.0
5042,40.0,12.0,360.0,14.0,0.0
5043,64.0,3.0,30.0,10.0,0.0
5044,76.0,34.0,60.0,0.0,0.0
5045,64.0,18.0,30.0,11.0,0.0
5046,53.0,5.0,30.0,4.0,0.0
5047,41.0,0.0,30.0,4.0,0.0
5048,65.0,3.0,30.0,10.0,0.0
5049,77.0,34.0,60.0,0.0,0.0
5050,65.0,18.0,30.0,11.0,0.0
5051,41.0,5.0,30.0,4.0,0.0
5052,53.0,0.0,30.0,4.0,0.0
5053,72.0,3.0,30.0,10.0,0.0
5054,84.0,26.0,60.0,0.0,0.0
5055,72.0,3.0,30.0,11.0,0.0
5056,41.0,5.0,30.0,4.0,0.0
5057,53.0,0.0,30.0,4.0,0.0
5058,65.0,3.0,270.0,10.0,0.0
5059,77.0,39.0,300.0,0.0,0.0
5060,65.0,18.0,270.0,11.0,0.0
5061,41.0,4.0,210.0,4.0,0.0
5062,53.0,0.0,210.0,4.0,0.0
5063,65.0,16.0,30.0,6.0,0.0
5064,53.0,0.0,30.0,6.0,0.0
5065,65.0,0.0,30.0,6.0,0.0
5066,53.0,39.0,30.0,6.0,0.0
5067,72.0,0.0,120.0,1.0,0.0
5068,69.0,3.0,120.0,1.0,0.0
5069,60.0,4.0,120.0,12.0,0.0
5070,69.0,0.0,120.0,2.0,0.0
5071,60.0,0.0,120.0,2.0,0.0
5072,57.0,0.0,120.0,12.0,0.0
5073,52.0,1.0,120.0,3.0,0.0
5074,41.0,21.0,15.0,15.0,0.0
5075,52.0,3.0,120.0,13.0,0.0
5076,40.0,12.0,120.0,14.0,0.0
5077,53.0,12.0,30.0,6.0,0.0
5078,65.0,0.0,30.0,6.0,0.0
5079,41.0,28.0,60.0,15.0,0.0
5080,65.0,2.0,210.0,6.0,0.0
5081,53.0,0.0,210.0,6.0,0.0
5082,69.0,3.0,240.0,1.0,0.0
5083,77.0,0.0,240.0,1.0,0.0
5084,41.0,1.0,210.0,4.0,0.0
5085,53.0,0.0,210.0,4.0,0.0
5086,69.0,0.0,240.0,2.0,0.0
5087,65.0,4.0,240.0,2.0,0.0
5088,57.0,0.0,240.0,12.0,0.0
5089,65.0,0.0,240.0,12.0,0.0
5090,50.0,1.0,240.0,3.0,0.0
5091,41.0,28.0,240.0,15.0,0.0
5092,50.0,3.0,240.0,13.0,0.0
5093,38.0,12.0,240.0,14.0,0.0
5094,64.0,3.0,30.0,10.0,0.0
5095,76.0,39.0,60.0,0.0,0.0
5096,64.0,18.0,30.0,11.0,0.0
5097,65.0,3.0,30.0,10.0,0.0
5098,77.0,39.0,60.0,0.0,0.0
5099,65.0,18.0,30.0,11.0,0.0
5100,77.0,3.0,30.0,10.0,0.0
5101,89.0,3.0,60.0,0.0,0.0
5102,86.0,0.0,60.0,0.0,0.0
5103,74.0,0.0,30.0,11.0,0.0
5104,76.0,3.0,30.0,10.0,0.0
5105,84.0,0.0,60.0,0.0,0.0
5106,88.0,39.0,60.0,0.0,0.0
5107,72.0,18.0,30.0,11.0,0.0
5108,74.0,0.0,210.0,6.0,0.0
5109,65.0,0.0,210.0,6.0,0.0
5110,70.0,3.0,240.0,1.0,0.0
5111,74.0,0.0,240.0,1.0,0.0
5112,53.0,0.0,210.0,4.0,0.0
5113,62.0,1.0,210.0,4.0,0.0
5114,65.0,0.0,240.0,2.0,0.0
5115,58.0,0.0,240.0,12.0,0.0
5116,62.0,4.0,240.0,12.0,0.0
5117,74.0,0.0,240.0,2.0,0.0
5118,46.0,1.0,240.0,3.0,0.0
5119,46.0,3.0,240.0,13.0,0.0
5120,34.0,40.0,240.0,14.0,0.0
5121,74.0,3.0,30.0,10.0,0.0
5122,86.0,39.0,60.0,0.0,0.0
5123,82.0,0.0,60.0,0.0,0.0
5124,70.0,18.0,30.0,11.0,0.0
5125,72.0,3.0,30.0,10.0,0.0
5126,84.0,0.0,60.0,0.0,0.0
5127,81.0,39.0,60.0,0.0,0.0
5128,69.0,18.0,30.0,11.0,0.0
5129,70.0,3.0,30.0,10.0,0.0
5130,82.0,0.0,60.0,0.0,0.0
5131,79.0,3.0,60.0,0.0,0.0
5132,67.0,2.0,30.0,11.0,0.0
5133,69.0,3.0,30.0,10.0,0.0
5134,77.0,39.0,60.0,0.0,0.0
5135,81.0,0.0,60.0,0.0,0.0
5136,65.0,18.0,30.0,11.0,0.0
5137,72.0,2.0,210.0,6.0,0.0
5138,64.0,0.0,240.0,1.0,0.0
5139,67.0,3.0,240.0,1.0,0.0
5140,60.0,1.0,210.0,4.0,0.0
5141,55.0,0.0,240.0,12.0,0.0
5142,67.0,0.0,240.0,2.0,0.0
5143,64.0,4.0,240.0,2.0,0.0
5144,52.0,0.0,240.0,12.0,0.0
5145,48.0,1.0,240.0,3.0,0.0
5146,48.0,3.0,240.0,13.0,0.0
5147,36.0,40.0,240.0,14.0,0.0
5148,67.0,3.0,30.0,10.0,0.0
5149,79.0,0.0,60.0,0.0,0.0
5150,76.0,39.0,60.0,0.0,0.0
5151,64.0,18.0,30.0,11.0,0.0
5152,79.0,3.0,30.0,10.0,0.0
5153,88.0,39.0,60.0,0.0,0.0
5154,91.0,0.0,60.0,0.0,0.0
5155,76.0,18.0,30.0,11.0,0.0
5156,77.0,3.0,30.0,10.0,0.0
5157,86.0,3.0,60.0,0.0,0.0
5158,89.0,0.0,60.0,0.0,0.0
5159,74.0,0.0,30.0,11.0,0.0
5160,76.0,3.0,30.0,10.0,0.0
5161,84.0,0.0,120.0,0.0,0.0
5162,88.0,39.0,120.0,0.0,0.0
5163,72.0,57.0,30.0,11.0,0.0
5164,72.0,0.0,210.0,6.0,0.0
5165,72.0,0.0,240.0,1.0,0.0
5166,64.0,3.0,240.0,1.0,0.0
5167,60.0,4.0,210.0,4.0,0.0
5168,64.0,4.0,240.0,2.0,0.0
5169,72.0,0.0,240.0,2.0,0.0
5170,52.0,0.0,240.0,12.0,0.0
5171,60.0,0.0,240.0,12.0,0.0
5172,36.0,1.0,240.0,3.0,0.0
5173,36.0,3.0,240.0,13.0,0.0
5174,24.0,35.0,240.0,14.0,0.0
5175,74.0,3.0,30.0,10.0,0.0
5176,70.0,18.0,30.0,11.0,0.0
5177,72.0,3.0,30.0,10.0,0.0
5178,69.0,57.0,30.0,11.0,0.0
5179,70.0,3.0,30.0,10.0,0.0
5180,67.0,2.0,30.0,11.0,0.0
5181,69.0,3.0,30.0,10.0,0.0
5182,77.0,3.0,330.0,0.0,0.0
5183,89.0,0.0,330.0,0.0,0.0
5184,53.0,50.0,270.0,6.0,0.0
5185,69.0,13.0,30.0,11.0,0.0
5186,65.0,0.0,270.0,6.0,0.0
5187,77.0,0.0,330.0,1.0,0.0
5188,65.0,3.0,330.0,1.0,0.0
5189,53.0,5.0,30.0,4.0,0.0
5190,41.0,0.0,30.0,4.0,0.0
5191,65.0,0.0,330.0,2.0,0.0
5192,65.0,20.0,360.0,12.0,0.0
5193,77.0,1.0,330.0,2.0,0.0
5194,65.0,9.0,330.0,5.0,0.0
5195,53.0,1.0,60.0,3.0,0.0
5196,53.0,3.0,60.0,13.0,0.0
5197,41.0,31.0,240.0,15.0,0.0
5198,41.0,35.0,60.0,14.0,0.0
5199,68.0,3.0,30.0,10.0,0.0
5200,68.0,13.0,30.0,11.0,0.0
5201,41.0,5.0,30.0,4.0,0.0
5202,53.0,0.0,30.0,4.0,0.0
5203,52.0,1.0,60.0,3.0,0.0
5204,52.0,3.0,60.0,13.0,0.0
5205,40.0,35.0,60.0,14.0,0.0
5206,69.0,3.0,30.0,10.0,0.0
5207,69.0,13.0,30.0,11.0,0.0
5208,41.0,0.0,30.0,4.0,0.0
5209,53.0,5.0,30.0,4.0,0.0
5210,53.0,1.0,60.0,3.0,0.0
5211,53.0,3.0,60.0,13.0,0.0
5212,41.0,35.0,60.0,14.0,0.0
5213,72.0,3.0,30.0,10.0,0.0
5214,72.0,13.0,30.0,11.0,0.0
5215,41.0,5.0,30.0,4.0,0.0
5216,53.0,0.0,30.0,4.0,0.0
5217,57.0,1.0,60.0,3.0,0.0
5218,57.0,3.0,60.0,13.0,0.0
5219,45.0,12.0,60.0,14.0,0.0
5220,69.0,3.0,270.0,10.0,0.0
5221,69.0,2.0,270.0,11.0,0.0
5222,41.0,0.0,270.0,4.0,0.0
5223,53.0,11.0,270.0,4.0,0.0
5224,53.0,1.0,300.0,3.0,0.0
5225,53.0,3.0,300.0,13.0,0.0
5226,41.0,35.0,300.0,14.0,0.0
5227,65.0,0.0,30.0,6.0,0.0
5228,53.0,3.0,30.0,6.0,0.0
5229,89.0,2.0,90.0,0.0,0.0
5230,77.0,0.0,90.0,0.0,0.0
5231,65.0,39.0,30.0,6.0,0.0
5232,53.0,0.0,30.0,6.0,0.0
5233,77.0,0.0,90.0,1.0,0.0
5234,65.0,3.0,90.0,1.0,0.0
5235,65.0,20.0,120.0,12.0,0.0
5236,65.0,5.0,90.0,2.0,0.0
5237,77.0,0.0,90.0,2.0,0.0
5238,65.0,1.0,90.0,5.0,0.0
5239,41.0,21.0,15.0,15.0,0.0
5240,65.0,0.0,30.0,6.0,0.0
5241,53.0,8.0,30.0,6.0,0.0
5242,76.0,0.0,330.0,0.0,0.0
5243,88.0,3.0,330.0,0.0,0.0
5244,65.0,50.0,270.0,6.0,0.0
5245,53.0,0.0,270.0,6.0,0.0
5246,64.0,3.0,330.0,1.0,0.0
5247,76.0,0.0,330.0,1.0,0.0
5248,64.0,20.0,360.0,12.0,0.0
5249,64.0,1.0,330.0,2.0,0.0
5250,76.0,0.0,330.0,2.0,0.0
5251,64.0,9.0,330.0,5.0,0.0
5252,41.0,28.0,15.0,15.0,0.0
5253,68.0,3.0,30.0,10.0,0.0
5254,68.0,13.0,30.0,11.0,0.0
5255,41.0,5.0,30.0,4.0,0.0
5256,53.0,0.0,30.0,4.0,0.0
5257,52.0,1.0,60.0,3.0,0.0
5258,52.0,3.0,60.0,13.0,0.0
5259,40.0,35.0,60.0,14.0,0.0
5260,69.0,3.0,30.0,10.0,0.0
5261,69.0,13.0,30.0,11.0,0.0
5262,41.0,0.0,30.0,4.0,0.0
5263,53.0,5.0,30.0,4.0,0.0
5264,53.0,1.0,60.0,3.0,0.0
5265,53.0,3.0,60.0,13.0,0.0
5266,41.0,35.0,60.0,14.0,0.0
5267,76.0,3.0,30.0,10.0,0.0
5268,76.0,13.0,30.0,11.0,0.0
5269,53.0,0.0,30.0,4.0,0.0
5270,41.0,5.0,30.0,4.0,0.0
5271,60.0,1.0,60.0,3.0,0.0
5272,60.0,3.0,60.0,13.0,0.0
5273,48.0,12.0,60.0,14.0,0.0
5274,69.0,3.0,270.0,10.0,0.0
5275,69.0,13.0,270.0,11.0,0.0
5276,41.0,0.0,210.0,4.0,0.0
5277,53.0,2.0,210.0,4.0,0.0
5278,53.0,1.0,300.0,3.0,0.0
5279,53.0,3.0,300.0,13.0,0.0
5280,41.0,40.0,300.0,14.0,0.0
5281,65.0,0.0,30.0,6.0,0.0
5282,53.0,3.0,30.0,6.0,0.0
5283,41.0,21.0,60.0,15.0,0.0
5284,88.0,0.0,90.0,0.0,0.0
5285,76.0,2.0,90.0,0.0,0.0
5286,65.0,0.0,30.0,6.0,0.0
5287,53.0,39.0,30.0,6.0,0.0
5288,76.0,1.0,90.0,1.0,0.0
5289,64.0,0.0,90.0,1.0,0.0
5290,64.0,20.0,120.0,12.0,0.0
5291,76.0,0.0,90.0,2.0,0.0
5292,64.0,5.0,90.0,2.0,0.0
5293,64.0,1.0,90.0,5.0,0.0
5294,41.0,21.0,60.0,15.0,0.0
5295,53.0,0.0,30.0,6.0,0.0
5296,65.0,8.0,30.0,6.0,0.0
5297,74.0,0.0,120.0,0.0,0.0
5298,86.0,2.0,120.0,0.0,0.0
5299,65.0,1.0,120.0,6.0,0.0
5300,53.0,0.0,120.0,6.0,0.0
5301,74.0,0.0,120.0,1.0,0.0
5302,62.0,1.0,120.0,1.0,0.0
5303,41.0,2.0,120.0,4.0,0.0
5304,53.0,0.0,120.0,4.0,0.0
5305,62.0,9.0,150.0,12.0,0.0
5306,74.0,0.0,120.0,2.0,0.0
5307,62.0,33.0,120.0,2.0,0.0
5308,62.0,2.0,120.0,5.0,0.0
5309,41.0,28.0,15.0,15.0,0.0
5310,68.0,3.0,30.0,10.0,0.0
5311,68.0,13.0,30.0,11.0,0.0
5312,52.0,1.0,60.0,3.0,0.0
5313,52.0,1.0,60.0,13.0,0.0
5314,40.0,1.0,60.0,14.0,0.0
5315,69.0,3.0,30.0,10.0,0.0
5316,69.0,4.0,30.0,11.0,0.0
5317,53.0,1.0,60.0,3.0,0.0
5318,53.0,3.0,60.0,13.0,0.0
5319,41.0,40.0,60.0,14.0,0.0
5320,81.0,3.0,30.0,10.0,0.0
5321,77.0,4.0,30.0,11.0,0.0
5322,69.0,0.0,30.0,12.0,0.0
5323,65.0,9.0,30.0,12.0,0.0
5324,50.0,1.0,60.0,3.0,0.0
5325,50.0,3.0,60.0,13.0,0.0
5326,38.0,12.0,60.0,14.0,0.0
5327,79.0,3.0,30.0,10.0,0.0
5328,77.0,0.0,120.0,0.0,0.0
5329,86.0,2.0,120.0,0.0,0.0
5330,76.0,4.0,30.0,11.0,0.0
5331,70.0,1.0,120.0,6.0,0.0
5332,74.0,0.0,120.0,6.0,0.0
5333,65.0,1.0,120.0,1.0,0.0
5334,74.0,0.0,120.0,1.0,0.0
5335,62.0,0.0,120.0,4.0,0.0
5336,58.0,2.0,120.0,4.0,0.0
5337,62.0,0.0,120.0,2.0,0.0
5338,64.0,0.0,30.0,12.0,0.0
5339,67.0,53.0,30.0,12.0,0.0
5340,65.0,1.0,120.0,2.0,0.0
5341,62.0,32.0,120.0,5.0,0.0
5342,46.0,1.0,120.0,3.0,0.0
5343,46.0,3.0,120.0,13.0,0.0
5344,34.0,1.0,120.0,14.0,0.0
5345,77.0,3.0,30.0,10.0,0.0
5346,74.0,4.0,30.0,11.0,0.0
5347,65.0,9.0,30.0,12.0,0.0
5348,62.0,0.0,30.0,12.0,0.0
5349,76.0,3.0,30.0,10.0,0.0
5350,72.0,4.0,30.0,11.0,0.0
5351,60.0,0.0,30.0,12.0,0.0
5352,64.0,9.0,30.0,12.0,0.0
5353,50.0,1.0,60.0,3.0,0.0
5354,50.0,3.0,60.0,13.0,0.0
5355,38.0,40.0,60.0,14.0,0.0
5356,74.0,3.0,30.0,10.0,0.0
5357,70.0,4.0,30.0,11.0,0.0
5358,62.0,0.0,30.0,12.0,0.0
5359,58.0,9.0,30.0,12.0,0.0
5360,46.0,1.0,60.0,3.0,0.0
5361,46.0,3.0,60.0,13.0,0.0
5362,34.0,40.0,60.0,14.0,0.0
5363,82.0,3.0,30.0,10.0,0.0
5364,86.0,0.0,120.0,0.0,0.0
5365,82.0,2.0,120.0,0.0,0.0
5366,70.0,0.0,120.0,6.0,0.0
5367,79.0,4.0,30.0,11.0,0.0
5368,74.0,1.0,120.0,6.0,0.0
5369,74.0,0.0,120.0,1.0,0.0
5370,70.0,1.0,120.0,1.0,0.0
5371,62.0,0.0,120.0,4.0,0.0
5372,58.0,2.0,120.0,4.0,0.0
5373,62.0,0.0,120.0,2.0,0.0
5374,70.0,1.0,120.0,2.0,0.0
5375,67.0,0.0,30.0,12.0,0.0
5376,70.0,24.0,30.0,12.0,0.0
5377,55.0,32.0,120.0,5.0,0.0
5378,43.0,0.0,120.0,5.0,0.0
5379,43.0,1.0,60.0,3.0,0.0
5380,43.0,3.0,60.0,13.0,0.0
5381,31.0,25.0,60.0,14.0,0.0
5382,81.0,3.0,30.0,10.0,0.0
5383,77.0,4.0,30.0,11.0,0.0
5384,65.0,0.0,30.0,12.0,0.0
5385,69.0,14.0,30.0,12.0,0.0
5386,79.0,3.0,30.0,10.0,0.0
5387,76.0,4.0,30.0,11.0,0.0
5388,67.0,24.0,30.0,12.0,0.0
5389,64.0,0.0,30.0,12.0,0.0
5390,46.0,1.0,60.0,3.0,0.0
5391,46.0,3.0,60.0,13.0,0.0
5392,34.0,25.0,60.0,14.0,0.0
5393,77.0,3.0,30.0,10.0,0.0
5394,74.0,4.0,30.0,11.0,0.0
5395,62.0,53.0,30.0,12.0,0.0
5396,65.0,0.0,30.0,12.0,0.0
5397,76.0,3.0,30.0,10.0,0.0
5398,79.0,0.0,120.0,0.0,0.0
5399,82.0,2.0,120.0,0.0,0.0
5400,72.0,1.0,120.0,6.0,0.0
5401,72.0,4.0,30.0,11.0,0.0
5402,70.0,0.0,120.0,6.0,0.0
5403,67.0,0.0,120.0,1.0,0.0
5404,70.0,1.0,120.0,1.0,0.0
5405,60.0,0.0,120.0,4.0,0.0
5406,58.0,2.0,120.0,4.0,0.0
5407,67.0,1.0,120.0,2.0,0.0
5408,70.0,0.0,120.0,2.0,0.0
5409,64.0,24.0,30.0,12.0,0.0
5410,60.0,0.0,30.0,12.0,0.0
5411,48.0,0.0,120.0,5.0,0.0
5412,60.0,32.0,120.0,5.0,0.0
5413,48.0,1.0,60.0,3.0,0.0
5414,48.0,3.0,60.0,13.0,0.0
5415,36.0,25.0,60.0,14.0,0.0
5416,74.0,3.0,30.0,10.0,0.0
5417,70.0,4.0,30.0,11.0,0.0
5418,62.0,0.0,30.0,12.0,0.0
5419,58.0,14.0,30.0,12.0,0.0
5420,72.0,3.0,30.0,10.0,0.0
5421,69.0,4.0,30.0,11.0,0.0
5422,60.0,0.0,30.0,12.0,0.0
5423,57.0,24.0,30.0,12.0,0.0
5424,52.0,1.0,60.0,3.0,0.0
5425,52.0,3.0,60.0,13.0,0.0
5426,40.0,25.0,60.0,14.0,0.0
5427,70.0,3.0,30.0,10.0,0.0
5428,67.0,4.0,30.0,11.0,0.0
5429,55.0,0.0,30.0,12.0,0.0
5430,58.0,53.0,30.0,12.0,0.0
5431,69.0,3.0,30.0,10.0,0.0
5432,77.0,0.0,120.0,0.0,0.0
5433,81.0,2.0,120.0,0.0,0.0
5434,53.0,0.0,120.0,6.0,0.0
5435,65.0,1.0,120.0,6.0,0.0
5436,65.0,28.0,30.0,11.0,0.0
5437,65.0,1.0,120.0,1.0,0.0
5438,69.0,0.0,120.0,1.0,0.0
5439,60.0,0.0,120.0,4.0,0.0
5440,53.0,2.0,120.0,4.0,0.0
5441,69.0,0.0,120.0,2.0,0.0
5442,65.0,1.0,120.0,2.0,0.0
5443,57.0,9.0,120.0,12.0,0.0
5444,53.0,0.0,120.0,12.0,0.0
5445,48.0,32.0,120.0,5.0,0.0
5446,60.0,0.0,120.0,5.0,0.0
5447,53.0,1.0,60.0,3.0,0.0
5448,53.0,3.0,60.0,13.0,0.0
5449,41.0,25.0,60.0,14.0,0.0
5450,67.0,3.0,30.0,10.0,0.0
5451,64.0,9.0,30.0,11.0,0.0
5452,69.0,3.0,30.0,10.0,0.0
5453,65.0,28.0,30.0,11.0,0.0
5454,57.0,1.0,60.0,3.0,0.0
5455,57.0,3.0,60.0,13.0,0.0
5456,45.0,25.0,60.0,14.0,0.0
5457,72.0,3.0,30.0,10.0,0.0
5458,67.0,78.0,30.0,11.0,0.0
5459,69.0,0.0,60.0,0.0,0.0
5460,65.0,6.0,60.0,0.0,0.0
5461,53.0,45.0,60.0,2.0,0.0
5462,57.0,0.0,60.0,2.0,0.0
5463,57.0,0.0,120.0,12.0,0.0
5464,53.0,9.0,120.0,12.0,0.0
5465,64.0,0.0,60.0,0.0,0.0
5466,67.0,6.0,60.0,0.0,0.0
5467,55.0,0.0,60.0,2.0,0.0
5468,52.0,54.0,60.0,2.0,0.0
5469,72.0,3.0,120.0,10.0,0.0
5470,69.0,0.0,60.0,0.0,0.0
5471,65.0,6.0,60.0,0.0,0.0
5472,69.0,4.0,120.0,11.0,0.0
5473,57.0,54.0,120.0,12.0,0.0
5474,53.0,0.0,60.0,2.0,0.0
5475,57.0,39.0,60.0,2.0,0.0
5476,60.0,0.0,120.0,12.0,0.0
5477,69.0,0.0,60.0,0.0,0.0
5478,72.0,6.0,60.0,0.0,0.0
5479,60.0,8.0,60.0,2.0,0.0
5480,57.0,0.0,60.0,2.0,0.0
5481,70.0,1.0,120.0,10.0,0.0
5482,70.0,6.0,60.0,0.0,0.0
5483,67.0,0.0,60.0,0.0,0.0
5484,67.0,4.0,120.0,11.0,0.0
5485,55.0,0.0,120.0,12.0,0.0
5486,58.0,0.0,120.0,12.0,0.0
5487,58.0,53.0,60.0,2.0,0.0
5488,55.0,0.0,60.0,2.0,0.0
5489,69.0,2.0,60.0,0.0,0.0
5490,65.0,0.0,60.0,0.0,0.0
5491,53.0,54.0,60.0,2.0,0.0
5492,57.0,0.0,60.0,2.0,0.0
5493,74.0,3.0,120.0,10.0,0.0
5494,67.0,6.0,60.0,0.0,0.0
5495,70.0,4.0,120.0,11.0,0.0
5496,58.0,0.0,60.0,2.0,0.0
5497,55.0,39.0,60.0,2.0,0.0
5498,62.0,0.0,120.0,12.0,0.0
5499,58.0,54.0,120.0,12.0,0.0
5500,74.0,0.0,60.0,0.0,0.0
5501,70.0,0.0,15.0,0.0,0.0
5502,62.0,0.0,60.0,2.0,0.0
5503,58.0,8.0,60.0,2.0,0.0
5504,72.0,1.0,120.0,10.0,0.0
5505,69.0,0.0,60.0,0.0,0.0
5506,72.0,6.0,60.0,0.0,0.0
5507,69.0,4.0,120.0,11.0,0.0
5508,57.0,0.0,60.0,2.0,0.0
5509,60.0,53.0,60.0,2.0,0.0
5510,60.0,0.0,120.0,12.0,0.0
5511,57.0,0.0,120.0,12.0,0.0
5512,70.0,2.0,60.0,0.0,0.0
5513,67.0,0.0,60.0,0.0,0.0
5514,58.0,0.0,60.0,2.0,0.0
5515,55.0,39.0,60.0,2.0,0.0
5516,81.0,3.0,120.0,10.0,0.0
5517,72.0,0.0,60.0,0.0,0.0
5518,69.0,6.0,60.0,0.0,0.0
5519,77.0,4.0,120.0,11.0,0.0
5520,57.0,0.0,60.0,2.0,0.0
5521,60.0,39.0,60.0,2.0,0.0
5522,69.0,0.0,120.0,12.0,0.0
5523,65.0,54.0,120.0,12.0,0.0
5524,77.0,0.0,30.0,0.0,0.0
5525,81.0,6.0,30.0,0.0,0.0
5526,69.0,0.0,30.0,2.0,0.0
5527,65.0,23.0,30.0,2.0,0.0
5528,77.0,1.0,120.0,10.0,0.0
5529,76.0,6.0,60.0,0.0,0.0
5530,79.0,0.0,60.0,0.0,0.0
5531,74.0,4.0,120.0,11.0,0.0
5532,64.0,53.0,60.0,2.0,0.0
5533,65.0,54.0,120.0,12.0,0.0
5534,67.0,0.0,60.0,2.0,0.0
5535,74.0,0.0,60.0,0.0,0.0
5536,77.0,2.0,60.0,0.0,0.0
5537,62.0,0.0,60.0,2.0,0.0
5538,65.0,0.0,60.0,2.0,0.0
5539,74.0,1.0,120.0,10.0,0.0
5540,72.0,0.0,60.0,0.0,0.0
5541,76.0,6.0,60.0,0.0,0.0
5542,70.0,4.0,120.0,11.0,0.0
5543,62.0,0.0,15.0,12.0,0.0
5544,64.0,0.0,60.0,2.0,0.0
5545,60.0,53.0,60.0,2.0,0.0
5546,58.0,0.0,120.0,12.0,0.0
5547,74.0,0.0,60.0,0.0,0.0
5548,70.0,2.0,60.0,0.0,0.0
5549,58.0,0.0,60.0,2.0,0.0
5550,62.0,54.0,60.0,2.0,0.0
5551,70.0,1.0,120.0,10.0,0.0
5552,69.0,6.0,60.0,0.0,0.0
5553,72.0,0.0,60.0,0.0,0.0
5554,67.0,4.0,120.0,11.0,0.0
5555,60.0,53.0,60.0,2.0,0.0
5556,57.0,0.0,60.0,2.0,0.0
5557,58.0,0.0,120.0,12.0,0.0
5558,67.0,0.0,60.0,0.0,0.0
5559,70.0,2.0,60.0,0.0,0.0
5560,58.0,54.0,60.0,2.0,0.0
5561,55.0,0.0,60.0,2.0,0.0
5562,67.0,3.0,120.0,10.0,0.0
5563,69.0,6.0,60.0,0.0,0.0
5564,65.0,0.0,60.0,0.0,0.0
5565,64.0,4.0,120.0,11.0,0.0
5566,52.0,0.0,120.0,12.0,0.0
5567,55.0,0.0,15.0,12.0,0.0
5568,53.0,39.0,60.0,2.0,0.0
5569,57.0,0.0,60.0,2.0,0.0
5570,64.0,0.0,60.0,0.0,0.0
5571,67.0,6.0,60.0,0.0,0.0
5572,52.0,0.0,60.0,2.0,0.0
5573,55.0,8.0,60.0,2.0,0.0
5574,82.0,1.0,120.0,10.0,0.0
5575,79.0,6.0,60.0,0.0,0.0
5576,82.0,0.0,60.0,0.0,0.0
5577,79.0,4.0,120.0,11.0,0.0
5578,70.0,0.0,120.0,12.0,0.0
5579,67.0,53.0,60.0,2.0,0.0
5580,70.0,0.0,60.0,2.0,0.0
5581,77.0,0.0,60.0,0.0,0.0
5582,81.0,2.0,60.0,0.0,0.0
5583,65.0,0.0,60.0,2.0,0.0
5584,69.0,54.0,60.0,2.0,0.0
5585,79.0,1.0,120.0,10.0,0.0
5586,79.0,0.0,60.0,0.0,0.0
5587,76.0,6.0,60.0,0.0,0.0
5588,76.0,4.0,120.0,11.0,0.0
5589,64.0,0.0,120.0,12.0,0.0
5590,67.0,0.0,15.0,12.0,0.0
5591,64.0,53.0,60.0,2.0,0.0
5592,67.0,0.0,60.0,2.0,0.0
5593,74.0,2.0,60.0,0.0,0.0
5594,77.0,0.0,60.0,0.0,0.0
5595,65.0,0.0,60.0,2.0,0.0
5596,62.0,54.0,60.0,2.0,0.0
5597,76.0,1.0,120.0,10.0,0.0
5598,72.0,0.0,60.0,0.0,0.0
5599,76.0,6.0,60.0,0.0,0.0
5600,72.0,4.0,120.0,11.0,0.0
5601,60.0,0.0,60.0,2.0,0.0
5602,64.0,53.0,60.0,2.0,0.0
5603,60.0,0.0,120.0,12.0,0.0
5604,64.0,0.0,120.0,12.0,0.0
5605,74.0,0.0,60.0,0.0,0.0
5606,70.0,2.0,60.0,0.0,0.0
5607,62.0,0.0,60.0,2.0,0.0
5608,58.0,54.0,60.0,2.0,0.0
5609,70.0,3.0,120.0,10.0,0.0
5610,72.0,0.0,60.0,0.0,0.0
5611,69.0,6.0,60.0,0.0,0.0
5612,67.0,4.0,120.0,11.0,0.0
5613,60.0,0.0,60.0,2.0,0.0
5614,57.0,39.0,60.0,2.0,0.0
5615,58.0,5.0,120.0,12.0,0.0
5616,55.0,0.0,120.0,12.0,0.0
5617,48.0,40.0,120.0,13.0,0.0
5618,70.0,6.0,60.0,0.0,0.0
5619,67.0,0.0,60.0,0.0,0.0
5620,58.0,0.0,60.0,2.0,0.0
5621,55.0,8.0,60.0,2.0,0.0
5622,69.0,1.0,120.0,10.0,0.0
5623,65.0,0.0,60.0,0.0,0.0
5624,69.0,10.0,60.0,0.0,0.0
5625,65.0,4.0,120.0,11.0,0.0
5626,57.0,0.0,120.0,12.0,0.0
5627,57.0,0.0,60.0,2.0,0.0
5628,53.0,4.0,120.0,12.0,0.0
5629,53.0,9.0,60.0,2.0,0.0
5630,57.0,0.0,60.0,3.0,0.0
5631,53.0,49.0,60.0,3.0,0.0
5632,53.0,49.0,120.0,13.0,0.0
5633,67.0,0.0,60.0,0.0,0.0
5634,64.0,2.0,60.0,0.0,0.0
5635,55.0,1.0,60.0,3.0,0.0
5636,52.0,0.0,60.0,3.0,0.0
5637,65.0,0.0,60.0,0.0,0.0
5638,57.0,0.0,120.0,12.0,0.0
5639,60.0,4.0,120.0,12.0,0.0
5640,57.0,50.0,60.0,3.0,0.0
5641,53.0,0.0,60.0,3.0,0.0
5642,69.0,10.0,15.0,0.0,0.0
5643,72.0,0.0,60.0,0.0,0.0
5644,60.0,0.0,60.0,3.0,0.0
5645,57.0,53.0,60.0,3.0,0.0
5646,69.0,3.0,120.0,10.0,0.0
5647,65.0,1.0,120.0,11.0,0.0
5648,69.0,0.0,60.0,1.0,0.0
5649,65.0,3.0,60.0,1.0,0.0
5650,53.0,53.0,60.0,2.0,0.0
5651,53.0,0.0,120.0,12.0,0.0
5652,57.0,0.0,120.0,12.0,0.0
5653,57.0,0.0,60.0,2.0,0.0
5654,68.0,3.0,60.0,1.0,0.0
5655,64.0,0.0,60.0,1.0,0.0
5656,56.0,0.0,60.0,2.0,0.0
5657,52.0,57.0,60.0,2.0,0.0
5658,72.0,3.0,120.0,10.0,0.0
5659,69.0,4.0,120.0,11.0,0.0
5660,65.0,0.0,60.0,1.0,0.0
5661,57.0,0.0,120.0,12.0,0.0
5662,60.0,42.0,120.0,12.0,0.0
5663,53.0,0.0,60.0,2.0,0.0
5664,69.0,3.0,15.0,1.0,0.0
5665,72.0,0.0,60.0,1.0,0.0
5666,60.0,8.0,60.0,2.0,0.0
5667,57.0,42.0,15.0,2.0,0.0
5668,76.0,1.0,120.0,10.0,0.0
5669,68.0,0.0,60.0,0.0,0.0
5670,71.0,10.0,60.0,0.0,0.0
5671,68.0,4.0,120.0,11.0,0.0
5672,76.0,3.0,60.0,1.0,0.0
5673,68.0,0.0,60.0,1.0,0.0
5674,64.0,9.0,60.0,2.0,0.0
5675,56.0,4.0,120.0,12.0,0.0
5676,56.0,0.0,60.0,2.0,0.0
5677,56.0,49.0,60.0,3.0,0.0
5678,59.0,0.0,60.0,3.0,0.0
5679,52.0,49.0,120.0,13.0,0.0
5680,69.0,2.0,60.0,0.0,0.0
5681,66.0,0.0,60.0,0.0,0.0
5682,57.0,1.0,60.0,3.0,0.0
5683,54.0,0.0,60.0,3.0,0.0
5684,68.0,0.0,60.0,0.0,0.0
5685,62.0,0.0,120.0,12.0,0.0
5686,59.0,0.0,15.0,12.0,0.0
5687,56.0,0.0,60.0,3.0,0.0
5688,40.0,34.0,120.0,13.0,0.0
5689,71.0,10.0,15.0,0.0,0.0
5690,74.0,10.0,60.0,0.0,0.0
5691,62.0,11.0,60.0,3.0,0.0
5692,59.0,35.0,15.0,3.0,0.0
5693,72.0,3.0,120.0,10.0,0.0
5694,69.0,0.0,60.0,0.0,0.0
5695,72.0,10.0,60.0,0.0,0.0
5696,69.0,1.0,120.0,11.0,0.0
5697,72.0,3.0,60.0,1.0,0.0
5698,69.0,0.0,60.0,1.0,0.0
5699,57.0,0.0,120.0,12.0,0.0
5700,57.0,53.0,60.0,2.0,0.0
5701,60.0,5.0,120.0,12.0,0.0
5702,60.0,0.0,60.0,2.0,0.0
5703,60.0,8.0,60.0,3.0,0.0
5704,57.0,0.0,60.0,3.0,0.0
5705,45.0,52.0,120.0,13.0,0.0
5706,67.0,3.0,60.0,1.0,0.0
5707,71.0,0.0,60.0,1.0,0.0
5708,59.0,0.0,60.0,2.0,0.0
5709,55.0,0.0,60.0,2.0,0.0
5710,76.0,3.0,120.0,10.0,0.0
5711,72.0,4.0,120.0,11.0,0.0
5712,69.0,0.0,60.0,1.0,0.0
5713,57.0,42.0,60.0,2.0,0.0
5714,60.0,0.0,120.0,12.0,0.0
5715,64.0,42.0,120.0,12.0,0.0
5716,60.0,0.0,60.0,2.0,0.0
5717,72.0,3.0,15.0,1.0,0.0
5718,76.0,0.0,60.0,1.0,0.0
5719,64.0,8.0,60.0,2.0,0.0
5720,60.0,0.0,60.0,2.0,0.0
5721,79.0,1.0,120.0,10.0,0.0
5722,74.0,10.0,60.0,0.0,0.0
5723,71.0,0.0,60.0,0.0,0.0
5724,71.0,4.0,120.0,11.0,0.0
5725,79.0,0.0,60.0,1.0,0.0
5726,71.0,3.0,60.0,1.0,0.0
5727,67.0,0.0,60.0,2.0,0.0
5728,59.0,9.0,60.0,2.0,0.0
5729,59.0,0.0,120.0,12.0,0.0
5730,59.0,0.0,60.0,3.0,0.0
5731,62.0,49.0,60.0,3.0,0.0
5732,55.0,49.0,120.0,13.0,0.0
5733,69.0,0.0,60.0,0.0,0.0
5734,72.0,2.0,60.0,0.0,0.0
5735,57.0,0.0,60.0,3.0,0.0
5736,60.0,1.0,60.0,3.0,0.0
5737,71.0,10.0,60.0,0.0,0.0
5738,65.0,5.0,120.0,12.0,0.0
5739,62.0,4.0,15.0,12.0,0.0
5740,59.0,35.0,60.0,3.0,0.0
5741,43.0,34.0,120.0,13.0,0.0
5742,74.0,0.0,15.0,0.0,0.0
5743,77.0,0.0,60.0,0.0,0.0
5744,62.0,0.0,15.0,3.0,0.0
5745,65.0,11.0,60.0,3.0,0.0
5746,76.0,3.0,120.0,10.0,0.0
5747,72.0,0.0,60.0,0.0,0.0
5748,76.0,10.0,60.0,0.0,0.0
5749,72.0,1.0,120.0,11.0,0.0
5750,76.0,3.0,60.0,1.0,0.0
5751,72.0,0.0,60.0,1.0,0.0
5752,64.0,5.0,120.0,12.0,0.0
5753,60.0,53.0,60.0,2.0,0.0
5754,64.0,0.0,60.0,2.0,0.0
5755,60.0,0.0,120.0,12.0,0.0
5756,64.0,8.0,60.0,3.0,0.0
5757,60.0,0.0,60.0,3.0,0.0
5758,48.0,52.0,120.0,13.0,0.0
5759,74.0,3.0,60.0,1.0,0.0
5760,71.0,0.0,60.0,1.0,0.0
5761,62.0,0.0,60.0,2.0,0.0
5762,59.0,0.0,60.0,2.0,0.0
5763,79.0,3.0,120.0,10.0,0.0
5764,76.0,4.0,120.0,11.0,0.0
5765,72.0,0.0,60.0,1.0,0.0
5766,76.0,3.0,60.0,1.0,0.0
5767,64.0,0.0,120.0,12.0,0.0
5768,60.0,0.0,60.0,2.0,0.0
5769,43.0,52.0,120.0,13.0,0.0
5770,79.0,0.0,60.0,1.0,0.0
5771,76.0,3.0,60.0,1.0,0.0
5772,67.0,0.0,60.0,2.0,0.0
5773,64.0,42.0,15.0,2.0,0.0
5774,82.0,3.0,120.0,10.0,0.0
5775,58.0,0.0,120.0,11.0,0.0
5776,67.0,0.0,120.0,11.0,0.0
5777,76.0,1.0,120.0,11.0,0.0
5778,79.0,3.0,60.0,1.0,0.0
5779,82.0,0.0,60.0,1.0,0.0
5780,67.0,5.0,15.0,12.0,0.0
5781,70.0,0.0,60.0,2.0,0.0
5782,67.0,53.0,60.0,2.0,0.0
5783,70.0,0.0,120.0,12.0,0.0
5784,36.0,49.0,120.0,13.0,0.0
5785,81.0,0.0,60.0,1.0,0.0
5786,77.0,3.0,60.0,1.0,0.0
5787,65.0,0.0,60.0,2.0,0.0
5788,69.0,5.0,60.0,2.0,0.0
5789,88.0,0.0,60.0,0.0,0.0
5790,91.0,3.0,60.0,0.0,0.0
5791,76.0,0.0,60.0,1.0,0.0
5792,79.0,3.0,60.0,1.0,0.0
5793,64.0,4.0,60.0,2.0,0.0
5794,67.0,0.0,60.0,2.0,0.0
5795,52.0,0.0,60.0,3.0,0.0
5796,55.0,50.0,60.0,3.0,0.0
5797,86.0,3.0,60.0,0.0,0.0
5798,89.0,0.0,60.0,0.0,0.0
5799,77.0,3.0,60.0,1.0,0.0
5800,74.0,0.0,60.0,1.0,0.0
5801,62.0,0.0,60.0,2.0,0.0
5802,65.0,4.0,60.0,2.0,0.0
5803,50.0,0.0,60.0,3.0,0.0
5804,53.0,41.0,60.0,3.0,0.0
5805,84.0,0.0,60.0,0.0,0.0
5806,88.0,3.0,60.0,0.0,0.0
5807,76.0,7.0,60.0,1.0,0.0
5808,72.0,0.0,60.0,1.0,0.0
5809,60.0,9.0,60.0,2.0,0.0
5810,64.0,0.0,60.0,2.0,0.0
5811,48.0,50.0,60.0,3.0,0.0
5812,52.0,0.0,60.0,3.0,0.0
5813,86.0,0.0,60.0,0.0,0.0
5814,82.0,3.0,60.0,0.0,0.0
5815,70.0,7.0,60.0,1.0,0.0
5816,74.0,0.0,60.0,1.0,0.0
5817,58.0,50.0,60.0,3.0,0.0
5818,62.0,0.0,60.0,3.0,0.0
5819,81.0,3.0,60.0,0.0,0.0
5820,84.0,0.0,60.0,0.0,0.0
5821,72.0,0.0,60.0,1.0,0.0
5822,69.0,7.0,60.0,1.0,0.0
5823,60.0,35.0,60.0,3.0,0.0
5824,57.0,0.0,60.0,3.0,0.0
5825,82.0,3.0,60.0,0.0,0.0
5826,79.0,0.0,60.0,0.0,0.0
5827,70.0,0.0,60.0,1.0,0.0
5828,67.0,7.0,60.0,1.0,0.0
5829,55.0,0.0,60.0,3.0,0.0
5830,58.0,50.0,60.0,3.0,0.0
5831,57.0,3.0,120.0,10.0,0.0
5832,81.0,0.0,60.0,0.0,0.0
5833,77.0,3.0,60.0,0.0,0.0
5834,53.0,4.0,120.0,11.0,0.0
5835,69.0,0.0,60.0,1.0,0.0
5836,65.0,18.0,60.0,1.0,0.0
5837,53.0,0.0,120.0,12.0,0.0
5838,65.0,0.0,60.0,2.0,0.0
5839,69.0,4.0,60.0,2.0,0.0
5840,57.0,4.0,120.0,12.0,0.0
5841,57.0,0.0,60.0,3.0,0.0
5842,53.0,49.0,60.0,3.0,0.0
5843,67.0,0.0,60.0,2.0,0.0
5844,70.0,0.0,60.0,2.0,0.0
5845,55.0,0.0,60.0,3.0,0.0
5846,58.0,56.0,60.0,3.0,0.0
5847,60.0,3.0,120.0,10.0,0.0
5848,57.0,4.0,120.0,11.0,0.0
5849,72.0,4.0,60.0,2.0,0.0
5850,69.0,0.0,60.0,2.0,0.0
5851,60.0,0.0,120.0,12.0,0.0
5852,57.0,4.0,120.0,12.0,0.0
5853,60.0,49.0,60.0,3.0,0.0
5854,57.0,0.0,60.0,3.0,0.0
5855,74.0,0.0,60.0,2.0,0.0
5856,70.0,0.0,60.0,2.0,0.0
5857,62.0,56.0,60.0,3.0,0.0
5858,58.0,0.0,60.0,3.0,0.0
5859,65.0,3.0,120.0,10.0,0.0
5860,62.0,4.0,120.0,11.0,0.0
5861,72.0,0.0,60.0,2.0,0.0
5862,76.0,4.0,60.0,2.0,0.0
5863,65.0,0.0,120.0,12.0,0.0
5864,64.0,49.0,60.0,3.0,0.0
5865,60.0,0.0,60.0,3.0,0.0
5866,77.0,4.0,60.0,2.0,0.0
5867,74.0,0.0,60.0,2.0,0.0
5868,65.0,0.0,60.0,3.0,0.0
5869,62.0,56.0,60.0,3.0,0.0
5870,62.0,3.0,120.0,10.0,0.0
5871,58.0,4.0,120.0,11.0,0.0
5872,62.0,0.0,15.0,12.0,0.0
5873,58.0,0.0,120.0,12.0,0.0
5874,72.0,0.0,60.0,2.0,0.0
5875,76.0,4.0,60.0,2.0,0.0
5876,64.0,0.0,60.0,3.0,0.0
5877,60.0,41.0,60.0,3.0,0.0
5878,74.0,0.0,60.0,2.0,0.0
5879,70.0,4.0,60.0,2.0,0.0
5880,62.0,4.0,60.0,3.0,0.0
5881,58.0,0.0,60.0,3.0,0.0
5882,58.0,3.0,120.0,10.0,0.0
5883,55.0,4.0,120.0,11.0,0.0
5884,55.0,4.0,120.0,12.0,0.0
5885,58.0,0.0,120.0,12.0,0.0
5886,69.0,4.0,60.0,2.0,0.0
5887,72.0,0.0,60.0,2.0,0.0
5888,57.0,49.0,60.0,3.0,0.0
5889,60.0,0.0,60.0,3.0,0.0
5890,70.0,0.0,60.0,2.0,0.0
5891,67.0,0.0,60.0,2.0,0.0
5892,55.0,56.0,60.0,3.0,0.0
5893,58.0,0.0,60.0,3.0,0.0
5894,57.0,3.0,120.0,10.0,0.0
5895,53.0,4.0,120.0,11.0,0.0
5896,65.0,4.0,60.0,2.0,0.0
5897,69.0,0.0,60.0,2.0,0.0
5898,57.0,0.0,120.0,12.0,0.0
5899,53.0,0.0,120.0,12.0,0.0
5900,53.0,49.0,60.0,3.0,0.0
5901,57.0,0.0,60.0,3.0,0.0
5902,70.0,4.0,60.0,2.0,0.0
5903,67.0,0.0,60.0,2.0,0.0
5904,55.0,56.0,60.0,3.0,0.0
5905,58.0,0.0,60.0,3.0,0.0
5906,60.0,3.0,120.0,10.0,0.0
5907,57.0,4.0,120.0,11.0,0.0
5908,60.0,0.0,120.0,12.0,0.0
5909,57.0,4.0,120.0,12.0,0.0
5910,72.0,4.0,60.0,2.0,0.0
5911,69.0,0.0,60.0,2.0,0.0
5912,60.0,49.0,60.0,3.0,0.0
5913,57.0,0.0,60.0,3.0,0.0
5914,74.0,0.0,60.0,2.0,0.0
5915,70.0,0.0,60.0,2.0,0.0
5916,58.0,56.0,60.0,3.0,0.0
5917,62.0,0.0,60.0,3.0,0.0
5918,65.0,3.0,120.0,10.0,0.0
5919,62.0,4.0,120.0,11.0,0.0
5920,65.0,0.0,120.0,12.0,0.0
5921,72.0,0.0,60.0,2.0,0.0
5922,76.0,4.0,60.0,2.0,0.0
5923,60.0,0.0,60.0,3.0,0.0
5924,64.0,41.0,60.0,3.0,0.0
5925,77.0,4.0,60.0,2.0,0.0
5926,74.0,0.0,60.0,2.0,0.0
5927,65.0,4.0,60.0,3.0,0.0
5928,62.0,0.0,60.0,3.0,0.0
5929,62.0,3.0,120.0,10.0,0.0
5930,58.0,4.0,120.0,11.0,0.0
5931,62.0,60.0,15.0,12.0,0.0
5932,58.0,0.0,120.0,12.0,0.0
5933,72.0,4.0,60.0,2.0,0.0
5934,76.0,0.0,60.0,2.0,0.0
5935,64.0,49.0,60.0,3.0,0.0
5936,60.0,0.0,60.0,3.0,0.0
5937,70.0,4.0,60.0,2.0,0.0
5938,74.0,0.0,60.0,2.0,0.0
5939,62.0,0.0,60.0,3.0,0.0
5940,58.0,56.0,60.0,3.0,0.0
5941,58.0,3.0,120.0,10.0,0.0
5942,55.0,4.0,120.0,11.0,0.0
5943,55.0,49.0,120.0,12.0,0.0
5944,58.0,0.0,120.0,12.0,0.0
5945,69.0,4.0,60.0,2.0,0.0
5946,72.0,0.0,60.0,2.0,0.0
5947,60.0,0.0,60.0,3.0,0.0
5948,57.0,41.0,60.0,3.0,0.0
5949,67.0,0.0,60.0,2.0,0.0
5950,70.0,4.0,60.0,2.0,0.0
5951,58.0,0.0,60.0,3.0,0.0
5952,55.0,4.0,60.0,3.0,0.0
5953,69.0,1.0,120.0,10.0,0.0
5954,77.0,0.0,60.0,0.0,0.0
5955,81.0,3.0,60.0,0.0,0.0
5956,65.0,1.0,120.0,11.0,0.0
5957,65.0,0.0,60.0,1.0,0.0
5958,69.0,3.0,60.0,1.0,0.0
5959,53.0,53.0,60.0,2.0,0.0
5960,57.0,0.0,60.0,2.0,0.0
5961,57.0,0.0,120.0,12.0,0.0
5962,53.0,0.0,120.0,12.0,0.0
5963,57.0,0.0,60.0,3.0,0.0
5964,53.0,5.0,60.0,3.0,0.0
5965,41.0,0.0,120.0,13.0,0.0
5966,82.0,0.0,60.0,0.0,0.0
5967,79.0,2.0,60.0,0.0,0.0
5968,70.0,0.0,60.0,1.0,0.0
5969,67.0,3.0,60.0,1.0,0.0
5970,58.0,5.0,60.0,2.0,0.0
5971,55.0,0.0,60.0,2.0,0.0
5972,72.0,1.0,120.0,10.0,0.0
5973,84.0,0.0,60.0,0.0,0.0
5974,81.0,3.0,60.0,0.0,0.0
5975,69.0,1.0,120.0,11.0,0.0
5976,69.0,0.0,60.0,1.0,0.0
5977,72.0,3.0,60.0,1.0,0.0
5978,60.0,0.0,120.0,12.0,0.0
5979,57.0,53.0,60.0,2.0,0.0
5980,60.0,0.0,60.0,2.0,0.0
5981,57.0,0.0,120.0,12.0,0.0
5982,45.0,49.0,15.0,13.0,0.0
5983,48.0,0.0,120.0,13.0,0.0
5984,82.0,2.0,60.0,0.0,0.0
5985,86.0,0.0,60.0,0.0,0.0
5986,70.0,3.0,60.0,1.0,0.0
5987,74.0,0.0,60.0,1.0,0.0
5988,58.0,0.0,60.0,2.0,0.0
5989,62.0,5.0,60.0,2.0,0.0
5990,77.0,1.0,120.0,10.0,0.0
5991,84.0,0.0,60.0,0.0,0.0
5992,88.0,3.0,60.0,0.0,0.0
5993,74.0,1.0,120.0,11.0,0.0
5994,76.0,3.0,60.0,1.0,0.0
5995,72.0,0.0,60.0,1.0,0.0
5996,64.0,4.0,60.0,2.0,0.0
5997,65.0,0.0,120.0,12.0,0.0
5998,62.0,0.0,120.0,12.0,0.0
5999,60.0,0.0,60.0,2.0,0.0
6000,48.0,49.0,60.0,3.0,0.0
6001,52.0,0.0,60.0,3.0,0.0
6002,50.0,0.0,120.0,13.0,0.0
6003,53.0,49.0,120.0,13.0,0.0
6004,89.0,0.0,60.0,0.0,0.0
6005,86.0,2.0,60.0,0.0,0.0
6006,77.0,3.0,60.0,1.0,0.0
6007,74.0,0.0,60.0,1.0,0.0
6008,65.0,0.0,60.0,2.0,0.0
6009,62.0,4.0,60.0,2.0,0.0
6010,53.0,0.0,60.0,3.0,0.0
6011,50.0,1.0,60.0,3.0,0.0
6012,74.0,3.0,120.0,10.0,0.0
6013,84.0,0.0,60.0,0.0,0.0
6014,88.0,3.0,60.0,0.0,0.0
6015,70.0,4.0,120.0,11.0,0.0
6016,76.0,3.0,60.0,1.0,0.0
6017,72.0,0.0,60.0,1.0,0.0
6018,64.0,0.0,60.0,2.0,0.0
6019,58.0,0.0,120.0,12.0,0.0
6020,62.0,5.0,120.0,12.0,0.0
6021,60.0,4.0,60.0,2.0,0.0
6022,52.0,35.0,60.0,3.0,0.0
6023,48.0,0.0,60.0,3.0,0.0
6024,50.0,0.0,120.0,13.0,0.0
6025,86.0,0.0,60.0,0.0,0.0
6026,82.0,3.0,60.0,0.0,0.0
6027,74.0,3.0,60.0,1.0,0.0
6028,70.0,0.0,60.0,1.0,0.0
6029,58.0,4.0,60.0,2.0,0.0
6030,62.0,0.0,60.0,2.0,0.0
6031,50.0,0.0,60.0,3.0,0.0
6032,46.0,4.0,60.0,3.0,0.0
6033,70.0,1.0,120.0,10.0,0.0
6034,81.0,3.0,60.0,0.0,0.0
6035,84.0,0.0,60.0,0.0,0.0
6036,67.0,1.0,120.0,11.0,0.0
6037,69.0,0.0,60.0,1.0,0.0
6038,72.0,3.0,60.0,1.0,0.0
6039,55.0,0.0,120.0,12.0,0.0
6040,58.0,0.0,120.0,12.0,0.0
6041,60.0,0.0,60.0,2.0,0.0
6042,57.0,4.0,60.0,2.0,0.0
6043,48.0,49.0,60.0,3.0,0.0
6044,45.0,0.0,60.0,3.0,0.0
6045,46.0,49.0,15.0,13.0,0.0
6046,43.0,49.0,120.0,13.0,0.0
6047,79.0,0.0,60.0,0.0,0.0
6048,82.0,2.0,60.0,0.0,0.0
6049,67.0,3.0,60.0,1.0,0.0
6050,70.0,0.0,60.0,1.0,0.0
6051,58.0,0.0,60.0,2.0,0.0
6052,55.0,4.0,60.0,2.0,0.0
6053,46.0,0.0,60.0,3.0,0.0
6054,43.0,1.0,60.0,3.0,0.0
6055,69.0,1.0,120.0,10.0,0.0
6056,77.0,0.0,60.0,0.0,0.0
6057,81.0,3.0,60.0,0.0,0.0
6058,65.0,1.0,120.0,11.0,0.0
6059,69.0,0.0,60.0,1.0,0.0
6060,65.0,3.0,60.0,1.0,0.0
6061,53.0,4.0,60.0,2.0,0.0
6062,57.0,0.0,60.0,2.0,0.0
6063,57.0,0.0,120.0,12.0,0.0
6064,53.0,0.0,120.0,12.0,0.0
6065,45.0,0.0,60.0,3.0,0.0
6066,41.0,49.0,60.0,3.0,0.0
6067,41.0,0.0,120.0,13.0,0.0
6068,79.0,2.0,60.0,0.0,0.0
6069,82.0,0.0,60.0,0.0,0.0
6070,67.0,3.0,60.0,1.0,0.0
6071,70.0,0.0,60.0,1.0,0.0
6072,55.0,0.0,60.0,2.0,0.0
6073,58.0,4.0,60.0,2.0,0.0
6074,43.0,1.0,60.0,3.0,0.0
6075,46.0,0.0,60.0,3.0,0.0
6076,72.0,1.0,120.0,10.0,0.0
6077,84.0,0.0,60.0,0.0,0.0
6078,81.0,3.0,60.0,0.0,0.0
6079,69.0,1.0,120.0,11.0,0.0
6080,69.0,3.0,60.0,1.0,0.0
6081,72.0,0.0,60.0,1.0,0.0
6082,57.0,0.0,120.0,12.0,0.0
6083,60.0,4.0,120.0,12.0,0.0
6084,60.0,4.0,60.0,2.0,0.0
6085,57.0,0.0,60.0,2.0,0.0
6086,48.0,49.0,60.0,3.0,0.0
6087,45.0,0.0,60.0,3.0,0.0
6088,48.0,49.0,120.0,13.0,0.0
6089,45.0,49.0,15.0,13.0,0.0
6090,82.0,2.0,60.0,0.0,0.0
6091,86.0,0.0,60.0,0.0,0.0
6092,74.0,3.0,60.0,1.0,0.0
6093,70.0,0.0,60.0,1.0,0.0
6094,58.0,0.0,60.0,2.0,0.0
6095,62.0,0.0,60.0,2.0,0.0
6096,50.0,1.0,60.0,3.0,0.0
6097,46.0,0.0,60.0,3.0,0.0
6098,77.0,3.0,120.0,10.0,0.0
6099,84.0,3.0,60.0,0.0,0.0
6100,88.0,0.0,60.0,0.0,0.0
6101,74.0,4.0,120.0,11.0,0.0
6102,72.0,3.0,60.0,1.0,0.0
6103,76.0,0.0,60.0,1.0,0.0
6104,64.0,0.0,60.0,2.0,0.0
6105,65.0,0.0,120.0,12.0,0.0
6106,62.0,5.0,120.0,12.0,0.0
6107,60.0,4.0,60.0,2.0,0.0
6108,52.0,0.0,60.0,3.0,0.0
6109,48.0,35.0,60.0,3.0,0.0
6110,50.0,49.0,120.0,13.0,0.0
6111,53.0,0.0,120.0,13.0,0.0
6112,89.0,0.0,60.0,0.0,0.0
6113,86.0,3.0,60.0,0.0,0.0
6114,74.0,3.0,60.0,1.0,0.0
6115,77.0,0.0,60.0,1.0,0.0
6116,65.0,0.0,60.0,2.0,0.0
6117,62.0,4.0,60.0,2.0,0.0
6118,50.0,0.0,60.0,3.0,0.0
6119,53.0,4.0,60.0,3.0,0.0
6120,70.0,1.0,120.0,10.0,0.0
6121,84.0,3.0,60.0,0.0,0.0
6122,88.0,0.0,60.0,0.0,0.0
6123,67.0,1.0,120.0,11.0,0.0
6124,76.0,0.0,60.0,1.0,0.0
6125,72.0,3.0,60.0,1.0,0.0
6126,64.0,4.0,60.0,2.0,0.0
6127,55.0,4.0,120.0,12.0,0.0
6128,58.0,0.0,120.0,12.0,0.0
6129,60.0,0.0,60.0,2.0,0.0
6130,52.0,0.0,60.0,3.0,0.0
6131,48.0,49.0,60.0,3.0,0.0
6132,43.0,0.0,120.0,13.0,0.0
6133,46.0,49.0,120.0,13.0,0.0
6134,82.0,2.0,60.0,0.0,0.0
6135,86.0,0.0,60.0,0.0,0.0
6136,74.0,3.0,60.0,1.0,0.0
6137,70.0,0.0,60.0,1.0,0.0
6138,58.0,0.0,60.0,2.0,0.0
6139,62.0,0.0,60.0,2.0,0.0
6140,50.0,0.0,60.0,3.0,0.0
6141,46.0,1.0,60.0,3.0,0.0
6142,81.0,3.0,60.0,0.0,0.0
6143,84.0,0.0,60.0,0.0,0.0
6144,69.0,3.0,60.0,1.0,0.0
6145,72.0,0.0,60.0,1.0,0.0
6146,57.0,4.0,60.0,2.0,0.0
6147,60.0,0.0,60.0,2.0,0.0
6148,48.0,35.0,60.0,3.0,0.0
6149,45.0,0.0,60.0,3.0,0.0
6150,79.0,3.0,60.0,0.0,0.0
6151,82.0,0.0,60.0,0.0,0.0
6152,70.0,0.0,60.0,1.0,0.0
6153,67.0,3.0,60.0,1.0,0.0
6154,58.0,4.0,60.0,2.0,0.0
6155,55.0,0.0,60.0,2.0,0.0
6156,46.0,0.0,60.0,3.0,0.0
6157,43.0,64.0,60.0,3.0,0.0
6158,69.0,1.0,60.0,10.0,0.0
6159,81.0,2.0,60.0,0.0,0.0
6160,57.0,1.0,60.0,11.0,0.0
6161,69.0,3.0,60.0,1.0,0.0
6162,57.0,4.0,60.0,2.0,0.0
6163,57.0,0.0,60.0,12.0,0.0
6164,45.0,1.0,60.0,3.0,0.0
6165,45.0,48.0,60.0,13.0,0.0
6166,70.0,3.0,60.0,10.0,0.0
6167,58.0,4.0,60.0,11.0,0.0
6168,58.0,5.0,60.0,12.0,0.0
6169,46.0,48.0,60.0,13.0,0.0
6170,72.0,1.0,60.0,10.0,0.0
6171,84.0,2.0,60.0,0.0,0.0
6172,60.0,1.0,60.0,11.0,0.0
6173,72.0,3.0,60.0,1.0,0.0
6174,60.0,4.0,60.0,12.0,0.0
6175,60.0,0.0,60.0,2.0,0.0
6176,48.0,1.0,60.0,3.0,0.0
6177,48.0,48.0,60.0,13.0,0.0
6178,74.0,3.0,60.0,10.0,0.0
6179,62.0,4.0,60.0,11.0,0.0
6180,62.0,5.0,60.0,12.0,0.0
6181,50.0,48.0,60.0,13.0,0.0
6182,76.0,1.0,60.0,10.0,0.0
6183,89.0,2.0,60.0,0.0,0.0
6184,64.0,1.0,60.0,11.0,0.0
6185,77.0,3.0,60.0,1.0,0.0
6186,64.0,0.0,60.0,12.0,0.0
6187,65.0,4.0,60.0,2.0,0.0
6188,53.0,1.0,60.0,3.0,0.0
6189,52.0,33.0,60.0,13.0,0.0
6190,77.0,3.0,60.0,10.0,0.0
6191,65.0,4.0,60.0,11.0,0.0
6192,65.0,5.0,60.0,12.0,0.0
6193,53.0,63.0,60.0,13.0,0.0
6194,69.0,1.0,60.0,10.0,0.0
6195,81.0,2.0,60.0,0.0,0.0
6196,57.0,1.0,60.0,11.0,0.0
6197,69.0,3.0,60.0,1.0,0.0
6198,57.0,4.0,60.0,2.0,0.0
6199,57.0,0.0,60.0,12.0,0.0
6200,45.0,1.0,60.0,3.0,0.0
6201,45.0,48.0,60.0,13.0,0.0
6202,70.0,3.0,60.0,10.0,0.0
6203,58.0,4.0,60.0,11.0,0.0
6204,58.0,5.0,60.0,12.0,0.0
6205,46.0,48.0,60.0,13.0,0.0
6206,72.0,1.0,60.0,10.0,0.0
6207,84.0,2.0,60.0,0.0,0.0
6208,60.0,1.0,60.0,11.0,0.0
6209,72.0,3.0,60.0,1.0,0.0
6210,60.0,0.0,60.0,12.0,0.0
6211,60.0,4.0,60.0,2.0,0.0
6212,48.0,1.0,60.0,3.0,0.0
6213,48.0,48.0,60.0,13.0,0.0
6214,74.0,3.0,60.0,10.0,0.0
6215,62.0,4.0,60.0,11.0,0.0
6216,62.0,5.0,60.0,12.0,0.0
6217,50.0,48.0,60.0,13.0,0.0
6218,76.0,1.0,60.0,10.0,0.0
6219,89.0,2.0,60.0,0.0,0.0
6220,64.0,1.0,60.0,11.0,0.0
6221,77.0,3.0,60.0,1.0,0.0
6222,64.0,4.0,60.0,12.0,0.0
6223,65.0,0.0,60.0,2.0,0.0
6224,53.0,1.0,60.0,3.0,0.0
6225,52.0,33.0,60.0,13.0,0.0
6226,77.0,3.0,60.0,10.0,0.0
6227,65.0,4.0,60.0,11.0,0.0
6228,65.0,5.0,60.0,12.0,0.0
6229,53.0,63.0,60.0,13.0,0.0
6230,69.0,1.0,60.0,10.0,0.0
6231,81.0,2.0,60.0,0.0,0.0
6232,57.0,1.0,60.0,11.0,0.0
6233,69.0,3.0,60.0,1.0,0.0
6234,57.0,0.0,60.0,2.0,0.0
6235,57.0,4.0,60.0,12.0,0.0
6236,45.0,1.0,60.0,3.0,0.0
6237,33.0,0.0,60.0,3.0,0.0
6238,45.0,3.0,60.0,13.0,0.0
6239,33.0,45.0,60.0,14.0,0.0
6240,70.0,3.0,60.0,10.0,0.0
6241,58.0,4.0,60.0,11.0,0.0
6242,58.0,5.0,60.0,12.0,0.0
6243,46.0,3.0,60.0,13.0,0.0
6244,34.0,45.0,60.0,14.0,0.0
6245,72.0,1.0,60.0,10.0,0.0
6246,84.0,2.0,60.0,0.0,0.0
6247,60.0,1.0,60.0,11.0,0.0
6248,72.0,3.0,60.0,1.0,0.0
6249,60.0,4.0,60.0,2.0,0.0
6250,60.0,0.0,60.0,12.0,0.0
6251,48.0,0.0,60.0,3.0,0.0
6252,36.0,1.0,60.0,3.0,0.0
6253,48.0,3.0,60.0,13.0,0.0
6254,36.0,45.0,60.0,14.0,0.0
6255,74.0,3.0,60.0,10.0,0.0
6256,62.0,4.0,60.0,11.0,0.0
6257,62.0,5.0,60.0,12.0,0.0
6258,50.0,3.0,60.0,13.0,0.0
6259,38.0,45.0,60.0,14.0,0.0
6260,76.0,1.0,60.0,10.0,0.0
6261,89.0,2.0,60.0,0.0,0.0
6262,64.0,1.0,60.0,11.0,0.0
6263,77.0,3.0,60.0,1.0,0.0
6264,65.0,4.0,60.0,2.0,0.0
6265,64.0,0.0,60.0,12.0,0.0
6266,53.0,0.0,60.0,3.0,0.0
6267,41.0,1.0,60.0,3.0,0.0
6268,52.0,3.0,60.0,13.0,0.0
6269,40.0,30.0,60.0,14.0,0.0
6270,77.0,3.0,60.0,10.0,0.0
6271,65.0,4.0,60.0,11.0,0.0
6272,65.0,5.0,60.0,12.0,0.0
6273,53.0,3.0,60.0,13.0,0.0
6274,41.0,25.0,60.0,14.0,0.0
6275,69.0,3.0,30.0,10.0,0.0
6276,81.0,3.0,60.0,0.0,0.0
6277,57.0,4.0,30.0,11.0,0.0
6278,69.0,1.0,60.0,1.0,0.0
6279,57.0,1.0,60.0,2.0,0.0
6280,57.0,5.0,30.0,12.0,0.0
6281,33.0,1.0,60.0,3.0,0.0
6282,45.0,0.0,60.0,3.0,0.0
6283,45.0,3.0,30.0,13.0,0.0
6284,33.0,21.0,30.0,14.0,0.0
6285,70.0,2.0,30.0,10.0,0.0
6286,58.0,3.0,30.0,11.0,0.0
6287,58.0,5.0,30.0,12.0,0.0
6288,46.0,3.0,30.0,13.0,0.0
6289,34.0,25.0,30.0,14.0,0.0
6290,72.0,3.0,30.0,10.0,0.0
6291,60.0,4.0,30.0,11.0,0.0
6292,60.0,5.0,30.0,12.0,0.0
6293,48.0,3.0,30.0,13.0,0.0
6294,36.0,25.0,30.0,14.0,0.0
6295,74.0,3.0,30.0,10.0,0.0
6296,89.0,3.0,60.0,0.0,0.0
6297,62.0,4.0,30.0,11.0,0.0
6298,77.0,1.0,60.0,1.0,0.0
6299,65.0,1.0,60.0,2.0,0.0
6300,62.0,5.0,30.0,12.0,0.0
6301,41.0,0.0,60.0,3.0,0.0
6302,53.0,1.0,60.0,3.0,0.0
6303,50.0,3.0,30.0,13.0,0.0
6304,38.0,21.0,30.0,14.0,0.0
6305,76.0,2.0,30.0,10.0,0.0
6306,64.0,3.0,30.0,11.0,0.0
6307,64.0,5.0,30.0,12.0,0.0
6308,52.0,3.0,30.0,13.0,0.0
6309,40.0,25.0,30.0,14.0,0.0
6310,77.0,3.0,30.0,10.0,0.0
6311,65.0,4.0,30.0,11.0,0.0
6312,65.0,5.0,30.0,12.0,0.0
6313,53.0,3.0,30.0,13.0,0.0
6314,41.0,60.0,30.0,14.0,0.0
6315,79.0,1.0,60.0,10.0,0.0
6316,93.0,2.0,60.0,0.0,0.0
6317,67.0,1.0,60.0,11.0,0.0
6318,81.0,3.0,60.0,1.0,0.0
6319,69.0,0.0,60.0,2.0,0.0
6320,67.0,4.0,60.0,12.0,0.0
6321,57.0,0.0,60.0,3.0,0.0
6322,45.0,1.0,60.0,3.0,0.0
6323,55.0,3.0,60.0,13.0,0.0
6324,43.0,30.0,60.0,14.0,0.0
6325,81.0,3.0,60.0,10.0,0.0
6326,69.0,4.0,60.0,11.0,0.0
6327,69.0,5.0,60.0,12.0,0.0
6328,57.0,3.0,60.0,13.0,0.0
6329,45.0,345.0,60.0,14.0,0.0
6330,81.0,3.0,240.0,10.0,0.0
6331,81.0,3.0,240.0,0.0,0.0
6332,64.0,0.0,240.0,11.0,0.0
6333,73.0,4.0,240.0,11.0,0.0
6334,69.0,3.0,240.0,1.0,0.0
6335,73.0,0.0,240.0,1.0,0.0
6336,64.0,0.0,240.0,2.0,0.0
6337,69.0,4.0,240.0,2.0,0.0
6338,57.0,5.0,240.0,12.0,0.0
6339,64.0,0.0,240.0,12.0,0.0
6340,45.0,0.0,240.0,3.0,0.0
6341,33.0,49.0,240.0,3.0,0.0
6342,45.0,3.0,240.0,13.0,0.0
6343,33.0,1.0,240.0,14.0,0.0
6344,78.0,1.0,60.0,10.0,0.0
6345,78.0,2.0,60.0,0.0,0.0
6346,66.0,0.0,60.0,11.0,0.0
6347,74.0,1.0,60.0,11.0,0.0
6348,74.0,0.0,60.0,1.0,0.0
6349,66.0,3.0,60.0,1.0,0.0
6350,66.0,0.0,60.0,12.0,0.0
6351,57.0,0.0,60.0,12.0,0.0
6352,66.0,4.0,60.0,2.0,0.0
6353,69.0,0.0,60.0,2.0,0.0
6354,50.0,0.0,60.0,3.0,0.0
6355,38.0,1.0,60.0,3.0,0.0
6356,50.0,3.0,60.0,13.0,0.0
6357,38.0,390.0,60.0,14.0,0.0
6358,82.0,3.0,240.0,10.0,0.0
6359,82.0,3.0,240.0,0.0,0.0
6360,70.0,4.0,240.0,11.0,0.0
6361,74.0,0.0,240.0,11.0,0.0
6362,70.0,0.0,240.0,1.0,0.0
6363,74.0,3.0,240.0,1.0,0.0
6364,70.0,0.0,240.0,2.0,0.0
6365,58.0,5.0,240.0,12.0,0.0
6366,67.0,1.0,240.0,2.0,0.0
6367,67.0,0.0,240.0,12.0,0.0
6368,55.0,0.0,240.0,5.0,0.0
6369,58.0,3.0,240.0,5.0,0.0
6370,31.0,0.0,240.0,3.0,0.0
6371,43.0,49.0,240.0,3.0,0.0
6372,43.0,3.0,240.0,13.0,0.0
6373,31.0,1.0,240.0,14.0,0.0
6374,76.0,1.0,60.0,10.0,0.0
6375,76.0,2.0,60.0,0.0,0.0
6376,70.0,1.0,60.0,11.0,0.0
6377,67.0,0.0,60.0,11.0,0.0
6378,67.0,0.0,60.0,1.0,0.0
6379,76.0,3.0,60.0,1.0,0.0
6380,58.0,0.0,60.0,12.0,0.0
6381,70.0,1.0,60.0,2.0,0.0
6382,64.0,0.0,60.0,2.0,0.0
6383,67.0,0.0,60.0,12.0,0.0
6384,55.0,3.0,60.0,5.0,0.0
6385,43.0,0.0,60.0,5.0,0.0
6386,55.0,1.0,60.0,3.0,0.0
6387,43.0,0.0,60.0,3.0,0.0
6388,55.0,3.0,60.0,13.0,0.0
6389,43.0,390.0,60.0,14.0,0.0
6390,81.0,3.0,240.0,10.0,0.0
6391,81.0,3.0,240.0,0.0,0.0
6392,73.0,0.0,240.0,11.0,0.0
6393,64.0,4.0,240.0,11.0,0.0
6394,69.0,3.0,240.0,1.0,0.0
6395,73.0,0.0,240.0,1.0,0.0
6396,64.0,0.0,240.0,2.0,0.0
6397,64.0,5.0,240.0,12.0,0.0
6398,57.0,0.0,240.0,12.0,0.0
6399,33.0,0.0,240.0,3.0,0.0
6400,45.0,49.0,240.0,3.0,0.0
6401,45.0,3.0,240.0,13.0,0.0
6402,33.0,1.0,240.0,14.0,0.0
6403,78.0,1.0,60.0,10.0,0.0
6404,78.0,2.0,60.0,0.0,0.0
6405,66.0,0.0,60.0,11.0,0.0
6406,74.0,1.0,60.0,11.0,0.0
6407,66.0,3.0,60.0,1.0,0.0
6408,74.0,0.0,60.0,1.0,0.0
6409,66.0,0.0,60.0,2.0,0.0
6410,69.0,4.0,15.0,2.0,0.0
6411,66.0,0.0,60.0,12.0,0.0
6412,57.0,4.0,60.0,12.0,0.0
6413,50.0,1.0,60.0,3.0,0.0
6414,38.0,0.0,60.0,3.0,0.0
6415,50.0,3.0,60.0,13.0,0.0
6416,38.0,390.0,60.0,14.0,0.0
6417,86.0,3.0,240.0,10.0,0.0
6418,82.0,3.0,240.0,0.0,0.0
6419,74.0,0.0,240.0,11.0,0.0
6420,70.0,4.0,240.0,11.0,0.0
6421,74.0,0.0,240.0,1.0,0.0
6422,70.0,3.0,240.0,1.0,0.0
6423,62.0,1.0,240.0,2.0,0.0
6424,67.0,5.0,240.0,12.0,0.0
6425,58.0,0.0,240.0,12.0,0.0
6426,55.0,0.0,240.0,5.0,0.0
6427,58.0,3.0,240.0,5.0,0.0
6428,43.0,49.0,240.0,3.0,0.0
6429,43.0,3.0,240.0,13.0,0.0
6430,31.0,1.0,240.0,14.0,0.0
6431,76.0,1.0,60.0,10.0,0.0
6432,76.0,2.0,60.0,0.0,0.0
6433,67.0,0.0,60.0,11.0,0.0
6434,70.0,1.0,60.0,11.0,0.0
6435,64.0,3.0,60.0,1.0,0.0
6436,70.0,0.0,60.0,1.0,0.0
6437,58.0,0.0,60.0,12.0,0.0
6438,70.0,0.0,15.0,2.0,0.0
6439,64.0,0.0,60.0,2.0,0.0
6440,67.0,1.0,60.0,12.0,0.0
6441,48.0,3.0,60.0,5.0,0.0
6442,60.0,0.0,60.0,5.0,0.0
6443,36.0,1.0,60.0,3.0,0.0
6444,48.0,0.0,60.0,3.0,0.0
6445,48.0,3.0,60.0,13.0,0.0
6446,36.0,105.0,60.0,14.0,0.0
6447,77.0,1.0,60.0,10.0,0.0
6448,77.0,2.0,60.0,0.0,0.0
6449,69.0,1.0,60.0,11.0,0.0
6450,65.0,0.0,60.0,11.0,0.0
6451,65.0,0.0,60.0,1.0,0.0
6452,69.0,3.0,60.0,1.0,0.0
6453,41.0,0.0,90.0,4.0,0.0
6454,53.0,45.0,90.0,4.0,0.0
6455,60.0,0.0,60.0,12.0,0.0
6456,57.0,1.0,60.0,12.0,0.0
6457,65.0,0.0,60.0,2.0,0.0
6458,69.0,0.0,60.0,2.0,0.0
6459,60.0,0.0,60.0,5.0,0.0
6460,48.0,3.0,60.0,5.0,0.0
6461,41.0,1.0,60.0,3.0,0.0
6462,41.0,3.0,60.0,13.0,0.0
6463,29.0,30.0,60.0,14.0,0.0
6464,84.0,3.0,30.0,10.0,0.0
6465,79.0,3.0,60.0,0.0,0.0
6466,83.0,0.0,60.0,0.0,0.0
6467,72.0,28.0,30.0,11.0,0.0
6468,67.0,0.0,60.0,1.0,0.0
6469,71.0,3.0,60.0,1.0,0.0
6470,41.0,0.0,210.0,4.0,0.0
6471,53.0,15.0,210.0,4.0,0.0
6472,67.0,0.0,60.0,2.0,0.0
6473,71.0,4.0,60.0,2.0,0.0
6474,62.0,0.0,60.0,12.0,0.0
6475,50.0,1.0,60.0,3.0,0.0
6476,50.0,3.0,60.0,13.0,0.0
6477,29.0,30.0,240.0,14.0,0.0
6478,83.0,3.0,60.0,10.0,0.0
6479,71.0,79.0,60.0,11.0,0.0
6480,79.0,1.0,60.0,10.0,0.0
6481,84.0,2.0,60.0,0.0,0.0
6482,79.0,0.0,60.0,0.0,0.0
6483,67.0,1.0,60.0,11.0,0.0
6484,72.0,3.0,60.0,1.0,0.0
6485,67.0,0.0,60.0,1.0,0.0
6486,67.0,0.0,60.0,2.0,0.0
6487,72.0,15.0,60.0,2.0,0.0
6488,65.0,4.0,30.0,12.0,0.0
6489,53.0,1.0,30.0,3.0,0.0
6490,53.0,18.0,30.0,13.0,0.0
6491,64.0,4.0,60.0,12.0,0.0
6492,52.0,1.0,60.0,3.0,0.0
6493,52.0,18.0,60.0,13.0,0.0
6494,84.0,3.0,30.0,10.0,0.0
6495,84.0,0.0,60.0,0.0,0.0
6496,76.0,3.0,60.0,0.0,0.0
6497,72.0,28.0,30.0,11.0,0.0
6498,72.0,0.0,60.0,1.0,0.0
6499,64.0,3.0,60.0,1.0,0.0
6500,41.0,0.0,210.0,4.0,0.0
6501,53.0,15.0,210.0,4.0,0.0
6502,60.0,4.0,60.0,12.0,0.0
6503,72.0,0.0,60.0,2.0,0.0
6504,64.0,0.0,60.0,2.0,0.0
6505,48.0,1.0,60.0,3.0,0.0
6506,48.0,3.0,60.0,13.0,0.0
6507,29.0,30.0,240.0,14.0,0.0
6508,81.0,3.0,60.0,10.0,0.0
6509,69.0,79.0,60.0,11.0,0.0
6510,77.0,1.0,60.0,10.0,0.0
6511,81.0,0.0,60.0,0.0,0.0
6512,77.0,2.0,60.0,0.0,0.0
6513,65.0,1.0,60.0,11.0,0.0
6514,69.0,3.0,60.0,1.0,0.0
6515,65.0,0.0,60.0,1.0,0.0
6516,69.0,15.0,60.0,2.0,0.0
6517,69.0,4.0,30.0,12.0,0.0
6518,65.0,0.0,60.0,2.0,0.0
6519,57.0,1.0,30.0,3.0,0.0
6520,57.0,18.0,30.0,13.0,0.0
6521,65.0,4.0,60.0,12.0,0.0
6522,53.0,1.0,60.0,3.0,0.0
6523,53.0,18.0,60.0,13.0,0.0
6524,82.0,3.0,30.0,10.0,0.0
6525,79.0,0.0,240.0,0.0,0.0
6526,82.0,3.0,240.0,0.0,0.0
6527,58.0,0.0,60.0,6.0,0.0
6528,70.0,2.0,60.0,6.0,0.0
6529,70.0,30.0,30.0,11.0,0.0
6530,67.0,0.0,240.0,1.0,0.0
6531,41.0,2.0,60.0,4.0,0.0
6532,53.0,0.0,60.0,4.0,0.0
6533,62.0,4.0,60.0,12.0,0.0
6534,67.0,0.0,240.0,2.0,0.0
6535,50.0,1.0,60.0,3.0,0.0
6536,50.0,3.0,60.0,13.0,0.0
6537,46.0,0.0,60.0,15.0,0.0
6538,29.0,3.0,60.0,14.0,0.0
6539,79.0,0.0,60.0,10.0,0.0
6540,67.0,72.0,60.0,11.0,0.0
6541,74.0,3.0,30.0,10.0,0.0
6542,62.0,30.0,30.0,11.0,0.0
6543,58.0,0.0,60.0,6.0,0.0
6544,70.0,2.0,60.0,6.0,0.0
6545,41.0,0.0,60.0,4.0,0.0
6546,53.0,2.0,60.0,4.0,0.0
6547,70.0,4.0,60.0,12.0,0.0
6548,58.0,1.0,60.0,3.0,0.0
6549,46.0,0.0,60.0,15.0,0.0
6550,58.0,3.0,60.0,13.0,0.0
6551,41.0,0.0,60.0,14.0,0.0
6552,77.0,3.0,60.0,10.0,0.0
6553,65.0,43.0,60.0,11.0,0.0
6554,76.0,3.0,30.0,10.0,0.0
6555,76.0,2.0,60.0,0.0,0.0
6556,82.0,0.0,60.0,0.0,0.0
6557,64.0,4.0,30.0,11.0,0.0
6558,70.0,0.0,60.0,6.0,0.0
6559,58.0,1.0,60.0,6.0,0.0
6560,70.0,3.0,15.0,1.0,0.0
6561,64.0,0.0,60.0,1.0,0.0
6562,53.0,0.0,60.0,4.0,0.0
6563,41.0,2.0,60.0,4.0,0.0
6564,70.0,23.0,15.0,2.0,0.0
6565,64.0,0.0,60.0,2.0,0.0
6566,67.0,4.0,30.0,12.0,0.0
6567,60.0,4.0,60.0,5.0,0.0
6568,55.0,1.0,30.0,3.0,0.0
6569,55.0,19.0,30.0,13.0,0.0
6570,46.0,3.0,60.0,15.0,0.0
6571,29.0,0.0,60.0,14.0,0.0
6572,79.0,3.0,60.0,10.0,0.0
6573,67.0,19.0,60.0,11.0,0.0
6574,60.0,4.0,30.0,12.0,0.0
6575,48.0,1.0,30.0,3.0,0.0
6576,48.0,78.0,30.0,13.0,0.0
6577,72.0,1.0,60.0,10.0,0.0
6578,77.0,2.0,60.0,0.0,0.0
6579,81.0,0.0,60.0,0.0,0.0
6580,65.0,1.0,60.0,6.0,0.0
6581,53.0,0.0,60.0,6.0,0.0
6582,60.0,0.0,60.0,11.0,0.0
6583,69.0,1.0,60.0,1.0,0.0
6584,65.0,0.0,60.0,1.0,0.0
6585,53.0,0.0,60.0,4.0,0.0
6586,41.0,2.0,60.0,4.0,0.0
6587,69.0,0.0,60.0,12.0,0.0
6588,69.0,1.0,60.0,2.0,0.0
6589,65.0,0.0,60.0,2.0,0.0
6590,60.0,3.0,60.0,5.0,0.0
6591,53.0,1.0,60.0,3.0,0.0
6592,57.0,3.0,60.0,13.0,0.0
6593,41.0,0.0,60.0,15.0,0.0
6594,41.0,75.0,60.0,14.0,0.0
6595,84.0,3.0,30.0,10.0,0.0
6596,83.0,3.0,60.0,0.0,0.0
6597,74.0,0.0,60.0,0.0,0.0
6598,72.0,28.0,30.0,11.0,0.0
6599,71.0,3.0,60.0,1.0,0.0
6600,62.0,0.0,60.0,1.0,0.0
6601,62.0,4.0,60.0,2.0,0.0
6602,62.0,0.0,60.0,12.0,0.0
6603,71.0,0.0,60.0,2.0,0.0
6604,43.0,1.0,60.0,3.0,0.0
6605,50.0,3.0,60.0,13.0,0.0
6606,31.0,0.0,60.0,14.0,0.0
6607,83.0,3.0,60.0,10.0,0.0
6608,71.0,79.0,60.0,11.0,0.0
6609,79.0,1.0,60.0,10.0,0.0
6610,76.0,2.0,60.0,0.0,0.0
6611,79.0,0.0,60.0,0.0,0.0
6612,67.0,1.0,60.0,11.0,0.0
6613,67.0,3.0,60.0,1.0,0.0
6614,64.0,0.0,60.0,1.0,0.0
6615,65.0,5.0,30.0,12.0,0.0
6616,64.0,4.0,60.0,2.0,0.0
6617,67.0,0.0,60.0,2.0,0.0
6618,48.0,4.0,60.0,3.0,0.0
6619,53.0,18.0,30.0,13.0,0.0
6620,36.0,7.0,60.0,14.0,0.0
6621,64.0,5.0,60.0,12.0,0.0
6622,52.0,63.0,60.0,13.0,0.0
6623,84.0,3.0,30.0,10.0,0.0
6624,84.0,0.0,60.0,0.0,0.0
6625,76.0,3.0,60.0,0.0,0.0
6626,72.0,28.0,30.0,11.0,0.0
6627,72.0,3.0,60.0,1.0,0.0
6628,64.0,0.0,60.0,1.0,0.0
6629,72.0,4.0,60.0,2.0,0.0
6630,64.0,0.0,60.0,2.0,0.0
6631,60.0,0.0,60.0,12.0,0.0
6632,45.0,1.0,60.0,3.0,0.0
6633,48.0,3.0,60.0,13.0,0.0
6634,33.0,3.0,60.0,14.0,0.0
6635,81.0,0.0,60.0,10.0,0.0
6636,69.0,79.0,60.0,11.0,0.0
6637,77.0,1.0,60.0,10.0,0.0
6638,77.0,2.0,60.0,0.0,0.0
6639,81.0,0.0,60.0,0.0,0.0
6640,65.0,1.0,60.0,11.0,0.0
6641,65.0,0.0,60.0,1.0,0.0
6642,69.0,3.0,60.0,1.0,0.0
6643,65.0,0.0,60.0,2.0,0.0
6644,69.0,5.0,30.0,12.0,0.0
6645,69.0,4.0,60.0,2.0,0.0
6646,50.0,4.0,60.0,3.0,0.0
6647,57.0,18.0,30.0,13.0,0.0
6648,38.0,7.0,60.0,14.0,0.0
6649,65.0,5.0,60.0,12.0,0.0
6650,53.0,63.0,60.0,13.0,0.0
6651,82.0,3.0,30.0,10.0,0.0
6652,79.0,0.0,240.0,0.0,0.0
6653,82.0,3.0,240.0,0.0,0.0
6654,70.0,30.0,30.0,11.0,0.0
6655,58.0,0.0,60.0,6.0,0.0
6656,70.0,4.0,60.0,6.0,0.0
6657,67.0,3.0,240.0,1.0,0.0
6658,67.0,0.0,240.0,2.0,0.0
6659,62.0,4.0,60.0,12.0,0.0
6660,43.0,1.0,60.0,3.0,0.0
6661,46.0,0.0,60.0,15.0,0.0
6662,50.0,3.0,60.0,13.0,0.0
6663,31.0,3.0,60.0,14.0,0.0
6664,79.0,0.0,60.0,10.0,0.0
6665,67.0,72.0,60.0,11.0,0.0
6666,74.0,3.0,30.0,10.0,0.0
6667,62.0,30.0,30.0,11.0,0.0
6668,70.0,0.0,60.0,6.0,0.0
6669,58.0,4.0,60.0,6.0,0.0
6670,70.0,4.0,60.0,12.0,0.0
6671,48.0,1.0,60.0,3.0,0.0
6672,58.0,3.0,60.0,13.0,0.0
6673,46.0,0.0,60.0,15.0,0.0
6674,36.0,0.0,60.0,14.0,0.0
6675,77.0,3.0,60.0,10.0,0.0
6676,65.0,43.0,60.0,11.0,0.0
6677,76.0,3.0,30.0,10.0,0.0
6678,82.0,2.0,60.0,0.0,0.0
6679,76.0,0.0,60.0,0.0,0.0
6680,58.0,1.0,60.0,6.0,0.0
6681,64.0,4.0,30.0,11.0,0.0
6682,70.0,0.0,60.0,6.0,0.0
6683,70.0,0.0,15.0,1.0,0.0
6684,64.0,0.0,60.0,1.0,0.0
6685,64.0,1.0,60.0,2.0,0.0
6686,70.0,23.0,15.0,2.0,0.0
6687,67.0,5.0,30.0,12.0,0.0
6688,60.0,3.0,60.0,5.0,0.0
6689,36.0,1.0,60.0,3.0,0.0
6690,55.0,19.0,30.0,13.0,0.0
6691,46.0,3.0,60.0,15.0,0.0
6692,24.0,0.0,60.0,14.0,0.0
6693,79.0,3.0,60.0,10.0,0.0
6694,67.0,19.0,60.0,11.0,0.0
6695,60.0,5.0,30.0,12.0,0.0
6696,48.0,78.0,30.0,13.0,0.0
6697,72.0,1.0,60.0,10.0,0.0
6698,81.0,0.0,60.0,0.0,0.0
6699,77.0,2.0,60.0,0.0,0.0
6700,60.0,0.0,60.0,11.0,0.0
6701,53.0,1.0,60.0,6.0,0.0
6702,65.0,0.0,60.0,6.0,0.0
6703,69.0,0.0,60.0,1.0,0.0
6704,65.0,1.0,60.0,1.0,0.0
6705,41.0,2.0,60.0,4.0,0.0
6706,53.0,0.0,60.0,4.0,0.0
6707,65.0,0.0,60.0,2.0,0.0
6708,69.0,1.0,60.0,12.0,0.0
6709,60.0,0.0,60.0,12.0,0.0
6710,69.0,0.0,60.0,2.0,0.0
6711,60.0,3.0,60.0,5.0,0.0
6712,41.0,1.0,60.0,3.0,0.0
6713,41.0,3.0,60.0,13.0,0.0
6714,41.0,0.0,60.0,15.0,0.0
6715,29.0,75.0,60.0,14.0,0.0
6716,76.0,3.0,30.0,10.0,0.0
6717,82.0,3.0,60.0,0.0,0.0
6718,79.0,0.0,60.0,0.0,0.0
6719,64.0,28.0,30.0,11.0,0.0
6720,70.0,0.0,60.0,1.0,0.0
6721,67.0,3.0,60.0,1.0,0.0
6722,70.0,0.0,60.0,2.0,0.0
6723,64.0,0.0,60.0,2.0,0.0
6724,70.0,1.0,60.0,12.0,0.0
6725,60.0,0.0,60.0,12.0,0.0
6726,60.0,3.0,60.0,5.0,0.0
6727,48.0,1.0,60.0,3.0,0.0
6728,48.0,3.0,60.0,13.0,0.0
6729,36.0,0.0,60.0,14.0,0.0
6730,79.0,3.0,60.0,10.0,0.0
6731,67.0,102.0,60.0,11.0,0.0
6732,72.0,1.0,60.0,10.0,0.0
6733,81.0,0.0,60.0,0.0,0.0
6734,77.0,2.0,60.0,0.0,0.0
6735,60.0,1.0,60.0,11.0,0.0
6736,53.0,0.0,60.0,6.0,0.0
6737,65.0,0.0,60.0,6.0,0.0
6738,65.0,0.0,60.0,1.0,0.0
6739,69.0,1.0,60.0,1.0,0.0
6740,53.0,0.0,60.0,4.0,0.0
6741,41.0,2.0,60.0,4.0,0.0
6742,69.0,0.0,60.0,12.0,0.0
6743,60.0,1.0,60.0,12.0,0.0
6744,65.0,0.0,60.0,2.0,0.0
6745,69.0,0.0,60.0,2.0,0.0
6746,60.0,3.0,60.0,5.0,0.0
6747,53.0,1.0,60.0,3.0,0.0
6748,53.0,0.0,60.0,13.0,0.0
6749,41.0,3.0,60.0,15.0,0.0
6750,41.0,75.0,60.0,14.0,0.0
6751,76.0,3.0,30.0,10.0,0.0
6752,79.0,0.0,60.0,0.0,0.0
6753,82.0,3.0,60.0,0.0,0.0
6754,64.0,28.0,30.0,11.0,0.0
6755,70.0,0.0,60.0,1.0,0.0
6756,67.0,3.0,60.0,1.0,0.0
6757,70.0,0.0,60.0,2.0,0.0
6758,64.0,1.0,60.0,2.0,0.0
6759,70.0,0.0,60.0,12.0,0.0
6760,60.0,0.0,60.0,12.0,0.0
6761,60.0,3.0,60.0,5.0,0.0
6762,36.0,1.0,60.0,3.0,0.0
6763,36.0,3.0,60.0,13.0,0.0
6764,24.0,0.0,60.0,14.0,0.0
6765,79.0,3.0,60.0,10.0,0.0
6766,67.0,102.0,60.0,11.0,0.0
6767,72.0,1.0,60.0,10.0,0.0
6768,77.0,0.0,60.0,0.0,0.0
6769,81.0,2.0,60.0,0.0,0.0
6770,60.0,0.0,60.0,11.0,0.0
6771,53.0,0.0,60.0,6.0,0.0
6772,65.0,1.0,60.0,6.0,0.0
6773,69.0,0.0,60.0,1.0,0.0
6774,65.0,1.0,60.0,1.0,0.0
6775,53.0,2.0,60.0,4.0,0.0
6776,41.0,0.0,60.0,4.0,0.0
6777,69.0,0.0,60.0,2.0,0.0
6778,60.0,0.0,60.0,12.0,0.0
6779,65.0,0.0,60.0,2.0,0.0
6780,69.0,1.0,60.0,12.0,0.0
6781,60.0,3.0,60.0,5.0,0.0
6782,41.0,1.0,60.0,3.0,0.0
6783,41.0,3.0,60.0,13.0,0.0
6784,41.0,0.0,60.0,15.0,0.0
6785,29.0,75.0,60.0,14.0,0.0
6786,76.0,3.0,30.0,10.0,0.0
6787,82.0,0.0,60.0,0.0,0.0
6788,79.0,3.0,60.0,0.0,0.0
6789,64.0,28.0,30.0,11.0,0.0
6790,70.0,3.0,60.0,1.0,0.0
6791,67.0,0.0,60.0,1.0,0.0
6792,70.0,0.0,60.0,12.0,0.0
6793,60.0,0.0,60.0,12.0,0.0
6794,70.0,0.0,60.0,2.0,0.0
6795,64.0,1.0,60.0,2.0,0.0
6796,60.0,3.0,60.0,5.0,0.0
6797,48.0,1.0,60.0,3.0,0.0
6798,48.0,3.0,60.0,13.0,0.0
6799,36.0,0.0,60.0,14.0,0.0
6800,79.0,3.0,60.0,10.0,0.0
6801,67.0,102.0,60.0,11.0,0.0
6802,72.0,1.0,60.0,10.0,0.0
6803,77.0,2.0,60.0,0.0,0.0
6804,81.0,0.0,60.0,0.0,0.0
6805,65.0,0.0,60.0,6.0,0.0
6806,60.0,1.0,60.0,11.0,0.0
6807,53.0,0.0,60.0,6.0,0.0
6808,69.0,0.0,60.0,1.0,0.0
6809,65.0,1.0,60.0,1.0,0.0
6810,53.0,0.0,60.0,4.0,0.0
6811,41.0,2.0,60.0,4.0,0.0
6812,65.0,0.0,60.0,2.0,0.0
6813,60.0,1.0,60.0,12.0,0.0
6814,69.0,0.0,60.0,12.0,0.0
6815,69.0,0.0,60.0,2.0,0.0
6816,60.0,3.0,60.0,5.0,0.0
6817,53.0,1.0,60.0,3.0,0.0
6818,41.0,3.0,60.0,15.0,0.0
6819,53.0,0.0,60.0,13.0,0.0
6820,41.0,75.0,60.0,14.0,0.0
6821,76.0,3.0,30.0,10.0,0.0
6822,82.0,0.0,60.0,0.0,0.0
6823,79.0,3.0,60.0,0.0,0.0
6824,64.0,28.0,30.0,11.0,0.0
6825,70.0,3.0,60.0,1.0,0.0
6826,67.0,0.0,60.0,1.0,0.0
6827,70.0,0.0,60.0,12.0,0.0
6828,64.0,0.0,60.0,2.0,0.0
6829,70.0,1.0,60.0,2.0,0.0
6830,60.0,0.0,60.0,12.0,0.0
6831,60.0,3.0,60.0,5.0,0.0
6832,36.0,1.0,60.0,3.0,0.0
6833,36.0,3.0,60.0,13.0,0.0
6834,24.0,0.0,60.0,14.0,0.0
6835,79.0,3.0,60.0,10.0,0.0
6836,67.0,102.0,60.0,11.0,0.0
6837,72.0,1.0,60.0,10.0,0.0
6838,81.0,0.0,60.0,0.0,0.0
6839,77.0,2.0,60.0,0.0,0.0
6840,60.0,0.0,60.0,11.0,0.0
6841,65.0,1.0,60.0,6.0,0.0
6842,53.0,0.0,60.0,6.0,0.0
6843,65.0,1.0,60.0,1.0,0.0
6844,69.0,0.0,60.0,1.0,0.0
6845,41.0,2.0,60.0,4.0,0.0
6846,53.0,0.0,60.0,4.0,0.0
6847,60.0,0.0,60.0,12.0,0.0
6848,69.0,1.0,60.0,2.0,0.0
6849,65.0,0.0,60.0,2.0,0.0
6850,69.0,0.0,60.0,12.0,0.0
6851,60.0,3.0,60.0,5.0,0.0
6852,41.0,1.0,60.0,3.0,0.0
6853,41.0,0.0,60.0,15.0,0.0
6854,41.0,3.0,60.0,13.0,0.0
6855,29.0,117.0,60.0,14.0,0.0
6856,48.0,3.0,60.0,13.0,0.0
6857,36.0,195.0,60.0,14.0,0.0
6858,53.0,3.0,840.0,13.0,0.0
6859,41.0,67.0,840.0,14.0,0.0
6860,63.0,45.0,30.0,10.0,0.0
6861,58.0,4.0,120.0,11.0,0.0
6862,55.0,53.0,120.0,12.0,0.0
6863,67.0,48.0,60.0,10.0,0.0
6864,60.0,48.0,60.0,10.0,0.0
6865,57.0,4.0,120.0,11.0,0.0
6866,53.0,38.0,120.0,12.0,0.0
6867,63.0,45.0,30.0,10.0,0.0
6868,58.0,4.0,120.0,11.0,0.0
6869,55.0,53.0,120.0,12.0,0.0
6870,67.0,48.0,60.0,10.0,0.0
6871,60.0,48.0,60.0,10.0,0.0
6872,57.0,4.0,120.0,11.0,0.0
6873,53.0,38.0,120.0,12.0,0.0
6874,63.0,45.0,30.0,10.0,0.0
6875,58.0,4.0,120.0,11.0,0.0
6876,55.0,53.0,120.0,12.0,0.0
6877,67.0,48.0,60.0,10.0,0.0
6878,60.0,48.0,60.0,10.0,0.0
6879,57.0,4.0,120.0,11.0,0.0
6880,53.0,5.0,120.0,12.0,0.0
6881,60.0,5.0,60.0,12.0,0.0
6882,48.0,202.0,60.0,13.0,0.0
6883,65.0,27.0,840.0,12.0,0.0
6884,53.0,10.0,1680.0,13.0,0.0
6885,75.0,75.0,30.0,1.0,0.0
6886,70.0,0.0,120.0,2.0,0.0
6887,67.0,57.0,120.0,2.0,0.0
6888,79.0,18.0,60.0,1.0,0.0
6889,72.0,48.0,60.0,1.0,0.0
6890,65.0,42.0,120.0,2.0,0.0
6891,69.0,0.0,120.0,2.0,0.0
6892,75.0,75.0,30.0,1.0,0.0
6893,67.0,57.0,120.0,2.0,0.0
6894,70.0,0.0,120.0,2.0,0.0
6895,79.0,18.0,60.0,1.0,0.0
6896,72.0,48.0,60.0,1.0,0.0
6897,69.0,0.0,120.0,2.0,0.0
6898,65.0,42.0,120.0,2.0,0.0
6899,74.0,75.0,30.0,1.0,0.0
6900,69.0,0.0,240.0,2.0,0.0
6901,65.0,15.0,240.0,2.0,0.0
6902,77.0,75.0,60.0,1.0,0.0
6903,70.0,48.0,60.0,1.0,0.0
6904,72.0,75.0,30.0,1.0,0.0
6905,67.0,0.0,240.0,2.0,0.0
6906,63.0,42.0,240.0,2.0,0.0
6907,75.0,75.0,60.0,1.0,0.0
6908,70.0,48.0,60.0,1.0,0.0
6909,72.0,75.0,30.0,1.0,0.0
6910,66.0,0.0,240.0,2.0,0.0
6911,63.0,42.0,240.0,2.0,0.0
6912,75.0,75.0,60.0,1.0,0.0
6913,70.0,48.0,60.0,1.0,0.0
6914,72.0,75.0,30.0,1.0,0.0
6915,63.0,39.0,240.0,2.0,0.0
6916,67.0,0.0,240.0,2.0,0.0
6917,75.0,75.0,60.0,1.0,0.0
6918,70.0,48.0,60.0,1.0,0.0
6919,72.0,75.0,30.0,0.0,0.0
6920,63.0,0.0,120.0,2.0,0.0
6921,75.0,11.0,60.0,0.0,0.0
6922,70.0,66.0,60.0,0.0,0.0
6923,60.0,54.0,15.0,2.0,0.0
6924,55.0,0.0,120.0,2.0,0.0
6925,41.0,243.0,480.0,13.0,0.0
6926,72.0,75.0,30.0,0.0,0.0
6927,55.0,0.0,120.0,2.0,0.0
6928,75.0,21.0,60.0,0.0,0.0
6929,70.0,66.0,60.0,0.0,0.0
6930,51.0,54.0,15.0,2.0,0.0
6931,48.0,0.0,120.0,2.0,0.0
6932,72.0,75.0,30.0,0.0,0.0
6933,48.0,5.0,120.0,2.0,0.0
6934,45.0,0.0,120.0,2.0,0.0
6935,75.0,6.0,60.0,0.0,0.0
6936,70.0,1.0,240.0,10.0,0.0
6937,70.0,2.0,240.0,0.0,0.0
6938,58.0,0.0,240.0,6.0,0.0
6939,58.0,2.0,240.0,11.0,0.0
6940,65.0,0.0,240.0,6.0,0.0
6941,46.0,0.0,240.0,4.0,0.0
6942,53.0,2.0,240.0,4.0,0.0
6943,58.0,5.0,240.0,12.0,0.0
6944,46.0,0.0,240.0,2.0,0.0
6945,46.0,3.0,240.0,13.0,0.0
6946,34.0,105.0,240.0,14.0,0.0
6947,69.0,3.0,60.0,10.0,0.0
6948,57.0,4.0,60.0,11.0,0.0
6949,57.0,5.0,60.0,12.0,0.0
6950,45.0,3.0,60.0,13.0,0.0
6951,33.0,45.0,60.0,14.0,0.0
6952,70.0,3.0,60.0,10.0,0.0
6953,58.0,4.0,60.0,11.0,0.0
6954,58.0,5.0,60.0,12.0,0.0
6955,46.0,3.0,60.0,13.0,0.0
6956,34.0,45.0,60.0,14.0,0.0
6957,74.0,3.0,60.0,10.0,0.0
6958,62.0,4.0,60.0,11.0,0.0
6959,62.0,5.0,60.0,12.0,0.0
6960,50.0,3.0,60.0,13.0,0.0
6961,38.0,105.0,60.0,14.0,0.0
6962,70.0,3.0,120.0,10.0,0.0
6963,58.0,4.0,120.0,11.0,0.0
6964,58.0,5.0,120.0,12.0,0.0
6965,46.0,3.0,120.0,13.0,0.0
6966,34.0,105.0,120.0,14.0,0.0
6967,67.0,3.0,120.0,10.0,0.0
6968,55.0,4.0,120.0,11.0,0.0
6969,55.0,5.0,120.0,12.0,0.0
6970,43.0,3.0,120.0,13.0,0.0
6971,31.0,105.0,120.0,14.0,0.0
6972,65.0,3.0,120.0,10.0,0.0
6973,53.0,4.0,120.0,11.0,0.0
6974,53.0,5.0,120.0,12.0,0.0
6975,41.0,3.0,120.0,13.0,0.0
6976,29.0,102.0,120.0,14.0,0.0
6977,69.0,3.0,120.0,10.0,0.0
6978,57.0,4.0,120.0,11.0,0.0
6979,57.0,113.0,120.0,12.0,0.0
6980,45.0,3.0,120.0,13.0,0.0
6981,33.0,0.0,120.0,14.0,0.0
6982,70.0,3.0,120.0,10.0,0.0
6983,58.0,4.0,120.0,11.0,0.0
6984,46.0,3.0,120.0,13.0,0.0
6985,34.0,105.0,120.0,14.0,0.0
6986,74.0,3.0,120.0,10.0,0.0
6987,70.0,4.0,120.0,11.0,0.0
6988,62.0,0.0,120.0,12.0,0.0
6989,58.0,5.0,15.0,12.0,0.0
6990,43.0,3.0,120.0,13.0,0.0
6991,31.0,105.0,120.0,14.0,0.0
6992,77.0,3.0,120.0,10.0,0.0
6993,69.0,4.0,120.0,11.0,0.0
6994,65.0,0.0,120.0,12.0,0.0
6995,57.0,5.0,120.0,12.0,0.0
6996,41.0,3.0,120.0,13.0,0.0
6997,29.0,102.0,120.0,14.0,0.0
6998,75.0,3.0,120.0,10.0,0.0
6999,72.0,4.0,120.0,11.0,0.0
7000,60.0,0.0,120.0,12.0,0.0
7001,63.0,113.0,120.0,12.0,0.0
7002,45.0,3.0,120.0,13.0,0.0
7003,33.0,0.0,120.0,14.0,0.0
7004,74.0,3.0,120.0,10.0,0.0
7005,70.0,4.0,120.0,11.0,0.0
7006,58.0,5.0,120.0,12.0,0.0
7007,62.0,0.0,120.0,12.0,0.0
7008,46.0,3.0,120.0,13.0,0.0
7009,34.0,105.0,120.0,14.0,0.0
7010,82.0,3.0,120.0,10.0,0.0
7011,76.0,4.0,120.0,11.0,0.0
7012,70.0,5.0,120.0,12.0,0.0
7013,64.0,0.0,120.0,12.0,0.0
7014,43.0,3.0,120.0,13.0,0.0
7015,31.0,105.0,120.0,14.0,0.0
7016,81.0,3.0,120.0,10.0,0.0
7017,77.0,4.0,120.0,11.0,0.0
7018,69.0,0.0,120.0,12.0,0.0
7019,41.0,3.0,120.0,13.0,0.0
7020,29.0,90.0,120.0,14.0,0.0
7021,77.0,3.0,120.0,10.0,0.0
7022,72.0,4.0,120.0,0.0,0.0
7023,65.0,0.0,240.0,0.0,0.0
7024,72.0,4.0,120.0,11.0,0.0
7025,53.0,6.0,240.0,4.0,0.0
7026,60.0,6.0,120.0,4.0,0.0
7027,60.0,5.0,120.0,12.0,0.0
7028,65.0,5.0,15.0,12.0,0.0
7029,48.0,104.0,120.0,3.0,0.0
7030,45.0,3.0,120.0,13.0,0.0
7031,33.0,1.0,120.0,14.0,0.0
7032,73.0,4.0,120.0,0.0,0.0
7033,61.0,6.0,120.0,4.0,0.0
7034,49.0,1.0,120.0,3.0,0.0
7035,46.0,3.0,120.0,13.0,0.0
7036,34.0,105.0,120.0,14.0,0.0
7037,82.0,1.0,120.0,10.0,0.0
7038,70.0,2.0,120.0,0.0,0.0
7039,64.0,0.0,120.0,0.0,0.0
7040,76.0,2.0,120.0,11.0,0.0
7041,46.0,2.0,120.0,4.0,0.0
7042,58.0,0.0,120.0,4.0,0.0
7043,64.0,4.0,120.0,12.0,0.0
7044,70.0,0.0,120.0,12.0,0.0
7045,46.0,1.0,120.0,3.0,0.0
7046,43.0,3.0,120.0,13.0,0.0
7047,31.0,105.0,120.0,14.0,0.0
7048,81.0,3.0,120.0,10.0,0.0
7049,77.0,4.0,120.0,11.0,0.0
7050,69.0,0.0,120.0,12.0,0.0
7051,41.0,3.0,120.0,13.0,0.0
7052,29.0,90.0,120.0,14.0,0.0
7053,77.0,3.0,120.0,10.0,0.0
7054,72.0,4.0,120.0,11.0,0.0
7055,72.0,120.0,120.0,1.0,0.0
7056,65.0,8.0,240.0,1.0,0.0
7057,65.0,5.0,15.0,12.0,0.0
7058,60.0,5.0,120.0,12.0,0.0
7059,45.0,3.0,120.0,13.0,0.0
7060,33.0,4.0,120.0,14.0,0.0
7061,73.0,0.0,120.0,1.0,0.0
7062,46.0,3.0,120.0,13.0,0.0
7063,34.0,105.0,120.0,14.0,0.0
7064,76.0,3.0,120.0,10.0,0.0
7065,70.0,1.0,120.0,11.0,0.0
7066,64.0,3.0,120.0,1.0,0.0
7067,70.0,0.0,120.0,1.0,0.0
7068,64.0,0.0,120.0,12.0,0.0
7069,58.0,5.0,120.0,12.0,0.0
7070,43.0,3.0,120.0,13.0,0.0
7071,31.0,105.0,120.0,14.0,0.0
7072,77.0,3.0,120.0,10.0,0.0
7073,69.0,4.0,120.0,11.0,0.0
7074,57.0,5.0,120.0,12.0,0.0
7075,65.0,0.0,120.0,12.0,0.0
7076,41.0,3.0,120.0,13.0,0.0
7077,29.0,90.0,120.0,14.0,0.0
7078,72.0,3.0,120.0,10.0,0.0
7079,65.0,4.0,120.0,11.0,0.0
7080,60.0,110.0,120.0,4.0,0.0
7081,53.0,10.0,240.0,4.0,0.0
7082,60.0,5.0,120.0,12.0,0.0
7083,45.0,3.0,120.0,13.0,0.0
7084,33.0,5.0,120.0,14.0,0.0
7085,61.0,7.0,120.0,4.0,0.0
7086,46.0,3.0,120.0,13.0,0.0
7087,34.0,105.0,120.0,14.0,0.0
7088,70.0,3.0,120.0,10.0,0.0
7089,64.0,2.0,120.0,11.0,0.0
7090,46.0,0.0,120.0,4.0,0.0
7091,58.0,2.0,120.0,4.0,0.0
7092,58.0,5.0,120.0,12.0,0.0
7093,52.0,0.0,120.0,12.0,0.0
7094,43.0,3.0,120.0,13.0,0.0
7095,31.0,105.0,120.0,14.0,0.0
7096,69.0,3.0,120.0,10.0,0.0
7097,65.0,4.0,120.0,11.0,0.0
7098,57.0,0.0,120.0,12.0,0.0
7099,41.0,3.0,120.0,13.0,0.0
7100,29.0,90.0,120.0,14.0,0.0
7101,65.0,3.0,120.0,10.0,0.0
7102,72.0,4.0,120.0,0.0,0.0
7103,65.0,4.0,240.0,0.0,0.0
7104,60.0,4.0,120.0,11.0,0.0
7105,60.0,6.0,120.0,4.0,0.0
7106,53.0,6.0,240.0,4.0,0.0
7107,53.0,5.0,15.0,12.0,0.0
7108,48.0,5.0,120.0,12.0,0.0
7109,48.0,104.0,120.0,3.0,0.0
7110,41.0,0.0,240.0,3.0,0.0
7111,45.0,3.0,120.0,13.0,0.0
7112,33.0,1.0,120.0,14.0,0.0
7113,73.0,0.0,120.0,0.0,0.0
7114,61.0,6.0,120.0,4.0,0.0
7115,49.0,1.0,120.0,3.0,0.0
7116,46.0,3.0,120.0,13.0,0.0
7117,34.0,105.0,120.0,14.0,0.0
7118,78.0,1.0,120.0,10.0,0.0
7119,72.0,2.0,120.0,0.0,0.0
7120,66.0,0.0,120.0,0.0,0.0
7121,72.0,2.0,120.0,11.0,0.0
7122,60.0,0.0,120.0,4.0,0.0
7123,54.0,2.0,120.0,4.0,0.0
7124,60.0,4.0,120.0,12.0,0.0
7125,66.0,0.0,120.0,12.0,0.0
7126,48.0,1.0,120.0,3.0,0.0
7127,44.0,0.0,120.0,3.0,0.0
7128,44.0,3.0,120.0,13.0,0.0
7129,32.0,105.0,120.0,14.0,0.0
7130,79.0,1.0,120.0,10.0,0.0
7131,67.0,0.0,120.0,0.0,0.0
7132,71.0,2.0,120.0,0.0,0.0
7133,71.0,2.0,120.0,11.0,0.0
7134,55.0,0.0,120.0,4.0,0.0
7135,59.0,2.0,120.0,4.0,0.0
7136,59.0,4.0,120.0,12.0,0.0
7137,67.0,0.0,120.0,12.0,0.0
7138,47.0,1.0,120.0,3.0,0.0
7139,43.0,0.0,120.0,3.0,0.0
7140,43.0,3.0,120.0,13.0,0.0
7141,31.0,90.0,120.0,14.0,0.0
7142,74.0,3.0,120.0,10.0,0.0
7143,67.0,4.0,120.0,11.0,0.0
7144,67.0,8.0,240.0,1.0,0.0
7145,74.0,120.0,120.0,1.0,0.0
7146,62.0,5.0,120.0,12.0,0.0
7147,47.0,3.0,120.0,13.0,0.0
7148,35.0,4.0,120.0,14.0,0.0
7149,75.0,0.0,120.0,1.0,0.0
7150,48.0,3.0,120.0,13.0,0.0
7151,36.0,105.0,120.0,14.0,0.0
7152,72.0,3.0,120.0,10.0,0.0
7153,66.0,1.0,120.0,11.0,0.0
7154,72.0,0.0,120.0,1.0,0.0
7155,66.0,3.0,120.0,1.0,0.0
7156,60.0,0.0,120.0,12.0,0.0
7157,54.0,5.0,120.0,12.0,0.0
7158,44.0,3.0,120.0,13.0,0.0
7159,32.0,105.0,120.0,14.0,0.0
7160,71.0,3.0,120.0,10.0,0.0
7161,67.0,4.0,120.0,11.0,0.0
7162,59.0,0.0,120.0,12.0,0.0
7163,43.0,3.0,120.0,13.0,0.0
7164,31.0,90.0,120.0,14.0,0.0
7165,67.0,3.0,120.0,10.0,0.0
7166,62.0,4.0,120.0,11.0,0.0
7167,55.0,5.0,15.0,12.0,0.0
7168,50.0,0.0,120.0,12.0,0.0
7169,62.0,110.0,120.0,5.0,0.0
7170,55.0,10.0,240.0,5.0,0.0
7171,47.0,3.0,120.0,13.0,0.0
7172,35.0,8.0,120.0,14.0,0.0
7173,63.0,4.0,120.0,5.0,0.0
7174,48.0,3.0,120.0,13.0,0.0
7175,36.0,105.0,120.0,14.0,0.0
7176,66.0,3.0,120.0,10.0,0.0
7177,60.0,4.0,120.0,11.0,0.0
7178,54.0,0.0,120.0,12.0,0.0
7179,48.0,1.0,120.0,12.0,0.0
7180,48.0,4.0,120.0,5.0,0.0
7181,60.0,0.0,120.0,5.0,0.0
7182,44.0,3.0,120.0,13.0,0.0
7183,32.0,105.0,120.0,14.0,0.0
7184,67.0,3.0,120.0,10.0,0.0
7185,59.0,4.0,120.0,11.0,0.0
7186,47.0,5.0,120.0,12.0,0.0
7187,55.0,0.0,120.0,12.0,0.0
7188,43.0,3.0,120.0,13.0,0.0
7189,31.0,90.0,120.0,14.0,0.0
7190,62.0,3.0,120.0,10.0,0.0
7191,67.0,7.0,240.0,0.0,0.0
7192,74.0,7.0,120.0,0.0,0.0
7193,62.0,4.0,120.0,11.0,0.0
7194,50.0,5.0,120.0,12.0,0.0
7195,55.0,3.0,240.0,5.0,0.0
7196,62.0,3.0,120.0,5.0,0.0
7197,50.0,107.0,120.0,3.0,0.0
7198,43.0,0.0,240.0,3.0,0.0
7199,47.0,3.0,120.0,13.0,0.0
7200,35.0,1.0,120.0,14.0,0.0
7201,75.0,0.0,120.0,0.0,0.0
7202,63.0,3.0,120.0,5.0,0.0
7203,51.0,1.0,120.0,3.0,0.0
7204,48.0,3.0,120.0,13.0,0.0
7205,36.0,105.0,120.0,14.0,0.0
7206,80.0,1.0,120.0,10.0,0.0
7207,74.0,2.0,120.0,0.0,0.0
7208,68.0,0.0,120.0,0.0,0.0
7209,74.0,4.0,120.0,11.0,0.0
7210,46.0,1.0,120.0,12.0,0.0
7211,56.0,3.0,120.0,5.0,0.0
7212,60.0,0.0,120.0,5.0,0.0
7213,46.0,1.0,120.0,3.0,0.0
7214,50.0,0.0,120.0,3.0,0.0
7215,46.0,3.0,120.0,13.0,0.0
7216,34.0,106.0,120.0,14.0,0.0
7217,81.0,3.0,360.0,10.0,0.0
7218,73.0,2.0,120.0,0.0,0.0
7219,69.0,0.0,120.0,0.0,0.0
7220,73.0,4.0,120.0,11.0,0.0
7221,45.0,1.0,120.0,12.0,0.0
7222,61.0,0.0,120.0,5.0,0.0
7223,57.0,3.0,120.0,5.0,0.0
7224,45.0,0.0,120.0,3.0,0.0
7225,49.0,112.0,120.0,3.0,0.0
7226,45.0,3.0,360.0,13.0,0.0
7227,33.0,105.0,360.0,14.0,0.0
7228,76.0,4.0,120.0,11.0,0.0
7229,49.0,113.0,120.0,12.0,0.0
7230,73.0,4.0,120.0,11.0,0.0
7231,52.0,5.0,120.0,12.0,0.0
7232,76.0,12.0,120.0,10.0,0.0
7233,69.0,4.0,240.0,11.0,0.0
7234,57.0,131.0,240.0,12.0,0.0
7235,49.0,3.0,120.0,13.0,0.0
7236,37.0,93.0,120.0,14.0,0.0
7237,77.0,3.0,360.0,10.0,0.0
7238,50.0,3.0,360.0,13.0,0.0
7239,38.0,97.0,360.0,14.0,0.0
7240,74.0,4.0,120.0,11.0,0.0
7241,53.0,113.0,120.0,12.0,0.0
7242,70.0,4.0,120.0,11.0,0.0
7243,58.0,5.0,120.0,12.0,0.0
7244,68.0,3.0,120.0,10.0,0.0
7245,62.0,9.0,120.0,11.0,0.0
7246,62.0,8.0,120.0,12.0,0.0
7247,46.0,3.0,120.0,13.0,0.0
7248,34.0,108.0,120.0,14.0,0.0
7249,69.0,3.0,360.0,10.0,0.0
7250,61.0,4.0,120.0,11.0,0.0
7251,45.0,116.0,120.0,12.0,0.0
7252,45.0,3.0,360.0,13.0,0.0
7253,33.0,105.0,360.0,14.0,0.0
7254,64.0,4.0,120.0,11.0,0.0
7255,49.0,113.0,120.0,12.0,0.0
7256,61.0,4.0,120.0,11.0,0.0
7257,52.0,5.0,120.0,12.0,0.0
7258,64.0,12.0,120.0,10.0,0.0
7259,57.0,4.0,240.0,11.0,0.0
7260,57.0,131.0,240.0,12.0,0.0
7261,49.0,3.0,120.0,13.0,0.0
7262,37.0,93.0,120.0,14.0,0.0
7263,65.0,3.0,480.0,10.0,0.0
7264,50.0,3.0,480.0,13.0,0.0
7265,38.0,112.0,480.0,14.0,0.0
7266,62.0,120.0,120.0,11.0,0.0
7267,58.0,4.0,120.0,11.0,0.0
7268,53.0,4.0,120.0,11.0,0.0
7269,53.0,113.0,15.0,12.0,0.0
7270,56.0,3.0,240.0,10.0,0.0
7271,56.0,4.0,240.0,11.0,0.0
7272,52.0,98.0,120.0,12.0,0.0
7273,46.0,3.0,240.0,13.0,0.0
7274,34.0,240.0,240.0,14.0,0.0
7275,50.0,5.0,120.0,12.0,0.0
7276,57.0,1.0,240.0,10.0,0.0
7277,69.0,2.0,240.0,0.0,0.0
7278,57.0,4.0,240.0,11.0,0.0
7279,57.0,0.0,240.0,2.0,0.0
7280,49.0,4.0,240.0,12.0,0.0
7281,45.0,1.0,240.0,3.0,0.0
7282,45.0,3.0,240.0,13.0,0.0
7283,33.0,105.0,240.0,14.0,0.0
7284,58.0,1.0,60.0,10.0,0.0
7285,70.0,2.0,60.0,0.0,0.0
7286,58.0,4.0,60.0,11.0,0.0
7287,58.0,0.0,60.0,2.0,0.0
7288,46.0,4.0,60.0,12.0,0.0
7289,46.0,1.0,60.0,3.0,0.0
7290,46.0,48.0,60.0,13.0,0.0
7291,57.0,1.0,60.0,10.0,0.0
7292,69.0,2.0,60.0,0.0,0.0
7293,57.0,4.0,60.0,11.0,0.0
7294,57.0,0.0,60.0,2.0,0.0
7295,45.0,4.0,60.0,12.0,0.0
7296,45.0,1.0,60.0,3.0,0.0
7297,45.0,48.0,60.0,13.0,0.0
7298,53.0,1.0,60.0,10.0,0.0
7299,65.0,2.0,60.0,0.0,0.0
7300,53.0,4.0,60.0,11.0,0.0
7301,53.0,4.0,60.0,2.0,0.0
7302,53.0,0.0,60.0,12.0,0.0
7303,41.0,1.0,60.0,3.0,0.0
7304,41.0,108.0,60.0,13.0,0.0
7305,57.0,1.0,120.0,10.0,0.0
7306,69.0,2.0,120.0,0.0,0.0
7307,57.0,4.0,120.0,11.0,0.0
7308,45.0,4.0,120.0,12.0,0.0
7309,57.0,0.0,120.0,2.0,0.0
7310,45.0,1.0,120.0,3.0,0.0
7311,45.0,108.0,120.0,13.0,0.0
7312,61.0,1.0,120.0,10.0,0.0
7313,73.0,2.0,120.0,0.0,0.0
7314,61.0,4.0,120.0,11.0,0.0
7315,49.0,4.0,120.0,12.0,0.0
7316,61.0,0.0,120.0,2.0,0.0
7317,49.0,109.0,120.0,3.0,0.0
7318,62.0,1.0,120.0,10.0,0.0
7319,74.0,2.0,120.0,0.0,0.0
7320,62.0,4.0,120.0,11.0,0.0
7321,62.0,0.0,120.0,2.0,0.0
7322,50.0,4.0,120.0,12.0,0.0
7323,50.0,109.0,120.0,3.0,0.0
7324,70.0,1.0,120.0,10.0,0.0
7325,82.0,2.0,120.0,0.0,0.0
7326,58.0,4.0,120.0,11.0,0.0
7327,70.0,0.0,120.0,2.0,0.0
7328,58.0,4.0,120.0,12.0,0.0
7329,58.0,109.0,120.0,3.0,0.0
7330,69.0,1.0,120.0,10.0,0.0
7331,81.0,2.0,120.0,0.0,0.0
7332,57.0,4.0,120.0,11.0,0.0
7333,69.0,4.0,120.0,2.0,0.0
7334,57.0,0.0,120.0,12.0,0.0
7335,57.0,82.0,120.0,3.0,0.0
7336,37.0,21.0,120.0,13.0,0.0
7337,67.0,12.0,60.0,10.0,0.0
7338,64.0,4.0,30.0,11.0,0.0
7339,58.0,23.0,30.0,12.0,0.0
7340,65.0,45.0,60.0,10.0,0.0
7341,62.0,4.0,30.0,11.0,0.0
7342,57.0,23.0,30.0,12.0,0.0
7343,38.0,81.0,120.0,13.0,0.0
7344,57.0,27.0,60.0,10.0,0.0
7345,46.0,21.0,120.0,13.0,0.0
7346,62.0,12.0,60.0,10.0,0.0
7347,56.0,4.0,30.0,11.0,0.0
7348,50.0,23.0,30.0,12.0,0.0
7349,61.0,45.0,60.0,10.0,0.0
7350,57.0,4.0,30.0,11.0,0.0
7351,52.0,23.0,30.0,12.0,0.0
7352,45.0,78.0,120.0,13.0,0.0
7353,52.0,27.0,60.0,10.0,0.0
7354,73.0,6.0,120.0,0.0,0.0
7355,61.0,0.0,120.0,2.0,0.0
7356,49.0,19.0,120.0,3.0,0.0
7357,64.0,3.0,30.0,10.0,0.0
7358,58.0,28.0,30.0,11.0,0.0
7359,55.0,4.0,60.0,12.0,0.0
7360,69.0,3.0,30.0,10.0,0.0
7361,74.0,6.0,120.0,0.0,0.0
7362,57.0,34.0,30.0,11.0,0.0
7363,62.0,4.0,120.0,2.0,0.0
7364,53.0,45.0,60.0,12.0,0.0
7365,50.0,79.0,120.0,3.0,0.0
7366,62.0,9.0,60.0,12.0,0.0
7367,82.0,6.0,120.0,0.0,0.0
7368,70.0,0.0,120.0,2.0,0.0
7369,58.0,19.0,120.0,3.0,0.0
7370,65.0,3.0,30.0,10.0,0.0
7371,53.0,28.0,30.0,11.0,0.0
7372,50.0,4.0,60.0,12.0,0.0
7373,64.0,3.0,30.0,10.0,0.0
7374,81.0,6.0,120.0,0.0,0.0
7375,57.0,34.0,30.0,11.0,0.0
7376,49.0,45.0,60.0,12.0,0.0
7377,69.0,4.0,120.0,2.0,0.0
7378,57.0,82.0,120.0,3.0,0.0
7379,57.0,9.0,60.0,12.0,0.0
7380,37.0,21.0,120.0,13.0,0.0
7381,67.0,12.0,60.0,10.0,0.0
7382,64.0,4.0,30.0,11.0,0.0
7383,58.0,23.0,30.0,12.0,0.0
7384,65.0,45.0,60.0,10.0,0.0
7385,62.0,4.0,30.0,11.0,0.0
7386,57.0,23.0,30.0,12.0,0.0
7387,38.0,81.0,120.0,13.0,0.0
7388,57.0,27.0,60.0,10.0,0.0
7389,46.0,78.0,240.0,13.0,0.0
7390,64.0,33.0,60.0,10.0,0.0
7391,61.0,4.0,30.0,11.0,0.0
7392,55.0,23.0,30.0,12.0,0.0
7393,62.0,45.0,60.0,10.0,0.0
7394,62.0,4.0,30.0,11.0,0.0
7395,53.0,23.0,30.0,12.0,0.0
7396,53.0,27.0,60.0,10.0,0.0
7397,74.0,6.0,120.0,0.0,0.0
7398,62.0,0.0,120.0,2.0,0.0
7399,50.0,19.0,120.0,3.0,0.0
7400,65.0,3.0,30.0,10.0,0.0
7401,58.0,28.0,30.0,11.0,0.0
7402,57.0,4.0,60.0,12.0,0.0
7403,64.0,3.0,30.0,10.0,0.0
7404,76.0,6.0,120.0,0.0,0.0
7405,58.0,34.0,30.0,11.0,0.0
7406,64.0,4.0,120.0,2.0,0.0
7407,55.0,45.0,60.0,12.0,0.0
7408,52.0,79.0,120.0,3.0,0.0
7409,64.0,9.0,60.0,12.0,0.0
7410,84.0,6.0,240.0,0.0,0.0
7411,72.0,4.0,240.0,2.0,0.0
7412,60.0,82.0,240.0,3.0,0.0
7413,62.0,3.0,30.0,10.0,0.0
7414,57.0,34.0,30.0,11.0,0.0
7415,53.0,23.0,60.0,12.0,0.0
7416,60.0,3.0,30.0,10.0,0.0
7417,55.0,34.0,30.0,11.0,0.0
7418,52.0,45.0,60.0,12.0,0.0
7419,60.0,9.0,60.0,12.0,0.0
7420,40.0,21.0,120.0,13.0,0.0
7421,70.0,12.0,60.0,10.0,0.0
7422,60.0,4.0,30.0,11.0,0.0
7423,55.0,23.0,30.0,12.0,0.0
7424,69.0,45.0,60.0,10.0,0.0
7425,60.0,4.0,30.0,11.0,0.0
7426,57.0,23.0,30.0,12.0,0.0
7427,42.0,81.0,120.0,13.0,0.0
7428,60.0,27.0,60.0,10.0,0.0
7429,50.0,78.0,240.0,13.0,0.0
7430,67.0,33.0,60.0,10.0,0.0
7431,58.0,4.0,30.0,11.0,0.0
7432,60.0,23.0,30.0,12.0,0.0
7433,66.0,45.0,60.0,10.0,0.0
7434,57.0,4.0,30.0,11.0,0.0
7435,60.0,23.0,30.0,12.0,0.0
7436,57.0,27.0,60.0,10.0,0.0
7437,78.0,6.0,120.0,0.0,0.0
7438,66.0,0.0,120.0,2.0,0.0
7439,54.0,19.0,120.0,3.0,0.0
7440,69.0,3.0,30.0,10.0,0.0
7441,62.0,28.0,30.0,11.0,0.0
7442,60.0,4.0,60.0,12.0,0.0
7443,68.0,3.0,30.0,10.0,0.0
7444,80.0,6.0,120.0,0.0,0.0
7445,62.0,34.0,30.0,11.0,0.0
7446,68.0,4.0,120.0,2.0,0.0
7447,59.0,45.0,60.0,12.0,0.0
7448,56.0,82.0,120.0,3.0,0.0
7449,68.0,9.0,60.0,12.0,0.0
7450,88.0,6.0,180.0,0.0,0.0
7451,76.0,0.0,180.0,2.0,0.0
7452,64.0,4.0,120.0,3.0,0.0
7453,44.0,21.0,120.0,13.0,0.0
7454,64.0,7.0,60.0,10.0,0.0
7455,62.0,23.0,30.0,11.0,0.0
7456,59.0,5.0,60.0,12.0,0.0
7457,65.0,1.0,60.0,10.0,0.0
7458,60.0,27.0,30.0,11.0,0.0
7459,60.0,38.0,60.0,12.0,0.0
7460,65.0,1.0,480.0,3.0,0.0
7461,45.0,49.0,120.0,13.0,0.0
7462,60.0,7.0,60.0,10.0,0.0
7463,89.0,6.0,60.0,0.0,0.0
7464,77.0,5.0,60.0,2.0,0.0
7465,53.0,9.0,60.0,12.0,0.0
7466,88.0,6.0,60.0,0.0,0.0
7467,76.0,26.0,60.0,2.0,0.0
7468,53.0,3.0,120.0,13.0,0.0
7469,64.0,7.0,60.0,10.0,0.0
7470,84.0,6.0,60.0,0.0,0.0
7471,60.0,13.0,30.0,11.0,0.0
7472,57.0,26.0,60.0,12.0,0.0
7473,72.0,5.0,60.0,2.0,0.0
7474,62.0,7.0,60.0,10.0,0.0
7475,86.0,6.0,180.0,0.0,0.0
7476,59.0,27.0,30.0,11.0,0.0
7477,74.0,41.0,180.0,2.0,0.0
7478,59.0,38.0,60.0,12.0,0.0
7479,47.0,34.0,120.0,13.0,0.0
7480,59.0,7.0,60.0,10.0,0.0
7481,55.0,20.0,60.0,12.0,0.0
7482,55.0,3.0,120.0,13.0,0.0
7483,62.0,7.0,60.0,10.0,0.0
7484,86.0,6.0,120.0,0.0,0.0
7485,62.0,23.0,30.0,11.0,0.0
7486,74.0,38.0,120.0,2.0,0.0
7487,64.0,1.0,60.0,10.0,0.0
7488,62.0,27.0,30.0,11.0,0.0
7489,59.0,26.0,15.0,12.0,0.0
7490,64.0,1.0,480.0,3.0,0.0
7491,44.0,49.0,120.0,13.0,0.0
7492,59.0,7.0,60.0,10.0,0.0
7493,88.0,6.0,60.0,0.0,0.0
7494,52.0,9.0,60.0,12.0,0.0
7495,76.0,5.0,60.0,2.0,0.0
7496,86.0,6.0,60.0,0.0,0.0
7497,74.0,26.0,60.0,2.0,0.0
7498,52.0,3.0,120.0,13.0,0.0
7499,62.0,7.0,60.0,10.0,0.0
7500,83.0,6.0,60.0,0.0,0.0
7501,59.0,13.0,30.0,11.0,0.0
7502,56.0,26.0,60.0,12.0,0.0
7503,71.0,5.0,60.0,2.0,0.0
7504,60.0,7.0,60.0,10.0,0.0
7505,84.0,6.0,180.0,0.0,0.0
7506,60.0,27.0,30.0,11.0,0.0
7507,72.0,41.0,180.0,2.0,0.0
7508,57.0,38.0,60.0,12.0,0.0
7509,45.0,34.0,120.0,13.0,0.0
7510,57.0,7.0,60.0,10.0,0.0
7511,53.0,20.0,60.0,12.0,0.0
7512,53.0,3.0,120.0,13.0,0.0
7513,60.0,7.0,60.0,10.0,0.0
7514,84.0,6.0,120.0,0.0,0.0
7515,60.0,23.0,30.0,11.0,0.0
7516,72.0,38.0,120.0,2.0,0.0
7517,57.0,26.0,60.0,12.0,0.0
7518,62.0,1.0,60.0,10.0,0.0
7519,60.0,27.0,30.0,11.0,0.0
7520,57.0,0.0,60.0,12.0,0.0
7521,62.0,60.0,540.0,3.0,0.0
7522,42.0,49.0,120.0,13.0,0.0
7523,60.0,7.0,60.0,10.0,0.0
7524,86.0,6.0,60.0,0.0,0.0
7525,50.0,9.0,60.0,12.0,0.0
7526,74.0,5.0,60.0,2.0,0.0
7527,84.0,6.0,60.0,0.0,0.0
7528,72.0,26.0,60.0,2.0,0.0
7529,50.0,3.0,120.0,13.0,0.0
7530,60.0,33.0,60.0,10.0,0.0
7531,81.0,6.0,60.0,0.0,0.0
7532,60.0,4.0,30.0,11.0,0.0
7533,69.0,5.0,60.0,2.0,0.0
7534,57.0,9.0,30.0,12.0,0.0
7535,62.0,1.0,60.0,10.0,0.0
7536,83.0,6.0,60.0,0.0,0.0
7537,59.0,27.0,30.0,11.0,0.0
7538,71.0,38.0,60.0,2.0,0.0
7539,52.0,0.0,60.0,12.0,0.0
7540,44.0,49.0,120.0,13.0,0.0
7541,59.0,16.0,60.0,10.0,0.0
7542,84.0,6.0,60.0,0.0,0.0
7543,72.0,5.0,60.0,2.0,0.0
7544,83.0,6.0,60.0,0.0,0.0
7545,71.0,23.0,60.0,2.0,0.0
7546,52.0,63.0,120.0,13.0,0.0
7547,59.0,3.0,30.0,10.0,0.0
7548,76.0,6.0,60.0,0.0,0.0
7549,59.0,4.0,30.0,11.0,0.0
7550,64.0,5.0,60.0,2.0,0.0
7551,56.0,9.0,30.0,12.0,0.0
7552,62.0,3.0,60.0,10.0,0.0
7553,81.0,2.0,180.0,0.0,0.0
7554,52.0,4.0,60.0,11.0,0.0
7555,59.0,4.0,60.0,12.0,0.0
7556,69.0,54.0,180.0,2.0,0.0
7557,36.0,48.0,120.0,13.0,0.0
7558,59.0,1.0,60.0,3.0,0.0
7559,60.0,1.0,60.0,10.0,0.0
7560,52.0,4.0,60.0,11.0,0.0
7561,57.0,0.0,60.0,12.0,0.0
7562,60.0,45.0,180.0,3.0,0.0
7563,45.0,5.0,120.0,13.0,0.0
7564,79.0,1.0,60.0,0.0,0.0
7565,67.0,53.0,60.0,2.0,0.0
7566,57.0,1.0,60.0,10.0,0.0
7567,77.0,2.0,60.0,0.0,0.0
7568,53.0,4.0,60.0,11.0,0.0
7569,53.0,0.0,60.0,12.0,0.0
7570,65.0,4.0,60.0,2.0,0.0
7571,38.0,48.0,120.0,13.0,0.0
7572,76.0,6.0,60.0,0.0,0.0
7573,64.0,5.0,60.0,2.0,0.0
7574,57.0,5.0,60.0,3.0,0.0
7575,53.0,1.0,60.0,10.0,0.0
7576,74.0,2.0,60.0,0.0,0.0
7577,53.0,4.0,60.0,11.0,0.0
7578,62.0,4.0,60.0,2.0,0.0
7579,50.0,0.0,60.0,12.0,0.0
7580,58.0,35.0,60.0,3.0,0.0
7581,46.0,62.0,120.0,13.0,0.0
7582,77.0,6.0,60.0,0.0,0.0
7583,65.0,4.0,60.0,2.0,0.0
7584,62.0,6.0,60.0,3.0,0.0
7585,57.0,3.0,240.0,10.0,0.0
7586,72.0,3.0,120.0,0.0,0.0
7587,52.0,4.0,240.0,11.0,0.0
7588,60.0,57.0,60.0,1.0,0.0
7589,60.0,4.0,120.0,2.0,0.0
7590,57.0,5.0,240.0,12.0,0.0
7591,40.0,0.0,120.0,3.0,0.0
7592,60.0,4.0,120.0,3.0,0.0
7593,45.0,108.0,240.0,13.0,0.0
7594,28.0,49.0,120.0,14.0,0.0
7595,64.0,3.0,60.0,1.0,0.0
7596,69.0,45.0,60.0,1.0,0.0
7597,72.0,11.0,60.0,1.0,0.0
7598,76.0,0.0,360.0,1.0,0.0
7599,72.0,7.0,360.0,1.0,0.0
7600,60.0,0.0,360.0,3.0,0.0
7601,52.0,4.0,360.0,3.0,0.0
7602,56.0,3.0,60.0,10.0,0.0
7603,56.0,4.0,60.0,11.0,0.0
7604,56.0,5.0,60.0,12.0,0.0
7605,44.0,48.0,60.0,13.0,0.0
7606,57.0,3.0,60.0,10.0,0.0
7607,57.0,4.0,60.0,11.0,0.0
7608,57.0,5.0,60.0,12.0,0.0
7609,45.0,48.0,60.0,13.0,0.0
7610,60.0,3.0,60.0,10.0,0.0
7611,60.0,4.0,60.0,11.0,0.0
7612,60.0,5.0,60.0,12.0,0.0
7613,48.0,97.0,60.0,13.0,0.0
7614,57.0,3.0,120.0,10.0,0.0
7615,57.0,4.0,120.0,11.0,0.0
7616,57.0,5.0,120.0,12.0,0.0
7617,45.0,108.0,120.0,13.0,0.0
7618,53.0,3.0,120.0,10.0,0.0
7619,53.0,4.0,120.0,11.0,0.0
7620,62.0,0.0,360.0,1.0,0.0
7621,68.0,3.0,240.0,1.0,0.0
7622,53.0,5.0,120.0,12.0,0.0
7623,56.0,1.0,240.0,3.0,0.0
7624,50.0,0.0,360.0,3.0,0.0
7625,41.0,108.0,120.0,13.0,0.0
7626,52.0,3.0,120.0,10.0,0.0
7627,52.0,1.0,120.0,11.0,0.0
7628,52.0,4.0,120.0,12.0,0.0
7629,40.0,97.0,120.0,13.0,0.0
7630,71.0,3.0,120.0,1.0,0.0
7631,44.0,4.0,120.0,12.0,0.0
7632,59.0,1.0,120.0,3.0,0.0
7633,32.0,97.0,120.0,13.0,0.0
7634,69.0,0.0,90.0,1.0,0.0
7635,60.0,7.0,90.0,1.0,0.0
7636,45.0,5.0,120.0,12.0,0.0
7637,48.0,11.0,90.0,3.0,0.0
7638,57.0,0.0,90.0,3.0,0.0
7639,33.0,63.0,120.0,13.0,0.0
7640,81.0,1.0,60.0,10.0,0.0
7641,84.0,0.0,60.0,0.0,0.0
7642,81.0,2.0,60.0,0.0,0.0
7643,69.0,1.0,60.0,11.0,0.0
7644,81.0,0.0,60.0,1.0,0.0
7645,72.0,3.0,60.0,1.0,0.0
7646,52.0,0.0,60.0,12.0,0.0
7647,60.0,113.0,60.0,12.0,0.0
7648,64.0,0.0,60.0,2.0,0.0
7649,72.0,0.0,60.0,2.0,0.0
7650,48.0,0.0,240.0,5.0,0.0
7651,60.0,67.0,240.0,5.0,0.0
7652,45.0,1.0,210.0,3.0,0.0
7653,57.0,0.0,210.0,3.0,0.0
7654,57.0,3.0,210.0,13.0,0.0
7655,45.0,3.0,210.0,14.0,0.0
7656,76.0,3.0,60.0,10.0,0.0
7657,64.0,4.0,60.0,11.0,0.0
7658,52.0,39.0,60.0,12.0,0.0
7659,60.0,0.0,60.0,12.0,0.0
7660,77.0,1.0,60.0,10.0,0.0
7661,84.0,0.0,60.0,0.0,0.0
7662,89.0,2.0,60.0,0.0,0.0
7663,65.0,1.0,60.0,11.0,0.0
7664,77.0,0.0,60.0,1.0,0.0
7665,72.0,3.0,60.0,1.0,0.0
7666,72.0,0.0,60.0,2.0,0.0
7667,60.0,113.0,60.0,12.0,0.0
7668,53.0,0.0,60.0,12.0,0.0
7669,65.0,0.0,60.0,2.0,0.0
7670,48.0,0.0,240.0,5.0,0.0
7671,60.0,67.0,240.0,5.0,0.0
7672,57.0,1.0,210.0,3.0,0.0
7673,45.0,0.0,210.0,3.0,0.0
7674,57.0,3.0,210.0,13.0,0.0
7675,45.0,3.0,210.0,14.0,0.0
7676,72.0,3.0,60.0,10.0,0.0
7677,60.0,4.0,60.0,11.0,0.0
7678,53.0,0.0,60.0,12.0,0.0
7679,60.0,39.0,60.0,12.0,0.0
7680,76.0,1.0,60.0,10.0,0.0
7681,88.0,0.0,60.0,0.0,0.0
7682,84.0,2.0,60.0,0.0,0.0
7683,64.0,1.0,60.0,11.0,0.0
7684,72.0,3.0,60.0,1.0,0.0
7685,76.0,0.0,60.0,1.0,0.0
7686,60.0,0.0,60.0,12.0,0.0
7687,52.0,0.0,60.0,12.0,0.0
7688,64.0,1.0,60.0,2.0,0.0
7689,72.0,0.0,60.0,2.0,0.0
7690,48.0,0.0,60.0,5.0,0.0
7691,60.0,97.0,60.0,5.0,0.0
7692,43.0,0.0,210.0,3.0,0.0
7693,55.0,1.0,210.0,3.0,0.0
7694,55.0,1.0,210.0,13.0,0.0
7695,43.0,55.0,210.0,14.0,0.0
7696,71.0,3.0,60.0,10.0,0.0
7697,83.0,0.0,60.0,0.0,0.0
7698,86.0,3.0,60.0,0.0,0.0
7699,59.0,13.0,60.0,11.0,0.0
7700,71.0,3.0,60.0,1.0,0.0
7701,74.0,0.0,60.0,1.0,0.0
7702,53.0,0.0,60.0,12.0,0.0
7703,65.0,0.0,60.0,2.0,0.0
7704,62.0,1.0,60.0,12.0,0.0
7705,71.0,0.0,60.0,2.0,0.0
7706,65.0,37.0,60.0,5.0,0.0
7707,62.0,0.0,60.0,5.0,0.0
7708,74.0,1.0,60.0,10.0,0.0
7709,62.0,2.0,60.0,11.0,0.0
7710,72.0,3.0,60.0,10.0,0.0
7711,83.0,0.0,60.0,0.0,0.0
7712,86.0,3.0,60.0,0.0,0.0
7713,60.0,13.0,60.0,11.0,0.0
7714,74.0,3.0,60.0,1.0,0.0
7715,71.0,0.0,60.0,1.0,0.0
7716,62.0,0.0,60.0,12.0,0.0
7717,52.0,0.0,60.0,12.0,0.0
7718,64.0,1.0,60.0,2.0,0.0
7719,74.0,0.0,60.0,2.0,0.0
7720,64.0,0.0,60.0,5.0,0.0
7721,52.0,3.0,60.0,5.0,0.0
7722,44.0,0.0,60.0,3.0,0.0
7723,56.0,1.0,60.0,3.0,0.0
7724,56.0,3.0,60.0,13.0,0.0
7725,44.0,30.0,60.0,14.0,0.0
7726,71.0,3.0,60.0,10.0,0.0
7727,59.0,57.0,60.0,11.0,0.0
7728,72.0,3.0,60.0,10.0,0.0
7729,81.0,3.0,60.0,0.0,0.0
7730,84.0,0.0,60.0,0.0,0.0
7731,60.0,13.0,60.0,11.0,0.0
7732,72.0,3.0,60.0,1.0,0.0
7733,69.0,0.0,60.0,1.0,0.0
7734,52.0,1.0,60.0,12.0,0.0
7735,60.0,0.0,60.0,12.0,0.0
7736,72.0,0.0,60.0,2.0,0.0
7737,64.0,0.0,60.0,2.0,0.0
7738,52.0,3.0,60.0,5.0,0.0
7739,64.0,0.0,60.0,5.0,0.0
7740,57.0,1.0,60.0,3.0,0.0
7741,45.0,0.0,60.0,3.0,0.0
7742,57.0,3.0,60.0,13.0,0.0
7743,45.0,30.0,60.0,14.0,0.0
7744,69.0,3.0,60.0,10.0,0.0
7745,57.0,72.0,60.0,11.0,0.0
7746,81.0,1.0,60.0,10.0,0.0
7747,84.0,0.0,60.0,0.0,0.0
7748,81.0,2.0,60.0,0.0,0.0
7749,69.0,1.0,60.0,11.0,0.0
7750,72.0,0.0,60.0,1.0,0.0
7751,81.0,3.0,60.0,1.0,0.0
7752,72.0,0.0,60.0,2.0,0.0
7753,64.0,0.0,60.0,2.0,0.0
7754,60.0,1.0,60.0,12.0,0.0
7755,64.0,0.0,60.0,12.0,0.0
7756,60.0,0.0,60.0,5.0,0.0
7757,48.0,3.0,60.0,5.0,0.0
7758,33.0,0.0,60.0,3.0,0.0
7759,45.0,1.0,60.0,3.0,0.0
7760,45.0,3.0,60.0,13.0,0.0
7761,33.0,105.0,60.0,14.0,0.0
7762,76.0,3.0,60.0,10.0,0.0
7763,64.0,4.0,60.0,11.0,0.0
7764,60.0,1.0,60.0,12.0,0.0
7765,64.0,0.0,60.0,12.0,0.0
7766,60.0,3.0,60.0,5.0,0.0
7767,48.0,0.0,60.0,5.0,0.0
7768,57.0,0.0,60.0,3.0,0.0
7769,45.0,1.0,60.0,3.0,0.0
7770,57.0,3.0,60.0,13.0,0.0
7771,45.0,105.0,60.0,14.0,0.0
7772,77.0,1.0,60.0,10.0,0.0
7773,84.0,2.0,60.0,0.0,0.0
7774,89.0,0.0,60.0,0.0,0.0
7775,65.0,1.0,60.0,11.0,0.0
7776,72.0,3.0,60.0,1.0,0.0
7777,77.0,0.0,60.0,1.0,0.0
7778,72.0,1.0,60.0,2.0,0.0
7779,65.0,0.0,60.0,12.0,0.0
7780,60.0,0.0,60.0,12.0,0.0
7781,65.0,0.0,60.0,2.0,0.0
7782,48.0,3.0,60.0,5.0,0.0
7783,60.0,0.0,60.0,5.0,0.0
7784,44.0,1.0,60.0,3.0,0.0
7785,32.0,0.0,60.0,3.0,0.0
7786,44.0,3.0,60.0,13.0,0.0
7787,32.0,105.0,60.0,14.0,0.0
7788,72.0,3.0,60.0,10.0,0.0
7789,60.0,4.0,60.0,11.0,0.0
7790,60.0,0.0,60.0,12.0,0.0
7791,65.0,1.0,60.0,12.0,0.0
7792,60.0,0.0,60.0,5.0,0.0
7793,48.0,3.0,60.0,5.0,0.0
7794,44.0,0.0,60.0,3.0,0.0
7795,56.0,1.0,60.0,3.0,0.0
7796,56.0,3.0,60.0,13.0,0.0
7797,44.0,105.0,60.0,14.0,0.0
7798,76.0,1.0,60.0,10.0,0.0
7799,88.0,0.0,60.0,0.0,0.0
7800,84.0,2.0,60.0,0.0,0.0
7801,64.0,1.0,60.0,11.0,0.0
7802,76.0,3.0,60.0,1.0,0.0
7803,72.0,0.0,60.0,1.0,0.0
7804,60.0,0.0,60.0,12.0,0.0
7805,64.0,0.0,60.0,2.0,0.0
7806,72.0,0.0,60.0,2.0,0.0
7807,64.0,1.0,60.0,12.0,0.0
7808,48.0,3.0,60.0,5.0,0.0
7809,60.0,0.0,60.0,5.0,0.0
7810,31.0,1.0,60.0,3.0,0.0
7811,43.0,0.0,60.0,3.0,0.0
7812,43.0,3.0,60.0,13.0,0.0
7813,31.0,90.0,60.0,14.0,0.0
7814,71.0,3.0,60.0,10.0,0.0
7815,83.0,3.0,60.0,0.0,0.0
7816,86.0,0.0,60.0,0.0,0.0
7817,59.0,13.0,60.0,11.0,0.0
7818,74.0,0.0,60.0,1.0,0.0
7819,71.0,3.0,60.0,1.0,0.0
7820,65.0,1.0,60.0,2.0,0.0
7821,71.0,0.0,60.0,2.0,0.0
7822,65.0,0.0,60.0,12.0,0.0
7823,62.0,0.0,60.0,12.0,0.0
7824,65.0,0.0,60.0,5.0,0.0
7825,62.0,3.0,60.0,5.0,0.0
7826,43.0,1.0,60.0,3.0,0.0
7827,55.0,0.0,60.0,3.0,0.0
7828,55.0,3.0,60.0,13.0,0.0
7829,43.0,30.0,60.0,14.0,0.0
7830,74.0,3.0,60.0,10.0,0.0
7831,62.0,57.0,60.0,11.0,0.0
7832,72.0,3.0,60.0,10.0,0.0
7833,86.0,0.0,60.0,0.0,0.0
7834,83.0,3.0,60.0,0.0,0.0
7835,60.0,13.0,60.0,11.0,0.0
7836,71.0,0.0,60.0,1.0,0.0
7837,74.0,3.0,60.0,1.0,0.0
7838,74.0,0.0,60.0,2.0,0.0
7839,64.0,1.0,60.0,2.0,0.0
7840,64.0,0.0,60.0,12.0,0.0
7841,62.0,0.0,60.0,12.0,0.0
7842,52.0,3.0,60.0,5.0,0.0
7843,64.0,0.0,60.0,5.0,0.0
7844,44.0,1.0,60.0,3.0,0.0
7845,56.0,0.0,60.0,3.0,0.0
7846,56.0,3.0,60.0,13.0,0.0
7847,44.0,30.0,60.0,14.0,0.0
7848,71.0,3.0,60.0,10.0,0.0
7849,59.0,57.0,60.0,11.0,0.0
7850,72.0,3.0,60.0,10.0,0.0
7851,81.0,3.0,60.0,0.0,0.0
7852,84.0,0.0,60.0,0.0,0.0
7853,60.0,13.0,60.0,11.0,0.0
7854,69.0,3.0,60.0,1.0,0.0
7855,72.0,0.0,60.0,1.0,0.0
7856,64.0,0.0,60.0,12.0,0.0
7857,60.0,1.0,60.0,12.0,0.0
7858,64.0,0.0,60.0,2.0,0.0
7859,72.0,0.0,60.0,2.0,0.0
7860,52.0,0.0,60.0,5.0,0.0
7861,64.0,3.0,60.0,5.0,0.0
7862,45.0,0.0,60.0,3.0,0.0
7863,57.0,1.0,60.0,3.0,0.0
7864,57.0,3.0,60.0,13.0,0.0
7865,45.0,30.0,60.0,14.0,0.0
7866,69.0,3.0,60.0,10.0,0.0
7867,57.0,105.0,60.0,11.0,0.0
7868,60.0,33.0,120.0,10.0,0.0
7869,75.0,0.0,240.0,10.0,0.0
7870,67.0,0.0,240.0,10.0,0.0
7871,87.0,0.0,240.0,0.0,0.0
7872,79.0,2.0,240.0,0.0,0.0
7873,72.0,1.0,240.0,6.0,0.0
7874,75.0,3.0,240.0,1.0,0.0
7875,67.0,0.0,240.0,1.0,0.0
7876,67.0,0.0,240.0,2.0,0.0
7877,63.0,1.0,240.0,2.0,0.0
7878,48.0,3.0,240.0,5.0,0.0
7879,60.0,0.0,240.0,5.0,0.0
7880,45.0,1.0,240.0,3.0,0.0
7881,33.0,0.0,240.0,3.0,0.0
7882,45.0,3.0,240.0,13.0,0.0
7883,33.0,60.0,240.0,14.0,0.0
7884,56.0,4.0,30.0,11.0,0.0
7885,44.0,23.0,30.0,12.0,0.0
7886,57.0,4.0,30.0,11.0,0.0
7887,45.0,56.0,30.0,12.0,0.0
7888,60.0,4.0,30.0,11.0,0.0
7889,48.0,9.0,30.0,12.0,0.0
7890,66.0,0.0,60.0,10.0,0.0
7891,74.0,1.0,60.0,10.0,0.0
7892,78.0,0.0,60.0,0.0,0.0
7893,86.0,2.0,60.0,0.0,0.0
7894,72.0,1.0,60.0,6.0,0.0
7895,74.0,3.0,60.0,1.0,0.0
7896,66.0,0.0,60.0,1.0,0.0
7897,62.0,0.0,60.0,2.0,0.0
7898,66.0,1.0,60.0,2.0,0.0
7899,48.0,0.0,60.0,5.0,0.0
7900,60.0,3.0,60.0,5.0,0.0
7901,38.0,1.0,60.0,3.0,0.0
7902,50.0,0.0,60.0,3.0,0.0
7903,50.0,3.0,60.0,13.0,0.0
7904,38.0,18.0,60.0,14.0,0.0
7905,61.0,4.0,30.0,11.0,0.0
7906,49.0,56.0,30.0,12.0,0.0
7907,62.0,4.0,30.0,11.0,0.0
7908,50.0,56.0,30.0,12.0,0.0
7909,66.0,4.0,30.0,11.0,0.0
7910,54.0,83.0,30.0,12.0,0.0
7911,79.0,0.0,60.0,10.0,0.0
7912,70.0,0.0,60.0,10.0,0.0
7913,58.0,1.0,60.0,10.0,0.0
7914,82.0,3.0,60.0,0.0,0.0
7915,86.0,0.0,60.0,0.0,0.0
7916,70.0,1.0,60.0,1.0,0.0
7917,79.0,0.0,60.0,1.0,0.0
7918,58.0,2.0,60.0,4.0,0.0
7919,46.0,0.0,60.0,4.0,0.0
7920,62.0,26.0,60.0,2.0,0.0
7921,70.0,0.0,60.0,2.0,0.0
7922,31.0,1.0,240.0,3.0,0.0
7923,43.0,0.0,240.0,3.0,0.0
7924,43.0,3.0,240.0,13.0,0.0
7925,31.0,63.0,240.0,14.0,0.0
7926,57.0,4.0,30.0,11.0,0.0
7927,54.0,71.0,30.0,12.0,0.0
7928,74.0,1.0,60.0,10.0,0.0
7929,86.0,0.0,60.0,0.0,0.0
7930,82.0,3.0,60.0,0.0,0.0
7931,58.0,4.0,60.0,11.0,0.0
7932,74.0,0.0,60.0,1.0,0.0
7933,70.0,1.0,60.0,1.0,0.0
7934,58.0,0.0,60.0,4.0,0.0
7935,46.0,2.0,60.0,4.0,0.0
7936,62.0,0.0,60.0,2.0,0.0
7937,55.0,8.0,60.0,12.0,0.0
7938,70.0,41.0,60.0,2.0,0.0
7939,62.0,4.0,60.0,11.0,0.0
7940,58.0,4.0,60.0,12.0,0.0
7941,58.0,8.0,60.0,6.0,0.0
7942,70.0,0.0,60.0,6.0,0.0
7943,38.0,0.0,60.0,3.0,0.0
7944,50.0,1.0,60.0,3.0,0.0
7945,50.0,3.0,60.0,13.0,0.0
7946,38.0,33.0,60.0,14.0,0.0
7947,66.0,4.0,60.0,11.0,0.0
7948,57.0,56.0,60.0,12.0,0.0
7949,58.0,0.0,60.0,6.0,0.0
7950,70.0,8.0,60.0,6.0,0.0
7951,67.0,4.0,60.0,11.0,0.0
7952,58.0,11.0,60.0,12.0,0.0
7953,43.0,1.0,60.0,3.0,0.0
7954,55.0,0.0,60.0,3.0,0.0
7955,55.0,3.0,60.0,13.0,0.0
7956,43.0,33.0,60.0,14.0,0.0
7957,70.0,4.0,60.0,11.0,0.0
7958,62.0,68.0,60.0,12.0,0.0
7959,75.0,1.0,60.0,10.0,0.0
7960,87.0,3.0,60.0,0.0,0.0
7961,82.0,0.0,60.0,0.0,0.0
7962,70.0,0.0,60.0,1.0,0.0
7963,75.0,1.0,60.0,1.0,0.0
7964,46.0,0.0,60.0,4.0,0.0
7965,58.0,2.0,60.0,4.0,0.0
7966,70.0,0.0,60.0,2.0,0.0
7967,63.0,41.0,60.0,2.0,0.0
7968,30.0,1.0,240.0,3.0,0.0
7969,42.0,0.0,240.0,3.0,0.0
7970,42.0,3.0,240.0,13.0,0.0
7971,30.0,48.0,240.0,14.0,0.0
7972,53.0,4.0,60.0,11.0,0.0
7973,50.0,56.0,60.0,12.0,0.0
7974,70.0,1.0,60.0,10.0,0.0
7975,75.0,0.0,60.0,0.0,0.0
7976,82.0,3.0,60.0,0.0,0.0
7977,54.0,4.0,60.0,11.0,0.0
7978,70.0,0.0,60.0,1.0,0.0
7979,63.0,1.0,60.0,1.0,0.0
7980,46.0,0.0,60.0,4.0,0.0
7981,58.0,2.0,60.0,4.0,0.0
7982,63.0,41.0,60.0,2.0,0.0
7983,70.0,0.0,60.0,2.0,0.0
7984,51.0,8.0,60.0,12.0,0.0
7985,58.0,4.0,60.0,11.0,0.0
7986,54.0,19.0,60.0,12.0,0.0
7987,58.0,8.0,60.0,6.0,0.0
7988,70.0,0.0,60.0,6.0,0.0
7989,34.0,1.0,60.0,3.0,0.0
7990,46.0,0.0,60.0,3.0,0.0
7991,46.0,3.0,60.0,13.0,0.0
7992,34.0,33.0,60.0,14.0,0.0
7993,62.0,4.0,60.0,11.0,0.0
7994,53.0,56.0,60.0,12.0,0.0
7995,63.0,4.0,60.0,11.0,0.0
7996,70.0,0.0,60.0,6.0,0.0
7997,58.0,8.0,60.0,6.0,0.0
7998,58.0,11.0,60.0,12.0,0.0
7999,54.0,1.0,60.0,3.0,0.0
8000,42.0,0.0,60.0,3.0,0.0
8001,54.0,3.0,60.0,13.0,0.0
8002,42.0,33.0,60.0,14.0,0.0
8003,66.0,4.0,60.0,11.0,0.0
8004,51.0,68.0,60.0,12.0,0.0
8005,74.0,1.0,60.0,10.0,0.0
8006,82.0,3.0,60.0,0.0,0.0
8007,86.0,0.0,60.0,0.0,0.0
8008,74.0,0.0,60.0,1.0,0.0
8009,70.0,1.0,60.0,1.0,0.0
8010,46.0,0.0,60.0,4.0,0.0
8011,58.0,2.0,60.0,4.0,0.0
8012,70.0,0.0,60.0,2.0,0.0
8013,62.0,41.0,60.0,2.0,0.0
8014,41.0,1.0,240.0,3.0,0.0
8015,41.0,3.0,240.0,13.0,0.0
8016,29.0,45.0,240.0,14.0,0.0
8017,62.0,4.0,60.0,11.0,0.0
8018,58.0,56.0,60.0,12.0,0.0
8019,69.0,3.0,180.0,10.0,0.0
8020,87.0,0.0,60.0,0.0,0.0
8021,81.0,3.0,60.0,0.0,0.0
8022,63.0,4.0,60.0,11.0,0.0
8023,75.0,1.0,60.0,1.0,0.0
8024,69.0,0.0,60.0,1.0,0.0
8025,60.0,2.0,60.0,4.0,0.0
8026,63.0,0.0,60.0,4.0,0.0
8027,63.0,0.0,60.0,2.0,0.0
8028,60.0,9.0,60.0,12.0,0.0
8029,72.0,41.0,60.0,2.0,0.0
8030,62.0,4.0,60.0,11.0,0.0
8031,59.0,4.0,60.0,12.0,0.0
8032,87.0,0.0,240.0,0.0,0.0
8033,81.0,2.0,240.0,0.0,0.0
8034,63.0,4.0,60.0,11.0,0.0
8035,75.0,3.0,240.0,1.0,0.0
8036,69.0,0.0,240.0,1.0,0.0
8037,63.0,1.0,210.0,4.0,0.0
8038,60.0,0.0,210.0,4.0,0.0
8039,60.0,53.0,60.0,12.0,0.0
8040,72.0,0.0,240.0,2.0,0.0
8041,63.0,4.0,240.0,2.0,0.0
8042,53.0,0.0,240.0,3.0,0.0
8043,41.0,1.0,240.0,3.0,0.0
8044,53.0,3.0,240.0,13.0,0.0
8045,41.0,45.0,240.0,14.0,0.0
8046,70.0,3.0,60.0,10.0,0.0
8047,63.0,4.0,60.0,11.0,0.0
8048,60.0,56.0,60.0,12.0,0.0
8049,69.0,3.0,180.0,10.0,0.0
8050,63.0,4.0,60.0,11.0,0.0
8051,60.0,53.0,60.0,12.0,0.0
8052,62.0,1.0,60.0,11.0,0.0
8053,59.0,0.0,60.0,12.0,0.0
8054,81.0,2.0,240.0,0.0,0.0
8055,87.0,0.0,240.0,0.0,0.0
8056,63.0,4.0,60.0,11.0,0.0
8057,69.0,3.0,240.0,1.0,0.0
8058,75.0,0.0,240.0,1.0,0.0
8059,60.0,1.0,210.0,4.0,0.0
8060,63.0,0.0,210.0,4.0,0.0
8061,63.0,4.0,240.0,2.0,0.0
8062,60.0,53.0,60.0,12.0,0.0
8063,72.0,0.0,240.0,2.0,0.0
8064,42.0,1.0,240.0,3.0,0.0
8065,54.0,0.0,240.0,3.0,0.0
8066,54.0,3.0,240.0,13.0,0.0
8067,42.0,45.0,240.0,14.0,0.0
8068,70.0,3.0,60.0,10.0,0.0
8069,63.0,4.0,60.0,11.0,0.0
8070,60.0,53.0,60.0,12.0,0.0
8071,69.0,3.0,60.0,10.0,0.0
8072,63.0,4.0,60.0,11.0,0.0
8073,60.0,53.0,60.0,12.0,0.0
8074,72.0,0.0,60.0,10.0,0.0
8075,60.0,1.0,60.0,11.0,0.0
8076,57.0,0.0,60.0,12.0,0.0
8077,70.0,3.0,60.0,10.0,0.0
8078,86.0,2.0,60.0,0.0,0.0
8079,84.0,0.0,60.0,0.0,0.0
8080,62.0,1.0,60.0,6.0,0.0
8081,74.0,0.0,60.0,6.0,0.0
8082,62.0,4.0,60.0,11.0,0.0
8083,74.0,0.0,60.0,1.0,0.0
8084,72.0,1.0,60.0,1.0,0.0
8085,62.0,0.0,60.0,4.0,0.0
8086,50.0,2.0,60.0,4.0,0.0
8087,62.0,0.0,60.0,2.0,0.0
8088,69.0,4.0,60.0,2.0,0.0
8089,60.0,9.0,60.0,12.0,0.0
8090,38.0,0.0,60.0,3.0,0.0
8091,50.0,1.0,60.0,3.0,0.0
8092,50.0,3.0,60.0,13.0,0.0
8093,38.0,30.0,60.0,14.0,0.0
8094,69.0,3.0,60.0,10.0,0.0
8095,62.0,4.0,60.0,11.0,0.0
8096,60.0,53.0,60.0,12.0,0.0
8097,70.0,16.0,60.0,10.0,0.0
8098,86.0,2.0,60.0,0.0,0.0
8099,82.0,0.0,60.0,0.0,0.0
8100,62.0,0.0,60.0,6.0,0.0
8101,74.0,1.0,60.0,6.0,0.0
8102,62.0,4.0,120.0,11.0,0.0
8103,74.0,1.0,60.0,1.0,0.0
8104,70.0,0.0,60.0,1.0,0.0
8105,50.0,2.0,60.0,4.0,0.0
8106,62.0,0.0,60.0,4.0,0.0
8107,62.0,4.0,60.0,2.0,0.0
8108,70.0,0.0,60.0,2.0,0.0
8109,58.0,23.0,120.0,12.0,0.0
8110,43.0,1.0,60.0,3.0,0.0
8111,55.0,0.0,60.0,3.0,0.0
8112,55.0,3.0,60.0,13.0,0.0
8113,43.0,30.0,60.0,14.0,0.0
8114,67.0,18.0,60.0,10.0,0.0
8115,79.0,31.0,30.0,10.0,0.0
8116,82.0,3.0,60.0,0.0,0.0
8117,86.0,0.0,60.0,0.0,0.0
8118,79.0,1.0,60.0,1.0,0.0
8119,70.0,0.0,60.0,1.0,0.0
8120,58.0,0.0,60.0,4.0,0.0
8121,46.0,2.0,60.0,4.0,0.0
8122,70.0,23.0,60.0,2.0,0.0
8123,62.0,0.0,60.0,2.0,0.0
8124,43.0,1.0,240.0,3.0,0.0
8125,31.0,0.0,240.0,3.0,0.0
8126,43.0,3.0,240.0,13.0,0.0
8127,31.0,26.0,240.0,14.0,0.0
8128,79.0,18.0,30.0,10.0,0.0
8129,57.0,4.0,60.0,11.0,0.0
8130,54.0,56.0,60.0,12.0,0.0
8131,74.0,1.0,60.0,10.0,0.0
8132,86.0,3.0,60.0,0.0,0.0
8133,82.0,0.0,60.0,0.0,0.0
8134,58.0,4.0,60.0,11.0,0.0
8135,70.0,1.0,60.0,1.0,0.0
8136,74.0,0.0,60.0,1.0,0.0
8137,46.0,0.0,60.0,4.0,0.0
8138,58.0,2.0,60.0,4.0,0.0
8139,55.0,8.0,60.0,12.0,0.0
8140,70.0,56.0,60.0,2.0,0.0
8141,62.0,0.0,60.0,2.0,0.0
8142,62.0,4.0,60.0,11.0,0.0
8143,58.0,4.0,60.0,12.0,0.0
8144,58.0,0.0,60.0,6.0,0.0
8145,70.0,38.0,60.0,6.0,0.0
8146,50.0,1.0,30.0,3.0,0.0
8147,38.0,0.0,30.0,3.0,0.0
8148,50.0,3.0,30.0,13.0,0.0
8149,38.0,18.0,30.0,14.0,0.0
8150,66.0,4.0,60.0,11.0,0.0
8151,57.0,56.0,60.0,12.0,0.0
8152,50.0,1.0,30.0,3.0,0.0
8153,38.0,0.0,30.0,3.0,0.0
8154,50.0,3.0,30.0,13.0,0.0
8155,38.0,3.0,30.0,14.0,0.0
8156,67.0,4.0,60.0,11.0,0.0
8157,70.0,0.0,60.0,6.0,0.0
8158,58.0,8.0,60.0,6.0,0.0
8159,58.0,11.0,60.0,12.0,0.0
8160,55.0,0.0,60.0,3.0,0.0
8161,43.0,1.0,60.0,3.0,0.0
8162,55.0,3.0,60.0,13.0,0.0
8163,43.0,48.0,60.0,14.0,0.0
8164,70.0,4.0,60.0,11.0,0.0
8165,62.0,23.0,60.0,12.0,0.0
8166,75.0,31.0,30.0,10.0,0.0
8167,87.0,3.0,60.0,0.0,0.0
8168,82.0,0.0,60.0,0.0,0.0
8169,70.0,0.0,60.0,1.0,0.0
8170,75.0,1.0,60.0,1.0,0.0
8171,58.0,2.0,60.0,4.0,0.0
8172,46.0,0.0,60.0,4.0,0.0
8173,70.0,0.0,60.0,2.0,0.0
8174,63.0,23.0,60.0,2.0,0.0
8175,42.0,1.0,240.0,3.0,0.0
8176,30.0,0.0,240.0,3.0,0.0
8177,42.0,3.0,240.0,13.0,0.0
8178,30.0,26.0,240.0,14.0,0.0
8179,75.0,18.0,30.0,10.0,0.0
8180,53.0,4.0,60.0,11.0,0.0
8181,50.0,56.0,60.0,12.0,0.0
8182,70.0,1.0,60.0,10.0,0.0
8183,82.0,3.0,60.0,0.0,0.0
8184,75.0,0.0,60.0,0.0,0.0
8185,54.0,4.0,60.0,11.0,0.0
8186,70.0,1.0,60.0,1.0,0.0
8187,63.0,0.0,60.0,1.0,0.0
8188,58.0,2.0,60.0,4.0,0.0
8189,46.0,0.0,60.0,4.0,0.0
8190,51.0,8.0,60.0,12.0,0.0
8191,63.0,56.0,60.0,2.0,0.0
8192,70.0,0.0,60.0,2.0,0.0
8193,58.0,4.0,60.0,11.0,0.0
8194,54.0,4.0,60.0,12.0,0.0
8195,58.0,38.0,60.0,6.0,0.0
8196,70.0,0.0,60.0,6.0,0.0
8197,46.0,1.0,30.0,3.0,0.0
8198,34.0,0.0,30.0,3.0,0.0
8199,46.0,3.0,30.0,13.0,0.0
8200,34.0,18.0,30.0,14.0,0.0
8201,62.0,4.0,60.0,11.0,0.0
8202,53.0,56.0,60.0,12.0,0.0
8203,46.0,0.0,30.0,3.0,0.0
8204,34.0,1.0,30.0,3.0,0.0
8205,46.0,3.0,30.0,13.0,0.0
8206,34.0,3.0,30.0,14.0,0.0
8207,58.0,8.0,60.0,6.0,0.0
8208,63.0,4.0,60.0,11.0,0.0
8209,70.0,0.0,60.0,6.0,0.0
8210,58.0,11.0,60.0,12.0,0.0
8211,42.0,1.0,60.0,3.0,0.0
8212,54.0,0.0,60.0,3.0,0.0
8213,54.0,3.0,60.0,13.0,0.0
8214,42.0,48.0,60.0,14.0,0.0
8215,66.0,4.0,60.0,11.0,0.0
8216,51.0,23.0,60.0,12.0,0.0
8217,74.0,31.0,30.0,10.0,0.0
8218,86.0,3.0,60.0,0.0,0.0
8219,82.0,0.0,60.0,0.0,0.0
8220,74.0,0.0,60.0,1.0,0.0
8221,70.0,1.0,60.0,1.0,0.0
8222,46.0,2.0,60.0,4.0,0.0
8223,58.0,0.0,60.0,4.0,0.0
8224,70.0,23.0,60.0,2.0,0.0
8225,62.0,0.0,60.0,2.0,0.0
8226,41.0,1.0,240.0,3.0,0.0
8227,41.0,3.0,240.0,13.0,0.0
8228,29.0,45.0,240.0,14.0,0.0
8229,74.0,18.0,30.0,10.0,0.0
8230,62.0,4.0,60.0,11.0,0.0
8231,58.0,56.0,60.0,12.0,0.0
8232,69.0,3.0,180.0,10.0,0.0
8233,87.0,3.0,60.0,0.0,0.0
8234,81.0,0.0,60.0,0.0,0.0
8235,63.0,4.0,60.0,11.0,0.0
8236,69.0,0.0,60.0,1.0,0.0
8237,75.0,1.0,60.0,1.0,0.0
8238,63.0,0.0,60.0,4.0,0.0
8239,60.0,2.0,60.0,4.0,0.0
8240,63.0,41.0,60.0,2.0,0.0
8241,72.0,0.0,60.0,2.0,0.0
8242,60.0,9.0,60.0,12.0,0.0
8243,62.0,4.0,60.0,11.0,0.0
8244,59.0,4.0,60.0,12.0,0.0
8245,87.0,2.0,240.0,0.0,0.0
8246,81.0,0.0,240.0,0.0,0.0
8247,63.0,4.0,60.0,11.0,0.0
8248,75.0,0.0,240.0,1.0,0.0
8249,69.0,3.0,240.0,1.0,0.0
8250,60.0,1.0,210.0,4.0,0.0
8251,63.0,0.0,210.0,4.0,0.0
8252,72.0,0.0,240.0,2.0,0.0
8253,63.0,0.0,240.0,2.0,0.0
8254,60.0,53.0,60.0,12.0,0.0
8255,53.0,1.0,240.0,3.0,0.0
8256,41.0,0.0,240.0,3.0,0.0
8257,53.0,3.0,240.0,13.0,0.0
8258,41.0,45.0,240.0,14.0,0.0
8259,70.0,3.0,60.0,10.0,0.0
8260,63.0,4.0,60.0,11.0,0.0
8261,60.0,56.0,60.0,12.0,0.0
8262,69.0,3.0,180.0,10.0,0.0
8263,63.0,4.0,60.0,11.0,0.0
8264,60.0,53.0,60.0,12.0,0.0
8265,62.0,1.0,60.0,11.0,0.0
8266,59.0,4.0,60.0,12.0,0.0
8267,87.0,0.0,240.0,0.0,0.0
8268,81.0,2.0,240.0,0.0,0.0
8269,63.0,4.0,60.0,11.0,0.0
8270,69.0,3.0,240.0,1.0,0.0
8271,75.0,0.0,240.0,1.0,0.0
8272,60.0,0.0,210.0,4.0,0.0
8273,63.0,1.0,210.0,4.0,0.0
8274,63.0,4.0,240.0,2.0,0.0
8275,72.0,0.0,240.0,2.0,0.0
8276,60.0,48.0,60.0,12.0,0.0
8277,54.0,1.0,240.0,3.0,0.0
8278,42.0,0.0,240.0,3.0,0.0
8279,54.0,3.0,240.0,13.0,0.0
8280,42.0,40.0,240.0,14.0,0.0
8281,70.0,8.0,30.0,10.0,0.0
8282,63.0,4.0,60.0,11.0,0.0
8283,60.0,48.0,60.0,12.0,0.0
8284,69.0,8.0,30.0,10.0,0.0
8285,63.0,4.0,60.0,11.0,0.0
8286,60.0,48.0,60.0,12.0,0.0
8287,72.0,5.0,30.0,10.0,0.0
8288,60.0,1.0,60.0,11.0,0.0
8289,57.0,0.0,60.0,12.0,0.0
8290,70.0,8.0,30.0,10.0,0.0
8291,86.0,2.0,60.0,0.0,0.0
8292,84.0,0.0,60.0,0.0,0.0
8293,62.0,1.0,60.0,6.0,0.0
8294,62.0,4.0,60.0,11.0,0.0
8295,74.0,0.0,60.0,6.0,0.0
8296,72.0,0.0,60.0,1.0,0.0
8297,74.0,1.0,60.0,1.0,0.0
8298,50.0,2.0,60.0,4.0,0.0
8299,62.0,0.0,60.0,4.0,0.0
8300,60.0,9.0,60.0,12.0,0.0
8301,69.0,33.0,60.0,2.0,0.0
8302,62.0,0.0,60.0,2.0,0.0
8303,38.0,0.0,120.0,3.0,0.0
8304,50.0,1.0,120.0,3.0,0.0
8305,50.0,3.0,120.0,13.0,0.0
8306,38.0,40.0,120.0,14.0,0.0
8307,69.0,8.0,30.0,10.0,0.0
8308,62.0,4.0,60.0,11.0,0.0
8309,60.0,4.0,60.0,12.0,0.0
8310,70.0,21.0,30.0,10.0,0.0
8311,86.0,0.0,60.0,0.0,0.0
8312,82.0,2.0,60.0,0.0,0.0
8313,74.0,1.0,60.0,6.0,0.0
8314,62.0,4.0,120.0,11.0,0.0
8315,62.0,0.0,60.0,6.0,0.0
8316,70.0,0.0,60.0,1.0,0.0
8317,74.0,1.0,60.0,1.0,0.0
8318,50.0,2.0,60.0,4.0,0.0
8319,62.0,0.0,60.0,4.0,0.0
8320,62.0,0.0,60.0,2.0,0.0
8321,70.0,33.0,60.0,2.0,0.0
8322,58.0,4.0,120.0,12.0,0.0
8323,43.0,0.0,120.0,3.0,0.0
8324,55.0,1.0,120.0,3.0,0.0
8325,55.0,3.0,120.0,13.0,0.0
8326,43.0,40.0,120.0,14.0,0.0
8327,67.0,8.0,30.0,10.0,0.0
8328,69.0,8.0,30.0,10.0,0.0
8329,87.0,2.0,240.0,0.0,0.0
8330,81.0,0.0,240.0,0.0,0.0
8331,63.0,4.0,60.0,11.0,0.0
8332,69.0,0.0,240.0,1.0,0.0
8333,75.0,3.0,240.0,1.0,0.0
8334,63.0,0.0,240.0,2.0,0.0
8335,72.0,0.0,240.0,2.0,0.0
8336,60.0,48.0,60.0,12.0,0.0
8337,42.0,1.0,120.0,3.0,0.0
8338,54.0,0.0,120.0,3.0,0.0
8339,54.0,3.0,120.0,13.0,0.0
8340,42.0,40.0,120.0,14.0,0.0
8341,70.0,8.0,30.0,10.0,0.0
8342,63.0,4.0,60.0,11.0,0.0
8343,60.0,4.0,60.0,12.0,0.0
8344,69.0,12.0,30.0,10.0,0.0
8345,63.0,1.0,120.0,11.0,0.0
8346,60.0,48.0,60.0,12.0,0.0
8347,53.0,1.0,120.0,3.0,0.0
8348,41.0,0.0,120.0,3.0,0.0
8349,53.0,3.0,120.0,13.0,0.0
8350,41.0,40.0,120.0,14.0,0.0
8351,72.0,6.0,30.0,10.0,0.0
8352,57.0,4.0,60.0,12.0,0.0
8353,70.0,8.0,30.0,10.0,0.0
8354,84.0,0.0,60.0,0.0,0.0
8355,86.0,3.0,60.0,0.0,0.0
8356,62.0,4.0,60.0,11.0,0.0
8357,74.0,1.0,60.0,1.0,0.0
8358,72.0,0.0,60.0,1.0,0.0
8359,62.0,0.0,60.0,4.0,0.0
8360,50.0,2.0,60.0,4.0,0.0
8361,60.0,9.0,60.0,12.0,0.0
8362,62.0,33.0,60.0,2.0,0.0
8363,69.0,0.0,60.0,2.0,0.0
8364,42.0,0.0,120.0,3.0,0.0
8365,54.0,1.0,120.0,3.0,0.0
8366,54.0,3.0,120.0,13.0,0.0
8367,42.0,40.0,120.0,14.0,0.0
8368,69.0,8.0,30.0,10.0,0.0
8369,62.0,4.0,60.0,11.0,0.0
8370,60.0,4.0,60.0,12.0,0.0
8371,70.0,21.0,30.0,10.0,0.0
8372,86.0,0.0,60.0,0.0,0.0
8373,82.0,3.0,60.0,0.0,0.0
8374,62.0,4.0,120.0,11.0,0.0
8375,70.0,1.0,60.0,1.0,0.0
8376,74.0,0.0,60.0,1.0,0.0
8377,62.0,0.0,60.0,4.0,0.0
8378,50.0,2.0,60.0,4.0,0.0
8379,58.0,4.0,120.0,12.0,0.0
8380,70.0,33.0,60.0,2.0,0.0
8381,62.0,0.0,60.0,2.0,0.0
8382,43.0,1.0,120.0,3.0,0.0
8383,55.0,0.0,120.0,3.0,0.0
8384,55.0,3.0,120.0,13.0,0.0
8385,43.0,40.0,120.0,14.0,0.0
8386,67.0,8.0,30.0,10.0,0.0
8387,71.0,8.0,30.0,10.0,0.0
8388,83.0,0.0,240.0,0.0,0.0
8389,89.0,2.0,240.0,0.0,0.0
8390,65.0,4.0,60.0,11.0,0.0
8391,77.0,0.0,240.0,1.0,0.0
8392,71.0,3.0,240.0,1.0,0.0
8393,62.0,48.0,60.0,12.0,0.0
8394,65.0,0.0,240.0,2.0,0.0
8395,74.0,4.0,240.0,2.0,0.0
8396,56.0,0.0,120.0,3.0,0.0
8397,44.0,1.0,120.0,3.0,0.0
8398,56.0,3.0,120.0,13.0,0.0
8399,44.0,40.0,120.0,14.0,0.0
8400,72.0,8.0,30.0,10.0,0.0
8401,65.0,4.0,60.0,11.0,0.0
8402,62.0,4.0,60.0,12.0,0.0
8403,71.0,12.0,30.0,10.0,0.0
8404,65.0,1.0,120.0,11.0,0.0
8405,62.0,48.0,60.0,12.0,0.0
8406,43.0,0.0,120.0,3.0,0.0
8407,55.0,1.0,120.0,3.0,0.0
8408,55.0,3.0,120.0,13.0,0.0
8409,43.0,40.0,120.0,14.0,0.0
8410,74.0,6.0,30.0,10.0,0.0
8411,59.0,0.0,60.0,12.0,0.0
8412,72.0,8.0,30.0,10.0,0.0
8413,86.0,3.0,60.0,0.0,0.0
8414,88.0,0.0,60.0,0.0,0.0
8415,64.0,4.0,60.0,11.0,0.0
8416,76.0,0.0,60.0,1.0,0.0
8417,74.0,3.0,60.0,1.0,0.0
8418,64.0,0.0,60.0,2.0,0.0
8419,71.0,1.0,60.0,2.0,0.0
8420,62.0,9.0,60.0,12.0,0.0
8421,52.0,32.0,60.0,5.0,0.0
8422,64.0,0.0,60.0,5.0,0.0
8423,44.0,0.0,120.0,3.0,0.0
8424,56.0,1.0,120.0,3.0,0.0
8425,56.0,3.0,120.0,13.0,0.0
8426,44.0,40.0,120.0,14.0,0.0
8427,71.0,8.0,30.0,10.0,0.0
8428,64.0,4.0,60.0,11.0,0.0
8429,62.0,4.0,60.0,12.0,0.0
8430,72.0,21.0,30.0,10.0,0.0
8431,84.0,0.0,60.0,0.0,0.0
8432,88.0,3.0,60.0,0.0,0.0
8433,64.0,4.0,120.0,11.0,0.0
8434,72.0,3.0,60.0,1.0,0.0
8435,76.0,0.0,60.0,1.0,0.0
8436,64.0,1.0,60.0,2.0,0.0
8437,60.0,4.0,120.0,12.0,0.0
8438,72.0,0.0,60.0,2.0,0.0
8439,64.0,32.0,60.0,5.0,0.0
8440,52.0,0.0,60.0,5.0,0.0
8441,57.0,0.0,120.0,3.0,0.0
8442,45.0,1.0,120.0,3.0,0.0
8443,57.0,3.0,120.0,13.0,0.0
8444,45.0,40.0,120.0,14.0,0.0
8445,69.0,8.0,30.0,10.0,0.0
8446,73.0,8.0,30.0,10.0,0.0
8447,79.0,2.0,240.0,0.0,0.0
8448,85.0,0.0,240.0,0.0,0.0
8449,67.0,4.0,60.0,11.0,0.0
8450,67.0,0.0,240.0,1.0,0.0
8451,73.0,3.0,240.0,1.0,0.0
8452,64.0,48.0,60.0,12.0,0.0
8453,64.0,4.0,240.0,2.0,0.0
8454,61.0,0.0,240.0,2.0,0.0
8455,58.0,0.0,120.0,3.0,0.0
8456,46.0,1.0,120.0,3.0,0.0
8457,58.0,3.0,120.0,13.0,0.0
8458,46.0,25.0,120.0,14.0,0.0
8459,74.0,8.0,30.0,10.0,0.0
8460,67.0,4.0,60.0,11.0,0.0
8461,64.0,19.0,60.0,12.0,0.0
8462,73.0,12.0,30.0,10.0,0.0
8463,67.0,1.0,120.0,11.0,0.0
8464,64.0,48.0,60.0,12.0,0.0
8465,57.0,1.0,120.0,3.0,0.0
8466,45.0,0.0,120.0,3.0,0.0
8467,57.0,3.0,120.0,13.0,0.0
8468,45.0,40.0,120.0,14.0,0.0
8469,76.0,6.0,30.0,10.0,0.0
8470,61.0,0.0,60.0,12.0,0.0
8471,75.0,8.0,30.0,10.0,0.0
8472,78.0,2.0,240.0,0.0,0.0
8473,87.0,0.0,240.0,0.0,0.0
8474,66.0,4.0,60.0,11.0,0.0
8475,66.0,0.0,240.0,1.0,0.0
8476,75.0,3.0,240.0,1.0,0.0
8477,69.0,4.0,240.0,2.0,0.0
8478,69.0,48.0,60.0,12.0,0.0
8479,63.0,0.0,240.0,2.0,0.0
8480,48.0,0.0,120.0,3.0,0.0
8481,60.0,1.0,120.0,3.0,0.0
8482,60.0,3.0,120.0,13.0,0.0
8483,48.0,25.0,120.0,14.0,0.0
8484,76.0,8.0,30.0,10.0,0.0
8485,66.0,4.0,60.0,11.0,0.0
8486,69.0,19.0,60.0,12.0,0.0
8487,75.0,8.0,30.0,10.0,0.0
8488,66.0,52.0,60.0,11.0,0.0
8489,69.0,0.0,120.0,12.0,0.0
8490,59.0,1.0,120.0,3.0,0.0
8491,47.0,0.0,120.0,3.0,0.0
8492,59.0,3.0,120.0,13.0,0.0
8493,47.0,40.0,120.0,14.0,0.0
8494,78.0,6.0,30.0,10.0,0.0
8495,63.0,1.0,60.0,11.0,0.0
8496,77.0,8.0,30.0,10.0,0.0
8497,83.0,2.0,240.0,0.0,0.0
8498,89.0,0.0,240.0,0.0,0.0
8499,71.0,4.0,60.0,11.0,0.0
8500,77.0,0.0,240.0,1.0,0.0
8501,71.0,3.0,240.0,1.0,0.0
8502,64.0,0.0,240.0,2.0,0.0
8503,68.0,48.0,60.0,12.0,0.0
8504,68.0,0.0,240.0,2.0,0.0
8505,50.0,1.0,120.0,3.0,0.0
8506,62.0,0.0,120.0,3.0,0.0
8507,62.0,3.0,120.0,13.0,0.0
8508,50.0,25.0,120.0,14.0,0.0
8509,78.0,8.0,30.0,10.0,0.0
8510,71.0,4.0,60.0,11.0,0.0
8511,68.0,19.0,60.0,12.0,0.0
8512,77.0,12.0,30.0,10.0,0.0
8513,71.0,1.0,120.0,11.0,0.0
8514,68.0,48.0,60.0,12.0,0.0
8515,49.0,1.0,120.0,3.0,0.0
8516,61.0,0.0,120.0,3.0,0.0
8517,61.0,3.0,120.0,13.0,0.0
8518,49.0,40.0,120.0,14.0,0.0
8519,80.0,6.0,30.0,10.0,0.0
8520,65.0,4.0,60.0,12.0,0.0
8521,77.0,8.0,30.0,10.0,0.0
8522,89.0,2.0,240.0,0.0,0.0
8523,83.0,0.0,240.0,0.0,0.0
8524,71.0,4.0,60.0,11.0,0.0
8525,77.0,0.0,240.0,1.0,0.0
8526,71.0,3.0,240.0,1.0,0.0
8527,68.0,48.0,60.0,12.0,0.0
8528,64.0,0.0,240.0,2.0,0.0
8529,68.0,4.0,240.0,2.0,0.0
8530,50.0,1.0,120.0,3.0,0.0
8531,38.0,0.0,120.0,3.0,0.0
8532,50.0,3.0,120.0,13.0,0.0
8533,38.0,25.0,120.0,14.0,0.0
8534,78.0,8.0,30.0,10.0,0.0
8535,71.0,4.0,60.0,11.0,0.0
8536,68.0,19.0,60.0,12.0,0.0
8537,77.0,12.0,30.0,10.0,0.0
8538,71.0,1.0,120.0,11.0,0.0
8539,68.0,48.0,60.0,12.0,0.0
8540,49.0,1.0,120.0,3.0,0.0
8541,37.0,0.0,120.0,3.0,0.0
8542,49.0,3.0,120.0,13.0,0.0
8543,37.0,40.0,120.0,14.0,0.0
8544,80.0,6.0,30.0,10.0,0.0
8545,65.0,0.0,60.0,12.0,0.0
8546,78.0,8.0,30.0,10.0,0.0
8547,90.0,0.0,240.0,0.0,0.0
8548,81.0,2.0,240.0,0.0,0.0
8549,69.0,4.0,60.0,11.0,0.0
8550,69.0,3.0,240.0,1.0,0.0
8551,78.0,0.0,240.0,1.0,0.0
8552,66.0,48.0,60.0,12.0,0.0
8553,69.0,4.0,240.0,2.0,0.0
8554,66.0,0.0,240.0,2.0,0.0
8555,50.0,0.0,120.0,3.0,0.0
8556,62.0,1.0,120.0,3.0,0.0
8557,62.0,3.0,120.0,13.0,0.0
8558,50.0,25.0,120.0,14.0,0.0
8559,80.0,8.0,30.0,10.0,0.0
8560,69.0,4.0,60.0,11.0,0.0
8561,66.0,19.0,60.0,12.0,0.0
8562,78.0,60.0,30.0,10.0,0.0
8563,69.0,1.0,120.0,11.0,0.0
8564,66.0,0.0,120.0,12.0,0.0
8565,61.0,0.0,120.0,3.0,0.0
8566,49.0,1.0,120.0,3.0,0.0
8567,61.0,3.0,120.0,13.0,0.0
8568,49.0,40.0,120.0,14.0,0.0
8569,81.0,6.0,30.0,10.0,0.0
8570,78.0,8.0,30.0,10.0,0.0
8571,81.0,0.0,240.0,0.0,0.0
8572,90.0,2.0,240.0,0.0,0.0
8573,69.0,4.0,60.0,11.0,0.0
8574,78.0,0.0,240.0,1.0,0.0
8575,69.0,3.0,240.0,1.0,0.0
8576,66.0,0.0,240.0,2.0,0.0
8577,69.0,4.0,240.0,2.0,0.0
8578,66.0,48.0,60.0,12.0,0.0
8579,50.0,0.0,120.0,3.0,0.0
8580,38.0,1.0,120.0,3.0,0.0
8581,50.0,3.0,120.0,13.0,0.0
8582,38.0,25.0,120.0,14.0,0.0
8583,80.0,8.0,30.0,10.0,0.0
8584,69.0,4.0,60.0,11.0,0.0
8585,66.0,19.0,60.0,12.0,0.0
8586,78.0,60.0,30.0,10.0,0.0
8587,69.0,1.0,120.0,11.0,0.0
8588,66.0,0.0,120.0,12.0,0.0
8589,49.0,0.0,120.0,3.0,0.0
8590,37.0,1.0,120.0,3.0,0.0
8591,49.0,3.0,120.0,13.0,0.0
8592,37.0,40.0,120.0,14.0,0.0
8593,81.0,6.0,30.0,10.0,0.0
8594,78.0,60.0,30.0,10.0,0.0
8595,81.0,0.0,120.0,0.0,0.0
8596,77.0,3.0,120.0,0.0,0.0
8597,72.0,4.0,120.0,11.0,0.0
8598,69.0,2.0,120.0,1.0,0.0
8599,65.0,0.0,120.0,1.0,0.0
8600,54.0,1.0,120.0,7.0,0.0
8601,60.0,0.0,120.0,7.0,0.0
8602,69.0,0.0,120.0,2.0,0.0
8603,69.0,9.0,120.0,12.0,0.0
8604,72.0,1.0,120.0,2.0,0.0
8605,57.0,32.0,120.0,5.0,0.0
8606,50.0,1.0,240.0,7.0,0.0
8607,50.0,1.0,240.0,3.0,0.0
8608,62.0,0.0,240.0,3.0,0.0
8609,62.0,3.0,240.0,13.0,0.0
8610,50.0,1.0,240.0,14.0,0.0
8611,81.0,8.0,30.0,10.0,0.0
8612,79.0,60.0,30.0,10.0,0.0
8613,79.0,0.0,120.0,0.0,0.0
8614,82.0,3.0,120.0,0.0,0.0
8615,70.0,4.0,120.0,11.0,0.0
8616,70.0,0.0,120.0,1.0,0.0
8617,67.0,2.0,120.0,1.0,0.0
8618,58.0,1.0,120.0,7.0,0.0
8619,55.0,0.0,120.0,7.0,0.0
8620,67.0,1.0,120.0,2.0,0.0
8621,70.0,0.0,120.0,2.0,0.0
8622,67.0,3.0,120.0,12.0,0.0
8623,58.0,32.0,120.0,5.0,0.0
8624,82.0,8.0,30.0,10.0,0.0
8625,81.0,60.0,30.0,10.0,0.0
8626,81.0,0.0,120.0,0.0,0.0
8627,84.0,3.0,120.0,0.0,0.0
8628,69.0,4.0,120.0,11.0,0.0
8629,72.0,0.0,120.0,1.0,0.0
8630,69.0,2.0,120.0,1.0,0.0
8631,54.0,1.0,120.0,7.0,0.0
8632,57.0,0.0,120.0,7.0,0.0
8633,69.0,1.0,120.0,2.0,0.0
8634,66.0,0.0,120.0,2.0,0.0
8635,66.0,9.0,120.0,12.0,0.0
8636,60.0,32.0,120.0,5.0,0.0
8637,50.0,1.0,240.0,7.0,0.0
8638,38.0,1.0,240.0,3.0,0.0
8639,50.0,0.0,240.0,3.0,0.0
8640,50.0,3.0,240.0,13.0,0.0
8641,38.0,215.0,240.0,14.0,0.0
8642,84.0,8.0,30.0,10.0,0.0
8643,82.0,60.0,30.0,10.0,0.0
8644,85.0,2.0,120.0,0.0,0.0
8645,79.0,0.0,120.0,0.0,0.0
8646,67.0,1.0,120.0,11.0,0.0
8647,73.0,2.0,120.0,1.0,0.0
8648,67.0,0.0,120.0,1.0,0.0
8649,55.0,0.0,120.0,7.0,0.0
8650,52.0,1.0,120.0,7.0,0.0
8651,64.0,1.0,120.0,12.0,0.0
8652,64.0,0.0,120.0,2.0,0.0
8653,67.0,0.0,120.0,2.0,0.0
8654,61.0,2.0,120.0,5.0,0.0
8655,85.0,6.0,30.0,10.0,0.0
8656,86.0,1.0,210.0,10.0,0.0
8657,78.0,2.0,210.0,0.0,0.0
8658,86.0,0.0,210.0,0.0,0.0
8659,66.0,1.0,210.0,11.0,0.0
8660,74.0,0.0,210.0,11.0,0.0
8661,74.0,3.0,210.0,1.0,0.0
8662,66.0,0.0,210.0,1.0,0.0
8663,57.0,0.0,240.0,7.0,0.0
8664,54.0,2.0,240.0,7.0,0.0
8665,45.0,0.0,210.0,12.0,0.0
8666,57.0,4.0,210.0,12.0,0.0
8667,66.0,0.0,210.0,2.0,0.0
8668,62.0,0.0,210.0,2.0,0.0
8669,62.0,2.0,240.0,5.0,0.0
8670,50.0,3.0,240.0,7.0,0.0
8671,38.0,1.0,210.0,3.0,0.0
8672,38.0,3.0,210.0,13.0,0.0
8673,38.0,217.0,240.0,8.0,0.0
8674,26.0,1.0,210.0,14.0,0.0
8675,81.0,1.0,210.0,10.0,0.0
8676,81.0,0.0,210.0,0.0,0.0
8677,86.0,2.0,210.0,0.0,0.0
8678,69.0,1.0,210.0,11.0,0.0
8679,69.0,0.0,210.0,1.0,0.0
8680,74.0,3.0,210.0,1.0,0.0
8681,54.0,2.0,240.0,7.0,0.0
8682,57.0,0.0,240.0,7.0,0.0
8683,54.0,0.0,210.0,12.0,0.0
8684,62.0,4.0,210.0,12.0,0.0
8685,69.0,0.0,210.0,2.0,0.0
8686,62.0,0.0,210.0,2.0,0.0
8687,62.0,2.0,240.0,5.0,0.0
8688,50.0,3.0,240.0,7.0,0.0
8689,54.0,0.0,210.0,3.0,0.0
8690,42.0,1.0,210.0,3.0,0.0
8691,42.0,3.0,210.0,13.0,0.0
8692,42.0,217.0,240.0,8.0,0.0
8693,30.0,1.0,210.0,14.0,0.0
8694,78.0,1.0,210.0,10.0,0.0
8695,78.0,0.0,210.0,0.0,0.0
8696,86.0,2.0,210.0,0.0,0.0
8697,66.0,0.0,210.0,11.0,0.0
8698,62.0,1.0,210.0,11.0,0.0
8699,74.0,3.0,210.0,1.0,0.0
8700,66.0,0.0,210.0,1.0,0.0
8701,54.0,0.0,240.0,7.0,0.0
8702,57.0,2.0,240.0,7.0,0.0
8703,62.0,4.0,210.0,12.0,0.0
8704,62.0,0.0,210.0,2.0,0.0
8705,66.0,0.0,210.0,2.0,0.0
8706,54.0,0.0,210.0,12.0,0.0
8707,62.0,2.0,240.0,5.0,0.0
8708,50.0,3.0,240.0,7.0,0.0
8709,45.0,1.0,210.0,3.0,0.0
8710,45.0,3.0,210.0,13.0,0.0
8711,45.0,207.0,240.0,8.0,0.0
8712,33.0,1.0,210.0,14.0,0.0
8713,74.0,3.0,210.0,10.0,0.0
8714,78.0,0.0,210.0,0.0,0.0
8715,86.0,0.0,210.0,0.0,0.0
8716,62.0,0.0,210.0,11.0,0.0
8717,66.0,4.0,210.0,11.0,0.0
8718,66.0,0.0,210.0,1.0,0.0
8719,74.0,1.0,210.0,1.0,0.0
8720,57.0,2.0,240.0,7.0,0.0
8721,54.0,0.0,240.0,7.0,0.0
8722,66.0,9.0,210.0,2.0,0.0
8723,62.0,0.0,210.0,12.0,0.0
8724,54.0,4.0,210.0,12.0,0.0
8725,62.0,0.0,210.0,2.0,0.0
8726,62.0,2.0,240.0,5.0,0.0
8727,50.0,3.0,240.0,7.0,0.0
8728,50.0,1.0,210.0,3.0,0.0
8729,50.0,2.0,210.0,13.0,0.0
8730,50.0,62.0,240.0,8.0,0.0
8731,38.0,2.0,210.0,14.0,0.0
8732,70.0,3.0,60.0,10.0,0.0
8733,58.0,4.0,60.0,11.0,0.0
8734,54.0,5.0,60.0,12.0,0.0
8735,62.0,0.0,60.0,12.0,0.0
8736,46.0,3.0,60.0,13.0,0.0
8737,34.0,105.0,60.0,14.0,0.0
8738,69.0,3.0,60.0,10.0,0.0
8739,57.0,4.0,60.0,11.0,0.0
8740,62.0,0.0,60.0,12.0,0.0
8741,54.0,5.0,60.0,12.0,0.0
8742,45.0,3.0,60.0,13.0,0.0
8743,33.0,105.0,60.0,14.0,0.0
8744,66.0,3.0,60.0,10.0,0.0
8745,54.0,4.0,60.0,11.0,0.0
8746,62.0,5.0,60.0,12.0,0.0
8747,54.0,0.0,60.0,12.0,0.0
8748,42.0,3.0,60.0,13.0,0.0
8749,30.0,105.0,60.0,14.0,0.0
8750,62.0,3.0,60.0,10.0,0.0
8751,74.0,6.0,90.0,0.0,0.0
8752,62.0,4.0,60.0,11.0,0.0
8753,50.0,2.0,600.0,4.0,0.0
8754,50.0,5.0,60.0,12.0,0.0
8755,54.0,0.0,90.0,2.0,0.0
8756,62.0,4.0,90.0,2.0,0.0
8757,57.0,70.0,90.0,3.0,0.0
8758,38.0,3.0,60.0,13.0,0.0
8759,26.0,6.0,60.0,14.0,0.0
8760,73.0,6.0,90.0,0.0,0.0
8761,61.0,4.0,90.0,2.0,0.0
8762,53.0,0.0,90.0,2.0,0.0
8763,58.0,70.0,90.0,3.0,0.0
8764,74.0,6.0,90.0,0.0,0.0
8765,54.0,4.0,90.0,2.0,0.0
8766,62.0,0.0,90.0,2.0,0.0
8767,57.0,70.0,90.0,3.0,0.0
8768,73.0,6.0,90.0,0.0,0.0
8769,53.0,0.0,90.0,2.0,0.0
8770,61.0,4.0,90.0,2.0,0.0
8771,58.0,70.0,90.0,3.0,0.0
8772,74.0,6.0,90.0,0.0,0.0
8773,62.0,4.0,90.0,2.0,0.0
8774,54.0,0.0,90.0,2.0,0.0
8775,57.0,55.0,90.0,3.0,0.0
8776,78.0,6.0,60.0,0.0,0.0
8777,66.0,0.0,60.0,2.0,0.0
8778,57.0,4.0,60.0,2.0,0.0
8779,54.0,84.0,60.0,3.0,0.0
8780,62.0,3.0,90.0,10.0,0.0
8781,74.0,4.0,120.0,0.0,0.0
8782,54.0,4.0,90.0,11.0,0.0
8783,45.0,34.0,90.0,12.0,0.0
8784,54.0,0.0,120.0,2.0,0.0
8785,62.0,4.0,120.0,2.0,0.0
8786,57.0,29.0,120.0,3.0,0.0
8787,38.0,69.0,480.0,13.0,0.0
8788,61.0,3.0,90.0,10.0,0.0
8789,53.0,4.0,90.0,11.0,0.0
8790,46.0,73.0,90.0,12.0,0.0
8791,62.0,3.0,90.0,10.0,0.0
8792,54.0,4.0,90.0,11.0,0.0
8793,45.0,73.0,90.0,12.0,0.0
8794,61.0,3.0,90.0,10.0,0.0
8795,53.0,4.0,90.0,11.0,0.0
8796,46.0,73.0,90.0,12.0,0.0
8797,62.0,3.0,90.0,10.0,0.0
8798,54.0,4.0,90.0,11.0,0.0
8799,45.0,58.0,90.0,12.0,0.0
8800,66.0,3.0,60.0,10.0,0.0
8801,57.0,24.0,60.0,11.0,0.0
8802,50.0,5.0,210.0,12.0,0.0
8803,62.0,3.0,120.0,10.0,0.0
8804,74.0,0.0,90.0,0.0,0.0
8805,71.0,6.0,90.0,0.0,0.0
8806,59.0,4.0,120.0,11.0,0.0
8807,62.0,0.0,90.0,2.0,0.0
8808,59.0,4.0,90.0,2.0,0.0
8809,43.0,0.0,600.0,5.0,0.0
8810,55.0,3.0,600.0,5.0,0.0
8811,50.0,29.0,90.0,3.0,0.0
8812,43.0,29.0,120.0,13.0,0.0
8813,70.0,6.0,90.0,0.0,0.0
8814,73.0,0.0,90.0,0.0,0.0
8815,58.0,4.0,90.0,2.0,0.0
8816,61.0,0.0,90.0,2.0,0.0
8817,51.0,70.0,90.0,3.0,0.0
8818,71.0,0.0,90.0,0.0,0.0
8819,74.0,6.0,90.0,0.0,0.0
8820,62.0,0.0,90.0,2.0,0.0
8821,59.0,4.0,90.0,2.0,0.0
8822,50.0,70.0,90.0,3.0,0.0
8823,70.0,6.0,90.0,0.0,0.0
8824,73.0,0.0,90.0,0.0,0.0
8825,61.0,0.0,90.0,2.0,0.0
8826,58.0,4.0,90.0,2.0,0.0
8827,51.0,70.0,90.0,3.0,0.0
8828,71.0,0.0,90.0,0.0,0.0
8829,74.0,6.0,90.0,0.0,0.0
8830,59.0,4.0,90.0,2.0,0.0
8831,50.0,55.0,90.0,3.0,0.0
8832,67.0,6.0,60.0,0.0,0.0
8833,79.0,0.0,60.0,0.0,0.0
8834,62.0,0.0,15.0,2.0,0.0
8835,67.0,9.0,180.0,2.0,0.0
8836,47.0,116.0,60.0,3.0,0.0
8837,71.0,0.0,120.0,0.0,0.0
8838,74.0,6.0,120.0,0.0,0.0
8839,59.0,1.0,120.0,2.0,0.0
8840,50.0,110.0,120.0,3.0,0.0
8841,71.0,6.0,120.0,0.0,0.0
8842,67.0,0.0,120.0,0.0,0.0
8843,62.0,0.0,120.0,2.0,0.0
8844,71.0,4.0,120.0,2.0,0.0
8845,55.0,110.0,120.0,3.0,0.0
8846,69.0,6.0,120.0,0.0,0.0
8847,66.0,0.0,120.0,0.0,0.0
8848,69.0,99.0,120.0,2.0,0.0
8849,66.0,0.0,120.0,2.0,0.0
8850,57.0,0.0,360.0,3.0,0.0
8851,67.0,0.0,120.0,0.0,0.0
8852,73.0,6.0,120.0,0.0,0.0
8853,64.0,0.0,120.0,2.0,0.0
8854,67.0,4.0,120.0,2.0,0.0
8855,45.0,84.0,120.0,3.0,0.0
8856,62.0,3.0,90.0,10.0,0.0
8857,66.0,6.0,120.0,0.0,0.0
8858,74.0,0.0,120.0,0.0,0.0
8859,54.0,4.0,90.0,11.0,0.0
8860,66.0,4.0,120.0,2.0,0.0
8861,57.0,34.0,90.0,12.0,0.0
8862,62.0,0.0,120.0,2.0,0.0
8863,50.0,29.0,120.0,3.0,0.0
8864,50.0,69.0,480.0,13.0,0.0
8865,61.0,3.0,90.0,10.0,0.0
8866,53.0,4.0,90.0,11.0,0.0
8867,58.0,73.0,90.0,12.0,0.0
8868,62.0,3.0,90.0,10.0,0.0
8869,54.0,4.0,90.0,11.0,0.0
8870,57.0,73.0,90.0,12.0,0.0
8871,61.0,3.0,90.0,10.0,0.0
8872,53.0,4.0,90.0,11.0,0.0
8873,58.0,73.0,90.0,12.0,0.0
8874,62.0,3.0,90.0,10.0,0.0
8875,54.0,4.0,90.0,11.0,0.0
8876,57.0,58.0,90.0,12.0,0.0
8877,66.0,3.0,60.0,10.0,0.0
8878,57.0,4.0,60.0,11.0,0.0
8879,54.0,20.0,60.0,12.0,0.0
8880,62.0,3.0,120.0,10.0,0.0
8881,74.0,6.0,90.0,0.0,0.0
8882,71.0,0.0,90.0,0.0,0.0
8883,59.0,4.0,120.0,11.0,0.0
8884,55.0,5.0,120.0,12.0,0.0
8885,59.0,0.0,90.0,2.0,0.0
8886,62.0,4.0,90.0,2.0,0.0
8887,43.0,72.0,480.0,5.0,0.0
8888,55.0,0.0,480.0,5.0,0.0
8889,43.0,29.0,90.0,3.0,0.0
8890,43.0,29.0,120.0,13.0,0.0
8891,73.0,6.0,90.0,0.0,0.0
8892,70.0,0.0,90.0,0.0,0.0
8893,61.0,0.0,90.0,2.0,0.0
8894,58.0,4.0,90.0,2.0,0.0
8895,44.0,70.0,90.0,3.0,0.0
8896,71.0,6.0,90.0,0.0,0.0
8897,74.0,0.0,90.0,0.0,0.0
8898,62.0,4.0,90.0,2.0,0.0
8899,59.0,0.0,90.0,2.0,0.0
8900,43.0,70.0,90.0,3.0,0.0
8901,73.0,6.0,90.0,0.0,0.0
8902,70.0,0.0,90.0,0.0,0.0
8903,58.0,0.0,90.0,2.0,0.0
8904,61.0,4.0,90.0,2.0,0.0
8905,44.0,70.0,90.0,3.0,0.0
8906,74.0,0.0,90.0,0.0,0.0
8907,71.0,6.0,90.0,0.0,0.0
8908,62.0,4.0,90.0,2.0,0.0
8909,59.0,0.0,90.0,2.0,0.0
8910,43.0,55.0,90.0,3.0,0.0
8911,79.0,0.0,60.0,0.0,0.0
8912,67.0,6.0,60.0,0.0,0.0
8913,67.0,0.0,60.0,2.0,0.0
8914,55.0,4.0,60.0,2.0,0.0
8915,40.0,12.0,60.0,3.0,0.0
8916,62.0,3.0,90.0,10.0,0.0
8917,74.0,0.0,120.0,0.0,0.0
8918,71.0,6.0,120.0,0.0,0.0
8919,59.0,4.0,90.0,11.0,0.0
8920,54.0,34.0,90.0,12.0,0.0
8921,54.0,0.0,120.0,2.0,0.0
8922,62.0,1.0,120.0,2.0,0.0
8923,42.0,3.0,120.0,5.0,0.0
8924,54.0,0.0,120.0,5.0,0.0
8925,50.0,29.0,120.0,3.0,0.0
8926,35.0,108.0,600.0,13.0,0.0
8927,61.0,3.0,90.0,10.0,0.0
8928,58.0,4.0,90.0,11.0,0.0
8929,55.0,73.0,90.0,12.0,0.0
8930,62.0,3.0,90.0,10.0,0.0
8931,59.0,4.0,90.0,11.0,0.0
8932,54.0,73.0,90.0,12.0,0.0
8933,61.0,3.0,90.0,10.0,0.0
8934,58.0,4.0,90.0,11.0,0.0
8935,55.0,73.0,90.0,12.0,0.0
8936,62.0,3.0,90.0,10.0,0.0
8937,59.0,4.0,90.0,11.0,0.0
8938,54.0,58.0,90.0,12.0,0.0
8939,66.0,3.0,60.0,10.0,0.0
8940,54.0,4.0,60.0,11.0,0.0
8941,50.0,128.0,60.0,12.0,0.0
8942,62.0,3.0,120.0,10.0,0.0
8943,59.0,4.0,120.0,11.0,0.0
8944,54.0,5.0,120.0,12.0,0.0
8945,59.0,3.0,120.0,10.0,0.0
8946,56.0,4.0,120.0,11.0,0.0
8947,50.0,5.0,120.0,12.0,0.0
8948,47.0,108.0,120.0,13.0,0.0
8949,57.0,3.0,120.0,10.0,0.0
8950,54.0,9.0,120.0,11.0,0.0
8951,49.0,5.0,240.0,12.0,0.0
8952,49.0,93.0,120.0,13.0,0.0
8953,56.0,3.0,120.0,10.0,0.0
8954,53.0,4.0,120.0,11.0,0.0
8955,37.0,123.0,120.0,13.0,0.0
8956,54.0,3.0,120.0,10.0,0.0
8957,54.0,4.0,120.0,11.0,0.0
8958,54.0,5.0,120.0,12.0,0.0
8959,42.0,103.0,120.0,13.0,0.0
8960,78.0,51.0,120.0,1.0,0.0
8961,66.0,47.0,180.0,4.0,0.0
8962,60.0,5.0,60.0,12.0,0.0
8963,56.0,4.0,60.0,13.0,0.0
8964,73.0,111.0,120.0,1.0,0.0
8965,61.0,5.0,60.0,12.0,0.0
8966,57.0,17.0,60.0,13.0,0.0
8967,74.0,51.0,120.0,1.0,0.0
8968,62.0,47.0,180.0,4.0,0.0
8969,56.0,5.0,60.0,12.0,0.0
8970,53.0,4.0,60.0,13.0,0.0
8971,69.0,111.0,120.0,1.0,0.0
8972,57.0,5.0,60.0,12.0,0.0
8973,54.0,17.0,60.0,13.0,0.0
8974,73.0,51.0,120.0,1.0,0.0
8975,61.0,47.0,180.0,4.0,0.0
8976,54.0,5.0,60.0,12.0,0.0
8977,51.0,4.0,60.0,13.0,0.0
8978,68.0,13.0,60.0,1.0,0.0
8979,56.0,5.0,60.0,12.0,0.0
8980,53.0,4.0,60.0,13.0,0.0
8981,71.0,60.0,60.0,1.0,0.0
8982,69.0,37.0,60.0,1.0,0.0
8983,61.0,14.0,90.0,4.0,0.0
8984,68.0,51.0,60.0,1.0,0.0
8985,53.0,5.0,60.0,12.0,0.0
8986,49.0,4.0,60.0,13.0,0.0
8987,69.0,44.0,60.0,1.0,0.0
8988,54.0,5.0,60.0,12.0,0.0
8989,42.0,4.0,60.0,13.0,0.0
8990,73.0,3.0,60.0,10.0,0.0
8991,69.0,13.0,60.0,11.0,0.0
8992,66.0,44.0,60.0,1.0,0.0
8993,72.0,3.0,60.0,10.0,0.0
8994,68.0,64.0,60.0,11.0,0.0
8995,66.0,31.0,180.0,4.0,0.0
8996,78.0,48.0,120.0,2.0,0.0
8997,60.0,5.0,60.0,12.0,0.0
8998,56.0,7.0,60.0,13.0,0.0
8999,61.0,5.0,60.0,12.0,0.0
9000,73.0,41.0,120.0,2.0,0.0
9001,57.0,17.0,60.0,13.0,0.0
9002,73.0,3.0,60.0,10.0,0.0
9003,69.0,16.0,60.0,11.0,0.0
9004,68.0,3.0,60.0,10.0,0.0
9005,86.0,6.0,120.0,0.0,0.0
9006,65.0,64.0,60.0,11.0,0.0
9007,62.0,31.0,180.0,4.0,0.0
9008,74.0,48.0,120.0,2.0,0.0
9009,56.0,5.0,60.0,12.0,0.0
9010,53.0,1.0,60.0,13.0,0.0
9011,81.0,6.0,120.0,0.0,0.0
9012,69.0,41.0,120.0,2.0,0.0
9013,57.0,5.0,60.0,12.0,0.0
9014,54.0,17.0,60.0,13.0,0.0
9015,69.0,3.0,60.0,10.0,0.0
9016,66.0,10.0,60.0,11.0,0.0
9017,66.0,3.0,60.0,10.0,0.0
9018,85.0,6.0,120.0,0.0,0.0
9019,63.0,64.0,60.0,11.0,0.0
9020,61.0,31.0,180.0,4.0,0.0
9021,73.0,4.0,120.0,2.0,0.0
9022,61.0,44.0,120.0,3.0,0.0
9023,54.0,5.0,60.0,12.0,0.0
9024,51.0,1.0,60.0,13.0,0.0
9025,80.0,6.0,60.0,0.0,0.0
9026,56.0,5.0,60.0,12.0,0.0
9027,68.0,4.0,60.0,2.0,0.0
9028,56.0,6.0,60.0,3.0,0.0
9029,53.0,1.0,60.0,13.0,0.0
9030,68.0,3.0,60.0,10.0,0.0
9031,83.0,6.0,60.0,0.0,0.0
9032,65.0,10.0,60.0,11.0,0.0
9033,71.0,4.0,60.0,2.0,0.0
9034,59.0,37.0,60.0,3.0,0.0
9035,65.0,3.0,60.0,10.0,0.0
9036,81.0,6.0,60.0,0.0,0.0
9037,61.0,10.0,60.0,11.0,0.0
9038,61.0,14.0,90.0,4.0,0.0
9039,69.0,4.0,60.0,2.0,0.0
9040,57.0,30.0,60.0,3.0,0.0
9041,80.0,6.0,60.0,0.0,0.0
9042,53.0,5.0,60.0,12.0,0.0
9043,68.0,4.0,60.0,2.0,0.0
9044,56.0,44.0,60.0,3.0,0.0
9045,49.0,1.0,60.0,13.0,0.0
9046,83.0,6.0,60.0,0.0,0.0
9047,71.0,4.0,60.0,2.0,0.0
9048,54.0,5.0,60.0,12.0,0.0
9049,59.0,37.0,60.0,3.0,0.0
9050,50.0,1.0,60.0,13.0,0.0
9051,66.0,3.0,60.0,10.0,0.0
9052,81.0,6.0,60.0,0.0,0.0
9053,62.0,10.0,60.0,11.0,0.0
9054,69.0,4.0,60.0,2.0,0.0
9055,57.0,37.0,60.0,3.0,0.0
9056,62.0,3.0,60.0,10.0,0.0
9057,80.0,6.0,60.0,0.0,0.0
9058,59.0,10.0,60.0,11.0,0.0
9059,68.0,4.0,60.0,2.0,0.0
9060,56.0,44.0,60.0,3.0,0.0
9061,86.0,6.0,60.0,0.0,0.0
9062,74.0,4.0,60.0,2.0,0.0
9063,54.0,5.0,60.0,12.0,0.0
9064,62.0,44.0,60.0,3.0,0.0
9065,47.0,1.0,60.0,13.0,0.0
9066,85.0,6.0,60.0,0.0,0.0
9067,53.0,5.0,60.0,12.0,0.0
9068,73.0,4.0,60.0,2.0,0.0
9069,61.0,37.0,60.0,3.0,0.0
9070,49.0,1.0,60.0,13.0,0.0
9071,61.0,3.0,60.0,10.0,0.0
9072,83.0,6.0,60.0,0.0,0.0
9073,56.0,10.0,60.0,11.0,0.0
9074,71.0,4.0,60.0,2.0,0.0
9075,59.0,37.0,60.0,3.0,0.0
9076,65.0,3.0,60.0,10.0,0.0
9077,81.0,6.0,60.0,0.0,0.0
9078,61.0,10.0,60.0,11.0,0.0
9079,69.0,4.0,60.0,2.0,0.0
9080,57.0,44.0,60.0,3.0,0.0
9081,80.0,6.0,120.0,0.0,0.0
9082,53.0,5.0,60.0,12.0,0.0
9083,68.0,4.0,120.0,2.0,0.0
9084,56.0,50.0,120.0,3.0,0.0
9085,47.0,55.0,60.0,13.0,0.0
9086,49.0,5.0,60.0,12.0,0.0
9087,45.0,1.0,60.0,13.0,0.0
9088,78.0,6.0,60.0,0.0,0.0
9089,66.0,4.0,60.0,2.0,0.0
9090,54.0,37.0,60.0,3.0,0.0
9091,66.0,3.0,60.0,10.0,0.0
9092,73.0,6.0,60.0,0.0,0.0
9093,61.0,4.0,60.0,11.0,0.0
9094,61.0,4.0,60.0,2.0,0.0
9095,54.0,6.0,60.0,12.0,0.0
9096,49.0,49.0,60.0,3.0,0.0
9097,69.0,6.0,60.0,0.0,0.0
9098,57.0,4.0,60.0,2.0,0.0
9099,45.0,49.0,60.0,3.0,0.0
9100,39.0,1.0,60.0,13.0,0.0
9101,68.0,6.0,60.0,0.0,0.0
9102,56.0,4.0,60.0,2.0,0.0
9103,44.0,50.0,60.0,3.0,0.0
9104,41.0,1.0,60.0,13.0,0.0
9105,71.0,6.0,60.0,0.0,0.0
9106,59.0,4.0,60.0,2.0,0.0
9107,47.0,40.0,60.0,3.0,0.0
9108,69.0,6.0,60.0,0.0,0.0
9109,56.0,4.0,60.0,11.0,0.0
9110,57.0,4.0,60.0,2.0,0.0
9111,59.0,6.0,60.0,12.0,0.0
9112,45.0,49.0,60.0,3.0,0.0
9113,68.0,6.0,60.0,0.0,0.0
9114,56.0,4.0,60.0,2.0,0.0
9115,44.0,49.0,60.0,3.0,0.0
9116,37.0,1.0,60.0,13.0,0.0
9117,71.0,6.0,60.0,0.0,0.0
9118,59.0,4.0,60.0,2.0,0.0
9119,47.0,50.0,60.0,3.0,0.0
9120,38.0,1.0,60.0,13.0,0.0
9121,69.0,6.0,60.0,0.0,0.0
9122,57.0,4.0,60.0,2.0,0.0
9123,45.0,40.0,60.0,3.0,0.0
9124,68.0,6.0,60.0,0.0,0.0
9125,54.0,4.0,60.0,11.0,0.0
9126,56.0,4.0,60.0,2.0,0.0
9127,59.0,6.0,60.0,12.0,0.0
9128,44.0,49.0,60.0,3.0,0.0
9129,74.0,6.0,60.0,0.0,0.0
9130,62.0,4.0,60.0,2.0,0.0
9131,50.0,40.0,60.0,3.0,0.0
9132,35.0,1.0,60.0,13.0,0.0
9133,73.0,6.0,60.0,0.0,0.0
9134,53.0,4.0,60.0,11.0,0.0
9135,61.0,4.0,60.0,2.0,0.0
9136,59.0,5.0,60.0,12.0,0.0
9137,49.0,50.0,60.0,3.0,0.0
9138,37.0,1.0,60.0,13.0,0.0
9139,71.0,6.0,60.0,0.0,0.0
9140,59.0,4.0,60.0,2.0,0.0
9141,47.0,50.0,60.0,3.0,0.0
9142,69.0,6.0,60.0,0.0,0.0
9143,57.0,4.0,60.0,2.0,0.0
9144,45.0,35.0,60.0,3.0,0.0
9145,68.0,6.0,60.0,0.0,0.0
9146,56.0,4.0,60.0,2.0,0.0
9147,44.0,84.0,60.0,3.0,0.0
9148,62.0,3.0,90.0,10.0,0.0
9149,54.0,4.0,90.0,11.0,0.0
9150,57.0,4.0,90.0,2.0,0.0
9151,57.0,0.0,120.0,12.0,0.0
9152,54.0,4.0,120.0,2.0,0.0
9153,42.0,29.0,120.0,3.0,0.0
9154,45.0,36.0,90.0,3.0,0.0
9155,38.0,115.0,600.0,13.0,0.0
9156,61.0,3.0,90.0,10.0,0.0
9157,53.0,4.0,90.0,11.0,0.0
9158,58.0,4.0,90.0,2.0,0.0
9159,46.0,69.0,90.0,3.0,0.0
9160,62.0,3.0,90.0,10.0,0.0
9161,54.0,4.0,90.0,11.0,0.0
9162,57.0,4.0,90.0,2.0,0.0
9163,45.0,69.0,90.0,3.0,0.0
9164,61.0,3.0,90.0,10.0,0.0
9165,53.0,4.0,90.0,11.0,0.0
9166,58.0,4.0,90.0,2.0,0.0
9167,50.0,0.0,360.0,12.0,0.0
9168,46.0,69.0,90.0,3.0,0.0
9169,62.0,3.0,90.0,10.0,0.0
9170,54.0,4.0,90.0,11.0,0.0
9171,57.0,4.0,90.0,2.0,0.0
9172,45.0,54.0,90.0,3.0,0.0
9173,66.0,3.0,60.0,10.0,0.0
9174,57.0,4.0,60.0,11.0,0.0
9175,54.0,4.0,60.0,2.0,0.0
9176,42.0,131.0,60.0,3.0,0.0
9177,62.0,7.0,360.0,10.0,0.0
9178,54.0,4.0,480.0,11.0,0.0
9179,57.0,4.0,120.0,2.0,0.0
9180,45.0,1.0,120.0,3.0,0.0
9181,46.0,5.0,120.0,12.0,0.0
9182,62.0,0.0,240.0,2.0,0.0
9183,50.0,1.0,240.0,3.0,0.0
9184,34.0,108.0,120.0,13.0,0.0
9185,45.0,4.0,120.0,12.0,0.0
9186,33.0,93.0,120.0,13.0,0.0
9187,58.0,3.0,120.0,10.0,0.0
9188,54.0,4.0,120.0,2.0,0.0
9189,42.0,1.0,120.0,3.0,0.0
9190,37.0,86.0,120.0,13.0,0.0
9191,57.0,43.0,120.0,10.0,0.0
9192,62.0,4.0,90.0,11.0,0.0
9193,57.0,0.0,90.0,2.0,0.0
9194,66.0,4.0,90.0,12.0,0.0
9195,45.0,29.0,90.0,3.0,0.0
9196,38.0,120.0,600.0,13.0,0.0
9197,61.0,4.0,90.0,11.0,0.0
9198,58.0,4.0,90.0,2.0,0.0
9199,65.0,0.0,90.0,12.0,0.0
9200,46.0,72.0,90.0,3.0,0.0
9201,62.0,4.0,90.0,11.0,0.0
9202,66.0,4.0,90.0,12.0,0.0
9203,57.0,0.0,90.0,2.0,0.0
9204,45.0,72.0,90.0,3.0,0.0
9205,61.0,4.0,90.0,11.0,0.0
9206,58.0,4.0,90.0,2.0,0.0
9207,65.0,0.0,90.0,12.0,0.0
9208,46.0,72.0,90.0,3.0,0.0
9209,62.0,4.0,90.0,11.0,0.0
9210,57.0,0.0,90.0,2.0,0.0
9211,66.0,4.0,90.0,12.0,0.0
9212,45.0,57.0,90.0,3.0,0.0
9213,57.0,4.0,60.0,11.0,0.0
9214,54.0,0.0,60.0,2.0,0.0
9215,69.0,4.0,60.0,12.0,0.0
9216,42.0,131.0,60.0,3.0,0.0
9217,62.0,4.0,360.0,11.0,0.0
9218,57.0,4.0,120.0,2.0,0.0
9219,66.0,36.0,330.0,12.0,0.0
9220,45.0,1.0,120.0,3.0,0.0
9221,66.0,4.0,240.0,2.0,0.0
9222,54.0,1.0,240.0,3.0,0.0
9223,34.0,75.0,120.0,13.0,0.0
9224,33.0,35.0,120.0,13.0,0.0
9225,62.0,65.0,90.0,12.0,0.0
9226,54.0,4.0,120.0,2.0,0.0
9227,42.0,1.0,120.0,3.0,0.0
9228,37.0,83.0,120.0,13.0,0.0
9229,58.0,0.0,60.0,12.0,0.0
9230,69.0,3.0,90.0,10.0,0.0
9231,65.0,4.0,90.0,11.0,0.0
9232,57.0,40.0,90.0,12.0,0.0
9233,57.0,4.0,120.0,2.0,0.0
9234,45.0,29.0,120.0,3.0,0.0
9235,38.0,115.0,600.0,13.0,0.0
9236,68.0,3.0,90.0,10.0,0.0
9237,64.0,4.0,90.0,11.0,0.0
9238,58.0,65.0,90.0,12.0,0.0
9239,69.0,3.0,90.0,10.0,0.0
9240,65.0,64.0,90.0,11.0,0.0
9241,57.0,8.0,60.0,12.0,0.0
9242,73.0,3.0,90.0,10.0,0.0
9243,64.0,44.0,90.0,11.0,0.0
9244,58.0,13.0,60.0,12.0,0.0
9245,57.0,33.0,60.0,12.0,0.0
9246,74.0,3.0,90.0,10.0,0.0
9247,65.0,24.0,90.0,11.0,0.0
9248,53.0,38.0,60.0,12.0,0.0
9249,77.0,3.0,60.0,10.0,0.0
9250,69.0,4.0,60.0,11.0,0.0
9251,50.0,140.0,60.0,12.0,0.0
9252,81.0,4.0,360.0,10.0,0.0
9253,77.0,37.0,330.0,11.0,0.0
9254,65.0,1.0,360.0,1.0,0.0
9255,69.0,0.0,360.0,1.0,0.0
9256,53.0,0.0,360.0,4.0,0.0
9257,65.0,6.0,360.0,4.0,0.0
9258,45.0,5.0,240.0,12.0,0.0
9259,57.0,0.0,360.0,3.0,0.0
9260,53.0,1.0,360.0,3.0,0.0
9261,37.0,71.0,120.0,13.0,0.0
9262,48.0,4.0,240.0,12.0,0.0
9263,36.0,31.0,120.0,13.0,0.0
9264,72.0,62.0,90.0,11.0,0.0
9265,79.0,3.0,120.0,10.0,0.0
9266,67.0,3.0,120.0,1.0,0.0
9267,60.0,0.0,120.0,1.0,0.0
9268,60.0,0.0,120.0,4.0,0.0
9269,55.0,75.0,120.0,4.0,0.0
9270,55.0,0.0,120.0,3.0,0.0
9271,48.0,1.0,120.0,3.0,0.0
9272,40.0,8.0,120.0,13.0,0.0
9273,70.0,1.0,60.0,11.0,0.0
9274,72.0,7.0,90.0,10.0,0.0
9275,69.0,37.0,120.0,11.0,0.0
9276,53.0,5.0,600.0,12.0,0.0
9277,57.0,0.0,90.0,2.0,0.0
9278,65.0,4.0,90.0,2.0,0.0
9279,53.0,32.0,90.0,3.0,0.0
9280,45.0,0.0,90.0,3.0,0.0
9281,41.0,115.0,600.0,13.0,0.0
9282,73.0,7.0,90.0,10.0,0.0
9283,64.0,4.0,90.0,2.0,0.0
9284,56.0,0.0,90.0,2.0,0.0
9285,44.0,69.0,90.0,3.0,0.0
9286,52.0,0.0,90.0,3.0,0.0
9287,72.0,7.0,90.0,10.0,0.0
9288,65.0,0.0,90.0,2.0,0.0
9289,57.0,4.0,90.0,2.0,0.0
9290,45.0,69.0,90.0,3.0,0.0
9291,53.0,0.0,90.0,3.0,0.0
9292,73.0,7.0,90.0,10.0,0.0
9293,56.0,4.0,90.0,2.0,0.0
9294,64.0,0.0,90.0,2.0,0.0
9295,52.0,0.0,90.0,3.0,0.0
9296,44.0,69.0,90.0,3.0,0.0
9297,72.0,7.0,90.0,10.0,0.0
9298,65.0,0.0,90.0,2.0,0.0
9299,57.0,4.0,90.0,2.0,0.0
9300,53.0,0.0,90.0,3.0,0.0
9301,45.0,54.0,90.0,3.0,0.0
9302,69.0,7.0,60.0,10.0,0.0
9303,60.0,4.0,60.0,2.0,0.0
9304,69.0,0.0,60.0,2.0,0.0
9305,48.0,124.0,60.0,3.0,0.0
9306,57.0,0.0,60.0,3.0,0.0
9307,72.0,7.0,120.0,10.0,0.0
9308,65.0,0.0,360.0,2.0,0.0
9309,57.0,0.0,600.0,2.0,0.0
9310,53.0,1.0,360.0,3.0,0.0
9311,45.0,29.0,600.0,3.0,0.0
9312,77.0,7.0,240.0,10.0,0.0
9313,50.0,5.0,120.0,12.0,0.0
9314,38.0,108.0,120.0,13.0,0.0
9315,48.0,4.0,120.0,12.0,0.0
9316,36.0,93.0,120.0,13.0,0.0
9317,69.0,7.0,120.0,10.0,0.0
9318,61.0,4.0,120.0,2.0,0.0
9319,52.0,0.0,120.0,12.0,0.0
9320,49.0,1.0,120.0,3.0,0.0
9321,40.0,83.0,120.0,13.0,0.0
9322,72.0,1.0,90.0,10.0,0.0
9323,77.0,0.0,90.0,0.0,0.0
9324,81.0,2.0,90.0,0.0,0.0
9325,57.0,1.0,90.0,11.0,0.0
9326,53.0,0.0,90.0,11.0,0.0
9327,65.0,43.0,90.0,1.0,0.0
9328,69.0,0.0,90.0,1.0,0.0
9329,53.0,5.0,600.0,12.0,0.0
9330,60.0,4.0,120.0,2.0,0.0
9331,48.0,0.0,120.0,3.0,0.0
9332,41.0,109.0,600.0,13.0,0.0
9333,73.0,1.0,90.0,10.0,0.0
9334,80.0,0.0,90.0,0.0,0.0
9335,76.0,2.0,90.0,0.0,0.0
9336,52.0,0.0,90.0,11.0,0.0
9337,56.0,1.0,90.0,11.0,0.0
9338,64.0,76.0,90.0,1.0,0.0
9339,68.0,0.0,90.0,1.0,0.0
9340,72.0,1.0,90.0,10.0,0.0
9341,81.0,0.0,90.0,0.0,0.0
9342,77.0,2.0,90.0,0.0,0.0
9343,53.0,0.0,90.0,11.0,0.0
9344,57.0,1.0,90.0,11.0,0.0
9345,69.0,0.0,90.0,1.0,0.0
9346,65.0,76.0,90.0,1.0,0.0
9347,73.0,1.0,90.0,10.0,0.0
9348,76.0,2.0,90.0,0.0,0.0
9349,80.0,0.0,90.0,0.0,0.0
9350,56.0,1.0,90.0,11.0,0.0
9351,52.0,0.0,90.0,11.0,0.0
9352,68.0,76.0,90.0,1.0,0.0
9353,64.0,0.0,90.0,1.0,0.0
9354,72.0,1.0,90.0,10.0,0.0
9355,77.0,2.0,90.0,0.0,0.0
9356,81.0,0.0,90.0,0.0,0.0
9357,53.0,1.0,90.0,11.0,0.0
9358,57.0,0.0,90.0,11.0,0.0
9359,69.0,61.0,90.0,1.0,0.0
9360,65.0,0.0,90.0,1.0,0.0
9361,69.0,1.0,60.0,10.0,0.0
9362,72.0,2.0,60.0,0.0,0.0
9363,84.0,0.0,60.0,0.0,0.0
9364,57.0,1.0,60.0,11.0,0.0
9365,60.0,0.0,60.0,11.0,0.0
9366,60.0,0.0,60.0,1.0,0.0
9367,72.0,131.0,60.0,1.0,0.0
9368,72.0,7.0,120.0,10.0,0.0
9369,81.0,3.0,330.0,0.0,0.0
9370,77.0,2.0,240.0,0.0,0.0
9371,57.0,0.0,240.0,11.0,0.0
9372,53.0,1.0,240.0,11.0,0.0
9373,69.0,36.0,330.0,1.0,0.0
9374,65.0,3.0,240.0,1.0,0.0
9375,81.0,7.0,240.0,10.0,0.0
9376,49.0,5.0,120.0,12.0,0.0
9377,37.0,69.0,120.0,13.0,0.0
9378,48.0,5.0,120.0,12.0,0.0
9379,36.0,29.0,120.0,13.0,0.0
9380,77.0,3.0,90.0,0.0,0.0
9381,65.0,61.0,90.0,1.0,0.0
9382,69.0,1.0,120.0,10.0,0.0
9383,52.0,5.0,120.0,12.0,0.0
9384,40.0,83.0,120.0,13.0,0.0
9385,73.0,3.0,60.0,0.0,0.0
9386,61.0,3.0,60.0,1.0,0.0
9387,72.0,3.0,90.0,10.0,0.0
9388,72.0,3.0,120.0,0.0,0.0
9389,68.0,4.0,90.0,11.0,0.0
9390,60.0,36.0,120.0,1.0,0.0
9391,53.0,5.0,600.0,12.0,0.0
9392,72.0,4.0,90.0,2.0,0.0
9393,60.0,30.0,90.0,3.0,0.0
9394,41.0,100.0,600.0,13.0,0.0
9395,71.0,3.0,90.0,10.0,0.0
9396,67.0,4.0,90.0,11.0,0.0
9397,73.0,4.0,90.0,2.0,0.0
9398,61.0,69.0,90.0,3.0,0.0
9399,72.0,3.0,90.0,10.0,0.0
9400,68.0,4.0,90.0,11.0,0.0
9401,72.0,4.0,90.0,2.0,0.0
9402,60.0,56.0,90.0,3.0,0.0
9403,76.0,3.0,90.0,10.0,0.0
9404,67.0,44.0,90.0,11.0,0.0
9405,73.0,4.0,60.0,2.0,0.0
9406,61.0,9.0,60.0,3.0,0.0
9407,72.0,4.0,60.0,2.0,0.0
9408,60.0,29.0,60.0,3.0,0.0
9409,77.0,3.0,90.0,10.0,0.0
9410,68.0,24.0,90.0,11.0,0.0
9411,68.0,4.0,60.0,2.0,0.0
9412,56.0,34.0,60.0,3.0,0.0
9413,80.0,3.0,60.0,10.0,0.0
9414,72.0,4.0,60.0,11.0,0.0
9415,65.0,4.0,60.0,2.0,0.0
9416,53.0,131.0,60.0,3.0,0.0
9417,84.0,3.0,360.0,10.0,0.0
9418,80.0,1.0,360.0,11.0,0.0
9419,72.0,1.0,360.0,1.0,0.0
9420,68.0,0.0,360.0,1.0,0.0
9421,60.0,0.0,360.0,4.0,0.0
9422,56.0,100.0,360.0,4.0,0.0
9423,60.0,4.0,240.0,2.0,0.0
9424,48.0,109.0,240.0,3.0,0.0
9425,52.0,5.0,120.0,12.0,0.0
9426,40.0,10.0,120.0,13.0,0.0
9427,63.0,4.0,240.0,2.0,0.0
9428,51.0,5.0,360.0,12.0,0.0
9429,51.0,116.0,240.0,3.0,0.0
9430,39.0,100.0,360.0,13.0,0.0
9431,83.0,3.0,120.0,10.0,0.0
9432,80.0,1.0,120.0,11.0,0.0
9433,71.0,0.0,120.0,1.0,0.0
9434,67.0,1.0,120.0,1.0,0.0
9435,59.0,0.0,120.0,4.0,0.0
9436,55.0,17.0,120.0,4.0,0.0
9437,84.0,4.0,360.0,10.0,0.0
9438,80.0,37.0,330.0,11.0,0.0
9439,68.0,0.0,360.0,1.0,0.0
9440,72.0,1.0,360.0,1.0,0.0
9441,60.0,0.0,360.0,4.0,0.0
9442,56.0,38.0,360.0,4.0,0.0
9443,50.0,5.0,120.0,12.0,0.0
9444,38.0,86.0,120.0,13.0,0.0
9445,51.0,5.0,240.0,12.0,0.0
9446,39.0,123.0,240.0,13.0,0.0
9447,75.0,62.0,90.0,11.0,0.0
9448,82.0,3.0,120.0,10.0,0.0
9449,70.0,1.0,120.0,1.0,0.0
9450,67.0,0.0,120.0,1.0,0.0
9451,55.0,0.0,120.0,4.0,0.0
9452,58.0,2.0,120.0,4.0,0.0
9453,73.0,1.0,60.0,11.0,0.0
9454,75.0,3.0,120.0,10.0,0.0
9455,72.0,1.0,120.0,11.0,0.0
9456,68.0,0.0,120.0,1.0,0.0
9457,72.0,1.0,120.0,1.0,0.0
9458,56.0,0.0,120.0,4.0,0.0
9459,60.0,2.0,120.0,4.0,0.0
9460,56.0,5.0,120.0,12.0,0.0
9461,44.0,148.0,120.0,13.0,0.0
9462,80.0,40.0,30.0,10.0,0.0
9463,80.0,5.0,240.0,0.0,0.0
9464,56.0,1.0,240.0,7.0,0.0
9465,68.0,33.0,240.0,2.0,0.0
9466,32.0,3.0,960.0,13.0,0.0
9467,32.0,1.0,960.0,14.0,0.0
9468,68.0,40.0,30.0,10.0,0.0
9469,80.0,40.0,30.0,10.0,0.0
9470,68.0,40.0,30.0,10.0,0.0
9471,80.0,40.0,30.0,10.0,0.0
9472,68.0,1.0,30.0,10.0,0.0
9473,80.0,40.0,30.0,10.0,0.0
9474,75.0,5.0,240.0,0.0,0.0
9475,51.0,1.0,240.0,7.0,0.0
9476,63.0,33.0,240.0,2.0,0.0
9477,68.0,40.0,30.0,10.0,0.0
9478,80.0,40.0,30.0,10.0,0.0
9479,68.0,40.0,30.0,10.0,0.0
9480,80.0,40.0,30.0,10.0,0.0
9481,68.0,1.0,30.0,10.0,0.0
9482,80.0,40.0,30.0,10.0,0.0
9483,76.0,5.0,240.0,0.0,0.0
9484,52.0,1.0,240.0,7.0,0.0
9485,64.0,33.0,240.0,2.0,0.0
9486,68.0,40.0,30.0,10.0,0.0
9487,80.0,40.0,30.0,10.0,0.0
9488,68.0,40.0,30.0,10.0,0.0
9489,80.0,40.0,30.0,10.0,0.0
9490,68.0,1.0,30.0,10.0,0.0
9491,80.0,40.0,30.0,10.0,0.0
9492,71.0,6.0,240.0,0.0,0.0
9493,47.0,6.0,240.0,7.0,0.0
9494,59.0,33.0,240.0,2.0,0.0
9495,68.0,40.0,30.0,10.0,0.0
9496,80.0,40.0,30.0,10.0,0.0
9497,68.0,40.0,30.0,10.0,0.0
9498,80.0,25.0,30.0,10.0,0.0
9499,68.0,6.0,30.0,10.0,0.0
9500,79.0,3.0,30.0,10.0,0.0
9501,51.0,37.0,30.0,11.0,0.0
9502,63.0,2.0,240.0,1.0,0.0
9503,63.0,4.0,240.0,7.0,0.0
9504,51.0,30.0,240.0,7.0,0.0
9505,39.0,3.0,960.0,13.0,0.0
9506,27.0,4.0,960.0,14.0,0.0
9507,67.0,3.0,30.0,10.0,0.0
9508,63.0,37.0,30.0,11.0,0.0
9509,79.0,3.0,30.0,10.0,0.0
9510,51.0,37.0,30.0,11.0,0.0
9511,67.0,3.0,30.0,10.0,0.0
9512,63.0,37.0,30.0,11.0,0.0
9513,79.0,3.0,30.0,10.0,0.0
9514,51.0,37.0,30.0,11.0,0.0
9515,67.0,3.0,30.0,10.0,0.0
9516,63.0,1.0,30.0,11.0,0.0
9517,79.0,3.0,30.0,10.0,0.0
9518,51.0,37.0,30.0,11.0,0.0
9519,70.0,2.0,240.0,1.0,0.0
9520,58.0,4.0,240.0,7.0,0.0
9521,46.0,30.0,240.0,7.0,0.0
9522,67.0,3.0,30.0,10.0,0.0
9523,63.0,37.0,30.0,11.0,0.0
9524,79.0,3.0,30.0,10.0,0.0
9525,51.0,37.0,30.0,11.0,0.0
9526,67.0,3.0,30.0,10.0,0.0
9527,63.0,37.0,30.0,11.0,0.0
9528,79.0,3.0,30.0,10.0,0.0
9529,51.0,37.0,30.0,11.0,0.0
9530,67.0,3.0,30.0,10.0,0.0
9531,63.0,1.0,30.0,11.0,0.0
9532,78.0,3.0,30.0,10.0,0.0
9533,51.0,37.0,30.0,11.0,0.0
9534,71.0,2.0,240.0,1.0,0.0
9535,59.0,4.0,240.0,7.0,0.0
9536,47.0,30.0,240.0,7.0,0.0
9537,66.0,3.0,30.0,10.0,0.0
9538,63.0,37.0,30.0,11.0,0.0
9539,78.0,3.0,30.0,10.0,0.0
9540,51.0,37.0,30.0,11.0,0.0
9541,66.0,3.0,30.0,10.0,0.0
9542,63.0,37.0,30.0,11.0,0.0
9543,78.0,3.0,30.0,10.0,0.0
9544,51.0,37.0,30.0,11.0,0.0
9545,66.0,3.0,30.0,10.0,0.0
9546,63.0,1.0,30.0,11.0,0.0
9547,78.0,3.0,30.0,10.0,0.0
9548,51.0,37.0,30.0,11.0,0.0
9549,66.0,36.0,240.0,1.0,0.0
9550,54.0,4.0,240.0,7.0,0.0
9551,42.0,2.0,240.0,7.0,0.0
9552,66.0,3.0,30.0,10.0,0.0
9553,63.0,37.0,30.0,11.0,0.0
9554,78.0,3.0,30.0,10.0,0.0
9555,51.0,37.0,30.0,11.0,0.0
9556,66.0,3.0,30.0,10.0,0.0
9557,63.0,37.0,30.0,11.0,0.0
9558,78.0,3.0,30.0,10.0,0.0
9559,51.0,22.0,30.0,11.0,0.0
9560,66.0,3.0,30.0,10.0,0.0
9561,63.0,3.0,30.0,11.0,0.0
9562,77.0,3.0,30.0,10.0,0.0
9563,82.0,2.0,240.0,0.0,0.0
9564,58.0,4.0,30.0,11.0,0.0
9565,58.0,1.0,240.0,7.0,0.0
9566,70.0,0.0,240.0,2.0,0.0
9567,50.0,33.0,30.0,12.0,0.0
9568,34.0,3.0,960.0,13.0,0.0
9569,46.0,27.0,240.0,8.0,0.0
9570,34.0,1.0,960.0,14.0,0.0
9571,65.0,3.0,30.0,10.0,0.0
9572,62.0,4.0,30.0,11.0,0.0
9573,46.0,33.0,30.0,12.0,0.0
9574,77.0,3.0,30.0,10.0,0.0
9575,58.0,4.0,30.0,11.0,0.0
9576,50.0,33.0,30.0,12.0,0.0
9577,65.0,3.0,30.0,10.0,0.0
9578,62.0,4.0,30.0,11.0,0.0
9579,46.0,33.0,30.0,12.0,0.0
9580,77.0,3.0,30.0,10.0,0.0
9581,58.0,4.0,30.0,11.0,0.0
9582,50.0,33.0,30.0,12.0,0.0
9583,65.0,1.0,30.0,10.0,0.0
9584,62.0,3.0,30.0,11.0,0.0
9585,46.0,6.0,30.0,12.0,0.0
9586,77.0,3.0,30.0,10.0,0.0
9587,77.0,2.0,240.0,0.0,0.0
9588,58.0,4.0,30.0,11.0,0.0
9589,53.0,1.0,240.0,7.0,0.0
9590,65.0,6.0,240.0,2.0,0.0
9591,50.0,33.0,30.0,12.0,0.0
9592,41.0,27.0,240.0,8.0,0.0
9593,65.0,3.0,30.0,10.0,0.0
9594,62.0,4.0,30.0,11.0,0.0
9595,46.0,33.0,30.0,12.0,0.0
9596,77.0,3.0,30.0,10.0,0.0
9597,58.0,4.0,30.0,11.0,0.0
9598,50.0,33.0,30.0,12.0,0.0
9599,65.0,3.0,30.0,10.0,0.0
9600,62.0,4.0,30.0,11.0,0.0
9601,46.0,33.0,30.0,12.0,0.0
9602,77.0,3.0,30.0,10.0,0.0
9603,58.0,4.0,30.0,11.0,0.0
9604,50.0,33.0,30.0,12.0,0.0
9605,65.0,1.0,30.0,10.0,0.0
9606,62.0,3.0,30.0,11.0,0.0
9607,46.0,0.0,30.0,12.0,0.0
9608,76.0,3.0,30.0,10.0,0.0
9609,78.0,2.0,240.0,0.0,0.0
9610,58.0,4.0,30.0,11.0,0.0
9611,54.0,1.0,240.0,7.0,0.0
9612,49.0,33.0,30.0,12.0,0.0
9613,66.0,6.0,240.0,2.0,0.0
9614,42.0,27.0,240.0,8.0,0.0
9615,64.0,3.0,30.0,10.0,0.0
9616,61.0,4.0,30.0,11.0,0.0
9617,46.0,33.0,30.0,12.0,0.0
9618,76.0,3.0,30.0,10.0,0.0
9619,58.0,4.0,30.0,11.0,0.0
9620,49.0,33.0,30.0,12.0,0.0
9621,64.0,3.0,30.0,10.0,0.0
9622,61.0,4.0,30.0,11.0,0.0
9623,46.0,33.0,30.0,12.0,0.0
9624,76.0,3.0,30.0,10.0,0.0
9625,58.0,4.0,30.0,11.0,0.0
9626,49.0,33.0,30.0,12.0,0.0
9627,64.0,1.0,30.0,10.0,0.0
9628,61.0,3.0,30.0,11.0,0.0
9629,46.0,0.0,30.0,12.0,0.0
9630,76.0,3.0,30.0,10.0,0.0
9631,73.0,5.0,240.0,0.0,0.0
9632,58.0,4.0,30.0,11.0,0.0
9633,49.0,1.0,240.0,7.0,0.0
9634,49.0,33.0,30.0,12.0,0.0
9635,61.0,6.0,240.0,2.0,0.0
9636,37.0,18.0,240.0,8.0,0.0
9637,64.0,3.0,30.0,10.0,0.0
9638,61.0,4.0,30.0,11.0,0.0
9639,46.0,33.0,30.0,12.0,0.0
9640,76.0,3.0,30.0,10.0,0.0
9641,58.0,4.0,30.0,11.0,0.0
9642,49.0,33.0,30.0,12.0,0.0
9643,64.0,3.0,30.0,10.0,0.0
9644,61.0,4.0,30.0,11.0,0.0
9645,46.0,33.0,30.0,12.0,0.0
9646,76.0,3.0,30.0,10.0,0.0
9647,58.0,4.0,30.0,11.0,0.0
9648,49.0,18.0,30.0,12.0,0.0
9649,64.0,3.0,30.0,10.0,0.0
9650,61.0,4.0,30.0,11.0,0.0
9651,46.0,5.0,30.0,12.0,0.0
9652,65.0,1.0,240.0,10.0,0.0
9653,77.0,2.0,240.0,0.0,0.0
9654,53.0,4.0,240.0,11.0,0.0
9655,65.0,0.0,480.0,6.0,0.0
9656,53.0,2.0,480.0,6.0,0.0
9657,53.0,1.0,480.0,4.0,0.0
9658,41.0,0.0,480.0,4.0,0.0
9659,53.0,4.0,240.0,12.0,0.0
9660,41.0,21.0,240.0,13.0,0.0
9661,29.0,4.0,1650.0,14.0,0.0
9662,41.0,20.0,15.0,15.0,0.0
9663,41.0,20.0,15.0,15.0,0.0
9664,41.0,22.0,20.0,15.0,0.0
9665,41.0,19.0,15.0,15.0,0.0
9666,41.0,19.0,15.0,15.0,0.0
9667,41.0,20.0,15.0,15.0,0.0
9668,41.0,18.0,15.0,15.0,0.0
9669,41.0,8.0,15.0,15.0,0.0
9670,60.0,1.0,120.0,10.0,0.0
9671,72.0,2.0,120.0,0.0,0.0
9672,60.0,4.0,120.0,11.0,0.0
9673,48.0,5.0,120.0,12.0,0.0
9674,36.0,0.0,120.0,13.0,0.0
9675,41.0,19.0,15.0,15.0,0.0
9676,41.0,20.0,15.0,15.0,0.0
9677,41.0,19.0,15.0,15.0,0.0
9678,63.0,1.0,120.0,10.0,0.0
9679,75.0,2.0,120.0,0.0,0.0
9680,63.0,4.0,120.0,11.0,0.0
9681,51.0,5.0,120.0,12.0,0.0
9682,41.0,20.0,15.0,15.0,0.0
9683,39.0,0.0,120.0,13.0,0.0
9684,41.0,21.0,20.0,15.0,0.0
9685,41.0,18.0,15.0,15.0,0.0
9686,41.0,9.0,20.0,15.0,0.0
9687,61.0,1.0,120.0,10.0,0.0
9688,73.0,2.0,120.0,0.0,0.0
9689,61.0,4.0,120.0,11.0,0.0
9690,65.0,0.0,480.0,6.0,0.0
9691,53.0,2.0,480.0,6.0,0.0
9692,41.0,0.0,480.0,4.0,0.0
9693,53.0,3.0,480.0,4.0,0.0
9694,49.0,5.0,120.0,12.0,0.0
9695,41.0,19.0,15.0,15.0,0.0
9696,37.0,0.0,120.0,13.0,0.0
9697,41.0,20.0,15.0,15.0,0.0
9698,41.0,20.0,20.0,15.0,0.0
9699,41.0,18.0,15.0,15.0,0.0
9700,60.0,1.0,120.0,10.0,0.0
9701,72.0,2.0,120.0,0.0,0.0
9702,60.0,4.0,120.0,11.0,0.0
9703,48.0,5.0,120.0,12.0,0.0
9704,36.0,19.0,120.0,13.0,0.0
9705,41.0,20.0,15.0,15.0,0.0
9706,41.0,20.0,15.0,15.0,0.0
9707,41.0,21.0,20.0,15.0,0.0
9708,41.0,19.0,15.0,15.0,0.0
9709,41.0,8.0,15.0,15.0,0.0
9710,63.0,1.0,120.0,10.0,0.0
9711,75.0,2.0,120.0,0.0,0.0
9712,63.0,4.0,120.0,11.0,0.0
9713,51.0,5.0,120.0,12.0,0.0
9714,41.0,0.0,15.0,15.0,0.0
9715,39.0,0.0,120.0,13.0,0.0
9716,41.0,19.0,15.0,15.0,0.0
9717,41.0,20.0,20.0,15.0,0.0
9718,41.0,8.0,20.0,15.0,0.0
9719,41.0,21.0,20.0,15.0,0.0
9720,61.0,1.0,120.0,10.0,0.0
9721,73.0,2.0,120.0,0.0,0.0
9722,61.0,4.0,120.0,11.0,0.0
9723,49.0,5.0,120.0,12.0,0.0
9724,37.0,1.0,120.0,13.0,0.0
9725,41.0,19.0,15.0,15.0,0.0
9726,41.0,19.0,15.0,15.0,0.0
9727,41.0,7.0,20.0,15.0,0.0
9728,60.0,1.0,120.0,10.0,0.0
9729,72.0,2.0,120.0,0.0,0.0
9730,60.0,4.0,120.0,11.0,0.0
9731,53.0,0.0,480.0,6.0,0.0
9732,65.0,2.0,480.0,6.0,0.0
9733,41.0,0.0,480.0,4.0,0.0
9734,53.0,1.0,480.0,4.0,0.0
9735,48.0,4.0,120.0,12.0,0.0
9736,36.0,19.0,120.0,13.0,0.0
9737,41.0,20.0,15.0,15.0,0.0
9738,41.0,18.0,15.0,15.0,0.0
9739,41.0,20.0,20.0,15.0,0.0
9740,41.0,22.0,20.0,15.0,0.0
9741,41.0,7.0,15.0,15.0,0.0
9742,66.0,1.0,120.0,10.0,0.0
9743,78.0,2.0,120.0,0.0,0.0
9744,66.0,4.0,120.0,11.0,0.0
9745,54.0,4.0,120.0,12.0,0.0
9746,41.0,1.0,15.0,15.0,0.0
9747,42.0,21.0,120.0,13.0,0.0
9748,41.0,20.0,20.0,15.0,0.0
9749,41.0,20.0,15.0,15.0,0.0
9750,41.0,20.0,15.0,15.0,0.0
9751,41.0,8.0,15.0,15.0,0.0
9752,65.0,1.0,120.0,10.0,0.0
9753,77.0,2.0,120.0,0.0,0.0
9754,65.0,4.0,120.0,11.0,0.0
9755,53.0,5.0,120.0,12.0,0.0
9756,41.0,1.0,120.0,13.0,0.0
9757,41.0,20.0,20.0,15.0,0.0
9758,41.0,20.0,15.0,15.0,0.0
9759,41.0,18.0,15.0,15.0,0.0
9760,41.0,9.0,20.0,15.0,0.0
9761,63.0,1.0,120.0,10.0,0.0
9762,75.0,2.0,120.0,0.0,0.0
9763,63.0,4.0,120.0,11.0,0.0
9764,51.0,5.0,120.0,12.0,0.0
9765,41.0,19.0,15.0,15.0,0.0
9766,39.0,1.0,120.0,13.0,0.0
9767,41.0,19.0,15.0,15.0,0.0
9768,41.0,19.0,15.0,15.0,0.0
9769,41.0,17.0,15.0,15.0,0.0
9770,61.0,1.0,120.0,10.0,0.0
9771,73.0,2.0,120.0,0.0,0.0
9772,65.0,0.0,240.0,6.0,0.0
9773,61.0,4.0,120.0,11.0,0.0
9774,53.0,2.0,240.0,6.0,0.0
9775,53.0,0.0,240.0,4.0,0.0
9776,41.0,2.0,240.0,4.0,0.0
9777,49.0,5.0,120.0,12.0,0.0
9778,41.0,19.0,15.0,15.0,0.0
9779,37.0,0.0,120.0,13.0,0.0
9780,41.0,20.0,20.0,15.0,0.0
9781,41.0,20.0,15.0,15.0,0.0
9782,41.0,7.0,15.0,15.0,0.0
9783,60.0,3.0,90.0,10.0,0.0
9784,72.0,5.0,120.0,0.0,0.0
9785,60.0,4.0,90.0,11.0,0.0
9786,48.0,5.0,90.0,12.0,0.0
9787,41.0,19.0,15.0,15.0,0.0
9788,36.0,1.0,90.0,13.0,0.0
9789,41.0,22.0,20.0,15.0,0.0
9790,41.0,20.0,20.0,15.0,0.0
9791,41.0,2.0,15.0,15.0,0.0
9792,41.0,2.0,15.0,15.0,0.0
9793,41.0,234.0,15.0,15.0,0.0
9794,70.0,1.0,240.0,10.0,0.0
9795,70.0,2.0,240.0,0.0,0.0
9796,65.0,2.0,240.0,6.0,0.0
9797,58.0,0.0,240.0,11.0,0.0
9798,58.0,0.0,240.0,6.0,0.0
9799,53.0,2.0,240.0,4.0,0.0
9800,46.0,0.0,240.0,4.0,0.0
9801,58.0,5.0,240.0,12.0,0.0
9802,46.0,3.0,240.0,13.0,0.0
9803,46.0,0.0,240.0,15.0,0.0
9804,34.0,105.0,240.0,14.0,0.0
9805,69.0,3.0,60.0,10.0,0.0
9806,57.0,4.0,60.0,11.0,0.0
9807,57.0,5.0,60.0,12.0,0.0
9808,45.0,3.0,60.0,13.0,0.0
9809,33.0,45.0,60.0,14.0,0.0
9810,70.0,3.0,60.0,10.0,0.0
9811,58.0,4.0,60.0,11.0,0.0
9812,58.0,5.0,60.0,12.0,0.0
9813,46.0,3.0,60.0,13.0,0.0
9814,34.0,45.0,60.0,14.0,0.0
9815,74.0,3.0,60.0,10.0,0.0
9816,62.0,4.0,60.0,11.0,0.0
9817,62.0,5.0,60.0,12.0,0.0
9818,50.0,3.0,60.0,13.0,0.0
9819,38.0,105.0,60.0,14.0,0.0
9820,70.0,3.0,120.0,10.0,0.0
9821,58.0,4.0,120.0,11.0,0.0
9822,58.0,5.0,120.0,12.0,0.0
9823,46.0,3.0,120.0,13.0,0.0
9824,34.0,105.0,120.0,14.0,0.0
9825,67.0,3.0,120.0,10.0,0.0
9826,55.0,4.0,120.0,11.0,0.0
9827,55.0,5.0,120.0,12.0,0.0
9828,43.0,3.0,120.0,13.0,0.0
9829,31.0,105.0,120.0,14.0,0.0
9830,65.0,3.0,120.0,10.0,0.0
9831,53.0,4.0,120.0,11.0,0.0
9832,53.0,5.0,120.0,12.0,0.0
9833,41.0,3.0,120.0,13.0,0.0
9834,29.0,102.0,120.0,14.0,0.0
9835,69.0,3.0,120.0,10.0,0.0
9836,57.0,4.0,120.0,11.0,0.0
9837,57.0,113.0,120.0,12.0,0.0
9838,45.0,3.0,120.0,13.0,0.0
9839,33.0,0.0,120.0,14.0,0.0
9840,70.0,3.0,120.0,10.0,0.0
9841,58.0,4.0,120.0,11.0,0.0
9842,58.0,5.0,120.0,12.0,0.0
9843,46.0,3.0,120.0,13.0,0.0
9844,34.0,105.0,120.0,14.0,0.0
9845,74.0,3.0,120.0,10.0,0.0
9846,70.0,4.0,120.0,11.0,0.0
9847,58.0,5.0,120.0,12.0,0.0
9848,62.0,0.0,120.0,12.0,0.0
9849,43.0,3.0,120.0,13.0,0.0
9850,31.0,105.0,120.0,14.0,0.0
9851,77.0,3.0,120.0,10.0,0.0
9852,69.0,4.0,120.0,11.0,0.0
9853,65.0,5.0,120.0,12.0,0.0
9854,57.0,0.0,120.0,12.0,0.0
9855,41.0,3.0,120.0,13.0,0.0
9856,29.0,102.0,120.0,14.0,0.0
9857,75.0,0.0,120.0,10.0,0.0
9858,72.0,4.0,120.0,11.0,0.0
9859,63.0,113.0,120.0,12.0,0.0
9860,60.0,0.0,120.0,12.0,0.0
9861,45.0,3.0,120.0,13.0,0.0
9862,33.0,3.0,120.0,14.0,0.0
9863,74.0,3.0,120.0,10.0,0.0
9864,70.0,4.0,120.0,11.0,0.0
9865,62.0,0.0,120.0,12.0,0.0
9866,58.0,5.0,120.0,12.0,0.0
9867,46.0,3.0,120.0,13.0,0.0
9868,34.0,105.0,120.0,14.0,0.0
9869,82.0,3.0,120.0,10.0,0.0
9870,76.0,4.0,120.0,11.0,0.0
9871,70.0,0.0,120.0,12.0,0.0
9872,64.0,5.0,120.0,12.0,0.0
9873,43.0,3.0,120.0,13.0,0.0
9874,31.0,105.0,120.0,14.0,0.0
9875,81.0,3.0,120.0,10.0,0.0
9876,77.0,4.0,120.0,11.0,0.0
9877,69.0,5.0,120.0,12.0,0.0
9878,41.0,3.0,120.0,13.0,0.0
9879,29.0,90.0,120.0,14.0,0.0
9880,77.0,3.0,120.0,10.0,0.0
9881,72.0,4.0,120.0,11.0,0.0
9882,65.0,0.0,15.0,12.0,0.0
9883,60.0,5.0,120.0,12.0,0.0
9884,45.0,3.0,120.0,13.0,0.0
9885,33.0,72.0,120.0,14.0,0.0
9886,79.0,3.0,120.0,10.0,0.0
9887,67.0,4.0,120.0,11.0,0.0
9888,62.0,0.0,120.0,12.0,0.0
9889,67.0,65.0,120.0,12.0,0.0
9890,46.0,3.0,60.0,13.0,0.0
9891,34.0,45.0,60.0,14.0,0.0
9892,74.0,3.0,120.0,10.0,0.0
9893,70.0,4.0,120.0,11.0,0.0
9894,58.0,65.0,120.0,12.0,0.0
9895,62.0,0.0,120.0,12.0,0.0
9896,43.0,3.0,60.0,13.0,0.0
9897,31.0,45.0,60.0,14.0,0.0
9898,77.0,3.0,120.0,10.0,0.0
9899,65.0,4.0,120.0,11.0,0.0
9900,65.0,0.0,120.0,12.0,0.0
9901,45.0,3.0,60.0,13.0,0.0
9902,33.0,45.0,60.0,14.0,0.0
9903,72.0,3.0,120.0,10.0,0.0
9904,69.0,4.0,120.0,11.0,0.0
9905,57.0,0.0,120.0,12.0,0.0
9906,60.0,65.0,15.0,12.0,0.0
9907,41.0,3.0,60.0,13.0,0.0
9908,29.0,30.0,60.0,14.0,0.0
9909,79.0,3.0,120.0,10.0,0.0
9910,67.0,4.0,120.0,11.0,0.0
9911,67.0,65.0,120.0,12.0,0.0
9912,62.0,0.0,120.0,12.0,0.0
9913,46.0,3.0,60.0,13.0,0.0
9914,34.0,45.0,60.0,14.0,0.0
9915,74.0,3.0,120.0,10.0,0.0
9916,70.0,4.0,120.0,11.0,0.0
9917,58.0,0.0,120.0,12.0,0.0
9918,62.0,65.0,120.0,12.0,0.0
9919,43.0,3.0,60.0,13.0,0.0
9920,31.0,45.0,60.0,14.0,0.0
9921,77.0,3.0,120.0,10.0,0.0
9922,65.0,4.0,120.0,11.0,0.0
9923,65.0,0.0,120.0,12.0,0.0
9924,60.0,65.0,120.0,12.0,0.0
9925,45.0,3.0,60.0,13.0,0.0
9926,33.0,45.0,60.0,14.0,0.0
9927,72.0,3.0,120.0,10.0,0.0
9928,69.0,4.0,120.0,11.0,0.0
9929,60.0,80.0,120.0,12.0,0.0
9930,57.0,0.0,120.0,12.0,0.0
9931,41.0,3.0,60.0,13.0,0.0
9932,29.0,30.0,60.0,14.0,0.0
9933,73.0,7.0,180.0,10.0,0.0
9934,69.0,4.0,120.0,11.0,0.0
9935,57.0,53.0,120.0,12.0,0.0
9936,61.0,5.0,180.0,12.0,0.0
9937,46.0,3.0,60.0,13.0,0.0
9938,34.0,48.0,60.0,14.0,0.0
9939,70.0,4.0,240.0,11.0,0.0
9940,43.0,3.0,60.0,13.0,0.0
9941,31.0,45.0,60.0,14.0,0.0
9942,74.0,7.0,60.0,10.0,0.0
9943,62.0,53.0,60.0,12.0,0.0
9944,72.0,7.0,60.0,10.0,0.0
9945,60.0,5.0,60.0,12.0,0.0
9946,50.0,3.0,60.0,13.0,0.0
9947,38.0,33.0,60.0,14.0,0.0
9948,70.0,7.0,60.0,10.0,0.0
9949,58.0,8.0,60.0,12.0,0.0
9950,69.0,7.0,60.0,10.0,0.0
9951,62.0,4.0,120.0,11.0,0.0
9952,57.0,5.0,60.0,12.0,0.0
9953,50.0,0.0,120.0,12.0,0.0
9954,46.0,3.0,60.0,13.0,0.0
9955,34.0,45.0,60.0,14.0,0.0
9956,67.0,3.0,60.0,10.0,0.0
9957,55.0,53.0,60.0,12.0,0.0
9958,70.0,7.0,60.0,10.0,0.0
9959,65.0,4.0,120.0,11.0,0.0
9960,53.0,8.0,120.0,12.0,0.0
9961,58.0,5.0,60.0,12.0,0.0
9962,48.0,3.0,60.0,13.0,0.0
9963,36.0,33.0,60.0,14.0,0.0
9964,69.0,7.0,60.0,10.0,0.0
9965,57.0,53.0,60.0,12.0,0.0
9966,67.0,7.0,60.0,10.0,0.0
9967,65.0,4.0,240.0,11.0,0.0
9968,55.0,5.0,60.0,12.0,0.0
9969,45.0,3.0,60.0,13.0,0.0
9970,33.0,45.0,60.0,14.0,0.0
9971,65.0,72.0,60.0,10.0,0.0
9972,53.0,0.0,180.0,12.0,0.0
9973,67.0,3.0,240.0,10.0,0.0
9974,55.0,53.0,240.0,12.0,0.0
9975,48.0,3.0,60.0,13.0,0.0
9976,36.0,48.0,60.0,14.0,0.0
9977,64.0,4.0,120.0,11.0,0.0
9978,52.0,15.0,120.0,12.0,0.0
9979,36.0,3.0,60.0,13.0,0.0
9980,24.0,30.0,60.0,14.0,0.0
9981,65.0,3.0,60.0,10.0,0.0
9982,53.0,4.0,60.0,11.0,0.0
9983,53.0,5.0,60.0,12.0,0.0
9984,41.0,3.0,60.0,13.0,0.0
9985,29.0,172.0,60.0,14.0,0.0
9986,77.0,3.0,840.0,10.0,0.0
9987,65.0,19.0,840.0,11.0,0.0
9988,57.0,5.0,120.0,12.0,0.0
9989,45.0,3.0,120.0,13.0,0.0
9990,33.0,112.0,120.0,14.0,0.0
9991,62.0,5.0,120.0,12.0,0.0
9992,50.0,3.0,120.0,13.0,0.0
9993,38.0,112.0,120.0,14.0,0.0
9994,60.0,5.0,120.0,12.0,0.0
9995,48.0,3.0,120.0,13.0,0.0
9996,36.0,112.0,120.0,14.0,0.0
9997,65.0,5.0,120.0,12.0,0.0
9998,53.0,3.0,120.0,13.0,0.0
9999,41.0,112.0,120.0,14.0,0.0
10000,62.0,5.0,120.0,12.0,0.0
10001,50.0,3.0,120.0,13.0,0.0
10002,38.0,52.0,120.0,14.0,0.0
10003,67.0,5.0,60.0,12.0,0.0
10004,55.0,3.0,60.0,13.0,0.0
10005,43.0,52.0,60.0,14.0,0.0
10006,64.0,5.0,60.0,12.0,0.0
10007,52.0,3.0,60.0,13.0,0.0
10008,40.0,52.0,60.0,14.0,0.0
10009,65.0,5.0,60.0,12.0,0.0
10010,53.0,3.0,60.0,13.0,0.0
10011,41.0,30.0,60.0,14.0,0.0
10012,67.0,5.0,60.0,12.0,0.0
10013,55.0,3.0,60.0,13.0,0.0
10014,43.0,46.0,60.0,14.0,0.0
10015,65.0,2.0,60.0,0.0,0.0
10016,65.0,4.0,60.0,11.0,0.0
10017,65.0,5.0,60.0,12.0,0.0
10018,53.0,3.0,60.0,13.0,0.0
10019,41.0,37.0,60.0,14.0,0.0
10020,69.0,5.0,60.0,12.0,0.0
10021,57.0,3.0,60.0,13.0,0.0
10022,45.0,127.0,60.0,14.0,0.0
10023,77.0,6.0,240.0,0.0,0.0
10024,77.0,13.0,240.0,11.0,0.0
10025,57.0,5.0,120.0,12.0,0.0
10026,45.0,3.0,120.0,13.0,0.0
10027,33.0,45.0,120.0,14.0,0.0
10028,69.0,1.0,60.0,10.0,0.0
10029,69.0,3.0,60.0,0.0,0.0
10030,65.0,44.0,60.0,1.0,0.0
10031,62.0,5.0,120.0,12.0,0.0
10032,50.0,3.0,120.0,13.0,0.0
10033,38.0,112.0,120.0,14.0,0.0
10034,81.0,16.0,240.0,10.0,0.0
10035,81.0,3.0,240.0,0.0,0.0
10036,77.0,3.0,240.0,1.0,0.0
10037,60.0,5.0,120.0,12.0,0.0
10038,48.0,3.0,120.0,13.0,0.0
10039,36.0,48.0,120.0,14.0,0.0
10040,72.0,4.0,60.0,11.0,0.0
10041,65.0,5.0,120.0,12.0,0.0
10042,69.0,38.0,60.0,2.0,0.0
10043,53.0,3.0,120.0,13.0,0.0
10044,41.0,112.0,120.0,14.0,0.0
10045,84.0,6.0,240.0,0.0,0.0
10046,84.0,13.0,240.0,11.0,0.0
10047,62.0,5.0,120.0,12.0,0.0
10048,81.0,5.0,240.0,2.0,0.0
10049,50.0,3.0,120.0,13.0,0.0
10050,38.0,45.0,120.0,14.0,0.0
10051,70.0,4.0,60.0,10.0,0.0
10052,64.0,3.0,60.0,1.0,0.0
10053,67.0,5.0,60.0,12.0,0.0
10054,55.0,3.0,60.0,13.0,0.0
10055,43.0,33.0,60.0,14.0,0.0
10056,64.0,0.0,60.0,12.0,0.0
10057,52.0,3.0,60.0,13.0,0.0
10058,40.0,46.0,60.0,14.0,0.0
10059,82.0,3.0,180.0,10.0,0.0
10060,82.0,4.0,150.0,0.0,0.0
10061,76.0,2.0,60.0,0.0,0.0
10062,64.0,4.0,60.0,11.0,0.0
10063,76.0,3.0,120.0,1.0,0.0
10064,79.0,5.0,60.0,2.0,0.0
10065,65.0,0.0,60.0,12.0,0.0
10066,53.0,3.0,60.0,13.0,0.0
10067,41.0,42.0,60.0,14.0,0.0
10068,67.0,27.0,60.0,12.0,0.0
10069,55.0,3.0,60.0,13.0,0.0
10070,43.0,4.0,60.0,14.0,0.0
10071,77.0,0.0,30.0,0.0,0.0
10072,65.0,4.0,60.0,11.0,0.0
10073,77.0,3.0,30.0,1.0,0.0
10074,69.0,20.0,60.0,12.0,0.0
10075,72.0,4.0,30.0,2.0,0.0
10076,57.0,3.0,60.0,13.0,0.0
10077,45.0,45.0,60.0,14.0,0.0
10078,69.0,1.0,60.0,10.0,0.0
10079,69.0,2.0,60.0,0.0,0.0
10080,53.0,4.0,60.0,11.0,0.0
10081,57.0,0.0,60.0,2.0,0.0
10082,65.0,5.0,60.0,12.0,0.0
10083,53.0,3.0,60.0,13.0,0.0
10084,41.0,45.0,60.0,14.0,0.0
10085,70.0,1.0,60.0,10.0,0.0
10086,70.0,2.0,60.0,0.0,0.0
10087,65.0,4.0,60.0,11.0,0.0
10088,58.0,0.0,60.0,2.0,0.0
10089,53.0,5.0,60.0,12.0,0.0
10090,55.0,3.0,60.0,13.0,0.0
10091,43.0,45.0,60.0,14.0,0.0
10092,72.0,1.0,60.0,10.0,0.0
10093,72.0,2.0,60.0,0.0,0.0
10094,53.0,4.0,60.0,11.0,0.0
10095,65.0,0.0,60.0,12.0,0.0
10096,60.0,5.0,60.0,2.0,0.0
10097,57.0,3.0,60.0,13.0,0.0
10098,45.0,33.0,60.0,14.0,0.0
10099,74.0,1.0,120.0,10.0,0.0
10100,74.0,2.0,120.0,0.0,0.0
10101,65.0,4.0,60.0,11.0,0.0
10102,53.0,60.0,60.0,12.0,0.0
10103,62.0,5.0,120.0,2.0,0.0
10104,58.0,3.0,120.0,13.0,0.0
10105,46.0,37.0,120.0,14.0,0.0
10106,64.0,4.0,60.0,11.0,0.0
10107,55.0,8.0,60.0,12.0,0.0
10108,72.0,1.0,120.0,10.0,0.0
10109,72.0,2.0,120.0,0.0,0.0
10110,65.0,54.0,60.0,11.0,0.0
10111,60.0,11.0,60.0,12.0,0.0
10112,60.0,41.0,120.0,2.0,0.0
10113,57.0,3.0,120.0,13.0,0.0
10114,45.0,0.0,120.0,14.0,0.0
10115,69.0,4.0,60.0,11.0,0.0
10116,53.0,68.0,120.0,12.0,0.0
10117,77.0,1.0,120.0,10.0,0.0
10118,77.0,2.0,120.0,0.0,0.0
10119,72.0,4.0,60.0,11.0,0.0
10120,65.0,0.0,120.0,2.0,0.0
10121,56.0,3.0,120.0,13.0,0.0
10122,44.0,33.0,120.0,14.0,0.0
10123,72.0,4.0,60.0,11.0,0.0
10124,53.0,5.0,60.0,12.0,0.0
10125,74.0,1.0,120.0,10.0,0.0
10126,74.0,2.0,120.0,0.0,0.0
10127,71.0,19.0,60.0,11.0,0.0
10128,62.0,5.0,120.0,2.0,0.0
10129,65.0,5.0,60.0,12.0,0.0
10130,55.0,3.0,60.0,13.0,0.0
10131,43.0,45.0,60.0,14.0,0.0
10132,71.0,4.0,60.0,11.0,0.0
10133,62.0,8.0,120.0,12.0,0.0
10134,53.0,3.0,60.0,13.0,0.0
10135,41.0,33.0,60.0,14.0,0.0
10136,79.0,1.0,60.0,10.0,0.0
10137,79.0,6.0,60.0,0.0,0.0
10138,70.0,4.0,60.0,11.0,0.0
10139,67.0,5.0,60.0,2.0,0.0
10140,52.0,3.0,60.0,13.0,0.0
10141,40.0,45.0,60.0,14.0,0.0
10142,76.0,1.0,60.0,10.0,0.0
10143,76.0,2.0,60.0,0.0,0.0
10144,70.0,4.0,60.0,11.0,0.0
10145,58.0,5.0,60.0,12.0,0.0
10146,64.0,0.0,60.0,2.0,0.0
10147,50.0,3.0,60.0,13.0,0.0
10148,38.0,33.0,60.0,14.0,0.0
10149,77.0,1.0,60.0,10.0,0.0
10150,77.0,6.0,60.0,0.0,0.0
10151,61.0,12.0,60.0,11.0,0.0
10152,65.0,5.0,60.0,2.0,0.0
10153,67.0,0.0,60.0,12.0,0.0
10154,48.0,3.0,60.0,13.0,0.0
10155,36.0,42.0,60.0,14.0,0.0
10156,79.0,1.0,60.0,10.0,0.0
10157,79.0,2.0,60.0,0.0,0.0
10158,61.0,4.0,60.0,11.0,0.0
10159,64.0,41.0,60.0,12.0,0.0
10160,67.0,0.0,60.0,2.0,0.0
10161,46.0,3.0,60.0,13.0,0.0
10162,34.0,0.0,60.0,14.0,0.0
10163,77.0,1.0,60.0,10.0,0.0
10164,77.0,6.0,60.0,0.0,0.0
10165,60.0,4.0,60.0,11.0,0.0
10166,65.0,8.0,60.0,12.0,0.0
10167,65.0,5.0,60.0,2.0,0.0
10168,45.0,3.0,60.0,13.0,0.0
10169,33.0,30.0,60.0,14.0,0.0
10170,81.0,1.0,60.0,10.0,0.0
10171,81.0,6.0,60.0,0.0,0.0
10172,53.0,12.0,120.0,11.0,0.0
10173,69.0,15.0,60.0,2.0,0.0
10174,65.0,5.0,60.0,12.0,0.0
10175,48.0,3.0,60.0,13.0,0.0
10176,36.0,33.0,60.0,14.0,0.0
10177,69.0,1.0,60.0,10.0,0.0
10178,69.0,6.0,60.0,0.0,0.0
10179,57.0,5.0,60.0,2.0,0.0
10180,64.0,0.0,60.0,12.0,0.0
10181,53.0,3.0,60.0,13.0,0.0
10182,41.0,45.0,60.0,14.0,0.0
10183,72.0,1.0,60.0,10.0,0.0
10184,72.0,6.0,60.0,0.0,0.0
10185,53.0,4.0,120.0,11.0,0.0
10186,63.0,0.0,60.0,12.0,0.0
10187,60.0,5.0,60.0,2.0,0.0
10188,57.0,3.0,60.0,13.0,0.0
10189,45.0,33.0,60.0,14.0,0.0
10190,74.0,1.0,60.0,10.0,0.0
10191,74.0,6.0,60.0,0.0,0.0
10192,62.0,5.0,60.0,2.0,0.0
10193,62.0,8.0,60.0,12.0,0.0
10194,58.0,3.0,60.0,13.0,0.0
10195,46.0,45.0,60.0,14.0,0.0
10196,72.0,1.0,60.0,10.0,0.0
10197,72.0,2.0,60.0,0.0,0.0
10198,66.0,4.0,60.0,11.0,0.0
10199,63.0,5.0,60.0,12.0,0.0
10200,60.0,0.0,60.0,2.0,0.0
10201,57.0,3.0,60.0,13.0,0.0
10202,45.0,45.0,60.0,14.0,0.0
10203,74.0,1.0,60.0,10.0,0.0
10204,74.0,2.0,60.0,0.0,0.0
10205,65.0,4.0,60.0,11.0,0.0
10206,62.0,0.0,60.0,2.0,0.0
10207,62.0,5.0,60.0,12.0,0.0
10208,58.0,3.0,60.0,13.0,0.0
10209,46.0,42.0,60.0,14.0,0.0
10210,76.0,0.0,60.0,10.0,0.0
10211,76.0,2.0,60.0,0.0,0.0
10212,70.0,4.0,60.0,11.0,0.0
10213,64.0,0.0,60.0,2.0,0.0
10214,61.0,41.0,60.0,12.0,0.0
10215,55.0,3.0,60.0,13.0,0.0
10216,43.0,1.0,60.0,14.0,0.0
10217,77.0,1.0,60.0,10.0,0.0
10218,77.0,6.0,60.0,0.0,0.0
10219,72.0,4.0,60.0,11.0,0.0
10220,65.0,5.0,60.0,2.0,0.0
10221,60.0,8.0,60.0,12.0,0.0
10222,57.0,3.0,60.0,13.0,0.0
10223,45.0,45.0,60.0,14.0,0.0
10224,74.0,1.0,60.0,10.0,0.0
10225,74.0,2.0,60.0,0.0,0.0
10226,72.0,4.0,60.0,11.0,0.0
10227,62.0,5.0,60.0,2.0,0.0
10228,65.0,8.0,120.0,12.0,0.0
10229,56.0,3.0,60.0,13.0,0.0
10230,44.0,33.0,60.0,14.0,0.0
10231,76.0,1.0,60.0,10.0,0.0
10232,76.0,6.0,60.0,0.0,0.0
10233,71.0,4.0,60.0,11.0,0.0
10234,64.0,5.0,60.0,2.0,0.0
10235,55.0,3.0,60.0,13.0,0.0
10236,43.0,45.0,60.0,14.0,0.0
10237,77.0,1.0,60.0,10.0,0.0
10238,77.0,2.0,60.0,0.0,0.0
10239,71.0,4.0,60.0,11.0,0.0
10240,62.0,8.0,120.0,12.0,0.0
10241,65.0,5.0,60.0,2.0,0.0
10242,53.0,3.0,60.0,13.0,0.0
10243,41.0,33.0,60.0,14.0,0.0
10244,79.0,1.0,60.0,10.0,0.0
10245,79.0,6.0,60.0,0.0,0.0
10246,70.0,4.0,60.0,11.0,0.0
10247,67.0,5.0,60.0,2.0,0.0
10248,52.0,3.0,60.0,13.0,0.0
10249,40.0,45.0,60.0,14.0,0.0
10250,76.0,1.0,60.0,10.0,0.0
10251,76.0,2.0,60.0,0.0,0.0
10252,70.0,4.0,60.0,11.0,0.0
10253,64.0,5.0,60.0,2.0,0.0
10254,67.0,8.0,120.0,12.0,0.0
10255,50.0,3.0,60.0,13.0,0.0
10256,38.0,33.0,60.0,14.0,0.0
10257,77.0,1.0,60.0,10.0,0.0
10258,77.0,6.0,60.0,0.0,0.0
10259,74.0,4.0,60.0,11.0,0.0
10260,65.0,5.0,60.0,2.0,0.0
10261,48.0,3.0,60.0,13.0,0.0
10262,36.0,30.0,60.0,14.0,0.0
10263,79.0,1.0,60.0,10.0,0.0
10264,79.0,2.0,60.0,0.0,0.0
10265,74.0,4.0,60.0,11.0,0.0
10266,62.0,5.0,60.0,12.0,0.0
10267,67.0,0.0,60.0,2.0,0.0
10268,46.0,3.0,60.0,13.0,0.0
10269,34.0,105.0,60.0,14.0,0.0
10270,81.0,1.0,120.0,10.0,0.0
10271,81.0,2.0,120.0,0.0,0.0
10272,73.0,4.0,120.0,11.0,0.0
10273,64.0,5.0,120.0,12.0,0.0
10274,69.0,0.0,120.0,2.0,0.0
10275,45.0,3.0,120.0,13.0,0.0
10276,33.0,120.0,120.0,14.0,0.0
10277,82.0,7.0,120.0,10.0,0.0
10278,73.0,11.0,240.0,0.0,0.0
10279,76.0,6.0,360.0,0.0,0.0
10280,64.0,4.0,240.0,11.0,0.0
10281,61.0,8.0,240.0,12.0,0.0
10282,70.0,5.0,120.0,2.0,0.0
10283,64.0,5.0,360.0,2.0,0.0
10284,43.0,3.0,120.0,13.0,0.0
10285,31.0,93.0,120.0,14.0,0.0
10286,79.0,1.0,120.0,10.0,0.0
10287,67.0,0.0,360.0,2.0,0.0
10288,46.0,3.0,120.0,13.0,0.0
10289,34.0,105.0,120.0,14.0,0.0
10290,76.0,1.0,120.0,10.0,0.0
10291,70.0,2.0,240.0,0.0,0.0
10292,67.0,4.0,240.0,11.0,0.0
10293,58.0,0.0,240.0,12.0,0.0
10294,49.0,3.0,120.0,13.0,0.0
10295,37.0,45.0,120.0,14.0,0.0
10296,73.0,46.0,60.0,10.0,0.0
10297,73.0,0.0,120.0,0.0,0.0
10298,61.0,5.0,120.0,2.0,0.0
10299,52.0,3.0,120.0,13.0,0.0
10300,40.0,120.0,120.0,14.0,0.0
10301,77.0,1.0,120.0,10.0,0.0
10302,71.0,6.0,360.0,0.0,0.0
10303,77.0,11.0,120.0,0.0,0.0
10304,68.0,4.0,240.0,11.0,0.0
10305,68.0,5.0,240.0,2.0,0.0
10306,59.0,5.0,360.0,2.0,0.0
10307,59.0,8.0,240.0,12.0,0.0
10308,50.0,3.0,120.0,13.0,0.0
10309,38.0,93.0,120.0,14.0,0.0
10310,74.0,7.0,120.0,10.0,0.0
10311,74.0,6.0,360.0,0.0,0.0
10312,53.0,3.0,120.0,13.0,0.0
10313,41.0,105.0,120.0,14.0,0.0
10314,71.0,1.0,120.0,10.0,0.0
10315,65.0,19.0,210.0,11.0,0.0
10316,65.0,0.0,240.0,2.0,0.0
10317,62.0,9.0,240.0,12.0,0.0
10318,56.0,3.0,120.0,13.0,0.0
10319,44.0,45.0,120.0,14.0,0.0
10320,68.0,12.0,60.0,10.0,0.0
10321,68.0,0.0,120.0,0.0,0.0
10322,62.0,173.0,120.0,2.0,0.0
10323,59.0,3.0,60.0,13.0,0.0
10324,47.0,18.0,60.0,14.0,0.0
10325,67.0,3.0,60.0,10.0,0.0
10326,63.0,4.0,60.0,11.0,0.0
10327,55.0,5.0,60.0,12.0,0.0
10328,60.0,3.0,60.0,13.0,0.0
10329,48.0,225.0,60.0,14.0,0.0
10330,79.0,3.0,60.0,10.0,0.0
10331,63.0,4.0,60.0,11.0,0.0
10332,60.0,5.0,60.0,12.0,0.0
10333,51.0,3.0,60.0,13.0,0.0
10334,39.0,510.0,60.0,14.0,0.0
10335,69.0,3.0,60.0,10.0,0.0
10336,57.0,4.0,60.0,11.0,0.0
10337,65.0,5.0,60.0,12.0,0.0
10338,41.0,33.0,60.0,15.0,0.0
10339,53.0,3.0,60.0,13.0,0.0
10340,41.0,12.0,60.0,14.0,0.0
10341,72.0,3.0,60.0,10.0,0.0
10342,89.0,3.0,120.0,0.0,0.0
10343,81.0,0.0,120.0,0.0,0.0
10344,60.0,4.0,60.0,11.0,0.0
10345,77.0,0.0,240.0,6.0,0.0
10346,65.0,1.0,240.0,6.0,0.0
10347,77.0,0.0,120.0,1.0,0.0
10348,69.0,3.0,120.0,1.0,0.0
10349,65.0,0.0,240.0,4.0,0.0
10350,53.0,2.0,240.0,4.0,0.0
10351,60.0,0.0,120.0,2.0,0.0
10352,69.0,4.0,120.0,2.0,0.0
10353,63.0,5.0,60.0,12.0,0.0
10354,57.0,0.0,120.0,3.0,0.0
10355,48.0,1.0,120.0,3.0,0.0
10356,51.0,3.0,60.0,13.0,0.0
10357,41.0,33.0,60.0,15.0,0.0
10358,39.0,12.0,60.0,14.0,0.0
10359,75.0,3.0,60.0,10.0,0.0
10360,63.0,4.0,60.0,11.0,0.0
10361,60.0,5.0,60.0,12.0,0.0
10362,48.0,3.0,60.0,13.0,0.0
10363,36.0,1.0,60.0,14.0,0.0
10364,77.0,3.0,60.0,10.0,0.0
10365,87.0,2.0,120.0,0.0,0.0
10366,84.0,0.0,120.0,0.0,0.0
10367,65.0,19.0,60.0,11.0,0.0
10368,75.0,1.0,120.0,1.0,0.0
10369,72.0,0.0,120.0,1.0,0.0
10370,60.0,5.0,60.0,12.0,0.0
10371,53.0,0.0,60.0,12.0,0.0
10372,63.0,0.0,120.0,2.0,0.0
10373,72.0,4.0,120.0,2.0,0.0
10374,51.0,16.0,120.0,3.0,0.0
10375,60.0,0.0,120.0,3.0,0.0
10376,41.0,33.0,15.0,15.0,0.0
10377,45.0,3.0,60.0,13.0,0.0
10378,33.0,30.0,60.0,14.0,0.0
10379,81.0,1.0,60.0,10.0,0.0
10380,69.0,0.0,60.0,11.0,0.0
10381,41.0,0.0,15.0,15.0,0.0
10382,84.0,3.0,60.0,10.0,0.0
10383,84.0,0.0,60.0,0.0,0.0
10384,81.0,2.0,60.0,0.0,0.0
10385,65.0,1.0,60.0,6.0,0.0
10386,77.0,0.0,60.0,6.0,0.0
10387,72.0,13.0,60.0,11.0,0.0
10388,72.0,1.0,60.0,1.0,0.0
10389,69.0,0.0,60.0,1.0,0.0
10390,65.0,2.0,60.0,4.0,0.0
10391,53.0,0.0,60.0,4.0,0.0
10392,72.0,0.0,60.0,2.0,0.0
10393,69.0,0.0,60.0,2.0,0.0
10394,60.0,0.0,60.0,12.0,0.0
10395,69.0,0.0,60.0,12.0,0.0
10396,53.0,4.0,60.0,12.0,0.0
10397,57.0,1.0,60.0,3.0,0.0
10398,60.0,0.0,60.0,3.0,0.0
10399,41.0,3.0,60.0,13.0,0.0
10400,29.0,30.0,60.0,14.0,0.0
10401,89.0,3.0,60.0,10.0,0.0
10402,77.0,24.0,60.0,11.0,0.0
10403,41.0,0.0,15.0,15.0,0.0
10404,82.0,3.0,240.0,10.0,0.0
10405,70.0,4.0,240.0,11.0,0.0
10406,70.0,2.0,60.0,6.0,0.0
10407,58.0,0.0,60.0,6.0,0.0
10408,58.0,56.0,60.0,4.0,0.0
10409,46.0,0.0,60.0,4.0,0.0
10410,58.0,5.0,240.0,12.0,0.0
10411,46.0,3.0,240.0,13.0,0.0
10412,46.0,49.0,120.0,15.0,0.0
10413,34.0,90.0,240.0,14.0,0.0
10414,81.0,3.0,60.0,0.0,0.0
10415,69.0,3.0,60.0,1.0,0.0
10416,69.0,4.0,60.0,2.0,0.0
10417,57.0,1.0,60.0,3.0,0.0
10418,82.0,3.0,60.0,0.0,0.0
10419,70.0,3.0,60.0,1.0,0.0
10420,70.0,4.0,60.0,2.0,0.0
10421,58.0,35.0,60.0,3.0,0.0
10422,86.0,3.0,60.0,0.0,0.0
10423,74.0,3.0,60.0,1.0,0.0
10424,74.0,4.0,60.0,2.0,0.0
10425,62.0,4.0,60.0,3.0,0.0
10426,82.0,3.0,240.0,0.0,0.0
10427,70.0,3.0,240.0,1.0,0.0
10428,70.0,4.0,240.0,2.0,0.0
10429,58.0,52.0,240.0,3.0,0.0
10430,81.0,3.0,60.0,10.0,0.0
10431,69.0,4.0,60.0,11.0,0.0
10432,57.0,5.0,60.0,12.0,0.0
10433,45.0,3.0,60.0,13.0,0.0
10434,33.0,45.0,60.0,14.0,0.0
10435,82.0,3.0,60.0,10.0,0.0
10436,70.0,4.0,60.0,11.0,0.0
10437,58.0,5.0,60.0,12.0,0.0
10438,46.0,3.0,60.0,13.0,0.0
10439,34.0,45.0,60.0,14.0,0.0
10440,86.0,3.0,60.0,10.0,0.0
10441,74.0,4.0,60.0,11.0,0.0
10442,62.0,5.0,60.0,12.0,0.0
10443,50.0,3.0,60.0,13.0,0.0
10444,38.0,1.0,60.0,14.0,0.0
10445,82.0,3.0,120.0,10.0,0.0
10446,58.0,0.0,60.0,6.0,0.0
10447,70.0,4.0,120.0,11.0,0.0
10448,70.0,2.0,60.0,6.0,0.0
10449,46.0,0.0,60.0,4.0,0.0
10450,58.0,55.0,60.0,4.0,0.0
10451,58.0,5.0,120.0,12.0,0.0
10452,46.0,0.0,120.0,13.0,0.0
10453,46.0,3.0,120.0,15.0,0.0
10454,34.0,105.0,120.0,14.0,0.0
10455,79.0,3.0,120.0,10.0,0.0
10456,67.0,4.0,120.0,11.0,0.0
10457,55.0,5.0,120.0,12.0,0.0
10458,43.0,3.0,120.0,13.0,0.0
10459,31.0,105.0,120.0,14.0,0.0
10460,77.0,3.0,120.0,10.0,0.0
10461,65.0,4.0,120.0,11.0,0.0
10462,53.0,5.0,120.0,12.0,0.0
10463,41.0,3.0,120.0,13.0,0.0
10464,29.0,90.0,120.0,14.0,0.0
10465,81.0,3.0,120.0,10.0,0.0
10466,69.0,4.0,120.0,11.0,0.0
10467,57.0,5.0,120.0,12.0,0.0
10468,45.0,3.0,120.0,13.0,0.0
10469,33.0,63.0,120.0,14.0,0.0
10470,82.0,3.0,240.0,10.0,0.0
10471,58.0,2.0,60.0,6.0,0.0
10472,70.0,4.0,240.0,11.0,0.0
10473,70.0,0.0,60.0,6.0,0.0
10474,58.0,0.0,60.0,4.0,0.0
10475,46.0,56.0,60.0,4.0,0.0
10476,58.0,5.0,240.0,12.0,0.0
10477,46.0,49.0,120.0,15.0,0.0
10478,46.0,3.0,240.0,13.0,0.0
10479,34.0,90.0,240.0,14.0,0.0
10480,81.0,3.0,60.0,0.0,0.0
10481,69.0,3.0,60.0,1.0,0.0
10482,69.0,4.0,60.0,2.0,0.0
10483,57.0,1.0,60.0,3.0,0.0
10484,82.0,3.0,60.0,0.0,0.0
10485,70.0,3.0,60.0,1.0,0.0
10486,70.0,4.0,60.0,2.0,0.0
10487,58.0,35.0,60.0,3.0,0.0
10488,86.0,3.0,60.0,0.0,0.0
10489,74.0,3.0,60.0,1.0,0.0
10490,74.0,4.0,60.0,2.0,0.0
10491,62.0,4.0,60.0,3.0,0.0
10492,82.0,3.0,240.0,0.0,0.0
10493,70.0,3.0,240.0,1.0,0.0
10494,70.0,4.0,240.0,2.0,0.0
10495,58.0,34.0,240.0,3.0,0.0
10496,69.0,3.0,60.0,10.0,0.0
10497,57.0,4.0,60.0,11.0,0.0
10498,57.0,5.0,60.0,12.0,0.0
10499,45.0,3.0,60.0,13.0,0.0
10500,33.0,45.0,60.0,14.0,0.0
10501,70.0,3.0,60.0,10.0,0.0
10502,58.0,4.0,60.0,11.0,0.0
10503,58.0,5.0,60.0,12.0,0.0
10504,46.0,3.0,60.0,13.0,0.0
10505,34.0,45.0,60.0,14.0,0.0
10506,74.0,3.0,60.0,10.0,0.0
10507,62.0,4.0,60.0,11.0,0.0
10508,62.0,5.0,60.0,12.0,0.0
10509,50.0,3.0,60.0,13.0,0.0
10510,38.0,1.0,60.0,14.0,0.0
10511,70.0,3.0,60.0,10.0,0.0
10512,58.0,2.0,60.0,6.0,0.0
10513,70.0,0.0,60.0,6.0,0.0
10514,58.0,4.0,60.0,11.0,0.0
10515,58.0,40.0,60.0,4.0,0.0
10516,46.0,0.0,60.0,4.0,0.0
10517,58.0,5.0,60.0,12.0,0.0
10518,46.0,33.0,120.0,15.0,0.0
10519,46.0,3.0,60.0,13.0,0.0
10520,34.0,3.0,60.0,14.0,0.0
10521,68.0,3.0,60.0,10.0,0.0
10522,56.0,4.0,60.0,11.0,0.0
10523,56.0,5.0,60.0,12.0,0.0
10524,44.0,3.0,60.0,13.0,0.0
10525,32.0,12.0,60.0,14.0,0.0
10526,67.0,3.0,60.0,10.0,0.0
10527,55.0,4.0,60.0,11.0,0.0
10528,55.0,5.0,60.0,12.0,0.0
10529,43.0,3.0,60.0,13.0,0.0
10530,31.0,45.0,60.0,14.0,0.0
10531,66.0,3.0,60.0,10.0,0.0
10532,54.0,4.0,60.0,11.0,0.0
10533,54.0,5.0,60.0,12.0,0.0
10534,42.0,3.0,60.0,13.0,0.0
10535,30.0,45.0,60.0,14.0,0.0
10536,65.0,3.0,60.0,10.0,0.0
10537,53.0,4.0,60.0,11.0,0.0
10538,53.0,5.0,60.0,12.0,0.0
10539,41.0,3.0,60.0,13.0,0.0
10540,29.0,45.0,60.0,14.0,0.0
10541,67.0,3.0,60.0,10.0,0.0
10542,55.0,4.0,60.0,11.0,0.0
10543,55.0,5.0,60.0,12.0,0.0
10544,43.0,3.0,60.0,13.0,0.0
10545,31.0,45.0,60.0,14.0,0.0
10546,68.0,3.0,60.0,10.0,0.0
10547,56.0,4.0,60.0,11.0,0.0
10548,56.0,5.0,60.0,12.0,0.0
10549,44.0,3.0,60.0,13.0,0.0
10550,32.0,45.0,60.0,14.0,0.0
10551,69.0,3.0,60.0,10.0,0.0
10552,57.0,4.0,60.0,11.0,0.0
10553,57.0,5.0,60.0,12.0,0.0
10554,45.0,3.0,60.0,13.0,0.0
10555,33.0,45.0,60.0,14.0,0.0
10556,70.0,3.0,60.0,10.0,0.0
10557,58.0,4.0,60.0,11.0,0.0
10558,70.0,2.0,60.0,6.0,0.0
10559,58.0,0.0,60.0,6.0,0.0
10560,46.0,0.0,60.0,4.0,0.0
10561,58.0,40.0,60.0,4.0,0.0
10562,58.0,4.0,60.0,12.0,0.0
10563,58.0,0.0,60.0,3.0,0.0
10564,46.0,1.0,60.0,3.0,0.0
10565,46.0,3.0,60.0,13.0,0.0
10566,46.0,33.0,120.0,15.0,0.0
10567,34.0,3.0,60.0,14.0,0.0
10568,68.0,3.0,60.0,10.0,0.0
10569,56.0,4.0,60.0,11.0,0.0
10570,56.0,4.0,60.0,12.0,0.0
10571,44.0,0.0,60.0,3.0,0.0
10572,56.0,1.0,60.0,3.0,0.0
10573,44.0,3.0,60.0,13.0,0.0
10574,32.0,12.0,60.0,14.0,0.0
10575,67.0,3.0,60.0,10.0,0.0
10576,86.0,3.0,120.0,0.0,0.0
10577,82.0,0.0,120.0,0.0,0.0
10578,55.0,4.0,60.0,11.0,0.0
10579,70.0,0.0,120.0,1.0,0.0
10580,74.0,1.0,120.0,2.0,0.0
10581,70.0,0.0,120.0,2.0,0.0
10582,55.0,4.0,60.0,12.0,0.0
10583,62.0,37.0,120.0,5.0,0.0
10584,58.0,0.0,120.0,5.0,0.0
10585,43.0,1.0,60.0,3.0,0.0
10586,55.0,0.0,60.0,3.0,0.0
10587,43.0,3.0,60.0,13.0,0.0
10588,31.0,45.0,60.0,14.0,0.0
10589,66.0,3.0,60.0,10.0,0.0
10590,54.0,4.0,60.0,11.0,0.0
10591,54.0,4.0,60.0,12.0,0.0
10592,54.0,0.0,60.0,3.0,0.0
10593,42.0,1.0,60.0,3.0,0.0
10594,42.0,3.0,60.0,13.0,0.0
10595,30.0,1.0,60.0,14.0,0.0
10596,65.0,3.0,60.0,10.0,0.0
10597,89.0,0.0,120.0,0.0,0.0
10598,86.0,3.0,120.0,0.0,0.0
10599,53.0,4.0,60.0,11.0,0.0
10600,77.0,0.0,120.0,1.0,0.0
10601,74.0,3.0,15.0,1.0,0.0
10602,77.0,1.0,120.0,2.0,0.0
10603,53.0,4.0,60.0,12.0,0.0
10604,74.0,0.0,120.0,2.0,0.0
10605,65.0,37.0,120.0,5.0,0.0
10606,62.0,0.0,120.0,5.0,0.0
10607,53.0,1.0,60.0,3.0,0.0
10608,41.0,0.0,60.0,3.0,0.0
10609,41.0,3.0,60.0,13.0,0.0
10610,29.0,45.0,60.0,14.0,0.0
10611,67.0,3.0,60.0,10.0,0.0
10612,55.0,4.0,60.0,11.0,0.0
10613,55.0,4.0,60.0,12.0,0.0
10614,43.0,1.0,60.0,3.0,0.0
10615,55.0,0.0,60.0,3.0,0.0
10616,43.0,3.0,60.0,13.0,0.0
10617,31.0,1.0,60.0,14.0,0.0
10618,68.0,3.0,60.0,10.0,0.0
10619,87.0,2.0,120.0,0.0,0.0
10620,84.0,0.0,120.0,0.0,0.0
10621,56.0,4.0,60.0,11.0,0.0
10622,72.0,3.0,120.0,1.0,0.0
10623,75.0,0.0,120.0,1.0,0.0
10624,72.0,1.0,120.0,2.0,0.0
10625,75.0,0.0,120.0,2.0,0.0
10626,56.0,4.0,60.0,12.0,0.0
10627,63.0,3.0,120.0,5.0,0.0
10628,60.0,0.0,120.0,5.0,0.0
10629,56.0,1.0,60.0,3.0,0.0
10630,44.0,0.0,60.0,3.0,0.0
10631,44.0,3.0,60.0,13.0,0.0
10632,32.0,45.0,60.0,14.0,0.0
10633,69.0,1.0,60.0,10.0,0.0
10634,57.0,1.0,60.0,11.0,0.0
10635,57.0,0.0,60.0,12.0,0.0
10636,57.0,0.0,60.0,3.0,0.0
10637,45.0,1.0,60.0,3.0,0.0
10638,45.0,3.0,60.0,13.0,0.0
10639,33.0,45.0,60.0,14.0,0.0
10640,58.0,3.0,60.0,10.0,0.0
10641,86.0,0.0,120.0,0.0,0.0
10642,82.0,3.0,120.0,0.0,0.0
10643,58.0,4.0,60.0,11.0,0.0
10644,58.0,0.0,60.0,6.0,0.0
10645,70.0,2.0,60.0,6.0,0.0
10646,74.0,0.0,120.0,1.0,0.0
10647,70.0,3.0,120.0,1.0,0.0
10648,58.0,40.0,60.0,4.0,0.0
10649,46.0,0.0,60.0,4.0,0.0
10650,74.0,1.0,120.0,2.0,0.0
10651,70.0,0.0,120.0,2.0,0.0
10652,58.0,4.0,60.0,12.0,0.0
10653,58.0,4.0,120.0,5.0,0.0
10654,62.0,0.0,120.0,5.0,0.0
10655,46.0,0.0,60.0,3.0,0.0
10656,58.0,1.0,60.0,3.0,0.0
10657,46.0,3.0,60.0,13.0,0.0
10658,46.0,33.0,120.0,15.0,0.0
10659,34.0,3.0,60.0,14.0,0.0
10660,65.0,3.0,60.0,10.0,0.0
10661,62.0,4.0,60.0,11.0,0.0
10662,58.0,4.0,60.0,12.0,0.0
10663,56.0,1.0,60.0,3.0,0.0
10664,44.0,0.0,60.0,3.0,0.0
10665,44.0,3.0,60.0,13.0,0.0
10666,32.0,1.0,60.0,14.0,0.0
10667,70.0,3.0,60.0,10.0,0.0
10668,65.0,4.0,60.0,11.0,0.0
10669,62.0,4.0,60.0,12.0,0.0
10670,55.0,1.0,60.0,3.0,0.0
10671,43.0,0.0,60.0,3.0,0.0
10672,43.0,3.0,60.0,13.0,0.0
10673,31.0,45.0,60.0,14.0,0.0
10674,74.0,3.0,60.0,10.0,0.0
10675,70.0,4.0,60.0,11.0,0.0
10676,58.0,4.0,60.0,12.0,0.0
10677,54.0,1.0,60.0,3.0,0.0
10678,42.0,0.0,60.0,3.0,0.0
10679,42.0,3.0,60.0,13.0,0.0
10680,30.0,45.0,60.0,14.0,0.0
10681,77.0,3.0,60.0,10.0,0.0
10682,74.0,4.0,60.0,11.0,0.0
10683,58.0,4.0,60.0,12.0,0.0
10684,53.0,1.0,60.0,3.0,0.0
10685,41.0,0.0,60.0,3.0,0.0
10686,41.0,3.0,60.0,13.0,0.0
10687,29.0,45.0,60.0,14.0,0.0
10688,76.0,3.0,60.0,10.0,0.0
10689,73.0,4.0,60.0,11.0,0.0
10690,61.0,4.0,60.0,12.0,0.0
10691,43.0,1.0,60.0,3.0,0.0
10692,55.0,0.0,60.0,3.0,0.0
10693,43.0,3.0,60.0,13.0,0.0
10694,31.0,45.0,60.0,14.0,0.0
10695,77.0,3.0,60.0,10.0,0.0
10696,72.0,4.0,60.0,11.0,0.0
10697,65.0,4.0,60.0,12.0,0.0
10698,44.0,0.0,60.0,3.0,0.0
10699,56.0,1.0,60.0,3.0,0.0
10700,44.0,3.0,60.0,13.0,0.0
10701,32.0,45.0,60.0,14.0,0.0
10702,75.0,3.0,60.0,10.0,0.0
10703,65.0,4.0,60.0,11.0,0.0
10704,60.0,4.0,60.0,12.0,0.0
10705,57.0,1.0,60.0,3.0,0.0
10706,45.0,0.0,60.0,3.0,0.0
10707,45.0,3.0,60.0,13.0,0.0
10708,33.0,45.0,60.0,14.0,0.0
10709,74.0,3.0,60.0,10.0,0.0
10710,70.0,4.0,60.0,11.0,0.0
10711,58.0,2.0,60.0,6.0,0.0
10712,70.0,0.0,60.0,6.0,0.0
10713,58.0,0.0,60.0,4.0,0.0
10714,46.0,40.0,60.0,4.0,0.0
10715,62.0,4.0,60.0,12.0,0.0
10716,58.0,1.0,60.0,3.0,0.0
10717,46.0,0.0,60.0,3.0,0.0
10718,46.0,3.0,60.0,13.0,0.0
10719,46.0,33.0,120.0,15.0,0.0
10720,34.0,3.0,60.0,14.0,0.0
10721,62.0,3.0,60.0,10.0,0.0
10722,62.0,4.0,60.0,11.0,0.0
10723,62.0,4.0,60.0,12.0,0.0
10724,50.0,0.0,60.0,3.0,0.0
10725,62.0,1.0,60.0,3.0,0.0
10726,50.0,3.0,60.0,13.0,0.0
10727,38.0,12.0,60.0,14.0,0.0
10728,58.0,3.0,60.0,10.0,0.0
10729,86.0,0.0,120.0,0.0,0.0
10730,82.0,3.0,120.0,0.0,0.0
10731,58.0,4.0,60.0,11.0,0.0
10732,70.0,3.0,120.0,1.0,0.0
10733,74.0,0.0,120.0,1.0,0.0
10734,70.0,1.0,120.0,2.0,0.0
10735,74.0,0.0,120.0,2.0,0.0
10736,58.0,4.0,60.0,12.0,0.0
10737,62.0,37.0,120.0,5.0,0.0
10738,58.0,0.0,120.0,5.0,0.0
10739,58.0,1.0,60.0,3.0,0.0
10740,46.0,0.0,60.0,3.0,0.0
10741,46.0,3.0,60.0,13.0,0.0
10742,34.0,45.0,60.0,14.0,0.0
10743,56.0,3.0,60.0,10.0,0.0
10744,56.0,4.0,60.0,11.0,0.0
10745,56.0,4.0,60.0,12.0,0.0
10746,56.0,0.0,60.0,3.0,0.0
10747,44.0,1.0,60.0,3.0,0.0
10748,44.0,3.0,60.0,13.0,0.0
10749,32.0,1.0,60.0,14.0,0.0
10750,55.0,3.0,60.0,10.0,0.0
10751,87.0,0.0,120.0,0.0,0.0
10752,91.0,3.0,120.0,0.0,0.0
10753,55.0,4.0,60.0,11.0,0.0
10754,79.0,3.0,120.0,1.0,0.0
10755,75.0,0.0,120.0,1.0,0.0
10756,55.0,4.0,60.0,12.0,0.0
10757,75.0,0.0,120.0,2.0,0.0
10758,79.0,1.0,120.0,2.0,0.0
10759,63.0,0.0,120.0,5.0,0.0
10760,67.0,37.0,120.0,5.0,0.0
10761,55.0,1.0,60.0,3.0,0.0
10762,43.0,0.0,60.0,3.0,0.0
10763,43.0,3.0,60.0,13.0,0.0
10764,31.0,45.0,60.0,14.0,0.0
10765,57.0,3.0,60.0,10.0,0.0
10766,57.0,4.0,60.0,11.0,0.0
10767,57.0,4.0,60.0,12.0,0.0
10768,57.0,0.0,60.0,3.0,0.0
10769,45.0,1.0,60.0,3.0,0.0
10770,45.0,3.0,60.0,13.0,0.0
10771,33.0,1.0,60.0,14.0,0.0
10772,58.0,3.0,60.0,10.0,0.0
10773,89.0,0.0,120.0,0.0,0.0
10774,86.0,2.0,120.0,0.0,0.0
10775,58.0,4.0,60.0,11.0,0.0
10776,74.0,3.0,120.0,1.0,0.0
10777,77.0,0.0,120.0,1.0,0.0
10778,58.0,4.0,60.0,12.0,0.0
10779,77.0,0.0,120.0,2.0,0.0
10780,74.0,0.0,120.0,2.0,0.0
10781,65.0,3.0,120.0,5.0,0.0
10782,62.0,0.0,120.0,5.0,0.0
10783,46.0,1.0,60.0,3.0,0.0
10784,58.0,0.0,60.0,3.0,0.0
10785,46.0,3.0,60.0,13.0,0.0
10786,34.0,45.0,60.0,14.0,0.0
10787,59.0,1.0,60.0,10.0,0.0
10788,59.0,1.0,60.0,11.0,0.0
10789,59.0,1.0,60.0,12.0,0.0
10790,47.0,1.0,60.0,3.0,0.0
10791,59.0,0.0,60.0,3.0,0.0
10792,47.0,3.0,60.0,13.0,0.0
10793,35.0,45.0,60.0,14.0,0.0
10794,60.0,3.0,60.0,10.0,0.0
10795,87.0,0.0,120.0,0.0,0.0
10796,84.0,3.0,120.0,0.0,0.0
10797,60.0,4.0,60.0,11.0,0.0
10798,72.0,2.0,60.0,6.0,0.0
10799,75.0,0.0,120.0,1.0,0.0
10800,72.0,3.0,120.0,1.0,0.0
10801,60.0,40.0,60.0,4.0,0.0
10802,75.0,1.0,120.0,2.0,0.0
10803,60.0,4.0,60.0,12.0,0.0
10804,72.0,0.0,120.0,2.0,0.0
10805,48.0,0.0,120.0,5.0,0.0
10806,63.0,37.0,120.0,5.0,0.0
10807,48.0,1.0,60.0,3.0,0.0
10808,60.0,0.0,60.0,3.0,0.0
10809,48.0,3.0,60.0,13.0,0.0
10810,36.0,3.0,60.0,14.0,0.0
10811,67.0,3.0,60.0,10.0,0.0
10812,63.0,4.0,60.0,11.0,0.0
10813,60.0,4.0,60.0,12.0,0.0
10814,58.0,0.0,60.0,3.0,0.0
10815,46.0,1.0,60.0,3.0,0.0
10816,46.0,3.0,60.0,13.0,0.0
10817,34.0,1.0,60.0,14.0,0.0
10818,72.0,3.0,60.0,10.0,0.0
10819,63.0,4.0,60.0,11.0,0.0
10820,63.0,4.0,60.0,12.0,0.0
10821,57.0,0.0,60.0,3.0,0.0
10822,45.0,1.0,60.0,3.0,0.0
10823,45.0,3.0,60.0,13.0,0.0
10824,33.0,45.0,60.0,14.0,0.0
10825,75.0,3.0,60.0,10.0,0.0
10826,72.0,4.0,60.0,11.0,0.0
10827,63.0,4.0,60.0,12.0,0.0
10828,56.0,1.0,60.0,3.0,0.0
10829,44.0,0.0,60.0,3.0,0.0
10830,44.0,3.0,60.0,13.0,0.0
10831,32.0,45.0,60.0,14.0,0.0
10832,79.0,3.0,60.0,10.0,0.0
10833,75.0,4.0,60.0,11.0,0.0
10834,60.0,4.0,60.0,12.0,0.0
10835,55.0,1.0,60.0,3.0,0.0
10836,43.0,0.0,60.0,3.0,0.0
10837,43.0,3.0,60.0,13.0,0.0
10838,31.0,45.0,60.0,14.0,0.0
10839,78.0,3.0,60.0,10.0,0.0
10840,72.0,4.0,60.0,11.0,0.0
10841,63.0,4.0,60.0,12.0,0.0
10842,45.0,1.0,60.0,3.0,0.0
10843,57.0,0.0,60.0,3.0,0.0
10844,45.0,3.0,60.0,13.0,0.0
10845,33.0,45.0,60.0,14.0,0.0
10846,79.0,3.0,60.0,10.0,0.0
10847,74.0,4.0,60.0,11.0,0.0
10848,55.0,4.0,60.0,12.0,0.0
10849,58.0,0.0,60.0,3.0,0.0
10850,46.0,1.0,60.0,3.0,0.0
10851,46.0,3.0,60.0,13.0,0.0
10852,34.0,45.0,60.0,14.0,0.0
10853,77.0,3.0,60.0,10.0,0.0
10854,67.0,4.0,60.0,11.0,0.0
10855,62.0,4.0,60.0,12.0,0.0
10856,47.0,1.0,60.0,3.0,0.0
10857,59.0,0.0,60.0,3.0,0.0
10858,47.0,3.0,60.0,13.0,0.0
10859,35.0,45.0,60.0,14.0,0.0
10860,75.0,3.0,60.0,10.0,0.0
10861,72.0,2.0,60.0,6.0,0.0
10862,67.0,4.0,60.0,11.0,0.0
10863,60.0,3.0,60.0,4.0,0.0
10864,63.0,4.0,60.0,12.0,0.0
10865,60.0,0.0,60.0,5.0,0.0
10866,48.0,37.0,60.0,5.0,0.0
10867,48.0,1.0,60.0,3.0,0.0
10868,60.0,0.0,60.0,3.0,0.0
10869,48.0,3.0,60.0,13.0,0.0
10870,36.0,3.0,60.0,14.0,0.0
10871,67.0,3.0,60.0,10.0,0.0
10872,63.0,4.0,60.0,11.0,0.0
10873,60.0,4.0,60.0,12.0,0.0
10874,63.0,1.0,60.0,3.0,0.0
10875,51.0,0.0,60.0,3.0,0.0
10876,51.0,3.0,60.0,13.0,0.0
10877,39.0,45.0,60.0,14.0,0.0
10878,72.0,3.0,60.0,10.0,0.0
10879,75.0,0.0,120.0,0.0,0.0
10880,84.0,3.0,120.0,0.0,0.0
10881,67.0,4.0,60.0,11.0,0.0
10882,75.0,0.0,120.0,1.0,0.0
10883,72.0,3.0,120.0,1.0,0.0
10884,75.0,0.0,120.0,2.0,0.0
10885,72.0,38.0,120.0,2.0,0.0
10886,63.0,4.0,60.0,12.0,0.0
10887,48.0,0.0,60.0,3.0,0.0
10888,60.0,1.0,60.0,3.0,0.0
10889,48.0,3.0,60.0,13.0,0.0
10890,36.0,45.0,60.0,14.0,0.0
10891,75.0,3.0,60.0,10.0,0.0
10892,72.0,4.0,60.0,11.0,0.0
10893,63.0,4.0,60.0,12.0,0.0
10894,58.0,1.0,60.0,3.0,0.0
10895,46.0,0.0,60.0,3.0,0.0
10896,46.0,3.0,60.0,13.0,0.0
10897,34.0,1.0,60.0,14.0,0.0
10898,81.0,3.0,60.0,10.0,0.0
10899,89.0,0.0,120.0,0.0,0.0
10900,81.0,3.0,120.0,0.0,0.0
10901,77.0,4.0,60.0,11.0,0.0
10902,81.0,0.0,120.0,1.0,0.0
10903,77.0,3.0,120.0,1.0,0.0
10904,65.0,4.0,60.0,12.0,0.0
10905,77.0,0.0,120.0,2.0,0.0
10906,69.0,38.0,120.0,2.0,0.0
10907,45.0,0.0,60.0,3.0,0.0
10908,57.0,1.0,60.0,3.0,0.0
10909,45.0,3.0,60.0,13.0,0.0
10910,33.0,45.0,60.0,14.0,0.0
10911,80.0,3.0,60.0,10.0,0.0
10912,74.0,4.0,60.0,11.0,0.0
10913,65.0,4.0,60.0,12.0,0.0
10914,47.0,0.0,60.0,3.0,0.0
10915,59.0,1.0,60.0,3.0,0.0
10916,47.0,3.0,60.0,13.0,0.0
10917,35.0,1.0,60.0,14.0,0.0
10918,81.0,3.0,60.0,10.0,0.0
10919,79.0,0.0,120.0,0.0,0.0
10920,88.0,2.0,120.0,0.0,0.0
10921,76.0,4.0,60.0,11.0,0.0
10922,79.0,3.0,120.0,1.0,0.0
10923,76.0,0.0,120.0,1.0,0.0
10924,57.0,4.0,60.0,12.0,0.0
10925,67.0,4.0,120.0,2.0,0.0
10926,76.0,0.0,120.0,2.0,0.0
10927,60.0,1.0,60.0,3.0,0.0
10928,48.0,0.0,60.0,3.0,0.0
10929,48.0,3.0,60.0,13.0,0.0
10930,36.0,45.0,60.0,14.0,0.0
10931,79.0,1.0,60.0,10.0,0.0
10932,69.0,1.0,60.0,11.0,0.0
10933,64.0,0.0,60.0,12.0,0.0
10934,49.0,0.0,60.0,3.0,0.0
10935,61.0,1.0,60.0,3.0,0.0
10936,49.0,3.0,60.0,13.0,0.0
10937,37.0,45.0,60.0,14.0,0.0
10938,77.0,3.0,60.0,10.0,0.0
10939,86.0,2.0,120.0,0.0,0.0
10940,77.0,0.0,120.0,0.0,0.0
10941,74.0,2.0,60.0,6.0,0.0
10942,69.0,4.0,60.0,11.0,0.0
10943,74.0,3.0,120.0,1.0,0.0
10944,77.0,0.0,120.0,1.0,0.0
10945,62.0,3.0,60.0,4.0,0.0
10946,65.0,0.0,120.0,2.0,0.0
10947,65.0,4.0,60.0,12.0,0.0
10948,74.0,0.0,120.0,2.0,0.0
10949,62.0,37.0,60.0,5.0,0.0
10950,50.0,1.0,60.0,3.0,0.0
10951,62.0,0.0,60.0,3.0,0.0
10952,50.0,3.0,60.0,13.0,0.0
10953,38.0,3.0,60.0,14.0,0.0
10954,70.0,1.0,60.0,10.0,0.0
10955,62.0,1.0,60.0,11.0,0.0
10956,67.0,4.0,60.0,12.0,0.0
10957,58.0,0.0,60.0,12.0,0.0
10958,46.0,1.0,60.0,3.0,0.0
10959,46.0,3.0,60.0,13.0,0.0
10960,34.0,12.0,60.0,14.0,0.0
10961,82.0,3.0,60.0,10.0,0.0
10962,89.0,0.0,120.0,0.0,0.0
10963,82.0,3.0,120.0,0.0,0.0
10964,58.0,1.0,240.0,6.0,0.0
10965,70.0,0.0,240.0,6.0,0.0
10966,65.0,4.0,60.0,11.0,0.0
10967,77.0,3.0,120.0,1.0,0.0
10968,82.0,0.0,120.0,1.0,0.0
10969,58.0,2.0,240.0,4.0,0.0
10970,46.0,0.0,240.0,4.0,0.0
10971,70.0,1.0,120.0,2.0,0.0
10972,77.0,0.0,120.0,2.0,0.0
10973,67.0,0.0,60.0,12.0,0.0
10974,58.0,4.0,60.0,12.0,0.0
10975,65.0,4.0,120.0,5.0,0.0
10976,58.0,0.0,240.0,5.0,0.0
10977,48.0,1.0,60.0,3.0,0.0
10978,46.0,33.0,15.0,15.0,0.0
10979,48.0,3.0,60.0,13.0,0.0
10980,36.0,12.0,60.0,14.0,0.0
10981,77.0,3.0,60.0,10.0,0.0
10982,70.0,4.0,60.0,11.0,0.0
10983,65.0,4.0,60.0,12.0,0.0
10984,58.0,0.0,60.0,12.0,0.0
10985,50.0,1.0,60.0,3.0,0.0
10986,46.0,33.0,15.0,15.0,0.0
10987,50.0,3.0,60.0,13.0,0.0
10988,38.0,1.0,60.0,14.0,0.0
10989,78.0,3.0,60.0,10.0,0.0
10990,90.0,0.0,120.0,0.0,0.0
10991,78.0,2.0,120.0,0.0,0.0
10992,70.0,4.0,60.0,11.0,0.0
10993,75.0,0.0,120.0,1.0,0.0
10994,78.0,1.0,120.0,1.0,0.0
10995,78.0,0.0,120.0,2.0,0.0
10996,66.0,1.0,120.0,2.0,0.0
10997,66.0,0.0,60.0,12.0,0.0
10998,58.0,4.0,60.0,12.0,0.0
10999,63.0,3.0,120.0,5.0,0.0
11000,51.0,1.0,60.0,3.0,0.0
11001,51.0,3.0,60.0,13.0,0.0
11002,39.0,12.0,60.0,14.0,0.0
11003,70.0,1.0,60.0,10.0,0.0
11004,62.0,0.0,60.0,11.0,0.0
11005,58.0,0.0,60.0,12.0,0.0
11006,70.0,0.0,60.0,12.0,0.0
11007,46.0,1.0,60.0,3.0,0.0
11008,46.0,33.0,15.0,15.0,0.0
11009,46.0,3.0,60.0,13.0,0.0
11010,34.0,12.0,60.0,14.0,0.0
11011,82.0,3.0,60.0,10.0,0.0
11012,82.0,0.0,120.0,0.0,0.0
11013,89.0,3.0,120.0,0.0,0.0
11014,65.0,4.0,60.0,11.0,0.0
11015,58.0,0.0,120.0,6.0,0.0
11016,70.0,0.0,120.0,6.0,0.0
11017,77.0,0.0,120.0,1.0,0.0
11018,82.0,3.0,120.0,1.0,0.0
11019,58.0,2.0,120.0,4.0,0.0
11020,46.0,0.0,120.0,4.0,0.0
11021,70.0,0.0,120.0,2.0,0.0
11022,58.0,0.0,60.0,12.0,0.0
11023,77.0,1.0,120.0,2.0,0.0
11024,70.0,4.0,60.0,12.0,0.0
11025,65.0,4.0,120.0,5.0,0.0
11026,58.0,0.0,240.0,5.0,0.0
11027,48.0,1.0,60.0,3.0,0.0
11028,46.0,33.0,15.0,15.0,0.0
11029,48.0,3.0,60.0,13.0,0.0
11030,36.0,12.0,60.0,14.0,0.0
11031,77.0,3.0,60.0,10.0,0.0
11032,70.0,2.0,60.0,11.0,0.0
11033,65.0,0.0,60.0,12.0,0.0
11034,58.0,4.0,60.0,12.0,0.0
11035,50.0,1.0,60.0,3.0,0.0
11036,46.0,33.0,15.0,15.0,0.0
11037,50.0,3.0,60.0,13.0,0.0
11038,38.0,1.0,60.0,14.0,0.0
11039,78.0,3.0,180.0,10.0,0.0
11040,78.0,0.0,120.0,0.0,0.0
11041,90.0,3.0,120.0,0.0,0.0
11042,58.0,0.0,180.0,6.0,0.0
11043,70.0,2.0,180.0,6.0,0.0
11044,66.0,15.0,180.0,11.0,0.0
11045,78.0,3.0,120.0,1.0,0.0
11046,75.0,0.0,120.0,1.0,0.0
11047,58.0,7.0,180.0,4.0,0.0
11048,46.0,0.0,180.0,4.0,0.0
11049,66.0,16.0,120.0,2.0,0.0
11050,58.0,4.0,30.0,12.0,0.0
11051,66.0,0.0,30.0,12.0,0.0
11052,78.0,0.0,120.0,2.0,0.0
11053,63.0,4.0,120.0,5.0,0.0
11054,51.0,1.0,30.0,3.0,0.0
11055,51.0,3.0,30.0,13.0,0.0
11056,46.0,25.0,60.0,15.0,0.0
11057,39.0,27.0,30.0,14.0,0.0
11058,65.0,4.0,30.0,12.0,0.0
11059,53.0,1.0,30.0,3.0,0.0
11060,53.0,3.0,30.0,13.0,0.0
11061,46.0,25.0,60.0,15.0,0.0
11062,41.0,1.0,30.0,14.0,0.0
11063,82.0,0.0,240.0,0.0,0.0
11064,87.0,2.0,240.0,0.0,0.0
11065,70.0,0.0,240.0,1.0,0.0
11066,75.0,2.0,240.0,1.0,0.0
11067,51.0,0.0,240.0,7.0,0.0
11068,58.0,1.0,240.0,7.0,0.0
11069,63.0,4.0,30.0,12.0,0.0
11070,70.0,3.0,240.0,2.0,0.0
11071,63.0,0.0,240.0,2.0,0.0
11072,42.0,50.0,240.0,7.0,0.0
11073,54.0,1.0,30.0,3.0,0.0
11074,54.0,3.0,30.0,13.0,0.0
11075,46.0,33.0,60.0,15.0,0.0
11076,42.0,0.0,30.0,14.0,0.0
11077,77.0,3.0,60.0,10.0,0.0
11078,65.0,57.0,60.0,11.0,0.0
11079,75.0,3.0,60.0,10.0,0.0
11080,63.0,57.0,60.0,11.0,0.0
11081,70.0,1.0,60.0,10.0,0.0
11082,58.0,1.0,60.0,11.0,0.0
11083,75.0,3.0,60.0,10.0,0.0
11084,82.0,0.0,120.0,0.0,0.0
11085,87.0,3.0,120.0,0.0,0.0
11086,63.0,57.0,60.0,11.0,0.0
11087,75.0,0.0,120.0,1.0,0.0
11088,70.0,2.0,120.0,1.0,0.0
11089,58.0,0.0,120.0,7.0,0.0
11090,51.0,1.0,120.0,7.0,0.0
11091,70.0,0.0,120.0,2.0,0.0
11092,63.0,3.0,120.0,2.0,0.0
11093,42.0,27.0,120.0,7.0,0.0
11094,77.0,3.0,60.0,10.0,0.0
11095,65.0,13.0,60.0,11.0,0.0
11096,78.0,0.0,180.0,10.0,0.0
11097,66.0,15.0,180.0,11.0,0.0
11098,70.0,0.0,180.0,6.0,0.0
11099,58.0,2.0,180.0,6.0,0.0
11100,58.0,0.0,180.0,4.0,0.0
11101,46.0,7.0,180.0,4.0,0.0
11102,70.0,4.0,30.0,12.0,0.0
11103,58.0,0.0,30.0,12.0,0.0
11104,51.0,1.0,30.0,3.0,0.0
11105,51.0,3.0,30.0,13.0,0.0
11106,39.0,27.0,30.0,14.0,0.0
11107,70.0,4.0,30.0,12.0,0.0
11108,58.0,0.0,30.0,12.0,0.0
11109,50.0,1.0,30.0,3.0,0.0
11110,50.0,3.0,30.0,13.0,0.0
11111,46.0,25.0,15.0,15.0,0.0
11112,38.0,27.0,30.0,14.0,0.0
11113,82.0,0.0,240.0,0.0,0.0
11114,87.0,2.0,240.0,0.0,0.0
11115,75.0,0.0,240.0,1.0,0.0
11116,70.0,2.0,240.0,1.0,0.0
11117,51.0,0.0,240.0,7.0,0.0
11118,58.0,1.0,240.0,7.0,0.0
11119,70.0,0.0,30.0,12.0,0.0
11120,63.0,0.0,240.0,2.0,0.0
11121,58.0,4.0,30.0,12.0,0.0
11122,70.0,1.0,240.0,2.0,0.0
11123,48.0,0.0,240.0,5.0,0.0
11124,60.0,2.0,240.0,5.0,0.0
11125,36.0,50.0,240.0,7.0,0.0
11126,48.0,1.0,30.0,3.0,0.0
11127,46.0,33.0,60.0,15.0,0.0
11128,48.0,3.0,30.0,13.0,0.0
11129,36.0,3.0,30.0,14.0,0.0
11130,79.0,3.0,60.0,10.0,0.0
11131,67.0,57.0,60.0,11.0,0.0
11132,77.0,3.0,60.0,10.0,0.0
11133,65.0,57.0,60.0,11.0,0.0
11134,75.0,1.0,60.0,10.0,0.0
11135,63.0,1.0,60.0,11.0,0.0
11136,74.0,3.0,60.0,10.0,0.0
11137,82.0,0.0,120.0,0.0,0.0
11138,87.0,3.0,120.0,0.0,0.0
11139,62.0,57.0,60.0,11.0,0.0
11140,70.0,2.0,120.0,1.0,0.0
11141,75.0,0.0,120.0,1.0,0.0
11142,58.0,0.0,120.0,7.0,0.0
11143,51.0,1.0,120.0,7.0,0.0
11144,70.0,0.0,120.0,2.0,0.0
11145,63.0,1.0,120.0,2.0,0.0
11146,48.0,0.0,120.0,5.0,0.0
11147,60.0,2.0,120.0,5.0,0.0
11148,48.0,27.0,120.0,7.0,0.0
11149,72.0,3.0,60.0,10.0,0.0
11150,60.0,13.0,60.0,11.0,0.0
11151,80.0,3.0,180.0,10.0,0.0
11152,72.0,2.0,180.0,6.0,0.0
11153,68.0,15.0,180.0,11.0,0.0
11154,60.0,7.0,180.0,4.0,0.0
11155,63.0,0.0,180.0,4.0,0.0
11156,63.0,4.0,30.0,12.0,0.0
11157,60.0,0.0,30.0,12.0,0.0
11158,36.0,1.0,30.0,3.0,0.0
11159,36.0,3.0,30.0,13.0,0.0
11160,24.0,27.0,30.0,14.0,0.0
11161,63.0,0.0,30.0,12.0,0.0
11162,60.0,4.0,30.0,12.0,0.0
11163,48.0,1.0,30.0,3.0,0.0
11164,46.0,25.0,15.0,15.0,0.0
11165,48.0,3.0,30.0,13.0,0.0
11166,36.0,27.0,30.0,14.0,0.0
11167,87.0,2.0,240.0,0.0,0.0
11168,84.0,0.0,240.0,0.0,0.0
11169,72.0,0.0,240.0,1.0,0.0
11170,75.0,2.0,240.0,1.0,0.0
11171,55.0,1.0,240.0,7.0,0.0
11172,60.0,0.0,240.0,7.0,0.0
11173,63.0,4.0,30.0,12.0,0.0
11174,63.0,0.0,240.0,2.0,0.0
11175,60.0,0.0,30.0,12.0,0.0
11176,72.0,1.0,240.0,2.0,0.0
11177,60.0,2.0,240.0,5.0,0.0
11178,63.0,0.0,240.0,5.0,0.0
11179,51.0,50.0,240.0,7.0,0.0
11180,51.0,1.0,30.0,3.0,0.0
11181,46.0,33.0,60.0,15.0,0.0
11182,51.0,3.0,30.0,13.0,0.0
11183,39.0,0.0,30.0,14.0,0.0
11184,79.0,3.0,60.0,10.0,0.0
11185,67.0,57.0,60.0,11.0,0.0
11186,75.0,3.0,60.0,10.0,0.0
11187,63.0,57.0,60.0,11.0,0.0
11188,67.0,1.0,60.0,10.0,0.0
11189,55.0,1.0,60.0,11.0,0.0
11190,72.0,3.0,60.0,10.0,0.0
11191,87.0,0.0,120.0,0.0,0.0
11192,84.0,3.0,120.0,0.0,0.0
11193,60.0,57.0,60.0,11.0,0.0
11194,75.0,2.0,120.0,1.0,0.0
11195,72.0,0.0,120.0,1.0,0.0
11196,55.0,0.0,120.0,7.0,0.0
11197,60.0,1.0,120.0,7.0,0.0
11198,63.0,0.0,120.0,2.0,0.0
11199,72.0,1.0,120.0,2.0,0.0
11200,60.0,0.0,120.0,5.0,0.0
11201,63.0,2.0,120.0,5.0,0.0
11202,51.0,27.0,120.0,7.0,0.0
11203,75.0,3.0,60.0,10.0,0.0
11204,63.0,13.0,60.0,11.0,0.0
11205,81.0,3.0,60.0,10.0,0.0
11206,69.0,24.0,60.0,11.0,0.0
11207,72.0,2.0,180.0,6.0,0.0
11208,60.0,0.0,180.0,4.0,0.0
11209,63.0,7.0,180.0,4.0,0.0
11210,58.0,4.0,30.0,12.0,0.0
11211,63.0,0.0,30.0,12.0,0.0
11212,36.0,1.0,30.0,3.0,0.0
11213,36.0,3.0,30.0,13.0,0.0
11214,24.0,0.0,30.0,14.0,0.0
11215,79.0,0.0,60.0,10.0,0.0
11216,67.0,24.0,60.0,11.0,0.0
11217,63.0,0.0,30.0,12.0,0.0
11218,58.0,4.0,30.0,12.0,0.0
11219,43.0,1.0,30.0,3.0,0.0
11220,46.0,25.0,15.0,15.0,0.0
11221,43.0,3.0,30.0,13.0,0.0
11222,31.0,3.0,30.0,14.0,0.0
11223,78.0,3.0,60.0,10.0,0.0
11224,87.0,0.0,240.0,0.0,0.0
11225,82.0,2.0,240.0,0.0,0.0
11226,66.0,15.0,60.0,11.0,0.0
11227,75.0,2.0,240.0,1.0,0.0
11228,70.0,0.0,240.0,1.0,0.0
11229,58.0,0.0,240.0,7.0,0.0
11230,63.0,1.0,240.0,7.0,0.0
11231,58.0,0.0,30.0,12.0,0.0
11232,63.0,1.0,240.0,2.0,0.0
11233,70.0,0.0,240.0,2.0,0.0
11234,63.0,4.0,30.0,12.0,0.0
11235,60.0,0.0,240.0,5.0,0.0
11236,48.0,2.0,240.0,5.0,0.0
11237,36.0,50.0,240.0,7.0,0.0
11238,48.0,1.0,30.0,3.0,0.0
11239,48.0,3.0,30.0,13.0,0.0
11240,46.0,33.0,60.0,15.0,0.0
11241,36.0,0.0,30.0,14.0,0.0
11242,79.0,3.0,60.0,10.0,0.0
11243,67.0,57.0,60.0,11.0,0.0
11244,77.0,3.0,60.0,10.0,0.0
11245,65.0,57.0,60.0,11.0,0.0
11246,75.0,1.0,60.0,10.0,0.0
11247,63.0,1.0,60.0,11.0,0.0
11248,74.0,3.0,60.0,10.0,0.0
11249,87.0,2.0,120.0,0.0,0.0
11250,82.0,0.0,120.0,0.0,0.0
11251,62.0,57.0,60.0,11.0,0.0
11252,70.0,0.0,120.0,1.0,0.0
11253,75.0,2.0,120.0,1.0,0.0
11254,63.0,1.0,120.0,7.0,0.0
11255,58.0,0.0,120.0,7.0,0.0
11256,63.0,0.0,120.0,2.0,0.0
11257,70.0,1.0,120.0,2.0,0.0
11258,48.0,0.0,120.0,5.0,0.0
11259,60.0,2.0,120.0,5.0,0.0
11260,48.0,42.0,120.0,7.0,0.0
11261,72.0,1.0,60.0,10.0,0.0
11262,60.0,1.0,60.0,11.0,0.0
11263,70.0,3.0,60.0,10.0,0.0
11264,84.0,0.0,60.0,0.0,0.0
11265,87.0,3.0,60.0,0.0,0.0
11266,53.0,0.0,120.0,6.0,0.0
11267,65.0,2.0,120.0,6.0,0.0
11268,58.0,3.0,60.0,11.0,0.0
11269,75.0,3.0,60.0,1.0,0.0
11270,72.0,0.0,60.0,1.0,0.0
11271,53.0,1.0,120.0,4.0,0.0
11272,41.0,0.0,120.0,4.0,0.0
11273,63.0,0.0,120.0,7.0,0.0
11274,60.0,2.0,120.0,7.0,0.0
11275,63.0,0.0,30.0,12.0,0.0
11276,60.0,4.0,30.0,12.0,0.0
11277,72.0,5.0,60.0,2.0,0.0
11278,63.0,0.0,60.0,2.0,0.0
11279,60.0,0.0,120.0,5.0,0.0
11280,63.0,2.0,120.0,5.0,0.0
11281,41.0,5.0,120.0,7.0,0.0
11282,41.0,1.0,30.0,3.0,0.0
11283,41.0,3.0,30.0,13.0,0.0
11284,41.0,25.0,60.0,15.0,0.0
11285,29.0,10.0,30.0,14.0,0.0
11286,60.0,0.0,30.0,12.0,0.0
11287,63.0,4.0,30.0,12.0,0.0
11288,48.0,1.0,30.0,3.0,0.0
11289,48.0,3.0,30.0,13.0,0.0
11290,36.0,18.0,30.0,14.0,0.0
11291,69.0,3.0,60.0,10.0,0.0
11292,57.0,19.0,60.0,11.0,0.0
11293,60.0,0.0,30.0,12.0,0.0
11294,63.0,4.0,30.0,12.0,0.0
11295,53.0,1.0,30.0,3.0,0.0
11296,53.0,3.0,30.0,13.0,0.0
11297,41.0,50.0,30.0,14.0,0.0
11298,67.0,3.0,60.0,10.0,0.0
11299,55.0,77.0,60.0,11.0,0.0
11300,65.0,3.0,60.0,10.0,0.0
11301,53.0,4.0,60.0,11.0,0.0
11302,53.0,73.0,60.0,12.0,0.0
11303,63.0,3.0,60.0,10.0,0.0
11304,63.0,4.0,60.0,11.0,0.0
11305,51.0,73.0,60.0,12.0,0.0
11306,60.0,3.0,60.0,10.0,0.0
11307,60.0,4.0,60.0,11.0,0.0
11308,48.0,73.0,60.0,12.0,0.0
11309,58.0,3.0,60.0,10.0,0.0
11310,58.0,4.0,60.0,11.0,0.0
11311,58.0,5.0,60.0,12.0,0.0
11312,46.0,68.0,60.0,13.0,0.0
11313,57.0,3.0,60.0,10.0,0.0
11314,57.0,4.0,60.0,11.0,0.0
11315,57.0,5.0,60.0,12.0,0.0
11316,45.0,68.0,60.0,13.0,0.0
11317,55.0,3.0,60.0,10.0,0.0
11318,55.0,4.0,60.0,11.0,0.0
11319,55.0,5.0,60.0,12.0,0.0
11320,43.0,75.0,60.0,13.0,0.0
11321,53.0,3.0,90.0,10.0,0.0
11322,53.0,44.0,90.0,11.0,0.0
11323,53.0,5.0,60.0,12.0,0.0
11324,41.0,28.0,60.0,13.0,0.0
11325,51.0,5.0,60.0,12.0,0.0
11326,39.0,75.0,60.0,13.0,0.0
11327,48.0,5.0,60.0,12.0,0.0
11328,36.0,85.0,60.0,13.0,0.0
11329,62.0,3.0,90.0,10.0,0.0
11330,82.0,0.0,120.0,0.0,0.0
11331,74.0,3.0,120.0,0.0,0.0
11332,62.0,4.0,90.0,11.0,0.0
11333,74.0,0.0,120.0,1.0,0.0
11334,70.0,3.0,120.0,1.0,0.0
11335,46.0,7.0,240.0,4.0,0.0
11336,58.0,0.0,240.0,4.0,0.0
11337,62.0,0.0,120.0,2.0,0.0
11338,70.0,4.0,120.0,2.0,0.0
11339,53.0,24.0,90.0,12.0,0.0
11340,58.0,0.0,120.0,3.0,0.0
11341,62.0,1.0,120.0,3.0,0.0
11342,34.0,18.0,60.0,13.0,0.0
11343,34.0,120.0,240.0,14.0,0.0
11344,33.0,60.0,60.0,13.0,0.0
11345,62.0,3.0,240.0,10.0,0.0
11346,62.0,4.0,240.0,11.0,0.0
11347,53.0,98.0,240.0,12.0,0.0
11348,34.0,38.0,60.0,13.0,0.0
11349,41.0,3.0,60.0,13.0,0.0
11350,58.0,0.0,480.0,4.0,0.0
11351,46.0,7.0,480.0,4.0,0.0
11352,34.0,48.0,300.0,13.0,0.0
11353,34.0,0.0,480.0,14.0,0.0
11354,63.0,3.0,120.0,10.0,0.0
11355,63.0,4.0,120.0,11.0,0.0
11356,55.0,80.0,120.0,12.0,0.0
11357,62.0,3.0,120.0,10.0,0.0
11358,62.0,4.0,120.0,11.0,0.0
11359,53.0,5.0,120.0,12.0,0.0
11360,33.0,60.0,60.0,13.0,0.0
11361,60.0,3.0,120.0,10.0,0.0
11362,60.0,4.0,120.0,11.0,0.0
11363,51.0,113.0,120.0,12.0,0.0
11364,34.0,38.0,60.0,13.0,0.0
11365,50.0,3.0,60.0,13.0,0.0
11366,58.0,3.0,120.0,10.0,0.0
11367,58.0,4.0,120.0,11.0,0.0
11368,46.0,7.0,480.0,4.0,0.0
11369,58.0,0.0,480.0,4.0,0.0
11370,50.0,98.0,120.0,12.0,0.0
11371,34.0,18.0,300.0,13.0,0.0
11372,34.0,72.0,240.0,14.0,0.0
11373,60.0,3.0,120.0,10.0,0.0
11374,60.0,4.0,120.0,11.0,0.0
11375,51.0,8.0,120.0,12.0,0.0
11376,62.0,3.0,90.0,10.0,0.0
11377,62.0,4.0,90.0,11.0,0.0
11378,53.0,35.0,90.0,12.0,0.0
11379,34.0,120.0,240.0,14.0,0.0
11380,33.0,60.0,60.0,13.0,0.0
11381,62.0,3.0,240.0,10.0,0.0
11382,62.0,4.0,240.0,11.0,0.0
11383,53.0,98.0,240.0,12.0,0.0
11384,34.0,38.0,60.0,13.0,0.0
11385,41.0,3.0,60.0,13.0,0.0
11386,58.0,7.0,480.0,4.0,0.0
11387,46.0,0.0,480.0,4.0,0.0
11388,34.0,48.0,300.0,13.0,0.0
11389,34.0,0.0,480.0,14.0,0.0
11390,65.0,3.0,120.0,10.0,0.0
11391,65.0,4.0,120.0,11.0,0.0
11392,56.0,80.0,120.0,12.0,0.0
11393,63.0,3.0,120.0,10.0,0.0
11394,63.0,4.0,120.0,11.0,0.0
11395,55.0,5.0,120.0,12.0,0.0
11396,33.0,60.0,60.0,13.0,0.0
11397,60.0,3.0,120.0,10.0,0.0
11398,60.0,4.0,120.0,11.0,0.0
11399,51.0,113.0,120.0,12.0,0.0
11400,34.0,38.0,60.0,13.0,0.0
11401,50.0,3.0,60.0,13.0,0.0
11402,58.0,3.0,120.0,10.0,0.0
11403,58.0,4.0,120.0,11.0,0.0
11404,46.0,0.0,480.0,4.0,0.0
11405,58.0,7.0,480.0,4.0,0.0
11406,50.0,98.0,120.0,12.0,0.0
11407,34.0,33.0,300.0,13.0,0.0
11408,34.0,0.0,480.0,14.0,0.0
11409,60.0,3.0,120.0,10.0,0.0
11410,60.0,4.0,120.0,11.0,0.0
11411,51.0,80.0,120.0,12.0,0.0
11412,62.0,3.0,120.0,10.0,0.0
11413,62.0,4.0,120.0,11.0,0.0
11414,53.0,20.0,120.0,12.0,0.0
11415,33.0,60.0,60.0,13.0,0.0
11416,65.0,3.0,120.0,10.0,0.0
11417,62.0,4.0,120.0,11.0,0.0
11418,34.0,38.0,60.0,13.0,0.0
11419,38.0,3.0,60.0,13.0,0.0
11420,70.0,3.0,120.0,10.0,0.0
11421,67.0,102.0,120.0,11.0,0.0
11422,58.0,2.0,480.0,4.0,0.0
11423,46.0,0.0,480.0,4.0,0.0
11424,58.0,113.0,15.0,12.0,0.0
11425,39.0,3.0,240.0,13.0,0.0
11426,27.0,67.0,240.0,14.0,0.0
11427,67.0,3.0,120.0,10.0,0.0
11428,63.0,9.0,120.0,11.0,0.0
11429,65.0,3.0,120.0,10.0,0.0
11430,62.0,19.0,120.0,11.0,0.0
11431,46.0,33.0,60.0,13.0,0.0
11432,34.0,52.0,120.0,14.0,0.0
11433,57.0,5.0,60.0,12.0,0.0
11434,45.0,3.0,60.0,13.0,0.0
11435,70.0,3.0,120.0,10.0,0.0
11436,62.0,117.0,120.0,11.0,0.0
11437,58.0,5.0,60.0,12.0,0.0
11438,46.0,38.0,60.0,13.0,0.0
11439,62.0,5.0,60.0,12.0,0.0
11440,50.0,3.0,60.0,13.0,0.0
11441,74.0,3.0,120.0,10.0,0.0
11442,70.0,107.0,120.0,11.0,0.0
11443,62.0,2.0,480.0,4.0,0.0
11444,58.0,62.0,240.0,4.0,0.0
11445,62.0,5.0,300.0,12.0,0.0
11446,43.0,3.0,240.0,13.0,0.0
11447,31.0,5.0,240.0,14.0,0.0
11448,70.0,3.0,120.0,10.0,0.0
11449,67.0,4.0,120.0,11.0,0.0
11450,69.0,3.0,120.0,10.0,0.0
11451,65.0,14.0,120.0,11.0,0.0
11452,57.0,0.0,240.0,4.0,0.0
11453,50.0,38.0,60.0,13.0,0.0
11454,38.0,52.0,120.0,14.0,0.0
11455,61.0,5.0,60.0,12.0,0.0
11456,49.0,3.0,60.0,13.0,0.0
11457,74.0,3.0,120.0,10.0,0.0
11458,65.0,60.0,120.0,11.0,0.0
11459,62.0,5.0,60.0,12.0,0.0
11460,50.0,38.0,60.0,13.0,0.0
11461,65.0,5.0,60.0,12.0,0.0
11462,53.0,3.0,60.0,13.0,0.0
11463,77.0,18.0,360.0,10.0,0.0
11464,70.0,60.0,60.0,11.0,0.0
11465,65.0,7.0,240.0,4.0,0.0
11466,58.0,0.0,480.0,4.0,0.0
11467,62.0,56.0,120.0,12.0,0.0
11468,38.0,3.0,240.0,13.0,0.0
11469,26.0,48.0,240.0,14.0,0.0
11470,69.0,4.0,60.0,11.0,0.0
11471,70.0,45.0,60.0,11.0,0.0
11472,58.0,13.0,120.0,12.0,0.0
11473,74.0,4.0,60.0,11.0,0.0
11474,70.0,42.0,60.0,11.0,0.0
11475,62.0,58.0,240.0,4.0,0.0
11476,62.0,56.0,120.0,12.0,0.0
11477,41.0,3.0,480.0,13.0,0.0
11478,29.0,91.0,480.0,14.0,0.0
11479,69.0,4.0,60.0,11.0,0.0
11480,74.0,5.0,120.0,10.0,0.0
11481,70.0,45.0,60.0,11.0,0.0
11482,58.0,8.0,120.0,12.0,0.0
11483,74.0,4.0,60.0,11.0,0.0
11484,77.0,3.0,120.0,10.0,0.0
11485,69.0,57.0,60.0,11.0,0.0
11486,53.0,2.0,240.0,4.0,0.0
11487,60.0,0.0,240.0,4.0,0.0
11488,60.0,56.0,120.0,12.0,0.0
11489,67.0,4.0,60.0,11.0,0.0
11490,72.0,3.0,120.0,10.0,0.0
11491,69.0,42.0,60.0,11.0,0.0
11492,53.0,5.0,120.0,12.0,0.0
11493,72.0,2.0,60.0,11.0,0.0
11494,74.0,3.0,120.0,10.0,0.0
11495,77.0,3.0,90.0,0.0,0.0
11496,86.0,0.0,90.0,0.0,0.0
11497,65.0,19.0,120.0,11.0,0.0
11498,65.0,1.0,90.0,1.0,0.0
11499,74.0,0.0,90.0,1.0,0.0
11500,62.0,6.0,90.0,4.0,0.0
11501,53.0,4.0,90.0,3.0,0.0
11502,62.0,0.0,90.0,3.0,0.0
11503,34.0,60.0,240.0,14.0,0.0
11504,57.0,5.0,60.0,12.0,0.0
11505,45.0,55.0,60.0,13.0,0.0
11506,70.0,3.0,180.0,10.0,0.0
11507,86.0,0.0,240.0,0.0,0.0
11508,77.0,2.0,240.0,0.0,0.0
11509,58.0,49.0,180.0,11.0,0.0
11510,65.0,1.0,240.0,1.0,0.0
11511,74.0,0.0,240.0,1.0,0.0
11512,62.0,6.0,240.0,4.0,0.0
11513,58.0,5.0,60.0,12.0,0.0
11514,53.0,0.0,240.0,3.0,0.0
11515,62.0,49.0,240.0,3.0,0.0
11516,46.0,40.0,60.0,13.0,0.0
11517,62.0,5.0,60.0,12.0,0.0
11518,50.0,3.0,60.0,13.0,0.0
11519,58.0,5.0,120.0,12.0,0.0
11520,46.0,3.0,120.0,13.0,0.0
11521,34.0,1.0,480.0,14.0,0.0
11522,69.0,1.0,60.0,10.0,0.0
11523,57.0,1.0,60.0,11.0,0.0
11524,70.0,3.0,60.0,10.0,0.0
11525,87.0,0.0,120.0,0.0,0.0
11526,79.0,2.0,120.0,0.0,0.0
11527,58.0,42.0,60.0,11.0,0.0
11528,75.0,0.0,120.0,1.0,0.0
11529,67.0,1.0,120.0,1.0,0.0
11530,63.0,6.0,120.0,4.0,0.0
11531,58.0,5.0,240.0,12.0,0.0
11532,55.0,0.0,120.0,3.0,0.0
11533,63.0,109.0,120.0,3.0,0.0
11534,46.0,4.0,240.0,13.0,0.0
11535,82.0,1.0,60.0,10.0,0.0
11536,70.0,1.0,60.0,11.0,0.0
11537,70.0,3.0,120.0,10.0,0.0
11538,86.0,0.0,120.0,0.0,0.0
11539,77.0,3.0,120.0,0.0,0.0
11540,58.0,4.0,120.0,11.0,0.0
11541,65.0,0.0,120.0,1.0,0.0
11542,74.0,1.0,120.0,1.0,0.0
11543,62.0,6.0,120.0,4.0,0.0
11544,53.0,0.0,120.0,3.0,0.0
11545,62.0,109.0,120.0,3.0,0.0
11546,70.0,3.0,240.0,10.0,0.0
11547,75.0,3.0,120.0,0.0,0.0
11548,84.0,0.0,120.0,0.0,0.0
11549,58.0,4.0,240.0,11.0,0.0
11550,72.0,0.0,120.0,1.0,0.0
11551,63.0,1.0,120.0,1.0,0.0
11552,60.0,6.0,120.0,4.0,0.0
11553,58.0,5.0,240.0,12.0,0.0
11554,60.0,0.0,120.0,3.0,0.0
11555,51.0,94.0,120.0,3.0,0.0
11556,46.0,4.0,240.0,13.0,0.0
11557,82.0,0.0,120.0,0.0,0.0
11558,74.0,3.0,120.0,0.0,0.0
11559,62.0,1.0,120.0,1.0,0.0
11560,70.0,0.0,120.0,1.0,0.0
11561,58.0,6.0,120.0,4.0,0.0
11562,50.0,95.0,120.0,3.0,0.0
11563,58.0,0.0,120.0,3.0,0.0
11564,34.0,60.0,480.0,14.0,0.0
11565,70.0,3.0,240.0,10.0,0.0
11566,75.0,3.0,120.0,0.0,0.0
11567,84.0,0.0,120.0,0.0,0.0
11568,58.0,19.0,240.0,11.0,0.0
11569,72.0,1.0,120.0,1.0,0.0
11570,63.0,0.0,120.0,1.0,0.0
11571,60.0,6.0,120.0,4.0,0.0
11572,58.0,5.0,180.0,12.0,0.0
11573,60.0,0.0,120.0,3.0,0.0
11574,51.0,71.0,120.0,3.0,0.0
11575,46.0,19.0,180.0,13.0,0.0
11576,86.0,3.0,90.0,0.0,0.0
11577,77.0,0.0,90.0,0.0,0.0
11578,74.0,1.0,90.0,1.0,0.0
11579,65.0,0.0,90.0,1.0,0.0
11580,62.0,6.0,90.0,4.0,0.0
11581,62.0,4.0,90.0,3.0,0.0
11582,53.0,0.0,90.0,3.0,0.0
11583,57.0,5.0,60.0,12.0,0.0
11584,45.0,55.0,60.0,13.0,0.0
11585,70.0,3.0,180.0,10.0,0.0
11586,86.0,0.0,240.0,0.0,0.0
11587,77.0,2.0,240.0,0.0,0.0
11588,58.0,49.0,180.0,11.0,0.0
11589,65.0,1.0,240.0,1.0,0.0
11590,74.0,0.0,240.0,1.0,0.0
11591,62.0,6.0,240.0,4.0,0.0
11592,58.0,5.0,60.0,12.0,0.0
11593,53.0,0.0,240.0,3.0,0.0
11594,62.0,49.0,240.0,3.0,0.0
11595,46.0,40.0,60.0,13.0,0.0
11596,65.0,5.0,60.0,12.0,0.0
11597,53.0,3.0,60.0,13.0,0.0
11598,58.0,5.0,120.0,12.0,0.0
11599,46.0,3.0,120.0,13.0,0.0
11600,34.0,1.0,480.0,14.0,0.0
11601,69.0,1.0,60.0,10.0,0.0
11602,57.0,1.0,60.0,11.0,0.0
11603,70.0,3.0,60.0,10.0,0.0
11604,89.0,2.0,120.0,0.0,0.0
11605,80.0,0.0,120.0,0.0,0.0
11606,58.0,42.0,60.0,11.0,0.0
11607,77.0,1.0,120.0,1.0,0.0
11608,68.0,0.0,120.0,1.0,0.0
11609,65.0,6.0,120.0,4.0,0.0
11610,58.0,5.0,240.0,12.0,0.0
11611,65.0,0.0,120.0,3.0,0.0
11612,56.0,109.0,120.0,3.0,0.0
11613,46.0,4.0,240.0,13.0,0.0
11614,82.0,1.0,60.0,10.0,0.0
11615,70.0,1.0,60.0,11.0,0.0
11616,70.0,3.0,120.0,10.0,0.0
11617,79.0,3.0,120.0,0.0,0.0
11618,87.0,0.0,120.0,0.0,0.0
11619,58.0,4.0,120.0,11.0,0.0
11620,75.0,1.0,120.0,1.0,0.0
11621,67.0,0.0,120.0,1.0,0.0
11622,63.0,6.0,120.0,4.0,0.0
11623,55.0,109.0,120.0,3.0,0.0
11624,63.0,0.0,120.0,3.0,0.0
11625,70.0,3.0,240.0,10.0,0.0
11626,75.0,3.0,120.0,0.0,0.0
11627,84.0,0.0,120.0,0.0,0.0
11628,58.0,4.0,240.0,11.0,0.0
11629,72.0,1.0,120.0,1.0,0.0
11630,63.0,0.0,120.0,1.0,0.0
11631,60.0,6.0,120.0,4.0,0.0
11632,58.0,5.0,240.0,12.0,0.0
11633,60.0,0.0,120.0,3.0,0.0
11634,51.0,94.0,120.0,3.0,0.0
11635,46.0,4.0,240.0,13.0,0.0
11636,74.0,3.0,120.0,0.0,0.0
11637,82.0,0.0,120.0,0.0,0.0
11638,62.0,0.0,120.0,1.0,0.0
11639,70.0,1.0,120.0,1.0,0.0
11640,58.0,6.0,120.0,4.0,0.0
11641,50.0,0.0,120.0,3.0,0.0
11642,58.0,95.0,120.0,3.0,0.0
11643,34.0,67.0,240.0,14.0,0.0
11644,70.0,1.0,240.0,10.0,0.0
11645,75.0,0.0,120.0,0.0,0.0
11646,84.0,3.0,120.0,0.0,0.0
11647,58.0,1.0,240.0,11.0,0.0
11648,72.0,0.0,120.0,1.0,0.0
11649,63.0,1.0,120.0,1.0,0.0
11650,60.0,6.0,120.0,4.0,0.0
11651,58.0,5.0,180.0,12.0,0.0
11652,60.0,4.0,120.0,3.0,0.0
11653,51.0,0.0,120.0,3.0,0.0
11654,46.0,33.0,180.0,13.0,0.0
11655,86.0,2.0,120.0,0.0,0.0
11656,77.0,0.0,120.0,0.0,0.0
11657,65.0,0.0,120.0,1.0,0.0
11658,74.0,7.0,120.0,1.0,0.0
11659,62.0,2.0,120.0,4.0,0.0
11660,62.0,9.0,120.0,3.0,0.0
11661,53.0,0.0,120.0,3.0,0.0
11662,34.0,52.0,120.0,14.0,0.0
11663,57.0,5.0,60.0,12.0,0.0
11664,45.0,3.0,60.0,13.0,0.0
11665,65.0,1.0,120.0,10.0,0.0
11666,77.0,2.0,120.0,0.0,0.0
11667,86.0,0.0,120.0,0.0,0.0
11668,62.0,1.0,120.0,11.0,0.0
11669,77.0,0.0,120.0,1.0,0.0
11670,74.0,7.0,120.0,1.0,0.0
11671,58.0,5.0,60.0,12.0,0.0
11672,53.0,0.0,120.0,3.0,0.0
11673,50.0,56.0,120.0,3.0,0.0
11674,46.0,40.0,60.0,13.0,0.0
11675,62.0,5.0,60.0,12.0,0.0
11676,50.0,3.0,60.0,13.0,0.0
11677,70.0,1.0,120.0,10.0,0.0
11678,79.0,2.0,120.0,0.0,0.0
11679,82.0,0.0,120.0,0.0,0.0
11680,67.0,1.0,120.0,11.0,0.0
11681,79.0,3.0,120.0,1.0,0.0
11682,82.0,0.0,120.0,1.0,0.0
11683,58.0,0.0,360.0,4.0,0.0
11684,46.0,2.0,360.0,4.0,0.0
11685,58.0,53.0,60.0,12.0,0.0
11686,58.0,0.0,120.0,3.0,0.0
11687,46.0,3.0,240.0,13.0,0.0
11688,39.0,0.0,240.0,13.0,0.0
11689,27.0,67.0,240.0,14.0,0.0
11690,57.0,4.0,60.0,12.0,0.0
11691,67.0,1.0,120.0,10.0,0.0
11692,75.0,2.0,120.0,0.0,0.0
11693,79.0,0.0,120.0,0.0,0.0
11694,63.0,1.0,120.0,11.0,0.0
11695,75.0,3.0,120.0,1.0,0.0
11696,79.0,0.0,120.0,1.0,0.0
11697,58.0,38.0,60.0,12.0,0.0
11698,55.0,56.0,15.0,3.0,0.0
11699,51.0,0.0,120.0,3.0,0.0
11700,65.0,4.0,60.0,12.0,0.0
11701,65.0,1.0,120.0,10.0,0.0
11702,74.0,2.0,120.0,0.0,0.0
11703,77.0,0.0,120.0,0.0,0.0
11704,62.0,1.0,120.0,11.0,0.0
11705,74.0,7.0,120.0,1.0,0.0
11706,77.0,0.0,120.0,1.0,0.0
11707,58.0,5.0,60.0,12.0,0.0
11708,53.0,9.0,120.0,3.0,0.0
11709,50.0,0.0,120.0,3.0,0.0
11710,46.0,33.0,60.0,13.0,0.0
11711,34.0,52.0,120.0,14.0,0.0
11712,57.0,5.0,60.0,12.0,0.0
11713,45.0,3.0,60.0,13.0,0.0
11714,70.0,1.0,120.0,10.0,0.0
11715,74.0,2.0,120.0,0.0,0.0
11716,62.0,8.0,120.0,11.0,0.0
11717,74.0,3.0,240.0,1.0,0.0
11718,58.0,5.0,60.0,12.0,0.0
11719,58.0,0.0,120.0,3.0,0.0
11720,50.0,56.0,120.0,3.0,0.0
11721,46.0,40.0,60.0,13.0,0.0
11722,62.0,5.0,60.0,12.0,0.0
11723,50.0,3.0,60.0,13.0,0.0
11724,74.0,1.0,120.0,10.0,0.0
11725,82.0,0.0,15.0,0.0,0.0
11726,86.0,2.0,120.0,0.0,0.0
11727,70.0,1.0,120.0,11.0,0.0
11728,50.0,0.0,360.0,4.0,0.0
11729,62.0,2.0,360.0,4.0,0.0
11730,58.0,53.0,60.0,12.0,0.0
11731,58.0,56.0,120.0,3.0,0.0
11732,62.0,0.0,120.0,3.0,0.0
11733,43.0,3.0,240.0,13.0,0.0
11734,31.0,1.0,240.0,14.0,0.0
11735,57.0,4.0,60.0,12.0,0.0
11736,70.0,3.0,120.0,10.0,0.0
11737,82.0,0.0,15.0,0.0,0.0
11738,79.0,0.0,120.0,0.0,0.0
11739,67.0,3.0,120.0,11.0,0.0
11740,70.0,0.0,15.0,1.0,0.0
11741,67.0,0.0,120.0,1.0,0.0
11742,58.0,38.0,60.0,12.0,0.0
11743,55.0,0.0,120.0,3.0,0.0
11744,58.0,51.0,120.0,3.0,0.0
11745,62.0,2.0,60.0,12.0,0.0
11746,69.0,3.0,120.0,10.0,0.0
11747,81.0,0.0,120.0,0.0,0.0
11748,77.0,3.0,120.0,0.0,0.0
11749,65.0,3.0,120.0,11.0,0.0
11750,69.0,7.0,120.0,1.0,0.0
11751,65.0,0.0,120.0,1.0,0.0
11752,62.0,20.0,60.0,12.0,0.0
11753,53.0,0.0,120.0,3.0,0.0
11754,57.0,4.0,120.0,3.0,0.0
11755,50.0,33.0,60.0,13.0,0.0
11756,38.0,52.0,120.0,14.0,0.0
11757,61.0,5.0,60.0,12.0,0.0
11758,49.0,3.0,60.0,13.0,0.0
11759,69.0,1.0,120.0,10.0,0.0
11760,77.0,0.0,120.0,0.0,0.0
11761,81.0,2.0,120.0,0.0,0.0
11762,65.0,1.0,120.0,11.0,0.0
11763,69.0,63.0,120.0,1.0,0.0
11764,65.0,0.0,120.0,1.0,0.0
11765,62.0,5.0,60.0,12.0,0.0
11766,50.0,40.0,60.0,13.0,0.0
11767,65.0,5.0,60.0,12.0,0.0
11768,53.0,3.0,60.0,13.0,0.0
11769,74.0,1.0,120.0,10.0,0.0
11770,82.0,0.0,120.0,0.0,0.0
11771,86.0,2.0,120.0,0.0,0.0
11772,70.0,1.0,120.0,11.0,0.0
11773,74.0,0.0,120.0,1.0,0.0
11774,62.0,6.0,240.0,4.0,0.0
11775,58.0,0.0,240.0,4.0,0.0
11776,62.0,5.0,60.0,12.0,0.0
11777,43.0,56.0,240.0,3.0,0.0
11778,50.0,48.0,60.0,13.0,0.0
11779,31.0,5.0,240.0,14.0,0.0
11780,61.0,5.0,60.0,12.0,0.0
11781,49.0,55.0,60.0,13.0,0.0
11782,70.0,1.0,120.0,10.0,0.0
11783,79.0,2.0,120.0,0.0,0.0
11784,82.0,0.0,120.0,0.0,0.0
11785,67.0,1.0,120.0,11.0,0.0
11786,70.0,3.0,15.0,1.0,0.0
11787,67.0,0.0,120.0,1.0,0.0
11788,62.0,5.0,60.0,12.0,0.0
11789,50.0,33.0,60.0,13.0,0.0
11790,67.0,5.0,60.0,12.0,0.0
11791,53.0,3.0,60.0,13.0,0.0
11792,69.0,1.0,120.0,10.0,0.0
11793,77.0,2.0,120.0,0.0,0.0
11794,81.0,0.0,120.0,0.0,0.0
11795,65.0,1.0,120.0,11.0,0.0
11796,69.0,16.0,120.0,1.0,0.0
11797,65.0,0.0,120.0,1.0,0.0
11798,57.0,0.0,120.0,4.0,0.0
11799,53.0,2.0,120.0,4.0,0.0
11800,62.0,5.0,60.0,12.0,0.0
11801,50.0,1.0,120.0,3.0,0.0
11802,50.0,33.0,60.0,13.0,0.0
11803,38.0,52.0,120.0,14.0,0.0
11804,61.0,4.0,60.0,12.0,0.0
11805,49.0,3.0,60.0,13.0,0.0
11806,74.0,1.0,120.0,10.0,0.0
11807,77.0,0.0,120.0,0.0,0.0
11808,65.0,1.0,120.0,11.0,0.0
11809,65.0,0.0,120.0,1.0,0.0
11810,62.0,5.0,60.0,12.0,0.0
11811,50.0,40.0,60.0,13.0,0.0
11812,65.0,5.0,60.0,12.0,0.0
11813,53.0,3.0,60.0,13.0,0.0
11814,77.0,1.0,120.0,10.0,0.0
11815,86.0,2.0,15.0,0.0,0.0
11816,89.0,0.0,120.0,0.0,0.0
11817,74.0,1.0,120.0,11.0,0.0
11818,74.0,63.0,15.0,1.0,0.0
11819,77.0,0.0,120.0,1.0,0.0
11820,58.0,6.0,240.0,4.0,0.0
11821,62.0,0.0,240.0,4.0,0.0
11822,65.0,5.0,60.0,12.0,0.0
11823,46.0,56.0,240.0,3.0,0.0
11824,50.0,48.0,60.0,13.0,0.0
11825,34.0,5.0,240.0,14.0,0.0
11826,64.0,5.0,60.0,12.0,0.0
11827,49.0,55.0,60.0,13.0,0.0
11828,74.0,1.0,120.0,10.0,0.0
11829,82.0,2.0,120.0,0.0,0.0
11830,86.0,0.0,120.0,0.0,0.0
11831,70.0,1.0,120.0,11.0,0.0
11832,70.0,3.0,120.0,1.0,0.0
11833,74.0,0.0,120.0,1.0,0.0
11834,65.0,5.0,60.0,12.0,0.0
11835,50.0,33.0,60.0,13.0,0.0
11836,70.0,5.0,60.0,12.0,0.0
11837,58.0,3.0,60.0,13.0,0.0
11838,72.0,1.0,120.0,10.0,0.0
11839,84.0,0.0,120.0,0.0,0.0
11840,81.0,2.0,120.0,0.0,0.0
11841,69.0,1.0,120.0,11.0,0.0
11842,72.0,0.0,120.0,1.0,0.0
11843,69.0,16.0,120.0,1.0,0.0
11844,53.0,0.0,120.0,4.0,0.0
11845,57.0,2.0,120.0,4.0,0.0
11846,65.0,5.0,60.0,12.0,0.0
11847,53.0,1.0,120.0,3.0,0.0
11848,53.0,33.0,60.0,13.0,0.0
11849,41.0,52.0,120.0,14.0,0.0
11850,64.0,4.0,60.0,12.0,0.0
11851,52.0,3.0,60.0,13.0,0.0
11852,77.0,3.0,120.0,10.0,0.0
11853,69.0,64.0,120.0,11.0,0.0
11854,65.0,5.0,60.0,12.0,0.0
11855,53.0,40.0,60.0,13.0,0.0
11856,69.0,5.0,60.0,12.0,0.0
11857,57.0,3.0,60.0,13.0,0.0
11858,81.0,18.0,360.0,10.0,0.0
11859,77.0,2.0,480.0,0.0,0.0
11860,81.0,0.0,480.0,0.0,0.0
11861,77.0,4.0,120.0,11.0,0.0
11862,65.0,3.0,480.0,1.0,0.0
11863,69.0,0.0,480.0,1.0,0.0
11864,53.0,0.0,480.0,4.0,0.0
11865,62.0,62.0,480.0,4.0,0.0
11866,62.0,56.0,60.0,12.0,0.0
11867,65.0,0.0,480.0,2.0,0.0
11868,62.0,4.0,480.0,2.0,0.0
11869,50.0,4.0,480.0,3.0,0.0
11870,53.0,0.0,480.0,3.0,0.0
11871,41.0,3.0,240.0,13.0,0.0
11872,29.0,52.0,240.0,14.0,0.0
11873,61.0,60.0,60.0,12.0,0.0
11874,74.0,4.0,120.0,11.0,0.0
11875,62.0,41.0,60.0,12.0,0.0
11876,65.0,20.0,60.0,12.0,0.0
11877,77.0,4.0,120.0,11.0,0.0
11878,62.0,38.0,60.0,12.0,0.0
11879,45.0,3.0,480.0,13.0,0.0
11880,33.0,60.0,480.0,14.0,0.0
11881,61.0,60.0,60.0,12.0,0.0
11882,77.0,5.0,120.0,10.0,0.0
11883,74.0,1.0,120.0,11.0,0.0
11884,62.0,39.0,60.0,12.0,0.0
11885,65.0,0.0,60.0,12.0,0.0
11886,81.0,7.0,120.0,10.0,0.0
11887,79.0,0.0,240.0,0.0,0.0
11888,76.0,2.0,240.0,0.0,0.0
11889,73.0,1.0,240.0,11.0,0.0
11890,67.0,0.0,240.0,11.0,0.0
11891,67.0,1.0,240.0,1.0,0.0
11892,64.0,0.0,240.0,1.0,0.0
11893,61.0,2.0,240.0,4.0,0.0
11894,52.0,0.0,240.0,4.0,0.0
11895,64.0,53.0,60.0,12.0,0.0
11896,69.0,0.0,240.0,2.0,0.0
11897,64.0,0.0,240.0,2.0,0.0
11898,52.0,1.0,240.0,3.0,0.0
11899,57.0,0.0,240.0,3.0,0.0
11900,63.0,60.0,60.0,12.0,0.0
11901,76.0,1.0,120.0,10.0,0.0
11902,64.0,38.0,60.0,12.0,0.0
11903,69.0,4.0,60.0,12.0,0.0
11904,77.0,1.0,60.0,10.0,0.0
11905,77.0,2.0,60.0,0.0,0.0
11906,74.0,0.0,60.0,0.0,0.0
11907,65.0,1.0,60.0,11.0,0.0
11908,74.0,0.0,60.0,11.0,0.0
11909,62.0,0.0,60.0,1.0,0.0
11910,65.0,3.0,60.0,1.0,0.0
11911,62.0,0.0,120.0,4.0,0.0
11912,53.0,2.0,120.0,4.0,0.0
11913,69.0,0.0,60.0,2.0,0.0
11914,65.0,0.0,60.0,12.0,0.0
11915,65.0,4.0,60.0,2.0,0.0
11916,50.0,0.0,60.0,3.0,0.0
11917,53.0,54.0,60.0,3.0,0.0
11918,50.0,3.0,120.0,13.0,0.0
11919,38.0,52.0,120.0,14.0,0.0
11920,64.0,5.0,60.0,12.0,0.0
11921,81.0,3.0,120.0,10.0,0.0
11922,77.0,64.0,120.0,11.0,0.0
11923,65.0,45.0,60.0,12.0,0.0
11924,69.0,8.0,60.0,12.0,0.0
11925,84.0,18.0,360.0,10.0,0.0
11926,84.0,2.0,480.0,0.0,0.0
11927,81.0,0.0,480.0,0.0,0.0
11928,81.0,4.0,120.0,11.0,0.0
11929,69.0,0.0,480.0,1.0,0.0
11930,72.0,3.0,480.0,1.0,0.0
11931,65.0,0.0,480.0,4.0,0.0
11932,57.0,62.0,480.0,4.0,0.0
11933,65.0,0.0,480.0,2.0,0.0
11934,65.0,56.0,60.0,12.0,0.0
11935,69.0,0.0,480.0,2.0,0.0
11936,57.0,4.0,480.0,3.0,0.0
11937,53.0,0.0,480.0,3.0,0.0
11938,45.0,3.0,240.0,13.0,0.0
11939,33.0,52.0,240.0,14.0,0.0
11940,64.0,60.0,60.0,12.0,0.0
11941,77.0,4.0,120.0,11.0,0.0
11942,65.0,41.0,60.0,12.0,0.0
11943,69.0,20.0,60.0,12.0,0.0
11944,81.0,4.0,120.0,11.0,0.0
11945,65.0,38.0,60.0,12.0,0.0
11946,48.0,3.0,480.0,13.0,0.0
11947,36.0,60.0,480.0,14.0,0.0
11948,64.0,60.0,60.0,12.0,0.0
11949,81.0,5.0,120.0,10.0,0.0
11950,77.0,1.0,120.0,11.0,0.0
11951,65.0,39.0,60.0,12.0,0.0
11952,69.0,4.0,60.0,12.0,0.0
11953,84.0,7.0,120.0,10.0,0.0
11954,82.0,0.0,240.0,0.0,0.0
11955,79.0,2.0,240.0,0.0,0.0
11956,76.0,1.0,240.0,11.0,0.0
11957,70.0,0.0,240.0,11.0,0.0
11958,70.0,1.0,240.0,1.0,0.0
11959,67.0,0.0,240.0,1.0,0.0
11960,58.0,2.0,240.0,4.0,0.0
11961,60.0,0.0,240.0,4.0,0.0
11962,67.0,53.0,60.0,12.0,0.0
11963,67.0,0.0,240.0,2.0,0.0
11964,72.0,4.0,240.0,2.0,0.0
11965,60.0,0.0,240.0,3.0,0.0
11966,55.0,1.0,240.0,3.0,0.0
11967,66.0,60.0,60.0,12.0,0.0
11968,79.0,1.0,120.0,10.0,0.0
11969,67.0,38.0,60.0,12.0,0.0
11970,72.0,0.0,60.0,12.0,0.0
11971,81.0,1.0,60.0,10.0,0.0
11972,77.0,2.0,60.0,0.0,0.0
11973,81.0,0.0,60.0,0.0,0.0
11974,69.0,0.0,60.0,11.0,0.0
11975,77.0,1.0,60.0,11.0,0.0
11976,69.0,1.0,60.0,1.0,0.0
11977,65.0,0.0,60.0,1.0,0.0
11978,53.0,0.0,60.0,4.0,0.0
11979,60.0,2.0,60.0,4.0,0.0
11980,69.0,0.0,60.0,2.0,0.0
11981,72.0,0.0,60.0,12.0,0.0
11982,72.0,4.0,60.0,2.0,0.0
11983,60.0,0.0,60.0,3.0,0.0
11984,57.0,1.0,60.0,3.0,0.0
11985,41.0,3.0,60.0,13.0,0.0
11986,29.0,71.0,60.0,14.0,0.0
11987,77.0,2.0,30.0,10.0,0.0
11988,77.0,3.0,210.0,0.0,0.0
11989,89.0,0.0,210.0,0.0,0.0
11990,77.0,4.0,30.0,11.0,0.0
11991,77.0,0.0,210.0,1.0,0.0
11992,65.0,2.0,210.0,1.0,0.0
11993,53.0,0.0,240.0,4.0,0.0
11994,65.0,1.0,240.0,4.0,0.0
11995,77.0,1.0,210.0,2.0,0.0
11996,65.0,5.0,30.0,12.0,0.0
11997,65.0,0.0,210.0,2.0,0.0
11998,53.0,1.0,210.0,3.0,0.0
11999,53.0,29.0,30.0,13.0,0.0
12000,41.0,26.0,240.0,14.0,0.0
12001,77.0,2.0,30.0,10.0,0.0
12002,77.0,4.0,30.0,11.0,0.0
12003,65.0,5.0,30.0,12.0,0.0
12004,53.0,29.0,30.0,13.0,0.0
12005,77.0,2.0,30.0,10.0,0.0
12006,77.0,4.0,30.0,11.0,0.0
12007,65.0,5.0,30.0,12.0,0.0
12008,53.0,29.0,30.0,13.0,0.0
12009,77.0,2.0,30.0,10.0,0.0
12010,77.0,4.0,30.0,11.0,0.0
12011,65.0,5.0,30.0,12.0,0.0
12012,53.0,29.0,30.0,13.0,0.0
12013,77.0,2.0,30.0,10.0,0.0
12014,77.0,4.0,30.0,11.0,0.0
12015,65.0,5.0,30.0,12.0,0.0
12016,53.0,24.0,30.0,13.0,0.0
12017,77.0,1.0,30.0,10.0,0.0
12018,77.0,2.0,30.0,11.0,0.0
12019,65.0,5.0,30.0,12.0,0.0
12020,53.0,3.0,30.0,13.0,0.0
12021,78.0,2.0,30.0,10.0,0.0
12022,90.0,0.0,120.0,0.0,0.0
12023,78.0,3.0,120.0,0.0,0.0
12024,78.0,4.0,30.0,11.0,0.0
12025,66.0,1.0,120.0,1.0,0.0
12026,78.0,0.0,120.0,1.0,0.0
12027,54.0,2.0,120.0,4.0,0.0
12028,66.0,0.0,120.0,4.0,0.0
12029,66.0,5.0,30.0,12.0,0.0
12030,78.0,0.0,120.0,2.0,0.0
12031,66.0,4.0,120.0,2.0,0.0
12032,54.0,4.0,120.0,3.0,0.0
12033,54.0,29.0,30.0,13.0,0.0
12034,42.0,11.0,120.0,14.0,0.0
12035,78.0,2.0,30.0,10.0,0.0
12036,78.0,4.0,30.0,11.0,0.0
12037,66.0,5.0,30.0,12.0,0.0
12038,54.0,29.0,30.0,13.0,0.0
12039,78.0,2.0,30.0,10.0,0.0
12040,78.0,4.0,30.0,11.0,0.0
12041,66.0,5.0,30.0,12.0,0.0
12042,54.0,4.0,30.0,13.0,0.0
12043,77.0,2.0,30.0,10.0,0.0
12044,77.0,3.0,120.0,0.0,0.0
12045,89.0,0.0,120.0,0.0,0.0
12046,77.0,4.0,30.0,11.0,0.0
12047,65.0,1.0,120.0,1.0,0.0
12048,77.0,0.0,120.0,1.0,0.0
12049,65.0,2.0,120.0,4.0,0.0
12050,53.0,0.0,120.0,4.0,0.0
12051,65.0,5.0,30.0,12.0,0.0
12052,65.0,4.0,120.0,2.0,0.0
12053,77.0,0.0,120.0,2.0,0.0
12054,53.0,4.0,120.0,3.0,0.0
12055,53.0,29.0,30.0,13.0,0.0
12056,41.0,11.0,120.0,14.0,0.0
12057,77.0,2.0,30.0,10.0,0.0
12058,77.0,4.0,30.0,11.0,0.0
12059,65.0,5.0,30.0,12.0,0.0
12060,53.0,29.0,30.0,13.0,0.0
12061,77.0,2.0,30.0,10.0,0.0
12062,77.0,4.0,30.0,11.0,0.0
12063,65.0,5.0,30.0,12.0,0.0
12064,53.0,4.0,30.0,13.0,0.0
12065,75.0,2.0,30.0,10.0,0.0
12066,75.0,0.0,120.0,0.0,0.0
12067,87.0,3.0,120.0,0.0,0.0
12068,75.0,4.0,30.0,11.0,0.0
12069,75.0,0.0,120.0,1.0,0.0
12070,63.0,3.0,120.0,1.0,0.0
12071,75.0,0.0,120.0,2.0,0.0
12072,63.0,4.0,120.0,2.0,0.0
12073,63.0,5.0,30.0,12.0,0.0
12074,51.0,4.0,120.0,3.0,0.0
12075,51.0,29.0,30.0,13.0,0.0
12076,39.0,11.0,120.0,14.0,0.0
12077,75.0,2.0,30.0,10.0,0.0
12078,75.0,4.0,30.0,11.0,0.0
12079,63.0,5.0,30.0,12.0,0.0
12080,51.0,29.0,30.0,13.0,0.0
12081,75.0,2.0,30.0,10.0,0.0
12082,75.0,4.0,30.0,11.0,0.0
12083,63.0,5.0,30.0,12.0,0.0
12084,51.0,4.0,30.0,13.0,0.0
12085,73.0,2.0,30.0,10.0,0.0
12086,73.0,0.0,120.0,0.0,0.0
12087,85.0,2.0,120.0,0.0,0.0
12088,73.0,4.0,30.0,11.0,0.0
12089,73.0,3.0,120.0,1.0,0.0
12090,61.0,0.0,120.0,1.0,0.0
12091,73.0,4.0,120.0,2.0,0.0
12092,61.0,0.0,120.0,2.0,0.0
12093,61.0,5.0,30.0,12.0,0.0
12094,49.0,1.0,120.0,3.0,0.0
12095,49.0,29.0,30.0,13.0,0.0
12096,37.0,26.0,120.0,14.0,0.0
12097,73.0,2.0,30.0,10.0,0.0
12098,73.0,4.0,30.0,11.0,0.0
12099,61.0,5.0,30.0,12.0,0.0
12100,49.0,29.0,30.0,13.0,0.0
12101,73.0,0.0,30.0,10.0,0.0
12102,73.0,1.0,30.0,11.0,0.0
12103,61.0,0.0,30.0,12.0,0.0
12104,49.0,3.0,30.0,13.0,0.0
12105,75.0,2.0,30.0,10.0,0.0
12106,87.0,3.0,120.0,0.0,0.0
12107,75.0,4.0,30.0,11.0,0.0
12108,75.0,3.0,120.0,1.0,0.0
12109,75.0,4.0,120.0,2.0,0.0
12110,63.0,5.0,30.0,12.0,0.0
12111,63.0,0.0,120.0,2.0,0.0
12112,51.0,4.0,120.0,3.0,0.0
12113,51.0,29.0,30.0,13.0,0.0
12114,39.0,11.0,120.0,14.0,0.0
12115,75.0,2.0,30.0,10.0,0.0
12116,75.0,4.0,30.0,11.0,0.0
12117,63.0,5.0,30.0,12.0,0.0
12118,51.0,29.0,30.0,13.0,0.0
12119,75.0,2.0,30.0,10.0,0.0
12120,75.0,4.0,30.0,11.0,0.0
12121,63.0,5.0,30.0,12.0,0.0
12122,51.0,4.0,30.0,13.0,0.0
12123,73.0,2.0,30.0,10.0,0.0
12124,85.0,3.0,120.0,0.0,0.0
12125,73.0,4.0,30.0,11.0,0.0
12126,73.0,3.0,120.0,1.0,0.0
12127,61.0,0.0,120.0,2.0,0.0
12128,61.0,5.0,30.0,12.0,0.0
12129,73.0,4.0,120.0,2.0,0.0
12130,49.0,4.0,120.0,3.0,0.0
12131,49.0,29.0,30.0,13.0,0.0
12132,37.0,11.0,120.0,14.0,0.0
12133,73.0,2.0,30.0,10.0,0.0
12134,73.0,4.0,30.0,11.0,0.0
12135,61.0,5.0,30.0,12.0,0.0
12136,49.0,29.0,30.0,13.0,0.0
12137,73.0,2.0,30.0,10.0,0.0
12138,73.0,4.0,30.0,11.0,0.0
12139,61.0,5.0,30.0,12.0,0.0
12140,49.0,4.0,30.0,13.0,0.0
12141,72.0,2.0,30.0,10.0,0.0
12142,84.0,3.0,120.0,0.0,0.0
12143,72.0,4.0,30.0,11.0,0.0
12144,72.0,3.0,120.0,1.0,0.0
12145,72.0,4.0,120.0,2.0,0.0
12146,60.0,0.0,120.0,2.0,0.0
12147,60.0,5.0,30.0,12.0,0.0
12148,48.0,4.0,120.0,3.0,0.0
12149,48.0,29.0,30.0,13.0,0.0
12150,36.0,11.0,120.0,14.0,0.0
12151,72.0,2.0,30.0,10.0,0.0
12152,72.0,4.0,30.0,11.0,0.0
12153,60.0,5.0,30.0,12.0,0.0
12154,48.0,29.0,30.0,13.0,0.0
12155,72.0,2.0,30.0,10.0,0.0
12156,72.0,4.0,30.0,11.0,0.0
12157,60.0,5.0,30.0,12.0,0.0
12158,48.0,4.0,30.0,13.0,0.0
12159,70.0,2.0,30.0,10.0,0.0
12160,82.0,2.0,120.0,0.0,0.0
12161,70.0,4.0,30.0,11.0,0.0
12162,70.0,3.0,120.0,1.0,0.0
12163,58.0,5.0,30.0,12.0,0.0
12164,70.0,0.0,120.0,2.0,0.0
12165,58.0,4.0,120.0,2.0,0.0
12166,46.0,1.0,120.0,3.0,0.0
12167,46.0,29.0,30.0,13.0,0.0
12168,34.0,26.0,120.0,14.0,0.0
12169,70.0,2.0,30.0,10.0,0.0
12170,70.0,4.0,30.0,11.0,0.0
12171,58.0,5.0,30.0,12.0,0.0
12172,46.0,29.0,30.0,13.0,0.0
12173,70.0,0.0,30.0,10.0,0.0
12174,70.0,1.0,30.0,11.0,0.0
12175,58.0,0.0,30.0,12.0,0.0
12176,46.0,3.0,30.0,13.0,0.0
12177,72.0,2.0,30.0,10.0,0.0
12178,84.0,3.0,120.0,0.0,0.0
12179,72.0,4.0,30.0,11.0,0.0
12180,72.0,3.0,120.0,1.0,0.0
12181,72.0,4.0,120.0,2.0,0.0
12182,60.0,0.0,120.0,2.0,0.0
12183,60.0,5.0,30.0,12.0,0.0
12184,48.0,4.0,120.0,3.0,0.0
12185,48.0,29.0,30.0,13.0,0.0
12186,36.0,11.0,120.0,14.0,0.0
12187,72.0,2.0,30.0,10.0,0.0
12188,72.0,4.0,30.0,11.0,0.0
12189,60.0,5.0,30.0,12.0,0.0
12190,48.0,29.0,30.0,13.0,0.0
12191,72.0,2.0,30.0,10.0,0.0
12192,72.0,4.0,30.0,11.0,0.0
12193,60.0,5.0,30.0,12.0,0.0
12194,48.0,4.0,30.0,13.0,0.0
12195,70.0,2.0,30.0,10.0,0.0
12196,82.0,2.0,120.0,0.0,0.0
12197,70.0,4.0,30.0,11.0,0.0
12198,70.0,3.0,120.0,1.0,0.0
12199,70.0,0.0,120.0,2.0,0.0
12200,58.0,1.0,120.0,2.0,0.0
12201,58.0,5.0,30.0,12.0,0.0
12202,58.0,3.0,120.0,5.0,0.0
12203,46.0,1.0,120.0,3.0,0.0
12204,46.0,29.0,30.0,13.0,0.0
12205,34.0,26.0,120.0,14.0,0.0
12206,70.0,2.0,30.0,10.0,0.0
12207,70.0,4.0,30.0,11.0,0.0
12208,58.0,5.0,30.0,12.0,0.0
12209,46.0,29.0,30.0,13.0,0.0
12210,70.0,0.0,30.0,10.0,0.0
12211,70.0,1.0,30.0,11.0,0.0
12212,58.0,0.0,30.0,12.0,0.0
12213,46.0,3.0,30.0,13.0,0.0
12214,68.0,2.0,30.0,10.0,0.0
12215,68.0,4.0,30.0,11.0,0.0
12216,56.0,5.0,30.0,12.0,0.0
12217,58.0,4.0,240.0,5.0,0.0
12218,44.0,29.0,30.0,13.0,0.0
12219,32.0,26.0,120.0,14.0,0.0
12220,68.0,2.0,30.0,10.0,0.0
12221,68.0,4.0,30.0,11.0,0.0
12222,56.0,5.0,30.0,12.0,0.0
12223,44.0,29.0,30.0,13.0,0.0
12224,68.0,2.0,30.0,10.0,0.0
12225,68.0,4.0,30.0,11.0,0.0
12226,56.0,5.0,30.0,12.0,0.0
12227,44.0,3.0,30.0,13.0,0.0
12228,66.0,2.0,30.0,10.0,0.0
12229,66.0,4.0,30.0,11.0,0.0
12230,54.0,5.0,30.0,12.0,0.0
12231,42.0,29.0,30.0,13.0,0.0
12232,30.0,26.0,120.0,14.0,0.0
12233,66.0,2.0,30.0,10.0,0.0
12234,66.0,4.0,30.0,11.0,0.0
12235,54.0,5.0,30.0,12.0,0.0
12236,42.0,29.0,30.0,13.0,0.0
12237,66.0,2.0,30.0,10.0,0.0
12238,66.0,4.0,30.0,11.0,0.0
12239,54.0,1.0,30.0,12.0,0.0
12240,42.0,3.0,30.0,13.0,0.0
12241,65.0,2.0,30.0,10.0,0.0
12242,65.0,4.0,30.0,11.0,0.0
12243,53.0,5.0,30.0,12.0,0.0
12244,58.0,4.0,120.0,5.0,0.0
12245,41.0,29.0,30.0,13.0,0.0
12246,29.0,60.0,120.0,14.0,0.0
12247,65.0,2.0,30.0,10.0,0.0
12248,65.0,4.0,30.0,11.0,0.0
12249,53.0,5.0,30.0,12.0,0.0
12250,41.0,14.0,30.0,13.0,0.0
12251,85.0,3.0,30.0,0.0,0.0
12252,73.0,3.0,30.0,1.0,0.0
12253,73.0,4.0,30.0,2.0,0.0
12254,61.0,0.0,30.0,2.0,0.0
12255,61.0,5.0,30.0,3.0,0.0
12256,65.0,2.0,30.0,10.0,0.0
12257,65.0,4.0,30.0,11.0,0.0
12258,53.0,1.0,30.0,12.0,0.0
12259,41.0,3.0,30.0,13.0,0.0
12260,64.0,1.0,60.0,10.0,0.0
12261,84.0,2.0,60.0,0.0,0.0
12262,64.0,1.0,60.0,11.0,0.0
12263,72.0,1.0,60.0,1.0,0.0
12264,60.0,0.0,60.0,4.0,0.0
12265,48.0,2.0,60.0,4.0,0.0
12266,72.0,0.0,60.0,2.0,0.0
12267,60.0,0.0,60.0,2.0,0.0
12268,52.0,1.0,60.0,12.0,0.0
12269,67.0,0.0,60.0,5.0,0.0
12270,58.0,3.0,60.0,5.0,0.0
12271,60.0,1.0,60.0,3.0,0.0
12272,40.0,3.0,60.0,13.0,0.0
12273,28.0,26.0,60.0,14.0,0.0
12274,82.0,3.0,30.0,0.0,0.0
12275,70.0,3.0,30.0,1.0,0.0
12276,70.0,4.0,30.0,2.0,0.0
12277,58.0,0.0,30.0,2.0,0.0
12278,58.0,40.0,30.0,3.0,0.0
12279,79.0,3.0,30.0,0.0,0.0
12280,67.0,3.0,30.0,1.0,0.0
12281,55.0,4.0,30.0,2.0,0.0
12282,67.0,0.0,30.0,2.0,0.0
12283,55.0,49.0,30.0,3.0,0.0
12284,61.0,1.0,30.0,10.0,0.0
12285,77.0,2.0,30.0,0.0,0.0
12286,61.0,1.0,30.0,11.0,0.0
12287,65.0,3.0,30.0,1.0,0.0
12288,61.0,0.0,30.0,12.0,0.0
12289,53.0,1.0,30.0,2.0,0.0
12290,65.0,0.0,30.0,2.0,0.0
12291,58.0,0.0,30.0,5.0,0.0
12292,55.0,3.0,30.0,5.0,0.0
12293,53.0,1.0,30.0,3.0,0.0
12294,49.0,3.0,30.0,13.0,0.0
12295,37.0,75.0,30.0,14.0,0.0
12296,60.0,1.0,60.0,10.0,0.0
12297,76.0,2.0,60.0,0.0,0.0
12298,60.0,1.0,60.0,11.0,0.0
12299,64.0,3.0,60.0,1.0,0.0
12300,52.0,1.0,60.0,2.0,0.0
12301,60.0,0.0,60.0,12.0,0.0
12302,64.0,0.0,60.0,2.0,0.0
12303,58.0,0.0,60.0,5.0,0.0
12304,55.0,3.0,60.0,5.0,0.0
12305,52.0,1.0,60.0,3.0,0.0
12306,48.0,3.0,60.0,13.0,0.0
12307,36.0,26.0,60.0,14.0,0.0
12308,79.0,3.0,30.0,0.0,0.0
12309,67.0,3.0,30.0,1.0,0.0
12310,67.0,4.0,30.0,2.0,0.0
12311,55.0,0.0,30.0,2.0,0.0
12312,55.0,40.0,30.0,3.0,0.0
12313,82.0,3.0,30.0,0.0,0.0
12314,70.0,3.0,30.0,1.0,0.0
12315,70.0,4.0,30.0,2.0,0.0
12316,58.0,0.0,30.0,2.0,0.0
12317,58.0,49.0,30.0,3.0,0.0
12318,53.0,1.0,30.0,10.0,0.0
12319,85.0,2.0,30.0,0.0,0.0
12320,53.0,1.0,30.0,11.0,0.0
12321,73.0,3.0,30.0,1.0,0.0
12322,53.0,1.0,30.0,12.0,0.0
12323,61.0,0.0,30.0,2.0,0.0
12324,73.0,0.0,30.0,2.0,0.0
12325,67.0,0.0,30.0,5.0,0.0
12326,58.0,3.0,30.0,5.0,0.0
12327,61.0,1.0,30.0,3.0,0.0
12328,41.0,3.0,30.0,13.0,0.0
12329,29.0,75.0,30.0,14.0,0.0
12330,52.0,1.0,60.0,10.0,0.0
12331,84.0,2.0,60.0,0.0,0.0
12332,52.0,1.0,60.0,11.0,0.0
12333,72.0,1.0,60.0,1.0,0.0
12334,48.0,2.0,60.0,4.0,0.0
12335,60.0,0.0,60.0,4.0,0.0
12336,72.0,0.0,60.0,2.0,0.0
12337,60.0,1.0,60.0,2.0,0.0
12338,52.0,0.0,60.0,12.0,0.0
12339,67.0,3.0,60.0,5.0,0.0
12340,58.0,0.0,60.0,5.0,0.0
12341,60.0,1.0,60.0,3.0,0.0
12342,40.0,3.0,60.0,13.0,0.0
12343,28.0,26.0,60.0,14.0,0.0
12344,82.0,3.0,30.0,0.0,0.0
12345,70.0,3.0,30.0,1.0,0.0
12346,70.0,0.0,30.0,2.0,0.0
12347,58.0,4.0,30.0,2.0,0.0
12348,58.0,40.0,30.0,3.0,0.0
12349,79.0,3.0,30.0,0.0,0.0
12350,67.0,3.0,30.0,1.0,0.0
12351,55.0,0.0,30.0,2.0,0.0
12352,67.0,4.0,30.0,2.0,0.0
12353,55.0,49.0,30.0,3.0,0.0
12354,61.0,1.0,30.0,10.0,0.0
12355,77.0,2.0,30.0,0.0,0.0
12356,61.0,1.0,30.0,11.0,0.0
12357,65.0,3.0,30.0,1.0,0.0
12358,53.0,0.0,30.0,2.0,0.0
12359,61.0,1.0,30.0,12.0,0.0
12360,65.0,0.0,30.0,2.0,0.0
12361,55.0,0.0,30.0,5.0,0.0
12362,58.0,3.0,30.0,5.0,0.0
12363,53.0,1.0,30.0,3.0,0.0
12364,49.0,3.0,30.0,13.0,0.0
12365,37.0,75.0,30.0,14.0,0.0
12366,60.0,1.0,60.0,10.0,0.0
12367,76.0,2.0,60.0,0.0,0.0
12368,60.0,1.0,60.0,11.0,0.0
12369,64.0,3.0,60.0,1.0,0.0
12370,60.0,0.0,60.0,12.0,0.0
12371,52.0,1.0,60.0,2.0,0.0
12372,64.0,0.0,60.0,2.0,0.0
12373,58.0,3.0,60.0,5.0,0.0
12374,55.0,0.0,60.0,5.0,0.0
12375,52.0,1.0,60.0,3.0,0.0
12376,48.0,3.0,60.0,13.0,0.0
12377,36.0,26.0,60.0,14.0,0.0
12378,79.0,3.0,30.0,0.0,0.0
12379,67.0,3.0,30.0,1.0,0.0
12380,55.0,0.0,30.0,2.0,0.0
12381,67.0,4.0,30.0,2.0,0.0
12382,55.0,40.0,30.0,3.0,0.0
12383,82.0,3.0,30.0,0.0,0.0
12384,70.0,3.0,30.0,1.0,0.0
12385,58.0,0.0,30.0,2.0,0.0
12386,70.0,4.0,30.0,2.0,0.0
12387,58.0,49.0,30.0,3.0,0.0
12388,79.0,1.0,30.0,10.0,0.0
12389,82.0,2.0,30.0,0.0,0.0
12390,67.0,1.0,30.0,11.0,0.0
12391,70.0,3.0,30.0,1.0,0.0
12392,58.0,1.0,30.0,2.0,0.0
12393,60.0,0.0,30.0,12.0,0.0
12394,70.0,0.0,30.0,2.0,0.0
12395,60.0,3.0,30.0,5.0,0.0
12396,39.0,1.0,30.0,3.0,0.0
12397,46.0,3.0,30.0,13.0,0.0
12398,34.0,75.0,30.0,14.0,0.0
12399,77.0,1.0,60.0,10.0,0.0
12400,84.0,2.0,60.0,0.0,0.0
12401,87.0,0.0,60.0,0.0,0.0
12402,65.0,1.0,60.0,11.0,0.0
12403,75.0,0.0,60.0,1.0,0.0
12404,72.0,1.0,60.0,1.0,0.0
12405,41.0,2.0,60.0,4.0,0.0
12406,53.0,0.0,60.0,4.0,0.0
12407,60.0,1.0,60.0,12.0,0.0
12408,63.0,0.0,60.0,2.0,0.0
12409,72.0,0.0,60.0,2.0,0.0
12410,63.0,0.0,60.0,12.0,0.0
12411,63.0,0.0,60.0,5.0,0.0
12412,60.0,3.0,60.0,5.0,0.0
12413,45.0,1.0,60.0,3.0,0.0
12414,45.0,3.0,60.0,13.0,0.0
12415,33.0,25.0,60.0,14.0,0.0
12416,75.0,3.0,30.0,10.0,0.0
12417,63.0,47.0,30.0,11.0,0.0
12418,72.0,3.0,30.0,10.0,0.0
12419,60.0,57.0,30.0,11.0,0.0
12420,70.0,1.0,30.0,10.0,0.0
12421,84.0,0.0,30.0,0.0,0.0
12422,75.0,2.0,30.0,0.0,0.0
12423,58.0,1.0,30.0,11.0,0.0
12424,63.0,0.0,30.0,1.0,0.0
12425,72.0,3.0,30.0,1.0,0.0
12426,63.0,0.0,30.0,12.0,0.0
12427,63.0,1.0,30.0,2.0,0.0
12428,60.0,0.0,30.0,2.0,0.0
12429,60.0,0.0,30.0,12.0,0.0
12430,60.0,0.0,30.0,5.0,0.0
12431,51.0,3.0,30.0,5.0,0.0
12432,55.0,1.0,30.0,3.0,0.0
12433,55.0,3.0,30.0,13.0,0.0
12434,43.0,75.0,30.0,14.0,0.0
12435,69.0,1.0,60.0,10.0,0.0
12436,75.0,2.0,60.0,0.0,0.0
12437,84.0,0.0,60.0,0.0,0.0
12438,57.0,1.0,60.0,11.0,0.0
12439,63.0,0.0,60.0,1.0,0.0
12440,72.0,3.0,60.0,1.0,0.0
12441,63.0,0.0,60.0,12.0,0.0
12442,63.0,0.0,60.0,2.0,0.0
12443,60.0,0.0,60.0,12.0,0.0
12444,60.0,1.0,60.0,2.0,0.0
12445,60.0,3.0,60.0,5.0,0.0
12446,51.0,0.0,60.0,5.0,0.0
12447,53.0,1.0,60.0,3.0,0.0
12448,53.0,3.0,60.0,13.0,0.0
12449,41.0,25.0,60.0,14.0,0.0
12450,72.0,3.0,30.0,10.0,0.0
12451,60.0,47.0,30.0,11.0,0.0
12452,75.0,3.0,30.0,10.0,0.0
12453,63.0,57.0,30.0,11.0,0.0
12454,79.0,1.0,30.0,10.0,0.0
12455,84.0,0.0,30.0,0.0,0.0
12456,87.0,2.0,30.0,0.0,0.0
12457,67.0,1.0,30.0,11.0,0.0
12458,75.0,3.0,30.0,1.0,0.0
12459,72.0,0.0,30.0,1.0,0.0
12460,72.0,1.0,30.0,2.0,0.0
12461,63.0,0.0,30.0,12.0,0.0
12462,60.0,0.0,30.0,12.0,0.0
12463,63.0,0.0,30.0,2.0,0.0
12464,60.0,3.0,30.0,5.0,0.0
12465,63.0,0.0,30.0,5.0,0.0
12466,46.0,1.0,30.0,3.0,0.0
12467,46.0,3.0,30.0,13.0,0.0
12468,34.0,75.0,30.0,14.0,0.0
12469,77.0,1.0,60.0,10.0,0.0
12470,84.0,0.0,60.0,0.0,0.0
12471,87.0,2.0,60.0,0.0,0.0
12472,65.0,1.0,60.0,11.0,0.0
12473,75.0,0.0,60.0,1.0,0.0
12474,72.0,1.0,60.0,1.0,0.0
12475,53.0,0.0,60.0,4.0,0.0
12476,41.0,2.0,60.0,4.0,0.0
12477,63.0,0.0,60.0,2.0,0.0
12478,63.0,0.0,60.0,12.0,0.0
12479,60.0,0.0,60.0,12.0,0.0
12480,72.0,1.0,60.0,2.0,0.0
12481,60.0,0.0,60.0,5.0,0.0
12482,63.0,3.0,60.0,5.0,0.0
12483,45.0,1.0,60.0,3.0,0.0
12484,45.0,3.0,60.0,13.0,0.0
12485,33.0,25.0,60.0,14.0,0.0
12486,75.0,3.0,30.0,10.0,0.0
12487,63.0,47.0,30.0,11.0,0.0
12488,72.0,3.0,30.0,10.0,0.0
12489,60.0,57.0,30.0,11.0,0.0
12490,70.0,1.0,30.0,10.0,0.0
12491,75.0,0.0,30.0,0.0,0.0
12492,84.0,2.0,30.0,0.0,0.0
12493,58.0,1.0,30.0,11.0,0.0
12494,63.0,0.0,30.0,1.0,0.0
12495,72.0,3.0,30.0,1.0,0.0
12496,63.0,0.0,30.0,12.0,0.0
12497,60.0,0.0,30.0,12.0,0.0
12498,60.0,1.0,30.0,2.0,0.0
12499,63.0,0.0,30.0,2.0,0.0
12500,60.0,0.0,30.0,5.0,0.0
12501,51.0,3.0,30.0,5.0,0.0
12502,55.0,1.0,30.0,3.0,0.0
12503,55.0,3.0,30.0,13.0,0.0
12504,43.0,75.0,30.0,14.0,0.0
12505,69.0,1.0,60.0,10.0,0.0
12506,75.0,2.0,60.0,0.0,0.0
12507,84.0,0.0,60.0,0.0,0.0
12508,57.0,1.0,60.0,11.0,0.0
12509,72.0,3.0,60.0,1.0,0.0
12510,63.0,0.0,60.0,1.0,0.0
12511,63.0,0.0,60.0,12.0,0.0
12512,60.0,1.0,60.0,12.0,0.0
12513,63.0,0.0,60.0,2.0,0.0
12514,60.0,0.0,60.0,2.0,0.0
12515,60.0,3.0,60.0,5.0,0.0
12516,51.0,0.0,60.0,5.0,0.0
12517,53.0,1.0,60.0,3.0,0.0
12518,53.0,3.0,60.0,13.0,0.0
12519,41.0,25.0,60.0,14.0,0.0
12520,72.0,3.0,30.0,10.0,0.0
12521,60.0,47.0,30.0,11.0,0.0
12522,75.0,3.0,30.0,10.0,0.0
12523,63.0,57.0,30.0,11.0,0.0
12524,81.0,1.0,30.0,10.0,0.0
12525,81.0,0.0,30.0,0.0,0.0
12526,84.0,2.0,30.0,0.0,0.0
12527,69.0,1.0,30.0,11.0,0.0
12528,69.0,0.0,30.0,1.0,0.0
12529,72.0,1.0,30.0,1.0,0.0
12530,53.0,2.0,30.0,4.0,0.0
12531,41.0,0.0,30.0,4.0,0.0
12532,60.0,0.0,30.0,2.0,0.0
12533,69.0,0.0,30.0,2.0,0.0
12534,60.0,1.0,30.0,12.0,0.0
12535,65.0,0.0,30.0,12.0,0.0
12536,60.0,0.0,30.0,5.0,0.0
12537,63.0,3.0,30.0,5.0,0.0
12538,39.0,0.0,30.0,3.0,0.0
12539,51.0,1.0,30.0,3.0,0.0
12540,39.0,3.0,30.0,13.0,0.0
12541,27.0,75.0,30.0,14.0,0.0
12542,82.0,1.0,60.0,10.0,0.0
12543,77.0,0.0,60.0,0.0,0.0
12544,82.0,2.0,60.0,0.0,0.0
12545,70.0,1.0,60.0,11.0,0.0
12546,65.0,0.0,60.0,1.0,0.0
12547,70.0,1.0,60.0,1.0,0.0
12548,46.0,2.0,60.0,4.0,0.0
12549,58.0,0.0,60.0,4.0,0.0
12550,65.0,0.0,60.0,12.0,0.0
12551,65.0,1.0,60.0,2.0,0.0
12552,58.0,0.0,60.0,12.0,0.0
12553,70.0,0.0,60.0,2.0,0.0
12554,58.0,3.0,60.0,5.0,0.0
12555,38.0,0.0,60.0,3.0,0.0
12556,50.0,1.0,60.0,3.0,0.0
12557,38.0,3.0,60.0,13.0,0.0
12558,26.0,77.0,60.0,14.0,0.0
12559,78.0,3.0,210.0,10.0,0.0
12560,74.0,0.0,240.0,0.0,0.0
12561,78.0,3.0,240.0,0.0,0.0
12562,74.0,3.0,210.0,11.0,0.0
12563,78.0,3.0,240.0,1.0,0.0
12564,74.0,0.0,240.0,1.0,0.0
12565,62.0,35.0,240.0,2.0,0.0
12566,66.0,0.0,30.0,12.0,0.0
12567,62.0,40.0,30.0,12.0,0.0
12568,66.0,0.0,240.0,2.0,0.0
12569,62.0,40.0,30.0,12.0,0.0
12570,66.0,0.0,30.0,12.0,0.0
12571,62.0,40.0,30.0,12.0,0.0
12572,66.0,0.0,30.0,12.0,0.0
12573,66.0,0.0,30.0,12.0,0.0
12574,62.0,40.0,30.0,12.0,0.0
12575,62.0,28.0,30.0,12.0,0.0
12576,66.0,0.0,30.0,12.0,0.0
12577,66.0,0.0,30.0,12.0,0.0
12578,62.0,0.0,30.0,12.0,0.0
12579,79.0,1.0,30.0,10.0,0.0
12580,79.0,3.0,120.0,0.0,0.0
12581,75.0,0.0,120.0,0.0,0.0
12582,75.0,4.0,30.0,11.0,0.0
12583,79.0,0.0,120.0,1.0,0.0
12584,75.0,3.0,120.0,1.0,0.0
12585,67.0,0.0,120.0,2.0,0.0
12586,63.0,4.0,120.0,2.0,0.0
12587,63.0,0.0,30.0,12.0,0.0
12588,67.0,35.0,30.0,12.0,0.0
12589,55.0,0.0,240.0,5.0,0.0
12590,43.0,19.0,240.0,5.0,0.0
12591,47.0,1.0,120.0,3.0,0.0
12592,35.0,0.0,120.0,3.0,0.0
12593,47.0,3.0,120.0,13.0,0.0
12594,35.0,12.0,120.0,14.0,0.0
12595,79.0,1.0,30.0,10.0,0.0
12596,75.0,4.0,30.0,11.0,0.0
12597,63.0,0.0,30.0,12.0,0.0
12598,67.0,35.0,30.0,12.0,0.0
12599,79.0,1.0,30.0,10.0,0.0
12600,75.0,4.0,30.0,11.0,0.0
12601,67.0,9.0,30.0,12.0,0.0
12602,63.0,0.0,30.0,12.0,0.0
12603,77.0,1.0,30.0,10.0,0.0
12604,74.0,3.0,120.0,0.0,0.0
12605,77.0,0.0,120.0,0.0,0.0
12606,74.0,4.0,30.0,11.0,0.0
12607,74.0,0.0,120.0,1.0,0.0
12608,77.0,3.0,120.0,1.0,0.0
12609,62.0,35.0,30.0,12.0,0.0
12610,65.0,1.0,120.0,2.0,0.0
12611,62.0,0.0,120.0,2.0,0.0
12612,65.0,0.0,30.0,12.0,0.0
12613,48.0,1.0,360.0,3.0,0.0
12614,36.0,0.0,360.0,3.0,0.0
12615,48.0,3.0,360.0,13.0,0.0
12616,36.0,27.0,360.0,14.0,0.0
12617,77.0,1.0,30.0,10.0,0.0
12618,74.0,4.0,30.0,11.0,0.0
12619,62.0,0.0,30.0,12.0,0.0
12620,65.0,35.0,30.0,12.0,0.0
12621,77.0,1.0,30.0,10.0,0.0
12622,74.0,4.0,30.0,11.0,0.0
12623,65.0,0.0,30.0,12.0,0.0
12624,62.0,9.0,30.0,12.0,0.0
12625,75.0,1.0,30.0,10.0,0.0
12626,72.0,0.0,120.0,0.0,0.0
12627,75.0,3.0,120.0,0.0,0.0
12628,72.0,4.0,30.0,11.0,0.0
12629,72.0,0.0,120.0,1.0,0.0
12630,75.0,3.0,120.0,1.0,0.0
12631,60.0,20.0,120.0,2.0,0.0
12632,63.0,0.0,120.0,2.0,0.0
12633,63.0,0.0,30.0,12.0,0.0
12634,60.0,35.0,30.0,12.0,0.0
12635,75.0,1.0,30.0,10.0,0.0
12636,72.0,4.0,30.0,11.0,0.0
12637,60.0,0.0,30.0,12.0,0.0
12638,63.0,35.0,30.0,12.0,0.0
12639,75.0,1.0,30.0,10.0,0.0
12640,72.0,4.0,30.0,11.0,0.0
12641,60.0,9.0,30.0,12.0,0.0
12642,63.0,0.0,30.0,12.0,0.0
12643,74.0,1.0,30.0,10.0,0.0
12644,71.0,0.0,120.0,0.0,0.0
12645,74.0,1.0,120.0,0.0,0.0
12646,71.0,4.0,30.0,11.0,0.0
12647,74.0,0.0,120.0,1.0,0.0
12648,71.0,3.0,120.0,1.0,0.0
12649,62.0,0.0,120.0,2.0,0.0
12650,62.0,0.0,30.0,12.0,0.0
12651,59.0,0.0,120.0,2.0,0.0
12652,59.0,35.0,30.0,12.0,0.0
12653,74.0,1.0,30.0,10.0,0.0
12654,71.0,4.0,30.0,11.0,0.0
12655,62.0,34.0,30.0,12.0,0.0
12656,59.0,0.0,30.0,12.0,0.0
12657,74.0,1.0,30.0,10.0,0.0
12658,71.0,1.0,30.0,11.0,0.0
12659,62.0,0.0,30.0,12.0,0.0
12660,59.0,4.0,30.0,12.0,0.0
12661,75.0,1.0,30.0,10.0,0.0
12662,72.0,3.0,120.0,0.0,0.0
12663,75.0,0.0,120.0,0.0,0.0
12664,72.0,4.0,30.0,11.0,0.0
12665,75.0,3.0,120.0,1.0,0.0
12666,72.0,0.0,120.0,1.0,0.0
12667,60.0,4.0,120.0,2.0,0.0
12668,63.0,0.0,120.0,2.0,0.0
12669,60.0,35.0,30.0,12.0,0.0
12670,63.0,0.0,30.0,12.0,0.0
12671,51.0,19.0,240.0,5.0,0.0
12672,63.0,0.0,240.0,5.0,0.0
12673,43.0,1.0,120.0,3.0,0.0
12674,43.0,3.0,120.0,13.0,0.0
12675,31.0,12.0,120.0,14.0,0.0
12676,75.0,1.0,30.0,10.0,0.0
12677,72.0,4.0,30.0,11.0,0.0
12678,60.0,35.0,30.0,12.0,0.0
12679,63.0,0.0,30.0,12.0,0.0
12680,75.0,1.0,30.0,10.0,0.0
12681,72.0,4.0,30.0,11.0,0.0
12682,63.0,0.0,30.0,12.0,0.0
12683,60.0,9.0,30.0,12.0,0.0
12684,74.0,1.0,30.0,10.0,0.0
12685,74.0,0.0,120.0,0.0,0.0
12686,70.0,3.0,120.0,0.0,0.0
12687,70.0,4.0,30.0,11.0,0.0
12688,74.0,3.0,120.0,1.0,0.0
12689,70.0,0.0,120.0,1.0,0.0
12690,58.0,0.0,120.0,2.0,0.0
12691,58.0,35.0,30.0,12.0,0.0
12692,62.0,0.0,30.0,12.0,0.0
12693,62.0,1.0,120.0,2.0,0.0
12694,44.0,1.0,360.0,3.0,0.0
12695,44.0,3.0,360.0,13.0,0.0
12696,32.0,62.0,360.0,14.0,0.0
12697,74.0,1.0,30.0,10.0,0.0
12698,70.0,4.0,30.0,11.0,0.0
12699,62.0,35.0,30.0,12.0,0.0
12700,58.0,0.0,30.0,12.0,0.0
12701,74.0,1.0,30.0,10.0,0.0
12702,70.0,4.0,30.0,11.0,0.0
12703,62.0,9.0,30.0,12.0,0.0
12704,58.0,0.0,30.0,12.0,0.0
12705,72.0,1.0,30.0,10.0,0.0
12706,68.0,3.0,120.0,0.0,0.0
12707,72.0,0.0,120.0,0.0,0.0
12708,68.0,4.0,30.0,11.0,0.0
12709,72.0,0.0,120.0,1.0,0.0
12710,68.0,3.0,120.0,1.0,0.0
12711,56.0,35.0,30.0,12.0,0.0
12712,56.0,20.0,120.0,2.0,0.0
12713,60.0,0.0,120.0,2.0,0.0
12714,60.0,0.0,30.0,12.0,0.0
12715,72.0,1.0,30.0,10.0,0.0
12716,68.0,4.0,30.0,11.0,0.0
12717,60.0,0.0,30.0,12.0,0.0
12718,56.0,35.0,30.0,12.0,0.0
12719,72.0,1.0,30.0,10.0,0.0
12720,68.0,4.0,30.0,11.0,0.0
12721,60.0,9.0,30.0,12.0,0.0
12722,56.0,0.0,30.0,12.0,0.0
12723,71.0,1.0,30.0,10.0,0.0
12724,67.0,0.0,120.0,0.0,0.0
12725,71.0,1.0,120.0,0.0,0.0
12726,67.0,4.0,30.0,11.0,0.0
12727,67.0,0.0,120.0,1.0,0.0
12728,71.0,3.0,120.0,1.0,0.0
12729,55.0,35.0,30.0,12.0,0.0
12730,59.0,0.0,30.0,12.0,0.0
12731,59.0,0.0,120.0,2.0,0.0
12732,55.0,4.0,120.0,2.0,0.0
12733,71.0,1.0,30.0,10.0,0.0
12734,67.0,4.0,30.0,11.0,0.0
12735,55.0,0.0,30.0,12.0,0.0
12736,59.0,34.0,30.0,12.0,0.0
12737,71.0,1.0,30.0,10.0,0.0
12738,67.0,1.0,30.0,11.0,0.0
12739,55.0,0.0,30.0,12.0,0.0
12740,59.0,0.0,30.0,12.0,0.0
12741,72.0,1.0,60.0,10.0,0.0
12742,68.0,4.0,60.0,11.0,0.0
12743,60.0,1.0,60.0,12.0,0.0
12744,56.0,0.0,60.0,12.0,0.0
12745,60.0,0.0,60.0,5.0,0.0
12746,48.0,3.0,60.0,5.0,0.0
12747,40.0,1.0,60.0,3.0,0.0
12748,40.0,3.0,60.0,13.0,0.0
12749,28.0,105.0,60.0,14.0,0.0
12750,70.0,3.0,60.0,10.0,0.0
12751,67.0,5.0,60.0,11.0,0.0
12752,60.0,3.0,60.0,5.0,0.0
12753,41.0,1.0,60.0,3.0,0.0
12754,41.0,3.0,60.0,13.0,0.0
12755,29.0,105.0,60.0,14.0,0.0
12756,68.0,3.0,60.0,10.0,0.0
12757,65.0,4.0,60.0,11.0,0.0
12758,60.0,5.0,60.0,12.0,0.0
12759,56.0,0.0,60.0,12.0,0.0
12760,44.0,3.0,60.0,13.0,0.0
12761,32.0,105.0,60.0,14.0,0.0
12762,67.0,3.0,60.0,10.0,0.0
12763,63.0,4.0,60.0,11.0,0.0
12764,58.0,1.0,60.0,12.0,0.0
12765,58.0,4.0,60.0,5.0,0.0
12766,46.0,3.0,60.0,13.0,0.0
12767,34.0,117.0,60.0,14.0,0.0
12768,85.0,3.0,90.0,0.0,0.0
12769,73.0,3.0,90.0,1.0,0.0
12770,73.0,4.0,90.0,2.0,0.0
12771,61.0,81.0,90.0,3.0,0.0
12772,43.0,3.0,60.0,13.0,0.0
12773,31.0,15.0,60.0,14.0,0.0
12774,65.0,3.0,30.0,10.0,0.0
12775,61.0,4.0,30.0,11.0,0.0
12776,58.0,4.0,30.0,12.0,0.0
12777,84.0,3.0,90.0,0.0,0.0
12778,72.0,3.0,90.0,1.0,0.0
12779,72.0,4.0,90.0,2.0,0.0
12780,60.0,81.0,90.0,3.0,0.0
12781,48.0,3.0,60.0,13.0,0.0
12782,36.0,15.0,60.0,14.0,0.0
12783,64.0,3.0,30.0,10.0,0.0
12784,55.0,4.0,30.0,11.0,0.0
12785,58.0,4.0,30.0,12.0,0.0
12786,82.0,3.0,90.0,0.0,0.0
12787,70.0,3.0,90.0,1.0,0.0
12788,70.0,4.0,90.0,2.0,0.0
12789,58.0,81.0,90.0,3.0,0.0
12790,55.0,3.0,60.0,13.0,0.0
12791,43.0,15.0,60.0,14.0,0.0
12792,61.0,3.0,30.0,10.0,0.0
12793,53.0,4.0,30.0,11.0,0.0
12794,58.0,4.0,30.0,12.0,0.0
12795,79.0,3.0,90.0,0.0,0.0
12796,67.0,0.0,90.0,1.0,0.0
12797,79.0,3.0,90.0,1.0,0.0
12798,67.0,4.0,90.0,2.0,0.0
12799,55.0,81.0,90.0,3.0,0.0
12800,60.0,3.0,60.0,13.0,0.0
12801,48.0,15.0,60.0,14.0,0.0
12802,60.0,3.0,30.0,10.0,0.0
12803,52.0,4.0,30.0,11.0,0.0
12804,58.0,4.0,30.0,12.0,0.0
12805,77.0,3.0,90.0,0.0,0.0
12806,77.0,0.0,90.0,1.0,0.0
12807,65.0,3.0,90.0,1.0,0.0
12808,65.0,0.0,90.0,2.0,0.0
12809,77.0,4.0,90.0,2.0,0.0
12810,65.0,81.0,90.0,3.0,0.0
12811,43.0,3.0,60.0,13.0,0.0
12812,31.0,18.0,60.0,14.0,0.0
12813,61.0,4.0,30.0,11.0,0.0
12814,58.0,4.0,30.0,12.0,0.0
12815,55.0,0.0,30.0,12.0,0.0
12816,76.0,3.0,90.0,0.0,0.0
12817,76.0,3.0,90.0,1.0,0.0
12818,64.0,0.0,90.0,1.0,0.0
12819,64.0,4.0,90.0,2.0,0.0
12820,76.0,0.0,90.0,2.0,0.0
12821,64.0,81.0,90.0,3.0,0.0
12822,48.0,3.0,60.0,13.0,0.0
12823,36.0,18.0,60.0,14.0,0.0
12824,60.0,4.0,30.0,11.0,0.0
12825,58.0,4.0,30.0,12.0,0.0
12826,55.0,0.0,30.0,12.0,0.0
12827,73.0,3.0,90.0,0.0,0.0
12828,73.0,3.0,90.0,1.0,0.0
12829,61.0,0.0,90.0,1.0,0.0
12830,61.0,4.0,90.0,2.0,0.0
12831,73.0,0.0,90.0,2.0,0.0
12832,61.0,81.0,90.0,3.0,0.0
12833,55.0,3.0,60.0,13.0,0.0
12834,43.0,18.0,60.0,14.0,0.0
12835,65.0,4.0,30.0,11.0,0.0
12836,55.0,0.0,30.0,12.0,0.0
12837,58.0,4.0,30.0,12.0,0.0
12838,72.0,3.0,90.0,0.0,0.0
12839,72.0,0.0,90.0,1.0,0.0
12840,60.0,3.0,90.0,1.0,0.0
12841,60.0,4.0,90.0,2.0,0.0
12842,72.0,0.0,90.0,2.0,0.0
12843,60.0,74.0,90.0,3.0,0.0
12844,60.0,3.0,60.0,13.0,0.0
12845,48.0,18.0,60.0,14.0,0.0
12846,64.0,4.0,30.0,11.0,0.0
12847,58.0,4.0,30.0,12.0,0.0
12848,55.0,0.0,30.0,12.0,0.0
12849,60.0,6.0,60.0,4.0,0.0
12850,60.0,37.0,240.0,5.0,0.0
12851,36.0,1.0,60.0,3.0,0.0
12852,36.0,3.0,60.0,13.0,0.0
12853,24.0,90.0,60.0,14.0,0.0
12854,91.0,3.0,120.0,10.0,0.0
12855,87.0,0.0,120.0,0.0,0.0
12856,82.0,3.0,120.0,0.0,0.0
12857,67.0,0.0,120.0,11.0,0.0
12858,75.0,4.0,120.0,11.0,0.0
12859,70.0,1.0,120.0,1.0,0.0
12860,79.0,0.0,120.0,1.0,0.0
12861,60.0,9.0,120.0,12.0,0.0
12862,70.0,0.0,120.0,12.0,0.0
12863,67.0,0.0,120.0,2.0,0.0
12864,75.0,4.0,120.0,2.0,0.0
12865,41.0,0.0,60.0,4.0,0.0
12866,53.0,2.0,60.0,4.0,0.0
12867,41.0,1.0,60.0,3.0,0.0
12868,41.0,3.0,60.0,13.0,0.0
12869,29.0,53.0,60.0,14.0,0.0
12870,89.0,3.0,120.0,10.0,0.0
12871,81.0,0.0,120.0,0.0,0.0
12872,84.0,3.0,120.0,0.0,0.0
12873,65.0,4.0,120.0,11.0,0.0
12874,75.0,0.0,120.0,11.0,0.0
12875,77.0,0.0,120.0,1.0,0.0
12876,69.0,3.0,120.0,1.0,0.0
12877,65.0,0.0,120.0,2.0,0.0
12878,72.0,4.0,120.0,2.0,0.0
12879,60.0,0.0,120.0,12.0,0.0
12880,69.0,9.0,120.0,12.0,0.0
12881,63.0,0.0,15.0,5.0,0.0
12882,48.0,1.0,60.0,3.0,0.0
12883,48.0,3.0,60.0,13.0,0.0
12884,36.0,90.0,60.0,14.0,0.0
12885,87.0,3.0,120.0,10.0,0.0
12886,82.0,3.0,120.0,0.0,0.0
12887,87.0,0.0,120.0,0.0,0.0
12888,75.0,4.0,120.0,11.0,0.0
12889,67.0,0.0,120.0,11.0,0.0
12890,75.0,3.0,120.0,1.0,0.0
12891,70.0,0.0,120.0,1.0,0.0
12892,70.0,4.0,120.0,2.0,0.0
12893,67.0,0.0,120.0,2.0,0.0
12894,70.0,9.0,120.0,12.0,0.0
12895,60.0,0.0,120.0,12.0,0.0
12896,53.0,1.0,60.0,3.0,0.0
12897,53.0,3.0,60.0,13.0,0.0
12898,41.0,53.0,60.0,14.0,0.0
12899,84.0,3.0,120.0,10.0,0.0
12900,81.0,3.0,120.0,0.0,0.0
12901,84.0,0.0,120.0,0.0,0.0
12902,75.0,0.0,120.0,11.0,0.0
12903,65.0,4.0,120.0,11.0,0.0
12904,69.0,1.0,120.0,1.0,0.0
12905,72.0,0.0,120.0,1.0,0.0
12906,65.0,0.0,120.0,2.0,0.0
12907,69.0,4.0,120.0,2.0,0.0
12908,69.0,9.0,120.0,12.0,0.0
12909,60.0,0.0,120.0,12.0,0.0
12910,60.0,2.0,60.0,4.0,0.0
12911,60.0,37.0,15.0,5.0,0.0
12912,63.0,0.0,15.0,5.0,0.0
12913,36.0,1.0,60.0,3.0,0.0
12914,36.0,3.0,60.0,13.0,0.0
12915,24.0,90.0,60.0,14.0,0.0
12916,82.0,3.0,120.0,10.0,0.0
12917,82.0,0.0,120.0,0.0,0.0
12918,79.0,3.0,120.0,0.0,0.0
12919,75.0,0.0,120.0,11.0,0.0
12920,67.0,4.0,120.0,11.0,0.0
12921,67.0,0.0,120.0,1.0,0.0
12922,70.0,1.0,120.0,1.0,0.0
12923,70.0,0.0,120.0,12.0,0.0
12924,70.0,4.0,120.0,2.0,0.0
12925,60.0,9.0,120.0,12.0,0.0
12926,63.0,0.0,120.0,2.0,0.0
12927,41.0,2.0,60.0,4.0,0.0
12928,53.0,0.0,60.0,4.0,0.0
12929,41.0,1.0,60.0,3.0,0.0
12930,41.0,3.0,60.0,13.0,0.0
12931,29.0,53.0,60.0,14.0,0.0
12932,81.0,3.0,120.0,10.0,0.0
12933,77.0,3.0,120.0,0.0,0.0
12934,81.0,0.0,120.0,0.0,0.0
12935,65.0,0.0,120.0,11.0,0.0
12936,75.0,4.0,120.0,11.0,0.0
12937,69.0,0.0,120.0,1.0,0.0
12938,65.0,3.0,120.0,1.0,0.0
12939,69.0,9.0,120.0,12.0,0.0
12940,60.0,0.0,120.0,12.0,0.0
12941,65.0,4.0,120.0,2.0,0.0
12942,69.0,0.0,120.0,2.0,0.0
12943,48.0,1.0,60.0,3.0,0.0
12944,48.0,3.0,60.0,13.0,0.0
12945,36.0,90.0,60.0,14.0,0.0
12946,79.0,3.0,120.0,10.0,0.0
12947,79.0,0.0,120.0,0.0,0.0
12948,60.0,4.0,120.0,11.0,0.0
12949,70.0,0.0,120.0,11.0,0.0
12950,67.0,3.0,120.0,1.0,0.0
12951,63.0,0.0,120.0,1.0,0.0
12952,70.0,4.0,120.0,2.0,0.0
12953,67.0,0.0,120.0,12.0,0.0
12954,63.0,0.0,120.0,2.0,0.0
12955,63.0,9.0,120.0,12.0,0.0
12956,53.0,1.0,60.0,3.0,0.0
12957,53.0,3.0,60.0,13.0,0.0
12958,41.0,46.0,60.0,14.0,0.0
12959,75.0,3.0,120.0,10.0,0.0
12960,72.0,3.0,60.0,0.0,0.0
12961,75.0,3.0,15.0,0.0,0.0
12962,60.0,0.0,120.0,11.0,0.0
12963,69.0,4.0,120.0,11.0,0.0
12964,69.0,3.0,60.0,1.0,0.0
12965,60.0,0.0,60.0,1.0,0.0
12966,60.0,1.0,60.0,2.0,0.0
12967,69.0,0.0,60.0,2.0,0.0
12968,63.0,13.0,120.0,12.0,0.0
12969,65.0,0.0,120.0,12.0,0.0
12970,53.0,3.0,60.0,4.0,0.0
12971,63.0,0.0,15.0,5.0,0.0
12972,60.0,37.0,15.0,5.0,0.0
12973,41.0,1.0,60.0,3.0,0.0
12974,41.0,3.0,60.0,13.0,0.0
12975,29.0,30.0,60.0,14.0,0.0
12976,69.0,3.0,60.0,10.0,0.0
12977,60.0,4.0,60.0,11.0,0.0
12978,70.0,0.0,60.0,11.0,0.0
12979,63.0,43.0,60.0,12.0,0.0
12980,53.0,0.0,60.0,12.0,0.0
12981,70.0,3.0,30.0,10.0,0.0
12982,70.0,7.0,60.0,0.0,0.0
12983,58.0,18.0,30.0,11.0,0.0
12984,70.0,0.0,270.0,6.0,0.0
12985,58.0,50.0,270.0,6.0,0.0
12986,58.0,0.0,360.0,1.0,0.0
12987,62.0,3.0,360.0,1.0,0.0
12988,46.0,0.0,30.0,4.0,0.0
12989,58.0,5.0,30.0,4.0,0.0
12990,58.0,4.0,360.0,2.0,0.0
12991,58.0,0.0,360.0,12.0,0.0
12992,62.0,0.0,360.0,2.0,0.0
12993,62.0,0.0,360.0,12.0,0.0
12994,62.0,0.0,60.0,5.0,0.0
12995,58.0,27.0,60.0,5.0,0.0
12996,46.0,1.0,360.0,3.0,0.0
12997,46.0,3.0,360.0,13.0,0.0
12998,46.0,31.0,240.0,15.0,0.0
12999,34.0,12.0,360.0,14.0,0.0
13000,69.0,3.0,30.0,10.0,0.0
13001,69.0,34.0,60.0,0.0,0.0
13002,57.0,18.0,30.0,11.0,0.0
13003,58.0,5.0,30.0,4.0,0.0
13004,46.0,0.0,30.0,4.0,0.0
13005,70.0,3.0,30.0,10.0,0.0
13006,70.0,34.0,60.0,0.0,0.0
13007,58.0,18.0,30.0,11.0,0.0
13008,58.0,0.0,30.0,4.0,0.0
13009,46.0,5.0,30.0,4.0,0.0
13010,74.0,3.0,30.0,10.0,0.0
13011,74.0,26.0,60.0,0.0,0.0
13012,62.0,3.0,30.0,11.0,0.0
13013,58.0,0.0,30.0,4.0,0.0
13014,46.0,5.0,30.0,4.0,0.0
13015,70.0,3.0,270.0,10.0,0.0
13016,70.0,34.0,300.0,0.0,0.0
13017,58.0,2.0,270.0,11.0,0.0
13018,46.0,0.0,270.0,4.0,0.0
13019,58.0,16.0,270.0,4.0,0.0
13020,70.0,0.0,30.0,6.0,0.0
13021,58.0,16.0,30.0,6.0,0.0
13022,70.0,0.0,30.0,6.0,0.0
13023,58.0,39.0,30.0,6.0,0.0
13024,62.0,0.0,120.0,1.0,0.0
13025,58.0,3.0,120.0,1.0,0.0
13026,58.0,0.0,120.0,2.0,0.0
13027,58.0,4.0,120.0,12.0,0.0
13028,62.0,0.0,120.0,2.0,0.0
13029,62.0,0.0,120.0,12.0,0.0
13030,46.0,1.0,120.0,3.0,0.0
13031,46.0,21.0,15.0,15.0,0.0
13032,46.0,3.0,120.0,13.0,0.0
13033,34.0,12.0,120.0,14.0,0.0
13034,70.0,0.0,30.0,6.0,0.0
13035,58.0,16.0,30.0,6.0,0.0
13036,58.0,50.0,270.0,6.0,0.0
13037,70.0,0.0,270.0,6.0,0.0
13038,65.0,3.0,360.0,1.0,0.0
13039,62.0,0.0,360.0,1.0,0.0
13040,62.0,0.0,360.0,12.0,0.0
13041,65.0,0.0,360.0,2.0,0.0
13042,62.0,0.0,360.0,2.0,0.0
13043,65.0,4.0,360.0,12.0,0.0
13044,45.0,1.0,360.0,3.0,0.0
13045,45.0,3.0,360.0,13.0,0.0
13046,46.0,28.0,15.0,15.0,0.0
13047,33.0,12.0,360.0,14.0,0.0
13048,69.0,3.0,30.0,10.0,0.0
13049,69.0,34.0,60.0,0.0,0.0
13050,57.0,18.0,30.0,11.0,0.0
13051,46.0,0.0,30.0,4.0,0.0
13052,58.0,5.0,30.0,4.0,0.0
13053,70.0,3.0,30.0,10.0,0.0
13054,70.0,34.0,60.0,0.0,0.0
13055,58.0,18.0,30.0,11.0,0.0
13056,46.0,5.0,30.0,4.0,0.0
13057,58.0,0.0,30.0,4.0,0.0
13058,77.0,3.0,30.0,10.0,0.0
13059,77.0,26.0,60.0,0.0,0.0
13060,65.0,3.0,30.0,11.0,0.0
13061,58.0,0.0,30.0,4.0,0.0
13062,46.0,5.0,30.0,4.0,0.0
13063,70.0,3.0,270.0,10.0,0.0
13064,70.0,39.0,300.0,0.0,0.0
13065,58.0,18.0,270.0,11.0,0.0
13066,58.0,0.0,210.0,4.0,0.0
13067,46.0,4.0,210.0,4.0,0.0
13068,58.0,0.0,30.0,6.0,0.0
13069,70.0,16.0,30.0,6.0,0.0
13070,58.0,0.0,30.0,6.0,0.0
13071,70.0,39.0,30.0,6.0,0.0
13072,65.0,0.0,120.0,1.0,0.0
13073,62.0,3.0,120.0,1.0,0.0
13074,65.0,0.0,120.0,12.0,0.0
13075,62.0,4.0,120.0,2.0,0.0
13076,65.0,0.0,120.0,2.0,0.0
13077,62.0,0.0,120.0,12.0,0.0
13078,45.0,1.0,120.0,3.0,0.0
13079,46.0,21.0,15.0,15.0,0.0
13080,45.0,3.0,120.0,13.0,0.0
13081,33.0,12.0,120.0,14.0,0.0
13082,58.0,0.0,30.0,6.0,0.0
13083,70.0,12.0,30.0,6.0,0.0
13084,46.0,21.0,15.0,15.0,0.0
13085,58.0,0.0,210.0,6.0,0.0
13086,70.0,0.0,210.0,6.0,0.0
13087,70.0,0.0,240.0,1.0,0.0
13088,62.0,3.0,240.0,1.0,0.0
13089,46.0,1.0,210.0,4.0,0.0
13090,58.0,0.0,210.0,4.0,0.0
13091,62.0,0.0,240.0,2.0,0.0
13092,70.0,4.0,240.0,12.0,0.0
13093,62.0,0.0,240.0,12.0,0.0
13094,70.0,0.0,240.0,2.0,0.0
13095,43.0,1.0,240.0,3.0,0.0
13096,43.0,3.0,240.0,13.0,0.0
13097,46.0,28.0,240.0,15.0,0.0
13098,31.0,12.0,240.0,14.0,0.0
13099,69.0,3.0,30.0,10.0,0.0
13100,69.0,39.0,60.0,0.0,0.0
13101,69.0,18.0,30.0,11.0,0.0
13102,70.0,3.0,30.0,10.0,0.0
13103,70.0,39.0,60.0,0.0,0.0
13104,70.0,18.0,30.0,11.0,0.0
13105,82.0,3.0,30.0,10.0,0.0
13106,79.0,0.0,60.0,0.0,0.0
13107,82.0,3.0,60.0,0.0,0.0
13108,79.0,2.0,30.0,11.0,0.0
13109,81.0,3.0,30.0,10.0,0.0
13110,81.0,0.0,60.0,0.0,0.0
13111,77.0,39.0,60.0,0.0,0.0
13112,72.0,2.0,210.0,6.0,0.0
13113,70.0,0.0,210.0,6.0,0.0
13114,77.0,18.0,30.0,11.0,0.0
13115,63.0,3.0,240.0,1.0,0.0
13116,67.0,0.0,240.0,1.0,0.0
13117,60.0,0.0,210.0,4.0,0.0
13118,58.0,1.0,210.0,4.0,0.0
13119,67.0,4.0,240.0,2.0,0.0
13120,63.0,0.0,240.0,2.0,0.0
13121,63.0,0.0,240.0,12.0,0.0
13122,67.0,0.0,240.0,12.0,0.0
13123,39.0,1.0,240.0,3.0,0.0
13124,46.0,28.0,240.0,15.0,0.0
13125,39.0,3.0,240.0,13.0,0.0
13126,27.0,12.0,240.0,14.0,0.0
13127,79.0,3.0,30.0,10.0,0.0
13128,75.0,0.0,60.0,0.0,0.0
13129,79.0,39.0,60.0,0.0,0.0
13130,75.0,18.0,30.0,11.0,0.0
13131,77.0,3.0,30.0,10.0,0.0
13132,77.0,39.0,60.0,0.0,0.0
13133,74.0,0.0,60.0,0.0,0.0
13134,74.0,18.0,30.0,11.0,0.0
13135,75.0,3.0,30.0,10.0,0.0
13136,75.0,3.0,60.0,0.0,0.0
13137,72.0,0.0,60.0,0.0,0.0
13138,72.0,0.0,30.0,11.0,0.0
13139,74.0,3.0,30.0,10.0,0.0
13140,74.0,0.0,60.0,0.0,0.0
13141,70.0,39.0,60.0,0.0,0.0
13142,65.0,2.0,210.0,6.0,0.0
13143,70.0,18.0,30.0,11.0,0.0
13144,72.0,0.0,210.0,6.0,0.0
13145,69.0,0.0,240.0,1.0,0.0
13146,60.0,3.0,240.0,1.0,0.0
13147,53.0,0.0,210.0,4.0,0.0
13148,60.0,1.0,210.0,4.0,0.0
13149,57.0,0.0,240.0,2.0,0.0
13150,60.0,0.0,240.0,12.0,0.0
13151,57.0,4.0,240.0,12.0,0.0
13152,60.0,0.0,240.0,2.0,0.0
13153,41.0,1.0,240.0,3.0,0.0
13154,41.0,3.0,240.0,13.0,0.0
13155,41.0,28.0,240.0,15.0,0.0
13156,29.0,12.0,240.0,14.0,0.0
13157,72.0,3.0,30.0,10.0,0.0
13158,72.0,0.0,60.0,0.0,0.0
13159,69.0,39.0,60.0,0.0,0.0
13160,69.0,18.0,30.0,11.0,0.0
13161,84.0,3.0,30.0,10.0,0.0
13162,84.0,0.0,60.0,0.0,0.0
13163,81.0,39.0,60.0,0.0,0.0
13164,81.0,18.0,30.0,11.0,0.0
13165,82.0,3.0,30.0,10.0,0.0
13166,82.0,3.0,60.0,0.0,0.0
13167,79.0,0.0,60.0,0.0,0.0
13168,79.0,0.0,30.0,11.0,0.0
13169,81.0,3.0,30.0,10.0,0.0
13170,81.0,39.0,120.0,0.0,0.0
13171,77.0,0.0,120.0,0.0,0.0
13172,77.0,57.0,30.0,11.0,0.0
13173,72.0,0.0,210.0,6.0,0.0
13174,65.0,2.0,210.0,6.0,0.0
13175,69.0,0.0,240.0,1.0,0.0
13176,65.0,3.0,240.0,1.0,0.0
13177,53.0,4.0,210.0,4.0,0.0
13178,60.0,0.0,210.0,4.0,0.0
13179,57.0,0.0,240.0,12.0,0.0
13180,57.0,0.0,240.0,2.0,0.0
13181,65.0,4.0,240.0,2.0,0.0
13182,65.0,0.0,240.0,12.0,0.0
13183,53.0,1.0,240.0,3.0,0.0
13184,41.0,23.0,240.0,15.0,0.0
13185,53.0,3.0,240.0,13.0,0.0
13186,41.0,12.0,240.0,14.0,0.0
13187,79.0,3.0,30.0,10.0,0.0
13188,75.0,18.0,30.0,11.0,0.0
13189,77.0,3.0,30.0,10.0,0.0
13190,74.0,57.0,30.0,11.0,0.0
13191,75.0,3.0,30.0,10.0,0.0
13192,72.0,0.0,30.0,11.0,0.0
13193,74.0,3.0,30.0,10.0,0.0
13194,82.0,3.0,330.0,0.0,0.0
13195,70.0,13.0,30.0,11.0,0.0
13196,58.0,0.0,270.0,6.0,0.0
13197,70.0,50.0,270.0,6.0,0.0
13198,70.0,0.0,330.0,1.0,0.0
13199,82.0,3.0,330.0,1.0,0.0
13200,46.0,0.0,30.0,4.0,0.0
13201,58.0,5.0,30.0,4.0,0.0
13202,82.0,1.0,330.0,2.0,0.0
13203,70.0,0.0,330.0,2.0,0.0
13204,70.0,0.0,360.0,12.0,0.0
13205,58.0,20.0,360.0,12.0,0.0
13206,58.0,9.0,330.0,5.0,0.0
13207,46.0,1.0,60.0,3.0,0.0
13208,46.0,31.0,240.0,15.0,0.0
13209,46.0,3.0,60.0,13.0,0.0
13210,34.0,35.0,60.0,14.0,0.0
13211,73.0,3.0,30.0,10.0,0.0
13212,61.0,13.0,30.0,11.0,0.0
13213,46.0,0.0,30.0,4.0,0.0
13214,58.0,5.0,30.0,4.0,0.0
13215,45.0,1.0,60.0,3.0,0.0
13216,45.0,3.0,60.0,13.0,0.0
13217,33.0,35.0,60.0,14.0,0.0
13218,74.0,3.0,30.0,10.0,0.0
13219,62.0,13.0,30.0,11.0,0.0
13220,58.0,5.0,30.0,4.0,0.0
13221,46.0,0.0,30.0,4.0,0.0
13222,46.0,1.0,60.0,3.0,0.0
13223,46.0,3.0,60.0,13.0,0.0
13224,34.0,35.0,60.0,14.0,0.0
13225,77.0,3.0,30.0,10.0,0.0
13226,65.0,13.0,30.0,11.0,0.0
13227,46.0,0.0,30.0,4.0,0.0
13228,58.0,5.0,30.0,4.0,0.0
13229,50.0,1.0,60.0,3.0,0.0
13230,50.0,3.0,60.0,13.0,0.0
13231,38.0,12.0,60.0,14.0,0.0
13232,74.0,3.0,270.0,10.0,0.0
13233,62.0,2.0,270.0,11.0,0.0
13234,46.0,0.0,270.0,4.0,0.0
13235,58.0,11.0,270.0,4.0,0.0
13236,46.0,1.0,300.0,3.0,0.0
13237,46.0,3.0,300.0,13.0,0.0
13238,34.0,35.0,300.0,14.0,0.0
13239,70.0,3.0,30.0,6.0,0.0
13240,58.0,0.0,30.0,6.0,0.0
13241,82.0,2.0,90.0,0.0,0.0
13242,70.0,0.0,30.0,6.0,0.0
13243,58.0,39.0,30.0,6.0,0.0
13244,70.0,3.0,90.0,1.0,0.0
13245,82.0,0.0,90.0,1.0,0.0
13246,70.0,20.0,120.0,12.0,0.0
13247,82.0,5.0,90.0,2.0,0.0
13248,70.0,0.0,90.0,2.0,0.0
13249,58.0,1.0,90.0,5.0,0.0
13250,46.0,21.0,15.0,15.0,0.0
13251,58.0,8.0,30.0,6.0,0.0
13252,70.0,0.0,30.0,6.0,0.0
13253,81.0,3.0,330.0,0.0,0.0
13254,70.0,0.0,270.0,6.0,0.0
13255,58.0,50.0,270.0,6.0,0.0
13256,69.0,3.0,330.0,1.0,0.0
13257,81.0,0.0,330.0,1.0,0.0
13258,81.0,0.0,330.0,2.0,0.0
13259,69.0,1.0,330.0,2.0,0.0
13260,69.0,20.0,360.0,12.0,0.0
13261,57.0,9.0,330.0,5.0,0.0
13262,46.0,28.0,15.0,15.0,0.0
13263,73.0,3.0,30.0,10.0,0.0
13264,61.0,13.0,30.0,11.0,0.0
13265,58.0,0.0,30.0,4.0,0.0
13266,46.0,5.0,30.0,4.0,0.0
13267,45.0,1.0,60.0,3.0,0.0
13268,45.0,3.0,60.0,13.0,0.0
13269,33.0,35.0,60.0,14.0,0.0
13270,74.0,3.0,30.0,10.0,0.0
13271,62.0,13.0,30.0,11.0,0.0
13272,46.0,5.0,30.0,4.0,0.0
13273,58.0,0.0,30.0,4.0,0.0
13274,46.0,1.0,60.0,3.0,0.0
13275,46.0,3.0,60.0,13.0,0.0
13276,34.0,35.0,60.0,14.0,0.0
13277,81.0,3.0,30.0,10.0,0.0
13278,69.0,13.0,30.0,11.0,0.0
13279,58.0,0.0,30.0,4.0,0.0
13280,46.0,5.0,30.0,4.0,0.0
13281,53.0,1.0,60.0,3.0,0.0
13282,53.0,3.0,60.0,13.0,0.0
13283,41.0,12.0,60.0,14.0,0.0
13284,74.0,3.0,270.0,10.0,0.0
13285,62.0,13.0,270.0,11.0,0.0
13286,46.0,2.0,210.0,4.0,0.0
13287,58.0,0.0,210.0,4.0,0.0
13288,46.0,1.0,300.0,3.0,0.0
13289,46.0,3.0,300.0,13.0,0.0
13290,34.0,40.0,300.0,14.0,0.0
13291,70.0,0.0,30.0,6.0,0.0
13292,58.0,3.0,30.0,6.0,0.0
13293,81.0,2.0,90.0,0.0,0.0
13294,70.0,39.0,30.0,6.0,0.0
13295,58.0,0.0,30.0,6.0,0.0
13296,81.0,1.0,90.0,1.0,0.0
13297,69.0,0.0,90.0,1.0,0.0
13298,69.0,0.0,90.0,2.0,0.0
13299,81.0,5.0,90.0,2.0,0.0
13300,69.0,20.0,120.0,12.0,0.0
13301,57.0,1.0,90.0,5.0,0.0
13302,46.0,21.0,15.0,15.0,0.0
13303,70.0,8.0,30.0,6.0,0.0
13304,58.0,0.0,30.0,6.0,0.0
13305,79.0,2.0,120.0,0.0,0.0
13306,70.0,0.0,120.0,6.0,0.0
13307,58.0,1.0,120.0,6.0,0.0
13308,67.0,1.0,120.0,1.0,0.0
13309,79.0,0.0,120.0,1.0,0.0
13310,58.0,2.0,120.0,4.0,0.0
13311,46.0,0.0,120.0,4.0,0.0
13312,67.0,0.0,120.0,2.0,0.0
13313,79.0,5.0,120.0,2.0,0.0
13314,67.0,9.0,150.0,12.0,0.0
13315,55.0,2.0,120.0,5.0,0.0
13316,46.0,28.0,15.0,15.0,0.0
13317,73.0,3.0,30.0,10.0,0.0
13318,61.0,13.0,30.0,11.0,0.0
13319,45.0,1.0,60.0,3.0,0.0
13320,45.0,1.0,60.0,13.0,0.0
13321,33.0,1.0,60.0,14.0,0.0
13322,74.0,3.0,30.0,10.0,0.0
13323,62.0,4.0,30.0,11.0,0.0
13324,46.0,1.0,60.0,3.0,0.0
13325,46.0,3.0,60.0,13.0,0.0
13326,34.0,40.0,60.0,14.0,0.0
13327,86.0,3.0,30.0,10.0,0.0
13328,70.0,4.0,30.0,11.0,0.0
13329,74.0,9.0,30.0,12.0,0.0
13330,70.0,0.0,30.0,12.0,0.0
13331,43.0,1.0,60.0,3.0,0.0
13332,43.0,3.0,60.0,13.0,0.0
13333,31.0,40.0,60.0,14.0,0.0
13334,84.0,3.0,30.0,10.0,0.0
13335,75.0,0.0,120.0,0.0,0.0
13336,79.0,3.0,120.0,0.0,0.0
13337,81.0,4.0,30.0,11.0,0.0
13338,70.0,0.0,60.0,6.0,0.0
13339,58.0,2.0,60.0,6.0,0.0
13340,70.0,3.0,120.0,1.0,0.0
13341,79.0,0.0,120.0,1.0,0.0
13342,58.0,0.0,60.0,4.0,0.0
13343,46.0,35.0,60.0,4.0,0.0
13344,67.0,5.0,120.0,2.0,0.0
13345,72.0,16.0,30.0,12.0,0.0
13346,69.0,0.0,30.0,12.0,0.0
13347,63.0,0.0,120.0,2.0,0.0
13348,39.0,1.0,120.0,3.0,0.0
13349,39.0,3.0,120.0,13.0,0.0
13350,46.0,28.0,120.0,15.0,0.0
13351,27.0,1.0,120.0,14.0,0.0
13352,82.0,3.0,30.0,10.0,0.0
13353,79.0,4.0,30.0,11.0,0.0
13354,70.0,9.0,30.0,12.0,0.0
13355,67.0,0.0,30.0,12.0,0.0
13356,81.0,3.0,30.0,10.0,0.0
13357,77.0,4.0,30.0,11.0,0.0
13358,69.0,0.0,30.0,12.0,0.0
13359,65.0,9.0,30.0,12.0,0.0
13360,43.0,1.0,60.0,3.0,0.0
13361,43.0,3.0,60.0,13.0,0.0
13362,31.0,40.0,60.0,14.0,0.0
13363,79.0,3.0,30.0,10.0,0.0
13364,75.0,4.0,30.0,11.0,0.0
13365,67.0,0.0,30.0,12.0,0.0
13366,63.0,9.0,30.0,12.0,0.0
13367,39.0,1.0,60.0,3.0,0.0
13368,39.0,3.0,60.0,13.0,0.0
13369,27.0,40.0,60.0,14.0,0.0
13370,87.0,3.0,30.0,10.0,0.0
13371,75.0,0.0,120.0,0.0,0.0
13372,79.0,3.0,120.0,0.0,0.0
13373,84.0,4.0,30.0,11.0,0.0
13374,70.0,0.0,60.0,6.0,0.0
13375,72.0,2.0,60.0,6.0,0.0
13376,79.0,3.0,120.0,1.0,0.0
13377,75.0,0.0,120.0,1.0,0.0
13378,60.0,0.0,60.0,4.0,0.0
13379,58.0,6.0,60.0,4.0,0.0
13380,75.0,0.0,30.0,12.0,0.0
13381,63.0,5.0,120.0,2.0,0.0
13382,72.0,16.0,30.0,12.0,0.0
13383,67.0,0.0,120.0,2.0,0.0
13384,36.0,1.0,60.0,3.0,0.0
13385,46.0,28.0,120.0,15.0,0.0
13386,36.0,3.0,60.0,13.0,0.0
13387,24.0,25.0,60.0,14.0,0.0
13388,86.0,3.0,30.0,10.0,0.0
13389,82.0,4.0,30.0,11.0,0.0
13390,70.0,0.0,30.0,12.0,0.0
13391,74.0,14.0,30.0,12.0,0.0
13392,84.0,3.0,30.0,10.0,0.0
13393,81.0,4.0,30.0,11.0,0.0
13394,69.0,24.0,30.0,12.0,0.0
13395,72.0,0.0,30.0,12.0,0.0
13396,39.0,1.0,60.0,3.0,0.0
13397,39.0,3.0,60.0,13.0,0.0
13398,27.0,25.0,60.0,14.0,0.0
13399,82.0,3.0,30.0,10.0,0.0
13400,79.0,4.0,30.0,11.0,0.0
13401,70.0,0.0,30.0,12.0,0.0
13402,67.0,53.0,30.0,12.0,0.0
13403,81.0,3.0,30.0,10.0,0.0
13404,75.0,3.0,120.0,0.0,0.0
13405,84.0,0.0,120.0,0.0,0.0
13406,65.0,0.0,60.0,6.0,0.0
13407,77.0,4.0,30.0,11.0,0.0
13408,53.0,2.0,60.0,6.0,0.0
13409,75.0,3.0,120.0,1.0,0.0
13410,72.0,0.0,120.0,1.0,0.0
13411,60.0,0.0,60.0,4.0,0.0
13412,41.0,6.0,60.0,4.0,0.0
13413,63.0,5.0,120.0,2.0,0.0
13414,65.0,16.0,30.0,12.0,0.0
13415,69.0,0.0,30.0,12.0,0.0
13416,72.0,0.0,120.0,2.0,0.0
13417,41.0,1.0,60.0,3.0,0.0
13418,41.0,3.0,60.0,13.0,0.0
13419,41.0,28.0,120.0,15.0,0.0
13420,29.0,25.0,60.0,14.0,0.0
13421,79.0,3.0,30.0,10.0,0.0
13422,75.0,4.0,30.0,11.0,0.0
13423,63.0,0.0,30.0,12.0,0.0
13424,67.0,14.0,30.0,12.0,0.0
13425,77.0,3.0,30.0,10.0,0.0
13426,74.0,4.0,30.0,11.0,0.0
13427,62.0,24.0,30.0,12.0,0.0
13428,65.0,0.0,30.0,12.0,0.0
13429,45.0,1.0,60.0,3.0,0.0
13430,45.0,3.0,60.0,13.0,0.0
13431,33.0,25.0,60.0,14.0,0.0
13432,75.0,3.0,30.0,10.0,0.0
13433,72.0,4.0,30.0,11.0,0.0
13434,63.0,0.0,30.0,12.0,0.0
13435,60.0,53.0,30.0,12.0,0.0
13436,74.0,3.0,30.0,10.0,0.0
13437,74.0,3.0,120.0,0.0,0.0
13438,77.0,0.0,120.0,0.0,0.0
13439,70.0,20.0,30.0,11.0,0.0
13440,65.0,2.0,60.0,6.0,0.0
13441,53.0,0.0,60.0,6.0,0.0
13442,70.0,3.0,120.0,1.0,0.0
13443,74.0,0.0,120.0,1.0,0.0
13444,53.0,0.0,60.0,4.0,0.0
13445,46.0,6.0,60.0,4.0,0.0
13446,65.0,5.0,120.0,2.0,0.0
13447,69.0,0.0,120.0,2.0,0.0
13448,58.0,9.0,120.0,12.0,0.0
13449,62.0,0.0,120.0,12.0,0.0
13450,46.0,1.0,60.0,3.0,0.0
13451,46.0,3.0,60.0,13.0,0.0
13452,46.0,28.0,120.0,15.0,0.0
13453,34.0,25.0,60.0,14.0,0.0
13454,72.0,3.0,30.0,10.0,0.0
13455,69.0,9.0,30.0,11.0,0.0
13456,74.0,3.0,30.0,10.0,0.0
13457,70.0,28.0,30.0,11.0,0.0
13458,58.0,1.0,60.0,3.0,0.0
13459,58.0,3.0,60.0,13.0,0.0
13460,46.0,25.0,60.0,14.0,0.0
13461,77.0,3.0,30.0,10.0,0.0
13462,74.0,78.0,30.0,11.0,0.0
13463,74.0,0.0,60.0,0.0,0.0
13464,70.0,6.0,60.0,0.0,0.0
13465,58.0,9.0,120.0,12.0,0.0
13466,62.0,0.0,120.0,12.0,0.0
13467,62.0,0.0,60.0,2.0,0.0
13468,58.0,45.0,60.0,2.0,0.0
13469,69.0,6.0,60.0,0.0,0.0
13470,72.0,0.0,60.0,0.0,0.0
13471,57.0,0.0,60.0,2.0,0.0
13472,60.0,54.0,60.0,2.0,0.0
13473,74.0,0.0,60.0,0.0,0.0
13474,70.0,6.0,60.0,0.0,0.0
13475,62.0,39.0,60.0,2.0,0.0
13476,65.0,0.0,120.0,12.0,0.0
13477,58.0,0.0,60.0,2.0,0.0
13478,62.0,54.0,120.0,12.0,0.0
13479,77.0,6.0,60.0,0.0,0.0
13480,74.0,0.0,60.0,0.0,0.0
13481,65.0,0.0,60.0,2.0,0.0
13482,62.0,15.0,60.0,2.0,0.0
13483,75.0,0.0,60.0,0.0,0.0
13484,72.0,6.0,60.0,0.0,0.0
13485,63.0,54.0,60.0,2.0,0.0
13486,60.0,0.0,60.0,2.0,0.0
13487,60.0,54.0,120.0,12.0,0.0
13488,70.0,6.0,60.0,0.0,0.0
13489,74.0,0.0,60.0,0.0,0.0
13490,62.0,0.0,60.0,2.0,0.0
13491,58.0,0.0,60.0,2.0,0.0
13492,75.0,0.0,60.0,0.0,0.0
13493,72.0,6.0,60.0,0.0,0.0
13494,67.0,0.0,120.0,12.0,0.0
13495,63.0,0.0,15.0,12.0,0.0
13496,63.0,0.0,60.0,2.0,0.0
13497,60.0,39.0,60.0,2.0,0.0
13498,75.0,0.0,60.0,0.0,0.0
13499,79.0,6.0,60.0,0.0,0.0
13500,67.0,0.0,60.0,2.0,0.0
13501,63.0,15.0,60.0,2.0,0.0
13502,74.0,6.0,60.0,0.0,0.0
13503,77.0,0.0,60.0,0.0,0.0
13504,65.0,0.0,60.0,2.0,0.0
13505,62.0,54.0,60.0,2.0,0.0
13506,62.0,0.0,120.0,12.0,0.0
13507,65.0,0.0,120.0,12.0,0.0
13508,72.0,6.0,60.0,0.0,0.0
13509,75.0,0.0,60.0,0.0,0.0
13510,60.0,39.0,60.0,2.0,0.0
13511,63.0,0.0,60.0,2.0,0.0
13512,74.0,3.0,120.0,10.0,0.0
13513,74.0,0.0,60.0,0.0,0.0
13514,77.0,6.0,60.0,0.0,0.0
13515,70.0,4.0,120.0,11.0,0.0
13516,74.0,54.0,120.0,12.0,0.0
13517,65.0,39.0,60.0,2.0,0.0
13518,62.0,0.0,60.0,2.0,0.0
13519,82.0,6.0,30.0,0.0,0.0
13520,86.0,0.0,30.0,0.0,0.0
13521,70.0,0.0,30.0,2.0,0.0
13522,74.0,23.0,30.0,2.0,0.0
13523,70.0,1.0,120.0,10.0,0.0
13524,81.0,6.0,60.0,0.0,0.0
13525,84.0,0.0,60.0,0.0,0.0
13526,67.0,4.0,120.0,11.0,0.0
13527,69.0,53.0,60.0,2.0,0.0
13528,72.0,0.0,60.0,2.0,0.0
13529,70.0,0.0,15.0,12.0,0.0
13530,79.0,2.0,60.0,0.0,0.0
13531,82.0,0.0,60.0,0.0,0.0
13532,70.0,0.0,60.0,2.0,0.0
13533,67.0,0.0,60.0,2.0,0.0
13534,67.0,1.0,120.0,10.0,0.0
13535,77.0,6.0,60.0,0.0,0.0
13536,81.0,0.0,60.0,0.0,0.0
13537,63.0,4.0,120.0,11.0,0.0
13538,67.0,54.0,15.0,12.0,0.0
13539,69.0,0.0,60.0,2.0,0.0
13540,65.0,53.0,60.0,2.0,0.0
13541,63.0,0.0,120.0,12.0,0.0
13542,79.0,0.0,60.0,0.0,0.0
13543,75.0,2.0,60.0,0.0,0.0
13544,63.0,0.0,60.0,2.0,0.0
13545,67.0,0.0,60.0,2.0,0.0
13546,63.0,1.0,120.0,10.0,0.0
13547,77.0,0.0,60.0,0.0,0.0
13548,74.0,6.0,60.0,0.0,0.0
13549,60.0,4.0,120.0,11.0,0.0
13550,65.0,0.0,60.0,2.0,0.0
13551,62.0,53.0,60.0,2.0,0.0
13552,63.0,0.0,120.0,12.0,0.0
13553,75.0,0.0,60.0,0.0,0.0
13554,72.0,2.0,60.0,0.0,0.0
13555,63.0,0.0,60.0,2.0,0.0
13556,60.0,54.0,60.0,2.0,0.0
13557,60.0,3.0,120.0,10.0,0.0
13558,74.0,6.0,60.0,0.0,0.0
13559,70.0,0.0,60.0,0.0,0.0
13560,57.0,4.0,120.0,11.0,0.0
13561,60.0,0.0,15.0,12.0,0.0
13562,62.0,0.0,60.0,2.0,0.0
13563,57.0,54.0,120.0,12.0,0.0
13564,58.0,39.0,60.0,2.0,0.0
13565,69.0,0.0,60.0,0.0,0.0
13566,72.0,6.0,60.0,0.0,0.0
13567,57.0,8.0,60.0,2.0,0.0
13568,60.0,0.0,60.0,2.0,0.0
13569,75.0,1.0,120.0,10.0,0.0
13570,87.0,6.0,60.0,0.0,0.0
13571,84.0,0.0,60.0,0.0,0.0
13572,72.0,4.0,120.0,11.0,0.0
13573,75.0,0.0,120.0,12.0,0.0
13574,72.0,53.0,60.0,2.0,0.0
13575,75.0,0.0,60.0,2.0,0.0
13576,86.0,2.0,60.0,0.0,0.0
13577,82.0,0.0,60.0,0.0,0.0
13578,70.0,54.0,60.0,2.0,0.0
13579,74.0,0.0,60.0,2.0,0.0
13580,72.0,1.0,120.0,10.0,0.0
13581,84.0,6.0,60.0,0.0,0.0
13582,81.0,0.0,60.0,0.0,0.0
13583,69.0,4.0,120.0,11.0,0.0
13584,69.0,0.0,120.0,12.0,0.0
13585,72.0,0.0,15.0,12.0,0.0
13586,69.0,0.0,60.0,2.0,0.0
13587,72.0,53.0,60.0,2.0,0.0
13588,79.0,2.0,60.0,0.0,0.0
13589,82.0,0.0,60.0,0.0,0.0
13590,70.0,0.0,60.0,2.0,0.0
13591,67.0,54.0,60.0,2.0,0.0
13592,69.0,1.0,120.0,10.0,0.0
13593,81.0,0.0,60.0,0.0,0.0
13594,77.0,6.0,60.0,0.0,0.0
13595,65.0,4.0,120.0,11.0,0.0
13596,69.0,0.0,60.0,2.0,0.0
13597,63.0,0.0,120.0,12.0,0.0
13598,69.0,0.0,120.0,12.0,0.0
13599,65.0,53.0,60.0,2.0,0.0
13600,75.0,0.0,60.0,0.0,0.0
13601,79.0,2.0,60.0,0.0,0.0
13602,67.0,0.0,60.0,2.0,0.0
13603,63.0,54.0,60.0,2.0,0.0
13604,63.0,3.0,120.0,10.0,0.0
13605,74.0,6.0,60.0,0.0,0.0
13606,77.0,0.0,60.0,0.0,0.0
13607,60.0,4.0,120.0,11.0,0.0
13608,65.0,0.0,60.0,2.0,0.0
13609,60.0,5.0,120.0,12.0,0.0
13610,62.0,39.0,60.0,2.0,0.0
13611,63.0,0.0,120.0,12.0,0.0
13612,41.0,34.0,120.0,13.0,0.0
13613,75.0,6.0,60.0,0.0,0.0
13614,72.0,0.0,60.0,0.0,0.0
13615,60.0,8.0,60.0,2.0,0.0
13616,63.0,0.0,60.0,2.0,0.0
13617,62.0,3.0,120.0,10.0,0.0
13618,74.0,6.0,60.0,0.0,0.0
13619,70.0,0.0,60.0,0.0,0.0
13620,58.0,1.0,120.0,11.0,0.0
13621,70.0,7.0,60.0,1.0,0.0
13622,74.0,0.0,60.0,1.0,0.0
13623,62.0,12.0,60.0,2.0,0.0
13624,58.0,0.0,60.0,2.0,0.0
13625,58.0,4.0,120.0,12.0,0.0
13626,46.0,49.0,60.0,3.0,0.0
13627,50.0,0.0,60.0,3.0,0.0
13628,46.0,52.0,120.0,13.0,0.0
13629,69.0,3.0,60.0,1.0,0.0
13630,72.0,0.0,60.0,1.0,0.0
13631,45.0,1.0,60.0,3.0,0.0
13632,48.0,0.0,60.0,3.0,0.0
13633,70.0,0.0,60.0,1.0,0.0
13634,62.0,0.0,15.0,12.0,0.0
13635,65.0,4.0,120.0,12.0,0.0
13636,46.0,53.0,60.0,3.0,0.0
13637,74.0,7.0,15.0,1.0,0.0
13638,77.0,0.0,60.0,1.0,0.0
13639,50.0,0.0,15.0,3.0,0.0
13640,53.0,50.0,60.0,3.0,0.0
13641,62.0,1.0,120.0,10.0,0.0
13642,70.0,6.0,60.0,0.0,0.0
13643,74.0,0.0,60.0,0.0,0.0
13644,58.0,4.0,120.0,11.0,0.0
13645,58.0,53.0,60.0,2.0,0.0
13646,62.0,0.0,60.0,2.0,0.0
13647,62.0,0.0,15.0,12.0,0.0
13648,58.0,54.0,120.0,12.0,0.0
13649,69.0,2.0,60.0,0.0,0.0
13650,73.0,0.0,60.0,0.0,0.0
13651,57.0,0.0,60.0,2.0,0.0
13652,61.0,0.0,60.0,2.0,0.0
13653,65.0,3.0,120.0,10.0,0.0
13654,74.0,6.0,60.0,0.0,0.0
13655,70.0,0.0,60.0,0.0,0.0
13656,62.0,4.0,120.0,11.0,0.0
13657,58.0,0.0,60.0,2.0,0.0
13658,65.0,0.0,120.0,12.0,0.0
13659,62.0,39.0,120.0,12.0,0.0
13660,77.0,6.0,60.0,0.0,0.0
13661,74.0,0.0,60.0,0.0,0.0
13662,62.0,39.0,15.0,2.0,0.0
13663,65.0,0.0,60.0,2.0,0.0
13664,69.0,3.0,120.0,10.0,0.0
13665,73.0,0.0,60.0,0.0,0.0
13666,81.0,6.0,60.0,0.0,0.0
13667,61.0,1.0,120.0,11.0,0.0
13668,76.0,0.0,60.0,1.0,0.0
13669,73.0,7.0,60.0,1.0,0.0
13670,61.0,0.0,60.0,2.0,0.0
13671,61.0,4.0,120.0,12.0,0.0
13672,69.0,12.0,60.0,2.0,0.0
13673,52.0,0.0,60.0,3.0,0.0
13674,49.0,49.0,60.0,3.0,0.0
13675,45.0,52.0,120.0,13.0,0.0
13676,71.0,3.0,60.0,1.0,0.0
13677,74.0,0.0,60.0,1.0,0.0
13678,50.0,0.0,60.0,3.0,0.0
13679,47.0,1.0,60.0,3.0,0.0
13680,73.0,0.0,60.0,1.0,0.0
13681,64.0,0.0,15.0,12.0,0.0
13682,67.0,0.0,120.0,12.0,0.0
13683,49.0,38.0,60.0,3.0,0.0
13684,52.0,0.0,60.0,3.0,0.0
13685,33.0,37.0,120.0,13.0,0.0
13686,79.0,0.0,60.0,1.0,0.0
13687,76.0,7.0,15.0,1.0,0.0
13688,55.0,11.0,60.0,3.0,0.0
13689,45.0,0.0,60.0,3.0,0.0
13690,65.0,1.0,120.0,10.0,0.0
13691,77.0,6.0,60.0,0.0,0.0
13692,74.0,0.0,60.0,0.0,0.0
13693,62.0,4.0,120.0,11.0,0.0
13694,69.0,7.0,60.0,1.0,0.0
13695,77.0,0.0,60.0,1.0,0.0
13696,62.0,0.0,120.0,12.0,0.0
13697,65.0,53.0,60.0,2.0,0.0
13698,62.0,0.0,60.0,2.0,0.0
13699,53.0,0.0,60.0,3.0,0.0
13700,50.0,5.0,60.0,3.0,0.0
13701,38.0,49.0,120.0,13.0,0.0
13702,72.0,2.0,60.0,0.0,0.0
13703,76.0,0.0,60.0,0.0,0.0
13704,64.0,5.0,60.0,2.0,0.0
13705,60.0,0.0,60.0,2.0,0.0
13706,69.0,3.0,120.0,10.0,0.0
13707,77.0,0.0,60.0,0.0,0.0
13708,74.0,6.0,60.0,0.0,0.0
13709,65.0,4.0,120.0,11.0,0.0
13710,65.0,0.0,15.0,12.0,0.0
13711,69.0,0.0,120.0,12.0,0.0
13712,62.0,0.0,60.0,2.0,0.0
13713,81.0,6.0,60.0,0.0,0.0
13714,77.0,0.0,60.0,0.0,0.0
13715,65.0,39.0,15.0,2.0,0.0
13716,69.0,8.0,60.0,2.0,0.0
13717,72.0,3.0,120.0,10.0,0.0
13718,76.0,0.0,60.0,0.0,0.0
13719,84.0,6.0,60.0,0.0,0.0
13720,64.0,1.0,120.0,11.0,0.0
13721,79.0,0.0,60.0,1.0,0.0
13722,76.0,7.0,60.0,1.0,0.0
13723,64.0,4.0,120.0,12.0,0.0
13724,72.0,12.0,60.0,2.0,0.0
13725,64.0,0.0,60.0,2.0,0.0
13726,52.0,49.0,60.0,3.0,0.0
13727,55.0,0.0,60.0,3.0,0.0
13728,48.0,52.0,120.0,13.0,0.0
13729,77.0,0.0,60.0,1.0,0.0
13730,74.0,3.0,60.0,1.0,0.0
13731,53.0,1.0,60.0,3.0,0.0
13732,50.0,0.0,60.0,3.0,0.0
13733,76.0,7.0,60.0,1.0,0.0
13734,79.0,0.0,60.0,1.0,0.0
13735,67.0,0.0,15.0,12.0,0.0
13736,70.0,0.0,120.0,12.0,0.0
13737,52.0,38.0,60.0,3.0,0.0
13738,55.0,0.0,60.0,3.0,0.0
13739,36.0,37.0,120.0,13.0,0.0
13740,79.0,7.0,60.0,1.0,0.0
13741,82.0,0.0,60.0,1.0,0.0
13742,58.0,0.0,60.0,3.0,0.0
13743,48.0,11.0,60.0,3.0,0.0
13744,69.0,1.0,120.0,10.0,0.0
13745,77.0,6.0,60.0,0.0,0.0
13746,81.0,0.0,60.0,0.0,0.0
13747,65.0,4.0,120.0,11.0,0.0
13748,72.0,0.0,60.0,1.0,0.0
13749,81.0,7.0,60.0,1.0,0.0
13750,65.0,0.0,60.0,2.0,0.0
13751,69.0,53.0,60.0,2.0,0.0
13752,65.0,0.0,120.0,12.0,0.0
13753,57.0,0.0,60.0,3.0,0.0
13754,53.0,5.0,60.0,3.0,0.0
13755,53.0,49.0,120.0,13.0,0.0
13756,76.0,0.0,60.0,0.0,0.0
13757,79.0,2.0,60.0,0.0,0.0
13758,67.0,0.0,60.0,2.0,0.0
13759,64.0,0.0,60.0,2.0,0.0
13760,72.0,3.0,120.0,10.0,0.0
13761,77.0,6.0,60.0,0.0,0.0
13762,81.0,0.0,60.0,0.0,0.0
13763,65.0,39.0,60.0,2.0,0.0
13764,69.0,0.0,60.0,2.0,0.0
13765,72.0,0.0,120.0,12.0,0.0
13766,69.0,5.0,15.0,12.0,0.0
13767,48.0,34.0,120.0,13.0,0.0
13768,84.0,0.0,60.0,0.0,0.0
13769,81.0,6.0,60.0,0.0,0.0
13770,72.0,8.0,60.0,2.0,0.0
13771,69.0,0.0,60.0,2.0,0.0
13772,75.0,3.0,120.0,10.0,0.0
13773,84.0,18.0,60.0,0.0,0.0
13774,87.0,0.0,60.0,0.0,0.0
13775,60.0,0.0,120.0,11.0,0.0
13776,53.0,1.0,120.0,11.0,0.0
13777,69.0,4.0,15.0,11.0,0.0
13778,72.0,3.0,60.0,1.0,0.0
13779,75.0,0.0,60.0,1.0,0.0
13780,72.0,0.0,120.0,12.0,0.0
13781,72.0,4.0,60.0,2.0,0.0
13782,75.0,0.0,60.0,2.0,0.0
13783,75.0,4.0,120.0,12.0,0.0
13784,60.0,35.0,60.0,3.0,0.0
13785,63.0,0.0,60.0,3.0,0.0
13786,41.0,49.0,120.0,13.0,0.0
13787,82.0,14.0,60.0,0.0,0.0
13788,86.0,0.0,60.0,0.0,0.0
13789,74.0,3.0,60.0,1.0,0.0
13790,70.0,0.0,60.0,1.0,0.0
13791,62.0,1.0,60.0,3.0,0.0
13792,58.0,0.0,60.0,3.0,0.0
13793,84.0,3.0,60.0,0.0,0.0
13794,81.0,0.0,60.0,0.0,0.0
13795,72.0,7.0,60.0,1.0,0.0
13796,69.0,0.0,60.0,1.0,0.0
13797,57.0,50.0,60.0,3.0,0.0
13798,60.0,0.0,60.0,3.0,0.0
13799,82.0,0.0,60.0,0.0,0.0
13800,79.0,3.0,60.0,0.0,0.0
13801,67.0,7.0,60.0,1.0,0.0
13802,70.0,0.0,60.0,1.0,0.0
13803,55.0,50.0,60.0,3.0,0.0
13804,58.0,0.0,60.0,3.0,0.0
13805,77.0,3.0,60.0,0.0,0.0
13806,81.0,0.0,60.0,0.0,0.0
13807,65.0,0.0,60.0,1.0,0.0
13808,69.0,7.0,60.0,1.0,0.0
13809,53.0,50.0,60.0,3.0,0.0
13810,57.0,0.0,60.0,3.0,0.0
13811,75.0,3.0,60.0,0.0,0.0
13812,79.0,0.0,60.0,0.0,0.0
13813,67.0,0.0,60.0,1.0,0.0
13814,63.0,7.0,60.0,1.0,0.0
13815,51.0,0.0,60.0,3.0,0.0
13816,55.0,50.0,60.0,3.0,0.0
13817,77.0,3.0,60.0,0.0,0.0
13818,74.0,0.0,60.0,0.0,0.0
13819,65.0,0.0,60.0,1.0,0.0
13820,62.0,7.0,60.0,1.0,0.0
13821,53.0,0.0,60.0,3.0,0.0
13822,50.0,35.0,60.0,3.0,0.0
13823,75.0,0.0,60.0,0.0,0.0
13824,72.0,3.0,60.0,0.0,0.0
13825,60.0,0.0,60.0,1.0,0.0
13826,63.0,7.0,60.0,1.0,0.0
13827,48.0,0.0,60.0,3.0,0.0
13828,51.0,53.0,60.0,3.0,0.0
13829,62.0,1.0,120.0,10.0,0.0
13830,70.0,0.0,60.0,0.0,0.0
13831,74.0,6.0,60.0,0.0,0.0
13832,58.0,4.0,120.0,11.0,0.0
13833,62.0,0.0,60.0,1.0,0.0
13834,58.0,12.0,60.0,1.0,0.0
13835,62.0,0.0,60.0,2.0,0.0
13836,46.0,5.0,120.0,12.0,0.0
13837,58.0,53.0,60.0,2.0,0.0
13838,46.0,49.0,120.0,13.0,0.0
13839,72.0,0.0,60.0,0.0,0.0
13840,75.0,2.0,60.0,0.0,0.0
13841,63.0,0.0,60.0,2.0,0.0
13842,60.0,0.0,60.0,2.0,0.0
13843,65.0,1.0,120.0,10.0,0.0
13844,77.0,0.0,60.0,0.0,0.0
13845,74.0,6.0,60.0,0.0,0.0
13846,62.0,4.0,120.0,11.0,0.0
13847,62.0,53.0,60.0,2.0,0.0
13848,65.0,0.0,60.0,2.0,0.0
13849,50.0,0.0,120.0,12.0,0.0
13850,50.0,49.0,120.0,13.0,0.0
13851,79.0,0.0,60.0,0.0,0.0
13852,75.0,2.0,60.0,0.0,0.0
13853,67.0,0.0,60.0,2.0,0.0
13854,63.0,5.0,60.0,2.0,0.0
13855,70.0,1.0,120.0,10.0,0.0
13856,81.0,6.0,60.0,0.0,0.0
13857,77.0,0.0,60.0,0.0,0.0
13858,67.0,4.0,120.0,11.0,0.0
13859,55.0,5.0,120.0,12.0,0.0
13860,69.0,53.0,60.0,2.0,0.0
13861,65.0,0.0,60.0,2.0,0.0
13862,55.0,49.0,120.0,13.0,0.0
13863,79.0,2.0,60.0,0.0,0.0
13864,82.0,0.0,60.0,0.0,0.0
13865,67.0,0.0,60.0,2.0,0.0
13866,70.0,0.0,60.0,2.0,0.0
13867,67.0,3.0,120.0,10.0,0.0
13868,81.0,6.0,60.0,0.0,0.0
13869,77.0,0.0,60.0,0.0,0.0
13870,63.0,4.0,120.0,11.0,0.0
13871,65.0,39.0,60.0,2.0,0.0
13872,69.0,0.0,60.0,2.0,0.0
13873,51.0,5.0,120.0,12.0,0.0
13874,51.0,49.0,120.0,13.0,0.0
13875,79.0,6.0,60.0,0.0,0.0
13876,75.0,0.0,60.0,0.0,0.0
13877,67.0,0.0,60.0,2.0,0.0
13878,63.0,8.0,60.0,2.0,0.0
13879,63.0,1.0,120.0,10.0,0.0
13880,74.0,0.0,60.0,0.0,0.0
13881,77.0,6.0,60.0,0.0,0.0
13882,60.0,4.0,120.0,11.0,0.0
13883,48.0,0.0,120.0,12.0,0.0
13884,62.0,0.0,60.0,2.0,0.0
13885,65.0,53.0,60.0,2.0,0.0
13886,48.0,49.0,120.0,13.0,0.0
13887,75.0,0.0,60.0,0.0,0.0
13888,72.0,2.0,60.0,0.0,0.0
13889,60.0,5.0,60.0,2.0,0.0
13890,63.0,0.0,60.0,2.0,0.0
13891,62.0,1.0,120.0,10.0,0.0
13892,74.0,6.0,60.0,0.0,0.0
13893,70.0,0.0,60.0,0.0,0.0
13894,58.0,4.0,120.0,11.0,0.0
13895,46.0,5.0,120.0,12.0,0.0
13896,62.0,53.0,60.0,2.0,0.0
13897,58.0,0.0,60.0,2.0,0.0
13898,46.0,49.0,120.0,13.0,0.0
13899,72.0,2.0,60.0,0.0,0.0
13900,75.0,0.0,60.0,0.0,0.0
13901,63.0,0.0,60.0,2.0,0.0
13902,60.0,0.0,60.0,2.0,0.0
13903,65.0,1.0,120.0,10.0,0.0
13904,74.0,0.0,60.0,0.0,0.0
13905,77.0,6.0,60.0,0.0,0.0
13906,62.0,4.0,120.0,11.0,0.0
13907,50.0,5.0,120.0,12.0,0.0
13908,62.0,53.0,60.0,2.0,0.0
13909,65.0,0.0,60.0,2.0,0.0
13910,50.0,49.0,120.0,13.0,0.0
13911,79.0,2.0,60.0,0.0,0.0
13912,75.0,0.0,60.0,0.0,0.0
13913,67.0,0.0,60.0,2.0,0.0
13914,63.0,0.0,60.0,2.0,0.0
13915,70.0,3.0,120.0,10.0,0.0
13916,77.0,0.0,60.0,0.0,0.0
13917,81.0,6.0,60.0,0.0,0.0
13918,67.0,4.0,120.0,11.0,0.0
13919,69.0,0.0,60.0,2.0,0.0
13920,65.0,39.0,60.0,2.0,0.0
13921,55.0,5.0,120.0,12.0,0.0
13922,55.0,49.0,120.0,13.0,0.0
13923,82.0,0.0,60.0,0.0,0.0
13924,79.0,6.0,60.0,0.0,0.0
13925,70.0,8.0,60.0,2.0,0.0
13926,67.0,0.0,60.0,2.0,0.0
13927,67.0,1.0,120.0,10.0,0.0
13928,81.0,0.0,60.0,0.0,0.0
13929,77.0,6.0,60.0,0.0,0.0
13930,63.0,4.0,120.0,11.0,0.0
13931,51.0,0.0,120.0,12.0,0.0
13932,69.0,53.0,60.0,2.0,0.0
13933,65.0,0.0,60.0,2.0,0.0
13934,51.0,49.0,120.0,13.0,0.0
13935,79.0,2.0,60.0,0.0,0.0
13936,75.0,0.0,60.0,0.0,0.0
13937,63.0,5.0,60.0,2.0,0.0
13938,67.0,0.0,60.0,2.0,0.0
13939,63.0,3.0,120.0,10.0,0.0
13940,74.0,0.0,60.0,0.0,0.0
13941,77.0,6.0,60.0,0.0,0.0
13942,60.0,4.0,120.0,11.0,0.0
13943,65.0,0.0,60.0,2.0,0.0
13944,62.0,39.0,60.0,2.0,0.0
13945,48.0,5.0,120.0,12.0,0.0
13946,48.0,44.0,120.0,13.0,0.0
13947,75.0,6.0,60.0,0.0,0.0
13948,72.0,0.0,60.0,0.0,0.0
13949,60.0,0.0,60.0,2.0,0.0
13950,63.0,8.0,60.0,2.0,0.0
13951,74.0,1.0,120.0,10.0,0.0
13952,70.0,0.0,60.0,0.0,0.0
13953,74.0,3.0,60.0,0.0,0.0
13954,70.0,1.0,120.0,11.0,0.0
13955,70.0,3.0,60.0,1.0,0.0
13956,74.0,0.0,60.0,1.0,0.0
13957,58.0,49.0,60.0,2.0,0.0
13958,62.0,0.0,60.0,2.0,0.0
13959,58.0,0.0,120.0,12.0,0.0
13960,50.0,5.0,60.0,3.0,0.0
13961,46.0,0.0,60.0,3.0,0.0
13962,46.0,0.0,120.0,13.0,0.0
13963,75.0,0.0,60.0,0.0,0.0
13964,72.0,2.0,60.0,0.0,0.0
13965,72.0,3.0,60.0,1.0,0.0
13966,75.0,0.0,60.0,1.0,0.0
13967,63.0,5.0,60.0,2.0,0.0
13968,60.0,0.0,60.0,2.0,0.0
13969,48.0,0.0,60.0,3.0,0.0
13970,51.0,4.0,60.0,3.0,0.0
13971,77.0,1.0,120.0,10.0,0.0
13972,74.0,3.0,60.0,0.0,0.0
13973,77.0,0.0,60.0,0.0,0.0
13974,74.0,1.0,120.0,11.0,0.0
13975,74.0,0.0,60.0,1.0,0.0
13976,77.0,3.0,60.0,1.0,0.0
13977,62.0,49.0,60.0,2.0,0.0
13978,62.0,0.0,15.0,12.0,0.0
13979,65.0,0.0,120.0,12.0,0.0
13980,65.0,0.0,60.0,2.0,0.0
13981,50.0,5.0,60.0,3.0,0.0
13982,53.0,0.0,60.0,3.0,0.0
13983,50.0,44.0,15.0,13.0,0.0
13984,53.0,0.0,120.0,13.0,0.0
13985,79.0,0.0,60.0,0.0,0.0
13986,75.0,2.0,60.0,0.0,0.0
13987,79.0,0.0,60.0,1.0,0.0
13988,75.0,3.0,60.0,1.0,0.0
13989,67.0,0.0,60.0,2.0,0.0
13990,63.0,5.0,60.0,2.0,0.0
13991,55.0,0.0,60.0,3.0,0.0
13992,51.0,4.0,60.0,3.0,0.0
13993,82.0,1.0,120.0,10.0,0.0
13994,81.0,0.0,60.0,0.0,0.0
13995,77.0,3.0,60.0,0.0,0.0
13996,79.0,1.0,120.0,11.0,0.0
13997,77.0,0.0,60.0,1.0,0.0
13998,81.0,3.0,60.0,1.0,0.0
13999,69.0,4.0,60.0,2.0,0.0
14000,65.0,0.0,60.0,2.0,0.0
14001,70.0,0.0,120.0,12.0,0.0
14002,57.0,49.0,60.0,3.0,0.0
14003,53.0,0.0,60.0,3.0,0.0
14004,58.0,0.0,120.0,13.0,0.0
14005,55.0,49.0,120.0,13.0,0.0
14006,82.0,2.0,60.0,0.0,0.0
14007,79.0,0.0,60.0,0.0,0.0
14008,82.0,0.0,60.0,1.0,0.0
14009,79.0,3.0,60.0,1.0,0.0
14010,67.0,4.0,60.0,2.0,0.0
14011,70.0,0.0,60.0,2.0,0.0
14012,55.0,1.0,60.0,3.0,0.0
14013,58.0,0.0,60.0,3.0,0.0
14014,79.0,3.0,120.0,10.0,0.0
14015,81.0,0.0,60.0,0.0,0.0
14016,77.0,3.0,60.0,0.0,0.0
14017,75.0,4.0,120.0,11.0,0.0
14018,81.0,0.0,60.0,1.0,0.0
14019,77.0,3.0,60.0,1.0,0.0
14020,67.0,0.0,15.0,12.0,0.0
14021,65.0,4.0,60.0,2.0,0.0
14022,63.0,0.0,120.0,12.0,0.0
14023,69.0,0.0,60.0,2.0,0.0
14024,57.0,0.0,60.0,3.0,0.0
14025,53.0,35.0,60.0,3.0,0.0
14026,55.0,49.0,120.0,13.0,0.0
14027,51.0,0.0,120.0,13.0,0.0
14028,79.0,3.0,60.0,0.0,0.0
14029,75.0,0.0,60.0,0.0,0.0
14030,75.0,3.0,60.0,1.0,0.0
14031,79.0,0.0,60.0,1.0,0.0
14032,63.0,0.0,60.0,2.0,0.0
14033,67.0,4.0,60.0,2.0,0.0
14034,51.0,0.0,60.0,3.0,0.0
14035,55.0,4.0,60.0,3.0,0.0
14036,75.0,1.0,120.0,10.0,0.0
14037,77.0,0.0,60.0,0.0,0.0
14038,74.0,3.0,60.0,0.0,0.0
14039,72.0,1.0,120.0,11.0,0.0
14040,77.0,0.0,60.0,1.0,0.0
14041,74.0,3.0,60.0,1.0,0.0
14042,63.0,0.0,120.0,12.0,0.0
14043,62.0,0.0,60.0,2.0,0.0
14044,60.0,0.0,120.0,12.0,0.0
14045,65.0,4.0,60.0,2.0,0.0
14046,53.0,49.0,60.0,3.0,0.0
14047,50.0,0.0,60.0,3.0,0.0
14048,48.0,0.0,120.0,13.0,0.0
14049,51.0,49.0,120.0,13.0,0.0
14050,72.0,2.0,60.0,0.0,0.0
14051,75.0,0.0,60.0,0.0,0.0
14052,75.0,3.0,60.0,1.0,0.0
14053,72.0,0.0,60.0,1.0,0.0
14054,63.0,0.0,60.0,2.0,0.0
14055,60.0,4.0,60.0,2.0,0.0
14056,51.0,0.0,60.0,3.0,0.0
14057,48.0,1.0,60.0,3.0,0.0
14058,74.0,1.0,120.0,10.0,0.0
14059,70.0,3.0,60.0,0.0,0.0
14060,74.0,0.0,60.0,0.0,0.0
14061,70.0,1.0,120.0,11.0,0.0
14062,70.0,3.0,60.0,1.0,0.0
14063,74.0,0.0,60.0,1.0,0.0
14064,62.0,0.0,60.0,2.0,0.0
14065,58.0,0.0,120.0,12.0,0.0
14066,58.0,4.0,60.0,2.0,0.0
14067,46.0,49.0,60.0,3.0,0.0
14068,50.0,0.0,60.0,3.0,0.0
14069,46.0,49.0,120.0,13.0,0.0
14070,72.0,0.0,60.0,0.0,0.0
14071,75.0,2.0,60.0,0.0,0.0
14072,72.0,3.0,60.0,1.0,0.0
14073,75.0,0.0,60.0,1.0,0.0
14074,63.0,0.0,60.0,2.0,0.0
14075,60.0,4.0,60.0,2.0,0.0
14076,51.0,0.0,60.0,3.0,0.0
14077,48.0,1.0,60.0,3.0,0.0
14078,77.0,1.0,120.0,10.0,0.0
14079,77.0,0.0,60.0,0.0,0.0
14080,74.0,3.0,60.0,0.0,0.0
14081,74.0,1.0,120.0,11.0,0.0
14082,77.0,0.0,60.0,1.0,0.0
14083,74.0,3.0,60.0,1.0,0.0
14084,62.0,0.0,15.0,12.0,0.0
14085,65.0,0.0,120.0,12.0,0.0
14086,62.0,0.0,60.0,2.0,0.0
14087,65.0,4.0,60.0,2.0,0.0
14088,53.0,49.0,60.0,3.0,0.0
14089,50.0,0.0,60.0,3.0,0.0
14090,50.0,0.0,15.0,13.0,0.0
14091,53.0,49.0,120.0,13.0,0.0
14092,79.0,2.0,60.0,0.0,0.0
14093,75.0,0.0,60.0,0.0,0.0
14094,79.0,0.0,60.0,1.0,0.0
14095,75.0,3.0,60.0,1.0,0.0
14096,67.0,0.0,60.0,2.0,0.0
14097,63.0,4.0,60.0,2.0,0.0
14098,51.0,1.0,60.0,3.0,0.0
14099,55.0,0.0,60.0,3.0,0.0
14100,82.0,3.0,120.0,10.0,0.0
14101,81.0,0.0,60.0,0.0,0.0
14102,77.0,3.0,60.0,0.0,0.0
14103,79.0,4.0,120.0,11.0,0.0
14104,81.0,0.0,60.0,1.0,0.0
14105,77.0,3.0,60.0,1.0,0.0
14106,65.0,4.0,60.0,2.0,0.0
14107,69.0,0.0,60.0,2.0,0.0
14108,67.0,5.0,120.0,12.0,0.0
14109,70.0,0.0,120.0,12.0,0.0
14110,57.0,0.0,60.0,3.0,0.0
14111,53.0,35.0,60.0,3.0,0.0
14112,58.0,49.0,120.0,13.0,0.0
14113,55.0,0.0,120.0,13.0,0.0
14114,82.0,0.0,60.0,0.0,0.0
14115,79.0,3.0,60.0,0.0,0.0
14116,82.0,0.0,60.0,1.0,0.0
14117,79.0,3.0,60.0,1.0,0.0
14118,67.0,0.0,60.0,2.0,0.0
14119,70.0,4.0,60.0,2.0,0.0
14120,55.0,4.0,60.0,3.0,0.0
14121,58.0,0.0,60.0,3.0,0.0
14122,75.0,1.0,120.0,10.0,0.0
14123,77.0,3.0,60.0,0.0,0.0
14124,81.0,0.0,60.0,0.0,0.0
14125,72.0,1.0,120.0,11.0,0.0
14126,81.0,3.0,60.0,1.0,0.0
14127,77.0,0.0,60.0,1.0,0.0
14128,63.0,0.0,120.0,12.0,0.0
14129,69.0,0.0,60.0,2.0,0.0
14130,60.0,0.0,120.0,12.0,0.0
14131,65.0,4.0,60.0,2.0,0.0
14132,53.0,49.0,60.0,3.0,0.0
14133,57.0,0.0,60.0,3.0,0.0
14134,48.0,49.0,120.0,13.0,0.0
14135,51.0,0.0,120.0,13.0,0.0
14136,75.0,2.0,60.0,0.0,0.0
14137,79.0,0.0,60.0,0.0,0.0
14138,75.0,0.0,60.0,1.0,0.0
14139,79.0,3.0,60.0,1.0,0.0
14140,63.0,4.0,60.0,2.0,0.0
14141,67.0,0.0,60.0,2.0,0.0
14142,51.0,0.0,60.0,3.0,0.0
14143,55.0,1.0,60.0,3.0,0.0
14144,74.0,3.0,60.0,0.0,0.0
14145,77.0,0.0,60.0,0.0,0.0
14146,77.0,0.0,60.0,1.0,0.0
14147,74.0,3.0,60.0,1.0,0.0
14148,62.0,0.0,60.0,2.0,0.0
14149,65.0,4.0,60.0,2.0,0.0
14150,53.0,35.0,60.0,3.0,0.0
14151,50.0,0.0,60.0,3.0,0.0
14152,75.0,3.0,60.0,0.0,0.0
14153,72.0,0.0,60.0,0.0,0.0
14154,75.0,3.0,60.0,1.0,0.0
14155,72.0,0.0,60.0,1.0,0.0
14156,60.0,4.0,60.0,2.0,0.0
14157,63.0,0.0,60.0,2.0,0.0
14158,51.0,0.0,60.0,3.0,0.0
14159,48.0,64.0,60.0,3.0,0.0
14160,74.0,1.0,60.0,10.0,0.0
14161,74.0,2.0,60.0,0.0,0.0
14162,62.0,1.0,60.0,11.0,0.0
14163,74.0,1.0,60.0,1.0,0.0
14164,50.0,2.0,60.0,4.0,0.0
14165,62.0,0.0,60.0,2.0,0.0
14166,50.0,4.0,60.0,12.0,0.0
14167,58.0,0.0,60.0,2.0,0.0
14168,50.0,1.0,60.0,3.0,0.0
14169,46.0,0.0,60.0,3.0,0.0
14170,38.0,48.0,60.0,13.0,0.0
14171,75.0,3.0,60.0,10.0,0.0
14172,63.0,4.0,60.0,11.0,0.0
14173,51.0,5.0,60.0,12.0,0.0
14174,39.0,48.0,60.0,13.0,0.0
14175,77.0,1.0,60.0,10.0,0.0
14176,77.0,2.0,60.0,0.0,0.0
14177,65.0,1.0,60.0,11.0,0.0
14178,65.0,1.0,60.0,1.0,0.0
14179,53.0,2.0,60.0,4.0,0.0
14180,53.0,4.0,60.0,12.0,0.0
14181,65.0,0.0,60.0,2.0,0.0
14182,41.0,0.0,60.0,3.0,0.0
14183,53.0,1.0,60.0,3.0,0.0
14184,41.0,48.0,60.0,13.0,0.0
14185,79.0,3.0,60.0,10.0,0.0
14186,67.0,4.0,60.0,11.0,0.0
14187,55.0,5.0,60.0,12.0,0.0
14188,43.0,48.0,60.0,13.0,0.0
14189,81.0,1.0,60.0,10.0,0.0
14190,82.0,2.0,60.0,0.0,0.0
14191,69.0,1.0,60.0,11.0,0.0
14192,70.0,1.0,60.0,1.0,0.0
14193,58.0,2.0,60.0,4.0,0.0
14194,70.0,0.0,60.0,2.0,0.0
14195,57.0,4.0,60.0,12.0,0.0
14196,46.0,0.0,60.0,3.0,0.0
14197,58.0,1.0,60.0,3.0,0.0
14198,45.0,33.0,60.0,13.0,0.0
14199,82.0,3.0,60.0,10.0,0.0
14200,70.0,4.0,60.0,11.0,0.0
14201,58.0,5.0,60.0,12.0,0.0
14202,46.0,63.0,60.0,13.0,0.0
14203,74.0,1.0,60.0,10.0,0.0
14204,74.0,2.0,60.0,0.0,0.0
14205,62.0,1.0,60.0,11.0,0.0
14206,62.0,1.0,60.0,1.0,0.0
14207,50.0,2.0,60.0,4.0,0.0
14208,50.0,4.0,60.0,12.0,0.0
14209,62.0,0.0,60.0,2.0,0.0
14210,50.0,0.0,60.0,3.0,0.0
14211,38.0,1.0,60.0,3.0,0.0
14212,38.0,48.0,60.0,13.0,0.0
14213,75.0,3.0,60.0,10.0,0.0
14214,63.0,4.0,60.0,11.0,0.0
14215,51.0,5.0,60.0,12.0,0.0
14216,39.0,48.0,60.0,13.0,0.0
14217,77.0,1.0,60.0,10.0,0.0
14218,77.0,2.0,60.0,0.0,0.0
14219,65.0,1.0,60.0,11.0,0.0
14220,65.0,1.0,60.0,1.0,0.0
14221,53.0,2.0,60.0,4.0,0.0
14222,53.0,4.0,60.0,12.0,0.0
14223,65.0,0.0,60.0,2.0,0.0
14224,53.0,0.0,60.0,3.0,0.0
14225,41.0,1.0,60.0,3.0,0.0
14226,41.0,48.0,60.0,13.0,0.0
14227,79.0,3.0,60.0,10.0,0.0
14228,67.0,4.0,60.0,11.0,0.0
14229,55.0,5.0,60.0,12.0,0.0
14230,43.0,48.0,60.0,13.0,0.0
14231,81.0,1.0,60.0,10.0,0.0
14232,82.0,2.0,60.0,0.0,0.0
14233,69.0,1.0,60.0,11.0,0.0
14234,70.0,1.0,60.0,1.0,0.0
14235,58.0,2.0,60.0,4.0,0.0
14236,70.0,4.0,60.0,2.0,0.0
14237,57.0,0.0,60.0,12.0,0.0
14238,46.0,1.0,60.0,3.0,0.0
14239,58.0,0.0,60.0,3.0,0.0
14240,45.0,33.0,60.0,13.0,0.0
14241,82.0,3.0,60.0,10.0,0.0
14242,70.0,4.0,60.0,11.0,0.0
14243,58.0,5.0,60.0,12.0,0.0
14244,46.0,63.0,60.0,13.0,0.0
14245,74.0,1.0,60.0,10.0,0.0
14246,74.0,2.0,60.0,0.0,0.0
14247,62.0,1.0,60.0,11.0,0.0
14248,62.0,1.0,60.0,1.0,0.0
14249,50.0,2.0,60.0,4.0,0.0
14250,50.0,0.0,60.0,12.0,0.0
14251,62.0,4.0,60.0,2.0,0.0
14252,50.0,0.0,60.0,3.0,0.0
14253,38.0,1.0,60.0,3.0,0.0
14254,38.0,3.0,60.0,13.0,0.0
14255,26.0,45.0,60.0,14.0,0.0
14256,75.0,3.0,60.0,10.0,0.0
14257,63.0,4.0,60.0,11.0,0.0
14258,51.0,5.0,60.0,12.0,0.0
14259,39.0,3.0,60.0,13.0,0.0
14260,27.0,45.0,60.0,14.0,0.0
14261,77.0,1.0,60.0,10.0,0.0
14262,77.0,2.0,60.0,0.0,0.0
14263,65.0,1.0,60.0,11.0,0.0
14264,65.0,1.0,60.0,1.0,0.0
14265,53.0,2.0,60.0,4.0,0.0
14266,53.0,0.0,60.0,12.0,0.0
14267,65.0,4.0,60.0,2.0,0.0
14268,53.0,1.0,60.0,3.0,0.0
14269,41.0,0.0,60.0,3.0,0.0
14270,41.0,3.0,60.0,13.0,0.0
14271,29.0,45.0,60.0,14.0,0.0
14272,79.0,3.0,60.0,10.0,0.0
14273,67.0,4.0,60.0,11.0,0.0
14274,55.0,5.0,60.0,12.0,0.0
14275,43.0,3.0,60.0,13.0,0.0
14276,31.0,45.0,60.0,14.0,0.0
14277,81.0,1.0,60.0,10.0,0.0
14278,82.0,2.0,60.0,0.0,0.0
14279,69.0,1.0,60.0,11.0,0.0
14280,70.0,1.0,60.0,1.0,0.0
14281,58.0,2.0,60.0,4.0,0.0
14282,70.0,0.0,60.0,2.0,0.0
14283,57.0,4.0,60.0,12.0,0.0
14284,46.0,0.0,60.0,3.0,0.0
14285,58.0,1.0,60.0,3.0,0.0
14286,45.0,3.0,60.0,13.0,0.0
14287,33.0,30.0,60.0,14.0,0.0
14288,82.0,3.0,60.0,10.0,0.0
14289,70.0,4.0,60.0,11.0,0.0
14290,58.0,5.0,60.0,12.0,0.0
14291,46.0,3.0,60.0,13.0,0.0
14292,34.0,25.0,60.0,14.0,0.0
14293,74.0,3.0,30.0,10.0,0.0
14294,74.0,3.0,60.0,0.0,0.0
14295,62.0,4.0,30.0,11.0,0.0
14296,62.0,1.0,60.0,1.0,0.0
14297,50.0,0.0,60.0,4.0,0.0
14298,50.0,5.0,30.0,12.0,0.0
14299,62.0,1.0,60.0,2.0,0.0
14300,38.0,0.0,60.0,3.0,0.0
14301,50.0,1.0,60.0,3.0,0.0
14302,38.0,3.0,30.0,13.0,0.0
14303,26.0,21.0,30.0,14.0,0.0
14304,75.0,2.0,30.0,10.0,0.0
14305,63.0,3.0,30.0,11.0,0.0
14306,51.0,5.0,30.0,12.0,0.0
14307,39.0,3.0,30.0,13.0,0.0
14308,27.0,25.0,30.0,14.0,0.0
14309,77.0,3.0,30.0,10.0,0.0
14310,65.0,4.0,30.0,11.0,0.0
14311,53.0,5.0,30.0,12.0,0.0
14312,41.0,3.0,30.0,13.0,0.0
14313,29.0,25.0,30.0,14.0,0.0
14314,79.0,3.0,30.0,10.0,0.0
14315,82.0,3.0,60.0,0.0,0.0
14316,67.0,4.0,30.0,11.0,0.0
14317,70.0,1.0,60.0,1.0,0.0
14318,53.0,2.0,60.0,4.0,0.0
14319,55.0,5.0,30.0,12.0,0.0
14320,70.0,1.0,60.0,2.0,0.0
14321,58.0,0.0,60.0,3.0,0.0
14322,46.0,1.0,60.0,3.0,0.0
14323,43.0,3.0,30.0,13.0,0.0
14324,31.0,21.0,30.0,14.0,0.0
14325,81.0,0.0,30.0,10.0,0.0
14326,69.0,3.0,30.0,11.0,0.0
14327,57.0,5.0,30.0,12.0,0.0
14328,45.0,3.0,30.0,13.0,0.0
14329,33.0,25.0,30.0,14.0,0.0
14330,82.0,3.0,30.0,10.0,0.0
14331,70.0,4.0,30.0,11.0,0.0
14332,58.0,5.0,30.0,12.0,0.0
14333,46.0,3.0,30.0,13.0,0.0
14334,34.0,60.0,30.0,14.0,0.0
14335,84.0,1.0,60.0,10.0,0.0
14336,86.0,2.0,60.0,0.0,0.0
14337,72.0,1.0,60.0,11.0,0.0
14338,74.0,1.0,60.0,1.0,0.0
14339,62.0,2.0,60.0,4.0,0.0
14340,60.0,4.0,60.0,12.0,0.0
14341,74.0,0.0,60.0,2.0,0.0
14342,50.0,1.0,60.0,3.0,0.0
14343,62.0,0.0,60.0,3.0,0.0
14344,48.0,3.0,60.0,13.0,0.0
14345,36.0,30.0,60.0,14.0,0.0
14346,86.0,3.0,60.0,10.0,0.0
14347,74.0,4.0,60.0,11.0,0.0
14348,62.0,5.0,60.0,12.0,0.0
14349,50.0,3.0,60.0,13.0,0.0
14350,38.0,345.0,60.0,14.0,0.0
14351,86.0,3.0,240.0,10.0,0.0
14352,78.0,0.0,240.0,0.0,0.0
14353,86.0,3.0,240.0,0.0,0.0
14354,74.0,4.0,240.0,11.0,0.0
14355,66.0,1.0,240.0,1.0,0.0
14356,74.0,0.0,240.0,1.0,0.0
14357,50.0,0.0,240.0,4.0,0.0
14358,66.0,5.0,240.0,12.0,0.0
14359,66.0,4.0,240.0,2.0,0.0
14360,57.0,0.0,240.0,12.0,0.0
14361,69.0,0.0,240.0,2.0,0.0
14362,50.0,49.0,240.0,3.0,0.0
14363,38.0,0.0,240.0,3.0,0.0
14364,38.0,3.0,240.0,13.0,0.0
14365,26.0,1.0,240.0,14.0,0.0
14366,83.0,1.0,60.0,10.0,0.0
14367,83.0,2.0,60.0,0.0,0.0
14368,79.0,0.0,60.0,0.0,0.0
14369,71.0,1.0,60.0,11.0,0.0
14370,67.0,0.0,60.0,1.0,0.0
14371,71.0,1.0,60.0,1.0,0.0
14372,62.0,2.0,15.0,4.0,0.0
14373,50.0,2.0,60.0,4.0,0.0
14374,67.0,0.0,60.0,2.0,0.0
14375,71.0,0.0,60.0,2.0,0.0
14376,59.0,4.0,60.0,12.0,0.0
14377,67.0,0.0,60.0,12.0,0.0
14378,43.0,1.0,60.0,3.0,0.0
14379,55.0,0.0,60.0,3.0,0.0
14380,43.0,3.0,60.0,13.0,0.0
14381,31.0,390.0,60.0,14.0,0.0
14382,87.0,3.0,240.0,10.0,0.0
14383,79.0,0.0,240.0,0.0,0.0
14384,87.0,3.0,240.0,0.0,0.0
14385,75.0,4.0,240.0,11.0,0.0
14386,67.0,1.0,240.0,1.0,0.0
14387,75.0,0.0,240.0,1.0,0.0
14388,60.0,2.0,240.0,4.0,0.0
14389,67.0,0.0,240.0,2.0,0.0
14390,67.0,0.0,240.0,12.0,0.0
14391,63.0,5.0,240.0,12.0,0.0
14392,48.0,0.0,240.0,5.0,0.0
14393,63.0,3.0,240.0,5.0,0.0
14394,36.0,0.0,240.0,3.0,0.0
14395,36.0,3.0,240.0,13.0,0.0
14396,24.0,1.0,240.0,14.0,0.0
14397,81.0,1.0,60.0,10.0,0.0
14398,75.0,0.0,60.0,0.0,0.0
14399,81.0,2.0,60.0,0.0,0.0
14400,69.0,1.0,60.0,11.0,0.0
14401,63.0,0.0,60.0,1.0,0.0
14402,69.0,1.0,60.0,1.0,0.0
14403,60.0,2.0,60.0,4.0,0.0
14404,69.0,0.0,60.0,2.0,0.0
14405,63.0,1.0,15.0,2.0,0.0
14406,63.0,0.0,60.0,12.0,0.0
14407,60.0,1.0,60.0,12.0,0.0
14408,60.0,3.0,60.0,5.0,0.0
14409,63.0,0.0,60.0,5.0,0.0
14410,48.0,49.0,15.0,3.0,0.0
14411,60.0,1.0,60.0,3.0,0.0
14412,48.0,3.0,60.0,13.0,0.0
14413,36.0,390.0,60.0,14.0,0.0
14414,86.0,3.0,240.0,10.0,0.0
14415,86.0,0.0,240.0,0.0,0.0
14416,78.0,3.0,240.0,0.0,0.0
14417,74.0,4.0,240.0,11.0,0.0
14418,66.0,0.0,240.0,1.0,0.0
14419,74.0,1.0,240.0,1.0,0.0
14420,62.0,0.0,240.0,4.0,0.0
14421,69.0,4.0,240.0,2.0,0.0
14422,66.0,0.0,240.0,12.0,0.0
14423,66.0,0.0,240.0,2.0,0.0
14424,57.0,5.0,240.0,12.0,0.0
14425,38.0,0.0,240.0,3.0,0.0
14426,50.0,49.0,240.0,3.0,0.0
14427,38.0,3.0,240.0,13.0,0.0
14428,26.0,1.0,240.0,14.0,0.0
14429,83.0,1.0,60.0,10.0,0.0
14430,79.0,0.0,60.0,0.0,0.0
14431,83.0,2.0,60.0,0.0,0.0
14432,71.0,1.0,60.0,11.0,0.0
14433,67.0,1.0,60.0,1.0,0.0
14434,71.0,0.0,60.0,1.0,0.0
14435,62.0,2.0,60.0,4.0,0.0
14436,50.0,2.0,15.0,4.0,0.0
14437,59.0,0.0,60.0,12.0,0.0
14438,71.0,0.0,60.0,2.0,0.0
14439,67.0,4.0,60.0,2.0,0.0
14440,67.0,0.0,60.0,12.0,0.0
14441,43.0,1.0,60.0,3.0,0.0
14442,55.0,0.0,60.0,3.0,0.0
14443,43.0,3.0,60.0,13.0,0.0
14444,31.0,390.0,60.0,14.0,0.0
14445,91.0,3.0,240.0,10.0,0.0
14446,87.0,3.0,240.0,0.0,0.0
14447,79.0,4.0,240.0,11.0,0.0
14448,75.0,1.0,240.0,1.0,0.0
14449,67.0,0.0,240.0,1.0,0.0
14450,60.0,2.0,240.0,4.0,0.0
14451,60.0,0.0,240.0,12.0,0.0
14452,63.0,5.0,240.0,12.0,0.0
14453,67.0,0.0,240.0,2.0,0.0
14454,48.0,3.0,240.0,5.0,0.0
14455,36.0,0.0,240.0,3.0,0.0
14456,48.0,49.0,240.0,3.0,0.0
14457,36.0,3.0,240.0,13.0,0.0
14458,24.0,1.0,240.0,14.0,0.0
14459,69.0,1.0,60.0,10.0,0.0
14460,81.0,2.0,60.0,0.0,0.0
14461,69.0,0.0,60.0,11.0,0.0
14462,63.0,0.0,60.0,11.0,0.0
14463,65.0,1.0,60.0,6.0,0.0
14464,53.0,0.0,60.0,6.0,0.0
14465,69.0,1.0,60.0,1.0,0.0
14466,63.0,0.0,60.0,1.0,0.0
14467,53.0,0.0,60.0,4.0,0.0
14468,41.0,2.0,60.0,4.0,0.0
14469,69.0,0.0,60.0,2.0,0.0
14470,63.0,0.0,60.0,12.0,0.0
14471,63.0,1.0,15.0,2.0,0.0
14472,60.0,0.0,60.0,12.0,0.0
14473,60.0,0.0,60.0,5.0,0.0
14474,63.0,0.0,15.0,5.0,0.0
14475,53.0,1.0,60.0,3.0,0.0
14476,41.0,0.0,60.0,3.0,0.0
14477,41.0,3.0,60.0,15.0,0.0
14478,41.0,0.0,60.0,13.0,0.0
14479,41.0,105.0,60.0,14.0,0.0
14480,70.0,1.0,60.0,10.0,0.0
14481,74.0,2.0,60.0,0.0,0.0
14482,82.0,0.0,60.0,0.0,0.0
14483,70.0,0.0,60.0,6.0,0.0
14484,58.0,0.0,60.0,6.0,0.0
14485,62.0,0.0,60.0,11.0,0.0
14486,70.0,1.0,60.0,11.0,0.0
14487,62.0,3.0,60.0,1.0,0.0
14488,70.0,0.0,60.0,1.0,0.0
14489,58.0,45.0,90.0,4.0,0.0
14490,46.0,0.0,90.0,4.0,0.0
14491,62.0,0.0,60.0,2.0,0.0
14492,62.0,1.0,60.0,12.0,0.0
14493,58.0,0.0,60.0,12.0,0.0
14494,70.0,0.0,60.0,2.0,0.0
14495,62.0,0.0,60.0,5.0,0.0
14496,58.0,3.0,60.0,5.0,0.0
14497,46.0,1.0,60.0,3.0,0.0
14498,46.0,3.0,60.0,15.0,0.0
14499,46.0,0.0,60.0,13.0,0.0
14500,34.0,30.0,60.0,14.0,0.0
14501,77.0,1.0,30.0,10.0,0.0
14502,89.0,2.0,30.0,0.0,0.0
14503,65.0,31.0,30.0,11.0,0.0
14504,76.0,3.0,60.0,1.0,0.0
14505,72.0,0.0,60.0,1.0,0.0
14506,46.0,15.0,210.0,4.0,0.0
14507,58.0,0.0,210.0,4.0,0.0
14508,64.0,0.0,60.0,2.0,0.0
14509,67.0,4.0,60.0,12.0,0.0
14510,72.0,0.0,60.0,2.0,0.0
14511,55.0,1.0,60.0,3.0,0.0
14512,55.0,3.0,60.0,13.0,0.0
14513,34.0,30.0,240.0,14.0,0.0
14514,76.0,1.0,60.0,10.0,0.0
14515,88.0,2.0,60.0,0.0,0.0
14516,64.0,79.0,60.0,11.0,0.0
14517,72.0,1.0,60.0,10.0,0.0
14518,84.0,2.0,60.0,0.0,0.0
14519,60.0,1.0,60.0,11.0,0.0
14520,72.0,0.0,60.0,1.0,0.0
14521,77.0,3.0,60.0,1.0,0.0
14522,65.0,15.0,60.0,2.0,0.0
14523,72.0,0.0,60.0,2.0,0.0
14524,70.0,4.0,30.0,12.0,0.0
14525,58.0,1.0,30.0,3.0,0.0
14526,58.0,18.0,30.0,13.0,0.0
14527,69.0,4.0,60.0,12.0,0.0
14528,57.0,1.0,60.0,3.0,0.0
14529,57.0,18.0,60.0,13.0,0.0
14530,77.0,1.0,30.0,10.0,0.0
14531,89.0,2.0,30.0,0.0,0.0
14532,65.0,31.0,30.0,11.0,0.0
14533,69.0,0.0,60.0,1.0,0.0
14534,77.0,3.0,60.0,1.0,0.0
14535,58.0,15.0,210.0,4.0,0.0
14536,46.0,0.0,210.0,4.0,0.0
14537,65.0,4.0,60.0,12.0,0.0
14538,69.0,0.0,60.0,2.0,0.0
14539,65.0,0.0,60.0,2.0,0.0
14540,53.0,1.0,60.0,3.0,0.0
14541,53.0,3.0,60.0,13.0,0.0
14542,34.0,30.0,240.0,14.0,0.0
14543,74.0,1.0,60.0,10.0,0.0
14544,86.0,2.0,60.0,0.0,0.0
14545,62.0,79.0,60.0,11.0,0.0
14546,70.0,1.0,60.0,10.0,0.0
14547,82.0,2.0,60.0,0.0,0.0
14548,58.0,1.0,60.0,11.0,0.0
14549,74.0,3.0,60.0,1.0,0.0
14550,70.0,0.0,60.0,1.0,0.0
14551,74.0,4.0,30.0,12.0,0.0
14552,70.0,0.0,60.0,2.0,0.0
14553,65.0,15.0,60.0,2.0,0.0
14554,62.0,1.0,30.0,3.0,0.0
14555,62.0,18.0,30.0,13.0,0.0
14556,70.0,4.0,60.0,12.0,0.0
14557,58.0,1.0,60.0,3.0,0.0
14558,58.0,18.0,60.0,13.0,0.0
14559,75.0,1.0,30.0,10.0,0.0
14560,87.0,2.0,30.0,0.0,0.0
14561,63.0,32.0,30.0,11.0,0.0
14562,72.0,3.0,240.0,1.0,0.0
14563,75.0,0.0,240.0,1.0,0.0
14564,46.0,0.0,60.0,4.0,0.0
14565,58.0,2.0,60.0,4.0,0.0
14566,63.0,0.0,240.0,2.0,0.0
14567,67.0,23.0,240.0,2.0,0.0
14568,67.0,4.0,60.0,12.0,0.0
14569,55.0,1.0,60.0,3.0,0.0
14570,55.0,3.0,60.0,13.0,0.0
14571,34.0,1.0,60.0,14.0,0.0
14572,72.0,0.0,60.0,10.0,0.0
14573,84.0,2.0,60.0,0.0,0.0
14574,60.0,72.0,60.0,11.0,0.0
14575,67.0,1.0,30.0,10.0,0.0
14576,79.0,2.0,30.0,0.0,0.0
14577,55.0,32.0,30.0,11.0,0.0
14578,58.0,2.0,60.0,4.0,0.0
14579,46.0,0.0,60.0,4.0,0.0
14580,75.0,4.0,60.0,12.0,0.0
14581,63.0,1.0,60.0,3.0,0.0
14582,63.0,3.0,60.0,13.0,0.0
14583,34.0,0.0,60.0,14.0,0.0
14584,70.0,1.0,60.0,10.0,0.0
14585,82.0,2.0,60.0,0.0,0.0
14586,58.0,46.0,60.0,11.0,0.0
14587,69.0,1.0,30.0,10.0,0.0
14588,81.0,2.0,30.0,0.0,0.0
14589,53.0,0.0,60.0,6.0,0.0
14590,57.0,4.0,30.0,11.0,0.0
14591,65.0,1.0,60.0,6.0,0.0
14592,69.0,0.0,60.0,1.0,0.0
14593,75.0,1.0,60.0,1.0,0.0
14594,46.0,0.0,60.0,4.0,0.0
14595,58.0,2.0,60.0,4.0,0.0
14596,72.0,4.0,30.0,12.0,0.0
14597,69.0,0.0,60.0,2.0,0.0
14598,63.0,5.0,60.0,2.0,0.0
14599,60.0,1.0,30.0,3.0,0.0
14600,60.0,21.0,30.0,13.0,0.0
14601,46.0,3.0,60.0,15.0,0.0
14602,34.0,0.0,60.0,14.0,0.0
14603,72.0,1.0,60.0,10.0,0.0
14604,84.0,2.0,60.0,0.0,0.0
14605,60.0,19.0,60.0,11.0,0.0
14606,65.0,4.0,30.0,12.0,0.0
14607,53.0,1.0,30.0,3.0,0.0
14608,53.0,78.0,30.0,13.0,0.0
14609,65.0,1.0,60.0,10.0,0.0
14610,77.0,2.0,60.0,0.0,0.0
14611,58.0,0.0,60.0,6.0,0.0
14612,53.0,0.0,60.0,11.0,0.0
14613,70.0,1.0,60.0,6.0,0.0
14614,70.0,1.0,60.0,1.0,0.0
14615,74.0,0.0,60.0,1.0,0.0
14616,58.0,2.0,60.0,4.0,0.0
14617,46.0,0.0,60.0,4.0,0.0
14618,62.0,0.0,60.0,12.0,0.0
14619,65.0,4.0,60.0,12.0,0.0
14620,62.0,0.0,60.0,2.0,0.0
14621,65.0,0.0,60.0,2.0,0.0
14622,58.0,1.0,60.0,3.0,0.0
14623,62.0,0.0,60.0,13.0,0.0
14624,46.0,3.0,60.0,15.0,0.0
14625,46.0,75.0,60.0,14.0,0.0
14626,77.0,1.0,30.0,10.0,0.0
14627,89.0,2.0,30.0,0.0,0.0
14628,65.0,31.0,30.0,11.0,0.0
14629,72.0,3.0,60.0,1.0,0.0
14630,76.0,0.0,60.0,1.0,0.0
14631,60.0,25.0,240.0,4.0,0.0
14632,64.0,0.0,60.0,2.0,0.0
14633,67.0,4.0,60.0,12.0,0.0
14634,72.0,0.0,60.0,2.0,0.0
14635,48.0,0.0,60.0,3.0,0.0
14636,36.0,1.0,60.0,3.0,0.0
14637,55.0,3.0,60.0,13.0,0.0
14638,36.0,1.0,60.0,14.0,0.0
14639,76.0,0.0,60.0,10.0,0.0
14640,88.0,2.0,60.0,0.0,0.0
14641,64.0,79.0,60.0,11.0,0.0
14642,72.0,1.0,60.0,10.0,0.0
14643,84.0,2.0,60.0,0.0,0.0
14644,60.0,1.0,60.0,11.0,0.0
14645,77.0,0.0,60.0,1.0,0.0
14646,72.0,3.0,60.0,1.0,0.0
14647,70.0,5.0,30.0,12.0,0.0
14648,72.0,4.0,60.0,2.0,0.0
14649,65.0,0.0,60.0,2.0,0.0
14650,41.0,0.0,60.0,3.0,0.0
14651,53.0,4.0,60.0,3.0,0.0
14652,58.0,18.0,30.0,13.0,0.0
14653,41.0,7.0,60.0,14.0,0.0
14654,69.0,5.0,60.0,12.0,0.0
14655,57.0,38.0,60.0,13.0,0.0
14656,77.0,1.0,30.0,10.0,0.0
14657,89.0,32.0,30.0,0.0,0.0
14658,69.0,0.0,60.0,11.0,0.0
14659,65.0,1.0,60.0,11.0,0.0
14660,77.0,0.0,60.0,1.0,0.0
14661,69.0,3.0,60.0,1.0,0.0
14662,61.0,25.0,240.0,4.0,0.0
14663,65.0,4.0,60.0,12.0,0.0
14664,65.0,0.0,60.0,2.0,0.0
14665,69.0,0.0,60.0,2.0,0.0
14666,37.0,1.0,60.0,3.0,0.0
14667,49.0,0.0,60.0,3.0,0.0
14668,53.0,3.0,60.0,13.0,0.0
14669,37.0,1.0,60.0,14.0,0.0
14670,73.0,0.0,60.0,10.0,0.0
14671,85.0,81.0,60.0,0.0,0.0
14672,70.0,1.0,60.0,10.0,0.0
14673,82.0,2.0,60.0,0.0,0.0
14674,61.0,1.0,60.0,11.0,0.0
14675,70.0,0.0,60.0,11.0,0.0
14676,73.0,3.0,60.0,1.0,0.0
14677,70.0,0.0,60.0,1.0,0.0
14678,70.0,0.0,60.0,2.0,0.0
14679,73.0,5.0,30.0,12.0,0.0
14680,61.0,4.0,60.0,2.0,0.0
14681,42.0,0.0,60.0,3.0,0.0
14682,54.0,4.0,60.0,3.0,0.0
14683,61.0,18.0,30.0,13.0,0.0
14684,42.0,7.0,60.0,14.0,0.0
14685,70.0,5.0,60.0,12.0,0.0
14686,58.0,38.0,60.0,13.0,0.0
14687,78.0,1.0,30.0,10.0,0.0
14688,90.0,32.0,30.0,0.0,0.0
14689,70.0,1.0,60.0,11.0,0.0
14690,66.0,0.0,60.0,11.0,0.0
14691,70.0,0.0,60.0,1.0,0.0
14692,78.0,1.0,60.0,1.0,0.0
14693,58.0,2.0,60.0,4.0,0.0
14694,70.0,4.0,60.0,2.0,0.0
14695,66.0,0.0,60.0,2.0,0.0
14696,66.0,0.0,60.0,12.0,0.0
14697,58.0,0.0,60.0,12.0,0.0
14698,39.0,1.0,60.0,3.0,0.0
14699,51.0,0.0,60.0,3.0,0.0
14700,51.0,3.0,60.0,13.0,0.0
14701,39.0,1.0,60.0,14.0,0.0
14702,75.0,0.0,60.0,10.0,0.0
14703,87.0,74.0,60.0,0.0,0.0
14704,70.0,1.0,30.0,10.0,0.0
14705,82.0,32.0,30.0,0.0,0.0
14706,61.0,0.0,60.0,11.0,0.0
14707,70.0,1.0,60.0,11.0,0.0
14708,70.0,0.0,60.0,1.0,0.0
14709,73.0,1.0,60.0,1.0,0.0
14710,58.0,2.0,60.0,4.0,0.0
14711,70.0,0.0,60.0,2.0,0.0
14712,66.0,0.0,60.0,12.0,0.0
14713,66.0,0.0,60.0,2.0,0.0
14714,58.0,4.0,60.0,12.0,0.0
14715,44.0,1.0,60.0,3.0,0.0
14716,56.0,0.0,60.0,3.0,0.0
14717,56.0,3.0,60.0,13.0,0.0
14718,44.0,1.0,60.0,14.0,0.0
14719,73.0,0.0,60.0,10.0,0.0
14720,85.0,74.0,60.0,0.0,0.0
14721,72.0,1.0,30.0,10.0,0.0
14722,84.0,32.0,30.0,0.0,0.0
14723,72.0,0.0,60.0,11.0,0.0
14724,63.0,1.0,60.0,11.0,0.0
14725,75.0,0.0,60.0,1.0,0.0
14726,72.0,1.0,60.0,1.0,0.0
14727,60.0,2.0,60.0,4.0,0.0
14728,66.0,0.0,60.0,12.0,0.0
14729,66.0,0.0,60.0,2.0,0.0
14730,63.0,0.0,60.0,12.0,0.0
14731,72.0,4.0,60.0,2.0,0.0
14732,44.0,1.0,60.0,3.0,0.0
14733,32.0,0.0,60.0,3.0,0.0
14734,44.0,3.0,60.0,13.0,0.0
14735,32.0,0.0,60.0,14.0,0.0
14736,75.0,1.0,60.0,10.0,0.0
14737,87.0,104.0,60.0,0.0,0.0
14738,68.0,1.0,60.0,10.0,0.0
14739,80.0,2.0,60.0,0.0,0.0
14740,65.0,1.0,60.0,11.0,0.0
14741,68.0,0.0,60.0,11.0,0.0
14742,68.0,0.0,60.0,1.0,0.0
14743,65.0,1.0,60.0,1.0,0.0
14744,61.0,2.0,60.0,4.0,0.0
14745,65.0,4.0,60.0,12.0,0.0
14746,61.0,0.0,60.0,12.0,0.0
14747,65.0,0.0,60.0,2.0,0.0
14748,68.0,0.0,60.0,2.0,0.0
14749,37.0,0.0,60.0,3.0,0.0
14750,49.0,1.0,60.0,3.0,0.0
14751,49.0,3.0,60.0,13.0,0.0
14752,37.0,75.0,60.0,14.0,0.0
14753,80.0,1.0,30.0,10.0,0.0
14754,80.0,32.0,30.0,0.0,0.0
14755,68.0,1.0,60.0,11.0,0.0
14756,72.0,0.0,60.0,11.0,0.0
14757,68.0,0.0,60.0,1.0,0.0
14758,77.0,1.0,60.0,1.0,0.0
14759,53.0,2.0,60.0,4.0,0.0
14760,60.0,0.0,60.0,4.0,0.0
14761,72.0,4.0,60.0,2.0,0.0
14762,60.0,0.0,60.0,12.0,0.0
14763,68.0,0.0,60.0,12.0,0.0
14764,68.0,0.0,60.0,2.0,0.0
14765,41.0,1.0,60.0,3.0,0.0
14766,53.0,0.0,60.0,3.0,0.0
14767,53.0,3.0,60.0,13.0,0.0
14768,41.0,1.0,60.0,14.0,0.0
14769,77.0,0.0,60.0,10.0,0.0
14770,77.0,104.0,60.0,0.0,0.0
14771,73.0,1.0,60.0,10.0,0.0
14772,73.0,2.0,60.0,0.0,0.0
14773,65.0,0.0,60.0,11.0,0.0
14774,73.0,1.0,60.0,11.0,0.0
14775,73.0,0.0,60.0,1.0,0.0
14776,65.0,1.0,60.0,1.0,0.0
14777,58.0,0.0,60.0,4.0,0.0
14778,61.0,2.0,60.0,4.0,0.0
14779,61.0,0.0,60.0,12.0,0.0
14780,73.0,0.0,60.0,2.0,0.0
14781,65.0,0.0,60.0,2.0,0.0
14782,65.0,4.0,60.0,12.0,0.0
14783,46.0,0.0,60.0,3.0,0.0
14784,58.0,1.0,60.0,3.0,0.0
14785,58.0,3.0,60.0,13.0,0.0
14786,46.0,75.0,60.0,14.0,0.0
14787,82.0,1.0,30.0,10.0,0.0
14788,82.0,32.0,30.0,0.0,0.0
14789,70.0,1.0,60.0,11.0,0.0
14790,73.0,0.0,60.0,11.0,0.0
14791,78.0,1.0,60.0,1.0,0.0
14792,70.0,0.0,60.0,1.0,0.0
14793,58.0,2.0,60.0,4.0,0.0
14794,61.0,0.0,60.0,4.0,0.0
14795,70.0,0.0,60.0,12.0,0.0
14796,61.0,0.0,60.0,12.0,0.0
14797,70.0,0.0,60.0,2.0,0.0
14798,73.0,4.0,60.0,2.0,0.0
14799,42.0,0.0,60.0,3.0,0.0
14800,54.0,1.0,60.0,3.0,0.0
14801,54.0,3.0,60.0,13.0,0.0
14802,42.0,1.0,60.0,14.0,0.0
14803,78.0,0.0,60.0,10.0,0.0
14804,78.0,104.0,60.0,0.0,0.0
14805,75.0,1.0,60.0,10.0,0.0
14806,75.0,2.0,60.0,0.0,0.0
14807,75.0,1.0,60.0,11.0,0.0
14808,66.0,0.0,60.0,11.0,0.0
14809,75.0,1.0,60.0,1.0,0.0
14810,66.0,0.0,60.0,1.0,0.0
14811,63.0,2.0,60.0,4.0,0.0
14812,60.0,0.0,60.0,4.0,0.0
14813,75.0,4.0,60.0,2.0,0.0
14814,63.0,0.0,60.0,12.0,0.0
14815,66.0,0.0,60.0,12.0,0.0
14816,66.0,0.0,60.0,2.0,0.0
14817,48.0,0.0,60.0,3.0,0.0
14818,60.0,1.0,60.0,3.0,0.0
14819,60.0,3.0,60.0,13.0,0.0
14820,48.0,75.0,60.0,14.0,0.0
14821,84.0,1.0,30.0,10.0,0.0
14822,84.0,2.0,30.0,0.0,0.0
14823,72.0,1.0,30.0,11.0,0.0
14824,72.0,3.0,30.0,1.0,0.0
14825,72.0,0.0,30.0,12.0,0.0
14826,72.0,4.0,30.0,2.0,0.0
14827,60.0,1.0,30.0,3.0,0.0
14828,60.0,33.0,30.0,13.0,0.0
14829,81.0,1.0,60.0,10.0,0.0
14830,81.0,2.0,60.0,0.0,0.0
14831,69.0,1.0,60.0,11.0,0.0
14832,69.0,3.0,60.0,1.0,0.0
14833,69.0,0.0,60.0,2.0,0.0
14834,69.0,4.0,60.0,12.0,0.0
14835,57.0,1.0,60.0,3.0,0.0
14836,57.0,63.0,60.0,13.0,0.0
14837,77.0,1.0,30.0,10.0,0.0
14838,77.0,2.0,30.0,0.0,0.0
14839,65.0,1.0,30.0,11.0,0.0
14840,77.0,3.0,30.0,1.0,0.0
14841,65.0,4.0,30.0,2.0,0.0
14842,65.0,0.0,30.0,12.0,0.0
14843,53.0,1.0,30.0,3.0,0.0
14844,53.0,33.0,30.0,13.0,0.0
14845,73.0,1.0,60.0,10.0,0.0
14846,73.0,2.0,60.0,0.0,0.0
14847,61.0,1.0,60.0,11.0,0.0
14848,73.0,3.0,60.0,1.0,0.0
14849,61.0,4.0,60.0,12.0,0.0
14850,61.0,0.0,60.0,2.0,0.0
14851,49.0,1.0,60.0,3.0,0.0
14852,49.0,63.0,60.0,13.0,0.0
14853,70.0,1.0,30.0,10.0,0.0
14854,70.0,2.0,30.0,0.0,0.0
14855,58.0,1.0,30.0,11.0,0.0
14856,70.0,3.0,30.0,1.0,0.0
14857,58.0,0.0,30.0,2.0,0.0
14858,58.0,4.0,30.0,12.0,0.0
14859,46.0,1.0,30.0,3.0,0.0
14860,46.0,33.0,30.0,13.0,0.0
14861,66.0,1.0,60.0,10.0,0.0
14862,66.0,2.0,60.0,0.0,0.0
14863,54.0,1.0,60.0,11.0,0.0
14864,66.0,3.0,60.0,1.0,0.0
14865,54.0,4.0,60.0,2.0,0.0
14866,54.0,0.0,60.0,12.0,0.0
14867,42.0,1.0,60.0,3.0,0.0
14868,42.0,93.0,60.0,13.0,0.0
14869,63.0,1.0,60.0,10.0,0.0
14870,63.0,2.0,60.0,0.0,0.0
14871,51.0,1.0,60.0,11.0,0.0
14872,63.0,3.0,60.0,1.0,0.0
14873,51.0,0.0,60.0,12.0,0.0
14874,51.0,4.0,60.0,2.0,0.0
14875,39.0,1.0,60.0,3.0,0.0
14876,39.0,78.0,60.0,13.0,0.0
14877,87.0,1.0,30.0,10.0,0.0
14878,87.0,2.0,30.0,0.0,0.0
14879,75.0,1.0,30.0,11.0,0.0
14880,75.0,3.0,30.0,1.0,0.0
14881,63.0,0.0,30.0,2.0,0.0
14882,75.0,0.0,30.0,2.0,0.0
14883,63.0,4.0,30.0,12.0,0.0
14884,63.0,1.0,30.0,3.0,0.0
14885,63.0,3.0,30.0,13.0,0.0
14886,51.0,30.0,30.0,14.0,0.0
14887,84.0,1.0,60.0,10.0,0.0
14888,84.0,2.0,60.0,0.0,0.0
14889,72.0,1.0,60.0,11.0,0.0
14890,72.0,3.0,60.0,1.0,0.0
14891,60.0,4.0,60.0,2.0,0.0
14892,72.0,0.0,60.0,2.0,0.0
14893,60.0,0.0,60.0,12.0,0.0
14894,60.0,1.0,60.0,3.0,0.0
14895,60.0,3.0,60.0,13.0,0.0
14896,48.0,90.0,60.0,14.0,0.0
14897,81.0,1.0,60.0,10.0,0.0
14898,81.0,2.0,60.0,0.0,0.0
14899,69.0,1.0,60.0,11.0,0.0
14900,69.0,3.0,60.0,1.0,0.0
14901,57.0,4.0,60.0,2.0,0.0
14902,57.0,0.0,60.0,12.0,0.0
14903,69.0,0.0,60.0,2.0,0.0
14904,57.0,1.0,60.0,3.0,0.0
14905,57.0,3.0,60.0,13.0,0.0
14906,45.0,75.0,60.0,14.0,0.0
14907,77.0,1.0,30.0,10.0,0.0
14908,77.0,2.0,30.0,0.0,0.0
14909,65.0,1.0,30.0,11.0,0.0
14910,77.0,3.0,30.0,1.0,0.0
14911,65.0,0.0,30.0,2.0,0.0
14912,65.0,4.0,30.0,12.0,0.0
14913,77.0,0.0,30.0,2.0,0.0
14914,53.0,1.0,30.0,3.0,0.0
14915,53.0,3.0,30.0,13.0,0.0
14916,41.0,30.0,30.0,14.0,0.0
14917,73.0,1.0,60.0,10.0,0.0
14918,73.0,2.0,60.0,0.0,0.0
14919,61.0,1.0,60.0,11.0,0.0
14920,73.0,3.0,60.0,1.0,0.0
14921,73.0,4.0,60.0,2.0,0.0
14922,61.0,0.0,60.0,12.0,0.0
14923,61.0,0.0,60.0,2.0,0.0
14924,49.0,1.0,60.0,3.0,0.0
14925,49.0,3.0,60.0,13.0,0.0
14926,37.0,90.0,60.0,14.0,0.0
14927,70.0,1.0,60.0,10.0,0.0
14928,70.0,2.0,60.0,0.0,0.0
14929,58.0,1.0,60.0,11.0,0.0
14930,70.0,3.0,60.0,1.0,0.0
14931,58.0,0.0,60.0,12.0,0.0
14932,58.0,0.0,60.0,2.0,0.0
14933,70.0,4.0,60.0,2.0,0.0
14934,46.0,1.0,60.0,3.0,0.0
14935,46.0,3.0,60.0,13.0,0.0
14936,34.0,75.0,60.0,14.0,0.0
14937,66.0,3.0,30.0,10.0,0.0
14938,54.0,1.0,30.0,11.0,0.0
14939,66.0,3.0,30.0,1.0,0.0
14940,66.0,0.0,30.0,2.0,0.0
14941,54.0,4.0,30.0,12.0,0.0
14942,54.0,1.0,30.0,3.0,0.0
14943,54.0,3.0,30.0,13.0,0.0
14944,42.0,30.0,30.0,14.0,0.0
14945,63.0,3.0,60.0,10.0,0.0
14946,51.0,1.0,60.0,11.0,0.0
14947,63.0,3.0,60.0,1.0,0.0
14948,63.0,4.0,60.0,2.0,0.0
14949,51.0,0.0,60.0,12.0,0.0
14950,51.0,1.0,60.0,3.0,0.0
14951,51.0,3.0,60.0,13.0,0.0
14952,39.0,60.0,60.0,14.0,0.0
14953,60.0,3.0,30.0,10.0,0.0
14954,60.0,4.0,30.0,11.0,0.0
14955,60.0,11.0,60.0,1.0,0.0
14956,48.0,0.0,30.0,12.0,0.0
14957,60.0,4.0,30.0,2.0,0.0
14958,48.0,1.0,30.0,3.0,0.0
14959,48.0,3.0,30.0,13.0,0.0
14960,36.0,19.0,30.0,14.0,0.0
14961,57.0,3.0,60.0,10.0,0.0
14962,57.0,4.0,60.0,11.0,0.0
14963,45.0,4.0,60.0,12.0,0.0
14964,57.0,0.0,60.0,2.0,0.0
14965,45.0,1.0,60.0,3.0,0.0
14966,45.0,3.0,60.0,13.0,0.0
14967,33.0,67.0,60.0,14.0,0.0
14968,53.0,3.0,60.0,10.0,0.0
14969,53.0,4.0,60.0,11.0,0.0
14970,41.0,5.0,30.0,12.0,0.0
14971,53.0,4.0,60.0,2.0,0.0
14972,41.0,11.0,60.0,3.0,0.0
14973,41.0,3.0,30.0,13.0,0.0
14974,29.0,15.0,30.0,14.0,0.0
14975,37.0,5.0,60.0,12.0,0.0
14976,37.0,3.0,60.0,13.0,0.0
14977,25.0,62.0,60.0,14.0,0.0
14978,49.0,4.0,60.0,7.0,0.0
14979,53.0,0.0,60.0,7.0,0.0
14980,46.0,5.0,30.0,12.0,0.0
14981,46.0,1.0,60.0,7.0,0.0
14982,34.0,1.0,60.0,3.0,0.0
14983,34.0,29.0,30.0,13.0,0.0
14984,34.0,4.0,60.0,8.0,0.0
14985,34.0,17.0,120.0,14.0,0.0
14986,46.0,1.0,30.0,12.0,0.0
14987,34.0,35.0,30.0,13.0,0.0
14988,46.0,5.0,30.0,12.0,0.0
14989,34.0,18.0,30.0,13.0,0.0
14990,49.0,1.0,240.0,7.0,0.0
14991,53.0,0.0,240.0,7.0,0.0
14992,53.0,5.0,30.0,12.0,0.0
14993,46.0,2.0,240.0,7.0,0.0
14994,53.0,21.0,240.0,3.0,0.0
14995,49.0,0.0,240.0,3.0,0.0
14996,41.0,35.0,30.0,13.0,0.0
14997,34.0,13.0,240.0,8.0,0.0
14998,53.0,5.0,30.0,12.0,0.0
14999,41.0,35.0,30.0,13.0,0.0
15000,53.0,5.0,30.0,12.0,0.0
15001,41.0,35.0,30.0,13.0,0.0
15002,58.0,5.0,30.0,12.0,0.0
15003,46.0,35.0,30.0,13.0,0.0
15004,58.0,5.0,30.0,12.0,0.0
15005,46.0,34.0,30.0,13.0,0.0
15006,58.0,3.0,30.0,12.0,0.0
15007,46.0,1.0,30.0,13.0,0.0
15008,51.0,0.0,240.0,7.0,0.0
15009,54.0,1.0,240.0,7.0,0.0
15010,51.0,5.0,30.0,12.0,0.0
15011,46.0,3.0,240.0,7.0,0.0
15012,39.0,35.0,30.0,13.0,0.0
15013,39.0,13.0,240.0,8.0,0.0
15014,51.0,5.0,30.0,12.0,0.0
15015,39.0,35.0,30.0,13.0,0.0
15016,51.0,5.0,30.0,12.0,0.0
15017,39.0,28.0,30.0,13.0,0.0
15018,58.0,7.0,30.0,10.0,0.0
15019,78.0,0.0,60.0,0.0,0.0
15020,75.0,3.0,60.0,0.0,0.0
15021,78.0,0.0,60.0,1.0,0.0
15022,75.0,1.0,60.0,1.0,0.0
15023,46.0,29.0,30.0,12.0,0.0
15024,63.0,0.0,60.0,2.0,0.0
15025,66.0,5.0,60.0,2.0,0.0
15026,58.0,2.0,30.0,10.0,0.0
15027,46.0,33.0,30.0,12.0,0.0
15028,58.0,6.0,30.0,10.0,0.0
15029,46.0,3.0,30.0,12.0,0.0
15030,63.0,7.0,30.0,10.0,0.0
15031,75.0,0.0,240.0,0.0,0.0
15032,78.0,3.0,240.0,0.0,0.0
15033,75.0,2.0,240.0,1.0,0.0
15034,78.0,0.0,240.0,1.0,0.0
15035,51.0,0.0,240.0,7.0,0.0
15036,54.0,1.0,240.0,7.0,0.0
15037,51.0,33.0,30.0,12.0,0.0
15038,66.0,0.0,240.0,2.0,0.0
15039,63.0,3.0,240.0,2.0,0.0
15040,46.0,1.0,240.0,7.0,0.0
15041,51.0,0.0,15.0,3.0,0.0
15042,54.0,14.0,15.0,3.0,0.0
15043,39.0,27.0,240.0,8.0,0.0
15044,63.0,7.0,30.0,10.0,0.0
15045,51.0,33.0,30.0,12.0,0.0
15046,63.0,7.0,30.0,10.0,0.0
15047,51.0,33.0,30.0,12.0,0.0
15048,70.0,7.0,30.0,10.0,0.0
15049,58.0,33.0,30.0,12.0,0.0
15050,70.0,7.0,30.0,10.0,0.0
15051,58.0,33.0,30.0,12.0,0.0
15052,70.0,1.0,30.0,10.0,0.0
15053,58.0,0.0,30.0,12.0,0.0
15054,65.0,7.0,30.0,10.0,0.0
15055,73.0,3.0,240.0,0.0,0.0
15056,77.0,0.0,240.0,0.0,0.0
15057,73.0,0.0,240.0,1.0,0.0
15058,77.0,2.0,240.0,1.0,0.0
15059,49.0,0.0,240.0,7.0,0.0
15060,53.0,1.0,240.0,7.0,0.0
15061,61.0,0.0,240.0,2.0,0.0
15062,65.0,0.0,240.0,2.0,0.0
15063,53.0,33.0,30.0,12.0,0.0
15064,46.0,1.0,240.0,7.0,0.0
15065,49.0,1.0,240.0,3.0,0.0
15066,53.0,0.0,240.0,3.0,0.0
15067,34.0,34.0,240.0,8.0,0.0
15068,65.0,7.0,30.0,10.0,0.0
15069,53.0,33.0,30.0,12.0,0.0
15070,65.0,7.0,30.0,10.0,0.0
15071,53.0,40.0,30.0,12.0,0.0
15072,65.0,2.0,240.0,4.0,0.0
15073,58.0,0.0,240.0,4.0,0.0
15074,46.0,5.0,30.0,12.0,0.0
15075,34.0,35.0,30.0,13.0,0.0
15076,46.0,5.0,30.0,12.0,0.0
15077,34.0,29.0,30.0,13.0,0.0
15078,46.0,3.0,30.0,12.0,0.0
15079,34.0,1.0,30.0,13.0,0.0
15080,73.0,0.0,240.0,0.0,0.0
15081,77.0,3.0,240.0,0.0,0.0
15082,77.0,3.0,240.0,1.0,0.0
15083,73.0,0.0,240.0,1.0,0.0
15084,51.0,0.0,120.0,7.0,0.0
15085,48.0,5.0,120.0,7.0,0.0
15086,61.0,0.0,240.0,2.0,0.0
15087,65.0,3.0,240.0,2.0,0.0
15088,53.0,5.0,30.0,12.0,0.0
15089,51.0,21.0,120.0,3.0,0.0
15090,48.0,0.0,120.0,3.0,0.0
15091,41.0,35.0,30.0,13.0,0.0
15092,34.0,8.0,240.0,8.0,0.0
15093,53.0,5.0,30.0,12.0,0.0
15094,41.0,33.0,30.0,13.0,0.0
15095,53.0,5.0,30.0,12.0,0.0
15096,41.0,9.0,30.0,13.0,0.0
15097,58.0,2.0,480.0,4.0,0.0
15098,65.0,0.0,480.0,4.0,0.0
15099,46.0,2.0,120.0,7.0,0.0
15100,49.0,0.0,120.0,7.0,0.0
15101,58.0,5.0,30.0,12.0,0.0
15102,46.0,21.0,120.0,3.0,0.0
15103,49.0,0.0,120.0,3.0,0.0
15104,46.0,35.0,30.0,13.0,0.0
15105,58.0,5.0,30.0,12.0,0.0
15106,46.0,29.0,30.0,13.0,0.0
15107,58.0,0.0,30.0,12.0,0.0
15108,46.0,1.0,30.0,13.0,0.0
15109,77.0,0.0,240.0,0.0,0.0
15110,73.0,3.0,240.0,0.0,0.0
15111,77.0,0.0,240.0,1.0,0.0
15112,73.0,2.0,240.0,1.0,0.0
15113,51.0,5.0,120.0,7.0,0.0
15114,48.0,0.0,120.0,7.0,0.0
15115,65.0,0.0,240.0,2.0,0.0
15116,53.0,5.0,30.0,12.0,0.0
15117,61.0,0.0,240.0,2.0,0.0
15118,46.0,1.0,240.0,7.0,0.0
15119,48.0,14.0,120.0,3.0,0.0
15120,51.0,0.0,120.0,3.0,0.0
15121,41.0,35.0,30.0,13.0,0.0
15122,34.0,27.0,240.0,8.0,0.0
15123,53.0,5.0,30.0,12.0,0.0
15124,41.0,35.0,30.0,13.0,0.0
15125,53.0,5.0,30.0,12.0,0.0
15126,41.0,9.0,30.0,13.0,0.0
15127,58.0,7.0,30.0,10.0,0.0
15128,49.0,0.0,120.0,7.0,0.0
15129,53.0,1.0,120.0,7.0,0.0
15130,58.0,5.0,30.0,12.0,0.0
15131,53.0,0.0,120.0,3.0,0.0
15132,49.0,1.0,120.0,3.0,0.0
15133,46.0,28.0,30.0,13.0,0.0
15134,58.0,7.0,30.0,10.0,0.0
15135,58.0,5.0,30.0,12.0,0.0
15136,46.0,28.0,30.0,13.0,0.0
15137,58.0,1.0,30.0,10.0,0.0
15138,58.0,3.0,30.0,12.0,0.0
15139,46.0,1.0,30.0,13.0,0.0
15140,65.0,7.0,30.0,10.0,0.0
15141,72.0,0.0,120.0,0.0,0.0
15142,75.0,3.0,120.0,0.0,0.0
15143,72.0,3.0,120.0,1.0,0.0
15144,75.0,0.0,120.0,1.0,0.0
15145,49.0,0.0,240.0,7.0,0.0
15146,53.0,1.0,240.0,7.0,0.0
15147,63.0,18.0,120.0,2.0,0.0
15148,60.0,0.0,120.0,2.0,0.0
15149,65.0,5.0,30.0,12.0,0.0
15150,46.0,1.0,240.0,7.0,0.0
15151,49.0,0.0,240.0,3.0,0.0
15152,53.0,1.0,240.0,3.0,0.0
15153,53.0,28.0,30.0,13.0,0.0
15154,34.0,3.0,240.0,8.0,0.0
15155,65.0,7.0,30.0,10.0,0.0
15156,65.0,5.0,30.0,12.0,0.0
15157,53.0,28.0,30.0,13.0,0.0
15158,65.0,5.0,30.0,10.0,0.0
15159,65.0,5.0,30.0,12.0,0.0
15160,53.0,4.0,30.0,13.0,0.0
15161,70.0,7.0,30.0,10.0,0.0
15162,73.0,0.0,120.0,0.0,0.0
15163,70.0,3.0,120.0,0.0,0.0
15164,73.0,0.0,120.0,1.0,0.0
15165,70.0,3.0,120.0,1.0,0.0
15166,65.0,1.0,600.0,4.0,0.0
15167,58.0,0.0,600.0,4.0,0.0
15168,58.0,0.0,120.0,2.0,0.0
15169,61.0,18.0,120.0,2.0,0.0
15170,70.0,5.0,30.0,12.0,0.0
15171,58.0,28.0,30.0,13.0,0.0
15172,70.0,7.0,30.0,10.0,0.0
15173,70.0,5.0,30.0,12.0,0.0
15174,58.0,28.0,30.0,13.0,0.0
15175,70.0,6.0,30.0,10.0,0.0
15176,70.0,3.0,30.0,12.0,0.0
15177,58.0,1.0,30.0,13.0,0.0
15178,65.0,7.0,30.0,10.0,0.0
15179,75.0,3.0,120.0,0.0,0.0
15180,72.0,0.0,120.0,0.0,0.0
15181,75.0,0.0,120.0,1.0,0.0
15182,72.0,3.0,120.0,1.0,0.0
15183,53.0,1.0,240.0,7.0,0.0
15184,49.0,0.0,240.0,7.0,0.0
15185,60.0,18.0,120.0,2.0,0.0
15186,63.0,0.0,120.0,2.0,0.0
15187,65.0,5.0,30.0,12.0,0.0
15188,46.0,1.0,240.0,7.0,0.0
15189,53.0,0.0,240.0,3.0,0.0
15190,49.0,1.0,240.0,3.0,0.0
15191,53.0,28.0,30.0,13.0,0.0
15192,34.0,3.0,240.0,8.0,0.0
15193,65.0,7.0,30.0,10.0,0.0
15194,65.0,5.0,30.0,12.0,0.0
15195,53.0,28.0,30.0,13.0,0.0
15196,65.0,7.0,30.0,10.0,0.0
15197,65.0,5.0,30.0,12.0,0.0
15198,53.0,4.0,30.0,13.0,0.0
15199,70.0,3.0,30.0,10.0,0.0
15200,77.0,3.0,120.0,0.0,0.0
15201,73.0,0.0,120.0,0.0,0.0
15202,58.0,4.0,30.0,11.0,0.0
15203,73.0,3.0,120.0,1.0,0.0
15204,77.0,0.0,120.0,1.0,0.0
15205,61.0,0.0,120.0,2.0,0.0
15206,65.0,18.0,120.0,2.0,0.0
15207,58.0,5.0,30.0,12.0,0.0
15208,46.0,28.0,30.0,13.0,0.0
15209,70.0,3.0,30.0,10.0,0.0
15210,58.0,4.0,30.0,11.0,0.0
15211,58.0,5.0,30.0,12.0,0.0
15212,46.0,28.0,30.0,13.0,0.0
15213,70.0,3.0,30.0,10.0,0.0
15214,58.0,3.0,30.0,11.0,0.0
15215,58.0,3.0,30.0,12.0,0.0
15216,46.0,1.0,30.0,13.0,0.0
15217,77.0,3.0,30.0,10.0,0.0
15218,75.0,0.0,120.0,0.0,0.0
15219,72.0,3.0,120.0,0.0,0.0
15220,65.0,4.0,30.0,11.0,0.0
15221,72.0,3.0,120.0,1.0,0.0
15222,75.0,0.0,120.0,1.0,0.0
15223,53.0,0.0,240.0,7.0,0.0
15224,49.0,1.0,240.0,7.0,0.0
15225,53.0,5.0,30.0,12.0,0.0
15226,63.0,18.0,120.0,2.0,0.0
15227,60.0,0.0,120.0,2.0,0.0
15228,46.0,1.0,240.0,7.0,0.0
15229,53.0,0.0,240.0,3.0,0.0
15230,49.0,1.0,240.0,3.0,0.0
15231,41.0,28.0,30.0,13.0,0.0
15232,34.0,3.0,240.0,8.0,0.0
15233,77.0,3.0,30.0,10.0,0.0
15234,65.0,4.0,30.0,11.0,0.0
15235,53.0,5.0,30.0,12.0,0.0
15236,41.0,28.0,30.0,13.0,0.0
15237,77.0,3.0,30.0,10.0,0.0
15238,65.0,4.0,30.0,11.0,0.0
15239,53.0,5.0,30.0,12.0,0.0
15240,41.0,4.0,30.0,13.0,0.0
15241,82.0,3.0,30.0,10.0,0.0
15242,77.0,0.0,120.0,0.0,0.0
15243,73.0,3.0,120.0,0.0,0.0
15244,70.0,4.0,30.0,11.0,0.0
15245,77.0,3.0,120.0,1.0,0.0
15246,73.0,0.0,120.0,1.0,0.0
15247,61.0,0.0,120.0,2.0,0.0
15248,65.0,18.0,120.0,2.0,0.0
15249,46.0,5.0,30.0,12.0,0.0
15250,34.0,28.0,30.0,13.0,0.0
15251,82.0,3.0,30.0,10.0,0.0
15252,70.0,4.0,30.0,11.0,0.0
15253,46.0,5.0,30.0,12.0,0.0
15254,34.0,28.0,30.0,13.0,0.0
15255,82.0,3.0,30.0,10.0,0.0
15256,70.0,2.0,30.0,11.0,0.0
15257,46.0,3.0,30.0,12.0,0.0
15258,34.0,1.0,30.0,13.0,0.0
15259,75.0,3.0,30.0,10.0,0.0
15260,79.0,2.0,120.0,0.0,0.0
15261,70.0,0.0,120.0,0.0,0.0
15262,63.0,4.0,30.0,11.0,0.0
15263,79.0,1.0,120.0,1.0,0.0
15264,70.0,0.0,120.0,1.0,0.0
15265,61.0,2.0,120.0,4.0,0.0
15266,63.0,0.0,120.0,4.0,0.0
15267,48.0,4.0,90.0,7.0,0.0
15268,49.0,0.0,90.0,7.0,0.0
15269,51.0,5.0,30.0,12.0,0.0
15270,67.0,0.0,120.0,2.0,0.0
15271,58.0,4.0,120.0,2.0,0.0
15272,46.0,3.0,90.0,7.0,0.0
15273,51.0,0.0,120.0,3.0,0.0
15274,49.0,1.0,120.0,3.0,0.0
15275,39.0,28.0,30.0,13.0,0.0
15276,39.0,13.0,90.0,8.0,0.0
15277,75.0,3.0,30.0,10.0,0.0
15278,63.0,4.0,30.0,11.0,0.0
15279,51.0,5.0,30.0,12.0,0.0
15280,39.0,8.0,30.0,13.0,0.0
15281,75.0,1.0,30.0,10.0,0.0
15282,63.0,1.0,30.0,11.0,0.0
15283,51.0,0.0,30.0,12.0,0.0
15284,39.0,35.0,30.0,13.0,0.0
15285,72.0,0.0,60.0,0.0,0.0
15286,80.0,3.0,60.0,0.0,0.0
15287,72.0,0.0,60.0,1.0,0.0
15288,80.0,3.0,60.0,1.0,0.0
15289,56.0,0.0,120.0,4.0,0.0
15290,63.0,27.0,120.0,4.0,0.0
15291,51.0,0.0,90.0,7.0,0.0
15292,48.0,4.0,90.0,7.0,0.0
15293,60.0,0.0,60.0,2.0,0.0
15294,68.0,4.0,60.0,2.0,0.0
15295,44.0,5.0,30.0,12.0,0.0
15296,44.0,3.0,90.0,7.0,0.0
15297,51.0,0.0,60.0,3.0,0.0
15298,48.0,1.0,60.0,3.0,0.0
15299,32.0,24.0,30.0,13.0,0.0
15300,32.0,9.0,90.0,8.0,0.0
15301,44.0,5.0,30.0,12.0,0.0
15302,32.0,19.0,30.0,13.0,0.0
15303,44.0,5.0,30.0,12.0,0.0
15304,32.0,8.0,30.0,13.0,0.0
15305,51.0,0.0,240.0,7.0,0.0
15306,48.0,1.0,240.0,7.0,0.0
15307,51.0,5.0,30.0,12.0,0.0
15308,44.0,1.0,240.0,7.0,0.0
15309,48.0,0.0,240.0,3.0,0.0
15310,51.0,1.0,240.0,3.0,0.0
15311,39.0,35.0,30.0,13.0,0.0
15312,32.0,34.0,240.0,8.0,0.0
15313,51.0,5.0,30.0,12.0,0.0
15314,39.0,35.0,30.0,13.0,0.0
15315,51.0,5.0,30.0,12.0,0.0
15316,39.0,35.0,30.0,13.0,0.0
15317,56.0,5.0,30.0,12.0,0.0
15318,44.0,35.0,30.0,13.0,0.0
15319,56.0,5.0,30.0,12.0,0.0
15320,44.0,34.0,30.0,13.0,0.0
15321,56.0,3.0,30.0,12.0,0.0
15322,44.0,1.0,30.0,13.0,0.0
15323,53.0,1.0,240.0,7.0,0.0
15324,49.0,0.0,240.0,7.0,0.0
15325,49.0,5.0,30.0,12.0,0.0
15326,44.0,3.0,240.0,7.0,0.0
15327,49.0,0.0,210.0,3.0,0.0
15328,53.0,5.0,210.0,3.0,0.0
15329,37.0,35.0,30.0,13.0,0.0
15330,37.0,27.0,240.0,8.0,0.0
15331,49.0,5.0,30.0,12.0,0.0
15332,37.0,35.0,30.0,13.0,0.0
15333,49.0,5.0,30.0,12.0,0.0
15334,37.0,28.0,30.0,13.0,0.0
15335,56.0,7.0,30.0,10.0,0.0
15336,85.0,0.0,90.0,0.0,0.0
15337,89.0,3.0,90.0,0.0,0.0
15338,77.0,0.0,90.0,1.0,0.0
15339,73.0,3.0,90.0,1.0,0.0
15340,44.0,33.0,30.0,12.0,0.0
15341,61.0,0.0,90.0,2.0,0.0
15342,65.0,3.0,90.0,2.0,0.0
15343,56.0,7.0,30.0,10.0,0.0
15344,44.0,24.0,30.0,12.0,0.0
15345,56.0,1.0,30.0,10.0,0.0
15346,44.0,3.0,30.0,12.0,0.0
15347,61.0,7.0,30.0,10.0,0.0
15348,85.0,0.0,240.0,0.0,0.0
15349,89.0,3.0,240.0,0.0,0.0
15350,73.0,0.0,240.0,1.0,0.0
15351,77.0,2.0,240.0,1.0,0.0
15352,53.0,0.0,240.0,7.0,0.0
15353,49.0,1.0,240.0,7.0,0.0
15354,61.0,0.0,240.0,2.0,0.0
15355,65.0,0.0,240.0,2.0,0.0
15356,49.0,33.0,30.0,12.0,0.0
15357,44.0,1.0,240.0,7.0,0.0
15358,49.0,2.0,240.0,3.0,0.0
15359,53.0,0.0,240.0,3.0,0.0
15360,37.0,27.0,240.0,8.0,0.0
15361,61.0,7.0,30.0,10.0,0.0
15362,49.0,33.0,30.0,12.0,0.0
15363,61.0,7.0,30.0,10.0,0.0
15364,49.0,33.0,30.0,12.0,0.0
15365,68.0,7.0,30.0,10.0,0.0
15366,56.0,33.0,30.0,12.0,0.0
15367,68.0,7.0,30.0,10.0,0.0
15368,56.0,33.0,30.0,12.0,0.0
15369,68.0,1.0,30.0,10.0,0.0
15370,56.0,3.0,30.0,12.0,0.0
15371,63.0,7.0,30.0,10.0,0.0
15372,87.0,0.0,240.0,0.0,0.0
15373,84.0,3.0,240.0,0.0,0.0
15374,72.0,2.0,240.0,1.0,0.0
15375,75.0,0.0,240.0,1.0,0.0
15376,51.0,1.0,240.0,7.0,0.0
15377,48.0,0.0,240.0,7.0,0.0
15378,51.0,33.0,30.0,12.0,0.0
15379,60.0,0.0,240.0,2.0,0.0
15380,63.0,3.0,240.0,2.0,0.0
15381,44.0,1.0,240.0,7.0,0.0
15382,48.0,1.0,240.0,3.0,0.0
15383,51.0,0.0,240.0,3.0,0.0
15384,32.0,34.0,240.0,8.0,0.0
15385,63.0,7.0,30.0,10.0,0.0
15386,51.0,33.0,30.0,12.0,0.0
15387,63.0,7.0,30.0,10.0,0.0
15388,51.0,40.0,30.0,12.0,0.0
15389,56.0,2.0,240.0,4.0,0.0
15390,63.0,0.0,240.0,4.0,0.0
15391,44.0,5.0,30.0,12.0,0.0
15392,32.0,35.0,30.0,13.0,0.0
15393,44.0,5.0,30.0,12.0,0.0
15394,32.0,29.0,30.0,13.0,0.0
15395,44.0,0.0,30.0,12.0,0.0
15396,32.0,1.0,30.0,13.0,0.0
15397,84.0,0.0,240.0,0.0,0.0
15398,87.0,3.0,240.0,0.0,0.0
15399,72.0,3.0,240.0,1.0,0.0
15400,75.0,0.0,240.0,1.0,0.0
15401,49.0,5.0,120.0,7.0,0.0
15402,46.0,0.0,120.0,7.0,0.0
15403,63.0,0.0,240.0,2.0,0.0
15404,51.0,5.0,30.0,12.0,0.0
15405,60.0,0.0,240.0,2.0,0.0
15406,49.0,0.0,120.0,3.0,0.0
15407,46.0,21.0,120.0,3.0,0.0
15408,39.0,35.0,30.0,13.0,0.0
15409,32.0,8.0,240.0,8.0,0.0
15410,51.0,5.0,30.0,12.0,0.0
15411,39.0,33.0,30.0,13.0,0.0
15412,51.0,5.0,30.0,12.0,0.0
15413,39.0,9.0,30.0,13.0,0.0
15414,56.0,0.0,480.0,4.0,0.0
15415,63.0,2.0,480.0,4.0,0.0
15416,48.0,5.0,120.0,7.0,0.0
15417,44.0,2.0,120.0,7.0,0.0
15418,56.0,5.0,30.0,12.0,0.0
15419,44.0,21.0,120.0,3.0,0.0
15420,48.0,0.0,120.0,3.0,0.0
15421,44.0,35.0,30.0,13.0,0.0
15422,56.0,5.0,30.0,12.0,0.0
15423,44.0,29.0,30.0,13.0,0.0
15424,56.0,3.0,30.0,12.0,0.0
15425,44.0,1.0,30.0,13.0,0.0
15426,84.0,3.0,240.0,0.0,0.0
15427,87.0,0.0,240.0,0.0,0.0
15428,72.0,2.0,240.0,1.0,0.0
15429,75.0,0.0,240.0,1.0,0.0
15430,46.0,0.0,120.0,7.0,0.0
15431,49.0,19.0,120.0,7.0,0.0
15432,60.0,0.0,240.0,2.0,0.0
15433,63.0,3.0,240.0,2.0,0.0
15434,51.0,5.0,30.0,12.0,0.0
15435,44.0,1.0,240.0,7.0,0.0
15436,49.0,0.0,120.0,3.0,0.0
15437,46.0,1.0,120.0,3.0,0.0
15438,39.0,35.0,30.0,13.0,0.0
15439,32.0,27.0,240.0,8.0,0.0
15440,51.0,5.0,30.0,12.0,0.0
15441,39.0,35.0,30.0,13.0,0.0
15442,51.0,4.0,30.0,12.0,0.0
15443,39.0,9.0,30.0,13.0,0.0
15444,56.0,7.0,30.0,10.0,0.0
15445,48.0,1.0,120.0,7.0,0.0
15446,51.0,0.0,120.0,7.0,0.0
15447,56.0,5.0,30.0,12.0,0.0
15448,48.0,0.0,120.0,3.0,0.0
15449,51.0,1.0,120.0,3.0,0.0
15450,44.0,28.0,30.0,13.0,0.0
15451,56.0,7.0,30.0,10.0,0.0
15452,56.0,5.0,30.0,12.0,0.0
15453,44.0,28.0,30.0,13.0,0.0
15454,56.0,1.0,30.0,10.0,0.0
15455,56.0,0.0,30.0,12.0,0.0
15456,44.0,1.0,30.0,13.0,0.0
15457,63.0,7.0,30.0,10.0,0.0
15458,82.0,3.0,120.0,0.0,0.0
15459,85.0,0.0,120.0,0.0,0.0
15460,73.0,3.0,120.0,1.0,0.0
15461,70.0,0.0,120.0,1.0,0.0
15462,51.0,1.0,240.0,7.0,0.0
15463,48.0,0.0,240.0,7.0,0.0
15464,63.0,5.0,30.0,12.0,0.0
15465,58.0,0.0,120.0,2.0,0.0
15466,61.0,18.0,120.0,2.0,0.0
15467,44.0,1.0,240.0,7.0,0.0
15468,51.0,0.0,240.0,3.0,0.0
15469,48.0,1.0,240.0,3.0,0.0
15470,51.0,28.0,30.0,13.0,0.0
15471,32.0,3.0,240.0,8.0,0.0
15472,63.0,7.0,30.0,10.0,0.0
15473,63.0,5.0,30.0,12.0,0.0
15474,51.0,28.0,30.0,13.0,0.0
15475,63.0,5.0,30.0,10.0,0.0
15476,63.0,5.0,30.0,12.0,0.0
15477,51.0,4.0,30.0,13.0,0.0
15478,68.0,7.0,30.0,10.0,0.0
15479,84.0,3.0,120.0,0.0,0.0
15480,80.0,0.0,120.0,0.0,0.0
15481,68.0,3.0,120.0,1.0,0.0
15482,72.0,0.0,120.0,1.0,0.0
15483,63.0,0.0,600.0,4.0,0.0
15484,56.0,1.0,600.0,4.0,0.0
15485,60.0,0.0,120.0,2.0,0.0
15486,68.0,5.0,30.0,12.0,0.0
15487,56.0,18.0,120.0,2.0,0.0
15488,56.0,28.0,30.0,13.0,0.0
15489,68.0,7.0,30.0,10.0,0.0
15490,68.0,5.0,30.0,12.0,0.0
15491,56.0,28.0,30.0,13.0,0.0
15492,68.0,6.0,30.0,10.0,0.0
15493,68.0,3.0,30.0,12.0,0.0
15494,56.0,1.0,30.0,13.0,0.0
15495,63.0,7.0,30.0,10.0,0.0
15496,82.0,3.0,120.0,0.0,0.0
15497,85.0,0.0,120.0,0.0,0.0
15498,73.0,3.0,120.0,1.0,0.0
15499,70.0,0.0,120.0,1.0,0.0
15500,51.0,0.0,240.0,7.0,0.0
15501,48.0,1.0,240.0,7.0,0.0
15502,58.0,0.0,120.0,2.0,0.0
15503,61.0,18.0,120.0,2.0,0.0
15504,63.0,5.0,30.0,12.0,0.0
15505,44.0,1.0,240.0,7.0,0.0
15506,51.0,1.0,240.0,3.0,0.0
15507,48.0,0.0,240.0,3.0,0.0
15508,51.0,28.0,30.0,13.0,0.0
15509,32.0,3.0,240.0,8.0,0.0
15510,63.0,7.0,30.0,10.0,0.0
15511,63.0,5.0,30.0,12.0,0.0
15512,51.0,28.0,30.0,13.0,0.0
15513,63.0,7.0,30.0,10.0,0.0
15514,63.0,5.0,30.0,12.0,0.0
15515,51.0,4.0,30.0,13.0,0.0
15516,68.0,3.0,30.0,10.0,0.0
15517,87.0,3.0,120.0,0.0,0.0
15518,84.0,0.0,120.0,0.0,0.0
15519,56.0,4.0,30.0,11.0,0.0
15520,72.0,3.0,120.0,1.0,0.0
15521,75.0,0.0,120.0,1.0,0.0
15522,63.0,0.0,120.0,2.0,0.0
15523,60.0,18.0,120.0,2.0,0.0
15524,56.0,5.0,30.0,12.0,0.0
15525,44.0,28.0,30.0,13.0,0.0
15526,68.0,3.0,30.0,10.0,0.0
15527,56.0,4.0,30.0,11.0,0.0
15528,56.0,5.0,30.0,12.0,0.0
15529,44.0,28.0,30.0,13.0,0.0
15530,68.0,3.0,30.0,10.0,0.0
15531,56.0,3.0,30.0,11.0,0.0
15532,56.0,3.0,30.0,12.0,0.0
15533,44.0,1.0,30.0,13.0,0.0
15534,75.0,3.0,30.0,10.0,0.0
15535,85.0,0.0,120.0,0.0,0.0
15536,82.0,3.0,120.0,0.0,0.0
15537,63.0,4.0,30.0,11.0,0.0
15538,73.0,0.0,120.0,1.0,0.0
15539,70.0,3.0,120.0,1.0,0.0
15540,48.0,0.0,240.0,7.0,0.0
15541,51.0,1.0,240.0,7.0,0.0
15542,58.0,18.0,120.0,2.0,0.0
15543,61.0,0.0,120.0,2.0,0.0
15544,51.0,5.0,30.0,12.0,0.0
15545,44.0,1.0,240.0,7.0,0.0
15546,48.0,0.0,240.0,3.0,0.0
15547,51.0,1.0,240.0,3.0,0.0
15548,39.0,28.0,30.0,13.0,0.0
15549,32.0,3.0,240.0,8.0,0.0
15550,75.0,3.0,30.0,10.0,0.0
15551,63.0,4.0,30.0,11.0,0.0
15552,51.0,5.0,30.0,12.0,0.0
15553,39.0,28.0,30.0,13.0,0.0
15554,75.0,3.0,30.0,10.0,0.0
15555,63.0,4.0,30.0,11.0,0.0
15556,51.0,5.0,30.0,12.0,0.0
15557,39.0,4.0,30.0,13.0,0.0
15558,80.0,3.0,30.0,10.0,0.0
15559,87.0,3.0,120.0,0.0,0.0
15560,84.0,0.0,120.0,0.0,0.0
15561,68.0,4.0,30.0,11.0,0.0
15562,75.0,0.0,120.0,1.0,0.0
15563,72.0,3.0,120.0,1.0,0.0
15564,44.0,5.0,30.0,12.0,0.0
15565,60.0,0.0,120.0,2.0,0.0
15566,63.0,18.0,120.0,2.0,0.0
15567,32.0,28.0,30.0,13.0,0.0
15568,80.0,3.0,30.0,10.0,0.0
15569,68.0,4.0,30.0,11.0,0.0
15570,44.0,5.0,30.0,12.0,0.0
15571,32.0,28.0,30.0,13.0,0.0
15572,80.0,3.0,30.0,10.0,0.0
15573,68.0,2.0,30.0,11.0,0.0
15574,44.0,3.0,30.0,12.0,0.0
15575,32.0,1.0,30.0,13.0,0.0
15576,73.0,3.0,30.0,10.0,0.0
15577,80.0,2.0,120.0,0.0,0.0
15578,89.0,0.0,120.0,0.0,0.0
15579,61.0,4.0,30.0,11.0,0.0
15580,77.0,3.0,120.0,1.0,0.0
15581,68.0,0.0,120.0,1.0,0.0
15582,56.0,0.0,60.0,4.0,0.0
15583,59.0,3.0,60.0,4.0,0.0
15584,49.0,4.0,90.0,7.0,0.0
15585,56.0,0.0,120.0,2.0,0.0
15586,65.0,0.0,120.0,2.0,0.0
15587,49.0,5.0,30.0,12.0,0.0
15588,44.0,3.0,90.0,7.0,0.0
15589,49.0,1.0,120.0,3.0,0.0
15590,37.0,28.0,30.0,13.0,0.0
15591,37.0,2.0,90.0,8.0,0.0
15592,73.0,0.0,30.0,10.0,0.0
15593,61.0,4.0,30.0,11.0,0.0
15594,49.0,5.0,30.0,12.0,0.0
15595,37.0,19.0,30.0,13.0,0.0
15596,73.0,1.0,30.0,10.0,0.0
15597,61.0,1.0,30.0,11.0,0.0
15598,49.0,4.0,30.0,12.0,0.0
15599,37.0,57.0,30.0,13.0,0.0
15600,58.0,0.0,60.0,10.0,0.0
15601,82.0,0.0,60.0,10.0,0.0
15602,73.0,0.0,60.0,10.0,0.0
15603,78.0,0.0,60.0,0.0,0.0
15604,82.0,3.0,60.0,0.0,0.0
15605,73.0,2.0,60.0,11.0,0.0
15606,58.0,0.0,60.0,11.0,0.0
15607,66.0,0.0,60.0,11.0,0.0
15608,70.0,0.0,60.0,1.0,0.0
15609,78.0,3.0,60.0,1.0,0.0
15610,58.0,1.0,60.0,4.0,0.0
15611,46.0,0.0,60.0,4.0,0.0
15612,58.0,1.0,60.0,7.0,0.0
15613,54.0,0.0,60.0,7.0,0.0
15614,66.0,3.0,60.0,2.0,0.0
15615,70.0,0.0,60.0,2.0,0.0
15616,70.0,3.0,60.0,12.0,0.0
15617,61.0,0.0,60.0,12.0,0.0
15618,54.0,0.0,60.0,12.0,0.0
15619,49.0,2.0,60.0,7.0,0.0
15620,30.0,0.0,120.0,3.0,0.0
15621,42.0,120.0,120.0,3.0,0.0
15622,42.0,1.0,60.0,13.0,0.0
15623,30.0,2.0,60.0,8.0,0.0
15624,30.0,41.0,60.0,14.0,0.0
15625,82.0,1.0,240.0,10.0,0.0
15626,82.0,2.0,240.0,0.0,0.0
15627,78.0,0.0,240.0,0.0,0.0
15628,73.0,0.0,240.0,11.0,0.0
15629,70.0,1.0,240.0,11.0,0.0
15630,78.0,1.0,240.0,1.0,0.0
15631,70.0,0.0,240.0,1.0,0.0
15632,58.0,0.0,240.0,4.0,0.0
15633,61.0,1.0,240.0,4.0,0.0
15634,54.0,0.0,240.0,7.0,0.0
15635,58.0,1.0,240.0,7.0,0.0
15636,70.0,0.0,240.0,2.0,0.0
15637,66.0,0.0,240.0,2.0,0.0
15638,70.0,3.0,240.0,12.0,0.0
15639,66.0,0.0,240.0,12.0,0.0
15640,49.0,1.0,240.0,7.0,0.0
15641,49.0,1.0,120.0,3.0,0.0
15642,37.0,0.0,120.0,3.0,0.0
15643,49.0,1.0,120.0,13.0,0.0
15644,37.0,2.0,120.0,8.0,0.0
15645,37.0,105.0,120.0,14.0,0.0
15646,42.0,1.0,120.0,3.0,0.0
15647,54.0,0.0,120.0,3.0,0.0
15648,54.0,1.0,120.0,13.0,0.0
15649,42.0,2.0,120.0,8.0,0.0
15650,42.0,116.0,120.0,14.0,0.0
15651,83.0,1.0,240.0,10.0,0.0
15652,83.0,2.0,240.0,0.0,0.0
15653,75.0,0.0,240.0,0.0,0.0
15654,71.0,1.0,240.0,11.0,0.0
15655,75.0,0.0,240.0,11.0,0.0
15656,75.0,1.0,240.0,1.0,0.0
15657,71.0,0.0,240.0,1.0,0.0
15658,63.0,0.0,240.0,4.0,0.0
15659,59.0,1.0,240.0,4.0,0.0
15660,59.0,1.0,240.0,7.0,0.0
15661,54.0,0.0,240.0,7.0,0.0
15662,63.0,0.0,240.0,2.0,0.0
15663,66.0,0.0,240.0,12.0,0.0
15664,63.0,0.0,240.0,12.0,0.0
15665,71.0,3.0,240.0,2.0,0.0
15666,51.0,1.0,240.0,7.0,0.0
15667,47.0,0.0,120.0,3.0,0.0
15668,35.0,1.0,120.0,3.0,0.0
15669,47.0,1.0,120.0,13.0,0.0
15670,35.0,2.0,120.0,8.0,0.0
15671,35.0,105.0,120.0,14.0,0.0
15672,42.0,0.0,120.0,3.0,0.0
15673,54.0,1.0,120.0,3.0,0.0
15674,54.0,1.0,120.0,13.0,0.0
15675,42.0,2.0,120.0,8.0,0.0
15676,42.0,225.0,120.0,14.0,0.0
15677,83.0,1.0,240.0,10.0,0.0
15678,83.0,0.0,240.0,0.0,0.0
15679,77.0,2.0,240.0,0.0,0.0
15680,74.0,1.0,240.0,11.0,0.0
15681,71.0,0.0,240.0,11.0,0.0
15682,77.0,0.0,240.0,1.0,0.0
15683,71.0,1.0,240.0,1.0,0.0
15684,62.0,1.0,240.0,4.0,0.0
15685,59.0,0.0,240.0,4.0,0.0
15686,62.0,0.0,240.0,7.0,0.0
15687,54.0,1.0,240.0,7.0,0.0
15688,65.0,3.0,240.0,12.0,0.0
15689,68.0,0.0,240.0,12.0,0.0
15690,65.0,0.0,240.0,2.0,0.0
15691,71.0,0.0,240.0,2.0,0.0
15692,53.0,1.0,240.0,7.0,0.0
15693,47.0,1.0,240.0,3.0,0.0
15694,59.0,0.0,240.0,3.0,0.0
15695,59.0,1.0,240.0,13.0,0.0
15696,47.0,2.0,240.0,8.0,0.0
15697,47.0,225.0,240.0,14.0,0.0
15698,82.0,1.0,240.0,10.0,0.0
15699,82.0,0.0,240.0,0.0,0.0
15700,78.0,2.0,240.0,0.0,0.0
15701,70.0,1.0,240.0,11.0,0.0
15702,73.0,0.0,240.0,11.0,0.0
15703,78.0,0.0,240.0,1.0,0.0
15704,82.0,1.0,240.0,1.0,0.0
15705,58.0,1.0,240.0,4.0,0.0
15706,61.0,0.0,240.0,4.0,0.0
15707,58.0,1.0,240.0,7.0,0.0
15708,61.0,0.0,240.0,7.0,0.0
15709,66.0,3.0,240.0,12.0,0.0
15710,70.0,0.0,240.0,2.0,0.0
15711,66.0,0.0,240.0,2.0,0.0
15712,70.0,0.0,240.0,12.0,0.0
15713,54.0,1.0,240.0,7.0,0.0
15714,54.0,1.0,240.0,3.0,0.0
15715,42.0,0.0,240.0,3.0,0.0
15716,54.0,1.0,240.0,13.0,0.0
15717,42.0,2.0,240.0,8.0,0.0
15718,42.0,120.0,240.0,14.0,0.0
15719,80.0,1.0,120.0,10.0,0.0
15720,77.0,2.0,120.0,0.0,0.0
15721,80.0,0.0,120.0,0.0,0.0
15722,77.0,1.0,120.0,11.0,0.0
15723,68.0,0.0,120.0,1.0,0.0
15724,65.0,3.0,120.0,1.0,0.0
15725,49.0,0.0,240.0,4.0,0.0
15726,61.0,7.0,240.0,4.0,0.0
15727,65.0,0.0,120.0,2.0,0.0
15728,68.0,4.0,120.0,2.0,0.0
15729,68.0,0.0,120.0,12.0,0.0
15730,53.0,99.0,120.0,3.0,0.0
15731,56.0,0.0,120.0,3.0,0.0
15732,37.0,1.0,240.0,13.0,0.0
15733,37.0,2.0,240.0,8.0,0.0
15734,25.0,1.0,240.0,14.0,0.0
15735,78.0,0.0,120.0,10.0,0.0
15736,75.0,0.0,120.0,0.0,0.0
15737,78.0,2.0,120.0,0.0,0.0
15738,75.0,1.0,120.0,11.0,0.0
15739,66.0,0.0,120.0,1.0,0.0
15740,63.0,3.0,120.0,1.0,0.0
15741,66.0,0.0,120.0,12.0,0.0
15742,66.0,4.0,120.0,2.0,0.0
15743,63.0,0.0,120.0,2.0,0.0
15744,51.0,109.0,120.0,3.0,0.0
15745,54.0,0.0,120.0,3.0,0.0
15746,80.0,1.0,120.0,10.0,0.0
15747,80.0,2.0,120.0,0.0,0.0
15748,77.0,0.0,120.0,0.0,0.0
15749,77.0,1.0,120.0,11.0,0.0
15750,68.0,0.0,120.0,1.0,0.0
15751,65.0,3.0,120.0,1.0,0.0
15752,61.0,2.0,240.0,4.0,0.0
15753,49.0,0.0,240.0,4.0,0.0
15754,68.0,0.0,120.0,2.0,0.0
15755,65.0,4.0,120.0,2.0,0.0
15756,68.0,0.0,120.0,12.0,0.0
15757,53.0,94.0,120.0,3.0,0.0
15758,56.0,0.0,120.0,3.0,0.0
15759,49.0,1.0,240.0,13.0,0.0
15760,49.0,2.0,240.0,8.0,0.0
15761,37.0,120.0,240.0,14.0,0.0
15762,82.0,1.0,120.0,10.0,0.0
15763,78.0,0.0,120.0,0.0,0.0
15764,82.0,2.0,120.0,0.0,0.0
15765,78.0,1.0,120.0,11.0,0.0
15766,66.0,0.0,120.0,1.0,0.0
15767,70.0,1.0,120.0,1.0,0.0
15768,70.0,0.0,120.0,12.0,0.0
15769,70.0,0.0,120.0,2.0,0.0
15770,66.0,4.0,120.0,2.0,0.0
15771,58.0,0.0,120.0,3.0,0.0
15772,54.0,1.0,120.0,3.0,0.0
15773,80.0,1.0,120.0,10.0,0.0
15774,80.0,0.0,120.0,0.0,0.0
15775,77.0,2.0,120.0,0.0,0.0
15776,77.0,1.0,120.0,11.0,0.0
15777,68.0,3.0,120.0,1.0,0.0
15778,65.0,0.0,120.0,1.0,0.0
15779,61.0,7.0,240.0,4.0,0.0
15780,49.0,0.0,240.0,4.0,0.0
15781,68.0,4.0,120.0,12.0,0.0
15782,68.0,0.0,120.0,2.0,0.0
15783,65.0,0.0,120.0,2.0,0.0
15784,53.0,0.0,120.0,3.0,0.0
15785,56.0,99.0,120.0,3.0,0.0
15786,42.0,1.0,240.0,13.0,0.0
15787,42.0,2.0,240.0,8.0,0.0
15788,30.0,1.0,240.0,14.0,0.0
15789,82.0,0.0,120.0,10.0,0.0
15790,82.0,0.0,120.0,0.0,0.0
15791,78.0,2.0,120.0,0.0,0.0
15792,78.0,1.0,120.0,11.0,0.0
15793,70.0,0.0,120.0,1.0,0.0
15794,66.0,3.0,120.0,1.0,0.0
15795,70.0,0.0,120.0,12.0,0.0
15796,70.0,0.0,120.0,2.0,0.0
15797,66.0,4.0,120.0,2.0,0.0
15798,54.0,52.0,120.0,3.0,0.0
15799,58.0,0.0,120.0,3.0,0.0
15800,83.0,1.0,120.0,10.0,0.0
15801,80.0,3.0,120.0,0.0,0.0
15802,83.0,0.0,120.0,0.0,0.0
15803,73.0,4.0,60.0,11.0,0.0
15804,71.0,3.0,120.0,1.0,0.0
15805,68.0,0.0,120.0,1.0,0.0
15806,61.0,2.0,240.0,4.0,0.0
15807,49.0,0.0,240.0,4.0,0.0
15808,61.0,38.0,60.0,12.0,0.0
15809,68.0,0.0,120.0,2.0,0.0
15810,71.0,4.0,120.0,2.0,0.0
15811,59.0,32.0,120.0,3.0,0.0
15812,56.0,0.0,120.0,3.0,0.0
15813,54.0,3.0,240.0,13.0,0.0
15814,54.0,35.0,180.0,8.0,0.0
15815,42.0,28.0,240.0,14.0,0.0
15816,85.0,1.0,60.0,10.0,0.0
15817,85.0,0.0,60.0,0.0,0.0
15818,82.0,3.0,60.0,0.0,0.0
15819,54.0,4.0,30.0,11.0,0.0
15820,73.0,0.0,60.0,1.0,0.0
15821,70.0,2.0,60.0,1.0,0.0
15822,61.0,0.0,60.0,7.0,0.0
15823,58.0,1.0,60.0,7.0,0.0
15824,54.0,28.0,30.0,12.0,0.0
15825,70.0,0.0,60.0,2.0,0.0
15826,73.0,1.0,60.0,2.0,0.0
15827,58.0,1.0,60.0,3.0,0.0
15828,61.0,0.0,60.0,3.0,0.0
15829,54.0,3.0,30.0,11.0,0.0
15830,54.0,1.0,30.0,12.0,0.0
15831,54.0,2.0,30.0,11.0,0.0
15832,54.0,5.0,30.0,12.0,0.0
15833,85.0,1.0,240.0,10.0,0.0
15834,82.0,0.0,240.0,0.0,0.0
15835,85.0,2.0,240.0,0.0,0.0
15836,61.0,4.0,30.0,11.0,0.0
15837,70.0,0.0,240.0,1.0,0.0
15838,73.0,1.0,240.0,1.0,0.0
15839,61.0,2.0,240.0,4.0,0.0
15840,58.0,0.0,240.0,4.0,0.0
15841,61.0,0.0,240.0,7.0,0.0
15842,58.0,4.0,240.0,7.0,0.0
15843,70.0,0.0,240.0,2.0,0.0
15844,61.0,0.0,240.0,2.0,0.0
15845,61.0,36.0,30.0,12.0,0.0
15846,40.0,0.0,240.0,3.0,0.0
15847,52.0,1.0,240.0,3.0,0.0
15848,52.0,3.0,240.0,13.0,0.0
15849,52.0,15.0,240.0,8.0,0.0
15850,40.0,6.0,240.0,14.0,0.0
15851,61.0,4.0,30.0,11.0,0.0
15852,61.0,36.0,30.0,12.0,0.0
15853,61.0,4.0,30.0,11.0,0.0
15854,61.0,36.0,30.0,12.0,0.0
15855,66.0,4.0,30.0,11.0,0.0
15856,66.0,36.0,30.0,12.0,0.0
15857,66.0,4.0,30.0,11.0,0.0
15858,66.0,33.0,30.0,12.0,0.0
15859,66.0,1.0,30.0,11.0,0.0
15860,66.0,4.0,30.0,12.0,0.0
15861,87.0,1.0,240.0,10.0,0.0
15862,87.0,0.0,240.0,0.0,0.0
15863,83.0,2.0,240.0,0.0,0.0
15864,59.0,4.0,30.0,11.0,0.0
15865,75.0,0.0,240.0,1.0,0.0
15866,71.0,1.0,240.0,1.0,0.0
15867,63.0,1.0,240.0,4.0,0.0
15868,59.0,0.0,240.0,4.0,0.0
15869,63.0,0.0,240.0,7.0,0.0
15870,59.0,1.0,240.0,7.0,0.0
15871,47.0,36.0,30.0,12.0,0.0
15872,63.0,0.0,240.0,2.0,0.0
15873,71.0,0.0,240.0,2.0,0.0
15874,54.0,3.0,15.0,7.0,0.0
15875,51.0,1.0,240.0,3.0,0.0
15876,39.0,0.0,240.0,3.0,0.0
15877,51.0,1.0,240.0,13.0,0.0
15878,51.0,2.0,240.0,8.0,0.0
15879,39.0,28.0,240.0,14.0,0.0
15880,59.0,4.0,30.0,11.0,0.0
15881,47.0,36.0,30.0,12.0,0.0
15882,59.0,4.0,30.0,11.0,0.0
15883,47.0,36.0,30.0,12.0,0.0
15884,66.0,4.0,30.0,11.0,0.0
15885,54.0,36.0,30.0,12.0,0.0
15886,66.0,4.0,30.0,11.0,0.0
15887,54.0,33.0,30.0,12.0,0.0
15888,66.0,1.0,30.0,11.0,0.0
15889,54.0,3.0,30.0,12.0,0.0
15890,90.0,1.0,240.0,10.0,0.0
15891,86.0,2.0,240.0,0.0,0.0
15892,90.0,0.0,240.0,0.0,0.0
15893,71.0,0.0,30.0,11.0,0.0
15894,62.0,4.0,30.0,11.0,0.0
15895,78.0,1.0,240.0,1.0,0.0
15896,74.0,0.0,240.0,1.0,0.0
15897,66.0,0.0,240.0,4.0,0.0
15898,59.0,1.0,240.0,4.0,0.0
15899,62.0,1.0,240.0,7.0,0.0
15900,59.0,0.0,240.0,7.0,0.0
15901,74.0,0.0,240.0,2.0,0.0
15902,65.0,36.0,30.0,12.0,0.0
15903,66.0,3.0,240.0,2.0,0.0
15904,59.0,0.0,30.0,12.0,0.0
15905,53.0,1.0,240.0,7.0,0.0
15906,35.0,0.0,240.0,3.0,0.0
15907,47.0,1.0,240.0,3.0,0.0
15908,47.0,1.0,240.0,13.0,0.0
15909,47.0,2.0,240.0,8.0,0.0
15910,35.0,28.0,240.0,14.0,0.0
15911,62.0,0.0,30.0,11.0,0.0
15912,71.0,4.0,30.0,11.0,0.0
15913,59.0,36.0,30.0,12.0,0.0
15914,65.0,0.0,30.0,12.0,0.0
15915,62.0,4.0,30.0,11.0,0.0
15916,71.0,0.0,30.0,11.0,0.0
15917,59.0,0.0,30.0,12.0,0.0
15918,65.0,36.0,30.0,12.0,0.0
15919,62.0,0.0,30.0,11.0,0.0
15920,71.0,4.0,30.0,11.0,0.0
15921,59.0,36.0,30.0,12.0,0.0
15922,65.0,0.0,30.0,12.0,0.0
15923,71.0,0.0,30.0,11.0,0.0
15924,62.0,4.0,30.0,11.0,0.0
15925,59.0,33.0,30.0,12.0,0.0
15926,65.0,0.0,30.0,12.0,0.0
15927,71.0,1.0,30.0,11.0,0.0
15928,62.0,0.0,30.0,11.0,0.0
15929,65.0,0.0,30.0,12.0,0.0
15930,59.0,0.0,30.0,12.0,0.0
15931,85.0,1.0,240.0,10.0,0.0
15932,85.0,0.0,240.0,0.0,0.0
15933,82.0,2.0,240.0,0.0,0.0
15934,58.0,0.0,30.0,11.0,0.0
15935,66.0,4.0,30.0,11.0,0.0
15936,70.0,0.0,240.0,1.0,0.0
15937,73.0,1.0,240.0,1.0,0.0
15938,61.0,1.0,240.0,4.0,0.0
15939,58.0,0.0,240.0,4.0,0.0
15940,61.0,1.0,240.0,7.0,0.0
15941,58.0,0.0,240.0,7.0,0.0
15942,58.0,0.0,30.0,12.0,0.0
15943,66.0,36.0,30.0,12.0,0.0
15944,70.0,3.0,240.0,2.0,0.0
15945,73.0,0.0,240.0,2.0,0.0
15946,54.0,1.0,240.0,7.0,0.0
15947,54.0,0.0,240.0,3.0,0.0
15948,42.0,1.0,240.0,3.0,0.0
15949,54.0,1.0,240.0,13.0,0.0
15950,42.0,2.0,240.0,8.0,0.0
15951,42.0,28.0,240.0,14.0,0.0
15952,66.0,4.0,30.0,11.0,0.0
15953,58.0,0.0,30.0,11.0,0.0
15954,66.0,36.0,30.0,12.0,0.0
15955,58.0,0.0,30.0,12.0,0.0
15956,58.0,4.0,30.0,11.0,0.0
15957,66.0,0.0,30.0,11.0,0.0
15958,58.0,36.0,30.0,12.0,0.0
15959,66.0,0.0,30.0,12.0,0.0
15960,66.0,0.0,30.0,11.0,0.0
15961,58.0,4.0,30.0,11.0,0.0
15962,66.0,0.0,30.0,12.0,0.0
15963,58.0,36.0,30.0,12.0,0.0
15964,66.0,0.0,30.0,11.0,0.0
15965,58.0,4.0,30.0,11.0,0.0
15966,66.0,0.0,30.0,12.0,0.0
15967,58.0,33.0,30.0,12.0,0.0
15968,66.0,1.0,30.0,11.0,0.0
15969,58.0,0.0,30.0,11.0,0.0
15970,66.0,0.0,30.0,12.0,0.0
15971,58.0,0.0,30.0,12.0,0.0
15972,83.0,1.0,120.0,10.0,0.0
15973,83.0,0.0,120.0,0.0,0.0
15974,80.0,3.0,120.0,0.0,0.0
15975,71.0,4.0,30.0,11.0,0.0
15976,68.0,0.0,120.0,1.0,0.0
15977,71.0,3.0,120.0,1.0,0.0
15978,61.0,0.0,240.0,4.0,0.0
15979,49.0,2.0,240.0,4.0,0.0
15980,68.0,36.0,30.0,12.0,0.0
15981,71.0,4.0,120.0,2.0,0.0
15982,68.0,0.0,120.0,2.0,0.0
15983,56.0,0.0,120.0,3.0,0.0
15984,59.0,17.0,120.0,3.0,0.0
15985,40.0,1.0,240.0,13.0,0.0
15986,28.0,2.0,240.0,8.0,0.0
15987,28.0,0.0,240.0,14.0,0.0
15988,71.0,4.0,30.0,11.0,0.0
15989,68.0,36.0,30.0,12.0,0.0
15990,71.0,4.0,30.0,11.0,0.0
15991,68.0,8.0,30.0,12.0,0.0
15992,82.0,1.0,120.0,10.0,0.0
15993,78.0,3.0,120.0,0.0,0.0
15994,82.0,0.0,120.0,0.0,0.0
15995,70.0,4.0,30.0,11.0,0.0
15996,66.0,3.0,120.0,1.0,0.0
15997,70.0,0.0,120.0,1.0,0.0
15998,66.0,36.0,30.0,12.0,0.0
15999,66.0,0.0,120.0,2.0,0.0
16000,70.0,4.0,120.0,2.0,0.0
16001,54.0,0.0,120.0,3.0,0.0
16002,58.0,17.0,120.0,3.0,0.0
16003,70.0,4.0,30.0,11.0,0.0
16004,66.0,36.0,30.0,12.0,0.0
16005,70.0,2.0,30.0,11.0,0.0
16006,66.0,5.0,30.0,12.0,0.0
16007,83.0,1.0,120.0,10.0,0.0
16008,80.0,0.0,120.0,0.0,0.0
16009,83.0,3.0,120.0,0.0,0.0
16010,71.0,4.0,30.0,11.0,0.0
16011,71.0,3.0,120.0,1.0,0.0
16012,68.0,0.0,120.0,1.0,0.0
16013,49.0,0.0,120.0,4.0,0.0
16014,61.0,2.0,120.0,4.0,0.0
16015,71.0,0.0,120.0,2.0,0.0
16016,68.0,4.0,120.0,2.0,0.0
16017,68.0,36.0,30.0,12.0,0.0
16018,56.0,17.0,120.0,3.0,0.0
16019,59.0,0.0,120.0,3.0,0.0
16020,52.0,1.0,240.0,13.0,0.0
16021,40.0,2.0,240.0,8.0,0.0
16022,40.0,28.0,240.0,14.0,0.0
16023,71.0,4.0,30.0,11.0,0.0
16024,68.0,36.0,30.0,12.0,0.0
16025,71.0,2.0,30.0,11.0,0.0
16026,68.0,8.0,30.0,12.0,0.0
16027,85.0,1.0,120.0,10.0,0.0
16028,82.0,2.0,120.0,0.0,0.0
16029,85.0,0.0,120.0,0.0,0.0
16030,73.0,4.0,30.0,11.0,0.0
16031,73.0,3.0,120.0,1.0,0.0
16032,70.0,0.0,120.0,1.0,0.0
16033,70.0,0.0,120.0,2.0,0.0
16034,73.0,4.0,120.0,2.0,0.0
16035,70.0,36.0,30.0,12.0,0.0
16036,58.0,1.0,120.0,3.0,0.0
16037,61.0,0.0,120.0,3.0,0.0
16038,73.0,4.0,30.0,11.0,0.0
16039,70.0,33.0,30.0,12.0,0.0
16040,73.0,1.0,30.0,11.0,0.0
16041,70.0,0.0,30.0,12.0,0.0
16042,83.0,1.0,120.0,10.0,0.0
16043,83.0,0.0,120.0,0.0,0.0
16044,80.0,3.0,120.0,0.0,0.0
16045,71.0,4.0,30.0,11.0,0.0
16046,71.0,3.0,120.0,1.0,0.0
16047,68.0,0.0,120.0,1.0,0.0
16048,68.0,0.0,120.0,2.0,0.0
16049,71.0,4.0,120.0,2.0,0.0
16050,68.0,36.0,30.0,12.0,0.0
16051,59.0,0.0,120.0,3.0,0.0
16052,56.0,17.0,120.0,3.0,0.0
16053,64.0,1.0,240.0,13.0,0.0
16054,52.0,2.0,240.0,8.0,0.0
16055,52.0,1.0,240.0,14.0,0.0
16056,71.0,4.0,30.0,11.0,0.0
16057,68.0,36.0,30.0,12.0,0.0
16058,71.0,4.0,30.0,11.0,0.0
16059,68.0,8.0,30.0,12.0,0.0
16060,85.0,0.0,120.0,10.0,0.0
16061,85.0,3.0,120.0,0.0,0.0
16062,82.0,0.0,120.0,0.0,0.0
16063,73.0,4.0,30.0,11.0,0.0
16064,73.0,3.0,120.0,1.0,0.0
16065,70.0,0.0,120.0,1.0,0.0
16066,73.0,4.0,120.0,2.0,0.0
16067,70.0,0.0,120.0,2.0,0.0
16068,70.0,36.0,30.0,12.0,0.0
16069,61.0,0.0,120.0,3.0,0.0
16070,58.0,17.0,120.0,3.0,0.0
16071,73.0,4.0,30.0,11.0,0.0
16072,70.0,36.0,30.0,12.0,0.0
16073,73.0,4.0,30.0,11.0,0.0
16074,70.0,5.0,30.0,12.0,0.0
16075,87.0,0.0,120.0,10.0,0.0
16076,87.0,3.0,120.0,0.0,0.0
16077,83.0,0.0,120.0,0.0,0.0
16078,75.0,4.0,30.0,11.0,0.0
16079,71.0,3.0,120.0,1.0,0.0
16080,75.0,0.0,120.0,1.0,0.0
16081,71.0,0.0,120.0,2.0,0.0
16082,71.0,36.0,30.0,12.0,0.0
16083,75.0,4.0,120.0,2.0,0.0
16084,63.0,50.0,120.0,3.0,0.0
16085,59.0,0.0,120.0,3.0,0.0
16086,63.0,1.0,120.0,13.0,0.0
16087,51.0,2.0,120.0,8.0,0.0
16088,51.0,1.0,120.0,14.0,0.0
16089,75.0,4.0,30.0,11.0,0.0
16090,71.0,36.0,30.0,12.0,0.0
16091,75.0,4.0,30.0,11.0,0.0
16092,71.0,5.0,30.0,12.0,0.0
16093,88.0,80.0,90.0,10.0,0.0
16094,88.0,0.0,60.0,0.0,0.0
16095,82.0,2.0,60.0,0.0,0.0
16096,76.0,1.0,60.0,11.0,0.0
16097,76.0,3.0,60.0,1.0,0.0
16098,70.0,0.0,60.0,1.0,0.0
16099,76.0,4.0,60.0,2.0,0.0
16100,70.0,0.0,60.0,2.0,0.0
16101,70.0,0.0,60.0,12.0,0.0
16102,64.0,0.0,60.0,3.0,0.0
16103,58.0,1.0,60.0,3.0,0.0
16104,61.0,1.0,60.0,13.0,0.0
16105,49.0,2.0,60.0,8.0,0.0
16106,49.0,25.0,60.0,14.0,0.0
16107,85.0,1.0,60.0,10.0,0.0
16108,85.0,2.0,60.0,0.0,0.0
16109,76.0,0.0,60.0,0.0,0.0
16110,70.0,1.0,60.0,11.0,0.0
16111,73.0,0.0,60.0,11.0,0.0
16112,58.0,0.0,60.0,11.0,0.0
16113,70.0,0.0,60.0,6.0,0.0
16114,58.0,0.0,60.0,6.0,0.0
16115,64.0,0.0,60.0,1.0,0.0
16116,73.0,1.0,60.0,1.0,0.0
16117,34.0,1.0,60.0,4.0,0.0
16118,46.0,0.0,60.0,4.0,0.0
16119,61.0,0.0,60.0,7.0,0.0
16120,52.0,1.0,60.0,7.0,0.0
16121,73.0,0.0,60.0,2.0,0.0
16122,64.0,1.0,60.0,12.0,0.0
16123,64.0,0.0,60.0,2.0,0.0
16124,52.0,2.0,60.0,5.0,0.0
16125,64.0,0.0,60.0,5.0,0.0
16126,46.0,1.0,60.0,7.0,0.0
16127,46.0,1.0,60.0,3.0,0.0
16128,34.0,0.0,60.0,3.0,0.0
16129,46.0,0.0,60.0,15.0,0.0
16130,46.0,1.0,60.0,13.0,0.0
16131,34.0,2.0,60.0,8.0,0.0
16132,34.0,105.0,60.0,14.0,0.0
16133,82.0,3.0,60.0,10.0,0.0
16134,70.0,4.0,60.0,11.0,0.0
16135,64.0,4.0,60.0,12.0,0.0
16136,49.0,1.0,60.0,3.0,0.0
16137,37.0,0.0,60.0,3.0,0.0
16138,49.0,1.0,60.0,13.0,0.0
16139,37.0,2.0,60.0,8.0,0.0
16140,37.0,105.0,60.0,14.0,0.0
16141,76.0,1.0,60.0,10.0,0.0
16142,76.0,0.0,60.0,0.0,0.0
16143,73.0,2.0,60.0,0.0,0.0
16144,58.0,1.0,60.0,6.0,0.0
16145,64.0,0.0,60.0,11.0,0.0
16146,70.0,0.0,60.0,6.0,0.0
16147,70.0,1.0,60.0,1.0,0.0
16148,64.0,0.0,60.0,1.0,0.0
16149,46.0,1.0,60.0,4.0,0.0
16150,58.0,0.0,60.0,4.0,0.0
16151,52.0,0.0,60.0,7.0,0.0
16152,49.0,1.0,60.0,7.0,0.0
16153,61.0,0.0,60.0,12.0,0.0
16154,70.0,0.0,60.0,12.0,0.0
16155,61.0,0.0,60.0,2.0,0.0
16156,64.0,1.0,60.0,2.0,0.0
16157,52.0,2.0,60.0,5.0,0.0
16158,64.0,0.0,60.0,5.0,0.0
16159,46.0,1.0,60.0,7.0,0.0
16160,42.0,0.0,60.0,3.0,0.0
16161,54.0,1.0,60.0,3.0,0.0
16162,46.0,1.0,60.0,15.0,0.0
16163,54.0,0.0,60.0,13.0,0.0
16164,42.0,2.0,60.0,8.0,0.0
16165,42.0,225.0,60.0,14.0,0.0
16166,85.0,1.0,60.0,10.0,0.0
16167,85.0,0.0,60.0,0.0,0.0
16168,76.0,2.0,60.0,0.0,0.0
16169,73.0,0.0,60.0,11.0,0.0
16170,58.0,0.0,60.0,11.0,0.0
16171,70.0,0.0,60.0,6.0,0.0
16172,58.0,0.0,60.0,6.0,0.0
16173,70.0,1.0,60.0,11.0,0.0
16174,64.0,0.0,60.0,1.0,0.0
16175,73.0,1.0,60.0,1.0,0.0
16176,34.0,1.0,60.0,4.0,0.0
16177,46.0,0.0,60.0,4.0,0.0
16178,52.0,1.0,60.0,7.0,0.0
16179,61.0,0.0,60.0,7.0,0.0
16180,64.0,0.0,60.0,2.0,0.0
16181,73.0,0.0,60.0,2.0,0.0
16182,64.0,1.0,60.0,12.0,0.0
16183,52.0,0.0,60.0,5.0,0.0
16184,64.0,2.0,60.0,5.0,0.0
16185,46.0,1.0,60.0,7.0,0.0
16186,46.0,1.0,60.0,3.0,0.0
16187,34.0,0.0,60.0,3.0,0.0
16188,46.0,0.0,60.0,13.0,0.0
16189,46.0,1.0,60.0,15.0,0.0
16190,34.0,2.0,60.0,8.0,0.0
16191,34.0,105.0,60.0,14.0,0.0
16192,82.0,3.0,60.0,10.0,0.0
16193,70.0,4.0,60.0,11.0,0.0
16194,64.0,4.0,60.0,12.0,0.0
16195,49.0,1.0,60.0,3.0,0.0
16196,37.0,0.0,60.0,3.0,0.0
16197,49.0,1.0,60.0,13.0,0.0
16198,37.0,2.0,60.0,8.0,0.0
16199,37.0,105.0,60.0,14.0,0.0
16200,76.0,1.0,60.0,10.0,0.0
16201,73.0,0.0,60.0,0.0,0.0
16202,76.0,2.0,60.0,0.0,0.0
16203,70.0,1.0,60.0,6.0,0.0
16204,58.0,0.0,60.0,6.0,0.0
16205,64.0,0.0,60.0,11.0,0.0
16206,70.0,1.0,60.0,1.0,0.0
16207,64.0,0.0,60.0,1.0,0.0
16208,58.0,0.0,60.0,4.0,0.0
16209,46.0,1.0,60.0,4.0,0.0
16210,49.0,1.0,60.0,7.0,0.0
16211,52.0,0.0,60.0,7.0,0.0
16212,61.0,0.0,60.0,2.0,0.0
16213,70.0,0.0,60.0,12.0,0.0
16214,61.0,0.0,60.0,12.0,0.0
16215,64.0,1.0,60.0,2.0,0.0
16216,52.0,2.0,60.0,5.0,0.0
16217,64.0,0.0,60.0,5.0,0.0
16218,46.0,1.0,60.0,7.0,0.0
16219,54.0,0.0,60.0,3.0,0.0
16220,42.0,1.0,60.0,3.0,0.0
16221,46.0,0.0,60.0,15.0,0.0
16222,54.0,1.0,60.0,13.0,0.0
16223,42.0,2.0,60.0,8.0,0.0
16224,42.0,357.0,60.0,14.0,0.0
16225,73.0,1.0,210.0,10.0,0.0
16226,85.0,3.0,210.0,0.0,0.0
16227,58.0,2.0,210.0,6.0,0.0
16228,70.0,0.0,210.0,6.0,0.0
16229,61.0,0.0,210.0,11.0,0.0
16230,70.0,0.0,210.0,11.0,0.0
16231,64.0,3.0,210.0,1.0,0.0
16232,73.0,0.0,210.0,1.0,0.0
16233,46.0,0.0,210.0,4.0,0.0
16234,58.0,2.0,210.0,4.0,0.0
16235,61.0,0.0,210.0,2.0,0.0
16236,64.0,3.0,210.0,2.0,0.0
16237,52.0,0.0,210.0,12.0,0.0
16238,58.0,5.0,210.0,12.0,0.0
16239,42.0,2.0,210.0,3.0,0.0
16240,42.0,3.0,210.0,13.0,0.0
16241,46.0,139.0,60.0,15.0,0.0
16242,30.0,77.0,210.0,14.0,0.0
16243,70.0,1.0,210.0,10.0,0.0
16244,82.0,3.0,210.0,0.0,0.0
16245,70.0,0.0,210.0,11.0,0.0
16246,61.0,2.0,210.0,11.0,0.0
16247,58.0,0.0,210.0,6.0,0.0
16248,70.0,0.0,210.0,6.0,0.0
16249,73.0,3.0,210.0,1.0,0.0
16250,65.0,0.0,210.0,1.0,0.0
16251,46.0,2.0,210.0,4.0,0.0
16252,58.0,0.0,210.0,4.0,0.0
16253,65.0,3.0,210.0,2.0,0.0
16254,53.0,5.0,210.0,12.0,0.0
16255,61.0,0.0,210.0,2.0,0.0
16256,58.0,0.0,210.0,12.0,0.0
16257,41.0,2.0,210.0,3.0,0.0
16258,41.0,3.0,210.0,13.0,0.0
16259,46.0,139.0,60.0,15.0,0.0
16260,29.0,77.0,210.0,14.0,0.0
16261,61.0,1.0,210.0,10.0,0.0
16262,73.0,3.0,210.0,0.0,0.0
16263,58.0,0.0,210.0,6.0,0.0
16264,58.0,2.0,210.0,11.0,0.0
16265,70.0,0.0,210.0,1.0,0.0
16266,61.0,3.0,210.0,1.0,0.0
16267,46.0,2.0,210.0,4.0,0.0
16268,34.0,0.0,210.0,4.0,0.0
16269,58.0,0.0,210.0,2.0,0.0
16270,58.0,5.0,210.0,12.0,0.0
16271,49.0,3.0,210.0,2.0,0.0
16272,49.0,0.0,210.0,12.0,0.0
16273,40.0,2.0,210.0,3.0,0.0
16274,46.0,139.0,60.0,15.0,0.0
16275,40.0,3.0,210.0,13.0,0.0
16276,28.0,65.0,210.0,14.0,0.0
16277,65.0,3.0,90.0,10.0,0.0
16278,57.0,49.0,90.0,11.0,0.0
16279,53.0,3.0,480.0,4.0,0.0
16280,48.0,0.0,60.0,12.0,0.0
16281,60.0,5.0,60.0,12.0,0.0
16282,48.0,0.0,480.0,5.0,0.0
16283,60.0,3.0,480.0,5.0,0.0
16284,39.0,9.0,60.0,3.0,0.0
16285,39.0,3.0,60.0,13.0,0.0
16286,27.0,3.0,60.0,14.0,0.0
16287,64.0,3.0,90.0,10.0,0.0
16288,56.0,77.0,90.0,11.0,0.0
16289,51.0,4.0,240.0,12.0,0.0
16290,60.0,0.0,240.0,12.0,0.0
16291,39.0,1.0,240.0,3.0,0.0
16292,41.0,28.0,15.0,15.0,0.0
16293,39.0,3.0,240.0,13.0,0.0
16294,27.0,25.0,240.0,14.0,0.0
16295,65.0,3.0,90.0,10.0,0.0
16296,57.0,9.0,90.0,11.0,0.0
16297,64.0,3.0,90.0,10.0,0.0
16298,56.0,44.0,90.0,11.0,0.0
16299,65.0,3.0,90.0,10.0,0.0
16300,57.0,69.0,90.0,11.0,0.0
16301,53.0,5.0,120.0,12.0,0.0
16302,41.0,1.0,120.0,3.0,0.0
16303,41.0,3.0,120.0,13.0,0.0
16304,41.0,53.0,120.0,15.0,0.0
16305,29.0,5.0,120.0,14.0,0.0
16306,69.0,3.0,540.0,10.0,0.0
16307,60.0,4.0,210.0,11.0,0.0
16308,41.0,0.0,15.0,4.0,0.0
16309,53.0,58.0,60.0,4.0,0.0
16310,51.0,4.0,120.0,12.0,0.0
16311,39.0,1.0,120.0,3.0,0.0
16312,39.0,3.0,120.0,13.0,0.0
16313,27.0,112.0,120.0,14.0,0.0
16314,63.0,2.0,240.0,11.0,0.0
16315,53.0,0.0,240.0,4.0,0.0
16316,41.0,2.0,240.0,4.0,0.0
16317,50.0,4.0,120.0,12.0,0.0
16318,38.0,1.0,120.0,3.0,0.0
16319,38.0,3.0,120.0,13.0,0.0
16320,26.0,108.0,120.0,14.0,0.0
16321,48.0,4.0,120.0,12.0,0.0
16322,36.0,1.0,120.0,3.0,0.0
16323,36.0,3.0,120.0,13.0,0.0
16324,24.0,50.0,120.0,14.0,0.0
16325,60.0,4.0,120.0,11.0,0.0
16326,41.0,0.0,60.0,4.0,0.0
16327,53.0,40.0,60.0,4.0,0.0
16328,50.0,5.0,120.0,12.0,0.0
16329,38.0,56.0,120.0,3.0,0.0
16330,38.0,3.0,120.0,13.0,0.0
16331,26.0,11.0,120.0,14.0,0.0
16332,67.0,3.0,90.0,10.0,0.0
16333,58.0,49.0,90.0,11.0,0.0
16334,58.0,3.0,480.0,4.0,0.0
16335,51.0,5.0,60.0,12.0,0.0
16336,63.0,4.0,480.0,5.0,0.0
16337,51.0,0.0,480.0,5.0,0.0
16338,39.0,3.0,60.0,13.0,0.0
16339,46.0,28.0,120.0,15.0,0.0
16340,27.0,5.0,60.0,14.0,0.0
16341,66.0,3.0,90.0,10.0,0.0
16342,57.0,77.0,90.0,11.0,0.0
16343,51.0,5.0,240.0,12.0,0.0
16344,46.0,68.0,120.0,15.0,0.0
16345,39.0,3.0,240.0,13.0,0.0
16346,27.0,25.0,240.0,14.0,0.0
16347,67.0,3.0,90.0,10.0,0.0
16348,58.0,9.0,90.0,11.0,0.0
16349,66.0,3.0,90.0,10.0,0.0
16350,57.0,44.0,90.0,11.0,0.0
16351,67.0,3.0,90.0,10.0,0.0
16352,58.0,69.0,90.0,11.0,0.0
16353,55.0,5.0,120.0,12.0,0.0
16354,43.0,3.0,120.0,13.0,0.0
16355,46.0,53.0,120.0,15.0,0.0
16356,31.0,5.0,120.0,14.0,0.0
16357,70.0,3.0,210.0,10.0,0.0
16358,51.0,9.0,210.0,11.0,0.0
16359,46.0,0.0,15.0,4.0,0.0
16360,58.0,0.0,60.0,4.0,0.0
16361,63.0,0.0,60.0,12.0,0.0
16362,55.0,53.0,60.0,12.0,0.0
16363,39.0,3.0,120.0,13.0,0.0
16364,27.0,117.0,120.0,14.0,0.0
16365,75.0,3.0,240.0,10.0,0.0
16366,63.0,5.0,240.0,12.0,0.0
16367,55.0,0.0,240.0,12.0,0.0
16368,41.0,0.0,15.0,15.0,0.0
16369,38.0,3.0,120.0,13.0,0.0
16370,26.0,105.0,120.0,14.0,0.0
16371,36.0,3.0,120.0,13.0,0.0
16372,24.0,50.0,120.0,14.0,0.0
16373,70.0,3.0,120.0,10.0,0.0
16374,67.0,0.0,15.0,11.0,0.0
16375,58.0,2.0,15.0,11.0,0.0
16376,58.0,0.0,15.0,4.0,0.0
16377,46.0,2.0,15.0,4.0,0.0
16378,51.0,5.0,120.0,12.0,0.0
16379,38.0,3.0,120.0,13.0,0.0
16380,26.0,0.0,120.0,14.0,0.0
16381,69.0,1.0,90.0,10.0,0.0
16382,77.0,2.0,90.0,0.0,0.0
16383,81.0,0.0,90.0,0.0,0.0
16384,65.0,1.0,90.0,11.0,0.0
16385,65.0,48.0,90.0,1.0,0.0
16386,69.0,0.0,90.0,1.0,0.0
16387,60.0,4.0,60.0,12.0,0.0
16388,51.0,0.0,60.0,12.0,0.0
16389,48.0,4.0,480.0,5.0,0.0
16390,60.0,0.0,480.0,5.0,0.0
16391,39.0,1.0,60.0,3.0,0.0
16392,41.0,55.0,15.0,15.0,0.0
16393,39.0,3.0,60.0,13.0,0.0
16394,27.0,5.0,60.0,14.0,0.0
16395,68.0,1.0,90.0,10.0,0.0
16396,76.0,0.0,90.0,0.0,0.0
16397,80.0,2.0,90.0,0.0,0.0
16398,64.0,1.0,90.0,11.0,0.0
16399,68.0,0.0,90.0,1.0,0.0
16400,64.0,76.0,90.0,1.0,0.0
16401,60.0,0.0,240.0,12.0,0.0
16402,51.0,4.0,240.0,12.0,0.0
16403,39.0,0.0,240.0,3.0,0.0
16404,51.0,1.0,240.0,3.0,0.0
16405,39.0,3.0,240.0,13.0,0.0
16406,41.0,68.0,120.0,15.0,0.0
16407,27.0,25.0,240.0,14.0,0.0
16408,69.0,1.0,90.0,10.0,0.0
16409,81.0,2.0,90.0,0.0,0.0
16410,77.0,0.0,90.0,0.0,0.0
16411,65.0,1.0,90.0,11.0,0.0
16412,65.0,0.0,90.0,1.0,0.0
16413,69.0,8.0,90.0,1.0,0.0
16414,68.0,1.0,90.0,10.0,0.0
16415,76.0,2.0,90.0,0.0,0.0
16416,80.0,0.0,90.0,0.0,0.0
16417,64.0,1.0,90.0,11.0,0.0
16418,68.0,0.0,90.0,1.0,0.0
16419,64.0,43.0,90.0,1.0,0.0
16420,69.0,1.0,90.0,10.0,0.0
16421,77.0,2.0,90.0,0.0,0.0
16422,81.0,0.0,90.0,0.0,0.0
16423,65.0,1.0,90.0,11.0,0.0
16424,65.0,0.0,90.0,1.0,0.0
16425,53.0,4.0,120.0,12.0,0.0
16426,53.0,0.0,120.0,3.0,0.0
16427,41.0,1.0,120.0,3.0,0.0
16428,41.0,53.0,120.0,15.0,0.0
16429,41.0,3.0,120.0,13.0,0.0
16430,29.0,5.0,120.0,14.0,0.0
16431,72.0,1.0,570.0,10.0,0.0
16432,84.0,2.0,570.0,0.0,0.0
16433,81.0,0.0,570.0,0.0,0.0
16434,57.0,1.0,210.0,11.0,0.0
16435,69.0,68.0,15.0,1.0,0.0
16436,41.0,3.0,15.0,4.0,0.0
16437,53.0,0.0,15.0,4.0,0.0
16438,57.0,0.0,120.0,2.0,0.0
16439,60.0,4.0,120.0,2.0,0.0
16440,53.0,0.0,60.0,12.0,0.0
16441,63.0,56.0,60.0,12.0,0.0
16442,39.0,0.0,120.0,3.0,0.0
16443,51.0,1.0,120.0,3.0,0.0
16444,39.0,0.0,120.0,13.0,0.0
16445,27.0,116.0,120.0,14.0,0.0
16446,69.0,1.0,240.0,11.0,0.0
16447,77.0,1.0,240.0,1.0,0.0
16448,72.0,3.0,15.0,1.0,0.0
16449,53.0,0.0,240.0,4.0,0.0
16450,63.0,0.0,240.0,2.0,0.0
16451,53.0,0.0,240.0,12.0,0.0
16452,63.0,4.0,240.0,12.0,0.0
16453,69.0,0.0,240.0,2.0,0.0
16454,38.0,0.0,120.0,3.0,0.0
16455,50.0,1.0,120.0,3.0,0.0
16456,46.0,3.0,15.0,15.0,0.0
16457,38.0,3.0,120.0,13.0,0.0
16458,26.0,108.0,120.0,14.0,0.0
16459,48.0,0.0,120.0,3.0,0.0
16460,36.0,1.0,120.0,3.0,0.0
16461,36.0,3.0,120.0,13.0,0.0
16462,24.0,50.0,120.0,14.0,0.0
16463,63.0,1.0,120.0,11.0,0.0
16464,72.0,0.0,15.0,1.0,0.0
16465,69.0,3.0,120.0,1.0,0.0
16466,41.0,2.0,15.0,4.0,0.0
16467,53.0,47.0,60.0,4.0,0.0
16468,57.0,0.0,120.0,2.0,0.0
16469,60.0,5.0,120.0,2.0,0.0
16470,53.0,4.0,120.0,12.0,0.0
16471,38.0,0.0,120.0,3.0,0.0
16472,50.0,1.0,120.0,3.0,0.0
16473,46.0,53.0,120.0,15.0,0.0
16474,38.0,3.0,120.0,13.0,0.0
16475,26.0,0.0,120.0,14.0,0.0
16476,70.0,1.0,90.0,10.0,0.0
16477,82.0,0.0,90.0,0.0,0.0
16478,79.0,2.0,90.0,0.0,0.0
16479,67.0,1.0,90.0,11.0,0.0
16480,67.0,48.0,90.0,1.0,0.0
16481,70.0,0.0,90.0,1.0,0.0
16482,46.0,0.0,60.0,4.0,0.0
16483,58.0,2.0,60.0,4.0,0.0
16484,51.0,4.0,60.0,12.0,0.0
16485,63.0,0.0,60.0,12.0,0.0
16486,51.0,3.0,480.0,5.0,0.0
16487,63.0,0.0,1500.0,5.0,0.0
16488,39.0,1.0,60.0,3.0,0.0
16489,51.0,0.0,60.0,3.0,0.0
16490,39.0,3.0,60.0,13.0,0.0
16491,27.0,5.0,60.0,14.0,0.0
16492,69.0,1.0,90.0,10.0,0.0
16493,81.0,2.0,90.0,0.0,0.0
16494,78.0,0.0,90.0,0.0,0.0
16495,66.0,1.0,90.0,11.0,0.0
16496,69.0,0.0,90.0,1.0,0.0
16497,66.0,76.0,90.0,1.0,0.0
16498,58.0,0.0,240.0,4.0,0.0
16499,51.0,0.0,240.0,12.0,0.0
16500,63.0,13.0,240.0,12.0,0.0
16501,39.0,0.0,240.0,3.0,0.0
16502,51.0,1.0,240.0,3.0,0.0
16503,46.0,28.0,15.0,15.0,0.0
16504,39.0,3.0,240.0,13.0,0.0
16505,27.0,25.0,240.0,14.0,0.0
16506,70.0,1.0,90.0,10.0,0.0
16507,82.0,0.0,90.0,0.0,0.0
16508,79.0,2.0,90.0,0.0,0.0
16509,67.0,1.0,90.0,11.0,0.0
16510,70.0,8.0,90.0,1.0,0.0
16511,67.0,0.0,90.0,1.0,0.0
16512,69.0,1.0,90.0,10.0,0.0
16513,81.0,0.0,90.0,0.0,0.0
16514,78.0,2.0,90.0,0.0,0.0
16515,69.0,0.0,90.0,1.0,0.0
16516,66.0,28.0,90.0,1.0,0.0
16517,70.0,1.0,90.0,10.0,0.0
16518,79.0,2.0,90.0,0.0,0.0
16519,82.0,0.0,90.0,0.0,0.0
16520,66.0,1.0,15.0,11.0,0.0
16521,67.0,0.0,90.0,1.0,0.0
16522,46.0,6.0,15.0,4.0,0.0
16523,58.0,47.0,60.0,4.0,0.0
16524,51.0,16.0,120.0,12.0,0.0
16525,43.0,0.0,120.0,3.0,0.0
16526,55.0,1.0,120.0,3.0,0.0
16527,46.0,3.0,120.0,15.0,0.0
16528,43.0,0.0,120.0,13.0,0.0
16529,31.0,50.0,120.0,14.0,0.0
16530,75.0,3.0,180.0,10.0,0.0
16531,87.0,0.0,1140.0,0.0,0.0
16532,82.0,11.0,1050.0,0.0,0.0
16533,58.0,4.0,180.0,11.0,0.0
16534,70.0,21.0,15.0,1.0,0.0
16535,75.0,3.0,210.0,1.0,0.0
16536,58.0,2.0,1020.0,6.0,0.0
16537,70.0,0.0,1020.0,6.0,0.0
16538,46.0,40.0,60.0,4.0,0.0
16539,58.0,0.0,60.0,4.0,0.0
16540,67.0,0.0,120.0,12.0,0.0
16541,63.0,12.0,120.0,12.0,0.0
16542,63.0,0.0,120.0,2.0,0.0
16543,55.0,37.0,1020.0,5.0,0.0
16544,39.0,1.0,120.0,3.0,0.0
16545,51.0,0.0,120.0,3.0,0.0
16546,39.0,3.0,120.0,13.0,0.0
16547,27.0,116.0,120.0,14.0,0.0
16548,79.0,3.0,240.0,10.0,0.0
16549,70.0,4.0,240.0,11.0,0.0
16550,82.0,1.0,240.0,1.0,0.0
16551,58.0,2.0,240.0,4.0,0.0
16552,46.0,0.0,240.0,4.0,0.0
16553,67.0,4.0,15.0,2.0,0.0
16554,63.0,12.0,240.0,12.0,0.0
16555,67.0,0.0,240.0,12.0,0.0
16556,75.0,4.0,240.0,2.0,0.0
16557,38.0,0.0,120.0,3.0,0.0
16558,50.0,1.0,120.0,3.0,0.0
16559,46.0,0.0,15.0,15.0,0.0
16560,38.0,3.0,120.0,13.0,0.0
16561,26.0,90.0,120.0,14.0,0.0
16562,36.0,0.0,120.0,3.0,0.0
16563,48.0,1.0,120.0,3.0,0.0
16564,36.0,3.0,120.0,13.0,0.0
16565,24.0,50.0,120.0,14.0,0.0
16566,70.0,3.0,240.0,10.0,0.0
16567,67.0,4.0,240.0,11.0,0.0
16568,75.0,0.0,15.0,1.0,0.0
16569,70.0,3.0,240.0,1.0,0.0
16570,46.0,0.0,60.0,4.0,0.0
16571,58.0,51.0,60.0,4.0,0.0
16572,63.0,0.0,240.0,2.0,0.0
16573,63.0,12.0,240.0,12.0,0.0
16574,67.0,0.0,240.0,12.0,0.0
16575,38.0,0.0,120.0,3.0,0.0
16576,50.0,1.0,120.0,3.0,0.0
16577,38.0,3.0,120.0,13.0,0.0
16578,26.0,65.0,120.0,14.0,0.0
16579,46.0,0.0,60.0,4.0,0.0
16580,58.0,40.0,60.0,4.0,0.0
16581,39.0,1.0,120.0,3.0,0.0
16582,51.0,0.0,120.0,3.0,0.0
16583,39.0,3.0,120.0,13.0,0.0
16584,27.0,116.0,120.0,14.0,0.0
16585,87.0,3.0,240.0,10.0,0.0
16586,70.0,0.0,240.0,11.0,0.0
16587,79.0,4.0,240.0,11.0,0.0
16588,82.0,0.0,240.0,1.0,0.0
16589,58.0,2.0,240.0,4.0,0.0
16590,46.0,0.0,240.0,4.0,0.0
16591,67.0,12.0,240.0,12.0,0.0
16592,63.0,0.0,240.0,12.0,0.0
16593,67.0,4.0,15.0,2.0,0.0
16594,75.0,0.0,240.0,2.0,0.0
16595,50.0,1.0,120.0,3.0,0.0
16596,38.0,0.0,120.0,3.0,0.0
16597,38.0,3.0,120.0,13.0,0.0
16598,26.0,90.0,120.0,14.0,0.0
16599,36.0,1.0,120.0,3.0,0.0
16600,48.0,0.0,120.0,3.0,0.0
16601,36.0,3.0,120.0,13.0,0.0
16602,24.0,50.0,120.0,14.0,0.0
16603,82.0,1.0,240.0,10.0,0.0
16604,70.0,0.0,240.0,11.0,0.0
16605,67.0,4.0,240.0,11.0,0.0
16606,70.0,3.0,240.0,1.0,0.0
16607,75.0,1.0,15.0,1.0,0.0
16608,46.0,51.0,60.0,4.0,0.0
16609,58.0,0.0,60.0,4.0,0.0
16610,67.0,4.0,15.0,2.0,0.0
16611,67.0,0.0,240.0,12.0,0.0
16612,63.0,4.0,240.0,2.0,0.0
16613,63.0,12.0,240.0,12.0,0.0
16614,43.0,0.0,120.0,3.0,0.0
16615,55.0,1.0,120.0,3.0,0.0
16616,43.0,3.0,120.0,13.0,0.0
16617,31.0,1.0,120.0,14.0,0.0
16618,79.0,2.0,120.0,0.0,0.0
16619,58.0,3.0,60.0,4.0,0.0
16620,46.0,0.0,60.0,4.0,0.0
16621,51.0,1.0,120.0,3.0,0.0
16622,46.0,51.0,15.0,15.0,0.0
16623,51.0,0.0,120.0,13.0,0.0
16624,39.0,116.0,120.0,14.0,0.0
16625,91.0,1.0,240.0,10.0,0.0
16626,87.0,2.0,240.0,0.0,0.0
16627,79.0,0.0,240.0,0.0,0.0
16628,79.0,0.0,240.0,11.0,0.0
16629,70.0,0.0,240.0,6.0,0.0
16630,70.0,1.0,240.0,11.0,0.0
16631,79.0,0.0,240.0,1.0,0.0
16632,70.0,3.0,240.0,1.0,0.0
16633,46.0,0.0,240.0,4.0,0.0
16634,75.0,0.0,240.0,2.0,0.0
16635,67.0,11.0,240.0,2.0,0.0
16636,67.0,0.0,240.0,12.0,0.0
16637,63.0,0.0,240.0,12.0,0.0
16638,63.0,0.0,240.0,5.0,0.0
16639,55.0,3.0,240.0,5.0,0.0
16640,50.0,1.0,120.0,3.0,0.0
16641,46.0,3.0,15.0,15.0,0.0
16642,50.0,3.0,120.0,13.0,0.0
16643,38.0,90.0,120.0,14.0,0.0
16644,48.0,1.0,120.0,3.0,0.0
16645,48.0,0.0,120.0,13.0,0.0
16646,36.0,101.0,120.0,14.0,0.0
16647,87.0,1.0,240.0,10.0,0.0
16648,87.0,0.0,240.0,0.0,0.0
16649,79.0,2.0,240.0,0.0,0.0
16650,67.0,1.0,240.0,11.0,0.0
16651,70.0,0.0,240.0,6.0,0.0
16652,75.0,0.0,240.0,11.0,0.0
16653,58.0,2.0,15.0,6.0,0.0
16654,67.0,0.0,240.0,1.0,0.0
16655,75.0,3.0,240.0,1.0,0.0
16656,58.0,3.0,15.0,4.0,0.0
16657,46.0,0.0,240.0,4.0,0.0
16658,63.0,0.0,240.0,2.0,0.0
16659,67.0,4.0,240.0,12.0,0.0
16660,58.0,0.0,240.0,12.0,0.0
16661,67.0,0.0,240.0,2.0,0.0
16662,63.0,0.0,240.0,5.0,0.0
16663,55.0,4.0,240.0,5.0,0.0
16664,50.0,1.0,120.0,3.0,0.0
16665,50.0,3.0,120.0,13.0,0.0
16666,46.0,3.0,15.0,15.0,0.0
16667,38.0,12.0,120.0,14.0,0.0
16668,51.0,1.0,120.0,3.0,0.0
16669,51.0,3.0,120.0,13.0,0.0
16670,39.0,3.0,120.0,14.0,0.0
16671,84.0,1.0,240.0,10.0,0.0
16672,82.0,0.0,240.0,0.0,0.0
16673,84.0,2.0,240.0,0.0,0.0
16674,70.0,0.0,240.0,11.0,0.0
16675,70.0,0.0,240.0,6.0,0.0
16676,72.0,2.0,240.0,6.0,0.0
16677,72.0,1.0,240.0,11.0,0.0
16678,72.0,0.0,240.0,1.0,0.0
16679,70.0,3.0,240.0,1.0,0.0
16680,58.0,3.0,15.0,4.0,0.0
16681,67.0,4.0,120.0,12.0,0.0
16682,58.0,4.0,240.0,12.0,0.0
16683,70.0,0.0,240.0,2.0,0.0
16684,67.0,0.0,120.0,2.0,0.0
16685,58.0,4.0,240.0,5.0,0.0
16686,60.0,0.0,240.0,5.0,0.0
16687,52.0,1.0,120.0,3.0,0.0
16688,46.0,100.0,15.0,15.0,0.0
16689,52.0,3.0,120.0,13.0,0.0
16690,40.0,12.0,120.0,14.0,0.0
16691,65.0,0.0,120.0,2.0,0.0
16692,65.0,0.0,120.0,12.0,0.0
16693,53.0,1.0,120.0,3.0,0.0
16694,53.0,3.0,120.0,13.0,0.0
16695,41.0,3.0,120.0,14.0,0.0
16696,82.0,1.0,120.0,10.0,0.0
16697,84.0,2.0,120.0,0.0,0.0
16698,82.0,0.0,120.0,0.0,0.0
16699,70.0,1.0,120.0,11.0,0.0
16700,72.0,0.0,120.0,11.0,0.0
16701,70.0,2.0,120.0,6.0,0.0
16702,70.0,3.0,120.0,1.0,0.0
16703,60.0,3.0,15.0,4.0,0.0
16704,58.0,3.0,120.0,4.0,0.0
16705,64.0,4.0,120.0,12.0,0.0
16706,64.0,0.0,120.0,2.0,0.0
16707,60.0,4.0,120.0,5.0,0.0
16708,58.0,0.0,120.0,5.0,0.0
16709,55.0,1.0,120.0,3.0,0.0
16710,46.0,93.0,15.0,15.0,0.0
16711,55.0,3.0,120.0,13.0,0.0
16712,43.0,3.0,120.0,14.0,0.0
16713,89.0,1.0,360.0,10.0,0.0
16714,89.0,0.0,360.0,0.0,0.0
16715,82.0,3.0,240.0,0.0,0.0
16716,72.0,0.0,15.0,6.0,0.0
16717,65.0,0.0,360.0,11.0,0.0
16718,75.0,12.0,360.0,11.0,0.0
16719,77.0,0.0,360.0,1.0,0.0
16720,70.0,4.0,240.0,1.0,0.0
16721,60.0,0.0,15.0,4.0,0.0
16722,53.0,20.0,120.0,12.0,0.0
16723,60.0,9.0,240.0,12.0,0.0
16724,70.0,0.0,240.0,12.0,0.0
16725,75.0,1.0,360.0,2.0,0.0
16726,65.0,0.0,360.0,2.0,0.0
16727,60.0,3.0,360.0,5.0,0.0
16728,58.0,3.0,240.0,5.0,0.0
16729,53.0,1.0,240.0,3.0,0.0
16730,41.0,30.0,30.0,15.0,0.0
16731,53.0,3.0,240.0,13.0,0.0
16732,41.0,57.0,240.0,14.0,0.0
16733,41.0,31.0,30.0,15.0,0.0
16734,41.0,10.0,15.0,15.0,0.0
16735,41.0,28.0,15.0,15.0,0.0
16736,41.0,9.0,15.0,15.0,0.0
16737,81.0,2.0,120.0,0.0,0.0
16738,69.0,1.0,120.0,1.0,0.0
16739,69.0,0.0,120.0,12.0,0.0
16740,57.0,0.0,120.0,5.0,0.0
16741,41.0,1.0,120.0,3.0,0.0
16742,41.0,36.0,60.0,15.0,0.0
16743,41.0,3.0,120.0,13.0,0.0
16744,29.0,48.0,120.0,14.0,0.0
16745,77.0,2.0,60.0,6.0,0.0
16746,65.0,1.0,15.0,6.0,0.0
16747,53.0,2.0,15.0,4.0,0.0
16748,65.0,0.0,60.0,4.0,0.0
16749,82.0,1.0,300.0,10.0,0.0
16750,82.0,2.0,300.0,0.0,0.0
16751,70.0,0.0,240.0,6.0,0.0
16752,58.0,2.0,240.0,6.0,0.0
16753,70.0,57.0,300.0,11.0,0.0
16754,58.0,40.0,240.0,4.0,0.0
16755,46.0,0.0,240.0,4.0,0.0
16756,70.0,2.0,240.0,1.0,0.0
16757,64.0,0.0,240.0,1.0,0.0
16758,52.0,0.0,240.0,7.0,0.0
16759,58.0,1.0,240.0,7.0,0.0
16760,52.0,0.0,240.0,12.0,0.0
16761,64.0,0.0,240.0,2.0,0.0
16762,61.0,1.0,240.0,2.0,0.0
16763,61.0,0.0,240.0,12.0,0.0
16764,70.0,0.0,240.0,12.0,0.0
16765,55.0,0.0,240.0,5.0,0.0
16766,43.0,2.0,240.0,5.0,0.0
16767,49.0,1.0,240.0,7.0,0.0
16768,43.0,0.0,240.0,3.0,0.0
16769,55.0,1.0,240.0,3.0,0.0
16770,46.0,33.0,120.0,15.0,0.0
16771,43.0,1.0,240.0,13.0,0.0
16772,43.0,2.0,240.0,8.0,0.0
16773,31.0,168.0,240.0,14.0,0.0
16774,81.0,1.0,60.0,10.0,0.0
16775,81.0,2.0,60.0,0.0,0.0
16776,69.0,24.0,60.0,11.0,0.0
16777,82.0,1.0,60.0,10.0,0.0
16778,82.0,2.0,60.0,0.0,0.0
16779,70.0,57.0,60.0,11.0,0.0
16780,85.0,1.0,60.0,10.0,0.0
16781,85.0,2.0,60.0,0.0,0.0
16782,73.0,16.0,60.0,11.0,0.0
16783,82.0,1.0,240.0,10.0,0.0
16784,82.0,2.0,240.0,0.0,0.0
16785,70.0,75.0,240.0,11.0,0.0
16786,58.0,1.0,60.0,6.0,0.0
16787,70.0,0.0,60.0,6.0,0.0
16788,64.0,0.0,60.0,1.0,0.0
16789,67.0,1.0,60.0,1.0,0.0
16790,58.0,1.0,60.0,4.0,0.0
16791,46.0,0.0,60.0,4.0,0.0
16792,55.0,1.0,60.0,7.0,0.0
16793,52.0,0.0,60.0,7.0,0.0
16794,67.0,0.0,60.0,2.0,0.0
16795,67.0,0.0,60.0,12.0,0.0
16796,64.0,3.0,60.0,2.0,0.0
16797,52.0,0.0,60.0,12.0,0.0
16798,58.0,0.0,60.0,12.0,0.0
16799,46.0,1.0,60.0,7.0,0.0
16800,49.0,0.0,60.0,3.0,0.0
16801,37.0,1.0,60.0,3.0,0.0
16802,37.0,1.0,60.0,13.0,0.0
16803,46.0,0.0,60.0,15.0,0.0
16804,37.0,2.0,60.0,8.0,0.0
16805,25.0,30.0,60.0,14.0,0.0
16806,58.0,1.0,60.0,6.0,0.0
16807,70.0,0.0,60.0,6.0,0.0
16808,65.0,1.0,60.0,1.0,0.0
16809,58.0,1.0,60.0,4.0,0.0
16810,46.0,0.0,60.0,4.0,0.0
16811,53.0,1.0,60.0,7.0,0.0
16812,65.0,0.0,60.0,2.0,0.0
16813,58.0,0.0,60.0,12.0,0.0
16814,65.0,3.0,60.0,12.0,0.0
16815,53.0,0.0,60.0,12.0,0.0
16816,46.0,1.0,60.0,7.0,0.0
16817,38.0,0.0,60.0,3.0,0.0
16818,50.0,1.0,60.0,3.0,0.0
16819,46.0,0.0,60.0,15.0,0.0
16820,38.0,1.0,60.0,13.0,0.0
16821,38.0,2.0,60.0,8.0,0.0
16822,26.0,108.0,60.0,14.0,0.0
16823,77.0,1.0,60.0,6.0,0.0
16824,65.0,0.0,60.0,6.0,0.0
16825,60.0,0.0,60.0,1.0,0.0
16826,69.0,1.0,60.0,1.0,0.0
16827,65.0,1.0,60.0,4.0,0.0
16828,53.0,0.0,60.0,4.0,0.0
16829,53.0,1.0,60.0,7.0,0.0
16830,57.0,0.0,60.0,7.0,0.0
16831,62.0,0.0,60.0,2.0,0.0
16832,53.0,0.0,60.0,12.0,0.0
16833,69.0,0.0,60.0,2.0,0.0
16834,69.0,3.0,60.0,12.0,0.0
16835,60.0,0.0,60.0,12.0,0.0
16836,48.0,1.0,60.0,7.0,0.0
16837,41.0,0.0,60.0,3.0,0.0
16838,53.0,1.0,60.0,3.0,0.0
16839,41.0,1.0,60.0,15.0,0.0
16840,41.0,0.0,60.0,13.0,0.0
16841,41.0,2.0,60.0,8.0,0.0
16842,29.0,288.0,60.0,14.0,0.0
16843,82.0,1.0,300.0,10.0,0.0
16844,82.0,2.0,300.0,0.0,0.0
16845,70.0,57.0,300.0,11.0,0.0
16846,58.0,2.0,240.0,6.0,0.0
16847,70.0,0.0,240.0,6.0,0.0
16848,46.0,0.0,240.0,4.0,0.0
16849,58.0,40.0,240.0,4.0,0.0
16850,64.0,2.0,240.0,1.0,0.0
16851,70.0,0.0,240.0,1.0,0.0
16852,52.0,1.0,240.0,7.0,0.0
16853,58.0,0.0,240.0,7.0,0.0
16854,52.0,0.0,240.0,12.0,0.0
16855,70.0,0.0,240.0,12.0,0.0
16856,61.0,0.0,240.0,12.0,0.0
16857,64.0,1.0,240.0,2.0,0.0
16858,61.0,0.0,240.0,2.0,0.0
16859,43.0,0.0,240.0,5.0,0.0
16860,55.0,2.0,240.0,5.0,0.0
16861,49.0,1.0,240.0,7.0,0.0
16862,55.0,0.0,240.0,3.0,0.0
16863,43.0,1.0,240.0,3.0,0.0
16864,46.0,33.0,120.0,15.0,0.0
16865,43.0,1.0,240.0,13.0,0.0
16866,43.0,2.0,240.0,8.0,0.0
16867,31.0,168.0,240.0,14.0,0.0
16868,81.0,1.0,60.0,10.0,0.0
16869,81.0,2.0,60.0,0.0,0.0
16870,69.0,24.0,60.0,11.0,0.0
16871,82.0,1.0,60.0,10.0,0.0
16872,82.0,2.0,60.0,0.0,0.0
16873,70.0,57.0,60.0,11.0,0.0
16874,85.0,1.0,60.0,10.0,0.0
16875,85.0,2.0,60.0,0.0,0.0
16876,73.0,16.0,60.0,11.0,0.0
16877,82.0,1.0,240.0,10.0,0.0
16878,82.0,2.0,240.0,0.0,0.0
16879,70.0,75.0,240.0,11.0,0.0
16880,58.0,1.0,60.0,6.0,0.0
16881,70.0,0.0,60.0,6.0,0.0
16882,67.0,1.0,60.0,1.0,0.0
16883,64.0,0.0,60.0,1.0,0.0
16884,46.0,0.0,60.0,4.0,0.0
16885,58.0,1.0,60.0,4.0,0.0
16886,52.0,1.0,60.0,7.0,0.0
16887,55.0,0.0,60.0,7.0,0.0
16888,52.0,0.0,60.0,12.0,0.0
16889,67.0,0.0,60.0,12.0,0.0
16890,58.0,0.0,60.0,12.0,0.0
16891,64.0,0.0,60.0,2.0,0.0
16892,67.0,3.0,60.0,2.0,0.0
16893,46.0,1.0,60.0,7.0,0.0
16894,49.0,0.0,60.0,3.0,0.0
16895,37.0,1.0,60.0,3.0,0.0
16896,46.0,0.0,60.0,15.0,0.0
16897,37.0,1.0,60.0,13.0,0.0
16898,37.0,2.0,60.0,8.0,0.0
16899,25.0,30.0,60.0,14.0,0.0
16900,58.0,0.0,60.0,6.0,0.0
16901,70.0,1.0,60.0,6.0,0.0
16902,65.0,1.0,60.0,1.0,0.0
16903,58.0,1.0,60.0,4.0,0.0
16904,46.0,0.0,60.0,4.0,0.0
16905,53.0,1.0,60.0,7.0,0.0
16906,58.0,0.0,60.0,12.0,0.0
16907,65.0,0.0,60.0,2.0,0.0
16908,65.0,0.0,60.0,12.0,0.0
16909,53.0,3.0,60.0,12.0,0.0
16910,46.0,1.0,60.0,7.0,0.0
16911,50.0,1.0,60.0,3.0,0.0
16912,38.0,0.0,60.0,3.0,0.0
16913,46.0,1.0,60.0,15.0,0.0
16914,38.0,0.0,60.0,13.0,0.0
16915,38.0,2.0,60.0,8.0,0.0
16916,26.0,108.0,60.0,14.0,0.0
16917,65.0,1.0,60.0,6.0,0.0
16918,77.0,0.0,60.0,6.0,0.0
16919,69.0,1.0,60.0,1.0,0.0
16920,60.0,0.0,60.0,1.0,0.0
16921,65.0,0.0,60.0,4.0,0.0
16922,53.0,1.0,60.0,4.0,0.0
16923,57.0,1.0,60.0,7.0,0.0
16924,53.0,0.0,60.0,7.0,0.0
16925,53.0,3.0,60.0,12.0,0.0
16926,69.0,0.0,60.0,12.0,0.0
16927,60.0,0.0,60.0,12.0,0.0
16928,69.0,0.0,60.0,2.0,0.0
16929,62.0,0.0,60.0,2.0,0.0
16930,48.0,1.0,60.0,7.0,0.0
16931,41.0,1.0,60.0,3.0,0.0
16932,53.0,0.0,60.0,3.0,0.0
16933,41.0,0.0,60.0,13.0,0.0
16934,41.0,1.0,60.0,15.0,0.0
16935,41.0,2.0,60.0,8.0,0.0
16936,29.0,90.0,60.0,14.0,0.0
16937,82.0,1.0,60.0,10.0,0.0
16938,82.0,2.0,60.0,0.0,0.0
16939,70.0,57.0,60.0,11.0,0.0
16940,81.0,1.0,60.0,10.0,0.0
16941,81.0,2.0,60.0,0.0,0.0
16942,69.0,57.0,60.0,11.0,0.0
16943,82.0,1.0,60.0,10.0,0.0
16944,82.0,2.0,60.0,0.0,0.0
16945,70.0,24.0,60.0,11.0,0.0
16946,61.0,41.0,240.0,1.0,0.0
16947,58.0,2.0,210.0,7.0,0.0
16948,52.0,0.0,210.0,7.0,0.0
16949,61.0,0.0,240.0,2.0,0.0
16950,64.0,0.0,240.0,2.0,0.0
16951,61.0,0.0,240.0,12.0,0.0
16952,52.0,0.0,240.0,12.0,0.0
16953,70.0,1.0,240.0,12.0,0.0
16954,55.0,0.0,240.0,5.0,0.0
16955,43.0,0.0,240.0,5.0,0.0
16956,49.0,2.0,210.0,7.0,0.0
16957,43.0,1.0,240.0,3.0,0.0
16958,46.0,33.0,60.0,15.0,0.0
16959,43.0,3.0,240.0,13.0,0.0
16960,31.0,3.0,210.0,8.0,0.0
16961,31.0,4.0,240.0,14.0,0.0
16962,85.0,1.0,60.0,10.0,0.0
16963,85.0,2.0,60.0,0.0,0.0
16964,73.0,57.0,60.0,11.0,0.0
16965,82.0,1.0,60.0,10.0,0.0
16966,82.0,2.0,60.0,0.0,0.0
16967,70.0,57.0,60.0,11.0,0.0
16968,81.0,1.0,60.0,10.0,0.0
16969,81.0,0.0,60.0,0.0,0.0
16970,69.0,2.0,60.0,11.0,0.0
16971,82.0,1.0,60.0,10.0,0.0
16972,82.0,2.0,60.0,0.0,0.0
16973,70.0,24.0,60.0,11.0,0.0
16974,70.0,0.0,15.0,1.0,0.0
16975,61.0,41.0,240.0,1.0,0.0
16976,58.0,0.0,210.0,7.0,0.0
16977,52.0,2.0,210.0,7.0,0.0
16978,61.0,1.0,240.0,2.0,0.0
16979,64.0,0.0,240.0,2.0,0.0
16980,70.0,0.0,240.0,12.0,0.0
16981,52.0,53.0,120.0,12.0,0.0
16982,61.0,0.0,240.0,12.0,0.0
16983,55.0,0.0,240.0,5.0,0.0
16984,43.0,0.0,240.0,5.0,0.0
16985,49.0,2.0,210.0,7.0,0.0
16986,55.0,1.0,240.0,3.0,0.0
16987,46.0,33.0,60.0,15.0,0.0
16988,55.0,3.0,240.0,13.0,0.0
16989,43.0,3.0,210.0,8.0,0.0
16990,43.0,4.0,240.0,14.0,0.0
16991,85.0,1.0,60.0,10.0,0.0
16992,85.0,2.0,60.0,0.0,0.0
16993,73.0,4.0,60.0,11.0,0.0
16994,82.0,1.0,60.0,10.0,0.0
16995,82.0,2.0,60.0,0.0,0.0
16996,70.0,57.0,60.0,11.0,0.0
16997,81.0,1.0,60.0,10.0,0.0
16998,81.0,0.0,60.0,0.0,0.0
16999,69.0,2.0,60.0,11.0,0.0
17000,82.0,1.0,60.0,10.0,0.0
17001,82.0,2.0,60.0,0.0,0.0
17002,70.0,24.0,60.0,11.0,0.0
17003,62.0,0.0,120.0,1.0,0.0
17004,65.0,1.0,120.0,1.0,0.0
17005,53.0,2.0,90.0,7.0,0.0
17006,62.0,0.0,120.0,2.0,0.0
17007,65.0,1.0,120.0,2.0,0.0
17008,62.0,0.0,120.0,12.0,0.0
17009,65.0,0.0,120.0,12.0,0.0
17010,58.0,3.0,120.0,5.0,0.0
17011,50.0,2.0,90.0,7.0,0.0
17012,56.0,1.0,120.0,3.0,0.0
17013,56.0,3.0,120.0,13.0,0.0
17014,46.0,33.0,60.0,15.0,0.0
17015,44.0,0.0,90.0,8.0,0.0
17016,44.0,45.0,120.0,14.0,0.0
17017,86.0,1.0,60.0,10.0,0.0
17018,86.0,0.0,60.0,0.0,0.0
17019,74.0,1.0,60.0,11.0,0.0
17020,82.0,1.0,60.0,10.0,0.0
17021,82.0,2.0,60.0,0.0,0.0
17022,70.0,24.0,60.0,11.0,0.0
17023,63.0,1.0,120.0,1.0,0.0
17024,51.0,0.0,90.0,7.0,0.0
17025,63.0,1.0,120.0,12.0,0.0
17026,63.0,0.0,120.0,2.0,0.0
17027,58.0,3.0,120.0,5.0,0.0
17028,46.0,2.0,90.0,7.0,0.0
17029,55.0,1.0,120.0,3.0,0.0
17030,46.0,33.0,60.0,15.0,0.0
17031,55.0,3.0,120.0,13.0,0.0
17032,43.0,0.0,90.0,8.0,0.0
17033,43.0,45.0,120.0,14.0,0.0
17034,81.0,1.0,60.0,10.0,0.0
17035,81.0,2.0,60.0,0.0,0.0
17036,69.0,1.0,60.0,11.0,0.0
17037,82.0,1.0,60.0,10.0,0.0
17038,82.0,2.0,60.0,0.0,0.0
17039,70.0,24.0,60.0,11.0,0.0
17040,67.0,1.0,120.0,1.0,0.0
17041,61.0,0.0,120.0,1.0,0.0
17042,51.0,0.0,90.0,7.0,0.0
17043,55.0,0.0,90.0,7.0,0.0
17044,61.0,0.0,120.0,2.0,0.0
17045,67.0,0.0,120.0,2.0,0.0
17046,67.0,0.0,120.0,12.0,0.0
17047,61.0,1.0,120.0,12.0,0.0
17048,51.0,0.0,120.0,5.0,0.0
17049,63.0,0.0,120.0,5.0,0.0
17050,49.0,2.0,90.0,7.0,0.0
17051,51.0,1.0,120.0,3.0,0.0
17052,51.0,3.0,120.0,13.0,0.0
17053,46.0,33.0,60.0,15.0,0.0
17054,39.0,3.0,90.0,8.0,0.0
17055,39.0,45.0,120.0,14.0,0.0
17056,87.0,1.0,60.0,10.0,0.0
17057,87.0,2.0,60.0,0.0,0.0
17058,75.0,1.0,60.0,11.0,0.0
17059,84.0,1.0,60.0,10.0,0.0
17060,84.0,2.0,60.0,0.0,0.0
17061,72.0,57.0,60.0,11.0,0.0
17062,60.0,3.0,120.0,1.0,0.0
17063,68.0,0.0,120.0,1.0,0.0
17064,56.0,2.0,90.0,7.0,0.0
17065,51.0,0.0,210.0,7.0,0.0
17066,68.0,0.0,120.0,2.0,0.0
17067,60.0,0.0,120.0,2.0,0.0
17068,60.0,0.0,120.0,12.0,0.0
17069,68.0,1.0,120.0,12.0,0.0
17070,63.0,0.0,120.0,5.0,0.0
17071,51.0,3.0,120.0,5.0,0.0
17072,48.0,2.0,210.0,7.0,0.0
17073,44.0,1.0,120.0,3.0,0.0
17074,44.0,3.0,120.0,13.0,0.0
17075,32.0,0.0,90.0,8.0,0.0
17076,32.0,45.0,120.0,14.0,0.0
17077,83.0,1.0,60.0,10.0,0.0
17078,83.0,0.0,60.0,0.0,0.0
17079,71.0,1.0,60.0,11.0,0.0
17080,84.0,1.0,60.0,10.0,0.0
17081,84.0,2.0,60.0,0.0,0.0
17082,72.0,57.0,60.0,11.0,0.0
17083,63.0,1.0,120.0,1.0,0.0
17084,66.0,0.0,120.0,1.0,0.0
17085,60.0,1.0,120.0,4.0,0.0
17086,54.0,2.0,90.0,7.0,0.0
17087,66.0,0.0,120.0,12.0,0.0
17088,63.0,0.0,120.0,2.0,0.0
17089,66.0,1.0,120.0,2.0,0.0
17090,56.0,1.0,120.0,3.0,0.0
17091,56.0,3.0,120.0,13.0,0.0
17092,44.0,2.0,90.0,8.0,0.0
17093,44.0,45.0,120.0,14.0,0.0
17094,87.0,1.0,60.0,10.0,0.0
17095,87.0,0.0,60.0,0.0,0.0
17096,75.0,1.0,60.0,11.0,0.0
17097,84.0,1.0,60.0,10.0,0.0
17098,84.0,2.0,60.0,0.0,0.0
17099,72.0,57.0,60.0,11.0,0.0
17100,65.0,0.0,120.0,1.0,0.0
17101,63.0,1.0,120.0,1.0,0.0
17102,60.0,1.0,120.0,4.0,0.0
17103,53.0,0.0,90.0,7.0,0.0
17104,51.0,2.0,90.0,7.0,0.0
17105,65.0,1.0,120.0,2.0,0.0
17106,65.0,0.0,120.0,12.0,0.0
17107,63.0,0.0,120.0,2.0,0.0
17108,48.0,2.0,90.0,7.0,0.0
17109,57.0,1.0,120.0,3.0,0.0
17110,57.0,3.0,120.0,13.0,0.0
17111,45.0,2.0,90.0,8.0,0.0
17112,45.0,45.0,120.0,14.0,0.0
17113,83.0,1.0,60.0,10.0,0.0
17114,83.0,0.0,60.0,0.0,0.0
17115,71.0,1.0,60.0,11.0,0.0
17116,84.0,1.0,60.0,10.0,0.0
17117,84.0,2.0,60.0,0.0,0.0
17118,72.0,57.0,60.0,11.0,0.0
17119,60.0,1.0,120.0,1.0,0.0
17120,69.0,0.0,120.0,1.0,0.0
17121,53.0,0.0,120.0,4.0,0.0
17122,65.0,1.0,120.0,4.0,0.0
17123,57.0,0.0,90.0,7.0,0.0
17124,53.0,2.0,90.0,7.0,0.0
17125,63.0,0.0,120.0,12.0,0.0
17126,69.0,0.0,120.0,12.0,0.0
17127,69.0,0.0,120.0,2.0,0.0
17128,60.0,1.0,120.0,2.0,0.0
17129,51.0,2.0,90.0,7.0,0.0
17130,53.0,1.0,120.0,3.0,0.0
17131,53.0,3.0,120.0,13.0,0.0
17132,41.0,2.0,90.0,8.0,0.0
17133,41.0,45.0,120.0,14.0,0.0
17134,87.0,1.0,60.0,10.0,0.0
17135,87.0,0.0,60.0,0.0,0.0
17136,75.0,1.0,60.0,11.0,0.0
17137,86.0,1.0,60.0,10.0,0.0
17138,86.0,2.0,60.0,0.0,0.0
17139,74.0,57.0,60.0,11.0,0.0
17140,62.0,0.0,120.0,1.0,0.0
17141,70.0,3.0,120.0,1.0,0.0
17142,53.0,1.0,120.0,4.0,0.0
17143,65.0,0.0,120.0,4.0,0.0
17144,53.0,0.0,210.0,7.0,0.0
17145,58.0,0.0,90.0,7.0,0.0
17146,70.0,0.0,120.0,2.0,0.0
17147,70.0,0.0,120.0,12.0,0.0
17148,62.0,0.0,120.0,12.0,0.0
17149,62.0,1.0,120.0,2.0,0.0
17150,50.0,2.0,210.0,7.0,0.0
17151,46.0,1.0,120.0,3.0,0.0
17152,46.0,3.0,120.0,13.0,0.0
17153,34.0,2.0,90.0,8.0,0.0
17154,34.0,45.0,120.0,14.0,0.0
17155,85.0,1.0,60.0,10.0,0.0
17156,85.0,2.0,60.0,0.0,0.0
17157,73.0,1.0,60.0,11.0,0.0
17158,86.0,1.0,60.0,10.0,0.0
17159,86.0,2.0,60.0,0.0,0.0
17160,74.0,57.0,60.0,11.0,0.0
17161,68.0,0.0,120.0,1.0,0.0
17162,65.0,1.0,120.0,1.0,0.0
17163,56.0,0.0,90.0,7.0,0.0
17164,68.0,1.0,120.0,12.0,0.0
17165,68.0,0.0,120.0,2.0,0.0
17166,65.0,0.0,120.0,2.0,0.0
17167,62.0,2.0,120.0,5.0,0.0
17168,58.0,1.0,120.0,3.0,0.0
17169,58.0,1.0,120.0,13.0,0.0
17170,46.0,3.0,90.0,8.0,0.0
17171,46.0,45.0,120.0,14.0,0.0
17172,89.0,1.0,60.0,10.0,0.0
17173,89.0,2.0,60.0,0.0,0.0
17174,77.0,1.0,60.0,11.0,0.0
17175,86.0,1.0,60.0,10.0,0.0
17176,86.0,2.0,60.0,0.0,0.0
17177,74.0,57.0,60.0,11.0,0.0
17178,65.0,1.0,120.0,1.0,0.0
17179,67.0,0.0,120.0,1.0,0.0
17180,55.0,2.0,90.0,7.0,0.0
17181,53.0,0.0,90.0,7.0,0.0
17182,65.0,0.0,120.0,2.0,0.0
17183,67.0,0.0,120.0,2.0,0.0
17184,67.0,1.0,120.0,12.0,0.0
17185,62.0,2.0,120.0,5.0,0.0
17186,50.0,2.0,90.0,7.0,0.0
17187,59.0,1.0,120.0,3.0,0.0
17188,59.0,1.0,120.0,13.0,0.0
17189,47.0,3.0,90.0,8.0,0.0
17190,47.0,45.0,120.0,14.0,0.0
17191,85.0,1.0,60.0,10.0,0.0
17192,85.0,0.0,60.0,0.0,0.0
17193,73.0,1.0,60.0,11.0,0.0
17194,86.0,1.0,60.0,10.0,0.0
17195,86.0,2.0,60.0,0.0,0.0
17196,74.0,57.0,60.0,11.0,0.0
17197,62.0,1.0,120.0,1.0,0.0
17198,71.0,0.0,120.0,1.0,0.0
17199,59.0,0.0,90.0,7.0,0.0
17200,55.0,0.0,90.0,7.0,0.0
17201,71.0,0.0,120.0,2.0,0.0
17202,65.0,0.0,120.0,12.0,0.0
17203,71.0,1.0,120.0,12.0,0.0
17204,62.0,0.0,120.0,2.0,0.0
17205,55.0,2.0,120.0,5.0,0.0
17206,67.0,0.0,120.0,5.0,0.0
17207,53.0,2.0,90.0,7.0,0.0
17208,55.0,1.0,120.0,3.0,0.0
17209,55.0,1.0,120.0,13.0,0.0
17210,43.0,3.0,90.0,8.0,0.0
17211,43.0,45.0,120.0,14.0,0.0
17212,89.0,1.0,60.0,10.0,0.0
17213,89.0,2.0,60.0,0.0,0.0
17214,77.0,1.0,60.0,11.0,0.0
17215,88.0,1.0,60.0,10.0,0.0
17216,88.0,2.0,60.0,0.0,0.0
17217,76.0,57.0,60.0,11.0,0.0
17218,72.0,1.0,240.0,1.0,0.0
17219,64.0,0.0,240.0,1.0,0.0
17220,55.0,0.0,210.0,7.0,0.0
17221,60.0,2.0,210.0,7.0,0.0
17222,72.0,0.0,240.0,2.0,0.0
17223,64.0,0.0,240.0,2.0,0.0
17224,64.0,1.0,240.0,12.0,0.0
17225,72.0,0.0,240.0,12.0,0.0
17226,55.0,0.0,120.0,5.0,0.0
17227,67.0,47.0,120.0,5.0,0.0
17228,52.0,2.0,210.0,7.0,0.0
17229,36.0,0.0,240.0,3.0,0.0
17230,48.0,1.0,240.0,3.0,0.0
17231,48.0,3.0,240.0,13.0,0.0
17232,36.0,18.0,210.0,8.0,0.0
17233,36.0,30.0,240.0,14.0,0.0
17234,87.0,1.0,60.0,10.0,0.0
17235,87.0,2.0,60.0,0.0,0.0
17236,75.0,10.0,60.0,11.0,0.0
17237,88.0,1.0,60.0,10.0,0.0
17238,88.0,2.0,60.0,0.0,0.0
17239,76.0,57.0,60.0,11.0,0.0
17240,91.0,1.0,60.0,10.0,0.0
17241,91.0,0.0,60.0,0.0,0.0
17242,79.0,1.0,60.0,11.0,0.0
17243,88.0,1.0,60.0,10.0,0.0
17244,88.0,2.0,60.0,0.0,0.0
17245,76.0,57.0,60.0,11.0,0.0
17246,67.0,1.0,240.0,1.0,0.0
17247,70.0,0.0,240.0,1.0,0.0
17248,55.0,0.0,210.0,7.0,0.0
17249,58.0,2.0,210.0,7.0,0.0
17250,67.0,1.0,240.0,2.0,0.0
17251,70.0,0.0,240.0,2.0,0.0
17252,67.0,0.0,240.0,12.0,0.0
17253,70.0,0.0,240.0,12.0,0.0
17254,52.0,13.0,240.0,5.0,0.0
17255,64.0,0.0,240.0,5.0,0.0
17256,52.0,2.0,210.0,7.0,0.0
17257,60.0,1.0,240.0,3.0,0.0
17258,48.0,0.0,240.0,3.0,0.0
17259,60.0,3.0,240.0,13.0,0.0
17260,48.0,5.0,210.0,8.0,0.0
17261,48.0,30.0,240.0,14.0,0.0
17262,87.0,1.0,60.0,10.0,0.0
17263,87.0,2.0,60.0,0.0,0.0
17264,75.0,57.0,60.0,11.0,0.0
17265,88.0,1.0,60.0,10.0,0.0
17266,88.0,2.0,60.0,0.0,0.0
17267,76.0,57.0,60.0,11.0,0.0
17268,91.0,1.0,60.0,10.0,0.0
17269,91.0,0.0,60.0,0.0,0.0
17270,79.0,1.0,60.0,11.0,0.0
17271,88.0,1.0,60.0,10.0,0.0
17272,88.0,2.0,60.0,0.0,0.0
17273,76.0,57.0,60.0,11.0,0.0
17274,69.0,0.0,240.0,1.0,0.0
17275,67.0,1.0,240.0,1.0,0.0
17276,57.0,0.0,210.0,7.0,0.0
17277,55.0,2.0,210.0,7.0,0.0
17278,67.0,0.0,240.0,12.0,0.0
17279,69.0,0.0,240.0,12.0,0.0
17280,69.0,1.0,240.0,2.0,0.0
17281,67.0,0.0,240.0,2.0,0.0
17282,52.0,13.0,240.0,5.0,0.0
17283,64.0,0.0,240.0,5.0,0.0
17284,52.0,2.0,210.0,7.0,0.0
17285,61.0,1.0,240.0,3.0,0.0
17286,49.0,0.0,240.0,3.0,0.0
17287,61.0,3.0,240.0,13.0,0.0
17288,49.0,5.0,210.0,8.0,0.0
17289,49.0,30.0,240.0,14.0,0.0
17290,87.0,1.0,60.0,10.0,0.0
17291,87.0,2.0,60.0,0.0,0.0
17292,75.0,57.0,60.0,11.0,0.0
17293,88.0,1.0,60.0,10.0,0.0
17294,88.0,2.0,60.0,0.0,0.0
17295,76.0,57.0,60.0,11.0,0.0
17296,91.0,1.0,60.0,10.0,0.0
17297,91.0,0.0,60.0,0.0,0.0
17298,79.0,1.0,60.0,11.0,0.0
17299,88.0,1.0,60.0,10.0,0.0
17300,88.0,2.0,60.0,0.0,0.0
17301,76.0,57.0,60.0,11.0,0.0
17302,64.0,0.0,240.0,1.0,0.0
17303,73.0,1.0,240.0,1.0,0.0
17304,61.0,0.0,210.0,7.0,0.0
17305,55.0,2.0,210.0,7.0,0.0
17306,64.0,0.0,240.0,2.0,0.0
17307,73.0,1.0,240.0,2.0,0.0
17308,64.0,0.0,240.0,12.0,0.0
17309,67.0,0.0,240.0,12.0,0.0
17310,67.0,0.0,240.0,5.0,0.0
17311,64.0,13.0,240.0,5.0,0.0
17312,52.0,2.0,210.0,7.0,0.0
17313,57.0,1.0,240.0,3.0,0.0
17314,45.0,0.0,240.0,3.0,0.0
17315,57.0,3.0,240.0,13.0,0.0
17316,45.0,5.0,210.0,8.0,0.0
17317,45.0,27.0,240.0,14.0,0.0
17318,87.0,1.0,60.0,10.0,0.0
17319,87.0,2.0,60.0,0.0,0.0
17320,75.0,57.0,60.0,11.0,0.0
17321,88.0,1.0,60.0,10.0,0.0
17322,88.0,2.0,60.0,0.0,0.0
17323,76.0,57.0,60.0,11.0,0.0
17324,91.0,1.0,60.0,10.0,0.0
17325,91.0,0.0,60.0,0.0,0.0
17326,79.0,1.0,60.0,11.0,0.0
17327,89.0,3.0,30.0,10.0,0.0
17328,81.0,0.0,960.0,0.0,0.0
17329,89.0,2.0,960.0,0.0,0.0
17330,65.0,1.0,960.0,6.0,0.0
17331,53.0,0.0,960.0,6.0,0.0
17332,77.0,25.0,30.0,11.0,0.0
17333,77.0,1.0,960.0,1.0,0.0
17334,69.0,0.0,960.0,1.0,0.0
17335,53.0,2.0,960.0,4.0,0.0
17336,41.0,0.0,960.0,4.0,0.0
17337,69.0,1.0,960.0,2.0,0.0
17338,65.0,0.0,960.0,2.0,0.0
17339,65.0,50.0,120.0,12.0,0.0
17340,57.0,0.0,120.0,12.0,0.0
17341,65.0,0.0,960.0,5.0,0.0
17342,62.0,13.0,960.0,5.0,0.0
17343,62.0,1.0,60.0,7.0,0.0
17344,50.0,0.0,60.0,3.0,0.0
17345,62.0,1.0,60.0,3.0,0.0
17346,62.0,1.0,60.0,13.0,0.0
17347,50.0,2.0,60.0,8.0,0.0
17348,50.0,27.0,60.0,14.0,0.0
17349,88.0,3.0,30.0,10.0,0.0
17350,76.0,7.0,30.0,11.0,0.0
17351,89.0,3.0,30.0,10.0,0.0
17352,77.0,25.0,30.0,11.0,0.0
17353,65.0,50.0,240.0,12.0,0.0
17354,57.0,0.0,240.0,12.0,0.0
17355,60.0,1.0,60.0,7.0,0.0
17356,60.0,1.0,60.0,3.0,0.0
17357,48.0,0.0,60.0,3.0,0.0
17358,60.0,1.0,60.0,13.0,0.0
17359,48.0,2.0,60.0,8.0,0.0
17360,48.0,27.0,60.0,14.0,0.0
17361,88.0,3.0,30.0,10.0,0.0
17362,76.0,57.0,30.0,11.0,0.0
17363,89.0,3.0,30.0,10.0,0.0
17364,77.0,25.0,30.0,11.0,0.0
17365,58.0,1.0,60.0,7.0,0.0
17366,46.0,1.0,60.0,3.0,0.0
17367,58.0,0.0,60.0,3.0,0.0
17368,58.0,1.0,60.0,13.0,0.0
17369,46.0,2.0,60.0,8.0,0.0
17370,46.0,27.0,60.0,14.0,0.0
17371,88.0,3.0,30.0,10.0,0.0
17372,76.0,7.0,30.0,11.0,0.0
17373,89.0,3.0,30.0,10.0,0.0
17374,77.0,25.0,30.0,11.0,0.0
17375,65.0,50.0,240.0,12.0,0.0
17376,57.0,0.0,240.0,12.0,0.0
17377,57.0,1.0,60.0,7.0,0.0
17378,57.0,0.0,60.0,3.0,0.0
17379,45.0,1.0,60.0,3.0,0.0
17380,57.0,1.0,60.0,13.0,0.0
17381,45.0,2.0,60.0,8.0,0.0
17382,45.0,27.0,60.0,14.0,0.0
17383,88.0,3.0,30.0,10.0,0.0
17384,76.0,57.0,30.0,11.0,0.0
17385,89.0,3.0,30.0,10.0,0.0
17386,77.0,25.0,30.0,11.0,0.0
17387,55.0,1.0,60.0,7.0,0.0
17388,55.0,1.0,60.0,3.0,0.0
17389,43.0,0.0,60.0,3.0,0.0
17390,55.0,1.0,60.0,13.0,0.0
17391,43.0,2.0,60.0,8.0,0.0
17392,43.0,27.0,60.0,14.0,0.0
17393,88.0,3.0,30.0,10.0,0.0
17394,76.0,7.0,30.0,11.0,0.0
17395,89.0,3.0,30.0,10.0,0.0
17396,77.0,25.0,30.0,11.0,0.0
17397,65.0,50.0,240.0,12.0,0.0
17398,57.0,0.0,240.0,12.0,0.0
17399,53.0,1.0,60.0,7.0,0.0
17400,53.0,0.0,60.0,3.0,0.0
17401,41.0,1.0,60.0,3.0,0.0
17402,53.0,1.0,60.0,13.0,0.0
17403,41.0,2.0,60.0,8.0,0.0
17404,41.0,27.0,60.0,14.0,0.0
17405,88.0,3.0,30.0,10.0,0.0
17406,76.0,57.0,30.0,11.0,0.0
17407,89.0,3.0,30.0,10.0,0.0
17408,77.0,25.0,30.0,11.0,0.0
17409,52.0,1.0,60.0,7.0,0.0
17410,40.0,1.0,60.0,3.0,0.0
17411,52.0,0.0,60.0,3.0,0.0
17412,52.0,1.0,60.0,13.0,0.0
17413,40.0,2.0,60.0,8.0,0.0
17414,40.0,27.0,60.0,14.0,0.0
17415,88.0,3.0,30.0,10.0,0.0
17416,76.0,7.0,30.0,11.0,0.0
17417,89.0,3.0,30.0,10.0,0.0
17418,77.0,25.0,30.0,11.0,0.0
17419,65.0,0.0,120.0,12.0,0.0
17420,57.0,0.0,120.0,12.0,0.0
17421,50.0,1.0,60.0,7.0,0.0
17422,50.0,1.0,60.0,3.0,0.0
17423,38.0,0.0,60.0,3.0,0.0
17424,50.0,1.0,60.0,13.0,0.0
17425,38.0,2.0,60.0,8.0,0.0
17426,38.0,27.0,60.0,14.0,0.0
17427,88.0,3.0,30.0,10.0,0.0
17428,76.0,1.0,30.0,11.0,0.0
17429,89.0,3.0,30.0,10.0,0.0
17430,89.0,2.0,960.0,0.0,0.0
17431,82.0,0.0,960.0,0.0,0.0
17432,58.0,1.0,960.0,6.0,0.0
17433,70.0,0.0,960.0,6.0,0.0
17434,77.0,21.0,30.0,11.0,0.0
17435,77.0,1.0,960.0,1.0,0.0
17436,70.0,0.0,960.0,1.0,0.0
17437,58.0,0.0,960.0,4.0,0.0
17438,46.0,3.0,960.0,4.0,0.0
17439,65.0,1.0,60.0,7.0,0.0
17440,65.0,35.0,60.0,2.0,0.0
17441,65.0,0.0,60.0,12.0,0.0
17442,61.0,0.0,60.0,12.0,0.0
17443,77.0,0.0,60.0,2.0,0.0
17444,58.0,3.0,960.0,5.0,0.0
17445,65.0,0.0,960.0,5.0,0.0
17446,49.0,3.0,960.0,7.0,0.0
17447,37.0,1.0,960.0,3.0,0.0
17448,49.0,0.0,960.0,3.0,0.0
17449,49.0,3.0,960.0,13.0,0.0
17450,37.0,29.0,960.0,8.0,0.0
17451,37.0,6.0,960.0,14.0,0.0
17452,88.0,3.0,30.0,10.0,0.0
17453,76.0,57.0,30.0,11.0,0.0
17454,89.0,3.0,30.0,10.0,0.0
17455,77.0,21.0,30.0,11.0,0.0
17456,63.0,1.0,60.0,7.0,0.0
17457,63.0,0.0,60.0,2.0,0.0
17458,75.0,0.0,60.0,2.0,0.0
17459,63.0,35.0,60.0,12.0,0.0
17460,88.0,3.0,30.0,10.0,0.0
17461,76.0,57.0,30.0,11.0,0.0
17462,89.0,3.0,30.0,10.0,0.0
17463,77.0,21.0,30.0,11.0,0.0
17464,61.0,1.0,60.0,7.0,0.0
17465,61.0,35.0,60.0,2.0,0.0
17466,73.0,0.0,60.0,2.0,0.0
17467,61.0,0.0,60.0,12.0,0.0
17468,88.0,3.0,30.0,10.0,0.0
17469,76.0,57.0,30.0,11.0,0.0
17470,89.0,3.0,30.0,10.0,0.0
17471,77.0,21.0,30.0,11.0,0.0
17472,60.0,1.0,60.0,7.0,0.0
17473,60.0,0.0,60.0,2.0,0.0
17474,60.0,35.0,60.0,12.0,0.0
17475,72.0,0.0,60.0,2.0,0.0
17476,88.0,3.0,30.0,10.0,0.0
17477,76.0,57.0,30.0,11.0,0.0
17478,89.0,3.0,30.0,10.0,0.0
17479,77.0,22.0,30.0,11.0,0.0
17480,58.0,0.0,480.0,7.0,0.0
17481,70.0,35.0,60.0,2.0,0.0
17482,58.0,0.0,60.0,2.0,0.0
17483,58.0,0.0,60.0,12.0,0.0
17484,88.0,3.0,30.0,10.0,0.0
17485,76.0,57.0,30.0,11.0,0.0
17486,89.0,3.0,30.0,10.0,0.0
17487,77.0,21.0,30.0,11.0,0.0
17488,56.0,1.0,60.0,7.0,0.0
17489,68.0,0.0,60.0,2.0,0.0
17490,56.0,35.0,60.0,12.0,0.0
17491,56.0,0.0,60.0,2.0,0.0
17492,88.0,3.0,30.0,10.0,0.0
17493,76.0,57.0,30.0,11.0,0.0
17494,89.0,3.0,30.0,10.0,0.0
17495,77.0,21.0,30.0,11.0,0.0
17496,55.0,1.0,60.0,7.0,0.0
17497,67.0,35.0,60.0,2.0,0.0
17498,55.0,0.0,60.0,12.0,0.0
17499,55.0,0.0,60.0,2.0,0.0
17500,88.0,3.0,30.0,10.0,0.0
17501,76.0,57.0,30.0,11.0,0.0
17502,89.0,3.0,30.0,10.0,0.0
17503,77.0,21.0,30.0,11.0,0.0
17504,53.0,1.0,60.0,7.0,0.0
17505,53.0,35.0,60.0,2.0,0.0
17506,53.0,0.0,60.0,12.0,0.0
17507,65.0,0.0,60.0,2.0,0.0
17508,88.0,3.0,30.0,10.0,0.0
17509,76.0,1.0,30.0,11.0,0.0
17510,89.0,3.0,30.0,10.0,0.0
17511,82.0,2.0,960.0,0.0,0.0
17512,88.0,0.0,960.0,0.0,0.0
17513,72.0,0.0,960.0,6.0,0.0
17514,77.0,21.0,30.0,11.0,0.0
17515,70.0,1.0,960.0,6.0,0.0
17516,70.0,0.0,960.0,1.0,0.0
17517,76.0,1.0,960.0,1.0,0.0
17518,60.0,3.0,960.0,4.0,0.0
17519,58.0,0.0,960.0,4.0,0.0
17520,70.0,1.0,60.0,7.0,0.0
17521,52.0,4.0,960.0,7.0,0.0
17522,82.0,0.0,60.0,2.0,0.0
17523,70.0,0.0,60.0,2.0,0.0
17524,52.0,35.0,60.0,12.0,0.0
17525,70.0,0.0,60.0,12.0,0.0
17526,60.0,0.0,60.0,12.0,0.0
17527,48.0,3.0,960.0,5.0,0.0
17528,64.0,0.0,960.0,5.0,0.0
17529,36.0,0.0,960.0,3.0,0.0
17530,48.0,1.0,960.0,3.0,0.0
17531,48.0,3.0,960.0,13.0,0.0
17532,36.0,28.0,960.0,8.0,0.0
17533,36.0,6.0,960.0,14.0,0.0
17534,88.0,3.0,30.0,10.0,0.0
17535,76.0,57.0,30.0,11.0,0.0
17536,89.0,3.0,30.0,10.0,0.0
17537,77.0,21.0,30.0,11.0,0.0
17538,69.0,1.0,60.0,7.0,0.0
17539,81.0,35.0,60.0,2.0,0.0
17540,69.0,0.0,60.0,2.0,0.0
17541,69.0,0.0,60.0,12.0,0.0
17542,88.0,3.0,30.0,10.0,0.0
17543,76.0,57.0,30.0,11.0,0.0
17544,89.0,3.0,30.0,10.0,0.0
17545,77.0,21.0,30.0,11.0,0.0
17546,67.0,1.0,60.0,7.0,0.0
17547,67.0,0.0,60.0,2.0,0.0
17548,79.0,0.0,60.0,2.0,0.0
17549,67.0,35.0,60.0,12.0,0.0
17550,88.0,3.0,30.0,10.0,0.0
17551,76.0,57.0,30.0,11.0,0.0
17552,89.0,3.0,30.0,10.0,0.0
17553,77.0,21.0,30.0,11.0,0.0
17554,65.0,1.0,60.0,7.0,0.0
17555,65.0,0.0,60.0,12.0,0.0
17556,77.0,35.0,60.0,2.0,0.0
17557,65.0,0.0,60.0,2.0,0.0
17558,88.0,3.0,30.0,10.0,0.0
17559,76.0,57.0,30.0,11.0,0.0
17560,89.0,3.0,30.0,10.0,0.0
17561,77.0,21.0,30.0,11.0,0.0
17562,64.0,1.0,60.0,7.0,0.0
17563,76.0,0.0,60.0,2.0,0.0
17564,64.0,0.0,60.0,2.0,0.0
17565,64.0,35.0,60.0,12.0,0.0
17566,88.0,3.0,30.0,10.0,0.0
17567,76.0,57.0,30.0,11.0,0.0
17568,89.0,3.0,30.0,10.0,0.0
17569,77.0,21.0,30.0,11.0,0.0
17570,62.0,1.0,60.0,7.0,0.0
17571,74.0,0.0,60.0,2.0,0.0
17572,62.0,0.0,60.0,2.0,0.0
17573,62.0,35.0,60.0,12.0,0.0
17574,88.0,3.0,30.0,10.0,0.0
17575,76.0,57.0,30.0,11.0,0.0
17576,89.0,3.0,30.0,10.0,0.0
17577,77.0,21.0,30.0,11.0,0.0
17578,60.0,1.0,60.0,7.0,0.0
17579,60.0,0.0,60.0,2.0,0.0
17580,72.0,35.0,60.0,2.0,0.0
17581,60.0,0.0,60.0,12.0,0.0
17582,88.0,3.0,30.0,10.0,0.0
17583,76.0,57.0,30.0,11.0,0.0
17584,89.0,3.0,30.0,10.0,0.0
17585,77.0,21.0,30.0,11.0,0.0
17586,58.0,1.0,60.0,7.0,0.0
17587,58.0,0.0,60.0,12.0,0.0
17588,58.0,35.0,60.0,2.0,0.0
17589,70.0,0.0,60.0,2.0,0.0
17590,88.0,3.0,30.0,10.0,0.0
17591,76.0,1.0,30.0,11.0,0.0
17592,89.0,3.0,60.0,10.0,0.0
17593,87.0,3.0,60.0,0.0,0.0
17594,75.0,0.0,720.0,6.0,0.0
17595,77.0,13.0,60.0,11.0,0.0
17596,72.0,0.0,720.0,6.0,0.0
17597,75.0,3.0,60.0,1.0,0.0
17598,53.0,0.0,720.0,4.0,0.0
17599,41.0,0.0,720.0,4.0,0.0
17600,51.0,0.0,690.0,7.0,0.0
17601,57.0,2.0,690.0,7.0,0.0
17602,57.0,0.0,60.0,12.0,0.0
17603,75.0,4.0,60.0,2.0,0.0
17604,60.0,0.0,720.0,5.0,0.0
17605,63.0,0.0,720.0,5.0,0.0
17606,48.0,3.0,15.0,7.0,0.0
17607,63.0,0.0,60.0,3.0,0.0
17608,41.0,3.0,960.0,13.0,0.0
17609,41.0,20.0,690.0,8.0,0.0
17610,29.0,13.0,960.0,14.0,0.0
17611,41.0,4.0,15.0,15.0,0.0
17612,87.0,3.0,60.0,10.0,0.0
17613,75.0,23.0,60.0,11.0,0.0
17614,41.0,2.0,15.0,15.0,0.0
17615,87.0,3.0,60.0,10.0,0.0
17616,86.0,3.0,60.0,0.0,0.0
17617,75.0,13.0,60.0,11.0,0.0
17618,74.0,3.0,60.0,1.0,0.0
17619,74.0,4.0,60.0,2.0,0.0
17620,57.0,20.0,240.0,12.0,0.0
17621,65.0,0.0,240.0,12.0,0.0
17622,62.0,1.0,60.0,3.0,0.0
17623,41.0,30.0,15.0,15.0,0.0
17624,86.0,3.0,60.0,10.0,0.0
17625,74.0,23.0,60.0,11.0,0.0
17626,41.0,30.0,15.0,15.0,0.0
17627,41.0,3.0,15.0,15.0,0.0
17628,86.0,3.0,60.0,10.0,0.0
17629,84.0,3.0,60.0,0.0,0.0
17630,74.0,13.0,60.0,11.0,0.0
17631,72.0,3.0,60.0,1.0,0.0
17632,72.0,4.0,60.0,2.0,0.0
17633,60.0,32.0,60.0,3.0,0.0
17634,41.0,3.0,15.0,15.0,0.0
17635,84.0,3.0,60.0,10.0,0.0
17636,72.0,4.0,60.0,11.0,0.0
17637,41.0,2.0,15.0,15.0,0.0
17638,84.0,3.0,60.0,10.0,0.0
17639,82.0,3.0,60.0,0.0,0.0
17640,72.0,13.0,60.0,11.0,0.0
17641,70.0,3.0,60.0,1.0,0.0
17642,82.0,4.0,60.0,2.0,0.0
17643,70.0,0.0,60.0,2.0,0.0
17644,65.0,20.0,240.0,12.0,0.0
17645,63.0,0.0,240.0,12.0,0.0
17646,58.0,2.0,60.0,3.0,0.0
17647,41.0,2.0,30.0,15.0,0.0
17648,82.0,3.0,60.0,10.0,0.0
17649,70.0,24.0,60.0,11.0,0.0
17650,41.0,29.0,15.0,15.0,0.0
17651,41.0,3.0,15.0,15.0,0.0
17652,82.0,3.0,60.0,10.0,0.0
17653,81.0,3.0,60.0,0.0,0.0
17654,70.0,13.0,60.0,11.0,0.0
17655,81.0,0.0,60.0,1.0,0.0
17656,69.0,3.0,60.0,1.0,0.0
17657,69.0,0.0,60.0,2.0,0.0
17658,81.0,4.0,60.0,2.0,0.0
17659,57.0,2.0,60.0,3.0,0.0
17660,41.0,2.0,30.0,15.0,0.0
17661,81.0,3.0,60.0,10.0,0.0
17662,69.0,4.0,60.0,11.0,0.0
17663,41.0,30.0,15.0,15.0,0.0
17664,41.0,2.0,15.0,15.0,0.0
17665,81.0,3.0,60.0,10.0,0.0
17666,79.0,3.0,60.0,0.0,0.0
17667,69.0,13.0,60.0,11.0,0.0
17668,79.0,3.0,60.0,1.0,0.0
17669,67.0,0.0,60.0,1.0,0.0
17670,60.0,0.0,240.0,12.0,0.0
17671,63.0,21.0,240.0,12.0,0.0
17672,67.0,4.0,60.0,2.0,0.0
17673,79.0,0.0,60.0,2.0,0.0
17674,41.0,29.0,15.0,15.0,0.0
17675,55.0,2.0,60.0,3.0,0.0
17676,79.0,1.0,60.0,10.0,0.0
17677,67.0,2.0,60.0,11.0,0.0
17678,41.0,29.0,15.0,15.0,0.0
17679,79.0,3.0,60.0,10.0,0.0
17680,77.0,3.0,60.0,0.0,0.0
17681,65.0,0.0,240.0,6.0,0.0
17682,67.0,13.0,60.0,11.0,0.0
17683,72.0,0.0,240.0,6.0,0.0
17684,65.0,3.0,60.0,1.0,0.0
17685,77.0,0.0,60.0,1.0,0.0
17686,53.0,2.0,240.0,4.0,0.0
17687,41.0,0.0,240.0,4.0,0.0
17688,57.0,0.0,210.0,7.0,0.0
17689,51.0,2.0,210.0,7.0,0.0
17690,65.0,4.0,60.0,2.0,0.0
17691,77.0,0.0,60.0,2.0,0.0
17692,63.0,0.0,240.0,5.0,0.0
17693,60.0,4.0,240.0,5.0,0.0
17694,48.0,0.0,210.0,7.0,0.0
17695,41.0,28.0,15.0,15.0,0.0
17696,53.0,0.0,60.0,3.0,0.0
17697,41.0,0.0,210.0,8.0,0.0
17698,41.0,4.0,15.0,15.0,0.0
17699,77.0,3.0,60.0,10.0,0.0
17700,65.0,4.0,60.0,11.0,0.0
17701,41.0,3.0,30.0,15.0,0.0
17702,77.0,3.0,60.0,10.0,0.0
17703,75.0,3.0,60.0,0.0,0.0
17704,65.0,13.0,60.0,11.0,0.0
17705,75.0,3.0,60.0,1.0,0.0
17706,72.0,0.0,60.0,1.0,0.0
17707,75.0,0.0,60.0,2.0,0.0
17708,72.0,4.0,60.0,2.0,0.0
17709,60.0,1.0,120.0,12.0,0.0
17710,57.0,0.0,120.0,12.0,0.0
17711,41.0,2.0,60.0,3.0,0.0
17712,41.0,29.0,15.0,15.0,0.0
17713,75.0,1.0,60.0,10.0,0.0
17714,63.0,2.0,60.0,11.0,0.0
17715,41.0,29.0,15.0,15.0,0.0
17716,41.0,32.0,30.0,15.0,0.0
17717,74.0,1.0,60.0,10.0,0.0
17718,74.0,2.0,60.0,0.0,0.0
17719,58.0,0.0,60.0,6.0,0.0
17720,70.0,4.0,60.0,6.0,0.0
17721,62.0,0.0,60.0,11.0,0.0
17722,70.0,3.0,240.0,1.0,0.0
17723,74.0,0.0,240.0,1.0,0.0
17724,46.0,0.0,300.0,4.0,0.0
17725,58.0,2.0,300.0,4.0,0.0
17726,50.0,4.0,120.0,7.0,0.0
17727,58.0,0.0,120.0,7.0,0.0
17728,65.0,0.0,240.0,2.0,0.0
17729,74.0,0.0,240.0,2.0,0.0
17730,58.0,4.0,60.0,12.0,0.0
17731,46.0,2.0,120.0,7.0,0.0
17732,46.0,1.0,60.0,3.0,0.0
17733,46.0,3.0,60.0,13.0,0.0
17734,34.0,32.0,120.0,8.0,0.0
17735,34.0,12.0,60.0,14.0,0.0
17736,75.0,1.0,60.0,10.0,0.0
17737,75.0,2.0,60.0,0.0,0.0
17738,58.0,0.0,60.0,6.0,0.0
17739,70.0,4.0,60.0,6.0,0.0
17740,63.0,0.0,60.0,11.0,0.0
17741,60.0,4.0,60.0,12.0,0.0
17742,48.0,1.0,60.0,3.0,0.0
17743,46.0,33.0,15.0,15.0,0.0
17744,48.0,3.0,60.0,13.0,0.0
17745,36.0,6.0,60.0,14.0,0.0
17746,77.0,1.0,60.0,10.0,0.0
17747,77.0,2.0,60.0,0.0,0.0
17748,65.0,4.0,60.0,11.0,0.0
17749,70.0,0.0,60.0,6.0,0.0
17750,58.0,0.0,60.0,6.0,0.0
17751,62.0,4.0,60.0,12.0,0.0
17752,50.0,1.0,60.0,3.0,0.0
17753,50.0,3.0,60.0,13.0,0.0
17754,46.0,1.0,15.0,15.0,0.0
17755,38.0,12.0,60.0,14.0,0.0
17756,79.0,1.0,60.0,10.0,0.0
17757,79.0,2.0,60.0,0.0,0.0
17758,67.0,1.0,60.0,11.0,0.0
17759,70.0,0.0,60.0,6.0,0.0
17760,58.0,0.0,60.0,6.0,0.0
17761,63.0,4.0,60.0,12.0,0.0
17762,51.0,1.0,60.0,3.0,0.0
17763,51.0,3.0,60.0,13.0,0.0
17764,39.0,12.0,60.0,14.0,0.0
17765,81.0,1.0,60.0,10.0,0.0
17766,81.0,2.0,60.0,0.0,0.0
17767,69.0,2.0,60.0,11.0,0.0
17768,58.0,4.0,300.0,6.0,0.0
17769,70.0,0.0,300.0,6.0,0.0
17770,74.0,3.0,480.0,1.0,0.0
17771,70.0,0.0,480.0,1.0,0.0
17772,74.0,0.0,480.0,2.0,0.0
17773,65.0,4.0,60.0,12.0,0.0
17774,65.0,0.0,480.0,2.0,0.0
17775,53.0,1.0,60.0,3.0,0.0
17776,46.0,33.0,15.0,15.0,0.0
17777,53.0,3.0,60.0,13.0,0.0
17778,41.0,12.0,60.0,14.0,0.0
17779,82.0,1.0,60.0,10.0,0.0
17780,82.0,2.0,60.0,0.0,0.0
17781,70.0,2.0,60.0,11.0,0.0
17782,58.0,2.0,60.0,4.0,0.0
17783,46.0,0.0,60.0,4.0,0.0
17784,67.0,4.0,60.0,12.0,0.0
17785,55.0,1.0,60.0,3.0,0.0
17786,55.0,3.0,60.0,13.0,0.0
17787,46.0,33.0,15.0,15.0,0.0
17788,43.0,12.0,60.0,14.0,0.0
17789,81.0,1.0,60.0,10.0,0.0
17790,81.0,2.0,60.0,0.0,0.0
17791,69.0,2.0,60.0,11.0,0.0
17792,46.0,2.0,60.0,4.0,0.0
17793,58.0,0.0,60.0,4.0,0.0
17794,65.0,4.0,60.0,12.0,0.0
17795,53.0,1.0,60.0,3.0,0.0
17796,53.0,3.0,60.0,13.0,0.0
17797,46.0,33.0,60.0,15.0,0.0
17798,41.0,12.0,60.0,14.0,0.0
17799,79.0,1.0,60.0,10.0,0.0
17800,79.0,2.0,60.0,0.0,0.0
17801,67.0,2.0,60.0,11.0,0.0
17802,46.0,0.0,60.0,4.0,0.0
17803,58.0,2.0,60.0,4.0,0.0
17804,63.0,4.0,60.0,12.0,0.0
17805,51.0,1.0,60.0,3.0,0.0
17806,51.0,3.0,60.0,13.0,0.0
17807,46.0,33.0,60.0,15.0,0.0
17808,39.0,12.0,60.0,14.0,0.0
17809,77.0,1.0,60.0,10.0,0.0
17810,77.0,2.0,60.0,0.0,0.0
17811,65.0,0.0,60.0,11.0,0.0
17812,58.0,0.0,300.0,4.0,0.0
17813,46.0,2.0,300.0,4.0,0.0
17814,62.0,4.0,60.0,12.0,0.0
17815,50.0,1.0,60.0,3.0,0.0
17816,50.0,3.0,60.0,13.0,0.0
17817,46.0,33.0,60.0,15.0,0.0
17818,38.0,12.0,60.0,14.0,0.0
17819,75.0,1.0,60.0,10.0,0.0
17820,75.0,2.0,60.0,0.0,0.0
17821,58.0,0.0,60.0,6.0,0.0
17822,63.0,0.0,60.0,11.0,0.0
17823,70.0,4.0,60.0,6.0,0.0
17824,60.0,4.0,60.0,12.0,0.0
17825,48.0,1.0,60.0,3.0,0.0
17826,48.0,3.0,60.0,13.0,0.0
17827,46.0,33.0,60.0,15.0,0.0
17828,36.0,12.0,60.0,14.0,0.0
17829,74.0,1.0,60.0,10.0,0.0
17830,74.0,2.0,60.0,0.0,0.0
17831,70.0,0.0,60.0,6.0,0.0
17832,58.0,4.0,60.0,6.0,0.0
17833,62.0,0.0,60.0,11.0,0.0
17834,58.0,4.0,60.0,12.0,0.0
17835,46.0,1.0,60.0,3.0,0.0
17836,46.0,3.0,60.0,13.0,0.0
17837,46.0,33.0,60.0,15.0,0.0
17838,34.0,12.0,60.0,14.0,0.0
17839,75.0,1.0,60.0,10.0,0.0
17840,75.0,2.0,60.0,0.0,0.0
17841,70.0,0.0,60.0,6.0,0.0
17842,58.0,1.0,60.0,6.0,0.0
17843,63.0,0.0,60.0,11.0,0.0
17844,60.0,4.0,60.0,12.0,0.0
17845,48.0,1.0,60.0,3.0,0.0
17846,48.0,3.0,60.0,13.0,0.0
17847,46.0,33.0,60.0,15.0,0.0
17848,36.0,12.0,60.0,14.0,0.0
17849,77.0,1.0,60.0,10.0,0.0
17850,77.0,2.0,60.0,0.0,0.0
17851,65.0,2.0,60.0,11.0,0.0
17852,70.0,0.0,300.0,6.0,0.0
17853,58.0,4.0,300.0,6.0,0.0
17854,70.0,3.0,480.0,1.0,0.0
17855,74.0,0.0,480.0,1.0,0.0
17856,62.0,4.0,60.0,12.0,0.0
17857,65.0,4.0,480.0,2.0,0.0
17858,74.0,0.0,480.0,2.0,0.0
17859,50.0,1.0,60.0,3.0,0.0
17860,46.0,33.0,60.0,15.0,0.0
17861,50.0,3.0,60.0,13.0,0.0
17862,38.0,12.0,60.0,14.0,0.0
17863,79.0,1.0,60.0,10.0,0.0
17864,79.0,2.0,60.0,0.0,0.0
17865,67.0,2.0,60.0,11.0,0.0
17866,58.0,2.0,60.0,4.0,0.0
17867,46.0,0.0,60.0,4.0,0.0
17868,63.0,4.0,60.0,12.0,0.0
17869,51.0,1.0,60.0,3.0,0.0
17870,46.0,33.0,60.0,15.0,0.0
17871,51.0,3.0,60.0,13.0,0.0
17872,39.0,12.0,60.0,14.0,0.0
17873,81.0,1.0,60.0,10.0,0.0
17874,81.0,2.0,60.0,0.0,0.0
17875,69.0,2.0,60.0,11.0,0.0
17876,58.0,2.0,60.0,4.0,0.0
17877,46.0,0.0,60.0,4.0,0.0
17878,65.0,4.0,60.0,12.0,0.0
17879,53.0,1.0,60.0,3.0,0.0
17880,53.0,3.0,60.0,13.0,0.0
17881,46.0,33.0,60.0,15.0,0.0
17882,41.0,12.0,60.0,14.0,0.0
17883,82.0,1.0,60.0,10.0,0.0
17884,82.0,2.0,60.0,0.0,0.0
17885,70.0,2.0,60.0,11.0,0.0
17886,46.0,0.0,60.0,4.0,0.0
17887,58.0,2.0,60.0,4.0,0.0
17888,67.0,4.0,60.0,12.0,0.0
17889,55.0,1.0,60.0,3.0,0.0
17890,55.0,3.0,60.0,13.0,0.0
17891,43.0,12.0,60.0,14.0,0.0
17892,81.0,1.0,60.0,10.0,0.0
17893,81.0,2.0,60.0,0.0,0.0
17894,69.0,0.0,60.0,11.0,0.0
17895,58.0,2.0,300.0,4.0,0.0
17896,46.0,0.0,300.0,4.0,0.0
17897,65.0,4.0,60.0,12.0,0.0
17898,53.0,1.0,60.0,3.0,0.0
17899,46.0,33.0,15.0,15.0,0.0
17900,53.0,3.0,60.0,13.0,0.0
17901,41.0,12.0,60.0,14.0,0.0
17902,79.0,1.0,60.0,10.0,0.0
17903,79.0,2.0,60.0,0.0,0.0
17904,67.0,4.0,60.0,11.0,0.0
17905,58.0,0.0,60.0,6.0,0.0
17906,70.0,0.0,60.0,6.0,0.0
17907,63.0,4.0,60.0,12.0,0.0
17908,51.0,1.0,60.0,3.0,0.0
17909,51.0,3.0,60.0,13.0,0.0
17910,46.0,33.0,15.0,15.0,0.0
17911,39.0,12.0,60.0,14.0,0.0
17912,77.0,1.0,60.0,10.0,0.0
17913,77.0,2.0,60.0,0.0,0.0
17914,65.0,4.0,60.0,11.0,0.0
17915,58.0,0.0,60.0,6.0,0.0
17916,70.0,0.0,60.0,6.0,0.0
17917,62.0,4.0,60.0,12.0,0.0
17918,50.0,1.0,60.0,3.0,0.0
17919,50.0,3.0,60.0,13.0,0.0
17920,38.0,12.0,60.0,14.0,0.0
17921,75.0,1.0,60.0,10.0,0.0
17922,75.0,2.0,60.0,0.0,0.0
17923,70.0,1.0,60.0,6.0,0.0
17924,58.0,0.0,60.0,6.0,0.0
17925,63.0,0.0,60.0,11.0,0.0
17926,60.0,0.0,60.0,12.0,0.0
17927,48.0,1.0,60.0,3.0,0.0
17928,46.0,33.0,15.0,15.0,0.0
17929,48.0,3.0,60.0,13.0,0.0
17930,36.0,12.0,60.0,14.0,0.0
17931,74.0,1.0,60.0,10.0,0.0
17932,74.0,2.0,60.0,0.0,0.0
17933,70.0,0.0,300.0,6.0,0.0
17934,58.0,0.0,300.0,6.0,0.0
17935,62.0,2.0,60.0,11.0,0.0
17936,70.0,1.0,360.0,1.0,0.0
17937,74.0,0.0,360.0,1.0,0.0
17938,74.0,4.0,360.0,2.0,0.0
17939,65.0,0.0,360.0,2.0,0.0
17940,58.0,4.0,60.0,12.0,0.0
17941,46.0,1.0,60.0,3.0,0.0
17942,46.0,3.0,60.0,13.0,0.0
17943,34.0,12.0,60.0,14.0,0.0
17944,75.0,1.0,60.0,10.0,0.0
17945,75.0,2.0,60.0,0.0,0.0
17946,63.0,2.0,60.0,11.0,0.0
17947,58.0,2.0,60.0,4.0,0.0
17948,46.0,0.0,60.0,4.0,0.0
17949,60.0,4.0,60.0,12.0,0.0
17950,48.0,1.0,60.0,3.0,0.0
17951,46.0,33.0,15.0,15.0,0.0
17952,48.0,3.0,60.0,13.0,0.0
17953,36.0,12.0,60.0,14.0,0.0
17954,77.0,1.0,60.0,10.0,0.0
17955,77.0,2.0,60.0,0.0,0.0
17956,65.0,2.0,60.0,11.0,0.0
17957,46.0,0.0,60.0,4.0,0.0
17958,58.0,2.0,60.0,4.0,0.0
17959,62.0,4.0,60.0,12.0,0.0
17960,50.0,1.0,60.0,3.0,0.0
17961,46.0,33.0,60.0,15.0,0.0
17962,50.0,3.0,60.0,13.0,0.0
17963,38.0,12.0,60.0,14.0,0.0
17964,79.0,1.0,60.0,10.0,0.0
17965,79.0,2.0,60.0,0.0,0.0
17966,67.0,2.0,60.0,11.0,0.0
17967,58.0,0.0,60.0,4.0,0.0
17968,46.0,2.0,60.0,4.0,0.0
17969,63.0,4.0,60.0,12.0,0.0
17970,51.0,1.0,60.0,3.0,0.0
17971,51.0,3.0,60.0,13.0,0.0
17972,46.0,33.0,60.0,15.0,0.0
17973,39.0,12.0,60.0,14.0,0.0
17974,81.0,1.0,60.0,10.0,0.0
17975,81.0,2.0,60.0,0.0,0.0
17976,69.0,4.0,60.0,11.0,0.0
17977,58.0,2.0,120.0,4.0,0.0
17978,46.0,0.0,120.0,4.0,0.0
17979,65.0,4.0,60.0,12.0,0.0
17980,53.0,1.0,60.0,3.0,0.0
17981,53.0,3.0,60.0,13.0,0.0
17982,41.0,12.0,60.0,14.0,0.0
17983,82.0,1.0,60.0,10.0,0.0
17984,82.0,2.0,60.0,0.0,0.0
17985,70.0,0.0,60.0,6.0,0.0
17986,58.0,0.0,60.0,6.0,0.0
17987,70.0,1.0,60.0,11.0,0.0
17988,67.0,0.0,60.0,12.0,0.0
17989,55.0,1.0,60.0,3.0,0.0
17990,46.0,33.0,15.0,15.0,0.0
17991,55.0,3.0,60.0,13.0,0.0
17992,43.0,12.0,60.0,14.0,0.0
17993,84.0,1.0,60.0,10.0,0.0
17994,84.0,2.0,60.0,0.0,0.0
17995,70.0,4.0,60.0,6.0,0.0
17996,58.0,0.0,60.0,6.0,0.0
17997,72.0,0.0,60.0,11.0,0.0
17998,69.0,4.0,60.0,12.0,0.0
17999,57.0,1.0,60.0,3.0,0.0
18000,57.0,3.0,60.0,13.0,0.0
18001,46.0,33.0,15.0,15.0,0.0
18002,45.0,12.0,60.0,14.0,0.0
18003,86.0,1.0,60.0,10.0,0.0
18004,86.0,2.0,60.0,0.0,0.0
18005,58.0,4.0,60.0,6.0,0.0
18006,70.0,0.0,60.0,6.0,0.0
18007,74.0,0.0,60.0,11.0,0.0
18008,70.0,4.0,60.0,12.0,0.0
18009,58.0,1.0,60.0,3.0,0.0
18010,46.0,273.0,60.0,15.0,0.0
18011,58.0,3.0,60.0,13.0,0.0
18012,46.0,12.0,60.0,14.0,0.0
18013,76.0,1.0,60.0,10.0,0.0
18014,76.0,2.0,60.0,0.0,0.0
18015,70.0,0.0,60.0,6.0,0.0
18016,72.0,4.0,60.0,6.0,0.0
18017,64.0,0.0,60.0,11.0,0.0
18018,76.0,0.0,240.0,1.0,0.0
18019,67.0,3.0,240.0,1.0,0.0
18020,60.0,0.0,300.0,4.0,0.0
18021,46.0,2.0,300.0,4.0,0.0
18022,70.0,0.0,240.0,2.0,0.0
18023,76.0,1.0,240.0,2.0,0.0
18024,60.0,1.0,60.0,12.0,0.0
18025,48.0,3.0,60.0,5.0,0.0
18026,58.0,0.0,60.0,5.0,0.0
18027,48.0,1.0,60.0,3.0,0.0
18028,48.0,3.0,60.0,13.0,0.0
18029,46.0,33.0,60.0,15.0,0.0
18030,36.0,12.0,60.0,14.0,0.0
18031,77.0,1.0,60.0,10.0,0.0
18032,77.0,2.0,60.0,0.0,0.0
18033,65.0,0.0,60.0,11.0,0.0
18034,70.0,0.0,60.0,6.0,0.0
18035,72.0,4.0,60.0,6.0,0.0
18036,62.0,1.0,60.0,12.0,0.0
18037,48.0,3.0,60.0,5.0,0.0
18038,58.0,0.0,60.0,5.0,0.0
18039,50.0,1.0,60.0,3.0,0.0
18040,50.0,3.0,60.0,13.0,0.0
18041,46.0,33.0,60.0,15.0,0.0
18042,38.0,12.0,60.0,14.0,0.0
18043,79.0,1.0,60.0,10.0,0.0
18044,79.0,2.0,60.0,0.0,0.0
18045,67.0,0.0,60.0,11.0,0.0
18046,70.0,4.0,60.0,6.0,0.0
18047,72.0,0.0,60.0,6.0,0.0
18048,64.0,1.0,60.0,12.0,0.0
18049,48.0,0.0,60.0,5.0,0.0
18050,58.0,3.0,60.0,5.0,0.0
18051,52.0,1.0,60.0,3.0,0.0
18052,52.0,3.0,60.0,13.0,0.0
18053,40.0,12.0,60.0,14.0,0.0
18054,81.0,1.0,60.0,10.0,0.0
18055,81.0,2.0,60.0,0.0,0.0
18056,70.0,1.0,60.0,6.0,0.0
18057,69.0,0.0,60.0,11.0,0.0
18058,72.0,0.0,60.0,6.0,0.0
18059,65.0,0.0,60.0,12.0,0.0
18060,48.0,3.0,60.0,5.0,0.0
18061,58.0,0.0,60.0,5.0,0.0
18062,53.0,1.0,60.0,3.0,0.0
18063,46.0,33.0,15.0,15.0,0.0
18064,53.0,3.0,60.0,13.0,0.0
18065,41.0,12.0,60.0,14.0,0.0
18066,82.0,1.0,60.0,10.0,0.0
18067,82.0,2.0,60.0,0.0,0.0
18068,70.0,2.0,60.0,11.0,0.0
18069,70.0,0.0,300.0,6.0,0.0
18070,72.0,4.0,300.0,6.0,0.0
18071,67.0,3.0,480.0,1.0,0.0
18072,76.0,0.0,480.0,1.0,0.0
18073,67.0,4.0,60.0,12.0,0.0
18074,70.0,1.0,480.0,2.0,0.0
18075,76.0,0.0,480.0,2.0,0.0
18076,48.0,3.0,300.0,5.0,0.0
18077,58.0,0.0,300.0,5.0,0.0
18078,55.0,1.0,60.0,3.0,0.0
18079,55.0,3.0,60.0,13.0,0.0
18080,46.0,33.0,60.0,15.0,0.0
18081,43.0,12.0,60.0,14.0,0.0
18082,84.0,1.0,60.0,10.0,0.0
18083,84.0,2.0,60.0,0.0,0.0
18084,72.0,2.0,60.0,11.0,0.0
18085,60.0,0.0,60.0,4.0,0.0
18086,46.0,2.0,60.0,4.0,0.0
18087,69.0,4.0,60.0,12.0,0.0
18088,57.0,1.0,60.0,3.0,0.0
18089,57.0,3.0,60.0,13.0,0.0
18090,45.0,12.0,60.0,14.0,0.0
18091,82.0,1.0,60.0,10.0,0.0
18092,82.0,2.0,60.0,0.0,0.0
18093,70.0,2.0,60.0,11.0,0.0
18094,60.0,0.0,60.0,4.0,0.0
18095,46.0,2.0,60.0,4.0,0.0
18096,67.0,4.0,60.0,12.0,0.0
18097,55.0,1.0,60.0,3.0,0.0
18098,46.0,33.0,15.0,15.0,0.0
18099,55.0,3.0,60.0,13.0,0.0
18100,43.0,12.0,60.0,14.0,0.0
18101,81.0,1.0,60.0,10.0,0.0
18102,81.0,2.0,60.0,0.0,0.0
18103,69.0,2.0,60.0,11.0,0.0
18104,46.0,0.0,60.0,4.0,0.0
18105,60.0,2.0,60.0,4.0,0.0
18106,65.0,4.0,60.0,12.0,0.0
18107,53.0,1.0,60.0,3.0,0.0
18108,46.0,33.0,15.0,15.0,0.0
18109,53.0,3.0,60.0,13.0,0.0
18110,41.0,12.0,60.0,14.0,0.0
18111,79.0,1.0,60.0,10.0,0.0
18112,79.0,2.0,60.0,0.0,0.0
18113,67.0,0.0,60.0,11.0,0.0
18114,60.0,2.0,300.0,4.0,0.0
18115,46.0,0.0,300.0,4.0,0.0
18116,64.0,1.0,60.0,12.0,0.0
18117,52.0,1.0,60.0,3.0,0.0
18118,52.0,3.0,60.0,13.0,0.0
18119,46.0,33.0,15.0,15.0,0.0
18120,40.0,12.0,60.0,14.0,0.0
18121,77.0,1.0,60.0,10.0,0.0
18122,77.0,2.0,60.0,0.0,0.0
18123,72.0,4.0,60.0,6.0,0.0
18124,70.0,0.0,60.0,6.0,0.0
18125,65.0,0.0,60.0,11.0,0.0
18126,62.0,1.0,60.0,12.0,0.0
18127,58.0,0.0,60.0,5.0,0.0
18128,48.0,3.0,60.0,5.0,0.0
18129,50.0,1.0,60.0,3.0,0.0
18130,50.0,3.0,60.0,13.0,0.0
18131,46.0,33.0,15.0,15.0,0.0
18132,38.0,12.0,60.0,14.0,0.0
18133,76.0,1.0,60.0,10.0,0.0
18134,76.0,2.0,60.0,0.0,0.0
18135,64.0,4.0,60.0,11.0,0.0
18136,72.0,0.0,60.0,6.0,0.0
18137,70.0,0.0,60.0,6.0,0.0
18138,60.0,1.0,60.0,12.0,0.0
18139,48.0,0.0,60.0,5.0,0.0
18140,58.0,3.0,60.0,5.0,0.0
18141,48.0,1.0,60.0,3.0,0.0
18142,46.0,33.0,15.0,15.0,0.0
18143,48.0,3.0,60.0,13.0,0.0
18144,36.0,12.0,60.0,14.0,0.0
18145,77.0,1.0,60.0,10.0,0.0
18146,77.0,2.0,60.0,0.0,0.0
18147,72.0,0.0,60.0,6.0,0.0
18148,70.0,0.0,60.0,6.0,0.0
18149,65.0,1.0,60.0,11.0,0.0
18150,62.0,0.0,60.0,12.0,0.0
18151,48.0,3.0,60.0,5.0,0.0
18152,58.0,0.0,60.0,5.0,0.0
18153,50.0,1.0,60.0,3.0,0.0
18154,50.0,3.0,60.0,13.0,0.0
18155,46.0,33.0,15.0,15.0,0.0
18156,38.0,12.0,60.0,14.0,0.0
18157,79.0,1.0,60.0,10.0,0.0
18158,79.0,2.0,60.0,0.0,0.0
18159,67.0,2.0,60.0,11.0,0.0
18160,70.0,0.0,300.0,6.0,0.0
18161,72.0,0.0,300.0,6.0,0.0
18162,67.0,3.0,480.0,1.0,0.0
18163,76.0,0.0,480.0,1.0,0.0
18164,64.0,4.0,60.0,12.0,0.0
18165,76.0,0.0,480.0,2.0,0.0
18166,70.0,0.0,480.0,2.0,0.0
18167,48.0,3.0,300.0,5.0,0.0
18168,58.0,0.0,300.0,5.0,0.0
18169,52.0,1.0,60.0,3.0,0.0
18170,46.0,33.0,60.0,15.0,0.0
18171,52.0,3.0,60.0,13.0,0.0
18172,40.0,12.0,60.0,14.0,0.0
18173,81.0,1.0,60.0,10.0,0.0
18174,81.0,2.0,60.0,0.0,0.0
18175,69.0,2.0,60.0,11.0,0.0
18176,46.0,2.0,60.0,4.0,0.0
18177,60.0,0.0,60.0,4.0,0.0
18178,65.0,4.0,60.0,12.0,0.0
18179,53.0,1.0,60.0,3.0,0.0
18180,53.0,3.0,60.0,13.0,0.0
18181,41.0,12.0,60.0,14.0,0.0
18182,82.0,1.0,60.0,10.0,0.0
18183,82.0,2.0,60.0,0.0,0.0
18184,70.0,2.0,60.0,11.0,0.0
18185,60.0,0.0,60.0,4.0,0.0
18186,46.0,2.0,60.0,4.0,0.0
18187,67.0,4.0,60.0,12.0,0.0
18188,55.0,1.0,60.0,3.0,0.0
18189,46.0,33.0,15.0,15.0,0.0
18190,55.0,3.0,60.0,13.0,0.0
18191,43.0,12.0,60.0,14.0,0.0
18192,84.0,1.0,60.0,10.0,0.0
18193,84.0,2.0,60.0,0.0,0.0
18194,72.0,2.0,60.0,11.0,0.0
18195,46.0,0.0,60.0,4.0,0.0
18196,60.0,2.0,60.0,4.0,0.0
18197,69.0,4.0,60.0,12.0,0.0
18198,57.0,1.0,60.0,3.0,0.0
18199,57.0,3.0,60.0,13.0,0.0
18200,46.0,33.0,15.0,15.0,0.0
18201,45.0,12.0,60.0,14.0,0.0
18202,82.0,1.0,60.0,10.0,0.0
18203,82.0,2.0,60.0,0.0,0.0
18204,70.0,4.0,60.0,11.0,0.0
18205,60.0,2.0,300.0,4.0,0.0
18206,46.0,0.0,300.0,4.0,0.0
18207,67.0,1.0,60.0,12.0,0.0
18208,55.0,1.0,60.0,3.0,0.0
18209,55.0,3.0,60.0,13.0,0.0
18210,43.0,12.0,60.0,14.0,0.0
18211,81.0,1.0,60.0,10.0,0.0
18212,81.0,2.0,60.0,0.0,0.0
18213,69.0,0.0,60.0,11.0,0.0
18214,70.0,4.0,60.0,6.0,0.0
18215,72.0,0.0,60.0,6.0,0.0
18216,65.0,1.0,60.0,12.0,0.0
18217,48.0,0.0,60.0,5.0,0.0
18218,58.0,3.0,60.0,5.0,0.0
18219,53.0,1.0,60.0,3.0,0.0
18220,46.0,33.0,15.0,15.0,0.0
18221,53.0,3.0,60.0,13.0,0.0
18222,41.0,12.0,60.0,14.0,0.0
18223,79.0,1.0,60.0,10.0,0.0
18224,79.0,2.0,60.0,0.0,0.0
18225,72.0,4.0,60.0,6.0,0.0
18226,70.0,0.0,60.0,6.0,0.0
18227,67.0,0.0,60.0,11.0,0.0
18228,64.0,1.0,60.0,12.0,0.0
18229,58.0,0.0,60.0,5.0,0.0
18230,48.0,3.0,60.0,5.0,0.0
18231,52.0,1.0,60.0,3.0,0.0
18232,46.0,33.0,15.0,15.0,0.0
18233,52.0,3.0,60.0,13.0,0.0
18234,40.0,12.0,60.0,14.0,0.0
18235,77.0,1.0,60.0,10.0,0.0
18236,77.0,2.0,60.0,0.0,0.0
18237,72.0,1.0,60.0,6.0,0.0
18238,65.0,0.0,60.0,11.0,0.0
18239,70.0,0.0,60.0,6.0,0.0
18240,62.0,1.0,60.0,12.0,0.0
18241,58.0,0.0,60.0,5.0,0.0
18242,48.0,3.0,60.0,5.0,0.0
18243,50.0,1.0,60.0,3.0,0.0
18244,50.0,3.0,60.0,13.0,0.0
18245,38.0,12.0,60.0,14.0,0.0
18246,76.0,1.0,60.0,10.0,0.0
18247,76.0,2.0,60.0,0.0,0.0
18248,72.0,0.0,300.0,6.0,0.0
18249,70.0,4.0,300.0,6.0,0.0
18250,64.0,2.0,60.0,11.0,0.0
18251,67.0,1.0,360.0,1.0,0.0
18252,76.0,0.0,360.0,1.0,0.0
18253,60.0,4.0,60.0,12.0,0.0
18254,70.0,0.0,360.0,2.0,0.0
18255,76.0,0.0,360.0,2.0,0.0
18256,58.0,3.0,300.0,5.0,0.0
18257,48.0,0.0,300.0,5.0,0.0
18258,48.0,1.0,60.0,3.0,0.0
18259,46.0,33.0,15.0,15.0,0.0
18260,48.0,3.0,60.0,13.0,0.0
18261,36.0,12.0,60.0,14.0,0.0
18262,77.0,1.0,60.0,10.0,0.0
18263,77.0,2.0,60.0,0.0,0.0
18264,65.0,2.0,60.0,11.0,0.0
18265,46.0,2.0,60.0,4.0,0.0
18266,60.0,0.0,60.0,4.0,0.0
18267,62.0,4.0,60.0,12.0,0.0
18268,50.0,1.0,60.0,3.0,0.0
18269,50.0,3.0,60.0,13.0,0.0
18270,46.0,33.0,15.0,15.0,0.0
18271,38.0,12.0,60.0,14.0,0.0
18272,79.0,1.0,60.0,10.0,0.0
18273,79.0,2.0,60.0,0.0,0.0
18274,67.0,2.0,60.0,11.0,0.0
18275,46.0,0.0,60.0,4.0,0.0
18276,60.0,2.0,60.0,4.0,0.0
18277,64.0,4.0,60.0,12.0,0.0
18278,52.0,1.0,60.0,3.0,0.0
18279,52.0,3.0,60.0,13.0,0.0
18280,40.0,12.0,60.0,14.0,0.0
18281,81.0,1.0,60.0,10.0,0.0
18282,81.0,2.0,60.0,0.0,0.0
18283,69.0,2.0,60.0,11.0,0.0
18284,46.0,0.0,60.0,4.0,0.0
18285,60.0,2.0,60.0,4.0,0.0
18286,65.0,4.0,60.0,12.0,0.0
18287,53.0,1.0,60.0,3.0,0.0
18288,53.0,3.0,60.0,13.0,0.0
18289,46.0,33.0,15.0,15.0,0.0
18290,41.0,12.0,60.0,14.0,0.0
18291,82.0,1.0,60.0,10.0,0.0
18292,82.0,2.0,60.0,0.0,0.0
18293,70.0,0.0,60.0,11.0,0.0
18294,60.0,0.0,120.0,4.0,0.0
18295,46.0,2.0,120.0,4.0,0.0
18296,67.0,1.0,60.0,12.0,0.0
18297,55.0,1.0,60.0,3.0,0.0
18298,55.0,3.0,60.0,13.0,0.0
18299,46.0,33.0,60.0,15.0,0.0
18300,43.0,12.0,60.0,14.0,0.0
18301,84.0,1.0,60.0,10.0,0.0
18302,84.0,2.0,60.0,0.0,0.0
18303,70.0,0.0,60.0,6.0,0.0
18304,72.0,0.0,60.0,11.0,0.0
18305,72.0,1.0,60.0,6.0,0.0
18306,69.0,1.0,60.0,12.0,0.0
18307,48.0,0.0,60.0,5.0,0.0
18308,58.0,3.0,60.0,5.0,0.0
18309,57.0,1.0,60.0,3.0,0.0
18310,46.0,33.0,60.0,15.0,0.0
18311,57.0,3.0,60.0,13.0,0.0
18312,45.0,12.0,60.0,14.0,0.0
18313,86.0,1.0,60.0,10.0,0.0
18314,86.0,2.0,60.0,0.0,0.0
18315,72.0,4.0,60.0,6.0,0.0
18316,74.0,0.0,60.0,11.0,0.0
18317,70.0,0.0,60.0,6.0,0.0
18318,70.0,1.0,60.0,12.0,0.0
18319,58.0,3.0,60.0,5.0,0.0
18320,48.0,0.0,60.0,5.0,0.0
18321,58.0,1.0,60.0,3.0,0.0
18322,58.0,3.0,60.0,13.0,0.0
18323,46.0,12.0,60.0,14.0,0.0
18324,88.0,1.0,60.0,10.0,0.0
18325,88.0,2.0,60.0,0.0,0.0
18326,72.0,0.0,60.0,6.0,0.0
18327,70.0,4.0,60.0,6.0,0.0
18328,76.0,0.0,60.0,11.0,0.0
18329,72.0,1.0,60.0,12.0,0.0
18330,58.0,3.0,60.0,5.0,0.0
18331,48.0,0.0,60.0,5.0,0.0
18332,60.0,1.0,60.0,3.0,0.0
18333,46.0,33.0,15.0,15.0,0.0
18334,60.0,3.0,60.0,13.0,0.0
18335,48.0,12.0,60.0,14.0,0.0
18336,89.0,3.0,30.0,10.0,0.0
18337,89.0,0.0,480.0,0.0,0.0
18338,87.0,2.0,480.0,0.0,0.0
18339,77.0,4.0,30.0,11.0,0.0
18340,65.0,0.0,360.0,6.0,0.0
18341,77.0,2.0,360.0,6.0,0.0
18342,77.0,0.0,480.0,1.0,0.0
18343,75.0,1.0,480.0,1.0,0.0
18344,53.0,2.0,360.0,4.0,0.0
18345,65.0,0.0,360.0,4.0,0.0
18346,63.0,9.0,30.0,12.0,0.0
18347,65.0,0.0,30.0,12.0,0.0
18348,69.0,0.0,480.0,2.0,0.0
18349,77.0,1.0,480.0,2.0,0.0
18350,60.0,3.0,480.0,5.0,0.0
18351,63.0,0.0,480.0,5.0,0.0
18352,41.0,1.0,60.0,3.0,0.0
18353,41.0,3.0,60.0,13.0,0.0
18354,29.0,5.0,60.0,14.0,0.0
18355,89.0,3.0,30.0,10.0,0.0
18356,41.0,15.0,15.0,15.0,0.0
18357,77.0,3.0,30.0,11.0,0.0
18358,65.0,31.0,30.0,12.0,0.0
18359,63.0,0.0,30.0,12.0,0.0
18360,43.0,1.0,60.0,3.0,0.0
18361,43.0,3.0,60.0,13.0,0.0
18362,31.0,11.0,60.0,14.0,0.0
18363,89.0,3.0,30.0,10.0,0.0
18364,77.0,4.0,30.0,11.0,0.0
18365,63.0,0.0,30.0,12.0,0.0
18366,65.0,4.0,30.0,12.0,0.0
18367,41.0,2.0,15.0,15.0,0.0
18368,89.0,3.0,30.0,10.0,0.0
18369,77.0,4.0,30.0,11.0,0.0
18370,65.0,9.0,30.0,12.0,0.0
18371,63.0,0.0,30.0,12.0,0.0
18372,45.0,1.0,60.0,3.0,0.0
18373,41.0,15.0,30.0,15.0,0.0
18374,45.0,3.0,60.0,13.0,0.0
18375,33.0,5.0,60.0,14.0,0.0
18376,89.0,3.0,30.0,10.0,0.0
18377,41.0,30.0,30.0,15.0,0.0
18378,77.0,4.0,30.0,11.0,0.0
18379,63.0,0.0,30.0,12.0,0.0
18380,65.0,0.0,30.0,12.0,0.0
18381,46.0,1.0,60.0,3.0,0.0
18382,46.0,3.0,60.0,13.0,0.0
18383,34.0,11.0,60.0,14.0,0.0
18384,89.0,3.0,30.0,10.0,0.0
18385,77.0,4.0,30.0,11.0,0.0
18386,65.0,0.0,30.0,12.0,0.0
18387,63.0,4.0,30.0,12.0,0.0
18388,41.0,3.0,15.0,15.0,0.0
18389,89.0,3.0,30.0,10.0,0.0
18390,77.0,4.0,30.0,11.0,0.0
18391,63.0,10.0,30.0,12.0,0.0
18392,65.0,0.0,30.0,12.0,0.0
18393,48.0,1.0,60.0,3.0,0.0
18394,48.0,3.0,60.0,13.0,0.0
18395,36.0,5.0,60.0,14.0,0.0
18396,89.0,3.0,30.0,10.0,0.0
18397,41.0,14.0,15.0,15.0,0.0
18398,77.0,3.0,30.0,11.0,0.0
18399,63.0,0.0,30.0,12.0,0.0
18400,65.0,31.0,30.0,12.0,0.0
18401,50.0,1.0,60.0,3.0,0.0
18402,50.0,3.0,60.0,13.0,0.0
18403,38.0,12.0,60.0,14.0,0.0
18404,89.0,3.0,30.0,10.0,0.0
18405,77.0,0.0,30.0,11.0,0.0
18406,63.0,4.0,30.0,12.0,0.0
18407,65.0,0.0,30.0,12.0,0.0
18408,41.0,2.0,15.0,15.0,0.0
18409,77.0,3.0,30.0,10.0,0.0
18410,53.0,0.0,120.0,6.0,0.0
18411,65.0,1.0,120.0,6.0,0.0
18412,65.0,4.0,30.0,11.0,0.0
18413,41.0,2.0,120.0,4.0,0.0
18414,53.0,0.0,120.0,4.0,0.0
18415,63.0,0.0,30.0,12.0,0.0
18416,65.0,11.0,30.0,12.0,0.0
18417,48.0,1.0,60.0,3.0,0.0
18418,48.0,3.0,60.0,13.0,0.0
18419,36.0,5.0,60.0,14.0,0.0
18420,77.0,3.0,30.0,10.0,0.0
18421,65.0,4.0,30.0,11.0,0.0
18422,41.0,13.0,15.0,15.0,0.0
18423,63.0,1.0,30.0,12.0,0.0
18424,65.0,0.0,30.0,12.0,0.0
18425,46.0,1.0,60.0,3.0,0.0
18426,46.0,3.0,60.0,13.0,0.0
18427,41.0,29.0,15.0,15.0,0.0
18428,34.0,12.0,60.0,14.0,0.0
18429,77.0,1.0,30.0,10.0,0.0
18430,65.0,0.0,30.0,11.0,0.0
18431,63.0,0.0,30.0,12.0,0.0
18432,65.0,0.0,30.0,12.0,0.0
18433,41.0,13.0,30.0,15.0,0.0
18434,89.0,3.0,30.0,10.0,0.0
18435,87.0,0.0,480.0,0.0,0.0
18436,89.0,2.0,480.0,0.0,0.0
18437,77.0,0.0,360.0,6.0,0.0
18438,65.0,2.0,360.0,6.0,0.0
18439,77.0,4.0,30.0,11.0,0.0
18440,75.0,1.0,480.0,1.0,0.0
18441,77.0,0.0,480.0,1.0,0.0
18442,53.0,0.0,360.0,4.0,0.0
18443,65.0,2.0,360.0,4.0,0.0
18444,65.0,0.0,30.0,12.0,0.0
18445,69.0,0.0,480.0,2.0,0.0
18446,77.0,0.0,480.0,2.0,0.0
18447,63.0,11.0,30.0,12.0,0.0
18448,63.0,3.0,480.0,5.0,0.0
18449,60.0,0.0,480.0,5.0,0.0
18450,45.0,1.0,60.0,3.0,0.0
18451,45.0,3.0,60.0,13.0,0.0
18452,33.0,5.0,60.0,14.0,0.0
18453,89.0,3.0,30.0,10.0,0.0
18454,41.0,13.0,15.0,15.0,0.0
18455,77.0,4.0,30.0,11.0,0.0
18456,63.0,0.0,30.0,12.0,0.0
18457,65.0,1.0,30.0,12.0,0.0
18458,43.0,1.0,60.0,3.0,0.0
18459,43.0,3.0,60.0,13.0,0.0
18460,41.0,30.0,15.0,15.0,0.0
18461,31.0,12.0,60.0,14.0,0.0
18462,89.0,3.0,30.0,10.0,0.0
18463,77.0,4.0,30.0,11.0,0.0
18464,65.0,4.0,30.0,12.0,0.0
18465,63.0,0.0,30.0,12.0,0.0
18466,41.0,2.0,15.0,15.0,0.0
18467,89.0,3.0,30.0,10.0,0.0
18468,77.0,4.0,30.0,11.0,0.0
18469,65.0,9.0,30.0,12.0,0.0
18470,63.0,0.0,30.0,12.0,0.0
18471,41.0,1.0,60.0,3.0,0.0
18472,41.0,13.0,15.0,15.0,0.0
18473,41.0,3.0,60.0,13.0,0.0
18474,29.0,5.0,60.0,14.0,0.0
18475,89.0,3.0,30.0,10.0,0.0
18476,77.0,4.0,30.0,11.0,0.0
18477,63.0,1.0,30.0,12.0,0.0
18478,65.0,0.0,30.0,12.0,0.0
18479,43.0,1.0,60.0,3.0,0.0
18480,41.0,29.0,15.0,15.0,0.0
18481,43.0,3.0,60.0,13.0,0.0
18482,31.0,13.0,60.0,14.0,0.0
18483,89.0,3.0,30.0,10.0,0.0
18484,77.0,4.0,30.0,11.0,0.0
18485,63.0,0.0,30.0,12.0,0.0
18486,65.0,4.0,30.0,12.0,0.0
18487,89.0,3.0,30.0,10.0,0.0
18488,77.0,4.0,30.0,11.0,0.0
18489,65.0,9.0,30.0,12.0,0.0
18490,63.0,0.0,30.0,12.0,0.0
18491,41.0,12.0,15.0,15.0,0.0
18492,45.0,1.0,60.0,3.0,0.0
18493,45.0,3.0,60.0,13.0,0.0
18494,33.0,5.0,60.0,14.0,0.0
18495,89.0,3.0,30.0,10.0,0.0
18496,41.0,15.0,15.0,15.0,0.0
18497,77.0,3.0,30.0,11.0,0.0
18498,63.0,30.0,30.0,12.0,0.0
18499,65.0,0.0,30.0,12.0,0.0
18500,46.0,1.0,60.0,3.0,0.0
18501,41.0,3.0,30.0,15.0,0.0
18502,46.0,3.0,60.0,13.0,0.0
18503,34.0,13.0,60.0,14.0,0.0
18504,89.0,3.0,30.0,10.0,0.0
18505,77.0,0.0,30.0,11.0,0.0
18506,65.0,4.0,30.0,12.0,0.0
18507,63.0,0.0,30.0,12.0,0.0
18508,77.0,3.0,30.0,10.0,0.0
18509,53.0,0.0,120.0,6.0,0.0
18510,65.0,1.0,120.0,6.0,0.0
18511,65.0,4.0,30.0,11.0,0.0
18512,53.0,2.0,120.0,4.0,0.0
18513,41.0,0.0,120.0,4.0,0.0
18514,63.0,10.0,30.0,12.0,0.0
18515,65.0,0.0,30.0,12.0,0.0
18516,48.0,1.0,60.0,3.0,0.0
18517,48.0,3.0,60.0,13.0,0.0
18518,41.0,12.0,15.0,15.0,0.0
18519,36.0,5.0,60.0,14.0,0.0
18520,77.0,3.0,30.0,10.0,0.0
18521,65.0,4.0,30.0,11.0,0.0
18522,65.0,0.0,30.0,12.0,0.0
18523,63.0,1.0,30.0,12.0,0.0
18524,50.0,1.0,60.0,3.0,0.0
18525,50.0,3.0,60.0,13.0,0.0
18526,41.0,29.0,15.0,15.0,0.0
18527,38.0,13.0,60.0,14.0,0.0
18528,77.0,1.0,30.0,10.0,0.0
18529,65.0,0.0,30.0,11.0,0.0
18530,65.0,1.0,30.0,12.0,0.0
18531,63.0,0.0,30.0,12.0,0.0
18532,89.0,3.0,30.0,10.0,0.0
18533,87.0,0.0,720.0,0.0,0.0
18534,89.0,2.0,720.0,0.0,0.0
18535,77.0,4.0,30.0,11.0,0.0
18536,65.0,0.0,720.0,6.0,0.0
18537,77.0,0.0,720.0,6.0,0.0
18538,75.0,0.0,720.0,1.0,0.0
18539,77.0,1.0,720.0,1.0,0.0
18540,53.0,0.0,720.0,4.0,0.0
18541,65.0,2.0,720.0,4.0,0.0
18542,63.0,0.0,30.0,12.0,0.0
18543,77.0,4.0,720.0,2.0,0.0
18544,69.0,0.0,720.0,2.0,0.0
18545,65.0,9.0,30.0,12.0,0.0
18546,63.0,18.0,840.0,5.0,0.0
18547,60.0,0.0,840.0,5.0,0.0
18548,48.0,1.0,60.0,3.0,0.0
18549,41.0,12.0,15.0,15.0,0.0
18550,48.0,3.0,60.0,13.0,0.0
18551,36.0,5.0,60.0,14.0,0.0
18552,89.0,3.0,30.0,10.0,0.0
18553,41.0,15.0,15.0,15.0,0.0
18554,77.0,3.0,30.0,11.0,0.0
18555,63.0,0.0,30.0,12.0,0.0
18556,65.0,31.0,30.0,12.0,0.0
18557,50.0,1.0,60.0,3.0,0.0
18558,50.0,3.0,60.0,13.0,0.0
18559,38.0,11.0,60.0,14.0,0.0
18560,89.0,3.0,30.0,10.0,0.0
18561,77.0,4.0,30.0,11.0,0.0
18562,65.0,0.0,30.0,12.0,0.0
18563,63.0,4.0,30.0,12.0,0.0
18564,41.0,2.0,15.0,15.0,0.0
18565,89.0,3.0,30.0,10.0,0.0
18566,77.0,4.0,30.0,11.0,0.0
18567,63.0,9.0,30.0,12.0,0.0
18568,65.0,0.0,30.0,12.0,0.0
18569,51.0,1.0,60.0,3.0,0.0
18570,41.0,15.0,30.0,15.0,0.0
18571,51.0,3.0,60.0,13.0,0.0
18572,39.0,5.0,60.0,14.0,0.0
18573,89.0,3.0,30.0,10.0,0.0
18574,41.0,30.0,30.0,15.0,0.0
18575,77.0,4.0,30.0,11.0,0.0
18576,65.0,0.0,30.0,12.0,0.0
18577,63.0,0.0,30.0,12.0,0.0
18578,52.0,1.0,60.0,3.0,0.0
18579,52.0,3.0,60.0,13.0,0.0
18580,40.0,11.0,60.0,14.0,0.0
18581,89.0,3.0,30.0,10.0,0.0
18582,77.0,4.0,30.0,11.0,0.0
18583,65.0,4.0,30.0,12.0,0.0
18584,63.0,0.0,30.0,12.0,0.0
18585,41.0,3.0,15.0,15.0,0.0
18586,89.0,3.0,30.0,10.0,0.0
18587,77.0,4.0,30.0,11.0,0.0
18588,65.0,10.0,30.0,12.0,0.0
18589,63.0,0.0,30.0,12.0,0.0
18590,53.0,1.0,60.0,3.0,0.0
18591,53.0,3.0,60.0,13.0,0.0
18592,41.0,5.0,60.0,14.0,0.0
18593,89.0,3.0,30.0,10.0,0.0
18594,41.0,14.0,15.0,15.0,0.0
18595,77.0,3.0,30.0,11.0,0.0
18596,63.0,31.0,30.0,12.0,0.0
18597,65.0,0.0,30.0,12.0,0.0
18598,55.0,1.0,60.0,3.0,0.0
18599,55.0,3.0,60.0,13.0,0.0
18600,43.0,12.0,60.0,14.0,0.0
18601,89.0,3.0,30.0,10.0,0.0
18602,77.0,4.0,30.0,11.0,0.0
18603,63.0,0.0,30.0,12.0,0.0
18604,65.0,4.0,30.0,12.0,0.0
18605,41.0,2.0,15.0,15.0,0.0
18606,89.0,3.0,30.0,10.0,0.0
18607,77.0,4.0,30.0,11.0,0.0
18608,63.0,0.0,30.0,12.0,0.0
18609,65.0,11.0,30.0,12.0,0.0
18610,57.0,1.0,60.0,3.0,0.0
18611,57.0,3.0,60.0,13.0,0.0
18612,41.0,13.0,30.0,15.0,0.0
18613,45.0,5.0,60.0,14.0,0.0
18614,89.0,3.0,30.0,10.0,0.0
18615,77.0,4.0,30.0,11.0,0.0
18616,63.0,0.0,30.0,12.0,0.0
18617,65.0,1.0,30.0,12.0,0.0
18618,58.0,1.0,60.0,3.0,0.0
18619,41.0,29.0,15.0,15.0,0.0
18620,58.0,3.0,60.0,13.0,0.0
18621,46.0,12.0,60.0,14.0,0.0
18622,89.0,3.0,30.0,10.0,0.0
18623,77.0,4.0,30.0,11.0,0.0
18624,65.0,0.0,30.0,12.0,0.0
18625,63.0,4.0,30.0,12.0,0.0
18626,41.0,13.0,30.0,15.0,0.0
18627,89.0,3.0,30.0,10.0,0.0
18628,77.0,15.0,30.0,11.0,0.0
18629,63.0,0.0,60.0,12.0,0.0
18630,65.0,4.0,60.0,12.0,0.0
18631,60.0,0.0,60.0,3.0,0.0
18632,48.0,1.0,60.0,3.0,0.0
18633,60.0,3.0,60.0,13.0,0.0
18634,48.0,5.0,60.0,14.0,0.0
18635,89.0,3.0,30.0,10.0,0.0
18636,77.0,5.0,30.0,11.0,0.0
18637,41.0,9.0,15.0,15.0,0.0
18638,62.0,1.0,60.0,3.0,0.0
18639,50.0,0.0,60.0,3.0,0.0
18640,62.0,3.0,60.0,13.0,0.0
18641,41.0,30.0,15.0,15.0,0.0
18642,50.0,12.0,60.0,14.0,0.0
18643,89.0,3.0,30.0,10.0,0.0
18644,77.0,8.0,30.0,11.0,0.0
18645,41.0,2.0,15.0,15.0,0.0
18646,89.0,3.0,30.0,10.0,0.0
18647,77.0,9.0,30.0,11.0,0.0
18648,63.0,4.0,30.0,12.0,0.0
18649,63.0,1.0,60.0,3.0,0.0
18650,51.0,0.0,60.0,3.0,0.0
18651,41.0,13.0,15.0,15.0,0.0
18652,63.0,3.0,60.0,13.0,0.0
18653,51.0,5.0,60.0,14.0,0.0
18654,89.0,3.0,30.0,10.0,0.0
18655,77.0,5.0,30.0,11.0,0.0
18656,64.0,5.0,30.0,12.0,0.0
18657,52.0,0.0,60.0,3.0,0.0
18658,64.0,1.0,60.0,3.0,0.0
18659,64.0,3.0,60.0,13.0,0.0
18660,41.0,24.0,15.0,15.0,0.0
18661,52.0,13.0,60.0,14.0,0.0
18662,89.0,1.0,30.0,10.0,0.0
18663,77.0,1.0,30.0,11.0,0.0
18664,81.0,12.0,60.0,10.0,0.0
18665,77.0,2.0,30.0,0.0,0.0
18666,53.0,0.0,120.0,6.0,0.0
18667,77.0,1.0,30.0,11.0,0.0
18668,65.0,2.0,120.0,6.0,0.0
18669,65.0,0.0,30.0,1.0,0.0
18670,77.0,3.0,30.0,1.0,0.0
18671,41.0,3.0,120.0,4.0,0.0
18672,53.0,0.0,120.0,4.0,0.0
18673,65.0,23.0,30.0,12.0,0.0
18674,65.0,0.0,30.0,2.0,0.0
18675,53.0,0.0,120.0,3.0,0.0
18676,65.0,1.0,120.0,3.0,0.0
18677,41.0,18.0,15.0,15.0,0.0
18678,65.0,3.0,120.0,13.0,0.0
18679,53.0,16.0,120.0,14.0,0.0
18680,79.0,2.0,30.0,0.0,0.0
18681,79.0,1.0,30.0,11.0,0.0
18682,79.0,0.0,30.0,1.0,0.0
18683,67.0,3.0,30.0,1.0,0.0
18684,67.0,11.0,30.0,2.0,0.0
18685,67.0,0.0,30.0,12.0,0.0
18686,80.0,2.0,30.0,0.0,0.0
18687,80.0,1.0,30.0,11.0,0.0
18688,68.0,0.0,30.0,1.0,0.0
18689,80.0,3.0,30.0,1.0,0.0
18690,68.0,0.0,30.0,12.0,0.0
18691,68.0,54.0,30.0,2.0,0.0
18692,81.0,2.0,30.0,0.0,0.0
18693,81.0,1.0,30.0,11.0,0.0
18694,69.0,0.0,30.0,1.0,0.0
18695,81.0,3.0,30.0,1.0,0.0
18696,69.0,0.0,30.0,2.0,0.0
18697,69.0,48.0,30.0,12.0,0.0
18698,82.0,3.0,30.0,10.0,0.0
18699,77.0,2.0,480.0,0.0,0.0
18700,82.0,0.0,480.0,0.0,0.0
18701,74.0,2.0,60.0,6.0,0.0
18702,70.0,0.0,60.0,6.0,0.0
18703,82.0,4.0,30.0,11.0,0.0
18704,77.0,1.0,480.0,1.0,0.0
18705,70.0,0.0,480.0,1.0,0.0
18706,58.0,3.0,60.0,4.0,0.0
18707,62.0,0.0,60.0,4.0,0.0
18708,70.0,0.0,480.0,2.0,0.0
18709,65.0,0.0,480.0,2.0,0.0
18710,70.0,21.0,30.0,12.0,0.0
18711,46.0,1.0,330.0,3.0,0.0
18712,34.0,0.0,330.0,3.0,0.0
18713,46.0,3.0,330.0,13.0,0.0
18714,46.0,10.0,30.0,15.0,0.0
18715,34.0,8.0,330.0,14.0,0.0
18716,82.0,0.0,30.0,10.0,0.0
18717,82.0,4.0,30.0,11.0,0.0
18718,70.0,21.0,30.0,12.0,0.0
18719,82.0,3.0,30.0,10.0,0.0
18720,82.0,4.0,30.0,11.0,0.0
18721,70.0,21.0,30.0,12.0,0.0
18722,46.0,12.0,15.0,15.0,0.0
18723,82.0,3.0,30.0,10.0,0.0
18724,82.0,4.0,30.0,11.0,0.0
18725,70.0,0.0,240.0,6.0,0.0
18726,74.0,2.0,240.0,6.0,0.0
18727,58.0,7.0,240.0,4.0,0.0
18728,62.0,0.0,240.0,4.0,0.0
18729,70.0,19.0,30.0,12.0,0.0
18730,46.0,12.0,15.0,15.0,0.0
18731,82.0,3.0,30.0,10.0,0.0
18732,82.0,4.0,30.0,11.0,0.0
18733,70.0,20.0,30.0,12.0,0.0
18734,46.0,13.0,30.0,15.0,0.0
18735,82.0,3.0,30.0,10.0,0.0
18736,82.0,4.0,30.0,11.0,0.0
18737,70.0,21.0,30.0,12.0,0.0
18738,46.0,12.0,30.0,15.0,0.0
18739,82.0,3.0,30.0,10.0,0.0
18740,82.0,4.0,30.0,11.0,0.0
18741,70.0,22.0,30.0,12.0,0.0
18742,82.0,3.0,30.0,10.0,0.0
18743,82.0,4.0,30.0,11.0,0.0
18744,70.0,19.0,30.0,12.0,0.0
18745,46.0,11.0,15.0,15.0,0.0
18746,82.0,3.0,30.0,10.0,0.0
18747,82.0,3.0,30.0,11.0,0.0
18748,70.0,0.0,30.0,12.0,0.0
18749,46.0,13.0,30.0,15.0,0.0
18750,70.0,3.0,30.0,10.0,0.0
18751,70.0,4.0,30.0,11.0,0.0
18752,75.0,0.0,120.0,6.0,0.0
18753,72.0,0.0,120.0,6.0,0.0
18754,60.0,1.0,120.0,4.0,0.0
18755,63.0,0.0,120.0,4.0,0.0
18756,58.0,21.0,30.0,12.0,0.0
18757,46.0,0.0,90.0,3.0,0.0
18758,58.0,1.0,90.0,3.0,0.0
18759,58.0,3.0,90.0,13.0,0.0
18760,46.0,16.0,90.0,14.0,0.0
18761,70.0,3.0,30.0,10.0,0.0
18762,70.0,4.0,30.0,11.0,0.0
18763,58.0,19.0,30.0,12.0,0.0
18764,46.0,12.0,15.0,15.0,0.0
18765,70.0,1.0,30.0,10.0,0.0
18766,70.0,1.0,30.0,11.0,0.0
18767,58.0,0.0,30.0,12.0,0.0
18768,46.0,14.0,30.0,15.0,0.0
18769,82.0,3.0,30.0,10.0,0.0
18770,82.0,2.0,480.0,0.0,0.0
18771,77.0,0.0,480.0,0.0,0.0
18772,74.0,2.0,120.0,6.0,0.0
18773,70.0,0.0,120.0,6.0,0.0
18774,82.0,4.0,30.0,11.0,0.0
18775,77.0,2.0,480.0,1.0,0.0
18776,70.0,0.0,480.0,1.0,0.0
18777,58.0,9.0,120.0,4.0,0.0
18778,62.0,0.0,120.0,4.0,0.0
18779,65.0,3.0,480.0,2.0,0.0
18780,70.0,21.0,30.0,12.0,0.0
18781,70.0,0.0,480.0,2.0,0.0
18782,46.0,1.0,330.0,3.0,0.0
18783,34.0,0.0,330.0,3.0,0.0
18784,46.0,0.0,330.0,13.0,0.0
18785,34.0,18.0,330.0,14.0,0.0
18786,82.0,3.0,30.0,10.0,0.0
18787,82.0,4.0,30.0,11.0,0.0
18788,70.0,20.0,30.0,12.0,0.0
18789,46.0,12.0,15.0,15.0,0.0
18790,82.0,3.0,30.0,10.0,0.0
18791,82.0,4.0,30.0,11.0,0.0
18792,70.0,11.0,30.0,12.0,0.0
18793,82.0,3.0,30.0,10.0,0.0
18794,72.0,0.0,120.0,6.0,0.0
18795,65.0,2.0,120.0,6.0,0.0
18796,82.0,4.0,30.0,11.0,0.0
18797,53.0,0.0,120.0,4.0,0.0
18798,60.0,2.0,120.0,4.0,0.0
18799,70.0,19.0,30.0,12.0,0.0
18800,46.0,11.0,15.0,15.0,0.0
18801,82.0,3.0,30.0,10.0,0.0
18802,82.0,4.0,30.0,11.0,0.0
18803,70.0,22.0,30.0,12.0,0.0
18804,82.0,3.0,30.0,10.0,0.0
18805,82.0,0.0,30.0,11.0,0.0
18806,70.0,19.0,30.0,12.0,0.0
18807,46.0,11.0,15.0,15.0,0.0
18808,82.0,3.0,30.0,10.0,0.0
18809,82.0,4.0,30.0,11.0,0.0
18810,70.0,2.0,60.0,6.0,0.0
18811,62.0,0.0,60.0,6.0,0.0
18812,58.0,3.0,60.0,4.0,0.0
18813,50.0,0.0,60.0,4.0,0.0
18814,70.0,22.0,30.0,12.0,0.0
18815,82.0,0.0,30.0,10.0,0.0
18816,82.0,4.0,30.0,11.0,0.0
18817,70.0,19.0,30.0,12.0,0.0
18818,46.0,9.0,15.0,15.0,0.0
18819,82.0,3.0,30.0,10.0,0.0
18820,82.0,3.0,30.0,11.0,0.0
18821,70.0,3.0,30.0,12.0,0.0
18822,70.0,3.0,30.0,10.0,0.0
18823,70.0,4.0,30.0,11.0,0.0
18824,65.0,2.0,60.0,6.0,0.0
18825,72.0,0.0,60.0,6.0,0.0
18826,60.0,0.0,60.0,4.0,0.0
18827,53.0,0.0,60.0,4.0,0.0
18828,58.0,20.0,30.0,12.0,0.0
18829,58.0,1.0,90.0,3.0,0.0
18830,46.0,0.0,90.0,3.0,0.0
18831,46.0,12.0,15.0,15.0,0.0
18832,58.0,0.0,90.0,13.0,0.0
18833,46.0,18.0,90.0,14.0,0.0
18834,70.0,3.0,30.0,10.0,0.0
18835,70.0,4.0,30.0,11.0,0.0
18836,58.0,21.0,30.0,12.0,0.0
18837,70.0,1.0,30.0,10.0,0.0
18838,70.0,1.0,30.0,11.0,0.0
18839,58.0,0.0,30.0,12.0,0.0
18840,46.0,12.0,15.0,15.0,0.0
18841,82.0,3.0,30.0,10.0,0.0
18842,77.0,2.0,60.0,0.0,0.0
18843,86.0,0.0,60.0,0.0,0.0
18844,82.0,4.0,30.0,11.0,0.0
18845,70.0,1.0,60.0,6.0,0.0
18846,74.0,0.0,60.0,6.0,0.0
18847,74.0,1.0,60.0,1.0,0.0
18848,65.0,0.0,60.0,1.0,0.0
18849,58.0,1.0,60.0,4.0,0.0
18850,62.0,0.0,60.0,4.0,0.0
18851,53.0,1.0,60.0,7.0,0.0
18852,62.0,0.0,60.0,7.0,0.0
18853,70.0,19.0,30.0,12.0,0.0
18854,65.0,0.0,60.0,2.0,0.0
18855,74.0,1.0,60.0,2.0,0.0
18856,62.0,0.0,60.0,5.0,0.0
18857,46.0,2.0,60.0,7.0,0.0
18858,34.0,1.0,330.0,3.0,0.0
18859,46.0,0.0,330.0,3.0,0.0
18860,46.0,12.0,15.0,15.0,0.0
18861,46.0,0.0,330.0,13.0,0.0
18862,34.0,21.0,60.0,8.0,0.0
18863,34.0,0.0,330.0,14.0,0.0
18864,82.0,0.0,30.0,10.0,0.0
18865,82.0,2.0,30.0,11.0,0.0
18866,70.0,1.0,30.0,12.0,0.0
18867,82.0,3.0,30.0,10.0,0.0
18868,82.0,4.0,30.0,11.0,0.0
18869,70.0,21.0,30.0,12.0,0.0
18870,46.0,11.0,15.0,15.0,0.0
18871,82.0,3.0,30.0,10.0,0.0
18872,86.0,3.0,240.0,0.0,0.0
18873,77.0,0.0,240.0,0.0,0.0
18874,70.0,0.0,240.0,6.0,0.0
18875,82.0,4.0,30.0,11.0,0.0
18876,58.0,0.0,240.0,6.0,0.0
18877,65.0,2.0,240.0,1.0,0.0
18878,74.0,0.0,240.0,1.0,0.0
18879,46.0,0.0,240.0,4.0,0.0
18880,58.0,1.0,240.0,4.0,0.0
18881,62.0,1.0,240.0,7.0,0.0
18882,53.0,0.0,240.0,7.0,0.0
18883,65.0,0.0,240.0,2.0,0.0
18884,74.0,1.0,240.0,2.0,0.0
18885,70.0,20.0,30.0,12.0,0.0
18886,62.0,4.0,240.0,5.0,0.0
18887,46.0,3.0,240.0,7.0,0.0
18888,46.0,12.0,15.0,15.0,0.0
18889,34.0,3.0,240.0,8.0,0.0
18890,82.0,3.0,30.0,10.0,0.0
18891,82.0,4.0,30.0,11.0,0.0
18892,70.0,22.0,30.0,12.0,0.0
18893,82.0,3.0,30.0,10.0,0.0
18894,82.0,4.0,30.0,11.0,0.0
18895,70.0,21.0,30.0,12.0,0.0
18896,46.0,11.0,15.0,15.0,0.0
18897,82.0,3.0,30.0,10.0,0.0
18898,82.0,4.0,30.0,11.0,0.0
18899,70.0,20.0,30.0,12.0,0.0
18900,46.0,12.0,15.0,15.0,0.0
18901,82.0,3.0,30.0,10.0,0.0
18902,82.0,4.0,30.0,11.0,0.0
18903,70.0,22.0,30.0,12.0,0.0
18904,82.0,3.0,30.0,10.0,0.0
18905,82.0,2.0,30.0,11.0,0.0
18906,70.0,3.0,30.0,12.0,0.0
18907,46.0,11.0,15.0,15.0,0.0
18908,70.0,3.0,30.0,10.0,0.0
18909,79.0,2.0,120.0,0.0,0.0
18910,87.0,0.0,120.0,0.0,0.0
18911,70.0,0.0,120.0,6.0,0.0
18912,70.0,4.0,30.0,11.0,0.0
18913,58.0,0.0,120.0,6.0,0.0
18914,75.0,1.0,120.0,1.0,0.0
18915,67.0,0.0,120.0,1.0,0.0
18916,58.0,1.0,120.0,4.0,0.0
18917,46.0,0.0,120.0,4.0,0.0
18918,63.0,0.0,120.0,7.0,0.0
18919,55.0,1.0,120.0,7.0,0.0
18920,67.0,1.0,120.0,2.0,0.0
18921,58.0,22.0,30.0,12.0,0.0
18922,75.0,0.0,120.0,2.0,0.0
18923,63.0,2.0,120.0,5.0,0.0
18924,46.0,0.0,120.0,7.0,0.0
18925,46.0,0.0,90.0,3.0,0.0
18926,58.0,0.0,90.0,3.0,0.0
18927,58.0,0.0,90.0,13.0,0.0
18928,34.0,13.0,120.0,8.0,0.0
18929,46.0,3.0,90.0,14.0,0.0
18930,70.0,3.0,30.0,10.0,0.0
18931,70.0,4.0,30.0,11.0,0.0
18932,58.0,21.0,30.0,12.0,0.0
18933,46.0,11.0,15.0,15.0,0.0
18934,70.0,1.0,30.0,10.0,0.0
18935,70.0,1.0,30.0,11.0,0.0
18936,58.0,0.0,30.0,12.0,0.0
18937,46.0,12.0,15.0,15.0,0.0
18938,82.0,3.0,30.0,10.0,0.0
18939,77.0,3.0,120.0,0.0,0.0
18940,86.0,0.0,120.0,0.0,0.0
18941,58.0,2.0,480.0,6.0,0.0
18942,70.0,0.0,480.0,6.0,0.0
18943,82.0,4.0,30.0,11.0,0.0
18944,65.0,2.0,120.0,1.0,0.0
18945,74.0,0.0,120.0,1.0,0.0
18946,46.0,1.0,480.0,4.0,0.0
18947,58.0,0.0,480.0,4.0,0.0
18948,62.0,1.0,120.0,7.0,0.0
18949,53.0,0.0,120.0,7.0,0.0
18950,70.0,22.0,30.0,12.0,0.0
18951,65.0,1.0,120.0,2.0,0.0
18952,74.0,0.0,120.0,2.0,0.0
18953,62.0,3.0,120.0,5.0,0.0
18954,46.0,3.0,480.0,7.0,0.0
18955,34.0,1.0,330.0,3.0,0.0
18956,46.0,0.0,330.0,3.0,0.0
18957,46.0,0.0,330.0,13.0,0.0
18958,34.0,13.0,480.0,8.0,0.0
18959,34.0,16.0,330.0,14.0,0.0
18960,82.0,3.0,30.0,10.0,0.0
18961,82.0,4.0,30.0,11.0,0.0
18962,70.0,21.0,30.0,12.0,0.0
18963,46.0,11.0,15.0,15.0,0.0
18964,82.0,3.0,30.0,10.0,0.0
18965,82.0,4.0,30.0,11.0,0.0
18966,70.0,9.0,30.0,12.0,0.0
18967,46.0,12.0,15.0,15.0,0.0
18968,82.0,3.0,30.0,10.0,0.0
18969,84.0,2.0,120.0,0.0,0.0
18970,75.0,0.0,120.0,0.0,0.0
18971,82.0,4.0,30.0,11.0,0.0
18972,72.0,2.0,120.0,1.0,0.0
18973,63.0,0.0,120.0,1.0,0.0
18974,60.0,1.0,120.0,7.0,0.0
18975,51.0,0.0,120.0,7.0,0.0
18976,70.0,21.0,30.0,12.0,0.0
18977,63.0,0.0,120.0,2.0,0.0
18978,72.0,1.0,120.0,2.0,0.0
18979,60.0,21.0,120.0,5.0,0.0
18980,46.0,12.0,30.0,15.0,0.0
18981,82.0,3.0,30.0,10.0,0.0
18982,82.0,4.0,30.0,11.0,0.0
18983,70.0,21.0,30.0,12.0,0.0
18984,46.0,12.0,30.0,15.0,0.0
18985,82.0,1.0,30.0,10.0,0.0
18986,82.0,1.0,30.0,11.0,0.0
18987,70.0,0.0,30.0,12.0,0.0
18988,82.0,3.0,30.0,10.0,0.0
18989,74.0,0.0,60.0,0.0,0.0
18990,82.0,3.0,60.0,0.0,0.0
18991,82.0,4.0,30.0,11.0,0.0
18992,62.0,1.0,60.0,1.0,0.0
18993,70.0,0.0,60.0,1.0,0.0
18994,50.0,1.0,60.0,7.0,0.0
18995,58.0,0.0,60.0,7.0,0.0
18996,70.0,1.0,60.0,2.0,0.0
18997,62.0,0.0,60.0,2.0,0.0
18998,70.0,21.0,30.0,12.0,0.0
18999,58.0,0.0,60.0,5.0,0.0
19000,46.0,11.0,15.0,15.0,0.0
19001,82.0,1.0,30.0,10.0,0.0
19002,82.0,4.0,30.0,11.0,0.0
19003,70.0,22.0,30.0,12.0,0.0
19004,82.0,3.0,30.0,10.0,0.0
19005,82.0,3.0,30.0,11.0,0.0
19006,70.0,3.0,30.0,12.0,0.0
19007,46.0,11.0,15.0,15.0,0.0
19008,70.0,3.0,30.0,10.0,0.0
19009,84.0,0.0,60.0,0.0,0.0
19010,75.0,3.0,60.0,0.0,0.0
19011,70.0,4.0,30.0,11.0,0.0
19012,63.0,0.0,60.0,1.0,0.0
19013,72.0,1.0,60.0,1.0,0.0
19014,60.0,1.0,60.0,7.0,0.0
19015,51.0,0.0,60.0,7.0,0.0
19016,58.0,20.0,30.0,12.0,0.0
19017,72.0,1.0,60.0,2.0,0.0
19018,63.0,0.0,60.0,2.0,0.0
19019,60.0,0.0,60.0,5.0,0.0
19020,46.0,1.0,90.0,3.0,0.0
19021,58.0,0.0,90.0,3.0,0.0
19022,58.0,3.0,90.0,13.0,0.0
19023,46.0,0.0,90.0,14.0,0.0
19024,70.0,1.0,30.0,10.0,0.0
19025,70.0,4.0,30.0,11.0,0.0
19026,58.0,20.0,30.0,12.0,0.0
19027,46.0,9.0,15.0,15.0,0.0
19028,70.0,3.0,30.0,10.0,0.0
19029,70.0,0.0,30.0,11.0,0.0
19030,58.0,0.0,30.0,12.0,0.0
19031,46.0,13.0,15.0,15.0,0.0
19032,89.0,3.0,30.0,10.0,0.0
19033,86.0,2.0,60.0,0.0,0.0
19034,82.0,0.0,60.0,0.0,0.0
19035,74.0,1.0,60.0,6.0,0.0
19036,70.0,0.0,60.0,6.0,0.0
19037,77.0,4.0,30.0,11.0,0.0
19038,74.0,0.0,60.0,1.0,0.0
19039,70.0,1.0,60.0,1.0,0.0
19040,62.0,1.0,60.0,4.0,0.0
19041,58.0,0.0,60.0,4.0,0.0
19042,53.0,1.0,60.0,7.0,0.0
19043,62.0,0.0,60.0,7.0,0.0
19044,70.0,1.0,60.0,2.0,0.0
19045,65.0,9.0,30.0,12.0,0.0
19046,74.0,0.0,60.0,2.0,0.0
19047,62.0,2.0,60.0,5.0,0.0
19048,46.0,1.0,60.0,7.0,0.0
19049,46.0,14.0,15.0,15.0,0.0
19050,46.0,0.0,60.0,3.0,0.0
19051,34.0,0.0,60.0,3.0,0.0
19052,46.0,0.0,60.0,13.0,0.0
19053,34.0,2.0,60.0,8.0,0.0
19054,34.0,28.0,60.0,14.0,0.0
19055,89.0,0.0,30.0,10.0,0.0
19056,46.0,20.0,15.0,15.0,0.0
19057,77.0,0.0,30.0,11.0,0.0
19058,65.0,1.0,30.0,12.0,0.0
19059,84.0,0.0,60.0,0.0,0.0
19060,77.0,2.0,60.0,0.0,0.0
19061,65.0,0.0,60.0,6.0,0.0
19062,72.0,1.0,60.0,6.0,0.0
19063,65.0,0.0,60.0,1.0,0.0
19064,72.0,1.0,60.0,1.0,0.0
19065,53.0,2.0,60.0,4.0,0.0
19066,60.0,0.0,60.0,4.0,0.0
19067,72.0,19.0,60.0,2.0,0.0
19068,65.0,0.0,60.0,2.0,0.0
19069,89.0,1.0,30.0,10.0,0.0
19070,77.0,0.0,30.0,11.0,0.0
19071,65.0,0.0,30.0,12.0,0.0
19072,46.0,2.0,15.0,15.0,0.0
19073,77.0,3.0,30.0,10.0,0.0
19074,82.0,0.0,30.0,0.0,0.0
19075,74.0,1.0,30.0,0.0,0.0
19076,65.0,3.0,30.0,11.0,0.0
19077,70.0,1.0,30.0,6.0,0.0
19078,62.0,0.0,30.0,6.0,0.0
19079,62.0,1.0,30.0,1.0,0.0
19080,70.0,0.0,30.0,1.0,0.0
19081,58.0,2.0,30.0,4.0,0.0
19082,50.0,0.0,30.0,4.0,0.0
19083,70.0,4.0,30.0,2.0,0.0
19084,62.0,0.0,30.0,2.0,0.0
19085,53.0,1.0,30.0,12.0,0.0
19086,46.0,0.0,60.0,3.0,0.0
19087,46.0,14.0,15.0,15.0,0.0
19088,58.0,1.0,60.0,3.0,0.0
19089,58.0,3.0,60.0,13.0,0.0
19090,46.0,16.0,60.0,14.0,0.0
19091,77.0,3.0,30.0,10.0,0.0
19092,46.0,0.0,30.0,15.0,0.0
19093,65.0,3.0,30.0,11.0,0.0
19094,53.0,0.0,30.0,12.0,0.0
19095,84.0,2.0,30.0,0.0,0.0
19096,77.0,0.0,30.0,0.0,0.0
19097,72.0,1.0,30.0,6.0,0.0
19098,65.0,0.0,30.0,6.0,0.0
19099,72.0,1.0,30.0,1.0,0.0
19100,65.0,0.0,30.0,1.0,0.0
19101,53.0,0.0,30.0,4.0,0.0
19102,60.0,2.0,30.0,4.0,0.0
19103,72.0,0.0,30.0,2.0,0.0
19104,65.0,5.0,30.0,2.0,0.0
19105,77.0,3.0,30.0,10.0,0.0
19106,65.0,4.0,30.0,11.0,0.0
19107,53.0,19.0,30.0,12.0,0.0
19108,46.0,3.0,15.0,15.0,0.0
19109,89.0,3.0,30.0,10.0,0.0
19110,86.0,2.0,60.0,0.0,0.0
19111,82.0,0.0,60.0,0.0,0.0
19112,77.0,4.0,30.0,11.0,0.0
19113,74.0,1.0,60.0,6.0,0.0
19114,70.0,0.0,60.0,6.0,0.0
19115,70.0,0.0,60.0,1.0,0.0
19116,74.0,1.0,60.0,1.0,0.0
19117,62.0,0.0,60.0,4.0,0.0
19118,58.0,0.0,60.0,4.0,0.0
19119,74.0,1.0,60.0,2.0,0.0
19120,65.0,10.0,30.0,12.0,0.0
19121,70.0,0.0,60.0,2.0,0.0
19122,62.0,0.0,60.0,5.0,0.0
19123,46.0,1.0,60.0,3.0,0.0
19124,34.0,0.0,60.0,3.0,0.0
19125,46.0,0.0,60.0,13.0,0.0
19126,34.0,28.0,60.0,14.0,0.0
19127,89.0,2.0,30.0,10.0,0.0
19128,46.0,19.0,15.0,15.0,0.0
19129,77.0,3.0,30.0,11.0,0.0
19130,65.0,3.0,30.0,12.0,0.0
19131,77.0,2.0,60.0,0.0,0.0
19132,84.0,0.0,60.0,0.0,0.0
19133,72.0,0.0,60.0,6.0,0.0
19134,65.0,0.0,60.0,6.0,0.0
19135,72.0,0.0,60.0,1.0,0.0
19136,65.0,1.0,60.0,1.0,0.0
19137,60.0,2.0,60.0,4.0,0.0
19138,53.0,0.0,60.0,4.0,0.0
19139,65.0,20.0,60.0,2.0,0.0
19140,72.0,0.0,60.0,2.0,0.0
19141,89.0,1.0,30.0,10.0,0.0
19142,77.0,1.0,30.0,11.0,0.0
19143,65.0,0.0,30.0,12.0,0.0
19144,46.0,2.0,15.0,15.0,0.0
19145,77.0,3.0,30.0,10.0,0.0
19146,82.0,1.0,30.0,0.0,0.0
19147,74.0,0.0,30.0,0.0,0.0
19148,62.0,0.0,30.0,6.0,0.0
19149,70.0,1.0,30.0,6.0,0.0
19150,65.0,3.0,30.0,11.0,0.0
19151,70.0,1.0,30.0,1.0,0.0
19152,62.0,0.0,30.0,1.0,0.0
19153,50.0,0.0,30.0,4.0,0.0
19154,58.0,2.0,30.0,4.0,0.0
19155,70.0,6.0,30.0,2.0,0.0
19156,62.0,0.0,30.0,2.0,0.0
19157,53.0,1.0,30.0,12.0,0.0
19158,58.0,0.0,60.0,3.0,0.0
19159,46.0,1.0,60.0,3.0,0.0
19160,58.0,0.0,60.0,13.0,0.0
19161,46.0,22.0,30.0,15.0,0.0
19162,46.0,16.0,60.0,14.0,0.0
19163,77.0,3.0,30.0,10.0,0.0
19164,65.0,3.0,30.0,11.0,0.0
19165,53.0,1.0,30.0,12.0,0.0
19166,84.0,2.0,30.0,0.0,0.0
19167,77.0,0.0,30.0,0.0,0.0
19168,65.0,1.0,30.0,6.0,0.0
19169,72.0,0.0,30.0,6.0,0.0
19170,65.0,0.0,30.0,1.0,0.0
19171,72.0,1.0,30.0,1.0,0.0
19172,60.0,0.0,30.0,4.0,0.0
19173,53.0,2.0,30.0,4.0,0.0
19174,72.0,5.0,30.0,2.0,0.0
19175,65.0,0.0,30.0,2.0,0.0
19176,46.0,2.0,15.0,15.0,0.0
19177,77.0,3.0,30.0,10.0,0.0
19178,65.0,4.0,30.0,11.0,0.0
19179,53.0,20.0,30.0,12.0,0.0
19180,46.0,13.0,30.0,15.0,0.0
19181,89.0,3.0,30.0,10.0,0.0
19182,86.0,0.0,60.0,0.0,0.0
19183,82.0,2.0,60.0,0.0,0.0
19184,70.0,0.0,60.0,6.0,0.0
19185,77.0,4.0,30.0,11.0,0.0
19186,74.0,1.0,60.0,6.0,0.0
19187,70.0,0.0,60.0,1.0,0.0
19188,74.0,1.0,60.0,1.0,0.0
19189,58.0,0.0,60.0,4.0,0.0
19190,62.0,0.0,60.0,4.0,0.0
19191,70.0,0.0,60.0,2.0,0.0
19192,74.0,1.0,60.0,2.0,0.0
19193,65.0,11.0,30.0,12.0,0.0
19194,62.0,3.0,60.0,5.0,0.0
19195,46.0,1.0,60.0,3.0,0.0
19196,34.0,0.0,60.0,3.0,0.0
19197,46.0,0.0,60.0,13.0,0.0
19198,46.0,18.0,30.0,15.0,0.0
19199,34.0,28.0,60.0,14.0,0.0
19200,89.0,2.0,30.0,10.0,0.0
19201,77.0,0.0,30.0,11.0,0.0
19202,65.0,1.0,30.0,12.0,0.0
19203,84.0,0.0,60.0,0.0,0.0
19204,77.0,2.0,60.0,0.0,0.0
19205,65.0,1.0,60.0,6.0,0.0
19206,72.0,0.0,60.0,6.0,0.0
19207,65.0,0.0,60.0,1.0,0.0
19208,72.0,1.0,60.0,1.0,0.0
19209,60.0,0.0,60.0,4.0,0.0
19210,53.0,2.0,60.0,4.0,0.0
19211,65.0,0.0,60.0,2.0,0.0
19212,72.0,0.0,60.0,2.0,0.0
19213,46.0,2.0,15.0,15.0,0.0
19214,89.0,1.0,30.0,10.0,0.0
19215,77.0,0.0,30.0,11.0,0.0
19216,65.0,20.0,30.0,12.0,0.0
19217,46.0,2.0,15.0,15.0,0.0
19218,77.0,3.0,30.0,10.0,0.0
19219,82.0,1.0,30.0,0.0,0.0
19220,74.0,0.0,30.0,0.0,0.0
19221,62.0,0.0,30.0,6.0,0.0
19222,70.0,1.0,30.0,6.0,0.0
19223,65.0,3.0,30.0,11.0,0.0
19224,62.0,1.0,30.0,1.0,0.0
19225,70.0,0.0,30.0,1.0,0.0
19226,50.0,0.0,30.0,4.0,0.0
19227,58.0,2.0,30.0,4.0,0.0
19228,62.0,4.0,30.0,2.0,0.0
19229,70.0,0.0,30.0,2.0,0.0
19230,53.0,1.0,30.0,12.0,0.0
19231,58.0,1.0,60.0,3.0,0.0
19232,46.0,13.0,15.0,15.0,0.0
19233,46.0,0.0,60.0,3.0,0.0
19234,58.0,1.0,60.0,13.0,0.0
19235,46.0,16.0,60.0,14.0,0.0
19236,77.0,3.0,30.0,10.0,0.0
19237,65.0,3.0,30.0,11.0,0.0
19238,53.0,0.0,30.0,12.0,0.0
19239,77.0,2.0,30.0,0.0,0.0
19240,84.0,0.0,30.0,0.0,0.0
19241,65.0,1.0,30.0,6.0,0.0
19242,72.0,0.0,30.0,6.0,0.0
19243,72.0,1.0,30.0,1.0,0.0
19244,65.0,0.0,30.0,1.0,0.0
19245,53.0,2.0,30.0,4.0,0.0
19246,60.0,0.0,30.0,4.0,0.0
19247,72.0,5.0,30.0,2.0,0.0
19248,65.0,0.0,30.0,2.0,0.0
19249,46.0,2.0,15.0,15.0,0.0
19250,77.0,3.0,30.0,10.0,0.0
19251,65.0,4.0,30.0,11.0,0.0
19252,53.0,21.0,30.0,12.0,0.0
19253,89.0,3.0,30.0,10.0,0.0
19254,82.0,2.0,60.0,0.0,0.0
19255,86.0,0.0,60.0,0.0,0.0
19256,77.0,4.0,30.0,11.0,0.0
19257,70.0,0.0,60.0,6.0,0.0
19258,74.0,1.0,60.0,6.0,0.0
19259,74.0,0.0,60.0,1.0,0.0
19260,70.0,1.0,60.0,1.0,0.0
19261,62.0,0.0,60.0,4.0,0.0
19262,58.0,0.0,60.0,4.0,0.0
19263,74.0,0.0,60.0,2.0,0.0
19264,70.0,1.0,60.0,2.0,0.0
19265,65.0,9.0,30.0,12.0,0.0
19266,62.0,0.0,60.0,5.0,0.0
19267,34.0,0.0,60.0,3.0,0.0
19268,46.0,0.0,60.0,3.0,0.0
19269,46.0,12.0,15.0,15.0,0.0
19270,46.0,3.0,60.0,13.0,0.0
19271,34.0,27.0,60.0,14.0,0.0
19272,89.0,2.0,30.0,10.0,0.0
19273,46.0,20.0,15.0,15.0,0.0
19274,77.0,3.0,30.0,11.0,0.0
19275,65.0,0.0,30.0,12.0,0.0
19276,77.0,2.0,60.0,0.0,0.0
19277,84.0,0.0,60.0,0.0,0.0
19278,72.0,0.0,60.0,6.0,0.0
19279,65.0,0.0,60.0,6.0,0.0
19280,72.0,0.0,60.0,1.0,0.0
19281,65.0,1.0,60.0,1.0,0.0
19282,53.0,2.0,60.0,4.0,0.0
19283,60.0,0.0,60.0,4.0,0.0
19284,65.0,21.0,60.0,2.0,0.0
19285,72.0,0.0,60.0,2.0,0.0
19286,46.0,3.0,30.0,15.0,0.0
19287,89.0,1.0,30.0,10.0,0.0
19288,77.0,1.0,30.0,11.0,0.0
19289,65.0,0.0,30.0,12.0,0.0
19290,77.0,3.0,30.0,10.0,0.0
19291,82.0,0.0,30.0,0.0,0.0
19292,74.0,1.0,30.0,0.0,0.0
19293,70.0,1.0,30.0,6.0,0.0
19294,62.0,0.0,30.0,6.0,0.0
19295,65.0,3.0,30.0,11.0,0.0
19296,70.0,1.0,30.0,1.0,0.0
19297,62.0,0.0,30.0,1.0,0.0
19298,58.0,2.0,30.0,4.0,0.0
19299,50.0,0.0,30.0,4.0,0.0
19300,70.0,5.0,30.0,2.0,0.0
19301,62.0,0.0,30.0,2.0,0.0
19302,53.0,1.0,30.0,12.0,0.0
19303,58.0,0.0,60.0,3.0,0.0
19304,46.0,1.0,60.0,3.0,0.0
19305,46.0,12.0,15.0,15.0,0.0
19306,58.0,1.0,60.0,13.0,0.0
19307,46.0,16.0,60.0,14.0,0.0
19308,77.0,3.0,30.0,10.0,0.0
19309,65.0,3.0,30.0,11.0,0.0
19310,53.0,0.0,30.0,12.0,0.0
19311,77.0,2.0,30.0,0.0,0.0
19312,84.0,0.0,30.0,0.0,0.0
19313,72.0,1.0,30.0,6.0,0.0
19314,65.0,0.0,30.0,6.0,0.0
19315,72.0,1.0,30.0,1.0,0.0
19316,65.0,0.0,30.0,1.0,0.0
19317,53.0,0.0,30.0,4.0,0.0
19318,60.0,2.0,30.0,4.0,0.0
19319,72.0,0.0,30.0,2.0,0.0
19320,65.0,5.0,30.0,2.0,0.0
19321,46.0,2.0,15.0,15.0,0.0
19322,77.0,3.0,30.0,10.0,0.0
19323,65.0,4.0,30.0,11.0,0.0
19324,53.0,21.0,30.0,12.0,0.0
19325,94.0,3.0,30.0,10.0,0.0
19326,86.0,2.0,60.0,0.0,0.0
19327,89.0,0.0,60.0,0.0,0.0
19328,77.0,1.0,60.0,6.0,0.0
19329,74.0,0.0,60.0,6.0,0.0
19330,82.0,4.0,30.0,11.0,0.0
19331,74.0,1.0,60.0,1.0,0.0
19332,77.0,0.0,60.0,1.0,0.0
19333,62.0,2.0,60.0,4.0,0.0
19334,65.0,0.0,60.0,4.0,0.0
19335,70.0,9.0,30.0,12.0,0.0
19336,74.0,1.0,60.0,2.0,0.0
19337,77.0,0.0,60.0,2.0,0.0
19338,65.0,0.0,60.0,5.0,0.0
19339,62.0,3.0,60.0,5.0,0.0
19340,46.0,0.0,60.0,3.0,0.0
19341,46.0,12.0,15.0,15.0,0.0
19342,34.0,1.0,60.0,3.0,0.0
19343,46.0,0.0,60.0,13.0,0.0
19344,34.0,28.0,60.0,14.0,0.0
19345,94.0,0.0,30.0,10.0,0.0
19346,46.0,20.0,15.0,15.0,0.0
19347,82.0,0.0,30.0,11.0,0.0
19348,70.0,3.0,30.0,12.0,0.0
19349,84.0,2.0,60.0,0.0,0.0
19350,87.0,0.0,60.0,0.0,0.0
19351,75.0,0.0,60.0,6.0,0.0
19352,72.0,0.0,60.0,6.0,0.0
19353,75.0,0.0,60.0,1.0,0.0
19354,72.0,1.0,60.0,1.0,0.0
19355,60.0,2.0,60.0,4.0,0.0
19356,63.0,0.0,60.0,4.0,0.0
19357,72.0,19.0,60.0,2.0,0.0
19358,75.0,0.0,60.0,2.0,0.0
19359,94.0,1.0,30.0,10.0,0.0
19360,82.0,1.0,30.0,11.0,0.0
19361,70.0,0.0,30.0,12.0,0.0
19362,46.0,2.0,15.0,15.0,0.0
19363,82.0,3.0,30.0,10.0,0.0
19364,86.0,1.0,30.0,0.0,0.0
19365,82.0,0.0,30.0,0.0,0.0
19366,70.0,3.0,30.0,11.0,0.0
19367,70.0,0.0,30.0,6.0,0.0
19368,74.0,1.0,30.0,6.0,0.0
19369,70.0,1.0,30.0,1.0,0.0
19370,74.0,0.0,30.0,1.0,0.0
19371,62.0,2.0,30.0,4.0,0.0
19372,58.0,0.0,30.0,4.0,0.0
19373,70.0,4.0,30.0,2.0,0.0
19374,74.0,0.0,30.0,2.0,0.0
19375,58.0,1.0,30.0,12.0,0.0
19376,46.0,1.0,60.0,3.0,0.0
19377,58.0,0.0,60.0,3.0,0.0
19378,46.0,24.0,30.0,15.0,0.0
19379,58.0,0.0,60.0,13.0,0.0
19380,46.0,16.0,60.0,14.0,0.0
19381,82.0,3.0,30.0,10.0,0.0
19382,46.0,3.0,30.0,15.0,0.0
19383,70.0,3.0,30.0,11.0,0.0
19384,58.0,0.0,30.0,12.0,0.0
19385,84.0,2.0,30.0,0.0,0.0
19386,87.0,0.0,30.0,0.0,0.0
19387,75.0,1.0,30.0,6.0,0.0
19388,72.0,0.0,30.0,6.0,0.0
19389,72.0,0.0,30.0,1.0,0.0
19390,75.0,1.0,30.0,1.0,0.0
19391,60.0,0.0,30.0,4.0,0.0
19392,63.0,2.0,30.0,4.0,0.0
19393,75.0,5.0,30.0,2.0,0.0
19394,72.0,0.0,30.0,2.0,0.0
19395,82.0,3.0,30.0,10.0,0.0
19396,70.0,4.0,30.0,11.0,0.0
19397,58.0,19.0,30.0,12.0,0.0
19398,46.0,3.0,15.0,15.0,0.0
19399,94.0,3.0,30.0,10.0,0.0
19400,86.0,0.0,60.0,0.0,0.0
19401,89.0,2.0,60.0,0.0,0.0
19402,74.0,0.0,60.0,6.0,0.0
19403,82.0,4.0,30.0,11.0,0.0
19404,77.0,1.0,60.0,6.0,0.0
19405,74.0,0.0,60.0,1.0,0.0
19406,77.0,1.0,60.0,1.0,0.0
19407,62.0,0.0,60.0,4.0,0.0
19408,65.0,0.0,60.0,4.0,0.0
19409,77.0,0.0,60.0,2.0,0.0
19410,70.0,10.0,30.0,12.0,0.0
19411,74.0,1.0,60.0,2.0,0.0
19412,62.0,0.0,60.0,5.0,0.0
19413,65.0,0.0,60.0,5.0,0.0
19414,46.0,1.0,60.0,3.0,0.0
19415,34.0,0.0,60.0,3.0,0.0
19416,46.0,0.0,60.0,13.0,0.0
19417,34.0,28.0,60.0,14.0,0.0
19418,94.0,2.0,30.0,10.0,0.0
19419,46.0,19.0,15.0,15.0,0.0
19420,82.0,3.0,30.0,11.0,0.0
19421,70.0,3.0,30.0,12.0,0.0
19422,84.0,0.0,60.0,0.0,0.0
19423,87.0,2.0,60.0,0.0,0.0
19424,72.0,0.0,60.0,6.0,0.0
19425,75.0,0.0,60.0,6.0,0.0
19426,72.0,0.0,60.0,1.0,0.0
19427,75.0,1.0,60.0,1.0,0.0
19428,60.0,2.0,60.0,4.0,0.0
19429,63.0,0.0,60.0,4.0,0.0
19430,75.0,0.0,60.0,2.0,0.0
19431,72.0,0.0,60.0,2.0,0.0
19432,94.0,1.0,30.0,10.0,0.0
19433,82.0,1.0,30.0,11.0,0.0
19434,70.0,20.0,30.0,12.0,0.0
19435,46.0,2.0,15.0,15.0,0.0
19436,82.0,3.0,30.0,10.0,0.0
19437,82.0,0.0,30.0,0.0,0.0
19438,86.0,1.0,30.0,0.0,0.0
19439,74.0,1.0,30.0,6.0,0.0
19440,70.0,3.0,30.0,11.0,0.0
19441,70.0,0.0,30.0,6.0,0.0
19442,70.0,1.0,30.0,1.0,0.0
19443,74.0,0.0,30.0,1.0,0.0
19444,58.0,0.0,30.0,4.0,0.0
19445,62.0,2.0,30.0,4.0,0.0
19446,74.0,6.0,30.0,2.0,0.0
19447,70.0,0.0,30.0,2.0,0.0
19448,58.0,1.0,30.0,12.0,0.0
19449,58.0,1.0,60.0,3.0,0.0
19450,46.0,0.0,60.0,3.0,0.0
19451,58.0,0.0,60.0,13.0,0.0
19452,46.0,16.0,60.0,14.0,0.0
19453,82.0,3.0,30.0,10.0,0.0
19454,46.0,22.0,15.0,15.0,0.0
19455,70.0,3.0,30.0,11.0,0.0
19456,58.0,1.0,30.0,12.0,0.0
19457,87.0,2.0,30.0,0.0,0.0
19458,84.0,0.0,30.0,0.0,0.0
19459,75.0,1.0,30.0,6.0,0.0
19460,72.0,0.0,30.0,6.0,0.0
19461,72.0,0.0,30.0,1.0,0.0
19462,75.0,1.0,30.0,1.0,0.0
19463,63.0,2.0,30.0,4.0,0.0
19464,60.0,0.0,30.0,4.0,0.0
19465,75.0,5.0,30.0,2.0,0.0
19466,72.0,0.0,30.0,2.0,0.0
19467,46.0,2.0,15.0,15.0,0.0
19468,82.0,3.0,30.0,10.0,0.0
19469,70.0,4.0,30.0,11.0,0.0
19470,58.0,20.0,30.0,12.0,0.0
19471,46.0,3.0,15.0,15.0,0.0
19472,94.0,3.0,30.0,10.0,0.0
19473,89.0,2.0,60.0,0.0,0.0
19474,86.0,0.0,60.0,0.0,0.0
19475,74.0,1.0,60.0,6.0,0.0
19476,77.0,0.0,60.0,6.0,0.0
19477,82.0,4.0,30.0,11.0,0.0
19478,74.0,0.0,60.0,1.0,0.0
19479,77.0,1.0,60.0,1.0,0.0
19480,65.0,0.0,60.0,4.0,0.0
19481,62.0,2.0,60.0,4.0,0.0
19482,77.0,0.0,60.0,2.0,0.0
19483,70.0,11.0,30.0,12.0,0.0
19484,74.0,1.0,60.0,2.0,0.0
19485,62.0,0.0,60.0,5.0,0.0
19486,65.0,3.0,60.0,5.0,0.0
19487,46.0,0.0,60.0,3.0,0.0
19488,34.0,1.0,60.0,3.0,0.0
19489,46.0,1.0,60.0,13.0,0.0
19490,34.0,28.0,60.0,14.0,0.0
19491,94.0,0.0,30.0,10.0,0.0
19492,46.0,18.0,15.0,15.0,0.0
19493,82.0,0.0,30.0,11.0,0.0
19494,70.0,0.0,30.0,12.0,0.0
19495,87.0,2.0,60.0,0.0,0.0
19496,84.0,0.0,60.0,0.0,0.0
19497,75.0,1.0,60.0,6.0,0.0
19498,72.0,0.0,60.0,6.0,0.0
19499,72.0,0.0,60.0,1.0,0.0
19500,75.0,1.0,60.0,1.0,0.0
19501,60.0,0.0,60.0,4.0,0.0
19502,63.0,2.0,60.0,4.0,0.0
19503,75.0,0.0,60.0,2.0,0.0
19504,72.0,0.0,60.0,2.0,0.0
19505,46.0,2.0,15.0,15.0,0.0
19506,94.0,1.0,30.0,10.0,0.0
19507,82.0,0.0,30.0,11.0,0.0
19508,70.0,20.0,30.0,12.0,0.0
19509,46.0,2.0,15.0,15.0,0.0
19510,82.0,3.0,30.0,10.0,0.0
19511,86.0,1.0,30.0,0.0,0.0
19512,82.0,0.0,30.0,0.0,0.0
19513,74.0,1.0,30.0,6.0,0.0
19514,70.0,3.0,30.0,11.0,0.0
19515,70.0,0.0,30.0,6.0,0.0
19516,74.0,0.0,30.0,1.0,0.0
19517,70.0,1.0,30.0,1.0,0.0
19518,58.0,0.0,30.0,4.0,0.0
19519,62.0,2.0,30.0,4.0,0.0
19520,74.0,4.0,30.0,2.0,0.0
19521,70.0,0.0,30.0,2.0,0.0
19522,58.0,1.0,30.0,12.0,0.0
19523,58.0,0.0,60.0,3.0,0.0
19524,46.0,1.0,60.0,3.0,0.0
19525,46.0,13.0,15.0,15.0,0.0
19526,58.0,0.0,60.0,13.0,0.0
19527,46.0,16.0,60.0,14.0,0.0
19528,82.0,3.0,30.0,10.0,0.0
19529,70.0,3.0,30.0,11.0,0.0
19530,58.0,1.0,30.0,12.0,0.0
19531,84.0,0.0,30.0,0.0,0.0
19532,87.0,2.0,30.0,0.0,0.0
19533,72.0,0.0,30.0,6.0,0.0
19534,75.0,1.0,30.0,6.0,0.0
19535,72.0,1.0,30.0,1.0,0.0
19536,75.0,0.0,30.0,1.0,0.0
19537,63.0,2.0,30.0,4.0,0.0
19538,60.0,0.0,30.0,4.0,0.0
19539,72.0,5.0,30.0,2.0,0.0
19540,75.0,0.0,30.0,2.0,0.0
19541,46.0,2.0,15.0,15.0,0.0
19542,82.0,3.0,30.0,10.0,0.0
19543,70.0,4.0,30.0,11.0,0.0
19544,58.0,21.0,30.0,12.0,0.0
19545,94.0,3.0,30.0,10.0,0.0
19546,89.0,2.0,60.0,0.0,0.0
19547,86.0,0.0,60.0,0.0,0.0
19548,74.0,1.0,60.0,6.0,0.0
19549,77.0,0.0,60.0,6.0,0.0
19550,82.0,4.0,30.0,11.0,0.0
19551,74.0,0.0,60.0,1.0,0.0
19552,77.0,1.0,60.0,1.0,0.0
19553,62.0,0.0,60.0,4.0,0.0
19554,65.0,0.0,60.0,4.0,0.0
19555,77.0,0.0,60.0,2.0,0.0
19556,74.0,1.0,60.0,2.0,0.0
19557,70.0,9.0,30.0,12.0,0.0
19558,62.0,3.0,60.0,5.0,0.0
19559,65.0,0.0,60.0,5.0,0.0
19560,46.0,12.0,15.0,15.0,0.0
19561,34.0,0.0,60.0,3.0,0.0
19562,46.0,1.0,60.0,3.0,0.0
19563,46.0,0.0,60.0,13.0,0.0
19564,34.0,27.0,60.0,14.0,0.0
19565,94.0,2.0,30.0,10.0,0.0
19566,46.0,0.0,30.0,15.0,0.0
19567,82.0,0.0,30.0,11.0,0.0
19568,70.0,3.0,30.0,12.0,0.0
19569,84.0,0.0,60.0,0.0,0.0
19570,87.0,2.0,60.0,0.0,0.0
19571,72.0,0.0,60.0,6.0,0.0
19572,75.0,0.0,60.0,6.0,0.0
19573,75.0,0.0,60.0,1.0,0.0
19574,72.0,1.0,60.0,1.0,0.0
19575,60.0,0.0,60.0,4.0,0.0
19576,63.0,2.0,60.0,4.0,0.0
19577,72.0,0.0,60.0,2.0,0.0
19578,75.0,0.0,60.0,2.0,0.0
19579,46.0,3.0,30.0,15.0,0.0
19580,94.0,1.0,30.0,10.0,0.0
19581,82.0,1.0,30.0,11.0,0.0
19582,70.0,21.0,30.0,12.0,0.0
19583,82.0,3.0,30.0,10.0,0.0
19584,86.0,0.0,30.0,0.0,0.0
19585,82.0,1.0,30.0,0.0,0.0
19586,70.0,3.0,30.0,11.0,0.0
19587,70.0,1.0,30.0,6.0,0.0
19588,74.0,0.0,30.0,6.0,0.0
19589,74.0,1.0,30.0,1.0,0.0
19590,70.0,0.0,30.0,1.0,0.0
19591,58.0,2.0,30.0,4.0,0.0
19592,62.0,0.0,30.0,4.0,0.0
19593,74.0,5.0,30.0,2.0,0.0
19594,70.0,0.0,30.0,2.0,0.0
19595,58.0,1.0,30.0,12.0,0.0
19596,46.0,1.0,60.0,3.0,0.0
19597,58.0,0.0,60.0,3.0,0.0
19598,46.0,12.0,15.0,15.0,0.0
19599,58.0,1.0,60.0,13.0,0.0
19600,46.0,16.0,60.0,14.0,0.0
19601,82.0,3.0,30.0,10.0,0.0
19602,70.0,3.0,30.0,11.0,0.0
19603,58.0,0.0,30.0,12.0,0.0
19604,84.0,2.0,30.0,0.0,0.0
19605,87.0,0.0,30.0,0.0,0.0
19606,72.0,1.0,30.0,6.0,0.0
19607,75.0,0.0,30.0,6.0,0.0
19608,75.0,0.0,30.0,1.0,0.0
19609,72.0,1.0,30.0,1.0,0.0
19610,60.0,2.0,30.0,4.0,0.0
19611,63.0,0.0,30.0,4.0,0.0
19612,75.0,5.0,30.0,2.0,0.0
19613,72.0,0.0,30.0,2.0,0.0
19614,46.0,2.0,15.0,15.0,0.0
19615,82.0,3.0,30.0,10.0,0.0
19616,70.0,4.0,30.0,11.0,0.0
19617,58.0,21.0,30.0,12.0,0.0
19618,94.0,1.0,60.0,10.0,0.0
19619,86.0,0.0,60.0,0.0,0.0
19620,89.0,2.0,60.0,0.0,0.0
19621,74.0,0.0,60.0,6.0,0.0
19622,82.0,0.0,60.0,11.0,0.0
19623,77.0,1.0,60.0,6.0,0.0
19624,77.0,1.0,60.0,1.0,0.0
19625,74.0,0.0,60.0,1.0,0.0
19626,62.0,0.0,60.0,4.0,0.0
19627,65.0,2.0,60.0,4.0,0.0
19628,62.0,4.0,1080.0,7.0,0.0
19629,65.0,0.0,1080.0,7.0,0.0
19630,74.0,0.0,60.0,2.0,0.0
19631,77.0,0.0,60.0,2.0,0.0
19632,70.0,1.0,60.0,12.0,0.0
19633,58.0,3.0,60.0,5.0,0.0
19634,58.0,410.0,1080.0,7.0,0.0
19635,34.0,1.0,60.0,3.0,0.0
19636,46.0,0.0,60.0,3.0,0.0
19637,46.0,0.0,60.0,13.0,0.0
19638,46.0,47.0,15.0,15.0,0.0
19639,34.0,465.0,60.0,14.0,0.0
19640,82.0,0.0,60.0,10.0,0.0
19641,65.0,0.0,60.0,10.0,0.0
19642,58.0,1.0,60.0,10.0,0.0
19643,89.0,0.0,60.0,0.0,0.0
19644,86.0,2.0,60.0,0.0,0.0
19645,65.0,0.0,60.0,11.0,0.0
19646,74.0,0.0,60.0,11.0,0.0
19647,58.0,0.0,60.0,11.0,0.0
19648,77.0,1.0,60.0,6.0,0.0
19649,74.0,0.0,60.0,6.0,0.0
19650,74.0,1.0,60.0,1.0,0.0
19651,77.0,0.0,60.0,1.0,0.0
19652,62.0,0.0,60.0,4.0,0.0
19653,65.0,2.0,60.0,4.0,0.0
19654,65.0,0.0,60.0,12.0,0.0
19655,62.0,0.0,60.0,12.0,0.0
19656,74.0,1.0,60.0,2.0,0.0
19657,58.0,0.0,60.0,12.0,0.0
19658,77.0,0.0,60.0,2.0,0.0
19659,58.0,3.0,60.0,5.0,0.0
19660,46.0,0.0,60.0,3.0,0.0
19661,34.0,1.0,60.0,3.0,0.0
19662,46.0,0.0,60.0,13.0,0.0
19663,46.0,1.0,60.0,15.0,0.0
19664,46.0,2.0,60.0,8.0,0.0
19665,34.0,465.0,60.0,14.0,0.0
19666,58.0,0.0,60.0,10.0,0.0
19667,65.0,1.0,60.0,10.0,0.0
19668,82.0,0.0,60.0,10.0,0.0
19669,86.0,2.0,60.0,0.0,0.0
19670,89.0,0.0,60.0,0.0,0.0
19671,74.0,0.0,60.0,6.0,0.0
19672,58.0,0.0,60.0,11.0,0.0
19673,65.0,0.0,60.0,11.0,0.0
19674,77.0,1.0,60.0,6.0,0.0
19675,74.0,0.0,60.0,11.0,0.0
19676,74.0,1.0,60.0,1.0,0.0
19677,77.0,0.0,60.0,1.0,0.0
19678,62.0,0.0,60.0,4.0,0.0
19679,65.0,2.0,60.0,4.0,0.0
19680,74.0,0.0,60.0,2.0,0.0
19681,77.0,0.0,60.0,2.0,0.0
19682,65.0,1.0,60.0,12.0,0.0
19683,62.0,0.0,60.0,12.0,0.0
19684,58.0,0.0,60.0,12.0,0.0
19685,58.0,3.0,60.0,5.0,0.0
19686,34.0,1.0,60.0,3.0,0.0
19687,46.0,0.0,60.0,3.0,0.0
19688,46.0,1.0,60.0,15.0,0.0
19689,46.0,0.0,60.0,13.0,0.0
19690,46.0,2.0,60.0,8.0,0.0
19691,34.0,51.0,60.0,14.0,0.0
19692,58.0,0.0,60.0,10.0,0.0
19693,74.0,1.0,60.0,10.0,0.0
19694,82.0,0.0,60.0,10.0,0.0
19695,86.0,0.0,60.0,0.0,0.0
19696,82.0,2.0,60.0,0.0,0.0
19697,74.0,1.0,60.0,6.0,0.0
19698,70.0,0.0,60.0,6.0,0.0
19699,53.0,0.0,60.0,11.0,0.0
19700,70.0,0.0,60.0,11.0,0.0
19701,62.0,0.0,60.0,11.0,0.0
19702,74.0,0.0,60.0,1.0,0.0
19703,70.0,1.0,60.0,1.0,0.0
19704,62.0,0.0,60.0,4.0,0.0
19705,58.0,1.0,60.0,4.0,0.0
19706,53.0,1.0,60.0,7.0,0.0
19707,62.0,0.0,60.0,7.0,0.0
19708,70.0,0.0,60.0,2.0,0.0
19709,58.0,0.0,60.0,12.0,0.0
19710,65.0,0.0,60.0,12.0,0.0
19711,62.0,0.0,60.0,12.0,0.0
19712,74.0,1.0,60.0,2.0,0.0
19713,58.0,2.0,60.0,5.0,0.0
19714,58.0,1.0,60.0,7.0,0.0
19715,34.0,1.0,60.0,3.0,0.0
19716,46.0,0.0,60.0,3.0,0.0
19717,46.0,0.0,60.0,15.0,0.0
19718,46.0,1.0,60.0,13.0,0.0
19719,46.0,2.0,60.0,8.0,0.0
19720,34.0,436.0,60.0,14.0,0.0
19721,58.0,1.0,480.0,10.0,0.0
19722,86.0,0.0,480.0,0.0,0.0
19723,77.0,2.0,480.0,0.0,0.0
19724,58.0,0.0,480.0,6.0,0.0
19725,70.0,0.0,480.0,6.0,0.0
19726,58.0,1.0,480.0,11.0,0.0
19727,74.0,0.0,480.0,1.0,0.0
19728,65.0,1.0,480.0,1.0,0.0
19729,58.0,0.0,480.0,4.0,0.0
19730,46.0,1.0,480.0,4.0,0.0
19731,62.0,1.0,480.0,7.0,0.0
19732,53.0,0.0,480.0,7.0,0.0
19733,65.0,0.0,480.0,2.0,0.0
19734,74.0,1.0,480.0,2.0,0.0
19735,50.0,0.0,480.0,12.0,0.0
19736,53.0,0.0,480.0,12.0,0.0
19737,58.0,2.0,480.0,5.0,0.0
19738,46.0,1.0,480.0,7.0,0.0
19739,46.0,0.0,480.0,3.0,0.0
19740,34.0,1.0,480.0,3.0,0.0
19741,46.0,22.0,20.0,15.0,0.0
19742,46.0,1.0,480.0,13.0,0.0
19743,34.0,2.0,480.0,8.0,0.0
19744,34.0,480.0,480.0,14.0,0.0
19745,46.0,19.0,15.0,15.0,0.0
19746,46.0,18.0,15.0,15.0,0.0
19747,46.0,20.0,15.0,15.0,0.0
19748,46.0,21.0,20.0,15.0,0.0
19749,46.0,19.0,15.0,15.0,0.0
19750,46.0,19.0,15.0,15.0,0.0
19751,46.0,19.0,15.0,15.0,0.0
19752,46.0,19.0,15.0,15.0,0.0
19753,46.0,19.0,15.0,15.0,0.0
19754,46.0,20.0,15.0,15.0,0.0
19755,46.0,18.0,15.0,15.0,0.0
19756,46.0,21.0,20.0,15.0,0.0
19757,46.0,18.0,15.0,15.0,0.0
