,note,step,duration,channel,velocity
0,53.0,5.0,60.0,7.0,0.0
1,51.0,29.0,20.0,8.0,0.0
2,58.0,3.0,120.0,7.0,0.0
3,49.0,29.0,20.0,8.0,0.0
4,48.0,32.0,20.0,8.0,0.0
5,49.0,25.0,20.0,8.0,0.0
6,53.0,20.0,20.0,8.0,0.0
7,51.0,4.0,20.0,8.0,0.0
8,60.0,9.0,15.0,7.0,0.0
9,61.0,1.0,15.0,7.0,0.0
10,60.0,17.0,15.0,7.0,0.0
11,58.0,10.0,15.0,7.0,0.0
12,48.0,3.0,20.0,8.0,0.0
13,60.0,26.0,15.0,7.0,0.0
14,61.0,30.0,30.0,7.0,0.0
15,46.0,2.0,20.0,8.0,0.0
16,49.0,29.0,20.0,8.0,0.0
17,65.0,4.0,30.0,7.0,0.0
18,60.0,25.0,30.0,7.0,0.0
19,48.0,1.0,20.0,8.0,0.0
20,44.0,31.0,20.0,8.0,0.0
21,70.0,2.0,90.0,7.0,0.0
22,61.0,3.0,90.0,7.0,0.0
23,42.0,29.0,20.0,8.0,0.0
24,46.0,26.0,20.0,8.0,0.0
25,41.0,16.0,20.0,8.0,0.0
26,70.0,2.0,15.0,7.0,0.0
27,61.0,11.0,15.0,7.0,0.0
28,46.0,30.0,20.0,8.0,0.0
29,69.0,3.0,30.0,7.0,0.0
30,60.0,22.0,30.0,7.0,0.0
31,39.0,1.0,20.0,8.0,0.0
32,70.0,4.0,30.0,7.0,0.0
33,61.0,1.0,30.0,7.0,0.0
34,46.0,16.0,20.0,8.0,0.0
35,72.0,3.0,15.0,7.0,0.0
36,63.0,9.0,15.0,7.0,0.0
37,37.0,19.0,20.0,8.0,0.0
38,73.0,1.0,15.0,7.0,0.0
39,65.0,11.0,15.0,7.0,0.0
40,46.0,31.0,20.0,8.0,0.0
41,69.0,3.0,30.0,7.0,0.0
42,60.0,26.0,30.0,7.0,0.0
43,41.0,1.0,20.0,8.0,0.0
44,53.0,30.0,20.0,8.0,0.0
45,54.0,17.0,20.0,8.0,0.0
46,70.0,2.0,15.0,7.0,0.0
47,61.0,11.0,15.0,7.0,0.0
48,53.0,29.0,20.0,8.0,0.0
49,69.0,1.0,30.0,7.0,0.0
50,60.0,25.0,30.0,7.0,0.0
51,37.0,2.0,20.0,8.0,0.0
52,70.0,1.0,30.0,7.0,0.0
53,61.0,2.0,30.0,7.0,0.0
54,49.0,17.0,20.0,8.0,0.0
55,72.0,0.0,15.0,7.0,0.0
56,63.0,11.0,15.0,7.0,0.0
57,36.0,17.0,20.0,8.0,0.0
58,73.0,3.0,15.0,7.0,0.0
59,65.0,12.0,15.0,7.0,0.0
60,48.0,30.0,20.0,8.0,0.0
61,69.0,1.0,30.0,7.0,0.0
62,60.0,26.0,30.0,7.0,0.0
63,41.0,2.0,20.0,8.0,0.0
64,53.0,30.0,20.0,8.0,0.0
65,51.0,15.0,20.0,8.0,0.0
66,65.0,9.0,15.0,7.0,0.0
67,48.0,6.0,20.0,8.0,0.0
68,67.0,5.0,15.0,7.0,0.0
69,69.0,26.0,15.0,7.0,0.0
70,70.0,3.0,30.0,7.0,0.0
71,62.0,26.0,30.0,7.0,0.0
72,46.0,1.0,20.0,8.0,0.0
73,44.0,28.0,20.0,8.0,0.0
74,75.0,1.0,120.0,7.0,0.0
75,70.0,1.0,120.0,7.0,0.0
76,63.0,1.0,120.0,7.0,0.0
77,66.0,0.0,120.0,7.0,0.0
78,42.0,32.0,20.0,8.0,0.0
79,41.0,28.0,20.0,8.0,0.0
80,42.0,28.0,20.0,8.0,0.0
81,46.0,29.0,20.0,8.0,0.0
82,65.0,27.0,60.0,7.0,0.0
83,77.0,0.0,60.0,7.0,0.0
84,70.0,25.0,90.0,7.0,0.0
85,42.0,32.0,20.0,8.0,0.0
86,41.0,2.0,20.0,8.0,0.0
87,66.0,1.0,30.0,7.0,0.0
88,78.0,0.0,30.0,7.0,0.0
89,39.0,3.0,20.0,8.0,0.0
90,42.0,30.0,20.0,8.0,0.0
91,82.0,3.0,60.0,7.0,0.0
92,66.0,1.0,60.0,7.0,0.0
93,77.0,1.0,60.0,7.0,0.0
94,39.0,27.0,20.0,8.0,0.0
95,37.0,29.0,20.0,8.0,0.0
96,78.0,2.0,120.0,7.0,0.0
97,87.0,0.0,120.0,7.0,0.0
98,75.0,1.0,120.0,7.0,0.0
99,35.0,29.0,20.0,8.0,0.0
100,47.0,30.0,20.0,8.0,0.0
101,34.0,29.0,20.0,8.0,0.0
102,46.0,28.0,20.0,8.0,0.0
103,90.0,2.0,30.0,7.0,0.0
104,78.0,2.0,30.0,7.0,0.0
105,87.0,24.0,30.0,7.0,0.0
106,33.0,2.0,20.0,8.0,0.0
107,48.0,30.0,20.0,8.0,0.0
108,89.0,2.0,30.0,7.0,0.0
109,85.0,0.0,30.0,7.0,0.0
110,77.0,25.0,30.0,7.0,0.0
111,34.0,4.0,20.0,8.0,0.0
112,49.0,30.0,20.0,8.0,0.0
113,87.0,0.0,30.0,7.0,0.0
114,84.0,2.0,30.0,7.0,0.0
115,75.0,24.0,30.0,7.0,0.0
116,36.0,3.0,20.0,8.0,0.0
117,51.0,32.0,20.0,8.0,0.0
118,85.0,2.0,30.0,7.0,0.0
119,82.0,1.0,30.0,7.0,0.0
120,73.0,25.0,30.0,7.0,0.0
121,37.0,1.0,20.0,8.0,0.0
122,53.0,30.0,20.0,8.0,0.0
123,84.0,2.0,30.0,7.0,0.0
124,81.0,1.0,30.0,7.0,0.0
125,72.0,24.0,30.0,7.0,0.0
126,39.0,2.0,20.0,8.0,0.0
127,54.0,16.0,20.0,8.0,0.0
128,82.0,7.0,15.0,7.0,0.0
129,73.0,24.0,60.0,7.0,0.0
130,40.0,5.0,20.0,8.0,0.0
131,84.0,7.0,15.0,7.0,0.0
132,82.0,15.0,15.0,7.0,0.0
133,81.0,12.0,15.0,7.0,0.0
134,55.0,2.0,20.0,8.0,0.0
135,82.0,2.0,15.0,7.0,0.0
136,81.0,2.0,60.0,7.0,0.0
137,72.0,21.0,60.0,7.0,0.0
138,41.0,32.0,20.0,8.0,0.0
139,57.0,1.0,20.0,8.0,0.0
140,53.0,4.0,20.0,7.0,0.0
141,41.0,15.0,20.0,8.0,0.0
142,57.0,3.0,20.0,7.0,0.0
143,45.0,18.0,20.0,8.0,0.0
144,60.0,3.0,20.0,7.0,0.0
145,48.0,17.0,20.0,8.0,0.0
146,65.0,6.0,20.0,7.0,0.0
147,53.0,21.0,30.0,10.0,0.0
148,53.0,3.0,20.0,8.0,0.0
149,53.0,5.0,60.0,13.0,0.0
150,41.0,8.0,60.0,14.0,0.0
151,63.0,6.0,20.0,7.0,0.0
152,51.0,11.0,20.0,8.0,0.0
153,61.0,6.0,20.0,7.0,0.0
154,58.0,7.0,120.0,10.0,0.0
155,49.0,24.0,20.0,8.0,0.0
156,51.0,5.0,60.0,13.0,0.0
157,39.0,10.0,60.0,14.0,0.0
158,60.0,5.0,20.0,7.0,0.0
159,48.0,12.0,20.0,8.0,0.0
160,61.0,3.0,20.0,7.0,0.0
161,65.0,5.0,60.0,11.0,0.0
162,49.0,19.0,20.0,8.0,0.0
163,53.0,1.0,60.0,12.0,0.0
164,49.0,5.0,60.0,13.0,0.0
165,37.0,2.0,60.0,14.0,0.0
166,65.0,4.0,20.0,7.0,0.0
167,53.0,6.0,20.0,8.0,0.0
168,63.0,2.0,20.0,7.0,0.0
169,61.0,0.0,15.0,10.0,0.0
170,63.0,5.0,60.0,11.0,0.0
171,51.0,5.0,20.0,8.0,0.0
172,51.0,1.0,60.0,12.0,0.0
173,60.0,6.0,15.0,10.0,0.0
174,48.0,5.0,60.0,13.0,0.0
175,36.0,10.0,60.0,14.0,0.0
176,61.0,2.0,15.0,10.0,0.0
177,60.0,15.0,15.0,10.0,0.0
178,60.0,6.0,20.0,7.0,0.0
179,58.0,6.0,15.0,10.0,0.0
180,48.0,3.0,20.0,8.0,0.0
181,60.0,2.0,15.0,10.0,0.0
182,61.0,21.0,30.0,10.0,0.0
183,58.0,2.0,20.0,7.0,0.0
184,61.0,5.0,60.0,11.0,0.0
185,46.0,5.0,20.0,8.0,0.0
186,49.0,1.0,60.0,12.0,0.0
187,46.0,5.0,60.0,13.0,0.0
188,34.0,9.0,60.0,14.0,0.0
189,61.0,6.0,20.0,7.0,0.0
190,49.0,5.0,20.0,8.0,0.0
191,60.0,3.0,20.0,7.0,0.0
192,65.0,21.0,30.0,10.0,0.0
193,60.0,5.0,60.0,11.0,0.0
194,48.0,5.0,20.0,8.0,0.0
195,48.0,1.0,60.0,12.0,0.0
196,44.0,5.0,60.0,13.0,0.0
197,32.0,10.0,60.0,14.0,0.0
198,56.0,4.0,20.0,7.0,0.0
199,44.0,7.0,20.0,8.0,0.0
200,70.0,7.0,60.0,10.0,0.0
201,54.0,2.0,20.0,7.0,0.0
202,58.0,5.0,60.0,11.0,0.0
203,42.0,27.0,20.0,8.0,0.0
204,46.0,1.0,60.0,12.0,0.0
205,42.0,5.0,60.0,13.0,0.0
206,30.0,2.0,60.0,14.0,0.0
207,58.0,4.0,20.0,7.0,0.0
208,46.0,6.0,20.0,8.0,0.0
209,53.0,5.0,20.0,7.0,0.0
210,41.0,18.0,20.0,8.0,0.0
211,41.0,5.0,60.0,13.0,0.0
212,29.0,9.0,60.0,14.0,0.0
213,70.0,2.0,15.0,10.0,0.0
214,58.0,3.0,20.0,7.0,0.0
215,61.0,6.0,15.0,11.0,0.0
216,46.0,12.0,20.0,8.0,0.0
217,51.0,3.0,20.0,7.0,0.0
218,69.0,2.0,30.0,10.0,0.0
219,60.0,2.0,30.0,11.0,0.0
220,39.0,5.0,20.0,8.0,0.0
221,58.0,0.0,30.0,4.0,0.0
222,46.0,18.0,30.0,4.0,0.0
223,46.0,0.0,60.0,12.0,0.0
224,39.0,5.0,60.0,13.0,0.0
225,27.0,2.0,60.0,14.0,0.0
226,58.0,3.0,20.0,7.0,0.0
227,70.0,1.0,30.0,10.0,0.0
228,61.0,10.0,30.0,11.0,0.0
229,46.0,1.0,20.0,8.0,0.0
230,72.0,2.0,15.0,10.0,0.0
231,49.0,3.0,20.0,7.0,0.0
232,63.0,5.0,15.0,11.0,0.0
233,37.0,9.0,20.0,8.0,0.0
234,46.0,0.0,30.0,4.0,0.0
235,58.0,11.0,30.0,4.0,0.0
236,58.0,1.0,15.0,12.0,0.0
237,46.0,1.0,60.0,12.0,0.0
238,37.0,5.0,60.0,13.0,0.0
239,25.0,10.0,60.0,14.0,0.0
240,58.0,3.0,20.0,7.0,0.0
241,73.0,2.0,15.0,10.0,0.0
242,65.0,5.0,15.0,11.0,0.0
243,46.0,12.0,20.0,8.0,0.0
244,69.0,2.0,30.0,10.0,0.0
245,53.0,3.0,20.0,7.0,0.0
246,60.0,2.0,30.0,11.0,0.0
247,53.0,17.0,30.0,4.0,0.0
248,41.0,0.0,30.0,4.0,0.0
249,41.0,4.0,20.0,8.0,0.0
250,53.0,1.0,60.0,12.0,0.0
251,41.0,5.0,60.0,13.0,0.0
252,29.0,8.0,60.0,14.0,0.0
253,65.0,5.0,20.0,7.0,0.0
254,53.0,11.0,20.0,8.0,0.0
255,66.0,4.0,20.0,7.0,0.0
256,54.0,20.0,20.0,8.0,0.0
257,65.0,4.0,20.0,7.0,0.0
258,70.0,2.0,15.0,10.0,0.0
259,61.0,5.0,15.0,11.0,0.0
260,53.0,25.0,20.0,8.0,0.0
261,53.0,5.0,20.0,7.0,0.0
262,69.0,2.0,30.0,10.0,0.0
263,60.0,2.0,30.0,11.0,0.0
264,65.0,17.0,30.0,4.0,0.0
265,53.0,0.0,30.0,4.0,0.0
266,41.0,4.0,20.0,8.0,0.0
267,65.0,1.0,60.0,12.0,0.0
268,49.0,5.0,60.0,13.0,0.0
269,37.0,2.0,60.0,14.0,0.0
270,65.0,4.0,20.0,7.0,0.0
271,70.0,2.0,30.0,10.0,0.0
272,61.0,10.0,30.0,11.0,0.0
273,53.0,0.0,20.0,8.0,0.0
274,72.0,2.0,15.0,10.0,0.0
275,53.0,2.0,20.0,7.0,0.0
276,63.0,6.0,15.0,11.0,0.0
277,41.0,9.0,20.0,8.0,0.0
278,53.0,11.0,30.0,4.0,0.0
279,65.0,0.0,30.0,4.0,0.0
280,65.0,1.0,60.0,12.0,0.0
281,46.0,5.0,60.0,13.0,0.0
282,34.0,4.0,60.0,14.0,0.0
283,73.0,2.0,15.0,10.0,0.0
284,65.0,4.0,20.0,7.0,0.0
285,65.0,6.0,15.0,11.0,0.0
286,53.0,10.0,20.0,8.0,0.0
287,53.0,6.0,20.0,7.0,0.0
288,69.0,4.0,30.0,10.0,0.0
289,60.0,4.0,15.0,11.0,0.0
290,53.0,0.0,30.0,4.0,0.0
291,41.0,18.0,30.0,4.0,0.0
292,41.0,3.0,20.0,8.0,0.0
293,53.0,1.0,60.0,12.0,0.0
294,53.0,5.0,60.0,13.0,0.0
295,41.0,9.0,60.0,14.0,0.0
296,65.0,4.0,20.0,7.0,0.0
297,53.0,11.0,20.0,8.0,0.0
298,63.0,5.0,20.0,7.0,0.0
299,51.0,13.0,20.0,8.0,0.0
300,53.0,10.0,15.0,10.0,0.0
301,60.0,4.0,20.0,7.0,0.0
302,48.0,4.0,20.0,8.0,0.0
303,55.0,2.0,15.0,10.0,0.0
304,57.0,22.0,15.0,10.0,0.0
305,58.0,1.0,30.0,10.0,0.0
306,58.0,4.0,20.0,7.0,0.0
307,70.0,3.0,30.0,0.0,0.0
308,46.0,4.0,20.0,8.0,0.0
309,70.0,19.0,30.0,1.0,0.0
310,58.0,5.0,60.0,13.0,0.0
311,46.0,9.0,60.0,14.0,0.0
312,56.0,2.0,20.0,7.0,0.0
313,44.0,13.0,20.0,8.0,0.0
314,54.0,4.0,20.0,7.0,0.0
315,63.0,1.0,120.0,10.0,0.0
316,75.0,3.0,120.0,0.0,0.0
317,42.0,26.0,20.0,8.0,0.0
318,75.0,0.0,120.0,1.0,0.0
319,63.0,3.0,120.0,1.0,0.0
320,56.0,5.0,60.0,13.0,0.0
321,44.0,8.0,60.0,14.0,0.0
322,53.0,5.0,20.0,7.0,0.0
323,41.0,11.0,20.0,8.0,0.0
324,54.0,5.0,20.0,7.0,0.0
325,70.0,5.0,60.0,11.0,0.0
326,42.0,16.0,20.0,8.0,0.0
327,58.0,1.0,60.0,12.0,0.0
328,54.0,0.0,60.0,13.0,0.0
329,54.0,3.0,30.0,3.0,0.0
330,58.0,0.0,30.0,3.0,0.0
331,42.0,2.0,60.0,14.0,0.0
332,58.0,5.0,20.0,7.0,0.0
333,46.0,5.0,20.0,8.0,0.0
334,56.0,2.0,20.0,7.0,0.0
335,66.0,1.0,15.0,10.0,0.0
336,78.0,3.0,15.0,0.0,0.0
337,68.0,2.0,60.0,11.0,0.0
338,66.0,1.0,15.0,1.0,0.0
339,44.0,0.0,20.0,8.0,0.0
340,56.0,1.0,60.0,12.0,0.0
341,65.0,1.0,15.0,10.0,0.0
342,77.0,3.0,15.0,0.0,0.0
343,53.0,5.0,60.0,13.0,0.0
344,65.0,2.0,15.0,1.0,0.0
345,53.0,0.0,30.0,3.0,0.0
346,56.0,3.0,30.0,3.0,0.0
347,41.0,9.0,60.0,14.0,0.0
348,66.0,1.0,15.0,10.0,0.0
349,78.0,3.0,15.0,0.0,0.0
350,66.0,3.0,15.0,1.0,0.0
351,65.0,1.0,15.0,10.0,0.0
352,77.0,3.0,15.0,0.0,0.0
353,65.0,8.0,15.0,1.0,0.0
354,53.0,4.0,20.0,7.0,0.0
355,63.0,1.0,15.0,10.0,0.0
356,75.0,3.0,15.0,0.0,0.0
357,41.0,4.0,20.0,8.0,0.0
358,63.0,3.0,15.0,1.0,0.0
359,65.0,1.0,15.0,10.0,0.0
360,77.0,1.0,15.0,0.0,0.0
361,65.0,3.0,15.0,1.0,0.0
362,66.0,1.0,30.0,10.0,0.0
363,51.0,4.0,20.0,7.0,0.0
364,78.0,3.0,30.0,0.0,0.0
365,66.0,5.0,60.0,11.0,0.0
366,66.0,8.0,30.0,1.0,0.0
367,39.0,4.0,20.0,8.0,0.0
368,54.0,1.0,60.0,12.0,0.0
369,51.0,5.0,60.0,13.0,0.0
370,54.0,10.0,30.0,3.0,0.0
371,51.0,0.0,30.0,3.0,0.0
372,39.0,10.0,60.0,14.0,0.0
373,54.0,4.0,20.0,7.0,0.0
374,42.0,6.0,20.0,8.0,0.0
375,70.0,1.0,30.0,10.0,0.0
376,53.0,3.0,20.0,7.0,0.0
377,82.0,3.0,30.0,0.0,0.0
378,65.0,5.0,60.0,11.0,0.0
379,70.0,8.0,30.0,1.0,0.0
380,41.0,4.0,20.0,8.0,0.0
381,53.0,1.0,60.0,12.0,0.0
382,49.0,5.0,60.0,13.0,0.0
383,49.0,0.0,30.0,3.0,0.0
384,53.0,10.0,30.0,3.0,0.0
385,37.0,10.0,60.0,14.0,0.0
386,49.0,5.0,20.0,7.0,0.0
387,37.0,5.0,20.0,8.0,0.0
388,75.0,1.0,120.0,10.0,0.0
389,87.0,3.0,120.0,0.0,0.0
390,51.0,2.0,20.0,7.0,0.0
391,63.0,5.0,60.0,11.0,0.0
392,35.0,17.0,20.0,8.0,0.0
393,75.0,4.0,120.0,1.0,0.0
394,51.0,1.0,60.0,12.0,0.0
395,47.0,5.0,60.0,13.0,0.0
396,47.0,0.0,30.0,3.0,0.0
397,51.0,10.0,30.0,3.0,0.0
398,35.0,10.0,60.0,14.0,0.0
399,63.0,5.0,20.0,7.0,0.0
400,47.0,5.0,20.0,8.0,0.0
401,49.0,3.0,20.0,7.0,0.0
402,61.0,5.0,60.0,11.0,0.0
403,34.0,16.0,20.0,8.0,0.0
404,49.0,1.0,60.0,12.0,0.0
405,46.0,5.0,60.0,13.0,0.0
406,46.0,0.0,30.0,3.0,0.0
407,49.0,3.0,30.0,3.0,0.0
408,34.0,10.0,60.0,14.0,0.0
409,61.0,3.0,20.0,7.0,0.0
410,46.0,6.0,20.0,8.0,0.0
411,78.0,1.0,30.0,10.0,0.0
412,90.0,3.0,30.0,0.0,0.0
413,87.0,0.0,30.0,0.0,0.0
414,48.0,3.0,20.0,7.0,0.0
415,60.0,5.0,60.0,11.0,0.0
416,78.0,0.0,30.0,1.0,0.0
417,75.0,8.0,30.0,1.0,0.0
418,33.0,4.0,20.0,8.0,0.0
419,48.0,1.0,60.0,12.0,0.0
420,45.0,5.0,60.0,13.0,0.0
421,45.0,9.0,30.0,3.0,0.0
422,48.0,0.0,30.0,3.0,0.0
423,33.0,8.0,60.0,14.0,0.0
424,60.0,5.0,20.0,7.0,0.0
425,45.0,6.0,20.0,8.0,0.0
426,49.0,6.0,20.0,7.0,0.0
427,77.0,1.0,30.0,10.0,0.0
428,85.0,0.0,30.0,0.0,0.0
429,89.0,3.0,30.0,0.0,0.0
430,61.0,5.0,60.0,11.0,0.0
431,73.0,8.0,30.0,1.0,0.0
432,77.0,0.0,30.0,1.0,0.0
433,34.0,3.0,20.0,8.0,0.0
434,49.0,1.0,60.0,12.0,0.0
435,46.0,5.0,60.0,13.0,0.0
436,46.0,0.0,30.0,3.0,0.0
437,49.0,9.0,30.0,3.0,0.0
438,34.0,10.0,60.0,14.0,0.0
439,61.0,5.0,20.0,7.0,0.0
440,46.0,6.0,20.0,8.0,0.0
441,75.0,1.0,30.0,10.0,0.0
442,87.0,0.0,30.0,0.0,0.0
443,84.0,3.0,30.0,0.0,0.0
444,51.0,2.0,20.0,7.0,0.0
445,63.0,5.0,60.0,11.0,0.0
446,36.0,5.0,20.0,8.0,0.0
447,72.0,0.0,30.0,1.0,0.0
448,75.0,8.0,30.0,1.0,0.0
449,51.0,1.0,60.0,12.0,0.0
450,48.0,5.0,60.0,13.0,0.0
451,48.0,9.0,30.0,3.0,0.0
452,51.0,0.0,30.0,3.0,0.0
453,36.0,8.0,60.0,14.0,0.0
454,63.0,4.0,20.0,7.0,0.0
455,48.0,7.0,20.0,8.0,0.0
456,53.0,5.0,20.0,7.0,0.0
457,73.0,1.0,30.0,10.0,0.0
458,85.0,0.0,30.0,0.0,0.0
459,82.0,3.0,30.0,0.0,0.0
460,65.0,5.0,60.0,11.0,0.0
461,70.0,8.0,30.0,1.0,0.0
462,73.0,0.0,30.0,1.0,0.0
463,37.0,4.0,20.0,8.0,0.0
464,53.0,1.0,60.0,12.0,0.0
465,49.0,5.0,60.0,13.0,0.0
466,53.0,0.0,30.0,3.0,0.0
467,49.0,10.0,30.0,3.0,0.0
468,37.0,9.0,60.0,14.0,0.0
469,65.0,4.0,20.0,7.0,0.0
470,49.0,6.0,20.0,8.0,0.0
471,54.0,5.0,20.0,7.0,0.0
472,72.0,1.0,30.0,10.0,0.0
473,81.0,0.0,30.0,0.0,0.0
474,84.0,3.0,30.0,0.0,0.0
475,66.0,5.0,60.0,11.0,0.0
476,72.0,8.0,30.0,1.0,0.0
477,69.0,0.0,30.0,1.0,0.0
478,39.0,3.0,20.0,8.0,0.0
479,54.0,1.0,60.0,12.0,0.0
480,51.0,0.0,60.0,13.0,0.0
481,51.0,10.0,30.0,3.0,0.0
482,54.0,0.0,30.0,3.0,0.0
483,39.0,2.0,60.0,14.0,0.0
484,66.0,4.0,20.0,7.0,0.0
485,51.0,6.0,20.0,8.0,0.0
486,72.0,5.0,15.0,10.0,0.0
487,55.0,1.0,20.0,7.0,0.0
488,78.0,0.0,60.0,0.0,0.0
489,67.0,2.0,60.0,11.0,0.0
490,66.0,3.0,60.0,1.0,0.0
491,40.0,3.0,20.0,8.0,0.0
492,70.0,1.0,15.0,10.0,0.0
493,55.0,1.0,60.0,12.0,0.0
494,52.0,5.0,60.0,13.0,0.0
495,82.0,3.0,15.0,0.0,0.0
496,70.0,3.0,15.0,1.0,0.0
497,52.0,3.0,30.0,3.0,0.0
498,55.0,0.0,30.0,3.0,0.0
499,40.0,10.0,60.0,14.0,0.0
500,72.0,1.0,15.0,10.0,0.0
501,84.0,3.0,15.0,0.0,0.0
502,72.0,0.0,15.0,1.0,0.0
503,70.0,1.0,15.0,10.0,0.0
504,82.0,3.0,15.0,0.0,0.0
505,70.0,8.0,15.0,1.0,0.0
506,67.0,4.0,20.0,7.0,0.0
507,69.0,1.0,15.0,10.0,0.0
508,81.0,3.0,15.0,0.0,0.0
509,52.0,5.0,20.0,8.0,0.0
510,69.0,2.0,15.0,1.0,0.0
511,70.0,1.0,15.0,10.0,0.0
512,82.0,1.0,15.0,0.0,0.0
513,70.0,0.0,15.0,1.0,0.0
514,69.0,1.0,60.0,10.0,0.0
515,77.0,0.0,60.0,0.0,0.0
516,81.0,1.0,60.0,0.0,0.0
517,57.0,3.0,20.0,7.0,0.0
518,65.0,2.0,60.0,11.0,0.0
519,69.0,3.0,60.0,1.0,0.0
520,65.0,0.0,60.0,1.0,0.0
521,41.0,16.0,20.0,8.0,0.0
522,53.0,1.0,60.0,12.0,0.0
523,53.0,5.0,60.0,13.0,0.0
524,53.0,11.0,30.0,3.0,0.0
525,57.0,0.0,30.0,3.0,0.0
526,41.0,1.0,60.0,14.0,0.0
527,69.0,4.0,20.0,7.0,0.0
528,53.0,3.0,20.0,8.0,0.0
529,65.0,8.0,15.0,7.0,0.0
530,66.0,9.0,15.0,7.0,0.0
531,65.0,14.0,15.0,7.0,0.0
532,64.0,14.0,15.0,7.0,0.0
533,65.0,28.0,15.0,7.0,0.0
534,78.0,1.0,30.0,7.0,0.0
535,75.0,27.0,30.0,7.0,0.0
536,45.0,1.0,20.0,8.0,0.0
537,53.0,31.0,20.0,8.0,0.0
538,77.0,4.0,30.0,7.0,0.0
539,73.0,26.0,30.0,7.0,0.0
540,46.0,0.0,20.0,8.0,0.0
541,53.0,29.0,20.0,8.0,0.0
542,75.0,2.0,30.0,7.0,0.0
543,72.0,27.0,30.0,7.0,0.0
544,48.0,2.0,20.0,8.0,0.0
545,53.0,29.0,20.0,8.0,0.0
546,73.0,2.0,30.0,7.0,0.0
547,70.0,27.0,30.0,7.0,0.0
548,49.0,2.0,20.0,8.0,0.0
549,53.0,28.0,20.0,8.0,0.0
550,72.0,1.0,30.0,7.0,0.0
551,69.0,27.0,30.0,7.0,0.0
552,51.0,4.0,20.0,8.0,0.0
553,53.0,19.0,20.0,8.0,0.0
554,65.0,27.0,120.0,7.0,0.0
555,49.0,5.0,20.0,8.0,0.0
556,70.0,8.0,15.0,7.0,0.0
557,72.0,1.0,15.0,7.0,0.0
558,70.0,15.0,15.0,7.0,0.0
559,69.0,10.0,15.0,7.0,0.0
560,53.0,6.0,20.0,8.0,0.0
561,70.0,24.0,15.0,7.0,0.0
562,69.0,4.0,60.0,7.0,0.0
563,48.0,27.0,20.0,8.0,0.0
564,60.0,4.0,20.0,8.0,0.0
565,72.0,17.0,120.0,7.0,0.0
566,53.0,30.0,20.0,8.0,0.0
567,57.0,15.0,60.0,3.0,0.0
568,60.0,15.0,20.0,8.0,0.0
569,52.0,30.0,20.0,8.0,0.0
570,55.0,14.0,120.0,3.0,0.0
571,60.0,0.0,20.0,8.0,0.0
572,48.0,4.0,20.0,8.0,0.0
573,70.0,8.0,15.0,7.0,0.0
574,72.0,3.0,15.0,7.0,0.0
575,70.0,17.0,15.0,7.0,0.0
576,69.0,10.0,15.0,7.0,0.0
577,60.0,5.0,20.0,8.0,0.0
578,70.0,11.0,15.0,7.0,0.0
579,69.0,5.0,60.0,7.0,0.0
580,53.0,26.0,20.0,8.0,0.0
581,57.0,14.0,60.0,3.0,0.0
582,60.0,15.0,20.0,8.0,0.0
583,72.0,13.0,120.0,7.0,0.0
584,51.0,29.0,20.0,8.0,0.0
585,55.0,13.0,60.0,3.0,0.0
586,60.0,17.0,20.0,8.0,0.0
587,50.0,32.0,20.0,8.0,0.0
588,54.0,2.0,60.0,3.0,0.0
589,60.0,2.0,20.0,8.0,0.0
590,55.0,5.0,20.0,8.0,0.0
591,70.0,9.0,15.0,7.0,0.0
592,55.0,14.0,60.0,3.0,0.0
593,72.0,2.0,15.0,7.0,0.0
594,70.0,16.0,15.0,7.0,0.0
595,69.0,10.0,15.0,7.0,0.0
596,60.0,4.0,20.0,8.0,0.0
597,72.0,12.0,15.0,7.0,0.0
598,69.0,3.0,60.0,7.0,0.0
599,54.0,28.0,20.0,8.0,0.0
600,57.0,15.0,120.0,3.0,0.0
601,60.0,29.0,20.0,8.0,0.0
602,72.0,17.0,120.0,7.0,0.0
603,51.0,31.0,20.0,8.0,0.0
604,63.0,15.0,20.0,8.0,0.0
605,52.0,29.0,20.0,8.0,0.0
606,62.0,15.0,120.0,3.0,0.0
607,64.0,1.0,20.0,8.0,0.0
608,56.0,3.0,20.0,8.0,0.0
609,71.0,8.0,15.0,7.0,0.0
610,72.0,5.0,15.0,7.0,0.0
611,71.0,15.0,15.0,7.0,0.0
612,69.0,10.0,15.0,7.0,0.0
613,64.0,4.0,20.0,8.0,0.0
614,71.0,13.0,15.0,7.0,0.0
615,69.0,2.0,60.0,7.0,0.0
616,57.0,27.0,20.0,8.0,0.0
617,60.0,11.0,480.0,3.0,0.0
618,64.0,30.0,20.0,8.0,0.0
619,72.0,5.0,90.0,7.0,0.0
620,52.0,31.0,20.0,8.0,0.0
621,64.0,25.0,20.0,8.0,0.0
622,57.0,30.0,20.0,8.0,0.0
623,69.0,28.0,30.0,7.0,0.0
624,64.0,2.0,20.0,8.0,0.0
625,72.0,1.0,90.0,7.0,0.0
626,52.0,29.0,20.0,8.0,0.0
627,64.0,28.0,20.0,8.0,0.0
628,57.0,30.0,20.0,8.0,0.0
629,69.0,29.0,30.0,7.0,0.0
630,64.0,3.0,20.0,8.0,0.0
631,72.0,5.0,90.0,7.0,0.0
632,52.0,28.0,20.0,8.0,0.0
633,64.0,27.0,20.0,8.0,0.0
634,57.0,29.0,20.0,8.0,0.0
635,69.0,30.0,30.0,7.0,0.0
636,64.0,1.0,20.0,8.0,0.0
637,72.0,7.0,90.0,7.0,0.0
638,52.0,45.0,20.0,8.0,0.0
639,64.0,29.0,60.0,8.0,0.0
640,69.0,4.0,30.0,7.0,0.0
641,57.0,19.0,30.0,8.0,0.0
642,72.0,5.0,20.0,7.0,0.0
643,60.0,32.0,20.0,8.0,0.0
644,69.0,4.0,30.0,7.0,0.0
645,57.0,20.0,30.0,8.0,0.0
646,72.0,2.0,20.0,7.0,0.0
647,60.0,34.0,20.0,8.0,0.0
648,64.0,4.0,30.0,7.0,0.0
649,52.0,20.0,30.0,8.0,0.0
650,69.0,4.0,20.0,7.0,0.0
651,57.0,32.0,20.0,8.0,0.0
652,64.0,6.0,30.0,7.0,0.0
653,52.0,17.0,30.0,8.0,0.0
654,69.0,5.0,20.0,7.0,0.0
655,57.0,33.0,20.0,8.0,0.0
656,60.0,3.0,30.0,7.0,0.0
657,48.0,20.0,30.0,8.0,0.0
658,64.0,2.0,20.0,7.0,0.0
659,52.0,35.0,20.0,8.0,0.0
660,60.0,5.0,30.0,7.0,0.0
661,48.0,18.0,30.0,8.0,0.0
662,64.0,4.0,20.0,7.0,0.0
663,52.0,32.0,20.0,8.0,0.0
664,57.0,4.0,30.0,7.0,0.0
665,45.0,19.0,30.0,8.0,0.0
666,60.0,3.0,20.0,7.0,0.0
667,48.0,35.0,20.0,8.0,0.0
668,57.0,4.0,30.0,7.0,0.0
669,45.0,18.0,30.0,8.0,0.0
670,60.0,5.0,20.0,7.0,0.0
671,48.0,34.0,20.0,8.0,0.0
672,52.0,3.0,30.0,7.0,0.0
673,40.0,18.0,30.0,8.0,0.0
674,57.0,4.0,20.0,7.0,0.0
675,45.0,33.0,20.0,8.0,0.0
676,53.0,6.0,30.0,7.0,0.0
677,41.0,17.0,30.0,8.0,0.0
678,57.0,5.0,20.0,7.0,0.0
679,45.0,33.0,20.0,8.0,0.0
680,52.0,3.0,30.0,7.0,0.0
681,40.0,18.0,30.0,8.0,0.0
682,57.0,4.0,20.0,7.0,0.0
683,45.0,34.0,20.0,8.0,0.0
684,51.0,6.0,30.0,7.0,0.0
685,39.0,16.0,30.0,8.0,0.0
686,57.0,6.0,20.0,7.0,0.0
687,45.0,34.0,20.0,8.0,0.0
688,52.0,3.0,30.0,7.0,0.0
689,40.0,19.0,30.0,8.0,0.0
690,57.0,4.0,20.0,7.0,0.0
691,45.0,34.0,20.0,8.0,0.0
692,53.0,2.0,30.0,7.0,0.0
693,41.0,19.0,30.0,8.0,0.0
694,57.0,4.0,20.0,7.0,0.0
695,45.0,33.0,20.0,8.0,0.0
696,52.0,6.0,30.0,7.0,0.0
697,40.0,18.0,30.0,8.0,0.0
698,57.0,2.0,20.0,7.0,0.0
699,45.0,34.0,20.0,8.0,0.0
700,51.0,5.0,30.0,7.0,0.0
701,39.0,18.0,30.0,8.0,0.0
702,57.0,3.0,20.0,7.0,0.0
703,45.0,34.0,20.0,8.0,0.0
704,52.0,4.0,30.0,7.0,0.0
705,40.0,20.0,30.0,8.0,0.0
706,57.0,3.0,20.0,7.0,0.0
707,45.0,33.0,20.0,8.0,0.0
708,53.0,6.0,30.0,7.0,0.0
709,41.0,18.0,30.0,8.0,0.0
710,57.0,2.0,20.0,7.0,0.0
711,45.0,34.0,20.0,8.0,0.0
712,57.0,6.0,30.0,7.0,0.0
713,45.0,17.0,30.0,8.0,0.0
714,60.0,4.0,20.0,7.0,0.0
715,48.0,33.0,20.0,8.0,0.0
716,60.0,6.0,30.0,7.0,0.0
717,48.0,16.0,30.0,8.0,0.0
718,63.0,5.0,20.0,7.0,0.0
719,51.0,35.0,20.0,8.0,0.0
720,63.0,4.0,30.0,7.0,0.0
721,51.0,18.0,30.0,8.0,0.0
722,69.0,2.0,20.0,7.0,0.0
723,57.0,34.0,20.0,8.0,0.0
724,69.0,5.0,30.0,7.0,0.0
725,57.0,17.0,30.0,8.0,0.0
726,72.0,4.0,20.0,7.0,0.0
727,60.0,36.0,20.0,8.0,0.0
728,72.0,3.0,30.0,7.0,0.0
729,60.0,17.0,30.0,8.0,0.0
730,75.0,4.0,20.0,7.0,0.0
731,63.0,34.0,20.0,8.0,0.0
732,75.0,4.0,30.0,7.0,0.0
733,63.0,18.0,30.0,8.0,0.0
734,81.0,4.0,20.0,7.0,0.0
735,69.0,34.0,20.0,8.0,0.0
736,81.0,6.0,30.0,7.0,0.0
737,69.0,16.0,30.0,8.0,0.0
738,84.0,4.0,20.0,7.0,0.0
739,72.0,34.0,20.0,8.0,0.0
740,84.0,5.0,30.0,7.0,0.0
741,72.0,15.0,30.0,8.0,0.0
742,87.0,5.0,20.0,7.0,0.0
743,75.0,17.0,20.0,8.0,0.0
744,85.0,4.0,20.0,7.0,0.0
745,73.0,14.0,20.0,8.0,0.0
746,84.0,4.0,20.0,7.0,0.0
747,72.0,17.0,20.0,8.0,0.0
748,82.0,5.0,20.0,7.0,0.0
749,70.0,16.0,20.0,8.0,0.0
750,81.0,4.0,20.0,7.0,0.0
751,69.0,16.0,20.0,8.0,0.0
752,78.0,4.0,20.0,7.0,0.0
753,66.0,14.0,20.0,8.0,0.0
754,77.0,6.0,20.0,7.0,0.0
755,65.0,15.0,20.0,8.0,0.0
756,75.0,3.0,20.0,7.0,0.0
757,63.0,18.0,20.0,8.0,0.0
758,73.0,2.0,20.0,7.0,0.0
759,61.0,17.0,20.0,8.0,0.0
760,72.0,5.0,20.0,7.0,0.0
761,60.0,14.0,20.0,8.0,0.0
762,70.0,6.0,20.0,7.0,0.0
763,58.0,15.0,20.0,8.0,0.0
764,69.0,5.0,20.0,7.0,0.0
765,57.0,12.0,20.0,8.0,0.0
766,66.0,3.0,15.0,7.0,0.0
767,54.0,11.0,15.0,8.0,0.0
768,65.0,6.0,15.0,7.0,0.0
769,53.0,11.0,15.0,8.0,0.0
770,63.0,4.0,15.0,7.0,0.0
771,51.0,11.0,15.0,8.0,0.0
772,61.0,4.0,15.0,7.0,0.0
773,49.0,13.0,15.0,8.0,0.0
774,60.0,4.0,15.0,7.0,0.0
775,48.0,13.0,15.0,8.0,0.0
776,58.0,3.0,15.0,7.0,0.0
777,46.0,13.0,15.0,8.0,0.0
778,57.0,4.0,15.0,7.0,0.0
779,45.0,12.0,15.0,8.0,0.0
780,54.0,4.0,15.0,7.0,0.0
781,42.0,12.0,15.0,8.0,0.0
782,53.0,4.0,15.0,7.0,0.0
783,41.0,13.0,15.0,8.0,0.0
784,51.0,3.0,15.0,7.0,0.0
785,39.0,13.0,15.0,8.0,0.0
786,49.0,3.0,15.0,7.0,0.0
787,37.0,12.0,15.0,8.0,0.0
788,48.0,5.0,15.0,7.0,0.0
789,36.0,12.0,15.0,8.0,0.0
790,46.0,4.0,15.0,7.0,0.0
791,34.0,12.0,15.0,8.0,0.0
792,45.0,4.0,15.0,7.0,0.0
793,33.0,11.0,15.0,8.0,0.0
794,42.0,4.0,15.0,7.0,0.0
795,30.0,22.0,15.0,8.0,0.0
796,53.0,4.0,30.0,7.0,0.0
797,41.0,26.0,30.0,7.0,0.0
798,29.0,0.0,20.0,8.0,0.0
799,53.0,1.0,60.0,12.0,0.0
800,41.0,5.0,60.0,13.0,0.0
801,29.0,13.0,60.0,14.0,0.0
802,51.0,10.0,20.0,8.0,0.0
803,58.0,8.0,120.0,7.0,0.0
804,49.0,30.0,20.0,8.0,0.0
805,48.0,30.0,20.0,8.0,0.0
806,53.0,23.0,30.0,4.0,0.0
807,49.0,8.0,20.0,8.0,0.0
808,53.0,1.0,60.0,12.0,0.0
809,49.0,5.0,60.0,13.0,0.0
810,37.0,3.0,60.0,14.0,0.0
811,53.0,2.0,20.0,8.0,0.0
812,53.0,12.0,30.0,4.0,0.0
813,51.0,3.0,20.0,8.0,0.0
814,51.0,1.0,60.0,12.0,0.0
815,60.0,7.0,15.0,7.0,0.0
816,48.0,5.0,60.0,13.0,0.0
817,36.0,13.0,60.0,14.0,0.0
818,61.0,4.0,15.0,7.0,0.0
819,60.0,4.0,15.0,7.0,0.0
820,58.0,10.0,15.0,7.0,0.0
821,48.0,5.0,20.0,8.0,0.0
822,60.0,6.0,15.0,7.0,0.0
823,61.0,7.0,30.0,7.0,0.0
824,53.0,22.0,30.0,4.0,0.0
825,46.0,1.0,20.0,8.0,0.0
826,49.0,1.0,60.0,12.0,0.0
827,46.0,5.0,60.0,13.0,0.0
828,34.0,14.0,60.0,14.0,0.0
829,49.0,11.0,20.0,8.0,0.0
830,65.0,1.0,30.0,7.0,0.0
831,60.0,4.0,30.0,7.0,0.0
832,53.0,23.0,30.0,4.0,0.0
833,48.0,2.0,20.0,8.0,0.0
834,48.0,1.0,60.0,12.0,0.0
835,44.0,5.0,60.0,13.0,0.0
836,32.0,13.0,60.0,14.0,0.0
837,44.0,10.0,20.0,8.0,0.0
838,70.0,2.0,90.0,7.0,0.0
839,61.0,3.0,90.0,7.0,0.0
840,58.0,21.0,30.0,4.0,0.0
841,42.0,8.0,20.0,8.0,0.0
842,46.0,1.0,60.0,12.0,0.0
843,42.0,5.0,60.0,13.0,0.0
844,30.0,9.0,60.0,14.0,0.0
845,46.0,12.0,20.0,8.0,0.0
846,41.0,26.0,20.0,8.0,0.0
847,41.0,5.0,60.0,13.0,0.0
848,29.0,14.0,60.0,14.0,0.0
849,70.0,2.0,30.0,7.0,0.0
850,61.0,12.0,30.0,7.0,0.0
851,46.0,1.0,20.0,8.0,0.0
852,69.0,0.0,30.0,7.0,0.0
853,60.0,5.0,30.0,7.0,0.0
854,46.0,18.0,30.0,4.0,0.0
855,58.0,0.0,30.0,4.0,0.0
856,39.0,2.0,20.0,8.0,0.0
857,58.0,1.0,60.0,12.0,0.0
858,39.0,4.0,60.0,13.0,0.0
859,27.0,3.0,60.0,14.0,0.0
860,70.0,2.0,30.0,7.0,0.0
861,61.0,1.0,30.0,7.0,0.0
862,46.0,12.0,20.0,8.0,0.0
863,72.0,1.0,15.0,7.0,0.0
864,63.0,11.0,15.0,7.0,0.0
865,46.0,10.0,30.0,4.0,0.0
866,58.0,0.0,30.0,4.0,0.0
867,37.0,7.0,20.0,8.0,0.0
868,58.0,1.0,60.0,12.0,0.0
869,37.0,5.0,60.0,13.0,0.0
870,25.0,12.0,60.0,14.0,0.0
871,73.0,1.0,15.0,7.0,0.0
872,65.0,10.0,15.0,7.0,0.0
873,46.0,12.0,20.0,8.0,0.0
874,69.0,2.0,60.0,7.0,0.0
875,60.0,8.0,60.0,7.0,0.0
876,41.0,9.0,20.0,8.0,0.0
877,53.0,0.0,30.0,4.0,0.0
878,41.0,21.0,30.0,4.0,0.0
879,53.0,1.0,60.0,12.0,0.0
880,41.0,5.0,60.0,13.0,0.0
881,29.0,12.0,60.0,14.0,0.0
882,53.0,2.0,20.0,8.0,0.0
883,54.0,31.0,20.0,8.0,0.0
884,70.0,3.0,30.0,7.0,0.0
885,61.0,24.0,30.0,7.0,0.0
886,53.0,2.0,20.0,8.0,0.0
887,69.0,1.0,30.0,7.0,0.0
888,60.0,4.0,30.0,7.0,0.0
889,37.0,4.0,20.0,8.0,0.0
890,65.0,18.0,30.0,4.0,0.0
891,53.0,0.0,30.0,4.0,0.0
892,37.0,4.0,60.0,13.0,0.0
893,25.0,1.0,60.0,14.0,0.0
894,70.0,2.0,30.0,7.0,0.0
895,61.0,2.0,30.0,7.0,0.0
896,49.0,11.0,20.0,8.0,0.0
897,72.0,1.0,15.0,7.0,0.0
898,63.0,12.0,15.0,7.0,0.0
899,36.0,8.0,20.0,8.0,0.0
900,65.0,9.0,30.0,4.0,0.0
901,53.0,0.0,30.0,4.0,0.0
902,65.0,1.0,15.0,12.0,0.0
903,34.0,5.0,60.0,13.0,0.0
904,22.0,13.0,60.0,14.0,0.0
905,73.0,2.0,15.0,7.0,0.0
906,65.0,11.0,15.0,7.0,0.0
907,48.0,11.0,20.0,8.0,0.0
908,69.0,2.0,60.0,7.0,0.0
909,60.0,7.0,60.0,7.0,0.0
910,41.0,22.0,30.0,4.0,0.0
911,53.0,0.0,30.0,4.0,0.0
912,41.0,8.0,20.0,8.0,0.0
913,41.0,5.0,60.0,13.0,0.0
914,29.0,14.0,60.0,14.0,0.0
915,53.0,2.0,20.0,8.0,0.0
916,51.0,13.0,20.0,8.0,0.0
917,65.0,5.0,60.0,12.0,0.0
918,53.0,1.0,15.0,12.0,0.0
919,53.0,1.0,15.0,10.0,0.0
920,65.0,1.0,15.0,0.0,0.0
921,53.0,2.0,15.0,11.0,0.0
922,65.0,2.0,15.0,1.0,0.0
923,48.0,3.0,20.0,8.0,0.0
924,65.0,4.0,15.0,2.0,0.0
925,55.0,1.0,15.0,10.0,0.0
926,67.0,1.0,15.0,0.0,0.0
927,55.0,2.0,15.0,11.0,0.0
928,53.0,0.0,15.0,3.0,0.0
929,67.0,2.0,15.0,1.0,0.0
930,67.0,1.0,15.0,2.0,0.0
931,57.0,1.0,15.0,10.0,0.0
932,69.0,1.0,15.0,0.0,0.0
933,55.0,2.0,15.0,3.0,0.0
934,57.0,0.0,15.0,11.0,0.0
935,69.0,2.0,15.0,1.0,0.0
936,69.0,1.0,15.0,2.0,0.0
937,58.0,1.0,30.0,10.0,0.0
938,70.0,1.0,30.0,0.0,0.0
939,58.0,0.0,30.0,11.0,0.0
940,57.0,16.0,15.0,3.0,0.0
941,58.0,0.0,60.0,6.0,0.0
942,70.0,0.0,60.0,6.0,0.0
943,70.0,2.0,30.0,1.0,0.0
944,46.0,24.0,360.0,4.0,0.0
945,58.0,0.0,360.0,4.0,0.0
946,46.0,2.0,60.0,8.0,0.0
947,70.0,22.0,30.0,2.0,0.0
948,53.0,8.0,60.0,12.0,0.0
949,64.0,0.0,60.0,12.0,0.0
950,58.0,2.0,20.0,13.0,0.0
951,58.0,1.0,20.0,3.0,0.0
952,46.0,1.0,20.0,14.0,0.0
953,46.0,13.0,60.0,15.0,0.0
954,56.0,4.0,20.0,13.0,0.0
955,56.0,1.0,20.0,3.0,0.0
956,44.0,2.0,20.0,14.0,0.0
957,63.0,0.0,120.0,10.0,0.0
958,75.0,1.0,120.0,0.0,0.0
959,63.0,2.0,120.0,11.0,0.0
960,63.0,0.0,120.0,1.0,0.0
961,75.0,2.0,120.0,1.0,0.0
962,63.0,7.0,120.0,2.0,0.0
963,70.0,0.0,120.0,2.0,0.0
964,54.0,0.0,90.0,12.0,0.0
965,58.0,1.0,90.0,12.0,0.0
966,54.0,4.0,20.0,13.0,0.0
967,54.0,1.0,20.0,3.0,0.0
968,42.0,25.0,20.0,14.0,0.0
969,53.0,4.0,20.0,13.0,0.0
970,53.0,1.0,20.0,3.0,0.0
971,41.0,24.0,20.0,14.0,0.0
972,70.0,0.0,30.0,6.0,0.0
973,58.0,0.0,30.0,6.0,0.0
974,54.0,4.0,20.0,13.0,0.0
975,54.0,1.0,20.0,3.0,0.0
976,42.0,12.0,20.0,14.0,0.0
977,46.0,1.0,30.0,15.0,0.0
978,46.0,1.0,30.0,12.0,0.0
979,58.0,4.0,20.0,13.0,0.0
980,58.0,1.0,20.0,3.0,0.0
981,46.0,4.0,20.0,14.0,0.0
982,66.0,1.0,15.0,10.0,0.0
983,78.0,1.0,15.0,0.0,0.0
984,66.0,2.0,15.0,11.0,0.0
985,58.0,0.0,30.0,6.0,0.0
986,70.0,1.0,30.0,6.0,0.0
987,78.0,2.0,15.0,1.0,0.0
988,66.0,0.0,15.0,1.0,0.0
989,66.0,1.0,15.0,2.0,0.0
990,75.0,0.0,15.0,2.0,0.0
991,65.0,1.0,15.0,10.0,0.0
992,58.0,7.0,30.0,12.0,0.0
993,77.0,1.0,15.0,0.0,0.0
994,56.0,1.0,20.0,13.0,0.0
995,65.0,2.0,15.0,11.0,0.0
996,77.0,0.0,15.0,1.0,0.0
997,65.0,2.0,15.0,1.0,0.0
998,56.0,1.0,20.0,3.0,0.0
999,44.0,0.0,20.0,14.0,0.0
1000,65.0,0.0,15.0,2.0,0.0
1001,74.0,2.0,15.0,2.0,0.0
1002,46.0,1.0,30.0,15.0,0.0
1003,66.0,1.0,15.0,10.0,0.0
1004,78.0,1.0,15.0,0.0,0.0
1005,66.0,2.0,15.0,11.0,0.0
1006,66.0,0.0,15.0,1.0,0.0
1007,78.0,1.0,15.0,1.0,0.0
1008,66.0,1.0,15.0,2.0,0.0
1009,75.0,0.0,15.0,2.0,0.0
1010,65.0,1.0,15.0,10.0,0.0
1011,77.0,1.0,15.0,0.0,0.0
1012,65.0,0.0,15.0,11.0,0.0
1013,65.0,2.0,15.0,1.0,0.0
1014,77.0,0.0,15.0,1.0,0.0
1015,74.0,1.0,15.0,2.0,0.0
1016,65.0,0.0,15.0,2.0,0.0
1017,63.0,0.0,15.0,10.0,0.0
1018,75.0,1.0,15.0,0.0,0.0
1019,63.0,2.0,15.0,11.0,0.0
1020,63.0,0.0,15.0,1.0,0.0
1021,75.0,2.0,15.0,1.0,0.0
1022,66.0,1.0,15.0,2.0,0.0
1023,75.0,0.0,15.0,2.0,0.0
1024,46.0,21.0,30.0,12.0,0.0
1025,53.0,1.0,20.0,13.0,0.0
1026,54.0,1.0,20.0,3.0,0.0
1027,74.0,0.0,15.0,2.0,0.0
1028,41.0,1.0,20.0,14.0,0.0
1029,65.0,7.0,15.0,2.0,0.0
1030,65.0,1.0,15.0,10.0,0.0
1031,77.0,1.0,15.0,0.0,0.0
1032,65.0,0.0,15.0,11.0,0.0
1033,77.0,0.0,15.0,1.0,0.0
1034,65.0,2.0,15.0,1.0,0.0
1035,66.0,0.0,15.0,2.0,0.0
1036,75.0,1.0,15.0,2.0,0.0
1037,65.0,0.0,15.0,2.0,0.0
1038,74.0,1.0,15.0,2.0,0.0
1039,66.0,1.0,30.0,10.0,0.0
1040,78.0,1.0,30.0,0.0,0.0
1041,66.0,0.0,30.0,11.0,0.0
1042,70.0,0.0,30.0,6.0,0.0
1043,58.0,0.0,30.0,6.0,0.0
1044,66.0,2.0,30.0,1.0,0.0
1045,78.0,0.0,30.0,1.0,0.0
1046,66.0,1.0,30.0,2.0,0.0
1047,75.0,0.0,30.0,2.0,0.0
1048,58.0,8.0,30.0,12.0,0.0
1049,51.0,2.0,20.0,13.0,0.0
1050,51.0,1.0,20.0,3.0,0.0
1051,39.0,1.0,20.0,14.0,0.0
1052,46.0,13.0,30.0,15.0,0.0
1053,54.0,4.0,20.0,13.0,0.0
1054,54.0,1.0,20.0,3.0,0.0
1055,42.0,25.0,20.0,14.0,0.0
1056,70.0,1.0,30.0,10.0,0.0
1057,82.0,1.0,30.0,0.0,0.0
1058,70.0,1.0,30.0,11.0,0.0
1059,58.0,0.0,30.0,6.0,0.0
1060,70.0,0.0,30.0,6.0,0.0
1061,70.0,2.0,30.0,1.0,0.0
1062,77.0,0.0,30.0,2.0,0.0
1063,70.0,1.0,30.0,2.0,0.0
1064,46.0,8.0,30.0,12.0,0.0
1065,53.0,2.0,20.0,13.0,0.0
1066,53.0,0.0,20.0,3.0,0.0
1067,41.0,1.0,20.0,14.0,0.0
1068,46.0,13.0,30.0,15.0,0.0
1069,49.0,4.0,20.0,13.0,0.0
1070,49.0,1.0,20.0,3.0,0.0
1071,37.0,1.0,20.0,14.0,0.0
1072,75.0,1.0,60.0,10.0,0.0
1073,87.0,3.0,60.0,0.0,0.0
1074,75.0,6.0,60.0,11.0,0.0
1075,75.0,12.0,30.0,6.0,0.0
1076,63.0,1.0,120.0,4.0,0.0
1077,75.0,0.0,60.0,1.0,0.0
1078,66.0,2.0,60.0,1.0,0.0
1079,66.0,7.0,60.0,2.0,0.0
1080,75.0,0.0,60.0,2.0,0.0
1081,47.0,4.0,20.0,13.0,0.0
1082,47.0,1.0,20.0,3.0,0.0
1083,35.0,0.0,20.0,14.0,0.0
1084,46.0,7.0,30.0,15.0,0.0
1085,47.0,8.0,30.0,12.0,0.0
1086,51.0,4.0,20.0,13.0,0.0
1087,51.0,1.0,20.0,3.0,0.0
1088,39.0,4.0,20.0,14.0,0.0
1089,51.0,17.0,30.0,12.0,0.0
1090,46.0,4.0,20.0,13.0,0.0
1091,46.0,1.0,20.0,3.0,0.0
1092,34.0,4.0,20.0,14.0,0.0
1093,73.0,1.0,30.0,10.0,0.0
1094,85.0,2.0,30.0,0.0,0.0
1095,61.0,1.0,30.0,11.0,0.0
1096,73.0,0.0,30.0,1.0,0.0
1097,66.0,2.0,30.0,1.0,0.0
1098,66.0,1.0,30.0,2.0,0.0
1099,73.0,0.0,30.0,2.0,0.0
1100,46.0,5.0,30.0,12.0,0.0
1101,51.0,1.0,20.0,13.0,0.0
1102,51.0,0.0,20.0,3.0,0.0
1103,39.0,4.0,20.0,14.0,0.0
1104,72.0,1.0,30.0,10.0,0.0
1105,78.0,3.0,90.0,0.0,0.0
1106,84.0,1.0,30.0,0.0,0.0
1107,60.0,5.0,15.0,11.0,0.0
1108,66.0,1.0,90.0,1.0,0.0
1109,72.0,2.0,30.0,1.0,0.0
1110,72.0,2.0,30.0,2.0,0.0
1111,66.0,5.0,90.0,2.0,0.0
1112,45.0,10.0,15.0,12.0,0.0
1113,45.0,4.0,30.0,13.0,0.0
1114,45.0,1.0,30.0,3.0,0.0
1115,33.0,4.0,30.0,14.0,0.0
1116,60.0,3.0,15.0,11.0,0.0
1117,45.0,2.0,15.0,12.0,0.0
1118,73.0,2.0,30.0,10.0,0.0
1119,85.0,3.0,30.0,0.0,0.0
1120,60.0,0.0,15.0,11.0,0.0
1121,73.0,1.0,30.0,1.0,0.0
1122,73.0,9.0,30.0,2.0,0.0
1123,45.0,8.0,15.0,12.0,0.0
1124,60.0,1.0,15.0,11.0,0.0
1125,45.0,1.0,15.0,12.0,0.0
1126,75.0,1.0,15.0,10.0,0.0
1127,87.0,1.0,15.0,0.0,0.0
1128,69.0,3.0,15.0,11.0,0.0
1129,75.0,2.0,15.0,1.0,0.0
1130,75.0,6.0,15.0,2.0,0.0
1131,57.0,2.0,15.0,12.0,0.0
1132,41.0,4.0,30.0,13.0,0.0
1133,60.0,0.0,30.0,3.0,0.0
1134,57.0,0.0,30.0,3.0,0.0
1135,29.0,2.0,30.0,14.0,0.0
1136,69.0,1.0,15.0,11.0,0.0
1137,57.0,1.0,15.0,12.0,0.0
1138,77.0,1.0,15.0,10.0,0.0
1139,89.0,0.0,15.0,0.0,0.0
1140,77.0,1.0,15.0,0.0,0.0
1141,69.0,1.0,15.0,11.0,0.0
1142,65.0,0.0,15.0,1.0,0.0
1143,77.0,2.0,15.0,1.0,0.0
1144,77.0,6.0,15.0,2.0,0.0
1145,65.0,0.0,15.0,2.0,0.0
1146,57.0,2.0,15.0,12.0,0.0
1147,69.0,5.0,15.0,11.0,0.0
1148,57.0,10.0,15.0,12.0,0.0
1149,70.0,2.0,30.0,10.0,0.0
1150,82.0,3.0,90.0,0.0,0.0
1151,70.0,5.0,15.0,11.0,0.0
1152,70.0,1.0,90.0,1.0,0.0
1153,70.0,5.0,90.0,2.0,0.0
1154,58.0,10.0,15.0,12.0,0.0
1155,42.0,4.0,30.0,13.0,0.0
1156,58.0,1.0,30.0,3.0,0.0
1157,30.0,4.0,30.0,14.0,0.0
1158,70.0,3.0,15.0,11.0,0.0
1159,58.0,6.0,15.0,12.0,0.0
1160,72.0,2.0,30.0,10.0,0.0
1161,84.0,3.0,30.0,0.0,0.0
1162,70.0,0.0,15.0,11.0,0.0
1163,72.0,1.0,30.0,1.0,0.0
1164,72.0,9.0,30.0,2.0,0.0
1165,58.0,8.0,15.0,12.0,0.0
1166,70.0,1.0,15.0,11.0,0.0
1167,58.0,1.0,15.0,12.0,0.0
1168,73.0,1.0,15.0,10.0,0.0
1169,85.0,1.0,15.0,0.0,0.0
1170,66.0,3.0,15.0,11.0,0.0
1171,73.0,2.0,15.0,1.0,0.0
1172,73.0,6.0,15.0,2.0,0.0
1173,54.0,2.0,15.0,12.0,0.0
1174,39.0,4.0,30.0,13.0,0.0
1175,54.0,0.0,30.0,3.0,0.0
1176,51.0,1.0,30.0,3.0,0.0
1177,27.0,2.0,30.0,14.0,0.0
1178,66.0,1.0,15.0,11.0,0.0
1179,54.0,1.0,15.0,12.0,0.0
1180,75.0,1.0,15.0,10.0,0.0
1181,87.0,1.0,15.0,0.0,0.0
1182,78.0,0.0,15.0,0.0,0.0
1183,66.0,0.0,15.0,11.0,0.0
1184,66.0,2.0,15.0,1.0,0.0
1185,75.0,0.0,15.0,1.0,0.0
1186,66.0,6.0,15.0,2.0,0.0
1187,75.0,0.0,15.0,2.0,0.0
1188,54.0,2.0,15.0,12.0,0.0
1189,66.0,5.0,15.0,11.0,0.0
1190,54.0,10.0,15.0,12.0,0.0
1191,68.0,2.0,30.0,10.0,0.0
1192,80.0,0.0,90.0,0.0,0.0
1193,60.0,5.0,15.0,11.0,0.0
1194,53.0,1.0,90.0,6.0,0.0
1195,65.0,0.0,90.0,6.0,0.0
1196,53.0,2.0,90.0,4.0,0.0
1197,60.0,0.0,90.0,4.0,0.0
1198,68.0,1.0,90.0,1.0,0.0
1199,68.0,4.0,90.0,2.0,0.0
1200,48.0,10.0,15.0,12.0,0.0
1201,41.0,0.0,90.0,13.0,0.0
1202,53.0,0.0,90.0,3.0,0.0
1203,60.0,1.0,90.0,3.0,0.0
1204,29.0,2.0,90.0,14.0,0.0
1205,41.0,2.0,90.0,15.0,0.0
1206,60.0,3.0,15.0,11.0,0.0
1207,48.0,10.0,15.0,12.0,0.0
1208,70.0,2.0,30.0,10.0,0.0
1209,82.0,3.0,30.0,0.0,0.0
1210,60.0,5.0,15.0,11.0,0.0
1211,70.0,1.0,30.0,1.0,0.0
1212,70.0,9.0,30.0,2.0,0.0
1213,48.0,8.0,15.0,12.0,0.0
1214,60.0,1.0,15.0,11.0,0.0
1215,48.0,1.0,15.0,12.0,0.0
1216,72.0,1.0,15.0,10.0,0.0
1217,84.0,1.0,15.0,0.0,0.0
1218,68.0,3.0,15.0,11.0,0.0
1219,72.0,2.0,15.0,1.0,0.0
1220,72.0,6.0,15.0,2.0,0.0
1221,56.0,2.0,15.0,12.0,0.0
1222,68.0,1.0,15.0,11.0,0.0
1223,56.0,1.0,15.0,12.0,0.0
1224,73.0,1.0,15.0,10.0,0.0
1225,85.0,0.0,15.0,0.0,0.0
1226,80.0,1.0,15.0,0.0,0.0
1227,68.0,3.0,15.0,11.0,0.0
1228,53.0,0.0,30.0,6.0,0.0
1229,65.0,1.0,30.0,6.0,0.0
1230,73.0,2.0,15.0,1.0,0.0
1231,53.0,3.0,30.0,4.0,0.0
1232,60.0,0.0,30.0,4.0,0.0
1233,68.0,0.0,15.0,1.0,0.0
1234,73.0,6.0,15.0,2.0,0.0
1235,68.0,0.0,15.0,2.0,0.0
1236,56.0,2.0,15.0,12.0,0.0
1237,41.0,4.0,30.0,13.0,0.0
1238,53.0,0.0,30.0,3.0,0.0
1239,56.0,1.0,30.0,3.0,0.0
1240,29.0,2.0,30.0,14.0,0.0
1241,41.0,2.0,30.0,15.0,0.0
1242,68.0,1.0,15.0,11.0,0.0
1243,56.0,1.0,15.0,12.0,0.0
1244,66.0,1.0,60.0,10.0,0.0
1245,82.0,0.0,60.0,0.0,0.0
1246,78.0,1.0,60.0,0.0,0.0
1247,58.0,5.0,15.0,11.0,0.0
1248,70.0,1.0,60.0,6.0,0.0
1249,58.0,0.0,60.0,6.0,0.0
1250,66.0,0.0,60.0,1.0,0.0
1251,70.0,2.0,60.0,1.0,0.0
1252,58.0,0.0,60.0,4.0,0.0
1253,70.0,0.0,60.0,2.0,0.0
1254,66.0,2.0,60.0,2.0,0.0
1255,46.0,10.0,15.0,12.0,0.0
1256,42.0,4.0,60.0,13.0,0.0
1257,54.0,0.0,60.0,3.0,0.0
1258,30.0,2.0,60.0,14.0,0.0
1259,46.0,2.0,60.0,15.0,0.0
1260,58.0,5.0,15.0,11.0,0.0
1261,46.0,10.0,15.0,12.0,0.0
1262,60.0,5.0,15.0,11.0,0.0
1263,48.0,10.0,15.0,12.0,0.0
1264,60.0,3.0,15.0,11.0,0.0
1265,48.0,1.0,15.0,12.0,0.0
1266,61.0,1.0,15.0,11.0,0.0
1267,49.0,10.0,15.0,12.0,0.0
1268,61.0,5.0,15.0,11.0,0.0
1269,49.0,10.0,15.0,12.0,0.0
1270,70.0,1.0,30.0,10.0,0.0
1271,82.0,1.0,30.0,0.0,0.0
1272,63.0,5.0,15.0,11.0,0.0
1273,66.0,0.0,30.0,1.0,0.0
1274,70.0,2.0,30.0,1.0,0.0
1275,66.0,6.0,30.0,2.0,0.0
1276,70.0,0.0,30.0,2.0,0.0
1277,51.0,10.0,15.0,12.0,0.0
1278,63.0,3.0,15.0,11.0,0.0
1279,51.0,2.0,15.0,12.0,0.0
1280,68.0,2.0,30.0,10.0,0.0
1281,80.0,3.0,90.0,0.0,0.0
1282,56.0,5.0,15.0,11.0,0.0
1283,68.0,1.0,90.0,1.0,0.0
1284,68.0,5.0,90.0,2.0,0.0
1285,48.0,10.0,15.0,12.0,0.0
1286,41.0,4.0,30.0,13.0,0.0
1287,41.0,1.0,30.0,3.0,0.0
1288,53.0,0.0,30.0,3.0,0.0
1289,29.0,4.0,30.0,14.0,0.0
1290,56.0,3.0,15.0,11.0,0.0
1291,48.0,6.0,15.0,12.0,0.0
1292,70.0,2.0,30.0,10.0,0.0
1293,82.0,3.0,30.0,0.0,0.0
1294,56.0,0.0,15.0,11.0,0.0
1295,70.0,1.0,30.0,1.0,0.0
1296,70.0,9.0,30.0,2.0,0.0
1297,48.0,8.0,15.0,12.0,0.0
1298,56.0,1.0,15.0,11.0,0.0
1299,48.0,1.0,15.0,12.0,0.0
1300,72.0,1.0,15.0,10.0,0.0
1301,84.0,1.0,15.0,0.0,0.0
1302,65.0,3.0,15.0,11.0,0.0
1303,72.0,2.0,15.0,1.0,0.0
1304,72.0,6.0,15.0,2.0,0.0
1305,53.0,2.0,15.0,12.0,0.0
1306,37.0,4.0,30.0,13.0,0.0
1307,53.0,0.0,30.0,3.0,0.0
1308,56.0,0.0,30.0,3.0,0.0
1309,25.0,2.0,30.0,14.0,0.0
1310,65.0,1.0,15.0,11.0,0.0
1311,53.0,1.0,15.0,12.0,0.0
1312,73.0,1.0,15.0,10.0,0.0
1313,77.0,0.0,15.0,0.0,0.0
1314,85.0,1.0,15.0,0.0,0.0
1315,65.0,1.0,15.0,11.0,0.0
1316,73.0,0.0,15.0,1.0,0.0
1317,65.0,2.0,15.0,1.0,0.0
1318,73.0,0.0,15.0,2.0,0.0
1319,65.0,6.0,15.0,2.0,0.0
1320,53.0,2.0,15.0,12.0,0.0
1321,65.0,5.0,15.0,11.0,0.0
1322,53.0,10.0,15.0,12.0,0.0
1323,66.0,2.0,30.0,10.0,0.0
1324,78.0,3.0,90.0,0.0,0.0
1325,66.0,5.0,15.0,11.0,0.0
1326,66.0,1.0,90.0,1.0,0.0
1327,66.0,5.0,90.0,2.0,0.0
1328,54.0,10.0,15.0,12.0,0.0
1329,39.0,4.0,30.0,13.0,0.0
1330,54.0,1.0,30.0,3.0,0.0
1331,51.0,0.0,30.0,3.0,0.0
1332,27.0,4.0,30.0,14.0,0.0
1333,66.0,3.0,15.0,11.0,0.0
1334,54.0,6.0,15.0,12.0,0.0
1335,68.0,2.0,30.0,10.0,0.0
1336,80.0,3.0,30.0,0.0,0.0
1337,66.0,0.0,15.0,11.0,0.0
1338,68.0,1.0,30.0,1.0,0.0
1339,68.0,9.0,30.0,2.0,0.0
1340,54.0,8.0,15.0,12.0,0.0
1341,66.0,1.0,15.0,11.0,0.0
1342,54.0,1.0,15.0,12.0,0.0
1343,70.0,1.0,15.0,10.0,0.0
1344,82.0,1.0,15.0,0.0,0.0
1345,63.0,3.0,15.0,11.0,0.0
1346,70.0,2.0,15.0,1.0,0.0
1347,70.0,6.0,15.0,2.0,0.0
1348,51.0,2.0,15.0,12.0,0.0
1349,36.0,4.0,30.0,13.0,0.0
1350,51.0,0.0,30.0,3.0,0.0
1351,24.0,2.0,30.0,14.0,0.0
1352,63.0,1.0,15.0,11.0,0.0
1353,51.0,1.0,15.0,12.0,0.0
1354,72.0,1.0,15.0,10.0,0.0
1355,84.0,1.0,15.0,0.0,0.0
1356,75.0,0.0,15.0,0.0,0.0
1357,63.0,1.0,15.0,11.0,0.0
1358,63.0,2.0,15.0,1.0,0.0
1359,72.0,0.0,15.0,1.0,0.0
1360,63.0,6.0,15.0,2.0,0.0
1361,72.0,0.0,15.0,2.0,0.0
1362,51.0,2.0,15.0,12.0,0.0
1363,63.0,5.0,15.0,11.0,0.0
1364,51.0,10.0,15.0,12.0,0.0
1365,65.0,2.0,30.0,10.0,0.0
1366,77.0,3.0,90.0,0.0,0.0
1367,56.0,5.0,15.0,11.0,0.0
1368,65.0,1.0,90.0,1.0,0.0
1369,65.0,4.0,90.0,2.0,0.0
1370,49.0,0.0,60.0,5.0,0.0
1371,56.0,6.0,60.0,5.0,0.0
1372,44.0,10.0,15.0,12.0,0.0
1373,37.0,0.0,90.0,13.0,0.0
1374,49.0,1.0,90.0,3.0,0.0
1375,56.0,0.0,90.0,3.0,0.0
1376,25.0,2.0,90.0,14.0,0.0
1377,41.0,2.0,90.0,15.0,0.0
1378,56.0,3.0,15.0,11.0,0.0
1379,44.0,10.0,15.0,12.0,0.0
1380,66.0,2.0,30.0,10.0,0.0
1381,78.0,3.0,30.0,0.0,0.0
1382,56.0,5.0,15.0,11.0,0.0
1383,66.0,1.0,30.0,1.0,0.0
1384,66.0,9.0,30.0,2.0,0.0
1385,44.0,8.0,15.0,12.0,0.0
1386,56.0,1.0,15.0,11.0,0.0
1387,44.0,1.0,15.0,12.0,0.0
1388,68.0,1.0,15.0,10.0,0.0
1389,80.0,1.0,15.0,0.0,0.0
1390,65.0,3.0,15.0,11.0,0.0
1391,68.0,2.0,15.0,1.0,0.0
1392,68.0,0.0,15.0,2.0,0.0
1393,53.0,2.0,15.0,12.0,0.0
1394,65.0,1.0,15.0,11.0,0.0
1395,53.0,1.0,15.0,12.0,0.0
1396,70.0,1.0,15.0,10.0,0.0
1397,82.0,0.0,15.0,0.0,0.0
1398,77.0,1.0,15.0,0.0,0.0
1399,65.0,3.0,15.0,11.0,0.0
1400,65.0,0.0,15.0,1.0,0.0
1401,70.0,2.0,15.0,1.0,0.0
1402,65.0,6.0,15.0,2.0,0.0
1403,49.0,0.0,30.0,5.0,0.0
1404,70.0,0.0,15.0,2.0,0.0
1405,56.0,1.0,30.0,5.0,0.0
1406,53.0,2.0,15.0,12.0,0.0
1407,37.0,4.0,30.0,13.0,0.0
1408,49.0,0.0,30.0,3.0,0.0
1409,53.0,0.0,30.0,3.0,0.0
1410,25.0,2.0,30.0,14.0,0.0
1411,41.0,2.0,30.0,15.0,0.0
1412,65.0,4.0,15.0,11.0,0.0
1413,53.0,1.0,15.0,12.0,0.0
1414,63.0,1.0,60.0,10.0,0.0
1415,78.0,1.0,60.0,0.0,0.0
1416,75.0,0.0,60.0,0.0,0.0
1417,54.0,1.0,15.0,11.0,0.0
1418,63.0,0.0,60.0,1.0,0.0
1419,66.0,2.0,60.0,1.0,0.0
1420,63.0,0.0,60.0,2.0,0.0
1421,54.0,0.0,60.0,5.0,0.0
1422,46.0,2.0,60.0,5.0,0.0
1423,66.0,0.0,60.0,2.0,0.0
1424,54.0,15.0,15.0,12.0,0.0
1425,39.0,4.0,60.0,13.0,0.0
1426,54.0,0.0,60.0,3.0,0.0
1427,51.0,0.0,60.0,3.0,0.0
1428,27.0,2.0,60.0,14.0,0.0
1429,46.0,2.0,60.0,15.0,0.0
1430,54.0,5.0,15.0,11.0,0.0
1431,54.0,10.0,15.0,12.0,0.0
1432,56.0,5.0,15.0,11.0,0.0
1433,56.0,10.0,15.0,12.0,0.0
1434,56.0,3.0,15.0,11.0,0.0
1435,56.0,2.0,15.0,12.0,0.0
1436,58.0,1.0,15.0,11.0,0.0
1437,58.0,10.0,15.0,12.0,0.0
1438,58.0,5.0,15.0,11.0,0.0
1439,58.0,10.0,15.0,12.0,0.0
1440,66.0,2.0,30.0,10.0,0.0
1441,60.0,5.0,15.0,11.0,0.0
1442,61.0,8.0,15.0,12.0,0.0
1443,58.0,5.0,30.0,13.0,0.0
1444,27.0,25.0,30.0,14.0,0.0
1445,60.0,5.0,15.0,11.0,0.0
1446,61.0,1.0,15.0,12.0,0.0
1447,66.0,2.0,90.0,10.0,0.0
1448,63.0,1.0,90.0,11.0,0.0
1449,60.0,23.0,90.0,12.0,0.0
1450,56.0,30.0,30.0,13.0,0.0
1451,32.0,17.0,60.0,14.0,0.0
1452,56.0,10.0,30.0,13.0,0.0
1453,56.0,4.0,30.0,13.0,0.0
1454,65.0,2.0,30.0,10.0,0.0
1455,65.0,1.0,30.0,11.0,0.0
1456,61.0,26.0,30.0,12.0,0.0
1457,56.0,4.0,30.0,13.0,0.0
1458,68.0,2.0,60.0,10.0,0.0
1459,63.0,1.0,60.0,11.0,0.0
1460,60.0,26.0,60.0,12.0,0.0
1461,56.0,27.0,30.0,13.0,0.0
1462,56.0,4.0,30.0,13.0,0.0
1463,56.0,27.0,30.0,13.0,0.0
1464,61.0,2.0,30.0,10.0,0.0
1465,61.0,1.0,30.0,11.0,0.0
1466,58.0,26.0,30.0,12.0,0.0
1467,56.0,4.0,30.0,13.0,0.0
1468,68.0,2.0,90.0,10.0,0.0
1469,63.0,1.0,90.0,11.0,0.0
1470,60.0,23.0,90.0,12.0,0.0
1471,56.0,30.0,30.0,13.0,0.0
1472,56.0,27.0,30.0,13.0,0.0
1473,56.0,4.0,30.0,13.0,0.0
1474,65.0,2.0,30.0,10.0,0.0
1475,65.0,1.0,30.0,11.0,0.0
1476,61.0,26.0,30.0,12.0,0.0
1477,56.0,4.0,30.0,13.0,0.0
1478,68.0,2.0,60.0,10.0,0.0
1479,63.0,1.0,60.0,11.0,0.0
1480,60.0,26.0,60.0,12.0,0.0
1481,56.0,27.0,30.0,13.0,0.0
1482,56.0,4.0,30.0,13.0,0.0
1483,56.0,27.0,30.0,13.0,0.0
1484,61.0,2.0,30.0,10.0,0.0
1485,61.0,1.0,30.0,11.0,0.0
1486,58.0,26.0,30.0,12.0,0.0
1487,56.0,4.0,30.0,13.0,0.0
1488,68.0,2.0,90.0,10.0,0.0
1489,63.0,1.0,90.0,11.0,0.0
1490,60.0,23.0,90.0,12.0,0.0
1491,56.0,30.0,30.0,13.0,0.0
1492,56.0,27.0,30.0,13.0,0.0
1493,56.0,4.0,30.0,13.0,0.0
1494,64.0,2.0,30.0,10.0,0.0
1495,61.0,1.0,30.0,11.0,0.0
1496,61.0,26.0,30.0,12.0,0.0
1497,56.0,4.0,30.0,13.0,0.0
1498,68.0,2.0,60.0,10.0,0.0
1499,63.0,1.0,60.0,11.0,0.0
1500,60.0,26.0,60.0,12.0,0.0
1501,56.0,27.0,30.0,13.0,0.0
1502,56.0,4.0,30.0,13.0,0.0
1503,56.0,27.0,30.0,13.0,0.0
1504,61.0,2.0,30.0,10.0,0.0
1505,61.0,1.0,30.0,11.0,0.0
1506,58.0,26.0,30.0,12.0,0.0
1507,56.0,4.0,30.0,13.0,0.0
1508,68.0,2.0,60.0,10.0,0.0
1509,63.0,1.0,60.0,11.0,0.0
1510,60.0,26.0,60.0,12.0,0.0
1511,56.0,27.0,30.0,13.0,0.0
1512,56.0,4.0,30.0,13.0,0.0
1513,56.0,27.0,30.0,13.0,0.0
1514,61.0,2.0,30.0,10.0,0.0
1515,61.0,1.0,30.0,11.0,0.0
1516,58.0,26.0,30.0,12.0,0.0
1517,56.0,4.0,30.0,13.0,0.0
1518,68.0,2.0,60.0,10.0,0.0
1519,63.0,1.0,60.0,11.0,0.0
1520,60.0,26.0,60.0,12.0,0.0
1521,56.0,27.0,30.0,13.0,0.0
1522,56.0,4.0,30.0,13.0,0.0
1523,56.0,27.0,30.0,13.0,0.0
1524,61.0,2.0,30.0,10.0,0.0
1525,61.0,1.0,30.0,11.0,0.0
1526,58.0,113.0,30.0,12.0,0.0
1527,56.0,4.0,30.0,13.0,0.0
1528,68.0,2.0,120.0,10.0,0.0
1529,63.0,5.0,120.0,11.0,0.0
1530,60.0,1.0,120.0,12.0,0.0
1531,56.0,18.0,120.0,13.0,0.0
1532,32.0,56.0,120.0,8.0,0.0
1533,44.0,2.0,90.0,8.0,0.0
1534,56.0,26.0,120.0,7.0,0.0
1535,68.0,0.0,90.0,7.0,0.0
1536,56.0,37.0,90.0,5.0,0.0
1537,32.0,58.0,120.0,8.0,0.0
1538,44.0,0.0,90.0,8.0,0.0
1539,56.0,1.0,120.0,7.0,0.0
1540,68.0,24.0,90.0,7.0,0.0
1541,56.0,37.0,90.0,5.0,0.0
1542,32.0,0.0,120.0,8.0,0.0
1543,44.0,58.0,90.0,8.0,0.0
1544,56.0,1.0,120.0,7.0,0.0
1545,68.0,26.0,240.0,10.0,0.0
1546,68.0,24.0,90.0,7.0,0.0
1547,56.0,37.0,90.0,5.0,0.0
1548,68.0,19.0,360.0,12.0,0.0
1549,32.0,57.0,120.0,8.0,0.0
1550,44.0,1.0,90.0,8.0,0.0
1551,56.0,1.0,120.0,7.0,0.0
1552,68.0,34.0,90.0,7.0,0.0
1553,68.0,2.0,600.0,1.0,0.0
1554,56.0,1.0,600.0,5.0,0.0
1555,32.0,58.0,120.0,8.0,0.0
1556,44.0,1.0,90.0,8.0,0.0
1557,57.0,1.0,120.0,7.0,0.0
1558,69.0,7.0,120.0,10.0,0.0
1559,69.0,34.0,90.0,7.0,0.0
1560,44.0,57.0,120.0,8.0,0.0
1561,56.0,1.0,90.0,8.0,0.0
1562,58.0,35.0,120.0,7.0,0.0
1563,70.0,1.0,90.0,7.0,0.0
1564,70.0,7.0,120.0,10.0,0.0
1565,66.0,20.0,120.0,12.0,0.0
1566,44.0,0.0,120.0,8.0,0.0
1567,56.0,58.0,90.0,8.0,0.0
1568,66.0,0.0,120.0,7.0,0.0
1569,78.0,35.0,90.0,7.0,0.0
1570,78.0,6.0,120.0,10.0,0.0
1571,66.0,1.0,120.0,2.0,0.0
1572,75.0,0.0,120.0,2.0,0.0
1573,60.0,20.0,120.0,12.0,0.0
1574,44.0,1.0,120.0,8.0,0.0
1575,56.0,56.0,90.0,8.0,0.0
1576,65.0,34.0,120.0,7.0,0.0
1577,77.0,2.0,90.0,7.0,0.0
1578,77.0,4.0,120.0,10.0,0.0
1579,65.0,0.0,120.0,2.0,0.0
1580,73.0,0.0,120.0,2.0,0.0
1581,61.0,20.0,120.0,12.0,0.0
1582,44.0,1.0,120.0,8.0,0.0
1583,56.0,57.0,90.0,8.0,0.0
1584,56.0,1.0,120.0,7.0,0.0
1585,68.0,24.0,90.0,7.0,0.0
1586,56.0,37.0,90.0,5.0,0.0
1587,32.0,1.0,120.0,8.0,0.0
1588,44.0,56.0,90.0,8.0,0.0
1589,56.0,0.0,120.0,7.0,0.0
1590,68.0,26.0,90.0,7.0,0.0
1591,56.0,38.0,90.0,5.0,0.0
1592,32.0,57.0,120.0,8.0,0.0
1593,44.0,0.0,90.0,8.0,0.0
1594,56.0,24.0,120.0,7.0,0.0
1595,68.0,26.0,240.0,10.0,0.0
1596,68.0,1.0,90.0,7.0,0.0
1597,56.0,36.0,90.0,5.0,0.0
1598,68.0,19.0,360.0,12.0,0.0
1599,32.0,58.0,120.0,8.0,0.0
1600,44.0,0.0,90.0,8.0,0.0
1601,56.0,34.0,120.0,7.0,0.0
1602,68.0,2.0,90.0,7.0,0.0
1603,68.0,2.0,600.0,1.0,0.0
1604,56.0,0.0,600.0,5.0,0.0
1605,32.0,2.0,120.0,8.0,0.0
1606,44.0,56.0,90.0,8.0,0.0
1607,56.0,34.0,120.0,7.0,0.0
1608,68.0,2.0,90.0,7.0,0.0
1609,68.0,7.0,120.0,10.0,0.0
1610,44.0,0.0,120.0,8.0,0.0
1611,56.0,58.0,90.0,8.0,0.0
1612,57.0,34.0,120.0,7.0,0.0
1613,69.0,2.0,90.0,7.0,0.0
1614,69.0,7.0,120.0,10.0,0.0
1615,66.0,20.0,120.0,12.0,0.0
1616,44.0,57.0,120.0,8.0,0.0
1617,56.0,0.0,90.0,8.0,0.0
1618,66.0,34.0,120.0,7.0,0.0
1619,78.0,2.0,90.0,7.0,0.0
1620,78.0,1.0,120.0,10.0,0.0
1621,75.0,6.0,120.0,0.0,0.0
1622,84.0,0.0,120.0,0.0,0.0
1623,63.0,20.0,120.0,12.0,0.0
1624,44.0,59.0,120.0,8.0,0.0
1625,56.0,0.0,90.0,8.0,0.0
1626,64.0,29.0,120.0,7.0,0.0
1627,76.0,4.0,120.0,10.0,0.0
1628,85.0,0.0,120.0,0.0,0.0
1629,76.0,6.0,120.0,0.0,0.0
1630,76.0,0.0,90.0,7.0,0.0
1631,61.0,19.0,120.0,12.0,0.0
1632,44.0,2.0,120.0,8.0,0.0
1633,56.0,56.0,90.0,8.0,0.0
1634,56.0,2.0,120.0,7.0,0.0
1635,68.0,22.0,90.0,7.0,0.0
1636,68.0,2.0,90.0,1.0,0.0
1637,56.0,38.0,90.0,5.0,0.0
1638,32.0,0.0,120.0,8.0,0.0
1639,44.0,57.0,90.0,8.0,0.0
1640,56.0,23.0,120.0,7.0,0.0
1641,68.0,0.0,90.0,7.0,0.0
1642,68.0,2.0,90.0,1.0,0.0
1643,56.0,36.0,90.0,5.0,0.0
1644,32.0,0.0,120.0,8.0,0.0
1645,44.0,59.0,90.0,8.0,0.0
1646,56.0,22.0,120.0,7.0,0.0
1647,68.0,1.0,90.0,7.0,0.0
1648,68.0,2.0,240.0,10.0,0.0
1649,56.0,2.0,240.0,11.0,0.0
1650,68.0,2.0,90.0,1.0,0.0
1651,56.0,37.0,90.0,5.0,0.0
1652,32.0,57.0,120.0,8.0,0.0
1653,44.0,1.0,90.0,8.0,0.0
1654,56.0,1.0,120.0,7.0,0.0
1655,68.0,34.0,90.0,7.0,0.0
1656,68.0,22.0,120.0,1.0,0.0
1657,56.0,1.0,240.0,5.0,0.0
1658,56.0,1.0,240.0,12.0,0.0
1659,44.0,18.0,240.0,13.0,0.0
1660,32.0,1.0,120.0,8.0,0.0
1661,44.0,58.0,90.0,8.0,0.0
1662,57.0,1.0,120.0,7.0,0.0
1663,69.0,2.0,120.0,10.0,0.0
1664,69.0,34.0,90.0,7.0,0.0
1665,57.0,4.0,120.0,11.0,0.0
1666,69.0,2.0,960.0,1.0,0.0
1667,44.0,0.0,120.0,8.0,0.0
1668,56.0,58.0,90.0,8.0,0.0
1669,61.0,34.0,120.0,7.0,0.0
1670,73.0,2.0,90.0,7.0,0.0
1671,73.0,2.0,120.0,10.0,0.0
1672,73.0,1.0,240.0,0.0,0.0
1673,61.0,5.0,120.0,11.0,0.0
1674,55.0,1.0,240.0,5.0,0.0
1675,55.0,1.0,120.0,12.0,0.0
1676,43.0,19.0,120.0,13.0,0.0
1677,43.0,57.0,120.0,8.0,0.0
1678,55.0,1.0,90.0,8.0,0.0
1679,69.0,34.0,120.0,7.0,0.0
1680,79.0,1.0,120.0,10.0,0.0
1681,81.0,1.0,90.0,7.0,0.0
1682,81.0,3.0,720.0,0.0,0.0
1683,67.0,1.0,120.0,11.0,0.0
1684,52.0,5.0,120.0,12.0,0.0
1685,40.0,3.0,120.0,13.0,0.0
1686,52.0,0.0,120.0,3.0,0.0
1687,55.0,15.0,120.0,3.0,0.0
1688,40.0,0.0,120.0,8.0,0.0
1689,56.0,57.0,90.0,8.0,0.0
1690,69.0,1.0,120.0,7.0,0.0
1691,81.0,35.0,90.0,7.0,0.0
1692,78.0,2.0,120.0,10.0,0.0
1693,74.0,5.0,240.0,0.0,0.0
1694,66.0,5.0,120.0,11.0,0.0
1695,54.0,2.0,240.0,5.0,0.0
1696,50.0,1.0,120.0,12.0,0.0
1697,38.0,19.0,120.0,13.0,0.0
1698,54.0,0.0,240.0,3.0,0.0
1699,50.0,14.0,240.0,3.0,0.0
1700,38.0,1.0,120.0,8.0,0.0
1701,54.0,57.0,90.0,8.0,0.0
1702,69.0,1.0,120.0,7.0,0.0
1703,81.0,35.0,90.0,7.0,0.0
1704,42.0,4.0,120.0,13.0,0.0
1705,38.0,58.0,120.0,8.0,0.0
1706,54.0,1.0,90.0,8.0,0.0
1707,69.0,1.0,120.0,7.0,0.0
1708,76.0,5.0,240.0,0.0,0.0
1709,81.0,42.0,90.0,7.0,0.0
1710,52.0,2.0,240.0,5.0,0.0
1711,45.0,18.0,120.0,13.0,0.0
1712,52.0,0.0,240.0,3.0,0.0
1713,49.0,15.0,240.0,3.0,0.0
1714,37.0,2.0,120.0,8.0,0.0
1715,52.0,56.0,90.0,8.0,0.0
1716,69.0,0.0,120.0,7.0,0.0
1717,81.0,37.0,90.0,7.0,0.0
1718,49.0,4.0,120.0,13.0,0.0
1719,37.0,56.0,120.0,8.0,0.0
1720,52.0,1.0,90.0,8.0,0.0
1721,69.0,37.0,120.0,7.0,0.0
1722,81.0,0.0,90.0,7.0,0.0
1723,78.0,0.0,120.0,0.0,0.0
1724,51.0,2.0,120.0,5.0,0.0
1725,51.0,4.0,120.0,13.0,0.0
1726,51.0,0.0,120.0,3.0,0.0
1727,48.0,15.0,120.0,3.0,0.0
1728,36.0,1.0,120.0,8.0,0.0
1729,51.0,57.0,90.0,8.0,0.0
1730,69.0,42.0,120.0,7.0,0.0
1731,81.0,1.0,90.0,7.0,0.0
1732,54.0,18.0,120.0,13.0,0.0
1733,36.0,58.0,120.0,8.0,0.0
1734,51.0,0.0,90.0,8.0,0.0
1735,69.0,0.0,120.0,7.0,0.0
1736,80.0,62.0,90.0,7.0,0.0
1737,57.0,19.0,720.0,13.0,0.0
1738,36.0,56.0,120.0,8.0,0.0
1739,51.0,2.0,90.0,8.0,0.0
1740,69.0,60.0,120.0,7.0,0.0
1741,78.0,2.0,90.0,7.0,0.0
1742,36.0,0.0,120.0,8.0,0.0
1743,51.0,58.0,90.0,8.0,0.0
1744,69.0,63.0,120.0,7.0,0.0
1745,76.0,1.0,90.0,7.0,0.0
1746,37.0,57.0,120.0,8.0,0.0
1747,52.0,0.0,90.0,8.0,0.0
1748,69.0,60.0,120.0,7.0,0.0
1749,74.0,1.0,90.0,7.0,0.0
1750,38.0,2.0,120.0,8.0,0.0
1751,54.0,57.0,90.0,8.0,0.0
1752,69.0,1.0,120.0,7.0,0.0
1753,73.0,60.0,90.0,7.0,0.0
1754,40.0,59.0,120.0,8.0,0.0
1755,57.0,0.0,90.0,8.0,0.0
1756,63.0,43.0,120.0,7.0,0.0
1757,72.0,0.0,90.0,7.0,0.0
1758,42.0,0.0,120.0,8.0,0.0
1759,57.0,58.0,90.0,8.0,0.0
1760,61.0,43.0,120.0,7.0,0.0
1761,73.0,0.0,90.0,7.0,0.0
1762,56.0,19.0,120.0,13.0,0.0
1763,40.0,56.0,120.0,8.0,0.0
1764,56.0,1.0,90.0,8.0,0.0
1765,61.0,40.0,120.0,7.0,0.0
1766,67.0,2.0,90.0,7.0,0.0
1767,49.0,0.0,120.0,5.0,0.0
1768,61.0,2.0,120.0,5.0,0.0
1769,49.0,18.0,120.0,13.0,0.0
1770,45.0,56.0,120.0,8.0,0.0
1771,57.0,2.0,90.0,8.0,0.0
1772,61.0,1.0,120.0,7.0,0.0
1773,68.0,43.0,90.0,7.0,0.0
1774,56.0,1.0,240.0,5.0,0.0
1775,44.0,18.0,120.0,13.0,0.0
1776,44.0,27.0,120.0,8.0,0.0
1777,56.0,1.0,90.0,8.0,0.0
1778,54.0,30.0,90.0,7.0,0.0
1779,60.0,32.0,90.0,7.0,0.0
1780,44.0,1.0,120.0,12.0,0.0
1781,32.0,12.0,120.0,13.0,0.0
1782,32.0,5.0,90.0,8.0,0.0
1783,53.0,4.0,60.0,7.0,0.0
1784,44.0,1.0,60.0,8.0,0.0
1785,61.0,9.0,120.0,7.0,0.0
1786,37.0,30.0,20.0,8.0,0.0
1787,49.0,1.0,120.0,5.0,0.0
1788,49.0,1.0,120.0,12.0,0.0
1789,37.0,12.0,120.0,13.0,0.0
1790,53.0,30.0,20.0,8.0,0.0
1791,49.0,30.0,20.0,8.0,0.0
1792,44.0,7.0,20.0,8.0,0.0
1793,63.0,3.0,60.0,7.0,0.0
1794,56.0,20.0,60.0,7.0,0.0
1795,41.0,30.0,20.0,8.0,0.0
1796,53.0,7.0,20.0,8.0,0.0
1797,65.0,3.0,40.0,7.0,0.0
1798,61.0,5.0,40.0,7.0,0.0
1799,49.0,22.0,20.0,8.0,0.0
1800,44.0,10.0,20.0,8.0,0.0
1801,56.0,20.0,15.0,7.0,0.0
1802,68.0,3.0,120.0,7.0,0.0
1803,36.0,30.0,20.0,8.0,0.0
1804,56.0,30.0,20.0,8.0,0.0
1805,51.0,30.0,20.0,8.0,0.0
1806,48.0,7.0,20.0,8.0,0.0
1807,63.0,20.0,15.0,7.0,0.0
1808,60.0,20.0,60.0,7.0,0.0
1809,44.0,30.0,20.0,8.0,0.0
1810,56.0,7.0,20.0,8.0,0.0
1811,68.0,3.0,60.0,7.0,0.0
1812,63.0,0.0,60.0,7.0,0.0
1813,60.0,20.0,60.0,7.0,0.0
1814,51.0,30.0,20.0,8.0,0.0
1815,48.0,7.0,20.0,8.0,0.0
1816,70.0,3.0,120.0,7.0,0.0
1817,65.0,20.0,120.0,7.0,0.0
1818,68.0,0.0,120.0,7.0,0.0
1819,34.0,30.0,20.0,8.0,0.0
1820,58.0,30.0,20.0,8.0,0.0
1821,53.0,30.0,20.0,8.0,0.0
1822,49.0,7.0,20.0,8.0,0.0
1823,70.0,3.0,30.0,7.0,0.0
1824,63.0,0.0,30.0,7.0,0.0
1825,67.0,0.0,30.0,7.0,0.0
1826,61.0,0.0,15.0,7.0,0.0
1827,39.0,11.0,20.0,8.0,0.0
1828,58.0,21.0,20.0,8.0,0.0
1829,72.0,3.0,30.0,7.0,0.0
1830,67.0,6.0,30.0,7.0,0.0
1831,61.0,0.0,30.0,7.0,0.0
1832,63.0,0.0,30.0,7.0,0.0
1833,55.0,30.0,20.0,8.0,0.0
1834,73.0,3.0,30.0,7.0,0.0
1835,61.0,0.0,30.0,7.0,0.0
1836,63.0,0.0,30.0,7.0,0.0
1837,67.0,26.0,30.0,7.0,0.0
1838,51.0,1.0,20.0,8.0,0.0
1839,73.0,3.0,120.0,7.0,0.0
1840,67.0,20.0,120.0,7.0,0.0
1841,63.0,0.0,120.0,7.0,0.0
1842,61.0,0.0,120.0,7.0,0.0
1843,32.0,30.0,20.0,8.0,0.0
1844,58.0,30.0,20.0,8.0,0.0
1845,55.0,30.0,20.0,8.0,0.0
1846,51.0,7.0,20.0,8.0,0.0
1847,72.0,3.0,60.0,7.0,0.0
1848,60.0,0.0,60.0,7.0,0.0
1849,68.0,20.0,60.0,7.0,0.0
1850,44.0,30.0,20.0,8.0,0.0
1851,56.0,7.0,20.0,8.0,0.0
1852,51.0,30.0,20.0,8.0,0.0
1853,48.0,30.0,20.0,8.0,0.0
1854,65.0,3.0,120.0,7.0,0.0
1855,58.0,8.0,120.0,7.0,0.0
1856,61.0,0.0,120.0,7.0,0.0
1857,34.0,30.0,20.0,8.0,0.0
1858,46.0,12.0,120.0,13.0,0.0
1859,53.0,30.0,20.0,8.0,0.0
1860,49.0,30.0,20.0,8.0,0.0
1861,46.0,7.0,20.0,8.0,0.0
1862,70.0,3.0,60.0,7.0,0.0
1863,61.0,0.0,60.0,7.0,0.0
1864,44.0,30.0,20.0,8.0,0.0
1865,44.0,12.0,120.0,13.0,0.0
1866,58.0,7.0,20.0,8.0,0.0
1867,73.0,3.0,60.0,7.0,0.0
1868,65.0,20.0,15.0,7.0,0.0
1869,70.0,8.0,60.0,7.0,0.0
1870,53.0,30.0,20.0,8.0,0.0
1871,49.0,7.0,20.0,8.0,0.0
1872,65.0,0.0,15.0,7.0,0.0
1873,70.0,8.0,120.0,7.0,0.0
1874,43.0,30.0,20.0,8.0,0.0
1875,43.0,12.0,120.0,13.0,0.0
1876,58.0,30.0,20.0,8.0,0.0
1877,53.0,30.0,20.0,8.0,0.0
1878,49.0,10.0,20.0,8.0,0.0
1879,68.0,0.0,120.0,7.0,0.0
1880,41.0,30.0,20.0,8.0,0.0
1881,41.0,12.0,120.0,13.0,0.0
1882,56.0,8.0,20.0,8.0,0.0
1883,77.0,2.0,15.0,7.0,0.0
1884,65.0,20.0,15.0,7.0,0.0
1885,73.0,0.0,15.0,7.0,0.0
1886,53.0,30.0,20.0,8.0,0.0
1887,49.0,8.0,20.0,8.0,0.0
1888,79.0,2.0,90.0,7.0,0.0
1889,67.0,12.0,90.0,7.0,0.0
1890,75.0,0.0,90.0,7.0,0.0
1891,39.0,30.0,20.0,8.0,0.0
1892,39.0,12.0,120.0,13.0,0.0
1893,55.0,30.0,20.0,8.0,0.0
1894,51.0,8.0,20.0,8.0,0.0
1895,80.0,8.0,15.0,7.0,0.0
1896,49.0,7.0,20.0,8.0,0.0
1897,79.0,11.0,15.0,7.0,0.0
1898,77.0,22.0,60.0,7.0,0.0
1899,37.0,30.0,20.0,8.0,0.0
1900,37.0,12.0,120.0,13.0,0.0
1901,58.0,8.0,20.0,8.0,0.0
1902,79.0,2.0,60.0,7.0,0.0
1903,67.0,8.0,60.0,7.0,0.0
1904,75.0,0.0,60.0,7.0,0.0
1905,51.0,30.0,20.0,8.0,0.0
1906,46.0,8.0,20.0,8.0,0.0
1907,80.0,2.0,60.0,7.0,0.0
1908,68.0,0.0,60.0,7.0,0.0
1909,36.0,30.0,20.0,8.0,0.0
1910,36.0,12.0,120.0,13.0,0.0
1911,60.0,8.0,20.0,8.0,0.0
1912,75.0,20.0,15.0,7.0,0.0
1913,68.0,8.0,60.0,7.0,0.0
1914,63.0,0.0,60.0,7.0,0.0
1915,56.0,30.0,20.0,8.0,0.0
1916,51.0,8.0,20.0,8.0,0.0
1917,78.0,2.0,180.0,7.0,0.0
1918,66.0,20.0,180.0,7.0,0.0
1919,69.0,8.0,120.0,7.0,0.0
1920,48.0,30.0,20.0,8.0,0.0
1921,36.0,12.0,120.0,13.0,0.0
1922,63.0,30.0,20.0,8.0,0.0
1923,57.0,30.0,20.0,8.0,0.0
1924,54.0,10.0,20.0,8.0,0.0
1925,68.0,8.0,120.0,7.0,0.0
1926,37.0,30.0,20.0,8.0,0.0
1927,37.0,12.0,120.0,13.0,0.0
1928,61.0,8.0,20.0,8.0,0.0
1929,77.0,3.0,60.0,7.0,0.0
1930,65.0,0.0,60.0,7.0,0.0
1931,56.0,30.0,20.0,8.0,0.0
1932,53.0,7.0,20.0,8.0,0.0
1933,72.0,3.0,180.0,7.0,0.0
1934,69.0,0.0,180.0,7.0,0.0
1935,66.0,0.0,180.0,7.0,0.0
1936,58.0,8.0,120.0,7.0,0.0
1937,39.0,30.0,20.0,8.0,0.0
1938,39.0,12.0,120.0,13.0,0.0
1939,57.0,30.0,20.0,8.0,0.0
1940,54.0,30.0,20.0,8.0,0.0
1941,51.0,10.0,20.0,8.0,0.0
1942,60.0,20.0,60.0,7.0,0.0
1943,40.0,30.0,20.0,8.0,0.0
1944,40.0,12.0,120.0,13.0,0.0
1945,56.0,7.0,20.0,8.0,0.0
1946,73.0,2.0,60.0,7.0,0.0
1947,68.0,8.0,60.0,7.0,0.0
1948,53.0,30.0,20.0,8.0,0.0
1949,49.0,8.0,20.0,8.0,0.0
1950,62.0,3.0,180.0,7.0,0.0
1951,42.0,30.0,20.0,8.0,0.0
1952,42.0,12.0,120.0,13.0,0.0
1953,57.0,30.0,20.0,8.0,0.0
1954,54.0,30.0,20.0,8.0,0.0
1955,49.0,18.0,20.0,8.0,0.0
1956,41.0,30.0,20.0,8.0,0.0
1957,41.0,12.0,120.0,13.0,0.0
1958,56.0,7.0,20.0,8.0,0.0
1959,73.0,2.0,60.0,7.0,0.0
1960,68.0,8.0,60.0,7.0,0.0
1961,61.0,20.0,15.0,7.0,0.0
1962,53.0,30.0,20.0,8.0,0.0
1963,49.0,8.0,20.0,8.0,0.0
1964,63.0,3.0,180.0,7.0,0.0
1965,42.0,30.0,20.0,8.0,0.0
1966,42.0,12.0,120.0,13.0,0.0
1967,58.0,30.0,20.0,8.0,0.0
1968,54.0,30.0,20.0,8.0,0.0
1969,49.0,18.0,20.0,8.0,0.0
1970,44.0,30.0,20.0,8.0,0.0
1971,44.0,12.0,120.0,13.0,0.0
1972,56.0,7.0,20.0,8.0,0.0
1973,65.0,8.0,40.0,7.0,0.0
1974,61.0,20.0,120.0,7.0,0.0
1975,53.0,22.0,20.0,8.0,0.0
1976,49.0,7.0,20.0,8.0,0.0
1977,68.0,11.0,15.0,7.0,0.0
1978,66.0,3.0,60.0,7.0,0.0
1979,44.0,30.0,20.0,8.0,0.0
1980,32.0,50.0,120.0,13.0,0.0
1981,56.0,7.0,20.0,8.0,0.0
1982,63.0,3.0,60.0,7.0,0.0
1983,60.0,8.0,60.0,7.0,0.0
1984,54.0,30.0,20.0,8.0,0.0
1985,51.0,7.0,20.0,8.0,0.0
1986,62.0,2.0,60.0,7.0,0.0
1987,53.0,2.0,60.0,7.0,0.0
1988,59.0,0.0,60.0,7.0,0.0
1989,44.0,2.0,60.0,8.0,0.0
1990,32.0,4.0,60.0,8.0,0.0
1991,32.0,50.0,60.0,13.0,0.0
1992,66.0,62.0,60.0,7.0,0.0
1993,71.0,2.0,120.0,7.0,0.0
1994,65.0,20.0,60.0,7.0,0.0
1995,44.0,6.0,120.0,8.0,0.0
1996,44.0,50.0,120.0,13.0,0.0
1997,53.0,38.0,40.0,8.0,0.0
1998,62.0,0.0,60.0,7.0,0.0
1999,50.0,2.0,40.0,8.0,0.0
2000,70.0,2.0,60.0,7.0,0.0
2001,63.0,20.0,60.0,7.0,0.0
2002,42.0,38.0,90.0,8.0,0.0
2003,42.0,32.0,120.0,13.0,0.0
2004,51.0,2.0,40.0,8.0,0.0
2005,78.0,1.0,120.0,7.0,0.0
2006,66.0,0.0,120.0,7.0,0.0
2007,58.0,2.0,40.0,8.0,0.0
2008,46.0,6.0,40.0,8.0,0.0
2009,51.0,19.0,40.0,8.0,0.0
2010,39.0,1.0,120.0,8.0,0.0
2011,39.0,55.0,120.0,13.0,0.0
2012,63.0,39.0,40.0,8.0,0.0
2013,79.0,1.0,60.0,7.0,0.0
2014,70.0,20.0,15.0,7.0,0.0
2015,67.0,2.0,60.0,7.0,0.0
2016,61.0,0.0,40.0,8.0,0.0
2017,80.0,2.0,60.0,7.0,0.0
2018,75.0,0.0,60.0,7.0,0.0
2019,48.0,6.0,120.0,8.0,0.0
2020,48.0,52.0,120.0,13.0,0.0
2021,60.0,40.0,40.0,8.0,0.0
2022,68.0,20.0,15.0,7.0,0.0
2023,56.0,0.0,40.0,8.0,0.0
2024,73.0,2.0,120.0,7.0,0.0
2025,67.0,20.0,60.0,7.0,0.0
2026,46.0,6.0,120.0,8.0,0.0
2027,46.0,50.0,120.0,13.0,0.0
2028,55.0,38.0,40.0,8.0,0.0
2029,64.0,2.0,60.0,7.0,0.0
2030,52.0,0.0,40.0,8.0,0.0
2031,72.0,2.0,60.0,7.0,0.0
2032,65.0,20.0,60.0,7.0,0.0
2033,44.0,38.0,90.0,8.0,0.0
2034,44.0,32.0,120.0,13.0,0.0
2035,53.0,2.0,40.0,8.0,0.0
2036,80.0,1.0,120.0,7.0,0.0
2037,68.0,20.0,120.0,7.0,0.0
2038,77.0,0.0,120.0,7.0,0.0
2039,60.0,8.0,40.0,8.0,0.0
2040,48.0,0.0,40.0,8.0,0.0
2041,49.0,19.0,40.0,8.0,0.0
2042,41.0,6.0,120.0,8.0,0.0
2043,41.0,42.0,120.0,13.0,0.0
2044,61.0,39.0,40.0,8.0,0.0
2045,85.0,1.0,60.0,7.0,0.0
2046,80.0,0.0,60.0,7.0,0.0
2047,59.0,2.0,40.0,8.0,0.0
2048,85.0,1.0,60.0,7.0,0.0
2049,73.0,0.0,15.0,7.0,0.0
2050,42.0,16.0,60.0,8.0,0.0
2051,42.0,17.0,120.0,13.0,0.0
2052,58.0,9.0,20.0,8.0,0.0
2053,78.0,0.0,15.0,7.0,0.0
2054,73.0,4.0,15.0,7.0,0.0
2055,66.0,3.0,60.0,7.0,0.0
2056,54.0,30.0,20.0,8.0,0.0
2057,49.0,9.0,20.0,8.0,0.0
2058,81.0,1.0,180.0,7.0,0.0
2059,72.0,0.0,180.0,7.0,0.0
2060,78.0,20.0,180.0,7.0,0.0
2061,69.0,0.0,180.0,7.0,0.0
2062,39.0,30.0,20.0,8.0,0.0
2063,39.0,12.0,120.0,13.0,0.0
2064,60.0,30.0,20.0,8.0,0.0
2065,54.0,30.0,20.0,8.0,0.0
2066,51.0,18.0,20.0,8.0,0.0
2067,40.0,30.0,20.0,8.0,0.0
2068,40.0,12.0,120.0,13.0,0.0
2069,61.0,9.0,20.0,8.0,0.0
2070,80.0,1.0,60.0,7.0,0.0
2071,76.0,0.0,60.0,7.0,0.0
2072,73.0,0.0,60.0,7.0,0.0
2073,68.0,8.0,60.0,7.0,0.0
2074,56.0,30.0,20.0,8.0,0.0
2075,52.0,9.0,20.0,8.0,0.0
2076,75.0,1.0,180.0,7.0,0.0
2077,66.0,20.0,180.0,7.0,0.0
2078,69.0,0.0,180.0,7.0,0.0
2079,36.0,30.0,20.0,8.0,0.0
2080,36.0,12.0,120.0,13.0,0.0
2081,63.0,30.0,20.0,8.0,0.0
2082,57.0,30.0,20.0,8.0,0.0
2083,54.0,18.0,20.0,8.0,0.0
2084,37.0,30.0,20.0,8.0,0.0
2085,37.0,12.0,120.0,13.0,0.0
2086,61.0,9.0,20.0,8.0,0.0
2087,76.0,1.0,60.0,7.0,0.0
2088,68.0,0.0,60.0,7.0,0.0
2089,56.0,30.0,20.0,8.0,0.0
2090,52.0,9.0,20.0,8.0,0.0
2091,67.0,1.0,180.0,7.0,0.0
2092,61.0,0.0,180.0,7.0,0.0
2093,64.0,8.0,15.0,7.0,0.0
2094,34.0,30.0,20.0,8.0,0.0
2095,34.0,12.0,120.0,13.0,0.0
2096,55.0,28.0,20.0,8.0,0.0
2097,52.0,32.0,20.0,8.0,0.0
2098,49.0,18.0,20.0,8.0,0.0
2099,32.0,30.0,20.0,8.0,0.0
2100,56.0,9.0,20.0,8.0,0.0
2101,68.0,10.0,60.0,7.0,0.0
2102,61.0,20.0,120.0,7.0,0.0
2103,51.0,30.0,20.0,8.0,0.0
2104,46.0,8.0,20.0,8.0,0.0
2105,66.0,2.0,60.0,7.0,0.0
2106,48.0,30.0,20.0,8.0,0.0
2107,32.0,12.0,15.0,13.0,0.0
2108,44.0,8.0,20.0,8.0,0.0
2109,63.0,0.0,15.0,7.0,0.0
2110,51.0,30.0,20.0,8.0,0.0
2111,44.0,8.0,20.0,8.0,0.0
2112,60.0,8.0,15.0,7.0,0.0
2113,56.0,2.0,60.0,7.0,0.0
2114,54.0,56.0,60.0,8.0,0.0
2115,44.0,32.0,120.0,13.0,0.0
2116,77.0,2.0,60.0,7.0,0.0
2117,65.0,8.0,60.0,7.0,0.0
2118,68.0,0.0,60.0,7.0,0.0
2119,75.0,4.0,60.0,7.0,0.0
2120,68.0,18.0,40.0,7.0,0.0
2121,42.0,18.0,60.0,8.0,0.0
2122,30.0,0.0,60.0,8.0,0.0
2123,42.0,54.0,120.0,13.0,0.0
2124,63.0,38.0,40.0,7.0,0.0
2125,72.0,2.0,60.0,7.0,0.0
2126,68.0,8.0,15.0,7.0,0.0
2127,29.0,0.0,60.0,8.0,0.0
2128,41.0,6.0,60.0,8.0,0.0
2129,41.0,10.0,60.0,13.0,0.0
2130,61.0,78.0,40.0,7.0,0.0
2131,49.0,6.0,120.0,8.0,0.0
2132,37.0,0.0,120.0,8.0,0.0
2133,49.0,12.0,120.0,13.0,0.0
2134,65.0,20.0,90.0,7.0,0.0
2135,70.0,4.0,60.0,7.0,0.0
2136,58.0,38.0,40.0,7.0,0.0
2137,68.0,2.0,60.0,7.0,0.0
2138,50.0,0.0,60.0,8.0,0.0
2139,38.0,6.0,60.0,8.0,0.0
2140,50.0,50.0,60.0,13.0,0.0
2141,65.0,2.0,40.0,7.0,0.0
2142,66.0,2.0,60.0,7.0,0.0
2143,63.0,2.0,60.0,7.0,0.0
2144,51.0,6.0,60.0,8.0,0.0
2145,39.0,0.0,60.0,8.0,0.0
2146,51.0,50.0,60.0,13.0,0.0
2147,78.0,42.0,60.0,7.0,0.0
2148,77.0,22.0,60.0,7.0,0.0
2149,70.0,18.0,40.0,7.0,0.0
2150,44.0,0.0,120.0,8.0,0.0
2151,32.0,6.0,120.0,8.0,0.0
2152,44.0,32.0,120.0,13.0,0.0
2153,65.0,38.0,40.0,7.0,0.0
2154,74.0,4.0,60.0,7.0,0.0
2155,70.0,22.0,90.0,7.0,0.0
2156,75.0,2.0,90.0,7.0,0.0
2157,42.0,0.0,60.0,8.0,0.0
2158,30.0,6.0,60.0,8.0,0.0
2159,42.0,10.0,60.0,13.0,0.0
2160,63.0,80.0,40.0,7.0,0.0
2161,39.0,6.0,120.0,8.0,0.0
2162,51.0,0.0,120.0,8.0,0.0
2163,51.0,10.0,120.0,13.0,0.0
2164,66.0,22.0,90.0,7.0,0.0
2165,72.0,2.0,90.0,7.0,0.0
2166,60.0,33.0,40.0,7.0,0.0
2167,52.0,6.0,60.0,8.0,0.0
2168,40.0,0.0,60.0,8.0,0.0
2169,52.0,52.0,60.0,13.0,0.0
2170,70.0,7.0,40.0,7.0,0.0
2171,67.0,2.0,40.0,7.0,0.0
2172,65.0,2.0,60.0,7.0,0.0
2173,53.0,6.0,60.0,8.0,0.0
2174,41.0,0.0,60.0,8.0,0.0
2175,53.0,12.0,60.0,13.0,0.0
2176,68.0,0.0,15.0,7.0,0.0
2177,37.0,0.0,20.0,8.0,0.0
2178,49.0,30.0,20.0,8.0,0.0
2179,37.0,0.0,120.0,5.0,0.0
2180,49.0,19.0,120.0,5.0,0.0
2181,49.0,1.0,120.0,12.0,0.0
2182,49.0,0.0,120.0,13.0,0.0
2183,53.0,30.0,20.0,8.0,0.0
2184,61.0,5.0,120.0,10.0,0.0
2185,61.0,30.0,20.0,8.0,0.0
2186,53.0,11.0,240.0,11.0,0.0
2187,61.0,8.0,120.0,3.0,0.0
2188,53.0,0.0,240.0,3.0,0.0
2189,37.0,1.0,120.0,14.0,0.0
2190,53.0,9.0,20.0,8.0,0.0
2191,68.0,1.0,15.0,7.0,0.0
2192,71.0,0.0,15.0,7.0,0.0
2193,80.0,0.0,15.0,7.0,0.0
2194,49.0,30.0,20.0,8.0,0.0
2195,37.0,0.0,20.0,8.0,0.0
2196,37.0,1.0,60.0,5.0,0.0
2197,49.0,1.0,60.0,12.0,0.0
2198,49.0,4.0,60.0,13.0,0.0
2199,53.0,10.0,20.0,8.0,0.0
2200,59.0,2.0,120.0,10.0,0.0
2201,61.0,30.0,20.0,8.0,0.0
2202,49.0,0.0,15.0,5.0,0.0
2203,61.0,0.0,60.0,5.0,0.0
2204,61.0,1.0,60.0,12.0,0.0
2205,61.0,1.0,60.0,13.0,0.0
2206,59.0,13.0,120.0,3.0,0.0
2207,37.0,2.0,120.0,14.0,0.0
2208,53.0,9.0,20.0,8.0,0.0
2209,71.0,0.0,15.0,7.0,0.0
2210,80.0,0.0,15.0,7.0,0.0
2211,68.0,0.0,120.0,7.0,0.0
2212,37.0,0.0,20.0,8.0,0.0
2213,49.0,30.0,20.0,8.0,0.0
2214,49.0,0.0,120.0,5.0,0.0
2215,37.0,19.0,120.0,5.0,0.0
2216,49.0,1.0,120.0,12.0,0.0
2217,49.0,0.0,120.0,13.0,0.0
2218,53.0,2.0,20.0,8.0,0.0
2219,59.0,0.0,120.0,10.0,0.0
2220,61.0,30.0,20.0,8.0,0.0
2221,53.0,3.0,120.0,11.0,0.0
2222,53.0,8.0,120.0,3.0,0.0
2223,59.0,0.0,120.0,3.0,0.0
2224,37.0,1.0,120.0,14.0,0.0
2225,53.0,9.0,20.0,8.0,0.0
2226,68.0,0.0,60.0,7.0,0.0
2227,80.0,1.0,15.0,7.0,0.0
2228,71.0,0.0,15.0,7.0,0.0
2229,37.0,0.0,20.0,8.0,0.0
2230,49.0,30.0,20.0,8.0,0.0
2231,49.0,1.0,60.0,5.0,0.0
2232,37.0,0.0,60.0,5.0,0.0
2233,49.0,1.0,60.0,12.0,0.0
2234,49.0,4.0,60.0,13.0,0.0
2235,53.0,10.0,20.0,8.0,0.0
2236,82.0,0.0,60.0,7.0,0.0
2237,58.0,2.0,120.0,10.0,0.0
2238,61.0,30.0,20.0,8.0,0.0
2239,54.0,6.0,120.0,11.0,0.0
2240,61.0,4.0,60.0,5.0,0.0
2241,49.0,0.0,60.0,5.0,0.0
2242,61.0,1.0,60.0,12.0,0.0
2243,61.0,1.0,60.0,13.0,0.0
2244,54.0,0.0,120.0,3.0,0.0
2245,58.0,1.0,120.0,3.0,0.0
2246,37.0,15.0,60.0,14.0,0.0
2247,54.0,9.0,20.0,8.0,0.0
2248,70.0,0.0,15.0,7.0,0.0
2249,78.0,0.0,120.0,7.0,0.0
2250,82.0,0.0,60.0,7.0,0.0
2251,49.0,30.0,20.0,8.0,0.0
2252,37.0,0.0,20.0,8.0,0.0
2253,37.0,0.0,60.0,5.0,0.0
2254,49.0,0.0,60.0,12.0,0.0
2255,49.0,12.0,60.0,13.0,0.0
2256,37.0,15.0,120.0,14.0,0.0
2257,54.0,2.0,20.0,8.0,0.0
2258,60.0,2.0,120.0,10.0,0.0
2259,51.0,6.0,120.0,11.0,0.0
2260,61.0,30.0,20.0,8.0,0.0
2261,49.0,1.0,15.0,5.0,0.0
2262,61.0,4.0,60.0,5.0,0.0
2263,61.0,1.0,60.0,12.0,0.0
2264,61.0,0.0,60.0,13.0,0.0
2265,51.0,1.0,120.0,3.0,0.0
2266,54.0,0.0,120.0,3.0,0.0
2267,51.0,9.0,20.0,8.0,0.0
2268,84.0,1.0,15.0,7.0,0.0
2269,72.0,0.0,15.0,7.0,0.0
2270,78.0,0.0,60.0,7.0,0.0
2271,37.0,0.0,20.0,8.0,0.0
2272,49.0,30.0,20.0,8.0,0.0
2273,37.0,1.0,60.0,5.0,0.0
2274,49.0,0.0,60.0,12.0,0.0
2275,49.0,12.0,60.0,13.0,0.0
2276,37.0,15.0,120.0,14.0,0.0
2277,51.0,2.0,20.0,8.0,0.0
2278,85.0,0.0,60.0,7.0,0.0
2279,77.0,0.0,60.0,7.0,0.0
2280,61.0,2.0,120.0,10.0,0.0
2281,56.0,6.0,120.0,11.0,0.0
2282,61.0,30.0,20.0,8.0,0.0
2283,49.0,0.0,15.0,5.0,0.0
2284,61.0,0.0,60.0,5.0,0.0
2285,61.0,1.0,60.0,12.0,0.0
2286,61.0,0.0,60.0,13.0,0.0
2287,49.0,1.0,120.0,3.0,0.0
2288,53.0,0.0,120.0,3.0,0.0
2289,49.0,9.0,20.0,8.0,0.0
2290,85.0,6.0,60.0,7.0,0.0
2291,77.0,0.0,60.0,7.0,0.0
2292,73.0,1.0,15.0,7.0,0.0
2293,37.0,30.0,20.0,8.0,0.0
2294,61.0,0.0,60.0,5.0,0.0
2295,49.0,1.0,60.0,5.0,0.0
2296,61.0,0.0,60.0,12.0,0.0
2297,49.0,5.0,60.0,13.0,0.0
2298,37.0,7.0,60.0,14.0,0.0
2299,49.0,2.0,20.0,8.0,0.0
2300,80.0,0.0,60.0,7.0,0.0
2301,63.0,2.0,120.0,10.0,0.0
2302,60.0,6.0,120.0,11.0,0.0
2303,61.0,30.0,20.0,8.0,0.0
2304,56.0,4.0,60.0,5.0,0.0
2305,60.0,1.0,60.0,12.0,0.0
2306,48.0,0.0,60.0,13.0,0.0
2307,48.0,1.0,120.0,3.0,0.0
2308,51.0,0.0,120.0,3.0,0.0
2309,36.0,15.0,60.0,14.0,0.0
2310,49.0,9.0,20.0,8.0,0.0
2311,75.0,0.0,15.0,7.0,0.0
2312,87.0,1.0,15.0,7.0,0.0
2313,80.0,0.0,60.0,7.0,0.0
2314,37.0,30.0,20.0,8.0,0.0
2315,56.0,6.0,60.0,5.0,0.0
2316,60.0,0.0,60.0,12.0,0.0
2317,48.0,5.0,60.0,13.0,0.0
2318,36.0,7.0,60.0,14.0,0.0
2319,49.0,2.0,20.0,8.0,0.0
2320,65.0,0.0,240.0,10.0,0.0
2321,61.0,2.0,240.0,10.0,0.0
2322,77.0,0.0,60.0,7.0,0.0
2323,61.0,30.0,20.0,8.0,0.0
2324,58.0,6.0,240.0,11.0,0.0
2325,61.0,6.0,240.0,5.0,0.0
2326,58.0,0.0,240.0,5.0,0.0
2327,58.0,1.0,60.0,12.0,0.0
2328,46.0,0.0,60.0,13.0,0.0
2329,49.0,0.0,120.0,3.0,0.0
2330,46.0,13.0,120.0,3.0,0.0
2331,34.0,15.0,60.0,14.0,0.0
2332,49.0,9.0,20.0,8.0,0.0
2333,85.0,5.0,15.0,7.0,0.0
2334,89.0,0.0,15.0,7.0,0.0
2335,37.0,30.0,20.0,8.0,0.0
2336,58.0,1.0,120.0,12.0,0.0
2337,46.0,5.0,120.0,13.0,0.0
2338,34.0,15.0,120.0,14.0,0.0
2339,49.0,17.0,20.0,8.0,0.0
2340,61.0,30.0,20.0,8.0,0.0
2341,34.0,0.0,120.0,3.0,0.0
2342,46.0,1.0,120.0,3.0,0.0
2343,49.0,9.0,20.0,8.0,0.0
2344,77.0,0.0,15.0,7.0,0.0
2345,85.0,0.0,15.0,7.0,0.0
2346,89.0,0.0,60.0,7.0,0.0
2347,37.0,30.0,20.0,8.0,0.0
2348,58.0,1.0,60.0,12.0,0.0
2349,46.0,4.0,60.0,13.0,0.0
2350,34.0,7.0,60.0,14.0,0.0
2351,49.0,2.0,20.0,8.0,0.0
2352,68.0,0.0,240.0,10.0,0.0
2353,60.0,2.0,240.0,10.0,0.0
2354,92.0,0.0,60.0,7.0,0.0
2355,80.0,0.0,60.0,7.0,0.0
2356,56.0,30.0,20.0,8.0,0.0
2357,56.0,5.0,240.0,11.0,0.0
2358,56.0,1.0,360.0,5.0,0.0
2359,56.0,8.0,120.0,12.0,0.0
2360,44.0,5.0,60.0,13.0,0.0
2361,44.0,0.0,120.0,3.0,0.0
2362,32.0,13.0,120.0,3.0,0.0
2363,32.0,15.0,60.0,14.0,0.0
2364,44.0,10.0,20.0,8.0,0.0
2365,84.0,0.0,15.0,7.0,0.0
2366,32.0,30.0,20.0,8.0,0.0
2367,44.0,0.0,120.0,13.0,0.0
2368,32.0,15.0,120.0,14.0,0.0
2369,44.0,9.0,20.0,8.0,0.0
2370,56.0,30.0,20.0,8.0,0.0
2371,56.0,5.0,120.0,12.0,0.0
2372,32.0,0.0,120.0,3.0,0.0
2373,44.0,10.0,20.0,8.0,0.0
2374,80.0,0.0,15.0,7.0,0.0
2375,84.0,5.0,15.0,7.0,0.0
2376,92.0,0.0,15.0,7.0,0.0
2377,32.0,30.0,20.0,8.0,0.0
2378,44.0,4.0,180.0,13.0,0.0
2379,32.0,17.0,180.0,14.0,0.0
2380,44.0,2.0,20.0,8.0,0.0
2381,60.0,0.0,120.0,10.0,0.0
2382,68.0,0.0,120.0,10.0,0.0
2383,56.0,2.0,120.0,11.0,0.0
2384,56.0,28.0,60.0,8.0,0.0
2385,60.0,8.0,15.0,4.0,0.0
2386,63.0,2.0,120.0,4.0,0.0
2387,44.0,0.0,120.0,12.0,0.0
2388,56.0,1.0,120.0,12.0,0.0
2389,32.0,0.0,540.0,13.0,0.0
2390,56.0,1.0,120.0,3.0,0.0
2391,44.0,18.0,15.0,3.0,0.0
2392,78.0,0.0,30.0,7.0,0.0
2393,90.0,2.0,30.0,7.0,0.0
2394,75.0,0.0,30.0,7.0,0.0
2395,87.0,30.0,30.0,7.0,0.0
2396,72.0,0.0,30.0,7.0,0.0
2397,84.0,2.0,30.0,7.0,0.0
2398,80.0,2.0,30.0,7.0,0.0
2399,68.0,28.0,30.0,8.0,0.0
2400,78.0,2.0,30.0,7.0,0.0
2401,66.0,28.0,30.0,8.0,0.0
2402,75.0,2.0,30.0,7.0,0.0
2403,63.0,28.0,30.0,8.0,0.0
2404,72.0,2.0,30.0,7.0,0.0
2405,60.0,28.0,30.0,8.0,0.0
2406,68.0,2.0,30.0,7.0,0.0
2407,56.0,28.0,30.0,8.0,0.0
2408,66.0,2.0,30.0,7.0,0.0
2409,54.0,28.0,30.0,8.0,0.0
2410,63.0,2.0,30.0,7.0,0.0
2411,51.0,28.0,30.0,8.0,0.0
2412,60.0,2.0,30.0,7.0,0.0
2413,48.0,28.0,30.0,8.0,0.0
2414,56.0,2.0,30.0,7.0,0.0
2415,44.0,28.0,30.0,8.0,0.0
2416,54.0,2.0,30.0,7.0,0.0
2417,42.0,28.0,30.0,8.0,0.0
2418,51.0,2.0,30.0,7.0,0.0
2419,39.0,28.0,30.0,8.0,0.0
2420,48.0,2.0,30.0,7.0,0.0
2421,36.0,58.0,30.0,8.0,0.0
2422,44.0,2.0,60.0,7.0,0.0
2423,32.0,110.0,60.0,8.0,0.0
2424,32.0,62.0,120.0,13.0,0.0
2425,65.0,2.0,60.0,10.0,0.0
2426,56.0,5.0,60.0,11.0,0.0
2427,49.0,1.0,60.0,12.0,0.0
2428,65.0,2.0,120.0,10.0,0.0
2429,56.0,50.0,60.0,11.0,0.0
2430,49.0,1.0,120.0,12.0,0.0
2431,32.0,62.0,120.0,13.0,0.0
2432,57.0,5.0,60.0,11.0,0.0
2433,65.0,2.0,120.0,10.0,0.0
2434,57.0,5.0,60.0,11.0,0.0
2435,49.0,45.0,60.0,12.0,0.0
2436,32.0,60.0,120.0,13.0,0.0
2437,58.0,5.0,60.0,11.0,0.0
2438,50.0,1.0,60.0,12.0,0.0
2439,65.0,6.0,60.0,10.0,0.0
2440,58.0,5.0,120.0,11.0,0.0
2441,65.0,1.0,60.0,2.0,0.0
2442,50.0,5.0,60.0,12.0,0.0
2443,32.0,6.0,120.0,13.0,0.0
2444,50.0,40.0,60.0,3.0,0.0
2445,56.0,0.0,60.0,3.0,0.0
2446,66.0,2.0,60.0,10.0,0.0
2447,66.0,6.0,60.0,2.0,0.0
2448,51.0,1.0,60.0,12.0,0.0
2449,51.0,48.0,60.0,3.0,0.0
2450,54.0,0.0,60.0,3.0,0.0
2451,66.0,2.0,60.0,10.0,0.0
2452,58.0,5.0,60.0,11.0,0.0
2453,51.0,45.0,60.0,12.0,0.0
2454,32.0,60.0,120.0,13.0,0.0
2455,67.0,2.0,60.0,10.0,0.0
2456,63.0,5.0,60.0,11.0,0.0
2457,49.0,1.0,60.0,12.0,0.0
2458,67.0,6.0,60.0,10.0,0.0
2459,67.0,1.0,60.0,2.0,0.0
2460,49.0,5.0,60.0,12.0,0.0
2461,32.0,2.0,120.0,13.0,0.0
2462,58.0,40.0,60.0,3.0,0.0
2463,49.0,0.0,60.0,3.0,0.0
2464,68.0,7.0,60.0,10.0,0.0
2465,68.0,6.0,60.0,2.0,0.0
2466,48.0,1.0,60.0,12.0,0.0
2467,48.0,0.0,60.0,3.0,0.0
2468,56.0,48.0,60.0,3.0,0.0
2469,68.0,2.0,60.0,10.0,0.0
2470,63.0,4.0,15.0,11.0,0.0
2471,48.0,45.0,60.0,12.0,0.0
2472,32.0,60.0,120.0,13.0,0.0
2473,66.0,2.0,60.0,10.0,0.0
2474,60.0,5.0,60.0,11.0,0.0
2475,51.0,1.0,60.0,12.0,0.0
2476,66.0,2.0,60.0,10.0,0.0
2477,60.0,4.0,60.0,11.0,0.0
2478,66.0,0.0,60.0,2.0,0.0
2479,60.0,1.0,60.0,2.0,0.0
2480,51.0,5.0,60.0,12.0,0.0
2481,32.0,6.0,120.0,13.0,0.0
2482,51.0,40.0,60.0,3.0,0.0
2483,54.0,0.0,60.0,3.0,0.0
2484,65.0,2.0,60.0,10.0,0.0
2485,56.0,5.0,60.0,11.0,0.0
2486,61.0,6.0,60.0,2.0,0.0
2487,65.0,0.0,60.0,2.0,0.0
2488,49.0,1.0,60.0,12.0,0.0
2489,49.0,48.0,60.0,3.0,0.0
2490,53.0,0.0,60.0,3.0,0.0
2491,65.0,2.0,60.0,10.0,0.0
2492,56.0,5.0,60.0,11.0,0.0
2493,49.0,45.0,60.0,12.0,0.0
2494,32.0,67.0,120.0,13.0,0.0
2495,73.0,2.0,60.0,10.0,0.0
2496,65.0,5.0,60.0,11.0,0.0
2497,56.0,1.0,60.0,12.0,0.0
2498,73.0,2.0,120.0,10.0,0.0
2499,65.0,5.0,120.0,11.0,0.0
2500,56.0,45.0,60.0,12.0,0.0
2501,32.0,60.0,120.0,13.0,0.0
2502,57.0,1.0,60.0,12.0,0.0
2503,73.0,2.0,60.0,10.0,0.0
2504,65.0,5.0,60.0,11.0,0.0
2505,57.0,45.0,60.0,12.0,0.0
2506,32.0,60.0,120.0,13.0,0.0
2507,74.0,2.0,60.0,10.0,0.0
2508,68.0,5.0,60.0,11.0,0.0
2509,58.0,1.0,60.0,12.0,0.0
2510,74.0,1.0,60.0,10.0,0.0
2511,74.0,1.0,60.0,0.0,0.0
2512,68.0,0.0,60.0,0.0,0.0
2513,68.0,2.0,60.0,11.0,0.0
2514,65.0,3.0,60.0,1.0,0.0
2515,58.0,45.0,60.0,12.0,0.0
2516,32.0,1.0,120.0,13.0,0.0
2517,75.0,2.0,60.0,10.0,0.0
2518,75.0,3.0,60.0,0.0,0.0
2519,67.0,0.0,60.0,0.0,0.0
2520,67.0,5.0,60.0,11.0,0.0
2521,70.0,56.0,60.0,1.0,0.0
2522,61.0,1.0,60.0,12.0,0.0
2523,75.0,2.0,60.0,10.0,0.0
2524,67.0,5.0,60.0,11.0,0.0
2525,61.0,45.0,60.0,12.0,0.0
2526,32.0,60.0,120.0,13.0,0.0
2527,68.0,2.0,60.0,10.0,0.0
2528,66.0,5.0,60.0,11.0,0.0
2529,60.0,1.0,60.0,12.0,0.0
2530,68.0,1.0,60.0,10.0,0.0
2531,63.0,0.0,60.0,0.0,0.0
2532,66.0,2.0,60.0,11.0,0.0
2533,66.0,3.0,60.0,1.0,0.0
2534,60.0,45.0,60.0,12.0,0.0
2535,32.0,1.0,120.0,13.0,0.0
2536,73.0,2.0,60.0,10.0,0.0
2537,68.0,1.0,15.0,0.0,0.0
2538,73.0,0.0,60.0,0.0,0.0
2539,65.0,5.0,60.0,11.0,0.0
2540,65.0,56.0,60.0,1.0,0.0
2541,59.0,1.0,60.0,12.0,0.0
2542,73.0,2.0,60.0,10.0,0.0
2543,65.0,5.0,60.0,11.0,0.0
2544,59.0,45.0,60.0,12.0,0.0
2545,32.0,60.0,120.0,13.0,0.0
2546,66.0,2.0,60.0,10.0,0.0
2547,61.0,5.0,60.0,11.0,0.0
2548,58.0,1.0,60.0,12.0,0.0
2549,66.0,6.0,60.0,10.0,0.0
2550,61.0,5.0,120.0,11.0,0.0
2551,61.0,6.0,120.0,2.0,0.0
2552,66.0,1.0,60.0,2.0,0.0
2553,58.0,5.0,60.0,12.0,0.0
2554,32.0,6.0,120.0,13.0,0.0
2555,58.0,40.0,60.0,3.0,0.0
2556,65.0,2.0,60.0,10.0,0.0
2557,65.0,0.0,60.0,2.0,0.0
2558,56.0,1.0,60.0,12.0,0.0
2559,56.0,48.0,60.0,3.0,0.0
2560,65.0,7.0,60.0,10.0,0.0
2561,61.0,5.0,120.0,11.0,0.0
2562,56.0,45.0,60.0,12.0,0.0
2563,32.0,60.0,120.0,13.0,0.0
2564,63.0,2.0,60.0,10.0,0.0
2565,55.0,1.0,60.0,12.0,0.0
2566,63.0,6.0,60.0,10.0,0.0
2567,61.0,5.0,120.0,11.0,0.0
2568,61.0,0.0,120.0,2.0,0.0
2569,63.0,1.0,60.0,2.0,0.0
2570,55.0,5.0,60.0,12.0,0.0
2571,32.0,6.0,120.0,13.0,0.0
2572,55.0,40.0,60.0,3.0,0.0
2573,70.0,2.0,60.0,10.0,0.0
2574,70.0,6.0,60.0,2.0,0.0
2575,54.0,1.0,60.0,12.0,0.0
2576,54.0,48.0,60.0,3.0,0.0
2577,70.0,2.0,60.0,10.0,0.0
2578,61.0,50.0,60.0,11.0,0.0
2579,54.0,1.0,120.0,12.0,0.0
2580,32.0,60.0,120.0,13.0,0.0
2581,68.0,2.0,60.0,10.0,0.0
2582,60.0,5.0,60.0,11.0,0.0
2583,51.0,0.0,60.0,12.0,0.0
2584,68.0,1.0,60.0,10.0,0.0
2585,68.0,0.0,60.0,0.0,0.0
2586,60.0,1.0,60.0,0.0,0.0
2587,60.0,5.0,60.0,11.0,0.0
2588,54.0,5.0,60.0,12.0,0.0
2589,51.0,0.0,60.0,12.0,0.0
2590,32.0,1.0,120.0,13.0,0.0
2591,54.0,40.0,60.0,3.0,0.0
2592,44.0,0.0,60.0,3.0,0.0
2593,61.0,2.0,60.0,10.0,0.0
2594,61.0,11.0,60.0,0.0,0.0
2595,61.0,5.0,60.0,11.0,0.0
2596,53.0,0.0,60.0,12.0,0.0
2597,49.0,1.0,60.0,12.0,0.0
2598,49.0,0.0,60.0,3.0,0.0
2599,53.0,48.0,60.0,3.0,0.0
2600,61.0,7.0,60.0,10.0,0.0
2601,53.0,5.0,120.0,11.0,0.0
2602,49.0,45.0,60.0,12.0,0.0
2603,32.0,60.0,120.0,13.0,0.0
2604,56.0,2.0,60.0,10.0,0.0
2605,47.0,1.0,60.0,12.0,0.0
2606,56.0,2.0,60.0,10.0,0.0
2607,53.0,5.0,60.0,11.0,0.0
2608,47.0,45.0,60.0,12.0,0.0
2609,32.0,60.0,120.0,13.0,0.0
2610,61.0,2.0,60.0,10.0,0.0
2611,54.0,5.0,60.0,11.0,0.0
2612,46.0,1.0,60.0,12.0,0.0
2613,61.0,2.0,60.0,10.0,0.0
2614,54.0,5.0,60.0,11.0,0.0
2615,46.0,45.0,60.0,12.0,0.0
2616,32.0,60.0,120.0,13.0,0.0
2617,56.0,2.0,60.0,10.0,0.0
2618,51.0,5.0,60.0,11.0,0.0
2619,48.0,1.0,60.0,12.0,0.0
2620,56.0,2.0,60.0,10.0,0.0
2621,51.0,4.0,60.0,11.0,0.0
2622,56.0,1.0,60.0,5.0,0.0
2623,48.0,5.0,60.0,12.0,0.0
2624,32.0,6.0,120.0,13.0,0.0
2625,48.0,40.0,60.0,3.0,0.0
2626,61.0,2.0,60.0,10.0,0.0
2627,53.0,5.0,60.0,11.0,0.0
2628,49.0,6.0,60.0,5.0,0.0
2629,49.0,1.0,60.0,12.0,0.0
2630,49.0,48.0,60.0,3.0,0.0
2631,61.0,7.0,60.0,10.0,0.0
2632,53.0,5.0,120.0,11.0,0.0
2633,49.0,45.0,60.0,12.0,0.0
2634,32.0,60.0,120.0,13.0,0.0
2635,56.0,2.0,60.0,10.0,0.0
2636,47.0,1.0,60.0,12.0,0.0
2637,56.0,2.0,60.0,10.0,0.0
2638,53.0,5.0,60.0,11.0,0.0
2639,47.0,45.0,60.0,12.0,0.0
2640,32.0,60.0,120.0,13.0,0.0
2641,61.0,2.0,60.0,10.0,0.0
2642,54.0,5.0,60.0,11.0,0.0
2643,46.0,1.0,60.0,12.0,0.0
2644,61.0,2.0,60.0,10.0,0.0
2645,54.0,5.0,60.0,11.0,0.0
2646,46.0,45.0,60.0,12.0,0.0
2647,32.0,62.0,120.0,13.0,0.0
2648,56.0,2.0,60.0,10.0,0.0
2649,51.0,5.0,60.0,11.0,0.0
2650,48.0,1.0,60.0,12.0,0.0
2651,56.0,2.0,120.0,10.0,0.0
2652,51.0,4.0,60.0,11.0,0.0
2653,56.0,1.0,60.0,2.0,0.0
2654,48.0,45.0,60.0,12.0,0.0
2655,32.0,6.0,120.0,13.0,0.0
2656,53.0,5.0,60.0,11.0,0.0
2657,49.0,56.0,60.0,2.0,0.0
2658,49.0,1.0,60.0,12.0,0.0
2659,56.0,2.0,120.0,10.0,0.0
2660,53.0,5.0,60.0,11.0,0.0
2661,49.0,45.0,60.0,12.0,0.0
2662,32.0,62.0,120.0,13.0,0.0
2663,51.0,5.0,60.0,11.0,0.0
2664,48.0,1.0,60.0,12.0,0.0
2665,56.0,2.0,120.0,10.0,0.0
2666,51.0,5.0,60.0,11.0,0.0
2667,48.0,45.0,60.0,12.0,0.0
2668,32.0,62.0,120.0,13.0,0.0
2669,53.0,5.0,60.0,11.0,0.0
2670,49.0,1.0,60.0,12.0,0.0
2671,56.0,2.0,120.0,10.0,0.0
2672,53.0,5.0,60.0,11.0,0.0
2673,49.0,45.0,60.0,12.0,0.0
2674,32.0,60.0,120.0,13.0,0.0
2675,51.0,5.0,60.0,11.0,0.0
2676,48.0,1.0,60.0,12.0,0.0
2677,51.0,5.0,60.0,11.0,0.0
2678,48.0,85.0,60.0,12.0,0.0
2679,32.0,2.0,60.0,13.0,0.0
2680,53.0,5.0,30.0,11.0,0.0
2681,49.0,1.0,30.0,12.0,0.0
2682,32.0,114.0,30.0,13.0,0.0
2683,51.0,5.0,30.0,11.0,0.0
2684,48.0,1.0,30.0,12.0,0.0
2685,32.0,114.0,30.0,13.0,0.0
2686,53.0,5.0,30.0,11.0,0.0
2687,49.0,1.0,30.0,12.0,0.0
2688,32.0,114.0,30.0,13.0,0.0
2689,51.0,5.0,30.0,11.0,0.0
2690,48.0,1.0,30.0,12.0,0.0
2691,32.0,119.0,30.0,13.0,0.0
2692,51.0,1.0,30.0,12.0,0.0
2693,46.0,5.0,30.0,13.0,0.0
2694,30.0,114.0,30.0,14.0,0.0
2695,49.0,1.0,30.0,12.0,0.0
2696,46.0,5.0,30.0,13.0,0.0
2697,30.0,114.0,30.0,14.0,0.0
2698,49.0,1.0,30.0,12.0,0.0
2699,44.0,5.0,30.0,13.0,0.0
2700,29.0,114.0,30.0,14.0,0.0
2701,48.0,1.0,30.0,12.0,0.0
2702,44.0,5.0,30.0,13.0,0.0
2703,29.0,35.0,30.0,14.0,0.0
2704,54.0,13.0,20.0,10.0,0.0
2705,48.0,1.0,30.0,12.0,0.0
2706,39.0,2.0,15.0,13.0,0.0
2707,27.0,2.0,30.0,14.0,0.0
2708,60.0,8.0,20.0,10.0,0.0
2709,39.0,4.0,15.0,13.0,0.0
2710,54.0,1.0,30.0,12.0,0.0
2711,39.0,12.0,15.0,13.0,0.0
2712,54.0,3.0,20.0,10.0,0.0
2713,27.0,10.0,30.0,14.0,0.0
2714,39.0,4.0,15.0,13.0,0.0
2715,60.0,13.0,20.0,10.0,0.0
2716,48.0,1.0,30.0,12.0,0.0
2717,39.0,2.0,15.0,13.0,0.0
2718,27.0,2.0,30.0,14.0,0.0
2719,54.0,8.0,20.0,10.0,0.0
2720,39.0,4.0,15.0,13.0,0.0
2721,54.0,1.0,30.0,12.0,0.0
2722,39.0,12.0,15.0,13.0,0.0
2723,60.0,3.0,20.0,10.0,0.0
2724,27.0,10.0,30.0,14.0,0.0
2725,39.0,4.0,15.0,13.0,0.0
2726,54.0,13.0,20.0,10.0,0.0
2727,48.0,1.0,30.0,12.0,0.0
2728,39.0,2.0,15.0,13.0,0.0
2729,27.0,2.0,30.0,14.0,0.0
2730,60.0,8.0,20.0,10.0,0.0
2731,39.0,4.0,15.0,13.0,0.0
2732,54.0,1.0,30.0,12.0,0.0
2733,39.0,12.0,15.0,13.0,0.0
2734,54.0,3.0,20.0,10.0,0.0
2735,27.0,10.0,30.0,14.0,0.0
2736,39.0,4.0,15.0,13.0,0.0
2737,60.0,13.0,20.0,10.0,0.0
2738,48.0,1.0,30.0,12.0,0.0
2739,39.0,2.0,15.0,13.0,0.0
2740,27.0,2.0,30.0,14.0,0.0
2741,54.0,8.0,20.0,10.0,0.0
2742,39.0,4.0,15.0,13.0,0.0
2743,54.0,1.0,30.0,12.0,0.0
2744,39.0,7.0,15.0,13.0,0.0
2745,60.0,7.0,15.0,10.0,0.0
2746,27.0,10.0,30.0,14.0,0.0
2747,39.0,5.0,15.0,13.0,0.0
2748,53.0,2.0,20.0,10.0,0.0
2749,60.0,2.0,20.0,11.0,0.0
2750,53.0,3.0,30.0,4.0,0.0
2751,48.0,1.0,30.0,12.0,0.0
2752,38.0,2.0,15.0,13.0,0.0
2753,26.0,1.0,30.0,14.0,0.0
2754,41.0,9.0,15.0,15.0,0.0
2755,65.0,2.0,20.0,10.0,0.0
2756,53.0,6.0,20.0,11.0,0.0
2757,38.0,1.0,15.0,13.0,0.0
2758,41.0,1.0,15.0,15.0,0.0
2759,53.0,1.0,30.0,12.0,0.0
2760,38.0,7.0,15.0,13.0,0.0
2761,53.0,2.0,20.0,10.0,0.0
2762,60.0,1.0,20.0,11.0,0.0
2763,26.0,2.0,30.0,14.0,0.0
2764,41.0,5.0,15.0,15.0,0.0
2765,38.0,4.0,15.0,13.0,0.0
2766,41.0,8.0,15.0,15.0,0.0
2767,65.0,2.0,20.0,10.0,0.0
2768,53.0,4.0,20.0,11.0,0.0
2769,58.0,2.0,120.0,4.0,0.0
2770,48.0,1.0,30.0,12.0,0.0
2771,38.0,2.0,15.0,13.0,0.0
2772,26.0,1.0,30.0,14.0,0.0
2773,41.0,7.0,15.0,15.0,0.0
2774,53.0,2.0,20.0,10.0,0.0
2775,60.0,6.0,20.0,11.0,0.0
2776,38.0,4.0,15.0,13.0,0.0
2777,41.0,1.0,15.0,15.0,0.0
2778,53.0,1.0,30.0,12.0,0.0
2779,38.0,8.0,15.0,13.0,0.0
2780,65.0,2.0,20.0,10.0,0.0
2781,53.0,1.0,20.0,11.0,0.0
2782,26.0,1.0,30.0,14.0,0.0
2783,41.0,4.0,15.0,15.0,0.0
2784,38.0,4.0,15.0,13.0,0.0
2785,41.0,9.0,15.0,15.0,0.0
2786,53.0,2.0,20.0,10.0,0.0
2787,60.0,2.0,20.0,11.0,0.0
2788,48.0,1.0,30.0,12.0,0.0
2789,38.0,2.0,15.0,13.0,0.0
2790,26.0,1.0,30.0,14.0,0.0
2791,41.0,9.0,15.0,15.0,0.0
2792,65.0,2.0,20.0,10.0,0.0
2793,53.0,6.0,20.0,11.0,0.0
2794,38.0,4.0,15.0,13.0,0.0
2795,41.0,1.0,15.0,15.0,0.0
2796,53.0,1.0,30.0,12.0,0.0
2797,38.0,6.0,15.0,13.0,0.0
2798,53.0,2.0,20.0,10.0,0.0
2799,60.0,1.0,20.0,11.0,0.0
2800,26.0,1.0,30.0,14.0,0.0
2801,41.0,4.0,15.0,15.0,0.0
2802,38.0,4.0,15.0,13.0,0.0
2803,41.0,9.0,15.0,15.0,0.0
2804,65.0,2.0,20.0,10.0,0.0
2805,53.0,2.0,20.0,11.0,0.0
2806,60.0,3.0,30.0,4.0,0.0
2807,48.0,1.0,30.0,12.0,0.0
2808,38.0,2.0,15.0,13.0,0.0
2809,26.0,2.0,30.0,14.0,0.0
2810,41.0,9.0,15.0,15.0,0.0
2811,53.0,2.0,20.0,10.0,0.0
2812,60.0,6.0,20.0,11.0,0.0
2813,38.0,1.0,15.0,13.0,0.0
2814,41.0,0.0,15.0,15.0,0.0
2815,53.0,1.0,30.0,12.0,0.0
2816,38.0,7.0,15.0,13.0,0.0
2817,65.0,2.0,15.0,10.0,0.0
2818,53.0,5.0,15.0,11.0,0.0
2819,26.0,1.0,30.0,14.0,0.0
2820,41.0,0.0,15.0,15.0,0.0
2821,38.0,5.0,15.0,13.0,0.0
2822,41.0,9.0,15.0,15.0,0.0
2823,58.0,2.0,20.0,10.0,0.0
2824,65.0,3.0,20.0,11.0,0.0
2825,65.0,4.0,240.0,4.0,0.0
2826,46.0,1.0,30.0,12.0,0.0
2827,37.0,2.0,15.0,13.0,0.0
2828,25.0,1.0,30.0,14.0,0.0
2829,41.0,8.0,15.0,15.0,0.0
2830,70.0,2.0,20.0,10.0,0.0
2831,58.0,6.0,20.0,11.0,0.0
2832,37.0,4.0,15.0,13.0,0.0
2833,41.0,1.0,15.0,15.0,0.0
2834,58.0,1.0,30.0,12.0,0.0
2835,37.0,8.0,15.0,13.0,0.0
2836,58.0,2.0,20.0,10.0,0.0
2837,65.0,1.0,20.0,11.0,0.0
2838,25.0,2.0,30.0,14.0,0.0
2839,41.0,4.0,15.0,15.0,0.0
2840,37.0,4.0,15.0,13.0,0.0
2841,70.0,2.0,20.0,10.0,0.0
2842,41.0,8.0,15.0,15.0,0.0
2843,58.0,4.0,20.0,11.0,0.0
2844,46.0,1.0,30.0,12.0,0.0
2845,37.0,2.0,15.0,13.0,0.0
2846,25.0,2.0,30.0,14.0,0.0
2847,41.0,7.0,15.0,15.0,0.0
2848,58.0,1.0,20.0,10.0,0.0
2849,65.0,6.0,20.0,11.0,0.0
2850,37.0,4.0,15.0,13.0,0.0
2851,41.0,1.0,15.0,15.0,0.0
2852,58.0,1.0,30.0,12.0,0.0
2853,37.0,7.0,15.0,13.0,0.0
2854,70.0,2.0,20.0,10.0,0.0
2855,58.0,1.0,20.0,11.0,0.0
2856,25.0,2.0,30.0,14.0,0.0
2857,41.0,5.0,15.0,15.0,0.0
2858,37.0,4.0,15.0,13.0,0.0
2859,58.0,2.0,20.0,10.0,0.0
2860,41.0,8.0,15.0,15.0,0.0
2861,65.0,4.0,20.0,11.0,0.0
2862,46.0,1.0,30.0,12.0,0.0
2863,37.0,2.0,15.0,13.0,0.0
2864,25.0,2.0,30.0,14.0,0.0
2865,41.0,7.0,15.0,15.0,0.0
2866,70.0,1.0,20.0,10.0,0.0
2867,58.0,6.0,20.0,11.0,0.0
2868,37.0,4.0,15.0,13.0,0.0
2869,41.0,1.0,15.0,15.0,0.0
2870,58.0,1.0,30.0,12.0,0.0
2871,37.0,8.0,15.0,13.0,0.0
2872,58.0,2.0,20.0,10.0,0.0
2873,65.0,1.0,20.0,11.0,0.0
2874,25.0,2.0,30.0,14.0,0.0
2875,41.0,4.0,15.0,15.0,0.0
2876,37.0,4.0,15.0,13.0,0.0
2877,41.0,8.0,15.0,15.0,0.0
2878,70.0,2.0,20.0,10.0,0.0
2879,58.0,2.0,20.0,11.0,0.0
2880,46.0,1.0,30.0,12.0,0.0
2881,37.0,2.0,15.0,13.0,0.0
2882,25.0,2.0,30.0,14.0,0.0
2883,41.0,9.0,15.0,15.0,0.0
2884,58.0,1.0,20.0,10.0,0.0
2885,65.0,6.0,20.0,11.0,0.0
2886,37.0,4.0,15.0,13.0,0.0
2887,41.0,1.0,15.0,15.0,0.0
2888,58.0,1.0,30.0,12.0,0.0
2889,37.0,7.0,15.0,13.0,0.0
2890,70.0,2.0,15.0,10.0,0.0
2891,58.0,5.0,15.0,11.0,0.0
2892,25.0,3.0,30.0,14.0,0.0
2893,41.0,0.0,15.0,15.0,0.0
2894,37.0,1.0,15.0,13.0,0.0
2895,65.0,2.0,20.0,10.0,0.0
2896,41.0,7.0,15.0,15.0,0.0
2897,70.0,2.0,20.0,11.0,0.0
2898,65.0,0.0,30.0,6.0,0.0
2899,53.0,1.0,30.0,12.0,0.0
2900,36.0,2.0,15.0,13.0,0.0
2901,24.0,1.0,30.0,14.0,0.0
2902,41.0,9.0,15.0,15.0,0.0
2903,77.0,2.0,20.0,10.0,0.0
2904,65.0,6.0,20.0,11.0,0.0
2905,36.0,4.0,15.0,13.0,0.0
2906,41.0,1.0,15.0,15.0,0.0
2907,58.0,1.0,30.0,12.0,0.0
2908,36.0,7.0,15.0,13.0,0.0
2909,65.0,2.0,20.0,10.0,0.0
2910,70.0,1.0,20.0,11.0,0.0
2911,24.0,3.0,30.0,14.0,0.0
2912,41.0,5.0,15.0,15.0,0.0
2913,36.0,4.0,15.0,13.0,0.0
2914,77.0,2.0,20.0,10.0,0.0
2915,41.0,7.0,15.0,15.0,0.0
2916,65.0,3.0,20.0,11.0,0.0
2917,70.0,2.0,120.0,6.0,0.0
2918,53.0,1.0,30.0,12.0,0.0
2919,36.0,2.0,15.0,13.0,0.0
2920,24.0,2.0,30.0,14.0,0.0
2921,41.0,8.0,15.0,15.0,0.0
2922,65.0,1.0,20.0,10.0,0.0
2923,70.0,6.0,20.0,11.0,0.0
2924,36.0,4.0,15.0,13.0,0.0
2925,41.0,1.0,15.0,15.0,0.0
2926,58.0,1.0,30.0,12.0,0.0
2927,36.0,7.0,15.0,13.0,0.0
2928,77.0,2.0,20.0,10.0,0.0
2929,65.0,1.0,20.0,11.0,0.0
2930,24.0,3.0,30.0,14.0,0.0
2931,41.0,5.0,15.0,15.0,0.0
2932,36.0,4.0,15.0,13.0,0.0
2933,65.0,2.0,20.0,10.0,0.0
2934,41.0,7.0,15.0,15.0,0.0
2935,70.0,3.0,20.0,11.0,0.0
2936,53.0,1.0,30.0,12.0,0.0
2937,36.0,2.0,15.0,13.0,0.0
2938,24.0,2.0,30.0,14.0,0.0
2939,41.0,8.0,15.0,15.0,0.0
2940,77.0,1.0,20.0,10.0,0.0
2941,65.0,6.0,20.0,11.0,0.0
2942,36.0,4.0,15.0,13.0,0.0
2943,41.0,1.0,15.0,15.0,0.0
2944,58.0,1.0,30.0,12.0,0.0
2945,36.0,5.0,15.0,13.0,0.0
2946,65.0,2.0,20.0,10.0,0.0
2947,70.0,1.0,20.0,11.0,0.0
2948,24.0,1.0,30.0,14.0,0.0
2949,41.0,5.0,15.0,15.0,0.0
2950,36.0,4.0,15.0,13.0,0.0
2951,41.0,9.0,15.0,15.0,0.0
2952,77.0,2.0,20.0,10.0,0.0
2953,65.0,3.0,20.0,11.0,0.0
2954,72.0,0.0,30.0,6.0,0.0
2955,53.0,1.0,30.0,12.0,0.0
2956,36.0,2.0,15.0,13.0,0.0
2957,24.0,2.0,30.0,14.0,0.0
2958,41.0,8.0,15.0,15.0,0.0
2959,65.0,0.0,20.0,10.0,0.0
2960,70.0,6.0,20.0,11.0,0.0
2961,36.0,4.0,15.0,13.0,0.0
2962,41.0,2.0,15.0,15.0,0.0
2963,58.0,1.0,30.0,12.0,0.0
2964,36.0,7.0,15.0,13.0,0.0
2965,77.0,1.0,15.0,10.0,0.0
2966,65.0,5.0,15.0,11.0,0.0
2967,24.0,1.0,30.0,14.0,0.0
2968,41.0,1.0,15.0,15.0,0.0
2969,36.0,5.0,15.0,13.0,0.0
2970,41.0,9.0,15.0,15.0,0.0
2971,65.0,2.0,20.0,10.0,0.0
2972,77.0,3.0,20.0,11.0,0.0
2973,77.0,0.0,240.0,6.0,0.0
2974,65.0,3.0,240.0,4.0,0.0
2975,53.0,3.0,30.0,12.0,0.0
2976,35.0,2.0,15.0,13.0,0.0
2977,35.0,5.0,240.0,14.0,0.0
2978,41.0,8.0,15.0,15.0,0.0
2979,77.0,1.0,20.0,10.0,0.0
2980,68.0,6.0,20.0,11.0,0.0
2981,35.0,4.0,15.0,13.0,0.0
2982,41.0,1.0,15.0,15.0,0.0
2983,62.0,2.0,30.0,12.0,0.0
2984,35.0,6.0,15.0,13.0,0.0
2985,65.0,2.0,20.0,10.0,0.0
2986,77.0,1.0,20.0,11.0,0.0
2987,41.0,6.0,15.0,15.0,0.0
2988,35.0,4.0,15.0,13.0,0.0
2989,41.0,9.0,15.0,15.0,0.0
2990,77.0,2.0,20.0,10.0,0.0
2991,68.0,4.0,20.0,11.0,0.0
2992,53.0,3.0,30.0,12.0,0.0
2993,35.0,2.0,15.0,13.0,0.0
2994,41.0,7.0,15.0,15.0,0.0
2995,65.0,0.0,20.0,10.0,0.0
2996,77.0,6.0,20.0,11.0,0.0
2997,35.0,4.0,15.0,13.0,0.0
2998,41.0,2.0,15.0,15.0,0.0
2999,62.0,2.0,30.0,12.0,0.0
3000,35.0,8.0,15.0,13.0,0.0
3001,77.0,2.0,20.0,10.0,0.0
3002,68.0,1.0,20.0,11.0,0.0
3003,41.0,4.0,15.0,15.0,0.0
3004,35.0,4.0,15.0,13.0,0.0
3005,41.0,9.0,15.0,15.0,0.0
3006,65.0,2.0,20.0,10.0,0.0
3007,47.0,2.0,60.0,8.0,0.0
3008,77.0,4.0,20.0,11.0,0.0
3009,53.0,3.0,60.0,8.0,0.0
3010,56.0,1.0,60.0,8.0,0.0
3011,65.0,0.0,60.0,8.0,0.0
3012,53.0,2.0,30.0,12.0,0.0
3013,35.0,2.0,15.0,13.0,0.0
3014,77.0,0.0,60.0,7.0,0.0
3015,89.0,0.0,60.0,7.0,0.0
3016,80.0,0.0,60.0,7.0,0.0
3017,41.0,7.0,15.0,15.0,0.0
3018,77.0,2.0,20.0,10.0,0.0
3019,68.0,6.0,20.0,11.0,0.0
3020,35.0,4.0,15.0,13.0,0.0
3021,41.0,1.0,15.0,15.0,0.0
3022,62.0,2.0,30.0,12.0,0.0
3023,35.0,8.0,15.0,13.0,0.0
3024,65.0,0.0,20.0,10.0,0.0
3025,77.0,1.0,20.0,11.0,0.0
3026,41.0,4.0,15.0,15.0,0.0
3027,35.0,0.0,15.0,13.0,0.0
3028,41.0,9.0,15.0,15.0,0.0
3029,77.0,2.0,20.0,10.0,0.0
3030,68.0,4.0,20.0,11.0,0.0
3031,53.0,2.0,30.0,12.0,0.0
3032,35.0,2.0,15.0,13.0,0.0
3033,41.0,7.0,15.0,15.0,0.0
3034,65.0,2.0,20.0,10.0,0.0
3035,77.0,6.0,20.0,11.0,0.0
3036,35.0,4.0,15.0,13.0,0.0
3037,41.0,1.0,15.0,15.0,0.0
3038,62.0,6.0,30.0,12.0,0.0
3039,35.0,8.0,15.0,13.0,0.0
3040,77.0,2.0,20.0,10.0,0.0
3041,68.0,1.0,20.0,11.0,0.0
3042,41.0,4.0,15.0,15.0,0.0
3043,35.0,1.0,15.0,13.0,0.0
3044,48.0,2.0,60.0,8.0,0.0
3045,72.0,2.0,20.0,10.0,0.0
3046,77.0,11.0,20.0,11.0,0.0
3047,53.0,1.0,60.0,8.0,0.0
3048,72.0,0.0,60.0,6.0,0.0
3049,60.0,2.0,60.0,4.0,0.0
3050,55.0,1.0,60.0,8.0,0.0
3051,55.0,3.0,30.0,12.0,0.0
3052,65.0,2.0,60.0,8.0,0.0
3053,36.0,2.0,15.0,13.0,0.0
3054,77.0,4.0,60.0,7.0,0.0
3055,89.0,0.0,60.0,7.0,0.0
3056,79.0,0.0,60.0,7.0,0.0
3057,36.0,2.0,60.0,14.0,0.0
3058,41.0,3.0,60.0,15.0,0.0
3059,79.0,2.0,20.0,10.0,0.0
3060,67.0,6.0,20.0,11.0,0.0
3061,36.0,4.0,15.0,13.0,0.0
3062,65.0,0.0,30.0,12.0,0.0
3063,36.0,12.0,15.0,13.0,0.0
3064,72.0,0.0,20.0,10.0,0.0
3065,77.0,1.0,20.0,11.0,0.0
3066,36.0,0.0,15.0,13.0,0.0
3067,79.0,2.0,20.0,10.0,0.0
3068,67.0,11.0,20.0,11.0,0.0
3069,55.0,3.0,30.0,12.0,0.0
3070,36.0,2.0,15.0,13.0,0.0
3071,72.0,2.0,20.0,10.0,0.0
3072,77.0,6.0,20.0,11.0,0.0
3073,36.0,4.0,15.0,13.0,0.0
3074,65.0,11.0,30.0,12.0,0.0
3075,36.0,12.0,15.0,13.0,0.0
3076,79.0,2.0,20.0,10.0,0.0
3077,67.0,1.0,20.0,11.0,0.0
3078,36.0,4.0,15.0,13.0,0.0
3079,72.0,2.0,20.0,10.0,0.0
3080,48.0,0.0,60.0,8.0,0.0
3081,76.0,11.0,20.0,11.0,0.0
3082,52.0,0.0,60.0,8.0,0.0
3083,72.0,0.0,60.0,6.0,0.0
3084,60.0,2.0,60.0,4.0,0.0
3085,55.0,1.0,60.0,8.0,0.0
3086,55.0,3.0,30.0,12.0,0.0
3087,64.0,0.0,60.0,8.0,0.0
3088,36.0,2.0,15.0,13.0,0.0
3089,76.0,0.0,60.0,7.0,0.0
3090,79.0,4.0,60.0,7.0,0.0
3091,88.0,0.0,60.0,7.0,0.0
3092,24.0,5.0,60.0,14.0,0.0
3093,79.0,2.0,20.0,10.0,0.0
3094,67.0,6.0,20.0,11.0,0.0
3095,36.0,4.0,15.0,13.0,0.0
3096,64.0,2.0,30.0,12.0,0.0
3097,36.0,12.0,15.0,13.0,0.0
3098,72.0,2.0,20.0,10.0,0.0
3099,76.0,1.0,20.0,11.0,0.0
3100,36.0,1.0,15.0,13.0,0.0
3101,79.0,2.0,20.0,10.0,0.0
3102,67.0,11.0,20.0,11.0,0.0
3103,55.0,3.0,30.0,12.0,0.0
3104,36.0,2.0,15.0,13.0,0.0
3105,72.0,2.0,20.0,10.0,0.0
3106,76.0,6.0,20.0,11.0,0.0
3107,36.0,4.0,15.0,13.0,0.0
3108,64.0,23.0,30.0,12.0,0.0
3109,36.0,12.0,15.0,13.0,0.0
3110,79.0,2.0,20.0,10.0,0.0
3111,67.0,1.0,20.0,11.0,0.0
3112,36.0,4.0,15.0,13.0,0.0
3113,77.0,0.0,30.0,10.0,0.0
3114,41.0,3.0,60.0,8.0,0.0
3115,69.0,2.0,30.0,10.0,0.0
3116,60.0,0.0,30.0,10.0,0.0
3117,77.0,1.0,30.0,11.0,0.0
3118,65.0,0.0,30.0,11.0,0.0
3119,65.0,1.0,30.0,6.0,0.0
3120,48.0,4.0,60.0,8.0,0.0
3121,65.0,0.0,30.0,4.0,0.0
3122,53.0,4.0,30.0,4.0,0.0
3123,53.0,0.0,120.0,12.0,0.0
3124,57.0,2.0,60.0,8.0,0.0
3125,65.0,13.0,120.0,12.0,0.0
3126,41.0,5.0,30.0,13.0,0.0
3127,81.0,6.0,60.0,7.0,0.0
3128,29.0,17.0,30.0,14.0,0.0
3129,41.0,5.0,60.0,15.0,0.0
3130,89.0,0.0,15.0,7.0,0.0
3131,65.0,20.0,20.0,8.0,0.0
3132,53.0,0.0,180.0,8.0,0.0
3133,77.0,0.0,15.0,7.0,0.0
3134,46.0,2.0,120.0,13.0,0.0
3135,34.0,12.0,120.0,14.0,0.0
3136,88.0,0.0,20.0,7.0,0.0
3137,64.0,20.0,20.0,8.0,0.0
3138,87.0,7.0,20.0,7.0,0.0
3139,63.0,0.0,20.0,8.0,0.0
3140,77.0,2.0,30.0,10.0,0.0
3141,61.0,0.0,30.0,10.0,0.0
3142,70.0,0.0,30.0,10.0,0.0
3143,62.0,10.0,20.0,8.0,0.0
3144,86.0,0.0,20.0,7.0,0.0
3145,61.0,0.0,30.0,11.0,0.0
3146,58.0,0.0,30.0,11.0,0.0
3147,65.0,1.0,30.0,11.0,0.0
3148,58.0,1.0,30.0,6.0,0.0
3149,65.0,0.0,30.0,6.0,0.0
3150,46.0,6.0,30.0,4.0,0.0
3151,58.0,0.0,30.0,4.0,0.0
3152,46.0,5.0,60.0,15.0,0.0
3153,85.0,18.0,20.0,7.0,0.0
3154,61.0,0.0,20.0,8.0,0.0
3155,60.0,0.0,20.0,8.0,0.0
3156,84.0,3.0,20.0,7.0,0.0
3157,83.0,18.0,20.0,7.0,0.0
3158,59.0,0.0,20.0,8.0,0.0
3159,49.0,2.0,30.0,13.0,0.0
3160,37.0,17.0,30.0,14.0,0.0
3161,58.0,0.0,20.0,8.0,0.0
3162,82.0,3.0,20.0,7.0,0.0
3163,57.0,20.0,20.0,8.0,0.0
3164,81.0,0.0,20.0,7.0,0.0
3165,56.0,10.0,20.0,8.0,0.0
3166,77.0,2.0,30.0,10.0,0.0
3167,80.0,0.0,20.0,7.0,0.0
3168,69.0,0.0,30.0,10.0,0.0
3169,60.0,0.0,30.0,10.0,0.0
3170,60.0,1.0,30.0,11.0,0.0
3171,53.0,0.0,30.0,11.0,0.0
3172,65.0,0.0,30.0,11.0,0.0
3173,53.0,0.0,30.0,6.0,0.0
3174,65.0,1.0,30.0,6.0,0.0
3175,60.0,0.0,30.0,4.0,0.0
3176,53.0,3.0,30.0,4.0,0.0
3177,53.0,1.0,30.0,12.0,0.0
3178,53.0,2.0,30.0,13.0,0.0
3179,41.0,17.0,120.0,14.0,0.0
3180,41.0,5.0,60.0,15.0,0.0
3181,79.0,0.0,20.0,7.0,0.0
3182,55.0,20.0,20.0,8.0,0.0
3183,54.0,0.0,20.0,8.0,0.0
3184,78.0,15.0,20.0,7.0,0.0
3185,53.0,20.0,20.0,8.0,0.0
3186,41.0,20.0,180.0,8.0,0.0
3187,77.0,0.0,20.0,7.0,0.0
3188,65.0,0.0,180.0,7.0,0.0
3189,58.0,1.0,120.0,12.0,0.0
3190,58.0,2.0,120.0,13.0,0.0
3191,52.0,20.0,20.0,8.0,0.0
3192,76.0,0.0,20.0,7.0,0.0
3193,75.0,0.0,20.0,7.0,0.0
3194,51.0,3.0,20.0,8.0,0.0
3195,77.0,2.0,30.0,10.0,0.0
3196,61.0,0.0,30.0,10.0,0.0
3197,74.0,0.0,20.0,7.0,0.0
3198,50.0,10.0,20.0,8.0,0.0
3199,70.0,0.0,30.0,10.0,0.0
3200,58.0,1.0,30.0,11.0,0.0
3201,61.0,0.0,30.0,11.0,0.0
3202,65.0,0.0,30.0,11.0,0.0
3203,65.0,0.0,30.0,6.0,0.0
3204,58.0,1.0,30.0,6.0,0.0
3205,58.0,6.0,30.0,4.0,0.0
3206,46.0,0.0,30.0,4.0,0.0
3207,29.0,17.0,240.0,14.0,0.0
3208,46.0,5.0,60.0,15.0,0.0
3209,73.0,17.0,20.0,7.0,0.0
3210,49.0,0.0,20.0,8.0,0.0
3211,48.0,15.0,20.0,8.0,0.0
3212,72.0,0.0,20.0,7.0,0.0
3213,47.0,17.0,20.0,8.0,0.0
3214,71.0,0.0,20.0,7.0,0.0
3215,61.0,1.0,30.0,12.0,0.0
3216,61.0,2.0,30.0,13.0,0.0
3217,46.0,20.0,20.0,8.0,0.0
3218,70.0,0.0,20.0,7.0,0.0
3219,69.0,0.0,20.0,7.0,0.0
3220,45.0,0.0,20.0,8.0,0.0
3221,60.0,0.0,30.0,10.0,0.0
3222,77.0,2.0,30.0,10.0,0.0
3223,69.0,0.0,30.0,10.0,0.0
3224,44.0,0.0,20.0,8.0,0.0
3225,68.0,10.0,20.0,7.0,0.0
3226,65.0,1.0,30.0,11.0,0.0
3227,53.0,0.0,30.0,6.0,0.0
3228,65.0,1.0,30.0,6.0,0.0
3229,53.0,0.0,30.0,4.0,0.0
3230,60.0,3.0,30.0,4.0,0.0
3231,53.0,3.0,30.0,12.0,0.0
3232,65.0,2.0,120.0,13.0,0.0
3233,41.0,5.0,60.0,15.0,0.0
3234,43.0,20.0,20.0,8.0,0.0
3235,67.0,0.0,20.0,7.0,0.0
3236,42.0,15.0,20.0,8.0,0.0
3237,66.0,0.0,20.0,7.0,0.0
3238,53.0,20.0,180.0,7.0,0.0
3239,65.0,20.0,20.0,7.0,0.0
3240,41.0,0.0,20.0,8.0,0.0
3241,29.0,0.0,180.0,8.0,0.0
3242,70.0,5.0,120.0,11.0,0.0
3243,58.0,3.0,120.0,12.0,0.0
3244,40.0,0.0,20.0,8.0,0.0
3245,64.0,18.0,20.0,7.0,0.0
3246,39.0,0.0,20.0,8.0,0.0
3247,63.0,3.0,20.0,7.0,0.0
3248,61.0,1.0,30.0,10.0,0.0
3249,70.0,0.0,30.0,10.0,0.0
3250,77.0,0.0,30.0,10.0,0.0
3251,62.0,0.0,20.0,7.0,0.0
3252,38.0,10.0,20.0,8.0,0.0
3253,82.0,2.0,30.0,0.0,0.0
3254,89.0,0.0,30.0,0.0,0.0
3255,58.0,0.0,30.0,6.0,0.0
3256,65.0,1.0,30.0,6.0,0.0
3257,73.0,2.0,30.0,1.0,0.0
3258,46.0,0.0,30.0,4.0,0.0
3259,77.0,0.0,30.0,1.0,0.0
3260,58.0,0.0,30.0,4.0,0.0
3261,61.0,0.0,30.0,2.0,0.0
3262,70.0,2.0,30.0,2.0,0.0
3263,58.0,0.0,30.0,13.0,0.0
3264,49.0,2.0,30.0,13.0,0.0
3265,58.0,1.0,30.0,3.0,0.0
3266,49.0,0.0,30.0,3.0,0.0
3267,41.0,9.0,30.0,14.0,0.0
3268,46.0,5.0,60.0,15.0,0.0
3269,61.0,0.0,20.0,7.0,0.0
3270,37.0,2.0,20.0,8.0,0.0
3271,36.0,15.0,20.0,8.0,0.0
3272,60.0,0.0,20.0,7.0,0.0
3273,35.0,12.0,20.0,8.0,0.0
3274,59.0,0.0,20.0,7.0,0.0
3275,73.0,5.0,30.0,11.0,0.0
3276,61.0,3.0,30.0,12.0,0.0
3277,58.0,0.0,20.0,7.0,0.0
3278,34.0,20.0,20.0,8.0,0.0
3279,57.0,0.0,20.0,7.0,0.0
3280,33.0,0.0,20.0,8.0,0.0
3281,60.0,1.0,30.0,10.0,0.0
3282,32.0,0.0,20.0,8.0,0.0
3283,56.0,10.0,20.0,7.0,0.0
3284,77.0,0.0,30.0,10.0,0.0
3285,69.0,0.0,30.0,10.0,0.0
3286,81.0,1.0,30.0,0.0,0.0
3287,89.0,0.0,30.0,0.0,0.0
3288,65.0,1.0,30.0,11.0,0.0
3289,77.0,0.0,30.0,11.0,0.0
3290,65.0,1.0,30.0,6.0,0.0
3291,53.0,0.0,30.0,6.0,0.0
3292,77.0,2.0,30.0,1.0,0.0
3293,53.0,0.0,30.0,4.0,0.0
3294,41.0,0.0,30.0,4.0,0.0
3295,72.0,0.0,30.0,1.0,0.0
3296,69.0,1.0,30.0,2.0,0.0
3297,60.0,0.0,30.0,2.0,0.0
3298,57.0,1.0,30.0,12.0,0.0
3299,65.0,0.0,30.0,12.0,0.0
3300,57.0,0.0,30.0,13.0,0.0
3301,48.0,2.0,30.0,13.0,0.0
3302,57.0,1.0,30.0,3.0,0.0
3303,48.0,0.0,30.0,3.0,0.0
3304,41.0,17.0,30.0,14.0,0.0
3305,41.0,5.0,60.0,15.0,0.0
3306,31.0,0.0,20.0,8.0,0.0
3307,55.0,2.0,20.0,7.0,0.0
3308,55.0,0.0,20.0,7.0,0.0
3309,31.0,15.0,20.0,8.0,0.0
3310,29.0,0.0,20.0,8.0,0.0
3311,29.0,20.0,20.0,8.0,0.0
3312,53.0,20.0,15.0,7.0,0.0
3313,52.0,20.0,20.0,7.0,0.0
3314,28.0,0.0,20.0,8.0,0.0
3315,29.0,10.0,20.0,8.0,0.0
3316,53.0,0.0,20.0,7.0,0.0
3317,60.0,1.0,30.0,10.0,0.0
3318,69.0,0.0,30.0,10.0,0.0
3319,77.0,0.0,30.0,10.0,0.0
3320,89.0,0.0,30.0,0.0,0.0
3321,81.0,1.0,30.0,0.0,0.0
3322,77.0,1.0,30.0,11.0,0.0
3323,65.0,0.0,30.0,11.0,0.0
3324,65.0,0.0,30.0,6.0,0.0
3325,53.0,1.0,30.0,6.0,0.0
3326,77.0,0.0,30.0,1.0,0.0
3327,72.0,0.0,30.0,1.0,0.0
3328,53.0,0.0,30.0,4.0,0.0
3329,41.0,2.0,30.0,4.0,0.0
3330,69.0,0.0,30.0,2.0,0.0
3331,60.0,1.0,30.0,2.0,0.0
3332,65.0,1.0,30.0,12.0,0.0
3333,57.0,0.0,30.0,12.0,0.0
3334,48.0,0.0,30.0,13.0,0.0
3335,57.0,2.0,30.0,13.0,0.0
3336,57.0,1.0,30.0,3.0,0.0
3337,48.0,0.0,30.0,3.0,0.0
3338,41.0,17.0,30.0,14.0,0.0
3339,41.0,5.0,60.0,15.0,0.0
3340,52.0,0.0,20.0,7.0,0.0
3341,28.0,2.0,20.0,8.0,0.0
3342,53.0,15.0,20.0,7.0,0.0
3343,29.0,0.0,20.0,8.0,0.0
3344,28.0,20.0,20.0,8.0,0.0
3345,52.0,0.0,20.0,7.0,0.0
3346,29.0,20.0,20.0,8.0,0.0
3347,53.0,0.0,20.0,7.0,0.0
3348,28.0,16.0,20.0,8.0,0.0
3349,52.0,0.0,20.0,7.0,0.0
3350,60.0,0.0,30.0,10.0,0.0
3351,29.0,15.0,60.0,8.0,0.0
3352,77.0,2.0,30.0,10.0,0.0
3353,69.0,0.0,30.0,10.0,0.0
3354,81.0,3.0,240.0,0.0,0.0
3355,89.0,0.0,240.0,0.0,0.0
3356,53.0,14.0,15.0,7.0,0.0
3357,77.0,0.0,30.0,11.0,0.0
3358,65.0,3.0,30.0,11.0,0.0
3359,53.0,1.0,1080.0,6.0,0.0
3360,65.0,0.0,1080.0,6.0,0.0
3361,53.0,0.0,240.0,4.0,0.0
3362,72.0,11.0,120.0,1.0,0.0
3363,77.0,2.0,240.0,1.0,0.0
3364,65.0,1.0,240.0,2.0,0.0
3365,69.0,0.0,240.0,2.0,0.0
3366,57.0,5.0,240.0,12.0,0.0
3367,53.0,0.0,240.0,12.0,0.0
3368,41.0,0.0,30.0,13.0,0.0
3369,48.0,0.0,30.0,13.0,0.0
3370,57.0,5.0,30.0,13.0,0.0
3371,41.0,0.0,240.0,3.0,0.0
3372,57.0,3.0,240.0,3.0,0.0
3373,29.0,11.0,30.0,14.0,0.0
3374,41.0,1.0,60.0,15.0,0.0
3375,52.0,3.0,15.0,7.0,0.0
3376,53.0,6.0,15.0,7.0,0.0
3377,52.0,20.0,15.0,7.0,0.0
3378,53.0,20.0,15.0,7.0,0.0
3379,52.0,8.0,15.0,7.0,0.0
3380,53.0,21.0,15.0,7.0,0.0
3381,52.0,19.0,15.0,7.0,0.0
3382,53.0,21.0,15.0,7.0,0.0
3383,52.0,19.0,15.0,7.0,0.0
3384,53.0,21.0,15.0,7.0,0.0
3385,52.0,5.0,15.0,7.0,0.0
3386,53.0,21.0,15.0,7.0,0.0
3387,88.0,0.0,240.0,0.0,0.0
3388,82.0,3.0,240.0,0.0,0.0
3389,76.0,0.0,240.0,1.0,0.0
3390,58.0,2.0,240.0,4.0,0.0
3391,70.0,0.0,240.0,2.0,0.0
3392,64.0,1.0,240.0,2.0,0.0
3393,55.0,0.0,240.0,12.0,0.0
3394,58.0,5.0,240.0,12.0,0.0
3395,43.0,4.0,240.0,3.0,0.0
3396,58.0,0.0,240.0,3.0,0.0
3397,52.0,21.0,15.0,7.0,0.0
3398,53.0,18.0,15.0,7.0,0.0
3399,52.0,21.0,15.0,7.0,0.0
3400,53.0,20.0,15.0,7.0,0.0
3401,52.0,20.0,15.0,7.0,0.0
3402,53.0,20.0,15.0,7.0,0.0
3403,52.0,20.0,15.0,7.0,0.0
3404,53.0,20.0,15.0,7.0,0.0
3405,52.0,20.0,15.0,7.0,0.0
3406,53.0,20.0,15.0,7.0,0.0
3407,52.0,5.0,15.0,7.0,0.0
3408,84.0,0.0,240.0,0.0,0.0
3409,53.0,21.0,15.0,7.0,0.0
3410,87.0,3.0,240.0,0.0,0.0
3411,75.0,0.0,240.0,1.0,0.0
3412,60.0,2.0,240.0,4.0,0.0
3413,72.0,0.0,240.0,2.0,0.0
3414,63.0,1.0,240.0,2.0,0.0
3415,60.0,0.0,240.0,12.0,0.0
3416,57.0,5.0,240.0,12.0,0.0
3417,45.0,0.0,240.0,3.0,0.0
3418,60.0,2.0,240.0,3.0,0.0
3419,52.0,18.0,15.0,7.0,0.0
3420,53.0,21.0,15.0,7.0,0.0
3421,52.0,20.0,15.0,7.0,0.0
3422,53.0,19.0,15.0,7.0,0.0
3423,52.0,20.0,15.0,7.0,0.0
3424,53.0,21.0,15.0,7.0,0.0
3425,52.0,21.0,15.0,7.0,0.0
3426,53.0,19.0,15.0,7.0,0.0
3427,52.0,21.0,15.0,7.0,0.0
3428,53.0,18.0,15.0,7.0,0.0
3429,52.0,6.0,15.0,7.0,0.0
3430,53.0,20.0,15.0,7.0,0.0
3431,82.0,3.0,240.0,0.0,0.0
3432,85.0,0.0,240.0,0.0,0.0
3433,65.0,2.0,360.0,4.0,0.0
3434,73.0,2.0,240.0,1.0,0.0
3435,73.0,0.0,240.0,2.0,0.0
3436,70.0,1.0,240.0,2.0,0.0
3437,58.0,0.0,240.0,12.0,0.0
3438,61.0,5.0,240.0,12.0,0.0
3439,46.0,0.0,240.0,3.0,0.0
3440,61.0,8.0,240.0,3.0,0.0
3441,52.0,20.0,15.0,7.0,0.0
3442,53.0,22.0,15.0,7.0,0.0
3443,52.0,20.0,15.0,7.0,0.0
3444,53.0,19.0,15.0,7.0,0.0
3445,52.0,19.0,15.0,7.0,0.0
3446,53.0,22.0,15.0,7.0,0.0
3447,52.0,19.0,15.0,7.0,0.0
3448,53.0,20.0,15.0,7.0,0.0
3449,52.0,20.0,15.0,7.0,0.0
3450,53.0,21.0,15.0,7.0,0.0
3451,52.0,5.0,15.0,7.0,0.0
3452,53.0,20.0,20.0,7.0,0.0
3453,84.0,0.0,120.0,0.0,0.0
3454,81.0,2.0,120.0,0.0,0.0
3455,72.0,0.0,120.0,1.0,0.0
3456,72.0,1.0,120.0,2.0,0.0
3457,69.0,0.0,120.0,2.0,0.0
3458,60.0,5.0,120.0,12.0,0.0
3459,57.0,0.0,120.0,12.0,0.0
3460,60.0,8.0,120.0,3.0,0.0
3461,53.0,0.0,120.0,3.0,0.0
3462,57.0,20.0,20.0,7.0,0.0
3463,60.0,20.0,20.0,7.0,0.0
3464,57.0,20.0,20.0,7.0,0.0
3465,60.0,20.0,20.0,7.0,0.0
3466,63.0,1.0,20.0,7.0,0.0
3467,60.0,20.0,20.0,7.0,0.0
3468,63.0,20.0,20.0,7.0,0.0
3469,66.0,20.0,20.0,7.0,0.0
3470,63.0,20.0,20.0,7.0,0.0
3471,66.0,20.0,20.0,7.0,0.0
3472,72.0,20.0,20.0,7.0,0.0
3473,66.0,20.0,20.0,7.0,0.0
3474,72.0,20.0,20.0,7.0,0.0
3475,75.0,20.0,20.0,7.0,0.0
3476,72.0,20.0,20.0,7.0,0.0
3477,75.0,20.0,20.0,7.0,0.0
3478,78.0,20.0,20.0,7.0,0.0
3479,77.0,20.0,20.0,7.0,0.0
3480,75.0,20.0,20.0,7.0,0.0
3481,73.0,20.0,20.0,7.0,0.0
3482,72.0,20.0,20.0,7.0,0.0
3483,75.0,20.0,20.0,7.0,0.0
3484,78.0,20.0,20.0,7.0,0.0
3485,77.0,20.0,20.0,7.0,0.0
3486,75.0,20.0,20.0,7.0,0.0
3487,73.0,20.0,20.0,7.0,0.0
3488,72.0,20.0,20.0,7.0,0.0
3489,75.0,20.0,20.0,7.0,0.0
3490,78.0,20.0,20.0,7.0,0.0
3491,75.0,20.0,20.0,7.0,0.0
3492,78.0,20.0,20.0,7.0,0.0
3493,84.0,20.0,20.0,7.0,0.0
3494,78.0,20.0,20.0,7.0,0.0
3495,84.0,20.0,20.0,7.0,0.0
3496,87.0,20.0,20.0,7.0,0.0
3497,84.0,20.0,20.0,7.0,0.0
3498,87.0,20.0,20.0,7.0,0.0
3499,90.0,20.0,20.0,7.0,0.0
3500,89.0,20.0,20.0,7.0,0.0
3501,87.0,20.0,20.0,7.0,0.0
3502,85.0,20.0,20.0,7.0,0.0
3503,84.0,20.0,20.0,7.0,0.0
3504,87.0,20.0,20.0,7.0,0.0
3505,90.0,20.0,20.0,7.0,0.0
3506,89.0,20.0,20.0,7.0,0.0
3507,87.0,20.0,20.0,7.0,0.0
3508,85.0,20.0,20.0,7.0,0.0
3509,75.0,20.0,60.0,8.0,0.0
3510,83.0,20.0,20.0,7.0,0.0
3511,90.0,20.0,20.0,7.0,0.0
3512,84.0,0.0,20.0,7.0,0.0
3513,80.0,20.0,20.0,7.0,0.0
3514,72.0,20.0,60.0,8.0,0.0
3515,87.0,20.0,20.0,7.0,0.0
3516,81.0,0.0,20.0,7.0,0.0
3517,77.0,20.0,20.0,7.0,0.0
3518,69.0,0.0,60.0,8.0,0.0
3519,84.0,20.0,20.0,7.0,0.0
3520,78.0,20.0,20.0,7.0,0.0
3521,66.0,0.0,60.0,8.0,0.0
3522,74.0,20.0,20.0,7.0,0.0
3523,81.0,20.0,20.0,7.0,0.0
3524,75.0,20.0,20.0,7.0,0.0
3525,63.0,0.0,60.0,8.0,0.0
3526,71.0,20.0,20.0,7.0,0.0
3527,78.0,20.0,20.0,7.0,0.0
3528,72.0,20.0,20.0,7.0,0.0
3529,60.0,0.0,60.0,8.0,0.0
3530,68.0,20.0,20.0,7.0,0.0
3531,75.0,20.0,20.0,7.0,0.0
3532,69.0,20.0,20.0,7.0,0.0
3533,57.0,0.0,60.0,8.0,0.0
3534,65.0,20.0,20.0,7.0,0.0
3535,72.0,20.0,20.0,7.0,0.0
3536,66.0,20.0,20.0,7.0,0.0
3537,54.0,20.0,60.0,8.0,0.0
3538,62.0,20.0,20.0,7.0,0.0
3539,69.0,20.0,20.0,7.0,0.0
3540,63.0,0.0,20.0,7.0,0.0
3541,59.0,20.0,20.0,7.0,0.0
3542,51.0,0.0,120.0,8.0,0.0
3543,66.0,20.0,20.0,7.0,0.0
3544,60.0,20.0,20.0,7.0,0.0
3545,59.0,20.0,20.0,7.0,0.0
3546,66.0,20.0,20.0,7.0,0.0
3547,60.0,20.0,20.0,7.0,0.0
3548,48.0,0.0,120.0,8.0,0.0
3549,56.0,20.0,20.0,7.0,0.0
3550,63.0,20.0,20.0,7.0,0.0
3551,57.0,20.0,20.0,7.0,0.0
3552,56.0,20.0,20.0,7.0,0.0
3553,63.0,20.0,20.0,7.0,0.0
3554,57.0,20.0,20.0,7.0,0.0
3555,53.0,20.0,20.0,7.0,0.0
3556,45.0,0.0,120.0,8.0,0.0
3557,60.0,20.0,20.0,7.0,0.0
3558,54.0,20.0,20.0,7.0,0.0
3559,53.0,20.0,20.0,7.0,0.0
3560,60.0,20.0,20.0,7.0,0.0
3561,54.0,20.0,20.0,7.0,0.0
3562,42.0,20.0,120.0,8.0,0.0
3563,50.0,20.0,20.0,7.0,0.0
3564,58.0,20.0,20.0,7.0,0.0
3565,51.0,20.0,20.0,7.0,0.0
3566,50.0,20.0,20.0,7.0,0.0
3567,58.0,20.0,20.0,7.0,0.0
3568,51.0,0.0,20.0,7.0,0.0
3569,50.0,20.0,20.0,7.0,0.0
3570,41.0,0.0,960.0,8.0,0.0
3571,57.0,20.0,20.0,7.0,0.0
3572,51.0,20.0,20.0,7.0,0.0
3573,50.0,20.0,20.0,7.0,0.0
3574,57.0,20.0,20.0,7.0,0.0
3575,51.0,20.0,20.0,7.0,0.0
3576,47.0,20.0,20.0,7.0,0.0
3577,29.0,0.0,840.0,8.0,0.0
3578,57.0,20.0,20.0,7.0,0.0
3579,48.0,20.0,20.0,7.0,0.0
3580,47.0,20.0,20.0,7.0,0.0
3581,57.0,20.0,20.0,7.0,0.0
3582,48.0,20.0,20.0,7.0,0.0
3583,47.0,20.0,20.0,7.0,0.0
3584,57.0,20.0,20.0,7.0,0.0
3585,48.0,20.0,20.0,7.0,0.0
3586,49.0,20.0,20.0,7.0,0.0
3587,57.0,20.0,20.0,7.0,0.0
3588,48.0,20.0,20.0,7.0,0.0
3589,51.0,20.0,20.0,7.0,0.0
3590,57.0,20.0,20.0,7.0,0.0
3591,49.0,20.0,20.0,7.0,0.0
3592,53.0,20.0,20.0,7.0,0.0
3593,57.0,20.0,20.0,7.0,0.0
3594,51.0,20.0,20.0,7.0,0.0
3595,54.0,20.0,20.0,7.0,0.0
3596,57.0,20.0,20.0,7.0,0.0
3597,53.0,20.0,20.0,7.0,0.0
3598,54.0,20.0,20.0,7.0,0.0
3599,57.0,20.0,20.0,7.0,0.0
3600,53.0,20.0,20.0,7.0,0.0
3601,54.0,20.0,20.0,7.0,0.0
3602,57.0,20.0,20.0,7.0,0.0
3603,53.0,20.0,20.0,7.0,0.0
3604,54.0,20.0,20.0,7.0,0.0
3605,57.0,20.0,20.0,7.0,0.0
3606,53.0,20.0,20.0,7.0,0.0
3607,54.0,20.0,20.0,7.0,0.0
3608,57.0,20.0,20.0,7.0,0.0
3609,52.0,20.0,20.0,7.0,0.0
3610,54.0,20.0,20.0,7.0,0.0
3611,57.0,20.0,20.0,7.0,0.0
3612,52.0,20.0,20.0,7.0,0.0
3613,54.0,20.0,20.0,7.0,0.0
3614,57.0,20.0,20.0,7.0,0.0
3615,52.0,20.0,20.0,7.0,0.0
3616,54.0,20.0,20.0,7.0,0.0
3617,57.0,20.0,20.0,7.0,0.0
3618,52.0,52.0,20.0,7.0,0.0
3619,53.0,5.0,60.0,7.0,0.0
3620,53.0,3.0,60.0,4.0,0.0
3621,41.0,0.0,60.0,4.0,0.0
3622,53.0,1.0,60.0,12.0,0.0
3623,41.0,18.0,60.0,13.0,0.0
3624,51.0,7.0,20.0,8.0,0.0
3625,58.0,3.0,120.0,7.0,0.0
3626,49.0,29.0,20.0,8.0,0.0
3627,48.0,32.0,20.0,8.0,0.0
3628,53.0,18.0,30.0,4.0,0.0
3629,49.0,7.0,20.0,8.0,0.0
3630,53.0,1.0,60.0,12.0,0.0
3631,49.0,7.0,60.0,13.0,0.0
3632,53.0,12.0,20.0,8.0,0.0
3633,51.0,4.0,20.0,8.0,0.0
3634,53.0,12.0,30.0,4.0,0.0
3635,51.0,1.0,60.0,12.0,0.0
3636,60.0,9.0,15.0,7.0,0.0
3637,48.0,17.0,60.0,13.0,0.0
3638,61.0,1.0,15.0,7.0,0.0
3639,60.0,5.0,15.0,7.0,0.0
3640,58.0,10.0,15.0,7.0,0.0
3641,48.0,3.0,20.0,8.0,0.0
3642,60.0,8.0,15.0,7.0,0.0
3643,61.0,7.0,30.0,7.0,0.0
3644,46.0,2.0,20.0,8.0,0.0
3645,53.0,23.0,30.0,4.0,0.0
3646,49.0,1.0,60.0,12.0,0.0
3647,46.0,18.0,60.0,13.0,0.0
3648,49.0,10.0,20.0,8.0,0.0
3649,65.0,4.0,30.0,7.0,0.0
3650,60.0,3.0,30.0,7.0,0.0
3651,48.0,1.0,20.0,8.0,0.0
3652,53.0,22.0,30.0,4.0,0.0
3653,48.0,1.0,60.0,12.0,0.0
3654,44.0,19.0,60.0,13.0,0.0
3655,44.0,11.0,20.0,8.0,0.0
3656,70.0,2.0,90.0,7.0,0.0
3657,61.0,3.0,90.0,7.0,0.0
3658,58.0,3.0,60.0,4.0,0.0
3659,42.0,29.0,20.0,8.0,0.0
3660,46.0,1.0,60.0,12.0,0.0
3661,42.0,14.0,60.0,13.0,0.0
3662,46.0,8.0,20.0,8.0,0.0
3663,41.0,16.0,20.0,8.0,0.0
3664,41.0,18.0,60.0,13.0,0.0
3665,70.0,2.0,15.0,7.0,0.0
3666,61.0,11.0,15.0,7.0,0.0
3667,46.0,12.0,20.0,8.0,0.0
3668,69.0,3.0,30.0,7.0,0.0
3669,60.0,4.0,30.0,7.0,0.0
3670,46.0,18.0,30.0,4.0,0.0
3671,58.0,0.0,30.0,4.0,0.0
3672,39.0,1.0,20.0,8.0,0.0
3673,46.0,1.0,60.0,12.0,0.0
3674,39.0,5.0,60.0,13.0,0.0
3675,70.0,4.0,30.0,7.0,0.0
3676,61.0,1.0,30.0,7.0,0.0
3677,46.0,10.0,20.0,8.0,0.0
3678,72.0,3.0,15.0,7.0,0.0
3679,63.0,9.0,15.0,7.0,0.0
3680,37.0,9.0,20.0,8.0,0.0
3681,58.0,10.0,30.0,4.0,0.0
3682,46.0,0.0,30.0,4.0,0.0
3683,46.0,1.0,60.0,12.0,0.0
3684,37.0,19.0,60.0,13.0,0.0
3685,73.0,1.0,15.0,7.0,0.0
3686,65.0,11.0,15.0,7.0,0.0
3687,46.0,11.0,20.0,8.0,0.0
3688,69.0,3.0,30.0,7.0,0.0
3689,60.0,3.0,30.0,7.0,0.0
3690,53.0,0.0,30.0,4.0,0.0
3691,41.0,23.0,30.0,4.0,0.0
3692,41.0,1.0,20.0,8.0,0.0
3693,53.0,1.0,60.0,12.0,0.0
3694,41.0,19.0,60.0,13.0,0.0
3695,53.0,10.0,20.0,8.0,0.0
3696,54.0,17.0,20.0,8.0,0.0
3697,70.0,2.0,15.0,7.0,0.0
3698,61.0,11.0,15.0,7.0,0.0
3699,53.0,29.0,20.0,8.0,0.0
3700,69.0,1.0,30.0,7.0,0.0
3701,60.0,5.0,30.0,7.0,0.0
3702,53.0,20.0,30.0,4.0,0.0
3703,65.0,0.0,30.0,4.0,0.0
3704,37.0,2.0,20.0,8.0,0.0
3705,49.0,1.0,60.0,12.0,0.0
3706,37.0,6.0,60.0,13.0,0.0
3707,70.0,1.0,30.0,7.0,0.0
3708,61.0,2.0,30.0,7.0,0.0
3709,49.0,10.0,20.0,8.0,0.0
3710,63.0,11.0,15.0,7.0,0.0
3711,72.0,0.0,15.0,7.0,0.0
3712,36.0,9.0,20.0,8.0,0.0
3713,53.0,0.0,30.0,4.0,0.0
3714,65.0,8.0,30.0,4.0,0.0
3715,46.0,1.0,60.0,12.0,0.0
3716,34.0,19.0,60.0,13.0,0.0
3717,73.0,3.0,15.0,7.0,0.0
3718,65.0,12.0,15.0,7.0,0.0
3719,48.0,10.0,20.0,8.0,0.0
3720,69.0,1.0,30.0,7.0,0.0
3721,60.0,26.0,30.0,7.0,0.0
3722,41.0,3.0,60.0,4.0,0.0
3723,53.0,0.0,60.0,4.0,0.0
3724,41.0,2.0,20.0,8.0,0.0
3725,53.0,1.0,60.0,12.0,0.0
3726,41.0,18.0,60.0,13.0,0.0
3727,53.0,8.0,20.0,8.0,0.0
3728,51.0,15.0,20.0,8.0,0.0
3729,65.0,9.0,15.0,7.0,0.0
3730,48.0,6.0,20.0,8.0,0.0
3731,67.0,5.0,15.0,7.0,0.0
3732,69.0,26.0,15.0,7.0,0.0
3733,70.0,3.0,30.0,7.0,0.0
3734,62.0,26.0,30.0,7.0,0.0
3735,46.0,0.0,360.0,4.0,0.0
3736,58.0,3.0,360.0,4.0,0.0
3737,46.0,1.0,20.0,8.0,0.0
3738,46.0,17.0,60.0,13.0,0.0
3739,44.0,11.0,20.0,8.0,0.0
3740,75.0,1.0,120.0,7.0,0.0
3741,70.0,1.0,120.0,7.0,0.0
3742,66.0,0.0,120.0,7.0,0.0
3743,63.0,1.0,120.0,7.0,0.0
3744,42.0,32.0,20.0,8.0,0.0
3745,44.0,17.0,60.0,13.0,0.0
3746,41.0,11.0,20.0,8.0,0.0
3747,42.0,28.0,20.0,8.0,0.0
3748,58.0,1.0,60.0,12.0,0.0
3749,42.0,17.0,60.0,13.0,0.0
3750,46.0,11.0,20.0,8.0,0.0
3751,77.0,0.0,60.0,7.0,0.0
3752,65.0,8.0,60.0,7.0,0.0
3753,70.0,25.0,90.0,7.0,0.0
3754,42.0,32.0,20.0,8.0,0.0
3755,56.0,1.0,60.0,12.0,0.0
3756,41.0,18.0,60.0,13.0,0.0
3757,41.0,2.0,20.0,8.0,0.0
3758,78.0,1.0,30.0,7.0,0.0
3759,66.0,0.0,30.0,7.0,0.0
3760,39.0,3.0,20.0,8.0,0.0
3761,54.0,1.0,60.0,12.0,0.0
3762,39.0,17.0,60.0,13.0,0.0
3763,42.0,12.0,20.0,8.0,0.0
3764,82.0,3.0,60.0,7.0,0.0
3765,66.0,1.0,60.0,7.0,0.0
3766,77.0,1.0,60.0,7.0,0.0
3767,39.0,27.0,20.0,8.0,0.0
3768,53.0,1.0,60.0,12.0,0.0
3769,37.0,18.0,60.0,13.0,0.0
3770,37.0,7.0,20.0,8.0,0.0
3771,87.0,2.0,120.0,7.0,0.0
3772,78.0,0.0,120.0,7.0,0.0
3773,75.0,1.0,120.0,7.0,0.0
3774,35.0,29.0,20.0,8.0,0.0
3775,63.0,3.0,120.0,4.0,0.0
3776,51.0,1.0,60.0,12.0,0.0
3777,35.0,17.0,60.0,13.0,0.0
3778,47.0,12.0,20.0,8.0,0.0
3779,34.0,29.0,20.0,8.0,0.0
3780,49.0,1.0,60.0,12.0,0.0
3781,34.0,17.0,60.0,13.0,0.0
3782,46.0,7.0,20.0,8.0,0.0
3783,90.0,2.0,30.0,7.0,0.0
3784,78.0,2.0,30.0,7.0,0.0
3785,87.0,3.0,30.0,7.0,0.0
3786,33.0,2.0,20.0,8.0,0.0
3787,63.0,21.0,30.0,4.0,0.0
3788,48.0,1.0,60.0,12.0,0.0
3789,33.0,17.0,60.0,13.0,0.0
3790,48.0,12.0,20.0,8.0,0.0
3791,89.0,2.0,30.0,7.0,0.0
3792,85.0,0.0,30.0,7.0,0.0
3793,77.0,3.0,30.0,7.0,0.0
3794,34.0,4.0,20.0,8.0,0.0
3795,61.0,22.0,30.0,4.0,0.0
3796,49.0,1.0,60.0,12.0,0.0
3797,34.0,18.0,60.0,13.0,0.0
3798,49.0,11.0,20.0,8.0,0.0
3799,87.0,2.0,30.0,7.0,0.0
3800,84.0,0.0,30.0,7.0,0.0
3801,75.0,3.0,30.0,7.0,0.0
3802,60.0,21.0,30.0,4.0,0.0
3803,36.0,3.0,20.0,8.0,0.0
3804,51.0,1.0,60.0,12.0,0.0
3805,36.0,19.0,60.0,13.0,0.0
3806,51.0,12.0,20.0,8.0,0.0
3807,85.0,2.0,30.0,7.0,0.0
3808,82.0,1.0,30.0,7.0,0.0
3809,73.0,3.0,30.0,7.0,0.0
3810,58.0,22.0,30.0,4.0,0.0
3811,37.0,1.0,20.0,8.0,0.0
3812,53.0,1.0,60.0,12.0,0.0
3813,37.0,18.0,60.0,13.0,0.0
3814,53.0,11.0,20.0,8.0,0.0
3815,84.0,2.0,30.0,7.0,0.0
3816,81.0,1.0,30.0,7.0,0.0
3817,72.0,3.0,30.0,7.0,0.0
3818,39.0,2.0,20.0,8.0,0.0
3819,60.0,21.0,30.0,4.0,0.0
3820,54.0,1.0,60.0,12.0,0.0
3821,39.0,7.0,60.0,13.0,0.0
3822,54.0,12.0,20.0,8.0,0.0
3823,73.0,7.0,60.0,7.0,0.0
3824,40.0,6.0,20.0,8.0,0.0
3825,61.0,11.0,30.0,4.0,0.0
3826,55.0,1.0,60.0,12.0,0.0
3827,82.0,7.0,15.0,7.0,0.0
3828,40.0,17.0,60.0,13.0,0.0
3829,84.0,3.0,15.0,7.0,0.0
3830,82.0,3.0,15.0,7.0,0.0
3831,81.0,12.0,15.0,7.0,0.0
3832,55.0,2.0,20.0,8.0,0.0
3833,82.0,1.0,15.0,7.0,0.0
3834,81.0,2.0,60.0,7.0,0.0
3835,72.0,7.0,60.0,7.0,0.0
3836,41.0,9.0,20.0,8.0,0.0
3837,60.0,23.0,30.0,4.0,0.0
3838,56.0,1.0,60.0,12.0,0.0
3839,41.0,2.0,60.0,13.0,0.0
3840,57.0,1.0,20.0,8.0,0.0
3841,65.0,10.0,15.0,7.0,0.0
3842,66.0,10.0,15.0,7.0,0.0
3843,65.0,10.0,15.0,7.0,0.0
3844,66.0,10.0,15.0,7.0,0.0
3845,65.0,10.0,15.0,7.0,0.0
3846,66.0,28.0,15.0,7.0,0.0
3847,78.0,1.0,30.0,7.0,0.0
3848,75.0,13.0,30.0,7.0,0.0
3849,45.0,1.0,20.0,8.0,0.0
3850,33.0,14.0,30.0,14.0,0.0
3851,53.0,31.0,20.0,8.0,0.0
3852,77.0,0.0,30.0,7.0,0.0
3853,73.0,11.0,30.0,7.0,0.0
3854,46.0,4.0,20.0,8.0,0.0
3855,34.0,15.0,30.0,14.0,0.0
3856,53.0,29.0,20.0,8.0,0.0
3857,75.0,2.0,30.0,7.0,0.0
3858,72.0,12.0,30.0,7.0,0.0
3859,48.0,2.0,20.0,8.0,0.0
3860,36.0,15.0,30.0,14.0,0.0
3861,53.0,29.0,20.0,8.0,0.0
3862,73.0,2.0,30.0,7.0,0.0
3863,70.0,12.0,30.0,7.0,0.0
3864,49.0,2.0,20.0,8.0,0.0
3865,37.0,15.0,30.0,14.0,0.0
3866,53.0,28.0,20.0,8.0,0.0
3867,72.0,1.0,30.0,7.0,0.0
3868,69.0,12.0,30.0,7.0,0.0
3869,51.0,4.0,20.0,8.0,0.0
3870,39.0,15.0,30.0,14.0,0.0
3871,53.0,19.0,20.0,8.0,0.0
3872,65.0,28.0,120.0,7.0,0.0
3873,49.0,5.0,20.0,8.0,0.0
3874,70.0,8.0,15.0,7.0,0.0
3875,37.0,3.0,30.0,14.0,0.0
3876,72.0,1.0,15.0,7.0,0.0
3877,70.0,12.0,15.0,7.0,0.0
3878,69.0,10.0,15.0,7.0,0.0
3879,53.0,6.0,20.0,8.0,0.0
3880,70.0,24.0,15.0,7.0,0.0
3881,69.0,4.0,60.0,7.0,0.0
3882,48.0,17.0,20.0,8.0,0.0
3883,36.0,10.0,30.0,14.0,0.0
3884,60.0,3.0,20.0,8.0,0.0
3885,72.0,10.0,120.0,7.0,0.0
3886,53.0,30.0,20.0,8.0,0.0
3887,69.0,0.0,60.0,2.0,0.0
3888,65.0,1.0,60.0,2.0,0.0
3889,57.0,1.0,60.0,12.0,0.0
3890,53.0,4.0,60.0,13.0,0.0
3891,53.0,16.0,60.0,3.0,0.0
3892,60.0,8.0,20.0,8.0,0.0
3893,60.0,2.0,180.0,4.0,0.0
3894,52.0,30.0,20.0,8.0,0.0
3895,60.0,1.0,120.0,2.0,0.0
3896,67.0,0.0,120.0,2.0,0.0
3897,55.0,1.0,120.0,12.0,0.0
3898,52.0,7.0,60.0,13.0,0.0
3899,52.0,15.0,120.0,3.0,0.0
3900,60.0,0.0,20.0,8.0,0.0
3901,48.0,4.0,20.0,8.0,0.0
3902,70.0,8.0,15.0,7.0,0.0
3903,48.0,4.0,60.0,13.0,0.0
3904,72.0,3.0,15.0,7.0,0.0
3905,70.0,17.0,15.0,7.0,0.0
3906,69.0,10.0,15.0,7.0,0.0
3907,60.0,5.0,20.0,8.0,0.0
3908,70.0,4.0,15.0,7.0,0.0
3909,69.0,5.0,60.0,7.0,0.0
3910,53.0,26.0,20.0,8.0,0.0
3911,65.0,0.0,60.0,2.0,0.0
3912,69.0,1.0,60.0,2.0,0.0
3913,53.0,1.0,60.0,12.0,0.0
3914,53.0,4.0,60.0,13.0,0.0
3915,53.0,15.0,60.0,3.0,0.0
3916,60.0,6.0,20.0,8.0,0.0
3917,72.0,13.0,120.0,7.0,0.0
3918,51.0,29.0,20.0,8.0,0.0
3919,39.0,13.0,60.0,14.0,0.0
3920,60.0,17.0,20.0,8.0,0.0
3921,60.0,9.0,180.0,4.0,0.0
3922,50.0,32.0,20.0,8.0,0.0
3923,38.0,2.0,60.0,14.0,0.0
3924,60.0,2.0,20.0,8.0,0.0
3925,55.0,5.0,20.0,8.0,0.0
3926,70.0,9.0,15.0,7.0,0.0
3927,43.0,14.0,60.0,14.0,0.0
3928,72.0,2.0,15.0,7.0,0.0
3929,70.0,16.0,15.0,7.0,0.0
3930,69.0,10.0,15.0,7.0,0.0
3931,60.0,4.0,20.0,8.0,0.0
3932,72.0,12.0,15.0,7.0,0.0
3933,69.0,3.0,60.0,7.0,0.0
3934,54.0,28.0,20.0,8.0,0.0
3935,42.0,14.0,60.0,14.0,0.0
3936,60.0,6.0,20.0,8.0,0.0
3937,72.0,3.0,120.0,7.0,0.0
3938,69.0,1.0,60.0,0.0,0.0
3939,57.0,5.0,60.0,11.0,0.0
3940,51.0,31.0,20.0,8.0,0.0
3941,57.0,1.0,60.0,12.0,0.0
3942,51.0,4.0,60.0,13.0,0.0
3943,51.0,16.0,60.0,3.0,0.0
3944,63.0,3.0,20.0,8.0,0.0
3945,68.0,1.0,60.0,0.0,0.0
3946,56.0,6.0,60.0,11.0,0.0
3947,62.0,3.0,120.0,4.0,0.0
3948,52.0,29.0,20.0,8.0,0.0
3949,62.0,1.0,120.0,12.0,0.0
3950,52.0,4.0,60.0,13.0,0.0
3951,52.0,3.0,60.0,3.0,0.0
3952,64.0,1.0,20.0,8.0,0.0
3953,71.0,1.0,60.0,0.0,0.0
3954,59.0,2.0,60.0,11.0,0.0
3955,56.0,3.0,20.0,8.0,0.0
3956,71.0,8.0,15.0,7.0,0.0
3957,56.0,4.0,60.0,13.0,0.0
3958,56.0,16.0,60.0,3.0,0.0
3959,72.0,5.0,15.0,7.0,0.0
3960,71.0,15.0,15.0,7.0,0.0
3961,69.0,10.0,15.0,7.0,0.0
3962,64.0,4.0,20.0,8.0,0.0
3963,71.0,1.0,15.0,7.0,0.0
3964,69.0,2.0,60.0,7.0,0.0
3965,64.0,1.0,60.0,0.0,0.0
3966,60.0,2.0,60.0,11.0,0.0
3967,60.0,3.0,60.0,4.0,0.0
3968,57.0,27.0,20.0,8.0,0.0
3969,60.0,1.0,60.0,12.0,0.0
3970,57.0,4.0,60.0,13.0,0.0
3971,57.0,15.0,60.0,3.0,0.0
3972,64.0,4.0,20.0,8.0,0.0
3973,72.0,5.0,90.0,7.0,0.0
3974,60.0,0.0,2460.0,4.0,0.0
3975,52.0,31.0,20.0,8.0,0.0
3976,40.0,10.0,60.0,14.0,0.0
3977,64.0,15.0,20.0,8.0,0.0
3978,57.0,30.0,20.0,8.0,0.0
3979,45.0,6.0,60.0,12.0,0.0
3980,45.0,15.0,60.0,14.0,0.0
3981,69.0,7.0,30.0,7.0,0.0
3982,64.0,2.0,20.0,8.0,0.0
3983,72.0,1.0,90.0,7.0,0.0
3984,52.0,29.0,20.0,8.0,0.0
3985,52.0,17.0,60.0,13.0,0.0
3986,64.0,11.0,20.0,8.0,0.0
3987,57.0,6.0,60.0,11.0,0.0
3988,57.0,30.0,20.0,8.0,0.0
3989,57.0,20.0,60.0,13.0,0.0
3990,69.0,3.0,30.0,7.0,0.0
3991,64.0,3.0,20.0,8.0,0.0
3992,72.0,5.0,90.0,7.0,0.0
3993,52.0,28.0,20.0,8.0,0.0
3994,40.0,10.0,60.0,14.0,0.0
3995,64.0,17.0,20.0,8.0,0.0
3996,57.0,29.0,20.0,8.0,0.0
3997,45.0,6.0,60.0,12.0,0.0
3998,45.0,15.0,60.0,14.0,0.0
3999,69.0,9.0,30.0,7.0,0.0
4000,64.0,1.0,20.0,8.0,0.0
4001,72.0,7.0,90.0,7.0,0.0
4002,52.0,40.0,20.0,8.0,0.0
4003,52.0,16.0,60.0,13.0,0.0
4004,64.0,29.0,60.0,8.0,0.0
4005,64.0,1.0,60.0,11.0,0.0
4006,52.0,2.0,60.0,11.0,0.0
4007,64.0,16.0,60.0,13.0,0.0
4008,69.0,1.0,30.0,7.0,0.0
4009,57.0,3.0,30.0,8.0,0.0
4010,72.0,5.0,20.0,7.0,0.0
4011,60.0,32.0,20.0,8.0,0.0
4012,69.0,4.0,30.0,7.0,0.0
4013,57.0,20.0,30.0,8.0,0.0
4014,72.0,2.0,20.0,7.0,0.0
4015,60.0,34.0,20.0,8.0,0.0
4016,64.0,4.0,30.0,7.0,0.0
4017,52.0,20.0,30.0,8.0,0.0
4018,69.0,4.0,20.0,7.0,0.0
4019,57.0,32.0,20.0,8.0,0.0
4020,64.0,6.0,30.0,7.0,0.0
4021,52.0,17.0,30.0,8.0,0.0
4022,69.0,5.0,20.0,7.0,0.0
4023,57.0,33.0,20.0,8.0,0.0
4024,60.0,3.0,30.0,7.0,0.0
4025,48.0,20.0,30.0,8.0,0.0
4026,64.0,2.0,20.0,7.0,0.0
4027,52.0,35.0,20.0,8.0,0.0
4028,60.0,5.0,30.0,7.0,0.0
4029,48.0,18.0,30.0,8.0,0.0
4030,64.0,4.0,20.0,7.0,0.0
4031,52.0,32.0,20.0,8.0,0.0
4032,57.0,4.0,30.0,7.0,0.0
4033,45.0,19.0,30.0,8.0,0.0
4034,60.0,3.0,20.0,7.0,0.0
4035,48.0,35.0,20.0,8.0,0.0
4036,57.0,4.0,30.0,7.0,0.0
4037,45.0,18.0,30.0,8.0,0.0
4038,60.0,5.0,20.0,7.0,0.0
4039,48.0,34.0,20.0,8.0,0.0
4040,52.0,3.0,30.0,7.0,0.0
4041,40.0,18.0,30.0,8.0,0.0
4042,57.0,4.0,20.0,7.0,0.0
4043,45.0,33.0,20.0,8.0,0.0
4044,53.0,6.0,30.0,7.0,0.0
4045,41.0,17.0,30.0,8.0,0.0
4046,57.0,5.0,20.0,7.0,0.0
4047,45.0,33.0,20.0,8.0,0.0
4048,52.0,3.0,30.0,7.0,0.0
4049,40.0,18.0,30.0,8.0,0.0
4050,57.0,4.0,20.0,7.0,0.0
4051,45.0,34.0,20.0,8.0,0.0
4052,51.0,6.0,30.0,7.0,0.0
4053,39.0,16.0,30.0,8.0,0.0
4054,57.0,6.0,20.0,7.0,0.0
4055,45.0,34.0,20.0,8.0,0.0
4056,52.0,3.0,30.0,7.0,0.0
4057,40.0,19.0,30.0,8.0,0.0
4058,57.0,4.0,20.0,7.0,0.0
4059,45.0,34.0,20.0,8.0,0.0
4060,53.0,2.0,30.0,7.0,0.0
4061,41.0,19.0,30.0,8.0,0.0
4062,57.0,4.0,20.0,7.0,0.0
4063,45.0,33.0,20.0,8.0,0.0
4064,52.0,6.0,30.0,7.0,0.0
4065,40.0,18.0,30.0,8.0,0.0
4066,57.0,2.0,20.0,7.0,0.0
4067,45.0,34.0,20.0,8.0,0.0
4068,51.0,5.0,30.0,7.0,0.0
4069,39.0,18.0,30.0,8.0,0.0
4070,57.0,3.0,20.0,7.0,0.0
4071,45.0,34.0,20.0,8.0,0.0
4072,52.0,4.0,30.0,7.0,0.0
4073,40.0,20.0,30.0,8.0,0.0
4074,57.0,3.0,20.0,7.0,0.0
4075,45.0,33.0,20.0,8.0,0.0
4076,53.0,6.0,30.0,7.0,0.0
4077,41.0,18.0,30.0,8.0,0.0
4078,57.0,2.0,20.0,7.0,0.0
4079,45.0,34.0,20.0,8.0,0.0
4080,53.0,2.0,960.0,4.0,0.0
4081,57.0,6.0,30.0,7.0,0.0
4082,45.0,17.0,30.0,8.0,0.0
4083,60.0,4.0,20.0,7.0,0.0
4084,48.0,33.0,20.0,8.0,0.0
4085,60.0,6.0,30.0,7.0,0.0
4086,48.0,16.0,30.0,8.0,0.0
4087,63.0,5.0,20.0,7.0,0.0
4088,51.0,35.0,20.0,8.0,0.0
4089,63.0,4.0,30.0,7.0,0.0
4090,51.0,18.0,30.0,8.0,0.0
4091,69.0,2.0,20.0,7.0,0.0
4092,57.0,34.0,20.0,8.0,0.0
4093,69.0,5.0,30.0,7.0,0.0
4094,57.0,17.0,30.0,8.0,0.0
4095,72.0,4.0,20.0,7.0,0.0
4096,60.0,36.0,20.0,8.0,0.0
4097,72.0,3.0,30.0,7.0,0.0
4098,60.0,17.0,30.0,8.0,0.0
4099,75.0,4.0,20.0,7.0,0.0
4100,63.0,34.0,20.0,8.0,0.0
4101,75.0,4.0,30.0,7.0,0.0
4102,63.0,18.0,30.0,8.0,0.0
4103,81.0,4.0,20.0,7.0,0.0
4104,69.0,34.0,20.0,8.0,0.0
4105,81.0,6.0,30.0,7.0,0.0
4106,69.0,16.0,30.0,8.0,0.0
4107,84.0,4.0,20.0,7.0,0.0
4108,72.0,34.0,20.0,8.0,0.0
4109,84.0,5.0,30.0,7.0,0.0
4110,72.0,15.0,30.0,8.0,0.0
4111,87.0,5.0,20.0,7.0,0.0
4112,75.0,17.0,20.0,8.0,0.0
4113,85.0,4.0,20.0,7.0,0.0
4114,73.0,14.0,20.0,8.0,0.0
4115,84.0,4.0,20.0,7.0,0.0
4116,72.0,17.0,20.0,8.0,0.0
4117,82.0,5.0,20.0,7.0,0.0
4118,70.0,16.0,20.0,8.0,0.0
4119,81.0,4.0,20.0,7.0,0.0
4120,69.0,16.0,20.0,8.0,0.0
4121,78.0,4.0,20.0,7.0,0.0
4122,66.0,14.0,20.0,8.0,0.0
4123,77.0,6.0,20.0,7.0,0.0
4124,65.0,15.0,20.0,8.0,0.0
4125,75.0,3.0,20.0,7.0,0.0
4126,63.0,18.0,20.0,8.0,0.0
4127,73.0,2.0,20.0,7.0,0.0
4128,61.0,17.0,20.0,8.0,0.0
4129,72.0,5.0,20.0,7.0,0.0
4130,60.0,14.0,20.0,8.0,0.0
4131,70.0,6.0,20.0,7.0,0.0
4132,58.0,15.0,20.0,8.0,0.0
4133,69.0,5.0,20.0,7.0,0.0
4134,57.0,12.0,20.0,8.0,0.0
4135,66.0,3.0,15.0,7.0,0.0
4136,54.0,11.0,15.0,8.0,0.0
4137,65.0,6.0,15.0,7.0,0.0
4138,53.0,11.0,15.0,8.0,0.0
4139,63.0,4.0,15.0,7.0,0.0
4140,51.0,11.0,15.0,8.0,0.0
4141,61.0,4.0,15.0,7.0,0.0
4142,49.0,13.0,15.0,8.0,0.0
4143,60.0,4.0,15.0,7.0,0.0
4144,48.0,13.0,15.0,8.0,0.0
4145,58.0,3.0,15.0,7.0,0.0
4146,46.0,13.0,15.0,8.0,0.0
4147,57.0,4.0,15.0,7.0,0.0
4148,45.0,12.0,15.0,8.0,0.0
4149,54.0,4.0,15.0,7.0,0.0
4150,42.0,12.0,15.0,8.0,0.0
4151,53.0,4.0,15.0,7.0,0.0
4152,41.0,13.0,15.0,8.0,0.0
4153,51.0,3.0,15.0,7.0,0.0
4154,39.0,13.0,15.0,8.0,0.0
4155,49.0,3.0,15.0,7.0,0.0
4156,37.0,12.0,15.0,8.0,0.0
4157,48.0,5.0,15.0,7.0,0.0
4158,36.0,12.0,15.0,8.0,0.0
4159,46.0,4.0,15.0,7.0,0.0
4160,34.0,12.0,15.0,8.0,0.0
4161,45.0,4.0,15.0,7.0,0.0
4162,33.0,11.0,15.0,8.0,0.0
4163,42.0,2.0,15.0,7.0,0.0
4164,30.0,21.0,15.0,8.0,0.0
4165,41.0,3.0,60.0,7.0,0.0
4166,53.0,2.0,30.0,10.0,0.0
4167,53.0,1.0,30.0,11.0,0.0
4168,29.0,1.0,60.0,8.0,0.0
4169,53.0,0.0,60.0,4.0,0.0
4170,41.0,23.0,60.0,4.0,0.0
4171,53.0,1.0,20.0,12.0,0.0
4172,53.0,2.0,20.0,13.0,0.0
4173,41.0,24.0,20.0,14.0,0.0
4174,51.0,1.0,20.0,12.0,0.0
4175,51.0,2.0,20.0,13.0,0.0
4176,39.0,0.0,20.0,14.0,0.0
4177,58.0,2.0,120.0,10.0,0.0
4178,58.0,10.0,120.0,11.0,0.0
4179,49.0,1.0,20.0,12.0,0.0
4180,49.0,5.0,20.0,13.0,0.0
4181,37.0,24.0,20.0,14.0,0.0
4182,48.0,1.0,20.0,12.0,0.0
4183,48.0,5.0,20.0,13.0,0.0
4184,36.0,24.0,20.0,14.0,0.0
4185,53.0,11.0,30.0,4.0,0.0
4186,49.0,1.0,20.0,12.0,0.0
4187,49.0,5.0,20.0,13.0,0.0
4188,37.0,1.0,20.0,14.0,0.0
4189,53.0,1.0,20.0,12.0,0.0
4190,53.0,5.0,20.0,13.0,0.0
4191,41.0,5.0,20.0,14.0,0.0
4192,61.0,2.0,15.0,10.0,0.0
4193,61.0,5.0,15.0,11.0,0.0
4194,53.0,11.0,30.0,4.0,0.0
4195,60.0,2.0,15.0,10.0,0.0
4196,51.0,1.0,20.0,12.0,0.0
4197,51.0,2.0,20.0,13.0,0.0
4198,60.0,6.0,15.0,11.0,0.0
4199,39.0,1.0,20.0,14.0,0.0
4200,61.0,2.0,15.0,10.0,0.0
4201,61.0,2.0,15.0,11.0,0.0
4202,60.0,2.0,15.0,10.0,0.0
4203,60.0,1.0,15.0,11.0,0.0
4204,58.0,2.0,15.0,10.0,0.0
4205,58.0,10.0,15.0,11.0,0.0
4206,48.0,1.0,20.0,12.0,0.0
4207,48.0,2.0,20.0,13.0,0.0
4208,36.0,24.0,20.0,14.0,0.0
4209,60.0,2.0,15.0,10.0,0.0
4210,60.0,1.0,15.0,11.0,0.0
4211,61.0,2.0,30.0,10.0,0.0
4212,61.0,1.0,30.0,11.0,0.0
4213,53.0,23.0,30.0,4.0,0.0
4214,46.0,1.0,20.0,12.0,0.0
4215,46.0,2.0,20.0,13.0,0.0
4216,34.0,1.0,20.0,14.0,0.0
4217,49.0,1.0,20.0,12.0,0.0
4218,49.0,5.0,20.0,13.0,0.0
4219,37.0,24.0,20.0,14.0,0.0
4220,65.0,2.0,30.0,10.0,0.0
4221,65.0,1.0,30.0,11.0,0.0
4222,53.0,23.0,30.0,4.0,0.0
4223,48.0,1.0,20.0,12.0,0.0
4224,48.0,2.0,20.0,13.0,0.0
4225,36.0,1.0,20.0,14.0,0.0
4226,44.0,1.0,20.0,12.0,0.0
4227,44.0,5.0,20.0,13.0,0.0
4228,32.0,24.0,20.0,14.0,0.0
4229,70.0,2.0,60.0,10.0,0.0
4230,70.0,10.0,60.0,11.0,0.0
4231,58.0,23.0,30.0,4.0,0.0
4232,54.0,1.0,20.0,12.0,0.0
4233,42.0,5.0,20.0,13.0,0.0
4234,30.0,1.0,20.0,14.0,0.0
4235,46.0,1.0,20.0,12.0,0.0
4236,46.0,5.0,20.0,13.0,0.0
4237,34.0,12.0,20.0,14.0,0.0
4238,53.0,1.0,20.0,12.0,0.0
4239,41.0,5.0,20.0,13.0,0.0
4240,29.0,12.0,20.0,14.0,0.0
4241,70.0,2.0,15.0,10.0,0.0
4242,70.0,10.0,15.0,11.0,0.0
4243,46.0,1.0,20.0,12.0,0.0
4244,46.0,5.0,20.0,13.0,0.0
4245,34.0,24.0,20.0,14.0,0.0
4246,69.0,2.0,30.0,10.0,0.0
4247,69.0,2.0,30.0,11.0,0.0
4248,58.0,21.0,30.0,4.0,0.0
4249,46.0,0.0,30.0,4.0,0.0
4250,51.0,1.0,20.0,12.0,0.0
4251,39.0,2.0,20.0,13.0,0.0
4252,27.0,12.0,60.0,14.0,0.0
4253,70.0,2.0,30.0,10.0,0.0
4254,70.0,1.0,30.0,11.0,0.0
4255,46.0,0.0,20.0,12.0,0.0
4256,46.0,5.0,20.0,13.0,0.0
4257,72.0,2.0,15.0,10.0,0.0
4258,72.0,10.0,15.0,11.0,0.0
4259,58.0,0.0,30.0,4.0,0.0
4260,46.0,11.0,30.0,4.0,0.0
4261,49.0,1.0,20.0,12.0,0.0
4262,37.0,6.0,20.0,13.0,0.0
4263,25.0,24.0,60.0,14.0,0.0
4264,73.0,2.0,15.0,10.0,0.0
4265,73.0,10.0,15.0,11.0,0.0
4266,46.0,1.0,20.0,12.0,0.0
4267,46.0,5.0,20.0,13.0,0.0
4268,69.0,2.0,30.0,10.0,0.0
4269,69.0,2.0,30.0,11.0,0.0
4270,53.0,23.0,30.0,4.0,0.0
4271,41.0,0.0,30.0,4.0,0.0
4272,53.0,1.0,20.0,12.0,0.0
4273,41.0,2.0,20.0,13.0,0.0
4274,29.0,24.0,60.0,14.0,0.0
4275,53.0,1.0,20.0,12.0,0.0
4276,53.0,5.0,20.0,13.0,0.0
4277,54.0,1.0,20.0,12.0,0.0
4278,54.0,17.0,20.0,13.0,0.0
4279,70.0,2.0,15.0,10.0,0.0
4280,70.0,10.0,15.0,11.0,0.0
4281,53.0,1.0,20.0,12.0,0.0
4282,53.0,29.0,20.0,13.0,0.0
4283,69.0,2.0,30.0,10.0,0.0
4284,69.0,2.0,30.0,11.0,0.0
4285,65.0,0.0,30.0,4.0,0.0
4286,53.0,21.0,30.0,4.0,0.0
4287,53.0,1.0,20.0,12.0,0.0
4288,37.0,2.0,20.0,13.0,0.0
4289,37.0,12.0,60.0,14.0,0.0
4290,70.0,2.0,30.0,10.0,0.0
4291,70.0,0.0,30.0,11.0,0.0
4292,49.0,1.0,20.0,12.0,0.0
4293,49.0,5.0,20.0,13.0,0.0
4294,72.0,2.0,15.0,10.0,0.0
4295,72.0,10.0,15.0,11.0,0.0
4296,53.0,0.0,30.0,4.0,0.0
4297,65.0,11.0,30.0,4.0,0.0
4298,53.0,1.0,20.0,12.0,0.0
4299,34.0,6.0,20.0,13.0,0.0
4300,34.0,24.0,60.0,14.0,0.0
4301,73.0,2.0,15.0,10.0,0.0
4302,73.0,10.0,15.0,11.0,0.0
4303,46.0,1.0,20.0,12.0,0.0
4304,46.0,5.0,20.0,13.0,0.0
4305,69.0,2.0,30.0,10.0,0.0
4306,69.0,2.0,30.0,11.0,0.0
4307,53.0,0.0,30.0,4.0,0.0
4308,41.0,24.0,30.0,4.0,0.0
4309,53.0,1.0,20.0,12.0,0.0
4310,41.0,2.0,20.0,13.0,0.0
4311,41.0,24.0,60.0,14.0,0.0
4312,53.0,5.0,20.0,13.0,0.0
4313,53.0,1.0,20.0,12.0,0.0
4314,51.0,12.0,20.0,13.0,0.0
4315,65.0,1.0,15.0,10.0,0.0
4316,65.0,1.0,15.0,0.0,0.0
4317,65.0,2.0,15.0,11.0,0.0
4318,65.0,6.0,15.0,1.0,0.0
4319,63.0,1.0,20.0,12.0,0.0
4320,48.0,2.0,20.0,13.0,0.0
4321,67.0,1.0,15.0,10.0,0.0
4322,67.0,1.0,15.0,0.0,0.0
4323,67.0,2.0,15.0,11.0,0.0
4324,67.0,3.0,15.0,1.0,0.0
4325,69.0,1.0,15.0,10.0,0.0
4326,69.0,1.0,15.0,0.0,0.0
4327,69.0,2.0,15.0,11.0,0.0
4328,69.0,24.0,15.0,1.0,0.0
4329,70.0,1.0,30.0,10.0,0.0
4330,70.0,1.0,30.0,0.0,0.0
4331,70.0,0.0,30.0,11.0,0.0
4332,46.0,23.0,360.0,4.0,0.0
4333,58.0,0.0,360.0,4.0,0.0
4334,70.0,2.0,30.0,1.0,0.0
4335,70.0,21.0,30.0,2.0,0.0
4336,58.0,22.0,60.0,5.0,0.0
4337,46.0,0.0,60.0,5.0,0.0
4338,62.0,0.0,60.0,12.0,0.0
4339,53.0,1.0,60.0,12.0,0.0
4340,58.0,2.0,20.0,13.0,0.0
4341,58.0,1.0,20.0,3.0,0.0
4342,46.0,1.0,20.0,14.0,0.0
4343,56.0,4.0,20.0,13.0,0.0
4344,56.0,1.0,20.0,3.0,0.0
4345,44.0,3.0,20.0,14.0,0.0
4346,75.0,1.0,120.0,10.0,0.0
4347,75.0,1.0,120.0,0.0,0.0
4348,63.0,2.0,120.0,11.0,0.0
4349,63.0,2.0,120.0,1.0,0.0
4350,75.0,6.0,120.0,2.0,0.0
4351,58.0,1.0,90.0,12.0,0.0
4352,54.0,0.0,90.0,12.0,0.0
4353,54.0,4.0,20.0,13.0,0.0
4354,54.0,1.0,20.0,3.0,0.0
4355,42.0,25.0,20.0,14.0,0.0
4356,53.0,4.0,20.0,13.0,0.0
4357,53.0,1.0,20.0,3.0,0.0
4358,41.0,24.0,20.0,14.0,0.0
4359,58.0,9.0,30.0,5.0,0.0
4360,46.0,0.0,30.0,5.0,0.0
4361,54.0,4.0,20.0,13.0,0.0
4362,54.0,1.0,20.0,3.0,0.0
4363,42.0,3.0,20.0,14.0,0.0
4364,46.0,1.0,20.0,12.0,0.0
4365,58.0,4.0,20.0,13.0,0.0
4366,58.0,1.0,20.0,3.0,0.0
4367,46.0,5.0,20.0,14.0,0.0
4368,78.0,1.0,15.0,10.0,0.0
4369,78.0,1.0,15.0,0.0,0.0
4370,63.0,2.0,15.0,11.0,0.0
4371,66.0,2.0,15.0,1.0,0.0
4372,66.0,1.0,15.0,2.0,0.0
4373,46.0,0.0,30.0,5.0,0.0
4374,58.0,9.0,30.0,5.0,0.0
4375,75.0,0.0,15.0,2.0,0.0
4376,58.0,1.0,20.0,12.0,0.0
4377,77.0,1.0,15.0,10.0,0.0
4378,77.0,1.0,15.0,0.0,0.0
4379,56.0,1.0,20.0,13.0,0.0
4380,62.0,2.0,15.0,11.0,0.0
4381,65.0,2.0,15.0,1.0,0.0
4382,56.0,1.0,20.0,3.0,0.0
4383,65.0,2.0,15.0,2.0,0.0
4384,74.0,0.0,15.0,2.0,0.0
4385,44.0,1.0,20.0,14.0,0.0
4386,78.0,1.0,15.0,10.0,0.0
4387,78.0,1.0,15.0,0.0,0.0
4388,63.0,2.0,15.0,11.0,0.0
4389,66.0,0.0,15.0,1.0,0.0
4390,75.0,0.0,15.0,2.0,0.0
4391,66.0,1.0,15.0,2.0,0.0
4392,77.0,1.0,15.0,10.0,0.0
4393,77.0,1.0,15.0,0.0,0.0
4394,62.0,0.0,15.0,11.0,0.0
4395,65.0,2.0,15.0,1.0,0.0
4396,74.0,0.0,15.0,2.0,0.0
4397,65.0,0.0,15.0,2.0,0.0
4398,75.0,1.0,15.0,10.0,0.0
4399,75.0,1.0,15.0,0.0,0.0
4400,60.0,2.0,15.0,11.0,0.0
4401,63.0,2.0,15.0,1.0,0.0
4402,63.0,0.0,15.0,2.0,0.0
4403,72.0,6.0,15.0,2.0,0.0
4404,46.0,1.0,20.0,12.0,0.0
4405,53.0,2.0,20.0,13.0,0.0
4406,53.0,0.0,20.0,3.0,0.0
4407,41.0,1.0,20.0,14.0,0.0
4408,77.0,1.0,15.0,10.0,0.0
4409,77.0,1.0,15.0,0.0,0.0
4410,62.0,1.0,15.0,11.0,0.0
4411,65.0,2.0,15.0,1.0,0.0
4412,65.0,0.0,15.0,2.0,0.0
4413,74.0,22.0,15.0,2.0,0.0
4414,78.0,1.0,30.0,10.0,0.0
4415,78.0,1.0,30.0,0.0,0.0
4416,63.0,1.0,30.0,11.0,0.0
4417,66.0,2.0,30.0,1.0,0.0
4418,66.0,0.0,30.0,2.0,0.0
4419,75.0,0.0,30.0,2.0,0.0
4420,58.0,0.0,30.0,5.0,0.0
4421,46.0,21.0,30.0,5.0,0.0
4422,58.0,1.0,60.0,12.0,0.0
4423,51.0,2.0,20.0,13.0,0.0
4424,51.0,0.0,20.0,3.0,0.0
4425,39.0,1.0,20.0,14.0,0.0
4426,54.0,4.0,20.0,13.0,0.0
4427,54.0,1.0,20.0,3.0,0.0
4428,42.0,25.0,20.0,14.0,0.0
4429,82.0,1.0,30.0,10.0,0.0
4430,77.0,0.0,30.0,0.0,0.0
4431,82.0,1.0,30.0,0.0,0.0
4432,65.0,1.0,30.0,11.0,0.0
4433,70.0,2.0,30.0,1.0,0.0
4434,70.0,0.0,30.0,2.0,0.0
4435,65.0,21.0,30.0,2.0,0.0
4436,58.0,0.0,30.0,5.0,0.0
4437,46.0,0.0,30.0,5.0,0.0
4438,46.0,1.0,60.0,12.0,0.0
4439,53.0,2.0,20.0,13.0,0.0
4440,53.0,0.0,20.0,3.0,0.0
4441,41.0,1.0,20.0,14.0,0.0
4442,49.0,4.0,20.0,13.0,0.0
4443,49.0,1.0,20.0,3.0,0.0
4444,37.0,1.0,20.0,14.0,0.0
4445,87.0,1.0,120.0,10.0,0.0
4446,78.0,0.0,120.0,0.0,0.0
4447,87.0,1.0,120.0,0.0,0.0
4448,66.0,2.0,120.0,11.0,0.0
4449,75.0,2.0,120.0,1.0,0.0
4450,63.0,23.0,120.0,4.0,0.0
4451,54.0,21.0,30.0,5.0,0.0
4452,66.0,6.0,120.0,2.0,0.0
4453,75.0,0.0,120.0,2.0,0.0
4454,51.0,1.0,20.0,12.0,0.0
4455,47.0,4.0,20.0,13.0,0.0
4456,47.0,1.0,20.0,3.0,0.0
4457,35.0,3.0,20.0,14.0,0.0
4458,47.0,1.0,20.0,12.0,0.0
4459,51.0,4.0,20.0,13.0,0.0
4460,51.0,1.0,20.0,3.0,0.0
4461,39.0,24.0,20.0,14.0,0.0
4462,54.0,1.0,20.0,12.0,0.0
4463,49.0,4.0,20.0,13.0,0.0
4464,49.0,1.0,20.0,3.0,0.0
4465,37.0,12.0,20.0,14.0,0.0
4466,49.0,1.0,20.0,12.0,0.0
4467,46.0,4.0,20.0,13.0,0.0
4468,46.0,1.0,20.0,3.0,0.0
4469,34.0,1.0,20.0,14.0,0.0
4470,78.0,1.0,30.0,10.0,0.0
4471,90.0,0.0,30.0,0.0,0.0
4472,87.0,1.0,30.0,0.0,0.0
4473,75.0,2.0,30.0,11.0,0.0
4474,78.0,2.0,30.0,1.0,0.0
4475,75.0,0.0,30.0,1.0,0.0
4476,72.0,0.0,30.0,2.0,0.0
4477,75.0,6.0,30.0,2.0,0.0
4478,48.0,1.0,20.0,12.0,0.0
4479,45.0,2.0,20.0,13.0,0.0
4480,48.0,0.0,30.0,3.0,0.0
4481,45.0,1.0,30.0,3.0,0.0
4482,33.0,14.0,30.0,14.0,0.0
4483,57.0,1.0,20.0,12.0,0.0
4484,48.0,29.0,20.0,13.0,0.0
4485,77.0,1.0,30.0,10.0,0.0
4486,89.0,0.0,30.0,0.0,0.0
4487,85.0,1.0,30.0,0.0,0.0
4488,73.0,2.0,30.0,11.0,0.0
4489,73.0,0.0,30.0,1.0,0.0
4490,77.0,2.0,30.0,1.0,0.0
4491,65.0,0.0,30.0,2.0,0.0
4492,73.0,6.0,30.0,2.0,0.0
4493,49.0,1.0,20.0,12.0,0.0
4494,46.0,2.0,20.0,13.0,0.0
4495,46.0,0.0,30.0,3.0,0.0
4496,49.0,1.0,30.0,3.0,0.0
4497,34.0,14.0,30.0,14.0,0.0
4498,58.0,1.0,20.0,12.0,0.0
4499,49.0,29.0,20.0,13.0,0.0
4500,75.0,1.0,30.0,10.0,0.0
4501,84.0,1.0,30.0,0.0,0.0
4502,87.0,0.0,30.0,0.0,0.0
4503,72.0,2.0,30.0,11.0,0.0
4504,75.0,2.0,30.0,1.0,0.0
4505,72.0,0.0,30.0,1.0,0.0
4506,65.0,0.0,30.0,2.0,0.0
4507,72.0,6.0,30.0,2.0,0.0
4508,51.0,1.0,20.0,12.0,0.0
4509,48.0,2.0,20.0,13.0,0.0
4510,51.0,0.0,30.0,3.0,0.0
4511,48.0,1.0,30.0,3.0,0.0
4512,36.0,14.0,30.0,14.0,0.0
4513,60.0,1.0,20.0,12.0,0.0
4514,51.0,29.0,20.0,13.0,0.0
4515,73.0,1.0,30.0,10.0,0.0
4516,85.0,1.0,30.0,0.0,0.0
4517,82.0,0.0,30.0,0.0,0.0
4518,70.0,2.0,30.0,11.0,0.0
4519,70.0,0.0,30.0,1.0,0.0
4520,73.0,2.0,30.0,1.0,0.0
4521,65.0,6.0,30.0,2.0,0.0
4522,70.0,0.0,30.0,2.0,0.0
4523,53.0,1.0,20.0,12.0,0.0
4524,49.0,2.0,20.0,13.0,0.0
4525,49.0,1.0,30.0,3.0,0.0
4526,53.0,0.0,30.0,3.0,0.0
4527,37.0,14.0,30.0,14.0,0.0
4528,61.0,1.0,20.0,12.0,0.0
4529,53.0,29.0,20.0,13.0,0.0
4530,72.0,1.0,30.0,10.0,0.0
4531,84.0,1.0,30.0,0.0,0.0
4532,66.0,2.0,30.0,11.0,0.0
4533,72.0,2.0,30.0,1.0,0.0
4534,63.0,6.0,30.0,2.0,0.0
4535,72.0,0.0,30.0,2.0,0.0
4536,54.0,1.0,20.0,12.0,0.0
4537,51.0,2.0,20.0,13.0,0.0
4538,51.0,0.0,30.0,3.0,0.0
4539,54.0,1.0,30.0,3.0,0.0
4540,39.0,14.0,30.0,14.0,0.0
4541,63.0,1.0,20.0,12.0,0.0
4542,54.0,10.0,20.0,13.0,0.0
4543,70.0,7.0,15.0,10.0,0.0
4544,60.0,2.0,30.0,11.0,0.0
4545,53.0,1.0,60.0,6.0,0.0
4546,65.0,0.0,60.0,6.0,0.0
4547,60.0,0.0,30.0,2.0,0.0
4548,72.0,6.0,30.0,2.0,0.0
4549,69.0,1.0,15.0,10.0,0.0
4550,53.0,0.0,20.0,12.0,0.0
4551,81.0,3.0,15.0,0.0,0.0
4552,53.0,2.0,20.0,13.0,0.0
4553,69.0,4.0,15.0,1.0,0.0
4554,53.0,1.0,30.0,3.0,0.0
4555,41.0,2.0,30.0,14.0,0.0
4556,70.0,1.0,15.0,10.0,0.0
4557,41.0,12.0,60.0,15.0,0.0
4558,82.0,3.0,15.0,0.0,0.0
4559,70.0,1.0,15.0,1.0,0.0
4560,69.0,1.0,15.0,10.0,0.0
4561,81.0,1.0,15.0,0.0,0.0
4562,69.0,2.0,15.0,1.0,0.0
4563,67.0,1.0,15.0,10.0,0.0
4564,79.0,3.0,15.0,0.0,0.0
4565,67.0,8.0,15.0,1.0,0.0
4566,60.0,1.0,20.0,12.0,0.0
4567,57.0,2.0,20.0,13.0,0.0
4568,69.0,1.0,15.0,10.0,0.0
4569,81.0,2.0,15.0,0.0,0.0
4570,69.0,11.0,15.0,1.0,0.0
4571,70.0,1.0,30.0,10.0,0.0
4572,82.0,1.0,30.0,0.0,0.0
4573,65.0,2.0,30.0,11.0,0.0
4574,58.0,0.0,60.0,6.0,0.0
4575,65.0,12.0,60.0,6.0,0.0
4576,70.0,2.0,30.0,1.0,0.0
4577,65.0,6.0,30.0,2.0,0.0
4578,70.0,0.0,30.0,2.0,0.0
4579,53.0,1.0,20.0,12.0,0.0
4580,49.0,2.0,20.0,13.0,0.0
4581,53.0,1.0,30.0,3.0,0.0
4582,49.0,0.0,30.0,3.0,0.0
4583,37.0,14.0,30.0,14.0,0.0
4584,46.0,1.0,60.0,15.0,0.0
4585,58.0,1.0,20.0,12.0,0.0
4586,58.0,5.0,20.0,13.0,0.0
4587,72.0,0.0,15.0,10.0,0.0
4588,84.0,1.0,15.0,0.0,0.0
4589,81.0,0.0,15.0,0.0,0.0
4590,69.0,2.0,15.0,11.0,0.0
4591,72.0,0.0,15.0,1.0,0.0
4592,69.0,8.0,15.0,1.0,0.0
4593,63.0,0.0,30.0,2.0,0.0
4594,51.0,1.0,20.0,12.0,0.0
4595,48.0,2.0,20.0,13.0,0.0
4596,48.0,0.0,20.0,3.0,0.0
4597,51.0,1.0,20.0,3.0,0.0
4598,36.0,1.0,20.0,14.0,0.0
4599,73.0,1.0,15.0,10.0,0.0
4600,85.0,0.0,15.0,0.0,0.0
4601,82.0,1.0,15.0,0.0,0.0
4602,70.0,0.0,15.0,11.0,0.0
4603,70.0,2.0,15.0,1.0,0.0
4604,73.0,0.0,15.0,1.0,0.0
4605,75.0,1.0,15.0,10.0,0.0
4606,84.0,1.0,15.0,0.0,0.0
4607,87.0,0.0,15.0,0.0,0.0
4608,72.0,2.0,15.0,11.0,0.0
4609,75.0,0.0,15.0,1.0,0.0
4610,72.0,8.0,15.0,1.0,0.0
4611,65.0,9.0,15.0,2.0,0.0
4612,61.0,0.0,30.0,2.0,0.0
4613,49.0,1.0,20.0,12.0,0.0
4614,46.0,2.0,20.0,13.0,0.0
4615,49.0,1.0,20.0,3.0,0.0
4616,46.0,0.0,20.0,3.0,0.0
4617,34.0,1.0,20.0,14.0,0.0
4618,77.0,1.0,15.0,10.0,0.0
4619,89.0,1.0,15.0,0.0,0.0
4620,85.0,0.0,15.0,0.0,0.0
4621,73.0,0.0,15.0,11.0,0.0
4622,73.0,0.0,15.0,1.0,0.0
4623,77.0,2.0,15.0,1.0,0.0
4624,78.0,1.0,30.0,10.0,0.0
4625,90.0,1.0,30.0,0.0,0.0
4626,87.0,0.0,30.0,0.0,0.0
4627,75.0,2.0,30.0,11.0,0.0
4628,75.0,2.0,30.0,1.0,0.0
4629,78.0,0.0,30.0,1.0,0.0
4630,75.0,6.0,30.0,2.0,0.0
4631,78.0,0.0,30.0,2.0,0.0
4632,48.0,1.0,20.0,12.0,0.0
4633,45.0,2.0,20.0,13.0,0.0
4634,45.0,0.0,30.0,3.0,0.0
4635,48.0,1.0,30.0,3.0,0.0
4636,33.0,14.0,30.0,14.0,0.0
4637,57.0,1.0,20.0,12.0,0.0
4638,48.0,29.0,20.0,13.0,0.0
4639,77.0,1.0,30.0,10.0,0.0
4640,85.0,0.0,30.0,0.0,0.0
4641,89.0,1.0,30.0,0.0,0.0
4642,73.0,2.0,30.0,11.0,0.0
4643,73.0,2.0,30.0,1.0,0.0
4644,77.0,0.0,30.0,1.0,0.0
4645,65.0,6.0,30.0,2.0,0.0
4646,73.0,0.0,30.0,2.0,0.0
4647,48.0,1.0,20.0,12.0,0.0
4648,46.0,2.0,20.0,13.0,0.0
4649,46.0,1.0,30.0,3.0,0.0
4650,49.0,0.0,30.0,3.0,0.0
4651,34.0,14.0,30.0,14.0,0.0
4652,58.0,1.0,20.0,12.0,0.0
4653,49.0,29.0,20.0,13.0,0.0
4654,75.0,1.0,30.0,10.0,0.0
4655,84.0,0.0,30.0,0.0,0.0
4656,87.0,1.0,30.0,0.0,0.0
4657,72.0,2.0,30.0,11.0,0.0
4658,75.0,2.0,30.0,1.0,0.0
4659,72.0,0.0,30.0,1.0,0.0
4660,72.0,0.0,30.0,2.0,0.0
4661,65.0,6.0,30.0,2.0,0.0
4662,51.0,1.0,20.0,12.0,0.0
4663,48.0,2.0,20.0,13.0,0.0
4664,51.0,0.0,30.0,3.0,0.0
4665,48.0,1.0,30.0,3.0,0.0
4666,36.0,14.0,30.0,14.0,0.0
4667,60.0,1.0,20.0,12.0,0.0
4668,51.0,29.0,20.0,13.0,0.0
4669,73.0,1.0,30.0,10.0,0.0
4670,82.0,0.0,30.0,0.0,0.0
4671,85.0,1.0,30.0,0.0,0.0
4672,70.0,2.0,30.0,11.0,0.0
4673,70.0,0.0,30.0,1.0,0.0
4674,73.0,2.0,30.0,1.0,0.0
4675,70.0,0.0,30.0,2.0,0.0
4676,65.0,6.0,30.0,2.0,0.0
4677,53.0,1.0,20.0,12.0,0.0
4678,49.0,2.0,20.0,13.0,0.0
4679,53.0,1.0,30.0,3.0,0.0
4680,49.0,0.0,30.0,3.0,0.0
4681,37.0,14.0,30.0,14.0,0.0
4682,61.0,1.0,20.0,12.0,0.0
4683,53.0,29.0,20.0,13.0,0.0
4684,72.0,1.0,30.0,10.0,0.0
4685,84.0,1.0,30.0,0.0,0.0
4686,70.0,0.0,30.0,11.0,0.0
4687,60.0,2.0,30.0,11.0,0.0
4688,72.0,2.0,30.0,1.0,0.0
4689,72.0,0.0,30.0,2.0,0.0
4690,63.0,6.0,30.0,2.0,0.0
4691,54.0,1.0,20.0,12.0,0.0
4692,51.0,2.0,20.0,13.0,0.0
4693,54.0,1.0,30.0,3.0,0.0
4694,51.0,0.0,30.0,3.0,0.0
4695,39.0,14.0,30.0,14.0,0.0
4696,63.0,1.0,20.0,12.0,0.0
4697,54.0,10.0,20.0,13.0,0.0
4698,70.0,7.0,15.0,10.0,0.0
4699,69.0,2.0,30.0,11.0,0.0
4700,60.0,0.0,30.0,11.0,0.0
4701,53.0,0.0,60.0,6.0,0.0
4702,60.0,6.0,30.0,2.0,0.0
4703,72.0,0.0,30.0,2.0,0.0
4704,69.0,1.0,15.0,10.0,0.0
4705,53.0,1.0,20.0,12.0,0.0
4706,53.0,2.0,20.0,13.0,0.0
4707,81.0,3.0,15.0,0.0,0.0
4708,69.0,4.0,15.0,1.0,0.0
4709,53.0,0.0,30.0,3.0,0.0
4710,51.0,1.0,30.0,3.0,0.0
4711,41.0,2.0,30.0,14.0,0.0
4712,41.0,12.0,60.0,15.0,0.0
4713,70.0,1.0,15.0,10.0,0.0
4714,82.0,3.0,15.0,0.0,0.0
4715,70.0,0.0,15.0,1.0,0.0
4716,69.0,1.0,15.0,10.0,0.0
4717,81.0,1.0,15.0,0.0,0.0
4718,69.0,2.0,15.0,1.0,0.0
4719,67.0,1.0,15.0,10.0,0.0
4720,79.0,3.0,15.0,0.0,0.0
4721,67.0,8.0,15.0,1.0,0.0
4722,60.0,1.0,20.0,12.0,0.0
4723,57.0,2.0,20.0,13.0,0.0
4724,69.0,1.0,15.0,10.0,0.0
4725,81.0,2.0,15.0,0.0,0.0
4726,69.0,11.0,15.0,1.0,0.0
4727,70.0,1.0,30.0,10.0,0.0
4728,82.0,1.0,30.0,0.0,0.0
4729,70.0,2.0,30.0,11.0,0.0
4730,58.0,0.0,30.0,11.0,0.0
4731,65.0,1.0,15.0,6.0,0.0
4732,70.0,2.0,30.0,1.0,0.0
4733,70.0,6.0,30.0,2.0,0.0
4734,65.0,0.0,30.0,2.0,0.0
4735,53.0,1.0,20.0,12.0,0.0
4736,50.0,2.0,20.0,13.0,0.0
4737,53.0,0.0,30.0,3.0,0.0
4738,50.0,1.0,30.0,3.0,0.0
4739,38.0,14.0,30.0,14.0,0.0
4740,46.0,1.0,60.0,15.0,0.0
4741,58.0,1.0,20.0,12.0,0.0
4742,58.0,5.0,20.0,13.0,0.0
4743,72.0,0.0,15.0,10.0,0.0
4744,84.0,1.0,15.0,0.0,0.0
4745,80.0,0.0,15.0,0.0,0.0
4746,68.0,2.0,15.0,11.0,0.0
4747,58.0,0.0,15.0,6.0,0.0
4748,70.0,1.0,30.0,6.0,0.0
4749,72.0,2.0,15.0,1.0,0.0
4750,68.0,0.0,15.0,2.0,0.0
4751,72.0,6.0,15.0,2.0,0.0
4752,65.0,1.0,20.0,12.0,0.0
4753,46.0,2.0,20.0,13.0,0.0
4754,46.0,1.0,20.0,3.0,0.0
4755,34.0,0.0,20.0,14.0,0.0
4756,74.0,1.0,15.0,10.0,0.0
4757,46.0,0.0,30.0,15.0,0.0
4758,82.0,0.0,15.0,0.0,0.0
4759,86.0,1.0,15.0,0.0,0.0
4760,70.0,0.0,15.0,11.0,0.0
4761,74.0,0.0,15.0,1.0,0.0
4762,70.0,9.0,15.0,2.0,0.0
4763,74.0,0.0,15.0,2.0,0.0
4764,75.0,1.0,15.0,10.0,0.0
4765,84.0,0.0,15.0,0.0,0.0
4766,87.0,1.0,15.0,0.0,0.0
4767,72.0,2.0,15.0,11.0,0.0
4768,58.0,0.0,30.0,6.0,0.0
4769,75.0,2.0,15.0,1.0,0.0
4770,58.0,2.0,15.0,4.0,0.0
4771,72.0,0.0,15.0,2.0,0.0
4772,75.0,6.0,15.0,2.0,0.0
4773,62.0,1.0,20.0,12.0,0.0
4774,44.0,2.0,20.0,13.0,0.0
4775,44.0,1.0,20.0,3.0,0.0
4776,32.0,0.0,20.0,14.0,0.0
4777,77.0,1.0,15.0,10.0,0.0
4778,86.0,0.0,15.0,0.0,0.0
4779,89.0,1.0,15.0,0.0,0.0
4780,74.0,0.0,15.0,11.0,0.0
4781,77.0,2.0,15.0,1.0,0.0
4782,77.0,0.0,15.0,2.0,0.0
4783,74.0,9.0,15.0,2.0,0.0
4784,82.0,1.0,30.0,10.0,0.0
4785,90.0,1.0,30.0,0.0,0.0
4786,82.0,0.0,30.0,0.0,0.0
4787,75.0,1.0,30.0,11.0,0.0
4788,70.0,1.0,15.0,6.0,0.0
4789,58.0,0.0,30.0,6.0,0.0
4790,82.0,2.0,30.0,1.0,0.0
4791,78.0,0.0,30.0,1.0,0.0
4792,63.0,26.0,300.0,4.0,0.0
4793,82.0,0.0,30.0,2.0,0.0
4794,75.0,1.0,30.0,2.0,0.0
4795,58.0,1.0,30.0,12.0,0.0
4796,42.0,4.0,30.0,13.0,0.0
4797,42.0,1.0,30.0,3.0,0.0
4798,30.0,2.0,30.0,14.0,0.0
4799,46.0,15.0,15.0,15.0,0.0
4800,78.0,1.0,30.0,10.0,0.0
4801,82.0,0.0,30.0,0.0,0.0
4802,90.0,1.0,30.0,0.0,0.0
4803,70.0,1.0,30.0,11.0,0.0
4804,58.0,1.0,30.0,6.0,0.0
4805,70.0,0.0,30.0,6.0,0.0
4806,75.0,2.0,30.0,1.0,0.0
4807,78.0,0.0,30.0,1.0,0.0
4808,78.0,0.0,30.0,2.0,0.0
4809,70.0,1.0,30.0,2.0,0.0
4810,63.0,1.0,30.0,12.0,0.0
4811,46.0,4.0,30.0,13.0,0.0
4812,46.0,1.0,30.0,3.0,0.0
4813,34.0,2.0,30.0,14.0,0.0
4814,46.0,45.0,30.0,15.0,0.0
4815,75.0,1.0,30.0,10.0,0.0
4816,87.0,0.0,30.0,0.0,0.0
4817,82.0,1.0,30.0,0.0,0.0
4818,66.0,1.0,30.0,11.0,0.0
4819,58.0,0.0,30.0,6.0,0.0
4820,70.0,1.0,30.0,6.0,0.0
4821,70.0,2.0,30.0,1.0,0.0
4822,75.0,0.0,30.0,1.0,0.0
4823,75.0,1.0,30.0,2.0,0.0
4824,66.0,0.0,30.0,2.0,0.0
4825,54.0,1.0,30.0,12.0,0.0
4826,39.0,4.0,30.0,13.0,0.0
4827,51.0,1.0,30.0,3.0,0.0
4828,39.0,0.0,30.0,3.0,0.0
4829,39.0,2.0,30.0,14.0,0.0
4830,46.0,45.0,30.0,15.0,0.0
4831,70.0,1.0,30.0,10.0,0.0
4832,82.0,1.0,30.0,0.0,0.0
4833,63.0,1.0,30.0,11.0,0.0
4834,70.0,1.0,30.0,6.0,0.0
4835,58.0,0.0,30.0,6.0,0.0
4836,66.0,0.0,30.0,1.0,0.0
4837,70.0,2.0,30.0,1.0,0.0
4838,63.0,1.0,30.0,2.0,0.0
4839,70.0,0.0,30.0,2.0,0.0
4840,58.0,1.0,30.0,12.0,0.0
4841,42.0,4.0,30.0,13.0,0.0
4842,42.0,0.0,30.0,3.0,0.0
4843,54.0,1.0,30.0,3.0,0.0
4844,42.0,2.0,30.0,14.0,0.0
4845,46.0,45.0,30.0,15.0,0.0
4846,78.0,1.0,30.0,10.0,0.0
4847,78.0,1.0,30.0,0.0,0.0
4848,63.0,1.0,30.0,11.0,0.0
4849,70.0,0.0,30.0,6.0,0.0
4850,58.0,1.0,30.0,6.0,0.0
4851,66.0,2.0,30.0,1.0,0.0
4852,63.0,0.0,30.0,1.0,0.0
4853,63.0,0.0,30.0,2.0,0.0
4854,66.0,1.0,30.0,2.0,0.0
4855,63.0,1.0,30.0,12.0,0.0
4856,46.0,4.0,30.0,13.0,0.0
4857,46.0,1.0,30.0,3.0,0.0
4858,58.0,0.0,30.0,3.0,0.0
4859,46.0,2.0,30.0,14.0,0.0
4860,46.0,19.0,30.0,15.0,0.0
4861,75.0,1.0,30.0,10.0,0.0
4862,75.0,1.0,30.0,0.0,0.0
4863,66.0,0.0,30.0,11.0,0.0
4864,58.0,1.0,30.0,11.0,0.0
4865,70.0,0.0,30.0,6.0,0.0
4866,58.0,1.0,30.0,6.0,0.0
4867,75.0,0.0,30.0,1.0,0.0
4868,63.0,2.0,30.0,4.0,0.0
4869,70.0,0.0,30.0,1.0,0.0
4870,66.0,1.0,30.0,2.0,0.0
4871,75.0,0.0,30.0,2.0,0.0
4872,66.0,1.0,30.0,12.0,0.0
4873,51.0,4.0,30.0,13.0,0.0
4874,51.0,1.0,30.0,3.0,0.0
4875,39.0,2.0,30.0,14.0,0.0
4876,46.0,45.0,30.0,15.0,0.0
4877,72.0,1.0,30.0,10.0,0.0
4878,72.0,1.0,30.0,0.0,0.0
4879,70.0,1.0,30.0,11.0,0.0
4880,60.0,0.0,30.0,11.0,0.0
4881,53.0,1.0,30.0,6.0,0.0
4882,65.0,0.0,30.0,6.0,0.0
4883,60.0,0.0,30.0,4.0,0.0
4884,72.0,0.0,30.0,1.0,0.0
4885,53.0,0.0,30.0,4.0,0.0
4886,70.0,2.0,30.0,1.0,0.0
4887,65.0,0.0,30.0,2.0,0.0
4888,72.0,1.0,30.0,2.0,0.0
4889,65.0,1.0,30.0,12.0,0.0
4890,53.0,4.0,30.0,13.0,0.0
4891,53.0,1.0,30.0,3.0,0.0
4892,41.0,2.0,30.0,14.0,0.0
4893,41.0,45.0,30.0,15.0,0.0
4894,77.0,1.0,30.0,10.0,0.0
4895,77.0,1.0,30.0,0.0,0.0
4896,69.0,0.0,30.0,11.0,0.0
4897,60.0,1.0,30.0,11.0,0.0
4898,72.0,0.0,30.0,6.0,0.0
4899,65.0,1.0,30.0,6.0,0.0
4900,53.0,0.0,30.0,4.0,0.0
4901,69.0,0.0,30.0,1.0,0.0
4902,77.0,2.0,30.0,1.0,0.0
4903,65.0,0.0,30.0,4.0,0.0
4904,65.0,0.0,30.0,2.0,0.0
4905,77.0,1.0,30.0,2.0,0.0
4906,60.0,1.0,30.0,12.0,0.0
4907,53.0,0.0,30.0,12.0,0.0
4908,41.0,4.0,30.0,13.0,0.0
4909,53.0,0.0,30.0,3.0,0.0
4910,41.0,1.0,30.0,3.0,0.0
4911,29.0,2.0,30.0,14.0,0.0
4912,41.0,49.0,30.0,15.0,0.0
4913,70.0,1.0,60.0,10.0,0.0
4914,70.0,1.0,60.0,0.0,0.0
4915,70.0,0.0,60.0,11.0,0.0
4916,58.0,1.0,60.0,11.0,0.0
4917,58.0,1.0,60.0,6.0,0.0
4918,70.0,0.0,60.0,6.0,0.0
4919,58.0,26.0,30.0,4.0,0.0
4920,46.0,0.0,30.0,4.0,0.0
4921,70.0,2.0,60.0,1.0,0.0
4922,61.0,0.0,60.0,2.0,0.0
4923,70.0,1.0,60.0,2.0,0.0
4924,61.0,1.0,60.0,12.0,0.0
4925,53.0,0.0,60.0,12.0,0.0
4926,46.0,4.0,60.0,13.0,0.0
4927,46.0,0.0,60.0,3.0,0.0
4928,49.0,1.0,60.0,3.0,0.0
4929,34.0,2.0,60.0,14.0,0.0
4930,46.0,79.0,60.0,15.0,0.0
4931,58.0,2.0,60.0,10.0,0.0
4932,58.0,1.0,60.0,11.0,0.0
4933,58.0,1.0,60.0,6.0,0.0
4934,46.0,26.0,30.0,4.0,0.0
4935,58.0,2.0,60.0,1.0,0.0
4936,58.0,1.0,60.0,2.0,0.0
4937,46.0,2.0,240.0,5.0,0.0
4938,53.0,8.0,60.0,12.0,0.0
4939,49.0,0.0,60.0,12.0,0.0
4940,46.0,4.0,240.0,13.0,0.0
4941,46.0,1.0,240.0,3.0,0.0
4942,34.0,113.0,240.0,14.0,0.0
4943,46.0,171.0,60.0,15.0,0.0
4944,49.0,4.0,120.0,13.0,0.0
4945,49.0,1.0,120.0,3.0,0.0
4946,37.0,47.0,120.0,14.0,0.0
4947,58.0,2.0,60.0,10.0,0.0
4948,58.0,58.0,60.0,11.0,0.0
4949,58.0,6.0,240.0,5.0,0.0
4950,49.0,2.0,15.0,5.0,0.0
4951,42.0,52.0,120.0,13.0,0.0
4952,42.0,1.0,240.0,3.0,0.0
4953,42.0,54.0,240.0,14.0,0.0
4954,61.0,2.0,60.0,10.0,0.0
4955,61.0,6.0,60.0,11.0,0.0
4956,66.0,2.0,60.0,10.0,0.0
4957,66.0,58.0,60.0,11.0,0.0
4958,70.0,2.0,60.0,10.0,0.0
4959,70.0,4.0,60.0,11.0,0.0
4960,73.0,2.0,180.0,10.0,0.0
4961,68.0,10.0,180.0,11.0,0.0
4962,56.0,1.0,240.0,5.0,0.0
4963,49.0,60.0,60.0,12.0,0.0
4964,41.0,1.0,240.0,3.0,0.0
4965,41.0,55.0,240.0,14.0,0.0
4966,53.0,48.0,60.0,12.0,0.0
4967,56.0,53.0,60.0,12.0,0.0
4968,68.0,2.0,60.0,10.0,0.0
4969,68.0,4.0,60.0,11.0,0.0
4970,61.0,5.0,60.0,12.0,0.0
4971,71.0,2.0,120.0,10.0,0.0
4972,71.0,11.0,120.0,11.0,0.0
4973,54.0,1.0,240.0,5.0,0.0
4974,66.0,6.0,180.0,12.0,0.0
4975,47.0,47.0,60.0,13.0,0.0
4976,39.0,1.0,240.0,3.0,0.0
4977,39.0,102.0,240.0,14.0,0.0
4978,51.0,47.0,60.0,13.0,0.0
4979,70.0,2.0,60.0,10.0,0.0
4980,70.0,5.0,60.0,11.0,0.0
4981,54.0,47.0,60.0,13.0,0.0
4982,68.0,2.0,60.0,10.0,0.0
4983,68.0,9.0,60.0,11.0,0.0
4984,54.0,1.0,60.0,12.0,0.0
4985,59.0,4.0,60.0,13.0,0.0
4986,66.0,2.0,120.0,10.0,0.0
4987,66.0,6.0,120.0,11.0,0.0
4988,63.0,1.0,120.0,5.0,0.0
4989,59.0,0.0,15.0,5.0,0.0
4990,59.0,59.0,120.0,12.0,0.0
4991,63.0,3.0,120.0,13.0,0.0
4992,37.0,1.0,240.0,3.0,0.0
4993,37.0,47.0,240.0,14.0,0.0
4994,65.0,2.0,180.0,10.0,0.0
4995,65.0,58.0,180.0,11.0,0.0
4996,58.0,1.0,60.0,5.0,0.0
4997,61.0,0.0,60.0,5.0,0.0
4998,58.0,1.0,60.0,12.0,0.0
4999,61.0,54.0,60.0,13.0,0.0
5000,59.0,0.0,60.0,5.0,0.0
5001,56.0,1.0,60.0,12.0,0.0
5002,59.0,3.0,60.0,13.0,0.0
5003,56.0,6.0,15.0,5.0,0.0
5004,59.0,1.0,120.0,5.0,0.0
5005,56.0,1.0,120.0,12.0,0.0
5006,59.0,52.0,120.0,13.0,0.0
5007,39.0,1.0,240.0,3.0,0.0
5008,51.0,0.0,240.0,3.0,0.0
5009,39.0,53.0,240.0,14.0,0.0
5010,66.0,2.0,60.0,10.0,0.0
5011,66.0,4.0,60.0,11.0,0.0
5012,70.0,2.0,60.0,10.0,0.0
5013,70.0,58.0,60.0,11.0,0.0
5014,58.0,2.0,360.0,4.0,0.0
5015,46.0,0.0,360.0,4.0,0.0
5016,54.0,0.0,540.0,5.0,0.0
5017,58.0,6.0,360.0,5.0,0.0
5018,51.0,1.0,180.0,2.0,0.0
5019,54.0,0.0,120.0,12.0,0.0
5020,58.0,9.0,120.0,13.0,0.0
5021,75.0,2.0,60.0,10.0,0.0
5022,75.0,1.0,60.0,11.0,0.0
5023,78.0,2.0,180.0,10.0,0.0
5024,78.0,9.0,180.0,11.0,0.0
5025,54.0,1.0,60.0,12.0,0.0
5026,51.0,58.0,60.0,13.0,0.0
5027,49.0,1.0,240.0,3.0,0.0
5028,37.0,0.0,240.0,3.0,0.0
5029,37.0,107.0,240.0,14.0,0.0
5030,54.0,0.0,15.0,2.0,0.0
5031,58.0,1.0,60.0,12.0,0.0
5032,54.0,47.0,60.0,13.0,0.0
5033,58.0,1.0,15.0,2.0,0.0
5034,63.0,1.0,60.0,2.0,0.0
5035,63.0,1.0,60.0,12.0,0.0
5036,58.0,52.0,60.0,13.0,0.0
5037,66.0,2.0,60.0,10.0,0.0
5038,66.0,0.0,60.0,11.0,0.0
5039,66.0,0.0,60.0,2.0,0.0
5040,63.0,0.0,60.0,2.0,0.0
5041,70.0,1.0,60.0,12.0,0.0
5042,63.0,1.0,60.0,13.0,0.0
5043,77.0,2.0,120.0,10.0,0.0
5044,77.0,5.0,120.0,11.0,0.0
5045,68.0,0.0,240.0,2.0,0.0
5046,66.0,1.0,180.0,2.0,0.0
5047,68.0,1.0,120.0,12.0,0.0
5048,66.0,52.0,120.0,13.0,0.0
5049,48.0,1.0,240.0,3.0,0.0
5050,36.0,0.0,240.0,3.0,0.0
5051,36.0,51.0,240.0,14.0,0.0
5052,75.0,2.0,60.0,10.0,0.0
5053,75.0,4.0,60.0,11.0,0.0
5054,66.0,48.0,60.0,12.0,0.0
5055,56.0,1.0,120.0,13.0,0.0
5056,73.0,2.0,60.0,10.0,0.0
5057,73.0,5.0,60.0,11.0,0.0
5058,65.0,6.0,60.0,2.0,0.0
5059,65.0,1.0,60.0,12.0,0.0
5060,73.0,2.0,120.0,10.0,0.0
5061,73.0,2.0,120.0,11.0,0.0
5062,56.0,2.0,15.0,4.0,0.0
5063,49.0,5.0,60.0,7.0,0.0
5064,53.0,0.0,120.0,4.0,0.0
5065,53.0,0.0,15.0,5.0,0.0
5066,56.0,0.0,15.0,5.0,0.0
5067,65.0,0.0,120.0,2.0,0.0
5068,68.0,0.0,120.0,2.0,0.0
5069,65.0,1.0,120.0,12.0,0.0
5070,56.0,4.0,120.0,13.0,0.0
5071,37.0,51.0,60.0,8.0,0.0
5072,37.0,1.0,120.0,3.0,0.0
5073,49.0,0.0,120.0,3.0,0.0
5074,37.0,47.0,120.0,14.0,0.0
5075,53.0,0.0,60.0,7.0,0.0
5076,41.0,1.0,60.0,8.0,0.0
5077,56.0,5.0,60.0,7.0,0.0
5078,44.0,55.0,60.0,8.0,0.0
5079,59.0,5.0,60.0,7.0,0.0
5080,49.0,63.0,60.0,8.0,0.0
5081,42.0,8.0,120.0,8.0,0.0
5082,46.0,52.0,60.0,13.0,0.0
5083,42.0,40.0,120.0,14.0,0.0
5084,70.0,5.0,120.0,7.0,0.0
5085,58.0,10.0,120.0,8.0,0.0
5086,49.0,5.0,60.0,13.0,0.0
5087,54.0,8.0,120.0,8.0,0.0
5088,54.0,52.0,60.0,13.0,0.0
5089,73.0,5.0,120.0,7.0,0.0
5090,61.0,9.0,120.0,8.0,0.0
5091,58.0,45.0,60.0,13.0,0.0
5092,53.0,7.0,120.0,8.0,0.0
5093,44.0,1.0,60.0,12.0,0.0
5094,61.0,52.0,60.0,13.0,0.0
5095,41.0,40.0,120.0,14.0,0.0
5096,68.0,5.0,120.0,7.0,0.0
5097,56.0,9.0,120.0,8.0,0.0
5098,49.0,6.0,60.0,12.0,0.0
5099,52.0,7.0,120.0,8.0,0.0
5100,52.0,53.0,60.0,12.0,0.0
5101,40.0,40.0,120.0,14.0,0.0
5102,73.0,5.0,120.0,7.0,0.0
5103,61.0,9.0,120.0,8.0,0.0
5104,56.0,6.0,60.0,12.0,0.0
5105,51.0,8.0,120.0,8.0,0.0
5106,59.0,1.0,60.0,12.0,0.0
5107,42.0,52.0,60.0,13.0,0.0
5108,39.0,40.0,120.0,14.0,0.0
5109,66.0,5.0,120.0,7.0,0.0
5110,54.0,10.0,120.0,8.0,0.0
5111,46.0,5.0,60.0,13.0,0.0
5112,50.0,8.0,120.0,8.0,0.0
5113,50.0,52.0,60.0,13.0,0.0
5114,38.0,40.0,120.0,14.0,0.0
5115,71.0,5.0,120.0,7.0,0.0
5116,59.0,9.0,120.0,8.0,0.0
5117,54.0,5.0,60.0,13.0,0.0
5118,49.0,7.0,240.0,8.0,0.0
5119,44.0,1.0,60.0,12.0,0.0
5120,53.0,59.0,60.0,13.0,0.0
5121,37.0,40.0,120.0,14.0,0.0
5122,70.0,5.0,120.0,7.0,0.0
5123,58.0,9.0,120.0,8.0,0.0
5124,49.0,6.0,60.0,12.0,0.0
5125,53.0,46.0,60.0,12.0,0.0
5126,68.0,5.0,60.0,7.0,0.0
5127,56.0,2.0,60.0,8.0,0.0
5128,59.0,60.0,60.0,12.0,0.0
5129,51.0,8.0,120.0,8.0,0.0
5130,54.0,1.0,720.0,5.0,0.0
5131,58.0,1.0,60.0,12.0,0.0
5132,46.0,52.0,60.0,13.0,0.0
5133,39.0,40.0,120.0,14.0,0.0
5134,66.0,5.0,120.0,7.0,0.0
5135,54.0,10.0,120.0,8.0,0.0
5136,51.0,5.0,60.0,13.0,0.0
5137,49.0,8.0,120.0,8.0,0.0
5138,54.0,52.0,60.0,13.0,0.0
5139,37.0,40.0,120.0,14.0,0.0
5140,78.0,2.0,120.0,7.0,0.0
5141,66.0,12.0,120.0,7.0,0.0
5142,58.0,5.0,60.0,13.0,0.0
5143,48.0,7.0,120.0,8.0,0.0
5144,48.0,1.0,60.0,12.0,0.0
5145,63.0,52.0,60.0,13.0,0.0
5146,36.0,40.0,120.0,14.0,0.0
5147,66.0,5.0,120.0,7.0,0.0
5148,54.0,9.0,120.0,8.0,0.0
5149,51.0,6.0,60.0,12.0,0.0
5150,46.0,7.0,120.0,8.0,0.0
5151,54.0,53.0,60.0,12.0,0.0
5152,34.0,40.0,120.0,14.0,0.0
5153,77.0,2.0,120.0,7.0,0.0
5154,65.0,12.0,120.0,7.0,0.0
5155,61.0,6.0,60.0,12.0,0.0
5156,44.0,6.0,240.0,8.0,0.0
5157,60.0,1.0,60.0,12.0,0.0
5158,44.0,60.0,60.0,13.0,0.0
5159,32.0,40.0,120.0,14.0,0.0
5160,66.0,5.0,120.0,7.0,0.0
5161,54.0,10.0,120.0,8.0,0.0
5162,51.0,5.0,60.0,13.0,0.0
5163,54.0,52.0,60.0,13.0,0.0
5164,44.0,54.0,120.0,14.0,0.0
5165,75.0,2.0,180.0,7.0,0.0
5166,63.0,1.0,180.0,7.0,0.0
5167,54.0,1.0,60.0,12.0,0.0
5168,60.0,5.0,60.0,13.0,0.0
5169,37.0,116.0,240.0,8.0,0.0
5170,53.0,7.0,120.0,5.0,0.0
5171,53.0,1.0,60.0,12.0,0.0
5172,56.0,50.0,60.0,13.0,0.0
5173,37.0,45.0,120.0,14.0,0.0
5174,41.0,5.0,60.0,8.0,0.0
5175,73.0,2.0,60.0,7.0,0.0
5176,61.0,1.0,60.0,7.0,0.0
5177,44.0,60.0,60.0,8.0,0.0
5178,48.0,4.0,60.0,8.0,0.0
5179,49.0,4.0,600.0,8.0,0.0
5180,37.0,53.0,600.0,8.0,0.0
5181,53.0,60.0,60.0,8.0,0.0
5182,71.0,1.0,240.0,7.0,0.0
5183,56.0,60.0,60.0,8.0,0.0
5184,60.0,60.0,60.0,8.0,0.0
5185,61.0,59.0,60.0,8.0,0.0
5186,53.0,60.0,60.0,8.0,0.0
5187,70.0,1.0,240.0,7.0,0.0
5188,54.0,60.0,60.0,8.0,0.0
5189,62.0,60.0,60.0,8.0,0.0
5190,63.0,59.0,60.0,8.0,0.0
5191,55.0,0.0,60.0,8.0,0.0
5192,56.0,62.0,60.0,7.0,0.0
5193,68.0,58.0,120.0,7.0,0.0
5194,47.0,2.0,240.0,8.0,0.0
5195,35.0,53.0,240.0,8.0,0.0
5196,66.0,60.0,120.0,7.0,0.0
5197,75.0,3.0,120.0,7.0,0.0
5198,65.0,2.0,60.0,7.0,0.0
5199,68.0,60.0,60.0,7.0,0.0
5200,73.0,3.0,240.0,7.0,0.0
5201,46.0,2.0,240.0,8.0,0.0
5202,34.0,53.0,240.0,8.0,0.0
5203,66.0,60.0,60.0,7.0,0.0
5204,65.0,60.0,60.0,7.0,0.0
5205,66.0,2.0,60.0,7.0,0.0
5206,63.0,2.0,60.0,7.0,0.0
5207,71.0,58.0,60.0,7.0,0.0
5208,47.0,2.0,240.0,8.0,0.0
5209,35.0,53.0,240.0,8.0,0.0
5210,59.0,2.0,60.0,7.0,0.0
5211,68.0,58.0,60.0,7.0,0.0
5212,56.0,60.0,60.0,7.0,0.0
5213,65.0,3.0,120.0,7.0,0.0
5214,61.0,2.0,60.0,7.0,0.0
5215,54.0,60.0,60.0,7.0,0.0
5216,66.0,3.0,120.0,7.0,0.0
5217,46.0,2.0,120.0,8.0,0.0
5218,34.0,56.0,120.0,8.0,0.0
5219,61.0,2.0,60.0,7.0,0.0
5220,68.0,3.0,120.0,7.0,0.0
5221,53.0,59.0,60.0,7.0,0.0
5222,44.0,2.0,120.0,8.0,0.0
5223,32.0,53.0,120.0,8.0,0.0
5224,61.0,62.0,120.0,7.0,0.0
5225,70.0,5.0,120.0,7.0,0.0
5226,30.0,56.0,120.0,8.0,0.0
5227,49.0,60.0,120.0,8.0,0.0
5228,78.0,1.0,240.0,7.0,0.0
5229,48.0,60.0,60.0,8.0,0.0
5230,46.0,59.0,60.0,8.0,0.0
5231,48.0,60.0,60.0,8.0,0.0
5232,77.0,1.0,120.0,7.0,0.0
5233,49.0,59.0,60.0,8.0,0.0
5234,37.0,58.0,120.0,8.0,0.0
5235,53.0,2.0,60.0,8.0,0.0
5236,56.0,60.0,60.0,8.0,0.0
5237,61.0,31.0,60.0,8.0,0.0
5238,64.0,0.0,60.0,10.0,0.0
5239,52.0,2.0,60.0,10.0,0.0
5240,76.0,6.0,240.0,0.0,0.0
5241,33.0,0.0,30.0,8.0,0.0
5242,48.0,22.0,30.0,8.0,0.0
5243,61.0,5.0,60.0,11.0,0.0
5244,57.0,0.0,60.0,11.0,0.0
5245,69.0,0.0,480.0,2.0,0.0
5246,61.0,1.0,480.0,2.0,0.0
5247,52.0,1.0,60.0,12.0,0.0
5248,52.0,20.0,60.0,13.0,0.0
5249,45.0,0.0,240.0,3.0,0.0
5250,49.0,20.0,240.0,3.0,0.0
5251,34.0,19.0,120.0,14.0,0.0
5252,49.0,6.0,20.0,8.0,0.0
5253,60.0,22.0,30.0,7.0,0.0
5254,57.0,1.0,60.0,12.0,0.0
5255,57.0,5.0,60.0,13.0,0.0
5256,61.0,17.0,20.0,7.0,0.0
5257,48.0,0.0,30.0,8.0,0.0
5258,33.0,22.0,30.0,8.0,0.0
5259,61.0,1.0,60.0,12.0,0.0
5260,61.0,20.0,60.0,13.0,0.0
5261,49.0,13.0,20.0,8.0,0.0
5262,60.0,22.0,30.0,7.0,0.0
5263,64.0,1.0,60.0,12.0,0.0
5264,64.0,4.0,60.0,13.0,0.0
5265,61.0,11.0,20.0,7.0,0.0
5266,66.0,0.0,60.0,10.0,0.0
5267,57.0,2.0,60.0,10.0,0.0
5268,61.0,0.0,60.0,11.0,0.0
5269,30.0,22.0,30.0,8.0,0.0
5270,48.0,0.0,30.0,8.0,0.0
5271,57.0,5.0,60.0,11.0,0.0
5272,66.0,1.0,60.0,12.0,0.0
5273,66.0,20.0,60.0,13.0,0.0
5274,42.0,20.0,240.0,3.0,0.0
5275,30.0,19.0,120.0,14.0,0.0
5276,49.0,6.0,20.0,8.0,0.0
5277,60.0,22.0,30.0,7.0,0.0
5278,54.0,1.0,120.0,12.0,0.0
5279,54.0,20.0,120.0,13.0,0.0
5280,61.0,23.0,20.0,7.0,0.0
5281,44.0,22.0,30.0,8.0,0.0
5282,30.0,0.0,30.0,8.0,0.0
5283,45.0,13.0,20.0,8.0,0.0
5284,56.0,22.0,30.0,7.0,0.0
5285,56.0,1.0,60.0,12.0,0.0
5286,56.0,4.0,60.0,13.0,0.0
5287,57.0,11.0,20.0,7.0,0.0
5288,62.0,0.0,60.0,10.0,0.0
5289,66.0,0.0,60.0,10.0,0.0
5290,54.0,2.0,60.0,10.0,0.0
5291,78.0,5.0,15.0,0.0,0.0
5292,69.0,0.0,15.0,0.0,0.0
5293,44.0,0.0,30.0,8.0,0.0
5294,57.0,5.0,60.0,11.0,0.0
5295,26.0,22.0,30.0,8.0,0.0
5296,66.0,0.0,540.0,2.0,0.0
5297,62.0,1.0,240.0,2.0,0.0
5298,57.0,21.0,60.0,12.0,0.0
5299,57.0,5.0,120.0,13.0,0.0
5300,54.0,0.0,15.0,3.0,0.0
5301,38.0,20.0,240.0,3.0,0.0
5302,26.0,19.0,120.0,14.0,0.0
5303,45.0,6.0,20.0,8.0,0.0
5304,56.0,22.0,30.0,7.0,0.0
5305,62.0,5.0,60.0,11.0,0.0
5306,62.0,1.0,60.0,12.0,0.0
5307,57.0,12.0,20.0,7.0,0.0
5308,26.0,22.0,30.0,8.0,0.0
5309,66.0,5.0,60.0,11.0,0.0
5310,41.0,0.0,30.0,8.0,0.0
5311,66.0,21.0,60.0,12.0,0.0
5312,42.0,8.0,20.0,8.0,0.0
5313,53.0,22.0,30.0,7.0,0.0
5314,69.0,4.0,60.0,11.0,0.0
5315,69.0,5.0,60.0,12.0,0.0
5316,54.0,11.0,20.0,7.0,0.0
5317,66.0,0.0,60.0,10.0,0.0
5318,54.0,2.0,60.0,10.0,0.0
5319,62.0,0.0,60.0,10.0,0.0
5320,71.0,1.0,180.0,0.0,0.0
5321,41.0,22.0,30.0,8.0,0.0
5322,26.0,0.0,30.0,8.0,0.0
5323,71.0,5.0,60.0,11.0,0.0
5324,59.0,1.0,180.0,2.0,0.0
5325,71.0,21.0,60.0,12.0,0.0
5326,50.0,1.0,180.0,3.0,0.0
5327,38.0,19.0,120.0,14.0,0.0
5328,42.0,6.0,20.0,8.0,0.0
5329,53.0,22.0,30.0,7.0,0.0
5330,59.0,4.0,120.0,11.0,0.0
5331,59.0,5.0,120.0,12.0,0.0
5332,54.0,23.0,20.0,7.0,0.0
5333,26.0,22.0,30.0,8.0,0.0
5334,38.0,15.0,60.0,14.0,0.0
5335,38.0,7.0,20.0,8.0,0.0
5336,53.0,4.0,30.0,7.0,0.0
5337,73.0,1.0,60.0,0.0,0.0
5338,25.0,18.0,30.0,8.0,0.0
5339,61.0,4.0,60.0,11.0,0.0
5340,61.0,1.0,60.0,2.0,0.0
5341,61.0,5.0,60.0,12.0,0.0
5342,49.0,1.0,60.0,3.0,0.0
5343,37.0,17.0,60.0,14.0,0.0
5344,54.0,4.0,20.0,7.0,0.0
5345,37.0,7.0,20.0,8.0,0.0
5346,62.0,0.0,60.0,10.0,0.0
5347,23.0,0.0,60.0,8.0,0.0
5348,54.0,1.0,60.0,10.0,0.0
5349,66.0,0.0,60.0,10.0,0.0
5350,58.0,22.0,30.0,7.0,0.0
5351,74.0,1.0,60.0,0.0,0.0
5352,62.0,4.0,60.0,11.0,0.0
5353,62.0,1.0,60.0,2.0,0.0
5354,62.0,5.0,60.0,12.0,0.0
5355,47.0,0.0,60.0,3.0,0.0
5356,35.0,17.0,60.0,14.0,0.0
5357,59.0,8.0,20.0,7.0,0.0
5358,50.0,0.0,60.0,8.0,0.0
5359,61.0,22.0,30.0,7.0,0.0
5360,35.0,30.0,60.0,8.0,0.0
5361,42.0,30.0,120.0,8.0,0.0
5362,62.0,8.0,20.0,7.0,0.0
5363,37.0,0.0,60.0,8.0,0.0
5364,49.0,0.0,60.0,8.0,0.0
5365,65.0,22.0,30.0,7.0,0.0
5366,66.0,8.0,20.0,7.0,0.0
5367,68.0,22.0,30.0,7.0,0.0
5368,73.0,11.0,60.0,0.0,0.0
5369,66.0,6.0,120.0,2.0,0.0
5370,61.0,18.0,60.0,3.0,0.0
5371,69.0,9.0,20.0,7.0,0.0
5372,70.0,22.0,30.0,7.0,0.0
5373,74.0,5.0,60.0,0.0,0.0
5374,59.0,18.0,60.0,3.0,0.0
5375,71.0,9.0,20.0,7.0,0.0
5376,73.0,22.0,30.0,7.0,0.0
5377,62.0,30.0,60.0,8.0,0.0
5378,54.0,0.0,120.0,8.0,0.0
5379,47.0,0.0,60.0,8.0,0.0
5380,74.0,8.0,20.0,7.0,0.0
5381,77.0,22.0,30.0,7.0,0.0
5382,61.0,0.0,60.0,8.0,0.0
5383,49.0,30.0,60.0,8.0,0.0
5384,78.0,8.0,20.0,7.0,0.0
5385,77.0,22.0,30.0,7.0,0.0
5386,73.0,5.0,60.0,0.0,0.0
5387,66.0,6.0,60.0,2.0,0.0
5388,61.0,2.0,60.0,3.0,0.0
5389,78.0,9.0,20.0,7.0,0.0
5390,78.0,12.0,15.0,7.0,0.0
5391,72.0,5.0,60.0,0.0,0.0
5392,62.0,2.0,1920.0,4.0,0.0
5393,69.0,4.0,60.0,2.0,0.0
5394,79.0,16.0,15.0,7.0,0.0
5395,62.0,13.0,60.0,3.0,0.0
5396,78.0,14.0,15.0,7.0,0.0
5397,79.0,5.0,15.0,7.0,0.0
5398,78.0,2.0,15.0,7.0,0.0
5399,60.0,0.0,60.0,8.0,0.0
5400,57.0,10.0,60.0,8.0,0.0
5401,50.0,6.0,120.0,8.0,0.0
5402,79.0,13.0,15.0,7.0,0.0
5403,78.0,15.0,15.0,7.0,0.0
5404,79.0,10.0,15.0,7.0,0.0
5405,79.0,14.0,15.0,7.0,0.0
5406,55.0,0.0,60.0,8.0,0.0
5407,59.0,0.0,60.0,8.0,0.0
5408,81.0,14.0,15.0,7.0,0.0
5409,79.0,16.0,15.0,7.0,0.0
5410,81.0,6.0,15.0,7.0,0.0
5411,79.0,14.0,15.0,7.0,0.0
5412,71.0,2.0,60.0,10.0,0.0
5413,67.0,5.0,60.0,11.0,0.0
5414,67.0,9.0,60.0,12.0,0.0
5415,81.0,15.0,15.0,7.0,0.0
5416,79.0,17.0,15.0,7.0,0.0
5417,81.0,5.0,15.0,7.0,0.0
5418,72.0,2.0,60.0,10.0,0.0
5419,81.0,14.0,15.0,7.0,0.0
5420,69.0,5.0,60.0,11.0,0.0
5421,69.0,7.0,60.0,12.0,0.0
5422,50.0,7.0,120.0,13.0,0.0
5423,83.0,12.0,15.0,7.0,0.0
5424,81.0,14.0,15.0,7.0,0.0
5425,83.0,4.0,15.0,7.0,0.0
5426,81.0,13.0,15.0,7.0,0.0
5427,60.0,5.0,60.0,8.0,0.0
5428,50.0,0.0,120.0,8.0,0.0
5429,54.0,0.0,60.0,8.0,0.0
5430,83.0,13.0,15.0,7.0,0.0
5431,81.0,16.0,15.0,7.0,0.0
5432,83.0,7.0,15.0,7.0,0.0
5433,83.0,14.0,15.0,7.0,0.0
5434,55.0,0.0,60.0,8.0,0.0
5435,59.0,10.0,60.0,8.0,0.0
5436,84.0,15.0,15.0,7.0,0.0
5437,83.0,15.0,15.0,7.0,0.0
5438,84.0,4.0,15.0,7.0,0.0
5439,83.0,13.0,15.0,7.0,0.0
5440,71.0,2.0,60.0,10.0,0.0
5441,67.0,5.0,60.0,11.0,0.0
5442,67.0,5.0,60.0,12.0,0.0
5443,84.0,14.0,15.0,7.0,0.0
5444,83.0,17.0,15.0,7.0,0.0
5445,84.0,3.0,15.0,7.0,0.0
5446,85.0,13.0,15.0,7.0,0.0
5447,70.0,1.0,960.0,10.0,0.0
5448,67.0,2.0,960.0,11.0,0.0
5449,64.0,7.0,960.0,12.0,0.0
5450,38.0,5.0,120.0,13.0,0.0
5451,86.0,16.0,15.0,7.0,0.0
5452,38.0,1.0,120.0,14.0,0.0
5453,85.0,10.0,15.0,7.0,0.0
5454,86.0,14.0,15.0,7.0,0.0
5455,85.0,13.0,15.0,7.0,0.0
5456,55.0,0.0,60.0,8.0,0.0
5457,50.0,5.0,60.0,8.0,0.0
5458,52.0,0.0,60.0,8.0,0.0
5459,58.0,0.0,60.0,8.0,0.0
5460,86.0,16.0,15.0,7.0,0.0
5461,85.0,13.0,15.0,7.0,0.0
5462,86.0,11.0,15.0,7.0,0.0
5463,85.0,5.0,15.0,7.0,0.0
5464,86.0,11.0,15.0,7.0,0.0
5465,38.0,3.0,60.0,8.0,0.0
5466,85.0,13.0,15.0,7.0,0.0
5467,86.0,14.0,15.0,7.0,0.0
5468,85.0,11.0,15.0,7.0,0.0
5469,86.0,14.0,15.0,7.0,0.0
5470,64.0,8.0,60.0,2.0,0.0
5471,85.0,12.0,15.0,7.0,0.0
5472,86.0,15.0,15.0,7.0,0.0
5473,85.0,11.0,15.0,7.0,0.0
5474,86.0,8.0,15.0,7.0,0.0
5475,88.0,10.0,15.0,7.0,0.0
5476,67.0,1.0,720.0,2.0,0.0
5477,38.0,4.0,120.0,13.0,0.0
5478,90.0,16.0,15.0,7.0,0.0
5479,38.0,11.0,120.0,14.0,0.0
5480,88.0,13.0,15.0,7.0,0.0
5481,90.0,12.0,15.0,7.0,0.0
5482,88.0,12.0,15.0,7.0,0.0
5483,58.0,0.0,60.0,8.0,0.0
5484,50.0,5.0,60.0,8.0,0.0
5485,55.0,0.0,60.0,8.0,0.0
5486,61.0,0.0,60.0,8.0,0.0
5487,90.0,14.0,15.0,7.0,0.0
5488,88.0,14.0,15.0,7.0,0.0
5489,90.0,12.0,15.0,7.0,0.0
5490,88.0,6.0,15.0,7.0,0.0
5491,90.0,1.0,15.0,7.0,0.0
5492,38.0,3.0,60.0,8.0,0.0
5493,88.0,16.0,15.0,7.0,0.0
5494,90.0,10.0,15.0,7.0,0.0
5495,88.0,13.0,15.0,7.0,0.0
5496,90.0,11.0,15.0,7.0,0.0
5497,88.0,15.0,15.0,7.0,0.0
5498,73.0,10.0,60.0,1.0,0.0
5499,90.0,13.0,15.0,7.0,0.0
5500,88.0,15.0,15.0,7.0,0.0
5501,90.0,4.0,15.0,7.0,0.0
5502,91.0,11.0,15.0,7.0,0.0
5503,76.0,2.0,480.0,1.0,0.0
5504,38.0,5.0,120.0,13.0,0.0
5505,93.0,11.0,15.0,7.0,0.0
5506,38.0,6.0,120.0,14.0,0.0
5507,91.0,14.0,15.0,7.0,0.0
5508,93.0,12.0,15.0,7.0,0.0
5509,91.0,12.0,15.0,7.0,0.0
5510,93.0,12.0,15.0,7.0,0.0
5511,61.0,0.0,60.0,8.0,0.0
5512,58.0,0.0,60.0,8.0,0.0
5513,55.0,0.0,60.0,8.0,0.0
5514,50.0,3.0,60.0,8.0,0.0
5515,91.0,13.0,15.0,7.0,0.0
5516,93.0,15.0,15.0,7.0,0.0
5517,91.0,9.0,15.0,7.0,0.0
5518,93.0,2.0,15.0,7.0,0.0
5519,38.0,3.0,60.0,8.0,0.0
5520,91.0,11.0,15.0,7.0,0.0
5521,93.0,11.0,15.0,7.0,0.0
5522,91.0,15.0,15.0,7.0,0.0
5523,93.0,7.0,15.0,7.0,0.0
5524,91.0,14.0,15.0,7.0,0.0
5525,70.0,13.0,60.0,0.0,0.0
5526,93.0,11.0,15.0,7.0,0.0
5527,91.0,15.0,15.0,7.0,0.0
5528,93.0,10.0,15.0,7.0,0.0
5529,91.0,5.0,15.0,7.0,0.0
5530,73.0,0.0,240.0,0.0,0.0
5531,91.0,13.0,15.0,7.0,0.0
5532,38.0,3.0,120.0,13.0,0.0
5533,38.0,11.0,120.0,14.0,0.0
5534,93.0,10.0,15.0,7.0,0.0
5535,91.0,14.0,15.0,7.0,0.0
5536,93.0,16.0,15.0,7.0,0.0
5537,91.0,10.0,15.0,7.0,0.0
5538,64.0,0.0,60.0,8.0,0.0
5539,61.0,0.0,60.0,8.0,0.0
5540,58.0,5.0,60.0,8.0,0.0
5541,50.0,0.0,60.0,8.0,0.0
5542,93.0,14.0,15.0,7.0,0.0
5543,91.0,13.0,15.0,7.0,0.0
5544,93.0,13.0,15.0,7.0,0.0
5545,91.0,6.0,15.0,7.0,0.0
5546,93.0,2.0,15.0,7.0,0.0
5547,38.0,5.0,60.0,8.0,0.0
5548,91.0,13.0,15.0,7.0,0.0
5549,93.0,16.0,15.0,7.0,0.0
5550,91.0,10.0,15.0,7.0,0.0
5551,93.0,17.0,15.0,7.0,0.0
5552,79.0,1.0,60.0,0.0,0.0
5553,91.0,18.0,15.0,7.0,0.0
5554,93.0,15.0,15.0,7.0,0.0
5555,91.0,2.0,15.0,7.0,0.0
5556,90.0,15.0,15.0,7.0,0.0
5557,69.0,6.0,600.0,10.0,0.0
5558,66.0,1.0,480.0,0.0,0.0
5559,81.0,2.0,120.0,0.0,0.0
5560,66.0,2.0,480.0,11.0,0.0
5561,50.0,3.0,960.0,4.0,0.0
5562,78.0,12.0,240.0,1.0,0.0
5563,72.0,11.0,360.0,2.0,0.0
5564,60.0,5.0,840.0,12.0,0.0
5565,38.0,5.0,120.0,13.0,0.0
5566,26.0,2.0,120.0,14.0,0.0
5567,91.0,14.0,15.0,7.0,0.0
5568,90.0,18.0,15.0,7.0,0.0
5569,91.0,18.0,20.0,7.0,0.0
5570,90.0,16.0,20.0,7.0,0.0
5571,50.0,0.0,60.0,8.0,0.0
5572,62.0,0.0,60.0,8.0,0.0
5573,57.0,5.0,60.0,8.0,0.0
5574,60.0,0.0,60.0,8.0,0.0
5575,91.0,18.0,20.0,7.0,0.0
5576,90.0,8.0,20.0,7.0,0.0
5577,84.0,13.0,15.0,7.0,0.0
5578,78.0,3.0,120.0,0.0,0.0
5579,38.0,17.0,60.0,8.0,0.0
5580,86.0,14.0,15.0,7.0,0.0
5581,84.0,20.0,15.0,7.0,0.0
5582,86.0,1.0,20.0,7.0,0.0
5583,84.0,15.0,20.0,7.0,0.0
5584,86.0,19.0,20.0,7.0,0.0
5585,84.0,7.0,20.0,7.0,0.0
5586,81.0,13.0,15.0,7.0,0.0
5587,72.0,5.0,120.0,0.0,0.0
5588,83.0,13.0,15.0,7.0,0.0
5589,81.0,13.0,15.0,7.0,0.0
5590,83.0,14.0,15.0,7.0,0.0
5591,81.0,14.0,15.0,7.0,0.0
5592,83.0,11.0,15.0,7.0,0.0
5593,81.0,13.0,15.0,7.0,0.0
5594,83.0,11.0,15.0,7.0,0.0
5595,81.0,3.0,15.0,7.0,0.0
5596,78.0,14.0,15.0,7.0,0.0
5597,69.0,9.0,120.0,2.0,0.0
5598,79.0,15.0,15.0,7.0,0.0
5599,78.0,16.0,15.0,7.0,0.0
5600,79.0,18.0,15.0,7.0,0.0
5601,78.0,18.0,15.0,7.0,0.0
5602,79.0,16.0,15.0,7.0,0.0
5603,78.0,7.0,15.0,7.0,0.0
5604,72.0,14.0,15.0,7.0,0.0
5605,66.0,2.0,120.0,2.0,0.0
5606,38.0,5.0,120.0,13.0,0.0
5607,26.0,3.0,120.0,14.0,0.0
5608,74.0,15.0,15.0,7.0,0.0
5609,72.0,14.0,15.0,7.0,0.0
5610,74.0,15.0,15.0,7.0,0.0
5611,72.0,11.0,15.0,7.0,0.0
5612,54.0,0.0,60.0,8.0,0.0
5613,57.0,0.0,60.0,8.0,0.0
5614,62.0,0.0,60.0,8.0,0.0
5615,60.0,0.0,60.0,8.0,0.0
5616,50.0,0.0,60.0,8.0,0.0
5617,74.0,12.0,15.0,7.0,0.0
5618,72.0,16.0,15.0,7.0,0.0
5619,74.0,7.0,15.0,7.0,0.0
5620,72.0,1.0,15.0,7.0,0.0
5621,38.0,11.0,60.0,8.0,0.0
5622,66.0,14.0,120.0,10.0,0.0
5623,69.0,13.0,15.0,7.0,0.0
5624,71.0,14.0,15.0,7.0,0.0
5625,69.0,16.0,15.0,7.0,0.0
5626,71.0,1.0,15.0,7.0,0.0
5627,69.0,14.0,15.0,7.0,0.0
5628,71.0,12.0,15.0,7.0,0.0
5629,69.0,13.0,15.0,7.0,0.0
5630,71.0,6.0,15.0,7.0,0.0
5631,69.0,4.0,15.0,7.0,0.0
5632,66.0,17.0,15.0,7.0,0.0
5633,60.0,7.0,120.0,10.0,0.0
5634,67.0,14.0,15.0,7.0,0.0
5635,66.0,12.0,15.0,7.0,0.0
5636,67.0,15.0,15.0,7.0,0.0
5637,66.0,12.0,15.0,7.0,0.0
5638,67.0,14.0,15.0,7.0,0.0
5639,66.0,12.0,15.0,7.0,0.0
5640,67.0,7.0,15.0,7.0,0.0
5641,66.0,3.0,15.0,7.0,0.0
5642,60.0,13.0,15.0,7.0,0.0
5643,57.0,17.0,120.0,12.0,0.0
5644,62.0,11.0,15.0,7.0,0.0
5645,60.0,12.0,15.0,7.0,0.0
5646,62.0,12.0,15.0,7.0,0.0
5647,60.0,12.0,15.0,7.0,0.0
5648,62.0,13.0,15.0,7.0,0.0
5649,60.0,20.0,15.0,7.0,0.0
5650,59.0,14.0,15.0,7.0,0.0
5651,60.0,5.0,15.0,7.0,0.0
5652,62.0,30.0,30.0,7.0,0.0
5653,54.0,19.0,120.0,12.0,0.0
5654,59.0,31.0,30.0,7.0,0.0
5655,60.0,30.0,30.0,7.0,0.0
5656,63.0,12.0,30.0,7.0,0.0
5657,59.0,28.0,30.0,7.0,0.0
5658,60.0,32.0,30.0,7.0,0.0
5659,62.0,28.0,30.0,7.0,0.0
5660,59.0,30.0,30.0,7.0,0.0
5661,60.0,30.0,30.0,7.0,0.0
5662,63.0,32.0,30.0,7.0,0.0
5663,62.0,28.0,30.0,7.0,0.0
5664,63.0,30.0,30.0,7.0,0.0
5665,65.0,31.0,30.0,7.0,0.0
5666,62.0,30.0,30.0,7.0,0.0
5667,63.0,29.0,30.0,7.0,0.0
5668,66.0,31.0,30.0,7.0,0.0
5669,65.0,29.0,30.0,7.0,0.0
5670,66.0,32.0,30.0,7.0,0.0
5671,68.0,29.0,30.0,7.0,0.0
5672,65.0,31.0,30.0,7.0,0.0
5673,66.0,30.0,30.0,7.0,0.0
5674,69.0,29.0,30.0,7.0,0.0
5675,65.0,30.0,30.0,7.0,0.0
5676,66.0,31.0,30.0,7.0,0.0
5677,69.0,30.0,30.0,7.0,0.0
5678,70.0,30.0,30.0,7.0,0.0
5679,65.0,29.0,30.0,7.0,0.0
5680,66.0,29.0,30.0,7.0,0.0
5681,69.0,32.0,30.0,7.0,0.0
5682,70.0,29.0,30.0,7.0,0.0
5683,65.0,31.0,30.0,7.0,0.0
5684,66.0,33.0,30.0,7.0,0.0
5685,69.0,6.0,30.0,7.0,0.0
5686,57.0,19.0,30.0,8.0,0.0
5687,37.0,2.0,360.0,5.0,0.0
5688,42.0,22.0,120.0,13.0,0.0
5689,37.0,16.0,960.0,14.0,0.0
5690,70.0,5.0,30.0,7.0,0.0
5691,58.0,31.0,30.0,8.0,0.0
5692,72.0,5.0,30.0,7.0,0.0
5693,60.0,21.0,30.0,8.0,0.0
5694,58.0,24.0,120.0,5.0,0.0
5695,73.0,4.0,30.0,7.0,0.0
5696,61.0,8.0,30.0,8.0,0.0
5697,77.0,5.0,30.0,7.0,0.0
5698,65.0,21.0,30.0,8.0,0.0
5699,54.0,22.0,120.0,13.0,0.0
5700,78.0,2.0,30.0,7.0,0.0
5701,66.0,8.0,30.0,8.0,0.0
5702,81.0,3.0,30.0,7.0,0.0
5703,69.0,23.0,30.0,8.0,0.0
5704,61.0,24.0,120.0,5.0,0.0
5705,82.0,2.0,30.0,7.0,0.0
5706,70.0,10.0,30.0,8.0,0.0
5707,87.0,5.0,30.0,7.0,0.0
5708,75.0,26.0,30.0,8.0,0.0
5709,53.0,22.0,120.0,13.0,0.0
5710,85.0,2.0,30.0,7.0,0.0
5711,73.0,3.0,30.0,8.0,0.0
5712,84.0,3.0,30.0,7.0,0.0
5713,72.0,26.0,30.0,8.0,0.0
5714,56.0,25.0,120.0,5.0,0.0
5715,85.0,5.0,30.0,7.0,0.0
5716,73.0,2.0,30.0,8.0,0.0
5717,80.0,4.0,30.0,7.0,0.0
5718,68.0,26.0,30.0,8.0,0.0
5719,52.0,22.0,120.0,13.0,0.0
5720,76.0,4.0,30.0,7.0,0.0
5721,64.0,2.0,30.0,8.0,0.0
5722,73.0,3.0,30.0,7.0,0.0
5723,61.0,20.0,30.0,8.0,0.0
5724,61.0,23.0,120.0,5.0,0.0
5725,68.0,4.0,30.0,7.0,0.0
5726,56.0,10.0,30.0,8.0,0.0
5727,85.0,5.0,30.0,7.0,0.0
5728,73.0,26.0,30.0,8.0,0.0
5729,51.0,23.0,120.0,13.0,0.0
5730,83.0,4.0,30.0,7.0,0.0
5731,71.0,1.0,30.0,8.0,0.0
5732,82.0,6.0,30.0,7.0,0.0
5733,70.0,24.0,30.0,8.0,0.0
5734,54.0,25.0,120.0,5.0,0.0
5735,83.0,4.0,30.0,7.0,0.0
5736,71.0,5.0,30.0,8.0,0.0
5737,78.0,2.0,30.0,7.0,0.0
5738,66.0,27.0,30.0,8.0,0.0
5739,50.0,23.0,120.0,13.0,0.0
5740,74.0,5.0,30.0,7.0,0.0
5741,62.0,1.0,30.0,8.0,0.0
5742,71.0,3.0,30.0,7.0,0.0
5743,59.0,20.0,30.0,8.0,0.0
5744,59.0,2.0,60.0,5.0,0.0
5745,70.0,4.0,30.0,7.0,0.0
5746,58.0,8.0,30.0,8.0,0.0
5747,83.0,3.0,30.0,7.0,0.0
5748,71.0,25.0,30.0,8.0,0.0
5749,58.0,2.0,120.0,5.0,0.0
5750,49.0,23.0,120.0,13.0,0.0
5751,82.0,4.0,30.0,7.0,0.0
5752,70.0,28.0,30.0,8.0,0.0
5753,81.0,2.0,30.0,7.0,0.0
5754,69.0,26.0,30.0,8.0,0.0
5755,82.0,6.0,30.0,7.0,0.0
5756,70.0,1.0,30.0,8.0,0.0
5757,80.0,3.0,30.0,7.0,0.0
5758,68.0,25.0,30.0,8.0,0.0
5759,56.0,25.0,60.0,5.0,0.0
5760,47.0,5.0,120.0,13.0,0.0
5761,77.0,5.0,30.0,7.0,0.0
5762,65.0,2.0,30.0,8.0,0.0
5763,73.0,3.0,30.0,7.0,0.0
5764,61.0,27.0,30.0,8.0,0.0
5765,68.0,3.0,30.0,7.0,0.0
5766,56.0,4.0,30.0,8.0,0.0
5767,65.0,6.0,30.0,7.0,0.0
5768,53.0,21.0,30.0,8.0,0.0
5769,46.0,6.0,120.0,12.0,0.0
5770,54.0,0.0,240.0,12.0,0.0
5771,46.0,5.0,240.0,13.0,0.0
5772,37.0,18.0,120.0,14.0,0.0
5773,66.0,3.0,30.0,7.0,0.0
5774,54.0,31.0,30.0,8.0,0.0
5775,72.0,3.0,30.0,7.0,0.0
5776,60.0,22.0,30.0,8.0,0.0
5777,58.0,24.0,120.0,5.0,0.0
5778,73.0,3.0,30.0,7.0,0.0
5779,61.0,9.0,30.0,8.0,0.0
5780,77.0,4.0,30.0,7.0,0.0
5781,65.0,20.0,30.0,8.0,0.0
5782,49.0,1.0,120.0,12.0,0.0
5783,34.0,17.0,120.0,14.0,0.0
5784,78.0,5.0,30.0,7.0,0.0
5785,66.0,6.0,30.0,8.0,0.0
5786,84.0,4.0,30.0,7.0,0.0
5787,72.0,22.0,30.0,8.0,0.0
5788,61.0,25.0,120.0,5.0,0.0
5789,85.0,3.0,30.0,7.0,0.0
5790,73.0,8.0,30.0,8.0,0.0
5791,90.0,5.0,30.0,7.0,0.0
5792,78.0,26.0,30.0,8.0,0.0
5793,52.0,0.0,240.0,12.0,0.0
5794,58.0,1.0,240.0,12.0,0.0
5795,42.0,5.0,240.0,13.0,0.0
5796,49.0,0.0,240.0,13.0,0.0
5797,30.0,17.0,240.0,14.0,0.0
5798,88.0,2.0,30.0,7.0,0.0
5799,76.0,3.0,30.0,8.0,0.0
5800,87.0,2.0,30.0,7.0,0.0
5801,75.0,26.0,30.0,8.0,0.0
5802,54.0,23.0,120.0,5.0,0.0
5803,88.0,6.0,30.0,7.0,0.0
5804,76.0,26.0,30.0,8.0,0.0
5805,87.0,2.0,30.0,7.0,0.0
5806,75.0,27.0,30.0,8.0,0.0
5807,85.0,3.0,30.0,7.0,0.0
5808,73.0,3.0,30.0,8.0,0.0
5809,84.0,4.0,30.0,7.0,0.0
5810,72.0,22.0,30.0,8.0,0.0
5811,66.0,24.0,120.0,5.0,0.0
5812,85.0,5.0,30.0,7.0,0.0
5813,73.0,7.0,30.0,8.0,0.0
5814,85.0,5.0,30.0,7.0,0.0
5815,73.0,26.0,30.0,8.0,0.0
5816,59.0,0.0,480.0,12.0,0.0
5817,51.0,1.0,240.0,12.0,0.0
5818,47.0,0.0,480.0,13.0,0.0
5819,35.0,5.0,240.0,13.0,0.0
5820,35.0,18.0,240.0,14.0,0.0
5821,83.0,2.0,30.0,7.0,0.0
5822,71.0,3.0,30.0,8.0,0.0
5823,82.0,5.0,30.0,7.0,0.0
5824,70.0,26.0,30.0,8.0,0.0
5825,63.0,23.0,120.0,5.0,0.0
5826,83.0,2.0,30.0,7.0,0.0
5827,71.0,26.0,30.0,8.0,0.0
5828,82.0,4.0,30.0,7.0,0.0
5829,70.0,26.0,30.0,8.0,0.0
5830,80.0,5.0,30.0,7.0,0.0
5831,68.0,2.0,30.0,8.0,0.0
5832,79.0,5.0,30.0,7.0,0.0
5833,67.0,20.0,30.0,8.0,0.0
5834,59.0,1.0,60.0,5.0,0.0
5835,80.0,6.0,30.0,7.0,0.0
5836,68.0,6.0,30.0,8.0,0.0
5837,83.0,3.0,30.0,7.0,0.0
5838,71.0,26.0,30.0,8.0,0.0
5839,56.0,25.0,120.0,5.0,0.0
5840,53.0,1.0,240.0,12.0,0.0
5841,37.0,5.0,240.0,13.0,0.0
5842,37.0,13.0,240.0,14.0,0.0
5843,80.0,5.0,30.0,7.0,0.0
5844,68.0,24.0,30.0,8.0,0.0
5845,77.0,4.0,30.0,7.0,0.0
5846,65.0,26.0,30.0,8.0,0.0
5847,75.0,5.0,30.0,7.0,0.0
5848,63.0,2.0,30.0,8.0,0.0
5849,73.0,2.0,30.0,7.0,0.0
5850,61.0,26.0,30.0,8.0,0.0
5851,49.0,1.0,120.0,5.0,0.0
5852,71.0,4.0,30.0,7.0,0.0
5853,59.0,27.0,30.0,8.0,0.0
5854,68.0,4.0,30.0,7.0,0.0
5855,56.0,20.0,30.0,8.0,0.0
5856,65.0,5.0,30.0,7.0,0.0
5857,53.0,7.0,30.0,8.0,0.0
5858,69.0,2.0,30.0,7.0,0.0
5859,57.0,27.0,30.0,8.0,0.0
5860,42.0,1.0,360.0,5.0,0.0
5861,54.0,1.0,360.0,12.0,0.0
5862,58.0,0.0,360.0,12.0,0.0
5863,42.0,5.0,360.0,13.0,0.0
5864,30.0,11.0,360.0,14.0,0.0
5865,70.0,5.0,30.0,7.0,0.0
5866,58.0,25.0,30.0,8.0,0.0
5867,66.0,3.0,30.0,7.0,0.0
5868,54.0,28.0,30.0,8.0,0.0
5869,61.0,4.0,30.0,7.0,0.0
5870,49.0,25.0,30.0,8.0,0.0
5871,65.0,5.0,30.0,7.0,0.0
5872,53.0,25.0,30.0,8.0,0.0
5873,66.0,4.0,30.0,7.0,0.0
5874,54.0,26.0,30.0,8.0,0.0
5875,61.0,3.0,30.0,7.0,0.0
5876,49.0,27.0,30.0,8.0,0.0
5877,58.0,3.0,30.0,7.0,0.0
5878,46.0,28.0,30.0,8.0,0.0
5879,65.0,3.0,30.0,7.0,0.0
5880,53.0,25.0,30.0,8.0,0.0
5881,66.0,4.0,30.0,7.0,0.0
5882,54.0,26.0,30.0,8.0,0.0
5883,61.0,5.0,30.0,7.0,0.0
5884,49.0,26.0,30.0,8.0,0.0
5885,58.0,3.0,30.0,7.0,0.0
5886,46.0,8.0,30.0,8.0,0.0
5887,60.0,6.0,30.0,7.0,0.0
5888,48.0,24.0,30.0,8.0,0.0
5889,61.0,4.0,30.0,7.0,0.0
5890,49.0,28.0,30.0,8.0,0.0
5891,58.0,4.0,30.0,7.0,0.0
5892,46.0,26.0,30.0,8.0,0.0
5893,54.0,2.0,30.0,7.0,0.0
5894,42.0,26.0,30.0,8.0,0.0
5895,57.0,5.0,30.0,7.0,0.0
5896,45.0,26.0,30.0,8.0,0.0
5897,58.0,4.0,30.0,7.0,0.0
5898,46.0,26.0,30.0,8.0,0.0
5899,54.0,30.0,30.0,7.0,0.0
5900,49.0,30.0,30.0,7.0,0.0
5901,53.0,5.0,30.0,7.0,0.0
5902,41.0,26.0,30.0,8.0,0.0
5903,54.0,3.0,30.0,7.0,0.0
5904,42.0,26.0,30.0,8.0,0.0
5905,49.0,30.0,30.0,7.0,0.0
5906,46.0,29.0,30.0,7.0,0.0
5907,48.0,6.0,30.0,7.0,0.0
5908,36.0,25.0,30.0,8.0,0.0
5909,49.0,3.0,30.0,7.0,0.0
5910,37.0,26.0,30.0,8.0,0.0
5911,46.0,31.0,30.0,7.0,0.0
5912,42.0,30.0,30.0,7.0,0.0
5913,48.0,4.0,30.0,7.0,0.0
5914,36.0,26.0,30.0,8.0,0.0
5915,49.0,4.0,30.0,7.0,0.0
5916,37.0,27.0,30.0,8.0,0.0
5917,42.0,29.0,30.0,7.0,0.0
5918,37.0,37.0,30.0,7.0,0.0
5919,57.0,60.0,30.0,11.0,0.0
5920,30.0,0.0,30.0,8.0,0.0
5921,61.0,60.0,30.0,11.0,0.0
5922,66.0,60.0,30.0,11.0,0.0
5923,69.0,60.0,30.0,11.0,0.0
5924,73.0,60.0,30.0,11.0,0.0
5925,66.0,60.0,30.0,11.0,0.0
5926,65.0,60.0,30.0,11.0,0.0
5927,71.0,90.0,30.0,11.0,0.0
5928,69.0,105.0,60.0,11.0,0.0
5929,69.0,30.0,15.0,11.0,0.0
5930,68.0,30.0,15.0,11.0,0.0
5931,64.0,30.0,15.0,11.0,0.0
5932,63.0,30.0,15.0,11.0,0.0
5933,66.0,30.0,15.0,11.0,0.0
5934,64.0,30.0,15.0,11.0,0.0
5935,61.0,30.0,15.0,11.0,0.0
5936,60.0,30.0,15.0,11.0,0.0
5937,63.0,30.0,15.0,11.0,0.0
5938,61.0,30.0,15.0,11.0,0.0
5939,57.0,45.0,15.0,11.0,0.0
5940,56.0,6.0,30.0,11.0,0.0
5941,40.0,60.0,30.0,13.0,0.0
5942,44.0,60.0,30.0,13.0,0.0
5943,49.0,54.0,30.0,13.0,0.0
5944,68.0,6.0,30.0,11.0,0.0
5945,52.0,60.0,30.0,13.0,0.0
5946,64.0,36.0,120.0,11.0,0.0
5947,56.0,60.0,30.0,13.0,0.0
5948,49.0,24.0,30.0,13.0,0.0
5949,63.0,38.0,60.0,11.0,0.0
5950,48.0,16.0,30.0,13.0,0.0
5951,68.0,6.0,30.0,11.0,0.0
5952,54.0,60.0,30.0,13.0,0.0
5953,62.0,51.0,120.0,11.0,0.0
5954,53.0,84.0,30.0,13.0,0.0
5955,61.0,29.0,60.0,11.0,0.0
5956,50.0,1.0,15.0,13.0,0.0
5957,66.0,0.0,90.0,11.0,0.0
5958,49.0,30.0,15.0,13.0,0.0
5959,45.0,30.0,15.0,13.0,0.0
5960,44.0,30.0,15.0,13.0,0.0
5961,64.0,30.0,60.0,11.0,0.0
5962,47.0,30.0,15.0,13.0,0.0
5963,45.0,0.0,15.0,13.0,0.0
5964,62.0,30.0,60.0,11.0,0.0
5965,42.0,30.0,15.0,13.0,0.0
5966,40.0,0.0,15.0,13.0,0.0
5967,61.0,30.0,60.0,11.0,0.0
5968,44.0,30.0,15.0,13.0,0.0
5969,42.0,0.0,15.0,13.0,0.0
5970,59.0,36.0,90.0,11.0,0.0
5971,39.0,45.0,15.0,13.0,0.0
5972,37.0,24.0,30.0,13.0,0.0
5973,61.0,35.0,60.0,11.0,0.0
5974,41.0,24.0,30.0,13.0,0.0
5975,44.0,1.0,30.0,12.0,0.0
5976,44.0,59.0,30.0,13.0,0.0
5977,74.0,14.0,90.0,11.0,0.0
5978,53.0,47.0,30.0,12.0,0.0
5979,54.0,18.0,60.0,12.0,0.0
5980,45.0,5.0,30.0,13.0,0.0
5981,33.0,4.0,30.0,14.0,0.0
5982,73.0,12.0,15.0,11.0,0.0
5983,71.0,21.0,15.0,11.0,0.0
5984,62.0,3.0,90.0,12.0,0.0
5985,49.0,5.0,30.0,13.0,0.0
5986,37.0,4.0,30.0,14.0,0.0
5987,68.0,42.0,15.0,11.0,0.0
5988,69.0,6.0,30.0,11.0,0.0
5989,54.0,5.0,30.0,13.0,0.0
5990,42.0,9.0,30.0,14.0,0.0
5991,61.0,30.0,15.0,12.0,0.0
5992,73.0,6.0,30.0,11.0,0.0
5993,57.0,10.0,15.0,12.0,0.0
5994,57.0,5.0,30.0,13.0,0.0
5995,45.0,9.0,30.0,14.0,0.0
5996,56.0,45.0,15.0,12.0,0.0
5997,69.0,35.0,120.0,11.0,0.0
5998,54.0,1.0,30.0,12.0,0.0
5999,61.0,5.0,30.0,13.0,0.0
6000,49.0,54.0,30.0,14.0,0.0
6001,57.0,1.0,30.0,12.0,0.0
6002,54.0,5.0,30.0,13.0,0.0
6003,42.0,19.0,30.0,14.0,0.0
6004,68.0,38.0,60.0,11.0,0.0
6005,61.0,1.0,30.0,12.0,0.0
6006,53.0,5.0,30.0,13.0,0.0
6007,41.0,11.0,30.0,14.0,0.0
6008,73.0,6.0,30.0,11.0,0.0
6009,59.0,5.0,30.0,13.0,0.0
6010,47.0,54.0,30.0,14.0,0.0
6011,68.0,51.0,120.0,11.0,0.0
6012,49.0,1.0,30.0,12.0,0.0
6013,57.0,5.0,30.0,13.0,0.0
6014,45.0,79.0,30.0,14.0,0.0
6015,54.0,18.0,120.0,12.0,0.0
6016,66.0,4.0,60.0,11.0,0.0
6017,57.0,1.0,15.0,13.0,0.0
6018,45.0,1.0,15.0,14.0,0.0
6019,64.0,5.0,30.0,11.0,0.0
6020,56.0,6.0,15.0,12.0,0.0
6021,56.0,4.0,15.0,13.0,0.0
6022,44.0,4.0,15.0,14.0,0.0
6023,57.0,1.0,15.0,12.0,0.0
6024,56.0,15.0,15.0,12.0,0.0
6025,73.0,0.0,60.0,11.0,0.0
6026,54.0,1.0,15.0,12.0,0.0
6027,52.0,5.0,15.0,13.0,0.0
6028,40.0,9.0,15.0,14.0,0.0
6029,56.0,16.0,15.0,12.0,0.0
6030,57.0,16.0,30.0,12.0,0.0
6031,51.0,5.0,15.0,13.0,0.0
6032,39.0,9.0,15.0,14.0,0.0
6033,71.0,5.0,60.0,11.0,0.0
6034,54.0,5.0,15.0,13.0,0.0
6035,42.0,25.0,15.0,14.0,0.0
6036,61.0,16.0,30.0,12.0,0.0
6037,52.0,0.0,15.0,13.0,0.0
6038,40.0,9.0,15.0,14.0,0.0
6039,69.0,0.0,60.0,11.0,0.0
6040,49.0,5.0,15.0,13.0,0.0
6041,37.0,25.0,15.0,14.0,0.0
6042,63.0,23.0,90.0,12.0,0.0
6043,47.0,5.0,15.0,13.0,0.0
6044,35.0,25.0,15.0,14.0,0.0
6045,68.0,0.0,60.0,11.0,0.0
6046,51.0,5.0,15.0,13.0,0.0
6047,39.0,25.0,15.0,14.0,0.0
6048,49.0,5.0,15.0,13.0,0.0
6049,37.0,1.0,15.0,14.0,0.0
6050,67.0,27.0,90.0,11.0,0.0
6051,61.0,1.0,15.0,12.0,0.0
6052,45.0,5.0,15.0,13.0,0.0
6053,33.0,40.0,15.0,14.0,0.0
6054,61.0,9.0,90.0,12.0,0.0
6055,44.0,5.0,30.0,13.0,0.0
6056,32.0,19.0,30.0,14.0,0.0
6057,68.0,35.0,60.0,11.0,0.0
6058,51.0,5.0,30.0,13.0,0.0
6059,39.0,16.0,30.0,14.0,0.0
6060,60.0,3.0,20.0,12.0,0.0
6061,63.0,1.0,30.0,12.0,0.0
6062,56.0,5.0,30.0,13.0,0.0
6063,44.0,24.0,30.0,14.0,0.0
6064,66.0,30.0,30.0,12.0,0.0
6065,68.0,13.0,60.0,11.0,0.0
6066,64.0,1.0,30.0,12.0,0.0
6067,60.0,5.0,30.0,13.0,0.0
6068,48.0,19.0,30.0,14.0,0.0
6069,63.0,15.0,30.0,12.0,0.0
6070,64.0,8.0,30.0,10.0,0.0
6071,64.0,10.0,60.0,12.0,0.0
6072,61.0,5.0,30.0,13.0,0.0
6073,49.0,4.0,30.0,14.0,0.0
6074,70.0,20.0,15.0,11.0,0.0
6075,68.0,8.0,30.0,10.0,0.0
6076,72.0,13.0,15.0,11.0,0.0
6077,52.0,9.0,30.0,13.0,0.0
6078,73.0,30.0,15.0,11.0,0.0
6079,73.0,8.0,30.0,10.0,0.0
6080,75.0,13.0,15.0,11.0,0.0
6081,56.0,9.0,30.0,13.0,0.0
6082,76.0,43.0,15.0,11.0,0.0
6083,76.0,8.0,30.0,10.0,0.0
6084,64.0,28.0,120.0,11.0,0.0
6085,49.0,52.0,30.0,13.0,0.0
6086,80.0,30.0,30.0,10.0,0.0
6087,48.0,2.0,60.0,13.0,0.0
6088,73.0,32.0,30.0,10.0,0.0
6089,63.0,28.0,60.0,11.0,0.0
6090,45.0,23.0,90.0,13.0,0.0
6091,72.0,0.0,30.0,10.0,0.0
6092,44.0,30.0,15.0,13.0,0.0
6093,78.0,23.0,30.0,10.0,0.0
6094,63.0,20.0,120.0,11.0,0.0
6095,48.0,7.0,15.0,13.0,0.0
6096,51.0,29.0,15.0,13.0,0.0
6097,76.0,8.0,30.0,10.0,0.0
6098,52.0,8.0,15.0,12.0,0.0
6099,52.0,5.0,30.0,13.0,0.0
6100,44.0,9.0,30.0,14.0,0.0
6101,56.0,10.0,15.0,12.0,0.0
6102,61.0,28.0,60.0,11.0,0.0
6103,61.0,30.0,15.0,12.0,0.0
6104,37.0,5.0,120.0,13.0,0.0
6105,37.0,10.0,120.0,14.0,0.0
6106,64.0,2.0,15.0,12.0,0.0
6107,64.0,13.0,30.0,11.0,0.0
6108,68.0,10.0,15.0,12.0,0.0
6109,76.0,7.0,15.0,10.0,0.0
6110,61.0,8.0,15.0,12.0,0.0
6111,75.0,3.0,15.0,10.0,0.0
6112,66.0,1.0,30.0,11.0,0.0
6113,60.0,1.0,15.0,12.0,0.0
6114,39.0,4.0,15.0,13.0,0.0
6115,39.0,5.0,15.0,14.0,0.0
6116,40.0,4.0,15.0,13.0,0.0
6117,40.0,5.0,15.0,14.0,0.0
6118,39.0,5.0,15.0,13.0,0.0
6119,69.0,7.0,15.0,10.0,0.0
6120,39.0,2.0,15.0,14.0,0.0
6121,66.0,1.0,15.0,12.0,0.0
6122,37.0,0.0,15.0,13.0,0.0
6123,40.0,10.0,15.0,14.0,0.0
6124,39.0,5.0,15.0,14.0,0.0
6125,39.0,5.0,15.0,13.0,0.0
6126,68.0,17.0,15.0,10.0,0.0
6127,68.0,6.0,30.0,11.0,0.0
6128,40.0,2.0,15.0,14.0,0.0
6129,64.0,16.0,60.0,12.0,0.0
6130,40.0,5.0,30.0,13.0,0.0
6131,40.0,2.0,30.0,14.0,0.0
6132,73.0,14.0,15.0,10.0,0.0
6133,69.0,17.0,15.0,10.0,0.0
6134,69.0,5.0,30.0,11.0,0.0
6135,51.0,1.0,30.0,12.0,0.0
6136,42.0,5.0,30.0,13.0,0.0
6137,42.0,2.0,30.0,14.0,0.0
6138,66.0,30.0,15.0,10.0,0.0
6139,64.0,17.0,15.0,10.0,0.0
6140,73.0,5.0,30.0,11.0,0.0
6141,52.0,8.0,30.0,12.0,0.0
6142,44.0,5.0,120.0,13.0,0.0
6143,44.0,12.0,120.0,14.0,0.0
6144,68.0,30.0,15.0,10.0,0.0
6145,66.0,17.0,15.0,10.0,0.0
6146,72.0,13.0,30.0,11.0,0.0
6147,56.0,18.0,120.0,12.0,0.0
6148,63.0,15.0,15.0,10.0,0.0
6149,61.0,6.0,30.0,10.0,0.0
6150,73.0,13.0,15.0,11.0,0.0
6151,37.0,0.0,30.0,5.0,0.0
6152,49.0,2.0,30.0,5.0,0.0
6153,41.0,5.0,30.0,13.0,0.0
6154,29.0,4.0,30.0,14.0,0.0
6155,71.0,12.0,15.0,11.0,0.0
6156,69.0,20.0,15.0,11.0,0.0
6157,37.0,0.0,120.0,5.0,0.0
6158,49.0,19.0,120.0,5.0,0.0
6159,57.0,1.0,30.0,12.0,0.0
6160,42.0,5.0,30.0,13.0,0.0
6161,30.0,4.0,30.0,14.0,0.0
6162,66.0,30.0,15.0,11.0,0.0
6163,65.0,20.0,15.0,11.0,0.0
6164,61.0,10.0,30.0,12.0,0.0
6165,44.0,5.0,120.0,13.0,0.0
6166,32.0,10.0,120.0,14.0,0.0
6167,68.0,11.0,15.0,11.0,0.0
6168,66.0,19.0,15.0,11.0,0.0
6169,49.0,0.0,30.0,5.0,0.0
6170,37.0,1.0,30.0,5.0,0.0
6171,60.0,10.0,30.0,12.0,0.0
6172,63.0,13.0,15.0,11.0,0.0
6173,73.0,17.0,15.0,10.0,0.0
6174,68.0,4.0,30.0,11.0,0.0
6175,49.0,1.0,30.0,5.0,0.0
6176,37.0,0.0,30.0,5.0,0.0
6177,61.0,1.0,30.0,12.0,0.0
6178,41.0,5.0,30.0,13.0,0.0
6179,29.0,2.0,30.0,14.0,0.0
6180,72.0,30.0,15.0,10.0,0.0
6181,73.0,17.0,15.0,10.0,0.0
6182,65.0,4.0,30.0,11.0,0.0
6183,37.0,1.0,30.0,5.0,0.0
6184,49.0,0.0,30.0,5.0,0.0
6185,49.0,1.0,30.0,12.0,0.0
6186,44.0,5.0,30.0,13.0,0.0
6187,32.0,2.0,30.0,14.0,0.0
6188,71.0,30.0,15.0,10.0,0.0
6189,69.0,17.0,15.0,10.0,0.0
6190,61.0,5.0,30.0,11.0,0.0
6191,49.0,0.0,120.0,5.0,0.0
6192,37.0,17.0,120.0,5.0,0.0
6193,53.0,1.0,30.0,12.0,0.0
6194,49.0,5.0,30.0,13.0,0.0
6195,37.0,2.0,30.0,14.0,0.0
6196,68.0,30.0,15.0,10.0,0.0
6197,69.0,17.0,15.0,10.0,0.0
6198,59.0,5.0,30.0,11.0,0.0
6199,61.0,1.0,30.0,12.0,0.0
6200,53.0,5.0,30.0,13.0,0.0
6201,41.0,2.0,30.0,14.0,0.0
6202,68.0,13.0,15.0,10.0,0.0
6203,74.0,17.0,15.0,10.0,0.0
6204,57.0,4.0,30.0,11.0,0.0
6205,49.0,0.0,30.0,5.0,0.0
6206,61.0,1.0,30.0,5.0,0.0
6207,54.0,1.0,30.0,12.0,0.0
6208,42.0,5.0,30.0,13.0,0.0
6209,30.0,2.0,30.0,14.0,0.0
6210,73.0,30.0,15.0,10.0,0.0
6211,71.0,2.0,15.0,10.0,0.0
6212,61.0,21.0,15.0,11.0,0.0
6213,49.0,17.0,120.0,5.0,0.0
6214,61.0,0.0,120.0,5.0,0.0
6215,54.0,5.0,30.0,13.0,0.0
6216,42.0,2.0,30.0,14.0,0.0
6217,69.0,2.0,15.0,10.0,0.0
6218,66.0,28.0,15.0,11.0,0.0
6219,77.0,17.0,15.0,10.0,0.0
6220,59.0,6.0,30.0,11.0,0.0
6221,44.0,5.0,30.0,13.0,0.0
6222,32.0,2.0,30.0,14.0,0.0
6223,74.0,13.0,15.0,10.0,0.0
6224,73.0,2.0,15.0,10.0,0.0
6225,65.0,19.0,15.0,11.0,0.0
6226,49.0,0.0,30.0,5.0,0.0
6227,61.0,2.0,30.0,5.0,0.0
6228,56.0,5.0,30.0,13.0,0.0
6229,44.0,2.0,30.0,14.0,0.0
6230,71.0,2.0,15.0,10.0,0.0
6231,68.0,28.0,15.0,11.0,0.0
6232,78.0,17.0,15.0,10.0,0.0
6233,66.0,5.0,30.0,11.0,0.0
6234,61.0,1.0,1020.0,5.0,0.0
6235,49.0,0.0,1020.0,5.0,0.0
6236,49.0,1.0,30.0,12.0,0.0
6237,45.0,5.0,30.0,13.0,0.0
6238,33.0,2.0,30.0,14.0,0.0
6239,73.0,30.0,15.0,10.0,0.0
6240,71.0,2.0,15.0,10.0,0.0
6241,65.0,28.0,15.0,11.0,0.0
6242,54.0,16.0,120.0,12.0,0.0
6243,69.0,2.0,15.0,10.0,0.0
6244,66.0,28.0,15.0,11.0,0.0
6245,69.0,23.0,15.0,10.0,0.0
6246,61.0,13.0,120.0,11.0,0.0
6247,49.0,5.0,30.0,13.0,0.0
6248,37.0,2.0,30.0,14.0,0.0
6249,68.0,14.0,15.0,10.0,0.0
6250,66.0,2.0,15.0,10.0,0.0
6251,56.0,10.0,15.0,12.0,0.0
6252,57.0,10.0,15.0,12.0,0.0
6253,56.0,8.0,15.0,12.0,0.0
6254,65.0,7.0,15.0,10.0,0.0
6255,54.0,2.0,15.0,12.0,0.0
6256,56.0,23.0,15.0,12.0,0.0
6257,66.0,7.0,30.0,10.0,0.0
6258,61.0,43.0,60.0,11.0,0.0
6259,57.0,1.0,30.0,12.0,0.0
6260,54.0,5.0,30.0,13.0,0.0
6261,42.0,11.0,30.0,14.0,0.0
6262,66.0,18.0,120.0,11.0,0.0
6263,61.0,61.0,30.0,12.0,0.0
6264,66.0,3.0,120.0,12.0,0.0
6265,57.0,5.0,30.0,13.0,0.0
6266,45.0,11.0,30.0,14.0,0.0
6267,68.0,10.0,15.0,11.0,0.0
6268,69.0,10.0,15.0,11.0,0.0
6269,68.0,15.0,15.0,11.0,0.0
6270,66.0,12.0,15.0,11.0,0.0
6271,68.0,30.0,15.0,11.0,0.0
6272,69.0,6.0,30.0,11.0,0.0
6273,61.0,5.0,30.0,13.0,0.0
6274,49.0,9.0,30.0,14.0,0.0
6275,66.0,30.0,15.0,12.0,0.0
6276,73.0,20.0,30.0,11.0,0.0
6277,64.0,10.0,15.0,12.0,0.0
6278,61.0,30.0,15.0,12.0,0.0
6279,78.0,28.0,90.0,11.0,0.0
6280,59.0,16.0,15.0,12.0,0.0
6281,54.0,5.0,30.0,13.0,0.0
6282,42.0,9.0,30.0,14.0,0.0
6283,62.0,30.0,15.0,12.0,0.0
6284,61.0,2.0,15.0,12.0,0.0
6285,73.0,23.0,20.0,11.0,0.0
6286,57.0,2.0,15.0,12.0,0.0
6287,71.0,5.0,15.0,11.0,0.0
6288,56.0,16.0,15.0,12.0,0.0
6289,53.0,5.0,30.0,13.0,0.0
6290,41.0,4.0,30.0,14.0,0.0
6291,74.0,5.0,15.0,11.0,0.0
6292,59.0,25.0,15.0,12.0,0.0
6293,73.0,5.0,15.0,11.0,0.0
6294,57.0,25.0,15.0,12.0,0.0
6295,71.0,5.0,15.0,11.0,0.0
6296,56.0,25.0,15.0,12.0,0.0
6297,69.0,5.0,15.0,11.0,0.0
6298,54.0,16.0,15.0,12.0,0.0
6299,59.0,5.0,30.0,13.0,0.0
6300,47.0,4.0,30.0,14.0,0.0
6301,68.0,5.0,15.0,11.0,0.0
6302,53.0,25.0,15.0,12.0,0.0
6303,69.0,5.0,15.0,11.0,0.0
6304,54.0,25.0,15.0,12.0,0.0
6305,71.0,5.0,15.0,11.0,0.0
6306,56.0,23.0,15.0,12.0,0.0
6307,57.0,23.0,15.0,10.0,0.0
6308,73.0,4.0,60.0,11.0,0.0
6309,54.0,8.0,60.0,12.0,0.0
6310,57.0,5.0,30.0,13.0,0.0
6311,45.0,2.0,30.0,14.0,0.0
6312,61.0,17.0,15.0,10.0,0.0
6313,66.0,30.0,15.0,10.0,0.0
6314,69.0,30.0,15.0,10.0,0.0
6315,73.0,30.0,15.0,10.0,0.0
6316,66.0,6.0,15.0,10.0,0.0
6317,66.0,6.0,15.0,2.0,0.0
6318,61.0,0.0,15.0,2.0,0.0
6319,57.0,18.0,15.0,3.0,0.0
6320,65.0,6.0,15.0,10.0,0.0
6321,65.0,6.0,15.0,2.0,0.0
6322,61.0,0.0,15.0,2.0,0.0
6323,56.0,18.0,15.0,3.0,0.0
6324,71.0,6.0,15.0,10.0,0.0
6325,68.0,0.0,15.0,2.0,0.0
6326,61.0,6.0,15.0,2.0,0.0
6327,53.0,26.0,15.0,3.0,0.0
6328,69.0,1.0,60.0,10.0,0.0
6329,61.0,0.0,60.0,2.0,0.0
6330,66.0,6.0,60.0,2.0,0.0
6331,45.0,29.0,15.0,13.0,0.0
6332,54.0,19.0,60.0,3.0,0.0
6333,49.0,5.0,15.0,13.0,0.0
6334,54.0,30.0,15.0,13.0,0.0
6335,57.0,30.0,15.0,13.0,0.0
6336,61.0,22.0,15.0,13.0,0.0
6337,69.0,2.0,15.0,10.0,0.0
6338,61.0,5.0,15.0,11.0,0.0
6339,61.0,1.0,15.0,12.0,0.0
6340,54.0,22.0,15.0,13.0,0.0
6341,68.0,2.0,15.0,10.0,0.0
6342,61.0,5.0,15.0,11.0,0.0
6343,59.0,1.0,15.0,12.0,0.0
6344,53.0,22.0,15.0,13.0,0.0
6345,65.0,2.0,15.0,10.0,0.0
6346,61.0,5.0,15.0,11.0,0.0
6347,56.0,1.0,15.0,12.0,0.0
6348,59.0,23.0,15.0,13.0,0.0
6349,66.0,2.0,60.0,10.0,0.0
6350,73.0,14.0,15.0,0.0,0.0
6351,61.0,5.0,60.0,11.0,0.0
6352,54.0,17.0,60.0,12.0,0.0
6353,58.0,16.0,20.0,13.0,0.0
6354,78.0,6.0,15.0,0.0,0.0
6355,82.0,30.0,15.0,0.0,0.0
6356,85.0,30.0,15.0,0.0,0.0
6357,88.0,30.0,15.0,0.0,0.0
6358,85.0,3.0,15.0,0.0,0.0
6359,66.0,0.0,15.0,1.0,0.0
6360,73.0,2.0,15.0,1.0,0.0
6361,66.0,25.0,15.0,2.0,0.0
6362,64.0,0.0,15.0,2.0,0.0
6363,83.0,3.0,15.0,0.0,0.0
6364,71.0,2.0,15.0,1.0,0.0
6365,66.0,0.0,15.0,1.0,0.0
6366,66.0,25.0,15.0,2.0,0.0
6367,62.0,0.0,15.0,2.0,0.0
6368,82.0,3.0,15.0,0.0,0.0
6369,66.0,0.0,15.0,1.0,0.0
6370,70.0,2.0,15.0,1.0,0.0
6371,61.0,0.0,15.0,2.0,0.0
6372,66.0,36.0,15.0,2.0,0.0
6373,83.0,3.0,60.0,0.0,0.0
6374,66.0,1.0,60.0,1.0,0.0
6375,71.0,0.0,60.0,1.0,0.0
6376,66.0,0.0,60.0,2.0,0.0
6377,62.0,29.0,60.0,2.0,0.0
6378,38.0,26.0,15.0,3.0,0.0
6379,42.0,1.0,15.0,3.0,0.0
6380,47.0,30.0,15.0,3.0,0.0
6381,50.0,30.0,15.0,3.0,0.0
6382,54.0,18.0,15.0,3.0,0.0
6383,68.0,2.0,15.0,10.0,0.0
6384,59.0,4.0,15.0,11.0,0.0
6385,54.0,1.0,15.0,5.0,0.0
6386,59.0,5.0,15.0,12.0,0.0
6387,50.0,18.0,15.0,3.0,0.0
6388,68.0,2.0,15.0,10.0,0.0
6389,61.0,4.0,15.0,11.0,0.0
6390,54.0,1.0,15.0,5.0,0.0
6391,57.0,5.0,15.0,12.0,0.0
6392,49.0,18.0,15.0,3.0,0.0
6393,68.0,2.0,15.0,10.0,0.0
6394,63.0,4.0,15.0,11.0,0.0
6395,54.0,1.0,15.0,5.0,0.0
6396,56.0,5.0,15.0,12.0,0.0
6397,48.0,19.0,15.0,3.0,0.0
6398,66.0,0.0,60.0,10.0,0.0
6399,56.0,2.0,60.0,10.0,0.0
6400,61.0,30.0,15.0,0.0,0.0
6401,61.0,4.0,60.0,11.0,0.0
6402,61.0,1.0,60.0,5.0,0.0
6403,56.0,5.0,60.0,12.0,0.0
6404,49.0,12.0,60.0,3.0,0.0
6405,66.0,6.0,15.0,0.0,0.0
6406,68.0,30.0,15.0,0.0,0.0
6407,73.0,59.0,15.0,0.0,0.0
6408,80.0,22.0,60.0,0.0,0.0
6409,56.0,0.0,15.0,10.0,0.0
6410,66.0,2.0,15.0,10.0,0.0
6411,61.0,4.0,15.0,11.0,0.0
6412,61.0,2.0,15.0,5.0,0.0
6413,56.0,2.0,15.0,10.0,0.0
6414,66.0,0.0,15.0,10.0,0.0
6415,61.0,4.0,15.0,11.0,0.0
6416,61.0,24.0,15.0,5.0,0.0
6417,56.0,0.0,15.0,10.0,0.0
6418,66.0,2.0,15.0,10.0,0.0
6419,61.0,4.0,15.0,11.0,0.0
6420,61.0,36.0,15.0,5.0,0.0
6421,56.0,0.0,60.0,10.0,0.0
6422,65.0,2.0,60.0,10.0,0.0
6423,61.0,3.0,60.0,11.0,0.0
6424,61.0,29.0,60.0,5.0,0.0
6425,44.0,25.0,15.0,3.0,0.0
6426,49.0,1.0,15.0,3.0,0.0
6427,53.0,30.0,15.0,3.0,0.0
6428,56.0,48.0,15.0,3.0,0.0
6429,61.0,11.0,60.0,3.0,0.0
6430,65.0,2.0,15.0,10.0,0.0
6431,56.0,0.0,15.0,10.0,0.0
6432,61.0,2.0,15.0,11.0,0.0
6433,56.0,15.0,15.0,4.0,0.0
6434,65.0,2.0,15.0,10.0,0.0
6435,56.0,0.0,15.0,10.0,0.0
6436,61.0,2.0,15.0,11.0,0.0
6437,56.0,26.0,15.0,4.0,0.0
6438,65.0,2.0,15.0,10.0,0.0
6439,56.0,0.0,15.0,10.0,0.0
6440,61.0,2.0,15.0,11.0,0.0
6441,56.0,30.0,15.0,4.0,0.0
6442,64.0,2.0,60.0,10.0,0.0
6443,56.0,0.0,60.0,10.0,0.0
6444,61.0,2.0,60.0,11.0,0.0
6445,56.0,23.0,60.0,4.0,0.0
6446,56.0,30.0,15.0,1.0,0.0
6447,61.0,3.0,15.0,1.0,0.0
6448,64.0,30.0,15.0,1.0,0.0
6449,68.0,56.0,15.0,1.0,0.0
6450,73.0,19.0,60.0,1.0,0.0
6451,64.0,2.0,15.0,10.0,0.0
6452,56.0,0.0,15.0,10.0,0.0
6453,61.0,2.0,15.0,11.0,0.0
6454,56.0,7.0,15.0,4.0,0.0
6455,56.0,0.0,15.0,10.0,0.0
6456,64.0,2.0,15.0,10.0,0.0
6457,61.0,2.0,15.0,11.0,0.0
6458,56.0,26.0,15.0,4.0,0.0
6459,56.0,2.0,15.0,10.0,0.0
6460,64.0,0.0,15.0,10.0,0.0
6461,61.0,2.0,15.0,11.0,0.0
6462,56.0,38.0,15.0,4.0,0.0
6463,63.0,2.0,60.0,10.0,0.0
6464,56.0,0.0,60.0,10.0,0.0
6465,61.0,2.0,60.0,11.0,0.0
6466,56.0,1.0,60.0,4.0,0.0
6467,44.0,25.0,15.0,3.0,0.0
6468,49.0,30.0,15.0,3.0,0.0
6469,51.0,30.0,15.0,3.0,0.0
6470,55.0,48.0,15.0,3.0,0.0
6471,56.0,11.0,60.0,3.0,0.0
6472,56.0,2.0,15.0,10.0,0.0
6473,63.0,0.0,15.0,10.0,0.0
6474,60.0,2.0,15.0,11.0,0.0
6475,56.0,15.0,15.0,4.0,0.0
6476,56.0,0.0,15.0,10.0,0.0
6477,63.0,2.0,15.0,10.0,0.0
6478,60.0,2.0,15.0,11.0,0.0
6479,56.0,26.0,15.0,4.0,0.0
6480,63.0,2.0,15.0,10.0,0.0
6481,56.0,0.0,15.0,10.0,0.0
6482,60.0,2.0,15.0,11.0,0.0
6483,56.0,32.0,15.0,4.0,0.0
6484,63.0,2.0,60.0,10.0,0.0
6485,56.0,0.0,60.0,10.0,0.0
6486,59.0,2.0,60.0,11.0,0.0
6487,56.0,11.0,60.0,4.0,0.0
6488,56.0,30.0,15.0,2.0,0.0
6489,51.0,1.0,60.0,12.0,0.0
6490,59.0,0.0,60.0,12.0,0.0
6491,39.0,5.0,60.0,13.0,0.0
6492,27.0,8.0,60.0,14.0,0.0
6493,59.0,1.0,15.0,2.0,0.0
6494,63.0,30.0,15.0,2.0,0.0
6495,68.0,54.0,15.0,2.0,0.0
6496,71.0,17.0,60.0,2.0,0.0
6497,56.0,0.0,15.0,10.0,0.0
6498,63.0,2.0,15.0,10.0,0.0
6499,59.0,2.0,15.0,11.0,0.0
6500,56.0,9.0,15.0,4.0,0.0
6501,63.0,2.0,15.0,10.0,0.0
6502,56.0,0.0,15.0,10.0,0.0
6503,59.0,2.0,15.0,11.0,0.0
6504,56.0,26.0,15.0,4.0,0.0
6505,56.0,2.0,15.0,10.0,0.0
6506,63.0,0.0,15.0,10.0,0.0
6507,59.0,2.0,15.0,11.0,0.0
6508,56.0,38.0,15.0,4.0,0.0
6509,56.0,2.0,60.0,10.0,0.0
6510,63.0,0.0,60.0,10.0,0.0
6511,58.0,2.0,60.0,11.0,0.0
6512,56.0,1.0,60.0,4.0,0.0
6513,51.0,0.0,60.0,12.0,0.0
6514,58.0,1.0,60.0,12.0,0.0
6515,39.0,5.0,60.0,13.0,0.0
6516,39.0,25.0,15.0,3.0,0.0
6517,27.0,14.0,60.0,14.0,0.0
6518,44.0,10.0,15.0,3.0,0.0
6519,46.0,30.0,15.0,3.0,0.0
6520,51.0,19.0,15.0,3.0,0.0
6521,55.0,2.0,60.0,10.0,0.0
6522,63.0,0.0,60.0,10.0,0.0
6523,63.0,30.0,15.0,0.0,0.0
6524,58.0,13.0,60.0,11.0,0.0
6525,58.0,0.0,60.0,12.0,0.0
6526,51.0,1.0,60.0,12.0,0.0
6527,39.0,5.0,60.0,13.0,0.0
6528,27.0,3.0,60.0,14.0,0.0
6529,67.0,6.0,15.0,0.0,0.0
6530,70.0,30.0,15.0,0.0,0.0
6531,75.0,37.0,15.0,0.0,0.0
6532,56.0,0.0,60.0,10.0,0.0
6533,63.0,1.0,60.0,10.0,0.0
6534,32.0,5.0,15.0,13.0,0.0
6535,32.0,24.0,15.0,14.0,0.0
6536,36.0,5.0,15.0,13.0,0.0
6537,36.0,25.0,15.0,14.0,0.0
6538,39.0,5.0,15.0,13.0,0.0
6539,39.0,25.0,15.0,14.0,0.0
6540,44.0,5.0,15.0,13.0,0.0
6541,44.0,24.0,15.0,14.0,0.0
6542,44.0,16.0,15.0,12.0,0.0
6543,48.0,5.0,30.0,13.0,0.0
6544,48.0,9.0,30.0,14.0,0.0
6545,48.0,30.0,15.0,12.0,0.0
6546,51.0,16.0,15.0,12.0,0.0
6547,44.0,5.0,30.0,13.0,0.0
6548,44.0,9.0,30.0,14.0,0.0
6549,56.0,31.0,15.0,12.0,0.0
6550,60.0,10.0,30.0,12.0,0.0
6551,44.0,14.0,15.0,13.0,0.0
6552,56.0,6.0,15.0,11.0,0.0
6553,48.0,22.0,15.0,13.0,0.0
6554,68.0,1.0,15.0,10.0,0.0
6555,68.0,1.0,15.0,0.0,0.0
6556,60.0,6.0,15.0,11.0,0.0
6557,56.0,8.0,30.0,12.0,0.0
6558,51.0,14.0,15.0,13.0,0.0
6559,72.0,1.0,15.0,10.0,0.0
6560,72.0,1.0,15.0,0.0,0.0
6561,63.0,6.0,15.0,11.0,0.0
6562,56.0,22.0,15.0,13.0,0.0
6563,75.0,1.0,15.0,10.0,0.0
6564,75.0,1.0,15.0,0.0,0.0
6565,68.0,21.0,15.0,11.0,0.0
6566,60.0,7.0,30.0,13.0,0.0
6567,80.0,1.0,15.0,10.0,0.0
6568,80.0,1.0,15.0,0.0,0.0
6569,72.0,43.0,15.0,11.0,0.0
6570,84.0,2.0,30.0,10.0,0.0
6571,84.0,27.0,60.0,0.0,0.0
6572,75.0,6.0,30.0,11.0,0.0
6573,56.0,23.0,30.0,13.0,0.0
6574,68.0,28.0,30.0,7.0,0.0
6575,56.0,2.0,30.0,8.0,0.0
6576,65.0,30.0,30.0,8.0,0.0
6577,73.0,6.0,120.0,7.0,0.0
6578,56.0,30.0,30.0,8.0,0.0
6579,49.0,30.0,30.0,8.0,0.0
6580,56.0,24.0,30.0,8.0,0.0
6581,66.0,22.0,30.0,8.0,0.0
6582,56.0,2.0,30.0,8.0,0.0
6583,75.0,8.0,15.0,7.0,0.0
6584,77.0,10.0,15.0,7.0,0.0
6585,75.0,10.0,15.0,7.0,0.0
6586,49.0,2.0,30.0,8.0,0.0
6587,77.0,8.0,15.0,7.0,0.0
6588,75.0,28.0,15.0,7.0,0.0
6589,77.0,28.0,30.0,7.0,0.0
6590,56.0,2.0,30.0,8.0,0.0
6591,68.0,30.0,30.0,8.0,0.0
6592,80.0,28.0,30.0,7.0,0.0
6593,56.0,2.0,30.0,8.0,0.0
6594,49.0,30.0,30.0,8.0,0.0
6595,85.0,6.0,120.0,7.0,0.0
6596,56.0,30.0,30.0,8.0,0.0
6597,65.0,30.0,30.0,8.0,0.0
6598,56.0,24.0,30.0,8.0,0.0
6599,49.0,30.0,30.0,8.0,0.0
6600,56.0,30.0,30.0,8.0,0.0
6601,85.0,28.0,30.0,7.0,0.0
6602,63.0,2.0,30.0,8.0,0.0
6603,84.0,28.0,30.0,7.0,0.0
6604,56.0,2.0,30.0,8.0,0.0
6605,80.0,28.0,30.0,7.0,0.0
6606,49.0,2.0,30.0,8.0,0.0
6607,78.0,28.0,30.0,7.0,0.0
6608,56.0,2.0,30.0,8.0,0.0
6609,82.0,28.0,30.0,7.0,0.0
6610,61.0,2.0,30.0,8.0,0.0
6611,78.0,28.0,30.0,7.0,0.0
6612,56.0,2.0,30.0,8.0,0.0
6613,75.0,28.0,30.0,7.0,0.0
6614,49.0,2.0,30.0,8.0,0.0
6615,77.0,28.0,30.0,7.0,0.0
6616,56.0,2.0,30.0,8.0,0.0
6617,80.0,28.0,30.0,7.0,0.0
6618,60.0,2.0,30.0,8.0,0.0
6619,78.0,28.0,30.0,7.0,0.0
6620,56.0,2.0,30.0,8.0,0.0
6621,75.0,28.0,30.0,7.0,0.0
6622,49.0,2.0,30.0,8.0,0.0
6623,77.0,28.0,30.0,7.0,0.0
6624,56.0,2.0,30.0,8.0,0.0
6625,80.0,28.0,30.0,7.0,0.0
6626,59.0,2.0,30.0,8.0,0.0
6627,77.0,28.0,30.0,7.0,0.0
6628,56.0,2.0,30.0,8.0,0.0
6629,73.0,28.0,60.0,7.0,0.0
6630,49.0,30.0,30.0,8.0,0.0
6631,58.0,2.0,30.0,8.0,0.0
6632,61.0,30.0,30.0,8.0,0.0
6633,78.0,6.0,120.0,7.0,0.0
6634,58.0,30.0,30.0,8.0,0.0
6635,46.0,30.0,30.0,8.0,0.0
6636,59.0,24.0,30.0,8.0,0.0
6637,65.0,22.0,30.0,8.0,0.0
6638,59.0,2.0,30.0,8.0,0.0
6639,80.0,8.0,15.0,7.0,0.0
6640,82.0,10.0,15.0,7.0,0.0
6641,80.0,10.0,15.0,7.0,0.0
6642,49.0,2.0,30.0,8.0,0.0
6643,82.0,8.0,15.0,7.0,0.0
6644,80.0,28.0,15.0,7.0,0.0
6645,82.0,28.0,60.0,7.0,0.0
6646,54.0,30.0,30.0,8.0,0.0
6647,66.0,2.0,30.0,8.0,0.0
6648,85.0,28.0,60.0,7.0,0.0
6649,54.0,30.0,30.0,8.0,0.0
6650,49.0,2.0,30.0,8.0,0.0
6651,72.0,6.0,120.0,7.0,0.0
6652,81.0,6.0,120.0,7.0,0.0
6653,57.0,30.0,30.0,8.0,0.0
6654,90.0,16.0,120.0,7.0,0.0
6655,63.0,30.0,30.0,8.0,0.0
6656,57.0,24.0,30.0,8.0,0.0
6657,49.0,2.0,30.0,8.0,0.0
6658,71.0,6.0,30.0,7.0,0.0
6659,80.0,7.0,30.0,7.0,0.0
6660,56.0,2.0,30.0,8.0,0.0
6661,83.0,18.0,30.0,7.0,0.0
6662,90.0,3.0,30.0,7.0,0.0
6663,61.0,27.0,30.0,8.0,0.0
6664,89.0,3.0,30.0,7.0,0.0
6665,56.0,27.0,30.0,8.0,0.0
6666,83.0,3.0,30.0,7.0,0.0
6667,49.0,27.0,30.0,8.0,0.0
6668,82.0,3.0,30.0,7.0,0.0
6669,55.0,27.0,30.0,8.0,0.0
6670,87.0,3.0,30.0,7.0,0.0
6671,61.0,27.0,30.0,8.0,0.0
6672,85.0,3.0,30.0,7.0,0.0
6673,55.0,27.0,30.0,8.0,0.0
6674,76.0,3.0,30.0,7.0,0.0
6675,49.0,27.0,30.0,8.0,0.0
6676,77.0,3.0,30.0,7.0,0.0
6677,56.0,27.0,30.0,8.0,0.0
6678,85.0,3.0,30.0,7.0,0.0
6679,61.0,27.0,30.0,8.0,0.0
6680,83.0,3.0,30.0,7.0,0.0
6681,56.0,27.0,30.0,8.0,0.0
6682,73.0,3.0,30.0,7.0,0.0
6683,49.0,27.0,30.0,8.0,0.0
6684,76.0,3.0,30.0,7.0,0.0
6685,55.0,27.0,30.0,8.0,0.0
6686,83.0,3.0,30.0,7.0,0.0
6687,61.0,27.0,30.0,8.0,0.0
6688,82.0,3.0,30.0,7.0,0.0
6689,55.0,27.0,30.0,8.0,0.0
6690,70.0,3.0,30.0,7.0,0.0
6691,49.0,10.0,30.0,8.0,0.0
6692,71.0,3.0,30.0,7.0,0.0
6693,73.0,11.0,60.0,0.0,0.0
6694,56.0,27.0,30.0,8.0,0.0
6695,37.0,5.0,15.0,13.0,0.0
6696,49.0,13.0,60.0,3.0,0.0
6697,25.0,12.0,15.0,14.0,0.0
6698,78.0,3.0,30.0,7.0,0.0
6699,61.0,3.0,30.0,8.0,0.0
6700,77.0,3.0,30.0,7.0,0.0
6701,77.0,7.0,60.0,0.0,0.0
6702,49.0,27.0,30.0,8.0,0.0
6703,53.0,1.0,60.0,3.0,0.0
6704,68.0,3.0,30.0,7.0,0.0
6705,61.0,3.0,30.0,8.0,0.0
6706,70.0,8.0,20.0,7.0,0.0
6707,80.0,11.0,60.0,0.0,0.0
6708,49.0,12.0,30.0,8.0,0.0
6709,41.0,4.0,120.0,13.0,0.0
6710,56.0,8.0,60.0,3.0,0.0
6711,29.0,7.0,120.0,14.0,0.0
6712,71.0,18.0,20.0,7.0,0.0
6713,61.0,2.0,30.0,8.0,0.0
6714,78.0,1.0,20.0,7.0,0.0
6715,77.0,8.0,20.0,7.0,0.0
6716,85.0,7.0,60.0,0.0,0.0
6717,49.0,12.0,30.0,8.0,0.0
6718,61.0,1.0,60.0,3.0,0.0
6719,71.0,15.0,20.0,7.0,0.0
6720,61.0,3.0,30.0,8.0,0.0
6721,68.0,3.0,15.0,7.0,0.0
6722,70.0,8.0,20.0,7.0,0.0
6723,89.0,11.0,60.0,0.0,0.0
6724,50.0,12.0,30.0,8.0,0.0
6725,44.0,4.0,120.0,13.0,0.0
6726,65.0,8.0,60.0,3.0,0.0
6727,32.0,7.0,120.0,14.0,0.0
6728,71.0,18.0,20.0,7.0,0.0
6729,62.0,2.0,30.0,8.0,0.0
6730,78.0,1.0,20.0,7.0,0.0
6731,77.0,8.0,20.0,7.0,0.0
6732,83.0,7.0,60.0,0.0,0.0
6733,50.0,12.0,30.0,8.0,0.0
6734,59.0,1.0,60.0,3.0,0.0
6735,71.0,15.0,20.0,7.0,0.0
6736,62.0,3.0,30.0,8.0,0.0
6737,68.0,3.0,15.0,7.0,0.0
6738,70.0,8.0,20.0,7.0,0.0
6739,82.0,11.0,60.0,0.0,0.0
6740,50.0,12.0,30.0,8.0,0.0
6741,50.0,4.0,120.0,13.0,0.0
6742,58.0,8.0,60.0,3.0,0.0
6743,38.0,2.0,120.0,14.0,0.0
6744,71.0,18.0,20.0,7.0,0.0
6745,62.0,2.0,30.0,8.0,0.0
6746,78.0,1.0,20.0,7.0,0.0
6747,77.0,8.0,20.0,7.0,0.0
6748,80.0,7.0,60.0,0.0,0.0
6749,50.0,12.0,30.0,8.0,0.0
6750,56.0,1.0,60.0,3.0,0.0
6751,71.0,15.0,20.0,7.0,0.0
6752,62.0,3.0,30.0,8.0,0.0
6753,68.0,3.0,15.0,7.0,0.0
6754,70.0,13.0,15.0,7.0,0.0
6755,78.0,1.0,120.0,0.0,0.0
6756,51.0,2.0,120.0,11.0,0.0
6757,51.0,7.0,30.0,8.0,0.0
6758,66.0,2.0,60.0,1.0,0.0
6759,54.0,9.0,60.0,2.0,0.0
6760,51.0,1.0,120.0,12.0,0.0
6761,39.0,4.0,120.0,13.0,0.0
6762,54.0,1.0,120.0,3.0,0.0
6763,39.0,2.0,120.0,14.0,0.0
6764,75.0,20.0,15.0,7.0,0.0
6765,63.0,6.0,30.0,8.0,0.0
6766,80.0,3.0,15.0,7.0,0.0
6767,78.0,13.0,15.0,7.0,0.0
6768,51.0,7.0,30.0,8.0,0.0
6769,70.0,2.0,60.0,1.0,0.0
6770,58.0,1.0,60.0,2.0,0.0
6771,75.0,20.0,15.0,7.0,0.0
6772,63.0,3.0,30.0,8.0,0.0
6773,71.0,3.0,15.0,7.0,0.0
6774,70.0,13.0,15.0,7.0,0.0
6775,54.0,2.0,120.0,11.0,0.0
6776,51.0,7.0,30.0,8.0,0.0
6777,75.0,2.0,60.0,1.0,0.0
6778,63.0,9.0,60.0,2.0,0.0
6779,42.0,4.0,120.0,13.0,0.0
6780,75.0,20.0,15.0,7.0,0.0
6781,63.0,6.0,30.0,8.0,0.0
6782,80.0,3.0,15.0,7.0,0.0
6783,78.0,13.0,15.0,7.0,0.0
6784,51.0,7.0,30.0,8.0,0.0
6785,78.0,2.0,60.0,1.0,0.0
6786,66.0,2.0,60.0,2.0,0.0
6787,75.0,20.0,15.0,7.0,0.0
6788,63.0,4.0,30.0,8.0,0.0
6789,70.0,3.0,15.0,7.0,0.0
6790,73.0,16.0,15.0,7.0,0.0
6791,58.0,2.0,120.0,11.0,0.0
6792,52.0,0.0,30.0,8.0,0.0
6793,79.0,2.0,60.0,1.0,0.0
6794,67.0,13.0,60.0,2.0,0.0
6795,52.0,1.0,120.0,12.0,0.0
6796,46.0,5.0,120.0,13.0,0.0
6797,40.0,8.0,120.0,14.0,0.0
6798,79.0,17.0,15.0,7.0,0.0
6799,64.0,4.0,30.0,8.0,0.0
6800,84.0,13.0,15.0,7.0,0.0
6801,82.0,2.0,15.0,7.0,0.0
6802,52.0,8.0,30.0,8.0,0.0
6803,73.0,2.0,60.0,1.0,0.0
6804,70.0,1.0,60.0,2.0,0.0
6805,79.0,9.0,15.0,7.0,0.0
6806,73.0,16.0,15.0,7.0,0.0
6807,64.0,4.0,30.0,8.0,0.0
6808,70.0,6.0,15.0,7.0,0.0
6809,73.0,0.0,15.0,7.0,0.0
6810,64.0,2.0,120.0,11.0,0.0
6811,52.0,6.0,30.0,8.0,0.0
6812,72.0,2.0,60.0,1.0,0.0
6813,69.0,9.0,60.0,2.0,0.0
6814,52.0,7.0,120.0,13.0,0.0
6815,79.0,7.0,15.0,7.0,0.0
6816,82.0,14.0,15.0,7.0,0.0
6817,64.0,3.0,30.0,8.0,0.0
6818,87.0,10.0,15.0,7.0,0.0
6819,85.0,3.0,15.0,7.0,0.0
6820,52.0,13.0,30.0,8.0,0.0
6821,70.0,2.0,60.0,1.0,0.0
6822,66.0,2.0,60.0,2.0,0.0
6823,82.0,13.0,15.0,7.0,0.0
6824,79.0,0.0,15.0,7.0,0.0
6825,73.0,14.0,15.0,7.0,0.0
6826,64.0,4.0,30.0,8.0,0.0
6827,70.0,3.0,15.0,7.0,0.0
6828,69.0,15.0,15.0,7.0,0.0
6829,57.0,0.0,120.0,10.0,0.0
6830,60.0,0.0,120.0,10.0,0.0
6831,65.0,2.0,120.0,11.0,0.0
6832,53.0,0.0,60.0,8.0,0.0
6833,65.0,12.0,60.0,8.0,0.0
6834,69.0,2.0,120.0,1.0,0.0
6835,65.0,1.0,120.0,2.0,0.0
6836,53.0,1.0,120.0,12.0,0.0
6837,53.0,5.0,120.0,13.0,0.0
6838,41.0,2.0,120.0,14.0,0.0
6839,72.0,15.0,15.0,7.0,0.0
6840,77.0,15.0,15.0,7.0,0.0
6841,82.0,3.0,15.0,7.0,0.0
6842,81.0,15.0,15.0,8.0,0.0
6843,77.0,15.0,15.0,8.0,0.0
6844,72.0,15.0,15.0,8.0,0.0
6845,69.0,2.0,15.0,8.0,0.0
6846,65.0,15.0,15.0,7.0,0.0
6847,69.0,15.0,15.0,7.0,0.0
6848,72.0,15.0,15.0,7.0,0.0
6849,78.0,15.0,15.0,7.0,0.0
6850,77.0,15.0,15.0,8.0,0.0
6851,72.0,15.0,15.0,8.0,0.0
6852,69.0,15.0,15.0,8.0,0.0
6853,65.0,15.0,15.0,8.0,0.0
6854,60.0,15.0,15.0,7.0,0.0
6855,65.0,15.0,15.0,7.0,0.0
6856,69.0,15.0,15.0,7.0,0.0
6857,73.0,15.0,15.0,7.0,0.0
6858,72.0,15.0,15.0,8.0,0.0
6859,69.0,15.0,15.0,8.0,0.0
6860,65.0,15.0,15.0,8.0,0.0
6861,60.0,15.0,15.0,8.0,0.0
6862,57.0,15.0,15.0,7.0,0.0
6863,60.0,15.0,15.0,7.0,0.0
6864,65.0,15.0,15.0,7.0,0.0
6865,70.0,15.0,15.0,7.0,0.0
6866,69.0,15.0,15.0,8.0,0.0
6867,65.0,15.0,15.0,8.0,0.0
6868,60.0,15.0,15.0,8.0,0.0
6869,57.0,15.0,15.0,8.0,0.0
6870,53.0,15.0,15.0,7.0,0.0
6871,57.0,15.0,15.0,7.0,0.0
6872,60.0,15.0,15.0,7.0,0.0
6873,66.0,15.0,15.0,7.0,0.0
6874,65.0,15.0,15.0,8.0,0.0
6875,60.0,15.0,15.0,8.0,0.0
6876,57.0,10.0,15.0,8.0,0.0
6877,53.0,20.0,15.0,8.0,0.0
6878,53.0,15.0,15.0,7.0,0.0
6879,57.0,15.0,15.0,7.0,0.0
6880,60.0,15.0,15.0,7.0,0.0
6881,65.0,15.0,15.0,7.0,0.0
6882,64.0,15.0,15.0,8.0,0.0
6883,60.0,15.0,15.0,8.0,0.0
6884,57.0,11.0,15.0,8.0,0.0
6885,53.0,19.0,15.0,8.0,0.0
6886,53.0,15.0,15.0,7.0,0.0
6887,57.0,15.0,15.0,7.0,0.0
6888,60.0,15.0,15.0,7.0,0.0
6889,64.0,15.0,15.0,7.0,0.0
6890,64.0,15.0,15.0,8.0,0.0
6891,60.0,15.0,15.0,8.0,0.0
6892,57.0,15.0,15.0,8.0,0.0
6893,53.0,15.0,15.0,8.0,0.0
6894,53.0,15.0,15.0,7.0,0.0
6895,56.0,15.0,15.0,7.0,0.0
6896,60.0,15.0,15.0,7.0,0.0
6897,63.0,20.0,15.0,7.0,0.0
6898,61.0,20.0,20.0,8.0,0.0
6899,57.0,20.0,20.0,8.0,0.0
6900,54.0,20.0,20.0,8.0,0.0
6901,53.0,20.0,20.0,7.0,0.0
6902,57.0,20.0,20.0,7.0,0.0
6903,61.0,20.0,20.0,7.0,0.0
6904,60.0,20.0,20.0,8.0,0.0
6905,57.0,20.0,20.0,8.0,0.0
6906,54.0,20.0,20.0,8.0,0.0
6907,53.0,20.0,20.0,7.0,0.0
6908,57.0,20.0,20.0,7.0,0.0
6909,61.0,20.0,20.0,7.0,0.0
6910,60.0,20.0,20.0,8.0,0.0
6911,57.0,20.0,20.0,8.0,0.0
6912,54.0,20.0,20.0,8.0,0.0
6913,53.0,20.0,20.0,7.0,0.0
6914,57.0,20.0,20.0,7.0,0.0
6915,61.0,20.0,20.0,7.0,0.0
6916,60.0,20.0,20.0,8.0,0.0
6917,57.0,20.0,20.0,8.0,0.0
6918,54.0,20.0,20.0,8.0,0.0
6919,53.0,20.0,20.0,7.0,0.0
6920,57.0,20.0,20.0,7.0,0.0
6921,61.0,20.0,20.0,7.0,0.0
6922,60.0,20.0,20.0,8.0,0.0
6923,57.0,20.0,20.0,8.0,0.0
6924,54.0,60.0,20.0,8.0,0.0
6925,53.0,30.0,60.0,7.0,0.0
6926,87.0,3.0,30.0,8.0,0.0
6927,75.0,7.0,30.0,8.0,0.0
6928,87.0,20.0,20.0,7.0,0.0
6929,99.0,30.0,20.0,7.0,0.0
6930,84.0,3.0,30.0,8.0,0.0
6931,72.0,7.0,30.0,8.0,0.0
6932,84.0,20.0,20.0,7.0,0.0
6933,96.0,30.0,20.0,7.0,0.0
6934,81.0,3.0,30.0,8.0,0.0
6935,69.0,7.0,30.0,8.0,0.0
6936,81.0,20.0,20.0,7.0,0.0
6937,93.0,30.0,20.0,7.0,0.0
6938,78.0,3.0,30.0,8.0,0.0
6939,66.0,7.0,30.0,8.0,0.0
6940,78.0,20.0,20.0,7.0,0.0
6941,90.0,30.0,20.0,7.0,0.0
6942,75.0,3.0,30.0,8.0,0.0
6943,63.0,7.0,30.0,8.0,0.0
6944,75.0,20.0,20.0,7.0,0.0
6945,87.0,30.0,20.0,7.0,0.0
6946,72.0,3.0,30.0,8.0,0.0
6947,60.0,7.0,30.0,8.0,0.0
6948,72.0,20.0,20.0,7.0,0.0
6949,84.0,30.0,20.0,7.0,0.0
6950,69.0,3.0,30.0,8.0,0.0
6951,57.0,7.0,30.0,8.0,0.0
6952,69.0,20.0,20.0,7.0,0.0
6953,81.0,30.0,20.0,7.0,0.0
6954,66.0,3.0,30.0,8.0,0.0
6955,54.0,7.0,30.0,8.0,0.0
6956,66.0,20.0,20.0,7.0,0.0
6957,78.0,30.0,20.0,7.0,0.0
6958,63.0,3.0,30.0,8.0,0.0
6959,51.0,7.0,30.0,8.0,0.0
6960,63.0,20.0,20.0,7.0,0.0
6961,75.0,30.0,20.0,7.0,0.0
6962,60.0,3.0,30.0,8.0,0.0
6963,48.0,7.0,30.0,8.0,0.0
6964,60.0,20.0,20.0,7.0,0.0
6965,72.0,30.0,20.0,7.0,0.0
6966,57.0,3.0,30.0,8.0,0.0
6967,45.0,7.0,30.0,8.0,0.0
6968,57.0,20.0,20.0,7.0,0.0
6969,69.0,30.0,20.0,7.0,0.0
6970,54.0,3.0,30.0,8.0,0.0
6971,42.0,7.0,30.0,8.0,0.0
6972,54.0,20.0,20.0,7.0,0.0
6973,66.0,30.0,20.0,7.0,0.0
6974,51.0,3.0,30.0,8.0,0.0
6975,39.0,7.0,30.0,8.0,0.0
6976,51.0,20.0,20.0,7.0,0.0
6977,63.0,30.0,20.0,7.0,0.0
6978,48.0,3.0,30.0,8.0,0.0
6979,36.0,7.0,30.0,8.0,0.0
6980,48.0,20.0,20.0,7.0,0.0
6981,60.0,30.0,20.0,7.0,0.0
6982,45.0,3.0,30.0,8.0,0.0
6983,33.0,7.0,30.0,8.0,0.0
6984,45.0,20.0,20.0,7.0,0.0
6985,57.0,30.0,20.0,7.0,0.0
6986,53.0,2.0,30.0,10.0,0.0
6987,53.0,1.0,30.0,11.0,0.0
6988,53.0,1.0,30.0,6.0,0.0
6989,65.0,0.0,30.0,6.0,0.0
6990,41.0,0.0,30.0,8.0,0.0
6991,53.0,0.0,30.0,4.0,0.0
6992,41.0,0.0,30.0,4.0,0.0
6993,65.0,2.0,30.0,1.0,0.0
6994,29.0,4.0,30.0,8.0,0.0
6995,53.0,1.0,60.0,12.0,0.0
6996,41.0,5.0,60.0,13.0,0.0
6997,29.0,2.0,60.0,14.0,0.0
6998,41.0,18.0,60.0,15.0,0.0
6999,41.0,20.0,20.0,7.0,0.0
7000,53.0,7.0,20.0,7.0,0.0
7001,58.0,2.0,120.0,10.0,0.0
7002,58.0,2.0,120.0,11.0,0.0
7003,51.0,3.0,30.0,8.0,0.0
7004,70.0,11.0,120.0,1.0,0.0
7005,39.0,4.0,30.0,8.0,0.0
7006,54.0,1.0,60.0,12.0,0.0
7007,51.0,5.0,60.0,13.0,0.0
7008,39.0,20.0,60.0,14.0,0.0
7009,51.0,20.0,20.0,7.0,0.0
7010,63.0,7.0,20.0,7.0,0.0
7011,49.0,3.0,30.0,8.0,0.0
7012,37.0,4.0,30.0,8.0,0.0
7013,53.0,1.0,60.0,12.0,0.0
7014,49.0,2.0,60.0,13.0,0.0
7015,37.0,2.0,60.0,14.0,0.0
7016,49.0,5.0,20.0,7.0,0.0
7017,61.0,7.0,20.0,7.0,0.0
7018,61.0,0.0,15.0,10.0,0.0
7019,61.0,2.0,15.0,11.0,0.0
7020,48.0,1.0,30.0,8.0,0.0
7021,73.0,1.0,15.0,1.0,0.0
7022,36.0,4.0,30.0,8.0,0.0
7023,60.0,2.0,15.0,10.0,0.0
7024,51.0,1.0,60.0,12.0,0.0
7025,48.0,5.0,60.0,13.0,0.0
7026,60.0,2.0,15.0,11.0,0.0
7027,72.0,4.0,15.0,1.0,0.0
7028,36.0,17.0,60.0,14.0,0.0
7029,61.0,2.0,15.0,10.0,0.0
7030,61.0,2.0,15.0,11.0,0.0
7031,73.0,3.0,15.0,1.0,0.0
7032,48.0,5.0,20.0,7.0,0.0
7033,60.0,2.0,15.0,10.0,0.0
7034,60.0,1.0,15.0,11.0,0.0
7035,72.0,2.0,15.0,1.0,0.0
7036,58.0,2.0,15.0,10.0,0.0
7037,58.0,2.0,15.0,11.0,0.0
7038,70.0,11.0,15.0,1.0,0.0
7039,60.0,2.0,20.0,7.0,0.0
7040,60.0,0.0,15.0,10.0,0.0
7041,60.0,2.0,15.0,11.0,0.0
7042,72.0,3.0,15.0,1.0,0.0
7043,61.0,2.0,30.0,10.0,0.0
7044,61.0,1.0,30.0,11.0,0.0
7045,46.0,1.0,30.0,8.0,0.0
7046,73.0,2.0,30.0,1.0,0.0
7047,34.0,4.0,30.0,8.0,0.0
7048,49.0,1.0,60.0,12.0,0.0
7049,46.0,5.0,60.0,13.0,0.0
7050,34.0,17.0,60.0,14.0,0.0
7051,46.0,20.0,20.0,7.0,0.0
7052,58.0,7.0,20.0,7.0,0.0
7053,65.0,2.0,30.0,10.0,0.0
7054,65.0,1.0,30.0,11.0,0.0
7055,44.0,1.0,30.0,8.0,0.0
7056,77.0,2.0,30.0,1.0,0.0
7057,32.0,4.0,30.0,8.0,0.0
7058,48.0,1.0,60.0,12.0,0.0
7059,44.0,5.0,60.0,13.0,0.0
7060,32.0,20.0,60.0,14.0,0.0
7061,44.0,20.0,20.0,7.0,0.0
7062,56.0,7.0,20.0,7.0,0.0
7063,70.0,2.0,60.0,10.0,0.0
7064,70.0,2.0,60.0,11.0,0.0
7065,42.0,3.0,30.0,8.0,0.0
7066,82.0,14.0,60.0,1.0,0.0
7067,30.0,4.0,30.0,8.0,0.0
7068,46.0,1.0,60.0,12.0,0.0
7069,42.0,5.0,60.0,13.0,0.0
7070,30.0,2.0,60.0,14.0,0.0
7071,42.0,20.0,20.0,7.0,0.0
7072,54.0,7.0,20.0,7.0,0.0
7073,58.0,3.0,30.0,8.0,0.0
7074,46.0,1.0,30.0,8.0,0.0
7075,70.0,1.0,30.0,12.0,0.0
7076,58.0,2.0,30.0,13.0,0.0
7077,46.0,2.0,30.0,14.0,0.0
7078,46.0,15.0,60.0,15.0,0.0
7079,58.0,3.0,20.0,7.0,0.0
7080,70.0,1.0,15.0,10.0,0.0
7081,82.0,0.0,15.0,0.0,0.0
7082,73.0,1.0,15.0,0.0,0.0
7083,70.0,2.0,15.0,11.0,0.0
7084,70.0,0.0,15.0,1.0,0.0
7085,61.0,11.0,15.0,1.0,0.0
7086,70.0,15.0,20.0,7.0,0.0
7087,69.0,1.0,30.0,10.0,0.0
7088,81.0,0.0,30.0,0.0,0.0
7089,72.0,1.0,30.0,0.0,0.0
7090,69.0,1.0,30.0,11.0,0.0
7091,53.0,1.0,30.0,8.0,0.0
7092,60.0,0.0,30.0,1.0,0.0
7093,69.0,2.0,30.0,1.0,0.0
7094,41.0,1.0,30.0,8.0,0.0
7095,65.0,1.0,30.0,12.0,0.0
7096,53.0,2.0,30.0,13.0,0.0
7097,41.0,12.0,30.0,14.0,0.0
7098,41.0,1.0,60.0,15.0,0.0
7099,53.0,3.0,20.0,7.0,0.0
7100,70.0,1.0,30.0,10.0,0.0
7101,73.0,1.0,30.0,0.0,0.0
7102,82.0,0.0,30.0,0.0,0.0
7103,70.0,2.0,30.0,11.0,0.0
7104,70.0,0.0,30.0,1.0,0.0
7105,61.0,1.0,30.0,1.0,0.0
7106,65.0,15.0,20.0,7.0,0.0
7107,72.0,0.0,15.0,10.0,0.0
7108,75.0,1.0,15.0,0.0,0.0
7109,84.0,0.0,15.0,0.0,0.0
7110,72.0,2.0,15.0,11.0,0.0
7111,46.0,1.0,30.0,8.0,0.0
7112,58.0,0.0,30.0,6.0,0.0
7113,70.0,0.0,30.0,6.0,0.0
7114,58.0,0.0,30.0,4.0,0.0
7115,72.0,14.0,15.0,1.0,0.0
7116,63.0,0.0,15.0,1.0,0.0
7117,46.0,2.0,30.0,4.0,0.0
7118,34.0,1.0,30.0,8.0,0.0
7119,58.0,1.0,30.0,12.0,0.0
7120,46.0,2.0,30.0,13.0,0.0
7121,34.0,2.0,30.0,14.0,0.0
7122,46.0,3.0,20.0,7.0,0.0
7123,73.0,1.0,15.0,10.0,0.0
7124,85.0,0.0,15.0,0.0,0.0
7125,77.0,1.0,15.0,0.0,0.0
7126,73.0,2.0,15.0,11.0,0.0
7127,65.0,0.0,15.0,1.0,0.0
7128,73.0,11.0,15.0,1.0,0.0
7129,58.0,30.0,20.0,7.0,0.0
7130,69.0,1.0,30.0,10.0,0.0
7131,72.0,0.0,30.0,0.0,0.0
7132,81.0,1.0,30.0,0.0,0.0
7133,69.0,1.0,30.0,11.0,0.0
7134,41.0,1.0,30.0,8.0,0.0
7135,53.0,0.0,30.0,6.0,0.0
7136,65.0,0.0,30.0,6.0,0.0
7137,60.0,0.0,30.0,1.0,0.0
7138,53.0,2.0,30.0,4.0,0.0
7139,69.0,0.0,30.0,1.0,0.0
7140,29.0,1.0,30.0,8.0,0.0
7141,53.0,1.0,30.0,12.0,0.0
7142,41.0,2.0,30.0,13.0,0.0
7143,29.0,17.0,30.0,14.0,0.0
7144,41.0,3.0,20.0,7.0,0.0
7145,53.0,33.0,20.0,7.0,0.0
7146,58.0,3.0,30.0,8.0,0.0
7147,46.0,1.0,30.0,8.0,0.0
7148,70.0,1.0,30.0,12.0,0.0
7149,58.0,2.0,30.0,13.0,0.0
7150,46.0,2.0,30.0,14.0,0.0
7151,46.0,15.0,60.0,15.0,0.0
7152,58.0,3.0,20.0,7.0,0.0
7153,70.0,1.0,15.0,10.0,0.0
7154,73.0,0.0,15.0,0.0,0.0
7155,82.0,1.0,15.0,0.0,0.0
7156,70.0,2.0,15.0,11.0,0.0
7157,61.0,0.0,15.0,1.0,0.0
7158,70.0,11.0,15.0,1.0,0.0
7159,70.0,15.0,20.0,7.0,0.0
7160,69.0,1.0,30.0,10.0,0.0
7161,81.0,1.0,30.0,0.0,0.0
7162,72.0,0.0,30.0,0.0,0.0
7163,69.0,1.0,30.0,11.0,0.0
7164,53.0,1.0,30.0,8.0,0.0
7165,60.0,2.0,30.0,1.0,0.0
7166,69.0,0.0,30.0,1.0,0.0
7167,41.0,1.0,30.0,8.0,0.0
7168,65.0,1.0,30.0,12.0,0.0
7169,53.0,2.0,30.0,13.0,0.0
7170,41.0,12.0,30.0,14.0,0.0
7171,41.0,0.0,60.0,15.0,0.0
7172,53.0,3.0,20.0,7.0,0.0
7173,70.0,1.0,30.0,10.0,0.0
7174,82.0,0.0,30.0,0.0,0.0
7175,73.0,1.0,30.0,0.0,0.0
7176,70.0,2.0,30.0,11.0,0.0
7177,70.0,0.0,30.0,1.0,0.0
7178,61.0,1.0,30.0,1.0,0.0
7179,65.0,15.0,20.0,7.0,0.0
7180,72.0,1.0,15.0,10.0,0.0
7181,84.0,0.0,15.0,0.0,0.0
7182,75.0,1.0,15.0,0.0,0.0
7183,72.0,2.0,15.0,11.0,0.0
7184,70.0,0.0,30.0,6.0,0.0
7185,58.0,1.0,30.0,6.0,0.0
7186,46.0,0.0,30.0,8.0,0.0
7187,46.0,2.0,30.0,4.0,0.0
7188,58.0,0.0,30.0,4.0,0.0
7189,72.0,14.0,15.0,1.0,0.0
7190,63.0,0.0,15.0,1.0,0.0
7191,34.0,1.0,30.0,8.0,0.0
7192,58.0,1.0,30.0,12.0,0.0
7193,46.0,2.0,30.0,13.0,0.0
7194,34.0,2.0,30.0,14.0,0.0
7195,46.0,3.0,20.0,7.0,0.0
7196,73.0,1.0,15.0,10.0,0.0
7197,77.0,0.0,15.0,0.0,0.0
7198,85.0,1.0,15.0,0.0,0.0
7199,73.0,2.0,15.0,11.0,0.0
7200,65.0,11.0,15.0,1.0,0.0
7201,73.0,0.0,15.0,1.0,0.0
7202,58.0,30.0,20.0,7.0,0.0
7203,69.0,1.0,30.0,10.0,0.0
7204,72.0,1.0,30.0,0.0,0.0
7205,81.0,0.0,30.0,0.0,0.0
7206,69.0,1.0,30.0,11.0,0.0
7207,41.0,0.0,30.0,8.0,0.0
7208,65.0,0.0,30.0,6.0,0.0
7209,53.0,1.0,30.0,6.0,0.0
7210,53.0,2.0,30.0,4.0,0.0
7211,60.0,0.0,30.0,1.0,0.0
7212,69.0,0.0,30.0,1.0,0.0
7213,29.0,1.0,30.0,8.0,0.0
7214,53.0,1.0,30.0,12.0,0.0
7215,41.0,2.0,30.0,13.0,0.0
7216,29.0,17.0,30.0,14.0,0.0
7217,41.0,3.0,20.0,7.0,0.0
7218,53.0,33.0,20.0,7.0,0.0
7219,53.0,3.0,30.0,8.0,0.0
7220,41.0,4.0,30.0,8.0,0.0
7221,53.0,1.0,60.0,12.0,0.0
7222,53.0,4.0,60.0,13.0,0.0
7223,41.0,2.0,60.0,14.0,0.0
7224,53.0,1.0,20.0,7.0,0.0
7225,65.0,0.0,15.0,10.0,0.0
7226,69.0,0.0,15.0,0.0,0.0
7227,65.0,1.0,15.0,0.0,0.0
7228,65.0,2.0,15.0,11.0,0.0
7229,65.0,1.0,15.0,1.0,0.0
7230,69.0,0.0,15.0,2.0,0.0
7231,65.0,4.0,15.0,2.0,0.0
7232,67.0,1.0,15.0,10.0,0.0
7233,65.0,0.0,20.0,7.0,0.0
7234,70.0,1.0,15.0,0.0,0.0
7235,67.0,0.0,15.0,0.0,0.0
7236,53.0,2.0,15.0,3.0,0.0
7237,57.0,0.0,15.0,3.0,0.0
7238,67.0,0.0,15.0,11.0,0.0
7239,67.0,2.0,15.0,1.0,0.0
7240,41.0,1.0,15.0,15.0,0.0
7241,67.0,0.0,15.0,2.0,0.0
7242,70.0,4.0,15.0,2.0,0.0
7243,69.0,1.0,15.0,10.0,0.0
7244,72.0,0.0,15.0,0.0,0.0
7245,69.0,1.0,15.0,0.0,0.0
7246,58.0,0.0,15.0,3.0,0.0
7247,69.0,2.0,15.0,11.0,0.0
7248,55.0,0.0,15.0,3.0,0.0
7249,69.0,2.0,15.0,1.0,0.0
7250,72.0,1.0,15.0,2.0,0.0
7251,69.0,0.0,15.0,2.0,0.0
7252,70.0,1.0,30.0,10.0,0.0
7253,74.0,0.0,30.0,0.0,0.0
7254,70.0,1.0,30.0,0.0,0.0
7255,57.0,1.0,15.0,3.0,0.0
7256,70.0,1.0,30.0,11.0,0.0
7257,60.0,0.0,15.0,3.0,0.0
7258,58.0,1.0,60.0,6.0,0.0
7259,58.0,1.0,30.0,8.0,0.0
7260,46.0,3.0,60.0,4.0,0.0
7261,70.0,2.0,30.0,1.0,0.0
7262,74.0,0.0,30.0,2.0,0.0
7263,46.0,0.0,30.0,8.0,0.0
7264,70.0,4.0,30.0,2.0,0.0
7265,62.0,1.0,60.0,12.0,0.0
7266,62.0,5.0,60.0,13.0,0.0
7267,58.0,0.0,30.0,3.0,0.0
7268,62.0,18.0,30.0,3.0,0.0
7269,46.0,2.0,60.0,14.0,0.0
7270,46.0,18.0,60.0,15.0,0.0
7271,58.0,2.0,20.0,7.0,0.0
7272,70.0,3.0,20.0,7.0,0.0
7273,75.0,1.0,120.0,10.0,0.0
7274,75.0,1.0,120.0,0.0,0.0
7275,75.0,2.0,120.0,11.0,0.0
7276,56.0,3.0,30.0,8.0,0.0
7277,63.0,11.0,120.0,1.0,0.0
7278,75.0,0.0,120.0,1.0,0.0
7279,71.0,0.0,30.0,2.0,0.0
7280,44.0,0.0,30.0,8.0,0.0
7281,68.0,4.0,30.0,2.0,0.0
7282,71.0,1.0,60.0,12.0,0.0
7283,59.0,5.0,60.0,13.0,0.0
7284,56.0,18.0,30.0,3.0,0.0
7285,59.0,0.0,30.0,3.0,0.0
7286,44.0,20.0,60.0,14.0,0.0
7287,56.0,2.0,20.0,7.0,0.0
7288,68.0,7.0,20.0,7.0,0.0
7289,54.0,3.0,30.0,8.0,0.0
7290,70.0,0.0,30.0,2.0,0.0
7291,66.0,0.0,30.0,2.0,0.0
7292,42.0,4.0,30.0,8.0,0.0
7293,70.0,1.0,60.0,12.0,0.0
7294,58.0,1.0,60.0,13.0,0.0
7295,54.0,0.0,30.0,3.0,0.0
7296,58.0,3.0,30.0,3.0,0.0
7297,42.0,2.0,60.0,14.0,0.0
7298,54.0,2.0,20.0,7.0,0.0
7299,66.0,7.0,20.0,7.0,0.0
7300,78.0,0.0,15.0,10.0,0.0
7301,75.0,0.0,15.0,0.0,0.0
7302,78.0,1.0,15.0,0.0,0.0
7303,75.0,2.0,15.0,11.0,0.0
7304,53.0,1.0,30.0,8.0,0.0
7305,75.0,1.0,15.0,1.0,0.0
7306,66.0,0.0,15.0,1.0,0.0
7307,41.0,0.0,30.0,8.0,0.0
7308,68.0,0.0,30.0,2.0,0.0
7309,65.0,4.0,30.0,2.0,0.0
7310,77.0,1.0,15.0,10.0,0.0
7311,68.0,1.0,60.0,12.0,0.0
7312,56.0,5.0,60.0,13.0,0.0
7313,74.0,0.0,15.0,0.0,0.0
7314,77.0,1.0,15.0,0.0,0.0
7315,74.0,2.0,15.0,11.0,0.0
7316,74.0,0.0,15.0,1.0,0.0
7317,65.0,4.0,15.0,1.0,0.0
7318,56.0,0.0,30.0,3.0,0.0
7319,53.0,3.0,30.0,3.0,0.0
7320,41.0,17.0,60.0,14.0,0.0
7321,78.0,1.0,15.0,10.0,0.0
7322,75.0,1.0,15.0,0.0,0.0
7323,78.0,0.0,15.0,0.0,0.0
7324,75.0,2.0,15.0,11.0,0.0
7325,75.0,0.0,15.0,1.0,0.0
7326,66.0,3.0,15.0,1.0,0.0
7327,53.0,2.0,20.0,7.0,0.0
7328,77.0,1.0,15.0,10.0,0.0
7329,77.0,0.0,15.0,0.0,0.0
7330,74.0,1.0,15.0,0.0,0.0
7331,74.0,1.0,15.0,11.0,0.0
7332,65.0,2.0,15.0,1.0,0.0
7333,74.0,0.0,15.0,1.0,0.0
7334,75.0,1.0,15.0,10.0,0.0
7335,75.0,1.0,15.0,0.0,0.0
7336,72.0,0.0,15.0,0.0,0.0
7337,72.0,2.0,15.0,11.0,0.0
7338,72.0,0.0,15.0,1.0,0.0
7339,63.0,11.0,15.0,1.0,0.0
7340,65.0,1.0,20.0,7.0,0.0
7341,77.0,0.0,15.0,10.0,0.0
7342,77.0,0.0,15.0,0.0,0.0
7343,74.0,1.0,15.0,0.0,0.0
7344,74.0,2.0,15.0,11.0,0.0
7345,74.0,0.0,15.0,1.0,0.0
7346,65.0,3.0,15.0,1.0,0.0
7347,78.0,1.0,30.0,10.0,0.0
7348,75.0,1.0,30.0,0.0,0.0
7349,78.0,0.0,30.0,0.0,0.0
7350,75.0,1.0,30.0,11.0,0.0
7351,51.0,1.0,30.0,8.0,0.0
7352,75.0,2.0,30.0,1.0,0.0
7353,66.0,0.0,30.0,1.0,0.0
7354,66.0,0.0,30.0,2.0,0.0
7355,63.0,4.0,30.0,2.0,0.0
7356,39.0,0.0,30.0,8.0,0.0
7357,66.0,1.0,60.0,12.0,0.0
7358,54.0,5.0,60.0,13.0,0.0
7359,54.0,18.0,30.0,3.0,0.0
7360,51.0,0.0,30.0,3.0,0.0
7361,39.0,17.0,60.0,14.0,0.0
7362,51.0,2.0,20.0,7.0,0.0
7363,63.0,7.0,20.0,7.0,0.0
7364,82.0,1.0,30.0,10.0,0.0
7365,82.0,0.0,30.0,0.0,0.0
7366,77.0,1.0,30.0,0.0,0.0
7367,77.0,1.0,30.0,11.0,0.0
7368,49.0,1.0,30.0,8.0,0.0
7369,77.0,2.0,30.0,1.0,0.0
7370,70.0,0.0,30.0,1.0,0.0
7371,37.0,0.0,30.0,8.0,0.0
7372,61.0,4.0,30.0,2.0,0.0
7373,65.0,0.0,30.0,2.0,0.0
7374,65.0,1.0,60.0,12.0,0.0
7375,53.0,5.0,60.0,13.0,0.0
7376,49.0,0.0,30.0,3.0,0.0
7377,53.0,18.0,30.0,3.0,0.0
7378,37.0,20.0,60.0,14.0,0.0
7379,49.0,2.0,20.0,7.0,0.0
7380,61.0,7.0,20.0,7.0,0.0
7381,87.0,1.0,90.0,10.0,0.0
7382,78.0,0.0,90.0,0.0,0.0
7383,87.0,1.0,90.0,0.0,0.0
7384,75.0,2.0,90.0,11.0,0.0
7385,47.0,3.0,30.0,8.0,0.0
7386,75.0,0.0,90.0,1.0,0.0
7387,78.0,4.0,90.0,1.0,0.0
7388,35.0,0.0,30.0,8.0,0.0
7389,63.0,4.0,30.0,2.0,0.0
7390,59.0,0.0,30.0,2.0,0.0
7391,51.0,5.0,60.0,13.0,0.0
7392,47.0,18.0,30.0,3.0,0.0
7393,51.0,0.0,30.0,3.0,0.0
7394,35.0,12.0,60.0,14.0,0.0
7395,47.0,2.0,20.0,7.0,0.0
7396,59.0,7.0,20.0,7.0,0.0
7397,46.0,3.0,30.0,8.0,0.0
7398,34.0,4.0,30.0,8.0,0.0
7399,63.0,0.0,30.0,2.0,0.0
7400,58.0,0.0,30.0,2.0,0.0
7401,63.0,1.0,15.0,12.0,0.0
7402,46.0,5.0,60.0,13.0,0.0
7403,46.0,13.0,30.0,3.0,0.0
7404,58.0,0.0,30.0,3.0,0.0
7405,34.0,2.0,60.0,14.0,0.0
7406,46.0,11.0,60.0,15.0,0.0
7407,46.0,2.0,20.0,7.0,0.0
7408,85.0,1.0,30.0,10.0,0.0
7409,85.0,0.0,30.0,0.0,0.0
7410,82.0,1.0,30.0,0.0,0.0
7411,73.0,2.0,30.0,11.0,0.0
7412,70.0,1.0,30.0,1.0,0.0
7413,58.0,7.0,20.0,7.0,0.0
7414,84.0,2.0,30.0,10.0,0.0
7415,75.0,0.0,30.0,0.0,0.0
7416,84.0,3.0,30.0,0.0,0.0
7417,72.0,1.0,30.0,11.0,0.0
7418,45.0,3.0,30.0,8.0,0.0
7419,72.0,1.0,60.0,1.0,0.0
7420,63.0,1.0,30.0,1.0,0.0
7421,63.0,4.0,30.0,2.0,0.0
7422,33.0,0.0,30.0,8.0,0.0
7423,60.0,0.0,30.0,2.0,0.0
7424,63.0,1.0,15.0,12.0,0.0
7425,53.0,0.0,60.0,12.0,0.0
7426,45.0,5.0,60.0,13.0,0.0
7427,60.0,12.0,30.0,3.0,0.0
7428,45.0,0.0,30.0,3.0,0.0
7429,33.0,2.0,60.0,14.0,0.0
7430,41.0,1.0,60.0,15.0,0.0
7431,45.0,2.0,20.0,7.0,0.0
7432,85.0,1.0,30.0,10.0,0.0
7433,85.0,1.0,30.0,0.0,0.0
7434,77.0,0.0,30.0,0.0,0.0
7435,73.0,2.0,30.0,11.0,0.0
7436,65.0,1.0,20.0,1.0,0.0
7437,57.0,7.0,20.0,7.0,0.0
7438,87.0,0.0,15.0,10.0,0.0
7439,79.0,1.0,15.0,0.0,0.0
7440,87.0,0.0,15.0,0.0,0.0
7441,75.0,2.0,15.0,11.0,0.0
7442,41.0,0.0,30.0,8.0,0.0
7443,65.0,0.0,30.0,6.0,0.0
7444,53.0,1.0,30.0,6.0,0.0
7445,75.0,0.0,15.0,1.0,0.0
7446,67.0,14.0,15.0,1.0,0.0
7447,53.0,2.0,30.0,4.0,0.0
7448,63.0,0.0,30.0,2.0,0.0
7449,29.0,0.0,30.0,8.0,0.0
7450,72.0,4.0,30.0,2.0,0.0
7451,65.0,0.0,60.0,12.0,0.0
7452,41.0,5.0,60.0,13.0,0.0
7453,41.0,3.0,30.0,3.0,0.0
7454,53.0,0.0,30.0,3.0,0.0
7455,29.0,2.0,60.0,14.0,0.0
7456,41.0,2.0,20.0,7.0,0.0
7457,89.0,1.0,15.0,10.0,0.0
7458,81.0,1.0,15.0,0.0,0.0
7459,89.0,0.0,15.0,0.0,0.0
7460,77.0,2.0,15.0,11.0,0.0
7461,69.0,0.0,15.0,1.0,0.0
7462,77.0,11.0,15.0,1.0,0.0
7463,53.0,7.0,20.0,7.0,0.0
7464,85.0,1.0,15.0,10.0,0.0
7465,85.0,0.0,15.0,0.0,0.0
7466,82.0,1.0,15.0,0.0,0.0
7467,73.0,2.0,15.0,11.0,0.0
7468,70.0,0.0,30.0,6.0,0.0
7469,58.0,0.0,30.0,6.0,0.0
7470,46.0,1.0,30.0,8.0,0.0
7471,73.0,14.0,15.0,1.0,0.0
7472,46.0,2.0,30.0,4.0,0.0
7473,70.0,0.0,15.0,1.0,0.0
7474,58.0,0.0,30.0,4.0,0.0
7475,34.0,4.0,30.0,8.0,0.0
7476,65.0,0.0,30.0,2.0,0.0
7477,61.0,0.0,30.0,2.0,0.0
7478,53.0,1.0,15.0,12.0,0.0
7479,46.0,5.0,60.0,13.0,0.0
7480,46.0,18.0,30.0,3.0,0.0
7481,61.0,0.0,30.0,3.0,0.0
7482,34.0,20.0,60.0,14.0,0.0
7483,46.0,2.0,20.0,7.0,0.0
7484,58.0,7.0,20.0,7.0,0.0
7485,49.0,3.0,30.0,8.0,0.0
7486,65.0,0.0,30.0,2.0,0.0
7487,70.0,0.0,30.0,2.0,0.0
7488,37.0,4.0,30.0,8.0,0.0
7489,65.0,0.0,15.0,12.0,0.0
7490,53.0,0.0,60.0,12.0,0.0
7491,49.0,5.0,60.0,13.0,0.0
7492,53.0,18.0,30.0,3.0,0.0
7493,49.0,0.0,30.0,3.0,0.0
7494,37.0,2.0,60.0,14.0,0.0
7495,49.0,2.0,20.0,7.0,0.0
7496,82.0,1.0,30.0,10.0,0.0
7497,82.0,1.0,30.0,0.0,0.0
7498,70.0,2.0,30.0,11.0,0.0
7499,70.0,3.0,30.0,1.0,0.0
7500,61.0,0.0,20.0,7.0,0.0
7501,48.0,1.0,30.0,8.0,0.0
7502,79.0,0.0,30.0,10.0,0.0
7503,72.0,1.0,30.0,0.0,0.0
7504,79.0,0.0,30.0,0.0,0.0
7505,67.0,1.0,30.0,11.0,0.0
7506,36.0,1.0,30.0,8.0,0.0
7507,67.0,2.0,30.0,1.0,0.0
7508,60.0,0.0,30.0,1.0,0.0
7509,65.0,4.0,30.0,2.0,0.0
7510,67.0,0.0,30.0,2.0,0.0
7511,55.0,0.0,60.0,12.0,0.0
7512,65.0,1.0,60.0,12.0,0.0
7513,48.0,5.0,60.0,13.0,0.0
7514,55.0,0.0,30.0,3.0,0.0
7515,48.0,13.0,30.0,3.0,0.0
7516,36.0,2.0,60.0,14.0,0.0
7517,46.0,15.0,15.0,15.0,0.0
7518,48.0,2.0,20.0,7.0,0.0
7519,81.0,1.0,30.0,10.0,0.0
7520,81.0,1.0,30.0,0.0,0.0
7521,77.0,0.0,30.0,0.0,0.0
7522,69.0,2.0,30.0,11.0,0.0
7523,65.0,1.0,30.0,1.0,0.0
7524,69.0,0.0,30.0,1.0,0.0
7525,60.0,7.0,20.0,7.0,0.0
7526,82.0,0.0,15.0,10.0,0.0
7527,36.0,3.0,30.0,8.0,0.0
7528,82.0,1.0,15.0,0.0,0.0
7529,79.0,0.0,15.0,0.0,0.0
7530,70.0,2.0,15.0,11.0,0.0
7531,24.0,1.0,30.0,8.0,0.0
7532,67.0,11.0,15.0,1.0,0.0
7533,60.0,2.0,30.0,4.0,0.0
7534,70.0,0.0,15.0,1.0,0.0
7535,67.0,4.0,30.0,2.0,0.0
7536,64.0,0.0,30.0,2.0,0.0
7537,55.0,1.0,60.0,12.0,0.0
7538,64.0,0.0,60.0,12.0,0.0
7539,36.0,5.0,60.0,13.0,0.0
7540,55.0,0.0,30.0,3.0,0.0
7541,48.0,3.0,30.0,3.0,0.0
7542,24.0,2.0,60.0,14.0,0.0
7543,48.0,2.0,20.0,7.0,0.0
7544,84.0,1.0,15.0,10.0,0.0
7545,84.0,1.0,15.0,0.0,0.0
7546,76.0,0.0,15.0,0.0,0.0
7547,72.0,2.0,15.0,11.0,0.0
7548,64.0,11.0,15.0,1.0,0.0
7549,72.0,0.0,15.0,1.0,0.0
7550,60.0,7.0,20.0,7.0,0.0
7551,53.0,7.0,60.0,7.0,0.0
7552,41.0,3.0,30.0,8.0,0.0
7553,81.0,1.0,15.0,10.0,0.0
7554,81.0,0.0,15.0,0.0,0.0
7555,77.0,1.0,15.0,0.0,0.0
7556,69.0,2.0,15.0,11.0,0.0
7557,29.0,0.0,30.0,8.0,0.0
7558,53.0,1.0,30.0,6.0,0.0
7559,65.0,0.0,30.0,6.0,0.0
7560,65.0,2.0,30.0,4.0,0.0
7561,69.0,11.0,15.0,1.0,0.0
7562,53.0,0.0,30.0,4.0,0.0
7563,65.0,0.0,15.0,1.0,0.0
7564,65.0,0.0,30.0,2.0,0.0
7565,69.0,6.0,30.0,2.0,0.0
7566,53.0,1.0,60.0,12.0,0.0
7567,65.0,0.0,60.0,12.0,0.0
7568,41.0,2.0,60.0,13.0,0.0
7569,57.0,18.0,30.0,3.0,0.0
7570,53.0,0.0,30.0,3.0,0.0
7571,29.0,2.0,60.0,14.0,0.0
7572,41.0,5.0,60.0,15.0,0.0
7573,65.0,3.0,15.0,7.0,0.0
7574,66.0,10.0,15.0,7.0,0.0
7575,65.0,10.0,15.0,7.0,0.0
7576,66.0,10.0,15.0,7.0,0.0
7577,65.0,10.0,15.0,7.0,0.0
7578,66.0,28.0,15.0,7.0,0.0
7579,78.0,1.0,30.0,7.0,0.0
7580,75.0,27.0,30.0,7.0,0.0
7581,45.0,1.0,20.0,8.0,0.0
7582,33.0,15.0,60.0,14.0,0.0
7583,53.0,16.0,20.0,8.0,0.0
7584,77.0,4.0,30.0,7.0,0.0
7585,73.0,26.0,30.0,7.0,0.0
7586,46.0,0.0,20.0,8.0,0.0
7587,34.0,14.0,60.0,14.0,0.0
7588,53.0,15.0,20.0,8.0,0.0
7589,75.0,2.0,30.0,7.0,0.0
7590,72.0,27.0,30.0,7.0,0.0
7591,48.0,2.0,20.0,8.0,0.0
7592,36.0,14.0,60.0,14.0,0.0
7593,53.0,15.0,20.0,8.0,0.0
7594,73.0,2.0,30.0,7.0,0.0
7595,70.0,27.0,30.0,7.0,0.0
7596,49.0,2.0,20.0,8.0,0.0
7597,37.0,13.0,60.0,14.0,0.0
7598,53.0,15.0,20.0,8.0,0.0
7599,72.0,1.0,30.0,7.0,0.0
7600,69.0,27.0,30.0,7.0,0.0
7601,51.0,4.0,20.0,8.0,0.0
7602,39.0,4.0,60.0,14.0,0.0
7603,53.0,15.0,20.0,8.0,0.0
7604,65.0,13.0,120.0,7.0,0.0
7605,49.0,5.0,20.0,8.0,0.0
7606,70.0,8.0,15.0,7.0,0.0
7607,37.0,13.0,60.0,14.0,0.0
7608,72.0,1.0,15.0,7.0,0.0
7609,70.0,15.0,15.0,7.0,0.0
7610,69.0,10.0,15.0,7.0,0.0
7611,53.0,6.0,20.0,8.0,0.0
7612,70.0,11.0,15.0,7.0,0.0
7613,69.0,4.0,60.0,7.0,0.0
7614,48.0,27.0,20.0,8.0,0.0
7615,36.0,15.0,60.0,14.0,0.0
7616,60.0,3.0,20.0,8.0,0.0
7617,72.0,0.0,120.0,7.0,0.0
7618,69.0,0.0,60.0,2.0,0.0
7619,53.0,30.0,20.0,8.0,0.0
7620,65.0,1.0,60.0,2.0,0.0
7621,57.0,1.0,60.0,12.0,0.0
7622,53.0,4.0,60.0,13.0,0.0
7623,53.0,16.0,60.0,3.0,0.0
7624,60.0,8.0,20.0,8.0,0.0
7625,60.0,2.0,180.0,4.0,0.0
7626,52.0,30.0,20.0,8.0,0.0
7627,67.0,0.0,120.0,2.0,0.0
7628,60.0,1.0,120.0,2.0,0.0
7629,55.0,1.0,120.0,12.0,0.0
7630,52.0,7.0,60.0,13.0,0.0
7631,52.0,15.0,120.0,3.0,0.0
7632,60.0,10.0,20.0,8.0,0.0
7633,48.0,4.0,20.0,8.0,0.0
7634,70.0,8.0,15.0,7.0,0.0
7635,48.0,4.0,60.0,13.0,0.0
7636,72.0,3.0,15.0,7.0,0.0
7637,70.0,17.0,15.0,7.0,0.0
7638,69.0,10.0,15.0,7.0,0.0
7639,60.0,5.0,20.0,8.0,0.0
7640,70.0,4.0,15.0,7.0,0.0
7641,69.0,5.0,60.0,7.0,0.0
7642,53.0,26.0,20.0,8.0,0.0
7643,69.0,0.0,60.0,2.0,0.0
7644,65.0,1.0,60.0,2.0,0.0
7645,53.0,1.0,60.0,12.0,0.0
7646,53.0,4.0,60.0,13.0,0.0
7647,53.0,15.0,60.0,3.0,0.0
7648,60.0,6.0,20.0,8.0,0.0
7649,72.0,13.0,120.0,7.0,0.0
7650,51.0,29.0,20.0,8.0,0.0
7651,39.0,13.0,60.0,14.0,0.0
7652,60.0,17.0,20.0,8.0,0.0
7653,50.0,32.0,20.0,8.0,0.0
7654,60.0,9.0,180.0,4.0,0.0
7655,38.0,2.0,60.0,14.0,0.0
7656,60.0,2.0,20.0,8.0,0.0
7657,55.0,5.0,20.0,8.0,0.0
7658,70.0,9.0,15.0,7.0,0.0
7659,43.0,14.0,60.0,14.0,0.0
7660,72.0,2.0,15.0,7.0,0.0
7661,70.0,16.0,15.0,7.0,0.0
7662,69.0,10.0,15.0,7.0,0.0
7663,60.0,4.0,20.0,8.0,0.0
7664,72.0,12.0,15.0,7.0,0.0
7665,69.0,3.0,60.0,7.0,0.0
7666,54.0,28.0,20.0,8.0,0.0
7667,42.0,14.0,60.0,14.0,0.0
7668,60.0,6.0,20.0,8.0,0.0
7669,72.0,3.0,120.0,7.0,0.0
7670,69.0,1.0,60.0,0.0,0.0
7671,57.0,5.0,60.0,11.0,0.0
7672,51.0,31.0,20.0,8.0,0.0
7673,57.0,1.0,60.0,12.0,0.0
7674,51.0,4.0,60.0,13.0,0.0
7675,51.0,16.0,60.0,3.0,0.0
7676,63.0,3.0,20.0,8.0,0.0
7677,68.0,1.0,60.0,0.0,0.0
7678,56.0,6.0,60.0,11.0,0.0
7679,61.0,3.0,120.0,4.0,0.0
7680,52.0,29.0,20.0,8.0,0.0
7681,62.0,1.0,120.0,12.0,0.0
7682,52.0,4.0,60.0,13.0,0.0
7683,52.0,3.0,60.0,3.0,0.0
7684,64.0,1.0,20.0,8.0,0.0
7685,71.0,1.0,60.0,0.0,0.0
7686,59.0,2.0,60.0,11.0,0.0
7687,56.0,3.0,20.0,8.0,0.0
7688,71.0,8.0,15.0,7.0,0.0
7689,56.0,4.0,60.0,13.0,0.0
7690,56.0,16.0,60.0,3.0,0.0
7691,72.0,5.0,15.0,7.0,0.0
7692,71.0,15.0,15.0,7.0,0.0
7693,69.0,10.0,15.0,7.0,0.0
7694,64.0,4.0,20.0,8.0,0.0
7695,71.0,1.0,15.0,7.0,0.0
7696,69.0,2.0,60.0,7.0,0.0
7697,64.0,1.0,60.0,0.0,0.0
7698,60.0,5.0,60.0,11.0,0.0
7699,60.0,2.0,60.0,4.0,0.0
7700,57.0,27.0,20.0,8.0,0.0
7701,60.0,1.0,60.0,12.0,0.0
7702,57.0,4.0,60.0,13.0,0.0
7703,57.0,15.0,60.0,3.0,0.0
7704,64.0,2.0,20.0,8.0,0.0
7705,72.0,5.0,90.0,7.0,0.0
7706,60.0,6.0,1500.0,4.0,0.0
7707,52.0,31.0,20.0,8.0,0.0
7708,40.0,10.0,60.0,14.0,0.0
7709,64.0,15.0,20.0,8.0,0.0
7710,57.0,30.0,20.0,8.0,0.0
7711,45.0,6.0,60.0,12.0,0.0
7712,45.0,15.0,60.0,14.0,0.0
7713,69.0,7.0,30.0,7.0,0.0
7714,64.0,2.0,20.0,8.0,0.0
7715,72.0,1.0,90.0,7.0,0.0
7716,52.0,29.0,20.0,8.0,0.0
7717,52.0,17.0,60.0,13.0,0.0
7718,64.0,11.0,20.0,8.0,0.0
7719,57.0,6.0,60.0,11.0,0.0
7720,57.0,30.0,20.0,8.0,0.0
7721,57.0,20.0,60.0,13.0,0.0
7722,69.0,3.0,30.0,7.0,0.0
7723,64.0,3.0,20.0,8.0,0.0
7724,72.0,5.0,90.0,7.0,0.0
7725,52.0,28.0,20.0,8.0,0.0
7726,40.0,10.0,60.0,14.0,0.0
7727,64.0,17.0,20.0,8.0,0.0
7728,57.0,29.0,20.0,8.0,0.0
7729,45.0,6.0,60.0,12.0,0.0
7730,45.0,15.0,60.0,14.0,0.0
7731,69.0,9.0,30.0,7.0,0.0
7732,64.0,1.0,20.0,8.0,0.0
7733,72.0,12.0,90.0,7.0,0.0
7734,52.0,40.0,20.0,8.0,0.0
7735,52.0,11.0,60.0,13.0,0.0
7736,64.0,6.0,60.0,8.0,0.0
7737,57.0,1.0,60.0,11.0,0.0
7738,64.0,10.0,60.0,13.0,0.0
7739,68.0,20.0,20.0,7.0,0.0
7740,57.0,0.0,30.0,8.0,0.0
7741,72.0,3.0,20.0,7.0,0.0
7742,84.0,12.0,15.0,7.0,0.0
7743,60.0,15.0,20.0,8.0,0.0
7744,68.0,22.0,20.0,7.0,0.0
7745,57.0,7.0,30.0,8.0,0.0
7746,72.0,2.0,20.0,7.0,0.0
7747,84.0,13.0,15.0,7.0,0.0
7748,60.0,17.0,20.0,8.0,0.0
7749,64.0,19.0,20.0,7.0,0.0
7750,52.0,7.0,30.0,8.0,0.0
7751,69.0,4.0,20.0,7.0,0.0
7752,81.0,14.0,15.0,7.0,0.0
7753,57.0,14.0,20.0,8.0,0.0
7754,64.0,23.0,20.0,7.0,0.0
7755,52.0,7.0,30.0,8.0,0.0
7756,69.0,2.0,20.0,7.0,0.0
7757,81.0,12.0,15.0,7.0,0.0
7758,57.0,16.0,20.0,8.0,0.0
7759,60.0,22.0,20.0,7.0,0.0
7760,48.0,11.0,30.0,8.0,0.0
7761,63.0,1.0,20.0,7.0,0.0
7762,52.0,16.0,20.0,8.0,0.0
7763,76.0,10.0,15.0,7.0,0.0
7764,60.0,21.0,20.0,7.0,0.0
7765,48.0,10.0,30.0,8.0,0.0
7766,63.0,1.0,20.0,7.0,0.0
7767,76.0,14.0,15.0,7.0,0.0
7768,52.0,17.0,20.0,8.0,0.0
7769,57.0,19.0,20.0,7.0,0.0
7770,45.0,11.0,30.0,8.0,0.0
7771,60.0,2.0,20.0,7.0,0.0
7772,48.0,18.0,20.0,8.0,0.0
7773,72.0,10.0,15.0,7.0,0.0
7774,57.0,19.0,20.0,7.0,0.0
7775,45.0,8.0,30.0,8.0,0.0
7776,60.0,3.0,20.0,7.0,0.0
7777,72.0,12.0,15.0,7.0,0.0
7778,48.0,18.0,20.0,8.0,0.0
7779,52.0,20.0,20.0,7.0,0.0
7780,40.0,10.0,30.0,8.0,0.0
7781,57.0,2.0,20.0,7.0,0.0
7782,69.0,11.0,15.0,7.0,0.0
7783,45.0,16.0,20.0,8.0,0.0
7784,53.0,19.0,20.0,7.0,0.0
7785,41.0,12.0,30.0,8.0,0.0
7786,57.0,2.0,20.0,7.0,0.0
7787,45.0,17.0,20.0,8.0,0.0
7788,69.0,9.0,15.0,7.0,0.0
7789,52.0,21.0,20.0,7.0,0.0
7790,40.0,0.0,30.0,8.0,0.0
7791,57.0,10.0,20.0,7.0,0.0
7792,69.0,14.0,15.0,7.0,0.0
7793,45.0,15.0,20.0,8.0,0.0
7794,51.0,21.0,20.0,7.0,0.0
7795,39.0,0.0,30.0,8.0,0.0
7796,57.0,13.0,20.0,7.0,0.0
7797,69.0,11.0,15.0,7.0,0.0
7798,45.0,15.0,20.0,8.0,0.0
7799,52.0,21.0,20.0,7.0,0.0
7800,40.0,0.0,30.0,8.0,0.0
7801,57.0,11.0,20.0,7.0,0.0
7802,69.0,14.0,15.0,7.0,0.0
7803,45.0,15.0,20.0,8.0,0.0
7804,53.0,20.0,20.0,7.0,0.0
7805,41.0,0.0,30.0,8.0,0.0
7806,57.0,12.0,20.0,7.0,0.0
7807,69.0,13.0,15.0,7.0,0.0
7808,45.0,15.0,20.0,8.0,0.0
7809,52.0,18.0,20.0,7.0,0.0
7810,40.0,11.0,30.0,8.0,0.0
7811,57.0,2.0,20.0,7.0,0.0
7812,69.0,12.0,15.0,7.0,0.0
7813,45.0,17.0,20.0,8.0,0.0
7814,51.0,21.0,20.0,7.0,0.0
7815,39.0,9.0,30.0,8.0,0.0
7816,57.0,0.0,20.0,7.0,0.0
7817,69.0,15.0,15.0,7.0,0.0
7818,45.0,14.0,20.0,8.0,0.0
7819,52.0,21.0,20.0,7.0,0.0
7820,40.0,8.0,30.0,8.0,0.0
7821,57.0,2.0,20.0,7.0,0.0
7822,69.0,14.0,15.0,7.0,0.0
7823,45.0,14.0,20.0,8.0,0.0
7824,53.0,22.0,20.0,7.0,0.0
7825,41.0,4.0,30.0,8.0,0.0
7826,57.0,1.0,20.0,7.0,0.0
7827,69.0,13.0,15.0,7.0,0.0
7828,45.0,17.0,20.0,8.0,0.0
7829,53.0,0.0,960.0,4.0,0.0
7830,60.0,0.0,960.0,4.0,0.0
7831,57.0,17.0,20.0,7.0,0.0
7832,45.0,12.0,30.0,8.0,0.0
7833,60.0,3.0,20.0,7.0,0.0
7834,72.0,11.0,15.0,7.0,0.0
7835,48.0,14.0,20.0,8.0,0.0
7836,60.0,23.0,20.0,7.0,0.0
7837,48.0,8.0,30.0,8.0,0.0
7838,63.0,1.0,20.0,7.0,0.0
7839,75.0,13.0,15.0,7.0,0.0
7840,51.0,17.0,20.0,8.0,0.0
7841,63.0,19.0,20.0,7.0,0.0
7842,51.0,12.0,30.0,8.0,0.0
7843,69.0,1.0,20.0,7.0,0.0
7844,81.0,12.0,15.0,7.0,0.0
7845,57.0,16.0,20.0,8.0,0.0
7846,69.0,18.0,20.0,7.0,0.0
7847,57.0,11.0,30.0,8.0,0.0
7848,72.0,4.0,20.0,7.0,0.0
7849,60.0,18.0,20.0,8.0,0.0
7850,84.0,9.0,15.0,7.0,0.0
7851,72.0,19.0,20.0,7.0,0.0
7852,60.0,13.0,30.0,8.0,0.0
7853,75.0,1.0,20.0,7.0,0.0
7854,63.0,18.0,20.0,8.0,0.0
7855,87.0,9.0,15.0,7.0,0.0
7856,75.0,19.0,20.0,7.0,0.0
7857,63.0,10.0,30.0,8.0,0.0
7858,81.0,4.0,20.0,7.0,0.0
7859,93.0,12.0,15.0,7.0,0.0
7860,69.0,14.0,20.0,8.0,0.0
7861,81.0,22.0,20.0,7.0,0.0
7862,69.0,10.0,30.0,8.0,0.0
7863,84.0,1.0,20.0,7.0,0.0
7864,96.0,12.0,15.0,7.0,0.0
7865,72.0,14.0,20.0,8.0,0.0
7866,84.0,22.0,20.0,7.0,0.0
7867,72.0,1.0,30.0,8.0,0.0
7868,87.0,19.0,20.0,7.0,0.0
7869,99.0,4.0,20.0,7.0,0.0
7870,75.0,14.0,20.0,8.0,0.0
7871,97.0,4.0,20.0,7.0,0.0
7872,73.0,18.0,20.0,8.0,0.0
7873,96.0,4.0,20.0,7.0,0.0
7874,72.0,16.0,20.0,8.0,0.0
7875,94.0,2.0,20.0,7.0,0.0
7876,70.0,19.0,20.0,8.0,0.0
7877,93.0,4.0,20.0,7.0,0.0
7878,69.0,15.0,20.0,8.0,0.0
7879,90.0,3.0,20.0,7.0,0.0
7880,66.0,18.0,20.0,8.0,0.0
7881,89.0,4.0,20.0,7.0,0.0
7882,65.0,13.0,20.0,8.0,0.0
7883,87.0,5.0,20.0,7.0,0.0
7884,63.0,16.0,20.0,8.0,0.0
7885,85.0,4.0,20.0,7.0,0.0
7886,61.0,16.0,20.0,8.0,0.0
7887,84.0,3.0,20.0,7.0,0.0
7888,60.0,16.0,20.0,8.0,0.0
7889,82.0,4.0,20.0,7.0,0.0
7890,58.0,19.0,20.0,8.0,0.0
7891,81.0,4.0,20.0,7.0,0.0
7892,57.0,13.0,20.0,8.0,0.0
7893,78.0,5.0,20.0,7.0,0.0
7894,54.0,11.0,20.0,8.0,0.0
7895,77.0,3.0,20.0,7.0,0.0
7896,53.0,14.0,20.0,8.0,0.0
7897,75.0,4.0,20.0,7.0,0.0
7898,51.0,17.0,20.0,8.0,0.0
7899,73.0,4.0,20.0,7.0,0.0
7900,49.0,11.0,20.0,8.0,0.0
7901,72.0,4.0,20.0,7.0,0.0
7902,48.0,16.0,20.0,8.0,0.0
7903,70.0,2.0,20.0,7.0,0.0
7904,46.0,13.0,20.0,8.0,0.0
7905,69.0,4.0,20.0,7.0,0.0
7906,45.0,10.0,20.0,8.0,0.0
7907,66.0,2.0,15.0,7.0,0.0
7908,42.0,12.0,15.0,8.0,0.0
7909,65.0,2.0,15.0,7.0,0.0
7910,41.0,12.0,15.0,8.0,0.0
7911,63.0,3.0,15.0,7.0,0.0
7912,39.0,13.0,15.0,8.0,0.0
7913,61.0,2.0,15.0,7.0,0.0
7914,37.0,12.0,15.0,8.0,0.0
7915,60.0,6.0,15.0,7.0,0.0
7916,36.0,10.0,15.0,8.0,0.0
7917,58.0,2.0,15.0,7.0,0.0
7918,34.0,13.0,15.0,8.0,0.0
7919,57.0,4.0,15.0,7.0,0.0
7920,33.0,11.0,15.0,8.0,0.0
7921,54.0,5.0,15.0,7.0,0.0
7922,30.0,23.0,15.0,8.0,0.0
7923,53.0,4.0,60.0,7.0,0.0
7924,53.0,2.0,30.0,10.0,0.0
7925,53.0,1.0,30.0,11.0,0.0
7926,53.0,0.0,30.0,6.0,0.0
7927,53.0,11.0,60.0,4.0,0.0
7928,41.0,0.0,60.0,4.0,0.0
7929,29.0,0.0,60.0,8.0,0.0
7930,53.0,1.0,20.0,12.0,0.0
7931,53.0,2.0,20.0,13.0,0.0
7932,41.0,24.0,20.0,14.0,0.0
7933,41.0,12.0,60.0,15.0,0.0
7934,51.0,1.0,20.0,12.0,0.0
7935,51.0,1.0,20.0,13.0,0.0
7936,39.0,1.0,20.0,14.0,0.0
7937,58.0,2.0,120.0,10.0,0.0
7938,58.0,10.0,120.0,11.0,0.0
7939,49.0,1.0,20.0,12.0,0.0
7940,49.0,5.0,20.0,13.0,0.0
7941,37.0,24.0,20.0,14.0,0.0
7942,48.0,1.0,20.0,12.0,0.0
7943,48.0,5.0,20.0,13.0,0.0
7944,36.0,24.0,20.0,14.0,0.0
7945,53.0,12.0,30.0,6.0,0.0
7946,49.0,1.0,20.0,12.0,0.0
7947,49.0,5.0,20.0,13.0,0.0
7948,37.0,0.0,20.0,14.0,0.0
7949,41.0,2.0,60.0,15.0,0.0
7950,53.0,1.0,20.0,12.0,0.0
7951,53.0,5.0,20.0,13.0,0.0
7952,41.0,5.0,20.0,14.0,0.0
7953,61.0,2.0,15.0,10.0,0.0
7954,61.0,5.0,15.0,11.0,0.0
7955,53.0,12.0,30.0,6.0,0.0
7956,51.0,1.0,20.0,12.0,0.0
7957,60.0,0.0,15.0,10.0,0.0
7958,51.0,2.0,20.0,13.0,0.0
7959,60.0,6.0,15.0,11.0,0.0
7960,39.0,0.0,20.0,14.0,0.0
7961,61.0,2.0,15.0,10.0,0.0
7962,41.0,12.0,60.0,15.0,0.0
7963,61.0,2.0,15.0,11.0,0.0
7964,60.0,2.0,15.0,10.0,0.0
7965,60.0,1.0,15.0,11.0,0.0
7966,58.0,2.0,15.0,10.0,0.0
7967,58.0,10.0,15.0,11.0,0.0
7968,48.0,1.0,20.0,12.0,0.0
7969,48.0,2.0,20.0,13.0,0.0
7970,36.0,12.0,20.0,14.0,0.0
7971,60.0,2.0,15.0,10.0,0.0
7972,60.0,1.0,15.0,11.0,0.0
7973,61.0,2.0,30.0,10.0,0.0
7974,61.0,1.0,30.0,11.0,0.0
7975,53.0,24.0,30.0,6.0,0.0
7976,46.0,1.0,20.0,12.0,0.0
7977,46.0,2.0,20.0,13.0,0.0
7978,34.0,0.0,20.0,14.0,0.0
7979,41.0,12.0,60.0,15.0,0.0
7980,49.0,1.0,20.0,12.0,0.0
7981,49.0,5.0,20.0,13.0,0.0
7982,37.0,12.0,20.0,14.0,0.0
7983,65.0,2.0,30.0,10.0,0.0
7984,65.0,1.0,30.0,11.0,0.0
7985,53.0,24.0,30.0,6.0,0.0
7986,48.0,1.0,20.0,12.0,0.0
7987,48.0,2.0,20.0,13.0,0.0
7988,36.0,0.0,20.0,14.0,0.0
7989,41.0,12.0,60.0,15.0,0.0
7990,44.0,1.0,20.0,12.0,0.0
7991,44.0,5.0,20.0,13.0,0.0
7992,32.0,12.0,20.0,14.0,0.0
7993,70.0,0.0,60.0,10.0,0.0
7994,70.0,10.0,60.0,11.0,0.0
7995,58.0,0.0,30.0,6.0,0.0
7996,54.0,1.0,20.0,12.0,0.0
7997,42.0,5.0,20.0,13.0,0.0
7998,30.0,24.0,20.0,14.0,0.0
7999,46.0,2.0,60.0,15.0,0.0
8000,46.0,1.0,20.0,12.0,0.0
8001,46.0,5.0,20.0,13.0,0.0
8002,34.0,12.0,20.0,14.0,0.0
8003,53.0,1.0,20.0,12.0,0.0
8004,41.0,5.0,20.0,13.0,0.0
8005,29.0,12.0,20.0,14.0,0.0
8006,70.0,2.0,15.0,10.0,0.0
8007,70.0,10.0,15.0,11.0,0.0
8008,46.0,1.0,20.0,12.0,0.0
8009,46.0,5.0,20.0,13.0,0.0
8010,34.0,24.0,20.0,14.0,0.0
8011,69.0,2.0,30.0,10.0,0.0
8012,69.0,1.0,30.0,11.0,0.0
8013,58.0,22.0,30.0,6.0,0.0
8014,51.0,1.0,20.0,12.0,0.0
8015,39.0,2.0,20.0,13.0,0.0
8016,27.0,12.0,60.0,14.0,0.0
8017,46.0,2.0,60.0,15.0,0.0
8018,70.0,2.0,30.0,10.0,0.0
8019,70.0,0.0,30.0,11.0,0.0
8020,46.0,1.0,20.0,12.0,0.0
8021,46.0,5.0,20.0,13.0,0.0
8022,72.0,0.0,15.0,10.0,0.0
8023,72.0,10.0,15.0,11.0,0.0
8024,58.0,12.0,30.0,6.0,0.0
8025,49.0,1.0,20.0,12.0,0.0
8026,37.0,5.0,20.0,13.0,0.0
8027,25.0,12.0,60.0,14.0,0.0
8028,46.0,12.0,60.0,15.0,0.0
8029,73.0,2.0,15.0,10.0,0.0
8030,73.0,10.0,15.0,11.0,0.0
8031,46.0,1.0,20.0,12.0,0.0
8032,46.0,5.0,20.0,13.0,0.0
8033,69.0,2.0,30.0,10.0,0.0
8034,69.0,1.0,30.0,11.0,0.0
8035,53.0,24.0,30.0,6.0,0.0
8036,53.0,1.0,20.0,12.0,0.0
8037,41.0,2.0,20.0,13.0,0.0
8038,29.0,12.0,60.0,14.0,0.0
8039,41.0,12.0,60.0,15.0,0.0
8040,53.0,1.0,20.0,12.0,0.0
8041,53.0,5.0,20.0,13.0,0.0
8042,54.0,1.0,20.0,12.0,0.0
8043,54.0,17.0,20.0,13.0,0.0
8044,70.0,2.0,15.0,10.0,0.0
8045,70.0,10.0,15.0,11.0,0.0
8046,53.0,1.0,20.0,12.0,0.0
8047,53.0,29.0,20.0,13.0,0.0
8048,69.0,2.0,30.0,10.0,0.0
8049,69.0,1.0,30.0,11.0,0.0
8050,53.0,0.0,30.0,6.0,0.0
8051,65.0,22.0,30.0,6.0,0.0
8052,53.0,1.0,20.0,12.0,0.0
8053,37.0,2.0,20.0,13.0,0.0
8054,37.0,12.0,60.0,14.0,0.0
8055,70.0,2.0,30.0,10.0,0.0
8056,70.0,1.0,30.0,11.0,0.0
8057,49.0,0.0,20.0,12.0,0.0
8058,49.0,5.0,20.0,13.0,0.0
8059,72.0,2.0,15.0,10.0,0.0
8060,72.0,10.0,15.0,11.0,0.0
8061,65.0,12.0,30.0,6.0,0.0
8062,53.0,0.0,30.0,6.0,0.0
8063,53.0,1.0,20.0,12.0,0.0
8064,34.0,5.0,20.0,13.0,0.0
8065,34.0,12.0,60.0,14.0,0.0
8066,46.0,0.0,15.0,15.0,0.0
8067,73.0,2.0,15.0,10.0,0.0
8068,73.0,10.0,15.0,11.0,0.0
8069,46.0,1.0,20.0,12.0,0.0
8070,46.0,5.0,20.0,13.0,0.0
8071,69.0,2.0,30.0,10.0,0.0
8072,69.0,1.0,30.0,11.0,0.0
8073,53.0,24.0,30.0,6.0,0.0
8074,53.0,1.0,20.0,12.0,0.0
8075,41.0,2.0,20.0,13.0,0.0
8076,41.0,12.0,60.0,14.0,0.0
8077,41.0,12.0,60.0,15.0,0.0
8078,53.0,1.0,20.0,12.0,0.0
8079,53.0,5.0,20.0,13.0,0.0
8080,63.0,1.0,20.0,12.0,0.0
8081,51.0,9.0,20.0,13.0,0.0
8082,65.0,4.0,15.0,7.0,0.0
8083,53.0,6.0,15.0,8.0,0.0
8084,67.0,6.0,15.0,7.0,0.0
8085,48.0,0.0,20.0,13.0,0.0
8086,55.0,5.0,15.0,8.0,0.0
8087,69.0,6.0,15.0,7.0,0.0
8088,57.0,13.0,15.0,8.0,0.0
8089,70.0,2.0,30.0,7.0,0.0
8090,62.0,5.0,30.0,7.0,0.0
8091,58.0,1.0,15.0,8.0,0.0
8092,70.0,0.0,60.0,6.0,0.0
8093,58.0,4.0,60.0,6.0,0.0
8094,46.0,9.0,15.0,8.0,0.0
8095,46.0,0.0,30.0,4.0,0.0
8096,58.0,13.0,30.0,4.0,0.0
8097,53.0,1.0,60.0,12.0,0.0
8098,62.0,0.0,60.0,12.0,0.0
8099,46.0,5.0,60.0,13.0,0.0
8100,34.0,2.0,60.0,14.0,0.0
8101,46.0,1.0,60.0,15.0,0.0
8102,44.0,2.0,15.0,8.0,0.0
8103,56.0,14.0,15.0,8.0,0.0
8104,70.0,1.0,120.0,7.0,0.0
8105,63.0,2.0,120.0,7.0,0.0
8106,75.0,0.0,120.0,7.0,0.0
8107,54.0,2.0,15.0,8.0,0.0
8108,66.0,15.0,120.0,7.0,0.0
8109,42.0,28.0,15.0,8.0,0.0
8110,53.0,2.0,15.0,8.0,0.0
8111,41.0,29.0,15.0,8.0,0.0
8112,54.0,1.0,15.0,8.0,0.0
8113,42.0,16.0,15.0,8.0,0.0
8114,46.0,0.0,30.0,4.0,0.0
8115,58.0,13.0,30.0,4.0,0.0
8116,58.0,1.0,15.0,8.0,0.0
8117,46.0,11.0,15.0,8.0,0.0
8118,77.0,1.0,60.0,7.0,0.0
8119,65.0,16.0,60.0,7.0,0.0
8120,70.0,16.0,120.0,7.0,0.0
8121,44.0,2.0,15.0,8.0,0.0
8122,58.0,12.0,30.0,4.0,0.0
8123,56.0,15.0,15.0,8.0,0.0
8124,46.0,0.0,30.0,4.0,0.0
8125,41.0,2.0,15.0,8.0,0.0
8126,53.0,11.0,15.0,8.0,0.0
8127,78.0,1.0,30.0,7.0,0.0
8128,66.0,3.0,30.0,7.0,0.0
8129,39.0,2.0,15.0,8.0,0.0
8130,51.0,12.0,15.0,8.0,0.0
8131,46.0,0.0,30.0,4.0,0.0
8132,58.0,13.0,30.0,4.0,0.0
8133,54.0,2.0,15.0,8.0,0.0
8134,42.0,12.0,15.0,8.0,0.0
8135,77.0,2.0,30.0,7.0,0.0
8136,82.0,0.0,30.0,7.0,0.0
8137,70.0,3.0,30.0,7.0,0.0
8138,53.0,1.0,15.0,8.0,0.0
8139,41.0,11.0,15.0,8.0,0.0
8140,46.0,13.0,30.0,4.0,0.0
8141,58.0,0.0,30.0,4.0,0.0
8142,37.0,2.0,15.0,8.0,0.0
8143,49.0,28.0,15.0,8.0,0.0
8144,87.0,4.0,90.0,7.0,0.0
8145,75.0,0.0,90.0,7.0,0.0
8146,78.0,15.0,90.0,7.0,0.0
8147,47.0,1.0,15.0,8.0,0.0
8148,35.0,16.0,15.0,8.0,0.0
8149,63.0,12.0,30.0,4.0,0.0
8150,51.0,2.0,15.0,8.0,0.0
8151,39.0,29.0,15.0,8.0,0.0
8152,46.0,1.0,15.0,8.0,0.0
8153,34.0,9.0,15.0,8.0,0.0
8154,85.0,3.0,30.0,7.0,0.0
8155,49.0,12.0,15.0,8.0,0.0
8156,37.0,0.0,15.0,8.0,0.0
8157,78.0,0.0,30.0,7.0,0.0
8158,73.0,17.0,30.0,7.0,0.0
8159,84.0,1.0,30.0,7.0,0.0
8160,78.0,1.0,30.0,7.0,0.0
8161,72.0,1.0,30.0,7.0,0.0
8162,45.0,12.0,15.0,8.0,0.0
8163,53.0,1.0,30.0,6.0,0.0
8164,65.0,0.0,30.0,6.0,0.0
8165,33.0,0.0,15.0,8.0,0.0
8166,53.0,12.0,30.0,4.0,0.0
8167,41.0,1.0,60.0,15.0,0.0
8168,85.0,2.0,30.0,7.0,0.0
8169,73.0,19.0,30.0,7.0,0.0
8170,48.0,8.0,15.0,8.0,0.0
8171,36.0,0.0,15.0,8.0,0.0
8172,87.0,2.0,30.0,7.0,0.0
8173,75.0,3.0,30.0,7.0,0.0
8174,29.0,1.0,15.0,8.0,0.0
8175,41.0,11.0,15.0,8.0,0.0
8176,65.0,1.0,30.0,6.0,0.0
8177,53.0,0.0,30.0,6.0,0.0
8178,53.0,12.0,30.0,4.0,0.0
8179,41.0,3.0,60.0,15.0,0.0
8180,89.0,5.0,30.0,7.0,0.0
8181,45.0,2.0,15.0,8.0,0.0
8182,33.0,9.0,15.0,8.0,0.0
8183,85.0,2.0,60.0,7.0,0.0
8184,73.0,2.0,60.0,7.0,0.0
8185,77.0,13.0,15.0,7.0,0.0
8186,58.0,0.0,30.0,6.0,0.0
8187,70.0,1.0,30.0,6.0,0.0
8188,34.0,15.0,15.0,8.0,0.0
8189,58.0,14.0,30.0,4.0,0.0
8190,46.0,1.0,60.0,15.0,0.0
8191,46.0,9.0,15.0,8.0,0.0
8192,37.0,30.0,15.0,8.0,0.0
8193,82.0,1.0,30.0,7.0,0.0
8194,77.0,17.0,30.0,7.0,0.0
8195,70.0,0.0,30.0,7.0,0.0
8196,49.0,13.0,15.0,8.0,0.0
8197,79.0,4.0,30.0,7.0,0.0
8198,76.0,1.0,30.0,7.0,0.0
8199,67.0,2.0,30.0,7.0,0.0
8200,60.0,5.0,60.0,11.0,0.0
8201,36.0,10.0,15.0,8.0,0.0
8202,60.0,14.0,30.0,4.0,0.0
8203,69.0,7.0,30.0,7.0,0.0
8204,81.0,0.0,30.0,7.0,0.0
8205,48.0,7.0,15.0,8.0,0.0
8206,82.0,5.0,30.0,7.0,0.0
8207,70.0,2.0,30.0,7.0,0.0
8208,60.0,5.0,60.0,11.0,0.0
8209,24.0,9.0,15.0,8.0,0.0
8210,60.0,13.0,30.0,4.0,0.0
8211,48.0,11.0,15.0,12.0,0.0
8212,84.0,3.0,30.0,7.0,0.0
8213,72.0,0.0,30.0,7.0,0.0
8214,36.0,12.0,15.0,8.0,0.0
8215,77.0,0.0,30.0,7.0,0.0
8216,69.0,0.0,30.0,7.0,0.0
8217,81.0,5.0,30.0,7.0,0.0
8218,29.0,1.0,60.0,8.0,0.0
8219,41.0,0.0,60.0,8.0,0.0
8220,65.0,0.0,60.0,11.0,0.0
8221,53.0,5.0,60.0,11.0,0.0
8222,65.0,0.0,30.0,4.0,0.0
8223,53.0,27.0,30.0,4.0,0.0
8224,53.0,26.0,60.0,12.0,0.0
8225,68.0,1.0,30.0,6.0,0.0
8226,56.0,3.0,30.0,4.0,0.0
8227,56.0,1.0,30.0,12.0,0.0
8228,44.0,4.0,30.0,13.0,0.0
8229,44.0,1.0,30.0,3.0,0.0
8230,56.0,0.0,30.0,3.0,0.0
8231,32.0,12.0,30.0,14.0,0.0
8232,72.0,1.0,30.0,10.0,0.0
8233,80.0,0.0,30.0,0.0,0.0
8234,84.0,1.0,30.0,0.0,0.0
8235,68.0,2.0,30.0,11.0,0.0
8236,72.0,0.0,30.0,1.0,0.0
8237,68.0,31.0,30.0,1.0,0.0
8238,70.0,1.0,30.0,10.0,0.0
8239,82.0,0.0,30.0,0.0,0.0
8240,79.0,1.0,30.0,0.0,0.0
8241,67.0,2.0,30.0,11.0,0.0
8242,72.0,1.0,180.0,6.0,0.0
8243,60.0,0.0,180.0,4.0,0.0
8244,70.0,0.0,30.0,1.0,0.0
8245,67.0,3.0,30.0,1.0,0.0
8246,60.0,1.0,30.0,12.0,0.0
8247,48.0,4.0,30.0,13.0,0.0
8248,48.0,0.0,30.0,3.0,0.0
8249,60.0,1.0,30.0,3.0,0.0
8250,36.0,12.0,30.0,14.0,0.0
8251,72.0,1.0,30.0,10.0,0.0
8252,80.0,1.0,30.0,0.0,0.0
8253,84.0,0.0,30.0,0.0,0.0
8254,68.0,2.0,30.0,11.0,0.0
8255,72.0,16.0,30.0,1.0,0.0
8256,68.0,0.0,30.0,1.0,0.0
8257,74.0,1.0,15.0,10.0,0.0
8258,86.0,1.0,15.0,0.0,0.0
8259,82.0,0.0,15.0,0.0,0.0
8260,70.0,2.0,15.0,11.0,0.0
8261,74.0,0.0,15.0,1.0,0.0
8262,70.0,18.0,15.0,1.0,0.0
8263,48.0,1.0,30.0,12.0,0.0
8264,36.0,4.0,30.0,13.0,0.0
8265,48.0,0.0,30.0,3.0,0.0
8266,36.0,1.0,30.0,3.0,0.0
8267,24.0,2.0,30.0,14.0,0.0
8268,76.0,1.0,15.0,10.0,0.0
8269,79.0,0.0,15.0,0.0,0.0
8270,88.0,1.0,15.0,0.0,0.0
8271,67.0,2.0,15.0,11.0,0.0
8272,67.0,0.0,15.0,1.0,0.0
8273,76.0,48.0,15.0,1.0,0.0
8274,77.0,1.0,60.0,10.0,0.0
8275,89.0,0.0,60.0,0.0,0.0
8276,80.0,1.0,60.0,0.0,0.0
8277,68.0,1.0,60.0,11.0,0.0
8278,68.0,29.0,60.0,1.0,0.0
8279,77.0,0.0,60.0,1.0,0.0
8280,53.0,1.0,30.0,12.0,0.0
8281,41.0,4.0,30.0,13.0,0.0
8282,41.0,1.0,30.0,3.0,0.0
8283,53.0,0.0,30.0,3.0,0.0
8284,29.0,17.0,30.0,14.0,0.0
8285,68.0,1.0,30.0,6.0,0.0
8286,56.0,3.0,30.0,4.0,0.0
8287,56.0,1.0,30.0,12.0,0.0
8288,44.0,4.0,30.0,13.0,0.0
8289,56.0,0.0,30.0,3.0,0.0
8290,44.0,1.0,30.0,3.0,0.0
8291,32.0,12.0,30.0,14.0,0.0
8292,72.0,1.0,30.0,10.0,0.0
8293,80.0,0.0,30.0,0.0,0.0
8294,84.0,1.0,30.0,0.0,0.0
8295,68.0,2.0,30.0,11.0,0.0
8296,68.0,31.0,30.0,1.0,0.0
8297,72.0,0.0,30.0,1.0,0.0
8298,70.0,1.0,30.0,10.0,0.0
8299,82.0,0.0,30.0,0.0,0.0
8300,79.0,1.0,30.0,0.0,0.0
8301,67.0,2.0,30.0,11.0,0.0
8302,72.0,1.0,180.0,6.0,0.0
8303,60.0,27.0,180.0,4.0,0.0
8304,70.0,0.0,30.0,1.0,0.0
8305,67.0,3.0,30.0,1.0,0.0
8306,60.0,1.0,30.0,12.0,0.0
8307,48.0,4.0,30.0,13.0,0.0
8308,60.0,1.0,30.0,3.0,0.0
8309,48.0,0.0,30.0,3.0,0.0
8310,36.0,12.0,30.0,14.0,0.0
8311,72.0,1.0,30.0,10.0,0.0
8312,80.0,1.0,30.0,0.0,0.0
8313,84.0,0.0,30.0,0.0,0.0
8314,68.0,2.0,30.0,11.0,0.0
8315,72.0,16.0,30.0,1.0,0.0
8316,68.0,0.0,30.0,1.0,0.0
8317,74.0,1.0,15.0,10.0,0.0
8318,82.0,1.0,15.0,0.0,0.0
8319,86.0,0.0,15.0,0.0,0.0
8320,70.0,2.0,15.0,11.0,0.0
8321,74.0,0.0,15.0,1.0,0.0
8322,70.0,18.0,15.0,1.0,0.0
8323,48.0,1.0,30.0,12.0,0.0
8324,36.0,4.0,30.0,13.0,0.0
8325,48.0,0.0,30.0,3.0,0.0
8326,36.0,1.0,30.0,3.0,0.0
8327,24.0,2.0,30.0,14.0,0.0
8328,76.0,1.0,15.0,10.0,0.0
8329,79.0,0.0,15.0,0.0,0.0
8330,88.0,1.0,15.0,0.0,0.0
8331,67.0,2.0,15.0,11.0,0.0
8332,67.0,0.0,15.0,1.0,0.0
8333,76.0,48.0,15.0,1.0,0.0
8334,77.0,1.0,60.0,10.0,0.0
8335,80.0,1.0,60.0,0.0,0.0
8336,89.0,0.0,60.0,0.0,0.0
8337,68.0,1.0,60.0,11.0,0.0
8338,68.0,0.0,60.0,1.0,0.0
8339,77.0,0.0,60.0,1.0,0.0
8340,53.0,1.0,30.0,12.0,0.0
8341,41.0,4.0,30.0,13.0,0.0
8342,53.0,1.0,30.0,3.0,0.0
8343,41.0,0.0,30.0,3.0,0.0
8344,29.0,17.0,30.0,14.0,0.0
8345,41.0,1.0,30.0,8.0,0.0
8346,53.0,2.0,30.0,8.0,0.0
8347,53.0,21.0,30.0,4.0,0.0
8348,77.0,1.0,30.0,7.0,0.0
8349,68.0,32.0,30.0,7.0,0.0
8350,75.0,2.0,30.0,7.0,0.0
8351,66.0,2.0,30.0,7.0,0.0
8352,44.0,22.0,30.0,8.0,0.0
8353,56.0,0.0,30.0,8.0,0.0
8354,56.0,27.0,180.0,4.0,0.0
8355,77.0,2.0,30.0,7.0,0.0
8356,68.0,18.0,30.0,7.0,0.0
8357,70.0,0.0,15.0,7.0,0.0
8358,78.0,18.0,15.0,7.0,0.0
8359,44.0,1.0,30.0,8.0,0.0
8360,32.0,9.0,30.0,8.0,0.0
8361,80.0,5.0,15.0,7.0,0.0
8362,72.0,46.0,15.0,7.0,0.0
8363,77.0,1.0,60.0,7.0,0.0
8364,73.0,4.0,60.0,7.0,0.0
8365,49.0,1.0,30.0,8.0,0.0
8366,37.0,25.0,30.0,8.0,0.0
8367,53.0,3.0,30.0,8.0,0.0
8368,53.0,20.0,30.0,4.0,0.0
8369,41.0,0.0,30.0,8.0,0.0
8370,77.0,3.0,30.0,7.0,0.0
8371,68.0,30.0,30.0,7.0,0.0
8372,75.0,2.0,30.0,7.0,0.0
8373,66.0,2.0,30.0,7.0,0.0
8374,56.0,1.0,30.0,8.0,0.0
8375,44.0,22.0,30.0,8.0,0.0
8376,56.0,33.0,180.0,4.0,0.0
8377,68.0,1.0,30.0,7.0,0.0
8378,77.0,17.0,30.0,7.0,0.0
8379,78.0,2.0,15.0,7.0,0.0
8380,70.0,17.0,15.0,7.0,0.0
8381,44.0,1.0,30.0,8.0,0.0
8382,32.0,13.0,30.0,8.0,0.0
8383,80.0,1.0,15.0,7.0,0.0
8384,72.0,46.0,15.0,7.0,0.0
8385,77.0,4.0,60.0,7.0,0.0
8386,73.0,3.0,60.0,7.0,0.0
8387,37.0,2.0,30.0,8.0,0.0
8388,49.0,23.0,30.0,8.0,0.0
8389,49.0,6.0,60.0,5.0,0.0
8390,61.0,1.0,30.0,12.0,0.0
8391,49.0,5.0,30.0,13.0,0.0
8392,37.0,12.0,30.0,14.0,0.0
8393,76.0,1.0,30.0,10.0,0.0
8394,80.0,1.0,30.0,0.0,0.0
8395,73.0,2.0,30.0,11.0,0.0
8396,64.0,2.0,30.0,1.0,0.0
8397,61.0,0.0,30.0,1.0,0.0
8398,68.0,0.0,30.0,2.0,0.0
8399,49.0,0.0,30.0,3.0,0.0
8400,52.0,23.0,30.0,3.0,0.0
8401,75.0,2.0,30.0,10.0,0.0
8402,80.0,1.0,90.0,0.0,0.0
8403,72.0,2.0,30.0,11.0,0.0
8404,63.0,0.0,30.0,1.0,0.0
8405,60.0,3.0,30.0,1.0,0.0
8406,56.0,6.0,180.0,5.0,0.0
8407,68.0,6.0,90.0,2.0,0.0
8408,68.0,1.0,30.0,12.0,0.0
8409,56.0,4.0,30.0,13.0,0.0
8410,51.0,0.0,30.0,3.0,0.0
8411,48.0,1.0,30.0,3.0,0.0
8412,44.0,12.0,30.0,14.0,0.0
8413,76.0,2.0,30.0,10.0,0.0
8414,73.0,2.0,30.0,11.0,0.0
8415,64.0,8.0,30.0,1.0,0.0
8416,61.0,0.0,30.0,1.0,0.0
8417,52.0,0.0,30.0,3.0,0.0
8418,49.0,8.0,30.0,3.0,0.0
8419,78.0,2.0,15.0,10.0,0.0
8420,75.0,2.0,15.0,11.0,0.0
8421,63.0,0.0,15.0,1.0,0.0
8422,66.0,7.0,15.0,1.0,0.0
8423,56.0,1.0,30.0,12.0,0.0
8424,44.0,5.0,30.0,13.0,0.0
8425,51.0,0.0,15.0,3.0,0.0
8426,54.0,4.0,15.0,3.0,0.0
8427,32.0,2.0,30.0,14.0,0.0
8428,75.0,2.0,15.0,10.0,0.0
8429,80.0,1.0,30.0,0.0,0.0
8430,72.0,2.0,15.0,11.0,0.0
8431,60.0,7.0,15.0,1.0,0.0
8432,63.0,0.0,15.0,1.0,0.0
8433,68.0,29.0,30.0,2.0,0.0
8434,51.0,4.0,15.0,3.0,0.0
8435,48.0,0.0,15.0,3.0,0.0
8436,76.0,2.0,30.0,10.0,0.0
8437,80.0,1.0,90.0,0.0,0.0
8438,73.0,2.0,30.0,11.0,0.0
8439,64.0,0.0,30.0,1.0,0.0
8440,61.0,3.0,30.0,1.0,0.0
8441,68.0,6.0,90.0,2.0,0.0
8442,73.0,1.0,30.0,12.0,0.0
8443,61.0,4.0,30.0,13.0,0.0
8444,52.0,1.0,30.0,3.0,0.0
8445,49.0,0.0,30.0,3.0,0.0
8446,49.0,12.0,30.0,14.0,0.0
8447,78.0,2.0,30.0,10.0,0.0
8448,75.0,2.0,30.0,11.0,0.0
8449,66.0,2.0,30.0,1.0,0.0
8450,63.0,0.0,30.0,1.0,0.0
8451,54.0,8.0,30.0,3.0,0.0
8452,51.0,0.0,30.0,3.0,0.0
8453,80.0,2.0,15.0,10.0,0.0
8454,76.0,2.0,15.0,11.0,0.0
8455,68.0,7.0,15.0,1.0,0.0
8456,64.0,0.0,15.0,1.0,0.0
8457,56.0,29.0,60.0,5.0,0.0
8458,61.0,1.0,30.0,12.0,0.0
8459,49.0,5.0,30.0,13.0,0.0
8460,52.0,4.0,15.0,3.0,0.0
8461,56.0,0.0,15.0,3.0,0.0
8462,37.0,2.0,30.0,14.0,0.0
8463,76.0,2.0,15.0,10.0,0.0
8464,80.0,1.0,30.0,0.0,0.0
8465,73.0,2.0,15.0,11.0,0.0
8466,64.0,7.0,15.0,1.0,0.0
8467,61.0,0.0,15.0,1.0,0.0
8468,68.0,0.0,30.0,2.0,0.0
8469,52.0,4.0,15.0,3.0,0.0
8470,49.0,0.0,15.0,3.0,0.0
8471,78.0,2.0,30.0,10.0,0.0
8472,83.0,1.0,90.0,0.0,0.0
8473,75.0,2.0,30.0,11.0,0.0
8474,66.0,0.0,30.0,1.0,0.0
8475,63.0,3.0,30.0,1.0,0.0
8476,71.0,6.0,90.0,2.0,0.0
8477,59.0,6.0,180.0,5.0,0.0
8478,71.0,1.0,30.0,12.0,0.0
8479,59.0,4.0,30.0,13.0,0.0
8480,51.0,1.0,30.0,3.0,0.0
8481,54.0,0.0,30.0,3.0,0.0
8482,47.0,12.0,30.0,14.0,0.0
8483,80.0,2.0,30.0,10.0,0.0
8484,76.0,2.0,30.0,11.0,0.0
8485,64.0,8.0,30.0,1.0,0.0
8486,68.0,0.0,30.0,1.0,0.0
8487,52.0,0.0,30.0,3.0,0.0
8488,56.0,8.0,30.0,3.0,0.0
8489,81.0,2.0,15.0,10.0,0.0
8490,78.0,2.0,15.0,11.0,0.0
8491,69.0,7.0,15.0,1.0,0.0
8492,66.0,0.0,15.0,1.0,0.0
8493,59.0,1.0,30.0,12.0,0.0
8494,47.0,5.0,30.0,13.0,0.0
8495,54.0,4.0,15.0,3.0,0.0
8496,57.0,0.0,15.0,3.0,0.0
8497,35.0,2.0,30.0,14.0,0.0
8498,78.0,2.0,15.0,10.0,0.0
8499,87.0,1.0,30.0,0.0,0.0
8500,75.0,2.0,15.0,11.0,0.0
8501,66.0,7.0,15.0,1.0,0.0
8502,63.0,0.0,15.0,1.0,0.0
8503,75.0,29.0,30.0,2.0,0.0
8504,54.0,4.0,15.0,3.0,0.0
8505,51.0,0.0,15.0,3.0,0.0
8506,80.0,2.0,30.0,10.0,0.0
8507,83.0,1.0,90.0,0.0,0.0
8508,76.0,2.0,30.0,11.0,0.0
8509,64.0,0.0,30.0,1.0,0.0
8510,68.0,3.0,30.0,1.0,0.0
8511,71.0,6.0,90.0,2.0,0.0
8512,64.0,1.0,30.0,12.0,0.0
8513,52.0,4.0,30.0,13.0,0.0
8514,56.0,0.0,30.0,3.0,0.0
8515,52.0,1.0,30.0,3.0,0.0
8516,40.0,12.0,30.0,14.0,0.0
8517,81.0,2.0,30.0,10.0,0.0
8518,78.0,2.0,30.0,11.0,0.0
8519,66.0,2.0,30.0,1.0,0.0
8520,69.0,0.0,30.0,1.0,0.0
8521,54.0,0.0,30.0,3.0,0.0
8522,57.0,8.0,30.0,3.0,0.0
8523,83.0,2.0,15.0,10.0,0.0
8524,80.0,2.0,15.0,11.0,0.0
8525,68.0,1.0,60.0,6.0,0.0
8526,56.0,2.0,60.0,4.0,0.0
8527,71.0,7.0,15.0,1.0,0.0
8528,68.0,0.0,15.0,1.0,0.0
8529,52.0,1.0,30.0,12.0,0.0
8530,40.0,5.0,30.0,13.0,0.0
8531,56.0,0.0,15.0,3.0,0.0
8532,59.0,4.0,15.0,3.0,0.0
8533,28.0,2.0,30.0,14.0,0.0
8534,80.0,2.0,15.0,10.0,0.0
8535,87.0,1.0,30.0,0.0,0.0
8536,76.0,2.0,15.0,11.0,0.0
8537,68.0,0.0,15.0,1.0,0.0
8538,64.0,7.0,15.0,1.0,0.0
8539,75.0,11.0,30.0,2.0,0.0
8540,52.0,0.0,15.0,3.0,0.0
8541,56.0,1.0,15.0,3.0,0.0
8542,87.0,2.0,30.0,10.0,0.0
8543,75.0,0.0,30.0,10.0,0.0
8544,79.0,1.0,30.0,0.0,0.0
8545,87.0,1.0,90.0,0.0,0.0
8546,67.0,5.0,15.0,11.0,0.0
8547,75.0,1.0,180.0,6.0,0.0
8548,67.0,0.0,30.0,1.0,0.0
8549,63.0,8.0,360.0,4.0,0.0
8550,63.0,4.0,30.0,1.0,0.0
8551,75.0,1.0,90.0,2.0,0.0
8552,63.0,8.0,15.0,12.0,0.0
8553,51.0,4.0,30.0,13.0,0.0
8554,55.0,1.0,30.0,3.0,0.0
8555,51.0,0.0,30.0,3.0,0.0
8556,39.0,4.0,30.0,14.0,0.0
8557,67.0,4.0,15.0,11.0,0.0
8558,63.0,2.0,15.0,12.0,0.0
8559,87.0,1.0,30.0,10.0,0.0
8560,75.0,0.0,30.0,10.0,0.0
8561,80.0,2.0,20.0,0.0,0.0
8562,68.0,0.0,15.0,11.0,0.0
8563,65.0,1.0,20.0,1.0,0.0
8564,68.0,0.0,20.0,1.0,0.0
8565,65.0,6.0,15.0,12.0,0.0
8566,56.0,8.0,20.0,3.0,0.0
8567,53.0,0.0,20.0,3.0,0.0
8568,68.0,5.0,15.0,11.0,0.0
8569,65.0,2.0,15.0,12.0,0.0
8570,87.0,1.0,30.0,10.0,0.0
8571,75.0,0.0,30.0,10.0,0.0
8572,82.0,1.0,15.0,0.0,0.0
8573,70.0,4.0,15.0,11.0,0.0
8574,70.0,6.0,15.0,1.0,0.0
8575,67.0,0.0,15.0,1.0,0.0
8576,67.0,2.0,15.0,12.0,0.0
8577,39.0,4.0,30.0,13.0,0.0
8578,58.0,0.0,15.0,3.0,0.0
8579,55.0,0.0,15.0,3.0,0.0
8580,27.0,3.0,30.0,14.0,0.0
8581,70.0,4.0,15.0,11.0,0.0
8582,67.0,6.0,15.0,12.0,0.0
8583,75.0,0.0,30.0,10.0,0.0
8584,87.0,1.0,30.0,10.0,0.0
8585,87.0,1.0,30.0,0.0,0.0
8586,85.0,1.0,15.0,0.0,0.0
8587,73.0,1.0,15.0,11.0,0.0
8588,73.0,0.0,15.0,1.0,0.0
8589,70.0,6.0,15.0,1.0,0.0
8590,75.0,1.0,30.0,2.0,0.0
8591,70.0,2.0,15.0,12.0,0.0
8592,61.0,4.0,15.0,3.0,0.0
8593,58.0,0.0,15.0,3.0,0.0
8594,73.0,0.0,15.0,11.0,0.0
8595,70.0,10.0,15.0,12.0,0.0
8596,87.0,0.0,30.0,10.0,0.0
8597,75.0,2.0,30.0,10.0,0.0
8598,87.0,1.0,90.0,0.0,0.0
8599,84.0,1.0,30.0,0.0,0.0
8600,72.0,5.0,15.0,11.0,0.0
8601,68.0,4.0,30.0,1.0,0.0
8602,72.0,0.0,30.0,1.0,0.0
8603,75.0,1.0,90.0,2.0,0.0
8604,68.0,8.0,15.0,12.0,0.0
8605,51.0,4.0,30.0,13.0,0.0
8606,56.0,1.0,30.0,3.0,0.0
8607,60.0,0.0,30.0,3.0,0.0
8608,39.0,4.0,30.0,14.0,0.0
8609,72.0,4.0,15.0,11.0,0.0
8610,68.0,2.0,15.0,12.0,0.0
8611,87.0,1.0,30.0,10.0,0.0
8612,75.0,0.0,30.0,10.0,0.0
8613,82.0,2.0,20.0,0.0,0.0
8614,70.0,0.0,15.0,11.0,0.0
8615,67.0,0.0,20.0,1.0,0.0
8616,70.0,1.0,20.0,1.0,0.0
8617,67.0,6.0,15.0,12.0,0.0
8618,55.0,0.0,20.0,3.0,0.0
8619,58.0,8.0,20.0,3.0,0.0
8620,70.0,5.0,15.0,11.0,0.0
8621,67.0,1.0,15.0,12.0,0.0
8622,75.0,1.0,30.0,10.0,0.0
8623,87.0,0.0,30.0,10.0,0.0
8624,80.0,1.0,15.0,0.0,0.0
8625,68.0,4.0,15.0,11.0,0.0
8626,65.0,0.0,15.0,1.0,0.0
8627,68.0,6.0,15.0,1.0,0.0
8628,65.0,2.0,15.0,12.0,0.0
8629,39.0,4.0,30.0,13.0,0.0
8630,56.0,0.0,15.0,3.0,0.0
8631,53.0,4.0,15.0,3.0,0.0
8632,27.0,3.0,30.0,14.0,0.0
8633,68.0,0.0,15.0,11.0,0.0
8634,65.0,6.0,15.0,12.0,0.0
8635,87.0,1.0,30.0,10.0,0.0
8636,75.0,0.0,30.0,10.0,0.0
8637,80.0,1.0,15.0,0.0,0.0
8638,87.0,1.0,30.0,0.0,0.0
8639,68.0,1.0,15.0,11.0,0.0
8640,65.0,0.0,15.0,1.0,0.0
8641,68.0,6.0,15.0,1.0,0.0
8642,75.0,1.0,30.0,2.0,0.0
8643,65.0,2.0,15.0,12.0,0.0
8644,53.0,4.0,15.0,3.0,0.0
8645,56.0,0.0,15.0,3.0,0.0
8646,68.0,0.0,15.0,11.0,0.0
8647,65.0,10.0,15.0,12.0,0.0
8648,87.0,0.0,30.0,10.0,0.0
8649,75.0,2.0,30.0,10.0,0.0
8650,87.0,1.0,90.0,0.0,0.0
8651,82.0,1.0,30.0,0.0,0.0
8652,70.0,5.0,15.0,11.0,0.0
8653,67.0,4.0,30.0,1.0,0.0
8654,70.0,0.0,30.0,1.0,0.0
8655,75.0,1.0,90.0,2.0,0.0
8656,67.0,8.0,15.0,12.0,0.0
8657,51.0,4.0,30.0,13.0,0.0
8658,55.0,0.0,30.0,3.0,0.0
8659,58.0,1.0,30.0,3.0,0.0
8660,39.0,4.0,30.0,14.0,0.0
8661,70.0,4.0,15.0,11.0,0.0
8662,67.0,2.0,15.0,12.0,0.0
8663,87.0,0.0,30.0,10.0,0.0
8664,75.0,1.0,30.0,10.0,0.0
8665,80.0,2.0,20.0,0.0,0.0
8666,68.0,0.0,15.0,11.0,0.0
8667,65.0,0.0,20.0,1.0,0.0
8668,68.0,1.0,20.0,1.0,0.0
8669,65.0,6.0,15.0,12.0,0.0
8670,56.0,8.0,20.0,3.0,0.0
8671,53.0,0.0,20.0,3.0,0.0
8672,68.0,5.0,15.0,11.0,0.0
8673,65.0,2.0,15.0,12.0,0.0
8674,87.0,1.0,30.0,10.0,0.0
8675,75.0,0.0,30.0,10.0,0.0
8676,79.0,1.0,15.0,0.0,0.0
8677,67.0,4.0,15.0,11.0,0.0
8678,67.0,0.0,15.0,1.0,0.0
8679,63.0,6.0,15.0,1.0,0.0
8680,63.0,2.0,15.0,12.0,0.0
8681,39.0,4.0,30.0,13.0,0.0
8682,51.0,0.0,15.0,3.0,0.0
8683,55.0,0.0,15.0,3.0,0.0
8684,27.0,3.0,30.0,14.0,0.0
8685,67.0,4.0,15.0,11.0,0.0
8686,63.0,6.0,15.0,12.0,0.0
8687,75.0,0.0,30.0,10.0,0.0
8688,87.0,1.0,30.0,10.0,0.0
8689,79.0,1.0,15.0,0.0,0.0
8690,87.0,1.0,30.0,0.0,0.0
8691,67.0,1.0,15.0,11.0,0.0
8692,63.0,6.0,15.0,1.0,0.0
8693,67.0,0.0,15.0,1.0,0.0
8694,75.0,1.0,30.0,2.0,0.0
8695,63.0,2.0,15.0,12.0,0.0
8696,51.0,4.0,15.0,3.0,0.0
8697,55.0,0.0,15.0,3.0,0.0
8698,67.0,0.0,15.0,11.0,0.0
8699,63.0,2.0,15.0,12.0,0.0
8700,86.0,2.0,30.0,10.0,0.0
8701,75.0,0.0,30.0,10.0,0.0
8702,80.0,1.0,30.0,0.0,0.0
8703,86.0,1.0,90.0,0.0,0.0
8704,68.0,5.0,15.0,11.0,0.0
8705,65.0,0.0,30.0,1.0,0.0
8706,68.0,4.0,30.0,1.0,0.0
8707,74.0,1.0,90.0,2.0,0.0
8708,65.0,8.0,15.0,12.0,0.0
8709,51.0,4.0,30.0,13.0,0.0
8710,53.0,0.0,30.0,3.0,0.0
8711,56.0,0.0,30.0,3.0,0.0
8712,39.0,4.0,30.0,14.0,0.0
8713,68.0,4.0,15.0,11.0,0.0
8714,65.0,2.0,15.0,12.0,0.0
8715,86.0,0.0,30.0,10.0,0.0
8716,75.0,1.0,30.0,10.0,0.0
8717,79.0,2.0,20.0,0.0,0.0
8718,67.0,1.0,15.0,11.0,0.0
8719,63.0,0.0,20.0,1.0,0.0
8720,67.0,1.0,20.0,1.0,0.0
8721,63.0,6.0,15.0,12.0,0.0
8722,55.0,8.0,20.0,3.0,0.0
8723,51.0,0.0,20.0,3.0,0.0
8724,67.0,5.0,15.0,11.0,0.0
8725,63.0,2.0,15.0,12.0,0.0
8726,86.0,0.0,30.0,10.0,0.0
8727,75.0,1.0,30.0,10.0,0.0
8728,80.0,1.0,15.0,0.0,0.0
8729,68.0,4.0,15.0,11.0,0.0
8730,68.0,1.0,60.0,6.0,0.0
8731,68.0,0.0,15.0,1.0,0.0
8732,56.0,2.0,60.0,4.0,0.0
8733,65.0,6.0,15.0,1.0,0.0
8734,65.0,2.0,15.0,12.0,0.0
8735,39.0,4.0,30.0,13.0,0.0
8736,56.0,0.0,15.0,3.0,0.0
8737,53.0,0.0,15.0,3.0,0.0
8738,27.0,3.0,30.0,14.0,0.0
8739,68.0,4.0,15.0,11.0,0.0
8740,65.0,6.0,15.0,12.0,0.0
8741,75.0,0.0,30.0,10.0,0.0
8742,86.0,1.0,30.0,10.0,0.0
8743,82.0,1.0,15.0,0.0,0.0
8744,86.0,1.0,30.0,0.0,0.0
8745,70.0,1.0,15.0,11.0,0.0
8746,65.0,0.0,15.0,1.0,0.0
8747,70.0,6.0,15.0,1.0,0.0
8748,74.0,1.0,30.0,2.0,0.0
8749,65.0,2.0,15.0,12.0,0.0
8750,53.0,0.0,15.0,3.0,0.0
8751,58.0,0.0,15.0,3.0,0.0
8752,70.0,1.0,15.0,11.0,0.0
8753,65.0,23.0,15.0,12.0,0.0
8754,87.0,2.0,30.0,10.0,0.0
8755,75.0,0.0,30.0,10.0,0.0
8756,87.0,0.0,120.0,0.0,0.0
8757,79.0,0.0,120.0,0.0,0.0
8758,67.0,5.0,30.0,11.0,0.0
8759,75.0,1.0,120.0,6.0,0.0
8760,63.0,2.0,120.0,1.0,0.0
8761,67.0,0.0,120.0,1.0,0.0
8762,63.0,1.0,120.0,4.0,0.0
8763,75.0,0.0,120.0,2.0,0.0
8764,63.0,6.0,30.0,12.0,0.0
8765,51.0,5.0,30.0,13.0,0.0
8766,55.0,8.0,120.0,3.0,0.0
8767,51.0,0.0,120.0,3.0,0.0
8768,39.0,2.0,30.0,14.0,0.0
8769,75.0,0.0,15.0,10.0,0.0
8770,63.0,5.0,15.0,11.0,0.0
8771,51.0,5.0,15.0,12.0,0.0
8772,77.0,2.0,15.0,10.0,0.0
8773,65.0,5.0,15.0,11.0,0.0
8774,53.0,6.0,15.0,12.0,0.0
8775,79.0,2.0,15.0,10.0,0.0
8776,67.0,5.0,15.0,11.0,0.0
8777,55.0,5.0,15.0,12.0,0.0
8778,80.0,2.0,15.0,10.0,0.0
8779,39.0,2.0,30.0,13.0,0.0
8780,68.0,5.0,15.0,11.0,0.0
8781,27.0,3.0,30.0,14.0,0.0
8782,56.0,6.0,15.0,12.0,0.0
8783,82.0,2.0,15.0,10.0,0.0
8784,70.0,3.0,15.0,11.0,0.0
8785,58.0,3.0,15.0,12.0,0.0
8786,84.0,2.0,15.0,10.0,0.0
8787,72.0,5.0,15.0,11.0,0.0
8788,60.0,2.0,15.0,12.0,0.0
8789,85.0,0.0,15.0,10.0,0.0
8790,73.0,1.0,15.0,11.0,0.0
8791,61.0,4.0,15.0,12.0,0.0
8792,75.0,0.0,30.0,10.0,0.0
8793,87.0,2.0,30.0,10.0,0.0
8794,85.0,1.0,30.0,0.0,0.0
8795,87.0,1.0,90.0,0.0,0.0
8796,70.0,0.0,15.0,11.0,0.0
8797,73.0,5.0,15.0,11.0,0.0
8798,75.0,1.0,90.0,6.0,0.0
8799,63.0,3.0,90.0,4.0,0.0
8800,82.0,2.0,30.0,1.0,0.0
8801,73.0,0.0,30.0,1.0,0.0
8802,70.0,0.0,30.0,2.0,0.0
8803,61.0,2.0,30.0,5.0,0.0
8804,58.0,0.0,30.0,5.0,0.0
8805,73.0,0.0,30.0,2.0,0.0
8806,58.0,8.0,15.0,12.0,0.0
8807,61.0,0.0,15.0,12.0,0.0
8808,51.0,4.0,30.0,13.0,0.0
8809,58.0,0.0,30.0,3.0,0.0
8810,61.0,0.0,30.0,3.0,0.0
8811,39.0,4.0,30.0,14.0,0.0
8812,46.0,0.0,20.0,15.0,0.0
8813,73.0,0.0,15.0,11.0,0.0
8814,70.0,4.0,15.0,11.0,0.0
8815,58.0,0.0,15.0,12.0,0.0
8816,61.0,2.0,15.0,12.0,0.0
8817,87.0,1.0,30.0,10.0,0.0
8818,75.0,0.0,30.0,10.0,0.0
8819,84.0,2.0,20.0,0.0,0.0
8820,68.0,1.0,15.0,11.0,0.0
8821,72.0,0.0,15.0,11.0,0.0
8822,72.0,0.0,20.0,1.0,0.0
8823,80.0,1.0,20.0,1.0,0.0
8824,68.0,3.0,20.0,2.0,0.0
8825,60.0,1.0,30.0,5.0,0.0
8826,56.0,0.0,30.0,5.0,0.0
8827,72.0,0.0,20.0,2.0,0.0
8828,46.0,0.0,20.0,15.0,0.0
8829,60.0,0.0,15.0,12.0,0.0
8830,56.0,6.0,15.0,12.0,0.0
8831,60.0,0.0,20.0,3.0,0.0
8832,56.0,8.0,20.0,3.0,0.0
8833,68.0,0.0,15.0,11.0,0.0
8834,72.0,1.0,15.0,11.0,0.0
8835,60.0,2.0,15.0,12.0,0.0
8836,56.0,0.0,15.0,12.0,0.0
8837,87.0,0.0,30.0,10.0,0.0
8838,75.0,1.0,30.0,10.0,0.0
8839,82.0,0.0,15.0,0.0,0.0
8840,70.0,0.0,15.0,11.0,0.0
8841,67.0,4.0,15.0,11.0,0.0
8842,70.0,0.0,15.0,1.0,0.0
8843,79.0,2.0,15.0,1.0,0.0
8844,46.0,0.0,15.0,5.0,0.0
8845,58.0,4.0,15.0,5.0,0.0
8846,70.0,0.0,15.0,2.0,0.0
8847,67.0,0.0,15.0,2.0,0.0
8848,58.0,2.0,15.0,12.0,0.0
8849,55.0,0.0,15.0,12.0,0.0
8850,39.0,4.0,30.0,13.0,0.0
8851,55.0,1.0,15.0,3.0,0.0
8852,58.0,0.0,15.0,3.0,0.0
8853,27.0,3.0,30.0,14.0,0.0
8854,46.0,1.0,15.0,15.0,0.0
8855,70.0,0.0,15.0,11.0,0.0
8856,67.0,0.0,15.0,11.0,0.0
8857,58.0,0.0,15.0,12.0,0.0
8858,55.0,3.0,15.0,12.0,0.0
8859,75.0,1.0,30.0,10.0,0.0
8860,87.0,0.0,30.0,10.0,0.0
8861,82.0,1.0,15.0,0.0,0.0
8862,87.0,1.0,30.0,0.0,0.0
8863,70.0,1.0,15.0,11.0,0.0
8864,67.0,0.0,15.0,11.0,0.0
8865,75.0,1.0,30.0,6.0,0.0
8866,63.0,3.0,30.0,4.0,0.0
8867,70.0,0.0,15.0,1.0,0.0
8868,79.0,2.0,15.0,1.0,0.0
8869,58.0,4.0,15.0,5.0,0.0
8870,70.0,0.0,15.0,2.0,0.0
8871,67.0,0.0,15.0,2.0,0.0
8872,46.0,0.0,15.0,5.0,0.0
8873,55.0,0.0,15.0,12.0,0.0
8874,58.0,2.0,15.0,12.0,0.0
8875,55.0,0.0,15.0,3.0,0.0
8876,58.0,0.0,15.0,3.0,0.0
8877,70.0,0.0,15.0,11.0,0.0
8878,67.0,1.0,15.0,11.0,0.0
8879,55.0,10.0,15.0,12.0,0.0
8880,58.0,0.0,15.0,12.0,0.0
8881,46.0,0.0,15.0,15.0,0.0
8882,75.0,2.0,30.0,10.0,0.0
8883,87.0,0.0,30.0,10.0,0.0
8884,87.0,1.0,90.0,0.0,0.0
8885,84.0,1.0,30.0,0.0,0.0
8886,72.0,2.0,15.0,11.0,0.0
8887,68.0,0.0,15.0,11.0,0.0
8888,75.0,1.0,90.0,6.0,0.0
8889,80.0,0.0,30.0,1.0,0.0
8890,63.0,3.0,90.0,4.0,0.0
8891,72.0,2.0,30.0,1.0,0.0
8892,56.0,0.0,30.0,5.0,0.0
8893,72.0,0.0,30.0,2.0,0.0
8894,68.0,0.0,30.0,2.0,0.0
8895,60.0,0.0,30.0,5.0,0.0
8896,56.0,8.0,15.0,12.0,0.0
8897,60.0,0.0,15.0,12.0,0.0
8898,51.0,4.0,30.0,13.0,0.0
8899,60.0,1.0,30.0,3.0,0.0
8900,56.0,0.0,30.0,3.0,0.0
8901,39.0,4.0,30.0,14.0,0.0
8902,68.0,0.0,15.0,11.0,0.0
8903,72.0,4.0,15.0,11.0,0.0
8904,60.0,0.0,15.0,12.0,0.0
8905,56.0,2.0,15.0,12.0,0.0
8906,75.0,1.0,30.0,10.0,0.0
8907,87.0,0.0,30.0,10.0,0.0
8908,82.0,2.0,20.0,0.0,0.0
8909,70.0,0.0,15.0,11.0,0.0
8910,67.0,0.0,15.0,11.0,0.0
8911,79.0,0.0,20.0,1.0,0.0
8912,70.0,0.0,20.0,1.0,0.0
8913,58.0,1.0,30.0,5.0,0.0
8914,67.0,3.0,20.0,2.0,0.0
8915,55.0,0.0,30.0,5.0,0.0
8916,46.0,2.0,15.0,15.0,0.0
8917,70.0,0.0,20.0,2.0,0.0
8918,55.0,6.0,15.0,12.0,0.0
8919,58.0,0.0,15.0,12.0,0.0
8920,58.0,0.0,20.0,3.0,0.0
8921,55.0,8.0,20.0,3.0,0.0
8922,67.0,0.0,15.0,11.0,0.0
8923,70.0,1.0,15.0,11.0,0.0
8924,55.0,2.0,15.0,12.0,0.0
8925,58.0,0.0,15.0,12.0,0.0
8926,46.0,1.0,15.0,15.0,0.0
8927,87.0,1.0,30.0,10.0,0.0
8928,75.0,0.0,30.0,10.0,0.0
8929,80.0,1.0,15.0,0.0,0.0
8930,68.0,0.0,15.0,11.0,0.0
8931,65.0,3.0,15.0,11.0,0.0
8932,77.0,0.0,15.0,1.0,0.0
8933,68.0,2.0,15.0,1.0,0.0
8934,56.0,4.0,15.0,5.0,0.0
8935,65.0,0.0,15.0,2.0,0.0
8936,68.0,0.0,15.0,2.0,0.0
8937,53.0,0.0,15.0,12.0,0.0
8938,56.0,2.0,15.0,12.0,0.0
8939,39.0,4.0,30.0,13.0,0.0
8940,53.0,1.0,15.0,3.0,0.0
8941,56.0,0.0,15.0,3.0,0.0
8942,27.0,3.0,30.0,14.0,0.0
8943,46.0,1.0,15.0,15.0,0.0
8944,65.0,0.0,15.0,11.0,0.0
8945,68.0,0.0,15.0,11.0,0.0
8946,56.0,0.0,15.0,12.0,0.0
8947,53.0,3.0,15.0,12.0,0.0
8948,75.0,1.0,30.0,10.0,0.0
8949,87.0,0.0,30.0,10.0,0.0
8950,87.0,1.0,30.0,0.0,0.0
8951,80.0,1.0,15.0,0.0,0.0
8952,65.0,1.0,15.0,11.0,0.0
8953,68.0,0.0,15.0,11.0,0.0
8954,75.0,1.0,30.0,6.0,0.0
8955,68.0,0.0,15.0,1.0,0.0
8956,77.0,2.0,15.0,1.0,0.0
8957,63.0,3.0,30.0,4.0,0.0
8958,46.0,3.0,15.0,15.0,0.0
8959,68.0,0.0,15.0,2.0,0.0
8960,56.0,0.0,15.0,5.0,0.0
8961,65.0,3.0,15.0,2.0,0.0
8962,53.0,2.0,15.0,12.0,0.0
8963,56.0,0.0,15.0,12.0,0.0
8964,53.0,1.0,15.0,3.0,0.0
8965,56.0,0.0,15.0,3.0,0.0
8966,65.0,0.0,15.0,11.0,0.0
8967,68.0,0.0,15.0,11.0,0.0
8968,56.0,0.0,15.0,12.0,0.0
8969,53.0,10.0,15.0,12.0,0.0
8970,75.0,2.0,30.0,10.0,0.0
8971,86.0,0.0,30.0,10.0,0.0
8972,86.0,1.0,90.0,0.0,0.0
8973,80.0,1.0,30.0,0.0,0.0
8974,68.0,4.0,15.0,11.0,0.0
8975,65.0,0.0,15.0,11.0,0.0
8976,74.0,1.0,90.0,6.0,0.0
8977,68.0,2.0,30.0,1.0,0.0
8978,62.0,3.0,90.0,4.0,0.0
8979,77.0,0.0,30.0,1.0,0.0
8980,65.0,0.0,30.0,2.0,0.0
8981,68.0,0.0,30.0,2.0,0.0
8982,56.0,2.0,30.0,5.0,0.0
8983,56.0,0.0,15.0,12.0,0.0
8984,53.0,8.0,15.0,12.0,0.0
8985,51.0,4.0,30.0,13.0,0.0
8986,53.0,0.0,30.0,3.0,0.0
8987,56.0,0.0,30.0,3.0,0.0
8988,39.0,4.0,30.0,14.0,0.0
8989,46.0,1.0,15.0,15.0,0.0
8990,68.0,4.0,15.0,11.0,0.0
8991,65.0,0.0,15.0,11.0,0.0
8992,53.0,2.0,15.0,12.0,0.0
8993,56.0,0.0,15.0,12.0,0.0
8994,75.0,0.0,30.0,10.0,0.0
8995,86.0,1.0,30.0,10.0,0.0
8996,79.0,1.0,20.0,0.0,0.0
8997,67.0,1.0,15.0,11.0,0.0
8998,63.0,0.0,15.0,11.0,0.0
8999,67.0,0.0,20.0,1.0,0.0
9000,75.0,1.0,20.0,1.0,0.0
9001,46.0,0.0,15.0,15.0,0.0
9002,67.0,3.0,20.0,2.0,0.0
9003,63.0,0.0,20.0,2.0,0.0
9004,55.0,1.0,30.0,5.0,0.0
9005,51.0,6.0,15.0,12.0,0.0
9006,55.0,0.0,15.0,12.0,0.0
9007,55.0,8.0,20.0,3.0,0.0
9008,51.0,0.0,20.0,3.0,0.0
9009,63.0,0.0,15.0,11.0,0.0
9010,67.0,1.0,15.0,11.0,0.0
9011,51.0,2.0,15.0,12.0,0.0
9012,55.0,0.0,15.0,12.0,0.0
9013,75.0,0.0,30.0,10.0,0.0
9014,86.0,1.0,30.0,10.0,0.0
9015,80.0,1.0,15.0,0.0,0.0
9016,65.0,4.0,15.0,11.0,0.0
9017,68.0,0.0,15.0,11.0,0.0
9018,77.0,2.0,15.0,1.0,0.0
9019,68.0,0.0,15.0,1.0,0.0
9020,68.0,4.0,15.0,2.0,0.0
9021,65.0,0.0,15.0,2.0,0.0
9022,56.0,0.0,15.0,5.0,0.0
9023,56.0,2.0,15.0,12.0,0.0
9024,53.0,0.0,15.0,12.0,0.0
9025,39.0,0.0,30.0,13.0,0.0
9026,53.0,0.0,15.0,3.0,0.0
9027,56.0,1.0,15.0,3.0,0.0
9028,27.0,3.0,30.0,14.0,0.0
9029,46.0,0.0,15.0,15.0,0.0
9030,65.0,0.0,15.0,11.0,0.0
9031,68.0,0.0,15.0,11.0,0.0
9032,56.0,2.0,15.0,12.0,0.0
9033,53.0,0.0,15.0,12.0,0.0
9034,70.0,3.0,15.0,7.0,0.0
9035,58.0,4.0,15.0,8.0,0.0
9036,75.0,0.0,30.0,10.0,0.0
9037,86.0,0.0,30.0,10.0,0.0
9038,82.0,1.0,15.0,0.0,0.0
9039,86.0,1.0,30.0,0.0,0.0
9040,70.0,1.0,15.0,11.0,0.0
9041,65.0,0.0,15.0,11.0,0.0
9042,74.0,1.0,30.0,6.0,0.0
9043,77.0,2.0,15.0,1.0,0.0
9044,62.0,3.0,30.0,4.0,0.0
9045,70.0,0.0,15.0,1.0,0.0
9046,70.0,4.0,15.0,2.0,0.0
9047,58.0,0.0,15.0,5.0,0.0
9048,72.0,0.0,15.0,7.0,0.0
9049,65.0,0.0,15.0,2.0,0.0
9050,58.0,1.0,15.0,12.0,0.0
9051,53.0,0.0,15.0,12.0,0.0
9052,60.0,1.0,15.0,8.0,0.0
9053,58.0,0.0,15.0,3.0,0.0
9054,53.0,0.0,15.0,3.0,0.0
9055,74.0,1.0,15.0,7.0,0.0
9056,62.0,1.0,15.0,8.0,0.0
9057,70.0,0.0,15.0,11.0,0.0
9058,65.0,0.0,15.0,11.0,0.0
9059,53.0,12.0,15.0,12.0,0.0
9060,58.0,0.0,15.0,12.0,0.0
9061,46.0,0.0,15.0,15.0,0.0
9062,67.0,1.0,180.0,7.0,0.0
9063,75.0,2.0,180.0,7.0,0.0
9064,55.0,1.0,180.0,8.0,0.0
9065,63.0,21.0,180.0,8.0,0.0
9066,87.0,1.0,60.0,10.0,0.0
9067,75.0,0.0,60.0,10.0,0.0
9068,79.0,0.0,60.0,0.0,0.0
9069,87.0,1.0,60.0,0.0,0.0
9070,67.0,1.0,60.0,11.0,0.0
9071,63.0,0.0,60.0,11.0,0.0
9072,75.0,1.0,60.0,6.0,0.0
9073,63.0,0.0,60.0,4.0,0.0
9074,75.0,0.0,60.0,1.0,0.0
9075,67.0,2.0,60.0,1.0,0.0
9076,67.0,0.0,60.0,2.0,0.0
9077,63.0,0.0,60.0,2.0,0.0
9078,58.0,1.0,60.0,5.0,0.0
9079,55.0,0.0,60.0,12.0,0.0
9080,51.0,5.0,60.0,12.0,0.0
9081,51.0,5.0,30.0,13.0,0.0
9082,55.0,3.0,60.0,3.0,0.0
9083,51.0,0.0,60.0,3.0,0.0
9084,39.0,17.0,30.0,14.0,0.0
9085,46.0,8.0,60.0,15.0,0.0
9086,46.0,5.0,15.0,13.0,0.0
9087,34.0,10.0,15.0,14.0,0.0
9088,44.0,5.0,15.0,13.0,0.0
9089,32.0,10.0,15.0,14.0,0.0
9090,43.0,5.0,15.0,13.0,0.0
9091,31.0,5.0,15.0,14.0,0.0
9092,41.0,5.0,15.0,13.0,0.0
9093,29.0,39.0,15.0,14.0,0.0
9094,39.0,5.0,120.0,13.0,0.0
9095,27.0,69.0,120.0,14.0,0.0
9096,70.0,3.0,15.0,7.0,0.0
9097,58.0,10.0,15.0,8.0,0.0
9098,72.0,3.0,15.0,7.0,0.0
9099,60.0,7.0,15.0,8.0,0.0
9100,74.0,5.0,15.0,7.0,0.0
9101,62.0,8.0,15.0,8.0,0.0
9102,75.0,3.0,15.0,7.0,0.0
9103,63.0,10.0,15.0,8.0,0.0
9104,77.0,2.0,15.0,7.0,0.0
9105,65.0,5.0,15.0,8.0,0.0
9106,75.0,0.0,180.0,7.0,0.0
9107,79.0,0.0,240.0,0.0,0.0
9108,79.0,2.0,180.0,7.0,0.0
9109,75.0,3.0,240.0,0.0,0.0
9110,70.0,0.0,180.0,7.0,0.0
9111,58.0,0.0,180.0,8.0,0.0
9112,63.0,1.0,180.0,8.0,0.0
9113,67.0,0.0,240.0,1.0,0.0
9114,67.0,13.0,180.0,8.0,0.0
9115,70.0,0.0,240.0,1.0,0.0
9116,63.0,1.0,240.0,4.0,0.0
9117,67.0,0.0,240.0,2.0,0.0
9118,58.0,3.0,240.0,2.0,0.0
9119,58.0,0.0,240.0,3.0,0.0
9120,51.0,0.0,240.0,3.0,0.0
9121,58.0,1.0,15.0,12.0,0.0
9122,46.0,5.0,15.0,13.0,0.0
9123,34.0,9.0,15.0,14.0,0.0
9124,56.0,1.0,15.0,12.0,0.0
9125,44.0,5.0,15.0,13.0,0.0
9126,32.0,9.0,15.0,14.0,0.0
9127,55.0,1.0,15.0,12.0,0.0
9128,43.0,5.0,15.0,13.0,0.0
9129,31.0,4.0,15.0,14.0,0.0
9130,53.0,1.0,15.0,12.0,0.0
9131,41.0,5.0,15.0,13.0,0.0
9132,29.0,45.0,15.0,14.0,0.0
9133,51.0,1.0,120.0,12.0,0.0
9134,39.0,5.0,120.0,13.0,0.0
9135,27.0,16.0,120.0,14.0,0.0
9136,70.0,2.0,15.0,7.0,0.0
9137,58.0,7.0,15.0,8.0,0.0
9138,72.0,3.0,15.0,7.0,0.0
9139,60.0,4.0,15.0,8.0,0.0
9140,74.0,4.0,15.0,7.0,0.0
9141,62.0,6.0,15.0,8.0,0.0
9142,75.0,2.0,15.0,7.0,0.0
9143,63.0,7.0,15.0,8.0,0.0
9144,77.0,2.0,15.0,7.0,0.0
9145,65.0,5.0,15.0,8.0,0.0
9146,79.0,3.0,15.0,7.0,0.0
9147,67.0,2.0,15.0,8.0,0.0
9148,80.0,1.0,15.0,7.0,0.0
9149,68.0,3.0,15.0,8.0,0.0
9150,82.0,4.0,30.0,7.0,0.0
9151,82.0,3.0,240.0,0.0,0.0
9152,79.0,0.0,240.0,0.0,0.0
9153,70.0,37.0,30.0,8.0,0.0
9154,75.0,0.0,240.0,1.0,0.0
9155,70.0,0.0,240.0,1.0,0.0
9156,63.0,2.0,240.0,4.0,0.0
9157,70.0,6.0,240.0,2.0,0.0
9158,67.0,0.0,240.0,2.0,0.0
9159,55.0,0.0,240.0,3.0,0.0
9160,51.0,80.0,240.0,3.0,0.0
9161,70.0,1.0,15.0,7.0,0.0
9162,58.0,7.0,15.0,8.0,0.0
9163,72.0,1.0,15.0,7.0,0.0
9164,60.0,6.0,15.0,8.0,0.0
9165,74.0,4.0,15.0,7.0,0.0
9166,62.0,6.0,15.0,8.0,0.0
9167,75.0,2.0,15.0,7.0,0.0
9168,63.0,5.0,15.0,8.0,0.0
9169,77.0,5.0,15.0,7.0,0.0
9170,65.0,4.0,15.0,8.0,0.0
9171,79.0,3.0,15.0,7.0,0.0
9172,67.0,5.0,15.0,8.0,0.0
9173,80.0,5.0,15.0,7.0,0.0
9174,68.0,27.0,15.0,8.0,0.0
9175,82.0,1.0,30.0,7.0,0.0
9176,70.0,37.0,30.0,8.0,0.0
9177,58.0,3.0,15.0,7.0,0.0
9178,46.0,4.0,15.0,8.0,0.0
9179,61.0,5.0,15.0,7.0,0.0
9180,49.0,4.0,15.0,8.0,0.0
9181,67.0,5.0,15.0,7.0,0.0
9182,55.0,5.0,15.0,8.0,0.0
9183,70.0,2.0,15.0,7.0,0.0
9184,58.0,19.0,15.0,8.0,0.0
9185,73.0,2.0,210.0,7.0,0.0
9186,61.0,1.0,210.0,8.0,0.0
9187,79.0,2.0,180.0,7.0,0.0
9188,67.0,1.0,180.0,8.0,0.0
9189,82.0,0.0,180.0,7.0,0.0
9190,70.0,1.0,180.0,8.0,0.0
9191,85.0,0.0,180.0,7.0,0.0
9192,58.0,3.0,180.0,4.0,0.0
9193,67.0,3.0,180.0,2.0,0.0
9194,70.0,0.0,180.0,2.0,0.0
9195,58.0,0.0,180.0,3.0,0.0
9196,55.0,20.0,180.0,3.0,0.0
9197,58.0,1.0,20.0,12.0,0.0
9198,46.0,5.0,20.0,13.0,0.0
9199,34.0,14.0,20.0,14.0,0.0
9200,55.0,1.0,20.0,12.0,0.0
9201,43.0,5.0,20.0,13.0,0.0
9202,31.0,14.0,20.0,14.0,0.0
9203,53.0,1.0,20.0,12.0,0.0
9204,41.0,5.0,20.0,13.0,0.0
9205,29.0,41.0,20.0,14.0,0.0
9206,52.0,1.0,180.0,12.0,0.0
9207,40.0,5.0,180.0,13.0,0.0
9208,28.0,10.0,180.0,14.0,0.0
9209,84.0,2.0,30.0,7.0,0.0
9210,81.0,4.0,30.0,7.0,0.0
9211,69.0,1.0,30.0,8.0,0.0
9212,72.0,2.0,30.0,8.0,0.0
9213,69.0,6.0,30.0,2.0,0.0
9214,72.0,0.0,30.0,2.0,0.0
9215,57.0,0.0,30.0,3.0,0.0
9216,60.0,45.0,30.0,3.0,0.0
9217,82.0,3.0,30.0,7.0,0.0
9218,79.0,2.0,30.0,7.0,0.0
9219,70.0,2.0,30.0,8.0,0.0
9220,67.0,2.0,30.0,8.0,0.0
9221,70.0,0.0,30.0,2.0,0.0
9222,73.0,6.0,30.0,2.0,0.0
9223,61.0,0.0,30.0,3.0,0.0
9224,58.0,20.0,30.0,3.0,0.0
9225,81.0,1.0,20.0,7.0,0.0
9226,77.0,3.0,20.0,7.0,0.0
9227,81.0,0.0,30.0,0.0,0.0
9228,84.0,3.0,30.0,0.0,0.0
9229,69.0,2.0,20.0,8.0,0.0
9230,65.0,7.0,20.0,8.0,0.0
9231,60.0,0.0,30.0,4.0,0.0
9232,72.0,2.0,30.0,1.0,0.0
9233,69.0,0.0,30.0,1.0,0.0
9234,72.0,3.0,30.0,2.0,0.0
9235,69.0,0.0,30.0,2.0,0.0
9236,53.0,1.0,60.0,12.0,0.0
9237,41.0,5.0,60.0,13.0,0.0
9238,60.0,16.0,30.0,3.0,0.0
9239,57.0,0.0,30.0,3.0,0.0
9240,29.0,74.0,60.0,14.0,0.0
9241,84.0,3.0,20.0,7.0,0.0
9242,72.0,0.0,20.0,8.0,0.0
9243,86.0,4.0,20.0,7.0,0.0
9244,74.0,5.0,20.0,8.0,0.0
9245,87.0,1.0,150.0,7.0,0.0
9246,84.0,4.0,150.0,7.0,0.0
9247,87.0,0.0,180.0,0.0,0.0
9248,81.0,3.0,180.0,0.0,0.0
9249,75.0,1.0,150.0,8.0,0.0
9250,69.0,0.0,180.0,1.0,0.0
9251,60.0,0.0,180.0,4.0,0.0
9252,63.0,0.0,180.0,4.0,0.0
9253,75.0,2.0,180.0,1.0,0.0
9254,72.0,22.0,150.0,8.0,0.0
9255,72.0,6.0,180.0,2.0,0.0
9256,69.0,0.0,180.0,2.0,0.0
9257,60.0,20.0,180.0,3.0,0.0
9258,57.0,0.0,180.0,3.0,0.0
9259,60.0,1.0,20.0,12.0,0.0
9260,48.0,5.0,20.0,13.0,0.0
9261,36.0,14.0,20.0,14.0,0.0
9262,57.0,1.0,20.0,12.0,0.0
9263,45.0,5.0,20.0,13.0,0.0
9264,33.0,14.0,20.0,14.0,0.0
9265,55.0,1.0,20.0,12.0,0.0
9266,43.0,5.0,20.0,13.0,0.0
9267,31.0,15.0,20.0,14.0,0.0
9268,54.0,1.0,180.0,12.0,0.0
9269,42.0,5.0,180.0,13.0,0.0
9270,30.0,11.0,180.0,14.0,0.0
9271,86.0,4.0,30.0,7.0,0.0
9272,83.0,3.0,30.0,7.0,0.0
9273,71.0,0.0,30.0,8.0,0.0
9274,74.0,2.0,30.0,8.0,0.0
9275,74.0,0.0,30.0,2.0,0.0
9276,71.0,6.0,30.0,2.0,0.0
9277,62.0,48.0,30.0,3.0,0.0
9278,59.0,0.0,30.0,3.0,0.0
9279,84.0,0.0,30.0,7.0,0.0
9280,72.0,1.0,30.0,8.0,0.0
9281,81.0,1.0,30.0,7.0,0.0
9282,69.0,4.0,30.0,8.0,0.0
9283,75.0,6.0,30.0,2.0,0.0
9284,72.0,0.0,30.0,2.0,0.0
9285,60.0,0.0,30.0,3.0,0.0
9286,63.0,20.0,30.0,3.0,0.0
9287,83.0,0.0,20.0,7.0,0.0
9288,79.0,4.0,20.0,7.0,0.0
9289,83.0,0.0,30.0,0.0,0.0
9290,86.0,3.0,30.0,0.0,0.0
9291,67.0,8.0,20.0,8.0,0.0
9292,71.0,0.0,20.0,8.0,0.0
9293,62.0,0.0,30.0,4.0,0.0
9294,74.0,2.0,30.0,1.0,0.0
9295,71.0,0.0,30.0,1.0,0.0
9296,71.0,2.0,30.0,2.0,0.0
9297,74.0,0.0,30.0,2.0,0.0
9298,55.0,1.0,60.0,12.0,0.0
9299,43.0,5.0,60.0,13.0,0.0
9300,62.0,0.0,30.0,3.0,0.0
9301,59.0,2.0,30.0,3.0,0.0
9302,31.0,16.0,60.0,14.0,0.0
9303,86.0,4.0,20.0,7.0,0.0
9304,74.0,15.0,20.0,8.0,0.0
9305,88.0,4.0,20.0,7.0,0.0
9306,76.0,4.0,20.0,8.0,0.0
9307,89.0,2.0,30.0,7.0,0.0
9308,83.0,0.0,30.0,0.0,0.0
9309,89.0,1.0,30.0,0.0,0.0
9310,86.0,0.0,30.0,7.0,0.0
9311,77.0,0.0,30.0,8.0,0.0
9312,65.0,2.0,30.0,8.0,0.0
9313,74.0,0.0,30.0,8.0,0.0
9314,62.0,0.0,30.0,4.0,0.0
9315,65.0,2.0,30.0,4.0,0.0
9316,77.0,0.0,30.0,1.0,0.0
9317,71.0,0.0,30.0,1.0,0.0
9318,74.0,6.0,30.0,2.0,0.0
9319,71.0,0.0,30.0,2.0,0.0
9320,59.0,0.0,30.0,3.0,0.0
9321,62.0,36.0,30.0,3.0,0.0
9322,83.0,4.0,20.0,7.0,0.0
9323,71.0,16.0,20.0,8.0,0.0
9324,55.0,1.0,60.0,12.0,0.0
9325,43.0,5.0,60.0,13.0,0.0
9326,31.0,14.0,60.0,14.0,0.0
9327,86.0,5.0,20.0,7.0,0.0
9328,74.0,15.0,20.0,8.0,0.0
9329,88.0,5.0,20.0,7.0,0.0
9330,76.0,4.0,20.0,8.0,0.0
9331,89.0,4.0,30.0,7.0,0.0
9332,89.0,0.0,30.0,0.0,0.0
9333,83.0,0.0,30.0,0.0,0.0
9334,86.0,2.0,30.0,7.0,0.0
9335,77.0,1.0,30.0,8.0,0.0
9336,65.0,2.0,30.0,4.0,0.0
9337,65.0,0.0,30.0,8.0,0.0
9338,77.0,0.0,30.0,1.0,0.0
9339,71.0,0.0,30.0,1.0,0.0
9340,62.0,0.0,30.0,4.0,0.0
9341,74.0,0.0,30.0,8.0,0.0
9342,74.0,0.0,30.0,2.0,0.0
9343,71.0,6.0,30.0,2.0,0.0
9344,56.0,1.0,60.0,12.0,0.0
9345,44.0,5.0,60.0,13.0,0.0
9346,59.0,0.0,30.0,3.0,0.0
9347,62.0,15.0,30.0,3.0,0.0
9348,32.0,14.0,60.0,14.0,0.0
9349,83.0,7.0,20.0,7.0,0.0
9350,71.0,15.0,20.0,8.0,0.0
9351,56.0,1.0,60.0,12.0,0.0
9352,44.0,5.0,60.0,13.0,0.0
9353,32.0,14.0,60.0,14.0,0.0
9354,86.0,4.0,20.0,7.0,0.0
9355,74.0,14.0,20.0,8.0,0.0
9356,88.0,7.0,20.0,7.0,0.0
9357,76.0,3.0,20.0,8.0,0.0
9358,89.0,2.0,30.0,7.0,0.0
9359,84.0,2.0,30.0,7.0,0.0
9360,89.0,0.0,30.0,0.0,0.0
9361,84.0,1.0,30.0,0.0,0.0
9362,72.0,2.0,30.0,8.0,0.0
9363,53.0,2.0,30.0,4.0,0.0
9364,77.0,0.0,30.0,8.0,0.0
9365,72.0,0.0,30.0,1.0,0.0
9366,77.0,0.0,30.0,1.0,0.0
9367,60.0,0.0,30.0,4.0,0.0
9368,75.0,0.0,30.0,2.0,0.0
9369,72.0,6.0,30.0,2.0,0.0
9370,57.0,1.0,60.0,12.0,0.0
9371,45.0,10.0,60.0,13.0,0.0
9372,63.0,0.0,30.0,3.0,0.0
9373,60.0,15.0,30.0,3.0,0.0
9374,33.0,20.0,60.0,14.0,0.0
9375,87.0,2.0,30.0,7.0,0.0
9376,84.0,1.0,30.0,7.0,0.0
9377,77.0,2.0,30.0,7.0,0.0
9378,65.0,1.0,30.0,8.0,0.0
9379,75.0,0.0,30.0,8.0,0.0
9380,72.0,2.0,30.0,8.0,0.0
9381,72.0,0.0,30.0,2.0,0.0
9382,65.0,1.0,30.0,2.0,0.0
9383,45.0,1.0,30.0,12.0,0.0
9384,33.0,4.0,30.0,13.0,0.0
9385,60.0,0.0,30.0,3.0,0.0
9386,53.0,45.0,30.0,3.0,0.0
9387,85.0,2.0,30.0,7.0,0.0
9388,77.0,1.0,30.0,7.0,0.0
9389,82.0,4.0,30.0,7.0,0.0
9390,73.0,0.0,30.0,8.0,0.0
9391,70.0,0.0,30.0,8.0,0.0
9392,65.0,2.0,30.0,8.0,0.0
9393,70.0,0.0,30.0,2.0,0.0
9394,73.0,1.0,30.0,2.0,0.0
9395,46.0,1.0,30.0,12.0,0.0
9396,34.0,4.0,30.0,13.0,0.0
9397,61.0,45.0,30.0,3.0,0.0
9398,58.0,0.0,30.0,3.0,0.0
9399,84.0,3.0,30.0,7.0,0.0
9400,81.0,0.0,30.0,7.0,0.0
9401,75.0,2.0,30.0,7.0,0.0
9402,72.0,1.0,30.0,8.0,0.0
9403,69.0,0.0,30.0,8.0,0.0
9404,63.0,3.0,30.0,8.0,0.0
9405,69.0,0.0,30.0,2.0,0.0
9406,63.0,1.0,30.0,2.0,0.0
9407,48.0,1.0,30.0,12.0,0.0
9408,36.0,4.0,30.0,13.0,0.0
9409,51.0,0.0,30.0,3.0,0.0
9410,57.0,45.0,30.0,3.0,0.0
9411,82.0,3.0,30.0,7.0,0.0
9412,73.0,0.0,30.0,7.0,0.0
9413,77.0,2.0,30.0,7.0,0.0
9414,65.0,2.0,30.0,8.0,0.0
9415,61.0,2.0,30.0,8.0,0.0
9416,70.0,0.0,30.0,8.0,0.0
9417,61.0,1.0,30.0,2.0,0.0
9418,70.0,0.0,30.0,2.0,0.0
9419,49.0,1.0,30.0,12.0,0.0
9420,37.0,4.0,30.0,13.0,0.0
9421,58.0,0.0,30.0,3.0,0.0
9422,49.0,47.0,30.0,3.0,0.0
9423,79.0,0.0,30.0,7.0,0.0
9424,84.0,2.0,30.0,7.0,0.0
9425,72.0,2.0,30.0,7.0,0.0
9426,67.0,1.0,30.0,8.0,0.0
9427,60.0,2.0,30.0,8.0,0.0
9428,60.0,1.0,30.0,2.0,0.0
9429,67.0,0.0,30.0,2.0,0.0
9430,52.0,1.0,30.0,12.0,0.0
9431,40.0,4.0,30.0,13.0,0.0
9432,55.0,0.0,30.0,3.0,0.0
9433,48.0,47.0,30.0,3.0,0.0
9434,81.0,1.0,30.0,7.0,0.0
9435,77.0,1.0,30.0,7.0,0.0
9436,72.0,1.0,30.0,7.0,0.0
9437,65.0,2.0,30.0,8.0,0.0
9438,69.0,2.0,30.0,8.0,0.0
9439,65.0,0.0,30.0,2.0,0.0
9440,69.0,1.0,30.0,2.0,0.0
9441,53.0,1.0,30.0,12.0,0.0
9442,41.0,4.0,30.0,13.0,0.0
9443,53.0,48.0,30.0,3.0,0.0
9444,57.0,0.0,30.0,3.0,0.0
9445,72.0,1.0,30.0,10.0,0.0
9446,84.0,0.0,30.0,0.0,0.0
9447,76.0,1.0,30.0,0.0,0.0
9448,64.0,2.0,30.0,11.0,0.0
9449,60.0,2.0,30.0,4.0,0.0
9450,64.0,0.0,30.0,1.0,0.0
9451,72.0,0.0,30.0,1.0,0.0
9452,67.0,1.0,30.0,2.0,0.0
9453,72.0,0.0,30.0,2.0,0.0
9454,60.0,1.0,30.0,12.0,0.0
9455,48.0,4.0,30.0,13.0,0.0
9456,60.0,0.0,30.0,3.0,0.0
9457,48.0,1.0,30.0,3.0,0.0
9458,36.0,47.0,30.0,14.0,0.0
9459,69.0,1.0,30.0,10.0,0.0
9460,77.0,1.0,30.0,0.0,0.0
9461,81.0,0.0,30.0,0.0,0.0
9462,65.0,1.0,30.0,11.0,0.0
9463,53.0,1.0,30.0,6.0,0.0
9464,65.0,0.0,30.0,6.0,0.0
9465,53.0,2.0,30.0,4.0,0.0
9466,60.0,0.0,30.0,4.0,0.0
9467,65.0,0.0,30.0,1.0,0.0
9468,72.0,0.0,30.0,1.0,0.0
9469,65.0,1.0,30.0,2.0,0.0
9470,69.0,0.0,30.0,2.0,0.0
9471,65.0,1.0,30.0,12.0,0.0
9472,53.0,4.0,30.0,13.0,0.0
9473,57.0,0.0,30.0,3.0,0.0
9474,53.0,1.0,30.0,3.0,0.0
9475,41.0,32.0,30.0,14.0,0.0
9476,41.0,15.0,60.0,15.0,0.0
9477,64.0,1.0,30.0,10.0,0.0
9478,72.0,0.0,30.0,0.0,0.0
9479,76.0,1.0,30.0,0.0,0.0
9480,60.0,2.0,30.0,11.0,0.0
9481,67.0,2.0,30.0,1.0,0.0
9482,76.0,0.0,30.0,1.0,0.0
9483,60.0,0.0,30.0,4.0,0.0
9484,64.0,1.0,30.0,2.0,0.0
9485,67.0,0.0,30.0,2.0,0.0
9486,60.0,1.0,30.0,12.0,0.0
9487,48.0,4.0,30.0,13.0,0.0
9488,48.0,0.0,30.0,3.0,0.0
9489,55.0,1.0,30.0,3.0,0.0
9490,36.0,47.0,30.0,14.0,0.0
9491,65.0,1.0,30.0,10.0,0.0
9492,77.0,1.0,30.0,0.0,0.0
9493,72.0,0.0,30.0,0.0,0.0
9494,60.0,1.0,30.0,11.0,0.0
9495,65.0,0.0,30.0,6.0,0.0
9496,53.0,1.0,30.0,6.0,0.0
9497,53.0,0.0,30.0,4.0,0.0
9498,60.0,0.0,30.0,4.0,0.0
9499,69.0,0.0,30.0,1.0,0.0
9500,77.0,2.0,30.0,1.0,0.0
9501,69.0,0.0,30.0,2.0,0.0
9502,65.0,1.0,30.0,2.0,0.0
9503,65.0,1.0,30.0,12.0,0.0
9504,53.0,4.0,30.0,13.0,0.0
9505,53.0,0.0,30.0,3.0,0.0
9506,41.0,1.0,30.0,3.0,0.0
9507,41.0,32.0,30.0,14.0,0.0
9508,41.0,21.0,60.0,15.0,0.0
9509,65.0,2.0,60.0,10.0,0.0
9510,53.0,5.0,60.0,11.0,0.0
9511,53.0,0.0,30.0,2.0,0.0
9512,65.0,6.0,30.0,2.0,0.0
9513,53.0,1.0,60.0,12.0,0.0
9514,41.0,5.0,60.0,13.0,0.0
9515,53.0,0.0,30.0,3.0,0.0
9516,41.0,18.0,30.0,3.0,0.0
9517,41.0,8.0,60.0,14.0,0.0
9518,58.0,21.0,120.0,7.0,0.0
9519,58.0,2.0,60.0,10.0,0.0
9520,49.0,0.0,120.0,7.0,0.0
9521,58.0,5.0,60.0,11.0,0.0
9522,34.0,15.0,20.0,8.0,0.0
9523,58.0,6.0,30.0,2.0,0.0
9524,46.0,1.0,60.0,12.0,0.0
9525,34.0,5.0,60.0,13.0,0.0
9526,46.0,9.0,30.0,3.0,0.0
9527,34.0,0.0,30.0,3.0,0.0
9528,34.0,8.0,60.0,14.0,0.0
9529,49.0,9.0,20.0,8.0,0.0
9530,46.0,30.0,20.0,8.0,0.0
9531,41.0,9.0,20.0,8.0,0.0
9532,60.0,0.0,60.0,7.0,0.0
9533,53.0,8.0,60.0,7.0,0.0
9534,37.0,30.0,20.0,8.0,0.0
9535,46.0,13.0,60.0,13.0,0.0
9536,49.0,9.0,20.0,8.0,0.0
9537,61.0,26.0,60.0,7.0,0.0
9538,58.0,0.0,60.0,7.0,0.0
9539,46.0,30.0,20.0,8.0,0.0
9540,41.0,4.0,20.0,8.0,0.0
9541,65.0,21.0,120.0,7.0,0.0
9542,32.0,30.0,20.0,8.0,0.0
9543,32.0,13.0,60.0,13.0,0.0
9544,53.0,17.0,20.0,8.0,0.0
9545,48.0,30.0,20.0,8.0,0.0
9546,44.0,9.0,20.0,8.0,0.0
9547,56.0,0.0,60.0,7.0,0.0
9548,60.0,0.0,15.0,7.0,0.0
9549,41.0,30.0,20.0,8.0,0.0
9550,44.0,13.0,60.0,13.0,0.0
9551,53.0,9.0,20.0,8.0,0.0
9552,56.0,0.0,60.0,7.0,0.0
9553,65.0,21.0,60.0,7.0,0.0
9554,60.0,0.0,60.0,7.0,0.0
9555,48.0,30.0,20.0,8.0,0.0
9556,44.0,9.0,20.0,8.0,0.0
9557,70.0,3.0,120.0,7.0,0.0
9558,65.0,0.0,120.0,7.0,0.0
9559,61.0,21.0,120.0,7.0,0.0
9560,31.0,30.0,20.0,8.0,0.0
9561,43.0,13.0,60.0,13.0,0.0
9562,58.0,17.0,20.0,8.0,0.0
9563,53.0,30.0,20.0,8.0,0.0
9564,49.0,6.0,20.0,8.0,0.0
9565,70.0,3.0,30.0,7.0,0.0
9566,64.0,0.0,30.0,7.0,0.0
9567,67.0,17.0,30.0,7.0,0.0
9568,36.0,10.0,20.0,8.0,0.0
9569,36.0,3.0,60.0,13.0,0.0
9570,58.0,17.0,20.0,8.0,0.0
9571,72.0,3.0,30.0,7.0,0.0
9572,64.0,7.0,30.0,7.0,0.0
9573,67.0,0.0,30.0,7.0,0.0
9574,52.0,30.0,20.0,8.0,0.0
9575,73.0,3.0,30.0,7.0,0.0
9576,64.0,27.0,30.0,7.0,0.0
9577,67.0,0.0,30.0,7.0,0.0
9578,48.0,0.0,20.0,8.0,0.0
9579,73.0,3.0,120.0,7.0,0.0
9580,70.0,8.0,120.0,7.0,0.0
9581,41.0,30.0,20.0,8.0,0.0
9582,41.0,13.0,60.0,13.0,0.0
9583,61.0,17.0,20.0,8.0,0.0
9584,53.0,30.0,20.0,8.0,0.0
9585,43.0,6.0,20.0,8.0,0.0
9586,43.0,13.0,30.0,13.0,0.0
9587,72.0,3.0,60.0,7.0,0.0
9588,65.0,0.0,15.0,7.0,0.0
9589,45.0,30.0,20.0,8.0,0.0
9590,45.0,13.0,60.0,13.0,0.0
9591,57.0,6.0,20.0,8.0,0.0
9592,53.0,30.0,20.0,8.0,0.0
9593,48.0,30.0,20.0,8.0,0.0
9594,61.0,0.0,120.0,7.0,0.0
9595,58.0,21.0,120.0,7.0,0.0
9596,46.0,30.0,20.0,8.0,0.0
9597,46.0,13.0,60.0,13.0,0.0
9598,58.0,17.0,20.0,8.0,0.0
9599,53.0,30.0,20.0,8.0,0.0
9600,49.0,9.0,20.0,8.0,0.0
9601,70.0,3.0,60.0,7.0,0.0
9602,65.0,0.0,60.0,7.0,0.0
9603,61.0,8.0,60.0,7.0,0.0
9604,44.0,30.0,20.0,8.0,0.0
9605,44.0,13.0,60.0,13.0,0.0
9606,61.0,6.0,20.0,8.0,0.0
9607,73.0,3.0,60.0,7.0,0.0
9608,70.0,0.0,60.0,7.0,0.0
9609,65.0,21.0,60.0,7.0,0.0
9610,58.0,30.0,20.0,8.0,0.0
9611,53.0,6.0,20.0,8.0,0.0
9612,70.0,21.0,120.0,7.0,0.0
9613,43.0,30.0,20.0,8.0,0.0
9614,43.0,13.0,60.0,13.0,0.0
9615,61.0,17.0,20.0,8.0,0.0
9616,58.0,30.0,20.0,8.0,0.0
9617,53.0,9.0,20.0,8.0,0.0
9618,68.0,0.0,120.0,7.0,0.0
9619,41.0,30.0,20.0,8.0,0.0
9620,41.0,13.0,60.0,13.0,0.0
9621,61.0,7.0,20.0,8.0,0.0
9622,77.0,2.0,15.0,7.0,0.0
9623,73.0,8.0,15.0,7.0,0.0
9624,65.0,0.0,15.0,7.0,0.0
9625,56.0,30.0,20.0,8.0,0.0
9626,53.0,7.0,20.0,8.0,0.0
9627,79.0,2.0,90.0,7.0,0.0
9628,75.0,12.0,90.0,7.0,0.0
9629,67.0,0.0,90.0,7.0,0.0
9630,40.0,30.0,20.0,8.0,0.0
9631,40.0,13.0,60.0,13.0,0.0
9632,60.0,17.0,20.0,8.0,0.0
9633,55.0,7.0,20.0,8.0,0.0
9634,80.0,9.0,15.0,7.0,0.0
9635,52.0,6.0,20.0,8.0,0.0
9636,79.0,24.0,15.0,7.0,0.0
9637,77.0,10.0,60.0,7.0,0.0
9638,60.0,21.0,120.0,10.0,0.0
9639,36.0,30.0,20.0,8.0,0.0
9640,36.0,13.0,60.0,13.0,0.0
9641,60.0,7.0,20.0,8.0,0.0
9642,79.0,2.0,60.0,7.0,0.0
9643,67.0,0.0,60.0,7.0,0.0
9644,72.0,0.0,60.0,7.0,0.0
9645,55.0,30.0,20.0,8.0,0.0
9646,51.0,7.0,20.0,8.0,0.0
9647,80.0,4.0,120.0,7.0,0.0
9648,68.0,0.0,120.0,7.0,0.0
9649,68.0,2.0,120.0,10.0,0.0
9650,77.0,0.0,120.0,7.0,0.0
9651,65.0,16.0,120.0,11.0,0.0
9652,29.0,27.0,20.0,8.0,0.0
9653,41.0,5.0,60.0,13.0,0.0
9654,29.0,5.0,60.0,14.0,0.0
9655,60.0,20.0,15.0,8.0,0.0
9656,56.0,30.0,15.0,8.0,0.0
9657,53.0,8.0,15.0,8.0,0.0
9658,78.0,2.0,120.0,7.0,0.0
9659,66.0,0.0,120.0,7.0,0.0
9660,72.0,0.0,15.0,7.0,0.0
9661,75.0,0.0,120.0,7.0,0.0
9662,66.0,0.0,120.0,10.0,0.0
9663,63.0,5.0,120.0,11.0,0.0
9664,29.0,30.0,15.0,8.0,0.0
9665,44.0,5.0,60.0,13.0,0.0
9666,32.0,5.0,60.0,14.0,0.0
9667,60.0,20.0,15.0,8.0,0.0
9668,56.0,30.0,15.0,8.0,0.0
9669,53.0,10.0,15.0,8.0,0.0
9670,77.0,2.0,120.0,7.0,0.0
9671,65.0,0.0,120.0,10.0,0.0
9672,73.0,0.0,120.0,7.0,0.0
9673,65.0,0.0,120.0,7.0,0.0
9674,68.0,2.0,120.0,7.0,0.0
9675,61.0,5.0,120.0,11.0,0.0
9676,37.0,30.0,15.0,8.0,0.0
9677,60.0,11.0,15.0,12.0,0.0
9678,49.0,5.0,60.0,13.0,0.0
9679,37.0,5.0,60.0,14.0,0.0
9680,61.0,20.0,15.0,8.0,0.0
9681,56.0,30.0,15.0,8.0,0.0
9682,53.0,10.0,15.0,8.0,0.0
9683,75.0,2.0,120.0,7.0,0.0
9684,69.0,0.0,120.0,7.0,0.0
9685,63.0,0.0,120.0,7.0,0.0
9686,63.0,0.0,120.0,10.0,0.0
9687,60.0,16.0,240.0,11.0,0.0
9688,41.0,30.0,15.0,8.0,0.0
9689,61.0,11.0,120.0,12.0,0.0
9690,53.0,5.0,60.0,13.0,0.0
9691,41.0,5.0,60.0,14.0,0.0
9692,60.0,20.0,15.0,8.0,0.0
9693,57.0,30.0,15.0,8.0,0.0
9694,53.0,10.0,15.0,8.0,0.0
9695,74.0,2.0,120.0,7.0,0.0
9696,65.0,0.0,15.0,7.0,0.0
9697,62.0,0.0,120.0,7.0,0.0
9698,72.0,7.0,15.0,7.0,0.0
9699,62.0,2.0,120.0,10.0,0.0
9700,34.0,30.0,15.0,8.0,0.0
9701,53.0,11.0,240.0,12.0,0.0
9702,46.0,5.0,60.0,13.0,0.0
9703,34.0,5.0,60.0,14.0,0.0
9704,60.0,20.0,15.0,8.0,0.0
9705,53.0,30.0,15.0,8.0,0.0
9706,50.0,10.0,15.0,8.0,0.0
9707,73.0,2.0,120.0,7.0,0.0
9708,65.0,0.0,15.0,7.0,0.0
9709,70.0,2.0,120.0,7.0,0.0
9710,61.0,0.0,120.0,7.0,0.0
9711,61.0,0.0,120.0,10.0,0.0
9712,58.0,5.0,120.0,11.0,0.0
9713,37.0,30.0,15.0,8.0,0.0
9714,37.0,5.0,60.0,13.0,0.0
9715,25.0,5.0,60.0,14.0,0.0
9716,58.0,20.0,15.0,8.0,0.0
9717,53.0,30.0,15.0,8.0,0.0
9718,49.0,10.0,15.0,8.0,0.0
9719,71.0,2.0,120.0,7.0,0.0
9720,59.0,2.0,120.0,7.0,0.0
9721,63.0,0.0,120.0,7.0,0.0
9722,66.0,0.0,120.0,7.0,0.0
9723,59.0,0.0,120.0,10.0,0.0
9724,54.0,5.0,120.0,11.0,0.0
9725,39.0,30.0,15.0,8.0,0.0
9726,51.0,11.0,120.0,12.0,0.0
9727,39.0,5.0,60.0,13.0,0.0
9728,27.0,5.0,60.0,14.0,0.0
9729,54.0,20.0,15.0,8.0,0.0
9730,51.0,30.0,15.0,8.0,0.0
9731,47.0,10.0,15.0,8.0,0.0
9732,70.0,2.0,120.0,7.0,0.0
9733,67.0,0.0,120.0,7.0,0.0
9734,61.0,0.0,120.0,7.0,0.0
9735,58.0,2.0,120.0,7.0,0.0
9736,58.0,0.0,120.0,10.0,0.0
9737,55.0,5.0,120.0,11.0,0.0
9738,40.0,30.0,15.0,8.0,0.0
9739,52.0,11.0,120.0,12.0,0.0
9740,40.0,5.0,60.0,13.0,0.0
9741,28.0,5.0,60.0,14.0,0.0
9742,55.0,20.0,15.0,8.0,0.0
9743,49.0,30.0,15.0,8.0,0.0
9744,46.0,10.0,15.0,8.0,0.0
9745,57.0,0.0,120.0,7.0,0.0
9746,60.0,0.0,120.0,7.0,0.0
9747,65.0,2.0,120.0,7.0,0.0
9748,69.0,0.0,120.0,7.0,0.0
9749,57.0,0.0,120.0,10.0,0.0
9750,53.0,5.0,120.0,11.0,0.0
9751,41.0,30.0,15.0,8.0,0.0
9752,53.0,48.0,120.0,12.0,0.0
9753,41.0,5.0,60.0,13.0,0.0
9754,29.0,5.0,60.0,14.0,0.0
9755,53.0,20.0,15.0,8.0,0.0
9756,48.0,30.0,15.0,8.0,0.0
9757,45.0,12.0,15.0,8.0,0.0
9758,41.0,35.0,60.0,8.0,0.0
9759,53.0,25.0,30.0,7.0,0.0
9760,41.0,5.0,60.0,8.0,0.0
9761,29.0,0.0,60.0,8.0,0.0
9762,65.0,30.0,30.0,7.0,0.0
9763,63.0,30.0,30.0,7.0,0.0
9764,63.0,0.0,120.0,10.0,0.0
9765,60.0,1.0,120.0,11.0,0.0
9766,51.0,27.0,60.0,8.0,0.0
9767,39.0,0.0,60.0,8.0,0.0
9768,57.0,1.0,120.0,12.0,0.0
9769,53.0,22.0,120.0,13.0,0.0
9770,75.0,3.0,30.0,7.0,0.0
9771,60.0,30.0,30.0,7.0,0.0
9772,36.0,4.0,60.0,8.0,0.0
9773,48.0,0.0,60.0,8.0,0.0
9774,72.0,2.0,30.0,7.0,0.0
9775,57.0,25.0,30.0,7.0,0.0
9776,33.0,0.0,60.0,8.0,0.0
9777,45.0,35.0,60.0,8.0,0.0
9778,69.0,0.0,30.0,7.0,0.0
9779,53.0,25.0,30.0,7.0,0.0
9780,41.0,0.0,60.0,8.0,0.0
9781,29.0,5.0,60.0,8.0,0.0
9782,65.0,30.0,30.0,7.0,0.0
9783,61.0,2.0,120.0,10.0,0.0
9784,65.0,30.0,30.0,7.0,0.0
9785,61.0,1.0,120.0,11.0,0.0
9786,53.0,0.0,60.0,8.0,0.0
9787,41.0,27.0,60.0,8.0,0.0
9788,58.0,1.0,120.0,12.0,0.0
9789,53.0,22.0,120.0,13.0,0.0
9790,77.0,3.0,30.0,7.0,0.0
9791,61.0,30.0,30.0,7.0,0.0
9792,49.0,4.0,60.0,8.0,0.0
9793,37.0,0.0,60.0,8.0,0.0
9794,73.0,0.0,30.0,7.0,0.0
9795,58.0,25.0,30.0,7.0,0.0
9796,34.0,0.0,60.0,8.0,0.0
9797,46.0,0.0,60.0,8.0,0.0
9798,70.0,35.0,30.0,7.0,0.0
9799,53.0,25.0,30.0,7.0,0.0
9800,29.0,0.0,60.0,8.0,0.0
9801,41.0,5.0,60.0,8.0,0.0
9802,65.0,30.0,30.0,7.0,0.0
9803,61.0,2.0,120.0,10.0,0.0
9804,67.0,30.0,30.0,7.0,0.0
9805,58.0,1.0,120.0,11.0,0.0
9806,43.0,0.0,60.0,8.0,0.0
9807,55.0,27.0,60.0,8.0,0.0
9808,58.0,1.0,120.0,12.0,0.0
9809,53.0,22.0,120.0,13.0,0.0
9810,79.0,3.0,30.0,7.0,0.0
9811,61.0,30.0,30.0,7.0,0.0
9812,49.0,0.0,60.0,8.0,0.0
9813,37.0,4.0,60.0,8.0,0.0
9814,73.0,0.0,30.0,7.0,0.0
9815,58.0,25.0,30.0,7.0,0.0
9816,46.0,0.0,60.0,8.0,0.0
9817,34.0,0.0,60.0,8.0,0.0
9818,70.0,35.0,30.0,7.0,0.0
9819,53.0,25.0,30.0,7.0,0.0
9820,41.0,5.0,60.0,8.0,0.0
9821,29.0,0.0,60.0,8.0,0.0
9822,65.0,30.0,30.0,7.0,0.0
9823,60.0,0.0,60.0,10.0,0.0
9824,69.0,25.0,30.0,7.0,0.0
9825,65.0,2.0,60.0,10.0,0.0
9826,60.0,5.0,60.0,11.0,0.0
9827,45.0,0.0,60.0,8.0,0.0
9828,57.0,5.0,60.0,8.0,0.0
9829,53.0,1.0,60.0,12.0,0.0
9830,53.0,22.0,60.0,13.0,0.0
9831,81.0,0.0,30.0,7.0,0.0
9832,53.0,25.0,30.0,7.0,0.0
9833,29.0,0.0,60.0,8.0,0.0
9834,41.0,5.0,60.0,8.0,0.0
9835,65.0,30.0,30.0,7.0,0.0
9836,72.0,2.0,60.0,10.0,0.0
9837,72.0,25.0,30.0,7.0,0.0
9838,69.0,5.0,60.0,11.0,0.0
9839,60.0,0.0,60.0,8.0,0.0
9840,48.0,5.0,60.0,8.0,0.0
9841,60.0,1.0,60.0,12.0,0.0
9842,41.0,22.0,60.0,13.0,0.0
9843,84.0,0.0,30.0,7.0,0.0
9844,53.0,25.0,30.0,7.0,0.0
9845,29.0,5.0,60.0,8.0,0.0
9846,41.0,0.0,60.0,8.0,0.0
9847,65.0,30.0,30.0,7.0,0.0
9848,75.0,25.0,30.0,7.0,0.0
9849,72.0,0.0,60.0,10.0,0.0
9850,69.0,5.0,60.0,11.0,0.0
9851,51.0,0.0,60.0,8.0,0.0
9852,63.0,5.0,60.0,8.0,0.0
9853,63.0,1.0,60.0,12.0,0.0
9854,41.0,22.0,60.0,13.0,0.0
9855,87.0,2.0,30.0,7.0,0.0
9856,53.0,25.0,30.0,7.0,0.0
9857,29.0,5.0,60.0,8.0,0.0
9858,41.0,0.0,60.0,8.0,0.0
9859,65.0,30.0,30.0,7.0,0.0
9860,76.0,25.0,30.0,7.0,0.0
9861,70.0,0.0,60.0,10.0,0.0
9862,67.0,5.0,60.0,11.0,0.0
9863,52.0,0.0,60.0,8.0,0.0
9864,64.0,5.0,60.0,8.0,0.0
9865,61.0,1.0,60.0,12.0,0.0
9866,41.0,22.0,60.0,13.0,0.0
9867,88.0,2.0,30.0,7.0,0.0
9868,53.0,25.0,30.0,7.0,0.0
9869,41.0,5.0,60.0,8.0,0.0
9870,29.0,0.0,60.0,8.0,0.0
9871,65.0,30.0,30.0,7.0,0.0
9872,77.0,25.0,30.0,7.0,0.0
9873,69.0,0.0,60.0,10.0,0.0
9874,65.0,5.0,60.0,11.0,0.0
9875,53.0,5.0,60.0,8.0,0.0
9876,65.0,0.0,60.0,8.0,0.0
9877,60.0,1.0,60.0,12.0,0.0
9878,41.0,22.0,60.0,13.0,0.0
9879,89.0,2.0,30.0,7.0,0.0
9880,53.0,3.0,30.0,7.0,0.0
9881,29.0,27.0,30.0,8.0,0.0
9882,65.0,3.0,30.0,7.0,0.0
9883,41.0,27.0,30.0,8.0,0.0
9884,78.0,3.0,30.0,7.0,0.0
9885,54.0,27.0,30.0,8.0,0.0
9886,90.0,3.0,30.0,7.0,0.0
9887,66.0,27.0,30.0,8.0,0.0
9888,75.0,3.0,30.0,7.0,0.0
9889,51.0,22.0,30.0,8.0,0.0
9890,87.0,3.0,30.0,7.0,0.0
9891,63.0,32.0,30.0,8.0,0.0
9892,72.0,3.0,30.0,7.0,0.0
9893,48.0,27.0,30.0,8.0,0.0
9894,84.0,3.0,30.0,7.0,0.0
9895,60.0,27.0,30.0,8.0,0.0
9896,69.0,3.0,30.0,7.0,0.0
9897,45.0,27.0,30.0,8.0,0.0
9898,81.0,3.0,30.0,7.0,0.0
9899,57.0,27.0,30.0,8.0,0.0
9900,66.0,3.0,30.0,7.0,0.0
9901,42.0,27.0,30.0,8.0,0.0
9902,78.0,3.0,30.0,7.0,0.0
9903,54.0,27.0,30.0,8.0,0.0
9904,63.0,3.0,30.0,7.0,0.0
9905,39.0,22.0,30.0,8.0,0.0
9906,75.0,3.0,30.0,7.0,0.0
9907,51.0,32.0,30.0,8.0,0.0
9908,61.0,3.0,30.0,7.0,0.0
9909,40.0,27.0,30.0,8.0,0.0
9910,73.0,3.0,30.0,7.0,0.0
9911,52.0,27.0,30.0,8.0,0.0
9912,58.0,3.0,30.0,7.0,0.0
9913,37.0,27.0,30.0,8.0,0.0
9914,70.0,3.0,30.0,7.0,0.0
9915,49.0,27.0,30.0,8.0,0.0
9916,55.0,3.0,30.0,7.0,0.0
9917,34.0,27.0,30.0,8.0,0.0
9918,67.0,3.0,30.0,7.0,0.0
9919,46.0,27.0,30.0,8.0,0.0
9920,52.0,3.0,30.0,7.0,0.0
9921,31.0,22.0,30.0,8.0,0.0
9922,64.0,3.0,30.0,7.0,0.0
9923,43.0,32.0,30.0,8.0,0.0
9924,53.0,3.0,30.0,7.0,0.0
9925,33.0,27.0,30.0,8.0,0.0
9926,65.0,3.0,30.0,7.0,0.0
9927,45.0,27.0,30.0,8.0,0.0
9928,48.0,3.0,30.0,7.0,0.0
9929,29.0,27.0,30.0,8.0,0.0
9930,60.0,3.0,30.0,7.0,0.0
9931,41.0,27.0,30.0,8.0,0.0
9932,45.0,3.0,30.0,7.0,0.0
9933,24.0,27.0,30.0,8.0,0.0
9934,57.0,3.0,30.0,7.0,0.0
9935,36.0,27.0,30.0,8.0,0.0
9936,41.0,3.0,30.0,7.0,0.0
9937,21.0,27.0,30.0,8.0,0.0
9938,53.0,3.0,30.0,7.0,0.0
9939,33.0,17.0,30.0,8.0,0.0
9940,59.0,15.0,20.0,10.0,0.0
9941,53.0,1.0,30.0,12.0,0.0
9942,65.0,3.0,20.0,10.0,0.0
9943,41.0,2.0,15.0,15.0,0.0
9944,47.0,1.0,30.0,12.0,0.0
9945,45.0,2.0,15.0,13.0,0.0
9946,59.0,7.0,20.0,10.0,0.0
9947,33.0,12.0,15.0,14.0,0.0
9948,65.0,15.0,20.0,10.0,0.0
9949,53.0,1.0,30.0,12.0,0.0
9950,41.0,5.0,15.0,15.0,0.0
9951,59.0,3.0,20.0,10.0,0.0
9952,41.0,5.0,20.0,15.0,0.0
9953,47.0,1.0,30.0,12.0,0.0
9954,45.0,2.0,15.0,13.0,0.0
9955,65.0,7.0,20.0,10.0,0.0
9956,33.0,12.0,15.0,14.0,0.0
9957,59.0,15.0,20.0,10.0,0.0
9958,53.0,1.0,30.0,12.0,0.0
9959,33.0,12.0,30.0,14.0,0.0
9960,41.0,5.0,15.0,15.0,0.0
9961,65.0,3.0,20.0,10.0,0.0
9962,41.0,5.0,20.0,15.0,0.0
9963,47.0,1.0,30.0,12.0,0.0
9964,45.0,2.0,15.0,13.0,0.0
9965,59.0,7.0,20.0,10.0,0.0
9966,33.0,2.0,30.0,14.0,0.0
9967,41.0,5.0,20.0,15.0,0.0
9968,65.0,15.0,20.0,10.0,0.0
9969,53.0,1.0,30.0,12.0,0.0
9970,45.0,5.0,15.0,13.0,0.0
9971,33.0,12.0,30.0,14.0,0.0
9972,59.0,3.0,20.0,10.0,0.0
9973,41.0,2.0,15.0,15.0,0.0
9974,47.0,6.0,30.0,12.0,0.0
9975,45.0,5.0,30.0,13.0,0.0
9976,65.0,0.0,15.0,10.0,0.0
9977,33.0,2.0,30.0,14.0,0.0
9978,41.0,7.0,15.0,15.0,0.0
9979,58.0,2.0,20.0,10.0,0.0
9980,65.0,13.0,20.0,11.0,0.0
9981,46.0,2.0,240.0,5.0,0.0
9982,46.0,1.0,30.0,12.0,0.0
9983,46.0,0.0,30.0,3.0,0.0
9984,32.0,12.0,30.0,14.0,0.0
9985,46.0,2.0,20.0,15.0,0.0
9986,70.0,2.0,20.0,10.0,0.0
9987,58.0,1.0,20.0,11.0,0.0
9988,46.0,5.0,20.0,15.0,0.0
9989,44.0,2.0,15.0,13.0,0.0
9990,58.0,2.0,20.0,10.0,0.0
9991,65.0,6.0,20.0,11.0,0.0
9992,32.0,2.0,30.0,14.0,0.0
9993,46.0,5.0,20.0,15.0,0.0
9994,70.0,2.0,20.0,10.0,0.0
9995,58.0,13.0,20.0,11.0,0.0
9996,51.0,3.0,120.0,12.0,0.0
9997,44.0,2.0,30.0,13.0,0.0
9998,51.0,0.0,120.0,3.0,0.0
9999,32.0,12.0,30.0,14.0,0.0
10000,46.0,3.0,20.0,15.0,0.0
10001,58.0,2.0,20.0,10.0,0.0
10002,65.0,1.0,20.0,11.0,0.0
10003,70.0,2.0,20.0,10.0,0.0
10004,58.0,6.0,20.0,11.0,0.0
10005,32.0,2.0,30.0,14.0,0.0
10006,46.0,5.0,15.0,15.0,0.0
10007,58.0,2.0,20.0,10.0,0.0
10008,65.0,13.0,20.0,11.0,0.0
10009,44.0,5.0,15.0,13.0,0.0
10010,46.0,5.0,15.0,15.0,0.0
10011,70.0,2.0,20.0,10.0,0.0
10012,58.0,1.0,20.0,11.0,0.0
10013,46.0,2.0,20.0,15.0,0.0
10014,44.0,2.0,15.0,13.0,0.0
10015,58.0,2.0,20.0,10.0,0.0
10016,65.0,6.0,20.0,11.0,0.0
10017,32.0,12.0,15.0,14.0,0.0
10018,46.0,5.0,20.0,15.0,0.0
10019,70.0,2.0,20.0,10.0,0.0
10020,58.0,13.0,20.0,11.0,0.0
10021,53.0,1.0,30.0,12.0,0.0
10022,53.0,0.0,30.0,3.0,0.0
10023,32.0,2.0,15.0,14.0,0.0
10024,58.0,2.0,20.0,10.0,0.0
10025,65.0,1.0,20.0,11.0,0.0
10026,46.0,2.0,15.0,15.0,0.0
10027,44.0,2.0,15.0,13.0,0.0
10028,70.0,0.0,15.0,10.0,0.0
10029,58.0,9.0,15.0,11.0,0.0
10030,32.0,12.0,15.0,14.0,0.0
10031,46.0,2.0,15.0,15.0,0.0
10032,70.0,2.0,20.0,10.0,0.0
10033,70.0,10.0,20.0,11.0,0.0
10034,58.0,2.0,240.0,5.0,0.0
10035,58.0,1.0,30.0,12.0,0.0
10036,46.0,0.0,30.0,12.0,0.0
10037,42.0,2.0,30.0,13.0,0.0
10038,58.0,3.0,480.0,3.0,0.0
10039,30.0,2.0,30.0,14.0,0.0
10040,46.0,3.0,20.0,15.0,0.0
10041,77.0,2.0,20.0,10.0,0.0
10042,65.0,13.0,20.0,11.0,0.0
10043,46.0,5.0,20.0,15.0,0.0
10044,58.0,0.0,30.0,12.0,0.0
10045,46.0,0.0,30.0,12.0,0.0
10046,42.0,5.0,30.0,13.0,0.0
10047,70.0,2.0,20.0,10.0,0.0
10048,70.0,1.0,20.0,11.0,0.0
10049,30.0,7.0,30.0,14.0,0.0
10050,77.0,2.0,20.0,10.0,0.0
10051,65.0,10.0,20.0,11.0,0.0
10052,58.0,0.0,30.0,12.0,0.0
10053,46.0,1.0,30.0,12.0,0.0
10054,42.0,2.0,30.0,13.0,0.0
10055,30.0,2.0,30.0,14.0,0.0
10056,46.0,5.0,15.0,15.0,0.0
10057,70.0,2.0,20.0,10.0,0.0
10058,70.0,13.0,20.0,11.0,0.0
10059,46.0,3.0,15.0,15.0,0.0
10060,58.0,0.0,30.0,12.0,0.0
10061,46.0,1.0,30.0,12.0,0.0
10062,42.0,5.0,30.0,13.0,0.0
10063,77.0,2.0,20.0,10.0,0.0
10064,65.0,0.0,20.0,11.0,0.0
10065,30.0,7.0,30.0,14.0,0.0
10066,46.0,5.0,20.0,15.0,0.0
10067,70.0,2.0,20.0,10.0,0.0
10068,70.0,10.0,20.0,11.0,0.0
10069,58.0,1.0,30.0,12.0,0.0
10070,46.0,0.0,30.0,12.0,0.0
10071,42.0,2.0,30.0,13.0,0.0
10072,30.0,2.0,30.0,14.0,0.0
10073,77.0,2.0,20.0,10.0,0.0
10074,65.0,13.0,20.0,11.0,0.0
10075,46.0,3.0,15.0,15.0,0.0
10076,58.0,0.0,30.0,12.0,0.0
10077,46.0,1.0,30.0,12.0,0.0
10078,42.0,5.0,30.0,13.0,0.0
10079,70.0,2.0,20.0,10.0,0.0
10080,70.0,0.0,20.0,11.0,0.0
10081,30.0,7.0,30.0,14.0,0.0
10082,46.0,5.0,15.0,15.0,0.0
10083,77.0,2.0,20.0,10.0,0.0
10084,65.0,10.0,20.0,11.0,0.0
10085,58.0,1.0,30.0,12.0,0.0
10086,46.0,0.0,30.0,12.0,0.0
10087,42.0,2.0,30.0,13.0,0.0
10088,30.0,2.0,30.0,14.0,0.0
10089,46.0,3.0,20.0,15.0,0.0
10090,70.0,2.0,20.0,10.0,0.0
10091,70.0,13.0,20.0,11.0,0.0
10092,46.0,0.0,20.0,15.0,0.0
10093,46.0,0.0,30.0,12.0,0.0
10094,58.0,1.0,30.0,12.0,0.0
10095,42.0,3.0,30.0,13.0,0.0
10096,77.0,2.0,15.0,10.0,0.0
10097,65.0,5.0,15.0,11.0,0.0
10098,30.0,7.0,30.0,14.0,0.0
10099,70.0,2.0,20.0,10.0,0.0
10100,70.0,2.0,30.0,0.0,0.0
10101,77.0,9.0,20.0,11.0,0.0
10102,70.0,0.0,30.0,1.0,0.0
10103,58.0,0.0,30.0,1.0,0.0
10104,58.0,1.0,30.0,4.0,0.0
10105,58.0,1.0,30.0,12.0,0.0
10106,41.0,1.0,30.0,13.0,0.0
10107,29.0,2.0,30.0,14.0,0.0
10108,46.0,5.0,15.0,15.0,0.0
10109,82.0,2.0,20.0,10.0,0.0
10110,70.0,13.0,20.0,11.0,0.0
10111,63.0,1.0,30.0,12.0,0.0
10112,41.0,4.0,30.0,13.0,0.0
10113,70.0,2.0,20.0,10.0,0.0
10114,77.0,1.0,20.0,11.0,0.0
10115,29.0,7.0,30.0,14.0,0.0
10116,46.0,5.0,15.0,15.0,0.0
10117,82.0,2.0,20.0,10.0,0.0
10118,75.0,3.0,120.0,0.0,0.0
10119,70.0,11.0,20.0,11.0,0.0
10120,63.0,0.0,120.0,1.0,0.0
10121,63.0,1.0,120.0,4.0,0.0
10122,75.0,0.0,120.0,1.0,0.0
10123,58.0,1.0,30.0,12.0,0.0
10124,41.0,2.0,30.0,13.0,0.0
10125,29.0,2.0,30.0,14.0,0.0
10126,46.0,5.0,15.0,15.0,0.0
10127,70.0,2.0,20.0,10.0,0.0
10128,77.0,13.0,20.0,11.0,0.0
10129,46.0,2.0,15.0,15.0,0.0
10130,63.0,1.0,30.0,12.0,0.0
10131,41.0,4.0,30.0,13.0,0.0
10132,82.0,2.0,20.0,10.0,0.0
10133,70.0,1.0,20.0,11.0,0.0
10134,29.0,7.0,30.0,14.0,0.0
10135,46.0,5.0,15.0,15.0,0.0
10136,70.0,2.0,20.0,10.0,0.0
10137,77.0,11.0,20.0,11.0,0.0
10138,58.0,1.0,30.0,12.0,0.0
10139,41.0,2.0,30.0,13.0,0.0
10140,29.0,2.0,30.0,14.0,0.0
10141,46.0,5.0,15.0,15.0,0.0
10142,82.0,2.0,20.0,10.0,0.0
10143,70.0,9.0,20.0,11.0,0.0
10144,46.0,5.0,20.0,15.0,0.0
10145,63.0,1.0,30.0,12.0,0.0
10146,41.0,4.0,30.0,13.0,0.0
10147,70.0,2.0,20.0,10.0,0.0
10148,77.0,1.0,20.0,11.0,0.0
10149,29.0,7.0,30.0,14.0,0.0
10150,46.0,5.0,20.0,15.0,0.0
10151,82.0,2.0,20.0,10.0,0.0
10152,77.0,2.0,30.0,0.0,0.0
10153,70.0,9.0,20.0,11.0,0.0
10154,65.0,0.0,30.0,4.0,0.0
10155,65.0,1.0,30.0,1.0,0.0
10156,77.0,0.0,30.0,1.0,0.0
10157,58.0,1.0,30.0,12.0,0.0
10158,41.0,1.0,30.0,13.0,0.0
10159,29.0,2.0,30.0,14.0,0.0
10160,46.0,2.0,20.0,15.0,0.0
10161,70.0,2.0,20.0,10.0,0.0
10162,77.0,13.0,20.0,11.0,0.0
10163,63.0,1.0,30.0,12.0,0.0
10164,41.0,0.0,30.0,13.0,0.0
10165,82.0,0.0,15.0,10.0,0.0
10166,70.0,5.0,15.0,11.0,0.0
10167,29.0,4.0,30.0,14.0,0.0
10168,46.0,2.0,15.0,15.0,0.0
10169,70.0,0.0,90.0,10.0,0.0
10170,82.0,1.0,90.0,10.0,0.0
10171,82.0,1.0,90.0,0.0,0.0
10172,70.0,2.0,90.0,11.0,0.0
10173,73.0,0.0,90.0,11.0,0.0
10174,58.0,3.0,15.0,6.0,0.0
10175,70.0,0.0,210.0,6.0,0.0
10176,58.0,0.0,210.0,4.0,0.0
10177,82.0,2.0,90.0,1.0,0.0
10178,70.0,0.0,90.0,1.0,0.0
10179,70.0,2.0,210.0,4.0,0.0
10180,70.0,2.0,15.0,2.0,0.0
10181,73.0,0.0,90.0,2.0,0.0
10182,61.0,0.0,90.0,12.0,0.0
10183,55.0,1.0,90.0,12.0,0.0
10184,40.0,4.0,90.0,13.0,0.0
10185,61.0,0.0,90.0,3.0,0.0
10186,58.0,1.0,90.0,3.0,0.0
10187,28.0,32.0,90.0,14.0,0.0
10188,46.0,75.0,15.0,15.0,0.0
10189,85.0,1.0,90.0,10.0,0.0
10190,73.0,0.0,90.0,10.0,0.0
10191,85.0,1.0,90.0,0.0,0.0
10192,73.0,0.0,90.0,11.0,0.0
10193,58.0,1.0,90.0,11.0,0.0
10194,67.0,0.0,90.0,11.0,0.0
10195,73.0,0.0,90.0,1.0,0.0
10196,70.0,0.0,90.0,1.0,0.0
10197,61.0,0.0,90.0,5.0,0.0
10198,70.0,0.0,90.0,2.0,0.0
10199,58.0,0.0,90.0,5.0,0.0
10200,67.0,1.0,90.0,2.0,0.0
10201,52.0,0.0,90.0,12.0,0.0
10202,61.0,5.0,90.0,12.0,0.0
10203,52.0,33.0,90.0,3.0,0.0
10204,40.0,0.0,90.0,3.0,0.0
10205,46.0,83.0,120.0,15.0,0.0
10206,43.0,5.0,90.0,13.0,0.0
10207,31.0,107.0,90.0,14.0,0.0
10208,76.0,0.0,90.0,10.0,0.0
10209,70.0,0.0,90.0,10.0,0.0
10210,58.0,1.0,90.0,10.0,0.0
10211,73.0,1.0,90.0,0.0,0.0
10212,76.0,0.0,90.0,0.0,0.0
10213,73.0,1.0,90.0,11.0,0.0
10214,70.0,0.0,90.0,11.0,0.0
10215,58.0,1.0,90.0,6.0,0.0
10216,70.0,0.0,90.0,6.0,0.0
10217,58.0,0.0,90.0,4.0,0.0
10218,76.0,0.0,90.0,1.0,0.0
10219,73.0,2.0,90.0,1.0,0.0
10220,64.0,0.0,90.0,2.0,0.0
10221,70.0,1.0,90.0,2.0,0.0
10222,61.0,0.0,90.0,5.0,0.0
10223,58.0,0.0,90.0,5.0,0.0
10224,61.0,0.0,90.0,12.0,0.0
10225,55.0,5.0,90.0,12.0,0.0
10226,43.0,0.0,90.0,3.0,0.0
10227,55.0,25.0,90.0,3.0,0.0
10228,46.0,0.0,120.0,15.0,0.0
10229,61.0,0.0,120.0,10.0,0.0
10230,70.0,0.0,120.0,10.0,0.0
10231,77.0,0.0,120.0,10.0,0.0
10232,73.0,0.0,120.0,0.0,0.0
10233,77.0,1.0,120.0,0.0,0.0
10234,58.0,0.0,120.0,11.0,0.0
10235,77.0,0.0,120.0,11.0,0.0
10236,65.0,1.0,120.0,11.0,0.0
10237,65.0,0.0,120.0,6.0,0.0
10238,53.0,1.0,120.0,6.0,0.0
10239,65.0,0.0,120.0,4.0,0.0
10240,77.0,0.0,120.0,1.0,0.0
10241,41.0,4.0,15.0,15.0,0.0
10242,73.0,2.0,120.0,1.0,0.0
10243,53.0,0.0,120.0,4.0,0.0
10244,70.0,1.0,120.0,2.0,0.0
10245,65.0,0.0,120.0,2.0,0.0
10246,58.0,0.0,120.0,5.0,0.0
10247,61.0,0.0,120.0,5.0,0.0
10248,53.0,1.0,120.0,12.0,0.0
10249,61.0,0.0,120.0,12.0,0.0
10250,41.0,4.0,120.0,13.0,0.0
10251,41.0,4.0,15.0,15.0,0.0
10252,53.0,0.0,120.0,3.0,0.0
10253,41.0,1.0,120.0,3.0,0.0
10254,29.0,127.0,120.0,14.0,0.0
10255,41.0,3.0,15.0,15.0,0.0
10256,41.0,3.0,15.0,15.0,0.0
10257,41.0,3.0,15.0,15.0,0.0
10258,41.0,3.0,15.0,15.0,0.0
10259,41.0,3.0,15.0,15.0,0.0
10260,41.0,3.0,15.0,15.0,0.0
10261,41.0,3.0,15.0,15.0,0.0
10262,41.0,3.0,15.0,15.0,0.0
10263,41.0,3.0,15.0,15.0,0.0
10264,41.0,3.0,15.0,15.0,0.0
10265,41.0,3.0,15.0,15.0,0.0
10266,41.0,4.0,15.0,15.0,0.0
10267,41.0,3.0,15.0,15.0,0.0
10268,41.0,3.0,15.0,15.0,0.0
10269,41.0,4.0,15.0,15.0,0.0
10270,41.0,3.0,15.0,15.0,0.0
10271,41.0,3.0,15.0,15.0,0.0
10272,41.0,3.0,15.0,15.0,0.0
10273,41.0,3.0,15.0,15.0,0.0
10274,41.0,3.0,15.0,15.0,0.0
10275,41.0,3.0,15.0,15.0,0.0
10276,41.0,4.0,15.0,15.0,0.0
10277,41.0,3.0,15.0,15.0,0.0
10278,41.0,3.0,15.0,15.0,0.0
10279,41.0,1.0,15.0,15.0,0.0
10280,29.0,1.0,240.0,8.0,0.0
10281,41.0,20.0,20.0,8.0,0.0
10282,46.0,20.0,20.0,8.0,0.0
10283,49.0,20.0,20.0,8.0,0.0
10284,46.0,20.0,20.0,8.0,0.0
10285,49.0,20.0,20.0,8.0,0.0
10286,53.0,20.0,20.0,8.0,0.0
10287,41.0,20.0,600.0,8.0,0.0
10288,49.0,20.0,20.0,8.0,0.0
10289,53.0,20.0,20.0,8.0,0.0
10290,58.0,20.0,20.0,8.0,0.0
10291,53.0,20.0,20.0,8.0,0.0
10292,58.0,19.0,20.0,8.0,0.0
10293,61.0,20.0,20.0,8.0,0.0
10294,58.0,20.0,20.0,7.0,0.0
10295,49.0,0.0,480.0,8.0,0.0
10296,61.0,20.0,20.0,7.0,0.0
10297,65.0,20.0,20.0,7.0,0.0
10298,61.0,20.0,20.0,7.0,0.0
10299,65.0,20.0,20.0,7.0,0.0
10300,70.0,20.0,20.0,7.0,0.0
10301,65.0,20.0,20.0,7.0,0.0
10302,70.0,20.0,20.0,7.0,0.0
10303,73.0,20.0,20.0,7.0,0.0
10304,70.0,20.0,20.0,7.0,0.0
10305,73.0,20.0,20.0,7.0,0.0
10306,77.0,20.0,20.0,7.0,0.0
10307,75.0,20.0,20.0,7.0,0.0
10308,73.0,20.0,20.0,7.0,0.0
10309,72.0,20.0,20.0,7.0,0.0
10310,70.0,20.0,20.0,7.0,0.0
10311,73.0,20.0,20.0,7.0,0.0
10312,77.0,20.0,20.0,7.0,0.0
10313,75.0,20.0,20.0,7.0,0.0
10314,73.0,20.0,20.0,7.0,0.0
10315,72.0,20.0,20.0,7.0,0.0
10316,70.0,20.0,20.0,7.0,0.0
10317,73.0,20.0,20.0,7.0,0.0
10318,77.0,0.0,20.0,7.0,0.0
10319,41.0,20.0,20.0,8.0,0.0
10320,29.0,18.0,240.0,8.0,0.0
10321,46.0,20.0,20.0,8.0,0.0
10322,49.0,20.0,20.0,8.0,0.0
10323,46.0,20.0,20.0,8.0,0.0
10324,49.0,20.0,20.0,8.0,0.0
10325,55.0,20.0,20.0,8.0,0.0
10326,49.0,20.0,20.0,8.0,0.0
10327,41.0,18.0,600.0,8.0,0.0
10328,55.0,20.0,20.0,8.0,0.0
10329,58.0,20.0,20.0,8.0,0.0
10330,55.0,20.0,20.0,8.0,0.0
10331,58.0,20.0,20.0,8.0,0.0
10332,61.0,2.0,20.0,8.0,0.0
10333,52.0,2.0,480.0,8.0,0.0
10334,58.0,20.0,20.0,7.0,0.0
10335,61.0,20.0,20.0,7.0,0.0
10336,67.0,20.0,20.0,7.0,0.0
10337,61.0,20.0,20.0,7.0,0.0
10338,67.0,20.0,20.0,7.0,0.0
10339,70.0,20.0,20.0,7.0,0.0
10340,67.0,20.0,20.0,7.0,0.0
10341,70.0,20.0,20.0,7.0,0.0
10342,73.0,20.0,20.0,7.0,0.0
10343,70.0,20.0,20.0,7.0,0.0
10344,73.0,20.0,20.0,7.0,0.0
10345,79.0,20.0,20.0,7.0,0.0
10346,75.0,20.0,20.0,7.0,0.0
10347,73.0,20.0,20.0,7.0,0.0
10348,72.0,20.0,20.0,7.0,0.0
10349,70.0,20.0,20.0,7.0,0.0
10350,73.0,20.0,20.0,7.0,0.0
10351,79.0,20.0,20.0,7.0,0.0
10352,75.0,20.0,20.0,7.0,0.0
10353,73.0,20.0,20.0,7.0,0.0
10354,72.0,20.0,20.0,7.0,0.0
10355,70.0,20.0,20.0,7.0,0.0
10356,73.0,20.0,20.0,7.0,0.0
10357,79.0,0.0,20.0,7.0,0.0
10358,45.0,20.0,20.0,8.0,0.0
10359,29.0,18.0,240.0,8.0,0.0
10360,48.0,20.0,20.0,8.0,0.0
10361,51.0,20.0,20.0,8.0,0.0
10362,48.0,20.0,20.0,8.0,0.0
10363,51.0,20.0,20.0,8.0,0.0
10364,57.0,20.0,20.0,8.0,0.0
10365,41.0,0.0,180.0,8.0,0.0
10366,51.0,20.0,20.0,8.0,0.0
10367,57.0,20.0,20.0,8.0,0.0
10368,60.0,20.0,20.0,8.0,0.0
10369,57.0,20.0,20.0,8.0,0.0
10370,60.0,20.0,20.0,8.0,0.0
10371,63.0,2.0,20.0,8.0,0.0
10372,60.0,20.0,20.0,7.0,0.0
10373,57.0,20.0,60.0,8.0,0.0
10374,63.0,20.0,20.0,7.0,0.0
10375,66.0,0.0,20.0,7.0,0.0
10376,63.0,20.0,20.0,7.0,0.0
10377,66.0,20.0,20.0,7.0,0.0
10378,72.0,20.0,20.0,7.0,0.0
10379,66.0,20.0,20.0,7.0,0.0
10380,53.0,28.0,1920.0,8.0,0.0
10381,72.0,20.0,20.0,7.0,0.0
10382,75.0,20.0,20.0,7.0,0.0
10383,72.0,20.0,20.0,7.0,0.0
10384,75.0,20.0,20.0,7.0,0.0
10385,78.0,20.0,20.0,7.0,0.0
10386,77.0,20.0,20.0,7.0,0.0
10387,69.0,28.0,240.0,8.0,0.0
10388,75.0,20.0,20.0,7.0,0.0
10389,73.0,20.0,20.0,7.0,0.0
10390,72.0,20.0,20.0,7.0,0.0
10391,75.0,20.0,20.0,7.0,0.0
10392,78.0,24.0,20.0,7.0,0.0
10393,77.0,24.0,20.0,7.0,0.0
10394,75.0,24.0,20.0,7.0,0.0
10395,73.0,24.0,20.0,7.0,0.0
10396,72.0,24.0,20.0,7.0,0.0
10397,75.0,2.0,20.0,7.0,0.0
10398,78.0,30.0,30.0,7.0,0.0
10399,68.0,28.0,240.0,8.0,0.0
10400,71.0,30.0,30.0,7.0,0.0
10401,74.0,30.0,30.0,7.0,0.0
10402,78.0,30.0,30.0,7.0,0.0
10403,71.0,30.0,30.0,7.0,0.0
10404,74.0,30.0,30.0,7.0,0.0
10405,78.0,30.0,30.0,7.0,0.0
10406,70.0,2.0,30.0,7.0,0.0
10407,74.0,30.0,30.0,7.0,0.0
10408,67.0,28.0,240.0,8.0,0.0
10409,78.0,30.0,30.0,7.0,0.0
10410,70.0,30.0,30.0,7.0,0.0
10411,74.0,30.0,30.0,7.0,0.0
10412,78.0,30.0,30.0,7.0,0.0
10413,70.0,30.0,30.0,7.0,0.0
10414,74.0,30.0,30.0,7.0,0.0
10415,75.0,2.0,30.0,7.0,0.0
10416,69.0,30.0,30.0,7.0,0.0
10417,66.0,28.0,120.0,8.0,0.0
10418,72.0,30.0,30.0,7.0,0.0
10419,75.0,30.0,30.0,7.0,0.0
10420,69.0,2.0,30.0,7.0,0.0
10421,70.0,30.0,30.0,7.0,0.0
10422,65.0,28.0,120.0,8.0,0.0
10423,74.0,30.0,30.0,7.0,0.0
10424,69.0,30.0,30.0,7.0,0.0
10425,70.0,2.0,30.0,7.0,0.0
10426,73.0,30.0,30.0,7.0,0.0
10427,64.0,28.0,120.0,8.0,0.0
10428,67.0,30.0,30.0,7.0,0.0
10429,70.0,30.0,30.0,7.0,0.0
10430,73.0,2.0,30.0,7.0,0.0
10431,66.0,30.0,30.0,7.0,0.0
10432,63.0,28.0,120.0,8.0,0.0
10433,69.0,30.0,30.0,7.0,0.0
10434,72.0,30.0,30.0,7.0,0.0
10435,65.0,2.0,30.0,7.0,0.0
10436,69.0,30.0,30.0,7.0,0.0
10437,62.0,28.0,120.0,8.0,0.0
10438,72.0,30.0,30.0,7.0,0.0
10439,65.0,30.0,30.0,7.0,0.0
10440,69.0,2.0,30.0,7.0,0.0
10441,70.0,30.0,30.0,7.0,0.0
10442,61.0,28.0,120.0,8.0,0.0
10443,64.0,30.0,30.0,7.0,0.0
10444,67.0,30.0,30.0,7.0,0.0
10445,70.0,2.0,30.0,7.0,0.0
10446,60.0,30.0,30.0,7.0,0.0
10447,65.0,30.0,30.0,7.0,0.0
10448,70.0,30.0,30.0,7.0,0.0
10449,69.0,30.0,30.0,7.0,0.0
10450,58.0,30.0,30.0,7.0,0.0
10451,64.0,30.0,30.0,7.0,0.0
10452,69.0,30.0,30.0,7.0,0.0
10453,67.0,30.0,30.0,7.0,0.0
10454,57.0,30.0,30.0,7.0,0.0
10455,60.0,30.0,30.0,7.0,0.0
10456,67.0,30.0,30.0,7.0,0.0
10457,65.0,2.0,30.0,7.0,0.0
10458,67.0,30.0,30.0,7.0,0.0
10459,65.0,30.0,30.0,7.0,0.0
10460,67.0,30.0,30.0,7.0,0.0
10461,65.0,20.0,30.0,7.0,0.0
10462,70.0,20.0,20.0,7.0,0.0
10463,69.0,20.0,20.0,7.0,0.0
10464,70.0,20.0,20.0,7.0,0.0
10465,69.0,20.0,20.0,7.0,0.0
10466,70.0,20.0,20.0,7.0,0.0
10467,69.0,15.0,20.0,7.0,0.0
10468,73.0,15.0,15.0,7.0,0.0
10469,72.0,15.0,15.0,7.0,0.0
10470,73.0,15.0,15.0,7.0,0.0
10471,72.0,15.0,15.0,7.0,0.0
10472,73.0,15.0,15.0,7.0,0.0
10473,72.0,15.0,15.0,7.0,0.0
10474,73.0,15.0,15.0,7.0,0.0
10475,72.0,15.0,15.0,7.0,0.0
10476,77.0,15.0,15.0,7.0,0.0
10477,75.0,15.0,15.0,7.0,0.0
10478,77.0,15.0,15.0,7.0,0.0
10479,75.0,15.0,15.0,7.0,0.0
10480,77.0,15.0,15.0,7.0,0.0
10481,75.0,15.0,15.0,7.0,0.0
10482,77.0,15.0,15.0,7.0,0.0
10483,75.0,15.0,15.0,7.0,0.0
10484,77.0,15.0,15.0,7.0,0.0
10485,76.0,15.0,15.0,7.0,0.0
10486,77.0,15.0,15.0,7.0,0.0
10487,76.0,15.0,15.0,7.0,0.0
10488,77.0,15.0,15.0,7.0,0.0
10489,76.0,15.0,15.0,7.0,0.0
10490,77.0,15.0,15.0,7.0,0.0
10491,76.0,15.0,15.0,7.0,0.0
10492,79.0,15.0,15.0,7.0,0.0
10493,29.0,15.0,30.0,8.0,0.0
10494,77.0,0.0,15.0,7.0,0.0
10495,41.0,15.0,30.0,8.0,0.0
10496,79.0,15.0,15.0,7.0,0.0
10497,77.0,0.0,15.0,7.0,0.0
10498,79.0,15.0,15.0,7.0,0.0
10499,45.0,0.0,30.0,8.0,0.0
10500,77.0,15.0,15.0,7.0,0.0
10501,79.0,15.0,15.0,7.0,0.0
10502,48.0,0.0,30.0,8.0,0.0
10503,77.0,15.0,15.0,7.0,0.0
10504,51.0,10.0,20.0,8.0,0.0
10505,79.0,5.0,15.0,7.0,0.0
10506,77.0,10.0,15.0,7.0,0.0
10507,57.0,5.0,20.0,8.0,0.0
10508,79.0,15.0,15.0,7.0,0.0
10509,60.0,15.0,20.0,8.0,0.0
10510,77.0,0.0,15.0,7.0,0.0
10511,79.0,5.0,15.0,7.0,0.0
10512,63.0,10.0,20.0,8.0,0.0
10513,77.0,10.0,15.0,7.0,0.0
10514,69.0,5.0,20.0,8.0,0.0
10515,79.0,15.0,15.0,7.0,0.0
10516,72.0,15.0,20.0,8.0,0.0
10517,77.0,0.0,15.0,7.0,0.0
10518,79.0,15.0,15.0,7.0,0.0
10519,75.0,0.0,60.0,8.0,0.0
10520,77.0,15.0,15.0,7.0,0.0
10521,79.0,15.0,15.0,7.0,0.0
10522,77.0,15.0,15.0,7.0,0.0
10523,79.0,15.0,15.0,7.0,0.0
10524,40.0,0.0,60.0,8.0,0.0
10525,52.0,0.0,60.0,8.0,0.0
10526,77.0,15.0,15.0,7.0,0.0
10527,79.0,15.0,15.0,7.0,0.0
10528,77.0,15.0,15.0,7.0,0.0
10529,53.0,15.0,60.0,8.0,0.0
10530,79.0,15.0,15.0,7.0,0.0
10531,77.0,15.0,15.0,7.0,0.0
10532,79.0,15.0,15.0,7.0,0.0
10533,77.0,0.0,15.0,7.0,0.0
10534,79.0,15.0,15.0,7.0,0.0
10535,44.0,0.0,60.0,8.0,0.0
10536,56.0,15.0,60.0,8.0,0.0
10537,77.0,15.0,15.0,7.0,0.0
10538,79.0,15.0,15.0,7.0,0.0
10539,77.0,0.0,15.0,7.0,0.0
10540,57.0,0.0,60.0,8.0,0.0
10541,79.0,15.0,15.0,7.0,0.0
10542,45.0,0.0,60.0,8.0,0.0
10543,77.0,15.0,15.0,7.0,0.0
10544,79.0,15.0,15.0,7.0,0.0
10545,77.0,15.0,15.0,7.0,0.0
10546,47.0,15.0,60.0,8.0,0.0
10547,79.0,15.0,15.0,7.0,0.0
10548,59.0,0.0,60.0,8.0,0.0
10549,77.0,15.0,15.0,7.0,0.0
10550,79.0,15.0,15.0,7.0,0.0
10551,77.0,0.0,15.0,7.0,0.0
10552,41.0,0.0,15.0,8.0,0.0
10553,75.0,15.0,15.0,7.0,0.0
10554,48.0,7.0,60.0,8.0,0.0
10555,60.0,1.0,60.0,8.0,0.0
10556,77.0,15.0,15.0,7.0,0.0
10557,75.0,15.0,15.0,7.0,0.0
10558,77.0,7.0,15.0,7.0,0.0
10559,52.0,15.0,60.0,8.0,0.0
10560,64.0,0.0,60.0,8.0,0.0
10561,75.0,15.0,15.0,7.0,0.0
10562,77.0,15.0,15.0,7.0,0.0
10563,75.0,15.0,15.0,7.0,0.0
10564,77.0,0.0,15.0,7.0,0.0
10565,53.0,0.0,60.0,8.0,0.0
10566,65.0,20.0,60.0,8.0,0.0
10567,75.0,15.0,15.0,7.0,0.0
10568,77.0,15.0,15.0,7.0,0.0
10569,75.0,15.0,15.0,7.0,0.0
10570,77.0,0.0,15.0,7.0,0.0
10571,75.0,19.0,20.0,7.0,0.0
10572,57.0,15.0,60.0,8.0,0.0
10573,45.0,0.0,60.0,8.0,0.0
10574,77.0,20.0,20.0,7.0,0.0
10575,75.0,1.0,20.0,7.0,0.0
10576,41.0,0.0,15.0,8.0,0.0
10577,74.0,15.0,15.0,7.0,0.0
10578,46.0,7.0,60.0,8.0,0.0
10579,58.0,1.0,60.0,8.0,0.0
10580,75.0,15.0,15.0,7.0,0.0
10581,74.0,15.0,15.0,7.0,0.0
10582,75.0,7.0,15.0,7.0,0.0
10583,74.0,15.0,15.0,7.0,0.0
10584,53.0,15.0,60.0,8.0,0.0
10585,65.0,0.0,60.0,8.0,0.0
10586,75.0,15.0,15.0,7.0,0.0
10587,74.0,15.0,15.0,7.0,0.0
10588,75.0,0.0,15.0,7.0,0.0
10589,74.0,15.0,15.0,7.0,0.0
10590,55.0,0.0,60.0,8.0,0.0
10591,67.0,20.0,60.0,8.0,0.0
10592,75.0,15.0,15.0,7.0,0.0
10593,74.0,15.0,15.0,7.0,0.0
10594,75.0,0.0,15.0,7.0,0.0
10595,59.0,0.0,60.0,8.0,0.0
10596,74.0,19.0,20.0,7.0,0.0
10597,47.0,0.0,60.0,8.0,0.0
10598,75.0,20.0,20.0,7.0,0.0
10599,74.0,1.0,20.0,7.0,0.0
10600,72.0,15.0,15.0,7.0,0.0
10601,39.0,15.0,120.0,8.0,0.0
10602,48.0,7.0,60.0,8.0,0.0
10603,60.0,6.0,60.0,8.0,0.0
10604,74.0,15.0,15.0,7.0,0.0
10605,72.0,15.0,15.0,7.0,0.0
10606,74.0,7.0,15.0,7.0,0.0
10607,72.0,20.0,20.0,7.0,0.0
10608,57.0,0.0,120.0,8.0,0.0
10609,74.0,20.0,20.0,7.0,0.0
10610,72.0,0.0,20.0,7.0,0.0
10611,79.0,15.0,15.0,7.0,0.0
10612,50.0,24.0,360.0,8.0,0.0
10613,38.0,0.0,360.0,8.0,0.0
10614,80.0,15.0,15.0,7.0,0.0
10615,79.0,15.0,15.0,7.0,0.0
10616,80.0,0.0,15.0,7.0,0.0
10617,79.0,19.0,20.0,7.0,0.0
10618,69.0,20.0,15.0,8.0,0.0
10619,57.0,15.0,60.0,8.0,0.0
10620,80.0,20.0,20.0,7.0,0.0
10621,79.0,1.0,20.0,7.0,0.0
10622,77.0,15.0,15.0,7.0,0.0
10623,72.0,15.0,60.0,8.0,0.0
10624,60.0,0.0,60.0,8.0,0.0
10625,79.0,15.0,15.0,7.0,0.0
10626,77.0,15.0,15.0,7.0,0.0
10627,79.0,0.0,15.0,7.0,0.0
10628,77.0,15.0,15.0,7.0,0.0
10629,70.0,0.0,60.0,8.0,0.0
10630,58.0,0.0,60.0,8.0,0.0
10631,79.0,15.0,15.0,7.0,0.0
10632,77.0,15.0,15.0,7.0,0.0
10633,79.0,15.0,15.0,7.0,0.0
10634,69.0,0.0,60.0,8.0,0.0
10635,57.0,0.0,60.0,8.0,0.0
10636,77.0,15.0,15.0,7.0,0.0
10637,79.0,15.0,15.0,7.0,0.0
10638,77.0,15.0,15.0,7.0,0.0
10639,79.0,20.0,15.0,7.0,0.0
10640,77.0,20.0,20.0,7.0,0.0
10641,58.0,0.0,60.0,8.0,0.0
10642,70.0,0.0,60.0,8.0,0.0
10643,79.0,20.0,20.0,7.0,0.0
10644,77.0,0.0,20.0,7.0,0.0
10645,75.0,24.0,20.0,7.0,0.0
10646,55.0,12.0,60.0,8.0,0.0
10647,67.0,0.0,60.0,8.0,0.0
10648,39.0,0.0,120.0,8.0,0.0
10649,74.0,12.0,20.0,7.0,0.0
10650,77.0,24.0,20.0,7.0,0.0
10651,63.0,0.0,60.0,8.0,0.0
10652,51.0,0.0,60.0,8.0,0.0
10653,75.0,24.0,20.0,7.0,0.0
10654,72.0,0.0,20.0,7.0,0.0
10655,41.0,6.0,480.0,8.0,0.0
10656,50.0,6.0,480.0,8.0,0.0
10657,53.0,6.0,480.0,8.0,0.0
10658,62.0,6.0,480.0,8.0,0.0
10659,70.0,37.0,20.0,7.0,0.0
10660,72.0,40.0,40.0,7.0,0.0
10661,69.0,40.0,40.0,7.0,0.0
10662,70.0,40.0,40.0,7.0,0.0
10663,72.0,40.0,40.0,7.0,0.0
10664,74.0,40.0,40.0,7.0,0.0
10665,75.0,40.0,40.0,7.0,0.0
10666,76.0,40.0,40.0,7.0,0.0
10667,77.0,40.0,40.0,7.0,0.0
10668,79.0,50.0,40.0,7.0,0.0
10669,76.0,25.0,60.0,7.0,0.0
10670,77.0,40.0,60.0,7.0,0.0
10671,41.0,6.0,480.0,8.0,0.0
10672,49.0,6.0,480.0,8.0,0.0
10673,53.0,6.0,480.0,8.0,0.0
10674,61.0,6.0,480.0,8.0,0.0
10675,65.0,21.0,15.0,8.0,0.0
10676,79.0,40.0,40.0,7.0,0.0
10677,81.0,40.0,40.0,7.0,0.0
10678,82.0,40.0,40.0,7.0,0.0
10679,84.0,40.0,40.0,7.0,0.0
10680,85.0,40.0,40.0,7.0,0.0
10681,87.0,40.0,40.0,7.0,0.0
10682,88.0,40.0,40.0,7.0,0.0
10683,89.0,35.0,40.0,7.0,0.0
10684,90.0,55.0,40.0,7.0,0.0
10685,88.0,25.0,60.0,7.0,0.0
10686,89.0,24.0,60.0,7.0,0.0
10687,41.0,0.0,240.0,8.0,0.0
10688,48.0,6.0,240.0,8.0,0.0
10689,53.0,6.0,240.0,8.0,0.0
10690,60.0,6.0,240.0,8.0,0.0
10691,86.0,36.0,30.0,7.0,0.0
10692,65.0,16.0,240.0,8.0,0.0
10693,87.0,40.0,40.0,7.0,0.0
10694,84.0,40.0,40.0,7.0,0.0
10695,81.0,40.0,40.0,7.0,0.0
10696,77.0,40.0,40.0,7.0,0.0
10697,75.0,6.0,40.0,7.0,0.0
10698,72.0,40.0,40.0,7.0,0.0
10699,69.0,40.0,40.0,7.0,0.0
10700,65.0,40.0,40.0,7.0,0.0
10701,63.0,40.0,40.0,7.0,0.0
10702,60.0,40.0,40.0,7.0,0.0
10703,57.0,60.0,40.0,7.0,0.0
10704,53.0,60.0,60.0,8.0,0.0
10705,51.0,60.0,60.0,8.0,0.0
10706,48.0,60.0,60.0,8.0,0.0
10707,45.0,80.0,60.0,8.0,0.0
10708,41.0,80.0,90.0,8.0,0.0
10709,39.0,80.0,90.0,8.0,0.0
10710,36.0,25.0,90.0,8.0,0.0
10711,34.0,4.0,120.0,8.0,0.0
10712,46.0,5.0,720.0,4.0,0.0
10713,50.0,1.0,60.0,4.0,0.0
10714,46.0,5.0,240.0,13.0,0.0
10715,34.0,3.0,240.0,14.0,0.0
10716,46.0,9.0,15.0,15.0,0.0
10717,46.0,10.0,15.0,15.0,0.0
10718,46.0,9.0,15.0,15.0,0.0
10719,53.0,12.0,60.0,4.0,0.0
10720,46.0,10.0,15.0,15.0,0.0
10721,46.0,9.0,15.0,15.0,0.0
10722,46.0,8.0,15.0,15.0,0.0
10723,46.0,10.0,15.0,15.0,0.0
10724,46.0,6.0,15.0,15.0,0.0
10725,58.0,1.0,60.0,4.0,0.0
10726,46.0,8.0,15.0,15.0,0.0
10727,46.0,11.0,15.0,15.0,0.0
10728,46.0,10.0,15.0,15.0,0.0
10729,46.0,9.0,15.0,15.0,0.0
10730,46.0,10.0,15.0,15.0,0.0
10731,62.0,2.0,60.0,4.0,0.0
10732,46.0,10.0,15.0,15.0,0.0
10733,46.0,11.0,15.0,15.0,0.0
10734,46.0,10.0,15.0,15.0,0.0
10735,46.0,10.0,15.0,15.0,0.0
10736,46.0,8.0,15.0,15.0,0.0
10737,50.0,6.0,60.0,2.0,0.0
10738,65.0,1.0,180.0,4.0,0.0
10739,46.0,2.0,15.0,15.0,0.0
10740,44.0,4.0,240.0,13.0,0.0
10741,50.0,3.0,60.0,3.0,0.0
10742,32.0,13.0,240.0,14.0,0.0
10743,46.0,10.0,15.0,15.0,0.0
10744,46.0,10.0,15.0,15.0,0.0
10745,46.0,3.0,15.0,15.0,0.0
10746,53.0,6.0,60.0,2.0,0.0
10747,46.0,6.0,15.0,15.0,0.0
10748,53.0,4.0,60.0,3.0,0.0
10749,46.0,9.0,15.0,15.0,0.0
10750,46.0,8.0,15.0,15.0,0.0
10751,46.0,6.0,15.0,15.0,0.0
10752,58.0,7.0,60.0,2.0,0.0
10753,46.0,11.0,15.0,15.0,0.0
10754,58.0,5.0,60.0,3.0,0.0
10755,46.0,9.0,15.0,15.0,0.0
10756,46.0,9.0,15.0,15.0,0.0
10757,46.0,5.0,15.0,15.0,0.0
10758,62.0,4.0,60.0,2.0,0.0
10759,58.0,3.0,60.0,4.0,0.0
10760,46.0,10.0,15.0,15.0,0.0
10761,62.0,1.0,60.0,3.0,0.0
10762,46.0,10.0,15.0,15.0,0.0
10763,46.0,9.0,15.0,15.0,0.0
10764,46.0,3.0,15.0,15.0,0.0
10765,46.0,1.0,15.0,15.0,0.0
10766,70.0,1.0,180.0,2.0,0.0
10767,63.0,7.0,120.0,4.0,0.0
10768,43.0,5.0,240.0,13.0,0.0
10769,65.0,10.0,180.0,3.0,0.0
10770,31.0,11.0,240.0,14.0,0.0
10771,46.0,10.0,15.0,15.0,0.0
10772,46.0,10.0,15.0,15.0,0.0
10773,46.0,9.0,15.0,15.0,0.0
10774,46.0,9.0,15.0,15.0,0.0
10775,46.0,9.0,15.0,15.0,0.0
10776,46.0,8.0,15.0,15.0,0.0
10777,62.0,8.0,60.0,4.0,0.0
10778,46.0,10.0,15.0,15.0,0.0
10779,46.0,9.0,15.0,15.0,0.0
10780,46.0,8.0,15.0,15.0,0.0
10781,46.0,0.0,15.0,15.0,0.0
10782,70.0,2.0,60.0,2.0,0.0
10783,70.0,3.0,60.0,1.0,0.0
10784,60.0,0.0,60.0,4.0,0.0
10785,46.0,10.0,15.0,15.0,0.0
10786,65.0,1.0,60.0,3.0,0.0
10787,46.0,10.0,15.0,15.0,0.0
10788,46.0,9.0,15.0,15.0,0.0
10789,46.0,2.0,15.0,15.0,0.0
10790,70.0,4.0,120.0,2.0,0.0
10791,60.0,0.0,120.0,2.0,0.0
10792,60.0,3.0,120.0,4.0,0.0
10793,53.0,7.0,480.0,4.0,0.0
10794,75.0,5.0,120.0,1.0,0.0
10795,41.0,5.0,120.0,13.0,0.0
10796,60.0,1.0,120.0,3.0,0.0
10797,29.0,2.0,120.0,14.0,0.0
10798,41.0,10.0,15.0,15.0,0.0
10799,41.0,9.0,15.0,15.0,0.0
10800,41.0,10.0,15.0,15.0,0.0
10801,41.0,9.0,15.0,15.0,0.0
10802,41.0,9.0,15.0,15.0,0.0
10803,41.0,0.0,15.0,15.0,0.0
10804,65.0,0.0,120.0,2.0,0.0
10805,69.0,1.0,120.0,2.0,0.0
10806,65.0,0.0,600.0,4.0,0.0
10807,74.0,2.0,60.0,1.0,0.0
10808,39.0,2.0,120.0,13.0,0.0
10809,53.0,1.0,120.0,3.0,0.0
10810,27.0,7.0,120.0,14.0,0.0
10811,41.0,9.0,15.0,15.0,0.0
10812,41.0,9.0,15.0,15.0,0.0
10813,41.0,8.0,15.0,15.0,0.0
10814,41.0,8.0,15.0,15.0,0.0
10815,72.0,4.0,60.0,1.0,0.0
10816,41.0,9.0,15.0,15.0,0.0
10817,41.0,10.0,15.0,15.0,0.0
10818,41.0,3.0,15.0,15.0,0.0
10819,65.0,1.0,360.0,2.0,0.0
10820,70.0,1.0,480.0,2.0,0.0
10821,65.0,4.0,60.0,0.0,0.0
10822,77.0,5.0,420.0,1.0,0.0
10823,41.0,11.0,15.0,15.0,0.0
10824,38.0,4.0,240.0,13.0,0.0
10825,50.0,1.0,240.0,3.0,0.0
10826,58.0,1.0,720.0,3.0,0.0
10827,26.0,4.0,240.0,14.0,0.0
10828,41.0,9.0,15.0,15.0,0.0
10829,41.0,10.0,15.0,15.0,0.0
10830,41.0,5.0,15.0,15.0,0.0
10831,70.0,6.0,60.0,0.0,0.0
10832,41.0,10.0,15.0,15.0,0.0
10833,41.0,9.0,15.0,15.0,0.0
10834,41.0,10.0,15.0,15.0,0.0
10835,74.0,5.0,60.0,0.0,0.0
10836,41.0,9.0,15.0,15.0,0.0
10837,41.0,8.0,15.0,15.0,0.0
10838,41.0,10.0,15.0,15.0,0.0
10839,41.0,6.0,15.0,15.0,0.0
10840,41.0,11.0,15.0,15.0,0.0
10841,77.0,1.0,60.0,0.0,0.0
10842,41.0,9.0,15.0,15.0,0.0
10843,41.0,10.0,15.0,15.0,0.0
10844,41.0,10.0,15.0,15.0,0.0
10845,41.0,2.0,15.0,15.0,0.0
10846,79.0,3.0,180.0,0.0,0.0
10847,58.0,2.0,240.0,4.0,0.0
10848,65.0,1.0,60.0,1.0,0.0
10849,37.0,4.0,240.0,13.0,0.0
10850,49.0,1.0,240.0,3.0,0.0
10851,25.0,4.0,240.0,14.0,0.0
10852,41.0,9.0,15.0,15.0,0.0
10853,41.0,9.0,15.0,15.0,0.0
10854,41.0,10.0,15.0,15.0,0.0
10855,41.0,8.0,15.0,15.0,0.0
10856,70.0,3.0,60.0,1.0,0.0
10857,41.0,10.0,15.0,15.0,0.0
10858,41.0,9.0,15.0,15.0,0.0
10859,41.0,9.0,15.0,15.0,0.0
10860,58.0,0.0,120.0,2.0,0.0
10861,73.0,2.0,60.0,1.0,0.0
10862,41.0,9.0,15.0,15.0,0.0
10863,41.0,8.0,15.0,15.0,0.0
10864,41.0,10.0,15.0,15.0,0.0
10865,41.0,10.0,15.0,15.0,0.0
10866,41.0,11.0,15.0,15.0,0.0
10867,79.0,1.0,60.0,0.0,0.0
10868,77.0,5.0,60.0,1.0,0.0
10869,41.0,9.0,15.0,15.0,0.0
10870,41.0,10.0,15.0,15.0,0.0
10871,41.0,2.0,15.0,15.0,0.0
10872,60.0,3.0,60.0,2.0,0.0
10873,70.0,4.0,240.0,2.0,0.0
10874,79.0,3.0,120.0,0.0,0.0
10875,58.0,5.0,120.0,4.0,0.0
10876,76.0,0.0,240.0,1.0,0.0
10877,41.0,7.0,15.0,15.0,0.0
10878,36.0,4.0,240.0,13.0,0.0
10879,48.0,1.0,240.0,3.0,0.0
10880,24.0,1.0,240.0,14.0,0.0
10881,46.0,11.0,15.0,15.0,0.0
10882,46.0,9.0,15.0,15.0,0.0
10883,46.0,11.0,15.0,15.0,0.0
10884,64.0,4.0,60.0,2.0,0.0
10885,46.0,9.0,15.0,15.0,0.0
10886,46.0,11.0,15.0,15.0,0.0
10887,46.0,10.0,15.0,15.0,0.0
10888,46.0,6.0,15.0,15.0,0.0
10889,46.0,1.0,15.0,15.0,0.0
10890,65.0,3.0,60.0,2.0,0.0
10891,81.0,4.0,60.0,0.0,0.0
10892,46.0,10.0,15.0,15.0,0.0
10893,60.0,0.0,120.0,4.0,0.0
10894,72.0,1.0,180.0,1.0,0.0
10895,46.0,11.0,15.0,15.0,0.0
10896,46.0,9.0,15.0,15.0,0.0
10897,46.0,7.0,15.0,15.0,0.0
10898,67.0,4.0,60.0,2.0,0.0
10899,82.0,3.0,60.0,0.0,0.0
10900,79.0,0.0,60.0,0.0,0.0
10901,46.0,9.0,15.0,15.0,0.0
10902,46.0,10.0,15.0,15.0,0.0
10903,46.0,10.0,15.0,15.0,0.0
10904,46.0,6.0,15.0,15.0,0.0
10905,46.0,0.0,15.0,15.0,0.0
10906,69.0,4.0,60.0,2.0,0.0
10907,65.0,1.0,240.0,2.0,0.0
10908,84.0,0.0,120.0,0.0,0.0
10909,77.0,1.0,240.0,0.0,0.0
10910,46.0,3.0,15.0,15.0,0.0
10911,75.0,1.0,120.0,1.0,0.0
10912,53.0,0.0,240.0,4.0,0.0
10913,60.0,4.0,240.0,4.0,0.0
10914,41.0,3.0,240.0,13.0,0.0
10915,57.0,1.0,240.0,3.0,0.0
10916,53.0,0.0,240.0,3.0,0.0
10917,29.0,9.0,240.0,14.0,0.0
10918,41.0,9.0,15.0,15.0,0.0
10919,41.0,10.0,15.0,15.0,0.0
10920,41.0,4.0,15.0,15.0,0.0
10921,72.0,7.0,60.0,2.0,0.0
10922,69.0,0.0,60.0,1.0,0.0
10923,41.0,10.0,15.0,15.0,0.0
10924,41.0,9.0,15.0,15.0,0.0
10925,41.0,10.0,15.0,15.0,0.0
10926,41.0,3.0,15.0,15.0,0.0
10927,74.0,1.0,60.0,2.0,0.0
10928,86.0,3.0,60.0,0.0,0.0
10929,74.0,0.0,60.0,1.0,0.0
10930,65.0,11.0,60.0,1.0,0.0
10931,41.0,9.0,15.0,15.0,0.0
10932,41.0,8.0,15.0,15.0,0.0
10933,41.0,6.0,15.0,15.0,0.0
10934,41.0,0.0,15.0,15.0,0.0
10935,41.0,11.0,15.0,15.0,0.0
10936,75.0,1.0,60.0,2.0,0.0
10937,87.0,3.0,60.0,0.0,0.0
10938,72.0,0.0,60.0,1.0,0.0
10939,63.0,0.0,60.0,1.0,0.0
10940,41.0,9.0,15.0,15.0,0.0
10941,41.0,10.0,15.0,15.0,0.0
10942,41.0,5.0,15.0,15.0,0.0
10943,41.0,2.0,15.0,15.0,0.0
10944,77.0,0.0,60.0,2.0,0.0
10945,62.0,3.0,60.0,2.0,0.0
10946,89.0,0.0,120.0,0.0,0.0
10947,77.0,3.0,120.0,0.0,0.0
10948,70.0,2.0,120.0,1.0,0.0
10949,46.0,0.0,480.0,4.0,0.0
10950,58.0,2.0,480.0,4.0,0.0
10951,62.0,0.0,120.0,1.0,0.0
10952,41.0,1.0,15.0,15.0,0.0
10953,44.0,7.0,15.0,13.0,0.0
10954,58.0,0.0,60.0,3.0,0.0
10955,46.0,3.0,60.0,3.0,0.0
10956,32.0,6.0,120.0,14.0,0.0
10957,44.0,2.0,15.0,13.0,0.0
10958,46.0,8.0,15.0,15.0,0.0
10959,46.0,10.0,15.0,15.0,0.0
10960,44.0,7.0,15.0,13.0,0.0
10961,46.0,3.0,15.0,15.0,0.0
10962,44.0,2.0,15.0,13.0,0.0
10963,46.0,7.0,15.0,15.0,0.0
10964,44.0,6.0,15.0,13.0,0.0
10965,46.0,3.0,15.0,15.0,0.0
10966,44.0,1.0,15.0,13.0,0.0
10967,46.0,9.0,15.0,15.0,0.0
10968,50.0,1.0,15.0,8.0,0.0
10969,46.0,10.0,15.0,15.0,0.0
10970,44.0,8.0,15.0,13.0,0.0
10971,58.0,2.0,15.0,8.0,0.0
10972,44.0,1.0,15.0,13.0,0.0
10973,46.0,0.0,15.0,15.0,0.0
10974,65.0,2.0,15.0,7.0,0.0
10975,74.0,3.0,600.0,0.0,0.0
10976,77.0,0.0,600.0,0.0,0.0
10977,77.0,3.0,600.0,1.0,0.0
10978,74.0,4.0,480.0,1.0,0.0
10979,46.0,4.0,15.0,15.0,0.0
10980,43.0,7.0,15.0,13.0,0.0
10981,31.0,8.0,60.0,14.0,0.0
10982,62.0,4.0,15.0,7.0,0.0
10983,46.0,4.0,15.0,15.0,0.0
10984,43.0,2.0,15.0,13.0,0.0
10985,70.0,1.0,15.0,7.0,0.0
10986,46.0,9.0,15.0,15.0,0.0
10987,43.0,7.0,15.0,13.0,0.0
10988,77.0,4.0,15.0,7.0,0.0
10989,46.0,4.0,15.0,15.0,0.0
10990,43.0,2.0,15.0,13.0,0.0
10991,46.0,3.0,15.0,15.0,0.0
10992,74.0,2.0,15.0,7.0,0.0
10993,41.0,8.0,15.0,13.0,0.0
10994,29.0,8.0,60.0,14.0,0.0
10995,46.0,0.0,15.0,15.0,0.0
10996,82.0,2.0,15.0,7.0,0.0
10997,41.0,3.0,15.0,13.0,0.0
10998,89.0,2.0,15.0,7.0,0.0
10999,46.0,9.0,15.0,15.0,0.0
11000,41.0,7.0,15.0,13.0,0.0
11001,46.0,1.0,15.0,15.0,0.0
11002,41.0,3.0,15.0,13.0,0.0
11003,46.0,2.0,15.0,15.0,0.0
11004,44.0,7.0,15.0,13.0,0.0
11005,32.0,6.0,120.0,14.0,0.0
11006,46.0,2.0,15.0,15.0,0.0
11007,44.0,3.0,15.0,13.0,0.0
11008,46.0,9.0,15.0,15.0,0.0
11009,44.0,7.0,15.0,13.0,0.0
11010,46.0,8.0,15.0,15.0,0.0
11011,44.0,4.0,15.0,13.0,0.0
11012,46.0,9.0,15.0,15.0,0.0
11013,44.0,6.0,15.0,13.0,0.0
11014,46.0,2.0,15.0,15.0,0.0
11015,44.0,1.0,15.0,13.0,0.0
11016,50.0,8.0,15.0,8.0,0.0
11017,46.0,10.0,15.0,15.0,0.0
11018,44.0,0.0,15.0,13.0,0.0
11019,58.0,2.0,15.0,8.0,0.0
11020,44.0,1.0,15.0,13.0,0.0
11021,46.0,5.0,15.0,15.0,0.0
11022,65.0,0.0,15.0,7.0,0.0
11023,46.0,4.0,15.0,15.0,0.0
11024,43.0,7.0,15.0,13.0,0.0
11025,31.0,6.0,60.0,14.0,0.0
11026,62.0,4.0,15.0,7.0,0.0
11027,46.0,4.0,15.0,15.0,0.0
11028,43.0,2.0,15.0,13.0,0.0
11029,46.0,10.0,15.0,15.0,0.0
11030,70.0,2.0,15.0,7.0,0.0
11031,43.0,7.0,15.0,13.0,0.0
11032,46.0,1.0,15.0,15.0,0.0
11033,77.0,2.0,15.0,7.0,0.0
11034,43.0,2.0,15.0,13.0,0.0
11035,46.0,6.0,15.0,15.0,0.0
11036,74.0,2.0,15.0,7.0,0.0
11037,41.0,8.0,15.0,13.0,0.0
11038,29.0,8.0,60.0,14.0,0.0
11039,82.0,4.0,15.0,7.0,0.0
11040,46.0,2.0,15.0,15.0,0.0
11041,41.0,3.0,15.0,13.0,0.0
11042,89.0,3.0,15.0,7.0,0.0
11043,46.0,9.0,15.0,15.0,0.0
11044,41.0,7.0,15.0,13.0,0.0
11045,46.0,8.0,15.0,15.0,0.0
11046,41.0,1.0,15.0,13.0,0.0
11047,46.0,2.0,15.0,15.0,0.0
11048,59.0,3.0,240.0,4.0,0.0
11049,46.0,1.0,15.0,15.0,0.0
11050,47.0,0.0,15.0,12.0,0.0
11051,59.0,1.0,15.0,12.0,0.0
11052,44.0,14.0,15.0,13.0,0.0
11053,47.0,1.0,240.0,3.0,0.0
11054,59.0,0.0,240.0,3.0,0.0
11055,32.0,8.0,120.0,14.0,0.0
11056,47.0,1.0,15.0,12.0,0.0
11057,59.0,0.0,15.0,12.0,0.0
11058,44.0,14.0,15.0,13.0,0.0
11059,59.0,1.0,15.0,12.0,0.0
11060,47.0,0.0,15.0,12.0,0.0
11061,44.0,14.0,15.0,13.0,0.0
11062,59.0,1.0,15.0,12.0,0.0
11063,47.0,0.0,15.0,12.0,0.0
11064,44.0,14.0,15.0,13.0,0.0
11065,47.0,0.0,15.0,12.0,0.0
11066,59.0,1.0,15.0,12.0,0.0
11067,44.0,14.0,15.0,13.0,0.0
11068,47.0,0.0,15.0,12.0,0.0
11069,59.0,1.0,15.0,12.0,0.0
11070,44.0,14.0,15.0,13.0,0.0
11071,50.0,1.0,15.0,8.0,0.0
11072,47.0,0.0,15.0,12.0,0.0
11073,59.0,0.0,15.0,12.0,0.0
11074,44.0,13.0,15.0,13.0,0.0
11075,59.0,1.0,15.0,8.0,0.0
11076,47.0,0.0,15.0,12.0,0.0
11077,59.0,1.0,15.0,12.0,0.0
11078,44.0,1.0,15.0,13.0,0.0
11079,65.0,1.0,15.0,7.0,0.0
11080,68.0,0.0,120.0,1.0,0.0
11081,47.0,1.0,15.0,12.0,0.0
11082,59.0,0.0,15.0,12.0,0.0
11083,43.0,12.0,15.0,13.0,0.0
11084,31.0,8.0,60.0,14.0,0.0
11085,62.0,2.0,15.0,7.0,0.0
11086,59.0,0.0,15.0,12.0,0.0
11087,47.0,1.0,15.0,12.0,0.0
11088,43.0,12.0,15.0,13.0,0.0
11089,71.0,2.0,15.0,7.0,0.0
11090,59.0,1.0,15.0,12.0,0.0
11091,47.0,0.0,15.0,12.0,0.0
11092,43.0,13.0,15.0,13.0,0.0
11093,77.0,1.0,15.0,7.0,0.0
11094,59.0,1.0,15.0,12.0,0.0
11095,47.0,0.0,15.0,12.0,0.0
11096,43.0,5.0,15.0,13.0,0.0
11097,74.0,1.0,15.0,7.0,0.0
11098,59.0,0.0,15.0,12.0,0.0
11099,47.0,1.0,15.0,12.0,0.0
11100,41.0,11.0,15.0,13.0,0.0
11101,29.0,9.0,60.0,14.0,0.0
11102,83.0,3.0,15.0,7.0,0.0
11103,59.0,1.0,15.0,12.0,0.0
11104,47.0,0.0,15.0,12.0,0.0
11105,41.0,11.0,15.0,13.0,0.0
11106,89.0,3.0,15.0,7.0,0.0
11107,47.0,1.0,15.0,12.0,0.0
11108,59.0,0.0,15.0,12.0,0.0
11109,41.0,8.0,15.0,13.0,0.0
11110,59.0,0.0,15.0,12.0,0.0
11111,47.0,1.0,15.0,12.0,0.0
11112,41.0,1.0,15.0,13.0,0.0
11113,79.0,3.0,240.0,0.0,0.0
11114,75.0,0.0,240.0,0.0,0.0
11115,67.0,3.0,120.0,1.0,0.0
11116,60.0,2.0,120.0,4.0,0.0
11117,79.0,1.0,240.0,1.0,0.0
11118,60.0,1.0,15.0,12.0,0.0
11119,48.0,0.0,15.0,12.0,0.0
11120,39.0,14.0,15.0,13.0,0.0
11121,48.0,0.0,120.0,3.0,0.0
11122,60.0,1.0,120.0,3.0,0.0
11123,27.0,8.0,120.0,14.0,0.0
11124,60.0,1.0,15.0,12.0,0.0
11125,48.0,0.0,15.0,12.0,0.0
11126,39.0,14.0,15.0,13.0,0.0
11127,60.0,1.0,15.0,12.0,0.0
11128,48.0,0.0,15.0,12.0,0.0
11129,39.0,14.0,15.0,13.0,0.0
11130,60.0,0.0,15.0,12.0,0.0
11131,48.0,1.0,15.0,12.0,0.0
11132,39.0,14.0,15.0,13.0,0.0
11133,60.0,0.0,15.0,12.0,0.0
11134,48.0,1.0,15.0,12.0,0.0
11135,39.0,14.0,15.0,13.0,0.0
11136,60.0,0.0,15.0,12.0,0.0
11137,48.0,1.0,15.0,12.0,0.0
11138,39.0,13.0,15.0,13.0,0.0
11139,51.0,1.0,15.0,8.0,0.0
11140,60.0,0.0,15.0,12.0,0.0
11141,48.0,1.0,15.0,12.0,0.0
11142,39.0,11.0,15.0,13.0,0.0
11143,60.0,1.0,15.0,8.0,0.0
11144,60.0,0.0,15.0,12.0,0.0
11145,48.0,1.0,15.0,12.0,0.0
11146,39.0,1.0,15.0,13.0,0.0
11147,67.0,2.0,120.0,2.0,0.0
11148,67.0,1.0,15.0,7.0,0.0
11149,62.0,2.0,60.0,4.0,0.0
11150,75.0,0.0,120.0,1.0,0.0
11151,62.0,0.0,15.0,12.0,0.0
11152,50.0,1.0,15.0,12.0,0.0
11153,38.0,13.0,15.0,13.0,0.0
11154,50.0,0.0,60.0,3.0,0.0
11155,62.0,2.0,60.0,3.0,0.0
11156,26.0,4.0,60.0,14.0,0.0
11157,63.0,1.0,15.0,7.0,0.0
11158,50.0,1.0,15.0,12.0,0.0
11159,62.0,0.0,15.0,12.0,0.0
11160,38.0,12.0,15.0,13.0,0.0
11161,75.0,2.0,15.0,7.0,0.0
11162,50.0,1.0,15.0,12.0,0.0
11163,62.0,0.0,15.0,12.0,0.0
11164,38.0,11.0,15.0,13.0,0.0
11165,79.0,1.0,15.0,7.0,0.0
11166,62.0,0.0,15.0,12.0,0.0
11167,50.0,1.0,15.0,12.0,0.0
11168,38.0,5.0,15.0,13.0,0.0
11169,75.0,3.0,15.0,7.0,0.0
11170,63.0,0.0,60.0,4.0,0.0
11171,51.0,0.0,15.0,12.0,0.0
11172,63.0,1.0,15.0,12.0,0.0
11173,36.0,12.0,15.0,13.0,0.0
11174,51.0,0.0,60.0,3.0,0.0
11175,63.0,1.0,60.0,3.0,0.0
11176,24.0,6.0,60.0,14.0,0.0
11177,87.0,2.0,15.0,7.0,0.0
11178,51.0,1.0,15.0,12.0,0.0
11179,63.0,0.0,15.0,12.0,0.0
11180,36.0,13.0,15.0,13.0,0.0
11181,91.0,1.0,15.0,7.0,0.0
11182,51.0,0.0,15.0,12.0,0.0
11183,63.0,1.0,15.0,12.0,0.0
11184,36.0,8.0,15.0,13.0,0.0
11185,63.0,1.0,15.0,12.0,0.0
11186,51.0,0.0,15.0,12.0,0.0
11187,36.0,4.0,15.0,13.0,0.0
11188,89.0,3.0,15.0,7.0,0.0
11189,65.0,1.0,120.0,2.0,0.0
11190,62.0,0.0,120.0,2.0,0.0
11191,53.0,1.0,60.0,8.0,0.0
11192,74.0,1.0,120.0,0.0,0.0
11193,77.0,0.0,120.0,0.0,0.0
11194,65.0,0.0,60.0,8.0,0.0
11195,58.0,0.0,120.0,6.0,0.0
11196,53.0,0.0,960.0,6.0,0.0
11197,77.0,0.0,120.0,1.0,0.0
11198,74.0,0.0,120.0,1.0,0.0
11199,65.0,0.0,480.0,4.0,0.0
11200,41.0,0.0,480.0,4.0,0.0
11201,65.0,0.0,15.0,12.0,0.0
11202,53.0,1.0,15.0,12.0,0.0
11203,41.0,7.0,15.0,13.0,0.0
11204,53.0,2.0,120.0,3.0,0.0
11205,65.0,0.0,120.0,3.0,0.0
11206,29.0,4.0,960.0,14.0,0.0
11207,41.0,5.0,15.0,15.0,0.0
11208,86.0,2.0,15.0,7.0,0.0
11209,53.0,1.0,15.0,12.0,0.0
11210,65.0,0.0,15.0,12.0,0.0
11211,41.0,2.0,15.0,13.0,0.0
11212,41.0,9.0,15.0,15.0,0.0
11213,77.0,1.0,15.0,7.0,0.0
11214,53.0,1.0,15.0,12.0,0.0
11215,65.0,0.0,15.0,12.0,0.0
11216,41.0,6.0,15.0,13.0,0.0
11217,86.0,2.0,15.0,7.0,0.0
11218,41.0,2.0,15.0,15.0,0.0
11219,53.0,1.0,15.0,12.0,0.0
11220,65.0,0.0,15.0,12.0,0.0
11221,41.0,1.0,15.0,13.0,0.0
11222,41.0,11.0,15.0,15.0,0.0
11223,77.0,0.0,15.0,8.0,0.0
11224,41.0,2.0,15.0,15.0,0.0
11225,65.0,0.0,15.0,12.0,0.0
11226,53.0,1.0,15.0,12.0,0.0
11227,41.0,7.0,15.0,13.0,0.0
11228,74.0,0.0,15.0,8.0,0.0
11229,53.0,0.0,15.0,12.0,0.0
11230,65.0,1.0,15.0,12.0,0.0
11231,41.0,2.0,15.0,13.0,0.0
11232,41.0,7.0,15.0,15.0,0.0
11233,65.0,1.0,15.0,8.0,0.0
11234,41.0,10.0,15.0,15.0,0.0
11235,65.0,1.0,15.0,12.0,0.0
11236,53.0,0.0,15.0,12.0,0.0
11237,41.0,8.0,15.0,13.0,0.0
11238,74.0,0.0,15.0,8.0,0.0
11239,53.0,0.0,15.0,12.0,0.0
11240,65.0,1.0,15.0,12.0,0.0
11241,41.0,1.0,15.0,13.0,0.0
11242,41.0,4.0,15.0,15.0,0.0
11243,88.0,2.0,15.0,7.0,0.0
11244,64.0,0.0,120.0,2.0,0.0
11245,61.0,1.0,120.0,2.0,0.0
11246,73.0,0.0,120.0,0.0,0.0
11247,76.0,1.0,120.0,0.0,0.0
11248,58.0,0.0,120.0,6.0,0.0
11249,41.0,8.0,15.0,15.0,0.0
11250,76.0,3.0,120.0,1.0,0.0
11251,73.0,0.0,120.0,1.0,0.0
11252,64.0,1.0,15.0,12.0,0.0
11253,61.0,0.0,15.0,12.0,0.0
11254,43.0,8.0,15.0,13.0,0.0
11255,55.0,3.0,120.0,3.0,0.0
11256,85.0,1.0,15.0,7.0,0.0
11257,64.0,1.0,15.0,12.0,0.0
11258,61.0,0.0,15.0,12.0,0.0
11259,43.0,1.0,15.0,13.0,0.0
11260,41.0,5.0,15.0,15.0,0.0
11261,77.0,1.0,15.0,7.0,0.0
11262,41.0,2.0,15.0,15.0,0.0
11263,64.0,1.0,15.0,12.0,0.0
11264,61.0,0.0,15.0,12.0,0.0
11265,43.0,7.0,15.0,13.0,0.0
11266,41.0,6.0,15.0,15.0,0.0
11267,85.0,1.0,15.0,7.0,0.0
11268,61.0,0.0,15.0,12.0,0.0
11269,64.0,1.0,15.0,12.0,0.0
11270,43.0,4.0,15.0,13.0,0.0
11271,41.0,10.0,15.0,15.0,0.0
11272,76.0,0.0,15.0,8.0,0.0
11273,61.0,1.0,15.0,12.0,0.0
11274,64.0,0.0,15.0,12.0,0.0
11275,43.0,8.0,15.0,13.0,0.0
11276,41.0,0.0,15.0,15.0,0.0
11277,73.0,0.0,15.0,8.0,0.0
11278,64.0,0.0,15.0,12.0,0.0
11279,61.0,1.0,15.0,12.0,0.0
11280,43.0,3.0,15.0,13.0,0.0
11281,41.0,11.0,15.0,15.0,0.0
11282,65.0,1.0,15.0,8.0,0.0
11283,64.0,0.0,15.0,12.0,0.0
11284,61.0,0.0,15.0,12.0,0.0
11285,43.0,8.0,15.0,13.0,0.0
11286,41.0,0.0,15.0,15.0,0.0
11287,73.0,0.0,15.0,8.0,0.0
11288,61.0,1.0,15.0,12.0,0.0
11289,64.0,0.0,15.0,12.0,0.0
11290,43.0,1.0,15.0,13.0,0.0
11291,41.0,5.0,15.0,15.0,0.0
11292,63.0,1.0,120.0,2.0,0.0
11293,60.0,0.0,120.0,2.0,0.0
11294,87.0,2.0,15.0,7.0,0.0
11295,75.0,1.0,120.0,0.0,0.0
11296,72.0,0.0,120.0,0.0,0.0
11297,65.0,1.0,720.0,6.0,0.0
11298,75.0,0.0,120.0,1.0,0.0
11299,72.0,0.0,120.0,1.0,0.0
11300,60.0,0.0,15.0,12.0,0.0
11301,63.0,1.0,15.0,12.0,0.0
11302,45.0,7.0,15.0,13.0,0.0
11303,60.0,2.0,120.0,3.0,0.0
11304,41.0,0.0,15.0,15.0,0.0
11305,84.0,1.0,15.0,7.0,0.0
11306,63.0,0.0,15.0,12.0,0.0
11307,60.0,1.0,15.0,12.0,0.0
11308,45.0,2.0,15.0,13.0,0.0
11309,41.0,6.0,15.0,15.0,0.0
11310,77.0,2.0,15.0,7.0,0.0
11311,41.0,10.0,15.0,15.0,0.0
11312,60.0,1.0,15.0,12.0,0.0
11313,63.0,0.0,15.0,12.0,0.0
11314,45.0,6.0,15.0,13.0,0.0
11315,41.0,0.0,15.0,15.0,0.0
11316,84.0,1.0,15.0,7.0,0.0
11317,63.0,0.0,15.0,12.0,0.0
11318,60.0,1.0,15.0,12.0,0.0
11319,45.0,1.0,15.0,13.0,0.0
11320,41.0,11.0,15.0,15.0,0.0
11321,75.0,1.0,15.0,8.0,0.0
11322,63.0,0.0,15.0,12.0,0.0
11323,60.0,1.0,15.0,12.0,0.0
11324,45.0,7.0,15.0,13.0,0.0
11325,41.0,1.0,15.0,15.0,0.0
11326,72.0,0.0,15.0,8.0,0.0
11327,60.0,0.0,15.0,12.0,0.0
11328,63.0,1.0,15.0,12.0,0.0
11329,45.0,2.0,15.0,13.0,0.0
11330,41.0,7.0,15.0,15.0,0.0
11331,65.0,1.0,15.0,8.0,0.0
11332,41.0,10.0,15.0,15.0,0.0
11333,60.0,0.0,15.0,12.0,0.0
11334,63.0,0.0,15.0,12.0,0.0
11335,45.0,8.0,15.0,13.0,0.0
11336,72.0,0.0,15.0,8.0,0.0
11337,60.0,0.0,15.0,12.0,0.0
11338,63.0,1.0,15.0,12.0,0.0
11339,45.0,1.0,15.0,13.0,0.0
11340,41.0,4.0,15.0,15.0,0.0
11341,86.0,3.0,15.0,7.0,0.0
11342,58.0,0.0,120.0,2.0,0.0
11343,62.0,1.0,120.0,2.0,0.0
11344,70.0,1.0,120.0,0.0,0.0
11345,74.0,0.0,120.0,0.0,0.0
11346,74.0,0.0,120.0,1.0,0.0
11347,70.0,3.0,120.0,1.0,0.0
11348,41.0,0.0,15.0,15.0,0.0
11349,58.0,0.0,15.0,12.0,0.0
11350,62.0,1.0,15.0,12.0,0.0
11351,46.0,8.0,15.0,13.0,0.0
11352,62.0,2.0,120.0,3.0,0.0
11353,82.0,2.0,15.0,7.0,0.0
11354,62.0,0.0,15.0,12.0,0.0
11355,58.0,1.0,15.0,12.0,0.0
11356,46.0,1.0,15.0,13.0,0.0
11357,41.0,4.0,15.0,15.0,0.0
11358,77.0,1.0,15.0,7.0,0.0
11359,62.0,1.0,15.0,12.0,0.0
11360,58.0,0.0,15.0,12.0,0.0
11361,46.0,7.0,15.0,13.0,0.0
11362,41.0,2.0,15.0,15.0,0.0
11363,82.0,2.0,15.0,7.0,0.0
11364,58.0,0.0,15.0,12.0,0.0
11365,62.0,1.0,15.0,12.0,0.0
11366,46.0,4.0,15.0,13.0,0.0
11367,41.0,10.0,15.0,15.0,0.0
11368,74.0,1.0,15.0,8.0,0.0
11369,62.0,0.0,15.0,12.0,0.0
11370,58.0,0.0,15.0,12.0,0.0
11371,46.0,0.0,15.0,13.0,0.0
11372,41.0,8.0,15.0,15.0,0.0
11373,70.0,1.0,15.0,8.0,0.0
11374,58.0,0.0,15.0,12.0,0.0
11375,62.0,0.0,15.0,12.0,0.0
11376,46.0,3.0,15.0,13.0,0.0
11377,41.0,6.0,15.0,15.0,0.0
11378,65.0,0.0,15.0,8.0,0.0
11379,58.0,0.0,15.0,12.0,0.0
11380,62.0,1.0,15.0,12.0,0.0
11381,46.0,0.0,15.0,13.0,0.0
11382,41.0,8.0,15.0,15.0,0.0
11383,70.0,1.0,15.0,8.0,0.0
11384,62.0,1.0,15.0,12.0,0.0
11385,58.0,0.0,15.0,12.0,0.0
11386,46.0,0.0,15.0,13.0,0.0
11387,41.0,5.0,15.0,15.0,0.0
11388,81.0,3.0,15.0,7.0,0.0
11389,60.0,1.0,120.0,2.0,0.0
11390,69.0,0.0,120.0,2.0,0.0
11391,81.0,0.0,120.0,0.0,0.0
11392,77.0,3.0,120.0,0.0,0.0
11393,69.0,0.0,120.0,1.0,0.0
11394,65.0,1.0,120.0,1.0,0.0
11395,57.0,1.0,15.0,12.0,0.0
11396,60.0,0.0,15.0,12.0,0.0
11397,51.0,7.0,15.0,13.0,0.0
11398,63.0,2.0,120.0,3.0,0.0
11399,77.0,3.0,15.0,7.0,0.0
11400,41.0,0.0,15.0,15.0,0.0
11401,60.0,1.0,15.0,12.0,0.0
11402,57.0,0.0,15.0,12.0,0.0
11403,51.0,2.0,15.0,13.0,0.0
11404,41.0,9.0,15.0,15.0,0.0
11405,72.0,1.0,15.0,7.0,0.0
11406,60.0,1.0,15.0,12.0,0.0
11407,57.0,0.0,15.0,12.0,0.0
11408,51.0,6.0,15.0,13.0,0.0
11409,41.0,2.0,15.0,15.0,0.0
11410,77.0,1.0,15.0,7.0,0.0
11411,57.0,0.0,15.0,12.0,0.0
11412,60.0,1.0,15.0,12.0,0.0
11413,51.0,1.0,15.0,13.0,0.0
11414,41.0,7.0,15.0,15.0,0.0
11415,69.0,7.0,15.0,8.0,0.0
11416,60.0,1.0,15.0,12.0,0.0
11417,57.0,0.0,15.0,12.0,0.0
11418,51.0,0.0,15.0,13.0,0.0
11419,41.0,2.0,15.0,15.0,0.0
11420,65.0,1.0,15.0,8.0,0.0
11421,60.0,0.0,15.0,12.0,0.0
11422,57.0,0.0,15.0,12.0,0.0
11423,51.0,2.0,15.0,13.0,0.0
11424,60.0,8.0,15.0,8.0,0.0
11425,41.0,10.0,15.0,15.0,0.0
11426,57.0,0.0,15.0,12.0,0.0
11427,60.0,1.0,15.0,12.0,0.0
11428,51.0,0.0,15.0,13.0,0.0
11429,65.0,1.0,15.0,8.0,0.0
11430,57.0,0.0,15.0,12.0,0.0
11431,60.0,1.0,15.0,12.0,0.0
11432,51.0,1.0,15.0,13.0,0.0
11433,41.0,0.0,15.0,15.0,0.0
11434,82.0,0.0,15.0,7.0,0.0
11435,70.0,0.0,240.0,2.0,0.0
11436,58.0,1.0,240.0,2.0,0.0
11437,82.0,3.0,120.0,0.0,0.0
11438,77.0,1.0,120.0,0.0,0.0
11439,65.0,3.0,120.0,1.0,0.0
11440,70.0,2.0,120.0,1.0,0.0
11441,41.0,8.0,15.0,15.0,0.0
11442,58.0,1.0,15.0,12.0,0.0
11443,50.0,8.0,15.0,13.0,0.0
11444,62.0,2.0,120.0,3.0,0.0
11445,77.0,2.0,15.0,7.0,0.0
11446,58.0,1.0,15.0,12.0,0.0
11447,50.0,1.0,15.0,13.0,0.0
11448,41.0,4.0,15.0,15.0,0.0
11449,70.0,0.0,15.0,7.0,0.0
11450,58.0,1.0,15.0,12.0,0.0
11451,50.0,7.0,15.0,13.0,0.0
11452,41.0,2.0,15.0,15.0,0.0
11453,77.0,1.0,15.0,7.0,0.0
11454,58.0,1.0,15.0,12.0,0.0
11455,50.0,4.0,15.0,13.0,0.0
11456,41.0,10.0,15.0,15.0,0.0
11457,70.0,0.0,15.0,8.0,0.0
11458,58.0,1.0,15.0,12.0,0.0
11459,50.0,0.0,15.0,13.0,0.0
11460,41.0,8.0,15.0,15.0,0.0
11461,65.0,1.0,15.0,8.0,0.0
11462,58.0,0.0,15.0,12.0,0.0
11463,50.0,3.0,15.0,13.0,0.0
11464,41.0,6.0,15.0,15.0,0.0
11465,58.0,1.0,15.0,8.0,0.0
11466,58.0,1.0,15.0,12.0,0.0
11467,50.0,8.0,15.0,13.0,0.0
11468,41.0,0.0,15.0,15.0,0.0
11469,65.0,0.0,15.0,8.0,0.0
11470,58.0,1.0,15.0,12.0,0.0
11471,50.0,1.0,15.0,13.0,0.0
11472,82.0,3.0,15.0,7.0,0.0
11473,82.0,1.0,120.0,0.0,0.0
11474,76.0,0.0,120.0,0.0,0.0
11475,64.0,0.0,120.0,1.0,0.0
11476,70.0,0.0,120.0,1.0,0.0
11477,58.0,0.0,15.0,12.0,0.0
11478,41.0,5.0,15.0,15.0,0.0
11479,52.0,0.0,15.0,12.0,0.0
11480,49.0,7.0,15.0,13.0,0.0
11481,61.0,2.0,120.0,3.0,0.0
11482,41.0,1.0,15.0,15.0,0.0
11483,76.0,1.0,15.0,7.0,0.0
11484,52.0,1.0,15.0,12.0,0.0
11485,58.0,0.0,15.0,12.0,0.0
11486,49.0,2.0,15.0,13.0,0.0
11487,41.0,6.0,15.0,15.0,0.0
11488,70.0,1.0,15.0,7.0,0.0
11489,41.0,10.0,15.0,15.0,0.0
11490,58.0,1.0,15.0,12.0,0.0
11491,52.0,0.0,15.0,12.0,0.0
11492,49.0,6.0,15.0,13.0,0.0
11493,41.0,1.0,15.0,15.0,0.0
11494,76.0,1.0,15.0,7.0,0.0
11495,52.0,0.0,15.0,12.0,0.0
11496,58.0,1.0,15.0,12.0,0.0
11497,49.0,1.0,15.0,13.0,0.0
11498,41.0,11.0,15.0,15.0,0.0
11499,70.0,0.0,15.0,8.0,0.0
11500,41.0,2.0,15.0,15.0,0.0
11501,52.0,0.0,15.0,12.0,0.0
11502,58.0,1.0,15.0,12.0,0.0
11503,49.0,7.0,15.0,13.0,0.0
11504,63.0,2.0,15.0,8.0,0.0
11505,58.0,0.0,15.0,12.0,0.0
11506,52.0,1.0,15.0,12.0,0.0
11507,49.0,0.0,15.0,13.0,0.0
11508,41.0,7.0,15.0,15.0,0.0
11509,58.0,8.0,15.0,8.0,0.0
11510,41.0,2.0,15.0,15.0,0.0
11511,58.0,1.0,15.0,12.0,0.0
11512,52.0,0.0,15.0,12.0,0.0
11513,49.0,0.0,15.0,13.0,0.0
11514,63.0,0.0,15.0,8.0,0.0
11515,52.0,1.0,15.0,12.0,0.0
11516,58.0,0.0,15.0,12.0,0.0
11517,49.0,1.0,15.0,13.0,0.0
11518,41.0,4.0,15.0,15.0,0.0
11519,69.0,0.0,120.0,2.0,0.0
11520,60.0,1.0,120.0,2.0,0.0
11521,81.0,1.0,120.0,0.0,0.0
11522,77.0,0.0,120.0,0.0,0.0
11523,81.0,1.0,15.0,7.0,0.0
11524,63.0,3.0,120.0,1.0,0.0
11525,69.0,0.0,120.0,1.0,0.0
11526,41.0,8.0,15.0,15.0,0.0
11527,51.0,0.0,15.0,12.0,0.0
11528,57.0,1.0,15.0,12.0,0.0
11529,48.0,8.0,15.0,13.0,0.0
11530,60.0,5.0,120.0,3.0,0.0
11531,75.0,3.0,15.0,7.0,0.0
11532,57.0,1.0,15.0,12.0,0.0
11533,51.0,0.0,15.0,12.0,0.0
11534,48.0,1.0,15.0,13.0,0.0
11535,41.0,3.0,15.0,15.0,0.0
11536,69.0,1.0,15.0,7.0,0.0
11537,41.0,2.0,15.0,15.0,0.0
11538,57.0,1.0,15.0,12.0,0.0
11539,51.0,0.0,15.0,12.0,0.0
11540,48.0,7.0,15.0,13.0,0.0
11541,41.0,6.0,15.0,15.0,0.0
11542,75.0,1.0,15.0,7.0,0.0
11543,51.0,0.0,15.0,12.0,0.0
11544,57.0,1.0,15.0,12.0,0.0
11545,48.0,4.0,15.0,13.0,0.0
11546,41.0,10.0,15.0,15.0,0.0
11547,69.0,0.0,15.0,8.0,0.0
11548,57.0,0.0,15.0,12.0,0.0
11549,51.0,1.0,15.0,12.0,0.0
11550,48.0,8.0,15.0,13.0,0.0
11551,41.0,0.0,15.0,15.0,0.0
11552,63.0,0.0,15.0,8.0,0.0
11553,57.0,1.0,15.0,12.0,0.0
11554,51.0,0.0,15.0,12.0,0.0
11555,48.0,3.0,15.0,13.0,0.0
11556,41.0,6.0,15.0,15.0,0.0
11557,57.0,0.0,15.0,8.0,0.0
11558,57.0,0.0,15.0,12.0,0.0
11559,51.0,1.0,15.0,12.0,0.0
11560,48.0,8.0,15.0,13.0,0.0
11561,41.0,0.0,15.0,15.0,0.0
11562,60.0,0.0,15.0,8.0,0.0
11563,57.0,0.0,15.0,12.0,0.0
11564,51.0,1.0,15.0,12.0,0.0
11565,48.0,0.0,15.0,13.0,0.0
11566,70.0,0.0,60.0,2.0,0.0
11567,62.0,0.0,60.0,2.0,0.0
11568,82.0,1.0,60.0,7.0,0.0
11569,70.0,1.0,60.0,7.0,0.0
11570,82.0,0.0,60.0,0.0,0.0
11571,74.0,0.0,60.0,7.0,0.0
11572,77.0,0.0,60.0,0.0,0.0
11573,65.0,0.0,60.0,8.0,0.0
11574,58.0,1.0,60.0,8.0,0.0
11575,50.0,8.0,60.0,4.0,0.0
11576,41.0,0.0,15.0,4.0,0.0
11577,62.0,0.0,60.0,1.0,0.0
11578,70.0,0.0,60.0,1.0,0.0
11579,58.0,0.0,15.0,12.0,0.0
11580,41.0,1.0,15.0,15.0,0.0
11581,46.0,7.0,15.0,13.0,0.0
11582,58.0,3.0,60.0,3.0,0.0
11583,29.0,1.0,840.0,14.0,0.0
11584,41.0,1.0,15.0,15.0,0.0
11585,58.0,1.0,15.0,12.0,0.0
11586,46.0,2.0,15.0,13.0,0.0
11587,41.0,10.0,15.0,15.0,0.0
11588,58.0,1.0,15.0,12.0,0.0
11589,46.0,6.0,15.0,13.0,0.0
11590,41.0,2.0,15.0,15.0,0.0
11591,58.0,0.0,15.0,12.0,0.0
11592,46.0,1.0,15.0,13.0,0.0
11593,41.0,0.0,15.0,15.0,0.0
11594,53.0,0.0,60.0,4.0,0.0
11595,41.0,2.0,15.0,15.0,0.0
11596,58.0,1.0,15.0,12.0,0.0
11597,46.0,7.0,15.0,13.0,0.0
11598,41.0,7.0,15.0,15.0,0.0
11599,58.0,1.0,15.0,12.0,0.0
11600,46.0,2.0,15.0,13.0,0.0
11601,41.0,10.0,15.0,15.0,0.0
11602,58.0,1.0,15.0,12.0,0.0
11603,46.0,8.0,15.0,13.0,0.0
11604,58.0,1.0,15.0,12.0,0.0
11605,46.0,1.0,15.0,13.0,0.0
11606,41.0,6.0,15.0,15.0,0.0
11607,58.0,3.0,60.0,4.0,0.0
11608,41.0,3.0,15.0,15.0,0.0
11609,58.0,1.0,15.0,12.0,0.0
11610,46.0,8.0,15.0,13.0,0.0
11611,58.0,1.0,15.0,12.0,0.0
11612,46.0,1.0,15.0,13.0,0.0
11613,41.0,6.0,15.0,15.0,0.0
11614,58.0,1.0,15.0,12.0,0.0
11615,46.0,7.0,15.0,13.0,0.0
11616,41.0,2.0,15.0,15.0,0.0
11617,58.0,1.0,15.0,12.0,0.0
11618,46.0,1.0,15.0,13.0,0.0
11619,41.0,10.0,15.0,15.0,0.0
11620,62.0,3.0,60.0,4.0,0.0
11621,58.0,1.0,15.0,12.0,0.0
11622,46.0,8.0,15.0,13.0,0.0
11623,41.0,0.0,15.0,15.0,0.0
11624,58.0,1.0,15.0,12.0,0.0
11625,46.0,3.0,15.0,13.0,0.0
11626,41.0,11.0,15.0,15.0,0.0
11627,58.0,1.0,15.0,12.0,0.0
11628,46.0,8.0,15.0,13.0,0.0
11629,41.0,0.0,15.0,15.0,0.0
11630,58.0,1.0,15.0,12.0,0.0
11631,46.0,1.0,15.0,13.0,0.0
11632,41.0,10.0,15.0,15.0,0.0
11633,50.0,2.0,60.0,2.0,0.0
11634,65.0,1.0,180.0,4.0,0.0
11635,56.0,0.0,15.0,12.0,0.0
11636,44.0,7.0,15.0,13.0,0.0
11637,50.0,3.0,60.0,3.0,0.0
11638,46.0,0.0,480.0,3.0,0.0
11639,41.0,1.0,15.0,15.0,0.0
11640,56.0,1.0,15.0,12.0,0.0
11641,44.0,2.0,15.0,13.0,0.0
11642,41.0,10.0,15.0,15.0,0.0
11643,56.0,1.0,15.0,12.0,0.0
11644,44.0,6.0,15.0,13.0,0.0
11645,41.0,2.0,15.0,15.0,0.0
11646,56.0,1.0,15.0,12.0,0.0
11647,44.0,1.0,15.0,13.0,0.0
11648,41.0,8.0,15.0,15.0,0.0
11649,53.0,2.0,60.0,2.0,0.0
11650,41.0,2.0,15.0,15.0,0.0
11651,56.0,1.0,15.0,12.0,0.0
11652,44.0,7.0,15.0,13.0,0.0
11653,53.0,2.0,60.0,3.0,0.0
11654,56.0,1.0,15.0,12.0,0.0
11655,44.0,2.0,15.0,13.0,0.0
11656,41.0,7.0,15.0,15.0,0.0
11657,41.0,2.0,15.0,15.0,0.0
11658,56.0,1.0,15.0,12.0,0.0
11659,44.0,8.0,15.0,13.0,0.0
11660,56.0,1.0,15.0,12.0,0.0
11661,44.0,1.0,15.0,13.0,0.0
11662,41.0,4.0,15.0,15.0,0.0
11663,58.0,2.0,60.0,2.0,0.0
11664,41.0,8.0,15.0,15.0,0.0
11665,56.0,1.0,15.0,12.0,0.0
11666,44.0,8.0,15.0,13.0,0.0
11667,58.0,5.0,60.0,3.0,0.0
11668,56.0,1.0,15.0,12.0,0.0
11669,44.0,1.0,15.0,13.0,0.0
11670,41.0,6.0,15.0,15.0,0.0
11671,56.0,1.0,15.0,12.0,0.0
11672,44.0,7.0,15.0,13.0,0.0
11673,41.0,2.0,15.0,15.0,0.0
11674,56.0,1.0,15.0,12.0,0.0
11675,44.0,4.0,15.0,13.0,0.0
11676,41.0,5.0,15.0,15.0,0.0
11677,62.0,2.0,60.0,2.0,0.0
11678,58.0,1.0,60.0,4.0,0.0
11679,56.0,1.0,15.0,12.0,0.0
11680,44.0,0.0,15.0,13.0,0.0
11681,62.0,5.0,60.0,3.0,0.0
11682,41.0,8.0,15.0,15.0,0.0
11683,56.0,1.0,15.0,12.0,0.0
11684,44.0,3.0,15.0,13.0,0.0
11685,41.0,6.0,15.0,15.0,0.0
11686,56.0,1.0,15.0,12.0,0.0
11687,44.0,0.0,15.0,13.0,0.0
11688,41.0,8.0,15.0,15.0,0.0
11689,56.0,1.0,15.0,12.0,0.0
11690,44.0,4.0,15.0,13.0,0.0
11691,41.0,5.0,15.0,15.0,0.0
11692,70.0,4.0,180.0,2.0,0.0
11693,63.0,3.0,120.0,4.0,0.0
11694,58.0,11.0,60.0,1.0,0.0
11695,55.0,1.0,15.0,12.0,0.0
11696,43.0,7.0,15.0,13.0,0.0
11697,65.0,10.0,180.0,3.0,0.0
11698,41.0,0.0,15.0,15.0,0.0
11699,55.0,1.0,15.0,12.0,0.0
11700,43.0,2.0,15.0,13.0,0.0
11701,41.0,7.0,15.0,15.0,0.0
11702,41.0,10.0,15.0,15.0,0.0
11703,55.0,1.0,15.0,12.0,0.0
11704,43.0,6.0,15.0,13.0,0.0
11705,41.0,2.0,15.0,15.0,0.0
11706,55.0,1.0,15.0,12.0,0.0
11707,43.0,1.0,15.0,13.0,0.0
11708,41.0,8.0,15.0,15.0,0.0
11709,63.0,0.0,60.0,1.0,0.0
11710,55.0,1.0,15.0,12.0,0.0
11711,43.0,7.0,15.0,13.0,0.0
11712,41.0,2.0,15.0,15.0,0.0
11713,55.0,1.0,15.0,12.0,0.0
11714,43.0,2.0,15.0,13.0,0.0
11715,41.0,7.0,15.0,15.0,0.0
11716,41.0,2.0,15.0,15.0,0.0
11717,55.0,1.0,15.0,12.0,0.0
11718,43.0,8.0,15.0,13.0,0.0
11719,55.0,1.0,15.0,12.0,0.0
11720,43.0,1.0,15.0,13.0,0.0
11721,41.0,3.0,15.0,15.0,0.0
11722,67.0,3.0,60.0,1.0,0.0
11723,62.0,3.0,60.0,4.0,0.0
11724,41.0,3.0,15.0,15.0,0.0
11725,55.0,1.0,15.0,12.0,0.0
11726,43.0,8.0,15.0,13.0,0.0
11727,55.0,1.0,15.0,12.0,0.0
11728,43.0,1.0,15.0,13.0,0.0
11729,41.0,6.0,15.0,15.0,0.0
11730,41.0,2.0,15.0,15.0,0.0
11731,55.0,1.0,15.0,12.0,0.0
11732,43.0,7.0,15.0,13.0,0.0
11733,41.0,0.0,15.0,15.0,0.0
11734,55.0,1.0,15.0,12.0,0.0
11735,43.0,1.0,15.0,13.0,0.0
11736,41.0,0.0,15.0,15.0,0.0
11737,70.0,1.0,60.0,2.0,0.0
11738,70.0,3.0,60.0,1.0,0.0
11739,60.0,0.0,60.0,4.0,0.0
11740,55.0,1.0,15.0,12.0,0.0
11741,43.0,8.0,15.0,13.0,0.0
11742,65.0,10.0,60.0,3.0,0.0
11743,41.0,0.0,15.0,15.0,0.0
11744,55.0,1.0,15.0,12.0,0.0
11745,43.0,3.0,15.0,13.0,0.0
11746,41.0,11.0,15.0,15.0,0.0
11747,55.0,1.0,15.0,12.0,0.0
11748,43.0,7.0,15.0,13.0,0.0
11749,41.0,0.0,15.0,15.0,0.0
11750,55.0,1.0,15.0,12.0,0.0
11751,43.0,4.0,15.0,13.0,0.0
11752,70.0,1.0,180.0,2.0,0.0
11753,60.0,2.0,60.0,2.0,0.0
11754,75.0,1.0,120.0,1.0,0.0
11755,60.0,8.0,120.0,4.0,0.0
11756,53.0,1.0,15.0,12.0,0.0
11757,41.0,0.0,15.0,15.0,0.0
11758,41.0,7.0,15.0,13.0,0.0
11759,63.0,1.0,120.0,3.0,0.0
11760,48.0,0.0,120.0,3.0,0.0
11761,41.0,0.0,15.0,15.0,0.0
11762,53.0,1.0,15.0,12.0,0.0
11763,41.0,2.0,15.0,13.0,0.0
11764,41.0,7.0,15.0,15.0,0.0
11765,53.0,1.0,15.0,12.0,0.0
11766,41.0,6.0,15.0,13.0,0.0
11767,41.0,2.0,15.0,15.0,0.0
11768,53.0,1.0,15.0,12.0,0.0
11769,41.0,1.0,15.0,13.0,0.0
11770,41.0,6.0,15.0,15.0,0.0
11771,63.0,2.0,60.0,2.0,0.0
11772,41.0,2.0,15.0,15.0,0.0
11773,53.0,1.0,15.0,12.0,0.0
11774,41.0,7.0,15.0,13.0,0.0
11775,41.0,7.0,15.0,15.0,0.0
11776,53.0,1.0,15.0,12.0,0.0
11777,41.0,2.0,15.0,13.0,0.0
11778,41.0,10.0,15.0,15.0,0.0
11779,53.0,1.0,15.0,12.0,0.0
11780,41.0,8.0,15.0,13.0,0.0
11781,53.0,1.0,15.0,12.0,0.0
11782,41.0,1.0,15.0,13.0,0.0
11783,41.0,3.0,15.0,15.0,0.0
11784,65.0,0.0,60.0,2.0,0.0
11785,69.0,1.0,60.0,10.0,0.0
11786,65.0,1.0,60.0,10.0,0.0
11787,74.0,0.0,60.0,1.0,0.0
11788,65.0,3.0,60.0,11.0,0.0
11789,41.0,3.0,15.0,15.0,0.0
11790,65.0,1.0,120.0,4.0,0.0
11791,53.0,1.0,15.0,12.0,0.0
11792,39.0,8.0,15.0,13.0,0.0
11793,39.0,0.0,120.0,3.0,0.0
11794,53.0,1.0,120.0,3.0,0.0
11795,27.0,9.0,120.0,14.0,0.0
11796,53.0,1.0,15.0,12.0,0.0
11797,39.0,1.0,15.0,13.0,0.0
11798,41.0,6.0,15.0,15.0,0.0
11799,53.0,1.0,15.0,12.0,0.0
11800,39.0,7.0,15.0,13.0,0.0
11801,41.0,2.0,15.0,15.0,0.0
11802,53.0,0.0,15.0,12.0,0.0
11803,39.0,1.0,15.0,13.0,0.0
11804,41.0,10.0,15.0,15.0,0.0
11805,69.0,2.0,60.0,2.0,0.0
11806,72.0,0.0,60.0,1.0,0.0
11807,53.0,1.0,15.0,12.0,0.0
11808,39.0,0.0,15.0,13.0,0.0
11809,41.0,8.0,15.0,15.0,0.0
11810,53.0,1.0,15.0,12.0,0.0
11811,39.0,3.0,15.0,13.0,0.0
11812,41.0,11.0,15.0,15.0,0.0
11813,53.0,1.0,15.0,12.0,0.0
11814,39.0,0.0,15.0,13.0,0.0
11815,41.0,8.0,15.0,15.0,0.0
11816,53.0,1.0,15.0,12.0,0.0
11817,39.0,4.0,15.0,13.0,0.0
11818,41.0,0.0,15.0,15.0,0.0
11819,70.0,1.0,120.0,2.0,0.0
11820,77.0,1.0,240.0,2.0,0.0
11821,65.0,1.0,60.0,10.0,0.0
11822,65.0,0.0,60.0,0.0,0.0
11823,77.0,1.0,60.0,10.0,0.0
11824,65.0,0.0,60.0,11.0,0.0
11825,77.0,0.0,60.0,11.0,0.0
11826,58.0,0.0,60.0,11.0,0.0
11827,70.0,3.0,180.0,1.0,0.0
11828,53.0,0.0,60.0,4.0,0.0
11829,53.0,1.0,15.0,12.0,0.0
11830,38.0,7.0,15.0,13.0,0.0
11831,58.0,0.0,720.0,3.0,0.0
11832,38.0,5.0,240.0,3.0,0.0
11833,26.0,4.0,240.0,14.0,0.0
11834,41.0,0.0,15.0,15.0,0.0
11835,53.0,1.0,15.0,12.0,0.0
11836,38.0,2.0,15.0,13.0,0.0
11837,41.0,10.0,15.0,15.0,0.0
11838,53.0,1.0,15.0,12.0,0.0
11839,38.0,6.0,15.0,13.0,0.0
11840,41.0,2.0,15.0,15.0,0.0
11841,53.0,1.0,15.0,12.0,0.0
11842,38.0,1.0,15.0,13.0,0.0
11843,41.0,11.0,15.0,15.0,0.0
11844,70.0,1.0,60.0,0.0,0.0
11845,58.0,10.0,60.0,4.0,0.0
11846,53.0,1.0,15.0,12.0,0.0
11847,38.0,7.0,15.0,13.0,0.0
11848,41.0,2.0,15.0,15.0,0.0
11849,53.0,1.0,15.0,12.0,0.0
11850,38.0,2.0,15.0,13.0,0.0
11851,41.0,10.0,15.0,15.0,0.0
11852,53.0,1.0,15.0,12.0,0.0
11853,38.0,8.0,15.0,13.0,0.0
11854,53.0,1.0,15.0,12.0,0.0
11855,38.0,1.0,15.0,13.0,0.0
11856,41.0,4.0,15.0,15.0,0.0
11857,65.0,2.0,240.0,2.0,0.0
11858,74.0,1.0,60.0,0.0,0.0
11859,41.0,0.0,15.0,15.0,0.0
11860,62.0,0.0,60.0,4.0,0.0
11861,53.0,1.0,15.0,12.0,0.0
11862,38.0,8.0,15.0,13.0,0.0
11863,53.0,1.0,15.0,12.0,0.0
11864,38.0,1.0,15.0,13.0,0.0
11865,41.0,6.0,15.0,15.0,0.0
11866,53.0,1.0,15.0,12.0,0.0
11867,38.0,7.0,15.0,13.0,0.0
11868,41.0,2.0,15.0,15.0,0.0
11869,53.0,1.0,15.0,12.0,0.0
11870,38.0,1.0,15.0,13.0,0.0
11871,41.0,10.0,15.0,15.0,0.0
11872,77.0,1.0,60.0,0.0,0.0
11873,65.0,2.0,60.0,4.0,0.0
11874,74.0,3.0,60.0,1.0,0.0
11875,53.0,1.0,15.0,12.0,0.0
11876,38.0,0.0,15.0,13.0,0.0
11877,41.0,8.0,15.0,15.0,0.0
11878,53.0,1.0,15.0,12.0,0.0
11879,38.0,3.0,15.0,13.0,0.0
11880,41.0,6.0,15.0,15.0,0.0
11881,53.0,1.0,15.0,12.0,0.0
11882,38.0,0.0,15.0,13.0,0.0
11883,41.0,7.0,15.0,15.0,0.0
11884,53.0,1.0,15.0,12.0,0.0
11885,38.0,1.0,15.0,13.0,0.0
11886,79.0,1.0,240.0,2.0,0.0
11887,58.0,0.0,60.0,11.0,0.0
11888,70.0,1.0,60.0,10.0,0.0
11889,79.0,0.0,60.0,10.0,0.0
11890,65.0,1.0,60.0,11.0,0.0
11891,79.0,3.0,180.0,0.0,0.0
11892,58.0,0.0,60.0,10.0,0.0
11893,65.0,0.0,120.0,4.0,0.0
11894,77.0,3.0,180.0,1.0,0.0
11895,65.0,0.0,60.0,1.0,0.0
11896,77.0,0.0,60.0,11.0,0.0
11897,41.0,1.0,15.0,15.0,0.0
11898,53.0,1.0,15.0,12.0,0.0
11899,37.0,7.0,15.0,13.0,0.0
11900,37.0,5.0,240.0,3.0,0.0
11901,25.0,4.0,240.0,14.0,0.0
11902,41.0,0.0,15.0,15.0,0.0
11903,53.0,1.0,15.0,12.0,0.0
11904,37.0,2.0,15.0,13.0,0.0
11905,41.0,10.0,15.0,15.0,0.0
11906,53.0,1.0,15.0,12.0,0.0
11907,37.0,6.0,15.0,13.0,0.0
11908,41.0,2.0,15.0,15.0,0.0
11909,53.0,1.0,15.0,12.0,0.0
11910,37.0,1.0,15.0,13.0,0.0
11911,41.0,6.0,15.0,15.0,0.0
11912,70.0,0.0,60.0,1.0,0.0
11913,53.0,1.0,15.0,12.0,0.0
11914,37.0,7.0,15.0,13.0,0.0
11915,41.0,2.0,15.0,15.0,0.0
11916,53.0,1.0,15.0,12.0,0.0
11917,37.0,2.0,15.0,13.0,0.0
11918,41.0,10.0,15.0,15.0,0.0
11919,53.0,1.0,15.0,12.0,0.0
11920,37.0,8.0,15.0,13.0,0.0
11921,53.0,1.0,15.0,12.0,0.0
11922,37.0,1.0,15.0,13.0,0.0
11923,41.0,4.0,15.0,15.0,0.0
11924,58.0,0.0,120.0,2.0,0.0
11925,73.0,3.0,60.0,1.0,0.0
11926,41.0,0.0,15.0,15.0,0.0
11927,46.0,3.0,120.0,4.0,0.0
11928,58.0,0.0,120.0,4.0,0.0
11929,53.0,1.0,15.0,12.0,0.0
11930,37.0,8.0,15.0,13.0,0.0
11931,53.0,1.0,15.0,12.0,0.0
11932,37.0,1.0,15.0,13.0,0.0
11933,41.0,6.0,15.0,15.0,0.0
11934,53.0,1.0,15.0,12.0,0.0
11935,37.0,7.0,15.0,13.0,0.0
11936,41.0,2.0,15.0,15.0,0.0
11937,53.0,1.0,15.0,12.0,0.0
11938,37.0,1.0,15.0,13.0,0.0
11939,41.0,10.0,15.0,15.0,0.0
11940,79.0,3.0,60.0,0.0,0.0
11941,77.0,0.0,60.0,1.0,0.0
11942,53.0,1.0,15.0,12.0,0.0
11943,37.0,8.0,15.0,13.0,0.0
11944,41.0,0.0,15.0,15.0,0.0
11945,53.0,1.0,15.0,12.0,0.0
11946,37.0,3.0,15.0,13.0,0.0
11947,41.0,11.0,15.0,15.0,0.0
11948,53.0,1.0,15.0,12.0,0.0
11949,37.0,7.0,15.0,13.0,0.0
11950,41.0,0.0,15.0,15.0,0.0
11951,53.0,1.0,15.0,12.0,0.0
11952,37.0,4.0,15.0,13.0,0.0
11953,41.0,1.0,15.0,15.0,0.0
11954,79.0,1.0,60.0,10.0,0.0
11955,76.0,0.0,60.0,11.0,0.0
11956,60.0,0.0,60.0,11.0,0.0
11957,60.0,1.0,60.0,2.0,0.0
11958,70.0,0.0,240.0,2.0,0.0
11959,79.0,4.0,120.0,0.0,0.0
11960,58.0,0.0,60.0,10.0,0.0
11961,70.0,1.0,60.0,10.0,0.0
11962,70.0,1.0,60.0,11.0,0.0
11963,76.0,0.0,240.0,1.0,0.0
11964,60.0,2.0,240.0,4.0,0.0
11965,41.0,0.0,15.0,15.0,0.0
11966,52.0,1.0,15.0,12.0,0.0
11967,36.0,7.0,15.0,13.0,0.0
11968,36.0,5.0,240.0,3.0,0.0
11969,24.0,4.0,240.0,14.0,0.0
11970,52.0,1.0,15.0,12.0,0.0
11971,36.0,2.0,15.0,13.0,0.0
11972,46.0,7.0,15.0,15.0,0.0
11973,52.0,1.0,15.0,12.0,0.0
11974,36.0,6.0,15.0,13.0,0.0
11975,46.0,2.0,15.0,15.0,0.0
11976,52.0,1.0,15.0,12.0,0.0
11977,36.0,0.0,15.0,13.0,0.0
11978,46.0,5.0,15.0,15.0,0.0
11979,64.0,2.0,60.0,2.0,0.0
11980,52.0,1.0,15.0,12.0,0.0
11981,36.0,7.0,15.0,13.0,0.0
11982,46.0,2.0,15.0,15.0,0.0
11983,52.0,1.0,15.0,12.0,0.0
11984,36.0,2.0,15.0,13.0,0.0
11985,46.0,10.0,15.0,15.0,0.0
11986,46.0,2.0,15.0,15.0,0.0
11987,52.0,1.0,15.0,12.0,0.0
11988,36.0,8.0,15.0,13.0,0.0
11989,52.0,1.0,15.0,12.0,0.0
11990,36.0,1.0,15.0,13.0,0.0
11991,46.0,0.0,15.0,15.0,0.0
11992,65.0,1.0,60.0,2.0,0.0
11993,81.0,1.0,60.0,0.0,0.0
11994,46.0,10.0,15.0,15.0,0.0
11995,72.0,1.0,180.0,1.0,0.0
11996,52.0,1.0,15.0,12.0,0.0
11997,36.0,8.0,15.0,13.0,0.0
11998,52.0,1.0,15.0,12.0,0.0
11999,36.0,1.0,15.0,13.0,0.0
12000,46.0,6.0,15.0,15.0,0.0
12001,46.0,2.0,15.0,15.0,0.0
12002,52.0,1.0,15.0,12.0,0.0
12003,36.0,7.0,15.0,13.0,0.0
12004,46.0,5.0,15.0,15.0,0.0
12005,52.0,1.0,15.0,12.0,0.0
12006,36.0,4.0,15.0,13.0,0.0
12007,46.0,10.0,15.0,15.0,0.0
12008,67.0,1.0,60.0,2.0,0.0
12009,82.0,1.0,60.0,0.0,0.0
12010,52.0,1.0,15.0,12.0,0.0
12011,36.0,0.0,15.0,13.0,0.0
12012,46.0,8.0,15.0,15.0,0.0
12013,52.0,1.0,15.0,12.0,0.0
12014,36.0,3.0,15.0,13.0,0.0
12015,46.0,11.0,15.0,15.0,0.0
12016,52.0,1.0,15.0,12.0,0.0
12017,36.0,7.0,15.0,13.0,0.0
12018,46.0,0.0,15.0,15.0,0.0
12019,52.0,1.0,15.0,12.0,0.0
12020,36.0,4.0,15.0,13.0,0.0
12021,46.0,1.0,15.0,15.0,0.0
12022,60.0,0.0,60.0,10.0,0.0
12023,65.0,1.0,240.0,2.0,0.0
12024,69.0,1.0,60.0,10.0,0.0
12025,69.0,0.0,60.0,2.0,0.0
12026,77.0,1.0,60.0,10.0,0.0
12027,84.0,3.0,120.0,0.0,0.0
12028,69.0,1.0,60.0,11.0,0.0
12029,77.0,0.0,60.0,11.0,0.0
12030,60.0,1.0,60.0,11.0,0.0
12031,75.0,0.0,120.0,1.0,0.0
12032,60.0,3.0,240.0,4.0,0.0
12033,53.0,0.0,240.0,4.0,0.0
12034,53.0,1.0,15.0,12.0,0.0
12035,46.0,0.0,15.0,15.0,0.0
12036,41.0,7.0,15.0,13.0,0.0
12037,57.0,0.0,240.0,3.0,0.0
12038,41.0,5.0,240.0,3.0,0.0
12039,29.0,4.0,240.0,14.0,0.0
12040,41.0,7.0,15.0,15.0,0.0
12041,53.0,1.0,15.0,12.0,0.0
12042,41.0,2.0,15.0,13.0,0.0
12043,41.0,10.0,15.0,15.0,0.0
12044,53.0,1.0,15.0,12.0,0.0
12045,41.0,6.0,15.0,13.0,0.0
12046,41.0,2.0,15.0,15.0,0.0
12047,53.0,0.0,15.0,12.0,0.0
12048,41.0,0.0,15.0,13.0,0.0
12049,41.0,11.0,15.0,15.0,0.0
12050,72.0,1.0,60.0,2.0,0.0
12051,69.0,3.0,60.0,1.0,0.0
12052,53.0,1.0,15.0,12.0,0.0
12053,41.0,7.0,15.0,13.0,0.0
12054,41.0,2.0,15.0,15.0,0.0
12055,53.0,1.0,15.0,12.0,0.0
12056,41.0,2.0,15.0,13.0,0.0
12057,41.0,10.0,15.0,15.0,0.0
12058,41.0,2.0,15.0,15.0,0.0
12059,53.0,1.0,15.0,12.0,0.0
12060,41.0,7.0,15.0,13.0,0.0
12061,53.0,1.0,15.0,12.0,0.0
12062,41.0,1.0,15.0,13.0,0.0
12063,41.0,0.0,15.0,15.0,0.0
12064,74.0,1.0,60.0,2.0,0.0
12065,86.0,3.0,60.0,0.0,0.0
12066,41.0,10.0,15.0,15.0,0.0
12067,74.0,0.0,60.0,1.0,0.0
12068,65.0,7.0,60.0,1.0,0.0
12069,53.0,1.0,15.0,12.0,0.0
12070,41.0,8.0,15.0,13.0,0.0
12071,53.0,1.0,15.0,12.0,0.0
12072,41.0,1.0,15.0,13.0,0.0
12073,41.0,6.0,15.0,15.0,0.0
12074,53.0,1.0,15.0,12.0,0.0
12075,41.0,3.0,15.0,13.0,0.0
12076,41.0,2.0,15.0,15.0,0.0
12077,53.0,1.0,15.0,12.0,0.0
12078,41.0,4.0,15.0,13.0,0.0
12079,41.0,10.0,15.0,15.0,0.0
12080,75.0,1.0,60.0,2.0,0.0
12081,87.0,3.0,60.0,0.0,0.0
12082,63.0,0.0,60.0,1.0,0.0
12083,72.0,0.0,60.0,1.0,0.0
12084,53.0,1.0,15.0,12.0,0.0
12085,41.0,8.0,15.0,13.0,0.0
12086,41.0,0.0,15.0,15.0,0.0
12087,53.0,1.0,15.0,12.0,0.0
12088,41.0,3.0,15.0,13.0,0.0
12089,41.0,11.0,15.0,15.0,0.0
12090,53.0,1.0,15.0,12.0,0.0
12091,41.0,3.0,15.0,13.0,0.0
12092,41.0,0.0,15.0,15.0,0.0
12093,53.0,1.0,15.0,12.0,0.0
12094,41.0,4.0,15.0,13.0,0.0
12095,62.0,2.0,60.0,10.0,0.0
12096,65.0,0.0,60.0,2.0,0.0
12097,77.0,1.0,60.0,2.0,0.0
12098,89.0,0.0,120.0,0.0,0.0
12099,70.0,1.0,60.0,10.0,0.0
12100,74.0,0.0,60.0,11.0,0.0
12101,77.0,1.0,60.0,10.0,0.0
12102,58.0,0.0,480.0,4.0,0.0
12103,58.0,8.0,60.0,11.0,0.0
12104,65.0,0.0,60.0,11.0,0.0
12105,62.0,2.0,120.0,1.0,0.0
12106,70.0,0.0,120.0,1.0,0.0
12107,46.0,3.0,480.0,4.0,0.0
12108,41.0,1.0,15.0,15.0,0.0
12109,44.0,7.0,15.0,13.0,0.0
12110,46.0,0.0,60.0,3.0,0.0
12111,58.0,3.0,60.0,3.0,0.0
12112,32.0,6.0,120.0,14.0,0.0
12113,46.0,8.0,15.0,15.0,0.0
12114,44.0,2.0,15.0,13.0,0.0
12115,46.0,10.0,15.0,15.0,0.0
12116,44.0,6.0,15.0,13.0,0.0
12117,46.0,3.0,15.0,15.0,0.0
12118,44.0,1.0,15.0,13.0,0.0
12119,46.0,4.0,15.0,15.0,0.0
12120,44.0,7.0,15.0,13.0,0.0
12121,46.0,3.0,15.0,15.0,0.0
12122,44.0,2.0,15.0,13.0,0.0
12123,50.0,0.0,15.0,8.0,0.0
12124,46.0,10.0,15.0,15.0,0.0
12125,44.0,8.0,15.0,13.0,0.0
12126,58.0,2.0,15.0,8.0,0.0
12127,44.0,1.0,15.0,13.0,0.0
12128,46.0,3.0,15.0,15.0,0.0
12129,77.0,1.0,60.0,10.0,0.0
12130,62.0,1.0,60.0,10.0,0.0
12131,70.0,1.0,60.0,10.0,0.0
12132,65.0,2.0,15.0,7.0,0.0
12133,74.0,0.0,600.0,0.0,0.0
12134,58.0,0.0,60.0,11.0,0.0
12135,77.0,2.0,600.0,0.0,0.0
12136,74.0,1.0,60.0,11.0,0.0
12137,65.0,0.0,60.0,11.0,0.0
12138,74.0,0.0,600.0,1.0,0.0
12139,77.0,0.0,600.0,1.0,0.0
12140,46.0,2.0,15.0,15.0,0.0
12141,44.0,0.0,60.0,12.0,0.0
12142,43.0,8.0,15.0,13.0,0.0
12143,56.0,5.0,60.0,12.0,0.0
12144,31.0,1.0,60.0,14.0,0.0
12145,62.0,3.0,15.0,7.0,0.0
12146,43.0,1.0,15.0,13.0,0.0
12147,46.0,4.0,15.0,15.0,0.0
12148,70.0,1.0,15.0,7.0,0.0
12149,43.0,7.0,15.0,13.0,0.0
12150,77.0,0.0,15.0,7.0,0.0
12151,46.0,3.0,15.0,15.0,0.0
12152,43.0,4.0,15.0,13.0,0.0
12153,46.0,1.0,15.0,15.0,0.0
12154,74.0,4.0,15.0,7.0,0.0
12155,41.0,0.0,15.0,13.0,0.0
12156,29.0,9.0,60.0,14.0,0.0
12157,82.0,3.0,15.0,7.0,0.0
12158,46.0,8.0,15.0,15.0,0.0
12159,41.0,3.0,15.0,13.0,0.0
12160,46.0,4.0,15.0,15.0,0.0
12161,89.0,3.0,15.0,7.0,0.0
12162,41.0,8.0,15.0,13.0,0.0
12163,46.0,0.0,15.0,15.0,0.0
12164,41.0,4.0,15.0,13.0,0.0
12165,46.0,1.0,15.0,15.0,0.0
12166,44.0,7.0,15.0,13.0,0.0
12167,32.0,6.0,120.0,14.0,0.0
12168,46.0,1.0,15.0,15.0,0.0
12169,44.0,2.0,15.0,13.0,0.0
12170,46.0,10.0,15.0,15.0,0.0
12171,44.0,6.0,15.0,13.0,0.0
12172,46.0,3.0,15.0,15.0,0.0
12173,44.0,1.0,15.0,13.0,0.0
12174,46.0,9.0,15.0,15.0,0.0
12175,44.0,7.0,15.0,13.0,0.0
12176,46.0,3.0,15.0,15.0,0.0
12177,44.0,2.0,15.0,13.0,0.0
12178,50.0,8.0,15.0,8.0,0.0
12179,46.0,10.0,15.0,15.0,0.0
12180,44.0,0.0,15.0,13.0,0.0
12181,58.0,1.0,15.0,8.0,0.0
12182,44.0,1.0,15.0,13.0,0.0
12183,46.0,6.0,15.0,15.0,0.0
12184,70.0,1.0,60.0,10.0,0.0
12185,65.0,3.0,15.0,7.0,0.0
12186,77.0,1.0,60.0,10.0,0.0
12187,65.0,0.0,60.0,11.0,0.0
12188,62.0,1.0,60.0,10.0,0.0
12189,58.0,0.0,60.0,11.0,0.0
12190,74.0,4.0,60.0,11.0,0.0
12191,46.0,1.0,15.0,15.0,0.0
12192,56.0,0.0,60.0,12.0,0.0
12193,44.0,0.0,60.0,12.0,0.0
12194,43.0,8.0,15.0,13.0,0.0
12195,31.0,7.0,60.0,14.0,0.0
12196,62.0,3.0,15.0,7.0,0.0
12197,43.0,1.0,15.0,13.0,0.0
12198,46.0,4.0,15.0,15.0,0.0
12199,70.0,1.0,15.0,7.0,0.0
12200,46.0,3.0,15.0,15.0,0.0
12201,43.0,7.0,15.0,13.0,0.0
12202,77.0,0.0,15.0,7.0,0.0
12203,46.0,5.0,15.0,15.0,0.0
12204,43.0,0.0,15.0,13.0,0.0
12205,46.0,1.0,15.0,15.0,0.0
12206,74.0,3.0,15.0,7.0,0.0
12207,41.0,0.0,15.0,13.0,0.0
12208,29.0,9.0,60.0,14.0,0.0
12209,82.0,3.0,15.0,7.0,0.0
12210,46.0,8.0,15.0,15.0,0.0
12211,41.0,3.0,15.0,13.0,0.0
12212,46.0,8.0,15.0,15.0,0.0
12213,89.0,4.0,15.0,7.0,0.0
12214,41.0,8.0,15.0,13.0,0.0
12215,46.0,0.0,15.0,15.0,0.0
12216,41.0,1.0,15.0,13.0,0.0
12217,59.0,4.0,240.0,4.0,0.0
12218,46.0,1.0,15.0,15.0,0.0
12219,44.0,15.0,15.0,13.0,0.0
12220,59.0,0.0,240.0,3.0,0.0
12221,47.0,6.0,240.0,3.0,0.0
12222,32.0,8.0,120.0,14.0,0.0
12223,44.0,15.0,15.0,13.0,0.0
12224,44.0,15.0,15.0,13.0,0.0
12225,44.0,15.0,15.0,13.0,0.0
12226,44.0,15.0,15.0,13.0,0.0
12227,44.0,14.0,15.0,13.0,0.0
12228,50.0,1.0,15.0,8.0,0.0
12229,44.0,13.0,15.0,13.0,0.0
12230,59.0,2.0,15.0,8.0,0.0
12231,44.0,5.0,15.0,13.0,0.0
12232,77.0,1.0,60.0,10.0,0.0
12233,71.0,1.0,60.0,10.0,0.0
12234,65.0,2.0,15.0,7.0,0.0
12235,62.0,1.0,60.0,10.0,0.0
12236,68.0,0.0,60.0,6.0,0.0
12237,74.0,0.0,60.0,11.0,0.0
12238,65.0,0.0,60.0,11.0,0.0
12239,59.0,4.0,60.0,11.0,0.0
12240,43.0,13.0,15.0,13.0,0.0
12241,44.0,0.0,60.0,12.0,0.0
12242,56.0,6.0,60.0,12.0,0.0
12243,31.0,1.0,60.0,14.0,0.0
12244,62.0,2.0,15.0,7.0,0.0
12245,43.0,12.0,15.0,13.0,0.0
12246,71.0,3.0,15.0,7.0,0.0
12247,43.0,10.0,15.0,13.0,0.0
12248,77.0,2.0,15.0,7.0,0.0
12249,43.0,1.0,15.0,13.0,0.0
12250,74.0,3.0,15.0,7.0,0.0
12251,41.0,13.0,15.0,13.0,0.0
12252,29.0,4.0,60.0,14.0,0.0
12253,83.0,2.0,15.0,7.0,0.0
12254,41.0,13.0,15.0,13.0,0.0
12255,89.0,2.0,15.0,7.0,0.0
12256,41.0,13.0,15.0,13.0,0.0
12257,41.0,1.0,15.0,13.0,0.0
12258,72.0,0.0,240.0,0.0,0.0
12259,75.0,3.0,240.0,0.0,0.0
12260,72.0,0.0,240.0,1.0,0.0
12261,75.0,0.0,240.0,1.0,0.0
12262,56.0,1.0,240.0,4.0,0.0
12263,60.0,0.0,240.0,4.0,0.0
12264,44.0,15.0,15.0,13.0,0.0
12265,48.0,0.0,240.0,3.0,0.0
12266,60.0,4.0,240.0,3.0,0.0
12267,32.0,10.0,60.0,14.0,0.0
12268,44.0,15.0,15.0,13.0,0.0
12269,44.0,15.0,15.0,13.0,0.0
12270,44.0,5.0,15.0,13.0,0.0
12271,39.0,15.0,15.0,13.0,0.0
12272,27.0,7.0,60.0,14.0,0.0
12273,39.0,15.0,15.0,13.0,0.0
12274,51.0,14.0,15.0,8.0,0.0
12275,39.0,0.0,15.0,13.0,0.0
12276,60.0,1.0,15.0,8.0,0.0
12277,39.0,5.0,15.0,13.0,0.0
12278,68.0,3.0,15.0,7.0,0.0
12279,60.0,1.0,60.0,11.0,0.0
12280,63.0,3.0,120.0,2.0,0.0
12281,68.0,0.0,60.0,11.0,0.0
12282,72.0,0.0,60.0,10.0,0.0
12283,63.0,0.0,60.0,10.0,0.0
12284,80.0,1.0,60.0,10.0,0.0
12285,68.0,0.0,60.0,6.0,0.0
12286,75.0,4.0,60.0,11.0,0.0
12287,44.0,1.0,60.0,12.0,0.0
12288,56.0,0.0,60.0,12.0,0.0
12289,38.0,12.0,15.0,13.0,0.0
12290,26.0,8.0,60.0,14.0,0.0
12291,63.0,3.0,15.0,7.0,0.0
12292,38.0,12.0,15.0,13.0,0.0
12293,75.0,3.0,15.0,7.0,0.0
12294,38.0,12.0,15.0,13.0,0.0
12295,80.0,1.0,15.0,7.0,0.0
12296,38.0,0.0,15.0,13.0,0.0
12297,75.0,2.0,15.0,7.0,0.0
12298,36.0,12.0,15.0,13.0,0.0
12299,24.0,4.0,60.0,14.0,0.0
12300,87.0,3.0,15.0,7.0,0.0
12301,36.0,11.0,15.0,13.0,0.0
12302,92.0,4.0,15.0,7.0,0.0
12303,36.0,8.0,15.0,13.0,0.0
12304,36.0,5.0,15.0,13.0,0.0
12305,70.0,0.0,60.0,10.0,0.0
12306,68.0,0.0,60.0,11.0,0.0
12307,77.0,2.0,60.0,11.0,0.0
12308,65.0,1.0,120.0,2.0,0.0
12309,68.0,0.0,120.0,2.0,0.0
12310,80.0,1.0,15.0,7.0,0.0
12311,77.0,0.0,120.0,0.0,0.0
12312,80.0,0.0,120.0,0.0,0.0
12313,34.0,1.0,60.0,8.0,0.0
12314,80.0,0.0,60.0,10.0,0.0
12315,58.0,10.0,60.0,6.0,0.0
12316,58.0,0.0,60.0,11.0,0.0
12317,46.0,0.0,480.0,4.0,0.0
12318,80.0,0.0,120.0,1.0,0.0
12319,77.0,0.0,120.0,1.0,0.0
12320,62.0,8.0,120.0,4.0,0.0
12321,50.0,1.0,15.0,12.0,0.0
12322,34.0,5.0,15.0,13.0,0.0
12323,50.0,4.0,120.0,3.0,0.0
12324,34.0,4.0,480.0,14.0,0.0
12325,74.0,3.0,15.0,7.0,0.0
12326,46.0,6.0,15.0,15.0,0.0
12327,50.0,1.0,15.0,12.0,0.0
12328,34.0,0.0,15.0,13.0,0.0
12329,46.0,10.0,15.0,15.0,0.0
12330,65.0,1.0,15.0,7.0,0.0
12331,46.0,3.0,15.0,15.0,0.0
12332,50.0,1.0,15.0,12.0,0.0
12333,34.0,4.0,15.0,13.0,0.0
12334,74.0,1.0,15.0,7.0,0.0
12335,46.0,7.0,15.0,15.0,0.0
12336,50.0,0.0,15.0,12.0,0.0
12337,34.0,0.0,15.0,13.0,0.0
12338,46.0,0.0,15.0,15.0,0.0
12339,68.0,0.0,15.0,8.0,0.0
12340,46.0,4.0,15.0,15.0,0.0
12341,50.0,1.0,15.0,12.0,0.0
12342,34.0,5.0,15.0,13.0,0.0
12343,46.0,8.0,15.0,15.0,0.0
12344,62.0,1.0,15.0,8.0,0.0
12345,50.0,1.0,15.0,12.0,0.0
12346,34.0,10.0,15.0,13.0,0.0
12347,46.0,0.0,15.0,15.0,0.0
12348,53.0,1.0,15.0,8.0,0.0
12349,46.0,3.0,15.0,15.0,0.0
12350,50.0,1.0,15.0,12.0,0.0
12351,34.0,6.0,15.0,13.0,0.0
12352,46.0,6.0,15.0,15.0,0.0
12353,62.0,1.0,15.0,8.0,0.0
12354,50.0,0.0,15.0,12.0,0.0
12355,34.0,1.0,15.0,13.0,0.0
12356,46.0,1.0,15.0,15.0,0.0
12357,63.0,1.0,120.0,2.0,0.0
12358,67.0,0.0,120.0,2.0,0.0
12359,70.0,1.0,60.0,10.0,0.0
12360,75.0,1.0,240.0,0.0,0.0
12361,67.0,1.0,60.0,11.0,0.0
12362,79.0,1.0,120.0,0.0,0.0
12363,79.0,1.0,15.0,7.0,0.0
12364,79.0,1.0,60.0,10.0,0.0
12365,58.0,2.0,60.0,11.0,0.0
12366,75.0,0.0,60.0,11.0,0.0
12367,63.0,1.0,120.0,4.0,0.0
12368,79.0,8.0,240.0,1.0,0.0
12369,75.0,0.0,240.0,1.0,0.0
12370,46.0,0.0,15.0,15.0,0.0
12371,51.0,1.0,15.0,12.0,0.0
12372,34.0,6.0,15.0,13.0,0.0
12373,51.0,2.0,120.0,3.0,0.0
12374,75.0,3.0,15.0,7.0,0.0
12375,46.0,5.0,15.0,15.0,0.0
12376,51.0,1.0,15.0,12.0,0.0
12377,34.0,10.0,15.0,13.0,0.0
12378,46.0,0.0,15.0,15.0,0.0
12379,67.0,3.0,15.0,7.0,0.0
12380,46.0,1.0,15.0,15.0,0.0
12381,51.0,1.0,15.0,12.0,0.0
12382,34.0,5.0,15.0,13.0,0.0
12383,75.0,1.0,15.0,7.0,0.0
12384,46.0,6.0,15.0,15.0,0.0
12385,51.0,0.0,15.0,12.0,0.0
12386,34.0,0.0,15.0,13.0,0.0
12387,46.0,11.0,15.0,15.0,0.0
12388,67.0,0.0,15.0,8.0,0.0
12389,51.0,1.0,15.0,12.0,0.0
12390,34.0,6.0,15.0,13.0,0.0
12391,46.0,1.0,15.0,15.0,0.0
12392,46.0,8.0,15.0,15.0,0.0
12393,63.0,1.0,15.0,8.0,0.0
12394,51.0,1.0,15.0,12.0,0.0
12395,34.0,0.0,15.0,13.0,0.0
12396,46.0,12.0,15.0,15.0,0.0
12397,55.0,1.0,15.0,8.0,0.0
12398,51.0,1.0,15.0,12.0,0.0
12399,46.0,0.0,15.0,15.0,0.0
12400,34.0,6.0,15.0,13.0,0.0
12401,63.0,0.0,15.0,8.0,0.0
12402,46.0,6.0,15.0,15.0,0.0
12403,51.0,1.0,15.0,12.0,0.0
12404,34.0,1.0,15.0,13.0,0.0
12405,46.0,7.0,15.0,15.0,0.0
12406,87.0,1.0,15.0,7.0,0.0
12407,75.0,1.0,120.0,2.0,0.0
12408,67.0,0.0,120.0,2.0,0.0
12409,87.0,0.0,120.0,0.0,0.0
12410,58.0,10.0,60.0,6.0,0.0
12411,55.0,0.0,120.0,4.0,0.0
12412,55.0,1.0,15.0,12.0,0.0
12413,34.0,5.0,15.0,13.0,0.0
12414,55.0,3.0,120.0,3.0,0.0
12415,46.0,2.0,15.0,15.0,0.0
12416,79.0,2.0,15.0,7.0,0.0
12417,46.0,0.0,15.0,15.0,0.0
12418,55.0,1.0,15.0,12.0,0.0
12419,34.0,0.0,15.0,13.0,0.0
12420,46.0,10.0,15.0,15.0,0.0
12421,75.0,3.0,15.0,7.0,0.0
12422,46.0,1.0,15.0,15.0,0.0
12423,55.0,1.0,15.0,12.0,0.0
12424,34.0,12.0,15.0,13.0,0.0
12425,79.0,2.0,15.0,7.0,0.0
12426,55.0,1.0,15.0,12.0,0.0
12427,34.0,0.0,15.0,13.0,0.0
12428,46.0,0.0,15.0,15.0,0.0
12429,70.0,1.0,15.0,8.0,0.0
12430,46.0,4.0,15.0,15.0,0.0
12431,55.0,0.0,15.0,12.0,0.0
12432,34.0,5.0,15.0,13.0,0.0
12433,46.0,9.0,15.0,15.0,0.0
12434,67.0,1.0,15.0,8.0,0.0
12435,55.0,0.0,15.0,12.0,0.0
12436,34.0,0.0,15.0,13.0,0.0
12437,46.0,10.0,15.0,15.0,0.0
12438,58.0,0.0,15.0,8.0,0.0
12439,46.0,4.0,15.0,15.0,0.0
12440,55.0,1.0,15.0,12.0,0.0
12441,34.0,6.0,15.0,13.0,0.0
12442,67.0,1.0,15.0,8.0,0.0
12443,55.0,0.0,15.0,12.0,0.0
12444,34.0,1.0,15.0,13.0,0.0
12445,46.0,6.0,15.0,15.0,0.0
12446,70.0,2.0,60.0,10.0,0.0
12447,86.0,2.0,15.0,7.0,0.0
12448,74.0,1.0,120.0,2.0,0.0
12449,65.0,0.0,120.0,2.0,0.0
12450,65.0,1.0,60.0,11.0,0.0
12451,77.0,1.0,120.0,0.0,0.0
12452,86.0,0.0,120.0,0.0,0.0
12453,77.0,1.0,60.0,10.0,0.0
12454,58.0,0.0,120.0,4.0,0.0
12455,74.0,1.0,60.0,11.0,0.0
12456,46.0,0.0,15.0,15.0,0.0
12457,74.0,0.0,120.0,1.0,0.0
12458,77.0,1.0,120.0,1.0,0.0
12459,58.0,0.0,60.0,11.0,0.0
12460,58.0,1.0,15.0,12.0,0.0
12461,34.0,6.0,15.0,13.0,0.0
12462,58.0,3.0,120.0,3.0,0.0
12463,77.0,2.0,15.0,7.0,0.0
12464,46.0,6.0,15.0,15.0,0.0
12465,58.0,1.0,15.0,12.0,0.0
12466,34.0,10.0,15.0,13.0,0.0
12467,46.0,0.0,15.0,15.0,0.0
12468,74.0,2.0,15.0,7.0,0.0
12469,46.0,2.0,15.0,15.0,0.0
12470,58.0,1.0,15.0,12.0,0.0
12471,34.0,5.0,15.0,13.0,0.0
12472,46.0,5.0,15.0,15.0,0.0
12473,77.0,1.0,15.0,7.0,0.0
12474,58.0,0.0,15.0,12.0,0.0
12475,34.0,1.0,15.0,13.0,0.0
12476,46.0,11.0,15.0,15.0,0.0
12477,70.0,1.0,15.0,8.0,0.0
12478,58.0,1.0,15.0,12.0,0.0
12479,34.0,6.0,15.0,13.0,0.0
12480,46.0,0.0,15.0,15.0,0.0
12481,65.0,0.0,15.0,8.0,0.0
12482,58.0,1.0,15.0,12.0,0.0
12483,34.0,1.0,15.0,13.0,0.0
12484,46.0,12.0,15.0,15.0,0.0
12485,58.0,6.0,15.0,8.0,0.0
12486,58.0,1.0,15.0,12.0,0.0
12487,46.0,1.0,15.0,15.0,0.0
12488,34.0,0.0,15.0,13.0,0.0
12489,46.0,6.0,15.0,15.0,0.0
12490,65.0,1.0,15.0,8.0,0.0
12491,58.0,1.0,15.0,12.0,0.0
12492,34.0,0.0,15.0,13.0,0.0
12493,46.0,3.0,15.0,15.0,0.0
12494,63.0,0.0,240.0,2.0,0.0
12495,72.0,1.0,120.0,2.0,0.0
12496,84.0,1.0,120.0,0.0,0.0
12497,84.0,1.0,15.0,7.0,0.0
12498,63.0,0.0,240.0,4.0,0.0
12499,75.0,8.0,120.0,1.0,0.0
12500,63.0,1.0,15.0,12.0,0.0
12501,46.0,1.0,15.0,15.0,0.0
12502,39.0,5.0,15.0,13.0,0.0
12503,63.0,2.0,240.0,3.0,0.0
12504,27.0,4.0,240.0,14.0,0.0
12505,46.0,0.0,15.0,15.0,0.0
12506,75.0,1.0,15.0,7.0,0.0
12507,63.0,1.0,15.0,12.0,0.0
12508,39.0,0.0,15.0,13.0,0.0
12509,46.0,10.0,15.0,15.0,0.0
12510,72.0,1.0,15.0,7.0,0.0
12511,46.0,3.0,15.0,15.0,0.0
12512,63.0,1.0,15.0,12.0,0.0
12513,39.0,13.0,15.0,13.0,0.0
12514,75.0,1.0,15.0,7.0,0.0
12515,63.0,0.0,15.0,12.0,0.0
12516,39.0,10.0,15.0,13.0,0.0
12517,46.0,1.0,15.0,15.0,0.0
12518,72.0,0.0,15.0,8.0,0.0
12519,46.0,4.0,15.0,15.0,0.0
12520,63.0,1.0,15.0,12.0,0.0
12521,39.0,5.0,15.0,13.0,0.0
12522,46.0,9.0,15.0,15.0,0.0
12523,63.0,0.0,15.0,8.0,0.0
12524,63.0,1.0,15.0,12.0,0.0
12525,39.0,10.0,15.0,13.0,0.0
12526,46.0,0.0,15.0,15.0,0.0
12527,60.0,1.0,15.0,8.0,0.0
12528,46.0,3.0,15.0,15.0,0.0
12529,63.0,1.0,15.0,12.0,0.0
12530,39.0,6.0,15.0,13.0,0.0
12531,46.0,6.0,15.0,15.0,0.0
12532,63.0,0.0,15.0,8.0,0.0
12533,63.0,1.0,15.0,12.0,0.0
12534,39.0,1.0,15.0,13.0,0.0
12535,46.0,0.0,15.0,15.0,0.0
12536,67.0,2.0,60.0,10.0,0.0
12537,60.0,0.0,60.0,11.0,0.0
12538,67.0,0.0,60.0,11.0,0.0
12539,67.0,1.0,120.0,2.0,0.0
12540,51.0,1.0,60.0,11.0,0.0
12541,79.0,1.0,15.0,7.0,0.0
12542,79.0,0.0,120.0,0.0,0.0
12543,75.0,0.0,60.0,10.0,0.0
12544,72.0,0.0,120.0,1.0,0.0
12545,46.0,4.0,15.0,15.0,0.0
12546,60.0,0.0,120.0,4.0,0.0
12547,63.0,1.0,15.0,12.0,0.0
12548,39.0,6.0,15.0,13.0,0.0
12549,46.0,7.0,15.0,15.0,0.0
12550,72.0,1.0,15.0,7.0,0.0
12551,63.0,0.0,15.0,12.0,0.0
12552,39.0,10.0,15.0,13.0,0.0
12553,46.0,1.0,15.0,15.0,0.0
12554,67.0,3.0,15.0,7.0,0.0
12555,46.0,1.0,15.0,15.0,0.0
12556,63.0,1.0,15.0,12.0,0.0
12557,39.0,5.0,15.0,13.0,0.0
12558,72.0,1.0,15.0,7.0,0.0
12559,46.0,5.0,15.0,15.0,0.0
12560,63.0,1.0,15.0,12.0,0.0
12561,39.0,2.0,15.0,13.0,0.0
12562,46.0,11.0,15.0,15.0,0.0
12563,63.0,1.0,15.0,8.0,0.0
12564,63.0,1.0,15.0,12.0,0.0
12565,46.0,0.0,15.0,15.0,0.0
12566,39.0,6.0,15.0,13.0,0.0
12567,46.0,8.0,15.0,15.0,0.0
12568,60.0,1.0,15.0,8.0,0.0
12569,63.0,0.0,15.0,12.0,0.0
12570,39.0,1.0,15.0,13.0,0.0
12571,46.0,12.0,15.0,15.0,0.0
12572,51.0,1.0,15.0,8.0,0.0
12573,63.0,1.0,15.0,12.0,0.0
12574,39.0,6.0,15.0,13.0,0.0
12575,46.0,0.0,15.0,15.0,0.0
12576,60.0,1.0,15.0,8.0,0.0
12577,63.0,0.0,15.0,12.0,0.0
12578,39.0,1.0,15.0,13.0,0.0
12579,46.0,3.0,15.0,15.0,0.0
12580,72.0,1.0,60.0,10.0,0.0
12581,65.0,0.0,60.0,10.0,0.0
12582,82.0,1.0,15.0,7.0,0.0
12583,62.0,1.0,120.0,2.0,0.0
12584,65.0,0.0,120.0,2.0,0.0
12585,82.0,1.0,120.0,0.0,0.0
12586,77.0,0.0,120.0,0.0,0.0
12587,53.0,0.0,60.0,11.0,0.0
12588,70.0,0.0,60.0,11.0,0.0
12589,62.0,0.0,120.0,4.0,0.0
12590,53.0,0.0,240.0,4.0,0.0
12591,62.0,0.0,60.0,11.0,0.0
12592,74.0,0.0,120.0,1.0,0.0
12593,70.0,0.0,120.0,1.0,0.0
12594,46.0,2.0,15.0,15.0,0.0
12595,62.0,6.0,15.0,12.0,0.0
12596,41.0,9.0,30.0,13.0,0.0
12597,62.0,0.0,120.0,3.0,0.0
12598,29.0,4.0,240.0,14.0,0.0
12599,41.0,7.0,15.0,15.0,0.0
12600,77.0,2.0,15.0,7.0,0.0
12601,62.0,1.0,15.0,12.0,0.0
12602,41.0,1.0,15.0,15.0,0.0
12603,70.0,3.0,15.0,7.0,0.0
12604,41.0,1.0,15.0,15.0,0.0
12605,62.0,5.0,15.0,12.0,0.0
12606,41.0,9.0,30.0,13.0,0.0
12607,41.0,6.0,15.0,15.0,0.0
12608,77.0,3.0,15.0,7.0,0.0
12609,62.0,0.0,15.0,12.0,0.0
12610,41.0,2.0,15.0,15.0,0.0
12611,65.0,1.0,15.0,8.0,0.0
12612,41.0,3.0,15.0,15.0,0.0
12613,62.0,6.0,15.0,12.0,0.0
12614,41.0,9.0,30.0,13.0,0.0
12615,41.0,9.0,15.0,15.0,0.0
12616,62.0,0.0,15.0,8.0,0.0
12617,62.0,1.0,15.0,12.0,0.0
12618,41.0,1.0,15.0,15.0,0.0
12619,53.0,7.0,15.0,8.0,0.0
12620,41.0,4.0,15.0,15.0,0.0
12621,62.0,0.0,15.0,12.0,0.0
12622,41.0,8.0,30.0,13.0,0.0
12623,62.0,1.0,15.0,8.0,0.0
12624,62.0,1.0,15.0,12.0,0.0
12625,41.0,6.0,15.0,15.0,0.0
12626,72.0,1.0,60.0,10.0,0.0
12627,63.0,0.0,120.0,2.0,0.0
12628,60.0,1.0,120.0,2.0,0.0
12629,63.0,0.0,60.0,10.0,0.0
12630,75.0,0.0,120.0,0.0,0.0
12631,60.0,1.0,60.0,11.0,0.0
12632,69.0,0.0,60.0,11.0,0.0
12633,81.0,1.0,15.0,7.0,0.0
12634,81.0,1.0,120.0,0.0,0.0
12635,53.0,0.0,60.0,11.0,0.0
12636,69.0,1.0,120.0,1.0,0.0
12637,75.0,0.0,120.0,1.0,0.0
12638,60.0,0.0,120.0,4.0,0.0
12639,41.0,4.0,15.0,15.0,0.0
12640,60.0,7.0,15.0,12.0,0.0
12641,41.0,9.0,30.0,13.0,0.0
12642,60.0,3.0,120.0,3.0,0.0
12643,77.0,2.0,15.0,7.0,0.0
12644,41.0,6.0,15.0,15.0,0.0
12645,60.0,2.0,15.0,12.0,0.0
12646,41.0,0.0,15.0,15.0,0.0
12647,69.0,1.0,15.0,7.0,0.0
12648,41.0,3.0,15.0,15.0,0.0
12649,60.0,6.0,15.0,12.0,0.0
12650,41.0,1.0,30.0,13.0,0.0
12651,41.0,7.0,15.0,15.0,0.0
12652,77.0,0.0,15.0,7.0,0.0
12653,60.0,2.0,15.0,12.0,0.0
12654,41.0,11.0,15.0,15.0,0.0
12655,65.0,6.0,15.0,8.0,0.0
12656,60.0,1.0,15.0,12.0,0.0
12657,41.0,12.0,30.0,13.0,0.0
12658,41.0,1.0,15.0,15.0,0.0
12659,60.0,1.0,15.0,8.0,0.0
12660,60.0,1.0,15.0,12.0,0.0
12661,41.0,0.0,15.0,15.0,0.0
12662,53.0,1.0,15.0,8.0,0.0
12663,60.0,7.0,15.0,12.0,0.0
12664,41.0,0.0,30.0,13.0,0.0
12665,41.0,0.0,15.0,15.0,0.0
12666,60.0,0.0,15.0,8.0,0.0
12667,60.0,2.0,15.0,12.0,0.0
12668,41.0,3.0,15.0,15.0,0.0
12669,77.0,1.0,120.0,7.0,0.0
12670,82.0,1.0,120.0,7.0,0.0
12671,70.0,0.0,120.0,7.0,0.0
12672,62.0,0.0,60.0,2.0,0.0
12673,62.0,0.0,60.0,11.0,0.0
12674,70.0,1.0,60.0,11.0,0.0
12675,58.0,0.0,60.0,2.0,0.0
12676,82.0,0.0,60.0,0.0,0.0
12677,74.0,1.0,60.0,0.0,0.0
12678,62.0,0.0,60.0,10.0,0.0
12679,62.0,0.0,120.0,8.0,0.0
12680,58.0,66.0,120.0,8.0,0.0
12681,70.0,2.0,60.0,10.0,0.0
12682,53.0,0.0,60.0,11.0,0.0
12683,74.0,0.0,60.0,1.0,0.0
12684,70.0,3.0,60.0,1.0,0.0
12685,41.0,27.0,15.0,15.0,0.0
12686,58.0,6.0,60.0,12.0,0.0
12687,41.0,0.0,90.0,13.0,0.0
12688,34.0,9.0,90.0,13.0,0.0
12689,41.0,18.0,30.0,3.0,0.0
12690,34.0,2.0,60.0,14.0,0.0
12691,46.0,35.0,60.0,15.0,0.0
12692,46.0,8.0,120.0,3.0,0.0
12693,41.0,7.0,90.0,13.0,0.0
12694,34.0,0.0,90.0,13.0,0.0
12695,46.0,7.0,60.0,15.0,0.0
12696,48.0,10.0,15.0,3.0,0.0
12697,50.0,10.0,15.0,3.0,0.0
12698,48.0,8.0,15.0,3.0,0.0
12699,46.0,15.0,15.0,3.0,0.0
12700,48.0,30.0,15.0,3.0,0.0
12701,34.0,85.0,90.0,13.0,0.0
12702,41.0,0.0,90.0,13.0,0.0
12703,50.0,33.0,30.0,3.0,0.0
12704,46.0,27.0,60.0,15.0,0.0
12705,53.0,8.0,30.0,3.0,0.0
12706,41.0,0.0,90.0,13.0,0.0
12707,34.0,34.0,90.0,13.0,0.0
12708,58.0,11.0,570.0,3.0,0.0
12709,46.0,10.0,60.0,15.0,0.0
12710,62.0,5.0,30.0,1.0,0.0
12711,70.0,0.0,30.0,1.0,0.0
12712,41.0,30.0,30.0,13.0,0.0
12713,34.0,0.0,30.0,13.0,0.0
12714,60.0,20.0,30.0,1.0,0.0
12715,69.0,0.0,30.0,1.0,0.0
12716,41.0,23.0,90.0,13.0,0.0
12717,34.0,0.0,90.0,13.0,0.0
12718,46.0,3.0,60.0,15.0,0.0
12719,70.0,0.0,20.0,1.0,0.0
12720,62.0,21.0,20.0,1.0,0.0
12721,63.0,7.0,15.0,1.0,0.0
12722,72.0,0.0,15.0,1.0,0.0
12723,65.0,0.0,15.0,1.0,0.0
12724,74.0,16.0,15.0,1.0,0.0
12725,34.0,30.0,30.0,13.0,0.0
12726,41.0,0.0,30.0,13.0,0.0
12727,75.0,0.0,30.0,1.0,0.0
12728,67.0,20.0,30.0,1.0,0.0
12729,34.0,23.0,90.0,13.0,0.0
12730,41.0,0.0,90.0,13.0,0.0
12731,46.0,3.0,60.0,15.0,0.0
12732,63.0,21.0,20.0,1.0,0.0
12733,72.0,0.0,20.0,1.0,0.0
12734,62.0,7.0,15.0,1.0,0.0
12735,70.0,0.0,15.0,1.0,0.0
12736,69.0,16.0,15.0,1.0,0.0
12737,60.0,0.0,15.0,1.0,0.0
12738,34.0,30.0,30.0,13.0,0.0
12739,41.0,0.0,30.0,13.0,0.0
12740,62.0,20.0,30.0,1.0,0.0
12741,70.0,0.0,30.0,1.0,0.0
12742,34.0,23.0,90.0,13.0,0.0
12743,41.0,0.0,90.0,13.0,0.0
12744,46.0,3.0,60.0,15.0,0.0
12745,65.0,21.0,20.0,1.0,0.0
12746,72.0,0.0,20.0,1.0,0.0
12747,74.0,0.0,15.0,1.0,0.0
12748,70.0,7.0,15.0,1.0,0.0
12749,75.0,16.0,15.0,1.0,0.0
12750,72.0,0.0,15.0,1.0,0.0
12751,34.0,30.0,30.0,13.0,0.0
12752,41.0,0.0,30.0,13.0,0.0
12753,77.0,0.0,30.0,1.0,0.0
12754,74.0,20.0,30.0,1.0,0.0
12755,34.0,12.0,90.0,13.0,0.0
12756,41.0,0.0,90.0,13.0,0.0
12757,46.0,3.0,60.0,15.0,0.0
12758,70.0,21.0,20.0,1.0,0.0
12759,74.0,0.0,20.0,1.0,0.0
12760,65.0,0.0,15.0,1.0,0.0
12761,72.0,7.0,15.0,1.0,0.0
12762,62.0,11.0,15.0,1.0,0.0
12763,70.0,0.0,15.0,1.0,0.0
12764,53.0,0.0,30.0,4.0,0.0
12765,58.0,5.0,30.0,4.0,0.0
12766,41.0,3.0,30.0,13.0,0.0
12767,34.0,0.0,30.0,13.0,0.0
12768,50.0,27.0,30.0,3.0,0.0
12769,77.0,25.0,390.0,1.0,0.0
12770,65.0,19.0,450.0,1.0,0.0
12771,53.0,2.0,90.0,4.0,0.0
12772,57.0,8.0,30.0,4.0,0.0
12773,41.0,0.0,90.0,13.0,0.0
12774,34.0,4.0,90.0,13.0,0.0
12775,48.0,17.0,30.0,3.0,0.0
12776,46.0,8.0,60.0,15.0,0.0
12777,58.0,8.0,30.0,4.0,0.0
12778,50.0,8.0,30.0,3.0,0.0
12779,60.0,2.0,20.0,4.0,0.0
12780,51.0,22.0,20.0,3.0,0.0
12781,62.0,0.0,20.0,4.0,0.0
12782,53.0,8.0,20.0,4.0,0.0
12783,34.0,30.0,30.0,13.0,0.0
12784,41.0,0.0,30.0,13.0,0.0
12785,53.0,3.0,20.0,3.0,0.0
12786,63.0,8.0,30.0,4.0,0.0
12787,53.0,2.0,90.0,4.0,0.0
12788,41.0,0.0,90.0,13.0,0.0
12789,34.0,4.0,90.0,13.0,0.0
12790,55.0,17.0,30.0,3.0,0.0
12791,46.0,8.0,60.0,15.0,0.0
12792,60.0,8.0,30.0,4.0,0.0
12793,51.0,8.0,30.0,3.0,0.0
12794,58.0,2.0,20.0,4.0,0.0
12795,50.0,22.0,20.0,3.0,0.0
12796,53.0,8.0,20.0,4.0,0.0
12797,57.0,0.0,20.0,4.0,0.0
12798,34.0,0.0,30.0,13.0,0.0
12799,41.0,30.0,30.0,13.0,0.0
12800,48.0,3.0,20.0,3.0,0.0
12801,58.0,0.0,30.0,4.0,0.0
12802,50.0,25.0,30.0,4.0,0.0
12803,34.0,0.0,90.0,13.0,0.0
12804,41.0,28.0,90.0,13.0,0.0
12805,53.0,4.0,240.0,3.0,0.0
12806,46.0,8.0,60.0,15.0,0.0
12807,53.0,0.0,30.0,4.0,0.0
12808,60.0,16.0,30.0,4.0,0.0
12809,62.0,2.0,20.0,4.0,0.0
12810,58.0,0.0,20.0,4.0,0.0
12811,63.0,0.0,20.0,4.0,0.0
12812,60.0,11.0,20.0,4.0,0.0
12813,34.0,30.0,30.0,13.0,0.0
12814,41.0,0.0,30.0,13.0,0.0
12815,65.0,0.0,30.0,4.0,0.0
12816,62.0,0.0,30.0,4.0,0.0
12817,34.0,0.0,90.0,13.0,0.0
12818,41.0,9.0,90.0,13.0,0.0
12819,46.0,8.0,60.0,15.0,0.0
12820,58.0,0.0,30.0,4.0,0.0
12821,62.0,16.0,30.0,4.0,0.0
12822,74.0,0.0,30.0,1.0,0.0
12823,72.0,0.0,30.0,1.0,0.0
12824,53.0,2.0,20.0,4.0,0.0
12825,60.0,0.0,20.0,4.0,0.0
12826,62.0,3.0,30.0,7.0,0.0
12827,70.0,0.0,30.0,7.0,0.0
12828,77.0,0.0,30.0,0.0,0.0
12829,50.0,0.0,30.0,8.0,0.0
12830,58.0,4.0,30.0,8.0,0.0
12831,65.0,0.0,30.0,1.0,0.0
12832,70.0,0.0,30.0,1.0,0.0
12833,50.0,0.0,20.0,4.0,0.0
12834,58.0,3.0,20.0,4.0,0.0
12835,53.0,0.0,30.0,12.0,0.0
12836,46.0,1.0,30.0,12.0,0.0
12837,41.0,0.0,30.0,13.0,0.0
12838,34.0,5.0,30.0,13.0,0.0
12839,69.0,1.0,30.0,7.0,0.0
12840,79.0,3.0,15.0,0.0,0.0
12841,60.0,0.0,30.0,7.0,0.0
12842,57.0,1.0,30.0,8.0,0.0
12843,60.0,5.0,180.0,4.0,0.0
12844,48.0,5.0,30.0,8.0,0.0
12845,53.0,0.0,180.0,4.0,0.0
12846,53.0,0.0,90.0,12.0,0.0
12847,46.0,0.0,90.0,12.0,0.0
12848,77.0,8.0,15.0,0.0,0.0
12849,34.0,1.0,90.0,13.0,0.0
12850,46.0,1.0,60.0,15.0,0.0
12851,79.0,6.0,15.0,0.0,0.0
12852,77.0,2.0,15.0,0.0,0.0
12853,72.0,1.0,30.0,7.0,0.0
12854,79.0,7.0,15.0,0.0,0.0
12855,63.0,0.0,30.0,7.0,0.0
12856,60.0,1.0,30.0,8.0,0.0
12857,51.0,5.0,30.0,8.0,0.0
12858,77.0,8.0,15.0,0.0,0.0
12859,79.0,6.0,15.0,0.0,0.0
12860,77.0,2.0,15.0,0.0,0.0
12861,74.0,1.0,30.0,7.0,0.0
12862,65.0,2.0,30.0,7.0,0.0
12863,79.0,6.0,15.0,0.0,0.0
12864,62.0,1.0,30.0,8.0,0.0
12865,53.0,1.0,30.0,8.0,0.0
12866,77.0,8.0,15.0,0.0,0.0
12867,79.0,1.0,15.0,0.0,0.0
12868,77.0,8.0,15.0,0.0,0.0
12869,75.0,0.0,30.0,7.0,0.0
12870,67.0,3.0,30.0,7.0,0.0
12871,79.0,7.0,15.0,0.0,0.0
12872,63.0,1.0,30.0,8.0,0.0
12873,55.0,1.0,30.0,8.0,0.0
12874,46.0,1.0,30.0,12.0,0.0
12875,53.0,0.0,30.0,12.0,0.0
12876,77.0,8.0,15.0,0.0,0.0
12877,34.0,5.0,30.0,13.0,0.0
12878,79.0,2.0,15.0,0.0,0.0
12879,77.0,2.0,15.0,0.0,0.0
12880,79.0,1.0,30.0,7.0,0.0
12881,79.0,7.0,15.0,0.0,0.0
12882,70.0,2.0,30.0,7.0,0.0
12883,67.0,1.0,30.0,8.0,0.0
12884,58.0,5.0,30.0,8.0,0.0
12885,46.0,0.0,90.0,12.0,0.0
12886,53.0,0.0,90.0,12.0,0.0
12887,34.0,1.0,90.0,13.0,0.0
12888,77.0,8.0,15.0,0.0,0.0
12889,46.0,1.0,60.0,15.0,0.0
12890,79.0,6.0,15.0,0.0,0.0
12891,77.0,0.0,15.0,0.0,0.0
12892,67.0,1.0,30.0,7.0,0.0
12893,75.0,3.0,30.0,7.0,0.0
12894,79.0,7.0,15.0,0.0,0.0
12895,55.0,0.0,30.0,8.0,0.0
12896,63.0,0.0,30.0,8.0,0.0
12897,77.0,8.0,15.0,0.0,0.0
12898,79.0,6.0,15.0,0.0,0.0
12899,77.0,0.0,15.0,0.0,0.0
12900,74.0,1.0,30.0,7.0,0.0
12901,65.0,2.0,30.0,7.0,0.0
12902,79.0,6.0,15.0,0.0,0.0
12903,53.0,1.0,30.0,8.0,0.0
12904,62.0,1.0,30.0,8.0,0.0
12905,77.0,8.0,15.0,0.0,0.0
12906,79.0,1.0,15.0,0.0,0.0
12907,77.0,8.0,15.0,0.0,0.0
12908,72.0,0.0,30.0,7.0,0.0
12909,63.0,3.0,30.0,7.0,0.0
12910,79.0,7.0,15.0,0.0,0.0
12911,60.0,1.0,30.0,8.0,0.0
12912,51.0,1.0,30.0,8.0,0.0
12913,53.0,1.0,30.0,12.0,0.0
12914,46.0,0.0,30.0,12.0,0.0
12915,77.0,8.0,15.0,0.0,0.0
12916,34.0,5.0,30.0,13.0,0.0
12917,79.0,2.0,15.0,0.0,0.0
12918,77.0,2.0,15.0,0.0,0.0
12919,70.0,0.0,30.0,7.0,0.0
12920,79.0,7.0,15.0,0.0,0.0
12921,62.0,0.0,30.0,7.0,0.0
12922,53.0,0.0,15.0,4.0,0.0
12923,58.0,5.0,30.0,8.0,0.0
12924,46.0,0.0,180.0,4.0,0.0
12925,50.0,0.0,30.0,8.0,0.0
12926,46.0,0.0,90.0,12.0,0.0
12927,53.0,0.0,90.0,12.0,0.0
12928,34.0,1.0,90.0,13.0,0.0
12929,77.0,8.0,15.0,0.0,0.0
12930,46.0,1.0,60.0,15.0,0.0
12931,79.0,7.0,15.0,0.0,0.0
12932,77.0,3.0,15.0,0.0,0.0
12933,72.0,2.0,30.0,7.0,0.0
12934,79.0,7.0,15.0,0.0,0.0
12935,65.0,0.0,30.0,7.0,0.0
12936,53.0,1.0,30.0,8.0,0.0
12937,60.0,5.0,30.0,8.0,0.0
12938,77.0,8.0,15.0,0.0,0.0
12939,79.0,7.0,15.0,0.0,0.0
12940,77.0,0.0,15.0,0.0,0.0
12941,74.0,1.0,30.0,7.0,0.0
12942,70.0,2.0,30.0,7.0,0.0
12943,79.0,6.0,15.0,0.0,0.0
12944,58.0,1.0,30.0,8.0,0.0
12945,62.0,1.0,30.0,8.0,0.0
12946,77.0,8.0,15.0,0.0,0.0
12947,79.0,1.0,15.0,0.0,0.0
12948,77.0,8.0,15.0,0.0,0.0
12949,77.0,0.0,30.0,7.0,0.0
12950,72.0,2.0,30.0,7.0,0.0
12951,79.0,7.0,15.0,0.0,0.0
12952,65.0,1.0,30.0,8.0,0.0
12953,60.0,1.0,30.0,8.0,0.0
12954,46.0,0.0,30.0,12.0,0.0
12955,53.0,1.0,30.0,12.0,0.0
12956,77.0,8.0,15.0,0.0,0.0
12957,34.0,5.0,30.0,13.0,0.0
12958,79.0,3.0,15.0,0.0,0.0
12959,77.0,2.0,15.0,0.0,0.0
12960,82.0,0.0,30.0,7.0,0.0
12961,79.0,7.0,15.0,0.0,0.0
12962,70.0,5.0,30.0,8.0,0.0
12963,46.0,0.0,90.0,12.0,0.0
12964,53.0,0.0,90.0,12.0,0.0
12965,77.0,8.0,15.0,0.0,0.0
12966,34.0,1.0,90.0,13.0,0.0
12967,46.0,1.0,60.0,15.0,0.0
12968,79.0,7.0,15.0,0.0,0.0
12969,77.0,3.0,15.0,0.0,0.0
12970,74.0,0.0,15.0,7.0,0.0
12971,77.0,0.0,30.0,7.0,0.0
12972,79.0,7.0,15.0,0.0,0.0
12973,62.0,0.0,15.0,8.0,0.0
12974,65.0,0.0,30.0,8.0,0.0
12975,77.0,8.0,15.0,0.0,0.0
12976,79.0,6.0,15.0,0.0,0.0
12977,77.0,2.0,15.0,0.0,0.0
12978,72.0,1.0,30.0,7.0,0.0
12979,79.0,6.0,15.0,0.0,0.0
12980,75.0,3.0,30.0,7.0,0.0
12981,60.0,1.0,30.0,8.0,0.0
12982,63.0,0.0,30.0,8.0,0.0
12983,77.0,8.0,15.0,0.0,0.0
12984,79.0,1.0,15.0,0.0,0.0
12985,77.0,8.0,15.0,0.0,0.0
12986,74.0,0.0,30.0,7.0,0.0
12987,70.0,4.0,30.0,7.0,0.0
12988,79.0,7.0,15.0,0.0,0.0
12989,62.0,0.0,30.0,8.0,0.0
12990,58.0,1.0,30.0,8.0,0.0
12991,46.0,1.0,30.0,12.0,0.0
12992,53.0,0.0,30.0,12.0,0.0
12993,77.0,8.0,15.0,0.0,0.0
12994,34.0,5.0,30.0,13.0,0.0
12995,79.0,2.0,15.0,0.0,0.0
12996,77.0,2.0,15.0,0.0,0.0
12997,64.0,0.0,30.0,7.0,0.0
12998,72.0,2.0,30.0,7.0,0.0
12999,84.0,7.0,15.0,0.0,0.0
13000,60.0,0.0,30.0,8.0,0.0
13001,52.0,6.0,30.0,8.0,0.0
13002,48.0,1.0,90.0,12.0,0.0
13003,43.0,1.0,90.0,13.0,0.0
13004,82.0,8.0,15.0,0.0,0.0
13005,36.0,0.0,90.0,13.0,0.0
13006,84.0,7.0,15.0,0.0,0.0
13007,82.0,0.0,15.0,0.0,0.0
13008,70.0,1.0,30.0,7.0,0.0
13009,84.0,7.0,15.0,0.0,0.0
13010,74.0,0.0,30.0,7.0,0.0
13011,62.0,6.0,30.0,8.0,0.0
13012,58.0,0.0,30.0,8.0,0.0
13013,82.0,8.0,15.0,0.0,0.0
13014,84.0,6.0,15.0,0.0,0.0
13015,82.0,2.0,15.0,0.0,0.0
13016,72.0,1.0,30.0,7.0,0.0
13017,76.0,3.0,30.0,7.0,0.0
13018,84.0,7.0,15.0,0.0,0.0
13019,64.0,0.0,30.0,8.0,0.0
13020,60.0,1.0,30.0,8.0,0.0
13021,82.0,8.0,15.0,0.0,0.0
13022,84.0,0.0,15.0,0.0,0.0
13023,82.0,8.0,15.0,0.0,0.0
13024,84.0,7.0,15.0,0.0,0.0
13025,74.0,0.0,30.0,7.0,0.0
13026,77.0,2.0,30.0,7.0,0.0
13027,65.0,2.0,30.0,8.0,0.0
13028,62.0,0.0,30.0,8.0,0.0
13029,48.0,1.0,30.0,12.0,0.0
13030,82.0,8.0,15.0,0.0,0.0
13031,36.0,5.0,30.0,13.0,0.0
13032,43.0,0.0,30.0,13.0,0.0
13033,84.0,3.0,15.0,0.0,0.0
13034,82.0,2.0,15.0,0.0,0.0
13035,79.0,1.0,30.0,7.0,0.0
13036,84.0,7.0,15.0,0.0,0.0
13037,76.0,2.0,30.0,7.0,0.0
13038,67.0,1.0,30.0,8.0,0.0
13039,64.0,1.0,30.0,8.0,0.0
13040,48.0,0.0,90.0,12.0,0.0
13041,82.0,8.0,15.0,0.0,0.0
13042,36.0,1.0,90.0,13.0,0.0
13043,43.0,0.0,90.0,13.0,0.0
13044,84.0,2.0,15.0,0.0,0.0
13045,82.0,8.0,15.0,0.0,0.0
13046,77.0,1.0,30.0,7.0,0.0
13047,84.0,7.0,15.0,0.0,0.0
13048,81.0,2.0,30.0,7.0,0.0
13049,69.0,1.0,30.0,8.0,0.0
13050,65.0,1.0,30.0,8.0,0.0
13051,82.0,8.0,15.0,0.0,0.0
13052,84.0,2.0,15.0,0.0,0.0
13053,82.0,8.0,15.0,0.0,0.0
13054,82.0,1.0,30.0,7.0,0.0
13055,79.0,3.0,30.0,7.0,0.0
13056,84.0,7.0,15.0,0.0,0.0
13057,67.0,0.0,30.0,8.0,0.0
13058,70.0,1.0,30.0,8.0,0.0
13059,82.0,8.0,15.0,0.0,0.0
13060,84.0,1.0,15.0,0.0,0.0
13061,82.0,8.0,15.0,0.0,0.0
13062,79.0,1.0,30.0,7.0,0.0
13063,84.0,7.0,15.0,0.0,0.0
13064,82.0,2.0,30.0,7.0,0.0
13065,67.0,1.0,30.0,8.0,0.0
13066,70.0,1.0,30.0,8.0,0.0
13067,48.0,1.0,30.0,12.0,0.0
13068,36.0,7.0,30.0,13.0,0.0
13069,82.0,8.0,15.0,0.0,0.0
13070,43.0,0.0,30.0,13.0,0.0
13071,84.0,2.0,15.0,0.0,0.0
13072,84.0,10.0,15.0,7.0,0.0
13073,79.0,1.0,60.0,7.0,0.0
13074,82.0,2.0,15.0,0.0,0.0
13075,52.0,11.0,30.0,3.0,0.0
13076,48.0,0.0,30.0,3.0,0.0
13077,67.0,3.0,60.0,8.0,0.0
13078,70.0,0.0,60.0,8.0,0.0
13079,48.0,6.0,120.0,12.0,0.0
13080,36.0,3.0,90.0,13.0,0.0
13081,82.0,11.0,15.0,7.0,0.0
13082,84.0,0.0,15.0,7.0,0.0
13083,53.0,0.0,30.0,3.0,0.0
13084,82.0,12.0,15.0,7.0,0.0
13085,50.0,3.0,30.0,3.0,0.0
13086,84.0,2.0,15.0,7.0,0.0
13087,82.0,11.0,15.0,7.0,0.0
13088,55.0,5.0,20.0,3.0,0.0
13089,52.0,0.0,20.0,3.0,0.0
13090,84.0,3.0,15.0,7.0,0.0
13091,82.0,12.0,15.0,7.0,0.0
13092,84.0,10.0,15.0,7.0,0.0
13093,53.0,0.0,20.0,3.0,0.0
13094,57.0,1.0,20.0,3.0,0.0
13095,48.0,0.0,120.0,8.0,0.0
13096,36.0,3.0,30.0,13.0,0.0
13097,82.0,11.0,15.0,7.0,0.0
13098,84.0,2.0,15.0,7.0,0.0
13099,82.0,12.0,15.0,7.0,0.0
13100,58.0,4.0,30.0,3.0,0.0
13101,55.0,0.0,30.0,3.0,0.0
13102,36.0,12.0,90.0,8.0,0.0
13103,36.0,5.0,90.0,13.0,0.0
13104,84.0,7.0,15.0,7.0,0.0
13105,82.0,11.0,15.0,7.0,0.0
13106,60.0,1.0,30.0,3.0,0.0
13107,57.0,0.0,30.0,3.0,0.0
13108,84.0,10.0,15.0,7.0,0.0
13109,82.0,13.0,15.0,7.0,0.0
13110,84.0,9.0,15.0,7.0,0.0
13111,62.0,0.0,20.0,3.0,0.0
13112,58.0,2.0,20.0,3.0,0.0
13113,82.0,3.0,15.0,7.0,0.0
13114,74.0,3.0,15.0,7.0,0.0
13115,76.0,5.0,15.0,7.0,0.0
13116,58.0,10.0,20.0,3.0,0.0
13117,62.0,0.0,20.0,3.0,0.0
13118,36.0,0.0,1230.0,8.0,0.0
13119,36.0,8.0,30.0,13.0,0.0
13120,74.0,4.0,15.0,7.0,0.0
13121,79.0,10.0,15.0,7.0,0.0
13122,24.0,6.0,1200.0,8.0,0.0
13123,36.0,0.0,1200.0,13.0,0.0
13124,81.0,11.0,15.0,7.0,0.0
13125,58.0,0.0,120.0,3.0,0.0
13126,62.0,11.0,120.0,3.0,0.0
13127,79.0,12.0,15.0,7.0,0.0
13128,81.0,11.0,15.0,7.0,0.0
13129,79.0,11.0,15.0,7.0,0.0
13130,81.0,11.0,15.0,7.0,0.0
13131,79.0,12.0,15.0,7.0,0.0
13132,72.0,15.0,15.0,7.0,0.0
13133,74.0,15.0,15.0,7.0,0.0
13134,72.0,11.0,15.0,7.0,0.0
13135,77.0,1.0,15.0,7.0,0.0
13136,57.0,0.0,120.0,3.0,0.0
13137,60.0,11.0,120.0,3.0,0.0
13138,79.0,9.0,15.0,7.0,0.0
13139,77.0,11.0,15.0,7.0,0.0
13140,79.0,13.0,15.0,7.0,0.0
13141,77.0,10.0,15.0,7.0,0.0
13142,79.0,12.0,15.0,7.0,0.0
13143,77.0,12.0,15.0,7.0,0.0
13144,70.0,15.0,15.0,7.0,0.0
13145,72.0,15.0,15.0,7.0,0.0
13146,70.0,10.0,15.0,7.0,0.0
13147,76.0,2.0,15.0,7.0,0.0
13148,55.0,11.0,120.0,3.0,0.0
13149,58.0,0.0,120.0,3.0,0.0
13150,77.0,11.0,15.0,7.0,0.0
13151,76.0,9.0,15.0,7.0,0.0
13152,77.0,13.0,15.0,7.0,0.0
13153,76.0,11.0,15.0,7.0,0.0
13154,77.0,11.0,15.0,7.0,0.0
13155,76.0,12.0,15.0,7.0,0.0
13156,69.0,15.0,15.0,7.0,0.0
13157,70.0,15.0,15.0,7.0,0.0
13158,69.0,11.0,15.0,7.0,0.0
13159,74.0,1.0,15.0,7.0,0.0
13160,76.0,10.0,15.0,7.0,0.0
13161,53.0,0.0,120.0,3.0,0.0
13162,57.0,10.0,120.0,3.0,0.0
13163,74.0,11.0,15.0,7.0,0.0
13164,76.0,11.0,15.0,7.0,0.0
13165,74.0,12.0,15.0,7.0,0.0
13166,76.0,10.0,15.0,7.0,0.0
13167,74.0,13.0,15.0,7.0,0.0
13168,67.0,15.0,15.0,7.0,0.0
13169,69.0,15.0,15.0,7.0,0.0
13170,67.0,11.0,15.0,7.0,0.0
13171,72.0,1.0,15.0,7.0,0.0
13172,74.0,11.0,15.0,7.0,0.0
13173,55.0,11.0,120.0,3.0,0.0
13174,52.0,0.0,120.0,3.0,0.0
13175,72.0,12.0,15.0,7.0,0.0
13176,74.0,11.0,15.0,7.0,0.0
13177,72.0,12.0,15.0,7.0,0.0
13178,74.0,10.0,15.0,7.0,0.0
13179,72.0,12.0,15.0,7.0,0.0
13180,65.0,15.0,15.0,7.0,0.0
13181,67.0,15.0,15.0,7.0,0.0
13182,65.0,12.0,15.0,7.0,0.0
13183,71.0,0.0,15.0,7.0,0.0
13184,72.0,11.0,15.0,7.0,0.0
13185,53.0,0.0,120.0,3.0,0.0
13186,50.0,2.0,120.0,3.0,0.0
13187,71.0,9.0,15.0,7.0,0.0
13188,72.0,12.0,15.0,7.0,0.0
13189,71.0,11.0,15.0,7.0,0.0
13190,72.0,13.0,15.0,7.0,0.0
13191,71.0,11.0,15.0,7.0,0.0
13192,65.0,15.0,15.0,7.0,0.0
13193,67.0,15.0,15.0,7.0,0.0
13194,65.0,7.0,15.0,7.0,0.0
13195,70.0,5.0,15.0,7.0,0.0
13196,72.0,9.0,15.0,7.0,0.0
13197,48.0,4.0,480.0,3.0,0.0
13198,52.0,0.0,480.0,3.0,0.0
13199,70.0,8.0,15.0,7.0,0.0
13200,72.0,9.0,15.0,7.0,0.0
13201,70.0,8.0,15.0,7.0,0.0
13202,72.0,7.0,15.0,7.0,0.0
13203,70.0,9.0,15.0,7.0,0.0
13204,72.0,7.0,15.0,7.0,0.0
13205,70.0,19.0,15.0,7.0,0.0
13206,60.0,15.0,15.0,7.0,0.0
13207,62.0,15.0,15.0,7.0,0.0
13208,60.0,9.0,15.0,7.0,0.0
13209,67.0,7.0,15.0,7.0,0.0
13210,69.0,8.0,15.0,7.0,0.0
13211,67.0,7.0,15.0,7.0,0.0
13212,69.0,8.0,15.0,7.0,0.0
13213,67.0,10.0,15.0,7.0,0.0
13214,69.0,7.0,15.0,7.0,0.0
13215,67.0,9.0,15.0,7.0,0.0
13216,69.0,7.0,15.0,7.0,0.0
13217,67.0,18.0,15.0,7.0,0.0
13218,60.0,15.0,15.0,7.0,0.0
13219,62.0,15.0,15.0,7.0,0.0
13220,60.0,8.0,15.0,7.0,0.0
13221,70.0,7.0,15.0,7.0,0.0
13222,72.0,8.0,15.0,7.0,0.0
13223,70.0,8.0,15.0,7.0,0.0
13224,72.0,8.0,15.0,7.0,0.0
13225,70.0,10.0,15.0,7.0,0.0
13226,72.0,7.0,15.0,7.0,0.0
13227,70.0,9.0,15.0,7.0,0.0
13228,72.0,7.0,15.0,7.0,0.0
13229,70.0,18.0,15.0,7.0,0.0
13230,60.0,15.0,15.0,7.0,0.0
13231,62.0,15.0,15.0,7.0,0.0
13232,60.0,8.0,15.0,7.0,0.0
13233,67.0,7.0,15.0,7.0,0.0
13234,69.0,8.0,15.0,7.0,0.0
13235,67.0,9.0,15.0,7.0,0.0
13236,69.0,8.0,15.0,7.0,0.0
13237,67.0,7.0,15.0,7.0,0.0
13238,69.0,8.0,15.0,7.0,0.0
13239,67.0,8.0,15.0,7.0,0.0
13240,69.0,8.0,15.0,7.0,0.0
13241,67.0,19.0,15.0,7.0,0.0
13242,60.0,15.0,15.0,7.0,0.0
13243,62.0,15.0,15.0,7.0,0.0
13244,60.0,3.0,15.0,7.0,0.0
13245,67.0,3.0,15.0,7.0,0.0
13246,41.0,0.0,450.0,8.0,0.0
13247,29.0,12.0,450.0,8.0,0.0
13248,41.0,3.0,480.0,13.0,0.0
13249,69.0,8.0,15.0,7.0,0.0
13250,48.0,9.0,480.0,3.0,0.0
13251,51.0,0.0,480.0,3.0,0.0
13252,67.0,8.0,15.0,7.0,0.0
13253,69.0,9.0,15.0,7.0,0.0
13254,67.0,6.0,15.0,7.0,0.0
13255,69.0,8.0,15.0,7.0,0.0
13256,67.0,8.0,15.0,7.0,0.0
13257,69.0,8.0,15.0,7.0,0.0
13258,67.0,19.0,15.0,7.0,0.0
13259,60.0,15.0,15.0,7.0,0.0
13260,62.0,15.0,15.0,7.0,0.0
13261,60.0,9.0,15.0,7.0,0.0
13262,65.0,6.0,15.0,7.0,0.0
13263,67.0,8.0,15.0,7.0,0.0
13264,65.0,8.0,15.0,7.0,0.0
13265,67.0,10.0,15.0,7.0,0.0
13266,65.0,8.0,15.0,7.0,0.0
13267,67.0,6.0,15.0,7.0,0.0
13268,65.0,10.0,15.0,7.0,0.0
13269,67.0,5.0,15.0,7.0,0.0
13270,65.0,20.0,15.0,7.0,0.0
13271,60.0,15.0,15.0,7.0,0.0
13272,62.0,15.0,15.0,7.0,0.0
13273,60.0,9.0,15.0,7.0,0.0
13274,67.0,6.0,15.0,7.0,0.0
13275,69.0,8.0,15.0,7.0,0.0
13276,67.0,9.0,15.0,7.0,0.0
13277,69.0,8.0,15.0,7.0,0.0
13278,67.0,9.0,15.0,7.0,0.0
13279,69.0,7.0,15.0,7.0,0.0
13280,67.0,9.0,15.0,7.0,0.0
13281,69.0,7.0,15.0,7.0,0.0
13282,67.0,18.0,15.0,7.0,0.0
13283,60.0,15.0,15.0,7.0,0.0
13284,62.0,15.0,15.0,7.0,0.0
13285,60.0,9.0,15.0,7.0,0.0
13286,65.0,6.0,15.0,7.0,0.0
13287,67.0,9.0,15.0,7.0,0.0
13288,65.0,7.0,15.0,7.0,0.0
13289,67.0,8.0,15.0,7.0,0.0
13290,65.0,9.0,15.0,7.0,0.0
13291,67.0,8.0,15.0,7.0,0.0
13292,65.0,8.0,15.0,7.0,0.0
13293,67.0,8.0,15.0,7.0,0.0
13294,65.0,18.0,15.0,7.0,0.0
13295,60.0,3.0,15.0,7.0,0.0
13296,62.0,15.0,15.0,7.0,0.0
13297,41.0,5.0,30.0,8.0,0.0
13298,60.0,3.0,15.0,7.0,0.0
13299,63.0,1.0,15.0,7.0,0.0
13300,51.0,5.0,90.0,8.0,0.0
13301,53.0,0.0,720.0,4.0,0.0
13302,41.0,6.0,720.0,4.0,0.0
13303,65.0,11.0,15.0,7.0,0.0
13304,63.0,11.0,15.0,7.0,0.0
13305,62.0,11.0,15.0,7.0,0.0
13306,63.0,11.0,15.0,7.0,0.0
13307,65.0,11.0,15.0,7.0,0.0
13308,67.0,11.0,15.0,7.0,0.0
13309,69.0,6.0,15.0,7.0,0.0
13310,70.0,11.0,15.0,7.0,0.0
13311,41.0,9.0,30.0,8.0,0.0
13312,72.0,11.0,15.0,7.0,0.0
13313,74.0,3.0,15.0,7.0,0.0
13314,75.0,12.0,15.0,7.0,0.0
13315,48.0,3.0,90.0,8.0,0.0
13316,74.0,12.0,15.0,7.0,0.0
13317,51.0,8.0,600.0,3.0,0.0
13318,48.0,0.0,600.0,3.0,0.0
13319,72.0,12.0,15.0,7.0,0.0
13320,70.0,12.0,15.0,7.0,0.0
13321,69.0,12.0,15.0,7.0,0.0
13322,67.0,12.0,15.0,7.0,0.0
13323,65.0,9.0,15.0,7.0,0.0
13324,63.0,12.0,15.0,7.0,0.0
13325,41.0,10.0,30.0,8.0,0.0
13326,65.0,12.0,15.0,7.0,0.0
13327,67.0,3.0,15.0,7.0,0.0
13328,57.0,0.0,480.0,2.0,0.0
13329,69.0,13.0,15.0,7.0,0.0
13330,60.0,0.0,480.0,2.0,0.0
13331,51.0,13.0,90.0,8.0,0.0
13332,70.0,13.0,15.0,7.0,0.0
13333,72.0,14.0,15.0,7.0,0.0
13334,74.0,13.0,15.0,7.0,0.0
13335,75.0,13.0,15.0,7.0,0.0
13336,77.0,14.0,15.0,7.0,0.0
13337,79.0,0.0,15.0,7.0,0.0
13338,81.0,13.0,15.0,7.0,0.0
13339,41.0,7.0,30.0,8.0,0.0
13340,82.0,4.0,15.0,7.0,0.0
13341,84.0,10.0,15.0,7.0,0.0
13342,65.0,0.0,600.0,0.0,0.0
13343,72.0,2.0,360.0,0.0,0.0
13344,48.0,7.0,90.0,8.0,0.0
13345,82.0,10.0,15.0,7.0,0.0
13346,81.0,10.0,15.0,7.0,0.0
13347,79.0,10.0,15.0,7.0,0.0
13348,77.0,10.0,15.0,7.0,0.0
13349,75.0,10.0,15.0,7.0,0.0
13350,74.0,10.0,15.0,7.0,0.0
13351,72.0,10.0,15.0,7.0,0.0
13352,74.0,3.0,15.0,7.0,0.0
13353,75.0,10.0,15.0,7.0,0.0
13354,41.0,8.0,30.0,8.0,0.0
13355,77.0,10.0,15.0,7.0,0.0
13356,79.0,3.0,15.0,7.0,0.0
13357,81.0,10.0,15.0,7.0,0.0
13358,53.0,5.0,90.0,8.0,0.0
13359,65.0,7.0,120.0,1.0,0.0
13360,69.0,0.0,120.0,1.0,0.0
13361,82.0,11.0,15.0,7.0,0.0
13362,84.0,11.0,15.0,7.0,0.0
13363,86.0,11.0,15.0,7.0,0.0
13364,87.0,11.0,15.0,7.0,0.0
13365,89.0,11.0,15.0,7.0,0.0
13366,91.0,11.0,15.0,7.0,0.0
13367,93.0,6.0,15.0,7.0,0.0
13368,94.0,11.0,15.0,7.0,0.0
13369,41.0,1.0,30.0,8.0,0.0
13370,96.0,11.0,15.0,7.0,0.0
13371,98.0,3.0,15.0,7.0,0.0
13372,99.0,10.0,15.0,7.0,0.0
13373,53.0,5.0,90.0,8.0,0.0
13374,72.0,0.0,120.0,1.0,0.0
13375,69.0,0.0,120.0,1.0,0.0
13376,98.0,11.0,15.0,7.0,0.0
13377,96.0,11.0,15.0,7.0,0.0
13378,94.0,11.0,15.0,7.0,0.0
13379,93.0,11.0,15.0,7.0,0.0
13380,91.0,11.0,15.0,7.0,0.0
13381,89.0,11.0,15.0,7.0,0.0
13382,87.0,6.0,15.0,7.0,0.0
13383,86.0,11.0,15.0,7.0,0.0
13384,29.0,1.0,30.0,8.0,0.0
13385,41.0,0.0,30.0,8.0,0.0
13386,84.0,11.0,15.0,7.0,0.0
13387,82.0,1.0,15.0,7.0,0.0
13388,63.0,1.0,240.0,2.0,0.0
13389,65.0,1.0,360.0,2.0,0.0
13390,81.0,2.0,15.0,7.0,0.0
13391,74.0,2.0,240.0,0.0,0.0
13392,53.0,7.0,90.0,8.0,0.0
13393,65.0,0.0,240.0,4.0,0.0
13394,72.0,0.0,120.0,1.0,0.0
13395,79.0,10.0,15.0,7.0,0.0
13396,41.0,0.0,240.0,3.0,0.0
13397,53.0,18.0,240.0,3.0,0.0
13398,77.0,10.0,15.0,7.0,0.0
13399,75.0,10.0,15.0,7.0,0.0
13400,74.0,10.0,15.0,7.0,0.0
13401,72.0,10.0,15.0,7.0,0.0
13402,70.0,10.0,15.0,7.0,0.0
13403,69.0,10.0,15.0,7.0,0.0
13404,67.0,3.0,15.0,7.0,0.0
13405,65.0,10.0,15.0,7.0,0.0
13406,41.0,0.0,15.0,8.0,0.0
13407,29.0,0.0,30.0,8.0,0.0
13408,63.0,10.0,15.0,7.0,0.0
13409,62.0,3.0,15.0,7.0,0.0
13410,60.0,10.0,15.0,7.0,0.0
13411,53.0,7.0,90.0,8.0,0.0
13412,41.0,1.0,15.0,8.0,0.0
13413,75.0,6.0,15.0,1.0,0.0
13414,81.0,8.0,120.0,1.0,0.0
13415,58.0,10.0,15.0,7.0,0.0
13416,57.0,10.0,15.0,7.0,0.0
13417,55.0,10.0,15.0,7.0,0.0
13418,53.0,10.0,15.0,7.0,0.0
13419,51.0,10.0,15.0,7.0,0.0
13420,50.0,10.0,15.0,7.0,0.0
13421,48.0,10.0,15.0,7.0,0.0
13422,46.0,3.0,15.0,7.0,0.0
13423,45.0,10.0,15.0,7.0,0.0
13424,41.0,0.0,15.0,8.0,0.0
13425,29.0,0.0,30.0,8.0,0.0
13426,43.0,10.0,15.0,7.0,0.0
13427,41.0,0.0,15.0,7.0,0.0
13428,53.0,2.0,30.0,7.0,0.0
13429,62.0,0.0,240.0,2.0,0.0
13430,70.0,3.0,120.0,0.0,0.0
13431,53.0,28.0,30.0,11.0,0.0
13432,53.0,0.0,15.0,4.0,0.0
13433,46.0,0.0,120.0,4.0,0.0
13434,74.0,0.0,120.0,1.0,0.0
13435,82.0,0.0,120.0,1.0,0.0
13436,34.0,0.0,480.0,8.0,0.0
13437,34.0,4.0,120.0,13.0,0.0
13438,46.0,18.0,120.0,3.0,0.0
13439,51.0,30.0,30.0,7.0,0.0
13440,50.0,30.0,30.0,7.0,0.0
13441,58.0,16.0,90.0,11.0,0.0
13442,48.0,0.0,30.0,7.0,0.0
13443,50.0,14.0,30.0,7.0,0.0
13444,53.0,22.0,30.0,7.0,0.0
13445,51.0,2.0,30.0,7.0,0.0
13446,60.0,8.0,15.0,11.0,0.0
13447,62.0,10.0,15.0,11.0,0.0
13448,48.0,2.0,30.0,7.0,0.0
13449,60.0,10.0,15.0,11.0,0.0
13450,58.0,8.0,15.0,11.0,0.0
13451,60.0,28.0,15.0,11.0,0.0
13452,46.0,17.0,30.0,7.0,0.0
13453,62.0,13.0,40.0,11.0,0.0
13454,50.0,30.0,30.0,7.0,0.0
13455,46.0,17.0,30.0,7.0,0.0
13456,65.0,13.0,40.0,11.0,0.0
13457,45.0,30.0,30.0,7.0,0.0
13458,43.0,17.0,30.0,7.0,0.0
13459,70.0,13.0,40.0,11.0,0.0
13460,46.0,30.0,30.0,7.0,0.0
13461,45.0,17.0,30.0,7.0,0.0
13462,70.0,13.0,40.0,11.0,0.0
13463,41.0,6.0,30.0,7.0,0.0
13464,58.0,0.0,30.0,10.0,0.0
13465,43.0,30.0,30.0,7.0,0.0
13466,70.0,13.0,300.0,11.0,0.0
13467,22.0,24.0,15.0,8.0,0.0
13468,34.0,22.0,120.0,13.0,0.0
13469,46.0,30.0,30.0,7.0,0.0
13470,63.0,8.0,120.0,10.0,0.0
13471,51.0,30.0,30.0,7.0,0.0
13472,53.0,8.0,30.0,7.0,0.0
13473,55.0,22.0,30.0,7.0,0.0
13474,58.0,15.0,30.0,7.0,0.0
13475,67.0,15.0,15.0,10.0,0.0
13476,57.0,0.0,30.0,7.0,0.0
13477,65.0,15.0,15.0,10.0,0.0
13478,67.0,15.0,15.0,10.0,0.0
13479,53.0,30.0,30.0,7.0,0.0
13480,65.0,0.0,15.0,10.0,0.0
13481,67.0,2.0,40.0,10.0,0.0
13482,51.0,15.0,30.0,7.0,0.0
13483,55.0,30.0,30.0,7.0,0.0
13484,70.0,2.0,40.0,10.0,0.0
13485,53.0,15.0,30.0,7.0,0.0
13486,70.0,13.0,40.0,11.0,0.0
13487,50.0,30.0,30.0,7.0,0.0
13488,75.0,2.0,40.0,10.0,0.0
13489,48.0,15.0,30.0,7.0,0.0
13490,69.0,13.0,40.0,11.0,0.0
13491,51.0,30.0,30.0,7.0,0.0
13492,75.0,2.0,40.0,10.0,0.0
13493,50.0,15.0,30.0,7.0,0.0
13494,67.0,13.0,40.0,11.0,0.0
13495,46.0,6.0,30.0,7.0,0.0
13496,45.0,2.0,30.0,7.0,0.0
13497,75.0,2.0,300.0,10.0,0.0
13498,65.0,28.0,30.0,11.0,0.0
13499,22.0,24.0,15.0,8.0,0.0
13500,34.0,0.0,15.0,8.0,0.0
13501,34.0,22.0,120.0,13.0,0.0
13502,48.0,30.0,30.0,7.0,0.0
13503,51.0,30.0,30.0,7.0,0.0
13504,69.0,16.0,90.0,11.0,0.0
13505,57.0,8.0,30.0,7.0,0.0
13506,60.0,14.0,30.0,7.0,0.0
13507,63.0,17.0,30.0,7.0,0.0
13508,62.0,2.0,30.0,7.0,0.0
13509,72.0,13.0,15.0,11.0,0.0
13510,70.0,15.0,15.0,11.0,0.0
13511,58.0,2.0,30.0,7.0,0.0
13512,72.0,13.0,15.0,11.0,0.0
13513,70.0,28.0,15.0,11.0,0.0
13514,57.0,15.0,30.0,7.0,0.0
13515,72.0,13.0,40.0,11.0,0.0
13516,60.0,30.0,30.0,7.0,0.0
13517,75.0,2.0,40.0,10.0,0.0
13518,58.0,15.0,30.0,7.0,0.0
13519,75.0,13.0,40.0,11.0,0.0
13520,55.0,30.0,30.0,7.0,0.0
13521,74.0,2.0,40.0,10.0,0.0
13522,53.0,15.0,30.0,7.0,0.0
13523,80.0,13.0,40.0,11.0,0.0
13524,56.0,30.0,30.0,7.0,0.0
13525,55.0,15.0,30.0,7.0,0.0
13526,72.0,2.0,40.0,10.0,0.0
13527,80.0,13.0,40.0,11.0,0.0
13528,51.0,6.0,30.0,7.0,0.0
13529,50.0,30.0,30.0,7.0,0.0
13530,70.0,0.0,30.0,10.0,0.0
13531,80.0,13.0,300.0,11.0,0.0
13532,34.0,24.0,15.0,8.0,0.0
13533,34.0,22.0,120.0,13.0,0.0
13534,53.0,30.0,30.0,7.0,0.0
13535,56.0,30.0,30.0,7.0,0.0
13536,75.0,18.0,90.0,10.0,0.0
13537,62.0,8.0,30.0,7.0,0.0
13538,65.0,12.0,30.0,7.0,0.0
13539,68.0,15.0,30.0,7.0,0.0
13540,67.0,0.0,30.0,7.0,0.0
13541,77.0,15.0,15.0,10.0,0.0
13542,75.0,15.0,15.0,10.0,0.0
13543,63.0,0.0,30.0,7.0,0.0
13544,77.0,15.0,15.0,10.0,0.0
13545,75.0,30.0,15.0,10.0,0.0
13546,77.0,2.0,40.0,10.0,0.0
13547,62.0,15.0,30.0,7.0,0.0
13548,65.0,30.0,30.0,7.0,0.0
13549,63.0,15.0,30.0,7.0,0.0
13550,80.0,2.0,40.0,10.0,0.0
13551,80.0,13.0,40.0,11.0,0.0
13552,60.0,30.0,30.0,7.0,0.0
13553,89.0,2.0,40.0,10.0,0.0
13554,58.0,15.0,30.0,7.0,0.0
13555,79.0,13.0,40.0,11.0,0.0
13556,58.0,18.0,600.0,3.0,0.0
13557,62.0,30.0,30.0,7.0,0.0
13558,60.0,15.0,30.0,7.0,0.0
13559,89.0,2.0,40.0,10.0,0.0
13560,77.0,13.0,40.0,11.0,0.0
13561,56.0,6.0,30.0,7.0,0.0
13562,89.0,2.0,60.0,10.0,0.0
13563,55.0,30.0,30.0,7.0,0.0
13564,77.0,28.0,60.0,11.0,0.0
13565,67.0,2.0,240.0,1.0,0.0
13566,22.0,24.0,15.0,8.0,0.0
13567,34.0,0.0,240.0,8.0,0.0
13568,46.0,22.0,120.0,13.0,0.0
13569,34.0,0.0,120.0,13.0,0.0
13570,55.0,18.0,240.0,3.0,0.0
13571,58.0,0.0,30.0,7.0,0.0
13572,67.0,30.0,30.0,7.0,0.0
13573,87.0,2.0,90.0,10.0,0.0
13574,75.0,16.0,90.0,11.0,0.0
13575,70.0,8.0,30.0,7.0,0.0
13576,82.0,12.0,30.0,7.0,0.0
13577,70.0,30.0,30.0,7.0,0.0
13578,67.0,12.0,30.0,7.0,0.0
13579,87.0,2.0,40.0,10.0,0.0
13580,75.0,16.0,40.0,11.0,0.0
13581,58.0,4.0,30.0,7.0,0.0
13582,87.0,2.0,60.0,10.0,0.0
13583,53.0,30.0,30.0,7.0,0.0
13584,75.0,28.0,60.0,11.0,0.0
13585,65.0,2.0,240.0,1.0,0.0
13586,22.0,6.0,15.0,8.0,0.0
13587,34.0,6.0,240.0,8.0,0.0
13588,46.0,22.0,120.0,13.0,0.0
13589,34.0,0.0,120.0,13.0,0.0
13590,53.0,0.0,240.0,3.0,0.0
13591,58.0,0.0,30.0,7.0,0.0
13592,86.0,2.0,90.0,10.0,0.0
13593,65.0,30.0,30.0,7.0,0.0
13594,74.0,16.0,90.0,11.0,0.0
13595,70.0,8.0,30.0,7.0,0.0
13596,82.0,12.0,30.0,7.0,0.0
13597,70.0,30.0,30.0,7.0,0.0
13598,65.0,12.0,30.0,7.0,0.0
13599,86.0,2.0,40.0,10.0,0.0
13600,74.0,16.0,40.0,11.0,0.0
13601,58.0,4.0,30.0,7.0,0.0
13602,52.0,30.0,30.0,7.0,0.0
13603,86.0,2.0,60.0,10.0,0.0
13604,74.0,28.0,60.0,11.0,0.0
13605,70.0,0.0,15.0,1.0,0.0
13606,79.0,2.0,240.0,1.0,0.0
13607,22.0,0.0,15.0,8.0,0.0
13608,34.0,0.0,240.0,8.0,0.0
13609,34.0,0.0,120.0,13.0,0.0
13610,46.0,22.0,120.0,13.0,0.0
13611,55.0,18.0,240.0,3.0,0.0
13612,52.0,0.0,240.0,3.0,0.0
13613,58.0,0.0,30.0,7.0,0.0
13614,64.0,30.0,30.0,7.0,0.0
13615,84.0,2.0,90.0,10.0,0.0
13616,72.0,16.0,90.0,11.0,0.0
13617,70.0,8.0,30.0,7.0,0.0
13618,82.0,12.0,30.0,7.0,0.0
13619,70.0,30.0,30.0,7.0,0.0
13620,84.0,2.0,40.0,10.0,0.0
13621,64.0,12.0,30.0,7.0,0.0
13622,72.0,16.0,40.0,11.0,0.0
13623,58.0,4.0,30.0,7.0,0.0
13624,86.0,2.0,60.0,10.0,0.0
13625,51.0,30.0,30.0,7.0,0.0
13626,74.0,28.0,60.0,11.0,0.0
13627,69.0,0.0,240.0,1.0,0.0
13628,22.0,6.0,15.0,8.0,0.0
13629,46.0,0.0,120.0,13.0,0.0
13630,34.0,22.0,120.0,13.0,0.0
13631,51.0,18.0,240.0,3.0,0.0
13632,60.0,0.0,240.0,3.0,0.0
13633,57.0,0.0,30.0,7.0,0.0
13634,63.0,30.0,30.0,7.0,0.0
13635,84.0,2.0,90.0,10.0,0.0
13636,72.0,16.0,90.0,11.0,0.0
13637,69.0,8.0,30.0,7.0,0.0
13638,81.0,12.0,30.0,7.0,0.0
13639,69.0,30.0,30.0,7.0,0.0
13640,63.0,12.0,30.0,7.0,0.0
13641,84.0,2.0,40.0,10.0,0.0
13642,72.0,16.0,40.0,11.0,0.0
13643,57.0,4.0,30.0,7.0,0.0
13644,50.0,0.0,30.0,7.0,0.0
13645,84.0,30.0,30.0,10.0,0.0
13646,65.0,6.0,120.0,11.0,0.0
13647,72.0,0.0,60.0,1.0,0.0
13648,77.0,2.0,15.0,1.0,0.0
13649,22.0,0.0,15.0,8.0,0.0
13650,34.0,6.0,15.0,8.0,0.0
13651,34.0,0.0,120.0,13.0,0.0
13652,50.0,18.0,60.0,3.0,0.0
13653,53.0,0.0,60.0,3.0,0.0
13654,53.0,4.0,30.0,7.0,0.0
13655,77.0,0.0,30.0,10.0,0.0
13656,62.0,30.0,30.0,7.0,0.0
13657,65.0,2.0,30.0,7.0,0.0
13658,82.0,30.0,30.0,10.0,0.0
13659,77.0,0.0,30.0,7.0,0.0
13660,77.0,0.0,60.0,1.0,0.0
13661,70.0,2.0,60.0,1.0,0.0
13662,61.0,0.0,60.0,8.0,0.0
13663,58.0,6.0,60.0,8.0,0.0
13664,49.0,0.0,60.0,8.0,0.0
13665,46.0,22.0,15.0,13.0,0.0
13666,34.0,22.0,120.0,13.0,0.0
13667,49.0,18.0,60.0,3.0,0.0
13668,58.0,0.0,60.0,3.0,0.0
13669,65.0,4.0,30.0,7.0,0.0
13670,77.0,0.0,30.0,10.0,0.0
13671,61.0,30.0,30.0,7.0,0.0
13672,53.0,8.0,30.0,7.0,0.0
13673,48.0,30.0,30.0,7.0,0.0
13674,82.0,0.0,30.0,10.0,0.0
13675,75.0,0.0,60.0,1.0,0.0
13676,70.0,2.0,60.0,1.0,0.0
13677,34.0,6.0,60.0,8.0,0.0
13678,22.0,0.0,60.0,8.0,0.0
13679,34.0,22.0,120.0,13.0,0.0
13680,46.0,0.0,120.0,13.0,0.0
13681,48.0,0.0,60.0,3.0,0.0
13682,60.0,18.0,60.0,3.0,0.0
13683,51.0,4.0,30.0,7.0,0.0
13684,60.0,30.0,30.0,7.0,0.0
13685,75.0,0.0,30.0,10.0,0.0
13686,63.0,8.0,30.0,7.0,0.0
13687,75.0,30.0,30.0,7.0,0.0
13688,81.0,0.0,30.0,10.0,0.0
13689,72.0,2.0,60.0,1.0,0.0
13690,69.0,0.0,60.0,1.0,0.0
13691,60.0,0.0,60.0,8.0,0.0
13692,57.0,6.0,60.0,8.0,0.0
13693,48.0,0.0,60.0,8.0,0.0
13694,51.0,0.0,60.0,3.0,0.0
13695,60.0,18.0,60.0,3.0,0.0
13696,69.0,4.0,30.0,7.0,0.0
13697,72.0,30.0,30.0,10.0,0.0
13698,63.0,0.0,30.0,7.0,0.0
13699,57.0,8.0,30.0,7.0,0.0
13700,50.0,30.0,30.0,7.0,0.0
13701,82.0,0.0,30.0,10.0,0.0
13702,74.0,2.0,60.0,1.0,0.0
13703,70.0,0.0,60.0,1.0,0.0
13704,22.0,6.0,60.0,8.0,0.0
13705,34.0,0.0,60.0,8.0,0.0
13706,46.0,22.0,15.0,13.0,0.0
13707,34.0,0.0,15.0,13.0,0.0
13708,50.0,18.0,60.0,3.0,0.0
13709,58.0,0.0,60.0,3.0,0.0
13710,53.0,4.0,30.0,7.0,0.0
13711,70.0,0.0,30.0,10.0,0.0
13712,62.0,30.0,30.0,7.0,0.0
13713,65.0,8.0,30.0,7.0,0.0
13714,79.0,0.0,30.0,10.0,0.0
13715,79.0,30.0,30.0,7.0,0.0
13716,67.0,0.0,60.0,1.0,0.0
13717,70.0,2.0,60.0,1.0,0.0
13718,55.0,0.0,60.0,8.0,0.0
13719,46.0,0.0,60.0,8.0,0.0
13720,39.0,6.0,60.0,8.0,0.0
13721,39.0,22.0,120.0,13.0,0.0
13722,51.0,18.0,60.0,3.0,0.0
13723,58.0,0.0,60.0,3.0,0.0
13724,70.0,4.0,30.0,7.0,0.0
13725,67.0,0.0,30.0,7.0,0.0
13726,70.0,30.0,30.0,10.0,0.0
13727,58.0,8.0,30.0,7.0,0.0
13728,77.0,0.0,30.0,10.0,0.0
13729,77.0,30.0,30.0,7.0,0.0
13730,65.0,2.0,60.0,1.0,0.0
13731,70.0,0.0,60.0,1.0,0.0
13732,53.0,0.0,60.0,8.0,0.0
13733,50.0,0.0,60.0,8.0,0.0
13734,41.0,6.0,60.0,8.0,0.0
13735,62.0,18.0,60.0,3.0,0.0
13736,53.0,0.0,60.0,3.0,0.0
13737,70.0,4.0,30.0,7.0,0.0
13738,65.0,0.0,30.0,10.0,0.0
13739,65.0,30.0,30.0,7.0,0.0
13740,58.0,8.0,30.0,7.0,0.0
13741,77.0,0.0,30.0,7.0,0.0
13742,77.0,30.0,30.0,10.0,0.0
13743,65.0,2.0,60.0,1.0,0.0
13744,69.0,0.0,60.0,1.0,0.0
13745,57.0,0.0,60.0,8.0,0.0
13746,48.0,6.0,60.0,8.0,0.0
13747,41.0,0.0,60.0,8.0,0.0
13748,41.0,22.0,15.0,13.0,0.0
13749,53.0,0.0,60.0,3.0,0.0
13750,60.0,18.0,60.0,3.0,0.0
13751,69.0,4.0,30.0,7.0,0.0
13752,69.0,30.0,30.0,10.0,0.0
13753,65.0,0.0,30.0,7.0,0.0
13754,57.0,8.0,30.0,7.0,0.0
13755,65.0,0.0,60.0,10.0,0.0
13756,53.0,2.0,30.0,7.0,0.0
13757,53.0,28.0,30.0,11.0,0.0
13758,34.0,24.0,300.0,8.0,0.0
13759,22.0,24.0,240.0,8.0,0.0
13760,46.0,5.0,120.0,13.0,0.0
13761,53.0,18.0,60.0,3.0,0.0
13762,34.0,17.0,120.0,14.0,0.0
13763,51.0,12.0,30.0,7.0,0.0
13764,50.0,30.0,30.0,7.0,0.0
13765,58.0,16.0,90.0,11.0,0.0
13766,48.0,8.0,30.0,7.0,0.0
13767,50.0,12.0,30.0,7.0,0.0
13768,53.0,2.0,30.0,3.0,0.0
13769,50.0,0.0,30.0,3.0,0.0
13770,53.0,17.0,30.0,7.0,0.0
13771,51.0,2.0,30.0,7.0,0.0
13772,62.0,13.0,15.0,11.0,0.0
13773,51.0,0.0,30.0,3.0,0.0
13774,48.0,5.0,30.0,3.0,0.0
13775,60.0,10.0,15.0,11.0,0.0
13776,48.0,2.0,30.0,7.0,0.0
13777,62.0,13.0,15.0,11.0,0.0
13778,60.0,4.0,15.0,11.0,0.0
13779,46.0,12.0,30.0,7.0,0.0
13780,62.0,13.0,40.0,11.0,0.0
13781,46.0,0.0,30.0,3.0,0.0
13782,50.0,5.0,30.0,3.0,0.0
13783,50.0,6.0,30.0,7.0,0.0
13784,48.0,12.0,30.0,7.0,0.0
13785,65.0,13.0,40.0,11.0,0.0
13786,32.0,2.0,60.0,8.0,0.0
13787,44.0,5.0,60.0,13.0,0.0
13788,44.0,5.0,30.0,3.0,0.0
13789,48.0,0.0,30.0,3.0,0.0
13790,32.0,17.0,60.0,14.0,0.0
13791,44.0,6.0,30.0,7.0,0.0
13792,43.0,12.0,30.0,7.0,0.0
13793,70.0,13.0,40.0,11.0,0.0
13794,31.0,2.0,60.0,8.0,0.0
13795,43.0,5.0,60.0,13.0,0.0
13796,43.0,5.0,30.0,3.0,0.0
13797,46.0,0.0,30.0,3.0,0.0
13798,31.0,17.0,60.0,14.0,0.0
13799,46.0,6.0,30.0,7.0,0.0
13800,41.0,12.0,30.0,7.0,0.0
13801,70.0,13.0,40.0,11.0,0.0
13802,29.0,2.0,60.0,8.0,0.0
13803,41.0,5.0,60.0,13.0,0.0
13804,41.0,0.0,30.0,3.0,0.0
13805,44.0,5.0,30.0,3.0,0.0
13806,29.0,17.0,60.0,14.0,0.0
13807,46.0,6.0,30.0,7.0,0.0
13808,43.0,0.0,30.0,7.0,0.0
13809,58.0,6.0,30.0,10.0,0.0
13810,70.0,13.0,300.0,11.0,0.0
13811,27.0,24.0,30.0,8.0,0.0
13812,39.0,5.0,120.0,13.0,0.0
13813,39.0,0.0,120.0,3.0,0.0
13814,43.0,1.0,120.0,3.0,0.0
13815,27.0,17.0,120.0,14.0,0.0
13816,46.0,6.0,30.0,7.0,0.0
13817,31.0,24.0,30.0,8.0,0.0
13818,51.0,6.0,30.0,7.0,0.0
13819,63.0,0.0,90.0,10.0,0.0
13820,34.0,24.0,30.0,8.0,0.0
13821,55.0,6.0,30.0,7.0,0.0
13822,39.0,1.0,30.0,8.0,0.0
13823,58.0,6.0,30.0,7.0,0.0
13824,43.0,6.0,30.0,8.0,0.0
13825,55.0,0.0,30.0,3.0,0.0
13826,58.0,18.0,30.0,3.0,0.0
13827,70.0,6.0,30.0,7.0,0.0
13828,55.0,9.0,30.0,8.0,0.0
13829,67.0,15.0,15.0,10.0,0.0
13830,68.0,0.0,30.0,7.0,0.0
13831,41.0,6.0,30.0,8.0,0.0
13832,53.0,3.0,30.0,3.0,0.0
13833,56.0,0.0,30.0,3.0,0.0
13834,65.0,6.0,15.0,10.0,0.0
13835,67.0,15.0,15.0,10.0,0.0
13836,56.0,6.0,30.0,7.0,0.0
13837,53.0,24.0,30.0,8.0,0.0
13838,65.0,0.0,15.0,10.0,0.0
13839,67.0,2.0,40.0,10.0,0.0
13840,55.0,6.0,30.0,7.0,0.0
13841,39.0,6.0,30.0,8.0,0.0
13842,51.0,3.0,30.0,3.0,0.0
13843,55.0,0.0,30.0,3.0,0.0
13844,67.0,6.0,30.0,7.0,0.0
13845,51.0,24.0,30.0,8.0,0.0
13846,65.0,6.0,30.0,7.0,0.0
13847,70.0,2.0,40.0,10.0,0.0
13848,70.0,13.0,40.0,11.0,0.0
13849,37.0,6.0,30.0,8.0,0.0
13850,49.0,5.0,60.0,13.0,0.0
13851,49.0,3.0,30.0,3.0,0.0
13852,53.0,0.0,30.0,3.0,0.0
13853,37.0,17.0,60.0,14.0,0.0
13854,53.0,6.0,30.0,7.0,0.0
13855,49.0,2.0,30.0,8.0,0.0
13856,51.0,6.0,30.0,7.0,0.0
13857,75.0,2.0,40.0,10.0,0.0
13858,68.0,13.0,40.0,11.0,0.0
13859,36.0,6.0,30.0,8.0,0.0
13860,48.0,5.0,60.0,13.0,0.0
13861,51.0,0.0,30.0,3.0,0.0
13862,48.0,3.0,30.0,3.0,0.0
13863,36.0,17.0,60.0,14.0,0.0
13864,63.0,6.0,30.0,7.0,0.0
13865,48.0,2.0,30.0,8.0,0.0
13866,75.0,2.0,40.0,10.0,0.0
13867,61.0,6.0,30.0,7.0,0.0
13868,67.0,13.0,40.0,11.0,0.0
13869,34.0,6.0,30.0,8.0,0.0
13870,46.0,5.0,60.0,13.0,0.0
13871,46.0,0.0,30.0,3.0,0.0
13872,49.0,3.0,30.0,3.0,0.0
13873,34.0,17.0,60.0,14.0,0.0
13874,49.0,6.0,30.0,7.0,0.0
13875,46.0,2.0,30.0,8.0,0.0
13876,48.0,2.0,30.0,7.0,0.0
13877,75.0,2.0,300.0,10.0,0.0
13878,65.0,4.0,30.0,11.0,0.0
13879,32.0,24.0,30.0,8.0,0.0
13880,44.0,5.0,120.0,13.0,0.0
13881,44.0,1.0,120.0,3.0,0.0
13882,48.0,0.0,120.0,3.0,0.0
13883,32.0,17.0,120.0,14.0,0.0
13884,51.0,6.0,30.0,7.0,0.0
13885,36.0,24.0,30.0,8.0,0.0
13886,56.0,6.0,30.0,7.0,0.0
13887,68.0,16.0,90.0,11.0,0.0
13888,39.0,24.0,30.0,8.0,0.0
13889,60.0,6.0,30.0,7.0,0.0
13890,44.0,1.0,30.0,8.0,0.0
13891,63.0,0.0,30.0,7.0,0.0
13892,72.0,6.0,30.0,2.0,0.0
13893,75.0,0.0,30.0,2.0,0.0
13894,48.0,6.0,30.0,8.0,0.0
13895,60.0,2.0,30.0,3.0,0.0
13896,63.0,0.0,30.0,3.0,0.0
13897,75.0,6.0,30.0,7.0,0.0
13898,60.0,11.0,30.0,8.0,0.0
13899,70.0,0.0,30.0,2.0,0.0
13900,73.0,2.0,30.0,2.0,0.0
13901,73.0,0.0,30.0,7.0,0.0
13902,72.0,13.0,15.0,11.0,0.0
13903,46.0,6.0,30.0,8.0,0.0
13904,61.0,5.0,30.0,3.0,0.0
13905,58.0,0.0,30.0,3.0,0.0
13906,70.0,4.0,15.0,11.0,0.0
13907,61.0,2.0,30.0,7.0,0.0
13908,72.0,13.0,15.0,11.0,0.0
13909,58.0,24.0,30.0,8.0,0.0
13910,70.0,4.0,15.0,11.0,0.0
13911,60.0,0.0,30.0,7.0,0.0
13912,72.0,6.0,30.0,2.0,0.0
13913,68.0,0.0,30.0,2.0,0.0
13914,72.0,13.0,40.0,11.0,0.0
13915,44.0,6.0,30.0,8.0,0.0
13916,56.0,0.0,30.0,3.0,0.0
13917,60.0,3.0,30.0,3.0,0.0
13918,72.0,6.0,30.0,7.0,0.0
13919,56.0,24.0,30.0,8.0,0.0
13920,70.0,0.0,30.0,7.0,0.0
13921,67.0,6.0,30.0,2.0,0.0
13922,75.0,2.0,40.0,10.0,0.0
13923,70.0,0.0,30.0,2.0,0.0
13924,75.0,13.0,40.0,11.0,0.0
13925,43.0,6.0,30.0,8.0,0.0
13926,55.0,5.0,60.0,13.0,0.0
13927,58.0,3.0,30.0,3.0,0.0
13928,55.0,0.0,30.0,3.0,0.0
13929,43.0,17.0,60.0,14.0,0.0
13930,58.0,6.0,30.0,7.0,0.0
13931,55.0,2.0,30.0,8.0,0.0
13932,65.0,0.0,30.0,2.0,0.0
13933,56.0,6.0,30.0,7.0,0.0
13934,80.0,2.0,40.0,10.0,0.0
13935,68.0,0.0,30.0,2.0,0.0
13936,77.0,13.0,40.0,11.0,0.0
13937,41.0,6.0,30.0,8.0,0.0
13938,53.0,5.0,60.0,13.0,0.0
13939,53.0,3.0,30.0,3.0,0.0
13940,56.0,0.0,30.0,3.0,0.0
13941,41.0,17.0,60.0,14.0,0.0
13942,68.0,6.0,30.0,7.0,0.0
13943,53.0,2.0,30.0,8.0,0.0
13944,67.0,0.0,30.0,2.0,0.0
13945,70.0,6.0,30.0,2.0,0.0
13946,70.0,0.0,30.0,7.0,0.0
13947,82.0,2.0,40.0,10.0,0.0
13948,79.0,13.0,40.0,11.0,0.0
13949,39.0,6.0,30.0,8.0,0.0
13950,51.0,5.0,60.0,13.0,0.0
13951,51.0,3.0,30.0,3.0,0.0
13952,58.0,0.0,30.0,3.0,0.0
13953,39.0,17.0,60.0,14.0,0.0
13954,58.0,6.0,30.0,7.0,0.0
13955,51.0,2.0,30.0,8.0,0.0
13956,68.0,0.0,120.0,2.0,0.0
13957,84.0,0.0,30.0,10.0,0.0
13958,72.0,5.0,120.0,2.0,0.0
13959,48.0,2.0,30.0,7.0,0.0
13960,80.0,4.0,30.0,11.0,0.0
13961,32.0,24.0,30.0,8.0,0.0
13962,44.0,5.0,120.0,13.0,0.0
13963,60.0,1.0,120.0,3.0,0.0
13964,44.0,0.0,120.0,3.0,0.0
13965,32.0,17.0,120.0,14.0,0.0
13966,51.0,6.0,30.0,7.0,0.0
13967,36.0,24.0,30.0,8.0,0.0
13968,56.0,6.0,30.0,7.0,0.0
13969,68.0,0.0,90.0,10.0,0.0
13970,68.0,16.0,90.0,11.0,0.0
13971,39.0,19.0,30.0,8.0,0.0
13972,60.0,6.0,30.0,7.0,0.0
13973,44.0,1.0,30.0,8.0,0.0
13974,68.0,0.0,30.0,2.0,0.0
13975,63.0,1.0,30.0,7.0,0.0
13976,75.0,0.0,30.0,2.0,0.0
13977,87.0,3.0,30.0,0.0,0.0
13978,75.0,2.0,30.0,1.0,0.0
13979,48.0,6.0,30.0,8.0,0.0
13980,48.0,3.0,60.0,13.0,0.0
13981,63.0,2.0,30.0,3.0,0.0
13982,60.0,0.0,30.0,3.0,0.0
13983,75.0,3.0,30.0,7.0,0.0
13984,60.0,9.0,30.0,8.0,0.0
13985,70.0,0.0,30.0,2.0,0.0
13986,72.0,2.0,15.0,10.0,0.0
13987,73.0,0.0,30.0,7.0,0.0
13988,73.0,0.0,30.0,2.0,0.0
13989,85.0,1.0,30.0,0.0,0.0
13990,68.0,13.0,15.0,11.0,0.0
13991,75.0,2.0,30.0,1.0,0.0
13992,46.0,6.0,30.0,8.0,0.0
13993,46.0,3.0,60.0,13.0,0.0
13994,61.0,3.0,30.0,3.0,0.0
13995,58.0,0.0,30.0,3.0,0.0
13996,70.0,1.0,15.0,10.0,0.0
13997,67.0,2.0,15.0,11.0,0.0
13998,61.0,0.0,30.0,7.0,0.0
13999,72.0,2.0,15.0,10.0,0.0
14000,68.0,13.0,15.0,11.0,0.0
14001,58.0,24.0,30.0,8.0,0.0
14002,70.0,2.0,15.0,10.0,0.0
14003,67.0,1.0,15.0,11.0,0.0
14004,72.0,0.0,30.0,2.0,0.0
14005,72.0,0.0,40.0,10.0,0.0
14006,63.0,1.0,30.0,2.0,0.0
14007,60.0,0.0,30.0,7.0,0.0
14008,84.0,3.0,30.0,0.0,0.0
14009,68.0,6.0,40.0,11.0,0.0
14010,75.0,2.0,30.0,1.0,0.0
14011,44.0,6.0,30.0,8.0,0.0
14012,44.0,10.0,40.0,13.0,0.0
14013,56.0,2.0,30.0,3.0,0.0
14014,60.0,0.0,30.0,3.0,0.0
14015,72.0,6.0,30.0,7.0,0.0
14016,56.0,24.0,30.0,8.0,0.0
14017,63.0,0.0,30.0,2.0,0.0
14018,70.0,0.0,30.0,2.0,0.0
14019,75.0,0.0,40.0,10.0,0.0
14020,70.0,1.0,30.0,7.0,0.0
14021,82.0,3.0,30.0,0.0,0.0
14022,70.0,5.0,40.0,11.0,0.0
14023,75.0,2.0,30.0,1.0,0.0
14024,43.0,6.0,30.0,8.0,0.0
14025,63.0,1.0,40.0,12.0,0.0
14026,43.0,5.0,40.0,13.0,0.0
14027,55.0,2.0,30.0,3.0,0.0
14028,58.0,0.0,30.0,3.0,0.0
14029,43.0,5.0,40.0,14.0,0.0
14030,58.0,6.0,30.0,7.0,0.0
14031,55.0,24.0,30.0,8.0,0.0
14032,68.0,1.0,30.0,2.0,0.0
14033,65.0,0.0,30.0,2.0,0.0
14034,80.0,0.0,40.0,10.0,0.0
14035,56.0,0.0,30.0,7.0,0.0
14036,80.0,3.0,30.0,0.0,0.0
14037,72.0,5.0,40.0,11.0,0.0
14038,75.0,2.0,30.0,1.0,0.0
14039,41.0,6.0,30.0,8.0,0.0
14040,68.0,1.0,40.0,12.0,0.0
14041,41.0,5.0,40.0,13.0,0.0
14042,53.0,0.0,30.0,3.0,0.0
14043,56.0,2.0,30.0,3.0,0.0
14044,41.0,5.0,40.0,14.0,0.0
14045,68.0,6.0,30.0,7.0,0.0
14046,53.0,24.0,30.0,8.0,0.0
14047,67.0,1.0,30.0,2.0,0.0
14048,70.0,0.0,30.0,2.0,0.0
14049,70.0,0.0,30.0,7.0,0.0
14050,82.0,2.0,40.0,10.0,0.0
14051,82.0,3.0,30.0,0.0,0.0
14052,75.0,5.0,40.0,11.0,0.0
14053,75.0,2.0,30.0,1.0,0.0
14054,39.0,6.0,30.0,8.0,0.0
14055,67.0,1.0,40.0,12.0,0.0
14056,39.0,5.0,40.0,13.0,0.0
14057,51.0,0.0,30.0,3.0,0.0
14058,58.0,0.0,30.0,3.0,0.0
14059,39.0,5.0,40.0,14.0,0.0
14060,58.0,6.0,30.0,7.0,0.0
14061,51.0,24.0,30.0,8.0,0.0
14062,72.0,0.0,30.0,2.0,0.0
14063,72.0,6.0,60.0,7.0,0.0
14064,68.0,0.0,60.0,7.0,0.0
14065,60.0,0.0,60.0,7.0,0.0
14066,68.0,0.0,30.0,2.0,0.0
14067,84.0,1.0,30.0,10.0,0.0
14068,84.0,1.0,30.0,0.0,0.0
14069,80.0,0.0,30.0,0.0,0.0
14070,80.0,2.0,30.0,11.0,0.0
14071,72.0,0.0,30.0,1.0,0.0
14072,68.0,3.0,30.0,1.0,0.0
14073,60.0,0.0,30.0,4.0,0.0
14074,44.0,0.0,60.0,8.0,0.0
14075,32.0,106.0,60.0,8.0,0.0
14076,60.0,1.0,30.0,12.0,0.0
14077,68.0,0.0,30.0,12.0,0.0
14078,32.0,0.0,30.0,13.0,0.0
14079,44.0,4.0,30.0,13.0,0.0
14080,56.0,0.0,30.0,3.0,0.0
14081,60.0,1.0,30.0,3.0,0.0
14082,32.0,17.0,30.0,14.0,0.0
14083,72.0,0.0,120.0,10.0,0.0
14084,84.0,2.0,120.0,10.0,0.0
14085,68.0,0.0,120.0,2.0,0.0
14086,60.0,0.0,120.0,2.0,0.0
14087,84.0,0.0,120.0,0.0,0.0
14088,80.0,0.0,120.0,11.0,0.0
14089,68.0,5.0,120.0,11.0,0.0
14090,60.0,0.0,120.0,4.0,0.0
14091,68.0,0.0,120.0,1.0,0.0
14092,68.0,0.0,120.0,12.0,0.0
14093,60.0,1.0,120.0,12.0,0.0
14094,44.0,1.0,120.0,13.0,0.0
14095,32.0,0.0,120.0,13.0,0.0
14096,44.0,0.0,120.0,3.0,0.0
14097,32.0,7.0,120.0,14.0,0.0
14098,60.0,0.0,30.0,2.0,0.0
14099,68.0,0.0,30.0,2.0,0.0
14100,72.0,1.0,30.0,10.0,0.0
14101,84.0,0.0,30.0,10.0,0.0
14102,80.0,3.0,15.0,0.0,0.0
14103,84.0,0.0,30.0,0.0,0.0
14104,68.0,0.0,30.0,11.0,0.0
14105,80.0,2.0,30.0,11.0,0.0
14106,72.0,1.0,15.0,1.0,0.0
14107,60.0,0.0,30.0,4.0,0.0
14108,68.0,0.0,30.0,1.0,0.0
14109,68.0,1.0,30.0,12.0,0.0
14110,60.0,0.0,30.0,12.0,0.0
14111,32.0,4.0,30.0,13.0,0.0
14112,44.0,0.0,30.0,13.0,0.0
14113,56.0,18.0,15.0,3.0,0.0
14114,44.0,0.0,30.0,3.0,0.0
14115,32.0,47.0,30.0,14.0,0.0
14116,84.0,1.0,30.0,10.0,0.0
14117,72.0,0.0,30.0,10.0,0.0
14118,68.0,0.0,30.0,2.0,0.0
14119,60.0,0.0,30.0,2.0,0.0
14120,84.0,0.0,30.0,0.0,0.0
14121,80.0,1.0,30.0,0.0,0.0
14122,68.0,2.0,30.0,11.0,0.0
14123,80.0,0.0,30.0,11.0,0.0
14124,60.0,3.0,30.0,4.0,0.0
14125,68.0,0.0,30.0,1.0,0.0
14126,72.0,0.0,30.0,1.0,0.0
14127,60.0,1.0,30.0,12.0,0.0
14128,68.0,0.0,30.0,12.0,0.0
14129,44.0,0.0,30.0,13.0,0.0
14130,32.0,4.0,30.0,13.0,0.0
14131,44.0,1.0,30.0,3.0,0.0
14132,56.0,0.0,30.0,3.0,0.0
14133,32.0,129.0,30.0,14.0,0.0
14134,84.0,0.0,120.0,10.0,0.0
14135,72.0,2.0,120.0,10.0,0.0
14136,84.0,0.0,120.0,0.0,0.0
14137,68.0,0.0,120.0,11.0,0.0
14138,80.0,5.0,120.0,11.0,0.0
14139,60.0,0.0,120.0,12.0,0.0
14140,68.0,1.0,120.0,12.0,0.0
14141,44.0,1.0,120.0,13.0,0.0
14142,32.0,0.0,120.0,13.0,0.0
14143,32.0,7.0,120.0,14.0,0.0
14144,68.0,0.0,15.0,2.0,0.0
14145,60.0,0.0,15.0,2.0,0.0
14146,84.0,0.0,30.0,10.0,0.0
14147,72.0,1.0,30.0,10.0,0.0
14148,80.0,3.0,15.0,0.0,0.0
14149,84.0,0.0,30.0,0.0,0.0
14150,68.0,2.0,30.0,11.0,0.0
14151,80.0,0.0,30.0,11.0,0.0
14152,60.0,0.0,15.0,4.0,0.0
14153,72.0,0.0,15.0,1.0,0.0
14154,68.0,1.0,15.0,1.0,0.0
14155,60.0,1.0,30.0,12.0,0.0
14156,68.0,0.0,30.0,12.0,0.0
14157,44.0,4.0,30.0,13.0,0.0
14158,32.0,0.0,30.0,13.0,0.0
14159,44.0,0.0,15.0,3.0,0.0
14160,56.0,18.0,15.0,3.0,0.0
14161,32.0,47.0,30.0,14.0,0.0
14162,60.0,1.0,270.0,2.0,0.0
14163,68.0,0.0,270.0,2.0,0.0
14164,72.0,0.0,30.0,10.0,0.0
14165,84.0,2.0,30.0,10.0,0.0
14166,84.0,0.0,270.0,0.0,0.0
14167,80.0,3.0,270.0,0.0,0.0
14168,68.0,0.0,30.0,11.0,0.0
14169,80.0,5.0,30.0,11.0,0.0
14170,68.0,17.0,60.0,6.0,0.0
14171,60.0,0.0,270.0,4.0,0.0
14172,68.0,8.0,270.0,1.0,0.0
14173,72.0,0.0,270.0,1.0,0.0
14174,68.0,1.0,30.0,12.0,0.0
14175,60.0,0.0,30.0,12.0,0.0
14176,32.0,5.0,30.0,13.0,0.0
14177,44.0,0.0,30.0,13.0,0.0
14178,44.0,0.0,270.0,3.0,0.0
14179,56.0,78.0,270.0,3.0,0.0
14180,32.0,20.0,30.0,14.0,0.0
14181,48.0,6.0,20.0,7.0,0.0
14182,32.0,14.0,20.0,8.0,0.0
14183,56.0,6.0,20.0,7.0,0.0
14184,36.0,14.0,20.0,8.0,0.0
14185,44.0,14.0,20.0,8.0,0.0
14186,60.0,6.0,15.0,7.0,0.0
14187,44.0,14.0,20.0,8.0,0.0
14188,68.0,6.0,20.0,7.0,0.0
14189,48.0,14.0,20.0,8.0,0.0
14190,72.0,6.0,20.0,7.0,0.0
14191,56.0,14.0,20.0,8.0,0.0
14192,72.0,6.0,20.0,7.0,0.0
14193,56.0,14.0,20.0,8.0,0.0
14194,80.0,6.0,20.0,7.0,0.0
14195,60.0,14.0,20.0,8.0,0.0
14196,84.0,6.0,20.0,7.0,0.0
14197,68.0,24.0,20.0,8.0,0.0
14198,80.0,6.0,120.0,7.0,0.0
14199,72.0,0.0,120.0,7.0,0.0
14200,84.0,0.0,120.0,7.0,0.0
14201,56.0,46.0,120.0,8.0,0.0
14202,68.0,0.0,120.0,8.0,0.0
14203,60.0,0.0,120.0,8.0,0.0
14204,72.0,0.0,120.0,10.0,0.0
14205,68.0,0.0,120.0,2.0,0.0
14206,84.0,2.0,120.0,10.0,0.0
14207,84.0,0.0,120.0,0.0,0.0
14208,68.0,0.0,120.0,11.0,0.0
14209,80.0,5.0,120.0,11.0,0.0
14210,72.0,0.0,120.0,1.0,0.0
14211,68.0,0.0,120.0,1.0,0.0
14212,60.0,1.0,120.0,12.0,0.0
14213,44.0,0.0,120.0,13.0,0.0
14214,32.0,7.0,120.0,14.0,0.0
14215,84.0,0.0,30.0,10.0,0.0
14216,72.0,0.0,30.0,10.0,0.0
14217,68.0,0.0,30.0,2.0,0.0
14218,60.0,1.0,15.0,2.0,0.0
14219,80.0,3.0,15.0,0.0,0.0
14220,84.0,1.0,30.0,0.0,0.0
14221,80.0,2.0,30.0,11.0,0.0
14222,68.0,0.0,30.0,11.0,0.0
14223,72.0,0.0,30.0,1.0,0.0
14224,68.0,0.0,30.0,1.0,0.0
14225,60.0,1.0,15.0,4.0,0.0
14226,60.0,1.0,30.0,12.0,0.0
14227,44.0,4.0,30.0,13.0,0.0
14228,56.0,18.0,15.0,3.0,0.0
14229,44.0,0.0,15.0,3.0,0.0
14230,32.0,47.0,30.0,14.0,0.0
14231,72.0,0.0,30.0,10.0,0.0
14232,84.0,2.0,30.0,10.0,0.0
14233,69.0,1.0,270.0,2.0,0.0
14234,60.0,0.0,270.0,2.0,0.0
14235,84.0,3.0,270.0,0.0,0.0
14236,81.0,0.0,270.0,0.0,0.0
14237,81.0,5.0,30.0,11.0,0.0
14238,69.0,0.0,30.0,11.0,0.0
14239,72.0,17.0,60.0,6.0,0.0
14240,65.0,0.0,60.0,6.0,0.0
14241,41.0,0.0,270.0,4.0,0.0
14242,69.0,8.0,270.0,1.0,0.0
14243,65.0,0.0,270.0,4.0,0.0
14244,72.0,0.0,270.0,1.0,0.0
14245,65.0,0.0,30.0,12.0,0.0
14246,53.0,1.0,30.0,12.0,0.0
14247,41.0,5.0,30.0,13.0,0.0
14248,41.0,0.0,270.0,3.0,0.0
14249,53.0,78.0,270.0,3.0,0.0
14250,29.0,20.0,30.0,14.0,0.0
14251,41.0,5.0,120.0,15.0,0.0
14252,48.0,6.0,20.0,7.0,0.0
14253,29.0,14.0,20.0,8.0,0.0
14254,57.0,6.0,20.0,7.0,0.0
14255,36.0,14.0,20.0,8.0,0.0
14256,60.0,6.0,20.0,7.0,0.0
14257,41.0,9.0,20.0,8.0,0.0
14258,60.0,6.0,20.0,7.0,0.0
14259,41.0,14.0,20.0,8.0,0.0
14260,69.0,6.0,20.0,7.0,0.0
14261,48.0,14.0,20.0,8.0,0.0
14262,53.0,14.0,20.0,8.0,0.0
14263,72.0,6.0,15.0,7.0,0.0
14264,53.0,14.0,20.0,8.0,0.0
14265,81.0,6.0,20.0,7.0,0.0
14266,60.0,14.0,20.0,8.0,0.0
14267,84.0,6.0,15.0,7.0,0.0
14268,81.0,0.0,120.0,7.0,0.0
14269,72.0,0.0,120.0,7.0,0.0
14270,60.0,0.0,120.0,8.0,0.0
14271,53.0,46.0,120.0,8.0,0.0
14272,65.0,24.0,15.0,8.0,0.0
14273,72.0,2.0,120.0,10.0,0.0
14274,84.0,0.0,120.0,10.0,0.0
14275,69.0,0.0,120.0,2.0,0.0
14276,60.0,0.0,120.0,2.0,0.0
14277,81.0,0.0,120.0,11.0,0.0
14278,69.0,5.0,120.0,11.0,0.0
14279,53.0,0.0,120.0,4.0,0.0
14280,65.0,0.0,120.0,4.0,0.0
14281,65.0,1.0,120.0,12.0,0.0
14282,41.0,1.0,120.0,13.0,0.0
14283,41.0,0.0,120.0,3.0,0.0
14284,53.0,18.0,120.0,3.0,0.0
14285,29.0,7.0,120.0,14.0,0.0
14286,60.0,0.0,30.0,2.0,0.0
14287,69.0,1.0,30.0,2.0,0.0
14288,84.0,0.0,30.0,10.0,0.0
14289,72.0,0.0,30.0,10.0,0.0
14290,81.0,0.0,15.0,0.0,0.0
14291,84.0,3.0,15.0,0.0,0.0
14292,69.0,2.0,30.0,11.0,0.0
14293,81.0,0.0,30.0,11.0,0.0
14294,53.0,3.0,30.0,4.0,0.0
14295,72.0,0.0,15.0,1.0,0.0
14296,65.0,1.0,15.0,1.0,0.0
14297,65.0,0.0,30.0,4.0,0.0
14298,65.0,1.0,30.0,12.0,0.0
14299,41.0,4.0,30.0,13.0,0.0
14300,53.0,1.0,30.0,3.0,0.0
14301,41.0,0.0,30.0,3.0,0.0
14302,29.0,47.0,30.0,14.0,0.0
14303,73.0,2.0,30.0,10.0,0.0
14304,85.0,0.0,30.0,10.0,0.0
14305,61.0,0.0,270.0,2.0,0.0
14306,68.0,1.0,270.0,2.0,0.0
14307,85.0,3.0,270.0,0.0,0.0
14308,80.0,0.0,270.0,0.0,0.0
14309,65.0,0.0,30.0,11.0,0.0
14310,77.0,5.0,30.0,11.0,0.0
14311,65.0,0.0,60.0,6.0,0.0
14312,68.0,17.0,60.0,6.0,0.0
14313,65.0,0.0,270.0,4.0,0.0
14314,73.0,0.0,270.0,1.0,0.0
14315,65.0,0.0,270.0,1.0,0.0
14316,53.0,8.0,270.0,4.0,0.0
14317,68.0,1.0,30.0,12.0,0.0
14318,56.0,0.0,30.0,12.0,0.0
14319,37.0,5.0,30.0,13.0,0.0
14320,37.0,78.0,270.0,3.0,0.0
14321,49.0,0.0,270.0,3.0,0.0
14322,25.0,20.0,30.0,14.0,0.0
14323,41.0,5.0,120.0,15.0,0.0
14324,49.0,6.0,20.0,7.0,0.0
14325,26.0,14.0,20.0,8.0,0.0
14326,53.0,6.0,20.0,7.0,0.0
14327,29.0,14.0,20.0,8.0,0.0
14328,61.0,6.0,15.0,7.0,0.0
14329,37.0,9.0,15.0,8.0,0.0
14330,65.0,6.0,20.0,7.0,0.0
14331,41.0,14.0,20.0,8.0,0.0
14332,73.0,6.0,15.0,7.0,0.0
14333,49.0,14.0,15.0,8.0,0.0
14334,77.0,6.0,20.0,7.0,0.0
14335,53.0,14.0,20.0,8.0,0.0
14336,61.0,24.0,20.0,8.0,0.0
14337,85.0,6.0,15.0,7.0,0.0
14338,73.0,0.0,120.0,7.0,0.0
14339,77.0,6.0,120.0,7.0,0.0
14340,61.0,0.0,120.0,8.0,0.0
14341,53.0,0.0,120.0,8.0,0.0
14342,49.0,54.0,120.0,8.0,0.0
14343,73.0,0.0,120.0,10.0,0.0
14344,85.0,0.0,120.0,10.0,0.0
14345,80.0,0.0,120.0,0.0,0.0
14346,85.0,1.0,120.0,0.0,0.0
14347,77.0,0.0,120.0,11.0,0.0
14348,65.0,2.0,120.0,11.0,0.0
14349,53.0,0.0,120.0,4.0,0.0
14350,73.0,3.0,120.0,1.0,0.0
14351,65.0,0.0,120.0,1.0,0.0
14352,65.0,0.0,120.0,4.0,0.0
14353,68.0,1.0,120.0,12.0,0.0
14354,49.0,4.0,120.0,13.0,0.0
14355,37.0,9.0,120.0,14.0,0.0
14356,68.0,0.0,15.0,2.0,0.0
14357,61.0,1.0,15.0,2.0,0.0
14358,73.0,0.0,20.0,10.0,0.0
14359,85.0,2.0,20.0,10.0,0.0
14360,80.0,0.0,30.0,0.0,0.0
14361,85.0,3.0,30.0,0.0,0.0
14362,77.0,0.0,20.0,11.0,0.0
14363,65.0,5.0,20.0,11.0,0.0
14364,53.0,0.0,30.0,4.0,0.0
14365,65.0,0.0,30.0,1.0,0.0
14366,73.0,1.0,30.0,1.0,0.0
14367,65.0,0.0,30.0,4.0,0.0
14368,68.0,1.0,20.0,12.0,0.0
14369,49.0,1.0,20.0,13.0,0.0
14370,49.0,1.0,15.0,3.0,0.0
14371,37.0,0.0,15.0,3.0,0.0
14372,37.0,7.0,20.0,14.0,0.0
14373,86.0,0.0,20.0,10.0,0.0
14374,74.0,2.0,20.0,10.0,0.0
14375,70.0,0.0,270.0,2.0,0.0
14376,62.0,1.0,270.0,2.0,0.0
14377,82.0,0.0,270.0,0.0,0.0
14378,86.0,3.0,270.0,0.0,0.0
14379,65.0,5.0,20.0,11.0,0.0
14380,77.0,0.0,20.0,11.0,0.0
14381,58.0,17.0,60.0,6.0,0.0
14382,70.0,0.0,60.0,6.0,0.0
14383,53.0,8.0,270.0,4.0,0.0
14384,58.0,0.0,270.0,4.0,0.0
14385,74.0,0.0,270.0,1.0,0.0
14386,65.0,0.0,270.0,1.0,0.0
14387,70.0,1.0,20.0,12.0,0.0
14388,58.0,0.0,20.0,12.0,0.0
14389,46.0,5.0,20.0,13.0,0.0
14390,34.0,0.0,270.0,3.0,0.0
14391,46.0,75.0,270.0,3.0,0.0
14392,34.0,28.0,20.0,14.0,0.0
14393,41.0,5.0,120.0,15.0,0.0
14394,53.0,6.0,20.0,7.0,0.0
14395,22.0,14.0,20.0,8.0,0.0
14396,62.0,6.0,20.0,7.0,0.0
14397,29.0,14.0,20.0,8.0,0.0
14398,65.0,6.0,20.0,7.0,0.0
14399,65.0,6.0,20.0,7.0,0.0
14400,34.0,9.0,15.0,8.0,0.0
14401,74.0,6.0,20.0,7.0,0.0
14402,41.0,14.0,20.0,8.0,0.0
14403,77.0,6.0,20.0,7.0,0.0
14404,46.0,14.0,20.0,8.0,0.0
14405,77.0,6.0,20.0,7.0,0.0
14406,46.0,14.0,20.0,8.0,0.0
14407,86.0,6.0,20.0,7.0,0.0
14408,53.0,14.0,20.0,8.0,0.0
14409,58.0,24.0,20.0,8.0,0.0
14410,89.0,6.0,15.0,7.0,0.0
14411,86.0,0.0,120.0,7.0,0.0
14412,77.0,6.0,120.0,7.0,0.0
14413,46.0,0.0,120.0,8.0,0.0
14414,58.0,0.0,120.0,8.0,0.0
14415,53.0,54.0,120.0,8.0,0.0
14416,70.0,0.0,120.0,2.0,0.0
14417,74.0,0.0,120.0,10.0,0.0
14418,82.0,0.0,120.0,0.0,0.0
14419,86.0,1.0,120.0,0.0,0.0
14420,70.0,0.0,120.0,11.0,0.0
14421,77.0,2.0,120.0,11.0,0.0
14422,58.0,0.0,120.0,4.0,0.0
14423,65.0,1.0,120.0,12.0,0.0
14424,46.0,4.0,120.0,13.0,0.0
14425,34.0,9.0,120.0,14.0,0.0
14426,74.0,0.0,20.0,10.0,0.0
14427,86.0,1.0,15.0,10.0,0.0
14428,62.0,0.0,15.0,2.0,0.0
14429,70.0,0.0,30.0,2.0,0.0
14430,86.0,3.0,30.0,0.0,0.0
14431,82.0,0.0,30.0,0.0,0.0
14432,77.0,0.0,20.0,11.0,0.0
14433,70.0,5.0,20.0,11.0,0.0
14434,58.0,0.0,30.0,4.0,0.0
14435,62.0,3.0,15.0,4.0,0.0
14436,65.0,0.0,15.0,1.0,0.0
14437,74.0,0.0,15.0,1.0,0.0
14438,58.0,0.0,15.0,12.0,0.0
14439,65.0,1.0,20.0,12.0,0.0
14440,46.0,0.0,20.0,13.0,0.0
14441,46.0,0.0,15.0,3.0,0.0
14442,34.0,1.0,15.0,3.0,0.0
14443,34.0,7.0,20.0,14.0,0.0
14444,75.0,2.0,20.0,10.0,0.0
14445,87.0,0.0,20.0,10.0,0.0
14446,63.0,1.0,30.0,2.0,0.0
14447,67.0,0.0,30.0,2.0,0.0
14448,82.0,0.0,30.0,0.0,0.0
14449,87.0,3.0,30.0,0.0,0.0
14450,79.0,5.0,20.0,11.0,0.0
14451,70.0,0.0,20.0,11.0,0.0
14452,70.0,0.0,60.0,6.0,0.0
14453,58.0,12.0,60.0,6.0,0.0
14454,67.0,0.0,30.0,1.0,0.0
14455,75.0,0.0,30.0,1.0,0.0
14456,58.0,0.0,30.0,4.0,0.0
14457,63.0,1.0,30.0,4.0,0.0
14458,67.0,0.0,20.0,12.0,0.0
14459,58.0,1.0,20.0,12.0,0.0
14460,39.0,0.0,20.0,13.0,0.0
14461,39.0,21.0,30.0,3.0,0.0
14462,51.0,0.0,30.0,3.0,0.0
14463,27.0,7.0,20.0,14.0,0.0
14464,46.0,42.0,60.0,15.0,0.0
14465,87.0,3.0,60.0,7.0,0.0
14466,82.0,0.0,60.0,7.0,0.0
14467,79.0,0.0,60.0,7.0,0.0
14468,75.0,6.0,60.0,7.0,0.0
14469,39.0,0.0,60.0,8.0,0.0
14470,34.0,0.0,60.0,8.0,0.0
14471,31.0,16.0,60.0,8.0,0.0
14472,27.0,0.0,60.0,8.0,0.0
14473,62.0,0.0,30.0,2.0,0.0
14474,86.0,0.0,20.0,10.0,0.0
14475,70.0,0.0,30.0,2.0,0.0
14476,74.0,2.0,20.0,10.0,0.0
14477,82.0,0.0,30.0,0.0,0.0
14478,86.0,3.0,30.0,0.0,0.0
14479,77.0,0.0,20.0,11.0,0.0
14480,70.0,5.0,20.0,11.0,0.0
14481,70.0,0.0,60.0,6.0,0.0
14482,58.0,12.0,60.0,6.0,0.0
14483,62.0,0.0,30.0,4.0,0.0
14484,74.0,0.0,30.0,1.0,0.0
14485,65.0,1.0,30.0,1.0,0.0
14486,46.0,0.0,30.0,4.0,0.0
14487,65.0,0.0,20.0,12.0,0.0
14488,58.0,1.0,20.0,12.0,0.0
14489,46.0,1.0,20.0,13.0,0.0
14490,34.0,0.0,30.0,3.0,0.0
14491,46.0,21.0,30.0,3.0,0.0
14492,34.0,7.0,20.0,14.0,0.0
14493,46.0,42.0,60.0,15.0,0.0
14494,86.0,3.0,60.0,7.0,0.0
14495,77.0,0.0,60.0,7.0,0.0
14496,74.0,6.0,60.0,7.0,0.0
14497,82.0,0.0,60.0,7.0,0.0
14498,41.0,0.0,60.0,8.0,0.0
14499,38.0,16.0,60.0,8.0,0.0
14500,34.0,0.0,60.0,8.0,0.0
14501,46.0,0.0,60.0,8.0,0.0
14502,87.0,0.0,20.0,10.0,0.0
14503,67.0,0.0,30.0,2.0,0.0
14504,75.0,2.0,20.0,10.0,0.0
14505,63.0,0.0,30.0,2.0,0.0
14506,82.0,0.0,30.0,0.0,0.0
14507,87.0,3.0,30.0,0.0,0.0
14508,79.0,0.0,20.0,11.0,0.0
14509,70.0,5.0,20.0,11.0,0.0
14510,58.0,12.0,60.0,6.0,0.0
14511,70.0,0.0,60.0,6.0,0.0
14512,58.0,0.0,30.0,4.0,0.0
14513,67.0,0.0,30.0,1.0,0.0
14514,75.0,0.0,30.0,1.0,0.0
14515,63.0,1.0,30.0,4.0,0.0
14516,58.0,1.0,20.0,12.0,0.0
14517,67.0,0.0,20.0,12.0,0.0
14518,39.0,1.0,20.0,13.0,0.0
14519,39.0,0.0,30.0,3.0,0.0
14520,51.0,21.0,30.0,3.0,0.0
14521,27.0,7.0,20.0,14.0,0.0
14522,46.0,42.0,60.0,15.0,0.0
14523,87.0,3.0,60.0,7.0,0.0
14524,75.0,0.0,60.0,7.0,0.0
14525,79.0,0.0,60.0,7.0,0.0
14526,82.0,6.0,60.0,7.0,0.0
14527,39.0,0.0,60.0,8.0,0.0
14528,34.0,16.0,60.0,8.0,0.0
14529,31.0,0.0,60.0,8.0,0.0
14530,27.0,0.0,60.0,8.0,0.0
14531,86.0,0.0,20.0,10.0,0.0
14532,74.0,2.0,20.0,10.0,0.0
14533,70.0,0.0,30.0,2.0,0.0
14534,62.0,0.0,30.0,2.0,0.0
14535,86.0,0.0,30.0,0.0,0.0
14536,82.0,3.0,30.0,0.0,0.0
14537,77.0,0.0,20.0,11.0,0.0
14538,70.0,5.0,20.0,11.0,0.0
14539,58.0,12.0,60.0,6.0,0.0
14540,70.0,0.0,60.0,6.0,0.0
14541,65.0,0.0,30.0,1.0,0.0
14542,74.0,0.0,30.0,1.0,0.0
14543,62.0,0.0,30.0,4.0,0.0
14544,46.0,1.0,30.0,4.0,0.0
14545,65.0,1.0,20.0,12.0,0.0
14546,58.0,0.0,20.0,12.0,0.0
14547,46.0,1.0,20.0,13.0,0.0
14548,34.0,0.0,30.0,3.0,0.0
14549,46.0,21.0,30.0,3.0,0.0
14550,34.0,7.0,20.0,14.0,0.0
14551,46.0,42.0,60.0,15.0,0.0
14552,86.0,3.0,60.0,7.0,0.0
14553,82.0,0.0,60.0,7.0,0.0
14554,77.0,0.0,60.0,7.0,0.0
14555,74.0,6.0,60.0,7.0,0.0
14556,38.0,0.0,60.0,8.0,0.0
14557,46.0,0.0,60.0,8.0,0.0
14558,34.0,16.0,60.0,8.0,0.0
14559,84.0,3.0,60.0,7.0,0.0
14560,72.0,2.0,20.0,10.0,0.0
14561,84.0,0.0,20.0,10.0,0.0
14562,81.0,3.0,60.0,7.0,0.0
14563,69.0,0.0,120.0,2.0,0.0
14564,60.0,1.0,120.0,2.0,0.0
14565,72.0,0.0,60.0,7.0,0.0
14566,77.0,0.0,60.0,7.0,0.0
14567,81.0,0.0,120.0,0.0,0.0
14568,84.0,2.0,120.0,0.0,0.0
14569,69.0,5.0,20.0,11.0,0.0
14570,77.0,0.0,20.0,11.0,0.0
14571,65.0,0.0,60.0,6.0,0.0
14572,33.0,0.0,60.0,8.0,0.0
14573,36.0,0.0,60.0,8.0,0.0
14574,41.0,0.0,15.0,8.0,0.0
14575,53.0,0.0,60.0,6.0,0.0
14576,72.0,0.0,120.0,1.0,0.0
14577,65.0,8.0,120.0,1.0,0.0
14578,60.0,0.0,120.0,4.0,0.0
14579,53.0,0.0,120.0,4.0,0.0
14580,65.0,1.0,20.0,12.0,0.0
14581,58.0,0.0,20.0,12.0,0.0
14582,41.0,5.0,20.0,13.0,0.0
14583,53.0,0.0,120.0,3.0,0.0
14584,41.0,18.0,120.0,3.0,0.0
14585,29.0,22.0,20.0,14.0,0.0
14586,41.0,15.0,60.0,15.0,0.0
14587,45.0,3.0,30.0,7.0,0.0
14588,29.0,0.0,15.0,8.0,0.0
14589,48.0,0.0,30.0,7.0,0.0
14590,33.0,1.0,30.0,8.0,0.0
14591,53.0,3.0,30.0,7.0,0.0
14592,36.0,27.0,30.0,8.0,0.0
14593,57.0,3.0,30.0,7.0,0.0
14594,41.0,27.0,30.0,8.0,0.0
14595,60.0,3.0,30.0,7.0,0.0
14596,45.0,27.0,30.0,8.0,0.0
14597,65.0,3.0,30.0,7.0,0.0
14598,48.0,57.0,30.0,8.0,0.0
14599,60.0,0.0,60.0,7.0,0.0
14600,69.0,3.0,60.0,7.0,0.0
14601,72.0,0.0,60.0,7.0,0.0
14602,53.0,27.0,60.0,8.0,0.0
14603,57.0,3.0,30.0,7.0,0.0
14604,41.0,0.0,15.0,8.0,0.0
14605,60.0,3.0,30.0,7.0,0.0
14606,45.0,27.0,30.0,8.0,0.0
14607,65.0,3.0,30.0,7.0,0.0
14608,48.0,27.0,30.0,8.0,0.0
14609,69.0,3.0,30.0,7.0,0.0
14610,53.0,27.0,30.0,8.0,0.0
14611,72.0,3.0,30.0,7.0,0.0
14612,57.0,27.0,30.0,8.0,0.0
14613,77.0,3.0,30.0,7.0,0.0
14614,60.0,57.0,30.0,8.0,0.0
14615,72.0,3.0,60.0,7.0,0.0
14616,84.0,0.0,60.0,7.0,0.0
14617,81.0,0.0,60.0,7.0,0.0
14618,65.0,0.0,60.0,8.0,0.0
14619,53.0,27.0,60.0,8.0,0.0
14620,48.0,3.0,30.0,7.0,0.0
14621,29.0,27.0,30.0,8.0,0.0
14622,51.0,3.0,30.0,7.0,0.0
14623,33.0,27.0,30.0,8.0,0.0
14624,57.0,3.0,30.0,7.0,0.0
14625,36.0,27.0,30.0,8.0,0.0
14626,60.0,3.0,30.0,7.0,0.0
14627,41.0,27.0,30.0,8.0,0.0
14628,63.0,3.0,30.0,7.0,0.0
14629,45.0,27.0,30.0,8.0,0.0
14630,69.0,3.0,30.0,7.0,0.0
14631,48.0,57.0,30.0,8.0,0.0
14632,72.0,0.0,60.0,7.0,0.0
14633,75.0,0.0,60.0,7.0,0.0
14634,63.0,3.0,60.0,7.0,0.0
14635,41.0,27.0,60.0,8.0,0.0
14636,53.0,0.0,60.0,8.0,0.0
14637,57.0,3.0,30.0,7.0,0.0
14638,53.0,27.0,30.0,8.0,0.0
14639,60.0,3.0,30.0,7.0,0.0
14640,48.0,27.0,30.0,8.0,0.0
14641,63.0,3.0,30.0,7.0,0.0
14642,45.0,27.0,30.0,8.0,0.0
14643,69.0,3.0,30.0,7.0,0.0
14644,41.0,27.0,30.0,8.0,0.0
14645,72.0,3.0,30.0,7.0,0.0
14646,36.0,27.0,30.0,8.0,0.0
14647,75.0,3.0,30.0,7.0,0.0
14648,33.0,55.0,30.0,8.0,0.0
14649,81.0,5.0,60.0,7.0,0.0
14650,87.0,0.0,60.0,7.0,0.0
14651,29.0,62.0,60.0,8.0,0.0
14652,81.0,1.0,120.0,7.0,0.0
14653,75.0,2.0,120.0,7.0,0.0
14654,87.0,2.0,120.0,7.0,0.0
14655,41.0,54.0,60.0,8.0,0.0
14656,31.0,1.0,60.0,8.0,0.0
14657,29.0,56.0,60.0,8.0,0.0
14658,74.0,1.0,120.0,7.0,0.0
14659,86.0,2.0,120.0,7.0,0.0
14660,82.0,1.0,120.0,7.0,0.0
14661,41.0,57.0,60.0,8.0,0.0
14662,29.0,59.0,60.0,8.0,0.0
14663,33.0,0.0,60.0,8.0,0.0
14664,72.0,4.0,120.0,7.0,0.0
14665,41.0,57.0,60.0,8.0,0.0
14666,84.0,2.0,120.0,7.0,0.0
14667,29.0,1.0,60.0,8.0,0.0
14668,34.0,57.0,60.0,8.0,0.0
14669,77.0,0.0,15.0,7.0,0.0
14670,70.0,2.0,120.0,7.0,0.0
14671,82.0,1.0,120.0,7.0,0.0
14672,41.0,56.0,60.0,8.0,0.0
14673,36.0,4.0,60.0,8.0,0.0
14674,29.0,53.0,60.0,8.0,0.0
14675,81.0,3.0,60.0,7.0,0.0
14676,69.0,1.0,60.0,7.0,0.0
14677,41.0,56.0,60.0,8.0,0.0
14678,76.0,2.0,60.0,7.0,0.0
14679,64.0,1.0,60.0,7.0,0.0
14680,29.0,2.0,60.0,8.0,0.0
14681,37.0,61.0,60.0,8.0,0.0
14682,79.0,1.0,120.0,7.0,0.0
14683,67.0,2.0,120.0,7.0,0.0
14684,41.0,56.0,60.0,8.0,0.0
14685,36.0,0.0,60.0,8.0,0.0
14686,29.0,59.0,60.0,8.0,0.0
14687,81.0,2.0,60.0,7.0,0.0
14688,69.0,0.0,60.0,7.0,0.0
14689,41.0,56.0,60.0,8.0,0.0
14690,64.0,0.0,60.0,7.0,0.0
14691,76.0,3.0,60.0,7.0,0.0
14692,37.0,61.0,60.0,8.0,0.0
14693,29.0,0.0,60.0,8.0,0.0
14694,79.0,1.0,120.0,7.0,0.0
14695,67.0,1.0,120.0,7.0,0.0
14696,41.0,57.0,60.0,8.0,0.0
14697,36.0,1.0,60.0,8.0,0.0
14698,29.0,57.0,60.0,8.0,0.0
14699,69.0,1.0,60.0,7.0,0.0
14700,41.0,0.0,60.0,8.0,0.0
14701,81.0,57.0,60.0,7.0,0.0
14702,64.0,2.0,60.0,7.0,0.0
14703,43.0,1.0,60.0,8.0,0.0
14704,76.0,61.0,60.0,7.0,0.0
14705,67.0,2.0,120.0,7.0,0.0
14706,79.0,0.0,120.0,7.0,0.0
14707,46.0,56.0,60.0,8.0,0.0
14708,41.0,57.0,60.0,8.0,0.0
14709,29.0,0.0,60.0,8.0,0.0
14710,65.0,1.0,60.0,7.0,0.0
14711,77.0,6.0,60.0,7.0,0.0
14712,44.0,55.0,60.0,8.0,0.0
14713,72.0,2.0,60.0,7.0,0.0
14714,60.0,3.0,60.0,7.0,0.0
14715,45.0,57.0,60.0,8.0,0.0
14716,63.0,1.0,120.0,7.0,0.0
14717,75.0,2.0,120.0,7.0,0.0
14718,48.0,58.0,60.0,8.0,0.0
14719,29.0,1.0,60.0,8.0,0.0
14720,41.0,56.0,60.0,8.0,0.0
14721,62.0,1.0,60.0,7.0,0.0
14722,74.0,2.0,60.0,7.0,0.0
14723,46.0,57.0,60.0,8.0,0.0
14724,69.0,1.0,60.0,7.0,0.0
14725,57.0,2.0,60.0,7.0,0.0
14726,48.0,62.0,60.0,8.0,0.0
14727,72.0,2.0,120.0,7.0,0.0
14728,60.0,3.0,120.0,7.0,0.0
14729,51.0,53.0,60.0,8.0,0.0
14730,41.0,1.0,60.0,8.0,0.0
14731,29.0,56.0,60.0,8.0,0.0
14732,58.0,1.0,60.0,7.0,0.0
14733,70.0,0.0,60.0,7.0,0.0
14734,49.0,60.0,60.0,8.0,0.0
14735,61.0,2.0,60.0,7.0,0.0
14736,52.0,59.0,60.0,8.0,0.0
14737,58.0,3.0,120.0,7.0,0.0
14738,55.0,56.0,60.0,8.0,0.0
14739,41.0,1.0,60.0,8.0,0.0
14740,29.0,54.0,60.0,8.0,0.0
14741,70.0,2.0,15.0,7.0,0.0
14742,58.0,2.0,60.0,7.0,0.0
14743,49.0,55.0,60.0,8.0,0.0
14744,61.0,6.0,60.0,7.0,0.0
14745,52.0,60.0,60.0,8.0,0.0
14746,58.0,1.0,120.0,7.0,0.0
14747,55.0,56.0,60.0,8.0,0.0
14748,41.0,2.0,60.0,8.0,0.0
14749,29.0,53.0,60.0,8.0,0.0
14750,70.0,2.0,15.0,7.0,0.0
14751,58.0,3.0,60.0,7.0,0.0
14752,49.0,57.0,60.0,8.0,0.0
14753,61.0,2.0,60.0,7.0,0.0
14754,52.0,54.0,60.0,8.0,0.0
14755,58.0,4.0,60.0,7.0,0.0
14756,70.0,2.0,60.0,7.0,0.0
14757,55.0,58.0,60.0,8.0,0.0
14758,29.0,56.0,60.0,8.0,0.0
14759,41.0,0.0,60.0,8.0,0.0
14760,58.0,1.0,60.0,7.0,0.0
14761,60.0,2.0,60.0,7.0,0.0
14762,46.0,0.0,60.0,8.0,0.0
14763,72.0,60.0,60.0,7.0,0.0
14764,65.0,4.0,60.0,7.0,0.0
14765,48.0,53.0,60.0,8.0,0.0
14766,60.0,3.0,60.0,7.0,0.0
14767,53.0,1.0,60.0,8.0,0.0
14768,72.0,0.0,60.0,7.0,0.0
14769,58.0,59.0,60.0,7.0,0.0
14770,29.0,3.0,60.0,8.0,0.0
14771,41.0,56.0,60.0,8.0,0.0
14772,58.0,2.0,60.0,7.0,0.0
14773,72.0,0.0,60.0,7.0,0.0
14774,60.0,1.0,60.0,7.0,0.0
14775,46.0,57.0,60.0,8.0,0.0
14776,65.0,3.0,60.0,7.0,0.0
14777,48.0,57.0,60.0,8.0,0.0
14778,72.0,2.0,60.0,7.0,0.0
14779,60.0,0.0,60.0,7.0,0.0
14780,58.0,1.0,60.0,7.0,0.0
14781,53.0,58.0,60.0,8.0,0.0
14782,29.0,3.0,60.0,8.0,0.0
14783,41.0,54.0,60.0,8.0,0.0
14784,60.0,3.0,60.0,7.0,0.0
14785,72.0,1.0,60.0,7.0,0.0
14786,58.0,3.0,60.0,7.0,0.0
14787,46.0,57.0,60.0,8.0,0.0
14788,65.0,3.0,60.0,7.0,0.0
14789,48.0,53.0,60.0,8.0,0.0
14790,58.0,2.0,60.0,7.0,0.0
14791,72.0,0.0,60.0,7.0,0.0
14792,60.0,2.0,60.0,7.0,0.0
14793,53.0,375.0,60.0,8.0,0.0
14794,29.0,0.0,15.0,8.0,0.0
14795,41.0,15.0,15.0,7.0,0.0
14796,46.0,15.0,15.0,7.0,0.0
14797,34.0,0.0,15.0,8.0,0.0
14798,36.0,0.0,15.0,8.0,0.0
14799,48.0,15.0,15.0,7.0,0.0
14800,53.0,15.0,15.0,7.0,0.0
14801,41.0,0.0,15.0,8.0,0.0
14802,58.0,15.0,15.0,7.0,0.0
14803,46.0,0.0,15.0,8.0,0.0
14804,48.0,15.0,15.0,8.0,0.0
14805,60.0,0.0,15.0,7.0,0.0
14806,65.0,0.0,15.0,7.0,0.0
14807,53.0,15.0,15.0,8.0,0.0
14808,58.0,15.0,15.0,8.0,0.0
14809,70.0,0.0,15.0,7.0,0.0
14810,72.0,1.0,15.0,7.0,0.0
14811,60.0,11.0,15.0,8.0,0.0
14812,74.0,6.0,15.0,7.0,0.0
14813,62.0,10.0,15.0,8.0,0.0
14814,72.0,5.0,15.0,7.0,0.0
14815,60.0,11.0,15.0,8.0,0.0
14816,74.0,4.0,15.0,7.0,0.0
14817,62.0,9.0,15.0,8.0,0.0
14818,72.0,4.0,15.0,7.0,0.0
14819,60.0,11.0,15.0,8.0,0.0
14820,74.0,4.0,15.0,7.0,0.0
14821,62.0,13.0,15.0,8.0,0.0
14822,72.0,3.0,15.0,7.0,0.0
14823,60.0,11.0,15.0,8.0,0.0
14824,74.0,5.0,15.0,7.0,0.0
14825,62.0,12.0,15.0,8.0,0.0
14826,72.0,3.0,15.0,7.0,0.0
14827,60.0,9.0,15.0,8.0,0.0
14828,74.0,5.0,15.0,7.0,0.0
14829,62.0,13.0,15.0,8.0,0.0
14830,72.0,1.0,15.0,7.0,0.0
14831,60.0,11.0,15.0,8.0,0.0
14832,74.0,4.0,15.0,7.0,0.0
14833,62.0,14.0,15.0,8.0,0.0
14834,72.0,2.0,15.0,7.0,0.0
14835,60.0,10.0,15.0,8.0,0.0
14836,74.0,4.0,15.0,7.0,0.0
14837,62.0,13.0,15.0,8.0,0.0
14838,72.0,3.0,15.0,7.0,0.0
14839,60.0,11.0,15.0,8.0,0.0
14840,74.0,4.0,15.0,7.0,0.0
14841,62.0,12.0,15.0,8.0,0.0
14842,72.0,4.0,15.0,7.0,0.0
14843,60.0,11.0,15.0,8.0,0.0
14844,74.0,3.0,15.0,7.0,0.0
14845,62.0,10.0,15.0,8.0,0.0
14846,72.0,7.0,15.0,7.0,0.0
14847,60.0,11.0,15.0,8.0,0.0
14848,74.0,3.0,15.0,7.0,0.0
14849,62.0,11.0,15.0,8.0,0.0
14850,72.0,2.0,15.0,7.0,0.0
14851,60.0,12.0,15.0,8.0,0.0
14852,74.0,6.0,15.0,7.0,0.0
14853,62.0,11.0,15.0,8.0,0.0
14854,72.0,2.0,15.0,7.0,0.0
14855,60.0,12.0,15.0,8.0,0.0
14856,74.0,2.0,15.0,7.0,0.0
14857,62.0,12.0,15.0,8.0,0.0
14858,72.0,4.0,15.0,7.0,0.0
14859,60.0,13.0,15.0,8.0,0.0
14860,74.0,1.0,15.0,7.0,0.0
14861,62.0,12.0,15.0,8.0,0.0
14862,72.0,6.0,15.0,7.0,0.0
14863,60.0,11.0,15.0,8.0,0.0
14864,74.0,2.0,15.0,7.0,0.0
14865,62.0,12.0,15.0,8.0,0.0
14866,72.0,4.0,15.0,7.0,0.0
14867,60.0,9.0,15.0,8.0,0.0
14868,74.0,7.0,15.0,7.0,0.0
14869,62.0,11.0,15.0,8.0,0.0
14870,72.0,3.0,15.0,7.0,0.0
14871,60.0,11.0,15.0,8.0,0.0
14872,74.0,5.0,15.0,7.0,0.0
14873,62.0,8.0,15.0,8.0,0.0
14874,72.0,6.0,15.0,7.0,0.0
14875,53.0,1.0,30.0,4.0,0.0
14876,60.0,11.0,15.0,8.0,0.0
14877,74.0,3.0,15.0,7.0,0.0
14878,62.0,11.0,15.0,8.0,0.0
14879,72.0,4.0,15.0,7.0,0.0
14880,60.0,12.0,15.0,8.0,0.0
14881,74.0,1.0,15.0,7.0,0.0
14882,62.0,13.0,15.0,8.0,0.0
14883,72.0,3.0,15.0,7.0,0.0
14884,60.0,13.0,15.0,8.0,0.0
14885,58.0,3.0,90.0,4.0,0.0
14886,74.0,4.0,15.0,7.0,0.0
14887,62.0,8.0,15.0,8.0,0.0
14888,72.0,7.0,15.0,7.0,0.0
14889,60.0,9.0,15.0,8.0,0.0
14890,74.0,5.0,15.0,7.0,0.0
14891,62.0,10.0,15.0,8.0,0.0
14892,72.0,6.0,15.0,7.0,0.0
14893,60.0,8.0,15.0,8.0,0.0
14894,74.0,6.0,15.0,7.0,0.0
14895,62.0,9.0,15.0,8.0,0.0
14896,72.0,4.0,15.0,7.0,0.0
14897,60.0,10.0,15.0,8.0,0.0
14898,74.0,2.0,15.0,7.0,0.0
14899,62.0,12.0,15.0,8.0,0.0
14900,72.0,6.0,15.0,7.0,0.0
14901,60.0,2.0,30.0,4.0,0.0
14902,60.0,8.0,15.0,8.0,0.0
14903,74.0,5.0,15.0,7.0,0.0
14904,62.0,11.0,15.0,8.0,0.0
14905,72.0,3.0,15.0,7.0,0.0
14906,60.0,9.0,15.0,8.0,0.0
14907,74.0,6.0,15.0,7.0,0.0
14908,62.0,11.0,15.0,8.0,0.0
14909,72.0,3.0,15.0,7.0,0.0
14910,60.0,10.0,15.0,8.0,0.0
14911,53.0,2.0,30.0,4.0,0.0
14912,74.0,5.0,15.0,7.0,0.0
14913,62.0,11.0,15.0,8.0,0.0
14914,72.0,3.0,15.0,7.0,0.0
14915,60.0,11.0,15.0,8.0,0.0
14916,74.0,2.0,15.0,7.0,0.0
14917,62.0,12.0,15.0,8.0,0.0
14918,72.0,6.0,15.0,7.0,0.0
14919,60.0,2.0,90.0,4.0,0.0
14920,60.0,10.0,15.0,8.0,0.0
14921,74.0,3.0,15.0,7.0,0.0
14922,62.0,11.0,15.0,8.0,0.0
14923,72.0,4.0,15.0,7.0,0.0
14924,60.0,12.0,15.0,8.0,0.0
14925,74.0,2.0,15.0,7.0,0.0
14926,62.0,13.0,15.0,8.0,0.0
14927,72.0,5.0,15.0,7.0,0.0
14928,60.0,10.0,15.0,8.0,0.0
14929,74.0,4.0,15.0,7.0,0.0
14930,62.0,9.0,15.0,8.0,0.0
14931,72.0,2.0,15.0,7.0,0.0
14932,60.0,11.0,15.0,8.0,0.0
14933,74.0,5.0,15.0,7.0,0.0
14934,62.0,10.0,15.0,8.0,0.0
14935,72.0,7.0,15.0,7.0,0.0
14936,65.0,10.0,30.0,4.0,0.0
14937,60.0,9.0,15.0,8.0,0.0
14938,74.0,4.0,15.0,7.0,0.0
14939,62.0,0.0,15.0,8.0,0.0
14940,72.0,4.0,15.0,7.0,0.0
14941,60.0,11.0,15.0,8.0,0.0
14942,74.0,4.0,15.0,7.0,0.0
14943,62.0,14.0,15.0,8.0,0.0
14944,72.0,4.0,15.0,7.0,0.0
14945,53.0,8.0,30.0,4.0,0.0
14946,60.0,11.0,15.0,8.0,0.0
14947,53.0,2.0,30.0,3.0,0.0
14948,74.0,1.0,15.0,7.0,0.0
14949,62.0,1.0,15.0,8.0,0.0
14950,72.0,4.0,15.0,7.0,0.0
14951,60.0,12.0,15.0,8.0,0.0
14952,74.0,3.0,15.0,7.0,0.0
14953,62.0,13.0,15.0,8.0,0.0
14954,72.0,4.0,15.0,7.0,0.0
14955,58.0,0.0,90.0,4.0,0.0
14956,60.0,10.0,15.0,8.0,0.0
14957,58.0,9.0,90.0,3.0,0.0
14958,74.0,4.0,15.0,7.0,0.0
14959,62.0,12.0,15.0,8.0,0.0
14960,72.0,2.0,15.0,7.0,0.0
14961,60.0,14.0,15.0,8.0,0.0
14962,74.0,3.0,15.0,7.0,0.0
14963,62.0,11.0,15.0,8.0,0.0
14964,72.0,4.0,15.0,7.0,0.0
14965,60.0,11.0,15.0,8.0,0.0
14966,74.0,4.0,15.0,7.0,0.0
14967,62.0,9.0,15.0,8.0,0.0
14968,72.0,4.0,15.0,7.0,0.0
14969,60.0,4.0,15.0,8.0,0.0
14970,74.0,3.0,15.0,7.0,0.0
14971,62.0,10.0,15.0,8.0,0.0
14972,72.0,7.0,15.0,7.0,0.0
14973,60.0,8.0,30.0,4.0,0.0
14974,60.0,10.0,15.0,8.0,0.0
14975,60.0,4.0,30.0,3.0,0.0
14976,74.0,2.0,15.0,7.0,0.0
14977,62.0,1.0,15.0,8.0,0.0
14978,72.0,4.0,15.0,7.0,0.0
14979,60.0,10.0,15.0,8.0,0.0
14980,74.0,6.0,15.0,7.0,0.0
14981,62.0,10.0,15.0,8.0,0.0
14982,72.0,3.0,15.0,7.0,0.0
14983,53.0,1.0,30.0,4.0,0.0
14984,60.0,12.0,15.0,8.0,0.0
14985,53.0,5.0,30.0,3.0,0.0
14986,41.0,0.0,30.0,3.0,0.0
14987,74.0,3.0,15.0,7.0,0.0
14988,62.0,7.0,15.0,8.0,0.0
14989,72.0,4.0,15.0,7.0,0.0
14990,60.0,10.0,15.0,8.0,0.0
14991,74.0,5.0,15.0,7.0,0.0
14992,62.0,11.0,15.0,8.0,0.0
14993,72.0,4.0,15.0,7.0,0.0
14994,60.0,3.0,90.0,4.0,0.0
14995,60.0,10.0,15.0,8.0,0.0
14996,48.0,7.0,90.0,3.0,0.0
14997,60.0,0.0,90.0,3.0,0.0
14998,74.0,3.0,15.0,7.0,0.0
14999,62.0,12.0,15.0,8.0,0.0
15000,72.0,3.0,15.0,7.0,0.0
15001,60.0,11.0,15.0,8.0,0.0
15002,74.0,4.0,15.0,7.0,0.0
15003,62.0,11.0,15.0,8.0,0.0
15004,72.0,3.0,15.0,7.0,0.0
15005,60.0,11.0,15.0,8.0,0.0
15006,74.0,7.0,15.0,7.0,0.0
15007,62.0,8.0,15.0,8.0,0.0
15008,72.0,1.0,15.0,7.0,0.0
15009,60.0,4.0,15.0,8.0,0.0
15010,74.0,6.0,15.0,7.0,0.0
15011,62.0,9.0,15.0,8.0,0.0
15012,72.0,4.0,15.0,7.0,0.0
15013,60.0,13.0,15.0,8.0,0.0
15014,65.0,8.0,30.0,4.0,0.0
15015,53.0,0.0,30.0,3.0,0.0
15016,65.0,4.0,30.0,3.0,0.0
15017,74.0,2.0,15.0,7.0,0.0
15018,62.0,1.0,15.0,8.0,0.0
15019,72.0,2.0,15.0,7.0,0.0
15020,60.0,12.0,15.0,8.0,0.0
15021,74.0,5.0,15.0,7.0,0.0
15022,62.0,9.0,15.0,8.0,0.0
15023,75.0,1.0,15.0,7.0,0.0
15024,72.0,4.0,15.0,7.0,0.0
15025,53.0,1.0,30.0,4.0,0.0
15026,60.0,2.0,15.0,8.0,0.0
15027,63.0,10.0,15.0,8.0,0.0
15028,53.0,1.0,30.0,12.0,0.0
15029,41.0,7.0,30.0,13.0,0.0
15030,53.0,4.0,960.0,3.0,0.0
15031,41.0,0.0,960.0,3.0,0.0
15032,29.0,1.0,60.0,14.0,0.0
15033,74.0,1.0,15.0,7.0,0.0
15034,77.0,1.0,15.0,7.0,0.0
15035,65.0,1.0,15.0,8.0,0.0
15036,62.0,2.0,15.0,8.0,0.0
15037,72.0,2.0,15.0,7.0,0.0
15038,75.0,1.0,15.0,7.0,0.0
15039,60.0,0.0,15.0,8.0,0.0
15040,63.0,11.0,15.0,8.0,0.0
15041,74.0,3.0,15.0,7.0,0.0
15042,77.0,2.0,15.0,7.0,0.0
15043,65.0,1.0,15.0,8.0,0.0
15044,62.0,8.0,15.0,8.0,0.0
15045,75.0,2.0,15.0,7.0,0.0
15046,72.0,3.0,15.0,7.0,0.0
15047,60.0,10.0,15.0,8.0,0.0
15048,63.0,0.0,15.0,8.0,0.0
15049,60.0,5.0,90.0,4.0,0.0
15050,60.0,1.0,120.0,12.0,0.0
15051,48.0,1.0,120.0,13.0,0.0
15052,77.0,2.0,15.0,7.0,0.0
15053,74.0,4.0,15.0,7.0,0.0
15054,62.0,1.0,15.0,8.0,0.0
15055,65.0,8.0,15.0,8.0,0.0
15056,75.0,3.0,15.0,7.0,0.0
15057,72.0,1.0,15.0,7.0,0.0
15058,63.0,2.0,15.0,8.0,0.0
15059,60.0,10.0,15.0,8.0,0.0
15060,74.0,1.0,15.0,7.0,0.0
15061,77.0,4.0,15.0,7.0,0.0
15062,65.0,1.0,15.0,8.0,0.0
15063,62.0,9.0,15.0,8.0,0.0
15064,75.0,1.0,15.0,7.0,0.0
15065,72.0,4.0,15.0,7.0,0.0
15066,60.0,0.0,15.0,8.0,0.0
15067,63.0,11.0,15.0,8.0,0.0
15068,74.0,0.0,15.0,7.0,0.0
15069,77.0,2.0,15.0,7.0,0.0
15070,65.0,2.0,15.0,8.0,0.0
15071,62.0,9.0,15.0,8.0,0.0
15072,75.0,0.0,15.0,7.0,0.0
15073,72.0,0.0,15.0,7.0,0.0
15074,63.0,1.0,15.0,8.0,0.0
15075,60.0,9.0,15.0,8.0,0.0
15076,77.0,1.0,15.0,7.0,0.0
15077,74.0,3.0,15.0,7.0,0.0
15078,62.0,1.0,15.0,8.0,0.0
15079,65.0,9.0,15.0,8.0,0.0
15080,75.0,1.0,15.0,7.0,0.0
15081,72.0,4.0,15.0,7.0,0.0
15082,65.0,1.0,30.0,4.0,0.0
15083,63.0,1.0,15.0,8.0,0.0
15084,60.0,8.0,15.0,8.0,0.0
15085,65.0,1.0,30.0,12.0,0.0
15086,53.0,6.0,30.0,13.0,0.0
15087,77.0,3.0,15.0,7.0,0.0
15088,74.0,2.0,15.0,7.0,0.0
15089,65.0,2.0,15.0,8.0,0.0
15090,62.0,0.0,15.0,8.0,0.0
15091,72.0,3.0,15.0,7.0,0.0
15092,75.0,2.0,15.0,7.0,0.0
15093,63.0,2.0,15.0,8.0,0.0
15094,60.0,8.0,15.0,8.0,0.0
15095,77.0,0.0,15.0,7.0,0.0
15096,74.0,5.0,15.0,7.0,0.0
15097,62.0,1.0,15.0,8.0,0.0
15098,65.0,9.0,15.0,8.0,0.0
15099,75.0,3.0,15.0,7.0,0.0
15100,53.0,0.0,480.0,2.0,0.0
15101,60.0,2.0,480.0,2.0,0.0
15102,72.0,3.0,15.0,7.0,0.0
15103,65.0,1.0,30.0,6.0,0.0
15104,65.0,0.0,30.0,1.0,0.0
15105,53.0,1.0,30.0,4.0,0.0
15106,60.0,9.0,15.0,8.0,0.0
15107,63.0,0.0,15.0,8.0,0.0
15108,53.0,1.0,30.0,12.0,0.0
15109,41.0,6.0,30.0,13.0,0.0
15110,29.0,2.0,60.0,14.0,0.0
15111,77.0,2.0,15.0,7.0,0.0
15112,74.0,2.0,15.0,7.0,0.0
15113,65.0,0.0,15.0,8.0,0.0
15114,62.0,2.0,15.0,8.0,0.0
15115,72.0,2.0,15.0,7.0,0.0
15116,75.0,4.0,15.0,7.0,0.0
15117,60.0,1.0,15.0,8.0,0.0
15118,63.0,8.0,15.0,8.0,0.0
15119,77.0,1.0,15.0,7.0,0.0
15120,74.0,3.0,15.0,7.0,0.0
15121,65.0,1.0,15.0,8.0,0.0
15122,62.0,9.0,15.0,8.0,0.0
15123,75.0,2.0,15.0,7.0,0.0
15124,72.0,2.0,15.0,7.0,0.0
15125,72.0,4.0,120.0,6.0,0.0
15126,60.0,1.0,90.0,4.0,0.0
15127,60.0,1.0,15.0,8.0,0.0
15128,72.0,0.0,90.0,1.0,0.0
15129,63.0,11.0,15.0,8.0,0.0
15130,60.0,1.0,120.0,12.0,0.0
15131,48.0,0.0,120.0,13.0,0.0
15132,77.0,1.0,15.0,7.0,0.0
15133,74.0,2.0,15.0,7.0,0.0
15134,62.0,1.0,15.0,8.0,0.0
15135,65.0,9.0,15.0,8.0,0.0
15136,75.0,1.0,15.0,7.0,0.0
15137,72.0,3.0,15.0,7.0,0.0
15138,63.0,3.0,15.0,8.0,0.0
15139,60.0,8.0,15.0,8.0,0.0
15140,74.0,0.0,15.0,7.0,0.0
15141,77.0,5.0,15.0,7.0,0.0
15142,65.0,2.0,15.0,8.0,0.0
15143,62.0,10.0,15.0,8.0,0.0
15144,75.0,4.0,15.0,7.0,0.0
15145,72.0,0.0,15.0,7.0,0.0
15146,63.0,1.0,15.0,8.0,0.0
15147,60.0,9.0,15.0,8.0,0.0
15148,74.0,2.0,15.0,7.0,0.0
15149,77.0,3.0,15.0,7.0,0.0
15150,65.0,1.0,15.0,8.0,0.0
15151,62.0,8.0,15.0,8.0,0.0
15152,72.0,2.0,15.0,7.0,0.0
15153,75.0,2.0,15.0,7.0,0.0
15154,63.0,2.0,15.0,8.0,0.0
15155,60.0,4.0,15.0,8.0,0.0
15156,77.0,1.0,15.0,7.0,0.0
15157,74.0,3.0,15.0,7.0,0.0
15158,65.0,2.0,15.0,8.0,0.0
15159,62.0,8.0,15.0,8.0,0.0
15160,75.0,0.0,15.0,7.0,0.0
15161,72.0,4.0,15.0,7.0,0.0
15162,63.0,3.0,15.0,8.0,0.0
15163,77.0,1.0,30.0,6.0,0.0
15164,77.0,0.0,30.0,1.0,0.0
15165,65.0,3.0,30.0,4.0,0.0
15166,60.0,8.0,15.0,8.0,0.0
15167,65.0,1.0,30.0,12.0,0.0
15168,53.0,6.0,30.0,13.0,0.0
15169,74.0,2.0,15.0,7.0,0.0
15170,77.0,2.0,15.0,7.0,0.0
15171,62.0,0.0,15.0,8.0,0.0
15172,65.0,0.0,15.0,8.0,0.0
15173,72.0,2.0,15.0,7.0,0.0
15174,75.0,2.0,15.0,7.0,0.0
15175,60.0,2.0,15.0,8.0,0.0
15176,63.0,9.0,15.0,8.0,0.0
15177,74.0,3.0,15.0,7.0,0.0
15178,77.0,3.0,15.0,7.0,0.0
15179,65.0,9.0,15.0,8.0,0.0
15180,62.0,0.0,15.0,8.0,0.0
15181,75.0,1.0,15.0,7.0,0.0
15182,81.0,2.0,15.0,7.0,0.0
15183,72.0,1.0,15.0,7.0,0.0
15184,60.0,3.0,15.0,8.0,0.0
15185,72.0,2.0,60.0,6.0,0.0
15186,65.0,0.0,60.0,6.0,0.0
15187,65.0,0.0,240.0,1.0,0.0
15188,72.0,2.0,240.0,1.0,0.0
15189,69.0,1.0,15.0,8.0,0.0
15190,63.0,0.0,15.0,8.0,0.0
15191,53.0,1.0,15.0,12.0,0.0
15192,41.0,2.0,15.0,13.0,0.0
15193,29.0,1.0,60.0,14.0,0.0
15194,74.0,1.0,15.0,7.0,0.0
15195,41.0,5.0,15.0,15.0,0.0
15196,82.0,1.0,15.0,7.0,0.0
15197,77.0,2.0,15.0,7.0,0.0
15198,65.0,1.0,15.0,8.0,0.0
15199,70.0,1.0,15.0,8.0,0.0
15200,62.0,9.0,15.0,8.0,0.0
15201,81.0,0.0,15.0,7.0,0.0
15202,75.0,2.0,15.0,7.0,0.0
15203,72.0,0.0,15.0,7.0,0.0
15204,63.0,0.0,15.0,8.0,0.0
15205,60.0,1.0,15.0,8.0,0.0
15206,69.0,3.0,15.0,8.0,0.0
15207,60.0,0.0,15.0,4.0,0.0
15208,41.0,0.0,15.0,15.0,0.0
15209,60.0,1.0,15.0,12.0,0.0
15210,48.0,3.0,15.0,13.0,0.0
15211,74.0,1.0,15.0,7.0,0.0
15212,77.0,2.0,15.0,7.0,0.0
15213,82.0,0.0,15.0,7.0,0.0
15214,65.0,1.0,15.0,8.0,0.0
15215,62.0,0.0,15.0,8.0,0.0
15216,70.0,7.0,15.0,8.0,0.0
15217,41.0,2.0,15.0,15.0,0.0
15218,75.0,1.0,15.0,7.0,0.0
15219,81.0,1.0,15.0,7.0,0.0
15220,72.0,3.0,15.0,7.0,0.0
15221,65.0,0.0,60.0,6.0,0.0
15222,72.0,1.0,60.0,6.0,0.0
15223,63.0,1.0,15.0,8.0,0.0
15224,60.0,0.0,15.0,4.0,0.0
15225,69.0,2.0,15.0,8.0,0.0
15226,60.0,0.0,15.0,8.0,0.0
15227,60.0,1.0,15.0,12.0,0.0
15228,48.0,1.0,15.0,13.0,0.0
15229,41.0,0.0,15.0,15.0,0.0
15230,82.0,0.0,15.0,7.0,0.0
15231,77.0,2.0,15.0,7.0,0.0
15232,74.0,3.0,15.0,7.0,0.0
15233,62.0,0.0,15.0,8.0,0.0
15234,70.0,8.0,15.0,8.0,0.0
15235,65.0,0.0,15.0,8.0,0.0
15236,41.0,2.0,15.0,15.0,0.0
15237,72.0,3.0,15.0,7.0,0.0
15238,75.0,0.0,15.0,7.0,0.0
15239,81.0,2.0,15.0,7.0,0.0
15240,69.0,1.0,15.0,8.0,0.0
15241,65.0,0.0,15.0,4.0,0.0
15242,41.0,0.0,15.0,15.0,0.0
15243,60.0,1.0,15.0,8.0,0.0
15244,63.0,1.0,15.0,8.0,0.0
15245,65.0,1.0,15.0,12.0,0.0
15246,53.0,2.0,15.0,13.0,0.0
15247,77.0,2.0,15.0,7.0,0.0
15248,41.0,3.0,15.0,15.0,0.0
15249,74.0,0.0,15.0,7.0,0.0
15250,82.0,4.0,15.0,7.0,0.0
15251,62.0,0.0,15.0,8.0,0.0
15252,70.0,1.0,15.0,8.0,0.0
15253,65.0,0.0,15.0,8.0,0.0
15254,81.0,2.0,15.0,7.0,0.0
15255,75.0,0.0,15.0,7.0,0.0
15256,72.0,3.0,15.0,7.0,0.0
15257,72.0,0.0,60.0,6.0,0.0
15258,65.0,1.0,60.0,6.0,0.0
15259,53.0,1.0,15.0,4.0,0.0
15260,63.0,1.0,15.0,8.0,0.0
15261,41.0,8.0,15.0,15.0,0.0
15262,60.0,1.0,15.0,8.0,0.0
15263,69.0,0.0,15.0,8.0,0.0
15264,53.0,1.0,15.0,12.0,0.0
15265,41.0,3.0,15.0,13.0,0.0
15266,29.0,1.0,60.0,14.0,0.0
15267,82.0,1.0,15.0,7.0,0.0
15268,74.0,2.0,15.0,7.0,0.0
15269,41.0,0.0,15.0,15.0,0.0
15270,77.0,1.0,15.0,7.0,0.0
15271,65.0,0.0,15.0,8.0,0.0
15272,62.0,1.0,15.0,8.0,0.0
15273,70.0,2.0,15.0,8.0,0.0
15274,81.0,0.0,15.0,7.0,0.0
15275,72.0,2.0,15.0,7.0,0.0
15276,75.0,1.0,15.0,7.0,0.0
15277,63.0,1.0,15.0,8.0,0.0
15278,41.0,8.0,15.0,15.0,0.0
15279,60.0,1.0,15.0,4.0,0.0
15280,60.0,1.0,15.0,8.0,0.0
15281,69.0,1.0,15.0,8.0,0.0
15282,60.0,1.0,15.0,12.0,0.0
15283,48.0,2.0,15.0,13.0,0.0
15284,74.0,3.0,15.0,7.0,0.0
15285,77.0,0.0,15.0,7.0,0.0
15286,41.0,3.0,15.0,15.0,0.0
15287,82.0,2.0,15.0,7.0,0.0
15288,70.0,1.0,15.0,8.0,0.0
15289,65.0,0.0,15.0,8.0,0.0
15290,62.0,7.0,15.0,8.0,0.0
15291,41.0,1.0,15.0,15.0,0.0
15292,81.0,0.0,15.0,7.0,0.0
15293,72.0,2.0,15.0,7.0,0.0
15294,75.0,1.0,15.0,7.0,0.0
15295,69.0,1.0,15.0,8.0,0.0
15296,72.0,0.0,60.0,6.0,0.0
15297,65.0,1.0,60.0,6.0,0.0
15298,60.0,2.0,15.0,8.0,0.0
15299,60.0,0.0,15.0,4.0,0.0
15300,63.0,1.0,15.0,8.0,0.0
15301,60.0,1.0,15.0,12.0,0.0
15302,48.0,2.0,15.0,13.0,0.0
15303,77.0,0.0,15.0,7.0,0.0
15304,74.0,3.0,15.0,7.0,0.0
15305,41.0,1.0,15.0,15.0,0.0
15306,82.0,1.0,15.0,7.0,0.0
15307,65.0,1.0,15.0,8.0,0.0
15308,70.0,0.0,15.0,8.0,0.0
15309,62.0,8.0,15.0,8.0,0.0
15310,41.0,4.0,15.0,15.0,0.0
15311,75.0,0.0,15.0,7.0,0.0
15312,72.0,0.0,15.0,7.0,0.0
15313,81.0,4.0,15.0,7.0,0.0
15314,65.0,2.0,15.0,4.0,0.0
15315,41.0,2.0,15.0,15.0,0.0
15316,69.0,0.0,15.0,8.0,0.0
15317,63.0,1.0,15.0,8.0,0.0
15318,60.0,0.0,15.0,8.0,0.0
15319,65.0,1.0,15.0,12.0,0.0
15320,53.0,3.0,15.0,13.0,0.0
15321,77.0,1.0,15.0,7.0,0.0
15322,74.0,0.0,15.0,7.0,0.0
15323,82.0,1.0,15.0,7.0,0.0
15324,65.0,1.0,15.0,8.0,0.0
15325,62.0,8.0,15.0,8.0,0.0
15326,70.0,0.0,15.0,8.0,0.0
15327,41.0,2.0,15.0,15.0,0.0
15328,72.0,1.0,15.0,7.0,0.0
15329,69.0,0.0,240.0,2.0,0.0
15330,63.0,0.0,240.0,2.0,0.0
15331,53.0,1.0,15.0,10.0,0.0
15332,81.0,0.0,240.0,0.0,0.0
15333,75.0,1.0,15.0,7.0,0.0
15334,77.0,3.0,240.0,0.0,0.0
15335,81.0,1.0,15.0,7.0,0.0
15336,53.0,0.0,15.0,11.0,0.0
15337,53.0,0.0,60.0,6.0,0.0
15338,65.0,1.0,60.0,6.0,0.0
15339,69.0,1.0,15.0,8.0,0.0
15340,63.0,0.0,15.0,8.0,0.0
15341,53.0,0.0,15.0,4.0,0.0
15342,75.0,0.0,240.0,1.0,0.0
15343,41.0,2.0,240.0,4.0,0.0
15344,60.0,3.0,15.0,8.0,0.0
15345,72.0,0.0,240.0,1.0,0.0
15346,41.0,0.0,15.0,15.0,0.0
15347,53.0,1.0,15.0,12.0,0.0
15348,41.0,2.0,15.0,13.0,0.0
15349,29.0,1.0,15.0,14.0,0.0
15350,74.0,2.0,15.0,7.0,0.0
15351,41.0,3.0,15.0,15.0,0.0
15352,82.0,1.0,15.0,7.0,0.0
15353,77.0,3.0,15.0,7.0,0.0
15354,65.0,1.0,15.0,8.0,0.0
15355,70.0,0.0,15.0,8.0,0.0
15356,62.0,0.0,15.0,8.0,0.0
15357,72.0,1.0,15.0,7.0,0.0
15358,60.0,0.0,15.0,10.0,0.0
15359,81.0,1.0,15.0,7.0,0.0
15360,60.0,0.0,15.0,11.0,0.0
15361,75.0,1.0,15.0,7.0,0.0
15362,69.0,1.0,15.0,8.0,0.0
15363,60.0,2.0,15.0,4.0,0.0
15364,41.0,9.0,15.0,15.0,0.0
15365,63.0,1.0,15.0,8.0,0.0
15366,60.0,0.0,15.0,8.0,0.0
15367,60.0,1.0,15.0,12.0,0.0
15368,48.0,3.0,15.0,13.0,0.0
15369,36.0,0.0,15.0,14.0,0.0
15370,82.0,1.0,15.0,7.0,0.0
15371,77.0,2.0,15.0,7.0,0.0
15372,74.0,2.0,15.0,7.0,0.0
15373,65.0,1.0,15.0,8.0,0.0
15374,62.0,1.0,15.0,8.0,0.0
15375,70.0,8.0,15.0,8.0,0.0
15376,41.0,2.0,15.0,15.0,0.0
15377,81.0,1.0,15.0,7.0,0.0
15378,60.0,1.0,15.0,10.0,0.0
15379,72.0,1.0,15.0,7.0,0.0
15380,75.0,0.0,15.0,7.0,0.0
15381,60.0,1.0,15.0,11.0,0.0
15382,53.0,0.0,60.0,6.0,0.0
15383,63.0,1.0,15.0,8.0,0.0
15384,65.0,1.0,60.0,6.0,0.0
15385,60.0,1.0,15.0,4.0,0.0
15386,69.0,0.0,15.0,8.0,0.0
15387,41.0,0.0,15.0,15.0,0.0
15388,60.0,2.0,15.0,8.0,0.0
15389,60.0,1.0,15.0,12.0,0.0
15390,48.0,3.0,15.0,13.0,0.0
15391,36.0,2.0,15.0,14.0,0.0
15392,77.0,0.0,15.0,7.0,0.0
15393,82.0,1.0,15.0,7.0,0.0
15394,74.0,2.0,15.0,7.0,0.0
15395,70.0,1.0,15.0,8.0,0.0
15396,65.0,0.0,15.0,8.0,0.0
15397,62.0,9.0,15.0,8.0,0.0
15398,41.0,2.0,15.0,15.0,0.0
15399,65.0,1.0,15.0,10.0,0.0
15400,81.0,0.0,15.0,7.0,0.0
15401,72.0,1.0,15.0,7.0,0.0
15402,65.0,1.0,15.0,11.0,0.0
15403,75.0,0.0,15.0,7.0,0.0
15404,63.0,0.0,15.0,8.0,0.0
15405,60.0,1.0,15.0,8.0,0.0
15406,69.0,0.0,15.0,8.0,0.0
15407,65.0,3.0,15.0,4.0,0.0
15408,65.0,1.0,15.0,12.0,0.0
15409,53.0,2.0,15.0,13.0,0.0
15410,41.0,0.0,15.0,14.0,0.0
15411,74.0,2.0,15.0,7.0,0.0
15412,41.0,0.0,15.0,15.0,0.0
15413,82.0,0.0,15.0,7.0,0.0
15414,77.0,2.0,15.0,7.0,0.0
15415,62.0,2.0,15.0,8.0,0.0
15416,65.0,1.0,15.0,8.0,0.0
15417,70.0,8.0,15.0,8.0,0.0
15418,41.0,3.0,15.0,15.0,0.0
15419,75.0,1.0,15.0,7.0,0.0
15420,72.0,1.0,15.0,7.0,0.0
15421,65.0,0.0,15.0,10.0,0.0
15422,53.0,0.0,15.0,11.0,0.0
15423,81.0,2.0,15.0,7.0,0.0
15424,65.0,0.0,60.0,6.0,0.0
15425,53.0,1.0,60.0,6.0,0.0
15426,53.0,1.0,15.0,4.0,0.0
15427,69.0,1.0,15.0,8.0,0.0
15428,63.0,1.0,15.0,8.0,0.0
15429,41.0,1.0,15.0,15.0,0.0
15430,60.0,0.0,15.0,8.0,0.0
15431,53.0,1.0,15.0,12.0,0.0
15432,41.0,3.0,15.0,13.0,0.0
15433,29.0,2.0,15.0,14.0,0.0
15434,74.0,1.0,15.0,7.0,0.0
15435,77.0,1.0,15.0,7.0,0.0
15436,82.0,1.0,15.0,7.0,0.0
15437,65.0,2.0,15.0,8.0,0.0
15438,62.0,1.0,15.0,8.0,0.0
15439,70.0,9.0,15.0,8.0,0.0
15440,41.0,2.0,15.0,15.0,0.0
15441,72.0,0.0,15.0,10.0,0.0
15442,81.0,0.0,15.0,7.0,0.0
15443,75.0,1.0,15.0,7.0,0.0
15444,72.0,0.0,15.0,7.0,0.0
15445,60.0,1.0,15.0,11.0,0.0
15446,63.0,1.0,15.0,8.0,0.0
15447,60.0,0.0,15.0,4.0,0.0
15448,69.0,3.0,15.0,8.0,0.0
15449,60.0,0.0,15.0,8.0,0.0
15450,60.0,1.0,15.0,12.0,0.0
15451,48.0,2.0,15.0,13.0,0.0
15452,36.0,0.0,15.0,14.0,0.0
15453,74.0,2.0,15.0,7.0,0.0
15454,41.0,1.0,15.0,15.0,0.0
15455,82.0,0.0,15.0,7.0,0.0
15456,77.0,2.0,15.0,7.0,0.0
15457,70.0,0.0,15.0,8.0,0.0
15458,65.0,1.0,15.0,8.0,0.0
15459,62.0,10.0,15.0,8.0,0.0
15460,41.0,3.0,15.0,15.0,0.0
15461,81.0,1.0,15.0,7.0,0.0
15462,75.0,0.0,15.0,7.0,0.0
15463,72.0,2.0,15.0,10.0,0.0
15464,72.0,0.0,15.0,7.0,0.0
15465,60.0,1.0,15.0,11.0,0.0
15466,69.0,1.0,15.0,8.0,0.0
15467,65.0,0.0,60.0,6.0,0.0
15468,53.0,0.0,60.0,6.0,0.0
15469,41.0,0.0,15.0,15.0,0.0
15470,60.0,1.0,15.0,4.0,0.0
15471,63.0,1.0,15.0,8.0,0.0
15472,60.0,1.0,15.0,8.0,0.0
15473,60.0,1.0,15.0,12.0,0.0
15474,48.0,3.0,15.0,13.0,0.0
15475,36.0,6.0,15.0,14.0,0.0
15476,74.0,0.0,20.0,7.0,0.0
15477,70.0,0.0,20.0,7.0,0.0
15478,79.0,3.0,20.0,7.0,0.0
15479,67.0,2.0,20.0,8.0,0.0
15480,58.0,0.0,20.0,8.0,0.0
15481,62.0,4.0,20.0,8.0,0.0
15482,41.0,2.0,15.0,15.0,0.0
15483,77.0,1.0,15.0,10.0,0.0
15484,65.0,2.0,15.0,11.0,0.0
15485,75.0,1.0,20.0,7.0,0.0
15486,72.0,0.0,20.0,7.0,0.0
15487,81.0,1.0,20.0,7.0,0.0
15488,65.0,3.0,15.0,4.0,0.0
15489,65.0,1.0,15.0,12.0,0.0
15490,53.0,0.0,15.0,13.0,0.0
15491,63.0,1.0,20.0,8.0,0.0
15492,69.0,1.0,20.0,8.0,0.0
15493,60.0,0.0,20.0,8.0,0.0
15494,41.0,1.0,15.0,14.0,0.0
15495,41.0,1.0,15.0,15.0,0.0
15496,41.0,6.0,15.0,15.0,0.0
15497,70.0,2.0,30.0,10.0,0.0
15498,82.0,0.0,60.0,7.0,0.0
15499,70.0,1.0,60.0,2.0,0.0
15500,74.0,0.0,60.0,7.0,0.0
15501,62.0,0.0,60.0,2.0,0.0
15502,82.0,2.0,60.0,0.0,0.0
15503,58.0,5.0,30.0,11.0,0.0
15504,58.0,1.0,60.0,6.0,0.0
15505,70.0,0.0,60.0,8.0,0.0
15506,62.0,8.0,60.0,8.0,0.0
15507,58.0,0.0,60.0,8.0,0.0
15508,70.0,0.0,60.0,1.0,0.0
15509,58.0,0.0,60.0,4.0,0.0
15510,65.0,0.0,60.0,8.0,0.0
15511,46.0,0.0,60.0,4.0,0.0
15512,74.0,0.0,60.0,1.0,0.0
15513,41.0,14.0,15.0,15.0,0.0
15514,58.0,1.0,30.0,12.0,0.0
15515,46.0,5.0,30.0,13.0,0.0
15516,46.0,2.0,60.0,3.0,0.0
15517,34.0,17.0,30.0,14.0,0.0
15518,46.0,1.0,60.0,15.0,0.0
15519,46.0,2.0,15.0,10.0,0.0
15520,46.0,5.0,15.0,11.0,0.0
15521,46.0,1.0,15.0,12.0,0.0
15522,46.0,4.0,15.0,13.0,0.0
15523,41.0,1.0,15.0,3.0,0.0
15524,34.0,3.0,15.0,14.0,0.0
15525,41.0,14.0,15.0,15.0,0.0
15526,50.0,2.0,15.0,10.0,0.0
15527,50.0,5.0,15.0,11.0,0.0
15528,50.0,1.0,15.0,12.0,0.0
15529,50.0,4.0,15.0,13.0,0.0
15530,46.0,1.0,15.0,3.0,0.0
15531,38.0,1.0,15.0,14.0,0.0
15532,46.0,16.0,15.0,15.0,0.0
15533,53.0,2.0,15.0,10.0,0.0
15534,53.0,5.0,15.0,11.0,0.0
15535,53.0,1.0,15.0,12.0,0.0
15536,53.0,4.0,15.0,13.0,0.0
15537,48.0,1.0,15.0,3.0,0.0
15538,41.0,1.0,15.0,14.0,0.0
15539,41.0,16.0,15.0,15.0,0.0
15540,58.0,2.0,15.0,10.0,0.0
15541,58.0,5.0,15.0,11.0,0.0
15542,58.0,1.0,15.0,12.0,0.0
15543,58.0,4.0,15.0,13.0,0.0
15544,50.0,1.0,15.0,3.0,0.0
15545,46.0,1.0,15.0,14.0,0.0
15546,46.0,14.0,15.0,15.0,0.0
15547,65.0,2.0,15.0,7.0,0.0
15548,58.0,4.0,15.0,7.0,0.0
15549,46.0,12.0,15.0,8.0,0.0
15550,53.0,0.0,15.0,8.0,0.0
15551,41.0,12.0,15.0,15.0,0.0
15552,70.0,2.0,15.0,7.0,0.0
15553,62.0,4.0,15.0,7.0,0.0
15554,58.0,12.0,15.0,8.0,0.0
15555,50.0,0.0,15.0,8.0,0.0
15556,46.0,12.0,15.0,15.0,0.0
15557,72.0,2.0,15.0,7.0,0.0
15558,65.0,4.0,15.0,7.0,0.0
15559,53.0,12.0,15.0,8.0,0.0
15560,60.0,0.0,15.0,8.0,0.0
15561,41.0,12.0,15.0,15.0,0.0
15562,74.0,2.0,15.0,7.0,0.0
15563,70.0,4.0,15.0,7.0,0.0
15564,62.0,10.0,15.0,8.0,0.0
15565,58.0,0.0,15.0,8.0,0.0
15566,46.0,14.0,15.0,15.0,0.0
15567,77.0,2.0,15.0,7.0,0.0
15568,72.0,4.0,15.0,7.0,0.0
15569,65.0,0.0,15.0,8.0,0.0
15570,60.0,10.0,15.0,8.0,0.0
15571,41.0,14.0,15.0,15.0,0.0
15572,82.0,2.0,15.0,7.0,0.0
15573,74.0,4.0,15.0,7.0,0.0
15574,70.0,0.0,15.0,8.0,0.0
15575,62.0,12.0,15.0,8.0,0.0
15576,46.0,12.0,15.0,15.0,0.0
15577,84.0,2.0,15.0,7.0,0.0
15578,77.0,4.0,15.0,7.0,0.0
15579,72.0,12.0,15.0,8.0,0.0
15580,65.0,0.0,15.0,8.0,0.0
15581,41.0,12.0,15.0,15.0,0.0
15582,86.0,2.0,15.0,7.0,0.0
15583,82.0,4.0,15.0,7.0,0.0
15584,70.0,10.0,15.0,8.0,0.0
15585,74.0,0.0,15.0,8.0,0.0
15586,46.0,29.0,15.0,15.0,0.0
15587,89.0,2.0,30.0,7.0,0.0
15588,60.0,0.0,40.0,2.0,0.0
15589,81.0,0.0,30.0,7.0,0.0
15590,84.0,0.0,30.0,7.0,0.0
15591,69.0,1.0,40.0,2.0,0.0
15592,77.0,4.0,30.0,7.0,0.0
15593,81.0,0.0,40.0,0.0,0.0
15594,72.0,3.0,40.0,0.0,0.0
15595,53.0,0.0,30.0,8.0,0.0
15596,57.0,0.0,30.0,8.0,0.0
15597,65.0,4.0,30.0,8.0,0.0
15598,60.0,0.0,30.0,8.0,0.0
15599,65.0,0.0,40.0,4.0,0.0
15600,53.0,0.0,40.0,4.0,0.0
15601,69.0,0.0,40.0,1.0,0.0
15602,77.0,8.0,40.0,1.0,0.0
15603,53.0,5.0,30.0,13.0,0.0
15604,41.0,17.0,40.0,3.0,0.0
15605,53.0,0.0,40.0,3.0,0.0
15606,41.0,2.0,30.0,14.0,0.0
15607,41.0,14.0,60.0,15.0,0.0
15608,86.0,2.0,30.0,7.0,0.0
15609,82.0,0.0,30.0,7.0,0.0
15610,62.0,1.0,40.0,2.0,0.0
15611,70.0,0.0,40.0,2.0,0.0
15612,74.0,4.0,30.0,7.0,0.0
15613,82.0,3.0,40.0,0.0,0.0
15614,74.0,0.0,40.0,0.0,0.0
15615,70.0,0.0,40.0,1.0,0.0
15616,74.0,8.0,40.0,1.0,0.0
15617,58.0,0.0,40.0,4.0,0.0
15618,62.0,0.0,40.0,4.0,0.0
15619,58.0,0.0,30.0,8.0,0.0
15620,62.0,4.0,30.0,8.0,0.0
15621,70.0,0.0,30.0,8.0,0.0
15622,65.0,0.0,30.0,8.0,0.0
15623,58.0,5.0,30.0,13.0,0.0
15624,46.0,18.0,40.0,3.0,0.0
15625,46.0,2.0,30.0,14.0,0.0
15626,46.0,0.0,30.0,15.0,0.0
15627,46.0,2.0,15.0,10.0,0.0
15628,46.0,5.0,15.0,11.0,0.0
15629,46.0,1.0,15.0,12.0,0.0
15630,46.0,4.0,15.0,13.0,0.0
15631,41.0,1.0,15.0,3.0,0.0
15632,34.0,3.0,15.0,14.0,0.0
15633,41.0,14.0,15.0,15.0,0.0
15634,50.0,2.0,15.0,10.0,0.0
15635,50.0,5.0,15.0,11.0,0.0
15636,50.0,1.0,15.0,12.0,0.0
15637,50.0,4.0,15.0,13.0,0.0
15638,46.0,1.0,15.0,3.0,0.0
15639,38.0,2.0,15.0,14.0,0.0
15640,46.0,15.0,15.0,15.0,0.0
15641,53.0,2.0,15.0,10.0,0.0
15642,53.0,5.0,15.0,11.0,0.0
15643,53.0,1.0,15.0,12.0,0.0
15644,53.0,4.0,15.0,13.0,0.0
15645,48.0,1.0,15.0,3.0,0.0
15646,41.0,2.0,15.0,14.0,0.0
15647,41.0,15.0,15.0,15.0,0.0
15648,58.0,2.0,15.0,10.0,0.0
15649,58.0,5.0,15.0,11.0,0.0
15650,58.0,1.0,15.0,12.0,0.0
15651,58.0,4.0,15.0,13.0,0.0
15652,50.0,1.0,15.0,3.0,0.0
15653,46.0,3.0,15.0,14.0,0.0
15654,46.0,12.0,15.0,15.0,0.0
15655,65.0,2.0,15.0,7.0,0.0
15656,58.0,4.0,15.0,7.0,0.0
15657,53.0,0.0,15.0,8.0,0.0
15658,46.0,12.0,15.0,8.0,0.0
15659,41.0,12.0,15.0,15.0,0.0
15660,70.0,2.0,15.0,7.0,0.0
15661,62.0,4.0,15.0,7.0,0.0
15662,58.0,10.0,15.0,8.0,0.0
15663,50.0,0.0,15.0,8.0,0.0
15664,46.0,14.0,15.0,15.0,0.0
15665,72.0,2.0,15.0,7.0,0.0
15666,65.0,4.0,15.0,7.0,0.0
15667,53.0,0.0,15.0,8.0,0.0
15668,60.0,10.0,15.0,8.0,0.0
15669,41.0,14.0,15.0,15.0,0.0
15670,74.0,2.0,15.0,7.0,0.0
15671,70.0,4.0,15.0,7.0,0.0
15672,58.0,12.0,15.0,8.0,0.0
15673,62.0,0.0,15.0,8.0,0.0
15674,46.0,12.0,15.0,15.0,0.0
15675,77.0,2.0,15.0,7.0,0.0
15676,72.0,4.0,15.0,7.0,0.0
15677,65.0,12.0,15.0,8.0,0.0
15678,60.0,0.0,15.0,8.0,0.0
15679,41.0,12.0,15.0,15.0,0.0
15680,82.0,2.0,15.0,7.0,0.0
15681,74.0,4.0,15.0,7.0,0.0
15682,62.0,11.0,15.0,8.0,0.0
15683,70.0,0.0,15.0,8.0,0.0
15684,46.0,13.0,15.0,15.0,0.0
15685,84.0,2.0,15.0,7.0,0.0
15686,77.0,4.0,15.0,7.0,0.0
15687,65.0,12.0,15.0,8.0,0.0
15688,72.0,0.0,15.0,8.0,0.0
15689,41.0,12.0,15.0,15.0,0.0
15690,86.0,2.0,15.0,7.0,0.0
15691,82.0,4.0,15.0,7.0,0.0
15692,70.0,0.0,15.0,8.0,0.0
15693,74.0,10.0,15.0,8.0,0.0
15694,46.0,29.0,15.0,15.0,0.0
15695,89.0,2.0,30.0,7.0,0.0
15696,77.0,4.0,30.0,7.0,0.0
15697,81.0,0.0,30.0,7.0,0.0
15698,84.0,0.0,30.0,7.0,0.0
15699,60.0,1.0,40.0,2.0,0.0
15700,69.0,0.0,40.0,2.0,0.0
15701,81.0,3.0,40.0,0.0,0.0
15702,72.0,0.0,40.0,0.0,0.0
15703,65.0,1.0,40.0,4.0,0.0
15704,77.0,0.0,40.0,1.0,0.0
15705,69.0,0.0,40.0,1.0,0.0
15706,53.0,11.0,30.0,8.0,0.0
15707,60.0,0.0,30.0,8.0,0.0
15708,53.0,0.0,40.0,4.0,0.0
15709,57.0,0.0,30.0,8.0,0.0
15710,65.0,0.0,30.0,8.0,0.0
15711,41.0,5.0,40.0,13.0,0.0
15712,53.0,0.0,40.0,3.0,0.0
15713,41.0,31.0,40.0,3.0,0.0
15714,29.0,2.0,40.0,14.0,0.0
15715,41.0,0.0,30.0,15.0,0.0
15716,86.0,2.0,30.0,7.0,0.0
15717,82.0,4.0,30.0,7.0,0.0
15718,62.0,0.0,40.0,2.0,0.0
15719,74.0,0.0,30.0,7.0,0.0
15720,70.0,1.0,40.0,2.0,0.0
15721,82.0,0.0,40.0,0.0,0.0
15722,74.0,3.0,40.0,0.0,0.0
15723,58.0,0.0,40.0,4.0,0.0
15724,74.0,0.0,40.0,1.0,0.0
15725,62.0,0.0,30.0,8.0,0.0
15726,70.0,0.0,40.0,1.0,0.0
15727,70.0,0.0,30.0,8.0,0.0
15728,58.0,11.0,30.0,8.0,0.0
15729,62.0,1.0,40.0,4.0,0.0
15730,65.0,0.0,30.0,8.0,0.0
15731,46.0,5.0,40.0,13.0,0.0
15732,58.0,0.0,40.0,3.0,0.0
15733,46.0,35.0,40.0,3.0,0.0
15734,34.0,2.0,40.0,14.0,0.0
15735,46.0,0.0,30.0,15.0,0.0
15736,65.0,1.0,40.0,2.0,0.0
15737,69.0,0.0,40.0,2.0,0.0
15738,65.0,2.0,40.0,10.0,0.0
15739,77.0,0.0,40.0,10.0,0.0
15740,77.0,3.0,40.0,0.0,0.0
15741,69.0,0.0,40.0,11.0,0.0
15742,60.0,5.0,40.0,11.0,0.0
15743,53.0,0.0,40.0,4.0,0.0
15744,60.0,0.0,40.0,1.0,0.0
15745,69.0,1.0,40.0,1.0,0.0
15746,65.0,5.0,30.0,12.0,0.0
15747,53.0,0.0,30.0,12.0,0.0
15748,53.0,5.0,40.0,13.0,0.0
15749,53.0,5.0,40.0,3.0,0.0
15750,41.0,0.0,40.0,3.0,0.0
15751,41.0,2.0,40.0,14.0,0.0
15752,41.0,1.0,30.0,15.0,0.0
15753,53.0,0.0,30.0,12.0,0.0
15754,65.0,30.0,30.0,12.0,0.0
15755,65.0,0.0,40.0,10.0,0.0
15756,70.0,0.0,40.0,2.0,0.0
15757,65.0,1.0,40.0,2.0,0.0
15758,74.0,2.0,40.0,10.0,0.0
15759,74.0,3.0,40.0,0.0,0.0
15760,70.0,0.0,40.0,11.0,0.0
15761,62.0,6.0,40.0,11.0,0.0
15762,70.0,0.0,40.0,1.0,0.0
15763,58.0,0.0,40.0,4.0,0.0
15764,46.0,1.0,40.0,4.0,0.0
15765,62.0,0.0,40.0,1.0,0.0
15766,46.0,4.0,40.0,5.0,0.0
15767,65.0,5.0,30.0,12.0,0.0
15768,53.0,0.0,30.0,12.0,0.0
15769,58.0,1.0,40.0,13.0,0.0
15770,46.0,5.0,40.0,3.0,0.0
15771,53.0,0.0,40.0,3.0,0.0
15772,46.0,2.0,40.0,14.0,0.0
15773,46.0,0.0,30.0,15.0,0.0
15774,65.0,0.0,30.0,12.0,0.0
15775,53.0,30.0,30.0,12.0,0.0
15776,65.0,0.0,40.0,10.0,0.0
15777,77.0,2.0,40.0,10.0,0.0
15778,65.0,0.0,40.0,2.0,0.0
15779,69.0,1.0,40.0,2.0,0.0
15780,77.0,3.0,40.0,0.0,0.0
15781,60.0,0.0,40.0,11.0,0.0
15782,69.0,5.0,40.0,11.0,0.0
15783,60.0,0.0,40.0,1.0,0.0
15784,69.0,1.0,40.0,1.0,0.0
15785,53.0,0.0,40.0,4.0,0.0
15786,65.0,0.0,30.0,12.0,0.0
15787,53.0,5.0,30.0,12.0,0.0
15788,53.0,5.0,40.0,13.0,0.0
15789,41.0,0.0,40.0,3.0,0.0
15790,53.0,5.0,40.0,3.0,0.0
15791,41.0,2.0,40.0,14.0,0.0
15792,41.0,1.0,30.0,15.0,0.0
15793,65.0,0.0,30.0,12.0,0.0
15794,53.0,30.0,30.0,12.0,0.0
15795,65.0,0.0,40.0,2.0,0.0
15796,65.0,2.0,40.0,10.0,0.0
15797,70.0,1.0,40.0,2.0,0.0
15798,74.0,0.0,40.0,10.0,0.0
15799,74.0,3.0,40.0,0.0,0.0
15800,62.0,5.0,40.0,11.0,0.0
15801,70.0,0.0,40.0,11.0,0.0
15802,46.0,1.0,40.0,4.0,0.0
15803,62.0,0.0,40.0,1.0,0.0
15804,70.0,0.0,40.0,1.0,0.0
15805,58.0,0.0,40.0,4.0,0.0
15806,46.0,4.0,40.0,5.0,0.0
15807,53.0,5.0,30.0,12.0,0.0
15808,65.0,0.0,30.0,12.0,0.0
15809,58.0,1.0,40.0,13.0,0.0
15810,46.0,0.0,40.0,3.0,0.0
15811,53.0,5.0,40.0,3.0,0.0
15812,46.0,2.0,40.0,14.0,0.0
15813,46.0,1.0,30.0,15.0,0.0
15814,53.0,0.0,30.0,12.0,0.0
15815,65.0,30.0,30.0,12.0,0.0
15816,65.0,2.0,40.0,10.0,0.0
15817,69.0,0.0,40.0,2.0,0.0
15818,65.0,1.0,40.0,2.0,0.0
15819,77.0,0.0,40.0,10.0,0.0
15820,77.0,3.0,40.0,0.0,0.0
15821,60.0,6.0,40.0,11.0,0.0
15822,69.0,0.0,40.0,11.0,0.0
15823,65.0,29.0,60.0,6.0,0.0
15824,60.0,0.0,40.0,1.0,0.0
15825,69.0,1.0,40.0,1.0,0.0
15826,53.0,0.0,40.0,4.0,0.0
15827,65.0,5.0,30.0,12.0,0.0
15828,53.0,0.0,30.0,12.0,0.0
15829,53.0,5.0,40.0,13.0,0.0
15830,41.0,5.0,40.0,3.0,0.0
15831,53.0,0.0,40.0,3.0,0.0
15832,41.0,2.0,40.0,14.0,0.0
15833,41.0,0.0,30.0,15.0,0.0
15834,53.0,1.0,30.0,12.0,0.0
15835,65.0,0.0,30.0,12.0,0.0
15836,82.0,2.0,40.0,10.0,0.0
15837,65.0,0.0,40.0,10.0,0.0
15838,65.0,1.0,40.0,2.0,0.0
15839,70.0,0.0,40.0,2.0,0.0
15840,82.0,0.0,40.0,0.0,0.0
15841,62.0,0.0,40.0,11.0,0.0
15842,70.0,6.0,40.0,11.0,0.0
15843,70.0,29.0,60.0,6.0,0.0
15844,62.0,0.0,60.0,6.0,0.0
15845,46.0,0.0,40.0,4.0,0.0
15846,62.0,1.0,40.0,1.0,0.0
15847,70.0,0.0,40.0,1.0,0.0
15848,58.0,0.0,40.0,4.0,0.0
15849,46.0,4.0,40.0,5.0,0.0
15850,53.0,0.0,30.0,12.0,0.0
15851,65.0,5.0,30.0,12.0,0.0
15852,58.0,1.0,40.0,13.0,0.0
15853,46.0,5.0,40.0,3.0,0.0
15854,53.0,0.0,40.0,3.0,0.0
15855,46.0,2.0,40.0,14.0,0.0
15856,46.0,3.0,30.0,15.0,0.0
15857,65.0,1.0,30.0,12.0,0.0
15858,53.0,0.0,30.0,12.0,0.0
15859,69.0,0.0,40.0,2.0,0.0
15860,65.0,1.0,40.0,2.0,0.0
15861,65.0,2.0,40.0,10.0,0.0
15862,84.0,0.0,40.0,10.0,0.0
15863,84.0,3.0,40.0,0.0,0.0
15864,69.0,0.0,40.0,11.0,0.0
15865,72.0,5.0,40.0,11.0,0.0
15866,72.0,0.0,60.0,6.0,0.0
15867,65.0,42.0,60.0,6.0,0.0
15868,53.0,0.0,40.0,4.0,0.0
15869,69.0,0.0,40.0,1.0,0.0
15870,72.0,0.0,40.0,1.0,0.0
15871,60.0,1.0,40.0,4.0,0.0
15872,65.0,0.0,30.0,12.0,0.0
15873,53.0,5.0,30.0,12.0,0.0
15874,53.0,5.0,40.0,13.0,0.0
15875,53.0,0.0,40.0,3.0,0.0
15876,41.0,5.0,40.0,3.0,0.0
15877,41.0,2.0,40.0,14.0,0.0
15878,41.0,1.0,30.0,15.0,0.0
15879,53.0,1.0,30.0,12.0,0.0
15880,65.0,0.0,30.0,12.0,0.0
15881,86.0,2.0,60.0,10.0,0.0
15882,65.0,0.0,60.0,10.0,0.0
15883,65.0,0.0,40.0,2.0,0.0
15884,70.0,1.0,40.0,2.0,0.0
15885,86.0,3.0,40.0,0.0,0.0
15886,70.0,1.0,60.0,11.0,0.0
15887,74.0,0.0,60.0,11.0,0.0
15888,70.0,4.0,60.0,6.0,0.0
15889,74.0,0.0,60.0,6.0,0.0
15890,70.0,0.0,40.0,1.0,0.0
15891,74.0,0.0,40.0,1.0,0.0
15892,58.0,0.0,40.0,4.0,0.0
15893,62.0,2.0,40.0,4.0,0.0
15894,46.0,6.0,40.0,5.0,0.0
15895,65.0,1.0,60.0,12.0,0.0
15896,53.0,0.0,60.0,12.0,0.0
15897,46.0,5.0,60.0,13.0,0.0
15898,46.0,0.0,40.0,3.0,0.0
15899,53.0,3.0,40.0,3.0,0.0
15900,34.0,3.0,60.0,14.0,0.0
15901,46.0,89.0,60.0,15.0,0.0
15902,69.0,0.0,40.0,2.0,0.0
15903,65.0,1.0,40.0,2.0,0.0
15904,65.0,0.0,60.0,10.0,0.0
15905,89.0,2.0,60.0,10.0,0.0
15906,89.0,3.0,40.0,0.0,0.0
15907,77.0,0.0,60.0,11.0,0.0
15908,69.0,1.0,60.0,11.0,0.0
15909,65.0,0.0,60.0,6.0,0.0
15910,77.0,4.0,60.0,6.0,0.0
15911,77.0,0.0,40.0,1.0,0.0
15912,69.0,8.0,40.0,1.0,0.0
15913,60.0,0.0,40.0,4.0,0.0
15914,53.0,0.0,40.0,4.0,0.0
15915,65.0,1.0,60.0,12.0,0.0
15916,53.0,0.0,60.0,12.0,0.0
15917,60.0,0.0,60.0,12.0,0.0
15918,41.0,5.0,60.0,13.0,0.0
15919,53.0,0.0,40.0,3.0,0.0
15920,41.0,3.0,40.0,3.0,0.0
15921,29.0,2.0,60.0,14.0,0.0
15922,41.0,90.0,60.0,15.0,0.0
15923,86.0,2.0,60.0,10.0,0.0
15924,65.0,1.0,40.0,2.0,0.0
15925,70.0,0.0,40.0,2.0,0.0
15926,65.0,0.0,60.0,10.0,0.0
15927,86.0,3.0,40.0,0.0,0.0
15928,70.0,0.0,60.0,11.0,0.0
15929,74.0,1.0,60.0,11.0,0.0
15930,70.0,0.0,60.0,6.0,0.0
15931,74.0,4.0,60.0,6.0,0.0
15932,70.0,0.0,40.0,1.0,0.0
15933,58.0,0.0,40.0,4.0,0.0
15934,62.0,2.0,40.0,4.0,0.0
15935,74.0,0.0,40.0,1.0,0.0
15936,46.0,6.0,40.0,5.0,0.0
15937,65.0,0.0,60.0,12.0,0.0
15938,58.0,1.0,60.0,12.0,0.0
15939,46.0,5.0,60.0,13.0,0.0
15940,46.0,3.0,40.0,3.0,0.0
15941,53.0,0.0,40.0,3.0,0.0
15942,34.0,3.0,60.0,14.0,0.0
15943,46.0,89.0,60.0,15.0,0.0
15944,69.0,1.0,40.0,2.0,0.0
15945,65.0,0.0,40.0,2.0,0.0
15946,89.0,0.0,60.0,10.0,0.0
15947,65.0,2.0,60.0,10.0,0.0
15948,89.0,3.0,40.0,0.0,0.0
15949,77.0,1.0,60.0,11.0,0.0
15950,69.0,0.0,60.0,11.0,0.0
15951,65.0,4.0,60.0,6.0,0.0
15952,77.0,0.0,60.0,6.0,0.0
15953,69.0,8.0,40.0,1.0,0.0
15954,77.0,0.0,40.0,1.0,0.0
15955,60.0,0.0,40.0,4.0,0.0
15956,53.0,0.0,40.0,4.0,0.0
15957,53.0,1.0,60.0,12.0,0.0
15958,65.0,0.0,60.0,12.0,0.0
15959,60.0,0.0,60.0,12.0,0.0
15960,41.0,5.0,60.0,13.0,0.0
15961,53.0,3.0,40.0,3.0,0.0
15962,41.0,0.0,40.0,3.0,0.0
15963,29.0,2.0,60.0,14.0,0.0
15964,41.0,55.0,60.0,15.0,0.0
15965,70.0,0.0,240.0,2.0,0.0
15966,70.0,1.0,240.0,10.0,0.0
15967,82.0,0.0,240.0,10.0,0.0
15968,65.0,0.0,240.0,2.0,0.0
15969,82.0,0.0,240.0,0.0,0.0
15970,74.0,1.0,240.0,11.0,0.0
15971,70.0,0.0,240.0,11.0,0.0
15972,62.0,1.0,240.0,6.0,0.0
15973,70.0,0.0,240.0,6.0,0.0
15974,46.0,0.0,240.0,4.0,0.0
15975,58.0,0.0,240.0,4.0,0.0
15976,70.0,0.0,240.0,1.0,0.0
15977,74.0,2.0,240.0,1.0,0.0
15978,46.0,5.0,15.0,15.0,0.0
15979,46.0,1.0,240.0,5.0,0.0
15980,58.0,0.0,240.0,5.0,0.0
15981,65.0,1.0,240.0,12.0,0.0
15982,58.0,0.0,240.0,12.0,0.0
15983,46.0,4.0,240.0,13.0,0.0
15984,46.0,5.0,15.0,15.0,0.0
15985,46.0,0.0,240.0,3.0,0.0
15986,34.0,1.0,240.0,3.0,0.0
15987,34.0,242.0,240.0,14.0,0.0
15988,46.0,6.0,15.0,15.0,0.0
15989,46.0,4.0,15.0,15.0,0.0
15990,46.0,4.0,15.0,15.0,0.0
15991,46.0,4.0,15.0,15.0,0.0
15992,46.0,5.0,15.0,15.0,0.0
15993,46.0,4.0,15.0,15.0,0.0
15994,46.0,6.0,15.0,15.0,0.0
15995,46.0,5.0,15.0,15.0,0.0
15996,46.0,4.0,15.0,15.0,0.0
15997,46.0,5.0,15.0,15.0,0.0
15998,46.0,6.0,15.0,15.0,0.0
15999,46.0,5.0,15.0,15.0,0.0
16000,46.0,5.0,15.0,15.0,0.0
16001,46.0,5.0,15.0,15.0,0.0
16002,46.0,4.0,15.0,15.0,0.0
16003,46.0,5.0,15.0,15.0,0.0
16004,46.0,5.0,15.0,15.0,0.0
16005,46.0,4.0,15.0,15.0,0.0
16006,46.0,4.0,15.0,15.0,0.0
16007,46.0,4.0,15.0,15.0,0.0
16008,46.0,5.0,15.0,15.0,0.0
16009,46.0,5.0,15.0,15.0,0.0
16010,46.0,4.0,15.0,15.0,0.0
16011,46.0,4.0,15.0,15.0,0.0
16012,46.0,5.0,15.0,15.0,0.0
16013,46.0,5.0,15.0,15.0,0.0
16014,46.0,5.0,15.0,15.0,0.0
16015,46.0,4.0,15.0,15.0,0.0
16016,46.0,5.0,15.0,15.0,0.0
16017,46.0,1.0,15.0,15.0,0.0
