,note,step,duration,channel,velocity
0,66.0,16.0,180.0,2.0,0.0
1,54.0,0.0,150.0,14.0,0.0
2,58.0,32.0,150.0,13.0,0.0
3,61.0,0.0,150.0,13.0,0.0
4,70.0,16.0,15.0,2.0,0.0
5,56.0,0.0,150.0,13.0,0.0
6,53.0,16.0,150.0,14.0,0.0
7,61.0,0.0,150.0,13.0,0.0
8,68.0,16.0,15.0,2.0,0.0
9,70.0,16.0,15.0,2.0,0.0
10,68.0,16.0,15.0,2.0,0.0
11,70.0,16.0,15.0,2.0,0.0
12,68.0,16.0,15.0,2.0,0.0
13,70.0,16.0,15.0,2.0,0.0
14,68.0,16.0,15.0,2.0,0.0
15,70.0,16.0,15.0,2.0,0.0
16,68.0,0.0,15.0,2.0,0.0
17,66.0,16.0,15.0,2.0,0.0
18,68.0,48.0,15.0,2.0,0.0
19,58.0,32.0,150.0,13.0,0.0
20,61.0,0.0,150.0,13.0,0.0
21,54.0,0.0,150.0,14.0,0.0
22,70.0,48.0,60.0,2.0,0.0
23,68.0,48.0,60.0,2.0,0.0
24,66.0,16.0,60.0,2.0,0.0
25,68.0,96.0,60.0,2.0,0.0
26,70.0,94.0,90.0,2.0,0.0
27,71.0,160.0,90.0,2.0,0.0
28,54.0,0.0,90.0,13.0,0.0
29,51.0,2.0,90.0,14.0,0.0
30,54.0,32.0,150.0,13.0,0.0
31,70.0,16.0,180.0,2.0,0.0
32,49.0,0.0,150.0,14.0,0.0
33,70.0,16.0,15.0,2.0,0.0
34,49.0,16.0,150.0,14.0,0.0
35,53.0,0.0,150.0,13.0,0.0
36,68.0,16.0,15.0,2.0,0.0
37,70.0,16.0,15.0,2.0,0.0
38,68.0,16.0,15.0,2.0,0.0
39,70.0,16.0,15.0,2.0,0.0
40,68.0,16.0,15.0,2.0,0.0
41,70.0,16.0,15.0,2.0,0.0
42,68.0,16.0,15.0,2.0,0.0
43,70.0,16.0,15.0,2.0,0.0
44,68.0,0.0,15.0,2.0,0.0
45,66.0,16.0,15.0,2.0,0.0
46,68.0,48.0,15.0,2.0,0.0
47,70.0,48.0,60.0,2.0,0.0
48,42.0,32.0,150.0,14.0,0.0
49,54.0,0.0,150.0,13.0,0.0
50,68.0,48.0,60.0,2.0,0.0
51,66.0,16.0,60.0,2.0,0.0
52,68.0,96.0,60.0,2.0,0.0
53,70.0,94.0,90.0,2.0,0.0
54,53.0,2.0,90.0,13.0,0.0
55,71.0,160.0,90.0,2.0,0.0
56,49.0,0.0,90.0,14.0,0.0
57,54.0,32.0,150.0,13.0,0.0
58,42.0,0.0,150.0,14.0,0.0
59,70.0,16.0,180.0,2.0,0.0
60,73.0,16.0,15.0,2.0,0.0
61,56.0,0.0,150.0,14.0,0.0
62,59.0,0.0,150.0,13.0,0.0
63,65.0,0.0,150.0,13.0,0.0
64,71.0,16.0,15.0,2.0,0.0
65,73.0,16.0,15.0,2.0,0.0
66,71.0,16.0,15.0,2.0,0.0
67,73.0,16.0,15.0,2.0,0.0
68,71.0,16.0,15.0,2.0,0.0
69,73.0,16.0,15.0,2.0,0.0
70,71.0,16.0,15.0,2.0,0.0
71,73.0,16.0,15.0,2.0,0.0
72,71.0,16.0,15.0,2.0,0.0
73,70.0,16.0,15.0,2.0,0.0
74,71.0,48.0,15.0,2.0,0.0
75,58.0,0.0,150.0,14.0,0.0
76,66.0,32.0,150.0,13.0,0.0
77,61.0,0.0,150.0,13.0,0.0
78,73.0,48.0,60.0,2.0,0.0
79,71.0,48.0,60.0,2.0,0.0
80,70.0,16.0,60.0,2.0,0.0
81,71.0,96.0,60.0,2.0,0.0
82,73.0,94.0,90.0,2.0,0.0
83,65.0,2.0,90.0,13.0,0.0
84,59.0,0.0,90.0,14.0,0.0
85,75.0,160.0,90.0,2.0,0.0
86,58.0,32.0,150.0,14.0,0.0
87,73.0,16.0,180.0,2.0,0.0
88,66.0,0.0,150.0,13.0,0.0
89,71.0,16.0,15.0,2.0,0.0
90,61.0,0.0,150.0,13.0,0.0
91,54.0,32.0,150.0,14.0,0.0
92,58.0,0.0,150.0,13.0,0.0
93,70.0,16.0,15.0,2.0,0.0
94,71.0,16.0,15.0,2.0,0.0
95,70.0,16.0,15.0,2.0,0.0
96,71.0,16.0,15.0,2.0,0.0
97,70.0,24.0,15.0,2.0,0.0
98,68.0,24.0,20.0,2.0,0.0
99,70.0,16.0,20.0,2.0,0.0
100,71.0,16.0,60.0,2.0,0.0
101,49.0,32.0,150.0,14.0,0.0
102,53.0,0.0,150.0,13.0,0.0
103,70.0,16.0,15.0,2.0,0.0
104,56.0,0.0,150.0,13.0,0.0
105,68.0,16.0,15.0,2.0,0.0
106,70.0,112.0,15.0,2.0,0.0
107,68.0,48.0,150.0,2.0,0.0
108,61.0,24.0,20.0,2.0,0.0
109,63.0,24.0,20.0,2.0,0.0
110,65.0,24.0,20.0,2.0,0.0
111,65.0,24.0,20.0,2.0,0.0
112,63.0,24.0,20.0,2.0,0.0
113,65.0,24.0,20.0,2.0,0.0
114,66.0,160.0,20.0,2.0,0.0
115,58.0,32.0,150.0,13.0,0.0
116,54.0,0.0,150.0,14.0,0.0
117,61.0,0.0,150.0,13.0,0.0
118,66.0,16.0,180.0,2.0,0.0
119,53.0,0.0,150.0,14.0,0.0
120,61.0,16.0,150.0,13.0,0.0
121,56.0,0.0,150.0,13.0,0.0
122,70.0,16.0,15.0,2.0,0.0
123,68.0,16.0,15.0,2.0,0.0
124,70.0,16.0,15.0,2.0,0.0
125,68.0,16.0,15.0,2.0,0.0
126,70.0,16.0,15.0,2.0,0.0
127,68.0,16.0,15.0,2.0,0.0
128,70.0,16.0,15.0,2.0,0.0
129,68.0,16.0,15.0,2.0,0.0
130,70.0,16.0,15.0,2.0,0.0
131,68.0,0.0,15.0,2.0,0.0
132,66.0,16.0,15.0,2.0,0.0
133,68.0,48.0,15.0,2.0,0.0
134,70.0,48.0,60.0,2.0,0.0
135,58.0,0.0,150.0,13.0,0.0
136,54.0,0.0,150.0,14.0,0.0
137,61.0,32.0,150.0,13.0,0.0
138,68.0,48.0,60.0,2.0,0.0
139,66.0,16.0,60.0,2.0,0.0
140,68.0,96.0,60.0,2.0,0.0
141,70.0,94.0,90.0,2.0,0.0
142,54.0,2.0,90.0,13.0,0.0
143,71.0,160.0,90.0,2.0,0.0
144,51.0,0.0,90.0,14.0,0.0
145,70.0,16.0,180.0,2.0,0.0
146,54.0,0.0,150.0,13.0,0.0
147,49.0,32.0,150.0,14.0,0.0
148,49.0,16.0,150.0,14.0,0.0
149,53.0,0.0,150.0,13.0,0.0
150,70.0,16.0,15.0,2.0,0.0
151,68.0,16.0,15.0,2.0,0.0
152,70.0,16.0,15.0,2.0,0.0
153,68.0,16.0,15.0,2.0,0.0
154,70.0,16.0,15.0,2.0,0.0
155,68.0,16.0,15.0,2.0,0.0
156,70.0,16.0,15.0,2.0,0.0
157,68.0,16.0,15.0,2.0,0.0
158,70.0,16.0,15.0,2.0,0.0
159,68.0,0.0,15.0,2.0,0.0
160,66.0,16.0,15.0,2.0,0.0
161,68.0,48.0,15.0,2.0,0.0
162,70.0,48.0,60.0,2.0,0.0
163,42.0,0.0,150.0,14.0,0.0
164,54.0,32.0,150.0,13.0,0.0
165,68.0,48.0,60.0,2.0,0.0
166,66.0,16.0,60.0,2.0,0.0
167,68.0,96.0,60.0,2.0,0.0
168,70.0,94.0,90.0,2.0,0.0
169,53.0,2.0,90.0,13.0,0.0
170,49.0,0.0,90.0,14.0,0.0
171,71.0,160.0,90.0,2.0,0.0
172,54.0,32.0,150.0,13.0,0.0
173,42.0,0.0,150.0,14.0,0.0
174,70.0,16.0,180.0,2.0,0.0
175,65.0,0.0,150.0,13.0,0.0
176,59.0,0.0,150.0,13.0,0.0
177,73.0,16.0,15.0,2.0,0.0
178,56.0,0.0,150.0,14.0,0.0
179,71.0,16.0,15.0,2.0,0.0
180,73.0,16.0,15.0,2.0,0.0
181,71.0,16.0,15.0,2.0,0.0
182,73.0,16.0,15.0,2.0,0.0
183,71.0,16.0,15.0,2.0,0.0
184,73.0,16.0,15.0,2.0,0.0
185,71.0,16.0,15.0,2.0,0.0
186,73.0,16.0,15.0,2.0,0.0
187,71.0,16.0,15.0,2.0,0.0
188,70.0,16.0,15.0,2.0,0.0
189,71.0,48.0,15.0,2.0,0.0
190,73.0,48.0,60.0,2.0,0.0
191,58.0,0.0,150.0,14.0,0.0
192,66.0,32.0,150.0,13.0,0.0
193,61.0,0.0,150.0,13.0,0.0
194,71.0,48.0,60.0,2.0,0.0
195,70.0,16.0,60.0,2.0,0.0
196,71.0,96.0,60.0,2.0,0.0
197,73.0,94.0,90.0,2.0,0.0
198,59.0,2.0,90.0,14.0,0.0
199,65.0,0.0,90.0,13.0,0.0
200,75.0,160.0,90.0,2.0,0.0
201,73.0,16.0,180.0,2.0,0.0
202,58.0,0.0,150.0,14.0,0.0
203,66.0,32.0,150.0,13.0,0.0
204,71.0,16.0,15.0,2.0,0.0
205,54.0,0.0,150.0,14.0,0.0
206,58.0,32.0,150.0,13.0,0.0
207,61.0,0.0,150.0,13.0,0.0
208,70.0,16.0,15.0,2.0,0.0
209,71.0,16.0,15.0,2.0,0.0
210,70.0,16.0,15.0,2.0,0.0
211,71.0,16.0,15.0,2.0,0.0
212,70.0,24.0,15.0,2.0,0.0
213,68.0,24.0,20.0,2.0,0.0
214,70.0,16.0,20.0,2.0,0.0
215,71.0,16.0,60.0,2.0,0.0
216,70.0,16.0,15.0,2.0,0.0
217,49.0,0.0,150.0,14.0,0.0
218,53.0,32.0,150.0,13.0,0.0
219,56.0,0.0,150.0,13.0,0.0
220,68.0,16.0,15.0,2.0,0.0
221,70.0,112.0,15.0,2.0,0.0
222,68.0,48.0,150.0,2.0,0.0
223,61.0,24.0,20.0,2.0,0.0
224,63.0,24.0,20.0,2.0,0.0
225,65.0,24.0,20.0,2.0,0.0
226,65.0,24.0,20.0,2.0,0.0
227,63.0,24.0,20.0,2.0,0.0
228,65.0,24.0,20.0,2.0,0.0
229,66.0,160.0,20.0,2.0,0.0
230,56.0,0.0,150.0,13.0,0.0
231,68.0,96.0,180.0,2.0,0.0
232,49.0,32.0,150.0,14.0,0.0
233,53.0,0.0,150.0,13.0,0.0
234,54.0,0.0,150.0,13.0,0.0
235,42.0,32.0,150.0,14.0,0.0
236,70.0,48.0,90.0,2.0,0.0
237,68.0,16.0,60.0,2.0,0.0
238,66.0,48.0,60.0,2.0,0.0
239,56.0,0.0,150.0,13.0,0.0
240,65.0,48.0,60.0,2.0,0.0
241,49.0,32.0,150.0,14.0,0.0
242,63.0,48.0,60.0,2.0,0.0
243,61.0,16.0,60.0,2.0,0.0
244,63.0,96.0,60.0,2.0,0.0
245,65.0,94.0,90.0,2.0,0.0
246,49.0,0.0,90.0,13.0,0.0
247,66.0,96.0,90.0,2.0,0.0
248,46.0,2.0,90.0,14.0,0.0
249,47.0,0.0,150.0,14.0,0.0
250,68.0,64.0,90.0,2.0,0.0
251,51.0,32.0,150.0,13.0,0.0
252,70.0,16.0,90.0,2.0,0.0
253,53.0,0.0,150.0,13.0,0.0
254,71.0,16.0,15.0,2.0,0.0
255,49.0,0.0,150.0,14.0,0.0
256,70.0,16.0,15.0,2.0,0.0
257,71.0,16.0,15.0,2.0,0.0
258,70.0,16.0,15.0,2.0,0.0
259,71.0,16.0,15.0,2.0,0.0
260,70.0,16.0,15.0,2.0,0.0
261,71.0,16.0,15.0,2.0,0.0
262,70.0,16.0,15.0,2.0,0.0
263,71.0,16.0,15.0,2.0,0.0
264,70.0,16.0,15.0,2.0,0.0
265,68.0,16.0,15.0,2.0,0.0
266,70.0,48.0,15.0,2.0,0.0
267,51.0,32.0,150.0,14.0,0.0
268,54.0,0.0,150.0,13.0,0.0
269,71.0,48.0,60.0,2.0,0.0
270,70.0,48.0,60.0,2.0,0.0
271,68.0,16.0,60.0,2.0,0.0
272,70.0,96.0,60.0,2.0,0.0
273,71.0,94.0,90.0,2.0,0.0
274,53.0,0.0,90.0,14.0,0.0
275,56.0,2.0,90.0,13.0,0.0
276,73.0,160.0,90.0,2.0,0.0
277,70.0,16.0,180.0,2.0,0.0
278,54.0,0.0,150.0,14.0,0.0
279,61.0,32.0,150.0,13.0,0.0
280,61.0,0.0,150.0,13.0,0.0
281,70.0,16.0,15.0,2.0,0.0
282,53.0,0.0,150.0,14.0,0.0
283,68.0,16.0,15.0,2.0,0.0
284,70.0,16.0,15.0,2.0,0.0
285,68.0,16.0,15.0,2.0,0.0
286,70.0,16.0,15.0,2.0,0.0
287,68.0,16.0,15.0,2.0,0.0
288,70.0,16.0,15.0,2.0,0.0
289,68.0,16.0,15.0,2.0,0.0
290,70.0,16.0,15.0,2.0,0.0
291,68.0,16.0,15.0,2.0,0.0
292,66.0,16.0,15.0,2.0,0.0
293,68.0,48.0,15.0,2.0,0.0
294,61.0,0.0,150.0,13.0,0.0
295,54.0,32.0,150.0,14.0,0.0
296,70.0,48.0,60.0,2.0,0.0
297,68.0,48.0,60.0,2.0,0.0
298,66.0,16.0,60.0,2.0,0.0
299,68.0,96.0,60.0,2.0,0.0
300,70.0,94.0,90.0,2.0,0.0
301,71.0,160.0,90.0,2.0,0.0
302,54.0,0.0,90.0,13.0,0.0
303,51.0,2.0,90.0,14.0,0.0
304,59.0,0.0,150.0,13.0,0.0
305,47.0,32.0,150.0,14.0,0.0
306,68.0,16.0,180.0,2.0,0.0
307,49.0,16.0,150.0,14.0,0.0
308,56.0,0.0,150.0,13.0,0.0
309,66.0,16.0,15.0,2.0,0.0
310,65.0,16.0,15.0,2.0,0.0
311,66.0,16.0,15.0,2.0,0.0
312,65.0,16.0,15.0,2.0,0.0
313,66.0,16.0,15.0,2.0,0.0
314,65.0,16.0,15.0,2.0,0.0
315,66.0,16.0,15.0,2.0,0.0
316,65.0,16.0,15.0,2.0,0.0
317,66.0,16.0,15.0,2.0,0.0
318,65.0,0.0,15.0,2.0,0.0
319,63.0,16.0,15.0,2.0,0.0
320,65.0,160.0,15.0,2.0,0.0
321,66.0,60.0,180.0,2.0,0.0
322,42.0,32.0,150.0,14.0,0.0
323,54.0,0.0,150.0,13.0,0.0
324,68.0,12.0,15.0,2.0,0.0
325,66.0,12.0,15.0,2.0,0.0
326,65.0,12.0,15.0,2.0,0.0
327,66.0,16.0,15.0,2.0,0.0
328,68.0,16.0,15.0,2.0,0.0
329,66.0,16.0,15.0,2.0,0.0
330,68.0,16.0,15.0,2.0,0.0
331,66.0,16.0,15.0,2.0,0.0
332,65.0,16.0,15.0,2.0,0.0
333,66.0,160.0,15.0,2.0,0.0
334,49.0,0.0,150.0,14.0,0.0
335,53.0,0.0,150.0,13.0,0.0
336,56.0,32.0,150.0,13.0,0.0
337,68.0,96.0,180.0,2.0,0.0
338,42.0,0.0,150.0,14.0,0.0
339,54.0,32.0,150.0,13.0,0.0
340,70.0,48.0,90.0,2.0,0.0
341,68.0,16.0,60.0,2.0,0.0
342,66.0,48.0,60.0,2.0,0.0
343,65.0,48.0,60.0,2.0,0.0
344,49.0,32.0,150.0,14.0,0.0
345,56.0,0.0,150.0,13.0,0.0
346,63.0,48.0,60.0,2.0,0.0
347,61.0,16.0,60.0,2.0,0.0
348,63.0,96.0,60.0,2.0,0.0
349,65.0,94.0,90.0,2.0,0.0
350,66.0,96.0,90.0,2.0,0.0
351,46.0,0.0,90.0,14.0,0.0
352,49.0,2.0,90.0,13.0,0.0
353,47.0,32.0,150.0,14.0,0.0
354,51.0,0.0,150.0,13.0,0.0
355,68.0,64.0,90.0,2.0,0.0
356,70.0,16.0,90.0,2.0,0.0
357,53.0,0.0,150.0,13.0,0.0
358,49.0,16.0,150.0,14.0,0.0
359,71.0,16.0,15.0,2.0,0.0
360,70.0,16.0,15.0,2.0,0.0
361,71.0,16.0,15.0,2.0,0.0
362,70.0,16.0,15.0,2.0,0.0
363,71.0,16.0,15.0,2.0,0.0
364,70.0,16.0,15.0,2.0,0.0
365,71.0,16.0,15.0,2.0,0.0
366,70.0,16.0,15.0,2.0,0.0
367,71.0,16.0,15.0,2.0,0.0
368,70.0,0.0,15.0,2.0,0.0
369,68.0,16.0,15.0,2.0,0.0
370,70.0,48.0,15.0,2.0,0.0
371,71.0,48.0,60.0,2.0,0.0
372,54.0,32.0,150.0,13.0,0.0
373,51.0,0.0,150.0,14.0,0.0
374,70.0,48.0,60.0,2.0,0.0
375,68.0,16.0,60.0,2.0,0.0
376,70.0,96.0,60.0,2.0,0.0
377,71.0,94.0,90.0,2.0,0.0
378,73.0,160.0,90.0,2.0,0.0
379,56.0,0.0,90.0,13.0,0.0
380,53.0,2.0,90.0,14.0,0.0
381,54.0,32.0,150.0,14.0,0.0
382,61.0,0.0,150.0,13.0,0.0
383,70.0,16.0,180.0,2.0,0.0
384,53.0,0.0,150.0,14.0,0.0
385,61.0,16.0,150.0,13.0,0.0
386,70.0,16.0,15.0,2.0,0.0
387,68.0,16.0,15.0,2.0,0.0
388,70.0,16.0,15.0,2.0,0.0
389,68.0,16.0,15.0,2.0,0.0
390,70.0,16.0,15.0,2.0,0.0
391,68.0,16.0,15.0,2.0,0.0
392,70.0,16.0,15.0,2.0,0.0
393,68.0,16.0,15.0,2.0,0.0
394,70.0,16.0,15.0,2.0,0.0
395,68.0,0.0,15.0,2.0,0.0
396,66.0,16.0,15.0,2.0,0.0
397,68.0,48.0,15.0,2.0,0.0
398,70.0,48.0,60.0,2.0,0.0
399,61.0,32.0,150.0,13.0,0.0
400,54.0,0.0,150.0,14.0,0.0
401,68.0,48.0,60.0,2.0,0.0
402,66.0,16.0,60.0,2.0,0.0
403,68.0,96.0,60.0,2.0,0.0
404,70.0,94.0,90.0,2.0,0.0
405,71.0,160.0,90.0,2.0,0.0
406,51.0,0.0,90.0,14.0,0.0
407,54.0,2.0,90.0,13.0,0.0
408,47.0,32.0,150.0,14.0,0.0
409,68.0,16.0,180.0,2.0,0.0
410,59.0,0.0,150.0,13.0,0.0
411,49.0,0.0,150.0,14.0,0.0
412,56.0,16.0,150.0,13.0,0.0
413,66.0,16.0,15.0,2.0,0.0
414,65.0,16.0,15.0,2.0,0.0
415,66.0,16.0,15.0,2.0,0.0
416,65.0,16.0,15.0,2.0,0.0
417,66.0,16.0,15.0,2.0,0.0
418,65.0,16.0,15.0,2.0,0.0
419,66.0,16.0,15.0,2.0,0.0
420,65.0,16.0,15.0,2.0,0.0
421,66.0,16.0,15.0,2.0,0.0
422,65.0,0.0,15.0,2.0,0.0
423,63.0,16.0,15.0,2.0,0.0
424,65.0,160.0,15.0,2.0,0.0
425,54.0,0.0,150.0,13.0,0.0
426,42.0,32.0,150.0,14.0,0.0
427,66.0,120.0,180.0,2.0,0.0
428,61.0,24.0,20.0,1.0,0.0
429,60.0,24.0,20.0,1.0,0.0
430,61.0,24.0,20.0,1.0,0.0
431,63.0,24.0,20.0,1.0,0.0
432,65.0,32.0,20.0,1.0,0.0
433,78.0,0.0,30.0,0.0,0.0
434,42.0,48.0,90.0,15.0,0.0
435,66.0,0.0,30.0,1.0,0.0
436,65.0,0.0,30.0,1.0,0.0
437,77.0,0.0,30.0,0.0,0.0
438,66.0,0.0,90.0,1.0,0.0
439,58.0,0.0,90.0,12.0,0.0
440,61.0,0.0,90.0,11.0,0.0
441,54.0,48.0,60.0,14.0,0.0
442,78.0,0.0,90.0,0.0,0.0
443,49.0,0.0,60.0,14.0,0.0
444,68.0,48.0,30.0,1.0,0.0
445,80.0,0.0,30.0,0.0,0.0
446,37.0,48.0,90.0,15.0,0.0
447,66.0,0.0,30.0,1.0,0.0
448,78.0,0.0,30.0,0.0,0.0
449,61.0,0.0,90.0,12.0,0.0
450,80.0,0.0,90.0,0.0,0.0
451,65.0,34.0,90.0,11.0,0.0
452,68.0,0.0,90.0,1.0,0.0
453,53.0,48.0,60.0,14.0,0.0
454,49.0,0.0,60.0,14.0,0.0
455,70.0,0.0,30.0,1.0,0.0
456,42.0,48.0,90.0,15.0,0.0
457,82.0,0.0,30.0,0.0,0.0
458,68.0,0.0,30.0,1.0,0.0
459,80.0,0.0,30.0,0.0,0.0
460,70.0,0.0,150.0,1.0,0.0
461,66.0,0.0,90.0,11.0,0.0
462,61.0,0.0,90.0,12.0,0.0
463,82.0,0.0,150.0,0.0,0.0
464,54.0,48.0,60.0,14.0,0.0
465,49.0,48.0,60.0,14.0,0.0
466,42.0,34.0,90.0,15.0,0.0
467,85.0,0.0,30.0,0.0,0.0
468,73.0,0.0,30.0,1.0,0.0
469,59.0,0.0,90.0,11.0,0.0
470,39.0,34.0,90.0,15.0,0.0
471,59.0,0.0,90.0,12.0,0.0
472,71.0,0.0,30.0,1.0,0.0
473,83.0,0.0,30.0,0.0,0.0
474,66.0,0.0,30.0,1.0,0.0
475,78.0,0.0,30.0,0.0,0.0
476,37.0,48.0,90.0,15.0,0.0
477,82.0,0.0,30.0,0.0,0.0
478,70.0,0.0,30.0,1.0,0.0
479,80.0,0.0,30.0,0.0,0.0
480,68.0,0.0,30.0,1.0,0.0
481,70.0,0.0,90.0,1.0,0.0
482,66.0,0.0,90.0,11.0,0.0
483,54.0,48.0,60.0,14.0,0.0
484,82.0,0.0,90.0,0.0,0.0
485,61.0,0.0,90.0,12.0,0.0
486,49.0,0.0,60.0,14.0,0.0
487,37.0,48.0,90.0,15.0,0.0
488,68.0,48.0,30.0,1.0,0.0
489,80.0,0.0,30.0,0.0,0.0
490,66.0,0.0,30.0,1.0,0.0
491,78.0,0.0,30.0,0.0,0.0
492,53.0,48.0,60.0,14.0,0.0
493,80.0,0.0,90.0,0.0,0.0
494,65.0,34.0,90.0,11.0,0.0
495,68.0,0.0,90.0,1.0,0.0
496,61.0,0.0,90.0,12.0,0.0
497,49.0,0.0,60.0,14.0,0.0
498,42.0,48.0,90.0,15.0,0.0
499,82.0,0.0,30.0,0.0,0.0
500,70.0,0.0,30.0,1.0,0.0
501,68.0,0.0,30.0,1.0,0.0
502,80.0,0.0,30.0,0.0,0.0
503,61.0,48.0,90.0,12.0,0.0
504,66.0,0.0,90.0,11.0,0.0
505,54.0,48.0,60.0,14.0,0.0
506,82.0,0.0,150.0,0.0,0.0
507,70.0,34.0,150.0,1.0,0.0
508,49.0,0.0,60.0,14.0,0.0
509,42.0,34.0,90.0,15.0,0.0
510,73.0,0.0,30.0,1.0,0.0
511,85.0,0.0,30.0,0.0,0.0
512,65.0,34.0,90.0,11.0,0.0
513,83.0,0.0,30.0,0.0,0.0
514,71.0,48.0,30.0,1.0,0.0
515,37.0,0.0,90.0,15.0,0.0
516,61.0,0.0,90.0,12.0,0.0
517,68.0,0.0,30.0,1.0,0.0
518,80.0,0.0,30.0,0.0,0.0
519,82.0,0.0,30.0,0.0,0.0
520,42.0,48.0,90.0,15.0,0.0
521,70.0,0.0,30.0,1.0,0.0
522,68.0,0.0,30.0,1.0,0.0
523,80.0,0.0,30.0,0.0,0.0
524,66.0,0.0,90.0,11.0,0.0
525,70.0,0.0,90.0,1.0,0.0
526,61.0,34.0,90.0,12.0,0.0
527,82.0,0.0,90.0,0.0,0.0
528,54.0,48.0,60.0,14.0,0.0
529,49.0,0.0,60.0,14.0,0.0
530,44.0,48.0,90.0,15.0,0.0
531,83.0,0.0,30.0,0.0,0.0
532,71.0,0.0,30.0,1.0,0.0
533,82.0,0.0,30.0,0.0,0.0
534,70.0,14.0,30.0,1.0,0.0
535,65.0,0.0,90.0,11.0,0.0
536,71.0,0.0,90.0,1.0,0.0
537,56.0,48.0,60.0,14.0,0.0
538,61.0,0.0,90.0,12.0,0.0
539,83.0,0.0,90.0,0.0,0.0
540,49.0,0.0,60.0,14.0,0.0
541,46.0,48.0,90.0,15.0,0.0
542,85.0,0.0,30.0,0.0,0.0
543,73.0,48.0,30.0,1.0,0.0
544,83.0,0.0,30.0,0.0,0.0
545,71.0,14.0,30.0,1.0,0.0
546,61.0,0.0,90.0,12.0,0.0
547,66.0,0.0,90.0,11.0,0.0
548,73.0,0.0,150.0,1.0,0.0
549,85.0,0.0,150.0,0.0,0.0
550,58.0,48.0,60.0,14.0,0.0
551,54.0,48.0,60.0,14.0,0.0
552,46.0,34.0,90.0,15.0,0.0
553,78.0,14.0,30.0,1.0,0.0
554,90.0,0.0,30.0,0.0,0.0
555,75.0,0.0,30.0,1.0,0.0
556,87.0,48.0,30.0,0.0,0.0
557,66.0,34.0,90.0,11.0,0.0
558,66.0,0.0,90.0,12.0,0.0
559,47.0,0.0,90.0,15.0,0.0
560,71.0,14.0,30.0,1.0,0.0
561,83.0,0.0,30.0,0.0,0.0
562,73.0,0.0,30.0,1.0,0.0
563,46.0,48.0,90.0,15.0,0.0
564,85.0,0.0,30.0,0.0,0.0
565,71.0,0.0,30.0,1.0,0.0
566,83.0,0.0,30.0,0.0,0.0
567,61.0,48.0,90.0,12.0,0.0
568,85.0,0.0,150.0,0.0,0.0
569,73.0,0.0,150.0,1.0,0.0
570,66.0,0.0,90.0,11.0,0.0
571,54.0,48.0,60.0,14.0,0.0
572,49.0,0.0,60.0,14.0,0.0
573,42.0,34.0,90.0,15.0,0.0
574,90.0,0.0,30.0,0.0,0.0
575,78.0,14.0,30.0,1.0,0.0
576,73.0,14.0,30.0,1.0,0.0
577,58.0,34.0,60.0,14.0,0.0
578,85.0,0.0,30.0,0.0,0.0
579,61.0,96.0,90.0,12.0,0.0
580,66.0,0.0,90.0,11.0,0.0
581,54.0,0.0,60.0,14.0,0.0
582,82.0,0.0,30.0,0.0,0.0
583,70.0,14.0,30.0,1.0,0.0
584,80.0,0.0,150.0,0.0,0.0
585,65.0,8.0,150.0,11.0,0.0
586,68.0,18.0,150.0,1.0,0.0
587,37.0,48.0,90.0,15.0,0.0
588,61.0,0.0,150.0,12.0,0.0
589,56.0,0.0,60.0,14.0,0.0
590,82.0,22.0,20.0,0.0,0.0
591,53.0,2.0,60.0,14.0,0.0
592,83.0,24.0,20.0,0.0,0.0
593,85.0,24.0,20.0,0.0,0.0
594,37.0,2.0,90.0,15.0,0.0
595,87.0,24.0,20.0,0.0,0.0
596,89.0,22.0,20.0,0.0,0.0
597,90.0,24.0,20.0,0.0,0.0
598,92.0,24.0,20.0,0.0,0.0
599,90.0,24.0,20.0,0.0,0.0
600,89.0,24.0,20.0,0.0,0.0
601,87.0,24.0,20.0,0.0,0.0
602,85.0,24.0,20.0,0.0,0.0
603,83.0,24.0,20.0,0.0,0.0
604,82.0,22.0,20.0,0.0,0.0
605,80.0,34.0,20.0,0.0,0.0
606,42.0,48.0,90.0,15.0,0.0
607,66.0,0.0,30.0,1.0,0.0
608,78.0,0.0,30.0,0.0,0.0
609,65.0,0.0,30.0,1.0,0.0
610,77.0,0.0,30.0,0.0,0.0
611,61.0,0.0,90.0,11.0,0.0
612,54.0,48.0,60.0,14.0,0.0
613,78.0,0.0,90.0,0.0,0.0
614,66.0,0.0,90.0,1.0,0.0
615,58.0,34.0,90.0,12.0,0.0
616,49.0,0.0,60.0,14.0,0.0
617,37.0,48.0,90.0,15.0,0.0
618,68.0,0.0,30.0,1.0,0.0
619,80.0,0.0,30.0,0.0,0.0
620,66.0,0.0,30.0,1.0,0.0
621,78.0,0.0,30.0,0.0,0.0
622,68.0,0.0,90.0,1.0,0.0
623,80.0,0.0,90.0,0.0,0.0
624,65.0,0.0,90.0,11.0,0.0
625,53.0,48.0,60.0,14.0,0.0
626,61.0,0.0,90.0,12.0,0.0
627,49.0,34.0,60.0,14.0,0.0
628,42.0,48.0,90.0,15.0,0.0
629,82.0,0.0,30.0,0.0,0.0
630,70.0,0.0,30.0,1.0,0.0
631,68.0,14.0,30.0,1.0,0.0
632,80.0,0.0,30.0,0.0,0.0
633,61.0,0.0,90.0,12.0,0.0
634,70.0,0.0,150.0,1.0,0.0
635,66.0,48.0,90.0,11.0,0.0
636,82.0,0.0,150.0,0.0,0.0
637,54.0,48.0,60.0,14.0,0.0
638,49.0,0.0,60.0,14.0,0.0
639,42.0,34.0,90.0,15.0,0.0
640,73.0,0.0,30.0,1.0,0.0
641,85.0,0.0,30.0,0.0,0.0
642,59.0,34.0,90.0,12.0,0.0
643,39.0,0.0,90.0,15.0,0.0
644,59.0,0.0,90.0,11.0,0.0
645,71.0,48.0,30.0,1.0,0.0
646,83.0,0.0,30.0,0.0,0.0
647,66.0,14.0,30.0,1.0,0.0
648,78.0,0.0,30.0,0.0,0.0
649,37.0,48.0,90.0,15.0,0.0
650,70.0,0.0,30.0,1.0,0.0
651,82.0,0.0,30.0,0.0,0.0
652,80.0,0.0,30.0,0.0,0.0
653,68.0,0.0,30.0,1.0,0.0
654,66.0,0.0,90.0,11.0,0.0
655,54.0,48.0,60.0,14.0,0.0
656,70.0,34.0,90.0,1.0,0.0
657,61.0,0.0,90.0,12.0,0.0
658,82.0,0.0,90.0,0.0,0.0
659,49.0,0.0,60.0,14.0,0.0
660,37.0,48.0,90.0,15.0,0.0
661,80.0,0.0,30.0,0.0,0.0
662,68.0,0.0,30.0,1.0,0.0
663,66.0,0.0,30.0,1.0,0.0
664,78.0,0.0,30.0,0.0,0.0
665,80.0,0.0,90.0,0.0,0.0
666,61.0,0.0,90.0,12.0,0.0
667,65.0,34.0,90.0,11.0,0.0
668,68.0,0.0,90.0,1.0,0.0
669,53.0,48.0,60.0,14.0,0.0
670,49.0,0.0,60.0,14.0,0.0
671,70.0,48.0,30.0,1.0,0.0
672,82.0,0.0,30.0,0.0,0.0
673,42.0,48.0,90.0,15.0,0.0
674,68.0,0.0,30.0,1.0,0.0
675,80.0,0.0,30.0,0.0,0.0
676,66.0,0.0,90.0,11.0,0.0
677,70.0,0.0,150.0,1.0,0.0
678,82.0,0.0,150.0,0.0,0.0
679,61.0,0.0,90.0,12.0,0.0
680,54.0,48.0,60.0,14.0,0.0
681,49.0,48.0,60.0,14.0,0.0
682,42.0,34.0,90.0,15.0,0.0
683,85.0,0.0,30.0,0.0,0.0
684,73.0,0.0,30.0,1.0,0.0
685,37.0,0.0,90.0,15.0,0.0
686,83.0,0.0,30.0,0.0,0.0
687,65.0,0.0,90.0,11.0,0.0
688,61.0,34.0,90.0,12.0,0.0
689,71.0,0.0,30.0,1.0,0.0
690,68.0,14.0,30.0,1.0,0.0
691,80.0,0.0,30.0,0.0,0.0
692,70.0,0.0,30.0,1.0,0.0
693,82.0,0.0,30.0,0.0,0.0
694,42.0,48.0,90.0,15.0,0.0
695,80.0,0.0,30.0,0.0,0.0
696,68.0,14.0,30.0,1.0,0.0
697,61.0,0.0,90.0,12.0,0.0
698,54.0,48.0,60.0,14.0,0.0
699,66.0,0.0,90.0,11.0,0.0
700,82.0,0.0,90.0,0.0,0.0
701,70.0,0.0,90.0,1.0,0.0
702,49.0,0.0,60.0,14.0,0.0
703,71.0,0.0,30.0,1.0,0.0
704,44.0,48.0,90.0,15.0,0.0
705,83.0,0.0,30.0,0.0,0.0
706,70.0,0.0,30.0,1.0,0.0
707,82.0,0.0,30.0,0.0,0.0
708,65.0,34.0,90.0,11.0,0.0
709,71.0,0.0,90.0,1.0,0.0
710,56.0,48.0,60.0,14.0,0.0
711,83.0,0.0,90.0,0.0,0.0
712,61.0,0.0,90.0,12.0,0.0
713,49.0,0.0,60.0,14.0,0.0
714,46.0,48.0,90.0,15.0,0.0
715,73.0,0.0,30.0,1.0,0.0
716,85.0,0.0,30.0,0.0,0.0
717,71.0,0.0,30.0,1.0,0.0
718,83.0,0.0,30.0,0.0,0.0
719,73.0,34.0,150.0,1.0,0.0
720,85.0,0.0,150.0,0.0,0.0
721,66.0,0.0,90.0,11.0,0.0
722,61.0,48.0,90.0,12.0,0.0
723,58.0,48.0,60.0,14.0,0.0
724,54.0,0.0,60.0,14.0,0.0
725,46.0,34.0,90.0,15.0,0.0
726,90.0,0.0,30.0,0.0,0.0
727,78.0,14.0,30.0,1.0,0.0
728,66.0,34.0,90.0,11.0,0.0
729,66.0,0.0,90.0,12.0,0.0
730,87.0,48.0,30.0,0.0,0.0
731,75.0,0.0,30.0,1.0,0.0
732,47.0,0.0,90.0,15.0,0.0
733,71.0,0.0,30.0,1.0,0.0
734,83.0,14.0,30.0,0.0,0.0
735,73.0,48.0,30.0,1.0,0.0
736,46.0,48.0,90.0,15.0,0.0
737,85.0,0.0,30.0,0.0,0.0
738,71.0,0.0,30.0,1.0,0.0
739,83.0,0.0,30.0,0.0,0.0
740,73.0,34.0,150.0,1.0,0.0
741,66.0,48.0,90.0,11.0,0.0
742,61.0,0.0,90.0,12.0,0.0
743,85.0,0.0,150.0,0.0,0.0
744,54.0,48.0,60.0,14.0,0.0
745,49.0,0.0,60.0,14.0,0.0
746,42.0,34.0,90.0,15.0,0.0
747,90.0,14.0,30.0,0.0,0.0
748,78.0,0.0,30.0,1.0,0.0
749,61.0,0.0,90.0,12.0,0.0
750,58.0,34.0,60.0,14.0,0.0
751,73.0,0.0,30.0,1.0,0.0
752,66.0,0.0,90.0,11.0,0.0
753,85.0,14.0,30.0,0.0,0.0
754,70.0,14.0,30.0,1.0,0.0
755,82.0,0.0,30.0,0.0,0.0
756,54.0,96.0,60.0,14.0,0.0
757,37.0,48.0,90.0,15.0,0.0
758,65.0,0.0,150.0,11.0,0.0
759,68.0,0.0,150.0,1.0,0.0
760,61.0,8.0,150.0,12.0,0.0
761,80.0,0.0,150.0,0.0,0.0
762,56.0,2.0,60.0,14.0,0.0
763,82.0,22.0,20.0,0.0,0.0
764,53.0,2.0,60.0,14.0,0.0
765,83.0,24.0,20.0,0.0,0.0
766,85.0,24.0,20.0,0.0,0.0
767,37.0,2.0,90.0,15.0,0.0
768,87.0,24.0,20.0,0.0,0.0
769,89.0,22.0,20.0,0.0,0.0
770,90.0,24.0,20.0,0.0,0.0
771,92.0,24.0,20.0,0.0,0.0
772,90.0,24.0,20.0,0.0,0.0
773,89.0,24.0,20.0,0.0,0.0
774,87.0,24.0,20.0,0.0,0.0
775,85.0,24.0,20.0,0.0,0.0
776,83.0,22.0,20.0,0.0,0.0
777,82.0,34.0,20.0,0.0,0.0
778,80.0,0.0,30.0,0.0,0.0
779,68.0,48.0,30.0,1.0,0.0
780,37.0,48.0,90.0,15.0,0.0
781,78.0,0.0,30.0,0.0,0.0
782,66.0,0.0,30.0,1.0,0.0
783,53.0,48.0,60.0,14.0,0.0
784,68.0,32.0,150.0,1.0,0.0
785,65.0,0.0,90.0,12.0,0.0
786,80.0,0.0,150.0,0.0,0.0
787,61.0,50.0,90.0,13.0,0.0
788,49.0,0.0,60.0,14.0,0.0
789,37.0,34.0,90.0,15.0,0.0
790,71.0,0.0,30.0,1.0,0.0
791,83.0,0.0,30.0,0.0,0.0
792,70.0,48.0,30.0,1.0,0.0
793,42.0,0.0,90.0,15.0,0.0
794,61.0,34.0,90.0,12.0,0.0
795,61.0,0.0,90.0,13.0,0.0
796,82.0,0.0,30.0,0.0,0.0
797,66.0,0.0,30.0,1.0,0.0
798,78.0,0.0,30.0,0.0,0.0
799,65.0,48.0,30.0,1.0,0.0
800,37.0,48.0,90.0,15.0,0.0
801,77.0,0.0,30.0,0.0,0.0
802,63.0,14.0,30.0,1.0,0.0
803,75.0,0.0,30.0,0.0,0.0
804,53.0,48.0,60.0,14.0,0.0
805,65.0,0.0,150.0,1.0,0.0
806,77.0,0.0,150.0,0.0,0.0
807,56.0,0.0,90.0,13.0,0.0
808,61.0,48.0,90.0,12.0,0.0
809,49.0,0.0,60.0,14.0,0.0
810,37.0,34.0,90.0,15.0,0.0
811,68.0,14.0,30.0,1.0,0.0
812,80.0,0.0,30.0,0.0,0.0
813,78.0,48.0,30.0,0.0,0.0
814,46.0,0.0,90.0,14.0,0.0
815,66.0,0.0,30.0,1.0,0.0
816,34.0,0.0,90.0,15.0,0.0
817,70.0,0.0,60.0,1.0,0.0
818,61.0,14.0,30.0,1.0,0.0
819,82.0,34.0,60.0,0.0,0.0
820,73.0,0.0,30.0,0.0,0.0
821,80.0,14.0,30.0,0.0,0.0
822,47.0,0.0,90.0,14.0,0.0
823,35.0,34.0,90.0,15.0,0.0
824,68.0,0.0,30.0,1.0,0.0
825,63.0,0.0,60.0,1.0,0.0
826,71.0,0.0,30.0,1.0,0.0
827,83.0,14.0,30.0,0.0,0.0
828,75.0,0.0,30.0,0.0,0.0
829,37.0,34.0,90.0,15.0,0.0
830,82.0,14.0,30.0,0.0,0.0
831,70.0,0.0,30.0,1.0,0.0
832,49.0,0.0,90.0,14.0,0.0
833,65.0,0.0,60.0,1.0,0.0
834,73.0,14.0,30.0,1.0,0.0
835,85.0,0.0,30.0,0.0,0.0
836,77.0,0.0,30.0,0.0,0.0
837,83.0,14.0,30.0,0.0,0.0
838,39.0,0.0,90.0,15.0,0.0
839,71.0,0.0,30.0,1.0,0.0
840,51.0,34.0,90.0,14.0,0.0
841,75.0,0.0,30.0,1.0,0.0
842,66.0,0.0,30.0,1.0,0.0
843,78.0,14.0,30.0,0.0,0.0
844,87.0,0.0,30.0,0.0,0.0
845,85.0,14.0,30.0,0.0,0.0
846,73.0,0.0,30.0,1.0,0.0
847,53.0,0.0,90.0,14.0,0.0
848,41.0,50.0,90.0,15.0,0.0
849,80.0,0.0,30.0,0.0,0.0
850,68.0,14.0,30.0,1.0,0.0
851,39.0,2.0,90.0,15.0,0.0
852,95.0,24.0,20.0,0.0,0.0
853,94.0,22.0,20.0,0.0,0.0
854,92.0,24.0,20.0,0.0,0.0
855,90.0,22.0,20.0,0.0,0.0
856,59.0,2.0,60.0,14.0,0.0
857,89.0,24.0,20.0,0.0,0.0
858,87.0,22.0,20.0,0.0,0.0
859,54.0,34.0,60.0,14.0,0.0
860,85.0,0.0,20.0,0.0,0.0
861,83.0,0.0,30.0,0.0,0.0
862,71.0,48.0,30.0,1.0,0.0
863,39.0,34.0,90.0,15.0,0.0
864,78.0,0.0,30.0,0.0,0.0
865,66.0,0.0,30.0,1.0,0.0
866,75.0,14.0,30.0,1.0,0.0
867,73.0,48.0,30.0,1.0,0.0
868,41.0,34.0,90.0,15.0,0.0
869,68.0,14.0,30.0,1.0,0.0
870,70.0,0.0,30.0,1.0,0.0
871,82.0,0.0,30.0,0.0,0.0
872,42.0,48.0,90.0,15.0,0.0
873,80.0,0.0,30.0,0.0,0.0
874,68.0,14.0,30.0,1.0,0.0
875,66.0,0.0,90.0,12.0,0.0
876,70.0,0.0,90.0,1.0,0.0
877,61.0,0.0,90.0,13.0,0.0
878,54.0,48.0,60.0,14.0,0.0
879,82.0,0.0,90.0,0.0,0.0
880,49.0,0.0,60.0,14.0,0.0
881,37.0,48.0,90.0,15.0,0.0
882,68.0,48.0,30.0,1.0,0.0
883,80.0,0.0,30.0,0.0,0.0
884,66.0,14.0,30.0,1.0,0.0
885,78.0,0.0,30.0,0.0,0.0
886,68.0,0.0,90.0,1.0,0.0
887,61.0,0.0,90.0,13.0,0.0
888,53.0,48.0,60.0,14.0,0.0
889,80.0,0.0,90.0,0.0,0.0
890,65.0,0.0,90.0,12.0,0.0
891,49.0,0.0,60.0,14.0,0.0
892,70.0,0.0,30.0,1.0,0.0
893,42.0,48.0,90.0,15.0,0.0
894,82.0,0.0,30.0,0.0,0.0
895,68.0,0.0,30.0,1.0,0.0
896,80.0,0.0,30.0,0.0,0.0
897,66.0,74.0,90.0,12.0,0.0
898,61.0,0.0,90.0,13.0,0.0
899,82.0,0.0,90.0,0.0,0.0
900,54.0,48.0,60.0,14.0,0.0
901,70.0,0.0,90.0,1.0,0.0
902,49.0,0.0,60.0,14.0,0.0
903,42.0,2.0,90.0,15.0,0.0
904,90.0,22.0,20.0,0.0,0.0
905,89.0,24.0,20.0,0.0,0.0
906,87.0,24.0,20.0,0.0,0.0
907,85.0,24.0,20.0,0.0,0.0
908,83.0,22.0,20.0,0.0,0.0
909,39.0,0.0,60.0,15.0,0.0
910,82.0,34.0,20.0,0.0,0.0
911,68.0,48.0,30.0,1.0,0.0
912,80.0,0.0,30.0,0.0,0.0
913,35.0,48.0,90.0,15.0,0.0
914,78.0,0.0,30.0,0.0,0.0
915,66.0,14.0,30.0,1.0,0.0
916,68.0,0.0,90.0,1.0,0.0
917,59.0,0.0,90.0,13.0,0.0
918,51.0,48.0,60.0,14.0,0.0
919,80.0,0.0,90.0,0.0,0.0
920,59.0,0.0,90.0,12.0,0.0
921,47.0,0.0,60.0,14.0,0.0
922,65.0,0.0,30.0,1.0,0.0
923,77.0,0.0,30.0,0.0,0.0
924,37.0,48.0,90.0,15.0,0.0
925,63.0,14.0,30.0,1.0,0.0
926,75.0,0.0,30.0,0.0,0.0
927,65.0,0.0,90.0,1.0,0.0
928,56.0,0.0,90.0,13.0,0.0
929,53.0,48.0,60.0,14.0,0.0
930,56.0,0.0,90.0,12.0,0.0
931,77.0,0.0,90.0,0.0,0.0
932,49.0,0.0,60.0,14.0,0.0
933,66.0,0.0,150.0,1.0,0.0
934,58.0,0.0,90.0,12.0,0.0
935,78.0,0.0,150.0,0.0,0.0
936,58.0,0.0,90.0,13.0,0.0
937,42.0,48.0,90.0,15.0,0.0
938,54.0,24.0,60.0,14.0,0.0
939,49.0,0.0,60.0,14.0,0.0
940,80.0,24.0,20.0,0.0,0.0
941,82.0,26.0,20.0,0.0,0.0
942,83.0,24.0,20.0,0.0,0.0
943,30.0,2.0,90.0,15.0,0.0
944,85.0,24.0,20.0,0.0,0.0
945,87.0,22.0,20.0,0.0,0.0
946,89.0,24.0,20.0,0.0,0.0
947,90.0,24.0,20.0,0.0,0.0
948,89.0,24.0,20.0,0.0,0.0
949,87.0,24.0,20.0,0.0,0.0
950,85.0,24.0,20.0,0.0,0.0
951,83.0,22.0,20.0,0.0,0.0
952,82.0,34.0,20.0,0.0,0.0
953,80.0,0.0,30.0,0.0,0.0
954,37.0,48.0,90.0,15.0,0.0
955,68.0,0.0,30.0,1.0,0.0
956,78.0,0.0,30.0,0.0,0.0
957,66.0,0.0,30.0,1.0,0.0
958,61.0,0.0,90.0,13.0,0.0
959,65.0,0.0,90.0,12.0,0.0
960,53.0,48.0,60.0,14.0,0.0
961,68.0,0.0,150.0,1.0,0.0
962,80.0,0.0,150.0,0.0,0.0
963,49.0,50.0,60.0,14.0,0.0
964,37.0,34.0,90.0,15.0,0.0
965,71.0,0.0,30.0,1.0,0.0
966,83.0,0.0,30.0,0.0,0.0
967,42.0,0.0,90.0,15.0,0.0
968,61.0,0.0,90.0,13.0,0.0
969,61.0,34.0,90.0,12.0,0.0
970,70.0,0.0,30.0,1.0,0.0
971,82.0,0.0,30.0,0.0,0.0
972,66.0,0.0,30.0,1.0,0.0
973,78.0,0.0,30.0,0.0,0.0
974,37.0,48.0,90.0,15.0,0.0
975,65.0,0.0,30.0,1.0,0.0
976,77.0,0.0,30.0,0.0,0.0
977,75.0,0.0,30.0,0.0,0.0
978,63.0,14.0,30.0,1.0,0.0
979,77.0,0.0,150.0,0.0,0.0
980,53.0,48.0,60.0,14.0,0.0
981,56.0,0.0,90.0,13.0,0.0
982,61.0,48.0,90.0,12.0,0.0
983,65.0,0.0,150.0,1.0,0.0
984,49.0,0.0,60.0,14.0,0.0
985,37.0,34.0,90.0,15.0,0.0
986,68.0,14.0,30.0,1.0,0.0
987,80.0,0.0,30.0,0.0,0.0
988,66.0,48.0,30.0,1.0,0.0
989,46.0,0.0,90.0,14.0,0.0
990,34.0,0.0,90.0,15.0,0.0
991,78.0,0.0,30.0,0.0,0.0
992,73.0,14.0,30.0,0.0,0.0
993,82.0,34.0,60.0,0.0,0.0
994,70.0,0.0,60.0,1.0,0.0
995,61.0,0.0,30.0,1.0,0.0
996,35.0,0.0,90.0,15.0,0.0
997,47.0,0.0,90.0,14.0,0.0
998,80.0,14.0,30.0,0.0,0.0
999,68.0,0.0,30.0,1.0,0.0
1000,75.0,0.0,30.0,0.0,0.0
1001,63.0,34.0,60.0,1.0,0.0
1002,71.0,14.0,30.0,1.0,0.0
1003,83.0,0.0,30.0,0.0,0.0
1004,37.0,34.0,90.0,15.0,0.0
1005,82.0,0.0,30.0,0.0,0.0
1006,70.0,14.0,30.0,1.0,0.0
1007,49.0,0.0,90.0,14.0,0.0
1008,85.0,0.0,30.0,0.0,0.0
1009,77.0,0.0,30.0,0.0,0.0
1010,73.0,14.0,30.0,1.0,0.0
1011,65.0,0.0,60.0,1.0,0.0
1012,39.0,0.0,90.0,15.0,0.0
1013,83.0,0.0,30.0,0.0,0.0
1014,71.0,14.0,30.0,1.0,0.0
1015,51.0,34.0,90.0,14.0,0.0
1016,66.0,0.0,30.0,1.0,0.0
1017,75.0,14.0,30.0,1.0,0.0
1018,78.0,0.0,30.0,0.0,0.0
1019,87.0,0.0,30.0,0.0,0.0
1020,41.0,50.0,90.0,15.0,0.0
1021,53.0,0.0,90.0,14.0,0.0
1022,73.0,14.0,30.0,1.0,0.0
1023,85.0,0.0,30.0,0.0,0.0
1024,80.0,0.0,30.0,0.0,0.0
1025,68.0,14.0,30.0,1.0,0.0
1026,39.0,2.0,90.0,15.0,0.0
1027,95.0,24.0,20.0,0.0,0.0
1028,94.0,22.0,20.0,0.0,0.0
1029,92.0,24.0,20.0,0.0,0.0
1030,59.0,2.0,60.0,14.0,0.0
1031,90.0,22.0,20.0,0.0,0.0
1032,89.0,24.0,20.0,0.0,0.0
1033,54.0,34.0,60.0,14.0,0.0
1034,87.0,22.0,20.0,0.0,0.0
1035,85.0,0.0,20.0,0.0,0.0
1036,83.0,0.0,30.0,0.0,0.0
1037,39.0,34.0,90.0,15.0,0.0
1038,71.0,48.0,30.0,1.0,0.0
1039,75.0,0.0,30.0,1.0,0.0
1040,78.0,0.0,30.0,0.0,0.0
1041,66.0,14.0,30.0,1.0,0.0
1042,73.0,48.0,30.0,1.0,0.0
1043,41.0,34.0,90.0,15.0,0.0
1044,68.0,14.0,30.0,1.0,0.0
1045,42.0,48.0,90.0,15.0,0.0
1046,70.0,0.0,30.0,1.0,0.0
1047,82.0,0.0,30.0,0.0,0.0
1048,68.0,14.0,30.0,1.0,0.0
1049,80.0,0.0,30.0,0.0,0.0
1050,70.0,34.0,90.0,1.0,0.0
1051,54.0,48.0,60.0,14.0,0.0
1052,66.0,0.0,90.0,12.0,0.0
1053,61.0,0.0,90.0,13.0,0.0
1054,82.0,0.0,90.0,0.0,0.0
1055,49.0,0.0,60.0,14.0,0.0
1056,68.0,0.0,30.0,1.0,0.0
1057,37.0,48.0,90.0,15.0,0.0
1058,80.0,0.0,30.0,0.0,0.0
1059,66.0,14.0,30.0,1.0,0.0
1060,78.0,0.0,30.0,0.0,0.0
1061,53.0,48.0,60.0,14.0,0.0
1062,61.0,0.0,90.0,13.0,0.0
1063,80.0,0.0,90.0,0.0,0.0
1064,65.0,34.0,90.0,12.0,0.0
1065,68.0,0.0,90.0,1.0,0.0
1066,49.0,0.0,60.0,14.0,0.0
1067,42.0,48.0,90.0,15.0,0.0
1068,82.0,0.0,30.0,0.0,0.0
1069,70.0,48.0,30.0,1.0,0.0
1070,80.0,0.0,30.0,0.0,0.0
1071,68.0,0.0,30.0,1.0,0.0
1072,66.0,0.0,90.0,12.0,0.0
1073,61.0,0.0,90.0,13.0,0.0
1074,82.0,0.0,90.0,0.0,0.0
1075,54.0,48.0,60.0,14.0,0.0
1076,70.0,0.0,90.0,1.0,0.0
1077,49.0,74.0,60.0,14.0,0.0
1078,42.0,2.0,90.0,15.0,0.0
1079,90.0,22.0,20.0,0.0,0.0
1080,89.0,24.0,20.0,0.0,0.0
1081,87.0,24.0,20.0,0.0,0.0
1082,85.0,24.0,20.0,0.0,0.0
1083,39.0,0.0,60.0,15.0,0.0
1084,83.0,22.0,20.0,0.0,0.0
1085,82.0,34.0,20.0,0.0,0.0
1086,35.0,48.0,90.0,15.0,0.0
1087,68.0,0.0,30.0,1.0,0.0
1088,80.0,0.0,30.0,0.0,0.0
1089,66.0,0.0,30.0,1.0,0.0
1090,78.0,0.0,30.0,0.0,0.0
1091,59.0,0.0,90.0,12.0,0.0
1092,68.0,0.0,90.0,1.0,0.0
1093,80.0,0.0,90.0,0.0,0.0
1094,59.0,0.0,90.0,13.0,0.0
1095,51.0,48.0,60.0,14.0,0.0
1096,47.0,34.0,60.0,14.0,0.0
1097,77.0,0.0,30.0,0.0,0.0
1098,65.0,48.0,30.0,1.0,0.0
1099,37.0,48.0,90.0,15.0,0.0
1100,63.0,0.0,30.0,1.0,0.0
1101,75.0,0.0,30.0,0.0,0.0
1102,65.0,0.0,90.0,1.0,0.0
1103,77.0,0.0,90.0,0.0,0.0
1104,56.0,0.0,90.0,12.0,0.0
1105,56.0,0.0,90.0,13.0,0.0
1106,53.0,48.0,60.0,14.0,0.0
1107,49.0,0.0,60.0,14.0,0.0
1108,78.0,30.0,150.0,0.0,0.0
1109,66.0,0.0,150.0,1.0,0.0
1110,42.0,48.0,90.0,15.0,0.0
1111,61.0,0.0,150.0,12.0,0.0
1112,58.0,0.0,150.0,12.0,0.0
1113,54.0,18.0,60.0,14.0,0.0
1114,49.0,96.0,60.0,14.0,0.0
1115,30.0,162.0,90.0,15.0,0.0
1116,54.0,0.0,180.0,14.0,0.0
1117,61.0,64.0,180.0,12.0,0.0
1118,66.0,32.0,60.0,11.0,0.0
1119,58.0,32.0,90.0,13.0,0.0
1120,65.0,64.0,60.0,11.0,0.0
1121,57.0,0.0,90.0,13.0,0.0
1122,66.0,0.0,60.0,11.0,0.0
1123,68.0,32.0,60.0,11.0,0.0
1124,53.0,32.0,90.0,14.0,0.0
1125,56.0,32.0,300.0,13.0,0.0
1126,61.0,64.0,330.0,12.0,0.0
1127,67.0,64.0,60.0,11.0,0.0
1128,52.0,64.0,90.0,14.0,0.0
1129,68.0,0.0,60.0,11.0,0.0
1130,70.0,32.0,60.0,11.0,0.0
1131,51.0,0.0,90.0,14.0,0.0
1132,69.0,0.0,60.0,11.0,0.0
1133,55.0,64.0,150.0,13.0,0.0
1134,49.0,0.0,90.0,14.0,0.0
1135,70.0,0.0,60.0,11.0,0.0
1136,64.0,64.0,60.0,12.0,0.0
1137,47.0,0.0,180.0,14.0,0.0
1138,63.0,64.0,330.0,12.0,0.0
1139,75.0,0.0,60.0,11.0,0.0
1140,71.0,0.0,60.0,11.0,0.0
1141,51.0,64.0,60.0,13.0,0.0
1142,56.0,0.0,150.0,13.0,0.0
1143,68.0,64.0,60.0,11.0,0.0
1144,51.0,32.0,90.0,14.0,0.0
1145,70.0,32.0,60.0,11.0,0.0
1146,69.0,0.0,60.0,11.0,0.0
1147,55.0,64.0,150.0,13.0,0.0
1148,49.0,0.0,90.0,14.0,0.0
1149,64.0,0.0,60.0,12.0,0.0
1150,70.0,64.0,60.0,11.0,0.0
1151,75.0,0.0,60.0,11.0,0.0
1152,47.0,0.0,180.0,14.0,0.0
1153,63.0,0.0,180.0,12.0,0.0
1154,51.0,0.0,60.0,13.0,0.0
1155,71.0,64.0,60.0,11.0,0.0
1156,56.0,64.0,60.0,13.0,0.0
1157,68.0,0.0,60.0,11.0,0.0
1158,49.0,0.0,180.0,14.0,0.0
1159,61.0,64.0,180.0,12.0,0.0
1160,59.0,32.0,90.0,13.0,0.0
1161,66.0,32.0,60.0,11.0,0.0
1162,65.0,64.0,60.0,11.0,0.0
1163,56.0,0.0,90.0,13.0,0.0
1164,66.0,0.0,60.0,11.0,0.0
1165,67.0,32.0,60.0,11.0,0.0
1166,53.0,32.0,90.0,13.0,0.0
1167,68.0,64.0,60.0,11.0,0.0
1168,49.0,64.0,90.0,13.0,0.0
1169,65.0,0.0,60.0,12.0,0.0
1170,69.0,0.0,60.0,11.0,0.0
1171,54.0,0.0,180.0,14.0,0.0
1172,66.0,0.0,180.0,12.0,0.0
1173,54.0,32.0,90.0,13.0,0.0
1174,70.0,32.0,60.0,11.0,0.0
1175,68.0,64.0,60.0,11.0,0.0
1176,64.0,0.0,90.0,13.0,0.0
1177,70.0,64.0,60.0,11.0,0.0
1178,66.0,0.0,390.0,12.0,0.0
1179,63.0,32.0,90.0,13.0,0.0
1180,59.0,64.0,180.0,14.0,0.0
1181,71.0,32.0,60.0,11.0,0.0
1182,70.0,64.0,60.0,11.0,0.0
1183,62.0,0.0,90.0,13.0,0.0
1184,71.0,0.0,60.0,11.0,0.0
1185,58.0,32.0,90.0,14.0,0.0
1186,61.0,0.0,270.0,13.0,0.0
1187,73.0,32.0,60.0,11.0,0.0
1188,72.0,64.0,60.0,11.0,0.0
1189,57.0,64.0,90.0,14.0,0.0
1190,73.0,0.0,60.0,11.0,0.0
1191,56.0,0.0,180.0,14.0,0.0
1192,78.0,64.0,60.0,11.0,0.0
1193,75.0,0.0,60.0,11.0,0.0
1194,60.0,64.0,60.0,13.0,0.0
1195,72.0,0.0,60.0,11.0,0.0
1196,63.0,64.0,60.0,13.0,0.0
1197,58.0,32.0,90.0,14.0,0.0
1198,61.0,32.0,660.0,13.0,0.0
1199,73.0,32.0,60.0,11.0,0.0
1200,72.0,64.0,60.0,11.0,0.0
1201,57.0,0.0,90.0,14.0,0.0
1202,73.0,0.0,60.0,11.0,0.0
1203,66.0,64.0,15.0,12.0,0.0
1204,56.0,32.0,90.0,14.0,0.0
1205,78.0,32.0,60.0,11.0,0.0
1206,73.0,64.0,60.0,11.0,0.0
1207,54.0,64.0,90.0,14.0,0.0
1208,69.0,0.0,60.0,11.0,0.0
1209,68.0,32.0,60.0,11.0,0.0
1210,65.0,64.0,180.0,12.0,0.0
1211,59.0,32.0,90.0,14.0,0.0
1212,72.0,64.0,60.0,11.0,0.0
1213,56.0,0.0,90.0,14.0,0.0
1214,73.0,0.0,60.0,11.0,0.0
1215,53.0,0.0,90.0,14.0,0.0
1216,71.0,32.0,60.0,11.0,0.0
1217,68.0,64.0,60.0,11.0,0.0
1218,59.0,0.0,90.0,13.0,0.0
1219,49.0,64.0,90.0,14.0,0.0
1220,65.0,0.0,60.0,11.0,0.0
1221,58.0,32.0,90.0,13.0,0.0
1222,61.0,0.0,180.0,12.0,0.0
1223,54.0,0.0,180.0,14.0,0.0
1224,66.0,32.0,60.0,11.0,0.0
1225,65.0,64.0,60.0,11.0,0.0
1226,57.0,0.0,90.0,13.0,0.0
1227,66.0,64.0,60.0,11.0,0.0
1228,53.0,32.0,90.0,14.0,0.0
1229,68.0,32.0,60.0,11.0,0.0
1230,61.0,64.0,330.0,12.0,0.0
1231,56.0,0.0,300.0,13.0,0.0
1232,67.0,64.0,60.0,11.0,0.0
1233,52.0,64.0,90.0,14.0,0.0
1234,68.0,0.0,60.0,11.0,0.0
1235,70.0,32.0,60.0,11.0,0.0
1236,51.0,32.0,90.0,14.0,0.0
1237,69.0,0.0,60.0,11.0,0.0
1238,49.0,64.0,90.0,14.0,0.0
1239,55.0,64.0,150.0,13.0,0.0
1240,64.0,0.0,60.0,12.0,0.0
1241,70.0,0.0,60.0,11.0,0.0
1242,63.0,64.0,330.0,12.0,0.0
1243,75.0,0.0,60.0,11.0,0.0
1244,47.0,0.0,180.0,14.0,0.0
1245,71.0,64.0,60.0,11.0,0.0
1246,51.0,0.0,60.0,13.0,0.0
1247,68.0,64.0,60.0,11.0,0.0
1248,56.0,0.0,150.0,13.0,0.0
1249,70.0,32.0,60.0,11.0,0.0
1250,51.0,32.0,90.0,14.0,0.0
1251,69.0,0.0,60.0,11.0,0.0
1252,49.0,0.0,90.0,14.0,0.0
1253,55.0,64.0,150.0,13.0,0.0
1254,70.0,0.0,60.0,11.0,0.0
1255,64.0,64.0,60.0,12.0,0.0
1256,75.0,0.0,60.0,11.0,0.0
1257,47.0,0.0,180.0,14.0,0.0
1258,63.0,0.0,180.0,12.0,0.0
1259,71.0,0.0,60.0,11.0,0.0
1260,51.0,64.0,60.0,13.0,0.0
1261,68.0,64.0,60.0,11.0,0.0
1262,56.0,0.0,60.0,13.0,0.0
1263,59.0,32.0,90.0,13.0,0.0
1264,49.0,0.0,180.0,14.0,0.0
1265,66.0,32.0,60.0,11.0,0.0
1266,61.0,0.0,180.0,12.0,0.0
1267,65.0,64.0,60.0,11.0,0.0
1268,56.0,0.0,90.0,13.0,0.0
1269,66.0,64.0,60.0,11.0,0.0
1270,53.0,32.0,90.0,13.0,0.0
1271,67.0,32.0,60.0,11.0,0.0
1272,68.0,64.0,60.0,11.0,0.0
1273,49.0,0.0,90.0,13.0,0.0
1274,69.0,0.0,60.0,11.0,0.0
1275,65.0,64.0,60.0,12.0,0.0
1276,54.0,32.0,90.0,13.0,0.0
1277,70.0,32.0,60.0,11.0,0.0
1278,66.0,0.0,180.0,12.0,0.0
1279,54.0,0.0,180.0,14.0,0.0
1280,68.0,64.0,60.0,11.0,0.0
1281,64.0,0.0,90.0,13.0,0.0
1282,70.0,64.0,60.0,11.0,0.0
1283,59.0,0.0,180.0,14.0,0.0
1284,63.0,32.0,90.0,13.0,0.0
1285,71.0,32.0,60.0,11.0,0.0
1286,70.0,64.0,60.0,11.0,0.0
1287,62.0,64.0,90.0,13.0,0.0
1288,71.0,0.0,60.0,11.0,0.0
1289,61.0,0.0,270.0,13.0,0.0
1290,58.0,32.0,90.0,14.0,0.0
1291,73.0,32.0,60.0,11.0,0.0
1292,72.0,64.0,60.0,11.0,0.0
1293,57.0,0.0,90.0,14.0,0.0
1294,73.0,64.0,60.0,11.0,0.0
1295,56.0,0.0,180.0,14.0,0.0
1296,66.0,0.0,15.0,12.0,0.0
1297,78.0,64.0,60.0,11.0,0.0
1298,60.0,64.0,60.0,13.0,0.0
1299,75.0,0.0,60.0,11.0,0.0
1300,63.0,64.0,60.0,13.0,0.0
1301,72.0,0.0,60.0,11.0,0.0
1302,58.0,32.0,90.0,14.0,0.0
1303,73.0,32.0,60.0,11.0,0.0
1304,61.0,32.0,660.0,13.0,0.0
1305,72.0,64.0,60.0,11.0,0.0
1306,57.0,0.0,90.0,14.0,0.0
1307,73.0,0.0,60.0,11.0,0.0
1308,78.0,32.0,60.0,11.0,0.0
1309,66.0,64.0,180.0,12.0,0.0
1310,56.0,32.0,90.0,14.0,0.0
1311,73.0,64.0,60.0,11.0,0.0
1312,54.0,0.0,90.0,14.0,0.0
1313,69.0,0.0,60.0,11.0,0.0
1314,59.0,32.0,90.0,14.0,0.0
1315,68.0,32.0,60.0,11.0,0.0
1316,65.0,0.0,180.0,12.0,0.0
1317,72.0,64.0,60.0,11.0,0.0
1318,56.0,64.0,90.0,14.0,0.0
1319,73.0,0.0,60.0,11.0,0.0
1320,71.0,32.0,60.0,11.0,0.0
1321,53.0,0.0,90.0,14.0,0.0
1322,68.0,64.0,60.0,11.0,0.0
1323,49.0,0.0,90.0,14.0,0.0
1324,65.0,16.0,60.0,11.0,0.0
1325,61.0,0.0,450.0,12.0,0.0
1326,68.0,16.0,15.0,11.0,0.0
1327,53.0,32.0,90.0,14.0,0.0
1328,70.0,32.0,15.0,11.0,0.0
1329,68.0,32.0,30.0,11.0,0.0
1330,67.0,64.0,60.0,11.0,0.0
1331,49.0,64.0,90.0,14.0,0.0
1332,68.0,0.0,60.0,11.0,0.0
1333,69.0,32.0,60.0,11.0,0.0
1334,54.0,32.0,90.0,14.0,0.0
1335,68.0,64.0,60.0,11.0,0.0
1336,42.0,64.0,90.0,14.0,0.0
1337,66.0,0.0,60.0,11.0,0.0
1338,49.0,32.0,90.0,14.0,0.0
1339,65.0,32.0,60.0,11.0,0.0
1340,63.0,64.0,60.0,11.0,0.0
1341,56.0,64.0,90.0,14.0,0.0
1342,65.0,0.0,60.0,11.0,0.0
1343,61.0,64.0,180.0,12.0,0.0
1344,61.0,32.0,60.0,11.0,0.0
1345,58.0,32.0,90.0,14.0,0.0
1346,65.0,64.0,60.0,11.0,0.0
1347,46.0,0.0,90.0,14.0,0.0
1348,66.0,0.0,60.0,11.0,0.0
1349,63.0,32.0,60.0,11.0,0.0
1350,47.0,32.0,90.0,14.0,0.0
1351,63.0,0.0,180.0,12.0,0.0
1352,67.0,64.0,60.0,11.0,0.0
1353,59.0,0.0,90.0,14.0,0.0
1354,68.0,64.0,60.0,11.0,0.0
1355,61.0,32.0,90.0,14.0,0.0
1356,65.0,32.0,60.0,11.0,0.0
1357,65.0,64.0,180.0,12.0,0.0
1358,69.0,64.0,60.0,11.0,0.0
1359,49.0,0.0,90.0,14.0,0.0
1360,70.0,0.0,60.0,11.0,0.0
1361,66.0,32.0,60.0,11.0,0.0
1362,66.0,0.0,180.0,12.0,0.0
1363,51.0,32.0,90.0,14.0,0.0
1364,70.0,64.0,60.0,11.0,0.0
1365,63.0,0.0,90.0,14.0,0.0
1366,71.0,64.0,60.0,11.0,0.0
1367,65.0,32.0,90.0,14.0,0.0
1368,68.0,0.0,180.0,12.0,0.0
1369,68.0,32.0,60.0,11.0,0.0
1370,72.0,64.0,60.0,11.0,0.0
1371,53.0,64.0,90.0,14.0,0.0
1372,73.0,0.0,60.0,11.0,0.0
1373,54.0,32.0,90.0,13.0,0.0
1374,54.0,0.0,390.0,14.0,0.0
1375,66.0,64.0,180.0,12.0,0.0
1376,70.0,32.0,60.0,11.0,0.0
1377,68.0,64.0,60.0,11.0,0.0
1378,64.0,0.0,90.0,13.0,0.0
1379,70.0,0.0,60.0,11.0,0.0
1380,71.0,32.0,60.0,11.0,0.0
1381,66.0,64.0,180.0,12.0,0.0
1382,63.0,32.0,90.0,13.0,0.0
1383,70.0,64.0,60.0,11.0,0.0
1384,62.0,0.0,90.0,13.0,0.0
1385,71.0,0.0,60.0,11.0,0.0
1386,73.0,32.0,60.0,11.0,0.0
1387,70.0,32.0,90.0,12.0,0.0
1388,61.0,64.0,180.0,13.0,0.0
1389,72.0,64.0,60.0,11.0,0.0
1390,69.0,0.0,90.0,12.0,0.0
1391,73.0,0.0,60.0,11.0,0.0
1392,68.0,32.0,90.0,12.0,0.0
1393,75.0,32.0,60.0,11.0,0.0
1394,60.0,0.0,180.0,13.0,0.0
1395,74.0,64.0,60.0,11.0,0.0
1396,66.0,64.0,90.0,12.0,0.0
1397,75.0,0.0,60.0,11.0,0.0
1398,54.0,0.0,15.0,14.0,0.0
1399,59.0,0.0,390.0,13.0,0.0
1400,80.0,32.0,60.0,11.0,0.0
1401,65.0,32.0,90.0,12.0,0.0
1402,79.0,64.0,60.0,11.0,0.0
1403,64.0,0.0,90.0,12.0,0.0
1404,80.0,64.0,60.0,11.0,0.0
1405,83.0,32.0,60.0,11.0,0.0
1406,63.0,32.0,90.0,12.0,0.0
1407,80.0,64.0,60.0,11.0,0.0
1408,62.0,64.0,90.0,12.0,0.0
1409,77.0,0.0,60.0,11.0,0.0
1410,78.0,32.0,60.0,11.0,0.0
1411,58.0,0.0,180.0,13.0,0.0
1412,61.0,32.0,90.0,12.0,0.0
1413,77.0,64.0,60.0,11.0,0.0
1414,59.0,0.0,90.0,12.0,0.0
1415,75.0,0.0,60.0,11.0,0.0
1416,58.0,32.0,90.0,12.0,0.0
1417,73.0,32.0,60.0,11.0,0.0
1418,71.0,64.0,60.0,11.0,0.0
1419,54.0,0.0,90.0,12.0,0.0
1420,70.0,16.0,60.0,11.0,0.0
1421,61.0,0.0,450.0,12.0,0.0
1422,68.0,16.0,15.0,11.0,0.0
1423,53.0,32.0,90.0,14.0,0.0
1424,70.0,32.0,15.0,11.0,0.0
1425,68.0,32.0,30.0,11.0,0.0
1426,67.0,64.0,60.0,11.0,0.0
1427,49.0,64.0,90.0,14.0,0.0
1428,68.0,0.0,60.0,11.0,0.0
1429,54.0,32.0,90.0,14.0,0.0
1430,69.0,32.0,60.0,11.0,0.0
1431,68.0,64.0,60.0,11.0,0.0
1432,42.0,0.0,90.0,14.0,0.0
1433,66.0,64.0,60.0,11.0,0.0
1434,65.0,32.0,60.0,11.0,0.0
1435,49.0,32.0,90.0,14.0,0.0
1436,63.0,64.0,60.0,11.0,0.0
1437,56.0,64.0,90.0,14.0,0.0
1438,65.0,0.0,60.0,11.0,0.0
1439,58.0,32.0,90.0,14.0,0.0
1440,61.0,64.0,180.0,12.0,0.0
1441,61.0,32.0,60.0,11.0,0.0
1442,65.0,64.0,60.0,11.0,0.0
1443,46.0,0.0,90.0,14.0,0.0
1444,66.0,0.0,60.0,11.0,0.0
1445,47.0,32.0,90.0,14.0,0.0
1446,63.0,32.0,60.0,11.0,0.0
1447,63.0,0.0,180.0,12.0,0.0
1448,67.0,64.0,60.0,11.0,0.0
1449,59.0,0.0,90.0,14.0,0.0
1450,68.0,64.0,60.0,11.0,0.0
1451,65.0,32.0,60.0,11.0,0.0
1452,61.0,32.0,90.0,14.0,0.0
1453,65.0,64.0,180.0,12.0,0.0
1454,69.0,64.0,60.0,11.0,0.0
1455,49.0,0.0,90.0,14.0,0.0
1456,70.0,0.0,60.0,11.0,0.0
1457,51.0,32.0,90.0,14.0,0.0
1458,66.0,32.0,60.0,11.0,0.0
1459,66.0,64.0,180.0,12.0,0.0
1460,70.0,64.0,60.0,11.0,0.0
1461,63.0,0.0,90.0,14.0,0.0
1462,71.0,0.0,60.0,11.0,0.0
1463,65.0,32.0,90.0,14.0,0.0
1464,68.0,32.0,60.0,11.0,0.0
1465,68.0,64.0,180.0,12.0,0.0
1466,72.0,64.0,60.0,11.0,0.0
1467,53.0,0.0,90.0,14.0,0.0
1468,73.0,0.0,60.0,11.0,0.0
1469,66.0,0.0,180.0,12.0,0.0
1470,70.0,32.0,60.0,11.0,0.0
1471,54.0,32.0,90.0,13.0,0.0
1472,68.0,64.0,60.0,11.0,0.0
1473,64.0,64.0,90.0,13.0,0.0
1474,70.0,0.0,60.0,11.0,0.0
1475,71.0,32.0,60.0,11.0,0.0
1476,66.0,0.0,180.0,12.0,0.0
1477,63.0,32.0,90.0,13.0,0.0
1478,70.0,64.0,60.0,11.0,0.0
1479,62.0,0.0,90.0,13.0,0.0
1480,71.0,64.0,60.0,11.0,0.0
1481,54.0,0.0,15.0,14.0,0.0
1482,61.0,0.0,180.0,13.0,0.0
1483,70.0,32.0,90.0,12.0,0.0
1484,73.0,32.0,60.0,11.0,0.0
1485,72.0,64.0,60.0,11.0,0.0
1486,69.0,64.0,90.0,12.0,0.0
1487,73.0,0.0,60.0,11.0,0.0
1488,75.0,32.0,60.0,11.0,0.0
1489,68.0,32.0,90.0,12.0,0.0
1490,60.0,0.0,180.0,13.0,0.0
1491,74.0,64.0,60.0,11.0,0.0
1492,66.0,64.0,90.0,12.0,0.0
1493,75.0,0.0,60.0,11.0,0.0
1494,65.0,32.0,90.0,12.0,0.0
1495,80.0,32.0,60.0,11.0,0.0
1496,59.0,0.0,390.0,13.0,0.0
1497,54.0,0.0,570.0,14.0,0.0
1498,79.0,64.0,60.0,11.0,0.0
1499,64.0,0.0,90.0,12.0,0.0
1500,80.0,64.0,60.0,11.0,0.0
1501,63.0,32.0,90.0,12.0,0.0
1502,83.0,32.0,60.0,11.0,0.0
1503,80.0,64.0,60.0,11.0,0.0
1504,62.0,64.0,90.0,12.0,0.0
1505,77.0,0.0,60.0,11.0,0.0
1506,78.0,32.0,60.0,11.0,0.0
1507,58.0,0.0,180.0,13.0,0.0
1508,61.0,32.0,90.0,12.0,0.0
1509,77.0,64.0,60.0,11.0,0.0
1510,59.0,0.0,90.0,12.0,0.0
1511,75.0,64.0,60.0,11.0,0.0
1512,73.0,32.0,60.0,11.0,0.0
1513,58.0,32.0,90.0,12.0,0.0
1514,71.0,64.0,60.0,11.0,0.0
1515,54.0,94.0,90.0,12.0,0.0
1516,70.0,0.0,60.0,11.0,0.0
1517,56.0,0.0,90.0,4.0,0.0
1518,68.0,32.0,90.0,12.0,0.0
1519,77.0,2.0,90.0,9.0,0.0
1520,61.0,0.0,90.0,1.0,0.0
1521,42.0,96.0,90.0,14.0,0.0
1522,58.0,0.0,90.0,1.0,0.0
1523,42.0,0.0,90.0,7.0,0.0
1524,66.0,0.0,90.0,12.0,0.0
1525,42.0,62.0,30.0,3.0,0.0
1526,30.0,2.0,90.0,15.0,0.0
1527,54.0,0.0,90.0,4.0,0.0
1528,58.0,32.0,90.0,13.0,0.0
1529,61.0,62.0,30.0,11.0,0.0
1530,65.0,0.0,30.0,11.0,0.0
1531,56.0,0.0,90.0,13.0,0.0
1532,49.0,2.0,90.0,2.0,0.0
1533,65.0,0.0,30.0,0.0,0.0
1534,68.0,0.0,30.0,0.0,0.0
1535,56.0,0.0,90.0,2.0,0.0
1536,53.0,96.0,90.0,2.0,0.0
1537,71.0,0.0,90.0,12.0,0.0
1538,59.0,32.0,90.0,4.0,0.0
1539,70.0,96.0,90.0,12.0,0.0
1540,42.0,0.0,90.0,14.0,0.0
1541,58.0,0.0,90.0,4.0,0.0
1542,61.0,0.0,90.0,1.0,0.0
1543,42.0,0.0,90.0,7.0,0.0
1544,30.0,2.0,90.0,15.0,0.0
1545,66.0,0.0,90.0,1.0,0.0
1546,42.0,62.0,30.0,3.0,0.0
1547,61.0,32.0,90.0,13.0,0.0
1548,78.0,62.0,30.0,0.0,0.0
1549,59.0,94.0,90.0,13.0,0.0
1550,78.0,0.0,30.0,11.0,0.0
1551,51.0,2.0,90.0,2.0,0.0
1552,54.0,0.0,90.0,2.0,0.0
1553,59.0,0.0,90.0,2.0,0.0
1554,71.0,0.0,90.0,12.0,0.0
1555,59.0,32.0,90.0,4.0,0.0
1556,77.0,2.0,90.0,9.0,0.0
1557,25.0,2.0,90.0,15.0,0.0
1558,37.0,62.0,30.0,3.0,0.0
1559,37.0,0.0,90.0,7.0,0.0
1560,61.0,0.0,90.0,1.0,0.0
1561,66.0,0.0,90.0,1.0,0.0
1562,58.0,0.0,90.0,4.0,0.0
1563,37.0,96.0,90.0,14.0,0.0
1564,70.0,0.0,90.0,12.0,0.0
1565,61.0,32.0,90.0,13.0,0.0
1566,65.0,0.0,60.0,0.0,0.0
1567,65.0,0.0,60.0,11.0,0.0
1568,56.0,96.0,90.0,13.0,0.0
1569,73.0,0.0,30.0,11.0,0.0
1570,73.0,62.0,30.0,0.0,0.0
1571,49.0,2.0,90.0,2.0,0.0
1572,56.0,0.0,90.0,2.0,0.0
1573,68.0,32.0,90.0,12.0,0.0
1574,56.0,0.0,90.0,4.0,0.0
1575,58.0,0.0,90.0,4.0,0.0
1576,61.0,0.0,90.0,1.0,0.0
1577,30.0,0.0,90.0,15.0,0.0
1578,42.0,0.0,90.0,7.0,0.0
1579,42.0,96.0,90.0,14.0,0.0
1580,66.0,2.0,90.0,1.0,0.0
1581,42.0,62.0,30.0,3.0,0.0
1582,70.0,0.0,90.0,12.0,0.0
1583,46.0,32.0,90.0,2.0,0.0
1584,54.0,0.0,90.0,2.0,0.0
1585,54.0,0.0,90.0,13.0,0.0
1586,56.0,0.0,90.0,2.0,0.0
1587,65.0,0.0,30.0,11.0,0.0
1588,71.0,62.0,30.0,0.0,0.0
1589,49.0,2.0,90.0,2.0,0.0
1590,56.0,94.0,90.0,13.0,0.0
1591,61.0,0.0,30.0,11.0,0.0
1592,65.0,0.0,30.0,0.0,0.0
1593,77.0,2.0,90.0,9.0,0.0
1594,69.0,32.0,90.0,12.0,0.0
1595,57.0,0.0,90.0,4.0,0.0
1596,42.0,62.0,30.0,3.0,0.0
1597,58.0,0.0,90.0,4.0,0.0
1598,61.0,0.0,90.0,1.0,0.0
1599,70.0,0.0,90.0,12.0,0.0
1600,42.0,0.0,90.0,7.0,0.0
1601,66.0,0.0,90.0,1.0,0.0
1602,30.0,2.0,90.0,15.0,0.0
1603,42.0,96.0,90.0,14.0,0.0
1604,58.0,32.0,90.0,13.0,0.0
1605,59.0,96.0,90.0,2.0,0.0
1606,54.0,0.0,90.0,2.0,0.0
1607,59.0,0.0,90.0,13.0,0.0
1608,51.0,2.0,90.0,2.0,0.0
1609,66.0,0.0,30.0,0.0,0.0
1610,71.0,0.0,30.0,0.0,0.0
1611,71.0,62.0,30.0,11.0,0.0
1612,63.0,0.0,30.0,11.0,0.0
1613,72.0,32.0,90.0,12.0,0.0
1614,60.0,0.0,90.0,4.0,0.0
1615,61.0,0.0,90.0,4.0,0.0
1616,64.0,2.0,90.0,1.0,0.0
1617,70.0,0.0,90.0,1.0,0.0
1618,42.0,0.0,90.0,14.0,0.0
1619,73.0,96.0,90.0,12.0,0.0
1620,42.0,62.0,30.0,3.0,0.0
1621,42.0,0.0,90.0,7.0,0.0
1622,30.0,0.0,90.0,15.0,0.0
1623,61.0,32.0,90.0,13.0,0.0
1624,64.0,62.0,60.0,11.0,0.0
1625,70.0,0.0,60.0,0.0,0.0
1626,78.0,0.0,30.0,0.0,0.0
1627,70.0,0.0,90.0,11.0,0.0
1628,58.0,0.0,90.0,2.0,0.0
1629,62.0,0.0,90.0,13.0,0.0
1630,62.0,94.0,90.0,2.0,0.0
1631,54.0,2.0,90.0,2.0,0.0
1632,74.0,32.0,90.0,12.0,0.0
1633,77.0,2.0,90.0,9.0,0.0
1634,62.0,0.0,90.0,4.0,0.0
1635,71.0,0.0,90.0,1.0,0.0
1636,75.0,0.0,90.0,12.0,0.0
1637,63.0,0.0,90.0,4.0,0.0
1638,47.0,0.0,90.0,7.0,0.0
1639,47.0,62.0,30.0,3.0,0.0
1640,66.0,2.0,90.0,1.0,0.0
1641,35.0,0.0,90.0,15.0,0.0
1642,47.0,96.0,90.0,14.0,0.0
1643,63.0,32.0,90.0,13.0,0.0
1644,71.0,0.0,30.0,0.0,0.0
1645,71.0,0.0,30.0,11.0,0.0
1646,59.0,96.0,90.0,13.0,0.0
1647,66.0,62.0,30.0,11.0,0.0
1648,66.0,0.0,30.0,0.0,0.0
1649,59.0,0.0,90.0,2.0,0.0
1650,51.0,2.0,90.0,2.0,0.0
1651,55.0,32.0,90.0,4.0,0.0
1652,67.0,0.0,90.0,12.0,0.0
1653,37.0,62.0,30.0,3.0,0.0
1654,68.0,96.0,90.0,12.0,0.0
1655,37.0,0.0,90.0,7.0,0.0
1656,37.0,0.0,90.0,14.0,0.0
1657,25.0,0.0,90.0,15.0,0.0
1658,56.0,0.0,90.0,4.0,0.0
1659,59.0,2.0,90.0,1.0,0.0
1660,65.0,0.0,90.0,1.0,0.0
1661,61.0,32.0,90.0,13.0,0.0
1662,56.0,0.0,90.0,2.0,0.0
1663,73.0,0.0,30.0,0.0,0.0
1664,59.0,0.0,30.0,11.0,0.0
1665,65.0,0.0,30.0,0.0,0.0
1666,56.0,0.0,90.0,13.0,0.0
1667,65.0,62.0,30.0,11.0,0.0
1668,49.0,2.0,90.0,2.0,0.0
1669,68.0,0.0,90.0,12.0,0.0
1670,77.0,2.0,90.0,9.0,0.0
1671,56.0,32.0,90.0,4.0,0.0
1672,58.0,0.0,90.0,1.0,0.0
1673,42.0,96.0,90.0,14.0,0.0
1674,66.0,0.0,90.0,12.0,0.0
1675,42.0,62.0,30.0,3.0,0.0
1676,54.0,0.0,90.0,4.0,0.0
1677,61.0,2.0,90.0,1.0,0.0
1678,42.0,0.0,90.0,7.0,0.0
1679,30.0,0.0,90.0,15.0,0.0
1680,58.0,32.0,90.0,13.0,0.0
1681,56.0,0.0,90.0,13.0,0.0
1682,65.0,0.0,30.0,0.0,0.0
1683,53.0,96.0,90.0,2.0,0.0
1684,68.0,0.0,30.0,0.0,0.0
1685,49.0,2.0,90.0,2.0,0.0
1686,56.0,0.0,90.0,2.0,0.0
1687,65.0,0.0,30.0,11.0,0.0
1688,61.0,62.0,30.0,11.0,0.0
1689,59.0,32.0,90.0,4.0,0.0
1690,71.0,0.0,90.0,12.0,0.0
1691,70.0,0.0,90.0,12.0,0.0
1692,61.0,0.0,90.0,1.0,0.0
1693,66.0,0.0,90.0,1.0,0.0
1694,58.0,2.0,90.0,4.0,0.0
1695,42.0,0.0,90.0,7.0,0.0
1696,30.0,0.0,90.0,15.0,0.0
1697,42.0,62.0,30.0,3.0,0.0
1698,42.0,96.0,90.0,14.0,0.0
1699,61.0,32.0,90.0,13.0,0.0
1700,54.0,94.0,90.0,2.0,0.0
1701,78.0,0.0,30.0,0.0,0.0
1702,51.0,2.0,90.0,2.0,0.0
1703,59.0,0.0,90.0,13.0,0.0
1704,78.0,62.0,30.0,11.0,0.0
1705,59.0,0.0,90.0,2.0,0.0
1706,77.0,2.0,90.0,9.0,0.0
1707,59.0,0.0,90.0,4.0,0.0
1708,71.0,32.0,90.0,12.0,0.0
1709,37.0,0.0,90.0,14.0,0.0
1710,25.0,0.0,90.0,15.0,0.0
1711,58.0,0.0,90.0,4.0,0.0
1712,37.0,62.0,30.0,3.0,0.0
1713,70.0,96.0,90.0,12.0,0.0
1714,61.0,0.0,90.0,1.0,0.0
1715,66.0,0.0,90.0,1.0,0.0
1716,37.0,2.0,90.0,7.0,0.0
1717,61.0,32.0,90.0,13.0,0.0
1718,65.0,0.0,60.0,11.0,0.0
1719,65.0,62.0,60.0,0.0,0.0
1720,56.0,0.0,90.0,2.0,0.0
1721,73.0,0.0,30.0,11.0,0.0
1722,56.0,0.0,90.0,13.0,0.0
1723,49.0,2.0,90.0,2.0,0.0
1724,73.0,0.0,30.0,0.0,0.0
1725,68.0,32.0,90.0,12.0,0.0
1726,56.0,0.0,90.0,4.0,0.0
1727,70.0,0.0,90.0,12.0,0.0
1728,61.0,0.0,90.0,1.0,0.0
1729,58.0,0.0,90.0,4.0,0.0
1730,42.0,96.0,90.0,14.0,0.0
1731,66.0,0.0,90.0,1.0,0.0
1732,30.0,2.0,90.0,15.0,0.0
1733,42.0,0.0,90.0,7.0,0.0
1734,42.0,62.0,30.0,3.0,0.0
1735,46.0,0.0,90.0,2.0,0.0
1736,54.0,0.0,90.0,2.0,0.0
1737,54.0,32.0,90.0,13.0,0.0
1738,61.0,0.0,30.0,11.0,0.0
1739,49.0,2.0,90.0,2.0,0.0
1740,65.0,0.0,30.0,11.0,0.0
1741,65.0,62.0,30.0,0.0,0.0
1742,56.0,94.0,90.0,2.0,0.0
1743,56.0,0.0,90.0,13.0,0.0
1744,71.0,0.0,30.0,0.0,0.0
1745,69.0,0.0,90.0,12.0,0.0
1746,77.0,2.0,90.0,9.0,0.0
1747,57.0,32.0,90.0,4.0,0.0
1748,42.0,62.0,30.0,3.0,0.0
1749,58.0,2.0,90.0,4.0,0.0
1750,30.0,0.0,90.0,15.0,0.0
1751,70.0,96.0,90.0,12.0,0.0
1752,42.0,0.0,90.0,14.0,0.0
1753,61.0,0.0,90.0,1.0,0.0
1754,66.0,0.0,90.0,1.0,0.0
1755,42.0,0.0,90.0,7.0,0.0
1756,58.0,32.0,90.0,13.0,0.0
1757,59.0,0.0,90.0,2.0,0.0
1758,54.0,96.0,90.0,2.0,0.0
1759,51.0,2.0,90.0,2.0,0.0
1760,71.0,0.0,30.0,11.0,0.0
1761,63.0,62.0,30.0,11.0,0.0
1762,59.0,0.0,90.0,13.0,0.0
1763,71.0,0.0,30.0,0.0,0.0
1764,66.0,0.0,30.0,0.0,0.0
1765,60.0,0.0,90.0,4.0,0.0
1766,72.0,32.0,90.0,12.0,0.0
1767,42.0,96.0,90.0,14.0,0.0
1768,61.0,0.0,90.0,4.0,0.0
1769,73.0,0.0,90.0,12.0,0.0
1770,30.0,0.0,90.0,15.0,0.0
1771,70.0,0.0,90.0,1.0,0.0
1772,64.0,0.0,90.0,1.0,0.0
1773,42.0,2.0,90.0,7.0,0.0
1774,42.0,62.0,30.0,3.0,0.0
1775,61.0,32.0,90.0,13.0,0.0
1776,70.0,0.0,60.0,0.0,0.0
1777,64.0,62.0,60.0,11.0,0.0
1778,62.0,94.0,90.0,2.0,0.0
1779,58.0,0.0,90.0,2.0,0.0
1780,78.0,0.0,30.0,0.0,0.0
1781,62.0,0.0,90.0,13.0,0.0
1782,54.0,2.0,90.0,2.0,0.0
1783,70.0,0.0,90.0,11.0,0.0
1784,74.0,32.0,90.0,12.0,0.0
1785,77.0,2.0,90.0,9.0,0.0
1786,62.0,0.0,90.0,4.0,0.0
1787,66.0,0.0,90.0,1.0,0.0
1788,47.0,62.0,30.0,3.0,0.0
1789,75.0,96.0,90.0,12.0,0.0
1790,47.0,0.0,90.0,14.0,0.0
1791,35.0,0.0,90.0,15.0,0.0
1792,47.0,0.0,90.0,7.0,0.0
1793,71.0,0.0,90.0,1.0,0.0
1794,63.0,2.0,90.0,4.0,0.0
1795,63.0,32.0,90.0,13.0,0.0
1796,66.0,0.0,30.0,11.0,0.0
1797,71.0,62.0,30.0,11.0,0.0
1798,59.0,96.0,90.0,2.0,0.0
1799,59.0,0.0,90.0,13.0,0.0
1800,51.0,2.0,90.0,2.0,0.0
1801,66.0,0.0,30.0,0.0,0.0
1802,71.0,0.0,30.0,0.0,0.0
1803,67.0,32.0,90.0,12.0,0.0
1804,55.0,0.0,90.0,4.0,0.0
1805,25.0,0.0,90.0,15.0,0.0
1806,65.0,0.0,90.0,1.0,0.0
1807,37.0,96.0,90.0,14.0,0.0
1808,68.0,0.0,90.0,12.0,0.0
1809,56.0,0.0,90.0,4.0,0.0
1810,37.0,62.0,30.0,3.0,0.0
1811,59.0,2.0,90.0,1.0,0.0
1812,37.0,0.0,90.0,7.0,0.0
1813,61.0,32.0,90.0,13.0,0.0
1814,56.0,94.0,90.0,2.0,0.0
1815,59.0,0.0,30.0,11.0,0.0
1816,65.0,0.0,30.0,11.0,0.0
1817,65.0,0.0,30.0,0.0,0.0
1818,56.0,0.0,90.0,13.0,0.0
1819,49.0,2.0,90.0,2.0,0.0
1820,73.0,62.0,30.0,0.0,0.0
1821,77.0,2.0,90.0,9.0,0.0
1822,55.0,32.0,90.0,4.0,0.0
1823,67.0,0.0,90.0,12.0,0.0
1824,65.0,0.0,90.0,1.0,0.0
1825,59.0,2.0,90.0,1.0,0.0
1826,25.0,0.0,90.0,15.0,0.0
1827,37.0,62.0,30.0,3.0,0.0
1828,37.0,0.0,90.0,14.0,0.0
1829,56.0,0.0,90.0,4.0,0.0
1830,37.0,0.0,90.0,7.0,0.0
1831,68.0,96.0,90.0,12.0,0.0
1832,59.0,32.0,90.0,13.0,0.0
1833,66.0,0.0,30.0,0.0,0.0
1834,57.0,0.0,90.0,2.0,0.0
1835,61.0,62.0,30.0,11.0,0.0
1836,69.0,0.0,30.0,0.0,0.0
1837,54.0,96.0,90.0,2.0,0.0
1838,49.0,2.0,90.0,2.0,0.0
1839,69.0,0.0,30.0,11.0,0.0
1840,57.0,0.0,90.0,13.0,0.0
1841,67.0,0.0,90.0,12.0,0.0
1842,55.0,32.0,90.0,4.0,0.0
1843,68.0,96.0,90.0,12.0,0.0
1844,25.0,0.0,90.0,15.0,0.0
1845,37.0,62.0,30.0,3.0,0.0
1846,56.0,0.0,90.0,4.0,0.0
1847,59.0,0.0,90.0,1.0,0.0
1848,65.0,2.0,90.0,1.0,0.0
1849,37.0,0.0,90.0,7.0,0.0
1850,37.0,0.0,90.0,14.0,0.0
1851,59.0,32.0,90.0,13.0,0.0
1852,52.0,0.0,90.0,2.0,0.0
1853,57.0,0.0,90.0,2.0,0.0
1854,69.0,0.0,30.0,0.0,0.0
1855,57.0,94.0,90.0,13.0,0.0
1856,61.0,62.0,30.0,11.0,0.0
1857,49.0,2.0,90.0,2.0,0.0
1858,64.0,0.0,30.0,0.0,0.0
1859,69.0,0.0,30.0,11.0,0.0
1860,70.0,32.0,90.0,12.0,0.0
1861,77.0,2.0,90.0,9.0,0.0
1862,58.0,0.0,90.0,4.0,0.0
1863,59.0,0.0,90.0,4.0,0.0
1864,38.0,62.0,30.0,3.0,0.0
1865,71.0,96.0,90.0,12.0,0.0
1866,38.0,0.0,90.0,7.0,0.0
1867,38.0,0.0,90.0,14.0,0.0
1868,66.0,0.0,90.0,1.0,0.0
1869,26.0,2.0,90.0,15.0,0.0
1870,66.0,32.0,90.0,13.0,0.0
1871,72.0,62.0,30.0,11.0,0.0
1872,66.0,0.0,30.0,11.0,0.0
1873,54.0,0.0,90.0,2.0,0.0
1874,72.0,0.0,30.0,0.0,0.0
1875,54.0,0.0,90.0,13.0,0.0
1876,66.0,0.0,30.0,0.0,0.0
1877,50.0,2.0,90.0,2.0,0.0
1878,63.0,0.0,90.0,4.0,0.0
1879,75.0,32.0,90.0,12.0,0.0
1880,61.0,0.0,90.0,4.0,0.0
1881,73.0,0.0,90.0,12.0,0.0
1882,25.0,0.0,90.0,15.0,0.0
1883,65.0,0.0,90.0,1.0,0.0
1884,37.0,62.0,30.0,3.0,0.0
1885,37.0,96.0,90.0,14.0,0.0
1886,37.0,2.0,90.0,7.0,0.0
1887,68.0,0.0,90.0,1.0,0.0
1888,63.0,32.0,90.0,13.0,0.0
1889,65.0,62.0,30.0,11.0,0.0
1890,73.0,0.0,30.0,11.0,0.0
1891,59.0,0.0,90.0,2.0,0.0
1892,73.0,0.0,30.0,0.0,0.0
1893,56.0,2.0,90.0,2.0,0.0
1894,61.0,94.0,90.0,13.0,0.0
1895,68.0,0.0,30.0,0.0,0.0
1896,61.0,0.0,90.0,2.0,0.0
1897,80.0,32.0,90.0,12.0,0.0
1898,77.0,2.0,90.0,9.0,0.0
1899,68.0,0.0,90.0,4.0,0.0
1900,70.0,0.0,90.0,1.0,0.0
1901,73.0,2.0,90.0,1.0,0.0
1902,76.0,0.0,90.0,1.0,0.0
1903,78.0,96.0,90.0,12.0,0.0
1904,42.0,0.0,90.0,14.0,0.0
1905,42.0,0.0,90.0,7.0,0.0
1906,66.0,0.0,90.0,4.0,0.0
1907,30.0,0.0,90.0,15.0,0.0
1908,42.0,62.0,30.0,3.0,0.0
1909,68.0,32.0,90.0,13.0,0.0
1910,61.0,0.0,90.0,2.0,0.0
1911,66.0,0.0,90.0,13.0,0.0
1912,58.0,2.0,90.0,2.0,0.0
1913,78.0,62.0,30.0,0.0,0.0
1914,70.0,0.0,30.0,0.0,0.0
1915,73.0,0.0,30.0,11.0,0.0
1916,64.0,96.0,90.0,2.0,0.0
1917,76.0,0.0,30.0,11.0,0.0
1918,68.0,32.0,90.0,4.0,0.0
1919,80.0,0.0,90.0,12.0,0.0
1920,78.0,0.0,90.0,12.0,0.0
1921,35.0,0.0,90.0,15.0,0.0
1922,47.0,62.0,30.0,3.0,0.0
1923,47.0,96.0,90.0,14.0,0.0
1924,47.0,0.0,90.0,7.0,0.0
1925,71.0,0.0,90.0,1.0,0.0
1926,75.0,0.0,90.0,1.0,0.0
1927,66.0,2.0,90.0,4.0,0.0
1928,68.0,32.0,90.0,13.0,0.0
1929,71.0,0.0,30.0,0.0,0.0
1930,78.0,0.0,30.0,0.0,0.0
1931,59.0,2.0,90.0,2.0,0.0
1932,66.0,94.0,90.0,2.0,0.0
1933,63.0,0.0,90.0,2.0,0.0
1934,66.0,0.0,90.0,13.0,0.0
1935,71.0,0.0,30.0,11.0,0.0
1936,78.0,62.0,30.0,11.0,0.0
1937,77.0,2.0,90.0,9.0,0.0
1938,65.0,32.0,90.0,4.0,0.0
1939,77.0,0.0,90.0,12.0,0.0
1940,47.0,0.0,90.0,14.0,0.0
1941,66.0,2.0,90.0,1.0,0.0
1942,71.0,0.0,90.0,1.0,0.0
1943,47.0,0.0,90.0,7.0,0.0
1944,75.0,96.0,90.0,12.0,0.0
1945,63.0,0.0,90.0,4.0,0.0
1946,47.0,62.0,30.0,3.0,0.0
1947,35.0,0.0,90.0,15.0,0.0
1948,63.0,32.0,90.0,13.0,0.0
1949,65.0,0.0,60.0,0.0,0.0
1950,61.0,0.0,60.0,11.0,0.0
1951,49.0,2.0,90.0,2.0,0.0
1952,65.0,62.0,30.0,11.0,0.0
1953,59.0,0.0,90.0,2.0,0.0
1954,56.0,0.0,90.0,2.0,0.0
1955,59.0,96.0,90.0,13.0,0.0
1956,73.0,0.0,30.0,0.0,0.0
1957,71.0,32.0,90.0,12.0,0.0
1958,59.0,0.0,90.0,4.0,0.0
1959,30.0,0.0,90.0,15.0,0.0
1960,66.0,0.0,90.0,1.0,0.0
1961,42.0,0.0,90.0,14.0,0.0
1962,61.0,0.0,90.0,1.0,0.0
1963,58.0,0.0,90.0,4.0,0.0
1964,70.0,96.0,90.0,12.0,0.0
1965,42.0,62.0,30.0,3.0,0.0
1966,42.0,2.0,90.0,7.0,0.0
1967,61.0,32.0,90.0,13.0,0.0
1968,73.0,0.0,30.0,0.0,0.0
1969,65.0,0.0,30.0,0.0,0.0
1970,56.0,0.0,90.0,13.0,0.0
1971,65.0,62.0,30.0,11.0,0.0
1972,59.0,0.0,30.0,11.0,0.0
1973,49.0,2.0,90.0,2.0,0.0
1974,55.0,32.0,90.0,4.0,0.0
1975,67.0,0.0,90.0,12.0,0.0
1976,77.0,2.0,90.0,9.0,0.0
1977,68.0,96.0,90.0,12.0,0.0
1978,37.0,0.0,90.0,7.0,0.0
1979,56.0,2.0,90.0,4.0,0.0
1980,65.0,0.0,90.0,1.0,0.0
1981,59.0,0.0,90.0,1.0,0.0
1982,25.0,0.0,90.0,15.0,0.0
1983,37.0,62.0,30.0,3.0,0.0
1984,37.0,0.0,90.0,14.0,0.0
1985,59.0,32.0,90.0,13.0,0.0
1986,69.0,0.0,30.0,11.0,0.0
1987,57.0,96.0,90.0,2.0,0.0
1988,54.0,0.0,90.0,2.0,0.0
1989,49.0,2.0,90.0,2.0,0.0
1990,61.0,62.0,30.0,11.0,0.0
1991,66.0,0.0,30.0,0.0,0.0
1992,69.0,0.0,30.0,0.0,0.0
1993,57.0,0.0,90.0,13.0,0.0
1994,55.0,32.0,90.0,4.0,0.0
1995,67.0,0.0,90.0,12.0,0.0
1996,68.0,96.0,90.0,12.0,0.0
1997,37.0,2.0,90.0,7.0,0.0
1998,25.0,0.0,90.0,15.0,0.0
1999,37.0,62.0,30.0,3.0,0.0
2000,37.0,0.0,90.0,14.0,0.0
2001,65.0,0.0,90.0,1.0,0.0
2002,59.0,0.0,90.0,1.0,0.0
2003,56.0,0.0,90.0,4.0,0.0
2004,59.0,32.0,90.0,13.0,0.0
2005,57.0,0.0,90.0,13.0,0.0
2006,61.0,0.0,30.0,11.0,0.0
2007,69.0,0.0,30.0,11.0,0.0
2008,57.0,0.0,90.0,2.0,0.0
2009,52.0,94.0,90.0,2.0,0.0
2010,64.0,62.0,30.0,0.0,0.0
2011,49.0,2.0,90.0,2.0,0.0
2012,69.0,0.0,30.0,0.0,0.0
2013,77.0,2.0,90.0,9.0,0.0
2014,58.0,0.0,90.0,4.0,0.0
2015,70.0,32.0,90.0,12.0,0.0
2016,66.0,0.0,90.0,1.0,0.0
2017,38.0,96.0,90.0,14.0,0.0
2018,59.0,0.0,90.0,4.0,0.0
2019,38.0,2.0,90.0,7.0,0.0
2020,26.0,0.0,90.0,15.0,0.0
2021,71.0,0.0,90.0,12.0,0.0
2022,38.0,62.0,30.0,3.0,0.0
2023,66.0,32.0,90.0,13.0,0.0
2024,72.0,0.0,30.0,0.0,0.0
2025,66.0,0.0,30.0,0.0,0.0
2026,72.0,0.0,30.0,11.0,0.0
2027,54.0,96.0,90.0,2.0,0.0
2028,50.0,2.0,90.0,2.0,0.0
2029,66.0,62.0,30.0,11.0,0.0
2030,54.0,0.0,90.0,13.0,0.0
2031,63.0,32.0,90.0,4.0,0.0
2032,75.0,0.0,90.0,12.0,0.0
2033,37.0,0.0,90.0,14.0,0.0
2034,25.0,0.0,90.0,15.0,0.0
2035,65.0,0.0,90.0,1.0,0.0
2036,68.0,0.0,90.0,1.0,0.0
2037,37.0,0.0,90.0,7.0,0.0
2038,73.0,96.0,90.0,12.0,0.0
2039,61.0,2.0,90.0,4.0,0.0
2040,37.0,62.0,30.0,3.0,0.0
2041,63.0,32.0,90.0,13.0,0.0
2042,59.0,0.0,90.0,2.0,0.0
2043,61.0,0.0,90.0,2.0,0.0
2044,65.0,0.0,30.0,11.0,0.0
2045,73.0,0.0,30.0,11.0,0.0
2046,56.0,2.0,90.0,2.0,0.0
2047,73.0,62.0,30.0,0.0,0.0
2048,68.0,0.0,30.0,0.0,0.0
2049,61.0,94.0,90.0,13.0,0.0
2050,80.0,0.0,90.0,12.0,0.0
2051,77.0,2.0,90.0,9.0,0.0
2052,68.0,32.0,90.0,4.0,0.0
2053,66.0,0.0,90.0,4.0,0.0
2054,42.0,0.0,90.0,14.0,0.0
2055,42.0,0.0,90.0,7.0,0.0
2056,42.0,62.0,30.0,3.0,0.0
2057,78.0,96.0,90.0,12.0,0.0
2058,76.0,0.0,90.0,1.0,0.0
2059,73.0,0.0,90.0,1.0,0.0
2060,70.0,0.0,90.0,1.0,0.0
2061,30.0,2.0,90.0,15.0,0.0
2062,68.0,32.0,90.0,13.0,0.0
2063,76.0,62.0,30.0,11.0,0.0
2064,70.0,0.0,30.0,0.0,0.0
2065,66.0,0.0,90.0,13.0,0.0
2066,61.0,0.0,90.0,2.0,0.0
2067,58.0,2.0,90.0,2.0,0.0
2068,78.0,0.0,30.0,0.0,0.0
2069,64.0,96.0,90.0,2.0,0.0
2070,73.0,0.0,30.0,11.0,0.0
2071,68.0,32.0,90.0,4.0,0.0
2072,80.0,0.0,90.0,12.0,0.0
2073,71.0,0.0,90.0,1.0,0.0
2074,75.0,0.0,90.0,1.0,0.0
2075,47.0,0.0,90.0,7.0,0.0
2076,47.0,62.0,30.0,3.0,0.0
2077,78.0,96.0,90.0,12.0,0.0
2078,35.0,0.0,90.0,15.0,0.0
2079,47.0,0.0,90.0,14.0,0.0
2080,66.0,2.0,90.0,4.0,0.0
2081,68.0,32.0,90.0,13.0,0.0
2082,71.0,0.0,30.0,0.0,0.0
2083,78.0,0.0,30.0,11.0,0.0
2084,71.0,62.0,30.0,11.0,0.0
2085,63.0,0.0,90.0,2.0,0.0
2086,66.0,94.0,90.0,2.0,0.0
2087,66.0,0.0,90.0,13.0,0.0
2088,59.0,2.0,90.0,2.0,0.0
2089,78.0,0.0,30.0,0.0,0.0
2090,77.0,2.0,90.0,9.0,0.0
2091,77.0,32.0,90.0,12.0,0.0
2092,65.0,0.0,90.0,4.0,0.0
2093,75.0,96.0,90.0,12.0,0.0
2094,47.0,62.0,30.0,3.0,0.0
2095,66.0,0.0,90.0,1.0,0.0
2096,71.0,0.0,90.0,1.0,0.0
2097,35.0,0.0,90.0,15.0,0.0
2098,63.0,0.0,90.0,4.0,0.0
2099,47.0,0.0,90.0,14.0,0.0
2100,47.0,2.0,90.0,7.0,0.0
2101,63.0,32.0,90.0,13.0,0.0
2102,61.0,0.0,60.0,11.0,0.0
2103,65.0,62.0,60.0,0.0,0.0
2104,56.0,0.0,90.0,2.0,0.0
2105,59.0,0.0,90.0,2.0,0.0
2106,73.0,0.0,30.0,0.0,0.0
2107,49.0,2.0,90.0,2.0,0.0
2108,59.0,96.0,90.0,13.0,0.0
2109,65.0,0.0,30.0,11.0,0.0
2110,71.0,0.0,90.0,12.0,0.0
2111,59.0,32.0,90.0,4.0,0.0
2112,70.0,0.0,90.0,12.0,0.0
2113,58.0,0.0,90.0,4.0,0.0
2114,66.0,0.0,90.0,1.0,0.0
2115,42.0,0.0,90.0,7.0,0.0
2116,30.0,0.0,90.0,15.0,0.0
2117,42.0,62.0,30.0,3.0,0.0
2118,42.0,94.0,90.0,14.0,0.0
2119,61.0,2.0,90.0,1.0,0.0
2120,49.0,2.0,90.0,2.0,0.0
2121,58.0,0.0,90.0,13.0,0.0
2122,54.0,94.0,90.0,2.0,0.0
2123,58.0,0.0,90.0,2.0,0.0
2124,37.0,32.0,60.0,15.0,0.0
2125,49.0,0.0,60.0,14.0,0.0
2126,37.0,2.0,60.0,8.0,0.0
2127,42.0,0.0,30.0,7.0,0.0
2128,42.0,0.0,30.0,14.0,0.0
2129,58.0,0.0,30.0,5.0,0.0
2130,42.0,34.0,90.0,8.0,0.0
2131,54.0,0.0,30.0,12.0,0.0
2132,58.0,48.0,30.0,0.0,0.0
2133,58.0,0.0,30.0,11.0,0.0
2134,30.0,0.0,30.0,15.0,0.0
2135,54.0,0.0,30.0,1.0,0.0
2136,42.0,0.0,30.0,6.0,0.0
2137,46.0,0.0,30.0,13.0,0.0
2138,59.0,0.0,30.0,11.0,0.0
2139,47.0,14.0,30.0,13.0,0.0
2140,59.0,0.0,30.0,5.0,0.0
2141,59.0,0.0,30.0,0.0,0.0
2142,49.0,0.0,30.0,13.0,0.0
2143,61.0,0.0,30.0,5.0,0.0
2144,61.0,0.0,30.0,11.0,0.0
2145,61.0,48.0,30.0,0.0,0.0
2146,44.0,0.0,30.0,6.0,0.0
2147,65.0,0.0,30.0,0.0,0.0
2148,53.0,0.0,30.0,13.0,0.0
2149,65.0,0.0,30.0,11.0,0.0
2150,56.0,0.0,30.0,1.0,0.0
2151,59.0,0.0,30.0,12.0,0.0
2152,44.0,0.0,30.0,7.0,0.0
2153,44.0,0.0,30.0,14.0,0.0
2154,53.0,0.0,30.0,5.0,0.0
2155,65.0,0.0,30.0,5.0,0.0
2156,32.0,0.0,30.0,15.0,0.0
2157,65.0,48.0,30.0,12.0,0.0
2158,42.0,34.0,90.0,8.0,0.0
2159,46.0,0.0,30.0,14.0,0.0
2160,58.0,0.0,30.0,12.0,0.0
2161,66.0,0.0,30.0,0.0,0.0
2162,34.0,48.0,30.0,15.0,0.0
2163,46.0,0.0,30.0,7.0,0.0
2164,54.0,0.0,30.0,13.0,0.0
2165,54.0,0.0,30.0,5.0,0.0
2166,66.0,0.0,30.0,5.0,0.0
2167,66.0,0.0,30.0,11.0,0.0
2168,46.0,0.0,30.0,6.0,0.0
2169,58.0,0.0,30.0,1.0,0.0
2170,68.0,14.0,30.0,5.0,0.0
2171,68.0,0.0,30.0,11.0,0.0
2172,56.0,0.0,30.0,5.0,0.0
2173,56.0,0.0,30.0,13.0,0.0
2174,68.0,0.0,30.0,0.0,0.0
2175,70.0,0.0,30.0,0.0,0.0
2176,58.0,48.0,30.0,5.0,0.0
2177,70.0,0.0,30.0,5.0,0.0
2178,70.0,0.0,30.0,11.0,0.0
2179,58.0,0.0,30.0,13.0,0.0
2180,51.0,0.0,30.0,7.0,0.0
2181,71.0,0.0,30.0,11.0,0.0
2182,51.0,0.0,30.0,6.0,0.0
2183,54.0,0.0,30.0,13.0,0.0
2184,71.0,34.0,60.0,0.0,0.0
2185,39.0,0.0,30.0,15.0,0.0
2186,71.0,0.0,30.0,5.0,0.0
2187,63.0,14.0,30.0,1.0,0.0
2188,59.0,0.0,30.0,5.0,0.0
2189,51.0,0.0,30.0,14.0,0.0
2190,54.0,0.0,30.0,1.0,0.0
2191,66.0,0.0,30.0,12.0,0.0
2192,70.0,0.0,30.0,11.0,0.0
2193,58.0,0.0,30.0,13.0,0.0
2194,70.0,0.0,30.0,5.0,0.0
2195,49.0,0.0,30.0,6.0,0.0
2196,37.0,0.0,30.0,15.0,0.0
2197,61.0,0.0,30.0,1.0,0.0
2198,58.0,0.0,30.0,5.0,0.0
2199,49.0,0.0,30.0,7.0,0.0
2200,42.0,0.0,90.0,8.0,0.0
2201,49.0,0.0,30.0,14.0,0.0
2202,61.0,14.0,30.0,12.0,0.0
2203,70.0,34.0,60.0,0.0,0.0
2204,71.0,34.0,60.0,0.0,0.0
2205,59.0,0.0,30.0,5.0,0.0
2206,71.0,0.0,30.0,5.0,0.0
2207,59.0,0.0,30.0,13.0,0.0
2208,66.0,0.0,30.0,5.0,0.0
2209,71.0,14.0,30.0,11.0,0.0
2210,25.0,0.0,30.0,15.0,0.0
2211,68.0,0.0,30.0,5.0,0.0
2212,56.0,0.0,30.0,5.0,0.0
2213,59.0,0.0,30.0,5.0,0.0
2214,56.0,0.0,30.0,13.0,0.0
2215,37.0,0.0,30.0,7.0,0.0
2216,65.0,0.0,30.0,12.0,0.0
2217,37.0,0.0,30.0,14.0,0.0
2218,68.0,14.0,30.0,11.0,0.0
2219,37.0,34.0,90.0,8.0,0.0
2220,37.0,0.0,30.0,6.0,0.0
2221,68.0,34.0,60.0,0.0,0.0
2222,70.0,0.0,60.0,0.0,0.0
2223,58.0,0.0,30.0,5.0,0.0
2224,70.0,0.0,30.0,5.0,0.0
2225,58.0,0.0,30.0,13.0,0.0
2226,70.0,14.0,30.0,11.0,0.0
2227,54.0,0.0,30.0,1.0,0.0
2228,42.0,0.0,30.0,7.0,0.0
2229,30.0,0.0,30.0,15.0,0.0
2230,42.0,0.0,30.0,6.0,0.0
2231,42.0,0.0,30.0,14.0,0.0
2232,66.0,0.0,30.0,11.0,0.0
2233,66.0,0.0,30.0,5.0,0.0
2234,54.0,0.0,30.0,13.0,0.0
2235,42.0,0.0,90.0,8.0,0.0
2236,54.0,0.0,30.0,5.0,0.0
2237,66.0,34.0,60.0,0.0,0.0
2238,58.0,14.0,30.0,5.0,0.0
2239,61.0,0.0,30.0,12.0,0.0
2240,68.0,0.0,30.0,11.0,0.0
2241,56.0,0.0,30.0,5.0,0.0
2242,56.0,0.0,30.0,13.0,0.0
2243,68.0,14.0,30.0,5.0,0.0
2244,68.0,34.0,60.0,0.0,0.0
2245,70.0,0.0,30.0,5.0,0.0
2246,58.0,0.0,30.0,13.0,0.0
2247,70.0,0.0,30.0,11.0,0.0
2248,58.0,14.0,30.0,5.0,0.0
2249,70.0,34.0,60.0,0.0,0.0
2250,66.0,0.0,30.0,5.0,0.0
2251,59.0,0.0,30.0,5.0,0.0
2252,71.0,34.0,60.0,0.0,0.0
2253,39.0,0.0,30.0,15.0,0.0
2254,71.0,0.0,30.0,5.0,0.0
2255,71.0,0.0,30.0,11.0,0.0
2256,66.0,0.0,30.0,12.0,0.0
2257,51.0,0.0,30.0,6.0,0.0
2258,51.0,0.0,30.0,14.0,0.0
2259,37.0,0.0,60.0,8.0,0.0
2260,63.0,0.0,30.0,1.0,0.0
2261,59.0,0.0,30.0,13.0,0.0
2262,51.0,14.0,30.0,7.0,0.0
2263,49.0,14.0,30.0,14.0,0.0
2264,70.0,0.0,30.0,11.0,0.0
2265,58.0,34.0,60.0,1.0,0.0
2266,37.0,0.0,30.0,15.0,0.0
2267,70.0,0.0,30.0,5.0,0.0
2268,58.0,0.0,30.0,5.0,0.0
2269,49.0,0.0,30.0,6.0,0.0
2270,42.0,0.0,90.0,8.0,0.0
2271,61.0,0.0,30.0,12.0,0.0
2272,70.0,0.0,60.0,0.0,0.0
2273,49.0,0.0,30.0,7.0,0.0
2274,58.0,0.0,30.0,13.0,0.0
2275,71.0,0.0,30.0,11.0,0.0
2276,59.0,14.0,30.0,13.0,0.0
2277,71.0,34.0,60.0,0.0,0.0
2278,71.0,0.0,30.0,5.0,0.0
2279,59.0,0.0,30.0,5.0,0.0
2280,59.0,0.0,60.0,1.0,0.0
2281,65.0,0.0,30.0,5.0,0.0
2282,56.0,0.0,30.0,5.0,0.0
2283,37.0,14.0,30.0,6.0,0.0
2284,37.0,0.0,30.0,14.0,0.0
2285,68.0,0.0,60.0,0.0,0.0
2286,37.0,0.0,90.0,8.0,0.0
2287,25.0,0.0,30.0,15.0,0.0
2288,56.0,0.0,60.0,1.0,0.0
2289,59.0,34.0,60.0,1.0,0.0
2290,68.0,0.0,30.0,11.0,0.0
2291,56.0,0.0,30.0,13.0,0.0
2292,65.0,0.0,30.0,12.0,0.0
2293,68.0,0.0,30.0,5.0,0.0
2294,37.0,0.0,30.0,7.0,0.0
2295,70.0,0.0,30.0,5.0,0.0
2296,58.0,0.0,60.0,1.0,0.0
2297,70.0,34.0,60.0,0.0,0.0
2298,58.0,0.0,30.0,5.0,0.0
2299,70.0,14.0,30.0,11.0,0.0
2300,58.0,0.0,30.0,13.0,0.0
2301,42.0,34.0,90.0,8.0,0.0
2302,42.0,0.0,30.0,14.0,0.0
2303,54.0,34.0,60.0,1.0,0.0
2304,58.0,0.0,60.0,1.0,0.0
2305,66.0,0.0,30.0,11.0,0.0
2306,54.0,0.0,30.0,13.0,0.0
2307,42.0,0.0,30.0,7.0,0.0
2308,30.0,0.0,30.0,15.0,0.0
2309,61.0,0.0,30.0,12.0,0.0
2310,66.0,0.0,60.0,0.0,0.0
2311,42.0,0.0,30.0,6.0,0.0
2312,54.0,0.0,30.0,5.0,0.0
2313,58.0,0.0,30.0,5.0,0.0
2314,66.0,14.0,30.0,5.0,0.0
2315,56.0,0.0,60.0,1.0,0.0
2316,56.0,0.0,30.0,13.0,0.0
2317,56.0,0.0,30.0,5.0,0.0
2318,68.0,0.0,60.0,0.0,0.0
2319,68.0,0.0,30.0,11.0,0.0
2320,68.0,14.0,30.0,5.0,0.0
2321,70.0,0.0,30.0,5.0,0.0
2322,70.0,0.0,60.0,0.0,0.0
2323,58.0,34.0,60.0,1.0,0.0
2324,58.0,0.0,30.0,5.0,0.0
2325,70.0,14.0,30.0,11.0,0.0
2326,58.0,0.0,30.0,13.0,0.0
2327,41.0,0.0,30.0,14.0,0.0
2328,65.0,0.0,60.0,0.0,0.0
2329,41.0,0.0,30.0,6.0,0.0
2330,29.0,0.0,30.0,15.0,0.0
2331,41.0,14.0,30.0,7.0,0.0
2332,65.0,34.0,60.0,1.0,0.0
2333,53.0,0.0,30.0,5.0,0.0
2334,53.0,0.0,30.0,13.0,0.0
2335,65.0,0.0,30.0,11.0,0.0
2336,65.0,0.0,30.0,5.0,0.0
2337,58.0,0.0,30.0,5.0,0.0
2338,46.0,0.0,30.0,14.0,0.0
2339,46.0,14.0,30.0,7.0,0.0
2340,70.0,0.0,30.0,5.0,0.0
2341,58.0,0.0,30.0,13.0,0.0
2342,70.0,0.0,30.0,11.0,0.0
2343,34.0,0.0,30.0,15.0,0.0
2344,70.0,0.0,60.0,1.0,0.0
2345,70.0,34.0,60.0,0.0,0.0
2346,46.0,0.0,30.0,6.0,0.0
2347,72.0,0.0,30.0,5.0,0.0
2348,60.0,14.0,30.0,13.0,0.0
2349,72.0,0.0,60.0,1.0,0.0
2350,60.0,0.0,30.0,5.0,0.0
2351,72.0,0.0,30.0,11.0,0.0
2352,72.0,34.0,60.0,0.0,0.0
2353,73.0,0.0,30.0,11.0,0.0
2354,73.0,0.0,30.0,5.0,0.0
2355,61.0,0.0,30.0,5.0,0.0
2356,61.0,14.0,30.0,13.0,0.0
2357,73.0,34.0,60.0,0.0,0.0
2358,73.0,0.0,60.0,1.0,0.0
2359,44.0,14.0,30.0,6.0,0.0
2360,68.0,34.0,60.0,1.0,0.0
2361,56.0,0.0,30.0,13.0,0.0
2362,68.0,0.0,30.0,11.0,0.0
2363,68.0,0.0,30.0,5.0,0.0
2364,68.0,0.0,60.0,0.0,0.0
2365,44.0,0.0,30.0,7.0,0.0
2366,32.0,0.0,30.0,15.0,0.0
2367,44.0,0.0,30.0,14.0,0.0
2368,56.0,0.0,30.0,5.0,0.0
2369,61.0,0.0,30.0,5.0,0.0
2370,73.0,0.0,30.0,11.0,0.0
2371,49.0,0.0,30.0,7.0,0.0
2372,73.0,0.0,60.0,1.0,0.0
2373,49.0,14.0,30.0,6.0,0.0
2374,73.0,34.0,60.0,0.0,0.0
2375,73.0,0.0,30.0,5.0,0.0
2376,49.0,0.0,30.0,14.0,0.0
2377,37.0,0.0,30.0,15.0,0.0
2378,61.0,0.0,30.0,13.0,0.0
2379,75.0,0.0,30.0,5.0,0.0
2380,63.0,0.0,30.0,5.0,0.0
2381,75.0,34.0,60.0,0.0,0.0
2382,75.0,0.0,60.0,1.0,0.0
2383,75.0,0.0,30.0,11.0,0.0
2384,63.0,14.0,30.0,13.0,0.0
2385,77.0,34.0,60.0,1.0,0.0
2386,77.0,0.0,30.0,11.0,0.0
2387,77.0,14.0,30.0,5.0,0.0
2388,77.0,0.0,60.0,0.0,0.0
2389,65.0,0.0,30.0,13.0,0.0
2390,65.0,0.0,30.0,5.0,0.0
2391,70.0,34.0,60.0,1.0,0.0
2392,58.0,0.0,30.0,5.0,0.0
2393,62.0,0.0,30.0,5.0,0.0
2394,34.0,0.0,30.0,15.0,0.0
2395,70.0,0.0,60.0,0.0,0.0
2396,46.0,0.0,30.0,7.0,0.0
2397,58.0,0.0,30.0,13.0,0.0
2398,62.0,0.0,30.0,12.0,0.0
2399,70.0,14.0,30.0,11.0,0.0
2400,70.0,0.0,30.0,5.0,0.0
2401,46.0,0.0,30.0,6.0,0.0
2402,46.0,0.0,30.0,14.0,0.0
2403,51.0,14.0,30.0,7.0,0.0
2404,51.0,0.0,30.0,6.0,0.0
2405,75.0,0.0,30.0,11.0,0.0
2406,75.0,0.0,30.0,5.0,0.0
2407,63.0,0.0,30.0,12.0,0.0
2408,75.0,0.0,60.0,1.0,0.0
2409,63.0,0.0,30.0,5.0,0.0
2410,51.0,0.0,30.0,14.0,0.0
2411,75.0,34.0,60.0,0.0,0.0
2412,63.0,0.0,30.0,13.0,0.0
2413,39.0,0.0,30.0,15.0,0.0
2414,77.0,0.0,60.0,1.0,0.0
2415,65.0,0.0,30.0,12.0,0.0
2416,77.0,34.0,60.0,5.0,0.0
2417,77.0,0.0,60.0,0.0,0.0
2418,65.0,0.0,60.0,5.0,0.0
2419,65.0,14.0,30.0,13.0,0.0
2420,77.0,0.0,30.0,11.0,0.0
2421,66.0,0.0,60.0,5.0,0.0
2422,78.0,0.0,60.0,5.0,0.0
2423,66.0,14.0,30.0,13.0,0.0
2424,66.0,0.0,30.0,12.0,0.0
2425,78.0,0.0,60.0,0.0,0.0
2426,78.0,34.0,60.0,1.0,0.0
2427,78.0,0.0,30.0,11.0,0.0
2428,70.0,0.0,30.0,12.0,0.0
2429,82.0,0.0,60.0,0.0,0.0
2430,82.0,0.0,30.0,11.0,0.0
2431,53.0,0.0,30.0,7.0,0.0
2432,80.0,34.0,60.0,1.0,0.0
2433,53.0,0.0,30.0,6.0,0.0
2434,41.0,0.0,30.0,15.0,0.0
2435,53.0,0.0,30.0,14.0,0.0
2436,74.0,0.0,60.0,1.0,0.0
2437,70.0,14.0,30.0,13.0,0.0
2438,75.0,0.0,60.0,1.0,0.0
2439,54.0,14.0,30.0,14.0,0.0
2440,75.0,0.0,30.0,12.0,0.0
2441,87.0,34.0,60.0,0.0,0.0
2442,42.0,0.0,30.0,15.0,0.0
2443,54.0,0.0,30.0,6.0,0.0
2444,87.0,0.0,30.0,11.0,0.0
2445,54.0,0.0,30.0,7.0,0.0
2446,77.0,0.0,30.0,12.0,0.0
2447,77.0,0.0,60.0,1.0,0.0
2448,89.0,34.0,60.0,0.0,0.0
2449,89.0,14.0,30.0,11.0,0.0
2450,78.0,34.0,60.0,1.0,0.0
2451,90.0,14.0,30.0,11.0,0.0
2452,90.0,0.0,60.0,0.0,0.0
2453,78.0,0.0,30.0,12.0,0.0
2454,59.0,14.0,30.0,6.0,0.0
2455,47.0,0.0,30.0,15.0,0.0
2456,59.0,0.0,30.0,7.0,0.0
2457,59.0,0.0,30.0,14.0,0.0
2458,75.0,0.0,30.0,12.0,0.0
2459,75.0,34.0,60.0,1.0,0.0
2460,87.0,0.0,30.0,11.0,0.0
2461,37.0,0.0,60.0,8.0,0.0
2462,87.0,0.0,60.0,0.0,0.0
2463,46.0,14.0,30.0,15.0,0.0
2464,73.0,0.0,30.0,12.0,0.0
2465,73.0,0.0,60.0,1.0,0.0
2466,58.0,0.0,30.0,7.0,0.0
2467,42.0,0.0,90.0,8.0,0.0
2468,85.0,34.0,60.0,0.0,0.0
2469,58.0,0.0,30.0,14.0,0.0
2470,85.0,0.0,30.0,11.0,0.0
2471,58.0,0.0,30.0,6.0,0.0
2472,75.0,0.0,60.0,1.0,0.0
2473,87.0,14.0,30.0,11.0,0.0
2474,87.0,34.0,60.0,0.0,0.0
2475,75.0,0.0,30.0,12.0,0.0
2476,56.0,0.0,30.0,14.0,0.0
2477,56.0,0.0,30.0,7.0,0.0
2478,71.0,34.0,60.0,1.0,0.0
2479,83.0,0.0,60.0,0.0,0.0
2480,83.0,14.0,30.0,11.0,0.0
2481,44.0,0.0,30.0,15.0,0.0
2482,71.0,0.0,30.0,12.0,0.0
2483,56.0,0.0,30.0,6.0,0.0
2484,73.0,0.0,30.0,12.0,0.0
2485,85.0,14.0,30.0,11.0,0.0
2486,85.0,34.0,60.0,0.0,0.0
2487,73.0,0.0,60.0,1.0,0.0
2488,82.0,34.0,60.0,0.0,0.0
2489,70.0,0.0,60.0,1.0,0.0
2490,42.0,0.0,90.0,8.0,0.0
2491,54.0,0.0,150.0,6.0,0.0
2492,54.0,0.0,150.0,14.0,0.0
2493,70.0,0.0,30.0,12.0,0.0
2494,54.0,0.0,150.0,7.0,0.0
2495,82.0,14.0,30.0,11.0,0.0
2496,42.0,34.0,150.0,15.0,0.0
2497,68.0,0.0,30.0,12.0,0.0
2498,80.0,14.0,30.0,11.0,0.0
2499,80.0,34.0,60.0,0.0,0.0
2500,68.0,0.0,60.0,1.0,0.0
2501,78.0,0.0,60.0,0.0,0.0
2502,66.0,0.0,30.0,12.0,0.0
2503,78.0,14.0,30.0,11.0,0.0
2504,66.0,0.0,60.0,1.0,0.0
2505,75.0,0.0,30.0,5.0,0.0
2506,75.0,0.0,30.0,11.0,0.0
2507,75.0,34.0,60.0,0.0,0.0
2508,63.0,0.0,30.0,12.0,0.0
2509,35.0,0.0,30.0,15.0,0.0
2510,47.0,0.0,30.0,7.0,0.0
2511,63.0,0.0,30.0,13.0,0.0
2512,47.0,0.0,30.0,14.0,0.0
2513,37.0,0.0,60.0,8.0,0.0
2514,66.0,0.0,60.0,1.0,0.0
2515,63.0,0.0,60.0,1.0,0.0
2516,66.0,0.0,30.0,5.0,0.0
2517,63.0,0.0,30.0,5.0,0.0
2518,47.0,14.0,30.0,6.0,0.0
2519,34.0,0.0,30.0,15.0,0.0
2520,46.0,0.0,30.0,14.0,0.0
2521,61.0,0.0,30.0,12.0,0.0
2522,46.0,0.0,30.0,7.0,0.0
2523,61.0,0.0,60.0,1.0,0.0
2524,61.0,14.0,30.0,5.0,0.0
2525,73.0,34.0,60.0,0.0,0.0
2526,42.0,0.0,90.0,8.0,0.0
2527,73.0,0.0,30.0,5.0,0.0
2528,61.0,0.0,30.0,13.0,0.0
2529,73.0,0.0,30.0,11.0,0.0
2530,46.0,0.0,30.0,6.0,0.0
2531,75.0,14.0,30.0,11.0,0.0
2532,75.0,0.0,60.0,0.0,0.0
2533,63.0,0.0,30.0,12.0,0.0
2534,75.0,0.0,30.0,5.0,0.0
2535,63.0,0.0,30.0,13.0,0.0
2536,63.0,0.0,30.0,5.0,0.0
2537,63.0,34.0,60.0,1.0,0.0
2538,59.0,0.0,30.0,5.0,0.0
2539,65.0,0.0,30.0,5.0,0.0
2540,37.0,34.0,90.0,8.0,0.0
2541,44.0,0.0,30.0,7.0,0.0
2542,59.0,0.0,30.0,13.0,0.0
2543,71.0,34.0,60.0,0.0,0.0
2544,71.0,0.0,30.0,5.0,0.0
2545,44.0,0.0,30.0,14.0,0.0
2546,59.0,0.0,60.0,1.0,0.0
2547,65.0,0.0,30.0,12.0,0.0
2548,32.0,0.0,30.0,15.0,0.0
2549,44.0,14.0,30.0,6.0,0.0
2550,71.0,0.0,30.0,11.0,0.0
2551,61.0,14.0,30.0,13.0,0.0
2552,73.0,0.0,60.0,0.0,0.0
2553,73.0,0.0,30.0,11.0,0.0
2554,61.0,0.0,60.0,1.0,0.0
2555,73.0,0.0,30.0,5.0,0.0
2556,61.0,0.0,30.0,5.0,0.0
2557,66.0,0.0,30.0,12.0,0.0
2558,42.0,0.0,150.0,6.0,0.0
2559,30.0,0.0,150.0,15.0,0.0
2560,58.0,0.0,60.0,1.0,0.0
2561,70.0,34.0,60.0,0.0,0.0
2562,70.0,0.0,30.0,5.0,0.0
2563,42.0,0.0,90.0,8.0,0.0
2564,42.0,0.0,150.0,7.0,0.0
2565,42.0,0.0,150.0,14.0,0.0
2566,70.0,0.0,30.0,11.0,0.0
2567,66.0,0.0,30.0,5.0,0.0
2568,58.0,14.0,30.0,13.0,0.0
2569,58.0,0.0,30.0,5.0,0.0
2570,68.0,14.0,30.0,11.0,0.0
2571,56.0,24.0,60.0,1.0,0.0
2572,56.0,0.0,30.0,5.0,0.0
2573,68.0,0.0,60.0,0.0,0.0
2574,56.0,0.0,30.0,13.0,0.0
2575,68.0,0.0,30.0,5.0,0.0
2576,54.0,0.0,30.0,5.0,0.0
2577,66.0,0.0,30.0,5.0,0.0
2578,42.0,10.0,20.0,8.0,0.0
2579,66.0,0.0,60.0,0.0,0.0
2580,54.0,24.0,60.0,1.0,0.0
2581,54.0,14.0,30.0,13.0,0.0
2582,66.0,0.0,30.0,11.0,0.0
2583,42.0,0.0,20.0,8.0,0.0
2584,70.0,0.0,30.0,11.0,0.0
2585,42.0,10.0,20.0,8.0,0.0
2586,66.0,14.0,30.0,5.0,0.0
2587,34.0,0.0,30.0,6.0,0.0
2588,58.0,0.0,60.0,1.0,0.0
2589,34.0,0.0,30.0,7.0,0.0
2590,22.0,0.0,30.0,15.0,0.0
2591,70.0,96.0,60.0,0.0,0.0
2592,58.0,0.0,30.0,5.0,0.0
2593,70.0,0.0,30.0,5.0,0.0
2594,34.0,0.0,30.0,14.0,0.0
2595,58.0,0.0,30.0,13.0,0.0
2596,66.0,0.0,30.0,12.0,0.0
2597,42.0,0.0,20.0,8.0,0.0
2598,37.0,0.0,150.0,14.0,0.0
2599,42.0,66.0,90.0,8.0,0.0
2600,25.0,0.0,150.0,15.0,0.0
2601,37.0,0.0,150.0,7.0,0.0
2602,68.0,0.0,150.0,5.0,0.0
2603,56.0,0.0,150.0,13.0,0.0
2604,56.0,0.0,150.0,5.0,0.0
2605,68.0,0.0,150.0,11.0,0.0
2606,65.0,174.0,150.0,12.0,0.0
2607,68.0,0.0,150.0,12.0,0.0
2608,37.0,0.0,150.0,6.0,0.0
2609,65.0,0.0,150.0,5.0,0.0
2610,56.0,0.0,150.0,1.0,0.0
2611,68.0,0.0,150.0,0.0,0.0
2612,49.0,32.0,60.0,14.0,0.0
2613,37.0,2.0,60.0,8.0,0.0
2614,37.0,0.0,60.0,15.0,0.0
2615,58.0,0.0,30.0,11.0,0.0
2616,54.0,48.0,30.0,12.0,0.0
2617,30.0,0.0,30.0,15.0,0.0
2618,42.0,0.0,30.0,14.0,0.0
2619,46.0,0.0,30.0,13.0,0.0
2620,42.0,0.0,30.0,6.0,0.0
2621,42.0,0.0,30.0,7.0,0.0
2622,58.0,0.0,30.0,0.0,0.0
2623,54.0,0.0,30.0,1.0,0.0
2624,58.0,0.0,30.0,5.0,0.0
2625,42.0,34.0,90.0,8.0,0.0
2626,59.0,0.0,30.0,0.0,0.0
2627,59.0,0.0,30.0,11.0,0.0
2628,59.0,0.0,30.0,5.0,0.0
2629,47.0,14.0,30.0,13.0,0.0
2630,61.0,0.0,30.0,5.0,0.0
2631,61.0,0.0,30.0,11.0,0.0
2632,61.0,48.0,30.0,0.0,0.0
2633,49.0,0.0,30.0,13.0,0.0
2634,65.0,0.0,30.0,0.0,0.0
2635,44.0,0.0,30.0,14.0,0.0
2636,65.0,0.0,30.0,12.0,0.0
2637,44.0,0.0,30.0,7.0,0.0
2638,53.0,0.0,30.0,13.0,0.0
2639,59.0,0.0,30.0,12.0,0.0
2640,65.0,48.0,30.0,11.0,0.0
2641,56.0,0.0,30.0,1.0,0.0
2642,65.0,0.0,30.0,5.0,0.0
2643,44.0,0.0,30.0,6.0,0.0
2644,53.0,0.0,30.0,5.0,0.0
2645,32.0,0.0,30.0,15.0,0.0
2646,54.0,0.0,30.0,5.0,0.0
2647,46.0,0.0,30.0,6.0,0.0
2648,46.0,0.0,30.0,14.0,0.0
2649,58.0,0.0,30.0,12.0,0.0
2650,46.0,0.0,30.0,7.0,0.0
2651,34.0,0.0,30.0,15.0,0.0
2652,66.0,0.0,30.0,0.0,0.0
2653,66.0,0.0,30.0,5.0,0.0
2654,54.0,0.0,30.0,13.0,0.0
2655,66.0,48.0,30.0,11.0,0.0
2656,58.0,0.0,30.0,1.0,0.0
2657,42.0,34.0,90.0,8.0,0.0
2658,56.0,0.0,30.0,13.0,0.0
2659,68.0,14.0,30.0,0.0,0.0
2660,68.0,0.0,30.0,11.0,0.0
2661,56.0,0.0,30.0,5.0,0.0
2662,68.0,0.0,30.0,5.0,0.0
2663,58.0,0.0,30.0,13.0,0.0
2664,58.0,0.0,30.0,5.0,0.0
2665,70.0,0.0,30.0,5.0,0.0
2666,70.0,0.0,30.0,0.0,0.0
2667,70.0,48.0,30.0,11.0,0.0
2668,59.0,0.0,30.0,5.0,0.0
2669,51.0,0.0,30.0,14.0,0.0
2670,63.0,0.0,30.0,1.0,0.0
2671,71.0,0.0,30.0,11.0,0.0
2672,51.0,0.0,30.0,6.0,0.0
2673,71.0,0.0,30.0,5.0,0.0
2674,66.0,14.0,30.0,12.0,0.0
2675,39.0,0.0,30.0,15.0,0.0
2676,54.0,0.0,30.0,13.0,0.0
2677,51.0,0.0,30.0,7.0,0.0
2678,54.0,0.0,30.0,1.0,0.0
2679,71.0,34.0,60.0,0.0,0.0
2680,70.0,34.0,60.0,0.0,0.0
2681,49.0,0.0,30.0,6.0,0.0
2682,58.0,14.0,30.0,5.0,0.0
2683,61.0,0.0,30.0,12.0,0.0
2684,70.0,0.0,30.0,5.0,0.0
2685,42.0,0.0,90.0,8.0,0.0
2686,37.0,0.0,30.0,15.0,0.0
2687,49.0,0.0,30.0,7.0,0.0
2688,61.0,0.0,30.0,1.0,0.0
2689,58.0,0.0,30.0,13.0,0.0
2690,49.0,0.0,30.0,14.0,0.0
2691,70.0,0.0,30.0,11.0,0.0
2692,59.0,0.0,30.0,5.0,0.0
2693,71.0,0.0,30.0,5.0,0.0
2694,71.0,34.0,60.0,0.0,0.0
2695,66.0,14.0,30.0,5.0,0.0
2696,59.0,0.0,30.0,13.0,0.0
2697,71.0,0.0,30.0,11.0,0.0
2698,37.0,0.0,90.0,8.0,0.0
2699,68.0,0.0,30.0,5.0,0.0
2700,59.0,0.0,30.0,5.0,0.0
2701,56.0,0.0,30.0,13.0,0.0
2702,56.0,14.0,30.0,5.0,0.0
2703,37.0,0.0,30.0,6.0,0.0
2704,68.0,34.0,60.0,0.0,0.0
2705,65.0,0.0,30.0,12.0,0.0
2706,68.0,0.0,30.0,11.0,0.0
2707,37.0,0.0,30.0,14.0,0.0
2708,37.0,0.0,30.0,7.0,0.0
2709,25.0,0.0,30.0,15.0,0.0
2710,70.0,0.0,30.0,11.0,0.0
2711,70.0,0.0,30.0,5.0,0.0
2712,70.0,34.0,60.0,0.0,0.0
2713,58.0,14.0,30.0,13.0,0.0
2714,58.0,0.0,30.0,5.0,0.0
2715,42.0,0.0,30.0,6.0,0.0
2716,66.0,0.0,30.0,11.0,0.0
2717,66.0,34.0,60.0,0.0,0.0
2718,54.0,0.0,30.0,1.0,0.0
2719,61.0,0.0,30.0,12.0,0.0
2720,54.0,0.0,30.0,13.0,0.0
2721,58.0,0.0,30.0,5.0,0.0
2722,54.0,0.0,30.0,5.0,0.0
2723,42.0,0.0,30.0,14.0,0.0
2724,30.0,14.0,30.0,15.0,0.0
2725,42.0,0.0,30.0,7.0,0.0
2726,42.0,34.0,90.0,8.0,0.0
2727,66.0,0.0,30.0,5.0,0.0
2728,68.0,0.0,60.0,0.0,0.0
2729,56.0,0.0,30.0,13.0,0.0
2730,68.0,0.0,30.0,11.0,0.0
2731,56.0,14.0,30.0,5.0,0.0
2732,68.0,0.0,30.0,5.0,0.0
2733,70.0,14.0,30.0,11.0,0.0
2734,58.0,0.0,30.0,13.0,0.0
2735,70.0,34.0,60.0,0.0,0.0
2736,58.0,0.0,30.0,5.0,0.0
2737,70.0,0.0,30.0,5.0,0.0
2738,66.0,0.0,30.0,5.0,0.0
2739,59.0,0.0,30.0,5.0,0.0
2740,39.0,14.0,30.0,15.0,0.0
2741,66.0,0.0,30.0,12.0,0.0
2742,63.0,0.0,30.0,1.0,0.0
2743,37.0,34.0,60.0,8.0,0.0
2744,71.0,0.0,30.0,11.0,0.0
2745,51.0,0.0,30.0,14.0,0.0
2746,71.0,0.0,30.0,5.0,0.0
2747,71.0,0.0,60.0,0.0,0.0
2748,51.0,0.0,30.0,6.0,0.0
2749,59.0,0.0,30.0,13.0,0.0
2750,51.0,0.0,30.0,7.0,0.0
2751,58.0,0.0,30.0,5.0,0.0
2752,61.0,0.0,30.0,12.0,0.0
2753,58.0,14.0,30.0,13.0,0.0
2754,42.0,0.0,90.0,8.0,0.0
2755,49.0,0.0,30.0,14.0,0.0
2756,37.0,0.0,30.0,15.0,0.0
2757,49.0,0.0,30.0,7.0,0.0
2758,70.0,0.0,30.0,5.0,0.0
2759,70.0,0.0,30.0,11.0,0.0
2760,58.0,0.0,60.0,1.0,0.0
2761,70.0,34.0,60.0,0.0,0.0
2762,49.0,0.0,30.0,6.0,0.0
2763,59.0,0.0,60.0,1.0,0.0
2764,59.0,0.0,30.0,5.0,0.0
2765,71.0,34.0,60.0,0.0,0.0
2766,59.0,0.0,30.0,13.0,0.0
2767,71.0,0.0,30.0,5.0,0.0
2768,71.0,14.0,30.0,11.0,0.0
2769,68.0,0.0,30.0,11.0,0.0
2770,37.0,0.0,90.0,8.0,0.0
2771,37.0,0.0,30.0,7.0,0.0
2772,65.0,0.0,30.0,12.0,0.0
2773,37.0,0.0,30.0,6.0,0.0
2774,65.0,0.0,30.0,5.0,0.0
2775,56.0,0.0,30.0,5.0,0.0
2776,56.0,0.0,60.0,1.0,0.0
2777,59.0,0.0,60.0,1.0,0.0
2778,37.0,14.0,30.0,14.0,0.0
2779,68.0,0.0,30.0,5.0,0.0
2780,56.0,0.0,30.0,13.0,0.0
2781,68.0,34.0,60.0,0.0,0.0
2782,25.0,0.0,30.0,15.0,0.0
2783,70.0,0.0,30.0,5.0,0.0
2784,58.0,0.0,60.0,1.0,0.0
2785,58.0,0.0,30.0,5.0,0.0
2786,58.0,14.0,30.0,13.0,0.0
2787,70.0,34.0,60.0,0.0,0.0
2788,70.0,0.0,30.0,11.0,0.0
2789,42.0,0.0,30.0,14.0,0.0
2790,54.0,0.0,30.0,13.0,0.0
2791,42.0,0.0,30.0,6.0,0.0
2792,66.0,0.0,60.0,0.0,0.0
2793,66.0,0.0,30.0,11.0,0.0
2794,58.0,0.0,30.0,5.0,0.0
2795,66.0,14.0,30.0,5.0,0.0
2796,42.0,0.0,30.0,7.0,0.0
2797,42.0,34.0,90.0,8.0,0.0
2798,58.0,34.0,60.0,1.0,0.0
2799,54.0,0.0,60.0,1.0,0.0
2800,61.0,0.0,30.0,12.0,0.0
2801,54.0,0.0,30.0,5.0,0.0
2802,30.0,0.0,30.0,15.0,0.0
2803,56.0,14.0,30.0,13.0,0.0
2804,56.0,0.0,60.0,1.0,0.0
2805,68.0,0.0,60.0,0.0,0.0
2806,68.0,0.0,30.0,11.0,0.0
2807,56.0,0.0,30.0,5.0,0.0
2808,68.0,0.0,30.0,5.0,0.0
2809,58.0,0.0,30.0,5.0,0.0
2810,58.0,0.0,30.0,13.0,0.0
2811,70.0,34.0,60.0,0.0,0.0
2812,70.0,0.0,30.0,5.0,0.0
2813,70.0,14.0,30.0,11.0,0.0
2814,58.0,0.0,60.0,1.0,0.0
2815,65.0,0.0,60.0,1.0,0.0
2816,65.0,0.0,30.0,5.0,0.0
2817,65.0,0.0,30.0,11.0,0.0
2818,65.0,34.0,60.0,0.0,0.0
2819,29.0,14.0,30.0,15.0,0.0
2820,53.0,0.0,30.0,5.0,0.0
2821,41.0,0.0,30.0,6.0,0.0
2822,41.0,0.0,30.0,14.0,0.0
2823,41.0,0.0,30.0,7.0,0.0
2824,53.0,0.0,30.0,13.0,0.0
2825,58.0,14.0,30.0,13.0,0.0
2826,46.0,0.0,30.0,14.0,0.0
2827,70.0,0.0,30.0,5.0,0.0
2828,70.0,34.0,60.0,1.0,0.0
2829,34.0,0.0,30.0,15.0,0.0
2830,70.0,0.0,30.0,11.0,0.0
2831,46.0,0.0,30.0,6.0,0.0
2832,58.0,0.0,30.0,5.0,0.0
2833,70.0,0.0,60.0,0.0,0.0
2834,46.0,0.0,30.0,7.0,0.0
2835,72.0,0.0,30.0,5.0,0.0
2836,60.0,0.0,30.0,13.0,0.0
2837,72.0,0.0,60.0,0.0,0.0
2838,72.0,0.0,30.0,11.0,0.0
2839,72.0,34.0,60.0,1.0,0.0
2840,60.0,14.0,30.0,5.0,0.0
2841,61.0,0.0,30.0,5.0,0.0
2842,73.0,34.0,60.0,1.0,0.0
2843,73.0,14.0,30.0,5.0,0.0
2844,73.0,0.0,30.0,11.0,0.0
2845,73.0,0.0,60.0,0.0,0.0
2846,61.0,0.0,30.0,13.0,0.0
2847,68.0,14.0,30.0,11.0,0.0
2848,68.0,0.0,30.0,5.0,0.0
2849,44.0,0.0,30.0,7.0,0.0
2850,56.0,0.0,30.0,13.0,0.0
2851,44.0,0.0,30.0,14.0,0.0
2852,44.0,0.0,30.0,6.0,0.0
2853,56.0,0.0,30.0,5.0,0.0
2854,32.0,0.0,30.0,15.0,0.0
2855,68.0,0.0,60.0,0.0,0.0
2856,68.0,34.0,60.0,1.0,0.0
2857,73.0,0.0,30.0,11.0,0.0
2858,49.0,0.0,30.0,6.0,0.0
2859,49.0,0.0,30.0,14.0,0.0
2860,73.0,34.0,60.0,0.0,0.0
2861,49.0,0.0,30.0,7.0,0.0
2862,73.0,0.0,30.0,5.0,0.0
2863,61.0,0.0,30.0,13.0,0.0
2864,61.0,0.0,30.0,5.0,0.0
2865,37.0,14.0,30.0,15.0,0.0
2866,73.0,0.0,60.0,1.0,0.0
2867,75.0,34.0,60.0,1.0,0.0
2868,63.0,0.0,30.0,13.0,0.0
2869,75.0,0.0,30.0,11.0,0.0
2870,75.0,0.0,60.0,0.0,0.0
2871,63.0,14.0,30.0,5.0,0.0
2872,75.0,0.0,30.0,5.0,0.0
2873,65.0,0.0,30.0,13.0,0.0
2874,77.0,34.0,60.0,0.0,0.0
2875,77.0,0.0,60.0,1.0,0.0
2876,65.0,0.0,30.0,5.0,0.0
2877,77.0,14.0,30.0,5.0,0.0
2878,77.0,0.0,30.0,11.0,0.0
2879,70.0,0.0,30.0,5.0,0.0
2880,46.0,0.0,30.0,7.0,0.0
2881,34.0,0.0,30.0,15.0,0.0
2882,70.0,0.0,30.0,11.0,0.0
2883,70.0,34.0,60.0,0.0,0.0
2884,62.0,0.0,30.0,12.0,0.0
2885,46.0,14.0,30.0,6.0,0.0
2886,58.0,0.0,30.0,5.0,0.0
2887,62.0,0.0,30.0,5.0,0.0
2888,58.0,0.0,30.0,13.0,0.0
2889,46.0,0.0,30.0,14.0,0.0
2890,70.0,0.0,60.0,1.0,0.0
2891,51.0,0.0,30.0,14.0,0.0
2892,75.0,34.0,60.0,0.0,0.0
2893,75.0,14.0,30.0,11.0,0.0
2894,39.0,0.0,30.0,15.0,0.0
2895,63.0,0.0,30.0,13.0,0.0
2896,63.0,0.0,30.0,12.0,0.0
2897,75.0,0.0,60.0,1.0,0.0
2898,63.0,0.0,30.0,5.0,0.0
2899,75.0,0.0,30.0,5.0,0.0
2900,51.0,0.0,30.0,6.0,0.0
2901,51.0,0.0,30.0,7.0,0.0
2902,77.0,0.0,60.0,5.0,0.0
2903,65.0,0.0,30.0,13.0,0.0
2904,65.0,34.0,60.0,5.0,0.0
2905,77.0,0.0,60.0,1.0,0.0
2906,77.0,0.0,60.0,0.0,0.0
2907,65.0,0.0,30.0,12.0,0.0
2908,77.0,14.0,30.0,11.0,0.0
2909,78.0,0.0,60.0,0.0,0.0
2910,78.0,34.0,60.0,5.0,0.0
2911,66.0,0.0,30.0,13.0,0.0
2912,66.0,0.0,30.0,12.0,0.0
2913,78.0,0.0,60.0,1.0,0.0
2914,78.0,14.0,30.0,11.0,0.0
2915,66.0,0.0,60.0,5.0,0.0
2916,70.0,0.0,30.0,13.0,0.0
2917,53.0,0.0,30.0,6.0,0.0
2918,82.0,34.0,60.0,0.0,0.0
2919,53.0,0.0,30.0,14.0,0.0
2920,53.0,0.0,30.0,7.0,0.0
2921,74.0,0.0,60.0,1.0,0.0
2922,80.0,0.0,60.0,1.0,0.0
2923,41.0,0.0,30.0,15.0,0.0
2924,82.0,0.0,30.0,11.0,0.0
2925,70.0,14.0,30.0,12.0,0.0
2926,54.0,0.0,30.0,7.0,0.0
2927,54.0,0.0,30.0,14.0,0.0
2928,54.0,0.0,30.0,6.0,0.0
2929,75.0,0.0,30.0,12.0,0.0
2930,87.0,34.0,60.0,0.0,0.0
2931,42.0,0.0,30.0,15.0,0.0
2932,75.0,0.0,60.0,1.0,0.0
2933,87.0,14.0,30.0,11.0,0.0
2934,77.0,14.0,30.0,12.0,0.0
2935,89.0,0.0,60.0,0.0,0.0
2936,77.0,34.0,60.0,1.0,0.0
2937,89.0,0.0,30.0,11.0,0.0
2938,90.0,14.0,30.0,11.0,0.0
2939,90.0,0.0,60.0,0.0,0.0
2940,78.0,0.0,30.0,12.0,0.0
2941,78.0,34.0,60.0,1.0,0.0
2942,59.0,0.0,30.0,14.0,0.0
2943,37.0,0.0,60.0,8.0,0.0
2944,75.0,0.0,60.0,1.0,0.0
2945,59.0,14.0,30.0,7.0,0.0
2946,87.0,34.0,60.0,0.0,0.0
2947,87.0,0.0,30.0,11.0,0.0
2948,75.0,0.0,30.0,12.0,0.0
2949,47.0,0.0,30.0,15.0,0.0
2950,59.0,0.0,30.0,6.0,0.0
2951,42.0,0.0,90.0,8.0,0.0
2952,73.0,0.0,60.0,1.0,0.0
2953,85.0,0.0,30.0,11.0,0.0
2954,58.0,0.0,30.0,7.0,0.0
2955,46.0,0.0,30.0,15.0,0.0
2956,58.0,14.0,30.0,14.0,0.0
2957,58.0,0.0,30.0,6.0,0.0
2958,73.0,0.0,30.0,12.0,0.0
2959,85.0,34.0,60.0,0.0,0.0
2960,87.0,34.0,60.0,0.0,0.0
2961,75.0,0.0,60.0,1.0,0.0
2962,87.0,0.0,30.0,11.0,0.0
2963,75.0,14.0,30.0,12.0,0.0
2964,56.0,0.0,30.0,6.0,0.0
2965,83.0,34.0,60.0,0.0,0.0
2966,71.0,0.0,60.0,1.0,0.0
2967,56.0,0.0,30.0,7.0,0.0
2968,56.0,0.0,30.0,14.0,0.0
2969,71.0,0.0,30.0,12.0,0.0
2970,83.0,0.0,30.0,11.0,0.0
2971,44.0,14.0,30.0,15.0,0.0
2972,73.0,0.0,30.0,12.0,0.0
2973,85.0,0.0,60.0,0.0,0.0
2974,73.0,34.0,60.0,1.0,0.0
2975,85.0,14.0,30.0,11.0,0.0
2976,70.0,0.0,30.0,12.0,0.0
2977,82.0,14.0,30.0,11.0,0.0
2978,82.0,0.0,60.0,0.0,0.0
2979,42.0,0.0,90.0,8.0,0.0
2980,54.0,0.0,150.0,6.0,0.0
2981,54.0,0.0,150.0,7.0,0.0
2982,54.0,0.0,150.0,14.0,0.0
2983,70.0,34.0,60.0,1.0,0.0
2984,42.0,0.0,150.0,15.0,0.0
2985,80.0,14.0,30.0,11.0,0.0
2986,80.0,0.0,60.0,0.0,0.0
2987,68.0,0.0,30.0,12.0,0.0
2988,68.0,34.0,60.0,1.0,0.0
2989,78.0,34.0,60.0,0.0,0.0
2990,78.0,14.0,30.0,11.0,0.0
2991,66.0,0.0,60.0,1.0,0.0
2992,66.0,0.0,30.0,12.0,0.0
2993,63.0,0.0,30.0,5.0,0.0
2994,66.0,0.0,30.0,5.0,0.0
2995,47.0,0.0,30.0,14.0,0.0
2996,75.0,0.0,30.0,11.0,0.0
2997,47.0,14.0,30.0,6.0,0.0
2998,47.0,0.0,30.0,7.0,0.0
2999,63.0,0.0,60.0,1.0,0.0
3000,35.0,0.0,30.0,15.0,0.0
3001,66.0,0.0,60.0,1.0,0.0
3002,37.0,0.0,60.0,8.0,0.0
3003,63.0,0.0,30.0,12.0,0.0
3004,75.0,34.0,60.0,0.0,0.0
3005,63.0,0.0,30.0,13.0,0.0
3006,75.0,0.0,30.0,5.0,0.0
3007,73.0,0.0,60.0,0.0,0.0
3008,61.0,0.0,30.0,5.0,0.0
3009,46.0,0.0,30.0,7.0,0.0
3010,73.0,14.0,30.0,11.0,0.0
3011,61.0,34.0,60.0,1.0,0.0
3012,46.0,0.0,30.0,14.0,0.0
3013,46.0,0.0,30.0,6.0,0.0
3014,34.0,0.0,30.0,15.0,0.0
3015,61.0,0.0,30.0,13.0,0.0
3016,61.0,0.0,30.0,12.0,0.0
3017,42.0,0.0,90.0,8.0,0.0
3018,73.0,0.0,30.0,5.0,0.0
3019,63.0,0.0,30.0,5.0,0.0
3020,63.0,0.0,30.0,12.0,0.0
3021,63.0,14.0,30.0,13.0,0.0
3022,75.0,34.0,60.0,0.0,0.0
3023,75.0,0.0,30.0,5.0,0.0
3024,63.0,0.0,60.0,1.0,0.0
3025,75.0,0.0,30.0,11.0,0.0
3026,59.0,0.0,30.0,13.0,0.0
3027,59.0,0.0,60.0,1.0,0.0
3028,65.0,0.0,30.0,5.0,0.0
3029,59.0,14.0,30.0,5.0,0.0
3030,65.0,0.0,30.0,12.0,0.0
3031,37.0,0.0,90.0,8.0,0.0
3032,44.0,0.0,30.0,7.0,0.0
3033,44.0,0.0,30.0,6.0,0.0
3034,71.0,34.0,60.0,0.0,0.0
3035,71.0,0.0,30.0,11.0,0.0
3036,71.0,0.0,30.0,5.0,0.0
3037,32.0,0.0,30.0,15.0,0.0
3038,44.0,0.0,30.0,14.0,0.0
3039,73.0,0.0,30.0,5.0,0.0
3040,73.0,0.0,30.0,11.0,0.0
3041,61.0,0.0,60.0,1.0,0.0
3042,61.0,0.0,30.0,13.0,0.0
3043,73.0,34.0,60.0,0.0,0.0
3044,61.0,14.0,30.0,5.0,0.0
3045,58.0,0.0,60.0,1.0,0.0
3046,42.0,0.0,150.0,14.0,0.0
3047,42.0,24.0,90.0,8.0,0.0
3048,58.0,0.0,30.0,13.0,0.0
3049,42.0,0.0,150.0,6.0,0.0
3050,70.0,0.0,30.0,5.0,0.0
3051,42.0,0.0,150.0,7.0,0.0
3052,58.0,0.0,30.0,5.0,0.0
3053,70.0,0.0,30.0,11.0,0.0
3054,66.0,0.0,30.0,12.0,0.0
3055,66.0,14.0,30.0,5.0,0.0
3056,30.0,0.0,150.0,15.0,0.0
3057,70.0,34.0,60.0,0.0,0.0
3058,68.0,0.0,60.0,0.0,0.0
3059,68.0,0.0,30.0,5.0,0.0
3060,56.0,0.0,30.0,13.0,0.0
3061,56.0,14.0,30.0,5.0,0.0
3062,56.0,0.0,60.0,1.0,0.0
3063,68.0,0.0,30.0,11.0,0.0
3064,66.0,0.0,60.0,0.0,0.0
3065,54.0,24.0,60.0,1.0,0.0
3066,42.0,10.0,20.0,8.0,0.0
3067,54.0,0.0,30.0,5.0,0.0
3068,54.0,0.0,30.0,13.0,0.0
3069,66.0,14.0,30.0,5.0,0.0
3070,66.0,0.0,30.0,11.0,0.0
3071,42.0,0.0,20.0,8.0,0.0
3072,34.0,0.0,30.0,14.0,0.0
3073,70.0,0.0,30.0,5.0,0.0
3074,42.0,10.0,20.0,8.0,0.0
3075,22.0,0.0,30.0,15.0,0.0
3076,34.0,0.0,30.0,6.0,0.0
3077,66.0,0.0,30.0,12.0,0.0
3078,70.0,0.0,30.0,11.0,0.0
3079,58.0,14.0,30.0,5.0,0.0
3080,58.0,0.0,60.0,1.0,0.0
3081,70.0,0.0,60.0,0.0,0.0
3082,34.0,0.0,30.0,7.0,0.0
3083,58.0,0.0,30.0,13.0,0.0
3084,66.0,0.0,30.0,5.0,0.0
3085,42.0,96.0,20.0,8.0,0.0
3086,56.0,0.0,150.0,5.0,0.0
3087,37.0,0.0,150.0,14.0,0.0
3088,37.0,0.0,150.0,7.0,0.0
3089,68.0,0.0,150.0,11.0,0.0
3090,65.0,160.0,150.0,5.0,0.0
3091,37.0,0.0,150.0,6.0,0.0
3092,68.0,0.0,150.0,5.0,0.0
3093,42.0,66.0,90.0,8.0,0.0
3094,56.0,0.0,150.0,1.0,0.0
3095,25.0,0.0,150.0,15.0,0.0
3096,56.0,0.0,150.0,13.0,0.0
3097,68.0,0.0,150.0,0.0,0.0
3098,68.0,0.0,150.0,12.0,0.0
3099,65.0,0.0,150.0,12.0,0.0
3100,49.0,34.0,60.0,13.0,0.0
3101,61.0,0.0,60.0,0.0,0.0
3102,49.0,0.0,30.0,5.0,0.0
3103,61.0,0.0,30.0,5.0,0.0
3104,61.0,14.0,30.0,11.0,0.0
3105,49.0,0.0,150.0,14.0,0.0
3106,53.0,34.0,60.0,13.0,0.0
3107,65.0,0.0,30.0,11.0,0.0
3108,53.0,0.0,30.0,5.0,0.0
3109,65.0,14.0,30.0,5.0,0.0
3110,37.0,0.0,150.0,15.0,0.0
3111,65.0,0.0,60.0,0.0,0.0
3112,49.0,34.0,150.0,7.0,0.0
3113,49.0,0.0,150.0,6.0,0.0
3114,54.0,34.0,60.0,13.0,0.0
3115,66.0,14.0,30.0,11.0,0.0
3116,66.0,0.0,60.0,0.0,0.0
3117,66.0,0.0,30.0,5.0,0.0
3118,54.0,0.0,30.0,5.0,0.0
3119,56.0,0.0,30.0,5.0,0.0
3120,68.0,0.0,30.0,5.0,0.0
3121,68.0,14.0,30.0,11.0,0.0
3122,68.0,0.0,60.0,0.0,0.0
3123,56.0,0.0,60.0,13.0,0.0
3124,61.0,34.0,60.0,13.0,0.0
3125,61.0,0.0,30.0,5.0,0.0
3126,73.0,0.0,30.0,11.0,0.0
3127,37.0,0.0,30.0,14.0,0.0
3128,37.0,0.0,30.0,7.0,0.0
3129,73.0,0.0,30.0,5.0,0.0
3130,73.0,0.0,60.0,0.0,0.0
3131,25.0,0.0,30.0,15.0,0.0
3132,37.0,14.0,30.0,6.0,0.0
3133,69.0,34.0,150.0,0.0,0.0
3134,61.0,0.0,150.0,5.0,0.0
3135,57.0,0.0,150.0,1.0,0.0
3136,57.0,0.0,150.0,5.0,0.0
3137,42.0,34.0,60.0,7.0,0.0
3138,69.0,0.0,150.0,11.0,0.0
3139,42.0,14.0,30.0,6.0,0.0
3140,42.0,0.0,30.0,14.0,0.0
3141,61.0,0.0,150.0,12.0,0.0
3142,57.0,34.0,90.0,13.0,0.0
3143,66.0,0.0,150.0,12.0,0.0
3144,69.0,0.0,150.0,5.0,0.0
3145,30.0,0.0,30.0,15.0,0.0
3146,44.0,14.0,30.0,14.0,0.0
3147,32.0,0.0,30.0,15.0,0.0
3148,44.0,0.0,60.0,7.0,0.0
3149,44.0,0.0,30.0,6.0,0.0
3150,33.0,0.0,30.0,15.0,0.0
3151,45.0,0.0,30.0,6.0,0.0
3152,45.0,0.0,60.0,7.0,0.0
3153,45.0,14.0,30.0,14.0,0.0
3154,49.0,0.0,30.0,6.0,0.0
3155,49.0,0.0,30.0,14.0,0.0
3156,61.0,14.0,30.0,5.0,0.0
3157,37.0,0.0,30.0,15.0,0.0
3158,61.0,0.0,30.0,11.0,0.0
3159,49.0,0.0,60.0,7.0,0.0
3160,61.0,0.0,60.0,0.0,0.0
3161,49.0,34.0,60.0,13.0,0.0
3162,49.0,0.0,30.0,5.0,0.0
3163,25.0,0.0,150.0,15.0,0.0
3164,65.0,14.0,30.0,5.0,0.0
3165,65.0,0.0,30.0,11.0,0.0
3166,37.0,0.0,150.0,7.0,0.0
3167,53.0,0.0,30.0,5.0,0.0
3168,65.0,0.0,60.0,0.0,0.0
3169,53.0,34.0,60.0,13.0,0.0
3170,37.0,0.0,150.0,6.0,0.0
3171,37.0,0.0,150.0,14.0,0.0
3172,54.0,0.0,30.0,5.0,0.0
3173,66.0,14.0,30.0,5.0,0.0
3174,66.0,0.0,30.0,11.0,0.0
3175,54.0,0.0,60.0,13.0,0.0
3176,66.0,34.0,60.0,0.0,0.0
3177,68.0,0.0,30.0,5.0,0.0
3178,56.0,0.0,30.0,5.0,0.0
3179,68.0,34.0,60.0,0.0,0.0
3180,68.0,14.0,30.0,11.0,0.0
3181,56.0,0.0,60.0,13.0,0.0
3182,73.0,34.0,60.0,0.0,0.0
3183,61.0,0.0,60.0,13.0,0.0
3184,73.0,0.0,30.0,11.0,0.0
3185,37.0,0.0,30.0,14.0,0.0
3186,37.0,0.0,30.0,7.0,0.0
3187,37.0,14.0,30.0,6.0,0.0
3188,61.0,0.0,30.0,5.0,0.0
3189,73.0,0.0,30.0,5.0,0.0
3190,25.0,0.0,30.0,15.0,0.0
3191,42.0,0.0,30.0,6.0,0.0
3192,69.0,0.0,150.0,5.0,0.0
3193,69.0,34.0,150.0,0.0,0.0
3194,57.0,34.0,90.0,13.0,0.0
3195,69.0,0.0,150.0,11.0,0.0
3196,61.0,0.0,150.0,5.0,0.0
3197,66.0,0.0,150.0,12.0,0.0
3198,57.0,0.0,150.0,1.0,0.0
3199,57.0,0.0,150.0,5.0,0.0
3200,42.0,0.0,30.0,7.0,0.0
3201,61.0,0.0,150.0,12.0,0.0
3202,42.0,48.0,30.0,14.0,0.0
3203,30.0,0.0,30.0,15.0,0.0
3204,44.0,14.0,30.0,14.0,0.0
3205,44.0,0.0,30.0,7.0,0.0
3206,32.0,0.0,30.0,15.0,0.0
3207,44.0,0.0,30.0,6.0,0.0
3208,45.0,0.0,30.0,14.0,0.0
3209,33.0,0.0,30.0,15.0,0.0
3210,45.0,14.0,30.0,6.0,0.0
3211,45.0,0.0,30.0,7.0,0.0
3212,74.0,0.0,60.0,0.0,0.0
3213,74.0,0.0,60.0,5.0,0.0
3214,74.0,0.0,30.0,11.0,0.0
3215,38.0,0.0,30.0,7.0,0.0
3216,38.0,0.0,30.0,14.0,0.0
3217,26.0,14.0,30.0,15.0,0.0
3218,62.0,0.0,30.0,5.0,0.0
3219,62.0,34.0,60.0,13.0,0.0
3220,38.0,0.0,30.0,6.0,0.0
3221,59.0,34.0,150.0,1.0,0.0
3222,44.0,0.0,30.0,7.0,0.0
3223,44.0,0.0,30.0,6.0,0.0
3224,32.0,48.0,30.0,15.0,0.0
3225,71.0,0.0,150.0,11.0,0.0
3226,44.0,0.0,30.0,14.0,0.0
3227,59.0,34.0,90.0,13.0,0.0
3228,71.0,0.0,150.0,0.0,0.0
3229,59.0,0.0,150.0,5.0,0.0
3230,62.0,0.0,150.0,12.0,0.0
3231,62.0,0.0,150.0,5.0,0.0
3232,71.0,0.0,150.0,5.0,0.0
3233,68.0,0.0,150.0,12.0,0.0
3234,45.0,0.0,30.0,14.0,0.0
3235,33.0,14.0,30.0,15.0,0.0
3236,45.0,0.0,30.0,6.0,0.0
3237,45.0,0.0,30.0,7.0,0.0
3238,47.0,0.0,30.0,7.0,0.0
3239,47.0,14.0,30.0,14.0,0.0
3240,35.0,0.0,30.0,15.0,0.0
3241,47.0,0.0,30.0,6.0,0.0
3242,40.0,0.0,30.0,14.0,0.0
3243,40.0,0.0,30.0,7.0,0.0
3244,76.0,0.0,60.0,5.0,0.0
3245,76.0,14.0,30.0,11.0,0.0
3246,64.0,0.0,30.0,5.0,0.0
3247,64.0,0.0,60.0,13.0,0.0
3248,28.0,0.0,30.0,15.0,0.0
3249,40.0,0.0,30.0,6.0,0.0
3250,76.0,34.0,60.0,0.0,0.0
3251,73.0,0.0,150.0,11.0,0.0
3252,64.0,0.0,150.0,5.0,0.0
3253,61.0,0.0,150.0,5.0,0.0
3254,45.0,0.0,30.0,14.0,0.0
3255,73.0,0.0,150.0,5.0,0.0
3256,45.0,0.0,30.0,6.0,0.0
3257,61.0,0.0,150.0,1.0,0.0
3258,73.0,0.0,150.0,0.0,0.0
3259,64.0,34.0,150.0,12.0,0.0
3260,61.0,34.0,90.0,13.0,0.0
3261,33.0,48.0,30.0,15.0,0.0
3262,45.0,0.0,30.0,7.0,0.0
3263,69.0,0.0,150.0,12.0,0.0
3264,35.0,0.0,30.0,15.0,0.0
3265,47.0,14.0,30.0,6.0,0.0
3266,47.0,0.0,30.0,7.0,0.0
3267,47.0,0.0,30.0,14.0,0.0
3268,49.0,14.0,30.0,6.0,0.0
3269,49.0,0.0,30.0,7.0,0.0
3270,49.0,0.0,30.0,14.0,0.0
3271,37.0,0.0,30.0,15.0,0.0
3272,42.0,0.0,30.0,6.0,0.0
3273,78.0,0.0,60.0,0.0,0.0
3274,30.0,0.0,30.0,15.0,0.0
3275,78.0,0.0,30.0,11.0,0.0
3276,42.0,0.0,30.0,7.0,0.0
3277,66.0,0.0,30.0,5.0,0.0
3278,66.0,34.0,60.0,13.0,0.0
3279,42.0,14.0,30.0,14.0,0.0
3280,74.0,0.0,150.0,11.0,0.0
3281,35.0,48.0,30.0,15.0,0.0
3282,74.0,0.0,150.0,5.0,0.0
3283,47.0,0.0,30.0,7.0,0.0
3284,74.0,34.0,150.0,0.0,0.0
3285,47.0,0.0,30.0,6.0,0.0
3286,62.0,34.0,90.0,13.0,0.0
3287,66.0,0.0,150.0,5.0,0.0
3288,74.0,0.0,150.0,12.0,0.0
3289,62.0,0.0,150.0,5.0,0.0
3290,47.0,0.0,30.0,14.0,0.0
3291,37.0,0.0,30.0,15.0,0.0
3292,49.0,0.0,30.0,7.0,0.0
3293,49.0,14.0,30.0,6.0,0.0
3294,49.0,0.0,30.0,14.0,0.0
3295,50.0,0.0,30.0,7.0,0.0
3296,38.0,0.0,30.0,15.0,0.0
3297,50.0,14.0,30.0,6.0,0.0
3298,50.0,0.0,30.0,14.0,0.0
3299,83.0,0.0,60.0,0.0,0.0
3300,71.0,34.0,60.0,13.0,0.0
3301,35.0,0.0,30.0,15.0,0.0
3302,47.0,14.0,30.0,7.0,0.0
3303,47.0,0.0,30.0,6.0,0.0
3304,83.0,0.0,30.0,11.0,0.0
3305,47.0,0.0,30.0,14.0,0.0
3306,73.0,0.0,150.0,12.0,0.0
3307,49.0,0.0,30.0,7.0,0.0
3308,68.0,0.0,150.0,1.0,0.0
3309,37.0,0.0,30.0,15.0,0.0
3310,77.0,34.0,150.0,12.0,0.0
3311,49.0,0.0,30.0,14.0,0.0
3312,80.0,0.0,150.0,0.0,0.0
3313,80.0,0.0,150.0,11.0,0.0
3314,68.0,34.0,90.0,13.0,0.0
3315,49.0,48.0,30.0,6.0,0.0
3316,29.0,14.0,30.0,15.0,0.0
3317,41.0,0.0,30.0,14.0,0.0
3318,32.0,0.0,30.0,15.0,0.0
3319,44.0,14.0,30.0,14.0,0.0
3320,73.0,0.0,60.0,13.0,0.0
3321,85.0,14.0,30.0,11.0,0.0
3322,25.0,0.0,30.0,15.0,0.0
3323,37.0,0.0,30.0,14.0,0.0
3324,37.0,0.0,30.0,6.0,0.0
3325,37.0,0.0,30.0,7.0,0.0
3326,37.0,0.0,60.0,8.0,0.0
3327,85.0,34.0,60.0,0.0,0.0
3328,58.0,0.0,30.0,13.0,0.0
3329,66.0,0.0,30.0,12.0,0.0
3330,66.0,0.0,60.0,1.0,0.0
3331,61.0,0.0,60.0,1.0,0.0
3332,61.0,0.0,30.0,12.0,0.0
3333,70.0,34.0,60.0,0.0,0.0
3334,37.0,0.0,30.0,6.0,0.0
3335,30.0,0.0,30.0,7.0,0.0
3336,42.0,0.0,30.0,14.0,0.0
3337,42.0,0.0,90.0,8.0,0.0
3338,30.0,0.0,30.0,15.0,0.0
3339,70.0,14.0,30.0,11.0,0.0
3340,59.0,0.0,30.0,13.0,0.0
3341,71.0,34.0,60.0,0.0,0.0
3342,71.0,14.0,30.0,11.0,0.0
3343,61.0,14.0,30.0,13.0,0.0
3344,73.0,34.0,60.0,0.0,0.0
3345,73.0,0.0,30.0,11.0,0.0
3346,77.0,0.0,60.0,0.0,0.0
3347,73.0,0.0,60.0,1.0,0.0
3348,65.0,34.0,60.0,1.0,0.0
3349,65.0,14.0,30.0,12.0,0.0
3350,44.0,0.0,30.0,14.0,0.0
3351,73.0,0.0,30.0,12.0,0.0
3352,77.0,0.0,30.0,11.0,0.0
3353,32.0,0.0,30.0,15.0,0.0
3354,65.0,0.0,30.0,13.0,0.0
3355,37.0,0.0,30.0,6.0,0.0
3356,32.0,0.0,30.0,7.0,0.0
3357,42.0,0.0,90.0,8.0,0.0
3358,78.0,0.0,30.0,11.0,0.0
3359,66.0,0.0,30.0,12.0,0.0
3360,34.0,0.0,30.0,7.0,0.0
3361,34.0,0.0,30.0,15.0,0.0
3362,66.0,0.0,30.0,13.0,0.0
3363,66.0,34.0,60.0,1.0,0.0
3364,37.0,14.0,30.0,6.0,0.0
3365,78.0,0.0,60.0,0.0,0.0
3366,46.0,0.0,30.0,14.0,0.0
3367,80.0,34.0,60.0,0.0,0.0
3368,68.0,0.0,30.0,13.0,0.0
3369,80.0,14.0,30.0,11.0,0.0
3370,82.0,34.0,60.0,0.0,0.0
3371,82.0,14.0,30.0,11.0,0.0
3372,70.0,0.0,30.0,13.0,0.0
3373,78.0,34.0,60.0,1.0,0.0
3374,47.0,0.0,30.0,15.0,0.0
3375,47.0,0.0,30.0,7.0,0.0
3376,59.0,0.0,30.0,14.0,0.0
3377,75.0,0.0,30.0,12.0,0.0
3378,37.0,0.0,60.0,8.0,0.0
3379,87.0,14.0,30.0,11.0,0.0
3380,78.0,0.0,30.0,12.0,0.0
3381,75.0,0.0,30.0,13.0,0.0
3382,87.0,0.0,60.0,0.0,0.0
3383,54.0,0.0,30.0,6.0,0.0
3384,75.0,0.0,60.0,1.0,0.0
3385,42.0,34.0,90.0,8.0,0.0
3386,54.0,0.0,30.0,6.0,0.0
3387,73.0,34.0,60.0,1.0,0.0
3388,73.0,14.0,30.0,12.0,0.0
3389,85.0,0.0,60.0,0.0,0.0
3390,58.0,0.0,30.0,14.0,0.0
3391,46.0,0.0,30.0,7.0,0.0
3392,73.0,0.0,30.0,13.0,0.0
3393,85.0,0.0,30.0,11.0,0.0
3394,46.0,0.0,30.0,15.0,0.0
3395,87.0,14.0,30.0,11.0,0.0
3396,87.0,0.0,60.0,0.0,0.0
3397,75.0,0.0,30.0,13.0,0.0
3398,56.0,0.0,30.0,14.0,0.0
3399,44.0,0.0,30.0,7.0,0.0
3400,49.0,0.0,30.0,6.0,0.0
3401,44.0,0.0,30.0,15.0,0.0
3402,71.0,14.0,30.0,13.0,0.0
3403,83.0,34.0,60.0,0.0,0.0
3404,83.0,0.0,30.0,11.0,0.0
3405,82.0,0.0,30.0,11.0,0.0
3406,82.0,34.0,60.0,0.0,0.0
3407,70.0,0.0,60.0,1.0,0.0
3408,42.0,0.0,30.0,15.0,0.0
3409,54.0,0.0,30.0,14.0,0.0
3410,42.0,0.0,30.0,7.0,0.0
3411,70.0,0.0,30.0,12.0,0.0
3412,70.0,0.0,30.0,13.0,0.0
3413,49.0,14.0,30.0,6.0,0.0
3414,80.0,14.0,30.0,11.0,0.0
3415,41.0,0.0,30.0,15.0,0.0
3416,41.0,0.0,30.0,7.0,0.0
3417,68.0,0.0,30.0,12.0,0.0
3418,68.0,0.0,30.0,13.0,0.0
3419,49.0,0.0,30.0,6.0,0.0
3420,42.0,34.0,90.0,8.0,0.0
3421,53.0,0.0,30.0,14.0,0.0
3422,68.0,0.0,60.0,1.0,0.0
3423,80.0,34.0,60.0,0.0,0.0
3424,70.0,14.0,30.0,13.0,0.0
3425,82.0,0.0,30.0,11.0,0.0
3426,82.0,0.0,60.0,0.0,0.0
3427,78.0,0.0,30.0,11.0,0.0
3428,39.0,0.0,30.0,7.0,0.0
3429,66.0,0.0,30.0,13.0,0.0
3430,51.0,0.0,30.0,6.0,0.0
3431,51.0,14.0,30.0,14.0,0.0
3432,78.0,34.0,60.0,0.0,0.0
3433,39.0,0.0,30.0,15.0,0.0
3434,77.0,0.0,60.0,0.0,0.0
3435,65.0,0.0,60.0,1.0,0.0
3436,65.0,0.0,30.0,5.0,0.0
3437,65.0,0.0,30.0,13.0,0.0
3438,37.0,0.0,30.0,7.0,0.0
3439,77.0,0.0,30.0,5.0,0.0
3440,77.0,14.0,30.0,11.0,0.0
3441,65.0,0.0,30.0,12.0,0.0
3442,49.0,0.0,30.0,14.0,0.0
3443,37.0,0.0,30.0,15.0,0.0
3444,37.0,34.0,60.0,8.0,0.0
3445,49.0,0.0,30.0,6.0,0.0
3446,63.0,0.0,30.0,13.0,0.0
3447,63.0,0.0,30.0,5.0,0.0
3448,75.0,14.0,30.0,11.0,0.0
3449,47.0,0.0,90.0,14.0,0.0
3450,35.0,0.0,90.0,7.0,0.0
3451,47.0,0.0,90.0,6.0,0.0
3452,63.0,0.0,30.0,12.0,0.0
3453,42.0,0.0,90.0,8.0,0.0
3454,75.0,34.0,60.0,0.0,0.0
3455,63.0,0.0,60.0,1.0,0.0
3456,35.0,34.0,90.0,15.0,0.0
3457,75.0,0.0,30.0,5.0,0.0
3458,77.0,0.0,30.0,11.0,0.0
3459,65.0,0.0,30.0,12.0,0.0
3460,65.0,0.0,60.0,1.0,0.0
3461,65.0,0.0,30.0,13.0,0.0
3462,77.0,0.0,60.0,0.0,0.0
3463,77.0,0.0,30.0,5.0,0.0
3464,65.0,14.0,30.0,5.0,0.0
3465,61.0,0.0,30.0,12.0,0.0
3466,34.0,0.0,90.0,7.0,0.0
3467,61.0,0.0,60.0,1.0,0.0
3468,73.0,0.0,30.0,5.0,0.0
3469,73.0,34.0,60.0,0.0,0.0
3470,61.0,0.0,30.0,5.0,0.0
3471,34.0,0.0,90.0,15.0,0.0
3472,37.0,0.0,90.0,8.0,0.0
3473,73.0,14.0,30.0,11.0,0.0
3474,46.0,0.0,90.0,14.0,0.0
3475,61.0,0.0,30.0,13.0,0.0
3476,46.0,0.0,90.0,6.0,0.0
3477,63.0,0.0,30.0,13.0,0.0
3478,75.0,0.0,30.0,11.0,0.0
3479,63.0,34.0,60.0,1.0,0.0
3480,63.0,0.0,30.0,5.0,0.0
3481,75.0,0.0,60.0,0.0,0.0
3482,75.0,0.0,30.0,5.0,0.0
3483,63.0,14.0,30.0,12.0,0.0
3484,44.0,0.0,150.0,14.0,0.0
3485,44.0,0.0,150.0,6.0,0.0
3486,32.0,0.0,150.0,15.0,0.0
3487,71.0,0.0,30.0,11.0,0.0
3488,32.0,24.0,150.0,7.0,0.0
3489,59.0,0.0,60.0,1.0,0.0
3490,71.0,34.0,60.0,0.0,0.0
3491,59.0,14.0,30.0,13.0,0.0
3492,42.0,24.0,90.0,8.0,0.0
3493,71.0,0.0,30.0,5.0,0.0
3494,59.0,0.0,30.0,12.0,0.0
3495,59.0,0.0,30.0,5.0,0.0
3496,70.0,14.0,30.0,11.0,0.0
3497,58.0,0.0,30.0,12.0,0.0
3498,70.0,0.0,30.0,5.0,0.0
3499,58.0,0.0,30.0,5.0,0.0
3500,58.0,0.0,60.0,1.0,0.0
3501,58.0,0.0,30.0,13.0,0.0
3502,70.0,0.0,60.0,0.0,0.0
3503,68.0,0.0,60.0,0.0,0.0
3504,56.0,0.0,60.0,1.0,0.0
3505,56.0,14.0,30.0,13.0,0.0
3506,68.0,0.0,30.0,11.0,0.0
3507,56.0,0.0,30.0,12.0,0.0
3508,68.0,0.0,30.0,5.0,0.0
3509,56.0,0.0,30.0,5.0,0.0
3510,42.0,10.0,20.0,8.0,0.0
3511,42.0,0.0,20.0,8.0,0.0
3512,37.0,0.0,60.0,7.0,0.0
3513,61.0,96.0,60.0,13.0,0.0
3514,61.0,0.0,30.0,5.0,0.0
3515,68.0,0.0,60.0,1.0,0.0
3516,42.0,10.0,20.0,8.0,0.0
3517,37.0,0.0,60.0,6.0,0.0
3518,65.0,0.0,30.0,5.0,0.0
3519,73.0,0.0,30.0,11.0,0.0
3520,65.0,0.0,60.0,1.0,0.0
3521,25.0,0.0,60.0,15.0,0.0
3522,37.0,0.0,60.0,14.0,0.0
3523,68.0,0.0,30.0,12.0,0.0
3524,73.0,0.0,60.0,0.0,0.0
3525,73.0,14.0,30.0,5.0,0.0
3526,65.0,0.0,30.0,12.0,0.0
3527,42.0,0.0,20.0,8.0,0.0
3528,58.0,0.0,150.0,5.0,0.0
3529,70.0,0.0,150.0,11.0,0.0
3530,42.0,0.0,150.0,14.0,0.0
3531,42.0,66.0,90.0,8.0,0.0
3532,58.0,0.0,150.0,12.0,0.0
3533,37.0,0.0,150.0,6.0,0.0
3534,70.0,0.0,150.0,5.0,0.0
3535,61.0,0.0,150.0,5.0,0.0
3536,58.0,0.0,150.0,1.0,0.0
3537,66.0,0.0,150.0,1.0,0.0
3538,70.0,0.0,150.0,0.0,0.0
3539,30.0,208.0,150.0,15.0,0.0
3540,30.0,0.0,150.0,7.0,0.0
3541,37.0,0.0,150.0,7.0,0.0
3542,58.0,0.0,150.0,13.0,0.0
3543,66.0,0.0,150.0,12.0,0.0
3544,49.0,0.0,60.0,13.0,0.0
3545,61.0,0.0,30.0,11.0,0.0
3546,61.0,34.0,60.0,0.0,0.0
3547,61.0,14.0,30.0,5.0,0.0
3548,49.0,0.0,30.0,5.0,0.0
3549,65.0,0.0,60.0,0.0,0.0
3550,53.0,34.0,60.0,13.0,0.0
3551,65.0,0.0,30.0,5.0,0.0
3552,65.0,14.0,30.0,11.0,0.0
3553,49.0,0.0,150.0,7.0,0.0
3554,49.0,0.0,150.0,14.0,0.0
3555,53.0,0.0,30.0,5.0,0.0
3556,49.0,0.0,150.0,6.0,0.0
3557,37.0,0.0,150.0,15.0,0.0
3558,66.0,0.0,30.0,5.0,0.0
3559,54.0,34.0,60.0,13.0,0.0
3560,54.0,0.0,30.0,5.0,0.0
3561,66.0,0.0,60.0,0.0,0.0
3562,66.0,14.0,30.0,11.0,0.0
3563,68.0,0.0,30.0,11.0,0.0
3564,68.0,0.0,60.0,0.0,0.0
3565,68.0,14.0,30.0,5.0,0.0
3566,56.0,0.0,30.0,5.0,0.0
3567,56.0,34.0,60.0,13.0,0.0
3568,37.0,14.0,30.0,6.0,0.0
3569,25.0,0.0,30.0,15.0,0.0
3570,73.0,0.0,30.0,5.0,0.0
3571,61.0,0.0,60.0,13.0,0.0
3572,73.0,0.0,60.0,0.0,0.0
3573,37.0,0.0,30.0,7.0,0.0
3574,37.0,0.0,30.0,14.0,0.0
3575,73.0,0.0,30.0,11.0,0.0
3576,61.0,0.0,30.0,5.0,0.0
3577,30.0,14.0,30.0,15.0,0.0
3578,42.0,34.0,60.0,7.0,0.0
3579,57.0,0.0,90.0,13.0,0.0
3580,61.0,0.0,150.0,12.0,0.0
3581,66.0,0.0,150.0,12.0,0.0
3582,42.0,0.0,30.0,6.0,0.0
3583,69.0,34.0,150.0,11.0,0.0
3584,61.0,0.0,150.0,5.0,0.0
3585,57.0,0.0,150.0,1.0,0.0
3586,42.0,0.0,30.0,14.0,0.0
3587,69.0,0.0,150.0,0.0,0.0
3588,69.0,0.0,150.0,5.0,0.0
3589,57.0,0.0,150.0,5.0,0.0
3590,44.0,0.0,30.0,6.0,0.0
3591,32.0,14.0,30.0,15.0,0.0
3592,44.0,0.0,30.0,14.0,0.0
3593,44.0,34.0,60.0,7.0,0.0
3594,45.0,0.0,60.0,7.0,0.0
3595,45.0,0.0,30.0,14.0,0.0
3596,33.0,0.0,30.0,15.0,0.0
3597,45.0,14.0,30.0,6.0,0.0
3598,49.0,0.0,30.0,6.0,0.0
3599,49.0,0.0,60.0,13.0,0.0
3600,61.0,0.0,30.0,5.0,0.0
3601,61.0,0.0,60.0,0.0,0.0
3602,49.0,14.0,30.0,5.0,0.0
3603,49.0,34.0,60.0,7.0,0.0
3604,37.0,0.0,30.0,15.0,0.0
3605,61.0,0.0,30.0,11.0,0.0
3606,49.0,0.0,30.0,14.0,0.0
3607,53.0,0.0,30.0,5.0,0.0
3608,65.0,14.0,30.0,11.0,0.0
3609,25.0,0.0,150.0,15.0,0.0
3610,37.0,0.0,150.0,14.0,0.0
3611,65.0,0.0,60.0,0.0,0.0
3612,37.0,34.0,150.0,7.0,0.0
3613,37.0,0.0,150.0,6.0,0.0
3614,65.0,0.0,30.0,5.0,0.0
3615,53.0,34.0,60.0,13.0,0.0
3616,66.0,14.0,30.0,5.0,0.0
3617,66.0,0.0,30.0,11.0,0.0
3618,54.0,0.0,30.0,5.0,0.0
3619,54.0,34.0,60.0,13.0,0.0
3620,66.0,0.0,60.0,0.0,0.0
3621,68.0,0.0,30.0,5.0,0.0
3622,68.0,0.0,60.0,0.0,0.0
3623,68.0,0.0,30.0,11.0,0.0
3624,56.0,0.0,60.0,13.0,0.0
3625,56.0,14.0,30.0,5.0,0.0
3626,37.0,0.0,30.0,7.0,0.0
3627,37.0,0.0,30.0,6.0,0.0
3628,61.0,0.0,60.0,13.0,0.0
3629,73.0,0.0,60.0,0.0,0.0
3630,37.0,0.0,30.0,14.0,0.0
3631,73.0,14.0,30.0,11.0,0.0
3632,25.0,0.0,30.0,15.0,0.0
3633,73.0,0.0,30.0,5.0,0.0
3634,61.0,0.0,30.0,5.0,0.0
3635,57.0,0.0,150.0,5.0,0.0
3636,42.0,0.0,30.0,14.0,0.0
3637,42.0,48.0,30.0,6.0,0.0
3638,42.0,0.0,30.0,7.0,0.0
3639,69.0,0.0,150.0,0.0,0.0
3640,57.0,0.0,150.0,1.0,0.0
3641,61.0,0.0,150.0,5.0,0.0
3642,57.0,34.0,90.0,13.0,0.0
3643,66.0,0.0,150.0,12.0,0.0
3644,61.0,0.0,150.0,12.0,0.0
3645,69.0,0.0,150.0,11.0,0.0
3646,69.0,34.0,150.0,5.0,0.0
3647,30.0,0.0,30.0,15.0,0.0
3648,44.0,0.0,30.0,14.0,0.0
3649,32.0,0.0,30.0,15.0,0.0
3650,44.0,0.0,30.0,7.0,0.0
3651,44.0,14.0,30.0,6.0,0.0
3652,45.0,0.0,30.0,14.0,0.0
3653,45.0,0.0,30.0,7.0,0.0
3654,45.0,0.0,30.0,6.0,0.0
3655,33.0,14.0,30.0,15.0,0.0
3656,74.0,34.0,60.0,5.0,0.0
3657,62.0,0.0,30.0,5.0,0.0
3658,38.0,0.0,30.0,14.0,0.0
3659,62.0,0.0,60.0,13.0,0.0
3660,74.0,0.0,60.0,0.0,0.0
3661,38.0,0.0,30.0,6.0,0.0
3662,26.0,14.0,30.0,15.0,0.0
3663,74.0,0.0,30.0,11.0,0.0
3664,38.0,0.0,30.0,7.0,0.0
3665,68.0,34.0,150.0,12.0,0.0
3666,44.0,0.0,30.0,7.0,0.0
3667,59.0,34.0,90.0,13.0,0.0
3668,44.0,0.0,30.0,14.0,0.0
3669,59.0,0.0,150.0,5.0,0.0
3670,59.0,0.0,150.0,1.0,0.0
3671,44.0,48.0,30.0,6.0,0.0
3672,71.0,0.0,150.0,11.0,0.0
3673,32.0,0.0,30.0,15.0,0.0
3674,62.0,0.0,150.0,12.0,0.0
3675,71.0,0.0,150.0,0.0,0.0
3676,62.0,0.0,150.0,5.0,0.0
3677,71.0,0.0,150.0,5.0,0.0
3678,45.0,14.0,30.0,6.0,0.0
3679,33.0,0.0,30.0,15.0,0.0
3680,45.0,0.0,30.0,14.0,0.0
3681,45.0,0.0,30.0,7.0,0.0
3682,47.0,14.0,30.0,14.0,0.0
3683,47.0,0.0,30.0,6.0,0.0
3684,47.0,0.0,30.0,7.0,0.0
3685,35.0,0.0,30.0,15.0,0.0
3686,76.0,34.0,60.0,0.0,0.0
3687,40.0,14.0,30.0,6.0,0.0
3688,40.0,0.0,30.0,7.0,0.0
3689,64.0,0.0,30.0,5.0,0.0
3690,64.0,0.0,60.0,13.0,0.0
3691,40.0,0.0,30.0,14.0,0.0
3692,76.0,0.0,60.0,5.0,0.0
3693,76.0,0.0,30.0,11.0,0.0
3694,28.0,0.0,30.0,15.0,0.0
3695,45.0,0.0,30.0,14.0,0.0
3696,69.0,0.0,150.0,12.0,0.0
3697,64.0,0.0,150.0,12.0,0.0
3698,45.0,48.0,30.0,7.0,0.0
3699,73.0,0.0,150.0,5.0,0.0
3700,45.0,0.0,30.0,6.0,0.0
3701,61.0,0.0,150.0,1.0,0.0
3702,61.0,34.0,90.0,13.0,0.0
3703,61.0,0.0,150.0,5.0,0.0
3704,64.0,0.0,150.0,5.0,0.0
3705,33.0,0.0,30.0,15.0,0.0
3706,73.0,34.0,150.0,0.0,0.0
3707,73.0,0.0,150.0,11.0,0.0
3708,47.0,0.0,30.0,14.0,0.0
3709,35.0,0.0,30.0,15.0,0.0
3710,47.0,14.0,30.0,7.0,0.0
3711,47.0,0.0,30.0,6.0,0.0
3712,49.0,0.0,30.0,14.0,0.0
3713,37.0,0.0,30.0,15.0,0.0
3714,49.0,14.0,30.0,6.0,0.0
3715,49.0,0.0,30.0,7.0,0.0
3716,66.0,0.0,60.0,13.0,0.0
3717,42.0,0.0,30.0,7.0,0.0
3718,42.0,0.0,30.0,14.0,0.0
3719,66.0,0.0,30.0,5.0,0.0
3720,78.0,34.0,60.0,0.0,0.0
3721,42.0,0.0,30.0,6.0,0.0
3722,30.0,0.0,30.0,15.0,0.0
3723,78.0,14.0,30.0,11.0,0.0
3724,47.0,0.0,30.0,7.0,0.0
3725,74.0,0.0,150.0,0.0,0.0
3726,47.0,0.0,30.0,6.0,0.0
3727,62.0,0.0,150.0,5.0,0.0
3728,66.0,0.0,150.0,5.0,0.0
3729,35.0,0.0,30.0,15.0,0.0
3730,62.0,34.0,90.0,13.0,0.0
3731,74.0,34.0,150.0,5.0,0.0
3732,74.0,0.0,150.0,12.0,0.0
3733,47.0,48.0,30.0,14.0,0.0
3734,74.0,0.0,150.0,11.0,0.0
3735,49.0,14.0,30.0,6.0,0.0
3736,37.0,0.0,30.0,15.0,0.0
3737,49.0,0.0,30.0,14.0,0.0
3738,49.0,0.0,30.0,7.0,0.0
3739,50.0,14.0,30.0,14.0,0.0
3740,50.0,0.0,30.0,7.0,0.0
3741,38.0,0.0,30.0,15.0,0.0
3742,50.0,0.0,30.0,6.0,0.0
3743,83.0,0.0,30.0,11.0,0.0
3744,47.0,0.0,30.0,6.0,0.0
3745,71.0,0.0,60.0,13.0,0.0
3746,83.0,34.0,60.0,0.0,0.0
3747,35.0,0.0,30.0,15.0,0.0
3748,47.0,0.0,30.0,14.0,0.0
3749,47.0,14.0,30.0,7.0,0.0
3750,37.0,48.0,30.0,15.0,0.0
3751,49.0,0.0,30.0,14.0,0.0
3752,49.0,0.0,30.0,6.0,0.0
3753,80.0,0.0,150.0,11.0,0.0
3754,77.0,0.0,150.0,12.0,0.0
3755,73.0,0.0,150.0,12.0,0.0
3756,80.0,0.0,150.0,0.0,0.0
3757,68.0,34.0,90.0,13.0,0.0
3758,49.0,0.0,30.0,7.0,0.0
3759,68.0,34.0,150.0,1.0,0.0
3760,41.0,0.0,30.0,14.0,0.0
3761,29.0,14.0,30.0,15.0,0.0
3762,44.0,0.0,30.0,14.0,0.0
3763,32.0,14.0,30.0,15.0,0.0
3764,73.0,0.0,60.0,13.0,0.0
3765,85.0,14.0,30.0,11.0,0.0
3766,37.0,0.0,30.0,7.0,0.0
3767,25.0,0.0,30.0,15.0,0.0
3768,37.0,0.0,30.0,6.0,0.0
3769,37.0,0.0,60.0,8.0,0.0
3770,37.0,0.0,30.0,14.0,0.0
3771,85.0,34.0,60.0,0.0,0.0
3772,58.0,0.0,30.0,13.0,0.0
3773,30.0,0.0,30.0,15.0,0.0
3774,42.0,0.0,90.0,8.0,0.0
3775,37.0,0.0,30.0,6.0,0.0
3776,61.0,14.0,30.0,12.0,0.0
3777,42.0,0.0,30.0,14.0,0.0
3778,30.0,0.0,30.0,7.0,0.0
3779,70.0,0.0,30.0,11.0,0.0
3780,70.0,0.0,60.0,0.0,0.0
3781,66.0,0.0,30.0,12.0,0.0
3782,61.0,34.0,60.0,1.0,0.0
3783,66.0,0.0,60.0,1.0,0.0
3784,71.0,34.0,60.0,0.0,0.0
3785,59.0,14.0,30.0,13.0,0.0
3786,71.0,0.0,30.0,11.0,0.0
3787,73.0,34.0,60.0,0.0,0.0
3788,73.0,14.0,30.0,11.0,0.0
3789,61.0,0.0,30.0,13.0,0.0
3790,77.0,0.0,30.0,11.0,0.0
3791,65.0,0.0,60.0,1.0,0.0
3792,73.0,0.0,60.0,1.0,0.0
3793,44.0,0.0,30.0,14.0,0.0
3794,32.0,0.0,30.0,7.0,0.0
3795,37.0,14.0,30.0,6.0,0.0
3796,65.0,0.0,30.0,13.0,0.0
3797,32.0,0.0,30.0,15.0,0.0
3798,77.0,34.0,60.0,0.0,0.0
3799,73.0,0.0,30.0,12.0,0.0
3800,65.0,0.0,30.0,12.0,0.0
3801,66.0,0.0,30.0,13.0,0.0
3802,42.0,34.0,90.0,8.0,0.0
3803,66.0,0.0,60.0,1.0,0.0
3804,34.0,0.0,30.0,15.0,0.0
3805,66.0,0.0,30.0,12.0,0.0
3806,46.0,14.0,30.0,14.0,0.0
3807,78.0,0.0,30.0,11.0,0.0
3808,34.0,0.0,30.0,7.0,0.0
3809,37.0,0.0,30.0,6.0,0.0
3810,78.0,34.0,60.0,0.0,0.0
3811,68.0,14.0,30.0,13.0,0.0
3812,80.0,0.0,30.0,11.0,0.0
3813,80.0,0.0,60.0,0.0,0.0
3814,82.0,34.0,60.0,0.0,0.0
3815,82.0,14.0,30.0,11.0,0.0
3816,70.0,0.0,30.0,13.0,0.0
3817,47.0,14.0,30.0,7.0,0.0
3818,87.0,0.0,30.0,11.0,0.0
3819,78.0,0.0,30.0,12.0,0.0
3820,54.0,0.0,30.0,6.0,0.0
3821,87.0,0.0,60.0,0.0,0.0
3822,75.0,0.0,60.0,1.0,0.0
3823,75.0,0.0,30.0,13.0,0.0
3824,47.0,0.0,30.0,15.0,0.0
3825,78.0,0.0,60.0,1.0,0.0
3826,75.0,0.0,30.0,12.0,0.0
3827,37.0,34.0,60.0,8.0,0.0
3828,59.0,0.0,30.0,14.0,0.0
3829,42.0,0.0,90.0,8.0,0.0
3830,58.0,0.0,30.0,14.0,0.0
3831,46.0,0.0,30.0,15.0,0.0
3832,73.0,0.0,30.0,13.0,0.0
3833,46.0,0.0,30.0,7.0,0.0
3834,85.0,14.0,30.0,11.0,0.0
3835,85.0,0.0,60.0,0.0,0.0
3836,73.0,0.0,30.0,12.0,0.0
3837,54.0,0.0,30.0,6.0,0.0
3838,73.0,34.0,60.0,1.0,0.0
3839,87.0,0.0,30.0,11.0,0.0
3840,75.0,14.0,30.0,13.0,0.0
3841,87.0,34.0,60.0,0.0,0.0
3842,56.0,0.0,30.0,14.0,0.0
3843,44.0,14.0,30.0,15.0,0.0
3844,71.0,0.0,30.0,13.0,0.0
3845,83.0,34.0,60.0,0.0,0.0
3846,44.0,0.0,30.0,7.0,0.0
3847,83.0,0.0,30.0,11.0,0.0
3848,49.0,0.0,30.0,6.0,0.0
3849,82.0,0.0,30.0,11.0,0.0
3850,82.0,34.0,60.0,0.0,0.0
3851,70.0,0.0,30.0,12.0,0.0
3852,70.0,14.0,30.0,13.0,0.0
3853,42.0,0.0,30.0,15.0,0.0
3854,42.0,0.0,30.0,7.0,0.0
3855,49.0,0.0,30.0,6.0,0.0
3856,54.0,0.0,30.0,14.0,0.0
3857,70.0,0.0,60.0,1.0,0.0
3858,80.0,0.0,30.0,11.0,0.0
3859,53.0,0.0,30.0,14.0,0.0
3860,41.0,0.0,30.0,7.0,0.0
3861,49.0,0.0,30.0,6.0,0.0
3862,41.0,0.0,30.0,15.0,0.0
3863,42.0,0.0,90.0,8.0,0.0
3864,80.0,0.0,60.0,0.0,0.0
3865,68.0,34.0,60.0,1.0,0.0
3866,68.0,0.0,30.0,12.0,0.0
3867,68.0,14.0,30.0,13.0,0.0
3868,82.0,0.0,30.0,11.0,0.0
3869,82.0,34.0,60.0,0.0,0.0
3870,70.0,14.0,30.0,13.0,0.0
3871,51.0,0.0,30.0,14.0,0.0
3872,39.0,14.0,30.0,7.0,0.0
3873,66.0,0.0,30.0,13.0,0.0
3874,51.0,0.0,30.0,6.0,0.0
3875,78.0,0.0,30.0,11.0,0.0
3876,78.0,34.0,60.0,0.0,0.0
3877,39.0,0.0,30.0,15.0,0.0
3878,77.0,0.0,60.0,0.0,0.0
3879,37.0,34.0,60.0,8.0,0.0
3880,65.0,0.0,30.0,5.0,0.0
3881,77.0,0.0,30.0,11.0,0.0
3882,49.0,0.0,30.0,6.0,0.0
3883,37.0,14.0,30.0,7.0,0.0
3884,65.0,0.0,30.0,12.0,0.0
3885,65.0,0.0,60.0,1.0,0.0
3886,65.0,0.0,30.0,13.0,0.0
3887,37.0,0.0,30.0,15.0,0.0
3888,77.0,0.0,30.0,5.0,0.0
3889,49.0,0.0,30.0,14.0,0.0
3890,63.0,0.0,30.0,13.0,0.0
3891,35.0,0.0,90.0,7.0,0.0
3892,35.0,34.0,90.0,15.0,0.0
3893,63.0,0.0,30.0,12.0,0.0
3894,75.0,0.0,60.0,0.0,0.0
3895,42.0,0.0,90.0,8.0,0.0
3896,47.0,0.0,90.0,6.0,0.0
3897,63.0,34.0,60.0,1.0,0.0
3898,63.0,0.0,30.0,5.0,0.0
3899,47.0,0.0,90.0,14.0,0.0
3900,75.0,0.0,30.0,5.0,0.0
3901,75.0,14.0,30.0,11.0,0.0
3902,77.0,14.0,30.0,5.0,0.0
3903,77.0,0.0,60.0,0.0,0.0
3904,65.0,0.0,30.0,12.0,0.0
3905,65.0,0.0,30.0,5.0,0.0
3906,65.0,0.0,30.0,13.0,0.0
3907,77.0,0.0,30.0,11.0,0.0
3908,65.0,0.0,60.0,1.0,0.0
3909,37.0,0.0,90.0,8.0,0.0
3910,61.0,0.0,30.0,13.0,0.0
3911,46.0,34.0,90.0,6.0,0.0
3912,61.0,0.0,30.0,5.0,0.0
3913,73.0,34.0,60.0,0.0,0.0
3914,34.0,0.0,90.0,15.0,0.0
3915,46.0,0.0,90.0,14.0,0.0
3916,73.0,0.0,30.0,11.0,0.0
3917,61.0,0.0,60.0,1.0,0.0
3918,34.0,0.0,90.0,7.0,0.0
3919,73.0,14.0,30.0,5.0,0.0
3920,61.0,0.0,30.0,12.0,0.0
3921,75.0,0.0,60.0,0.0,0.0
3922,63.0,0.0,60.0,1.0,0.0
3923,63.0,0.0,30.0,5.0,0.0
3924,75.0,14.0,30.0,11.0,0.0
3925,63.0,0.0,30.0,13.0,0.0
3926,75.0,0.0,30.0,5.0,0.0
3927,63.0,0.0,30.0,12.0,0.0
3928,71.0,14.0,30.0,5.0,0.0
3929,32.0,24.0,150.0,15.0,0.0
3930,32.0,0.0,150.0,7.0,0.0
3931,59.0,0.0,30.0,13.0,0.0
3932,71.0,0.0,30.0,11.0,0.0
3933,42.0,0.0,90.0,8.0,0.0
3934,59.0,0.0,30.0,5.0,0.0
3935,44.0,0.0,150.0,14.0,0.0
3936,59.0,0.0,30.0,12.0,0.0
3937,44.0,0.0,150.0,6.0,0.0
3938,71.0,34.0,60.0,0.0,0.0
3939,59.0,0.0,60.0,1.0,0.0
3940,70.0,0.0,30.0,5.0,0.0
3941,70.0,0.0,30.0,11.0,0.0
3942,58.0,0.0,30.0,13.0,0.0
3943,58.0,14.0,30.0,5.0,0.0
3944,58.0,0.0,30.0,12.0,0.0
3945,70.0,0.0,60.0,0.0,0.0
3946,58.0,24.0,60.0,1.0,0.0
3947,42.0,10.0,20.0,8.0,0.0
3948,56.0,0.0,30.0,13.0,0.0
3949,56.0,14.0,30.0,5.0,0.0
3950,56.0,0.0,30.0,12.0,0.0
3951,68.0,0.0,60.0,0.0,0.0
3952,68.0,0.0,30.0,11.0,0.0
3953,68.0,0.0,30.0,5.0,0.0
3954,56.0,0.0,60.0,1.0,0.0
3955,42.0,0.0,20.0,8.0,0.0
3956,42.0,10.0,20.0,8.0,0.0
3957,37.0,0.0,60.0,14.0,0.0
3958,37.0,0.0,60.0,7.0,0.0
3959,61.0,0.0,60.0,13.0,0.0
3960,61.0,0.0,30.0,5.0,0.0
3961,73.0,0.0,30.0,5.0,0.0
3962,65.0,0.0,30.0,12.0,0.0
3963,25.0,0.0,60.0,15.0,0.0
3964,68.0,0.0,60.0,1.0,0.0
3965,65.0,0.0,60.0,1.0,0.0
3966,73.0,96.0,60.0,0.0,0.0
3967,68.0,14.0,30.0,12.0,0.0
3968,65.0,0.0,30.0,5.0,0.0
3969,37.0,0.0,60.0,6.0,0.0
3970,73.0,0.0,30.0,11.0,0.0
3971,42.0,0.0,20.0,8.0,0.0
3972,61.0,0.0,150.0,5.0,0.0
3973,58.0,0.0,150.0,5.0,0.0
3974,37.0,0.0,150.0,6.0,0.0
3975,70.0,0.0,150.0,11.0,0.0
3976,37.0,0.0,150.0,7.0,0.0
3977,30.0,0.0,150.0,7.0,0.0
3978,58.0,0.0,150.0,13.0,0.0
3979,42.0,224.0,150.0,14.0,0.0
3980,42.0,66.0,90.0,8.0,0.0
3981,70.0,0.0,150.0,5.0,0.0
3982,30.0,0.0,150.0,15.0,0.0
3983,66.0,0.0,150.0,12.0,0.0
3984,58.0,0.0,150.0,12.0,0.0
3985,66.0,0.0,150.0,1.0,0.0
3986,58.0,0.0,150.0,1.0,0.0
3987,70.0,0.0,150.0,0.0,0.0
3988,61.0,96.0,90.0,11.0,0.0
3989,30.0,48.0,330.0,15.0,0.0
3990,57.0,0.0,90.0,11.0,0.0
3991,56.0,48.0,60.0,14.0,0.0
3992,54.0,48.0,60.0,14.0,0.0
3993,61.0,0.0,90.0,11.0,0.0
3994,52.0,48.0,60.0,14.0,0.0
3995,66.0,0.0,90.0,11.0,0.0
3996,50.0,48.0,60.0,14.0,0.0
3997,49.0,48.0,60.0,14.0,0.0
3998,68.0,0.0,90.0,11.0,0.0
3999,50.0,0.0,60.0,14.0,0.0
4000,47.0,48.0,60.0,14.0,0.0
4001,42.0,48.0,60.0,14.0,0.0
4002,69.0,48.0,90.0,11.0,0.0
4003,66.0,0.0,180.0,13.0,0.0
4004,61.0,0.0,180.0,13.0,0.0
4005,30.0,48.0,330.0,15.0,0.0
4006,49.0,0.0,60.0,14.0,0.0
4007,54.0,48.0,60.0,14.0,0.0
4008,68.0,0.0,60.0,11.0,0.0
4009,66.0,48.0,60.0,11.0,0.0
4010,57.0,48.0,90.0,14.0,0.0
4011,69.0,0.0,90.0,11.0,0.0
4012,54.0,48.0,60.0,14.0,0.0
4013,62.0,0.0,90.0,13.0,0.0
4014,50.0,0.0,60.0,14.0,0.0
4015,71.0,48.0,90.0,11.0,0.0
4016,47.0,0.0,60.0,14.0,0.0
4017,66.0,0.0,15.0,13.0,0.0
4018,61.0,0.0,180.0,13.0,0.0
4019,42.0,48.0,60.0,14.0,0.0
4020,30.0,48.0,330.0,15.0,0.0
4021,69.0,48.0,90.0,11.0,0.0
4022,49.0,0.0,60.0,14.0,0.0
4023,68.0,0.0,60.0,11.0,0.0
4024,54.0,48.0,60.0,14.0,0.0
4025,57.0,48.0,90.0,14.0,0.0
4026,66.0,0.0,60.0,11.0,0.0
4027,69.0,48.0,90.0,11.0,0.0
4028,54.0,0.0,60.0,14.0,0.0
4029,62.0,48.0,90.0,13.0,0.0
4030,50.0,0.0,60.0,14.0,0.0
4031,66.0,0.0,90.0,13.0,0.0
4032,71.0,0.0,90.0,11.0,0.0
4033,47.0,0.0,60.0,14.0,0.0
4034,42.0,48.0,60.0,14.0,0.0
4035,30.0,48.0,330.0,15.0,0.0
4036,69.0,48.0,90.0,11.0,0.0
4037,61.0,0.0,150.0,13.0,0.0
4038,66.0,0.0,90.0,13.0,0.0
4039,49.0,0.0,60.0,14.0,0.0
4040,68.0,48.0,60.0,11.0,0.0
4041,53.0,0.0,60.0,14.0,0.0
4042,68.0,0.0,60.0,12.0,0.0
4043,49.0,48.0,60.0,14.0,0.0
4044,57.0,48.0,60.0,14.0,0.0
4045,61.0,0.0,60.0,12.0,0.0
4046,66.0,0.0,60.0,12.0,0.0
4047,56.0,48.0,60.0,14.0,0.0
4048,69.0,0.0,60.0,12.0,0.0
4049,54.0,0.0,60.0,14.0,0.0
4050,71.0,0.0,60.0,12.0,0.0
4051,50.0,48.0,60.0,14.0,0.0
4052,69.0,0.0,180.0,13.0,0.0
4053,73.0,48.0,90.0,12.0,0.0
4054,64.0,48.0,180.0,13.0,0.0
4055,33.0,0.0,330.0,15.0,0.0
4056,45.0,48.0,60.0,14.0,0.0
4057,52.0,0.0,60.0,14.0,0.0
4058,57.0,0.0,60.0,14.0,0.0
4059,71.0,48.0,60.0,12.0,0.0
4060,61.0,48.0,90.0,14.0,0.0
4061,69.0,0.0,60.0,12.0,0.0
4062,73.0,48.0,90.0,12.0,0.0
4063,57.0,0.0,60.0,14.0,0.0
4064,66.0,0.0,90.0,13.0,0.0
4065,74.0,48.0,90.0,12.0,0.0
4066,69.0,0.0,90.0,13.0,0.0
4067,54.0,48.0,60.0,14.0,0.0
4068,50.0,0.0,60.0,14.0,0.0
4069,33.0,0.0,330.0,15.0,0.0
4070,73.0,0.0,90.0,12.0,0.0
4071,45.0,48.0,60.0,14.0,0.0
4072,69.0,0.0,180.0,13.0,0.0
4073,64.0,48.0,180.0,13.0,0.0
4074,52.0,48.0,60.0,14.0,0.0
4075,71.0,0.0,60.0,12.0,0.0
4076,57.0,48.0,60.0,14.0,0.0
4077,61.0,48.0,90.0,14.0,0.0
4078,69.0,0.0,60.0,12.0,0.0
4079,73.0,48.0,90.0,12.0,0.0
4080,57.0,0.0,60.0,14.0,0.0
4081,54.0,48.0,60.0,14.0,0.0
4082,74.0,48.0,90.0,12.0,0.0
4083,66.0,0.0,90.0,13.0,0.0
4084,50.0,0.0,60.0,14.0,0.0
4085,45.0,48.0,60.0,14.0,0.0
4086,69.0,0.0,15.0,13.0,0.0
4087,64.0,0.0,90.0,13.0,0.0
4088,33.0,32.0,150.0,15.0,0.0
4089,73.0,48.0,90.0,12.0,0.0
4090,49.0,0.0,60.0,14.0,0.0
4091,71.0,0.0,60.0,12.0,0.0
4092,52.0,16.0,60.0,14.0,0.0
4093,61.0,48.0,60.0,13.0,0.0
4094,69.0,0.0,150.0,12.0,0.0
4095,57.0,0.0,60.0,14.0,0.0
4096,30.0,32.0,150.0,15.0,0.0
4097,42.0,48.0,60.0,14.0,0.0
4098,73.0,0.0,90.0,13.0,0.0
4099,49.0,48.0,60.0,14.0,0.0
4100,71.0,16.0,60.0,13.0,0.0
4101,54.0,0.0,60.0,14.0,0.0
4102,68.0,0.0,60.0,12.0,0.0
4103,57.0,48.0,60.0,14.0,0.0
4104,66.0,0.0,60.0,12.0,0.0
4105,69.0,0.0,60.0,13.0,0.0
4106,68.0,0.0,180.0,13.0,0.0
4107,65.0,0.0,180.0,12.0,0.0
4108,25.0,32.0,150.0,15.0,0.0
4109,37.0,48.0,60.0,14.0,0.0
4110,44.0,48.0,60.0,14.0,0.0
4111,53.0,16.0,60.0,14.0,0.0
4112,56.0,96.0,60.0,14.0,0.0
4113,61.0,96.0,90.0,14.0,0.0
4114,61.0,96.0,90.0,11.0,0.0
4115,57.0,48.0,90.0,11.0,0.0
4116,30.0,0.0,330.0,15.0,0.0
4117,56.0,0.0,60.0,14.0,0.0
4118,54.0,48.0,60.0,14.0,0.0
4119,61.0,48.0,90.0,11.0,0.0
4120,52.0,0.0,60.0,14.0,0.0
4121,50.0,48.0,60.0,14.0,0.0
4122,66.0,0.0,90.0,11.0,0.0
4123,49.0,48.0,60.0,14.0,0.0
4124,50.0,48.0,60.0,14.0,0.0
4125,68.0,48.0,90.0,11.0,0.0
4126,47.0,0.0,60.0,14.0,0.0
4127,61.0,0.0,180.0,13.0,0.0
4128,42.0,48.0,60.0,14.0,0.0
4129,66.0,48.0,180.0,13.0,0.0
4130,30.0,0.0,330.0,15.0,0.0
4131,69.0,48.0,90.0,11.0,0.0
4132,49.0,0.0,60.0,14.0,0.0
4133,68.0,48.0,60.0,11.0,0.0
4134,54.0,0.0,60.0,14.0,0.0
4135,57.0,48.0,90.0,14.0,0.0
4136,66.0,0.0,60.0,11.0,0.0
4137,69.0,48.0,90.0,11.0,0.0
4138,54.0,0.0,60.0,14.0,0.0
4139,71.0,0.0,90.0,11.0,0.0
4140,66.0,0.0,90.0,13.0,0.0
4141,62.0,48.0,90.0,13.0,0.0
4142,50.0,48.0,60.0,14.0,0.0
4143,47.0,0.0,60.0,14.0,0.0
4144,30.0,48.0,330.0,15.0,0.0
4145,69.0,48.0,90.0,11.0,0.0
4146,42.0,48.0,60.0,14.0,0.0
4147,61.0,48.0,180.0,13.0,0.0
4148,66.0,0.0,180.0,13.0,0.0
4149,49.0,0.0,60.0,14.0,0.0
4150,54.0,48.0,60.0,14.0,0.0
4151,68.0,0.0,60.0,11.0,0.0
4152,66.0,0.0,60.0,11.0,0.0
4153,57.0,48.0,90.0,14.0,0.0
4154,69.0,0.0,90.0,11.0,0.0
4155,54.0,48.0,60.0,14.0,0.0
4156,71.0,48.0,90.0,11.0,0.0
4157,50.0,0.0,60.0,14.0,0.0
4158,62.0,0.0,90.0,13.0,0.0
4159,47.0,0.0,60.0,14.0,0.0
4160,66.0,0.0,15.0,13.0,0.0
4161,61.0,48.0,150.0,13.0,0.0
4162,30.0,0.0,330.0,15.0,0.0
4163,42.0,48.0,60.0,14.0,0.0
4164,69.0,0.0,90.0,11.0,0.0
4165,49.0,0.0,60.0,14.0,0.0
4166,53.0,0.0,60.0,14.0,0.0
4167,68.0,0.0,60.0,11.0,0.0
4168,49.0,0.0,60.0,14.0,0.0
4169,68.0,48.0,60.0,12.0,0.0
4170,61.0,48.0,60.0,12.0,0.0
4171,57.0,0.0,60.0,14.0,0.0
4172,56.0,0.0,60.0,14.0,0.0
4173,66.0,48.0,60.0,12.0,0.0
4174,54.0,0.0,60.0,14.0,0.0
4175,69.0,48.0,60.0,12.0,0.0
4176,71.0,48.0,60.0,12.0,0.0
4177,50.0,0.0,60.0,14.0,0.0
4178,64.0,0.0,180.0,13.0,0.0
4179,69.0,48.0,180.0,13.0,0.0
4180,73.0,48.0,90.0,12.0,0.0
4181,45.0,48.0,60.0,14.0,0.0
4182,33.0,0.0,330.0,15.0,0.0
4183,52.0,0.0,60.0,14.0,0.0
4184,57.0,0.0,60.0,14.0,0.0
4185,71.0,48.0,60.0,12.0,0.0
4186,61.0,48.0,90.0,14.0,0.0
4187,69.0,0.0,60.0,12.0,0.0
4188,73.0,48.0,90.0,12.0,0.0
4189,57.0,0.0,60.0,14.0,0.0
4190,54.0,48.0,60.0,14.0,0.0
4191,74.0,48.0,90.0,12.0,0.0
4192,66.0,0.0,90.0,13.0,0.0
4193,50.0,0.0,60.0,14.0,0.0
4194,69.0,0.0,15.0,13.0,0.0
4195,64.0,48.0,180.0,13.0,0.0
4196,45.0,48.0,60.0,14.0,0.0
4197,73.0,48.0,90.0,12.0,0.0
4198,33.0,0.0,330.0,15.0,0.0
4199,52.0,0.0,60.0,14.0,0.0
4200,71.0,0.0,60.0,12.0,0.0
4201,57.0,48.0,60.0,14.0,0.0
4202,69.0,0.0,60.0,12.0,0.0
4203,61.0,48.0,90.0,14.0,0.0
4204,73.0,48.0,90.0,12.0,0.0
4205,57.0,0.0,60.0,14.0,0.0
4206,74.0,48.0,90.0,12.0,0.0
4207,54.0,48.0,60.0,14.0,0.0
4208,66.0,0.0,90.0,13.0,0.0
4209,50.0,0.0,60.0,14.0,0.0
4210,69.0,0.0,15.0,13.0,0.0
4211,33.0,32.0,150.0,15.0,0.0
4212,64.0,0.0,90.0,13.0,0.0
4213,73.0,0.0,90.0,12.0,0.0
4214,45.0,48.0,60.0,14.0,0.0
4215,49.0,0.0,60.0,14.0,0.0
4216,71.0,16.0,60.0,12.0,0.0
4217,52.0,0.0,60.0,14.0,0.0
4218,69.0,0.0,150.0,12.0,0.0
4219,57.0,0.0,60.0,14.0,0.0
4220,61.0,48.0,60.0,13.0,0.0
4221,30.0,32.0,150.0,15.0,0.0
4222,73.0,0.0,90.0,13.0,0.0
4223,42.0,48.0,60.0,14.0,0.0
4224,49.0,48.0,60.0,14.0,0.0
4225,68.0,0.0,60.0,12.0,0.0
4226,71.0,0.0,60.0,13.0,0.0
4227,54.0,16.0,60.0,14.0,0.0
4228,66.0,0.0,60.0,12.0,0.0
4229,57.0,48.0,60.0,14.0,0.0
4230,69.0,0.0,60.0,13.0,0.0
4231,68.0,0.0,180.0,13.0,0.0
4232,65.0,0.0,180.0,12.0,0.0
4233,37.0,48.0,60.0,14.0,0.0
4234,25.0,32.0,150.0,15.0,0.0
4235,44.0,48.0,60.0,14.0,0.0
4236,53.0,16.0,60.0,14.0,0.0
4237,56.0,96.0,60.0,14.0,0.0
4238,61.0,96.0,90.0,14.0,0.0
4239,68.0,96.0,90.0,11.0,0.0
4240,25.0,0.0,330.0,15.0,0.0
4241,64.0,48.0,180.0,12.0,0.0
4242,64.0,0.0,90.0,11.0,0.0
4243,63.0,48.0,60.0,13.0,0.0
4244,68.0,0.0,90.0,11.0,0.0
4245,61.0,48.0,60.0,13.0,0.0
4246,59.0,0.0,60.0,13.0,0.0
4247,73.0,0.0,90.0,11.0,0.0
4248,66.0,0.0,180.0,12.0,0.0
4249,57.0,48.0,60.0,13.0,0.0
4250,56.0,48.0,60.0,13.0,0.0
4251,75.0,48.0,90.0,11.0,0.0
4252,57.0,48.0,60.0,13.0,0.0
4253,54.0,0.0,60.0,13.0,0.0
4254,68.0,48.0,180.0,12.0,0.0
4255,25.0,48.0,330.0,15.0,0.0
4256,49.0,48.0,60.0,13.0,0.0
4257,76.0,0.0,90.0,11.0,0.0
4258,56.0,48.0,60.0,13.0,0.0
4259,75.0,0.0,60.0,11.0,0.0
4260,61.0,48.0,60.0,13.0,0.0
4261,73.0,0.0,60.0,11.0,0.0
4262,64.0,0.0,60.0,13.0,0.0
4263,76.0,0.0,90.0,11.0,0.0
4264,68.0,48.0,60.0,13.0,0.0
4265,61.0,48.0,60.0,13.0,0.0
4266,78.0,0.0,90.0,11.0,0.0
4267,69.0,0.0,60.0,13.0,0.0
4268,73.0,48.0,90.0,12.0,0.0
4269,57.0,0.0,60.0,13.0,0.0
4270,31.0,48.0,330.0,15.0,0.0
4271,74.0,0.0,300.0,12.0,0.0
4272,79.0,48.0,90.0,11.0,0.0
4273,59.0,48.0,60.0,13.0,0.0
4274,55.0,0.0,60.0,13.0,0.0
4275,78.0,0.0,60.0,11.0,0.0
4276,50.0,48.0,60.0,13.0,0.0
4277,76.0,48.0,60.0,11.0,0.0
4278,47.0,0.0,60.0,13.0,0.0
4279,59.0,48.0,60.0,13.0,0.0
4280,79.0,0.0,90.0,11.0,0.0
4281,55.0,48.0,60.0,13.0,0.0
4282,76.0,0.0,90.0,12.0,0.0
4283,81.0,0.0,90.0,11.0,0.0
4284,61.0,0.0,60.0,13.0,0.0
4285,49.0,48.0,60.0,13.0,0.0
4286,78.0,48.0,300.0,12.0,0.0
4287,35.0,0.0,330.0,15.0,0.0
4288,62.0,48.0,60.0,13.0,0.0
4289,83.0,48.0,90.0,11.0,0.0
4290,59.0,0.0,60.0,13.0,0.0
4291,54.0,48.0,60.0,13.0,0.0
4292,81.0,0.0,60.0,11.0,0.0
4293,50.0,48.0,60.0,13.0,0.0
4294,79.0,0.0,60.0,11.0,0.0
4295,62.0,48.0,60.0,13.0,0.0
4296,83.0,0.0,90.0,11.0,0.0
4297,59.0,0.0,60.0,13.0,0.0
4298,80.0,0.0,90.0,12.0,0.0
4299,85.0,48.0,90.0,11.0,0.0
4300,73.0,0.0,180.0,11.0,0.0
4301,65.0,48.0,60.0,13.0,0.0
4302,53.0,0.0,60.0,13.0,0.0
4303,81.0,48.0,90.0,11.0,0.0
4304,66.0,48.0,60.0,13.0,0.0
4305,81.0,0.0,90.0,12.0,0.0
4306,42.0,48.0,330.0,15.0,0.0
4307,61.0,0.0,60.0,13.0,0.0
4308,57.0,48.0,60.0,13.0,0.0
4309,61.0,0.0,90.0,12.0,0.0
4310,54.0,48.0,60.0,13.0,0.0
4311,50.0,48.0,60.0,13.0,0.0
4312,66.0,0.0,90.0,12.0,0.0
4313,49.0,48.0,60.0,14.0,0.0
4314,50.0,0.0,60.0,14.0,0.0
4315,68.0,0.0,90.0,12.0,0.0
4316,47.0,48.0,60.0,14.0,0.0
4317,69.0,0.0,90.0,12.0,0.0
4318,61.0,0.0,180.0,11.0,0.0
4319,42.0,48.0,60.0,14.0,0.0
4320,66.0,0.0,180.0,11.0,0.0
4321,30.0,48.0,330.0,15.0,0.0
4322,49.0,48.0,60.0,14.0,0.0
4323,68.0,0.0,60.0,12.0,0.0
4324,54.0,48.0,60.0,14.0,0.0
4325,66.0,48.0,60.0,12.0,0.0
4326,57.0,48.0,90.0,14.0,0.0
4327,69.0,0.0,90.0,12.0,0.0
4328,54.0,48.0,60.0,14.0,0.0
4329,62.0,0.0,300.0,11.0,0.0
4330,50.0,0.0,60.0,14.0,0.0
4331,71.0,48.0,180.0,12.0,0.0
4332,47.0,48.0,60.0,14.0,0.0
4333,23.0,0.0,330.0,15.0,0.0
4334,43.0,48.0,60.0,14.0,0.0
4335,50.0,0.0,60.0,14.0,0.0
4336,55.0,0.0,60.0,14.0,0.0
4337,69.0,48.0,60.0,12.0,0.0
4338,59.0,48.0,90.0,14.0,0.0
4339,67.0,48.0,60.0,12.0,0.0
4340,71.0,48.0,90.0,12.0,0.0
4341,56.0,0.0,60.0,14.0,0.0
4342,61.0,0.0,390.0,12.0,0.0
4343,68.0,48.0,180.0,11.0,0.0
4344,53.0,48.0,60.0,14.0,0.0
4345,73.0,0.0,390.0,12.0,0.0
4346,49.0,48.0,60.0,14.0,0.0
4347,30.0,32.0,150.0,15.0,0.0
4348,42.0,48.0,60.0,14.0,0.0
4349,49.0,0.0,60.0,14.0,0.0
4350,54.0,16.0,60.0,14.0,0.0
4351,69.0,0.0,60.0,11.0,0.0
4352,56.0,96.0,60.0,14.0,0.0
4353,68.0,0.0,60.0,11.0,0.0
4354,66.0,96.0,90.0,11.0,0.0
4355,57.0,0.0,90.0,14.0,0.0
4356,68.0,96.0,90.0,11.0,0.0
4357,64.0,0.0,180.0,12.0,0.0
4358,64.0,0.0,90.0,11.0,0.0
4359,25.0,48.0,330.0,15.0,0.0
4360,63.0,48.0,60.0,13.0,0.0
4361,68.0,48.0,90.0,11.0,0.0
4362,61.0,48.0,60.0,13.0,0.0
4363,59.0,0.0,60.0,13.0,0.0
4364,73.0,48.0,90.0,11.0,0.0
4365,66.0,0.0,180.0,12.0,0.0
4366,57.0,48.0,60.0,13.0,0.0
4367,56.0,0.0,60.0,13.0,0.0
4368,57.0,0.0,60.0,13.0,0.0
4369,75.0,0.0,90.0,11.0,0.0
4370,54.0,48.0,60.0,13.0,0.0
4371,76.0,0.0,90.0,11.0,0.0
4372,49.0,48.0,60.0,13.0,0.0
4373,68.0,48.0,180.0,12.0,0.0
4374,25.0,48.0,330.0,15.0,0.0
4375,56.0,48.0,60.0,13.0,0.0
4376,61.0,48.0,60.0,13.0,0.0
4377,75.0,0.0,60.0,11.0,0.0
4378,64.0,0.0,60.0,13.0,0.0
4379,73.0,0.0,60.0,11.0,0.0
4380,68.0,48.0,60.0,13.0,0.0
4381,76.0,48.0,90.0,11.0,0.0
4382,61.0,0.0,60.0,13.0,0.0
4383,78.0,0.0,90.0,11.0,0.0
4384,73.0,0.0,90.0,12.0,0.0
4385,69.0,0.0,60.0,13.0,0.0
4386,57.0,48.0,60.0,13.0,0.0
4387,79.0,48.0,90.0,11.0,0.0
4388,31.0,48.0,330.0,15.0,0.0
4389,74.0,48.0,300.0,12.0,0.0
4390,59.0,48.0,60.0,13.0,0.0
4391,55.0,0.0,60.0,13.0,0.0
4392,50.0,0.0,60.0,13.0,0.0
4393,78.0,48.0,60.0,11.0,0.0
4394,47.0,48.0,60.0,13.0,0.0
4395,76.0,0.0,60.0,11.0,0.0
4396,79.0,0.0,90.0,11.0,0.0
4397,59.0,48.0,60.0,13.0,0.0
4398,55.0,0.0,60.0,13.0,0.0
4399,61.0,0.0,60.0,13.0,0.0
4400,81.0,48.0,90.0,11.0,0.0
4401,76.0,0.0,90.0,12.0,0.0
4402,49.0,0.0,60.0,13.0,0.0
4403,78.0,48.0,300.0,12.0,0.0
4404,62.0,48.0,60.0,13.0,0.0
4405,83.0,48.0,90.0,11.0,0.0
4406,35.0,0.0,330.0,15.0,0.0
4407,59.0,0.0,60.0,13.0,0.0
4408,81.0,0.0,60.0,11.0,0.0
4409,54.0,48.0,60.0,13.0,0.0
4410,50.0,0.0,60.0,13.0,0.0
4411,79.0,48.0,60.0,11.0,0.0
4412,62.0,48.0,60.0,13.0,0.0
4413,83.0,0.0,90.0,11.0,0.0
4414,59.0,0.0,60.0,13.0,0.0
4415,65.0,48.0,60.0,13.0,0.0
4416,80.0,0.0,90.0,12.0,0.0
4417,85.0,0.0,90.0,11.0,0.0
4418,73.0,0.0,180.0,11.0,0.0
4419,53.0,48.0,60.0,13.0,0.0
4420,81.0,0.0,90.0,12.0,0.0
4421,81.0,0.0,90.0,11.0,0.0
4422,42.0,0.0,330.0,15.0,0.0
4423,66.0,48.0,60.0,13.0,0.0
4424,61.0,48.0,60.0,13.0,0.0
4425,61.0,48.0,90.0,12.0,0.0
4426,57.0,48.0,60.0,13.0,0.0
4427,54.0,0.0,60.0,13.0,0.0
4428,66.0,0.0,90.0,12.0,0.0
4429,50.0,48.0,60.0,13.0,0.0
4430,49.0,48.0,60.0,14.0,0.0
4431,68.0,0.0,90.0,12.0,0.0
4432,50.0,48.0,60.0,14.0,0.0
4433,47.0,48.0,60.0,14.0,0.0
4434,30.0,0.0,330.0,15.0,0.0
4435,42.0,48.0,60.0,14.0,0.0
4436,66.0,0.0,180.0,11.0,0.0
4437,61.0,48.0,180.0,11.0,0.0
4438,69.0,48.0,90.0,12.0,0.0
4439,49.0,0.0,60.0,14.0,0.0
4440,54.0,48.0,60.0,14.0,0.0
4441,68.0,0.0,60.0,12.0,0.0
4442,66.0,0.0,60.0,12.0,0.0
4443,57.0,48.0,90.0,14.0,0.0
4444,69.0,0.0,90.0,12.0,0.0
4445,54.0,48.0,60.0,14.0,0.0
4446,62.0,0.0,300.0,11.0,0.0
4447,71.0,48.0,180.0,12.0,0.0
4448,50.0,48.0,60.0,14.0,0.0
4449,47.0,48.0,60.0,14.0,0.0
4450,23.0,48.0,330.0,15.0,0.0
4451,43.0,48.0,60.0,14.0,0.0
4452,50.0,0.0,60.0,14.0,0.0
4453,69.0,0.0,60.0,12.0,0.0
4454,55.0,48.0,60.0,14.0,0.0
4455,67.0,48.0,60.0,12.0,0.0
4456,59.0,48.0,90.0,14.0,0.0
4457,71.0,48.0,90.0,12.0,0.0
4458,56.0,0.0,60.0,14.0,0.0
4459,68.0,0.0,180.0,11.0,0.0
4460,53.0,0.0,60.0,14.0,0.0
4461,73.0,0.0,390.0,12.0,0.0
4462,61.0,0.0,390.0,12.0,0.0
4463,49.0,48.0,60.0,14.0,0.0
4464,30.0,32.0,150.0,15.0,0.0
4465,42.0,48.0,60.0,14.0,0.0
4466,49.0,48.0,60.0,14.0,0.0
4467,69.0,0.0,60.0,11.0,0.0
4468,54.0,16.0,60.0,14.0,0.0
4469,68.0,0.0,60.0,11.0,0.0
4470,56.0,96.0,60.0,14.0,0.0
4471,57.0,96.0,90.0,14.0,0.0
4472,66.0,0.0,90.0,11.0,0.0
4473,61.0,96.0,90.0,2.0,0.0
4474,73.0,0.0,90.0,1.0,0.0
4475,66.0,0.0,90.0,1.0,0.0
4476,54.0,94.0,90.0,2.0,0.0
4477,56.0,94.0,90.0,2.0,0.0
4478,49.0,0.0,90.0,2.0,0.0
4479,68.0,0.0,90.0,1.0,0.0
4480,37.0,0.0,90.0,3.0,0.0
4481,37.0,2.0,90.0,15.0,0.0
4482,30.0,2.0,90.0,15.0,0.0
4483,30.0,0.0,90.0,3.0,0.0
4484,42.0,94.0,90.0,2.0,0.0
4485,57.0,0.0,90.0,2.0,0.0
4486,69.0,0.0,90.0,1.0,0.0
4487,32.0,2.0,90.0,15.0,0.0
4488,61.0,0.0,90.0,2.0,0.0
4489,44.0,0.0,90.0,2.0,0.0
4490,73.0,94.0,90.0,1.0,0.0
4491,32.0,0.0,90.0,3.0,0.0
4492,66.0,0.0,90.0,2.0,0.0
4493,45.0,0.0,90.0,2.0,0.0
4494,33.0,0.0,90.0,3.0,0.0
4495,78.0,94.0,90.0,1.0,0.0
4496,33.0,2.0,90.0,15.0,0.0
4497,61.0,0.0,90.0,2.0,0.0
4498,37.0,2.0,90.0,15.0,0.0
4499,49.0,0.0,90.0,2.0,0.0
4500,73.0,48.0,90.0,1.0,0.0
4501,37.0,0.0,90.0,3.0,0.0
4502,42.0,2.0,90.0,15.0,0.0
4503,42.0,48.0,90.0,3.0,0.0
4504,57.0,0.0,60.0,2.0,0.0
4505,54.0,0.0,90.0,2.0,0.0
4506,69.0,46.0,60.0,1.0,0.0
4507,56.0,0.0,60.0,2.0,0.0
4508,68.0,0.0,60.0,1.0,0.0
4509,66.0,46.0,60.0,1.0,0.0
4510,49.0,0.0,90.0,2.0,0.0
4511,54.0,0.0,60.0,2.0,0.0
4512,37.0,2.0,90.0,15.0,0.0
4513,37.0,46.0,90.0,3.0,0.0
4514,68.0,0.0,60.0,1.0,0.0
4515,56.0,0.0,60.0,2.0,0.0
4516,57.0,0.0,90.0,2.0,0.0
4517,69.0,0.0,90.0,1.0,0.0
4518,45.0,46.0,60.0,2.0,0.0
4519,33.0,2.0,60.0,15.0,0.0
4520,33.0,0.0,60.0,3.0,0.0
4521,32.0,2.0,60.0,15.0,0.0
4522,32.0,46.0,60.0,3.0,0.0
4523,44.0,0.0,60.0,2.0,0.0
4524,73.0,0.0,90.0,1.0,0.0
4525,61.0,0.0,90.0,2.0,0.0
4526,30.0,2.0,60.0,15.0,0.0
4527,42.0,0.0,60.0,2.0,0.0
4528,30.0,46.0,60.0,3.0,0.0
4529,44.0,94.0,60.0,2.0,0.0
4530,32.0,0.0,60.0,3.0,0.0
4531,32.0,2.0,60.0,15.0,0.0
4532,66.0,0.0,90.0,2.0,0.0
4533,78.0,0.0,90.0,1.0,0.0
4534,33.0,2.0,90.0,15.0,0.0
4535,45.0,94.0,90.0,2.0,0.0
4536,33.0,0.0,90.0,3.0,0.0
4537,73.0,0.0,90.0,1.0,0.0
4538,61.0,0.0,90.0,2.0,0.0
4539,37.0,0.0,90.0,3.0,0.0
4540,49.0,48.0,90.0,2.0,0.0
4541,37.0,2.0,90.0,15.0,0.0
4542,42.0,48.0,90.0,3.0,0.0
4543,42.0,2.0,90.0,15.0,0.0
4544,57.0,0.0,60.0,2.0,0.0
4545,69.0,46.0,60.0,1.0,0.0
4546,54.0,0.0,90.0,2.0,0.0
4547,56.0,0.0,60.0,2.0,0.0
4548,68.0,0.0,60.0,1.0,0.0
4549,49.0,0.0,90.0,2.0,0.0
4550,66.0,0.0,60.0,1.0,0.0
4551,54.0,46.0,60.0,2.0,0.0
4552,37.0,0.0,90.0,3.0,0.0
4553,37.0,2.0,90.0,15.0,0.0
4554,68.0,0.0,60.0,1.0,0.0
4555,56.0,46.0,60.0,2.0,0.0
4556,45.0,46.0,60.0,2.0,0.0
4557,69.0,0.0,90.0,1.0,0.0
4558,33.0,2.0,60.0,15.0,0.0
4559,57.0,0.0,90.0,2.0,0.0
4560,33.0,0.0,60.0,3.0,0.0
4561,32.0,2.0,60.0,15.0,0.0
4562,32.0,0.0,60.0,3.0,0.0
4563,44.0,46.0,60.0,2.0,0.0
4564,30.0,46.0,60.0,3.0,0.0
4565,61.0,0.0,150.0,2.0,0.0
4566,73.0,46.0,150.0,1.0,0.0
4567,42.0,0.0,60.0,2.0,0.0
4568,30.0,2.0,60.0,15.0,0.0
4569,44.0,0.0,60.0,2.0,0.0
4570,32.0,2.0,60.0,15.0,0.0
4571,32.0,48.0,60.0,3.0,0.0
4572,45.0,0.0,90.0,2.0,0.0
4573,33.0,2.0,90.0,15.0,0.0
4574,33.0,48.0,90.0,3.0,0.0
4575,59.0,0.0,60.0,2.0,0.0
4576,71.0,0.0,60.0,1.0,0.0
4577,57.0,0.0,60.0,2.0,0.0
4578,37.0,2.0,150.0,15.0,0.0
4579,37.0,0.0,150.0,3.0,0.0
4580,69.0,48.0,60.0,1.0,0.0
4581,49.0,46.0,150.0,2.0,0.0
4582,59.0,46.0,60.0,2.0,0.0
4583,71.0,0.0,60.0,1.0,0.0
4584,61.0,0.0,90.0,2.0,0.0
4585,73.0,0.0,90.0,1.0,0.0
4586,35.0,46.0,60.0,3.0,0.0
4587,47.0,0.0,60.0,2.0,0.0
4588,35.0,2.0,60.0,15.0,0.0
4589,76.0,0.0,90.0,1.0,0.0
4590,64.0,0.0,90.0,2.0,0.0
4591,45.0,46.0,60.0,2.0,0.0
4592,33.0,2.0,60.0,15.0,0.0
4593,33.0,0.0,60.0,3.0,0.0
4594,35.0,2.0,60.0,15.0,0.0
4595,35.0,0.0,60.0,3.0,0.0
4596,47.0,94.0,60.0,2.0,0.0
4597,69.0,0.0,90.0,2.0,0.0
4598,81.0,0.0,90.0,1.0,0.0
4599,37.0,0.0,90.0,3.0,0.0
4600,49.0,94.0,90.0,2.0,0.0
4601,37.0,2.0,90.0,15.0,0.0
4602,52.0,0.0,90.0,2.0,0.0
4603,64.0,48.0,90.0,2.0,0.0
4604,40.0,2.0,90.0,15.0,0.0
4605,76.0,0.0,90.0,1.0,0.0
4606,40.0,0.0,90.0,3.0,0.0
4607,57.0,0.0,90.0,2.0,0.0
4608,61.0,46.0,60.0,2.0,0.0
4609,45.0,0.0,90.0,3.0,0.0
4610,73.0,0.0,60.0,1.0,0.0
4611,45.0,2.0,90.0,15.0,0.0
4612,71.0,0.0,60.0,1.0,0.0
4613,59.0,48.0,60.0,2.0,0.0
4614,69.0,0.0,60.0,1.0,0.0
4615,40.0,2.0,90.0,15.0,0.0
4616,52.0,0.0,90.0,2.0,0.0
4617,40.0,46.0,90.0,3.0,0.0
4618,57.0,46.0,60.0,2.0,0.0
4619,71.0,0.0,60.0,1.0,0.0
4620,59.0,0.0,60.0,2.0,0.0
4621,49.0,0.0,60.0,2.0,0.0
4622,37.0,2.0,60.0,15.0,0.0
4623,61.0,46.0,90.0,2.0,0.0
4624,37.0,46.0,60.0,3.0,0.0
4625,73.0,0.0,90.0,1.0,0.0
4626,35.0,2.0,60.0,15.0,0.0
4627,35.0,0.0,60.0,3.0,0.0
4628,47.0,0.0,60.0,2.0,0.0
4629,76.0,0.0,90.0,1.0,0.0
4630,33.0,0.0,60.0,3.0,0.0
4631,64.0,0.0,90.0,2.0,0.0
4632,33.0,2.0,60.0,15.0,0.0
4633,45.0,46.0,60.0,2.0,0.0
4634,35.0,94.0,60.0,3.0,0.0
4635,35.0,2.0,60.0,15.0,0.0
4636,47.0,0.0,60.0,2.0,0.0
4637,81.0,94.0,90.0,1.0,0.0
4638,49.0,0.0,90.0,2.0,0.0
4639,37.0,0.0,90.0,3.0,0.0
4640,37.0,2.0,90.0,15.0,0.0
4641,69.0,0.0,90.0,2.0,0.0
4642,52.0,94.0,90.0,2.0,0.0
4643,40.0,2.0,90.0,15.0,0.0
4644,80.0,0.0,90.0,1.0,0.0
4645,40.0,0.0,90.0,3.0,0.0
4646,68.0,0.0,90.0,2.0,0.0
4647,78.0,0.0,90.0,1.0,0.0
4648,45.0,2.0,90.0,15.0,0.0
4649,45.0,0.0,90.0,3.0,0.0
4650,57.0,0.0,90.0,2.0,0.0
4651,66.0,94.0,90.0,2.0,0.0
4652,44.0,0.0,90.0,3.0,0.0
4653,56.0,94.0,90.0,2.0,0.0
4654,44.0,2.0,90.0,15.0,0.0
4655,42.0,2.0,90.0,15.0,0.0
4656,54.0,0.0,90.0,2.0,0.0
4657,42.0,0.0,90.0,3.0,0.0
4658,61.0,94.0,15.0,2.0,0.0
4659,73.0,0.0,15.0,1.0,0.0
4660,49.0,0.0,90.0,2.0,0.0
4661,37.0,0.0,90.0,3.0,0.0
4662,37.0,2.0,90.0,15.0,0.0
4663,66.0,0.0,90.0,1.0,0.0
4664,54.0,94.0,90.0,2.0,0.0
4665,37.0,94.0,90.0,3.0,0.0
4666,49.0,0.0,90.0,2.0,0.0
4667,37.0,2.0,90.0,15.0,0.0
4668,56.0,0.0,90.0,2.0,0.0
4669,68.0,0.0,90.0,1.0,0.0
4670,30.0,2.0,90.0,15.0,0.0
4671,57.0,94.0,90.0,2.0,0.0
4672,42.0,0.0,90.0,2.0,0.0
4673,69.0,0.0,90.0,1.0,0.0
4674,30.0,0.0,90.0,3.0,0.0
4675,44.0,0.0,90.0,2.0,0.0
4676,73.0,0.0,90.0,1.0,0.0
4677,32.0,2.0,90.0,15.0,0.0
4678,61.0,94.0,90.0,2.0,0.0
4679,32.0,0.0,90.0,3.0,0.0
4680,33.0,2.0,90.0,15.0,0.0
4681,78.0,94.0,90.0,1.0,0.0
4682,33.0,0.0,90.0,3.0,0.0
4683,45.0,0.0,90.0,2.0,0.0
4684,66.0,0.0,90.0,2.0,0.0
4685,49.0,0.0,90.0,2.0,0.0
4686,37.0,48.0,90.0,3.0,0.0
4687,37.0,2.0,90.0,15.0,0.0
4688,61.0,0.0,90.0,2.0,0.0
4689,73.0,0.0,90.0,1.0,0.0
4690,42.0,2.0,90.0,15.0,0.0
4691,54.0,0.0,90.0,2.0,0.0
4692,57.0,46.0,60.0,2.0,0.0
4693,69.0,0.0,60.0,1.0,0.0
4694,42.0,0.0,90.0,3.0,0.0
4695,68.0,0.0,60.0,1.0,0.0
4696,56.0,48.0,60.0,2.0,0.0
4697,66.0,0.0,60.0,1.0,0.0
4698,49.0,0.0,90.0,2.0,0.0
4699,37.0,0.0,90.0,3.0,0.0
4700,37.0,2.0,90.0,15.0,0.0
4701,54.0,46.0,60.0,2.0,0.0
4702,68.0,0.0,60.0,1.0,0.0
4703,56.0,46.0,60.0,2.0,0.0
4704,33.0,46.0,60.0,3.0,0.0
4705,69.0,46.0,90.0,1.0,0.0
4706,45.0,0.0,60.0,2.0,0.0
4707,57.0,0.0,90.0,2.0,0.0
4708,33.0,2.0,60.0,15.0,0.0
4709,32.0,0.0,60.0,3.0,0.0
4710,32.0,2.0,60.0,15.0,0.0
4711,44.0,0.0,60.0,2.0,0.0
4712,42.0,0.0,60.0,2.0,0.0
4713,73.0,0.0,90.0,1.0,0.0
4714,30.0,46.0,60.0,3.0,0.0
4715,61.0,0.0,90.0,2.0,0.0
4716,30.0,2.0,60.0,15.0,0.0
4717,44.0,94.0,60.0,2.0,0.0
4718,32.0,0.0,60.0,3.0,0.0
4719,32.0,2.0,60.0,15.0,0.0
4720,45.0,0.0,90.0,2.0,0.0
4721,66.0,94.0,90.0,2.0,0.0
4722,33.0,0.0,90.0,3.0,0.0
4723,78.0,0.0,90.0,1.0,0.0
4724,33.0,2.0,90.0,15.0,0.0
4725,37.0,0.0,90.0,3.0,0.0
4726,73.0,0.0,90.0,1.0,0.0
4727,37.0,2.0,90.0,15.0,0.0
4728,49.0,48.0,90.0,2.0,0.0
4729,61.0,0.0,90.0,2.0,0.0
4730,42.0,48.0,90.0,3.0,0.0
4731,57.0,46.0,60.0,2.0,0.0
4732,69.0,0.0,60.0,1.0,0.0
4733,42.0,2.0,90.0,15.0,0.0
4734,56.0,0.0,60.0,2.0,0.0
4735,68.0,0.0,60.0,1.0,0.0
4736,54.0,0.0,15.0,2.0,0.0
4737,66.0,0.0,60.0,1.0,0.0
4738,37.0,0.0,90.0,3.0,0.0
4739,37.0,2.0,90.0,15.0,0.0
4740,49.0,46.0,90.0,2.0,0.0
4741,68.0,0.0,60.0,1.0,0.0
4742,56.0,0.0,60.0,2.0,0.0
4743,33.0,46.0,60.0,3.0,0.0
4744,33.0,2.0,60.0,15.0,0.0
4745,57.0,0.0,90.0,2.0,0.0
4746,45.0,0.0,60.0,2.0,0.0
4747,69.0,0.0,90.0,1.0,0.0
4748,32.0,2.0,60.0,15.0,0.0
4749,44.0,0.0,60.0,2.0,0.0
4750,32.0,46.0,60.0,3.0,0.0
4751,61.0,46.0,150.0,2.0,0.0
4752,73.0,0.0,150.0,1.0,0.0
4753,30.0,46.0,60.0,3.0,0.0
4754,30.0,2.0,60.0,15.0,0.0
4755,42.0,0.0,60.0,2.0,0.0
4756,44.0,48.0,60.0,2.0,0.0
4757,32.0,2.0,60.0,15.0,0.0
4758,32.0,0.0,60.0,3.0,0.0
4759,45.0,0.0,90.0,2.0,0.0
4760,33.0,2.0,90.0,15.0,0.0
4761,33.0,0.0,90.0,3.0,0.0
4762,71.0,48.0,60.0,1.0,0.0
4763,59.0,0.0,60.0,2.0,0.0
4764,57.0,48.0,60.0,2.0,0.0
4765,49.0,0.0,150.0,2.0,0.0
4766,37.0,2.0,150.0,15.0,0.0
4767,69.0,0.0,60.0,1.0,0.0
4768,37.0,46.0,150.0,3.0,0.0
4769,71.0,46.0,60.0,1.0,0.0
4770,59.0,0.0,60.0,2.0,0.0
4771,73.0,0.0,90.0,1.0,0.0
4772,61.0,0.0,90.0,2.0,0.0
4773,35.0,2.0,60.0,15.0,0.0
4774,47.0,46.0,60.0,2.0,0.0
4775,35.0,0.0,60.0,3.0,0.0
4776,45.0,46.0,60.0,2.0,0.0
4777,64.0,0.0,90.0,2.0,0.0
4778,76.0,94.0,90.0,1.0,0.0
4779,33.0,0.0,60.0,3.0,0.0
4780,33.0,2.0,60.0,15.0,0.0
4781,47.0,0.0,60.0,2.0,0.0
4782,35.0,0.0,60.0,3.0,0.0
4783,35.0,2.0,60.0,15.0,0.0
4784,37.0,94.0,90.0,3.0,0.0
4785,69.0,0.0,90.0,2.0,0.0
4786,37.0,2.0,90.0,15.0,0.0
4787,49.0,0.0,90.0,2.0,0.0
4788,81.0,0.0,90.0,1.0,0.0
4789,40.0,2.0,90.0,15.0,0.0
4790,40.0,48.0,90.0,3.0,0.0
4791,52.0,0.0,90.0,2.0,0.0
4792,76.0,0.0,90.0,1.0,0.0
4793,64.0,0.0,90.0,2.0,0.0
4794,45.0,2.0,90.0,15.0,0.0
4795,61.0,46.0,60.0,2.0,0.0
4796,73.0,0.0,60.0,1.0,0.0
4797,45.0,48.0,90.0,3.0,0.0
4798,71.0,0.0,60.0,1.0,0.0
4799,59.0,0.0,60.0,2.0,0.0
4800,40.0,46.0,90.0,3.0,0.0
4801,69.0,0.0,60.0,1.0,0.0
4802,57.0,0.0,15.0,2.0,0.0
4803,52.0,0.0,90.0,2.0,0.0
4804,40.0,2.0,90.0,15.0,0.0
4805,71.0,0.0,60.0,1.0,0.0
4806,59.0,0.0,60.0,2.0,0.0
4807,61.0,0.0,90.0,2.0,0.0
4808,37.0,2.0,60.0,15.0,0.0
4809,73.0,0.0,90.0,1.0,0.0
4810,49.0,0.0,60.0,2.0,0.0
4811,37.0,46.0,60.0,3.0,0.0
4812,35.0,0.0,60.0,3.0,0.0
4813,47.0,46.0,60.0,2.0,0.0
4814,35.0,2.0,60.0,15.0,0.0
4815,33.0,2.0,60.0,15.0,0.0
4816,33.0,0.0,60.0,3.0,0.0
4817,64.0,0.0,90.0,2.0,0.0
4818,45.0,46.0,60.0,2.0,0.0
4819,76.0,0.0,90.0,1.0,0.0
4820,35.0,0.0,60.0,3.0,0.0
4821,35.0,2.0,60.0,15.0,0.0
4822,47.0,94.0,60.0,2.0,0.0
4823,37.0,0.0,90.0,3.0,0.0
4824,69.0,0.0,90.0,2.0,0.0
4825,37.0,2.0,90.0,15.0,0.0
4826,81.0,94.0,90.0,1.0,0.0
4827,49.0,0.0,90.0,2.0,0.0
4828,68.0,94.0,90.0,2.0,0.0
4829,52.0,0.0,90.0,2.0,0.0
4830,40.0,0.0,90.0,3.0,0.0
4831,80.0,0.0,90.0,1.0,0.0
4832,40.0,2.0,90.0,15.0,0.0
4833,78.0,0.0,90.0,1.0,0.0
4834,57.0,94.0,90.0,2.0,0.0
4835,45.0,0.0,90.0,3.0,0.0
4836,45.0,2.0,90.0,15.0,0.0
4837,66.0,0.0,90.0,2.0,0.0
4838,44.0,2.0,90.0,15.0,0.0
4839,44.0,94.0,90.0,3.0,0.0
4840,61.0,0.0,180.0,2.0,0.0
4841,73.0,0.0,180.0,1.0,0.0
4842,56.0,0.0,90.0,2.0,0.0
4843,42.0,2.0,90.0,15.0,0.0
4844,54.0,0.0,90.0,2.0,0.0
4845,42.0,94.0,90.0,3.0,0.0
4846,37.0,2.0,90.0,15.0,0.0
4847,49.0,94.0,90.0,2.0,0.0
4848,37.0,0.0,15.0,3.0,0.0
4849,77.0,30.0,150.0,9.0,0.0
4850,37.0,2.0,90.0,15.0,0.0
4851,49.0,0.0,90.0,2.0,0.0
4852,51.0,0.0,90.0,2.0,0.0
4853,39.0,2.0,90.0,15.0,0.0
4854,39.0,94.0,90.0,3.0,0.0
4855,85.0,0.0,90.0,0.0,0.0
4856,53.0,0.0,90.0,2.0,0.0
4857,73.0,0.0,90.0,0.0,0.0
4858,41.0,94.0,90.0,3.0,0.0
4859,41.0,2.0,90.0,15.0,0.0
4860,56.0,0.0,90.0,2.0,0.0
4861,71.0,0.0,90.0,0.0,0.0
4862,83.0,94.0,90.0,0.0,0.0
4863,44.0,0.0,90.0,3.0,0.0
4864,44.0,2.0,90.0,15.0,0.0
4865,81.0,0.0,90.0,0.0,0.0
4866,61.0,0.0,90.0,2.0,0.0
4867,69.0,94.0,90.0,0.0,0.0
4868,49.0,0.0,90.0,3.0,0.0
4869,49.0,2.0,90.0,15.0,0.0
4870,57.0,0.0,90.0,2.0,0.0
4871,78.0,0.0,90.0,0.0,0.0
4872,45.0,2.0,90.0,15.0,0.0
4873,45.0,0.0,90.0,3.0,0.0
4874,66.0,46.0,90.0,0.0,0.0
4875,61.0,0.0,90.0,0.0,0.0
4876,40.0,2.0,60.0,15.0,0.0
4877,52.0,0.0,60.0,2.0,0.0
4878,40.0,46.0,60.0,3.0,0.0
4879,73.0,46.0,90.0,0.0,0.0
4880,42.0,2.0,60.0,15.0,0.0
4881,54.0,0.0,60.0,2.0,0.0
4882,42.0,0.0,60.0,3.0,0.0
4883,44.0,2.0,60.0,15.0,0.0
4884,44.0,46.0,60.0,3.0,0.0
4885,76.0,48.0,90.0,0.0,0.0
4886,56.0,0.0,60.0,2.0,0.0
4887,64.0,0.0,90.0,0.0,0.0
4888,52.0,0.0,60.0,2.0,0.0
4889,40.0,2.0,60.0,15.0,0.0
4890,40.0,0.0,60.0,3.0,0.0
4891,69.0,46.0,60.0,0.0,0.0
4892,81.0,0.0,60.0,0.0,0.0
4893,42.0,48.0,90.0,3.0,0.0
4894,42.0,2.0,90.0,15.0,0.0
4895,54.0,0.0,90.0,2.0,0.0
4896,68.0,0.0,60.0,0.0,0.0
4897,80.0,0.0,60.0,0.0,0.0
4898,66.0,46.0,60.0,0.0,0.0
4899,50.0,46.0,90.0,2.0,0.0
4900,38.0,2.0,90.0,15.0,0.0
4901,78.0,0.0,60.0,0.0,0.0
4902,38.0,0.0,90.0,3.0,0.0
4903,81.0,0.0,60.0,0.0,0.0
4904,69.0,0.0,60.0,0.0,0.0
4905,80.0,0.0,90.0,0.0,0.0
4906,35.0,46.0,60.0,3.0,0.0
4907,35.0,2.0,60.0,15.0,0.0
4908,68.0,0.0,90.0,0.0,0.0
4909,47.0,0.0,60.0,2.0,0.0
4910,49.0,0.0,60.0,2.0,0.0
4911,37.0,46.0,60.0,3.0,0.0
4912,37.0,2.0,60.0,15.0,0.0
4913,50.0,46.0,60.0,2.0,0.0
4914,38.0,0.0,60.0,3.0,0.0
4915,83.0,0.0,90.0,0.0,0.0
4916,38.0,2.0,60.0,15.0,0.0
4917,71.0,0.0,90.0,0.0,0.0
4918,47.0,48.0,60.0,2.0,0.0
4919,35.0,0.0,60.0,3.0,0.0
4920,35.0,2.0,60.0,15.0,0.0
4921,32.0,0.0,90.0,3.0,0.0
4922,32.0,2.0,90.0,15.0,0.0
4923,86.0,0.0,60.0,0.0,0.0
4924,74.0,46.0,60.0,0.0,0.0
4925,44.0,48.0,90.0,2.0,0.0
4926,85.0,0.0,60.0,0.0,0.0
4927,73.0,0.0,60.0,0.0,0.0
4928,35.0,2.0,90.0,15.0,0.0
4929,35.0,0.0,90.0,3.0,0.0
4930,83.0,0.0,60.0,0.0,0.0
4931,71.0,46.0,60.0,0.0,0.0
4932,47.0,0.0,90.0,2.0,0.0
4933,74.0,96.0,60.0,0.0,0.0
4934,86.0,0.0,60.0,0.0,0.0
4935,45.0,0.0,150.0,2.0,0.0
4936,33.0,2.0,150.0,15.0,0.0
4937,33.0,46.0,150.0,3.0,0.0
4938,78.0,0.0,90.0,0.0,0.0
4939,90.0,46.0,90.0,0.0,0.0
4940,81.0,0.0,90.0,0.0,0.0
4941,93.0,0.0,90.0,0.0,0.0
4942,32.0,2.0,60.0,15.0,0.0
4943,32.0,0.0,60.0,3.0,0.0
4944,44.0,94.0,60.0,2.0,0.0
4945,30.0,0.0,90.0,3.0,0.0
4946,77.0,30.0,150.0,9.0,0.0
4947,42.0,64.0,90.0,2.0,0.0
4948,30.0,2.0,90.0,15.0,0.0
4949,44.0,0.0,90.0,2.0,0.0
4950,32.0,2.0,90.0,15.0,0.0
4951,32.0,94.0,90.0,3.0,0.0
4952,54.0,94.0,90.0,0.0,0.0
4953,45.0,0.0,90.0,2.0,0.0
4954,66.0,0.0,90.0,0.0,0.0
4955,33.0,2.0,90.0,15.0,0.0
4956,33.0,0.0,90.0,3.0,0.0
4957,68.0,0.0,90.0,0.0,0.0
4958,37.0,94.0,90.0,3.0,0.0
4959,56.0,0.0,90.0,0.0,0.0
4960,37.0,2.0,90.0,15.0,0.0
4961,49.0,0.0,90.0,2.0,0.0
4962,42.0,2.0,90.0,15.0,0.0
4963,54.0,0.0,90.0,2.0,0.0
4964,57.0,94.0,90.0,0.0,0.0
4965,42.0,0.0,90.0,3.0,0.0
4966,69.0,0.0,90.0,0.0,0.0
4967,40.0,46.0,90.0,3.0,0.0
4968,61.0,0.0,90.0,0.0,0.0
4969,52.0,0.0,90.0,2.0,0.0
4970,40.0,2.0,90.0,15.0,0.0
4971,73.0,0.0,90.0,0.0,0.0
4972,78.0,0.0,90.0,0.0,0.0
4973,38.0,2.0,60.0,15.0,0.0
4974,66.0,0.0,90.0,0.0,0.0
4975,50.0,46.0,60.0,2.0,0.0
4976,38.0,0.0,60.0,3.0,0.0
4977,35.0,2.0,60.0,15.0,0.0
4978,47.0,46.0,60.0,2.0,0.0
4979,35.0,0.0,60.0,3.0,0.0
4980,37.0,2.0,60.0,15.0,0.0
4981,64.0,48.0,90.0,0.0,0.0
4982,49.0,0.0,60.0,2.0,0.0
4983,37.0,46.0,60.0,3.0,0.0
4984,76.0,0.0,90.0,0.0,0.0
4985,54.0,0.0,60.0,2.0,0.0
4986,42.0,2.0,60.0,15.0,0.0
4987,42.0,0.0,60.0,3.0,0.0
4988,74.0,0.0,60.0,0.0,0.0
4989,47.0,0.0,90.0,3.0,0.0
4990,59.0,0.0,90.0,2.0,0.0
4991,47.0,2.0,90.0,15.0,0.0
4992,62.0,46.0,60.0,0.0,0.0
4993,71.0,0.0,60.0,0.0,0.0
4994,59.0,48.0,60.0,0.0,0.0
4995,57.0,0.0,90.0,2.0,0.0
4996,45.0,2.0,90.0,15.0,0.0
4997,61.0,0.0,60.0,0.0,0.0
4998,73.0,46.0,60.0,0.0,0.0
4999,45.0,0.0,90.0,3.0,0.0
5000,66.0,46.0,60.0,0.0,0.0
5001,78.0,0.0,60.0,0.0,0.0
5002,43.0,46.0,60.0,3.0,0.0
5003,55.0,0.0,60.0,2.0,0.0
5004,83.0,0.0,90.0,0.0,0.0
5005,43.0,2.0,60.0,15.0,0.0
5006,71.0,0.0,90.0,0.0,0.0
5007,40.0,46.0,60.0,3.0,0.0
5008,40.0,2.0,60.0,15.0,0.0
5009,52.0,0.0,60.0,2.0,0.0
5010,69.0,0.0,90.0,0.0,0.0
5011,42.0,2.0,60.0,15.0,0.0
5012,42.0,0.0,60.0,3.0,0.0
5013,81.0,0.0,90.0,0.0,0.0
5014,54.0,46.0,60.0,2.0,0.0
5015,59.0,0.0,60.0,2.0,0.0
5016,47.0,2.0,60.0,15.0,0.0
5017,47.0,48.0,60.0,3.0,0.0
5018,79.0,0.0,60.0,0.0,0.0
5019,67.0,46.0,60.0,0.0,0.0
5020,52.0,2.0,90.0,15.0,0.0
5021,64.0,0.0,90.0,2.0,0.0
5022,52.0,0.0,90.0,3.0,0.0
5023,64.0,48.0,60.0,0.0,0.0
5024,76.0,0.0,60.0,0.0,0.0
5025,78.0,0.0,60.0,0.0,0.0
5026,50.0,94.0,90.0,3.0,0.0
5027,66.0,46.0,60.0,0.0,0.0
5028,50.0,2.0,90.0,15.0,0.0
5029,62.0,0.0,90.0,2.0,0.0
5030,83.0,0.0,60.0,0.0,0.0
5031,71.0,0.0,60.0,0.0,0.0
5032,56.0,0.0,90.0,3.0,0.0
5033,49.0,2.0,90.0,15.0,0.0
5034,77.0,0.0,90.0,0.0,0.0
5035,89.0,0.0,90.0,0.0,0.0
5036,83.0,0.0,90.0,0.0,0.0
5037,61.0,0.0,90.0,2.0,0.0
5038,49.0,94.0,90.0,3.0,0.0
5039,54.0,0.0,90.0,2.0,0.0
5040,42.0,2.0,90.0,15.0,0.0
5041,42.0,94.0,90.0,3.0,0.0
5042,78.0,0.0,90.0,0.0,0.0
5043,90.0,0.0,90.0,0.0,0.0
5044,81.0,0.0,90.0,0.0,0.0
5045,37.0,2.0,90.0,15.0,0.0
5046,49.0,0.0,90.0,2.0,0.0
5047,37.0,64.0,90.0,3.0,0.0
5048,77.0,30.0,150.0,9.0,0.0
5049,51.0,94.0,90.0,2.0,0.0
5050,39.0,0.0,90.0,3.0,0.0
5051,39.0,2.0,90.0,15.0,0.0
5052,41.0,2.0,90.0,15.0,0.0
5053,41.0,0.0,90.0,3.0,0.0
5054,73.0,0.0,90.0,0.0,0.0
5055,85.0,94.0,90.0,0.0,0.0
5056,53.0,0.0,90.0,2.0,0.0
5057,71.0,0.0,90.0,0.0,0.0
5058,56.0,0.0,90.0,2.0,0.0
5059,44.0,2.0,90.0,15.0,0.0
5060,44.0,0.0,90.0,3.0,0.0
5061,83.0,94.0,90.0,0.0,0.0
5062,61.0,94.0,90.0,2.0,0.0
5063,81.0,0.0,90.0,0.0,0.0
5064,49.0,0.0,90.0,3.0,0.0
5065,69.0,0.0,90.0,0.0,0.0
5066,49.0,2.0,90.0,15.0,0.0
5067,57.0,0.0,90.0,2.0,0.0
5068,78.0,46.0,90.0,0.0,0.0
5069,66.0,0.0,90.0,0.0,0.0
5070,45.0,2.0,90.0,15.0,0.0
5071,45.0,0.0,90.0,3.0,0.0
5072,40.0,46.0,60.0,3.0,0.0
5073,73.0,46.0,90.0,0.0,0.0
5074,40.0,2.0,60.0,15.0,0.0
5075,61.0,0.0,90.0,0.0,0.0
5076,52.0,0.0,60.0,2.0,0.0
5077,42.0,2.0,60.0,15.0,0.0
5078,54.0,0.0,60.0,2.0,0.0
5079,42.0,0.0,60.0,3.0,0.0
5080,64.0,48.0,90.0,0.0,0.0
5081,44.0,46.0,60.0,3.0,0.0
5082,44.0,2.0,60.0,15.0,0.0
5083,56.0,0.0,60.0,2.0,0.0
5084,76.0,0.0,90.0,0.0,0.0
5085,40.0,0.0,60.0,3.0,0.0
5086,52.0,0.0,60.0,2.0,0.0
5087,40.0,2.0,60.0,15.0,0.0
5088,42.0,0.0,90.0,3.0,0.0
5089,54.0,0.0,90.0,2.0,0.0
5090,81.0,0.0,60.0,0.0,0.0
5091,42.0,2.0,90.0,15.0,0.0
5092,69.0,46.0,60.0,0.0,0.0
5093,68.0,0.0,60.0,0.0,0.0
5094,80.0,48.0,60.0,0.0,0.0
5095,66.0,46.0,60.0,0.0,0.0
5096,38.0,0.0,90.0,3.0,0.0
5097,78.0,0.0,60.0,0.0,0.0
5098,38.0,2.0,90.0,15.0,0.0
5099,50.0,46.0,90.0,2.0,0.0
5100,69.0,0.0,60.0,0.0,0.0
5101,81.0,0.0,60.0,0.0,0.0
5102,35.0,46.0,60.0,3.0,0.0
5103,47.0,0.0,60.0,2.0,0.0
5104,68.0,0.0,90.0,0.0,0.0
5105,35.0,2.0,60.0,15.0,0.0
5106,80.0,46.0,90.0,0.0,0.0
5107,49.0,0.0,60.0,2.0,0.0
5108,37.0,0.0,60.0,3.0,0.0
5109,37.0,2.0,60.0,15.0,0.0
5110,38.0,2.0,60.0,15.0,0.0
5111,50.0,0.0,60.0,2.0,0.0
5112,38.0,46.0,60.0,3.0,0.0
5113,71.0,0.0,90.0,0.0,0.0
5114,83.0,0.0,90.0,0.0,0.0
5115,35.0,0.0,60.0,3.0,0.0
5116,47.0,48.0,60.0,2.0,0.0
5117,35.0,2.0,60.0,15.0,0.0
5118,86.0,0.0,60.0,0.0,0.0
5119,32.0,48.0,90.0,3.0,0.0
5120,32.0,2.0,90.0,15.0,0.0
5121,44.0,0.0,90.0,2.0,0.0
5122,74.0,46.0,60.0,0.0,0.0
5123,73.0,0.0,60.0,0.0,0.0
5124,85.0,0.0,60.0,0.0,0.0
5125,71.0,46.0,60.0,0.0,0.0
5126,47.0,96.0,90.0,2.0,0.0
5127,35.0,2.0,90.0,15.0,0.0
5128,83.0,0.0,60.0,0.0,0.0
5129,35.0,0.0,90.0,3.0,0.0
5130,86.0,0.0,60.0,0.0,0.0
5131,74.0,0.0,60.0,0.0,0.0
5132,33.0,0.0,150.0,3.0,0.0
5133,90.0,0.0,90.0,0.0,0.0
5134,33.0,2.0,150.0,15.0,0.0
5135,78.0,46.0,90.0,0.0,0.0
5136,45.0,46.0,150.0,2.0,0.0
5137,93.0,94.0,90.0,0.0,0.0
5138,81.0,0.0,90.0,0.0,0.0
5139,44.0,0.0,60.0,2.0,0.0
5140,32.0,0.0,60.0,3.0,0.0
5141,32.0,2.0,60.0,15.0,0.0
5142,30.0,64.0,90.0,3.0,0.0
5143,42.0,0.0,90.0,2.0,0.0
5144,77.0,30.0,150.0,9.0,0.0
5145,30.0,2.0,90.0,15.0,0.0
5146,32.0,2.0,90.0,15.0,0.0
5147,44.0,0.0,90.0,2.0,0.0
5148,32.0,94.0,90.0,3.0,0.0
5149,45.0,94.0,90.0,2.0,0.0
5150,54.0,0.0,90.0,0.0,0.0
5151,33.0,2.0,90.0,15.0,0.0
5152,33.0,0.0,90.0,3.0,0.0
5153,66.0,0.0,90.0,0.0,0.0
5154,49.0,0.0,90.0,2.0,0.0
5155,37.0,2.0,90.0,15.0,0.0
5156,56.0,0.0,90.0,0.0,0.0
5157,37.0,0.0,90.0,3.0,0.0
5158,68.0,94.0,90.0,0.0,0.0
5159,69.0,94.0,90.0,0.0,0.0
5160,42.0,2.0,90.0,15.0,0.0
5161,42.0,0.0,90.0,3.0,0.0
5162,54.0,0.0,90.0,2.0,0.0
5163,57.0,0.0,90.0,0.0,0.0
5164,40.0,0.0,90.0,3.0,0.0
5165,52.0,0.0,90.0,2.0,0.0
5166,61.0,0.0,90.0,0.0,0.0
5167,73.0,46.0,90.0,0.0,0.0
5168,40.0,2.0,90.0,15.0,0.0
5169,50.0,0.0,60.0,2.0,0.0
5170,38.0,46.0,60.0,3.0,0.0
5171,66.0,0.0,90.0,0.0,0.0
5172,78.0,46.0,90.0,0.0,0.0
5173,38.0,2.0,60.0,15.0,0.0
5174,35.0,2.0,60.0,15.0,0.0
5175,47.0,0.0,60.0,2.0,0.0
5176,35.0,0.0,60.0,3.0,0.0
5177,64.0,0.0,90.0,0.0,0.0
5178,37.0,46.0,60.0,3.0,0.0
5179,37.0,2.0,60.0,15.0,0.0
5180,49.0,0.0,60.0,2.0,0.0
5181,76.0,48.0,90.0,0.0,0.0
5182,42.0,2.0,60.0,15.0,0.0
5183,54.0,0.0,60.0,2.0,0.0
5184,42.0,0.0,60.0,3.0,0.0
5185,47.0,2.0,90.0,15.0,0.0
5186,47.0,0.0,90.0,3.0,0.0
5187,59.0,0.0,90.0,2.0,0.0
5188,62.0,0.0,60.0,0.0,0.0
5189,74.0,46.0,60.0,0.0,0.0
5190,59.0,48.0,60.0,0.0,0.0
5191,71.0,0.0,60.0,0.0,0.0
5192,45.0,0.0,90.0,3.0,0.0
5193,61.0,0.0,60.0,0.0,0.0
5194,73.0,46.0,60.0,0.0,0.0
5195,57.0,46.0,90.0,2.0,0.0
5196,45.0,2.0,90.0,15.0,0.0
5197,66.0,0.0,60.0,0.0,0.0
5198,78.0,0.0,60.0,0.0,0.0
5199,43.0,2.0,60.0,15.0,0.0
5200,43.0,46.0,60.0,3.0,0.0
5201,83.0,0.0,90.0,0.0,0.0
5202,71.0,0.0,90.0,0.0,0.0
5203,55.0,0.0,60.0,2.0,0.0
5204,52.0,0.0,60.0,2.0,0.0
5205,40.0,2.0,60.0,15.0,0.0
5206,40.0,46.0,60.0,3.0,0.0
5207,42.0,2.0,60.0,15.0,0.0
5208,81.0,0.0,90.0,0.0,0.0
5209,69.0,0.0,90.0,0.0,0.0
5210,42.0,0.0,60.0,3.0,0.0
5211,54.0,46.0,60.0,2.0,0.0
5212,47.0,48.0,60.0,3.0,0.0
5213,47.0,2.0,60.0,15.0,0.0
5214,59.0,0.0,60.0,2.0,0.0
5215,79.0,46.0,60.0,0.0,0.0
5216,64.0,48.0,90.0,2.0,0.0
5217,67.0,0.0,60.0,0.0,0.0
5218,52.0,0.0,90.0,3.0,0.0
5219,52.0,2.0,90.0,15.0,0.0
5220,64.0,0.0,60.0,0.0,0.0
5221,76.0,0.0,60.0,0.0,0.0
5222,50.0,0.0,90.0,3.0,0.0
5223,66.0,0.0,60.0,0.0,0.0
5224,78.0,46.0,60.0,0.0,0.0
5225,50.0,2.0,90.0,15.0,0.0
5226,62.0,0.0,90.0,2.0,0.0
5227,71.0,0.0,60.0,0.0,0.0
5228,49.0,0.0,90.0,3.0,0.0
5229,56.0,0.0,90.0,3.0,0.0
5230,83.0,94.0,15.0,0.0,0.0
5231,49.0,2.0,90.0,15.0,0.0
5232,77.0,0.0,90.0,0.0,0.0
5233,89.0,0.0,90.0,0.0,0.0
5234,61.0,0.0,90.0,2.0,0.0
5235,42.0,2.0,90.0,15.0,0.0
5236,90.0,0.0,90.0,0.0,0.0
5237,42.0,0.0,90.0,3.0,0.0
5238,78.0,32.0,90.0,0.0,0.0
5239,81.0,0.0,90.0,0.0,0.0
5240,54.0,0.0,90.0,2.0,0.0
5241,54.0,0.0,30.0,14.0,0.0
5242,34.0,34.0,90.0,9.0,0.0
5243,54.0,0.0,30.0,4.0,0.0
5244,61.0,0.0,30.0,11.0,0.0
5245,58.0,0.0,30.0,4.0,0.0
5246,58.0,62.0,30.0,12.0,0.0
5247,58.0,0.0,30.0,5.0,0.0
5248,61.0,0.0,30.0,5.0,0.0
5249,61.0,0.0,30.0,11.0,0.0
5250,56.0,0.0,30.0,12.0,0.0
5251,61.0,14.0,30.0,5.0,0.0
5252,49.0,0.0,30.0,4.0,0.0
5253,56.0,0.0,30.0,5.0,0.0
5254,49.0,0.0,30.0,14.0,0.0
5255,56.0,0.0,30.0,4.0,0.0
5256,34.0,34.0,60.0,9.0,0.0
5257,34.0,34.0,60.0,9.0,0.0
5258,54.0,14.0,30.0,14.0,0.0
5259,58.0,0.0,30.0,4.0,0.0
5260,61.0,0.0,30.0,5.0,0.0
5261,58.0,0.0,30.0,5.0,0.0
5262,58.0,0.0,30.0,12.0,0.0
5263,54.0,0.0,30.0,4.0,0.0
5264,61.0,0.0,30.0,11.0,0.0
5265,59.0,0.0,30.0,12.0,0.0
5266,34.0,34.0,90.0,9.0,0.0
5267,61.0,0.0,30.0,11.0,0.0
5268,56.0,0.0,30.0,4.0,0.0
5269,61.0,0.0,30.0,5.0,0.0
5270,59.0,0.0,30.0,5.0,0.0
5271,56.0,0.0,30.0,14.0,0.0
5272,59.0,62.0,30.0,4.0,0.0
5273,58.0,14.0,30.0,4.0,0.0
5274,54.0,0.0,30.0,14.0,0.0
5275,61.0,0.0,30.0,11.0,0.0
5276,58.0,0.0,30.0,12.0,0.0
5277,58.0,0.0,30.0,5.0,0.0
5278,61.0,0.0,30.0,5.0,0.0
5279,34.0,34.0,60.0,9.0,0.0
5280,54.0,0.0,30.0,4.0,0.0
5281,61.0,0.0,30.0,5.0,0.0
5282,56.0,0.0,30.0,4.0,0.0
5283,61.0,0.0,30.0,11.0,0.0
5284,56.0,0.0,30.0,5.0,0.0
5285,56.0,0.0,30.0,12.0,0.0
5286,34.0,34.0,60.0,9.0,0.0
5287,49.0,14.0,30.0,4.0,0.0
5288,49.0,0.0,30.0,14.0,0.0
5289,58.0,0.0,30.0,5.0,0.0
5290,61.0,0.0,30.0,11.0,0.0
5291,34.0,34.0,90.0,9.0,0.0
5292,58.0,0.0,30.0,12.0,0.0
5293,54.0,48.0,30.0,4.0,0.0
5294,54.0,0.0,30.0,14.0,0.0
5295,58.0,0.0,30.0,4.0,0.0
5296,61.0,0.0,30.0,5.0,0.0
5297,49.0,14.0,30.0,14.0,0.0
5298,49.0,0.0,30.0,4.0,0.0
5299,61.0,0.0,30.0,5.0,0.0
5300,56.0,0.0,30.0,5.0,0.0
5301,61.0,0.0,30.0,11.0,0.0
5302,56.0,0.0,30.0,4.0,0.0
5303,56.0,0.0,30.0,12.0,0.0
5304,46.0,0.0,30.0,4.0,0.0
5305,54.0,0.0,30.0,4.0,0.0
5306,61.0,0.0,30.0,5.0,0.0
5307,46.0,0.0,30.0,14.0,0.0
5308,61.0,48.0,30.0,11.0,0.0
5309,54.0,0.0,30.0,12.0,0.0
5310,54.0,0.0,30.0,5.0,0.0
5311,49.0,0.0,30.0,14.0,0.0
5312,56.0,48.0,30.0,4.0,0.0
5313,49.0,0.0,30.0,4.0,0.0
5314,56.0,0.0,30.0,5.0,0.0
5315,61.0,0.0,30.0,11.0,0.0
5316,56.0,0.0,30.0,12.0,0.0
5317,61.0,0.0,30.0,5.0,0.0
5318,54.0,0.0,30.0,14.0,0.0
5319,54.0,0.0,30.0,4.0,0.0
5320,58.0,0.0,30.0,5.0,0.0
5321,61.0,96.0,30.0,5.0,0.0
5322,61.0,0.0,30.0,11.0,0.0
5323,58.0,0.0,30.0,4.0,0.0
5324,58.0,0.0,30.0,12.0,0.0
5325,66.0,0.0,30.0,11.0,0.0
5326,34.0,34.0,90.0,9.0,0.0
5327,51.0,0.0,30.0,4.0,0.0
5328,59.0,0.0,30.0,12.0,0.0
5329,51.0,0.0,30.0,14.0,0.0
5330,66.0,0.0,30.0,5.0,0.0
5331,59.0,0.0,30.0,5.0,0.0
5332,59.0,62.0,30.0,4.0,0.0
5333,54.0,0.0,30.0,14.0,0.0
5334,58.0,0.0,30.0,5.0,0.0
5335,54.0,0.0,30.0,4.0,0.0
5336,58.0,62.0,30.0,4.0,0.0
5337,34.0,34.0,90.0,9.0,0.0
5338,61.0,0.0,30.0,11.0,0.0
5339,61.0,0.0,30.0,5.0,0.0
5340,58.0,0.0,30.0,12.0,0.0
5341,61.0,0.0,30.0,11.0,0.0
5342,56.0,0.0,30.0,5.0,0.0
5343,49.0,14.0,30.0,14.0,0.0
5344,61.0,0.0,30.0,5.0,0.0
5345,56.0,0.0,30.0,12.0,0.0
5346,34.0,34.0,60.0,9.0,0.0
5347,56.0,0.0,30.0,4.0,0.0
5348,49.0,0.0,30.0,4.0,0.0
5349,61.0,0.0,30.0,5.0,0.0
5350,54.0,14.0,30.0,4.0,0.0
5351,54.0,0.0,30.0,14.0,0.0
5352,34.0,34.0,60.0,9.0,0.0
5353,61.0,0.0,30.0,11.0,0.0
5354,58.0,0.0,30.0,4.0,0.0
5355,58.0,0.0,30.0,5.0,0.0
5356,58.0,0.0,30.0,12.0,0.0
5357,59.0,62.0,30.0,4.0,0.0
5358,56.0,0.0,30.0,14.0,0.0
5359,59.0,0.0,30.0,5.0,0.0
5360,56.0,0.0,30.0,4.0,0.0
5361,34.0,34.0,90.0,9.0,0.0
5362,61.0,0.0,30.0,11.0,0.0
5363,61.0,0.0,30.0,5.0,0.0
5364,59.0,0.0,30.0,12.0,0.0
5365,54.0,0.0,30.0,14.0,0.0
5366,54.0,0.0,30.0,4.0,0.0
5367,58.0,0.0,30.0,12.0,0.0
5368,61.0,0.0,30.0,5.0,0.0
5369,34.0,34.0,60.0,9.0,0.0
5370,61.0,0.0,30.0,11.0,0.0
5371,58.0,14.0,30.0,5.0,0.0
5372,58.0,0.0,30.0,4.0,0.0
5373,49.0,0.0,30.0,4.0,0.0
5374,34.0,34.0,60.0,9.0,0.0
5375,56.0,0.0,30.0,4.0,0.0
5376,61.0,0.0,30.0,5.0,0.0
5377,56.0,0.0,30.0,5.0,0.0
5378,61.0,0.0,30.0,11.0,0.0
5379,56.0,0.0,30.0,12.0,0.0
5380,49.0,14.0,30.0,14.0,0.0
5381,34.0,34.0,90.0,9.0,0.0
5382,61.0,0.0,30.0,5.0,0.0
5383,58.0,0.0,30.0,5.0,0.0
5384,54.0,48.0,30.0,4.0,0.0
5385,58.0,0.0,30.0,4.0,0.0
5386,58.0,0.0,30.0,12.0,0.0
5387,61.0,0.0,30.0,11.0,0.0
5388,54.0,0.0,30.0,14.0,0.0
5389,49.0,0.0,30.0,14.0,0.0
5390,56.0,0.0,30.0,4.0,0.0
5391,49.0,0.0,30.0,4.0,0.0
5392,56.0,0.0,30.0,5.0,0.0
5393,61.0,0.0,30.0,11.0,0.0
5394,56.0,14.0,30.0,12.0,0.0
5395,61.0,0.0,30.0,5.0,0.0
5396,46.0,0.0,30.0,4.0,0.0
5397,54.0,0.0,30.0,4.0,0.0
5398,54.0,0.0,30.0,12.0,0.0
5399,61.0,48.0,30.0,5.0,0.0
5400,61.0,0.0,30.0,11.0,0.0
5401,46.0,0.0,30.0,14.0,0.0
5402,54.0,0.0,30.0,5.0,0.0
5403,61.0,0.0,30.0,11.0,0.0
5404,49.0,0.0,30.0,14.0,0.0
5405,61.0,0.0,30.0,5.0,0.0
5406,49.0,0.0,30.0,4.0,0.0
5407,56.0,0.0,30.0,5.0,0.0
5408,56.0,48.0,30.0,4.0,0.0
5409,56.0,0.0,30.0,12.0,0.0
5410,58.0,0.0,30.0,4.0,0.0
5411,54.0,96.0,30.0,14.0,0.0
5412,61.0,0.0,30.0,5.0,0.0
5413,58.0,0.0,30.0,12.0,0.0
5414,58.0,0.0,30.0,5.0,0.0
5415,54.0,0.0,30.0,4.0,0.0
5416,61.0,0.0,30.0,11.0,0.0
5417,60.0,0.0,30.0,12.0,0.0
5418,53.0,0.0,30.0,4.0,0.0
5419,60.0,0.0,30.0,5.0,0.0
5420,65.0,62.0,30.0,5.0,0.0
5421,34.0,34.0,90.0,9.0,0.0
5422,65.0,0.0,30.0,11.0,0.0
5423,60.0,0.0,30.0,4.0,0.0
5424,53.0,0.0,30.0,14.0,0.0
5425,61.0,0.0,30.0,5.0,0.0
5426,65.0,0.0,30.0,11.0,0.0
5427,65.0,0.0,30.0,5.0,0.0
5428,58.0,0.0,30.0,14.0,0.0
5429,34.0,34.0,90.0,9.0,0.0
5430,58.0,0.0,30.0,4.0,0.0
5431,61.0,0.0,30.0,4.0,0.0
5432,61.0,62.0,30.0,12.0,0.0
5433,60.0,0.0,30.0,4.0,0.0
5434,53.0,0.0,30.0,4.0,0.0
5435,65.0,14.0,30.0,5.0,0.0
5436,60.0,0.0,30.0,12.0,0.0
5437,34.0,34.0,60.0,9.0,0.0
5438,65.0,0.0,30.0,11.0,0.0
5439,60.0,0.0,30.0,5.0,0.0
5440,53.0,0.0,30.0,14.0,0.0
5441,58.0,0.0,30.0,4.0,0.0
5442,61.0,0.0,30.0,12.0,0.0
5443,58.0,0.0,30.0,14.0,0.0
5444,61.0,0.0,30.0,4.0,0.0
5445,34.0,34.0,60.0,9.0,0.0
5446,61.0,0.0,30.0,5.0,0.0
5447,65.0,0.0,30.0,5.0,0.0
5448,65.0,14.0,30.0,11.0,0.0
5449,34.0,34.0,90.0,9.0,0.0
5450,65.0,62.0,30.0,5.0,0.0
5451,60.0,0.0,30.0,4.0,0.0
5452,65.0,0.0,30.0,11.0,0.0
5453,63.0,0.0,30.0,12.0,0.0
5454,60.0,0.0,30.0,14.0,0.0
5455,63.0,0.0,30.0,4.0,0.0
5456,63.0,0.0,30.0,5.0,0.0
5457,61.0,0.0,30.0,5.0,0.0
5458,34.0,34.0,60.0,9.0,0.0
5459,61.0,0.0,30.0,4.0,0.0
5460,65.0,0.0,30.0,11.0,0.0
5461,61.0,14.0,30.0,12.0,0.0
5462,58.0,0.0,30.0,4.0,0.0
5463,58.0,0.0,30.0,14.0,0.0
5464,65.0,0.0,30.0,5.0,0.0
5465,60.0,0.0,30.0,12.0,0.0
5466,60.0,0.0,30.0,5.0,0.0
5467,53.0,0.0,30.0,14.0,0.0
5468,53.0,0.0,30.0,4.0,0.0
5469,34.0,34.0,60.0,9.0,0.0
5470,65.0,0.0,30.0,11.0,0.0
5471,60.0,0.0,30.0,4.0,0.0
5472,65.0,14.0,30.0,5.0,0.0
5473,61.0,0.0,30.0,12.0,0.0
5474,65.0,0.0,30.0,11.0,0.0
5475,61.0,0.0,30.0,4.0,0.0
5476,34.0,34.0,90.0,9.0,0.0
5477,58.0,0.0,30.0,4.0,0.0
5478,58.0,48.0,30.0,14.0,0.0
5479,61.0,0.0,30.0,5.0,0.0
5480,65.0,0.0,30.0,5.0,0.0
5481,60.0,14.0,30.0,12.0,0.0
5482,65.0,0.0,30.0,5.0,0.0
5483,60.0,0.0,30.0,4.0,0.0
5484,53.0,0.0,30.0,4.0,0.0
5485,60.0,0.0,30.0,5.0,0.0
5486,53.0,0.0,30.0,14.0,0.0
5487,65.0,0.0,30.0,11.0,0.0
5488,49.0,0.0,30.0,4.0,0.0
5489,58.0,0.0,30.0,4.0,0.0
5490,65.0,0.0,30.0,5.0,0.0
5491,58.0,0.0,30.0,12.0,0.0
5492,65.0,0.0,30.0,11.0,0.0
5493,49.0,0.0,30.0,14.0,0.0
5494,58.0,48.0,30.0,5.0,0.0
5495,60.0,0.0,30.0,5.0,0.0
5496,60.0,48.0,30.0,12.0,0.0
5497,65.0,0.0,30.0,11.0,0.0
5498,65.0,0.0,30.0,5.0,0.0
5499,53.0,0.0,30.0,14.0,0.0
5500,53.0,0.0,30.0,4.0,0.0
5501,60.0,0.0,30.0,4.0,0.0
5502,61.0,0.0,30.0,12.0,0.0
5503,58.0,0.0,30.0,14.0,0.0
5504,61.0,0.0,30.0,5.0,0.0
5505,61.0,0.0,30.0,4.0,0.0
5506,65.0,96.0,30.0,5.0,0.0
5507,58.0,0.0,30.0,4.0,0.0
5508,65.0,0.0,30.0,11.0,0.0
5509,70.0,0.0,30.0,11.0,0.0
5510,70.0,0.0,30.0,5.0,0.0
5511,63.0,0.0,30.0,4.0,0.0
5512,54.0,0.0,30.0,14.0,0.0
5513,34.0,34.0,90.0,9.0,0.0
5514,63.0,0.0,30.0,12.0,0.0
5515,63.0,0.0,30.0,5.0,0.0
5516,54.0,62.0,30.0,4.0,0.0
5517,58.0,62.0,30.0,14.0,0.0
5518,61.0,0.0,30.0,5.0,0.0
5519,34.0,34.0,90.0,9.0,0.0
5520,65.0,0.0,30.0,5.0,0.0
5521,61.0,0.0,30.0,12.0,0.0
5522,58.0,0.0,30.0,4.0,0.0
5523,61.0,0.0,30.0,4.0,0.0
5524,65.0,0.0,30.0,11.0,0.0
5525,65.0,0.0,30.0,5.0,0.0
5526,53.0,14.0,30.0,14.0,0.0
5527,60.0,0.0,30.0,12.0,0.0
5528,60.0,0.0,30.0,5.0,0.0
5529,34.0,34.0,60.0,9.0,0.0
5530,60.0,0.0,30.0,4.0,0.0
5531,65.0,0.0,30.0,11.0,0.0
5532,53.0,0.0,30.0,4.0,0.0
5533,34.0,34.0,60.0,9.0,0.0
5534,61.0,0.0,30.0,5.0,0.0
5535,58.0,0.0,30.0,14.0,0.0
5536,65.0,0.0,30.0,11.0,0.0
5537,61.0,14.0,30.0,4.0,0.0
5538,61.0,0.0,30.0,12.0,0.0
5539,65.0,0.0,30.0,5.0,0.0
5540,58.0,0.0,30.0,4.0,0.0
5541,68.0,0.0,30.0,11.0,0.0
5542,56.0,0.0,30.0,14.0,0.0
5543,68.0,0.0,30.0,5.0,0.0
5544,63.0,0.0,30.0,5.0,0.0
5545,60.0,0.0,30.0,5.0,0.0
5546,56.0,0.0,30.0,4.0,0.0
5547,60.0,0.0,30.0,12.0,0.0
5548,34.0,34.0,90.0,9.0,0.0
5549,60.0,0.0,30.0,4.0,0.0
5550,63.0,0.0,30.0,4.0,0.0
5551,63.0,62.0,30.0,12.0,0.0
5552,58.0,0.0,30.0,12.0,0.0
5553,56.0,0.0,30.0,14.0,0.0
5554,34.0,34.0,60.0,9.0,0.0
5555,58.0,0.0,30.0,5.0,0.0
5556,61.0,14.0,30.0,5.0,0.0
5557,68.0,0.0,30.0,11.0,0.0
5558,68.0,0.0,30.0,5.0,0.0
5559,61.0,0.0,30.0,4.0,0.0
5560,61.0,0.0,30.0,12.0,0.0
5561,58.0,0.0,30.0,4.0,0.0
5562,56.0,0.0,30.0,4.0,0.0
5563,56.0,0.0,30.0,14.0,0.0
5564,68.0,0.0,30.0,5.0,0.0
5565,34.0,34.0,60.0,9.0,0.0
5566,63.0,0.0,30.0,4.0,0.0
5567,60.0,0.0,30.0,4.0,0.0
5568,56.0,0.0,30.0,4.0,0.0
5569,68.0,0.0,30.0,11.0,0.0
5570,63.0,0.0,30.0,12.0,0.0
5571,60.0,14.0,30.0,12.0,0.0
5572,60.0,0.0,30.0,5.0,0.0
5573,63.0,0.0,30.0,5.0,0.0
5574,61.0,0.0,30.0,12.0,0.0
5575,65.0,0.0,30.0,5.0,0.0
5576,61.0,62.0,30.0,5.0,0.0
5577,53.0,0.0,30.0,4.0,0.0
5578,68.0,0.0,30.0,11.0,0.0
5579,65.0,0.0,30.0,12.0,0.0
5580,68.0,0.0,30.0,5.0,0.0
5581,34.0,34.0,90.0,9.0,0.0
5582,49.0,0.0,30.0,14.0,0.0
5583,61.0,0.0,30.0,4.0,0.0
5584,65.0,0.0,30.0,4.0,0.0
5585,37.0,0.0,30.0,14.0,0.0
5586,73.0,48.0,30.0,11.0,0.0
5587,41.0,48.0,30.0,14.0,0.0
5588,71.0,0.0,30.0,11.0,0.0
5589,44.0,0.0,30.0,14.0,0.0
5590,68.0,48.0,30.0,11.0,0.0
5591,65.0,48.0,30.0,11.0,0.0
5592,49.0,0.0,30.0,14.0,0.0
5593,61.0,48.0,30.0,11.0,0.0
5594,53.0,0.0,30.0,14.0,0.0
5595,59.0,0.0,30.0,11.0,0.0
5596,56.0,48.0,30.0,14.0,0.0
5597,54.0,0.0,30.0,4.0,0.0
5598,58.0,0.0,30.0,4.0,0.0
5599,34.0,34.0,90.0,9.0,0.0
5600,58.0,0.0,30.0,5.0,0.0
5601,58.0,0.0,30.0,12.0,0.0
5602,54.0,0.0,30.0,14.0,0.0
5603,61.0,62.0,30.0,11.0,0.0
5604,61.0,0.0,30.0,5.0,0.0
5605,56.0,0.0,30.0,5.0,0.0
5606,56.0,0.0,30.0,4.0,0.0
5607,61.0,14.0,30.0,11.0,0.0
5608,34.0,34.0,60.0,9.0,0.0
5609,49.0,0.0,30.0,4.0,0.0
5610,61.0,0.0,30.0,5.0,0.0
5611,49.0,0.0,30.0,14.0,0.0
5612,56.0,0.0,30.0,12.0,0.0
5613,34.0,34.0,60.0,9.0,0.0
5614,58.0,0.0,30.0,5.0,0.0
5615,58.0,14.0,30.0,4.0,0.0
5616,61.0,0.0,30.0,11.0,0.0
5617,58.0,0.0,30.0,12.0,0.0
5618,61.0,0.0,30.0,5.0,0.0
5619,54.0,0.0,30.0,14.0,0.0
5620,54.0,0.0,30.0,4.0,0.0
5621,61.0,62.0,30.0,11.0,0.0
5622,61.0,0.0,30.0,5.0,0.0
5623,56.0,0.0,30.0,4.0,0.0
5624,59.0,0.0,30.0,5.0,0.0
5625,34.0,34.0,90.0,9.0,0.0
5626,59.0,0.0,30.0,12.0,0.0
5627,56.0,0.0,30.0,14.0,0.0
5628,59.0,0.0,30.0,4.0,0.0
5629,58.0,0.0,30.0,12.0,0.0
5630,54.0,0.0,30.0,4.0,0.0
5631,58.0,14.0,30.0,4.0,0.0
5632,61.0,0.0,30.0,5.0,0.0
5633,58.0,0.0,30.0,5.0,0.0
5634,61.0,0.0,30.0,11.0,0.0
5635,54.0,0.0,30.0,14.0,0.0
5636,34.0,34.0,60.0,9.0,0.0
5637,56.0,0.0,30.0,12.0,0.0
5638,34.0,34.0,60.0,9.0,0.0
5639,56.0,0.0,30.0,4.0,0.0
5640,61.0,0.0,30.0,11.0,0.0
5641,61.0,14.0,30.0,5.0,0.0
5642,56.0,0.0,30.0,5.0,0.0
5643,49.0,0.0,30.0,14.0,0.0
5644,49.0,0.0,30.0,4.0,0.0
5645,54.0,48.0,30.0,4.0,0.0
5646,58.0,0.0,30.0,4.0,0.0
5647,34.0,34.0,90.0,9.0,0.0
5648,58.0,0.0,30.0,12.0,0.0
5649,61.0,0.0,30.0,11.0,0.0
5650,54.0,0.0,30.0,14.0,0.0
5651,58.0,0.0,30.0,5.0,0.0
5652,61.0,0.0,30.0,5.0,0.0
5653,49.0,0.0,30.0,14.0,0.0
5654,61.0,0.0,30.0,5.0,0.0
5655,56.0,14.0,30.0,5.0,0.0
5656,56.0,0.0,30.0,4.0,0.0
5657,49.0,0.0,30.0,4.0,0.0
5658,56.0,0.0,30.0,12.0,0.0
5659,61.0,0.0,30.0,11.0,0.0
5660,54.0,0.0,30.0,12.0,0.0
5661,46.0,0.0,30.0,4.0,0.0
5662,61.0,0.0,30.0,5.0,0.0
5663,54.0,48.0,30.0,5.0,0.0
5664,54.0,0.0,30.0,4.0,0.0
5665,46.0,0.0,30.0,14.0,0.0
5666,61.0,0.0,30.0,11.0,0.0
5667,56.0,0.0,30.0,12.0,0.0
5668,49.0,0.0,30.0,4.0,0.0
5669,49.0,0.0,30.0,14.0,0.0
5670,56.0,0.0,30.0,5.0,0.0
5671,61.0,0.0,30.0,11.0,0.0
5672,61.0,48.0,30.0,5.0,0.0
5673,56.0,0.0,30.0,4.0,0.0
5674,61.0,0.0,30.0,11.0,0.0
5675,54.0,0.0,30.0,14.0,0.0
5676,58.0,96.0,30.0,5.0,0.0
5677,58.0,0.0,30.0,12.0,0.0
5678,54.0,0.0,30.0,4.0,0.0
5679,58.0,0.0,30.0,4.0,0.0
5680,61.0,0.0,30.0,5.0,0.0
5681,66.0,0.0,30.0,11.0,0.0
5682,51.0,0.0,30.0,14.0,0.0
5683,51.0,0.0,30.0,4.0,0.0
5684,59.0,0.0,30.0,5.0,0.0
5685,66.0,0.0,30.0,5.0,0.0
5686,59.0,0.0,30.0,4.0,0.0
5687,59.0,0.0,30.0,12.0,0.0
5688,34.0,34.0,90.0,9.0,0.0
5689,58.0,0.0,30.0,4.0,0.0
5690,54.0,0.0,30.0,4.0,0.0
5691,58.0,62.0,30.0,5.0,0.0
5692,54.0,0.0,30.0,14.0,0.0
5693,34.0,34.0,90.0,9.0,0.0
5694,58.0,0.0,30.0,12.0,0.0
5695,61.0,0.0,30.0,5.0,0.0
5696,61.0,0.0,30.0,11.0,0.0
5697,49.0,0.0,30.0,4.0,0.0
5698,61.0,0.0,30.0,5.0,0.0
5699,56.0,0.0,30.0,5.0,0.0
5700,34.0,34.0,60.0,9.0,0.0
5701,61.0,0.0,30.0,11.0,0.0
5702,56.0,0.0,30.0,4.0,0.0
5703,49.0,0.0,30.0,14.0,0.0
5704,56.0,14.0,30.0,12.0,0.0
5705,58.0,0.0,30.0,12.0,0.0
5706,61.0,0.0,30.0,5.0,0.0
5707,54.0,14.0,30.0,4.0,0.0
5708,58.0,0.0,30.0,4.0,0.0
5709,54.0,0.0,30.0,14.0,0.0
5710,34.0,34.0,60.0,9.0,0.0
5711,61.0,0.0,30.0,11.0,0.0
5712,58.0,0.0,30.0,5.0,0.0
5713,59.0,0.0,30.0,4.0,0.0
5714,59.0,0.0,30.0,12.0,0.0
5715,61.0,0.0,30.0,5.0,0.0
5716,56.0,62.0,30.0,14.0,0.0
5717,56.0,0.0,30.0,4.0,0.0
5718,59.0,0.0,30.0,5.0,0.0
5719,61.0,0.0,30.0,11.0,0.0
5720,34.0,34.0,90.0,9.0,0.0
5721,54.0,0.0,30.0,4.0,0.0
5722,61.0,0.0,30.0,5.0,0.0
5723,58.0,0.0,30.0,4.0,0.0
5724,54.0,0.0,30.0,14.0,0.0
5725,61.0,0.0,30.0,11.0,0.0
5726,58.0,0.0,30.0,12.0,0.0
5727,34.0,34.0,60.0,9.0,0.0
5728,58.0,14.0,30.0,5.0,0.0
5729,56.0,0.0,30.0,4.0,0.0
5730,56.0,0.0,30.0,12.0,0.0
5731,61.0,0.0,30.0,11.0,0.0
5732,49.0,0.0,30.0,4.0,0.0
5733,49.0,0.0,30.0,14.0,0.0
5734,34.0,34.0,60.0,9.0,0.0
5735,56.0,0.0,30.0,5.0,0.0
5736,61.0,14.0,30.0,5.0,0.0
5737,54.0,0.0,30.0,4.0,0.0
5738,58.0,0.0,30.0,5.0,0.0
5739,58.0,0.0,30.0,4.0,0.0
5740,61.0,48.0,30.0,11.0,0.0
5741,61.0,0.0,30.0,5.0,0.0
5742,34.0,34.0,90.0,9.0,0.0
5743,58.0,0.0,30.0,12.0,0.0
5744,54.0,0.0,30.0,14.0,0.0
5745,56.0,0.0,30.0,12.0,0.0
5746,56.0,14.0,30.0,4.0,0.0
5747,56.0,0.0,30.0,5.0,0.0
5748,49.0,0.0,30.0,4.0,0.0
5749,61.0,0.0,30.0,5.0,0.0
5750,61.0,0.0,30.0,11.0,0.0
5751,49.0,0.0,30.0,14.0,0.0
5752,61.0,0.0,30.0,5.0,0.0
5753,54.0,0.0,30.0,12.0,0.0
5754,46.0,0.0,30.0,14.0,0.0
5755,54.0,0.0,30.0,4.0,0.0
5756,61.0,0.0,30.0,11.0,0.0
5757,46.0,0.0,30.0,4.0,0.0
5758,54.0,48.0,30.0,5.0,0.0
5759,56.0,0.0,30.0,4.0,0.0
5760,61.0,48.0,30.0,11.0,0.0
5761,49.0,0.0,30.0,4.0,0.0
5762,56.0,0.0,30.0,5.0,0.0
5763,49.0,0.0,30.0,14.0,0.0
5764,56.0,0.0,30.0,12.0,0.0
5765,61.0,0.0,30.0,5.0,0.0
5766,58.0,0.0,30.0,12.0,0.0
5767,61.0,0.0,30.0,5.0,0.0
5768,58.0,0.0,30.0,4.0,0.0
5769,54.0,0.0,30.0,14.0,0.0
5770,58.0,96.0,30.0,5.0,0.0
5771,61.0,0.0,30.0,11.0,0.0
5772,54.0,0.0,30.0,4.0,0.0
5773,53.0,0.0,30.0,4.0,0.0
5774,65.0,0.0,30.0,11.0,0.0
5775,60.0,0.0,30.0,12.0,0.0
5776,34.0,34.0,90.0,9.0,0.0
5777,60.0,0.0,30.0,5.0,0.0
5778,60.0,0.0,30.0,4.0,0.0
5779,53.0,0.0,30.0,14.0,0.0
5780,65.0,0.0,30.0,5.0,0.0
5781,65.0,0.0,30.0,5.0,0.0
5782,58.0,0.0,30.0,14.0,0.0
5783,61.0,62.0,30.0,4.0,0.0
5784,61.0,0.0,30.0,5.0,0.0
5785,65.0,0.0,30.0,11.0,0.0
5786,34.0,34.0,90.0,9.0,0.0
5787,61.0,0.0,30.0,12.0,0.0
5788,58.0,0.0,30.0,4.0,0.0
5789,60.0,0.0,30.0,12.0,0.0
5790,65.0,0.0,30.0,5.0,0.0
5791,53.0,0.0,30.0,14.0,0.0
5792,53.0,0.0,30.0,4.0,0.0
5793,65.0,0.0,30.0,11.0,0.0
5794,34.0,34.0,60.0,9.0,0.0
5795,60.0,0.0,30.0,5.0,0.0
5796,60.0,14.0,30.0,4.0,0.0
5797,61.0,0.0,30.0,12.0,0.0
5798,61.0,0.0,30.0,5.0,0.0
5799,58.0,0.0,30.0,4.0,0.0
5800,65.0,0.0,30.0,11.0,0.0
5801,61.0,0.0,30.0,4.0,0.0
5802,65.0,0.0,30.0,5.0,0.0
5803,34.0,34.0,60.0,9.0,0.0
5804,58.0,14.0,30.0,14.0,0.0
5805,63.0,0.0,30.0,5.0,0.0
5806,65.0,0.0,30.0,11.0,0.0
5807,60.0,62.0,30.0,14.0,0.0
5808,34.0,34.0,90.0,9.0,0.0
5809,60.0,0.0,30.0,4.0,0.0
5810,65.0,0.0,30.0,5.0,0.0
5811,63.0,0.0,30.0,4.0,0.0
5812,63.0,0.0,30.0,12.0,0.0
5813,58.0,0.0,30.0,14.0,0.0
5814,61.0,0.0,30.0,4.0,0.0
5815,61.0,0.0,30.0,5.0,0.0
5816,34.0,34.0,60.0,9.0,0.0
5817,61.0,0.0,30.0,12.0,0.0
5818,58.0,0.0,30.0,4.0,0.0
5819,65.0,14.0,30.0,5.0,0.0
5820,65.0,0.0,30.0,11.0,0.0
5821,34.0,34.0,60.0,9.0,0.0
5822,60.0,0.0,30.0,5.0,0.0
5823,53.0,14.0,30.0,4.0,0.0
5824,53.0,0.0,30.0,14.0,0.0
5825,65.0,0.0,30.0,11.0,0.0
5826,65.0,0.0,30.0,5.0,0.0
5827,60.0,0.0,30.0,12.0,0.0
5828,60.0,0.0,30.0,4.0,0.0
5829,61.0,0.0,30.0,5.0,0.0
5830,65.0,0.0,30.0,11.0,0.0
5831,61.0,48.0,30.0,12.0,0.0
5832,58.0,0.0,30.0,14.0,0.0
5833,58.0,0.0,30.0,4.0,0.0
5834,61.0,0.0,30.0,4.0,0.0
5835,34.0,34.0,90.0,9.0,0.0
5836,65.0,0.0,30.0,5.0,0.0
5837,65.0,0.0,30.0,11.0,0.0
5838,60.0,0.0,30.0,12.0,0.0
5839,53.0,14.0,30.0,4.0,0.0
5840,65.0,0.0,30.0,5.0,0.0
5841,60.0,0.0,30.0,4.0,0.0
5842,53.0,0.0,30.0,14.0,0.0
5843,60.0,0.0,30.0,5.0,0.0
5844,58.0,48.0,30.0,4.0,0.0
5845,49.0,0.0,30.0,14.0,0.0
5846,65.0,0.0,30.0,11.0,0.0
5847,65.0,0.0,30.0,5.0,0.0
5848,58.0,0.0,30.0,5.0,0.0
5849,58.0,0.0,30.0,12.0,0.0
5850,49.0,0.0,30.0,4.0,0.0
5851,60.0,0.0,30.0,12.0,0.0
5852,65.0,0.0,30.0,11.0,0.0
5853,53.0,0.0,30.0,14.0,0.0
5854,60.0,0.0,30.0,5.0,0.0
5855,65.0,0.0,30.0,5.0,0.0
5856,60.0,0.0,30.0,4.0,0.0
5857,53.0,48.0,30.0,4.0,0.0
5858,58.0,0.0,30.0,4.0,0.0
5859,61.0,0.0,30.0,12.0,0.0
5860,65.0,0.0,30.0,5.0,0.0
5861,61.0,0.0,30.0,5.0,0.0
5862,65.0,96.0,30.0,11.0,0.0
5863,61.0,0.0,30.0,4.0,0.0
5864,58.0,0.0,30.0,14.0,0.0
5865,70.0,0.0,30.0,11.0,0.0
5866,63.0,62.0,30.0,12.0,0.0
5867,63.0,0.0,30.0,5.0,0.0
5868,54.0,0.0,30.0,14.0,0.0
5869,34.0,34.0,90.0,9.0,0.0
5870,63.0,0.0,30.0,4.0,0.0
5871,54.0,0.0,30.0,4.0,0.0
5872,70.0,0.0,30.0,5.0,0.0
5873,65.0,0.0,30.0,5.0,0.0
5874,61.0,0.0,30.0,5.0,0.0
5875,58.0,0.0,30.0,4.0,0.0
5876,34.0,34.0,90.0,9.0,0.0
5877,61.0,0.0,30.0,12.0,0.0
5878,65.0,62.0,30.0,11.0,0.0
5879,61.0,0.0,30.0,4.0,0.0
5880,58.0,0.0,30.0,14.0,0.0
5881,53.0,0.0,30.0,14.0,0.0
5882,65.0,0.0,30.0,5.0,0.0
5883,60.0,0.0,30.0,4.0,0.0
5884,60.0,14.0,30.0,12.0,0.0
5885,65.0,0.0,30.0,11.0,0.0
5886,53.0,0.0,30.0,4.0,0.0
5887,34.0,34.0,60.0,9.0,0.0
5888,60.0,0.0,30.0,5.0,0.0
5889,58.0,0.0,30.0,4.0,0.0
5890,65.0,0.0,30.0,5.0,0.0
5891,58.0,0.0,30.0,14.0,0.0
5892,34.0,34.0,60.0,9.0,0.0
5893,61.0,0.0,30.0,12.0,0.0
5894,61.0,0.0,30.0,5.0,0.0
5895,61.0,0.0,30.0,4.0,0.0
5896,65.0,14.0,30.0,11.0,0.0
5897,63.0,0.0,30.0,5.0,0.0
5898,60.0,0.0,30.0,5.0,0.0
5899,68.0,0.0,30.0,11.0,0.0
5900,34.0,34.0,90.0,9.0,0.0
5901,56.0,0.0,30.0,14.0,0.0
5902,63.0,0.0,30.0,4.0,0.0
5903,68.0,0.0,30.0,5.0,0.0
5904,56.0,0.0,30.0,4.0,0.0
5905,63.0,0.0,30.0,12.0,0.0
5906,60.0,62.0,30.0,12.0,0.0
5907,60.0,0.0,30.0,4.0,0.0
5908,56.0,0.0,30.0,14.0,0.0
5909,61.0,0.0,30.0,5.0,0.0
5910,58.0,0.0,30.0,5.0,0.0
5911,34.0,34.0,60.0,9.0,0.0
5912,61.0,0.0,30.0,12.0,0.0
5913,68.0,0.0,30.0,11.0,0.0
5914,58.0,0.0,30.0,12.0,0.0
5915,61.0,0.0,30.0,4.0,0.0
5916,58.0,14.0,30.0,4.0,0.0
5917,56.0,0.0,30.0,4.0,0.0
5918,68.0,0.0,30.0,5.0,0.0
5919,60.0,0.0,30.0,4.0,0.0
5920,56.0,0.0,30.0,4.0,0.0
5921,68.0,0.0,30.0,5.0,0.0
5922,68.0,0.0,30.0,11.0,0.0
5923,34.0,34.0,60.0,9.0,0.0
5924,63.0,0.0,30.0,4.0,0.0
5925,60.0,0.0,30.0,5.0,0.0
5926,63.0,0.0,30.0,5.0,0.0
5927,63.0,0.0,30.0,12.0,0.0
5928,60.0,0.0,30.0,12.0,0.0
5929,56.0,14.0,30.0,14.0,0.0
5930,34.0,34.0,90.0,9.0,0.0
5931,65.0,0.0,30.0,12.0,0.0
5932,65.0,0.0,30.0,5.0,0.0
5933,61.0,0.0,30.0,12.0,0.0
5934,49.0,0.0,30.0,14.0,0.0
5935,68.0,0.0,30.0,5.0,0.0
5936,61.0,62.0,30.0,4.0,0.0
5937,68.0,0.0,30.0,11.0,0.0
5938,61.0,0.0,30.0,5.0,0.0
5939,53.0,0.0,30.0,4.0,0.0
5940,65.0,0.0,30.0,4.0,0.0
5941,37.0,0.0,30.0,14.0,0.0
5942,73.0,48.0,30.0,11.0,0.0
5943,71.0,48.0,30.0,11.0,0.0
5944,41.0,0.0,30.0,14.0,0.0
5945,44.0,48.0,30.0,14.0,0.0
5946,68.0,0.0,30.0,11.0,0.0
5947,65.0,48.0,30.0,11.0,0.0
5948,49.0,0.0,30.0,14.0,0.0
5949,61.0,0.0,30.0,11.0,0.0
5950,53.0,48.0,30.0,14.0,0.0
5951,56.0,0.0,30.0,14.0,0.0
5952,59.0,48.0,30.0,11.0,0.0
5953,49.0,62.0,30.0,14.0,0.0
5954,61.0,0.0,30.0,11.0,0.0
5955,34.0,34.0,90.0,9.0,0.0
5956,56.0,0.0,30.0,4.0,0.0
5957,56.0,0.0,30.0,12.0,0.0
5958,49.0,0.0,30.0,4.0,0.0
5959,61.0,0.0,30.0,11.0,0.0
5960,46.0,0.0,30.0,4.0,0.0
5961,54.0,48.0,30.0,12.0,0.0
5962,54.0,0.0,30.0,4.0,0.0
5963,46.0,0.0,30.0,14.0,0.0
5964,56.0,0.0,30.0,4.0,0.0
5965,61.0,48.0,30.0,11.0,0.0
5966,49.0,0.0,30.0,14.0,0.0
5967,49.0,0.0,30.0,4.0,0.0
5968,56.0,0.0,30.0,12.0,0.0
5969,61.0,0.0,30.0,11.0,0.0
5970,34.0,34.0,90.0,9.0,0.0
5971,58.0,62.0,30.0,4.0,0.0
5972,58.0,0.0,30.0,12.0,0.0
5973,54.0,0.0,30.0,14.0,0.0
5974,54.0,0.0,30.0,4.0,0.0
5975,56.0,0.0,30.0,4.0,0.0
5976,49.0,0.0,30.0,4.0,0.0
5977,49.0,48.0,30.0,14.0,0.0
5978,61.0,0.0,30.0,11.0,0.0
5979,56.0,0.0,30.0,12.0,0.0
5980,46.0,0.0,30.0,14.0,0.0
5981,61.0,0.0,30.0,11.0,0.0
5982,54.0,0.0,30.0,12.0,0.0
5983,46.0,48.0,30.0,4.0,0.0
5984,54.0,0.0,30.0,4.0,0.0
5985,34.0,2.0,90.0,9.0,0.0
5986,49.0,0.0,90.0,4.0,0.0
5987,56.0,32.0,90.0,4.0,0.0
5988,61.0,62.0,30.0,11.0,0.0
5989,49.0,0.0,30.0,14.0,0.0
5990,56.0,0.0,30.0,12.0,0.0
5991,65.0,0.0,30.0,11.0,0.0
5992,41.0,0.0,30.0,14.0,0.0
5993,53.0,14.0,30.0,13.0,0.0
5994,34.0,34.0,60.0,9.0,0.0
5995,65.0,0.0,30.0,5.0,0.0
5996,41.0,0.0,30.0,14.0,0.0
5997,53.0,14.0,30.0,13.0,0.0
5998,65.0,0.0,30.0,5.0,0.0
5999,65.0,0.0,30.0,11.0,0.0
6000,34.0,96.0,60.0,9.0,0.0
6001,41.0,0.0,90.0,14.0,0.0
6002,53.0,32.0,90.0,13.0,0.0
6003,34.0,2.0,90.0,9.0,0.0
6004,65.0,0.0,90.0,11.0,0.0
6005,65.0,0.0,90.0,5.0,0.0
6006,66.0,0.0,30.0,5.0,0.0
6007,42.0,0.0,30.0,14.0,0.0
6008,58.0,0.0,30.0,5.0,0.0
6009,61.0,0.0,30.0,12.0,0.0
6010,34.0,34.0,90.0,9.0,0.0
6011,58.0,0.0,30.0,4.0,0.0
6012,66.0,62.0,30.0,11.0,0.0
6013,61.0,0.0,30.0,4.0,0.0
6014,54.0,0.0,30.0,13.0,0.0
6015,58.0,0.0,30.0,12.0,0.0
6016,61.0,0.0,30.0,5.0,0.0
6017,63.0,62.0,30.0,12.0,0.0
6018,59.0,0.0,30.0,4.0,0.0
6019,66.0,0.0,30.0,11.0,0.0
6020,59.0,0.0,30.0,14.0,0.0
6021,34.0,34.0,90.0,9.0,0.0
6022,63.0,0.0,30.0,4.0,0.0
6023,61.0,48.0,30.0,4.0,0.0
6024,66.0,0.0,30.0,11.0,0.0
6025,61.0,0.0,30.0,12.0,0.0
6026,54.0,0.0,30.0,14.0,0.0
6027,54.0,0.0,30.0,4.0,0.0
6028,59.0,0.0,30.0,14.0,0.0
6029,59.0,0.0,30.0,4.0,0.0
6030,63.0,48.0,30.0,12.0,0.0
6031,66.0,0.0,30.0,11.0,0.0
6032,63.0,0.0,30.0,4.0,0.0
6033,34.0,34.0,90.0,9.0,0.0
6034,66.0,0.0,30.0,11.0,0.0
6035,64.0,0.0,30.0,4.0,0.0
6036,61.0,0.0,30.0,14.0,0.0
6037,64.0,0.0,30.0,12.0,0.0
6038,61.0,62.0,30.0,4.0,0.0
6039,59.0,0.0,30.0,14.0,0.0
6040,63.0,0.0,30.0,12.0,0.0
6041,63.0,0.0,30.0,4.0,0.0
6042,66.0,0.0,30.0,11.0,0.0
6043,59.0,48.0,30.0,4.0,0.0
6044,61.0,0.0,30.0,4.0,0.0
6045,61.0,0.0,30.0,12.0,0.0
6046,54.0,0.0,30.0,4.0,0.0
6047,66.0,48.0,30.0,11.0,0.0
6048,54.0,0.0,30.0,14.0,0.0
6049,34.0,2.0,90.0,9.0,0.0
6050,63.0,62.0,30.0,12.0,0.0
6051,59.0,32.0,90.0,4.0,0.0
6052,63.0,0.0,90.0,4.0,0.0
6053,59.0,0.0,30.0,14.0,0.0
6054,66.0,0.0,30.0,11.0,0.0
6055,34.0,34.0,60.0,9.0,0.0
6056,58.0,0.0,30.0,13.0,0.0
6057,70.0,0.0,30.0,11.0,0.0
6058,58.0,0.0,30.0,14.0,0.0
6059,70.0,0.0,30.0,5.0,0.0
6060,58.0,0.0,30.0,14.0,0.0
6061,34.0,96.0,60.0,9.0,0.0
6062,70.0,0.0,30.0,11.0,0.0
6063,58.0,14.0,30.0,13.0,0.0
6064,70.0,0.0,30.0,5.0,0.0
6065,58.0,0.0,90.0,13.0,0.0
6066,34.0,2.0,90.0,9.0,0.0
6067,70.0,32.0,90.0,11.0,0.0
6068,58.0,0.0,90.0,14.0,0.0
6069,70.0,0.0,90.0,5.0,0.0
6070,68.0,0.0,30.0,5.0,0.0
6071,73.0,0.0,30.0,5.0,0.0
6072,61.0,0.0,30.0,4.0,0.0
6073,68.0,0.0,30.0,12.0,0.0
6074,61.0,0.0,30.0,14.0,0.0
6075,73.0,0.0,30.0,11.0,0.0
6076,65.0,62.0,30.0,12.0,0.0
6077,34.0,34.0,90.0,9.0,0.0
6078,65.0,0.0,30.0,5.0,0.0
6079,56.0,0.0,30.0,4.0,0.0
6080,61.0,0.0,30.0,13.0,0.0
6081,53.0,0.0,30.0,4.0,0.0
6082,66.0,0.0,30.0,13.0,0.0
6083,73.0,0.0,30.0,11.0,0.0
6084,66.0,62.0,30.0,5.0,0.0
6085,70.0,0.0,30.0,12.0,0.0
6086,58.0,0.0,30.0,4.0,0.0
6087,34.0,34.0,90.0,9.0,0.0
6088,73.0,0.0,30.0,5.0,0.0
6089,70.0,0.0,30.0,5.0,0.0
6090,54.0,0.0,30.0,4.0,0.0
6091,50.0,0.0,30.0,9.0,0.0
6092,73.0,0.0,30.0,11.0,0.0
6093,68.0,0.0,30.0,5.0,0.0
6094,68.0,0.0,30.0,12.0,0.0
6095,73.0,0.0,30.0,5.0,0.0
6096,61.0,0.0,30.0,5.0,0.0
6097,61.0,0.0,30.0,13.0,0.0
6098,34.0,34.0,60.0,9.0,0.0
6099,49.0,14.0,30.0,4.0,0.0
6100,56.0,0.0,30.0,4.0,0.0
6101,54.0,0.0,30.0,4.0,0.0
6102,73.0,0.0,30.0,11.0,0.0
6103,70.0,0.0,30.0,5.0,0.0
6104,70.0,0.0,30.0,12.0,0.0
6105,66.0,0.0,30.0,13.0,0.0
6106,34.0,34.0,60.0,9.0,0.0
6107,66.0,0.0,30.0,5.0,0.0
6108,73.0,14.0,30.0,5.0,0.0
6109,58.0,0.0,30.0,4.0,0.0
6110,71.0,0.0,30.0,12.0,0.0
6111,73.0,0.0,30.0,11.0,0.0
6112,34.0,34.0,90.0,9.0,0.0
6113,68.0,62.0,30.0,13.0,0.0
6114,71.0,0.0,30.0,5.0,0.0
6115,68.0,0.0,30.0,5.0,0.0
6116,50.0,0.0,30.0,9.0,0.0
6117,73.0,0.0,30.0,5.0,0.0
6118,56.0,0.0,30.0,4.0,0.0
6119,59.0,0.0,30.0,4.0,0.0
6120,34.0,34.0,60.0,9.0,0.0
6121,58.0,0.0,30.0,4.0,0.0
6122,54.0,0.0,30.0,4.0,0.0
6123,78.0,0.0,30.0,11.0,0.0
6124,70.0,0.0,30.0,12.0,0.0
6125,66.0,0.0,30.0,12.0,0.0
6126,66.0,0.0,30.0,5.0,0.0
6127,70.0,0.0,30.0,5.0,0.0
6128,78.0,0.0,30.0,5.0,0.0
6129,54.0,0.0,30.0,13.0,0.0
6130,34.0,34.0,60.0,9.0,0.0
6131,71.0,14.0,30.0,12.0,0.0
6132,68.0,0.0,30.0,12.0,0.0
6133,78.0,0.0,30.0,5.0,0.0
6134,68.0,0.0,30.0,5.0,0.0
6135,71.0,0.0,30.0,5.0,0.0
6136,78.0,0.0,30.0,11.0,0.0
6137,61.0,0.0,30.0,13.0,0.0
6138,56.0,0.0,30.0,4.0,0.0
6139,59.0,0.0,30.0,4.0,0.0
6140,70.0,0.0,30.0,5.0,0.0
6141,78.0,62.0,30.0,11.0,0.0
6142,70.0,0.0,30.0,12.0,0.0
6143,73.0,0.0,30.0,12.0,0.0
6144,34.0,24.0,90.0,9.0,0.0
6145,50.0,0.0,30.0,9.0,0.0
6146,61.0,0.0,30.0,4.0,0.0
6147,58.0,0.0,30.0,4.0,0.0
6148,78.0,0.0,30.0,5.0,0.0
6149,73.0,0.0,30.0,5.0,0.0
6150,66.0,0.0,30.0,13.0,0.0
6151,71.0,0.0,30.0,5.0,0.0
6152,63.0,0.0,30.0,5.0,0.0
6153,78.0,0.0,30.0,5.0,0.0
6154,51.0,0.0,30.0,14.0,0.0
6155,63.0,0.0,30.0,13.0,0.0
6156,78.0,14.0,30.0,11.0,0.0
6157,50.0,8.0,20.0,9.0,0.0
6158,51.0,0.0,30.0,4.0,0.0
6159,59.0,0.0,30.0,4.0,0.0
6160,34.0,2.0,30.0,9.0,0.0
6161,71.0,0.0,30.0,12.0,0.0
6162,50.0,16.0,20.0,9.0,0.0
6163,34.0,8.0,30.0,9.0,0.0
6164,66.0,14.0,30.0,5.0,0.0
6165,54.0,0.0,30.0,4.0,0.0
6166,73.0,0.0,30.0,5.0,0.0
6167,50.0,10.0,20.0,9.0,0.0
6168,73.0,0.0,30.0,12.0,0.0
6169,78.0,0.0,30.0,11.0,0.0
6170,66.0,0.0,30.0,13.0,0.0
6171,54.0,0.0,30.0,14.0,0.0
6172,61.0,0.0,30.0,4.0,0.0
6173,78.0,0.0,30.0,5.0,0.0
6174,34.0,34.0,30.0,9.0,0.0
6175,50.0,0.0,20.0,9.0,0.0
6176,34.0,32.0,90.0,9.0,0.0
6177,78.0,62.0,30.0,5.0,0.0
6178,59.0,0.0,30.0,4.0,0.0
6179,63.0,0.0,30.0,4.0,0.0
6180,71.0,0.0,30.0,5.0,0.0
6181,75.0,0.0,30.0,5.0,0.0
6182,59.0,0.0,30.0,14.0,0.0
6183,50.0,0.0,30.0,9.0,0.0
6184,75.0,0.0,30.0,12.0,0.0
6185,78.0,0.0,30.0,11.0,0.0
6186,71.0,0.0,30.0,13.0,0.0
6187,56.0,0.0,30.0,5.0,0.0
6188,71.0,0.0,30.0,12.0,0.0
6189,80.0,0.0,30.0,12.0,0.0
6190,83.0,0.0,30.0,11.0,0.0
6191,44.0,0.0,30.0,14.0,0.0
6192,50.0,0.0,30.0,9.0,0.0
6193,68.0,0.0,30.0,4.0,0.0
6194,71.0,0.0,30.0,5.0,0.0
6195,56.0,30.0,30.0,13.0,0.0
6196,59.0,0.0,30.0,4.0,0.0
6197,44.0,0.0,30.0,4.0,0.0
6198,34.0,2.0,30.0,9.0,0.0
6199,34.0,18.0,30.0,9.0,0.0
6200,51.0,0.0,30.0,14.0,0.0
6201,51.0,0.0,30.0,4.0,0.0
6202,83.0,0.0,30.0,11.0,0.0
6203,80.0,0.0,30.0,12.0,0.0
6204,63.0,0.0,30.0,5.0,0.0
6205,59.0,0.0,30.0,4.0,0.0
6206,68.0,0.0,30.0,4.0,0.0
6207,63.0,0.0,30.0,13.0,0.0
6208,71.0,0.0,30.0,5.0,0.0
6209,71.0,0.0,30.0,12.0,0.0
6210,34.0,34.0,30.0,9.0,0.0
6211,68.0,0.0,30.0,13.0,0.0
6212,68.0,0.0,30.0,4.0,0.0
6213,80.0,0.0,30.0,12.0,0.0
6214,56.0,0.0,30.0,4.0,0.0
6215,50.0,0.0,30.0,9.0,0.0
6216,71.0,0.0,30.0,12.0,0.0
6217,71.0,0.0,30.0,5.0,0.0
6218,68.0,62.0,30.0,5.0,0.0
6219,56.0,0.0,30.0,14.0,0.0
6220,59.0,0.0,30.0,4.0,0.0
6221,83.0,0.0,30.0,11.0,0.0
6222,34.0,24.0,90.0,9.0,0.0
6223,68.0,0.0,30.0,5.0,0.0
6224,80.0,0.0,30.0,11.0,0.0
6225,65.0,0.0,30.0,5.0,0.0
6226,49.0,0.0,30.0,13.0,0.0
6227,56.0,0.0,30.0,4.0,0.0
6228,65.0,0.0,30.0,4.0,0.0
6229,77.0,14.0,30.0,12.0,0.0
6230,37.0,0.0,30.0,14.0,0.0
6231,68.0,0.0,30.0,12.0,0.0
6232,77.0,0.0,30.0,5.0,0.0
6233,34.0,2.0,30.0,9.0,0.0
6234,50.0,8.0,20.0,9.0,0.0
6235,50.0,16.0,20.0,9.0,0.0
6236,34.0,8.0,30.0,9.0,0.0
6237,56.0,0.0,30.0,13.0,0.0
6238,44.0,0.0,30.0,14.0,0.0
6239,77.0,0.0,30.0,5.0,0.0
6240,65.0,0.0,30.0,4.0,0.0
6241,77.0,14.0,30.0,12.0,0.0
6242,56.0,0.0,30.0,4.0,0.0
6243,50.0,10.0,20.0,9.0,0.0
6244,80.0,0.0,30.0,11.0,0.0
6245,65.0,0.0,30.0,5.0,0.0
6246,68.0,0.0,30.0,5.0,0.0
6247,68.0,0.0,30.0,12.0,0.0
6248,34.0,0.0,30.0,9.0,0.0
6249,50.0,34.0,20.0,9.0,0.0
6250,77.0,0.0,30.0,12.0,0.0
6251,49.0,0.0,30.0,14.0,0.0
6252,56.0,0.0,30.0,4.0,0.0
6253,65.0,62.0,30.0,4.0,0.0
6254,68.0,0.0,30.0,12.0,0.0
6255,77.0,0.0,30.0,5.0,0.0
6256,61.0,0.0,30.0,13.0,0.0
6257,80.0,0.0,30.0,11.0,0.0
6258,50.0,0.0,30.0,9.0,0.0
6259,68.0,0.0,30.0,5.0,0.0
6260,34.0,24.0,90.0,9.0,0.0
6261,50.0,8.0,20.0,9.0,0.0
6262,82.0,0.0,30.0,11.0,0.0
6263,70.0,0.0,30.0,12.0,0.0
6264,34.0,2.0,30.0,9.0,0.0
6265,54.0,0.0,30.0,13.0,0.0
6266,78.0,0.0,30.0,12.0,0.0
6267,78.0,0.0,30.0,5.0,0.0
6268,70.0,0.0,30.0,5.0,0.0
6269,30.0,0.0,30.0,14.0,0.0
6270,58.0,0.0,30.0,4.0,0.0
6271,66.0,0.0,30.0,4.0,0.0
6272,66.0,0.0,30.0,5.0,0.0
6273,50.0,16.0,20.0,9.0,0.0
6274,34.0,8.0,30.0,9.0,0.0
6275,78.0,14.0,30.0,12.0,0.0
6276,82.0,0.0,30.0,11.0,0.0
6277,70.0,0.0,30.0,12.0,0.0
6278,66.0,0.0,30.0,4.0,0.0
6279,58.0,0.0,30.0,4.0,0.0
6280,70.0,0.0,30.0,5.0,0.0
6281,66.0,0.0,30.0,5.0,0.0
6282,50.0,10.0,20.0,9.0,0.0
6283,78.0,0.0,30.0,5.0,0.0
6284,37.0,0.0,30.0,14.0,0.0
6285,61.0,0.0,30.0,13.0,0.0
6286,34.0,34.0,30.0,9.0,0.0
6287,50.0,0.0,20.0,9.0,0.0
6288,82.0,0.0,30.0,11.0,0.0
6289,58.0,0.0,30.0,4.0,0.0
6290,66.0,0.0,30.0,4.0,0.0
6291,45.0,32.0,330.0,9.0,0.0
6292,42.0,0.0,30.0,14.0,0.0
6293,50.0,0.0,30.0,9.0,0.0
6294,66.0,0.0,30.0,13.0,0.0
6295,66.0,0.0,30.0,5.0,0.0
6296,78.0,0.0,30.0,12.0,0.0
6297,70.0,0.0,30.0,12.0,0.0
6298,34.0,34.0,90.0,9.0,0.0
6299,70.0,0.0,30.0,5.0,0.0
6300,78.0,0.0,30.0,5.0,0.0
6301,78.0,0.0,30.0,11.0,0.0
6302,34.0,48.0,30.0,14.0,0.0
6303,73.0,48.0,30.0,11.0,0.0
6304,37.0,0.0,30.0,14.0,0.0
6305,70.0,0.0,30.0,11.0,0.0
6306,42.0,48.0,30.0,14.0,0.0
6307,46.0,0.0,30.0,14.0,0.0
6308,66.0,48.0,30.0,11.0,0.0
6309,49.0,0.0,30.0,14.0,0.0
6310,61.0,16.0,30.0,11.0,0.0
6311,58.0,0.0,30.0,11.0,0.0
6312,54.0,48.0,30.0,14.0,0.0
6313,49.0,0.0,30.0,14.0,0.0
6314,61.0,0.0,30.0,11.0,0.0
6315,56.0,62.0,30.0,4.0,0.0
6316,56.0,0.0,30.0,12.0,0.0
6317,34.0,34.0,90.0,9.0,0.0
6318,49.0,0.0,30.0,4.0,0.0
6319,46.0,0.0,30.0,14.0,0.0
6320,61.0,0.0,30.0,11.0,0.0
6321,54.0,48.0,30.0,12.0,0.0
6322,46.0,0.0,30.0,4.0,0.0
6323,54.0,0.0,30.0,4.0,0.0
6324,56.0,0.0,30.0,4.0,0.0
6325,56.0,0.0,30.0,12.0,0.0
6326,49.0,0.0,30.0,4.0,0.0
6327,61.0,0.0,30.0,11.0,0.0
6328,49.0,48.0,30.0,14.0,0.0
6329,34.0,34.0,90.0,9.0,0.0
6330,58.0,62.0,30.0,12.0,0.0
6331,61.0,0.0,30.0,11.0,0.0
6332,54.0,0.0,30.0,14.0,0.0
6333,54.0,0.0,30.0,4.0,0.0
6334,58.0,0.0,30.0,4.0,0.0
6335,56.0,0.0,30.0,12.0,0.0
6336,49.0,0.0,30.0,14.0,0.0
6337,61.0,0.0,30.0,11.0,0.0
6338,56.0,48.0,30.0,4.0,0.0
6339,49.0,0.0,30.0,4.0,0.0
6340,54.0,0.0,30.0,12.0,0.0
6341,61.0,0.0,30.0,11.0,0.0
6342,46.0,0.0,30.0,4.0,0.0
6343,46.0,48.0,30.0,14.0,0.0
6344,54.0,0.0,30.0,4.0,0.0
6345,49.0,32.0,90.0,4.0,0.0
6346,49.0,0.0,30.0,14.0,0.0
6347,34.0,2.0,90.0,9.0,0.0
6348,56.0,0.0,30.0,12.0,0.0
6349,56.0,0.0,90.0,4.0,0.0
6350,61.0,62.0,30.0,11.0,0.0
6351,65.0,14.0,30.0,11.0,0.0
6352,41.0,0.0,30.0,14.0,0.0
6353,65.0,0.0,30.0,5.0,0.0
6354,34.0,34.0,60.0,9.0,0.0
6355,53.0,0.0,30.0,13.0,0.0
6356,53.0,14.0,30.0,13.0,0.0
6357,41.0,0.0,30.0,14.0,0.0
6358,65.0,0.0,30.0,5.0,0.0
6359,65.0,0.0,30.0,11.0,0.0
6360,34.0,96.0,60.0,9.0,0.0
6361,65.0,0.0,90.0,11.0,0.0
6362,34.0,2.0,90.0,9.0,0.0
6363,53.0,0.0,90.0,13.0,0.0
6364,65.0,0.0,90.0,5.0,0.0
6365,41.0,0.0,90.0,14.0,0.0
6366,61.0,0.0,30.0,5.0,0.0
6367,58.0,0.0,30.0,12.0,0.0
6368,61.0,0.0,30.0,12.0,0.0
6369,66.0,0.0,30.0,5.0,0.0
6370,54.0,0.0,30.0,13.0,0.0
6371,58.0,0.0,30.0,4.0,0.0
6372,66.0,0.0,30.0,11.0,0.0
6373,42.0,0.0,30.0,14.0,0.0
6374,34.0,34.0,90.0,9.0,0.0
6375,58.0,0.0,30.0,5.0,0.0
6376,61.0,0.0,30.0,4.0,0.0
6377,59.0,0.0,30.0,4.0,0.0
6378,63.0,0.0,30.0,12.0,0.0
6379,63.0,0.0,30.0,4.0,0.0
6380,59.0,0.0,30.0,14.0,0.0
6381,66.0,62.0,30.0,11.0,0.0
6382,34.0,34.0,90.0,9.0,0.0
6383,66.0,0.0,30.0,11.0,0.0
6384,61.0,48.0,30.0,12.0,0.0
6385,54.0,0.0,30.0,14.0,0.0
6386,54.0,0.0,30.0,4.0,0.0
6387,61.0,0.0,30.0,4.0,0.0
6388,59.0,0.0,30.0,14.0,0.0
6389,59.0,0.0,30.0,4.0,0.0
6390,63.0,0.0,30.0,4.0,0.0
6391,63.0,0.0,30.0,12.0,0.0
6392,66.0,48.0,30.0,11.0,0.0
6393,64.0,62.0,30.0,12.0,0.0
6394,34.0,34.0,90.0,9.0,0.0
6395,61.0,0.0,30.0,14.0,0.0
6396,64.0,0.0,30.0,4.0,0.0
6397,66.0,0.0,30.0,11.0,0.0
6398,61.0,0.0,30.0,4.0,0.0
6399,59.0,0.0,30.0,4.0,0.0
6400,59.0,0.0,30.0,14.0,0.0
6401,66.0,48.0,30.0,11.0,0.0
6402,63.0,0.0,30.0,4.0,0.0
6403,63.0,0.0,30.0,12.0,0.0
6404,54.0,0.0,30.0,4.0,0.0
6405,54.0,48.0,30.0,14.0,0.0
6406,61.0,0.0,30.0,12.0,0.0
6407,61.0,0.0,30.0,4.0,0.0
6408,66.0,0.0,30.0,11.0,0.0
6409,34.0,2.0,90.0,9.0,0.0
6410,63.0,0.0,90.0,4.0,0.0
6411,59.0,32.0,90.0,4.0,0.0
6412,66.0,62.0,30.0,11.0,0.0
6413,59.0,0.0,30.0,14.0,0.0
6414,63.0,0.0,30.0,12.0,0.0
6415,34.0,34.0,60.0,9.0,0.0
6416,58.0,0.0,30.0,14.0,0.0
6417,70.0,0.0,30.0,11.0,0.0
6418,70.0,0.0,30.0,5.0,0.0
6419,58.0,14.0,30.0,13.0,0.0
6420,58.0,0.0,30.0,14.0,0.0
6421,34.0,96.0,60.0,9.0,0.0
6422,70.0,0.0,30.0,5.0,0.0
6423,58.0,0.0,30.0,13.0,0.0
6424,70.0,0.0,30.0,11.0,0.0
6425,34.0,2.0,90.0,9.0,0.0
6426,58.0,0.0,90.0,14.0,0.0
6427,70.0,0.0,90.0,11.0,0.0
6428,58.0,32.0,90.0,13.0,0.0
6429,70.0,0.0,90.0,5.0,0.0
6430,56.0,0.0,30.0,4.0,0.0
6431,53.0,0.0,30.0,4.0,0.0
6432,73.0,0.0,30.0,5.0,0.0
6433,68.0,0.0,30.0,5.0,0.0
6434,65.0,0.0,30.0,5.0,0.0
6435,61.0,0.0,30.0,14.0,0.0
6436,34.0,34.0,90.0,9.0,0.0
6437,73.0,0.0,30.0,11.0,0.0
6438,61.0,0.0,30.0,13.0,0.0
6439,68.0,0.0,30.0,12.0,0.0
6440,61.0,62.0,30.0,4.0,0.0
6441,65.0,0.0,30.0,12.0,0.0
6442,66.0,0.0,30.0,13.0,0.0
6443,73.0,0.0,30.0,5.0,0.0
6444,70.0,0.0,30.0,12.0,0.0
6445,70.0,0.0,30.0,5.0,0.0
6446,66.0,0.0,30.0,5.0,0.0
6447,73.0,0.0,30.0,11.0,0.0
6448,58.0,0.0,30.0,4.0,0.0
6449,50.0,0.0,30.0,9.0,0.0
6450,54.0,0.0,30.0,4.0,0.0
6451,34.0,34.0,90.0,9.0,0.0
6452,61.0,0.0,30.0,5.0,0.0
6453,68.0,14.0,30.0,5.0,0.0
6454,68.0,0.0,30.0,12.0,0.0
6455,56.0,0.0,30.0,4.0,0.0
6456,73.0,0.0,30.0,5.0,0.0
6457,61.0,0.0,30.0,13.0,0.0
6458,34.0,34.0,60.0,9.0,0.0
6459,73.0,0.0,30.0,11.0,0.0
6460,49.0,0.0,30.0,4.0,0.0
6461,73.0,0.0,30.0,5.0,0.0
6462,34.0,34.0,60.0,9.0,0.0
6463,70.0,0.0,30.0,5.0,0.0
6464,66.0,0.0,30.0,13.0,0.0
6465,66.0,0.0,30.0,5.0,0.0
6466,73.0,0.0,30.0,11.0,0.0
6467,58.0,0.0,30.0,4.0,0.0
6468,54.0,0.0,30.0,4.0,0.0
6469,70.0,14.0,30.0,12.0,0.0
6470,71.0,0.0,30.0,12.0,0.0
6471,68.0,0.0,30.0,13.0,0.0
6472,73.0,0.0,30.0,11.0,0.0
6473,56.0,0.0,30.0,4.0,0.0
6474,34.0,34.0,90.0,9.0,0.0
6475,59.0,0.0,30.0,4.0,0.0
6476,71.0,0.0,30.0,5.0,0.0
6477,50.0,0.0,30.0,9.0,0.0
6478,73.0,62.0,30.0,5.0,0.0
6479,68.0,0.0,30.0,5.0,0.0
6480,66.0,0.0,30.0,5.0,0.0
6481,54.0,0.0,30.0,13.0,0.0
6482,78.0,0.0,30.0,5.0,0.0
6483,54.0,0.0,30.0,4.0,0.0
6484,34.0,34.0,60.0,9.0,0.0
6485,78.0,0.0,30.0,11.0,0.0
6486,70.0,0.0,30.0,5.0,0.0
6487,66.0,0.0,30.0,12.0,0.0
6488,70.0,14.0,30.0,12.0,0.0
6489,58.0,0.0,30.0,4.0,0.0
6490,78.0,0.0,30.0,11.0,0.0
6491,71.0,0.0,30.0,12.0,0.0
6492,59.0,0.0,30.0,4.0,0.0
6493,56.0,0.0,30.0,4.0,0.0
6494,61.0,0.0,30.0,13.0,0.0
6495,78.0,14.0,30.0,5.0,0.0
6496,68.0,0.0,30.0,12.0,0.0
6497,71.0,0.0,30.0,5.0,0.0
6498,68.0,0.0,30.0,5.0,0.0
6499,34.0,34.0,60.0,9.0,0.0
6500,78.0,0.0,30.0,5.0,0.0
6501,73.0,0.0,30.0,12.0,0.0
6502,34.0,24.0,90.0,9.0,0.0
6503,50.0,62.0,30.0,9.0,0.0
6504,78.0,0.0,30.0,11.0,0.0
6505,73.0,0.0,30.0,5.0,0.0
6506,70.0,0.0,30.0,5.0,0.0
6507,58.0,0.0,30.0,4.0,0.0
6508,70.0,0.0,30.0,12.0,0.0
6509,61.0,0.0,30.0,4.0,0.0
6510,66.0,0.0,30.0,13.0,0.0
6511,78.0,0.0,30.0,11.0,0.0
6512,34.0,2.0,30.0,9.0,0.0
6513,59.0,0.0,30.0,4.0,0.0
6514,71.0,0.0,30.0,12.0,0.0
6515,78.0,0.0,30.0,5.0,0.0
6516,71.0,14.0,30.0,5.0,0.0
6517,63.0,0.0,30.0,13.0,0.0
6518,63.0,0.0,30.0,5.0,0.0
6519,51.0,0.0,30.0,4.0,0.0
6520,50.0,8.0,20.0,9.0,0.0
6521,51.0,0.0,30.0,14.0,0.0
6522,50.0,16.0,20.0,9.0,0.0
6523,34.0,8.0,30.0,9.0,0.0
6524,50.0,10.0,20.0,9.0,0.0
6525,54.0,0.0,30.0,4.0,0.0
6526,54.0,0.0,30.0,14.0,0.0
6527,66.0,0.0,30.0,13.0,0.0
6528,66.0,0.0,30.0,5.0,0.0
6529,73.0,14.0,30.0,12.0,0.0
6530,73.0,0.0,30.0,5.0,0.0
6531,61.0,0.0,30.0,4.0,0.0
6532,78.0,0.0,30.0,5.0,0.0
6533,78.0,0.0,30.0,11.0,0.0
6534,34.0,34.0,30.0,9.0,0.0
6535,50.0,0.0,20.0,9.0,0.0
6536,78.0,62.0,30.0,5.0,0.0
6537,59.0,0.0,30.0,14.0,0.0
6538,34.0,32.0,90.0,9.0,0.0
6539,75.0,0.0,30.0,5.0,0.0
6540,71.0,0.0,30.0,5.0,0.0
6541,75.0,0.0,30.0,12.0,0.0
6542,59.0,0.0,30.0,4.0,0.0
6543,78.0,0.0,30.0,11.0,0.0
6544,63.0,0.0,30.0,4.0,0.0
6545,50.0,0.0,30.0,9.0,0.0
6546,71.0,0.0,30.0,13.0,0.0
6547,56.0,0.0,30.0,5.0,0.0
6548,83.0,0.0,30.0,11.0,0.0
6549,34.0,2.0,30.0,9.0,0.0
6550,56.0,0.0,30.0,13.0,0.0
6551,44.0,0.0,30.0,4.0,0.0
6552,71.0,0.0,30.0,12.0,0.0
6553,71.0,0.0,30.0,5.0,0.0
6554,44.0,0.0,30.0,14.0,0.0
6555,68.0,0.0,30.0,4.0,0.0
6556,50.0,0.0,30.0,9.0,0.0
6557,80.0,30.0,30.0,12.0,0.0
6558,59.0,0.0,30.0,4.0,0.0
6559,34.0,18.0,30.0,9.0,0.0
6560,68.0,0.0,30.0,4.0,0.0
6561,63.0,0.0,30.0,13.0,0.0
6562,83.0,0.0,30.0,11.0,0.0
6563,51.0,0.0,30.0,14.0,0.0
6564,80.0,0.0,30.0,12.0,0.0
6565,51.0,0.0,30.0,4.0,0.0
6566,59.0,0.0,30.0,4.0,0.0
6567,63.0,14.0,30.0,5.0,0.0
6568,71.0,0.0,30.0,12.0,0.0
6569,71.0,0.0,30.0,5.0,0.0
6570,34.0,34.0,30.0,9.0,0.0
6571,34.0,24.0,90.0,9.0,0.0
6572,50.0,0.0,30.0,9.0,0.0
6573,68.0,0.0,30.0,5.0,0.0
6574,80.0,0.0,30.0,12.0,0.0
6575,68.0,0.0,30.0,4.0,0.0
6576,83.0,0.0,30.0,11.0,0.0
6577,56.0,0.0,30.0,14.0,0.0
6578,71.0,0.0,30.0,5.0,0.0
6579,59.0,0.0,30.0,4.0,0.0
6580,56.0,0.0,30.0,4.0,0.0
6581,71.0,62.0,30.0,12.0,0.0
6582,68.0,0.0,30.0,13.0,0.0
6583,34.0,2.0,30.0,9.0,0.0
6584,37.0,0.0,30.0,14.0,0.0
6585,80.0,0.0,30.0,11.0,0.0
6586,49.0,0.0,30.0,13.0,0.0
6587,77.0,0.0,30.0,12.0,0.0
6588,68.0,0.0,30.0,5.0,0.0
6589,65.0,14.0,30.0,5.0,0.0
6590,56.0,0.0,30.0,4.0,0.0
6591,68.0,0.0,30.0,12.0,0.0
6592,50.0,8.0,20.0,9.0,0.0
6593,77.0,0.0,30.0,5.0,0.0
6594,65.0,0.0,30.0,4.0,0.0
6595,50.0,16.0,20.0,9.0,0.0
6596,34.0,8.0,30.0,9.0,0.0
6597,44.0,0.0,30.0,14.0,0.0
6598,77.0,0.0,30.0,12.0,0.0
6599,68.0,0.0,30.0,12.0,0.0
6600,50.0,10.0,20.0,9.0,0.0
6601,80.0,0.0,30.0,11.0,0.0
6602,77.0,14.0,30.0,5.0,0.0
6603,56.0,0.0,30.0,4.0,0.0
6604,65.0,0.0,30.0,4.0,0.0
6605,68.0,0.0,30.0,5.0,0.0
6606,65.0,0.0,30.0,5.0,0.0
6607,56.0,0.0,30.0,13.0,0.0
6608,34.0,34.0,30.0,9.0,0.0
6609,50.0,0.0,20.0,9.0,0.0
6610,50.0,0.0,30.0,9.0,0.0
6611,77.0,0.0,30.0,12.0,0.0
6612,68.0,0.0,30.0,12.0,0.0
6613,49.0,0.0,30.0,14.0,0.0
6614,65.0,0.0,30.0,4.0,0.0
6615,61.0,62.0,30.0,13.0,0.0
6616,68.0,0.0,30.0,5.0,0.0
6617,80.0,0.0,30.0,11.0,0.0
6618,77.0,0.0,30.0,5.0,0.0
6619,56.0,0.0,30.0,4.0,0.0
6620,34.0,24.0,90.0,9.0,0.0
6621,70.0,0.0,30.0,12.0,0.0
6622,66.0,0.0,30.0,5.0,0.0
6623,34.0,2.0,30.0,9.0,0.0
6624,54.0,0.0,30.0,13.0,0.0
6625,78.0,0.0,30.0,12.0,0.0
6626,30.0,0.0,30.0,14.0,0.0
6627,70.0,14.0,30.0,5.0,0.0
6628,66.0,0.0,30.0,4.0,0.0
6629,78.0,0.0,30.0,5.0,0.0
6630,82.0,0.0,30.0,11.0,0.0
6631,50.0,8.0,20.0,9.0,0.0
6632,58.0,0.0,30.0,4.0,0.0
6633,50.0,16.0,20.0,9.0,0.0
6634,34.0,8.0,30.0,9.0,0.0
6635,78.0,0.0,30.0,12.0,0.0
6636,50.0,10.0,20.0,9.0,0.0
6637,37.0,0.0,30.0,14.0,0.0
6638,61.0,0.0,30.0,13.0,0.0
6639,66.0,0.0,30.0,4.0,0.0
6640,66.0,0.0,30.0,5.0,0.0
6641,70.0,0.0,30.0,5.0,0.0
6642,78.0,0.0,30.0,5.0,0.0
6643,58.0,0.0,30.0,4.0,0.0
6644,70.0,0.0,30.0,12.0,0.0
6645,82.0,14.0,30.0,11.0,0.0
6646,34.0,34.0,30.0,9.0,0.0
6647,50.0,0.0,20.0,9.0,0.0
6648,66.0,0.0,30.0,5.0,0.0
6649,45.0,32.0,330.0,9.0,0.0
6650,66.0,0.0,30.0,13.0,0.0
6651,34.0,34.0,90.0,9.0,0.0
6652,82.0,0.0,30.0,11.0,0.0
6653,78.0,0.0,30.0,5.0,0.0
6654,70.0,0.0,30.0,5.0,0.0
6655,58.0,0.0,30.0,4.0,0.0
6656,66.0,0.0,30.0,4.0,0.0
6657,78.0,0.0,30.0,12.0,0.0
6658,42.0,0.0,30.0,14.0,0.0
6659,50.0,0.0,30.0,9.0,0.0
6660,70.0,62.0,30.0,12.0,0.0
6661,34.0,48.0,30.0,14.0,0.0
6662,78.0,0.0,30.0,11.0,0.0
6663,73.0,0.0,30.0,11.0,0.0
6664,37.0,48.0,30.0,14.0,0.0
6665,70.0,48.0,30.0,11.0,0.0
6666,42.0,0.0,30.0,14.0,0.0
6667,46.0,0.0,30.0,14.0,0.0
6668,66.0,48.0,30.0,11.0,0.0
6669,49.0,0.0,30.0,14.0,0.0
6670,61.0,16.0,30.0,11.0,0.0
6671,54.0,110.0,30.0,14.0,0.0
6672,58.0,0.0,30.0,11.0,0.0
6673,54.0,0.0,90.0,14.0,0.0
6674,34.0,2.0,90.0,9.0,0.0
6675,54.0,0.0,90.0,11.0,0.0
6676,66.0,34.0,90.0,0.0,0.0
6677,58.0,34.0,60.0,1.0,0.0
6678,34.0,0.0,30.0,9.0,0.0
6679,54.0,32.0,15.0,13.0,0.0
6680,61.0,0.0,60.0,1.0,0.0
6681,34.0,14.0,30.0,9.0,0.0
6682,54.0,0.0,30.0,13.0,0.0
6683,54.0,14.0,30.0,13.0,0.0
6684,68.0,16.0,150.0,0.0,0.0
6685,65.0,48.0,60.0,1.0,0.0
6686,34.0,0.0,30.0,9.0,0.0
6687,63.0,34.0,60.0,1.0,0.0
6688,34.0,0.0,30.0,9.0,0.0
6689,54.0,14.0,30.0,13.0,0.0
6690,61.0,18.0,60.0,1.0,0.0
6691,59.0,34.0,60.0,1.0,0.0
6692,34.0,0.0,30.0,9.0,0.0
6693,54.0,14.0,30.0,13.0,0.0
6694,54.0,0.0,30.0,13.0,0.0
6695,34.0,14.0,30.0,9.0,0.0
6696,58.0,48.0,60.0,1.0,0.0
6697,61.0,34.0,60.0,1.0,0.0
6698,54.0,0.0,30.0,13.0,0.0
6699,34.0,14.0,30.0,9.0,0.0
6700,70.0,34.0,90.0,0.0,0.0
6701,66.0,34.0,60.0,1.0,0.0
6702,34.0,0.0,30.0,9.0,0.0
6703,54.0,14.0,30.0,13.0,0.0
6704,66.0,0.0,60.0,1.0,0.0
6705,54.0,0.0,30.0,13.0,0.0
6706,34.0,14.0,30.0,9.0,0.0
6707,75.0,16.0,150.0,0.0,0.0
6708,71.0,48.0,60.0,1.0,0.0
6709,70.0,34.0,60.0,1.0,0.0
6710,54.0,0.0,30.0,13.0,0.0
6711,34.0,14.0,30.0,9.0,0.0
6712,68.0,18.0,60.0,1.0,0.0
6713,66.0,34.0,60.0,1.0,0.0
6714,34.0,14.0,30.0,9.0,0.0
6715,54.0,0.0,30.0,13.0,0.0
6716,34.0,0.0,30.0,9.0,0.0
6717,54.0,14.0,30.0,13.0,0.0
6718,65.0,48.0,60.0,1.0,0.0
6719,68.0,34.0,60.0,1.0,0.0
6720,34.0,0.0,30.0,9.0,0.0
6721,54.0,14.0,30.0,13.0,0.0
6722,73.0,34.0,90.0,0.0,0.0
6723,71.0,34.0,60.0,1.0,0.0
6724,71.0,0.0,60.0,1.0,0.0
6725,54.0,14.0,30.0,13.0,0.0
6726,34.0,0.0,30.0,9.0,0.0
6727,34.0,0.0,30.0,9.0,0.0
6728,80.0,16.0,150.0,0.0,0.0
6729,54.0,14.0,30.0,13.0,0.0
6730,77.0,48.0,60.0,1.0,0.0
6731,75.0,34.0,60.0,1.0,0.0
6732,73.0,18.0,60.0,1.0,0.0
6733,54.0,14.0,30.0,13.0,0.0
6734,34.0,0.0,30.0,9.0,0.0
6735,71.0,34.0,60.0,1.0,0.0
6736,54.0,0.0,30.0,13.0,0.0
6737,34.0,14.0,30.0,9.0,0.0
6738,54.0,14.0,30.0,13.0,0.0
6739,70.0,0.0,60.0,1.0,0.0
6740,34.0,0.0,30.0,9.0,0.0
6741,78.0,48.0,60.0,0.0,0.0
6742,71.0,0.0,60.0,1.0,0.0
6743,75.0,34.0,60.0,0.0,0.0
6744,34.0,14.0,30.0,9.0,0.0
6745,68.0,0.0,60.0,1.0,0.0
6746,77.0,34.0,60.0,0.0,0.0
6747,54.0,0.0,30.0,13.0,0.0
6748,70.0,0.0,60.0,1.0,0.0
6749,54.0,14.0,30.0,13.0,0.0
6750,73.0,34.0,60.0,0.0,0.0
6751,34.0,0.0,30.0,9.0,0.0
6752,66.0,0.0,60.0,1.0,0.0
6753,34.0,14.0,30.0,9.0,0.0
6754,54.0,0.0,30.0,13.0,0.0
6755,75.0,48.0,60.0,0.0,0.0
6756,68.0,34.0,60.0,1.0,0.0
6757,71.0,0.0,60.0,0.0,0.0
6758,54.0,0.0,30.0,13.0,0.0
6759,65.0,34.0,90.0,1.0,0.0
6760,73.0,34.0,60.0,0.0,0.0
6761,34.0,14.0,30.0,9.0,0.0
6762,68.0,0.0,60.0,0.0,0.0
6763,34.0,14.0,30.0,9.0,0.0
6764,54.0,0.0,30.0,13.0,0.0
6765,34.0,96.0,30.0,9.0,0.0
6766,54.0,0.0,30.0,13.0,0.0
6767,66.0,0.0,90.0,2.0,0.0
6768,34.0,0.0,30.0,9.0,0.0
6769,54.0,14.0,30.0,13.0,0.0
6770,70.0,34.0,60.0,0.0,0.0
6771,73.0,34.0,60.0,0.0,0.0
6772,34.0,0.0,30.0,9.0,0.0
6773,54.0,14.0,30.0,13.0,0.0
6774,77.0,48.0,60.0,0.0,0.0
6775,68.0,16.0,150.0,2.0,0.0
6776,34.0,0.0,30.0,9.0,0.0
6777,54.0,14.0,30.0,13.0,0.0
6778,75.0,34.0,60.0,0.0,0.0
6779,34.0,14.0,30.0,9.0,0.0
6780,54.0,0.0,30.0,13.0,0.0
6781,73.0,18.0,60.0,0.0,0.0
6782,71.0,34.0,60.0,0.0,0.0
6783,54.0,14.0,30.0,13.0,0.0
6784,34.0,0.0,30.0,9.0,0.0
6785,70.0,48.0,60.0,0.0,0.0
6786,34.0,14.0,30.0,9.0,0.0
6787,54.0,0.0,30.0,13.0,0.0
6788,73.0,34.0,60.0,0.0,0.0
6789,78.0,34.0,60.0,0.0,0.0
6790,34.0,14.0,30.0,9.0,0.0
6791,54.0,0.0,30.0,13.0,0.0
6792,70.0,34.0,90.0,2.0,0.0
6793,34.0,0.0,30.0,9.0,0.0
6794,78.0,0.0,60.0,0.0,0.0
6795,54.0,14.0,30.0,13.0,0.0
6796,75.0,16.0,150.0,2.0,0.0
6797,34.0,0.0,30.0,9.0,0.0
6798,54.0,14.0,30.0,13.0,0.0
6799,83.0,48.0,60.0,0.0,0.0
6800,82.0,34.0,60.0,0.0,0.0
6801,34.0,0.0,30.0,9.0,0.0
6802,54.0,14.0,30.0,13.0,0.0
6803,80.0,18.0,60.0,0.0,0.0
6804,54.0,0.0,30.0,13.0,0.0
6805,34.0,14.0,30.0,9.0,0.0
6806,78.0,34.0,60.0,0.0,0.0
6807,77.0,48.0,60.0,0.0,0.0
6808,54.0,0.0,30.0,13.0,0.0
6809,34.0,14.0,30.0,9.0,0.0
6810,80.0,34.0,60.0,0.0,0.0
6811,73.0,0.0,90.0,2.0,0.0
6812,83.0,34.0,60.0,0.0,0.0
6813,54.0,0.0,30.0,13.0,0.0
6814,34.0,14.0,30.0,9.0,0.0
6815,83.0,34.0,60.0,0.0,0.0
6816,34.0,14.0,30.0,9.0,0.0
6817,54.0,0.0,30.0,13.0,0.0
6818,54.0,0.0,30.0,13.0,0.0
6819,34.0,14.0,30.0,9.0,0.0
6820,80.0,16.0,150.0,2.0,0.0
6821,89.0,48.0,60.0,0.0,0.0
6822,87.0,34.0,60.0,0.0,0.0
6823,85.0,18.0,60.0,0.0,0.0
6824,34.0,0.0,30.0,9.0,0.0
6825,54.0,14.0,30.0,13.0,0.0
6826,34.0,14.0,30.0,9.0,0.0
6827,83.0,34.0,60.0,0.0,0.0
6828,54.0,0.0,30.0,13.0,0.0
6829,54.0,0.0,30.0,13.0,0.0
6830,78.0,0.0,60.0,2.0,0.0
6831,82.0,48.0,60.0,0.0,0.0
6832,34.0,14.0,30.0,9.0,0.0
6833,75.0,0.0,60.0,2.0,0.0
6834,83.0,34.0,60.0,0.0,0.0
6835,77.0,34.0,60.0,2.0,0.0
6836,80.0,0.0,60.0,0.0,0.0
6837,34.0,0.0,30.0,9.0,0.0
6838,54.0,14.0,30.0,13.0,0.0
6839,34.0,0.0,30.0,9.0,0.0
6840,73.0,34.0,60.0,2.0,0.0
6841,82.0,0.0,60.0,0.0,0.0
6842,54.0,14.0,30.0,13.0,0.0
6843,34.0,0.0,30.0,9.0,0.0
6844,78.0,0.0,60.0,0.0,0.0
6845,54.0,14.0,30.0,13.0,0.0
6846,75.0,48.0,60.0,2.0,0.0
6847,72.0,0.0,60.0,2.0,0.0
6848,80.0,34.0,60.0,0.0,0.0
6849,73.0,34.0,90.0,2.0,0.0
6850,34.0,48.0,30.0,9.0,0.0
6851,73.0,0.0,90.0,0.0,0.0
6852,49.0,0.0,30.0,13.0,0.0
6853,49.0,0.0,30.0,13.0,0.0
6854,34.0,14.0,30.0,9.0,0.0
6855,49.0,0.0,30.0,13.0,0.0
6856,34.0,96.0,30.0,9.0,0.0
6857,54.0,14.0,30.0,13.0,0.0
6858,66.0,34.0,90.0,0.0,0.0
6859,34.0,0.0,30.0,9.0,0.0
6860,58.0,34.0,60.0,1.0,0.0
6861,34.0,0.0,30.0,9.0,0.0
6862,54.0,14.0,30.0,13.0,0.0
6863,61.0,0.0,60.0,1.0,0.0
6864,54.0,0.0,30.0,13.0,0.0
6865,65.0,48.0,60.0,1.0,0.0
6866,34.0,14.0,30.0,9.0,0.0
6867,68.0,16.0,150.0,0.0,0.0
6868,63.0,34.0,60.0,1.0,0.0
6869,54.0,0.0,30.0,13.0,0.0
6870,61.0,18.0,60.0,1.0,0.0
6871,34.0,14.0,30.0,9.0,0.0
6872,54.0,14.0,30.0,13.0,0.0
6873,34.0,0.0,30.0,9.0,0.0
6874,59.0,34.0,60.0,1.0,0.0
6875,58.0,48.0,60.0,1.0,0.0
6876,54.0,0.0,30.0,13.0,0.0
6877,34.0,14.0,30.0,9.0,0.0
6878,61.0,34.0,60.0,1.0,0.0
6879,34.0,14.0,30.0,9.0,0.0
6880,70.0,34.0,90.0,0.0,0.0
6881,66.0,34.0,60.0,1.0,0.0
6882,54.0,0.0,30.0,13.0,0.0
6883,54.0,0.0,30.0,13.0,0.0
6884,34.0,14.0,30.0,9.0,0.0
6885,66.0,0.0,60.0,1.0,0.0
6886,75.0,16.0,150.0,0.0,0.0
6887,54.0,0.0,30.0,13.0,0.0
6888,34.0,14.0,30.0,9.0,0.0
6889,71.0,48.0,60.0,1.0,0.0
6890,70.0,34.0,60.0,1.0,0.0
6891,54.0,14.0,30.0,13.0,0.0
6892,34.0,0.0,30.0,9.0,0.0
6893,68.0,18.0,60.0,1.0,0.0
6894,34.0,0.0,30.0,9.0,0.0
6895,66.0,34.0,60.0,1.0,0.0
6896,54.0,14.0,30.0,13.0,0.0
6897,65.0,48.0,60.0,1.0,0.0
6898,54.0,14.0,30.0,13.0,0.0
6899,34.0,0.0,30.0,9.0,0.0
6900,68.0,34.0,60.0,1.0,0.0
6901,54.0,0.0,30.0,13.0,0.0
6902,71.0,34.0,60.0,1.0,0.0
6903,73.0,0.0,90.0,0.0,0.0
6904,34.0,14.0,30.0,9.0,0.0
6905,71.0,34.0,60.0,1.0,0.0
6906,54.0,0.0,30.0,13.0,0.0
6907,34.0,14.0,30.0,9.0,0.0
6908,77.0,48.0,60.0,1.0,0.0
6909,54.0,0.0,30.0,13.0,0.0
6910,80.0,16.0,150.0,0.0,0.0
6911,34.0,14.0,30.0,9.0,0.0
6912,75.0,34.0,60.0,1.0,0.0
6913,54.0,14.0,30.0,13.0,0.0
6914,73.0,18.0,60.0,1.0,0.0
6915,34.0,0.0,30.0,9.0,0.0
6916,54.0,14.0,30.0,13.0,0.0
6917,34.0,0.0,30.0,9.0,0.0
6918,71.0,34.0,60.0,1.0,0.0
6919,34.0,0.0,30.0,9.0,0.0
6920,54.0,14.0,30.0,13.0,0.0
6921,78.0,0.0,60.0,0.0,0.0
6922,70.0,48.0,60.0,1.0,0.0
6923,75.0,34.0,60.0,0.0,0.0
6924,71.0,0.0,60.0,1.0,0.0
6925,54.0,14.0,30.0,13.0,0.0
6926,77.0,34.0,60.0,0.0,0.0
6927,34.0,0.0,30.0,9.0,0.0
6928,68.0,0.0,60.0,1.0,0.0
6929,70.0,34.0,60.0,1.0,0.0
6930,34.0,14.0,30.0,9.0,0.0
6931,54.0,0.0,30.0,13.0,0.0
6932,73.0,0.0,60.0,0.0,0.0
6933,66.0,0.0,60.0,1.0,0.0
6934,54.0,0.0,30.0,13.0,0.0
6935,34.0,14.0,30.0,9.0,0.0
6936,75.0,48.0,60.0,0.0,0.0
6937,71.0,0.0,60.0,0.0,0.0
6938,68.0,34.0,60.0,1.0,0.0
6939,34.0,14.0,30.0,9.0,0.0
6940,65.0,0.0,90.0,1.0,0.0
6941,54.0,0.0,30.0,13.0,0.0
6942,73.0,34.0,60.0,0.0,0.0
6943,34.0,14.0,30.0,9.0,0.0
6944,54.0,0.0,30.0,13.0,0.0
6945,68.0,34.0,60.0,0.0,0.0
6946,54.0,0.0,30.0,13.0,0.0
6947,34.0,96.0,30.0,9.0,0.0
6948,66.0,34.0,90.0,2.0,0.0
6949,34.0,0.0,30.0,9.0,0.0
6950,54.0,14.0,30.0,13.0,0.0
6951,70.0,34.0,60.0,0.0,0.0
6952,73.0,0.0,60.0,0.0,0.0
6953,34.0,14.0,30.0,9.0,0.0
6954,54.0,0.0,30.0,13.0,0.0
6955,54.0,0.0,30.0,13.0,0.0
6956,34.0,14.0,30.0,9.0,0.0
6957,68.0,16.0,150.0,2.0,0.0
6958,77.0,48.0,60.0,0.0,0.0
6959,75.0,34.0,60.0,0.0,0.0
6960,54.0,14.0,30.0,13.0,0.0
6961,34.0,0.0,30.0,9.0,0.0
6962,73.0,18.0,60.0,0.0,0.0
6963,71.0,34.0,60.0,0.0,0.0
6964,54.0,0.0,30.0,13.0,0.0
6965,34.0,14.0,30.0,9.0,0.0
6966,34.0,0.0,30.0,9.0,0.0
6967,54.0,14.0,30.0,13.0,0.0
6968,70.0,48.0,60.0,0.0,0.0
6969,73.0,34.0,60.0,0.0,0.0
6970,54.0,0.0,30.0,13.0,0.0
6971,70.0,0.0,90.0,2.0,0.0
6972,34.0,14.0,30.0,9.0,0.0
6973,78.0,34.0,60.0,0.0,0.0
6974,54.0,14.0,30.0,13.0,0.0
6975,34.0,0.0,30.0,9.0,0.0
6976,78.0,34.0,60.0,0.0,0.0
6977,34.0,0.0,30.0,9.0,0.0
6978,83.0,48.0,60.0,0.0,0.0
6979,75.0,16.0,150.0,2.0,0.0
6980,54.0,14.0,30.0,13.0,0.0
6981,82.0,34.0,60.0,0.0,0.0
6982,54.0,14.0,30.0,13.0,0.0
6983,80.0,18.0,60.0,0.0,0.0
6984,34.0,0.0,30.0,9.0,0.0
6985,78.0,34.0,60.0,0.0,0.0
6986,54.0,14.0,30.0,13.0,0.0
6987,34.0,0.0,30.0,9.0,0.0
6988,77.0,48.0,60.0,0.0,0.0
6989,34.0,14.0,30.0,9.0,0.0
6990,54.0,0.0,30.0,13.0,0.0
6991,80.0,34.0,60.0,0.0,0.0
6992,54.0,0.0,30.0,13.0,0.0
6993,73.0,0.0,90.0,2.0,0.0
6994,83.0,34.0,60.0,0.0,0.0
6995,34.0,14.0,30.0,9.0,0.0
6996,83.0,34.0,60.0,0.0,0.0
6997,54.0,0.0,30.0,13.0,0.0
6998,34.0,14.0,30.0,9.0,0.0
6999,34.0,0.0,30.0,9.0,0.0
7000,54.0,14.0,30.0,13.0,0.0
7001,80.0,16.0,150.0,2.0,0.0
7002,89.0,48.0,60.0,0.0,0.0
7003,87.0,34.0,60.0,0.0,0.0
7004,85.0,18.0,60.0,0.0,0.0
7005,34.0,0.0,30.0,9.0,0.0
7006,54.0,14.0,30.0,13.0,0.0
7007,83.0,34.0,60.0,0.0,0.0
7008,34.0,14.0,30.0,9.0,0.0
7009,54.0,0.0,30.0,13.0,0.0
7010,78.0,0.0,60.0,2.0,0.0
7011,34.0,0.0,30.0,9.0,0.0
7012,54.0,14.0,30.0,13.0,0.0
7013,82.0,48.0,60.0,0.0,0.0
7014,83.0,0.0,60.0,0.0,0.0
7015,75.0,34.0,60.0,2.0,0.0
7016,80.0,34.0,60.0,0.0,0.0
7017,34.0,14.0,30.0,9.0,0.0
7018,77.0,0.0,60.0,2.0,0.0
7019,54.0,0.0,30.0,13.0,0.0
7020,73.0,0.0,60.0,2.0,0.0
7021,54.0,14.0,30.0,13.0,0.0
7022,82.0,34.0,60.0,0.0,0.0
7023,34.0,0.0,30.0,9.0,0.0
7024,75.0,0.0,60.0,2.0,0.0
7025,54.0,14.0,30.0,13.0,0.0
7026,78.0,48.0,60.0,0.0,0.0
7027,34.0,0.0,30.0,9.0,0.0
7028,80.0,0.0,60.0,0.0,0.0
7029,72.0,34.0,60.0,2.0,0.0
7030,73.0,0.0,90.0,0.0,0.0
7031,49.0,0.0,30.0,13.0,0.0
7032,73.0,34.0,90.0,2.0,0.0
7033,34.0,48.0,30.0,9.0,0.0
7034,49.0,0.0,30.0,13.0,0.0
7035,34.0,14.0,30.0,9.0,0.0
7036,49.0,0.0,30.0,13.0,0.0
7037,34.0,96.0,30.0,9.0,0.0
7038,68.0,34.0,90.0,2.0,0.0
7039,61.0,34.0,60.0,2.0,0.0
7040,49.0,0.0,30.0,13.0,0.0
7041,34.0,14.0,30.0,9.0,0.0
7042,49.0,14.0,30.0,13.0,0.0
7043,65.0,0.0,60.0,2.0,0.0
7044,34.0,0.0,30.0,9.0,0.0
7045,34.0,0.0,30.0,9.0,0.0
7046,49.0,14.0,30.0,13.0,0.0
7047,69.0,30.0,270.0,2.0,0.0
7048,66.0,48.0,60.0,2.0,0.0
7049,65.0,34.0,60.0,2.0,0.0
7050,66.0,34.0,60.0,2.0,0.0
7051,49.0,0.0,30.0,13.0,0.0
7052,34.0,14.0,30.0,9.0,0.0
7053,34.0,14.0,30.0,9.0,0.0
7054,64.0,34.0,60.0,2.0,0.0
7055,49.0,0.0,30.0,13.0,0.0
7056,62.0,18.0,60.0,2.0,0.0
7057,49.0,0.0,30.0,13.0,0.0
7058,34.0,14.0,30.0,9.0,0.0
7059,61.0,34.0,60.0,2.0,0.0
7060,34.0,14.0,30.0,9.0,0.0
7061,49.0,0.0,30.0,13.0,0.0
7062,66.0,34.0,90.0,2.0,0.0
7063,62.0,34.0,60.0,2.0,0.0
7064,34.0,14.0,30.0,9.0,0.0
7065,61.0,0.0,60.0,2.0,0.0
7066,49.0,0.0,30.0,13.0,0.0
7067,59.0,48.0,60.0,2.0,0.0
7068,49.0,0.0,30.0,13.0,0.0
7069,68.0,0.0,90.0,2.0,0.0
7070,34.0,14.0,30.0,9.0,0.0
7071,62.0,34.0,60.0,2.0,0.0
7072,56.0,34.0,60.0,2.0,0.0
7073,34.0,0.0,30.0,9.0,0.0
7074,49.0,14.0,30.0,13.0,0.0
7075,65.0,34.0,90.0,2.0,0.0
7076,59.0,0.0,60.0,2.0,0.0
7077,34.0,0.0,30.0,9.0,0.0
7078,49.0,14.0,30.0,13.0,0.0
7079,34.0,0.0,30.0,9.0,0.0
7080,66.0,0.0,90.0,2.0,0.0
7081,57.0,48.0,60.0,2.0,0.0
7082,49.0,14.0,30.0,13.0,0.0
7083,61.0,34.0,60.0,2.0,0.0
7084,69.0,34.0,90.0,2.0,0.0
7085,66.0,34.0,60.0,2.0,0.0
7086,49.0,0.0,30.0,13.0,0.0
7087,34.0,14.0,30.0,9.0,0.0
7088,49.0,14.0,30.0,13.0,0.0
7089,34.0,0.0,30.0,9.0,0.0
7090,66.0,0.0,60.0,2.0,0.0
7091,71.0,0.0,90.0,2.0,0.0
7092,68.0,48.0,60.0,2.0,0.0
7093,34.0,14.0,30.0,9.0,0.0
7094,49.0,0.0,30.0,13.0,0.0
7095,64.0,34.0,60.0,2.0,0.0
7096,49.0,14.0,30.0,13.0,0.0
7097,69.0,34.0,60.0,2.0,0.0
7098,73.0,30.0,150.0,2.0,0.0
7099,34.0,0.0,30.0,9.0,0.0
7100,68.0,34.0,60.0,2.0,0.0
7101,49.0,0.0,30.0,13.0,0.0
7102,34.0,14.0,30.0,9.0,0.0
7103,66.0,18.0,60.0,2.0,0.0
7104,34.0,0.0,30.0,9.0,0.0
7105,49.0,14.0,30.0,13.0,0.0
7106,65.0,34.0,60.0,2.0,0.0
7107,34.0,0.0,30.0,9.0,0.0
7108,69.0,34.0,90.0,2.0,0.0
7109,49.0,14.0,30.0,13.0,0.0
7110,66.0,34.0,60.0,2.0,0.0
7111,64.0,0.0,60.0,2.0,0.0
7112,34.0,0.0,30.0,9.0,0.0
7113,49.0,14.0,30.0,13.0,0.0
7114,62.0,48.0,60.0,2.0,0.0
7115,71.0,0.0,90.0,2.0,0.0
7116,34.0,0.0,30.0,9.0,0.0
7117,49.0,14.0,30.0,13.0,0.0
7118,66.0,34.0,60.0,2.0,0.0
7119,59.0,34.0,60.0,2.0,0.0
7120,49.0,0.0,30.0,13.0,0.0
7121,34.0,14.0,30.0,9.0,0.0
7122,68.0,0.0,90.0,2.0,0.0
7123,49.0,14.0,30.0,13.0,0.0
7124,62.0,34.0,60.0,2.0,0.0
7125,34.0,0.0,30.0,9.0,0.0
7126,49.0,62.0,30.0,13.0,0.0
7127,56.0,0.0,90.0,2.0,0.0
7128,34.0,0.0,30.0,9.0,0.0
7129,65.0,34.0,90.0,2.0,0.0
7130,58.0,34.0,60.0,2.0,0.0
7131,66.0,34.0,90.0,2.0,0.0
7132,54.0,14.0,30.0,13.0,0.0
7133,34.0,0.0,30.0,9.0,0.0
7134,34.0,0.0,30.0,9.0,0.0
7135,61.0,0.0,60.0,2.0,0.0
7136,54.0,14.0,30.0,13.0,0.0
7137,34.0,14.0,30.0,9.0,0.0
7138,54.0,0.0,30.0,13.0,0.0
7139,65.0,48.0,60.0,2.0,0.0
7140,68.0,16.0,150.0,2.0,0.0
7141,63.0,34.0,60.0,2.0,0.0
7142,61.0,18.0,60.0,2.0,0.0
7143,54.0,0.0,30.0,13.0,0.0
7144,34.0,14.0,30.0,9.0,0.0
7145,54.0,0.0,30.0,13.0,0.0
7146,59.0,34.0,60.0,2.0,0.0
7147,34.0,14.0,30.0,9.0,0.0
7148,58.0,48.0,60.0,2.0,0.0
7149,54.0,14.0,30.0,13.0,0.0
7150,34.0,0.0,30.0,9.0,0.0
7151,61.0,34.0,60.0,2.0,0.0
7152,70.0,34.0,90.0,1.0,0.0
7153,66.0,34.0,60.0,2.0,0.0
7154,54.0,0.0,30.0,13.0,0.0
7155,34.0,14.0,30.0,9.0,0.0
7156,54.0,0.0,30.0,13.0,0.0
7157,34.0,14.0,30.0,9.0,0.0
7158,66.0,0.0,60.0,2.0,0.0
7159,34.0,0.0,30.0,9.0,0.0
7160,76.0,16.0,150.0,1.0,0.0
7161,54.0,14.0,30.0,13.0,0.0
7162,73.0,48.0,60.0,2.0,0.0
7163,71.0,34.0,60.0,2.0,0.0
7164,34.0,0.0,30.0,9.0,0.0
7165,70.0,18.0,60.0,2.0,0.0
7166,54.0,14.0,30.0,13.0,0.0
7167,34.0,14.0,30.0,9.0,0.0
7168,54.0,0.0,30.0,13.0,0.0
7169,68.0,34.0,60.0,2.0,0.0
7170,54.0,0.0,30.0,13.0,0.0
7171,34.0,14.0,30.0,9.0,0.0
7172,66.0,48.0,60.0,2.0,0.0
7173,70.0,34.0,60.0,2.0,0.0
7174,71.0,34.0,60.0,2.0,0.0
7175,75.0,34.0,90.0,0.0,0.0
7176,54.0,0.0,30.0,13.0,0.0
7177,34.0,14.0,30.0,9.0,0.0
7178,71.0,0.0,60.0,2.0,0.0
7179,54.0,14.0,30.0,13.0,0.0
7180,34.0,0.0,30.0,9.0,0.0
7181,34.0,14.0,30.0,9.0,0.0
7182,83.0,16.0,150.0,0.0,0.0
7183,54.0,0.0,30.0,13.0,0.0
7184,80.0,48.0,60.0,2.0,0.0
7185,78.0,34.0,60.0,2.0,0.0
7186,77.0,18.0,60.0,2.0,0.0
7187,54.0,14.0,30.0,13.0,0.0
7188,34.0,0.0,30.0,9.0,0.0
7189,54.0,0.0,30.0,13.0,0.0
7190,34.0,14.0,30.0,9.0,0.0
7191,75.0,34.0,60.0,2.0,0.0
7192,74.0,0.0,90.0,2.0,0.0
7193,34.0,0.0,30.0,9.0,0.0
7194,54.0,62.0,30.0,13.0,0.0
7195,80.0,34.0,60.0,0.0,0.0
7196,73.0,34.0,60.0,2.0,0.0
7197,82.0,0.0,60.0,0.0,0.0
7198,34.0,0.0,30.0,9.0,0.0
7199,54.0,14.0,30.0,13.0,0.0
7200,34.0,14.0,30.0,9.0,0.0
7201,54.0,0.0,30.0,13.0,0.0
7202,75.0,34.0,60.0,2.0,0.0
7203,78.0,0.0,60.0,0.0,0.0
7204,34.0,0.0,30.0,9.0,0.0
7205,80.0,48.0,60.0,0.0,0.0
7206,54.0,14.0,30.0,13.0,0.0
7207,71.0,0.0,60.0,2.0,0.0
7208,73.0,0.0,60.0,2.0,0.0
7209,77.0,34.0,60.0,0.0,0.0
7210,54.0,48.0,30.0,13.0,0.0
7211,70.0,34.0,90.0,2.0,0.0
7212,34.0,0.0,30.0,9.0,0.0
7213,78.0,0.0,90.0,0.0,0.0
7214,54.0,0.0,30.0,13.0,0.0
7215,34.0,14.0,30.0,9.0,0.0
7216,54.0,96.0,30.0,13.0,0.0
7217,34.0,0.0,30.0,9.0,0.0
7218,56.0,32.0,90.0,2.0,0.0
7219,34.0,14.0,30.0,9.0,0.0
7220,61.0,34.0,60.0,1.0,0.0
7221,49.0,0.0,30.0,13.0,0.0
7222,49.0,14.0,30.0,13.0,0.0
7223,34.0,0.0,30.0,9.0,0.0
7224,65.0,2.0,60.0,1.0,0.0
7225,49.0,0.0,30.0,13.0,0.0
7226,34.0,14.0,30.0,9.0,0.0
7227,66.0,48.0,60.0,1.0,0.0
7228,57.0,32.0,300.0,2.0,0.0
7229,65.0,34.0,60.0,1.0,0.0
7230,49.0,14.0,30.0,13.0,0.0
7231,66.0,34.0,60.0,1.0,0.0
7232,34.0,0.0,30.0,9.0,0.0
7233,49.0,0.0,30.0,13.0,0.0
7234,34.0,14.0,30.0,9.0,0.0
7235,64.0,34.0,60.0,1.0,0.0
7236,34.0,14.0,30.0,9.0,0.0
7237,62.0,48.0,60.0,1.0,0.0
7238,49.0,0.0,30.0,13.0,0.0
7239,61.0,2.0,60.0,1.0,0.0
7240,49.0,0.0,30.0,13.0,0.0
7241,54.0,32.0,90.0,2.0,0.0
7242,62.0,34.0,60.0,1.0,0.0
7243,34.0,14.0,30.0,9.0,0.0
7244,61.0,2.0,60.0,1.0,0.0
7245,49.0,14.0,30.0,13.0,0.0
7246,34.0,0.0,30.0,9.0,0.0
7247,34.0,0.0,30.0,9.0,0.0
7248,59.0,48.0,60.0,1.0,0.0
7249,49.0,14.0,30.0,13.0,0.0
7250,56.0,32.0,90.0,2.0,0.0
7251,62.0,2.0,60.0,1.0,0.0
7252,53.0,32.0,90.0,2.0,0.0
7253,56.0,34.0,60.0,1.0,0.0
7254,34.0,0.0,30.0,9.0,0.0
7255,49.0,14.0,30.0,13.0,0.0
7256,49.0,0.0,30.0,13.0,0.0
7257,59.0,2.0,60.0,1.0,0.0
7258,34.0,14.0,30.0,9.0,0.0
7259,54.0,32.0,90.0,2.0,0.0
7260,57.0,48.0,60.0,1.0,0.0
7261,34.0,14.0,30.0,9.0,0.0
7262,49.0,0.0,30.0,13.0,0.0
7263,61.0,2.0,60.0,1.0,0.0
7264,49.0,0.0,30.0,13.0,0.0
7265,66.0,34.0,60.0,1.0,0.0
7266,34.0,14.0,30.0,9.0,0.0
7267,57.0,32.0,90.0,2.0,0.0
7268,34.0,0.0,30.0,9.0,0.0
7269,66.0,2.0,60.0,1.0,0.0
7270,49.0,14.0,30.0,13.0,0.0
7271,34.0,14.0,30.0,9.0,0.0
7272,68.0,48.0,60.0,1.0,0.0
7273,49.0,0.0,30.0,13.0,0.0
7274,59.0,32.0,90.0,2.0,0.0
7275,64.0,2.0,60.0,1.0,0.0
7276,69.0,34.0,60.0,1.0,0.0
7277,49.0,14.0,30.0,13.0,0.0
7278,61.0,32.0,180.0,2.0,0.0
7279,34.0,0.0,30.0,9.0,0.0
7280,49.0,0.0,30.0,13.0,0.0
7281,34.0,14.0,30.0,9.0,0.0
7282,68.0,34.0,60.0,1.0,0.0
7283,34.0,0.0,30.0,9.0,0.0
7284,66.0,48.0,60.0,1.0,0.0
7285,49.0,14.0,30.0,13.0,0.0
7286,65.0,2.0,60.0,1.0,0.0
7287,34.0,0.0,30.0,9.0,0.0
7288,66.0,34.0,60.0,1.0,0.0
7289,49.0,14.0,30.0,13.0,0.0
7290,57.0,32.0,90.0,2.0,0.0
7291,34.0,14.0,30.0,9.0,0.0
7292,49.0,0.0,30.0,13.0,0.0
7293,64.0,2.0,60.0,1.0,0.0
7294,49.0,0.0,30.0,13.0,0.0
7295,59.0,32.0,90.0,2.0,0.0
7296,62.0,48.0,60.0,1.0,0.0
7297,34.0,14.0,30.0,9.0,0.0
7298,66.0,2.0,60.0,1.0,0.0
7299,56.0,32.0,90.0,2.0,0.0
7300,49.0,14.0,30.0,13.0,0.0
7301,59.0,34.0,60.0,1.0,0.0
7302,34.0,0.0,30.0,9.0,0.0
7303,49.0,14.0,30.0,13.0,0.0
7304,34.0,0.0,30.0,9.0,0.0
7305,62.0,2.0,60.0,1.0,0.0
7306,56.0,2.0,90.0,1.0,0.0
7307,49.0,0.0,30.0,13.0,0.0
7308,53.0,32.0,90.0,2.0,0.0
7309,34.0,62.0,30.0,9.0,0.0
7310,34.0,0.0,30.0,9.0,0.0
7311,66.0,32.0,90.0,2.0,0.0
7312,70.0,34.0,60.0,0.0,0.0
7313,54.0,14.0,30.0,13.0,0.0
7314,34.0,0.0,30.0,9.0,0.0
7315,54.0,14.0,30.0,13.0,0.0
7316,73.0,2.0,60.0,0.0,0.0
7317,77.0,48.0,60.0,0.0,0.0
7318,68.0,32.0,180.0,2.0,0.0
7319,34.0,14.0,30.0,9.0,0.0
7320,54.0,0.0,30.0,13.0,0.0
7321,75.0,34.0,60.0,0.0,0.0
7322,34.0,0.0,30.0,9.0,0.0
7323,54.0,14.0,30.0,13.0,0.0
7324,73.0,34.0,60.0,0.0,0.0
7325,71.0,2.0,60.0,0.0,0.0
7326,34.0,0.0,30.0,9.0,0.0
7327,54.0,14.0,30.0,13.0,0.0
7328,70.0,48.0,60.0,0.0,0.0
7329,54.0,0.0,30.0,13.0,0.0
7330,34.0,14.0,30.0,9.0,0.0
7331,73.0,34.0,60.0,0.0,0.0
7332,66.0,34.0,60.0,0.0,0.0
7333,78.0,0.0,60.0,0.0,0.0
7334,70.0,0.0,90.0,0.0,0.0
7335,34.0,14.0,30.0,9.0,0.0
7336,70.0,34.0,90.0,1.0,0.0
7337,78.0,0.0,60.0,0.0,0.0
7338,34.0,14.0,30.0,9.0,0.0
7339,66.0,0.0,60.0,0.0,0.0
7340,76.0,0.0,150.0,0.0,0.0
7341,34.0,14.0,30.0,9.0,0.0
7342,66.0,34.0,90.0,0.0,0.0
7343,77.0,16.0,150.0,9.0,0.0
7344,76.0,0.0,150.0,1.0,0.0
7345,85.0,48.0,60.0,0.0,0.0
7346,83.0,0.0,60.0,0.0,0.0
7347,34.0,14.0,30.0,9.0,0.0
7348,66.0,18.0,60.0,0.0,0.0
7349,82.0,0.0,60.0,0.0,0.0
7350,34.0,14.0,30.0,9.0,0.0
7351,66.0,34.0,60.0,0.0,0.0
7352,80.0,0.0,60.0,0.0,0.0
7353,78.0,48.0,60.0,0.0,0.0
7354,34.0,14.0,30.0,9.0,0.0
7355,66.0,34.0,90.0,0.0,0.0
7356,82.0,0.0,60.0,0.0,0.0
7357,83.0,34.0,60.0,0.0,0.0
7358,34.0,14.0,30.0,9.0,0.0
7359,78.0,0.0,60.0,0.0,0.0
7360,75.0,0.0,90.0,0.0,0.0
7361,78.0,0.0,60.0,0.0,0.0
7362,34.0,14.0,30.0,9.0,0.0
7363,83.0,34.0,60.0,0.0,0.0
7364,83.0,0.0,150.0,0.0,0.0
7365,92.0,48.0,60.0,0.0,0.0
7366,77.0,16.0,150.0,9.0,0.0
7367,34.0,14.0,30.0,9.0,0.0
7368,78.0,34.0,90.0,0.0,0.0
7369,90.0,0.0,60.0,0.0,0.0
7370,89.0,18.0,60.0,0.0,0.0
7371,34.0,14.0,30.0,9.0,0.0
7372,66.0,0.0,60.0,0.0,0.0
7373,66.0,0.0,60.0,0.0,0.0
7374,87.0,34.0,60.0,0.0,0.0
7375,34.0,14.0,30.0,9.0,0.0
7376,86.0,48.0,90.0,0.0,0.0
7377,66.0,0.0,90.0,0.0,0.0
7378,34.0,62.0,30.0,9.0,0.0
7379,80.0,0.0,60.0,0.0,0.0
7380,85.0,48.0,60.0,0.0,0.0
7381,82.0,0.0,60.0,0.0,0.0
7382,66.0,0.0,60.0,0.0,0.0
7383,87.0,0.0,60.0,0.0,0.0
7384,78.0,48.0,60.0,0.0,0.0
7385,54.0,0.0,90.0,0.0,0.0
7386,80.0,48.0,60.0,0.0,0.0
7387,83.0,0.0,60.0,0.0,0.0
7388,85.0,0.0,60.0,0.0,0.0
7389,77.0,48.0,60.0,0.0,0.0
7390,78.0,0.0,60.0,0.0,0.0
7391,82.0,290.0,60.0,0.0,0.0
7392,30.0,0.0,1290.0,15.0,0.0
7393,42.0,62.0,1230.0,14.0,0.0
7394,42.0,0.0,1290.0,15.0,0.0
7395,54.0,0.0,180.0,13.0,0.0
7396,78.0,0.0,870.0,0.0,0.0
7397,66.0,160.0,15.0,12.0,0.0
7398,78.0,0.0,15.0,11.0,0.0
7399,42.0,0.0,180.0,2.0,0.0
7400,30.0,0.0,390.0,3.0,0.0
7401,54.0,32.0,150.0,2.0,0.0
7402,56.0,0.0,180.0,2.0,0.0
7403,44.0,0.0,180.0,2.0,0.0
7404,77.0,0.0,180.0,11.0,0.0
7405,56.0,0.0,180.0,13.0,0.0
7406,65.0,192.0,180.0,12.0,0.0
7407,76.0,0.0,180.0,11.0,0.0
7408,64.0,64.0,180.0,12.0,0.0
7409,46.0,0.0,180.0,2.0,0.0
7410,58.0,0.0,180.0,13.0,0.0
7411,58.0,0.0,180.0,2.0,0.0
7412,59.0,0.0,180.0,13.0,0.0
7413,47.0,0.0,180.0,2.0,0.0
7414,63.0,0.0,60.0,12.0,0.0
7415,75.0,64.0,60.0,11.0,0.0
7416,59.0,0.0,180.0,2.0,0.0
7417,66.0,0.0,60.0,12.0,0.0
7418,78.0,64.0,60.0,11.0,0.0
7419,62.0,94.0,60.0,12.0,0.0
7420,74.0,0.0,60.0,11.0,0.0
7421,58.0,96.0,90.0,13.0,0.0
7422,30.0,0.0,15.0,3.0,0.0
7423,46.0,0.0,90.0,2.0,0.0
7424,73.0,0.0,180.0,11.0,0.0
7425,58.0,0.0,90.0,2.0,0.0
7426,61.0,0.0,180.0,12.0,0.0
7427,45.0,0.0,90.0,2.0,0.0
7428,57.0,0.0,90.0,13.0,0.0
7429,57.0,0.0,90.0,2.0,0.0
7430,44.0,32.0,90.0,2.0,0.0
7431,56.0,0.0,90.0,13.0,0.0
7432,72.0,32.0,60.0,11.0,0.0
7433,60.0,0.0,60.0,12.0,0.0
7434,56.0,0.0,90.0,2.0,0.0
7435,30.0,64.0,15.0,3.0,0.0
7436,66.0,64.0,60.0,12.0,0.0
7437,78.0,0.0,60.0,11.0,0.0
7438,55.0,0.0,90.0,2.0,0.0
7439,55.0,32.0,90.0,13.0,0.0
7440,43.0,0.0,90.0,2.0,0.0
7441,71.0,0.0,60.0,11.0,0.0
7442,59.0,0.0,60.0,12.0,0.0
7443,54.0,0.0,180.0,2.0,0.0
7444,58.0,48.0,180.0,12.0,0.0
7445,70.0,0.0,330.0,11.0,0.0
7446,54.0,0.0,180.0,13.0,0.0
7447,30.0,0.0,180.0,3.0,0.0
7448,42.0,0.0,180.0,2.0,0.0
7449,72.0,0.0,150.0,11.0,0.0
7450,39.0,2.0,150.0,15.0,0.0
7451,39.0,94.0,60.0,14.0,0.0
7452,51.0,0.0,150.0,2.0,0.0
7453,51.0,48.0,150.0,13.0,0.0
7454,39.0,0.0,150.0,2.0,0.0
7455,66.0,0.0,150.0,12.0,0.0
7456,60.0,0.0,150.0,12.0,0.0
7457,82.0,0.0,60.0,11.0,0.0
7458,46.0,160.0,60.0,13.0,0.0
7459,46.0,0.0,1290.0,15.0,0.0
7460,70.0,0.0,60.0,12.0,0.0
7461,46.0,62.0,1230.0,14.0,0.0
7462,34.0,0.0,1290.0,15.0,0.0
7463,82.0,0.0,180.0,11.0,0.0
7464,34.0,0.0,390.0,3.0,0.0
7465,46.0,144.0,180.0,2.0,0.0
7466,70.0,0.0,180.0,12.0,0.0
7467,74.0,0.0,180.0,12.0,0.0
7468,58.0,32.0,150.0,2.0,0.0
7469,58.0,0.0,180.0,13.0,0.0
7470,82.0,0.0,870.0,0.0,0.0
7471,48.0,0.0,180.0,2.0,0.0
7472,81.0,0.0,180.0,11.0,0.0
7473,69.0,192.0,180.0,12.0,0.0
7474,75.0,0.0,180.0,12.0,0.0
7475,60.0,0.0,180.0,13.0,0.0
7476,60.0,0.0,180.0,2.0,0.0
7477,50.0,0.0,180.0,2.0,0.0
7478,34.0,0.0,390.0,3.0,0.0
7479,77.0,0.0,180.0,12.0,0.0
7480,62.0,0.0,180.0,13.0,0.0
7481,68.0,0.0,180.0,12.0,0.0
7482,62.0,0.0,180.0,2.0,0.0
7483,80.0,64.0,180.0,11.0,0.0
7484,67.0,64.0,60.0,12.0,0.0
7485,51.0,0.0,180.0,2.0,0.0
7486,63.0,0.0,180.0,13.0,0.0
7487,63.0,0.0,180.0,2.0,0.0
7488,79.0,0.0,60.0,11.0,0.0
7489,82.0,0.0,60.0,11.0,0.0
7490,70.0,64.0,60.0,12.0,0.0
7491,78.0,0.0,60.0,11.0,0.0
7492,66.0,94.0,60.0,12.0,0.0
7493,62.0,96.0,90.0,2.0,0.0
7494,50.0,0.0,90.0,2.0,0.0
7495,65.0,0.0,180.0,12.0,0.0
7496,77.0,64.0,180.0,11.0,0.0
7497,34.0,0.0,180.0,3.0,0.0
7498,62.0,0.0,90.0,13.0,0.0
7499,61.0,0.0,90.0,13.0,0.0
7500,61.0,0.0,90.0,2.0,0.0
7501,49.0,0.0,90.0,2.0,0.0
7502,76.0,32.0,60.0,11.0,0.0
7503,64.0,0.0,60.0,12.0,0.0
7504,60.0,0.0,90.0,2.0,0.0
7505,60.0,0.0,90.0,13.0,0.0
7506,48.0,32.0,90.0,2.0,0.0
7507,70.0,64.0,60.0,12.0,0.0
7508,82.0,0.0,60.0,11.0,0.0
7509,59.0,32.0,90.0,13.0,0.0
7510,59.0,0.0,90.0,2.0,0.0
7511,47.0,0.0,90.0,2.0,0.0
7512,75.0,0.0,60.0,11.0,0.0
7513,63.0,0.0,60.0,12.0,0.0
7514,58.0,0.0,180.0,2.0,0.0
7515,58.0,0.0,180.0,13.0,0.0
7516,74.0,48.0,180.0,11.0,0.0
7517,62.0,0.0,180.0,12.0,0.0
7518,46.0,0.0,180.0,2.0,0.0
7519,34.0,0.0,15.0,3.0,0.0
7520,61.0,0.0,150.0,12.0,0.0
7521,49.0,0.0,150.0,2.0,0.0
7522,73.0,0.0,150.0,11.0,0.0
7523,53.0,0.0,150.0,13.0,0.0
7524,49.0,94.0,60.0,14.0,0.0
7525,56.0,0.0,150.0,13.0,0.0
7526,49.0,2.0,150.0,15.0,0.0
7527,53.0,0.0,150.0,2.0,0.0
7528,56.0,48.0,150.0,2.0,0.0
7529,78.0,0.0,60.0,11.0,0.0
7530,66.0,160.0,60.0,12.0,0.0
7531,42.0,62.0,1230.0,14.0,0.0
7532,42.0,98.0,1290.0,15.0,0.0
7533,30.0,0.0,1290.0,15.0,0.0
7534,78.0,144.0,180.0,11.0,0.0
7535,54.0,0.0,180.0,13.0,0.0
7536,54.0,32.0,150.0,2.0,0.0
7537,66.0,0.0,180.0,12.0,0.0
7538,78.0,0.0,870.0,0.0,0.0
7539,42.0,0.0,180.0,2.0,0.0
7540,65.0,192.0,180.0,12.0,0.0
7541,56.0,0.0,180.0,2.0,0.0
7542,56.0,0.0,180.0,13.0,0.0
7543,77.0,0.0,180.0,11.0,0.0
7544,44.0,0.0,180.0,2.0,0.0
7545,46.0,0.0,180.0,2.0,0.0
7546,76.0,64.0,180.0,11.0,0.0
7547,58.0,0.0,180.0,2.0,0.0
7548,64.0,0.0,180.0,12.0,0.0
7549,30.0,0.0,15.0,3.0,0.0
7550,58.0,0.0,180.0,13.0,0.0
7551,63.0,64.0,60.0,12.0,0.0
7552,59.0,0.0,180.0,2.0,0.0
7553,75.0,0.0,60.0,11.0,0.0
7554,59.0,0.0,180.0,13.0,0.0
7555,47.0,0.0,180.0,2.0,0.0
7556,66.0,64.0,60.0,12.0,0.0
7557,78.0,0.0,60.0,11.0,0.0
7558,62.0,0.0,60.0,12.0,0.0
7559,74.0,94.0,60.0,11.0,0.0
7560,61.0,0.0,180.0,12.0,0.0
7561,46.0,96.0,90.0,2.0,0.0
7562,58.0,0.0,90.0,2.0,0.0
7563,58.0,0.0,90.0,13.0,0.0
7564,73.0,0.0,180.0,11.0,0.0
7565,57.0,0.0,90.0,13.0,0.0
7566,57.0,0.0,90.0,2.0,0.0
7567,45.0,0.0,90.0,2.0,0.0
7568,72.0,0.0,60.0,11.0,0.0
7569,44.0,32.0,90.0,2.0,0.0
7570,60.0,32.0,60.0,12.0,0.0
7571,56.0,0.0,90.0,13.0,0.0
7572,56.0,0.0,90.0,2.0,0.0
7573,30.0,64.0,15.0,3.0,0.0
7574,78.0,64.0,60.0,11.0,0.0
7575,66.0,0.0,60.0,12.0,0.0
7576,55.0,0.0,90.0,13.0,0.0
7577,55.0,0.0,90.0,2.0,0.0
7578,43.0,32.0,90.0,2.0,0.0
7579,59.0,0.0,60.0,12.0,0.0
7580,71.0,0.0,60.0,11.0,0.0
7581,30.0,0.0,15.0,3.0,0.0
7582,54.0,48.0,180.0,13.0,0.0
7583,70.0,0.0,330.0,11.0,0.0
7584,58.0,0.0,180.0,12.0,0.0
7585,54.0,0.0,180.0,2.0,0.0
7586,42.0,0.0,180.0,2.0,0.0
7587,66.0,0.0,150.0,12.0,0.0
7588,39.0,94.0,60.0,14.0,0.0
7589,51.0,0.0,150.0,2.0,0.0
7590,60.0,0.0,150.0,12.0,0.0
7591,39.0,48.0,150.0,2.0,0.0
7592,39.0,2.0,150.0,15.0,0.0
7593,72.0,0.0,150.0,11.0,0.0
7594,51.0,0.0,150.0,13.0,0.0
7595,46.0,0.0,60.0,13.0,0.0
7596,46.0,62.0,1230.0,14.0,0.0
7597,46.0,98.0,1290.0,15.0,0.0
7598,34.0,0.0,1290.0,15.0,0.0
7599,70.0,0.0,60.0,12.0,0.0
7600,34.0,0.0,390.0,3.0,0.0
7601,58.0,0.0,180.0,13.0,0.0
7602,82.0,160.0,15.0,11.0,0.0
7603,82.0,0.0,870.0,0.0,0.0
7604,58.0,32.0,150.0,2.0,0.0
7605,46.0,144.0,180.0,2.0,0.0
7606,70.0,0.0,180.0,12.0,0.0
7607,74.0,0.0,180.0,12.0,0.0
7608,75.0,0.0,180.0,12.0,0.0
7609,81.0,192.0,180.0,11.0,0.0
7610,60.0,0.0,180.0,13.0,0.0
7611,69.0,0.0,180.0,12.0,0.0
7612,48.0,0.0,180.0,2.0,0.0
7613,60.0,0.0,180.0,2.0,0.0
7614,77.0,0.0,180.0,12.0,0.0
7615,68.0,0.0,180.0,12.0,0.0
7616,50.0,0.0,180.0,2.0,0.0
7617,62.0,64.0,180.0,2.0,0.0
7618,34.0,0.0,390.0,3.0,0.0
7619,80.0,0.0,180.0,11.0,0.0
7620,62.0,0.0,180.0,13.0,0.0
7621,51.0,0.0,180.0,2.0,0.0
7622,67.0,0.0,60.0,12.0,0.0
7623,79.0,64.0,60.0,11.0,0.0
7624,63.0,94.0,180.0,13.0,0.0
7625,63.0,0.0,180.0,2.0,0.0
7626,70.0,64.0,60.0,12.0,0.0
7627,82.0,0.0,60.0,11.0,0.0
7628,78.0,0.0,60.0,11.0,0.0
7629,66.0,0.0,60.0,12.0,0.0
7630,50.0,96.0,90.0,2.0,0.0
7631,77.0,0.0,180.0,11.0,0.0
7632,65.0,0.0,180.0,12.0,0.0
7633,62.0,0.0,90.0,2.0,0.0
7634,62.0,0.0,90.0,13.0,0.0
7635,61.0,0.0,90.0,13.0,0.0
7636,49.0,0.0,90.0,2.0,0.0
7637,61.0,64.0,90.0,2.0,0.0
7638,76.0,0.0,60.0,11.0,0.0
7639,64.0,32.0,60.0,12.0,0.0
7640,34.0,0.0,15.0,3.0,0.0
7641,60.0,32.0,90.0,2.0,0.0
7642,48.0,0.0,90.0,2.0,0.0
7643,60.0,0.0,90.0,13.0,0.0
7644,70.0,0.0,60.0,12.0,0.0
7645,82.0,64.0,60.0,11.0,0.0
7646,59.0,0.0,90.0,2.0,0.0
7647,59.0,0.0,90.0,13.0,0.0
7648,47.0,32.0,90.0,2.0,0.0
7649,75.0,0.0,60.0,11.0,0.0
7650,63.0,0.0,60.0,12.0,0.0
7651,74.0,0.0,180.0,11.0,0.0
7652,34.0,0.0,15.0,3.0,0.0
7653,58.0,0.0,180.0,13.0,0.0
7654,62.0,0.0,180.0,12.0,0.0
7655,46.0,48.0,180.0,2.0,0.0
7656,58.0,0.0,180.0,2.0,0.0
7657,73.0,0.0,150.0,11.0,0.0
7658,53.0,0.0,150.0,2.0,0.0
7659,56.0,0.0,150.0,13.0,0.0
7660,53.0,0.0,150.0,13.0,0.0
7661,49.0,2.0,150.0,15.0,0.0
7662,49.0,0.0,150.0,2.0,0.0
7663,61.0,0.0,150.0,12.0,0.0
7664,56.0,48.0,150.0,2.0,0.0
7665,49.0,94.0,60.0,14.0,0.0
7666,37.0,32.0,1230.0,14.0,0.0
7667,37.0,2.0,1290.0,15.0,0.0
7668,25.0,0.0,1290.0,15.0,0.0
7669,49.0,0.0,390.0,2.0,0.0
7670,61.0,32.0,150.0,2.0,0.0
7671,73.0,0.0,870.0,0.0,0.0
7672,85.0,0.0,870.0,0.0,0.0
7673,49.0,0.0,180.0,13.0,0.0
7674,85.0,0.0,15.0,11.0,0.0
7675,73.0,160.0,15.0,12.0,0.0
7676,37.0,0.0,390.0,3.0,0.0
7677,63.0,0.0,180.0,2.0,0.0
7678,84.0,192.0,180.0,11.0,0.0
7679,51.0,0.0,180.0,13.0,0.0
7680,72.0,0.0,180.0,12.0,0.0
7681,65.0,64.0,180.0,2.0,0.0
7682,71.0,0.0,180.0,12.0,0.0
7683,53.0,0.0,180.0,13.0,0.0
7684,83.0,0.0,180.0,11.0,0.0
7685,49.0,0.0,390.0,2.0,0.0
7686,66.0,0.0,180.0,2.0,0.0
7687,70.0,0.0,60.0,12.0,0.0
7688,54.0,0.0,180.0,13.0,0.0
7689,82.0,64.0,60.0,11.0,0.0
7690,73.0,0.0,60.0,12.0,0.0
7691,85.0,64.0,60.0,11.0,0.0
7692,69.0,0.0,60.0,12.0,0.0
7693,81.0,0.0,60.0,11.0,0.0
7694,80.0,0.0,180.0,11.0,0.0
7695,68.0,0.0,180.0,12.0,0.0
7696,53.0,0.0,90.0,13.0,0.0
7697,37.0,0.0,15.0,3.0,0.0
7698,49.0,0.0,180.0,2.0,0.0
7699,61.0,94.0,15.0,2.0,0.0
7700,65.0,96.0,90.0,2.0,0.0
7701,64.0,0.0,90.0,2.0,0.0
7702,52.0,64.0,90.0,13.0,0.0
7703,51.0,0.0,90.0,13.0,0.0
7704,67.0,32.0,60.0,12.0,0.0
7705,79.0,0.0,60.0,11.0,0.0
7706,37.0,32.0,180.0,3.0,0.0
7707,63.0,32.0,90.0,2.0,0.0
7708,73.0,0.0,60.0,12.0,0.0
7709,85.0,64.0,60.0,11.0,0.0
7710,50.0,0.0,90.0,13.0,0.0
7711,62.0,0.0,90.0,2.0,0.0
7712,66.0,0.0,60.0,12.0,0.0
7713,78.0,0.0,60.0,11.0,0.0
7714,65.0,30.0,60.0,12.0,0.0
7715,49.0,0.0,15.0,2.0,0.0
7716,61.0,0.0,15.0,2.0,0.0
7717,77.0,48.0,330.0,11.0,0.0
7718,49.0,142.0,180.0,13.0,0.0
7719,80.0,0.0,270.0,12.0,0.0
7720,68.0,0.0,270.0,12.0,0.0
7721,37.0,64.0,30.0,14.0,0.0
7722,37.0,0.0,30.0,15.0,0.0
7723,25.0,0.0,150.0,15.0,0.0
7724,42.0,0.0,1290.0,15.0,0.0
7725,30.0,0.0,1290.0,15.0,0.0
7726,42.0,32.0,1230.0,14.0,0.0
7727,78.0,0.0,60.0,12.0,0.0
7728,54.0,144.0,180.0,13.0,0.0
7729,78.0,0.0,180.0,12.0,0.0
7730,54.0,0.0,390.0,2.0,0.0
7731,78.0,2.0,870.0,0.0,0.0
7732,42.0,0.0,390.0,3.0,0.0
7733,90.0,160.0,15.0,11.0,0.0
7734,90.0,0.0,870.0,0.0,0.0
7735,66.0,32.0,150.0,2.0,0.0
7736,89.0,0.0,180.0,11.0,0.0
7737,68.0,0.0,180.0,2.0,0.0
7738,56.0,0.0,180.0,13.0,0.0
7739,77.0,192.0,180.0,12.0,0.0
7740,76.0,0.0,180.0,12.0,0.0
7741,88.0,0.0,180.0,11.0,0.0
7742,58.0,0.0,180.0,13.0,0.0
7743,66.0,0.0,390.0,2.0,0.0
7744,70.0,64.0,180.0,2.0,0.0
7745,42.0,0.0,390.0,3.0,0.0
7746,59.0,0.0,180.0,13.0,0.0
7747,87.0,64.0,60.0,11.0,0.0
7748,75.0,0.0,60.0,12.0,0.0
7749,71.0,0.0,180.0,2.0,0.0
7750,78.0,64.0,60.0,12.0,0.0
7751,90.0,0.0,60.0,11.0,0.0
7752,86.0,0.0,60.0,11.0,0.0
7753,74.0,0.0,60.0,12.0,0.0
7754,58.0,96.0,90.0,13.0,0.0
7755,42.0,64.0,180.0,3.0,0.0
7756,70.0,0.0,90.0,2.0,0.0
7757,85.0,0.0,180.0,11.0,0.0
7758,66.0,0.0,180.0,2.0,0.0
7759,73.0,0.0,180.0,12.0,0.0
7760,54.0,94.0,15.0,2.0,0.0
7761,69.0,0.0,90.0,2.0,0.0
7762,57.0,0.0,90.0,13.0,0.0
7763,56.0,0.0,90.0,13.0,0.0
7764,72.0,32.0,60.0,12.0,0.0
7765,84.0,0.0,60.0,11.0,0.0
7766,54.0,0.0,180.0,2.0,0.0
7767,68.0,32.0,90.0,2.0,0.0
7768,42.0,0.0,180.0,3.0,0.0
7769,90.0,64.0,60.0,11.0,0.0
7770,78.0,0.0,60.0,12.0,0.0
7771,55.0,0.0,90.0,13.0,0.0
7772,67.0,0.0,90.0,2.0,0.0
7773,83.0,32.0,60.0,11.0,0.0
7774,71.0,0.0,60.0,12.0,0.0
7775,66.0,0.0,15.0,2.0,0.0
7776,70.0,30.0,60.0,12.0,0.0
7777,54.0,96.0,180.0,13.0,0.0
7778,82.0,0.0,330.0,11.0,0.0
7779,85.0,0.0,120.0,12.0,0.0
7780,73.0,48.0,270.0,12.0,0.0
7781,42.0,0.0,30.0,15.0,0.0
7782,42.0,64.0,30.0,14.0,0.0
7783,85.0,0.0,150.0,12.0,0.0
7784,30.0,0.0,150.0,15.0,0.0
7785,26.0,0.0,1290.0,15.0,0.0
7786,38.0,0.0,1290.0,15.0,0.0
7787,38.0,32.0,1230.0,14.0,0.0
7788,74.0,0.0,60.0,12.0,0.0
7789,62.0,32.0,150.0,2.0,0.0
7790,74.0,144.0,180.0,12.0,0.0
7791,74.0,2.0,870.0,0.0,0.0
7792,86.0,160.0,15.0,11.0,0.0
7793,86.0,0.0,870.0,0.0,0.0
7794,50.0,0.0,180.0,13.0,0.0
7795,52.0,0.0,180.0,13.0,0.0
7796,85.0,0.0,180.0,11.0,0.0
7797,64.0,0.0,180.0,2.0,0.0
7798,73.0,0.0,180.0,12.0,0.0
7799,72.0,0.0,180.0,12.0,0.0
7800,54.0,64.0,180.0,13.0,0.0
7801,84.0,0.0,180.0,11.0,0.0
7802,62.0,0.0,390.0,2.0,0.0
7803,66.0,0.0,180.0,2.0,0.0
7804,50.0,0.0,15.0,2.0,0.0
7805,38.0,192.0,15.0,3.0,0.0
7806,71.0,0.0,60.0,12.0,0.0
7807,83.0,64.0,60.0,11.0,0.0
7808,55.0,0.0,180.0,13.0,0.0
7809,67.0,0.0,180.0,2.0,0.0
7810,74.0,64.0,60.0,12.0,0.0
7811,86.0,0.0,60.0,11.0,0.0
7812,70.0,0.0,60.0,12.0,0.0
7813,82.0,0.0,60.0,11.0,0.0
7814,81.0,0.0,180.0,11.0,0.0
7815,69.0,0.0,180.0,12.0,0.0
7816,54.0,0.0,90.0,13.0,0.0
7817,50.0,94.0,15.0,2.0,0.0
7818,66.0,96.0,90.0,2.0,0.0
7819,53.0,0.0,90.0,13.0,0.0
7820,65.0,0.0,90.0,2.0,0.0
7821,74.0,0.0,60.0,12.0,0.0
7822,68.0,0.0,60.0,12.0,0.0
7823,38.0,0.0,15.0,3.0,0.0
7824,50.0,0.0,180.0,2.0,0.0
7825,52.0,32.0,90.0,13.0,0.0
7826,64.0,0.0,90.0,2.0,0.0
7827,62.0,64.0,15.0,2.0,0.0
7828,80.0,32.0,60.0,11.0,0.0
7829,86.0,0.0,60.0,11.0,0.0
7830,74.0,64.0,60.0,12.0,0.0
7831,63.0,0.0,90.0,2.0,0.0
7832,51.0,32.0,90.0,13.0,0.0
7833,73.0,0.0,60.0,12.0,0.0
7834,67.0,0.0,60.0,12.0,0.0
7835,79.0,0.0,60.0,11.0,0.0
7836,74.0,30.0,60.0,12.0,0.0
7837,66.0,0.0,60.0,12.0,0.0
7838,78.0,48.0,330.0,11.0,0.0
7839,50.0,0.0,300.0,13.0,0.0
7840,62.0,46.0,300.0,2.0,0.0
7841,69.0,0.0,270.0,12.0,0.0
7842,81.0,0.0,270.0,12.0,0.0
7843,38.0,0.0,30.0,15.0,0.0
7844,38.0,160.0,30.0,14.0,0.0
7845,26.0,0.0,150.0,15.0,0.0
7846,42.0,32.0,1230.0,14.0,0.0
7847,42.0,0.0,1290.0,15.0,0.0
7848,78.0,0.0,60.0,12.0,0.0
7849,30.0,0.0,1290.0,15.0,0.0
7850,78.0,0.0,870.0,0.0,0.0
7851,66.0,32.0,150.0,2.0,0.0
7852,90.0,160.0,15.0,11.0,0.0
7853,78.0,0.0,180.0,12.0,0.0
7854,54.0,0.0,390.0,2.0,0.0
7855,90.0,0.0,870.0,0.0,0.0
7856,54.0,0.0,180.0,13.0,0.0
7857,89.0,0.0,180.0,11.0,0.0
7858,68.0,192.0,180.0,2.0,0.0
7859,56.0,0.0,180.0,13.0,0.0
7860,77.0,0.0,180.0,12.0,0.0
7861,42.0,0.0,15.0,3.0,0.0
7862,88.0,0.0,180.0,11.0,0.0
7863,76.0,64.0,180.0,12.0,0.0
7864,70.0,0.0,180.0,2.0,0.0
7865,58.0,0.0,180.0,13.0,0.0
7866,71.0,0.0,90.0,2.0,0.0
7867,87.0,0.0,60.0,11.0,0.0
7868,75.0,32.0,60.0,12.0,0.0
7869,59.0,32.0,90.0,13.0,0.0
7870,90.0,64.0,60.0,11.0,0.0
7871,78.0,0.0,60.0,12.0,0.0
7872,60.0,0.0,90.0,13.0,0.0
7873,72.0,0.0,90.0,2.0,0.0
7874,74.0,0.0,60.0,12.0,0.0
7875,86.0,94.0,60.0,11.0,0.0
7876,85.0,0.0,180.0,11.0,0.0
7877,42.0,0.0,390.0,3.0,0.0
7878,73.0,96.0,90.0,2.0,0.0
7879,66.0,0.0,15.0,2.0,0.0
7880,54.0,0.0,15.0,2.0,0.0
7881,73.0,0.0,180.0,12.0,0.0
7882,61.0,0.0,90.0,13.0,0.0
7883,74.0,0.0,90.0,2.0,0.0
7884,62.0,64.0,90.0,13.0,0.0
7885,75.0,32.0,90.0,2.0,0.0
7886,84.0,0.0,60.0,11.0,0.0
7887,72.0,32.0,60.0,12.0,0.0
7888,63.0,0.0,90.0,13.0,0.0
7889,78.0,64.0,60.0,12.0,0.0
7890,90.0,0.0,60.0,11.0,0.0
7891,77.0,0.0,90.0,2.0,0.0
7892,65.0,0.0,90.0,13.0,0.0
7893,83.0,0.0,60.0,11.0,0.0
7894,71.0,32.0,60.0,12.0,0.0
7895,66.0,46.0,300.0,13.0,0.0
7896,82.0,72.0,330.0,11.0,0.0
7897,78.0,32.0,90.0,2.0,0.0
7898,70.0,30.0,60.0,12.0,0.0
7899,85.0,0.0,270.0,12.0,0.0
7900,73.0,0.0,270.0,12.0,0.0
7901,54.0,160.0,30.0,14.0,0.0
7902,30.0,2.0,150.0,15.0,0.0
7903,73.0,24.0,20.0,11.0,0.0
7904,72.0,16.0,20.0,11.0,0.0
7905,73.0,16.0,15.0,11.0,0.0
7906,85.0,0.0,60.0,0.0,0.0
7907,75.0,16.0,15.0,11.0,0.0
7908,77.0,42.0,15.0,11.0,0.0
7909,90.0,0.0,30.0,0.0,0.0
7910,77.0,2.0,90.0,9.0,0.0
7911,70.0,6.0,30.0,12.0,0.0
7912,54.0,32.0,60.0,14.0,0.0
7913,78.0,0.0,30.0,11.0,0.0
7914,58.0,14.0,30.0,14.0,0.0
7915,58.0,10.0,60.0,13.0,0.0
7916,70.0,38.0,30.0,12.0,0.0
7917,78.0,0.0,30.0,11.0,0.0
7918,90.0,0.0,30.0,0.0,0.0
7919,61.0,26.0,60.0,13.0,0.0
7920,90.0,0.0,30.0,0.0,0.0
7921,78.0,0.0,30.0,11.0,0.0
7922,70.0,22.0,30.0,12.0,0.0
7923,66.0,32.0,60.0,13.0,0.0
7924,68.0,0.0,30.0,1.0,0.0
7925,73.0,0.0,30.0,12.0,0.0
7926,92.0,0.0,30.0,0.0,0.0
7927,80.0,10.0,30.0,11.0,0.0
7928,49.0,32.0,60.0,14.0,0.0
7929,68.0,6.0,30.0,0.0,0.0
7930,56.0,16.0,30.0,14.0,0.0
7931,56.0,10.0,60.0,13.0,0.0
7932,61.0,0.0,30.0,0.0,0.0
7933,68.0,0.0,30.0,0.0,0.0
7934,61.0,0.0,30.0,1.0,0.0
7935,68.0,38.0,30.0,1.0,0.0
7936,61.0,26.0,60.0,13.0,0.0
7937,61.0,0.0,30.0,0.0,0.0
7938,68.0,0.0,30.0,0.0,0.0
7939,68.0,22.0,30.0,1.0,0.0
7940,61.0,0.0,30.0,1.0,0.0
7941,65.0,32.0,60.0,13.0,0.0
7942,42.0,32.0,60.0,14.0,0.0
7943,70.0,0.0,30.0,1.0,0.0
7944,54.0,0.0,30.0,2.0,0.0
7945,58.0,6.0,30.0,2.0,0.0
7946,66.0,0.0,30.0,0.0,0.0
7947,66.0,0.0,30.0,1.0,0.0
7948,70.0,10.0,30.0,0.0,0.0
7949,49.0,16.0,30.0,14.0,0.0
7950,49.0,10.0,60.0,13.0,0.0
7951,58.0,0.0,30.0,2.0,0.0
7952,54.0,38.0,30.0,2.0,0.0
7953,54.0,26.0,60.0,13.0,0.0
7954,54.0,22.0,30.0,2.0,0.0
7955,58.0,0.0,30.0,2.0,0.0
7956,58.0,32.0,60.0,13.0,0.0
7957,59.0,10.0,30.0,2.0,0.0
7958,54.0,0.0,30.0,2.0,0.0
7959,47.0,0.0,30.0,3.0,0.0
7960,35.0,46.0,60.0,15.0,0.0
7961,47.0,6.0,30.0,2.0,0.0
7962,38.0,10.0,60.0,14.0,0.0
7963,38.0,2.0,60.0,15.0,0.0
7964,47.0,0.0,30.0,3.0,0.0
7965,47.0,38.0,30.0,2.0,0.0
7966,42.0,26.0,60.0,14.0,0.0
7967,47.0,0.0,30.0,2.0,0.0
7968,47.0,6.0,30.0,3.0,0.0
7969,47.0,48.0,30.0,14.0,0.0
7970,42.0,0.0,30.0,3.0,0.0
7971,25.0,64.0,30.0,15.0,0.0
7972,45.0,10.0,30.0,2.0,0.0
7973,45.0,0.0,30.0,3.0,0.0
7974,33.0,0.0,30.0,3.0,0.0
7975,33.0,0.0,30.0,15.0,0.0
7976,33.0,64.0,30.0,3.0,0.0
7977,33.0,54.0,30.0,15.0,0.0
7978,33.0,0.0,30.0,3.0,0.0
7979,44.0,0.0,30.0,2.0,0.0
7980,37.0,10.0,30.0,3.0,0.0
7981,44.0,0.0,30.0,3.0,0.0
7982,25.0,64.0,30.0,15.0,0.0
7983,41.0,0.0,30.0,3.0,0.0
7984,25.0,64.0,30.0,15.0,0.0
7985,25.0,54.0,30.0,15.0,0.0
7986,42.0,0.0,30.0,3.0,0.0
7987,37.0,0.0,30.0,3.0,0.0
7988,30.0,64.0,30.0,15.0,0.0
7989,42.0,0.0,30.0,2.0,0.0
7990,30.0,64.0,30.0,15.0,0.0
7991,30.0,54.0,30.0,15.0,0.0
7992,30.0,124.0,30.0,15.0,0.0
7993,73.0,12.0,15.0,11.0,0.0
7994,85.0,0.0,60.0,0.0,0.0
7995,75.0,8.0,15.0,11.0,0.0
7996,77.0,8.0,15.0,11.0,0.0
7997,78.0,8.0,15.0,11.0,0.0
7998,80.0,42.0,15.0,11.0,0.0
7999,77.0,10.0,150.0,9.0,0.0
8000,82.0,0.0,30.0,11.0,0.0
8001,54.0,32.0,60.0,14.0,0.0
8002,73.0,0.0,30.0,12.0,0.0
8003,78.0,0.0,30.0,12.0,0.0
8004,94.0,6.0,30.0,0.0,0.0
8005,58.0,16.0,30.0,14.0,0.0
8006,58.0,10.0,60.0,13.0,0.0
8007,94.0,38.0,30.0,0.0,0.0
8008,73.0,0.0,30.0,12.0,0.0
8009,82.0,0.0,30.0,11.0,0.0
8010,78.0,0.0,30.0,12.0,0.0
8011,61.0,16.0,60.0,13.0,0.0
8012,82.0,0.0,30.0,11.0,0.0
8013,73.0,22.0,30.0,12.0,0.0
8014,94.0,0.0,30.0,0.0,0.0
8015,78.0,0.0,30.0,12.0,0.0
8016,66.0,32.0,60.0,13.0,0.0
8017,78.0,0.0,30.0,12.0,0.0
8018,83.0,10.0,30.0,11.0,0.0
8019,59.0,14.0,60.0,14.0,0.0
8020,71.0,18.0,60.0,0.0,0.0
8021,71.0,6.0,30.0,1.0,0.0
8022,95.0,0.0,30.0,0.0,0.0
8023,75.0,0.0,30.0,12.0,0.0
8024,63.0,16.0,30.0,14.0,0.0
8025,63.0,10.0,60.0,13.0,0.0
8026,66.0,38.0,30.0,1.0,0.0
8027,71.0,0.0,30.0,0.0,0.0
8028,63.0,0.0,30.0,1.0,0.0
8029,66.0,26.0,60.0,13.0,0.0
8030,66.0,0.0,30.0,1.0,0.0
8031,71.0,22.0,30.0,0.0,0.0
8032,63.0,0.0,30.0,1.0,0.0
8033,71.0,32.0,60.0,13.0,0.0
8034,73.0,10.0,30.0,0.0,0.0
8035,66.0,0.0,30.0,1.0,0.0
8036,61.0,0.0,30.0,2.0,0.0
8037,54.0,0.0,30.0,2.0,0.0
8038,42.0,32.0,60.0,14.0,0.0
8039,49.0,16.0,30.0,14.0,0.0
8040,49.0,10.0,60.0,13.0,0.0
8041,61.0,38.0,30.0,2.0,0.0
8042,54.0,0.0,30.0,2.0,0.0
8043,54.0,26.0,60.0,13.0,0.0
8044,61.0,0.0,30.0,2.0,0.0
8045,54.0,0.0,30.0,2.0,0.0
8046,58.0,32.0,60.0,13.0,0.0
8047,62.0,10.0,30.0,2.0,0.0
8048,50.0,6.0,30.0,3.0,0.0
8049,35.0,32.0,60.0,15.0,0.0
8050,59.0,0.0,30.0,2.0,0.0
8051,54.0,0.0,30.0,2.0,0.0
8052,42.0,0.0,60.0,14.0,0.0
8053,50.0,14.0,30.0,14.0,0.0
8054,42.0,12.0,60.0,15.0,0.0
8055,50.0,0.0,30.0,3.0,0.0
8056,47.0,64.0,30.0,3.0,0.0
8057,47.0,0.0,30.0,3.0,0.0
8058,50.0,54.0,30.0,3.0,0.0
8059,37.0,52.0,30.0,14.0,0.0
8060,49.0,0.0,30.0,3.0,0.0
8061,30.0,12.0,90.0,15.0,0.0
8062,45.0,10.0,30.0,3.0,0.0
8063,37.0,64.0,30.0,14.0,0.0
8064,37.0,54.0,30.0,14.0,0.0
8065,45.0,0.0,30.0,3.0,0.0
8066,37.0,10.0,30.0,14.0,0.0
8067,30.0,64.0,30.0,3.0,0.0
8068,42.0,0.0,30.0,3.0,0.0
8069,30.0,0.0,30.0,15.0,0.0
8070,30.0,0.0,30.0,15.0,0.0
8071,30.0,64.0,30.0,3.0,0.0
8072,30.0,0.0,30.0,3.0,0.0
8073,30.0,54.0,30.0,15.0,0.0
8074,25.0,64.0,30.0,15.0,0.0
8075,37.0,10.0,30.0,14.0,0.0
8076,44.0,0.0,30.0,3.0,0.0
8077,41.0,0.0,30.0,3.0,0.0
8078,37.0,0.0,30.0,3.0,0.0
8079,25.0,64.0,30.0,15.0,0.0
8080,25.0,54.0,30.0,15.0,0.0
8081,25.0,88.0,30.0,15.0,0.0
8082,73.0,24.0,20.0,11.0,0.0
8083,72.0,16.0,20.0,11.0,0.0
8084,73.0,16.0,15.0,11.0,0.0
8085,85.0,0.0,60.0,0.0,0.0
8086,75.0,16.0,15.0,11.0,0.0
8087,77.0,42.0,15.0,11.0,0.0
8088,90.0,0.0,30.0,0.0,0.0
8089,54.0,32.0,60.0,14.0,0.0
8090,77.0,2.0,90.0,9.0,0.0
8091,70.0,6.0,30.0,12.0,0.0
8092,78.0,0.0,30.0,11.0,0.0
8093,58.0,10.0,60.0,13.0,0.0
8094,58.0,14.0,30.0,14.0,0.0
8095,78.0,38.0,30.0,11.0,0.0
8096,70.0,0.0,30.0,12.0,0.0
8097,90.0,0.0,30.0,0.0,0.0
8098,61.0,26.0,60.0,13.0,0.0
8099,90.0,22.0,30.0,0.0,0.0
8100,70.0,0.0,30.0,12.0,0.0
8101,78.0,0.0,30.0,11.0,0.0
8102,66.0,32.0,60.0,13.0,0.0
8103,92.0,0.0,30.0,0.0,0.0
8104,68.0,0.0,30.0,0.0,0.0
8105,73.0,10.0,30.0,12.0,0.0
8106,68.0,6.0,30.0,1.0,0.0
8107,49.0,32.0,60.0,14.0,0.0
8108,80.0,0.0,30.0,11.0,0.0
8109,56.0,10.0,60.0,13.0,0.0
8110,56.0,16.0,30.0,14.0,0.0
8111,68.0,38.0,30.0,0.0,0.0
8112,68.0,0.0,30.0,1.0,0.0
8113,61.0,0.0,30.0,1.0,0.0
8114,61.0,0.0,30.0,0.0,0.0
8115,61.0,26.0,60.0,13.0,0.0
8116,68.0,0.0,30.0,1.0,0.0
8117,61.0,0.0,30.0,1.0,0.0
8118,61.0,0.0,30.0,0.0,0.0
8119,68.0,22.0,30.0,0.0,0.0
8120,65.0,32.0,60.0,13.0,0.0
8121,70.0,0.0,30.0,0.0,0.0
8122,54.0,0.0,30.0,2.0,0.0
8123,58.0,6.0,30.0,2.0,0.0
8124,70.0,10.0,30.0,1.0,0.0
8125,66.0,0.0,30.0,0.0,0.0
8126,42.0,32.0,60.0,14.0,0.0
8127,66.0,0.0,30.0,1.0,0.0
8128,49.0,10.0,60.0,13.0,0.0
8129,49.0,16.0,30.0,14.0,0.0
8130,58.0,0.0,30.0,2.0,0.0
8131,54.0,38.0,30.0,2.0,0.0
8132,54.0,26.0,60.0,13.0,0.0
8133,58.0,0.0,30.0,2.0,0.0
8134,54.0,22.0,30.0,2.0,0.0
8135,58.0,32.0,60.0,13.0,0.0
8136,35.0,46.0,60.0,15.0,0.0
8137,47.0,6.0,30.0,2.0,0.0
8138,47.0,0.0,30.0,3.0,0.0
8139,59.0,0.0,30.0,2.0,0.0
8140,54.0,10.0,30.0,2.0,0.0
8141,38.0,10.0,60.0,14.0,0.0
8142,38.0,2.0,60.0,15.0,0.0
8143,47.0,38.0,30.0,2.0,0.0
8144,47.0,0.0,30.0,3.0,0.0
8145,42.0,26.0,60.0,14.0,0.0
8146,47.0,6.0,30.0,3.0,0.0
8147,47.0,0.0,30.0,2.0,0.0
8148,47.0,48.0,30.0,14.0,0.0
8149,45.0,0.0,30.0,2.0,0.0
8150,25.0,0.0,30.0,15.0,0.0
8151,33.0,64.0,30.0,3.0,0.0
8152,45.0,0.0,30.0,3.0,0.0
8153,42.0,10.0,30.0,3.0,0.0
8154,33.0,0.0,30.0,15.0,0.0
8155,33.0,64.0,30.0,3.0,0.0
8156,33.0,0.0,30.0,3.0,0.0
8157,33.0,54.0,30.0,15.0,0.0
8158,44.0,10.0,30.0,2.0,0.0
8159,25.0,64.0,30.0,15.0,0.0
8160,37.0,0.0,30.0,3.0,0.0
8161,44.0,0.0,30.0,3.0,0.0
8162,41.0,0.0,30.0,3.0,0.0
8163,25.0,64.0,30.0,15.0,0.0
8164,25.0,54.0,30.0,15.0,0.0
8165,42.0,0.0,30.0,2.0,0.0
8166,30.0,64.0,30.0,15.0,0.0
8167,37.0,0.0,30.0,3.0,0.0
8168,42.0,10.0,30.0,3.0,0.0
8169,30.0,64.0,30.0,15.0,0.0
8170,30.0,54.0,30.0,15.0,0.0
8171,30.0,124.0,30.0,15.0,0.0
8172,85.0,42.0,60.0,0.0,0.0
8173,73.0,12.0,15.0,11.0,0.0
8174,75.0,8.0,15.0,11.0,0.0
8175,77.0,8.0,15.0,11.0,0.0
8176,78.0,8.0,15.0,11.0,0.0
8177,80.0,0.0,15.0,11.0,0.0
8178,82.0,0.0,30.0,11.0,0.0
8179,78.0,6.0,30.0,12.0,0.0
8180,94.0,0.0,30.0,0.0,0.0
8181,54.0,32.0,60.0,14.0,0.0
8182,77.0,10.0,150.0,9.0,0.0
8183,73.0,0.0,30.0,12.0,0.0
8184,58.0,16.0,30.0,14.0,0.0
8185,58.0,10.0,60.0,13.0,0.0
8186,78.0,0.0,30.0,12.0,0.0
8187,73.0,38.0,30.0,12.0,0.0
8188,82.0,0.0,30.0,11.0,0.0
8189,94.0,0.0,30.0,0.0,0.0
8190,61.0,16.0,60.0,13.0,0.0
8191,94.0,22.0,30.0,0.0,0.0
8192,78.0,0.0,30.0,12.0,0.0
8193,73.0,0.0,30.0,12.0,0.0
8194,82.0,0.0,30.0,11.0,0.0
8195,66.0,32.0,60.0,13.0,0.0
8196,59.0,14.0,60.0,14.0,0.0
8197,71.0,6.0,30.0,1.0,0.0
8198,83.0,10.0,30.0,11.0,0.0
8199,71.0,18.0,60.0,0.0,0.0
8200,75.0,0.0,30.0,12.0,0.0
8201,95.0,0.0,30.0,0.0,0.0
8202,78.0,0.0,30.0,12.0,0.0
8203,63.0,16.0,30.0,14.0,0.0
8204,63.0,10.0,60.0,13.0,0.0
8205,66.0,38.0,30.0,1.0,0.0
8206,71.0,0.0,30.0,0.0,0.0
8207,63.0,0.0,30.0,1.0,0.0
8208,66.0,26.0,60.0,13.0,0.0
8209,63.0,0.0,30.0,1.0,0.0
8210,66.0,22.0,30.0,1.0,0.0
8211,71.0,0.0,30.0,0.0,0.0
8212,71.0,32.0,60.0,13.0,0.0
8213,61.0,0.0,30.0,2.0,0.0
8214,73.0,10.0,30.0,0.0,0.0
8215,66.0,0.0,30.0,1.0,0.0
8216,54.0,0.0,30.0,2.0,0.0
8217,42.0,32.0,60.0,14.0,0.0
8218,49.0,16.0,30.0,14.0,0.0
8219,49.0,10.0,60.0,13.0,0.0
8220,54.0,0.0,30.0,2.0,0.0
8221,61.0,0.0,30.0,2.0,0.0
8222,54.0,26.0,60.0,13.0,0.0
8223,61.0,22.0,30.0,2.0,0.0
8224,54.0,0.0,30.0,2.0,0.0
8225,58.0,32.0,60.0,13.0,0.0
8226,54.0,10.0,30.0,2.0,0.0
8227,50.0,6.0,30.0,3.0,0.0
8228,59.0,0.0,30.0,2.0,0.0
8229,42.0,0.0,60.0,14.0,0.0
8230,62.0,0.0,30.0,2.0,0.0
8231,35.0,32.0,60.0,15.0,0.0
8232,50.0,14.0,30.0,14.0,0.0
8233,42.0,12.0,60.0,15.0,0.0
8234,47.0,64.0,30.0,3.0,0.0
8235,50.0,0.0,30.0,3.0,0.0
8236,47.0,0.0,30.0,3.0,0.0
8237,50.0,54.0,30.0,3.0,0.0
8238,45.0,10.0,30.0,3.0,0.0
8239,49.0,0.0,30.0,3.0,0.0
8240,30.0,12.0,90.0,15.0,0.0
8241,37.0,52.0,30.0,14.0,0.0
8242,37.0,64.0,30.0,14.0,0.0
8243,37.0,54.0,30.0,14.0,0.0
8244,37.0,0.0,30.0,14.0,0.0
8245,42.0,10.0,30.0,3.0,0.0
8246,30.0,64.0,30.0,3.0,0.0
8247,45.0,0.0,30.0,3.0,0.0
8248,30.0,0.0,30.0,15.0,0.0
8249,30.0,64.0,30.0,3.0,0.0
8250,30.0,0.0,30.0,15.0,0.0
8251,30.0,0.0,30.0,15.0,0.0
8252,30.0,54.0,30.0,3.0,0.0
8253,25.0,64.0,30.0,15.0,0.0
8254,41.0,0.0,30.0,3.0,0.0
8255,37.0,10.0,30.0,3.0,0.0
8256,37.0,0.0,30.0,14.0,0.0
8257,44.0,0.0,30.0,3.0,0.0
8258,25.0,64.0,30.0,15.0,0.0
8259,25.0,54.0,30.0,15.0,0.0
8260,25.0,88.0,30.0,15.0,0.0
8261,73.0,24.0,20.0,11.0,0.0
8262,75.0,16.0,20.0,11.0,0.0
8263,85.0,0.0,60.0,0.0,0.0
8264,77.0,16.0,15.0,11.0,0.0
8265,73.0,0.0,90.0,12.0,0.0
8266,78.0,16.0,15.0,11.0,0.0
8267,80.0,42.0,15.0,11.0,0.0
8268,92.0,0.0,30.0,0.0,0.0
8269,49.0,32.0,60.0,14.0,0.0
8270,77.0,10.0,150.0,9.0,0.0
8271,56.0,10.0,60.0,13.0,0.0
8272,56.0,16.0,30.0,14.0,0.0
8273,73.0,0.0,30.0,12.0,0.0
8274,92.0,38.0,30.0,0.0,0.0
8275,80.0,0.0,30.0,11.0,0.0
8276,61.0,16.0,60.0,13.0,0.0
8277,80.0,0.0,30.0,11.0,0.0
8278,92.0,0.0,30.0,0.0,0.0
8279,73.0,22.0,30.0,12.0,0.0
8280,65.0,32.0,60.0,13.0,0.0
8281,57.0,0.0,30.0,1.0,0.0
8282,93.0,10.0,30.0,0.0,0.0
8283,69.0,0.0,30.0,12.0,0.0
8284,54.0,32.0,60.0,14.0,0.0
8285,66.0,6.0,30.0,0.0,0.0
8286,81.0,0.0,30.0,11.0,0.0
8287,57.0,10.0,60.0,13.0,0.0
8288,57.0,16.0,30.0,14.0,0.0
8289,66.0,38.0,30.0,0.0,0.0
8290,57.0,0.0,30.0,1.0,0.0
8291,61.0,26.0,60.0,13.0,0.0
8292,57.0,0.0,30.0,1.0,0.0
8293,66.0,22.0,30.0,0.0,0.0
8294,66.0,32.0,60.0,13.0,0.0
8295,49.0,0.0,30.0,13.0,0.0
8296,61.0,10.0,30.0,1.0,0.0
8297,68.0,0.0,30.0,0.0,0.0
8298,37.0,32.0,60.0,14.0,0.0
8299,56.0,0.0,30.0,2.0,0.0
8300,49.0,0.0,30.0,2.0,0.0
8301,44.0,26.0,30.0,14.0,0.0
8302,49.0,0.0,30.0,13.0,0.0
8303,56.0,64.0,30.0,2.0,0.0
8304,49.0,0.0,30.0,2.0,0.0
8305,56.0,54.0,30.0,2.0,0.0
8306,49.0,0.0,30.0,13.0,0.0
8307,49.0,0.0,30.0,2.0,0.0
8308,57.0,0.0,30.0,2.0,0.0
8309,54.0,0.0,30.0,13.0,0.0
8310,37.0,32.0,60.0,14.0,0.0
8311,37.0,0.0,30.0,3.0,0.0
8312,45.0,6.0,30.0,3.0,0.0
8313,33.0,0.0,30.0,3.0,0.0
8314,54.0,0.0,30.0,2.0,0.0
8315,30.0,0.0,60.0,15.0,0.0
8316,45.0,14.0,30.0,14.0,0.0
8317,37.0,12.0,60.0,15.0,0.0
8318,45.0,0.0,30.0,3.0,0.0
8319,33.0,54.0,30.0,3.0,0.0
8320,33.0,0.0,30.0,3.0,0.0
8321,45.0,6.0,30.0,3.0,0.0
8322,33.0,10.0,15.0,14.0,0.0
8323,35.0,16.0,15.0,14.0,0.0
8324,37.0,32.0,15.0,14.0,0.0
8325,38.0,10.0,30.0,3.0,0.0
8326,50.0,0.0,30.0,3.0,0.0
8327,38.0,64.0,30.0,14.0,0.0
8328,38.0,54.0,30.0,14.0,0.0
8329,38.0,6.0,30.0,14.0,0.0
8330,45.0,10.0,15.0,13.0,0.0
8331,47.0,16.0,15.0,13.0,0.0
8332,49.0,32.0,15.0,13.0,0.0
8333,42.0,10.0,30.0,14.0,0.0
8334,50.0,64.0,30.0,13.0,0.0
8335,50.0,54.0,30.0,13.0,0.0
8336,50.0,6.0,30.0,13.0,0.0
8337,57.0,10.0,15.0,12.0,0.0
8338,59.0,16.0,15.0,12.0,0.0
8339,61.0,32.0,15.0,12.0,0.0
8340,62.0,64.0,30.0,12.0,0.0
8341,54.0,10.0,30.0,13.0,0.0
8342,62.0,54.0,30.0,12.0,0.0
8343,62.0,6.0,30.0,12.0,0.0
8344,69.0,10.0,15.0,11.0,0.0
8345,71.0,16.0,15.0,11.0,0.0
8346,73.0,32.0,15.0,11.0,0.0
8347,74.0,64.0,30.0,11.0,0.0
8348,66.0,10.0,30.0,12.0,0.0
8349,74.0,54.0,30.0,11.0,0.0
8350,74.0,6.0,30.0,11.0,0.0
8351,37.0,10.0,15.0,14.0,0.0
8352,38.0,16.0,15.0,14.0,0.0
8353,41.0,32.0,15.0,14.0,0.0
8354,42.0,0.0,30.0,3.0,0.0
8355,78.0,10.0,30.0,11.0,0.0
8356,42.0,64.0,30.0,14.0,0.0
8357,42.0,50.0,30.0,3.0,0.0
8358,42.0,0.0,30.0,14.0,0.0
8359,42.0,0.0,30.0,14.0,0.0
8360,42.0,10.0,30.0,3.0,0.0
8361,49.0,12.0,15.0,13.0,0.0
8362,50.0,2.0,15.0,13.0,0.0
8363,53.0,12.0,15.0,13.0,0.0
8364,54.0,32.0,15.0,13.0,0.0
8365,44.0,10.0,30.0,14.0,0.0
8366,49.0,0.0,30.0,3.0,0.0
8367,56.0,0.0,30.0,3.0,0.0
8368,37.0,0.0,30.0,15.0,0.0
8369,44.0,0.0,30.0,3.0,0.0
8370,56.0,64.0,30.0,13.0,0.0
8371,56.0,0.0,30.0,3.0,0.0
8372,56.0,50.0,30.0,13.0,0.0
8373,49.0,0.0,30.0,3.0,0.0
8374,49.0,0.0,30.0,3.0,0.0
8375,56.0,0.0,30.0,3.0,0.0
8376,56.0,10.0,30.0,13.0,0.0
8377,61.0,12.0,15.0,12.0,0.0
8378,65.0,2.0,15.0,12.0,0.0
8379,66.0,12.0,15.0,12.0,0.0
8380,68.0,32.0,15.0,12.0,0.0
8381,57.0,0.0,30.0,3.0,0.0
8382,54.0,10.0,30.0,3.0,0.0
8383,57.0,0.0,30.0,13.0,0.0
8384,61.0,0.0,30.0,2.0,0.0
8385,69.0,0.0,30.0,12.0,0.0
8386,66.0,0.0,30.0,2.0,0.0
8387,61.0,0.0,30.0,2.0,0.0
8388,69.0,0.0,30.0,12.0,0.0
8389,69.0,0.0,30.0,12.0,0.0
8390,61.0,0.0,30.0,2.0,0.0
8391,66.0,6.0,30.0,2.0,0.0
8392,81.0,0.0,15.0,11.0,0.0
8393,69.0,0.0,15.0,0.0,0.0
8394,69.0,10.0,15.0,1.0,0.0
8395,81.0,0.0,15.0,0.0,0.0
8396,71.0,0.0,15.0,1.0,0.0
8397,71.0,0.0,15.0,0.0,0.0
8398,83.0,0.0,15.0,0.0,0.0
8399,83.0,0.0,15.0,11.0,0.0
8400,73.0,32.0,15.0,0.0,0.0
8401,73.0,0.0,15.0,1.0,0.0
8402,85.0,0.0,15.0,11.0,0.0
8403,85.0,0.0,15.0,0.0,0.0
8404,66.0,0.0,30.0,2.0,0.0
8405,86.0,0.0,30.0,11.0,0.0
8406,86.0,0.0,30.0,0.0,0.0
8407,74.0,0.0,30.0,0.0,0.0
8408,74.0,0.0,30.0,1.0,0.0
8409,78.0,64.0,30.0,12.0,0.0
8410,62.0,0.0,30.0,2.0,0.0
8411,71.0,10.0,30.0,2.0,0.0
8412,74.0,0.0,30.0,0.0,0.0
8413,74.0,0.0,30.0,1.0,0.0
8414,78.0,0.0,30.0,1.0,0.0
8415,86.0,0.0,30.0,0.0,0.0
8416,78.0,0.0,30.0,12.0,0.0
8417,86.0,0.0,30.0,11.0,0.0
8418,74.0,0.0,30.0,0.0,0.0
8419,86.0,0.0,30.0,0.0,0.0
8420,78.0,0.0,30.0,1.0,0.0
8421,86.0,54.0,30.0,11.0,0.0
8422,78.0,0.0,30.0,12.0,0.0
8423,74.0,0.0,30.0,1.0,0.0
8424,78.0,0.0,30.0,1.0,0.0
8425,73.0,0.0,30.0,1.0,0.0
8426,77.0,10.0,150.0,9.0,0.0
8427,81.0,10.0,30.0,0.0,0.0
8428,78.0,0.0,30.0,12.0,0.0
8429,81.0,0.0,30.0,12.0,0.0
8430,85.0,0.0,30.0,11.0,0.0
8431,85.0,0.0,30.0,0.0,0.0
8432,49.0,32.0,60.0,14.0,0.0
8433,61.0,0.0,30.0,2.0,0.0
8434,54.0,10.0,60.0,13.0,0.0
8435,54.0,16.0,30.0,14.0,0.0
8436,73.0,0.0,30.0,2.0,0.0
8437,61.0,0.0,30.0,2.0,0.0
8438,57.0,16.0,60.0,13.0,0.0
8439,73.0,22.0,30.0,2.0,0.0
8440,61.0,0.0,30.0,2.0,0.0
8441,61.0,32.0,60.0,13.0,0.0
8442,37.0,32.0,60.0,14.0,0.0
8443,61.0,6.0,30.0,2.0,0.0
8444,49.0,0.0,30.0,3.0,0.0
8445,68.0,0.0,30.0,2.0,0.0
8446,73.0,10.0,30.0,2.0,0.0
8447,44.0,16.0,30.0,14.0,0.0
8448,44.0,10.0,60.0,13.0,0.0
8449,37.0,0.0,30.0,3.0,0.0
8450,61.0,38.0,30.0,2.0,0.0
8451,49.0,0.0,30.0,3.0,0.0
8452,49.0,26.0,60.0,13.0,0.0
8453,37.0,0.0,30.0,3.0,0.0
8454,61.0,0.0,30.0,2.0,0.0
8455,49.0,22.0,30.0,3.0,0.0
8456,53.0,32.0,60.0,13.0,0.0
8457,61.0,6.0,30.0,2.0,0.0
8458,37.0,32.0,60.0,14.0,0.0
8459,42.0,0.0,30.0,3.0,0.0
8460,49.0,0.0,30.0,3.0,0.0
8461,54.0,10.0,30.0,3.0,0.0
8462,30.0,0.0,30.0,15.0,0.0
8463,42.0,26.0,30.0,14.0,0.0
8464,42.0,64.0,30.0,3.0,0.0
8465,42.0,0.0,30.0,15.0,0.0
8466,42.0,54.0,30.0,3.0,0.0
8467,42.0,0.0,30.0,15.0,0.0
8468,42.0,0.0,30.0,15.0,0.0
8469,42.0,88.0,30.0,3.0,0.0
8470,73.0,24.0,20.0,11.0,0.0
8471,75.0,16.0,20.0,11.0,0.0
8472,85.0,42.0,60.0,0.0,0.0
8473,73.0,6.0,90.0,12.0,0.0
8474,77.0,16.0,15.0,11.0,0.0
8475,78.0,16.0,15.0,11.0,0.0
8476,80.0,0.0,15.0,11.0,0.0
8477,92.0,0.0,30.0,0.0,0.0
8478,49.0,32.0,60.0,14.0,0.0
8479,80.0,0.0,30.0,11.0,0.0
8480,77.0,10.0,150.0,9.0,0.0
8481,56.0,16.0,30.0,14.0,0.0
8482,56.0,10.0,60.0,13.0,0.0
8483,92.0,0.0,30.0,0.0,0.0
8484,80.0,0.0,30.0,11.0,0.0
8485,73.0,38.0,30.0,12.0,0.0
8486,61.0,16.0,60.0,13.0,0.0
8487,92.0,0.0,30.0,0.0,0.0
8488,73.0,22.0,30.0,12.0,0.0
8489,80.0,0.0,30.0,11.0,0.0
8490,65.0,32.0,60.0,13.0,0.0
8491,69.0,0.0,30.0,12.0,0.0
8492,81.0,0.0,30.0,11.0,0.0
8493,57.0,0.0,30.0,1.0,0.0
8494,66.0,6.0,30.0,0.0,0.0
8495,93.0,10.0,30.0,0.0,0.0
8496,54.0,32.0,60.0,14.0,0.0
8497,57.0,10.0,60.0,13.0,0.0
8498,57.0,16.0,30.0,14.0,0.0
8499,57.0,38.0,30.0,1.0,0.0
8500,66.0,0.0,30.0,0.0,0.0
8501,61.0,26.0,60.0,13.0,0.0
8502,66.0,0.0,30.0,0.0,0.0
8503,57.0,22.0,30.0,1.0,0.0
8504,66.0,32.0,60.0,13.0,0.0
8505,37.0,32.0,60.0,14.0,0.0
8506,56.0,0.0,30.0,2.0,0.0
8507,49.0,0.0,30.0,2.0,0.0
8508,68.0,0.0,30.0,0.0,0.0
8509,49.0,0.0,30.0,13.0,0.0
8510,61.0,10.0,30.0,1.0,0.0
8511,44.0,26.0,30.0,14.0,0.0
8512,49.0,0.0,30.0,13.0,0.0
8513,56.0,0.0,30.0,2.0,0.0
8514,49.0,0.0,30.0,2.0,0.0
8515,56.0,0.0,30.0,2.0,0.0
8516,49.0,0.0,30.0,13.0,0.0
8517,49.0,0.0,30.0,2.0,0.0
8518,57.0,0.0,30.0,2.0,0.0
8519,54.0,10.0,30.0,13.0,0.0
8520,54.0,0.0,30.0,2.0,0.0
8521,30.0,32.0,60.0,15.0,0.0
8522,33.0,0.0,30.0,3.0,0.0
8523,37.0,0.0,60.0,14.0,0.0
8524,45.0,6.0,30.0,3.0,0.0
8525,37.0,0.0,30.0,3.0,0.0
8526,45.0,14.0,30.0,14.0,0.0
8527,37.0,12.0,60.0,15.0,0.0
8528,33.0,0.0,30.0,3.0,0.0
8529,45.0,54.0,30.0,3.0,0.0
8530,33.0,0.0,30.0,3.0,0.0
8531,45.0,6.0,30.0,3.0,0.0
8532,33.0,10.0,15.0,14.0,0.0
8533,35.0,16.0,15.0,14.0,0.0
8534,37.0,32.0,15.0,14.0,0.0
8535,38.0,10.0,30.0,3.0,0.0
8536,50.0,0.0,30.0,3.0,0.0
8537,38.0,64.0,30.0,14.0,0.0
8538,38.0,54.0,30.0,14.0,0.0
8539,38.0,6.0,30.0,14.0,0.0
8540,45.0,10.0,15.0,13.0,0.0
8541,47.0,16.0,15.0,13.0,0.0
8542,49.0,32.0,15.0,13.0,0.0
8543,42.0,10.0,30.0,14.0,0.0
8544,50.0,64.0,30.0,13.0,0.0
8545,50.0,54.0,30.0,13.0,0.0
8546,50.0,6.0,30.0,13.0,0.0
8547,57.0,10.0,15.0,12.0,0.0
8548,59.0,16.0,15.0,12.0,0.0
8549,61.0,32.0,15.0,12.0,0.0
8550,62.0,64.0,30.0,12.0,0.0
8551,54.0,10.0,30.0,13.0,0.0
8552,62.0,54.0,30.0,12.0,0.0
8553,62.0,6.0,30.0,12.0,0.0
8554,69.0,10.0,15.0,11.0,0.0
8555,71.0,16.0,15.0,11.0,0.0
8556,73.0,32.0,15.0,11.0,0.0
8557,66.0,10.0,30.0,12.0,0.0
8558,74.0,64.0,30.0,11.0,0.0
8559,74.0,54.0,30.0,11.0,0.0
8560,74.0,6.0,30.0,11.0,0.0
8561,37.0,10.0,15.0,14.0,0.0
8562,38.0,16.0,15.0,14.0,0.0
8563,41.0,32.0,15.0,14.0,0.0
8564,42.0,64.0,30.0,3.0,0.0
8565,42.0,0.0,30.0,14.0,0.0
8566,78.0,10.0,30.0,11.0,0.0
8567,42.0,0.0,30.0,14.0,0.0
8568,42.0,50.0,30.0,3.0,0.0
8569,42.0,10.0,30.0,14.0,0.0
8570,42.0,0.0,30.0,3.0,0.0
8571,49.0,12.0,15.0,13.0,0.0
8572,50.0,2.0,15.0,13.0,0.0
8573,53.0,12.0,15.0,13.0,0.0
8574,54.0,32.0,15.0,13.0,0.0
8575,49.0,64.0,30.0,3.0,0.0
8576,44.0,0.0,30.0,14.0,0.0
8577,56.0,0.0,30.0,13.0,0.0
8578,44.0,0.0,30.0,3.0,0.0
8579,37.0,10.0,30.0,15.0,0.0
8580,56.0,0.0,30.0,3.0,0.0
8581,49.0,0.0,30.0,3.0,0.0
8582,56.0,0.0,30.0,13.0,0.0
8583,56.0,50.0,30.0,3.0,0.0
8584,56.0,10.0,30.0,13.0,0.0
8585,49.0,0.0,30.0,3.0,0.0
8586,56.0,0.0,30.0,3.0,0.0
8587,61.0,12.0,15.0,12.0,0.0
8588,65.0,2.0,15.0,12.0,0.0
8589,66.0,12.0,15.0,12.0,0.0
8590,68.0,32.0,15.0,12.0,0.0
8591,69.0,0.0,30.0,12.0,0.0
8592,57.0,0.0,30.0,13.0,0.0
8593,61.0,0.0,30.0,2.0,0.0
8594,54.0,0.0,30.0,3.0,0.0
8595,57.0,10.0,30.0,3.0,0.0
8596,61.0,0.0,30.0,2.0,0.0
8597,69.0,54.0,30.0,12.0,0.0
8598,66.0,0.0,30.0,2.0,0.0
8599,66.0,0.0,30.0,2.0,0.0
8600,69.0,6.0,30.0,12.0,0.0
8601,61.0,0.0,30.0,2.0,0.0
8602,69.0,10.0,15.0,0.0,0.0
8603,81.0,0.0,15.0,11.0,0.0
8604,69.0,0.0,15.0,1.0,0.0
8605,81.0,0.0,15.0,0.0,0.0
8606,71.0,0.0,15.0,1.0,0.0
8607,71.0,0.0,15.0,0.0,0.0
8608,83.0,16.0,15.0,11.0,0.0
8609,83.0,0.0,15.0,0.0,0.0
8610,73.0,0.0,15.0,0.0,0.0
8611,85.0,0.0,15.0,0.0,0.0
8612,85.0,0.0,15.0,11.0,0.0
8613,73.0,32.0,15.0,1.0,0.0
8614,66.0,0.0,30.0,2.0,0.0
8615,71.0,10.0,30.0,2.0,0.0
8616,78.0,64.0,30.0,12.0,0.0
8617,74.0,0.0,30.0,1.0,0.0
8618,74.0,0.0,30.0,0.0,0.0
8619,62.0,0.0,30.0,2.0,0.0
8620,86.0,0.0,30.0,0.0,0.0
8621,86.0,0.0,30.0,11.0,0.0
8622,78.0,0.0,30.0,12.0,0.0
8623,74.0,0.0,30.0,1.0,0.0
8624,86.0,0.0,30.0,11.0,0.0
8625,78.0,64.0,30.0,1.0,0.0
8626,86.0,0.0,30.0,0.0,0.0
8627,74.0,0.0,30.0,0.0,0.0
8628,78.0,0.0,30.0,12.0,0.0
8629,74.0,0.0,30.0,1.0,0.0
8630,78.0,0.0,30.0,1.0,0.0
8631,74.0,0.0,30.0,0.0,0.0
8632,86.0,0.0,30.0,0.0,0.0
8633,86.0,0.0,30.0,11.0,0.0
8634,78.0,0.0,30.0,12.0,0.0
8635,81.0,0.0,30.0,12.0,0.0
8636,81.0,0.0,30.0,0.0,0.0
8637,49.0,32.0,60.0,14.0,0.0
8638,85.0,0.0,30.0,0.0,0.0
8639,78.0,0.0,30.0,1.0,0.0
8640,73.0,0.0,30.0,1.0,0.0
8641,77.0,10.0,150.0,9.0,0.0
8642,85.0,0.0,30.0,11.0,0.0
8643,61.0,0.0,30.0,2.0,0.0
8644,54.0,16.0,30.0,14.0,0.0
8645,54.0,10.0,60.0,13.0,0.0
8646,73.0,0.0,30.0,2.0,0.0
8647,61.0,0.0,30.0,2.0,0.0
8648,57.0,16.0,60.0,13.0,0.0
8649,73.0,0.0,30.0,2.0,0.0
8650,61.0,0.0,30.0,2.0,0.0
8651,61.0,32.0,60.0,13.0,0.0
8652,73.0,10.0,30.0,2.0,0.0
8653,68.0,0.0,30.0,2.0,0.0
8654,49.0,6.0,30.0,3.0,0.0
8655,37.0,32.0,60.0,14.0,0.0
8656,61.0,0.0,30.0,2.0,0.0
8657,44.0,16.0,30.0,14.0,0.0
8658,44.0,10.0,60.0,13.0,0.0
8659,37.0,0.0,30.0,3.0,0.0
8660,49.0,38.0,30.0,3.0,0.0
8661,61.0,0.0,30.0,2.0,0.0
8662,49.0,26.0,60.0,13.0,0.0
8663,49.0,0.0,30.0,3.0,0.0
8664,61.0,22.0,30.0,2.0,0.0
8665,37.0,0.0,30.0,3.0,0.0
8666,53.0,32.0,60.0,13.0,0.0
8667,37.0,32.0,60.0,14.0,0.0
8668,42.0,6.0,30.0,3.0,0.0
8669,61.0,0.0,30.0,2.0,0.0
8670,49.0,0.0,30.0,3.0,0.0
8671,54.0,10.0,30.0,3.0,0.0
8672,30.0,0.0,30.0,15.0,0.0
8673,42.0,26.0,30.0,14.0,0.0
8674,42.0,0.0,30.0,3.0,0.0
8675,42.0,64.0,30.0,15.0,0.0
8676,42.0,0.0,30.0,3.0,0.0
8677,42.0,54.0,30.0,15.0,0.0
8678,42.0,160.0,30.0,15.0,0.0
8679,42.0,0.0,30.0,3.0,0.0
8680,66.0,48.0,20.0,11.0,0.0
8681,58.0,48.0,60.0,14.0,0.0
8682,78.0,48.0,90.0,11.0,0.0
8683,61.0,0.0,60.0,14.0,0.0
8684,73.0,48.0,90.0,11.0,0.0
8685,58.0,48.0,60.0,14.0,0.0
8686,61.0,0.0,60.0,14.0,0.0
8687,53.0,48.0,60.0,14.0,0.0
8688,71.0,48.0,90.0,11.0,0.0
8689,61.0,0.0,60.0,14.0,0.0
8690,53.0,48.0,60.0,14.0,0.0
8691,68.0,0.0,90.0,11.0,0.0
8692,61.0,48.0,60.0,14.0,0.0
8693,70.0,0.0,90.0,11.0,0.0
8694,54.0,48.0,60.0,14.0,0.0
8695,61.0,48.0,60.0,14.0,0.0
8696,66.0,48.0,90.0,11.0,0.0
8697,54.0,48.0,60.0,14.0,0.0
8698,61.0,0.0,60.0,14.0,0.0
8699,51.0,48.0,60.0,14.0,0.0
8700,59.0,0.0,180.0,12.0,0.0
8701,71.0,48.0,90.0,11.0,0.0
8702,54.0,0.0,60.0,14.0,0.0
8703,68.0,0.0,90.0,11.0,0.0
8704,51.0,48.0,60.0,14.0,0.0
8705,54.0,48.0,60.0,14.0,0.0
8706,49.0,48.0,60.0,14.0,0.0
8707,70.0,48.0,90.0,11.0,0.0
8708,61.0,0.0,180.0,12.0,0.0
8709,54.0,0.0,60.0,14.0,0.0
8710,49.0,48.0,60.0,14.0,0.0
8711,66.0,0.0,90.0,11.0,0.0
8712,54.0,48.0,60.0,14.0,0.0
8713,71.0,0.0,90.0,11.0,0.0
8714,47.0,48.0,60.0,14.0,0.0
8715,62.0,48.0,180.0,12.0,0.0
8716,54.0,48.0,60.0,14.0,0.0
8717,68.0,0.0,90.0,11.0,0.0
8718,47.0,48.0,60.0,14.0,0.0
8719,54.0,0.0,60.0,14.0,0.0
8720,61.0,0.0,180.0,12.0,0.0
8721,42.0,48.0,60.0,14.0,0.0
8722,70.0,0.0,90.0,11.0,0.0
8723,54.0,48.0,60.0,14.0,0.0
8724,66.0,48.0,90.0,11.0,0.0
8725,42.0,48.0,60.0,14.0,0.0
8726,54.0,0.0,60.0,14.0,0.0
8727,37.0,48.0,60.0,14.0,0.0
8728,68.0,48.0,90.0,11.0,0.0
8729,44.0,0.0,60.0,14.0,0.0
8730,49.0,24.0,60.0,14.0,0.0
8731,61.0,24.0,60.0,11.0,0.0
8732,53.0,48.0,60.0,14.0,0.0
8733,70.0,0.0,20.0,11.0,0.0
8734,82.0,48.0,90.0,11.0,0.0
8735,61.0,48.0,60.0,14.0,0.0
8736,65.0,0.0,60.0,14.0,0.0
8737,77.0,0.0,90.0,11.0,0.0
8738,61.0,48.0,60.0,14.0,0.0
8739,65.0,48.0,60.0,14.0,0.0
8740,57.0,48.0,60.0,14.0,0.0
8741,65.0,0.0,390.0,12.0,0.0
8742,75.0,48.0,90.0,11.0,0.0
8743,60.0,0.0,60.0,14.0,0.0
8744,57.0,48.0,60.0,14.0,0.0
8745,72.0,0.0,90.0,11.0,0.0
8746,60.0,48.0,60.0,14.0,0.0
8747,73.0,48.0,90.0,11.0,0.0
8748,58.0,48.0,60.0,14.0,0.0
8749,61.0,0.0,60.0,14.0,0.0
8750,70.0,0.0,90.0,11.0,0.0
8751,58.0,48.0,60.0,14.0,0.0
8752,61.0,48.0,60.0,14.0,0.0
8753,75.0,0.0,90.0,11.0,0.0
8754,63.0,0.0,180.0,12.0,0.0
8755,54.0,48.0,60.0,14.0,0.0
8756,58.0,48.0,60.0,14.0,0.0
8757,72.0,0.0,90.0,11.0,0.0
8758,54.0,48.0,60.0,14.0,0.0
8759,58.0,48.0,60.0,14.0,0.0
8760,65.0,48.0,180.0,12.0,0.0
8761,73.0,0.0,90.0,11.0,0.0
8762,53.0,48.0,60.0,14.0,0.0
8763,58.0,48.0,60.0,14.0,0.0
8764,53.0,48.0,60.0,14.0,0.0
8765,70.0,0.0,90.0,11.0,0.0
8766,58.0,0.0,60.0,14.0,0.0
8767,73.0,48.0,90.0,11.0,0.0
8768,52.0,48.0,60.0,14.0,0.0
8769,67.0,0.0,180.0,12.0,0.0
8770,58.0,0.0,60.0,14.0,0.0
8771,52.0,48.0,60.0,14.0,0.0
8772,70.0,48.0,90.0,11.0,0.0
8773,61.0,0.0,60.0,14.0,0.0
8774,69.0,0.0,180.0,11.0,0.0
8775,53.0,48.0,60.0,14.0,0.0
8776,60.0,48.0,60.0,14.0,0.0
8777,53.0,48.0,60.0,14.0,0.0
8778,60.0,48.0,60.0,14.0,0.0
8779,65.0,0.0,15.0,12.0,0.0
8780,61.0,0.0,90.0,12.0,0.0
8781,37.0,48.0,60.0,14.0,0.0
8782,70.0,0.0,90.0,11.0,0.0
8783,44.0,48.0,60.0,14.0,0.0
8784,59.0,0.0,90.0,12.0,0.0
8785,68.0,24.0,60.0,11.0,0.0
8786,49.0,24.0,60.0,14.0,0.0
8787,53.0,0.0,60.0,14.0,0.0
8788,66.0,48.0,20.0,11.0,0.0
8789,58.0,48.0,60.0,14.0,0.0
8790,78.0,0.0,90.0,11.0,0.0
8791,61.0,48.0,60.0,14.0,0.0
8792,73.0,48.0,90.0,11.0,0.0
8793,58.0,48.0,60.0,14.0,0.0
8794,61.0,0.0,60.0,14.0,0.0
8795,53.0,48.0,60.0,14.0,0.0
8796,71.0,0.0,90.0,11.0,0.0
8797,61.0,48.0,60.0,14.0,0.0
8798,53.0,48.0,60.0,14.0,0.0
8799,68.0,48.0,90.0,11.0,0.0
8800,61.0,0.0,60.0,14.0,0.0
8801,70.0,48.0,90.0,11.0,0.0
8802,54.0,48.0,60.0,14.0,0.0
8803,61.0,0.0,60.0,14.0,0.0
8804,66.0,0.0,90.0,11.0,0.0
8805,54.0,48.0,60.0,14.0,0.0
8806,61.0,48.0,60.0,14.0,0.0
8807,51.0,48.0,60.0,14.0,0.0
8808,71.0,48.0,90.0,11.0,0.0
8809,59.0,0.0,180.0,12.0,0.0
8810,54.0,0.0,60.0,14.0,0.0
8811,51.0,48.0,60.0,14.0,0.0
8812,68.0,48.0,90.0,11.0,0.0
8813,54.0,0.0,60.0,14.0,0.0
8814,49.0,48.0,60.0,14.0,0.0
8815,70.0,0.0,90.0,11.0,0.0
8816,61.0,0.0,180.0,12.0,0.0
8817,54.0,48.0,60.0,14.0,0.0
8818,49.0,48.0,60.0,14.0,0.0
8819,66.0,0.0,90.0,11.0,0.0
8820,54.0,48.0,60.0,14.0,0.0
8821,62.0,0.0,180.0,12.0,0.0
8822,71.0,48.0,90.0,11.0,0.0
8823,47.0,48.0,60.0,14.0,0.0
8824,54.0,0.0,60.0,14.0,0.0
8825,47.0,48.0,60.0,14.0,0.0
8826,68.0,0.0,90.0,11.0,0.0
8827,54.0,48.0,60.0,14.0,0.0
8828,61.0,0.0,180.0,12.0,0.0
8829,70.0,0.0,90.0,11.0,0.0
8830,42.0,48.0,60.0,14.0,0.0
8831,54.0,48.0,60.0,14.0,0.0
8832,66.0,48.0,90.0,11.0,0.0
8833,42.0,48.0,60.0,14.0,0.0
8834,54.0,0.0,60.0,14.0,0.0
8835,68.0,48.0,90.0,11.0,0.0
8836,37.0,48.0,60.0,14.0,0.0
8837,44.0,0.0,60.0,14.0,0.0
8838,49.0,24.0,60.0,14.0,0.0
8839,61.0,24.0,60.0,11.0,0.0
8840,53.0,48.0,60.0,14.0,0.0
8841,70.0,0.0,20.0,11.0,0.0
8842,82.0,0.0,90.0,11.0,0.0
8843,61.0,48.0,60.0,14.0,0.0
8844,65.0,48.0,60.0,14.0,0.0
8845,77.0,48.0,90.0,11.0,0.0
8846,61.0,48.0,60.0,14.0,0.0
8847,65.0,0.0,60.0,14.0,0.0
8848,57.0,48.0,60.0,14.0,0.0
8849,75.0,0.0,90.0,11.0,0.0
8850,65.0,0.0,390.0,12.0,0.0
8851,60.0,48.0,60.0,14.0,0.0
8852,72.0,48.0,90.0,11.0,0.0
8853,57.0,48.0,60.0,14.0,0.0
8854,60.0,0.0,60.0,14.0,0.0
8855,73.0,48.0,90.0,11.0,0.0
8856,58.0,48.0,60.0,14.0,0.0
8857,61.0,0.0,60.0,14.0,0.0
8858,58.0,48.0,60.0,14.0,0.0
8859,70.0,0.0,90.0,11.0,0.0
8860,61.0,48.0,60.0,14.0,0.0
8861,54.0,48.0,60.0,14.0,0.0
8862,75.0,48.0,90.0,11.0,0.0
8863,63.0,48.0,180.0,12.0,0.0
8864,58.0,0.0,60.0,14.0,0.0
8865,72.0,0.0,90.0,11.0,0.0
8866,54.0,48.0,60.0,14.0,0.0
8867,58.0,0.0,60.0,14.0,0.0
8868,53.0,48.0,60.0,14.0,0.0
8869,73.0,48.0,90.0,11.0,0.0
8870,65.0,0.0,180.0,12.0,0.0
8871,58.0,0.0,60.0,14.0,0.0
8872,53.0,48.0,60.0,14.0,0.0
8873,70.0,0.0,90.0,11.0,0.0
8874,58.0,48.0,60.0,14.0,0.0
8875,73.0,48.0,90.0,11.0,0.0
8876,52.0,48.0,60.0,14.0,0.0
8877,67.0,0.0,180.0,12.0,0.0
8878,58.0,0.0,60.0,14.0,0.0
8879,52.0,48.0,60.0,14.0,0.0
8880,70.0,48.0,90.0,11.0,0.0
8881,61.0,0.0,60.0,14.0,0.0
8882,65.0,0.0,180.0,12.0,0.0
8883,53.0,48.0,60.0,14.0,0.0
8884,69.0,0.0,180.0,11.0,0.0
8885,60.0,48.0,60.0,14.0,0.0
8886,53.0,48.0,60.0,14.0,0.0
8887,60.0,48.0,60.0,14.0,0.0
8888,61.0,0.0,90.0,12.0,0.0
8889,70.0,0.0,90.0,11.0,0.0
8890,37.0,48.0,60.0,14.0,0.0
8891,44.0,48.0,60.0,14.0,0.0
8892,49.0,48.0,60.0,14.0,0.0
8893,68.0,0.0,90.0,11.0,0.0
8894,59.0,0.0,90.0,12.0,0.0
8895,53.0,0.0,60.0,14.0,0.0
8896,73.0,0.0,570.0,11.0,0.0
8897,65.0,48.0,15.0,12.0,0.0
8898,59.0,48.0,90.0,14.0,0.0
8899,61.0,0.0,60.0,12.0,0.0
8900,56.0,0.0,90.0,14.0,0.0
8901,65.0,48.0,60.0,12.0,0.0
8902,61.0,48.0,60.0,12.0,0.0
8903,53.0,48.0,90.0,14.0,0.0
8904,68.0,48.0,60.0,12.0,0.0
8905,61.0,0.0,60.0,12.0,0.0
8906,65.0,48.0,60.0,12.0,0.0
8907,47.0,0.0,90.0,14.0,0.0
8908,61.0,48.0,60.0,12.0,0.0
8909,46.0,0.0,90.0,14.0,0.0
8910,66.0,48.0,60.0,12.0,0.0
8911,61.0,48.0,60.0,12.0,0.0
8912,49.0,0.0,90.0,14.0,0.0
8913,70.0,48.0,60.0,12.0,0.0
8914,61.0,48.0,60.0,12.0,0.0
8915,54.0,48.0,90.0,14.0,0.0
8916,78.0,0.0,90.0,11.0,0.0
8917,78.0,48.0,60.0,12.0,0.0
8918,66.0,0.0,60.0,12.0,0.0
8919,76.0,48.0,60.0,12.0,0.0
8920,58.0,0.0,90.0,14.0,0.0
8921,76.0,48.0,90.0,11.0,0.0
8922,66.0,0.0,60.0,12.0,0.0
8923,47.0,0.0,180.0,13.0,0.0
8924,59.0,48.0,90.0,14.0,0.0
8925,75.0,48.0,60.0,12.0,0.0
8926,75.0,0.0,90.0,11.0,0.0
8927,63.0,0.0,60.0,12.0,0.0
8928,66.0,48.0,60.0,12.0,0.0
8929,57.0,0.0,90.0,14.0,0.0
8930,66.0,0.0,90.0,11.0,0.0
8931,63.0,48.0,60.0,12.0,0.0
8932,80.0,0.0,90.0,11.0,0.0
8933,48.0,48.0,180.0,13.0,0.0
8934,80.0,48.0,60.0,12.0,0.0
8935,56.0,0.0,90.0,14.0,0.0
8936,68.0,48.0,60.0,12.0,0.0
8937,78.0,48.0,60.0,12.0,0.0
8938,51.0,0.0,90.0,14.0,0.0
8939,78.0,0.0,90.0,11.0,0.0
8940,68.0,0.0,60.0,12.0,0.0
8941,77.0,0.0,90.0,11.0,0.0
8942,61.0,0.0,90.0,14.0,0.0
8943,77.0,48.0,60.0,12.0,0.0
8944,49.0,0.0,180.0,13.0,0.0
8945,65.0,48.0,60.0,12.0,0.0
8946,59.0,0.0,90.0,14.0,0.0
8947,68.0,0.0,90.0,11.0,0.0
8948,68.0,48.0,60.0,12.0,0.0
8949,65.0,48.0,60.0,12.0,0.0
8950,58.0,48.0,90.0,14.0,0.0
8951,82.0,0.0,90.0,11.0,0.0
8952,82.0,48.0,60.0,12.0,0.0
8953,50.0,0.0,180.0,13.0,0.0
8954,70.0,0.0,60.0,12.0,0.0
8955,80.0,48.0,60.0,12.0,0.0
8956,53.0,48.0,90.0,14.0,0.0
8957,80.0,0.0,90.0,11.0,0.0
8958,70.0,0.0,60.0,12.0,0.0
8959,66.0,0.0,180.0,12.0,0.0
8960,51.0,48.0,180.0,13.0,0.0
8961,63.0,48.0,90.0,14.0,0.0
8962,78.0,48.0,60.0,11.0,0.0
8963,75.0,0.0,60.0,11.0,0.0
8964,58.0,0.0,90.0,14.0,0.0
8965,78.0,48.0,60.0,11.0,0.0
8966,75.0,0.0,60.0,11.0,0.0
8967,73.0,48.0,60.0,11.0,0.0
8968,53.0,48.0,180.0,13.0,0.0
8969,56.0,48.0,90.0,14.0,0.0
8970,68.0,0.0,60.0,11.0,0.0
8971,73.0,48.0,60.0,11.0,0.0
8972,59.0,0.0,90.0,14.0,0.0
8973,68.0,0.0,60.0,11.0,0.0
8974,61.0,0.0,15.0,12.0,0.0
8975,58.0,48.0,180.0,14.0,0.0
8976,70.0,48.0,90.0,11.0,0.0
8977,54.0,48.0,60.0,13.0,0.0
8978,52.0,0.0,60.0,13.0,0.0
8979,54.0,48.0,60.0,13.0,0.0
8980,66.0,0.0,90.0,11.0,0.0
8981,52.0,0.0,60.0,13.0,0.0
8982,51.0,0.0,90.0,13.0,0.0
8983,59.0,0.0,180.0,12.0,0.0
8984,71.0,48.0,60.0,11.0,0.0
8985,68.0,48.0,60.0,11.0,0.0
8986,71.0,48.0,60.0,11.0,0.0
8987,50.0,0.0,90.0,13.0,0.0
8988,68.0,0.0,60.0,11.0,0.0
8989,54.0,48.0,15.0,14.0,0.0
8990,49.0,0.0,180.0,13.0,0.0
8991,58.0,0.0,180.0,12.0,0.0
8992,70.0,0.0,90.0,11.0,0.0
8993,52.0,48.0,60.0,14.0,0.0
8994,66.0,48.0,90.0,11.0,0.0
8995,54.0,48.0,60.0,14.0,0.0
8996,52.0,0.0,60.0,14.0,0.0
8997,51.0,0.0,90.0,14.0,0.0
8998,47.0,96.0,180.0,13.0,0.0
8999,59.0,0.0,180.0,12.0,0.0
9000,71.0,48.0,60.0,11.0,0.0
9001,66.0,48.0,60.0,11.0,0.0
9002,50.0,0.0,90.0,14.0,0.0
9003,71.0,48.0,60.0,11.0,0.0
9004,66.0,0.0,60.0,11.0,0.0
9005,49.0,0.0,180.0,13.0,0.0
9006,42.0,48.0,150.0,14.0,0.0
9007,58.0,0.0,180.0,12.0,0.0
9008,70.0,48.0,90.0,11.0,0.0
9009,66.0,48.0,90.0,11.0,0.0
9010,44.0,0.0,60.0,14.0,0.0
9011,46.0,48.0,60.0,14.0,0.0
9012,49.0,48.0,60.0,14.0,0.0
9013,54.0,48.0,60.0,14.0,0.0
9014,58.0,48.0,60.0,14.0,0.0
9015,65.0,48.0,60.0,12.0,0.0
9016,59.0,0.0,90.0,14.0,0.0
9017,73.0,48.0,570.0,11.0,0.0
9018,61.0,48.0,60.0,12.0,0.0
9019,56.0,0.0,90.0,14.0,0.0
9020,65.0,48.0,60.0,12.0,0.0
9021,61.0,48.0,60.0,12.0,0.0
9022,53.0,0.0,90.0,14.0,0.0
9023,68.0,48.0,60.0,12.0,0.0
9024,61.0,48.0,60.0,12.0,0.0
9025,47.0,0.0,90.0,14.0,0.0
9026,65.0,48.0,60.0,12.0,0.0
9027,61.0,48.0,60.0,12.0,0.0
9028,46.0,48.0,90.0,14.0,0.0
9029,66.0,48.0,60.0,12.0,0.0
9030,61.0,0.0,60.0,12.0,0.0
9031,70.0,48.0,60.0,12.0,0.0
9032,49.0,0.0,90.0,14.0,0.0
9033,61.0,0.0,60.0,12.0,0.0
9034,78.0,48.0,60.0,12.0,0.0
9035,54.0,0.0,90.0,14.0,0.0
9036,78.0,0.0,90.0,11.0,0.0
9037,66.0,48.0,60.0,12.0,0.0
9038,58.0,0.0,90.0,14.0,0.0
9039,76.0,0.0,90.0,11.0,0.0
9040,76.0,48.0,60.0,12.0,0.0
9041,66.0,48.0,60.0,12.0,0.0
9042,75.0,48.0,60.0,12.0,0.0
9043,59.0,48.0,90.0,14.0,0.0
9044,75.0,0.0,90.0,11.0,0.0
9045,47.0,0.0,180.0,13.0,0.0
9046,63.0,0.0,60.0,12.0,0.0
9047,66.0,48.0,60.0,12.0,0.0
9048,66.0,0.0,90.0,11.0,0.0
9049,57.0,48.0,90.0,14.0,0.0
9050,63.0,0.0,60.0,12.0,0.0
9051,80.0,0.0,90.0,11.0,0.0
9052,80.0,48.0,60.0,12.0,0.0
9053,48.0,0.0,180.0,13.0,0.0
9054,56.0,0.0,90.0,14.0,0.0
9055,68.0,48.0,60.0,12.0,0.0
9056,51.0,0.0,90.0,14.0,0.0
9057,78.0,0.0,90.0,11.0,0.0
9058,78.0,48.0,60.0,12.0,0.0
9059,68.0,48.0,60.0,12.0,0.0
9060,61.0,0.0,90.0,14.0,0.0
9061,77.0,48.0,90.0,11.0,0.0
9062,77.0,48.0,60.0,12.0,0.0
9063,49.0,0.0,180.0,13.0,0.0
9064,65.0,0.0,60.0,12.0,0.0
9065,68.0,48.0,90.0,11.0,0.0
9066,59.0,0.0,90.0,14.0,0.0
9067,68.0,48.0,60.0,12.0,0.0
9068,65.0,0.0,60.0,12.0,0.0
9069,82.0,48.0,90.0,11.0,0.0
9070,50.0,0.0,180.0,13.0,0.0
9071,82.0,48.0,60.0,12.0,0.0
9072,58.0,0.0,90.0,14.0,0.0
9073,70.0,0.0,60.0,12.0,0.0
9074,53.0,0.0,90.0,14.0,0.0
9075,80.0,48.0,60.0,12.0,0.0
9076,80.0,48.0,90.0,11.0,0.0
9077,70.0,0.0,60.0,12.0,0.0
9078,78.0,48.0,60.0,11.0,0.0
9079,63.0,0.0,90.0,14.0,0.0
9080,51.0,0.0,180.0,13.0,0.0
9081,66.0,0.0,180.0,12.0,0.0
9082,75.0,48.0,60.0,11.0,0.0
9083,58.0,0.0,90.0,14.0,0.0
9084,78.0,48.0,60.0,11.0,0.0
9085,75.0,48.0,60.0,11.0,0.0
9086,61.0,0.0,180.0,12.0,0.0
9087,56.0,48.0,90.0,14.0,0.0
9088,53.0,48.0,180.0,13.0,0.0
9089,73.0,48.0,60.0,11.0,0.0
9090,68.0,0.0,60.0,11.0,0.0
9091,73.0,48.0,60.0,11.0,0.0
9092,59.0,0.0,90.0,14.0,0.0
9093,68.0,0.0,60.0,11.0,0.0
9094,61.0,0.0,180.0,12.0,0.0
9095,58.0,0.0,180.0,14.0,0.0
9096,70.0,48.0,90.0,11.0,0.0
9097,54.0,48.0,60.0,13.0,0.0
9098,52.0,0.0,60.0,13.0,0.0
9099,54.0,48.0,60.0,13.0,0.0
9100,66.0,0.0,90.0,11.0,0.0
9101,52.0,48.0,60.0,13.0,0.0
9102,71.0,48.0,60.0,11.0,0.0
9103,51.0,48.0,90.0,13.0,0.0
9104,59.0,0.0,180.0,12.0,0.0
9105,68.0,0.0,60.0,11.0,0.0
9106,71.0,48.0,60.0,11.0,0.0
9107,50.0,48.0,90.0,13.0,0.0
9108,68.0,0.0,60.0,11.0,0.0
9109,54.0,0.0,15.0,14.0,0.0
9110,58.0,0.0,180.0,12.0,0.0
9111,49.0,0.0,180.0,13.0,0.0
9112,70.0,0.0,90.0,11.0,0.0
9113,52.0,48.0,60.0,14.0,0.0
9114,66.0,0.0,90.0,11.0,0.0
9115,54.0,48.0,60.0,14.0,0.0
9116,52.0,48.0,60.0,14.0,0.0
9117,59.0,0.0,180.0,12.0,0.0
9118,71.0,48.0,60.0,11.0,0.0
9119,51.0,48.0,90.0,14.0,0.0
9120,47.0,0.0,180.0,13.0,0.0
9121,66.0,0.0,60.0,11.0,0.0
9122,71.0,48.0,60.0,11.0,0.0
9123,50.0,96.0,90.0,14.0,0.0
9124,66.0,0.0,60.0,11.0,0.0
9125,58.0,0.0,180.0,12.0,0.0
9126,49.0,48.0,180.0,13.0,0.0
9127,70.0,48.0,90.0,11.0,0.0
9128,42.0,48.0,150.0,14.0,0.0
9129,66.0,0.0,90.0,11.0,0.0
9130,34.0,0.0,60.0,14.0,0.0
9131,37.0,48.0,60.0,14.0,0.0
9132,42.0,48.0,60.0,14.0,0.0
9133,46.0,48.0,60.0,14.0,0.0
9134,49.0,96.0,60.0,14.0,0.0
9135,46.0,0.0,180.0,14.0,0.0
9136,54.0,0.0,180.0,13.0,0.0
9137,75.0,96.0,60.0,1.0,0.0
9138,73.0,96.0,90.0,1.0,0.0
9139,56.0,0.0,180.0,13.0,0.0
9140,49.0,96.0,180.0,14.0,0.0
9141,75.0,96.0,60.0,1.0,0.0
9142,73.0,0.0,90.0,1.0,0.0
9143,58.0,48.0,180.0,13.0,0.0
9144,54.0,0.0,180.0,14.0,0.0
9145,75.0,48.0,60.0,1.0,0.0
9146,73.0,48.0,60.0,1.0,0.0
9147,71.0,0.0,60.0,1.0,0.0
9148,70.0,48.0,60.0,1.0,0.0
9149,68.0,48.0,60.0,1.0,0.0
9150,51.0,0.0,90.0,14.0,0.0
9151,66.0,48.0,60.0,1.0,0.0
9152,54.0,48.0,90.0,13.0,0.0
9153,71.0,0.0,60.0,1.0,0.0
9154,69.0,48.0,60.0,1.0,0.0
9155,54.0,48.0,180.0,13.0,0.0
9156,70.0,48.0,60.0,1.0,0.0
9157,61.0,48.0,60.0,1.0,0.0
9158,70.0,0.0,60.0,1.0,0.0
9159,67.0,48.0,60.0,1.0,0.0
9160,49.0,0.0,15.0,14.0,0.0
9161,53.0,48.0,180.0,13.0,0.0
9162,68.0,48.0,60.0,1.0,0.0
9163,61.0,48.0,60.0,1.0,0.0
9164,68.0,0.0,60.0,1.0,0.0
9165,42.0,48.0,180.0,14.0,0.0
9166,54.0,0.0,180.0,13.0,0.0
9167,65.0,48.0,60.0,1.0,0.0
9168,66.0,48.0,60.0,1.0,0.0
9169,58.0,48.0,60.0,1.0,0.0
9170,61.0,0.0,60.0,1.0,0.0
9171,66.0,48.0,60.0,1.0,0.0
9172,70.0,48.0,60.0,1.0,0.0
9173,49.0,0.0,90.0,14.0,0.0
9174,56.0,0.0,90.0,13.0,0.0
9175,73.0,48.0,60.0,1.0,0.0
9176,77.0,96.0,60.0,1.0,0.0
9177,54.0,96.0,180.0,14.0,0.0
9178,58.0,0.0,180.0,13.0,0.0
9179,80.0,96.0,60.0,1.0,0.0
9180,78.0,0.0,90.0,1.0,0.0
9181,59.0,0.0,180.0,13.0,0.0
9182,56.0,96.0,180.0,14.0,0.0
9183,80.0,96.0,60.0,1.0,0.0
9184,78.0,0.0,90.0,1.0,0.0
9185,58.0,48.0,180.0,14.0,0.0
9186,61.0,0.0,180.0,13.0,0.0
9187,80.0,48.0,60.0,1.0,0.0
9188,78.0,48.0,60.0,1.0,0.0
9189,77.0,0.0,60.0,1.0,0.0
9190,76.0,48.0,60.0,1.0,0.0
9191,75.0,48.0,60.0,1.0,0.0
9192,74.0,48.0,60.0,1.0,0.0
9193,66.0,0.0,90.0,13.0,0.0
9194,59.0,48.0,90.0,14.0,0.0
9195,78.0,0.0,60.0,1.0,0.0
9196,58.0,48.0,90.0,14.0,0.0
9197,66.0,48.0,180.0,13.0,0.0
9198,74.0,48.0,60.0,1.0,0.0
9199,73.0,0.0,60.0,1.0,0.0
9200,72.0,48.0,60.0,1.0,0.0
9201,57.0,0.0,90.0,14.0,0.0
9202,78.0,0.0,60.0,1.0,0.0
9203,56.0,48.0,90.0,14.0,0.0
9204,71.0,48.0,60.0,1.0,0.0
9205,70.0,0.0,60.0,1.0,0.0
9206,69.0,48.0,60.0,1.0,0.0
9207,54.0,0.0,90.0,14.0,0.0
9208,78.0,0.0,60.0,1.0,0.0
9209,69.0,48.0,60.0,1.0,0.0
9210,53.0,0.0,90.0,14.0,0.0
9211,61.0,48.0,15.0,13.0,0.0
9212,67.0,48.0,60.0,1.0,0.0
9213,68.0,48.0,60.0,1.0,0.0
9214,49.0,48.0,90.0,14.0,0.0
9215,73.0,0.0,60.0,1.0,0.0
9216,71.0,48.0,60.0,1.0,0.0
9217,68.0,48.0,60.0,1.0,0.0
9218,65.0,48.0,60.0,1.0,0.0
9219,61.0,96.0,60.0,1.0,0.0
9220,54.0,0.0,180.0,13.0,0.0
9221,46.0,96.0,180.0,14.0,0.0
9222,75.0,96.0,60.0,1.0,0.0
9223,73.0,0.0,90.0,1.0,0.0
9224,49.0,96.0,180.0,14.0,0.0
9225,56.0,0.0,180.0,13.0,0.0
9226,75.0,96.0,60.0,1.0,0.0
9227,73.0,0.0,90.0,1.0,0.0
9228,58.0,48.0,180.0,13.0,0.0
9229,54.0,0.0,180.0,14.0,0.0
9230,75.0,48.0,60.0,1.0,0.0
9231,73.0,48.0,60.0,1.0,0.0
9232,71.0,0.0,60.0,1.0,0.0
9233,70.0,48.0,60.0,1.0,0.0
9234,68.0,48.0,60.0,1.0,0.0
9235,54.0,0.0,90.0,13.0,0.0
9236,66.0,48.0,60.0,1.0,0.0
9237,51.0,0.0,90.0,14.0,0.0
9238,71.0,48.0,60.0,1.0,0.0
9239,69.0,48.0,60.0,1.0,0.0
9240,54.0,0.0,180.0,13.0,0.0
9241,70.0,48.0,60.0,1.0,0.0
9242,61.0,48.0,60.0,1.0,0.0
9243,70.0,0.0,60.0,1.0,0.0
9244,49.0,48.0,15.0,14.0,0.0
9245,53.0,48.0,180.0,13.0,0.0
9246,67.0,48.0,60.0,1.0,0.0
9247,68.0,48.0,60.0,1.0,0.0
9248,61.0,48.0,60.0,1.0,0.0
9249,68.0,0.0,60.0,1.0,0.0
9250,54.0,48.0,180.0,13.0,0.0
9251,42.0,0.0,180.0,14.0,0.0
9252,65.0,48.0,60.0,1.0,0.0
9253,66.0,48.0,60.0,1.0,0.0
9254,58.0,48.0,60.0,1.0,0.0
9255,61.0,0.0,60.0,1.0,0.0
9256,66.0,48.0,60.0,1.0,0.0
9257,70.0,48.0,60.0,1.0,0.0
9258,56.0,96.0,90.0,13.0,0.0
9259,49.0,0.0,90.0,14.0,0.0
9260,73.0,48.0,60.0,1.0,0.0
9261,77.0,0.0,60.0,1.0,0.0
9262,54.0,0.0,180.0,14.0,0.0
9263,58.0,96.0,180.0,13.0,0.0
9264,80.0,96.0,60.0,1.0,0.0
9265,78.0,0.0,90.0,1.0,0.0
9266,59.0,0.0,180.0,13.0,0.0
9267,56.0,0.0,180.0,14.0,0.0
9268,80.0,96.0,60.0,1.0,0.0
9269,78.0,96.0,90.0,1.0,0.0
9270,58.0,0.0,180.0,14.0,0.0
9271,61.0,0.0,180.0,13.0,0.0
9272,80.0,48.0,60.0,1.0,0.0
9273,78.0,48.0,60.0,1.0,0.0
9274,77.0,48.0,60.0,1.0,0.0
9275,76.0,48.0,60.0,1.0,0.0
9276,75.0,48.0,60.0,1.0,0.0
9277,74.0,48.0,60.0,1.0,0.0
9278,59.0,48.0,90.0,14.0,0.0
9279,78.0,0.0,60.0,1.0,0.0
9280,66.0,0.0,15.0,13.0,0.0
9281,58.0,48.0,90.0,14.0,0.0
9282,74.0,48.0,60.0,1.0,0.0
9283,73.0,0.0,60.0,1.0,0.0
9284,72.0,48.0,60.0,1.0,0.0
9285,57.0,48.0,90.0,14.0,0.0
9286,78.0,0.0,60.0,1.0,0.0
9287,61.0,48.0,180.0,13.0,0.0
9288,56.0,0.0,90.0,14.0,0.0
9289,71.0,48.0,60.0,1.0,0.0
9290,70.0,48.0,60.0,1.0,0.0
9291,54.0,0.0,90.0,14.0,0.0
9292,69.0,48.0,60.0,1.0,0.0
9293,78.0,0.0,60.0,1.0,0.0
9294,69.0,48.0,60.0,1.0,0.0
9295,53.0,48.0,90.0,14.0,0.0
9296,61.0,0.0,180.0,13.0,0.0
9297,67.0,0.0,60.0,1.0,0.0
9298,49.0,0.0,90.0,14.0,0.0
9299,68.0,48.0,60.0,1.0,0.0
9300,73.0,48.0,60.0,1.0,0.0
9301,71.0,48.0,60.0,1.0,0.0
9302,68.0,48.0,60.0,1.0,0.0
9303,65.0,48.0,60.0,1.0,0.0
9304,61.0,96.0,60.0,1.0,0.0
9305,49.0,96.0,180.0,14.0,0.0
9306,56.0,0.0,180.0,13.0,0.0
9307,74.0,96.0,60.0,1.0,0.0
9308,73.0,0.0,90.0,1.0,0.0
9309,57.0,0.0,180.0,13.0,0.0
9310,54.0,96.0,180.0,14.0,0.0
9311,74.0,96.0,60.0,1.0,0.0
9312,73.0,0.0,90.0,1.0,0.0
9313,56.0,0.0,180.0,13.0,0.0
9314,49.0,0.0,180.0,14.0,0.0
9315,74.0,48.0,60.0,1.0,0.0
9316,73.0,48.0,60.0,1.0,0.0
9317,72.0,48.0,60.0,1.0,0.0
9318,71.0,48.0,60.0,1.0,0.0
9319,70.0,48.0,60.0,1.0,0.0
9320,69.0,48.0,60.0,1.0,0.0
9321,42.0,0.0,90.0,14.0,0.0
9322,49.0,0.0,90.0,13.0,0.0
9323,68.0,48.0,60.0,1.0,0.0
9324,66.0,48.0,60.0,1.0,0.0
9325,47.0,0.0,180.0,14.0,0.0
9326,50.0,48.0,180.0,13.0,0.0
9327,67.0,48.0,60.0,1.0,0.0
9328,71.0,48.0,60.0,1.0,0.0
9329,67.0,0.0,60.0,1.0,0.0
9330,69.0,48.0,60.0,1.0,0.0
9331,52.0,0.0,180.0,13.0,0.0
9332,49.0,0.0,180.0,14.0,0.0
9333,70.0,48.0,60.0,1.0,0.0
9334,73.0,48.0,60.0,1.0,0.0
9335,54.0,0.0,180.0,13.0,0.0
9336,50.0,0.0,180.0,14.0,0.0
9337,70.0,48.0,15.0,1.0,0.0
9338,71.0,48.0,60.0,1.0,0.0
9339,74.0,48.0,60.0,1.0,0.0
9340,71.0,48.0,60.0,1.0,0.0
9341,74.0,48.0,60.0,1.0,0.0
9342,72.0,48.0,60.0,1.0,0.0
9343,56.0,0.0,90.0,13.0,0.0
9344,53.0,0.0,90.0,14.0,0.0
9345,74.0,48.0,60.0,1.0,0.0
9346,73.0,48.0,60.0,1.0,0.0
9347,58.0,0.0,180.0,13.0,0.0
9348,75.0,48.0,60.0,1.0,0.0
9349,54.0,48.0,180.0,14.0,0.0
9350,73.0,48.0,60.0,1.0,0.0
9351,75.0,48.0,60.0,1.0,0.0
9352,73.0,0.0,60.0,1.0,0.0
9353,53.0,0.0,180.0,14.0,0.0
9354,56.0,0.0,180.0,13.0,0.0
9355,59.0,48.0,180.0,13.0,0.0
9356,75.0,48.0,60.0,1.0,0.0
9357,73.0,48.0,60.0,1.0,0.0
9358,75.0,48.0,60.0,1.0,0.0
9359,73.0,0.0,60.0,1.0,0.0
9360,52.0,48.0,180.0,14.0,0.0
9361,80.0,48.0,60.0,1.0,0.0
9362,61.0,0.0,180.0,13.0,0.0
9363,54.0,0.0,180.0,14.0,0.0
9364,58.0,0.0,180.0,13.0,0.0
9365,78.0,48.0,60.0,1.0,0.0
9366,80.0,48.0,60.0,1.0,0.0
9367,78.0,0.0,60.0,1.0,0.0
9368,80.0,48.0,60.0,1.0,0.0
9369,51.0,48.0,150.0,14.0,0.0
9370,54.0,0.0,150.0,14.0,0.0
9371,78.0,48.0,60.0,1.0,0.0
9372,80.0,48.0,60.0,1.0,0.0
9373,59.0,0.0,90.0,13.0,0.0
9374,63.0,0.0,90.0,13.0,0.0
9375,78.0,0.0,60.0,1.0,0.0
9376,47.0,0.0,180.0,14.0,0.0
9377,77.0,48.0,60.0,1.0,0.0
9378,56.0,48.0,180.0,13.0,0.0
9379,76.0,48.0,60.0,1.0,0.0
9380,75.0,48.0,60.0,1.0,0.0
9381,74.0,0.0,60.0,1.0,0.0
9382,53.0,48.0,180.0,13.0,0.0
9383,49.0,0.0,180.0,14.0,0.0
9384,73.0,48.0,60.0,1.0,0.0
9385,72.0,48.0,60.0,1.0,0.0
9386,71.0,48.0,60.0,1.0,0.0
9387,68.0,0.0,60.0,1.0,0.0
9388,54.0,0.0,180.0,14.0,0.0
9389,42.0,0.0,180.0,14.0,0.0
9390,65.0,48.0,60.0,1.0,0.0
9391,54.0,0.0,180.0,13.0,0.0
9392,66.0,48.0,60.0,1.0,0.0
9393,61.0,48.0,60.0,1.0,0.0
9394,58.0,48.0,60.0,1.0,0.0
9395,54.0,48.0,60.0,1.0,0.0
9396,58.0,48.0,60.0,1.0,0.0
9397,61.0,48.0,60.0,1.0,0.0
9398,66.0,96.0,60.0,1.0,0.0
9399,49.0,0.0,180.0,14.0,0.0
9400,56.0,0.0,180.0,13.0,0.0
9401,74.0,96.0,60.0,1.0,0.0
9402,73.0,96.0,90.0,1.0,0.0
9403,54.0,96.0,180.0,14.0,0.0
9404,57.0,0.0,180.0,13.0,0.0
9405,74.0,96.0,60.0,1.0,0.0
9406,73.0,0.0,90.0,1.0,0.0
9407,56.0,0.0,180.0,13.0,0.0
9408,49.0,48.0,180.0,14.0,0.0
9409,74.0,48.0,60.0,1.0,0.0
9410,73.0,48.0,60.0,1.0,0.0
9411,72.0,0.0,60.0,1.0,0.0
9412,71.0,48.0,60.0,1.0,0.0
9413,70.0,48.0,60.0,1.0,0.0
9414,69.0,48.0,60.0,1.0,0.0
9415,42.0,48.0,90.0,14.0,0.0
9416,49.0,0.0,90.0,13.0,0.0
9417,68.0,0.0,60.0,1.0,0.0
9418,50.0,48.0,180.0,13.0,0.0
9419,47.0,0.0,180.0,14.0,0.0
9420,66.0,48.0,60.0,1.0,0.0
9421,67.0,48.0,60.0,1.0,0.0
9422,71.0,48.0,60.0,1.0,0.0
9423,67.0,0.0,60.0,1.0,0.0
9424,69.0,48.0,60.0,1.0,0.0
9425,52.0,48.0,180.0,13.0,0.0
9426,49.0,0.0,180.0,14.0,0.0
9427,70.0,48.0,60.0,1.0,0.0
9428,73.0,48.0,60.0,1.0,0.0
9429,70.0,0.0,15.0,1.0,0.0
9430,50.0,48.0,180.0,14.0,0.0
9431,54.0,0.0,180.0,13.0,0.0
9432,71.0,48.0,60.0,1.0,0.0
9433,74.0,48.0,60.0,1.0,0.0
9434,71.0,0.0,60.0,1.0,0.0
9435,74.0,48.0,60.0,1.0,0.0
9436,72.0,48.0,60.0,1.0,0.0
9437,74.0,48.0,60.0,1.0,0.0
9438,53.0,0.0,90.0,14.0,0.0
9439,56.0,0.0,90.0,13.0,0.0
9440,73.0,48.0,60.0,1.0,0.0
9441,58.0,0.0,180.0,13.0,0.0
9442,54.0,48.0,180.0,14.0,0.0
9443,75.0,48.0,60.0,1.0,0.0
9444,73.0,48.0,60.0,1.0,0.0
9445,75.0,48.0,60.0,1.0,0.0
9446,73.0,0.0,60.0,1.0,0.0
9447,75.0,48.0,60.0,1.0,0.0
9448,53.0,0.0,180.0,14.0,0.0
9449,59.0,0.0,180.0,13.0,0.0
9450,56.0,48.0,180.0,13.0,0.0
9451,73.0,48.0,60.0,1.0,0.0
9452,75.0,48.0,60.0,1.0,0.0
9453,73.0,0.0,60.0,1.0,0.0
9454,58.0,0.0,180.0,13.0,0.0
9455,54.0,0.0,180.0,14.0,0.0
9456,52.0,0.0,180.0,14.0,0.0
9457,80.0,48.0,60.0,1.0,0.0
9458,61.0,0.0,180.0,13.0,0.0
9459,78.0,48.0,60.0,1.0,0.0
9460,80.0,48.0,60.0,1.0,0.0
9461,78.0,48.0,60.0,1.0,0.0
9462,80.0,48.0,60.0,1.0,0.0
9463,54.0,0.0,150.0,14.0,0.0
9464,78.0,48.0,60.0,1.0,0.0
9465,51.0,0.0,150.0,14.0,0.0
9466,59.0,0.0,90.0,13.0,0.0
9467,80.0,48.0,60.0,1.0,0.0
9468,63.0,0.0,90.0,13.0,0.0
9469,78.0,48.0,60.0,1.0,0.0
9470,47.0,0.0,180.0,14.0,0.0
9471,56.0,48.0,180.0,13.0,0.0
9472,77.0,48.0,60.0,1.0,0.0
9473,76.0,48.0,60.0,1.0,0.0
9474,75.0,48.0,60.0,1.0,0.0
9475,74.0,0.0,60.0,1.0,0.0
9476,73.0,48.0,60.0,1.0,0.0
9477,49.0,0.0,180.0,14.0,0.0
9478,53.0,0.0,180.0,13.0,0.0
9479,72.0,48.0,60.0,1.0,0.0
9480,71.0,48.0,60.0,1.0,0.0
9481,68.0,48.0,60.0,1.0,0.0
9482,54.0,96.0,180.0,13.0,0.0
9483,54.0,0.0,180.0,14.0,0.0
9484,42.0,0.0,180.0,14.0,0.0
9485,65.0,48.0,60.0,1.0,0.0
9486,66.0,48.0,60.0,1.0,0.0
9487,61.0,48.0,60.0,1.0,0.0
9488,58.0,0.0,60.0,1.0,0.0
9489,54.0,180.0,90.0,1.0,0.0
9490,45.0,0.0,180.0,13.0,0.0
9491,45.0,0.0,180.0,2.0,0.0
9492,54.0,0.0,180.0,11.0,0.0
9493,54.0,0.0,180.0,12.0,0.0
9494,54.0,0.0,180.0,2.0,0.0
9495,66.0,32.0,150.0,10.0,0.0
9496,54.0,16.0,330.0,10.0,0.0
9497,42.0,0.0,120.0,14.0,0.0
9498,42.0,12.0,15.0,8.0,0.0
9499,30.0,0.0,120.0,3.0,0.0
9500,30.0,0.0,120.0,15.0,0.0
9501,42.0,64.0,15.0,8.0,0.0
9502,45.0,0.0,90.0,4.0,0.0
9503,54.0,0.0,90.0,4.0,0.0
9504,42.0,0.0,90.0,7.0,0.0
9505,42.0,0.0,90.0,4.0,0.0
9506,49.0,0.0,90.0,4.0,0.0
9507,42.0,0.0,90.0,3.0,0.0
9508,45.0,84.0,90.0,3.0,0.0
9509,66.0,32.0,150.0,10.0,0.0
9510,49.0,0.0,90.0,13.0,0.0
9511,57.0,0.0,90.0,12.0,0.0
9512,57.0,48.0,90.0,11.0,0.0
9513,57.0,0.0,90.0,2.0,0.0
9514,49.0,0.0,90.0,2.0,0.0
9515,25.0,0.0,120.0,15.0,0.0
9516,25.0,0.0,120.0,3.0,0.0
9517,37.0,0.0,120.0,14.0,0.0
9518,37.0,12.0,15.0,8.0,0.0
9519,44.0,0.0,90.0,3.0,0.0
9520,37.0,0.0,90.0,3.0,0.0
9521,37.0,0.0,90.0,7.0,0.0
9522,56.0,0.0,90.0,2.0,0.0
9523,47.0,0.0,90.0,13.0,0.0
9524,53.0,0.0,90.0,4.0,0.0
9525,56.0,0.0,90.0,12.0,0.0
9526,47.0,0.0,90.0,2.0,0.0
9527,44.0,0.0,90.0,4.0,0.0
9528,37.0,0.0,90.0,8.0,0.0
9529,49.0,0.0,90.0,4.0,0.0
9530,56.0,0.0,15.0,11.0,0.0
9531,56.0,96.0,90.0,2.0,0.0
9532,56.0,0.0,90.0,12.0,0.0
9533,47.0,0.0,90.0,2.0,0.0
9534,61.0,16.0,330.0,10.0,0.0
9535,47.0,0.0,90.0,13.0,0.0
9536,54.0,0.0,330.0,10.0,0.0
9537,30.0,0.0,120.0,3.0,0.0
9538,30.0,0.0,120.0,15.0,0.0
9539,42.0,0.0,120.0,14.0,0.0
9540,42.0,12.0,15.0,8.0,0.0
9541,45.0,0.0,90.0,13.0,0.0
9542,54.0,0.0,90.0,12.0,0.0
9543,54.0,0.0,90.0,11.0,0.0
9544,45.0,0.0,90.0,2.0,0.0
9545,49.0,48.0,90.0,4.0,0.0
9546,42.0,0.0,90.0,4.0,0.0
9547,42.0,0.0,15.0,8.0,0.0
9548,42.0,0.0,90.0,7.0,0.0
9549,42.0,0.0,90.0,3.0,0.0
9550,45.0,0.0,90.0,3.0,0.0
9551,45.0,0.0,90.0,4.0,0.0
9552,54.0,0.0,90.0,4.0,0.0
9553,54.0,0.0,90.0,2.0,0.0
9554,56.0,36.0,60.0,11.0,0.0
9555,47.0,0.0,60.0,2.0,0.0
9556,56.0,0.0,60.0,2.0,0.0
9557,56.0,0.0,60.0,12.0,0.0
9558,47.0,0.0,60.0,13.0,0.0
9559,57.0,0.0,60.0,2.0,0.0
9560,49.0,0.0,60.0,13.0,0.0
9561,57.0,0.0,60.0,12.0,0.0
9562,57.0,0.0,60.0,11.0,0.0
9563,49.0,32.0,60.0,2.0,0.0
9564,42.0,0.0,120.0,14.0,0.0
9565,23.0,0.0,120.0,15.0,0.0
9566,23.0,0.0,120.0,3.0,0.0
9567,42.0,12.0,15.0,8.0,0.0
9568,59.0,0.0,30.0,12.0,0.0
9569,42.0,0.0,90.0,3.0,0.0
9570,42.0,0.0,90.0,4.0,0.0
9571,59.0,0.0,30.0,11.0,0.0
9572,50.0,0.0,30.0,2.0,0.0
9573,59.0,16.0,30.0,2.0,0.0
9574,42.0,0.0,90.0,8.0,0.0
9575,50.0,0.0,30.0,13.0,0.0
9576,47.0,0.0,90.0,4.0,0.0
9577,35.0,84.0,90.0,7.0,0.0
9578,35.0,0.0,90.0,3.0,0.0
9579,57.0,0.0,30.0,12.0,0.0
9580,57.0,0.0,30.0,11.0,0.0
9581,49.0,0.0,30.0,13.0,0.0
9582,57.0,0.0,30.0,2.0,0.0
9583,49.0,32.0,30.0,2.0,0.0
9584,47.0,0.0,30.0,13.0,0.0
9585,47.0,0.0,30.0,2.0,0.0
9586,56.0,0.0,30.0,12.0,0.0
9587,56.0,0.0,15.0,11.0,0.0
9588,56.0,0.0,15.0,2.0,0.0
9589,47.0,0.0,90.0,2.0,0.0
9590,56.0,24.0,90.0,12.0,0.0
9591,47.0,0.0,90.0,13.0,0.0
9592,42.0,0.0,120.0,14.0,0.0
9593,37.0,12.0,15.0,8.0,0.0
9594,25.0,0.0,120.0,15.0,0.0
9595,25.0,0.0,120.0,3.0,0.0
9596,37.0,0.0,15.0,8.0,0.0
9597,37.0,0.0,90.0,7.0,0.0
9598,54.0,24.0,20.0,11.0,0.0
9599,45.0,0.0,90.0,13.0,0.0
9600,54.0,0.0,20.0,2.0,0.0
9601,42.0,0.0,90.0,3.0,0.0
9602,37.0,0.0,90.0,8.0,0.0
9603,45.0,0.0,90.0,2.0,0.0
9604,49.0,0.0,90.0,4.0,0.0
9605,37.0,24.0,90.0,3.0,0.0
9606,42.0,0.0,90.0,4.0,0.0
9607,54.0,0.0,20.0,12.0,0.0
9608,56.0,0.0,20.0,12.0,0.0
9609,56.0,24.0,20.0,11.0,0.0
9610,56.0,0.0,20.0,2.0,0.0
9611,54.0,0.0,20.0,12.0,0.0
9612,54.0,0.0,20.0,2.0,0.0
9613,54.0,24.0,20.0,11.0,0.0
9614,53.0,0.0,20.0,2.0,0.0
9615,53.0,0.0,20.0,11.0,0.0
9616,53.0,0.0,20.0,12.0,0.0
9617,54.0,84.0,20.0,11.0,0.0
9618,54.0,0.0,20.0,12.0,0.0
9619,54.0,0.0,20.0,2.0,0.0
9620,47.0,0.0,90.0,13.0,0.0
9621,56.0,0.0,90.0,12.0,0.0
9622,56.0,0.0,90.0,11.0,0.0
9623,56.0,0.0,90.0,2.0,0.0
9624,47.0,0.0,90.0,2.0,0.0
9625,44.0,0.0,120.0,14.0,0.0
9626,25.0,0.0,120.0,3.0,0.0
9627,37.0,12.0,15.0,8.0,0.0
9628,25.0,0.0,120.0,15.0,0.0
9629,44.0,0.0,90.0,4.0,0.0
9630,53.0,0.0,90.0,12.0,0.0
9631,44.0,0.0,90.0,2.0,0.0
9632,37.0,0.0,90.0,3.0,0.0
9633,37.0,96.0,15.0,8.0,0.0
9634,44.0,0.0,90.0,13.0,0.0
9635,49.0,0.0,90.0,4.0,0.0
9636,44.0,0.0,90.0,3.0,0.0
9637,53.0,0.0,90.0,11.0,0.0
9638,37.0,0.0,90.0,7.0,0.0
9639,53.0,0.0,90.0,2.0,0.0
9640,54.0,0.0,180.0,2.0,0.0
9641,45.0,0.0,180.0,2.0,0.0
9642,45.0,0.0,180.0,13.0,0.0
9643,54.0,0.0,180.0,12.0,0.0
9644,54.0,84.0,180.0,11.0,0.0
9645,42.0,12.0,15.0,8.0,0.0
9646,42.0,0.0,120.0,14.0,0.0
9647,30.0,0.0,120.0,15.0,0.0
9648,54.0,0.0,90.0,4.0,0.0
9649,42.0,96.0,15.0,8.0,0.0
9650,30.0,0.0,90.0,3.0,0.0
9651,42.0,0.0,90.0,7.0,0.0
9652,42.0,0.0,90.0,4.0,0.0
9653,42.0,0.0,90.0,3.0,0.0
9654,50.0,0.0,180.0,12.0,0.0
9655,47.0,0.0,180.0,13.0,0.0
9656,56.0,84.0,180.0,2.0,0.0
9657,50.0,0.0,180.0,2.0,0.0
9658,56.0,0.0,180.0,11.0,0.0
9659,40.0,0.0,120.0,14.0,0.0
9660,28.0,0.0,120.0,3.0,0.0
9661,44.0,12.0,15.0,8.0,0.0
9662,28.0,0.0,120.0,15.0,0.0
9663,44.0,96.0,15.0,8.0,0.0
9664,40.0,0.0,90.0,7.0,0.0
9665,40.0,0.0,90.0,4.0,0.0
9666,44.0,0.0,90.0,8.0,0.0
9667,52.0,0.0,90.0,4.0,0.0
9668,40.0,0.0,90.0,3.0,0.0
9669,52.0,0.0,180.0,2.0,0.0
9670,57.0,0.0,180.0,11.0,0.0
9671,49.0,84.0,180.0,13.0,0.0
9672,57.0,0.0,180.0,2.0,0.0
9673,52.0,0.0,180.0,12.0,0.0
9674,33.0,0.0,120.0,3.0,0.0
9675,33.0,0.0,120.0,15.0,0.0
9676,45.0,0.0,120.0,14.0,0.0
9677,37.0,12.0,15.0,8.0,0.0
9678,37.0,96.0,15.0,8.0,0.0
9679,37.0,0.0,90.0,8.0,0.0
9680,40.0,0.0,90.0,3.0,0.0
9681,45.0,0.0,90.0,4.0,0.0
9682,45.0,0.0,90.0,7.0,0.0
9683,52.0,0.0,90.0,4.0,0.0
9684,57.0,0.0,90.0,4.0,0.0
9685,49.0,0.0,90.0,4.0,0.0
9686,45.0,0.0,90.0,3.0,0.0
9687,61.0,0.0,90.0,11.0,0.0
9688,61.0,96.0,90.0,12.0,0.0
9689,52.0,0.0,90.0,2.0,0.0
9690,61.0,0.0,90.0,2.0,0.0
9691,52.0,0.0,90.0,13.0,0.0
9692,40.0,0.0,120.0,14.0,0.0
9693,44.0,12.0,15.0,8.0,0.0
9694,28.0,0.0,120.0,15.0,0.0
9695,28.0,0.0,120.0,3.0,0.0
9696,52.0,0.0,90.0,4.0,0.0
9697,40.0,0.0,90.0,3.0,0.0
9698,44.0,0.0,15.0,8.0,0.0
9699,40.0,84.0,90.0,7.0,0.0
9700,40.0,0.0,90.0,4.0,0.0
9701,59.0,0.0,15.0,12.0,0.0
9702,59.0,0.0,15.0,11.0,0.0
9703,59.0,0.0,15.0,2.0,0.0
9704,50.0,0.0,15.0,13.0,0.0
9705,50.0,0.0,15.0,2.0,0.0
9706,33.0,0.0,120.0,15.0,0.0
9707,45.0,0.0,120.0,14.0,0.0
9708,37.0,12.0,15.0,8.0,0.0
9709,33.0,0.0,120.0,3.0,0.0
9710,37.0,0.0,15.0,8.0,0.0
9711,49.0,64.0,90.0,13.0,0.0
9712,40.0,0.0,90.0,3.0,0.0
9713,45.0,0.0,90.0,3.0,0.0
9714,57.0,0.0,90.0,12.0,0.0
9715,57.0,0.0,90.0,11.0,0.0
9716,45.0,0.0,90.0,7.0,0.0
9717,37.0,0.0,90.0,8.0,0.0
9718,57.0,0.0,90.0,2.0,0.0
9719,57.0,0.0,90.0,4.0,0.0
9720,49.0,0.0,90.0,2.0,0.0
9721,45.0,0.0,90.0,4.0,0.0
9722,52.0,0.0,90.0,4.0,0.0
9723,54.0,0.0,60.0,13.0,0.0
9724,62.0,44.0,60.0,2.0,0.0
9725,62.0,0.0,60.0,11.0,0.0
9726,62.0,0.0,60.0,12.0,0.0
9727,54.0,0.0,60.0,2.0,0.0
9728,52.0,0.0,60.0,13.0,0.0
9729,61.0,0.0,60.0,2.0,0.0
9730,61.0,64.0,60.0,11.0,0.0
9731,61.0,0.0,60.0,12.0,0.0
9732,52.0,0.0,60.0,2.0,0.0
9733,26.0,0.0,120.0,3.0,0.0
9734,26.0,0.0,120.0,15.0,0.0
9735,38.0,0.0,120.0,14.0,0.0
9736,38.0,0.0,90.0,3.0,0.0
9737,50.0,0.0,90.0,4.0,0.0
9738,38.0,0.0,90.0,7.0,0.0
9739,42.0,12.0,15.0,8.0,0.0
9740,42.0,8.0,15.0,8.0,0.0
9741,42.0,84.0,60.0,8.0,0.0
9742,59.0,0.0,60.0,12.0,0.0
9743,50.0,0.0,60.0,13.0,0.0
9744,59.0,0.0,60.0,11.0,0.0
9745,59.0,0.0,60.0,2.0,0.0
9746,50.0,0.0,60.0,2.0,0.0
9747,62.0,0.0,90.0,11.0,0.0
9748,62.0,0.0,90.0,2.0,0.0
9749,62.0,0.0,90.0,12.0,0.0
9750,54.0,0.0,90.0,2.0,0.0
9751,54.0,0.0,90.0,13.0,0.0
9752,45.0,0.0,120.0,14.0,0.0
9753,33.0,0.0,120.0,15.0,0.0
9754,44.0,12.0,15.0,8.0,0.0
9755,61.0,0.0,90.0,11.0,0.0
9756,45.0,0.0,90.0,4.0,0.0
9757,61.0,0.0,90.0,12.0,0.0
9758,52.0,0.0,90.0,2.0,0.0
9759,61.0,0.0,90.0,2.0,0.0
9760,33.0,0.0,90.0,3.0,0.0
9761,57.0,0.0,90.0,4.0,0.0
9762,45.0,0.0,90.0,3.0,0.0
9763,52.0,0.0,90.0,13.0,0.0
9764,44.0,0.0,90.0,8.0,0.0
9765,45.0,0.0,90.0,7.0,0.0
9766,59.0,0.0,90.0,2.0,0.0
9767,59.0,0.0,90.0,12.0,0.0
9768,56.0,0.0,90.0,13.0,0.0
9769,59.0,0.0,90.0,11.0,0.0
9770,56.0,0.0,90.0,2.0,0.0
9771,30.0,0.0,120.0,15.0,0.0
9772,30.0,0.0,120.0,3.0,0.0
9773,42.0,0.0,120.0,14.0,0.0
9774,37.0,12.0,15.0,8.0,0.0
9775,57.0,0.0,90.0,12.0,0.0
9776,42.0,0.0,90.0,4.0,0.0
9777,37.0,0.0,90.0,3.0,0.0
9778,54.0,0.0,90.0,13.0,0.0
9779,37.0,96.0,15.0,8.0,0.0
9780,54.0,0.0,90.0,2.0,0.0
9781,42.0,0.0,90.0,7.0,0.0
9782,57.0,0.0,90.0,2.0,0.0
9783,42.0,0.0,90.0,3.0,0.0
9784,57.0,0.0,90.0,11.0,0.0
9785,49.0,0.0,90.0,4.0,0.0
9786,54.0,0.0,90.0,4.0,0.0
9787,56.0,0.0,180.0,2.0,0.0
9788,56.0,0.0,240.0,12.0,0.0
9789,53.0,0.0,180.0,2.0,0.0
9790,53.0,36.0,240.0,13.0,0.0
9791,56.0,0.0,240.0,11.0,0.0
9792,49.0,0.0,120.0,14.0,0.0
9793,37.0,0.0,120.0,3.0,0.0
9794,37.0,48.0,120.0,15.0,0.0
9795,44.0,12.0,15.0,8.0,0.0
9796,49.0,0.0,90.0,3.0,0.0
9797,44.0,0.0,90.0,3.0,0.0
9798,49.0,0.0,90.0,7.0,0.0
9799,56.0,0.0,90.0,4.0,0.0
9800,53.0,0.0,90.0,4.0,0.0
9801,61.0,0.0,90.0,4.0,0.0
9802,49.0,0.0,90.0,4.0,0.0
9803,44.0,96.0,15.0,8.0,0.0
9804,25.0,0.0,120.0,15.0,0.0
9805,37.0,0.0,120.0,14.0,0.0
9806,25.0,0.0,120.0,3.0,0.0
9807,37.0,12.0,15.0,8.0,0.0
9808,56.0,0.0,90.0,4.0,0.0
9809,37.0,0.0,90.0,7.0,0.0
9810,49.0,0.0,90.0,4.0,0.0
9811,53.0,0.0,90.0,4.0,0.0
9812,37.0,24.0,15.0,8.0,0.0
9813,61.0,0.0,90.0,4.0,0.0
9814,37.0,0.0,90.0,3.0,0.0
9815,32.0,24.0,90.0,3.0,0.0
9816,61.0,24.0,20.0,11.0,0.0
9817,60.0,24.0,20.0,11.0,0.0
9818,61.0,24.0,20.0,11.0,0.0
9819,62.0,0.0,20.0,11.0,0.0
9820,65.0,84.0,20.0,11.0,0.0
9821,57.0,0.0,180.0,12.0,0.0
9822,66.0,0.0,180.0,11.0,0.0
9823,66.0,0.0,180.0,2.0,0.0
9824,66.0,32.0,150.0,10.0,0.0
9825,57.0,0.0,180.0,2.0,0.0
9826,66.0,0.0,180.0,1.0,0.0
9827,57.0,84.0,180.0,1.0,0.0
9828,54.0,16.0,330.0,10.0,0.0
9829,45.0,0.0,120.0,3.0,0.0
9830,42.0,0.0,120.0,3.0,0.0
9831,49.0,0.0,120.0,3.0,0.0
9832,54.0,0.0,120.0,14.0,0.0
9833,42.0,0.0,120.0,15.0,0.0
9834,42.0,12.0,15.0,8.0,0.0
9835,57.0,0.0,90.0,6.0,0.0
9836,42.0,64.0,15.0,8.0,0.0
9837,54.0,0.0,90.0,2.0,0.0
9838,54.0,0.0,90.0,6.0,0.0
9839,49.0,0.0,90.0,6.0,0.0
9840,54.0,0.0,90.0,7.0,0.0
9841,61.0,0.0,90.0,12.0,0.0
9842,69.0,0.0,90.0,11.0,0.0
9843,66.0,32.0,150.0,10.0,0.0
9844,61.0,0.0,90.0,1.0,0.0
9845,69.0,0.0,90.0,1.0,0.0
9846,69.0,0.0,90.0,2.0,0.0
9847,61.0,0.0,90.0,2.0,0.0
9848,37.0,0.0,120.0,15.0,0.0
9849,37.0,0.0,120.0,3.0,0.0
9850,49.0,84.0,120.0,14.0,0.0
9851,49.0,0.0,120.0,3.0,0.0
9852,44.0,0.0,120.0,3.0,0.0
9853,37.0,12.0,15.0,8.0,0.0
9854,68.0,0.0,90.0,1.0,0.0
9855,49.0,0.0,90.0,6.0,0.0
9856,49.0,0.0,90.0,7.0,0.0
9857,53.0,0.0,90.0,2.0,0.0
9858,37.0,48.0,15.0,8.0,0.0
9859,68.0,0.0,90.0,11.0,0.0
9860,56.0,0.0,90.0,6.0,0.0
9861,59.0,0.0,90.0,2.0,0.0
9862,59.0,0.0,90.0,12.0,0.0
9863,53.0,0.0,90.0,6.0,0.0
9864,59.0,0.0,15.0,1.0,0.0
9865,68.0,0.0,90.0,1.0,0.0
9866,68.0,0.0,90.0,11.0,0.0
9867,59.0,0.0,90.0,12.0,0.0
9868,54.0,16.0,330.0,10.0,0.0
9869,61.0,0.0,330.0,10.0,0.0
9870,68.0,0.0,15.0,2.0,0.0
9871,59.0,0.0,90.0,2.0,0.0
9872,54.0,0.0,120.0,14.0,0.0
9873,42.0,0.0,120.0,15.0,0.0
9874,42.0,12.0,15.0,8.0,0.0
9875,45.0,0.0,120.0,3.0,0.0
9876,49.0,0.0,120.0,3.0,0.0
9877,42.0,0.0,120.0,3.0,0.0
9878,42.0,0.0,15.0,8.0,0.0
9879,57.0,0.0,90.0,12.0,0.0
9880,42.0,0.0,90.0,8.0,0.0
9881,66.0,0.0,90.0,11.0,0.0
9882,54.0,0.0,90.0,6.0,0.0
9883,66.0,0.0,90.0,2.0,0.0
9884,54.0,0.0,90.0,2.0,0.0
9885,57.0,0.0,90.0,2.0,0.0
9886,54.0,0.0,90.0,7.0,0.0
9887,66.0,0.0,90.0,1.0,0.0
9888,57.0,0.0,90.0,1.0,0.0
9889,49.0,48.0,90.0,6.0,0.0
9890,59.0,0.0,60.0,12.0,0.0
9891,59.0,0.0,60.0,1.0,0.0
9892,68.0,36.0,60.0,2.0,0.0
9893,59.0,0.0,60.0,2.0,0.0
9894,68.0,0.0,60.0,1.0,0.0
9895,68.0,0.0,60.0,11.0,0.0
9896,69.0,0.0,60.0,11.0,0.0
9897,69.0,0.0,60.0,2.0,0.0
9898,61.0,0.0,60.0,1.0,0.0
9899,69.0,0.0,60.0,1.0,0.0
9900,61.0,0.0,60.0,12.0,0.0
9901,61.0,32.0,60.0,2.0,0.0
9902,42.0,12.0,15.0,8.0,0.0
9903,35.0,0.0,120.0,3.0,0.0
9904,47.0,0.0,120.0,14.0,0.0
9905,35.0,0.0,120.0,15.0,0.0
9906,42.0,84.0,120.0,3.0,0.0
9907,38.0,0.0,120.0,3.0,0.0
9908,47.0,0.0,90.0,7.0,0.0
9909,62.0,0.0,30.0,12.0,0.0
9910,71.0,0.0,30.0,11.0,0.0
9911,62.0,0.0,30.0,1.0,0.0
9912,71.0,0.0,30.0,1.0,0.0
9913,42.0,0.0,15.0,8.0,0.0
9914,71.0,0.0,30.0,2.0,0.0
9915,62.0,16.0,30.0,2.0,0.0
9916,47.0,0.0,90.0,6.0,0.0
9917,38.0,0.0,90.0,6.0,0.0
9918,47.0,0.0,90.0,2.0,0.0
9919,61.0,0.0,30.0,12.0,0.0
9920,61.0,0.0,30.0,1.0,0.0
9921,69.0,0.0,30.0,11.0,0.0
9922,69.0,32.0,30.0,1.0,0.0
9923,61.0,0.0,30.0,2.0,0.0
9924,69.0,0.0,30.0,2.0,0.0
9925,59.0,0.0,30.0,2.0,0.0
9926,68.0,0.0,30.0,2.0,0.0
9927,59.0,0.0,15.0,12.0,0.0
9928,68.0,0.0,15.0,1.0,0.0
9929,59.0,0.0,15.0,1.0,0.0
9930,59.0,0.0,90.0,2.0,0.0
9931,68.0,0.0,90.0,2.0,0.0
9932,68.0,0.0,15.0,11.0,0.0
9933,42.0,0.0,120.0,3.0,0.0
9934,45.0,0.0,120.0,3.0,0.0
9935,37.0,24.0,120.0,3.0,0.0
9936,49.0,0.0,120.0,14.0,0.0
9937,37.0,0.0,120.0,15.0,0.0
9938,37.0,12.0,15.0,8.0,0.0
9939,66.0,0.0,20.0,11.0,0.0
9940,49.0,0.0,90.0,6.0,0.0
9941,57.0,0.0,90.0,2.0,0.0
9942,49.0,0.0,90.0,2.0,0.0
9943,37.0,0.0,90.0,8.0,0.0
9944,45.0,0.0,90.0,6.0,0.0
9945,66.0,0.0,20.0,2.0,0.0
9946,54.0,0.0,90.0,6.0,0.0
9947,49.0,0.0,90.0,7.0,0.0
9948,57.0,0.0,90.0,12.0,0.0
9949,66.0,24.0,20.0,1.0,0.0
9950,57.0,0.0,90.0,1.0,0.0
9951,68.0,0.0,20.0,2.0,0.0
9952,68.0,0.0,20.0,1.0,0.0
9953,68.0,24.0,20.0,11.0,0.0
9954,66.0,0.0,20.0,1.0,0.0
9955,66.0,0.0,20.0,11.0,0.0
9956,66.0,24.0,20.0,2.0,0.0
9957,65.0,0.0,20.0,1.0,0.0
9958,65.0,0.0,20.0,11.0,0.0
9959,65.0,0.0,20.0,2.0,0.0
9960,66.0,84.0,20.0,2.0,0.0
9961,66.0,0.0,20.0,11.0,0.0
9962,66.0,0.0,20.0,1.0,0.0
9963,68.0,0.0,90.0,11.0,0.0
9964,59.0,0.0,90.0,12.0,0.0
9965,59.0,0.0,90.0,1.0,0.0
9966,68.0,96.0,90.0,1.0,0.0
9967,68.0,0.0,90.0,2.0,0.0
9968,59.0,0.0,90.0,2.0,0.0
9969,25.0,0.0,120.0,3.0,0.0
9970,32.0,0.0,120.0,14.0,0.0
9971,25.0,0.0,120.0,15.0,0.0
9972,37.0,0.0,120.0,3.0,0.0
9973,32.0,0.0,120.0,3.0,0.0
9974,37.0,12.0,15.0,8.0,0.0
9975,37.0,0.0,90.0,2.0,0.0
9976,56.0,0.0,90.0,12.0,0.0
9977,65.0,0.0,90.0,11.0,0.0
9978,37.0,0.0,90.0,8.0,0.0
9979,49.0,0.0,90.0,6.0,0.0
9980,44.0,0.0,90.0,6.0,0.0
9981,56.0,0.0,90.0,2.0,0.0
9982,65.0,84.0,90.0,2.0,0.0
9983,37.0,0.0,90.0,7.0,0.0
9984,65.0,0.0,90.0,1.0,0.0
9985,56.0,0.0,90.0,1.0,0.0
9986,66.0,0.0,180.0,2.0,0.0
9987,66.0,0.0,180.0,1.0,0.0
9988,57.0,0.0,180.0,1.0,0.0
9989,57.0,0.0,180.0,12.0,0.0
9990,57.0,0.0,180.0,2.0,0.0
9991,66.0,0.0,180.0,11.0,0.0
9992,42.0,12.0,15.0,8.0,0.0
9993,30.0,0.0,120.0,3.0,0.0
9994,30.0,0.0,120.0,15.0,0.0
9995,37.0,0.0,120.0,3.0,0.0
9996,33.0,84.0,120.0,3.0,0.0
9997,42.0,0.0,120.0,14.0,0.0
9998,42.0,96.0,15.0,8.0,0.0
9999,42.0,0.0,90.0,6.0,0.0
10000,42.0,0.0,90.0,7.0,0.0
10001,42.0,0.0,90.0,2.0,0.0
10002,45.0,0.0,90.0,6.0,0.0
10003,68.0,0.0,180.0,11.0,0.0
10004,68.0,0.0,180.0,2.0,0.0
10005,68.0,0.0,180.0,1.0,0.0
10006,59.0,0.0,180.0,2.0,0.0
10007,59.0,0.0,180.0,12.0,0.0
10008,62.0,84.0,180.0,12.0,0.0
10009,59.0,0.0,180.0,1.0,0.0
10010,35.0,0.0,120.0,3.0,0.0
10011,28.0,0.0,120.0,15.0,0.0
10012,35.0,0.0,120.0,14.0,0.0
10013,28.0,0.0,120.0,3.0,0.0
10014,44.0,12.0,15.0,8.0,0.0
10015,40.0,0.0,120.0,3.0,0.0
10016,40.0,0.0,90.0,6.0,0.0
10017,44.0,96.0,15.0,8.0,0.0
10018,40.0,0.0,90.0,7.0,0.0
10019,40.0,0.0,90.0,2.0,0.0
10020,61.0,0.0,180.0,2.0,0.0
10021,69.0,0.0,180.0,1.0,0.0
10022,61.0,0.0,180.0,1.0,0.0
10023,69.0,84.0,180.0,11.0,0.0
10024,69.0,0.0,180.0,2.0,0.0
10025,61.0,0.0,180.0,12.0,0.0
10026,40.0,0.0,120.0,3.0,0.0
10027,45.0,0.0,120.0,14.0,0.0
10028,37.0,12.0,15.0,8.0,0.0
10029,33.0,0.0,120.0,3.0,0.0
10030,33.0,0.0,120.0,15.0,0.0
10031,37.0,0.0,120.0,3.0,0.0
10032,37.0,96.0,15.0,8.0,0.0
10033,37.0,0.0,90.0,8.0,0.0
10034,49.0,0.0,90.0,6.0,0.0
10035,45.0,0.0,90.0,2.0,0.0
10036,40.0,0.0,90.0,6.0,0.0
10037,45.0,0.0,90.0,6.0,0.0
10038,45.0,0.0,90.0,7.0,0.0
10039,64.0,0.0,15.0,12.0,0.0
10040,64.0,0.0,90.0,1.0,0.0
10041,73.0,0.0,90.0,1.0,0.0
10042,64.0,0.0,90.0,2.0,0.0
10043,73.0,0.0,90.0,2.0,0.0
10044,73.0,96.0,90.0,11.0,0.0
10045,28.0,84.0,120.0,15.0,0.0
10046,44.0,12.0,15.0,8.0,0.0
10047,28.0,0.0,120.0,3.0,0.0
10048,40.0,0.0,120.0,3.0,0.0
10049,40.0,0.0,120.0,14.0,0.0
10050,40.0,0.0,90.0,7.0,0.0
10051,71.0,0.0,90.0,2.0,0.0
10052,40.0,0.0,90.0,6.0,0.0
10053,44.0,0.0,15.0,8.0,0.0
10054,40.0,0.0,90.0,2.0,0.0
10055,62.0,0.0,15.0,2.0,0.0
10056,71.0,0.0,15.0,11.0,0.0
10057,71.0,96.0,90.0,2.0,0.0
10058,62.0,0.0,15.0,12.0,0.0
10059,71.0,0.0,15.0,1.0,0.0
10060,62.0,0.0,15.0,1.0,0.0
10061,40.0,0.0,120.0,14.0,0.0
10062,33.0,0.0,120.0,3.0,0.0
10063,33.0,0.0,120.0,15.0,0.0
10064,40.0,0.0,120.0,3.0,0.0
10065,37.0,12.0,15.0,8.0,0.0
10066,37.0,0.0,15.0,8.0,0.0
10067,69.0,0.0,90.0,2.0,0.0
10068,45.0,0.0,90.0,7.0,0.0
10069,45.0,0.0,90.0,6.0,0.0
10070,69.0,0.0,90.0,11.0,0.0
10071,69.0,0.0,90.0,1.0,0.0
10072,61.0,0.0,90.0,1.0,0.0
10073,61.0,0.0,90.0,2.0,0.0
10074,61.0,0.0,90.0,12.0,0.0
10075,45.0,0.0,90.0,2.0,0.0
10076,40.0,0.0,90.0,6.0,0.0
10077,66.0,0.0,60.0,12.0,0.0
10078,74.0,20.0,60.0,11.0,0.0
10079,66.0,0.0,60.0,2.0,0.0
10080,74.0,0.0,60.0,2.0,0.0
10081,66.0,0.0,60.0,1.0,0.0
10082,74.0,0.0,60.0,1.0,0.0
10083,64.0,0.0,60.0,1.0,0.0
10084,73.0,64.0,60.0,2.0,0.0
10085,73.0,0.0,60.0,1.0,0.0
10086,64.0,0.0,60.0,12.0,0.0
10087,73.0,0.0,60.0,11.0,0.0
10088,64.0,0.0,60.0,2.0,0.0
10089,42.0,12.0,15.0,8.0,0.0
10090,26.0,0.0,120.0,15.0,0.0
10091,26.0,0.0,120.0,3.0,0.0
10092,30.0,0.0,120.0,3.0,0.0
10093,38.0,0.0,120.0,14.0,0.0
10094,38.0,0.0,120.0,3.0,0.0
10095,38.0,0.0,90.0,2.0,0.0
10096,38.0,0.0,90.0,6.0,0.0
10097,42.0,32.0,15.0,8.0,0.0
10098,38.0,0.0,90.0,7.0,0.0
10099,42.0,0.0,90.0,6.0,0.0
10100,71.0,0.0,60.0,2.0,0.0
10101,62.0,84.0,60.0,2.0,0.0
10102,62.0,0.0,60.0,12.0,0.0
10103,71.0,0.0,60.0,1.0,0.0
10104,62.0,0.0,60.0,1.0,0.0
10105,71.0,0.0,60.0,11.0,0.0
10106,66.0,0.0,90.0,12.0,0.0
10107,74.0,96.0,90.0,11.0,0.0
10108,74.0,0.0,90.0,2.0,0.0
10109,66.0,0.0,90.0,2.0,0.0
10110,74.0,0.0,90.0,1.0,0.0
10111,66.0,0.0,90.0,1.0,0.0
10112,40.0,0.0,120.0,3.0,0.0
10113,40.0,0.0,120.0,14.0,0.0
10114,33.0,0.0,120.0,15.0,0.0
10115,33.0,0.0,120.0,3.0,0.0
10116,37.0,12.0,15.0,8.0,0.0
10117,45.0,0.0,90.0,7.0,0.0
10118,40.0,0.0,90.0,6.0,0.0
10119,64.0,0.0,90.0,1.0,0.0
10120,73.0,0.0,90.0,1.0,0.0
10121,64.0,0.0,90.0,12.0,0.0
10122,37.0,0.0,90.0,8.0,0.0
10123,45.0,0.0,90.0,2.0,0.0
10124,64.0,0.0,90.0,2.0,0.0
10125,73.0,0.0,90.0,2.0,0.0
10126,73.0,0.0,90.0,11.0,0.0
10127,45.0,0.0,90.0,6.0,0.0
10128,68.0,0.0,90.0,12.0,0.0
10129,71.0,0.0,90.0,2.0,0.0
10130,68.0,96.0,90.0,2.0,0.0
10131,68.0,0.0,90.0,1.0,0.0
10132,71.0,0.0,90.0,11.0,0.0
10133,71.0,0.0,90.0,1.0,0.0
10134,45.0,0.0,120.0,14.0,0.0
10135,30.0,84.0,120.0,15.0,0.0
10136,30.0,0.0,120.0,3.0,0.0
10137,37.0,0.0,120.0,3.0,0.0
10138,42.0,12.0,15.0,8.0,0.0
10139,66.0,0.0,90.0,1.0,0.0
10140,42.0,0.0,90.0,6.0,0.0
10141,69.0,0.0,90.0,1.0,0.0
10142,69.0,0.0,90.0,2.0,0.0
10143,66.0,0.0,90.0,12.0,0.0
10144,69.0,0.0,90.0,11.0,0.0
10145,45.0,0.0,90.0,2.0,0.0
10146,66.0,0.0,90.0,2.0,0.0
10147,42.0,0.0,15.0,8.0,0.0
10148,45.0,0.0,90.0,6.0,0.0
10149,42.0,0.0,90.0,7.0,0.0
10150,65.0,0.0,300.0,1.0,0.0
10151,68.0,0.0,300.0,1.0,0.0
10152,68.0,0.0,300.0,2.0,0.0
10153,68.0,0.0,300.0,11.0,0.0
10154,66.0,32.0,150.0,10.0,0.0
10155,61.0,0.0,300.0,12.0,0.0
10156,54.0,16.0,330.0,10.0,0.0
10157,61.0,0.0,300.0,2.0,0.0
10158,65.0,0.0,300.0,12.0,0.0
10159,37.0,0.0,120.0,15.0,0.0
10160,37.0,12.0,15.0,8.0,0.0
10161,49.0,0.0,120.0,14.0,0.0
10162,41.0,0.0,120.0,3.0,0.0
10163,44.0,0.0,120.0,3.0,0.0
10164,37.0,0.0,120.0,3.0,0.0
10165,37.0,64.0,15.0,8.0,0.0
10166,49.0,0.0,90.0,6.0,0.0
10167,44.0,72.0,90.0,6.0,0.0
10168,49.0,0.0,90.0,7.0,0.0
10169,53.0,0.0,90.0,6.0,0.0
10170,49.0,0.0,90.0,2.0,0.0
10171,37.0,0.0,90.0,8.0,0.0
10172,66.0,8.0,150.0,10.0,0.0
10173,49.0,12.0,20.0,13.0,0.0
10174,37.0,0.0,120.0,14.0,0.0
10175,25.0,84.0,120.0,3.0,0.0
10176,48.0,24.0,20.0,13.0,0.0
10177,37.0,0.0,120.0,3.0,0.0
10178,25.0,0.0,120.0,15.0,0.0
10179,32.0,0.0,120.0,3.0,0.0
10180,37.0,12.0,15.0,8.0,0.0
10181,37.0,0.0,90.0,2.0,0.0
10182,41.0,0.0,90.0,6.0,0.0
10183,37.0,0.0,90.0,8.0,0.0
10184,49.0,24.0,20.0,13.0,0.0
10185,37.0,0.0,90.0,7.0,0.0
10186,50.0,0.0,20.0,13.0,0.0
10187,53.0,24.0,20.0,13.0,0.0
10188,54.0,0.0,20.0,13.0,0.0
10189,56.0,0.0,180.0,2.0,0.0
10190,54.0,48.0,330.0,10.0,0.0
10191,61.0,0.0,330.0,10.0,0.0
10192,53.0,0.0,180.0,2.0,0.0
10193,56.0,0.0,180.0,12.0,0.0
10194,53.0,0.0,180.0,13.0,0.0
10195,37.0,0.0,120.0,3.0,0.0
10196,49.0,0.0,120.0,14.0,0.0
10197,37.0,0.0,120.0,15.0,0.0
10198,41.0,0.0,120.0,3.0,0.0
10199,44.0,0.0,120.0,3.0,0.0
10200,37.0,12.0,15.0,8.0,0.0
10201,37.0,0.0,90.0,8.0,0.0
10202,53.0,0.0,90.0,6.0,0.0
10203,53.0,96.0,90.0,4.0,0.0
10204,56.0,0.0,90.0,4.0,0.0
10205,61.0,0.0,90.0,4.0,0.0
10206,49.0,0.0,90.0,4.0,0.0
10207,49.0,0.0,90.0,7.0,0.0
10208,49.0,0.0,180.0,2.0,0.0
10209,57.0,48.0,90.0,2.0,0.0
10210,57.0,0.0,90.0,12.0,0.0
10211,49.0,0.0,15.0,13.0,0.0
10212,49.0,0.0,90.0,4.0,0.0
10213,54.0,0.0,90.0,12.0,0.0
10214,54.0,0.0,90.0,4.0,0.0
10215,45.0,0.0,90.0,4.0,0.0
10216,54.0,0.0,90.0,2.0,0.0
10217,30.0,144.0,90.0,3.0,0.0
10218,45.0,0.0,90.0,6.0,0.0
10219,42.0,0.0,90.0,8.0,0.0
10220,37.0,0.0,90.0,3.0,0.0
10221,33.0,0.0,90.0,3.0,0.0
10222,42.0,0.0,90.0,4.0,0.0
10223,42.0,0.0,90.0,14.0,0.0
10224,42.0,0.0,90.0,7.0,0.0
10225,30.0,0.0,90.0,15.0,0.0
10226,56.0,0.0,150.0,12.0,0.0
10227,53.0,0.0,150.0,13.0,0.0
10228,53.0,0.0,150.0,2.0,0.0
10229,56.0,0.0,150.0,2.0,0.0
10230,25.0,0.0,90.0,15.0,0.0
10231,41.0,0.0,90.0,6.0,0.0
10232,44.0,0.0,90.0,4.0,0.0
10233,37.0,96.0,90.0,7.0,0.0
10234,37.0,0.0,90.0,14.0,0.0
10235,25.0,0.0,90.0,3.0,0.0
10236,37.0,0.0,90.0,3.0,0.0
10237,37.0,0.0,90.0,8.0,0.0
10238,32.0,0.0,90.0,3.0,0.0
10239,41.0,0.0,90.0,4.0,0.0
10240,49.0,0.0,90.0,4.0,0.0
10241,61.0,0.0,60.0,12.0,0.0
10242,49.0,24.0,15.0,13.0,0.0
10243,49.0,0.0,60.0,2.0,0.0
10244,49.0,24.0,20.0,13.0,0.0
10245,61.0,0.0,60.0,2.0,0.0
10246,61.0,0.0,20.0,13.0,0.0
10247,54.0,0.0,180.0,13.0,0.0
10248,57.0,0.0,180.0,2.0,0.0
10249,57.0,0.0,180.0,12.0,0.0
10250,54.0,0.0,180.0,2.0,0.0
10251,30.0,192.0,90.0,3.0,0.0
10252,37.0,0.0,90.0,3.0,0.0
10253,33.0,0.0,90.0,3.0,0.0
10254,42.0,0.0,90.0,14.0,0.0
10255,45.0,0.0,90.0,4.0,0.0
10256,54.0,0.0,90.0,4.0,0.0
10257,42.0,0.0,90.0,4.0,0.0
10258,49.0,0.0,90.0,4.0,0.0
10259,30.0,0.0,90.0,15.0,0.0
10260,42.0,0.0,90.0,8.0,0.0
10261,45.0,0.0,90.0,6.0,0.0
10262,42.0,0.0,90.0,7.0,0.0
10263,59.0,0.0,180.0,2.0,0.0
10264,56.0,0.0,180.0,2.0,0.0
10265,59.0,0.0,180.0,12.0,0.0
10266,56.0,0.0,180.0,13.0,0.0
10267,32.0,0.0,90.0,3.0,0.0
10268,40.0,0.0,90.0,14.0,0.0
10269,35.0,0.0,90.0,3.0,0.0
10270,47.0,0.0,90.0,4.0,0.0
10271,40.0,0.0,90.0,4.0,0.0
10272,52.0,0.0,90.0,4.0,0.0
10273,44.0,0.0,90.0,8.0,0.0
10274,44.0,0.0,90.0,4.0,0.0
10275,44.0,0.0,90.0,6.0,0.0
10276,40.0,0.0,90.0,7.0,0.0
10277,28.0,0.0,90.0,15.0,0.0
10278,28.0,0.0,90.0,3.0,0.0
10279,52.0,0.0,180.0,2.0,0.0
10280,61.0,0.0,90.0,12.0,0.0
10281,61.0,96.0,90.0,2.0,0.0
10282,52.0,96.0,15.0,13.0,0.0
10283,33.0,0.0,90.0,3.0,0.0
10284,49.0,0.0,90.0,4.0,0.0
10285,57.0,144.0,90.0,12.0,0.0
10286,37.0,0.0,90.0,8.0,0.0
10287,57.0,0.0,90.0,4.0,0.0
10288,45.0,0.0,90.0,14.0,0.0
10289,52.0,0.0,90.0,4.0,0.0
10290,40.0,0.0,90.0,3.0,0.0
10291,37.0,0.0,90.0,3.0,0.0
10292,57.0,0.0,90.0,2.0,0.0
10293,45.0,0.0,90.0,7.0,0.0
10294,49.0,0.0,90.0,6.0,0.0
10295,45.0,0.0,90.0,4.0,0.0
10296,33.0,0.0,90.0,15.0,0.0
10297,56.0,0.0,150.0,2.0,0.0
10298,56.0,24.0,150.0,13.0,0.0
10299,59.0,0.0,150.0,2.0,0.0
10300,59.0,0.0,150.0,12.0,0.0
10301,52.0,0.0,150.0,13.0,0.0
10302,40.0,0.0,90.0,7.0,0.0
10303,44.0,0.0,90.0,4.0,0.0
10304,47.0,0.0,90.0,4.0,0.0
10305,40.0,0.0,90.0,4.0,0.0
10306,52.0,0.0,90.0,4.0,0.0
10307,42.0,0.0,90.0,8.0,0.0
10308,40.0,0.0,90.0,14.0,0.0
10309,44.0,0.0,90.0,6.0,0.0
10310,28.0,0.0,90.0,15.0,0.0
10311,28.0,0.0,90.0,3.0,0.0
10312,35.0,0.0,90.0,3.0,0.0
10313,32.0,0.0,90.0,3.0,0.0
10314,64.0,0.0,60.0,2.0,0.0
10315,64.0,0.0,60.0,12.0,0.0
10316,52.0,0.0,60.0,2.0,0.0
10317,52.0,24.0,20.0,13.0,0.0
10318,64.0,144.0,20.0,13.0,0.0
10319,57.0,0.0,150.0,2.0,0.0
10320,57.0,24.0,150.0,13.0,0.0
10321,52.0,0.0,150.0,13.0,0.0
10322,61.0,0.0,150.0,12.0,0.0
10323,61.0,0.0,150.0,2.0,0.0
10324,40.0,0.0,90.0,3.0,0.0
10325,45.0,0.0,90.0,7.0,0.0
10326,45.0,0.0,90.0,14.0,0.0
10327,33.0,0.0,90.0,15.0,0.0
10328,37.0,0.0,90.0,8.0,0.0
10329,33.0,192.0,90.0,3.0,0.0
10330,57.0,0.0,90.0,6.0,0.0
10331,57.0,0.0,90.0,4.0,0.0
10332,49.0,0.0,90.0,4.0,0.0
10333,37.0,0.0,90.0,3.0,0.0
10334,45.0,0.0,90.0,4.0,0.0
10335,52.0,0.0,90.0,4.0,0.0
10336,66.0,0.0,60.0,12.0,0.0
10337,66.0,0.0,60.0,2.0,0.0
10338,54.0,24.0,20.0,13.0,0.0
10339,54.0,0.0,60.0,2.0,0.0
10340,66.0,0.0,20.0,13.0,0.0
10341,54.0,0.0,15.0,13.0,0.0
10342,59.0,0.0,180.0,13.0,0.0
10343,62.0,96.0,180.0,2.0,0.0
10344,59.0,0.0,180.0,2.0,0.0
10345,62.0,0.0,180.0,12.0,0.0
10346,35.0,0.0,90.0,3.0,0.0
10347,35.0,0.0,90.0,14.0,0.0
10348,42.0,0.0,90.0,8.0,0.0
10349,47.0,0.0,90.0,4.0,0.0
10350,35.0,0.0,90.0,7.0,0.0
10351,23.0,0.0,90.0,15.0,0.0
10352,35.0,0.0,90.0,6.0,0.0
10353,23.0,0.0,90.0,3.0,0.0
10354,52.0,0.0,90.0,2.0,0.0
10355,52.0,0.0,90.0,13.0,0.0
10356,61.0,96.0,90.0,12.0,0.0
10357,61.0,0.0,90.0,2.0,0.0
10358,26.0,0.0,90.0,3.0,0.0
10359,38.0,0.0,90.0,14.0,0.0
10360,50.0,0.0,90.0,13.0,0.0
10361,50.0,0.0,90.0,4.0,0.0
10362,50.0,0.0,90.0,2.0,0.0
10363,38.0,0.0,90.0,3.0,0.0
10364,59.0,0.0,90.0,2.0,0.0
10365,38.0,0.0,90.0,7.0,0.0
10366,26.0,0.0,90.0,15.0,0.0
10367,59.0,0.0,90.0,12.0,0.0
10368,42.0,0.0,90.0,8.0,0.0
10369,38.0,0.0,90.0,6.0,0.0
10370,49.0,0.0,90.0,13.0,0.0
10371,57.0,96.0,90.0,2.0,0.0
10372,57.0,0.0,90.0,12.0,0.0
10373,49.0,0.0,90.0,2.0,0.0
10374,40.0,0.0,90.0,6.0,0.0
10375,28.0,0.0,90.0,15.0,0.0
10376,40.0,0.0,90.0,7.0,0.0
10377,40.0,96.0,90.0,3.0,0.0
10378,56.0,0.0,90.0,12.0,0.0
10379,40.0,0.0,90.0,4.0,0.0
10380,56.0,0.0,90.0,2.0,0.0
10381,47.0,0.0,90.0,2.0,0.0
10382,47.0,0.0,90.0,13.0,0.0
10383,40.0,0.0,90.0,14.0,0.0
10384,37.0,0.0,90.0,8.0,0.0
10385,28.0,0.0,90.0,3.0,0.0
10386,52.0,0.0,90.0,4.0,0.0
10387,62.0,96.0,90.0,2.0,0.0
10388,54.0,0.0,90.0,2.0,0.0
10389,62.0,0.0,90.0,12.0,0.0
10390,54.0,0.0,90.0,13.0,0.0
10391,42.0,96.0,90.0,8.0,0.0
10392,52.0,0.0,90.0,2.0,0.0
10393,33.0,0.0,90.0,14.0,0.0
10394,21.0,0.0,90.0,3.0,0.0
10395,21.0,0.0,90.0,15.0,0.0
10396,33.0,0.0,90.0,3.0,0.0
10397,33.0,0.0,90.0,7.0,0.0
10398,33.0,0.0,90.0,6.0,0.0
10399,61.0,0.0,90.0,12.0,0.0
10400,61.0,0.0,90.0,2.0,0.0
10401,45.0,0.0,90.0,4.0,0.0
10402,52.0,0.0,90.0,13.0,0.0
10403,59.0,96.0,90.0,12.0,0.0
10404,50.0,0.0,90.0,13.0,0.0
10405,50.0,0.0,90.0,2.0,0.0
10406,59.0,0.0,90.0,2.0,0.0
10407,23.0,0.0,90.0,15.0,0.0
10408,49.0,0.0,90.0,2.0,0.0
10409,35.0,0.0,90.0,3.0,0.0
10410,35.0,0.0,90.0,14.0,0.0
10411,44.0,0.0,90.0,8.0,0.0
10412,35.0,0.0,90.0,6.0,0.0
10413,47.0,0.0,90.0,4.0,0.0
10414,35.0,0.0,90.0,7.0,0.0
10415,49.0,0.0,90.0,13.0,0.0
10416,57.0,0.0,90.0,2.0,0.0
10417,23.0,0.0,90.0,3.0,0.0
10418,57.0,0.0,90.0,12.0,0.0
10419,56.0,0.0,90.0,2.0,0.0
10420,56.0,0.0,90.0,12.0,0.0
10421,47.0,24.0,90.0,13.0,0.0
10422,47.0,0.0,90.0,2.0,0.0
10423,37.0,0.0,90.0,14.0,0.0
10424,53.0,24.0,20.0,12.0,0.0
10425,25.0,0.0,90.0,3.0,0.0
10426,37.0,0.0,90.0,7.0,0.0
10427,44.0,0.0,90.0,2.0,0.0
10428,37.0,0.0,90.0,3.0,0.0
10429,44.0,0.0,90.0,13.0,0.0
10430,49.0,0.0,90.0,4.0,0.0
10431,37.0,0.0,90.0,8.0,0.0
10432,53.0,0.0,20.0,2.0,0.0
10433,37.0,0.0,90.0,6.0,0.0
10434,25.0,0.0,90.0,15.0,0.0
10435,54.0,0.0,20.0,12.0,0.0
10436,54.0,24.0,20.0,2.0,0.0
10437,53.0,24.0,20.0,12.0,0.0
10438,53.0,0.0,20.0,2.0,0.0
10439,51.0,0.0,20.0,2.0,0.0
10440,51.0,0.0,20.0,12.0,0.0
10441,53.0,0.0,180.0,2.0,0.0
10442,53.0,16.0,180.0,12.0,0.0
10443,56.0,0.0,150.0,2.0,0.0
10444,54.0,12.0,330.0,10.0,0.0
10445,66.0,32.0,150.0,10.0,0.0
10446,47.0,0.0,150.0,2.0,0.0
10447,56.0,0.0,150.0,13.0,0.0
10448,47.0,0.0,150.0,13.0,0.0
10449,37.0,96.0,90.0,14.0,0.0
10450,30.0,0.0,90.0,15.0,0.0
10451,42.0,0.0,90.0,7.0,0.0
10452,37.0,0.0,90.0,3.0,0.0
10453,30.0,0.0,90.0,3.0,0.0
10454,42.0,0.0,90.0,8.0,0.0
10455,42.0,0.0,90.0,4.0,0.0
10456,42.0,0.0,90.0,6.0,0.0
10457,54.0,0.0,90.0,4.0,0.0
10458,49.0,0.0,90.0,4.0,0.0
10459,54.0,0.0,60.0,12.0,0.0
10460,54.0,0.0,60.0,13.0,0.0
10461,45.0,0.0,60.0,2.0,0.0
10462,45.0,0.0,90.0,2.0,0.0
10463,54.0,0.0,15.0,2.0,0.0
10464,45.0,0.0,15.0,13.0,0.0
10465,54.0,0.0,90.0,13.0,0.0
10466,54.0,0.0,90.0,12.0,0.0
10467,66.0,8.0,150.0,10.0,0.0
10468,66.0,0.0,90.0,4.0,0.0
10469,57.0,0.0,90.0,4.0,0.0
10470,42.0,0.0,90.0,8.0,0.0
10471,54.0,84.0,90.0,7.0,0.0
10472,45.0,0.0,90.0,3.0,0.0
10473,49.0,0.0,90.0,3.0,0.0
10474,57.0,0.0,90.0,6.0,0.0
10475,42.0,0.0,90.0,3.0,0.0
10476,54.0,0.0,90.0,14.0,0.0
10477,42.0,0.0,90.0,15.0,0.0
10478,54.0,0.0,90.0,4.0,0.0
10479,61.0,0.0,90.0,4.0,0.0
10480,61.0,12.0,15.0,11.0,0.0
10481,60.0,0.0,15.0,11.0,0.0
10482,61.0,4.0,15.0,11.0,0.0
10483,62.0,12.0,15.0,11.0,0.0
10484,65.0,12.0,15.0,11.0,0.0
10485,66.0,0.0,15.0,11.0,0.0
10486,65.0,0.0,180.0,5.0,0.0
10487,65.0,0.0,180.0,1.0,0.0
10488,68.0,0.0,180.0,5.0,0.0
10489,68.0,0.0,180.0,11.0,0.0
10490,65.0,0.0,180.0,12.0,0.0
10491,65.0,0.0,180.0,2.0,0.0
10492,68.0,0.0,180.0,1.0,0.0
10493,68.0,0.0,180.0,2.0,0.0
10494,61.0,0.0,180.0,13.0,0.0
10495,45.0,48.0,330.0,9.0,0.0
10496,54.0,0.0,330.0,10.0,0.0
10497,61.0,0.0,330.0,10.0,0.0
10498,44.0,0.0,120.0,3.0,0.0
10499,49.0,0.0,120.0,3.0,0.0
10500,49.0,0.0,120.0,14.0,0.0
10501,37.0,0.0,120.0,3.0,0.0
10502,37.0,0.0,120.0,15.0,0.0
10503,37.0,12.0,15.0,8.0,0.0
10504,49.0,0.0,90.0,4.0,0.0
10505,53.0,96.0,90.0,2.0,0.0
10506,37.0,0.0,90.0,8.0,0.0
10507,49.0,0.0,90.0,7.0,0.0
10508,65.0,0.0,90.0,4.0,0.0
10509,56.0,0.0,90.0,4.0,0.0
10510,53.0,0.0,90.0,6.0,0.0
10511,49.0,0.0,90.0,6.0,0.0
10512,56.0,0.0,90.0,6.0,0.0
10513,61.0,0.0,90.0,4.0,0.0
10514,61.0,0.0,15.0,5.0,0.0
10515,57.0,0.0,180.0,5.0,0.0
10516,57.0,0.0,180.0,13.0,0.0
10517,69.0,0.0,90.0,5.0,0.0
10518,69.0,0.0,90.0,1.0,0.0
10519,69.0,0.0,90.0,2.0,0.0
10520,61.0,0.0,180.0,2.0,0.0
10521,69.0,12.0,90.0,11.0,0.0
10522,54.0,0.0,120.0,14.0,0.0
10523,49.0,0.0,120.0,3.0,0.0
10524,42.0,0.0,120.0,3.0,0.0
10525,45.0,0.0,120.0,3.0,0.0
10526,42.0,0.0,120.0,15.0,0.0
10527,61.0,0.0,90.0,4.0,0.0
10528,54.0,0.0,90.0,4.0,0.0
10529,54.0,0.0,90.0,7.0,0.0
10530,66.0,0.0,90.0,2.0,0.0
10531,54.0,0.0,90.0,2.0,0.0
10532,66.0,0.0,90.0,1.0,0.0
10533,66.0,144.0,90.0,11.0,0.0
10534,57.0,0.0,90.0,6.0,0.0
10535,49.0,0.0,90.0,6.0,0.0
10536,66.0,0.0,90.0,4.0,0.0
10537,57.0,0.0,90.0,4.0,0.0
10538,54.0,0.0,90.0,6.0,0.0
10539,66.0,0.0,90.0,5.0,0.0
10540,42.0,12.0,15.0,8.0,0.0
10541,42.0,24.0,15.0,8.0,0.0
10542,61.0,0.0,390.0,5.0,0.0
10543,61.0,0.0,15.0,12.0,0.0
10544,68.0,0.0,150.0,2.0,0.0
10545,65.0,0.0,150.0,13.0,0.0
10546,68.0,0.0,180.0,5.0,0.0
10547,65.0,0.0,180.0,5.0,0.0
10548,68.0,0.0,150.0,1.0,0.0
10549,61.0,0.0,15.0,1.0,0.0
10550,61.0,0.0,150.0,2.0,0.0
10551,68.0,0.0,150.0,11.0,0.0
10552,53.0,0.0,90.0,14.0,0.0
10553,61.0,0.0,90.0,4.0,0.0
10554,53.0,0.0,90.0,2.0,0.0
10555,49.0,0.0,90.0,7.0,0.0
10556,49.0,0.0,90.0,3.0,0.0
10557,53.0,0.0,90.0,6.0,0.0
10558,49.0,0.0,90.0,6.0,0.0
10559,44.0,0.0,90.0,3.0,0.0
10560,56.0,0.0,90.0,6.0,0.0
10561,49.0,0.0,90.0,4.0,0.0
10562,56.0,0.0,90.0,4.0,0.0
10563,37.0,192.0,90.0,3.0,0.0
10564,44.0,0.0,90.0,8.0,0.0
10565,65.0,0.0,90.0,4.0,0.0
10566,37.0,0.0,90.0,15.0,0.0
10567,61.0,0.0,240.0,13.0,0.0
10568,61.0,0.0,240.0,1.0,0.0
10569,61.0,0.0,240.0,2.0,0.0
10570,61.0,24.0,20.0,11.0,0.0
10571,61.0,24.0,15.0,12.0,0.0
10572,73.0,0.0,20.0,11.0,0.0
10573,69.0,0.0,180.0,2.0,0.0
10574,66.0,0.0,180.0,5.0,0.0
10575,69.0,0.0,180.0,1.0,0.0
10576,69.0,0.0,180.0,11.0,0.0
10577,69.0,0.0,180.0,5.0,0.0
10578,42.0,0.0,90.0,3.0,0.0
10579,54.0,0.0,90.0,7.0,0.0
10580,66.0,0.0,90.0,4.0,0.0
10581,57.0,0.0,90.0,6.0,0.0
10582,49.0,0.0,90.0,3.0,0.0
10583,61.0,0.0,90.0,4.0,0.0
10584,54.0,0.0,90.0,6.0,0.0
10585,45.0,0.0,90.0,3.0,0.0
10586,54.0,192.0,90.0,2.0,0.0
10587,49.0,0.0,90.0,6.0,0.0
10588,57.0,0.0,90.0,4.0,0.0
10589,42.0,0.0,90.0,15.0,0.0
10590,54.0,0.0,90.0,4.0,0.0
10591,42.0,0.0,90.0,8.0,0.0
10592,54.0,0.0,90.0,14.0,0.0
10593,71.0,0.0,180.0,2.0,0.0
10594,64.0,0.0,180.0,13.0,0.0
10595,71.0,0.0,180.0,11.0,0.0
10596,68.0,0.0,180.0,12.0,0.0
10597,68.0,0.0,180.0,2.0,0.0
10598,71.0,0.0,180.0,5.0,0.0
10599,68.0,0.0,180.0,1.0,0.0
10600,71.0,0.0,180.0,1.0,0.0
10601,68.0,0.0,180.0,5.0,0.0
10602,64.0,0.0,180.0,5.0,0.0
10603,47.0,0.0,90.0,3.0,0.0
10604,56.0,0.0,90.0,6.0,0.0
10605,59.0,0.0,90.0,6.0,0.0
10606,68.0,0.0,90.0,4.0,0.0
10607,44.0,0.0,90.0,8.0,0.0
10608,40.0,0.0,90.0,15.0,0.0
10609,52.0,0.0,90.0,6.0,0.0
10610,59.0,0.0,90.0,4.0,0.0
10611,52.0,0.0,90.0,3.0,0.0
10612,56.0,0.0,90.0,14.0,0.0
10613,64.0,0.0,90.0,4.0,0.0
10614,52.0,0.0,90.0,4.0,0.0
10615,52.0,96.0,90.0,7.0,0.0
10616,40.0,0.0,90.0,3.0,0.0
10617,56.0,0.0,90.0,2.0,0.0
10618,73.0,0.0,90.0,11.0,0.0
10619,61.0,0.0,180.0,13.0,0.0
10620,73.0,0.0,90.0,5.0,0.0
10621,73.0,96.0,90.0,2.0,0.0
10622,64.0,0.0,180.0,1.0,0.0
10623,61.0,144.0,180.0,5.0,0.0
10624,73.0,0.0,90.0,1.0,0.0
10625,69.0,0.0,90.0,11.0,0.0
10626,57.0,0.0,90.0,7.0,0.0
10627,57.0,0.0,90.0,2.0,0.0
10628,61.0,0.0,90.0,6.0,0.0
10629,69.0,0.0,90.0,1.0,0.0
10630,52.0,0.0,90.0,3.0,0.0
10631,57.0,0.0,90.0,14.0,0.0
10632,37.0,0.0,90.0,8.0,0.0
10633,57.0,0.0,90.0,6.0,0.0
10634,45.0,0.0,90.0,15.0,0.0
10635,64.0,0.0,90.0,4.0,0.0
10636,49.0,0.0,90.0,3.0,0.0
10637,57.0,0.0,90.0,4.0,0.0
10638,69.0,0.0,90.0,5.0,0.0
10639,69.0,0.0,90.0,4.0,0.0
10640,61.0,0.0,90.0,4.0,0.0
10641,52.0,0.0,90.0,6.0,0.0
10642,69.0,0.0,90.0,2.0,0.0
10643,45.0,0.0,90.0,3.0,0.0
10644,68.0,0.0,150.0,13.0,0.0
10645,71.0,0.0,180.0,5.0,0.0
10646,71.0,0.0,150.0,11.0,0.0
10647,64.0,24.0,150.0,1.0,0.0
10648,71.0,0.0,150.0,1.0,0.0
10649,64.0,0.0,15.0,2.0,0.0
10650,71.0,0.0,150.0,2.0,0.0
10651,64.0,0.0,15.0,12.0,0.0
10652,68.0,0.0,180.0,5.0,0.0
10653,64.0,0.0,15.0,5.0,0.0
10654,68.0,0.0,90.0,4.0,0.0
10655,40.0,0.0,90.0,3.0,0.0
10656,47.0,0.0,90.0,3.0,0.0
10657,40.0,0.0,90.0,15.0,0.0
10658,44.0,0.0,90.0,8.0,0.0
10659,52.0,0.0,90.0,7.0,0.0
10660,52.0,144.0,90.0,6.0,0.0
10661,56.0,0.0,90.0,6.0,0.0
10662,59.0,0.0,90.0,6.0,0.0
10663,59.0,0.0,90.0,4.0,0.0
10664,52.0,0.0,90.0,3.0,0.0
10665,52.0,0.0,90.0,4.0,0.0
10666,64.0,0.0,90.0,4.0,0.0
10667,56.0,0.0,90.0,14.0,0.0
10668,56.0,0.0,90.0,2.0,0.0
10669,64.0,0.0,180.0,13.0,0.0
10670,64.0,0.0,180.0,2.0,0.0
10671,64.0,0.0,15.0,12.0,0.0
10672,64.0,0.0,180.0,1.0,0.0
10673,64.0,24.0,20.0,11.0,0.0
10674,76.0,0.0,20.0,11.0,0.0
10675,73.0,0.0,150.0,2.0,0.0
10676,73.0,0.0,150.0,1.0,0.0
10677,73.0,24.0,150.0,11.0,0.0
10678,69.0,0.0,180.0,5.0,0.0
10679,73.0,0.0,180.0,5.0,0.0
10680,37.0,0.0,90.0,8.0,0.0
10681,61.0,0.0,90.0,4.0,0.0
10682,69.0,0.0,90.0,4.0,0.0
10683,57.0,0.0,90.0,7.0,0.0
10684,57.0,0.0,90.0,6.0,0.0
10685,45.0,0.0,90.0,3.0,0.0
10686,57.0,0.0,90.0,4.0,0.0
10687,52.0,0.0,90.0,6.0,0.0
10688,64.0,0.0,90.0,4.0,0.0
10689,57.0,0.0,90.0,2.0,0.0
10690,57.0,0.0,90.0,14.0,0.0
10691,52.0,0.0,90.0,3.0,0.0
10692,49.0,0.0,90.0,3.0,0.0
10693,45.0,0.0,90.0,15.0,0.0
10694,61.0,0.0,90.0,6.0,0.0
10695,66.0,0.0,60.0,1.0,0.0
10696,66.0,0.0,240.0,13.0,0.0
10697,66.0,0.0,60.0,12.0,0.0
10698,66.0,24.0,20.0,11.0,0.0
10699,66.0,0.0,60.0,2.0,0.0
10700,78.0,0.0,20.0,11.0,0.0
10701,74.0,0.0,180.0,5.0,0.0
10702,74.0,0.0,180.0,11.0,0.0
10703,71.0,0.0,180.0,12.0,0.0
10704,71.0,0.0,180.0,2.0,0.0
10705,74.0,0.0,180.0,2.0,0.0
10706,66.0,0.0,180.0,5.0,0.0
10707,71.0,0.0,180.0,5.0,0.0
10708,74.0,0.0,180.0,1.0,0.0
10709,71.0,0.0,180.0,1.0,0.0
10710,47.0,0.0,90.0,14.0,0.0
10711,35.0,0.0,90.0,3.0,0.0
10712,47.0,96.0,90.0,4.0,0.0
10713,54.0,0.0,90.0,4.0,0.0
10714,59.0,0.0,90.0,4.0,0.0
10715,50.0,0.0,90.0,6.0,0.0
10716,47.0,0.0,90.0,7.0,0.0
10717,42.0,0.0,90.0,6.0,0.0
10718,42.0,0.0,90.0,8.0,0.0
10719,35.0,0.0,90.0,15.0,0.0
10720,38.0,0.0,90.0,3.0,0.0
10721,50.0,0.0,90.0,4.0,0.0
10722,47.0,0.0,90.0,2.0,0.0
10723,42.0,0.0,90.0,3.0,0.0
10724,47.0,0.0,90.0,6.0,0.0
10725,73.0,96.0,90.0,5.0,0.0
10726,73.0,0.0,90.0,11.0,0.0
10727,61.0,0.0,90.0,5.0,0.0
10728,73.0,0.0,90.0,1.0,0.0
10729,64.0,0.0,90.0,2.0,0.0
10730,64.0,0.0,90.0,12.0,0.0
10731,64.0,0.0,90.0,1.0,0.0
10732,64.0,0.0,90.0,5.0,0.0
10733,73.0,0.0,90.0,2.0,0.0
10734,62.0,0.0,90.0,2.0,0.0
10735,71.0,0.0,90.0,11.0,0.0
10736,38.0,0.0,90.0,3.0,0.0
10737,50.0,0.0,90.0,2.0,0.0
10738,62.0,0.0,90.0,5.0,0.0
10739,59.0,0.0,90.0,5.0,0.0
10740,50.0,0.0,90.0,6.0,0.0
10741,50.0,0.0,90.0,14.0,0.0
10742,47.0,0.0,90.0,6.0,0.0
10743,62.0,0.0,90.0,4.0,0.0
10744,54.0,0.0,90.0,4.0,0.0
10745,54.0,0.0,90.0,6.0,0.0
10746,62.0,0.0,90.0,1.0,0.0
10747,71.0,0.0,90.0,1.0,0.0
10748,59.0,0.0,90.0,4.0,0.0
10749,71.0,0.0,90.0,2.0,0.0
10750,42.0,0.0,90.0,8.0,0.0
10751,62.0,0.0,90.0,12.0,0.0
10752,38.0,0.0,90.0,15.0,0.0
10753,50.0,0.0,90.0,4.0,0.0
10754,42.0,0.0,90.0,3.0,0.0
10755,47.0,0.0,90.0,3.0,0.0
10756,71.0,96.0,90.0,5.0,0.0
10757,50.0,0.0,90.0,7.0,0.0
10758,61.0,0.0,90.0,5.0,0.0
10759,57.0,0.0,90.0,5.0,0.0
10760,69.0,96.0,90.0,5.0,0.0
10761,69.0,0.0,90.0,1.0,0.0
10762,61.0,0.0,90.0,1.0,0.0
10763,69.0,0.0,90.0,2.0,0.0
10764,69.0,0.0,90.0,11.0,0.0
10765,61.0,0.0,90.0,2.0,0.0
10766,61.0,0.0,90.0,12.0,0.0
10767,56.0,0.0,90.0,5.0,0.0
10768,64.0,0.0,90.0,4.0,0.0
10769,59.0,0.0,90.0,5.0,0.0
10770,59.0,0.0,90.0,12.0,0.0
10771,59.0,96.0,90.0,2.0,0.0
10772,68.0,0.0,90.0,2.0,0.0
10773,56.0,0.0,90.0,4.0,0.0
10774,59.0,0.0,90.0,1.0,0.0
10775,40.0,0.0,90.0,15.0,0.0
10776,68.0,0.0,90.0,1.0,0.0
10777,68.0,0.0,90.0,11.0,0.0
10778,52.0,0.0,90.0,14.0,0.0
10779,44.0,0.0,90.0,3.0,0.0
10780,40.0,0.0,90.0,3.0,0.0
10781,52.0,0.0,90.0,6.0,0.0
10782,47.0,0.0,90.0,6.0,0.0
10783,52.0,0.0,90.0,4.0,0.0
10784,56.0,0.0,90.0,6.0,0.0
10785,59.0,0.0,90.0,4.0,0.0
10786,52.0,0.0,90.0,2.0,0.0
10787,68.0,0.0,90.0,5.0,0.0
10788,52.0,0.0,90.0,7.0,0.0
10789,44.0,0.0,90.0,8.0,0.0
10790,74.0,0.0,90.0,5.0,0.0
10791,66.0,0.0,90.0,12.0,0.0
10792,62.0,0.0,90.0,5.0,0.0
10793,66.0,96.0,90.0,5.0,0.0
10794,74.0,0.0,90.0,2.0,0.0
10795,66.0,0.0,90.0,2.0,0.0
10796,66.0,0.0,90.0,1.0,0.0
10797,74.0,0.0,90.0,11.0,0.0
10798,74.0,0.0,90.0,1.0,0.0
10799,44.0,0.0,90.0,8.0,0.0
10800,45.0,0.0,90.0,2.0,0.0
10801,45.0,0.0,90.0,4.0,0.0
10802,64.0,0.0,90.0,2.0,0.0
10803,33.0,0.0,90.0,15.0,0.0
10804,73.0,0.0,90.0,2.0,0.0
10805,64.0,0.0,90.0,12.0,0.0
10806,33.0,0.0,90.0,3.0,0.0
10807,40.0,0.0,90.0,6.0,0.0
10808,40.0,0.0,90.0,3.0,0.0
10809,45.0,0.0,90.0,3.0,0.0
10810,45.0,0.0,90.0,7.0,0.0
10811,40.0,0.0,90.0,14.0,0.0
10812,73.0,0.0,90.0,11.0,0.0
10813,52.0,0.0,90.0,4.0,0.0
10814,73.0,0.0,90.0,1.0,0.0
10815,64.0,96.0,90.0,1.0,0.0
10816,57.0,0.0,90.0,4.0,0.0
10817,73.0,0.0,90.0,5.0,0.0
10818,45.0,0.0,90.0,6.0,0.0
10819,64.0,0.0,90.0,5.0,0.0
10820,61.0,0.0,90.0,5.0,0.0
10821,71.0,0.0,90.0,11.0,0.0
10822,62.0,0.0,90.0,5.0,0.0
10823,59.0,0.0,90.0,5.0,0.0
10824,62.0,0.0,90.0,2.0,0.0
10825,71.0,0.0,90.0,2.0,0.0
10826,62.0,96.0,90.0,12.0,0.0
10827,71.0,0.0,90.0,5.0,0.0
10828,62.0,0.0,90.0,1.0,0.0
10829,71.0,0.0,90.0,1.0,0.0
10830,47.0,0.0,90.0,7.0,0.0
10831,47.0,0.0,90.0,6.0,0.0
10832,61.0,0.0,90.0,1.0,0.0
10833,42.0,0.0,90.0,3.0,0.0
10834,42.0,0.0,90.0,6.0,0.0
10835,69.0,96.0,90.0,11.0,0.0
10836,50.0,0.0,90.0,3.0,0.0
10837,50.0,0.0,90.0,2.0,0.0
10838,42.0,0.0,90.0,14.0,0.0
10839,50.0,0.0,90.0,6.0,0.0
10840,57.0,0.0,90.0,5.0,0.0
10841,61.0,0.0,90.0,5.0,0.0
10842,42.0,0.0,90.0,8.0,0.0
10843,47.0,0.0,90.0,4.0,0.0
10844,62.0,0.0,90.0,4.0,0.0
10845,69.0,0.0,90.0,5.0,0.0
10846,35.0,0.0,90.0,3.0,0.0
10847,35.0,0.0,90.0,15.0,0.0
10848,61.0,0.0,90.0,2.0,0.0
10849,69.0,0.0,90.0,2.0,0.0
10850,61.0,0.0,90.0,12.0,0.0
10851,69.0,0.0,90.0,1.0,0.0
10852,54.0,0.0,90.0,4.0,0.0
10853,54.0,24.0,330.0,10.0,0.0
10854,66.0,8.0,150.0,10.0,0.0
10855,68.0,0.0,90.0,5.0,0.0
10856,59.0,0.0,90.0,1.0,0.0
10857,68.0,0.0,90.0,11.0,0.0
10858,59.0,0.0,90.0,12.0,0.0
10859,56.0,0.0,90.0,5.0,0.0
10860,59.0,0.0,90.0,5.0,0.0
10861,59.0,24.0,90.0,2.0,0.0
10862,68.0,0.0,90.0,1.0,0.0
10863,68.0,0.0,90.0,2.0,0.0
10864,49.0,0.0,90.0,2.0,0.0
10865,56.0,0.0,90.0,12.0,0.0
10866,37.0,0.0,90.0,3.0,0.0
10867,49.0,0.0,90.0,4.0,0.0
10868,53.0,0.0,90.0,5.0,0.0
10869,56.0,0.0,90.0,5.0,0.0
10870,53.0,0.0,90.0,6.0,0.0
10871,56.0,0.0,90.0,4.0,0.0
10872,53.0,0.0,90.0,4.0,0.0
10873,65.0,0.0,20.0,5.0,0.0
10874,49.0,0.0,90.0,7.0,0.0
10875,65.0,0.0,20.0,11.0,0.0
10876,37.0,0.0,90.0,15.0,0.0
10877,49.0,0.0,90.0,6.0,0.0
10878,44.0,0.0,90.0,6.0,0.0
10879,61.0,0.0,90.0,4.0,0.0
10880,37.0,0.0,90.0,8.0,0.0
10881,56.0,0.0,90.0,2.0,0.0
10882,56.0,0.0,90.0,1.0,0.0
10883,65.0,24.0,20.0,1.0,0.0
10884,49.0,0.0,90.0,14.0,0.0
10885,41.0,0.0,90.0,3.0,0.0
10886,44.0,0.0,90.0,3.0,0.0
10887,65.0,0.0,20.0,2.0,0.0
10888,66.0,0.0,20.0,1.0,0.0
10889,66.0,0.0,20.0,5.0,0.0
10890,66.0,0.0,20.0,11.0,0.0
10891,66.0,16.0,20.0,2.0,0.0
10892,65.0,0.0,20.0,2.0,0.0
10893,65.0,0.0,20.0,11.0,0.0
10894,65.0,0.0,20.0,1.0,0.0
10895,65.0,24.0,20.0,5.0,0.0
10896,63.0,0.0,20.0,2.0,0.0
10897,63.0,0.0,20.0,11.0,0.0
10898,63.0,0.0,20.0,5.0,0.0
10899,63.0,108.0,20.0,1.0,0.0
10900,65.0,0.0,180.0,1.0,0.0
10901,65.0,0.0,180.0,11.0,0.0
10902,65.0,0.0,180.0,2.0,0.0
10903,65.0,0.0,180.0,5.0,0.0
10904,68.0,0.0,150.0,1.0,0.0
10905,59.0,0.0,150.0,5.0,0.0
10906,59.0,0.0,150.0,13.0,0.0
10907,56.0,0.0,150.0,5.0,0.0
10908,68.0,0.0,150.0,2.0,0.0
10909,66.0,32.0,150.0,10.0,0.0
10910,68.0,16.0,150.0,12.0,0.0
10911,30.0,0.0,90.0,3.0,0.0
10912,30.0,0.0,90.0,15.0,0.0
10913,37.0,12.0,15.0,8.0,0.0
10914,37.0,0.0,120.0,3.0,0.0
10915,37.0,0.0,120.0,14.0,0.0
10916,37.0,24.0,15.0,8.0,0.0
10917,42.0,0.0,90.0,2.0,0.0
10918,37.0,0.0,90.0,8.0,0.0
10919,42.0,0.0,150.0,4.0,0.0
10920,42.0,0.0,90.0,7.0,0.0
10921,49.0,0.0,150.0,4.0,0.0
10922,42.0,0.0,150.0,3.0,0.0
10923,42.0,0.0,240.0,15.0,0.0
10924,42.0,0.0,60.0,6.0,0.0
10925,66.0,12.0,60.0,12.0,0.0
10926,57.0,0.0,15.0,13.0,0.0
10927,57.0,0.0,15.0,5.0,0.0
10928,66.0,0.0,15.0,11.0,0.0
10929,54.0,0.0,15.0,5.0,0.0
10930,61.0,0.0,150.0,10.0,0.0
10931,54.0,32.0,150.0,10.0,0.0
10932,66.0,0.0,15.0,5.0,0.0
10933,45.0,216.0,180.0,3.0,0.0
10934,54.0,0.0,180.0,14.0,0.0
10935,66.0,0.0,15.0,1.0,0.0
10936,57.0,0.0,15.0,1.0,0.0
10937,66.0,0.0,15.0,2.0,0.0
10938,57.0,0.0,15.0,2.0,0.0
10939,54.0,0.0,180.0,7.0,0.0
10940,49.0,0.0,60.0,6.0,0.0
10941,66.0,0.0,180.0,12.0,0.0
10942,42.0,12.0,15.0,8.0,0.0
10943,42.0,40.0,90.0,8.0,0.0
10944,54.0,0.0,150.0,4.0,0.0
10945,61.0,0.0,150.0,4.0,0.0
10946,54.0,0.0,150.0,6.0,0.0
10947,57.0,0.0,150.0,6.0,0.0
10948,54.0,0.0,90.0,2.0,0.0
10949,49.0,0.0,90.0,3.0,0.0
10950,57.0,0.0,90.0,4.0,0.0
10951,78.0,0.0,20.0,11.0,0.0
10952,78.0,0.0,20.0,12.0,0.0
10953,30.0,2.0,90.0,3.0,0.0
10954,78.0,8.0,20.0,0.0,0.0
10955,42.0,16.0,30.0,2.0,0.0
10956,30.0,32.0,90.0,15.0,0.0
10957,42.0,0.0,30.0,14.0,0.0
10958,70.0,0.0,180.0,13.0,0.0
10959,42.0,0.0,30.0,3.0,0.0
10960,90.0,0.0,20.0,0.0,0.0
10961,80.0,0.0,20.0,11.0,0.0
10962,80.0,24.0,20.0,12.0,0.0
10963,92.0,0.0,20.0,0.0,0.0
10964,80.0,0.0,20.0,0.0,0.0
10965,78.0,0.0,20.0,12.0,0.0
10966,90.0,0.0,20.0,0.0,0.0
10967,54.0,0.0,30.0,3.0,0.0
10968,54.0,14.0,30.0,14.0,0.0
10969,78.0,0.0,20.0,0.0,0.0
10970,78.0,8.0,20.0,11.0,0.0
10971,92.0,0.0,20.0,0.0,0.0
10972,80.0,0.0,20.0,12.0,0.0
10973,80.0,0.0,20.0,0.0,0.0
10974,80.0,0.0,20.0,11.0,0.0
10975,34.0,0.0,30.0,14.0,0.0
10976,46.0,32.0,30.0,2.0,0.0
10977,90.0,0.0,30.0,0.0,0.0
10978,34.0,32.0,90.0,15.0,0.0
10979,78.0,0.0,30.0,0.0,0.0
10980,34.0,0.0,30.0,3.0,0.0
10981,78.0,0.0,30.0,12.0,0.0
10982,78.0,0.0,30.0,11.0,0.0
10983,77.0,0.0,30.0,12.0,0.0
10984,89.0,0.0,30.0,0.0,0.0
10985,77.0,0.0,30.0,11.0,0.0
10986,77.0,16.0,30.0,0.0,0.0
10987,46.0,14.0,30.0,3.0,0.0
10988,46.0,0.0,30.0,14.0,0.0
10989,78.0,0.0,30.0,0.0,0.0
10990,90.0,0.0,30.0,0.0,0.0
10991,78.0,0.0,30.0,11.0,0.0
10992,78.0,0.0,30.0,12.0,0.0
10993,37.0,0.0,30.0,14.0,0.0
10994,77.0,0.0,30.0,11.0,0.0
10995,37.0,32.0,90.0,15.0,0.0
10996,89.0,0.0,30.0,0.0,0.0
10997,77.0,0.0,30.0,0.0,0.0
10998,77.0,0.0,30.0,12.0,0.0
10999,49.0,0.0,30.0,2.0,0.0
11000,37.0,48.0,30.0,3.0,0.0
11001,68.0,0.0,30.0,13.0,0.0
11002,49.0,0.0,30.0,14.0,0.0
11003,75.0,0.0,30.0,12.0,0.0
11004,49.0,0.0,30.0,3.0,0.0
11005,75.0,0.0,30.0,11.0,0.0
11006,87.0,14.0,30.0,0.0,0.0
11007,75.0,0.0,30.0,0.0,0.0
11008,66.0,0.0,30.0,13.0,0.0
11009,73.0,48.0,30.0,0.0,0.0
11010,53.0,0.0,30.0,2.0,0.0
11011,65.0,0.0,30.0,13.0,0.0
11012,41.0,0.0,30.0,14.0,0.0
11013,73.0,0.0,30.0,12.0,0.0
11014,41.0,0.0,30.0,3.0,0.0
11015,73.0,0.0,30.0,11.0,0.0
11016,85.0,0.0,30.0,0.0,0.0
11017,41.0,32.0,90.0,15.0,0.0
11018,71.0,0.0,30.0,0.0,0.0
11019,71.0,0.0,30.0,11.0,0.0
11020,53.0,0.0,30.0,14.0,0.0
11021,53.0,0.0,30.0,3.0,0.0
11022,71.0,14.0,30.0,12.0,0.0
11023,63.0,0.0,30.0,13.0,0.0
11024,83.0,0.0,30.0,0.0,0.0
11025,42.0,0.0,30.0,14.0,0.0
11026,70.0,0.0,30.0,11.0,0.0
11027,70.0,0.0,30.0,12.0,0.0
11028,42.0,0.0,30.0,3.0,0.0
11029,54.0,0.0,30.0,2.0,0.0
11030,42.0,32.0,90.0,15.0,0.0
11031,61.0,48.0,30.0,13.0,0.0
11032,70.0,0.0,30.0,0.0,0.0
11033,82.0,0.0,30.0,0.0,0.0
11034,59.0,0.0,30.0,13.0,0.0
11035,68.0,0.0,30.0,12.0,0.0
11036,68.0,0.0,30.0,11.0,0.0
11037,80.0,0.0,30.0,0.0,0.0
11038,68.0,0.0,30.0,0.0,0.0
11039,49.0,14.0,30.0,3.0,0.0
11040,49.0,0.0,30.0,14.0,0.0
11041,66.0,0.0,30.0,0.0,0.0
11042,66.0,0.0,30.0,12.0,0.0
11043,78.0,48.0,30.0,0.0,0.0
11044,54.0,0.0,30.0,3.0,0.0
11045,54.0,32.0,90.0,15.0,0.0
11046,58.0,0.0,30.0,13.0,0.0
11047,66.0,0.0,30.0,11.0,0.0
11048,54.0,0.0,30.0,14.0,0.0
11049,49.0,0.0,30.0,3.0,0.0
11050,68.0,0.0,30.0,0.0,0.0
11051,68.0,0.0,30.0,12.0,0.0
11052,49.0,0.0,30.0,14.0,0.0
11053,59.0,0.0,30.0,13.0,0.0
11054,80.0,0.0,30.0,0.0,0.0
11055,68.0,16.0,30.0,11.0,0.0
11056,70.0,0.0,30.0,12.0,0.0
11057,42.0,0.0,30.0,14.0,0.0
11058,42.0,0.0,30.0,3.0,0.0
11059,70.0,0.0,30.0,11.0,0.0
11060,61.0,0.0,30.0,13.0,0.0
11061,82.0,0.0,30.0,0.0,0.0
11062,70.0,48.0,30.0,0.0,0.0
11063,42.0,32.0,90.0,15.0,0.0
11064,54.0,0.0,30.0,14.0,0.0
11065,54.0,16.0,30.0,3.0,0.0
11066,71.0,0.0,90.0,0.0,0.0
11067,83.0,0.0,90.0,0.0,0.0
11068,47.0,48.0,30.0,2.0,0.0
11069,35.0,0.0,30.0,14.0,0.0
11070,71.0,32.0,90.0,11.0,0.0
11071,71.0,0.0,90.0,12.0,0.0
11072,63.0,0.0,90.0,13.0,0.0
11073,35.0,0.0,30.0,3.0,0.0
11074,35.0,0.0,90.0,15.0,0.0
11075,47.0,14.0,30.0,14.0,0.0
11076,47.0,0.0,30.0,3.0,0.0
11077,54.0,48.0,30.0,2.0,0.0
11078,61.0,0.0,90.0,13.0,0.0
11079,82.0,2.0,90.0,0.0,0.0
11080,42.0,0.0,30.0,3.0,0.0
11081,66.0,0.0,90.0,12.0,0.0
11082,70.0,0.0,90.0,0.0,0.0
11083,42.0,32.0,90.0,15.0,0.0
11084,42.0,0.0,30.0,14.0,0.0
11085,70.0,0.0,90.0,11.0,0.0
11086,54.0,14.0,30.0,3.0,0.0
11087,54.0,0.0,30.0,14.0,0.0
11088,30.0,2.0,90.0,3.0,0.0
11089,30.0,32.0,90.0,15.0,0.0
11090,59.0,0.0,30.0,13.0,0.0
11091,42.0,0.0,30.0,14.0,0.0
11092,68.0,0.0,30.0,12.0,0.0
11093,42.0,48.0,30.0,2.0,0.0
11094,68.0,0.0,30.0,11.0,0.0
11095,42.0,0.0,30.0,3.0,0.0
11096,66.0,14.0,30.0,12.0,0.0
11097,54.0,0.0,30.0,14.0,0.0
11098,58.0,0.0,30.0,13.0,0.0
11099,54.0,0.0,30.0,3.0,0.0
11100,66.0,0.0,30.0,11.0,0.0
11101,56.0,0.0,30.0,13.0,0.0
11102,65.0,0.0,30.0,12.0,0.0
11103,49.0,0.0,30.0,2.0,0.0
11104,37.0,32.0,90.0,15.0,0.0
11105,65.0,0.0,30.0,11.0,0.0
11106,37.0,48.0,30.0,14.0,0.0
11107,37.0,0.0,30.0,3.0,0.0
11108,49.0,0.0,30.0,14.0,0.0
11109,63.0,0.0,30.0,12.0,0.0
11110,63.0,0.0,30.0,11.0,0.0
11111,49.0,0.0,30.0,3.0,0.0
11112,54.0,14.0,30.0,13.0,0.0
11113,25.0,32.0,90.0,15.0,0.0
11114,61.0,0.0,30.0,12.0,0.0
11115,37.0,0.0,30.0,14.0,0.0
11116,25.0,2.0,90.0,3.0,0.0
11117,37.0,0.0,30.0,3.0,0.0
11118,37.0,0.0,30.0,2.0,0.0
11119,61.0,48.0,30.0,11.0,0.0
11120,53.0,0.0,30.0,13.0,0.0
11121,59.0,0.0,30.0,11.0,0.0
11122,51.0,0.0,30.0,13.0,0.0
11123,49.0,0.0,30.0,3.0,0.0
11124,49.0,0.0,30.0,14.0,0.0
11125,59.0,14.0,30.0,12.0,0.0
11126,58.0,0.0,30.0,11.0,0.0
11127,49.0,0.0,30.0,13.0,0.0
11128,58.0,0.0,30.0,12.0,0.0
11129,30.0,32.0,90.0,15.0,0.0
11130,42.0,48.0,30.0,3.0,0.0
11131,42.0,0.0,30.0,14.0,0.0
11132,42.0,0.0,30.0,2.0,0.0
11133,30.0,2.0,90.0,3.0,0.0
11134,47.0,0.0,30.0,13.0,0.0
11135,56.0,0.0,30.0,12.0,0.0
11136,37.0,14.0,30.0,14.0,0.0
11137,56.0,0.0,30.0,11.0,0.0
11138,37.0,0.0,30.0,3.0,0.0
11139,54.0,0.0,30.0,2.0,0.0
11140,54.0,0.0,30.0,12.0,0.0
11141,54.0,0.0,30.0,11.0,0.0
11142,42.0,0.0,30.0,14.0,0.0
11143,46.0,48.0,30.0,13.0,0.0
11144,42.0,32.0,90.0,15.0,0.0
11145,42.0,0.0,30.0,3.0,0.0
11146,49.0,0.0,30.0,14.0,0.0
11147,49.0,0.0,30.0,3.0,0.0
11148,56.0,14.0,30.0,11.0,0.0
11149,56.0,0.0,30.0,12.0,0.0
11150,47.0,0.0,30.0,13.0,0.0
11151,49.0,32.0,90.0,13.0,0.0
11152,42.0,0.0,30.0,2.0,0.0
11153,58.0,0.0,90.0,12.0,0.0
11154,42.0,48.0,30.0,14.0,0.0
11155,30.0,0.0,90.0,15.0,0.0
11156,30.0,2.0,90.0,3.0,0.0
11157,58.0,0.0,90.0,11.0,0.0
11158,54.0,14.0,30.0,14.0,0.0
11159,29.0,2.0,90.0,3.0,0.0
11160,57.0,0.0,30.0,12.0,0.0
11161,41.0,0.0,30.0,14.0,0.0
11162,41.0,48.0,30.0,2.0,0.0
11163,60.0,0.0,30.0,11.0,0.0
11164,53.0,0.0,30.0,13.0,0.0
11165,29.0,24.0,90.0,15.0,0.0
11166,53.0,14.0,30.0,14.0,0.0
11167,82.0,8.0,20.0,12.0,0.0
11168,94.0,0.0,20.0,0.0,0.0
11169,46.0,0.0,30.0,2.0,0.0
11170,34.0,16.0,30.0,14.0,0.0
11171,73.0,0.0,180.0,13.0,0.0
11172,82.0,0.0,20.0,11.0,0.0
11173,82.0,0.0,20.0,0.0,0.0
11174,34.0,0.0,30.0,3.0,0.0
11175,34.0,0.0,90.0,15.0,0.0
11176,84.0,0.0,20.0,0.0,0.0
11177,84.0,24.0,20.0,11.0,0.0
11178,96.0,0.0,20.0,0.0,0.0
11179,84.0,0.0,20.0,12.0,0.0
11180,46.0,0.0,30.0,14.0,0.0
11181,46.0,14.0,30.0,3.0,0.0
11182,82.0,0.0,20.0,11.0,0.0
11183,82.0,8.0,20.0,0.0,0.0
11184,82.0,0.0,20.0,12.0,0.0
11185,94.0,0.0,20.0,0.0,0.0
11186,84.0,0.0,20.0,0.0,0.0
11187,84.0,32.0,20.0,11.0,0.0
11188,96.0,0.0,20.0,0.0,0.0
11189,84.0,0.0,20.0,12.0,0.0
11190,37.0,0.0,90.0,15.0,0.0
11191,94.0,0.0,30.0,0.0,0.0
11192,37.0,0.0,30.0,14.0,0.0
11193,82.0,32.0,30.0,11.0,0.0
11194,37.0,0.0,30.0,3.0,0.0
11195,49.0,0.0,30.0,2.0,0.0
11196,82.0,0.0,30.0,12.0,0.0
11197,82.0,0.0,30.0,0.0,0.0
11198,81.0,0.0,30.0,12.0,0.0
11199,81.0,0.0,30.0,11.0,0.0
11200,81.0,0.0,30.0,0.0,0.0
11201,93.0,16.0,30.0,0.0,0.0
11202,49.0,14.0,30.0,14.0,0.0
11203,49.0,0.0,30.0,3.0,0.0
11204,82.0,32.0,30.0,12.0,0.0
11205,82.0,0.0,30.0,0.0,0.0
11206,82.0,0.0,30.0,11.0,0.0
11207,94.0,0.0,30.0,0.0,0.0
11208,51.0,0.0,30.0,2.0,0.0
11209,39.0,0.0,30.0,14.0,0.0
11210,81.0,0.0,30.0,0.0,0.0
11211,72.0,48.0,30.0,13.0,0.0
11212,93.0,0.0,30.0,0.0,0.0
11213,39.0,0.0,30.0,3.0,0.0
11214,81.0,0.0,30.0,11.0,0.0
11215,39.0,32.0,90.0,15.0,0.0
11216,81.0,0.0,30.0,12.0,0.0
11217,78.0,0.0,30.0,0.0,0.0
11218,51.0,0.0,30.0,3.0,0.0
11219,78.0,14.0,30.0,12.0,0.0
11220,78.0,0.0,30.0,11.0,0.0
11221,51.0,0.0,30.0,14.0,0.0
11222,70.0,0.0,30.0,13.0,0.0
11223,90.0,0.0,30.0,0.0,0.0
11224,77.0,0.0,30.0,12.0,0.0
11225,77.0,0.0,30.0,11.0,0.0
11226,42.0,48.0,30.0,3.0,0.0
11227,54.0,0.0,30.0,2.0,0.0
11228,89.0,0.0,30.0,0.0,0.0
11229,42.0,32.0,90.0,15.0,0.0
11230,69.0,0.0,30.0,13.0,0.0
11231,77.0,0.0,30.0,0.0,0.0
11232,42.0,0.0,30.0,14.0,0.0
11233,75.0,0.0,30.0,12.0,0.0
11234,54.0,0.0,30.0,3.0,0.0
11235,66.0,14.0,30.0,13.0,0.0
11236,54.0,0.0,30.0,14.0,0.0
11237,75.0,0.0,30.0,11.0,0.0
11238,87.0,0.0,30.0,0.0,0.0
11239,75.0,0.0,30.0,0.0,0.0
11240,73.0,0.0,30.0,11.0,0.0
11241,46.0,32.0,90.0,15.0,0.0
11242,46.0,0.0,30.0,3.0,0.0
11243,46.0,48.0,30.0,14.0,0.0
11244,73.0,0.0,30.0,12.0,0.0
11245,85.0,0.0,30.0,0.0,0.0
11246,73.0,0.0,30.0,0.0,0.0
11247,58.0,0.0,30.0,2.0,0.0
11248,65.0,0.0,30.0,13.0,0.0
11249,53.0,14.0,30.0,14.0,0.0
11250,53.0,0.0,30.0,3.0,0.0
11251,72.0,0.0,30.0,12.0,0.0
11252,72.0,0.0,30.0,11.0,0.0
11253,72.0,0.0,30.0,0.0,0.0
11254,84.0,0.0,30.0,0.0,0.0
11255,63.0,0.0,30.0,13.0,0.0
11256,58.0,32.0,90.0,15.0,0.0
11257,70.0,0.0,30.0,0.0,0.0
11258,70.0,0.0,30.0,12.0,0.0
11259,70.0,0.0,30.0,11.0,0.0
11260,58.0,0.0,30.0,3.0,0.0
11261,82.0,0.0,30.0,0.0,0.0
11262,58.0,0.0,30.0,14.0,0.0
11263,61.0,48.0,30.0,13.0,0.0
11264,84.0,0.0,30.0,0.0,0.0
11265,72.0,0.0,30.0,0.0,0.0
11266,72.0,16.0,30.0,12.0,0.0
11267,63.0,0.0,30.0,13.0,0.0
11268,53.0,0.0,30.0,14.0,0.0
11269,53.0,0.0,30.0,3.0,0.0
11270,72.0,0.0,30.0,11.0,0.0
11271,85.0,0.0,30.0,0.0,0.0
11272,46.0,32.0,90.0,15.0,0.0
11273,73.0,0.0,30.0,11.0,0.0
11274,73.0,0.0,30.0,0.0,0.0
11275,46.0,0.0,30.0,14.0,0.0
11276,46.0,48.0,30.0,3.0,0.0
11277,65.0,0.0,30.0,13.0,0.0
11278,73.0,0.0,30.0,12.0,0.0
11279,58.0,0.0,30.0,14.0,0.0
11280,58.0,16.0,30.0,3.0,0.0
11281,51.0,0.0,30.0,2.0,0.0
11282,39.0,48.0,30.0,14.0,0.0
11283,75.0,0.0,90.0,0.0,0.0
11284,75.0,32.0,90.0,11.0,0.0
11285,75.0,0.0,90.0,12.0,0.0
11286,87.0,0.0,90.0,0.0,0.0
11287,66.0,0.0,90.0,13.0,0.0
11288,39.0,0.0,90.0,15.0,0.0
11289,39.0,0.0,30.0,3.0,0.0
11290,51.0,0.0,30.0,3.0,0.0
11291,51.0,14.0,30.0,14.0,0.0
11292,46.0,0.0,90.0,15.0,0.0
11293,46.0,0.0,30.0,3.0,0.0
11294,85.0,2.0,90.0,0.0,0.0
11295,70.0,0.0,90.0,12.0,0.0
11296,46.0,0.0,30.0,14.0,0.0
11297,73.0,0.0,90.0,0.0,0.0
11298,65.0,32.0,90.0,13.0,0.0
11299,58.0,48.0,30.0,2.0,0.0
11300,73.0,0.0,90.0,11.0,0.0
11301,58.0,0.0,30.0,3.0,0.0
11302,58.0,14.0,30.0,14.0,0.0
11303,46.0,0.0,30.0,2.0,0.0
11304,72.0,0.0,30.0,11.0,0.0
11305,72.0,32.0,60.0,12.0,0.0
11306,34.0,32.0,90.0,15.0,0.0
11307,34.0,0.0,30.0,14.0,0.0
11308,34.0,0.0,30.0,3.0,0.0
11309,63.0,16.0,30.0,13.0,0.0
11310,46.0,0.0,30.0,14.0,0.0
11311,61.0,0.0,30.0,13.0,0.0
11312,46.0,0.0,30.0,3.0,0.0
11313,70.0,0.0,30.0,12.0,0.0
11314,70.0,14.0,30.0,11.0,0.0
11315,39.0,32.0,90.0,15.0,0.0
11316,51.0,0.0,30.0,2.0,0.0
11317,60.0,0.0,30.0,13.0,0.0
11318,39.0,0.0,30.0,3.0,0.0
11319,39.0,48.0,30.0,14.0,0.0
11320,68.0,0.0,30.0,11.0,0.0
11321,68.0,0.0,30.0,12.0,0.0
11322,66.0,0.0,30.0,11.0,0.0
11323,66.0,14.0,30.0,12.0,0.0
11324,51.0,0.0,30.0,14.0,0.0
11325,51.0,0.0,30.0,3.0,0.0
11326,58.0,0.0,30.0,13.0,0.0
11327,27.0,2.0,90.0,3.0,0.0
11328,27.0,32.0,90.0,15.0,0.0
11329,56.0,0.0,30.0,13.0,0.0
11330,65.0,0.0,30.0,11.0,0.0
11331,39.0,0.0,30.0,2.0,0.0
11332,39.0,48.0,30.0,14.0,0.0
11333,65.0,0.0,30.0,12.0,0.0
11334,39.0,0.0,30.0,3.0,0.0
11335,54.0,14.0,30.0,13.0,0.0
11336,51.0,0.0,30.0,14.0,0.0
11337,51.0,0.0,30.0,3.0,0.0
11338,63.0,0.0,30.0,12.0,0.0
11339,63.0,0.0,30.0,11.0,0.0
11340,34.0,32.0,90.0,15.0,0.0
11341,53.0,0.0,30.0,13.0,0.0
11342,61.0,0.0,30.0,12.0,0.0
11343,46.0,0.0,30.0,2.0,0.0
11344,34.0,0.0,30.0,3.0,0.0
11345,34.0,0.0,30.0,14.0,0.0
11346,61.0,48.0,30.0,11.0,0.0
11347,51.0,14.0,30.0,13.0,0.0
11348,41.0,0.0,30.0,14.0,0.0
11349,41.0,0.0,30.0,3.0,0.0
11350,60.0,0.0,30.0,12.0,0.0
11351,60.0,0.0,30.0,11.0,0.0
11352,58.0,0.0,30.0,11.0,0.0
11353,58.0,0.0,30.0,12.0,0.0
11354,46.0,68.0,90.0,15.0,0.0
11355,46.0,0.0,30.0,14.0,0.0
11356,49.0,0.0,30.0,13.0,0.0
11357,46.0,0.0,30.0,3.0,0.0
11358,58.0,48.0,30.0,2.0,0.0
11359,60.0,14.0,30.0,12.0,0.0
11360,60.0,0.0,30.0,11.0,0.0
11361,51.0,0.0,30.0,13.0,0.0
11362,41.0,0.0,30.0,3.0,0.0
11363,41.0,0.0,30.0,14.0,0.0
11364,61.0,0.0,90.0,12.0,0.0
11365,34.0,28.0,60.0,14.0,0.0
11366,34.0,0.0,60.0,3.0,0.0
11367,34.0,0.0,90.0,15.0,0.0
11368,46.0,0.0,90.0,2.0,0.0
11369,53.0,0.0,90.0,13.0,0.0
11370,61.0,0.0,90.0,11.0,0.0
11371,37.0,2.0,90.0,3.0,0.0
11372,49.0,0.0,90.0,2.0,0.0
11373,37.0,0.0,30.0,15.0,0.0
11374,49.0,0.0,30.0,13.0,0.0
11375,59.0,0.0,30.0,11.0,0.0
11376,53.0,0.0,30.0,12.0,0.0
11377,44.0,62.0,30.0,3.0,0.0
11378,44.0,0.0,30.0,14.0,0.0
11379,78.0,0.0,20.0,12.0,0.0
11380,78.0,8.0,20.0,0.0,0.0
11381,30.0,2.0,90.0,3.0,0.0
11382,90.0,0.0,20.0,0.0,0.0
11383,30.0,0.0,90.0,15.0,0.0
11384,42.0,16.0,30.0,2.0,0.0
11385,42.0,0.0,30.0,3.0,0.0
11386,78.0,0.0,20.0,11.0,0.0
11387,70.0,0.0,180.0,13.0,0.0
11388,42.0,0.0,30.0,14.0,0.0
11389,92.0,0.0,20.0,0.0,0.0
11390,80.0,24.0,20.0,11.0,0.0
11391,80.0,0.0,20.0,0.0,0.0
11392,80.0,0.0,20.0,12.0,0.0
11393,78.0,0.0,20.0,0.0,0.0
11394,78.0,8.0,20.0,12.0,0.0
11395,54.0,0.0,30.0,3.0,0.0
11396,90.0,0.0,20.0,0.0,0.0
11397,78.0,0.0,20.0,11.0,0.0
11398,54.0,14.0,30.0,14.0,0.0
11399,92.0,0.0,20.0,0.0,0.0
11400,80.0,0.0,20.0,11.0,0.0
11401,80.0,32.0,20.0,12.0,0.0
11402,80.0,0.0,20.0,0.0,0.0
11403,78.0,0.0,30.0,11.0,0.0
11404,78.0,32.0,30.0,0.0,0.0
11405,78.0,0.0,30.0,12.0,0.0
11406,90.0,0.0,30.0,0.0,0.0
11407,34.0,0.0,30.0,14.0,0.0
11408,34.0,0.0,90.0,15.0,0.0
11409,46.0,0.0,30.0,2.0,0.0
11410,34.0,0.0,30.0,3.0,0.0
11411,77.0,16.0,30.0,12.0,0.0
11412,77.0,0.0,30.0,0.0,0.0
11413,89.0,0.0,30.0,0.0,0.0
11414,77.0,0.0,30.0,11.0,0.0
11415,46.0,0.0,30.0,14.0,0.0
11416,46.0,14.0,30.0,3.0,0.0
11417,78.0,0.0,30.0,0.0,0.0
11418,78.0,0.0,30.0,11.0,0.0
11419,90.0,0.0,30.0,0.0,0.0
11420,78.0,32.0,30.0,12.0,0.0
11421,89.0,0.0,30.0,0.0,0.0
11422,77.0,0.0,30.0,11.0,0.0
11423,49.0,0.0,30.0,2.0,0.0
11424,77.0,0.0,30.0,0.0,0.0
11425,37.0,0.0,30.0,14.0,0.0
11426,68.0,0.0,30.0,13.0,0.0
11427,37.0,48.0,30.0,3.0,0.0
11428,77.0,0.0,30.0,12.0,0.0
11429,37.0,32.0,90.0,15.0,0.0
11430,75.0,14.0,30.0,12.0,0.0
11431,87.0,0.0,30.0,0.0,0.0
11432,75.0,0.0,30.0,0.0,0.0
11433,49.0,0.0,30.0,3.0,0.0
11434,75.0,0.0,30.0,11.0,0.0
11435,49.0,0.0,30.0,14.0,0.0
11436,66.0,0.0,30.0,13.0,0.0
11437,53.0,0.0,30.0,2.0,0.0
11438,85.0,0.0,30.0,0.0,0.0
11439,65.0,0.0,30.0,13.0,0.0
11440,73.0,0.0,30.0,12.0,0.0
11441,73.0,0.0,30.0,0.0,0.0
11442,41.0,32.0,90.0,15.0,0.0
11443,41.0,0.0,30.0,3.0,0.0
11444,41.0,48.0,30.0,14.0,0.0
11445,73.0,0.0,30.0,11.0,0.0
11446,71.0,0.0,30.0,0.0,0.0
11447,63.0,0.0,30.0,13.0,0.0
11448,53.0,0.0,30.0,14.0,0.0
11449,83.0,14.0,30.0,0.0,0.0
11450,71.0,0.0,30.0,11.0,0.0
11451,53.0,0.0,30.0,3.0,0.0
11452,71.0,0.0,30.0,12.0,0.0
11453,70.0,0.0,30.0,11.0,0.0
11454,70.0,0.0,30.0,12.0,0.0
11455,42.0,0.0,30.0,14.0,0.0
11456,54.0,48.0,30.0,2.0,0.0
11457,70.0,0.0,30.0,0.0,0.0
11458,42.0,32.0,90.0,15.0,0.0
11459,61.0,0.0,30.0,13.0,0.0
11460,42.0,0.0,30.0,3.0,0.0
11461,82.0,0.0,30.0,0.0,0.0
11462,68.0,0.0,30.0,12.0,0.0
11463,49.0,0.0,30.0,3.0,0.0
11464,68.0,0.0,30.0,0.0,0.0
11465,49.0,14.0,30.0,14.0,0.0
11466,80.0,0.0,30.0,0.0,0.0
11467,59.0,0.0,30.0,13.0,0.0
11468,68.0,0.0,30.0,11.0,0.0
11469,66.0,48.0,30.0,12.0,0.0
11470,66.0,0.0,30.0,11.0,0.0
11471,66.0,0.0,30.0,0.0,0.0
11472,58.0,0.0,30.0,13.0,0.0
11473,54.0,0.0,30.0,14.0,0.0
11474,78.0,0.0,30.0,0.0,0.0
11475,54.0,0.0,30.0,3.0,0.0
11476,54.0,32.0,90.0,15.0,0.0
11477,80.0,0.0,30.0,0.0,0.0
11478,49.0,0.0,30.0,14.0,0.0
11479,59.0,0.0,30.0,13.0,0.0
11480,68.0,0.0,30.0,11.0,0.0
11481,68.0,0.0,30.0,12.0,0.0
11482,49.0,0.0,30.0,3.0,0.0
11483,68.0,16.0,30.0,0.0,0.0
11484,70.0,48.0,30.0,0.0,0.0
11485,70.0,0.0,30.0,12.0,0.0
11486,82.0,0.0,30.0,0.0,0.0
11487,42.0,0.0,30.0,14.0,0.0
11488,61.0,0.0,30.0,13.0,0.0
11489,70.0,0.0,30.0,11.0,0.0
11490,42.0,0.0,30.0,3.0,0.0
11491,42.0,32.0,90.0,15.0,0.0
11492,54.0,0.0,30.0,3.0,0.0
11493,54.0,16.0,30.0,14.0,0.0
11494,63.0,32.0,90.0,13.0,0.0
11495,71.0,0.0,90.0,11.0,0.0
11496,71.0,0.0,90.0,0.0,0.0
11497,71.0,0.0,90.0,12.0,0.0
11498,35.0,0.0,30.0,3.0,0.0
11499,83.0,0.0,90.0,0.0,0.0
11500,47.0,48.0,30.0,2.0,0.0
11501,35.0,0.0,30.0,14.0,0.0
11502,35.0,0.0,90.0,15.0,0.0
11503,47.0,0.0,30.0,14.0,0.0
11504,47.0,14.0,30.0,3.0,0.0
11505,42.0,0.0,90.0,15.0,0.0
11506,66.0,0.0,90.0,12.0,0.0
11507,42.0,0.0,30.0,14.0,0.0
11508,70.0,0.0,90.0,0.0,0.0
11509,54.0,48.0,30.0,2.0,0.0
11510,70.0,0.0,90.0,11.0,0.0
11511,61.0,32.0,90.0,13.0,0.0
11512,42.0,0.0,30.0,3.0,0.0
11513,82.0,0.0,90.0,0.0,0.0
11514,54.0,14.0,30.0,14.0,0.0
11515,54.0,0.0,30.0,3.0,0.0
11516,42.0,0.0,30.0,2.0,0.0
11517,30.0,32.0,90.0,15.0,0.0
11518,59.0,48.0,30.0,13.0,0.0
11519,42.0,0.0,30.0,14.0,0.0
11520,68.0,0.0,30.0,11.0,0.0
11521,30.0,2.0,90.0,3.0,0.0
11522,42.0,0.0,30.0,3.0,0.0
11523,68.0,0.0,30.0,12.0,0.0
11524,58.0,0.0,30.0,13.0,0.0
11525,54.0,0.0,30.0,14.0,0.0
11526,54.0,14.0,30.0,3.0,0.0
11527,66.0,0.0,30.0,12.0,0.0
11528,66.0,0.0,30.0,11.0,0.0
11529,65.0,0.0,30.0,12.0,0.0
11530,37.0,32.0,90.0,15.0,0.0
11531,37.0,0.0,30.0,3.0,0.0
11532,37.0,0.0,30.0,14.0,0.0
11533,49.0,0.0,30.0,2.0,0.0
11534,65.0,0.0,30.0,11.0,0.0
11535,56.0,48.0,30.0,13.0,0.0
11536,54.0,0.0,30.0,13.0,0.0
11537,49.0,0.0,30.0,3.0,0.0
11538,63.0,14.0,30.0,12.0,0.0
11539,63.0,0.0,30.0,11.0,0.0
11540,49.0,0.0,30.0,14.0,0.0
11541,61.0,0.0,30.0,12.0,0.0
11542,37.0,0.0,30.0,3.0,0.0
11543,25.0,32.0,90.0,15.0,0.0
11544,61.0,0.0,30.0,11.0,0.0
11545,37.0,0.0,30.0,14.0,0.0
11546,37.0,48.0,30.0,2.0,0.0
11547,25.0,2.0,90.0,3.0,0.0
11548,53.0,0.0,30.0,13.0,0.0
11549,49.0,14.0,30.0,3.0,0.0
11550,51.0,0.0,30.0,13.0,0.0
11551,59.0,0.0,30.0,11.0,0.0
11552,49.0,0.0,30.0,14.0,0.0
11553,59.0,0.0,30.0,12.0,0.0
11554,58.0,0.0,30.0,12.0,0.0
11555,42.0,48.0,30.0,14.0,0.0
11556,30.0,32.0,90.0,15.0,0.0
11557,42.0,0.0,30.0,3.0,0.0
11558,42.0,0.0,30.0,2.0,0.0
11559,58.0,0.0,30.0,11.0,0.0
11560,49.0,0.0,30.0,13.0,0.0
11561,30.0,2.0,90.0,3.0,0.0
11562,56.0,0.0,30.0,11.0,0.0
11563,37.0,14.0,30.0,14.0,0.0
11564,37.0,0.0,30.0,3.0,0.0
11565,47.0,0.0,30.0,13.0,0.0
11566,56.0,0.0,30.0,12.0,0.0
11567,42.0,0.0,30.0,3.0,0.0
11568,54.0,0.0,30.0,2.0,0.0
11569,42.0,0.0,30.0,14.0,0.0
11570,54.0,48.0,30.0,11.0,0.0
11571,42.0,32.0,90.0,15.0,0.0
11572,46.0,0.0,30.0,13.0,0.0
11573,54.0,0.0,30.0,12.0,0.0
11574,56.0,14.0,30.0,11.0,0.0
11575,49.0,0.0,30.0,3.0,0.0
11576,47.0,0.0,30.0,13.0,0.0
11577,49.0,0.0,30.0,14.0,0.0
11578,56.0,0.0,30.0,12.0,0.0
11579,42.0,48.0,30.0,14.0,0.0
11580,58.0,32.0,90.0,12.0,0.0
11581,49.0,0.0,90.0,13.0,0.0
11582,30.0,2.0,90.0,3.0,0.0
11583,58.0,0.0,90.0,11.0,0.0
11584,30.0,0.0,90.0,15.0,0.0
11585,42.0,0.0,30.0,2.0,0.0
11586,54.0,14.0,30.0,14.0,0.0
11587,29.0,2.0,90.0,3.0,0.0
11588,41.0,0.0,30.0,14.0,0.0
11589,53.0,0.0,30.0,13.0,0.0
11590,41.0,0.0,30.0,2.0,0.0
11591,57.0,48.0,30.0,12.0,0.0
11592,29.0,24.0,90.0,15.0,0.0
11593,60.0,0.0,30.0,11.0,0.0
11594,53.0,14.0,30.0,14.0,0.0
11595,34.0,0.0,90.0,15.0,0.0
11596,73.0,0.0,180.0,13.0,0.0
11597,34.0,0.0,30.0,3.0,0.0
11598,82.0,8.0,20.0,0.0,0.0
11599,34.0,0.0,30.0,14.0,0.0
11600,82.0,0.0,20.0,11.0,0.0
11601,46.0,16.0,30.0,2.0,0.0
11602,82.0,0.0,20.0,12.0,0.0
11603,94.0,0.0,20.0,0.0,0.0
11604,84.0,24.0,20.0,0.0,0.0
11605,84.0,0.0,20.0,12.0,0.0
11606,96.0,0.0,20.0,0.0,0.0
11607,84.0,0.0,20.0,11.0,0.0
11608,82.0,0.0,20.0,12.0,0.0
11609,46.0,14.0,30.0,3.0,0.0
11610,82.0,0.0,20.0,11.0,0.0
11611,94.0,8.0,20.0,0.0,0.0
11612,82.0,0.0,20.0,0.0,0.0
11613,46.0,0.0,30.0,14.0,0.0
11614,96.0,0.0,20.0,0.0,0.0
11615,84.0,0.0,20.0,11.0,0.0
11616,84.0,0.0,20.0,12.0,0.0
11617,84.0,32.0,20.0,0.0,0.0
11618,49.0,0.0,30.0,2.0,0.0
11619,37.0,0.0,30.0,14.0,0.0
11620,82.0,0.0,30.0,11.0,0.0
11621,82.0,0.0,30.0,12.0,0.0
11622,82.0,32.0,30.0,0.0,0.0
11623,37.0,0.0,30.0,3.0,0.0
11624,94.0,0.0,30.0,0.0,0.0
11625,37.0,0.0,90.0,15.0,0.0
11626,81.0,16.0,30.0,11.0,0.0
11627,81.0,0.0,30.0,12.0,0.0
11628,93.0,0.0,30.0,0.0,0.0
11629,81.0,0.0,30.0,0.0,0.0
11630,49.0,0.0,30.0,14.0,0.0
11631,49.0,14.0,30.0,3.0,0.0
11632,94.0,0.0,30.0,0.0,0.0
11633,82.0,32.0,30.0,12.0,0.0
11634,82.0,0.0,30.0,11.0,0.0
11635,82.0,0.0,30.0,0.0,0.0
11636,81.0,0.0,30.0,0.0,0.0
11637,39.0,0.0,30.0,14.0,0.0
11638,72.0,0.0,30.0,13.0,0.0
11639,81.0,0.0,30.0,11.0,0.0
11640,51.0,0.0,30.0,2.0,0.0
11641,39.0,48.0,30.0,3.0,0.0
11642,93.0,0.0,30.0,0.0,0.0
11643,39.0,32.0,90.0,15.0,0.0
11644,81.0,0.0,30.0,12.0,0.0
11645,90.0,0.0,30.0,0.0,0.0
11646,70.0,0.0,30.0,13.0,0.0
11647,51.0,0.0,30.0,14.0,0.0
11648,78.0,0.0,30.0,11.0,0.0
11649,78.0,0.0,30.0,0.0,0.0
11650,51.0,0.0,30.0,3.0,0.0
11651,78.0,14.0,30.0,12.0,0.0
11652,42.0,32.0,90.0,15.0,0.0
11653,42.0,48.0,30.0,14.0,0.0
11654,42.0,0.0,30.0,3.0,0.0
11655,89.0,0.0,30.0,0.0,0.0
11656,77.0,0.0,30.0,12.0,0.0
11657,69.0,0.0,30.0,13.0,0.0
11658,77.0,0.0,30.0,11.0,0.0
11659,54.0,0.0,30.0,2.0,0.0
11660,77.0,0.0,30.0,0.0,0.0
11661,54.0,0.0,30.0,3.0,0.0
11662,75.0,0.0,30.0,0.0,0.0
11663,75.0,0.0,30.0,11.0,0.0
11664,66.0,0.0,30.0,13.0,0.0
11665,87.0,0.0,30.0,0.0,0.0
11666,54.0,0.0,30.0,14.0,0.0
11667,75.0,14.0,30.0,12.0,0.0
11668,73.0,0.0,30.0,0.0,0.0
11669,46.0,32.0,90.0,15.0,0.0
11670,65.0,0.0,30.0,13.0,0.0
11671,73.0,0.0,30.0,11.0,0.0
11672,46.0,0.0,30.0,14.0,0.0
11673,58.0,0.0,30.0,2.0,0.0
11674,46.0,0.0,30.0,3.0,0.0
11675,85.0,48.0,30.0,0.0,0.0
11676,73.0,0.0,30.0,12.0,0.0
11677,53.0,0.0,30.0,14.0,0.0
11678,63.0,0.0,30.0,13.0,0.0
11679,72.0,0.0,30.0,12.0,0.0
11680,72.0,0.0,30.0,0.0,0.0
11681,84.0,0.0,30.0,0.0,0.0
11682,53.0,0.0,30.0,3.0,0.0
11683,72.0,14.0,30.0,11.0,0.0
11684,70.0,0.0,30.0,11.0,0.0
11685,82.0,0.0,30.0,0.0,0.0
11686,70.0,0.0,30.0,0.0,0.0
11687,70.0,0.0,30.0,12.0,0.0
11688,58.0,32.0,90.0,15.0,0.0
11689,58.0,0.0,30.0,14.0,0.0
11690,58.0,0.0,30.0,3.0,0.0
11691,61.0,48.0,30.0,13.0,0.0
11692,53.0,0.0,30.0,3.0,0.0
11693,84.0,0.0,30.0,0.0,0.0
11694,63.0,0.0,30.0,13.0,0.0
11695,72.0,0.0,30.0,0.0,0.0
11696,72.0,0.0,30.0,11.0,0.0
11697,72.0,0.0,30.0,12.0,0.0
11698,53.0,16.0,30.0,14.0,0.0
11699,73.0,48.0,30.0,11.0,0.0
11700,65.0,0.0,30.0,13.0,0.0
11701,73.0,0.0,30.0,0.0,0.0
11702,46.0,0.0,30.0,14.0,0.0
11703,73.0,0.0,30.0,12.0,0.0
11704,85.0,0.0,30.0,0.0,0.0
11705,46.0,32.0,90.0,15.0,0.0
11706,46.0,0.0,30.0,3.0,0.0
11707,58.0,0.0,30.0,14.0,0.0
11708,58.0,16.0,30.0,3.0,0.0
11709,39.0,48.0,30.0,14.0,0.0
11710,75.0,0.0,90.0,12.0,0.0
11711,51.0,0.0,30.0,2.0,0.0
11712,75.0,0.0,90.0,11.0,0.0
11713,87.0,0.0,90.0,0.0,0.0
11714,66.0,32.0,90.0,13.0,0.0
11715,39.0,0.0,90.0,15.0,0.0
11716,75.0,0.0,90.0,0.0,0.0
11717,39.0,0.0,30.0,3.0,0.0
11718,51.0,0.0,30.0,3.0,0.0
11719,51.0,14.0,30.0,14.0,0.0
11720,70.0,0.0,90.0,12.0,0.0
11721,73.0,0.0,90.0,11.0,0.0
11722,58.0,0.0,30.0,2.0,0.0
11723,46.0,0.0,90.0,15.0,0.0
11724,46.0,0.0,30.0,3.0,0.0
11725,85.0,0.0,90.0,0.0,0.0
11726,73.0,2.0,90.0,0.0,0.0
11727,65.0,32.0,90.0,13.0,0.0
11728,46.0,48.0,30.0,14.0,0.0
11729,58.0,14.0,30.0,14.0,0.0
11730,58.0,0.0,30.0,3.0,0.0
11731,34.0,0.0,30.0,14.0,0.0
11732,72.0,0.0,30.0,11.0,0.0
11733,46.0,0.0,30.0,2.0,0.0
11734,72.0,32.0,60.0,12.0,0.0
11735,63.0,16.0,30.0,13.0,0.0
11736,34.0,0.0,30.0,3.0,0.0
11737,34.0,32.0,90.0,15.0,0.0
11738,46.0,0.0,30.0,3.0,0.0
11739,46.0,0.0,30.0,14.0,0.0
11740,70.0,0.0,30.0,11.0,0.0
11741,70.0,0.0,30.0,12.0,0.0
11742,61.0,14.0,30.0,13.0,0.0
11743,60.0,48.0,30.0,13.0,0.0
11744,51.0,0.0,30.0,2.0,0.0
11745,68.0,0.0,30.0,12.0,0.0
11746,39.0,0.0,30.0,3.0,0.0
11747,39.0,0.0,30.0,14.0,0.0
11748,68.0,0.0,30.0,11.0,0.0
11749,39.0,32.0,90.0,15.0,0.0
11750,51.0,0.0,30.0,3.0,0.0
11751,58.0,14.0,30.0,13.0,0.0
11752,66.0,0.0,30.0,11.0,0.0
11753,51.0,0.0,30.0,14.0,0.0
11754,66.0,0.0,30.0,12.0,0.0
11755,27.0,32.0,90.0,15.0,0.0
11756,39.0,0.0,30.0,14.0,0.0
11757,65.0,0.0,30.0,12.0,0.0
11758,39.0,0.0,30.0,2.0,0.0
11759,56.0,0.0,30.0,13.0,0.0
11760,27.0,2.0,90.0,3.0,0.0
11761,39.0,0.0,30.0,3.0,0.0
11762,65.0,48.0,30.0,11.0,0.0
11763,51.0,0.0,30.0,14.0,0.0
11764,51.0,0.0,30.0,3.0,0.0
11765,63.0,14.0,30.0,12.0,0.0
11766,63.0,0.0,30.0,11.0,0.0
11767,54.0,0.0,30.0,13.0,0.0
11768,34.0,0.0,30.0,14.0,0.0
11769,53.0,0.0,30.0,13.0,0.0
11770,61.0,0.0,30.0,11.0,0.0
11771,34.0,32.0,90.0,15.0,0.0
11772,61.0,0.0,30.0,12.0,0.0
11773,46.0,0.0,30.0,2.0,0.0
11774,34.0,48.0,30.0,3.0,0.0
11775,41.0,0.0,30.0,14.0,0.0
11776,60.0,0.0,30.0,12.0,0.0
11777,60.0,0.0,30.0,11.0,0.0
11778,51.0,14.0,30.0,13.0,0.0
11779,41.0,0.0,30.0,3.0,0.0
11780,58.0,0.0,30.0,11.0,0.0
11781,58.0,0.0,30.0,2.0,0.0
11782,49.0,0.0,30.0,13.0,0.0
11783,46.0,48.0,30.0,14.0,0.0
11784,46.0,68.0,90.0,15.0,0.0
11785,58.0,0.0,30.0,12.0,0.0
11786,46.0,0.0,30.0,3.0,0.0
11787,60.0,0.0,30.0,12.0,0.0
11788,51.0,14.0,30.0,13.0,0.0
11789,41.0,0.0,30.0,3.0,0.0
11790,41.0,0.0,30.0,14.0,0.0
11791,60.0,0.0,30.0,11.0,0.0
11792,46.0,0.0,90.0,2.0,0.0
11793,34.0,0.0,60.0,3.0,0.0
11794,61.0,0.0,90.0,12.0,0.0
11795,34.0,0.0,90.0,15.0,0.0
11796,61.0,0.0,90.0,11.0,0.0
11797,53.0,0.0,90.0,13.0,0.0
11798,34.0,28.0,60.0,14.0,0.0
11799,53.0,0.0,30.0,12.0,0.0
11800,37.0,2.0,90.0,3.0,0.0
11801,59.0,0.0,30.0,11.0,0.0
11802,44.0,0.0,30.0,14.0,0.0
11803,49.0,0.0,90.0,2.0,0.0
11804,49.0,62.0,30.0,13.0,0.0
11805,37.0,0.0,30.0,15.0,0.0
11806,44.0,0.0,30.0,3.0,0.0
11807,92.0,0.0,20.0,0.0,0.0
11808,37.0,0.0,30.0,14.0,0.0
11809,80.0,0.0,20.0,0.0,0.0
11810,80.0,0.0,20.0,11.0,0.0
11811,25.0,2.0,90.0,3.0,0.0
11812,37.0,0.0,30.0,2.0,0.0
11813,80.0,8.0,20.0,12.0,0.0
11814,25.0,0.0,90.0,15.0,0.0
11815,37.0,16.0,30.0,3.0,0.0
11816,82.0,0.0,20.0,12.0,0.0
11817,82.0,24.0,20.0,0.0,0.0
11818,94.0,0.0,20.0,0.0,0.0
11819,82.0,0.0,20.0,11.0,0.0
11820,92.0,0.0,20.0,0.0,0.0
11821,80.0,8.0,20.0,11.0,0.0
11822,80.0,0.0,20.0,12.0,0.0
11823,49.0,14.0,30.0,3.0,0.0
11824,80.0,0.0,20.0,0.0,0.0
11825,49.0,0.0,30.0,14.0,0.0
11826,82.0,0.0,20.0,12.0,0.0
11827,82.0,32.0,20.0,0.0,0.0
11828,82.0,0.0,20.0,11.0,0.0
11829,94.0,0.0,20.0,0.0,0.0
11830,92.0,0.0,30.0,0.0,0.0
11831,41.0,32.0,30.0,14.0,0.0
11832,41.0,0.0,30.0,2.0,0.0
11833,41.0,0.0,30.0,3.0,0.0
11834,29.0,0.0,90.0,15.0,0.0
11835,80.0,0.0,30.0,12.0,0.0
11836,29.0,2.0,90.0,3.0,0.0
11837,80.0,0.0,30.0,11.0,0.0
11838,80.0,0.0,30.0,0.0,0.0
11839,79.0,16.0,30.0,12.0,0.0
11840,79.0,0.0,30.0,11.0,0.0
11841,79.0,0.0,30.0,0.0,0.0
11842,91.0,0.0,30.0,0.0,0.0
11843,53.0,14.0,30.0,3.0,0.0
11844,53.0,0.0,30.0,14.0,0.0
11845,80.0,32.0,30.0,0.0,0.0
11846,80.0,0.0,30.0,11.0,0.0
11847,80.0,0.0,30.0,12.0,0.0
11848,92.0,0.0,30.0,0.0,0.0
11849,73.0,0.0,15.0,13.0,0.0
11850,94.0,0.0,90.0,0.0,0.0
11851,30.0,2.0,90.0,3.0,0.0
11852,30.0,0.0,90.0,15.0,0.0
11853,42.0,48.0,30.0,2.0,0.0
11854,82.0,32.0,90.0,12.0,0.0
11855,42.0,0.0,30.0,14.0,0.0
11856,42.0,0.0,30.0,3.0,0.0
11857,82.0,0.0,90.0,11.0,0.0
11858,82.0,0.0,90.0,0.0,0.0
11859,54.0,0.0,30.0,3.0,0.0
11860,54.0,14.0,30.0,14.0,0.0
11861,92.0,0.0,30.0,0.0,0.0
11862,34.0,0.0,30.0,3.0,0.0
11863,80.0,48.0,30.0,12.0,0.0
11864,80.0,0.0,30.0,11.0,0.0
11865,34.0,32.0,90.0,15.0,0.0
11866,46.0,0.0,30.0,2.0,0.0
11867,34.0,0.0,30.0,14.0,0.0
11868,80.0,0.0,30.0,0.0,0.0
11869,71.0,0.0,30.0,13.0,0.0
11870,46.0,0.0,30.0,14.0,0.0
11871,78.0,0.0,30.0,12.0,0.0
11872,78.0,0.0,30.0,11.0,0.0
11873,70.0,0.0,30.0,13.0,0.0
11874,90.0,0.0,30.0,0.0,0.0
11875,46.0,0.0,30.0,3.0,0.0
11876,78.0,14.0,30.0,0.0,0.0
11877,77.0,0.0,30.0,12.0,0.0
11878,89.0,0.0,30.0,0.0,0.0
11879,37.0,32.0,90.0,15.0,0.0
11880,68.0,0.0,30.0,13.0,0.0
11881,37.0,0.0,30.0,14.0,0.0
11882,77.0,48.0,30.0,0.0,0.0
11883,37.0,0.0,30.0,3.0,0.0
11884,49.0,0.0,30.0,2.0,0.0
11885,77.0,0.0,30.0,11.0,0.0
11886,75.0,0.0,30.0,11.0,0.0
11887,44.0,0.0,30.0,14.0,0.0
11888,66.0,0.0,30.0,13.0,0.0
11889,87.0,0.0,30.0,0.0,0.0
11890,44.0,14.0,30.0,3.0,0.0
11891,75.0,0.0,30.0,12.0,0.0
11892,75.0,0.0,30.0,0.0,0.0
11893,85.0,0.0,30.0,0.0,0.0
11894,73.0,0.0,30.0,0.0,0.0
11895,49.0,48.0,30.0,14.0,0.0
11896,73.0,0.0,30.0,12.0,0.0
11897,49.0,0.0,30.0,3.0,0.0
11898,65.0,0.0,30.0,13.0,0.0
11899,61.0,0.0,30.0,2.0,0.0
11900,73.0,0.0,30.0,11.0,0.0
11901,49.0,32.0,90.0,15.0,0.0
11902,66.0,0.0,30.0,13.0,0.0
11903,75.0,0.0,30.0,11.0,0.0
11904,44.0,0.0,30.0,3.0,0.0
11905,75.0,0.0,30.0,12.0,0.0
11906,75.0,0.0,30.0,0.0,0.0
11907,44.0,0.0,30.0,14.0,0.0
11908,87.0,14.0,30.0,0.0,0.0
11909,68.0,0.0,90.0,13.0,0.0
11910,77.0,0.0,90.0,0.0,0.0
11911,89.0,32.0,90.0,0.0,0.0
11912,77.0,0.0,90.0,12.0,0.0
11913,37.0,0.0,30.0,14.0,0.0
11914,37.0,0.0,90.0,15.0,0.0
11915,49.0,0.0,30.0,2.0,0.0
11916,77.0,0.0,90.0,11.0,0.0
11917,37.0,48.0,30.0,3.0,0.0
11918,49.0,0.0,30.0,14.0,0.0
11919,49.0,14.0,30.0,3.0,0.0
11920,78.0,0.0,90.0,0.0,0.0
11921,46.0,0.0,30.0,2.0,0.0
11922,73.0,0.0,90.0,12.0,0.0
11923,90.0,0.0,90.0,0.0,0.0
11924,66.0,24.0,90.0,13.0,0.0
11925,34.0,0.0,90.0,15.0,0.0
11926,78.0,0.0,90.0,11.0,0.0
11927,34.0,48.0,30.0,14.0,0.0
11928,34.0,0.0,30.0,3.0,0.0
11929,46.0,0.0,30.0,3.0,0.0
11930,46.0,14.0,30.0,14.0,0.0
11931,35.0,16.0,30.0,14.0,0.0
11932,35.0,0.0,30.0,15.0,0.0
11933,68.0,8.0,20.0,11.0,0.0
11934,63.0,0.0,180.0,12.0,0.0
11935,70.0,24.0,20.0,11.0,0.0
11936,44.0,16.0,30.0,14.0,0.0
11937,68.0,8.0,20.0,11.0,0.0
11938,70.0,32.0,20.0,11.0,0.0
11939,47.0,0.0,30.0,15.0,0.0
11940,47.0,0.0,30.0,14.0,0.0
11941,68.0,32.0,30.0,11.0,0.0
11942,67.0,32.0,30.0,11.0,0.0
11943,68.0,24.0,30.0,11.0,0.0
11944,49.0,24.0,180.0,15.0,0.0
11945,49.0,0.0,180.0,2.0,0.0
11946,65.0,0.0,180.0,12.0,0.0
11947,61.0,24.0,60.0,13.0,0.0
11948,53.0,0.0,180.0,3.0,0.0
11949,49.0,0.0,180.0,14.0,0.0
11950,49.0,0.0,150.0,3.0,0.0
11951,70.0,24.0,20.0,11.0,0.0
11952,53.0,0.0,180.0,14.0,0.0
11953,71.0,0.0,20.0,11.0,0.0
11954,70.0,24.0,20.0,11.0,0.0
11955,59.0,0.0,60.0,13.0,0.0
11956,71.0,32.0,20.0,11.0,0.0
11957,58.0,16.0,60.0,13.0,0.0
11958,70.0,16.0,30.0,11.0,0.0
11959,68.0,32.0,30.0,11.0,0.0
11960,56.0,0.0,60.0,13.0,0.0
11961,70.0,0.0,30.0,11.0,0.0
11962,63.0,24.0,60.0,13.0,0.0
11963,54.0,0.0,180.0,3.0,0.0
11964,51.0,0.0,180.0,14.0,0.0
11965,54.0,0.0,180.0,14.0,0.0
11966,51.0,0.0,180.0,2.0,0.0
11967,66.0,16.0,180.0,12.0,0.0
11968,71.0,24.0,20.0,11.0,0.0
11969,51.0,0.0,180.0,15.0,0.0
11970,51.0,32.0,150.0,3.0,0.0
11971,73.0,0.0,20.0,11.0,0.0
11972,71.0,24.0,20.0,11.0,0.0
11973,59.0,0.0,60.0,13.0,0.0
11974,73.0,32.0,20.0,11.0,0.0
11975,58.0,16.0,60.0,13.0,0.0
11976,71.0,16.0,30.0,11.0,0.0
11977,70.0,0.0,30.0,11.0,0.0
11978,59.0,0.0,60.0,13.0,0.0
11979,71.0,0.0,30.0,11.0,0.0
11980,73.0,16.0,15.0,11.0,0.0
11981,53.0,0.0,180.0,15.0,0.0
11982,53.0,0.0,180.0,2.0,0.0
11983,53.0,24.0,180.0,14.0,0.0
11984,56.0,0.0,180.0,14.0,0.0
11985,65.0,16.0,60.0,13.0,0.0
11986,56.0,0.0,180.0,3.0,0.0
11987,53.0,32.0,150.0,3.0,0.0
11988,68.0,0.0,180.0,12.0,0.0
11989,75.0,16.0,15.0,11.0,0.0
11990,73.0,0.0,15.0,11.0,0.0
11991,63.0,0.0,60.0,13.0,0.0
11992,75.0,16.0,15.0,11.0,0.0
11993,73.0,16.0,15.0,11.0,0.0
11994,75.0,32.0,15.0,11.0,0.0
11995,73.0,16.0,30.0,11.0,0.0
11996,61.0,16.0,60.0,13.0,0.0
11997,72.0,0.0,30.0,11.0,0.0
11998,59.0,0.0,60.0,13.0,0.0
11999,73.0,0.0,30.0,11.0,0.0
12000,42.0,16.0,30.0,3.0,0.0
12001,78.0,0.0,20.0,11.0,0.0
12002,30.0,0.0,90.0,15.0,0.0
12003,42.0,0.0,30.0,2.0,0.0
12004,78.0,0.0,20.0,0.0,0.0
12005,70.0,0.0,180.0,13.0,0.0
12006,78.0,0.0,20.0,12.0,0.0
12007,30.0,2.0,90.0,3.0,0.0
12008,90.0,8.0,20.0,0.0,0.0
12009,42.0,0.0,30.0,14.0,0.0
12010,80.0,24.0,20.0,0.0,0.0
12011,80.0,0.0,20.0,12.0,0.0
12012,80.0,0.0,20.0,11.0,0.0
12013,92.0,0.0,20.0,0.0,0.0
12014,54.0,0.0,30.0,3.0,0.0
12015,54.0,14.0,30.0,14.0,0.0
12016,90.0,8.0,20.0,0.0,0.0
12017,78.0,0.0,20.0,0.0,0.0
12018,78.0,0.0,20.0,11.0,0.0
12019,78.0,0.0,20.0,12.0,0.0
12020,80.0,0.0,20.0,0.0,0.0
12021,92.0,0.0,20.0,0.0,0.0
12022,80.0,32.0,20.0,11.0,0.0
12023,80.0,0.0,20.0,12.0,0.0
12024,78.0,0.0,30.0,0.0,0.0
12025,78.0,0.0,30.0,12.0,0.0
12026,34.0,0.0,90.0,15.0,0.0
12027,90.0,0.0,30.0,0.0,0.0
12028,34.0,0.0,30.0,3.0,0.0
12029,46.0,0.0,30.0,2.0,0.0
12030,34.0,0.0,30.0,14.0,0.0
12031,78.0,32.0,30.0,11.0,0.0
12032,89.0,0.0,30.0,0.0,0.0
12033,77.0,16.0,30.0,0.0,0.0
12034,77.0,0.0,30.0,11.0,0.0
12035,77.0,0.0,30.0,12.0,0.0
12036,46.0,14.0,30.0,14.0,0.0
12037,46.0,0.0,30.0,3.0,0.0
12038,78.0,0.0,30.0,12.0,0.0
12039,90.0,32.0,30.0,0.0,0.0
12040,78.0,0.0,30.0,11.0,0.0
12041,78.0,0.0,30.0,0.0,0.0
12042,49.0,0.0,30.0,2.0,0.0
12043,37.0,32.0,90.0,15.0,0.0
12044,77.0,0.0,60.0,0.0,0.0
12045,89.0,2.0,60.0,0.0,0.0
12046,77.0,32.0,60.0,11.0,0.0
12047,37.0,0.0,30.0,14.0,0.0
12048,37.0,14.0,30.0,3.0,0.0
12049,68.0,0.0,30.0,13.0,0.0
12050,77.0,0.0,30.0,12.0,0.0
12051,49.0,0.0,30.0,3.0,0.0
12052,66.0,0.0,30.0,13.0,0.0
12053,75.0,14.0,30.0,0.0,0.0
12054,75.0,0.0,30.0,11.0,0.0
12055,87.0,0.0,30.0,0.0,0.0
12056,49.0,0.0,30.0,14.0,0.0
12057,75.0,0.0,30.0,12.0,0.0
12058,73.0,0.0,30.0,0.0,0.0
12059,65.0,0.0,30.0,13.0,0.0
12060,41.0,48.0,30.0,14.0,0.0
12061,41.0,32.0,90.0,15.0,0.0
12062,53.0,0.0,30.0,2.0,0.0
12063,73.0,0.0,30.0,12.0,0.0
12064,41.0,0.0,30.0,3.0,0.0
12065,85.0,0.0,30.0,0.0,0.0
12066,73.0,0.0,30.0,11.0,0.0
12067,63.0,0.0,30.0,13.0,0.0
12068,71.0,0.0,30.0,12.0,0.0
12069,83.0,0.0,30.0,0.0,0.0
12070,71.0,0.0,30.0,0.0,0.0
12071,53.0,0.0,30.0,3.0,0.0
12072,53.0,14.0,30.0,14.0,0.0
12073,71.0,0.0,30.0,11.0,0.0
12074,70.0,0.0,30.0,0.0,0.0
12075,54.0,0.0,30.0,2.0,0.0
12076,82.0,0.0,30.0,0.0,0.0
12077,42.0,0.0,30.0,14.0,0.0
12078,61.0,48.0,30.0,13.0,0.0
12079,42.0,0.0,30.0,3.0,0.0
12080,70.0,0.0,30.0,12.0,0.0
12081,70.0,0.0,30.0,11.0,0.0
12082,42.0,32.0,90.0,15.0,0.0
12083,49.0,14.0,30.0,3.0,0.0
12084,68.0,0.0,30.0,12.0,0.0
12085,80.0,0.0,30.0,0.0,0.0
12086,68.0,0.0,30.0,11.0,0.0
12087,59.0,0.0,30.0,13.0,0.0
12088,49.0,0.0,30.0,14.0,0.0
12089,68.0,0.0,30.0,0.0,0.0
12090,66.0,0.0,30.0,12.0,0.0
12091,66.0,0.0,30.0,11.0,0.0
12092,66.0,0.0,30.0,0.0,0.0
12093,54.0,48.0,30.0,14.0,0.0
12094,58.0,0.0,30.0,13.0,0.0
12095,66.0,0.0,30.0,2.0,0.0
12096,54.0,32.0,90.0,15.0,0.0
12097,78.0,0.0,30.0,0.0,0.0
12098,54.0,0.0,30.0,3.0,0.0
12099,49.0,0.0,30.0,14.0,0.0
12100,80.0,0.0,30.0,0.0,0.0
12101,68.0,14.0,30.0,12.0,0.0
12102,59.0,0.0,30.0,13.0,0.0
12103,49.0,0.0,30.0,3.0,0.0
12104,68.0,0.0,30.0,0.0,0.0
12105,68.0,0.0,30.0,11.0,0.0
12106,70.0,0.0,30.0,0.0,0.0
12107,61.0,0.0,30.0,13.0,0.0
12108,70.0,0.0,30.0,11.0,0.0
12109,42.0,0.0,30.0,14.0,0.0
12110,42.0,32.0,90.0,15.0,0.0
12111,82.0,0.0,30.0,0.0,0.0
12112,70.0,48.0,30.0,12.0,0.0
12113,54.0,16.0,30.0,14.0,0.0
12114,70.0,0.0,90.0,12.0,0.0
12115,87.0,32.0,90.0,0.0,0.0
12116,39.0,0.0,90.0,15.0,0.0
12117,63.0,0.0,90.0,13.0,0.0
12118,75.0,0.0,90.0,0.0,0.0
12119,39.0,48.0,30.0,14.0,0.0
12120,75.0,0.0,90.0,11.0,0.0
12121,66.0,0.0,90.0,12.0,0.0
12122,51.0,16.0,30.0,14.0,0.0
12123,68.0,0.0,60.0,0.0,0.0
12124,32.0,32.0,90.0,15.0,0.0
12125,68.0,0.0,60.0,11.0,0.0
12126,44.0,0.0,30.0,14.0,0.0
12127,44.0,14.0,30.0,2.0,0.0
12128,59.0,0.0,60.0,13.0,0.0
12129,68.0,32.0,60.0,12.0,0.0
12130,44.0,0.0,30.0,3.0,0.0
12131,80.0,2.0,60.0,0.0,0.0
12132,32.0,2.0,90.0,3.0,0.0
12133,39.0,0.0,30.0,14.0,0.0
12134,63.0,0.0,30.0,11.0,0.0
12135,75.0,0.0,30.0,0.0,0.0
12136,39.0,0.0,30.0,3.0,0.0
12137,58.0,0.0,30.0,13.0,0.0
12138,63.0,0.0,30.0,12.0,0.0
12139,63.0,14.0,30.0,0.0,0.0
12140,56.0,0.0,30.0,2.0,0.0
12141,71.0,0.0,30.0,0.0,0.0
12142,59.0,0.0,30.0,0.0,0.0
12143,44.0,48.0,30.0,14.0,0.0
12144,56.0,0.0,30.0,13.0,0.0
12145,59.0,0.0,30.0,12.0,0.0
12146,44.0,32.0,90.0,15.0,0.0
12147,44.0,0.0,30.0,3.0,0.0
12148,59.0,0.0,30.0,11.0,0.0
12149,39.0,0.0,30.0,14.0,0.0
12150,39.0,0.0,30.0,3.0,0.0
12151,63.0,0.0,30.0,11.0,0.0
12152,58.0,0.0,30.0,13.0,0.0
12153,63.0,14.0,30.0,12.0,0.0
12154,63.0,0.0,30.0,0.0,0.0
12155,75.0,0.0,30.0,0.0,0.0
12156,59.0,0.0,30.0,13.0,0.0
12157,44.0,0.0,30.0,14.0,0.0
12158,68.0,0.0,30.0,0.0,0.0
12159,68.0,0.0,30.0,12.0,0.0
12160,80.0,48.0,30.0,0.0,0.0
12161,68.0,0.0,30.0,11.0,0.0
12162,32.0,2.0,90.0,3.0,0.0
12163,32.0,32.0,90.0,15.0,0.0
12164,44.0,0.0,30.0,3.0,0.0
12165,44.0,0.0,30.0,2.0,0.0
12166,56.0,0.0,30.0,14.0,0.0
12167,56.0,14.0,30.0,3.0,0.0
12168,25.0,0.0,90.0,3.0,0.0
12169,37.0,0.0,30.0,2.0,0.0
12170,61.0,0.0,90.0,13.0,0.0
12171,68.0,32.0,90.0,12.0,0.0
12172,65.0,0.0,90.0,12.0,0.0
12173,85.0,0.0,90.0,0.0,0.0
12174,73.0,0.0,90.0,11.0,0.0
12175,25.0,0.0,90.0,15.0,0.0
12176,37.0,48.0,30.0,14.0,0.0
12177,37.0,0.0,30.0,3.0,0.0
12178,73.0,2.0,90.0,0.0,0.0
12179,49.0,0.0,30.0,3.0,0.0
12180,49.0,14.0,30.0,14.0,0.0
12181,42.0,0.0,30.0,2.0,0.0
12182,58.0,0.0,30.0,13.0,0.0
12183,42.0,0.0,30.0,3.0,0.0
12184,30.0,32.0,90.0,15.0,0.0
12185,78.0,0.0,30.0,0.0,0.0
12186,66.0,0.0,30.0,0.0,0.0
12187,66.0,0.0,30.0,11.0,0.0
12188,42.0,0.0,30.0,14.0,0.0
12189,30.0,2.0,90.0,3.0,0.0
12190,66.0,48.0,30.0,12.0,0.0
12191,61.0,0.0,30.0,11.0,0.0
12192,37.0,0.0,30.0,14.0,0.0
12193,61.0,0.0,30.0,0.0,0.0
12194,61.0,14.0,30.0,12.0,0.0
12195,37.0,0.0,30.0,3.0,0.0
12196,61.0,0.0,30.0,13.0,0.0
12197,73.0,0.0,30.0,0.0,0.0
12198,58.0,0.0,30.0,12.0,0.0
12199,54.0,0.0,30.0,2.0,0.0
12200,42.0,0.0,30.0,14.0,0.0
12201,58.0,0.0,30.0,0.0,0.0
12202,70.0,0.0,30.0,0.0,0.0
12203,42.0,0.0,30.0,3.0,0.0
12204,58.0,48.0,30.0,11.0,0.0
12205,58.0,0.0,30.0,13.0,0.0
12206,42.0,96.0,90.0,15.0,0.0
12207,49.0,0.0,30.0,3.0,0.0
12208,61.0,0.0,30.0,0.0,0.0
12209,61.0,0.0,30.0,12.0,0.0
12210,61.0,0.0,30.0,11.0,0.0
12211,73.0,0.0,30.0,0.0,0.0
12212,49.0,0.0,30.0,14.0,0.0
12213,61.0,14.0,30.0,13.0,0.0
12214,66.0,0.0,90.0,11.0,0.0
12215,66.0,0.0,90.0,0.0,0.0
12216,42.0,0.0,90.0,2.0,0.0
12217,42.0,32.0,90.0,14.0,0.0
12218,30.0,0.0,90.0,3.0,0.0
12219,66.0,0.0,90.0,12.0,0.0
12220,30.0,0.0,90.0,15.0,0.0
12221,78.0,0.0,90.0,0.0,0.0
12222,58.0,0.0,90.0,13.0,0.0
12223,42.0,0.0,15.0,3.0,0.0
12224,61.0,0.0,30.0,11.0,0.0
12225,54.0,0.0,30.0,14.0,0.0
12226,54.0,0.0,30.0,2.0,0.0
12227,73.0,0.0,30.0,0.0,0.0
12228,42.0,0.0,30.0,15.0,0.0
12229,58.0,0.0,30.0,13.0,0.0
12230,54.0,0.0,30.0,3.0,0.0
12231,61.0,0.0,30.0,12.0,0.0
12232,61.0,64.0,30.0,0.0,0.0
12233,80.0,0.0,20.0,0.0,0.0
12234,37.0,16.0,30.0,14.0,0.0
12235,25.0,2.0,90.0,3.0,0.0
12236,92.0,0.0,20.0,0.0,0.0
12237,73.0,0.0,180.0,13.0,0.0
12238,37.0,0.0,30.0,3.0,0.0
12239,37.0,0.0,30.0,2.0,0.0
12240,80.0,8.0,20.0,11.0,0.0
12241,25.0,0.0,90.0,15.0,0.0
12242,80.0,0.0,20.0,12.0,0.0
12243,82.0,24.0,20.0,12.0,0.0
12244,94.0,0.0,20.0,0.0,0.0
12245,82.0,0.0,20.0,0.0,0.0
12246,82.0,0.0,20.0,11.0,0.0
12247,80.0,0.0,20.0,0.0,0.0
12248,49.0,14.0,30.0,14.0,0.0
12249,80.0,0.0,20.0,11.0,0.0
12250,49.0,0.0,30.0,3.0,0.0
12251,92.0,0.0,20.0,0.0,0.0
12252,80.0,8.0,20.0,12.0,0.0
12253,82.0,0.0,20.0,0.0,0.0
12254,82.0,32.0,20.0,12.0,0.0
12255,82.0,0.0,20.0,11.0,0.0
12256,94.0,0.0,20.0,0.0,0.0
12257,29.0,0.0,90.0,15.0,0.0
12258,41.0,0.0,30.0,2.0,0.0
12259,29.0,2.0,90.0,3.0,0.0
12260,41.0,0.0,30.0,14.0,0.0
12261,80.0,0.0,30.0,12.0,0.0
12262,80.0,0.0,30.0,11.0,0.0
12263,80.0,0.0,30.0,0.0,0.0
12264,41.0,0.0,30.0,3.0,0.0
12265,92.0,32.0,30.0,0.0,0.0
12266,79.0,0.0,30.0,11.0,0.0
12267,79.0,16.0,30.0,12.0,0.0
12268,91.0,0.0,30.0,0.0,0.0
12269,79.0,0.0,30.0,0.0,0.0
12270,53.0,14.0,30.0,14.0,0.0
12271,53.0,0.0,30.0,3.0,0.0
12272,80.0,0.0,30.0,0.0,0.0
12273,80.0,32.0,30.0,12.0,0.0
12274,92.0,0.0,30.0,0.0,0.0
12275,80.0,0.0,30.0,11.0,0.0
12276,82.0,2.0,90.0,0.0,0.0
12277,42.0,48.0,30.0,14.0,0.0
12278,94.0,0.0,90.0,0.0,0.0
12279,82.0,0.0,90.0,11.0,0.0
12280,73.0,0.0,90.0,13.0,0.0
12281,30.0,0.0,90.0,3.0,0.0
12282,42.0,0.0,30.0,2.0,0.0
12283,82.0,0.0,90.0,12.0,0.0
12284,30.0,32.0,90.0,15.0,0.0
12285,42.0,0.0,30.0,3.0,0.0
12286,54.0,0.0,30.0,14.0,0.0
12287,54.0,14.0,30.0,3.0,0.0
12288,80.0,0.0,30.0,11.0,0.0
12289,34.0,48.0,30.0,14.0,0.0
12290,71.0,0.0,30.0,13.0,0.0
12291,34.0,0.0,30.0,3.0,0.0
12292,80.0,0.0,30.0,0.0,0.0
12293,34.0,32.0,90.0,15.0,0.0
12294,92.0,0.0,30.0,0.0,0.0
12295,80.0,0.0,30.0,12.0,0.0
12296,46.0,0.0,30.0,2.0,0.0
12297,78.0,0.0,30.0,0.0,0.0
12298,78.0,14.0,30.0,12.0,0.0
12299,90.0,0.0,30.0,0.0,0.0
12300,78.0,0.0,30.0,11.0,0.0
12301,70.0,0.0,30.0,13.0,0.0
12302,46.0,0.0,30.0,14.0,0.0
12303,46.0,0.0,30.0,3.0,0.0
12304,77.0,0.0,30.0,12.0,0.0
12305,37.0,32.0,90.0,15.0,0.0
12306,77.0,0.0,30.0,0.0,0.0
12307,77.0,0.0,30.0,11.0,0.0
12308,37.0,0.0,30.0,14.0,0.0
12309,89.0,0.0,30.0,0.0,0.0
12310,68.0,0.0,30.0,13.0,0.0
12311,49.0,48.0,30.0,2.0,0.0
12312,37.0,0.0,30.0,3.0,0.0
12313,44.0,0.0,30.0,14.0,0.0
12314,44.0,0.0,30.0,3.0,0.0
12315,66.0,0.0,30.0,13.0,0.0
12316,75.0,14.0,30.0,12.0,0.0
12317,75.0,0.0,30.0,0.0,0.0
12318,75.0,0.0,30.0,11.0,0.0
12319,87.0,0.0,30.0,0.0,0.0
12320,49.0,32.0,90.0,15.0,0.0
12321,73.0,0.0,30.0,11.0,0.0
12322,49.0,0.0,30.0,14.0,0.0
12323,73.0,0.0,30.0,0.0,0.0
12324,85.0,0.0,30.0,0.0,0.0
12325,61.0,0.0,30.0,2.0,0.0
12326,65.0,0.0,30.0,13.0,0.0
12327,73.0,0.0,30.0,12.0,0.0
12328,49.0,48.0,30.0,3.0,0.0
12329,75.0,0.0,30.0,11.0,0.0
12330,66.0,0.0,30.0,13.0,0.0
12331,75.0,0.0,30.0,0.0,0.0
12332,44.0,0.0,30.0,14.0,0.0
12333,87.0,14.0,30.0,0.0,0.0
12334,75.0,0.0,30.0,12.0,0.0
12335,44.0,0.0,30.0,3.0,0.0
12336,77.0,0.0,90.0,0.0,0.0
12337,77.0,0.0,90.0,11.0,0.0
12338,37.0,0.0,90.0,15.0,0.0
12339,37.0,48.0,30.0,14.0,0.0
12340,49.0,0.0,30.0,2.0,0.0
12341,68.0,32.0,90.0,13.0,0.0
12342,37.0,0.0,30.0,3.0,0.0
12343,77.0,0.0,90.0,12.0,0.0
12344,89.0,0.0,90.0,0.0,0.0
12345,49.0,14.0,30.0,14.0,0.0
12346,49.0,0.0,30.0,3.0,0.0
12347,90.0,2.0,90.0,0.0,0.0
12348,78.0,24.0,90.0,11.0,0.0
12349,34.0,48.0,30.0,14.0,0.0
12350,66.0,0.0,90.0,13.0,0.0
12351,73.0,0.0,90.0,12.0,0.0
12352,46.0,0.0,30.0,2.0,0.0
12353,78.0,0.0,90.0,0.0,0.0
12354,34.0,0.0,90.0,15.0,0.0
12355,34.0,0.0,30.0,3.0,0.0
12356,46.0,0.0,30.0,3.0,0.0
12357,46.0,14.0,30.0,14.0,0.0
12358,68.0,8.0,20.0,11.0,0.0
12359,35.0,0.0,30.0,15.0,0.0
12360,63.0,0.0,180.0,12.0,0.0
12361,35.0,16.0,30.0,14.0,0.0
12362,70.0,24.0,20.0,11.0,0.0
12363,68.0,8.0,20.0,11.0,0.0
12364,44.0,16.0,30.0,14.0,0.0
12365,70.0,32.0,20.0,11.0,0.0
12366,68.0,0.0,30.0,11.0,0.0
12367,47.0,0.0,30.0,14.0,0.0
12368,47.0,32.0,30.0,15.0,0.0
12369,67.0,32.0,30.0,11.0,0.0
12370,68.0,24.0,30.0,11.0,0.0
12371,65.0,0.0,180.0,12.0,0.0
12372,53.0,0.0,180.0,3.0,0.0
12373,53.0,24.0,180.0,14.0,0.0
12374,61.0,24.0,60.0,13.0,0.0
12375,49.0,32.0,150.0,3.0,0.0
12376,49.0,0.0,180.0,2.0,0.0
12377,49.0,0.0,180.0,14.0,0.0
12378,49.0,0.0,180.0,15.0,0.0
12379,70.0,24.0,20.0,11.0,0.0
12380,71.0,0.0,20.0,11.0,0.0
12381,70.0,24.0,20.0,11.0,0.0
12382,59.0,32.0,60.0,13.0,0.0
12383,71.0,0.0,20.0,11.0,0.0
12384,70.0,16.0,30.0,11.0,0.0
12385,58.0,16.0,60.0,13.0,0.0
12386,68.0,0.0,30.0,11.0,0.0
12387,56.0,0.0,60.0,13.0,0.0
12388,70.0,0.0,30.0,11.0,0.0
12389,71.0,24.0,20.0,11.0,0.0
12390,66.0,16.0,180.0,12.0,0.0
12391,54.0,0.0,180.0,3.0,0.0
12392,51.0,0.0,150.0,3.0,0.0
12393,54.0,0.0,180.0,14.0,0.0
12394,51.0,0.0,180.0,14.0,0.0
12395,51.0,0.0,180.0,2.0,0.0
12396,51.0,0.0,180.0,15.0,0.0
12397,63.0,24.0,60.0,13.0,0.0
12398,73.0,0.0,20.0,11.0,0.0
12399,71.0,24.0,20.0,11.0,0.0
12400,59.0,0.0,60.0,13.0,0.0
12401,73.0,32.0,20.0,11.0,0.0
12402,71.0,16.0,30.0,11.0,0.0
12403,58.0,16.0,60.0,13.0,0.0
12404,70.0,32.0,30.0,11.0,0.0
12405,59.0,0.0,60.0,13.0,0.0
12406,71.0,0.0,30.0,11.0,0.0
12407,56.0,0.0,180.0,3.0,0.0
12408,73.0,16.0,15.0,11.0,0.0
12409,53.0,0.0,180.0,14.0,0.0
12410,53.0,32.0,150.0,3.0,0.0
12411,65.0,0.0,60.0,13.0,0.0
12412,56.0,0.0,180.0,14.0,0.0
12413,53.0,0.0,180.0,2.0,0.0
12414,68.0,0.0,180.0,12.0,0.0
12415,53.0,24.0,180.0,15.0,0.0
12416,75.0,16.0,15.0,11.0,0.0
12417,73.0,16.0,15.0,11.0,0.0
12418,63.0,32.0,60.0,13.0,0.0
12419,75.0,16.0,15.0,11.0,0.0
12420,73.0,16.0,15.0,11.0,0.0
12421,75.0,0.0,15.0,11.0,0.0
12422,73.0,16.0,30.0,11.0,0.0
12423,61.0,16.0,60.0,13.0,0.0
12424,72.0,0.0,30.0,11.0,0.0
12425,59.0,0.0,60.0,13.0,0.0
12426,73.0,0.0,30.0,11.0,0.0
12427,42.0,0.0,30.0,2.0,0.0
12428,42.0,16.0,30.0,3.0,0.0
12429,78.0,0.0,20.0,11.0,0.0
12430,42.0,0.0,30.0,14.0,0.0
12431,78.0,8.0,20.0,12.0,0.0
12432,90.0,0.0,20.0,0.0,0.0
12433,70.0,0.0,180.0,13.0,0.0
12434,30.0,0.0,90.0,15.0,0.0
12435,30.0,2.0,90.0,3.0,0.0
12436,78.0,0.0,20.0,0.0,0.0
12437,80.0,0.0,20.0,0.0,0.0
12438,92.0,0.0,20.0,0.0,0.0
12439,80.0,0.0,20.0,12.0,0.0
12440,80.0,24.0,20.0,11.0,0.0
12441,78.0,8.0,20.0,12.0,0.0
12442,90.0,0.0,20.0,0.0,0.0
12443,54.0,14.0,30.0,14.0,0.0
12444,78.0,0.0,20.0,0.0,0.0
12445,78.0,0.0,20.0,11.0,0.0
12446,54.0,0.0,30.0,3.0,0.0
12447,80.0,0.0,20.0,11.0,0.0
12448,92.0,0.0,20.0,0.0,0.0
12449,80.0,0.0,20.0,0.0,0.0
12450,80.0,32.0,20.0,12.0,0.0
12451,78.0,0.0,30.0,0.0,0.0
12452,34.0,0.0,30.0,14.0,0.0
12453,90.0,32.0,30.0,0.0,0.0
12454,46.0,0.0,30.0,2.0,0.0
12455,78.0,0.0,30.0,11.0,0.0
12456,34.0,0.0,90.0,15.0,0.0
12457,34.0,0.0,30.0,3.0,0.0
12458,78.0,0.0,30.0,12.0,0.0
12459,77.0,0.0,30.0,12.0,0.0
12460,77.0,0.0,30.0,0.0,0.0
12461,77.0,16.0,30.0,11.0,0.0
12462,89.0,0.0,30.0,0.0,0.0
12463,46.0,0.0,30.0,14.0,0.0
12464,46.0,14.0,30.0,3.0,0.0
12465,90.0,32.0,30.0,0.0,0.0
12466,78.0,0.0,30.0,0.0,0.0
12467,78.0,0.0,30.0,12.0,0.0
12468,78.0,0.0,30.0,11.0,0.0
12469,37.0,32.0,90.0,15.0,0.0
12470,77.0,0.0,30.0,12.0,0.0
12471,77.0,0.0,60.0,0.0,0.0
12472,37.0,14.0,30.0,3.0,0.0
12473,77.0,32.0,60.0,11.0,0.0
12474,37.0,0.0,30.0,14.0,0.0
12475,68.0,0.0,30.0,13.0,0.0
12476,49.0,0.0,30.0,2.0,0.0
12477,89.0,2.0,60.0,0.0,0.0
12478,66.0,0.0,30.0,13.0,0.0
12479,75.0,0.0,30.0,12.0,0.0
12480,49.0,0.0,30.0,3.0,0.0
12481,75.0,0.0,30.0,11.0,0.0
12482,87.0,0.0,30.0,0.0,0.0
12483,75.0,0.0,30.0,0.0,0.0
12484,49.0,14.0,30.0,14.0,0.0
12485,65.0,0.0,30.0,13.0,0.0
12486,73.0,0.0,30.0,11.0,0.0
12487,73.0,0.0,30.0,0.0,0.0
12488,41.0,0.0,30.0,14.0,0.0
12489,53.0,0.0,30.0,2.0,0.0
12490,73.0,0.0,30.0,12.0,0.0
12491,41.0,32.0,90.0,15.0,0.0
12492,41.0,0.0,30.0,3.0,0.0
12493,85.0,48.0,30.0,0.0,0.0
12494,71.0,0.0,30.0,0.0,0.0
12495,53.0,14.0,30.0,14.0,0.0
12496,71.0,0.0,30.0,12.0,0.0
12497,71.0,0.0,30.0,11.0,0.0
12498,53.0,0.0,30.0,3.0,0.0
12499,63.0,0.0,30.0,13.0,0.0
12500,83.0,0.0,30.0,0.0,0.0
12501,70.0,0.0,30.0,0.0,0.0
12502,42.0,32.0,90.0,15.0,0.0
12503,82.0,48.0,30.0,0.0,0.0
12504,70.0,0.0,30.0,12.0,0.0
12505,70.0,0.0,30.0,11.0,0.0
12506,42.0,0.0,30.0,14.0,0.0
12507,61.0,0.0,30.0,13.0,0.0
12508,54.0,0.0,30.0,2.0,0.0
12509,42.0,0.0,30.0,3.0,0.0
12510,49.0,0.0,30.0,14.0,0.0
12511,68.0,0.0,30.0,0.0,0.0
12512,59.0,0.0,30.0,13.0,0.0
12513,68.0,0.0,30.0,12.0,0.0
12514,80.0,14.0,30.0,0.0,0.0
12515,68.0,0.0,30.0,11.0,0.0
12516,49.0,0.0,30.0,3.0,0.0
12517,66.0,0.0,30.0,12.0,0.0
12518,58.0,48.0,30.0,13.0,0.0
12519,78.0,0.0,30.0,0.0,0.0
12520,66.0,0.0,30.0,0.0,0.0
12521,66.0,0.0,30.0,2.0,0.0
12522,54.0,32.0,90.0,15.0,0.0
12523,54.0,0.0,30.0,14.0,0.0
12524,66.0,0.0,30.0,11.0,0.0
12525,54.0,0.0,30.0,3.0,0.0
12526,68.0,0.0,30.0,11.0,0.0
12527,59.0,0.0,30.0,13.0,0.0
12528,80.0,0.0,30.0,0.0,0.0
12529,49.0,14.0,30.0,14.0,0.0
12530,49.0,0.0,30.0,3.0,0.0
12531,68.0,0.0,30.0,0.0,0.0
12532,68.0,0.0,30.0,12.0,0.0
12533,70.0,0.0,30.0,0.0,0.0
12534,42.0,32.0,90.0,15.0,0.0
12535,70.0,0.0,30.0,11.0,0.0
12536,61.0,0.0,30.0,13.0,0.0
12537,70.0,48.0,30.0,12.0,0.0
12538,82.0,0.0,30.0,0.0,0.0
12539,42.0,0.0,30.0,14.0,0.0
12540,54.0,16.0,30.0,14.0,0.0
12541,75.0,0.0,90.0,11.0,0.0
12542,87.0,0.0,90.0,0.0,0.0
12543,75.0,32.0,90.0,0.0,0.0
12544,66.0,0.0,90.0,12.0,0.0
12545,70.0,0.0,90.0,12.0,0.0
12546,39.0,48.0,30.0,14.0,0.0
12547,39.0,0.0,90.0,15.0,0.0
12548,63.0,0.0,90.0,13.0,0.0
12549,51.0,16.0,30.0,14.0,0.0
12550,80.0,0.0,60.0,0.0,0.0
12551,59.0,0.0,60.0,13.0,0.0
12552,44.0,0.0,30.0,14.0,0.0
12553,68.0,32.0,60.0,11.0,0.0
12554,68.0,2.0,60.0,0.0,0.0
12555,44.0,14.0,30.0,3.0,0.0
12556,44.0,0.0,30.0,2.0,0.0
12557,32.0,32.0,90.0,15.0,0.0
12558,32.0,2.0,90.0,3.0,0.0
12559,68.0,0.0,60.0,12.0,0.0
12560,39.0,0.0,30.0,14.0,0.0
12561,63.0,0.0,30.0,0.0,0.0
12562,58.0,0.0,30.0,13.0,0.0
12563,63.0,0.0,30.0,11.0,0.0
12564,39.0,14.0,30.0,3.0,0.0
12565,63.0,0.0,30.0,12.0,0.0
12566,75.0,0.0,30.0,0.0,0.0
12567,56.0,0.0,30.0,13.0,0.0
12568,71.0,0.0,30.0,0.0,0.0
12569,56.0,0.0,30.0,2.0,0.0
12570,59.0,0.0,30.0,12.0,0.0
12571,44.0,32.0,90.0,15.0,0.0
12572,59.0,0.0,30.0,11.0,0.0
12573,44.0,0.0,30.0,14.0,0.0
12574,44.0,0.0,30.0,3.0,0.0
12575,59.0,48.0,30.0,0.0,0.0
12576,39.0,0.0,30.0,14.0,0.0
12577,39.0,0.0,30.0,3.0,0.0
12578,63.0,14.0,30.0,11.0,0.0
12579,63.0,0.0,30.0,12.0,0.0
12580,75.0,0.0,30.0,0.0,0.0
12581,63.0,0.0,30.0,0.0,0.0
12582,58.0,0.0,30.0,13.0,0.0
12583,59.0,0.0,30.0,13.0,0.0
12584,44.0,0.0,30.0,3.0,0.0
12585,68.0,0.0,30.0,11.0,0.0
12586,32.0,32.0,90.0,15.0,0.0
12587,32.0,2.0,90.0,3.0,0.0
12588,68.0,0.0,30.0,12.0,0.0
12589,44.0,0.0,30.0,14.0,0.0
12590,80.0,48.0,30.0,0.0,0.0
12591,44.0,0.0,30.0,2.0,0.0
12592,68.0,0.0,30.0,0.0,0.0
12593,56.0,0.0,30.0,3.0,0.0
12594,56.0,14.0,30.0,14.0,0.0
12595,37.0,48.0,30.0,2.0,0.0
12596,37.0,0.0,30.0,14.0,0.0
12597,25.0,0.0,90.0,15.0,0.0
12598,25.0,0.0,90.0,3.0,0.0
12599,61.0,0.0,90.0,13.0,0.0
12600,73.0,32.0,90.0,11.0,0.0
12601,73.0,0.0,90.0,0.0,0.0
12602,68.0,0.0,90.0,12.0,0.0
12603,65.0,0.0,90.0,12.0,0.0
12604,37.0,0.0,30.0,3.0,0.0
12605,85.0,2.0,90.0,0.0,0.0
12606,49.0,14.0,30.0,3.0,0.0
12607,49.0,0.0,30.0,14.0,0.0
12608,30.0,2.0,90.0,3.0,0.0
12609,30.0,32.0,90.0,15.0,0.0
12610,42.0,0.0,30.0,3.0,0.0
12611,78.0,0.0,30.0,0.0,0.0
12612,66.0,0.0,30.0,12.0,0.0
12613,42.0,48.0,30.0,2.0,0.0
12614,66.0,0.0,30.0,0.0,0.0
12615,58.0,0.0,30.0,13.0,0.0
12616,66.0,0.0,30.0,11.0,0.0
12617,42.0,0.0,30.0,14.0,0.0
12618,61.0,0.0,30.0,12.0,0.0
12619,61.0,0.0,30.0,0.0,0.0
12620,61.0,0.0,30.0,13.0,0.0
12621,37.0,0.0,30.0,14.0,0.0
12622,37.0,0.0,30.0,3.0,0.0
12623,73.0,0.0,30.0,0.0,0.0
12624,61.0,14.0,30.0,11.0,0.0
12625,42.0,0.0,30.0,14.0,0.0
12626,58.0,0.0,30.0,12.0,0.0
12627,58.0,48.0,30.0,11.0,0.0
12628,58.0,0.0,30.0,0.0,0.0
12629,54.0,0.0,30.0,2.0,0.0
12630,42.0,94.0,90.0,15.0,0.0
12631,70.0,0.0,30.0,0.0,0.0
12632,58.0,0.0,30.0,13.0,0.0
12633,42.0,0.0,30.0,3.0,0.0
12634,49.0,0.0,30.0,3.0,0.0
12635,61.0,0.0,30.0,11.0,0.0
12636,73.0,0.0,30.0,0.0,0.0
12637,61.0,0.0,30.0,13.0,0.0
12638,61.0,0.0,30.0,12.0,0.0
12639,61.0,0.0,30.0,0.0,0.0
12640,49.0,14.0,30.0,14.0,0.0
12641,66.0,2.0,90.0,0.0,0.0
12642,42.0,0.0,90.0,3.0,0.0
12643,30.0,22.0,90.0,15.0,0.0
12644,42.0,0.0,90.0,14.0,0.0
12645,66.0,0.0,90.0,12.0,0.0
12646,30.0,0.0,90.0,3.0,0.0
12647,66.0,0.0,90.0,11.0,0.0
12648,42.0,0.0,90.0,2.0,0.0
12649,78.0,0.0,90.0,0.0,0.0
12650,58.0,0.0,90.0,13.0,0.0
12651,37.0,0.0,90.0,6.0,0.0
12652,61.0,0.0,90.0,6.0,0.0
12653,73.0,0.0,90.0,11.0,0.0
12654,50.0,24.0,20.0,9.0,0.0
12655,73.0,0.0,90.0,12.0,0.0
12656,61.0,0.0,90.0,5.0,0.0
12657,37.0,0.0,90.0,8.0,0.0
12658,49.0,0.0,90.0,7.0,0.0
12659,37.0,0.0,90.0,14.0,0.0
12660,73.0,0.0,90.0,0.0,0.0
12661,85.0,0.0,90.0,0.0,0.0
12662,61.0,32.0,90.0,13.0,0.0
12663,37.0,0.0,90.0,3.0,0.0
12664,37.0,0.0,90.0,15.0,0.0
12665,50.0,24.0,20.0,9.0,0.0
12666,50.0,24.0,20.0,9.0,0.0
12667,50.0,2.0,20.0,9.0,0.0
12668,30.0,0.0,30.0,15.0,0.0
12669,70.0,0.0,30.0,12.0,0.0
12670,66.0,62.0,30.0,5.0,0.0
12671,90.0,0.0,90.0,0.0,0.0
12672,42.0,48.0,90.0,8.0,0.0
12673,42.0,0.0,90.0,3.0,0.0
12674,30.0,0.0,30.0,3.0,0.0
12675,54.0,0.0,30.0,5.0,0.0
12676,78.0,2.0,90.0,0.0,0.0
12677,42.0,0.0,30.0,7.0,0.0
12678,58.0,0.0,30.0,5.0,0.0
12679,42.0,0.0,30.0,6.0,0.0
12680,50.0,0.0,90.0,9.0,0.0
12681,42.0,0.0,30.0,14.0,0.0
12682,66.0,0.0,30.0,6.0,0.0
12683,66.0,0.0,30.0,13.0,0.0
12684,78.0,0.0,30.0,11.0,0.0
12685,70.0,0.0,60.0,2.0,0.0
12686,54.0,0.0,60.0,2.0,0.0
12687,70.0,0.0,60.0,1.0,0.0
12688,58.0,0.0,60.0,4.0,0.0
12689,54.0,48.0,60.0,4.0,0.0
12690,66.0,0.0,60.0,1.0,0.0
12691,66.0,0.0,60.0,2.0,0.0
12692,68.0,0.0,60.0,1.0,0.0
12693,71.0,0.0,60.0,1.0,0.0
12694,56.0,48.0,60.0,2.0,0.0
12695,59.0,0.0,60.0,4.0,0.0
12696,71.0,0.0,60.0,2.0,0.0
12697,56.0,0.0,60.0,4.0,0.0
12698,68.0,0.0,60.0,2.0,0.0
12699,54.0,0.0,60.0,2.0,0.0
12700,58.0,0.0,60.0,4.0,0.0
12701,70.0,0.0,60.0,1.0,0.0
12702,66.0,0.0,60.0,1.0,0.0
12703,70.0,0.0,60.0,2.0,0.0
12704,66.0,0.0,60.0,2.0,0.0
12705,54.0,48.0,60.0,4.0,0.0
12706,56.0,0.0,60.0,4.0,0.0
12707,61.0,0.0,60.0,2.0,0.0
12708,68.0,0.0,60.0,1.0,0.0
12709,68.0,48.0,60.0,2.0,0.0
12710,61.0,0.0,60.0,1.0,0.0
12711,49.0,0.0,60.0,2.0,0.0
12712,49.0,0.0,60.0,4.0,0.0
12713,54.0,0.0,60.0,4.0,0.0
12714,46.0,48.0,60.0,2.0,0.0
12715,66.0,0.0,60.0,2.0,0.0
12716,46.0,0.0,60.0,4.0,0.0
12717,58.0,0.0,60.0,2.0,0.0
12718,58.0,0.0,60.0,1.0,0.0
12719,66.0,0.0,60.0,1.0,0.0
12720,68.0,0.0,60.0,2.0,0.0
12721,61.0,96.0,60.0,2.0,0.0
12722,61.0,0.0,60.0,1.0,0.0
12723,56.0,0.0,60.0,4.0,0.0
12724,49.0,0.0,60.0,4.0,0.0
12725,49.0,0.0,60.0,2.0,0.0
12726,68.0,0.0,60.0,1.0,0.0
12727,54.0,0.0,90.0,4.0,0.0
12728,70.0,0.0,90.0,1.0,0.0
12729,58.0,0.0,90.0,4.0,0.0
12730,66.0,0.0,90.0,1.0,0.0
12731,54.0,0.0,90.0,2.0,0.0
12732,70.0,22.0,90.0,2.0,0.0
12733,66.0,0.0,90.0,2.0,0.0
12734,42.0,0.0,90.0,14.0,0.0
12735,42.0,0.0,90.0,6.0,0.0
12736,42.0,0.0,90.0,7.0,0.0
12737,54.0,0.0,90.0,6.0,0.0
12738,66.0,0.0,90.0,13.0,0.0
12739,30.0,0.0,90.0,15.0,0.0
12740,42.0,0.0,90.0,3.0,0.0
12741,54.0,0.0,90.0,5.0,0.0
12742,66.0,0.0,90.0,12.0,0.0
12743,90.0,0.0,90.0,0.0,0.0
12744,78.0,94.0,90.0,0.0,0.0
12745,42.0,0.0,90.0,8.0,0.0
12746,50.0,24.0,20.0,9.0,0.0
12747,66.0,0.0,90.0,5.0,0.0
12748,78.0,0.0,90.0,11.0,0.0
12749,30.0,0.0,90.0,3.0,0.0
12750,50.0,24.0,20.0,9.0,0.0
12751,50.0,24.0,20.0,9.0,0.0
12752,50.0,2.0,20.0,9.0,0.0
12753,47.0,0.0,90.0,6.0,0.0
12754,59.0,0.0,90.0,5.0,0.0
12755,47.0,22.0,90.0,7.0,0.0
12756,35.0,0.0,90.0,15.0,0.0
12757,37.0,0.0,90.0,8.0,0.0
12758,50.0,0.0,90.0,9.0,0.0
12759,63.0,0.0,90.0,5.0,0.0
12760,71.0,0.0,90.0,12.0,0.0
12761,47.0,0.0,90.0,14.0,0.0
12762,75.0,0.0,90.0,0.0,0.0
12763,75.0,0.0,90.0,11.0,0.0
12764,63.0,0.0,90.0,13.0,0.0
12765,35.0,0.0,90.0,3.0,0.0
12766,47.0,0.0,90.0,3.0,0.0
12767,87.0,2.0,90.0,0.0,0.0
12768,59.0,0.0,90.0,6.0,0.0
12769,54.0,0.0,90.0,5.0,0.0
12770,42.0,0.0,90.0,6.0,0.0
12771,42.0,0.0,90.0,3.0,0.0
12772,30.0,0.0,90.0,3.0,0.0
12773,66.0,0.0,90.0,5.0,0.0
12774,66.0,0.0,90.0,12.0,0.0
12775,78.0,0.0,90.0,0.0,0.0
12776,42.0,94.0,90.0,14.0,0.0
12777,90.0,0.0,90.0,0.0,0.0
12778,30.0,0.0,90.0,15.0,0.0
12779,42.0,0.0,90.0,8.0,0.0
12780,50.0,24.0,20.0,9.0,0.0
12781,66.0,0.0,90.0,13.0,0.0
12782,78.0,0.0,90.0,11.0,0.0
12783,42.0,0.0,90.0,7.0,0.0
12784,50.0,24.0,20.0,9.0,0.0
12785,50.0,24.0,20.0,9.0,0.0
12786,50.0,2.0,20.0,9.0,0.0
12787,42.0,0.0,90.0,15.0,0.0
12788,85.0,0.0,90.0,0.0,0.0
12789,54.0,0.0,90.0,3.0,0.0
12790,61.0,0.0,90.0,13.0,0.0
12791,50.0,2.0,90.0,9.0,0.0
12792,70.0,48.0,90.0,12.0,0.0
12793,54.0,0.0,15.0,6.0,0.0
12794,54.0,0.0,90.0,7.0,0.0
12795,58.0,0.0,90.0,6.0,0.0
12796,61.0,0.0,90.0,5.0,0.0
12797,42.0,0.0,90.0,8.0,0.0
12798,42.0,0.0,90.0,3.0,0.0
12799,54.0,0.0,90.0,14.0,0.0
12800,73.0,0.0,90.0,11.0,0.0
12801,73.0,0.0,90.0,0.0,0.0
12802,58.0,0.0,90.0,5.0,0.0
12803,66.0,0.0,60.0,2.0,0.0
12804,70.0,48.0,60.0,2.0,0.0
12805,66.0,0.0,60.0,1.0,0.0
12806,54.0,0.0,60.0,2.0,0.0
12807,58.0,0.0,60.0,4.0,0.0
12808,54.0,0.0,60.0,4.0,0.0
12809,70.0,0.0,60.0,1.0,0.0
12810,56.0,0.0,60.0,2.0,0.0
12811,68.0,0.0,60.0,1.0,0.0
12812,56.0,0.0,60.0,4.0,0.0
12813,71.0,0.0,60.0,1.0,0.0
12814,68.0,48.0,60.0,2.0,0.0
12815,71.0,0.0,60.0,2.0,0.0
12816,59.0,0.0,60.0,4.0,0.0
12817,70.0,0.0,60.0,2.0,0.0
12818,66.0,0.0,60.0,1.0,0.0
12819,54.0,0.0,60.0,2.0,0.0
12820,54.0,0.0,60.0,4.0,0.0
12821,58.0,0.0,60.0,4.0,0.0
12822,70.0,0.0,60.0,1.0,0.0
12823,66.0,48.0,60.0,2.0,0.0
12824,61.0,0.0,60.0,2.0,0.0
12825,49.0,0.0,60.0,2.0,0.0
12826,61.0,0.0,60.0,1.0,0.0
12827,68.0,48.0,60.0,1.0,0.0
12828,56.0,0.0,60.0,4.0,0.0
12829,49.0,0.0,60.0,4.0,0.0
12830,68.0,0.0,60.0,2.0,0.0
12831,66.0,0.0,60.0,2.0,0.0
12832,58.0,0.0,60.0,2.0,0.0
12833,66.0,0.0,60.0,1.0,0.0
12834,54.0,48.0,60.0,4.0,0.0
12835,46.0,0.0,60.0,2.0,0.0
12836,58.0,0.0,60.0,1.0,0.0
12837,46.0,0.0,60.0,4.0,0.0
12838,61.0,0.0,60.0,2.0,0.0
12839,49.0,0.0,60.0,2.0,0.0
12840,68.0,0.0,60.0,1.0,0.0
12841,61.0,0.0,60.0,1.0,0.0
12842,68.0,48.0,60.0,2.0,0.0
12843,49.0,0.0,60.0,4.0,0.0
12844,56.0,0.0,60.0,4.0,0.0
12845,66.0,0.0,60.0,1.0,0.0
12846,70.0,0.0,60.0,2.0,0.0
12847,58.0,0.0,60.0,4.0,0.0
12848,54.0,0.0,60.0,4.0,0.0
12849,66.0,48.0,60.0,2.0,0.0
12850,70.0,0.0,60.0,1.0,0.0
12851,54.0,0.0,60.0,2.0,0.0
12852,61.0,48.0,60.0,2.0,0.0
12853,49.0,0.0,60.0,2.0,0.0
12854,49.0,0.0,60.0,4.0,0.0
12855,68.0,0.0,60.0,2.0,0.0
12856,56.0,0.0,60.0,4.0,0.0
12857,61.0,0.0,60.0,1.0,0.0
12858,68.0,0.0,60.0,1.0,0.0
12859,58.0,0.0,60.0,4.0,0.0
12860,54.0,0.0,60.0,2.0,0.0
12861,70.0,0.0,60.0,1.0,0.0
12862,54.0,48.0,60.0,4.0,0.0
12863,70.0,0.0,60.0,2.0,0.0
12864,66.0,0.0,60.0,2.0,0.0
12865,66.0,0.0,60.0,1.0,0.0
12866,71.0,96.0,60.0,2.0,0.0
12867,56.0,0.0,60.0,2.0,0.0
12868,68.0,0.0,60.0,2.0,0.0
12869,56.0,0.0,60.0,4.0,0.0
12870,59.0,0.0,60.0,4.0,0.0
12871,68.0,0.0,60.0,1.0,0.0
12872,71.0,0.0,60.0,1.0,0.0
12873,58.0,0.0,90.0,4.0,0.0
12874,61.0,22.0,90.0,4.0,0.0
12875,73.0,0.0,90.0,1.0,0.0
12876,70.0,0.0,90.0,1.0,0.0
12877,70.0,0.0,90.0,2.0,0.0
12878,73.0,0.0,90.0,2.0,0.0
12879,58.0,0.0,90.0,2.0,0.0
12880,80.0,0.0,30.0,11.0,0.0
12881,25.0,0.0,30.0,15.0,0.0
12882,68.0,0.0,30.0,13.0,0.0
12883,56.0,0.0,30.0,5.0,0.0
12884,65.0,0.0,30.0,5.0,0.0
12885,80.0,0.0,30.0,0.0,0.0
12886,37.0,0.0,30.0,3.0,0.0
12887,77.0,0.0,30.0,12.0,0.0
12888,92.0,0.0,30.0,0.0,0.0
12889,37.0,0.0,30.0,8.0,0.0
12890,37.0,0.0,30.0,6.0,0.0
12891,37.0,0.0,30.0,7.0,0.0
12892,68.0,0.0,30.0,5.0,0.0
12893,56.0,14.0,30.0,6.0,0.0
12894,25.0,0.0,30.0,3.0,0.0
12895,50.0,10.0,20.0,9.0,0.0
12896,37.0,0.0,30.0,14.0,0.0
12897,50.0,24.0,20.0,9.0,0.0
12898,50.0,24.0,20.0,9.0,0.0
12899,50.0,34.0,20.0,9.0,0.0
12900,30.0,0.0,30.0,3.0,0.0
12901,70.0,0.0,30.0,13.0,0.0
12902,42.0,0.0,30.0,8.0,0.0
12903,94.0,0.0,30.0,0.0,0.0
12904,42.0,0.0,30.0,7.0,0.0
12905,58.0,0.0,30.0,5.0,0.0
12906,58.0,0.0,30.0,6.0,0.0
12907,66.0,0.0,30.0,5.0,0.0
12908,82.0,0.0,30.0,0.0,0.0
12909,42.0,0.0,30.0,6.0,0.0
12910,50.0,50.0,90.0,9.0,0.0
12911,30.0,0.0,30.0,15.0,0.0
12912,42.0,0.0,30.0,14.0,0.0
12913,78.0,0.0,30.0,12.0,0.0
12914,42.0,0.0,30.0,3.0,0.0
12915,82.0,62.0,30.0,11.0,0.0
12916,70.0,0.0,30.0,5.0,0.0
12917,58.0,0.0,60.0,2.0,0.0
12918,70.0,0.0,60.0,2.0,0.0
12919,73.0,0.0,60.0,2.0,0.0
12920,58.0,0.0,60.0,4.0,0.0
12921,61.0,0.0,60.0,4.0,0.0
12922,73.0,48.0,60.0,1.0,0.0
12923,70.0,0.0,60.0,1.0,0.0
12924,75.0,0.0,60.0,2.0,0.0
12925,59.0,0.0,60.0,4.0,0.0
12926,59.0,48.0,60.0,2.0,0.0
12927,71.0,0.0,60.0,2.0,0.0
12928,71.0,0.0,60.0,1.0,0.0
12929,75.0,0.0,60.0,1.0,0.0
12930,63.0,0.0,60.0,4.0,0.0
12931,73.0,0.0,60.0,1.0,0.0
12932,70.0,48.0,60.0,1.0,0.0
12933,73.0,0.0,60.0,2.0,0.0
12934,58.0,0.0,60.0,2.0,0.0
12935,61.0,0.0,60.0,4.0,0.0
12936,70.0,0.0,60.0,2.0,0.0
12937,58.0,0.0,60.0,4.0,0.0
12938,56.0,0.0,60.0,2.0,0.0
12939,56.0,48.0,60.0,4.0,0.0
12940,71.0,0.0,60.0,2.0,0.0
12941,68.0,0.0,60.0,2.0,0.0
12942,59.0,0.0,60.0,4.0,0.0
12943,71.0,0.0,60.0,1.0,0.0
12944,68.0,0.0,60.0,1.0,0.0
12945,66.0,0.0,60.0,2.0,0.0
12946,70.0,48.0,60.0,1.0,0.0
12947,66.0,0.0,60.0,1.0,0.0
12948,54.0,0.0,60.0,2.0,0.0
12949,54.0,0.0,60.0,4.0,0.0
12950,58.0,0.0,60.0,4.0,0.0
12951,70.0,0.0,60.0,2.0,0.0
12952,56.0,0.0,60.0,4.0,0.0
12953,59.0,0.0,60.0,4.0,0.0
12954,56.0,0.0,60.0,2.0,0.0
12955,68.0,0.0,60.0,1.0,0.0
12956,68.0,0.0,60.0,2.0,0.0
12957,71.0,96.0,60.0,2.0,0.0
12958,71.0,0.0,60.0,1.0,0.0
12959,58.0,22.0,90.0,4.0,0.0
12960,70.0,0.0,90.0,1.0,0.0
12961,58.0,0.0,90.0,2.0,0.0
12962,70.0,0.0,90.0,2.0,0.0
12963,73.0,0.0,90.0,2.0,0.0
12964,73.0,0.0,90.0,1.0,0.0
12965,61.0,0.0,90.0,4.0,0.0
12966,46.0,0.0,90.0,6.0,0.0
12967,94.0,0.0,90.0,0.0,0.0
12968,82.0,0.0,90.0,0.0,0.0
12969,70.0,0.0,90.0,12.0,0.0
12970,50.0,10.0,20.0,9.0,0.0
12971,42.0,0.0,90.0,14.0,0.0
12972,42.0,0.0,90.0,6.0,0.0
12973,82.0,0.0,90.0,11.0,0.0
12974,70.0,0.0,90.0,5.0,0.0
12975,30.0,0.0,90.0,15.0,0.0
12976,42.0,0.0,90.0,3.0,0.0
12977,37.0,14.0,30.0,8.0,0.0
12978,58.0,94.0,90.0,5.0,0.0
12979,70.0,0.0,90.0,13.0,0.0
12980,42.0,0.0,90.0,7.0,0.0
12981,30.0,0.0,90.0,3.0,0.0
12982,50.0,24.0,20.0,9.0,0.0
12983,50.0,24.0,20.0,9.0,0.0
12984,50.0,2.0,20.0,9.0,0.0
12985,42.0,0.0,90.0,8.0,0.0
12986,66.0,0.0,90.0,5.0,0.0
12987,66.0,0.0,90.0,13.0,0.0
12988,35.0,0.0,90.0,15.0,0.0
12989,78.0,0.0,90.0,11.0,0.0
12990,47.0,22.0,90.0,3.0,0.0
12991,35.0,0.0,90.0,3.0,0.0
12992,47.0,0.0,90.0,7.0,0.0
12993,47.0,0.0,90.0,6.0,0.0
12994,75.0,0.0,90.0,12.0,0.0
12995,90.0,0.0,90.0,0.0,0.0
12996,63.0,0.0,90.0,5.0,0.0
12997,47.0,0.0,90.0,14.0,0.0
12998,50.0,0.0,90.0,9.0,0.0
12999,51.0,0.0,90.0,6.0,0.0
13000,78.0,2.0,90.0,0.0,0.0
13001,42.0,0.0,90.0,7.0,0.0
13002,70.0,0.0,90.0,13.0,0.0
13003,70.0,0.0,90.0,5.0,0.0
13004,37.0,0.0,90.0,8.0,0.0
13005,42.0,0.0,90.0,6.0,0.0
13006,82.0,0.0,90.0,11.0,0.0
13007,42.0,0.0,90.0,14.0,0.0
13008,82.0,0.0,90.0,0.0,0.0
13009,94.0,0.0,90.0,0.0,0.0
13010,30.0,0.0,90.0,15.0,0.0
13011,61.0,94.0,90.0,12.0,0.0
13012,30.0,0.0,90.0,3.0,0.0
13013,50.0,24.0,20.0,9.0,0.0
13014,42.0,0.0,90.0,3.0,0.0
13015,50.0,24.0,20.0,9.0,0.0
13016,50.0,24.0,20.0,9.0,0.0
13017,50.0,2.0,20.0,9.0,0.0
13018,61.0,0.0,90.0,5.0,0.0
13019,61.0,0.0,90.0,13.0,0.0
13020,54.0,0.0,90.0,7.0,0.0
13021,58.0,0.0,15.0,5.0,0.0
13022,54.0,48.0,90.0,6.0,0.0
13023,73.0,0.0,90.0,11.0,0.0
13024,46.0,0.0,15.0,6.0,0.0
13025,73.0,0.0,90.0,0.0,0.0
13026,42.0,0.0,90.0,8.0,0.0
13027,85.0,2.0,90.0,0.0,0.0
13028,50.0,0.0,90.0,9.0,0.0
13029,42.0,0.0,90.0,15.0,0.0
13030,54.0,0.0,90.0,14.0,0.0
13031,54.0,0.0,90.0,3.0,0.0
13032,42.0,0.0,90.0,3.0,0.0
13033,70.0,0.0,90.0,12.0,0.0
13034,70.0,48.0,60.0,1.0,0.0
13035,73.0,0.0,60.0,1.0,0.0
13036,58.0,0.0,60.0,4.0,0.0
13037,70.0,0.0,60.0,2.0,0.0
13038,58.0,0.0,60.0,2.0,0.0
13039,73.0,0.0,60.0,2.0,0.0
13040,61.0,0.0,60.0,4.0,0.0
13041,63.0,48.0,60.0,4.0,0.0
13042,59.0,0.0,60.0,4.0,0.0
13043,75.0,0.0,60.0,1.0,0.0
13044,71.0,0.0,60.0,1.0,0.0
13045,71.0,0.0,60.0,2.0,0.0
13046,75.0,0.0,60.0,2.0,0.0
13047,59.0,0.0,60.0,2.0,0.0
13048,70.0,48.0,60.0,1.0,0.0
13049,70.0,0.0,60.0,2.0,0.0
13050,58.0,0.0,60.0,4.0,0.0
13051,61.0,0.0,60.0,4.0,0.0
13052,73.0,0.0,60.0,2.0,0.0
13053,73.0,0.0,60.0,1.0,0.0
13054,58.0,0.0,60.0,2.0,0.0
13055,56.0,0.0,60.0,4.0,0.0
13056,59.0,0.0,60.0,4.0,0.0
13057,56.0,0.0,60.0,2.0,0.0
13058,71.0,48.0,60.0,2.0,0.0
13059,68.0,0.0,60.0,2.0,0.0
13060,71.0,0.0,60.0,1.0,0.0
13061,68.0,0.0,60.0,1.0,0.0
13062,66.0,0.0,60.0,1.0,0.0
13063,70.0,0.0,60.0,1.0,0.0
13064,70.0,48.0,60.0,2.0,0.0
13065,54.0,0.0,60.0,4.0,0.0
13066,58.0,0.0,60.0,4.0,0.0
13067,66.0,0.0,60.0,2.0,0.0
13068,54.0,0.0,60.0,2.0,0.0
13069,56.0,0.0,60.0,2.0,0.0
13070,59.0,0.0,60.0,4.0,0.0
13071,68.0,0.0,60.0,2.0,0.0
13072,71.0,48.0,60.0,2.0,0.0
13073,71.0,0.0,60.0,1.0,0.0
13074,68.0,0.0,60.0,1.0,0.0
13075,56.0,0.0,60.0,4.0,0.0
13076,54.0,0.0,60.0,2.0,0.0
13077,58.0,0.0,60.0,4.0,0.0
13078,70.0,0.0,60.0,1.0,0.0
13079,54.0,0.0,60.0,4.0,0.0
13080,70.0,0.0,60.0,2.0,0.0
13081,66.0,0.0,60.0,2.0,0.0
13082,66.0,48.0,60.0,1.0,0.0
13083,49.0,0.0,60.0,4.0,0.0
13084,56.0,48.0,60.0,4.0,0.0
13085,61.0,0.0,60.0,1.0,0.0
13086,68.0,0.0,60.0,1.0,0.0
13087,61.0,0.0,60.0,2.0,0.0
13088,49.0,0.0,60.0,2.0,0.0
13089,68.0,0.0,60.0,2.0,0.0
13090,66.0,0.0,60.0,2.0,0.0
13091,46.0,48.0,60.0,2.0,0.0
13092,54.0,0.0,60.0,4.0,0.0
13093,66.0,0.0,60.0,1.0,0.0
13094,68.0,96.0,60.0,2.0,0.0
13095,68.0,0.0,60.0,1.0,0.0
13096,56.0,0.0,60.0,4.0,0.0
13097,48.0,0.0,60.0,2.0,0.0
13098,61.0,22.0,90.0,1.0,0.0
13099,49.0,0.0,90.0,2.0,0.0
13100,49.0,0.0,90.0,4.0,0.0
13101,61.0,0.0,90.0,2.0,0.0
13102,61.0,0.0,90.0,13.0,0.0
13103,37.0,0.0,90.0,8.0,0.0
13104,37.0,0.0,90.0,6.0,0.0
13105,50.0,24.0,20.0,9.0,0.0
13106,49.0,0.0,90.0,7.0,0.0
13107,85.0,0.0,90.0,0.0,0.0
13108,37.0,0.0,90.0,15.0,0.0
13109,61.0,0.0,90.0,5.0,0.0
13110,37.0,0.0,90.0,3.0,0.0
13111,73.0,32.0,90.0,12.0,0.0
13112,61.0,0.0,90.0,6.0,0.0
13113,73.0,0.0,90.0,11.0,0.0
13114,73.0,0.0,90.0,0.0,0.0
13115,37.0,0.0,90.0,14.0,0.0
13116,50.0,24.0,20.0,9.0,0.0
13117,50.0,24.0,20.0,9.0,0.0
13118,50.0,2.0,20.0,9.0,0.0
13119,66.0,0.0,30.0,13.0,0.0
13120,50.0,2.0,90.0,9.0,0.0
13121,90.0,0.0,90.0,0.0,0.0
13122,78.0,0.0,90.0,0.0,0.0
13123,42.0,0.0,30.0,7.0,0.0
13124,66.0,0.0,30.0,5.0,0.0
13125,78.0,0.0,30.0,11.0,0.0
13126,42.0,0.0,90.0,3.0,0.0
13127,30.0,62.0,30.0,15.0,0.0
13128,70.0,0.0,30.0,12.0,0.0
13129,42.0,0.0,30.0,6.0,0.0
13130,42.0,48.0,90.0,8.0,0.0
13131,30.0,0.0,30.0,3.0,0.0
13132,54.0,0.0,30.0,5.0,0.0
13133,58.0,0.0,30.0,5.0,0.0
13134,42.0,0.0,30.0,14.0,0.0
13135,66.0,0.0,30.0,6.0,0.0
13136,66.0,0.0,60.0,2.0,0.0
13137,66.0,0.0,60.0,1.0,0.0
13138,70.0,0.0,60.0,1.0,0.0
13139,54.0,48.0,60.0,2.0,0.0
13140,70.0,0.0,60.0,2.0,0.0
13141,58.0,0.0,60.0,4.0,0.0
13142,54.0,0.0,60.0,4.0,0.0
13143,59.0,0.0,60.0,4.0,0.0
13144,71.0,0.0,60.0,1.0,0.0
13145,56.0,0.0,60.0,2.0,0.0
13146,71.0,0.0,60.0,2.0,0.0
13147,68.0,48.0,60.0,2.0,0.0
13148,68.0,0.0,60.0,1.0,0.0
13149,56.0,0.0,60.0,4.0,0.0
13150,58.0,0.0,60.0,4.0,0.0
13151,54.0,0.0,60.0,4.0,0.0
13152,54.0,0.0,60.0,2.0,0.0
13153,70.0,0.0,60.0,1.0,0.0
13154,66.0,0.0,60.0,1.0,0.0
13155,70.0,48.0,60.0,2.0,0.0
13156,66.0,0.0,60.0,2.0,0.0
13157,49.0,0.0,60.0,2.0,0.0
13158,61.0,0.0,60.0,1.0,0.0
13159,49.0,0.0,60.0,4.0,0.0
13160,56.0,0.0,60.0,4.0,0.0
13161,68.0,48.0,60.0,2.0,0.0
13162,61.0,0.0,60.0,2.0,0.0
13163,68.0,0.0,60.0,1.0,0.0
13164,66.0,0.0,60.0,1.0,0.0
13165,58.0,0.0,60.0,1.0,0.0
13166,66.0,0.0,60.0,2.0,0.0
13167,58.0,48.0,60.0,2.0,0.0
13168,46.0,0.0,60.0,2.0,0.0
13169,54.0,0.0,60.0,4.0,0.0
13170,46.0,0.0,60.0,4.0,0.0
13171,61.0,0.0,60.0,1.0,0.0
13172,68.0,0.0,60.0,1.0,0.0
13173,56.0,96.0,60.0,4.0,0.0
13174,49.0,0.0,60.0,4.0,0.0
13175,68.0,0.0,60.0,2.0,0.0
13176,61.0,0.0,60.0,2.0,0.0
13177,49.0,0.0,60.0,2.0,0.0
13178,70.0,0.0,90.0,2.0,0.0
13179,66.0,0.0,90.0,2.0,0.0
13180,54.0,22.0,90.0,2.0,0.0
13181,54.0,0.0,90.0,4.0,0.0
13182,58.0,0.0,90.0,4.0,0.0
13183,66.0,0.0,90.0,1.0,0.0
13184,70.0,0.0,90.0,1.0,0.0
13185,54.0,0.0,90.0,5.0,0.0
13186,42.0,94.0,90.0,7.0,0.0
13187,42.0,0.0,90.0,3.0,0.0
13188,66.0,0.0,90.0,5.0,0.0
13189,30.0,0.0,90.0,15.0,0.0
13190,90.0,0.0,90.0,0.0,0.0
13191,66.0,0.0,90.0,13.0,0.0
13192,30.0,0.0,90.0,3.0,0.0
13193,42.0,0.0,90.0,6.0,0.0
13194,42.0,0.0,90.0,8.0,0.0
13195,42.0,0.0,90.0,14.0,0.0
13196,78.0,0.0,90.0,11.0,0.0
13197,78.0,0.0,90.0,0.0,0.0
13198,66.0,0.0,90.0,12.0,0.0
13199,54.0,0.0,90.0,6.0,0.0
13200,50.0,24.0,20.0,9.0,0.0
13201,50.0,24.0,20.0,9.0,0.0
13202,50.0,24.0,20.0,9.0,0.0
13203,50.0,2.0,20.0,9.0,0.0
13204,47.0,0.0,90.0,14.0,0.0
13205,59.0,0.0,90.0,5.0,0.0
13206,35.0,0.0,90.0,15.0,0.0
13207,87.0,0.0,90.0,0.0,0.0
13208,63.0,0.0,90.0,13.0,0.0
13209,59.0,0.0,90.0,6.0,0.0
13210,63.0,0.0,90.0,5.0,0.0
13211,47.0,0.0,90.0,6.0,0.0
13212,37.0,0.0,90.0,8.0,0.0
13213,75.0,2.0,90.0,0.0,0.0
13214,50.0,0.0,90.0,9.0,0.0
13215,47.0,22.0,90.0,3.0,0.0
13216,47.0,0.0,90.0,7.0,0.0
13217,71.0,0.0,90.0,12.0,0.0
13218,75.0,0.0,90.0,11.0,0.0
13219,35.0,0.0,90.0,3.0,0.0
13220,42.0,0.0,90.0,6.0,0.0
13221,54.0,0.0,90.0,6.0,0.0
13222,66.0,0.0,90.0,5.0,0.0
13223,42.0,0.0,90.0,8.0,0.0
13224,78.0,0.0,90.0,11.0,0.0
13225,54.0,0.0,90.0,5.0,0.0
13226,66.0,0.0,90.0,13.0,0.0
13227,42.0,0.0,90.0,7.0,0.0
13228,78.0,0.0,90.0,0.0,0.0
13229,66.0,0.0,90.0,12.0,0.0
13230,30.0,0.0,90.0,3.0,0.0
13231,30.0,0.0,90.0,15.0,0.0
13232,50.0,24.0,20.0,9.0,0.0
13233,90.0,94.0,90.0,0.0,0.0
13234,42.0,0.0,90.0,14.0,0.0
13235,50.0,24.0,20.0,9.0,0.0
13236,50.0,24.0,20.0,9.0,0.0
13237,50.0,2.0,20.0,9.0,0.0
13238,42.0,0.0,90.0,8.0,0.0
13239,73.0,0.0,90.0,0.0,0.0
13240,54.0,0.0,90.0,14.0,0.0
13241,58.0,0.0,90.0,5.0,0.0
13242,58.0,0.0,90.0,6.0,0.0
13243,42.0,0.0,15.0,3.0,0.0
13244,70.0,0.0,90.0,12.0,0.0
13245,42.0,0.0,90.0,3.0,0.0
13246,54.0,0.0,90.0,3.0,0.0
13247,85.0,0.0,90.0,0.0,0.0
13248,54.0,48.0,90.0,7.0,0.0
13249,42.0,0.0,90.0,15.0,0.0
13250,50.0,2.0,90.0,9.0,0.0
13251,61.0,0.0,90.0,13.0,0.0
13252,54.0,0.0,90.0,6.0,0.0
13253,73.0,0.0,90.0,11.0,0.0
13254,61.0,0.0,90.0,5.0,0.0
13255,70.0,0.0,60.0,1.0,0.0
13256,70.0,0.0,60.0,2.0,0.0
13257,66.0,0.0,60.0,2.0,0.0
13258,58.0,0.0,60.0,4.0,0.0
13259,66.0,0.0,60.0,1.0,0.0
13260,54.0,0.0,60.0,2.0,0.0
13261,54.0,48.0,60.0,4.0,0.0
13262,68.0,48.0,60.0,1.0,0.0
13263,71.0,0.0,60.0,1.0,0.0
13264,56.0,0.0,60.0,4.0,0.0
13265,71.0,0.0,60.0,2.0,0.0
13266,59.0,0.0,60.0,4.0,0.0
13267,56.0,0.0,60.0,2.0,0.0
13268,68.0,0.0,60.0,2.0,0.0
13269,54.0,0.0,60.0,2.0,0.0
13270,54.0,48.0,60.0,4.0,0.0
13271,70.0,0.0,60.0,2.0,0.0
13272,66.0,0.0,60.0,2.0,0.0
13273,58.0,0.0,60.0,4.0,0.0
13274,70.0,0.0,60.0,1.0,0.0
13275,66.0,0.0,60.0,1.0,0.0
13276,68.0,0.0,60.0,2.0,0.0
13277,61.0,0.0,60.0,1.0,0.0
13278,68.0,0.0,60.0,1.0,0.0
13279,61.0,0.0,60.0,2.0,0.0
13280,49.0,0.0,60.0,2.0,0.0
13281,49.0,48.0,60.0,4.0,0.0
13282,56.0,0.0,60.0,4.0,0.0
13283,58.0,0.0,60.0,1.0,0.0
13284,66.0,0.0,60.0,2.0,0.0
13285,58.0,0.0,60.0,2.0,0.0
13286,66.0,0.0,60.0,1.0,0.0
13287,54.0,48.0,60.0,4.0,0.0
13288,46.0,0.0,60.0,4.0,0.0
13289,46.0,0.0,60.0,2.0,0.0
13290,56.0,0.0,60.0,4.0,0.0
13291,61.0,48.0,60.0,2.0,0.0
13292,49.0,0.0,60.0,2.0,0.0
13293,68.0,0.0,60.0,2.0,0.0
13294,49.0,0.0,60.0,4.0,0.0
13295,68.0,0.0,60.0,1.0,0.0
13296,61.0,0.0,60.0,1.0,0.0
13297,54.0,48.0,60.0,4.0,0.0
13298,70.0,0.0,60.0,2.0,0.0
13299,66.0,0.0,60.0,2.0,0.0
13300,66.0,0.0,60.0,1.0,0.0
13301,58.0,0.0,60.0,4.0,0.0
13302,54.0,0.0,60.0,2.0,0.0
13303,70.0,0.0,60.0,1.0,0.0
13304,68.0,48.0,60.0,2.0,0.0
13305,61.0,0.0,60.0,2.0,0.0
13306,56.0,0.0,60.0,4.0,0.0
13307,49.0,0.0,60.0,2.0,0.0
13308,68.0,0.0,60.0,1.0,0.0
13309,61.0,0.0,60.0,1.0,0.0
13310,49.0,0.0,60.0,4.0,0.0
13311,66.0,0.0,60.0,1.0,0.0
13312,70.0,0.0,60.0,1.0,0.0
13313,58.0,0.0,60.0,4.0,0.0
13314,54.0,0.0,60.0,4.0,0.0
13315,54.0,0.0,60.0,2.0,0.0
13316,66.0,48.0,60.0,2.0,0.0
13317,70.0,0.0,60.0,2.0,0.0
13318,59.0,0.0,60.0,4.0,0.0
13319,56.0,0.0,60.0,2.0,0.0
13320,56.0,0.0,60.0,4.0,0.0
13321,68.0,0.0,60.0,1.0,0.0
13322,71.0,96.0,60.0,1.0,0.0
13323,71.0,0.0,60.0,2.0,0.0
13324,68.0,0.0,60.0,2.0,0.0
13325,73.0,0.0,90.0,2.0,0.0
13326,70.0,0.0,90.0,2.0,0.0
13327,58.0,22.0,90.0,4.0,0.0
13328,61.0,0.0,90.0,4.0,0.0
13329,70.0,0.0,90.0,1.0,0.0
13330,58.0,0.0,90.0,2.0,0.0
13331,73.0,0.0,90.0,1.0,0.0
13332,68.0,0.0,30.0,5.0,0.0
13333,50.0,10.0,20.0,9.0,0.0
13334,56.0,0.0,30.0,6.0,0.0
13335,80.0,0.0,30.0,0.0,0.0
13336,37.0,0.0,30.0,6.0,0.0
13337,37.0,0.0,30.0,3.0,0.0
13338,68.0,0.0,30.0,13.0,0.0
13339,37.0,0.0,30.0,7.0,0.0
13340,25.0,0.0,30.0,15.0,0.0
13341,77.0,0.0,30.0,12.0,0.0
13342,37.0,0.0,30.0,14.0,0.0
13343,65.0,0.0,30.0,5.0,0.0
13344,56.0,0.0,30.0,5.0,0.0
13345,25.0,14.0,30.0,3.0,0.0
13346,80.0,0.0,30.0,11.0,0.0
13347,37.0,0.0,30.0,8.0,0.0
13348,92.0,0.0,30.0,0.0,0.0
13349,50.0,24.0,20.0,9.0,0.0
13350,50.0,24.0,20.0,9.0,0.0
13351,50.0,34.0,20.0,9.0,0.0
13352,78.0,62.0,30.0,12.0,0.0
13353,82.0,0.0,30.0,11.0,0.0
13354,42.0,0.0,30.0,3.0,0.0
13355,50.0,50.0,90.0,9.0,0.0
13356,70.0,0.0,30.0,5.0,0.0
13357,42.0,0.0,30.0,7.0,0.0
13358,58.0,0.0,30.0,6.0,0.0
13359,42.0,0.0,30.0,6.0,0.0
13360,82.0,0.0,30.0,0.0,0.0
13361,42.0,0.0,30.0,8.0,0.0
13362,42.0,0.0,30.0,14.0,0.0
13363,58.0,0.0,30.0,5.0,0.0
13364,30.0,0.0,30.0,3.0,0.0
13365,94.0,0.0,30.0,0.0,0.0
13366,70.0,0.0,30.0,13.0,0.0
13367,30.0,0.0,30.0,15.0,0.0
13368,66.0,0.0,30.0,5.0,0.0
13369,70.0,0.0,60.0,1.0,0.0
13370,73.0,0.0,60.0,1.0,0.0
13371,70.0,0.0,60.0,2.0,0.0
13372,61.0,0.0,60.0,4.0,0.0
13373,58.0,0.0,60.0,4.0,0.0
13374,73.0,48.0,60.0,2.0,0.0
13375,58.0,0.0,60.0,2.0,0.0
13376,71.0,0.0,60.0,1.0,0.0
13377,75.0,0.0,60.0,1.0,0.0
13378,59.0,0.0,60.0,4.0,0.0
13379,63.0,0.0,60.0,4.0,0.0
13380,71.0,0.0,60.0,2.0,0.0
13381,59.0,48.0,60.0,2.0,0.0
13382,75.0,0.0,60.0,2.0,0.0
13383,70.0,0.0,60.0,1.0,0.0
13384,61.0,0.0,60.0,4.0,0.0
13385,73.0,0.0,60.0,1.0,0.0
13386,70.0,0.0,60.0,2.0,0.0
13387,58.0,0.0,60.0,2.0,0.0
13388,73.0,0.0,60.0,2.0,0.0
13389,58.0,48.0,60.0,4.0,0.0
13390,68.0,0.0,60.0,1.0,0.0
13391,59.0,0.0,60.0,4.0,0.0
13392,71.0,0.0,60.0,1.0,0.0
13393,68.0,48.0,60.0,2.0,0.0
13394,56.0,0.0,60.0,4.0,0.0
13395,56.0,0.0,60.0,2.0,0.0
13396,71.0,0.0,60.0,2.0,0.0
13397,58.0,0.0,60.0,4.0,0.0
13398,54.0,0.0,60.0,2.0,0.0
13399,66.0,48.0,60.0,1.0,0.0
13400,66.0,0.0,60.0,2.0,0.0
13401,70.0,0.0,60.0,2.0,0.0
13402,54.0,0.0,60.0,4.0,0.0
13403,70.0,0.0,60.0,1.0,0.0
13404,71.0,0.0,60.0,2.0,0.0
13405,68.0,96.0,60.0,2.0,0.0
13406,59.0,0.0,60.0,4.0,0.0
13407,71.0,0.0,60.0,1.0,0.0
13408,56.0,0.0,60.0,4.0,0.0
13409,56.0,0.0,60.0,2.0,0.0
13410,68.0,0.0,60.0,1.0,0.0
13411,61.0,0.0,90.0,4.0,0.0
13412,70.0,0.0,90.0,1.0,0.0
13413,73.0,0.0,90.0,1.0,0.0
13414,58.0,0.0,90.0,4.0,0.0
13415,70.0,22.0,90.0,2.0,0.0
13416,73.0,0.0,90.0,2.0,0.0
13417,58.0,0.0,90.0,2.0,0.0
13418,46.0,0.0,90.0,6.0,0.0
13419,70.0,0.0,90.0,12.0,0.0
13420,58.0,0.0,90.0,5.0,0.0
13421,70.0,94.0,90.0,5.0,0.0
13422,94.0,0.0,90.0,0.0,0.0
13423,30.0,0.0,90.0,15.0,0.0
13424,82.0,0.0,90.0,11.0,0.0
13425,82.0,0.0,90.0,0.0,0.0
13426,42.0,0.0,90.0,7.0,0.0
13427,70.0,0.0,90.0,13.0,0.0
13428,30.0,0.0,90.0,3.0,0.0
13429,42.0,0.0,90.0,3.0,0.0
13430,37.0,14.0,30.0,8.0,0.0
13431,50.0,10.0,20.0,9.0,0.0
13432,42.0,0.0,90.0,14.0,0.0
13433,42.0,0.0,90.0,6.0,0.0
13434,50.0,24.0,20.0,9.0,0.0
13435,50.0,24.0,20.0,9.0,0.0
13436,50.0,2.0,20.0,9.0,0.0
13437,50.0,0.0,90.0,9.0,0.0
13438,78.0,0.0,90.0,11.0,0.0
13439,75.0,0.0,90.0,12.0,0.0
13440,66.0,22.0,90.0,13.0,0.0
13441,90.0,0.0,90.0,0.0,0.0
13442,51.0,0.0,90.0,6.0,0.0
13443,42.0,0.0,90.0,8.0,0.0
13444,35.0,0.0,90.0,15.0,0.0
13445,47.0,0.0,90.0,3.0,0.0
13446,47.0,0.0,90.0,14.0,0.0
13447,47.0,0.0,90.0,7.0,0.0
13448,63.0,0.0,90.0,5.0,0.0
13449,35.0,2.0,90.0,3.0,0.0
13450,78.0,0.0,90.0,0.0,0.0
13451,66.0,0.0,90.0,5.0,0.0
13452,47.0,0.0,90.0,6.0,0.0
13453,94.0,0.0,90.0,0.0,0.0
13454,46.0,0.0,90.0,6.0,0.0
13455,42.0,0.0,90.0,6.0,0.0
13456,42.0,94.0,90.0,14.0,0.0
13457,82.0,0.0,90.0,11.0,0.0
13458,82.0,0.0,90.0,0.0,0.0
13459,70.0,0.0,90.0,5.0,0.0
13460,42.0,0.0,90.0,7.0,0.0
13461,37.0,0.0,90.0,8.0,0.0
13462,30.0,0.0,90.0,15.0,0.0
13463,50.0,24.0,20.0,9.0,0.0
13464,70.0,0.0,90.0,13.0,0.0
13465,30.0,0.0,90.0,3.0,0.0
13466,61.0,0.0,90.0,12.0,0.0
13467,50.0,24.0,20.0,9.0,0.0
13468,50.0,24.0,20.0,9.0,0.0
13469,50.0,2.0,20.0,9.0,0.0
13470,85.0,0.0,90.0,0.0,0.0
13471,54.0,0.0,90.0,3.0,0.0
13472,54.0,0.0,90.0,7.0,0.0
13473,42.0,0.0,15.0,3.0,0.0
13474,61.0,0.0,90.0,5.0,0.0
13475,42.0,0.0,90.0,8.0,0.0
13476,58.0,0.0,15.0,5.0,0.0
13477,73.0,0.0,90.0,0.0,0.0
13478,70.0,48.0,90.0,12.0,0.0
13479,46.0,0.0,90.0,6.0,0.0
13480,61.0,0.0,90.0,13.0,0.0
13481,42.0,0.0,90.0,15.0,0.0
13482,54.0,0.0,90.0,6.0,0.0
13483,73.0,0.0,90.0,11.0,0.0
13484,50.0,0.0,90.0,9.0,0.0
13485,54.0,0.0,90.0,14.0,0.0
13486,73.0,0.0,60.0,1.0,0.0
13487,58.0,48.0,60.0,2.0,0.0
13488,61.0,0.0,60.0,4.0,0.0
13489,70.0,0.0,60.0,2.0,0.0
13490,70.0,0.0,60.0,1.0,0.0
13491,73.0,0.0,60.0,2.0,0.0
13492,58.0,0.0,60.0,4.0,0.0
13493,75.0,0.0,60.0,2.0,0.0
13494,63.0,0.0,60.0,4.0,0.0
13495,75.0,0.0,60.0,1.0,0.0
13496,71.0,0.0,60.0,1.0,0.0
13497,59.0,0.0,60.0,4.0,0.0
13498,59.0,48.0,60.0,2.0,0.0
13499,71.0,0.0,60.0,2.0,0.0
13500,58.0,0.0,60.0,4.0,0.0
13501,70.0,48.0,60.0,2.0,0.0
13502,70.0,0.0,60.0,1.0,0.0
13503,58.0,0.0,60.0,2.0,0.0
13504,73.0,0.0,60.0,1.0,0.0
13505,73.0,0.0,60.0,2.0,0.0
13506,61.0,0.0,60.0,4.0,0.0
13507,56.0,0.0,60.0,4.0,0.0
13508,56.0,0.0,60.0,2.0,0.0
13509,71.0,0.0,60.0,2.0,0.0
13510,59.0,0.0,60.0,4.0,0.0
13511,71.0,0.0,60.0,1.0,0.0
13512,68.0,0.0,60.0,1.0,0.0
13513,68.0,48.0,60.0,2.0,0.0
13514,66.0,0.0,60.0,1.0,0.0
13515,54.0,0.0,60.0,4.0,0.0
13516,70.0,0.0,60.0,1.0,0.0
13517,66.0,0.0,60.0,2.0,0.0
13518,70.0,48.0,60.0,2.0,0.0
13519,54.0,0.0,60.0,2.0,0.0
13520,58.0,0.0,60.0,4.0,0.0
13521,59.0,0.0,60.0,4.0,0.0
13522,68.0,48.0,60.0,1.0,0.0
13523,71.0,0.0,60.0,1.0,0.0
13524,56.0,0.0,60.0,4.0,0.0
13525,56.0,0.0,60.0,2.0,0.0
13526,71.0,0.0,60.0,2.0,0.0
13527,68.0,0.0,60.0,2.0,0.0
13528,70.0,0.0,60.0,2.0,0.0
13529,54.0,48.0,60.0,4.0,0.0
13530,66.0,0.0,60.0,1.0,0.0
13531,70.0,0.0,60.0,1.0,0.0
13532,66.0,0.0,60.0,2.0,0.0
13533,54.0,0.0,60.0,2.0,0.0
13534,58.0,0.0,60.0,4.0,0.0
13535,68.0,48.0,60.0,2.0,0.0
13536,49.0,0.0,60.0,2.0,0.0
13537,61.0,0.0,60.0,2.0,0.0
13538,68.0,0.0,60.0,1.0,0.0
13539,61.0,0.0,60.0,1.0,0.0
13540,56.0,0.0,60.0,4.0,0.0
13541,49.0,0.0,60.0,4.0,0.0
13542,46.0,48.0,60.0,2.0,0.0
13543,66.0,0.0,60.0,2.0,0.0
13544,54.0,0.0,60.0,4.0,0.0
13545,66.0,0.0,60.0,1.0,0.0
13546,68.0,0.0,60.0,1.0,0.0
13547,56.0,0.0,60.0,4.0,0.0
13548,48.0,96.0,60.0,2.0,0.0
13549,68.0,0.0,60.0,2.0,0.0
13550,49.0,0.0,90.0,2.0,0.0
13551,61.0,0.0,90.0,2.0,0.0
13552,61.0,0.0,90.0,1.0,0.0
13553,49.0,0.0,90.0,4.0,0.0
13554,73.0,0.0,90.0,12.0,0.0
13555,61.0,0.0,90.0,13.0,0.0
13556,85.0,0.0,90.0,0.0,0.0
13557,61.0,0.0,90.0,5.0,0.0
13558,85.0,94.0,90.0,11.0,0.0
13559,73.0,0.0,90.0,5.0,0.0
13560,74.0,0.0,90.0,5.0,0.0
13561,62.0,48.0,90.0,5.0,0.0
13562,86.0,0.0,90.0,11.0,0.0
13563,86.0,0.0,90.0,0.0,0.0
13564,62.0,0.0,90.0,13.0,0.0
13565,74.0,0.0,90.0,12.0,0.0
13566,59.0,0.0,60.0,13.0,0.0
13567,68.0,48.0,60.0,1.0,0.0
13568,71.0,0.0,60.0,1.0,0.0
13569,59.0,0.0,60.0,4.0,0.0
13570,56.0,0.0,60.0,4.0,0.0
13571,68.0,0.0,60.0,2.0,0.0
13572,71.0,0.0,60.0,2.0,0.0
13573,56.0,0.0,60.0,14.0,0.0
13574,57.0,0.0,60.0,4.0,0.0
13575,61.0,0.0,60.0,13.0,0.0
13576,61.0,48.0,60.0,4.0,0.0
13577,57.0,0.0,60.0,14.0,0.0
13578,73.0,0.0,60.0,2.0,0.0
13579,69.0,0.0,60.0,1.0,0.0
13580,73.0,0.0,60.0,1.0,0.0
13581,69.0,0.0,60.0,2.0,0.0
13582,68.0,0.0,60.0,2.0,0.0
13583,71.0,0.0,60.0,2.0,0.0
13584,59.0,0.0,60.0,13.0,0.0
13585,56.0,0.0,60.0,4.0,0.0
13586,71.0,0.0,60.0,1.0,0.0
13587,68.0,0.0,60.0,1.0,0.0
13588,56.0,0.0,60.0,14.0,0.0
13589,59.0,48.0,60.0,4.0,0.0
13590,57.0,0.0,60.0,13.0,0.0
13591,54.0,0.0,60.0,4.0,0.0
13592,69.0,0.0,60.0,1.0,0.0
13593,66.0,0.0,60.0,1.0,0.0
13594,69.0,0.0,60.0,2.0,0.0
13595,66.0,0.0,60.0,2.0,0.0
13596,57.0,48.0,60.0,4.0,0.0
13597,54.0,0.0,60.0,14.0,0.0
13598,53.0,0.0,60.0,4.0,0.0
13599,65.0,0.0,60.0,2.0,0.0
13600,68.0,48.0,60.0,2.0,0.0
13601,65.0,0.0,60.0,1.0,0.0
13602,53.0,0.0,60.0,14.0,0.0
13603,56.0,0.0,60.0,13.0,0.0
13604,68.0,0.0,60.0,1.0,0.0
13605,56.0,0.0,60.0,4.0,0.0
13606,57.0,0.0,60.0,4.0,0.0
13607,54.0,0.0,60.0,14.0,0.0
13608,57.0,0.0,60.0,13.0,0.0
13609,54.0,96.0,60.0,4.0,0.0
13610,66.0,0.0,60.0,1.0,0.0
13611,66.0,0.0,60.0,2.0,0.0
13612,69.0,0.0,60.0,2.0,0.0
13613,69.0,0.0,60.0,1.0,0.0
13614,59.0,0.0,90.0,4.0,0.0
13615,68.0,0.0,90.0,1.0,0.0
13616,71.0,0.0,90.0,1.0,0.0
13617,68.0,0.0,90.0,2.0,0.0
13618,59.0,0.0,90.0,13.0,0.0
13619,56.0,96.0,90.0,14.0,0.0
13620,56.0,0.0,90.0,4.0,0.0
13621,71.0,0.0,90.0,2.0,0.0
13622,85.0,0.0,90.0,11.0,0.0
13623,73.0,0.0,90.0,12.0,0.0
13624,61.0,0.0,90.0,5.0,0.0
13625,85.0,0.0,90.0,0.0,0.0
13626,61.0,0.0,90.0,13.0,0.0
13627,73.0,94.0,90.0,5.0,0.0
13628,74.0,0.0,90.0,12.0,0.0
13629,86.0,0.0,90.0,11.0,0.0
13630,74.0,0.0,90.0,5.0,0.0
13631,62.0,96.0,90.0,5.0,0.0
13632,86.0,0.0,90.0,0.0,0.0
13633,62.0,0.0,90.0,13.0,0.0
13634,87.0,94.0,90.0,11.0,0.0
13635,87.0,0.0,90.0,0.0,0.0
13636,75.0,0.0,90.0,12.0,0.0
13637,63.0,0.0,90.0,13.0,0.0
13638,75.0,0.0,90.0,5.0,0.0
13639,63.0,0.0,90.0,5.0,0.0
13640,76.0,0.0,90.0,5.0,0.0
13641,76.0,48.0,90.0,12.0,0.0
13642,64.0,0.0,90.0,5.0,0.0
13643,64.0,0.0,90.0,13.0,0.0
13644,88.0,0.0,90.0,11.0,0.0
13645,88.0,0.0,90.0,0.0,0.0
13646,59.0,0.0,60.0,4.0,0.0
13647,71.0,0.0,60.0,2.0,0.0
13648,62.0,0.0,60.0,2.0,0.0
13649,50.0,0.0,60.0,14.0,0.0
13650,62.0,0.0,60.0,1.0,0.0
13651,71.0,48.0,60.0,1.0,0.0
13652,59.0,0.0,60.0,13.0,0.0
13653,50.0,0.0,60.0,4.0,0.0
13654,64.0,0.0,60.0,2.0,0.0
13655,52.0,0.0,60.0,14.0,0.0
13656,61.0,0.0,60.0,4.0,0.0
13657,61.0,0.0,60.0,13.0,0.0
13658,73.0,0.0,60.0,2.0,0.0
13659,52.0,0.0,60.0,4.0,0.0
13660,64.0,48.0,60.0,1.0,0.0
13661,73.0,0.0,60.0,1.0,0.0
13662,71.0,0.0,60.0,2.0,0.0
13663,62.0,48.0,60.0,2.0,0.0
13664,59.0,0.0,60.0,4.0,0.0
13665,50.0,0.0,60.0,14.0,0.0
13666,59.0,0.0,60.0,13.0,0.0
13667,62.0,0.0,60.0,1.0,0.0
13668,71.0,0.0,60.0,1.0,0.0
13669,50.0,0.0,60.0,4.0,0.0
13670,57.0,0.0,60.0,4.0,0.0
13671,61.0,48.0,60.0,1.0,0.0
13672,57.0,0.0,60.0,13.0,0.0
13673,69.0,0.0,60.0,2.0,0.0
13674,69.0,0.0,60.0,1.0,0.0
13675,49.0,0.0,60.0,14.0,0.0
13676,49.0,0.0,60.0,4.0,0.0
13677,61.0,0.0,60.0,2.0,0.0
13678,47.0,0.0,60.0,4.0,0.0
13679,47.0,0.0,60.0,14.0,0.0
13680,68.0,0.0,60.0,1.0,0.0
13681,59.0,0.0,60.0,1.0,0.0
13682,56.0,48.0,60.0,4.0,0.0
13683,59.0,0.0,60.0,2.0,0.0
13684,68.0,0.0,60.0,2.0,0.0
13685,56.0,0.0,60.0,13.0,0.0
13686,49.0,0.0,60.0,4.0,0.0
13687,61.0,0.0,60.0,2.0,0.0
13688,49.0,0.0,60.0,14.0,0.0
13689,69.0,0.0,60.0,2.0,0.0
13690,61.0,0.0,60.0,1.0,0.0
13691,57.0,96.0,60.0,4.0,0.0
13692,57.0,0.0,60.0,13.0,0.0
13693,69.0,0.0,60.0,1.0,0.0
13694,62.0,0.0,90.0,2.0,0.0
13695,71.0,0.0,90.0,2.0,0.0
13696,59.0,0.0,90.0,13.0,0.0
13697,71.0,0.0,90.0,1.0,0.0
13698,59.0,0.0,90.0,4.0,0.0
13699,50.0,0.0,90.0,4.0,0.0
13700,50.0,96.0,90.0,14.0,0.0
13701,62.0,0.0,90.0,1.0,0.0
13702,63.0,0.0,90.0,13.0,0.0
13703,75.0,0.0,90.0,5.0,0.0
13704,87.0,0.0,90.0,11.0,0.0
13705,75.0,0.0,90.0,12.0,0.0
13706,63.0,0.0,90.0,5.0,0.0
13707,87.0,0.0,90.0,0.0,0.0
13708,76.0,96.0,90.0,5.0,0.0
13709,88.0,0.0,90.0,0.0,0.0
13710,64.0,0.0,90.0,5.0,0.0
13711,88.0,0.0,90.0,11.0,0.0
13712,76.0,0.0,15.0,12.0,0.0
13713,64.0,0.0,90.0,5.0,0.0
13714,64.0,0.0,15.0,13.0,0.0
13715,76.0,0.0,90.0,5.0,0.0
13716,88.0,0.0,90.0,0.0,0.0
13717,88.0,0.0,90.0,11.0,0.0
13718,65.0,0.0,90.0,5.0,0.0
13719,89.0,48.0,90.0,11.0,0.0
13720,89.0,0.0,90.0,0.0,0.0
13721,77.0,0.0,90.0,12.0,0.0
13722,65.0,0.0,90.0,13.0,0.0
13723,77.0,0.0,90.0,5.0,0.0
13724,71.0,0.0,60.0,1.0,0.0
13725,59.0,0.0,60.0,11.0,0.0
13726,59.0,0.0,60.0,2.0,0.0
13727,59.0,48.0,60.0,4.0,0.0
13728,59.0,0.0,60.0,13.0,0.0
13729,59.0,0.0,60.0,12.0,0.0
13730,50.0,0.0,60.0,3.0,0.0
13731,50.0,0.0,60.0,2.0,0.0
13732,50.0,0.0,60.0,4.0,0.0
13733,50.0,0.0,60.0,14.0,0.0
13734,52.0,0.0,60.0,14.0,0.0
13735,52.0,0.0,60.0,4.0,0.0
13736,61.0,0.0,60.0,12.0,0.0
13737,52.0,0.0,60.0,2.0,0.0
13738,61.0,0.0,60.0,2.0,0.0
13739,61.0,0.0,60.0,13.0,0.0
13740,52.0,0.0,60.0,3.0,0.0
13741,61.0,0.0,60.0,11.0,0.0
13742,73.0,0.0,60.0,1.0,0.0
13743,61.0,48.0,60.0,4.0,0.0
13744,50.0,0.0,60.0,4.0,0.0
13745,59.0,0.0,60.0,12.0,0.0
13746,50.0,0.0,60.0,2.0,0.0
13747,50.0,0.0,60.0,14.0,0.0
13748,59.0,0.0,60.0,4.0,0.0
13749,71.0,48.0,60.0,1.0,0.0
13750,59.0,0.0,60.0,13.0,0.0
13751,59.0,0.0,60.0,2.0,0.0
13752,50.0,0.0,60.0,3.0,0.0
13753,59.0,0.0,60.0,11.0,0.0
13754,57.0,0.0,60.0,13.0,0.0
13755,49.0,0.0,60.0,2.0,0.0
13756,49.0,0.0,60.0,3.0,0.0
13757,57.0,48.0,60.0,11.0,0.0
13758,57.0,0.0,60.0,12.0,0.0
13759,49.0,0.0,60.0,14.0,0.0
13760,57.0,0.0,60.0,4.0,0.0
13761,57.0,0.0,60.0,2.0,0.0
13762,49.0,0.0,60.0,4.0,0.0
13763,69.0,0.0,60.0,1.0,0.0
13764,56.0,0.0,60.0,2.0,0.0
13765,47.0,0.0,60.0,4.0,0.0
13766,47.0,0.0,60.0,14.0,0.0
13767,56.0,0.0,60.0,12.0,0.0
13768,56.0,48.0,60.0,13.0,0.0
13769,47.0,0.0,60.0,3.0,0.0
13770,56.0,0.0,60.0,11.0,0.0
13771,47.0,0.0,60.0,2.0,0.0
13772,68.0,0.0,60.0,1.0,0.0
13773,56.0,0.0,60.0,4.0,0.0
13774,49.0,0.0,60.0,14.0,0.0
13775,57.0,0.0,60.0,11.0,0.0
13776,57.0,0.0,60.0,2.0,0.0
13777,57.0,0.0,60.0,12.0,0.0
13778,69.0,0.0,60.0,1.0,0.0
13779,57.0,0.0,60.0,4.0,0.0
13780,49.0,0.0,60.0,4.0,0.0
13781,49.0,0.0,60.0,2.0,0.0
13782,57.0,48.0,60.0,13.0,0.0
13783,49.0,0.0,60.0,3.0,0.0
13784,56.0,0.0,60.0,11.0,0.0
13785,47.0,0.0,60.0,3.0,0.0
13786,56.0,0.0,60.0,2.0,0.0
13787,56.0,0.0,60.0,12.0,0.0
13788,47.0,0.0,60.0,4.0,0.0
13789,56.0,0.0,60.0,13.0,0.0
13790,68.0,0.0,60.0,1.0,0.0
13791,47.0,48.0,60.0,14.0,0.0
13792,56.0,0.0,60.0,4.0,0.0
13793,47.0,0.0,60.0,2.0,0.0
13794,45.0,0.0,60.0,3.0,0.0
13795,54.0,0.0,60.0,12.0,0.0
13796,45.0,0.0,60.0,2.0,0.0
13797,54.0,0.0,60.0,13.0,0.0
13798,54.0,0.0,60.0,2.0,0.0
13799,45.0,48.0,60.0,4.0,0.0
13800,54.0,0.0,60.0,11.0,0.0
13801,45.0,0.0,60.0,14.0,0.0
13802,66.0,0.0,60.0,1.0,0.0
13803,54.0,0.0,60.0,4.0,0.0
13804,44.0,0.0,60.0,14.0,0.0
13805,65.0,0.0,60.0,1.0,0.0
13806,53.0,0.0,60.0,2.0,0.0
13807,53.0,0.0,60.0,4.0,0.0
13808,44.0,0.0,60.0,3.0,0.0
13809,53.0,48.0,60.0,13.0,0.0
13810,44.0,0.0,60.0,2.0,0.0
13811,53.0,0.0,60.0,12.0,0.0
13812,53.0,0.0,60.0,11.0,0.0
13813,44.0,0.0,60.0,4.0,0.0
13814,54.0,48.0,60.0,11.0,0.0
13815,54.0,0.0,60.0,12.0,0.0
13816,45.0,0.0,60.0,4.0,0.0
13817,45.0,0.0,60.0,14.0,0.0
13818,66.0,0.0,60.0,1.0,0.0
13819,45.0,0.0,60.0,2.0,0.0
13820,54.0,0.0,60.0,4.0,0.0
13821,54.0,0.0,60.0,2.0,0.0
13822,45.0,0.0,60.0,3.0,0.0
13823,54.0,0.0,60.0,13.0,0.0
13824,44.0,48.0,60.0,4.0,0.0
13825,53.0,0.0,60.0,13.0,0.0
13826,53.0,0.0,60.0,2.0,0.0
13827,53.0,0.0,60.0,11.0,0.0
13828,44.0,0.0,60.0,3.0,0.0
13829,53.0,0.0,60.0,4.0,0.0
13830,65.0,0.0,60.0,1.0,0.0
13831,44.0,0.0,60.0,14.0,0.0
13832,53.0,0.0,60.0,12.0,0.0
13833,44.0,0.0,60.0,2.0,0.0
13834,42.0,0.0,60.0,14.0,0.0
13835,42.0,0.0,60.0,2.0,0.0
13836,50.0,0.0,60.0,4.0,0.0
13837,50.0,0.0,60.0,11.0,0.0
13838,42.0,0.0,60.0,4.0,0.0
13839,50.0,48.0,60.0,12.0,0.0
13840,62.0,0.0,60.0,1.0,0.0
13841,42.0,0.0,60.0,3.0,0.0
13842,50.0,0.0,60.0,13.0,0.0
13843,50.0,0.0,60.0,2.0,0.0
13844,41.0,0.0,60.0,3.0,0.0
13845,41.0,0.0,60.0,2.0,0.0
13846,49.0,48.0,60.0,4.0,0.0
13847,49.0,0.0,60.0,11.0,0.0
13848,49.0,0.0,60.0,13.0,0.0
13849,61.0,0.0,60.0,1.0,0.0
13850,49.0,0.0,60.0,12.0,0.0
13851,41.0,0.0,60.0,4.0,0.0
13852,49.0,0.0,60.0,2.0,0.0
13853,41.0,0.0,60.0,14.0,0.0
13854,61.0,0.0,60.0,13.0,0.0
13855,61.0,0.0,60.0,12.0,0.0
13856,37.0,0.0,60.0,4.0,0.0
13857,37.0,0.0,60.0,3.0,0.0
13858,37.0,0.0,60.0,2.0,0.0
13859,61.0,0.0,60.0,11.0,0.0
13860,73.0,0.0,60.0,1.0,0.0
13861,37.0,0.0,60.0,14.0,0.0
13862,61.0,94.0,60.0,4.0,0.0
13863,61.0,0.0,60.0,2.0,0.0
13864,58.0,0.0,90.0,11.0,0.0
13865,54.0,0.0,90.0,6.0,0.0
13866,58.0,0.0,90.0,13.0,0.0
13867,42.0,0.0,90.0,4.0,0.0
13868,42.0,48.0,90.0,6.0,0.0
13869,54.0,0.0,90.0,12.0,0.0
13870,42.0,0.0,90.0,2.0,0.0
13871,42.0,0.0,90.0,7.0,0.0
13872,42.0,0.0,90.0,3.0,0.0
13873,30.0,0.0,90.0,15.0,0.0
13874,30.0,2.0,90.0,3.0,0.0
13875,58.0,0.0,90.0,2.0,0.0
13876,42.0,0.0,90.0,8.0,0.0
13877,58.0,0.0,90.0,4.0,0.0
13878,42.0,0.0,90.0,14.0,0.0
13879,66.0,0.0,60.0,12.0,0.0
13880,54.0,0.0,15.0,4.0,0.0
13881,70.0,0.0,15.0,1.0,0.0
13882,58.0,0.0,60.0,4.0,0.0
13883,54.0,0.0,60.0,14.0,0.0
13884,70.0,0.0,60.0,2.0,0.0
13885,58.0,0.0,60.0,13.0,0.0
13886,54.0,0.0,60.0,2.0,0.0
13887,70.0,0.0,60.0,11.0,0.0
13888,54.0,48.0,60.0,3.0,0.0
13889,56.0,0.0,60.0,2.0,0.0
13890,68.0,48.0,60.0,12.0,0.0
13891,71.0,0.0,60.0,1.0,0.0
13892,56.0,0.0,60.0,14.0,0.0
13893,59.0,0.0,60.0,13.0,0.0
13894,56.0,0.0,60.0,3.0,0.0
13895,59.0,0.0,60.0,4.0,0.0
13896,71.0,0.0,60.0,2.0,0.0
13897,71.0,0.0,60.0,11.0,0.0
13898,56.0,0.0,60.0,4.0,0.0
13899,58.0,0.0,60.0,4.0,0.0
13900,70.0,0.0,60.0,11.0,0.0
13901,54.0,0.0,60.0,14.0,0.0
13902,54.0,0.0,60.0,3.0,0.0
13903,58.0,48.0,60.0,13.0,0.0
13904,54.0,0.0,60.0,4.0,0.0
13905,70.0,0.0,60.0,2.0,0.0
13906,70.0,0.0,60.0,1.0,0.0
13907,54.0,0.0,60.0,2.0,0.0
13908,66.0,0.0,60.0,12.0,0.0
13909,68.0,48.0,60.0,2.0,0.0
13910,49.0,0.0,60.0,2.0,0.0
13911,49.0,0.0,60.0,14.0,0.0
13912,56.0,0.0,60.0,4.0,0.0
13913,49.0,0.0,60.0,4.0,0.0
13914,68.0,0.0,60.0,1.0,0.0
13915,49.0,0.0,60.0,3.0,0.0
13916,61.0,0.0,60.0,12.0,0.0
13917,56.0,0.0,60.0,13.0,0.0
13918,68.0,0.0,60.0,11.0,0.0
13919,46.0,0.0,60.0,2.0,0.0
13920,46.0,0.0,60.0,14.0,0.0
13921,46.0,0.0,60.0,3.0,0.0
13922,66.0,0.0,60.0,1.0,0.0
13923,46.0,0.0,60.0,4.0,0.0
13924,54.0,0.0,60.0,4.0,0.0
13925,66.0,0.0,60.0,11.0,0.0
13926,66.0,48.0,60.0,2.0,0.0
13927,58.0,0.0,60.0,12.0,0.0
13928,54.0,0.0,60.0,13.0,0.0
13929,56.0,0.0,60.0,4.0,0.0
13930,49.0,0.0,60.0,2.0,0.0
13931,56.0,48.0,60.0,13.0,0.0
13932,68.0,0.0,60.0,1.0,0.0
13933,61.0,0.0,60.0,12.0,0.0
13934,49.0,0.0,60.0,4.0,0.0
13935,49.0,0.0,60.0,3.0,0.0
13936,68.0,0.0,60.0,11.0,0.0
13937,49.0,0.0,60.0,14.0,0.0
13938,68.0,0.0,60.0,2.0,0.0
13939,54.0,0.0,60.0,4.0,0.0
13940,58.0,0.0,60.0,4.0,0.0
13941,66.0,48.0,60.0,12.0,0.0
13942,54.0,0.0,60.0,2.0,0.0
13943,54.0,0.0,60.0,3.0,0.0
13944,58.0,0.0,60.0,13.0,0.0
13945,70.0,0.0,60.0,11.0,0.0
13946,70.0,0.0,60.0,1.0,0.0
13947,54.0,0.0,60.0,14.0,0.0
13948,70.0,0.0,60.0,2.0,0.0
13949,56.0,0.0,60.0,4.0,0.0
13950,68.0,0.0,60.0,1.0,0.0
13951,49.0,0.0,60.0,2.0,0.0
13952,49.0,0.0,60.0,4.0,0.0
13953,56.0,48.0,60.0,13.0,0.0
13954,68.0,0.0,60.0,2.0,0.0
13955,49.0,0.0,60.0,3.0,0.0
13956,68.0,0.0,60.0,11.0,0.0
13957,49.0,0.0,60.0,14.0,0.0
13958,61.0,0.0,60.0,12.0,0.0
13959,54.0,0.0,60.0,2.0,0.0
13960,66.0,0.0,60.0,12.0,0.0
13961,70.0,0.0,60.0,2.0,0.0
13962,70.0,0.0,60.0,1.0,0.0
13963,54.0,0.0,60.0,14.0,0.0
13964,70.0,0.0,60.0,11.0,0.0
13965,54.0,0.0,60.0,4.0,0.0
13966,54.0,0.0,60.0,3.0,0.0
13967,58.0,0.0,60.0,13.0,0.0
13968,58.0,48.0,60.0,4.0,0.0
13969,56.0,0.0,60.0,2.0,0.0
13970,56.0,0.0,60.0,14.0,0.0
13971,71.0,0.0,60.0,1.0,0.0
13972,56.0,0.0,60.0,3.0,0.0
13973,71.0,0.0,60.0,11.0,0.0
13974,59.0,0.0,60.0,13.0,0.0
13975,71.0,0.0,60.0,2.0,0.0
13976,68.0,0.0,60.0,12.0,0.0
13977,56.0,0.0,60.0,4.0,0.0
13978,59.0,96.0,60.0,4.0,0.0
13979,58.0,0.0,90.0,14.0,0.0
13980,58.0,0.0,90.0,4.0,0.0
13981,58.0,0.0,90.0,3.0,0.0
13982,61.0,0.0,90.0,13.0,0.0
13983,73.0,0.0,90.0,1.0,0.0
13984,61.0,0.0,90.0,4.0,0.0
13985,58.0,0.0,90.0,2.0,0.0
13986,73.0,0.0,90.0,2.0,0.0
13987,70.0,22.0,90.0,12.0,0.0
13988,54.0,0.0,90.0,3.0,0.0
13989,66.0,0.0,90.0,13.0,0.0
13990,66.0,0.0,90.0,6.0,0.0
13991,54.0,0.0,90.0,4.0,0.0
13992,42.0,0.0,90.0,8.0,0.0
13993,66.0,0.0,90.0,5.0,0.0
13994,54.0,0.0,90.0,6.0,0.0
13995,90.0,0.0,90.0,0.0,0.0
13996,66.0,0.0,90.0,4.0,0.0
13997,42.0,0.0,90.0,3.0,0.0
13998,54.0,0.0,90.0,5.0,0.0
13999,54.0,0.0,90.0,14.0,0.0
14000,78.0,0.0,90.0,2.0,0.0
14001,54.0,94.0,90.0,7.0,0.0
14002,42.0,0.0,90.0,15.0,0.0
14003,50.0,24.0,20.0,9.0,0.0
14004,66.0,0.0,90.0,12.0,0.0
14005,54.0,0.0,90.0,2.0,0.0
14006,78.0,0.0,90.0,0.0,0.0
14007,78.0,0.0,90.0,1.0,0.0
14008,78.0,0.0,90.0,11.0,0.0
14009,50.0,24.0,20.0,9.0,0.0
14010,50.0,24.0,20.0,9.0,0.0
14011,50.0,2.0,20.0,9.0,0.0
14012,63.0,0.0,90.0,13.0,0.0
14013,50.0,0.0,90.0,9.0,0.0
14014,47.0,0.0,90.0,6.0,0.0
14015,47.0,2.0,90.0,3.0,0.0
14016,42.0,0.0,90.0,8.0,0.0
14017,47.0,0.0,90.0,14.0,0.0
14018,75.0,0.0,90.0,11.0,0.0
14019,63.0,0.0,90.0,4.0,0.0
14020,47.0,0.0,90.0,2.0,0.0
14021,59.0,0.0,90.0,4.0,0.0
14022,71.0,0.0,90.0,12.0,0.0
14023,59.0,22.0,90.0,6.0,0.0
14024,87.0,0.0,90.0,0.0,0.0
14025,59.0,0.0,90.0,7.0,0.0
14026,75.0,0.0,90.0,0.0,0.0
14027,59.0,0.0,90.0,5.0,0.0
14028,47.0,0.0,90.0,15.0,0.0
14029,51.0,0.0,90.0,3.0,0.0
14030,51.0,0.0,90.0,2.0,0.0
14031,39.0,0.0,90.0,15.0,0.0
14032,75.0,0.0,15.0,1.0,0.0
14033,75.0,0.0,15.0,2.0,0.0
14034,87.0,0.0,90.0,11.0,0.0
14035,51.0,0.0,90.0,7.0,0.0
14036,87.0,0.0,90.0,0.0,0.0
14037,75.0,0.0,90.0,12.0,0.0
14038,63.0,0.0,15.0,5.0,0.0
14039,75.0,0.0,90.0,13.0,0.0
14040,50.0,24.0,20.0,9.0,0.0
14041,63.0,0.0,90.0,4.0,0.0
14042,51.0,0.0,90.0,6.0,0.0
14043,99.0,0.0,90.0,0.0,0.0
14044,51.0,94.0,90.0,4.0,0.0
14045,75.0,0.0,90.0,5.0,0.0
14046,39.0,0.0,90.0,3.0,0.0
14047,51.0,0.0,90.0,14.0,0.0
14048,63.0,0.0,90.0,6.0,0.0
14049,50.0,24.0,20.0,9.0,0.0
14050,50.0,24.0,20.0,9.0,0.0
14051,50.0,2.0,20.0,9.0,0.0
14052,50.0,0.0,90.0,9.0,0.0
14053,44.0,0.0,90.0,2.0,0.0
14054,80.0,0.0,90.0,12.0,0.0
14055,71.0,0.0,90.0,1.0,0.0
14056,83.0,0.0,90.0,0.0,0.0
14057,59.0,0.0,90.0,4.0,0.0
14058,95.0,0.0,90.0,0.0,0.0
14059,71.0,0.0,90.0,2.0,0.0
14060,44.0,0.0,90.0,14.0,0.0
14061,37.0,0.0,90.0,8.0,0.0
14062,44.0,0.0,90.0,15.0,0.0
14063,56.0,22.0,90.0,7.0,0.0
14064,71.0,0.0,90.0,5.0,0.0
14065,44.0,0.0,90.0,6.0,0.0
14066,44.0,2.0,90.0,3.0,0.0
14067,68.0,0.0,90.0,5.0,0.0
14068,83.0,0.0,90.0,11.0,0.0
14069,71.0,0.0,90.0,13.0,0.0
14070,56.0,0.0,90.0,5.0,0.0
14071,80.0,0.0,90.0,11.0,0.0
14072,56.0,0.0,15.0,6.0,0.0
14073,56.0,0.0,15.0,4.0,0.0
14074,68.0,0.0,90.0,12.0,0.0
14075,80.0,0.0,90.0,0.0,0.0
14076,68.0,0.0,90.0,13.0,0.0
14077,68.0,0.0,90.0,1.0,0.0
14078,44.0,0.0,90.0,2.0,0.0
14079,32.0,0.0,90.0,15.0,0.0
14080,68.0,94.0,90.0,2.0,0.0
14081,92.0,0.0,90.0,0.0,0.0
14082,32.0,0.0,90.0,3.0,0.0
14083,50.0,24.0,20.0,9.0,0.0
14084,44.0,0.0,90.0,3.0,0.0
14085,68.0,0.0,90.0,5.0,0.0
14086,44.0,0.0,90.0,6.0,0.0
14087,44.0,0.0,90.0,4.0,0.0
14088,44.0,0.0,90.0,14.0,0.0
14089,44.0,0.0,90.0,7.0,0.0
14090,50.0,24.0,20.0,9.0,0.0
14091,50.0,24.0,20.0,9.0,0.0
14092,50.0,2.0,20.0,9.0,0.0
14093,65.0,0.0,90.0,13.0,0.0
14094,50.0,0.0,90.0,9.0,0.0
14095,77.0,0.0,90.0,0.0,0.0
14096,65.0,0.0,90.0,2.0,0.0
14097,37.0,0.0,90.0,15.0,0.0
14098,61.0,0.0,90.0,5.0,0.0
14099,49.0,0.0,90.0,7.0,0.0
14100,77.0,0.0,90.0,11.0,0.0
14101,37.0,0.0,90.0,8.0,0.0
14102,37.0,0.0,90.0,14.0,0.0
14103,65.0,0.0,90.0,5.0,0.0
14104,37.0,0.0,90.0,6.0,0.0
14105,89.0,2.0,90.0,0.0,0.0
14106,73.0,0.0,90.0,12.0,0.0
14107,65.0,22.0,90.0,1.0,0.0
14108,37.0,0.0,90.0,3.0,0.0
14109,53.0,0.0,90.0,4.0,0.0
14110,73.0,0.0,90.0,13.0,0.0
14111,37.0,0.0,90.0,7.0,0.0
14112,85.0,0.0,90.0,11.0,0.0
14113,73.0,0.0,90.0,2.0,0.0
14114,61.0,0.0,90.0,5.0,0.0
14115,25.0,0.0,90.0,3.0,0.0
14116,61.0,0.0,90.0,4.0,0.0
14117,49.0,0.0,15.0,6.0,0.0
14118,49.0,0.0,15.0,4.0,0.0
14119,37.0,0.0,90.0,14.0,0.0
14120,97.0,0.0,90.0,0.0,0.0
14121,37.0,0.0,15.0,3.0,0.0
14122,37.0,0.0,15.0,2.0,0.0
14123,50.0,24.0,20.0,9.0,0.0
14124,73.0,0.0,90.0,12.0,0.0
14125,25.0,94.0,90.0,15.0,0.0
14126,85.0,0.0,90.0,0.0,0.0
14127,73.0,0.0,90.0,5.0,0.0
14128,37.0,0.0,90.0,6.0,0.0
14129,73.0,0.0,90.0,1.0,0.0
14130,50.0,24.0,20.0,9.0,0.0
14131,50.0,24.0,20.0,9.0,0.0
14132,50.0,2.0,20.0,9.0,0.0
14133,42.0,0.0,90.0,8.0,0.0
14134,54.0,0.0,90.0,4.0,0.0
14135,66.0,0.0,90.0,5.0,0.0
14136,50.0,0.0,90.0,9.0,0.0
14137,45.0,0.0,90.0,9.0,0.0
14138,42.0,0.0,90.0,14.0,0.0
14139,70.0,0.0,90.0,5.0,0.0
14140,42.0,0.0,90.0,2.0,0.0
14141,82.0,0.0,90.0,11.0,0.0
14142,30.0,0.0,90.0,3.0,0.0
14143,42.0,0.0,90.0,3.0,0.0
14144,42.0,0.0,90.0,6.0,0.0
14145,42.0,0.0,90.0,7.0,0.0
14146,70.0,0.0,90.0,13.0,0.0
14147,94.0,2.0,90.0,0.0,0.0
14148,54.0,0.0,90.0,6.0,0.0
14149,70.0,0.0,90.0,1.0,0.0
14150,58.0,0.0,90.0,4.0,0.0
14151,78.0,0.0,90.0,12.0,0.0
14152,82.0,0.0,90.0,0.0,0.0
14153,70.0,0.0,90.0,2.0,0.0
14154,30.0,96.0,90.0,15.0,0.0
14155,85.0,0.0,90.0,0.0,0.0
14156,85.0,0.0,90.0,11.0,0.0
14157,73.0,0.0,90.0,5.0,0.0
14158,73.0,94.0,90.0,12.0,0.0
14159,61.0,0.0,90.0,13.0,0.0
14160,61.0,0.0,90.0,5.0,0.0
14161,74.0,0.0,90.0,5.0,0.0
14162,62.0,0.0,90.0,13.0,0.0
14163,74.0,0.0,90.0,12.0,0.0
14164,86.0,0.0,90.0,0.0,0.0
14165,86.0,48.0,90.0,11.0,0.0
14166,62.0,0.0,90.0,5.0,0.0
14167,56.0,0.0,60.0,14.0,0.0
14168,59.0,0.0,60.0,13.0,0.0
14169,59.0,0.0,60.0,4.0,0.0
14170,71.0,0.0,60.0,2.0,0.0
14171,68.0,0.0,60.0,2.0,0.0
14172,71.0,0.0,60.0,1.0,0.0
14173,68.0,48.0,60.0,1.0,0.0
14174,56.0,0.0,60.0,4.0,0.0
14175,61.0,0.0,60.0,4.0,0.0
14176,57.0,0.0,60.0,14.0,0.0
14177,57.0,0.0,60.0,4.0,0.0
14178,69.0,0.0,60.0,2.0,0.0
14179,61.0,48.0,60.0,13.0,0.0
14180,73.0,0.0,60.0,2.0,0.0
14181,69.0,0.0,60.0,1.0,0.0
14182,73.0,0.0,60.0,1.0,0.0
14183,56.0,0.0,60.0,14.0,0.0
14184,56.0,0.0,60.0,4.0,0.0
14185,71.0,0.0,60.0,1.0,0.0
14186,68.0,0.0,60.0,1.0,0.0
14187,68.0,0.0,60.0,2.0,0.0
14188,71.0,0.0,60.0,2.0,0.0
14189,59.0,48.0,60.0,13.0,0.0
14190,59.0,0.0,60.0,4.0,0.0
14191,54.0,0.0,60.0,4.0,0.0
14192,69.0,0.0,60.0,2.0,0.0
14193,66.0,0.0,60.0,1.0,0.0
14194,69.0,48.0,60.0,1.0,0.0
14195,57.0,0.0,60.0,13.0,0.0
14196,57.0,0.0,60.0,4.0,0.0
14197,66.0,0.0,60.0,2.0,0.0
14198,54.0,0.0,60.0,14.0,0.0
14199,68.0,0.0,60.0,2.0,0.0
14200,65.0,0.0,60.0,2.0,0.0
14201,56.0,0.0,60.0,13.0,0.0
14202,53.0,0.0,60.0,4.0,0.0
14203,56.0,0.0,60.0,4.0,0.0
14204,53.0,0.0,60.0,14.0,0.0
14205,65.0,48.0,60.0,1.0,0.0
14206,68.0,0.0,60.0,1.0,0.0
14207,57.0,0.0,60.0,13.0,0.0
14208,69.0,96.0,60.0,1.0,0.0
14209,66.0,0.0,60.0,2.0,0.0
14210,69.0,0.0,60.0,2.0,0.0
14211,54.0,0.0,60.0,14.0,0.0
14212,54.0,0.0,60.0,4.0,0.0
14213,57.0,0.0,60.0,4.0,0.0
14214,66.0,0.0,60.0,1.0,0.0
14215,59.0,96.0,90.0,13.0,0.0
14216,59.0,0.0,90.0,4.0,0.0
14217,56.0,0.0,90.0,4.0,0.0
14218,68.0,0.0,90.0,2.0,0.0
14219,71.0,0.0,90.0,2.0,0.0
14220,56.0,0.0,90.0,14.0,0.0
14221,71.0,0.0,90.0,1.0,0.0
14222,68.0,0.0,90.0,1.0,0.0
14223,73.0,0.0,90.0,5.0,0.0
14224,73.0,0.0,90.0,12.0,0.0
14225,61.0,0.0,90.0,5.0,0.0
14226,85.0,0.0,90.0,11.0,0.0
14227,85.0,0.0,90.0,0.0,0.0
14228,61.0,0.0,90.0,13.0,0.0
14229,74.0,0.0,90.0,12.0,0.0
14230,62.0,0.0,90.0,13.0,0.0
14231,74.0,96.0,90.0,5.0,0.0
14232,62.0,0.0,90.0,5.0,0.0
14233,86.0,0.0,90.0,11.0,0.0
14234,86.0,0.0,90.0,0.0,0.0
14235,63.0,0.0,90.0,5.0,0.0
14236,87.0,0.0,90.0,11.0,0.0
14237,63.0,94.0,90.0,13.0,0.0
14238,87.0,0.0,90.0,0.0,0.0
14239,75.0,0.0,90.0,12.0,0.0
14240,75.0,0.0,90.0,5.0,0.0
14241,64.0,0.0,90.0,5.0,0.0
14242,64.0,0.0,90.0,13.0,0.0
14243,88.0,0.0,90.0,11.0,0.0
14244,76.0,48.0,90.0,12.0,0.0
14245,76.0,0.0,90.0,5.0,0.0
14246,88.0,0.0,90.0,0.0,0.0
14247,62.0,0.0,60.0,2.0,0.0
14248,62.0,0.0,60.0,1.0,0.0
14249,71.0,0.0,60.0,1.0,0.0
14250,59.0,0.0,60.0,4.0,0.0
14251,71.0,0.0,60.0,2.0,0.0
14252,59.0,0.0,60.0,13.0,0.0
14253,50.0,0.0,60.0,14.0,0.0
14254,50.0,48.0,60.0,4.0,0.0
14255,64.0,48.0,60.0,2.0,0.0
14256,73.0,0.0,60.0,2.0,0.0
14257,52.0,0.0,60.0,14.0,0.0
14258,61.0,0.0,60.0,13.0,0.0
14259,61.0,0.0,60.0,4.0,0.0
14260,52.0,0.0,60.0,4.0,0.0
14261,64.0,0.0,60.0,1.0,0.0
14262,73.0,0.0,60.0,1.0,0.0
14263,50.0,0.0,60.0,4.0,0.0
14264,59.0,0.0,60.0,4.0,0.0
14265,59.0,0.0,60.0,13.0,0.0
14266,71.0,0.0,60.0,2.0,0.0
14267,50.0,0.0,60.0,14.0,0.0
14268,62.0,0.0,60.0,1.0,0.0
14269,71.0,48.0,60.0,1.0,0.0
14270,62.0,0.0,60.0,2.0,0.0
14271,57.0,0.0,60.0,4.0,0.0
14272,49.0,0.0,60.0,4.0,0.0
14273,61.0,0.0,60.0,2.0,0.0
14274,57.0,0.0,60.0,13.0,0.0
14275,69.0,0.0,60.0,2.0,0.0
14276,61.0,48.0,60.0,1.0,0.0
14277,69.0,0.0,60.0,1.0,0.0
14278,49.0,0.0,60.0,14.0,0.0
14279,59.0,0.0,60.0,2.0,0.0
14280,68.0,0.0,60.0,2.0,0.0
14281,56.0,0.0,60.0,13.0,0.0
14282,59.0,0.0,60.0,1.0,0.0
14283,56.0,0.0,60.0,4.0,0.0
14284,47.0,48.0,60.0,14.0,0.0
14285,47.0,0.0,60.0,4.0,0.0
14286,68.0,0.0,60.0,1.0,0.0
14287,69.0,0.0,60.0,1.0,0.0
14288,57.0,96.0,60.0,13.0,0.0
14289,49.0,0.0,60.0,4.0,0.0
14290,61.0,0.0,60.0,2.0,0.0
14291,69.0,0.0,60.0,2.0,0.0
14292,61.0,0.0,60.0,1.0,0.0
14293,57.0,0.0,60.0,4.0,0.0
14294,49.0,0.0,60.0,14.0,0.0
14295,62.0,0.0,90.0,2.0,0.0
14296,71.0,96.0,90.0,2.0,0.0
14297,50.0,0.0,90.0,4.0,0.0
14298,59.0,0.0,90.0,4.0,0.0
14299,62.0,0.0,90.0,1.0,0.0
14300,50.0,0.0,90.0,14.0,0.0
14301,59.0,0.0,90.0,13.0,0.0
14302,71.0,0.0,90.0,1.0,0.0
14303,63.0,0.0,90.0,5.0,0.0
14304,75.0,0.0,90.0,12.0,0.0
14305,87.0,0.0,90.0,0.0,0.0
14306,75.0,0.0,90.0,5.0,0.0
14307,63.0,0.0,90.0,13.0,0.0
14308,87.0,0.0,90.0,11.0,0.0
14309,64.0,0.0,90.0,13.0,0.0
14310,64.0,0.0,90.0,5.0,0.0
14311,76.0,96.0,90.0,12.0,0.0
14312,88.0,0.0,90.0,0.0,0.0
14313,88.0,0.0,90.0,11.0,0.0
14314,88.0,0.0,90.0,11.0,0.0
14315,64.0,0.0,90.0,13.0,0.0
14316,76.0,0.0,15.0,5.0,0.0
14317,76.0,94.0,90.0,12.0,0.0
14318,64.0,0.0,90.0,5.0,0.0
14319,88.0,0.0,90.0,0.0,0.0
14320,65.0,48.0,90.0,5.0,0.0
14321,77.0,0.0,90.0,5.0,0.0
14322,89.0,0.0,90.0,0.0,0.0
14323,65.0,0.0,90.0,13.0,0.0
14324,89.0,0.0,90.0,11.0,0.0
14325,77.0,0.0,90.0,12.0,0.0
14326,71.0,0.0,60.0,1.0,0.0
14327,50.0,0.0,60.0,14.0,0.0
14328,59.0,0.0,60.0,4.0,0.0
14329,50.0,0.0,60.0,2.0,0.0
14330,59.0,0.0,60.0,11.0,0.0
14331,59.0,0.0,60.0,12.0,0.0
14332,50.0,48.0,60.0,3.0,0.0
14333,50.0,0.0,60.0,4.0,0.0
14334,59.0,0.0,60.0,2.0,0.0
14335,59.0,0.0,60.0,13.0,0.0
14336,61.0,0.0,60.0,4.0,0.0
14337,61.0,0.0,60.0,13.0,0.0
14338,61.0,0.0,60.0,12.0,0.0
14339,61.0,0.0,60.0,2.0,0.0
14340,52.0,0.0,60.0,14.0,0.0
14341,52.0,0.0,60.0,2.0,0.0
14342,52.0,48.0,60.0,4.0,0.0
14343,52.0,0.0,60.0,3.0,0.0
14344,73.0,0.0,60.0,1.0,0.0
14345,61.0,0.0,60.0,11.0,0.0
14346,59.0,0.0,60.0,12.0,0.0
14347,50.0,0.0,60.0,2.0,0.0
14348,59.0,0.0,60.0,13.0,0.0
14349,59.0,0.0,60.0,4.0,0.0
14350,59.0,0.0,60.0,2.0,0.0
14351,50.0,0.0,60.0,3.0,0.0
14352,50.0,0.0,60.0,14.0,0.0
14353,50.0,0.0,60.0,4.0,0.0
14354,59.0,48.0,60.0,11.0,0.0
14355,71.0,0.0,60.0,1.0,0.0
14356,69.0,0.0,60.0,1.0,0.0
14357,57.0,0.0,60.0,12.0,0.0
14358,57.0,0.0,60.0,13.0,0.0
14359,49.0,0.0,60.0,4.0,0.0
14360,49.0,48.0,60.0,3.0,0.0
14361,49.0,0.0,60.0,2.0,0.0
14362,57.0,0.0,60.0,4.0,0.0
14363,57.0,0.0,60.0,2.0,0.0
14364,49.0,0.0,60.0,14.0,0.0
14365,57.0,0.0,60.0,11.0,0.0
14366,47.0,0.0,60.0,4.0,0.0
14367,56.0,0.0,60.0,11.0,0.0
14368,47.0,0.0,60.0,2.0,0.0
14369,68.0,48.0,60.0,1.0,0.0
14370,56.0,0.0,60.0,4.0,0.0
14371,47.0,0.0,60.0,14.0,0.0
14372,56.0,0.0,60.0,12.0,0.0
14373,56.0,0.0,60.0,13.0,0.0
14374,47.0,0.0,60.0,3.0,0.0
14375,56.0,0.0,60.0,2.0,0.0
14376,57.0,0.0,60.0,2.0,0.0
14377,49.0,0.0,60.0,3.0,0.0
14378,49.0,0.0,60.0,14.0,0.0
14379,49.0,0.0,60.0,4.0,0.0
14380,69.0,0.0,60.0,1.0,0.0
14381,57.0,48.0,60.0,4.0,0.0
14382,49.0,0.0,60.0,2.0,0.0
14383,57.0,0.0,60.0,12.0,0.0
14384,57.0,0.0,60.0,13.0,0.0
14385,57.0,0.0,60.0,11.0,0.0
14386,47.0,0.0,60.0,4.0,0.0
14387,56.0,0.0,60.0,13.0,0.0
14388,47.0,0.0,60.0,14.0,0.0
14389,56.0,48.0,60.0,11.0,0.0
14390,47.0,0.0,60.0,3.0,0.0
14391,68.0,0.0,60.0,1.0,0.0
14392,56.0,0.0,60.0,12.0,0.0
14393,56.0,0.0,60.0,2.0,0.0
14394,47.0,0.0,60.0,2.0,0.0
14395,56.0,0.0,60.0,4.0,0.0
14396,54.0,0.0,60.0,11.0,0.0
14397,45.0,0.0,60.0,4.0,0.0
14398,54.0,0.0,60.0,12.0,0.0
14399,54.0,0.0,60.0,4.0,0.0
14400,45.0,48.0,60.0,2.0,0.0
14401,45.0,0.0,60.0,14.0,0.0
14402,45.0,0.0,60.0,3.0,0.0
14403,66.0,0.0,60.0,1.0,0.0
14404,54.0,0.0,60.0,2.0,0.0
14405,54.0,0.0,60.0,13.0,0.0
14406,53.0,0.0,60.0,2.0,0.0
14407,53.0,0.0,60.0,4.0,0.0
14408,44.0,0.0,60.0,14.0,0.0
14409,53.0,0.0,60.0,12.0,0.0
14410,53.0,48.0,60.0,13.0,0.0
14411,65.0,0.0,60.0,1.0,0.0
14412,44.0,0.0,60.0,3.0,0.0
14413,44.0,0.0,60.0,2.0,0.0
14414,53.0,0.0,60.0,11.0,0.0
14415,44.0,0.0,60.0,4.0,0.0
14416,45.0,0.0,60.0,3.0,0.0
14417,45.0,0.0,60.0,14.0,0.0
14418,54.0,0.0,60.0,2.0,0.0
14419,45.0,0.0,60.0,2.0,0.0
14420,54.0,0.0,60.0,4.0,0.0
14421,54.0,0.0,60.0,12.0,0.0
14422,45.0,0.0,60.0,4.0,0.0
14423,54.0,0.0,60.0,13.0,0.0
14424,54.0,0.0,60.0,11.0,0.0
14425,66.0,48.0,60.0,1.0,0.0
14426,53.0,0.0,60.0,13.0,0.0
14427,53.0,0.0,60.0,2.0,0.0
14428,53.0,0.0,60.0,11.0,0.0
14429,44.0,0.0,60.0,2.0,0.0
14430,44.0,0.0,60.0,14.0,0.0
14431,53.0,0.0,60.0,12.0,0.0
14432,44.0,0.0,60.0,4.0,0.0
14433,53.0,0.0,60.0,4.0,0.0
14434,65.0,48.0,60.0,1.0,0.0
14435,44.0,0.0,60.0,3.0,0.0
14436,50.0,0.0,60.0,2.0,0.0
14437,50.0,0.0,60.0,11.0,0.0
14438,42.0,0.0,60.0,4.0,0.0
14439,42.0,0.0,60.0,2.0,0.0
14440,50.0,48.0,60.0,4.0,0.0
14441,42.0,0.0,60.0,3.0,0.0
14442,50.0,0.0,60.0,13.0,0.0
14443,42.0,0.0,60.0,14.0,0.0
14444,62.0,0.0,60.0,1.0,0.0
14445,50.0,0.0,60.0,12.0,0.0
14446,41.0,48.0,60.0,4.0,0.0
14447,49.0,0.0,60.0,12.0,0.0
14448,49.0,0.0,60.0,2.0,0.0
14449,41.0,0.0,60.0,3.0,0.0
14450,61.0,0.0,60.0,1.0,0.0
14451,41.0,0.0,60.0,2.0,0.0
14452,49.0,0.0,60.0,4.0,0.0
14453,49.0,0.0,60.0,11.0,0.0
14454,41.0,0.0,60.0,14.0,0.0
14455,49.0,0.0,60.0,13.0,0.0
14456,61.0,0.0,60.0,12.0,0.0
14457,61.0,0.0,60.0,11.0,0.0
14458,37.0,0.0,60.0,3.0,0.0
14459,61.0,0.0,60.0,13.0,0.0
14460,61.0,94.0,60.0,2.0,0.0
14461,73.0,0.0,60.0,1.0,0.0
14462,37.0,0.0,60.0,14.0,0.0
14463,37.0,0.0,60.0,2.0,0.0
14464,37.0,0.0,60.0,4.0,0.0
14465,61.0,0.0,60.0,4.0,0.0
14466,58.0,0.0,90.0,11.0,0.0
14467,30.0,0.0,90.0,15.0,0.0
14468,42.0,0.0,90.0,2.0,0.0
14469,54.0,0.0,90.0,6.0,0.0
14470,58.0,0.0,90.0,13.0,0.0
14471,30.0,2.0,90.0,3.0,0.0
14472,42.0,0.0,90.0,8.0,0.0
14473,42.0,0.0,90.0,4.0,0.0
14474,42.0,0.0,90.0,3.0,0.0
14475,42.0,0.0,90.0,14.0,0.0
14476,54.0,0.0,90.0,12.0,0.0
14477,42.0,0.0,90.0,6.0,0.0
14478,58.0,0.0,90.0,4.0,0.0
14479,42.0,0.0,90.0,7.0,0.0
14480,58.0,48.0,90.0,2.0,0.0
14481,54.0,0.0,60.0,3.0,0.0
14482,70.0,0.0,60.0,11.0,0.0
14483,54.0,0.0,60.0,2.0,0.0
14484,54.0,0.0,15.0,4.0,0.0
14485,70.0,0.0,15.0,1.0,0.0
14486,54.0,0.0,60.0,14.0,0.0
14487,58.0,0.0,60.0,13.0,0.0
14488,66.0,0.0,60.0,12.0,0.0
14489,58.0,0.0,60.0,4.0,0.0
14490,70.0,48.0,60.0,2.0,0.0
14491,56.0,0.0,60.0,4.0,0.0
14492,68.0,0.0,60.0,12.0,0.0
14493,59.0,0.0,60.0,4.0,0.0
14494,59.0,0.0,60.0,13.0,0.0
14495,56.0,0.0,60.0,3.0,0.0
14496,71.0,0.0,60.0,1.0,0.0
14497,56.0,0.0,60.0,2.0,0.0
14498,56.0,48.0,60.0,14.0,0.0
14499,71.0,0.0,60.0,2.0,0.0
14500,71.0,0.0,60.0,11.0,0.0
14501,70.0,0.0,60.0,11.0,0.0
14502,58.0,0.0,60.0,13.0,0.0
14503,58.0,0.0,60.0,4.0,0.0
14504,54.0,0.0,60.0,2.0,0.0
14505,66.0,48.0,60.0,12.0,0.0
14506,54.0,0.0,60.0,3.0,0.0
14507,70.0,0.0,60.0,2.0,0.0
14508,54.0,0.0,60.0,4.0,0.0
14509,54.0,0.0,60.0,14.0,0.0
14510,70.0,0.0,60.0,1.0,0.0
14511,68.0,0.0,60.0,2.0,0.0
14512,56.0,48.0,60.0,4.0,0.0
14513,68.0,0.0,60.0,1.0,0.0
14514,49.0,0.0,60.0,2.0,0.0
14515,68.0,0.0,60.0,11.0,0.0
14516,49.0,0.0,60.0,14.0,0.0
14517,49.0,0.0,60.0,3.0,0.0
14518,49.0,0.0,60.0,4.0,0.0
14519,56.0,0.0,60.0,13.0,0.0
14520,61.0,0.0,60.0,12.0,0.0
14521,46.0,0.0,60.0,14.0,0.0
14522,54.0,0.0,60.0,4.0,0.0
14523,66.0,0.0,60.0,2.0,0.0
14524,46.0,0.0,60.0,4.0,0.0
14525,66.0,0.0,60.0,11.0,0.0
14526,46.0,0.0,60.0,3.0,0.0
14527,66.0,48.0,60.0,1.0,0.0
14528,54.0,0.0,60.0,13.0,0.0
14529,58.0,0.0,60.0,12.0,0.0
14530,46.0,0.0,60.0,2.0,0.0
14531,68.0,48.0,60.0,1.0,0.0
14532,49.0,0.0,60.0,14.0,0.0
14533,61.0,0.0,60.0,12.0,0.0
14534,68.0,0.0,60.0,11.0,0.0
14535,56.0,0.0,60.0,4.0,0.0
14536,49.0,0.0,60.0,2.0,0.0
14537,49.0,0.0,60.0,4.0,0.0
14538,68.0,0.0,60.0,2.0,0.0
14539,56.0,0.0,60.0,13.0,0.0
14540,49.0,0.0,60.0,3.0,0.0
14541,58.0,0.0,60.0,4.0,0.0
14542,54.0,0.0,60.0,14.0,0.0
14543,54.0,0.0,60.0,4.0,0.0
14544,58.0,0.0,60.0,13.0,0.0
14545,70.0,0.0,60.0,2.0,0.0
14546,66.0,0.0,60.0,12.0,0.0
14547,70.0,48.0,60.0,11.0,0.0
14548,54.0,0.0,60.0,3.0,0.0
14549,54.0,0.0,60.0,2.0,0.0
14550,70.0,0.0,60.0,1.0,0.0
14551,68.0,0.0,60.0,2.0,0.0
14552,56.0,0.0,60.0,13.0,0.0
14553,61.0,0.0,60.0,12.0,0.0
14554,49.0,0.0,60.0,14.0,0.0
14555,68.0,48.0,60.0,1.0,0.0
14556,49.0,0.0,60.0,4.0,0.0
14557,56.0,0.0,60.0,4.0,0.0
14558,49.0,0.0,60.0,3.0,0.0
14559,68.0,0.0,60.0,11.0,0.0
14560,49.0,0.0,60.0,2.0,0.0
14561,54.0,0.0,60.0,4.0,0.0
14562,66.0,0.0,60.0,12.0,0.0
14563,54.0,0.0,60.0,3.0,0.0
14564,58.0,0.0,60.0,4.0,0.0
14565,54.0,0.0,60.0,2.0,0.0
14566,70.0,0.0,60.0,2.0,0.0
14567,70.0,0.0,60.0,1.0,0.0
14568,58.0,0.0,60.0,13.0,0.0
14569,54.0,0.0,60.0,14.0,0.0
14570,70.0,48.0,60.0,11.0,0.0
14571,59.0,0.0,60.0,4.0,0.0
14572,71.0,0.0,60.0,2.0,0.0
14573,68.0,0.0,60.0,12.0,0.0
14574,56.0,0.0,60.0,2.0,0.0
14575,56.0,0.0,60.0,14.0,0.0
14576,71.0,96.0,60.0,1.0,0.0
14577,59.0,0.0,60.0,13.0,0.0
14578,56.0,0.0,60.0,4.0,0.0
14579,71.0,0.0,60.0,11.0,0.0
14580,56.0,0.0,60.0,3.0,0.0
14581,73.0,0.0,90.0,2.0,0.0
14582,58.0,0.0,90.0,2.0,0.0
14583,61.0,0.0,90.0,4.0,0.0
14584,70.0,0.0,90.0,12.0,0.0
14585,58.0,22.0,90.0,14.0,0.0
14586,73.0,0.0,90.0,1.0,0.0
14587,58.0,0.0,90.0,4.0,0.0
14588,58.0,0.0,90.0,3.0,0.0
14589,61.0,0.0,90.0,13.0,0.0
14590,78.0,0.0,90.0,11.0,0.0
14591,78.0,0.0,90.0,2.0,0.0
14592,90.0,0.0,90.0,0.0,0.0
14593,42.0,0.0,90.0,3.0,0.0
14594,54.0,0.0,90.0,3.0,0.0
14595,78.0,0.0,90.0,1.0,0.0
14596,66.0,0.0,90.0,5.0,0.0
14597,78.0,0.0,90.0,0.0,0.0
14598,54.0,0.0,90.0,7.0,0.0
14599,54.0,0.0,90.0,4.0,0.0
14600,54.0,0.0,90.0,6.0,0.0
14601,66.0,0.0,90.0,13.0,0.0
14602,66.0,0.0,90.0,4.0,0.0
14603,54.0,0.0,90.0,2.0,0.0
14604,42.0,0.0,90.0,15.0,0.0
14605,66.0,0.0,90.0,6.0,0.0
14606,54.0,0.0,90.0,5.0,0.0
14607,66.0,0.0,90.0,12.0,0.0
14608,50.0,24.0,20.0,9.0,0.0
14609,54.0,94.0,90.0,14.0,0.0
14610,50.0,24.0,20.0,9.0,0.0
14611,50.0,24.0,20.0,9.0,0.0
14612,50.0,2.0,20.0,9.0,0.0
14613,47.0,0.0,90.0,15.0,0.0
14614,75.0,22.0,90.0,11.0,0.0
14615,59.0,0.0,90.0,5.0,0.0
14616,63.0,0.0,90.0,13.0,0.0
14617,63.0,0.0,90.0,5.0,0.0
14618,59.0,0.0,90.0,7.0,0.0
14619,59.0,0.0,90.0,4.0,0.0
14620,50.0,0.0,90.0,9.0,0.0
14621,75.0,0.0,90.0,2.0,0.0
14622,47.0,0.0,90.0,3.0,0.0
14623,71.0,0.0,90.0,12.0,0.0
14624,75.0,0.0,90.0,0.0,0.0
14625,75.0,0.0,90.0,1.0,0.0
14626,59.0,0.0,90.0,6.0,0.0
14627,87.0,2.0,90.0,0.0,0.0
14628,42.0,0.0,15.0,8.0,0.0
14629,47.0,0.0,90.0,6.0,0.0
14630,47.0,0.0,90.0,2.0,0.0
14631,47.0,0.0,90.0,14.0,0.0
14632,75.0,0.0,90.0,12.0,0.0
14633,99.0,0.0,90.0,0.0,0.0
14634,39.0,0.0,90.0,15.0,0.0
14635,63.0,0.0,90.0,6.0,0.0
14636,51.0,0.0,90.0,14.0,0.0
14637,51.0,0.0,90.0,6.0,0.0
14638,51.0,0.0,90.0,3.0,0.0
14639,63.0,0.0,15.0,4.0,0.0
14640,75.0,0.0,90.0,5.0,0.0
14641,50.0,24.0,20.0,9.0,0.0
14642,51.0,0.0,90.0,4.0,0.0
14643,51.0,0.0,90.0,7.0,0.0
14644,75.0,94.0,90.0,2.0,0.0
14645,87.0,0.0,90.0,0.0,0.0
14646,87.0,0.0,90.0,11.0,0.0
14647,39.0,0.0,90.0,3.0,0.0
14648,63.0,0.0,90.0,5.0,0.0
14649,75.0,0.0,90.0,13.0,0.0
14650,51.0,0.0,90.0,2.0,0.0
14651,75.0,0.0,90.0,1.0,0.0
14652,50.0,24.0,20.0,9.0,0.0
14653,50.0,24.0,20.0,9.0,0.0
14654,50.0,2.0,20.0,9.0,0.0
14655,50.0,0.0,90.0,9.0,0.0
14656,83.0,0.0,90.0,0.0,0.0
14657,83.0,0.0,90.0,11.0,0.0
14658,44.0,0.0,90.0,15.0,0.0
14659,44.0,0.0,90.0,14.0,0.0
14660,59.0,0.0,90.0,4.0,0.0
14661,71.0,0.0,90.0,5.0,0.0
14662,56.0,0.0,90.0,7.0,0.0
14663,44.0,0.0,90.0,6.0,0.0
14664,68.0,0.0,90.0,5.0,0.0
14665,71.0,0.0,90.0,13.0,0.0
14666,80.0,0.0,90.0,12.0,0.0
14667,71.0,0.0,90.0,1.0,0.0
14668,95.0,2.0,90.0,0.0,0.0
14669,37.0,0.0,90.0,8.0,0.0
14670,71.0,0.0,90.0,2.0,0.0
14671,44.0,0.0,90.0,3.0,0.0
14672,44.0,0.0,90.0,7.0,0.0
14673,56.0,0.0,90.0,5.0,0.0
14674,68.0,0.0,90.0,13.0,0.0
14675,56.0,0.0,15.0,6.0,0.0
14676,92.0,0.0,90.0,0.0,0.0
14677,80.0,0.0,90.0,11.0,0.0
14678,44.0,0.0,90.0,14.0,0.0
14679,44.0,0.0,15.0,2.0,0.0
14680,44.0,0.0,90.0,6.0,0.0
14681,32.0,0.0,90.0,15.0,0.0
14682,68.0,0.0,90.0,5.0,0.0
14683,44.0,0.0,15.0,3.0,0.0
14684,56.0,22.0,15.0,4.0,0.0
14685,68.0,94.0,90.0,1.0,0.0
14686,80.0,0.0,90.0,0.0,0.0
14687,68.0,0.0,90.0,12.0,0.0
14688,68.0,0.0,90.0,2.0,0.0
14689,44.0,0.0,90.0,4.0,0.0
14690,32.0,0.0,90.0,3.0,0.0
14691,50.0,24.0,20.0,9.0,0.0
14692,50.0,24.0,20.0,9.0,0.0
14693,50.0,24.0,20.0,9.0,0.0
14694,50.0,2.0,20.0,9.0,0.0
14695,65.0,0.0,90.0,13.0,0.0
14696,77.0,0.0,90.0,0.0,0.0
14697,77.0,0.0,90.0,11.0,0.0
14698,37.0,0.0,90.0,14.0,0.0
14699,49.0,0.0,90.0,4.0,0.0
14700,49.0,0.0,90.0,7.0,0.0
14701,65.0,0.0,90.0,1.0,0.0
14702,65.0,0.0,90.0,2.0,0.0
14703,37.0,0.0,90.0,8.0,0.0
14704,53.0,0.0,90.0,4.0,0.0
14705,37.0,0.0,90.0,3.0,0.0
14706,89.0,2.0,90.0,0.0,0.0
14707,65.0,0.0,90.0,5.0,0.0
14708,50.0,0.0,90.0,9.0,0.0
14709,37.0,0.0,90.0,15.0,0.0
14710,37.0,0.0,15.0,3.0,0.0
14711,37.0,0.0,15.0,2.0,0.0
14712,37.0,0.0,90.0,14.0,0.0
14713,25.0,0.0,90.0,3.0,0.0
14714,49.0,0.0,15.0,6.0,0.0
14715,61.0,0.0,90.0,4.0,0.0
14716,97.0,0.0,90.0,0.0,0.0
14717,73.0,0.0,15.0,12.0,0.0
14718,50.0,24.0,20.0,9.0,0.0
14719,25.0,0.0,90.0,15.0,0.0
14720,37.0,22.0,15.0,6.0,0.0
14721,73.0,0.0,90.0,2.0,0.0
14722,37.0,0.0,90.0,7.0,0.0
14723,73.0,0.0,90.0,1.0,0.0
14724,85.0,0.0,90.0,11.0,0.0
14725,61.0,0.0,15.0,5.0,0.0
14726,49.0,0.0,90.0,4.0,0.0
14727,85.0,0.0,90.0,0.0,0.0
14728,73.0,0.0,90.0,5.0,0.0
14729,73.0,0.0,90.0,13.0,0.0
14730,50.0,24.0,20.0,9.0,0.0
14731,50.0,24.0,20.0,9.0,0.0
14732,50.0,2.0,20.0,9.0,0.0
14733,54.0,0.0,90.0,6.0,0.0
14734,70.0,0.0,90.0,13.0,0.0
14735,30.0,0.0,90.0,15.0,0.0
14736,45.0,0.0,90.0,9.0,0.0
14737,58.0,0.0,90.0,4.0,0.0
14738,70.0,0.0,90.0,5.0,0.0
14739,70.0,0.0,90.0,2.0,0.0
14740,82.0,0.0,90.0,11.0,0.0
14741,82.0,2.0,90.0,0.0,0.0
14742,70.0,0.0,90.0,1.0,0.0
14743,42.0,0.0,90.0,8.0,0.0
14744,42.0,0.0,90.0,2.0,0.0
14745,42.0,0.0,90.0,14.0,0.0
14746,94.0,0.0,90.0,0.0,0.0
14747,66.0,128.0,90.0,5.0,0.0
14748,42.0,0.0,90.0,7.0,0.0
14749,42.0,0.0,90.0,3.0,0.0
14750,54.0,0.0,90.0,4.0,0.0
14751,78.0,0.0,90.0,12.0,0.0
14752,50.0,0.0,90.0,9.0,0.0
14753,30.0,0.0,90.0,3.0,0.0
14754,42.0,0.0,90.0,6.0,0.0
14755,37.0,32.0,90.0,15.0,0.0
14756,49.0,64.0,30.0,3.0,0.0
14757,30.0,0.0,90.0,15.0,0.0
14758,42.0,64.0,30.0,3.0,0.0
14759,70.0,32.0,90.0,1.0,0.0
14760,78.0,0.0,90.0,1.0,0.0
14761,58.0,48.0,60.0,13.0,0.0
14762,85.0,16.0,30.0,0.0,0.0
14763,59.0,32.0,60.0,13.0,0.0
14764,90.0,16.0,30.0,0.0,0.0
14765,58.0,48.0,60.0,13.0,0.0
14766,77.0,32.0,150.0,9.0,0.0
14767,56.0,32.0,60.0,13.0,0.0
14768,54.0,16.0,60.0,13.0,0.0
14769,73.0,16.0,30.0,1.0,0.0
14770,70.0,0.0,60.0,11.0,0.0
14771,71.0,0.0,60.0,11.0,0.0
14772,56.0,32.0,60.0,13.0,0.0
14773,78.0,16.0,30.0,1.0,0.0
14774,70.0,0.0,60.0,11.0,0.0
14775,54.0,48.0,60.0,13.0,0.0
14776,68.0,32.0,60.0,11.0,0.0
14777,49.0,0.0,60.0,13.0,0.0
14778,46.0,48.0,60.0,13.0,0.0
14779,61.0,16.0,30.0,2.0,0.0
14780,66.0,0.0,60.0,11.0,0.0
14781,49.0,0.0,60.0,13.0,0.0
14782,68.0,32.0,60.0,11.0,0.0
14783,66.0,16.0,30.0,2.0,0.0
14784,66.0,48.0,60.0,11.0,0.0
14785,54.0,32.0,90.0,13.0,0.0
14786,61.0,0.0,60.0,11.0,0.0
14787,30.0,32.0,90.0,15.0,0.0
14788,42.0,16.0,30.0,3.0,0.0
14789,58.0,48.0,60.0,11.0,0.0
14790,60.0,0.0,60.0,11.0,0.0
14791,37.0,64.0,30.0,3.0,0.0
14792,61.0,0.0,90.0,11.0,0.0
14793,25.0,32.0,90.0,15.0,0.0
14794,80.0,16.0,30.0,0.0,0.0
14795,53.0,48.0,60.0,14.0,0.0
14796,54.0,32.0,60.0,14.0,0.0
14797,53.0,48.0,60.0,14.0,0.0
14798,77.0,32.0,150.0,9.0,0.0
14799,85.0,16.0,30.0,0.0,0.0
14800,51.0,32.0,60.0,14.0,0.0
14801,49.0,16.0,60.0,14.0,0.0
14802,65.0,0.0,60.0,11.0,0.0
14803,68.0,16.0,30.0,1.0,0.0
14804,66.0,32.0,60.0,11.0,0.0
14805,51.0,0.0,60.0,14.0,0.0
14806,73.0,16.0,30.0,1.0,0.0
14807,49.0,0.0,60.0,14.0,0.0
14808,65.0,48.0,60.0,11.0,0.0
14809,63.0,32.0,60.0,11.0,0.0
14810,44.0,0.0,60.0,14.0,0.0
14811,56.0,16.0,30.0,2.0,0.0
14812,41.0,0.0,60.0,14.0,0.0
14813,61.0,48.0,60.0,11.0,0.0
14814,44.0,32.0,60.0,14.0,0.0
14815,63.0,0.0,60.0,11.0,0.0
14816,49.0,0.0,90.0,14.0,0.0
14817,61.0,48.0,60.0,11.0,0.0
14818,61.0,16.0,30.0,2.0,0.0
14819,59.0,32.0,60.0,11.0,0.0
14820,37.0,32.0,90.0,15.0,0.0
14821,49.0,16.0,30.0,3.0,0.0
14822,58.0,48.0,60.0,11.0,0.0
14823,61.0,0.0,60.0,11.0,0.0
14824,66.0,32.0,90.0,11.0,0.0
14825,42.0,64.0,30.0,3.0,0.0
14826,30.0,0.0,90.0,15.0,0.0
14827,82.0,16.0,30.0,0.0,0.0
14828,66.0,48.0,60.0,12.0,0.0
14829,68.0,32.0,60.0,12.0,0.0
14830,90.0,16.0,30.0,0.0,0.0
14831,77.0,32.0,150.0,9.0,0.0
14832,66.0,48.0,60.0,12.0,0.0
14833,65.0,32.0,60.0,12.0,0.0
14834,63.0,0.0,60.0,12.0,0.0
14835,78.0,16.0,60.0,11.0,0.0
14836,70.0,16.0,30.0,1.0,0.0
14837,80.0,0.0,60.0,11.0,0.0
14838,65.0,32.0,60.0,12.0,0.0
14839,78.0,0.0,60.0,11.0,0.0
14840,63.0,48.0,60.0,12.0,0.0
14841,78.0,16.0,30.0,1.0,0.0
14842,61.0,0.0,60.0,12.0,0.0
14843,77.0,32.0,60.0,11.0,0.0
14844,58.0,16.0,30.0,2.0,0.0
14845,60.0,0.0,60.0,12.0,0.0
14846,75.0,48.0,60.0,11.0,0.0
14847,63.0,0.0,60.0,12.0,0.0
14848,77.0,32.0,60.0,11.0,0.0
14849,68.0,0.0,90.0,12.0,0.0
14850,75.0,48.0,60.0,11.0,0.0
14851,66.0,16.0,30.0,2.0,0.0
14852,73.0,32.0,60.0,11.0,0.0
14853,44.0,0.0,30.0,3.0,0.0
14854,72.0,48.0,60.0,11.0,0.0
14855,56.0,16.0,30.0,3.0,0.0
14856,44.0,32.0,90.0,15.0,0.0
14857,44.0,0.0,90.0,14.0,0.0
14858,75.0,0.0,60.0,11.0,0.0
14859,41.0,0.0,90.0,14.0,0.0
14860,41.0,0.0,30.0,3.0,0.0
14861,41.0,0.0,90.0,15.0,0.0
14862,80.0,32.0,90.0,11.0,0.0
14863,53.0,64.0,30.0,3.0,0.0
14864,85.0,16.0,30.0,0.0,0.0
14865,56.0,48.0,60.0,2.0,0.0
14866,60.0,32.0,60.0,2.0,0.0
14867,61.0,32.0,90.0,2.0,0.0
14868,73.0,64.0,30.0,0.0,0.0
14869,70.0,48.0,60.0,1.0,0.0
14870,54.0,16.0,30.0,3.0,0.0
14871,42.0,32.0,90.0,15.0,0.0
14872,42.0,0.0,90.0,14.0,0.0
14873,75.0,0.0,60.0,1.0,0.0
14874,72.0,32.0,90.0,1.0,0.0
14875,44.0,0.0,90.0,15.0,0.0
14876,44.0,0.0,90.0,14.0,0.0
14877,56.0,64.0,30.0,3.0,0.0
14878,73.0,0.0,30.0,0.0,0.0
14879,42.0,48.0,60.0,2.0,0.0
14880,44.0,16.0,30.0,3.0,0.0
14881,60.0,32.0,60.0,2.0,0.0
14882,51.0,0.0,15.0,2.0,0.0
14883,61.0,64.0,30.0,0.0,0.0
14884,53.0,32.0,90.0,2.0,0.0
14885,61.0,0.0,90.0,2.0,0.0
14886,37.0,0.0,30.0,3.0,0.0
14887,37.0,0.0,90.0,15.0,0.0
14888,49.0,16.0,30.0,3.0,0.0
14889,71.0,48.0,60.0,1.0,0.0
14890,68.0,0.0,60.0,1.0,0.0
14891,77.0,32.0,60.0,1.0,0.0
14892,70.0,32.0,90.0,1.0,0.0
14893,78.0,0.0,90.0,1.0,0.0
14894,42.0,64.0,30.0,3.0,0.0
14895,30.0,0.0,90.0,15.0,0.0
14896,85.0,16.0,30.0,0.0,0.0
14897,58.0,48.0,60.0,13.0,0.0
14898,59.0,32.0,60.0,13.0,0.0
14899,90.0,16.0,30.0,0.0,0.0
14900,77.0,32.0,150.0,9.0,0.0
14901,58.0,48.0,60.0,13.0,0.0
14902,56.0,32.0,60.0,13.0,0.0
14903,70.0,16.0,60.0,11.0,0.0
14904,54.0,0.0,60.0,13.0,0.0
14905,73.0,16.0,30.0,1.0,0.0
14906,56.0,32.0,60.0,13.0,0.0
14907,71.0,0.0,60.0,11.0,0.0
14908,54.0,48.0,60.0,13.0,0.0
14909,78.0,16.0,30.0,1.0,0.0
14910,70.0,0.0,60.0,11.0,0.0
14911,68.0,0.0,60.0,11.0,0.0
14912,49.0,32.0,60.0,13.0,0.0
14913,61.0,16.0,30.0,2.0,0.0
14914,66.0,48.0,60.0,11.0,0.0
14915,46.0,0.0,60.0,13.0,0.0
14916,49.0,32.0,60.0,13.0,0.0
14917,68.0,0.0,60.0,11.0,0.0
14918,66.0,48.0,60.0,11.0,0.0
14919,66.0,16.0,30.0,2.0,0.0
14920,54.0,0.0,90.0,13.0,0.0
14921,61.0,32.0,60.0,11.0,0.0
14922,58.0,48.0,60.0,11.0,0.0
14923,30.0,0.0,90.0,15.0,0.0
14924,42.0,16.0,30.0,3.0,0.0
14925,60.0,32.0,60.0,11.0,0.0
14926,37.0,64.0,30.0,3.0,0.0
14927,61.0,0.0,90.0,11.0,0.0
14928,25.0,32.0,90.0,15.0,0.0
14929,80.0,16.0,30.0,0.0,0.0
14930,53.0,48.0,60.0,14.0,0.0
14931,54.0,32.0,60.0,14.0,0.0
14932,77.0,32.0,150.0,9.0,0.0
14933,85.0,16.0,30.0,0.0,0.0
14934,53.0,48.0,60.0,14.0,0.0
14935,51.0,32.0,60.0,14.0,0.0
14936,49.0,0.0,60.0,14.0,0.0
14937,65.0,16.0,60.0,11.0,0.0
14938,68.0,16.0,30.0,1.0,0.0
14939,51.0,32.0,60.0,14.0,0.0
14940,66.0,0.0,60.0,11.0,0.0
14941,73.0,16.0,30.0,1.0,0.0
14942,65.0,0.0,60.0,11.0,0.0
14943,49.0,48.0,60.0,14.0,0.0
14944,63.0,0.0,60.0,11.0,0.0
14945,44.0,32.0,60.0,14.0,0.0
14946,61.0,48.0,60.0,11.0,0.0
14947,41.0,0.0,60.0,14.0,0.0
14948,56.0,16.0,30.0,2.0,0.0
14949,63.0,0.0,60.0,11.0,0.0
14950,44.0,32.0,60.0,14.0,0.0
14951,61.0,48.0,60.0,11.0,0.0
14952,49.0,0.0,90.0,14.0,0.0
14953,61.0,16.0,30.0,2.0,0.0
14954,59.0,32.0,60.0,11.0,0.0
14955,49.0,16.0,30.0,3.0,0.0
14956,58.0,48.0,60.0,11.0,0.0
14957,37.0,32.0,90.0,15.0,0.0
14958,61.0,0.0,60.0,11.0,0.0
14959,66.0,0.0,90.0,11.0,0.0
14960,30.0,32.0,90.0,15.0,0.0
14961,42.0,64.0,30.0,3.0,0.0
14962,82.0,16.0,30.0,0.0,0.0
14963,66.0,48.0,60.0,12.0,0.0
14964,68.0,32.0,60.0,12.0,0.0
14965,90.0,16.0,30.0,0.0,0.0
14966,66.0,48.0,60.0,12.0,0.0
14967,77.0,32.0,150.0,9.0,0.0
14968,65.0,32.0,60.0,12.0,0.0
14969,78.0,16.0,60.0,11.0,0.0
14970,70.0,16.0,30.0,1.0,0.0
14971,63.0,0.0,60.0,12.0,0.0
14972,65.0,32.0,60.0,12.0,0.0
14973,80.0,0.0,60.0,11.0,0.0
14974,78.0,48.0,60.0,11.0,0.0
14975,78.0,16.0,30.0,1.0,0.0
14976,63.0,0.0,60.0,12.0,0.0
14977,61.0,32.0,60.0,12.0,0.0
14978,77.0,0.0,60.0,11.0,0.0
14979,60.0,0.0,60.0,12.0,0.0
14980,75.0,48.0,60.0,11.0,0.0
14981,58.0,16.0,30.0,2.0,0.0
14982,63.0,32.0,60.0,12.0,0.0
14983,77.0,0.0,60.0,11.0,0.0
14984,75.0,48.0,60.0,11.0,0.0
14985,66.0,16.0,30.0,2.0,0.0
14986,68.0,0.0,90.0,12.0,0.0
14987,73.0,32.0,60.0,11.0,0.0
14988,56.0,0.0,30.0,3.0,0.0
14989,44.0,32.0,90.0,14.0,0.0
14990,44.0,0.0,90.0,15.0,0.0
14991,72.0,48.0,60.0,11.0,0.0
14992,44.0,16.0,30.0,3.0,0.0
14993,75.0,0.0,60.0,11.0,0.0
14994,41.0,0.0,90.0,15.0,0.0
14995,41.0,32.0,90.0,14.0,0.0
14996,41.0,0.0,30.0,3.0,0.0
14997,53.0,64.0,30.0,3.0,0.0
14998,80.0,0.0,90.0,11.0,0.0
14999,56.0,48.0,60.0,2.0,0.0
15000,85.0,16.0,30.0,0.0,0.0
15001,60.0,32.0,60.0,2.0,0.0
15002,73.0,64.0,30.0,0.0,0.0
15003,61.0,32.0,90.0,2.0,0.0
15004,42.0,32.0,90.0,15.0,0.0
15005,42.0,0.0,90.0,14.0,0.0
15006,70.0,48.0,60.0,1.0,0.0
15007,54.0,16.0,30.0,3.0,0.0
15008,75.0,0.0,60.0,1.0,0.0
15009,44.0,0.0,90.0,15.0,0.0
15010,72.0,0.0,90.0,1.0,0.0
15011,56.0,64.0,30.0,3.0,0.0
15012,44.0,32.0,90.0,14.0,0.0
15013,73.0,16.0,30.0,0.0,0.0
15014,42.0,0.0,60.0,2.0,0.0
15015,44.0,0.0,30.0,3.0,0.0
15016,51.0,48.0,60.0,2.0,0.0
15017,60.0,0.0,60.0,2.0,0.0
15018,51.0,32.0,60.0,2.0,0.0
15019,37.0,0.0,30.0,3.0,0.0
15020,61.0,64.0,30.0,0.0,0.0
15021,61.0,0.0,90.0,2.0,0.0
15022,53.0,32.0,90.0,2.0,0.0
15023,37.0,0.0,90.0,15.0,0.0
15024,68.0,48.0,60.0,1.0,0.0
15025,49.0,16.0,30.0,3.0,0.0
15026,71.0,0.0,60.0,1.0,0.0
15027,77.0,32.0,60.0,1.0,0.0
15028,71.0,32.0,90.0,1.0,0.0
15029,80.0,0.0,90.0,1.0,0.0
15030,26.0,0.0,90.0,15.0,0.0
15031,38.0,64.0,30.0,3.0,0.0
15032,86.0,16.0,30.0,0.0,0.0
15033,59.0,48.0,60.0,13.0,0.0
15034,61.0,32.0,60.0,13.0,0.0
15035,59.0,48.0,60.0,13.0,0.0
15036,77.0,32.0,150.0,9.0,0.0
15037,74.0,16.0,30.0,0.0,0.0
15038,57.0,32.0,60.0,13.0,0.0
15039,56.0,0.0,60.0,13.0,0.0
15040,74.0,16.0,30.0,1.0,0.0
15041,71.0,16.0,60.0,11.0,0.0
15042,73.0,0.0,60.0,11.0,0.0
15043,57.0,32.0,60.0,13.0,0.0
15044,62.0,16.0,30.0,1.0,0.0
15045,71.0,0.0,60.0,11.0,0.0
15046,56.0,48.0,60.0,13.0,0.0
15047,69.0,32.0,60.0,11.0,0.0
15048,54.0,0.0,60.0,13.0,0.0
15049,53.0,0.0,60.0,13.0,0.0
15050,68.0,48.0,60.0,11.0,0.0
15051,62.0,16.0,30.0,2.0,0.0
15052,69.0,32.0,60.0,11.0,0.0
15053,56.0,0.0,60.0,13.0,0.0
15054,59.0,0.0,90.0,13.0,0.0
15055,68.0,48.0,60.0,11.0,0.0
15056,50.0,16.0,30.0,2.0,0.0
15057,66.0,32.0,60.0,11.0,0.0
15058,37.0,32.0,90.0,15.0,0.0
15059,49.0,16.0,30.0,3.0,0.0
15060,65.0,48.0,60.0,11.0,0.0
15061,68.0,0.0,60.0,11.0,0.0
15062,71.0,0.0,90.0,11.0,0.0
15063,37.0,64.0,30.0,3.0,0.0
15064,25.0,32.0,90.0,15.0,0.0
15065,85.0,16.0,30.0,0.0,0.0
15066,59.0,48.0,60.0,13.0,0.0
15067,61.0,32.0,60.0,13.0,0.0
15068,59.0,48.0,60.0,13.0,0.0
15069,73.0,16.0,30.0,0.0,0.0
15070,77.0,32.0,150.0,9.0,0.0
15071,58.0,32.0,60.0,13.0,0.0
15072,56.0,16.0,60.0,13.0,0.0
15073,65.0,0.0,60.0,11.0,0.0
15074,73.0,16.0,30.0,1.0,0.0
15075,66.0,0.0,60.0,11.0,0.0
15076,58.0,32.0,60.0,13.0,0.0
15077,56.0,48.0,60.0,13.0,0.0
15078,61.0,16.0,30.0,1.0,0.0
15079,65.0,0.0,60.0,11.0,0.0
15080,63.0,32.0,60.0,11.0,0.0
15081,54.0,0.0,60.0,13.0,0.0
15082,61.0,16.0,30.0,2.0,0.0
15083,61.0,48.0,60.0,11.0,0.0
15084,53.0,0.0,60.0,13.0,0.0
15085,63.0,0.0,60.0,11.0,0.0
15086,56.0,32.0,60.0,13.0,0.0
15087,61.0,32.0,90.0,13.0,0.0
15088,49.0,16.0,30.0,2.0,0.0
15089,61.0,48.0,60.0,11.0,0.0
15090,59.0,0.0,60.0,11.0,0.0
15091,49.0,16.0,30.0,3.0,0.0
15092,58.0,48.0,60.0,11.0,0.0
15093,37.0,32.0,90.0,15.0,0.0
15094,61.0,0.0,60.0,11.0,0.0
15095,42.0,64.0,30.0,3.0,0.0
15096,30.0,32.0,90.0,15.0,0.0
15097,66.0,0.0,90.0,11.0,0.0
15098,64.0,48.0,60.0,13.0,0.0
15099,90.0,16.0,30.0,0.0,0.0
15100,66.0,32.0,60.0,13.0,0.0
15101,77.0,32.0,150.0,9.0,0.0
15102,78.0,16.0,30.0,0.0,0.0
15103,64.0,48.0,60.0,13.0,0.0
15104,63.0,32.0,60.0,13.0,0.0
15105,61.0,0.0,60.0,13.0,0.0
15106,78.0,16.0,30.0,1.0,0.0
15107,70.0,16.0,60.0,11.0,0.0
15108,71.0,32.0,60.0,11.0,0.0
15109,63.0,0.0,60.0,13.0,0.0
15110,70.0,0.0,60.0,11.0,0.0
15111,66.0,16.0,30.0,1.0,0.0
15112,61.0,48.0,60.0,13.0,0.0
15113,59.0,0.0,60.0,13.0,0.0
15114,68.0,32.0,60.0,11.0,0.0
15115,58.0,48.0,60.0,13.0,0.0
15116,66.0,16.0,30.0,2.0,0.0
15117,66.0,0.0,60.0,11.0,0.0
15118,68.0,32.0,60.0,11.0,0.0
15119,61.0,0.0,60.0,13.0,0.0
15120,66.0,32.0,90.0,13.0,0.0
15121,54.0,16.0,30.0,2.0,0.0
15122,66.0,48.0,60.0,11.0,0.0
15123,64.0,0.0,60.0,11.0,0.0
15124,42.0,32.0,90.0,15.0,0.0
15125,63.0,48.0,60.0,11.0,0.0
15126,54.0,0.0,90.0,14.0,0.0
15127,54.0,16.0,30.0,3.0,0.0
15128,42.0,0.0,30.0,3.0,0.0
15129,66.0,0.0,60.0,11.0,0.0
15130,47.0,0.0,90.0,14.0,0.0
15131,47.0,0.0,30.0,3.0,0.0
15132,71.0,0.0,90.0,11.0,0.0
15133,35.0,64.0,30.0,3.0,0.0
15134,35.0,32.0,90.0,15.0,0.0
15135,59.0,48.0,60.0,2.0,0.0
15136,87.0,16.0,30.0,0.0,0.0
15137,63.0,32.0,60.0,2.0,0.0
15138,80.0,64.0,30.0,0.0,0.0
15139,68.0,32.0,90.0,2.0,0.0
15140,56.0,16.0,30.0,3.0,0.0
15141,56.0,0.0,90.0,14.0,0.0
15142,65.0,46.0,60.0,1.0,0.0
15143,44.0,2.0,90.0,3.0,0.0
15144,44.0,0.0,90.0,15.0,0.0
15145,68.0,32.0,60.0,1.0,0.0
15146,49.0,32.0,90.0,14.0,0.0
15147,73.0,0.0,90.0,1.0,0.0
15148,37.0,2.0,90.0,3.0,0.0
15149,49.0,62.0,30.0,3.0,0.0
15150,37.0,0.0,90.0,15.0,0.0
15151,89.0,16.0,30.0,0.0,0.0
15152,61.0,0.0,60.0,2.0,0.0
15153,49.0,48.0,60.0,2.0,0.0
15154,65.0,0.0,60.0,2.0,0.0
15155,53.0,32.0,60.0,2.0,0.0
15156,70.0,0.0,90.0,2.0,0.0
15157,58.0,32.0,90.0,2.0,0.0
15158,82.0,64.0,30.0,0.0,0.0
15159,71.0,46.0,60.0,1.0,0.0
15160,68.0,0.0,60.0,1.0,0.0
15161,37.0,0.0,90.0,15.0,0.0
15162,49.0,16.0,30.0,3.0,0.0
15163,37.0,2.0,90.0,3.0,0.0
15164,49.0,32.0,90.0,14.0,0.0
15165,77.0,0.0,60.0,1.0,0.0
15166,80.0,0.0,90.0,1.0,0.0
15167,71.0,32.0,90.0,1.0,0.0
15168,38.0,64.0,30.0,3.0,0.0
15169,26.0,0.0,90.0,15.0,0.0
15170,86.0,16.0,30.0,0.0,0.0
15171,59.0,48.0,60.0,13.0,0.0
15172,61.0,32.0,60.0,13.0,0.0
15173,74.0,16.0,30.0,0.0,0.0
15174,77.0,32.0,150.0,9.0,0.0
15175,59.0,48.0,60.0,13.0,0.0
15176,57.0,32.0,60.0,13.0,0.0
15177,71.0,16.0,60.0,11.0,0.0
15178,74.0,16.0,30.0,1.0,0.0
15179,56.0,0.0,60.0,13.0,0.0
15180,57.0,0.0,60.0,13.0,0.0
15181,73.0,32.0,60.0,11.0,0.0
15182,56.0,0.0,60.0,13.0,0.0
15183,62.0,16.0,30.0,1.0,0.0
15184,71.0,48.0,60.0,11.0,0.0
15185,54.0,0.0,60.0,13.0,0.0
15186,69.0,32.0,60.0,11.0,0.0
15187,68.0,48.0,60.0,11.0,0.0
15188,53.0,0.0,60.0,13.0,0.0
15189,62.0,16.0,30.0,2.0,0.0
15190,56.0,0.0,60.0,13.0,0.0
15191,69.0,32.0,60.0,11.0,0.0
15192,68.0,48.0,60.0,11.0,0.0
15193,50.0,16.0,30.0,2.0,0.0
15194,59.0,32.0,90.0,13.0,0.0
15195,66.0,0.0,60.0,11.0,0.0
15196,49.0,16.0,30.0,3.0,0.0
15197,37.0,32.0,90.0,15.0,0.0
15198,65.0,48.0,60.0,11.0,0.0
15199,68.0,0.0,60.0,11.0,0.0
15200,25.0,0.0,90.0,15.0,0.0
15201,71.0,32.0,90.0,11.0,0.0
15202,37.0,64.0,30.0,3.0,0.0
15203,59.0,48.0,60.0,13.0,0.0
15204,85.0,16.0,30.0,0.0,0.0
15205,61.0,32.0,60.0,13.0,0.0
15206,59.0,48.0,60.0,13.0,0.0
15207,77.0,32.0,150.0,9.0,0.0
15208,73.0,16.0,30.0,0.0,0.0
15209,58.0,32.0,60.0,13.0,0.0
15210,65.0,0.0,60.0,11.0,0.0
15211,56.0,16.0,60.0,13.0,0.0
15212,73.0,16.0,30.0,1.0,0.0
15213,58.0,0.0,60.0,13.0,0.0
15214,66.0,32.0,60.0,11.0,0.0
15215,56.0,48.0,60.0,13.0,0.0
15216,61.0,16.0,30.0,1.0,0.0
15217,65.0,0.0,60.0,11.0,0.0
15218,63.0,0.0,60.0,11.0,0.0
15219,54.0,32.0,60.0,13.0,0.0
15220,61.0,48.0,60.0,11.0,0.0
15221,61.0,16.0,30.0,2.0,0.0
15222,53.0,0.0,60.0,13.0,0.0
15223,56.0,0.0,60.0,13.0,0.0
15224,63.0,32.0,60.0,11.0,0.0
15225,61.0,0.0,90.0,13.0,0.0
15226,49.0,16.0,30.0,2.0,0.0
15227,61.0,48.0,60.0,11.0,0.0
15228,59.0,32.0,60.0,11.0,0.0
15229,49.0,16.0,30.0,3.0,0.0
15230,58.0,48.0,60.0,11.0,0.0
15231,37.0,32.0,90.0,15.0,0.0
15232,61.0,0.0,60.0,11.0,0.0
15233,42.0,64.0,30.0,3.0,0.0
15234,30.0,0.0,90.0,15.0,0.0
15235,66.0,32.0,90.0,11.0,0.0
15236,64.0,48.0,60.0,13.0,0.0
15237,90.0,16.0,30.0,0.0,0.0
15238,66.0,32.0,60.0,13.0,0.0
15239,77.0,32.0,150.0,9.0,0.0
15240,64.0,48.0,60.0,13.0,0.0
15241,78.0,16.0,30.0,0.0,0.0
15242,63.0,32.0,60.0,13.0,0.0
15243,78.0,16.0,30.0,1.0,0.0
15244,70.0,0.0,60.0,11.0,0.0
15245,61.0,16.0,60.0,13.0,0.0
15246,63.0,32.0,60.0,13.0,0.0
15247,71.0,0.0,60.0,11.0,0.0
15248,61.0,48.0,60.0,13.0,0.0
15249,66.0,16.0,30.0,1.0,0.0
15250,70.0,0.0,60.0,11.0,0.0
15251,68.0,32.0,60.0,11.0,0.0
15252,59.0,0.0,60.0,13.0,0.0
15253,58.0,0.0,60.0,13.0,0.0
15254,66.0,48.0,60.0,11.0,0.0
15255,66.0,16.0,30.0,2.0,0.0
15256,61.0,0.0,60.0,13.0,0.0
15257,68.0,32.0,60.0,11.0,0.0
15258,54.0,16.0,30.0,2.0,0.0
15259,66.0,32.0,90.0,13.0,0.0
15260,66.0,48.0,60.0,11.0,0.0
15261,64.0,0.0,60.0,11.0,0.0
15262,54.0,16.0,30.0,3.0,0.0
15263,63.0,48.0,60.0,11.0,0.0
15264,42.0,0.0,30.0,3.0,0.0
15265,42.0,0.0,90.0,15.0,0.0
15266,54.0,32.0,90.0,14.0,0.0
15267,66.0,0.0,60.0,11.0,0.0
15268,35.0,64.0,30.0,3.0,0.0
15269,35.0,32.0,90.0,15.0,0.0
15270,71.0,0.0,90.0,11.0,0.0
15271,47.0,0.0,30.0,3.0,0.0
15272,47.0,0.0,90.0,14.0,0.0
15273,87.0,16.0,30.0,0.0,0.0
15274,59.0,48.0,60.0,2.0,0.0
15275,63.0,32.0,60.0,2.0,0.0
15276,68.0,32.0,90.0,2.0,0.0
15277,80.0,64.0,30.0,0.0,0.0
15278,65.0,46.0,60.0,1.0,0.0
15279,44.0,0.0,90.0,15.0,0.0
15280,56.0,16.0,30.0,3.0,0.0
15281,44.0,2.0,90.0,3.0,0.0
15282,56.0,32.0,90.0,14.0,0.0
15283,68.0,0.0,60.0,1.0,0.0
15284,37.0,32.0,90.0,15.0,0.0
15285,73.0,0.0,90.0,1.0,0.0
15286,49.0,0.0,90.0,14.0,0.0
15287,37.0,62.0,30.0,3.0,0.0
15288,49.0,48.0,60.0,2.0,0.0
15289,61.0,0.0,60.0,2.0,0.0
15290,89.0,16.0,30.0,0.0,0.0
15291,53.0,0.0,60.0,2.0,0.0
15292,65.0,32.0,60.0,2.0,0.0
15293,82.0,64.0,30.0,0.0,0.0
15294,58.0,0.0,90.0,2.0,0.0
15295,70.0,48.0,90.0,2.0,0.0
15296,68.0,48.0,60.0,1.0,0.0
15297,49.0,0.0,90.0,14.0,0.0
15298,37.0,0.0,90.0,15.0,0.0
15299,71.0,0.0,60.0,1.0,0.0
15300,77.0,32.0,60.0,1.0,0.0
15301,30.0,32.0,90.0,15.0,0.0
15302,78.0,64.0,30.0,0.0,0.0
15303,70.0,0.0,30.0,0.0,0.0
15304,70.0,0.0,30.0,0.0,0.0
15305,78.0,96.0,30.0,0.0,0.0
15306,56.0,32.0,180.0,13.0,0.0
15307,73.0,96.0,30.0,0.0,0.0
15308,49.0,0.0,180.0,14.0,0.0
15309,73.0,64.0,30.0,0.0,0.0
15310,58.0,32.0,180.0,13.0,0.0
15311,66.0,96.0,30.0,0.0,0.0
15312,54.0,0.0,180.0,14.0,0.0
15313,66.0,64.0,30.0,0.0,0.0
15314,61.0,64.0,30.0,0.0,0.0
15315,56.0,0.0,90.0,14.0,0.0
15316,59.0,96.0,90.0,13.0,0.0
15317,37.0,96.0,90.0,15.0,0.0
15318,30.0,32.0,90.0,15.0,0.0
15319,85.0,96.0,30.0,0.0,0.0
15320,58.0,0.0,180.0,13.0,0.0
15321,49.0,32.0,180.0,14.0,0.0
15322,78.0,96.0,30.0,0.0,0.0
15323,78.0,64.0,30.0,0.0,0.0
15324,56.0,32.0,180.0,14.0,0.0
15325,59.0,0.0,180.0,13.0,0.0
15326,73.0,96.0,30.0,0.0,0.0
15327,73.0,64.0,30.0,0.0,0.0
15328,61.0,0.0,90.0,13.0,0.0
15329,58.0,96.0,90.0,14.0,0.0
15330,66.0,64.0,30.0,0.0,0.0
15331,42.0,96.0,90.0,15.0,0.0
15332,35.0,32.0,90.0,15.0,0.0
15333,90.0,96.0,30.0,0.0,0.0
15334,83.0,96.0,30.0,0.0,0.0
15335,63.0,0.0,180.0,11.0,0.0
15336,54.0,32.0,180.0,12.0,0.0
15337,83.0,64.0,30.0,0.0,0.0
15338,61.0,0.0,180.0,12.0,0.0
15339,64.0,32.0,180.0,11.0,0.0
15340,78.0,96.0,30.0,0.0,0.0
15341,78.0,64.0,30.0,0.0,0.0
15342,71.0,64.0,30.0,0.0,0.0
15343,66.0,96.0,90.0,11.0,0.0
15344,63.0,0.0,90.0,12.0,0.0
15345,35.0,96.0,90.0,15.0,0.0
15346,37.0,32.0,90.0,15.0,0.0
15347,85.0,96.0,30.0,0.0,0.0
15348,78.0,96.0,30.0,0.0,0.0
15349,61.0,0.0,180.0,13.0,0.0
15350,49.0,0.0,180.0,14.0,0.0
15351,58.0,32.0,180.0,14.0,0.0
15352,78.0,64.0,30.0,0.0,0.0
15353,58.0,0.0,180.0,13.0,0.0
15354,54.0,32.0,180.0,14.0,0.0
15355,73.0,96.0,30.0,0.0,0.0
15356,73.0,64.0,30.0,0.0,0.0
15357,49.0,0.0,90.0,14.0,0.0
15358,61.0,64.0,30.0,0.0,0.0
15359,56.0,96.0,90.0,13.0,0.0
15360,37.0,96.0,90.0,15.0,0.0
15361,30.0,32.0,90.0,15.0,0.0
15362,78.0,96.0,30.0,0.0,0.0
15363,56.0,32.0,180.0,13.0,0.0
15364,49.0,0.0,180.0,14.0,0.0
15365,73.0,96.0,30.0,0.0,0.0
15366,73.0,64.0,30.0,0.0,0.0
15367,58.0,0.0,180.0,13.0,0.0
15368,66.0,96.0,30.0,0.0,0.0
15369,54.0,32.0,180.0,14.0,0.0
15370,66.0,64.0,30.0,0.0,0.0
15371,56.0,0.0,90.0,14.0,0.0
15372,61.0,64.0,30.0,0.0,0.0
15373,59.0,96.0,90.0,13.0,0.0
15374,37.0,96.0,90.0,15.0,0.0
15375,30.0,32.0,90.0,15.0,0.0
15376,85.0,96.0,30.0,0.0,0.0
15377,78.0,96.0,30.0,0.0,0.0
15378,58.0,0.0,180.0,13.0,0.0
15379,49.0,32.0,180.0,14.0,0.0
15380,78.0,64.0,30.0,0.0,0.0
15381,73.0,96.0,30.0,0.0,0.0
15382,56.0,32.0,180.0,14.0,0.0
15383,59.0,0.0,180.0,13.0,0.0
15384,73.0,64.0,30.0,0.0,0.0
15385,61.0,0.0,90.0,13.0,0.0
15386,61.0,64.0,30.0,0.0,0.0
15387,58.0,96.0,90.0,14.0,0.0
15388,42.0,96.0,90.0,15.0,0.0
15389,35.0,32.0,90.0,15.0,0.0
15390,90.0,96.0,30.0,0.0,0.0
15391,83.0,96.0,30.0,0.0,0.0
15392,54.0,32.0,180.0,12.0,0.0
15393,63.0,0.0,180.0,11.0,0.0
15394,83.0,64.0,30.0,0.0,0.0
15395,61.0,0.0,180.0,12.0,0.0
15396,64.0,32.0,180.0,11.0,0.0
15397,78.0,96.0,30.0,0.0,0.0
15398,78.0,64.0,30.0,0.0,0.0
15399,71.0,64.0,30.0,0.0,0.0
15400,63.0,0.0,90.0,12.0,0.0
15401,66.0,96.0,90.0,11.0,0.0
15402,35.0,96.0,90.0,15.0,0.0
15403,37.0,32.0,90.0,15.0,0.0
15404,85.0,96.0,30.0,0.0,0.0
15405,78.0,96.0,30.0,0.0,0.0
15406,61.0,32.0,180.0,13.0,0.0
15407,58.0,0.0,180.0,14.0,0.0
15408,49.0,0.0,180.0,14.0,0.0
15409,78.0,64.0,30.0,0.0,0.0
15410,54.0,0.0,180.0,14.0,0.0
15411,73.0,96.0,30.0,0.0,0.0
15412,58.0,32.0,180.0,13.0,0.0
15413,73.0,64.0,30.0,0.0,0.0
15414,49.0,96.0,90.0,14.0,0.0
15415,56.0,0.0,90.0,13.0,0.0
15416,61.0,64.0,30.0,0.0,0.0
15417,25.0,96.0,90.0,15.0,0.0
15418,37.0,32.0,90.0,15.0,0.0
15419,83.0,96.0,30.0,0.0,0.0
15420,56.0,0.0,180.0,13.0,0.0
15421,80.0,96.0,30.0,0.0,0.0
15422,49.0,32.0,180.0,14.0,0.0
15423,80.0,64.0,30.0,0.0,0.0
15424,57.0,0.0,180.0,13.0,0.0
15425,74.0,96.0,30.0,0.0,0.0
15426,54.0,32.0,180.0,14.0,0.0
15427,74.0,64.0,30.0,0.0,0.0
15428,73.0,64.0,30.0,0.0,0.0
15429,49.0,96.0,90.0,14.0,0.0
15430,56.0,0.0,90.0,13.0,0.0
15431,25.0,96.0,90.0,15.0,0.0
15432,40.0,32.0,90.0,14.0,0.0
15433,28.0,0.0,90.0,15.0,0.0
15434,83.0,96.0,30.0,0.0,0.0
15435,80.0,96.0,30.0,0.0,0.0
15436,56.0,32.0,390.0,13.0,0.0
15437,52.0,32.0,180.0,14.0,0.0
15438,80.0,64.0,30.0,0.0,0.0
15439,59.0,0.0,180.0,14.0,0.0
15440,74.0,96.0,30.0,0.0,0.0
15441,74.0,64.0,30.0,0.0,0.0
15442,73.0,64.0,30.0,0.0,0.0
15443,57.0,96.0,90.0,14.0,0.0
15444,52.0,0.0,90.0,13.0,0.0
15445,28.0,96.0,90.0,15.0,0.0
15446,30.0,0.0,90.0,15.0,0.0
15447,42.0,32.0,90.0,14.0,0.0
15448,88.0,96.0,30.0,0.0,0.0
15449,58.0,32.0,180.0,12.0,0.0
15450,85.0,96.0,30.0,0.0,0.0
15451,54.0,32.0,390.0,14.0,0.0
15452,85.0,64.0,30.0,0.0,0.0
15453,64.0,0.0,180.0,12.0,0.0
15454,79.0,96.0,30.0,0.0,0.0
15455,79.0,64.0,30.0,0.0,0.0
15456,78.0,96.0,30.0,0.0,0.0
15457,63.0,0.0,390.0,12.0,0.0
15458,90.0,96.0,30.0,0.0,0.0
15459,83.0,96.0,30.0,0.0,0.0
15460,71.0,32.0,180.0,11.0,0.0
15461,83.0,64.0,30.0,0.0,0.0
15462,78.0,96.0,30.0,0.0,0.0
15463,61.0,0.0,180.0,12.0,0.0
15464,66.0,0.0,15.0,12.0,0.0
15465,70.0,0.0,180.0,11.0,0.0
15466,78.0,64.0,30.0,0.0,0.0
15467,73.0,96.0,30.0,0.0,0.0
15468,68.0,32.0,180.0,11.0,0.0
15469,65.0,0.0,180.0,12.0,0.0
15470,59.0,0.0,180.0,12.0,0.0
15471,73.0,64.0,30.0,0.0,0.0
15472,66.0,64.0,30.0,0.0,0.0
15473,58.0,96.0,90.0,12.0,0.0
15474,61.0,0.0,90.0,11.0,0.0
15475,25.0,96.0,90.0,15.0,0.0
15476,37.0,32.0,90.0,15.0,0.0
15477,83.0,96.0,30.0,0.0,0.0
15478,80.0,96.0,30.0,0.0,0.0
15479,49.0,0.0,180.0,14.0,0.0
15480,56.0,32.0,180.0,13.0,0.0
15481,80.0,64.0,30.0,0.0,0.0
15482,54.0,32.0,180.0,14.0,0.0
15483,57.0,0.0,180.0,13.0,0.0
15484,74.0,96.0,30.0,0.0,0.0
15485,74.0,64.0,30.0,0.0,0.0
15486,56.0,0.0,90.0,13.0,0.0
15487,73.0,64.0,30.0,0.0,0.0
15488,49.0,96.0,90.0,14.0,0.0
15489,25.0,96.0,90.0,15.0,0.0
15490,40.0,0.0,90.0,14.0,0.0
15491,28.0,32.0,90.0,15.0,0.0
15492,83.0,96.0,30.0,0.0,0.0
15493,80.0,96.0,30.0,0.0,0.0
15494,52.0,32.0,180.0,14.0,0.0
15495,56.0,0.0,390.0,13.0,0.0
15496,80.0,64.0,30.0,0.0,0.0
15497,74.0,96.0,30.0,0.0,0.0
15498,59.0,32.0,180.0,14.0,0.0
15499,74.0,64.0,30.0,0.0,0.0
15500,57.0,0.0,90.0,14.0,0.0
15501,52.0,96.0,90.0,13.0,0.0
15502,73.0,64.0,30.0,0.0,0.0
15503,28.0,96.0,90.0,15.0,0.0
15504,42.0,0.0,90.0,14.0,0.0
15505,30.0,32.0,90.0,15.0,0.0
15506,88.0,96.0,30.0,0.0,0.0
15507,58.0,32.0,180.0,12.0,0.0
15508,85.0,96.0,30.0,0.0,0.0
15509,54.0,0.0,390.0,14.0,0.0
15510,85.0,64.0,30.0,0.0,0.0
15511,79.0,96.0,30.0,0.0,0.0
15512,64.0,32.0,180.0,12.0,0.0
15513,79.0,64.0,30.0,0.0,0.0
15514,63.0,0.0,390.0,12.0,0.0
15515,78.0,96.0,30.0,0.0,0.0
15516,90.0,96.0,30.0,0.0,0.0
15517,83.0,96.0,30.0,0.0,0.0
15518,71.0,32.0,180.0,11.0,0.0
15519,83.0,64.0,30.0,0.0,0.0
15520,66.0,0.0,15.0,12.0,0.0
15521,61.0,0.0,180.0,12.0,0.0
15522,70.0,0.0,180.0,11.0,0.0
15523,78.0,96.0,30.0,0.0,0.0
15524,78.0,64.0,30.0,0.0,0.0
15525,73.0,96.0,30.0,0.0,0.0
15526,68.0,32.0,180.0,11.0,0.0
15527,65.0,0.0,180.0,12.0,0.0
15528,59.0,0.0,180.0,12.0,0.0
15529,73.0,64.0,30.0,0.0,0.0
15530,58.0,0.0,90.0,12.0,0.0
15531,66.0,64.0,30.0,0.0,0.0
15532,61.0,480.0,90.0,11.0,0.0
15533,42.0,0.0,90.0,14.0,0.0
15534,78.0,0.0,60.0,0.0,0.0
15535,78.0,48.0,60.0,11.0,0.0
15536,46.0,0.0,180.0,14.0,0.0
15537,54.0,0.0,180.0,12.0,0.0
15538,90.0,0.0,60.0,0.0,0.0
15539,90.0,48.0,60.0,11.0,0.0
15540,85.0,48.0,60.0,0.0,0.0
15541,85.0,0.0,60.0,11.0,0.0
15542,82.0,0.0,60.0,11.0,0.0
15543,82.0,48.0,60.0,0.0,0.0
15544,78.0,48.0,60.0,11.0,0.0
15545,78.0,0.0,60.0,0.0,0.0
15546,77.0,48.0,60.0,11.0,0.0
15547,77.0,0.0,60.0,0.0,0.0
15548,56.0,48.0,150.0,12.0,0.0
15549,49.0,0.0,150.0,14.0,0.0
15550,73.0,48.0,60.0,0.0,0.0
15551,73.0,0.0,60.0,11.0,0.0
15552,71.0,0.0,60.0,11.0,0.0
15553,71.0,0.0,60.0,0.0,0.0
15554,68.0,48.0,60.0,0.0,0.0
15555,68.0,0.0,60.0,11.0,0.0
15556,66.0,0.0,60.0,11.0,0.0
15557,54.0,0.0,180.0,14.0,0.0
15558,66.0,0.0,60.0,13.0,0.0
15559,66.0,48.0,60.0,0.0,0.0
15560,58.0,0.0,180.0,12.0,0.0
15561,61.0,48.0,60.0,11.0,0.0
15562,61.0,0.0,60.0,13.0,0.0
15563,61.0,0.0,60.0,0.0,0.0
15564,58.0,48.0,60.0,11.0,0.0
15565,58.0,0.0,60.0,13.0,0.0
15566,58.0,0.0,60.0,0.0,0.0
15567,54.0,0.0,60.0,13.0,0.0
15568,54.0,48.0,60.0,0.0,0.0
15569,54.0,0.0,60.0,11.0,0.0
15570,51.0,48.0,60.0,13.0,0.0
15571,59.0,48.0,90.0,12.0,0.0
15572,47.0,0.0,90.0,14.0,0.0
15573,51.0,0.0,60.0,11.0,0.0
15574,51.0,0.0,60.0,2.0,0.0
15575,54.0,0.0,60.0,13.0,0.0
15576,54.0,0.0,60.0,11.0,0.0
15577,54.0,0.0,60.0,2.0,0.0
15578,37.0,0.0,60.0,14.0,0.0
15579,37.0,48.0,60.0,2.0,0.0
15580,49.0,0.0,60.0,14.0,0.0
15581,49.0,48.0,60.0,2.0,0.0
15582,66.0,0.0,180.0,12.0,0.0
15583,70.0,48.0,180.0,0.0,0.0
15584,70.0,0.0,180.0,11.0,0.0
15585,61.0,48.0,60.0,14.0,0.0
15586,61.0,0.0,60.0,2.0,0.0
15587,58.0,48.0,60.0,14.0,0.0
15588,58.0,0.0,60.0,2.0,0.0
15589,54.0,0.0,60.0,2.0,0.0
15590,54.0,48.0,60.0,14.0,0.0
15591,49.0,0.0,60.0,14.0,0.0
15592,49.0,0.0,60.0,2.0,0.0
15593,68.0,0.0,150.0,0.0,0.0
15594,47.0,0.0,60.0,14.0,0.0
15595,68.0,0.0,150.0,11.0,0.0
15596,65.0,48.0,150.0,12.0,0.0
15597,47.0,48.0,60.0,2.0,0.0
15598,44.0,48.0,60.0,14.0,0.0
15599,44.0,0.0,60.0,2.0,0.0
15600,41.0,0.0,60.0,2.0,0.0
15601,41.0,0.0,60.0,15.0,0.0
15602,37.0,0.0,60.0,15.0,0.0
15603,37.0,48.0,60.0,2.0,0.0
15604,70.0,0.0,180.0,11.0,0.0
15605,70.0,48.0,180.0,0.0,0.0
15606,25.0,48.0,60.0,15.0,0.0
15607,66.0,0.0,180.0,12.0,0.0
15608,37.0,48.0,60.0,15.0,0.0
15609,42.0,0.0,60.0,14.0,0.0
15610,42.0,48.0,60.0,2.0,0.0
15611,46.0,0.0,60.0,14.0,0.0
15612,46.0,0.0,60.0,2.0,0.0
15613,49.0,48.0,60.0,14.0,0.0
15614,49.0,0.0,60.0,2.0,0.0
15615,68.0,0.0,90.0,12.0,0.0
15616,71.0,0.0,90.0,11.0,0.0
15617,71.0,0.0,90.0,0.0,0.0
15618,53.0,96.0,60.0,2.0,0.0
15619,53.0,0.0,60.0,14.0,0.0
15620,42.0,0.0,90.0,15.0,0.0
15621,82.0,48.0,60.0,0.0,0.0
15622,82.0,0.0,60.0,11.0,0.0
15623,54.0,0.0,180.0,14.0,0.0
15624,94.0,48.0,60.0,11.0,0.0
15625,58.0,0.0,180.0,12.0,0.0
15626,94.0,0.0,60.0,0.0,0.0
15627,90.0,0.0,60.0,11.0,0.0
15628,90.0,48.0,60.0,0.0,0.0
15629,85.0,0.0,60.0,0.0,0.0
15630,85.0,48.0,60.0,11.0,0.0
15631,82.0,0.0,60.0,0.0,0.0
15632,82.0,48.0,60.0,11.0,0.0
15633,53.0,0.0,150.0,14.0,0.0
15634,80.0,0.0,60.0,0.0,0.0
15635,59.0,0.0,150.0,12.0,0.0
15636,80.0,48.0,60.0,11.0,0.0
15637,77.0,48.0,60.0,0.0,0.0
15638,77.0,0.0,60.0,11.0,0.0
15639,73.0,48.0,60.0,11.0,0.0
15640,73.0,0.0,60.0,0.0,0.0
15641,71.0,48.0,60.0,0.0,0.0
15642,71.0,0.0,60.0,11.0,0.0
15643,70.0,0.0,60.0,0.0,0.0
15644,70.0,48.0,60.0,11.0,0.0
15645,52.0,0.0,180.0,14.0,0.0
15646,61.0,48.0,180.0,12.0,0.0
15647,66.0,48.0,60.0,11.0,0.0
15648,66.0,0.0,60.0,0.0,0.0
15649,61.0,48.0,60.0,0.0,0.0
15650,61.0,0.0,60.0,11.0,0.0
15651,58.0,0.0,60.0,11.0,0.0
15652,58.0,0.0,60.0,0.0,0.0
15653,51.0,48.0,90.0,14.0,0.0
15654,54.0,48.0,60.0,11.0,0.0
15655,54.0,0.0,60.0,2.0,0.0
15656,63.0,0.0,90.0,12.0,0.0
15657,59.0,0.0,60.0,2.0,0.0
15658,59.0,0.0,60.0,11.0,0.0
15659,49.0,0.0,60.0,2.0,0.0
15660,49.0,48.0,60.0,13.0,0.0
15661,54.0,48.0,60.0,2.0,0.0
15662,54.0,0.0,60.0,13.0,0.0
15663,66.0,48.0,60.0,13.0,0.0
15664,70.0,0.0,180.0,0.0,0.0
15665,73.0,0.0,180.0,0.0,0.0
15666,73.0,0.0,180.0,11.0,0.0
15667,66.0,0.0,60.0,2.0,0.0
15668,70.0,0.0,180.0,12.0,0.0
15669,61.0,0.0,60.0,2.0,0.0
15670,61.0,48.0,60.0,13.0,0.0
15671,58.0,0.0,60.0,2.0,0.0
15672,58.0,48.0,60.0,13.0,0.0
15673,54.0,48.0,60.0,2.0,0.0
15674,54.0,0.0,60.0,13.0,0.0
15675,70.0,0.0,150.0,0.0,0.0
15676,66.0,0.0,150.0,0.0,0.0
15677,66.0,0.0,150.0,12.0,0.0
15678,49.0,48.0,60.0,13.0,0.0
15679,49.0,0.0,60.0,14.0,0.0
15680,70.0,0.0,150.0,11.0,0.0
15681,49.0,0.0,60.0,2.0,0.0
15682,46.0,0.0,60.0,14.0,0.0
15683,46.0,48.0,60.0,2.0,0.0
15684,42.0,0.0,60.0,14.0,0.0
15685,42.0,48.0,60.0,2.0,0.0
15686,37.0,0.0,60.0,14.0,0.0
15687,37.0,48.0,60.0,2.0,0.0
15688,65.0,0.0,180.0,0.0,0.0
15689,68.0,0.0,180.0,11.0,0.0
15690,25.0,48.0,60.0,15.0,0.0
15691,65.0,0.0,180.0,12.0,0.0
15692,68.0,48.0,180.0,0.0,0.0
15693,37.0,48.0,60.0,15.0,0.0
15694,41.0,0.0,60.0,2.0,0.0
15695,41.0,48.0,60.0,14.0,0.0
15696,44.0,0.0,60.0,2.0,0.0
15697,44.0,0.0,60.0,14.0,0.0
15698,49.0,0.0,60.0,2.0,0.0
15699,59.0,0.0,90.0,12.0,0.0
15700,49.0,48.0,60.0,14.0,0.0
15701,59.0,0.0,90.0,0.0,0.0
15702,73.0,0.0,90.0,0.0,0.0
15703,73.0,0.0,90.0,11.0,0.0
15704,53.0,96.0,60.0,14.0,0.0
15705,53.0,0.0,60.0,2.0,0.0
15706,42.0,0.0,90.0,15.0,0.0
15707,78.0,0.0,60.0,11.0,0.0
15708,78.0,48.0,60.0,0.0,0.0
15709,90.0,0.0,60.0,11.0,0.0
15710,54.0,0.0,180.0,12.0,0.0
15711,46.0,0.0,180.0,14.0,0.0
15712,90.0,48.0,60.0,0.0,0.0
15713,85.0,48.0,60.0,11.0,0.0
15714,85.0,0.0,60.0,0.0,0.0
15715,82.0,48.0,60.0,0.0,0.0
15716,82.0,0.0,60.0,11.0,0.0
15717,78.0,48.0,60.0,0.0,0.0
15718,78.0,0.0,60.0,11.0,0.0
15719,77.0,0.0,60.0,11.0,0.0
15720,56.0,0.0,150.0,12.0,0.0
15721,49.0,48.0,150.0,14.0,0.0
15722,77.0,48.0,60.0,0.0,0.0
15723,73.0,0.0,60.0,0.0,0.0
15724,73.0,48.0,60.0,11.0,0.0
15725,71.0,0.0,60.0,11.0,0.0
15726,71.0,0.0,60.0,0.0,0.0
15727,68.0,48.0,60.0,0.0,0.0
15728,68.0,0.0,60.0,11.0,0.0
15729,58.0,0.0,180.0,12.0,0.0
15730,66.0,0.0,60.0,11.0,0.0
15731,54.0,48.0,180.0,14.0,0.0
15732,66.0,0.0,60.0,13.0,0.0
15733,66.0,48.0,60.0,0.0,0.0
15734,61.0,0.0,60.0,11.0,0.0
15735,61.0,48.0,60.0,13.0,0.0
15736,61.0,0.0,60.0,0.0,0.0
15737,58.0,0.0,60.0,11.0,0.0
15738,58.0,48.0,60.0,13.0,0.0
15739,58.0,0.0,60.0,0.0,0.0
15740,54.0,0.0,60.0,11.0,0.0
15741,54.0,0.0,60.0,13.0,0.0
15742,54.0,0.0,60.0,0.0,0.0
15743,51.0,0.0,60.0,13.0,0.0
15744,47.0,0.0,90.0,14.0,0.0
15745,51.0,0.0,60.0,2.0,0.0
15746,59.0,48.0,90.0,12.0,0.0
15747,51.0,48.0,60.0,11.0,0.0
15748,54.0,0.0,60.0,2.0,0.0
15749,54.0,0.0,60.0,11.0,0.0
15750,54.0,0.0,60.0,13.0,0.0
15751,37.0,48.0,60.0,2.0,0.0
15752,37.0,0.0,60.0,14.0,0.0
15753,49.0,0.0,60.0,14.0,0.0
15754,49.0,48.0,60.0,2.0,0.0
15755,61.0,0.0,60.0,14.0,0.0
15756,70.0,0.0,180.0,11.0,0.0
15757,66.0,0.0,180.0,12.0,0.0
15758,61.0,48.0,60.0,2.0,0.0
15759,70.0,0.0,180.0,0.0,0.0
15760,58.0,48.0,60.0,14.0,0.0
15761,58.0,0.0,60.0,2.0,0.0
15762,54.0,0.0,60.0,14.0,0.0
15763,54.0,48.0,60.0,2.0,0.0
15764,49.0,48.0,60.0,14.0,0.0
15765,49.0,0.0,60.0,2.0,0.0
15766,68.0,0.0,150.0,0.0,0.0
15767,68.0,48.0,150.0,11.0,0.0
15768,47.0,48.0,60.0,2.0,0.0
15769,65.0,0.0,150.0,12.0,0.0
15770,47.0,0.0,60.0,14.0,0.0
15771,44.0,0.0,60.0,14.0,0.0
15772,44.0,48.0,60.0,2.0,0.0
15773,41.0,0.0,60.0,15.0,0.0
15774,41.0,0.0,60.0,2.0,0.0
15775,37.0,48.0,60.0,15.0,0.0
15776,37.0,0.0,60.0,2.0,0.0
15777,25.0,48.0,60.0,15.0,0.0
15778,70.0,0.0,180.0,0.0,0.0
15779,66.0,0.0,180.0,12.0,0.0
15780,70.0,48.0,180.0,11.0,0.0
15781,37.0,48.0,60.0,15.0,0.0
15782,42.0,0.0,60.0,14.0,0.0
15783,42.0,48.0,60.0,2.0,0.0
15784,46.0,0.0,60.0,14.0,0.0
15785,46.0,0.0,60.0,2.0,0.0
15786,68.0,0.0,90.0,12.0,0.0
15787,49.0,0.0,60.0,2.0,0.0
15788,49.0,48.0,60.0,14.0,0.0
15789,71.0,96.0,90.0,11.0,0.0
15790,71.0,0.0,90.0,0.0,0.0
15791,53.0,0.0,60.0,2.0,0.0
15792,53.0,0.0,60.0,14.0,0.0
15793,42.0,0.0,90.0,15.0,0.0
15794,82.0,0.0,60.0,0.0,0.0
15795,82.0,48.0,60.0,11.0,0.0
15796,94.0,0.0,60.0,11.0,0.0
15797,54.0,0.0,180.0,14.0,0.0
15798,58.0,0.0,180.0,12.0,0.0
15799,94.0,48.0,60.0,0.0,0.0
15800,90.0,0.0,60.0,11.0,0.0
15801,90.0,48.0,60.0,0.0,0.0
15802,85.0,48.0,60.0,11.0,0.0
15803,85.0,0.0,60.0,0.0,0.0
15804,82.0,48.0,60.0,0.0,0.0
15805,82.0,0.0,60.0,11.0,0.0
15806,80.0,48.0,60.0,11.0,0.0
15807,53.0,0.0,150.0,14.0,0.0
15808,80.0,0.0,60.0,0.0,0.0
15809,59.0,0.0,150.0,12.0,0.0
15810,77.0,0.0,60.0,0.0,0.0
15811,77.0,48.0,60.0,11.0,0.0
15812,73.0,0.0,60.0,0.0,0.0
15813,73.0,48.0,60.0,11.0,0.0
15814,71.0,0.0,60.0,0.0,0.0
15815,71.0,48.0,60.0,11.0,0.0
15816,70.0,48.0,60.0,11.0,0.0
15817,52.0,48.0,180.0,14.0,0.0
15818,70.0,0.0,60.0,0.0,0.0
15819,61.0,0.0,180.0,12.0,0.0
15820,66.0,0.0,60.0,11.0,0.0
15821,66.0,48.0,60.0,0.0,0.0
15822,61.0,48.0,60.0,11.0,0.0
15823,61.0,0.0,60.0,0.0,0.0
15824,58.0,0.0,60.0,11.0,0.0
15825,58.0,0.0,60.0,0.0,0.0
15826,54.0,48.0,60.0,2.0,0.0
15827,51.0,0.0,90.0,14.0,0.0
15828,63.0,0.0,90.0,12.0,0.0
15829,54.0,0.0,60.0,11.0,0.0
15830,59.0,48.0,60.0,11.0,0.0
15831,59.0,0.0,60.0,2.0,0.0
15832,49.0,48.0,60.0,2.0,0.0
15833,49.0,0.0,60.0,13.0,0.0
15834,54.0,48.0,60.0,13.0,0.0
15835,54.0,0.0,60.0,2.0,0.0
15836,73.0,0.0,180.0,11.0,0.0
15837,70.0,48.0,180.0,12.0,0.0
15838,70.0,0.0,180.0,0.0,0.0
15839,73.0,0.0,180.0,0.0,0.0
15840,66.0,0.0,60.0,2.0,0.0
15841,66.0,48.0,60.0,13.0,0.0
15842,61.0,48.0,60.0,2.0,0.0
15843,61.0,0.0,60.0,13.0,0.0
15844,58.0,48.0,60.0,13.0,0.0
15845,58.0,0.0,60.0,2.0,0.0
15846,54.0,0.0,60.0,2.0,0.0
15847,54.0,0.0,60.0,13.0,0.0
15848,49.0,0.0,60.0,13.0,0.0
15849,49.0,0.0,60.0,14.0,0.0
15850,66.0,0.0,150.0,0.0,0.0
15851,49.0,0.0,60.0,2.0,0.0
15852,70.0,48.0,150.0,11.0,0.0
15853,66.0,0.0,150.0,12.0,0.0
15854,70.0,0.0,150.0,0.0,0.0
15855,46.0,0.0,60.0,14.0,0.0
15856,46.0,48.0,60.0,2.0,0.0
15857,42.0,0.0,60.0,2.0,0.0
15858,42.0,0.0,60.0,14.0,0.0
15859,37.0,0.0,60.0,2.0,0.0
15860,37.0,48.0,60.0,14.0,0.0
15861,65.0,0.0,180.0,12.0,0.0
15862,68.0,0.0,180.0,0.0,0.0
15863,68.0,48.0,180.0,11.0,0.0
15864,25.0,48.0,60.0,15.0,0.0
15865,65.0,0.0,180.0,0.0,0.0
15866,37.0,48.0,60.0,15.0,0.0
15867,41.0,0.0,60.0,2.0,0.0
15868,41.0,48.0,60.0,14.0,0.0
15869,44.0,0.0,60.0,2.0,0.0
15870,44.0,0.0,60.0,14.0,0.0
15871,59.0,0.0,90.0,12.0,0.0
15872,49.0,48.0,60.0,14.0,0.0
15873,73.0,0.0,90.0,0.0,0.0
15874,73.0,96.0,90.0,11.0,0.0
15875,53.0,0.0,60.0,14.0,0.0
15876,37.0,0.0,90.0,15.0,0.0
15877,73.0,0.0,60.0,0.0,0.0
15878,73.0,48.0,60.0,11.0,0.0
15879,85.0,0.0,60.0,0.0,0.0
15880,85.0,48.0,60.0,11.0,0.0
15881,56.0,0.0,180.0,12.0,0.0
15882,49.0,0.0,180.0,14.0,0.0
15883,83.0,0.0,60.0,0.0,0.0
15884,83.0,48.0,60.0,11.0,0.0
15885,77.0,48.0,60.0,0.0,0.0
15886,77.0,0.0,60.0,11.0,0.0
15887,73.0,0.0,60.0,11.0,0.0
15888,73.0,48.0,60.0,0.0,0.0
15889,57.0,48.0,150.0,12.0,0.0
15890,69.0,48.0,60.0,11.0,0.0
15891,54.0,0.0,150.0,14.0,0.0
15892,69.0,0.0,60.0,0.0,0.0
15893,66.0,48.0,60.0,0.0,0.0
15894,66.0,0.0,60.0,11.0,0.0
15895,61.0,0.0,60.0,11.0,0.0
15896,61.0,0.0,60.0,0.0,0.0
15897,57.0,0.0,60.0,11.0,0.0
15898,57.0,48.0,60.0,0.0,0.0
15899,57.0,0.0,180.0,13.0,0.0
15900,61.0,0.0,180.0,12.0,0.0
15901,54.0,48.0,60.0,2.0,0.0
15902,54.0,0.0,60.0,14.0,0.0
15903,49.0,48.0,60.0,14.0,0.0
15904,49.0,0.0,60.0,2.0,0.0
15905,45.0,48.0,60.0,14.0,0.0
15906,45.0,0.0,60.0,2.0,0.0
15907,42.0,48.0,60.0,2.0,0.0
15908,42.0,0.0,60.0,14.0,0.0
15909,56.0,0.0,90.0,13.0,0.0
15910,41.0,0.0,60.0,14.0,0.0
15911,41.0,48.0,60.0,2.0,0.0
15912,59.0,0.0,90.0,12.0,0.0
15913,49.0,0.0,60.0,2.0,0.0
15914,49.0,48.0,60.0,14.0,0.0
15915,40.0,0.0,60.0,2.0,0.0
15916,40.0,48.0,60.0,14.0,0.0
15917,52.0,0.0,60.0,14.0,0.0
15918,52.0,48.0,60.0,2.0,0.0
15919,64.0,0.0,60.0,13.0,0.0
15920,80.0,48.0,180.0,11.0,0.0
15921,71.0,0.0,180.0,12.0,0.0
15922,64.0,48.0,60.0,2.0,0.0
15923,80.0,0.0,180.0,0.0,0.0
15924,62.0,48.0,60.0,13.0,0.0
15925,62.0,0.0,60.0,2.0,0.0
15926,59.0,0.0,60.0,2.0,0.0
15927,59.0,48.0,60.0,13.0,0.0
15928,56.0,0.0,60.0,13.0,0.0
15929,56.0,0.0,60.0,2.0,0.0
15930,52.0,0.0,60.0,13.0,0.0
15931,52.0,48.0,60.0,2.0,0.0
15932,81.0,0.0,150.0,0.0,0.0
15933,73.0,0.0,390.0,12.0,0.0
15934,81.0,0.0,150.0,11.0,0.0
15935,49.0,0.0,60.0,2.0,0.0
15936,49.0,48.0,60.0,13.0,0.0
15937,45.0,48.0,60.0,2.0,0.0
15938,45.0,0.0,60.0,14.0,0.0
15939,40.0,0.0,60.0,14.0,0.0
15940,41.0,48.0,60.0,2.0,0.0
15941,85.0,48.0,180.0,11.0,0.0
15942,78.0,96.0,300.0,12.0,0.0
15943,85.0,0.0,180.0,0.0,0.0
15944,38.0,48.0,60.0,14.0,0.0
15945,38.0,0.0,60.0,2.0,0.0
15946,50.0,48.0,60.0,14.0,0.0
15947,50.0,0.0,60.0,2.0,0.0
15948,50.0,0.0,60.0,13.0,0.0
15949,54.0,0.0,60.0,13.0,0.0
15950,54.0,48.0,60.0,2.0,0.0
15951,57.0,0.0,60.0,13.0,0.0
15952,57.0,0.0,60.0,2.0,0.0
15953,84.0,0.0,90.0,0.0,0.0
15954,84.0,0.0,90.0,11.0,0.0
15955,56.0,48.0,60.0,2.0,0.0
15956,72.0,0.0,90.0,12.0,0.0
15957,56.0,0.0,60.0,13.0,0.0
15958,44.0,0.0,60.0,2.0,0.0
15959,44.0,0.0,60.0,13.0,0.0
15960,37.0,0.0,90.0,14.0,0.0
15961,85.0,0.0,60.0,0.0,0.0
15962,85.0,48.0,60.0,11.0,0.0
15963,49.0,0.0,180.0,14.0,0.0
15964,58.0,0.0,180.0,13.0,0.0
15965,97.0,48.0,60.0,11.0,0.0
15966,97.0,0.0,60.0,0.0,0.0
15967,61.0,0.0,180.0,12.0,0.0
15968,94.0,48.0,60.0,11.0,0.0
15969,94.0,0.0,60.0,0.0,0.0
15970,90.0,0.0,60.0,11.0,0.0
15971,90.0,48.0,60.0,0.0,0.0
15972,85.0,48.0,60.0,11.0,0.0
15973,85.0,0.0,60.0,0.0,0.0
15974,84.0,48.0,60.0,11.0,0.0
15975,84.0,0.0,60.0,0.0,0.0
15976,63.0,0.0,150.0,12.0,0.0
15977,57.0,0.0,150.0,14.0,0.0
15978,78.0,48.0,60.0,0.0,0.0
15979,78.0,0.0,60.0,11.0,0.0
15980,75.0,48.0,60.0,0.0,0.0
15981,75.0,0.0,60.0,11.0,0.0
15982,72.0,0.0,60.0,11.0,0.0
15983,72.0,48.0,60.0,0.0,0.0
15984,71.0,48.0,60.0,11.0,0.0
15985,71.0,0.0,60.0,0.0,0.0
15986,65.0,0.0,180.0,12.0,0.0
15987,56.0,48.0,180.0,14.0,0.0
15988,68.0,0.0,60.0,0.0,0.0
15989,68.0,48.0,60.0,11.0,0.0
15990,62.0,48.0,60.0,11.0,0.0
15991,62.0,0.0,60.0,0.0,0.0
15992,59.0,0.0,60.0,0.0,0.0
15993,59.0,0.0,60.0,11.0,0.0
15994,58.0,48.0,60.0,11.0,0.0
15995,66.0,0.0,90.0,12.0,0.0
15996,58.0,0.0,60.0,0.0,0.0
15997,54.0,48.0,90.0,14.0,0.0
15998,61.0,0.0,60.0,11.0,0.0
15999,61.0,0.0,60.0,0.0,0.0
16000,35.0,48.0,60.0,2.0,0.0
16001,47.0,0.0,60.0,13.0,0.0
16002,54.0,48.0,60.0,13.0,0.0
16003,42.0,0.0,60.0,2.0,0.0
16004,87.0,0.0,180.0,0.0,0.0
16005,54.0,48.0,60.0,2.0,0.0
16006,66.0,0.0,60.0,13.0,0.0
16007,87.0,0.0,180.0,11.0,0.0
16008,75.0,0.0,180.0,12.0,0.0
16009,78.0,0.0,180.0,12.0,0.0
16010,51.0,0.0,60.0,2.0,0.0
16011,63.0,48.0,60.0,13.0,0.0
16012,59.0,48.0,60.0,13.0,0.0
16013,47.0,0.0,60.0,2.0,0.0
16014,44.0,48.0,60.0,2.0,0.0
16015,56.0,0.0,60.0,13.0,0.0
16016,83.0,0.0,150.0,11.0,0.0
16017,51.0,0.0,60.0,14.0,0.0
16018,83.0,0.0,150.0,0.0,0.0
16019,63.0,0.0,60.0,2.0,0.0
16020,75.0,48.0,150.0,12.0,0.0
16021,51.0,48.0,60.0,2.0,0.0
16022,47.0,0.0,60.0,14.0,0.0
16023,47.0,0.0,60.0,2.0,0.0
16024,59.0,48.0,60.0,2.0,0.0
16025,56.0,0.0,60.0,2.0,0.0
16026,44.0,0.0,60.0,14.0,0.0
16027,44.0,0.0,60.0,2.0,0.0
16028,37.0,48.0,60.0,14.0,0.0
16029,49.0,0.0,60.0,2.0,0.0
16030,37.0,0.0,60.0,2.0,0.0
16031,77.0,0.0,180.0,0.0,0.0
16032,77.0,0.0,180.0,11.0,0.0
16033,30.0,48.0,60.0,15.0,0.0
16034,71.0,48.0,180.0,12.0,0.0
16035,42.0,48.0,60.0,15.0,0.0
16036,46.0,0.0,60.0,14.0,0.0
16037,58.0,48.0,60.0,2.0,0.0
16038,46.0,0.0,60.0,2.0,0.0
16039,49.0,0.0,60.0,14.0,0.0
16040,49.0,0.0,60.0,2.0,0.0
16041,61.0,0.0,60.0,2.0,0.0
16042,54.0,0.0,60.0,2.0,0.0
16043,66.0,48.0,60.0,2.0,0.0
16044,54.0,0.0,60.0,14.0,0.0
16045,78.0,0.0,90.0,0.0,0.0
16046,78.0,0.0,90.0,11.0,0.0
16047,70.0,0.0,90.0,12.0,0.0
16048,70.0,0.0,60.0,2.0,0.0
16049,58.0,96.0,60.0,14.0,0.0
16050,58.0,0.0,60.0,2.0,0.0
16051,37.0,48.0,90.0,15.0,0.0
16052,73.0,0.0,60.0,11.0,0.0
16053,73.0,0.0,60.0,0.0,0.0
16054,56.0,0.0,180.0,12.0,0.0
16055,85.0,0.0,60.0,0.0,0.0
16056,49.0,48.0,180.0,14.0,0.0
16057,85.0,48.0,60.0,11.0,0.0
16058,83.0,48.0,60.0,0.0,0.0
16059,83.0,0.0,60.0,11.0,0.0
16060,77.0,0.0,60.0,11.0,0.0
16061,77.0,48.0,60.0,0.0,0.0
16062,73.0,0.0,60.0,11.0,0.0
16063,73.0,0.0,60.0,0.0,0.0
16064,69.0,48.0,60.0,0.0,0.0
16065,69.0,0.0,60.0,11.0,0.0
16066,54.0,0.0,150.0,14.0,0.0
16067,57.0,0.0,150.0,12.0,0.0
16068,66.0,48.0,60.0,0.0,0.0
16069,66.0,0.0,60.0,11.0,0.0
16070,61.0,48.0,60.0,11.0,0.0
16071,61.0,0.0,60.0,0.0,0.0
16072,57.0,0.0,60.0,0.0,0.0
16073,57.0,48.0,60.0,11.0,0.0
16074,57.0,0.0,180.0,13.0,0.0
16075,54.0,0.0,60.0,14.0,0.0
16076,54.0,48.0,60.0,2.0,0.0
16077,61.0,0.0,180.0,12.0,0.0
16078,49.0,0.0,60.0,14.0,0.0
16079,49.0,48.0,60.0,2.0,0.0
16080,45.0,0.0,60.0,2.0,0.0
16081,45.0,48.0,60.0,14.0,0.0
16082,42.0,48.0,60.0,14.0,0.0
16083,42.0,0.0,60.0,2.0,0.0
16084,59.0,0.0,90.0,12.0,0.0
16085,41.0,48.0,60.0,2.0,0.0
16086,56.0,0.0,90.0,13.0,0.0
16087,41.0,0.0,60.0,14.0,0.0
16088,49.0,0.0,60.0,14.0,0.0
16089,49.0,48.0,60.0,2.0,0.0
16090,40.0,48.0,60.0,14.0,0.0
16091,40.0,0.0,60.0,2.0,0.0
16092,52.0,48.0,60.0,2.0,0.0
16093,52.0,0.0,60.0,14.0,0.0
16094,64.0,0.0,60.0,13.0,0.0
16095,71.0,48.0,180.0,12.0,0.0
16096,64.0,48.0,60.0,2.0,0.0
16097,80.0,0.0,180.0,11.0,0.0
16098,80.0,0.0,180.0,0.0,0.0
16099,62.0,0.0,60.0,13.0,0.0
16100,62.0,48.0,60.0,2.0,0.0
16101,59.0,0.0,60.0,2.0,0.0
16102,59.0,48.0,60.0,13.0,0.0
16103,56.0,0.0,60.0,2.0,0.0
16104,56.0,0.0,60.0,13.0,0.0
16105,52.0,0.0,60.0,13.0,0.0
16106,52.0,48.0,60.0,2.0,0.0
16107,81.0,0.0,150.0,11.0,0.0
16108,81.0,0.0,150.0,0.0,0.0
16109,73.0,0.0,390.0,12.0,0.0
16110,49.0,0.0,60.0,13.0,0.0
16111,49.0,48.0,60.0,2.0,0.0
16112,45.0,48.0,60.0,2.0,0.0
16113,45.0,0.0,60.0,14.0,0.0
16114,41.0,0.0,60.0,2.0,0.0
16115,40.0,48.0,60.0,14.0,0.0
16116,38.0,0.0,60.0,14.0,0.0
16117,38.0,48.0,60.0,2.0,0.0
16118,78.0,0.0,300.0,12.0,0.0
16119,85.0,0.0,180.0,0.0,0.0
16120,85.0,0.0,180.0,11.0,0.0
16121,50.0,0.0,60.0,2.0,0.0
16122,50.0,0.0,60.0,14.0,0.0
16123,50.0,48.0,60.0,13.0,0.0
16124,54.0,0.0,60.0,2.0,0.0
16125,54.0,48.0,60.0,13.0,0.0
16126,57.0,0.0,60.0,13.0,0.0
16127,57.0,48.0,60.0,2.0,0.0
16128,56.0,0.0,60.0,13.0,0.0
16129,84.0,96.0,90.0,0.0,0.0
16130,72.0,0.0,90.0,12.0,0.0
16131,84.0,0.0,90.0,11.0,0.0
16132,56.0,48.0,60.0,2.0,0.0
16133,44.0,0.0,60.0,13.0,0.0
16134,44.0,0.0,60.0,2.0,0.0
16135,37.0,0.0,90.0,14.0,0.0
16136,85.0,0.0,60.0,0.0,0.0
16137,85.0,48.0,60.0,11.0,0.0
16138,49.0,0.0,180.0,14.0,0.0
16139,97.0,0.0,60.0,0.0,0.0
16140,58.0,0.0,180.0,13.0,0.0
16141,61.0,0.0,180.0,12.0,0.0
16142,97.0,48.0,60.0,11.0,0.0
16143,94.0,0.0,60.0,0.0,0.0
16144,94.0,48.0,60.0,11.0,0.0
16145,90.0,48.0,60.0,0.0,0.0
16146,90.0,0.0,60.0,11.0,0.0
16147,85.0,0.0,60.0,11.0,0.0
16148,85.0,48.0,60.0,0.0,0.0
16149,63.0,48.0,150.0,12.0,0.0
16150,84.0,48.0,60.0,11.0,0.0
16151,57.0,0.0,150.0,14.0,0.0
16152,84.0,0.0,60.0,0.0,0.0
16153,78.0,0.0,60.0,0.0,0.0
16154,78.0,48.0,60.0,11.0,0.0
16155,75.0,0.0,60.0,11.0,0.0
16156,75.0,0.0,60.0,0.0,0.0
16157,72.0,0.0,60.0,0.0,0.0
16158,72.0,48.0,60.0,11.0,0.0
16159,71.0,0.0,60.0,11.0,0.0
16160,56.0,0.0,180.0,14.0,0.0
16161,65.0,0.0,180.0,12.0,0.0
16162,71.0,48.0,60.0,0.0,0.0
16163,68.0,48.0,60.0,11.0,0.0
16164,68.0,0.0,60.0,0.0,0.0
16165,62.0,0.0,60.0,11.0,0.0
16166,62.0,48.0,60.0,0.0,0.0
16167,59.0,0.0,60.0,11.0,0.0
16168,59.0,48.0,60.0,0.0,0.0
16169,58.0,0.0,60.0,0.0,0.0
16170,58.0,48.0,60.0,11.0,0.0
16171,54.0,0.0,90.0,14.0,0.0
16172,66.0,0.0,90.0,12.0,0.0
16173,61.0,48.0,60.0,11.0,0.0
16174,61.0,0.0,60.0,0.0,0.0
16175,35.0,0.0,60.0,2.0,0.0
16176,47.0,48.0,60.0,13.0,0.0
16177,42.0,0.0,60.0,2.0,0.0
16178,54.0,48.0,60.0,13.0,0.0
16179,78.0,0.0,180.0,12.0,0.0
16180,87.0,0.0,180.0,0.0,0.0
16181,54.0,0.0,60.0,2.0,0.0
16182,66.0,48.0,60.0,13.0,0.0
16183,87.0,0.0,180.0,11.0,0.0
16184,51.0,0.0,60.0,2.0,0.0
16185,63.0,48.0,60.0,13.0,0.0
16186,47.0,48.0,60.0,2.0,0.0
16187,59.0,0.0,60.0,13.0,0.0
16188,44.0,0.0,60.0,2.0,0.0
16189,56.0,0.0,60.0,13.0,0.0
16190,83.0,0.0,150.0,11.0,0.0
16191,51.0,0.0,60.0,2.0,0.0
16192,83.0,0.0,150.0,0.0,0.0
16193,63.0,48.0,60.0,2.0,0.0
16194,75.0,48.0,15.0,12.0,0.0
16195,51.0,0.0,60.0,14.0,0.0
16196,47.0,0.0,60.0,14.0,0.0
16197,59.0,0.0,60.0,2.0,0.0
16198,47.0,48.0,60.0,2.0,0.0
16199,56.0,0.0,60.0,2.0,0.0
16200,44.0,0.0,60.0,14.0,0.0
16201,44.0,48.0,60.0,2.0,0.0
16202,37.0,48.0,60.0,2.0,0.0
16203,37.0,0.0,60.0,14.0,0.0
16204,49.0,0.0,60.0,2.0,0.0
16205,30.0,48.0,60.0,15.0,0.0
16206,71.0,0.0,180.0,12.0,0.0
16207,77.0,0.0,180.0,0.0,0.0
16208,77.0,0.0,180.0,11.0,0.0
16209,42.0,48.0,60.0,15.0,0.0
16210,46.0,0.0,60.0,2.0,0.0
16211,46.0,0.0,60.0,14.0,0.0
16212,58.0,48.0,60.0,2.0,0.0
16213,49.0,48.0,60.0,2.0,0.0
16214,61.0,0.0,60.0,2.0,0.0
16215,49.0,0.0,60.0,14.0,0.0
16216,78.0,0.0,90.0,11.0,0.0
16217,70.0,120.0,90.0,12.0,0.0
16218,78.0,0.0,90.0,0.0,0.0
16219,66.0,0.0,60.0,2.0,0.0
16220,54.0,48.0,60.0,14.0,0.0
16221,54.0,0.0,60.0,2.0,0.0
16222,58.0,0.0,60.0,2.0,0.0
16223,58.0,0.0,60.0,14.0,0.0
16224,70.0,0.0,60.0,2.0,0.0
16225,37.0,0.0,180.0,3.0,0.0
16226,49.0,0.0,180.0,3.0,0.0
16227,30.0,96.0,180.0,3.0,0.0
16228,58.0,0.0,20.0,12.0,0.0
16229,49.0,0.0,180.0,13.0,0.0
16230,58.0,24.0,20.0,2.0,0.0
16231,46.0,0.0,20.0,2.0,0.0
16232,59.0,96.0,20.0,2.0,0.0
16233,47.0,0.0,20.0,2.0,0.0
16234,59.0,0.0,20.0,12.0,0.0
16235,46.0,0.0,90.0,2.0,0.0
16236,58.0,0.0,90.0,12.0,0.0
16237,58.0,48.0,90.0,2.0,0.0
16238,44.0,0.0,60.0,2.0,0.0
16239,56.0,0.0,60.0,12.0,0.0
16240,56.0,0.0,60.0,2.0,0.0
16241,61.0,0.0,15.0,11.0,0.0
16242,49.0,0.0,90.0,13.0,0.0
16243,58.0,0.0,90.0,2.0,0.0
16244,46.0,0.0,90.0,2.0,0.0
16245,58.0,192.0,90.0,12.0,0.0
16246,37.0,0.0,90.0,3.0,0.0
16247,42.0,0.0,15.0,14.0,0.0
16248,30.0,0.0,90.0,3.0,0.0
16249,53.0,0.0,180.0,12.0,0.0
16250,44.0,0.0,180.0,14.0,0.0
16251,47.0,0.0,180.0,13.0,0.0
16252,49.0,0.0,15.0,3.0,0.0
16253,32.0,96.0,180.0,3.0,0.0
16254,53.0,0.0,180.0,2.0,0.0
16255,35.0,0.0,180.0,3.0,0.0
16256,41.0,0.0,15.0,2.0,0.0
16257,44.0,0.0,90.0,14.0,0.0
16258,53.0,0.0,90.0,2.0,0.0
16259,53.0,0.0,90.0,12.0,0.0
16260,49.0,0.0,15.0,3.0,0.0
16261,61.0,0.0,15.0,11.0,0.0
16262,35.0,0.0,90.0,3.0,0.0
16263,47.0,0.0,90.0,13.0,0.0
16264,32.0,0.0,90.0,3.0,0.0
16265,49.0,0.0,15.0,3.0,0.0
16266,54.0,24.0,20.0,2.0,0.0
16267,46.0,0.0,180.0,14.0,0.0
16268,54.0,0.0,20.0,12.0,0.0
16269,37.0,0.0,180.0,3.0,0.0
16270,42.0,0.0,20.0,2.0,0.0
16271,44.0,96.0,20.0,2.0,0.0
16272,56.0,0.0,20.0,12.0,0.0
16273,56.0,0.0,20.0,2.0,0.0
16274,42.0,0.0,90.0,2.0,0.0
16275,54.0,48.0,90.0,12.0,0.0
16276,54.0,0.0,90.0,2.0,0.0
16277,53.0,0.0,60.0,2.0,0.0
16278,41.0,0.0,60.0,2.0,0.0
16279,53.0,0.0,60.0,12.0,0.0
16280,42.0,0.0,90.0,2.0,0.0
16281,37.0,0.0,90.0,3.0,0.0
16282,49.0,0.0,90.0,3.0,0.0
16283,34.0,0.0,15.0,3.0,0.0
16284,49.0,0.0,15.0,13.0,0.0
16285,54.0,0.0,90.0,12.0,0.0
16286,46.0,0.0,90.0,14.0,0.0
16287,54.0,0.0,90.0,2.0,0.0
16288,61.0,96.0,15.0,11.0,0.0
16289,51.0,0.0,180.0,3.0,0.0
16290,58.0,0.0,180.0,12.0,0.0
16291,27.0,0.0,180.0,3.0,0.0
16292,63.0,0.0,15.0,11.0,0.0
16293,27.0,0.0,90.0,3.0,0.0
16294,42.0,0.0,15.0,3.0,0.0
16295,39.0,0.0,15.0,14.0,0.0
16296,58.0,0.0,90.0,12.0,0.0
16297,58.0,0.0,15.0,2.0,0.0
16298,54.0,0.0,15.0,13.0,0.0
16299,51.0,24.0,90.0,3.0,0.0
16300,46.0,96.0,15.0,2.0,0.0
16301,49.0,0.0,180.0,3.0,0.0
16302,42.0,0.0,180.0,14.0,0.0
16303,54.0,0.0,20.0,2.0,0.0
16304,54.0,0.0,20.0,12.0,0.0
16305,42.0,24.0,20.0,2.0,0.0
16306,34.0,0.0,180.0,3.0,0.0
16307,61.0,96.0,180.0,11.0,0.0
16308,56.0,0.0,20.0,12.0,0.0
16309,56.0,96.0,20.0,2.0,0.0
16310,44.0,0.0,20.0,2.0,0.0
16311,42.0,0.0,90.0,2.0,0.0
16312,54.0,48.0,90.0,12.0,0.0
16313,54.0,0.0,90.0,2.0,0.0
16314,41.0,0.0,60.0,2.0,0.0
16315,53.0,0.0,60.0,12.0,0.0
16316,53.0,0.0,60.0,2.0,0.0
16317,46.0,0.0,15.0,13.0,0.0
16318,54.0,0.0,90.0,12.0,0.0
16319,42.0,0.0,90.0,14.0,0.0
16320,30.0,0.0,15.0,3.0,0.0
16321,54.0,0.0,90.0,2.0,0.0
16322,42.0,0.0,90.0,2.0,0.0
16323,34.0,0.0,90.0,3.0,0.0
16324,49.0,0.0,90.0,3.0,0.0
16325,61.0,0.0,15.0,11.0,0.0
16326,25.0,0.0,180.0,3.0,0.0
16327,49.0,0.0,180.0,3.0,0.0
16328,37.0,0.0,180.0,14.0,0.0
16329,56.0,0.0,180.0,2.0,0.0
16330,44.0,96.0,180.0,2.0,0.0
16331,53.0,0.0,180.0,13.0,0.0
16332,53.0,0.0,90.0,13.0,0.0
16333,56.0,0.0,90.0,2.0,0.0
16334,49.0,0.0,90.0,14.0,0.0
16335,37.0,24.0,90.0,3.0,0.0
16336,61.0,0.0,15.0,11.0,0.0
16337,41.0,0.0,15.0,3.0,0.0
16338,56.0,0.0,15.0,12.0,0.0
16339,44.0,0.0,90.0,2.0,0.0
16340,42.0,0.0,150.0,3.0,0.0
16341,49.0,0.0,15.0,3.0,0.0
16342,46.0,24.0,20.0,2.0,0.0
16343,58.0,0.0,20.0,12.0,0.0
16344,42.0,0.0,180.0,14.0,0.0
16345,61.0,0.0,15.0,11.0,0.0
16346,58.0,0.0,20.0,2.0,0.0
16347,54.0,0.0,150.0,13.0,0.0
16348,59.0,0.0,20.0,12.0,0.0
16349,59.0,96.0,20.0,2.0,0.0
16350,47.0,0.0,20.0,2.0,0.0
16351,58.0,0.0,90.0,12.0,0.0
16352,46.0,0.0,90.0,2.0,0.0
16353,58.0,48.0,90.0,2.0,0.0
16354,44.0,0.0,60.0,2.0,0.0
16355,56.0,0.0,60.0,12.0,0.0
16356,49.0,0.0,60.0,13.0,0.0
16357,37.0,0.0,60.0,3.0,0.0
16358,56.0,0.0,60.0,2.0,0.0
16359,42.0,0.0,90.0,2.0,0.0
16360,61.0,0.0,15.0,11.0,0.0
16361,30.0,0.0,15.0,3.0,0.0
16362,46.0,0.0,90.0,13.0,0.0
16363,42.0,0.0,90.0,14.0,0.0
16364,54.0,0.0,90.0,12.0,0.0
16365,49.0,96.0,15.0,3.0,0.0
16366,34.0,0.0,90.0,3.0,0.0
16367,54.0,0.0,90.0,2.0,0.0
16368,56.0,0.0,180.0,12.0,0.0
16369,25.0,0.0,180.0,3.0,0.0
16370,61.0,0.0,15.0,11.0,0.0
16371,41.0,0.0,180.0,3.0,0.0
16372,49.0,192.0,15.0,3.0,0.0
16373,44.0,96.0,15.0,2.0,0.0
16374,56.0,0.0,15.0,2.0,0.0
16375,61.0,0.0,90.0,11.0,0.0
16376,56.0,0.0,90.0,12.0,0.0
16377,49.0,0.0,15.0,3.0,0.0
16378,37.0,0.0,15.0,14.0,0.0
16379,25.0,24.0,90.0,3.0,0.0
16380,53.0,0.0,15.0,13.0,0.0
16381,41.0,0.0,15.0,3.0,0.0
16382,61.0,0.0,20.0,2.0,0.0
16383,53.0,0.0,180.0,13.0,0.0
16384,34.0,0.0,180.0,3.0,0.0
16385,61.0,24.0,20.0,12.0,0.0
16386,49.0,0.0,20.0,2.0,0.0
16387,51.0,0.0,20.0,2.0,0.0
16388,63.0,0.0,20.0,2.0,0.0
16389,63.0,96.0,20.0,12.0,0.0
16390,49.0,48.0,90.0,2.0,0.0
16391,61.0,0.0,90.0,12.0,0.0
16392,61.0,0.0,90.0,2.0,0.0
16393,60.0,0.0,60.0,2.0,0.0
16394,60.0,0.0,60.0,12.0,0.0
16395,48.0,0.0,60.0,2.0,0.0
16396,49.0,0.0,90.0,2.0,0.0
16397,34.0,0.0,90.0,3.0,0.0
16398,61.0,0.0,90.0,2.0,0.0
16399,46.0,0.0,15.0,14.0,0.0
16400,41.0,0.0,15.0,3.0,0.0
16401,65.0,0.0,15.0,11.0,0.0
16402,61.0,0.0,90.0,12.0,0.0
16403,53.0,0.0,90.0,13.0,0.0
16404,53.0,96.0,15.0,3.0,0.0
16405,57.0,0.0,180.0,12.0,0.0
16406,51.0,0.0,180.0,13.0,0.0
16407,65.0,0.0,180.0,11.0,0.0
16408,48.0,0.0,180.0,14.0,0.0
16409,39.0,0.0,180.0,3.0,0.0
16410,57.0,0.0,180.0,2.0,0.0
16411,36.0,96.0,15.0,3.0,0.0
16412,51.0,0.0,90.0,13.0,0.0
16413,57.0,0.0,90.0,2.0,0.0
16414,57.0,0.0,90.0,12.0,0.0
16415,53.0,0.0,15.0,3.0,0.0
16416,45.0,0.0,15.0,2.0,0.0
16417,39.0,0.0,90.0,3.0,0.0
16418,48.0,0.0,90.0,14.0,0.0
16419,65.0,0.0,15.0,11.0,0.0
16420,58.0,24.0,20.0,2.0,0.0
16421,53.0,0.0,15.0,3.0,0.0
16422,58.0,0.0,20.0,12.0,0.0
16423,46.0,0.0,20.0,2.0,0.0
16424,60.0,0.0,20.0,12.0,0.0
16425,48.0,96.0,20.0,2.0,0.0
16426,60.0,0.0,20.0,2.0,0.0
16427,46.0,48.0,90.0,2.0,0.0
16428,58.0,0.0,90.0,12.0,0.0
16429,58.0,0.0,90.0,2.0,0.0
16430,57.0,96.0,60.0,2.0,0.0
16431,45.0,0.0,60.0,2.0,0.0
16432,57.0,0.0,60.0,12.0,0.0
16433,53.0,0.0,15.0,13.0,0.0
16434,49.0,0.0,15.0,14.0,0.0
16435,53.0,0.0,15.0,3.0,0.0
16436,41.0,0.0,15.0,3.0,0.0
16437,37.0,0.0,15.0,3.0,0.0
16438,46.0,0.0,90.0,2.0,0.0
16439,58.0,0.0,90.0,12.0,0.0
16440,65.0,0.0,15.0,11.0,0.0
16441,58.0,0.0,90.0,2.0,0.0
16442,66.0,0.0,180.0,11.0,0.0
16443,54.0,0.0,180.0,3.0,0.0
16444,58.0,0.0,180.0,13.0,0.0
16445,61.0,0.0,180.0,2.0,0.0
16446,30.0,0.0,15.0,3.0,0.0
16447,42.0,0.0,15.0,14.0,0.0
16448,49.0,0.0,15.0,2.0,0.0
16449,61.0,0.0,15.0,12.0,0.0
16450,46.0,96.0,15.0,3.0,0.0
16451,54.0,0.0,90.0,3.0,0.0
16452,58.0,0.0,90.0,13.0,0.0
16453,66.0,0.0,90.0,11.0,0.0
16454,61.0,24.0,90.0,2.0,0.0
16455,58.0,24.0,20.0,2.0,0.0
16456,58.0,0.0,20.0,12.0,0.0
16457,46.0,0.0,20.0,2.0,0.0
16458,65.0,0.0,180.0,11.0,0.0
16459,37.0,0.0,180.0,3.0,0.0
16460,49.0,0.0,180.0,13.0,0.0
16461,59.0,0.0,20.0,12.0,0.0
16462,47.0,0.0,20.0,2.0,0.0
16463,59.0,96.0,20.0,2.0,0.0
16464,58.0,0.0,90.0,2.0,0.0
16465,46.0,48.0,90.0,2.0,0.0
16466,58.0,0.0,90.0,12.0,0.0
16467,57.0,0.0,60.0,2.0,0.0
16468,57.0,0.0,60.0,12.0,0.0
16469,35.0,0.0,60.0,2.0,0.0
16470,46.0,0.0,90.0,2.0,0.0
16471,58.0,0.0,90.0,2.0,0.0
16472,46.0,0.0,15.0,14.0,0.0
16473,34.0,0.0,15.0,3.0,0.0
16474,49.0,0.0,90.0,13.0,0.0
16475,53.0,96.0,15.0,3.0,0.0
16476,58.0,0.0,90.0,12.0,0.0
16477,37.0,0.0,90.0,3.0,0.0
16478,61.0,0.0,180.0,2.0,0.0
16479,56.0,0.0,180.0,13.0,0.0
16480,65.0,192.0,15.0,11.0,0.0
16481,49.0,0.0,180.0,2.0,0.0
16482,61.0,0.0,15.0,12.0,0.0
16483,37.0,0.0,15.0,14.0,0.0
16484,65.0,0.0,90.0,11.0,0.0
16485,56.0,24.0,90.0,13.0,0.0
16486,53.0,0.0,15.0,3.0,0.0
16487,44.0,0.0,15.0,3.0,0.0
16488,25.0,96.0,15.0,3.0,0.0
16489,49.0,0.0,90.0,2.0,0.0
16490,61.0,0.0,90.0,2.0,0.0
16491,51.0,24.0,20.0,2.0,0.0
16492,32.0,0.0,180.0,3.0,0.0
16493,68.0,0.0,180.0,11.0,0.0
16494,63.0,0.0,20.0,2.0,0.0
16495,63.0,0.0,20.0,12.0,0.0
16496,60.0,0.0,180.0,13.0,0.0
16497,65.0,96.0,20.0,12.0,0.0
16498,53.0,0.0,20.0,2.0,0.0
16499,65.0,0.0,20.0,2.0,0.0
16500,51.0,0.0,90.0,2.0,0.0
16501,63.0,0.0,90.0,2.0,0.0
16502,63.0,48.0,90.0,12.0,0.0
16503,61.0,0.0,60.0,12.0,0.0
16504,61.0,0.0,60.0,2.0,0.0
16505,49.0,96.0,60.0,2.0,0.0
16506,63.0,0.0,90.0,2.0,0.0
16507,63.0,0.0,90.0,12.0,0.0
16508,56.0,0.0,15.0,3.0,0.0
16509,48.0,0.0,15.0,3.0,0.0
16510,44.0,0.0,15.0,14.0,0.0
16511,60.0,0.0,90.0,13.0,0.0
16512,51.0,0.0,90.0,2.0,0.0
16513,32.0,0.0,90.0,3.0,0.0
16514,37.0,0.0,300.0,3.0,0.0
16515,65.0,0.0,180.0,12.0,0.0
16516,53.0,0.0,180.0,2.0,0.0
16517,65.0,0.0,180.0,2.0,0.0
16518,49.0,0.0,180.0,3.0,0.0
16519,56.0,0.0,180.0,3.0,0.0
16520,49.0,0.0,300.0,14.0,0.0
16521,68.0,192.0,15.0,11.0,0.0
16522,61.0,96.0,15.0,13.0,0.0
16523,61.0,0.0,90.0,0.0,0.0
16524,73.0,0.0,90.0,11.0,0.0
16525,61.0,0.0,90.0,1.0,0.0
16526,61.0,24.0,90.0,12.0,0.0
16527,61.0,0.0,90.0,2.0,0.0
16528,61.0,0.0,15.0,13.0,0.0
16529,70.0,0.0,180.0,1.0,0.0
16530,54.0,96.0,180.0,14.0,0.0
16531,73.0,24.0,20.0,11.0,0.0
16532,70.0,0.0,180.0,2.0,0.0
16533,75.0,96.0,20.0,11.0,0.0
16534,73.0,48.0,90.0,11.0,0.0
16535,72.0,0.0,60.0,11.0,0.0
16536,70.0,0.0,15.0,12.0,0.0
16537,73.0,0.0,90.0,11.0,0.0
16538,70.0,0.0,15.0,0.0,0.0
16539,70.0,0.0,90.0,2.0,0.0
16540,70.0,192.0,90.0,1.0,0.0
16541,61.0,0.0,90.0,13.0,0.0
16542,54.0,0.0,90.0,14.0,0.0
16543,73.0,0.0,180.0,11.0,0.0
16544,65.0,0.0,180.0,0.0,0.0
16545,65.0,0.0,180.0,1.0,0.0
16546,59.0,0.0,180.0,13.0,0.0
16547,56.0,0.0,15.0,14.0,0.0
16548,65.0,0.0,90.0,0.0,0.0
16549,65.0,0.0,15.0,2.0,0.0
16550,65.0,0.0,90.0,1.0,0.0
16551,59.0,0.0,90.0,13.0,0.0
16552,65.0,96.0,15.0,12.0,0.0
16553,66.0,0.0,180.0,12.0,0.0
16554,66.0,0.0,180.0,2.0,0.0
16555,66.0,0.0,180.0,1.0,0.0
16556,73.0,0.0,15.0,11.0,0.0
16557,75.0,96.0,20.0,11.0,0.0
16558,73.0,48.0,90.0,11.0,0.0
16559,72.0,0.0,60.0,11.0,0.0
16560,73.0,0.0,90.0,11.0,0.0
16561,66.0,0.0,90.0,1.0,0.0
16562,61.0,0.0,15.0,13.0,0.0
16563,66.0,0.0,15.0,0.0,0.0
16564,66.0,0.0,90.0,2.0,0.0
16565,66.0,0.0,90.0,12.0,0.0
16566,58.0,96.0,15.0,14.0,0.0
16567,75.0,0.0,180.0,11.0,0.0
16568,70.0,0.0,180.0,12.0,0.0
16569,66.0,0.0,180.0,13.0,0.0
16570,70.0,0.0,180.0,1.0,0.0
16571,51.0,0.0,180.0,14.0,0.0
16572,70.0,0.0,15.0,2.0,0.0
16573,51.0,0.0,90.0,14.0,0.0
16574,70.0,96.0,15.0,0.0,0.0
16575,70.0,0.0,90.0,1.0,0.0
16576,75.0,0.0,90.0,11.0,0.0
16577,70.0,0.0,90.0,12.0,0.0
16578,73.0,24.0,20.0,11.0,0.0
16579,66.0,0.0,180.0,2.0,0.0
16580,66.0,0.0,15.0,13.0,0.0
16581,75.0,96.0,20.0,11.0,0.0
16582,73.0,48.0,90.0,11.0,0.0
16583,72.0,0.0,60.0,11.0,0.0
16584,66.0,0.0,15.0,12.0,0.0
16585,66.0,0.0,15.0,13.0,0.0
16586,66.0,0.0,15.0,0.0,0.0
16587,66.0,96.0,15.0,1.0,0.0
16588,54.0,0.0,15.0,14.0,0.0
16589,66.0,0.0,90.0,2.0,0.0
16590,73.0,0.0,15.0,11.0,0.0
16591,49.0,0.0,180.0,14.0,0.0
16592,68.0,0.0,180.0,2.0,0.0
16593,68.0,0.0,180.0,12.0,0.0
16594,61.0,0.0,90.0,14.0,0.0
16595,68.0,0.0,90.0,12.0,0.0
16596,68.0,0.0,15.0,1.0,0.0
16597,65.0,96.0,15.0,13.0,0.0
16598,68.0,0.0,15.0,0.0,0.0
16599,68.0,0.0,90.0,2.0,0.0
16600,70.0,0.0,150.0,2.0,0.0
16601,70.0,0.0,150.0,12.0,0.0
16602,70.0,48.0,150.0,1.0,0.0
16603,54.0,0.0,180.0,14.0,0.0
16604,73.0,0.0,15.0,11.0,0.0
16605,66.0,0.0,150.0,13.0,0.0
16606,70.0,0.0,150.0,0.0,0.0
16607,75.0,96.0,20.0,11.0,0.0
16608,73.0,0.0,150.0,11.0,0.0
16609,68.0,0.0,60.0,0.0,0.0
16610,68.0,96.0,60.0,1.0,0.0
16611,68.0,0.0,60.0,12.0,0.0
16612,61.0,0.0,60.0,13.0,0.0
16613,68.0,0.0,60.0,2.0,0.0
16614,73.0,0.0,90.0,11.0,0.0
16615,66.0,192.0,90.0,12.0,0.0
16616,66.0,0.0,90.0,0.0,0.0
16617,54.0,0.0,90.0,14.0,0.0
16618,58.0,0.0,90.0,13.0,0.0
16619,66.0,0.0,90.0,1.0,0.0
16620,66.0,0.0,90.0,2.0,0.0
16621,68.0,0.0,180.0,1.0,0.0
16622,68.0,0.0,180.0,12.0,0.0
16623,65.0,0.0,180.0,13.0,0.0
16624,49.0,0.0,15.0,14.0,0.0
16625,68.0,0.0,90.0,1.0,0.0
16626,68.0,0.0,15.0,0.0,0.0
16627,68.0,0.0,15.0,2.0,0.0
16628,68.0,0.0,90.0,12.0,0.0
16629,65.0,0.0,90.0,13.0,0.0
16630,73.0,96.0,15.0,11.0,0.0
16631,77.0,24.0,20.0,11.0,0.0
16632,73.0,0.0,180.0,0.0,0.0
16633,73.0,0.0,180.0,12.0,0.0
16634,78.0,96.0,20.0,11.0,0.0
16635,77.0,48.0,90.0,11.0,0.0
16636,76.0,0.0,60.0,11.0,0.0
16637,73.0,0.0,15.0,2.0,0.0
16638,65.0,0.0,15.0,13.0,0.0
16639,77.0,0.0,90.0,11.0,0.0
16640,73.0,96.0,15.0,1.0,0.0
16641,73.0,0.0,90.0,0.0,0.0
16642,73.0,0.0,90.0,12.0,0.0
16643,58.0,0.0,15.0,14.0,0.0
16644,60.0,0.0,180.0,14.0,0.0
16645,69.0,0.0,180.0,0.0,0.0
16646,69.0,0.0,180.0,1.0,0.0
16647,69.0,0.0,15.0,12.0,0.0
16648,69.0,0.0,90.0,0.0,0.0
16649,60.0,0.0,90.0,14.0,0.0
16650,69.0,0.0,90.0,1.0,0.0
16651,69.0,0.0,15.0,2.0,0.0
16652,77.0,96.0,15.0,11.0,0.0
16653,63.0,0.0,15.0,13.0,0.0
16654,65.0,0.0,180.0,13.0,0.0
16655,70.0,0.0,180.0,2.0,0.0
16656,77.0,0.0,15.0,11.0,0.0
16657,61.0,0.0,180.0,14.0,0.0
16658,70.0,96.0,180.0,12.0,0.0
16659,78.0,96.0,20.0,11.0,0.0
16660,77.0,48.0,90.0,11.0,0.0
16661,76.0,0.0,60.0,11.0,0.0
16662,70.0,0.0,15.0,0.0,0.0
16663,61.0,0.0,90.0,14.0,0.0
16664,70.0,0.0,15.0,1.0,0.0
16665,65.0,0.0,90.0,13.0,0.0
16666,70.0,192.0,90.0,2.0,0.0
16667,77.0,0.0,90.0,11.0,0.0
16668,70.0,0.0,90.0,12.0,0.0
16669,73.0,0.0,180.0,12.0,0.0
16670,70.0,0.0,180.0,13.0,0.0
16671,54.0,0.0,180.0,14.0,0.0
16672,73.0,0.0,180.0,1.0,0.0
16673,73.0,0.0,180.0,2.0,0.0
16674,73.0,0.0,180.0,0.0,0.0
16675,54.0,0.0,90.0,14.0,0.0
16676,73.0,0.0,90.0,0.0,0.0
16677,73.0,0.0,90.0,12.0,0.0
16678,70.0,24.0,90.0,13.0,0.0
16679,73.0,0.0,90.0,2.0,0.0
16680,78.0,96.0,15.0,11.0,0.0
16681,73.0,0.0,90.0,1.0,0.0
16682,70.0,0.0,180.0,12.0,0.0
16683,77.0,24.0,20.0,11.0,0.0
16684,78.0,96.0,20.0,11.0,0.0
16685,77.0,48.0,90.0,11.0,0.0
16686,76.0,0.0,60.0,11.0,0.0
16687,70.0,0.0,90.0,12.0,0.0
16688,70.0,0.0,15.0,2.0,0.0
16689,70.0,0.0,15.0,0.0,0.0
16690,58.0,0.0,15.0,14.0,0.0
16691,61.0,0.0,15.0,13.0,0.0
16692,70.0,96.0,15.0,1.0,0.0
16693,49.0,0.0,180.0,14.0,0.0
16694,77.0,0.0,15.0,11.0,0.0
16695,68.0,0.0,180.0,13.0,0.0
16696,73.0,96.0,15.0,2.0,0.0
16697,73.0,0.0,15.0,1.0,0.0
16698,77.0,0.0,15.0,11.0,0.0
16699,73.0,0.0,15.0,0.0,0.0
16700,73.0,0.0,15.0,12.0,0.0
16701,49.0,0.0,90.0,14.0,0.0
16702,68.0,0.0,90.0,13.0,0.0
16703,75.0,0.0,150.0,12.0,0.0
16704,75.0,0.0,150.0,1.0,0.0
16705,80.0,24.0,20.0,11.0,0.0
16706,72.0,0.0,150.0,13.0,0.0
16707,75.0,48.0,150.0,2.0,0.0
16708,56.0,0.0,180.0,14.0,0.0
16709,75.0,0.0,150.0,0.0,0.0
16710,82.0,96.0,20.0,11.0,0.0
16711,80.0,0.0,150.0,11.0,0.0
16712,73.0,0.0,60.0,12.0,0.0
16713,73.0,0.0,60.0,1.0,0.0
16714,73.0,0.0,60.0,13.0,0.0
16715,73.0,0.0,60.0,0.0,0.0
16716,73.0,96.0,60.0,2.0,0.0
16717,75.0,0.0,90.0,0.0,0.0
16718,75.0,0.0,90.0,1.0,0.0
16719,75.0,192.0,90.0,12.0,0.0
16720,56.0,0.0,90.0,14.0,0.0
16721,75.0,0.0,90.0,2.0,0.0
16722,80.0,0.0,90.0,11.0,0.0
16723,72.0,0.0,90.0,13.0,0.0
16724,77.0,0.0,180.0,2.0,0.0
16725,73.0,0.0,180.0,13.0,0.0
16726,77.0,0.0,180.0,1.0,0.0
16727,61.0,0.0,180.0,14.0,0.0
16728,77.0,0.0,180.0,0.0,0.0
16729,77.0,0.0,180.0,12.0,0.0
16730,80.0,96.0,180.0,11.0,0.0
16731,56.0,0.0,90.0,13.0,0.0
16732,44.0,24.0,90.0,3.0,0.0
16733,56.0,0.0,20.0,2.0,0.0
16734,53.0,0.0,180.0,13.0,0.0
16735,44.0,24.0,20.0,2.0,0.0
16736,56.0,0.0,20.0,12.0,0.0
16737,41.0,0.0,180.0,3.0,0.0
16738,49.0,0.0,180.0,3.0,0.0
16739,37.0,96.0,180.0,3.0,0.0
16740,58.0,96.0,20.0,2.0,0.0
16741,58.0,0.0,20.0,12.0,0.0
16742,46.0,0.0,20.0,2.0,0.0
16743,44.0,0.0,90.0,2.0,0.0
16744,56.0,48.0,90.0,2.0,0.0
16745,56.0,0.0,90.0,12.0,0.0
16746,54.0,0.0,60.0,2.0,0.0
16747,42.0,0.0,60.0,2.0,0.0
16748,54.0,0.0,60.0,12.0,0.0
16749,44.0,0.0,90.0,2.0,0.0
16750,37.0,0.0,15.0,14.0,0.0
16751,56.0,0.0,90.0,12.0,0.0
16752,61.0,0.0,15.0,11.0,0.0
16753,53.0,0.0,90.0,13.0,0.0
16754,56.0,0.0,90.0,2.0,0.0
16755,41.0,192.0,90.0,3.0,0.0
16756,37.0,0.0,90.0,3.0,0.0
16757,49.0,0.0,15.0,3.0,0.0
16758,46.0,0.0,180.0,2.0,0.0
16759,54.0,0.0,180.0,13.0,0.0
16760,58.0,0.0,180.0,2.0,0.0
16761,61.0,0.0,15.0,11.0,0.0
16762,42.0,0.0,15.0,14.0,0.0
16763,42.0,0.0,15.0,3.0,0.0
16764,58.0,0.0,15.0,12.0,0.0
16765,54.0,0.0,90.0,13.0,0.0
16766,58.0,0.0,90.0,2.0,0.0
16767,46.0,24.0,90.0,2.0,0.0
16768,49.0,0.0,15.0,3.0,0.0
16769,42.0,96.0,15.0,3.0,0.0
16770,61.0,0.0,15.0,11.0,0.0
16771,41.0,0.0,180.0,3.0,0.0
16772,49.0,0.0,15.0,3.0,0.0
16773,56.0,24.0,20.0,2.0,0.0
16774,56.0,0.0,20.0,12.0,0.0
16775,44.0,0.0,20.0,2.0,0.0
16776,61.0,0.0,180.0,11.0,0.0
16777,46.0,0.0,20.0,2.0,0.0
16778,58.0,0.0,20.0,12.0,0.0
16779,58.0,96.0,20.0,2.0,0.0
16780,56.0,0.0,90.0,12.0,0.0
16781,44.0,0.0,90.0,2.0,0.0
16782,56.0,48.0,90.0,2.0,0.0
16783,54.0,0.0,60.0,2.0,0.0
16784,42.0,0.0,60.0,2.0,0.0
16785,54.0,0.0,60.0,12.0,0.0
16786,56.0,288.0,90.0,2.0,0.0
16787,53.0,0.0,15.0,13.0,0.0
16788,56.0,0.0,90.0,12.0,0.0
16789,37.0,96.0,15.0,14.0,0.0
16790,37.0,0.0,15.0,3.0,0.0
16791,49.0,0.0,90.0,3.0,0.0
16792,44.0,0.0,90.0,2.0,0.0
16793,41.0,0.0,90.0,3.0,0.0
16794,61.0,0.0,90.0,11.0,0.0
16795,53.0,0.0,300.0,13.0,0.0
16796,41.0,0.0,300.0,3.0,0.0
16797,58.0,0.0,300.0,12.0,0.0
16798,49.0,0.0,300.0,3.0,0.0
16799,61.0,0.0,300.0,11.0,0.0
16800,34.0,0.0,300.0,14.0,0.0
16801,34.0,0.0,300.0,3.0,0.0
16802,46.0,24.0,300.0,2.0,0.0
16803,51.0,0.0,180.0,3.0,0.0
16804,42.0,0.0,180.0,3.0,0.0
16805,39.0,0.0,180.0,14.0,0.0
16806,58.0,0.0,20.0,12.0,0.0
16807,63.0,0.0,180.0,11.0,0.0
16808,58.0,0.0,15.0,2.0,0.0
16809,39.0,0.0,180.0,3.0,0.0
16810,46.0,24.0,20.0,2.0,0.0
16811,59.0,0.0,20.0,2.0,0.0
16812,59.0,0.0,20.0,12.0,0.0
16813,47.0,96.0,20.0,2.0,0.0
16814,58.0,0.0,90.0,12.0,0.0
16815,46.0,0.0,90.0,2.0,0.0
16816,58.0,48.0,90.0,2.0,0.0
16817,44.0,0.0,60.0,2.0,0.0
16818,56.0,0.0,60.0,12.0,0.0
16819,56.0,0.0,60.0,2.0,0.0
16820,46.0,192.0,90.0,2.0,0.0
16821,63.0,0.0,90.0,11.0,0.0
16822,39.0,0.0,90.0,14.0,0.0
16823,58.0,0.0,90.0,2.0,0.0
16824,39.0,0.0,90.0,3.0,0.0
16825,58.0,0.0,90.0,12.0,0.0
16826,54.0,96.0,15.0,13.0,0.0
16827,42.0,0.0,90.0,3.0,0.0
16828,32.0,0.0,180.0,14.0,0.0
16829,51.0,0.0,15.0,3.0,0.0
16830,32.0,0.0,15.0,3.0,0.0
16831,56.0,0.0,15.0,13.0,0.0
16832,47.0,0.0,15.0,2.0,0.0
16833,63.0,0.0,15.0,11.0,0.0
16834,51.0,0.0,15.0,3.0,0.0
16835,32.0,0.0,90.0,14.0,0.0
16836,44.0,0.0,15.0,3.0,0.0
16837,59.0,0.0,15.0,2.0,0.0
16838,59.0,96.0,15.0,12.0,0.0
16839,46.0,0.0,20.0,2.0,0.0
16840,58.0,24.0,20.0,12.0,0.0
16841,63.0,0.0,180.0,11.0,0.0
16842,58.0,0.0,20.0,2.0,0.0
16843,39.0,0.0,180.0,14.0,0.0
16844,59.0,96.0,20.0,2.0,0.0
16845,47.0,0.0,20.0,2.0,0.0
16846,59.0,0.0,20.0,12.0,0.0
16847,46.0,0.0,90.0,2.0,0.0
16848,58.0,48.0,90.0,12.0,0.0
16849,58.0,0.0,90.0,2.0,0.0
16850,56.0,0.0,60.0,2.0,0.0
16851,44.0,96.0,60.0,2.0,0.0
16852,56.0,0.0,60.0,12.0,0.0
16853,54.0,0.0,15.0,13.0,0.0
16854,51.0,0.0,15.0,3.0,0.0
16855,39.0,0.0,15.0,3.0,0.0
16856,42.0,0.0,15.0,3.0,0.0
16857,58.0,0.0,90.0,12.0,0.0
16858,63.0,0.0,90.0,11.0,0.0
16859,58.0,192.0,90.0,2.0,0.0
16860,46.0,0.0,90.0,2.0,0.0
16861,39.0,0.0,90.0,14.0,0.0
16862,49.0,0.0,180.0,2.0,0.0
16863,65.0,0.0,180.0,11.0,0.0
16864,61.0,0.0,180.0,12.0,0.0
16865,37.0,0.0,300.0,3.0,0.0
16866,53.0,0.0,180.0,3.0,0.0
16867,44.0,96.0,180.0,3.0,0.0
16868,56.0,0.0,180.0,13.0,0.0
16869,37.0,0.0,300.0,14.0,0.0
16870,61.0,0.0,180.0,2.0,0.0
16871,61.0,0.0,90.0,0.0,0.0
16872,61.0,0.0,90.0,1.0,0.0
16873,61.0,24.0,90.0,2.0,0.0
16874,61.0,0.0,90.0,13.0,0.0
16875,70.0,0.0,20.0,12.0,0.0
16876,54.0,0.0,180.0,14.0,0.0
16877,70.0,24.0,20.0,1.0,0.0
16878,73.0,0.0,15.0,11.0,0.0
16879,70.0,0.0,20.0,0.0,0.0
16880,70.0,0.0,20.0,2.0,0.0
16881,71.0,0.0,20.0,1.0,0.0
16882,71.0,96.0,20.0,0.0,0.0
16883,71.0,0.0,20.0,12.0,0.0
16884,71.0,0.0,20.0,2.0,0.0
16885,70.0,0.0,90.0,12.0,0.0
16886,70.0,0.0,90.0,0.0,0.0
16887,70.0,48.0,90.0,1.0,0.0
16888,70.0,0.0,90.0,2.0,0.0
16889,68.0,0.0,60.0,12.0,0.0
16890,68.0,96.0,60.0,0.0,0.0
16891,68.0,0.0,60.0,2.0,0.0
16892,68.0,0.0,60.0,1.0,0.0
16893,70.0,0.0,90.0,2.0,0.0
16894,61.0,0.0,15.0,13.0,0.0
16895,70.0,0.0,90.0,1.0,0.0
16896,70.0,192.0,90.0,0.0,0.0
16897,54.0,0.0,90.0,14.0,0.0
16898,70.0,0.0,90.0,12.0,0.0
16899,73.0,0.0,15.0,11.0,0.0
16900,65.0,0.0,15.0,12.0,0.0
16901,65.0,0.0,15.0,1.0,0.0
16902,56.0,0.0,15.0,14.0,0.0
16903,65.0,0.0,15.0,0.0,0.0
16904,59.0,0.0,15.0,13.0,0.0
16905,65.0,96.0,15.0,2.0,0.0
16906,61.0,0.0,180.0,13.0,0.0
16907,73.0,0.0,15.0,11.0,0.0
16908,66.0,0.0,20.0,2.0,0.0
16909,66.0,0.0,20.0,12.0,0.0
16910,66.0,0.0,20.0,0.0,0.0
16911,66.0,24.0,20.0,1.0,0.0
16912,58.0,0.0,180.0,14.0,0.0
16913,68.0,96.0,20.0,0.0,0.0
16914,68.0,0.0,20.0,12.0,0.0
16915,68.0,0.0,20.0,1.0,0.0
16916,68.0,0.0,20.0,2.0,0.0
16917,66.0,0.0,90.0,12.0,0.0
16918,66.0,0.0,90.0,0.0,0.0
16919,66.0,48.0,90.0,1.0,0.0
16920,66.0,0.0,90.0,2.0,0.0
16921,65.0,0.0,60.0,2.0,0.0
16922,65.0,0.0,60.0,1.0,0.0
16923,65.0,96.0,60.0,12.0,0.0
16924,65.0,0.0,60.0,0.0,0.0
16925,58.0,0.0,90.0,14.0,0.0
16926,61.0,0.0,90.0,13.0,0.0
16927,66.0,0.0,90.0,12.0,0.0
16928,66.0,0.0,90.0,2.0,0.0
16929,73.0,0.0,15.0,11.0,0.0
16930,66.0,192.0,90.0,1.0,0.0
16931,66.0,0.0,90.0,0.0,0.0
16932,66.0,0.0,180.0,13.0,0.0
16933,75.0,0.0,180.0,11.0,0.0
16934,51.0,96.0,180.0,14.0,0.0
16935,70.0,0.0,15.0,0.0,0.0
16936,70.0,0.0,15.0,2.0,0.0
16937,70.0,0.0,15.0,1.0,0.0
16938,70.0,0.0,15.0,12.0,0.0
16939,66.0,0.0,90.0,13.0,0.0
16940,51.0,0.0,90.0,14.0,0.0
16941,68.0,0.0,20.0,12.0,0.0
16942,68.0,24.0,20.0,2.0,0.0
16943,68.0,0.0,20.0,0.0,0.0
16944,68.0,0.0,20.0,1.0,0.0
16945,75.0,0.0,15.0,11.0,0.0
16946,70.0,96.0,20.0,12.0,0.0
16947,70.0,0.0,20.0,1.0,0.0
16948,70.0,0.0,20.0,0.0,0.0
16949,70.0,0.0,20.0,2.0,0.0
16950,68.0,0.0,90.0,2.0,0.0
16951,68.0,0.0,90.0,0.0,0.0
16952,68.0,48.0,90.0,12.0,0.0
16953,68.0,0.0,90.0,1.0,0.0
16954,67.0,0.0,60.0,2.0,0.0
16955,67.0,0.0,60.0,12.0,0.0
16956,67.0,96.0,60.0,1.0,0.0
16957,67.0,0.0,60.0,0.0,0.0
16958,68.0,0.0,90.0,2.0,0.0
16959,68.0,0.0,90.0,12.0,0.0
16960,75.0,0.0,15.0,11.0,0.0
16961,59.0,0.0,15.0,13.0,0.0
16962,68.0,0.0,90.0,1.0,0.0
16963,56.0,0.0,15.0,14.0,0.0
16964,68.0,0.0,90.0,0.0,0.0
16965,73.0,0.0,180.0,0.0,0.0
16966,73.0,0.0,180.0,2.0,0.0
16967,73.0,0.0,180.0,1.0,0.0
16968,77.0,0.0,180.0,11.0,0.0
16969,73.0,0.0,15.0,12.0,0.0
16970,73.0,0.0,90.0,2.0,0.0
16971,49.0,0.0,15.0,14.0,0.0
16972,77.0,0.0,90.0,11.0,0.0
16973,68.0,96.0,15.0,13.0,0.0
16974,73.0,24.0,90.0,1.0,0.0
16975,73.0,0.0,90.0,0.0,0.0
16976,70.0,0.0,20.0,12.0,0.0
16977,70.0,0.0,20.0,0.0,0.0
16978,61.0,0.0,180.0,13.0,0.0
16979,70.0,0.0,20.0,1.0,0.0
16980,78.0,48.0,150.0,11.0,0.0
16981,54.0,0.0,180.0,14.0,0.0
16982,70.0,24.0,20.0,2.0,0.0
16983,71.0,0.0,20.0,12.0,0.0
16984,71.0,96.0,20.0,0.0,0.0
16985,71.0,0.0,20.0,2.0,0.0
16986,71.0,0.0,20.0,1.0,0.0
16987,70.0,0.0,150.0,2.0,0.0
16988,70.0,96.0,150.0,1.0,0.0
16989,70.0,0.0,150.0,0.0,0.0
16990,70.0,0.0,150.0,12.0,0.0
16991,77.0,0.0,60.0,11.0,0.0
16992,54.0,0.0,90.0,14.0,0.0
16993,66.0,0.0,90.0,2.0,0.0
16994,66.0,0.0,90.0,0.0,0.0
16995,66.0,192.0,90.0,12.0,0.0
16996,58.0,0.0,90.0,13.0,0.0
16997,78.0,0.0,90.0,11.0,0.0
16998,66.0,0.0,90.0,1.0,0.0
16999,66.0,0.0,180.0,1.0,0.0
17000,78.0,0.0,180.0,11.0,0.0
17001,66.0,0.0,180.0,2.0,0.0
17002,58.0,0.0,180.0,13.0,0.0
17003,54.0,96.0,180.0,14.0,0.0
17004,66.0,0.0,180.0,12.0,0.0
17005,66.0,0.0,180.0,0.0,0.0
17006,61.0,0.0,90.0,11.0,0.0
17007,49.0,24.0,15.0,3.0,0.0
17008,41.0,0.0,180.0,3.0,0.0
17009,56.0,0.0,180.0,12.0,0.0
17010,61.0,0.0,20.0,11.0,0.0
17011,37.0,0.0,180.0,3.0,0.0
17012,37.0,0.0,180.0,14.0,0.0
17013,63.0,96.0,20.0,11.0,0.0
17014,51.0,0.0,20.0,3.0,0.0
17015,61.0,48.0,90.0,11.0,0.0
17016,49.0,0.0,90.0,3.0,0.0
17017,60.0,0.0,60.0,11.0,0.0
17018,48.0,0.0,60.0,3.0,0.0
17019,41.0,0.0,90.0,3.0,0.0
17020,49.0,0.0,90.0,3.0,0.0
17021,37.0,0.0,90.0,3.0,0.0
17022,56.0,0.0,15.0,2.0,0.0
17023,56.0,0.0,90.0,12.0,0.0
17024,61.0,0.0,90.0,11.0,0.0
17025,53.0,0.0,15.0,13.0,0.0
17026,44.0,96.0,15.0,2.0,0.0
17027,37.0,192.0,90.0,14.0,0.0
17028,49.0,0.0,180.0,3.0,0.0
17029,42.0,0.0,180.0,3.0,0.0
17030,42.0,0.0,180.0,14.0,0.0
17031,61.0,0.0,15.0,11.0,0.0
17032,42.0,0.0,90.0,14.0,0.0
17033,46.0,0.0,15.0,2.0,0.0
17034,58.0,0.0,15.0,2.0,0.0
17035,49.0,0.0,90.0,3.0,0.0
17036,58.0,0.0,15.0,12.0,0.0
17037,54.0,96.0,15.0,13.0,0.0
17038,42.0,0.0,90.0,3.0,0.0
17039,53.0,0.0,180.0,13.0,0.0
17040,61.0,0.0,20.0,11.0,0.0
17041,49.0,24.0,20.0,3.0,0.0
17042,63.0,0.0,20.0,11.0,0.0
17043,51.0,96.0,20.0,3.0,0.0
17044,61.0,0.0,90.0,11.0,0.0
17045,49.0,48.0,90.0,3.0,0.0
17046,60.0,0.0,60.0,11.0,0.0
17047,48.0,0.0,60.0,3.0,0.0
17048,41.0,0.0,15.0,3.0,0.0
17049,56.0,0.0,15.0,12.0,0.0
17050,49.0,0.0,90.0,3.0,0.0
17051,44.0,0.0,15.0,2.0,0.0
17052,37.0,0.0,15.0,3.0,0.0
17053,53.0,0.0,90.0,13.0,0.0
17054,37.0,0.0,15.0,14.0,0.0
17055,56.0,96.0,15.0,2.0,0.0
17056,61.0,0.0,15.0,11.0,0.0
17057,41.0,0.0,300.0,3.0,0.0
17058,49.0,0.0,300.0,3.0,0.0
17059,34.0,0.0,300.0,14.0,0.0
17060,34.0,0.0,300.0,3.0,0.0
17061,53.0,24.0,300.0,13.0,0.0
17062,63.0,0.0,20.0,11.0,0.0
17063,58.0,0.0,15.0,12.0,0.0
17064,46.0,0.0,15.0,2.0,0.0
17065,58.0,0.0,15.0,2.0,0.0
17066,39.0,96.0,180.0,14.0,0.0
17067,51.0,24.0,20.0,3.0,0.0
17068,53.0,0.0,20.0,3.0,0.0
17069,65.0,96.0,20.0,11.0,0.0
17070,51.0,48.0,90.0,3.0,0.0
17071,63.0,0.0,90.0,11.0,0.0
17072,50.0,0.0,60.0,3.0,0.0
17073,62.0,0.0,60.0,11.0,0.0
17074,39.0,0.0,15.0,3.0,0.0
17075,46.0,192.0,90.0,2.0,0.0
17076,58.0,0.0,90.0,12.0,0.0
17077,54.0,0.0,15.0,13.0,0.0
17078,42.0,0.0,15.0,3.0,0.0
17079,58.0,0.0,90.0,2.0,0.0
17080,39.0,0.0,90.0,14.0,0.0
17081,44.0,0.0,180.0,3.0,0.0
17082,51.0,0.0,15.0,3.0,0.0
17083,63.0,0.0,15.0,11.0,0.0
17084,59.0,0.0,180.0,12.0,0.0
17085,56.0,0.0,180.0,13.0,0.0
17086,47.0,0.0,180.0,2.0,0.0
17087,32.0,0.0,15.0,14.0,0.0
17088,59.0,0.0,90.0,12.0,0.0
17089,44.0,0.0,90.0,3.0,0.0
17090,32.0,96.0,15.0,3.0,0.0
17091,63.0,0.0,90.0,11.0,0.0
17092,51.0,0.0,90.0,3.0,0.0
17093,59.0,0.0,15.0,2.0,0.0
17094,56.0,0.0,90.0,13.0,0.0
17095,47.0,0.0,90.0,2.0,0.0
17096,42.0,0.0,180.0,3.0,0.0
17097,51.0,24.0,20.0,3.0,0.0
17098,39.0,0.0,180.0,14.0,0.0
17099,54.0,0.0,180.0,13.0,0.0
17100,63.0,0.0,20.0,11.0,0.0
17101,39.0,0.0,180.0,3.0,0.0
17102,65.0,96.0,20.0,11.0,0.0
17103,53.0,0.0,20.0,3.0,0.0
17104,63.0,48.0,90.0,11.0,0.0
17105,51.0,0.0,90.0,3.0,0.0
17106,62.0,0.0,60.0,11.0,0.0
17107,50.0,0.0,60.0,3.0,0.0
17108,63.0,0.0,90.0,11.0,0.0
17109,58.0,0.0,15.0,2.0,0.0
17110,46.0,0.0,15.0,2.0,0.0
17111,39.0,0.0,90.0,3.0,0.0
17112,39.0,0.0,90.0,14.0,0.0
17113,54.0,0.0,90.0,13.0,0.0
17114,58.0,96.0,15.0,12.0,0.0
17115,51.0,0.0,90.0,3.0,0.0
17116,42.0,192.0,90.0,3.0,0.0
17117,44.0,0.0,180.0,3.0,0.0
17118,49.0,0.0,180.0,2.0,0.0
17119,37.0,0.0,300.0,3.0,0.0
17120,53.0,0.0,180.0,3.0,0.0
17121,65.0,0.0,180.0,11.0,0.0
17122,37.0,0.0,300.0,14.0,0.0
17123,56.0,0.0,180.0,13.0,0.0
17124,61.0,96.0,15.0,2.0,0.0
17125,61.0,0.0,15.0,12.0,0.0
17126,61.0,0.0,90.0,1.0,0.0
17127,61.0,24.0,90.0,0.0,0.0
17128,61.0,0.0,15.0,13.0,0.0
17129,73.0,0.0,15.0,11.0,0.0
17130,70.0,0.0,180.0,2.0,0.0
17131,70.0,0.0,180.0,12.0,0.0
17132,54.0,96.0,180.0,14.0,0.0
17133,75.0,96.0,20.0,11.0,0.0
17134,73.0,48.0,90.0,11.0,0.0
17135,72.0,0.0,60.0,11.0,0.0
17136,70.0,0.0,90.0,2.0,0.0
17137,70.0,0.0,15.0,0.0,0.0
17138,70.0,0.0,90.0,12.0,0.0
17139,70.0,0.0,15.0,1.0,0.0
17140,54.0,192.0,90.0,14.0,0.0
17141,61.0,0.0,90.0,13.0,0.0
17142,73.0,0.0,15.0,11.0,0.0
17143,59.0,0.0,180.0,13.0,0.0
17144,56.0,0.0,180.0,14.0,0.0
17145,65.0,0.0,180.0,0.0,0.0
17146,65.0,0.0,15.0,1.0,0.0
17147,65.0,96.0,15.0,2.0,0.0
17148,59.0,0.0,90.0,13.0,0.0
17149,56.0,24.0,90.0,14.0,0.0
17150,65.0,0.0,15.0,12.0,0.0
17151,73.0,0.0,90.0,11.0,0.0
17152,65.0,0.0,90.0,0.0,0.0
17153,66.0,0.0,180.0,0.0,0.0
17154,66.0,0.0,180.0,12.0,0.0
17155,73.0,24.0,20.0,11.0,0.0
17156,58.0,0.0,180.0,14.0,0.0
17157,75.0,96.0,20.0,11.0,0.0
17158,73.0,48.0,90.0,11.0,0.0
17159,72.0,0.0,60.0,11.0,0.0
17160,73.0,0.0,90.0,11.0,0.0
17161,66.0,0.0,90.0,12.0,0.0
17162,66.0,0.0,15.0,2.0,0.0
17163,66.0,0.0,90.0,0.0,0.0
17164,58.0,0.0,90.0,14.0,0.0
17165,61.0,0.0,15.0,13.0,0.0
17166,66.0,96.0,15.0,1.0,0.0
17167,70.0,0.0,180.0,12.0,0.0
17168,70.0,0.0,180.0,1.0,0.0
17169,51.0,0.0,180.0,14.0,0.0
17170,70.0,0.0,180.0,0.0,0.0
17171,66.0,0.0,15.0,13.0,0.0
17172,70.0,0.0,90.0,1.0,0.0
17173,75.0,96.0,15.0,11.0,0.0
17174,70.0,0.0,90.0,0.0,0.0
17175,70.0,0.0,90.0,12.0,0.0
17176,51.0,0.0,90.0,14.0,0.0
17177,70.0,0.0,15.0,2.0,0.0
17178,75.0,24.0,20.0,11.0,0.0
17179,68.0,0.0,180.0,12.0,0.0
17180,59.0,0.0,180.0,13.0,0.0
17181,68.0,0.0,180.0,0.0,0.0
17182,68.0,0.0,180.0,2.0,0.0
17183,77.0,96.0,20.0,11.0,0.0
17184,75.0,48.0,90.0,11.0,0.0
17185,74.0,96.0,60.0,11.0,0.0
17186,59.0,0.0,90.0,13.0,0.0
17187,56.0,0.0,15.0,14.0,0.0
17188,68.0,0.0,90.0,2.0,0.0
17189,68.0,0.0,15.0,1.0,0.0
17190,68.0,192.0,90.0,12.0,0.0
17191,68.0,0.0,90.0,0.0,0.0
17192,75.0,0.0,90.0,11.0,0.0
17193,68.0,0.0,180.0,13.0,0.0
17194,73.0,0.0,180.0,12.0,0.0
17195,73.0,0.0,15.0,1.0,0.0
17196,73.0,0.0,15.0,0.0,0.0
17197,77.0,0.0,15.0,11.0,0.0
17198,49.0,0.0,15.0,14.0,0.0
17199,68.0,0.0,90.0,13.0,0.0
17200,73.0,0.0,90.0,12.0,0.0
17201,73.0,96.0,15.0,2.0,0.0
17202,61.0,0.0,180.0,13.0,0.0
17203,70.0,0.0,180.0,1.0,0.0
17204,70.0,0.0,180.0,12.0,0.0
17205,54.0,0.0,180.0,14.0,0.0
17206,70.0,0.0,180.0,0.0,0.0
17207,78.0,24.0,20.0,11.0,0.0
17208,70.0,96.0,180.0,2.0,0.0
17209,80.0,96.0,20.0,11.0,0.0
17210,78.0,48.0,90.0,11.0,0.0
17211,77.0,0.0,60.0,11.0,0.0
17212,54.0,0.0,90.0,14.0,0.0
17213,66.0,0.0,90.0,0.0,0.0
17214,78.0,0.0,90.0,11.0,0.0
17215,66.0,0.0,90.0,12.0,0.0
17216,66.0,0.0,90.0,2.0,0.0
17217,58.0,192.0,15.0,13.0,0.0
17218,66.0,0.0,180.0,12.0,0.0
17219,78.0,0.0,180.0,11.0,0.0
17220,66.0,0.0,180.0,2.0,0.0
17221,54.0,0.0,180.0,14.0,0.0
17222,66.0,0.0,15.0,1.0,0.0
17223,66.0,192.0,180.0,0.0,0.0
17224,53.0,96.0,90.0,6.0,0.0
17225,53.0,0.0,90.0,4.0,0.0
17226,49.0,0.0,90.0,4.0,0.0
17227,45.0,0.0,90.0,4.0,0.0
17228,42.0,0.0,180.0,6.0,0.0
17229,54.0,0.0,90.0,6.0,0.0
17230,46.0,0.0,90.0,4.0,0.0
17231,54.0,0.0,90.0,4.0,0.0
17232,55.0,0.0,90.0,6.0,0.0
17233,49.0,96.0,15.0,4.0,0.0
17234,46.0,96.0,90.0,4.0,0.0
17235,55.0,0.0,90.0,4.0,0.0
17236,50.0,0.0,90.0,4.0,0.0
17237,56.0,96.0,90.0,4.0,0.0
17238,41.0,0.0,180.0,6.0,0.0
17239,47.0,0.0,90.0,4.0,0.0
17240,56.0,0.0,90.0,6.0,0.0
17241,57.0,0.0,90.0,6.0,0.0
17242,48.0,96.0,90.0,4.0,0.0
17243,57.0,0.0,90.0,4.0,0.0
17244,51.0,0.0,90.0,4.0,0.0
17245,40.0,0.0,180.0,6.0,0.0
17246,58.0,0.0,90.0,6.0,0.0
17247,49.0,0.0,15.0,4.0,0.0
17248,58.0,0.0,15.0,4.0,0.0
17249,54.0,96.0,15.0,4.0,0.0
17250,58.0,0.0,90.0,6.0,0.0
17251,39.0,0.0,180.0,6.0,0.0
17252,59.0,0.0,90.0,6.0,0.0
17253,59.0,96.0,90.0,4.0,0.0
17254,47.0,0.0,90.0,4.0,0.0
17255,57.0,0.0,90.0,4.0,0.0
17256,48.0,0.0,90.0,4.0,0.0
17257,54.0,0.0,15.0,4.0,0.0
17258,57.0,0.0,90.0,6.0,0.0
17259,46.0,0.0,90.0,4.0,0.0
17260,58.0,0.0,90.0,6.0,0.0
17261,38.0,0.0,180.0,6.0,0.0
17262,53.0,96.0,15.0,4.0,0.0
17263,58.0,0.0,15.0,4.0,0.0
17264,46.0,0.0,90.0,4.0,0.0
17265,58.0,96.0,90.0,6.0,0.0
17266,53.0,0.0,15.0,4.0,0.0
17267,37.0,0.0,180.0,6.0,0.0
17268,44.0,96.0,90.0,4.0,0.0
17269,59.0,0.0,90.0,4.0,0.0
17270,59.0,0.0,90.0,6.0,0.0
17271,53.0,0.0,15.0,4.0,0.0
17272,57.0,0.0,90.0,6.0,0.0
17273,47.0,0.0,90.0,4.0,0.0
17274,57.0,96.0,90.0,4.0,0.0
17275,42.0,0.0,180.0,6.0,0.0
17276,58.0,0.0,90.0,6.0,0.0
17277,46.0,0.0,90.0,4.0,0.0
17278,54.0,0.0,90.0,4.0,0.0
17279,58.0,96.0,15.0,4.0,0.0
17280,49.0,96.0,90.0,4.0,0.0
17281,58.0,0.0,90.0,6.0,0.0
17282,55.0,0.0,90.0,4.0,0.0
17283,59.0,0.0,90.0,6.0,0.0
17284,56.0,0.0,90.0,4.0,0.0
17285,59.0,0.0,90.0,4.0,0.0
17286,41.0,0.0,180.0,6.0,0.0
17287,50.0,96.0,90.0,4.0,0.0
17288,60.0,0.0,90.0,6.0,0.0
17289,60.0,0.0,90.0,4.0,0.0
17290,51.0,96.0,90.0,4.0,0.0
17291,57.0,0.0,15.0,4.0,0.0
17292,61.0,0.0,90.0,4.0,0.0
17293,40.0,0.0,180.0,6.0,0.0
17294,61.0,0.0,90.0,6.0,0.0
17295,61.0,96.0,90.0,6.0,0.0
17296,57.0,0.0,90.0,4.0,0.0
17297,52.0,96.0,15.0,4.0,0.0
17298,61.0,0.0,90.0,4.0,0.0
17299,62.0,0.0,90.0,4.0,0.0
17300,62.0,96.0,90.0,6.0,0.0
17301,41.0,0.0,180.0,6.0,0.0
17302,50.0,0.0,15.0,4.0,0.0
17303,60.0,0.0,90.0,4.0,0.0
17304,56.0,0.0,15.0,4.0,0.0
17305,60.0,0.0,90.0,6.0,0.0
17306,40.0,0.0,180.0,6.0,0.0
17307,61.0,96.0,90.0,6.0,0.0
17308,49.0,0.0,90.0,4.0,0.0
17309,57.0,0.0,90.0,4.0,0.0
17310,61.0,0.0,15.0,4.0,0.0
17311,52.0,0.0,90.0,4.0,0.0
17312,57.0,0.0,90.0,4.0,0.0
17313,61.0,96.0,90.0,6.0,0.0
17314,41.0,96.0,180.0,6.0,0.0
17315,62.0,96.0,90.0,6.0,0.0
17316,50.0,0.0,90.0,4.0,0.0
17317,62.0,0.0,90.0,4.0,0.0
17318,60.0,0.0,90.0,4.0,0.0
17319,56.0,0.0,15.0,4.0,0.0
17320,50.0,0.0,90.0,4.0,0.0
17321,60.0,0.0,90.0,6.0,0.0
17322,40.0,0.0,180.0,6.0,0.0
17323,57.0,0.0,90.0,4.0,0.0
17324,61.0,96.0,90.0,4.0,0.0
17325,49.0,0.0,90.0,4.0,0.0
17326,61.0,0.0,15.0,6.0,0.0
17327,57.0,96.0,90.0,4.0,0.0
17328,61.0,0.0,90.0,4.0,0.0
17329,49.0,0.0,15.0,4.0,0.0
17330,41.0,0.0,180.0,6.0,0.0
17331,60.0,0.0,90.0,4.0,0.0
17332,60.0,0.0,90.0,6.0,0.0
17333,59.0,0.0,90.0,6.0,0.0
17334,56.0,0.0,15.0,4.0,0.0
17335,59.0,0.0,90.0,4.0,0.0
17336,49.0,96.0,15.0,4.0,0.0
17337,49.0,0.0,15.0,4.0,0.0
17338,58.0,0.0,90.0,6.0,0.0
17339,58.0,0.0,90.0,4.0,0.0
17340,42.0,0.0,180.0,6.0,0.0
17341,49.0,0.0,15.0,4.0,0.0
17342,57.0,96.0,90.0,4.0,0.0
17343,54.0,96.0,15.0,4.0,0.0
17344,57.0,0.0,90.0,6.0,0.0
17345,37.0,0.0,180.0,6.0,0.0
17346,56.0,0.0,90.0,6.0,0.0
17347,53.0,0.0,90.0,4.0,0.0
17348,56.0,0.0,90.0,4.0,0.0
17349,49.0,96.0,15.0,4.0,0.0
17350,45.0,0.0,90.0,4.0,0.0
17351,57.0,96.0,90.0,5.0,0.0
17352,65.0,0.0,90.0,5.0,0.0
17353,53.0,0.0,90.0,6.0,0.0
17354,66.0,96.0,90.0,5.0,0.0
17355,42.0,0.0,180.0,7.0,0.0
17356,49.0,0.0,15.0,4.0,0.0
17357,54.0,0.0,90.0,6.0,0.0
17358,61.0,0.0,15.0,5.0,0.0
17359,61.0,0.0,15.0,5.0,0.0
17360,49.0,0.0,15.0,4.0,0.0
17361,46.0,0.0,15.0,4.0,0.0
17362,58.0,0.0,15.0,5.0,0.0
17363,67.0,0.0,90.0,5.0,0.0
17364,55.0,96.0,90.0,6.0,0.0
17365,47.0,0.0,90.0,4.0,0.0
17366,59.0,0.0,90.0,5.0,0.0
17367,50.0,96.0,90.0,4.0,0.0
17368,62.0,0.0,90.0,5.0,0.0
17369,68.0,0.0,90.0,5.0,0.0
17370,56.0,0.0,90.0,6.0,0.0
17371,41.0,0.0,180.0,7.0,0.0
17372,51.0,0.0,90.0,4.0,0.0
17373,48.0,0.0,90.0,4.0,0.0
17374,63.0,96.0,90.0,5.0,0.0
17375,60.0,0.0,90.0,5.0,0.0
17376,57.0,0.0,90.0,6.0,0.0
17377,69.0,0.0,90.0,5.0,0.0
17378,40.0,0.0,180.0,7.0,0.0
17379,58.0,0.0,90.0,6.0,0.0
17380,54.0,0.0,90.0,4.0,0.0
17381,61.0,0.0,90.0,5.0,0.0
17382,66.0,0.0,90.0,5.0,0.0
17383,49.0,0.0,15.0,4.0,0.0
17384,61.0,0.0,90.0,5.0,0.0
17385,66.0,0.0,90.0,5.0,0.0
17386,58.0,0.0,90.0,6.0,0.0
17387,70.0,96.0,15.0,5.0,0.0
17388,71.0,0.0,90.0,5.0,0.0
17389,59.0,0.0,90.0,6.0,0.0
17390,47.0,0.0,90.0,4.0,0.0
17391,54.0,96.0,15.0,4.0,0.0
17392,59.0,0.0,90.0,5.0,0.0
17393,39.0,0.0,180.0,7.0,0.0
17394,39.0,96.0,180.0,6.0,0.0
17395,57.0,0.0,90.0,6.0,0.0
17396,48.0,0.0,90.0,4.0,0.0
17397,54.0,0.0,90.0,4.0,0.0
17398,66.0,96.0,15.0,5.0,0.0
17399,69.0,0.0,90.0,5.0,0.0
17400,60.0,0.0,90.0,5.0,0.0
17401,65.0,0.0,90.0,5.0,0.0
17402,58.0,0.0,90.0,5.0,0.0
17403,53.0,96.0,90.0,4.0,0.0
17404,38.0,0.0,180.0,6.0,0.0
17405,46.0,0.0,90.0,4.0,0.0
17406,38.0,0.0,180.0,7.0,0.0
17407,58.0,0.0,15.0,6.0,0.0
17408,70.0,0.0,15.0,5.0,0.0
17409,58.0,0.0,90.0,5.0,0.0
17410,46.0,96.0,90.0,4.0,0.0
17411,37.0,0.0,180.0,7.0,0.0
17412,37.0,0.0,180.0,6.0,0.0
17413,65.0,0.0,15.0,5.0,0.0
17414,56.0,0.0,90.0,5.0,0.0
17415,59.0,0.0,90.0,6.0,0.0
17416,53.0,0.0,15.0,4.0,0.0
17417,44.0,0.0,90.0,4.0,0.0
17418,71.0,96.0,90.0,5.0,0.0
17419,57.0,96.0,90.0,6.0,0.0
17420,69.0,0.0,90.0,5.0,0.0
17421,65.0,0.0,15.0,5.0,0.0
17422,47.0,0.0,90.0,4.0,0.0
17423,59.0,0.0,90.0,5.0,0.0
17424,53.0,0.0,90.0,4.0,0.0
17425,58.0,96.0,90.0,5.0,0.0
17426,42.0,96.0,180.0,7.0,0.0
17427,46.0,0.0,90.0,4.0,0.0
17428,54.0,0.0,90.0,4.0,0.0
17429,66.0,0.0,90.0,5.0,0.0
17430,42.0,0.0,180.0,6.0,0.0
17431,58.0,0.0,90.0,6.0,0.0
17432,70.0,0.0,15.0,5.0,0.0
17433,61.0,0.0,90.0,5.0,0.0
17434,67.0,0.0,90.0,5.0,0.0
17435,55.0,0.0,90.0,4.0,0.0
17436,58.0,0.0,90.0,6.0,0.0
17437,49.0,0.0,90.0,4.0,0.0
17438,41.0,96.0,180.0,7.0,0.0
17439,56.0,0.0,90.0,4.0,0.0
17440,62.0,0.0,90.0,5.0,0.0
17441,68.0,96.0,90.0,5.0,0.0
17442,41.0,0.0,180.0,6.0,0.0
17443,71.0,0.0,90.0,5.0,0.0
17444,50.0,0.0,90.0,4.0,0.0
17445,59.0,0.0,90.0,6.0,0.0
17446,51.0,0.0,90.0,4.0,0.0
17447,72.0,0.0,90.0,5.0,0.0
17448,63.0,0.0,90.0,5.0,0.0
17449,60.0,0.0,90.0,6.0,0.0
17450,69.0,0.0,15.0,5.0,0.0
17451,61.0,0.0,90.0,6.0,0.0
17452,52.0,0.0,90.0,4.0,0.0
17453,40.0,0.0,180.0,6.0,0.0
17454,57.0,0.0,15.0,4.0,0.0
17455,40.0,0.0,180.0,7.0,0.0
17456,69.0,0.0,15.0,5.0,0.0
17457,73.0,0.0,15.0,5.0,0.0
17458,64.0,0.0,15.0,5.0,0.0
17459,61.0,96.0,90.0,6.0,0.0
17460,52.0,0.0,90.0,4.0,0.0
17461,57.0,0.0,90.0,4.0,0.0
17462,56.0,0.0,90.0,4.0,0.0
17463,68.0,0.0,90.0,5.0,0.0
17464,74.0,0.0,90.0,5.0,0.0
17465,50.0,0.0,90.0,4.0,0.0
17466,41.0,0.0,180.0,6.0,0.0
17467,41.0,0.0,180.0,7.0,0.0
17468,62.0,96.0,90.0,6.0,0.0
17469,62.0,0.0,15.0,5.0,0.0
17470,68.0,0.0,90.0,5.0,0.0
17471,60.0,96.0,90.0,6.0,0.0
17472,72.0,0.0,90.0,5.0,0.0
17473,50.0,0.0,90.0,4.0,0.0
17474,61.0,0.0,90.0,5.0,0.0
17475,69.0,0.0,90.0,5.0,0.0
17476,61.0,0.0,90.0,6.0,0.0
17477,73.0,96.0,90.0,5.0,0.0
17478,49.0,0.0,90.0,4.0,0.0
17479,40.0,0.0,180.0,7.0,0.0
17480,61.0,0.0,90.0,6.0,0.0
17481,73.0,0.0,90.0,5.0,0.0
17482,69.0,0.0,90.0,5.0,0.0
17483,64.0,0.0,90.0,5.0,0.0
17484,52.0,96.0,90.0,4.0,0.0
17485,74.0,0.0,90.0,5.0,0.0
17486,62.0,0.0,90.0,5.0,0.0
17487,68.0,0.0,90.0,5.0,0.0
17488,62.0,0.0,90.0,6.0,0.0
17489,41.0,0.0,180.0,7.0,0.0
17490,72.0,96.0,90.0,5.0,0.0
17491,50.0,96.0,15.0,4.0,0.0
17492,62.0,0.0,90.0,5.0,0.0
17493,60.0,0.0,90.0,6.0,0.0
17494,68.0,0.0,90.0,5.0,0.0
17495,61.0,0.0,90.0,6.0,0.0
17496,40.0,0.0,180.0,7.0,0.0
17497,61.0,0.0,90.0,5.0,0.0
17498,69.0,0.0,90.0,5.0,0.0
17499,73.0,0.0,90.0,5.0,0.0
17500,49.0,96.0,15.0,4.0,0.0
17501,69.0,0.0,90.0,5.0,0.0
17502,61.0,96.0,90.0,6.0,0.0
17503,73.0,0.0,90.0,5.0,0.0
17504,61.0,0.0,90.0,5.0,0.0
17505,41.0,0.0,180.0,7.0,0.0
17506,60.0,0.0,90.0,6.0,0.0
17507,72.0,0.0,90.0,5.0,0.0
17508,61.0,0.0,15.0,5.0,0.0
17509,59.0,0.0,90.0,6.0,0.0
17510,49.0,0.0,15.0,4.0,0.0
17511,68.0,96.0,15.0,5.0,0.0
17512,71.0,0.0,90.0,5.0,0.0
17513,61.0,96.0,15.0,5.0,0.0
17514,70.0,0.0,90.0,5.0,0.0
17515,58.0,0.0,90.0,6.0,0.0
17516,42.0,0.0,180.0,7.0,0.0
17517,66.0,96.0,15.0,5.0,0.0
17518,61.0,0.0,15.0,5.0,0.0
17519,49.0,0.0,15.0,4.0,0.0
17520,57.0,0.0,90.0,6.0,0.0
17521,69.0,0.0,90.0,5.0,0.0
17522,37.0,0.0,180.0,7.0,0.0
17523,68.0,96.0,90.0,5.0,0.0
17524,49.0,96.0,15.0,4.0,0.0
17525,65.0,0.0,90.0,5.0,0.0
17526,61.0,0.0,90.0,5.0,0.0
17527,56.0,0.0,90.0,6.0,0.0
17528,55.0,0.0,90.0,4.0,0.0
17529,52.0,0.0,90.0,4.0,0.0
17530,43.0,96.0,90.0,6.0,0.0
17531,49.0,0.0,15.0,4.0,0.0
17532,53.0,0.0,90.0,4.0,0.0
17533,56.0,96.0,90.0,4.0,0.0
17534,37.0,0.0,180.0,6.0,0.0
17535,44.0,0.0,90.0,6.0,0.0
17536,45.0,0.0,90.0,6.0,0.0
17537,47.0,0.0,90.0,4.0,0.0
17538,53.0,0.0,90.0,4.0,0.0
17539,57.0,96.0,90.0,4.0,0.0
17540,54.0,0.0,90.0,4.0,0.0
17541,58.0,0.0,90.0,4.0,0.0
17542,46.0,0.0,90.0,4.0,0.0
17543,42.0,96.0,180.0,6.0,0.0
17544,46.0,96.0,90.0,6.0,0.0
17545,58.0,0.0,90.0,4.0,0.0
17546,46.0,0.0,90.0,6.0,0.0
17547,55.0,0.0,90.0,4.0,0.0
17548,52.0,0.0,90.0,4.0,0.0
17549,37.0,0.0,180.0,6.0,0.0
17550,59.0,0.0,90.0,4.0,0.0
17551,53.0,0.0,90.0,4.0,0.0
17552,56.0,0.0,90.0,4.0,0.0
17553,47.0,96.0,90.0,6.0,0.0
17554,48.0,0.0,90.0,6.0,0.0
17555,57.0,96.0,90.0,4.0,0.0
17556,60.0,0.0,90.0,4.0,0.0
17557,51.0,0.0,90.0,4.0,0.0
17558,61.0,0.0,90.0,4.0,0.0
17559,42.0,0.0,180.0,6.0,0.0
17560,49.0,0.0,90.0,6.0,0.0
17561,49.0,0.0,90.0,4.0,0.0
17562,62.0,96.0,90.0,4.0,0.0
17563,50.0,0.0,90.0,6.0,0.0
17564,58.0,96.0,15.0,4.0,0.0
17565,52.0,0.0,90.0,4.0,0.0
17566,59.0,96.0,90.0,4.0,0.0
17567,51.0,0.0,90.0,6.0,0.0
17568,51.0,0.0,90.0,4.0,0.0
17569,47.0,0.0,90.0,6.0,0.0
17570,63.0,0.0,90.0,4.0,0.0
17571,66.0,0.0,90.0,4.0,0.0
17572,54.0,0.0,90.0,6.0,0.0
17573,48.0,96.0,90.0,6.0,0.0
17574,63.0,0.0,90.0,4.0,0.0
17575,57.0,0.0,90.0,4.0,0.0
17576,56.0,0.0,90.0,4.0,0.0
17577,53.0,0.0,90.0,6.0,0.0
17578,61.0,0.0,90.0,4.0,0.0
17579,49.0,96.0,90.0,6.0,0.0
17580,68.0,0.0,90.0,4.0,0.0
17581,59.0,0.0,90.0,4.0,0.0
17582,65.0,0.0,15.0,4.0,0.0
17583,56.0,96.0,90.0,6.0,0.0
17584,50.0,0.0,90.0,6.0,0.0
17585,63.0,0.0,90.0,4.0,0.0
17586,58.0,0.0,90.0,4.0,0.0
17587,67.0,0.0,90.0,4.0,0.0
17588,51.0,0.0,90.0,6.0,0.0
17589,55.0,96.0,90.0,6.0,0.0
17590,67.0,0.0,90.0,4.0,0.0
17591,61.0,0.0,90.0,4.0,0.0
17592,70.0,0.0,90.0,4.0,0.0
17593,52.0,96.0,90.0,6.0,0.0
17594,58.0,0.0,90.0,6.0,0.0
17595,60.0,0.0,90.0,4.0,0.0
17596,65.0,0.0,90.0,4.0,0.0
17597,69.0,0.0,90.0,4.0,0.0
17598,57.0,96.0,90.0,6.0,0.0
17599,53.0,0.0,90.0,6.0,0.0
17600,52.0,0.0,90.0,6.0,0.0
17601,70.0,96.0,90.0,4.0,0.0
17602,58.0,0.0,90.0,6.0,0.0
17603,61.0,0.0,90.0,4.0,0.0
17604,67.0,0.0,90.0,4.0,0.0
17605,60.0,0.0,90.0,4.0,0.0
17606,65.0,0.0,90.0,4.0,0.0
17607,57.0,96.0,90.0,6.0,0.0
17608,69.0,0.0,90.0,4.0,0.0
17609,53.0,0.0,90.0,6.0,0.0
17610,41.0,0.0,180.0,7.0,0.0
17611,45.0,96.0,90.0,4.0,0.0
17612,53.0,0.0,90.0,4.0,0.0
17613,53.0,0.0,90.0,6.0,0.0
17614,45.0,0.0,90.0,6.0,0.0
17615,46.0,0.0,90.0,4.0,0.0
17616,55.0,96.0,90.0,4.0,0.0
17617,46.0,0.0,90.0,6.0,0.0
17618,55.0,0.0,90.0,6.0,0.0
17619,40.0,0.0,90.0,6.0,0.0
17620,48.0,0.0,90.0,6.0,0.0
17621,57.0,0.0,90.0,6.0,0.0
17622,39.0,0.0,90.0,7.0,0.0
17623,41.0,96.0,180.0,6.0,0.0
17624,48.0,96.0,90.0,4.0,0.0
17625,57.0,0.0,90.0,4.0,0.0
17626,53.0,0.0,90.0,6.0,0.0
17627,53.0,0.0,90.0,4.0,0.0
17628,58.0,0.0,90.0,6.0,0.0
17629,38.0,0.0,90.0,7.0,0.0
17630,37.0,0.0,90.0,7.0,0.0
17631,58.0,0.0,15.0,4.0,0.0
17632,52.0,0.0,90.0,4.0,0.0
17633,52.0,0.0,90.0,6.0,0.0
17634,42.0,0.0,180.0,6.0,0.0
17635,58.0,0.0,90.0,6.0,0.0
17636,51.0,0.0,90.0,6.0,0.0
17637,35.0,0.0,180.0,7.0,0.0
17638,51.0,0.0,90.0,4.0,0.0
17639,59.0,96.0,90.0,4.0,0.0
17640,59.0,0.0,90.0,6.0,0.0
17641,54.0,0.0,90.0,6.0,0.0
17642,47.0,0.0,90.0,4.0,0.0
17643,47.0,96.0,90.0,6.0,0.0
17644,39.0,0.0,90.0,6.0,0.0
17645,54.0,0.0,90.0,4.0,0.0
17646,50.0,0.0,90.0,6.0,0.0
17647,50.0,0.0,90.0,4.0,0.0
17648,38.0,0.0,90.0,6.0,0.0
17649,35.0,96.0,90.0,7.0,0.0
17650,49.0,96.0,90.0,4.0,0.0
17651,49.0,0.0,90.0,6.0,0.0
17652,55.0,0.0,15.0,6.0,0.0
17653,55.0,0.0,15.0,4.0,0.0
17654,39.0,0.0,180.0,6.0,0.0
17655,34.0,0.0,90.0,7.0,0.0
17656,48.0,0.0,180.0,6.0,0.0
17657,48.0,96.0,180.0,4.0,0.0
17658,56.0,0.0,90.0,4.0,0.0
17659,56.0,96.0,90.0,6.0,0.0
17660,36.0,0.0,90.0,6.0,0.0
17661,51.0,0.0,90.0,6.0,0.0
17662,51.0,0.0,90.0,4.0,0.0
17663,54.0,0.0,90.0,6.0,0.0
17664,32.0,0.0,15.0,7.0,0.0
17665,54.0,0.0,90.0,4.0,0.0
17666,38.0,96.0,90.0,6.0,0.0
17667,47.0,0.0,180.0,6.0,0.0
17668,47.0,0.0,180.0,4.0,0.0
17669,35.0,0.0,90.0,6.0,0.0
17670,53.0,0.0,90.0,4.0,0.0
17671,53.0,96.0,90.0,6.0,0.0
17672,37.0,0.0,90.0,6.0,0.0
17673,54.0,0.0,90.0,4.0,0.0
17674,30.0,0.0,90.0,7.0,0.0
17675,46.0,0.0,90.0,4.0,0.0
17676,46.0,96.0,90.0,6.0,0.0
17677,54.0,0.0,90.0,6.0,0.0
17678,52.0,0.0,90.0,4.0,0.0
17679,55.0,0.0,90.0,6.0,0.0
17680,55.0,0.0,90.0,5.0,0.0
17681,46.0,96.0,90.0,4.0,0.0
17682,52.0,0.0,90.0,5.0,0.0
17683,56.0,0.0,90.0,6.0,0.0
17684,53.0,0.0,90.0,4.0,0.0
17685,56.0,0.0,90.0,5.0,0.0
17686,53.0,0.0,90.0,5.0,0.0
17687,37.0,96.0,180.0,7.0,0.0
17688,49.0,96.0,90.0,4.0,0.0
17689,57.0,0.0,90.0,6.0,0.0
17690,57.0,0.0,90.0,5.0,0.0
17691,53.0,0.0,90.0,5.0,0.0
17692,53.0,0.0,90.0,4.0,0.0
17693,47.0,0.0,90.0,4.0,0.0
17694,58.0,0.0,90.0,5.0,0.0
17695,54.0,0.0,90.0,5.0,0.0
17696,58.0,0.0,90.0,6.0,0.0
17697,42.0,96.0,180.0,7.0,0.0
17698,54.0,0.0,90.0,4.0,0.0
17699,46.0,96.0,90.0,4.0,0.0
17700,42.0,0.0,180.0,6.0,0.0
17701,58.0,0.0,90.0,6.0,0.0
17702,55.0,0.0,90.0,4.0,0.0
17703,55.0,0.0,90.0,5.0,0.0
17704,52.0,0.0,90.0,5.0,0.0
17705,52.0,0.0,90.0,4.0,0.0
17706,58.0,0.0,90.0,5.0,0.0
17707,37.0,0.0,180.0,6.0,0.0
17708,59.0,0.0,90.0,6.0,0.0
17709,53.0,0.0,90.0,5.0,0.0
17710,56.0,0.0,90.0,5.0,0.0
17711,59.0,0.0,90.0,5.0,0.0
17712,56.0,96.0,90.0,4.0,0.0
17713,53.0,0.0,90.0,4.0,0.0
17714,37.0,0.0,180.0,7.0,0.0
17715,60.0,0.0,90.0,5.0,0.0
17716,51.0,0.0,90.0,5.0,0.0
17717,57.0,0.0,90.0,5.0,0.0
17718,51.0,0.0,90.0,4.0,0.0
17719,60.0,0.0,90.0,6.0,0.0
17720,57.0,96.0,90.0,4.0,0.0
17721,61.0,0.0,90.0,5.0,0.0
17722,61.0,0.0,90.0,6.0,0.0
17723,49.0,0.0,90.0,4.0,0.0
17724,42.0,0.0,180.0,6.0,0.0
17725,49.0,0.0,90.0,5.0,0.0
17726,58.0,0.0,90.0,4.0,0.0
17727,52.0,96.0,90.0,4.0,0.0
17728,62.0,0.0,90.0,5.0,0.0
17729,58.0,0.0,90.0,4.0,0.0
17730,58.0,96.0,15.0,5.0,0.0
17731,62.0,0.0,90.0,6.0,0.0
17732,52.0,0.0,90.0,5.0,0.0
17733,59.0,96.0,90.0,4.0,0.0
17734,63.0,0.0,90.0,6.0,0.0
17735,35.0,0.0,90.0,6.0,0.0
17736,51.0,0.0,90.0,5.0,0.0
17737,35.0,0.0,90.0,7.0,0.0
17738,51.0,0.0,90.0,4.0,0.0
17739,59.0,0.0,90.0,5.0,0.0
17740,36.0,96.0,90.0,6.0,0.0
17741,63.0,0.0,15.0,5.0,0.0
17742,36.0,0.0,90.0,7.0,0.0
17743,63.0,0.0,90.0,4.0,0.0
17744,57.0,0.0,90.0,4.0,0.0
17745,66.0,0.0,90.0,6.0,0.0
17746,66.0,0.0,90.0,5.0,0.0
17747,57.0,0.0,90.0,5.0,0.0
17748,65.0,96.0,90.0,6.0,0.0
17749,37.0,0.0,90.0,7.0,0.0
17750,56.0,0.0,90.0,4.0,0.0
17751,65.0,0.0,90.0,5.0,0.0
17752,37.0,0.0,90.0,6.0,0.0
17753,56.0,0.0,90.0,5.0,0.0
17754,61.0,0.0,90.0,4.0,0.0
17755,61.0,0.0,90.0,5.0,0.0
17756,65.0,0.0,90.0,5.0,0.0
17757,59.0,0.0,90.0,5.0,0.0
17758,65.0,0.0,90.0,4.0,0.0
17759,59.0,96.0,90.0,4.0,0.0
17760,68.0,0.0,90.0,5.0,0.0
17761,38.0,0.0,90.0,6.0,0.0
17762,68.0,0.0,90.0,6.0,0.0
17763,38.0,0.0,90.0,7.0,0.0
17764,67.0,0.0,90.0,5.0,0.0
17765,63.0,96.0,90.0,4.0,0.0
17766,39.0,0.0,90.0,7.0,0.0
17767,67.0,0.0,90.0,6.0,0.0
17768,58.0,0.0,90.0,5.0,0.0
17769,63.0,0.0,90.0,5.0,0.0
17770,39.0,0.0,90.0,6.0,0.0
17771,58.0,0.0,90.0,4.0,0.0
17772,70.0,0.0,90.0,5.0,0.0
17773,70.0,0.0,90.0,6.0,0.0
17774,61.0,0.0,90.0,4.0,0.0
17775,40.0,0.0,90.0,6.0,0.0
17776,61.0,0.0,90.0,5.0,0.0
17777,67.0,96.0,90.0,4.0,0.0
17778,67.0,0.0,90.0,5.0,0.0
17779,40.0,0.0,90.0,7.0,0.0
17780,69.0,0.0,90.0,5.0,0.0
17781,69.0,0.0,90.0,6.0,0.0
17782,41.0,0.0,90.0,7.0,0.0
17783,60.0,0.0,90.0,4.0,0.0
17784,41.0,96.0,90.0,6.0,0.0
17785,65.0,0.0,90.0,5.0,0.0
17786,60.0,0.0,90.0,5.0,0.0
17787,65.0,0.0,90.0,4.0,0.0
17788,40.0,0.0,90.0,7.0,0.0
17789,61.0,0.0,90.0,4.0,0.0
17790,70.0,0.0,90.0,6.0,0.0
17791,67.0,0.0,90.0,5.0,0.0
17792,61.0,0.0,90.0,5.0,0.0
17793,67.0,96.0,90.0,4.0,0.0
17794,70.0,0.0,90.0,5.0,0.0
17795,40.0,0.0,90.0,6.0,0.0
17796,60.0,0.0,90.0,5.0,0.0
17797,41.0,0.0,90.0,6.0,0.0
17798,41.0,96.0,90.0,7.0,0.0
17799,69.0,0.0,90.0,5.0,0.0
17800,65.0,0.0,90.0,5.0,0.0
17801,60.0,0.0,90.0,4.0,0.0
17802,69.0,0.0,90.0,6.0,0.0
17803,65.0,0.0,90.0,4.0,0.0
17804,57.0,0.0,90.0,5.0,0.0
17805,53.0,0.0,90.0,6.0,0.0
17806,53.0,0.0,90.0,4.0,0.0
17807,45.0,0.0,90.0,4.0,0.0
17808,41.0,0.0,90.0,7.0,0.0
17809,40.0,0.0,90.0,7.0,0.0
17810,58.0,0.0,90.0,5.0,0.0
17811,55.0,0.0,90.0,4.0,0.0
17812,55.0,0.0,90.0,6.0,0.0
17813,46.0,0.0,90.0,4.0,0.0
17814,57.0,96.0,90.0,6.0,0.0
17815,53.0,0.0,15.0,5.0,0.0
17816,41.0,0.0,15.0,6.0,0.0
17817,60.0,0.0,90.0,5.0,0.0
17818,53.0,0.0,15.0,4.0,0.0
17819,57.0,0.0,90.0,4.0,0.0
17820,39.0,0.0,90.0,7.0,0.0
17821,48.0,0.0,90.0,4.0,0.0
17822,46.0,0.0,90.0,4.0,0.0
17823,38.0,0.0,90.0,7.0,0.0
17824,58.0,0.0,90.0,5.0,0.0
17825,58.0,0.0,90.0,5.0,0.0
17826,42.0,0.0,180.0,6.0,0.0
17827,58.0,0.0,15.0,4.0,0.0
17828,52.0,0.0,90.0,4.0,0.0
17829,52.0,0.0,90.0,5.0,0.0
17830,54.0,0.0,180.0,5.0,0.0
17831,37.0,96.0,90.0,7.0,0.0
17832,46.0,0.0,90.0,4.0,0.0
17833,58.0,0.0,90.0,4.0,0.0
17834,58.0,96.0,15.0,6.0,0.0
17835,52.0,0.0,90.0,6.0,0.0
17836,51.0,0.0,180.0,6.0,0.0
17837,47.0,0.0,180.0,4.0,0.0
17838,51.0,0.0,180.0,4.0,0.0
17839,59.0,0.0,90.0,4.0,0.0
17840,59.0,0.0,90.0,6.0,0.0
17841,35.0,0.0,180.0,7.0,0.0
17842,39.0,0.0,90.0,6.0,0.0
17843,54.0,0.0,90.0,6.0,0.0
17844,51.0,0.0,90.0,5.0,0.0
17845,54.0,0.0,90.0,4.0,0.0
17846,43.0,0.0,90.0,4.0,0.0
17847,50.0,0.0,90.0,6.0,0.0
17848,50.0,96.0,90.0,5.0,0.0
17849,59.0,0.0,15.0,5.0,0.0
17850,55.0,0.0,90.0,4.0,0.0
17851,38.0,0.0,90.0,6.0,0.0
17852,50.0,0.0,90.0,4.0,0.0
17853,35.0,0.0,90.0,7.0,0.0
17854,55.0,0.0,15.0,6.0,0.0
17855,49.0,0.0,90.0,6.0,0.0
17856,34.0,96.0,90.0,7.0,0.0
17857,49.0,0.0,90.0,4.0,0.0
17858,55.0,0.0,15.0,5.0,0.0
17859,58.0,0.0,90.0,5.0,0.0
17860,39.0,0.0,180.0,6.0,0.0
17861,51.0,0.0,180.0,5.0,0.0
17862,43.0,0.0,90.0,4.0,0.0
17863,55.0,0.0,90.0,4.0,0.0
17864,48.0,0.0,180.0,6.0,0.0
17865,56.0,0.0,90.0,6.0,0.0
17866,44.0,0.0,180.0,4.0,0.0
17867,48.0,0.0,180.0,4.0,0.0
17868,56.0,0.0,390.0,5.0,0.0
17869,56.0,0.0,90.0,4.0,0.0
17870,32.0,0.0,300.0,7.0,0.0
17871,36.0,0.0,90.0,6.0,0.0
17872,51.0,0.0,90.0,4.0,0.0
17873,51.0,0.0,90.0,6.0,0.0
17874,47.0,0.0,180.0,4.0,0.0
17875,47.0,0.0,180.0,6.0,0.0
17876,50.0,0.0,180.0,5.0,0.0
17877,54.0,0.0,90.0,6.0,0.0
17878,54.0,0.0,90.0,4.0,0.0
17879,44.0,192.0,180.0,4.0,0.0
17880,38.0,0.0,90.0,6.0,0.0
17881,53.0,0.0,90.0,6.0,0.0
17882,35.0,0.0,90.0,6.0,0.0
17883,53.0,0.0,90.0,4.0,0.0
17884,46.0,0.0,180.0,6.0,0.0
17885,30.0,0.0,180.0,7.0,0.0
17886,54.0,0.0,180.0,6.0,0.0
17887,49.0,0.0,180.0,5.0,0.0
17888,49.0,0.0,180.0,4.0,0.0
17889,54.0,0.0,180.0,4.0,0.0
17890,37.0,0.0,180.0,6.0,0.0
17891,46.0,48.0,180.0,4.0,0.0
17892,58.0,0.0,180.0,5.0,0.0
17893,54.0,0.0,180.0,5.0,0.0
17894,39.0,48.0,60.0,14.0,0.0
17895,54.0,0.0,150.0,13.0,0.0
17896,27.0,0.0,390.0,15.0,0.0
17897,51.0,0.0,300.0,12.0,0.0
17898,51.0,48.0,60.0,14.0,0.0
17899,54.0,48.0,60.0,14.0,0.0
17900,56.0,0.0,60.0,13.0,0.0
17901,58.0,48.0,60.0,14.0,0.0
17902,63.0,0.0,180.0,2.0,0.0
17903,63.0,16.0,60.0,14.0,0.0
17904,63.0,32.0,60.0,13.0,0.0
17905,59.0,32.0,60.0,14.0,0.0
17906,59.0,16.0,60.0,13.0,0.0
17907,56.0,16.0,60.0,14.0,0.0
17908,56.0,32.0,30.0,13.0,0.0
17909,51.0,48.0,60.0,14.0,0.0
17910,58.0,0.0,30.0,13.0,0.0
17911,63.0,32.0,60.0,13.0,0.0
17912,63.0,16.0,60.0,14.0,0.0
17913,27.0,48.0,390.0,15.0,0.0
17914,63.0,0.0,180.0,2.0,0.0
17915,58.0,32.0,60.0,14.0,0.0
17916,58.0,16.0,60.0,13.0,0.0
17917,54.0,16.0,60.0,14.0,0.0
17918,54.0,32.0,30.0,13.0,0.0
17919,51.0,0.0,60.0,14.0,0.0
17920,59.0,48.0,30.0,13.0,0.0
17921,65.0,0.0,180.0,2.0,0.0
17922,62.0,16.0,60.0,14.0,0.0
17923,65.0,32.0,60.0,13.0,0.0
17924,59.0,32.0,60.0,14.0,0.0
17925,59.0,16.0,60.0,13.0,0.0
17926,56.0,16.0,60.0,14.0,0.0
17927,56.0,32.0,30.0,13.0,0.0
17928,51.0,0.0,60.0,14.0,0.0
17929,58.0,0.0,30.0,13.0,0.0
17930,66.0,0.0,180.0,2.0,0.0
17931,63.0,16.0,60.0,14.0,0.0
17932,39.0,0.0,390.0,15.0,0.0
17933,66.0,32.0,60.0,13.0,0.0
17934,58.0,32.0,60.0,14.0,0.0
17935,63.0,16.0,60.0,13.0,0.0
17936,54.0,16.0,60.0,14.0,0.0
17937,58.0,32.0,30.0,13.0,0.0
17938,51.0,48.0,60.0,14.0,0.0
17939,56.0,0.0,30.0,13.0,0.0
17940,65.0,48.0,180.0,2.0,0.0
17941,65.0,32.0,60.0,13.0,0.0
17942,62.0,16.0,60.0,14.0,0.0
17943,59.0,32.0,60.0,14.0,0.0
17944,59.0,16.0,60.0,13.0,0.0
17945,56.0,16.0,60.0,14.0,0.0
17946,56.0,32.0,30.0,13.0,0.0
17947,51.0,0.0,60.0,14.0,0.0
17948,54.0,0.0,330.0,13.0,0.0
17949,63.0,48.0,60.0,14.0,0.0
17950,58.0,0.0,300.0,2.0,0.0
17951,54.0,24.0,300.0,12.0,0.0
17952,58.0,48.0,60.0,14.0,0.0
17953,54.0,48.0,60.0,14.0,0.0
17954,51.0,48.0,60.0,14.0,0.0
17955,56.0,48.0,60.0,14.0,0.0
17956,51.0,0.0,60.0,14.0,0.0
17957,59.0,0.0,90.0,13.0,0.0
17958,47.0,16.0,60.0,14.0,0.0
17959,59.0,24.0,20.0,2.0,0.0
17960,56.0,0.0,90.0,12.0,0.0
17961,61.0,0.0,20.0,2.0,0.0
17962,59.0,16.0,15.0,2.0,0.0
17963,44.0,0.0,60.0,14.0,0.0
17964,61.0,16.0,15.0,2.0,0.0
17965,59.0,0.0,15.0,2.0,0.0
17966,39.0,48.0,60.0,14.0,0.0
17967,58.0,0.0,150.0,13.0,0.0
17968,58.0,48.0,90.0,2.0,0.0
17969,27.0,48.0,15.0,15.0,0.0
17970,55.0,16.0,240.0,12.0,0.0
17971,51.0,0.0,60.0,14.0,0.0
17972,55.0,48.0,60.0,14.0,0.0
17973,59.0,48.0,60.0,13.0,0.0
17974,58.0,0.0,60.0,14.0,0.0
17975,68.0,48.0,180.0,2.0,0.0
17976,63.0,0.0,60.0,14.0,0.0
17977,68.0,32.0,60.0,13.0,0.0
17978,59.0,32.0,60.0,14.0,0.0
17979,63.0,16.0,60.0,13.0,0.0
17980,56.0,16.0,60.0,14.0,0.0
17981,59.0,32.0,30.0,13.0,0.0
17982,51.0,0.0,60.0,14.0,0.0
17983,61.0,0.0,30.0,13.0,0.0
17984,70.0,32.0,60.0,13.0,0.0
17985,70.0,0.0,180.0,2.0,0.0
17986,63.0,16.0,60.0,14.0,0.0
17987,27.0,0.0,390.0,15.0,0.0
17988,58.0,32.0,60.0,14.0,0.0
17989,67.0,16.0,60.0,13.0,0.0
17990,55.0,16.0,60.0,14.0,0.0
17991,61.0,32.0,30.0,13.0,0.0
17992,51.0,48.0,60.0,14.0,0.0
17993,63.0,0.0,30.0,13.0,0.0
17994,63.0,16.0,60.0,14.0,0.0
17995,71.0,48.0,180.0,2.0,0.0
17996,71.0,32.0,60.0,13.0,0.0
17997,59.0,32.0,60.0,14.0,0.0
17998,68.0,16.0,60.0,13.0,0.0
17999,56.0,16.0,60.0,14.0,0.0
18000,63.0,32.0,30.0,13.0,0.0
18001,51.0,0.0,60.0,14.0,0.0
18002,61.0,0.0,30.0,13.0,0.0
18003,70.0,32.0,60.0,13.0,0.0
18004,39.0,48.0,390.0,15.0,0.0
18005,63.0,16.0,60.0,14.0,0.0
18006,70.0,0.0,180.0,2.0,0.0
18007,58.0,32.0,60.0,14.0,0.0
18008,67.0,16.0,60.0,13.0,0.0
18009,55.0,16.0,60.0,14.0,0.0
18010,61.0,32.0,30.0,13.0,0.0
18011,51.0,0.0,60.0,14.0,0.0
18012,58.0,48.0,30.0,13.0,0.0
18013,67.0,0.0,180.0,2.0,0.0
18014,63.0,16.0,60.0,14.0,0.0
18015,67.0,32.0,60.0,13.0,0.0
18016,58.0,32.0,60.0,14.0,0.0
18017,61.0,16.0,60.0,13.0,0.0
18018,55.0,16.0,60.0,14.0,0.0
18019,58.0,32.0,30.0,13.0,0.0
18020,51.0,0.0,60.0,14.0,0.0
18021,56.0,0.0,30.0,13.0,0.0
18022,59.0,16.0,60.0,14.0,0.0
18023,63.0,0.0,180.0,2.0,0.0
18024,63.0,32.0,60.0,13.0,0.0
18025,35.0,48.0,390.0,15.0,0.0
18026,56.0,32.0,60.0,14.0,0.0
18027,59.0,16.0,60.0,13.0,0.0
18028,51.0,16.0,60.0,14.0,0.0
18029,56.0,32.0,30.0,13.0,0.0
18030,47.0,0.0,60.0,14.0,0.0
18031,50.0,48.0,30.0,13.0,0.0
18032,58.0,16.0,60.0,14.0,0.0
18033,53.0,32.0,60.0,13.0,0.0
18034,53.0,32.0,60.0,14.0,0.0
18035,58.0,16.0,60.0,13.0,0.0
18036,50.0,48.0,60.0,14.0,0.0
18037,56.0,0.0,60.0,13.0,0.0
18038,46.0,0.0,60.0,14.0,0.0
18039,54.0,48.0,150.0,13.0,0.0
18040,39.0,48.0,60.0,14.0,0.0
18041,51.0,0.0,300.0,12.0,0.0
18042,27.0,0.0,390.0,15.0,0.0
18043,51.0,48.0,60.0,14.0,0.0
18044,54.0,0.0,60.0,14.0,0.0
18045,58.0,0.0,60.0,14.0,0.0
18046,56.0,48.0,60.0,13.0,0.0
18047,63.0,32.0,60.0,13.0,0.0
18048,63.0,16.0,60.0,14.0,0.0
18049,59.0,32.0,60.0,14.0,0.0
18050,59.0,16.0,60.0,13.0,0.0
18051,56.0,16.0,60.0,14.0,0.0
18052,56.0,32.0,30.0,13.0,0.0
18053,51.0,48.0,60.0,14.0,0.0
18054,58.0,0.0,30.0,13.0,0.0
18055,63.0,0.0,15.0,2.0,0.0
18056,63.0,16.0,60.0,14.0,0.0
18057,63.0,32.0,60.0,13.0,0.0
18058,27.0,0.0,390.0,15.0,0.0
18059,58.0,32.0,60.0,14.0,0.0
18060,58.0,16.0,60.0,13.0,0.0
18061,54.0,16.0,60.0,14.0,0.0
18062,54.0,32.0,30.0,13.0,0.0
18063,51.0,0.0,60.0,14.0,0.0
18064,59.0,0.0,30.0,13.0,0.0
18065,65.0,32.0,60.0,13.0,0.0
18066,65.0,48.0,180.0,2.0,0.0
18067,62.0,16.0,60.0,14.0,0.0
18068,59.0,32.0,60.0,14.0,0.0
18069,59.0,16.0,60.0,13.0,0.0
18070,56.0,16.0,60.0,14.0,0.0
18071,56.0,32.0,30.0,13.0,0.0
18072,51.0,0.0,60.0,14.0,0.0
18073,58.0,0.0,30.0,13.0,0.0
18074,39.0,0.0,390.0,15.0,0.0
18075,66.0,0.0,180.0,2.0,0.0
18076,63.0,16.0,60.0,14.0,0.0
18077,66.0,32.0,60.0,13.0,0.0
18078,58.0,32.0,60.0,14.0,0.0
18079,63.0,16.0,60.0,13.0,0.0
18080,54.0,16.0,60.0,14.0,0.0
18081,58.0,32.0,30.0,13.0,0.0
18082,51.0,48.0,60.0,14.0,0.0
18083,56.0,0.0,30.0,13.0,0.0
18084,65.0,48.0,180.0,2.0,0.0
18085,65.0,32.0,60.0,13.0,0.0
18086,62.0,16.0,60.0,14.0,0.0
18087,59.0,32.0,60.0,14.0,0.0
18088,59.0,16.0,60.0,13.0,0.0
18089,56.0,16.0,60.0,14.0,0.0
18090,56.0,32.0,30.0,13.0,0.0
18091,51.0,0.0,60.0,14.0,0.0
18092,54.0,0.0,330.0,13.0,0.0
18093,54.0,0.0,300.0,12.0,0.0
18094,58.0,24.0,300.0,2.0,0.0
18095,63.0,48.0,60.0,14.0,0.0
18096,27.0,48.0,390.0,15.0,0.0
18097,58.0,48.0,60.0,14.0,0.0
18098,54.0,48.0,60.0,14.0,0.0
18099,51.0,48.0,60.0,14.0,0.0
18100,56.0,48.0,60.0,14.0,0.0
18101,51.0,0.0,60.0,14.0,0.0
18102,59.0,24.0,20.0,2.0,0.0
18103,56.0,0.0,90.0,12.0,0.0
18104,47.0,16.0,60.0,14.0,0.0
18105,59.0,0.0,90.0,13.0,0.0
18106,61.0,0.0,20.0,2.0,0.0
18107,59.0,16.0,15.0,2.0,0.0
18108,44.0,0.0,60.0,14.0,0.0
18109,61.0,16.0,15.0,2.0,0.0
18110,59.0,0.0,15.0,2.0,0.0
18111,58.0,48.0,90.0,2.0,0.0
18112,55.0,16.0,240.0,12.0,0.0
18113,58.0,48.0,150.0,13.0,0.0
18114,39.0,48.0,60.0,14.0,0.0
18115,27.0,0.0,390.0,15.0,0.0
18116,51.0,0.0,60.0,14.0,0.0
18117,55.0,0.0,60.0,14.0,0.0
18118,58.0,0.0,60.0,14.0,0.0
18119,59.0,48.0,60.0,13.0,0.0
18120,68.0,0.0,180.0,2.0,0.0
18121,63.0,0.0,60.0,14.0,0.0
18122,68.0,32.0,60.0,13.0,0.0
18123,59.0,32.0,60.0,14.0,0.0
18124,63.0,16.0,60.0,13.0,0.0
18125,56.0,16.0,60.0,14.0,0.0
18126,59.0,32.0,30.0,13.0,0.0
18127,51.0,0.0,60.0,14.0,0.0
18128,61.0,48.0,30.0,13.0,0.0
18129,70.0,0.0,180.0,2.0,0.0
18130,63.0,16.0,60.0,14.0,0.0
18131,27.0,48.0,390.0,15.0,0.0
18132,70.0,32.0,60.0,13.0,0.0
18133,58.0,32.0,60.0,14.0,0.0
18134,67.0,16.0,60.0,13.0,0.0
18135,55.0,16.0,60.0,14.0,0.0
18136,61.0,32.0,30.0,13.0,0.0
18137,51.0,0.0,60.0,14.0,0.0
18138,63.0,48.0,30.0,13.0,0.0
18139,71.0,0.0,180.0,2.0,0.0
18140,63.0,16.0,60.0,14.0,0.0
18141,71.0,32.0,60.0,13.0,0.0
18142,59.0,32.0,60.0,14.0,0.0
18143,68.0,16.0,60.0,13.0,0.0
18144,56.0,16.0,60.0,14.0,0.0
18145,63.0,32.0,30.0,13.0,0.0
18146,51.0,0.0,60.0,14.0,0.0
18147,61.0,0.0,30.0,13.0,0.0
18148,63.0,16.0,60.0,14.0,0.0
18149,70.0,0.0,180.0,2.0,0.0
18150,70.0,32.0,60.0,13.0,0.0
18151,39.0,0.0,390.0,15.0,0.0
18152,58.0,32.0,60.0,14.0,0.0
18153,67.0,16.0,60.0,13.0,0.0
18154,55.0,16.0,60.0,14.0,0.0
18155,61.0,32.0,30.0,13.0,0.0
18156,51.0,48.0,60.0,14.0,0.0
18157,58.0,0.0,30.0,13.0,0.0
18158,67.0,0.0,180.0,2.0,0.0
18159,67.0,32.0,60.0,13.0,0.0
18160,63.0,16.0,60.0,14.0,0.0
18161,58.0,32.0,60.0,14.0,0.0
18162,61.0,16.0,60.0,13.0,0.0
18163,55.0,16.0,60.0,14.0,0.0
18164,58.0,32.0,30.0,13.0,0.0
18165,51.0,48.0,60.0,14.0,0.0
18166,56.0,0.0,30.0,13.0,0.0
18167,35.0,0.0,390.0,15.0,0.0
18168,59.0,16.0,60.0,14.0,0.0
18169,63.0,32.0,60.0,13.0,0.0
18170,63.0,48.0,180.0,2.0,0.0
18171,56.0,32.0,60.0,14.0,0.0
18172,59.0,16.0,60.0,13.0,0.0
18173,51.0,16.0,60.0,14.0,0.0
18174,56.0,32.0,30.0,13.0,0.0
18175,47.0,0.0,60.0,14.0,0.0
18176,50.0,0.0,30.0,13.0,0.0
18177,53.0,32.0,60.0,13.0,0.0
18178,58.0,16.0,60.0,14.0,0.0
18179,53.0,32.0,60.0,14.0,0.0
18180,58.0,16.0,60.0,13.0,0.0
18181,50.0,16.0,60.0,14.0,0.0
18182,56.0,32.0,30.0,13.0,0.0
18183,46.0,0.0,60.0,14.0,0.0
18184,53.0,48.0,30.0,13.0,0.0
18185,34.0,48.0,60.0,14.0,0.0
18186,56.0,48.0,180.0,2.0,0.0
18187,56.0,0.0,150.0,13.0,0.0
18188,46.0,48.0,60.0,14.0,0.0
18189,50.0,48.0,60.0,14.0,0.0
18190,58.0,0.0,60.0,13.0,0.0
18191,53.0,0.0,60.0,14.0,0.0
18192,66.0,0.0,60.0,13.0,0.0
18193,58.0,16.0,60.0,14.0,0.0
18194,66.0,32.0,60.0,2.0,0.0
18195,54.0,32.0,60.0,14.0,0.0
18196,63.0,16.0,60.0,13.0,0.0
18197,63.0,0.0,60.0,2.0,0.0
18198,51.0,16.0,60.0,14.0,0.0
18199,54.0,0.0,60.0,2.0,0.0
18200,54.0,32.0,30.0,13.0,0.0
18201,46.0,48.0,60.0,14.0,0.0
18202,53.0,0.0,30.0,13.0,0.0
18203,56.0,48.0,180.0,2.0,0.0
18204,34.0,0.0,15.0,15.0,0.0
18205,56.0,0.0,150.0,13.0,0.0
18206,34.0,48.0,60.0,14.0,0.0
18207,46.0,48.0,60.0,14.0,0.0
18208,50.0,48.0,60.0,14.0,0.0
18209,58.0,0.0,60.0,13.0,0.0
18210,53.0,0.0,60.0,14.0,0.0
18211,66.0,0.0,60.0,13.0,0.0
18212,58.0,16.0,60.0,14.0,0.0
18213,66.0,32.0,60.0,2.0,0.0
18214,54.0,32.0,60.0,14.0,0.0
18215,62.0,0.0,60.0,13.0,0.0
18216,62.0,16.0,60.0,2.0,0.0
18217,51.0,16.0,60.0,14.0,0.0
18218,54.0,32.0,30.0,13.0,0.0
18219,54.0,0.0,60.0,2.0,0.0
18220,46.0,0.0,60.0,14.0,0.0
18221,51.0,48.0,30.0,13.0,0.0
18222,56.0,48.0,150.0,13.0,0.0
18223,35.0,0.0,390.0,15.0,0.0
18224,56.0,0.0,180.0,2.0,0.0
18225,35.0,48.0,60.0,14.0,0.0
18226,47.0,48.0,60.0,14.0,0.0
18227,51.0,0.0,60.0,14.0,0.0
18228,54.0,0.0,60.0,14.0,0.0
18229,58.0,48.0,60.0,13.0,0.0
18230,66.0,32.0,60.0,2.0,0.0
18231,61.0,16.0,60.0,14.0,0.0
18232,66.0,0.0,60.0,13.0,0.0
18233,58.0,32.0,60.0,14.0,0.0
18234,64.0,16.0,60.0,2.0,0.0
18235,64.0,0.0,60.0,13.0,0.0
18236,54.0,16.0,60.0,14.0,0.0
18237,58.0,32.0,30.0,13.0,0.0
18238,58.0,48.0,60.0,2.0,0.0
18239,49.0,0.0,60.0,14.0,0.0
18240,54.0,0.0,30.0,13.0,0.0
18241,59.0,48.0,150.0,13.0,0.0
18242,39.0,48.0,60.0,14.0,0.0
18243,39.0,0.0,390.0,15.0,0.0
18244,59.0,0.0,180.0,2.0,0.0
18245,51.0,48.0,60.0,14.0,0.0
18246,54.0,0.0,60.0,14.0,0.0
18247,59.0,0.0,60.0,14.0,0.0
18248,61.0,48.0,60.0,13.0,0.0
18249,68.0,32.0,60.0,2.0,0.0
18250,65.0,16.0,60.0,14.0,0.0
18251,68.0,0.0,60.0,13.0,0.0
18252,61.0,32.0,60.0,14.0,0.0
18253,61.0,16.0,60.0,13.0,0.0
18254,61.0,0.0,60.0,2.0,0.0
18255,56.0,16.0,60.0,14.0,0.0
18256,59.0,32.0,30.0,13.0,0.0
18257,59.0,48.0,60.0,2.0,0.0
18258,53.0,0.0,60.0,14.0,0.0
18259,58.0,0.0,30.0,13.0,0.0
18260,42.0,48.0,60.0,14.0,0.0
18261,61.0,0.0,150.0,13.0,0.0
18262,30.0,0.0,180.0,15.0,0.0
18263,61.0,0.0,180.0,2.0,0.0
18264,54.0,48.0,60.0,14.0,0.0
18265,58.0,48.0,60.0,14.0,0.0
18266,56.0,48.0,60.0,13.0,0.0
18267,61.0,0.0,60.0,14.0,0.0
18268,65.0,16.0,60.0,14.0,0.0
18269,62.0,0.0,180.0,2.0,0.0
18270,25.0,48.0,180.0,15.0,0.0
18271,62.0,32.0,60.0,13.0,0.0
18272,62.0,32.0,60.0,14.0,0.0
18273,59.0,16.0,60.0,13.0,0.0
18274,56.0,16.0,60.0,14.0,0.0
18275,56.0,32.0,30.0,13.0,0.0
18276,54.0,0.0,60.0,14.0,0.0
18277,58.0,0.0,30.0,13.0,0.0
18278,66.0,16.0,60.0,14.0,0.0
18279,61.0,0.0,180.0,2.0,0.0
18280,61.0,32.0,60.0,13.0,0.0
18281,34.0,0.0,390.0,15.0,0.0
18282,61.0,32.0,60.0,14.0,0.0
18283,58.0,16.0,60.0,13.0,0.0
18284,58.0,16.0,60.0,14.0,0.0
18285,54.0,32.0,30.0,13.0,0.0
18286,54.0,48.0,60.0,14.0,0.0
18287,59.0,0.0,30.0,13.0,0.0
18288,63.0,16.0,60.0,14.0,0.0
18289,66.0,32.0,60.0,13.0,0.0
18290,66.0,0.0,180.0,2.0,0.0
18291,59.0,32.0,60.0,14.0,0.0
18292,63.0,16.0,60.0,13.0,0.0
18293,54.0,16.0,60.0,14.0,0.0
18294,59.0,32.0,30.0,13.0,0.0
18295,51.0,0.0,60.0,14.0,0.0
18296,56.0,48.0,30.0,13.0,0.0
18297,64.0,32.0,60.0,13.0,0.0
18298,56.0,16.0,60.0,14.0,0.0
18299,64.0,0.0,180.0,2.0,0.0
18300,32.0,0.0,180.0,15.0,0.0
18301,52.0,32.0,60.0,14.0,0.0
18302,59.0,16.0,60.0,13.0,0.0
18303,47.0,16.0,60.0,14.0,0.0
18304,56.0,32.0,30.0,13.0,0.0
18305,44.0,48.0,60.0,14.0,0.0
18306,53.0,0.0,30.0,13.0,0.0
18307,62.0,32.0,60.0,13.0,0.0
18308,62.0,0.0,180.0,2.0,0.0
18309,34.0,0.0,180.0,15.0,0.0
18310,58.0,16.0,60.0,14.0,0.0
18311,53.0,32.0,60.0,14.0,0.0
18312,56.0,16.0,60.0,13.0,0.0
18313,50.0,16.0,60.0,14.0,0.0
18314,53.0,32.0,30.0,13.0,0.0
18315,46.0,48.0,60.0,14.0,0.0
18316,54.0,0.0,30.0,13.0,0.0
18317,63.0,0.0,300.0,2.0,0.0
18318,63.0,32.0,60.0,13.0,0.0
18319,27.0,0.0,180.0,15.0,0.0
18320,58.0,16.0,60.0,14.0,0.0
18321,54.0,32.0,60.0,14.0,0.0
18322,58.0,16.0,60.0,13.0,0.0
18323,51.0,48.0,60.0,14.0,0.0
18324,56.0,32.0,60.0,13.0,0.0
18325,46.0,0.0,60.0,14.0,0.0
18326,51.0,16.0,60.0,14.0,0.0
18327,54.0,16.0,30.0,13.0,0.0
18328,56.0,32.0,30.0,13.0,0.0
18329,46.0,0.0,60.0,14.0,0.0
18330,54.0,48.0,30.0,13.0,0.0
18331,42.0,48.0,60.0,14.0,0.0
18332,53.0,0.0,60.0,13.0,0.0
18333,39.0,48.0,60.0,14.0,0.0
18334,54.0,0.0,60.0,13.0,0.0
18335,34.0,0.0,390.0,15.0,0.0
18336,56.0,0.0,180.0,2.0,0.0
18337,34.0,48.0,60.0,14.0,0.0
18338,56.0,48.0,150.0,13.0,0.0
18339,46.0,48.0,60.0,14.0,0.0
18340,50.0,0.0,60.0,14.0,0.0
18341,58.0,0.0,60.0,13.0,0.0
18342,53.0,48.0,60.0,14.0,0.0
18343,58.0,16.0,60.0,14.0,0.0
18344,66.0,0.0,60.0,2.0,0.0
18345,66.0,32.0,60.0,13.0,0.0
18346,54.0,32.0,60.0,14.0,0.0
18347,63.0,16.0,60.0,13.0,0.0
18348,63.0,0.0,60.0,2.0,0.0
18349,51.0,16.0,60.0,14.0,0.0
18350,54.0,48.0,60.0,2.0,0.0
18351,54.0,32.0,30.0,13.0,0.0
18352,46.0,0.0,60.0,14.0,0.0
18353,53.0,0.0,30.0,13.0,0.0
18354,56.0,48.0,150.0,13.0,0.0
18355,34.0,0.0,390.0,15.0,0.0
18356,56.0,0.0,180.0,2.0,0.0
18357,34.0,48.0,60.0,14.0,0.0
18358,46.0,48.0,60.0,14.0,0.0
18359,50.0,0.0,60.0,14.0,0.0
18360,58.0,0.0,60.0,13.0,0.0
18361,53.0,48.0,60.0,14.0,0.0
18362,66.0,32.0,60.0,13.0,0.0
18363,58.0,16.0,60.0,14.0,0.0
18364,66.0,0.0,60.0,2.0,0.0
18365,54.0,32.0,60.0,14.0,0.0
18366,62.0,16.0,60.0,13.0,0.0
18367,62.0,0.0,60.0,2.0,0.0
18368,51.0,16.0,60.0,14.0,0.0
18369,54.0,32.0,30.0,13.0,0.0
18370,54.0,0.0,60.0,2.0,0.0
18371,46.0,0.0,60.0,14.0,0.0
18372,51.0,48.0,30.0,13.0,0.0
18373,35.0,48.0,60.0,14.0,0.0
18374,56.0,0.0,180.0,2.0,0.0
18375,35.0,0.0,390.0,15.0,0.0
18376,56.0,0.0,150.0,13.0,0.0
18377,47.0,48.0,60.0,14.0,0.0
18378,51.0,48.0,60.0,14.0,0.0
18379,58.0,0.0,60.0,13.0,0.0
18380,54.0,48.0,60.0,14.0,0.0
18381,66.0,0.0,60.0,2.0,0.0
18382,61.0,16.0,60.0,14.0,0.0
18383,66.0,32.0,60.0,13.0,0.0
18384,58.0,32.0,60.0,14.0,0.0
18385,64.0,16.0,60.0,2.0,0.0
18386,64.0,0.0,60.0,13.0,0.0
18387,54.0,16.0,60.0,14.0,0.0
18388,58.0,32.0,30.0,13.0,0.0
18389,58.0,0.0,60.0,2.0,0.0
18390,49.0,48.0,60.0,14.0,0.0
18391,54.0,0.0,30.0,13.0,0.0
18392,39.0,0.0,390.0,15.0,0.0
18393,59.0,0.0,180.0,2.0,0.0
18394,39.0,48.0,60.0,14.0,0.0
18395,59.0,0.0,150.0,13.0,0.0
18396,51.0,48.0,60.0,14.0,0.0
18397,54.0,48.0,60.0,14.0,0.0
18398,61.0,0.0,60.0,13.0,0.0
18399,59.0,48.0,60.0,14.0,0.0
18400,68.0,0.0,60.0,13.0,0.0
18401,65.0,16.0,60.0,14.0,0.0
18402,68.0,32.0,60.0,2.0,0.0
18403,61.0,32.0,60.0,14.0,0.0
18404,61.0,0.0,60.0,13.0,0.0
18405,61.0,16.0,60.0,2.0,0.0
18406,56.0,16.0,60.0,14.0,0.0
18407,59.0,32.0,30.0,13.0,0.0
18408,59.0,0.0,60.0,2.0,0.0
18409,53.0,0.0,60.0,14.0,0.0
18410,58.0,48.0,30.0,13.0,0.0
18411,42.0,48.0,60.0,14.0,0.0
18412,61.0,0.0,150.0,13.0,0.0
18413,61.0,0.0,180.0,2.0,0.0
18414,30.0,48.0,180.0,15.0,0.0
18415,54.0,48.0,60.0,14.0,0.0
18416,58.0,48.0,60.0,14.0,0.0
18417,61.0,0.0,60.0,14.0,0.0
18418,56.0,0.0,60.0,13.0,0.0
18419,62.0,48.0,180.0,2.0,0.0
18420,62.0,32.0,60.0,13.0,0.0
18421,25.0,0.0,180.0,15.0,0.0
18422,65.0,16.0,60.0,14.0,0.0
18423,62.0,32.0,60.0,14.0,0.0
18424,59.0,16.0,60.0,13.0,0.0
18425,56.0,16.0,60.0,14.0,0.0
18426,56.0,32.0,30.0,13.0,0.0
18427,54.0,0.0,60.0,14.0,0.0
18428,58.0,0.0,30.0,13.0,0.0
18429,66.0,16.0,60.0,14.0,0.0
18430,61.0,32.0,60.0,13.0,0.0
18431,34.0,0.0,390.0,15.0,0.0
18432,61.0,0.0,180.0,2.0,0.0
18433,61.0,32.0,60.0,14.0,0.0
18434,58.0,16.0,60.0,13.0,0.0
18435,58.0,16.0,60.0,14.0,0.0
18436,54.0,32.0,30.0,13.0,0.0
18437,54.0,48.0,60.0,14.0,0.0
18438,59.0,0.0,30.0,13.0,0.0
18439,63.0,16.0,60.0,14.0,0.0
18440,66.0,32.0,60.0,13.0,0.0
18441,66.0,0.0,180.0,2.0,0.0
18442,59.0,32.0,60.0,14.0,0.0
18443,63.0,16.0,60.0,13.0,0.0
18444,54.0,16.0,60.0,14.0,0.0
18445,59.0,32.0,30.0,13.0,0.0
18446,51.0,0.0,60.0,14.0,0.0
18447,56.0,48.0,30.0,13.0,0.0
18448,56.0,16.0,60.0,14.0,0.0
18449,32.0,48.0,180.0,15.0,0.0
18450,64.0,0.0,180.0,2.0,0.0
18451,64.0,32.0,60.0,13.0,0.0
18452,52.0,32.0,60.0,14.0,0.0
18453,59.0,16.0,60.0,13.0,0.0
18454,47.0,16.0,60.0,14.0,0.0
18455,56.0,32.0,30.0,13.0,0.0
18456,44.0,0.0,60.0,14.0,0.0
18457,53.0,0.0,30.0,13.0,0.0
18458,62.0,0.0,180.0,2.0,0.0
18459,58.0,16.0,60.0,14.0,0.0
18460,34.0,0.0,180.0,15.0,0.0
18461,62.0,32.0,60.0,13.0,0.0
18462,53.0,32.0,60.0,14.0,0.0
18463,56.0,16.0,60.0,13.0,0.0
18464,50.0,16.0,60.0,14.0,0.0
18465,53.0,32.0,30.0,13.0,0.0
18466,46.0,48.0,60.0,14.0,0.0
18467,54.0,0.0,30.0,13.0,0.0
18468,63.0,32.0,300.0,2.0,0.0
18469,63.0,32.0,60.0,13.0,0.0
18470,27.0,0.0,180.0,15.0,0.0
18471,58.0,16.0,60.0,14.0,0.0
18472,54.0,32.0,60.0,14.0,0.0
18473,58.0,16.0,60.0,13.0,0.0
18474,51.0,48.0,60.0,14.0,0.0
18475,56.0,32.0,60.0,13.0,0.0
18476,46.0,0.0,60.0,14.0,0.0
18477,51.0,32.0,60.0,14.0,0.0
18478,54.0,32.0,30.0,13.0,0.0
18479,56.0,0.0,30.0,13.0,0.0
18480,54.0,0.0,120.0,13.0,0.0
18481,46.0,64.0,60.0,14.0,0.0
18482,39.0,240.0,60.0,14.0,0.0
18483,66.0,48.0,60.0,2.0,0.0
18484,90.0,0.0,180.0,0.0,0.0
18485,54.0,48.0,90.0,3.0,0.0
18486,61.0,0.0,60.0,2.0,0.0
18487,58.0,0.0,15.0,1.0,0.0
18488,73.0,0.0,15.0,0.0,0.0
18489,66.0,48.0,60.0,2.0,0.0
18490,54.0,0.0,90.0,3.0,0.0
18491,61.0,48.0,60.0,2.0,0.0
18492,65.0,24.0,60.0,2.0,0.0
18493,92.0,24.0,60.0,0.0,0.0
18494,73.0,0.0,90.0,0.0,0.0
18495,61.0,0.0,60.0,2.0,0.0
18496,94.0,0.0,20.0,0.0,0.0
18497,54.0,0.0,15.0,3.0,0.0
18498,73.0,48.0,90.0,0.0,0.0
18499,92.0,24.0,60.0,0.0,0.0
18500,59.0,48.0,15.0,1.0,0.0
18501,65.0,24.0,60.0,2.0,0.0
18502,61.0,0.0,60.0,2.0,0.0
18503,95.0,0.0,20.0,0.0,0.0
18504,66.0,48.0,60.0,2.0,0.0
18505,54.0,0.0,15.0,3.0,0.0
18506,94.0,0.0,90.0,0.0,0.0
18507,58.0,0.0,90.0,1.0,0.0
18508,61.0,48.0,60.0,2.0,0.0
18509,54.0,0.0,15.0,3.0,0.0
18510,58.0,0.0,90.0,1.0,0.0
18511,90.0,0.0,90.0,0.0,0.0
18512,73.0,0.0,15.0,0.0,0.0
18513,66.0,48.0,60.0,2.0,0.0
18514,61.0,0.0,60.0,2.0,0.0
18515,71.0,0.0,90.0,0.0,0.0
18516,66.0,48.0,60.0,2.0,0.0
18517,54.0,0.0,15.0,3.0,0.0
18518,92.0,0.0,90.0,0.0,0.0
18519,63.0,0.0,60.0,2.0,0.0
18520,54.0,0.0,15.0,3.0,0.0
18521,66.0,48.0,60.0,2.0,0.0
18522,71.0,0.0,90.0,0.0,0.0
18523,59.0,48.0,15.0,1.0,0.0
18524,87.0,0.0,90.0,0.0,0.0
18525,63.0,0.0,60.0,2.0,0.0
18526,66.0,48.0,60.0,2.0,0.0
18527,90.0,0.0,180.0,0.0,0.0
18528,54.0,0.0,90.0,3.0,0.0
18529,61.0,48.0,60.0,2.0,0.0
18530,73.0,0.0,15.0,0.0,0.0
18531,58.0,0.0,15.0,1.0,0.0
18532,66.0,48.0,60.0,2.0,0.0
18533,61.0,0.0,60.0,2.0,0.0
18534,54.0,0.0,15.0,3.0,0.0
18535,92.0,24.0,60.0,0.0,0.0
18536,65.0,24.0,60.0,2.0,0.0
18537,59.0,0.0,90.0,1.0,0.0
18538,61.0,48.0,60.0,2.0,0.0
18539,94.0,0.0,20.0,0.0,0.0
18540,54.0,0.0,15.0,3.0,0.0
18541,92.0,24.0,60.0,0.0,0.0
18542,73.0,0.0,15.0,0.0,0.0
18543,65.0,24.0,60.0,2.0,0.0
18544,59.0,0.0,90.0,1.0,0.0
18545,61.0,48.0,60.0,2.0,0.0
18546,95.0,0.0,20.0,0.0,0.0
18547,66.0,48.0,60.0,2.0,0.0
18548,94.0,0.0,90.0,0.0,0.0
18549,73.0,0.0,15.0,0.0,0.0
18550,61.0,48.0,60.0,2.0,0.0
18551,73.0,0.0,90.0,0.0,0.0
18552,54.0,0.0,15.0,3.0,0.0
18553,58.0,0.0,15.0,1.0,0.0
18554,90.0,0.0,90.0,0.0,0.0
18555,66.0,48.0,60.0,2.0,0.0
18556,61.0,0.0,60.0,2.0,0.0
18557,95.0,0.0,90.0,0.0,0.0
18558,54.0,48.0,15.0,3.0,0.0
18559,65.0,48.0,60.0,2.0,0.0
18560,61.0,0.0,60.0,2.0,0.0
18561,73.0,24.0,15.0,0.0,0.0
18562,54.0,0.0,15.0,3.0,0.0
18563,92.0,0.0,90.0,0.0,0.0
18564,65.0,24.0,60.0,2.0,0.0
18565,59.0,0.0,15.0,1.0,0.0
18566,75.0,0.0,20.0,0.0,0.0
18567,61.0,48.0,60.0,2.0,0.0
18568,77.0,24.0,20.0,0.0,0.0
18569,75.0,0.0,20.0,0.0,0.0
18570,66.0,48.0,60.0,2.0,0.0
18571,97.0,0.0,180.0,0.0,0.0
18572,54.0,0.0,15.0,3.0,0.0
18573,61.0,0.0,60.0,2.0,0.0
18574,58.0,0.0,15.0,1.0,0.0
18575,66.0,48.0,60.0,2.0,0.0
18576,54.0,0.0,15.0,3.0,0.0
18577,73.0,48.0,15.0,0.0,0.0
18578,61.0,0.0,60.0,2.0,0.0
18579,73.0,0.0,15.0,0.0,0.0
18580,65.0,24.0,60.0,2.0,0.0
18581,59.0,0.0,90.0,1.0,0.0
18582,54.0,0.0,90.0,3.0,0.0
18583,95.0,24.0,60.0,0.0,0.0
18584,61.0,0.0,60.0,2.0,0.0
18585,97.0,48.0,20.0,0.0,0.0
18586,65.0,24.0,60.0,2.0,0.0
18587,73.0,0.0,15.0,0.0,0.0
18588,95.0,24.0,60.0,0.0,0.0
18589,59.0,48.0,90.0,1.0,0.0
18590,54.0,0.0,90.0,3.0,0.0
18591,61.0,0.0,60.0,2.0,0.0
18592,99.0,0.0,20.0,0.0,0.0
18593,66.0,48.0,60.0,2.0,0.0
18594,73.0,0.0,15.0,0.0,0.0
18595,97.0,0.0,90.0,0.0,0.0
18596,61.0,0.0,60.0,2.0,0.0
18597,58.0,0.0,15.0,1.0,0.0
18598,66.0,48.0,60.0,2.0,0.0
18599,73.0,48.0,15.0,0.0,0.0
18600,54.0,0.0,15.0,3.0,0.0
18601,94.0,48.0,90.0,0.0,0.0
18602,61.0,0.0,60.0,2.0,0.0
18603,59.0,0.0,90.0,1.0,0.0
18604,95.0,0.0,90.0,0.0,0.0
18605,66.0,48.0,60.0,2.0,0.0
18606,63.0,0.0,60.0,2.0,0.0
18607,66.0,48.0,60.0,2.0,0.0
18608,59.0,0.0,90.0,1.0,0.0
18609,54.0,0.0,15.0,3.0,0.0
18610,71.0,48.0,15.0,0.0,0.0
18611,92.0,0.0,90.0,0.0,0.0
18612,63.0,0.0,60.0,2.0,0.0
18613,97.0,0.0,180.0,0.0,0.0
18614,66.0,48.0,60.0,2.0,0.0
18615,61.0,0.0,60.0,2.0,0.0
18616,54.0,0.0,15.0,3.0,0.0
18617,58.0,0.0,15.0,1.0,0.0
18618,66.0,48.0,60.0,2.0,0.0
18619,73.0,48.0,15.0,0.0,0.0
18620,61.0,0.0,60.0,2.0,0.0
18621,65.0,24.0,60.0,2.0,0.0
18622,59.0,0.0,90.0,1.0,0.0
18623,95.0,24.0,60.0,0.0,0.0
18624,54.0,0.0,90.0,3.0,0.0
18625,61.0,0.0,60.0,2.0,0.0
18626,97.0,0.0,20.0,0.0,0.0
18627,65.0,24.0,60.0,2.0,0.0
18628,59.0,48.0,90.0,1.0,0.0
18629,95.0,24.0,60.0,0.0,0.0
18630,73.0,48.0,15.0,0.0,0.0
18631,61.0,0.0,60.0,2.0,0.0
18632,99.0,0.0,20.0,0.0,0.0
18633,97.0,0.0,90.0,0.0,0.0
18634,54.0,0.0,15.0,3.0,0.0
18635,66.0,48.0,60.0,2.0,0.0
18636,73.0,0.0,15.0,0.0,0.0
18637,61.0,0.0,60.0,2.0,0.0
18638,54.0,0.0,15.0,3.0,0.0
18639,73.0,0.0,15.0,0.0,0.0
18640,94.0,0.0,90.0,0.0,0.0
18641,58.0,48.0,15.0,1.0,0.0
18642,66.0,48.0,60.0,2.0,0.0
18643,61.0,0.0,60.0,2.0,0.0
18644,54.0,0.0,15.0,3.0,0.0
18645,73.0,0.0,15.0,0.0,0.0
18646,92.0,0.0,90.0,0.0,0.0
18647,65.0,48.0,60.0,2.0,0.0
18648,61.0,0.0,60.0,2.0,0.0
18649,73.0,24.0,20.0,0.0,0.0
18650,85.0,0.0,90.0,0.0,0.0
18651,65.0,0.0,60.0,2.0,0.0
18652,59.0,24.0,15.0,1.0,0.0
18653,75.0,24.0,20.0,0.0,0.0
18654,61.0,0.0,60.0,2.0,0.0
18655,77.0,24.0,20.0,0.0,0.0
18656,75.0,0.0,20.0,0.0,0.0
18657,66.0,48.0,60.0,2.0,0.0
18658,90.0,0.0,180.0,0.0,0.0
18659,54.0,48.0,15.0,3.0,0.0
18660,61.0,0.0,60.0,2.0,0.0
18661,73.0,0.0,15.0,0.0,0.0
18662,58.0,0.0,15.0,1.0,0.0
18663,66.0,48.0,60.0,2.0,0.0
18664,54.0,48.0,15.0,3.0,0.0
18665,61.0,0.0,60.0,2.0,0.0
18666,73.0,0.0,15.0,0.0,0.0
18667,65.0,24.0,60.0,2.0,0.0
18668,92.0,24.0,60.0,0.0,0.0
18669,61.0,48.0,60.0,2.0,0.0
18670,94.0,0.0,20.0,0.0,0.0
18671,92.0,24.0,60.0,0.0,0.0
18672,54.0,0.0,15.0,3.0,0.0
18673,59.0,0.0,15.0,1.0,0.0
18674,73.0,0.0,90.0,0.0,0.0
18675,65.0,24.0,60.0,2.0,0.0
18676,61.0,0.0,60.0,2.0,0.0
18677,95.0,0.0,20.0,0.0,0.0
18678,54.0,48.0,15.0,3.0,0.0
18679,66.0,48.0,60.0,2.0,0.0
18680,94.0,0.0,90.0,0.0,0.0
18681,61.0,0.0,60.0,2.0,0.0
18682,58.0,0.0,15.0,1.0,0.0
18683,73.0,0.0,15.0,0.0,0.0
18684,54.0,48.0,15.0,3.0,0.0
18685,66.0,48.0,60.0,2.0,0.0
18686,90.0,0.0,90.0,0.0,0.0
18687,61.0,0.0,60.0,2.0,0.0
18688,66.0,48.0,60.0,2.0,0.0
18689,92.0,48.0,90.0,0.0,0.0
18690,54.0,0.0,90.0,3.0,0.0
18691,63.0,0.0,60.0,2.0,0.0
18692,59.0,0.0,15.0,1.0,0.0
18693,66.0,48.0,60.0,2.0,0.0
18694,71.0,0.0,15.0,0.0,0.0
18695,54.0,48.0,90.0,3.0,0.0
18696,87.0,0.0,90.0,0.0,0.0
18697,63.0,0.0,60.0,2.0,0.0
18698,58.0,0.0,90.0,1.0,0.0
18699,90.0,0.0,180.0,0.0,0.0
18700,73.0,48.0,90.0,0.0,0.0
18701,66.0,48.0,60.0,2.0,0.0
18702,61.0,0.0,60.0,2.0,0.0
18703,54.0,0.0,15.0,3.0,0.0
18704,66.0,48.0,60.0,2.0,0.0
18705,58.0,0.0,90.0,1.0,0.0
18706,73.0,48.0,90.0,0.0,0.0
18707,61.0,0.0,60.0,2.0,0.0
18708,65.0,24.0,60.0,2.0,0.0
18709,92.0,24.0,60.0,0.0,0.0
18710,54.0,0.0,90.0,3.0,0.0
18711,59.0,0.0,90.0,1.0,0.0
18712,61.0,48.0,60.0,2.0,0.0
18713,94.0,0.0,20.0,0.0,0.0
18714,92.0,24.0,60.0,0.0,0.0
18715,73.0,0.0,15.0,0.0,0.0
18716,65.0,24.0,60.0,2.0,0.0
18717,54.0,0.0,90.0,3.0,0.0
18718,59.0,0.0,90.0,1.0,0.0
18719,61.0,48.0,60.0,2.0,0.0
18720,95.0,0.0,20.0,0.0,0.0
18721,94.0,0.0,90.0,0.0,0.0
18722,73.0,0.0,15.0,0.0,0.0
18723,66.0,48.0,60.0,2.0,0.0
18724,61.0,0.0,60.0,2.0,0.0
18725,58.0,0.0,15.0,1.0,0.0
18726,73.0,0.0,15.0,0.0,0.0
18727,66.0,48.0,60.0,2.0,0.0
18728,90.0,48.0,90.0,0.0,0.0
18729,54.0,48.0,15.0,3.0,0.0
18730,61.0,0.0,60.0,2.0,0.0
18731,65.0,48.0,60.0,2.0,0.0
18732,54.0,0.0,90.0,3.0,0.0
18733,73.0,0.0,15.0,0.0,0.0
18734,95.0,0.0,90.0,0.0,0.0
18735,61.0,0.0,60.0,2.0,0.0
18736,65.0,24.0,60.0,2.0,0.0
18737,59.0,0.0,15.0,1.0,0.0
18738,92.0,0.0,90.0,0.0,0.0
18739,73.0,24.0,20.0,0.0,0.0
18740,75.0,0.0,20.0,0.0,0.0
18741,77.0,24.0,20.0,0.0,0.0
18742,61.0,0.0,60.0,2.0,0.0
18743,75.0,0.0,20.0,0.0,0.0
18744,97.0,0.0,180.0,0.0,0.0
18745,54.0,0.0,15.0,3.0,0.0
18746,66.0,48.0,60.0,2.0,0.0
18747,61.0,0.0,60.0,2.0,0.0
18748,73.0,0.0,15.0,0.0,0.0
18749,66.0,48.0,60.0,2.0,0.0
18750,58.0,0.0,15.0,1.0,0.0
18751,61.0,0.0,60.0,2.0,0.0
18752,54.0,48.0,15.0,3.0,0.0
18753,65.0,24.0,60.0,2.0,0.0
18754,73.0,0.0,15.0,0.0,0.0
18755,95.0,24.0,60.0,0.0,0.0
18756,61.0,0.0,60.0,2.0,0.0
18757,97.0,0.0,20.0,0.0,0.0
18758,73.0,0.0,15.0,0.0,0.0
18759,95.0,24.0,60.0,0.0,0.0
18760,59.0,48.0,15.0,1.0,0.0
18761,65.0,24.0,60.0,2.0,0.0
18762,61.0,0.0,60.0,2.0,0.0
18763,99.0,0.0,20.0,0.0,0.0
18764,58.0,0.0,90.0,1.0,0.0
18765,54.0,0.0,15.0,3.0,0.0
18766,66.0,48.0,60.0,2.0,0.0
18767,97.0,0.0,90.0,0.0,0.0
18768,73.0,0.0,90.0,0.0,0.0
18769,61.0,48.0,60.0,2.0,0.0
18770,54.0,0.0,15.0,3.0,0.0
18771,94.0,48.0,90.0,0.0,0.0
18772,73.0,0.0,90.0,0.0,0.0
18773,58.0,0.0,90.0,1.0,0.0
18774,66.0,48.0,60.0,2.0,0.0
18775,61.0,0.0,60.0,2.0,0.0
18776,95.0,48.0,90.0,0.0,0.0
18777,54.0,0.0,15.0,3.0,0.0
18778,71.0,0.0,90.0,0.0,0.0
18779,66.0,48.0,60.0,2.0,0.0
18780,63.0,0.0,60.0,2.0,0.0
18781,54.0,0.0,15.0,3.0,0.0
18782,71.0,0.0,90.0,0.0,0.0
18783,66.0,48.0,60.0,2.0,0.0
18784,59.0,0.0,15.0,1.0,0.0
18785,92.0,0.0,90.0,0.0,0.0
18786,63.0,0.0,60.0,2.0,0.0
18787,54.0,0.0,15.0,3.0,0.0
18788,66.0,48.0,60.0,2.0,0.0
18789,97.0,0.0,180.0,0.0,0.0
18790,61.0,48.0,60.0,2.0,0.0
18791,54.0,0.0,15.0,3.0,0.0
18792,73.0,0.0,15.0,0.0,0.0
18793,58.0,0.0,15.0,1.0,0.0
18794,66.0,48.0,60.0,2.0,0.0
18795,61.0,0.0,60.0,2.0,0.0
18796,73.0,0.0,90.0,0.0,0.0
18797,65.0,24.0,60.0,2.0,0.0
18798,95.0,24.0,60.0,0.0,0.0
18799,54.0,0.0,90.0,3.0,0.0
18800,59.0,0.0,90.0,1.0,0.0
18801,61.0,0.0,60.0,2.0,0.0
18802,97.0,48.0,20.0,0.0,0.0
18803,65.0,24.0,60.0,2.0,0.0
18804,95.0,24.0,60.0,0.0,0.0
18805,59.0,0.0,90.0,1.0,0.0
18806,73.0,0.0,90.0,0.0,0.0
18807,54.0,0.0,90.0,3.0,0.0
18808,61.0,0.0,60.0,2.0,0.0
18809,99.0,48.0,20.0,0.0,0.0
18810,73.0,0.0,90.0,0.0,0.0
18811,97.0,0.0,90.0,0.0,0.0
18812,58.0,0.0,90.0,1.0,0.0
18813,66.0,48.0,60.0,2.0,0.0
18814,61.0,0.0,60.0,2.0,0.0
18815,66.0,48.0,60.0,2.0,0.0
18816,58.0,0.0,90.0,1.0,0.0
18817,54.0,48.0,15.0,3.0,0.0
18818,94.0,0.0,90.0,0.0,0.0
18819,61.0,0.0,60.0,2.0,0.0
18820,65.0,48.0,60.0,2.0,0.0
18821,73.0,48.0,15.0,0.0,0.0
18822,92.0,24.0,90.0,0.0,0.0
18823,54.0,0.0,90.0,3.0,0.0
18824,61.0,0.0,60.0,2.0,0.0
18825,59.0,0.0,15.0,1.0,0.0
18826,54.0,0.0,90.0,3.0,0.0
18827,73.0,0.0,15.0,0.0,0.0
18828,65.0,24.0,60.0,2.0,0.0
18829,85.0,48.0,90.0,0.0,0.0
18830,75.0,0.0,20.0,0.0,0.0
18831,61.0,0.0,60.0,2.0,0.0
18832,77.0,24.0,20.0,0.0,0.0
18833,75.0,0.0,20.0,0.0,0.0
18834,54.0,0.0,90.0,3.0,0.0
18835,65.0,48.0,60.0,2.0,0.0
18836,92.0,0.0,180.0,0.0,0.0
18837,61.0,0.0,60.0,2.0,0.0
18838,73.0,0.0,15.0,0.0,0.0
18839,59.0,48.0,15.0,1.0,0.0
18840,65.0,48.0,60.0,2.0,0.0
18841,61.0,0.0,60.0,2.0,0.0
18842,94.0,24.0,60.0,0.0,0.0
18843,54.0,0.0,15.0,3.0,0.0
18844,73.0,48.0,15.0,0.0,0.0
18845,66.0,24.0,60.0,2.0,0.0
18846,61.0,0.0,60.0,2.0,0.0
18847,92.0,0.0,20.0,0.0,0.0
18848,58.0,0.0,15.0,1.0,0.0
18849,54.0,48.0,15.0,3.0,0.0
18850,90.0,24.0,60.0,0.0,0.0
18851,66.0,24.0,60.0,2.0,0.0
18852,61.0,0.0,60.0,2.0,0.0
18853,94.0,0.0,20.0,0.0,0.0
18854,92.0,0.0,90.0,0.0,0.0
18855,73.0,0.0,15.0,0.0,0.0
18856,65.0,48.0,60.0,2.0,0.0
18857,61.0,0.0,60.0,2.0,0.0
18858,97.0,0.0,180.0,0.0,0.0
18859,65.0,24.0,60.0,2.0,0.0
18860,73.0,24.0,15.0,0.0,0.0
18861,54.0,0.0,15.0,3.0,0.0
18862,59.0,0.0,15.0,1.0,0.0
18863,75.0,0.0,20.0,0.0,0.0
18864,77.0,24.0,20.0,0.0,0.0
18865,61.0,48.0,60.0,2.0,0.0
18866,75.0,0.0,20.0,0.0,0.0
18867,59.0,0.0,15.0,1.0,0.0
18868,65.0,48.0,60.0,2.0,0.0
18869,73.0,0.0,90.0,0.0,0.0
18870,61.0,48.0,60.0,2.0,0.0
18871,58.0,48.0,90.0,1.0,0.0
18872,54.0,0.0,15.0,3.0,0.0
18873,66.0,48.0,60.0,2.0,0.0
18874,94.0,0.0,90.0,0.0,0.0
18875,73.0,0.0,90.0,0.0,0.0
18876,61.0,0.0,60.0,2.0,0.0
18877,54.0,0.0,15.0,3.0,0.0
18878,66.0,48.0,60.0,2.0,0.0
18879,92.0,0.0,90.0,0.0,0.0
18880,63.0,0.0,60.0,2.0,0.0
18881,66.0,24.0,60.0,2.0,0.0
18882,75.0,24.0,15.0,0.0,0.0
18883,59.0,0.0,15.0,1.0,0.0
18884,99.0,0.0,180.0,0.0,0.0
18885,77.0,0.0,20.0,0.0,0.0
18886,78.0,24.0,20.0,0.0,0.0
18887,63.0,48.0,60.0,2.0,0.0
18888,77.0,0.0,20.0,0.0,0.0
18889,75.0,0.0,90.0,0.0,0.0
18890,54.0,0.0,15.0,3.0,0.0
18891,66.0,48.0,60.0,2.0,0.0
18892,63.0,48.0,60.0,2.0,0.0
18893,95.0,0.0,90.0,0.0,0.0
18894,59.0,0.0,15.0,1.0,0.0
18895,75.0,0.0,90.0,0.0,0.0
18896,54.0,0.0,15.0,3.0,0.0
18897,66.0,48.0,60.0,2.0,0.0
18898,63.0,0.0,60.0,2.0,0.0
18899,65.0,48.0,60.0,2.0,0.0
18900,61.0,0.0,90.0,1.0,0.0
18901,94.0,0.0,90.0,0.0,0.0
18902,54.0,48.0,15.0,3.0,0.0
18903,77.0,0.0,90.0,0.0,0.0
18904,61.0,0.0,60.0,2.0,0.0
18905,58.0,0.0,90.0,1.0,0.0
18906,65.0,24.0,60.0,2.0,0.0
18907,101.0,0.0,180.0,0.0,0.0
18908,54.0,24.0,15.0,3.0,0.0
18909,77.0,24.0,20.0,0.0,0.0
18910,81.0,0.0,20.0,0.0,0.0
18911,82.0,24.0,20.0,0.0,0.0
18912,61.0,0.0,60.0,2.0,0.0
18913,81.0,48.0,20.0,0.0,0.0
18914,65.0,48.0,60.0,2.0,0.0
18915,54.0,0.0,90.0,3.0,0.0
18916,58.0,0.0,90.0,1.0,0.0
18917,82.0,0.0,90.0,0.0,0.0
18918,61.0,24.0,60.0,2.0,0.0
18919,97.0,0.0,90.0,0.0,0.0
18920,80.0,24.0,20.0,0.0,0.0
18921,54.0,0.0,90.0,3.0,0.0
18922,59.0,0.0,90.0,1.0,0.0
18923,65.0,0.0,60.0,2.0,0.0
18924,82.0,24.0,20.0,0.0,0.0
18925,83.0,24.0,20.0,0.0,0.0
18926,61.0,0.0,60.0,2.0,0.0
18927,80.0,48.0,20.0,0.0,0.0
18928,90.0,0.0,180.0,0.0,0.0
18929,66.0,48.0,60.0,2.0,0.0
18930,58.0,0.0,90.0,1.0,0.0
18931,73.0,0.0,90.0,0.0,0.0
18932,61.0,0.0,60.0,2.0,0.0
18933,66.0,48.0,60.0,2.0,0.0
18934,54.0,48.0,15.0,3.0,0.0
18935,58.0,0.0,90.0,1.0,0.0
18936,61.0,0.0,60.0,2.0,0.0
18937,54.0,48.0,15.0,3.0,0.0
18938,65.0,24.0,60.0,2.0,0.0
18939,92.0,24.0,60.0,0.0,0.0
18940,73.0,0.0,15.0,0.0,0.0
18941,61.0,0.0,60.0,2.0,0.0
18942,94.0,0.0,20.0,0.0,0.0
18943,92.0,24.0,60.0,0.0,0.0
18944,65.0,24.0,60.0,2.0,0.0
18945,54.0,0.0,15.0,3.0,0.0
18946,59.0,48.0,15.0,1.0,0.0
18947,73.0,0.0,90.0,0.0,0.0
18948,61.0,48.0,60.0,2.0,0.0
18949,95.0,0.0,20.0,0.0,0.0
18950,94.0,0.0,90.0,0.0,0.0
18951,73.0,0.0,90.0,0.0,0.0
18952,66.0,48.0,60.0,2.0,0.0
18953,61.0,0.0,60.0,2.0,0.0
18954,90.0,0.0,90.0,0.0,0.0
18955,66.0,48.0,60.0,2.0,0.0
18956,54.0,0.0,15.0,3.0,0.0
18957,58.0,48.0,15.0,1.0,0.0
18958,73.0,0.0,90.0,0.0,0.0
18959,61.0,0.0,60.0,2.0,0.0
18960,75.0,0.0,90.0,0.0,0.0
18961,94.0,24.0,60.0,0.0,0.0
18962,66.0,24.0,60.0,2.0,0.0
18963,58.0,48.0,15.0,1.0,0.0
18964,63.0,0.0,60.0,2.0,0.0
18965,95.0,0.0,20.0,0.0,0.0
18966,94.0,24.0,60.0,0.0,0.0
18967,54.0,48.0,15.0,3.0,0.0
18968,66.0,24.0,60.0,2.0,0.0
18969,63.0,0.0,60.0,2.0,0.0
18970,99.0,0.0,20.0,0.0,0.0
18971,54.0,0.0,15.0,3.0,0.0
18972,75.0,0.0,15.0,0.0,0.0
18973,66.0,48.0,60.0,2.0,0.0
18974,94.0,0.0,90.0,0.0,0.0
18975,58.0,48.0,15.0,1.0,0.0
18976,63.0,0.0,60.0,2.0,0.0
18977,58.0,48.0,90.0,1.0,0.0
18978,75.0,0.0,15.0,0.0,0.0
18979,90.0,0.0,90.0,0.0,0.0
18980,54.0,48.0,15.0,3.0,0.0
18981,66.0,48.0,60.0,2.0,0.0
18982,63.0,0.0,60.0,2.0,0.0
18983,92.0,0.0,90.0,0.0,0.0
18984,59.0,0.0,90.0,1.0,0.0
18985,65.0,48.0,60.0,2.0,0.0
18986,73.0,0.0,90.0,0.0,0.0
18987,61.0,0.0,60.0,2.0,0.0
18988,73.0,24.0,20.0,0.0,0.0
18989,85.0,0.0,90.0,0.0,0.0
18990,54.0,24.0,15.0,3.0,0.0
18991,59.0,0.0,90.0,1.0,0.0
18992,65.0,0.0,60.0,2.0,0.0
18993,75.0,24.0,20.0,0.0,0.0
18994,61.0,0.0,60.0,2.0,0.0
18995,77.0,24.0,20.0,0.0,0.0
18996,75.0,0.0,20.0,0.0,0.0
18997,54.0,48.0,15.0,3.0,0.0
18998,90.0,0.0,300.0,0.0,0.0
18999,66.0,48.0,60.0,2.0,0.0
19000,61.0,0.0,60.0,2.0,0.0
19001,66.0,48.0,60.0,2.0,0.0
19002,73.0,0.0,15.0,0.0,0.0
19003,54.0,0.0,15.0,3.0,0.0
19004,58.0,48.0,15.0,1.0,0.0
19005,61.0,48.0,60.0,2.0,0.0
19006,54.0,0.0,15.0,3.0,0.0
19007,58.0,0.0,90.0,1.0,0.0
19008,66.0,48.0,60.0,2.0,0.0
19009,73.0,0.0,90.0,0.0,0.0
19010,61.0,0.0,60.0,2.0,0.0
19011,66.0,0.0,60.0,2.0,0.0
19012,58.0,0.0,90.0,1.0,0.0
19013,73.0,24.0,20.0,0.0,0.0
19014,54.0,0.0,90.0,3.0,0.0
19015,75.0,24.0,20.0,0.0,0.0
19016,77.0,24.0,20.0,0.0,0.0
19017,61.0,0.0,60.0,2.0,0.0
19018,75.0,48.0,20.0,0.0,0.0
19019,54.0,0.0,90.0,3.0,0.0
19020,65.0,48.0,60.0,2.0,0.0
19021,59.0,48.0,90.0,1.0,0.0
19022,92.0,0.0,180.0,0.0,0.0
19023,73.0,0.0,90.0,0.0,0.0
19024,61.0,0.0,60.0,2.0,0.0
19025,73.0,0.0,90.0,0.0,0.0
19026,65.0,48.0,60.0,2.0,0.0
19027,59.0,0.0,90.0,1.0,0.0
19028,61.0,0.0,60.0,2.0,0.0
19029,66.0,24.0,60.0,2.0,0.0
19030,58.0,0.0,90.0,1.0,0.0
19031,54.0,48.0,15.0,3.0,0.0
19032,94.0,24.0,60.0,0.0,0.0
19033,61.0,0.0,60.0,2.0,0.0
19034,92.0,48.0,20.0,0.0,0.0
19035,73.0,0.0,15.0,0.0,0.0
19036,66.0,24.0,60.0,2.0,0.0
19037,58.0,0.0,90.0,1.0,0.0
19038,90.0,24.0,60.0,0.0,0.0
19039,61.0,0.0,60.0,2.0,0.0
19040,94.0,0.0,20.0,0.0,0.0
19041,65.0,48.0,60.0,2.0,0.0
19042,92.0,0.0,90.0,0.0,0.0
19043,54.0,0.0,15.0,3.0,0.0
19044,73.0,48.0,15.0,0.0,0.0
19045,61.0,0.0,60.0,2.0,0.0
19046,73.0,0.0,15.0,0.0,0.0
19047,59.0,24.0,15.0,1.0,0.0
19048,65.0,0.0,60.0,2.0,0.0
19049,97.0,48.0,180.0,0.0,0.0
19050,75.0,24.0,20.0,0.0,0.0
19051,61.0,0.0,60.0,2.0,0.0
19052,77.0,24.0,20.0,0.0,0.0
19053,75.0,0.0,20.0,0.0,0.0
19054,65.0,48.0,60.0,2.0,0.0
19055,73.0,0.0,90.0,0.0,0.0
19056,54.0,0.0,15.0,3.0,0.0
19057,59.0,0.0,90.0,1.0,0.0
19058,61.0,0.0,60.0,2.0,0.0
19059,58.0,0.0,90.0,1.0,0.0
19060,73.0,0.0,90.0,0.0,0.0
19061,66.0,48.0,60.0,2.0,0.0
19062,94.0,48.0,90.0,0.0,0.0
19063,61.0,0.0,60.0,2.0,0.0
19064,66.0,48.0,60.0,2.0,0.0
19065,92.0,24.0,90.0,0.0,0.0
19066,54.0,0.0,15.0,3.0,0.0
19067,63.0,0.0,60.0,2.0,0.0
19068,66.0,24.0,60.0,2.0,0.0
19069,75.0,0.0,15.0,0.0,0.0
19070,59.0,0.0,15.0,1.0,0.0
19071,99.0,0.0,180.0,0.0,0.0
19072,77.0,0.0,20.0,0.0,0.0
19073,78.0,24.0,20.0,0.0,0.0
19074,63.0,0.0,60.0,2.0,0.0
19075,77.0,0.0,20.0,0.0,0.0
19076,54.0,48.0,15.0,3.0,0.0
19077,66.0,48.0,60.0,2.0,0.0
19078,75.0,0.0,90.0,0.0,0.0
19079,63.0,0.0,60.0,2.0,0.0
19080,95.0,0.0,90.0,0.0,0.0
19081,59.0,48.0,15.0,1.0,0.0
19082,66.0,48.0,60.0,2.0,0.0
19083,75.0,0.0,90.0,0.0,0.0
19084,54.0,48.0,90.0,3.0,0.0
19085,63.0,0.0,60.0,2.0,0.0
19086,65.0,48.0,60.0,2.0,0.0
19087,94.0,0.0,90.0,0.0,0.0
19088,61.0,24.0,90.0,1.0,0.0
19089,77.0,0.0,90.0,0.0,0.0
19090,61.0,0.0,60.0,2.0,0.0
19091,54.0,0.0,15.0,3.0,0.0
19092,101.0,0.0,180.0,0.0,0.0
19093,77.0,24.0,20.0,0.0,0.0
19094,65.0,24.0,60.0,2.0,0.0
19095,81.0,0.0,20.0,0.0,0.0
19096,82.0,24.0,20.0,0.0,0.0
19097,61.0,0.0,60.0,2.0,0.0
19098,81.0,0.0,20.0,0.0,0.0
19099,82.0,0.0,90.0,0.0,0.0
19100,65.0,48.0,60.0,2.0,0.0
19101,58.0,48.0,15.0,1.0,0.0
19102,61.0,0.0,60.0,2.0,0.0
19103,65.0,0.0,60.0,2.0,0.0
19104,80.0,24.0,20.0,0.0,0.0
19105,59.0,0.0,90.0,1.0,0.0
19106,54.0,0.0,15.0,3.0,0.0
19107,97.0,0.0,90.0,0.0,0.0
19108,82.0,24.0,20.0,0.0,0.0
19109,61.0,0.0,60.0,2.0,0.0
19110,83.0,24.0,20.0,0.0,0.0
19111,80.0,48.0,20.0,0.0,0.0
19112,58.0,0.0,90.0,1.0,0.0
19113,66.0,48.0,60.0,2.0,0.0
19114,54.0,0.0,15.0,3.0,0.0
19115,90.0,0.0,180.0,0.0,0.0
19116,61.0,0.0,60.0,2.0,0.0
19117,66.0,48.0,60.0,2.0,0.0
19118,73.0,48.0,15.0,0.0,0.0
19119,54.0,0.0,15.0,3.0,0.0
19120,58.0,0.0,90.0,1.0,0.0
19121,61.0,48.0,60.0,2.0,0.0
19122,54.0,0.0,15.0,3.0,0.0
19123,73.0,0.0,15.0,0.0,0.0
19124,92.0,24.0,60.0,0.0,0.0
19125,59.0,0.0,90.0,1.0,0.0
19126,65.0,24.0,60.0,2.0,0.0
19127,61.0,0.0,60.0,2.0,0.0
19128,94.0,0.0,20.0,0.0,0.0
19129,92.0,24.0,60.0,0.0,0.0
19130,59.0,0.0,90.0,1.0,0.0
19131,65.0,24.0,60.0,2.0,0.0
19132,73.0,48.0,15.0,0.0,0.0
19133,54.0,48.0,90.0,3.0,0.0
19134,61.0,0.0,60.0,2.0,0.0
19135,95.0,0.0,20.0,0.0,0.0
19136,94.0,0.0,90.0,0.0,0.0
19137,54.0,0.0,90.0,3.0,0.0
19138,66.0,48.0,60.0,2.0,0.0
19139,61.0,48.0,60.0,2.0,0.0
19140,58.0,0.0,15.0,1.0,0.0
19141,73.0,0.0,15.0,0.0,0.0
19142,66.0,48.0,60.0,2.0,0.0
19143,90.0,0.0,90.0,0.0,0.0
19144,54.0,0.0,90.0,3.0,0.0
19145,61.0,0.0,60.0,2.0,0.0
19146,94.0,24.0,60.0,0.0,0.0
19147,66.0,24.0,60.0,2.0,0.0
19148,58.0,0.0,90.0,1.0,0.0
19149,63.0,0.0,60.0,2.0,0.0
19150,95.0,0.0,20.0,0.0,0.0
19151,75.0,0.0,15.0,0.0,0.0
19152,66.0,24.0,60.0,2.0,0.0
19153,54.0,48.0,15.0,3.0,0.0
19154,94.0,24.0,60.0,0.0,0.0
19155,63.0,0.0,60.0,2.0,0.0
19156,99.0,0.0,20.0,0.0,0.0
19157,94.0,48.0,90.0,0.0,0.0
19158,66.0,48.0,60.0,2.0,0.0
19159,75.0,0.0,15.0,0.0,0.0
19160,58.0,0.0,15.0,1.0,0.0
19161,54.0,48.0,15.0,3.0,0.0
19162,63.0,0.0,60.0,2.0,0.0
19163,58.0,0.0,15.0,1.0,0.0
19164,54.0,0.0,15.0,3.0,0.0
19165,75.0,0.0,15.0,0.0,0.0
19166,66.0,48.0,60.0,2.0,0.0
19167,90.0,48.0,90.0,0.0,0.0
19168,63.0,0.0,60.0,2.0,0.0
19169,65.0,48.0,60.0,2.0,0.0
19170,92.0,0.0,90.0,0.0,0.0
19171,61.0,0.0,60.0,2.0,0.0
19172,54.0,0.0,15.0,3.0,0.0
19173,65.0,0.0,60.0,2.0,0.0
19174,85.0,0.0,90.0,0.0,0.0
19175,59.0,24.0,15.0,1.0,0.0
19176,73.0,0.0,15.0,0.0,0.0
19177,75.0,24.0,20.0,0.0,0.0
19178,77.0,24.0,20.0,0.0,0.0
19179,61.0,0.0,60.0,2.0,0.0
19180,75.0,48.0,20.0,0.0,0.0
19181,66.0,48.0,60.0,2.0,0.0
19182,90.0,0.0,300.0,0.0,0.0
19183,54.0,0.0,90.0,3.0,0.0
19184,61.0,0.0,60.0,2.0,0.0
19185,73.0,0.0,15.0,0.0,0.0
19186,66.0,48.0,60.0,2.0,0.0
19187,58.0,48.0,15.0,1.0,0.0
19188,54.0,96.0,90.0,3.0,0.0
19189,61.0,0.0,60.0,2.0,0.0
19190,58.0,0.0,15.0,1.0,0.0
19191,73.0,0.0,15.0,0.0,0.0
19192,66.0,0.0,90.0,2.0,0.0
19193,54.0,384.0,90.0,3.0,0.0
19194,30.0,96.0,90.0,15.0,0.0
19195,42.0,0.0,90.0,14.0,0.0
19196,46.0,96.0,90.0,14.0,0.0
19197,49.0,96.0,90.0,13.0,0.0
19198,50.0,0.0,90.0,13.0,0.0
19199,47.0,0.0,90.0,14.0,0.0
19200,30.0,96.0,90.0,15.0,0.0
19201,35.0,96.0,90.0,10.0,0.0
19202,38.0,96.0,90.0,10.0,0.0
19203,47.0,0.0,90.0,14.0,0.0
19204,50.0,0.0,90.0,13.0,0.0
19205,46.0,0.0,90.0,14.0,0.0
19206,30.0,96.0,90.0,15.0,0.0
19207,49.0,96.0,90.0,10.0,0.0
19208,54.0,96.0,90.0,10.0,0.0
19209,53.0,0.0,90.0,12.0,0.0
19210,30.0,0.0,90.0,15.0,0.0
19211,47.0,0.0,90.0,14.0,0.0
19212,56.0,96.0,90.0,11.0,0.0
19213,35.0,96.0,90.0,10.0,0.0
19214,56.0,0.0,90.0,11.0,0.0
19215,53.0,0.0,90.0,12.0,0.0
19216,38.0,96.0,90.0,10.0,0.0
19217,47.0,0.0,90.0,14.0,0.0
19218,49.0,96.0,90.0,13.0,0.0
19219,30.0,0.0,90.0,15.0,0.0
19220,54.0,96.0,90.0,11.0,0.0
19221,58.0,96.0,90.0,11.0,0.0
19222,30.0,96.0,90.0,15.0,0.0
19223,50.0,0.0,90.0,13.0,0.0
19224,59.0,0.0,90.0,11.0,0.0
19225,35.0,96.0,90.0,10.0,0.0
19226,56.0,0.0,90.0,12.0,0.0
19227,38.0,96.0,90.0,10.0,0.0
19228,53.0,0.0,90.0,12.0,0.0
19229,58.0,0.0,90.0,11.0,0.0
19230,58.0,96.0,90.0,12.0,0.0
19231,49.0,0.0,90.0,13.0,0.0
19232,30.0,0.0,90.0,15.0,0.0
19233,34.0,96.0,90.0,14.0,0.0
19234,54.0,0.0,90.0,11.0,0.0
19235,49.0,0.0,90.0,13.0,0.0
19236,37.0,96.0,90.0,14.0,0.0
19237,30.0,0.0,90.0,15.0,0.0
19238,59.0,96.0,90.0,11.0,0.0
19239,50.0,0.0,90.0,13.0,0.0
19240,59.0,0.0,90.0,12.0,0.0
19241,35.0,0.0,90.0,10.0,0.0
19242,56.0,96.0,90.0,11.0,0.0
19243,38.0,0.0,90.0,10.0,0.0
19244,53.0,96.0,90.0,12.0,0.0
19245,46.0,0.0,90.0,14.0,0.0
19246,30.0,96.0,90.0,15.0,0.0
19247,49.0,96.0,90.0,14.0,0.0
19248,54.0,96.0,90.0,12.0,0.0
19249,47.0,96.0,90.0,13.0,0.0
19250,30.0,0.0,90.0,15.0,0.0
19251,56.0,0.0,90.0,11.0,0.0
19252,53.0,0.0,90.0,12.0,0.0
19253,35.0,96.0,90.0,10.0,0.0
19254,56.0,0.0,90.0,11.0,0.0
19255,38.0,0.0,90.0,10.0,0.0
19256,47.0,0.0,90.0,14.0,0.0
19257,53.0,96.0,90.0,12.0,0.0
19258,30.0,96.0,90.0,15.0,0.0
19259,49.0,0.0,90.0,14.0,0.0
19260,54.0,96.0,90.0,11.0,0.0
19261,58.0,96.0,90.0,11.0,0.0
19262,53.0,96.0,90.0,14.0,0.0
19263,59.0,0.0,90.0,11.0,0.0
19264,30.0,0.0,90.0,15.0,0.0
19265,56.0,0.0,90.0,12.0,0.0
19266,35.0,96.0,90.0,10.0,0.0
19267,38.0,0.0,90.0,10.0,0.0
19268,53.0,96.0,90.0,14.0,0.0
19269,56.0,0.0,90.0,12.0,0.0
19270,59.0,0.0,90.0,13.0,0.0
19271,30.0,0.0,90.0,15.0,0.0
19272,54.0,96.0,90.0,13.0,0.0
19273,58.0,96.0,90.0,11.0,0.0
19274,61.0,96.0,90.0,11.0,0.0
19275,30.0,96.0,90.0,15.0,0.0
19276,66.0,0.0,90.0,12.0,0.0
19277,58.0,0.0,90.0,11.0,0.0
19278,34.0,96.0,90.0,10.0,0.0
19279,61.0,0.0,90.0,12.0,0.0
19280,58.0,0.0,90.0,13.0,0.0
19281,37.0,96.0,90.0,10.0,0.0
19282,65.0,0.0,90.0,12.0,0.0
19283,56.0,0.0,90.0,13.0,0.0
19284,30.0,0.0,90.0,15.0,0.0
19285,65.0,96.0,90.0,11.0,0.0
19286,59.0,0.0,90.0,11.0,0.0
19287,35.0,96.0,90.0,14.0,0.0
19288,56.0,96.0,90.0,11.0,0.0
19289,38.0,0.0,90.0,14.0,0.0
19290,30.0,0.0,90.0,15.0,0.0
19291,53.0,96.0,90.0,13.0,0.0
19292,35.0,96.0,90.0,10.0,0.0
19293,47.0,0.0,90.0,13.0,0.0
19294,38.0,0.0,90.0,10.0,0.0
19295,44.0,96.0,90.0,13.0,0.0
19296,42.0,0.0,90.0,14.0,0.0
19297,30.0,96.0,90.0,15.0,0.0
19298,46.0,96.0,90.0,14.0,0.0
19299,49.0,96.0,90.0,13.0,0.0
19300,50.0,0.0,90.0,13.0,0.0
19301,47.0,0.0,90.0,14.0,0.0
19302,30.0,96.0,90.0,15.0,0.0
19303,35.0,96.0,90.0,10.0,0.0
19304,50.0,0.0,90.0,13.0,0.0
19305,38.0,96.0,90.0,10.0,0.0
19306,47.0,0.0,90.0,14.0,0.0
19307,46.0,0.0,90.0,14.0,0.0
19308,30.0,96.0,90.0,15.0,0.0
19309,49.0,96.0,90.0,10.0,0.0
19310,54.0,96.0,90.0,10.0,0.0
19311,47.0,0.0,90.0,14.0,0.0
19312,53.0,0.0,90.0,12.0,0.0
19313,30.0,0.0,90.0,15.0,0.0
19314,56.0,96.0,90.0,11.0,0.0
19315,35.0,96.0,90.0,10.0,0.0
19316,56.0,0.0,90.0,11.0,0.0
19317,47.0,96.0,90.0,14.0,0.0
19318,38.0,0.0,90.0,10.0,0.0
19319,53.0,0.0,90.0,12.0,0.0
19320,30.0,0.0,90.0,15.0,0.0
19321,49.0,96.0,90.0,13.0,0.0
19322,54.0,96.0,90.0,11.0,0.0
19323,58.0,96.0,90.0,11.0,0.0
19324,59.0,0.0,90.0,11.0,0.0
19325,50.0,0.0,90.0,13.0,0.0
19326,30.0,96.0,90.0,15.0,0.0
19327,56.0,0.0,90.0,12.0,0.0
19328,35.0,96.0,90.0,10.0,0.0
19329,38.0,96.0,90.0,10.0,0.0
19330,53.0,0.0,90.0,12.0,0.0
19331,58.0,96.0,90.0,12.0,0.0
19332,49.0,0.0,90.0,13.0,0.0
19333,30.0,0.0,90.0,15.0,0.0
19334,58.0,0.0,90.0,11.0,0.0
19335,54.0,0.0,90.0,11.0,0.0
19336,34.0,96.0,90.0,14.0,0.0
19337,37.0,96.0,90.0,14.0,0.0
19338,49.0,0.0,90.0,13.0,0.0
19339,30.0,0.0,90.0,15.0,0.0
19340,59.0,0.0,90.0,11.0,0.0
19341,59.0,0.0,90.0,12.0,0.0
19342,50.0,96.0,90.0,13.0,0.0
19343,35.0,0.0,90.0,10.0,0.0
19344,56.0,96.0,90.0,11.0,0.0
19345,53.0,0.0,90.0,12.0,0.0
19346,38.0,96.0,90.0,10.0,0.0
19347,46.0,0.0,90.0,14.0,0.0
19348,30.0,96.0,90.0,15.0,0.0
19349,49.0,96.0,90.0,14.0,0.0
19350,54.0,96.0,90.0,12.0,0.0
19351,30.0,0.0,90.0,15.0,0.0
19352,53.0,96.0,90.0,12.0,0.0
19353,47.0,0.0,90.0,13.0,0.0
19354,56.0,0.0,90.0,11.0,0.0
19355,35.0,96.0,90.0,10.0,0.0
19356,38.0,0.0,90.0,10.0,0.0
19357,53.0,96.0,90.0,12.0,0.0
19358,47.0,0.0,90.0,14.0,0.0
19359,56.0,0.0,90.0,11.0,0.0
19360,49.0,0.0,90.0,14.0,0.0
19361,30.0,96.0,90.0,15.0,0.0
19362,54.0,96.0,90.0,11.0,0.0
19363,58.0,96.0,90.0,11.0,0.0
19364,59.0,0.0,90.0,11.0,0.0
19365,30.0,0.0,90.0,15.0,0.0
19366,56.0,0.0,90.0,12.0,0.0
19367,53.0,96.0,90.0,14.0,0.0
19368,35.0,96.0,90.0,10.0,0.0
19369,38.0,0.0,90.0,10.0,0.0
19370,56.0,0.0,90.0,12.0,0.0
19371,53.0,0.0,90.0,14.0,0.0
19372,59.0,96.0,90.0,13.0,0.0
19373,54.0,0.0,90.0,13.0,0.0
19374,30.0,96.0,90.0,15.0,0.0
19375,58.0,96.0,90.0,11.0,0.0
19376,61.0,96.0,90.0,11.0,0.0
19377,58.0,96.0,90.0,11.0,0.0
19378,66.0,0.0,90.0,12.0,0.0
19379,30.0,0.0,90.0,15.0,0.0
19380,34.0,96.0,90.0,10.0,0.0
19381,61.0,0.0,90.0,12.0,0.0
19382,37.0,96.0,90.0,10.0,0.0
19383,58.0,0.0,90.0,13.0,0.0
19384,65.0,0.0,90.0,12.0,0.0
19385,30.0,0.0,90.0,15.0,0.0
19386,65.0,0.0,90.0,11.0,0.0
19387,56.0,96.0,90.0,13.0,0.0
19388,35.0,0.0,90.0,14.0,0.0
19389,59.0,96.0,90.0,11.0,0.0
19390,38.0,0.0,90.0,14.0,0.0
19391,56.0,96.0,90.0,11.0,0.0
19392,53.0,0.0,90.0,13.0,0.0
19393,30.0,96.0,90.0,15.0,0.0
19394,47.0,96.0,90.0,13.0,0.0
19395,35.0,0.0,90.0,10.0,0.0
19396,38.0,0.0,90.0,10.0,0.0
19397,44.0,96.0,90.0,13.0,0.0
19398,49.0,0.0,90.0,14.0,0.0
19399,37.0,96.0,90.0,10.0,0.0
19400,25.0,0.0,90.0,15.0,0.0
19401,53.0,96.0,90.0,14.0,0.0
19402,26.0,0.0,90.0,15.0,0.0
19403,38.0,0.0,90.0,10.0,0.0
19404,56.0,96.0,15.0,13.0,0.0
19405,59.0,96.0,90.0,12.0,0.0
19406,44.0,96.0,90.0,10.0,0.0
19407,56.0,96.0,90.0,13.0,0.0
19408,59.0,0.0,90.0,12.0,0.0
19409,25.0,96.0,90.0,15.0,0.0
19410,49.0,0.0,90.0,14.0,0.0
19411,37.0,0.0,90.0,10.0,0.0
19412,53.0,96.0,90.0,14.0,0.0
19413,56.0,96.0,90.0,13.0,0.0
19414,26.0,0.0,90.0,15.0,0.0
19415,38.0,0.0,90.0,10.0,0.0
19416,56.0,96.0,90.0,13.0,0.0
19417,59.0,0.0,90.0,12.0,0.0
19418,44.0,96.0,90.0,10.0,0.0
19419,59.0,0.0,90.0,12.0,0.0
19420,47.0,96.0,90.0,14.0,0.0
19421,56.0,0.0,90.0,13.0,0.0
19422,39.0,0.0,90.0,10.0,0.0
19423,27.0,0.0,90.0,15.0,0.0
19424,39.0,96.0,90.0,14.0,0.0
19425,51.0,0.0,90.0,11.0,0.0
19426,55.0,0.0,90.0,13.0,0.0
19427,55.0,96.0,90.0,11.0,0.0
19428,58.0,96.0,90.0,13.0,0.0
19429,58.0,0.0,90.0,12.0,0.0
19430,28.0,0.0,90.0,15.0,0.0
19431,61.0,0.0,90.0,12.0,0.0
19432,40.0,0.0,90.0,10.0,0.0
19433,58.0,96.0,90.0,11.0,0.0
19434,46.0,96.0,90.0,14.0,0.0
19435,58.0,0.0,90.0,11.0,0.0
19436,49.0,0.0,90.0,14.0,0.0
19437,61.0,96.0,90.0,12.0,0.0
19438,41.0,0.0,90.0,10.0,0.0
19439,29.0,96.0,90.0,15.0,0.0
19440,53.0,0.0,90.0,13.0,0.0
19441,57.0,96.0,90.0,13.0,0.0
19442,63.0,96.0,90.0,11.0,0.0
19443,60.0,96.0,15.0,12.0,0.0
19444,30.0,0.0,90.0,15.0,0.0
19445,42.0,0.0,90.0,10.0,0.0
19446,48.0,96.0,90.0,14.0,0.0
19447,51.0,0.0,90.0,14.0,0.0
19448,60.0,96.0,90.0,12.0,0.0
19449,63.0,0.0,90.0,11.0,0.0
19450,25.0,0.0,90.0,15.0,0.0
19451,37.0,96.0,90.0,14.0,0.0
19452,58.0,0.0,90.0,11.0,0.0
19453,37.0,0.0,90.0,10.0,0.0
19454,58.0,0.0,90.0,12.0,0.0
19455,61.0,96.0,90.0,13.0,0.0
19456,66.0,96.0,90.0,13.0,0.0
19457,62.0,0.0,90.0,12.0,0.0
19458,68.0,0.0,90.0,12.0,0.0
19459,42.0,0.0,90.0,10.0,0.0
19460,30.0,0.0,90.0,15.0,0.0
19461,71.0,96.0,90.0,11.0,0.0
19462,65.0,0.0,90.0,11.0,0.0
19463,47.0,96.0,90.0,14.0,0.0
19464,71.0,96.0,90.0,11.0,0.0
19465,65.0,0.0,90.0,11.0,0.0
19466,50.0,0.0,90.0,14.0,0.0
19467,68.0,0.0,90.0,12.0,0.0
19468,62.0,0.0,90.0,12.0,0.0
19469,61.0,0.0,90.0,13.0,0.0
19470,37.0,0.0,90.0,10.0,0.0
19471,25.0,96.0,90.0,15.0,0.0
19472,66.0,96.0,90.0,13.0,0.0
19473,70.0,96.0,90.0,11.0,0.0
19474,30.0,0.0,90.0,15.0,0.0
19475,71.0,0.0,90.0,11.0,0.0
19476,77.0,0.0,90.0,11.0,0.0
19477,74.0,0.0,90.0,12.0,0.0
19478,42.0,96.0,90.0,10.0,0.0
19479,68.0,0.0,90.0,12.0,0.0
19480,47.0,96.0,90.0,14.0,0.0
19481,50.0,96.0,90.0,14.0,0.0
19482,68.0,0.0,90.0,12.0,0.0
19483,74.0,0.0,90.0,12.0,0.0
19484,71.0,0.0,90.0,11.0,0.0
19485,77.0,0.0,90.0,11.0,0.0
19486,23.0,96.0,90.0,15.0,0.0
19487,35.0,0.0,90.0,10.0,0.0
19488,62.0,0.0,90.0,13.0,0.0
19489,66.0,96.0,90.0,13.0,0.0
19490,71.0,96.0,90.0,12.0,0.0
19491,86.0,0.0,90.0,11.0,0.0
19492,30.0,0.0,90.0,15.0,0.0
19493,42.0,0.0,90.0,14.0,0.0
19494,74.0,96.0,90.0,12.0,0.0
19495,47.0,96.0,90.0,14.0,0.0
19496,83.0,0.0,90.0,11.0,0.0
19497,50.0,96.0,90.0,10.0,0.0
19498,77.0,0.0,90.0,12.0,0.0
19499,73.0,0.0,90.0,11.0,0.0
19500,42.0,0.0,90.0,10.0,0.0
19501,30.0,0.0,90.0,15.0,0.0
19502,85.0,96.0,90.0,12.0,0.0
19503,58.0,0.0,90.0,13.0,0.0
19504,82.0,96.0,90.0,11.0,0.0
19505,54.0,96.0,90.0,13.0,0.0
19506,78.0,0.0,90.0,12.0,0.0
19507,73.0,0.0,90.0,11.0,0.0
19508,49.0,96.0,90.0,14.0,0.0
19509,70.0,96.0,90.0,11.0,0.0
19510,46.0,0.0,90.0,10.0,0.0
19511,66.0,96.0,90.0,11.0,0.0
19512,42.0,0.0,90.0,10.0,0.0
19513,25.0,0.0,90.0,15.0,0.0
19514,37.0,96.0,90.0,10.0,0.0
19515,49.0,0.0,90.0,14.0,0.0
19516,53.0,96.0,90.0,14.0,0.0
19517,59.0,0.0,90.0,12.0,0.0
19518,38.0,0.0,90.0,10.0,0.0
19519,56.0,96.0,15.0,13.0,0.0
19520,26.0,0.0,90.0,15.0,0.0
19521,44.0,96.0,90.0,10.0,0.0
19522,56.0,0.0,90.0,13.0,0.0
19523,59.0,96.0,90.0,12.0,0.0
19524,25.0,96.0,90.0,15.0,0.0
19525,37.0,0.0,90.0,10.0,0.0
19526,49.0,0.0,90.0,14.0,0.0
19527,53.0,96.0,90.0,14.0,0.0
19528,56.0,96.0,90.0,13.0,0.0
19529,59.0,0.0,90.0,12.0,0.0
19530,38.0,0.0,90.0,10.0,0.0
19531,56.0,96.0,90.0,13.0,0.0
19532,26.0,0.0,90.0,15.0,0.0
19533,44.0,96.0,90.0,10.0,0.0
19534,59.0,96.0,90.0,12.0,0.0
19535,56.0,0.0,90.0,13.0,0.0
19536,47.0,0.0,90.0,14.0,0.0
19537,39.0,96.0,90.0,10.0,0.0
19538,39.0,0.0,90.0,14.0,0.0
19539,27.0,0.0,90.0,15.0,0.0
19540,51.0,0.0,90.0,11.0,0.0
19541,55.0,96.0,90.0,13.0,0.0
19542,55.0,0.0,90.0,11.0,0.0
19543,58.0,0.0,90.0,12.0,0.0
19544,58.0,96.0,90.0,13.0,0.0
19545,58.0,0.0,90.0,11.0,0.0
19546,40.0,0.0,90.0,10.0,0.0
19547,61.0,0.0,90.0,12.0,0.0
19548,28.0,96.0,90.0,15.0,0.0
19549,46.0,96.0,90.0,14.0,0.0
19550,61.0,96.0,90.0,12.0,0.0
19551,58.0,0.0,90.0,11.0,0.0
19552,49.0,0.0,90.0,14.0,0.0
19553,29.0,0.0,90.0,15.0,0.0
19554,53.0,0.0,90.0,13.0,0.0
19555,41.0,96.0,90.0,10.0,0.0
19556,57.0,96.0,90.0,13.0,0.0
19557,60.0,96.0,90.0,12.0,0.0
19558,60.0,0.0,90.0,12.0,0.0
19559,63.0,0.0,90.0,11.0,0.0
19560,30.0,0.0,90.0,15.0,0.0
19561,42.0,96.0,90.0,10.0,0.0
19562,48.0,96.0,90.0,14.0,0.0
19563,63.0,0.0,90.0,11.0,0.0
19564,51.0,0.0,90.0,14.0,0.0
19565,60.0,96.0,90.0,12.0,0.0
19566,37.0,0.0,90.0,14.0,0.0
19567,25.0,0.0,90.0,15.0,0.0
19568,58.0,0.0,90.0,11.0,0.0
19569,58.0,96.0,90.0,12.0,0.0
19570,37.0,0.0,90.0,10.0,0.0
19571,61.0,96.0,90.0,13.0,0.0
19572,66.0,96.0,90.0,13.0,0.0
19573,62.0,0.0,90.0,12.0,0.0
19574,68.0,0.0,90.0,12.0,0.0
19575,65.0,96.0,90.0,11.0,0.0
19576,71.0,0.0,90.0,11.0,0.0
19577,42.0,0.0,90.0,10.0,0.0
19578,30.0,0.0,90.0,15.0,0.0
19579,47.0,96.0,90.0,14.0,0.0
19580,62.0,0.0,90.0,12.0,0.0
19581,68.0,0.0,90.0,12.0,0.0
19582,71.0,96.0,90.0,11.0,0.0
19583,65.0,0.0,90.0,11.0,0.0
19584,50.0,0.0,90.0,14.0,0.0
19585,37.0,96.0,90.0,10.0,0.0
19586,25.0,0.0,90.0,15.0,0.0
19587,61.0,0.0,90.0,13.0,0.0
19588,66.0,96.0,90.0,13.0,0.0
19589,70.0,96.0,90.0,11.0,0.0
19590,30.0,0.0,90.0,15.0,0.0
19591,74.0,0.0,90.0,12.0,0.0
19592,68.0,0.0,90.0,12.0,0.0
19593,77.0,0.0,90.0,11.0,0.0
19594,71.0,96.0,90.0,11.0,0.0
19595,42.0,0.0,90.0,10.0,0.0
19596,47.0,96.0,90.0,14.0,0.0
19597,68.0,0.0,90.0,12.0,0.0
19598,74.0,0.0,90.0,12.0,0.0
19599,50.0,96.0,90.0,14.0,0.0
19600,77.0,0.0,90.0,11.0,0.0
19601,71.0,0.0,90.0,11.0,0.0
19602,35.0,0.0,90.0,10.0,0.0
19603,62.0,0.0,90.0,13.0,0.0
19604,23.0,96.0,90.0,15.0,0.0
19605,66.0,96.0,90.0,13.0,0.0
19606,71.0,96.0,90.0,12.0,0.0
19607,42.0,0.0,90.0,14.0,0.0
19608,86.0,0.0,90.0,11.0,0.0
19609,74.0,96.0,90.0,12.0,0.0
19610,30.0,0.0,90.0,15.0,0.0
19611,47.0,0.0,90.0,14.0,0.0
19612,83.0,96.0,90.0,11.0,0.0
19613,50.0,0.0,90.0,10.0,0.0
19614,77.0,96.0,90.0,12.0,0.0
19615,42.0,0.0,90.0,10.0,0.0
19616,85.0,0.0,90.0,12.0,0.0
19617,73.0,96.0,90.0,11.0,0.0
19618,30.0,0.0,90.0,15.0,0.0
19619,82.0,0.0,90.0,11.0,0.0
19620,58.0,96.0,90.0,13.0,0.0
19621,78.0,0.0,90.0,12.0,0.0
19622,54.0,96.0,90.0,13.0,0.0
19623,73.0,0.0,90.0,11.0,0.0
19624,49.0,96.0,90.0,14.0,0.0
19625,70.0,0.0,90.0,11.0,0.0
19626,46.0,96.0,90.0,10.0,0.0
19627,42.0,48.0,90.0,10.0,0.0
19628,66.0,0.0,90.0,11.0,0.0
19629,46.0,48.0,60.0,2.0,0.0
19630,37.0,0.0,90.0,3.0,0.0
19631,30.0,0.0,90.0,15.0,0.0
19632,30.0,0.0,90.0,7.0,0.0
19633,46.0,0.0,60.0,13.0,0.0
19634,25.0,0.0,90.0,3.0,0.0
19635,47.0,48.0,60.0,13.0,0.0
19636,47.0,0.0,60.0,2.0,0.0
19637,49.0,0.0,60.0,13.0,0.0
19638,49.0,48.0,60.0,2.0,0.0
19639,50.0,48.0,60.0,13.0,0.0
19640,50.0,0.0,60.0,2.0,0.0
19641,53.0,48.0,60.0,2.0,0.0
19642,53.0,0.0,60.0,13.0,0.0
19643,54.0,0.0,60.0,2.0,0.0
19644,54.0,32.0,60.0,13.0,0.0
19645,53.0,16.0,30.0,13.0,0.0
19646,30.0,48.0,90.0,15.0,0.0
19647,41.0,0.0,30.0,6.0,0.0
19648,44.0,0.0,30.0,6.0,0.0
19649,30.0,48.0,60.0,3.0,0.0
19650,56.0,0.0,30.0,2.0,0.0
19651,53.0,0.0,30.0,2.0,0.0
19652,47.0,0.0,30.0,6.0,0.0
19653,32.0,0.0,60.0,3.0,0.0
19654,32.0,0.0,60.0,14.0,0.0
19655,34.0,48.0,60.0,14.0,0.0
19656,34.0,0.0,60.0,3.0,0.0
19657,35.0,32.0,60.0,3.0,0.0
19658,35.0,0.0,60.0,14.0,0.0
19659,44.0,0.0,30.0,6.0,0.0
19660,53.0,16.0,30.0,2.0,0.0
19661,56.0,0.0,30.0,2.0,0.0
19662,37.0,48.0,60.0,14.0,0.0
19663,47.0,0.0,30.0,6.0,0.0
19664,41.0,0.0,30.0,6.0,0.0
19665,37.0,0.0,60.0,3.0,0.0
19666,38.0,48.0,60.0,14.0,0.0
19667,38.0,0.0,60.0,3.0,0.0
19668,30.0,0.0,90.0,15.0,0.0
19669,49.0,0.0,60.0,13.0,0.0
19670,25.0,0.0,90.0,3.0,0.0
19671,37.0,0.0,90.0,3.0,0.0
19672,37.0,0.0,90.0,14.0,0.0
19673,49.0,48.0,60.0,2.0,0.0
19674,30.0,0.0,90.0,7.0,0.0
19675,50.0,48.0,60.0,2.0,0.0
19676,50.0,0.0,60.0,13.0,0.0
19677,53.0,0.0,60.0,13.0,0.0
19678,53.0,48.0,60.0,2.0,0.0
19679,54.0,0.0,60.0,2.0,0.0
19680,54.0,48.0,60.0,13.0,0.0
19681,56.0,48.0,60.0,2.0,0.0
19682,56.0,0.0,60.0,13.0,0.0
19683,58.0,0.0,60.0,2.0,0.0
19684,58.0,32.0,60.0,13.0,0.0
19685,59.0,0.0,30.0,2.0,0.0
19686,56.0,0.0,30.0,2.0,0.0
19687,30.0,48.0,60.0,3.0,0.0
19688,47.0,0.0,30.0,6.0,0.0
19689,44.0,0.0,30.0,6.0,0.0
19690,56.0,0.0,30.0,13.0,0.0
19691,30.0,0.0,90.0,15.0,0.0
19692,53.0,0.0,30.0,6.0,0.0
19693,32.0,0.0,60.0,14.0,0.0
19694,32.0,48.0,60.0,3.0,0.0
19695,34.0,0.0,60.0,14.0,0.0
19696,34.0,48.0,60.0,3.0,0.0
19697,35.0,32.0,60.0,14.0,0.0
19698,35.0,0.0,60.0,3.0,0.0
19699,44.0,0.0,30.0,6.0,0.0
19700,37.0,48.0,60.0,3.0,0.0
19701,47.0,16.0,30.0,6.0,0.0
19702,56.0,0.0,30.0,2.0,0.0
19703,37.0,0.0,60.0,14.0,0.0
19704,53.0,0.0,30.0,6.0,0.0
19705,59.0,0.0,30.0,2.0,0.0
19706,38.0,48.0,60.0,14.0,0.0
19707,38.0,0.0,60.0,3.0,0.0
19708,37.0,0.0,90.0,3.0,0.0
19709,37.0,0.0,90.0,15.0,0.0
19710,37.0,0.0,90.0,14.0,0.0
19711,30.0,0.0,90.0,7.0,0.0
19712,53.0,0.0,60.0,13.0,0.0
19713,25.0,0.0,90.0,3.0,0.0
19714,53.0,0.0,60.0,2.0,0.0
19715,54.0,0.0,60.0,2.0,0.0
19716,54.0,0.0,60.0,13.0,0.0
19717,56.0,0.0,60.0,13.0,0.0
19718,56.0,0.0,60.0,2.0,0.0
19719,58.0,0.0,60.0,2.0,0.0
19720,58.0,0.0,60.0,13.0,0.0
19721,59.0,0.0,60.0,13.0,0.0
19722,59.0,0.0,60.0,2.0,0.0
19723,61.0,48.0,60.0,13.0,0.0
19724,61.0,0.0,60.0,2.0,0.0
19725,30.0,0.0,60.0,3.0,0.0
19726,62.0,0.0,60.0,11.0,0.0
19727,62.0,0.0,60.0,2.0,0.0
19728,62.0,48.0,60.0,13.0,0.0
19729,32.0,48.0,60.0,14.0,0.0
19730,59.0,0.0,60.0,2.0,0.0
19731,59.0,0.0,60.0,11.0,0.0
19732,32.0,0.0,60.0,3.0,0.0
19733,58.0,48.0,60.0,2.0,0.0
19734,34.0,0.0,60.0,3.0,0.0
19735,58.0,0.0,60.0,11.0,0.0
19736,34.0,0.0,60.0,14.0,0.0
19737,56.0,0.0,60.0,2.0,0.0
19738,56.0,0.0,60.0,11.0,0.0
19739,35.0,0.0,60.0,14.0,0.0
19740,35.0,48.0,60.0,3.0,0.0
19741,54.0,0.0,60.0,2.0,0.0
19742,37.0,48.0,60.0,3.0,0.0
19743,37.0,0.0,60.0,14.0,0.0
19744,54.0,0.0,60.0,11.0,0.0
19745,38.0,48.0,60.0,14.0,0.0
19746,53.0,0.0,60.0,2.0,0.0
19747,53.0,0.0,60.0,11.0,0.0
19748,38.0,0.0,60.0,3.0,0.0
19749,37.0,0.0,90.0,14.0,0.0
19750,61.0,46.0,60.0,2.0,0.0
19751,49.0,2.0,90.0,2.0,0.0
19752,61.0,0.0,60.0,12.0,0.0
19753,37.0,0.0,90.0,3.0,0.0
19754,30.0,0.0,60.0,15.0,0.0
19755,58.0,0.0,60.0,12.0,0.0
19756,58.0,0.0,60.0,2.0,0.0
19757,32.0,48.0,60.0,15.0,0.0
19758,56.0,0.0,60.0,12.0,0.0
19759,34.0,0.0,60.0,15.0,0.0
19760,56.0,48.0,60.0,2.0,0.0
19761,54.0,0.0,60.0,12.0,0.0
19762,35.0,48.0,60.0,15.0,0.0
19763,54.0,0.0,60.0,2.0,0.0
19764,53.0,0.0,60.0,2.0,0.0
19765,53.0,0.0,60.0,12.0,0.0
19766,37.0,48.0,60.0,15.0,0.0
19767,54.0,48.0,60.0,12.0,0.0
19768,38.0,0.0,60.0,15.0,0.0
19769,54.0,0.0,60.0,2.0,0.0
19770,62.0,0.0,60.0,2.0,0.0
19771,30.0,0.0,60.0,3.0,0.0
19772,30.0,0.0,60.0,2.0,0.0
19773,62.0,48.0,60.0,11.0,0.0
19774,50.0,48.0,90.0,2.0,0.0
19775,32.0,0.0,60.0,3.0,0.0
19776,32.0,0.0,60.0,14.0,0.0
19777,32.0,0.0,60.0,2.0,0.0
19778,59.0,0.0,60.0,11.0,0.0
19779,59.0,0.0,60.0,2.0,0.0
19780,34.0,0.0,60.0,14.0,0.0
19781,34.0,0.0,60.0,3.0,0.0
19782,58.0,0.0,60.0,2.0,0.0
19783,58.0,48.0,60.0,11.0,0.0
19784,34.0,0.0,60.0,2.0,0.0
19785,35.0,0.0,60.0,3.0,0.0
19786,35.0,0.0,60.0,14.0,0.0
19787,56.0,0.0,60.0,2.0,0.0
19788,56.0,48.0,60.0,11.0,0.0
19789,35.0,0.0,60.0,2.0,0.0
19790,37.0,0.0,60.0,2.0,0.0
19791,37.0,0.0,60.0,14.0,0.0
19792,54.0,0.0,60.0,2.0,0.0
19793,37.0,0.0,60.0,3.0,0.0
19794,54.0,48.0,60.0,11.0,0.0
19795,53.0,0.0,60.0,2.0,0.0
19796,53.0,48.0,60.0,11.0,0.0
19797,38.0,0.0,60.0,14.0,0.0
19798,38.0,0.0,60.0,3.0,0.0
19799,38.0,0.0,60.0,2.0,0.0
19800,30.0,0.0,90.0,7.0,0.0
19801,58.0,46.0,60.0,12.0,0.0
19802,37.0,0.0,90.0,14.0,0.0
19803,37.0,48.0,90.0,3.0,0.0
19804,49.0,2.0,90.0,2.0,0.0
19805,58.0,0.0,60.0,2.0,0.0
19806,37.0,0.0,90.0,2.0,0.0
19807,25.0,0.0,90.0,3.0,0.0
19808,37.0,0.0,90.0,15.0,0.0
19809,59.0,0.0,60.0,2.0,0.0
19810,59.0,0.0,60.0,12.0,0.0
19811,61.0,48.0,60.0,2.0,0.0
19812,61.0,0.0,60.0,12.0,0.0
19813,62.0,0.0,60.0,12.0,0.0
19814,62.0,48.0,60.0,2.0,0.0
19815,65.0,0.0,60.0,2.0,0.0
19816,65.0,48.0,60.0,12.0,0.0
19817,66.0,32.0,60.0,2.0,0.0
19818,66.0,0.0,60.0,12.0,0.0
19819,65.0,16.0,30.0,12.0,0.0
19820,56.0,0.0,30.0,4.0,0.0
19821,62.0,0.0,30.0,5.0,0.0
19822,30.0,0.0,60.0,2.0,0.0
19823,71.0,0.0,30.0,5.0,0.0
19824,62.0,0.0,30.0,1.0,0.0
19825,71.0,0.0,30.0,1.0,0.0
19826,30.0,48.0,60.0,15.0,0.0
19827,59.0,0.0,30.0,4.0,0.0
19828,53.0,0.0,30.0,4.0,0.0
19829,65.0,0.0,30.0,2.0,0.0
19830,68.0,0.0,30.0,5.0,0.0
19831,50.0,0.0,30.0,4.0,0.0
19832,68.0,0.0,30.0,2.0,0.0
19833,32.0,48.0,60.0,2.0,0.0
19834,32.0,0.0,60.0,15.0,0.0
19835,34.0,48.0,60.0,2.0,0.0
19836,34.0,0.0,60.0,15.0,0.0
19837,35.0,0.0,60.0,15.0,0.0
19838,35.0,32.0,60.0,2.0,0.0
19839,50.0,0.0,30.0,4.0,0.0
19840,37.0,0.0,60.0,15.0,0.0
19841,62.0,0.0,30.0,1.0,0.0
19842,71.0,0.0,30.0,5.0,0.0
19843,59.0,0.0,30.0,4.0,0.0
19844,53.0,0.0,30.0,4.0,0.0
19845,56.0,0.0,30.0,4.0,0.0
19846,37.0,48.0,60.0,2.0,0.0
19847,71.0,0.0,30.0,1.0,0.0
19848,68.0,0.0,30.0,2.0,0.0
19849,68.0,0.0,30.0,5.0,0.0
19850,62.0,16.0,30.0,5.0,0.0
19851,38.0,0.0,60.0,15.0,0.0
19852,38.0,48.0,60.0,2.0,0.0
19853,37.0,48.0,90.0,15.0,0.0
19854,61.0,48.0,60.0,2.0,0.0
19855,61.0,0.0,60.0,12.0,0.0
19856,30.0,0.0,90.0,7.0,0.0
19857,30.0,0.0,90.0,15.0,0.0
19858,25.0,0.0,90.0,3.0,0.0
19859,37.0,0.0,90.0,2.0,0.0
19860,62.0,0.0,60.0,2.0,0.0
19861,62.0,0.0,60.0,12.0,0.0
19862,65.0,48.0,60.0,12.0,0.0
19863,65.0,0.0,60.0,2.0,0.0
19864,66.0,0.0,60.0,12.0,0.0
19865,66.0,48.0,60.0,2.0,0.0
19866,68.0,0.0,60.0,2.0,0.0
19867,68.0,48.0,60.0,12.0,0.0
19868,70.0,0.0,60.0,2.0,0.0
19869,70.0,32.0,60.0,12.0,0.0
19870,56.0,16.0,30.0,4.0,0.0
19871,74.0,0.0,30.0,1.0,0.0
19872,71.0,0.0,30.0,1.0,0.0
19873,74.0,0.0,30.0,5.0,0.0
19874,53.0,0.0,30.0,4.0,0.0
19875,59.0,0.0,30.0,4.0,0.0
19876,71.0,0.0,30.0,5.0,0.0
19877,65.0,0.0,30.0,2.0,0.0
19878,68.0,0.0,30.0,12.0,0.0
19879,62.0,0.0,30.0,4.0,0.0
19880,68.0,0.0,30.0,2.0,0.0
19881,30.0,48.0,60.0,15.0,0.0
19882,65.0,0.0,30.0,5.0,0.0
19883,32.0,48.0,60.0,15.0,0.0
19884,34.0,48.0,60.0,15.0,0.0
19885,35.0,32.0,60.0,15.0,0.0
19886,37.0,48.0,60.0,15.0,0.0
19887,74.0,0.0,30.0,5.0,0.0
19888,65.0,0.0,30.0,5.0,0.0
19889,71.0,0.0,30.0,5.0,0.0
19890,56.0,0.0,30.0,4.0,0.0
19891,62.0,0.0,30.0,4.0,0.0
19892,53.0,0.0,30.0,4.0,0.0
19893,65.0,0.0,30.0,2.0,0.0
19894,74.0,0.0,30.0,1.0,0.0
19895,59.0,0.0,30.0,4.0,0.0
19896,68.0,0.0,30.0,2.0,0.0
19897,71.0,16.0,30.0,1.0,0.0
19898,38.0,48.0,60.0,15.0,0.0
19899,65.0,48.0,60.0,11.0,0.0
19900,37.0,0.0,90.0,15.0,0.0
19901,25.0,0.0,90.0,3.0,0.0
19902,30.0,48.0,90.0,7.0,0.0
19903,66.0,0.0,60.0,11.0,0.0
19904,68.0,48.0,60.0,11.0,0.0
19905,70.0,48.0,60.0,11.0,0.0
19906,71.0,48.0,60.0,11.0,0.0
19907,73.0,48.0,60.0,11.0,0.0
19908,74.0,48.0,60.0,11.0,0.0
19909,78.0,0.0,60.0,12.0,0.0
19910,78.0,0.0,60.0,11.0,0.0
19911,54.0,0.0,60.0,2.0,0.0
19912,30.0,48.0,60.0,3.0,0.0
19913,74.0,48.0,60.0,12.0,0.0
19914,32.0,0.0,60.0,14.0,0.0
19915,56.0,0.0,60.0,2.0,0.0
19916,32.0,0.0,60.0,3.0,0.0
19917,34.0,0.0,60.0,14.0,0.0
19918,34.0,0.0,60.0,3.0,0.0
19919,73.0,48.0,60.0,12.0,0.0
19920,58.0,0.0,60.0,2.0,0.0
19921,35.0,0.0,60.0,3.0,0.0
19922,35.0,0.0,60.0,14.0,0.0
19923,71.0,48.0,60.0,12.0,0.0
19924,59.0,0.0,60.0,2.0,0.0
19925,61.0,48.0,60.0,2.0,0.0
19926,37.0,0.0,60.0,14.0,0.0
19927,70.0,0.0,60.0,12.0,0.0
19928,37.0,0.0,60.0,3.0,0.0
19929,38.0,0.0,60.0,14.0,0.0
19930,71.0,0.0,60.0,12.0,0.0
19931,62.0,48.0,60.0,2.0,0.0
19932,38.0,0.0,60.0,3.0,0.0
19933,42.0,0.0,60.0,3.0,0.0
19934,37.0,0.0,90.0,14.0,0.0
19935,30.0,0.0,60.0,3.0,0.0
19936,54.0,48.0,60.0,2.0,0.0
19937,65.0,0.0,60.0,2.0,0.0
19938,66.0,0.0,60.0,12.0,0.0
19939,30.0,0.0,60.0,2.0,0.0
19940,77.0,0.0,60.0,11.0,0.0
19941,30.0,0.0,60.0,15.0,0.0
19942,32.0,48.0,60.0,3.0,0.0
19943,32.0,0.0,60.0,2.0,0.0
19944,56.0,0.0,60.0,2.0,0.0
19945,32.0,0.0,60.0,15.0,0.0
19946,74.0,0.0,60.0,11.0,0.0
19947,34.0,0.0,60.0,15.0,0.0
19948,58.0,0.0,60.0,2.0,0.0
19949,71.0,0.0,60.0,11.0,0.0
19950,34.0,0.0,60.0,3.0,0.0
19951,34.0,48.0,60.0,2.0,0.0
19952,59.0,48.0,60.0,2.0,0.0
19953,35.0,0.0,60.0,3.0,0.0
19954,68.0,0.0,60.0,11.0,0.0
19955,35.0,0.0,60.0,15.0,0.0
19956,35.0,0.0,60.0,2.0,0.0
19957,61.0,0.0,60.0,2.0,0.0
19958,37.0,0.0,60.0,2.0,0.0
19959,65.0,0.0,60.0,11.0,0.0
19960,37.0,48.0,60.0,15.0,0.0
19961,37.0,0.0,60.0,3.0,0.0
19962,38.0,0.0,60.0,3.0,0.0
19963,38.0,48.0,60.0,2.0,0.0
19964,62.0,0.0,60.0,2.0,0.0
19965,62.0,0.0,60.0,11.0,0.0
19966,38.0,0.0,60.0,15.0,0.0
19967,59.0,48.0,90.0,2.0,0.0
19968,59.0,0.0,60.0,13.0,0.0
19969,42.0,0.0,60.0,2.0,0.0
19970,42.0,0.0,60.0,3.0,0.0
19971,59.0,48.0,60.0,11.0,0.0
19972,30.0,0.0,60.0,3.0,0.0
19973,32.0,0.0,60.0,3.0,0.0
19974,32.0,0.0,60.0,14.0,0.0
19975,56.0,0.0,60.0,13.0,0.0
19976,53.0,0.0,60.0,13.0,0.0
19977,34.0,0.0,60.0,14.0,0.0
19978,34.0,48.0,60.0,3.0,0.0
19979,35.0,48.0,60.0,14.0,0.0
19980,35.0,0.0,60.0,3.0,0.0
19981,50.0,0.0,60.0,13.0,0.0
19982,47.0,48.0,60.0,13.0,0.0
19983,37.0,0.0,60.0,3.0,0.0
19984,37.0,0.0,60.0,14.0,0.0
19985,38.0,48.0,60.0,3.0,0.0
19986,38.0,0.0,60.0,14.0,0.0
19987,44.0,0.0,60.0,13.0,0.0
19988,46.0,48.0,60.0,2.0,0.0
19989,30.0,0.0,90.0,7.0,0.0
19990,25.0,48.0,90.0,3.0,0.0
19991,30.0,0.0,90.0,15.0,0.0
19992,46.0,0.0,60.0,13.0,0.0
19993,37.0,0.0,90.0,3.0,0.0
19994,47.0,0.0,60.0,13.0,0.0
19995,47.0,0.0,60.0,2.0,0.0
19996,49.0,0.0,60.0,2.0,0.0
19997,49.0,48.0,60.0,13.0,0.0
19998,50.0,48.0,60.0,2.0,0.0
19999,50.0,0.0,60.0,13.0,0.0
20000,53.0,48.0,60.0,13.0,0.0
20001,53.0,0.0,60.0,2.0,0.0
20002,54.0,32.0,60.0,2.0,0.0
20003,54.0,0.0,60.0,13.0,0.0
20004,41.0,0.0,30.0,6.0,0.0
20005,44.0,16.0,30.0,6.0,0.0
20006,30.0,48.0,60.0,3.0,0.0
20007,30.0,0.0,90.0,15.0,0.0
20008,53.0,0.0,30.0,13.0,0.0
20009,56.0,0.0,30.0,2.0,0.0
20010,53.0,0.0,30.0,2.0,0.0
20011,47.0,0.0,30.0,6.0,0.0
20012,32.0,0.0,60.0,3.0,0.0
20013,32.0,48.0,60.0,14.0,0.0
20014,34.0,48.0,60.0,3.0,0.0
20015,34.0,0.0,60.0,14.0,0.0
20016,35.0,32.0,60.0,14.0,0.0
20017,35.0,0.0,60.0,3.0,0.0
20018,37.0,0.0,60.0,3.0,0.0
20019,47.0,16.0,30.0,6.0,0.0
20020,44.0,0.0,30.0,6.0,0.0
20021,56.0,0.0,30.0,2.0,0.0
20022,41.0,0.0,30.0,6.0,0.0
20023,53.0,0.0,30.0,2.0,0.0
20024,37.0,48.0,60.0,14.0,0.0
20025,38.0,0.0,60.0,14.0,0.0
20026,38.0,48.0,60.0,3.0,0.0
20027,30.0,0.0,90.0,15.0,0.0
20028,25.0,0.0,90.0,3.0,0.0
20029,37.0,0.0,90.0,3.0,0.0
20030,49.0,0.0,60.0,13.0,0.0
20031,30.0,0.0,90.0,7.0,0.0
20032,49.0,48.0,60.0,2.0,0.0
20033,37.0,0.0,90.0,14.0,0.0
20034,50.0,0.0,60.0,13.0,0.0
20035,50.0,48.0,60.0,2.0,0.0
20036,53.0,48.0,60.0,13.0,0.0
20037,53.0,0.0,60.0,2.0,0.0
20038,54.0,48.0,60.0,13.0,0.0
20039,54.0,0.0,60.0,2.0,0.0
20040,56.0,48.0,60.0,13.0,0.0
20041,56.0,0.0,60.0,2.0,0.0
20042,58.0,0.0,60.0,2.0,0.0
20043,58.0,32.0,60.0,13.0,0.0
20044,47.0,0.0,30.0,6.0,0.0
20045,44.0,0.0,30.0,6.0,0.0
20046,59.0,0.0,30.0,2.0,0.0
20047,30.0,0.0,90.0,15.0,0.0
20048,56.0,0.0,30.0,2.0,0.0
20049,30.0,48.0,60.0,3.0,0.0
20050,56.0,0.0,30.0,13.0,0.0
20051,53.0,16.0,30.0,6.0,0.0
20052,32.0,0.0,60.0,14.0,0.0
20053,32.0,48.0,60.0,3.0,0.0
20054,34.0,0.0,60.0,14.0,0.0
20055,34.0,48.0,60.0,3.0,0.0
20056,35.0,0.0,60.0,14.0,0.0
20057,35.0,32.0,60.0,3.0,0.0
20058,56.0,0.0,30.0,2.0,0.0
20059,59.0,0.0,30.0,2.0,0.0
20060,37.0,48.0,60.0,14.0,0.0
20061,37.0,0.0,60.0,3.0,0.0
20062,53.0,0.0,30.0,6.0,0.0
20063,47.0,16.0,30.0,6.0,0.0
20064,44.0,0.0,30.0,6.0,0.0
20065,38.0,48.0,60.0,3.0,0.0
20066,38.0,0.0,60.0,14.0,0.0
20067,53.0,48.0,60.0,13.0,0.0
20068,37.0,0.0,90.0,15.0,0.0
20069,53.0,0.0,60.0,2.0,0.0
20070,37.0,0.0,90.0,14.0,0.0
20071,30.0,0.0,90.0,7.0,0.0
20072,25.0,0.0,90.0,3.0,0.0
20073,37.0,48.0,90.0,3.0,0.0
20074,54.0,0.0,60.0,13.0,0.0
20075,54.0,0.0,60.0,2.0,0.0
20076,56.0,0.0,60.0,13.0,0.0
20077,56.0,0.0,60.0,2.0,0.0
20078,58.0,0.0,60.0,2.0,0.0
20079,58.0,0.0,60.0,13.0,0.0
20080,59.0,0.0,60.0,13.0,0.0
20081,59.0,0.0,60.0,2.0,0.0
20082,61.0,0.0,60.0,2.0,0.0
20083,61.0,48.0,60.0,13.0,0.0
20084,62.0,0.0,60.0,13.0,0.0
20085,62.0,48.0,60.0,11.0,0.0
20086,30.0,0.0,60.0,3.0,0.0
20087,62.0,0.0,60.0,2.0,0.0
20088,32.0,0.0,60.0,14.0,0.0
20089,32.0,0.0,60.0,3.0,0.0
20090,59.0,0.0,60.0,2.0,0.0
20091,59.0,48.0,60.0,11.0,0.0
20092,58.0,0.0,60.0,11.0,0.0
20093,58.0,0.0,60.0,2.0,0.0
20094,34.0,48.0,60.0,3.0,0.0
20095,34.0,0.0,60.0,14.0,0.0
20096,56.0,0.0,60.0,2.0,0.0
20097,35.0,0.0,60.0,3.0,0.0
20098,35.0,0.0,60.0,14.0,0.0
20099,56.0,48.0,60.0,11.0,0.0
20100,37.0,48.0,60.0,14.0,0.0
20101,54.0,0.0,60.0,2.0,0.0
20102,54.0,0.0,60.0,11.0,0.0
20103,37.0,0.0,60.0,3.0,0.0
20104,38.0,0.0,60.0,14.0,0.0
20105,53.0,0.0,60.0,2.0,0.0
20106,53.0,0.0,60.0,11.0,0.0
20107,38.0,48.0,60.0,3.0,0.0
20108,37.0,0.0,90.0,14.0,0.0
20109,30.0,46.0,60.0,15.0,0.0
20110,61.0,0.0,60.0,12.0,0.0
20111,37.0,0.0,90.0,3.0,0.0
20112,61.0,0.0,60.0,2.0,0.0
20113,49.0,2.0,90.0,2.0,0.0
20114,32.0,0.0,60.0,15.0,0.0
20115,58.0,0.0,60.0,12.0,0.0
20116,58.0,48.0,60.0,2.0,0.0
20117,34.0,48.0,60.0,15.0,0.0
20118,56.0,0.0,60.0,2.0,0.0
20119,56.0,0.0,60.0,12.0,0.0
20120,54.0,0.0,60.0,2.0,0.0
20121,35.0,0.0,60.0,15.0,0.0
20122,54.0,48.0,60.0,12.0,0.0
20123,53.0,0.0,60.0,12.0,0.0
20124,37.0,0.0,60.0,15.0,0.0
20125,53.0,48.0,60.0,2.0,0.0
20126,54.0,48.0,60.0,12.0,0.0
20127,38.0,0.0,60.0,15.0,0.0
20128,54.0,0.0,60.0,2.0,0.0
20129,30.0,0.0,60.0,2.0,0.0
20130,30.0,48.0,60.0,3.0,0.0
20131,62.0,0.0,60.0,2.0,0.0
20132,50.0,0.0,90.0,2.0,0.0
20133,62.0,0.0,60.0,11.0,0.0
20134,59.0,48.0,60.0,11.0,0.0
20135,32.0,0.0,60.0,2.0,0.0
20136,59.0,0.0,60.0,2.0,0.0
20137,32.0,0.0,60.0,14.0,0.0
20138,32.0,0.0,60.0,3.0,0.0
20139,34.0,48.0,60.0,2.0,0.0
20140,58.0,0.0,60.0,11.0,0.0
20141,34.0,0.0,60.0,3.0,0.0
20142,58.0,0.0,60.0,2.0,0.0
20143,34.0,0.0,60.0,14.0,0.0
20144,35.0,0.0,60.0,14.0,0.0
20145,35.0,0.0,60.0,3.0,0.0
20146,35.0,0.0,60.0,2.0,0.0
20147,56.0,0.0,60.0,2.0,0.0
20148,56.0,48.0,60.0,11.0,0.0
20149,54.0,0.0,60.0,2.0,0.0
20150,37.0,0.0,60.0,14.0,0.0
20151,37.0,0.0,60.0,2.0,0.0
20152,54.0,0.0,60.0,11.0,0.0
20153,37.0,48.0,60.0,3.0,0.0
20154,38.0,0.0,60.0,14.0,0.0
20155,53.0,48.0,60.0,11.0,0.0
20156,53.0,0.0,60.0,2.0,0.0
20157,38.0,0.0,60.0,3.0,0.0
20158,38.0,0.0,60.0,2.0,0.0
20159,49.0,2.0,90.0,2.0,0.0
20160,37.0,0.0,90.0,15.0,0.0
20161,58.0,0.0,60.0,2.0,0.0
20162,37.0,0.0,90.0,3.0,0.0
20163,25.0,48.0,90.0,3.0,0.0
20164,37.0,0.0,90.0,2.0,0.0
20165,30.0,0.0,90.0,7.0,0.0
20166,58.0,46.0,60.0,12.0,0.0
20167,37.0,0.0,90.0,14.0,0.0
20168,59.0,0.0,60.0,12.0,0.0
20169,59.0,0.0,60.0,2.0,0.0
20170,61.0,0.0,60.0,12.0,0.0
20171,61.0,48.0,60.0,2.0,0.0
20172,62.0,0.0,60.0,2.0,0.0
20173,62.0,48.0,60.0,12.0,0.0
20174,65.0,0.0,60.0,12.0,0.0
20175,65.0,48.0,60.0,2.0,0.0
20176,66.0,0.0,60.0,2.0,0.0
20177,66.0,32.0,60.0,12.0,0.0
20178,68.0,0.0,30.0,5.0,0.0
20179,50.0,0.0,30.0,4.0,0.0
20180,71.0,0.0,30.0,5.0,0.0
20181,59.0,0.0,30.0,4.0,0.0
20182,53.0,0.0,30.0,4.0,0.0
20183,62.0,0.0,30.0,1.0,0.0
20184,68.0,0.0,30.0,2.0,0.0
20185,30.0,0.0,60.0,15.0,0.0
20186,65.0,16.0,30.0,2.0,0.0
20187,56.0,0.0,30.0,4.0,0.0
20188,30.0,48.0,60.0,2.0,0.0
20189,65.0,0.0,30.0,12.0,0.0
20190,71.0,0.0,30.0,1.0,0.0
20191,62.0,0.0,30.0,5.0,0.0
20192,32.0,0.0,60.0,2.0,0.0
20193,32.0,48.0,60.0,15.0,0.0
20194,34.0,48.0,60.0,2.0,0.0
20195,34.0,0.0,60.0,15.0,0.0
20196,35.0,0.0,60.0,2.0,0.0
20197,35.0,32.0,60.0,15.0,0.0
20198,53.0,0.0,30.0,4.0,0.0
20199,59.0,0.0,30.0,4.0,0.0
20200,50.0,0.0,30.0,4.0,0.0
20201,68.0,0.0,30.0,2.0,0.0
20202,56.0,0.0,30.0,4.0,0.0
20203,71.0,0.0,30.0,1.0,0.0
20204,62.0,0.0,30.0,1.0,0.0
20205,37.0,0.0,60.0,2.0,0.0
20206,68.0,16.0,30.0,5.0,0.0
20207,62.0,0.0,30.0,5.0,0.0
20208,37.0,48.0,60.0,15.0,0.0
20209,71.0,0.0,30.0,5.0,0.0
20210,38.0,48.0,60.0,15.0,0.0
20211,38.0,0.0,60.0,2.0,0.0
20212,37.0,0.0,90.0,2.0,0.0
20213,61.0,0.0,60.0,12.0,0.0
20214,61.0,48.0,60.0,2.0,0.0
20215,30.0,48.0,90.0,7.0,0.0
20216,37.0,0.0,90.0,15.0,0.0
20217,30.0,0.0,90.0,15.0,0.0
20218,25.0,0.0,90.0,3.0,0.0
20219,62.0,0.0,60.0,2.0,0.0
20220,62.0,0.0,60.0,12.0,0.0
20221,65.0,0.0,60.0,2.0,0.0
20222,65.0,48.0,60.0,12.0,0.0
20223,66.0,48.0,60.0,2.0,0.0
20224,66.0,0.0,60.0,12.0,0.0
20225,68.0,48.0,60.0,12.0,0.0
20226,68.0,0.0,60.0,2.0,0.0
20227,70.0,0.0,60.0,2.0,0.0
20228,70.0,32.0,60.0,12.0,0.0
20229,65.0,0.0,30.0,5.0,0.0
20230,71.0,0.0,30.0,5.0,0.0
20231,74.0,0.0,30.0,1.0,0.0
20232,74.0,0.0,30.0,5.0,0.0
20233,62.0,0.0,30.0,4.0,0.0
20234,56.0,0.0,30.0,4.0,0.0
20235,68.0,0.0,30.0,2.0,0.0
20236,71.0,0.0,30.0,1.0,0.0
20237,65.0,0.0,30.0,2.0,0.0
20238,59.0,0.0,30.0,4.0,0.0
20239,53.0,16.0,30.0,4.0,0.0
20240,30.0,48.0,60.0,15.0,0.0
20241,68.0,0.0,30.0,12.0,0.0
20242,32.0,48.0,60.0,15.0,0.0
20243,34.0,48.0,60.0,15.0,0.0
20244,35.0,32.0,60.0,15.0,0.0
20245,65.0,0.0,30.0,2.0,0.0
20246,68.0,0.0,30.0,2.0,0.0
20247,59.0,0.0,30.0,4.0,0.0
20248,53.0,0.0,30.0,4.0,0.0
20249,74.0,16.0,30.0,1.0,0.0
20250,71.0,0.0,30.0,5.0,0.0
20251,65.0,0.0,30.0,5.0,0.0
20252,37.0,48.0,60.0,15.0,0.0
20253,74.0,0.0,30.0,5.0,0.0
20254,56.0,0.0,30.0,4.0,0.0
20255,62.0,0.0,30.0,4.0,0.0
20256,71.0,0.0,30.0,1.0,0.0
20257,38.0,48.0,60.0,15.0,0.0
20258,25.0,0.0,90.0,3.0,0.0
20259,37.0,0.0,90.0,15.0,0.0
20260,30.0,0.0,90.0,7.0,0.0
20261,65.0,48.0,60.0,11.0,0.0
20262,66.0,48.0,60.0,11.0,0.0
20263,68.0,48.0,60.0,11.0,0.0
20264,70.0,48.0,60.0,11.0,0.0
20265,71.0,48.0,60.0,11.0,0.0
20266,73.0,48.0,60.0,11.0,0.0
20267,74.0,48.0,60.0,11.0,0.0
20268,30.0,0.0,60.0,3.0,0.0
20269,78.0,0.0,60.0,12.0,0.0
20270,78.0,0.0,60.0,11.0,0.0
20271,54.0,48.0,60.0,2.0,0.0
20272,32.0,0.0,60.0,3.0,0.0
20273,74.0,0.0,60.0,12.0,0.0
20274,32.0,48.0,60.0,14.0,0.0
20275,56.0,0.0,60.0,2.0,0.0
20276,58.0,0.0,60.0,2.0,0.0
20277,34.0,48.0,60.0,14.0,0.0
20278,34.0,0.0,60.0,3.0,0.0
20279,73.0,0.0,60.0,12.0,0.0
20280,71.0,0.0,60.0,12.0,0.0
20281,35.0,0.0,60.0,14.0,0.0
20282,35.0,0.0,60.0,3.0,0.0
20283,59.0,48.0,60.0,2.0,0.0
20284,37.0,0.0,60.0,14.0,0.0
20285,37.0,0.0,60.0,3.0,0.0
20286,70.0,48.0,60.0,12.0,0.0
20287,61.0,0.0,60.0,2.0,0.0
20288,38.0,0.0,60.0,3.0,0.0
20289,62.0,0.0,60.0,2.0,0.0
20290,38.0,0.0,60.0,14.0,0.0
20291,71.0,48.0,60.0,12.0,0.0
20292,77.0,0.0,60.0,11.0,0.0
20293,30.0,0.0,60.0,3.0,0.0
20294,42.0,0.0,60.0,3.0,0.0
20295,30.0,48.0,60.0,2.0,0.0
20296,66.0,0.0,60.0,12.0,0.0
20297,65.0,0.0,60.0,2.0,0.0
20298,37.0,48.0,90.0,14.0,0.0
20299,54.0,0.0,60.0,2.0,0.0
20300,30.0,0.0,60.0,15.0,0.0
20301,32.0,0.0,60.0,15.0,0.0
20302,32.0,0.0,60.0,3.0,0.0
20303,74.0,0.0,60.0,11.0,0.0
20304,56.0,0.0,60.0,2.0,0.0
20305,32.0,0.0,60.0,2.0,0.0
20306,34.0,0.0,60.0,15.0,0.0
20307,34.0,48.0,60.0,3.0,0.0
20308,71.0,0.0,60.0,11.0,0.0
20309,34.0,0.0,60.0,2.0,0.0
20310,58.0,0.0,60.0,2.0,0.0
20311,59.0,0.0,60.0,2.0,0.0
20312,68.0,0.0,60.0,11.0,0.0
20313,35.0,0.0,60.0,2.0,0.0
20314,35.0,48.0,60.0,15.0,0.0
20315,35.0,0.0,60.0,3.0,0.0
20316,37.0,48.0,60.0,2.0,0.0
20317,65.0,0.0,60.0,11.0,0.0
20318,37.0,0.0,60.0,3.0,0.0
20319,61.0,0.0,60.0,2.0,0.0
20320,37.0,0.0,60.0,15.0,0.0
20321,38.0,0.0,60.0,2.0,0.0
20322,62.0,0.0,60.0,11.0,0.0
20323,38.0,48.0,60.0,15.0,0.0
20324,38.0,0.0,60.0,3.0,0.0
20325,62.0,0.0,60.0,2.0,0.0
20326,59.0,0.0,60.0,11.0,0.0
20327,42.0,0.0,60.0,2.0,0.0
20328,42.0,0.0,60.0,3.0,0.0
20329,59.0,0.0,90.0,2.0,0.0
20330,59.0,48.0,60.0,13.0,0.0
20331,30.0,0.0,60.0,3.0,0.0
20332,32.0,0.0,60.0,3.0,0.0
20333,56.0,48.0,60.0,13.0,0.0
20334,32.0,0.0,60.0,14.0,0.0
20335,34.0,48.0,60.0,14.0,0.0
20336,34.0,0.0,60.0,3.0,0.0
20337,53.0,0.0,60.0,13.0,0.0
20338,35.0,0.0,60.0,3.0,0.0
20339,50.0,48.0,60.0,13.0,0.0
20340,35.0,0.0,60.0,14.0,0.0
20341,37.0,0.0,60.0,14.0,0.0
20342,37.0,48.0,60.0,3.0,0.0
20343,47.0,0.0,60.0,13.0,0.0
20344,38.0,0.0,60.0,14.0,0.0
20345,44.0,32.0,60.0,13.0,0.0
20346,38.0,0.0,60.0,3.0,0.0
20347,37.0,16.0,30.0,7.0,0.0
20348,25.0,0.0,30.0,15.0,0.0
20349,49.0,48.0,60.0,2.0,0.0
20350,49.0,0.0,60.0,13.0,0.0
20351,37.0,0.0,30.0,3.0,0.0
20352,50.0,48.0,60.0,13.0,0.0
20353,50.0,0.0,60.0,2.0,0.0
20354,53.0,0.0,60.0,13.0,0.0
20355,53.0,48.0,60.0,2.0,0.0
20356,54.0,48.0,60.0,13.0,0.0
20357,54.0,0.0,60.0,2.0,0.0
20358,56.0,48.0,60.0,13.0,0.0
20359,56.0,0.0,60.0,2.0,0.0
20360,58.0,0.0,60.0,2.0,0.0
20361,58.0,32.0,60.0,13.0,0.0
20362,44.0,0.0,30.0,3.0,0.0
20363,47.0,0.0,30.0,3.0,0.0
20364,59.0,0.0,30.0,1.0,0.0
20365,59.0,0.0,30.0,2.0,0.0
20366,37.0,0.0,30.0,7.0,0.0
20367,44.0,64.0,30.0,6.0,0.0
20368,47.0,0.0,30.0,6.0,0.0
20369,56.0,0.0,30.0,2.0,0.0
20370,56.0,0.0,30.0,1.0,0.0
20371,37.0,0.0,30.0,3.0,0.0
20372,38.0,0.0,30.0,6.0,0.0
20373,25.0,0.0,30.0,15.0,0.0
20374,56.0,0.0,30.0,13.0,0.0
20375,37.0,48.0,60.0,14.0,0.0
20376,37.0,0.0,60.0,2.0,0.0
20377,38.0,48.0,60.0,2.0,0.0
20378,38.0,0.0,60.0,14.0,0.0
20379,44.0,0.0,60.0,2.0,0.0
20380,44.0,32.0,60.0,14.0,0.0
20381,38.0,0.0,30.0,6.0,0.0
20382,44.0,0.0,30.0,6.0,0.0
20383,59.0,0.0,30.0,2.0,0.0
20384,47.0,48.0,60.0,2.0,0.0
20385,59.0,16.0,30.0,1.0,0.0
20386,56.0,0.0,30.0,1.0,0.0
20387,47.0,0.0,60.0,14.0,0.0
20388,44.0,0.0,30.0,3.0,0.0
20389,47.0,0.0,30.0,6.0,0.0
20390,47.0,0.0,30.0,3.0,0.0
20391,50.0,32.0,60.0,14.0,0.0
20392,50.0,0.0,60.0,2.0,0.0
20393,49.0,0.0,60.0,13.0,0.0
20394,49.0,48.0,90.0,14.0,0.0
20395,37.0,0.0,30.0,3.0,0.0
20396,25.0,0.0,30.0,15.0,0.0
20397,37.0,16.0,30.0,7.0,0.0
20398,49.0,48.0,60.0,2.0,0.0
20399,50.0,0.0,60.0,2.0,0.0
20400,50.0,0.0,60.0,13.0,0.0
20401,53.0,48.0,60.0,13.0,0.0
20402,53.0,0.0,60.0,2.0,0.0
20403,54.0,48.0,60.0,13.0,0.0
20404,54.0,0.0,60.0,2.0,0.0
20405,56.0,48.0,60.0,2.0,0.0
20406,56.0,0.0,60.0,13.0,0.0
20407,58.0,0.0,60.0,2.0,0.0
20408,58.0,32.0,60.0,13.0,0.0
20409,44.0,0.0,30.0,6.0,0.0
20410,47.0,0.0,30.0,6.0,0.0
20411,56.0,0.0,30.0,2.0,0.0
20412,59.0,0.0,30.0,2.0,0.0
20413,37.0,64.0,30.0,7.0,0.0
20414,25.0,0.0,30.0,15.0,0.0
20415,59.0,0.0,30.0,1.0,0.0
20416,44.0,0.0,30.0,3.0,0.0
20417,56.0,0.0,30.0,1.0,0.0
20418,47.0,0.0,30.0,3.0,0.0
20419,38.0,0.0,30.0,6.0,0.0
20420,37.0,0.0,30.0,3.0,0.0
20421,56.0,0.0,30.0,13.0,0.0
20422,37.0,48.0,60.0,14.0,0.0
20423,37.0,0.0,60.0,2.0,0.0
20424,38.0,0.0,60.0,2.0,0.0
20425,38.0,48.0,60.0,14.0,0.0
20426,44.0,32.0,60.0,2.0,0.0
20427,44.0,0.0,60.0,14.0,0.0
20428,47.0,48.0,60.0,2.0,0.0
20429,59.0,0.0,30.0,1.0,0.0
20430,56.0,0.0,30.0,1.0,0.0
20431,38.0,0.0,30.0,6.0,0.0
20432,47.0,0.0,30.0,6.0,0.0
20433,47.0,0.0,60.0,14.0,0.0
20434,44.0,0.0,30.0,6.0,0.0
20435,47.0,0.0,30.0,3.0,0.0
20436,59.0,16.0,30.0,2.0,0.0
20437,44.0,0.0,30.0,3.0,0.0
20438,50.0,0.0,60.0,14.0,0.0
20439,50.0,32.0,60.0,2.0,0.0
20440,27.0,16.0,30.0,15.0,0.0
20441,39.0,0.0,30.0,3.0,0.0
20442,39.0,0.0,30.0,7.0,0.0
20443,51.0,48.0,90.0,14.0,0.0
20444,51.0,0.0,60.0,2.0,0.0
20445,51.0,48.0,60.0,13.0,0.0
20446,52.0,0.0,60.0,13.0,0.0
20447,52.0,0.0,60.0,2.0,0.0
20448,55.0,0.0,60.0,2.0,0.0
20449,55.0,48.0,60.0,13.0,0.0
20450,56.0,48.0,60.0,2.0,0.0
20451,56.0,0.0,60.0,13.0,0.0
20452,58.0,0.0,60.0,13.0,0.0
20453,58.0,48.0,60.0,2.0,0.0
20454,59.0,32.0,60.0,13.0,0.0
20455,59.0,0.0,60.0,2.0,0.0
20456,49.0,0.0,30.0,6.0,0.0
20457,58.0,0.0,30.0,2.0,0.0
20458,49.0,0.0,30.0,3.0,0.0
20459,46.0,0.0,30.0,3.0,0.0
20460,39.0,0.0,30.0,6.0,0.0
20461,58.0,0.0,30.0,13.0,0.0
20462,27.0,0.0,30.0,15.0,0.0
20463,58.0,0.0,30.0,1.0,0.0
20464,61.0,64.0,30.0,1.0,0.0
20465,61.0,0.0,30.0,2.0,0.0
20466,46.0,0.0,30.0,6.0,0.0
20467,39.0,0.0,30.0,7.0,0.0
20468,39.0,0.0,60.0,14.0,0.0
20469,39.0,48.0,60.0,2.0,0.0
20470,40.0,48.0,60.0,14.0,0.0
20471,40.0,0.0,60.0,2.0,0.0
20472,46.0,32.0,60.0,2.0,0.0
20473,46.0,0.0,60.0,14.0,0.0
20474,49.0,0.0,30.0,6.0,0.0
20475,46.0,0.0,30.0,6.0,0.0
20476,58.0,0.0,30.0,1.0,0.0
20477,61.0,0.0,30.0,1.0,0.0
20478,61.0,0.0,30.0,2.0,0.0
20479,49.0,0.0,60.0,14.0,0.0
20480,39.0,0.0,30.0,6.0,0.0
20481,49.0,48.0,60.0,2.0,0.0
20482,46.0,0.0,30.0,3.0,0.0
20483,49.0,16.0,30.0,3.0,0.0
20484,52.0,0.0,60.0,14.0,0.0
20485,52.0,32.0,60.0,2.0,0.0
20486,41.0,0.0,30.0,7.0,0.0
20487,53.0,48.0,60.0,11.0,0.0
20488,41.0,0.0,30.0,3.0,0.0
20489,29.0,16.0,30.0,15.0,0.0
20490,53.0,0.0,90.0,14.0,0.0
20491,53.0,0.0,60.0,2.0,0.0
20492,54.0,0.0,60.0,2.0,0.0
20493,54.0,0.0,60.0,11.0,0.0
20494,57.0,48.0,60.0,2.0,0.0
20495,57.0,0.0,60.0,11.0,0.0
20496,58.0,48.0,60.0,11.0,0.0
20497,58.0,0.0,60.0,2.0,0.0
20498,60.0,0.0,60.0,2.0,0.0
20499,60.0,48.0,60.0,11.0,0.0
20500,61.0,0.0,60.0,2.0,0.0
20501,61.0,32.0,60.0,11.0,0.0
20502,60.0,0.0,30.0,2.0,0.0
20503,63.0,0.0,30.0,2.0,0.0
20504,41.0,0.0,30.0,6.0,0.0
20505,58.0,0.0,30.0,1.0,0.0
20506,61.0,64.0,30.0,1.0,0.0
20507,49.0,0.0,30.0,3.0,0.0
20508,48.0,0.0,30.0,6.0,0.0
20509,51.0,0.0,30.0,6.0,0.0
20510,46.0,0.0,30.0,3.0,0.0
20511,29.0,0.0,30.0,15.0,0.0
20512,41.0,0.0,30.0,7.0,0.0
20513,60.0,0.0,30.0,11.0,0.0
20514,41.0,0.0,60.0,14.0,0.0
20515,41.0,48.0,60.0,2.0,0.0
20516,42.0,0.0,60.0,14.0,0.0
20517,42.0,48.0,60.0,2.0,0.0
20518,48.0,0.0,60.0,14.0,0.0
20519,48.0,32.0,60.0,2.0,0.0
20520,41.0,16.0,30.0,6.0,0.0
20521,51.0,48.0,60.0,2.0,0.0
20522,48.0,0.0,30.0,6.0,0.0
20523,51.0,0.0,30.0,6.0,0.0
20524,61.0,0.0,30.0,1.0,0.0
20525,46.0,0.0,30.0,3.0,0.0
20526,58.0,0.0,30.0,1.0,0.0
20527,49.0,0.0,30.0,3.0,0.0
20528,63.0,0.0,30.0,2.0,0.0
20529,60.0,0.0,30.0,2.0,0.0
20530,51.0,0.0,60.0,14.0,0.0
20531,54.0,32.0,60.0,2.0,0.0
20532,54.0,0.0,60.0,14.0,0.0
20533,58.0,48.0,60.0,11.0,0.0
20534,49.0,0.0,90.0,14.0,0.0
20535,37.0,16.0,30.0,3.0,0.0
20536,25.0,0.0,30.0,15.0,0.0
20537,37.0,0.0,30.0,7.0,0.0
20538,49.0,48.0,90.0,2.0,0.0
20539,59.0,0.0,60.0,11.0,0.0
20540,61.0,48.0,60.0,11.0,0.0
20541,62.0,48.0,60.0,11.0,0.0
20542,65.0,48.0,60.0,11.0,0.0
20543,66.0,32.0,60.0,11.0,0.0
20544,30.0,0.0,30.0,15.0,0.0
20545,62.0,0.0,30.0,5.0,0.0
20546,68.0,16.0,30.0,5.0,0.0
20547,71.0,0.0,30.0,5.0,0.0
20548,68.0,0.0,30.0,1.0,0.0
20549,71.0,0.0,30.0,1.0,0.0
20550,53.0,0.0,30.0,4.0,0.0
20551,47.0,0.0,30.0,4.0,0.0
20552,42.0,0.0,60.0,2.0,0.0
20553,50.0,0.0,30.0,4.0,0.0
20554,58.0,0.0,30.0,6.0,0.0
20555,61.0,0.0,30.0,6.0,0.0
20556,56.0,0.0,30.0,4.0,0.0
20557,42.0,0.0,30.0,7.0,0.0
20558,56.0,0.0,30.0,3.0,0.0
20559,59.0,0.0,30.0,3.0,0.0
20560,50.0,0.0,30.0,6.0,0.0
20561,65.0,0.0,30.0,2.0,0.0
20562,42.0,48.0,60.0,14.0,0.0
20563,62.0,0.0,30.0,2.0,0.0
20564,65.0,0.0,30.0,11.0,0.0
20565,44.0,0.0,60.0,2.0,0.0
20566,44.0,48.0,60.0,14.0,0.0
20567,46.0,0.0,60.0,2.0,0.0
20568,46.0,48.0,60.0,14.0,0.0
20569,47.0,32.0,60.0,14.0,0.0
20570,47.0,0.0,60.0,2.0,0.0
20571,49.0,0.0,60.0,2.0,0.0
20572,59.0,0.0,30.0,6.0,0.0
20573,56.0,0.0,30.0,4.0,0.0
20574,56.0,0.0,30.0,6.0,0.0
20575,71.0,0.0,30.0,1.0,0.0
20576,68.0,0.0,30.0,1.0,0.0
20577,62.0,0.0,30.0,5.0,0.0
20578,59.0,0.0,30.0,3.0,0.0
20579,56.0,0.0,30.0,3.0,0.0
20580,62.0,0.0,30.0,2.0,0.0
20581,65.0,0.0,30.0,2.0,0.0
20582,50.0,0.0,30.0,6.0,0.0
20583,68.0,0.0,30.0,5.0,0.0
20584,50.0,0.0,30.0,4.0,0.0
20585,47.0,0.0,30.0,4.0,0.0
20586,49.0,48.0,60.0,14.0,0.0
20587,71.0,16.0,30.0,5.0,0.0
20588,50.0,0.0,60.0,2.0,0.0
20589,50.0,32.0,60.0,14.0,0.0
20590,49.0,0.0,90.0,2.0,0.0
20591,37.0,0.0,30.0,3.0,0.0
20592,49.0,0.0,90.0,14.0,0.0
20593,25.0,0.0,30.0,15.0,0.0
20594,61.0,48.0,60.0,11.0,0.0
20595,37.0,16.0,30.0,7.0,0.0
20596,62.0,48.0,60.0,11.0,0.0
20597,65.0,48.0,60.0,11.0,0.0
20598,66.0,48.0,60.0,11.0,0.0
20599,68.0,48.0,60.0,11.0,0.0
20600,70.0,32.0,60.0,11.0,0.0
20601,53.0,0.0,30.0,4.0,0.0
20602,59.0,0.0,30.0,3.0,0.0
20603,56.0,0.0,30.0,3.0,0.0
20604,68.0,0.0,30.0,1.0,0.0
20605,68.0,0.0,30.0,2.0,0.0
20606,77.0,0.0,30.0,5.0,0.0
20607,30.0,0.0,30.0,15.0,0.0
20608,65.0,0.0,30.0,2.0,0.0
20609,71.0,0.0,30.0,1.0,0.0
20610,56.0,0.0,30.0,6.0,0.0
20611,62.0,16.0,30.0,6.0,0.0
20612,74.0,0.0,30.0,5.0,0.0
20613,68.0,0.0,30.0,11.0,0.0
20614,42.0,48.0,60.0,2.0,0.0
20615,42.0,0.0,60.0,14.0,0.0
20616,42.0,0.0,30.0,7.0,0.0
20617,56.0,0.0,30.0,4.0,0.0
20618,59.0,0.0,30.0,4.0,0.0
20619,68.0,0.0,30.0,5.0,0.0
20620,59.0,0.0,30.0,6.0,0.0
20621,44.0,0.0,60.0,2.0,0.0
20622,44.0,48.0,60.0,14.0,0.0
20623,46.0,48.0,60.0,14.0,0.0
20624,46.0,0.0,60.0,2.0,0.0
20625,47.0,32.0,60.0,2.0,0.0
20626,47.0,0.0,60.0,14.0,0.0
20627,74.0,0.0,30.0,5.0,0.0
20628,68.0,0.0,30.0,5.0,0.0
20629,68.0,0.0,30.0,1.0,0.0
20630,59.0,0.0,30.0,6.0,0.0
20631,62.0,0.0,30.0,6.0,0.0
20632,65.0,0.0,30.0,2.0,0.0
20633,68.0,0.0,30.0,2.0,0.0
20634,77.0,0.0,30.0,5.0,0.0
20635,56.0,0.0,30.0,3.0,0.0
20636,59.0,0.0,30.0,4.0,0.0
20637,49.0,0.0,60.0,14.0,0.0
20638,49.0,48.0,60.0,2.0,0.0
20639,56.0,0.0,30.0,4.0,0.0
20640,56.0,0.0,30.0,6.0,0.0
20641,59.0,0.0,30.0,3.0,0.0
20642,53.0,16.0,30.0,4.0,0.0
20643,71.0,0.0,30.0,1.0,0.0
20644,50.0,0.0,60.0,14.0,0.0
20645,50.0,32.0,60.0,2.0,0.0
20646,62.0,0.0,60.0,0.0,0.0
20647,47.0,0.0,90.0,14.0,0.0
20648,35.0,0.0,30.0,3.0,0.0
20649,35.0,0.0,30.0,7.0,0.0
20650,62.0,0.0,60.0,12.0,0.0
20651,47.0,0.0,90.0,2.0,0.0
20652,23.0,0.0,30.0,15.0,0.0
20653,68.0,0.0,30.0,1.0,0.0
20654,62.0,48.0,60.0,2.0,0.0
20655,66.0,0.0,60.0,0.0,0.0
20656,66.0,0.0,60.0,12.0,0.0
20657,66.0,48.0,60.0,2.0,0.0
20658,71.0,0.0,60.0,2.0,0.0
20659,71.0,0.0,60.0,0.0,0.0
20660,71.0,48.0,60.0,12.0,0.0
20661,74.0,48.0,60.0,2.0,0.0
20662,74.0,0.0,60.0,0.0,0.0
20663,74.0,0.0,60.0,12.0,0.0
20664,78.0,0.0,60.0,12.0,0.0
20665,78.0,0.0,60.0,0.0,0.0
20666,78.0,48.0,60.0,2.0,0.0
20667,83.0,0.0,60.0,12.0,0.0
20668,83.0,32.0,60.0,0.0,0.0
20669,83.0,0.0,60.0,2.0,0.0
20670,74.0,0.0,30.0,1.0,0.0
20671,42.0,0.0,30.0,7.0,0.0
20672,42.0,0.0,60.0,2.0,0.0
20673,74.0,0.0,60.0,2.0,0.0
20674,86.0,0.0,60.0,2.0,0.0
20675,86.0,0.0,60.0,12.0,0.0
20676,74.0,0.0,60.0,13.0,0.0
20677,86.0,0.0,60.0,0.0,0.0
20678,30.0,16.0,30.0,15.0,0.0
20679,42.0,0.0,60.0,3.0,0.0
20680,42.0,0.0,60.0,14.0,0.0
20681,86.0,0.0,60.0,11.0,0.0
20682,44.0,0.0,60.0,3.0,0.0
20683,44.0,0.0,60.0,14.0,0.0
20684,83.0,0.0,60.0,2.0,0.0
20685,44.0,0.0,60.0,2.0,0.0
20686,83.0,48.0,60.0,11.0,0.0
20687,83.0,0.0,60.0,0.0,0.0
20688,46.0,0.0,60.0,2.0,0.0
20689,82.0,0.0,60.0,2.0,0.0
20690,46.0,48.0,60.0,3.0,0.0
20691,82.0,0.0,60.0,0.0,0.0
20692,82.0,0.0,60.0,11.0,0.0
20693,46.0,0.0,60.0,14.0,0.0
20694,80.0,0.0,60.0,0.0,0.0
20695,47.0,0.0,60.0,14.0,0.0
20696,47.0,0.0,60.0,2.0,0.0
20697,80.0,0.0,60.0,2.0,0.0
20698,47.0,0.0,60.0,3.0,0.0
20699,80.0,48.0,60.0,11.0,0.0
20700,78.0,48.0,60.0,2.0,0.0
20701,78.0,0.0,60.0,0.0,0.0
20702,49.0,0.0,60.0,14.0,0.0
20703,78.0,0.0,60.0,11.0,0.0
20704,49.0,0.0,60.0,3.0,0.0
20705,49.0,0.0,60.0,2.0,0.0
20706,77.0,32.0,60.0,11.0,0.0
20707,77.0,0.0,60.0,2.0,0.0
20708,50.0,0.0,60.0,3.0,0.0
20709,77.0,0.0,60.0,0.0,0.0
20710,50.0,0.0,60.0,2.0,0.0
20711,50.0,0.0,60.0,14.0,0.0
20712,85.0,0.0,60.0,0.0,0.0
20713,73.0,0.0,60.0,0.0,0.0
20714,85.0,0.0,60.0,12.0,0.0
20715,42.0,0.0,60.0,15.0,0.0
20716,49.0,0.0,60.0,3.0,0.0
20717,85.0,0.0,60.0,2.0,0.0
20718,73.0,2.0,60.0,2.0,0.0
20719,42.0,14.0,30.0,7.0,0.0
20720,73.0,0.0,60.0,11.0,0.0
20721,73.0,0.0,30.0,1.0,0.0
20722,49.0,0.0,60.0,2.0,0.0
20723,42.0,0.0,60.0,3.0,0.0
20724,82.0,0.0,60.0,2.0,0.0
20725,82.0,0.0,60.0,0.0,0.0
20726,82.0,0.0,60.0,12.0,0.0
20727,44.0,0.0,60.0,3.0,0.0
20728,44.0,48.0,60.0,15.0,0.0
20729,78.0,48.0,60.0,2.0,0.0
20730,78.0,0.0,60.0,12.0,0.0
20731,46.0,0.0,60.0,3.0,0.0
20732,46.0,0.0,60.0,15.0,0.0
20733,78.0,0.0,60.0,0.0,0.0
20734,47.0,0.0,60.0,3.0,0.0
20735,73.0,0.0,60.0,0.0,0.0
20736,47.0,0.0,60.0,15.0,0.0
20737,73.0,48.0,60.0,12.0,0.0
20738,73.0,0.0,60.0,2.0,0.0
20739,70.0,0.0,60.0,0.0,0.0
20740,70.0,0.0,60.0,12.0,0.0
20741,70.0,0.0,60.0,2.0,0.0
20742,49.0,0.0,60.0,3.0,0.0
20743,49.0,0.0,60.0,15.0,0.0
20744,50.0,48.0,60.0,15.0,0.0
20745,66.0,0.0,60.0,2.0,0.0
20746,50.0,0.0,60.0,3.0,0.0
20747,66.0,0.0,60.0,0.0,0.0
20748,66.0,0.0,60.0,12.0,0.0
20749,54.0,48.0,60.0,3.0,0.0
20750,42.0,0.0,60.0,14.0,0.0
20751,73.0,0.0,60.0,11.0,0.0
20752,73.0,0.0,60.0,2.0,0.0
20753,61.0,0.0,60.0,2.0,0.0
20754,61.0,0.0,60.0,0.0,0.0
20755,61.0,0.0,60.0,12.0,0.0
20756,42.0,0.0,60.0,2.0,0.0
20757,70.0,0.0,60.0,2.0,0.0
20758,44.0,48.0,60.0,14.0,0.0
20759,70.0,0.0,60.0,11.0,0.0
20760,44.0,0.0,60.0,2.0,0.0
20761,46.0,0.0,60.0,2.0,0.0
20762,66.0,48.0,60.0,11.0,0.0
20763,46.0,0.0,60.0,14.0,0.0
20764,66.0,0.0,60.0,2.0,0.0
20765,61.0,48.0,60.0,2.0,0.0
20766,47.0,0.0,60.0,14.0,0.0
20767,61.0,0.0,60.0,11.0,0.0
20768,47.0,0.0,60.0,2.0,0.0
20769,49.0,0.0,60.0,14.0,0.0
20770,58.0,46.0,60.0,2.0,0.0
20771,49.0,0.0,60.0,2.0,0.0
20772,58.0,0.0,60.0,11.0,0.0
20773,50.0,0.0,60.0,2.0,0.0
20774,54.0,2.0,60.0,2.0,0.0
20775,50.0,0.0,60.0,14.0,0.0
20776,54.0,32.0,60.0,11.0,0.0
20777,49.0,0.0,60.0,2.0,0.0
20778,49.0,48.0,60.0,13.0,0.0
20779,37.0,0.0,30.0,7.0,0.0
20780,37.0,16.0,30.0,3.0,0.0
20781,25.0,0.0,30.0,15.0,0.0
20782,50.0,48.0,60.0,13.0,0.0
20783,50.0,0.0,60.0,2.0,0.0
20784,53.0,48.0,60.0,2.0,0.0
20785,53.0,0.0,60.0,13.0,0.0
20786,54.0,48.0,60.0,13.0,0.0
20787,54.0,0.0,60.0,2.0,0.0
20788,56.0,0.0,60.0,2.0,0.0
20789,56.0,48.0,60.0,13.0,0.0
20790,58.0,0.0,60.0,13.0,0.0
20791,58.0,32.0,60.0,2.0,0.0
20792,56.0,0.0,30.0,13.0,0.0
20793,47.0,0.0,30.0,3.0,0.0
20794,59.0,0.0,30.0,1.0,0.0
20795,56.0,64.0,30.0,1.0,0.0
20796,56.0,0.0,30.0,2.0,0.0
20797,59.0,0.0,30.0,2.0,0.0
20798,37.0,0.0,30.0,7.0,0.0
20799,37.0,0.0,30.0,3.0,0.0
20800,38.0,0.0,30.0,6.0,0.0
20801,44.0,0.0,30.0,6.0,0.0
20802,47.0,0.0,30.0,6.0,0.0
20803,25.0,0.0,30.0,15.0,0.0
20804,44.0,0.0,30.0,3.0,0.0
20805,37.0,0.0,60.0,14.0,0.0
20806,37.0,48.0,60.0,2.0,0.0
20807,38.0,48.0,60.0,14.0,0.0
20808,38.0,0.0,60.0,2.0,0.0
20809,44.0,0.0,60.0,14.0,0.0
20810,44.0,32.0,60.0,2.0,0.0
20811,44.0,0.0,30.0,6.0,0.0
20812,47.0,0.0,30.0,6.0,0.0
20813,47.0,0.0,60.0,14.0,0.0
20814,38.0,0.0,30.0,6.0,0.0
20815,47.0,48.0,60.0,2.0,0.0
20816,59.0,0.0,30.0,2.0,0.0
20817,56.0,0.0,30.0,1.0,0.0
20818,59.0,16.0,30.0,1.0,0.0
20819,47.0,0.0,30.0,3.0,0.0
20820,44.0,0.0,30.0,3.0,0.0
20821,50.0,32.0,60.0,14.0,0.0
20822,50.0,0.0,60.0,2.0,0.0
20823,49.0,0.0,60.0,13.0,0.0
20824,49.0,0.0,90.0,14.0,0.0
20825,37.0,0.0,30.0,3.0,0.0
20826,37.0,16.0,30.0,7.0,0.0
20827,25.0,0.0,30.0,15.0,0.0
20828,49.0,48.0,60.0,2.0,0.0
20829,50.0,48.0,60.0,13.0,0.0
20830,50.0,0.0,60.0,2.0,0.0
20831,53.0,48.0,60.0,13.0,0.0
20832,53.0,0.0,60.0,2.0,0.0
20833,54.0,0.0,60.0,13.0,0.0
20834,54.0,48.0,60.0,2.0,0.0
20835,56.0,48.0,60.0,2.0,0.0
20836,56.0,0.0,60.0,13.0,0.0
20837,58.0,32.0,60.0,2.0,0.0
20838,58.0,0.0,60.0,13.0,0.0
20839,37.0,0.0,30.0,7.0,0.0
20840,37.0,0.0,30.0,3.0,0.0
20841,25.0,0.0,30.0,15.0,0.0
20842,56.0,0.0,30.0,1.0,0.0
20843,59.0,0.0,30.0,1.0,0.0
20844,44.0,0.0,30.0,3.0,0.0
20845,47.0,0.0,30.0,3.0,0.0
20846,44.0,0.0,30.0,6.0,0.0
20847,56.0,64.0,30.0,13.0,0.0
20848,38.0,0.0,30.0,6.0,0.0
20849,56.0,0.0,30.0,2.0,0.0
20850,59.0,0.0,30.0,2.0,0.0
20851,47.0,0.0,30.0,6.0,0.0
20852,37.0,0.0,60.0,14.0,0.0
20853,37.0,48.0,60.0,2.0,0.0
20854,38.0,0.0,60.0,14.0,0.0
20855,38.0,48.0,60.0,2.0,0.0
20856,44.0,32.0,60.0,14.0,0.0
20857,44.0,0.0,60.0,2.0,0.0
20858,44.0,0.0,30.0,6.0,0.0
20859,38.0,0.0,30.0,6.0,0.0
20860,59.0,0.0,30.0,1.0,0.0
20861,47.0,0.0,30.0,6.0,0.0
20862,47.0,48.0,60.0,2.0,0.0
20863,47.0,0.0,60.0,14.0,0.0
20864,44.0,0.0,30.0,3.0,0.0
20865,59.0,16.0,30.0,2.0,0.0
20866,47.0,0.0,30.0,3.0,0.0
20867,56.0,0.0,30.0,1.0,0.0
20868,50.0,0.0,60.0,2.0,0.0
20869,50.0,32.0,60.0,14.0,0.0
20870,27.0,0.0,30.0,15.0,0.0
20871,51.0,48.0,60.0,13.0,0.0
20872,39.0,16.0,30.0,3.0,0.0
20873,39.0,0.0,30.0,7.0,0.0
20874,51.0,0.0,90.0,14.0,0.0
20875,51.0,0.0,60.0,2.0,0.0
20876,52.0,0.0,60.0,2.0,0.0
20877,52.0,0.0,60.0,13.0,0.0
20878,55.0,0.0,60.0,2.0,0.0
20879,55.0,48.0,60.0,13.0,0.0
20880,56.0,0.0,60.0,2.0,0.0
20881,56.0,48.0,60.0,13.0,0.0
20882,58.0,48.0,60.0,2.0,0.0
20883,58.0,0.0,60.0,13.0,0.0
20884,59.0,32.0,60.0,2.0,0.0
20885,59.0,0.0,60.0,13.0,0.0
20886,58.0,0.0,30.0,1.0,0.0
20887,61.0,0.0,30.0,1.0,0.0
20888,46.0,0.0,30.0,6.0,0.0
20889,58.0,0.0,30.0,2.0,0.0
20890,49.0,0.0,30.0,3.0,0.0
20891,61.0,0.0,30.0,2.0,0.0
20892,39.0,0.0,30.0,7.0,0.0
20893,58.0,0.0,30.0,13.0,0.0
20894,39.0,0.0,30.0,6.0,0.0
20895,27.0,0.0,30.0,15.0,0.0
20896,49.0,0.0,30.0,6.0,0.0
20897,46.0,0.0,30.0,3.0,0.0
20898,39.0,48.0,60.0,14.0,0.0
20899,39.0,0.0,60.0,2.0,0.0
20900,40.0,48.0,60.0,14.0,0.0
20901,40.0,0.0,60.0,2.0,0.0
20902,46.0,32.0,60.0,2.0,0.0
20903,46.0,0.0,60.0,14.0,0.0
20904,46.0,0.0,30.0,6.0,0.0
20905,39.0,0.0,30.0,6.0,0.0
20906,49.0,16.0,30.0,3.0,0.0
20907,46.0,0.0,30.0,3.0,0.0
20908,61.0,0.0,30.0,2.0,0.0
20909,61.0,0.0,30.0,1.0,0.0
20910,58.0,0.0,30.0,1.0,0.0
20911,49.0,0.0,60.0,14.0,0.0
20912,49.0,0.0,30.0,6.0,0.0
20913,49.0,48.0,60.0,2.0,0.0
20914,52.0,32.0,60.0,14.0,0.0
20915,52.0,0.0,60.0,2.0,0.0
20916,53.0,0.0,90.0,14.0,0.0
20917,29.0,0.0,30.0,15.0,0.0
20918,53.0,48.0,60.0,2.0,0.0
20919,41.0,16.0,30.0,3.0,0.0
20920,53.0,0.0,60.0,11.0,0.0
20921,41.0,0.0,30.0,7.0,0.0
20922,54.0,0.0,60.0,11.0,0.0
20923,54.0,0.0,60.0,2.0,0.0
20924,57.0,48.0,60.0,11.0,0.0
20925,57.0,0.0,60.0,2.0,0.0
20926,58.0,0.0,60.0,2.0,0.0
20927,58.0,48.0,60.0,11.0,0.0
20928,60.0,48.0,60.0,2.0,0.0
20929,60.0,0.0,60.0,11.0,0.0
20930,61.0,32.0,60.0,11.0,0.0
20931,61.0,0.0,60.0,2.0,0.0
20932,60.0,0.0,30.0,11.0,0.0
20933,51.0,0.0,30.0,6.0,0.0
20934,48.0,0.0,30.0,6.0,0.0
20935,29.0,0.0,30.0,15.0,0.0
20936,61.0,0.0,30.0,1.0,0.0
20937,58.0,0.0,30.0,1.0,0.0
20938,49.0,0.0,30.0,3.0,0.0
20939,46.0,0.0,30.0,3.0,0.0
20940,63.0,0.0,30.0,2.0,0.0
20941,60.0,64.0,30.0,2.0,0.0
20942,41.0,0.0,30.0,7.0,0.0
20943,41.0,0.0,30.0,6.0,0.0
20944,41.0,48.0,60.0,2.0,0.0
20945,41.0,0.0,60.0,14.0,0.0
20946,42.0,48.0,60.0,14.0,0.0
20947,42.0,0.0,60.0,2.0,0.0
20948,48.0,0.0,60.0,2.0,0.0
20949,48.0,32.0,60.0,14.0,0.0
20950,60.0,16.0,30.0,2.0,0.0
20951,51.0,0.0,60.0,2.0,0.0
20952,49.0,0.0,30.0,3.0,0.0
20953,46.0,0.0,30.0,3.0,0.0
20954,41.0,0.0,30.0,6.0,0.0
20955,63.0,0.0,30.0,2.0,0.0
20956,51.0,48.0,60.0,14.0,0.0
20957,61.0,0.0,30.0,1.0,0.0
20958,58.0,0.0,30.0,1.0,0.0
20959,51.0,0.0,30.0,6.0,0.0
20960,48.0,0.0,30.0,6.0,0.0
20961,54.0,0.0,60.0,14.0,0.0
20962,54.0,32.0,60.0,2.0,0.0
20963,49.0,48.0,90.0,2.0,0.0
20964,37.0,16.0,30.0,7.0,0.0
20965,25.0,0.0,30.0,15.0,0.0
20966,58.0,48.0,60.0,11.0,0.0
20967,37.0,0.0,30.0,3.0,0.0
20968,49.0,0.0,90.0,14.0,0.0
20969,59.0,0.0,60.0,11.0,0.0
20970,61.0,48.0,60.0,11.0,0.0
20971,62.0,48.0,60.0,11.0,0.0
20972,65.0,48.0,60.0,11.0,0.0
20973,66.0,32.0,60.0,11.0,0.0
20974,42.0,0.0,60.0,14.0,0.0
20975,42.0,0.0,30.0,7.0,0.0
20976,71.0,0.0,30.0,5.0,0.0
20977,65.0,16.0,30.0,11.0,0.0
20978,53.0,0.0,30.0,4.0,0.0
20979,59.0,0.0,30.0,3.0,0.0
20980,62.0,0.0,30.0,5.0,0.0
20981,71.0,0.0,30.0,1.0,0.0
20982,56.0,0.0,30.0,3.0,0.0
20983,42.0,48.0,60.0,2.0,0.0
20984,68.0,0.0,30.0,1.0,0.0
20985,56.0,0.0,30.0,4.0,0.0
20986,50.0,0.0,30.0,4.0,0.0
20987,68.0,0.0,30.0,5.0,0.0
20988,50.0,0.0,30.0,6.0,0.0
20989,62.0,0.0,30.0,2.0,0.0
20990,65.0,0.0,30.0,2.0,0.0
20991,61.0,0.0,30.0,6.0,0.0
20992,47.0,0.0,30.0,4.0,0.0
20993,58.0,0.0,30.0,6.0,0.0
20994,30.0,0.0,30.0,15.0,0.0
20995,44.0,0.0,60.0,2.0,0.0
20996,44.0,48.0,60.0,14.0,0.0
20997,46.0,0.0,60.0,2.0,0.0
20998,46.0,48.0,60.0,14.0,0.0
20999,47.0,0.0,60.0,14.0,0.0
21000,47.0,32.0,60.0,2.0,0.0
21001,71.0,0.0,30.0,5.0,0.0
21002,68.0,16.0,30.0,1.0,0.0
21003,71.0,0.0,30.0,1.0,0.0
21004,68.0,0.0,30.0,5.0,0.0
21005,49.0,48.0,60.0,14.0,0.0
21006,47.0,0.0,30.0,4.0,0.0
21007,56.0,0.0,30.0,3.0,0.0
21008,59.0,0.0,30.0,3.0,0.0
21009,50.0,0.0,30.0,4.0,0.0
21010,62.0,0.0,30.0,2.0,0.0
21011,56.0,0.0,30.0,6.0,0.0
21012,49.0,0.0,60.0,2.0,0.0
21013,59.0,0.0,30.0,6.0,0.0
21014,50.0,0.0,30.0,6.0,0.0
21015,65.0,0.0,30.0,2.0,0.0
21016,62.0,0.0,30.0,5.0,0.0
21017,56.0,0.0,30.0,4.0,0.0
21018,50.0,32.0,60.0,2.0,0.0
21019,50.0,0.0,60.0,14.0,0.0
21020,37.0,0.0,30.0,3.0,0.0
21021,37.0,16.0,30.0,7.0,0.0
21022,61.0,48.0,60.0,11.0,0.0
21023,25.0,0.0,30.0,15.0,0.0
21024,49.0,48.0,90.0,2.0,0.0
21025,49.0,0.0,90.0,14.0,0.0
21026,62.0,0.0,60.0,11.0,0.0
21027,65.0,48.0,60.0,11.0,0.0
21028,66.0,48.0,60.0,11.0,0.0
21029,68.0,48.0,60.0,11.0,0.0
21030,70.0,32.0,60.0,11.0,0.0
21031,74.0,0.0,30.0,5.0,0.0
21032,68.0,0.0,30.0,5.0,0.0
21033,59.0,0.0,30.0,6.0,0.0
21034,62.0,16.0,30.0,6.0,0.0
21035,71.0,0.0,30.0,1.0,0.0
21036,59.0,0.0,30.0,4.0,0.0
21037,42.0,0.0,60.0,2.0,0.0
21038,68.0,0.0,30.0,2.0,0.0
21039,30.0,0.0,30.0,15.0,0.0
21040,68.0,0.0,30.0,1.0,0.0
21041,65.0,0.0,30.0,2.0,0.0
21042,56.0,0.0,30.0,4.0,0.0
21043,59.0,0.0,30.0,3.0,0.0
21044,56.0,0.0,30.0,3.0,0.0
21045,53.0,0.0,30.0,4.0,0.0
21046,42.0,0.0,30.0,7.0,0.0
21047,56.0,0.0,30.0,6.0,0.0
21048,68.0,0.0,30.0,11.0,0.0
21049,42.0,48.0,60.0,14.0,0.0
21050,77.0,0.0,30.0,5.0,0.0
21051,44.0,0.0,60.0,2.0,0.0
21052,44.0,48.0,60.0,14.0,0.0
21053,46.0,48.0,60.0,2.0,0.0
21054,46.0,0.0,60.0,14.0,0.0
21055,47.0,0.0,60.0,14.0,0.0
21056,47.0,32.0,60.0,2.0,0.0
21057,49.0,0.0,60.0,14.0,0.0
21058,59.0,0.0,30.0,4.0,0.0
21059,68.0,0.0,30.0,5.0,0.0
21060,68.0,16.0,30.0,1.0,0.0
21061,53.0,0.0,30.0,4.0,0.0
21062,77.0,0.0,30.0,5.0,0.0
21063,56.0,0.0,30.0,4.0,0.0
21064,74.0,0.0,30.0,5.0,0.0
21065,56.0,0.0,30.0,6.0,0.0
21066,59.0,0.0,30.0,6.0,0.0
21067,62.0,0.0,30.0,6.0,0.0
21068,49.0,48.0,60.0,2.0,0.0
21069,65.0,0.0,30.0,2.0,0.0
21070,68.0,0.0,30.0,2.0,0.0
21071,56.0,0.0,30.0,3.0,0.0
21072,59.0,0.0,30.0,3.0,0.0
21073,71.0,0.0,30.0,1.0,0.0
21074,50.0,32.0,60.0,2.0,0.0
21075,50.0,0.0,60.0,14.0,0.0
21076,62.0,0.0,60.0,12.0,0.0
21077,35.0,0.0,30.0,3.0,0.0
21078,23.0,0.0,30.0,15.0,0.0
21079,47.0,48.0,90.0,14.0,0.0
21080,62.0,48.0,60.0,0.0,0.0
21081,62.0,0.0,60.0,2.0,0.0
21082,47.0,0.0,90.0,2.0,0.0
21083,68.0,0.0,30.0,1.0,0.0
21084,35.0,0.0,30.0,7.0,0.0
21085,66.0,0.0,60.0,12.0,0.0
21086,66.0,0.0,60.0,2.0,0.0
21087,66.0,0.0,60.0,0.0,0.0
21088,71.0,0.0,60.0,0.0,0.0
21089,71.0,0.0,60.0,2.0,0.0
21090,71.0,48.0,60.0,12.0,0.0
21091,74.0,0.0,60.0,0.0,0.0
21092,74.0,0.0,60.0,12.0,0.0
21093,74.0,48.0,60.0,2.0,0.0
21094,78.0,0.0,60.0,2.0,0.0
21095,78.0,48.0,60.0,12.0,0.0
21096,78.0,0.0,60.0,0.0,0.0
21097,83.0,32.0,60.0,2.0,0.0
21098,83.0,0.0,60.0,0.0,0.0
21099,83.0,0.0,60.0,12.0,0.0
21100,42.0,16.0,30.0,7.0,0.0
21101,74.0,0.0,30.0,1.0,0.0
21102,74.0,0.0,60.0,13.0,0.0
21103,86.0,0.0,60.0,0.0,0.0
21104,86.0,0.0,60.0,12.0,0.0
21105,42.0,0.0,60.0,2.0,0.0
21106,86.0,0.0,60.0,2.0,0.0
21107,74.0,0.0,60.0,2.0,0.0
21108,42.0,48.0,60.0,3.0,0.0
21109,30.0,0.0,30.0,15.0,0.0
21110,86.0,0.0,60.0,11.0,0.0
21111,42.0,0.0,60.0,14.0,0.0
21112,83.0,48.0,60.0,2.0,0.0
21113,44.0,0.0,60.0,2.0,0.0
21114,83.0,0.0,60.0,0.0,0.0
21115,44.0,0.0,60.0,3.0,0.0
21116,44.0,0.0,60.0,14.0,0.0
21117,83.0,0.0,60.0,11.0,0.0
21118,82.0,0.0,60.0,0.0,0.0
21119,46.0,0.0,60.0,14.0,0.0
21120,82.0,48.0,60.0,2.0,0.0
21121,82.0,0.0,60.0,11.0,0.0
21122,46.0,0.0,60.0,2.0,0.0
21123,46.0,0.0,60.0,3.0,0.0
21124,80.0,0.0,60.0,2.0,0.0
21125,47.0,0.0,60.0,3.0,0.0
21126,80.0,0.0,60.0,11.0,0.0
21127,47.0,48.0,60.0,2.0,0.0
21128,80.0,0.0,60.0,0.0,0.0
21129,47.0,0.0,60.0,14.0,0.0
21130,49.0,0.0,60.0,3.0,0.0
21131,49.0,0.0,60.0,14.0,0.0
21132,78.0,0.0,60.0,11.0,0.0
21133,78.0,0.0,60.0,0.0,0.0
21134,78.0,48.0,60.0,2.0,0.0
21135,49.0,0.0,60.0,2.0,0.0
21136,77.0,0.0,60.0,2.0,0.0
21137,77.0,0.0,60.0,11.0,0.0
21138,50.0,0.0,60.0,14.0,0.0
21139,77.0,0.0,60.0,0.0,0.0
21140,50.0,0.0,60.0,3.0,0.0
21141,50.0,32.0,60.0,2.0,0.0
21142,73.0,0.0,60.0,0.0,0.0
21143,73.0,0.0,30.0,1.0,0.0
21144,42.0,0.0,60.0,3.0,0.0
21145,85.0,48.0,60.0,2.0,0.0
21146,49.0,0.0,60.0,3.0,0.0
21147,85.0,0.0,60.0,12.0,0.0
21148,85.0,0.0,60.0,0.0,0.0
21149,73.0,0.0,60.0,11.0,0.0
21150,73.0,2.0,60.0,2.0,0.0
21151,42.0,14.0,30.0,7.0,0.0
21152,49.0,0.0,60.0,2.0,0.0
21153,42.0,0.0,60.0,15.0,0.0
21154,82.0,0.0,60.0,0.0,0.0
21155,44.0,48.0,60.0,15.0,0.0
21156,44.0,0.0,60.0,3.0,0.0
21157,82.0,0.0,60.0,2.0,0.0
21158,82.0,0.0,60.0,12.0,0.0
21159,78.0,0.0,60.0,2.0,0.0
21160,46.0,0.0,60.0,15.0,0.0
21161,46.0,0.0,60.0,3.0,0.0
21162,78.0,0.0,60.0,12.0,0.0
21163,78.0,48.0,60.0,0.0,0.0
21164,73.0,0.0,60.0,12.0,0.0
21165,47.0,0.0,60.0,3.0,0.0
21166,73.0,0.0,60.0,0.0,0.0
21167,47.0,0.0,60.0,15.0,0.0
21168,73.0,0.0,60.0,2.0,0.0
21169,70.0,0.0,60.0,0.0,0.0
21170,49.0,0.0,60.0,15.0,0.0
21171,70.0,0.0,60.0,2.0,0.0
21172,70.0,0.0,60.0,12.0,0.0
21173,49.0,0.0,60.0,3.0,0.0
21174,66.0,0.0,60.0,2.0,0.0
21175,66.0,0.0,60.0,0.0,0.0
21176,50.0,48.0,60.0,15.0,0.0
21177,50.0,0.0,60.0,3.0,0.0
21178,66.0,0.0,60.0,12.0,0.0
21179,61.0,0.0,60.0,2.0,0.0
21180,73.0,0.0,60.0,2.0,0.0
21181,73.0,0.0,60.0,11.0,0.0
21182,42.0,0.0,60.0,14.0,0.0
21183,42.0,0.0,60.0,2.0,0.0
21184,61.0,48.0,60.0,0.0,0.0
21185,61.0,0.0,60.0,12.0,0.0
21186,54.0,0.0,60.0,3.0,0.0
21187,70.0,0.0,60.0,11.0,0.0
21188,70.0,0.0,60.0,2.0,0.0
21189,44.0,0.0,60.0,14.0,0.0
21190,44.0,48.0,60.0,2.0,0.0
21191,46.0,0.0,60.0,14.0,0.0
21192,66.0,48.0,60.0,11.0,0.0
21193,46.0,0.0,60.0,2.0,0.0
21194,66.0,0.0,60.0,2.0,0.0
21195,47.0,0.0,60.0,14.0,0.0
21196,61.0,0.0,60.0,2.0,0.0
21197,61.0,0.0,60.0,11.0,0.0
21198,47.0,48.0,60.0,2.0,0.0
21199,58.0,0.0,60.0,11.0,0.0
21200,49.0,0.0,60.0,14.0,0.0
21201,49.0,46.0,60.0,2.0,0.0
21202,58.0,0.0,60.0,2.0,0.0
21203,50.0,0.0,60.0,2.0,0.0
21204,54.0,2.0,60.0,2.0,0.0
21205,54.0,224.0,60.0,11.0,0.0
21206,50.0,0.0,60.0,14.0,0.0
21207,66.0,48.0,30.0,13.0,0.0
21208,78.0,0.0,30.0,0.0,0.0
21209,58.0,0.0,30.0,5.0,0.0
21210,70.0,0.0,30.0,12.0,0.0
21211,50.0,2.0,90.0,9.0,0.0
21212,66.0,0.0,30.0,5.0,0.0
21213,70.0,0.0,30.0,1.0,0.0
21214,42.0,32.0,180.0,8.0,0.0
21215,78.0,0.0,30.0,1.0,0.0
21216,70.0,0.0,30.0,2.0,0.0
21217,66.0,0.0,30.0,2.0,0.0
21218,78.0,0.0,30.0,11.0,0.0
21219,30.0,32.0,60.0,15.0,0.0
21220,54.0,0.0,30.0,4.0,0.0
21221,30.0,0.0,60.0,3.0,0.0
21222,42.0,0.0,30.0,3.0,0.0
21223,42.0,14.0,30.0,14.0,0.0
21224,46.0,0.0,30.0,2.0,0.0
21225,49.0,0.0,30.0,3.0,0.0
21226,42.0,0.0,30.0,7.0,0.0
21227,42.0,0.0,30.0,6.0,0.0
21228,61.0,0.0,30.0,4.0,0.0
21229,58.0,0.0,30.0,4.0,0.0
21230,49.0,48.0,30.0,14.0,0.0
21231,46.0,0.0,30.0,3.0,0.0
21232,46.0,0.0,30.0,6.0,0.0
21233,49.0,0.0,30.0,6.0,0.0
21234,78.0,0.0,30.0,11.0,0.0
21235,70.0,16.0,30.0,12.0,0.0
21236,66.0,0.0,30.0,2.0,0.0
21237,66.0,0.0,30.0,13.0,0.0
21238,66.0,0.0,30.0,5.0,0.0
21239,78.0,0.0,30.0,1.0,0.0
21240,70.0,0.0,30.0,1.0,0.0
21241,78.0,0.0,30.0,0.0,0.0
21242,58.0,0.0,30.0,5.0,0.0
21243,70.0,0.0,30.0,2.0,0.0
21244,61.0,0.0,30.0,13.0,0.0
21245,56.0,0.0,30.0,5.0,0.0
21246,68.0,0.0,30.0,2.0,0.0
21247,73.0,0.0,30.0,1.0,0.0
21248,68.0,0.0,30.0,1.0,0.0
21249,73.0,0.0,30.0,0.0,0.0
21250,73.0,48.0,30.0,11.0,0.0
21251,68.0,0.0,30.0,12.0,0.0
21252,61.0,0.0,30.0,2.0,0.0
21253,61.0,0.0,30.0,5.0,0.0
21254,29.0,0.0,60.0,3.0,0.0
21255,29.0,32.0,60.0,15.0,0.0
21256,41.0,0.0,30.0,3.0,0.0
21257,53.0,0.0,30.0,4.0,0.0
21258,41.0,16.0,30.0,14.0,0.0
21259,44.0,0.0,30.0,3.0,0.0
21260,61.0,0.0,30.0,4.0,0.0
21261,56.0,0.0,30.0,4.0,0.0
21262,49.0,0.0,30.0,14.0,0.0
21263,44.0,0.0,30.0,2.0,0.0
21264,41.0,48.0,30.0,6.0,0.0
21265,49.0,0.0,30.0,6.0,0.0
21266,49.0,0.0,30.0,3.0,0.0
21267,44.0,0.0,30.0,6.0,0.0
21268,41.0,0.0,30.0,7.0,0.0
21269,61.0,0.0,30.0,2.0,0.0
21270,56.0,0.0,30.0,5.0,0.0
21271,68.0,0.0,30.0,2.0,0.0
21272,73.0,0.0,30.0,0.0,0.0
21273,73.0,0.0,30.0,11.0,0.0
21274,61.0,0.0,30.0,13.0,0.0
21275,61.0,0.0,30.0,5.0,0.0
21276,73.0,64.0,30.0,1.0,0.0
21277,68.0,0.0,30.0,1.0,0.0
21278,68.0,0.0,30.0,12.0,0.0
21279,54.0,32.0,60.0,5.0,0.0
21280,70.0,0.0,150.0,11.0,0.0
21281,70.0,0.0,150.0,1.0,0.0
21282,66.0,0.0,150.0,1.0,0.0
21283,58.0,0.0,150.0,2.0,0.0
21284,70.0,0.0,150.0,0.0,0.0
21285,58.0,0.0,60.0,5.0,0.0
21286,30.0,0.0,60.0,3.0,0.0
21287,30.0,32.0,60.0,15.0,0.0
21288,42.0,0.0,30.0,3.0,0.0
21289,54.0,0.0,30.0,4.0,0.0
21290,42.0,16.0,30.0,14.0,0.0
21291,58.0,0.0,30.0,4.0,0.0
21292,46.0,0.0,30.0,6.0,0.0
21293,49.0,0.0,30.0,6.0,0.0
21294,49.0,0.0,30.0,14.0,0.0
21295,42.0,0.0,30.0,7.0,0.0
21296,61.0,0.0,30.0,4.0,0.0
21297,42.0,0.0,30.0,6.0,0.0
21298,46.0,0.0,30.0,2.0,0.0
21299,46.0,16.0,30.0,3.0,0.0
21300,49.0,0.0,30.0,3.0,0.0
21301,66.0,0.0,15.0,12.0,0.0
21302,70.0,0.0,30.0,11.0,0.0
21303,66.0,48.0,30.0,1.0,0.0
21304,70.0,0.0,30.0,0.0,0.0
21305,66.0,0.0,15.0,2.0,0.0
21306,54.0,0.0,30.0,5.0,0.0
21307,58.0,0.0,30.0,5.0,0.0
21308,58.0,0.0,30.0,2.0,0.0
21309,58.0,32.0,15.0,13.0,0.0
21310,70.0,0.0,30.0,1.0,0.0
21311,59.0,0.0,30.0,2.0,0.0
21312,59.0,0.0,30.0,1.0,0.0
21313,54.0,0.0,30.0,2.0,0.0
21314,66.0,0.0,30.0,1.0,0.0
21315,59.0,0.0,30.0,12.0,0.0
21316,59.0,0.0,30.0,5.0,0.0
21317,66.0,0.0,30.0,11.0,0.0
21318,54.0,0.0,30.0,13.0,0.0
21319,54.0,0.0,30.0,5.0,0.0
21320,66.0,0.0,30.0,0.0,0.0
21321,27.0,32.0,60.0,3.0,0.0
21322,39.0,16.0,30.0,14.0,0.0
21323,39.0,0.0,30.0,3.0,0.0
21324,51.0,0.0,30.0,4.0,0.0
21325,27.0,0.0,60.0,15.0,0.0
21326,47.0,0.0,30.0,6.0,0.0
21327,47.0,0.0,30.0,3.0,0.0
21328,42.0,0.0,30.0,3.0,0.0
21329,39.0,0.0,30.0,7.0,0.0
21330,47.0,0.0,30.0,14.0,0.0
21331,42.0,48.0,30.0,2.0,0.0
21332,54.0,0.0,30.0,4.0,0.0
21333,59.0,0.0,30.0,4.0,0.0
21334,39.0,0.0,30.0,6.0,0.0
21335,42.0,0.0,30.0,6.0,0.0
21336,54.0,0.0,30.0,13.0,0.0
21337,59.0,0.0,30.0,5.0,0.0
21338,54.0,0.0,30.0,5.0,0.0
21339,66.0,0.0,30.0,0.0,0.0
21340,54.0,0.0,30.0,2.0,0.0
21341,66.0,0.0,30.0,11.0,0.0
21342,59.0,0.0,30.0,1.0,0.0
21343,66.0,0.0,30.0,1.0,0.0
21344,59.0,48.0,30.0,2.0,0.0
21345,59.0,0.0,30.0,12.0,0.0
21346,58.0,0.0,30.0,13.0,0.0
21347,58.0,0.0,30.0,2.0,0.0
21348,66.0,0.0,30.0,2.0,0.0
21349,66.0,48.0,30.0,1.0,0.0
21350,70.0,0.0,30.0,1.0,0.0
21351,70.0,0.0,30.0,11.0,0.0
21352,54.0,0.0,30.0,5.0,0.0
21353,70.0,0.0,30.0,0.0,0.0
21354,66.0,0.0,30.0,12.0,0.0
21355,58.0,0.0,30.0,5.0,0.0
21356,37.0,0.0,30.0,14.0,0.0
21357,25.0,32.0,60.0,3.0,0.0
21358,49.0,16.0,30.0,4.0,0.0
21359,25.0,0.0,60.0,15.0,0.0
21360,37.0,0.0,30.0,3.0,0.0
21361,42.0,0.0,30.0,2.0,0.0
21362,37.0,48.0,30.0,7.0,0.0
21363,42.0,0.0,30.0,6.0,0.0
21364,49.0,0.0,30.0,6.0,0.0
21365,42.0,0.0,30.0,3.0,0.0
21366,49.0,0.0,30.0,3.0,0.0
21367,61.0,0.0,30.0,4.0,0.0
21368,49.0,0.0,30.0,14.0,0.0
21369,54.0,0.0,30.0,4.0,0.0
21370,37.0,0.0,30.0,6.0,0.0
21371,70.0,0.0,30.0,1.0,0.0
21372,58.0,0.0,30.0,2.0,0.0
21373,54.0,0.0,30.0,5.0,0.0
21374,66.0,0.0,30.0,1.0,0.0
21375,58.0,0.0,30.0,5.0,0.0
21376,66.0,0.0,30.0,12.0,0.0
21377,70.0,0.0,30.0,0.0,0.0
21378,58.0,0.0,30.0,13.0,0.0
21379,70.0,0.0,30.0,11.0,0.0
21380,66.0,0.0,30.0,2.0,0.0
21381,68.0,0.0,30.0,1.0,0.0
21382,56.0,0.0,30.0,13.0,0.0
21383,68.0,48.0,30.0,0.0,0.0
21384,53.0,0.0,30.0,5.0,0.0
21385,65.0,0.0,30.0,1.0,0.0
21386,56.0,0.0,30.0,5.0,0.0
21387,65.0,0.0,30.0,12.0,0.0
21388,68.0,0.0,30.0,11.0,0.0
21389,56.0,0.0,30.0,2.0,0.0
21390,65.0,0.0,30.0,2.0,0.0
21391,25.0,0.0,60.0,3.0,0.0
21392,37.0,16.0,30.0,14.0,0.0
21393,49.0,0.0,30.0,4.0,0.0
21394,25.0,32.0,60.0,15.0,0.0
21395,37.0,0.0,30.0,3.0,0.0
21396,61.0,0.0,30.0,4.0,0.0
21397,37.0,0.0,30.0,7.0,0.0
21398,44.0,48.0,30.0,6.0,0.0
21399,49.0,0.0,30.0,14.0,0.0
21400,37.0,0.0,30.0,6.0,0.0
21401,49.0,0.0,30.0,3.0,0.0
21402,44.0,0.0,30.0,2.0,0.0
21403,44.0,0.0,30.0,3.0,0.0
21404,56.0,0.0,30.0,4.0,0.0
21405,49.0,0.0,30.0,6.0,0.0
21406,68.0,0.0,30.0,0.0,0.0
21407,53.0,0.0,30.0,5.0,0.0
21408,65.0,0.0,30.0,1.0,0.0
21409,65.0,64.0,30.0,12.0,0.0
21410,56.0,0.0,30.0,5.0,0.0
21411,68.0,0.0,30.0,1.0,0.0
21412,56.0,0.0,30.0,2.0,0.0
21413,56.0,0.0,30.0,13.0,0.0
21414,68.0,0.0,30.0,11.0,0.0
21415,65.0,0.0,30.0,2.0,0.0
21416,58.0,0.0,150.0,13.0,0.0
21417,54.0,32.0,60.0,5.0,0.0
21418,70.0,0.0,150.0,0.0,0.0
21419,66.0,0.0,150.0,2.0,0.0
21420,58.0,0.0,150.0,2.0,0.0
21421,58.0,0.0,60.0,5.0,0.0
21422,66.0,32.0,150.0,12.0,0.0
21423,70.0,0.0,150.0,1.0,0.0
21424,42.0,0.0,30.0,3.0,0.0
21425,54.0,0.0,30.0,4.0,0.0
21426,30.0,0.0,60.0,15.0,0.0
21427,30.0,32.0,60.0,3.0,0.0
21428,42.0,16.0,30.0,14.0,0.0
21429,58.0,0.0,30.0,4.0,0.0
21430,46.0,0.0,30.0,6.0,0.0
21431,49.0,0.0,30.0,6.0,0.0
21432,61.0,0.0,30.0,4.0,0.0
21433,42.0,0.0,30.0,6.0,0.0
21434,49.0,0.0,30.0,3.0,0.0
21435,42.0,0.0,30.0,7.0,0.0
21436,49.0,0.0,30.0,14.0,0.0
21437,46.0,0.0,30.0,2.0,0.0
21438,46.0,16.0,30.0,3.0,0.0
21439,70.0,0.0,15.0,11.0,0.0
21440,70.0,0.0,30.0,1.0,0.0
21441,58.0,0.0,30.0,2.0,0.0
21442,66.0,0.0,30.0,2.0,0.0
21443,66.0,0.0,15.0,1.0,0.0
21444,70.0,0.0,30.0,0.0,0.0
21445,54.0,0.0,30.0,5.0,0.0
21446,58.0,0.0,30.0,5.0,0.0
21447,66.0,0.0,30.0,12.0,0.0
21448,58.0,0.0,30.0,13.0,0.0
21449,66.0,0.0,30.0,1.0,0.0
21450,61.0,48.0,30.0,1.0,0.0
21451,61.0,0.0,30.0,2.0,0.0
21452,54.0,0.0,30.0,2.0,0.0
21453,54.0,0.0,30.0,5.0,0.0
21454,49.0,0.0,30.0,5.0,0.0
21455,61.0,0.0,30.0,12.0,0.0
21456,66.0,0.0,30.0,0.0,0.0
21457,66.0,0.0,30.0,11.0,0.0
21458,54.0,0.0,30.0,13.0,0.0
21459,34.0,10.0,60.0,3.0,0.0
21460,46.0,0.0,30.0,3.0,0.0
21461,45.0,0.0,150.0,9.0,0.0
21462,34.0,0.0,60.0,15.0,0.0
21463,46.0,16.0,30.0,14.0,0.0
21464,58.0,0.0,30.0,4.0,0.0
21465,49.0,0.0,30.0,3.0,0.0
21466,46.0,0.0,30.0,7.0,0.0
21467,54.0,0.0,30.0,3.0,0.0
21468,34.0,6.0,15.0,9.0,0.0
21469,46.0,2.0,30.0,6.0,0.0
21470,50.0,6.0,15.0,9.0,0.0
21471,54.0,0.0,30.0,6.0,0.0
21472,49.0,0.0,30.0,6.0,0.0
21473,66.0,0.0,30.0,4.0,0.0
21474,54.0,0.0,30.0,14.0,0.0
21475,61.0,0.0,30.0,4.0,0.0
21476,49.0,0.0,30.0,2.0,0.0
21477,50.0,10.0,15.0,9.0,0.0
21478,73.0,0.0,15.0,11.0,0.0
21479,73.0,0.0,15.0,0.0,0.0
21480,34.0,6.0,15.0,9.0,0.0
21481,50.0,6.0,15.0,9.0,0.0
21482,75.0,10.0,15.0,11.0,0.0
21483,75.0,0.0,15.0,0.0,0.0
21484,50.0,2.0,15.0,9.0,0.0
21485,77.0,0.0,15.0,11.0,0.0
21486,77.0,6.0,15.0,0.0,0.0
21487,50.0,6.0,15.0,9.0,0.0
21488,37.0,0.0,15.0,8.0,0.0
21489,34.0,0.0,15.0,9.0,0.0
21490,50.0,10.0,15.0,9.0,0.0
21491,78.0,2.0,15.0,11.0,0.0
21492,78.0,0.0,15.0,0.0,0.0
21493,50.0,6.0,15.0,9.0,0.0
21494,34.0,6.0,15.0,9.0,0.0
21495,80.0,0.0,15.0,11.0,0.0
21496,80.0,32.0,15.0,0.0,0.0
21497,50.0,2.0,15.0,9.0,0.0
21498,82.0,0.0,30.0,11.0,0.0
21499,42.0,32.0,180.0,8.0,0.0
21500,70.0,0.0,30.0,2.0,0.0
21501,78.0,0.0,30.0,12.0,0.0
21502,78.0,0.0,30.0,1.0,0.0
21503,82.0,0.0,30.0,1.0,0.0
21504,82.0,0.0,30.0,0.0,0.0
21505,50.0,2.0,90.0,9.0,0.0
21506,78.0,0.0,30.0,0.0,0.0
21507,34.0,0.0,30.0,9.0,0.0
21508,70.0,48.0,30.0,13.0,0.0
21509,66.0,0.0,30.0,5.0,0.0
21510,70.0,0.0,30.0,5.0,0.0
21511,54.0,0.0,30.0,4.0,0.0
21512,30.0,0.0,60.0,3.0,0.0
21513,30.0,32.0,60.0,15.0,0.0
21514,42.0,0.0,30.0,3.0,0.0
21515,42.0,14.0,30.0,14.0,0.0
21516,58.0,0.0,30.0,6.0,0.0
21517,42.0,0.0,30.0,6.0,0.0
21518,42.0,0.0,30.0,7.0,0.0
21519,54.0,0.0,30.0,6.0,0.0
21520,66.0,0.0,30.0,4.0,0.0
21521,54.0,0.0,30.0,14.0,0.0
21522,49.0,48.0,30.0,3.0,0.0
21523,54.0,0.0,30.0,3.0,0.0
21524,61.0,0.0,30.0,4.0,0.0
21525,49.0,0.0,30.0,2.0,0.0
21526,78.0,0.0,30.0,1.0,0.0
21527,82.0,0.0,30.0,1.0,0.0
21528,78.0,0.0,30.0,12.0,0.0
21529,70.0,0.0,30.0,13.0,0.0
21530,66.0,0.0,30.0,5.0,0.0
21531,82.0,0.0,30.0,11.0,0.0
21532,82.0,0.0,30.0,0.0,0.0
21533,78.0,16.0,30.0,0.0,0.0
21534,70.0,0.0,30.0,2.0,0.0
21535,70.0,0.0,30.0,5.0,0.0
21536,68.0,0.0,30.0,2.0,0.0
21537,71.0,0.0,30.0,2.0,0.0
21538,68.0,0.0,30.0,13.0,0.0
21539,80.0,0.0,30.0,1.0,0.0
21540,77.0,0.0,30.0,1.0,0.0
21541,65.0,0.0,30.0,5.0,0.0
21542,77.0,0.0,30.0,12.0,0.0
21543,80.0,0.0,30.0,11.0,0.0
21544,80.0,48.0,30.0,0.0,0.0
21545,77.0,0.0,30.0,0.0,0.0
21546,68.0,0.0,30.0,5.0,0.0
21547,44.0,16.0,30.0,14.0,0.0
21548,44.0,0.0,30.0,3.0,0.0
21549,32.0,0.0,60.0,3.0,0.0
21550,32.0,32.0,60.0,15.0,0.0
21551,56.0,0.0,30.0,4.0,0.0
21552,44.0,0.0,30.0,7.0,0.0
21553,47.0,0.0,30.0,2.0,0.0
21554,53.0,0.0,30.0,3.0,0.0
21555,47.0,0.0,30.0,3.0,0.0
21556,47.0,0.0,30.0,6.0,0.0
21557,53.0,0.0,30.0,6.0,0.0
21558,44.0,48.0,30.0,6.0,0.0
21559,59.0,0.0,30.0,4.0,0.0
21560,65.0,0.0,30.0,4.0,0.0
21561,53.0,0.0,30.0,14.0,0.0
21562,77.0,0.0,30.0,12.0,0.0
21563,65.0,0.0,30.0,5.0,0.0
21564,80.0,0.0,30.0,11.0,0.0
21565,80.0,0.0,30.0,1.0,0.0
21566,68.0,0.0,30.0,13.0,0.0
21567,77.0,0.0,30.0,0.0,0.0
21568,77.0,64.0,30.0,1.0,0.0
21569,80.0,0.0,30.0,0.0,0.0
21570,71.0,0.0,30.0,2.0,0.0
21571,68.0,0.0,30.0,2.0,0.0
21572,68.0,0.0,30.0,5.0,0.0
21573,61.0,0.0,60.0,5.0,0.0
21574,78.0,0.0,150.0,1.0,0.0
21575,73.0,0.0,150.0,1.0,0.0
21576,78.0,0.0,150.0,11.0,0.0
21577,66.0,0.0,150.0,13.0,0.0
21578,66.0,0.0,60.0,5.0,0.0
21579,66.0,0.0,150.0,2.0,0.0
21580,58.0,0.0,30.0,4.0,0.0
21581,46.0,16.0,30.0,3.0,0.0
21582,30.0,32.0,60.0,15.0,0.0
21583,42.0,0.0,30.0,14.0,0.0
21584,30.0,0.0,60.0,3.0,0.0
21585,46.0,16.0,30.0,7.0,0.0
21586,54.0,0.0,30.0,3.0,0.0
21587,49.0,0.0,30.0,3.0,0.0
21588,49.0,0.0,30.0,2.0,0.0
21589,46.0,0.0,30.0,6.0,0.0
21590,54.0,0.0,30.0,6.0,0.0
21591,49.0,0.0,30.0,6.0,0.0
21592,54.0,0.0,30.0,14.0,0.0
21593,66.0,0.0,30.0,4.0,0.0
21594,61.0,0.0,30.0,4.0,0.0
21595,78.0,0.0,15.0,0.0,0.0
21596,73.0,0.0,30.0,1.0,0.0
21597,78.0,0.0,30.0,1.0,0.0
21598,66.0,0.0,30.0,13.0,0.0
21599,73.0,32.0,15.0,2.0,0.0
21600,73.0,0.0,15.0,12.0,0.0
21601,61.0,0.0,30.0,5.0,0.0
21602,66.0,0.0,30.0,5.0,0.0
21603,66.0,48.0,30.0,2.0,0.0
21604,78.0,0.0,30.0,11.0,0.0
21605,75.0,0.0,30.0,0.0,0.0
21606,63.0,0.0,30.0,13.0,0.0
21607,63.0,0.0,30.0,5.0,0.0
21608,71.0,48.0,30.0,1.0,0.0
21609,75.0,0.0,30.0,11.0,0.0
21610,71.0,0.0,30.0,2.0,0.0
21611,71.0,0.0,30.0,0.0,0.0
21612,59.0,0.0,30.0,5.0,0.0
21613,71.0,0.0,30.0,12.0,0.0
21614,75.0,0.0,30.0,1.0,0.0
21615,63.0,0.0,30.0,2.0,0.0
21616,59.0,0.0,30.0,4.0,0.0
21617,35.0,0.0,60.0,3.0,0.0
21618,47.0,0.0,30.0,3.0,0.0
21619,47.0,16.0,30.0,14.0,0.0
21620,35.0,32.0,60.0,15.0,0.0
21621,47.0,0.0,30.0,7.0,0.0
21622,54.0,0.0,30.0,14.0,0.0
21623,54.0,0.0,30.0,3.0,0.0
21624,51.0,48.0,30.0,3.0,0.0
21625,51.0,0.0,30.0,2.0,0.0
21626,66.0,0.0,30.0,4.0,0.0
21627,63.0,0.0,30.0,4.0,0.0
21628,54.0,0.0,30.0,6.0,0.0
21629,51.0,0.0,30.0,6.0,0.0
21630,47.0,0.0,30.0,6.0,0.0
21631,71.0,0.0,30.0,2.0,0.0
21632,63.0,0.0,30.0,2.0,0.0
21633,59.0,0.0,30.0,5.0,0.0
21634,63.0,0.0,30.0,13.0,0.0
21635,71.0,48.0,30.0,1.0,0.0
21636,75.0,0.0,30.0,0.0,0.0
21637,71.0,0.0,30.0,0.0,0.0
21638,75.0,0.0,30.0,1.0,0.0
21639,71.0,0.0,30.0,12.0,0.0
21640,63.0,0.0,30.0,5.0,0.0
21641,75.0,0.0,30.0,11.0,0.0
21642,73.0,0.0,30.0,1.0,0.0
21643,61.0,0.0,30.0,13.0,0.0
21644,73.0,0.0,30.0,0.0,0.0
21645,66.0,0.0,30.0,12.0,0.0
21646,61.0,0.0,30.0,2.0,0.0
21647,73.0,0.0,30.0,2.0,0.0
21648,73.0,0.0,30.0,11.0,0.0
21649,61.0,0.0,30.0,1.0,0.0
21650,54.0,0.0,30.0,5.0,0.0
21651,61.0,0.0,30.0,5.0,0.0
21652,34.0,0.0,60.0,15.0,0.0
21653,46.0,0.0,30.0,14.0,0.0
21654,34.0,32.0,60.0,3.0,0.0
21655,58.0,0.0,30.0,4.0,0.0
21656,46.0,16.0,30.0,3.0,0.0
21657,66.0,0.0,30.0,4.0,0.0
21658,61.0,0.0,30.0,4.0,0.0
21659,49.0,0.0,30.0,2.0,0.0
21660,54.0,0.0,30.0,6.0,0.0
21661,54.0,0.0,30.0,14.0,0.0
21662,49.0,0.0,30.0,6.0,0.0
21663,46.0,0.0,30.0,7.0,0.0
21664,54.0,48.0,30.0,3.0,0.0
21665,46.0,0.0,30.0,6.0,0.0
21666,49.0,0.0,30.0,3.0,0.0
21667,54.0,0.0,30.0,5.0,0.0
21668,61.0,0.0,30.0,13.0,0.0
21669,73.0,0.0,30.0,11.0,0.0
21670,66.0,0.0,30.0,12.0,0.0
21671,73.0,0.0,30.0,2.0,0.0
21672,61.0,0.0,30.0,2.0,0.0
21673,61.0,48.0,30.0,1.0,0.0
21674,73.0,0.0,30.0,1.0,0.0
21675,61.0,0.0,30.0,5.0,0.0
21676,73.0,0.0,30.0,0.0,0.0
21677,78.0,0.0,30.0,0.0,0.0
21678,58.0,0.0,30.0,5.0,0.0
21679,70.0,0.0,30.0,1.0,0.0
21680,66.0,0.0,30.0,13.0,0.0
21681,70.0,0.0,30.0,2.0,0.0
21682,70.0,0.0,30.0,12.0,0.0
21683,66.0,0.0,30.0,1.0,0.0
21684,66.0,0.0,30.0,5.0,0.0
21685,78.0,48.0,30.0,11.0,0.0
21686,66.0,0.0,30.0,2.0,0.0
21687,30.0,32.0,60.0,15.0,0.0
21688,42.0,16.0,30.0,3.0,0.0
21689,30.0,0.0,60.0,3.0,0.0
21690,54.0,0.0,30.0,4.0,0.0
21691,42.0,0.0,30.0,14.0,0.0
21692,42.0,0.0,30.0,6.0,0.0
21693,66.0,0.0,30.0,4.0,0.0
21694,61.0,0.0,30.0,4.0,0.0
21695,54.0,0.0,30.0,3.0,0.0
21696,42.0,0.0,30.0,7.0,0.0
21697,49.0,0.0,30.0,3.0,0.0
21698,54.0,0.0,30.0,14.0,0.0
21699,54.0,0.0,30.0,6.0,0.0
21700,58.0,0.0,30.0,6.0,0.0
21701,49.0,48.0,30.0,2.0,0.0
21702,78.0,64.0,30.0,0.0,0.0
21703,70.0,0.0,30.0,12.0,0.0
21704,66.0,0.0,30.0,13.0,0.0
21705,58.0,0.0,30.0,5.0,0.0
21706,66.0,0.0,30.0,1.0,0.0
21707,70.0,0.0,30.0,1.0,0.0
21708,66.0,0.0,30.0,5.0,0.0
21709,66.0,0.0,30.0,2.0,0.0
21710,70.0,0.0,30.0,2.0,0.0
21711,78.0,0.0,30.0,11.0,0.0
21712,65.0,0.0,60.0,5.0,0.0
21713,80.0,0.0,150.0,0.0,0.0
21714,77.0,0.0,150.0,0.0,0.0
21715,80.0,0.0,150.0,11.0,0.0
21716,68.0,0.0,150.0,13.0,0.0
21717,77.0,0.0,150.0,12.0,0.0
21718,68.0,0.0,60.0,5.0,0.0
21719,25.0,32.0,60.0,15.0,0.0
21720,61.0,16.0,30.0,4.0,0.0
21721,37.0,0.0,30.0,14.0,0.0
21722,37.0,0.0,30.0,3.0,0.0
21723,25.0,0.0,60.0,3.0,0.0
21724,49.0,0.0,30.0,2.0,0.0
21725,37.0,16.0,30.0,6.0,0.0
21726,53.0,0.0,30.0,14.0,0.0
21727,61.0,0.0,30.0,4.0,0.0
21728,65.0,0.0,30.0,4.0,0.0
21729,49.0,0.0,30.0,3.0,0.0
21730,53.0,0.0,30.0,3.0,0.0
21731,53.0,0.0,30.0,6.0,0.0
21732,56.0,0.0,30.0,6.0,0.0
21733,37.0,0.0,30.0,7.0,0.0
21734,68.0,0.0,15.0,1.0,0.0
21735,73.0,0.0,15.0,1.0,0.0
21736,65.0,48.0,30.0,5.0,0.0
21737,73.0,0.0,15.0,13.0,0.0
21738,68.0,0.0,30.0,13.0,0.0
21739,80.0,0.0,30.0,11.0,0.0
21740,77.0,0.0,30.0,12.0,0.0
21741,68.0,0.0,30.0,5.0,0.0
21742,73.0,0.0,15.0,2.0,0.0
21743,68.0,32.0,15.0,2.0,0.0
21744,80.0,0.0,30.0,0.0,0.0
21745,77.0,0.0,30.0,0.0,0.0
21746,37.0,0.0,150.0,8.0,0.0
21747,85.0,0.0,30.0,11.0,0.0
21748,77.0,0.0,30.0,1.0,0.0
21749,73.0,0.0,30.0,1.0,0.0
21750,77.0,0.0,30.0,2.0,0.0
21751,73.0,0.0,30.0,2.0,0.0
21752,65.0,0.0,30.0,5.0,0.0
21753,85.0,0.0,30.0,0.0,0.0
21754,73.0,48.0,30.0,13.0,0.0
21755,77.0,0.0,30.0,12.0,0.0
21756,61.0,0.0,30.0,5.0,0.0
21757,73.0,0.0,30.0,5.0,0.0
21758,37.0,10.0,60.0,15.0,0.0
21759,49.0,16.0,30.0,14.0,0.0
21760,45.0,2.0,150.0,9.0,0.0
21761,50.0,6.0,15.0,9.0,0.0
21762,34.0,6.0,15.0,9.0,0.0
21763,56.0,2.0,30.0,14.0,0.0
21764,53.0,0.0,30.0,2.0,0.0
21765,50.0,10.0,15.0,9.0,0.0
21766,73.0,0.0,15.0,11.0,0.0
21767,73.0,0.0,15.0,0.0,0.0
21768,50.0,6.0,15.0,9.0,0.0
21769,34.0,6.0,15.0,9.0,0.0
21770,72.0,0.0,15.0,0.0,0.0
21771,72.0,10.0,15.0,11.0,0.0
21772,50.0,2.0,15.0,9.0,0.0
21773,73.0,0.0,15.0,0.0,0.0
21774,73.0,6.0,15.0,11.0,0.0
21775,37.0,32.0,60.0,8.0,0.0
21776,34.0,0.0,15.0,9.0,0.0
21777,50.0,6.0,15.0,9.0,0.0
21778,50.0,10.0,15.0,9.0,0.0
21779,75.0,0.0,15.0,0.0,0.0
21780,75.0,2.0,15.0,11.0,0.0
21781,50.0,6.0,15.0,9.0,0.0
21782,34.0,6.0,15.0,9.0,0.0
21783,77.0,0.0,15.0,0.0,0.0
21784,77.0,0.0,15.0,11.0,0.0
21785,50.0,0.0,15.0,9.0,0.0
21786,78.0,0.0,30.0,11.0,0.0
21787,70.0,0.0,30.0,12.0,0.0
21788,42.0,32.0,180.0,8.0,0.0
21789,50.0,2.0,90.0,9.0,0.0
21790,78.0,0.0,30.0,1.0,0.0
21791,78.0,48.0,30.0,0.0,0.0
21792,70.0,0.0,30.0,1.0,0.0
21793,66.0,0.0,30.0,13.0,0.0
21794,66.0,0.0,30.0,5.0,0.0
21795,66.0,0.0,30.0,2.0,0.0
21796,70.0,0.0,30.0,2.0,0.0
21797,58.0,0.0,30.0,5.0,0.0
21798,42.0,14.0,30.0,14.0,0.0
21799,42.0,0.0,30.0,3.0,0.0
21800,54.0,0.0,30.0,4.0,0.0
21801,30.0,0.0,60.0,15.0,0.0
21802,30.0,32.0,60.0,3.0,0.0
21803,46.0,0.0,30.0,6.0,0.0
21804,42.0,0.0,30.0,7.0,0.0
21805,49.0,0.0,30.0,6.0,0.0
21806,61.0,0.0,30.0,4.0,0.0
21807,58.0,0.0,30.0,4.0,0.0
21808,49.0,0.0,30.0,3.0,0.0
21809,49.0,0.0,30.0,14.0,0.0
21810,42.0,48.0,30.0,6.0,0.0
21811,46.0,0.0,30.0,2.0,0.0
21812,46.0,0.0,30.0,3.0,0.0
21813,66.0,0.0,30.0,13.0,0.0
21814,70.0,0.0,30.0,12.0,0.0
21815,78.0,0.0,30.0,1.0,0.0
21816,70.0,16.0,30.0,2.0,0.0
21817,66.0,0.0,30.0,2.0,0.0
21818,58.0,0.0,30.0,5.0,0.0
21819,78.0,0.0,30.0,0.0,0.0
21820,78.0,0.0,30.0,11.0,0.0
21821,66.0,0.0,30.0,5.0,0.0
21822,70.0,0.0,30.0,1.0,0.0
21823,61.0,0.0,30.0,2.0,0.0
21824,61.0,0.0,30.0,13.0,0.0
21825,68.0,48.0,30.0,2.0,0.0
21826,73.0,0.0,30.0,0.0,0.0
21827,68.0,0.0,30.0,12.0,0.0
21828,68.0,0.0,30.0,1.0,0.0
21829,56.0,0.0,30.0,5.0,0.0
21830,61.0,0.0,30.0,5.0,0.0
21831,73.0,0.0,30.0,1.0,0.0
21832,73.0,0.0,30.0,11.0,0.0
21833,29.0,0.0,60.0,15.0,0.0
21834,53.0,0.0,30.0,4.0,0.0
21835,29.0,32.0,60.0,3.0,0.0
21836,41.0,0.0,30.0,14.0,0.0
21837,41.0,16.0,30.0,3.0,0.0
21838,49.0,0.0,30.0,14.0,0.0
21839,44.0,48.0,30.0,3.0,0.0
21840,44.0,0.0,30.0,6.0,0.0
21841,49.0,0.0,30.0,3.0,0.0
21842,49.0,0.0,30.0,6.0,0.0
21843,41.0,0.0,30.0,7.0,0.0
21844,44.0,0.0,30.0,2.0,0.0
21845,56.0,0.0,30.0,4.0,0.0
21846,41.0,0.0,30.0,6.0,0.0
21847,61.0,0.0,30.0,4.0,0.0
21848,56.0,0.0,30.0,5.0,0.0
21849,68.0,0.0,30.0,2.0,0.0
21850,73.0,0.0,30.0,11.0,0.0
21851,68.0,0.0,30.0,12.0,0.0
21852,61.0,0.0,30.0,13.0,0.0
21853,73.0,0.0,30.0,1.0,0.0
21854,68.0,0.0,30.0,1.0,0.0
21855,73.0,0.0,30.0,0.0,0.0
21856,61.0,64.0,30.0,2.0,0.0
21857,61.0,0.0,30.0,5.0,0.0
21858,66.0,0.0,150.0,2.0,0.0
21859,70.0,0.0,150.0,11.0,0.0
21860,54.0,0.0,60.0,5.0,0.0
21861,58.0,0.0,60.0,5.0,0.0
21862,70.0,0.0,150.0,0.0,0.0
21863,54.0,16.0,30.0,4.0,0.0
21864,42.0,0.0,30.0,3.0,0.0
21865,30.0,0.0,60.0,15.0,0.0
21866,42.0,0.0,30.0,14.0,0.0
21867,30.0,32.0,60.0,3.0,0.0
21868,58.0,0.0,30.0,4.0,0.0
21869,49.0,0.0,30.0,14.0,0.0
21870,46.0,0.0,30.0,6.0,0.0
21871,46.0,0.0,30.0,2.0,0.0
21872,42.0,0.0,30.0,7.0,0.0
21873,42.0,0.0,30.0,6.0,0.0
21874,49.0,16.0,30.0,6.0,0.0
21875,46.0,0.0,30.0,3.0,0.0
21876,49.0,0.0,30.0,3.0,0.0
21877,61.0,0.0,30.0,4.0,0.0
21878,66.0,0.0,15.0,1.0,0.0
21879,70.0,0.0,15.0,1.0,0.0
21880,70.0,0.0,30.0,0.0,0.0
21881,58.0,32.0,15.0,2.0,0.0
21882,66.0,48.0,30.0,2.0,0.0
21883,66.0,0.0,15.0,12.0,0.0
21884,58.0,0.0,15.0,13.0,0.0
21885,70.0,0.0,30.0,11.0,0.0
21886,58.0,0.0,30.0,5.0,0.0
21887,54.0,0.0,30.0,5.0,0.0
21888,54.0,0.0,30.0,2.0,0.0
21889,66.0,48.0,30.0,1.0,0.0
21890,59.0,0.0,30.0,1.0,0.0
21891,54.0,0.0,30.0,13.0,0.0
21892,59.0,0.0,30.0,12.0,0.0
21893,54.0,0.0,30.0,5.0,0.0
21894,59.0,0.0,30.0,5.0,0.0
21895,66.0,0.0,30.0,11.0,0.0
21896,66.0,0.0,30.0,0.0,0.0
21897,59.0,0.0,30.0,2.0,0.0
21898,27.0,0.0,60.0,3.0,0.0
21899,39.0,16.0,30.0,14.0,0.0
21900,51.0,0.0,30.0,4.0,0.0
21901,27.0,32.0,60.0,15.0,0.0
21902,39.0,0.0,30.0,3.0,0.0
21903,39.0,0.0,30.0,6.0,0.0
21904,47.0,48.0,30.0,14.0,0.0
21905,47.0,0.0,30.0,6.0,0.0
21906,39.0,0.0,30.0,7.0,0.0
21907,42.0,0.0,30.0,2.0,0.0
21908,47.0,0.0,30.0,3.0,0.0
21909,42.0,0.0,30.0,6.0,0.0
21910,54.0,0.0,30.0,4.0,0.0
21911,42.0,0.0,30.0,3.0,0.0
21912,59.0,0.0,30.0,4.0,0.0
21913,59.0,0.0,30.0,2.0,0.0
21914,54.0,0.0,30.0,2.0,0.0
21915,66.0,0.0,30.0,11.0,0.0
21916,54.0,0.0,30.0,13.0,0.0
21917,66.0,0.0,30.0,0.0,0.0
21918,66.0,0.0,30.0,1.0,0.0
21919,59.0,0.0,30.0,1.0,0.0
21920,54.0,0.0,30.0,5.0,0.0
21921,59.0,48.0,30.0,5.0,0.0
21922,59.0,0.0,30.0,12.0,0.0
21923,70.0,48.0,30.0,11.0,0.0
21924,66.0,0.0,30.0,12.0,0.0
21925,66.0,0.0,30.0,2.0,0.0
21926,54.0,0.0,30.0,5.0,0.0
21927,58.0,0.0,30.0,2.0,0.0
21928,70.0,0.0,30.0,1.0,0.0
21929,58.0,0.0,30.0,5.0,0.0
21930,66.0,0.0,30.0,1.0,0.0
21931,70.0,0.0,30.0,0.0,0.0
21932,58.0,0.0,30.0,13.0,0.0
21933,37.0,0.0,30.0,14.0,0.0
21934,25.0,32.0,60.0,15.0,0.0
21935,25.0,0.0,60.0,3.0,0.0
21936,49.0,0.0,30.0,4.0,0.0
21937,37.0,16.0,30.0,3.0,0.0
21938,37.0,0.0,30.0,6.0,0.0
21939,61.0,0.0,30.0,4.0,0.0
21940,42.0,0.0,30.0,6.0,0.0
21941,42.0,0.0,30.0,2.0,0.0
21942,49.0,0.0,30.0,6.0,0.0
21943,37.0,48.0,30.0,7.0,0.0
21944,54.0,0.0,30.0,4.0,0.0
21945,49.0,0.0,30.0,3.0,0.0
21946,49.0,0.0,30.0,14.0,0.0
21947,42.0,0.0,30.0,3.0,0.0
21948,70.0,48.0,30.0,0.0,0.0
21949,54.0,0.0,30.0,5.0,0.0
21950,66.0,0.0,30.0,12.0,0.0
21951,66.0,0.0,30.0,1.0,0.0
21952,66.0,0.0,30.0,2.0,0.0
21953,58.0,0.0,30.0,2.0,0.0
21954,58.0,0.0,30.0,13.0,0.0
21955,70.0,0.0,30.0,11.0,0.0
21956,58.0,0.0,30.0,5.0,0.0
21957,70.0,0.0,30.0,1.0,0.0
21958,53.0,0.0,30.0,5.0,0.0
21959,65.0,0.0,30.0,12.0,0.0
21960,65.0,0.0,30.0,1.0,0.0
21961,68.0,48.0,30.0,1.0,0.0
21962,56.0,0.0,30.0,13.0,0.0
21963,68.0,0.0,30.0,11.0,0.0
21964,68.0,0.0,30.0,0.0,0.0
21965,56.0,0.0,30.0,2.0,0.0
21966,65.0,0.0,30.0,2.0,0.0
21967,56.0,0.0,30.0,5.0,0.0
21968,37.0,16.0,30.0,3.0,0.0
21969,25.0,32.0,60.0,15.0,0.0
21970,49.0,0.0,30.0,4.0,0.0
21971,25.0,0.0,60.0,3.0,0.0
21972,37.0,0.0,30.0,14.0,0.0
21973,37.0,0.0,30.0,7.0,0.0
21974,49.0,0.0,30.0,3.0,0.0
21975,44.0,48.0,30.0,3.0,0.0
21976,37.0,0.0,30.0,6.0,0.0
21977,49.0,0.0,30.0,14.0,0.0
21978,49.0,0.0,30.0,6.0,0.0
21979,56.0,0.0,30.0,4.0,0.0
21980,61.0,0.0,30.0,4.0,0.0
21981,44.0,0.0,30.0,6.0,0.0
21982,44.0,0.0,30.0,2.0,0.0
21983,56.0,0.0,30.0,13.0,0.0
21984,53.0,64.0,30.0,5.0,0.0
21985,56.0,0.0,30.0,5.0,0.0
21986,68.0,0.0,30.0,0.0,0.0
21987,56.0,0.0,30.0,2.0,0.0
21988,65.0,0.0,30.0,12.0,0.0
21989,68.0,0.0,30.0,11.0,0.0
21990,65.0,0.0,30.0,1.0,0.0
21991,68.0,0.0,30.0,1.0,0.0
21992,65.0,0.0,30.0,2.0,0.0
21993,58.0,0.0,150.0,2.0,0.0
21994,70.0,32.0,150.0,11.0,0.0
21995,54.0,0.0,60.0,5.0,0.0
21996,66.0,0.0,150.0,2.0,0.0
21997,58.0,0.0,60.0,5.0,0.0
21998,42.0,0.0,30.0,3.0,0.0
21999,54.0,0.0,30.0,4.0,0.0
22000,30.0,32.0,60.0,15.0,0.0
22001,30.0,0.0,60.0,3.0,0.0
22002,42.0,16.0,30.0,14.0,0.0
22003,49.0,0.0,30.0,6.0,0.0
22004,49.0,0.0,30.0,3.0,0.0
22005,46.0,0.0,30.0,2.0,0.0
22006,42.0,0.0,30.0,7.0,0.0
22007,61.0,0.0,30.0,4.0,0.0
22008,58.0,0.0,30.0,4.0,0.0
22009,49.0,0.0,30.0,14.0,0.0
22010,46.0,0.0,30.0,3.0,0.0
22011,42.0,0.0,30.0,6.0,0.0
22012,46.0,16.0,30.0,6.0,0.0
22013,66.0,0.0,15.0,12.0,0.0
22014,58.0,0.0,15.0,13.0,0.0
22015,58.0,0.0,30.0,5.0,0.0
22016,70.0,0.0,15.0,1.0,0.0
22017,66.0,0.0,15.0,1.0,0.0
22018,70.0,0.0,15.0,0.0,0.0
22019,54.0,0.0,30.0,5.0,0.0
22020,58.0,0.0,30.0,2.0,0.0
22021,66.0,0.0,30.0,2.0,0.0
22022,70.0,0.0,30.0,11.0,0.0
22023,61.0,0.0,30.0,12.0,0.0
22024,49.0,0.0,30.0,5.0,0.0
22025,66.0,0.0,30.0,0.0,0.0
22026,54.0,0.0,30.0,5.0,0.0
22027,66.0,0.0,30.0,11.0,0.0
22028,54.0,0.0,30.0,2.0,0.0
22029,37.0,0.0,150.0,8.0,0.0
22030,54.0,48.0,30.0,13.0,0.0
22031,61.0,0.0,30.0,2.0,0.0
22032,61.0,0.0,30.0,1.0,0.0
22033,66.0,0.0,30.0,1.0,0.0
22034,46.0,0.0,30.0,14.0,0.0
22035,45.0,2.0,150.0,9.0,0.0
22036,34.0,0.0,60.0,15.0,0.0
22037,46.0,16.0,30.0,3.0,0.0
22038,58.0,0.0,30.0,4.0,0.0
22039,34.0,10.0,60.0,3.0,0.0
22040,46.0,0.0,30.0,6.0,0.0
22041,54.0,0.0,30.0,3.0,0.0
22042,46.0,2.0,30.0,7.0,0.0
22043,49.0,0.0,30.0,3.0,0.0
22044,49.0,0.0,30.0,6.0,0.0
22045,50.0,6.0,15.0,9.0,0.0
22046,49.0,0.0,30.0,2.0,0.0
22047,66.0,0.0,30.0,4.0,0.0
22048,54.0,0.0,30.0,14.0,0.0
22049,61.0,0.0,30.0,4.0,0.0
22050,54.0,0.0,30.0,6.0,0.0
22051,34.0,6.0,15.0,9.0,0.0
22052,50.0,10.0,15.0,9.0,0.0
22053,73.0,0.0,15.0,11.0,0.0
22054,73.0,0.0,15.0,0.0,0.0
22055,50.0,6.0,15.0,9.0,0.0
22056,34.0,6.0,15.0,9.0,0.0
22057,75.0,0.0,15.0,0.0,0.0
22058,75.0,10.0,15.0,11.0,0.0
22059,50.0,2.0,15.0,9.0,0.0
22060,34.0,0.0,15.0,9.0,0.0
22061,37.0,32.0,60.0,8.0,0.0
22062,77.0,0.0,15.0,11.0,0.0
22063,77.0,6.0,15.0,0.0,0.0
22064,50.0,6.0,15.0,9.0,0.0
22065,50.0,10.0,15.0,9.0,0.0
22066,78.0,2.0,15.0,11.0,0.0
22067,78.0,0.0,15.0,0.0,0.0
22068,34.0,6.0,15.0,9.0,0.0
22069,50.0,6.0,15.0,9.0,0.0
22070,80.0,0.0,15.0,0.0,0.0
22071,80.0,0.0,15.0,11.0,0.0
22072,50.0,0.0,15.0,9.0,0.0
22073,78.0,0.0,30.0,0.0,0.0
22074,70.0,0.0,30.0,13.0,0.0
22075,66.0,0.0,30.0,5.0,0.0
22076,70.0,0.0,30.0,5.0,0.0
22077,82.0,0.0,30.0,1.0,0.0
22078,34.0,0.0,30.0,9.0,0.0
22079,78.0,0.0,30.0,12.0,0.0
22080,78.0,0.0,30.0,1.0,0.0
22081,82.0,0.0,30.0,11.0,0.0
22082,70.0,0.0,30.0,2.0,0.0
22083,50.0,2.0,90.0,9.0,0.0
22084,82.0,48.0,30.0,0.0,0.0
22085,42.0,32.0,180.0,8.0,0.0
22086,42.0,0.0,30.0,14.0,0.0
22087,54.0,0.0,30.0,4.0,0.0
22088,30.0,32.0,60.0,3.0,0.0
22089,42.0,14.0,30.0,3.0,0.0
22090,30.0,0.0,60.0,15.0,0.0
22091,49.0,0.0,30.0,2.0,0.0
22092,54.0,0.0,30.0,14.0,0.0
22093,42.0,48.0,30.0,7.0,0.0
22094,49.0,0.0,30.0,3.0,0.0
22095,54.0,0.0,30.0,3.0,0.0
22096,54.0,0.0,30.0,6.0,0.0
22097,58.0,0.0,30.0,6.0,0.0
22098,42.0,0.0,30.0,6.0,0.0
22099,61.0,0.0,30.0,4.0,0.0
22100,66.0,0.0,30.0,4.0,0.0
22101,70.0,0.0,30.0,2.0,0.0
22102,82.0,16.0,30.0,0.0,0.0
22103,78.0,0.0,30.0,0.0,0.0
22104,78.0,0.0,30.0,1.0,0.0
22105,70.0,0.0,30.0,5.0,0.0
22106,66.0,0.0,30.0,5.0,0.0
22107,82.0,0.0,30.0,11.0,0.0
22108,70.0,0.0,30.0,13.0,0.0
22109,78.0,0.0,30.0,12.0,0.0
22110,82.0,0.0,30.0,1.0,0.0
22111,77.0,0.0,30.0,0.0,0.0
22112,80.0,0.0,30.0,0.0,0.0
22113,71.0,0.0,30.0,2.0,0.0
22114,77.0,0.0,30.0,12.0,0.0
22115,77.0,0.0,30.0,1.0,0.0
22116,80.0,48.0,30.0,11.0,0.0
22117,68.0,0.0,30.0,5.0,0.0
22118,65.0,0.0,30.0,5.0,0.0
22119,68.0,0.0,30.0,13.0,0.0
22120,68.0,0.0,30.0,2.0,0.0
22121,80.0,0.0,30.0,1.0,0.0
22122,32.0,32.0,60.0,3.0,0.0
22123,44.0,0.0,30.0,3.0,0.0
22124,44.0,16.0,30.0,14.0,0.0
22125,32.0,0.0,60.0,15.0,0.0
22126,56.0,0.0,30.0,4.0,0.0
22127,44.0,0.0,30.0,7.0,0.0
22128,47.0,0.0,30.0,2.0,0.0
22129,47.0,0.0,30.0,6.0,0.0
22130,53.0,0.0,30.0,6.0,0.0
22131,53.0,0.0,30.0,3.0,0.0
22132,47.0,0.0,30.0,3.0,0.0
22133,44.0,48.0,30.0,6.0,0.0
22134,65.0,0.0,30.0,4.0,0.0
22135,59.0,0.0,30.0,4.0,0.0
22136,53.0,0.0,30.0,14.0,0.0
22137,65.0,0.0,30.0,5.0,0.0
22138,77.0,0.0,30.0,12.0,0.0
22139,80.0,0.0,30.0,0.0,0.0
22140,68.0,0.0,30.0,5.0,0.0
22141,68.0,0.0,30.0,13.0,0.0
22142,80.0,64.0,30.0,11.0,0.0
22143,77.0,0.0,30.0,0.0,0.0
22144,71.0,0.0,30.0,2.0,0.0
22145,80.0,0.0,30.0,1.0,0.0
22146,77.0,0.0,30.0,1.0,0.0
22147,68.0,0.0,30.0,2.0,0.0
22148,78.0,32.0,150.0,11.0,0.0
22149,66.0,0.0,150.0,13.0,0.0
22150,61.0,0.0,60.0,5.0,0.0
22151,78.0,0.0,150.0,1.0,0.0
22152,73.0,0.0,150.0,1.0,0.0
22153,78.0,0.0,150.0,0.0,0.0
22154,66.0,0.0,60.0,5.0,0.0
22155,58.0,16.0,30.0,4.0,0.0
22156,46.0,0.0,30.0,3.0,0.0
22157,30.0,0.0,60.0,15.0,0.0
22158,42.0,0.0,30.0,14.0,0.0
22159,30.0,32.0,60.0,3.0,0.0
22160,49.0,0.0,30.0,3.0,0.0
22161,54.0,0.0,30.0,3.0,0.0
22162,54.0,0.0,30.0,14.0,0.0
22163,46.0,0.0,30.0,7.0,0.0
22164,54.0,0.0,30.0,6.0,0.0
22165,49.0,0.0,30.0,6.0,0.0
22166,66.0,0.0,30.0,4.0,0.0
22167,61.0,0.0,30.0,4.0,0.0
22168,49.0,16.0,30.0,2.0,0.0
22169,46.0,0.0,30.0,6.0,0.0
22170,73.0,0.0,15.0,2.0,0.0
22171,66.0,0.0,15.0,2.0,0.0
22172,66.0,48.0,30.0,13.0,0.0
22173,73.0,0.0,15.0,12.0,0.0
22174,78.0,0.0,30.0,11.0,0.0
22175,73.0,0.0,30.0,1.0,0.0
22176,78.0,0.0,30.0,1.0,0.0
22177,78.0,0.0,30.0,0.0,0.0
22178,61.0,0.0,30.0,5.0,0.0
22179,66.0,0.0,30.0,5.0,0.0
22180,63.0,0.0,30.0,13.0,0.0
22181,75.0,0.0,30.0,0.0,0.0
22182,71.0,0.0,30.0,12.0,0.0
22183,71.0,0.0,30.0,0.0,0.0
22184,71.0,0.0,30.0,2.0,0.0
22185,59.0,0.0,30.0,5.0,0.0
22186,71.0,0.0,30.0,1.0,0.0
22187,75.0,0.0,30.0,11.0,0.0
22188,75.0,0.0,30.0,1.0,0.0
22189,63.0,0.0,30.0,2.0,0.0
22190,63.0,0.0,30.0,5.0,0.0
22191,47.0,0.0,30.0,3.0,0.0
22192,35.0,32.0,60.0,15.0,0.0
22193,35.0,0.0,60.0,3.0,0.0
22194,47.0,0.0,30.0,14.0,0.0
22195,59.0,16.0,30.0,4.0,0.0
22196,47.0,0.0,30.0,7.0,0.0
22197,66.0,0.0,30.0,4.0,0.0
22198,63.0,0.0,30.0,4.0,0.0
22199,47.0,0.0,30.0,6.0,0.0
22200,54.0,0.0,30.0,14.0,0.0
22201,51.0,0.0,30.0,3.0,0.0
22202,54.0,0.0,30.0,6.0,0.0
22203,54.0,0.0,30.0,3.0,0.0
22204,51.0,0.0,30.0,6.0,0.0
22205,51.0,48.0,30.0,2.0,0.0
22206,63.0,0.0,30.0,13.0,0.0
22207,75.0,0.0,30.0,11.0,0.0
22208,59.0,0.0,30.0,5.0,0.0
22209,71.0,0.0,30.0,0.0,0.0
22210,75.0,0.0,30.0,0.0,0.0
22211,71.0,0.0,30.0,12.0,0.0
22212,71.0,0.0,30.0,1.0,0.0
22213,75.0,48.0,30.0,1.0,0.0
22214,71.0,0.0,30.0,2.0,0.0
22215,63.0,0.0,30.0,5.0,0.0
22216,63.0,0.0,30.0,2.0,0.0
22217,73.0,0.0,30.0,11.0,0.0
22218,73.0,0.0,30.0,2.0,0.0
22219,61.0,0.0,30.0,2.0,0.0
22220,54.0,0.0,30.0,5.0,0.0
22221,61.0,0.0,30.0,13.0,0.0
22222,73.0,0.0,30.0,0.0,0.0
22223,73.0,0.0,30.0,1.0,0.0
22224,61.0,0.0,30.0,5.0,0.0
22225,66.0,0.0,30.0,12.0,0.0
22226,61.0,0.0,30.0,1.0,0.0
22227,34.0,32.0,60.0,3.0,0.0
22228,34.0,0.0,60.0,15.0,0.0
22229,46.0,0.0,30.0,3.0,0.0
22230,46.0,0.0,30.0,14.0,0.0
22231,58.0,16.0,30.0,4.0,0.0
22232,54.0,0.0,30.0,3.0,0.0
22233,66.0,0.0,30.0,4.0,0.0
22234,46.0,0.0,30.0,7.0,0.0
22235,61.0,0.0,30.0,4.0,0.0
22236,54.0,0.0,30.0,14.0,0.0
22237,49.0,0.0,30.0,6.0,0.0
22238,49.0,0.0,30.0,2.0,0.0
22239,54.0,0.0,30.0,6.0,0.0
22240,46.0,48.0,30.0,6.0,0.0
22241,49.0,0.0,30.0,3.0,0.0
22242,61.0,0.0,30.0,13.0,0.0
22243,73.0,0.0,30.0,1.0,0.0
22244,61.0,0.0,30.0,1.0,0.0
22245,73.0,0.0,30.0,11.0,0.0
22246,54.0,0.0,30.0,5.0,0.0
22247,61.0,0.0,30.0,5.0,0.0
22248,66.0,0.0,30.0,12.0,0.0
22249,73.0,0.0,30.0,0.0,0.0
22250,61.0,0.0,30.0,2.0,0.0
22251,73.0,0.0,30.0,2.0,0.0
22252,58.0,0.0,30.0,5.0,0.0
22253,70.0,48.0,30.0,1.0,0.0
22254,78.0,0.0,30.0,0.0,0.0
22255,66.0,0.0,30.0,1.0,0.0
22256,66.0,0.0,30.0,13.0,0.0
22257,66.0,0.0,30.0,2.0,0.0
22258,70.0,0.0,30.0,2.0,0.0
22259,66.0,0.0,30.0,5.0,0.0
22260,78.0,0.0,30.0,11.0,0.0
22261,70.0,0.0,30.0,12.0,0.0
22262,54.0,0.0,30.0,4.0,0.0
22263,30.0,32.0,60.0,15.0,0.0
22264,30.0,0.0,60.0,3.0,0.0
22265,42.0,16.0,30.0,3.0,0.0
22266,42.0,0.0,30.0,14.0,0.0
22267,54.0,0.0,30.0,14.0,0.0
22268,54.0,0.0,30.0,6.0,0.0
22269,49.0,0.0,30.0,2.0,0.0
22270,58.0,0.0,30.0,6.0,0.0
22271,42.0,0.0,30.0,7.0,0.0
22272,49.0,0.0,30.0,3.0,0.0
22273,42.0,0.0,30.0,6.0,0.0
22274,54.0,48.0,30.0,3.0,0.0
22275,61.0,0.0,30.0,4.0,0.0
22276,66.0,0.0,30.0,4.0,0.0
22277,78.0,0.0,30.0,0.0,0.0
22278,70.0,0.0,30.0,2.0,0.0
22279,70.0,0.0,30.0,1.0,0.0
22280,66.0,0.0,30.0,1.0,0.0
22281,78.0,0.0,30.0,11.0,0.0
22282,58.0,0.0,30.0,5.0,0.0
22283,66.0,0.0,30.0,5.0,0.0
22284,70.0,64.0,30.0,12.0,0.0
22285,66.0,0.0,30.0,13.0,0.0
22286,66.0,0.0,30.0,2.0,0.0
22287,65.0,0.0,60.0,5.0,0.0
22288,77.0,0.0,150.0,12.0,0.0
22289,80.0,0.0,150.0,0.0,0.0
22290,77.0,0.0,150.0,0.0,0.0
22291,73.0,0.0,150.0,13.0,0.0
22292,68.0,0.0,150.0,13.0,0.0
22293,68.0,0.0,60.0,5.0,0.0
22294,25.0,0.0,60.0,3.0,0.0
22295,61.0,16.0,30.0,4.0,0.0
22296,37.0,0.0,30.0,3.0,0.0
22297,37.0,0.0,30.0,14.0,0.0
22298,25.0,32.0,60.0,15.0,0.0
22299,53.0,0.0,30.0,14.0,0.0
22300,53.0,0.0,30.0,6.0,0.0
22301,37.0,0.0,30.0,7.0,0.0
22302,37.0,0.0,30.0,6.0,0.0
22303,61.0,0.0,30.0,4.0,0.0
22304,65.0,0.0,30.0,4.0,0.0
22305,49.0,16.0,30.0,2.0,0.0
22306,49.0,0.0,30.0,3.0,0.0
22307,53.0,0.0,30.0,3.0,0.0
22308,56.0,0.0,30.0,6.0,0.0
22309,68.0,0.0,30.0,5.0,0.0
22310,80.0,0.0,15.0,11.0,0.0
22311,65.0,0.0,30.0,5.0,0.0
22312,77.0,0.0,30.0,12.0,0.0
22313,68.0,32.0,15.0,1.0,0.0
22314,73.0,0.0,15.0,1.0,0.0
22315,68.0,0.0,30.0,13.0,0.0
22316,73.0,0.0,15.0,2.0,0.0
22317,68.0,0.0,15.0,2.0,0.0
22318,77.0,0.0,30.0,0.0,0.0
22319,80.0,0.0,30.0,0.0,0.0
22320,73.0,0.0,30.0,13.0,0.0
22321,73.0,0.0,30.0,5.0,0.0
22322,65.0,0.0,30.0,5.0,0.0
22323,85.0,0.0,30.0,0.0,0.0
22324,77.0,0.0,30.0,12.0,0.0
22325,61.0,0.0,30.0,5.0,0.0
22326,73.0,48.0,30.0,13.0,0.0
22327,85.0,0.0,30.0,11.0,0.0
22328,45.0,0.0,150.0,9.0,0.0
22329,37.0,10.0,60.0,15.0,0.0
22330,49.0,16.0,30.0,14.0,0.0
22331,56.0,0.0,30.0,14.0,0.0
22332,34.0,6.0,15.0,9.0,0.0
22333,53.0,2.0,30.0,2.0,0.0
22334,73.0,8.0,20.0,0.0,0.0
22335,50.0,6.0,15.0,9.0,0.0
22336,50.0,2.0,15.0,9.0,0.0
22337,34.0,6.0,15.0,9.0,0.0
22338,50.0,6.0,15.0,9.0,0.0
22339,75.0,0.0,20.0,0.0,0.0
22340,73.0,0.0,15.0,11.0,0.0
22341,50.0,2.0,15.0,9.0,0.0
22342,77.0,8.0,20.0,0.0,0.0
22343,34.0,6.0,15.0,9.0,0.0
22344,75.0,0.0,15.0,11.0,0.0
22345,37.0,10.0,15.0,8.0,0.0
22346,50.0,6.0,15.0,9.0,0.0
22347,50.0,2.0,15.0,9.0,0.0
22348,77.0,2.0,15.0,11.0,0.0
22349,34.0,0.0,15.0,9.0,0.0
22350,50.0,6.0,15.0,9.0,0.0
22351,78.0,2.0,15.0,0.0,0.0
22352,78.0,4.0,15.0,11.0,0.0
22353,50.0,2.0,15.0,9.0,0.0
22354,68.0,0.0,30.0,2.0,0.0
22355,80.0,0.0,30.0,0.0,0.0
22356,68.0,0.0,30.0,5.0,0.0
22357,42.0,32.0,180.0,8.0,0.0
22358,34.0,0.0,30.0,9.0,0.0
22359,68.0,0.0,30.0,13.0,0.0
22360,61.0,0.0,30.0,5.0,0.0
22361,73.0,0.0,30.0,2.0,0.0
22362,50.0,2.0,90.0,9.0,0.0
22363,80.0,0.0,30.0,1.0,0.0
22364,73.0,0.0,30.0,12.0,0.0
22365,80.0,0.0,30.0,11.0,0.0
22366,73.0,0.0,30.0,1.0,0.0
22367,25.0,0.0,60.0,3.0,0.0
22368,25.0,32.0,60.0,15.0,0.0
22369,37.0,0.0,30.0,3.0,0.0
22370,37.0,14.0,30.0,14.0,0.0
22371,61.0,0.0,30.0,4.0,0.0
22372,49.0,0.0,30.0,3.0,0.0
22373,49.0,0.0,30.0,14.0,0.0
22374,53.0,0.0,30.0,3.0,0.0
22375,61.0,48.0,30.0,4.0,0.0
22376,49.0,0.0,30.0,6.0,0.0
22377,65.0,0.0,30.0,4.0,0.0
22378,53.0,0.0,30.0,6.0,0.0
22379,37.0,0.0,30.0,6.0,0.0
22380,37.0,0.0,30.0,7.0,0.0
22381,49.0,0.0,30.0,2.0,0.0
22382,73.0,0.0,30.0,2.0,0.0
22383,68.0,0.0,30.0,5.0,0.0
22384,73.0,0.0,30.0,12.0,0.0
22385,68.0,0.0,30.0,2.0,0.0
22386,68.0,16.0,30.0,13.0,0.0
22387,80.0,0.0,30.0,11.0,0.0
22388,73.0,0.0,30.0,1.0,0.0
22389,80.0,0.0,30.0,0.0,0.0
22390,80.0,0.0,30.0,1.0,0.0
22391,61.0,0.0,30.0,5.0,0.0
22392,73.0,0.0,30.0,12.0,0.0
22393,82.0,0.0,30.0,11.0,0.0
22394,70.0,48.0,30.0,13.0,0.0
22395,73.0,0.0,30.0,1.0,0.0
22396,70.0,0.0,30.0,5.0,0.0
22397,82.0,0.0,30.0,1.0,0.0
22398,82.0,0.0,30.0,0.0,0.0
22399,70.0,0.0,30.0,2.0,0.0
22400,73.0,0.0,30.0,2.0,0.0
22401,61.0,0.0,30.0,5.0,0.0
22402,42.0,0.0,30.0,14.0,0.0
22403,42.0,0.0,30.0,3.0,0.0
22404,30.0,32.0,60.0,15.0,0.0
22405,54.0,16.0,30.0,4.0,0.0
22406,30.0,0.0,60.0,3.0,0.0
22407,49.0,0.0,30.0,3.0,0.0
22408,49.0,0.0,30.0,2.0,0.0
22409,49.0,0.0,30.0,6.0,0.0
22410,54.0,0.0,30.0,6.0,0.0
22411,49.0,0.0,30.0,14.0,0.0
22412,42.0,0.0,30.0,7.0,0.0
22413,42.0,48.0,30.0,6.0,0.0
22414,54.0,0.0,30.0,3.0,0.0
22415,61.0,0.0,30.0,4.0,0.0
22416,66.0,0.0,30.0,4.0,0.0
22417,78.0,0.0,30.0,11.0,0.0
22418,66.0,0.0,30.0,13.0,0.0
22419,78.0,0.0,30.0,0.0,0.0
22420,61.0,0.0,30.0,5.0,0.0
22421,78.0,0.0,30.0,1.0,0.0
22422,73.0,0.0,30.0,1.0,0.0
22423,66.0,0.0,30.0,5.0,0.0
22424,73.0,0.0,30.0,12.0,0.0
22425,66.0,0.0,30.0,2.0,0.0
22426,73.0,0.0,30.0,2.0,0.0
22427,65.0,0.0,150.0,13.0,0.0
22428,73.0,32.0,90.0,12.0,0.0
22429,73.0,0.0,150.0,1.0,0.0
22430,77.0,0.0,150.0,0.0,0.0
22431,61.0,0.0,60.0,5.0,0.0
22432,77.0,0.0,150.0,1.0,0.0
22433,73.0,0.0,150.0,2.0,0.0
22434,65.0,0.0,60.0,5.0,0.0
22435,77.0,32.0,150.0,11.0,0.0
22436,65.0,0.0,150.0,2.0,0.0
22437,49.0,0.0,30.0,14.0,0.0
22438,37.0,0.0,60.0,15.0,0.0
22439,61.0,0.0,30.0,4.0,0.0
22440,37.0,0.0,60.0,3.0,0.0
22441,49.0,16.0,30.0,3.0,0.0
22442,53.0,0.0,30.0,6.0,0.0
22443,56.0,0.0,30.0,6.0,0.0
22444,53.0,0.0,30.0,14.0,0.0
22445,37.0,0.0,30.0,7.0,0.0
22446,65.0,0.0,30.0,4.0,0.0
22447,37.0,0.0,30.0,6.0,0.0
22448,68.0,0.0,30.0,4.0,0.0
22449,53.0,0.0,30.0,3.0,0.0
22450,53.0,16.0,30.0,2.0,0.0
22451,56.0,0.0,30.0,3.0,0.0
22452,75.0,0.0,30.0,1.0,0.0
22453,63.0,0.0,30.0,5.0,0.0
22454,75.0,0.0,30.0,0.0,0.0
22455,75.0,48.0,30.0,11.0,0.0
22456,63.0,0.0,30.0,2.0,0.0
22457,63.0,0.0,30.0,13.0,0.0
22458,75.0,0.0,30.0,2.0,0.0
22459,61.0,0.0,30.0,5.0,0.0
22460,73.0,0.0,30.0,1.0,0.0
22461,73.0,0.0,30.0,11.0,0.0
22462,61.0,0.0,30.0,2.0,0.0
22463,73.0,48.0,30.0,2.0,0.0
22464,73.0,0.0,30.0,0.0,0.0
22465,61.0,0.0,30.0,13.0,0.0
22466,34.0,32.0,60.0,3.0,0.0
22467,34.0,0.0,60.0,15.0,0.0
22468,46.0,0.0,30.0,14.0,0.0
22469,46.0,16.0,30.0,3.0,0.0
22470,58.0,0.0,30.0,4.0,0.0
22471,49.0,0.0,30.0,2.0,0.0
22472,54.0,48.0,30.0,6.0,0.0
22473,49.0,0.0,30.0,6.0,0.0
22474,46.0,0.0,30.0,6.0,0.0
22475,66.0,0.0,30.0,4.0,0.0
22476,54.0,0.0,30.0,3.0,0.0
22477,49.0,0.0,30.0,3.0,0.0
22478,46.0,0.0,30.0,7.0,0.0
22479,61.0,0.0,30.0,4.0,0.0
22480,49.0,0.0,30.0,14.0,0.0
22481,85.0,0.0,30.0,11.0,0.0
22482,85.0,0.0,30.0,0.0,0.0
22483,73.0,48.0,30.0,13.0,0.0
22484,75.0,0.0,30.0,11.0,0.0
22485,63.0,48.0,30.0,2.0,0.0
22486,75.0,0.0,30.0,1.0,0.0
22487,75.0,0.0,30.0,0.0,0.0
22488,63.0,0.0,30.0,1.0,0.0
22489,63.0,0.0,30.0,13.0,0.0
22490,35.0,32.0,60.0,15.0,0.0
22491,47.0,0.0,30.0,3.0,0.0
22492,47.0,0.0,30.0,14.0,0.0
22493,35.0,0.0,60.0,3.0,0.0
22494,59.0,16.0,30.0,4.0,0.0
22495,51.0,0.0,30.0,14.0,0.0
22496,51.0,0.0,30.0,6.0,0.0
22497,56.0,0.0,30.0,6.0,0.0
22498,51.0,48.0,30.0,2.0,0.0
22499,56.0,0.0,30.0,3.0,0.0
22500,47.0,0.0,30.0,7.0,0.0
22501,63.0,0.0,30.0,4.0,0.0
22502,68.0,0.0,30.0,4.0,0.0
22503,51.0,0.0,30.0,3.0,0.0
22504,47.0,0.0,30.0,6.0,0.0
22505,75.0,0.0,30.0,13.0,0.0
22506,87.0,0.0,30.0,0.0,0.0
22507,87.0,48.0,30.0,11.0,0.0
22508,77.0,0.0,30.0,0.0,0.0
22509,65.0,0.0,30.0,13.0,0.0
22510,65.0,0.0,30.0,2.0,0.0
22511,65.0,0.0,30.0,1.0,0.0
22512,77.0,0.0,30.0,11.0,0.0
22513,77.0,48.0,30.0,1.0,0.0
22514,37.0,0.0,60.0,15.0,0.0
22515,37.0,32.0,60.0,3.0,0.0
22516,49.0,0.0,30.0,14.0,0.0
22517,61.0,16.0,30.0,4.0,0.0
22518,49.0,0.0,30.0,3.0,0.0
22519,53.0,0.0,30.0,2.0,0.0
22520,70.0,0.0,30.0,4.0,0.0
22521,65.0,0.0,30.0,4.0,0.0
22522,49.0,0.0,30.0,7.0,0.0
22523,58.0,0.0,30.0,6.0,0.0
22524,53.0,0.0,30.0,3.0,0.0
22525,53.0,48.0,30.0,14.0,0.0
22526,58.0,0.0,30.0,3.0,0.0
22527,49.0,0.0,30.0,6.0,0.0
22528,53.0,0.0,30.0,6.0,0.0
22529,77.0,0.0,30.0,13.0,0.0
22530,89.0,48.0,30.0,11.0,0.0
22531,89.0,0.0,30.0,0.0,0.0
22532,66.0,0.0,30.0,13.0,0.0
22533,66.0,0.0,30.0,1.0,0.0
22534,66.0,0.0,30.0,2.0,0.0
22535,78.0,48.0,30.0,1.0,0.0
22536,78.0,0.0,30.0,0.0,0.0
22537,78.0,0.0,30.0,11.0,0.0
22538,39.0,32.0,60.0,3.0,0.0
22539,51.0,0.0,30.0,14.0,0.0
22540,63.0,0.0,30.0,4.0,0.0
22541,51.0,16.0,30.0,3.0,0.0
22542,39.0,0.0,60.0,15.0,0.0
22543,51.0,0.0,30.0,6.0,0.0
22544,71.0,0.0,30.0,4.0,0.0
22545,54.0,0.0,30.0,14.0,0.0
22546,66.0,0.0,30.0,4.0,0.0
22547,54.0,0.0,30.0,6.0,0.0
22548,54.0,0.0,30.0,3.0,0.0
22549,59.0,48.0,30.0,3.0,0.0
22550,54.0,0.0,30.0,2.0,0.0
22551,59.0,0.0,30.0,6.0,0.0
22552,51.0,0.0,30.0,7.0,0.0
22553,90.0,0.0,30.0,11.0,0.0
22554,78.0,48.0,30.0,13.0,0.0
22555,90.0,0.0,30.0,0.0,0.0
22556,68.0,0.0,30.0,13.0,0.0
22557,80.0,0.0,30.0,11.0,0.0
22558,80.0,0.0,30.0,0.0,0.0
22559,80.0,48.0,30.0,1.0,0.0
22560,68.0,0.0,30.0,1.0,0.0
22561,68.0,0.0,30.0,2.0,0.0
22562,53.0,16.0,30.0,3.0,0.0
22563,65.0,0.0,30.0,4.0,0.0
22564,41.0,32.0,60.0,15.0,0.0
22565,41.0,0.0,60.0,3.0,0.0
22566,53.0,0.0,30.0,14.0,0.0
22567,56.0,0.0,30.0,3.0,0.0
22568,53.0,0.0,30.0,6.0,0.0
22569,53.0,0.0,30.0,7.0,0.0
22570,61.0,0.0,30.0,6.0,0.0
22571,61.0,0.0,30.0,3.0,0.0
22572,68.0,0.0,30.0,4.0,0.0
22573,73.0,0.0,30.0,4.0,0.0
22574,56.0,0.0,30.0,6.0,0.0
22575,56.0,0.0,30.0,2.0,0.0
22576,56.0,48.0,30.0,14.0,0.0
22577,92.0,0.0,30.0,11.0,0.0
22578,80.0,48.0,30.0,13.0,0.0
22579,92.0,0.0,30.0,0.0,0.0
22580,78.0,48.0,30.0,12.0,0.0
22581,66.0,0.0,30.0,5.0,0.0
22582,82.0,0.0,30.0,0.0,0.0
22583,82.0,0.0,30.0,11.0,0.0
22584,78.0,0.0,30.0,1.0,0.0
22585,78.0,0.0,30.0,0.0,0.0
22586,82.0,0.0,30.0,1.0,0.0
22587,70.0,0.0,30.0,5.0,0.0
22588,70.0,0.0,30.0,2.0,0.0
22589,70.0,0.0,30.0,13.0,0.0
22590,66.0,16.0,30.0,4.0,0.0
22591,42.0,32.0,60.0,3.0,0.0
22592,42.0,0.0,60.0,15.0,0.0
22593,54.0,0.0,30.0,14.0,0.0
22594,54.0,0.0,30.0,3.0,0.0
22595,58.0,0.0,30.0,3.0,0.0
22596,58.0,0.0,30.0,2.0,0.0
22597,58.0,0.0,30.0,6.0,0.0
22598,61.0,0.0,30.0,3.0,0.0
22599,58.0,0.0,30.0,14.0,0.0
22600,61.0,0.0,30.0,6.0,0.0
22601,70.0,0.0,30.0,4.0,0.0
22602,73.0,0.0,30.0,4.0,0.0
22603,54.0,48.0,30.0,6.0,0.0
22604,54.0,0.0,30.0,7.0,0.0
22605,78.0,0.0,30.0,0.0,0.0
22606,82.0,0.0,30.0,0.0,0.0
22607,78.0,0.0,30.0,1.0,0.0
22608,82.0,0.0,30.0,1.0,0.0
22609,70.0,0.0,30.0,2.0,0.0
22610,82.0,0.0,30.0,11.0,0.0
22611,70.0,0.0,30.0,13.0,0.0
22612,78.0,48.0,30.0,12.0,0.0
22613,66.0,0.0,30.0,5.0,0.0
22614,70.0,0.0,30.0,5.0,0.0
22615,80.0,0.0,30.0,0.0,0.0
22616,68.0,0.0,30.0,2.0,0.0
22617,80.0,0.0,30.0,11.0,0.0
22618,80.0,0.0,30.0,1.0,0.0
22619,77.0,0.0,30.0,1.0,0.0
22620,77.0,0.0,30.0,12.0,0.0
22621,71.0,0.0,30.0,2.0,0.0
22622,68.0,0.0,30.0,13.0,0.0
22623,65.0,48.0,30.0,5.0,0.0
22624,77.0,0.0,30.0,0.0,0.0
22625,71.0,0.0,30.0,13.0,0.0
22626,68.0,0.0,30.0,5.0,0.0
22627,56.0,0.0,30.0,14.0,0.0
22628,68.0,0.0,30.0,4.0,0.0
22629,44.0,32.0,60.0,3.0,0.0
22630,44.0,0.0,60.0,15.0,0.0
22631,56.0,16.0,30.0,3.0,0.0
22632,65.0,48.0,30.0,6.0,0.0
22633,59.0,0.0,30.0,2.0,0.0
22634,59.0,0.0,30.0,14.0,0.0
22635,56.0,0.0,30.0,6.0,0.0
22636,65.0,0.0,30.0,3.0,0.0
22637,59.0,0.0,30.0,6.0,0.0
22638,59.0,0.0,30.0,3.0,0.0
22639,56.0,0.0,30.0,7.0,0.0
22640,77.0,0.0,30.0,4.0,0.0
22641,71.0,0.0,30.0,4.0,0.0
22642,77.0,0.0,30.0,12.0,0.0
22643,80.0,64.0,30.0,0.0,0.0
22644,71.0,0.0,30.0,13.0,0.0
22645,77.0,0.0,30.0,1.0,0.0
22646,77.0,0.0,30.0,0.0,0.0
22647,68.0,0.0,30.0,2.0,0.0
22648,80.0,0.0,30.0,1.0,0.0
22649,80.0,0.0,30.0,11.0,0.0
22650,68.0,0.0,30.0,5.0,0.0
22651,65.0,0.0,30.0,5.0,0.0
22652,68.0,0.0,30.0,13.0,0.0
22653,71.0,0.0,30.0,2.0,0.0
22654,66.0,0.0,150.0,13.0,0.0
22655,66.0,0.0,60.0,5.0,0.0
22656,61.0,32.0,60.0,5.0,0.0
22657,66.0,0.0,150.0,2.0,0.0
22658,46.0,32.0,60.0,3.0,0.0
22659,58.0,0.0,30.0,14.0,0.0
22660,58.0,16.0,30.0,3.0,0.0
22661,70.0,0.0,30.0,4.0,0.0
22662,46.0,0.0,60.0,15.0,0.0
22663,61.0,0.0,30.0,3.0,0.0
22664,61.0,0.0,30.0,6.0,0.0
22665,66.0,0.0,30.0,6.0,0.0
22666,58.0,16.0,30.0,7.0,0.0
22667,73.0,0.0,30.0,4.0,0.0
22668,78.0,0.0,30.0,4.0,0.0
22669,61.0,0.0,30.0,14.0,0.0
22670,66.0,0.0,30.0,3.0,0.0
22671,58.0,0.0,30.0,6.0,0.0
22672,61.0,0.0,30.0,2.0,0.0
22673,73.0,0.0,15.0,12.0,0.0
22674,73.0,0.0,15.0,2.0,0.0
22675,78.0,0.0,15.0,0.0,0.0
22676,61.0,0.0,30.0,5.0,0.0
22677,66.0,0.0,30.0,5.0,0.0
22678,66.0,0.0,30.0,2.0,0.0
22679,66.0,0.0,30.0,13.0,0.0
22680,78.0,0.0,15.0,11.0,0.0
22681,78.0,32.0,15.0,1.0,0.0
22682,66.0,0.0,30.0,12.0,0.0
22683,66.0,0.0,30.0,1.0,0.0
22684,70.0,0.0,30.0,2.0,0.0
22685,66.0,0.0,30.0,0.0,0.0
22686,58.0,0.0,30.0,2.0,0.0
22687,70.0,0.0,30.0,1.0,0.0
22688,70.0,48.0,30.0,11.0,0.0
22689,58.0,0.0,30.0,5.0,0.0
22690,70.0,0.0,30.0,0.0,0.0
22691,58.0,0.0,30.0,13.0,0.0
22692,54.0,0.0,30.0,5.0,0.0
22693,63.0,0.0,30.0,4.0,0.0
22694,51.0,16.0,30.0,3.0,0.0
22695,39.0,0.0,60.0,3.0,0.0
22696,51.0,0.0,30.0,14.0,0.0
22697,39.0,32.0,60.0,15.0,0.0
22698,66.0,48.0,30.0,4.0,0.0
22699,54.0,0.0,30.0,2.0,0.0
22700,54.0,0.0,30.0,14.0,0.0
22701,58.0,0.0,30.0,6.0,0.0
22702,54.0,0.0,30.0,6.0,0.0
22703,51.0,0.0,30.0,6.0,0.0
22704,54.0,0.0,30.0,3.0,0.0
22705,58.0,0.0,30.0,3.0,0.0
22706,51.0,0.0,30.0,7.0,0.0
22707,70.0,0.0,30.0,4.0,0.0
22708,66.0,48.0,30.0,1.0,0.0
22709,70.0,0.0,30.0,1.0,0.0
22710,70.0,0.0,30.0,2.0,0.0
22711,58.0,0.0,30.0,2.0,0.0
22712,66.0,0.0,30.0,0.0,0.0
22713,58.0,0.0,30.0,13.0,0.0
22714,66.0,0.0,30.0,12.0,0.0
22715,70.0,0.0,30.0,11.0,0.0
22716,54.0,0.0,30.0,5.0,0.0
22717,70.0,0.0,30.0,0.0,0.0
22718,58.0,0.0,30.0,5.0,0.0
22719,54.0,0.0,30.0,5.0,0.0
22720,75.0,0.0,30.0,11.0,0.0
22721,63.0,0.0,30.0,2.0,0.0
22722,63.0,0.0,30.0,13.0,0.0
22723,75.0,0.0,30.0,1.0,0.0
22724,66.0,0.0,30.0,1.0,0.0
22725,66.0,0.0,30.0,2.0,0.0
22726,75.0,48.0,30.0,0.0,0.0
22727,63.0,0.0,30.0,5.0,0.0
22728,66.0,0.0,30.0,12.0,0.0
22729,35.0,0.0,60.0,15.0,0.0
22730,47.0,0.0,30.0,3.0,0.0
22731,47.0,0.0,30.0,14.0,0.0
22732,35.0,32.0,60.0,3.0,0.0
22733,59.0,16.0,30.0,4.0,0.0
22734,51.0,48.0,30.0,2.0,0.0
22735,51.0,0.0,30.0,14.0,0.0
22736,63.0,0.0,30.0,4.0,0.0
22737,66.0,0.0,30.0,4.0,0.0
22738,54.0,0.0,30.0,14.0,0.0
22739,54.0,0.0,30.0,3.0,0.0
22740,47.0,0.0,30.0,7.0,0.0
22741,54.0,0.0,30.0,6.0,0.0
22742,59.0,0.0,30.0,6.0,0.0
22743,47.0,0.0,30.0,6.0,0.0
22744,51.0,0.0,30.0,3.0,0.0
22745,75.0,0.0,30.0,0.0,0.0
22746,66.0,0.0,30.0,12.0,0.0
22747,54.0,0.0,30.0,5.0,0.0
22748,63.0,0.0,30.0,13.0,0.0
22749,63.0,0.0,30.0,2.0,0.0
22750,63.0,0.0,30.0,5.0,0.0
22751,66.0,0.0,30.0,2.0,0.0
22752,66.0,0.0,30.0,1.0,0.0
22753,75.0,48.0,30.0,1.0,0.0
22754,75.0,0.0,30.0,11.0,0.0
22755,53.0,0.0,30.0,13.0,0.0
22756,65.0,0.0,30.0,11.0,0.0
22757,65.0,0.0,30.0,0.0,0.0
22758,53.0,0.0,30.0,5.0,0.0
22759,59.0,0.0,30.0,5.0,0.0
22760,59.0,0.0,30.0,2.0,0.0
22761,53.0,0.0,30.0,2.0,0.0
22762,65.0,0.0,30.0,1.0,0.0
22763,59.0,0.0,30.0,1.0,0.0
22764,59.0,0.0,30.0,12.0,0.0
22765,61.0,0.0,30.0,4.0,0.0
22766,37.0,0.0,60.0,15.0,0.0
22767,37.0,32.0,60.0,3.0,0.0
22768,49.0,16.0,30.0,3.0,0.0
22769,49.0,0.0,30.0,14.0,0.0
22770,56.0,0.0,30.0,14.0,0.0
22771,49.0,48.0,30.0,3.0,0.0
22772,56.0,0.0,30.0,3.0,0.0
22773,56.0,0.0,30.0,6.0,0.0
22774,49.0,0.0,30.0,2.0,0.0
22775,49.0,0.0,30.0,6.0,0.0
22776,49.0,0.0,30.0,7.0,0.0
22777,61.0,0.0,30.0,4.0,0.0
22778,68.0,0.0,30.0,4.0,0.0
22779,59.0,0.0,30.0,1.0,0.0
22780,65.0,0.0,30.0,1.0,0.0
22781,59.0,0.0,30.0,5.0,0.0
22782,53.0,0.0,30.0,5.0,0.0
22783,65.0,0.0,30.0,0.0,0.0
22784,59.0,0.0,30.0,12.0,0.0
22785,59.0,64.0,30.0,2.0,0.0
22786,65.0,0.0,30.0,11.0,0.0
22787,53.0,0.0,30.0,13.0,0.0
22788,53.0,0.0,30.0,2.0,0.0
22789,54.0,32.0,150.0,13.0,0.0
22790,66.0,0.0,150.0,0.0,0.0
22791,58.0,0.0,60.0,12.0,0.0
22792,58.0,0.0,150.0,2.0,0.0
22793,54.0,0.0,150.0,2.0,0.0
22794,58.0,32.0,60.0,5.0,0.0
22795,66.0,0.0,150.0,11.0,0.0
22796,54.0,0.0,60.0,5.0,0.0
22797,42.0,0.0,30.0,3.0,0.0
22798,30.0,32.0,60.0,15.0,0.0
22799,42.0,0.0,30.0,14.0,0.0
22800,30.0,0.0,60.0,3.0,0.0
22801,54.0,16.0,30.0,4.0,0.0
22802,49.0,0.0,30.0,6.0,0.0
22803,46.0,0.0,30.0,2.0,0.0
22804,49.0,0.0,30.0,14.0,0.0
22805,42.0,0.0,30.0,7.0,0.0
22806,46.0,0.0,30.0,6.0,0.0
22807,49.0,16.0,30.0,3.0,0.0
22808,58.0,0.0,30.0,4.0,0.0
22809,46.0,0.0,30.0,3.0,0.0
22810,61.0,0.0,30.0,4.0,0.0
22811,42.0,0.0,30.0,6.0,0.0
22812,66.0,0.0,15.0,1.0,0.0
22813,58.0,0.0,30.0,12.0,0.0
22814,58.0,0.0,15.0,1.0,0.0
22815,66.0,0.0,30.0,11.0,0.0
22816,54.0,0.0,30.0,2.0,0.0
22817,58.0,0.0,30.0,2.0,0.0
22818,66.0,0.0,30.0,0.0,0.0
22819,58.0,0.0,30.0,5.0,0.0
22820,54.0,0.0,30.0,5.0,0.0
22821,54.0,0.0,30.0,13.0,0.0
22822,66.0,48.0,30.0,2.0,0.0
22823,78.0,0.0,30.0,11.0,0.0
22824,58.0,0.0,30.0,5.0,0.0
22825,78.0,0.0,30.0,0.0,0.0
22826,66.0,0.0,30.0,5.0,0.0
22827,70.0,0.0,30.0,12.0,0.0
22828,37.0,10.0,150.0,8.0,0.0
22829,70.0,0.0,30.0,2.0,0.0
22830,66.0,0.0,30.0,13.0,0.0
22831,70.0,0.0,30.0,1.0,0.0
22832,78.0,0.0,30.0,1.0,0.0
22833,54.0,0.0,30.0,5.0,0.0
22834,30.0,0.0,60.0,3.0,0.0
22835,45.0,0.0,150.0,9.0,0.0
22836,30.0,10.0,60.0,15.0,0.0
22837,54.0,0.0,30.0,4.0,0.0
22838,42.0,16.0,30.0,14.0,0.0
22839,49.0,0.0,30.0,2.0,0.0
22840,61.0,0.0,30.0,4.0,0.0
22841,34.0,6.0,15.0,9.0,0.0
22842,42.0,2.0,30.0,7.0,0.0
22843,49.0,0.0,30.0,14.0,0.0
22844,54.0,0.0,30.0,6.0,0.0
22845,42.0,0.0,30.0,6.0,0.0
22846,58.0,0.0,30.0,6.0,0.0
22847,50.0,6.0,15.0,9.0,0.0
22848,54.0,0.0,30.0,14.0,0.0
22849,50.0,10.0,15.0,9.0,0.0
22850,50.0,6.0,15.0,9.0,0.0
22851,34.0,6.0,15.0,9.0,0.0
22852,50.0,2.0,15.0,9.0,0.0
22853,34.0,6.0,15.0,9.0,0.0
22854,73.0,0.0,15.0,11.0,0.0
22855,50.0,2.0,15.0,9.0,0.0
22856,37.0,0.0,60.0,8.0,0.0
22857,73.0,4.0,15.0,0.0,0.0
22858,75.0,10.0,15.0,0.0,0.0
22859,50.0,2.0,15.0,9.0,0.0
22860,75.0,0.0,15.0,11.0,0.0
22861,77.0,0.0,15.0,11.0,0.0
22862,77.0,4.0,15.0,0.0,0.0
22863,50.0,2.0,15.0,9.0,0.0
22864,34.0,6.0,15.0,9.0,0.0
22865,50.0,2.0,15.0,9.0,0.0
22866,78.0,32.0,15.0,0.0,0.0
22867,78.0,0.0,15.0,11.0,0.0
22868,73.0,0.0,30.0,1.0,0.0
22869,80.0,0.0,30.0,1.0,0.0
22870,61.0,0.0,30.0,5.0,0.0
22871,73.0,0.0,30.0,2.0,0.0
22872,68.0,0.0,30.0,2.0,0.0
22873,42.0,32.0,180.0,8.0,0.0
22874,50.0,2.0,90.0,9.0,0.0
22875,34.0,48.0,30.0,9.0,0.0
22876,68.0,0.0,30.0,5.0,0.0
22877,73.0,0.0,30.0,12.0,0.0
22878,68.0,0.0,30.0,13.0,0.0
22879,80.0,0.0,30.0,0.0,0.0
22880,80.0,0.0,30.0,11.0,0.0
22881,61.0,0.0,30.0,4.0,0.0
22882,37.0,0.0,30.0,3.0,0.0
22883,37.0,14.0,30.0,14.0,0.0
22884,25.0,32.0,60.0,15.0,0.0
22885,25.0,0.0,60.0,3.0,0.0
22886,49.0,0.0,30.0,6.0,0.0
22887,53.0,0.0,30.0,3.0,0.0
22888,49.0,0.0,30.0,3.0,0.0
22889,37.0,48.0,30.0,7.0,0.0
22890,65.0,0.0,30.0,4.0,0.0
22891,53.0,0.0,30.0,6.0,0.0
22892,37.0,0.0,30.0,6.0,0.0
22893,61.0,0.0,30.0,4.0,0.0
22894,49.0,0.0,30.0,14.0,0.0
22895,49.0,0.0,30.0,2.0,0.0
22896,80.0,0.0,30.0,11.0,0.0
22897,68.0,0.0,30.0,13.0,0.0
22898,61.0,0.0,30.0,5.0,0.0
22899,73.0,0.0,30.0,2.0,0.0
22900,68.0,0.0,30.0,2.0,0.0
22901,68.0,0.0,30.0,5.0,0.0
22902,80.0,0.0,30.0,0.0,0.0
22903,73.0,0.0,30.0,12.0,0.0
22904,73.0,0.0,30.0,1.0,0.0
22905,80.0,16.0,30.0,1.0,0.0
22906,73.0,0.0,30.0,1.0,0.0
22907,82.0,0.0,30.0,11.0,0.0
22908,82.0,0.0,30.0,1.0,0.0
22909,73.0,0.0,30.0,2.0,0.0
22910,70.0,0.0,30.0,2.0,0.0
22911,73.0,0.0,30.0,12.0,0.0
22912,82.0,48.0,30.0,0.0,0.0
22913,70.0,0.0,30.0,5.0,0.0
22914,61.0,0.0,30.0,5.0,0.0
22915,70.0,0.0,30.0,13.0,0.0
22916,54.0,0.0,30.0,4.0,0.0
22917,30.0,0.0,60.0,3.0,0.0
22918,42.0,0.0,30.0,14.0,0.0
22919,30.0,32.0,60.0,15.0,0.0
22920,42.0,16.0,30.0,3.0,0.0
22921,66.0,0.0,30.0,4.0,0.0
22922,54.0,0.0,30.0,6.0,0.0
22923,49.0,0.0,30.0,6.0,0.0
22924,42.0,0.0,30.0,7.0,0.0
22925,49.0,0.0,30.0,14.0,0.0
22926,49.0,0.0,30.0,2.0,0.0
22927,61.0,0.0,30.0,4.0,0.0
22928,49.0,0.0,30.0,3.0,0.0
22929,54.0,0.0,30.0,3.0,0.0
22930,42.0,48.0,30.0,6.0,0.0
22931,78.0,0.0,30.0,1.0,0.0
22932,73.0,0.0,30.0,1.0,0.0
22933,61.0,0.0,30.0,5.0,0.0
22934,73.0,0.0,30.0,12.0,0.0
22935,78.0,64.0,30.0,0.0,0.0
22936,66.0,0.0,30.0,13.0,0.0
22937,73.0,0.0,30.0,2.0,0.0
22938,66.0,0.0,30.0,2.0,0.0
22939,66.0,0.0,30.0,5.0,0.0
22940,78.0,0.0,30.0,11.0,0.0
22941,73.0,0.0,150.0,1.0,0.0
22942,77.0,0.0,150.0,1.0,0.0
22943,77.0,0.0,150.0,11.0,0.0
22944,65.0,0.0,150.0,13.0,0.0
22945,77.0,0.0,150.0,0.0,0.0
22946,61.0,32.0,60.0,5.0,0.0
22947,73.0,0.0,150.0,2.0,0.0
22948,65.0,0.0,60.0,5.0,0.0
22949,65.0,32.0,150.0,2.0,0.0
22950,73.0,0.0,90.0,12.0,0.0
22951,37.0,0.0,60.0,3.0,0.0
22952,61.0,16.0,30.0,4.0,0.0
22953,49.0,0.0,30.0,14.0,0.0
22954,49.0,0.0,30.0,3.0,0.0
22955,37.0,32.0,60.0,15.0,0.0
22956,53.0,16.0,30.0,3.0,0.0
22957,65.0,0.0,30.0,4.0,0.0
22958,53.0,0.0,30.0,14.0,0.0
22959,56.0,0.0,30.0,6.0,0.0
22960,53.0,0.0,30.0,6.0,0.0
22961,56.0,0.0,30.0,3.0,0.0
22962,37.0,0.0,30.0,6.0,0.0
22963,68.0,0.0,30.0,4.0,0.0
22964,53.0,0.0,30.0,2.0,0.0
22965,37.0,0.0,30.0,7.0,0.0
22966,75.0,0.0,30.0,0.0,0.0
22967,63.0,0.0,30.0,13.0,0.0
22968,75.0,0.0,30.0,11.0,0.0
22969,75.0,0.0,30.0,2.0,0.0
22970,63.0,0.0,30.0,2.0,0.0
22971,75.0,0.0,30.0,1.0,0.0
22972,63.0,0.0,30.0,5.0,0.0
22973,73.0,0.0,30.0,0.0,0.0
22974,61.0,0.0,30.0,13.0,0.0
22975,73.0,0.0,30.0,2.0,0.0
22976,61.0,0.0,30.0,2.0,0.0
22977,61.0,0.0,30.0,5.0,0.0
22978,73.0,0.0,30.0,1.0,0.0
22979,73.0,0.0,30.0,11.0,0.0
22980,34.0,32.0,60.0,15.0,0.0
22981,46.0,16.0,30.0,3.0,0.0
22982,58.0,0.0,30.0,4.0,0.0
22983,46.0,0.0,30.0,14.0,0.0
22984,34.0,0.0,60.0,3.0,0.0
22985,46.0,0.0,30.0,6.0,0.0
22986,49.0,0.0,30.0,14.0,0.0
22987,49.0,48.0,30.0,2.0,0.0
22988,49.0,0.0,30.0,3.0,0.0
22989,54.0,0.0,30.0,3.0,0.0
22990,66.0,0.0,30.0,4.0,0.0
22991,61.0,0.0,30.0,4.0,0.0
22992,46.0,0.0,30.0,7.0,0.0
22993,54.0,0.0,30.0,6.0,0.0
22994,49.0,0.0,30.0,6.0,0.0
22995,73.0,48.0,30.0,13.0,0.0
22996,85.0,0.0,30.0,0.0,0.0
22997,85.0,0.0,30.0,11.0,0.0
22998,75.0,0.0,30.0,0.0,0.0
22999,63.0,0.0,30.0,2.0,0.0
23000,63.0,0.0,30.0,1.0,0.0
23001,75.0,48.0,30.0,11.0,0.0
23002,75.0,0.0,30.0,1.0,0.0
23003,63.0,0.0,30.0,13.0,0.0
23004,47.0,0.0,30.0,3.0,0.0
23005,35.0,32.0,60.0,3.0,0.0
23006,59.0,0.0,30.0,4.0,0.0
23007,47.0,16.0,30.0,14.0,0.0
23008,35.0,0.0,60.0,15.0,0.0
23009,47.0,0.0,30.0,6.0,0.0
23010,56.0,0.0,30.0,6.0,0.0
23011,51.0,0.0,30.0,3.0,0.0
23012,51.0,48.0,30.0,6.0,0.0
23013,63.0,0.0,30.0,4.0,0.0
23014,47.0,0.0,30.0,7.0,0.0
23015,68.0,0.0,30.0,4.0,0.0
23016,51.0,0.0,30.0,2.0,0.0
23017,51.0,0.0,30.0,14.0,0.0
23018,56.0,0.0,30.0,3.0,0.0
23019,87.0,0.0,30.0,0.0,0.0
23020,75.0,0.0,30.0,13.0,0.0
23021,87.0,48.0,30.0,11.0,0.0
23022,77.0,0.0,30.0,0.0,0.0
23023,65.0,0.0,30.0,1.0,0.0
23024,77.0,0.0,30.0,1.0,0.0
23025,65.0,48.0,30.0,2.0,0.0
23026,65.0,0.0,30.0,13.0,0.0
23027,77.0,0.0,30.0,11.0,0.0
23028,37.0,32.0,60.0,3.0,0.0
23029,61.0,0.0,30.0,4.0,0.0
23030,49.0,0.0,30.0,14.0,0.0
23031,49.0,16.0,30.0,3.0,0.0
23032,37.0,0.0,60.0,15.0,0.0
23033,53.0,0.0,30.0,2.0,0.0
23034,70.0,0.0,30.0,4.0,0.0
23035,65.0,0.0,30.0,4.0,0.0
23036,49.0,0.0,30.0,7.0,0.0
23037,53.0,0.0,30.0,6.0,0.0
23038,58.0,0.0,30.0,6.0,0.0
23039,53.0,0.0,30.0,3.0,0.0
23040,49.0,0.0,30.0,6.0,0.0
23041,58.0,0.0,30.0,3.0,0.0
23042,53.0,48.0,30.0,14.0,0.0
23043,77.0,0.0,30.0,13.0,0.0
23044,89.0,48.0,30.0,0.0,0.0
23045,89.0,0.0,30.0,11.0,0.0
23046,78.0,0.0,30.0,0.0,0.0
23047,66.0,0.0,30.0,2.0,0.0
23048,78.0,0.0,30.0,1.0,0.0
23049,66.0,0.0,30.0,13.0,0.0
23050,66.0,48.0,30.0,1.0,0.0
23051,78.0,0.0,30.0,11.0,0.0
23052,39.0,32.0,60.0,15.0,0.0
23053,39.0,0.0,60.0,3.0,0.0
23054,51.0,0.0,30.0,3.0,0.0
23055,51.0,0.0,30.0,14.0,0.0
23056,63.0,16.0,30.0,4.0,0.0
23057,51.0,0.0,30.0,7.0,0.0
23058,54.0,0.0,30.0,14.0,0.0
23059,66.0,48.0,30.0,4.0,0.0
23060,71.0,0.0,30.0,4.0,0.0
23061,54.0,0.0,30.0,2.0,0.0
23062,54.0,0.0,30.0,3.0,0.0
23063,59.0,0.0,30.0,3.0,0.0
23064,51.0,0.0,30.0,6.0,0.0
23065,59.0,0.0,30.0,6.0,0.0
23066,54.0,0.0,30.0,6.0,0.0
23067,90.0,0.0,30.0,11.0,0.0
23068,90.0,0.0,30.0,0.0,0.0
23069,78.0,48.0,30.0,13.0,0.0
23070,68.0,0.0,30.0,2.0,0.0
23071,80.0,48.0,30.0,11.0,0.0
23072,80.0,0.0,30.0,0.0,0.0
23073,68.0,0.0,30.0,1.0,0.0
23074,68.0,0.0,30.0,13.0,0.0
23075,80.0,0.0,30.0,1.0,0.0
23076,41.0,0.0,60.0,15.0,0.0
23077,53.0,0.0,30.0,3.0,0.0
23078,41.0,32.0,60.0,3.0,0.0
23079,53.0,0.0,30.0,14.0,0.0
23080,65.0,16.0,30.0,4.0,0.0
23081,53.0,0.0,30.0,7.0,0.0
23082,68.0,0.0,30.0,4.0,0.0
23083,73.0,0.0,30.0,4.0,0.0
23084,56.0,0.0,30.0,6.0,0.0
23085,61.0,0.0,30.0,6.0,0.0
23086,56.0,48.0,30.0,3.0,0.0
23087,53.0,0.0,30.0,6.0,0.0
23088,56.0,0.0,30.0,14.0,0.0
23089,56.0,0.0,30.0,2.0,0.0
23090,61.0,0.0,30.0,3.0,0.0
23091,92.0,48.0,30.0,11.0,0.0
23092,92.0,0.0,30.0,0.0,0.0
23093,80.0,0.0,30.0,13.0,0.0
23094,70.0,0.0,30.0,2.0,0.0
23095,78.0,0.0,30.0,12.0,0.0
23096,82.0,0.0,30.0,1.0,0.0
23097,82.0,0.0,30.0,11.0,0.0
23098,66.0,0.0,30.0,5.0,0.0
23099,78.0,0.0,30.0,0.0,0.0
23100,78.0,0.0,30.0,1.0,0.0
23101,70.0,48.0,30.0,13.0,0.0
23102,82.0,0.0,30.0,0.0,0.0
23103,70.0,0.0,30.0,5.0,0.0
23104,54.0,0.0,30.0,3.0,0.0
23105,42.0,0.0,60.0,15.0,0.0
23106,66.0,0.0,30.0,4.0,0.0
23107,42.0,32.0,60.0,3.0,0.0
23108,54.0,16.0,30.0,14.0,0.0
23109,70.0,0.0,30.0,4.0,0.0
23110,61.0,0.0,30.0,6.0,0.0
23111,61.0,0.0,30.0,3.0,0.0
23112,54.0,0.0,30.0,7.0,0.0
23113,73.0,0.0,30.0,4.0,0.0
23114,58.0,0.0,30.0,14.0,0.0
23115,54.0,48.0,30.0,6.0,0.0
23116,58.0,0.0,30.0,2.0,0.0
23117,58.0,0.0,30.0,6.0,0.0
23118,58.0,0.0,30.0,3.0,0.0
23119,82.0,0.0,30.0,11.0,0.0
23120,82.0,0.0,30.0,0.0,0.0
23121,78.0,0.0,30.0,0.0,0.0
23122,70.0,0.0,30.0,2.0,0.0
23123,70.0,0.0,30.0,13.0,0.0
23124,82.0,0.0,30.0,1.0,0.0
23125,70.0,0.0,30.0,5.0,0.0
23126,66.0,48.0,30.0,5.0,0.0
23127,78.0,0.0,30.0,1.0,0.0
23128,78.0,0.0,30.0,12.0,0.0
23129,77.0,0.0,30.0,1.0,0.0
23130,71.0,0.0,30.0,2.0,0.0
23131,68.0,0.0,30.0,2.0,0.0
23132,77.0,0.0,30.0,12.0,0.0
23133,68.0,0.0,30.0,5.0,0.0
23134,68.0,0.0,30.0,13.0,0.0
23135,65.0,0.0,30.0,5.0,0.0
23136,80.0,0.0,30.0,11.0,0.0
23137,80.0,0.0,30.0,1.0,0.0
23138,71.0,0.0,30.0,13.0,0.0
23139,77.0,0.0,30.0,0.0,0.0
23140,80.0,48.0,30.0,0.0,0.0
23141,44.0,0.0,60.0,15.0,0.0
23142,56.0,0.0,30.0,14.0,0.0
23143,56.0,0.0,30.0,3.0,0.0
23144,44.0,32.0,60.0,3.0,0.0
23145,68.0,16.0,30.0,4.0,0.0
23146,59.0,0.0,30.0,3.0,0.0
23147,59.0,0.0,30.0,6.0,0.0
23148,77.0,0.0,30.0,4.0,0.0
23149,65.0,0.0,30.0,3.0,0.0
23150,56.0,48.0,30.0,7.0,0.0
23151,71.0,0.0,30.0,4.0,0.0
23152,59.0,0.0,30.0,2.0,0.0
23153,59.0,0.0,30.0,14.0,0.0
23154,56.0,0.0,30.0,6.0,0.0
23155,65.0,0.0,30.0,6.0,0.0
23156,68.0,0.0,30.0,13.0,0.0
23157,65.0,0.0,30.0,5.0,0.0
23158,77.0,0.0,30.0,1.0,0.0
23159,80.0,0.0,30.0,1.0,0.0
23160,77.0,0.0,30.0,12.0,0.0
23161,80.0,64.0,30.0,0.0,0.0
23162,77.0,0.0,30.0,0.0,0.0
23163,68.0,0.0,30.0,2.0,0.0
23164,71.0,0.0,30.0,2.0,0.0
23165,71.0,0.0,30.0,13.0,0.0
23166,80.0,0.0,30.0,11.0,0.0
23167,68.0,0.0,30.0,5.0,0.0
23168,66.0,0.0,150.0,13.0,0.0
23169,66.0,0.0,150.0,2.0,0.0
23170,78.0,0.0,150.0,1.0,0.0
23171,78.0,0.0,150.0,0.0,0.0
23172,66.0,0.0,60.0,5.0,0.0
23173,61.0,32.0,60.0,5.0,0.0
23174,58.0,16.0,30.0,14.0,0.0
23175,46.0,32.0,60.0,3.0,0.0
23176,70.0,0.0,30.0,4.0,0.0
23177,58.0,0.0,30.0,3.0,0.0
23178,46.0,0.0,60.0,15.0,0.0
23179,61.0,0.0,30.0,6.0,0.0
23180,61.0,0.0,30.0,2.0,0.0
23181,61.0,0.0,30.0,14.0,0.0
23182,58.0,0.0,30.0,6.0,0.0
23183,73.0,0.0,30.0,4.0,0.0
23184,78.0,0.0,30.0,4.0,0.0
23185,58.0,0.0,30.0,7.0,0.0
23186,66.0,0.0,30.0,3.0,0.0
23187,66.0,0.0,30.0,6.0,0.0
23188,61.0,16.0,30.0,3.0,0.0
23189,78.0,0.0,30.0,0.0,0.0
23190,73.0,0.0,15.0,12.0,0.0
23191,66.0,0.0,30.0,5.0,0.0
23192,73.0,32.0,15.0,2.0,0.0
23193,66.0,0.0,30.0,13.0,0.0
23194,78.0,0.0,30.0,1.0,0.0
23195,78.0,0.0,15.0,11.0,0.0
23196,66.0,0.0,30.0,2.0,0.0
23197,61.0,48.0,30.0,5.0,0.0
23198,70.0,0.0,30.0,11.0,0.0
23199,58.0,0.0,30.0,13.0,0.0
23200,66.0,0.0,30.0,0.0,0.0
23201,70.0,0.0,30.0,0.0,0.0
23202,70.0,0.0,30.0,1.0,0.0
23203,66.0,0.0,30.0,1.0,0.0
23204,58.0,0.0,30.0,5.0,0.0
23205,66.0,0.0,30.0,12.0,0.0
23206,54.0,0.0,30.0,5.0,0.0
23207,58.0,48.0,30.0,2.0,0.0
23208,70.0,0.0,30.0,2.0,0.0
23209,51.0,16.0,30.0,14.0,0.0
23210,63.0,0.0,30.0,4.0,0.0
23211,51.0,0.0,30.0,3.0,0.0
23212,39.0,32.0,60.0,3.0,0.0
23213,39.0,0.0,60.0,15.0,0.0
23214,54.0,0.0,30.0,14.0,0.0
23215,58.0,0.0,30.0,6.0,0.0
23216,54.0,0.0,30.0,6.0,0.0
23217,51.0,0.0,30.0,6.0,0.0
23218,51.0,48.0,30.0,7.0,0.0
23219,66.0,0.0,30.0,4.0,0.0
23220,54.0,0.0,30.0,2.0,0.0
23221,58.0,0.0,30.0,3.0,0.0
23222,54.0,0.0,30.0,3.0,0.0
23223,70.0,0.0,30.0,4.0,0.0
23224,54.0,48.0,30.0,5.0,0.0
23225,58.0,0.0,30.0,5.0,0.0
23226,70.0,0.0,30.0,0.0,0.0
23227,66.0,0.0,30.0,12.0,0.0
23228,70.0,0.0,30.0,11.0,0.0
23229,66.0,0.0,30.0,0.0,0.0
23230,58.0,0.0,30.0,13.0,0.0
23231,66.0,0.0,30.0,1.0,0.0
23232,70.0,0.0,30.0,1.0,0.0
23233,70.0,0.0,30.0,2.0,0.0
23234,58.0,0.0,30.0,2.0,0.0
23235,63.0,48.0,30.0,2.0,0.0
23236,75.0,0.0,30.0,11.0,0.0
23237,66.0,0.0,30.0,12.0,0.0
23238,75.0,0.0,30.0,1.0,0.0
23239,66.0,0.0,30.0,2.0,0.0
23240,66.0,0.0,30.0,1.0,0.0
23241,63.0,0.0,30.0,13.0,0.0
23242,75.0,0.0,30.0,0.0,0.0
23243,54.0,0.0,30.0,5.0,0.0
23244,63.0,0.0,30.0,5.0,0.0
23245,35.0,32.0,60.0,3.0,0.0
23246,59.0,0.0,30.0,4.0,0.0
23247,47.0,0.0,30.0,3.0,0.0
23248,35.0,0.0,60.0,15.0,0.0
23249,47.0,16.0,30.0,14.0,0.0
23250,59.0,0.0,30.0,6.0,0.0
23251,54.0,0.0,30.0,6.0,0.0
23252,47.0,0.0,30.0,7.0,0.0
23253,51.0,0.0,30.0,2.0,0.0
23254,51.0,0.0,30.0,3.0,0.0
23255,54.0,0.0,30.0,3.0,0.0
23256,66.0,0.0,30.0,4.0,0.0
23257,63.0,0.0,30.0,4.0,0.0
23258,54.0,0.0,30.0,14.0,0.0
23259,51.0,0.0,30.0,14.0,0.0
23260,47.0,48.0,30.0,6.0,0.0
23261,75.0,0.0,30.0,0.0,0.0
23262,63.0,0.0,30.0,13.0,0.0
23263,75.0,48.0,30.0,11.0,0.0
23264,66.0,0.0,30.0,2.0,0.0
23265,63.0,0.0,30.0,2.0,0.0
23266,54.0,0.0,30.0,5.0,0.0
23267,66.0,0.0,30.0,1.0,0.0
23268,75.0,0.0,30.0,1.0,0.0
23269,66.0,0.0,30.0,12.0,0.0
23270,63.0,0.0,30.0,5.0,0.0
23271,59.0,0.0,30.0,12.0,0.0
23272,59.0,0.0,30.0,2.0,0.0
23273,59.0,0.0,30.0,5.0,0.0
23274,65.0,0.0,30.0,11.0,0.0
23275,53.0,0.0,30.0,5.0,0.0
23276,53.0,0.0,30.0,2.0,0.0
23277,65.0,0.0,30.0,1.0,0.0
23278,59.0,48.0,30.0,1.0,0.0
23279,53.0,0.0,30.0,13.0,0.0
23280,65.0,0.0,30.0,0.0,0.0
23281,37.0,32.0,60.0,15.0,0.0
23282,37.0,0.0,60.0,3.0,0.0
23283,49.0,0.0,30.0,14.0,0.0
23284,49.0,0.0,30.0,3.0,0.0
23285,61.0,16.0,30.0,4.0,0.0
23286,56.0,0.0,30.0,3.0,0.0
23287,49.0,0.0,30.0,3.0,0.0
23288,56.0,0.0,30.0,6.0,0.0
23289,56.0,0.0,30.0,14.0,0.0
23290,49.0,0.0,30.0,2.0,0.0
23291,61.0,48.0,30.0,4.0,0.0
23292,68.0,0.0,30.0,4.0,0.0
23293,49.0,0.0,30.0,6.0,0.0
23294,49.0,0.0,30.0,7.0,0.0
23295,59.0,64.0,30.0,2.0,0.0
23296,53.0,0.0,30.0,13.0,0.0
23297,53.0,0.0,30.0,2.0,0.0
23298,59.0,0.0,30.0,1.0,0.0
23299,65.0,0.0,30.0,1.0,0.0
23300,59.0,0.0,30.0,5.0,0.0
23301,59.0,0.0,30.0,12.0,0.0
23302,53.0,0.0,30.0,5.0,0.0
23303,65.0,0.0,30.0,0.0,0.0
23304,65.0,0.0,30.0,11.0,0.0
23305,54.0,0.0,60.0,1.0,0.0
23306,58.0,0.0,60.0,12.0,0.0
23307,54.0,0.0,60.0,13.0,0.0
23308,66.0,32.0,60.0,11.0,0.0
23309,54.0,0.0,60.0,5.0,0.0
23310,58.0,0.0,60.0,5.0,0.0
23311,54.0,0.0,60.0,2.0,0.0
23312,66.0,0.0,60.0,0.0,0.0
23313,58.0,0.0,60.0,1.0,0.0
23314,58.0,0.0,60.0,2.0,0.0
23315,42.0,0.0,30.0,14.0,0.0
23316,30.0,32.0,60.0,15.0,0.0
23317,30.0,0.0,60.0,3.0,0.0
23318,42.0,16.0,30.0,3.0,0.0
23319,54.0,0.0,30.0,4.0,0.0
23320,42.0,0.0,30.0,6.0,0.0
23321,49.0,0.0,30.0,6.0,0.0
23322,46.0,0.0,30.0,6.0,0.0
23323,46.0,0.0,30.0,3.0,0.0
23324,46.0,0.0,30.0,2.0,0.0
23325,58.0,48.0,30.0,4.0,0.0
23326,49.0,0.0,30.0,14.0,0.0
23327,42.0,0.0,30.0,7.0,0.0
23328,61.0,0.0,30.0,4.0,0.0
23329,66.0,0.0,30.0,0.0,0.0
23330,54.0,0.0,30.0,2.0,0.0
23331,66.0,96.0,30.0,11.0,0.0
23332,58.0,0.0,30.0,2.0,0.0
23333,54.0,0.0,30.0,13.0,0.0
23334,58.0,0.0,30.0,12.0,0.0
23335,54.0,0.0,30.0,5.0,0.0
23336,58.0,0.0,30.0,5.0,0.0
23337,54.0,0.0,30.0,1.0,0.0
23338,58.0,0.0,30.0,1.0,0.0
23339,66.0,0.0,180.0,5.0,0.0
23340,70.0,0.0,90.0,12.0,0.0
23341,58.0,0.0,180.0,5.0,0.0
23342,42.0,160.0,180.0,8.0,0.0
23343,66.0,0.0,90.0,13.0,0.0
23344,66.0,0.0,90.0,2.0,0.0
23345,61.0,0.0,180.0,5.0,0.0
23346,70.0,0.0,90.0,1.0,0.0
23347,66.0,0.0,90.0,1.0,0.0
23348,70.0,0.0,90.0,2.0,0.0
23349,78.0,0.0,90.0,11.0,0.0
23350,78.0,32.0,90.0,0.0,0.0
23351,45.0,2.0,150.0,9.0,0.0
23352,42.0,0.0,30.0,14.0,0.0
23353,30.0,0.0,30.0,3.0,0.0
23354,30.0,0.0,30.0,15.0,0.0
23355,54.0,0.0,30.0,4.0,0.0
23356,49.0,0.0,30.0,14.0,0.0
23357,54.0,0.0,30.0,14.0,0.0
23358,54.0,0.0,90.0,6.0,0.0
23359,61.0,0.0,90.0,4.0,0.0
23360,66.0,0.0,90.0,4.0,0.0
23361,58.0,0.0,90.0,6.0,0.0
23362,58.0,0.0,90.0,4.0,0.0
23363,54.0,0.0,90.0,4.0,0.0
23364,42.0,0.0,30.0,7.0,0.0
23365,42.0,48.0,30.0,6.0,0.0
23366,49.0,0.0,30.0,2.0,0.0
23367,49.0,0.0,30.0,7.0,0.0
23368,49.0,14.0,30.0,6.0,0.0
23369,63.0,128.0,150.0,15.0,0.0
23370,54.0,48.0,60.0,12.0,0.0
23371,56.0,48.0,60.0,12.0,0.0
23372,54.0,192.0,60.0,12.0,0.0
23373,56.0,96.0,180.0,12.0,0.0
23374,58.0,48.0,60.0,12.0,0.0
23375,59.0,48.0,60.0,12.0,0.0
23376,58.0,192.0,60.0,12.0,0.0
23377,59.0,96.0,180.0,12.0,0.0
23378,59.0,48.0,60.0,12.0,0.0
23379,58.0,48.0,60.0,12.0,0.0
23380,61.0,48.0,60.0,12.0,0.0
23381,58.0,48.0,60.0,12.0,0.0
23382,56.0,48.0,60.0,12.0,0.0
23383,54.0,48.0,60.0,12.0,0.0
23384,56.0,48.0,60.0,12.0,0.0
23385,58.0,48.0,60.0,12.0,0.0
23386,59.0,48.0,60.0,12.0,0.0
23387,58.0,48.0,60.0,12.0,0.0
23388,61.0,48.0,60.0,12.0,0.0
23389,58.0,48.0,60.0,12.0,0.0
23390,56.0,48.0,60.0,12.0,0.0
23391,54.0,46.0,60.0,12.0,0.0
23392,56.0,96.0,60.0,12.0,0.0
23393,58.0,2.0,90.0,12.0,0.0
23394,61.0,48.0,60.0,11.0,0.0
23395,63.0,48.0,60.0,11.0,0.0
23396,53.0,0.0,60.0,12.0,0.0
23397,61.0,48.0,60.0,11.0,0.0
23398,63.0,94.0,180.0,11.0,0.0
23399,54.0,48.0,60.0,12.0,0.0
23400,56.0,48.0,60.0,12.0,0.0
23401,58.0,48.0,60.0,12.0,0.0
23402,60.0,0.0,60.0,12.0,0.0
23403,61.0,2.0,90.0,12.0,0.0
23404,65.0,48.0,60.0,11.0,0.0
23405,66.0,48.0,60.0,11.0,0.0
23406,65.0,0.0,60.0,11.0,0.0
23407,56.0,48.0,60.0,12.0,0.0
23408,66.0,0.0,180.0,11.0,0.0
23409,58.0,48.0,60.0,12.0,0.0
23410,60.0,48.0,60.0,12.0,0.0
23411,61.0,48.0,60.0,12.0,0.0
23412,62.0,46.0,60.0,12.0,0.0
23413,63.0,34.0,60.0,12.0,0.0
23414,66.0,32.0,60.0,11.0,0.0
23415,60.0,16.0,30.0,12.0,0.0
23416,65.0,48.0,60.0,11.0,0.0
23417,61.0,16.0,30.0,12.0,0.0
23418,68.0,48.0,60.0,11.0,0.0
23419,65.0,32.0,60.0,11.0,0.0
23420,56.0,16.0,30.0,13.0,0.0
23421,63.0,32.0,60.0,11.0,0.0
23422,49.0,16.0,30.0,13.0,0.0
23423,61.0,48.0,60.0,11.0,0.0
23424,63.0,48.0,60.0,11.0,0.0
23425,65.0,32.0,60.0,11.0,0.0
23426,60.0,16.0,30.0,12.0,0.0
23427,66.0,32.0,60.0,11.0,0.0
23428,65.0,48.0,60.0,11.0,0.0
23429,61.0,16.0,30.0,12.0,0.0
23430,68.0,48.0,60.0,11.0,0.0
23431,65.0,48.0,60.0,11.0,0.0
23432,56.0,0.0,60.0,13.0,0.0
23433,63.0,48.0,60.0,11.0,0.0
23434,49.0,46.0,60.0,13.0,0.0
23435,61.0,0.0,60.0,11.0,0.0
23436,65.0,0.0,60.0,11.0,0.0
23437,59.0,96.0,60.0,13.0,0.0
23438,66.0,0.0,90.0,11.0,0.0
23439,58.0,2.0,90.0,13.0,0.0
23440,42.0,48.0,60.0,14.0,0.0
23441,44.0,46.0,60.0,14.0,0.0
23442,42.0,0.0,60.0,14.0,0.0
23443,58.0,48.0,60.0,12.0,0.0
23444,66.0,2.0,60.0,11.0,0.0
23445,65.0,2.0,90.0,11.0,0.0
23446,59.0,46.0,60.0,12.0,0.0
23447,44.0,0.0,180.0,14.0,0.0
23448,61.0,48.0,60.0,12.0,0.0
23449,63.0,46.0,60.0,12.0,0.0
23450,71.0,2.0,60.0,11.0,0.0
23451,65.0,94.0,60.0,12.0,0.0
23452,66.0,2.0,90.0,12.0,0.0
23453,70.0,0.0,90.0,11.0,0.0
23454,46.0,48.0,60.0,14.0,0.0
23455,47.0,46.0,60.0,14.0,0.0
23456,67.0,2.0,60.0,11.0,0.0
23457,61.0,0.0,60.0,12.0,0.0
23458,46.0,48.0,60.0,14.0,0.0
23459,63.0,46.0,60.0,12.0,0.0
23460,68.0,2.0,90.0,11.0,0.0
23461,47.0,46.0,180.0,14.0,0.0
23462,65.0,48.0,60.0,12.0,0.0
23463,66.0,46.0,60.0,12.0,0.0
23464,67.0,0.0,60.0,12.0,0.0
23465,75.0,2.0,60.0,11.0,0.0
23466,71.0,0.0,60.0,11.0,0.0
23467,68.0,48.0,60.0,12.0,0.0
23468,68.0,2.0,60.0,11.0,0.0
23469,65.0,0.0,60.0,12.0,0.0
23470,47.0,48.0,60.0,14.0,0.0
23471,66.0,2.0,90.0,12.0,0.0
23472,46.0,46.0,60.0,14.0,0.0
23473,73.0,0.0,90.0,11.0,0.0
23474,49.0,48.0,60.0,14.0,0.0
23475,46.0,46.0,60.0,14.0,0.0
23476,44.0,48.0,60.0,14.0,0.0
23477,59.0,2.0,60.0,12.0,0.0
23478,65.0,0.0,60.0,11.0,0.0
23479,58.0,2.0,90.0,12.0,0.0
23480,42.0,46.0,60.0,14.0,0.0
23481,66.0,0.0,90.0,11.0,0.0
23482,44.0,48.0,60.0,14.0,0.0
23483,46.0,46.0,60.0,14.0,0.0
23484,65.0,0.0,60.0,12.0,0.0
23485,47.0,48.0,60.0,14.0,0.0
23486,68.0,2.0,60.0,11.0,0.0
23487,46.0,46.0,60.0,14.0,0.0
23488,73.0,0.0,90.0,11.0,0.0
23489,66.0,2.0,90.0,12.0,0.0
23490,49.0,48.0,60.0,14.0,0.0
23491,46.0,46.0,60.0,14.0,0.0
23492,65.0,2.0,60.0,11.0,0.0
23493,44.0,48.0,60.0,14.0,0.0
23494,59.0,0.0,60.0,12.0,0.0
23495,66.0,96.0,90.0,11.0,0.0
23496,42.0,46.0,60.0,14.0,0.0
23497,58.0,0.0,90.0,12.0,0.0
23498,44.0,0.0,60.0,14.0,0.0
23499,46.0,2.0,90.0,14.0,0.0
23500,49.0,48.0,60.0,13.0,0.0
23501,51.0,46.0,60.0,13.0,0.0
23502,46.0,2.0,60.0,14.0,0.0
23503,66.0,0.0,60.0,12.0,0.0
23504,73.0,0.0,60.0,11.0,0.0
23505,49.0,48.0,60.0,13.0,0.0
23506,51.0,0.0,180.0,13.0,0.0
23507,72.0,46.0,60.0,11.0,0.0
23508,68.0,0.0,60.0,12.0,0.0
23509,44.0,2.0,90.0,14.0,0.0
23510,70.0,48.0,60.0,11.0,0.0
23511,66.0,0.0,60.0,12.0,0.0
23512,68.0,0.0,60.0,11.0,0.0
23513,48.0,2.0,90.0,14.0,0.0
23514,65.0,46.0,60.0,12.0,0.0
23515,63.0,0.0,60.0,12.0,0.0
23516,66.0,94.0,60.0,11.0,0.0
23517,61.0,2.0,90.0,12.0,0.0
23518,49.0,0.0,90.0,14.0,0.0
23519,65.0,0.0,90.0,11.0,0.0
23520,53.0,48.0,60.0,13.0,0.0
23521,54.0,46.0,60.0,13.0,0.0
23522,71.0,0.0,60.0,11.0,0.0
23523,68.0,48.0,60.0,12.0,0.0
23524,49.0,2.0,60.0,14.0,0.0
23525,53.0,0.0,60.0,13.0,0.0
23526,70.0,46.0,60.0,11.0,0.0
23527,54.0,46.0,180.0,13.0,0.0
23528,42.0,2.0,90.0,14.0,0.0
23529,66.0,0.0,60.0,12.0,0.0
23530,68.0,0.0,60.0,11.0,0.0
23531,64.0,48.0,60.0,12.0,0.0
23532,66.0,46.0,60.0,11.0,0.0
23533,46.0,2.0,90.0,14.0,0.0
23534,63.0,0.0,60.0,12.0,0.0
23535,61.0,0.0,60.0,12.0,0.0
23536,64.0,0.0,60.0,11.0,0.0
23537,63.0,0.0,60.0,11.0,0.0
23538,47.0,0.0,60.0,14.0,0.0
23539,59.0,34.0,60.0,12.0,0.0
23540,69.0,14.0,30.0,11.0,0.0
23541,63.0,0.0,30.0,12.0,0.0
23542,48.0,34.0,60.0,14.0,0.0
23543,54.0,0.0,60.0,13.0,0.0
23544,49.0,48.0,90.0,14.0,0.0
23545,68.0,0.0,30.0,11.0,0.0
23546,65.0,14.0,30.0,12.0,0.0
23547,53.0,48.0,60.0,13.0,0.0
23548,56.0,0.0,60.0,13.0,0.0
23549,53.0,34.0,60.0,13.0,0.0
23550,44.0,34.0,60.0,14.0,0.0
23551,34.0,0.0,30.0,9.0,0.0
23552,60.0,14.0,30.0,11.0,0.0
23553,51.0,0.0,60.0,13.0,0.0
23554,54.0,0.0,30.0,12.0,0.0
23555,53.0,0.0,30.0,12.0,0.0
23556,49.0,48.0,60.0,13.0,0.0
23557,61.0,0.0,30.0,11.0,0.0
23558,34.0,14.0,30.0,9.0,0.0
23559,49.0,48.0,90.0,14.0,0.0
23560,51.0,0.0,60.0,13.0,0.0
23561,53.0,34.0,60.0,13.0,0.0
23562,48.0,0.0,60.0,14.0,0.0
23563,34.0,0.0,30.0,9.0,0.0
23564,69.0,0.0,30.0,11.0,0.0
23565,63.0,14.0,30.0,12.0,0.0
23566,54.0,34.0,60.0,13.0,0.0
23567,65.0,0.0,30.0,12.0,0.0
23568,68.0,0.0,30.0,11.0,0.0
23569,34.0,14.0,30.0,9.0,0.0
23570,53.0,48.0,60.0,13.0,0.0
23571,49.0,48.0,90.0,14.0,0.0
23572,56.0,0.0,60.0,13.0,0.0
23573,53.0,34.0,60.0,13.0,0.0
23574,54.0,0.0,30.0,12.0,0.0
23575,34.0,0.0,30.0,9.0,0.0
23576,51.0,34.0,60.0,13.0,0.0
23577,44.0,0.0,60.0,14.0,0.0
23578,60.0,14.0,30.0,11.0,0.0
23579,34.0,0.0,30.0,9.0,0.0
23580,53.0,14.0,30.0,12.0,0.0
23581,49.0,48.0,90.0,14.0,0.0
23582,49.0,48.0,60.0,13.0,0.0
23583,61.0,0.0,30.0,11.0,0.0
23584,51.0,0.0,60.0,13.0,0.0
23585,53.0,34.0,60.0,13.0,0.0
23586,65.0,14.0,30.0,12.0,0.0
23587,50.0,34.0,60.0,14.0,0.0
23588,34.0,0.0,30.0,9.0,0.0
23589,56.0,0.0,60.0,13.0,0.0
23590,71.0,0.0,30.0,11.0,0.0
23591,34.0,14.0,30.0,9.0,0.0
23592,66.0,0.0,30.0,12.0,0.0
23593,70.0,0.0,30.0,11.0,0.0
23594,54.0,48.0,60.0,13.0,0.0
23595,51.0,48.0,90.0,14.0,0.0
23596,58.0,0.0,60.0,13.0,0.0
23597,54.0,34.0,60.0,13.0,0.0
23598,34.0,0.0,30.0,9.0,0.0
23599,46.0,34.0,60.0,14.0,0.0
23600,56.0,0.0,30.0,12.0,0.0
23601,62.0,14.0,30.0,11.0,0.0
23602,53.0,0.0,60.0,13.0,0.0
23603,51.0,0.0,90.0,14.0,0.0
23604,34.0,0.0,30.0,9.0,0.0
23605,51.0,48.0,60.0,13.0,0.0
23606,63.0,0.0,30.0,11.0,0.0
23607,54.0,14.0,30.0,12.0,0.0
23608,53.0,48.0,60.0,13.0,0.0
23609,54.0,34.0,60.0,13.0,0.0
23610,66.0,0.0,30.0,12.0,0.0
23611,51.0,0.0,60.0,14.0,0.0
23612,34.0,14.0,30.0,9.0,0.0
23613,57.0,34.0,60.0,13.0,0.0
23614,73.0,0.0,30.0,11.0,0.0
23615,52.0,48.0,90.0,14.0,0.0
23616,71.0,0.0,30.0,11.0,0.0
23617,56.0,48.0,60.0,13.0,0.0
23618,68.0,0.0,30.0,12.0,0.0
23619,34.0,14.0,30.0,9.0,0.0
23620,59.0,0.0,60.0,13.0,0.0
23621,56.0,34.0,60.0,13.0,0.0
23622,54.0,34.0,60.0,13.0,0.0
23623,63.0,0.0,30.0,11.0,0.0
23624,34.0,0.0,30.0,9.0,0.0
23625,47.0,0.0,60.0,14.0,0.0
23626,57.0,14.0,30.0,12.0,0.0
23627,52.0,0.0,90.0,14.0,0.0
23628,56.0,14.0,30.0,12.0,0.0
23629,34.0,0.0,30.0,9.0,0.0
23630,64.0,0.0,30.0,11.0,0.0
23631,52.0,48.0,60.0,13.0,0.0
23632,54.0,48.0,60.0,13.0,0.0
23633,56.0,34.0,60.0,13.0,0.0
23634,34.0,14.0,30.0,9.0,0.0
23635,74.0,0.0,30.0,11.0,0.0
23636,59.0,34.0,60.0,13.0,0.0
23637,53.0,0.0,60.0,14.0,0.0
23638,68.0,0.0,30.0,12.0,0.0
23639,70.0,0.0,30.0,12.0,0.0
23640,73.0,14.0,30.0,11.0,0.0
23641,54.0,48.0,90.0,14.0,0.0
23642,34.0,0.0,30.0,9.0,0.0
23643,58.0,48.0,60.0,13.0,0.0
23644,61.0,0.0,60.0,13.0,0.0
23645,58.0,34.0,60.0,13.0,0.0
23646,34.0,0.0,30.0,9.0,0.0
23647,76.0,14.0,30.0,11.0,0.0
23648,61.0,34.0,60.0,13.0,0.0
23649,70.0,0.0,30.0,12.0,0.0
23650,59.0,48.0,60.0,13.0,0.0
23651,71.0,0.0,30.0,12.0,0.0
23652,34.0,0.0,30.0,9.0,0.0
23653,54.0,0.0,90.0,14.0,0.0
23654,74.0,14.0,30.0,11.0,0.0
23655,62.0,48.0,60.0,13.0,0.0
23656,54.0,30.0,150.0,14.0,0.0
23657,61.0,34.0,60.0,13.0,0.0
23658,66.0,34.0,60.0,13.0,0.0
23659,78.0,0.0,30.0,11.0,0.0
23660,70.0,14.0,30.0,12.0,0.0
23661,34.0,0.0,30.0,9.0,0.0
23662,80.0,0.0,30.0,11.0,0.0
23663,34.0,0.0,30.0,9.0,0.0
23664,62.0,18.0,60.0,13.0,0.0
23665,71.0,14.0,30.0,12.0,0.0
23666,65.0,48.0,60.0,13.0,0.0
23667,61.0,34.0,60.0,13.0,0.0
23668,54.0,30.0,150.0,14.0,0.0
23669,34.0,0.0,30.0,9.0,0.0
23670,70.0,0.0,30.0,12.0,0.0
23671,66.0,34.0,60.0,13.0,0.0
23672,78.0,14.0,30.0,11.0,0.0
23673,80.0,0.0,30.0,11.0,0.0
23674,71.0,0.0,30.0,12.0,0.0
23675,34.0,14.0,30.0,9.0,0.0
23676,62.0,18.0,60.0,13.0,0.0
23677,65.0,48.0,60.0,13.0,0.0
23678,61.0,48.0,60.0,13.0,0.0
23679,54.0,2.0,90.0,14.0,0.0
23680,58.0,0.0,60.0,5.0,0.0
23681,78.0,0.0,60.0,0.0,0.0
23682,70.0,46.0,60.0,0.0,0.0
23683,66.0,0.0,60.0,5.0,0.0
23684,66.0,2.0,90.0,13.0,0.0
23685,68.0,46.0,60.0,5.0,0.0
23686,71.0,0.0,60.0,0.0,0.0
23687,80.0,0.0,60.0,0.0,0.0
23688,59.0,0.0,60.0,5.0,0.0
23689,58.0,0.0,60.0,5.0,0.0
23690,66.0,48.0,60.0,13.0,0.0
23691,70.0,0.0,60.0,0.0,0.0
23692,78.0,0.0,60.0,0.0,0.0
23693,66.0,0.0,60.0,5.0,0.0
23694,65.0,48.0,60.0,13.0,0.0
23695,71.0,0.0,150.0,0.0,0.0
23696,80.0,30.0,150.0,0.0,0.0
23697,68.0,0.0,150.0,5.0,0.0
23698,59.0,0.0,150.0,5.0,0.0
23699,63.0,48.0,60.0,13.0,0.0
23700,61.0,18.0,60.0,13.0,0.0
23701,59.0,48.0,60.0,13.0,0.0
23702,58.0,50.0,60.0,13.0,0.0
23703,70.0,0.0,60.0,5.0,0.0
23704,73.0,46.0,60.0,0.0,0.0
23705,82.0,0.0,60.0,0.0,0.0
23706,61.0,2.0,90.0,14.0,0.0
23707,61.0,0.0,60.0,5.0,0.0
23708,64.0,0.0,90.0,13.0,0.0
23709,75.0,0.0,60.0,0.0,0.0
23710,63.0,0.0,60.0,5.0,0.0
23711,71.0,0.0,60.0,5.0,0.0
23712,83.0,46.0,60.0,0.0,0.0
23713,70.0,46.0,60.0,5.0,0.0
23714,61.0,0.0,60.0,5.0,0.0
23715,64.0,2.0,60.0,13.0,0.0
23716,73.0,0.0,60.0,0.0,0.0
23717,82.0,0.0,60.0,0.0,0.0
23718,61.0,0.0,60.0,14.0,0.0
23719,83.0,0.0,150.0,0.0,0.0
23720,71.0,0.0,150.0,5.0,0.0
23721,63.0,30.0,150.0,5.0,0.0
23722,75.0,0.0,150.0,0.0,0.0
23723,63.0,48.0,60.0,13.0,0.0
23724,59.0,0.0,60.0,14.0,0.0
23725,58.0,48.0,60.0,14.0,0.0
23726,61.0,0.0,60.0,13.0,0.0
23727,56.0,0.0,60.0,14.0,0.0
23728,59.0,18.0,60.0,13.0,0.0
23729,54.0,0.0,60.0,14.0,0.0
23730,58.0,48.0,60.0,13.0,0.0
23731,56.0,48.0,60.0,13.0,0.0
23732,53.0,0.0,60.0,14.0,0.0
23733,74.0,48.0,60.0,0.0,0.0
23734,65.0,0.0,60.0,14.0,0.0
23735,71.0,0.0,60.0,5.0,0.0
23736,68.0,0.0,60.0,13.0,0.0
23737,83.0,0.0,60.0,0.0,0.0
23738,62.0,0.0,60.0,5.0,0.0
23739,50.0,2.0,60.0,9.0,0.0
23740,70.0,46.0,60.0,5.0,0.0
23741,61.0,0.0,60.0,5.0,0.0
23742,66.0,0.0,90.0,14.0,0.0
23743,50.0,2.0,90.0,9.0,0.0
23744,82.0,0.0,60.0,0.0,0.0
23745,73.0,0.0,60.0,0.0,0.0
23746,70.0,0.0,90.0,13.0,0.0
23747,64.0,0.0,60.0,5.0,0.0
23748,85.0,0.0,60.0,0.0,0.0
23749,76.0,0.0,60.0,0.0,0.0
23750,73.0,48.0,60.0,5.0,0.0
23751,73.0,46.0,60.0,0.0,0.0
23752,61.0,0.0,60.0,5.0,0.0
23753,82.0,0.0,60.0,0.0,0.0
23754,70.0,0.0,60.0,5.0,0.0
23755,59.0,0.0,60.0,5.0,0.0
23756,53.0,0.0,60.0,14.0,0.0
23757,68.0,0.0,60.0,5.0,0.0
23758,50.0,2.0,60.0,9.0,0.0
23759,56.0,0.0,60.0,13.0,0.0
23760,71.0,0.0,60.0,0.0,0.0
23761,80.0,48.0,60.0,0.0,0.0
23762,66.0,0.0,60.0,5.0,0.0
23763,58.0,46.0,60.0,5.0,0.0
23764,54.0,0.0,90.0,14.0,0.0
23765,61.0,2.0,90.0,13.0,0.0
23766,50.0,0.0,90.0,9.0,0.0
23767,70.0,0.0,60.0,0.0,0.0
23768,78.0,0.0,60.0,0.0,0.0
23769,68.0,0.0,60.0,5.0,0.0
23770,80.0,48.0,60.0,0.0,0.0
23771,59.0,0.0,60.0,5.0,0.0
23772,71.0,0.0,60.0,0.0,0.0
23773,70.0,0.0,60.0,5.0,0.0
23774,61.0,0.0,60.0,5.0,0.0
23775,73.0,0.0,60.0,0.0,0.0
23776,82.0,46.0,60.0,0.0,0.0
23777,62.0,48.0,60.0,5.0,0.0
23778,65.0,0.0,60.0,14.0,0.0
23779,74.0,0.0,60.0,0.0,0.0
23780,83.0,0.0,60.0,0.0,0.0
23781,71.0,0.0,60.0,5.0,0.0
23782,68.0,0.0,60.0,13.0,0.0
23783,50.0,2.0,60.0,9.0,0.0
23784,82.0,46.0,60.0,0.0,0.0
23785,73.0,0.0,60.0,0.0,0.0
23786,70.0,0.0,90.0,13.0,0.0
23787,70.0,0.0,60.0,5.0,0.0
23788,61.0,0.0,60.0,5.0,0.0
23789,66.0,0.0,90.0,14.0,0.0
23790,50.0,2.0,90.0,9.0,0.0
23791,64.0,0.0,60.0,5.0,0.0
23792,76.0,0.0,60.0,0.0,0.0
23793,73.0,0.0,60.0,5.0,0.0
23794,85.0,48.0,60.0,0.0,0.0
23795,61.0,0.0,60.0,5.0,0.0
23796,82.0,46.0,60.0,0.0,0.0
23797,73.0,0.0,60.0,0.0,0.0
23798,70.0,0.0,60.0,5.0,0.0
23799,56.0,2.0,60.0,13.0,0.0
23800,68.0,0.0,60.0,5.0,0.0
23801,53.0,0.0,60.0,14.0,0.0
23802,71.0,48.0,60.0,0.0,0.0
23803,80.0,0.0,60.0,0.0,0.0
23804,50.0,0.0,60.0,9.0,0.0
23805,59.0,0.0,60.0,5.0,0.0
23806,50.0,0.0,90.0,9.0,0.0
23807,58.0,46.0,60.0,5.0,0.0
23808,61.0,2.0,90.0,13.0,0.0
23809,78.0,0.0,60.0,0.0,0.0
23810,66.0,0.0,60.0,5.0,0.0
23811,70.0,0.0,60.0,0.0,0.0
23812,54.0,0.0,90.0,14.0,0.0
23813,68.0,0.0,60.0,5.0,0.0
23814,59.0,0.0,60.0,5.0,0.0
23815,71.0,0.0,60.0,0.0,0.0
23816,80.0,94.0,60.0,0.0,0.0
23817,82.0,0.0,90.0,0.0,0.0
23818,61.0,0.0,90.0,5.0,0.0
23819,70.0,2.0,90.0,5.0,0.0
23820,73.0,0.0,90.0,0.0,0.0
23821,77.0,32.0,150.0,9.0,0.0
23822,71.0,0.0,60.0,12.0,0.0
23823,62.0,48.0,60.0,13.0,0.0
23824,54.0,0.0,150.0,14.0,0.0
23825,70.0,0.0,60.0,12.0,0.0
23826,61.0,0.0,60.0,13.0,0.0
23827,50.0,32.0,150.0,9.0,0.0
23828,78.0,16.0,60.0,0.0,0.0
23829,66.0,0.0,60.0,0.0,0.0
23830,73.0,48.0,60.0,12.0,0.0
23831,64.0,0.0,60.0,13.0,0.0
23832,70.0,16.0,60.0,12.0,0.0
23833,61.0,0.0,60.0,13.0,0.0
23834,59.0,0.0,60.0,13.0,0.0
23835,68.0,32.0,60.0,12.0,0.0
23836,54.0,2.0,90.0,14.0,0.0
23837,50.0,0.0,90.0,9.0,0.0
23838,58.0,0.0,60.0,13.0,0.0
23839,78.0,16.0,30.0,0.0,0.0
23840,66.0,46.0,60.0,12.0,0.0
23841,66.0,0.0,30.0,0.0,0.0
23842,68.0,32.0,60.0,12.0,0.0
23843,59.0,0.0,60.0,13.0,0.0
23844,54.0,2.0,90.0,14.0,0.0
23845,70.0,46.0,60.0,12.0,0.0
23846,61.0,0.0,60.0,13.0,0.0
23847,66.0,16.0,30.0,0.0,0.0
23848,50.0,0.0,90.0,9.0,0.0
23849,78.0,0.0,30.0,0.0,0.0
23850,62.0,0.0,60.0,13.0,0.0
23851,71.0,48.0,60.0,12.0,0.0
23852,50.0,0.0,150.0,9.0,0.0
23853,66.0,0.0,60.0,0.0,0.0
23854,61.0,0.0,60.0,13.0,0.0
23855,70.0,0.0,60.0,12.0,0.0
23856,54.0,32.0,150.0,14.0,0.0
23857,78.0,48.0,60.0,0.0,0.0
23858,64.0,0.0,60.0,13.0,0.0
23859,73.0,48.0,60.0,12.0,0.0
23860,61.0,0.0,60.0,13.0,0.0
23861,70.0,16.0,60.0,12.0,0.0
23862,68.0,32.0,60.0,12.0,0.0
23863,59.0,0.0,60.0,13.0,0.0
23864,58.0,0.0,60.0,13.0,0.0
23865,50.0,0.0,90.0,9.0,0.0
23866,54.0,2.0,90.0,14.0,0.0
23867,61.0,0.0,30.0,0.0,0.0
23868,73.0,16.0,30.0,0.0,0.0
23869,66.0,46.0,60.0,12.0,0.0
23870,68.0,32.0,60.0,12.0,0.0
23871,59.0,0.0,60.0,13.0,0.0
23872,61.0,48.0,60.0,13.0,0.0
23873,50.0,0.0,90.0,9.0,0.0
23874,54.0,0.0,60.0,14.0,0.0
23875,73.0,14.0,30.0,0.0,0.0
23876,77.0,30.0,150.0,9.0,0.0
23877,70.0,0.0,60.0,12.0,0.0
23878,61.0,0.0,30.0,0.0,0.0
23879,58.0,48.0,60.0,13.0,0.0
23880,66.0,0.0,60.0,12.0,0.0
23881,61.0,0.0,60.0,0.0,0.0
23882,73.0,16.0,60.0,0.0,0.0
23883,65.0,0.0,60.0,12.0,0.0
23884,56.0,2.0,60.0,13.0,0.0
23885,49.0,30.0,150.0,14.0,0.0
23886,50.0,0.0,150.0,9.0,0.0
23887,61.0,0.0,60.0,13.0,0.0
23888,68.0,48.0,60.0,12.0,0.0
23889,65.0,18.0,60.0,12.0,0.0
23890,56.0,0.0,60.0,13.0,0.0
23891,54.0,0.0,60.0,13.0,0.0
23892,63.0,34.0,60.0,12.0,0.0
23893,49.0,34.0,90.0,14.0,0.0
23894,61.0,0.0,30.0,0.0,0.0
23895,73.0,14.0,30.0,0.0,0.0
23896,50.0,0.0,90.0,9.0,0.0
23897,61.0,0.0,60.0,12.0,0.0
23898,53.0,48.0,60.0,13.0,0.0
23899,63.0,0.0,60.0,12.0,0.0
23900,54.0,0.0,60.0,13.0,0.0
23901,49.0,48.0,90.0,14.0,0.0
23902,50.0,0.0,90.0,9.0,0.0
23903,56.0,0.0,60.0,13.0,0.0
23904,61.0,0.0,30.0,0.0,0.0
23905,73.0,14.0,30.0,0.0,0.0
23906,65.0,48.0,60.0,12.0,0.0
23907,66.0,0.0,60.0,12.0,0.0
23908,58.0,0.0,60.0,13.0,0.0
23909,65.0,2.0,60.0,12.0,0.0
23910,50.0,30.0,150.0,9.0,0.0
23911,61.0,0.0,60.0,0.0,0.0
23912,73.0,46.0,60.0,0.0,0.0
23913,56.0,0.0,60.0,13.0,0.0
23914,49.0,0.0,150.0,14.0,0.0
23915,61.0,48.0,60.0,13.0,0.0
23916,68.0,0.0,60.0,12.0,0.0
23917,65.0,0.0,60.0,12.0,0.0
23918,56.0,18.0,60.0,13.0,0.0
23919,63.0,34.0,60.0,12.0,0.0
23920,54.0,0.0,60.0,13.0,0.0
23921,61.0,14.0,30.0,0.0,0.0
23922,50.0,0.0,90.0,9.0,0.0
23923,73.0,0.0,30.0,0.0,0.0
23924,53.0,0.0,60.0,13.0,0.0
23925,49.0,34.0,90.0,14.0,0.0
23926,61.0,48.0,60.0,12.0,0.0
23927,54.0,0.0,60.0,13.0,0.0
23928,63.0,0.0,60.0,12.0,0.0
23929,73.0,0.0,30.0,0.0,0.0
23930,49.0,0.0,90.0,14.0,0.0
23931,61.0,14.0,30.0,0.0,0.0
23932,56.0,48.0,60.0,13.0,0.0
23933,77.0,30.0,150.0,9.0,0.0
23934,50.0,0.0,90.0,9.0,0.0
23935,64.0,0.0,60.0,12.0,0.0
23936,66.0,48.0,60.0,12.0,0.0
23937,57.0,0.0,60.0,13.0,0.0
23938,61.0,0.0,60.0,0.0,0.0
23939,50.0,0.0,150.0,9.0,0.0
23940,64.0,2.0,60.0,12.0,0.0
23941,73.0,16.0,60.0,0.0,0.0
23942,56.0,0.0,60.0,13.0,0.0
23943,49.0,30.0,150.0,14.0,0.0
23944,61.0,48.0,60.0,13.0,0.0
23945,68.0,0.0,60.0,12.0,0.0
23946,64.0,18.0,60.0,12.0,0.0
23947,56.0,0.0,60.0,13.0,0.0
23948,54.0,34.0,60.0,13.0,0.0
23949,63.0,0.0,60.0,12.0,0.0
23950,61.0,48.0,60.0,12.0,0.0
23951,49.0,0.0,90.0,14.0,0.0
23952,61.0,0.0,30.0,0.0,0.0
23953,73.0,14.0,30.0,0.0,0.0
23954,52.0,0.0,60.0,13.0,0.0
23955,50.0,34.0,90.0,9.0,0.0
23956,54.0,0.0,60.0,13.0,0.0
23957,63.0,0.0,60.0,12.0,0.0
23958,64.0,48.0,60.0,12.0,0.0
23959,49.0,0.0,90.0,14.0,0.0
23960,50.0,48.0,90.0,9.0,0.0
23961,73.0,14.0,30.0,0.0,0.0
23962,61.0,0.0,30.0,0.0,0.0
23963,56.0,0.0,60.0,13.0,0.0
23964,57.0,0.0,60.0,13.0,0.0
23965,66.0,0.0,60.0,12.0,0.0
23966,64.0,2.0,60.0,12.0,0.0
23967,49.0,30.0,150.0,14.0,0.0
23968,56.0,0.0,60.0,13.0,0.0
23969,50.0,0.0,150.0,9.0,0.0
23970,61.0,0.0,60.0,0.0,0.0
23971,73.0,46.0,60.0,0.0,0.0
23972,61.0,0.0,60.0,13.0,0.0
23973,68.0,48.0,60.0,12.0,0.0
23974,64.0,0.0,60.0,12.0,0.0
23975,56.0,18.0,60.0,13.0,0.0
23976,54.0,0.0,60.0,13.0,0.0
23977,63.0,34.0,60.0,12.0,0.0
23978,50.0,34.0,90.0,9.0,0.0
23979,61.0,48.0,60.0,12.0,0.0
23980,49.0,0.0,90.0,14.0,0.0
23981,52.0,0.0,60.0,13.0,0.0
23982,61.0,0.0,30.0,0.0,0.0
23983,73.0,14.0,30.0,0.0,0.0
23984,64.0,0.0,60.0,12.0,0.0
23985,56.0,0.0,60.0,13.0,0.0
23986,49.0,48.0,90.0,14.0,0.0
23987,77.0,30.0,150.0,9.0,0.0
23988,63.0,0.0,60.0,12.0,0.0
23989,61.0,14.0,30.0,0.0,0.0
23990,73.0,0.0,30.0,0.0,0.0
23991,55.0,48.0,60.0,13.0,0.0
23992,50.0,0.0,90.0,9.0,0.0
23993,64.0,0.0,60.0,12.0,0.0
23994,56.0,0.0,60.0,13.0,0.0
23995,63.0,0.0,60.0,12.0,0.0
23996,49.0,30.0,150.0,14.0,0.0
23997,73.0,0.0,60.0,0.0,0.0
23998,50.0,0.0,150.0,9.0,0.0
23999,61.0,16.0,60.0,0.0,0.0
24000,55.0,2.0,60.0,13.0,0.0
24001,61.0,48.0,60.0,13.0,0.0
24002,70.0,0.0,60.0,12.0,0.0
24003,58.0,0.0,60.0,13.0,0.0
24004,67.0,18.0,60.0,12.0,0.0
24005,56.0,0.0,60.0,13.0,0.0
24006,64.0,34.0,60.0,12.0,0.0
24007,73.0,14.0,30.0,0.0,0.0
24008,61.0,0.0,30.0,0.0,0.0
24009,49.0,0.0,90.0,14.0,0.0
24010,50.0,0.0,90.0,9.0,0.0
24011,63.0,48.0,60.0,12.0,0.0
24012,55.0,0.0,60.0,13.0,0.0
24013,64.0,0.0,60.0,12.0,0.0
24014,56.0,34.0,60.0,13.0,0.0
24015,50.0,0.0,90.0,9.0,0.0
24016,61.0,0.0,30.0,0.0,0.0
24017,73.0,14.0,30.0,0.0,0.0
24018,55.0,0.0,60.0,13.0,0.0
24019,63.0,48.0,60.0,12.0,0.0
24020,49.0,48.0,90.0,14.0,0.0
24021,56.0,0.0,60.0,13.0,0.0
24022,64.0,0.0,60.0,12.0,0.0
24023,50.0,0.0,150.0,9.0,0.0
24024,49.0,30.0,150.0,14.0,0.0
24025,61.0,0.0,60.0,0.0,0.0
24026,73.0,46.0,60.0,0.0,0.0
24027,63.0,0.0,60.0,12.0,0.0
24028,55.0,2.0,60.0,13.0,0.0
24029,70.0,0.0,60.0,12.0,0.0
24030,61.0,48.0,60.0,13.0,0.0
24031,58.0,18.0,60.0,13.0,0.0
24032,67.0,0.0,60.0,12.0,0.0
24033,64.0,0.0,60.0,12.0,0.0
24034,56.0,34.0,60.0,13.0,0.0
24035,50.0,0.0,90.0,9.0,0.0
24036,63.0,48.0,60.0,12.0,0.0
24037,49.0,0.0,90.0,14.0,0.0
24038,55.0,34.0,90.0,13.0,0.0
24039,73.0,14.0,30.0,0.0,0.0
24040,61.0,0.0,30.0,0.0,0.0
24041,64.0,0.0,60.0,12.0,0.0
24042,77.0,30.0,150.0,9.0,0.0
24043,49.0,0.0,90.0,14.0,0.0
24044,56.0,48.0,60.0,13.0,0.0
24045,63.0,0.0,60.0,12.0,0.0
24046,59.0,0.0,30.0,0.0,0.0
24047,50.0,48.0,90.0,9.0,0.0
24048,71.0,14.0,30.0,0.0,0.0
24049,64.0,0.0,60.0,12.0,0.0
24050,55.0,0.0,60.0,13.0,0.0
24051,49.0,0.0,150.0,14.0,0.0
24052,63.0,0.0,60.0,12.0,0.0
24053,56.0,2.0,60.0,13.0,0.0
24054,59.0,16.0,60.0,0.0,0.0
24055,50.0,30.0,150.0,9.0,0.0
24056,71.0,0.0,60.0,0.0,0.0
24057,68.0,0.0,60.0,12.0,0.0
24058,58.0,48.0,60.0,13.0,0.0
24059,63.0,18.0,60.0,12.0,0.0
24060,59.0,0.0,60.0,13.0,0.0
24061,58.0,34.0,60.0,13.0,0.0
24062,61.0,0.0,60.0,12.0,0.0
24063,50.0,0.0,90.0,9.0,0.0
24064,59.0,0.0,30.0,0.0,0.0
24065,71.0,14.0,30.0,0.0,0.0
24066,49.0,34.0,90.0,14.0,0.0
24067,59.0,48.0,60.0,12.0,0.0
24068,56.0,0.0,60.0,13.0,0.0
24069,58.0,0.0,60.0,13.0,0.0
24070,61.0,0.0,60.0,12.0,0.0
24071,63.0,48.0,60.0,12.0,0.0
24072,50.0,0.0,90.0,9.0,0.0
24073,49.0,0.0,90.0,14.0,0.0
24074,56.0,0.0,60.0,13.0,0.0
24075,71.0,14.0,30.0,0.0,0.0
24076,59.0,0.0,30.0,0.0,0.0
24077,64.0,48.0,60.0,12.0,0.0
24078,55.0,0.0,60.0,13.0,0.0
24079,50.0,30.0,150.0,9.0,0.0
24080,49.0,0.0,150.0,14.0,0.0
24081,59.0,46.0,60.0,0.0,0.0
24082,71.0,0.0,60.0,0.0,0.0
24083,56.0,2.0,60.0,13.0,0.0
24084,63.0,0.0,60.0,12.0,0.0
24085,68.0,0.0,60.0,12.0,0.0
24086,58.0,48.0,60.0,13.0,0.0
24087,63.0,0.0,60.0,12.0,0.0
24088,59.0,18.0,60.0,13.0,0.0
24089,58.0,0.0,60.0,13.0,0.0
24090,61.0,34.0,60.0,12.0,0.0
24091,50.0,0.0,90.0,9.0,0.0
24092,56.0,0.0,60.0,13.0,0.0
24093,59.0,0.0,30.0,0.0,0.0
24094,59.0,48.0,60.0,12.0,0.0
24095,71.0,14.0,30.0,0.0,0.0
24096,49.0,26.0,90.0,14.0,0.0
24097,54.0,0.0,60.0,13.0,0.0
24098,58.0,0.0,60.0,12.0,0.0
24099,56.0,0.0,60.0,11.0,0.0
24100,50.0,2.0,90.0,9.0,0.0
24101,56.0,2.0,60.0,12.0,0.0
24102,49.0,0.0,60.0,14.0,0.0
24103,53.0,0.0,60.0,13.0,0.0
24104,37.0,22.0,20.0,8.0,0.0
24105,77.0,32.0,150.0,9.0,0.0
24106,37.0,24.0,20.0,8.0,0.0
24107,49.0,32.0,60.0,13.0,0.0
24108,57.0,0.0,60.0,11.0,0.0
24109,37.0,22.0,20.0,8.0,0.0
24110,37.0,0.0,20.0,8.0,0.0
24111,37.0,0.0,60.0,8.0,0.0
24112,56.0,0.0,60.0,11.0,0.0
24113,47.0,16.0,60.0,13.0,0.0
24114,37.0,16.0,30.0,14.0,0.0
24115,59.0,0.0,60.0,11.0,0.0
24116,50.0,0.0,60.0,13.0,0.0
24117,47.0,0.0,60.0,13.0,0.0
24118,56.0,24.0,60.0,11.0,0.0
24119,37.0,24.0,15.0,8.0,0.0
24120,37.0,24.0,15.0,8.0,0.0
24121,45.0,0.0,60.0,13.0,0.0
24122,36.0,0.0,30.0,3.0,0.0
24123,54.0,0.0,60.0,11.0,0.0
24124,24.0,16.0,30.0,15.0,0.0
24125,37.0,8.0,20.0,8.0,0.0
24126,37.0,32.0,20.0,8.0,0.0
24127,25.0,16.0,30.0,15.0,0.0
24128,44.0,0.0,60.0,13.0,0.0
24129,37.0,0.0,30.0,3.0,0.0
24130,53.0,48.0,60.0,11.0,0.0
24131,54.0,0.0,60.0,11.0,0.0
24132,37.0,0.0,15.0,8.0,0.0
24133,45.0,0.0,60.0,13.0,0.0
24134,37.0,24.0,15.0,8.0,0.0
24135,56.0,0.0,60.0,11.0,0.0
24136,47.0,24.0,60.0,13.0,0.0
24137,37.0,0.0,20.0,8.0,0.0
24138,49.0,0.0,60.0,13.0,0.0
24139,36.0,0.0,30.0,3.0,0.0
24140,36.0,16.0,30.0,14.0,0.0
24141,57.0,32.0,60.0,11.0,0.0
24142,37.0,8.0,15.0,8.0,0.0
24143,47.0,0.0,60.0,13.0,0.0
24144,37.0,16.0,30.0,3.0,0.0
24145,56.0,48.0,60.0,11.0,0.0
24146,37.0,0.0,30.0,14.0,0.0
24147,37.0,0.0,15.0,8.0,0.0
24148,50.0,0.0,60.0,13.0,0.0
24149,59.0,0.0,60.0,11.0,0.0
24150,47.0,0.0,60.0,13.0,0.0
24151,56.0,24.0,60.0,11.0,0.0
24152,37.0,24.0,15.0,8.0,0.0
24153,37.0,24.0,15.0,8.0,0.0
24154,37.0,8.0,20.0,8.0,0.0
24155,36.0,0.0,30.0,3.0,0.0
24156,24.0,16.0,30.0,15.0,0.0
24157,45.0,0.0,60.0,13.0,0.0
24158,54.0,32.0,60.0,11.0,0.0
24159,37.0,0.0,15.0,8.0,0.0
24160,37.0,16.0,30.0,3.0,0.0
24161,44.0,0.0,60.0,13.0,0.0
24162,25.0,0.0,30.0,15.0,0.0
24163,53.0,46.0,60.0,11.0,0.0
24164,45.0,0.0,60.0,13.0,0.0
24165,54.0,2.0,60.0,11.0,0.0
24166,37.0,24.0,60.0,8.0,0.0
24167,56.0,24.0,60.0,11.0,0.0
24168,47.0,0.0,60.0,13.0,0.0
24169,37.0,24.0,15.0,8.0,0.0
24170,50.0,0.0,60.0,13.0,0.0
24171,37.0,0.0,15.0,8.0,0.0
24172,41.0,16.0,30.0,14.0,0.0
24173,59.0,0.0,60.0,11.0,0.0
24174,41.0,0.0,30.0,3.0,0.0
24175,58.0,48.0,60.0,11.0,0.0
24176,42.0,0.0,30.0,14.0,0.0
24177,42.0,16.0,30.0,3.0,0.0
24178,49.0,0.0,60.0,13.0,0.0
24179,37.0,32.0,15.0,8.0,0.0
24180,52.0,0.0,60.0,13.0,0.0
24181,61.0,0.0,60.0,11.0,0.0
24182,37.0,24.0,60.0,8.0,0.0
24183,49.0,0.0,60.0,13.0,0.0
24184,37.0,24.0,20.0,8.0,0.0
24185,58.0,0.0,60.0,11.0,0.0
24186,29.0,0.0,30.0,15.0,0.0
24187,47.0,0.0,60.0,13.0,0.0
24188,37.0,24.0,15.0,8.0,0.0
24189,41.0,16.0,30.0,3.0,0.0
24190,56.0,32.0,60.0,11.0,0.0
24191,37.0,8.0,15.0,8.0,0.0
24192,46.0,0.0,60.0,13.0,0.0
24193,42.0,0.0,30.0,3.0,0.0
24194,37.0,0.0,60.0,8.0,0.0
24195,30.0,16.0,30.0,15.0,0.0
24196,54.0,48.0,60.0,11.0,0.0
24197,56.0,0.0,60.0,11.0,0.0
24198,47.0,24.0,60.0,13.0,0.0
24199,37.0,0.0,60.0,8.0,0.0
24200,58.0,0.0,60.0,11.0,0.0
24201,49.0,24.0,60.0,13.0,0.0
24202,37.0,24.0,15.0,8.0,0.0
24203,41.0,16.0,30.0,3.0,0.0
24204,59.0,0.0,60.0,11.0,0.0
24205,37.0,0.0,15.0,8.0,0.0
24206,41.0,0.0,30.0,14.0,0.0
24207,50.0,32.0,60.0,13.0,0.0
24208,37.0,8.0,15.0,8.0,0.0
24209,42.0,0.0,30.0,3.0,0.0
24210,49.0,48.0,60.0,13.0,0.0
24211,58.0,0.0,60.0,11.0,0.0
24212,37.0,0.0,15.0,8.0,0.0
24213,42.0,16.0,30.0,14.0,0.0
24214,61.0,0.0,60.0,11.0,0.0
24215,52.0,24.0,60.0,13.0,0.0
24216,37.0,0.0,15.0,8.0,0.0
24217,58.0,24.0,60.0,11.0,0.0
24218,37.0,24.0,20.0,8.0,0.0
24219,49.0,0.0,60.0,13.0,0.0
24220,37.0,0.0,20.0,8.0,0.0
24221,37.0,8.0,20.0,8.0,0.0
24222,29.0,16.0,30.0,15.0,0.0
24223,47.0,32.0,60.0,13.0,0.0
24224,56.0,0.0,60.0,11.0,0.0
24225,41.0,0.0,30.0,3.0,0.0
24226,37.0,0.0,20.0,8.0,0.0
24227,54.0,46.0,60.0,11.0,0.0
24228,37.0,0.0,60.0,8.0,0.0
24229,30.0,16.0,30.0,15.0,0.0
24230,46.0,0.0,60.0,13.0,0.0
24231,42.0,0.0,30.0,3.0,0.0
24232,58.0,0.0,60.0,13.0,0.0
24233,37.0,48.0,60.0,8.0,0.0
24234,64.0,2.0,60.0,11.0,0.0
24235,59.0,2.0,90.0,13.0,0.0
24236,63.0,0.0,90.0,11.0,0.0
24237,47.0,0.0,60.0,3.0,0.0
24238,35.0,0.0,60.0,2.0,0.0
24239,37.0,46.0,15.0,8.0,0.0
24240,35.0,0.0,60.0,3.0,0.0
24241,37.0,0.0,15.0,8.0,0.0
24242,37.0,0.0,60.0,2.0,0.0
24243,37.0,0.0,60.0,3.0,0.0
24244,49.0,0.0,60.0,3.0,0.0
24245,75.0,0.0,60.0,11.0,0.0
24246,37.0,0.0,15.0,8.0,0.0
24247,71.0,0.0,60.0,12.0,0.0
24248,35.0,0.0,60.0,2.0,0.0
24249,35.0,0.0,60.0,3.0,0.0
24250,47.0,0.0,60.0,3.0,0.0
24251,70.0,0.0,60.0,12.0,0.0
24252,37.0,0.0,150.0,2.0,0.0
24253,73.0,48.0,60.0,11.0,0.0
24254,37.0,48.0,15.0,8.0,0.0
24255,37.0,0.0,150.0,3.0,0.0
24256,49.0,0.0,150.0,3.0,0.0
24257,68.0,0.0,60.0,12.0,0.0
24258,71.0,48.0,60.0,11.0,0.0
24259,70.0,0.0,60.0,11.0,0.0
24260,66.0,16.0,60.0,12.0,0.0
24261,68.0,0.0,60.0,11.0,0.0
24262,64.0,94.0,60.0,12.0,0.0
24263,63.0,0.0,90.0,12.0,0.0
24264,66.0,2.0,90.0,11.0,0.0
24265,39.0,0.0,60.0,2.0,0.0
24266,51.0,0.0,60.0,3.0,0.0
24267,39.0,0.0,60.0,3.0,0.0
24268,52.0,0.0,60.0,3.0,0.0
24269,40.0,48.0,60.0,2.0,0.0
24270,40.0,0.0,60.0,3.0,0.0
24271,51.0,0.0,60.0,3.0,0.0
24272,39.0,0.0,60.0,3.0,0.0
24273,39.0,48.0,60.0,2.0,0.0
24274,66.0,0.0,60.0,12.0,0.0
24275,69.0,0.0,60.0,11.0,0.0
24276,68.0,0.0,60.0,11.0,0.0
24277,64.0,48.0,60.0,12.0,0.0
24278,40.0,0.0,150.0,3.0,0.0
24279,52.0,32.0,150.0,3.0,0.0
24280,40.0,0.0,150.0,2.0,0.0
24281,63.0,48.0,60.0,12.0,0.0
24282,66.0,0.0,60.0,11.0,0.0
24283,64.0,16.0,60.0,11.0,0.0
24284,61.0,0.0,60.0,12.0,0.0
24285,59.0,94.0,60.0,12.0,0.0
24286,63.0,0.0,60.0,11.0,0.0
24287,58.0,2.0,90.0,12.0,0.0
24288,61.0,0.0,90.0,11.0,0.0
24289,53.0,0.0,60.0,3.0,0.0
24290,41.0,0.0,60.0,2.0,0.0
24291,41.0,0.0,60.0,3.0,0.0
24292,54.0,0.0,60.0,3.0,0.0
24293,42.0,0.0,60.0,2.0,0.0
24294,42.0,0.0,60.0,3.0,0.0
24295,41.0,0.0,60.0,2.0,0.0
24296,67.0,0.0,60.0,11.0,0.0
24297,53.0,48.0,60.0,3.0,0.0
24298,41.0,0.0,60.0,3.0,0.0
24299,64.0,0.0,60.0,12.0,0.0
24300,54.0,0.0,150.0,3.0,0.0
24301,62.0,48.0,60.0,12.0,0.0
24302,66.0,0.0,60.0,11.0,0.0
24303,42.0,0.0,150.0,3.0,0.0
24304,42.0,32.0,150.0,2.0,0.0
24305,64.0,48.0,60.0,11.0,0.0
24306,61.0,0.0,60.0,12.0,0.0
24307,59.0,0.0,60.0,12.0,0.0
24308,62.0,16.0,60.0,11.0,0.0
24309,61.0,94.0,60.0,11.0,0.0
24310,58.0,0.0,60.0,12.0,0.0
24311,59.0,0.0,90.0,12.0,0.0
24312,62.0,2.0,90.0,11.0,0.0
24313,65.0,0.0,60.0,2.0,0.0
24314,53.0,48.0,60.0,2.0,0.0
24315,66.0,0.0,60.0,2.0,0.0
24316,54.0,48.0,60.0,2.0,0.0
24317,53.0,0.0,60.0,2.0,0.0
24318,64.0,48.0,60.0,12.0,0.0
24319,67.0,0.0,60.0,11.0,0.0
24320,65.0,0.0,60.0,2.0,0.0
24321,62.0,48.0,60.0,12.0,0.0
24322,54.0,0.0,150.0,2.0,0.0
24323,66.0,0.0,60.0,11.0,0.0
24324,66.0,32.0,150.0,2.0,0.0
24325,61.0,0.0,60.0,12.0,0.0
24326,64.0,48.0,60.0,11.0,0.0
24327,59.0,0.0,60.0,12.0,0.0
24328,62.0,16.0,60.0,11.0,0.0
24329,58.0,94.0,60.0,12.0,0.0
24330,61.0,0.0,60.0,11.0,0.0
24331,61.0,2.0,90.0,12.0,0.0
24332,64.0,0.0,90.0,11.0,0.0
24333,55.0,0.0,60.0,3.0,0.0
24334,55.0,0.0,60.0,2.0,0.0
24335,43.0,0.0,60.0,3.0,0.0
24336,43.0,48.0,60.0,2.0,0.0
24337,56.0,0.0,60.0,2.0,0.0
24338,44.0,0.0,60.0,3.0,0.0
24339,56.0,0.0,60.0,3.0,0.0
24340,44.0,0.0,60.0,2.0,0.0
24341,69.0,0.0,60.0,11.0,0.0
24342,66.0,0.0,60.0,12.0,0.0
24343,55.0,0.0,60.0,3.0,0.0
24344,55.0,0.0,60.0,2.0,0.0
24345,43.0,0.0,60.0,2.0,0.0
24346,43.0,0.0,60.0,3.0,0.0
24347,64.0,0.0,60.0,12.0,0.0
24348,44.0,0.0,150.0,2.0,0.0
24349,56.0,32.0,150.0,2.0,0.0
24350,44.0,0.0,150.0,3.0,0.0
24351,56.0,0.0,150.0,3.0,0.0
24352,68.0,48.0,60.0,11.0,0.0
24353,63.0,0.0,60.0,12.0,0.0
24354,66.0,48.0,60.0,11.0,0.0
24355,61.0,0.0,60.0,12.0,0.0
24356,64.0,16.0,60.0,11.0,0.0
24357,60.0,0.0,60.0,12.0,0.0
24358,63.0,94.0,60.0,11.0,0.0
24359,64.0,0.0,90.0,11.0,0.0
24360,61.0,2.0,90.0,12.0,0.0
24361,55.0,0.0,60.0,2.0,0.0
24362,67.0,48.0,60.0,2.0,0.0
24363,56.0,0.0,60.0,2.0,0.0
24364,68.0,48.0,60.0,2.0,0.0
24365,55.0,0.0,60.0,2.0,0.0
24366,66.0,48.0,60.0,12.0,0.0
24367,67.0,0.0,60.0,2.0,0.0
24368,69.0,0.0,60.0,11.0,0.0
24369,68.0,0.0,150.0,2.0,0.0
24370,68.0,0.0,60.0,11.0,0.0
24371,56.0,30.0,150.0,2.0,0.0
24372,64.0,48.0,60.0,12.0,0.0
24373,63.0,0.0,60.0,12.0,0.0
24374,66.0,48.0,60.0,11.0,0.0
24375,64.0,16.0,60.0,11.0,0.0
24376,61.0,0.0,60.0,12.0,0.0
24377,63.0,96.0,60.0,11.0,0.0
24378,60.0,0.0,60.0,12.0,0.0
24379,63.0,0.0,90.0,12.0,0.0
24380,66.0,2.0,90.0,11.0,0.0
24381,69.0,48.0,60.0,2.0,0.0
24382,57.0,0.0,60.0,2.0,0.0
24383,58.0,48.0,60.0,2.0,0.0
24384,70.0,0.0,60.0,2.0,0.0
24385,68.0,0.0,60.0,12.0,0.0
24386,57.0,48.0,60.0,2.0,0.0
24387,69.0,0.0,60.0,2.0,0.0
24388,71.0,0.0,60.0,11.0,0.0
24389,66.0,0.0,60.0,12.0,0.0
24390,58.0,30.0,150.0,2.0,0.0
24391,70.0,0.0,150.0,2.0,0.0
24392,70.0,48.0,60.0,11.0,0.0
24393,65.0,48.0,60.0,12.0,0.0
24394,68.0,0.0,60.0,11.0,0.0
24395,66.0,0.0,60.0,11.0,0.0
24396,63.0,16.0,60.0,12.0,0.0
24397,62.0,0.0,60.0,12.0,0.0
24398,65.0,96.0,60.0,11.0,0.0
24399,68.0,0.0,90.0,11.0,0.0
24400,65.0,2.0,90.0,12.0,0.0
24401,58.0,48.0,60.0,2.0,0.0
24402,70.0,0.0,60.0,2.0,0.0
24403,71.0,0.0,60.0,2.0,0.0
24404,59.0,48.0,60.0,2.0,0.0
24405,72.0,0.0,60.0,2.0,0.0
24406,60.0,0.0,60.0,2.0,0.0
24407,71.0,0.0,60.0,12.0,0.0
24408,74.0,48.0,60.0,11.0,0.0
24409,69.0,48.0,60.0,12.0,0.0
24410,73.0,0.0,150.0,2.0,0.0
24411,61.0,30.0,150.0,2.0,0.0
24412,73.0,0.0,60.0,11.0,0.0
24413,68.0,48.0,60.0,12.0,0.0
24414,71.0,0.0,60.0,11.0,0.0
24415,69.0,0.0,60.0,11.0,0.0
24416,66.0,16.0,60.0,12.0,0.0
24417,68.0,0.0,60.0,11.0,0.0
24418,65.0,96.0,60.0,12.0,0.0
24419,71.0,2.0,90.0,11.0,0.0
24420,68.0,0.0,90.0,12.0,0.0
24421,60.0,48.0,60.0,14.0,0.0
24422,72.0,0.0,60.0,2.0,0.0
24423,60.0,0.0,60.0,2.0,0.0
24424,61.0,0.0,60.0,14.0,0.0
24425,73.0,0.0,60.0,2.0,0.0
24426,61.0,48.0,60.0,2.0,0.0
24427,69.0,48.0,60.0,12.0,0.0
24428,60.0,0.0,60.0,14.0,0.0
24429,72.0,0.0,60.0,2.0,0.0
24430,78.0,0.0,60.0,0.0,0.0
24431,69.0,0.0,60.0,1.0,0.0
24432,78.0,0.0,60.0,1.0,0.0
24433,78.0,0.0,60.0,11.0,0.0
24434,60.0,0.0,60.0,2.0,0.0
24435,69.0,0.0,60.0,0.0,0.0
24436,77.0,0.0,60.0,1.0,0.0
24437,68.0,0.0,60.0,1.0,0.0
24438,68.0,0.0,60.0,0.0,0.0
24439,61.0,0.0,90.0,14.0,0.0
24440,68.0,46.0,60.0,12.0,0.0
24441,73.0,2.0,90.0,2.0,0.0
24442,77.0,0.0,60.0,11.0,0.0
24443,61.0,0.0,90.0,2.0,0.0
24444,77.0,0.0,60.0,0.0,0.0
24445,69.0,0.0,60.0,0.0,0.0
24446,50.0,0.0,60.0,9.0,0.0
24447,78.0,0.0,60.0,0.0,0.0
24448,78.0,48.0,60.0,11.0,0.0
24449,69.0,0.0,60.0,12.0,0.0
24450,78.0,0.0,60.0,1.0,0.0
24451,69.0,0.0,60.0,1.0,0.0
24452,68.0,0.0,60.0,0.0,0.0
24453,50.0,0.0,90.0,9.0,0.0
24454,77.0,0.0,60.0,0.0,0.0
24455,68.0,0.0,60.0,1.0,0.0
24456,68.0,16.0,60.0,12.0,0.0
24457,77.0,0.0,60.0,1.0,0.0
24458,77.0,0.0,60.0,11.0,0.0
24459,78.0,0.0,60.0,11.0,0.0
24460,72.0,0.0,60.0,2.0,0.0
24461,78.0,0.0,60.0,1.0,0.0
24462,69.0,32.0,60.0,12.0,0.0
24463,69.0,0.0,60.0,1.0,0.0
24464,48.0,0.0,60.0,14.0,0.0
24465,48.0,0.0,60.0,3.0,0.0
24466,69.0,0.0,60.0,0.0,0.0
24467,78.0,0.0,60.0,0.0,0.0
24468,34.0,24.0,15.0,9.0,0.0
24469,48.0,2.0,60.0,2.0,0.0
24470,34.0,6.0,15.0,9.0,0.0
24471,34.0,16.0,30.0,9.0,0.0
24472,49.0,2.0,90.0,2.0,0.0
24473,73.0,0.0,90.0,2.0,0.0
24474,49.0,0.0,90.0,14.0,0.0
24475,77.0,0.0,60.0,1.0,0.0
24476,68.0,32.0,60.0,1.0,0.0
24477,77.0,0.0,60.0,11.0,0.0
24478,49.0,0.0,90.0,3.0,0.0
24479,68.0,0.0,60.0,12.0,0.0
24480,68.0,0.0,60.0,0.0,0.0
24481,77.0,0.0,60.0,0.0,0.0
24482,69.0,32.0,60.0,0.0,0.0
24483,78.0,0.0,60.0,0.0,0.0
24484,78.0,0.0,60.0,1.0,0.0
24485,69.0,0.0,60.0,1.0,0.0
24486,78.0,0.0,60.0,11.0,0.0
24487,69.0,0.0,60.0,12.0,0.0
24488,34.0,14.0,30.0,9.0,0.0
24489,34.0,16.0,30.0,9.0,0.0
24490,68.0,0.0,60.0,1.0,0.0
24491,68.0,0.0,60.0,12.0,0.0
24492,68.0,16.0,60.0,0.0,0.0
24493,77.0,0.0,60.0,0.0,0.0
24494,77.0,0.0,60.0,11.0,0.0
24495,77.0,0.0,60.0,1.0,0.0
24496,34.0,24.0,15.0,9.0,0.0
24497,69.0,32.0,60.0,12.0,0.0
24498,60.0,0.0,60.0,2.0,0.0
24499,78.0,0.0,60.0,11.0,0.0
24500,36.0,0.0,60.0,2.0,0.0
24501,69.0,0.0,60.0,1.0,0.0
24502,78.0,0.0,60.0,1.0,0.0
24503,36.0,2.0,60.0,14.0,0.0
24504,36.0,0.0,60.0,3.0,0.0
24505,69.0,0.0,60.0,0.0,0.0
24506,78.0,0.0,60.0,0.0,0.0
24507,34.0,6.0,15.0,9.0,0.0
24508,68.0,0.0,60.0,12.0,0.0
24509,37.0,0.0,90.0,2.0,0.0
24510,77.0,32.0,60.0,11.0,0.0
24511,37.0,2.0,90.0,14.0,0.0
24512,37.0,0.0,90.0,3.0,0.0
24513,77.0,0.0,60.0,1.0,0.0
24514,68.0,0.0,60.0,1.0,0.0
24515,61.0,0.0,90.0,2.0,0.0
24516,68.0,0.0,60.0,0.0,0.0
24517,77.0,0.0,60.0,0.0,0.0
24518,34.0,16.0,30.0,9.0,0.0
24519,66.0,0.0,60.0,1.0,0.0
24520,74.0,0.0,60.0,1.0,0.0
24521,34.0,14.0,30.0,9.0,0.0
24522,74.0,0.0,60.0,11.0,0.0
24523,66.0,32.0,60.0,12.0,0.0
24524,50.0,0.0,60.0,9.0,0.0
24525,74.0,0.0,60.0,0.0,0.0
24526,66.0,0.0,60.0,0.0,0.0
24527,34.0,16.0,30.0,9.0,0.0
24528,65.0,0.0,60.0,1.0,0.0
24529,73.0,0.0,60.0,1.0,0.0
24530,73.0,16.0,60.0,11.0,0.0
24531,65.0,0.0,60.0,0.0,0.0
24532,50.0,0.0,90.0,9.0,0.0
24533,65.0,0.0,60.0,12.0,0.0
24534,73.0,0.0,60.0,0.0,0.0
24535,71.0,34.0,60.0,0.0,0.0
24536,68.0,0.0,60.0,0.0,0.0
24537,68.0,0.0,60.0,1.0,0.0
24538,71.0,0.0,60.0,1.0,0.0
24539,63.0,0.0,60.0,12.0,0.0
24540,34.0,24.0,15.0,9.0,0.0
24541,71.0,0.0,60.0,11.0,0.0
24542,34.0,6.0,15.0,9.0,0.0
24543,69.0,0.0,90.0,11.0,0.0
24544,66.0,0.0,90.0,0.0,0.0
24545,69.0,2.0,90.0,1.0,0.0
24546,66.0,0.0,90.0,1.0,0.0
24547,34.0,62.0,30.0,9.0,0.0
24548,69.0,0.0,90.0,0.0,0.0
24549,66.0,0.0,90.0,12.0,0.0
24550,42.0,0.0,60.0,14.0,0.0
24551,42.0,0.0,60.0,3.0,0.0
24552,42.0,0.0,60.0,2.0,0.0
24553,54.0,0.0,60.0,4.0,0.0
24554,30.0,0.0,60.0,3.0,0.0
24555,66.0,48.0,60.0,2.0,0.0
24556,44.0,0.0,60.0,2.0,0.0
24557,44.0,0.0,60.0,14.0,0.0
24558,56.0,0.0,60.0,4.0,0.0
24559,32.0,0.0,60.0,3.0,0.0
24560,44.0,0.0,60.0,3.0,0.0
24561,68.0,0.0,60.0,2.0,0.0
24562,66.0,0.0,60.0,0.0,0.0
24563,57.0,0.0,60.0,0.0,0.0
24564,30.0,0.0,60.0,3.0,0.0
24565,66.0,2.0,60.0,1.0,0.0
24566,42.0,0.0,60.0,14.0,0.0
24567,42.0,0.0,60.0,3.0,0.0
24568,57.0,0.0,60.0,1.0,0.0
24569,66.0,0.0,60.0,2.0,0.0
24570,34.0,14.0,30.0,9.0,0.0
24571,54.0,0.0,60.0,4.0,0.0
24572,57.0,0.0,30.0,12.0,0.0
24573,66.0,0.0,60.0,11.0,0.0
24574,42.0,32.0,60.0,2.0,0.0
24575,44.0,0.0,90.0,14.0,0.0
24576,34.0,0.0,30.0,9.0,0.0
24577,59.0,0.0,90.0,0.0,0.0
24578,65.0,0.0,60.0,11.0,0.0
24579,56.0,0.0,90.0,4.0,0.0
24580,44.0,0.0,90.0,3.0,0.0
24581,59.0,0.0,90.0,1.0,0.0
24582,68.0,0.0,90.0,2.0,0.0
24583,65.0,0.0,60.0,0.0,0.0
24584,44.0,0.0,90.0,2.0,0.0
24585,59.0,14.0,30.0,12.0,0.0
24586,65.0,48.0,60.0,1.0,0.0
24587,68.0,0.0,60.0,11.0,0.0
24588,50.0,0.0,60.0,9.0,0.0
24589,68.0,2.0,60.0,1.0,0.0
24590,68.0,0.0,60.0,0.0,0.0
24591,56.0,34.0,90.0,2.0,0.0
24592,32.0,46.0,15.0,3.0,0.0
24593,32.0,0.0,90.0,2.0,0.0
24594,71.0,0.0,60.0,0.0,0.0
24595,71.0,0.0,60.0,11.0,0.0
24596,71.0,34.0,60.0,1.0,0.0
24597,20.0,0.0,90.0,3.0,0.0
24598,50.0,0.0,90.0,9.0,0.0
24599,32.0,0.0,90.0,14.0,0.0
24600,74.0,0.0,60.0,11.0,0.0
24601,34.0,14.0,30.0,9.0,0.0
24602,74.0,0.0,60.0,1.0,0.0
24603,65.0,0.0,60.0,1.0,0.0
24604,74.0,0.0,60.0,0.0,0.0
24605,65.0,0.0,60.0,0.0,0.0
24606,65.0,0.0,30.0,12.0,0.0
24607,22.0,0.0,60.0,3.0,0.0
24608,34.0,16.0,30.0,9.0,0.0
24609,64.0,0.0,30.0,12.0,0.0
24610,58.0,0.0,60.0,2.0,0.0
24611,73.0,0.0,90.0,1.0,0.0
24612,34.0,0.0,60.0,14.0,0.0
24613,34.0,0.0,60.0,2.0,0.0
24614,64.0,0.0,90.0,0.0,0.0
24615,73.0,2.0,90.0,11.0,0.0
24616,64.0,0.0,90.0,1.0,0.0
24617,73.0,0.0,90.0,0.0,0.0
24618,34.0,46.0,15.0,3.0,0.0
24619,46.0,0.0,60.0,3.0,0.0
24620,70.0,48.0,60.0,2.0,0.0
24621,50.0,0.0,60.0,9.0,0.0
24622,46.0,0.0,60.0,2.0,0.0
24623,58.0,0.0,60.0,4.0,0.0
24624,46.0,0.0,60.0,14.0,0.0
24625,47.0,0.0,60.0,3.0,0.0
24626,50.0,0.0,90.0,9.0,0.0
24627,47.0,0.0,60.0,14.0,0.0
24628,59.0,0.0,60.0,4.0,0.0
24629,47.0,32.0,60.0,2.0,0.0
24630,35.0,0.0,60.0,3.0,0.0
24631,71.0,0.0,60.0,2.0,0.0
24632,61.0,0.0,30.0,12.0,0.0
24633,67.0,0.0,60.0,0.0,0.0
24634,61.0,0.0,60.0,1.0,0.0
24635,46.0,0.0,60.0,14.0,0.0
24636,34.0,0.0,60.0,3.0,0.0
24637,67.0,0.0,60.0,1.0,0.0
24638,67.0,2.0,60.0,11.0,0.0
24639,46.0,0.0,60.0,3.0,0.0
24640,58.0,0.0,60.0,4.0,0.0
24641,61.0,0.0,60.0,0.0,0.0
24642,46.0,0.0,60.0,2.0,0.0
24643,70.0,32.0,60.0,2.0,0.0
24644,34.0,14.0,30.0,9.0,0.0
24645,47.0,0.0,90.0,2.0,0.0
24646,47.0,46.0,90.0,14.0,0.0
24647,62.0,0.0,90.0,1.0,0.0
24648,66.0,0.0,60.0,1.0,0.0
24649,66.0,0.0,60.0,0.0,0.0
24650,66.0,48.0,60.0,11.0,0.0
24651,62.0,14.0,30.0,12.0,0.0
24652,71.0,0.0,90.0,2.0,0.0
24653,34.0,0.0,30.0,9.0,0.0
24654,59.0,0.0,90.0,4.0,0.0
24655,47.0,0.0,90.0,3.0,0.0
24656,62.0,0.0,90.0,0.0,0.0
24657,50.0,0.0,60.0,9.0,0.0
24658,71.0,0.0,60.0,0.0,0.0
24659,71.0,2.0,60.0,11.0,0.0
24660,71.0,0.0,60.0,1.0,0.0
24661,35.0,0.0,90.0,2.0,0.0
24662,74.0,0.0,60.0,0.0,0.0
24663,23.0,34.0,90.0,3.0,0.0
24664,35.0,0.0,15.0,3.0,0.0
24665,74.0,34.0,60.0,1.0,0.0
24666,59.0,0.0,90.0,2.0,0.0
24667,50.0,0.0,90.0,9.0,0.0
24668,35.0,0.0,90.0,14.0,0.0
24669,74.0,0.0,60.0,11.0,0.0
24670,74.0,0.0,60.0,1.0,0.0
24671,74.0,0.0,30.0,12.0,0.0
24672,34.0,14.0,30.0,9.0,0.0
24673,78.0,0.0,60.0,11.0,0.0
24674,74.0,0.0,60.0,0.0,0.0
24675,78.0,0.0,60.0,0.0,0.0
24676,78.0,0.0,60.0,1.0,0.0
24677,25.0,0.0,90.0,3.0,0.0
24678,37.0,0.0,90.0,3.0,0.0
24679,34.0,14.0,30.0,9.0,0.0
24680,61.0,0.0,90.0,2.0,0.0
24681,77.0,0.0,90.0,1.0,0.0
24682,77.0,0.0,90.0,11.0,0.0
24683,73.0,0.0,30.0,12.0,0.0
24684,77.0,0.0,90.0,0.0,0.0
24685,73.0,0.0,90.0,0.0,0.0
24686,73.0,0.0,90.0,1.0,0.0
24687,37.0,48.0,60.0,14.0,0.0
24688,61.0,0.0,90.0,4.0,0.0
24689,37.0,0.0,90.0,2.0,0.0
24690,49.0,48.0,60.0,14.0,0.0
24691,50.0,0.0,60.0,9.0,0.0
24692,47.0,34.0,60.0,14.0,0.0
24693,50.0,0.0,90.0,9.0,0.0
24694,68.0,0.0,30.0,11.0,0.0
24695,49.0,34.0,60.0,14.0,0.0
24696,34.0,14.0,30.0,9.0,0.0
24697,65.0,0.0,30.0,12.0,0.0
24698,34.0,0.0,30.0,9.0,0.0
24699,45.0,48.0,60.0,14.0,0.0
24700,66.0,14.0,30.0,12.0,0.0
24701,73.0,0.0,30.0,11.0,0.0
24702,50.0,48.0,60.0,9.0,0.0
24703,44.0,0.0,60.0,14.0,0.0
24704,50.0,34.0,90.0,9.0,0.0
24705,42.0,34.0,60.0,14.0,0.0
24706,53.0,0.0,30.0,12.0,0.0
24707,44.0,0.0,60.0,14.0,0.0
24708,59.0,14.0,30.0,11.0,0.0
24709,34.0,0.0,30.0,9.0,0.0
24710,57.0,14.0,30.0,11.0,0.0
24711,34.0,0.0,30.0,9.0,0.0
24712,54.0,0.0,30.0,12.0,0.0
24713,45.0,48.0,60.0,14.0,0.0
24714,47.0,0.0,60.0,14.0,0.0
24715,50.0,48.0,60.0,9.0,0.0
24716,50.0,34.0,90.0,9.0,0.0
24717,45.0,34.0,60.0,14.0,0.0
24718,49.0,0.0,60.0,14.0,0.0
24719,65.0,0.0,30.0,12.0,0.0
24720,68.0,0.0,30.0,11.0,0.0
24721,34.0,14.0,30.0,9.0,0.0
24722,45.0,48.0,60.0,14.0,0.0
24723,73.0,0.0,30.0,11.0,0.0
24724,34.0,0.0,30.0,9.0,0.0
24725,66.0,14.0,30.0,12.0,0.0
24726,44.0,48.0,60.0,14.0,0.0
24727,50.0,0.0,60.0,9.0,0.0
24728,50.0,0.0,90.0,9.0,0.0
24729,42.0,34.0,60.0,14.0,0.0
24730,53.0,0.0,60.0,13.0,0.0
24731,44.0,0.0,60.0,14.0,0.0
24732,34.0,14.0,30.0,9.0,0.0
24733,59.0,34.0,60.0,13.0,0.0
24734,34.0,14.0,30.0,9.0,0.0
24735,57.0,0.0,60.0,13.0,0.0
24736,45.0,48.0,60.0,14.0,0.0
24737,54.0,0.0,60.0,13.0,0.0
24738,73.0,0.0,60.0,5.0,0.0
24739,61.0,0.0,60.0,1.0,0.0
24740,61.0,0.0,60.0,2.0,0.0
24741,73.0,0.0,60.0,2.0,0.0
24742,56.0,0.0,60.0,13.0,0.0
24743,52.0,2.0,60.0,14.0,0.0
24744,73.0,0.0,60.0,1.0,0.0
24745,61.0,0.0,60.0,4.0,0.0
24746,61.0,0.0,60.0,5.0,0.0
24747,61.0,0.0,60.0,12.0,0.0
24748,49.0,46.0,60.0,4.0,0.0
24749,49.0,0.0,60.0,2.0,0.0
24750,73.0,0.0,60.0,11.0,0.0
24751,51.0,2.0,60.0,14.0,0.0
24752,63.0,0.0,60.0,1.0,0.0
24753,75.0,0.0,60.0,1.0,0.0
24754,75.0,46.0,60.0,5.0,0.0
24755,63.0,0.0,60.0,4.0,0.0
24756,54.0,0.0,60.0,13.0,0.0
24757,63.0,0.0,60.0,12.0,0.0
24758,63.0,0.0,60.0,5.0,0.0
24759,75.0,0.0,60.0,11.0,0.0
24760,51.0,0.0,60.0,4.0,0.0
24761,51.0,0.0,60.0,2.0,0.0
24762,75.0,0.0,60.0,2.0,0.0
24763,63.0,0.0,60.0,2.0,0.0
24764,61.0,0.0,60.0,1.0,0.0
24765,49.0,0.0,60.0,2.0,0.0
24766,52.0,2.0,60.0,13.0,0.0
24767,61.0,46.0,60.0,4.0,0.0
24768,49.0,0.0,60.0,4.0,0.0
24769,49.0,0.0,60.0,14.0,0.0
24770,61.0,0.0,60.0,12.0,0.0
24771,61.0,0.0,60.0,2.0,0.0
24772,73.0,0.0,60.0,2.0,0.0
24773,73.0,0.0,60.0,11.0,0.0
24774,73.0,0.0,60.0,1.0,0.0
24775,61.0,0.0,60.0,5.0,0.0
24776,73.0,0.0,60.0,5.0,0.0
24777,75.0,0.0,150.0,11.0,0.0
24778,48.0,48.0,60.0,13.0,0.0
24779,75.0,0.0,150.0,1.0,0.0
24780,63.0,0.0,150.0,1.0,0.0
24781,75.0,0.0,150.0,5.0,0.0
24782,51.0,0.0,150.0,2.0,0.0
24783,51.0,0.0,150.0,4.0,0.0
24784,63.0,0.0,150.0,2.0,0.0
24785,63.0,0.0,150.0,5.0,0.0
24786,48.0,48.0,90.0,14.0,0.0
24787,63.0,0.0,150.0,12.0,0.0
24788,63.0,0.0,150.0,4.0,0.0
24789,75.0,30.0,150.0,2.0,0.0
24790,51.0,0.0,60.0,13.0,0.0
24791,54.0,18.0,60.0,13.0,0.0
24792,57.0,48.0,60.0,13.0,0.0
24793,56.0,48.0,60.0,13.0,0.0
24794,49.0,0.0,60.0,14.0,0.0
24795,59.0,0.0,60.0,14.0,0.0
24796,77.0,0.0,60.0,1.0,0.0
24797,65.0,0.0,60.0,1.0,0.0
24798,77.0,0.0,60.0,11.0,0.0
24799,53.0,0.0,60.0,2.0,0.0
24800,65.0,0.0,60.0,12.0,0.0
24801,53.0,0.0,60.0,4.0,0.0
24802,65.0,0.0,60.0,5.0,0.0
24803,65.0,0.0,60.0,4.0,0.0
24804,65.0,0.0,60.0,2.0,0.0
24805,62.0,2.0,60.0,13.0,0.0
24806,77.0,46.0,60.0,5.0,0.0
24807,77.0,0.0,60.0,2.0,0.0
24808,78.0,0.0,60.0,11.0,0.0
24809,54.0,0.0,60.0,2.0,0.0
24810,78.0,0.0,60.0,2.0,0.0
24811,66.0,0.0,60.0,4.0,0.0
24812,54.0,46.0,60.0,4.0,0.0
24813,57.0,0.0,60.0,14.0,0.0
24814,66.0,0.0,60.0,2.0,0.0
24815,61.0,2.0,60.0,13.0,0.0
24816,66.0,0.0,60.0,5.0,0.0
24817,78.0,0.0,60.0,1.0,0.0
24818,78.0,0.0,60.0,5.0,0.0
24819,66.0,0.0,60.0,1.0,0.0
24820,66.0,0.0,60.0,12.0,0.0
24821,65.0,0.0,60.0,12.0,0.0
24822,59.0,2.0,60.0,13.0,0.0
24823,65.0,0.0,60.0,4.0,0.0
24824,65.0,0.0,60.0,5.0,0.0
24825,56.0,0.0,60.0,14.0,0.0
24826,77.0,46.0,60.0,11.0,0.0
24827,53.0,0.0,60.0,2.0,0.0
24828,77.0,0.0,60.0,1.0,0.0
24829,77.0,0.0,60.0,2.0,0.0
24830,65.0,0.0,60.0,2.0,0.0
24831,53.0,0.0,60.0,4.0,0.0
24832,65.0,0.0,60.0,1.0,0.0
24833,77.0,0.0,60.0,5.0,0.0
24834,78.0,0.0,150.0,1.0,0.0
24835,78.0,0.0,150.0,2.0,0.0
24836,78.0,0.0,150.0,11.0,0.0
24837,66.0,0.0,150.0,1.0,0.0
24838,66.0,0.0,150.0,2.0,0.0
24839,66.0,0.0,150.0,12.0,0.0
24840,78.0,30.0,150.0,5.0,0.0
24841,57.0,48.0,60.0,13.0,0.0
24842,66.0,0.0,150.0,4.0,0.0
24843,66.0,0.0,150.0,5.0,0.0
24844,54.0,0.0,150.0,4.0,0.0
24845,54.0,0.0,90.0,14.0,0.0
24846,54.0,0.0,150.0,2.0,0.0
24847,61.0,48.0,60.0,13.0,0.0
24848,66.0,18.0,60.0,13.0,0.0
24849,69.0,96.0,60.0,13.0,0.0
24850,66.0,0.0,90.0,13.0,0.0
24851,63.0,2.0,90.0,14.0,0.0
24852,72.0,0.0,90.0,12.0,0.0
24853,80.0,48.0,60.0,0.0,0.0
24854,80.0,0.0,60.0,11.0,0.0
24855,78.0,32.0,60.0,11.0,0.0
24856,78.0,0.0,60.0,0.0,0.0
24857,56.0,16.0,30.0,13.0,0.0
24858,60.0,0.0,30.0,12.0,0.0
24859,80.0,32.0,60.0,0.0,0.0
24860,80.0,0.0,60.0,11.0,0.0
24861,61.0,0.0,30.0,12.0,0.0
24862,76.0,48.0,60.0,11.0,0.0
24863,49.0,16.0,30.0,13.0,0.0
24864,76.0,0.0,60.0,0.0,0.0
24865,75.0,48.0,60.0,11.0,0.0
24866,75.0,0.0,60.0,0.0,0.0
24867,73.0,0.0,60.0,0.0,0.0
24868,73.0,32.0,60.0,11.0,0.0
24869,75.0,0.0,60.0,0.0,0.0
24870,75.0,32.0,60.0,11.0,0.0
24871,68.0,0.0,30.0,13.0,0.0
24872,72.0,16.0,30.0,12.0,0.0
24873,76.0,48.0,60.0,0.0,0.0
24874,61.0,16.0,30.0,13.0,0.0
24875,73.0,0.0,30.0,12.0,0.0
24876,76.0,0.0,60.0,11.0,0.0
24877,78.0,0.0,60.0,11.0,0.0
24878,78.0,48.0,60.0,0.0,0.0
24879,76.0,0.0,60.0,0.0,0.0
24880,76.0,32.0,60.0,11.0,0.0
24881,80.0,0.0,60.0,11.0,0.0
24882,80.0,32.0,60.0,0.0,0.0
24883,56.0,0.0,30.0,13.0,0.0
24884,60.0,16.0,30.0,12.0,0.0
24885,76.0,48.0,60.0,0.0,0.0
24886,61.0,16.0,30.0,12.0,0.0
24887,49.0,0.0,30.0,13.0,0.0
24888,76.0,0.0,60.0,11.0,0.0
24889,75.0,0.0,60.0,11.0,0.0
24890,75.0,48.0,60.0,0.0,0.0
24891,73.0,0.0,60.0,0.0,0.0
24892,73.0,32.0,60.0,11.0,0.0
24893,72.0,14.0,30.0,12.0,0.0
24894,75.0,50.0,60.0,0.0,0.0
24895,75.0,0.0,60.0,11.0,0.0
24896,68.0,32.0,210.0,13.0,0.0
24897,76.0,48.0,60.0,0.0,0.0
24898,76.0,0.0,60.0,11.0,0.0
24899,61.0,0.0,150.0,14.0,0.0
24900,73.0,0.0,150.0,12.0,0.0
24901,78.0,0.0,60.0,11.0,0.0
24902,78.0,48.0,60.0,0.0,0.0
24903,76.0,16.0,60.0,0.0,0.0
24904,76.0,0.0,60.0,11.0,0.0
24905,80.0,0.0,60.0,11.0,0.0
24906,80.0,48.0,60.0,0.0,0.0
24907,71.0,32.0,150.0,12.0,0.0
24908,74.0,0.0,60.0,0.0,0.0
24909,74.0,48.0,60.0,11.0,0.0
24910,62.0,0.0,150.0,14.0,0.0
24911,66.0,0.0,150.0,13.0,0.0
24912,76.0,0.0,60.0,0.0,0.0
24913,76.0,48.0,60.0,11.0,0.0
24914,74.0,0.0,60.0,0.0,0.0
24915,74.0,16.0,60.0,11.0,0.0
24916,78.0,48.0,60.0,0.0,0.0
24917,78.0,0.0,60.0,11.0,0.0
24918,69.0,32.0,150.0,12.0,0.0
24919,73.0,48.0,60.0,0.0,0.0
24920,73.0,0.0,60.0,11.0,0.0
24921,64.0,0.0,150.0,13.0,0.0
24922,74.0,0.0,60.0,0.0,0.0
24923,74.0,48.0,60.0,11.0,0.0
24924,73.0,16.0,60.0,0.0,0.0
24925,73.0,0.0,60.0,11.0,0.0
24926,76.0,0.0,60.0,0.0,0.0
24927,76.0,48.0,60.0,11.0,0.0
24928,65.0,0.0,150.0,13.0,0.0
24929,68.0,30.0,150.0,12.0,0.0
24930,71.0,48.0,60.0,11.0,0.0
24931,71.0,0.0,60.0,0.0,0.0
24932,73.0,0.0,60.0,0.0,0.0
24933,73.0,48.0,60.0,11.0,0.0
24934,71.0,16.0,60.0,11.0,0.0
24935,71.0,0.0,60.0,0.0,0.0
24936,74.0,0.0,60.0,0.0,0.0
24937,74.0,50.0,60.0,11.0,0.0
24938,66.0,32.0,150.0,12.0,0.0
24939,69.0,0.0,60.0,0.0,0.0
24940,69.0,48.0,60.0,11.0,0.0
24941,71.0,0.0,60.0,11.0,0.0
24942,71.0,48.0,60.0,0.0,0.0
24943,69.0,0.0,60.0,11.0,0.0
24944,69.0,16.0,60.0,0.0,0.0
24945,73.0,48.0,60.0,11.0,0.0
24946,73.0,0.0,60.0,0.0,0.0
24947,69.0,48.0,60.0,0.0,0.0
24948,69.0,0.0,60.0,11.0,0.0
24949,65.0,32.0,150.0,12.0,0.0
24950,71.0,48.0,60.0,0.0,0.0
24951,71.0,0.0,60.0,11.0,0.0
24952,69.0,0.0,60.0,0.0,0.0
24953,69.0,16.0,60.0,11.0,0.0
24954,74.0,0.0,60.0,0.0,0.0
24955,74.0,48.0,60.0,11.0,0.0
24956,69.0,0.0,60.0,0.0,0.0
24957,69.0,48.0,60.0,11.0,0.0
24958,64.0,32.0,150.0,12.0,0.0
24959,71.0,48.0,60.0,0.0,0.0
24960,71.0,0.0,60.0,11.0,0.0
24961,69.0,16.0,60.0,11.0,0.0
24962,69.0,0.0,60.0,0.0,0.0
24963,73.0,0.0,60.0,0.0,0.0
24964,73.0,48.0,60.0,11.0,0.0
24965,69.0,0.0,60.0,0.0,0.0
24966,62.0,0.0,150.0,12.0,0.0
24967,54.0,30.0,150.0,13.0,0.0
24968,69.0,48.0,60.0,11.0,0.0
24969,71.0,0.0,60.0,11.0,0.0
24970,71.0,48.0,60.0,0.0,0.0
24971,69.0,0.0,60.0,0.0,0.0
24972,69.0,16.0,60.0,11.0,0.0
24973,74.0,0.0,60.0,0.0,0.0
24974,74.0,50.0,60.0,11.0,0.0
24975,57.0,0.0,720.0,13.0,0.0
24976,61.0,32.0,150.0,12.0,0.0
24977,69.0,48.0,60.0,0.0,0.0
24978,69.0,0.0,60.0,11.0,0.0
24979,71.0,0.0,60.0,11.0,0.0
24980,71.0,0.0,60.0,0.0,0.0
24981,45.0,48.0,60.0,14.0,0.0
24982,69.0,16.0,60.0,11.0,0.0
24983,69.0,0.0,60.0,0.0,0.0
24984,47.0,0.0,60.0,14.0,0.0
24985,45.0,48.0,60.0,14.0,0.0
24986,73.0,0.0,60.0,11.0,0.0
24987,73.0,0.0,60.0,0.0,0.0
24988,47.0,0.0,150.0,14.0,0.0
24989,68.0,48.0,60.0,0.0,0.0
24990,62.0,32.0,150.0,12.0,0.0
24991,68.0,0.0,60.0,11.0,0.0
24992,69.0,0.0,60.0,11.0,0.0
24993,69.0,48.0,60.0,0.0,0.0
24994,68.0,0.0,60.0,0.0,0.0
24995,68.0,16.0,60.0,11.0,0.0
24996,71.0,48.0,60.0,0.0,0.0
24997,71.0,0.0,60.0,11.0,0.0
24998,64.0,32.0,150.0,12.0,0.0
24999,67.0,48.0,60.0,11.0,0.0
25000,67.0,0.0,60.0,0.0,0.0
25001,49.0,0.0,60.0,14.0,0.0
25002,69.0,0.0,60.0,0.0,0.0
25003,69.0,48.0,60.0,11.0,0.0
25004,67.0,16.0,60.0,0.0,0.0
25005,50.0,0.0,60.0,14.0,0.0
25006,67.0,0.0,60.0,11.0,0.0
25007,70.0,0.0,60.0,11.0,0.0
25008,70.0,48.0,60.0,0.0,0.0
25009,49.0,0.0,60.0,14.0,0.0
25010,62.0,0.0,150.0,12.0,0.0
25011,50.0,30.0,150.0,14.0,0.0
25012,66.0,0.0,60.0,11.0,0.0
25013,66.0,48.0,60.0,0.0,0.0
25014,67.0,0.0,60.0,0.0,0.0
25015,67.0,48.0,60.0,11.0,0.0
25016,66.0,16.0,60.0,11.0,0.0
25017,66.0,0.0,60.0,0.0,0.0
25018,69.0,0.0,60.0,0.0,0.0
25019,69.0,50.0,60.0,11.0,0.0
25020,65.0,0.0,60.0,11.0,0.0
25021,57.0,30.0,150.0,12.0,0.0
25022,65.0,46.0,60.0,0.0,0.0
25023,50.0,2.0,60.0,14.0,0.0
25024,67.0,0.0,60.0,11.0,0.0
25025,67.0,46.0,60.0,0.0,0.0
25026,64.0,46.0,150.0,11.0,0.0
25027,49.0,18.0,60.0,14.0,0.0
25028,64.0,0.0,150.0,0.0,0.0
25029,52.0,48.0,60.0,14.0,0.0
25030,49.0,2.0,60.0,14.0,0.0
25031,56.0,0.0,150.0,13.0,0.0
25032,62.0,30.0,150.0,12.0,0.0
25033,65.0,46.0,60.0,11.0,0.0
25034,47.0,2.0,60.0,14.0,0.0
25035,64.0,46.0,150.0,11.0,0.0
25036,40.0,18.0,60.0,14.0,0.0
25037,47.0,48.0,60.0,14.0,0.0
25038,61.0,0.0,150.0,12.0,0.0
25039,57.0,30.0,150.0,13.0,0.0
25040,49.0,2.0,60.0,14.0,0.0
25041,50.0,2.0,60.0,14.0,0.0
25042,66.0,46.0,60.0,11.0,0.0
25043,64.0,46.0,150.0,11.0,0.0
25044,49.0,18.0,60.0,14.0,0.0
25045,52.0,48.0,60.0,14.0,0.0
25046,62.0,30.0,150.0,12.0,0.0
25047,56.0,0.0,150.0,13.0,0.0
25048,49.0,2.0,60.0,14.0,0.0
25049,47.0,2.0,60.0,14.0,0.0
25050,65.0,46.0,60.0,11.0,0.0
25051,40.0,18.0,60.0,14.0,0.0
25052,64.0,48.0,90.0,11.0,0.0
25053,47.0,0.0,60.0,14.0,0.0
25054,49.0,48.0,60.0,14.0,0.0
25055,57.0,0.0,150.0,13.0,0.0
25056,61.0,30.0,150.0,12.0,0.0
25057,45.0,2.0,60.0,14.0,0.0
25058,64.0,46.0,60.0,2.0,0.0
25059,40.0,2.0,60.0,14.0,0.0
25060,62.0,16.0,60.0,2.0,0.0
25061,64.0,46.0,60.0,2.0,0.0
25062,45.0,2.0,60.0,14.0,0.0
25063,62.0,0.0,150.0,2.0,0.0
25064,57.0,30.0,360.0,12.0,0.0
25065,50.0,48.0,60.0,14.0,0.0
25066,54.0,30.0,150.0,13.0,0.0
25067,45.0,48.0,60.0,14.0,0.0
25068,42.0,18.0,60.0,14.0,0.0
25069,45.0,48.0,60.0,14.0,0.0
25070,52.0,48.0,60.0,14.0,0.0
25071,45.0,2.0,60.0,14.0,0.0
25072,61.0,46.0,60.0,2.0,0.0
25073,59.0,16.0,60.0,2.0,0.0
25074,40.0,2.0,60.0,14.0,0.0
25075,61.0,46.0,60.0,2.0,0.0
25076,45.0,2.0,60.0,14.0,0.0
25077,54.0,48.0,60.0,14.0,0.0
25078,57.0,2.0,330.0,12.0,0.0
25079,59.0,30.0,150.0,2.0,0.0
25080,45.0,48.0,60.0,14.0,0.0
25081,38.0,18.0,60.0,14.0,0.0
25082,45.0,48.0,60.0,14.0,0.0
25083,52.0,48.0,60.0,14.0,0.0
25084,59.0,46.0,60.0,2.0,0.0
25085,45.0,2.0,60.0,14.0,0.0
25086,40.0,0.0,60.0,14.0,0.0
25087,61.0,46.0,60.0,2.0,0.0
25088,57.0,46.0,60.0,2.0,0.0
25089,57.0,2.0,390.0,12.0,0.0
25090,45.0,2.0,60.0,14.0,0.0
25091,54.0,2.0,60.0,14.0,0.0
25092,61.0,46.0,60.0,2.0,0.0
25093,45.0,2.0,60.0,14.0,0.0
25094,62.0,46.0,60.0,2.0,0.0
25095,64.0,46.0,60.0,2.0,0.0
25096,38.0,2.0,60.0,14.0,0.0
25097,45.0,2.0,60.0,14.0,0.0
25098,62.0,46.0,60.0,2.0,0.0
25099,61.0,46.0,60.0,2.0,0.0
25100,52.0,2.0,60.0,14.0,0.0
25101,59.0,46.0,60.0,2.0,0.0
25102,45.0,2.0,60.0,14.0,0.0
25103,40.0,0.0,60.0,14.0,0.0
25104,61.0,46.0,60.0,2.0,0.0
25105,45.0,2.0,60.0,14.0,0.0
25106,57.0,46.0,60.0,2.0,0.0
25107,57.0,30.0,210.0,12.0,0.0
25108,61.0,46.0,60.0,2.0,0.0
25109,54.0,2.0,60.0,14.0,0.0
25110,45.0,2.0,60.0,14.0,0.0
25111,62.0,46.0,60.0,2.0,0.0
25112,64.0,16.0,60.0,2.0,0.0
25113,38.0,2.0,60.0,14.0,0.0
25114,62.0,48.0,60.0,2.0,0.0
25115,45.0,0.0,60.0,14.0,0.0
25116,61.0,0.0,150.0,12.0,0.0
25117,52.0,48.0,60.0,14.0,0.0
25118,61.0,0.0,150.0,2.0,0.0
25119,57.0,30.0,150.0,2.0,0.0
25120,57.0,0.0,150.0,13.0,0.0
25121,45.0,2.0,60.0,14.0,0.0
25122,69.0,46.0,60.0,1.0,0.0
25123,40.0,2.0,60.0,14.0,0.0
25124,67.0,16.0,60.0,1.0,0.0
25125,45.0,2.0,60.0,14.0,0.0
25126,69.0,46.0,60.0,1.0,0.0
25127,57.0,0.0,150.0,2.0,0.0
25128,52.0,48.0,60.0,14.0,0.0
25129,61.0,30.0,150.0,12.0,0.0
25130,61.0,0.0,150.0,2.0,0.0
25131,57.0,0.0,150.0,13.0,0.0
25132,67.0,0.0,150.0,1.0,0.0
25133,45.0,48.0,60.0,14.0,0.0
25134,40.0,18.0,60.0,14.0,0.0
25135,45.0,48.0,60.0,14.0,0.0
25136,57.0,30.0,150.0,2.0,0.0
25137,54.0,48.0,60.0,14.0,0.0
25138,62.0,0.0,150.0,12.0,0.0
25139,57.0,0.0,150.0,13.0,0.0
25140,62.0,0.0,150.0,2.0,0.0
25141,66.0,46.0,60.0,1.0,0.0
25142,45.0,2.0,60.0,14.0,0.0
25143,64.0,16.0,60.0,1.0,0.0
25144,38.0,2.0,60.0,14.0,0.0
25145,45.0,2.0,60.0,14.0,0.0
25146,66.0,46.0,60.0,1.0,0.0
25147,64.0,0.0,150.0,1.0,0.0
25148,55.0,48.0,60.0,14.0,0.0
25149,57.0,0.0,360.0,12.0,0.0
25150,57.0,30.0,150.0,2.0,0.0
25151,45.0,48.0,60.0,14.0,0.0
25152,37.0,18.0,60.0,14.0,0.0
25153,45.0,48.0,60.0,14.0,0.0
25154,54.0,48.0,60.0,14.0,0.0
25155,45.0,2.0,60.0,14.0,0.0
25156,64.0,46.0,60.0,1.0,0.0
25157,66.0,16.0,60.0,1.0,0.0
25158,38.0,2.0,60.0,14.0,0.0
25159,62.0,46.0,60.0,1.0,0.0
25160,45.0,2.0,60.0,14.0,0.0
25161,52.0,2.0,60.0,14.0,0.0
25162,57.0,0.0,330.0,2.0,0.0
25163,66.0,46.0,60.0,1.0,0.0
25164,57.0,0.0,330.0,12.0,0.0
25165,67.0,46.0,60.0,1.0,0.0
25166,45.0,2.0,60.0,14.0,0.0
25167,69.0,46.0,60.0,1.0,0.0
25168,37.0,2.0,60.0,14.0,0.0
25169,67.0,46.0,60.0,1.0,0.0
25170,45.0,2.0,60.0,14.0,0.0
25171,54.0,2.0,60.0,14.0,0.0
25172,66.0,46.0,60.0,1.0,0.0
25173,45.0,2.0,60.0,14.0,0.0
25174,64.0,46.0,60.0,1.0,0.0
25175,38.0,2.0,60.0,14.0,0.0
25176,66.0,0.0,60.0,1.0,0.0
25177,62.0,46.0,60.0,1.0,0.0
25178,45.0,2.0,60.0,14.0,0.0
25179,57.0,0.0,150.0,12.0,0.0
25180,52.0,2.0,60.0,14.0,0.0
25181,57.0,0.0,150.0,2.0,0.0
25182,66.0,46.0,60.0,1.0,0.0
25183,45.0,2.0,60.0,14.0,0.0
25184,67.0,46.0,60.0,1.0,0.0
25185,37.0,2.0,60.0,14.0,0.0
25186,69.0,16.0,60.0,1.0,0.0
25187,45.0,48.0,60.0,14.0,0.0
25188,67.0,0.0,60.0,1.0,0.0
25189,62.0,0.0,150.0,2.0,0.0
25190,66.0,0.0,90.0,1.0,0.0
25191,62.0,0.0,150.0,12.0,0.0
25192,54.0,48.0,60.0,14.0,0.0
25193,62.0,30.0,150.0,13.0,0.0
25194,45.0,2.0,60.0,14.0,0.0
25195,74.0,46.0,60.0,2.0,0.0
25196,72.0,16.0,60.0,2.0,0.0
25197,38.0,2.0,60.0,14.0,0.0
25198,45.0,2.0,60.0,14.0,0.0
25199,74.0,46.0,60.0,2.0,0.0
25200,67.0,0.0,150.0,1.0,0.0
25201,67.0,0.0,150.0,12.0,0.0
25202,55.0,30.0,150.0,1.0,0.0
25203,62.0,0.0,150.0,2.0,0.0
25204,62.0,0.0,150.0,13.0,0.0
25205,72.0,0.0,150.0,2.0,0.0
25206,55.0,48.0,60.0,14.0,0.0
25207,50.0,48.0,60.0,14.0,0.0
25208,40.0,18.0,60.0,14.0,0.0
25209,50.0,48.0,60.0,14.0,0.0
25210,62.0,0.0,150.0,2.0,0.0
25211,57.0,0.0,150.0,1.0,0.0
25212,69.0,0.0,150.0,12.0,0.0
25213,57.0,48.0,60.0,14.0,0.0
25214,62.0,0.0,150.0,13.0,0.0
25215,69.0,30.0,150.0,1.0,0.0
25216,50.0,2.0,60.0,14.0,0.0
25217,74.0,46.0,60.0,2.0,0.0
25218,42.0,2.0,60.0,14.0,0.0
25219,72.0,16.0,60.0,2.0,0.0
25220,74.0,46.0,60.0,2.0,0.0
25221,50.0,2.0,60.0,14.0,0.0
25222,71.0,0.0,150.0,2.0,0.0
25223,67.0,0.0,150.0,1.0,0.0
25224,55.0,30.0,150.0,1.0,0.0
25225,62.0,0.0,150.0,2.0,0.0
25226,55.0,48.0,60.0,14.0,0.0
25227,67.0,0.0,150.0,12.0,0.0
25228,62.0,0.0,150.0,13.0,0.0
25229,50.0,48.0,60.0,14.0,0.0
25230,43.0,18.0,60.0,14.0,0.0
25231,50.0,48.0,60.0,14.0,0.0
25232,67.0,0.0,150.0,12.0,0.0
25233,67.0,0.0,150.0,13.0,0.0
25234,55.0,30.0,150.0,2.0,0.0
25235,67.0,0.0,150.0,4.0,0.0
25236,59.0,48.0,60.0,14.0,0.0
25237,67.0,0.0,150.0,2.0,0.0
25238,79.0,0.0,60.0,2.0,0.0
25239,50.0,2.0,60.0,14.0,0.0
25240,79.0,46.0,60.0,1.0,0.0
25241,77.0,16.0,60.0,1.0,0.0
25242,43.0,2.0,60.0,14.0,0.0
25243,77.0,0.0,60.0,2.0,0.0
25244,79.0,0.0,60.0,1.0,0.0
25245,50.0,2.0,60.0,14.0,0.0
25246,79.0,46.0,60.0,2.0,0.0
25247,55.0,0.0,150.0,2.0,0.0
25248,67.0,0.0,150.0,13.0,0.0
25249,72.0,0.0,150.0,4.0,0.0
25250,60.0,48.0,60.0,14.0,0.0
25251,72.0,0.0,150.0,2.0,0.0
25252,77.0,0.0,150.0,2.0,0.0
25253,67.0,0.0,150.0,4.0,0.0
25254,77.0,0.0,150.0,1.0,0.0
25255,72.0,30.0,150.0,12.0,0.0
25256,55.0,48.0,60.0,14.0,0.0
25257,45.0,18.0,60.0,14.0,0.0
25258,55.0,48.0,60.0,14.0,0.0
25259,62.0,48.0,60.0,14.0,0.0
25260,67.0,0.0,150.0,4.0,0.0
25261,74.0,30.0,150.0,2.0,0.0
25262,74.0,0.0,150.0,4.0,0.0
25263,67.0,0.0,150.0,13.0,0.0
25264,74.0,0.0,150.0,12.0,0.0
25265,55.0,0.0,150.0,2.0,0.0
25266,79.0,0.0,60.0,2.0,0.0
25267,79.0,46.0,60.0,1.0,0.0
25268,55.0,2.0,60.0,14.0,0.0
25269,77.0,16.0,60.0,1.0,0.0
25270,77.0,0.0,60.0,2.0,0.0
25271,47.0,2.0,60.0,14.0,0.0
25272,79.0,46.0,60.0,2.0,0.0
25273,55.0,2.0,60.0,14.0,0.0
25274,79.0,0.0,60.0,1.0,0.0
25275,76.0,0.0,150.0,2.0,0.0
25276,72.0,0.0,150.0,2.0,0.0
25277,55.0,30.0,150.0,2.0,0.0
25278,67.0,0.0,150.0,4.0,0.0
25279,76.0,0.0,150.0,1.0,0.0
25280,67.0,0.0,150.0,13.0,0.0
25281,72.0,0.0,150.0,12.0,0.0
25282,72.0,0.0,150.0,4.0,0.0
25283,60.0,48.0,60.0,14.0,0.0
25284,55.0,48.0,60.0,14.0,0.0
25285,48.0,18.0,60.0,14.0,0.0
25286,55.0,96.0,60.0,14.0,0.0
25287,64.0,0.0,90.0,13.0,0.0
25288,64.0,0.0,90.0,14.0,0.0
25289,84.0,46.0,60.0,11.0,0.0
25290,72.0,2.0,60.0,12.0,0.0
25291,84.0,0.0,60.0,0.0,0.0
25292,72.0,0.0,60.0,0.0,0.0
25293,79.0,2.0,60.0,12.0,0.0
25294,82.0,0.0,60.0,0.0,0.0
25295,79.0,0.0,60.0,0.0,0.0
25296,82.0,46.0,60.0,11.0,0.0
25297,84.0,0.0,60.0,0.0,0.0
25298,84.0,96.0,60.0,11.0,0.0
25299,72.0,0.0,60.0,0.0,0.0
25300,72.0,2.0,60.0,12.0,0.0
25301,82.0,0.0,150.0,0.0,0.0
25302,82.0,32.0,150.0,11.0,0.0
25303,79.0,0.0,150.0,12.0,0.0
25304,79.0,0.0,150.0,0.0,0.0
25305,48.0,0.0,60.0,14.0,0.0
25306,48.0,48.0,60.0,2.0,0.0
25307,36.0,0.0,60.0,3.0,0.0
25308,24.0,0.0,60.0,15.0,0.0
25309,60.0,0.0,60.0,4.0,0.0
25310,25.0,0.0,60.0,15.0,0.0
25311,37.0,0.0,60.0,3.0,0.0
25312,61.0,0.0,60.0,4.0,0.0
25313,49.0,0.0,60.0,14.0,0.0
25314,49.0,16.0,60.0,2.0,0.0
25315,24.0,0.0,60.0,15.0,0.0
25316,48.0,0.0,60.0,14.0,0.0
25317,60.0,0.0,60.0,4.0,0.0
25318,48.0,96.0,60.0,2.0,0.0
25319,36.0,0.0,60.0,3.0,0.0
25320,40.0,0.0,150.0,3.0,0.0
25321,52.0,0.0,150.0,2.0,0.0
25322,52.0,0.0,150.0,14.0,0.0
25323,28.0,32.0,150.0,15.0,0.0
25324,64.0,0.0,150.0,4.0,0.0
25325,70.0,0.0,60.0,13.0,0.0
25326,82.0,0.0,60.0,11.0,0.0
25327,79.0,0.0,60.0,12.0,0.0
25328,82.0,0.0,60.0,0.0,0.0
25329,79.0,48.0,60.0,0.0,0.0
25330,77.0,0.0,60.0,12.0,0.0
25331,68.0,0.0,60.0,13.0,0.0
25332,77.0,0.0,60.0,0.0,0.0
25333,80.0,16.0,60.0,11.0,0.0
25334,80.0,0.0,60.0,0.0,0.0
25335,70.0,0.0,60.0,13.0,0.0
25336,79.0,0.0,60.0,12.0,0.0
25337,82.0,0.0,60.0,0.0,0.0
25338,79.0,0.0,60.0,0.0,0.0
25339,82.0,96.0,60.0,11.0,0.0
25340,68.0,32.0,150.0,13.0,0.0
25341,80.0,0.0,150.0,11.0,0.0
25342,80.0,0.0,150.0,0.0,0.0
25343,77.0,0.0,150.0,12.0,0.0
25344,77.0,0.0,150.0,0.0,0.0
25345,36.0,0.0,60.0,3.0,0.0
25346,24.0,0.0,60.0,15.0,0.0
25347,48.0,48.0,60.0,14.0,0.0
25348,48.0,0.0,60.0,2.0,0.0
25349,60.0,0.0,60.0,4.0,0.0
25350,40.0,0.0,60.0,3.0,0.0
25351,52.0,0.0,60.0,2.0,0.0
25352,64.0,0.0,60.0,4.0,0.0
25353,28.0,0.0,60.0,15.0,0.0
25354,52.0,0.0,60.0,14.0,0.0
25355,36.0,94.0,60.0,3.0,0.0
25356,48.0,0.0,60.0,14.0,0.0
25357,48.0,0.0,60.0,2.0,0.0
25358,60.0,0.0,60.0,4.0,0.0
25359,24.0,0.0,60.0,15.0,0.0
25360,53.0,30.0,150.0,14.0,0.0
25361,53.0,0.0,150.0,2.0,0.0
25362,65.0,0.0,150.0,4.0,0.0
25363,41.0,0.0,150.0,3.0,0.0
25364,29.0,0.0,150.0,15.0,0.0
25365,67.0,0.0,60.0,13.0,0.0
25366,79.0,48.0,60.0,0.0,0.0
25367,76.0,0.0,60.0,12.0,0.0
25368,79.0,0.0,60.0,11.0,0.0
25369,76.0,0.0,60.0,0.0,0.0
25370,80.0,0.0,60.0,0.0,0.0
25371,80.0,0.0,60.0,11.0,0.0
25372,77.0,0.0,60.0,0.0,0.0
25373,77.0,0.0,60.0,12.0,0.0
25374,68.0,18.0,60.0,13.0,0.0
25375,74.0,0.0,60.0,0.0,0.0
25376,77.0,0.0,60.0,11.0,0.0
25377,65.0,0.0,60.0,13.0,0.0
25378,74.0,48.0,60.0,12.0,0.0
25379,77.0,0.0,60.0,0.0,0.0
25380,77.0,0.0,60.0,12.0,0.0
25381,80.0,0.0,60.0,0.0,0.0
25382,77.0,48.0,60.0,0.0,0.0
25383,80.0,0.0,60.0,11.0,0.0
25384,68.0,0.0,60.0,13.0,0.0
25385,82.0,0.0,60.0,0.0,0.0
25386,79.0,0.0,60.0,0.0,0.0
25387,24.0,0.0,60.0,15.0,0.0
25388,70.0,0.0,60.0,13.0,0.0
25389,48.0,0.0,60.0,14.0,0.0
25390,48.0,0.0,60.0,2.0,0.0
25391,36.0,46.0,60.0,3.0,0.0
25392,79.0,2.0,60.0,12.0,0.0
25393,82.0,0.0,60.0,11.0,0.0
25394,60.0,0.0,60.0,4.0,0.0
25395,80.0,2.0,60.0,12.0,0.0
25396,52.0,0.0,60.0,14.0,0.0
25397,84.0,0.0,60.0,11.0,0.0
25398,28.0,0.0,60.0,15.0,0.0
25399,52.0,0.0,60.0,2.0,0.0
25400,64.0,0.0,60.0,4.0,0.0
25401,84.0,0.0,60.0,0.0,0.0
25402,80.0,0.0,60.0,0.0,0.0
25403,40.0,0.0,60.0,3.0,0.0
25404,72.0,0.0,60.0,13.0,0.0
25405,24.0,0.0,60.0,15.0,0.0
25406,70.0,0.0,60.0,13.0,0.0
25407,79.0,2.0,60.0,0.0,0.0
25408,82.0,0.0,60.0,0.0,0.0
25409,79.0,0.0,60.0,12.0,0.0
25410,82.0,0.0,60.0,11.0,0.0
25411,60.0,0.0,60.0,4.0,0.0
25412,36.0,0.0,60.0,3.0,0.0
25413,48.0,0.0,60.0,14.0,0.0
25414,48.0,46.0,60.0,2.0,0.0
25415,77.0,0.0,60.0,12.0,0.0
25416,77.0,0.0,60.0,0.0,0.0
25417,80.0,0.0,60.0,0.0,0.0
25418,68.0,48.0,60.0,13.0,0.0
25419,41.0,0.0,150.0,3.0,0.0
25420,65.0,0.0,150.0,4.0,0.0
25421,29.0,30.0,150.0,15.0,0.0
25422,53.0,0.0,150.0,2.0,0.0
25423,80.0,0.0,60.0,11.0,0.0
25424,53.0,0.0,150.0,14.0,0.0
25425,67.0,0.0,60.0,13.0,0.0
25426,76.0,0.0,60.0,0.0,0.0
25427,79.0,0.0,60.0,0.0,0.0
25428,79.0,48.0,60.0,11.0,0.0
25429,76.0,0.0,60.0,12.0,0.0
25430,77.0,0.0,60.0,0.0,0.0
25431,80.0,0.0,60.0,0.0,0.0
25432,77.0,0.0,60.0,12.0,0.0
25433,80.0,18.0,60.0,11.0,0.0
25434,68.0,0.0,60.0,13.0,0.0
25435,77.0,48.0,60.0,0.0,0.0
25436,74.0,0.0,60.0,0.0,0.0
25437,77.0,0.0,60.0,11.0,0.0
25438,65.0,0.0,60.0,13.0,0.0
25439,74.0,0.0,60.0,12.0,0.0
25440,80.0,0.0,60.0,0.0,0.0
25441,77.0,0.0,60.0,12.0,0.0
25442,77.0,0.0,60.0,0.0,0.0
25443,80.0,0.0,60.0,11.0,0.0
25444,68.0,48.0,60.0,13.0,0.0
25445,82.0,2.0,60.0,11.0,0.0
25446,60.0,0.0,60.0,4.0,0.0
25447,48.0,46.0,60.0,2.0,0.0
25448,48.0,0.0,60.0,14.0,0.0
25449,82.0,0.0,60.0,0.0,0.0
25450,79.0,0.0,60.0,0.0,0.0
25451,79.0,0.0,60.0,12.0,0.0
25452,24.0,0.0,60.0,15.0,0.0
25453,70.0,0.0,60.0,13.0,0.0
25454,36.0,0.0,60.0,3.0,0.0
25455,80.0,0.0,60.0,12.0,0.0
25456,84.0,0.0,60.0,11.0,0.0
25457,52.0,0.0,60.0,14.0,0.0
25458,40.0,46.0,60.0,3.0,0.0
25459,64.0,0.0,60.0,4.0,0.0
25460,52.0,0.0,60.0,2.0,0.0
25461,84.0,0.0,60.0,0.0,0.0
25462,80.0,2.0,60.0,0.0,0.0
25463,28.0,0.0,60.0,15.0,0.0
25464,72.0,0.0,60.0,13.0,0.0
25465,79.0,0.0,60.0,12.0,0.0
25466,36.0,0.0,60.0,3.0,0.0
25467,48.0,0.0,60.0,14.0,0.0
25468,82.0,0.0,60.0,11.0,0.0
25469,70.0,0.0,60.0,13.0,0.0
25470,24.0,0.0,60.0,15.0,0.0
25471,79.0,0.0,60.0,0.0,0.0
25472,82.0,48.0,60.0,0.0,0.0
25473,48.0,0.0,60.0,2.0,0.0
25474,60.0,0.0,60.0,4.0,0.0
25475,41.0,0.0,60.0,3.0,0.0
25476,37.0,0.0,60.0,8.0,0.0
25477,29.0,0.0,60.0,15.0,0.0
25478,77.0,0.0,60.0,12.0,0.0
25479,65.0,0.0,60.0,4.0,0.0
25480,53.0,0.0,60.0,2.0,0.0
25481,80.0,0.0,60.0,0.0,0.0
25482,77.0,0.0,60.0,0.0,0.0
25483,29.0,46.0,60.0,3.0,0.0
25484,68.0,0.0,60.0,13.0,0.0
25485,80.0,2.0,60.0,11.0,0.0
25486,53.0,0.0,60.0,14.0,0.0
25487,73.0,0.0,60.0,2.0,0.0
25488,61.0,0.0,60.0,2.0,0.0
25489,85.0,0.0,60.0,0.0,0.0
25490,25.0,0.0,60.0,15.0,0.0
25491,50.0,0.0,60.0,9.0,0.0
25492,85.0,0.0,60.0,11.0,0.0
25493,49.0,2.0,60.0,2.0,0.0
25494,49.0,0.0,60.0,14.0,0.0
25495,37.0,0.0,60.0,8.0,0.0
25496,73.0,0.0,60.0,12.0,0.0
25497,37.0,0.0,60.0,3.0,0.0
25498,73.0,0.0,60.0,0.0,0.0
25499,25.0,0.0,60.0,3.0,0.0
25500,61.0,0.0,60.0,1.0,0.0
25501,61.0,0.0,60.0,4.0,0.0
25502,73.0,46.0,60.0,1.0,0.0
25503,80.0,0.0,60.0,0.0,0.0
25504,83.0,46.0,60.0,0.0,0.0
25505,68.0,0.0,60.0,1.0,0.0
25506,80.0,0.0,60.0,12.0,0.0
25507,83.0,0.0,60.0,11.0,0.0
25508,71.0,0.0,60.0,1.0,0.0
25509,68.0,0.0,60.0,2.0,0.0
25510,71.0,0.0,60.0,2.0,0.0
25511,50.0,2.0,60.0,9.0,0.0
25512,73.0,0.0,60.0,1.0,0.0
25513,50.0,2.0,60.0,9.0,0.0
25514,61.0,0.0,60.0,1.0,0.0
25515,85.0,0.0,60.0,11.0,0.0
25516,73.0,0.0,60.0,2.0,0.0
25517,61.0,0.0,60.0,2.0,0.0
25518,73.0,0.0,60.0,12.0,0.0
25519,73.0,80.0,60.0,0.0,0.0
25520,85.0,0.0,60.0,0.0,0.0
25521,71.0,0.0,150.0,1.0,0.0
25522,71.0,0.0,150.0,2.0,0.0
25523,68.0,16.0,150.0,2.0,0.0
25524,80.0,0.0,150.0,12.0,0.0
25525,68.0,0.0,150.0,1.0,0.0
25526,50.0,0.0,150.0,9.0,0.0
25527,83.0,0.0,150.0,0.0,0.0
25528,80.0,0.0,150.0,0.0,0.0
25529,83.0,0.0,150.0,11.0,0.0
25530,37.0,0.0,60.0,8.0,0.0
25531,25.0,0.0,60.0,3.0,0.0
25532,34.0,16.0,30.0,9.0,0.0
25533,49.0,0.0,60.0,2.0,0.0
25534,25.0,0.0,60.0,15.0,0.0
25535,37.0,0.0,60.0,3.0,0.0
25536,61.0,0.0,60.0,4.0,0.0
25537,49.0,0.0,60.0,14.0,0.0
25538,50.0,0.0,60.0,14.0,0.0
25539,26.0,0.0,60.0,3.0,0.0
25540,37.0,0.0,60.0,8.0,0.0
25541,50.0,0.0,60.0,2.0,0.0
25542,38.0,0.0,60.0,3.0,0.0
25543,34.0,16.0,30.0,9.0,0.0
25544,62.0,0.0,60.0,4.0,0.0
25545,26.0,0.0,60.0,15.0,0.0
25546,34.0,16.0,30.0,9.0,0.0
25547,25.0,0.0,60.0,3.0,0.0
25548,49.0,0.0,60.0,14.0,0.0
25549,37.0,48.0,60.0,3.0,0.0
25550,25.0,0.0,60.0,15.0,0.0
25551,61.0,0.0,60.0,4.0,0.0
25552,49.0,0.0,60.0,2.0,0.0
25553,65.0,0.0,150.0,4.0,0.0
25554,34.0,46.0,60.0,9.0,0.0
25555,29.0,30.0,150.0,3.0,0.0
25556,29.0,0.0,150.0,15.0,0.0
25557,41.0,0.0,150.0,3.0,0.0
25558,53.0,0.0,150.0,14.0,0.0
25559,37.0,0.0,15.0,8.0,0.0
25560,53.0,0.0,150.0,2.0,0.0
25561,37.0,0.0,15.0,8.0,0.0
25562,85.0,0.0,60.0,11.0,0.0
25563,85.0,0.0,60.0,0.0,0.0
25564,73.0,0.0,60.0,0.0,0.0
25565,61.0,0.0,60.0,2.0,0.0
25566,61.0,0.0,60.0,1.0,0.0
25567,50.0,2.0,60.0,9.0,0.0
25568,73.0,46.0,60.0,12.0,0.0
25569,73.0,0.0,60.0,1.0,0.0
25570,73.0,0.0,60.0,2.0,0.0
25571,71.0,0.0,60.0,2.0,0.0
25572,68.0,0.0,60.0,1.0,0.0
25573,71.0,0.0,60.0,1.0,0.0
25574,50.0,2.0,60.0,9.0,0.0
25575,83.0,0.0,60.0,11.0,0.0
25576,68.0,0.0,60.0,2.0,0.0
25577,80.0,0.0,60.0,0.0,0.0
25578,83.0,16.0,60.0,0.0,0.0
25579,80.0,0.0,60.0,12.0,0.0
25580,73.0,0.0,60.0,12.0,0.0
25581,61.0,0.0,60.0,2.0,0.0
25582,73.0,0.0,60.0,2.0,0.0
25583,73.0,80.0,60.0,1.0,0.0
25584,61.0,0.0,60.0,1.0,0.0
25585,73.0,0.0,60.0,0.0,0.0
25586,50.0,2.0,60.0,9.0,0.0
25587,85.0,0.0,60.0,0.0,0.0
25588,85.0,0.0,60.0,11.0,0.0
25589,50.0,0.0,150.0,9.0,0.0
25590,66.0,0.0,150.0,2.0,0.0
25591,69.0,0.0,150.0,2.0,0.0
25592,78.0,0.0,150.0,12.0,0.0
25593,81.0,0.0,150.0,11.0,0.0
25594,69.0,0.0,150.0,1.0,0.0
25595,78.0,0.0,150.0,0.0,0.0
25596,81.0,16.0,150.0,0.0,0.0
25597,66.0,0.0,150.0,1.0,0.0
25598,37.0,0.0,60.0,3.0,0.0
25599,49.0,0.0,60.0,14.0,0.0
25600,34.0,16.0,30.0,9.0,0.0
25601,61.0,0.0,60.0,4.0,0.0
25602,25.0,0.0,60.0,15.0,0.0
25603,25.0,0.0,60.0,3.0,0.0
25604,49.0,32.0,60.0,2.0,0.0
25605,37.0,0.0,60.0,8.0,0.0
25606,53.0,0.0,60.0,14.0,0.0
25607,41.0,0.0,60.0,3.0,0.0
25608,65.0,0.0,60.0,4.0,0.0
25609,37.0,0.0,60.0,8.0,0.0
25610,29.0,0.0,60.0,3.0,0.0
25611,29.0,0.0,60.0,15.0,0.0
25612,53.0,16.0,60.0,2.0,0.0
25613,34.0,16.0,30.0,9.0,0.0
25614,62.0,0.0,60.0,4.0,0.0
25615,26.0,0.0,60.0,15.0,0.0
25616,26.0,0.0,60.0,3.0,0.0
25617,34.0,16.0,30.0,9.0,0.0
25618,50.0,0.0,60.0,14.0,0.0
25619,50.0,0.0,60.0,2.0,0.0
25620,38.0,0.0,60.0,3.0,0.0
25621,30.0,2.0,90.0,3.0,0.0
25622,42.0,0.0,90.0,3.0,0.0
25623,37.0,46.0,15.0,8.0,0.0
25624,54.0,2.0,60.0,14.0,0.0
25625,54.0,0.0,90.0,2.0,0.0
25626,66.0,0.0,90.0,4.0,0.0
25627,30.0,0.0,60.0,15.0,0.0
25628,34.0,46.0,60.0,9.0,0.0
25629,50.0,0.0,60.0,14.0,0.0
25630,37.0,0.0,60.0,8.0,0.0
25631,62.0,48.0,60.0,13.0,0.0
25632,38.0,0.0,60.0,15.0,0.0
25633,45.0,0.0,60.0,15.0,0.0
25634,57.0,0.0,60.0,14.0,0.0
25635,60.0,48.0,60.0,13.0,0.0
25636,50.0,0.0,60.0,14.0,0.0
25637,38.0,0.0,60.0,15.0,0.0
25638,62.0,94.0,60.0,13.0,0.0
25639,45.0,30.0,150.0,15.0,0.0
25640,57.0,0.0,150.0,14.0,0.0
25641,60.0,0.0,150.0,13.0,0.0
25642,62.0,46.0,60.0,2.0,0.0
25643,74.0,0.0,60.0,0.0,0.0
25644,62.0,0.0,60.0,1.0,0.0
25645,74.0,0.0,60.0,11.0,0.0
25646,62.0,2.0,60.0,12.0,0.0
25647,63.0,0.0,60.0,1.0,0.0
25648,75.0,0.0,60.0,11.0,0.0
25649,75.0,16.0,60.0,0.0,0.0
25650,63.0,0.0,60.0,2.0,0.0
25651,63.0,2.0,60.0,12.0,0.0
25652,74.0,96.0,60.0,0.0,0.0
25653,74.0,0.0,60.0,11.0,0.0
25654,62.0,0.0,60.0,2.0,0.0
25655,62.0,0.0,60.0,1.0,0.0
25656,62.0,2.0,60.0,12.0,0.0
25657,78.0,32.0,150.0,11.0,0.0
25658,66.0,0.0,150.0,2.0,0.0
25659,66.0,0.0,150.0,0.0,0.0
25660,66.0,0.0,150.0,12.0,0.0
25661,66.0,0.0,150.0,1.0,0.0
25662,54.0,0.0,150.0,1.0,0.0
25663,54.0,0.0,150.0,2.0,0.0
25664,78.0,0.0,150.0,0.0,0.0
25665,50.0,0.0,60.0,3.0,0.0
25666,62.0,0.0,60.0,13.0,0.0
25667,50.0,0.0,60.0,14.0,0.0
25668,38.0,0.0,60.0,15.0,0.0
25669,38.0,48.0,60.0,3.0,0.0
25670,50.0,0.0,60.0,2.0,0.0
25671,57.0,0.0,60.0,14.0,0.0
25672,57.0,16.0,60.0,2.0,0.0
25673,45.0,0.0,60.0,15.0,0.0
25674,57.0,0.0,60.0,3.0,0.0
25675,60.0,0.0,60.0,13.0,0.0
25676,45.0,0.0,60.0,3.0,0.0
25677,50.0,0.0,60.0,2.0,0.0
25678,62.0,0.0,60.0,13.0,0.0
25679,38.0,0.0,60.0,15.0,0.0
25680,50.0,0.0,60.0,3.0,0.0
25681,38.0,94.0,60.0,3.0,0.0
25682,50.0,0.0,60.0,14.0,0.0
25683,58.0,0.0,150.0,13.0,0.0
25684,55.0,0.0,150.0,3.0,0.0
25685,43.0,30.0,150.0,15.0,0.0
25686,43.0,0.0,150.0,3.0,0.0
25687,55.0,0.0,150.0,2.0,0.0
25688,55.0,0.0,150.0,14.0,0.0
25689,62.0,46.0,60.0,1.0,0.0
25690,74.0,0.0,60.0,0.0,0.0
25691,62.0,0.0,60.0,2.0,0.0
25692,62.0,2.0,60.0,12.0,0.0
25693,74.0,0.0,60.0,11.0,0.0
25694,78.0,0.0,60.0,11.0,0.0
25695,78.0,16.0,60.0,0.0,0.0
25696,66.0,0.0,60.0,0.0,0.0
25697,66.0,2.0,60.0,12.0,0.0
25698,66.0,0.0,60.0,2.0,0.0
25699,54.0,0.0,60.0,2.0,0.0
25700,54.0,0.0,60.0,1.0,0.0
25701,66.0,0.0,60.0,1.0,0.0
25702,62.0,0.0,60.0,2.0,0.0
25703,62.0,2.0,60.0,12.0,0.0
25704,74.0,96.0,60.0,0.0,0.0
25705,74.0,0.0,60.0,11.0,0.0
25706,62.0,0.0,60.0,1.0,0.0
25707,67.0,0.0,150.0,12.0,0.0
25708,67.0,0.0,150.0,1.0,0.0
25709,55.0,0.0,150.0,1.0,0.0
25710,79.0,0.0,150.0,11.0,0.0
25711,67.0,0.0,150.0,0.0,0.0
25712,79.0,0.0,150.0,0.0,0.0
25713,55.0,0.0,150.0,2.0,0.0
25714,67.0,32.0,150.0,2.0,0.0
25715,54.0,48.0,60.0,14.0,0.0
25716,57.0,0.0,60.0,13.0,0.0
25717,55.0,16.0,60.0,14.0,0.0
25718,58.0,0.0,60.0,13.0,0.0
25719,50.0,0.0,60.0,13.0,0.0
25720,50.0,48.0,60.0,14.0,0.0
25721,58.0,48.0,60.0,13.0,0.0
25722,55.0,0.0,60.0,14.0,0.0
25723,57.0,0.0,60.0,14.0,0.0
25724,62.0,0.0,60.0,2.0,0.0
25725,74.0,0.0,60.0,0.0,0.0
25726,74.0,0.0,60.0,11.0,0.0
25727,60.0,0.0,60.0,13.0,0.0
25728,62.0,0.0,60.0,12.0,0.0
25729,62.0,48.0,60.0,1.0,0.0
25730,66.0,48.0,60.0,0.0,0.0
25731,78.0,0.0,60.0,0.0,0.0
25732,54.0,0.0,60.0,2.0,0.0
25733,66.0,0.0,60.0,2.0,0.0
25734,66.0,0.0,60.0,12.0,0.0
25735,58.0,0.0,60.0,14.0,0.0
25736,62.0,0.0,60.0,13.0,0.0
25737,66.0,0.0,60.0,1.0,0.0
25738,54.0,0.0,60.0,1.0,0.0
25739,78.0,0.0,60.0,11.0,0.0
25740,62.0,48.0,60.0,1.0,0.0
25741,60.0,0.0,60.0,13.0,0.0
25742,62.0,0.0,60.0,2.0,0.0
25743,74.0,0.0,60.0,11.0,0.0
25744,62.0,0.0,60.0,12.0,0.0
25745,57.0,0.0,60.0,14.0,0.0
25746,74.0,0.0,60.0,0.0,0.0
25747,67.0,0.0,150.0,12.0,0.0
25748,67.0,0.0,150.0,2.0,0.0
25749,55.0,0.0,150.0,2.0,0.0
25750,55.0,48.0,60.0,14.0,0.0
25751,79.0,0.0,150.0,11.0,0.0
25752,55.0,0.0,150.0,1.0,0.0
25753,67.0,32.0,150.0,1.0,0.0
25754,79.0,0.0,150.0,0.0,0.0
25755,67.0,0.0,150.0,0.0,0.0
25756,58.0,0.0,60.0,13.0,0.0
25757,54.0,48.0,60.0,14.0,0.0
25758,57.0,0.0,60.0,13.0,0.0
25759,55.0,16.0,60.0,14.0,0.0
25760,58.0,0.0,60.0,13.0,0.0
25761,50.0,48.0,60.0,14.0,0.0
25762,50.0,0.0,60.0,13.0,0.0
25763,58.0,48.0,60.0,13.0,0.0
25764,55.0,0.0,60.0,14.0,0.0
25765,74.0,48.0,60.0,11.0,0.0
25766,62.0,0.0,60.0,12.0,0.0
25767,57.0,0.0,60.0,14.0,0.0
25768,62.0,0.0,60.0,2.0,0.0
25769,62.0,0.0,60.0,1.0,0.0
25770,60.0,0.0,60.0,13.0,0.0
25771,74.0,0.0,60.0,0.0,0.0
25772,66.0,0.0,60.0,12.0,0.0
25773,58.0,0.0,60.0,14.0,0.0
25774,54.0,0.0,60.0,1.0,0.0
25775,66.0,0.0,60.0,1.0,0.0
25776,66.0,0.0,60.0,0.0,0.0
25777,62.0,0.0,60.0,13.0,0.0
25778,54.0,0.0,60.0,2.0,0.0
25779,78.0,0.0,60.0,11.0,0.0
25780,66.0,46.0,60.0,2.0,0.0
25781,78.0,0.0,60.0,0.0,0.0
25782,60.0,2.0,60.0,13.0,0.0
25783,74.0,0.0,60.0,11.0,0.0
25784,57.0,0.0,60.0,14.0,0.0
25785,62.0,0.0,60.0,2.0,0.0
25786,74.0,46.0,60.0,0.0,0.0
25787,62.0,0.0,60.0,12.0,0.0
25788,62.0,0.0,60.0,1.0,0.0
25789,58.0,0.0,60.0,13.0,0.0
25790,79.0,0.0,60.0,11.0,0.0
25791,67.0,0.0,60.0,1.0,0.0
25792,55.0,0.0,60.0,2.0,0.0
25793,55.0,46.0,60.0,14.0,0.0
25794,79.0,0.0,60.0,0.0,0.0
25795,67.0,2.0,60.0,12.0,0.0
25796,67.0,0.0,60.0,0.0,0.0
25797,55.0,0.0,60.0,1.0,0.0
25798,67.0,0.0,60.0,2.0,0.0
25799,51.0,0.0,60.0,13.0,0.0
25800,75.0,0.0,60.0,12.0,0.0
25801,63.0,0.0,60.0,1.0,0.0
25802,87.0,0.0,60.0,11.0,0.0
25803,75.0,48.0,60.0,0.0,0.0
25804,63.0,0.0,60.0,2.0,0.0
25805,75.0,0.0,60.0,1.0,0.0
25806,75.0,0.0,60.0,2.0,0.0
25807,87.0,0.0,60.0,0.0,0.0
25808,51.0,2.0,60.0,14.0,0.0
25809,85.0,0.0,60.0,11.0,0.0
25810,82.0,0.0,60.0,12.0,0.0
25811,82.0,0.0,60.0,0.0,0.0
25812,73.0,0.0,60.0,1.0,0.0
25813,70.0,48.0,60.0,1.0,0.0
25814,85.0,0.0,60.0,0.0,0.0
25815,70.0,0.0,60.0,2.0,0.0
25816,73.0,0.0,60.0,2.0,0.0
25817,75.0,0.0,60.0,2.0,0.0
25818,75.0,0.0,60.0,1.0,0.0
25819,87.0,0.0,60.0,0.0,0.0
25820,75.0,0.0,60.0,0.0,0.0
25821,87.0,0.0,60.0,11.0,0.0
25822,63.0,0.0,60.0,1.0,0.0
25823,75.0,0.0,60.0,12.0,0.0
25824,63.0,96.0,60.0,2.0,0.0
25825,85.0,0.0,150.0,0.0,0.0
25826,85.0,0.0,150.0,11.0,0.0
25827,73.0,0.0,150.0,1.0,0.0
25828,70.0,32.0,150.0,1.0,0.0
25829,82.0,0.0,150.0,12.0,0.0
25830,82.0,0.0,150.0,0.0,0.0
25831,73.0,0.0,150.0,2.0,0.0
25832,70.0,0.0,150.0,2.0,0.0
25833,39.0,0.0,60.0,2.0,0.0
25834,39.0,0.0,60.0,14.0,0.0
25835,51.0,0.0,60.0,4.0,0.0
25836,63.0,0.0,60.0,4.0,0.0
25837,39.0,0.0,60.0,3.0,0.0
25838,51.0,48.0,60.0,13.0,0.0
25839,27.0,0.0,60.0,3.0,0.0
25840,29.0,0.0,60.0,3.0,0.0
25841,65.0,0.0,60.0,4.0,0.0
25842,41.0,0.0,60.0,3.0,0.0
25843,41.0,0.0,60.0,14.0,0.0
25844,53.0,0.0,60.0,4.0,0.0
25845,53.0,0.0,60.0,13.0,0.0
25846,41.0,16.0,60.0,2.0,0.0
25847,39.0,0.0,60.0,2.0,0.0
25848,51.0,0.0,60.0,13.0,0.0
25849,27.0,0.0,60.0,3.0,0.0
25850,39.0,0.0,60.0,3.0,0.0
25851,39.0,96.0,60.0,14.0,0.0
25852,51.0,0.0,60.0,4.0,0.0
25853,63.0,0.0,60.0,4.0,0.0
25854,67.0,32.0,150.0,4.0,0.0
25855,55.0,0.0,150.0,4.0,0.0
25856,43.0,0.0,150.0,2.0,0.0
25857,55.0,0.0,150.0,13.0,0.0
25858,31.0,0.0,150.0,3.0,0.0
25859,43.0,0.0,150.0,14.0,0.0
25860,43.0,0.0,150.0,3.0,0.0
25861,63.0,0.0,60.0,2.0,0.0
25862,87.0,0.0,60.0,0.0,0.0
25863,63.0,0.0,60.0,1.0,0.0
25864,75.0,48.0,60.0,1.0,0.0
25865,87.0,0.0,60.0,11.0,0.0
25866,75.0,0.0,60.0,12.0,0.0
25867,75.0,0.0,60.0,0.0,0.0
25868,75.0,0.0,60.0,2.0,0.0
25869,82.0,16.0,60.0,0.0,0.0
25870,73.0,0.0,60.0,2.0,0.0
25871,70.0,0.0,60.0,2.0,0.0
25872,82.0,0.0,60.0,12.0,0.0
25873,85.0,0.0,60.0,11.0,0.0
25874,85.0,0.0,60.0,0.0,0.0
25875,70.0,0.0,60.0,1.0,0.0
25876,73.0,0.0,60.0,1.0,0.0
25877,75.0,0.0,60.0,0.0,0.0
25878,75.0,0.0,60.0,2.0,0.0
25879,63.0,96.0,60.0,2.0,0.0
25880,63.0,0.0,60.0,1.0,0.0
25881,75.0,0.0,60.0,12.0,0.0
25882,75.0,0.0,60.0,1.0,0.0
25883,87.0,0.0,60.0,11.0,0.0
25884,87.0,0.0,60.0,0.0,0.0
25885,68.0,0.0,150.0,1.0,0.0
25886,84.0,32.0,150.0,11.0,0.0
25887,80.0,0.0,150.0,0.0,0.0
25888,84.0,0.0,150.0,0.0,0.0
25889,72.0,0.0,150.0,1.0,0.0
25890,80.0,0.0,150.0,12.0,0.0
25891,72.0,0.0,150.0,2.0,0.0
25892,68.0,0.0,150.0,2.0,0.0
25893,39.0,0.0,60.0,14.0,0.0
25894,51.0,0.0,60.0,4.0,0.0
25895,63.0,0.0,60.0,4.0,0.0
25896,39.0,0.0,60.0,2.0,0.0
25897,27.0,0.0,60.0,3.0,0.0
25898,51.0,48.0,60.0,13.0,0.0
25899,39.0,0.0,60.0,3.0,0.0
25900,43.0,0.0,60.0,14.0,0.0
25901,67.0,0.0,60.0,4.0,0.0
25902,55.0,16.0,60.0,4.0,0.0
25903,31.0,0.0,60.0,3.0,0.0
25904,43.0,0.0,60.0,2.0,0.0
25905,55.0,0.0,60.0,13.0,0.0
25906,43.0,0.0,60.0,3.0,0.0
25907,51.0,0.0,60.0,13.0,0.0
25908,39.0,0.0,60.0,2.0,0.0
25909,39.0,0.0,60.0,14.0,0.0
25910,63.0,0.0,60.0,4.0,0.0
25911,51.0,0.0,60.0,4.0,0.0
25912,39.0,0.0,60.0,3.0,0.0
25913,27.0,94.0,60.0,3.0,0.0
25914,56.0,0.0,90.0,13.0,0.0
25915,44.0,0.0,90.0,3.0,0.0
25916,32.0,0.0,90.0,3.0,0.0
25917,44.0,0.0,90.0,14.0,0.0
25918,56.0,2.0,90.0,4.0,0.0
25919,44.0,0.0,90.0,2.0,0.0
25920,68.0,0.0,90.0,4.0,0.0
25921,80.0,48.0,60.0,11.0,0.0
25922,68.0,0.0,60.0,12.0,0.0
25923,75.0,0.0,60.0,12.0,0.0
25924,78.0,48.0,60.0,11.0,0.0
25925,44.0,0.0,60.0,14.0,0.0
25926,56.0,48.0,60.0,13.0,0.0
25927,68.0,0.0,60.0,12.0,0.0
25928,80.0,0.0,60.0,11.0,0.0
25929,58.0,46.0,60.0,13.0,0.0
25930,78.0,2.0,90.0,11.0,0.0
25931,75.0,0.0,90.0,12.0,0.0
25932,46.0,0.0,60.0,14.0,0.0
25933,44.0,94.0,60.0,14.0,0.0
25934,56.0,0.0,60.0,13.0,0.0
25935,48.0,0.0,90.0,14.0,0.0
25936,60.0,2.0,90.0,13.0,0.0
25937,68.0,0.0,60.0,12.0,0.0
25938,80.0,48.0,60.0,11.0,0.0
25939,75.0,0.0,60.0,12.0,0.0
25940,78.0,48.0,60.0,11.0,0.0
25941,44.0,0.0,60.0,14.0,0.0
25942,68.0,0.0,60.0,12.0,0.0
25943,80.0,48.0,60.0,11.0,0.0
25944,56.0,0.0,60.0,13.0,0.0
25945,73.0,0.0,90.0,12.0,0.0
25946,48.0,0.0,60.0,14.0,0.0
25947,60.0,46.0,60.0,13.0,0.0
25948,77.0,2.0,90.0,11.0,0.0
25949,56.0,0.0,60.0,13.0,0.0
25950,44.0,94.0,60.0,14.0,0.0
25951,61.0,2.0,90.0,13.0,0.0
25952,49.0,0.0,90.0,14.0,0.0
25953,61.0,0.0,60.0,1.0,0.0
25954,85.0,46.0,60.0,0.0,0.0
25955,73.0,0.0,60.0,12.0,0.0
25956,73.0,0.0,60.0,0.0,0.0
25957,85.0,0.0,60.0,11.0,0.0
25958,73.0,0.0,60.0,1.0,0.0
25959,80.0,0.0,60.0,12.0,0.0
25960,80.0,0.0,60.0,0.0,0.0
25961,83.0,0.0,60.0,11.0,0.0
25962,68.0,0.0,60.0,1.0,0.0
25963,71.0,50.0,60.0,1.0,0.0
25964,83.0,0.0,60.0,0.0,0.0
25965,61.0,0.0,60.0,13.0,0.0
25966,49.0,46.0,60.0,14.0,0.0
25967,61.0,0.0,60.0,2.0,0.0
25968,53.0,48.0,60.0,14.0,0.0
25969,65.0,0.0,60.0,13.0,0.0
25970,65.0,0.0,60.0,2.0,0.0
25971,85.0,46.0,60.0,11.0,0.0
25972,73.0,0.0,60.0,12.0,0.0
25973,73.0,0.0,60.0,0.0,0.0
25974,73.0,0.0,60.0,1.0,0.0
25975,61.0,0.0,60.0,1.0,0.0
25976,50.0,2.0,60.0,9.0,0.0
25977,85.0,0.0,60.0,0.0,0.0
25978,82.0,0.0,60.0,0.0,0.0
25979,78.0,0.0,60.0,0.0,0.0
25980,50.0,50.0,60.0,9.0,0.0
25981,78.0,0.0,60.0,12.0,0.0
25982,66.0,0.0,60.0,1.0,0.0
25983,70.0,0.0,60.0,1.0,0.0
25984,82.0,0.0,60.0,11.0,0.0
25985,61.0,0.0,60.0,13.0,0.0
25986,49.0,0.0,60.0,14.0,0.0
25987,61.0,46.0,60.0,2.0,0.0
25988,66.0,0.0,60.0,13.0,0.0
25989,66.0,0.0,60.0,2.0,0.0
25990,54.0,34.0,60.0,14.0,0.0
25991,61.0,0.0,60.0,13.0,0.0
25992,73.0,0.0,60.0,0.0,0.0
25993,85.0,0.0,60.0,0.0,0.0
25994,85.0,0.0,60.0,11.0,0.0
25995,50.0,2.0,60.0,9.0,0.0
25996,73.0,0.0,60.0,1.0,0.0
25997,49.0,32.0,60.0,14.0,0.0
25998,61.0,0.0,60.0,1.0,0.0
25999,34.0,14.0,30.0,9.0,0.0
26000,73.0,0.0,60.0,12.0,0.0
26001,61.0,0.0,60.0,2.0,0.0
26002,65.0,0.0,60.0,2.0,0.0
26003,68.0,48.0,60.0,2.0,0.0
26004,80.0,0.0,60.0,12.0,0.0
26005,50.0,0.0,60.0,9.0,0.0
26006,83.0,0.0,60.0,0.0,0.0
26007,80.0,0.0,60.0,0.0,0.0
26008,56.0,0.0,60.0,13.0,0.0
26009,71.0,0.0,60.0,1.0,0.0
26010,68.0,0.0,60.0,1.0,0.0
26011,83.0,0.0,60.0,11.0,0.0
26012,34.0,14.0,30.0,9.0,0.0
26013,53.0,0.0,60.0,14.0,0.0
26014,61.0,32.0,60.0,2.0,0.0
26015,73.0,0.0,60.0,0.0,0.0
26016,85.0,0.0,60.0,0.0,0.0
26017,61.0,0.0,60.0,13.0,0.0
26018,85.0,0.0,60.0,11.0,0.0
26019,73.0,0.0,60.0,1.0,0.0
26020,49.0,0.0,60.0,14.0,0.0
26021,50.0,2.0,60.0,9.0,0.0
26022,61.0,0.0,60.0,1.0,0.0
26023,73.0,0.0,60.0,12.0,0.0
26024,66.0,0.0,60.0,2.0,0.0
26025,70.0,0.0,60.0,2.0,0.0
26026,50.0,0.0,60.0,9.0,0.0
26027,82.0,0.0,60.0,11.0,0.0
26028,34.0,14.0,30.0,9.0,0.0
26029,82.0,0.0,60.0,0.0,0.0
26030,78.0,0.0,60.0,0.0,0.0
26031,42.0,0.0,15.0,8.0,0.0
26032,78.0,0.0,60.0,12.0,0.0
26033,66.0,0.0,60.0,1.0,0.0
26034,58.0,0.0,60.0,13.0,0.0
26035,54.0,34.0,60.0,14.0,0.0
26036,70.0,0.0,60.0,1.0,0.0
26037,75.0,0.0,60.0,0.0,0.0
26038,87.0,0.0,60.0,0.0,0.0
26039,87.0,0.0,60.0,11.0,0.0
26040,34.0,16.0,30.0,9.0,0.0
26041,75.0,0.0,60.0,1.0,0.0
26042,51.0,46.0,60.0,14.0,0.0
26043,63.0,0.0,60.0,13.0,0.0
26044,63.0,0.0,60.0,2.0,0.0
26045,63.0,0.0,60.0,1.0,0.0
26046,75.0,0.0,60.0,12.0,0.0
26047,58.0,0.0,60.0,13.0,0.0
26048,50.0,0.0,60.0,9.0,0.0
26049,85.0,0.0,60.0,0.0,0.0
26050,82.0,0.0,60.0,0.0,0.0
26051,70.0,0.0,60.0,2.0,0.0
26052,85.0,0.0,60.0,11.0,0.0
26053,55.0,0.0,60.0,14.0,0.0
26054,82.0,34.0,60.0,12.0,0.0
26055,73.0,0.0,60.0,1.0,0.0
26056,67.0,0.0,60.0,2.0,0.0
26057,70.0,0.0,60.0,1.0,0.0
26058,63.0,0.0,60.0,1.0,0.0
26059,75.0,0.0,60.0,12.0,0.0
26060,87.0,32.0,60.0,11.0,0.0
26061,42.0,0.0,60.0,8.0,0.0
26062,51.0,0.0,60.0,14.0,0.0
26063,34.0,14.0,30.0,9.0,0.0
26064,87.0,0.0,60.0,0.0,0.0
26065,63.0,0.0,60.0,13.0,0.0
26066,75.0,0.0,60.0,0.0,0.0
26067,63.0,0.0,60.0,2.0,0.0
26068,50.0,2.0,60.0,9.0,0.0
26069,75.0,0.0,60.0,1.0,0.0
26070,59.0,0.0,60.0,13.0,0.0
26071,56.0,0.0,60.0,14.0,0.0
26072,42.0,46.0,60.0,8.0,0.0
26073,83.0,0.0,60.0,11.0,0.0
26074,71.0,0.0,60.0,1.0,0.0
26075,34.0,14.0,30.0,9.0,0.0
26076,68.0,0.0,60.0,2.0,0.0
26077,83.0,0.0,60.0,0.0,0.0
26078,68.0,0.0,60.0,1.0,0.0
26079,80.0,2.0,60.0,12.0,0.0
26080,80.0,0.0,60.0,0.0,0.0
26081,71.0,0.0,60.0,2.0,0.0
26082,90.0,32.0,60.0,0.0,0.0
26083,66.0,0.0,60.0,13.0,0.0
26084,50.0,2.0,60.0,9.0,0.0
26085,54.0,0.0,60.0,14.0,0.0
26086,66.0,0.0,60.0,1.0,0.0
26087,90.0,0.0,60.0,11.0,0.0
26088,66.0,0.0,60.0,2.0,0.0
26089,78.0,0.0,60.0,0.0,0.0
26090,78.0,0.0,60.0,1.0,0.0
26091,78.0,0.0,60.0,12.0,0.0
26092,58.0,0.0,60.0,14.0,0.0
26093,85.0,0.0,60.0,12.0,0.0
26094,73.0,0.0,60.0,1.0,0.0
26095,88.0,0.0,60.0,11.0,0.0
26096,76.0,0.0,60.0,1.0,0.0
26097,70.0,2.0,60.0,2.0,0.0
26098,73.0,0.0,60.0,2.0,0.0
26099,85.0,0.0,60.0,0.0,0.0
26100,34.0,14.0,30.0,9.0,0.0
26101,42.0,32.0,60.0,8.0,0.0
26102,50.0,0.0,60.0,9.0,0.0
26103,61.0,0.0,60.0,13.0,0.0
26104,88.0,0.0,60.0,0.0,0.0
26105,66.0,46.0,60.0,13.0,0.0
26106,34.0,16.0,30.0,9.0,0.0
26107,66.0,0.0,60.0,1.0,0.0
26108,78.0,0.0,60.0,1.0,0.0
26109,90.0,0.0,60.0,11.0,0.0
26110,78.0,0.0,60.0,0.0,0.0
26111,54.0,0.0,60.0,14.0,0.0
26112,78.0,0.0,60.0,12.0,0.0
26113,66.0,0.0,60.0,2.0,0.0
26114,90.0,0.0,60.0,0.0,0.0
26115,42.0,46.0,60.0,8.0,0.0
26116,71.0,0.0,60.0,2.0,0.0
26117,83.0,0.0,60.0,0.0,0.0
26118,87.0,0.0,60.0,0.0,0.0
26119,83.0,0.0,60.0,12.0,0.0
26120,75.0,0.0,60.0,2.0,0.0
26121,87.0,0.0,60.0,11.0,0.0
26122,71.0,0.0,60.0,1.0,0.0
26123,59.0,2.0,60.0,14.0,0.0
26124,75.0,0.0,60.0,1.0,0.0
26125,63.0,0.0,60.0,13.0,0.0
26126,50.0,2.0,60.0,9.0,0.0
26127,66.0,0.0,60.0,13.0,0.0
26128,42.0,0.0,60.0,14.0,0.0
26129,66.0,32.0,60.0,12.0,0.0
26130,42.0,0.0,60.0,8.0,0.0
26131,78.0,0.0,60.0,11.0,0.0
26132,30.0,0.0,60.0,15.0,0.0
26133,46.0,0.0,60.0,14.0,0.0
26134,76.0,0.0,60.0,11.0,0.0
26135,50.0,2.0,60.0,9.0,0.0
26136,34.0,32.0,60.0,15.0,0.0
26137,54.0,0.0,60.0,13.0,0.0
26138,73.0,0.0,60.0,12.0,0.0
26139,34.0,14.0,30.0,9.0,0.0
26140,66.0,46.0,60.0,12.0,0.0
26141,42.0,0.0,60.0,8.0,0.0
26142,30.0,0.0,60.0,15.0,0.0
26143,66.0,0.0,60.0,13.0,0.0
26144,78.0,0.0,60.0,11.0,0.0
26145,42.0,0.0,60.0,14.0,0.0
26146,34.0,16.0,30.0,9.0,0.0
26147,50.0,2.0,60.0,9.0,0.0
26148,74.0,0.0,60.0,11.0,0.0
26149,54.0,0.0,60.0,13.0,0.0
26150,47.0,0.0,60.0,14.0,0.0
26151,42.0,32.0,60.0,8.0,0.0
26152,71.0,0.0,60.0,12.0,0.0
26153,35.0,0.0,60.0,15.0,0.0
26154,66.0,0.0,60.0,13.0,0.0
26155,66.0,0.0,60.0,12.0,0.0
26156,30.0,32.0,60.0,15.0,0.0
26157,50.0,2.0,60.0,9.0,0.0
26158,78.0,0.0,60.0,11.0,0.0
26159,42.0,0.0,60.0,14.0,0.0
26160,34.0,14.0,30.0,9.0,0.0
26161,49.0,0.0,60.0,14.0,0.0
26162,54.0,0.0,60.0,13.0,0.0
26163,37.0,46.0,60.0,15.0,0.0
26164,70.0,0.0,60.0,12.0,0.0
26165,42.0,0.0,60.0,8.0,0.0
26166,34.0,16.0,30.0,9.0,0.0
26167,73.0,0.0,60.0,11.0,0.0
26168,66.0,0.0,60.0,12.0,0.0
26169,66.0,0.0,60.0,13.0,0.0
26170,50.0,2.0,60.0,9.0,0.0
26171,42.0,0.0,60.0,14.0,0.0
26172,78.0,32.0,60.0,11.0,0.0
26173,42.0,0.0,60.0,8.0,0.0
26174,30.0,0.0,60.0,15.0,0.0
26175,50.0,2.0,60.0,9.0,0.0
26176,54.0,0.0,60.0,13.0,0.0
26177,50.0,0.0,60.0,14.0,0.0
26178,38.0,0.0,60.0,15.0,0.0
26179,71.0,32.0,60.0,12.0,0.0
26180,34.0,14.0,30.0,9.0,0.0
26181,71.0,0.0,60.0,11.0,0.0
26182,30.0,0.0,60.0,15.0,0.0
26183,34.0,16.0,30.0,9.0,0.0
26184,66.0,0.0,60.0,13.0,0.0
26185,42.0,0.0,60.0,14.0,0.0
26186,66.0,0.0,60.0,12.0,0.0
26187,78.0,0.0,60.0,11.0,0.0
26188,54.0,0.0,60.0,13.0,0.0
26189,70.0,0.0,60.0,12.0,0.0
26190,37.0,32.0,60.0,15.0,0.0
26191,50.0,2.0,60.0,9.0,0.0
26192,73.0,0.0,60.0,11.0,0.0
26193,49.0,0.0,60.0,14.0,0.0
26194,42.0,46.0,15.0,8.0,0.0
26195,66.0,0.0,60.0,13.0,0.0
26196,34.0,14.0,30.0,9.0,0.0
26197,50.0,2.0,60.0,9.0,0.0
26198,42.0,0.0,60.0,14.0,0.0
26199,30.0,32.0,60.0,15.0,0.0
26200,66.0,0.0,60.0,12.0,0.0
26201,78.0,0.0,60.0,11.0,0.0
26202,71.0,0.0,60.0,12.0,0.0
26203,54.0,0.0,60.0,13.0,0.0
26204,34.0,16.0,30.0,9.0,0.0
26205,47.0,0.0,60.0,14.0,0.0
26206,74.0,0.0,60.0,11.0,0.0
26207,35.0,0.0,60.0,15.0,0.0
26208,66.0,0.0,60.0,12.0,0.0
26209,66.0,0.0,60.0,13.0,0.0
26210,78.0,32.0,60.0,11.0,0.0
26211,50.0,2.0,60.0,9.0,0.0
26212,42.0,46.0,15.0,8.0,0.0
26213,30.0,0.0,60.0,15.0,0.0
26214,42.0,0.0,60.0,14.0,0.0
26215,71.0,32.0,60.0,12.0,0.0
26216,44.0,0.0,60.0,14.0,0.0
26217,32.0,0.0,60.0,15.0,0.0
26218,54.0,0.0,60.0,13.0,0.0
26219,34.0,16.0,30.0,9.0,0.0
26220,77.0,0.0,60.0,11.0,0.0
26221,34.0,14.0,30.0,9.0,0.0
26222,50.0,2.0,60.0,9.0,0.0
26223,30.0,24.0,60.0,15.0,0.0
26224,42.0,0.0,60.0,8.0,0.0
26225,42.0,0.0,60.0,14.0,0.0
26226,65.0,0.0,60.0,13.0,0.0
26227,78.0,0.0,15.0,11.0,0.0
26228,66.0,0.0,15.0,12.0,0.0
26229,70.0,0.0,60.0,12.0,0.0
26230,46.0,2.0,60.0,14.0,0.0
26231,66.0,0.0,60.0,13.0,0.0
26232,34.0,0.0,60.0,15.0,0.0
26233,42.0,22.0,15.0,8.0,0.0
26234,78.0,0.0,60.0,11.0,0.0
26235,30.0,0.0,60.0,15.0,0.0
26236,66.0,0.0,60.0,12.0,0.0
26237,42.0,0.0,60.0,14.0,0.0
26238,50.0,2.0,60.0,9.0,0.0
26239,34.0,14.0,30.0,9.0,0.0
26240,76.0,0.0,60.0,11.0,0.0
26241,34.0,0.0,60.0,15.0,0.0
26242,46.0,0.0,60.0,14.0,0.0
26243,54.0,0.0,60.0,13.0,0.0
26244,42.0,32.0,15.0,8.0,0.0
26245,73.0,32.0,60.0,12.0,0.0
26246,50.0,2.0,60.0,9.0,0.0
26247,42.0,0.0,60.0,8.0,0.0
26248,78.0,0.0,60.0,11.0,0.0
26249,42.0,0.0,60.0,14.0,0.0
26250,30.0,0.0,60.0,15.0,0.0
26251,66.0,0.0,60.0,12.0,0.0
26252,34.0,16.0,30.0,9.0,0.0
26253,66.0,24.0,60.0,13.0,0.0
26254,54.0,0.0,60.0,13.0,0.0
26255,50.0,2.0,60.0,9.0,0.0
26256,71.0,32.0,60.0,12.0,0.0
26257,74.0,0.0,60.0,11.0,0.0
26258,35.0,0.0,60.0,15.0,0.0
26259,47.0,0.0,60.0,14.0,0.0
26260,42.0,22.0,15.0,8.0,0.0
26261,66.0,0.0,60.0,13.0,0.0
26262,42.0,0.0,15.0,8.0,0.0
26263,42.0,0.0,60.0,14.0,0.0
26264,34.0,14.0,30.0,9.0,0.0
26265,50.0,2.0,60.0,9.0,0.0
26266,78.0,0.0,60.0,11.0,0.0
26267,30.0,32.0,60.0,15.0,0.0
26268,66.0,0.0,60.0,12.0,0.0
26269,54.0,0.0,60.0,13.0,0.0
26270,70.0,0.0,60.0,12.0,0.0
26271,42.0,0.0,15.0,8.0,0.0
26272,73.0,46.0,60.0,11.0,0.0
26273,49.0,0.0,60.0,14.0,0.0
26274,37.0,0.0,60.0,15.0,0.0
26275,34.0,16.0,30.0,9.0,0.0
26276,50.0,2.0,60.0,9.0,0.0
26277,78.0,0.0,60.0,11.0,0.0
26278,30.0,24.0,60.0,15.0,0.0
26279,66.0,0.0,60.0,12.0,0.0
26280,66.0,0.0,60.0,13.0,0.0
26281,42.0,0.0,60.0,14.0,0.0
26282,42.0,0.0,60.0,8.0,0.0
26283,71.0,0.0,60.0,12.0,0.0
26284,50.0,32.0,60.0,14.0,0.0
26285,50.0,2.0,60.0,9.0,0.0
26286,34.0,14.0,30.0,9.0,0.0
26287,71.0,0.0,60.0,11.0,0.0
26288,42.0,8.0,20.0,8.0,0.0
26289,38.0,0.0,60.0,15.0,0.0
26290,54.0,0.0,60.0,13.0,0.0
26291,66.0,46.0,60.0,13.0,0.0
26292,34.0,16.0,30.0,9.0,0.0
26293,30.0,0.0,60.0,15.0,0.0
26294,66.0,0.0,60.0,12.0,0.0
26295,42.0,0.0,15.0,8.0,0.0
26296,42.0,0.0,60.0,14.0,0.0
26297,78.0,0.0,60.0,11.0,0.0
26298,49.0,0.0,60.0,14.0,0.0
26299,54.0,16.0,60.0,13.0,0.0
26300,70.0,0.0,60.0,12.0,0.0
26301,50.0,2.0,60.0,9.0,0.0
26302,37.0,0.0,60.0,15.0,0.0
26303,73.0,0.0,60.0,11.0,0.0
26304,50.0,2.0,60.0,9.0,0.0
26305,78.0,0.0,60.0,11.0,0.0
26306,66.0,0.0,60.0,12.0,0.0
26307,42.0,0.0,15.0,8.0,0.0
26308,30.0,0.0,60.0,15.0,0.0
26309,34.0,24.0,15.0,9.0,0.0
26310,42.0,0.0,60.0,14.0,0.0
26311,66.0,0.0,60.0,13.0,0.0
26312,34.0,6.0,15.0,9.0,0.0
26313,54.0,0.0,60.0,13.0,0.0
26314,71.0,0.0,60.0,12.0,0.0
26315,34.0,8.0,15.0,9.0,0.0
26316,47.0,0.0,60.0,14.0,0.0
26317,35.0,0.0,60.0,15.0,0.0
26318,74.0,16.0,60.0,11.0,0.0
26319,34.0,8.0,15.0,9.0,0.0
26320,42.0,16.0,15.0,8.0,0.0
26321,42.0,0.0,15.0,8.0,0.0
26322,42.0,0.0,60.0,14.0,0.0
26323,30.0,0.0,60.0,15.0,0.0
26324,50.0,18.0,20.0,9.0,0.0
26325,78.0,0.0,60.0,11.0,0.0
26326,66.0,0.0,60.0,13.0,0.0
26327,66.0,0.0,60.0,12.0,0.0
26328,34.0,6.0,15.0,9.0,0.0
26329,34.0,6.0,15.0,9.0,0.0
26330,50.0,2.0,20.0,9.0,0.0
26331,50.0,18.0,20.0,9.0,0.0
26332,32.0,16.0,60.0,15.0,0.0
26333,77.0,0.0,60.0,11.0,0.0
26334,54.0,0.0,60.0,13.0,0.0
26335,42.0,16.0,15.0,8.0,0.0
26336,34.0,6.0,15.0,9.0,0.0
26337,44.0,0.0,60.0,14.0,0.0
26338,71.0,0.0,60.0,12.0,0.0
26339,50.0,2.0,20.0,9.0,0.0
26340,34.0,6.0,15.0,9.0,0.0
26341,34.0,6.0,15.0,9.0,0.0
26342,42.0,0.0,15.0,8.0,0.0
26343,78.0,0.0,60.0,11.0,0.0
26344,66.0,0.0,60.0,12.0,0.0
26345,30.0,0.0,60.0,15.0,0.0
26346,50.0,18.0,20.0,9.0,0.0
26347,42.0,0.0,60.0,14.0,0.0
26348,34.0,6.0,15.0,9.0,0.0
26349,50.0,2.0,20.0,9.0,0.0
26350,54.0,0.0,60.0,14.0,0.0
26351,66.0,0.0,15.0,13.0,0.0
26352,34.0,14.0,30.0,9.0,0.0
26353,70.0,0.0,60.0,12.0,0.0
26354,34.0,0.0,60.0,15.0,0.0
26355,50.0,2.0,90.0,9.0,0.0
26356,42.0,0.0,180.0,8.0,0.0
26357,78.0,0.0,60.0,11.0,0.0
26358,45.0,0.0,330.0,9.0,0.0
26359,70.0,32.0,60.0,11.0,0.0
26360,71.0,0.0,60.0,11.0,0.0
26361,42.0,0.0,30.0,7.0,0.0
26362,62.0,0.0,60.0,13.0,0.0
26363,42.0,0.0,30.0,6.0,0.0
26364,30.0,0.0,30.0,3.0,0.0
26365,30.0,16.0,30.0,15.0,0.0
26366,42.0,0.0,30.0,14.0,0.0
26367,42.0,0.0,30.0,3.0,0.0
26368,66.0,48.0,60.0,12.0,0.0
26369,54.0,0.0,30.0,6.0,0.0
26370,42.0,0.0,30.0,2.0,0.0
26371,70.0,32.0,60.0,11.0,0.0
26372,58.0,0.0,60.0,13.0,0.0
26373,70.0,0.0,60.0,12.0,0.0
26374,56.0,0.0,30.0,6.0,0.0
26375,32.0,0.0,30.0,3.0,0.0
26376,32.0,0.0,30.0,15.0,0.0
26377,44.0,14.0,30.0,6.0,0.0
26378,44.0,0.0,30.0,14.0,0.0
26379,44.0,0.0,30.0,3.0,0.0
26380,65.0,50.0,60.0,12.0,0.0
26381,62.0,0.0,60.0,13.0,0.0
26382,44.0,0.0,30.0,7.0,0.0
26383,44.0,0.0,30.0,2.0,0.0
26384,71.0,0.0,60.0,11.0,0.0
26385,58.0,32.0,60.0,11.0,0.0
26386,50.0,0.0,60.0,13.0,0.0
26387,42.0,0.0,30.0,3.0,0.0
26388,42.0,0.0,30.0,6.0,0.0
26389,42.0,0.0,30.0,2.0,0.0
26390,30.0,0.0,30.0,3.0,0.0
26391,30.0,0.0,30.0,15.0,0.0
26392,42.0,16.0,30.0,7.0,0.0
26393,54.0,0.0,30.0,6.0,0.0
26394,59.0,48.0,60.0,11.0,0.0
26395,42.0,0.0,30.0,14.0,0.0
26396,54.0,0.0,60.0,12.0,0.0
26397,58.0,0.0,60.0,11.0,0.0
26398,58.0,0.0,60.0,12.0,0.0
26399,58.0,46.0,60.0,13.0,0.0
26400,32.0,0.0,330.0,3.0,0.0
26401,56.0,0.0,390.0,6.0,0.0
26402,59.0,50.0,60.0,11.0,0.0
26403,50.0,0.0,60.0,13.0,0.0
26404,44.0,0.0,330.0,14.0,0.0
26405,32.0,46.0,330.0,15.0,0.0
26406,44.0,0.0,330.0,2.0,0.0
26407,53.0,0.0,60.0,12.0,0.0
26408,44.0,46.0,390.0,6.0,0.0
26409,44.0,0.0,390.0,7.0,0.0
26410,44.0,0.0,330.0,3.0,0.0
26411,74.0,48.0,60.0,11.0,0.0
26412,73.0,48.0,60.0,11.0,0.0
26413,71.0,0.0,60.0,11.0,0.0
26414,62.0,48.0,60.0,13.0,0.0
26415,69.0,48.0,60.0,11.0,0.0
26416,61.0,0.0,60.0,13.0,0.0
26417,59.0,0.0,60.0,13.0,0.0
26418,68.0,48.0,60.0,11.0,0.0
26419,57.0,0.0,60.0,13.0,0.0
26420,66.0,0.0,60.0,11.0,0.0
26421,65.0,0.0,60.0,11.0,0.0
26422,56.0,2.0,60.0,13.0,0.0
26423,64.0,0.0,60.0,11.0,0.0
26424,61.0,0.0,60.0,12.0,0.0
26425,55.0,50.0,60.0,13.0,0.0
26426,73.0,32.0,60.0,11.0,0.0
26427,46.0,0.0,30.0,3.0,0.0
26428,34.0,0.0,30.0,3.0,0.0
26429,46.0,16.0,30.0,7.0,0.0
26430,34.0,0.0,30.0,15.0,0.0
26431,67.0,0.0,60.0,12.0,0.0
26432,46.0,0.0,30.0,2.0,0.0
26433,46.0,0.0,30.0,6.0,0.0
26434,58.0,0.0,30.0,6.0,0.0
26435,46.0,0.0,30.0,14.0,0.0
26436,74.0,0.0,60.0,11.0,0.0
26437,64.0,48.0,60.0,13.0,0.0
26438,73.0,32.0,60.0,12.0,0.0
26439,61.0,0.0,60.0,13.0,0.0
26440,73.0,0.0,60.0,11.0,0.0
26441,59.0,0.0,30.0,6.0,0.0
26442,47.0,0.0,30.0,3.0,0.0
26443,62.0,50.0,60.0,13.0,0.0
26444,35.0,0.0,30.0,15.0,0.0
26445,74.0,0.0,60.0,11.0,0.0
26446,47.0,0.0,30.0,7.0,0.0
26447,47.0,14.0,30.0,6.0,0.0
26448,66.0,0.0,60.0,12.0,0.0
26449,47.0,0.0,30.0,14.0,0.0
26450,47.0,0.0,30.0,2.0,0.0
26451,35.0,0.0,30.0,3.0,0.0
26452,61.0,32.0,60.0,11.0,0.0
26453,46.0,0.0,30.0,7.0,0.0
26454,62.0,48.0,60.0,11.0,0.0
26455,34.0,0.0,30.0,3.0,0.0
26456,34.0,0.0,30.0,15.0,0.0
26457,46.0,16.0,30.0,14.0,0.0
26458,58.0,0.0,30.0,6.0,0.0
26459,50.0,0.0,60.0,13.0,0.0
26460,46.0,0.0,30.0,6.0,0.0
26461,46.0,0.0,30.0,3.0,0.0
26462,46.0,0.0,30.0,2.0,0.0
26463,55.0,0.0,60.0,12.0,0.0
26464,58.0,0.0,60.0,13.0,0.0
26465,61.0,0.0,60.0,12.0,0.0
26466,61.0,46.0,60.0,11.0,0.0
26467,47.0,24.0,390.0,7.0,0.0
26468,35.0,0.0,330.0,3.0,0.0
26469,47.0,0.0,390.0,6.0,0.0
26470,35.0,0.0,330.0,15.0,0.0
26471,47.0,0.0,330.0,2.0,0.0
26472,47.0,0.0,330.0,14.0,0.0
26473,62.0,0.0,60.0,11.0,0.0
26474,47.0,0.0,330.0,3.0,0.0
26475,50.0,0.0,60.0,13.0,0.0
26476,54.0,48.0,60.0,12.0,0.0
26477,59.0,0.0,390.0,6.0,0.0
26478,78.0,48.0,60.0,11.0,0.0
26479,76.0,50.0,60.0,11.0,0.0
26480,74.0,0.0,60.0,11.0,0.0
26481,66.0,48.0,60.0,13.0,0.0
26482,73.0,0.0,60.0,11.0,0.0
26483,64.0,48.0,60.0,13.0,0.0
26484,71.0,48.0,60.0,11.0,0.0
26485,62.0,0.0,60.0,13.0,0.0
26486,60.0,46.0,60.0,13.0,0.0
26487,69.0,0.0,60.0,11.0,0.0
26488,68.0,0.0,60.0,11.0,0.0
26489,59.0,2.0,60.0,13.0,0.0
26490,57.0,2.0,60.0,13.0,0.0
26491,66.0,46.0,60.0,11.0,0.0
26492,42.0,22.0,15.0,8.0,0.0
26493,42.0,48.0,60.0,8.0,0.0
26494,56.0,2.0,60.0,13.0,0.0
26495,65.0,0.0,60.0,11.0,0.0
26496,47.0,0.0,90.0,2.0,0.0
26497,42.0,48.0,60.0,8.0,0.0
26498,35.0,0.0,90.0,15.0,0.0
26499,47.0,0.0,90.0,14.0,0.0
26500,47.0,0.0,90.0,3.0,0.0
26501,59.0,0.0,90.0,6.0,0.0
26502,35.0,0.0,90.0,3.0,0.0
26503,59.0,24.0,90.0,4.0,0.0
26504,47.0,0.0,90.0,6.0,0.0
26505,47.0,0.0,90.0,7.0,0.0
26506,59.0,0.0,90.0,5.0,0.0
26507,47.0,0.0,90.0,4.0,0.0
26508,53.0,0.0,90.0,12.0,0.0
26509,61.0,48.0,90.0,11.0,0.0
26510,53.0,0.0,90.0,13.0,0.0
26511,45.0,0.0,90.0,7.0,0.0
26512,45.0,0.0,90.0,2.0,0.0
26513,33.0,0.0,90.0,3.0,0.0
26514,45.0,0.0,90.0,4.0,0.0
26515,57.0,0.0,90.0,5.0,0.0
26516,45.0,0.0,90.0,6.0,0.0
26517,33.0,0.0,90.0,15.0,0.0
26518,45.0,0.0,90.0,3.0,0.0
26519,42.0,0.0,15.0,8.0,0.0
26520,45.0,0.0,90.0,14.0,0.0
26521,57.0,0.0,90.0,6.0,0.0
26522,57.0,0.0,90.0,4.0,0.0
26523,42.0,24.0,15.0,8.0,0.0
26524,42.0,0.0,15.0,8.0,0.0
26525,54.0,0.0,90.0,13.0,0.0
26526,54.0,48.0,90.0,12.0,0.0
26527,63.0,0.0,90.0,11.0,0.0
26528,49.0,0.0,90.0,6.0,0.0
26529,61.0,0.0,90.0,4.0,0.0
26530,49.0,0.0,90.0,7.0,0.0
26531,49.0,0.0,90.0,3.0,0.0
26532,37.0,0.0,90.0,3.0,0.0
26533,42.0,0.0,15.0,8.0,0.0
26534,37.0,0.0,90.0,15.0,0.0
26535,49.0,0.0,90.0,4.0,0.0
26536,49.0,0.0,90.0,2.0,0.0
26537,61.0,0.0,90.0,5.0,0.0
26538,61.0,24.0,90.0,6.0,0.0
26539,49.0,0.0,90.0,14.0,0.0
26540,56.0,0.0,90.0,12.0,0.0
26541,42.0,0.0,15.0,8.0,0.0
26542,56.0,0.0,90.0,13.0,0.0
26543,65.0,0.0,90.0,11.0,0.0
26544,45.0,0.0,90.0,14.0,0.0
26545,33.0,0.0,90.0,3.0,0.0
26546,42.0,0.0,15.0,8.0,0.0
26547,45.0,48.0,90.0,3.0,0.0
26548,45.0,0.0,90.0,7.0,0.0
26549,45.0,0.0,90.0,6.0,0.0
26550,45.0,0.0,90.0,2.0,0.0
26551,45.0,0.0,90.0,4.0,0.0
26552,57.0,0.0,90.0,4.0,0.0
26553,33.0,0.0,90.0,15.0,0.0
26554,57.0,0.0,90.0,5.0,0.0
26555,57.0,0.0,90.0,6.0,0.0
26556,42.0,48.0,20.0,8.0,0.0
26557,57.0,0.0,90.0,13.0,0.0
26558,57.0,0.0,90.0,12.0,0.0
26559,42.0,0.0,60.0,8.0,0.0
26560,66.0,0.0,90.0,11.0,0.0
26561,32.0,0.0,90.0,15.0,0.0
26562,44.0,24.0,90.0,6.0,0.0
26563,56.0,0.0,90.0,6.0,0.0
26564,32.0,0.0,90.0,3.0,0.0
26565,44.0,0.0,90.0,14.0,0.0
26566,56.0,0.0,90.0,5.0,0.0
26567,44.0,0.0,90.0,4.0,0.0
26568,44.0,0.0,90.0,7.0,0.0
26569,56.0,0.0,90.0,4.0,0.0
26570,44.0,0.0,90.0,2.0,0.0
26571,44.0,0.0,90.0,3.0,0.0
26572,42.0,48.0,15.0,8.0,0.0
26573,59.0,0.0,90.0,13.0,0.0
26574,68.0,48.0,90.0,11.0,0.0
26575,59.0,0.0,90.0,12.0,0.0
26576,42.0,0.0,90.0,6.0,0.0
26577,42.0,48.0,90.0,4.0,0.0
26578,54.0,0.0,90.0,4.0,0.0
26579,54.0,0.0,90.0,5.0,0.0
26580,42.0,0.0,90.0,14.0,0.0
26581,30.0,0.0,90.0,3.0,0.0
26582,42.0,0.0,15.0,8.0,0.0
26583,42.0,0.0,90.0,7.0,0.0
26584,42.0,0.0,90.0,2.0,0.0
26585,30.0,0.0,90.0,15.0,0.0
26586,42.0,0.0,90.0,3.0,0.0
26587,54.0,0.0,90.0,6.0,0.0
26588,42.0,24.0,15.0,8.0,0.0
26589,66.0,0.0,90.0,12.0,0.0
26590,61.0,0.0,90.0,13.0,0.0
26591,69.0,0.0,90.0,11.0,0.0
26592,44.0,0.0,90.0,2.0,0.0
26593,56.0,0.0,90.0,6.0,0.0
26594,44.0,0.0,90.0,6.0,0.0
26595,44.0,0.0,90.0,14.0,0.0
26596,32.0,0.0,90.0,15.0,0.0
26597,42.0,0.0,15.0,8.0,0.0
26598,44.0,0.0,90.0,4.0,0.0
26599,44.0,0.0,90.0,3.0,0.0
26600,56.0,0.0,90.0,5.0,0.0
26601,56.0,0.0,90.0,4.0,0.0
26602,32.0,0.0,90.0,3.0,0.0
26603,44.0,0.0,90.0,7.0,0.0
26604,61.0,0.0,60.0,13.0,0.0
26605,42.0,48.0,15.0,8.0,0.0
26606,71.0,0.0,60.0,11.0,0.0
26607,73.0,0.0,60.0,11.0,0.0
26608,65.0,0.0,60.0,12.0,0.0
26609,73.0,0.0,90.0,12.0,0.0
26610,33.0,0.0,90.0,15.0,0.0
26611,45.0,0.0,90.0,4.0,0.0
26612,57.0,0.0,90.0,4.0,0.0
26613,45.0,0.0,90.0,7.0,0.0
26614,57.0,2.0,90.0,6.0,0.0
26615,45.0,0.0,90.0,14.0,0.0
26616,33.0,0.0,90.0,3.0,0.0
26617,45.0,0.0,90.0,3.0,0.0
26618,57.0,0.0,90.0,5.0,0.0
26619,78.0,0.0,90.0,11.0,0.0
26620,45.0,0.0,90.0,2.0,0.0
26621,45.0,0.0,330.0,9.0,0.0
26622,45.0,0.0,90.0,6.0,0.0
26623,66.0,0.0,90.0,13.0,0.0
26624,42.0,24.0,15.0,8.0,0.0
26625,42.0,24.0,15.0,8.0,0.0
26626,42.0,46.0,15.0,8.0,0.0
26627,47.0,0.0,90.0,3.0,0.0
26628,35.0,0.0,90.0,15.0,0.0
26629,47.0,0.0,90.0,14.0,0.0
26630,35.0,24.0,90.0,3.0,0.0
26631,47.0,0.0,90.0,2.0,0.0
26632,59.0,0.0,90.0,6.0,0.0
26633,42.0,48.0,60.0,8.0,0.0
26634,47.0,0.0,90.0,6.0,0.0
26635,47.0,0.0,90.0,7.0,0.0
26636,71.0,0.0,90.0,2.0,0.0
26637,59.0,0.0,90.0,4.0,0.0
26638,47.0,0.0,90.0,4.0,0.0
26639,59.0,0.0,90.0,5.0,0.0
26640,73.0,0.0,90.0,11.0,0.0
26641,61.0,0.0,90.0,13.0,0.0
26642,65.0,0.0,90.0,12.0,0.0
26643,42.0,0.0,60.0,8.0,0.0
26644,45.0,0.0,90.0,14.0,0.0
26645,45.0,0.0,90.0,7.0,0.0
26646,45.0,0.0,90.0,3.0,0.0
26647,45.0,0.0,90.0,6.0,0.0
26648,45.0,0.0,90.0,2.0,0.0
26649,57.0,0.0,90.0,4.0,0.0
26650,33.0,0.0,90.0,3.0,0.0
26651,57.0,0.0,90.0,5.0,0.0
26652,57.0,0.0,90.0,6.0,0.0
26653,69.0,48.0,90.0,2.0,0.0
26654,45.0,0.0,90.0,4.0,0.0
26655,33.0,0.0,90.0,15.0,0.0
26656,42.0,24.0,20.0,8.0,0.0
26657,63.0,0.0,90.0,13.0,0.0
26658,42.0,48.0,15.0,8.0,0.0
26659,66.0,0.0,90.0,12.0,0.0
26660,73.0,0.0,90.0,11.0,0.0
26661,49.0,0.0,90.0,6.0,0.0
26662,37.0,24.0,90.0,15.0,0.0
26663,42.0,48.0,60.0,8.0,0.0
26664,61.0,0.0,90.0,6.0,0.0
26665,49.0,0.0,90.0,14.0,0.0
26666,49.0,0.0,90.0,7.0,0.0
26667,37.0,0.0,90.0,3.0,0.0
26668,49.0,0.0,90.0,3.0,0.0
26669,49.0,0.0,90.0,4.0,0.0
26670,61.0,0.0,90.0,4.0,0.0
26671,49.0,0.0,90.0,2.0,0.0
26672,61.0,0.0,90.0,5.0,0.0
26673,73.0,0.0,90.0,2.0,0.0
26674,68.0,48.0,90.0,12.0,0.0
26675,65.0,0.0,90.0,13.0,0.0
26676,73.0,0.0,90.0,11.0,0.0
26677,69.0,0.0,90.0,2.0,0.0
26678,45.0,48.0,90.0,4.0,0.0
26679,57.0,0.0,90.0,6.0,0.0
26680,45.0,0.0,90.0,3.0,0.0
26681,45.0,0.0,90.0,2.0,0.0
26682,45.0,0.0,90.0,7.0,0.0
26683,42.0,0.0,15.0,8.0,0.0
26684,57.0,0.0,90.0,4.0,0.0
26685,57.0,0.0,90.0,5.0,0.0
26686,45.0,0.0,90.0,14.0,0.0
26687,33.0,0.0,90.0,3.0,0.0
26688,45.0,0.0,90.0,6.0,0.0
26689,33.0,0.0,90.0,15.0,0.0
26690,45.0,32.0,150.0,9.0,0.0
26691,42.0,0.0,20.0,8.0,0.0
26692,66.0,0.0,90.0,13.0,0.0
26693,69.0,0.0,90.0,12.0,0.0
26694,73.0,0.0,90.0,11.0,0.0
26695,44.0,0.0,90.0,14.0,0.0
26696,56.0,0.0,90.0,4.0,0.0
26697,44.0,0.0,90.0,2.0,0.0
26698,42.0,0.0,15.0,8.0,0.0
26699,56.0,0.0,90.0,5.0,0.0
26700,44.0,0.0,90.0,3.0,0.0
26701,44.0,0.0,90.0,7.0,0.0
26702,32.0,0.0,90.0,15.0,0.0
26703,56.0,0.0,90.0,6.0,0.0
26704,68.0,0.0,90.0,2.0,0.0
26705,44.0,24.0,90.0,4.0,0.0
26706,44.0,0.0,90.0,6.0,0.0
26707,32.0,0.0,90.0,3.0,0.0
26708,68.0,0.0,90.0,13.0,0.0
26709,77.0,48.0,90.0,12.0,0.0
26710,42.0,16.0,15.0,8.0,0.0
26711,80.0,0.0,90.0,11.0,0.0
26712,42.0,0.0,90.0,6.0,0.0
26713,42.0,46.0,90.0,3.0,0.0
26714,54.0,0.0,90.0,4.0,0.0
26715,42.0,0.0,90.0,2.0,0.0
26716,45.0,30.0,150.0,9.0,0.0
26717,54.0,0.0,90.0,5.0,0.0
26718,30.0,0.0,90.0,15.0,0.0
26719,30.0,0.0,90.0,3.0,0.0
26720,54.0,0.0,90.0,6.0,0.0
26721,42.0,0.0,90.0,7.0,0.0
26722,42.0,0.0,90.0,4.0,0.0
26723,66.0,0.0,90.0,2.0,0.0
26724,42.0,24.0,20.0,8.0,0.0
26725,42.0,0.0,90.0,14.0,0.0
26726,42.0,0.0,20.0,8.0,0.0
26727,81.0,16.0,90.0,11.0,0.0
26728,78.0,0.0,90.0,12.0,0.0
26729,69.0,2.0,90.0,13.0,0.0
26730,68.0,0.0,90.0,2.0,0.0
26731,56.0,0.0,90.0,4.0,0.0
26732,44.0,0.0,90.0,3.0,0.0
26733,44.0,0.0,90.0,14.0,0.0
26734,44.0,0.0,90.0,4.0,0.0
26735,44.0,0.0,90.0,2.0,0.0
26736,32.0,0.0,90.0,3.0,0.0
26737,42.0,0.0,15.0,8.0,0.0
26738,32.0,0.0,90.0,15.0,0.0
26739,56.0,0.0,90.0,5.0,0.0
26740,44.0,0.0,90.0,6.0,0.0
26741,56.0,0.0,90.0,6.0,0.0
26742,44.0,0.0,90.0,7.0,0.0
26743,42.0,0.0,15.0,8.0,0.0
26744,85.0,2.0,60.0,11.0,0.0
26745,83.0,0.0,60.0,11.0,0.0
26746,73.0,94.0,60.0,12.0,0.0
26747,77.0,0.0,60.0,12.0,0.0
26748,45.0,0.0,90.0,14.0,0.0
26749,45.0,0.0,90.0,3.0,0.0
26750,45.0,0.0,90.0,2.0,0.0
26751,57.0,0.0,90.0,4.0,0.0
26752,90.0,2.0,90.0,11.0,0.0
26753,78.0,0.0,90.0,12.0,0.0
26754,45.0,0.0,90.0,6.0,0.0
26755,45.0,0.0,90.0,4.0,0.0
26756,85.0,0.0,90.0,12.0,0.0
26757,42.0,48.0,180.0,8.0,0.0
26758,69.0,0.0,90.0,2.0,0.0
26759,45.0,0.0,330.0,9.0,0.0
26760,33.0,0.0,90.0,3.0,0.0
26761,57.0,0.0,90.0,5.0,0.0
26762,57.0,0.0,90.0,6.0,0.0
26763,33.0,0.0,90.0,15.0,0.0
26764,45.0,0.0,90.0,7.0,0.0
26765,49.0,48.0,60.0,13.0,0.0
26766,51.0,46.0,60.0,13.0,0.0
26767,61.0,2.0,60.0,11.0,0.0
26768,61.0,0.0,60.0,2.0,0.0
26769,49.0,0.0,60.0,13.0,0.0
26770,60.0,46.0,60.0,2.0,0.0
26771,51.0,30.0,150.0,13.0,0.0
26772,60.0,0.0,60.0,11.0,0.0
26773,44.0,2.0,90.0,14.0,0.0
26774,63.0,48.0,60.0,11.0,0.0
26775,63.0,0.0,60.0,2.0,0.0
26776,48.0,0.0,90.0,14.0,0.0
26777,66.0,16.0,60.0,11.0,0.0
26778,66.0,0.0,60.0,2.0,0.0
26779,69.0,0.0,60.0,1.0,0.0
26780,69.0,34.0,60.0,2.0,0.0
26781,69.0,0.0,60.0,11.0,0.0
26782,49.0,2.0,90.0,14.0,0.0
26783,65.0,0.0,60.0,1.0,0.0
26784,65.0,16.0,30.0,2.0,0.0
26785,65.0,46.0,60.0,11.0,0.0
26786,68.0,0.0,60.0,1.0,0.0
26787,53.0,0.0,60.0,13.0,0.0
26788,68.0,48.0,60.0,11.0,0.0
26789,71.0,0.0,60.0,11.0,0.0
26790,71.0,46.0,60.0,1.0,0.0
26791,54.0,0.0,60.0,13.0,0.0
26792,53.0,32.0,60.0,13.0,0.0
26793,74.0,0.0,60.0,1.0,0.0
26794,74.0,2.0,60.0,0.0,0.0
26795,74.0,0.0,60.0,11.0,0.0
26796,73.0,16.0,30.0,1.0,0.0
26797,73.0,46.0,60.0,0.0,0.0
26798,73.0,0.0,60.0,11.0,0.0
26799,54.0,30.0,150.0,13.0,0.0
26800,45.0,2.0,90.0,14.0,0.0
26801,78.0,0.0,60.0,0.0,0.0
26802,78.0,48.0,60.0,11.0,0.0
26803,81.0,16.0,60.0,0.0,0.0
26804,81.0,0.0,60.0,11.0,0.0
26805,42.0,34.0,90.0,14.0,0.0
26806,85.0,0.0,60.0,11.0,0.0
26807,85.0,0.0,60.0,0.0,0.0
26808,75.0,0.0,90.0,1.0,0.0
26809,45.0,0.0,330.0,9.0,0.0
26810,34.0,62.0,30.0,9.0,0.0
26811,44.0,0.0,90.0,14.0,0.0
26812,75.0,2.0,90.0,12.0,0.0
26813,84.0,0.0,90.0,11.0,0.0
26814,84.0,0.0,90.0,0.0,0.0
26815,56.0,48.0,60.0,13.0,0.0
26816,54.0,32.0,60.0,13.0,0.0
26817,56.0,32.0,60.0,13.0,0.0
26818,44.0,16.0,30.0,14.0,0.0
26819,84.0,0.0,30.0,11.0,0.0
26820,34.0,0.0,30.0,9.0,0.0
26821,80.0,0.0,30.0,1.0,0.0
26822,80.0,0.0,30.0,12.0,0.0
26823,80.0,0.0,30.0,0.0,0.0
26824,84.0,0.0,30.0,0.0,0.0
26825,85.0,0.0,30.0,0.0,0.0
26826,73.0,16.0,30.0,0.0,0.0
26827,73.0,0.0,30.0,12.0,0.0
26828,85.0,0.0,30.0,11.0,0.0
26829,34.0,0.0,30.0,9.0,0.0
26830,49.0,0.0,30.0,14.0,0.0
26831,73.0,0.0,30.0,1.0,0.0
26832,52.0,48.0,60.0,13.0,0.0
26833,51.0,48.0,60.0,13.0,0.0
26834,49.0,32.0,60.0,13.0,0.0
26835,60.0,0.0,30.0,12.0,0.0
26836,34.0,0.0,30.0,9.0,0.0
26837,60.0,0.0,30.0,2.0,0.0
26838,51.0,34.0,60.0,13.0,0.0
26839,44.0,14.0,30.0,14.0,0.0
26840,68.0,0.0,30.0,11.0,0.0
26841,60.0,0.0,30.0,1.0,0.0
26842,68.0,0.0,30.0,1.0,0.0
26843,61.0,16.0,30.0,12.0,0.0
26844,34.0,0.0,30.0,9.0,0.0
26845,64.0,0.0,30.0,11.0,0.0
26846,61.0,0.0,30.0,1.0,0.0
26847,52.0,48.0,60.0,13.0,0.0
26848,49.0,0.0,30.0,14.0,0.0
26849,61.0,0.0,30.0,2.0,0.0
26850,64.0,0.0,30.0,1.0,0.0
26851,54.0,48.0,60.0,13.0,0.0
26852,52.0,32.0,60.0,13.0,0.0
26853,80.0,0.0,30.0,0.0,0.0
26854,84.0,0.0,30.0,11.0,0.0
26855,44.0,0.0,30.0,14.0,0.0
26856,80.0,0.0,30.0,12.0,0.0
26857,34.0,16.0,30.0,9.0,0.0
26858,56.0,32.0,60.0,13.0,0.0
26859,80.0,0.0,30.0,1.0,0.0
26860,84.0,0.0,30.0,0.0,0.0
26861,49.0,16.0,30.0,14.0,0.0
26862,34.0,0.0,30.0,9.0,0.0
26863,73.0,0.0,30.0,12.0,0.0
26864,73.0,0.0,30.0,0.0,0.0
26865,85.0,0.0,30.0,0.0,0.0
26866,85.0,0.0,30.0,11.0,0.0
26867,73.0,0.0,30.0,1.0,0.0
26868,52.0,48.0,60.0,13.0,0.0
26869,51.0,48.0,60.0,13.0,0.0
26870,49.0,32.0,60.0,13.0,0.0
26871,44.0,0.0,30.0,14.0,0.0
26872,60.0,0.0,30.0,1.0,0.0
26873,68.0,0.0,30.0,11.0,0.0
26874,60.0,0.0,30.0,2.0,0.0
26875,68.0,0.0,30.0,0.0,0.0
26876,60.0,14.0,30.0,12.0,0.0
26877,60.0,0.0,30.0,0.0,0.0
26878,51.0,34.0,60.0,13.0,0.0
26879,34.0,0.0,30.0,9.0,0.0
26880,68.0,18.0,90.0,1.0,0.0
26881,49.0,0.0,30.0,14.0,0.0
26882,61.0,2.0,90.0,0.0,0.0
26883,64.0,0.0,30.0,11.0,0.0
26884,64.0,0.0,30.0,0.0,0.0
26885,61.0,0.0,30.0,12.0,0.0
26886,34.0,14.0,30.0,9.0,0.0
26887,52.0,0.0,30.0,13.0,0.0
26888,64.0,0.0,30.0,2.0,0.0
26889,61.0,0.0,30.0,1.0,0.0
26890,64.0,0.0,30.0,1.0,0.0
26891,65.0,0.0,60.0,1.0,0.0
26892,65.0,32.0,60.0,5.0,0.0
26893,65.0,0.0,60.0,12.0,0.0
26894,53.0,0.0,60.0,4.0,0.0
26895,34.0,24.0,15.0,9.0,0.0
26896,34.0,6.0,15.0,9.0,0.0
26897,73.0,0.0,30.0,11.0,0.0
26898,61.0,0.0,30.0,4.0,0.0
26899,49.0,0.0,30.0,4.0,0.0
26900,45.0,0.0,30.0,3.0,0.0
26901,66.0,2.0,60.0,12.0,0.0
26902,54.0,0.0,60.0,4.0,0.0
26903,61.0,0.0,30.0,3.0,0.0
26904,57.0,0.0,30.0,3.0,0.0
26905,73.0,0.0,30.0,5.0,0.0
26906,61.0,2.0,30.0,6.0,0.0
26907,57.0,0.0,30.0,14.0,0.0
26908,34.0,0.0,30.0,9.0,0.0
26909,73.0,0.0,30.0,0.0,0.0
26910,61.0,0.0,30.0,13.0,0.0
26911,57.0,0.0,30.0,6.0,0.0
26912,73.0,0.0,30.0,2.0,0.0
26913,61.0,0.0,30.0,5.0,0.0
26914,66.0,12.0,30.0,5.0,0.0
26915,66.0,32.0,60.0,1.0,0.0
26916,61.0,0.0,30.0,2.0,0.0
26917,65.0,0.0,60.0,1.0,0.0
26918,53.0,32.0,60.0,4.0,0.0
26919,65.0,0.0,60.0,5.0,0.0
26920,65.0,2.0,60.0,12.0,0.0
26921,34.0,14.0,30.0,9.0,0.0
26922,56.0,0.0,30.0,6.0,0.0
26923,66.0,2.0,60.0,12.0,0.0
26924,60.0,0.0,30.0,2.0,0.0
26925,60.0,0.0,30.0,13.0,0.0
26926,34.0,0.0,30.0,9.0,0.0
26927,56.0,0.0,30.0,14.0,0.0
26928,75.0,0.0,30.0,0.0,0.0
26929,60.0,0.0,30.0,6.0,0.0
26930,44.0,0.0,30.0,3.0,0.0
26931,51.0,0.0,30.0,4.0,0.0
26932,66.0,16.0,60.0,1.0,0.0
26933,60.0,0.0,30.0,3.0,0.0
26934,56.0,0.0,30.0,3.0,0.0
26935,63.0,0.0,30.0,4.0,0.0
26936,66.0,12.0,30.0,5.0,0.0
26937,75.0,0.0,30.0,11.0,0.0
26938,54.0,0.0,60.0,4.0,0.0
26939,75.0,2.0,30.0,5.0,0.0
26940,63.0,0.0,30.0,5.0,0.0
26941,75.0,0.0,30.0,2.0,0.0
26942,65.0,0.0,60.0,5.0,0.0
26943,53.0,32.0,60.0,4.0,0.0
26944,65.0,2.0,60.0,12.0,0.0
26945,65.0,0.0,60.0,1.0,0.0
26946,34.0,24.0,15.0,9.0,0.0
26947,34.0,6.0,15.0,9.0,0.0
26948,73.0,0.0,30.0,0.0,0.0
26949,45.0,0.0,30.0,3.0,0.0
26950,49.0,0.0,30.0,3.0,0.0
26951,49.0,0.0,30.0,2.0,0.0
26952,45.0,2.0,30.0,14.0,0.0
26953,61.0,0.0,30.0,5.0,0.0
26954,66.0,12.0,30.0,5.0,0.0
26955,54.0,0.0,60.0,4.0,0.0
26956,34.0,0.0,30.0,9.0,0.0
26957,45.0,0.0,30.0,7.0,0.0
26958,45.0,0.0,30.0,6.0,0.0
26959,73.0,0.0,30.0,2.0,0.0
26960,33.0,0.0,30.0,3.0,0.0
26961,49.0,0.0,30.0,13.0,0.0
26962,66.0,2.0,60.0,12.0,0.0
26963,49.0,0.0,30.0,6.0,0.0
26964,61.0,0.0,30.0,4.0,0.0
26965,49.0,0.0,30.0,4.0,0.0
26966,66.0,32.0,60.0,1.0,0.0
26967,73.0,0.0,30.0,11.0,0.0
26968,73.0,0.0,30.0,5.0,0.0
26969,65.0,0.0,60.0,1.0,0.0
26970,65.0,0.0,60.0,5.0,0.0
26971,53.0,32.0,60.0,4.0,0.0
26972,65.0,2.0,60.0,12.0,0.0
26973,34.0,14.0,30.0,9.0,0.0
26974,48.0,0.0,150.0,6.0,0.0
26975,75.0,0.0,150.0,2.0,0.0
26976,66.0,0.0,150.0,1.0,0.0
26977,63.0,0.0,150.0,4.0,0.0
26978,51.0,0.0,150.0,4.0,0.0
26979,75.0,0.0,150.0,11.0,0.0
26980,48.0,0.0,150.0,2.0,0.0
26981,48.0,0.0,60.0,13.0,0.0
26982,66.0,0.0,120.0,5.0,0.0
26983,75.0,0.0,150.0,0.0,0.0
26984,44.0,0.0,150.0,7.0,0.0
26985,54.0,0.0,150.0,4.0,0.0
26986,63.0,14.0,120.0,5.0,0.0
26987,44.0,0.0,150.0,6.0,0.0
26988,66.0,2.0,150.0,12.0,0.0
26989,34.0,14.0,30.0,9.0,0.0
26990,48.0,50.0,60.0,3.0,0.0
26991,44.0,0.0,60.0,3.0,0.0
26992,75.0,32.0,150.0,5.0,0.0
26993,44.0,0.0,60.0,14.0,0.0
26994,32.0,0.0,60.0,14.0,0.0
26995,32.0,32.0,60.0,3.0,0.0
26996,44.0,0.0,60.0,13.0,0.0
26997,46.0,0.0,60.0,13.0,0.0
26998,34.0,0.0,60.0,3.0,0.0
26999,34.0,16.0,60.0,14.0,0.0
27000,56.0,0.0,60.0,5.0,0.0
27001,56.0,0.0,60.0,11.0,0.0
27002,56.0,48.0,60.0,1.0,0.0
27003,36.0,0.0,60.0,3.0,0.0
27004,56.0,0.0,60.0,4.0,0.0
27005,56.0,0.0,60.0,12.0,0.0
27006,48.0,0.0,60.0,13.0,0.0
27007,36.0,0.0,60.0,14.0,0.0
27008,58.0,0.0,60.0,11.0,0.0
27009,58.0,0.0,60.0,12.0,0.0
27010,37.0,0.0,60.0,14.0,0.0
27011,37.0,0.0,60.0,3.0,0.0
27012,58.0,0.0,60.0,5.0,0.0
27013,58.0,0.0,60.0,4.0,0.0
27014,58.0,0.0,60.0,1.0,0.0
27015,49.0,0.0,60.0,13.0,0.0
27016,60.0,0.0,60.0,12.0,0.0
27017,60.0,0.0,60.0,11.0,0.0
27018,60.0,0.0,60.0,5.0,0.0
27019,39.0,0.0,60.0,3.0,0.0
27020,60.0,0.0,60.0,1.0,0.0
27021,39.0,48.0,60.0,14.0,0.0
27022,51.0,0.0,60.0,13.0,0.0
27023,60.0,0.0,60.0,4.0,0.0
27024,52.0,0.0,60.0,13.0,0.0
27025,61.0,0.0,60.0,11.0,0.0
27026,40.0,46.0,60.0,3.0,0.0
27027,61.0,0.0,60.0,5.0,0.0
27028,40.0,0.0,60.0,14.0,0.0
27029,61.0,0.0,60.0,1.0,0.0
27030,61.0,0.0,60.0,4.0,0.0
27031,61.0,0.0,60.0,12.0,0.0
27032,42.0,0.0,60.0,14.0,0.0
27033,54.0,0.0,60.0,13.0,0.0
27034,63.0,2.0,60.0,11.0,0.0
27035,63.0,0.0,60.0,4.0,0.0
27036,63.0,0.0,60.0,1.0,0.0
27037,63.0,32.0,60.0,5.0,0.0
27038,42.0,0.0,60.0,3.0,0.0
27039,63.0,0.0,60.0,12.0,0.0
27040,56.0,0.0,30.0,13.0,0.0
27041,37.0,0.0,30.0,14.0,0.0
27042,61.0,0.0,60.0,1.0,0.0
27043,44.0,0.0,30.0,3.0,0.0
27044,65.0,14.0,30.0,5.0,0.0
27045,34.0,0.0,30.0,9.0,0.0
27046,65.0,0.0,60.0,11.0,0.0
27047,61.0,0.0,30.0,4.0,0.0
27048,37.0,0.0,30.0,3.0,0.0
27049,61.0,0.0,60.0,12.0,0.0
27050,65.0,0.0,30.0,4.0,0.0
27051,34.0,24.0,15.0,9.0,0.0
27052,68.0,0.0,60.0,12.0,0.0
27053,68.0,2.0,60.0,1.0,0.0
27054,56.0,0.0,60.0,4.0,0.0
27055,68.0,32.0,60.0,5.0,0.0
27056,34.0,6.0,15.0,9.0,0.0
27057,59.0,0.0,30.0,3.0,0.0
27058,77.0,0.0,30.0,2.0,0.0
27059,77.0,0.0,30.0,11.0,0.0
27060,47.0,0.0,30.0,3.0,0.0
27061,59.0,0.0,30.0,14.0,0.0
27062,57.0,32.0,60.0,4.0,0.0
27063,65.0,0.0,30.0,4.0,0.0
27064,77.0,0.0,30.0,5.0,0.0
27065,53.0,0.0,30.0,4.0,0.0
27066,69.0,0.0,60.0,12.0,0.0
27067,69.0,2.0,60.0,1.0,0.0
27068,62.0,0.0,30.0,13.0,0.0
27069,59.0,0.0,30.0,6.0,0.0
27070,62.0,0.0,30.0,6.0,0.0
27071,65.0,0.0,30.0,5.0,0.0
27072,69.0,12.0,30.0,5.0,0.0
27073,62.0,0.0,30.0,2.0,0.0
27074,77.0,0.0,30.0,0.0,0.0
27075,34.0,0.0,30.0,9.0,0.0
27076,62.0,2.0,30.0,3.0,0.0
27077,68.0,0.0,60.0,12.0,0.0
27078,34.0,14.0,30.0,9.0,0.0
27079,68.0,0.0,60.0,5.0,0.0
27080,68.0,2.0,60.0,1.0,0.0
27081,56.0,32.0,60.0,4.0,0.0
27082,61.0,0.0,30.0,2.0,0.0
27083,57.0,0.0,30.0,6.0,0.0
27084,61.0,0.0,30.0,3.0,0.0
27085,34.0,2.0,30.0,9.0,0.0
27086,61.0,0.0,30.0,13.0,0.0
27087,57.0,0.0,30.0,14.0,0.0
27088,57.0,0.0,30.0,3.0,0.0
27089,78.0,0.0,30.0,0.0,0.0
27090,69.0,12.0,30.0,5.0,0.0
27091,66.0,0.0,30.0,5.0,0.0
27092,61.0,0.0,30.0,6.0,0.0
27093,54.0,0.0,30.0,4.0,0.0
27094,69.0,0.0,60.0,1.0,0.0
27095,78.0,0.0,30.0,2.0,0.0
27096,69.0,2.0,60.0,12.0,0.0
27097,57.0,16.0,60.0,4.0,0.0
27098,66.0,0.0,30.0,4.0,0.0
27099,45.0,0.0,30.0,3.0,0.0
27100,78.0,0.0,30.0,5.0,0.0
27101,78.0,0.0,30.0,11.0,0.0
27102,34.0,24.0,15.0,9.0,0.0
27103,68.0,2.0,60.0,1.0,0.0
27104,56.0,0.0,60.0,4.0,0.0
27105,68.0,0.0,60.0,12.0,0.0
27106,68.0,32.0,60.0,5.0,0.0
27107,34.0,6.0,15.0,9.0,0.0
27108,50.0,2.0,30.0,13.0,0.0
27109,50.0,0.0,30.0,3.0,0.0
27110,69.0,0.0,60.0,12.0,0.0
27111,57.0,32.0,60.0,4.0,0.0
27112,50.0,0.0,30.0,2.0,0.0
27113,77.0,0.0,30.0,5.0,0.0
27114,47.0,0.0,30.0,7.0,0.0
27115,69.0,2.0,60.0,1.0,0.0
27116,77.0,0.0,30.0,2.0,0.0
27117,47.0,0.0,30.0,14.0,0.0
27118,77.0,0.0,30.0,0.0,0.0
27119,65.0,0.0,30.0,5.0,0.0
27120,69.0,12.0,30.0,5.0,0.0
27121,77.0,0.0,30.0,11.0,0.0
27122,47.0,0.0,30.0,6.0,0.0
27123,35.0,0.0,30.0,3.0,0.0
27124,50.0,0.0,30.0,6.0,0.0
27125,47.0,0.0,30.0,3.0,0.0
27126,65.0,0.0,30.0,4.0,0.0
27127,53.0,0.0,30.0,4.0,0.0
27128,34.0,0.0,30.0,9.0,0.0
27129,68.0,0.0,60.0,5.0,0.0
27130,68.0,2.0,60.0,1.0,0.0
27131,68.0,0.0,60.0,12.0,0.0
27132,56.0,32.0,60.0,4.0,0.0
27133,34.0,14.0,30.0,9.0,0.0
27134,49.0,0.0,60.0,3.0,0.0
27135,78.0,2.0,300.0,5.0,0.0
27136,66.0,32.0,150.0,4.0,0.0
27137,45.0,50.0,60.0,3.0,0.0
27138,69.0,0.0,150.0,1.0,0.0
27139,54.0,0.0,150.0,4.0,0.0
27140,57.0,0.0,150.0,4.0,0.0
27141,78.0,0.0,150.0,11.0,0.0
27142,45.0,0.0,30.0,14.0,0.0
27143,34.0,14.0,30.0,9.0,0.0
27144,49.0,0.0,150.0,6.0,0.0
27145,45.0,0.0,150.0,7.0,0.0
27146,78.0,0.0,150.0,0.0,0.0
27147,66.0,0.0,210.0,5.0,0.0
27148,45.0,0.0,150.0,6.0,0.0
27149,69.0,16.0,210.0,5.0,0.0
27150,78.0,0.0,150.0,2.0,0.0
27151,33.0,0.0,150.0,3.0,0.0
27152,61.0,0.0,30.0,13.0,0.0
27153,49.0,0.0,150.0,2.0,0.0
27154,69.0,2.0,150.0,12.0,0.0
27155,49.0,46.0,60.0,13.0,0.0
27156,37.0,0.0,60.0,3.0,0.0
27157,37.0,0.0,60.0,14.0,0.0
27158,39.0,0.0,60.0,14.0,0.0
27159,39.0,16.0,60.0,3.0,0.0
27160,51.0,0.0,60.0,13.0,0.0
27161,61.0,0.0,60.0,1.0,0.0
27162,61.0,0.0,60.0,12.0,0.0
27163,41.0,0.0,60.0,3.0,0.0
27164,41.0,0.0,60.0,14.0,0.0
27165,53.0,0.0,60.0,13.0,0.0
27166,61.0,32.0,60.0,11.0,0.0
27167,63.0,0.0,60.0,1.0,0.0
27168,42.0,46.0,60.0,3.0,0.0
27169,54.0,0.0,60.0,13.0,0.0
27170,42.0,0.0,60.0,14.0,0.0
27171,63.0,0.0,60.0,12.0,0.0
27172,63.0,0.0,60.0,11.0,0.0
27173,44.0,0.0,60.0,14.0,0.0
27174,65.0,0.0,60.0,12.0,0.0
27175,65.0,0.0,60.0,1.0,0.0
27176,65.0,48.0,60.0,11.0,0.0
27177,56.0,0.0,60.0,13.0,0.0
27178,44.0,0.0,60.0,3.0,0.0
27179,66.0,0.0,60.0,1.0,0.0
27180,45.0,0.0,60.0,14.0,0.0
27181,57.0,0.0,60.0,13.0,0.0
27182,66.0,0.0,60.0,12.0,0.0
27183,45.0,0.0,60.0,3.0,0.0
27184,66.0,46.0,60.0,11.0,0.0
27185,47.0,0.0,60.0,14.0,0.0
27186,47.0,0.0,60.0,3.0,0.0
27187,68.0,0.0,60.0,1.0,0.0
27188,59.0,0.0,60.0,13.0,0.0
27189,68.0,96.0,60.0,11.0,0.0
27190,68.0,0.0,60.0,12.0,0.0
27191,66.0,0.0,90.0,12.0,0.0
27192,49.0,0.0,90.0,3.0,0.0
27193,42.0,0.0,90.0,3.0,0.0
27194,42.0,34.0,90.0,14.0,0.0
27195,69.0,0.0,90.0,11.0,0.0
27196,66.0,0.0,90.0,1.0,0.0
27197,61.0,0.0,90.0,13.0,0.0
27198,34.0,48.0,30.0,9.0,0.0
27199,66.0,0.0,90.0,12.0,0.0
27200,78.0,0.0,90.0,2.0,0.0
27201,78.0,0.0,90.0,11.0,0.0
27202,66.0,16.0,90.0,2.0,0.0
27203,34.0,16.0,30.0,9.0,0.0
27204,36.0,32.0,90.0,14.0,0.0
27205,32.0,0.0,90.0,15.0,0.0
27206,44.0,0.0,90.0,13.0,0.0
27207,34.0,24.0,15.0,9.0,0.0
27208,76.0,0.0,90.0,2.0,0.0
27209,76.0,32.0,90.0,11.0,0.0
27210,64.0,0.0,90.0,12.0,0.0
27211,64.0,0.0,90.0,2.0,0.0
27212,34.0,8.0,15.0,9.0,0.0
27213,46.0,0.0,90.0,13.0,0.0
27214,34.0,32.0,90.0,15.0,0.0
27215,37.0,0.0,90.0,14.0,0.0
27216,34.0,16.0,30.0,9.0,0.0
27217,80.0,16.0,90.0,11.0,0.0
27218,68.0,0.0,90.0,12.0,0.0
27219,34.0,16.0,30.0,9.0,0.0
27220,68.0,0.0,90.0,2.0,0.0
27221,80.0,0.0,90.0,2.0,0.0
27222,39.0,0.0,90.0,14.0,0.0
27223,34.0,16.0,30.0,9.0,0.0
27224,48.0,32.0,90.0,13.0,0.0
27225,36.0,0.0,90.0,15.0,0.0
27226,64.0,0.0,90.0,12.0,0.0
27227,76.0,0.0,90.0,2.0,0.0
27228,64.0,0.0,90.0,2.0,0.0
27229,76.0,32.0,90.0,11.0,0.0
27230,34.0,24.0,15.0,9.0,0.0
27231,34.0,8.0,15.0,9.0,0.0
27232,37.0,0.0,90.0,15.0,0.0
27233,34.0,16.0,30.0,9.0,0.0
27234,40.0,32.0,90.0,14.0,0.0
27235,49.0,0.0,90.0,13.0,0.0
27236,34.0,16.0,30.0,9.0,0.0
27237,75.0,16.0,90.0,2.0,0.0
27238,63.0,0.0,90.0,12.0,0.0
27239,63.0,0.0,90.0,2.0,0.0
27240,75.0,0.0,90.0,11.0,0.0
27241,51.0,0.0,90.0,13.0,0.0
27242,34.0,16.0,30.0,9.0,0.0
27243,39.0,32.0,90.0,15.0,0.0
27244,42.0,0.0,90.0,14.0,0.0
27245,61.0,0.0,90.0,12.0,0.0
27246,73.0,0.0,90.0,11.0,0.0
27247,34.0,24.0,15.0,9.0,0.0
27248,73.0,0.0,90.0,2.0,0.0
27249,61.0,32.0,90.0,2.0,0.0
27250,34.0,8.0,15.0,9.0,0.0
27251,34.0,16.0,30.0,9.0,0.0
27252,44.0,0.0,90.0,14.0,0.0
27253,52.0,32.0,90.0,13.0,0.0
27254,40.0,0.0,90.0,15.0,0.0
27255,63.0,0.0,90.0,12.0,0.0
27256,75.0,0.0,90.0,2.0,0.0
27257,63.0,0.0,90.0,2.0,0.0
27258,34.0,16.0,30.0,9.0,0.0
27259,75.0,50.0,90.0,11.0,0.0
27260,44.0,0.0,90.0,15.0,0.0
27261,48.0,0.0,90.0,14.0,0.0
27262,34.0,14.0,30.0,9.0,0.0
27263,44.0,48.0,90.0,13.0,0.0
27264,76.0,0.0,90.0,2.0,0.0
27265,64.0,46.0,90.0,12.0,0.0
27266,64.0,0.0,90.0,2.0,0.0
27267,76.0,0.0,90.0,11.0,0.0
27268,49.0,0.0,90.0,13.0,0.0
27269,37.0,0.0,90.0,15.0,0.0
27270,49.0,48.0,90.0,14.0,0.0
27271,66.0,22.0,90.0,2.0,0.0
27272,78.0,0.0,90.0,2.0,0.0
27273,50.0,0.0,60.0,9.0,0.0
27274,66.0,0.0,90.0,12.0,0.0
27275,78.0,0.0,90.0,11.0,0.0
27276,48.0,46.0,90.0,14.0,0.0
27277,32.0,0.0,90.0,15.0,0.0
27278,56.0,2.0,90.0,13.0,0.0
27279,50.0,2.0,60.0,9.0,0.0
27280,76.0,0.0,90.0,2.0,0.0
27281,64.0,46.0,90.0,2.0,0.0
27282,76.0,0.0,90.0,11.0,0.0
27283,64.0,0.0,90.0,12.0,0.0
27284,50.0,24.0,20.0,9.0,0.0
27285,50.0,0.0,20.0,9.0,0.0
27286,50.0,2.0,60.0,9.0,0.0
27287,34.0,46.0,90.0,15.0,0.0
27288,49.0,0.0,90.0,14.0,0.0
27289,56.0,2.0,90.0,13.0,0.0
27290,68.0,22.0,90.0,12.0,0.0
27291,50.0,0.0,60.0,9.0,0.0
27292,80.0,0.0,90.0,2.0,0.0
27293,68.0,0.0,90.0,2.0,0.0
27294,80.0,0.0,90.0,11.0,0.0
27295,51.0,0.0,90.0,14.0,0.0
27296,50.0,2.0,60.0,9.0,0.0
27297,36.0,46.0,90.0,15.0,0.0
27298,56.0,0.0,90.0,13.0,0.0
27299,76.0,46.0,90.0,11.0,0.0
27300,64.0,0.0,90.0,2.0,0.0
27301,76.0,0.0,90.0,2.0,0.0
27302,50.0,24.0,20.0,9.0,0.0
27303,64.0,0.0,90.0,12.0,0.0
27304,50.0,2.0,20.0,9.0,0.0
27305,52.0,0.0,90.0,14.0,0.0
27306,37.0,46.0,90.0,15.0,0.0
27307,56.0,2.0,90.0,13.0,0.0
27308,50.0,2.0,60.0,9.0,0.0
27309,75.0,0.0,90.0,2.0,0.0
27310,63.0,0.0,90.0,2.0,0.0
27311,75.0,46.0,90.0,11.0,0.0
27312,63.0,0.0,90.0,12.0,0.0
27313,50.0,0.0,60.0,9.0,0.0
27314,54.0,0.0,90.0,14.0,0.0
27315,56.0,0.0,90.0,13.0,0.0
27316,39.0,48.0,90.0,15.0,0.0
27317,50.0,2.0,60.0,9.0,0.0
27318,73.0,46.0,90.0,11.0,0.0
27319,61.0,0.0,90.0,12.0,0.0
27320,73.0,0.0,90.0,2.0,0.0
27321,61.0,0.0,90.0,2.0,0.0
27322,50.0,2.0,60.0,9.0,0.0
27323,56.0,0.0,90.0,14.0,0.0
27324,40.0,48.0,90.0,15.0,0.0
27325,56.0,0.0,90.0,13.0,0.0
27326,64.0,98.0,90.0,12.0,0.0
27327,64.0,0.0,90.0,2.0,0.0
27328,76.0,0.0,90.0,2.0,0.0
27329,76.0,0.0,90.0,11.0,0.0
27330,56.0,0.0,60.0,13.0,0.0
27331,37.0,0.0,60.0,15.0,0.0
27332,52.0,0.0,60.0,14.0,0.0
27333,73.0,46.0,90.0,0.0,0.0
27334,73.0,0.0,90.0,12.0,0.0
27335,85.0,0.0,90.0,0.0,0.0
27336,85.0,0.0,90.0,11.0,0.0
27337,33.0,0.0,90.0,15.0,0.0
27338,49.0,0.0,90.0,14.0,0.0
27339,57.0,48.0,90.0,13.0,0.0
27340,71.0,0.0,90.0,12.0,0.0
27341,83.0,0.0,90.0,11.0,0.0
27342,50.0,0.0,60.0,9.0,0.0
27343,83.0,22.0,90.0,0.0,0.0
27344,71.0,0.0,90.0,0.0,0.0
27345,57.0,48.0,90.0,13.0,0.0
27346,50.0,0.0,90.0,14.0,0.0
27347,50.0,2.0,60.0,9.0,0.0
27348,35.0,0.0,90.0,15.0,0.0
27349,81.0,0.0,90.0,11.0,0.0
27350,81.0,0.0,90.0,0.0,0.0
27351,69.0,0.0,90.0,0.0,0.0
27352,69.0,46.0,90.0,12.0,0.0
27353,50.0,24.0,20.0,9.0,0.0
27354,50.0,0.0,20.0,9.0,0.0
27355,57.0,0.0,90.0,13.0,0.0
27356,37.0,48.0,90.0,15.0,0.0
27357,52.0,0.0,90.0,14.0,0.0
27358,50.0,2.0,60.0,9.0,0.0
27359,85.0,98.0,90.0,11.0,0.0
27360,50.0,0.0,60.0,9.0,0.0
27361,85.0,0.0,90.0,0.0,0.0
27362,73.0,0.0,90.0,0.0,0.0
27363,73.0,0.0,90.0,12.0,0.0
27364,49.0,0.0,60.0,14.0,0.0
27365,33.0,0.0,60.0,15.0,0.0
27366,50.0,0.0,60.0,9.0,0.0
27367,57.0,0.0,60.0,13.0,0.0
27368,66.0,0.0,90.0,1.0,0.0
27369,78.0,0.0,90.0,1.0,0.0
27370,78.0,0.0,90.0,11.0,0.0
27371,66.0,32.0,90.0,12.0,0.0
27372,54.0,34.0,90.0,14.0,0.0
27373,38.0,0.0,90.0,15.0,0.0
27374,57.0,0.0,90.0,13.0,0.0
27375,76.0,16.0,90.0,1.0,0.0
27376,64.0,0.0,90.0,1.0,0.0
27377,64.0,0.0,90.0,12.0,0.0
27378,76.0,0.0,90.0,11.0,0.0
27379,34.0,14.0,30.0,9.0,0.0
27380,57.0,0.0,90.0,13.0,0.0
27381,34.0,16.0,30.0,9.0,0.0
27382,55.0,0.0,90.0,14.0,0.0
27383,40.0,34.0,90.0,15.0,0.0
27384,74.0,0.0,90.0,11.0,0.0
27385,34.0,24.0,15.0,9.0,0.0
27386,62.0,0.0,90.0,1.0,0.0
27387,62.0,32.0,90.0,12.0,0.0
27388,74.0,0.0,90.0,1.0,0.0
27389,34.0,6.0,15.0,9.0,0.0
27390,57.0,34.0,90.0,14.0,0.0
27391,42.0,0.0,90.0,15.0,0.0
27392,57.0,0.0,90.0,13.0,0.0
27393,34.0,16.0,30.0,9.0,0.0
27394,78.0,98.0,90.0,11.0,0.0
27395,66.0,0.0,90.0,12.0,0.0
27396,66.0,0.0,90.0,1.0,0.0
27397,78.0,0.0,90.0,1.0,0.0
27398,34.0,14.0,30.0,9.0,0.0
27399,54.0,0.0,60.0,14.0,0.0
27400,38.0,0.0,60.0,15.0,0.0
27401,34.0,14.0,30.0,9.0,0.0
27402,57.0,0.0,60.0,13.0,0.0
27403,86.0,0.0,90.0,0.0,0.0
27404,74.0,46.0,90.0,0.0,0.0
27405,74.0,0.0,90.0,12.0,0.0
27406,86.0,0.0,90.0,11.0,0.0
27407,35.0,50.0,90.0,15.0,0.0
27408,50.0,0.0,90.0,14.0,0.0
27409,59.0,0.0,90.0,13.0,0.0
27410,85.0,0.0,90.0,11.0,0.0
27411,73.0,0.0,90.0,0.0,0.0
27412,85.0,46.0,90.0,0.0,0.0
27413,73.0,0.0,90.0,12.0,0.0
27414,37.0,0.0,90.0,15.0,0.0
27415,59.0,50.0,90.0,13.0,0.0
27416,52.0,0.0,90.0,14.0,0.0
27417,83.0,0.0,90.0,11.0,0.0
27418,71.0,46.0,90.0,12.0,0.0
27419,71.0,0.0,90.0,0.0,0.0
27420,83.0,0.0,90.0,0.0,0.0
27421,38.0,0.0,90.0,15.0,0.0
27422,54.0,0.0,90.0,14.0,0.0
27423,59.0,48.0,90.0,13.0,0.0
27424,86.0,0.0,90.0,11.0,0.0
27425,74.0,0.0,90.0,0.0,0.0
27426,86.0,98.0,90.0,0.0,0.0
27427,74.0,0.0,90.0,12.0,0.0
27428,35.0,0.0,60.0,15.0,0.0
27429,50.0,0.0,60.0,14.0,0.0
27430,59.0,0.0,60.0,13.0,0.0
27431,68.0,0.0,90.0,1.0,0.0
27432,80.0,32.0,90.0,11.0,0.0
27433,80.0,0.0,90.0,1.0,0.0
27434,68.0,0.0,90.0,12.0,0.0
27435,59.0,0.0,90.0,13.0,0.0
27436,40.0,0.0,90.0,15.0,0.0
27437,56.0,34.0,90.0,14.0,0.0
27438,66.0,0.0,90.0,12.0,0.0
27439,78.0,0.0,90.0,11.0,0.0
27440,66.0,0.0,90.0,1.0,0.0
27441,34.0,14.0,30.0,9.0,0.0
27442,78.0,16.0,90.0,1.0,0.0
27443,42.0,0.0,90.0,15.0,0.0
27444,34.0,16.0,30.0,9.0,0.0
27445,59.0,34.0,90.0,13.0,0.0
27446,57.0,0.0,90.0,14.0,0.0
27447,64.0,0.0,90.0,1.0,0.0
27448,76.0,32.0,90.0,1.0,0.0
27449,34.0,24.0,15.0,9.0,0.0
27450,64.0,0.0,90.0,12.0,0.0
27451,76.0,0.0,90.0,11.0,0.0
27452,34.0,6.0,15.0,9.0,0.0
27453,34.0,16.0,30.0,9.0,0.0
27454,44.0,0.0,90.0,15.0,0.0
27455,59.0,0.0,90.0,14.0,0.0
27456,59.0,34.0,90.0,13.0,0.0
27457,68.0,0.0,90.0,1.0,0.0
27458,80.0,0.0,90.0,1.0,0.0
27459,80.0,98.0,90.0,11.0,0.0
27460,34.0,14.0,30.0,9.0,0.0
27461,68.0,0.0,90.0,12.0,0.0
27462,34.0,14.0,30.0,9.0,0.0
27463,59.0,0.0,60.0,13.0,0.0
27464,40.0,0.0,60.0,15.0,0.0
27465,56.0,0.0,60.0,14.0,0.0
27466,76.0,0.0,90.0,12.0,0.0
27467,88.0,0.0,90.0,0.0,0.0
27468,76.0,0.0,90.0,0.0,0.0
27469,88.0,0.0,90.0,11.0,0.0
27470,76.0,0.0,90.0,1.0,0.0
27471,64.0,48.0,90.0,1.0,0.0
27472,37.0,0.0,90.0,15.0,0.0
27473,52.0,0.0,90.0,14.0,0.0
27474,86.0,0.0,90.0,0.0,0.0
27475,86.0,0.0,90.0,11.0,0.0
27476,74.0,48.0,90.0,12.0,0.0
27477,74.0,0.0,90.0,0.0,0.0
27478,62.0,0.0,90.0,1.0,0.0
27479,74.0,0.0,90.0,1.0,0.0
27480,54.0,0.0,90.0,14.0,0.0
27481,38.0,0.0,90.0,15.0,0.0
27482,61.0,48.0,15.0,13.0,0.0
27483,85.0,0.0,90.0,11.0,0.0
27484,73.0,0.0,90.0,0.0,0.0
27485,85.0,48.0,90.0,0.0,0.0
27486,61.0,0.0,90.0,1.0,0.0
27487,73.0,0.0,90.0,1.0,0.0
27488,73.0,0.0,90.0,12.0,0.0
27489,56.0,0.0,90.0,14.0,0.0
27490,40.0,0.0,90.0,15.0,0.0
27491,64.0,0.0,90.0,1.0,0.0
27492,76.0,0.0,90.0,12.0,0.0
27493,88.0,48.0,90.0,11.0,0.0
27494,76.0,0.0,90.0,1.0,0.0
27495,88.0,0.0,90.0,0.0,0.0
27496,76.0,0.0,90.0,0.0,0.0
27497,37.0,48.0,90.0,15.0,0.0
27498,61.0,48.0,15.0,13.0,0.0
27499,52.0,0.0,90.0,14.0,0.0
27500,74.0,0.0,90.0,12.0,0.0
27501,62.0,0.0,90.0,1.0,0.0
27502,74.0,48.0,90.0,1.0,0.0
27503,86.0,0.0,90.0,11.0,0.0
27504,74.0,0.0,90.0,0.0,0.0
27505,86.0,0.0,90.0,0.0,0.0
27506,42.0,0.0,90.0,15.0,0.0
27507,57.0,0.0,90.0,14.0,0.0
27508,85.0,0.0,90.0,0.0,0.0
27509,73.0,0.0,90.0,12.0,0.0
27510,61.0,0.0,90.0,1.0,0.0
27511,85.0,0.0,90.0,11.0,0.0
27512,73.0,48.0,90.0,0.0,0.0
27513,73.0,0.0,90.0,1.0,0.0
27514,56.0,0.0,90.0,14.0,0.0
27515,61.0,48.0,15.0,13.0,0.0
27516,40.0,48.0,90.0,15.0,0.0
27517,83.0,0.0,90.0,11.0,0.0
27518,83.0,48.0,90.0,0.0,0.0
27519,71.0,0.0,90.0,1.0,0.0
27520,71.0,0.0,90.0,0.0,0.0
27521,71.0,0.0,90.0,12.0,0.0
27522,59.0,0.0,90.0,1.0,0.0
27523,38.0,46.0,90.0,15.0,0.0
27524,54.0,0.0,90.0,14.0,0.0
27525,59.0,0.0,90.0,13.0,0.0
27526,81.0,0.0,90.0,0.0,0.0
27527,81.0,0.0,90.0,11.0,0.0
27528,69.0,0.0,90.0,12.0,0.0
27529,69.0,0.0,90.0,1.0,0.0
27530,69.0,0.0,90.0,0.0,0.0
27531,57.0,0.0,90.0,1.0,0.0
27532,57.0,96.0,60.0,13.0,0.0
27533,37.0,0.0,60.0,15.0,0.0
27534,52.0,0.0,60.0,14.0,0.0
27535,68.0,0.0,90.0,1.0,0.0
27536,56.0,0.0,90.0,1.0,0.0
27537,45.0,32.0,330.0,9.0,0.0
27538,35.0,0.0,90.0,15.0,0.0
27539,56.0,0.0,90.0,13.0,0.0
27540,80.0,0.0,90.0,0.0,0.0
27541,68.0,0.0,90.0,0.0,0.0
27542,50.0,0.0,90.0,14.0,0.0
27543,68.0,0.0,90.0,12.0,0.0
27544,80.0,34.0,90.0,11.0,0.0
27545,47.0,16.0,90.0,14.0,0.0
27546,35.0,0.0,90.0,15.0,0.0
27547,34.0,48.0,30.0,9.0,0.0
27548,49.0,0.0,90.0,13.0,0.0
27549,53.0,32.0,90.0,12.0,0.0
27550,34.0,16.0,30.0,9.0,0.0
27551,33.0,32.0,90.0,15.0,0.0
27552,45.0,0.0,90.0,14.0,0.0
27553,34.0,24.0,15.0,9.0,0.0
27554,34.0,8.0,15.0,9.0,0.0
27555,51.0,0.0,90.0,13.0,0.0
27556,54.0,0.0,90.0,12.0,0.0
27557,61.0,0.0,15.0,11.0,0.0
27558,34.0,16.0,30.0,9.0,0.0
27559,49.0,16.0,90.0,14.0,0.0
27560,37.0,0.0,90.0,15.0,0.0
27561,34.0,16.0,30.0,9.0,0.0
27562,34.0,16.0,30.0,9.0,0.0
27563,61.0,0.0,90.0,11.0,0.0
27564,56.0,32.0,90.0,12.0,0.0
27565,53.0,0.0,90.0,13.0,0.0
27566,33.0,0.0,90.0,15.0,0.0
27567,45.0,32.0,90.0,14.0,0.0
27568,34.0,24.0,15.0,9.0,0.0
27569,34.0,8.0,15.0,9.0,0.0
27570,34.0,16.0,30.0,9.0,0.0
27571,57.0,32.0,90.0,12.0,0.0
27572,54.0,0.0,90.0,13.0,0.0
27573,32.0,16.0,90.0,15.0,0.0
27574,34.0,16.0,30.0,9.0,0.0
27575,44.0,0.0,90.0,14.0,0.0
27576,34.0,16.0,30.0,9.0,0.0
27577,56.0,0.0,90.0,13.0,0.0
27578,61.0,0.0,15.0,11.0,0.0
27579,59.0,0.0,90.0,12.0,0.0
27580,42.0,0.0,90.0,14.0,0.0
27581,30.0,32.0,90.0,15.0,0.0
27582,34.0,24.0,15.0,9.0,0.0
27583,34.0,8.0,15.0,9.0,0.0
27584,61.0,0.0,90.0,12.0,0.0
27585,61.0,32.0,15.0,11.0,0.0
27586,57.0,0.0,90.0,13.0,0.0
27587,34.0,16.0,30.0,9.0,0.0
27588,45.0,0.0,90.0,14.0,0.0
27589,33.0,0.0,90.0,15.0,0.0
27590,34.0,16.0,30.0,9.0,0.0
27591,54.0,0.0,60.0,13.0,0.0
27592,57.0,98.0,60.0,12.0,0.0
27593,61.0,0.0,60.0,11.0,0.0
27594,34.0,14.0,30.0,9.0,0.0
27595,66.0,0.0,90.0,2.0,0.0
27596,54.0,0.0,90.0,2.0,0.0
27597,42.0,0.0,90.0,15.0,0.0
27598,54.0,48.0,90.0,14.0,0.0
27599,62.0,0.0,90.0,13.0,0.0
27600,66.0,48.0,90.0,12.0,0.0
27601,40.0,48.0,90.0,15.0,0.0
27602,52.0,0.0,90.0,2.0,0.0
27603,64.0,0.0,90.0,2.0,0.0
27604,52.0,0.0,90.0,14.0,0.0
27605,74.0,0.0,15.0,11.0,0.0
27606,67.0,48.0,90.0,12.0,0.0
27607,64.0,0.0,90.0,13.0,0.0
27608,62.0,0.0,90.0,2.0,0.0
27609,50.0,0.0,90.0,14.0,0.0
27610,50.0,48.0,90.0,2.0,0.0
27611,38.0,0.0,90.0,15.0,0.0
27612,74.0,0.0,15.0,11.0,0.0
27613,69.0,0.0,90.0,12.0,0.0
27614,66.0,46.0,90.0,13.0,0.0
27615,42.0,0.0,90.0,15.0,0.0
27616,66.0,0.0,90.0,2.0,0.0
27617,54.0,98.0,90.0,2.0,0.0
27618,54.0,0.0,90.0,14.0,0.0
27619,62.0,0.0,60.0,13.0,0.0
27620,66.0,0.0,60.0,12.0,0.0
27621,74.0,0.0,60.0,11.0,0.0
27622,47.0,0.0,90.0,14.0,0.0
27623,35.0,0.0,90.0,15.0,0.0
27624,59.0,0.0,90.0,4.0,0.0
27625,47.0,48.0,90.0,4.0,0.0
27626,47.0,0.0,90.0,3.0,0.0
27627,35.0,0.0,90.0,3.0,0.0
27628,50.0,0.0,90.0,13.0,0.0
27629,55.0,48.0,90.0,12.0,0.0
27630,33.0,0.0,90.0,3.0,0.0
27631,45.0,0.0,90.0,14.0,0.0
27632,45.0,48.0,90.0,3.0,0.0
27633,57.0,0.0,90.0,4.0,0.0
27634,33.0,0.0,90.0,15.0,0.0
27635,45.0,0.0,90.0,4.0,0.0
27636,57.0,0.0,90.0,12.0,0.0
27637,62.0,0.0,15.0,11.0,0.0
27638,54.0,48.0,90.0,13.0,0.0
27639,43.0,48.0,90.0,14.0,0.0
27640,43.0,0.0,90.0,3.0,0.0
27641,43.0,0.0,90.0,4.0,0.0
27642,55.0,0.0,90.0,4.0,0.0
27643,31.0,0.0,90.0,3.0,0.0
27644,31.0,0.0,90.0,15.0,0.0
27645,55.0,0.0,90.0,13.0,0.0
27646,59.0,46.0,90.0,12.0,0.0
27647,47.0,0.0,90.0,4.0,0.0
27648,35.0,0.0,90.0,15.0,0.0
27649,47.0,0.0,90.0,14.0,0.0
27650,35.0,98.0,90.0,3.0,0.0
27651,47.0,0.0,90.0,3.0,0.0
27652,59.0,0.0,90.0,4.0,0.0
27653,62.0,0.0,15.0,11.0,0.0
27654,50.0,0.0,60.0,13.0,0.0
27655,55.0,0.0,60.0,12.0,0.0
27656,67.0,32.0,90.0,2.0,0.0
27657,55.0,0.0,90.0,14.0,0.0
27658,55.0,0.0,90.0,2.0,0.0
27659,43.0,0.0,90.0,15.0,0.0
27660,64.0,2.0,90.0,13.0,0.0
27661,67.0,0.0,90.0,12.0,0.0
27662,54.0,16.0,90.0,2.0,0.0
27663,66.0,0.0,90.0,2.0,0.0
27664,42.0,0.0,90.0,15.0,0.0
27665,54.0,0.0,90.0,14.0,0.0
27666,34.0,14.0,30.0,9.0,0.0
27667,34.0,16.0,30.0,9.0,0.0
27668,76.0,32.0,15.0,11.0,0.0
27669,69.0,0.0,90.0,12.0,0.0
27670,66.0,2.0,90.0,13.0,0.0
27671,52.0,32.0,90.0,2.0,0.0
27672,64.0,0.0,90.0,2.0,0.0
27673,34.0,24.0,15.0,9.0,0.0
27674,52.0,0.0,90.0,14.0,0.0
27675,40.0,0.0,90.0,15.0,0.0
27676,34.0,6.0,15.0,9.0,0.0
27677,76.0,32.0,15.0,11.0,0.0
27678,67.0,2.0,90.0,13.0,0.0
27679,71.0,0.0,90.0,12.0,0.0
27680,34.0,16.0,30.0,9.0,0.0
27681,67.0,0.0,90.0,2.0,0.0
27682,55.0,0.0,90.0,2.0,0.0
27683,43.0,98.0,90.0,15.0,0.0
27684,34.0,14.0,30.0,9.0,0.0
27685,55.0,0.0,90.0,14.0,0.0
27686,64.0,0.0,60.0,13.0,0.0
27687,76.0,32.0,15.0,11.0,0.0
27688,67.0,0.0,60.0,12.0,0.0
27689,34.0,14.0,30.0,9.0,0.0
27690,49.0,0.0,90.0,3.0,0.0
27691,49.0,48.0,90.0,4.0,0.0
27692,37.0,0.0,90.0,15.0,0.0
27693,61.0,0.0,90.0,4.0,0.0
27694,49.0,0.0,90.0,14.0,0.0
27695,37.0,0.0,90.0,3.0,0.0
27696,52.0,48.0,90.0,13.0,0.0
27697,57.0,0.0,90.0,12.0,0.0
27698,59.0,0.0,90.0,4.0,0.0
27699,35.0,0.0,90.0,3.0,0.0
27700,47.0,0.0,90.0,3.0,0.0
27701,47.0,0.0,90.0,14.0,0.0
27702,47.0,0.0,90.0,4.0,0.0
27703,35.0,48.0,90.0,15.0,0.0
27704,64.0,0.0,15.0,11.0,0.0
27705,59.0,48.0,90.0,12.0,0.0
27706,56.0,0.0,90.0,13.0,0.0
27707,45.0,0.0,90.0,14.0,0.0
27708,33.0,48.0,90.0,3.0,0.0
27709,45.0,0.0,90.0,4.0,0.0
27710,57.0,0.0,90.0,4.0,0.0
27711,45.0,0.0,90.0,3.0,0.0
27712,33.0,0.0,90.0,15.0,0.0
27713,57.0,0.0,90.0,13.0,0.0
27714,61.0,0.0,90.0,12.0,0.0
27715,37.0,0.0,90.0,15.0,0.0
27716,49.0,98.0,90.0,3.0,0.0
27717,61.0,0.0,90.0,4.0,0.0
27718,49.0,0.0,90.0,14.0,0.0
27719,49.0,0.0,90.0,4.0,0.0
27720,37.0,0.0,90.0,3.0,0.0
27721,57.0,0.0,60.0,12.0,0.0
27722,52.0,0.0,60.0,13.0,0.0
27723,64.0,46.0,15.0,11.0,0.0
27724,45.0,0.0,90.0,15.0,0.0
27725,69.0,48.0,90.0,4.0,0.0
27726,69.0,0.0,90.0,2.0,0.0
27727,45.0,0.0,90.0,3.0,0.0
27728,57.0,0.0,90.0,2.0,0.0
27729,57.0,0.0,90.0,4.0,0.0
27730,57.0,0.0,90.0,14.0,0.0
27731,57.0,0.0,90.0,3.0,0.0
27732,78.0,0.0,90.0,11.0,0.0
27733,66.0,48.0,90.0,13.0,0.0
27734,69.0,0.0,90.0,12.0,0.0
27735,67.0,48.0,90.0,2.0,0.0
27736,55.0,0.0,90.0,4.0,0.0
27737,55.0,0.0,90.0,14.0,0.0
27738,43.0,0.0,90.0,15.0,0.0
27739,55.0,0.0,90.0,3.0,0.0
27740,55.0,0.0,90.0,2.0,0.0
27741,67.0,0.0,90.0,4.0,0.0
27742,43.0,0.0,90.0,3.0,0.0
27743,78.0,0.0,90.0,11.0,0.0
27744,71.0,48.0,90.0,12.0,0.0
27745,67.0,0.0,90.0,13.0,0.0
27746,42.0,0.0,90.0,15.0,0.0
27747,42.0,0.0,90.0,3.0,0.0
27748,54.0,0.0,90.0,2.0,0.0
27749,54.0,0.0,90.0,14.0,0.0
27750,54.0,0.0,90.0,3.0,0.0
27751,66.0,0.0,90.0,2.0,0.0
27752,66.0,0.0,90.0,4.0,0.0
27753,54.0,48.0,90.0,4.0,0.0
27754,69.0,46.0,90.0,13.0,0.0
27755,73.0,0.0,90.0,12.0,0.0
27756,69.0,0.0,90.0,4.0,0.0
27757,45.0,0.0,90.0,3.0,0.0
27758,45.0,0.0,90.0,15.0,0.0
27759,57.0,0.0,90.0,3.0,0.0
27760,57.0,0.0,90.0,4.0,0.0
27761,69.0,0.0,90.0,2.0,0.0
27762,57.0,82.0,90.0,14.0,0.0
27763,57.0,0.0,90.0,2.0,0.0
27764,78.0,0.0,15.0,11.0,0.0
27765,69.0,0.0,60.0,12.0,0.0
27766,66.0,0.0,60.0,13.0,0.0
27767,67.0,0.0,90.0,4.0,0.0
27768,43.0,32.0,90.0,3.0,0.0
27769,55.0,0.0,90.0,14.0,0.0
27770,55.0,0.0,90.0,2.0,0.0
27771,43.0,0.0,90.0,15.0,0.0
27772,67.0,0.0,90.0,2.0,0.0
27773,55.0,0.0,90.0,3.0,0.0
27774,55.0,0.0,90.0,4.0,0.0
27775,59.0,32.0,90.0,12.0,0.0
27776,34.0,16.0,30.0,9.0,0.0
27777,59.0,0.0,90.0,13.0,0.0
27778,54.0,0.0,90.0,2.0,0.0
27779,54.0,0.0,90.0,14.0,0.0
27780,54.0,0.0,90.0,3.0,0.0
27781,66.0,0.0,90.0,2.0,0.0
27782,42.0,0.0,90.0,15.0,0.0
27783,54.0,0.0,90.0,4.0,0.0
27784,66.0,0.0,90.0,4.0,0.0
27785,34.0,16.0,30.0,9.0,0.0
27786,42.0,48.0,90.0,3.0,0.0
27787,34.0,16.0,30.0,9.0,0.0
27788,64.0,0.0,15.0,11.0,0.0
27789,57.0,0.0,90.0,13.0,0.0
27790,62.0,48.0,90.0,12.0,0.0
27791,64.0,0.0,90.0,2.0,0.0
27792,52.0,48.0,90.0,2.0,0.0
27793,34.0,0.0,60.0,9.0,0.0
27794,52.0,0.0,90.0,14.0,0.0
27795,64.0,0.0,90.0,4.0,0.0
27796,52.0,0.0,90.0,4.0,0.0
27797,40.0,0.0,90.0,3.0,0.0
27798,52.0,0.0,90.0,3.0,0.0
27799,40.0,0.0,90.0,15.0,0.0
27800,55.0,0.0,90.0,13.0,0.0
27801,61.0,0.0,90.0,12.0,0.0
27802,50.0,0.0,90.0,4.0,0.0
27803,50.0,0.0,90.0,14.0,0.0
27804,50.0,0.0,90.0,3.0,0.0
27805,62.0,0.0,90.0,4.0,0.0
27806,38.0,0.0,90.0,3.0,0.0
27807,38.0,82.0,90.0,15.0,0.0
27808,62.0,0.0,90.0,2.0,0.0
27809,50.0,0.0,90.0,2.0,0.0
27810,54.0,0.0,60.0,13.0,0.0
27811,64.0,46.0,15.0,11.0,0.0
27812,59.0,0.0,60.0,12.0,0.0
27813,37.0,32.0,90.0,3.0,0.0
27814,61.0,0.0,90.0,4.0,0.0
27815,49.0,0.0,90.0,2.0,0.0
27816,49.0,0.0,90.0,4.0,0.0
27817,49.0,0.0,90.0,3.0,0.0
27818,49.0,0.0,90.0,14.0,0.0
27819,61.0,0.0,90.0,2.0,0.0
27820,37.0,0.0,90.0,15.0,0.0
27821,61.0,0.0,90.0,13.0,0.0
27822,34.0,16.0,30.0,9.0,0.0
27823,64.0,32.0,90.0,12.0,0.0
27824,69.0,0.0,90.0,12.0,0.0
27825,76.0,0.0,90.0,11.0,0.0
27826,47.0,0.0,90.0,3.0,0.0
27827,47.0,0.0,90.0,2.0,0.0
27828,59.0,0.0,90.0,4.0,0.0
27829,59.0,48.0,90.0,2.0,0.0
27830,35.0,0.0,90.0,15.0,0.0
27831,34.0,16.0,30.0,9.0,0.0
27832,59.0,0.0,90.0,13.0,0.0
27833,47.0,0.0,90.0,14.0,0.0
27834,35.0,0.0,90.0,3.0,0.0
27835,47.0,0.0,90.0,4.0,0.0
27836,34.0,16.0,30.0,9.0,0.0
27837,62.0,0.0,90.0,12.0,0.0
27838,69.0,48.0,90.0,11.0,0.0
27839,67.0,0.0,90.0,12.0,0.0
27840,45.0,0.0,90.0,3.0,0.0
27841,45.0,0.0,90.0,4.0,0.0
27842,45.0,48.0,90.0,2.0,0.0
27843,33.0,0.0,90.0,3.0,0.0
27844,33.0,0.0,90.0,15.0,0.0
27845,45.0,0.0,90.0,14.0,0.0
27846,57.0,0.0,90.0,4.0,0.0
27847,34.0,0.0,60.0,9.0,0.0
27848,57.0,0.0,90.0,13.0,0.0
27849,57.0,0.0,90.0,2.0,0.0
27850,66.0,0.0,90.0,12.0,0.0
27851,61.0,46.0,90.0,12.0,0.0
27852,31.0,0.0,90.0,3.0,0.0
27853,31.0,0.0,90.0,15.0,0.0
27854,55.0,0.0,90.0,2.0,0.0
27855,55.0,0.0,90.0,13.0,0.0
27856,43.0,0.0,90.0,4.0,0.0
27857,43.0,48.0,90.0,14.0,0.0
27858,43.0,0.0,90.0,2.0,0.0
27859,55.0,0.0,90.0,4.0,0.0
27860,43.0,0.0,90.0,3.0,0.0
27861,69.0,0.0,15.0,11.0,0.0
27862,64.0,0.0,60.0,12.0,0.0
27863,59.0,0.0,60.0,12.0,0.0
27864,57.0,0.0,60.0,12.0,0.0
27865,30.0,0.0,90.0,15.0,0.0
27866,42.0,2.0,90.0,2.0,0.0
27867,62.0,0.0,60.0,12.0,0.0
27868,42.0,0.0,90.0,4.0,0.0
27869,42.0,0.0,90.0,14.0,0.0
27870,30.0,0.0,90.0,3.0,0.0
27871,54.0,0.0,90.0,13.0,0.0
27872,54.0,0.0,90.0,4.0,0.0
27873,69.0,34.0,60.0,11.0,0.0
27874,54.0,0.0,90.0,2.0,0.0
27875,42.0,0.0,90.0,3.0,0.0
27876,34.0,14.0,30.0,9.0,0.0
27877,73.0,32.0,60.0,11.0,0.0
27878,34.0,16.0,30.0,9.0,0.0
27879,74.0,32.0,60.0,11.0,0.0
27880,73.0,48.0,60.0,11.0,0.0
27881,34.0,16.0,30.0,9.0,0.0
27882,74.0,32.0,150.0,11.0,0.0
27883,34.0,48.0,60.0,9.0,0.0
27884,62.0,48.0,60.0,13.0,0.0
27885,66.0,0.0,60.0,12.0,0.0
27886,67.0,16.0,60.0,12.0,0.0
27887,64.0,0.0,60.0,13.0,0.0
27888,62.0,0.0,60.0,13.0,0.0
27889,66.0,80.0,60.0,12.0,0.0
27890,64.0,16.0,150.0,13.0,0.0
27891,67.0,0.0,150.0,12.0,0.0
27892,73.0,32.0,60.0,11.0,0.0
27893,34.0,16.0,30.0,9.0,0.0
27894,34.0,16.0,30.0,9.0,0.0
27895,74.0,16.0,60.0,11.0,0.0
27896,34.0,16.0,30.0,9.0,0.0
27897,73.0,48.0,60.0,11.0,0.0
27898,74.0,32.0,150.0,11.0,0.0
27899,34.0,48.0,60.0,9.0,0.0
27900,66.0,0.0,60.0,12.0,0.0
27901,62.0,48.0,60.0,13.0,0.0
27902,67.0,16.0,60.0,12.0,0.0
27903,64.0,0.0,60.0,13.0,0.0
27904,69.0,80.0,60.0,12.0,0.0
27905,66.0,0.0,60.0,13.0,0.0
27906,66.0,16.0,150.0,12.0,0.0
27907,62.0,0.0,150.0,13.0,0.0
27908,34.0,16.0,30.0,9.0,0.0
27909,73.0,32.0,60.0,11.0,0.0
27910,74.0,16.0,60.0,11.0,0.0
27911,34.0,16.0,30.0,9.0,0.0
27912,34.0,16.0,30.0,9.0,0.0
27913,73.0,48.0,60.0,11.0,0.0
27914,34.0,48.0,60.0,9.0,0.0
27915,74.0,32.0,150.0,11.0,0.0
27916,62.0,48.0,60.0,13.0,0.0
27917,66.0,0.0,60.0,12.0,0.0
27918,67.0,0.0,60.0,12.0,0.0
27919,64.0,16.0,60.0,13.0,0.0
27920,62.0,80.0,60.0,13.0,0.0
27921,66.0,0.0,60.0,12.0,0.0
27922,67.0,0.0,150.0,12.0,0.0
27923,64.0,16.0,150.0,13.0,0.0
27924,73.0,32.0,60.0,11.0,0.0
27925,34.0,16.0,30.0,9.0,0.0
27926,74.0,16.0,60.0,11.0,0.0
27927,34.0,16.0,30.0,9.0,0.0
27928,34.0,16.0,30.0,9.0,0.0
27929,73.0,48.0,60.0,11.0,0.0
27930,74.0,32.0,150.0,11.0,0.0
27931,34.0,48.0,60.0,9.0,0.0
27932,62.0,0.0,60.0,13.0,0.0
27933,66.0,48.0,60.0,12.0,0.0
27934,67.0,0.0,60.0,12.0,0.0
27935,64.0,16.0,60.0,13.0,0.0
27936,69.0,80.0,60.0,12.0,0.0
27937,66.0,0.0,60.0,13.0,0.0
27938,62.0,0.0,150.0,13.0,0.0
27939,66.0,16.0,150.0,12.0,0.0
27940,34.0,16.0,30.0,9.0,0.0
27941,73.0,32.0,60.0,11.0,0.0
27942,34.0,16.0,30.0,9.0,0.0
27943,74.0,16.0,60.0,11.0,0.0
27944,34.0,16.0,30.0,9.0,0.0
27945,73.0,48.0,60.0,11.0,0.0
27946,74.0,32.0,150.0,11.0,0.0
27947,34.0,48.0,60.0,9.0,0.0
27948,62.0,0.0,60.0,13.0,0.0
27949,66.0,48.0,60.0,12.0,0.0
27950,67.0,0.0,60.0,12.0,0.0
27951,64.0,16.0,60.0,13.0,0.0
27952,67.0,0.0,60.0,12.0,0.0
27953,64.0,80.0,60.0,13.0,0.0
27954,66.0,0.0,150.0,13.0,0.0
27955,69.0,16.0,150.0,12.0,0.0
27956,73.0,32.0,60.0,11.0,0.0
27957,34.0,16.0,30.0,9.0,0.0
27958,34.0,16.0,30.0,9.0,0.0
27959,74.0,16.0,60.0,11.0,0.0
27960,73.0,48.0,60.0,11.0,0.0
27961,34.0,16.0,30.0,9.0,0.0
27962,74.0,32.0,150.0,11.0,0.0
27963,34.0,48.0,60.0,9.0,0.0
27964,68.0,0.0,60.0,12.0,0.0
27965,64.0,48.0,60.0,13.0,0.0
27966,69.0,16.0,60.0,12.0,0.0
27967,66.0,0.0,60.0,13.0,0.0
27968,71.0,80.0,60.0,12.0,0.0
27969,68.0,0.0,60.0,13.0,0.0
27970,64.0,16.0,150.0,13.0,0.0
27971,68.0,0.0,150.0,12.0,0.0
27972,34.0,16.0,30.0,9.0,0.0
27973,73.0,32.0,60.0,11.0,0.0
27974,74.0,16.0,60.0,11.0,0.0
27975,34.0,16.0,30.0,9.0,0.0
27976,34.0,16.0,30.0,9.0,0.0
27977,73.0,48.0,60.0,11.0,0.0
27978,74.0,32.0,150.0,11.0,0.0
27979,34.0,48.0,60.0,9.0,0.0
27980,68.0,0.0,60.0,12.0,0.0
27981,64.0,48.0,60.0,13.0,0.0
27982,66.0,16.0,60.0,13.0,0.0
27983,69.0,0.0,60.0,12.0,0.0
27984,68.0,96.0,60.0,12.0,0.0
27985,64.0,0.0,60.0,13.0,0.0
27986,66.0,16.0,150.0,13.0,0.0
27987,69.0,0.0,150.0,12.0,0.0
27988,73.0,48.0,60.0,11.0,0.0
27989,74.0,16.0,60.0,11.0,0.0
27990,34.0,16.0,30.0,9.0,0.0
27991,73.0,48.0,60.0,11.0,0.0
27992,74.0,32.0,150.0,11.0,0.0
27993,34.0,48.0,60.0,9.0,0.0
27994,64.0,0.0,60.0,13.0,0.0
27995,68.0,48.0,60.0,12.0,0.0
27996,69.0,16.0,60.0,12.0,0.0
27997,66.0,0.0,60.0,13.0,0.0
27998,68.0,96.0,60.0,13.0,0.0
27999,71.0,0.0,60.0,12.0,0.0
28000,68.0,16.0,150.0,12.0,0.0
28001,64.0,0.0,150.0,13.0,0.0
28002,73.0,48.0,60.0,11.0,0.0
28003,74.0,16.0,60.0,11.0,0.0
28004,73.0,48.0,60.0,11.0,0.0
28005,34.0,16.0,30.0,9.0,0.0
28006,74.0,32.0,150.0,11.0,0.0
28007,34.0,48.0,60.0,9.0,0.0
28008,64.0,48.0,60.0,13.0,0.0
28009,68.0,0.0,60.0,12.0,0.0
28010,69.0,0.0,60.0,12.0,0.0
28011,66.0,16.0,60.0,13.0,0.0
28012,64.0,96.0,60.0,13.0,0.0
28013,68.0,0.0,60.0,12.0,0.0
28014,69.0,0.0,150.0,12.0,0.0
28015,66.0,16.0,150.0,13.0,0.0
28016,73.0,48.0,60.0,11.0,0.0
28017,74.0,16.0,60.0,11.0,0.0
28018,34.0,16.0,30.0,9.0,0.0
28019,73.0,48.0,60.0,11.0,0.0
28020,34.0,48.0,60.0,9.0,0.0
28021,74.0,32.0,150.0,11.0,0.0
28022,64.0,48.0,60.0,13.0,0.0
28023,68.0,0.0,60.0,12.0,0.0
28024,69.0,0.0,60.0,12.0,0.0
28025,66.0,16.0,60.0,13.0,0.0
28026,68.0,96.0,60.0,12.0,0.0
28027,64.0,0.0,60.0,13.0,0.0
28028,69.0,0.0,150.0,12.0,0.0
28029,66.0,16.0,150.0,13.0,0.0
28030,73.0,48.0,60.0,11.0,0.0
28031,74.0,16.0,60.0,11.0,0.0
28032,34.0,16.0,30.0,9.0,0.0
28033,73.0,48.0,60.0,11.0,0.0
28034,74.0,32.0,150.0,11.0,0.0
28035,34.0,48.0,60.0,9.0,0.0
28036,68.0,48.0,60.0,12.0,0.0
28037,65.0,0.0,60.0,13.0,0.0
28038,66.0,0.0,60.0,13.0,0.0
28039,69.0,16.0,60.0,12.0,0.0
28040,68.0,0.0,60.0,12.0,0.0
28041,65.0,94.0,60.0,13.0,0.0
28042,69.0,2.0,90.0,12.0,0.0
28043,66.0,0.0,90.0,13.0,0.0
28044,73.0,48.0,60.0,11.0,0.0
28045,74.0,32.0,60.0,11.0,0.0
28046,56.0,0.0,60.0,12.0,0.0
28047,73.0,2.0,60.0,11.0,0.0
28048,34.0,14.0,30.0,9.0,0.0
28049,53.0,46.0,60.0,13.0,0.0
28050,57.0,0.0,60.0,12.0,0.0
28051,54.0,2.0,60.0,13.0,0.0
28052,34.0,48.0,60.0,9.0,0.0
28053,73.0,48.0,60.0,11.0,0.0
28054,74.0,46.0,60.0,11.0,0.0
28055,69.0,0.0,60.0,12.0,0.0
28056,75.0,2.0,60.0,11.0,0.0
28057,66.0,46.0,60.0,13.0,0.0
28058,68.0,0.0,60.0,13.0,0.0
28059,71.0,50.0,60.0,12.0,0.0
28060,75.0,48.0,60.0,11.0,0.0
28061,76.0,46.0,60.0,11.0,0.0
28062,75.0,2.0,60.0,11.0,0.0
28063,57.0,46.0,60.0,12.0,0.0
28064,54.0,0.0,60.0,13.0,0.0
28065,56.0,0.0,60.0,13.0,0.0
28066,59.0,50.0,60.0,12.0,0.0
28067,75.0,48.0,60.0,11.0,0.0
28068,76.0,46.0,60.0,11.0,0.0
28069,68.0,46.0,60.0,13.0,0.0
28070,77.0,2.0,60.0,11.0,0.0
28071,71.0,0.0,60.0,12.0,0.0
28072,69.0,0.0,60.0,13.0,0.0
28073,73.0,50.0,60.0,12.0,0.0
28074,77.0,48.0,60.0,11.0,0.0
28075,78.0,46.0,60.0,11.0,0.0
28076,56.0,46.0,60.0,13.0,0.0
28077,59.0,0.0,60.0,12.0,0.0
28078,77.0,2.0,60.0,11.0,0.0
28079,61.0,0.0,60.0,12.0,0.0
28080,57.0,50.0,60.0,13.0,0.0
28081,77.0,48.0,60.0,11.0,0.0
28082,78.0,46.0,60.0,11.0,0.0
28083,73.0,46.0,60.0,12.0,0.0
28084,70.0,0.0,60.0,13.0,0.0
28085,79.0,2.0,60.0,11.0,0.0
28086,74.0,50.0,60.0,12.0,0.0
28087,71.0,0.0,60.0,13.0,0.0
28088,78.0,48.0,60.0,11.0,0.0
28089,79.0,46.0,60.0,11.0,0.0
28090,61.0,0.0,60.0,12.0,0.0
28091,78.0,2.0,60.0,11.0,0.0
28092,58.0,46.0,60.0,13.0,0.0
28093,59.0,0.0,60.0,13.0,0.0
28094,62.0,50.0,60.0,12.0,0.0
28095,78.0,48.0,60.0,11.0,0.0
28096,79.0,46.0,60.0,11.0,0.0
28097,73.0,0.0,60.0,12.0,0.0
28098,78.0,2.0,60.0,11.0,0.0
28099,70.0,46.0,60.0,13.0,0.0
28100,71.0,50.0,60.0,13.0,0.0
28101,74.0,0.0,60.0,12.0,0.0
28102,78.0,48.0,60.0,11.0,0.0
28103,79.0,46.0,60.0,11.0,0.0
28104,61.0,46.0,60.0,12.0,0.0
28105,78.0,2.0,60.0,11.0,0.0
28106,58.0,0.0,60.0,13.0,0.0
28107,59.0,0.0,60.0,13.0,0.0
28108,62.0,50.0,60.0,12.0,0.0
28109,66.0,48.0,60.0,11.0,0.0
28110,67.0,46.0,60.0,11.0,0.0
28111,66.0,2.0,60.0,11.0,0.0
28112,49.0,0.0,60.0,13.0,0.0
28113,46.0,46.0,60.0,14.0,0.0
28114,50.0,0.0,60.0,13.0,0.0
28115,47.0,50.0,60.0,14.0,0.0
28116,66.0,46.0,60.0,11.0,0.0
28117,67.0,50.0,60.0,11.0,0.0
28118,49.0,0.0,60.0,13.0,0.0
28119,46.0,46.0,60.0,14.0,0.0
28120,50.0,50.0,60.0,13.0,0.0
28121,47.0,0.0,60.0,14.0,0.0
28122,66.0,46.0,60.0,11.0,0.0
28123,67.0,50.0,60.0,11.0,0.0
28124,49.0,46.0,60.0,13.0,0.0
28125,46.0,0.0,60.0,14.0,0.0
28126,47.0,0.0,60.0,14.0,0.0
28127,50.0,50.0,60.0,13.0,0.0
28128,49.0,0.0,60.0,13.0,0.0
28129,66.0,0.0,60.0,11.0,0.0
28130,46.0,48.0,60.0,14.0,0.0
28131,58.0,0.0,60.0,12.0,0.0
28132,47.0,0.0,60.0,13.0,0.0
28133,68.0,0.0,60.0,11.0,0.0
28134,59.0,48.0,60.0,12.0,0.0
28135,44.0,0.0,60.0,14.0,0.0
28136,66.0,0.0,60.0,11.0,0.0
28137,46.0,160.0,60.0,14.0,0.0
28138,49.0,0.0,60.0,13.0,0.0
28139,58.0,0.0,60.0,12.0,0.0
28140,59.0,0.0,150.0,12.0,0.0
28141,44.0,0.0,150.0,14.0,0.0
28142,47.0,126.0,150.0,13.0,0.0
28143,68.0,0.0,150.0,11.0,0.0
28144,61.0,0.0,60.0,12.0,0.0
28145,42.0,2.0,60.0,14.0,0.0
28146,70.0,0.0,60.0,11.0,0.0
28147,46.0,46.0,60.0,13.0,0.0
28148,41.0,2.0,60.0,14.0,0.0
28149,44.0,0.0,60.0,13.0,0.0
28150,71.0,0.0,60.0,11.0,0.0
28151,62.0,46.0,60.0,12.0,0.0
28152,46.0,0.0,60.0,13.0,0.0
28153,42.0,2.0,60.0,14.0,0.0
28154,70.0,160.0,60.0,11.0,0.0
28155,61.0,0.0,60.0,12.0,0.0
28156,44.0,126.0,150.0,13.0,0.0
28157,41.0,0.0,150.0,14.0,0.0
28158,62.0,0.0,150.0,12.0,0.0
28159,71.0,0.0,150.0,11.0,0.0
28160,62.0,0.0,60.0,12.0,0.0
28161,71.0,0.0,60.0,11.0,0.0
28162,44.0,46.0,60.0,13.0,0.0
28163,41.0,2.0,60.0,14.0,0.0
28164,46.0,46.0,60.0,13.0,0.0
28165,61.0,0.0,60.0,12.0,0.0
28166,70.0,0.0,60.0,11.0,0.0
28167,42.0,2.0,60.0,14.0,0.0
28168,64.0,0.0,60.0,12.0,0.0
28169,73.0,46.0,60.0,11.0,0.0
28170,46.0,2.0,60.0,14.0,0.0
28171,49.0,0.0,60.0,13.0,0.0
28172,70.0,0.0,60.0,11.0,0.0
28173,46.0,46.0,60.0,13.0,0.0
28174,61.0,0.0,60.0,12.0,0.0
28175,42.0,2.0,60.0,14.0,0.0
28176,68.0,0.0,60.0,11.0,0.0
28177,59.0,46.0,60.0,12.0,0.0
28178,47.0,0.0,60.0,13.0,0.0
28179,44.0,2.0,60.0,14.0,0.0
28180,66.0,0.0,60.0,11.0,0.0
28181,49.0,0.0,60.0,13.0,0.0
28182,46.0,2.0,60.0,14.0,0.0
28183,58.0,46.0,60.0,12.0,0.0
28184,68.0,0.0,60.0,11.0,0.0
28185,59.0,0.0,60.0,12.0,0.0
28186,47.0,46.0,60.0,13.0,0.0
28187,44.0,2.0,60.0,14.0,0.0
28188,46.0,0.0,60.0,13.0,0.0
28189,61.0,46.0,60.0,12.0,0.0
28190,42.0,2.0,60.0,14.0,0.0
28191,70.0,0.0,60.0,11.0,0.0
28192,41.0,2.0,60.0,14.0,0.0
28193,44.0,46.0,60.0,13.0,0.0
28194,71.0,0.0,60.0,11.0,0.0
28195,62.0,0.0,60.0,12.0,0.0
28196,61.0,46.0,60.0,12.0,0.0
28197,42.0,2.0,60.0,14.0,0.0
28198,70.0,0.0,60.0,11.0,0.0
28199,46.0,0.0,60.0,13.0,0.0
28200,64.0,0.0,60.0,12.0,0.0
28201,49.0,0.0,60.0,13.0,0.0
28202,73.0,46.0,60.0,11.0,0.0
28203,46.0,2.0,60.0,14.0,0.0
28204,42.0,2.0,60.0,14.0,0.0
28205,61.0,0.0,60.0,12.0,0.0
28206,46.0,0.0,60.0,13.0,0.0
28207,70.0,46.0,60.0,11.0,0.0
28208,68.0,46.0,60.0,11.0,0.0
28209,47.0,0.0,60.0,13.0,0.0
28210,44.0,2.0,60.0,14.0,0.0
28211,59.0,0.0,60.0,12.0,0.0
28212,46.0,2.0,60.0,14.0,0.0
28213,58.0,0.0,60.0,12.0,0.0
28214,49.0,0.0,60.0,13.0,0.0
28215,66.0,46.0,60.0,11.0,0.0
28216,59.0,0.0,60.0,12.0,0.0
28217,44.0,0.0,60.0,14.0,0.0
28218,47.0,48.0,60.0,13.0,0.0
28219,68.0,0.0,60.0,11.0,0.0
28220,61.0,0.0,60.0,12.0,0.0
28221,37.0,0.0,180.0,8.0,0.0
28222,25.0,0.0,90.0,3.0,0.0
28223,70.0,0.0,60.0,11.0,0.0
28224,46.0,0.0,60.0,13.0,0.0
28225,49.0,0.0,90.0,4.0,0.0
28226,37.0,0.0,90.0,3.0,0.0
28227,37.0,2.0,90.0,15.0,0.0
28228,43.0,48.0,60.0,14.0,0.0
28229,67.0,0.0,60.0,11.0,0.0
28230,52.0,48.0,60.0,13.0,0.0
28231,49.0,0.0,60.0,14.0,0.0
28232,58.0,0.0,60.0,12.0,0.0
28233,68.0,0.0,60.0,11.0,0.0
28234,47.0,0.0,60.0,14.0,0.0
28235,59.0,0.0,60.0,12.0,0.0
28236,51.0,48.0,60.0,13.0,0.0
28237,52.0,0.0,60.0,13.0,0.0
28238,67.0,0.0,60.0,11.0,0.0
28239,58.0,160.0,60.0,12.0,0.0
28240,49.0,0.0,60.0,14.0,0.0
28241,68.0,128.0,150.0,11.0,0.0
28242,59.0,0.0,150.0,12.0,0.0
28243,51.0,0.0,150.0,13.0,0.0
28244,47.0,0.0,150.0,14.0,0.0
28245,49.0,0.0,60.0,13.0,0.0
28246,61.0,0.0,60.0,12.0,0.0
28247,46.0,48.0,60.0,14.0,0.0
28248,70.0,0.0,60.0,11.0,0.0
28249,47.0,0.0,60.0,13.0,0.0
28250,71.0,0.0,60.0,11.0,0.0
28251,44.0,0.0,60.0,14.0,0.0
28252,63.0,48.0,60.0,12.0,0.0
28253,49.0,0.0,60.0,13.0,0.0
28254,46.0,0.0,60.0,14.0,0.0
28255,70.0,0.0,60.0,11.0,0.0
28256,61.0,160.0,60.0,12.0,0.0
28257,37.0,0.0,180.0,15.0,0.0
28258,37.0,0.0,180.0,3.0,0.0
28259,71.0,32.0,150.0,11.0,0.0
28260,44.0,0.0,150.0,14.0,0.0
28261,47.0,0.0,150.0,13.0,0.0
28262,25.0,0.0,180.0,3.0,0.0
28263,37.0,0.0,180.0,8.0,0.0
28264,49.0,0.0,180.0,4.0,0.0
28265,63.0,0.0,150.0,12.0,0.0
28266,43.0,0.0,60.0,15.0,0.0
28267,43.0,0.0,60.0,14.0,0.0
28268,73.0,48.0,60.0,11.0,0.0
28269,64.0,0.0,60.0,12.0,0.0
28270,46.0,0.0,60.0,13.0,0.0
28271,71.0,0.0,60.0,11.0,0.0
28272,44.0,0.0,60.0,15.0,0.0
28273,47.0,0.0,60.0,13.0,0.0
28274,44.0,48.0,60.0,14.0,0.0
28275,63.0,0.0,60.0,12.0,0.0
28276,37.0,0.0,60.0,15.0,0.0
28277,49.0,24.0,60.0,13.0,0.0
28278,75.0,0.0,60.0,12.0,0.0
28279,37.0,0.0,60.0,14.0,0.0
28280,75.0,0.0,60.0,11.0,0.0
28281,44.0,0.0,60.0,15.0,0.0
28282,44.0,0.0,60.0,14.0,0.0
28283,63.0,0.0,60.0,12.0,0.0
28284,71.0,0.0,60.0,11.0,0.0
28285,47.0,0.0,60.0,13.0,0.0
28286,37.0,24.0,15.0,8.0,0.0
28287,61.0,0.0,60.0,12.0,0.0
28288,49.0,0.0,60.0,13.0,0.0
28289,46.0,24.0,60.0,15.0,0.0
28290,70.0,0.0,60.0,11.0,0.0
28291,46.0,0.0,60.0,14.0,0.0
28292,37.0,24.0,20.0,8.0,0.0
28293,37.0,0.0,20.0,8.0,0.0
28294,68.0,0.0,60.0,11.0,0.0
28295,47.0,0.0,60.0,14.0,0.0
28296,47.0,0.0,60.0,15.0,0.0
28297,51.0,0.0,60.0,13.0,0.0
28298,59.0,24.0,60.0,12.0,0.0
28299,37.0,24.0,15.0,8.0,0.0
28300,37.0,0.0,15.0,8.0,0.0
28301,70.0,2.0,60.0,11.0,0.0
28302,49.0,0.0,60.0,13.0,0.0
28303,61.0,0.0,60.0,12.0,0.0
28304,46.0,0.0,60.0,14.0,0.0
28305,46.0,0.0,60.0,15.0,0.0
28306,37.0,24.0,20.0,8.0,0.0
28307,44.0,24.0,60.0,15.0,0.0
28308,63.0,0.0,60.0,12.0,0.0
28309,71.0,0.0,60.0,11.0,0.0
28310,44.0,0.0,60.0,14.0,0.0
28311,47.0,0.0,60.0,13.0,0.0
28312,37.0,24.0,20.0,8.0,0.0
28313,37.0,0.0,20.0,8.0,0.0
28314,73.0,0.0,60.0,11.0,0.0
28315,64.0,0.0,60.0,12.0,0.0
28316,43.0,24.0,60.0,14.0,0.0
28317,46.0,0.0,60.0,13.0,0.0
28318,37.0,24.0,20.0,8.0,0.0
28319,43.0,0.0,60.0,15.0,0.0
28320,37.0,0.0,20.0,8.0,0.0
28321,63.0,0.0,60.0,12.0,0.0
28322,47.0,24.0,60.0,13.0,0.0
28323,71.0,0.0,60.0,11.0,0.0
28324,44.0,0.0,60.0,15.0,0.0
28325,44.0,0.0,60.0,14.0,0.0
28326,37.0,24.0,15.0,8.0,0.0
28327,37.0,24.0,20.0,8.0,0.0
28328,37.0,0.0,60.0,14.0,0.0
28329,75.0,0.0,60.0,11.0,0.0
28330,75.0,0.0,60.0,12.0,0.0
28331,37.0,0.0,60.0,15.0,0.0
28332,49.0,24.0,60.0,13.0,0.0
28333,44.0,0.0,60.0,14.0,0.0
28334,44.0,0.0,60.0,15.0,0.0
28335,37.0,0.0,15.0,8.0,0.0
28336,63.0,0.0,60.0,12.0,0.0
28337,71.0,0.0,60.0,11.0,0.0
28338,47.0,24.0,60.0,13.0,0.0
28339,37.0,0.0,20.0,8.0,0.0
28340,46.0,0.0,60.0,14.0,0.0
28341,61.0,24.0,60.0,12.0,0.0
28342,46.0,0.0,60.0,15.0,0.0
28343,70.0,0.0,60.0,11.0,0.0
28344,49.0,0.0,60.0,13.0,0.0
28345,37.0,24.0,20.0,8.0,0.0
28346,68.0,0.0,60.0,11.0,0.0
28347,37.0,0.0,15.0,8.0,0.0
28348,51.0,0.0,60.0,13.0,0.0
28349,47.0,0.0,60.0,14.0,0.0
28350,47.0,0.0,60.0,15.0,0.0
28351,59.0,24.0,60.0,12.0,0.0
28352,37.0,0.0,20.0,8.0,0.0
28353,49.0,0.0,60.0,13.0,0.0
28354,46.0,0.0,60.0,14.0,0.0
28355,61.0,0.0,60.0,12.0,0.0
28356,37.0,22.0,20.0,8.0,0.0
28357,46.0,2.0,60.0,15.0,0.0
28358,70.0,0.0,60.0,11.0,0.0
28359,37.0,24.0,20.0,8.0,0.0
28360,45.0,0.0,60.0,14.0,0.0
28361,45.0,24.0,60.0,15.0,0.0
28362,37.0,24.0,20.0,8.0,0.0
28363,63.0,0.0,60.0,12.0,0.0
28364,72.0,0.0,60.0,11.0,0.0
28365,48.0,0.0,60.0,13.0,0.0
28366,37.0,0.0,20.0,8.0,0.0
28367,43.0,0.0,60.0,14.0,0.0
28368,73.0,0.0,60.0,11.0,0.0
28369,46.0,0.0,60.0,13.0,0.0
28370,43.0,0.0,60.0,15.0,0.0
28371,65.0,24.0,60.0,12.0,0.0
28372,37.0,24.0,15.0,8.0,0.0
28373,72.0,0.0,60.0,11.0,0.0
28374,45.0,24.0,60.0,14.0,0.0
28375,37.0,0.0,15.0,8.0,0.0
28376,63.0,0.0,60.0,12.0,0.0
28377,48.0,0.0,60.0,13.0,0.0
28378,45.0,0.0,60.0,15.0,0.0
28379,37.0,0.0,20.0,8.0,0.0
28380,37.0,0.0,60.0,15.0,0.0
28381,37.0,0.0,60.0,14.0,0.0
28382,49.0,0.0,60.0,13.0,0.0
28383,77.0,24.0,60.0,12.0,0.0
28384,77.0,0.0,60.0,11.0,0.0
28385,37.0,24.0,15.0,8.0,0.0
28386,37.0,0.0,15.0,8.0,0.0
28387,72.0,24.0,60.0,11.0,0.0
28388,45.0,0.0,60.0,15.0,0.0
28389,48.0,0.0,60.0,13.0,0.0
28390,45.0,0.0,60.0,14.0,0.0
28391,63.0,0.0,60.0,12.0,0.0
28392,37.0,24.0,15.0,8.0,0.0
28393,37.0,0.0,15.0,8.0,0.0
28394,49.0,0.0,60.0,13.0,0.0
28395,70.0,0.0,60.0,11.0,0.0
28396,46.0,0.0,60.0,14.0,0.0
28397,46.0,0.0,60.0,15.0,0.0
28398,61.0,24.0,60.0,12.0,0.0
28399,37.0,0.0,20.0,8.0,0.0
28400,51.0,0.0,90.0,13.0,0.0
28401,69.0,24.0,60.0,11.0,0.0
28402,48.0,0.0,90.0,14.0,0.0
28403,60.0,0.0,60.0,12.0,0.0
28404,48.0,0.0,90.0,15.0,0.0
28405,37.0,24.0,20.0,8.0,0.0
28406,63.0,2.0,60.0,12.0,0.0
28407,72.0,0.0,60.0,11.0,0.0
28408,37.0,0.0,15.0,8.0,0.0
28409,37.0,22.0,15.0,8.0,0.0
28410,65.0,0.0,60.0,12.0,0.0
28411,46.0,0.0,60.0,14.0,0.0
28412,46.0,0.0,60.0,15.0,0.0
28413,73.0,0.0,60.0,11.0,0.0
28414,37.0,24.0,20.0,8.0,0.0
28415,49.0,0.0,60.0,13.0,0.0
28416,37.0,24.0,20.0,8.0,0.0
28417,48.0,0.0,60.0,13.0,0.0
28418,45.0,0.0,60.0,14.0,0.0
28419,45.0,24.0,60.0,15.0,0.0
28420,66.0,0.0,60.0,12.0,0.0
28421,75.0,0.0,60.0,11.0,0.0
28422,37.0,24.0,15.0,8.0,0.0
28423,46.0,24.0,60.0,14.0,0.0
28424,73.0,0.0,60.0,11.0,0.0
28425,65.0,0.0,60.0,12.0,0.0
28426,46.0,0.0,60.0,15.0,0.0
28427,37.0,24.0,20.0,8.0,0.0
28428,37.0,0.0,20.0,8.0,0.0
28429,49.0,0.0,15.0,13.0,0.0
28430,77.0,0.0,60.0,11.0,0.0
28431,37.0,0.0,60.0,14.0,0.0
28432,37.0,24.0,20.0,8.0,0.0
28433,37.0,24.0,60.0,15.0,0.0
28434,77.0,0.0,60.0,12.0,0.0
28435,37.0,0.0,20.0,8.0,0.0
28436,37.0,24.0,20.0,8.0,0.0
28437,65.0,0.0,60.0,12.0,0.0
28438,49.0,24.0,60.0,13.0,0.0
28439,73.0,0.0,60.0,11.0,0.0
28440,46.0,0.0,60.0,15.0,0.0
28441,46.0,0.0,60.0,14.0,0.0
28442,37.0,0.0,20.0,8.0,0.0
28443,48.0,0.0,60.0,15.0,0.0
28444,72.0,0.0,60.0,11.0,0.0
28445,48.0,0.0,60.0,14.0,0.0
28446,51.0,0.0,60.0,13.0,0.0
28447,63.0,0.0,60.0,12.0,0.0
28448,37.0,24.0,15.0,8.0,0.0
28449,70.0,0.0,60.0,11.0,0.0
28450,49.0,24.0,60.0,15.0,0.0
28451,49.0,0.0,60.0,14.0,0.0
28452,53.0,0.0,60.0,13.0,0.0
28453,61.0,0.0,60.0,12.0,0.0
28454,37.0,24.0,15.0,8.0,0.0
28455,37.0,0.0,20.0,8.0,0.0
28456,48.0,0.0,60.0,15.0,0.0
28457,48.0,0.0,60.0,14.0,0.0
28458,72.0,0.0,60.0,11.0,0.0
28459,51.0,0.0,60.0,13.0,0.0
28460,63.0,2.0,60.0,12.0,0.0
28461,37.0,22.0,15.0,8.0,0.0
28462,73.0,0.0,60.0,11.0,0.0
28463,46.0,0.0,60.0,15.0,0.0
28464,64.0,0.0,60.0,12.0,0.0
28465,49.0,0.0,60.0,13.0,0.0
28466,46.0,0.0,60.0,14.0,0.0
28467,37.0,24.0,15.0,8.0,0.0
28468,44.0,0.0,60.0,15.0,0.0
28469,37.0,24.0,15.0,8.0,0.0
28470,44.0,0.0,60.0,14.0,0.0
28471,75.0,24.0,60.0,11.0,0.0
28472,75.0,0.0,60.0,12.0,0.0
28473,47.0,0.0,60.0,13.0,0.0
28474,37.0,24.0,15.0,8.0,0.0
28475,37.0,0.0,15.0,8.0,0.0
28476,46.0,0.0,60.0,14.0,0.0
28477,64.0,24.0,60.0,12.0,0.0
28478,46.0,0.0,60.0,15.0,0.0
28479,49.0,0.0,60.0,13.0,0.0
28480,73.0,0.0,60.0,11.0,0.0
28481,37.0,24.0,15.0,8.0,0.0
28482,61.0,0.0,60.0,13.0,0.0
28483,37.0,0.0,15.0,8.0,0.0
28484,37.0,24.0,60.0,15.0,0.0
28485,78.0,2.0,60.0,11.0,0.0
28486,37.0,0.0,60.0,14.0,0.0
28487,78.0,0.0,60.0,12.0,0.0
28488,37.0,22.0,15.0,8.0,0.0
28489,51.0,0.0,60.0,13.0,0.0
28490,37.0,0.0,15.0,8.0,0.0
28491,75.0,0.0,60.0,11.0,0.0
28492,47.0,0.0,60.0,15.0,0.0
28493,66.0,0.0,60.0,12.0,0.0
28494,47.0,24.0,60.0,14.0,0.0
28495,46.0,24.0,60.0,15.0,0.0
28496,76.0,0.0,60.0,11.0,0.0
28497,37.0,0.0,15.0,8.0,0.0
28498,49.0,0.0,60.0,13.0,0.0
28499,76.0,0.0,60.0,12.0,0.0
28500,46.0,0.0,60.0,14.0,0.0
28501,51.0,0.0,60.0,13.0,0.0
28502,37.0,0.0,15.0,8.0,0.0
28503,47.0,0.0,60.0,14.0,0.0
28504,75.0,0.0,60.0,11.0,0.0
28505,66.0,24.0,60.0,12.0,0.0
28506,47.0,0.0,60.0,15.0,0.0
28507,37.0,0.0,20.0,8.0,0.0
28508,37.0,2.0,60.0,15.0,0.0
28509,49.0,0.0,60.0,13.0,0.0
28510,37.0,0.0,60.0,14.0,0.0
28511,78.0,0.0,60.0,11.0,0.0
28512,78.0,0.0,60.0,12.0,0.0
28513,37.0,22.0,15.0,8.0,0.0
28514,75.0,0.0,60.0,11.0,0.0
28515,66.0,0.0,60.0,12.0,0.0
28516,48.0,0.0,60.0,15.0,0.0
28517,37.0,24.0,15.0,8.0,0.0
28518,51.0,0.0,60.0,13.0,0.0
28519,48.0,24.0,60.0,14.0,0.0
28520,37.0,24.0,15.0,8.0,0.0
28521,77.0,0.0,60.0,11.0,0.0
28522,49.0,0.0,60.0,13.0,0.0
28523,46.0,0.0,60.0,15.0,0.0
28524,46.0,24.0,60.0,14.0,0.0
28525,77.0,0.0,60.0,12.0,0.0
28526,37.0,24.0,15.0,8.0,0.0
28527,51.0,24.0,60.0,13.0,0.0
28528,48.0,0.0,60.0,14.0,0.0
28529,37.0,24.0,20.0,8.0,0.0
28530,75.0,0.0,60.0,11.0,0.0
28531,48.0,0.0,60.0,15.0,0.0
28532,66.0,0.0,60.0,12.0,0.0
28533,80.0,0.0,60.0,12.0,0.0
28534,37.0,24.0,60.0,15.0,0.0
28535,37.0,0.0,15.0,8.0,0.0
28536,37.0,0.0,60.0,14.0,0.0
28537,80.0,2.0,60.0,11.0,0.0
28538,49.0,0.0,60.0,13.0,0.0
28539,37.0,0.0,20.0,8.0,0.0
28540,77.0,0.0,60.0,11.0,0.0
28541,68.0,0.0,60.0,12.0,0.0
28542,49.0,0.0,60.0,15.0,0.0
28543,53.0,24.0,60.0,13.0,0.0
28544,49.0,0.0,60.0,14.0,0.0
28545,37.0,24.0,15.0,8.0,0.0
28546,78.0,0.0,60.0,12.0,0.0
28547,78.0,0.0,60.0,11.0,0.0
28548,48.0,0.0,60.0,14.0,0.0
28549,48.0,24.0,60.0,15.0,0.0
28550,37.0,24.0,20.0,8.0,0.0
28551,51.0,0.0,60.0,13.0,0.0
28552,37.0,0.0,20.0,8.0,0.0
28553,77.0,0.0,60.0,11.0,0.0
28554,68.0,24.0,60.0,12.0,0.0
28555,53.0,0.0,60.0,13.0,0.0
28556,49.0,0.0,60.0,15.0,0.0
28557,49.0,0.0,60.0,14.0,0.0
28558,37.0,24.0,15.0,8.0,0.0
28559,37.0,0.0,15.0,8.0,0.0
28560,49.0,0.0,60.0,13.0,0.0
28561,37.0,2.0,60.0,15.0,0.0
28562,80.0,0.0,60.0,11.0,0.0
28563,80.0,0.0,60.0,12.0,0.0
28564,37.0,0.0,60.0,14.0,0.0
28565,37.0,22.0,15.0,8.0,0.0
28566,78.0,0.0,60.0,11.0,0.0
28567,70.0,0.0,60.0,12.0,0.0
28568,49.0,0.0,60.0,14.0,0.0
28569,49.0,0.0,60.0,15.0,0.0
28570,54.0,24.0,60.0,13.0,0.0
28571,37.0,24.0,15.0,8.0,0.0
28572,80.0,24.0,60.0,11.0,0.0
28573,48.0,0.0,60.0,15.0,0.0
28574,37.0,24.0,20.0,8.0,0.0
28575,48.0,0.0,60.0,13.0,0.0
28576,80.0,0.0,60.0,12.0,0.0
28577,48.0,0.0,60.0,14.0,0.0
28578,37.0,0.0,20.0,8.0,0.0
28579,49.0,24.0,60.0,15.0,0.0
28580,49.0,0.0,60.0,14.0,0.0
28581,54.0,0.0,60.0,13.0,0.0
28582,78.0,0.0,60.0,11.0,0.0
28583,37.0,24.0,20.0,8.0,0.0
28584,70.0,0.0,60.0,12.0,0.0
28585,37.0,0.0,20.0,8.0,0.0
28586,37.0,0.0,60.0,14.0,0.0
28587,37.0,0.0,60.0,15.0,0.0
28588,49.0,0.0,60.0,13.0,0.0
28589,82.0,0.0,60.0,12.0,0.0
28590,37.0,22.0,20.0,8.0,0.0
28591,82.0,2.0,60.0,11.0,0.0
28592,37.0,24.0,20.0,8.0,0.0
28593,49.0,0.0,60.0,14.0,0.0
28594,78.0,24.0,60.0,11.0,0.0
28595,37.0,24.0,20.0,8.0,0.0
28596,52.0,0.0,60.0,13.0,0.0
28597,70.0,0.0,60.0,12.0,0.0
28598,49.0,0.0,60.0,15.0,0.0
28599,37.0,0.0,20.0,8.0,0.0
28600,48.0,0.0,60.0,14.0,0.0
28601,48.0,0.0,60.0,13.0,0.0
28602,80.0,0.0,60.0,12.0,0.0
28603,48.0,0.0,60.0,15.0,0.0
28604,80.0,0.0,60.0,11.0,0.0
28605,37.0,24.0,15.0,8.0,0.0
28606,78.0,0.0,60.0,11.0,0.0
28607,52.0,0.0,60.0,13.0,0.0
28608,70.0,24.0,60.0,12.0,0.0
28609,49.0,0.0,60.0,14.0,0.0
28610,37.0,24.0,15.0,8.0,0.0
28611,49.0,0.0,60.0,15.0,0.0
28612,37.0,0.0,20.0,8.0,0.0
28613,37.0,22.0,20.0,8.0,0.0
28614,37.0,0.0,60.0,14.0,0.0
28615,49.0,0.0,60.0,13.0,0.0
28616,37.0,2.0,60.0,15.0,0.0
28617,82.0,0.0,60.0,11.0,0.0
28618,82.0,0.0,60.0,12.0,0.0
28619,37.0,24.0,20.0,8.0,0.0
28620,47.0,0.0,60.0,15.0,0.0
28621,71.0,0.0,60.0,12.0,0.0
28622,47.0,0.0,60.0,14.0,0.0
28623,51.0,0.0,60.0,13.0,0.0
28624,78.0,24.0,60.0,11.0,0.0
28625,37.0,24.0,15.0,8.0,0.0
28626,37.0,24.0,20.0,8.0,0.0
28627,46.0,0.0,60.0,13.0,0.0
28628,46.0,0.0,60.0,14.0,0.0
28629,80.0,0.0,60.0,12.0,0.0
28630,80.0,0.0,60.0,11.0,0.0
28631,46.0,0.0,60.0,15.0,0.0
28632,37.0,24.0,20.0,8.0,0.0
28633,47.0,0.0,60.0,14.0,0.0
28634,71.0,0.0,60.0,12.0,0.0
28635,78.0,0.0,60.0,11.0,0.0
28636,47.0,0.0,60.0,15.0,0.0
28637,51.0,24.0,60.0,13.0,0.0
28638,37.0,24.0,20.0,8.0,0.0
28639,37.0,0.0,20.0,8.0,0.0
28640,37.0,0.0,60.0,15.0,0.0
28641,37.0,0.0,60.0,14.0,0.0
28642,83.0,0.0,60.0,12.0,0.0
28643,37.0,22.0,20.0,8.0,0.0
28644,49.0,2.0,60.0,13.0,0.0
28645,83.0,0.0,60.0,11.0,0.0
28646,50.0,0.0,60.0,13.0,0.0
28647,45.0,24.0,60.0,14.0,0.0
28648,37.0,24.0,15.0,8.0,0.0
28649,72.0,0.0,60.0,12.0,0.0
28650,45.0,0.0,60.0,15.0,0.0
28651,78.0,0.0,60.0,11.0,0.0
28652,37.0,24.0,15.0,8.0,0.0
28653,80.0,0.0,60.0,11.0,0.0
28654,44.0,0.0,60.0,15.0,0.0
28655,80.0,0.0,60.0,12.0,0.0
28656,44.0,0.0,60.0,13.0,0.0
28657,44.0,24.0,60.0,14.0,0.0
28658,37.0,24.0,20.0,8.0,0.0
28659,37.0,0.0,20.0,8.0,0.0
28660,72.0,0.0,60.0,12.0,0.0
28661,50.0,0.0,60.0,13.0,0.0
28662,45.0,0.0,60.0,15.0,0.0
28663,78.0,24.0,60.0,11.0,0.0
28664,45.0,0.0,60.0,14.0,0.0
28665,37.0,24.0,15.0,8.0,0.0
28666,37.0,0.0,150.0,14.0,0.0
28667,37.0,0.0,15.0,8.0,0.0
28668,49.0,0.0,60.0,13.0,0.0
28669,37.0,34.0,150.0,15.0,0.0
28670,84.0,0.0,60.0,11.0,0.0
28671,84.0,2.0,60.0,12.0,0.0
28672,37.0,16.0,20.0,8.0,0.0
28673,44.0,0.0,90.0,13.0,0.0
28674,53.0,0.0,90.0,13.0,0.0
28675,80.0,0.0,90.0,12.0,0.0
28676,73.0,0.0,90.0,12.0,0.0
28677,85.0,0.0,150.0,0.0,0.0
28678,61.0,0.0,150.0,4.0,0.0
28679,85.0,0.0,150.0,11.0,0.0
28680,61.0,0.0,150.0,6.0,0.0
28681,45.0,0.0,330.0,9.0,0.0
28682,77.0,16.0,150.0,11.0,0.0
28683,37.0,16.0,180.0,8.0,0.0
28684,61.0,0.0,330.0,10.0,0.0
28685,73.0,16.0,330.0,10.0,0.0
28686,73.0,0.0,150.0,5.0,0.0
28687,34.0,24.0,15.0,9.0,0.0
28688,34.0,40.0,15.0,9.0,0.0
28689,34.0,14.0,30.0,9.0,0.0
28690,34.0,32.0,30.0,9.0,0.0
28691,34.0,16.0,30.0,9.0,0.0
28692,61.0,16.0,150.0,5.0,0.0
28693,49.0,0.0,150.0,4.0,0.0
28694,34.0,24.0,15.0,9.0,0.0
28695,49.0,0.0,150.0,6.0,0.0
28696,49.0,0.0,150.0,7.0,0.0
28697,34.0,40.0,15.0,9.0,0.0
28698,34.0,48.0,30.0,9.0,0.0
28699,34.0,16.0,30.0,9.0,0.0
28700,34.0,32.0,30.0,9.0,0.0
28701,85.0,0.0,150.0,11.0,0.0
28702,73.0,0.0,150.0,5.0,0.0
28703,73.0,0.0,150.0,12.0,0.0
28704,34.0,24.0,15.0,9.0,0.0
28705,73.0,0.0,330.0,10.0,0.0
28706,61.0,16.0,330.0,10.0,0.0
28707,61.0,16.0,150.0,4.0,0.0
28708,85.0,0.0,150.0,0.0,0.0
28709,61.0,0.0,150.0,6.0,0.0
28710,34.0,40.0,15.0,9.0,0.0
28711,34.0,48.0,30.0,9.0,0.0
28712,34.0,32.0,30.0,9.0,0.0
28713,34.0,32.0,30.0,9.0,0.0
28714,49.0,0.0,150.0,4.0,0.0
28715,34.0,24.0,15.0,9.0,0.0
28716,61.0,0.0,150.0,5.0,0.0
28717,49.0,16.0,150.0,7.0,0.0
28718,49.0,0.0,150.0,6.0,0.0
28719,34.0,40.0,15.0,9.0,0.0
28720,34.0,48.0,30.0,9.0,0.0
28721,34.0,16.0,30.0,9.0,0.0
28722,34.0,32.0,30.0,9.0,0.0
28723,61.0,0.0,330.0,6.0,0.0
28724,73.0,16.0,150.0,12.0,0.0
28725,73.0,0.0,330.0,5.0,0.0
28726,61.0,0.0,330.0,4.0,0.0
28727,73.0,16.0,330.0,1.0,0.0
28728,61.0,0.0,330.0,10.0,0.0
28729,85.0,0.0,330.0,0.0,0.0
28730,73.0,0.0,330.0,10.0,0.0
28731,34.0,24.0,15.0,9.0,0.0
28732,85.0,0.0,330.0,11.0,0.0
28733,34.0,40.0,15.0,9.0,0.0
28734,34.0,16.0,30.0,9.0,0.0
28735,73.0,32.0,60.0,13.0,0.0
28736,53.0,0.0,60.0,14.0,0.0
28737,41.0,0.0,60.0,3.0,0.0
28738,49.0,0.0,60.0,2.0,0.0
28739,53.0,0.0,60.0,3.0,0.0
28740,39.0,0.0,60.0,3.0,0.0
28741,47.0,0.0,60.0,2.0,0.0
28742,34.0,16.0,30.0,9.0,0.0
28743,51.0,0.0,60.0,3.0,0.0
28744,51.0,0.0,60.0,14.0,0.0
28745,71.0,16.0,60.0,13.0,0.0
28746,49.0,0.0,60.0,14.0,0.0
28747,34.0,14.0,30.0,9.0,0.0
28748,49.0,0.0,60.0,3.0,0.0
28749,73.0,16.0,60.0,13.0,0.0
28750,37.0,0.0,60.0,3.0,0.0
28751,49.0,2.0,60.0,2.0,0.0
28752,49.0,0.0,330.0,7.0,0.0
28753,34.0,24.0,15.0,9.0,0.0
28754,49.0,16.0,330.0,4.0,0.0
28755,61.0,0.0,330.0,2.0,0.0
28756,49.0,0.0,330.0,6.0,0.0
28757,73.0,0.0,330.0,12.0,0.0
28758,47.0,0.0,150.0,2.0,0.0
28759,51.0,0.0,60.0,3.0,0.0
28760,51.0,0.0,60.0,14.0,0.0
28761,71.0,16.0,150.0,13.0,0.0
28762,39.0,32.0,60.0,3.0,0.0
28763,61.0,0.0,330.0,5.0,0.0
28764,34.0,8.0,15.0,9.0,0.0
28765,34.0,16.0,30.0,9.0,0.0
28766,49.0,0.0,60.0,14.0,0.0
28767,37.0,0.0,60.0,3.0,0.0
28768,49.0,32.0,60.0,3.0,0.0
28769,47.0,0.0,60.0,3.0,0.0
28770,34.0,16.0,30.0,9.0,0.0
28771,35.0,0.0,60.0,3.0,0.0
28772,47.0,0.0,60.0,14.0,0.0
28773,46.0,16.0,60.0,14.0,0.0
28774,46.0,0.0,60.0,3.0,0.0
28775,34.0,0.0,60.0,3.0,0.0
28776,34.0,16.0,30.0,9.0,0.0
28777,85.0,0.0,330.0,11.0,0.0
28778,85.0,16.0,330.0,0.0,0.0
28779,32.0,0.0,60.0,3.0,0.0
28780,61.0,0.0,330.0,10.0,0.0
28781,73.0,0.0,330.0,5.0,0.0
28782,73.0,0.0,330.0,10.0,0.0
28783,44.0,0.0,60.0,14.0,0.0
28784,34.0,24.0,15.0,9.0,0.0
28785,61.0,0.0,330.0,4.0,0.0
28786,61.0,0.0,330.0,6.0,0.0
28787,44.0,32.0,60.0,3.0,0.0
28788,73.0,0.0,330.0,1.0,0.0
28789,34.0,8.0,15.0,9.0,0.0
28790,42.0,0.0,60.0,14.0,0.0
28791,42.0,0.0,60.0,3.0,0.0
28792,34.0,16.0,30.0,9.0,0.0
28793,30.0,0.0,60.0,3.0,0.0
28794,46.0,32.0,60.0,2.0,0.0
28795,70.0,0.0,60.0,13.0,0.0
28796,41.0,0.0,60.0,3.0,0.0
28797,68.0,0.0,60.0,13.0,0.0
28798,44.0,0.0,60.0,2.0,0.0
28799,29.0,0.0,60.0,3.0,0.0
28800,34.0,16.0,30.0,9.0,0.0
28801,41.0,0.0,60.0,14.0,0.0
28802,39.0,0.0,60.0,3.0,0.0
28803,42.0,0.0,60.0,3.0,0.0
28804,70.0,16.0,60.0,13.0,0.0
28805,42.0,0.0,60.0,14.0,0.0
28806,34.0,14.0,30.0,9.0,0.0
28807,46.0,2.0,60.0,2.0,0.0
28808,68.0,16.0,150.0,13.0,0.0
28809,49.0,0.0,360.0,7.0,0.0
28810,44.0,0.0,150.0,2.0,0.0
28811,49.0,0.0,360.0,6.0,0.0
28812,73.0,0.0,360.0,12.0,0.0
28813,61.0,16.0,360.0,2.0,0.0
28814,49.0,0.0,360.0,4.0,0.0
28815,44.0,32.0,60.0,14.0,0.0
28816,44.0,0.0,60.0,3.0,0.0
28817,61.0,0.0,360.0,5.0,0.0
28818,34.0,24.0,15.0,9.0,0.0
28819,41.0,0.0,60.0,3.0,0.0
28820,34.0,8.0,15.0,9.0,0.0
28821,46.0,0.0,60.0,3.0,0.0
28822,46.0,0.0,60.0,14.0,0.0
28823,34.0,16.0,30.0,9.0,0.0
28824,42.0,32.0,60.0,3.0,0.0
28825,47.0,0.0,60.0,3.0,0.0
28826,47.0,0.0,60.0,14.0,0.0
28827,34.0,16.0,30.0,9.0,0.0
28828,44.0,0.0,60.0,3.0,0.0
28829,34.0,16.0,30.0,9.0,0.0
28830,49.0,16.0,60.0,3.0,0.0
28831,46.0,0.0,60.0,3.0,0.0
28832,49.0,0.0,60.0,14.0,0.0
28833,61.0,0.0,330.0,10.0,0.0
28834,73.0,0.0,330.0,10.0,0.0
28835,51.0,0.0,60.0,14.0,0.0
28836,85.0,0.0,330.0,11.0,0.0
28837,73.0,0.0,330.0,5.0,0.0
28838,51.0,0.0,60.0,3.0,0.0
28839,34.0,24.0,15.0,9.0,0.0
28840,61.0,0.0,330.0,6.0,0.0
28841,61.0,0.0,330.0,4.0,0.0
28842,85.0,0.0,330.0,0.0,0.0
28843,47.0,34.0,60.0,3.0,0.0
28844,73.0,16.0,330.0,1.0,0.0
28845,34.0,6.0,15.0,9.0,0.0
28846,51.0,0.0,60.0,15.0,0.0
28847,47.0,0.0,60.0,2.0,0.0
28848,71.0,0.0,60.0,13.0,0.0
28849,51.0,0.0,60.0,3.0,0.0
28850,63.0,0.0,60.0,14.0,0.0
28851,63.0,32.0,60.0,3.0,0.0
28852,34.0,16.0,30.0,9.0,0.0
28853,61.0,16.0,60.0,14.0,0.0
28854,34.0,16.0,30.0,9.0,0.0
28855,46.0,0.0,60.0,2.0,0.0
28856,61.0,0.0,60.0,3.0,0.0
28857,70.0,0.0,60.0,13.0,0.0
28858,49.0,0.0,60.0,3.0,0.0
28859,49.0,0.0,60.0,15.0,0.0
28860,59.0,0.0,60.0,14.0,0.0
28861,47.0,0.0,60.0,15.0,0.0
28862,71.0,0.0,60.0,13.0,0.0
28863,47.0,2.0,60.0,2.0,0.0
28864,34.0,14.0,30.0,9.0,0.0
28865,59.0,16.0,60.0,3.0,0.0
28866,47.0,0.0,60.0,3.0,0.0
28867,73.0,0.0,330.0,12.0,0.0
28868,70.0,16.0,150.0,13.0,0.0
28869,61.0,0.0,60.0,3.0,0.0
28870,49.0,0.0,330.0,4.0,0.0
28871,49.0,0.0,330.0,7.0,0.0
28872,49.0,0.0,60.0,3.0,0.0
28873,61.0,0.0,60.0,14.0,0.0
28874,49.0,0.0,330.0,6.0,0.0
28875,61.0,32.0,330.0,2.0,0.0
28876,34.0,24.0,15.0,9.0,0.0
28877,49.0,32.0,60.0,15.0,0.0
28878,46.0,0.0,150.0,2.0,0.0
28879,34.0,8.0,15.0,9.0,0.0
28880,34.0,16.0,30.0,9.0,0.0
28881,59.0,0.0,60.0,3.0,0.0
28882,59.0,0.0,60.0,14.0,0.0
28883,47.0,0.0,60.0,3.0,0.0
28884,47.0,32.0,60.0,15.0,0.0
28885,58.0,0.0,60.0,14.0,0.0
28886,46.0,0.0,60.0,3.0,0.0
28887,46.0,0.0,60.0,15.0,0.0
28888,58.0,0.0,60.0,3.0,0.0
28889,34.0,16.0,30.0,9.0,0.0
28890,34.0,16.0,30.0,9.0,0.0
28891,44.0,16.0,60.0,15.0,0.0
28892,44.0,0.0,60.0,3.0,0.0
28893,56.0,0.0,60.0,14.0,0.0
28894,56.0,0.0,60.0,3.0,0.0
28895,61.0,0.0,330.0,6.0,0.0
28896,61.0,0.0,330.0,4.0,0.0
28897,42.0,0.0,60.0,3.0,0.0
28898,85.0,0.0,330.0,0.0,0.0
28899,54.0,32.0,60.0,14.0,0.0
28900,34.0,24.0,15.0,9.0,0.0
28901,73.0,0.0,330.0,5.0,0.0
28902,73.0,16.0,330.0,10.0,0.0
28903,42.0,0.0,60.0,15.0,0.0
28904,54.0,0.0,60.0,3.0,0.0
28905,61.0,0.0,330.0,10.0,0.0
28906,85.0,0.0,330.0,11.0,0.0
28907,73.0,0.0,330.0,1.0,0.0
28908,34.0,8.0,15.0,9.0,0.0
28909,68.0,0.0,60.0,13.0,0.0
28910,34.0,16.0,30.0,9.0,0.0
28911,53.0,0.0,60.0,14.0,0.0
28912,41.0,0.0,60.0,15.0,0.0
28913,41.0,0.0,60.0,3.0,0.0
28914,44.0,0.0,60.0,2.0,0.0
28915,53.0,32.0,60.0,3.0,0.0
28916,39.0,0.0,60.0,15.0,0.0
28917,51.0,0.0,60.0,3.0,0.0
28918,66.0,0.0,60.0,13.0,0.0
28919,34.0,16.0,30.0,9.0,0.0
28920,39.0,0.0,60.0,3.0,0.0
28921,51.0,0.0,60.0,14.0,0.0
28922,42.0,0.0,60.0,2.0,0.0
28923,34.0,14.0,30.0,9.0,0.0
28924,37.0,0.0,60.0,3.0,0.0
28925,37.0,16.0,60.0,15.0,0.0
28926,44.0,2.0,60.0,2.0,0.0
28927,68.0,0.0,60.0,13.0,0.0
28928,49.0,0.0,60.0,14.0,0.0
28929,53.0,0.0,60.0,14.0,0.0
28930,49.0,0.0,60.0,3.0,0.0
28931,53.0,0.0,60.0,3.0,0.0
28932,51.0,0.0,60.0,14.0,0.0
28933,54.0,0.0,60.0,14.0,0.0
28934,66.0,0.0,150.0,13.0,0.0
28935,39.0,0.0,60.0,3.0,0.0
28936,34.0,24.0,15.0,9.0,0.0
28937,61.0,16.0,360.0,5.0,0.0
28938,61.0,0.0,360.0,2.0,0.0
28939,49.0,0.0,360.0,6.0,0.0
28940,49.0,0.0,360.0,4.0,0.0
28941,49.0,0.0,360.0,7.0,0.0
28942,73.0,0.0,360.0,12.0,0.0
28943,51.0,0.0,60.0,3.0,0.0
28944,54.0,32.0,60.0,3.0,0.0
28945,42.0,16.0,150.0,2.0,0.0
28946,39.0,0.0,60.0,15.0,0.0
28947,34.0,8.0,15.0,9.0,0.0
28948,53.0,0.0,60.0,3.0,0.0
28949,41.0,0.0,60.0,3.0,0.0
28950,53.0,0.0,60.0,14.0,0.0
28951,41.0,32.0,60.0,15.0,0.0
28952,34.0,16.0,30.0,9.0,0.0
28953,56.0,0.0,60.0,3.0,0.0
28954,56.0,0.0,60.0,14.0,0.0
28955,42.0,0.0,60.0,3.0,0.0
28956,54.0,0.0,60.0,3.0,0.0
28957,58.0,0.0,60.0,3.0,0.0
28958,42.0,0.0,60.0,15.0,0.0
28959,58.0,0.0,60.0,14.0,0.0
28960,34.0,16.0,30.0,9.0,0.0
28961,54.0,0.0,60.0,14.0,0.0
28962,44.0,0.0,60.0,3.0,0.0
28963,44.0,0.0,60.0,15.0,0.0
28964,59.0,0.0,60.0,14.0,0.0
28965,56.0,16.0,60.0,14.0,0.0
28966,59.0,0.0,60.0,3.0,0.0
28967,56.0,0.0,60.0,3.0,0.0
28968,34.0,16.0,30.0,9.0,0.0
28969,73.0,0.0,330.0,1.0,0.0
28970,73.0,0.0,330.0,10.0,0.0
28971,61.0,0.0,330.0,10.0,0.0
28972,58.0,0.0,60.0,14.0,0.0
28973,46.0,34.0,60.0,15.0,0.0
28974,85.0,0.0,330.0,11.0,0.0
28975,73.0,16.0,330.0,5.0,0.0
28976,46.0,0.0,60.0,3.0,0.0
28977,61.0,0.0,330.0,6.0,0.0
28978,34.0,24.0,15.0,9.0,0.0
28979,58.0,0.0,60.0,3.0,0.0
28980,85.0,0.0,330.0,0.0,0.0
28981,61.0,0.0,330.0,4.0,0.0
28982,34.0,6.0,15.0,9.0,0.0
28983,49.0,0.0,60.0,3.0,0.0
28984,37.0,0.0,60.0,3.0,0.0
28985,37.0,0.0,60.0,15.0,0.0
28986,49.0,0.0,60.0,14.0,0.0
28987,70.0,0.0,60.0,13.0,0.0
28988,46.0,32.0,60.0,2.0,0.0
28989,34.0,16.0,30.0,9.0,0.0
28990,35.0,16.0,60.0,15.0,0.0
28991,47.0,0.0,60.0,14.0,0.0
28992,35.0,0.0,60.0,3.0,0.0
28993,47.0,0.0,60.0,3.0,0.0
28994,68.0,0.0,60.0,13.0,0.0
28995,34.0,16.0,30.0,9.0,0.0
28996,44.0,0.0,60.0,2.0,0.0
28997,46.0,2.0,60.0,2.0,0.0
28998,46.0,0.0,60.0,14.0,0.0
28999,34.0,14.0,30.0,9.0,0.0
29000,46.0,0.0,60.0,3.0,0.0
29001,34.0,0.0,60.0,3.0,0.0
29002,34.0,16.0,60.0,15.0,0.0
29003,70.0,0.0,60.0,13.0,0.0
29004,44.0,16.0,150.0,2.0,0.0
29005,49.0,0.0,330.0,4.0,0.0
29006,49.0,0.0,330.0,6.0,0.0
29007,35.0,0.0,60.0,3.0,0.0
29008,47.0,0.0,60.0,3.0,0.0
29009,35.0,0.0,60.0,15.0,0.0
29010,73.0,0.0,330.0,12.0,0.0
29011,47.0,32.0,60.0,14.0,0.0
29012,49.0,0.0,330.0,7.0,0.0
29013,68.0,0.0,150.0,13.0,0.0
29014,61.0,32.0,330.0,2.0,0.0
29015,34.0,24.0,15.0,9.0,0.0
29016,34.0,8.0,15.0,9.0,0.0
29017,34.0,0.0,60.0,15.0,0.0
29018,46.0,32.0,60.0,3.0,0.0
29019,34.0,0.0,60.0,3.0,0.0
29020,34.0,16.0,30.0,9.0,0.0
29021,46.0,0.0,60.0,14.0,0.0
29022,34.0,16.0,30.0,9.0,0.0
29023,44.0,0.0,60.0,14.0,0.0
29024,32.0,0.0,60.0,3.0,0.0
29025,32.0,0.0,60.0,15.0,0.0
29026,44.0,0.0,60.0,3.0,0.0
29027,30.0,0.0,60.0,3.0,0.0
29028,30.0,0.0,60.0,15.0,0.0
29029,42.0,0.0,60.0,14.0,0.0
29030,42.0,16.0,60.0,3.0,0.0
29031,34.0,16.0,30.0,9.0,0.0
29032,29.0,0.0,60.0,3.0,0.0
29033,61.0,16.0,330.0,6.0,0.0
29034,41.0,0.0,60.0,14.0,0.0
29035,85.0,0.0,330.0,0.0,0.0
29036,85.0,0.0,330.0,11.0,0.0
29037,73.0,0.0,330.0,1.0,0.0
29038,73.0,0.0,330.0,5.0,0.0
29039,61.0,0.0,330.0,10.0,0.0
29040,73.0,0.0,330.0,10.0,0.0
29041,61.0,0.0,330.0,4.0,0.0
29042,34.0,24.0,15.0,9.0,0.0
29043,29.0,32.0,60.0,15.0,0.0
29044,41.0,0.0,60.0,3.0,0.0
29045,34.0,8.0,15.0,9.0,0.0
29046,34.0,16.0,30.0,9.0,0.0
29047,27.0,0.0,60.0,15.0,0.0
29048,39.0,0.0,60.0,3.0,0.0
29049,27.0,32.0,60.0,3.0,0.0
29050,39.0,0.0,60.0,14.0,0.0
29051,42.0,0.0,60.0,2.0,0.0
29052,66.0,0.0,60.0,13.0,0.0
29053,25.0,0.0,60.0,15.0,0.0
29054,37.0,0.0,60.0,14.0,0.0
29055,65.0,0.0,60.0,13.0,0.0
29056,34.0,16.0,30.0,9.0,0.0
29057,37.0,0.0,60.0,3.0,0.0
29058,25.0,0.0,60.0,3.0,0.0
29059,41.0,0.0,60.0,2.0,0.0
29060,24.0,0.0,60.0,15.0,0.0
29061,27.0,16.0,60.0,15.0,0.0
29062,42.0,2.0,60.0,2.0,0.0
29063,36.0,0.0,60.0,14.0,0.0
29064,36.0,0.0,60.0,3.0,0.0
29065,39.0,0.0,60.0,3.0,0.0
29066,39.0,0.0,60.0,14.0,0.0
29067,66.0,0.0,60.0,13.0,0.0
29068,24.0,0.0,60.0,3.0,0.0
29069,34.0,14.0,30.0,9.0,0.0
29070,41.0,0.0,60.0,3.0,0.0
29071,37.0,0.0,60.0,14.0,0.0
29072,65.0,16.0,150.0,13.0,0.0
29073,41.0,32.0,60.0,14.0,0.0
29074,49.0,0.0,360.0,6.0,0.0
29075,37.0,0.0,60.0,3.0,0.0
29076,61.0,0.0,540.0,5.0,0.0
29077,49.0,0.0,360.0,7.0,0.0
29078,73.0,0.0,360.0,12.0,0.0
29079,49.0,0.0,360.0,4.0,0.0
29080,34.0,24.0,15.0,9.0,0.0
29081,25.0,0.0,60.0,3.0,0.0
29082,41.0,0.0,150.0,2.0,0.0
29083,29.0,0.0,60.0,15.0,0.0
29084,25.0,0.0,60.0,15.0,0.0
29085,61.0,16.0,360.0,2.0,0.0
29086,34.0,8.0,15.0,9.0,0.0
29087,27.0,32.0,60.0,3.0,0.0
29088,42.0,0.0,60.0,3.0,0.0
29089,39.0,0.0,60.0,3.0,0.0
29090,30.0,0.0,60.0,15.0,0.0
29091,27.0,0.0,60.0,15.0,0.0
29092,34.0,16.0,30.0,9.0,0.0
29093,39.0,0.0,60.0,14.0,0.0
29094,42.0,0.0,60.0,14.0,0.0
29095,41.0,0.0,60.0,14.0,0.0
29096,32.0,0.0,60.0,15.0,0.0
29097,41.0,0.0,60.0,3.0,0.0
29098,44.0,0.0,60.0,3.0,0.0
29099,34.0,16.0,30.0,9.0,0.0
29100,44.0,0.0,60.0,14.0,0.0
29101,29.0,0.0,60.0,15.0,0.0
29102,29.0,0.0,60.0,3.0,0.0
29103,42.0,0.0,60.0,3.0,0.0
29104,46.0,0.0,60.0,3.0,0.0
29105,34.0,0.0,60.0,15.0,0.0
29106,30.0,16.0,60.0,3.0,0.0
29107,30.0,0.0,60.0,15.0,0.0
29108,34.0,16.0,30.0,9.0,0.0
29109,46.0,0.0,60.0,14.0,0.0
29110,42.0,0.0,60.0,14.0,0.0
29111,61.0,16.0,330.0,6.0,0.0
29112,44.0,0.0,60.0,3.0,0.0
29113,34.0,24.0,15.0,9.0,0.0
29114,85.0,0.0,330.0,11.0,0.0
29115,36.0,0.0,60.0,15.0,0.0
29116,32.0,0.0,60.0,15.0,0.0
29117,85.0,0.0,330.0,0.0,0.0
29118,44.0,0.0,60.0,14.0,0.0
29119,73.0,0.0,330.0,1.0,0.0
29120,48.0,0.0,60.0,3.0,0.0
29121,73.0,0.0,330.0,5.0,0.0
29122,61.0,0.0,330.0,4.0,0.0
29123,32.0,0.0,60.0,3.0,0.0
29124,48.0,16.0,60.0,14.0,0.0
29125,61.0,0.0,330.0,10.0,0.0
29126,73.0,0.0,330.0,10.0,0.0
29127,34.0,8.0,15.0,9.0,0.0
29128,34.0,0.0,60.0,15.0,0.0
29129,37.0,32.0,60.0,15.0,0.0
29130,44.0,0.0,60.0,2.0,0.0
29131,46.0,0.0,60.0,3.0,0.0
29132,34.0,0.0,60.0,3.0,0.0
29133,49.0,0.0,60.0,3.0,0.0
29134,49.0,0.0,60.0,14.0,0.0
29135,34.0,24.0,15.0,9.0,0.0
29136,68.0,0.0,60.0,13.0,0.0
29137,46.0,0.0,60.0,14.0,0.0
29138,34.0,8.0,15.0,9.0,0.0
29139,48.0,0.0,60.0,3.0,0.0
29140,51.0,0.0,60.0,3.0,0.0
29141,39.0,0.0,60.0,15.0,0.0
29142,36.0,0.0,60.0,15.0,0.0
29143,42.0,0.0,60.0,2.0,0.0
29144,66.0,16.0,60.0,13.0,0.0
29145,51.0,0.0,60.0,14.0,0.0
29146,36.0,0.0,60.0,3.0,0.0
29147,34.0,16.0,30.0,9.0,0.0
29148,48.0,0.0,60.0,14.0,0.0
29149,53.0,0.0,60.0,14.0,0.0
29150,49.0,0.0,60.0,3.0,0.0
29151,53.0,0.0,60.0,3.0,0.0
29152,49.0,0.0,60.0,14.0,0.0
29153,41.0,0.0,60.0,15.0,0.0
29154,37.0,16.0,60.0,15.0,0.0
29155,37.0,0.0,60.0,3.0,0.0
29156,44.0,2.0,60.0,2.0,0.0
29157,68.0,0.0,60.0,13.0,0.0
29158,34.0,14.0,30.0,9.0,0.0
29159,49.0,0.0,330.0,4.0,0.0
29160,49.0,0.0,330.0,6.0,0.0
29161,73.0,0.0,330.0,12.0,0.0
29162,39.0,0.0,60.0,3.0,0.0
29163,42.0,0.0,60.0,15.0,0.0
29164,39.0,0.0,60.0,15.0,0.0
29165,61.0,0.0,330.0,2.0,0.0
29166,66.0,16.0,150.0,13.0,0.0
29167,51.0,0.0,60.0,14.0,0.0
29168,54.0,0.0,60.0,3.0,0.0
29169,51.0,16.0,60.0,3.0,0.0
29170,34.0,24.0,15.0,9.0,0.0
29171,42.0,0.0,150.0,2.0,0.0
29172,49.0,0.0,330.0,7.0,0.0
29173,54.0,0.0,60.0,14.0,0.0
29174,34.0,8.0,15.0,9.0,0.0
29175,41.0,0.0,60.0,3.0,0.0
29176,56.0,0.0,60.0,14.0,0.0
29177,53.0,0.0,60.0,14.0,0.0
29178,53.0,32.0,60.0,3.0,0.0
29179,41.0,0.0,60.0,15.0,0.0
29180,44.0,0.0,60.0,15.0,0.0
29181,34.0,24.0,15.0,9.0,0.0
29182,56.0,0.0,60.0,3.0,0.0
29183,34.0,8.0,15.0,9.0,0.0
29184,54.0,0.0,60.0,14.0,0.0
29185,58.0,0.0,60.0,14.0,0.0
29186,34.0,16.0,30.0,9.0,0.0
29187,54.0,0.0,60.0,3.0,0.0
29188,42.0,0.0,60.0,3.0,0.0
29189,58.0,0.0,60.0,3.0,0.0
29190,42.0,0.0,60.0,15.0,0.0
29191,46.0,0.0,60.0,15.0,0.0
29192,44.0,16.0,60.0,3.0,0.0
29193,48.0,0.0,60.0,15.0,0.0
29194,44.0,0.0,60.0,15.0,0.0
29195,34.0,16.0,30.0,9.0,0.0
29196,56.0,0.0,60.0,14.0,0.0
29197,60.0,0.0,60.0,14.0,0.0
29198,60.0,0.0,60.0,3.0,0.0
29199,56.0,0.0,60.0,3.0,0.0
29200,34.0,24.0,15.0,9.0,0.0
29201,85.0,0.0,330.0,0.0,0.0
29202,85.0,16.0,150.0,11.0,0.0
29203,73.0,0.0,330.0,1.0,0.0
29204,61.0,0.0,60.0,3.0,0.0
29205,61.0,0.0,330.0,10.0,0.0
29206,46.0,0.0,60.0,15.0,0.0
29207,49.0,0.0,60.0,15.0,0.0
29208,58.0,0.0,60.0,3.0,0.0
29209,73.0,0.0,330.0,10.0,0.0
29210,46.0,16.0,60.0,3.0,0.0
29211,73.0,0.0,330.0,5.0,0.0
29212,61.0,0.0,60.0,14.0,0.0
29213,58.0,0.0,60.0,14.0,0.0
29214,61.0,0.0,330.0,4.0,0.0
29215,34.0,8.0,15.0,9.0,0.0
29216,44.0,0.0,60.0,15.0,0.0
29217,41.0,0.0,60.0,2.0,0.0
29218,60.0,0.0,60.0,3.0,0.0
29219,56.0,32.0,60.0,14.0,0.0
29220,60.0,0.0,60.0,14.0,0.0
29221,44.0,0.0,60.0,3.0,0.0
29222,65.0,0.0,60.0,13.0,0.0
29223,34.0,24.0,15.0,9.0,0.0
29224,48.0,0.0,60.0,15.0,0.0
29225,56.0,0.0,60.0,3.0,0.0
29226,34.0,8.0,15.0,9.0,0.0
29227,58.0,0.0,60.0,3.0,0.0
29228,34.0,16.0,30.0,9.0,0.0
29229,39.0,0.0,60.0,2.0,0.0
29230,42.0,0.0,60.0,15.0,0.0
29231,42.0,0.0,60.0,3.0,0.0
29232,58.0,0.0,60.0,14.0,0.0
29233,63.0,16.0,60.0,13.0,0.0
29234,54.0,0.0,60.0,3.0,0.0
29235,54.0,0.0,60.0,14.0,0.0
29236,46.0,0.0,60.0,15.0,0.0
29237,41.0,2.0,60.0,2.0,0.0
29238,53.0,0.0,60.0,3.0,0.0
29239,56.0,0.0,60.0,3.0,0.0
29240,65.0,0.0,60.0,13.0,0.0
29241,41.0,0.0,60.0,3.0,0.0
29242,41.0,0.0,60.0,15.0,0.0
29243,44.0,0.0,60.0,15.0,0.0
29244,53.0,0.0,60.0,14.0,0.0
29245,56.0,16.0,60.0,14.0,0.0
29246,34.0,14.0,30.0,9.0,0.0
29247,54.0,0.0,60.0,3.0,0.0
29248,42.0,0.0,60.0,3.0,0.0
29249,63.0,16.0,150.0,13.0,0.0
29250,45.0,0.0,60.0,15.0,0.0
29251,42.0,0.0,60.0,15.0,0.0
29252,57.0,0.0,60.0,3.0,0.0
29253,34.0,24.0,15.0,9.0,0.0
29254,54.0,16.0,60.0,14.0,0.0
29255,61.0,0.0,360.0,5.0,0.0
29256,49.0,0.0,360.0,7.0,0.0
29257,49.0,0.0,360.0,4.0,0.0
29258,39.0,0.0,150.0,2.0,0.0
29259,49.0,16.0,360.0,6.0,0.0
29260,57.0,0.0,60.0,14.0,0.0
29261,34.0,8.0,15.0,9.0,0.0
29262,47.0,0.0,60.0,15.0,0.0
29263,59.0,0.0,60.0,14.0,0.0
29264,34.0,24.0,15.0,9.0,0.0
29265,59.0,0.0,60.0,3.0,0.0
29266,47.0,32.0,60.0,3.0,0.0
29267,34.0,8.0,15.0,9.0,0.0
29268,57.0,0.0,60.0,3.0,0.0
29269,54.0,0.0,60.0,3.0,0.0
29270,54.0,0.0,60.0,14.0,0.0
29271,42.0,16.0,60.0,15.0,0.0
29272,57.0,0.0,60.0,14.0,0.0
29273,34.0,16.0,30.0,9.0,0.0
29274,42.0,0.0,60.0,3.0,0.0
29275,48.0,0.0,60.0,3.0,0.0
29276,34.0,16.0,30.0,9.0,0.0
29277,48.0,16.0,60.0,15.0,0.0
29278,60.0,0.0,60.0,14.0,0.0
29279,60.0,0.0,60.0,3.0,0.0
29280,37.0,0.0,150.0,3.0,0.0
29281,61.0,0.0,60.0,13.0,0.0
29282,61.0,0.0,330.0,4.0,0.0
29283,61.0,16.0,330.0,10.0,0.0
29284,73.0,0.0,330.0,10.0,0.0
29285,49.0,0.0,150.0,3.0,0.0
29286,34.0,24.0,15.0,9.0,0.0
29287,53.0,0.0,60.0,12.0,0.0
29288,37.0,0.0,150.0,14.0,0.0
29289,45.0,0.0,330.0,9.0,0.0
29290,61.0,18.0,60.0,11.0,0.0
29291,56.0,0.0,60.0,11.0,0.0
29292,25.0,0.0,150.0,15.0,0.0
29293,34.0,6.0,15.0,9.0,0.0
29294,49.0,0.0,60.0,13.0,0.0
29295,70.0,0.0,60.0,11.0,0.0
29296,34.0,24.0,15.0,9.0,0.0
29297,70.0,0.0,60.0,12.0,0.0
29298,37.0,0.0,60.0,2.0,0.0
29299,70.0,0.0,60.0,0.0,0.0
29300,61.0,32.0,60.0,2.0,0.0
29301,34.0,8.0,15.0,9.0,0.0
29302,71.0,0.0,60.0,11.0,0.0
29303,71.0,0.0,60.0,12.0,0.0
29304,34.0,16.0,30.0,9.0,0.0
29305,71.0,0.0,60.0,0.0,0.0
29306,63.0,16.0,60.0,2.0,0.0
29307,39.0,0.0,60.0,2.0,0.0
29308,51.0,0.0,60.0,13.0,0.0
29309,73.0,0.0,60.0,0.0,0.0
29310,61.0,0.0,60.0,2.0,0.0
29311,34.0,14.0,30.0,9.0,0.0
29312,37.0,2.0,60.0,2.0,0.0
29313,73.0,0.0,60.0,11.0,0.0
29314,73.0,16.0,60.0,12.0,0.0
29315,49.0,0.0,60.0,13.0,0.0
29316,61.0,0.0,150.0,6.0,0.0
29317,61.0,16.0,150.0,3.0,0.0
29318,39.0,0.0,150.0,2.0,0.0
29319,61.0,0.0,150.0,14.0,0.0
29320,51.0,0.0,150.0,13.0,0.0
29321,71.0,0.0,60.0,11.0,0.0
29322,34.0,24.0,15.0,9.0,0.0
29323,71.0,16.0,60.0,12.0,0.0
29324,49.0,0.0,330.0,7.0,0.0
29325,51.0,0.0,150.0,6.0,0.0
29326,49.0,0.0,330.0,6.0,0.0
29327,49.0,0.0,330.0,4.0,0.0
29328,71.0,0.0,60.0,0.0,0.0
29329,49.0,0.0,150.0,15.0,0.0
29330,63.0,0.0,150.0,2.0,0.0
29331,61.0,0.0,330.0,5.0,0.0
29332,34.0,8.0,15.0,9.0,0.0
29333,73.0,0.0,60.0,11.0,0.0
29334,73.0,32.0,60.0,0.0,0.0
29335,34.0,24.0,15.0,9.0,0.0
29336,73.0,0.0,60.0,12.0,0.0
29337,34.0,8.0,15.0,9.0,0.0
29338,34.0,16.0,30.0,9.0,0.0
29339,75.0,0.0,60.0,11.0,0.0
29340,75.0,0.0,60.0,12.0,0.0
29341,75.0,0.0,60.0,0.0,0.0
29342,77.0,16.0,60.0,12.0,0.0
29343,77.0,0.0,60.0,0.0,0.0
29344,77.0,0.0,60.0,11.0,0.0
29345,34.0,16.0,30.0,9.0,0.0
29346,34.0,24.0,15.0,9.0,0.0
29347,78.0,0.0,60.0,11.0,0.0
29348,61.0,0.0,330.0,10.0,0.0
29349,73.0,0.0,330.0,10.0,0.0
29350,37.0,16.0,150.0,3.0,0.0
29351,37.0,0.0,150.0,14.0,0.0
29352,78.0,16.0,60.0,0.0,0.0
29353,25.0,0.0,150.0,15.0,0.0
29354,25.0,0.0,150.0,3.0,0.0
29355,78.0,0.0,60.0,12.0,0.0
29356,34.0,8.0,15.0,9.0,0.0
29357,80.0,0.0,60.0,11.0,0.0
29358,80.0,32.0,60.0,12.0,0.0
29359,53.0,0.0,60.0,13.0,0.0
29360,80.0,0.0,60.0,0.0,0.0
29361,65.0,0.0,60.0,2.0,0.0
29362,34.0,24.0,15.0,9.0,0.0
29363,41.0,0.0,60.0,2.0,0.0
29364,34.0,8.0,15.0,9.0,0.0
29365,54.0,0.0,60.0,13.0,0.0
29366,82.0,0.0,60.0,12.0,0.0
29367,34.0,16.0,30.0,9.0,0.0
29368,42.0,0.0,60.0,2.0,0.0
29369,82.0,0.0,60.0,11.0,0.0
29370,82.0,0.0,60.0,0.0,0.0
29371,66.0,16.0,60.0,2.0,0.0
29372,83.0,0.0,60.0,0.0,0.0
29373,53.0,0.0,60.0,13.0,0.0
29374,41.0,2.0,60.0,2.0,0.0
29375,65.0,0.0,60.0,2.0,0.0
29376,80.0,0.0,60.0,12.0,0.0
29377,34.0,14.0,30.0,9.0,0.0
29378,83.0,0.0,60.0,11.0,0.0
29379,80.0,16.0,60.0,0.0,0.0
29380,61.0,16.0,150.0,14.0,0.0
29381,54.0,0.0,150.0,13.0,0.0
29382,82.0,0.0,60.0,11.0,0.0
29383,34.0,24.0,15.0,9.0,0.0
29384,61.0,0.0,150.0,3.0,0.0
29385,54.0,0.0,150.0,6.0,0.0
29386,66.0,0.0,150.0,2.0,0.0
29387,49.0,0.0,150.0,15.0,0.0
29388,78.0,16.0,60.0,12.0,0.0
29389,61.0,0.0,150.0,6.0,0.0
29390,82.0,0.0,60.0,0.0,0.0
29391,42.0,0.0,150.0,2.0,0.0
29392,49.0,0.0,360.0,4.0,0.0
29393,78.0,0.0,60.0,0.0,0.0
29394,34.0,8.0,15.0,9.0,0.0
29395,80.0,32.0,60.0,11.0,0.0
29396,34.0,24.0,15.0,9.0,0.0
29397,80.0,0.0,60.0,0.0,0.0
29398,77.0,0.0,60.0,0.0,0.0
29399,77.0,0.0,60.0,12.0,0.0
29400,34.0,8.0,15.0,9.0,0.0
29401,75.0,0.0,60.0,12.0,0.0
29402,34.0,16.0,30.0,9.0,0.0
29403,78.0,0.0,60.0,11.0,0.0
29404,78.0,0.0,60.0,0.0,0.0
29405,75.0,16.0,60.0,0.0,0.0
29406,73.0,0.0,60.0,12.0,0.0
29407,77.0,16.0,60.0,11.0,0.0
29408,34.0,16.0,30.0,9.0,0.0
29409,77.0,0.0,60.0,0.0,0.0
29410,73.0,0.0,60.0,0.0,0.0
29411,71.0,0.0,60.0,12.0,0.0
29412,37.0,0.0,150.0,3.0,0.0
29413,45.0,0.0,330.0,9.0,0.0
29414,25.0,0.0,150.0,15.0,0.0
29415,25.0,0.0,150.0,3.0,0.0
29416,37.0,16.0,150.0,14.0,0.0
29417,71.0,0.0,60.0,0.0,0.0
29418,34.0,24.0,15.0,9.0,0.0
29419,75.0,18.0,60.0,0.0,0.0
29420,61.0,16.0,330.0,10.0,0.0
29421,73.0,0.0,330.0,10.0,0.0
29422,75.0,0.0,60.0,11.0,0.0
29423,34.0,6.0,15.0,9.0,0.0
29424,59.0,0.0,60.0,12.0,0.0
29425,59.0,0.0,60.0,1.0,0.0
29426,39.0,0.0,60.0,2.0,0.0
29427,59.0,0.0,60.0,0.0,0.0
29428,63.0,0.0,60.0,2.0,0.0
29429,34.0,24.0,15.0,9.0,0.0
29430,51.0,0.0,60.0,13.0,0.0
29431,59.0,32.0,60.0,11.0,0.0
29432,34.0,8.0,15.0,9.0,0.0
29433,61.0,0.0,60.0,11.0,0.0
29434,65.0,16.0,60.0,2.0,0.0
29435,41.0,0.0,60.0,2.0,0.0
29436,53.0,0.0,60.0,13.0,0.0
29437,61.0,0.0,60.0,12.0,0.0
29438,61.0,0.0,60.0,1.0,0.0
29439,34.0,16.0,30.0,9.0,0.0
29440,61.0,0.0,60.0,0.0,0.0
29441,51.0,0.0,60.0,13.0,0.0
29442,63.0,16.0,60.0,1.0,0.0
29443,63.0,0.0,60.0,0.0,0.0
29444,63.0,0.0,60.0,11.0,0.0
29445,63.0,0.0,60.0,12.0,0.0
29446,63.0,0.0,60.0,2.0,0.0
29447,34.0,14.0,30.0,9.0,0.0
29448,39.0,2.0,60.0,2.0,0.0
29449,34.0,24.0,15.0,9.0,0.0
29450,53.0,16.0,150.0,13.0,0.0
29451,61.0,0.0,60.0,0.0,0.0
29452,61.0,0.0,150.0,14.0,0.0
29453,61.0,0.0,60.0,12.0,0.0
29454,49.0,0.0,330.0,4.0,0.0
29455,65.0,0.0,150.0,2.0,0.0
29456,53.0,0.0,150.0,6.0,0.0
29457,41.0,0.0,150.0,2.0,0.0
29458,49.0,0.0,150.0,15.0,0.0
29459,61.0,0.0,150.0,3.0,0.0
29460,61.0,0.0,60.0,1.0,0.0
29461,61.0,16.0,60.0,11.0,0.0
29462,61.0,0.0,150.0,6.0,0.0
29463,34.0,8.0,15.0,9.0,0.0
29464,63.0,32.0,60.0,0.0,0.0
29465,63.0,0.0,60.0,12.0,0.0
29466,34.0,24.0,15.0,9.0,0.0
29467,63.0,0.0,60.0,11.0,0.0
29468,63.0,0.0,60.0,1.0,0.0
29469,34.0,8.0,15.0,9.0,0.0
29470,65.0,0.0,60.0,12.0,0.0
29471,65.0,0.0,60.0,1.0,0.0
29472,65.0,0.0,60.0,0.0,0.0
29473,65.0,0.0,60.0,11.0,0.0
29474,34.0,16.0,30.0,9.0,0.0
29475,66.0,0.0,60.0,0.0,0.0
29476,66.0,16.0,60.0,12.0,0.0
29477,66.0,0.0,60.0,11.0,0.0
29478,34.0,16.0,30.0,9.0,0.0
29479,66.0,0.0,60.0,1.0,0.0
29480,68.0,0.0,60.0,1.0,0.0
29481,25.0,0.0,150.0,15.0,0.0
29482,25.0,16.0,150.0,3.0,0.0
29483,37.0,0.0,150.0,3.0,0.0
29484,68.0,16.0,60.0,11.0,0.0
29485,68.0,0.0,60.0,0.0,0.0
29486,61.0,0.0,330.0,10.0,0.0
29487,68.0,0.0,60.0,12.0,0.0
29488,73.0,0.0,330.0,10.0,0.0
29489,37.0,0.0,150.0,14.0,0.0
29490,34.0,24.0,15.0,9.0,0.0
29491,34.0,8.0,15.0,9.0,0.0
29492,34.0,24.0,15.0,9.0,0.0
29493,42.0,0.0,60.0,2.0,0.0
29494,70.0,32.0,60.0,11.0,0.0
29495,70.0,0.0,60.0,12.0,0.0
29496,70.0,0.0,60.0,1.0,0.0
29497,54.0,0.0,60.0,13.0,0.0
29498,70.0,0.0,60.0,0.0,0.0
29499,66.0,0.0,60.0,2.0,0.0
29500,34.0,8.0,15.0,9.0,0.0
29501,44.0,0.0,60.0,2.0,0.0
29502,34.0,16.0,30.0,9.0,0.0
29503,56.0,0.0,60.0,13.0,0.0
29504,71.0,0.0,60.0,0.0,0.0
29505,68.0,0.0,60.0,2.0,0.0
29506,71.0,0.0,60.0,12.0,0.0
29507,71.0,16.0,60.0,11.0,0.0
29508,71.0,0.0,60.0,1.0,0.0
29509,70.0,0.0,60.0,0.0,0.0
29510,73.0,0.0,60.0,0.0,0.0
29511,54.0,0.0,60.0,13.0,0.0
29512,42.0,0.0,60.0,2.0,0.0
29513,70.0,0.0,60.0,1.0,0.0
29514,70.0,0.0,60.0,12.0,0.0
29515,34.0,14.0,30.0,9.0,0.0
29516,66.0,2.0,60.0,2.0,0.0
29517,73.0,0.0,60.0,11.0,0.0
29518,73.0,16.0,60.0,1.0,0.0
29519,71.0,0.0,60.0,11.0,0.0
29520,56.0,0.0,150.0,6.0,0.0
29521,68.0,16.0,150.0,2.0,0.0
29522,61.0,0.0,150.0,14.0,0.0
29523,61.0,0.0,150.0,6.0,0.0
29524,49.0,0.0,150.0,15.0,0.0
29525,61.0,0.0,150.0,3.0,0.0
29526,68.0,0.0,60.0,0.0,0.0
29527,56.0,0.0,150.0,13.0,0.0
29528,34.0,24.0,15.0,9.0,0.0
29529,71.0,0.0,60.0,0.0,0.0
29530,68.0,0.0,60.0,12.0,0.0
29531,44.0,0.0,150.0,2.0,0.0
29532,71.0,16.0,60.0,1.0,0.0
29533,49.0,0.0,360.0,4.0,0.0
29534,68.0,0.0,60.0,1.0,0.0
29535,34.0,8.0,15.0,9.0,0.0
29536,70.0,0.0,60.0,11.0,0.0
29537,70.0,0.0,60.0,0.0,0.0
29538,66.0,0.0,60.0,1.0,0.0
29539,66.0,32.0,60.0,12.0,0.0
29540,70.0,0.0,60.0,1.0,0.0
29541,34.0,24.0,15.0,9.0,0.0
29542,66.0,0.0,60.0,0.0,0.0
29543,34.0,8.0,15.0,9.0,0.0
29544,68.0,0.0,60.0,11.0,0.0
29545,68.0,0.0,60.0,0.0,0.0
29546,65.0,0.0,60.0,0.0,0.0
29547,65.0,0.0,60.0,1.0,0.0
29548,65.0,16.0,60.0,12.0,0.0
29549,68.0,0.0,60.0,1.0,0.0
29550,34.0,16.0,30.0,9.0,0.0
29551,63.0,0.0,60.0,1.0,0.0
29552,63.0,0.0,60.0,12.0,0.0
29553,63.0,0.0,60.0,0.0,0.0
29554,66.0,0.0,60.0,11.0,0.0
29555,34.0,16.0,30.0,9.0,0.0
29556,66.0,16.0,60.0,1.0,0.0
29557,66.0,0.0,60.0,0.0,0.0
29558,37.0,0.0,150.0,3.0,0.0
29559,34.0,24.0,15.0,9.0,0.0
29560,25.0,0.0,150.0,15.0,0.0
29561,65.0,0.0,60.0,0.0,0.0
29562,61.0,0.0,60.0,0.0,0.0
29563,73.0,0.0,330.0,10.0,0.0
29564,61.0,0.0,330.0,10.0,0.0
29565,65.0,18.0,60.0,11.0,0.0
29566,61.0,0.0,60.0,12.0,0.0
29567,45.0,0.0,330.0,9.0,0.0
29568,61.0,0.0,60.0,1.0,0.0
29569,65.0,0.0,60.0,1.0,0.0
29570,37.0,0.0,150.0,14.0,0.0
29571,25.0,16.0,150.0,3.0,0.0
29572,34.0,6.0,15.0,9.0,0.0
29573,65.0,0.0,60.0,2.0,0.0
29574,73.0,0.0,60.0,0.0,0.0
29575,61.0,0.0,60.0,1.0,0.0
29576,34.0,24.0,15.0,9.0,0.0
29577,73.0,0.0,60.0,11.0,0.0
29578,41.0,0.0,60.0,2.0,0.0
29579,53.0,32.0,60.0,13.0,0.0
29580,73.0,0.0,60.0,12.0,0.0
29581,34.0,8.0,15.0,9.0,0.0
29582,75.0,16.0,60.0,12.0,0.0
29583,75.0,0.0,60.0,11.0,0.0
29584,63.0,0.0,60.0,1.0,0.0
29585,75.0,0.0,60.0,0.0,0.0
29586,34.0,16.0,30.0,9.0,0.0
29587,66.0,0.0,60.0,2.0,0.0
29588,54.0,0.0,60.0,13.0,0.0
29589,42.0,0.0,60.0,2.0,0.0
29590,34.0,14.0,30.0,9.0,0.0
29591,53.0,0.0,60.0,13.0,0.0
29592,41.0,0.0,60.0,2.0,0.0
29593,77.0,0.0,60.0,0.0,0.0
29594,65.0,0.0,60.0,1.0,0.0
29595,77.0,0.0,60.0,12.0,0.0
29596,65.0,2.0,60.0,2.0,0.0
29597,77.0,16.0,60.0,11.0,0.0
29598,49.0,0.0,150.0,15.0,0.0
29599,75.0,0.0,60.0,12.0,0.0
29600,66.0,0.0,150.0,2.0,0.0
29601,63.0,0.0,60.0,1.0,0.0
29602,54.0,0.0,150.0,13.0,0.0
29603,34.0,24.0,15.0,9.0,0.0
29604,75.0,0.0,60.0,11.0,0.0
29605,49.0,0.0,330.0,4.0,0.0
29606,61.0,0.0,150.0,3.0,0.0
29607,54.0,0.0,150.0,6.0,0.0
29608,61.0,0.0,150.0,6.0,0.0
29609,42.0,16.0,150.0,2.0,0.0
29610,61.0,0.0,150.0,14.0,0.0
29611,75.0,16.0,60.0,0.0,0.0
29612,34.0,8.0,15.0,9.0,0.0
29613,77.0,0.0,60.0,12.0,0.0
29614,65.0,32.0,60.0,1.0,0.0
29615,77.0,0.0,60.0,11.0,0.0
29616,77.0,0.0,60.0,0.0,0.0
29617,34.0,24.0,15.0,9.0,0.0
29618,34.0,8.0,15.0,9.0,0.0
29619,66.0,16.0,60.0,1.0,0.0
29620,78.0,0.0,60.0,12.0,0.0
29621,34.0,16.0,30.0,9.0,0.0
29622,78.0,0.0,60.0,0.0,0.0
29623,78.0,0.0,60.0,11.0,0.0
29624,80.0,0.0,60.0,12.0,0.0
29625,80.0,0.0,60.0,0.0,0.0
29626,80.0,16.0,60.0,11.0,0.0
29627,68.0,0.0,60.0,1.0,0.0
29628,34.0,16.0,30.0,9.0,0.0
29629,37.0,16.0,150.0,3.0,0.0
29630,25.0,0.0,150.0,15.0,0.0
29631,70.0,0.0,60.0,1.0,0.0
29632,82.0,0.0,60.0,12.0,0.0
29633,82.0,0.0,60.0,0.0,0.0
29634,82.0,16.0,60.0,11.0,0.0
29635,34.0,24.0,15.0,9.0,0.0
29636,25.0,0.0,150.0,3.0,0.0
29637,37.0,0.0,150.0,14.0,0.0
29638,73.0,0.0,330.0,10.0,0.0
29639,61.0,0.0,330.0,10.0,0.0
29640,34.0,8.0,15.0,9.0,0.0
29641,68.0,0.0,60.0,2.0,0.0
29642,44.0,0.0,60.0,2.0,0.0
29643,56.0,32.0,60.0,13.0,0.0
29644,83.0,0.0,60.0,12.0,0.0
29645,71.0,0.0,60.0,1.0,0.0
29646,83.0,0.0,60.0,0.0,0.0
29647,83.0,0.0,60.0,11.0,0.0
29648,34.0,24.0,15.0,9.0,0.0
29649,34.0,8.0,15.0,9.0,0.0
29650,85.0,0.0,60.0,12.0,0.0
29651,46.0,0.0,60.0,2.0,0.0
29652,73.0,0.0,60.0,1.0,0.0
29653,85.0,0.0,60.0,11.0,0.0
29654,34.0,16.0,30.0,9.0,0.0
29655,58.0,0.0,60.0,13.0,0.0
29656,85.0,0.0,60.0,0.0,0.0
29657,70.0,0.0,60.0,2.0,0.0
29658,75.0,0.0,60.0,1.0,0.0
29659,83.0,0.0,60.0,12.0,0.0
29660,87.0,0.0,60.0,11.0,0.0
29661,44.0,0.0,60.0,2.0,0.0
29662,71.0,0.0,60.0,1.0,0.0
29663,68.0,2.0,60.0,2.0,0.0
29664,56.0,0.0,60.0,13.0,0.0
29665,34.0,14.0,30.0,9.0,0.0
29666,83.0,16.0,60.0,0.0,0.0
29667,87.0,0.0,60.0,0.0,0.0
29668,73.0,0.0,60.0,1.0,0.0
29669,58.0,0.0,150.0,13.0,0.0
29670,82.0,0.0,60.0,12.0,0.0
29671,61.0,0.0,150.0,14.0,0.0
29672,49.0,0.0,540.0,4.0,0.0
29673,70.0,0.0,150.0,2.0,0.0
29674,85.0,0.0,60.0,11.0,0.0
29675,70.0,16.0,60.0,1.0,0.0
29676,46.0,0.0,150.0,2.0,0.0
29677,61.0,0.0,150.0,3.0,0.0
29678,82.0,0.0,60.0,0.0,0.0
29679,85.0,0.0,60.0,0.0,0.0
29680,49.0,0.0,150.0,15.0,0.0
29681,61.0,0.0,150.0,6.0,0.0
29682,58.0,24.0,150.0,6.0,0.0
29683,34.0,24.0,15.0,9.0,0.0
29684,34.0,8.0,15.0,9.0,0.0
29685,68.0,0.0,60.0,1.0,0.0
29686,80.0,0.0,60.0,0.0,0.0
29687,83.0,0.0,60.0,0.0,0.0
29688,71.0,16.0,60.0,1.0,0.0
29689,80.0,0.0,60.0,12.0,0.0
29690,83.0,0.0,60.0,11.0,0.0
29691,34.0,24.0,15.0,9.0,0.0
29692,34.0,8.0,15.0,9.0,0.0
29693,82.0,16.0,60.0,11.0,0.0
29694,78.0,0.0,60.0,12.0,0.0
29695,78.0,0.0,60.0,0.0,0.0
29696,34.0,24.0,15.0,9.0,0.0
29697,66.0,0.0,60.0,1.0,0.0
29698,70.0,0.0,60.0,1.0,0.0
29699,82.0,0.0,60.0,0.0,0.0
29700,34.0,8.0,15.0,9.0,0.0
29701,80.0,0.0,60.0,0.0,0.0
29702,76.0,0.0,60.0,0.0,0.0
29703,64.0,0.0,60.0,1.0,0.0
29704,34.0,0.0,15.0,9.0,0.0
29705,76.0,2.0,60.0,12.0,0.0
29706,80.0,16.0,60.0,11.0,0.0
29707,68.0,0.0,60.0,1.0,0.0
29708,34.0,6.0,15.0,9.0,0.0
29709,45.0,16.0,330.0,9.0,0.0
29710,25.0,24.0,150.0,15.0,0.0
29711,67.0,0.0,60.0,1.0,0.0
29712,79.0,0.0,60.0,11.0,0.0
29713,34.0,24.0,15.0,9.0,0.0
29714,63.0,0.0,60.0,1.0,0.0
29715,73.0,0.0,330.0,10.0,0.0
29716,61.0,0.0,330.0,10.0,0.0
29717,75.0,18.0,60.0,12.0,0.0
29718,37.0,0.0,150.0,14.0,0.0
29719,75.0,0.0,60.0,0.0,0.0
29720,37.0,0.0,150.0,3.0,0.0
29721,79.0,0.0,60.0,0.0,0.0
29722,25.0,0.0,150.0,3.0,0.0
29723,34.0,6.0,15.0,9.0,0.0
29724,34.0,24.0,15.0,9.0,0.0
29725,55.0,0.0,60.0,13.0,0.0
29726,67.0,0.0,60.0,2.0,0.0
29727,73.0,0.0,60.0,1.0,0.0
29728,76.0,0.0,60.0,1.0,0.0
29729,85.0,2.0,60.0,12.0,0.0
29730,88.0,0.0,60.0,0.0,0.0
29731,43.0,0.0,60.0,2.0,0.0
29732,85.0,16.0,60.0,0.0,0.0
29733,88.0,0.0,60.0,11.0,0.0
29734,34.0,6.0,15.0,9.0,0.0
29735,44.0,0.0,60.0,2.0,0.0
29736,56.0,0.0,60.0,13.0,0.0
29737,83.0,2.0,60.0,12.0,0.0
29738,71.0,16.0,60.0,1.0,0.0
29739,68.0,0.0,60.0,2.0,0.0
29740,87.0,0.0,60.0,11.0,0.0
29741,34.0,24.0,15.0,9.0,0.0
29742,87.0,0.0,60.0,0.0,0.0
29743,83.0,0.0,60.0,0.0,0.0
29744,75.0,0.0,60.0,1.0,0.0
29745,34.0,6.0,15.0,9.0,0.0
29746,85.0,0.0,60.0,11.0,0.0
29747,55.0,0.0,60.0,13.0,0.0
29748,82.0,16.0,60.0,0.0,0.0
29749,82.0,0.0,60.0,12.0,0.0
29750,85.0,0.0,60.0,0.0,0.0
29751,43.0,0.0,60.0,2.0,0.0
29752,73.0,0.0,60.0,1.0,0.0
29753,70.0,0.0,60.0,1.0,0.0
29754,67.0,2.0,60.0,2.0,0.0
29755,34.0,0.0,15.0,9.0,0.0
29756,34.0,6.0,15.0,9.0,0.0
29757,61.0,0.0,150.0,14.0,0.0
29758,68.0,0.0,60.0,1.0,0.0
29759,80.0,2.0,60.0,12.0,0.0
29760,44.0,0.0,150.0,2.0,0.0
29761,71.0,0.0,60.0,1.0,0.0
29762,68.0,0.0,150.0,2.0,0.0
29763,80.0,0.0,60.0,0.0,0.0
29764,83.0,0.0,60.0,0.0,0.0
29765,34.0,24.0,15.0,9.0,0.0
29766,56.0,24.0,150.0,6.0,0.0
29767,61.0,0.0,150.0,6.0,0.0
29768,61.0,0.0,150.0,3.0,0.0
29769,49.0,0.0,150.0,15.0,0.0
29770,56.0,0.0,150.0,13.0,0.0
29771,83.0,16.0,60.0,11.0,0.0
29772,34.0,6.0,15.0,9.0,0.0
29773,82.0,0.0,60.0,0.0,0.0
29774,79.0,0.0,60.0,0.0,0.0
29775,34.0,24.0,15.0,9.0,0.0
29776,70.0,0.0,60.0,1.0,0.0
29777,67.0,0.0,60.0,1.0,0.0
29778,82.0,16.0,60.0,11.0,0.0
29779,78.0,2.0,60.0,12.0,0.0
29780,34.0,6.0,15.0,9.0,0.0
29781,64.0,0.0,60.0,1.0,0.0
29782,68.0,0.0,60.0,1.0,0.0
29783,80.0,0.0,60.0,11.0,0.0
29784,76.0,2.0,60.0,12.0,0.0
29785,80.0,0.0,60.0,0.0,0.0
29786,34.0,24.0,15.0,9.0,0.0
29787,76.0,0.0,60.0,0.0,0.0
29788,34.0,6.0,15.0,9.0,0.0
29789,79.0,16.0,60.0,11.0,0.0
29790,75.0,0.0,60.0,0.0,0.0
29791,34.0,0.0,15.0,9.0,0.0
29792,75.0,2.0,60.0,12.0,0.0
29793,63.0,0.0,60.0,1.0,0.0
29794,79.0,0.0,60.0,0.0,0.0
29795,67.0,0.0,60.0,1.0,0.0
29796,34.0,6.0,15.0,9.0,0.0
29797,73.0,0.0,60.0,0.0,0.0
29798,76.0,16.0,60.0,1.0,0.0
29799,73.0,0.0,60.0,1.0,0.0
29800,25.0,0.0,150.0,3.0,0.0
29801,37.0,0.0,150.0,3.0,0.0
29802,73.0,2.0,60.0,12.0,0.0
29803,76.0,0.0,60.0,0.0,0.0
29804,34.0,24.0,15.0,9.0,0.0
29805,25.0,24.0,150.0,15.0,0.0
29806,45.0,0.0,150.0,9.0,0.0
29807,61.0,0.0,330.0,10.0,0.0
29808,73.0,0.0,330.0,10.0,0.0
29809,76.0,0.0,60.0,11.0,0.0
29810,37.0,0.0,150.0,14.0,0.0
29811,34.0,6.0,15.0,9.0,0.0
29812,75.0,0.0,60.0,11.0,0.0
29813,71.0,0.0,60.0,1.0,0.0
29814,46.0,0.0,60.0,2.0,0.0
29815,71.0,2.0,60.0,12.0,0.0
29816,58.0,0.0,60.0,13.0,0.0
29817,71.0,0.0,60.0,0.0,0.0
29818,75.0,0.0,60.0,0.0,0.0
29819,34.0,24.0,15.0,9.0,0.0
29820,70.0,16.0,60.0,2.0,0.0
29821,75.0,0.0,60.0,1.0,0.0
29822,34.0,6.0,15.0,9.0,0.0
29823,70.0,0.0,60.0,1.0,0.0
29824,73.0,0.0,60.0,1.0,0.0
29825,73.0,0.0,60.0,11.0,0.0
29826,34.0,24.0,15.0,9.0,0.0
29827,59.0,0.0,60.0,13.0,0.0
29828,47.0,0.0,60.0,2.0,0.0
29829,70.0,0.0,60.0,0.0,0.0
29830,73.0,16.0,60.0,0.0,0.0
29831,70.0,2.0,60.0,12.0,0.0
29832,71.0,0.0,60.0,2.0,0.0
29833,34.0,6.0,15.0,9.0,0.0
29834,58.0,0.0,60.0,13.0,0.0
29835,71.0,0.0,60.0,11.0,0.0
29836,46.0,2.0,60.0,2.0,0.0
29837,68.0,16.0,60.0,1.0,0.0
29838,71.0,0.0,60.0,1.0,0.0
29839,70.0,0.0,60.0,2.0,0.0
29840,68.0,0.0,60.0,0.0,0.0
29841,68.0,0.0,60.0,12.0,0.0
29842,71.0,0.0,60.0,0.0,0.0
29843,34.0,0.0,15.0,9.0,0.0
29844,34.0,6.0,15.0,9.0,0.0
29845,69.0,0.0,60.0,0.0,0.0
29846,37.0,0.0,90.0,15.0,0.0
29847,34.0,24.0,15.0,9.0,0.0
29848,69.0,0.0,60.0,11.0,0.0
29849,59.0,0.0,90.0,13.0,0.0
29850,66.0,0.0,60.0,1.0,0.0
29851,69.0,0.0,60.0,1.0,0.0
29852,66.0,16.0,60.0,0.0,0.0
29853,59.0,2.0,90.0,4.0,0.0
29854,71.0,0.0,90.0,2.0,0.0
29855,49.0,0.0,90.0,14.0,0.0
29856,59.0,0.0,90.0,6.0,0.0
29857,66.0,2.0,60.0,12.0,0.0
29858,49.0,0.0,90.0,4.0,0.0
29859,25.0,0.0,90.0,3.0,0.0
29860,47.0,0.0,90.0,2.0,0.0
29861,45.0,0.0,150.0,9.0,0.0
29862,49.0,0.0,90.0,3.0,0.0
29863,49.0,0.0,90.0,6.0,0.0
29864,34.0,6.0,15.0,9.0,0.0
29865,65.0,0.0,60.0,1.0,0.0
29866,65.0,0.0,60.0,12.0,0.0
29867,68.0,0.0,60.0,1.0,0.0
29868,68.0,0.0,60.0,0.0,0.0
29869,34.0,24.0,15.0,9.0,0.0
29870,68.0,16.0,60.0,11.0,0.0
29871,65.0,0.0,60.0,0.0,0.0
29872,34.0,6.0,15.0,9.0,0.0
29873,60.0,0.0,90.0,6.0,0.0
29874,49.0,0.0,90.0,4.0,0.0
29875,25.0,0.0,90.0,3.0,0.0
29876,37.0,0.0,90.0,15.0,0.0
29877,60.0,0.0,90.0,13.0,0.0
29878,49.0,0.0,90.0,3.0,0.0
29879,49.0,0.0,90.0,6.0,0.0
29880,66.0,2.0,60.0,12.0,0.0
29881,69.0,16.0,60.0,1.0,0.0
29882,66.0,0.0,60.0,1.0,0.0
29883,49.0,2.0,90.0,14.0,0.0
29884,48.0,0.0,90.0,2.0,0.0
29885,34.0,24.0,15.0,9.0,0.0
29886,69.0,0.0,60.0,0.0,0.0
29887,66.0,0.0,60.0,0.0,0.0
29888,69.0,0.0,60.0,11.0,0.0
29889,72.0,0.0,90.0,2.0,0.0
29890,60.0,0.0,90.0,4.0,0.0
29891,34.0,6.0,15.0,9.0,0.0
29892,66.0,0.0,60.0,11.0,0.0
29893,63.0,0.0,60.0,0.0,0.0
29894,66.0,0.0,60.0,0.0,0.0
29895,34.0,24.0,15.0,9.0,0.0
29896,63.0,46.0,60.0,1.0,0.0
29897,66.0,0.0,60.0,1.0,0.0
29898,63.0,0.0,60.0,12.0,0.0
29899,34.0,6.0,15.0,9.0,0.0
29900,61.0,0.0,330.0,10.0,0.0
29901,73.0,0.0,330.0,10.0,0.0
29902,49.0,2.0,90.0,2.0,0.0
29903,45.0,16.0,330.0,9.0,0.0
29904,25.0,30.0,150.0,15.0,0.0
29905,37.0,0.0,150.0,15.0,0.0
29906,73.0,0.0,90.0,2.0,0.0
29907,34.0,46.0,60.0,9.0,0.0
29908,49.0,0.0,90.0,6.0,0.0
29909,65.0,2.0,60.0,1.0,0.0
29910,68.0,0.0,60.0,11.0,0.0
29911,49.0,0.0,150.0,4.0,0.0
29912,73.0,0.0,60.0,11.0,0.0
29913,61.0,0.0,60.0,13.0,0.0
29914,68.0,0.0,60.0,12.0,0.0
29915,73.0,0.0,60.0,0.0,0.0
29916,65.0,0.0,60.0,12.0,0.0
29917,61.0,0.0,60.0,0.0,0.0
29918,61.0,0.0,150.0,4.0,0.0
29919,68.0,0.0,60.0,1.0,0.0
29920,25.0,0.0,150.0,3.0,0.0
29921,37.0,0.0,150.0,3.0,0.0
29922,49.0,0.0,150.0,3.0,0.0
29923,61.0,0.0,90.0,6.0,0.0
29924,77.0,0.0,60.0,12.0,0.0
29925,77.0,46.0,60.0,11.0,0.0
29926,49.0,0.0,60.0,14.0,0.0
29927,47.0,16.0,60.0,14.0,0.0
29928,75.0,2.0,60.0,12.0,0.0
29929,75.0,0.0,60.0,11.0,0.0
29930,73.0,2.0,60.0,12.0,0.0
29931,73.0,46.0,60.0,11.0,0.0
29932,49.0,0.0,60.0,14.0,0.0
29933,49.0,0.0,150.0,3.0,0.0
29934,37.0,0.0,150.0,15.0,0.0
29935,25.0,0.0,150.0,3.0,0.0
29936,75.0,0.0,60.0,12.0,0.0
29937,47.0,30.0,150.0,13.0,0.0
29938,47.0,2.0,60.0,14.0,0.0
29939,75.0,46.0,60.0,11.0,0.0
29940,73.0,2.0,60.0,12.0,0.0
29941,49.0,46.0,60.0,14.0,0.0
29942,73.0,0.0,60.0,11.0,0.0
29943,71.0,2.0,60.0,12.0,0.0
29944,71.0,0.0,60.0,11.0,0.0
29945,51.0,0.0,60.0,14.0,0.0
29946,49.0,0.0,60.0,14.0,0.0
29947,70.0,46.0,60.0,11.0,0.0
29948,70.0,2.0,60.0,12.0,0.0
29949,68.0,46.0,60.0,11.0,0.0
29950,61.0,30.0,150.0,13.0,0.0
29951,51.0,2.0,60.0,14.0,0.0
29952,68.0,0.0,60.0,12.0,0.0
29953,66.0,2.0,60.0,12.0,0.0
29954,66.0,0.0,60.0,11.0,0.0
29955,46.0,46.0,60.0,14.0,0.0
29956,44.0,16.0,60.0,14.0,0.0
29957,65.0,2.0,60.0,12.0,0.0
29958,65.0,0.0,60.0,11.0,0.0
29959,66.0,0.0,60.0,11.0,0.0
29960,66.0,2.0,60.0,12.0,0.0
29961,46.0,46.0,60.0,14.0,0.0
29962,65.0,46.0,60.0,11.0,0.0
29963,37.0,0.0,150.0,15.0,0.0
29964,44.0,0.0,150.0,13.0,0.0
29965,44.0,2.0,60.0,14.0,0.0
29966,65.0,0.0,60.0,12.0,0.0
29967,49.0,0.0,150.0,3.0,0.0
29968,25.0,32.0,150.0,3.0,0.0
29969,53.0,0.0,60.0,14.0,0.0
29970,63.0,46.0,60.0,11.0,0.0
29971,63.0,2.0,60.0,12.0,0.0
29972,61.0,2.0,60.0,11.0,0.0
29973,54.0,16.0,60.0,14.0,0.0
29974,61.0,0.0,60.0,12.0,0.0
29975,53.0,94.0,60.0,14.0,0.0
29976,61.0,0.0,150.0,3.0,0.0
29977,61.0,30.0,150.0,14.0,0.0
29978,54.0,0.0,150.0,14.0,0.0
29979,49.0,0.0,150.0,15.0,0.0
29980,75.0,2.0,60.0,12.0,0.0
29981,47.0,0.0,60.0,13.0,0.0
29982,75.0,46.0,60.0,11.0,0.0
29983,73.0,2.0,60.0,12.0,0.0
29984,73.0,0.0,60.0,11.0,0.0
29985,46.0,16.0,60.0,13.0,0.0
29986,71.0,46.0,60.0,11.0,0.0
29987,71.0,2.0,60.0,12.0,0.0
29988,47.0,0.0,60.0,13.0,0.0
29989,25.0,30.0,150.0,3.0,0.0
29990,73.0,2.0,60.0,12.0,0.0
29991,37.0,0.0,150.0,15.0,0.0
29992,46.0,0.0,60.0,13.0,0.0
29993,73.0,46.0,60.0,11.0,0.0
29994,46.0,0.0,150.0,14.0,0.0
29995,49.0,0.0,150.0,3.0,0.0
29996,51.0,0.0,60.0,13.0,0.0
29997,71.0,2.0,60.0,12.0,0.0
29998,71.0,46.0,60.0,11.0,0.0
29999,53.0,0.0,60.0,13.0,0.0
30000,70.0,2.0,60.0,12.0,0.0
30001,70.0,16.0,60.0,11.0,0.0
30002,68.0,2.0,60.0,12.0,0.0
30003,68.0,46.0,60.0,11.0,0.0
30004,51.0,0.0,60.0,13.0,0.0
30005,49.0,0.0,150.0,15.0,0.0
30006,66.0,2.0,60.0,12.0,0.0
30007,53.0,30.0,150.0,13.0,0.0
30008,61.0,0.0,150.0,3.0,0.0
30009,66.0,46.0,60.0,11.0,0.0
30010,65.0,2.0,60.0,12.0,0.0
30011,65.0,0.0,60.0,11.0,0.0
30012,44.0,46.0,60.0,14.0,0.0
30013,63.0,16.0,60.0,11.0,0.0
30014,42.0,0.0,60.0,14.0,0.0
30015,63.0,2.0,60.0,12.0,0.0
30016,65.0,0.0,60.0,11.0,0.0
30017,44.0,46.0,60.0,14.0,0.0
30018,65.0,2.0,60.0,12.0,0.0
30019,63.0,2.0,60.0,12.0,0.0
30020,49.0,0.0,150.0,3.0,0.0
30021,37.0,0.0,150.0,15.0,0.0
30022,63.0,46.0,60.0,11.0,0.0
30023,42.0,32.0,150.0,14.0,0.0
30024,25.0,0.0,150.0,3.0,0.0
30025,54.0,0.0,60.0,13.0,0.0
30026,61.0,2.0,60.0,12.0,0.0
30027,61.0,46.0,60.0,11.0,0.0
30028,60.0,0.0,60.0,12.0,0.0
30029,56.0,16.0,60.0,13.0,0.0
30030,60.0,2.0,60.0,11.0,0.0
30031,54.0,96.0,60.0,13.0,0.0
30032,49.0,0.0,150.0,15.0,0.0
30033,56.0,32.0,150.0,13.0,0.0
30034,61.0,0.0,150.0,13.0,0.0
30035,73.0,0.0,60.0,11.0,0.0
30036,46.0,0.0,60.0,14.0,0.0
30037,73.0,48.0,60.0,12.0,0.0
30038,72.0,16.0,60.0,11.0,0.0
30039,44.0,0.0,60.0,14.0,0.0
30040,72.0,0.0,60.0,12.0,0.0
30041,46.0,0.0,60.0,14.0,0.0
30042,70.0,48.0,60.0,12.0,0.0
30043,70.0,0.0,60.0,11.0,0.0
30044,72.0,48.0,60.0,11.0,0.0
30045,37.0,30.0,150.0,15.0,0.0
30046,72.0,0.0,60.0,12.0,0.0
30047,44.0,0.0,150.0,14.0,0.0
30048,70.0,0.0,60.0,12.0,0.0
30049,70.0,0.0,60.0,11.0,0.0
30050,54.0,48.0,60.0,13.0,0.0
30051,68.0,16.0,60.0,12.0,0.0
30052,68.0,0.0,60.0,11.0,0.0
30053,53.0,0.0,60.0,13.0,0.0
30054,66.0,48.0,60.0,12.0,0.0
30055,54.0,0.0,60.0,13.0,0.0
30056,66.0,0.0,60.0,11.0,0.0
30057,53.0,2.0,60.0,13.0,0.0
30058,53.0,30.0,150.0,14.0,0.0
30059,65.0,0.0,60.0,12.0,0.0
30060,68.0,48.0,60.0,11.0,0.0
30061,49.0,0.0,150.0,15.0,0.0
30062,63.0,48.0,60.0,13.0,0.0
30063,66.0,0.0,60.0,11.0,0.0
30064,63.0,0.0,60.0,12.0,0.0
30065,61.0,0.0,60.0,13.0,0.0
30066,65.0,16.0,60.0,11.0,0.0
30067,61.0,0.0,60.0,12.0,0.0
30068,63.0,0.0,60.0,13.0,0.0
30069,63.0,50.0,60.0,12.0,0.0
30070,63.0,0.0,60.0,11.0,0.0
30071,61.0,30.0,150.0,13.0,0.0
30072,65.0,48.0,60.0,11.0,0.0
30073,61.0,0.0,60.0,12.0,0.0
30074,59.0,48.0,60.0,12.0,0.0
30075,63.0,0.0,60.0,11.0,0.0
30076,58.0,16.0,60.0,12.0,0.0
30077,61.0,0.0,60.0,11.0,0.0
30078,59.0,50.0,60.0,11.0,0.0
30079,56.0,0.0,60.0,12.0,0.0
30080,64.0,0.0,240.0,13.0,0.0
30081,58.0,48.0,60.0,11.0,0.0
30082,64.0,0.0,240.0,4.0,0.0
30083,61.0,0.0,240.0,14.0,0.0
30084,61.0,2.0,240.0,4.0,0.0
30085,54.0,0.0,60.0,12.0,0.0
30086,56.0,0.0,60.0,11.0,0.0
30087,53.0,48.0,60.0,12.0,0.0
30088,58.0,0.0,60.0,11.0,0.0
30089,54.0,48.0,60.0,12.0,0.0
30090,56.0,46.0,60.0,12.0,0.0
30091,59.0,0.0,60.0,11.0,0.0
30092,58.0,46.0,60.0,12.0,0.0
30093,61.0,0.0,60.0,11.0,0.0
30094,63.0,0.0,60.0,11.0,0.0
30095,59.0,2.0,60.0,4.0,0.0
30096,63.0,0.0,60.0,4.0,0.0
30097,63.0,0.0,60.0,13.0,0.0
30098,59.0,0.0,60.0,14.0,0.0
30099,59.0,46.0,60.0,12.0,0.0
30100,61.0,46.0,60.0,12.0,0.0
30101,61.0,0.0,60.0,4.0,0.0
30102,58.0,0.0,60.0,14.0,0.0
30103,61.0,2.0,60.0,13.0,0.0
30104,58.0,0.0,60.0,4.0,0.0
30105,64.0,0.0,60.0,11.0,0.0
30106,56.0,0.0,60.0,4.0,0.0
30107,66.0,46.0,60.0,11.0,0.0
30108,63.0,0.0,60.0,12.0,0.0
30109,59.0,2.0,60.0,13.0,0.0
30110,56.0,0.0,60.0,14.0,0.0
30111,59.0,0.0,60.0,4.0,0.0
30112,54.0,2.0,60.0,14.0,0.0
30113,58.0,0.0,60.0,13.0,0.0
30114,58.0,0.0,60.0,4.0,0.0
30115,64.0,0.0,60.0,12.0,0.0
30116,68.0,46.0,60.0,11.0,0.0
30117,54.0,0.0,60.0,4.0,0.0
30118,70.0,46.0,60.0,11.0,0.0
30119,56.0,2.0,60.0,4.0,0.0
30120,56.0,0.0,60.0,13.0,0.0
30121,52.0,0.0,60.0,4.0,0.0
30122,52.0,0.0,60.0,14.0,0.0
30123,66.0,0.0,60.0,12.0,0.0
30124,51.0,0.0,60.0,14.0,0.0
30125,68.0,0.0,60.0,12.0,0.0
30126,54.0,0.0,60.0,4.0,0.0
30127,71.0,46.0,60.0,11.0,0.0
30128,51.0,2.0,60.0,4.0,0.0
30129,54.0,0.0,60.0,13.0,0.0
30130,52.0,0.0,60.0,13.0,0.0
30131,49.0,0.0,60.0,14.0,0.0
30132,70.0,162.0,60.0,12.0,0.0
30133,52.0,0.0,60.0,4.0,0.0
30134,73.0,0.0,60.0,11.0,0.0
30135,49.0,0.0,60.0,4.0,0.0
30136,75.0,0.0,150.0,11.0,0.0
30137,47.0,0.0,150.0,14.0,0.0
30138,63.0,0.0,150.0,13.0,0.0
30139,47.0,0.0,150.0,4.0,0.0
30140,51.0,0.0,150.0,4.0,0.0
30141,71.0,384.0,150.0,12.0,0.0
30142,51.0,0.0,150.0,13.0,0.0
30143,34.0,0.0,150.0,3.0,0.0
30144,46.0,0.0,150.0,3.0,0.0
30145,49.0,0.0,150.0,3.0,0.0
30146,49.0,0.0,150.0,14.0,0.0
30147,78.0,0.0,150.0,1.0,0.0
30148,66.0,0.0,150.0,12.0,0.0
30149,54.0,0.0,150.0,14.0,0.0
30150,85.0,0.0,150.0,0.0,0.0
30151,46.0,0.0,150.0,15.0,0.0
30152,46.0,0.0,150.0,2.0,0.0
30153,58.0,0.0,150.0,4.0,0.0
30154,54.0,0.0,150.0,4.0,0.0
30155,73.0,0.0,150.0,1.0,0.0
30156,73.0,0.0,150.0,12.0,0.0
30157,58.0,56.0,150.0,13.0,0.0
30158,66.0,0.0,150.0,2.0,0.0
30159,90.0,0.0,150.0,0.0,0.0
30160,61.0,0.0,150.0,5.0,0.0
30161,66.0,0.0,150.0,5.0,0.0
30162,78.0,0.0,150.0,11.0,0.0
30163,70.0,0.0,150.0,2.0,0.0
30164,44.0,24.0,15.0,8.0,0.0
30165,44.0,24.0,15.0,8.0,0.0
30166,44.0,24.0,20.0,8.0,0.0
30167,44.0,24.0,20.0,8.0,0.0
30168,44.0,24.0,15.0,8.0,0.0
30169,44.0,24.0,15.0,8.0,0.0
30170,63.0,0.0,150.0,5.0,0.0
30171,32.0,0.0,150.0,3.0,0.0
30172,72.0,0.0,150.0,1.0,0.0
30173,66.0,0.0,150.0,5.0,0.0
30174,56.0,0.0,150.0,4.0,0.0
30175,63.0,0.0,150.0,2.0,0.0
30176,72.0,0.0,150.0,12.0,0.0
30177,68.0,0.0,150.0,12.0,0.0
30178,45.0,0.0,150.0,9.0,0.0
30179,87.0,0.0,150.0,0.0,0.0
30180,68.0,0.0,150.0,2.0,0.0
30181,44.0,0.0,150.0,2.0,0.0
30182,54.0,0.0,150.0,4.0,0.0
30183,48.0,0.0,150.0,3.0,0.0
30184,44.0,0.0,150.0,3.0,0.0
30185,56.0,0.0,150.0,13.0,0.0
30186,80.0,0.0,150.0,11.0,0.0
30187,44.0,0.0,150.0,15.0,0.0
30188,78.0,0.0,150.0,1.0,0.0
30189,75.0,0.0,150.0,11.0,0.0
30190,51.0,0.0,150.0,14.0,0.0
30191,48.0,32.0,150.0,14.0,0.0
30192,68.0,0.0,150.0,5.0,0.0
30193,92.0,0.0,150.0,0.0,0.0
30194,44.0,94.0,180.0,8.0,0.0
30195,42.0,0.0,60.0,6.0,0.0
30196,30.0,0.0,60.0,3.0,0.0
30197,42.0,0.0,60.0,14.0,0.0
30198,44.0,46.0,60.0,8.0,0.0
30199,42.0,0.0,60.0,7.0,0.0
30200,42.0,0.0,60.0,3.0,0.0
30201,54.0,0.0,60.0,4.0,0.0
30202,30.0,0.0,60.0,15.0,0.0
30203,44.0,0.0,60.0,3.0,0.0
30204,44.0,0.0,60.0,6.0,0.0
30205,32.0,2.0,60.0,3.0,0.0
30206,32.0,0.0,60.0,15.0,0.0
30207,56.0,0.0,60.0,4.0,0.0
30208,44.0,0.0,60.0,7.0,0.0
30209,44.0,0.0,60.0,14.0,0.0
30210,30.0,0.0,60.0,15.0,0.0
30211,30.0,0.0,60.0,3.0,0.0
30212,42.0,0.0,60.0,14.0,0.0
30213,42.0,0.0,60.0,6.0,0.0
30214,54.0,0.0,60.0,4.0,0.0
30215,44.0,46.0,15.0,8.0,0.0
30216,42.0,0.0,60.0,3.0,0.0
30217,42.0,0.0,60.0,7.0,0.0
30218,72.0,0.0,150.0,12.0,0.0
30219,44.0,0.0,150.0,14.0,0.0
30220,44.0,94.0,180.0,8.0,0.0
30221,78.0,0.0,150.0,1.0,0.0
30222,56.0,0.0,150.0,2.0,0.0
30223,72.0,0.0,150.0,1.0,0.0
30224,80.0,0.0,150.0,11.0,0.0
30225,75.0,0.0,150.0,11.0,0.0
30226,56.0,0.0,150.0,13.0,0.0
30227,68.0,0.0,150.0,12.0,0.0
30228,44.0,0.0,150.0,6.0,0.0
30229,44.0,0.0,150.0,3.0,0.0
30230,56.0,0.0,150.0,4.0,0.0
30231,32.0,0.0,150.0,15.0,0.0
30232,44.0,0.0,150.0,7.0,0.0
30233,92.0,0.0,150.0,0.0,0.0
30234,32.0,0.0,150.0,3.0,0.0
30235,87.0,0.0,150.0,0.0,0.0
30236,63.0,0.0,150.0,2.0,0.0
30237,68.0,0.0,150.0,2.0,0.0
30238,78.0,0.0,150.0,11.0,0.0
30239,66.0,0.0,150.0,2.0,0.0
30240,70.0,0.0,150.0,2.0,0.0
30241,54.0,0.0,150.0,13.0,0.0
30242,73.0,0.0,150.0,12.0,0.0
30243,73.0,0.0,150.0,5.0,0.0
30244,66.0,0.0,150.0,5.0,0.0
30245,90.0,0.0,150.0,0.0,0.0
30246,85.0,0.0,150.0,0.0,0.0
30247,78.0,0.0,150.0,1.0,0.0
30248,73.0,0.0,150.0,1.0,0.0
30249,54.0,0.0,150.0,2.0,0.0
30250,46.0,0.0,60.0,14.0,0.0
30251,44.0,46.0,60.0,8.0,0.0
30252,34.0,0.0,60.0,15.0,0.0
30253,46.0,0.0,60.0,7.0,0.0
30254,46.0,0.0,60.0,3.0,0.0
30255,46.0,0.0,60.0,6.0,0.0
30256,58.0,0.0,60.0,4.0,0.0
30257,34.0,0.0,60.0,3.0,0.0
30258,47.0,0.0,60.0,14.0,0.0
30259,47.0,0.0,60.0,3.0,0.0
30260,47.0,0.0,60.0,7.0,0.0
30261,47.0,0.0,60.0,6.0,0.0
30262,35.0,0.0,60.0,15.0,0.0
30263,59.0,0.0,60.0,4.0,0.0
30264,35.0,0.0,60.0,3.0,0.0
30265,46.0,0.0,60.0,14.0,0.0
30266,34.0,0.0,60.0,3.0,0.0
30267,34.0,0.0,60.0,15.0,0.0
30268,46.0,0.0,60.0,6.0,0.0
30269,44.0,16.0,15.0,8.0,0.0
30270,46.0,2.0,60.0,7.0,0.0
30271,58.0,0.0,60.0,4.0,0.0
30272,46.0,0.0,60.0,3.0,0.0
30273,83.0,0.0,150.0,0.0,0.0
30274,75.0,0.0,150.0,1.0,0.0
30275,35.0,0.0,150.0,3.0,0.0
30276,47.0,0.0,150.0,14.0,0.0
30277,71.0,0.0,150.0,1.0,0.0
30278,51.0,0.0,150.0,2.0,0.0
30279,35.0,32.0,150.0,15.0,0.0
30280,47.0,0.0,150.0,6.0,0.0
30281,66.0,0.0,150.0,12.0,0.0
30282,75.0,0.0,150.0,5.0,0.0
30283,66.0,0.0,150.0,5.0,0.0
30284,71.0,0.0,150.0,5.0,0.0
30285,75.0,0.0,150.0,11.0,0.0
30286,87.0,0.0,150.0,0.0,0.0
30287,47.0,0.0,150.0,7.0,0.0
30288,59.0,0.0,150.0,4.0,0.0
30289,66.0,0.0,150.0,2.0,0.0
30290,51.0,0.0,150.0,13.0,0.0
30291,44.0,94.0,180.0,8.0,0.0
30292,63.0,0.0,150.0,2.0,0.0
30293,47.0,0.0,150.0,3.0,0.0
30294,71.0,0.0,150.0,11.0,0.0
30295,68.0,0.0,150.0,5.0,0.0
30296,73.0,0.0,150.0,1.0,0.0
30297,61.0,0.0,150.0,5.0,0.0
30298,73.0,0.0,150.0,11.0,0.0
30299,68.0,0.0,150.0,1.0,0.0
30300,68.0,0.0,150.0,11.0,0.0
30301,49.0,0.0,150.0,13.0,0.0
30302,65.0,0.0,150.0,12.0,0.0
30303,49.0,30.0,150.0,2.0,0.0
30304,85.0,0.0,150.0,0.0,0.0
30305,65.0,0.0,150.0,2.0,0.0
30306,61.0,0.0,150.0,2.0,0.0
30307,80.0,0.0,150.0,0.0,0.0
30308,73.0,0.0,150.0,5.0,0.0
30309,61.0,0.0,150.0,12.0,0.0
30310,49.0,0.0,60.0,6.0,0.0
30311,37.0,0.0,60.0,3.0,0.0
30312,37.0,0.0,60.0,15.0,0.0
30313,49.0,0.0,60.0,3.0,0.0
30314,42.0,46.0,60.0,8.0,0.0
30315,49.0,0.0,60.0,7.0,0.0
30316,49.0,0.0,60.0,14.0,0.0
30317,61.0,0.0,60.0,4.0,0.0
30318,51.0,2.0,60.0,3.0,0.0
30319,42.0,16.0,60.0,8.0,0.0
30320,39.0,0.0,60.0,3.0,0.0
30321,51.0,0.0,60.0,6.0,0.0
30322,51.0,0.0,60.0,7.0,0.0
30323,63.0,0.0,60.0,4.0,0.0
30324,51.0,0.0,60.0,14.0,0.0
30325,39.0,0.0,60.0,15.0,0.0
30326,49.0,0.0,60.0,7.0,0.0
30327,37.0,0.0,60.0,15.0,0.0
30328,49.0,0.0,60.0,6.0,0.0
30329,49.0,2.0,60.0,14.0,0.0
30330,61.0,0.0,60.0,4.0,0.0
30331,37.0,0.0,60.0,3.0,0.0
30332,49.0,0.0,60.0,3.0,0.0
30333,58.0,0.0,150.0,13.0,0.0
30334,54.0,0.0,150.0,3.0,0.0
30335,54.0,0.0,150.0,14.0,0.0
30336,66.0,0.0,150.0,11.0,0.0
30337,58.0,0.0,150.0,5.0,0.0
30338,70.0,32.0,150.0,11.0,0.0
30339,61.0,0.0,150.0,5.0,0.0
30340,42.0,160.0,15.0,8.0,0.0
30341,66.0,0.0,150.0,1.0,0.0
30342,70.0,0.0,150.0,5.0,0.0
30343,61.0,0.0,150.0,2.0,0.0
30344,46.0,0.0,150.0,2.0,0.0
30345,54.0,0.0,150.0,7.0,0.0
30346,82.0,0.0,150.0,0.0,0.0
30347,78.0,0.0,150.0,0.0,0.0
30348,66.0,0.0,150.0,4.0,0.0
30349,58.0,0.0,150.0,2.0,0.0
30350,61.0,0.0,150.0,12.0,0.0
30351,70.0,0.0,150.0,1.0,0.0
30352,42.0,0.0,150.0,15.0,0.0
30353,42.0,0.0,150.0,3.0,0.0
30354,54.0,0.0,150.0,6.0,0.0
30355,75.0,0.0,150.0,0.0,0.0
30356,72.0,0.0,150.0,1.0,0.0
30357,78.0,0.0,150.0,1.0,0.0
30358,44.0,0.0,150.0,2.0,0.0
30359,60.0,0.0,150.0,5.0,0.0
30360,56.0,0.0,150.0,5.0,0.0
30361,56.0,0.0,150.0,13.0,0.0
30362,68.0,30.0,150.0,11.0,0.0
30363,80.0,0.0,150.0,0.0,0.0
30364,60.0,0.0,150.0,2.0,0.0
30365,56.0,0.0,150.0,2.0,0.0
30366,68.0,0.0,150.0,5.0,0.0
30367,63.0,0.0,150.0,12.0,0.0
30368,60.0,0.0,150.0,12.0,0.0
30369,44.0,0.0,60.0,3.0,0.0
30370,44.0,0.0,60.0,15.0,0.0
30371,56.0,2.0,60.0,14.0,0.0
30372,56.0,0.0,60.0,7.0,0.0
30373,68.0,0.0,60.0,4.0,0.0
30374,56.0,0.0,60.0,3.0,0.0
30375,56.0,0.0,60.0,6.0,0.0
30376,58.0,0.0,60.0,7.0,0.0
30377,58.0,0.0,60.0,3.0,0.0
30378,42.0,46.0,15.0,8.0,0.0
30379,58.0,0.0,60.0,14.0,0.0
30380,58.0,0.0,60.0,6.0,0.0
30381,46.0,0.0,60.0,15.0,0.0
30382,46.0,0.0,60.0,3.0,0.0
30383,70.0,0.0,60.0,4.0,0.0
30384,44.0,0.0,60.0,15.0,0.0
30385,56.0,0.0,60.0,7.0,0.0
30386,68.0,0.0,60.0,4.0,0.0
30387,42.0,160.0,60.0,8.0,0.0
30388,56.0,0.0,60.0,3.0,0.0
30389,56.0,0.0,60.0,6.0,0.0
30390,44.0,2.0,60.0,3.0,0.0
30391,56.0,0.0,60.0,14.0,0.0
30392,58.0,0.0,150.0,14.0,0.0
30393,61.0,32.0,150.0,5.0,0.0
30394,54.0,0.0,150.0,5.0,0.0
30395,58.0,0.0,150.0,7.0,0.0
30396,58.0,0.0,150.0,3.0,0.0
30397,46.0,0.0,150.0,15.0,0.0
30398,61.0,0.0,150.0,2.0,0.0
30399,54.0,0.0,150.0,2.0,0.0
30400,73.0,0.0,150.0,0.0,0.0
30401,58.0,0.0,150.0,6.0,0.0
30402,66.0,0.0,150.0,5.0,0.0
30403,46.0,0.0,150.0,3.0,0.0
30404,61.0,0.0,150.0,12.0,0.0
30405,42.0,0.0,150.0,2.0,0.0
30406,73.0,0.0,150.0,1.0,0.0
30407,78.0,0.0,150.0,1.0,0.0
30408,66.0,0.0,150.0,11.0,0.0
30409,54.0,0.0,150.0,13.0,0.0
30410,42.0,94.0,180.0,8.0,0.0
30411,70.0,0.0,150.0,4.0,0.0
30412,78.0,0.0,150.0,0.0,0.0
30413,46.0,0.0,150.0,2.0,0.0
30414,70.0,0.0,150.0,5.0,0.0
30415,61.0,30.0,150.0,12.0,0.0
30416,61.0,0.0,150.0,5.0,0.0
30417,70.0,0.0,150.0,2.0,0.0
30418,73.0,0.0,150.0,2.0,0.0
30419,66.0,0.0,150.0,1.0,0.0
30420,70.0,0.0,150.0,1.0,0.0
30421,66.0,0.0,150.0,11.0,0.0
30422,70.0,0.0,150.0,11.0,0.0
30423,58.0,0.0,150.0,13.0,0.0
30424,78.0,0.0,150.0,0.0,0.0
30425,82.0,0.0,150.0,0.0,0.0
30426,58.0,0.0,150.0,5.0,0.0
30427,30.0,2.0,60.0,3.0,0.0
30428,42.0,0.0,60.0,3.0,0.0
30429,44.0,46.0,60.0,8.0,0.0
30430,54.0,0.0,60.0,4.0,0.0
30431,42.0,0.0,60.0,7.0,0.0
30432,42.0,0.0,60.0,14.0,0.0
30433,30.0,0.0,60.0,15.0,0.0
30434,42.0,0.0,60.0,6.0,0.0
30435,32.0,0.0,60.0,3.0,0.0
30436,44.0,0.0,60.0,7.0,0.0
30437,32.0,2.0,60.0,15.0,0.0
30438,44.0,0.0,60.0,14.0,0.0
30439,56.0,0.0,60.0,4.0,0.0
30440,44.0,0.0,60.0,3.0,0.0
30441,44.0,0.0,60.0,6.0,0.0
30442,44.0,16.0,15.0,8.0,0.0
30443,30.0,0.0,60.0,15.0,0.0
30444,42.0,0.0,60.0,3.0,0.0
30445,42.0,2.0,60.0,7.0,0.0
30446,54.0,0.0,60.0,4.0,0.0
30447,30.0,0.0,60.0,3.0,0.0
30448,42.0,0.0,60.0,14.0,0.0
30449,42.0,0.0,60.0,6.0,0.0
30450,71.0,0.0,150.0,1.0,0.0
30451,68.0,0.0,150.0,1.0,0.0
30452,44.0,0.0,150.0,14.0,0.0
30453,44.0,0.0,150.0,2.0,0.0
30454,44.0,0.0,150.0,3.0,0.0
30455,44.0,94.0,180.0,8.0,0.0
30456,32.0,0.0,150.0,3.0,0.0
30457,77.0,0.0,150.0,0.0,0.0
30458,68.0,0.0,150.0,5.0,0.0
30459,56.0,0.0,150.0,13.0,0.0
30460,44.0,0.0,150.0,6.0,0.0
30461,80.0,0.0,150.0,0.0,0.0
30462,56.0,0.0,150.0,4.0,0.0
30463,59.0,0.0,150.0,5.0,0.0
30464,71.0,0.0,150.0,2.0,0.0
30465,68.0,0.0,150.0,2.0,0.0
30466,65.0,0.0,150.0,11.0,0.0
30467,32.0,0.0,150.0,15.0,0.0
30468,59.0,0.0,150.0,12.0,0.0
30469,44.0,0.0,150.0,7.0,0.0
30470,68.0,0.0,150.0,11.0,0.0
30471,56.0,0.0,150.0,5.0,0.0
30472,73.0,0.0,150.0,1.0,0.0
30473,78.0,0.0,150.0,1.0,0.0
30474,61.0,0.0,150.0,12.0,0.0
30475,42.0,0.0,150.0,2.0,0.0
30476,73.0,0.0,150.0,0.0,0.0
30477,61.0,0.0,150.0,5.0,0.0
30478,54.0,0.0,150.0,5.0,0.0
30479,73.0,0.0,150.0,2.0,0.0
30480,66.0,0.0,150.0,2.0,0.0
30481,66.0,30.0,150.0,11.0,0.0
30482,66.0,0.0,150.0,5.0,0.0
30483,54.0,0.0,150.0,13.0,0.0
30484,78.0,0.0,150.0,0.0,0.0
30485,34.0,0.0,60.0,15.0,0.0
30486,46.0,2.0,60.0,7.0,0.0
30487,34.0,0.0,60.0,3.0,0.0
30488,58.0,0.0,60.0,4.0,0.0
30489,46.0,0.0,60.0,14.0,0.0
30490,46.0,0.0,60.0,6.0,0.0
30491,46.0,0.0,60.0,3.0,0.0
30492,35.0,0.0,60.0,3.0,0.0
30493,59.0,0.0,60.0,4.0,0.0
30494,44.0,46.0,15.0,8.0,0.0
30495,47.0,0.0,60.0,14.0,0.0
30496,35.0,0.0,60.0,15.0,0.0
30497,47.0,0.0,60.0,6.0,0.0
30498,47.0,0.0,60.0,3.0,0.0
30499,47.0,2.0,60.0,7.0,0.0
30500,46.0,0.0,60.0,7.0,0.0
30501,46.0,0.0,60.0,3.0,0.0
30502,34.0,0.0,60.0,3.0,0.0
30503,46.0,0.0,60.0,6.0,0.0
30504,58.0,0.0,60.0,4.0,0.0
30505,34.0,0.0,60.0,15.0,0.0
30506,46.0,0.0,60.0,14.0,0.0
30507,47.0,0.0,150.0,7.0,0.0
30508,75.0,0.0,150.0,0.0,0.0
30509,39.0,0.0,150.0,2.0,0.0
30510,47.0,0.0,150.0,6.0,0.0
30511,75.0,0.0,150.0,11.0,0.0
30512,59.0,0.0,150.0,4.0,0.0
30513,35.0,0.0,150.0,15.0,0.0
30514,47.0,0.0,150.0,14.0,0.0
30515,63.0,0.0,150.0,2.0,0.0
30516,66.0,32.0,150.0,2.0,0.0
30517,47.0,0.0,150.0,3.0,0.0
30518,51.0,0.0,150.0,13.0,0.0
30519,71.0,0.0,150.0,0.0,0.0
30520,75.0,0.0,150.0,5.0,0.0
30521,35.0,0.0,150.0,3.0,0.0
30522,66.0,0.0,150.0,5.0,0.0
30523,75.0,0.0,150.0,1.0,0.0
30524,63.0,0.0,150.0,5.0,0.0
30525,44.0,160.0,15.0,8.0,0.0
30526,87.0,0.0,150.0,0.0,0.0
30527,66.0,0.0,150.0,12.0,0.0
30528,71.0,0.0,150.0,1.0,0.0
30529,71.0,0.0,150.0,11.0,0.0
30530,83.0,0.0,150.0,0.0,0.0
30531,75.0,0.0,150.0,1.0,0.0
30532,71.0,0.0,150.0,1.0,0.0
30533,47.0,0.0,150.0,2.0,0.0
30534,71.0,0.0,150.0,5.0,0.0
30535,71.0,0.0,150.0,2.0,0.0
30536,75.0,0.0,150.0,2.0,0.0
30537,83.0,0.0,150.0,11.0,0.0
30538,80.0,0.0,150.0,11.0,0.0
30539,75.0,0.0,150.0,12.0,0.0
30540,95.0,30.0,150.0,0.0,0.0
30541,68.0,0.0,150.0,5.0,0.0
30542,63.0,0.0,150.0,5.0,0.0
30543,80.0,0.0,150.0,0.0,0.0
30544,59.0,0.0,150.0,13.0,0.0
30545,44.0,0.0,60.0,14.0,0.0
30546,44.0,2.0,60.0,3.0,0.0
30547,56.0,0.0,60.0,4.0,0.0
30548,32.0,0.0,60.0,15.0,0.0
30549,32.0,0.0,60.0,3.0,0.0
30550,44.0,0.0,60.0,7.0,0.0
30551,44.0,0.0,60.0,6.0,0.0
30552,34.0,2.0,60.0,15.0,0.0
30553,46.0,0.0,60.0,14.0,0.0
30554,58.0,0.0,60.0,4.0,0.0
30555,44.0,46.0,15.0,8.0,0.0
30556,46.0,0.0,60.0,3.0,0.0
30557,34.0,0.0,60.0,3.0,0.0
30558,46.0,0.0,60.0,7.0,0.0
30559,46.0,0.0,60.0,6.0,0.0
30560,44.0,2.0,60.0,14.0,0.0
30561,44.0,16.0,15.0,8.0,0.0
30562,56.0,0.0,60.0,4.0,0.0
30563,44.0,0.0,60.0,7.0,0.0
30564,44.0,0.0,60.0,6.0,0.0
30565,32.0,0.0,60.0,3.0,0.0
30566,32.0,0.0,60.0,15.0,0.0
30567,44.0,0.0,60.0,3.0,0.0
30568,73.0,0.0,150.0,1.0,0.0
30569,82.0,0.0,150.0,0.0,0.0
30570,61.0,0.0,150.0,5.0,0.0
30571,67.0,32.0,150.0,5.0,0.0
30572,79.0,0.0,150.0,0.0,0.0
30573,46.0,0.0,150.0,14.0,0.0
30574,70.0,0.0,150.0,1.0,0.0
30575,34.0,0.0,150.0,15.0,0.0
30576,70.0,0.0,150.0,2.0,0.0
30577,58.0,0.0,150.0,13.0,0.0
30578,73.0,0.0,150.0,2.0,0.0
30579,94.0,0.0,150.0,0.0,0.0
30580,46.0,0.0,150.0,6.0,0.0
30581,46.0,0.0,150.0,3.0,0.0
30582,46.0,0.0,150.0,2.0,0.0
30583,79.0,0.0,150.0,11.0,0.0
30584,44.0,160.0,15.0,8.0,0.0
30585,73.0,0.0,150.0,12.0,0.0
30586,70.0,0.0,150.0,5.0,0.0
30587,34.0,0.0,150.0,3.0,0.0
30588,82.0,0.0,150.0,11.0,0.0
30589,46.0,0.0,150.0,7.0,0.0
30590,58.0,0.0,150.0,4.0,0.0
30591,68.0,0.0,150.0,1.0,0.0
30592,71.0,0.0,150.0,1.0,0.0
30593,71.0,0.0,150.0,12.0,0.0
30594,68.0,0.0,150.0,5.0,0.0
30595,59.0,30.0,150.0,5.0,0.0
30596,80.0,0.0,150.0,11.0,0.0
30597,56.0,0.0,150.0,13.0,0.0
30598,44.0,0.0,150.0,2.0,0.0
30599,68.0,0.0,150.0,2.0,0.0
30600,71.0,0.0,150.0,2.0,0.0
30601,92.0,0.0,150.0,0.0,0.0
30602,75.0,0.0,150.0,11.0,0.0
30603,80.0,0.0,150.0,0.0,0.0
30604,75.0,0.0,150.0,0.0,0.0
30605,63.0,0.0,150.0,5.0,0.0
30606,47.0,0.0,60.0,14.0,0.0
30607,35.0,0.0,60.0,15.0,0.0
30608,47.0,0.0,60.0,3.0,0.0
30609,47.0,0.0,60.0,6.0,0.0
30610,47.0,0.0,60.0,7.0,0.0
30611,35.0,0.0,60.0,3.0,0.0
30612,59.0,0.0,60.0,4.0,0.0
30613,37.0,46.0,15.0,8.0,0.0
30614,49.0,0.0,60.0,7.0,0.0
30615,49.0,0.0,60.0,14.0,0.0
30616,49.0,0.0,60.0,3.0,0.0
30617,49.0,0.0,60.0,6.0,0.0
30618,37.0,0.0,60.0,15.0,0.0
30619,37.0,0.0,60.0,3.0,0.0
30620,61.0,0.0,60.0,4.0,0.0
30621,35.0,0.0,60.0,3.0,0.0
30622,47.0,2.0,60.0,7.0,0.0
30623,47.0,0.0,60.0,3.0,0.0
30624,47.0,0.0,60.0,14.0,0.0
30625,37.0,16.0,15.0,8.0,0.0
30626,35.0,0.0,60.0,15.0,0.0
30627,59.0,0.0,60.0,4.0,0.0
30628,47.0,0.0,60.0,6.0,0.0
30629,68.0,0.0,150.0,2.0,0.0
30630,37.0,0.0,150.0,3.0,0.0
30631,65.0,0.0,150.0,2.0,0.0
30632,89.0,0.0,150.0,0.0,0.0
30633,68.0,0.0,150.0,12.0,0.0
30634,65.0,0.0,150.0,5.0,0.0
30635,56.0,0.0,150.0,5.0,0.0
30636,77.0,0.0,150.0,0.0,0.0
30637,73.0,0.0,150.0,0.0,0.0
30638,68.0,0.0,150.0,1.0,0.0
30639,65.0,0.0,150.0,1.0,0.0
30640,37.0,0.0,150.0,15.0,0.0
30641,49.0,0.0,150.0,3.0,0.0
30642,41.0,0.0,150.0,2.0,0.0
30643,49.0,0.0,150.0,6.0,0.0
30644,53.0,0.0,150.0,13.0,0.0
30645,49.0,0.0,150.0,7.0,0.0
30646,61.0,32.0,150.0,5.0,0.0
30647,61.0,0.0,150.0,4.0,0.0
30648,73.0,0.0,150.0,11.0,0.0
30649,77.0,0.0,150.0,11.0,0.0
30650,37.0,160.0,15.0,8.0,0.0
30651,49.0,0.0,150.0,14.0,0.0
30652,73.0,0.0,150.0,2.0,0.0
30653,77.0,0.0,150.0,2.0,0.0
30654,85.0,0.0,150.0,11.0,0.0
30655,82.0,30.0,150.0,11.0,0.0
30656,73.0,0.0,150.0,5.0,0.0
30657,77.0,0.0,150.0,12.0,0.0
30658,65.0,0.0,150.0,5.0,0.0
30659,49.0,0.0,150.0,2.0,0.0
30660,82.0,0.0,150.0,0.0,0.0
30661,70.0,0.0,150.0,5.0,0.0
30662,97.0,0.0,150.0,0.0,0.0
30663,85.0,0.0,150.0,0.0,0.0
30664,73.0,0.0,150.0,1.0,0.0
30665,77.0,0.0,150.0,1.0,0.0
30666,61.0,0.0,150.0,13.0,0.0
30667,46.0,0.0,60.0,6.0,0.0
30668,34.0,0.0,60.0,14.0,0.0
30669,37.0,46.0,60.0,8.0,0.0
30670,34.0,0.0,60.0,3.0,0.0
30671,22.0,2.0,60.0,15.0,0.0
30672,22.0,0.0,60.0,3.0,0.0
30673,34.0,0.0,60.0,7.0,0.0
30674,34.0,0.0,60.0,6.0,0.0
30675,35.0,0.0,60.0,3.0,0.0
30676,37.0,16.0,60.0,8.0,0.0
30677,35.0,0.0,60.0,7.0,0.0
30678,35.0,0.0,60.0,6.0,0.0
30679,23.0,0.0,60.0,15.0,0.0
30680,23.0,2.0,60.0,3.0,0.0
30681,35.0,0.0,60.0,14.0,0.0
30682,47.0,0.0,60.0,6.0,0.0
30683,34.0,0.0,60.0,6.0,0.0
30684,46.0,2.0,60.0,6.0,0.0
30685,22.0,0.0,60.0,15.0,0.0
30686,34.0,0.0,60.0,3.0,0.0
30687,34.0,0.0,60.0,7.0,0.0
30688,34.0,0.0,60.0,14.0,0.0
30689,22.0,0.0,60.0,3.0,0.0
30690,37.0,0.0,150.0,14.0,0.0
30691,77.0,0.0,150.0,1.0,0.0
30692,25.0,32.0,150.0,15.0,0.0
30693,71.0,0.0,150.0,2.0,0.0
30694,77.0,0.0,150.0,2.0,0.0
30695,71.0,0.0,150.0,1.0,0.0
30696,59.0,0.0,150.0,13.0,0.0
30697,65.0,0.0,150.0,5.0,0.0
30698,47.0,0.0,150.0,2.0,0.0
30699,71.0,0.0,150.0,5.0,0.0
30700,49.0,0.0,150.0,6.0,0.0
30701,80.0,0.0,150.0,11.0,0.0
30702,83.0,0.0,150.0,11.0,0.0
30703,68.0,0.0,150.0,5.0,0.0
30704,80.0,0.0,150.0,0.0,0.0
30705,83.0,0.0,150.0,0.0,0.0
30706,95.0,0.0,150.0,0.0,0.0
30707,37.0,0.0,150.0,6.0,0.0
30708,77.0,0.0,150.0,12.0,0.0
30709,37.0,0.0,150.0,3.0,0.0
30710,25.0,0.0,150.0,3.0,0.0
30711,37.0,160.0,15.0,8.0,0.0
30712,37.0,0.0,150.0,7.0,0.0
30713,70.0,0.0,150.0,5.0,0.0
30714,73.0,0.0,150.0,1.0,0.0
30715,58.0,0.0,150.0,13.0,0.0
30716,70.0,0.0,150.0,2.0,0.0
30717,73.0,0.0,150.0,2.0,0.0
30718,82.0,0.0,150.0,0.0,0.0
30719,78.0,0.0,150.0,11.0,0.0
30720,94.0,0.0,150.0,0.0,0.0
30721,66.0,0.0,150.0,5.0,0.0
30722,61.0,0.0,150.0,5.0,0.0
30723,78.0,30.0,150.0,0.0,0.0
30724,73.0,0.0,150.0,12.0,0.0
30725,82.0,0.0,150.0,11.0,0.0
30726,70.0,0.0,150.0,1.0,0.0
30727,46.0,0.0,150.0,2.0,0.0
30728,42.0,46.0,60.0,8.0,0.0
30729,30.0,0.0,60.0,3.0,0.0
30730,42.0,0.0,60.0,6.0,0.0
30731,30.0,0.0,60.0,15.0,0.0
30732,42.0,2.0,60.0,3.0,0.0
30733,42.0,0.0,60.0,7.0,0.0
30734,54.0,0.0,60.0,6.0,0.0
30735,42.0,0.0,60.0,14.0,0.0
30736,44.0,0.0,60.0,3.0,0.0
30737,44.0,0.0,60.0,6.0,0.0
30738,44.0,2.0,60.0,14.0,0.0
30739,32.0,0.0,60.0,3.0,0.0
30740,56.0,0.0,60.0,6.0,0.0
30741,44.0,0.0,60.0,7.0,0.0
30742,42.0,16.0,60.0,8.0,0.0
30743,32.0,0.0,60.0,15.0,0.0
30744,30.0,0.0,60.0,15.0,0.0
30745,30.0,0.0,60.0,3.0,0.0
30746,42.0,0.0,60.0,14.0,0.0
30747,54.0,2.0,60.0,6.0,0.0
30748,42.0,0.0,60.0,3.0,0.0
30749,42.0,0.0,60.0,7.0,0.0
30750,42.0,0.0,60.0,6.0,0.0
30751,92.0,0.0,150.0,0.0,0.0
30752,77.0,0.0,150.0,0.0,0.0
30753,58.0,0.0,150.0,6.0,0.0
30754,42.0,160.0,15.0,8.0,0.0
30755,46.0,0.0,150.0,7.0,0.0
30756,56.0,0.0,150.0,13.0,0.0
30757,68.0,0.0,150.0,1.0,0.0
30758,46.0,0.0,150.0,14.0,0.0
30759,46.0,0.0,150.0,3.0,0.0
30760,68.0,0.0,150.0,5.0,0.0
30761,34.0,0.0,150.0,15.0,0.0
30762,65.0,0.0,150.0,1.0,0.0
30763,80.0,0.0,150.0,0.0,0.0
30764,77.0,0.0,150.0,11.0,0.0
30765,44.0,0.0,150.0,2.0,0.0
30766,65.0,0.0,150.0,5.0,0.0
30767,46.0,0.0,150.0,6.0,0.0
30768,62.0,0.0,150.0,5.0,0.0
30769,74.0,32.0,150.0,12.0,0.0
30770,74.0,0.0,150.0,2.0,0.0
30771,34.0,0.0,150.0,3.0,0.0
30772,80.0,0.0,150.0,11.0,0.0
30773,68.0,0.0,150.0,2.0,0.0
30774,78.0,0.0,150.0,0.0,0.0
30775,58.0,0.0,150.0,5.0,0.0
30776,75.0,0.0,150.0,0.0,0.0
30777,66.0,0.0,150.0,1.0,0.0
30778,54.0,0.0,150.0,13.0,0.0
30779,78.0,0.0,150.0,11.0,0.0
30780,63.0,0.0,150.0,1.0,0.0
30781,42.0,30.0,150.0,2.0,0.0
30782,63.0,0.0,150.0,5.0,0.0
30783,66.0,0.0,150.0,5.0,0.0
30784,70.0,0.0,150.0,12.0,0.0
30785,66.0,0.0,150.0,2.0,0.0
30786,70.0,0.0,150.0,2.0,0.0
30787,75.0,0.0,150.0,11.0,0.0
30788,90.0,0.0,150.0,0.0,0.0
30789,51.0,0.0,60.0,14.0,0.0
30790,51.0,2.0,60.0,6.0,0.0
30791,39.0,0.0,60.0,15.0,0.0
30792,51.0,0.0,60.0,3.0,0.0
30793,51.0,0.0,60.0,7.0,0.0
30794,63.0,0.0,60.0,6.0,0.0
30795,39.0,0.0,60.0,3.0,0.0
30796,64.0,0.0,60.0,6.0,0.0
30797,42.0,46.0,15.0,8.0,0.0
30798,40.0,0.0,60.0,3.0,0.0
30799,52.0,0.0,60.0,7.0,0.0
30800,40.0,2.0,60.0,15.0,0.0
30801,52.0,0.0,60.0,3.0,0.0
30802,52.0,0.0,60.0,6.0,0.0
30803,52.0,0.0,60.0,14.0,0.0
30804,51.0,0.0,60.0,7.0,0.0
30805,63.0,0.0,60.0,6.0,0.0
30806,51.0,0.0,60.0,14.0,0.0
30807,39.0,0.0,60.0,3.0,0.0
30808,51.0,2.0,60.0,6.0,0.0
30809,51.0,0.0,60.0,3.0,0.0
30810,39.0,0.0,60.0,15.0,0.0
30811,42.0,160.0,15.0,8.0,0.0
30812,76.0,0.0,150.0,11.0,0.0
30813,61.0,0.0,150.0,5.0,0.0
30814,70.0,0.0,150.0,2.0,0.0
30815,42.0,0.0,150.0,15.0,0.0
30816,66.0,32.0,150.0,6.0,0.0
30817,64.0,0.0,150.0,2.0,0.0
30818,58.0,0.0,150.0,5.0,0.0
30819,40.0,0.0,150.0,2.0,0.0
30820,52.0,0.0,150.0,13.0,0.0
30821,73.0,0.0,150.0,11.0,0.0
30822,64.0,0.0,150.0,5.0,0.0
30823,61.0,0.0,150.0,1.0,0.0
30824,64.0,0.0,150.0,1.0,0.0
30825,54.0,0.0,150.0,7.0,0.0
30826,54.0,0.0,150.0,3.0,0.0
30827,42.0,0.0,150.0,3.0,0.0
30828,54.0,0.0,150.0,14.0,0.0
30829,54.0,0.0,150.0,6.0,0.0
30830,73.0,0.0,150.0,0.0,0.0
30831,76.0,0.0,150.0,0.0,0.0
30832,88.0,0.0,150.0,0.0,0.0
30833,70.0,0.0,150.0,12.0,0.0
30834,75.0,0.0,150.0,0.0,0.0
30835,63.0,0.0,150.0,5.0,0.0
30836,71.0,0.0,150.0,0.0,0.0
30837,87.0,30.0,150.0,0.0,0.0
30838,66.0,0.0,150.0,12.0,0.0
30839,75.0,0.0,150.0,11.0,0.0
30840,39.0,0.0,150.0,2.0,0.0
30841,63.0,0.0,150.0,1.0,0.0
30842,63.0,0.0,150.0,2.0,0.0
30843,71.0,0.0,150.0,11.0,0.0
30844,59.0,0.0,150.0,5.0,0.0
30845,54.0,0.0,150.0,5.0,0.0
30846,51.0,0.0,150.0,13.0,0.0
30847,66.0,0.0,150.0,2.0,0.0
30848,59.0,0.0,150.0,1.0,0.0
30849,59.0,0.0,60.0,14.0,0.0
30850,47.0,48.0,60.0,3.0,0.0
30851,47.0,0.0,60.0,15.0,0.0
30852,59.0,0.0,60.0,3.0,0.0
30853,61.0,18.0,60.0,3.0,0.0
30854,61.0,0.0,60.0,14.0,0.0
30855,49.0,0.0,60.0,15.0,0.0
30856,49.0,0.0,60.0,3.0,0.0
30857,59.0,0.0,60.0,14.0,0.0
30858,47.0,162.0,60.0,15.0,0.0
30859,59.0,0.0,60.0,3.0,0.0
30860,47.0,0.0,60.0,3.0,0.0
30861,58.0,0.0,150.0,5.0,0.0
30862,55.0,126.0,150.0,5.0,0.0
30863,63.0,0.0,150.0,3.0,0.0
30864,85.0,0.0,150.0,0.0,0.0
30865,49.0,0.0,150.0,13.0,0.0
30866,58.0,0.0,150.0,1.0,0.0
30867,61.0,0.0,150.0,2.0,0.0
30868,73.0,0.0,150.0,11.0,0.0
30869,63.0,0.0,150.0,14.0,0.0
30870,67.0,0.0,150.0,12.0,0.0
30871,61.0,0.0,150.0,5.0,0.0
30872,51.0,0.0,150.0,15.0,0.0
30873,51.0,0.0,150.0,3.0,0.0
30874,70.0,0.0,150.0,0.0,0.0
30875,70.0,0.0,150.0,11.0,0.0
30876,37.0,0.0,150.0,2.0,0.0
30877,73.0,0.0,150.0,0.0,0.0
30878,61.0,0.0,150.0,1.0,0.0
30879,67.0,0.0,150.0,2.0,0.0
30880,68.0,0.0,150.0,0.0,0.0
30881,71.0,0.0,150.0,0.0,0.0
30882,56.0,0.0,150.0,5.0,0.0
30883,56.0,0.0,150.0,1.0,0.0
30884,68.0,0.0,150.0,11.0,0.0
30885,59.0,0.0,150.0,5.0,0.0
30886,83.0,0.0,150.0,0.0,0.0
30887,59.0,0.0,150.0,12.0,0.0
30888,63.0,0.0,150.0,12.0,0.0
30889,71.0,0.0,150.0,11.0,0.0
30890,59.0,30.0,150.0,1.0,0.0
30891,56.0,48.0,60.0,13.0,0.0
30892,56.0,0.0,60.0,2.0,0.0
30893,57.0,0.0,60.0,13.0,0.0
30894,57.0,18.0,60.0,2.0,0.0
30895,56.0,162.0,60.0,13.0,0.0
30896,56.0,0.0,60.0,2.0,0.0
30897,69.0,0.0,150.0,11.0,0.0
30898,66.0,0.0,150.0,11.0,0.0
30899,81.0,0.0,150.0,0.0,0.0
30900,71.0,0.0,150.0,5.0,0.0
30901,71.0,0.0,150.0,13.0,0.0
30902,71.0,0.0,150.0,2.0,0.0
30903,69.0,0.0,150.0,0.0,0.0
30904,66.0,0.0,150.0,0.0,0.0
30905,57.0,0.0,150.0,1.0,0.0
30906,63.0,0.0,150.0,1.0,0.0
30907,63.0,0.0,150.0,12.0,0.0
30908,57.0,0.0,150.0,12.0,0.0
30909,56.0,32.0,150.0,6.0,0.0
30910,59.0,0.0,150.0,6.0,0.0
30911,64.0,0.0,150.0,5.0,0.0
30912,59.0,0.0,150.0,5.0,0.0
30913,68.0,0.0,150.0,12.0,0.0
30914,64.0,0.0,150.0,12.0,0.0
30915,64.0,0.0,150.0,1.0,0.0
30916,56.0,0.0,150.0,14.0,0.0
30917,68.0,0.0,150.0,5.0,0.0
30918,56.0,0.0,150.0,2.0,0.0
30919,59.0,0.0,150.0,2.0,0.0
30920,59.0,0.0,150.0,13.0,0.0
30921,68.0,0.0,150.0,1.0,0.0
30922,76.0,0.0,60.0,0.0,0.0
30923,76.0,48.0,60.0,11.0,0.0
30924,88.0,0.0,60.0,0.0,0.0
30925,78.0,16.0,60.0,0.0,0.0
30926,90.0,0.0,60.0,0.0,0.0
30927,78.0,0.0,60.0,11.0,0.0
30928,88.0,0.0,60.0,0.0,0.0
30929,76.0,0.0,60.0,11.0,0.0
30930,76.0,160.0,60.0,0.0,0.0
30931,60.0,0.0,150.0,2.0,0.0
30932,54.0,0.0,150.0,2.0,0.0
30933,63.0,0.0,150.0,1.0,0.0
30934,92.0,0.0,150.0,0.0,0.0
30935,60.0,128.0,150.0,13.0,0.0
30936,66.0,0.0,150.0,1.0,0.0
30937,80.0,0.0,150.0,11.0,0.0
30938,80.0,0.0,150.0,0.0,0.0
30939,66.0,0.0,150.0,12.0,0.0
30940,63.0,0.0,150.0,12.0,0.0
30941,66.0,0.0,150.0,5.0,0.0
30942,63.0,0.0,150.0,5.0,0.0
30943,60.0,0.0,150.0,5.0,0.0
30944,54.0,0.0,150.0,14.0,0.0
30945,60.0,0.0,150.0,6.0,0.0
30946,54.0,0.0,150.0,6.0,0.0
30947,61.0,0.0,150.0,5.0,0.0
30948,53.0,0.0,150.0,6.0,0.0
30949,56.0,0.0,150.0,6.0,0.0
30950,56.0,0.0,150.0,14.0,0.0
30951,53.0,0.0,150.0,14.0,0.0
30952,65.0,0.0,150.0,1.0,0.0
30953,61.0,32.0,150.0,13.0,0.0
30954,65.0,0.0,150.0,13.0,0.0
30955,61.0,0.0,150.0,1.0,0.0
30956,53.0,0.0,150.0,2.0,0.0
30957,56.0,0.0,150.0,2.0,0.0
30958,65.0,0.0,150.0,5.0,0.0
30959,84.0,0.0,60.0,11.0,0.0
30960,84.0,48.0,60.0,0.0,0.0
30961,72.0,0.0,60.0,12.0,0.0
30962,96.0,0.0,60.0,0.0,0.0
30963,85.0,0.0,60.0,11.0,0.0
30964,85.0,16.0,60.0,0.0,0.0
30965,97.0,0.0,60.0,0.0,0.0
30966,73.0,0.0,60.0,12.0,0.0
30967,96.0,0.0,60.0,0.0,0.0
30968,84.0,160.0,60.0,11.0,0.0
30969,84.0,0.0,60.0,0.0,0.0
30970,72.0,0.0,60.0,12.0,0.0
30971,97.0,0.0,150.0,0.0,0.0
30972,60.0,0.0,150.0,1.0,0.0
30973,63.0,128.0,150.0,1.0,0.0
30974,54.0,0.0,150.0,14.0,0.0
30975,63.0,0.0,150.0,5.0,0.0
30976,73.0,0.0,150.0,12.0,0.0
30977,54.0,0.0,150.0,2.0,0.0
30978,51.0,0.0,150.0,2.0,0.0
30979,63.0,0.0,150.0,13.0,0.0
30980,54.0,0.0,150.0,6.0,0.0
30981,60.0,0.0,150.0,13.0,0.0
30982,85.0,0.0,150.0,0.0,0.0
30983,85.0,0.0,150.0,11.0,0.0
30984,51.0,0.0,150.0,14.0,0.0
30985,60.0,0.0,150.0,5.0,0.0
30986,51.0,0.0,150.0,6.0,0.0
30987,49.0,0.0,150.0,14.0,0.0
30988,59.0,0.0,150.0,13.0,0.0
30989,61.0,0.0,150.0,13.0,0.0
30990,53.0,0.0,150.0,2.0,0.0
30991,49.0,0.0,150.0,2.0,0.0
30992,59.0,0.0,150.0,1.0,0.0
30993,59.0,0.0,150.0,5.0,0.0
30994,61.0,0.0,150.0,5.0,0.0
30995,49.0,0.0,150.0,6.0,0.0
30996,53.0,0.0,150.0,6.0,0.0
30997,61.0,0.0,150.0,1.0,0.0
30998,53.0,0.0,150.0,14.0,0.0
30999,96.0,0.0,60.0,0.0,0.0
31000,72.0,0.0,60.0,12.0,0.0
31001,84.0,0.0,60.0,0.0,0.0
31002,84.0,48.0,60.0,11.0,0.0
31003,85.0,16.0,60.0,0.0,0.0
31004,97.0,0.0,60.0,0.0,0.0
31005,73.0,0.0,60.0,12.0,0.0
31006,85.0,0.0,60.0,11.0,0.0
31007,96.0,0.0,60.0,0.0,0.0
31008,72.0,160.0,60.0,12.0,0.0
31009,84.0,0.0,60.0,0.0,0.0
31010,84.0,0.0,60.0,11.0,0.0
31011,49.0,0.0,150.0,14.0,0.0
31012,56.0,0.0,150.0,14.0,0.0
31013,97.0,0.0,180.0,0.0,0.0
31014,49.0,0.0,150.0,6.0,0.0
31015,56.0,0.0,150.0,6.0,0.0
31016,59.0,32.0,150.0,13.0,0.0
31017,65.0,0.0,150.0,13.0,0.0
31018,65.0,0.0,150.0,5.0,0.0
31019,59.0,0.0,150.0,5.0,0.0
31020,65.0,0.0,150.0,1.0,0.0
31021,85.0,0.0,180.0,11.0,0.0
31022,56.0,0.0,150.0,2.0,0.0
31023,73.0,0.0,150.0,12.0,0.0
31024,85.0,96.0,180.0,0.0,0.0
31025,59.0,0.0,150.0,1.0,0.0
31026,49.0,0.0,150.0,2.0,0.0
31027,61.0,0.0,150.0,13.0,0.0
31028,82.0,8.0,150.0,11.0,0.0
31029,78.0,0.0,150.0,11.0,0.0
31030,94.0,0.0,150.0,0.0,0.0
31031,58.0,0.0,150.0,2.0,0.0
31032,54.0,0.0,150.0,2.0,0.0
31033,61.0,0.0,150.0,5.0,0.0
31034,70.0,0.0,150.0,12.0,0.0
31035,78.0,0.0,150.0,0.0,0.0
31036,66.0,0.0,150.0,13.0,0.0
31037,54.0,0.0,150.0,3.0,0.0
31038,58.0,0.0,150.0,3.0,0.0
31039,82.0,0.0,150.0,0.0,0.0
31040,66.0,0.0,150.0,5.0,0.0
31041,66.0,0.0,150.0,1.0,0.0
31042,45.0,0.0,330.0,9.0,0.0
31043,54.0,0.0,150.0,6.0,0.0
31044,54.0,0.0,150.0,14.0,0.0
31045,58.0,0.0,150.0,6.0,0.0
31046,61.0,0.0,150.0,1.0,0.0
31047,58.0,0.0,150.0,14.0,0.0
31048,42.0,48.0,60.0,8.0,0.0
31049,42.0,16.0,15.0,8.0,0.0
31050,42.0,24.0,15.0,8.0,0.0
31051,42.0,46.0,15.0,8.0,0.0
31052,42.0,0.0,150.0,6.0,0.0
31053,42.0,0.0,150.0,3.0,0.0
31054,48.0,0.0,150.0,14.0,0.0
31055,39.0,0.0,150.0,3.0,0.0
31056,39.0,0.0,150.0,15.0,0.0
31057,51.0,0.0,150.0,4.0,0.0
31058,54.0,0.0,150.0,4.0,0.0
31059,51.0,0.0,150.0,6.0,0.0
31060,60.0,0.0,150.0,4.0,0.0
31061,77.0,48.0,60.0,9.0,0.0
31062,51.0,0.0,150.0,2.0,0.0
31063,27.0,0.0,150.0,3.0,0.0
31064,48.0,30.0,150.0,6.0,0.0
31065,63.0,0.0,150.0,4.0,0.0
31066,39.0,0.0,150.0,7.0,0.0
31067,51.0,0.0,150.0,14.0,0.0
31068,77.0,2.0,60.0,9.0,0.0
31069,78.0,46.0,60.0,12.0,0.0
31070,66.0,0.0,60.0,0.0,0.0
31071,72.0,0.0,60.0,0.0,0.0
31072,84.0,0.0,60.0,0.0,0.0
31073,66.0,0.0,60.0,2.0,0.0
31074,84.0,0.0,60.0,11.0,0.0
31075,65.0,0.0,60.0,2.0,0.0
31076,85.0,0.0,60.0,11.0,0.0
31077,77.0,2.0,60.0,9.0,0.0
31078,73.0,0.0,60.0,0.0,0.0
31079,85.0,16.0,60.0,0.0,0.0
31080,77.0,0.0,60.0,12.0,0.0
31081,65.0,0.0,60.0,0.0,0.0
31082,66.0,0.0,60.0,0.0,0.0
31083,84.0,0.0,60.0,11.0,0.0
31084,78.0,46.0,60.0,12.0,0.0
31085,66.0,0.0,60.0,2.0,0.0
31086,72.0,0.0,60.0,0.0,0.0
31087,77.0,2.0,60.0,9.0,0.0
31088,84.0,0.0,60.0,0.0,0.0
31089,85.0,0.0,150.0,11.0,0.0
31090,85.0,0.0,150.0,0.0,0.0
31091,56.0,0.0,150.0,4.0,0.0
31092,61.0,0.0,330.0,10.0,0.0
31093,73.0,0.0,150.0,0.0,0.0
31094,65.0,0.0,150.0,0.0,0.0
31095,73.0,0.0,330.0,10.0,0.0
31096,61.0,0.0,150.0,4.0,0.0
31097,49.0,0.0,150.0,4.0,0.0
31098,59.0,0.0,150.0,4.0,0.0
31099,65.0,0.0,150.0,2.0,0.0
31100,49.0,8.0,150.0,6.0,0.0
31101,77.0,0.0,150.0,12.0,0.0
31102,49.0,0.0,150.0,2.0,0.0
31103,25.0,0.0,150.0,3.0,0.0
31104,77.0,48.0,60.0,9.0,0.0
31105,44.0,0.0,150.0,14.0,0.0
31106,47.0,0.0,150.0,6.0,0.0
31107,44.0,0.0,150.0,3.0,0.0
31108,37.0,0.0,150.0,7.0,0.0
31109,37.0,0.0,150.0,3.0,0.0
31110,44.0,0.0,150.0,6.0,0.0
31111,37.0,0.0,150.0,15.0,0.0
31112,77.0,2.0,60.0,9.0,0.0
31113,37.0,46.0,15.0,8.0,0.0
31114,77.0,2.0,60.0,9.0,0.0
31115,37.0,22.0,20.0,8.0,0.0
31116,77.0,2.0,60.0,9.0,0.0
31117,59.0,0.0,150.0,6.0,0.0
31118,73.0,0.0,150.0,5.0,0.0
31119,73.0,0.0,150.0,1.0,0.0
31120,49.0,0.0,150.0,3.0,0.0
31121,37.0,46.0,15.0,8.0,0.0
31122,68.0,0.0,150.0,1.0,0.0
31123,56.0,0.0,150.0,14.0,0.0
31124,77.0,48.0,60.0,9.0,0.0
31125,61.0,0.0,150.0,6.0,0.0
31126,56.0,0.0,150.0,3.0,0.0
31127,56.0,0.0,150.0,6.0,0.0
31128,49.0,0.0,150.0,15.0,0.0
31129,37.0,0.0,150.0,3.0,0.0
31130,68.0,0.0,150.0,5.0,0.0
31131,71.0,0.0,150.0,5.0,0.0
31132,49.0,30.0,150.0,7.0,0.0
31133,59.0,0.0,150.0,2.0,0.0
31134,59.0,0.0,150.0,13.0,0.0
31135,61.0,0.0,150.0,13.0,0.0
31136,66.0,0.0,60.0,12.0,0.0
31137,84.0,0.0,60.0,0.0,0.0
31138,72.0,46.0,60.0,0.0,0.0
31139,66.0,0.0,60.0,2.0,0.0
31140,66.0,0.0,60.0,0.0,0.0
31141,72.0,0.0,60.0,11.0,0.0
31142,77.0,2.0,60.0,9.0,0.0
31143,73.0,0.0,60.0,11.0,0.0
31144,65.0,0.0,60.0,2.0,0.0
31145,77.0,2.0,60.0,9.0,0.0
31146,85.0,16.0,60.0,0.0,0.0
31147,65.0,0.0,60.0,0.0,0.0
31148,73.0,0.0,60.0,0.0,0.0
31149,65.0,0.0,60.0,12.0,0.0
31150,77.0,2.0,60.0,9.0,0.0
31151,77.0,0.0,60.0,11.0,0.0
31152,89.0,0.0,60.0,0.0,0.0
31153,71.0,0.0,60.0,2.0,0.0
31154,77.0,0.0,60.0,0.0,0.0
31155,71.0,0.0,60.0,12.0,0.0
31156,71.0,46.0,60.0,0.0,0.0
31157,70.0,0.0,150.0,12.0,0.0
31158,54.0,0.0,150.0,3.0,0.0
31159,78.0,0.0,150.0,11.0,0.0
31160,58.0,0.0,150.0,3.0,0.0
31161,42.0,0.0,150.0,15.0,0.0
31162,61.0,0.0,150.0,5.0,0.0
31163,66.0,0.0,150.0,5.0,0.0
31164,70.0,0.0,150.0,5.0,0.0
31165,30.0,8.0,150.0,3.0,0.0
31166,58.0,0.0,150.0,13.0,0.0
31167,58.0,0.0,150.0,6.0,0.0
31168,54.0,0.0,150.0,6.0,0.0
31169,42.0,0.0,150.0,7.0,0.0
31170,45.0,0.0,330.0,9.0,0.0
31171,49.0,0.0,150.0,6.0,0.0
31172,49.0,0.0,150.0,14.0,0.0
31173,77.0,48.0,60.0,9.0,0.0
31174,78.0,0.0,150.0,0.0,0.0
31175,54.0,0.0,150.0,13.0,0.0
31176,90.0,0.0,150.0,0.0,0.0
31177,70.0,0.0,150.0,1.0,0.0
31178,66.0,0.0,150.0,1.0,0.0
31179,70.0,0.0,150.0,2.0,0.0
31180,70.0,0.0,150.0,0.0,0.0
31181,54.0,0.0,150.0,2.0,0.0
31182,77.0,2.0,60.0,9.0,0.0
31183,77.0,2.0,60.0,9.0,0.0
31184,42.0,46.0,15.0,8.0,0.0
31185,77.0,2.0,60.0,9.0,0.0
31186,42.0,16.0,15.0,8.0,0.0
31187,42.0,22.0,15.0,8.0,0.0
31188,44.0,30.0,150.0,4.0,0.0
31189,77.0,48.0,60.0,9.0,0.0
31190,44.0,0.0,150.0,14.0,0.0
31191,56.0,0.0,150.0,4.0,0.0
31192,44.0,46.0,180.0,8.0,0.0
31193,51.0,0.0,150.0,6.0,0.0
31194,56.0,0.0,150.0,6.0,0.0
31195,39.0,0.0,150.0,14.0,0.0
31196,44.0,0.0,150.0,7.0,0.0
31197,20.0,0.0,150.0,3.0,0.0
31198,39.0,0.0,150.0,6.0,0.0
31199,44.0,0.0,150.0,3.0,0.0
31200,51.0,0.0,150.0,4.0,0.0
31201,44.0,0.0,150.0,2.0,0.0
31202,32.0,0.0,150.0,15.0,0.0
31203,66.0,0.0,60.0,2.0,0.0
31204,84.0,0.0,60.0,11.0,0.0
31205,72.0,0.0,60.0,0.0,0.0
31206,66.0,0.0,60.0,0.0,0.0
31207,77.0,2.0,60.0,9.0,0.0
31208,78.0,0.0,60.0,12.0,0.0
31209,65.0,16.0,60.0,0.0,0.0
31210,77.0,0.0,60.0,12.0,0.0
31211,85.0,0.0,60.0,11.0,0.0
31212,65.0,0.0,60.0,2.0,0.0
31213,77.0,2.0,60.0,9.0,0.0
31214,73.0,0.0,60.0,0.0,0.0
31215,84.0,0.0,60.0,11.0,0.0
31216,66.0,0.0,60.0,2.0,0.0
31217,78.0,0.0,60.0,12.0,0.0
31218,77.0,2.0,60.0,9.0,0.0
31219,72.0,0.0,60.0,0.0,0.0
31220,66.0,0.0,60.0,0.0,0.0
31221,73.0,0.0,330.0,10.0,0.0
31222,85.0,0.0,150.0,11.0,0.0
31223,37.0,0.0,150.0,7.0,0.0
31224,65.0,0.0,150.0,2.0,0.0
31225,25.0,0.0,150.0,3.0,0.0
31226,65.0,0.0,150.0,0.0,0.0
31227,37.0,0.0,150.0,2.0,0.0
31228,37.0,0.0,150.0,6.0,0.0
31229,77.0,0.0,150.0,12.0,0.0
31230,61.0,0.0,330.0,10.0,0.0
31231,37.0,0.0,150.0,3.0,0.0
31232,49.0,0.0,150.0,4.0,0.0
31233,73.0,0.0,150.0,0.0,0.0
31234,25.0,0.0,150.0,15.0,0.0
31235,37.0,0.0,150.0,14.0,0.0
31236,77.0,48.0,60.0,9.0,0.0
31237,77.0,2.0,60.0,9.0,0.0
31238,37.0,46.0,15.0,8.0,0.0
31239,77.0,2.0,60.0,9.0,0.0
31240,77.0,2.0,60.0,9.0,0.0
31241,37.0,16.0,15.0,8.0,0.0
31242,37.0,22.0,15.0,8.0,0.0
31243,56.0,30.0,150.0,2.0,0.0
31244,44.0,0.0,150.0,7.0,0.0
31245,63.0,0.0,150.0,6.0,0.0
31246,51.0,0.0,150.0,6.0,0.0
31247,32.0,0.0,150.0,3.0,0.0
31248,44.0,0.0,150.0,15.0,0.0
31249,56.0,0.0,150.0,13.0,0.0
31250,44.0,0.0,180.0,8.0,0.0
31251,68.0,0.0,150.0,1.0,0.0
31252,56.0,0.0,150.0,3.0,0.0
31253,51.0,0.0,150.0,14.0,0.0
31254,77.0,48.0,60.0,9.0,0.0
31255,68.0,0.0,150.0,6.0,0.0
31256,63.0,0.0,150.0,1.0,0.0
31257,77.0,2.0,60.0,9.0,0.0
31258,84.0,0.0,60.0,11.0,0.0
31259,78.0,46.0,60.0,0.0,0.0
31260,78.0,0.0,60.0,2.0,0.0
31261,84.0,0.0,60.0,0.0,0.0
31262,78.0,0.0,60.0,12.0,0.0
31263,77.0,0.0,60.0,0.0,0.0
31264,77.0,0.0,60.0,2.0,0.0
31265,85.0,0.0,60.0,0.0,0.0
31266,85.0,16.0,60.0,11.0,0.0
31267,77.0,2.0,60.0,9.0,0.0
31268,77.0,0.0,60.0,12.0,0.0
31269,77.0,2.0,60.0,9.0,0.0
31270,78.0,0.0,60.0,12.0,0.0
31271,78.0,0.0,60.0,2.0,0.0
31272,84.0,0.0,60.0,11.0,0.0
31273,84.0,0.0,60.0,0.0,0.0
31274,78.0,0.0,60.0,0.0,0.0
31275,37.0,0.0,150.0,3.0,0.0
31276,61.0,0.0,150.0,6.0,0.0
31277,53.0,0.0,150.0,6.0,0.0
31278,49.0,0.0,150.0,14.0,0.0
31279,37.0,0.0,150.0,2.0,0.0
31280,49.0,0.0,150.0,6.0,0.0
31281,77.0,48.0,60.0,9.0,0.0
31282,61.0,0.0,150.0,1.0,0.0
31283,25.0,0.0,150.0,3.0,0.0
31284,37.0,0.0,150.0,15.0,0.0
31285,73.0,8.0,150.0,1.0,0.0
31286,85.0,0.0,150.0,11.0,0.0
31287,45.0,0.0,330.0,9.0,0.0
31288,77.0,0.0,150.0,2.0,0.0
31289,49.0,0.0,150.0,13.0,0.0
31290,37.0,0.0,150.0,7.0,0.0
31291,85.0,0.0,150.0,0.0,0.0
31292,77.0,0.0,150.0,12.0,0.0
31293,77.0,0.0,150.0,0.0,0.0
31294,77.0,2.0,60.0,9.0,0.0
31295,77.0,2.0,60.0,9.0,0.0
31296,44.0,46.0,15.0,8.0,0.0
31297,77.0,2.0,60.0,9.0,0.0
31298,44.0,22.0,20.0,8.0,0.0
31299,44.0,46.0,20.0,8.0,0.0
31300,63.0,0.0,150.0,1.0,0.0
31301,37.0,46.0,60.0,8.0,0.0
31302,68.0,0.0,150.0,1.0,0.0
31303,56.0,0.0,150.0,2.0,0.0
31304,56.0,0.0,150.0,14.0,0.0
31305,68.0,0.0,150.0,13.0,0.0
31306,44.0,0.0,150.0,15.0,0.0
31307,56.0,8.0,150.0,6.0,0.0
31308,51.0,0.0,150.0,6.0,0.0
31309,77.0,2.0,60.0,9.0,0.0
31310,68.0,0.0,150.0,4.0,0.0
31311,56.0,0.0,150.0,4.0,0.0
31312,63.0,0.0,150.0,4.0,0.0
31313,63.0,0.0,150.0,13.0,0.0
31314,44.0,0.0,60.0,8.0,0.0
31315,77.0,2.0,60.0,9.0,0.0
31316,84.0,46.0,60.0,0.0,0.0
31317,78.0,0.0,60.0,12.0,0.0
31318,78.0,0.0,60.0,0.0,0.0
31319,96.0,0.0,60.0,0.0,0.0
31320,84.0,0.0,60.0,11.0,0.0
31321,78.0,0.0,60.0,2.0,0.0
31322,77.0,0.0,60.0,12.0,0.0
31323,85.0,0.0,60.0,0.0,0.0
31324,85.0,0.0,60.0,11.0,0.0
31325,97.0,0.0,60.0,0.0,0.0
31326,77.0,16.0,60.0,0.0,0.0
31327,77.0,0.0,60.0,2.0,0.0
31328,77.0,2.0,60.0,9.0,0.0
31329,78.0,0.0,60.0,12.0,0.0
31330,78.0,0.0,60.0,2.0,0.0
31331,84.0,0.0,60.0,0.0,0.0
31332,96.0,0.0,60.0,0.0,0.0
31333,34.0,14.0,30.0,9.0,0.0
31334,77.0,2.0,60.0,9.0,0.0
31335,84.0,0.0,60.0,11.0,0.0
31336,44.0,0.0,15.0,8.0,0.0
31337,78.0,32.0,60.0,0.0,0.0
31338,44.0,8.0,15.0,8.0,0.0
31339,97.0,46.0,60.0,0.0,0.0
31340,49.0,0.0,30.0,2.0,0.0
31341,61.0,0.0,330.0,10.0,0.0
31342,37.0,0.0,60.0,8.0,0.0
31343,85.0,0.0,60.0,11.0,0.0
31344,37.0,0.0,30.0,15.0,0.0
31345,77.0,0.0,60.0,12.0,0.0
31346,77.0,2.0,60.0,9.0,0.0
31347,61.0,0.0,30.0,4.0,0.0
31348,85.0,0.0,60.0,0.0,0.0
31349,77.0,0.0,60.0,0.0,0.0
31350,49.0,0.0,30.0,14.0,0.0
31351,34.0,0.0,30.0,9.0,0.0
31352,61.0,0.0,30.0,13.0,0.0
31353,49.0,0.0,30.0,6.0,0.0
31354,77.0,0.0,60.0,2.0,0.0
31355,73.0,0.0,330.0,10.0,0.0
31356,49.0,0.0,30.0,4.0,0.0
31357,49.0,0.0,30.0,7.0,0.0
31358,61.0,0.0,30.0,1.0,0.0
31359,78.0,0.0,60.0,12.0,0.0
31360,78.0,0.0,60.0,2.0,0.0
31361,77.0,0.0,60.0,9.0,0.0
31362,44.0,0.0,60.0,8.0,0.0
31363,96.0,46.0,60.0,0.0,0.0
31364,84.0,0.0,60.0,0.0,0.0
31365,78.0,0.0,60.0,0.0,0.0
31366,84.0,0.0,60.0,11.0,0.0
31367,77.0,0.0,60.0,2.0,0.0
31368,44.0,0.0,60.0,8.0,0.0
31369,77.0,0.0,60.0,12.0,0.0
31370,85.0,0.0,60.0,11.0,0.0
31371,77.0,0.0,60.0,0.0,0.0
31372,97.0,0.0,60.0,0.0,0.0
31373,85.0,24.0,60.0,0.0,0.0
31374,77.0,2.0,60.0,9.0,0.0
31375,44.0,0.0,30.0,15.0,0.0
31376,63.0,0.0,30.0,1.0,0.0
31377,84.0,32.0,60.0,11.0,0.0
31378,56.0,0.0,30.0,14.0,0.0
31379,96.0,0.0,60.0,0.0,0.0
31380,34.0,0.0,30.0,9.0,0.0
31381,77.0,2.0,60.0,9.0,0.0
31382,56.0,0.0,30.0,2.0,0.0
31383,78.0,0.0,60.0,2.0,0.0
31384,68.0,0.0,30.0,1.0,0.0
31385,84.0,0.0,60.0,0.0,0.0
31386,63.0,0.0,30.0,13.0,0.0
31387,68.0,0.0,30.0,13.0,0.0
31388,78.0,0.0,60.0,0.0,0.0
31389,68.0,0.0,30.0,4.0,0.0
31390,56.0,0.0,30.0,4.0,0.0
31391,78.0,0.0,60.0,12.0,0.0
31392,63.0,0.0,30.0,4.0,0.0
31393,44.0,8.0,15.0,8.0,0.0
31394,61.0,0.0,30.0,1.0,0.0
31395,49.0,0.0,30.0,2.0,0.0
31396,77.0,0.0,60.0,12.0,0.0
31397,77.0,0.0,60.0,2.0,0.0
31398,97.0,0.0,60.0,0.0,0.0
31399,49.0,0.0,30.0,4.0,0.0
31400,61.0,0.0,30.0,4.0,0.0
31401,61.0,0.0,30.0,13.0,0.0
31402,77.0,2.0,60.0,9.0,0.0
31403,85.0,0.0,60.0,0.0,0.0
31404,37.0,14.0,30.0,15.0,0.0
31405,49.0,0.0,30.0,14.0,0.0
31406,34.0,0.0,30.0,9.0,0.0
31407,85.0,46.0,60.0,11.0,0.0
31408,37.0,0.0,60.0,8.0,0.0
31409,77.0,0.0,60.0,0.0,0.0
31410,84.0,0.0,60.0,11.0,0.0
31411,96.0,46.0,60.0,0.0,0.0
31412,77.0,0.0,60.0,9.0,0.0
31413,78.0,0.0,60.0,2.0,0.0
31414,78.0,0.0,60.0,0.0,0.0
31415,84.0,0.0,60.0,0.0,0.0
31416,78.0,0.0,60.0,12.0,0.0
31417,77.0,2.0,60.0,0.0,0.0
31418,37.0,0.0,15.0,8.0,0.0
31419,77.0,0.0,60.0,12.0,0.0
31420,85.0,0.0,60.0,0.0,0.0
31421,77.0,0.0,60.0,9.0,0.0
31422,97.0,0.0,60.0,0.0,0.0
31423,85.0,0.0,60.0,11.0,0.0
31424,77.0,0.0,60.0,2.0,0.0
31425,71.0,0.0,60.0,2.0,0.0
31426,73.0,0.0,30.0,5.0,0.0
31427,68.0,0.0,30.0,5.0,0.0
31428,34.0,0.0,30.0,9.0,0.0
31429,56.0,0.0,30.0,6.0,0.0
31430,61.0,0.0,30.0,6.0,0.0
31431,49.0,0.0,30.0,2.0,0.0
31432,71.0,0.0,60.0,0.0,0.0
31433,77.0,32.0,60.0,0.0,0.0
31434,61.0,0.0,30.0,5.0,0.0
31435,89.0,0.0,60.0,0.0,0.0
31436,77.0,0.0,60.0,9.0,0.0
31437,68.0,14.0,30.0,13.0,0.0
31438,73.0,0.0,30.0,13.0,0.0
31439,61.0,0.0,30.0,14.0,0.0
31440,80.0,0.0,30.0,1.0,0.0
31441,37.0,8.0,20.0,8.0,0.0
31442,77.0,0.0,60.0,11.0,0.0
31443,61.0,0.0,30.0,4.0,0.0
31444,49.0,0.0,30.0,15.0,0.0
31445,71.0,0.0,60.0,12.0,0.0
31446,68.0,0.0,30.0,4.0,0.0
31447,37.0,0.0,20.0,8.0,0.0
31448,70.0,0.0,60.0,12.0,0.0
31449,34.0,0.0,30.0,9.0,0.0
31450,42.0,0.0,30.0,15.0,0.0
31451,42.0,0.0,90.0,8.0,0.0
31452,70.0,46.0,60.0,2.0,0.0
31453,78.0,14.0,30.0,1.0,0.0
31454,54.0,0.0,30.0,6.0,0.0
31455,45.0,24.0,330.0,9.0,0.0
31456,66.0,0.0,30.0,13.0,0.0
31457,42.0,0.0,30.0,2.0,0.0
31458,54.0,0.0,30.0,4.0,0.0
31459,66.0,0.0,30.0,4.0,0.0
31460,78.0,0.0,60.0,11.0,0.0
31461,54.0,0.0,30.0,5.0,0.0
31462,70.0,0.0,60.0,0.0,0.0
31463,42.0,0.0,30.0,7.0,0.0
31464,54.0,0.0,30.0,14.0,0.0
31465,90.0,0.0,60.0,0.0,0.0
31466,78.0,0.0,60.0,0.0,0.0
31467,66.0,0.0,30.0,5.0,0.0
31468,77.0,2.0,60.0,9.0,0.0
31469,42.0,0.0,30.0,6.0,0.0
31470,77.0,0.0,60.0,9.0,0.0
31471,77.0,0.0,60.0,0.0,0.0
31472,71.0,0.0,60.0,0.0,0.0
31473,89.0,0.0,60.0,0.0,0.0
31474,71.0,0.0,60.0,2.0,0.0
31475,71.0,0.0,60.0,12.0,0.0
31476,77.0,46.0,60.0,11.0,0.0
31477,90.0,0.0,60.0,0.0,0.0
31478,70.0,0.0,60.0,0.0,0.0
31479,70.0,0.0,60.0,12.0,0.0
31480,78.0,0.0,60.0,0.0,0.0
31481,70.0,0.0,60.0,2.0,0.0
31482,77.0,26.0,60.0,9.0,0.0
31483,78.0,0.0,60.0,11.0,0.0
31484,56.0,0.0,30.0,3.0,0.0
31485,65.0,0.0,60.0,11.0,0.0
31486,56.0,0.0,30.0,6.0,0.0
31487,61.0,0.0,30.0,6.0,0.0
31488,56.0,0.0,60.0,4.0,0.0
31489,34.0,0.0,30.0,9.0,0.0
31490,73.0,0.0,30.0,5.0,0.0
31491,71.0,0.0,60.0,2.0,0.0
31492,49.0,0.0,30.0,15.0,0.0
31493,65.0,0.0,60.0,0.0,0.0
31494,77.0,0.0,60.0,0.0,0.0
31495,56.0,0.0,30.0,14.0,0.0
31496,61.0,0.0,30.0,13.0,0.0
31497,61.0,0.0,30.0,3.0,0.0
31498,77.0,0.0,60.0,9.0,0.0
31499,61.0,2.0,60.0,4.0,0.0
31500,61.0,0.0,30.0,2.0,0.0
31501,68.0,0.0,30.0,1.0,0.0
31502,71.0,0.0,60.0,12.0,0.0
31503,68.0,14.0,30.0,5.0,0.0
31504,61.0,0.0,30.0,5.0,0.0
31505,49.0,0.0,30.0,3.0,0.0
31506,73.0,0.0,30.0,1.0,0.0
31507,37.0,8.0,15.0,8.0,0.0
31508,42.0,0.0,30.0,3.0,0.0
31509,54.0,0.0,30.0,14.0,0.0
31510,54.0,14.0,30.0,13.0,0.0
31511,78.0,0.0,60.0,0.0,0.0
31512,42.0,0.0,30.0,6.0,0.0
31513,42.0,0.0,30.0,7.0,0.0
31514,54.0,0.0,30.0,5.0,0.0
31515,66.0,46.0,60.0,11.0,0.0
31516,77.0,2.0,60.0,9.0,0.0
31517,66.0,0.0,30.0,1.0,0.0
31518,54.0,0.0,30.0,3.0,0.0
31519,70.0,0.0,60.0,2.0,0.0
31520,66.0,0.0,60.0,0.0,0.0
31521,66.0,0.0,30.0,5.0,0.0
31522,34.0,0.0,30.0,9.0,0.0
31523,42.0,0.0,30.0,15.0,0.0
31524,54.0,0.0,30.0,2.0,0.0
31525,70.0,0.0,60.0,12.0,0.0
31526,54.0,0.0,30.0,4.0,0.0
31527,42.0,0.0,90.0,8.0,0.0
31528,54.0,0.0,30.0,6.0,0.0
31529,77.0,0.0,60.0,9.0,0.0
31530,65.0,0.0,60.0,11.0,0.0
31531,71.0,0.0,60.0,12.0,0.0
31532,77.0,46.0,60.0,0.0,0.0
31533,71.0,0.0,60.0,2.0,0.0
31534,65.0,0.0,60.0,0.0,0.0
31535,70.0,0.0,60.0,2.0,0.0
31536,66.0,0.0,60.0,11.0,0.0
31537,78.0,0.0,60.0,0.0,0.0
31538,66.0,2.0,60.0,0.0,0.0
31539,77.0,0.0,60.0,9.0,0.0
31540,70.0,0.0,60.0,12.0,0.0
31541,73.0,0.0,30.0,5.0,0.0
31542,49.0,0.0,30.0,2.0,0.0
31543,65.0,0.0,60.0,0.0,0.0
31544,77.0,0.0,60.0,0.0,0.0
31545,37.0,8.0,20.0,8.0,0.0
31546,61.0,0.0,30.0,6.0,0.0
31547,56.0,0.0,30.0,6.0,0.0
31548,65.0,0.0,60.0,11.0,0.0
31549,44.0,0.0,30.0,14.0,0.0
31550,49.0,0.0,30.0,3.0,0.0
31551,44.0,0.0,30.0,3.0,0.0
31552,77.0,0.0,60.0,9.0,0.0
31553,73.0,0.0,30.0,1.0,0.0
31554,68.0,0.0,30.0,1.0,0.0
31555,61.0,0.0,30.0,13.0,0.0
31556,68.0,14.0,30.0,5.0,0.0
31557,61.0,0.0,60.0,4.0,0.0
31558,34.0,0.0,30.0,9.0,0.0
31559,59.0,0.0,60.0,2.0,0.0
31560,56.0,2.0,60.0,4.0,0.0
31561,37.0,0.0,30.0,3.0,0.0
31562,37.0,0.0,30.0,15.0,0.0
31563,59.0,32.0,60.0,12.0,0.0
31564,61.0,0.0,30.0,5.0,0.0
31565,37.0,0.0,20.0,8.0,0.0
31566,42.0,0.0,30.0,7.0,0.0
31567,42.0,0.0,30.0,3.0,0.0
31568,58.0,0.0,60.0,2.0,0.0
31569,54.0,0.0,30.0,13.0,0.0
31570,42.0,0.0,30.0,14.0,0.0
31571,54.0,0.0,30.0,5.0,0.0
31572,66.0,0.0,30.0,5.0,0.0
31573,34.0,0.0,30.0,9.0,0.0
31574,66.0,0.0,60.0,0.0,0.0
31575,77.0,2.0,60.0,9.0,0.0
31576,42.0,0.0,90.0,8.0,0.0
31577,54.0,0.0,30.0,6.0,0.0
31578,30.0,0.0,30.0,15.0,0.0
31579,42.0,0.0,30.0,6.0,0.0
31580,78.0,16.0,60.0,0.0,0.0
31581,58.0,0.0,60.0,12.0,0.0
31582,30.0,0.0,30.0,3.0,0.0
31583,42.0,0.0,30.0,2.0,0.0
31584,66.0,0.0,30.0,1.0,0.0
31585,54.0,0.0,30.0,4.0,0.0
31586,66.0,0.0,60.0,11.0,0.0
31587,34.0,24.0,15.0,9.0,0.0
31588,65.0,0.0,60.0,0.0,0.0
31589,65.0,0.0,60.0,11.0,0.0
31590,77.0,0.0,60.0,9.0,0.0
31591,59.0,0.0,60.0,12.0,0.0
31592,59.0,32.0,60.0,2.0,0.0
31593,77.0,0.0,60.0,0.0,0.0
31594,34.0,6.0,15.0,9.0,0.0
31595,34.0,14.0,30.0,9.0,0.0
31596,58.0,0.0,60.0,12.0,0.0
31597,78.0,0.0,60.0,0.0,0.0
31598,66.0,0.0,60.0,0.0,0.0
31599,58.0,0.0,60.0,2.0,0.0
31600,66.0,24.0,60.0,11.0,0.0
31601,77.0,2.0,60.0,9.0,0.0
31602,44.0,0.0,30.0,14.0,0.0
31603,34.0,14.0,30.0,9.0,0.0
31604,61.0,0.0,30.0,5.0,0.0
31605,61.0,0.0,30.0,6.0,0.0
31606,56.0,0.0,30.0,6.0,0.0
31607,56.0,2.0,60.0,4.0,0.0
31608,37.0,8.0,20.0,8.0,0.0
31609,59.0,0.0,60.0,12.0,0.0
31610,61.0,0.0,60.0,4.0,0.0
31611,73.0,0.0,30.0,5.0,0.0
31612,65.0,0.0,60.0,0.0,0.0
31613,37.0,0.0,30.0,15.0,0.0
31614,68.0,0.0,30.0,1.0,0.0
31615,49.0,0.0,30.0,2.0,0.0
31616,68.0,0.0,30.0,5.0,0.0
31617,44.0,0.0,30.0,3.0,0.0
31618,73.0,0.0,30.0,1.0,0.0
31619,37.0,0.0,30.0,3.0,0.0
31620,77.0,0.0,60.0,0.0,0.0
31621,59.0,32.0,60.0,2.0,0.0
31622,61.0,0.0,30.0,13.0,0.0
31623,77.0,0.0,60.0,9.0,0.0
31624,65.0,0.0,60.0,11.0,0.0
31625,49.0,0.0,30.0,3.0,0.0
31626,37.0,0.0,20.0,8.0,0.0
31627,30.0,14.0,30.0,3.0,0.0
31628,54.0,0.0,30.0,5.0,0.0
31629,77.0,2.0,60.0,9.0,0.0
31630,66.0,0.0,30.0,1.0,0.0
31631,42.0,0.0,30.0,2.0,0.0
31632,30.0,0.0,30.0,15.0,0.0
31633,66.0,0.0,60.0,0.0,0.0
31634,66.0,0.0,60.0,11.0,0.0
31635,42.0,0.0,30.0,6.0,0.0
31636,42.0,0.0,30.0,14.0,0.0
31637,42.0,0.0,30.0,3.0,0.0
31638,54.0,0.0,30.0,13.0,0.0
31639,34.0,0.0,30.0,9.0,0.0
31640,58.0,0.0,60.0,12.0,0.0
31641,54.0,0.0,30.0,6.0,0.0
31642,78.0,0.0,60.0,0.0,0.0
31643,42.0,0.0,90.0,8.0,0.0
31644,58.0,16.0,60.0,2.0,0.0
31645,66.0,0.0,30.0,5.0,0.0
31646,54.0,0.0,30.0,4.0,0.0
31647,42.0,0.0,30.0,7.0,0.0
31648,34.0,24.0,15.0,9.0,0.0
31649,77.0,32.0,60.0,0.0,0.0
31650,77.0,0.0,60.0,9.0,0.0
31651,65.0,0.0,60.0,11.0,0.0
31652,65.0,0.0,60.0,0.0,0.0
31653,59.0,0.0,60.0,2.0,0.0
31654,59.0,0.0,60.0,12.0,0.0
31655,34.0,6.0,15.0,9.0,0.0
31656,58.0,0.0,60.0,2.0,0.0
31657,66.0,0.0,60.0,11.0,0.0
31658,58.0,0.0,60.0,12.0,0.0
31659,78.0,0.0,60.0,0.0,0.0
31660,66.0,24.0,60.0,0.0,0.0
31661,77.0,2.0,60.0,9.0,0.0
31662,34.0,14.0,30.0,9.0,0.0
31663,77.0,0.0,60.0,9.0,0.0
31664,59.0,0.0,60.0,2.0,0.0
31665,77.0,0.0,60.0,0.0,0.0
31666,68.0,0.0,30.0,5.0,0.0
31667,49.0,0.0,30.0,2.0,0.0
31668,37.0,0.0,30.0,3.0,0.0
31669,61.0,0.0,60.0,5.0,0.0
31670,61.0,0.0,30.0,13.0,0.0
31671,44.0,0.0,30.0,14.0,0.0
31672,37.0,0.0,30.0,15.0,0.0
31673,59.0,32.0,60.0,12.0,0.0
31674,56.0,0.0,60.0,4.0,0.0
31675,61.0,0.0,60.0,4.0,0.0
31676,65.0,0.0,60.0,0.0,0.0
31677,44.0,0.0,30.0,3.0,0.0
31678,73.0,0.0,30.0,5.0,0.0
31679,65.0,2.0,60.0,11.0,0.0
31680,34.0,0.0,30.0,9.0,0.0
31681,56.0,0.0,30.0,6.0,0.0
31682,61.0,0.0,30.0,6.0,0.0
31683,68.0,0.0,30.0,1.0,0.0
31684,49.0,0.0,30.0,3.0,0.0
31685,73.0,14.0,30.0,1.0,0.0
31686,37.0,8.0,15.0,8.0,0.0
31687,45.0,208.0,330.0,9.0,0.0
31688,34.0,16.0,30.0,9.0,0.0
31689,58.0,0.0,150.0,2.0,0.0
31690,42.0,0.0,150.0,14.0,0.0
31691,30.0,0.0,150.0,15.0,0.0
31692,54.0,0.0,150.0,4.0,0.0
31693,54.0,0.0,150.0,13.0,0.0
31694,42.0,144.0,180.0,8.0,0.0
31695,42.0,0.0,150.0,6.0,0.0
31696,58.0,0.0,150.0,12.0,0.0
31697,42.0,0.0,150.0,7.0,0.0
31698,42.0,0.0,150.0,3.0,0.0
31699,66.0,0.0,150.0,11.0,0.0
31700,66.0,0.0,150.0,0.0,0.0
31701,66.0,0.0,150.0,1.0,0.0
31702,78.0,0.0,150.0,0.0,0.0
31703,54.0,0.0,150.0,5.0,0.0
31704,54.0,112.0,60.0,6.0,0.0
31705,42.0,0.0,150.0,2.0,0.0
31706,77.0,0.0,150.0,9.0,0.0
31707,30.0,0.0,150.0,3.0,0.0
31708,66.0,0.0,150.0,5.0,0.0
31709,66.0,0.0,150.0,5.0,0.0
31710,70.0,0.0,150.0,1.0,0.0
31711,49.0,0.0,150.0,6.0,0.0
31712,58.0,0.0,150.0,4.0,0.0
31713,54.0,0.0,150.0,4.0,0.0
31714,73.0,0.0,150.0,5.0,0.0
31715,90.0,0.0,150.0,0.0,0.0
31716,66.0,0.0,150.0,2.0,0.0
31717,49.0,0.0,150.0,2.0,0.0
31718,49.0,0.0,150.0,7.0,0.0
31719,70.0,0.0,150.0,12.0,0.0
31720,49.0,0.0,150.0,3.0,0.0
31721,66.0,32.0,150.0,12.0,0.0
31722,70.0,0.0,150.0,5.0,0.0
31723,70.0,0.0,150.0,2.0,0.0
31724,78.0,0.0,150.0,11.0,0.0
31725,61.0,0.0,150.0,13.0,0.0
31726,58.0,0.0,150.0,13.0,0.0
31727,78.0,0.0,150.0,0.0,0.0
31728,49.0,0.0,150.0,15.0,0.0
31729,58.0,0.0,150.0,3.0,0.0
31730,54.0,0.0,150.0,3.0,0.0
31731,61.0,0.0,150.0,6.0,0.0
31732,73.0,0.0,150.0,0.0,0.0
31733,73.0,0.0,150.0,11.0,0.0
31734,66.0,0.0,150.0,4.0,0.0
31735,61.0,0.0,150.0,4.0,0.0
31736,58.0,0.0,150.0,6.0,0.0
31737,54.0,0.0,150.0,14.0,0.0
31738,73.0,0.0,150.0,1.0,0.0
31739,42.0,168.0,180.0,8.0,0.0
31740,42.0,0.0,780.0,14.0,0.0
31741,42.0,24.0,20.0,8.0,0.0
31742,30.0,0.0,780.0,15.0,0.0
31743,78.0,0.0,720.0,11.0,0.0
31744,58.0,0.0,720.0,6.0,0.0
31745,54.0,0.0,720.0,6.0,0.0
31746,66.0,0.0,720.0,2.0,0.0
31747,42.0,0.0,720.0,7.0,0.0
31748,54.0,0.0,720.0,13.0,0.0
31749,70.0,0.0,720.0,1.0,0.0
31750,73.0,0.0,720.0,1.0,0.0
31751,73.0,0.0,720.0,11.0,0.0
31752,70.0,0.0,720.0,2.0,0.0
31753,66.0,0.0,720.0,4.0,0.0
31754,61.0,0.0,720.0,4.0,0.0
31755,42.0,0.0,720.0,3.0,0.0
31756,78.0,0.0,720.0,0.0,0.0
31757,73.0,0.0,720.0,0.0,0.0
31758,49.0,0.0,720.0,3.0,0.0
31759,49.0,0.0,720.0,14.0,0.0
31760,42.0,384.0,15.0,8.0,0.0
31761,30.0,0.0,720.0,3.0,0.0
31762,58.0,0.0,720.0,13.0,0.0
31763,46.0,0.0,720.0,2.0,0.0
31764,45.0,0.0,720.0,9.0,0.0
31765,78.0,0.0,720.0,5.0,0.0
31766,70.0,0.0,720.0,5.0,0.0
31767,66.0,0.0,720.0,5.0,0.0
31768,58.0,0.0,720.0,4.0,0.0
31769,49.0,0.0,720.0,6.0,0.0
31770,54.0,0.0,720.0,4.0,0.0
31771,90.0,208.0,720.0,0.0,0.0
31772,70.0,0.0,720.0,12.0,0.0
31773,66.0,0.0,720.0,12.0,0.0
31774,68.0,192.0,150.0,15.0,0.0
31775,68.0,192.0,150.0,15.0,0.0
31776,68.0,0.0,150.0,15.0,0.0
