,note,step,duration,channel,velocity
0,62.0,0.0,40.0,1.0,0.0
1,67.0,0.0,40.0,1.0,0.0
2,70.0,40.0,40.0,1.0,0.0
3,67.0,0.0,40.0,1.0,0.0
4,70.0,40.0,40.0,1.0,0.0
5,62.0,0.0,40.0,1.0,0.0
6,70.0,40.0,40.0,1.0,0.0
7,67.0,0.0,40.0,1.0,0.0
8,62.0,0.0,40.0,1.0,0.0
9,67.0,0.0,40.0,1.0,0.0
10,62.0,0.0,40.0,1.0,0.0
11,70.0,40.0,40.0,1.0,0.0
12,67.0,0.0,40.0,1.0,0.0
13,70.0,40.0,40.0,1.0,0.0
14,62.0,0.0,40.0,1.0,0.0
15,70.0,40.0,40.0,1.0,0.0
16,67.0,0.0,40.0,1.0,0.0
17,62.0,0.0,40.0,1.0,0.0
18,62.0,0.0,40.0,1.0,0.0
19,70.0,0.0,40.0,1.0,0.0
20,42.0,20.0,60.0,2.0,0.0
21,67.0,20.0,40.0,1.0,0.0
22,62.0,0.0,40.0,1.0,0.0
23,70.0,0.0,40.0,1.0,0.0
24,67.0,40.0,40.0,1.0,0.0
25,43.0,0.0,60.0,2.0,0.0
26,67.0,0.0,40.0,1.0,0.0
27,62.0,40.0,40.0,1.0,0.0
28,70.0,0.0,40.0,1.0,0.0
29,70.0,0.0,40.0,1.0,0.0
30,62.0,20.0,40.0,1.0,0.0
31,67.0,0.0,40.0,1.0,0.0
32,69.0,20.0,60.0,0.0,0.0
33,46.0,40.0,120.0,2.0,0.0
34,62.0,40.0,40.0,1.0,0.0
35,67.0,0.0,40.0,1.0,0.0
36,70.0,0.0,40.0,1.0,0.0
37,70.0,0.0,60.0,0.0,0.0
38,70.0,0.0,40.0,1.0,0.0
39,67.0,0.0,40.0,1.0,0.0
40,62.0,0.0,40.0,1.0,0.0
41,74.0,0.0,120.0,0.0,0.0
42,70.0,20.0,40.0,1.0,0.0
43,67.0,0.0,40.0,1.0,0.0
44,62.0,0.0,40.0,1.0,0.0
45,42.0,20.0,60.0,2.0,0.0
46,62.0,40.0,40.0,1.0,0.0
47,70.0,0.0,40.0,1.0,0.0
48,67.0,0.0,40.0,1.0,0.0
49,43.0,0.0,60.0,2.0,0.0
50,67.0,0.0,40.0,1.0,0.0
51,62.0,0.0,40.0,1.0,0.0
52,70.0,40.0,40.0,1.0,0.0
53,69.0,20.0,60.0,0.0,0.0
54,46.0,40.0,120.0,2.0,0.0
55,62.0,20.0,40.0,1.0,0.0
56,70.0,0.0,40.0,1.0,0.0
57,67.0,0.0,40.0,1.0,0.0
58,67.0,0.0,40.0,1.0,0.0
59,62.0,0.0,40.0,1.0,0.0
60,70.0,40.0,40.0,1.0,0.0
61,70.0,0.0,60.0,0.0,0.0
62,67.0,0.0,40.0,1.0,0.0
63,70.0,0.0,40.0,1.0,0.0
64,62.0,0.0,40.0,1.0,0.0
65,67.0,0.0,40.0,1.0,0.0
66,62.0,20.0,40.0,1.0,0.0
67,70.0,0.0,40.0,1.0,0.0
68,42.0,20.0,60.0,2.0,0.0
69,74.0,0.0,120.0,0.0,0.0
70,62.0,0.0,40.0,1.0,0.0
71,70.0,40.0,40.0,1.0,0.0
72,67.0,0.0,40.0,1.0,0.0
73,43.0,0.0,60.0,2.0,0.0
74,70.0,0.0,40.0,1.0,0.0
75,67.0,40.0,40.0,1.0,0.0
76,62.0,0.0,40.0,1.0,0.0
77,73.0,20.0,60.0,0.0,0.0
78,46.0,0.0,120.0,2.0,0.0
79,67.0,20.0,40.0,1.0,0.0
80,70.0,0.0,40.0,1.0,0.0
81,62.0,0.0,40.0,1.0,0.0
82,62.0,0.0,40.0,1.0,0.0
83,67.0,40.0,40.0,1.0,0.0
84,70.0,0.0,40.0,1.0,0.0
85,74.0,0.0,60.0,0.0,0.0
86,67.0,40.0,40.0,1.0,0.0
87,62.0,0.0,40.0,1.0,0.0
88,70.0,0.0,40.0,1.0,0.0
89,37.0,20.0,60.0,2.0,0.0
90,70.0,0.0,40.0,1.0,0.0
91,62.0,0.0,40.0,1.0,0.0
92,82.0,0.0,120.0,0.0,0.0
93,67.0,20.0,40.0,1.0,0.0
94,62.0,40.0,40.0,1.0,0.0
95,70.0,0.0,40.0,1.0,0.0
96,67.0,0.0,40.0,1.0,0.0
97,38.0,0.0,60.0,2.0,0.0
98,70.0,0.0,40.0,1.0,0.0
99,62.0,40.0,40.0,1.0,0.0
100,67.0,0.0,40.0,1.0,0.0
101,81.0,20.0,60.0,0.0,0.0
102,62.0,20.0,40.0,1.0,0.0
103,70.0,0.0,40.0,1.0,0.0
104,67.0,0.0,40.0,1.0,0.0
105,46.0,0.0,120.0,2.0,0.0
106,67.0,0.0,40.0,1.0,0.0
107,62.0,40.0,40.0,1.0,0.0
108,70.0,0.0,40.0,1.0,0.0
109,79.0,40.0,60.0,0.0,0.0
110,70.0,0.0,40.0,1.0,0.0
111,67.0,0.0,40.0,1.0,0.0
112,62.0,0.0,40.0,1.0,0.0
113,75.0,40.0,120.0,0.0,0.0
114,35.0,20.0,60.0,2.0,0.0
115,67.0,20.0,40.0,1.0,0.0
116,69.0,0.0,40.0,1.0,0.0
117,63.0,0.0,40.0,1.0,0.0
118,63.0,0.0,40.0,1.0,0.0
119,69.0,0.0,40.0,1.0,0.0
120,67.0,40.0,40.0,1.0,0.0
121,36.0,0.0,60.0,2.0,0.0
122,63.0,0.0,40.0,1.0,0.0
123,69.0,0.0,40.0,1.0,0.0
124,67.0,0.0,40.0,1.0,0.0
125,48.0,0.0,120.0,2.0,0.0
126,74.0,20.0,60.0,0.0,0.0
127,69.0,20.0,40.0,1.0,0.0
128,67.0,0.0,40.0,1.0,0.0
129,63.0,0.0,40.0,1.0,0.0
130,63.0,0.0,40.0,1.0,0.0
131,69.0,40.0,40.0,1.0,0.0
132,67.0,0.0,40.0,1.0,0.0
133,75.0,0.0,60.0,0.0,0.0
134,67.0,40.0,40.0,1.0,0.0
135,63.0,0.0,40.0,1.0,0.0
136,69.0,0.0,40.0,1.0,0.0
137,67.0,20.0,40.0,1.0,0.0
138,69.0,0.0,40.0,1.0,0.0
139,63.0,0.0,40.0,1.0,0.0
140,79.0,0.0,120.0,0.0,0.0
141,35.0,20.0,60.0,2.0,0.0
142,63.0,0.0,40.0,1.0,0.0
143,67.0,0.0,40.0,1.0,0.0
144,69.0,40.0,40.0,1.0,0.0
145,36.0,0.0,60.0,2.0,0.0
146,69.0,0.0,40.0,1.0,0.0
147,67.0,0.0,40.0,1.0,0.0
148,63.0,40.0,40.0,1.0,0.0
149,63.0,20.0,40.0,1.0,0.0
150,69.0,0.0,40.0,1.0,0.0
151,67.0,0.0,40.0,1.0,0.0
152,48.0,0.0,120.0,2.0,0.0
153,77.0,20.0,60.0,0.0,0.0
154,63.0,0.0,40.0,1.0,0.0
155,67.0,0.0,40.0,1.0,0.0
156,69.0,40.0,40.0,1.0,0.0
157,75.0,0.0,60.0,0.0,0.0
158,67.0,0.0,40.0,1.0,0.0
159,63.0,0.0,40.0,1.0,0.0
160,69.0,40.0,40.0,1.0,0.0
161,72.0,0.0,120.0,0.0,0.0
162,36.0,20.0,60.0,2.0,0.0
163,64.0,0.0,40.0,1.0,0.0
164,67.0,20.0,40.0,1.0,0.0
165,64.0,40.0,40.0,1.0,0.0
166,67.0,0.0,40.0,1.0,0.0
167,37.0,0.0,60.0,2.0,0.0
168,64.0,0.0,40.0,1.0,0.0
169,67.0,40.0,40.0,1.0,0.0
170,70.0,40.0,120.0,0.0,0.0
171,67.0,40.0,40.0,1.0,0.0
172,64.0,0.0,40.0,1.0,0.0
173,49.0,0.0,120.0,2.0,0.0
174,64.0,40.0,40.0,1.0,0.0
175,67.0,0.0,40.0,1.0,0.0
176,67.0,0.0,40.0,1.0,0.0
177,64.0,0.0,40.0,1.0,0.0
178,37.0,20.0,60.0,2.0,0.0
179,66.0,0.0,40.0,1.0,0.0
180,69.0,20.0,40.0,1.0,0.0
181,69.0,0.0,240.0,0.0,0.0
182,69.0,0.0,40.0,1.0,0.0
183,66.0,40.0,40.0,1.0,0.0
184,38.0,0.0,60.0,2.0,0.0
185,69.0,40.0,40.0,1.0,0.0
186,66.0,0.0,40.0,1.0,0.0
187,69.0,0.0,40.0,1.0,0.0
188,74.0,0.0,40.0,1.0,0.0
189,66.0,40.0,40.0,1.0,0.0
190,50.0,0.0,120.0,2.0,0.0
191,66.0,40.0,40.0,1.0,0.0
192,74.0,0.0,40.0,1.0,0.0
193,69.0,0.0,40.0,1.0,0.0
194,74.0,40.0,40.0,1.0,0.0
195,66.0,0.0,40.0,1.0,0.0
196,69.0,0.0,40.0,1.0,0.0
197,69.0,0.0,40.0,1.0,0.0
198,78.0,0.0,40.0,1.0,0.0
199,74.0,40.0,40.0,1.0,0.0
200,69.0,0.0,40.0,1.0,0.0
201,78.0,0.0,40.0,1.0,0.0
202,74.0,40.0,40.0,1.0,0.0
203,78.0,0.0,40.0,1.0,0.0
204,69.0,40.0,40.0,1.0,0.0
205,74.0,0.0,40.0,1.0,0.0
206,78.0,40.0,40.0,1.0,0.0
207,74.0,0.0,40.0,1.0,0.0
208,81.0,0.0,40.0,1.0,0.0
209,78.0,0.0,40.0,1.0,0.0
210,74.0,0.0,40.0,1.0,0.0
211,81.0,40.0,40.0,1.0,0.0
212,74.0,0.0,60.0,0.0,0.0
213,78.0,0.0,40.0,1.0,0.0
214,81.0,0.0,40.0,1.0,0.0
215,74.0,40.0,40.0,1.0,0.0
216,75.0,40.0,120.0,0.0,0.0
217,84.0,40.0,40.0,1.0,0.0
218,79.0,0.0,40.0,1.0,0.0
219,75.0,0.0,180.0,2.0,0.0
220,84.0,0.0,40.0,1.0,0.0
221,79.0,40.0,40.0,1.0,0.0
222,79.0,0.0,40.0,1.0,0.0
223,84.0,0.0,40.0,1.0,0.0
224,82.0,0.0,40.0,1.0,0.0
225,79.0,20.0,40.0,1.0,0.0
226,75.0,20.0,60.0,0.0,0.0
227,82.0,0.0,40.0,1.0,0.0
228,79.0,40.0,40.0,1.0,0.0
229,74.0,0.0,60.0,2.0,0.0
230,74.0,0.0,60.0,0.0,0.0
231,79.0,40.0,40.0,1.0,0.0
232,82.0,0.0,40.0,1.0,0.0
233,79.0,40.0,40.0,1.0,0.0
234,81.0,0.0,40.0,1.0,0.0
235,72.0,40.0,120.0,2.0,0.0
236,72.0,0.0,120.0,0.0,0.0
237,79.0,0.0,40.0,1.0,0.0
238,81.0,40.0,40.0,1.0,0.0
239,81.0,0.0,40.0,1.0,0.0
240,79.0,0.0,40.0,1.0,0.0
241,75.0,20.0,60.0,2.0,0.0
242,84.0,20.0,40.0,1.0,0.0
243,81.0,0.0,40.0,1.0,0.0
244,75.0,0.0,60.0,0.0,0.0
245,84.0,0.0,40.0,1.0,0.0
246,81.0,40.0,40.0,1.0,0.0
247,79.0,0.0,60.0,2.0,0.0
248,79.0,0.0,60.0,0.0,0.0
249,81.0,40.0,40.0,1.0,0.0
250,84.0,0.0,40.0,1.0,0.0
251,81.0,40.0,40.0,1.0,0.0
252,84.0,0.0,40.0,1.0,0.0
253,77.0,0.0,180.0,2.0,0.0
254,77.0,20.0,180.0,0.0,0.0
255,81.0,40.0,40.0,1.0,0.0
256,84.0,0.0,40.0,1.0,0.0
257,81.0,0.0,40.0,1.0,0.0
258,84.0,40.0,40.0,1.0,0.0
259,84.0,0.0,40.0,1.0,0.0
260,81.0,20.0,40.0,1.0,0.0
261,84.0,0.0,40.0,1.0,0.0
262,81.0,40.0,40.0,1.0,0.0
263,75.0,40.0,60.0,0.0,0.0
264,75.0,0.0,60.0,2.0,0.0
265,84.0,0.0,40.0,1.0,0.0
266,81.0,0.0,40.0,1.0,0.0
267,74.0,40.0,120.0,0.0,0.0
268,74.0,0.0,120.0,2.0,0.0
269,77.0,40.0,40.0,1.0,0.0
270,82.0,0.0,40.0,1.0,0.0
271,86.0,0.0,40.0,1.0,0.0
272,86.0,0.0,40.0,1.0,0.0
273,77.0,0.0,40.0,1.0,0.0
274,82.0,40.0,40.0,1.0,0.0
275,82.0,0.0,40.0,1.0,0.0
276,86.0,0.0,40.0,1.0,0.0
277,77.0,0.0,40.0,1.0,0.0
278,77.0,0.0,120.0,2.0,0.0
279,86.0,20.0,40.0,1.0,0.0
280,82.0,0.0,40.0,1.0,0.0
281,77.0,20.0,60.0,0.0,0.0
282,86.0,0.0,40.0,1.0,0.0
283,82.0,40.0,40.0,1.0,0.0
284,77.0,40.0,60.0,0.0,0.0
285,82.0,0.0,40.0,1.0,0.0
286,86.0,0.0,40.0,1.0,0.0
287,82.0,0.0,360.0,0.0,0.0
288,70.0,0.0,240.0,2.0,0.0
289,82.0,40.0,40.0,1.0,0.0
290,89.0,0.0,40.0,1.0,0.0
291,86.0,0.0,40.0,1.0,0.0
292,80.0,0.0,120.0,2.0,0.0
293,89.0,0.0,40.0,1.0,0.0
294,82.0,0.0,40.0,1.0,0.0
295,86.0,40.0,40.0,1.0,0.0
296,82.0,40.0,40.0,1.0,0.0
297,86.0,0.0,40.0,1.0,0.0
298,89.0,0.0,40.0,1.0,0.0
299,79.0,0.0,120.0,2.0,0.0
300,85.0,40.0,40.0,1.0,0.0
301,82.0,0.0,40.0,1.0,0.0
302,88.0,0.0,40.0,1.0,0.0
303,82.0,40.0,40.0,1.0,0.0
304,85.0,0.0,40.0,1.0,0.0
305,88.0,0.0,40.0,1.0,0.0
306,85.0,40.0,40.0,1.0,0.0
307,88.0,0.0,40.0,1.0,0.0
308,82.0,0.0,40.0,1.0,0.0
309,70.0,0.0,240.0,2.0,0.0
310,80.0,40.0,120.0,2.0,0.0
311,89.0,40.0,40.0,1.0,0.0
312,82.0,0.0,40.0,1.0,0.0
313,86.0,0.0,40.0,1.0,0.0
314,89.0,0.0,40.0,1.0,0.0
315,86.0,0.0,40.0,1.0,0.0
316,82.0,40.0,40.0,1.0,0.0
317,82.0,0.0,40.0,1.0,0.0
318,86.0,0.0,40.0,1.0,0.0
319,89.0,0.0,40.0,1.0,0.0
320,88.0,0.0,40.0,1.0,0.0
321,79.0,0.0,120.0,2.0,0.0
322,76.0,0.0,120.0,0.0,0.0
323,85.0,0.0,40.0,1.0,0.0
324,82.0,40.0,40.0,1.0,0.0
325,88.0,0.0,40.0,1.0,0.0
326,82.0,0.0,40.0,1.0,0.0
327,85.0,40.0,40.0,1.0,0.0
328,85.0,0.0,40.0,1.0,0.0
329,88.0,0.0,40.0,1.0,0.0
330,82.0,40.0,40.0,1.0,0.0
331,77.0,0.0,240.0,0.0,0.0
332,82.0,40.0,40.0,1.0,0.0
333,89.0,0.0,40.0,1.0,0.0
334,86.0,0.0,40.0,1.0,0.0
335,70.0,40.0,360.0,2.0,0.0
336,80.0,0.0,120.0,2.0,0.0
337,82.0,0.0,40.0,1.0,0.0
338,86.0,0.0,40.0,1.0,0.0
339,89.0,40.0,40.0,1.0,0.0
340,86.0,0.0,40.0,1.0,0.0
341,89.0,40.0,40.0,1.0,0.0
342,82.0,0.0,40.0,1.0,0.0
343,82.0,40.0,40.0,1.0,0.0
344,77.0,0.0,120.0,2.0,0.0
345,86.0,0.0,40.0,1.0,0.0
346,89.0,0.0,40.0,1.0,0.0
347,82.0,0.0,40.0,1.0,0.0
348,89.0,40.0,40.0,1.0,0.0
349,86.0,0.0,40.0,1.0,0.0
350,89.0,40.0,40.0,1.0,0.0
351,86.0,0.0,40.0,1.0,0.0
352,82.0,0.0,40.0,1.0,0.0
353,78.0,20.0,180.0,0.0,0.0
354,74.0,0.0,120.0,2.0,0.0
355,86.0,0.0,40.0,1.0,0.0
356,80.0,0.0,40.0,1.0,0.0
357,90.0,40.0,40.0,1.0,0.0
358,82.0,0.0,40.0,1.0,0.0
359,82.0,40.0,40.0,1.0,0.0
360,86.0,0.0,40.0,1.0,0.0
361,80.0,0.0,40.0,1.0,0.0
362,90.0,0.0,40.0,1.0,0.0
363,82.0,0.0,40.0,1.0,0.0
364,80.0,0.0,40.0,1.0,0.0
365,86.0,0.0,40.0,1.0,0.0
366,90.0,0.0,40.0,1.0,0.0
367,70.0,0.0,120.0,2.0,0.0
368,90.0,0.0,40.0,1.0,0.0
369,80.0,0.0,40.0,1.0,0.0
370,82.0,0.0,40.0,1.0,0.0
371,86.0,20.0,40.0,1.0,0.0
372,82.0,0.0,40.0,1.0,0.0
373,86.0,0.0,40.0,1.0,0.0
374,80.0,40.0,40.0,1.0,0.0
375,90.0,0.0,40.0,1.0,0.0
376,78.0,0.0,60.0,0.0,0.0
377,86.0,0.0,40.0,1.0,0.0
378,80.0,0.0,40.0,1.0,0.0
379,90.0,0.0,40.0,1.0,0.0
380,82.0,40.0,40.0,1.0,0.0
381,91.0,40.0,40.0,1.0,0.0
382,87.0,0.0,40.0,1.0,0.0
383,70.0,0.0,360.0,2.0,0.0
384,63.0,0.0,360.0,2.0,0.0
385,79.0,0.0,40.0,1.0,0.0
386,79.0,40.0,360.0,0.0,0.0
387,82.0,0.0,40.0,1.0,0.0
388,79.0,0.0,40.0,1.0,0.0
389,91.0,0.0,40.0,1.0,0.0
390,82.0,40.0,40.0,1.0,0.0
391,87.0,0.0,40.0,1.0,0.0
392,91.0,0.0,40.0,1.0,0.0
393,87.0,0.0,40.0,1.0,0.0
394,82.0,40.0,40.0,1.0,0.0
395,79.0,0.0,40.0,1.0,0.0
396,87.0,40.0,40.0,1.0,0.0
397,79.0,0.0,40.0,1.0,0.0
398,82.0,0.0,40.0,1.0,0.0
399,82.0,0.0,40.0,1.0,0.0
400,87.0,40.0,40.0,1.0,0.0
401,79.0,0.0,40.0,1.0,0.0
402,87.0,40.0,40.0,1.0,0.0
403,82.0,0.0,40.0,1.0,0.0
404,79.0,0.0,40.0,1.0,0.0
405,82.0,40.0,40.0,1.0,0.0
406,79.0,0.0,40.0,1.0,0.0
407,75.0,0.0,40.0,1.0,0.0
408,75.0,40.0,40.0,1.0,0.0
409,79.0,0.0,40.0,1.0,0.0
410,82.0,0.0,40.0,1.0,0.0
411,75.0,0.0,40.0,1.0,0.0
412,82.0,0.0,40.0,1.0,0.0
413,79.0,0.0,40.0,1.0,0.0
414,79.0,0.0,40.0,1.0,0.0
415,75.0,40.0,40.0,1.0,0.0
416,70.0,0.0,40.0,1.0,0.0
417,70.0,40.0,40.0,1.0,0.0
418,79.0,0.0,40.0,1.0,0.0
419,75.0,0.0,40.0,1.0,0.0
420,70.0,0.0,40.0,1.0,0.0
421,79.0,0.0,40.0,1.0,0.0
422,75.0,40.0,40.0,1.0,0.0
423,75.0,40.0,40.0,1.0,0.0
424,70.0,0.0,40.0,1.0,0.0
425,67.0,0.0,40.0,1.0,0.0
426,75.0,40.0,40.0,1.0,0.0
427,67.0,0.0,40.0,1.0,0.0
428,70.0,0.0,40.0,1.0,0.0
429,67.0,0.0,40.0,1.0,0.0
430,70.0,0.0,40.0,1.0,0.0
431,75.0,40.0,40.0,1.0,0.0
432,67.0,0.0,40.0,1.0,0.0
433,63.0,0.0,40.0,1.0,0.0
434,70.0,40.0,40.0,1.0,0.0
435,67.0,0.0,40.0,1.0,0.0
436,63.0,40.0,40.0,1.0,0.0
437,70.0,0.0,40.0,1.0,0.0
438,63.0,40.0,40.0,1.0,0.0
439,70.0,0.0,40.0,1.0,0.0
440,67.0,0.0,40.0,1.0,0.0
441,70.0,0.0,40.0,1.0,0.0
442,62.0,20.0,40.0,1.0,0.0
443,67.0,0.0,40.0,1.0,0.0
444,30.0,20.0,60.0,2.0,0.0
445,62.0,40.0,40.0,1.0,0.0
446,70.0,0.0,40.0,1.0,0.0
447,67.0,0.0,40.0,1.0,0.0
448,31.0,0.0,60.0,2.0,0.0
449,62.0,0.0,40.0,1.0,0.0
450,70.0,0.0,40.0,1.0,0.0
451,67.0,40.0,40.0,1.0,0.0
452,67.0,0.0,40.0,1.0,0.0
453,69.0,20.0,60.0,0.0,0.0
454,62.0,0.0,40.0,1.0,0.0
455,70.0,20.0,40.0,1.0,0.0
456,34.0,0.0,120.0,2.0,0.0
457,70.0,40.0,40.0,1.0,0.0
458,67.0,0.0,40.0,1.0,0.0
459,62.0,0.0,40.0,1.0,0.0
460,70.0,40.0,60.0,0.0,0.0
461,62.0,0.0,40.0,1.0,0.0
462,70.0,0.0,40.0,1.0,0.0
463,67.0,0.0,40.0,1.0,0.0
464,30.0,20.0,60.0,2.0,0.0
465,70.0,20.0,40.0,1.0,0.0
466,67.0,0.0,40.0,1.0,0.0
467,62.0,0.0,40.0,1.0,0.0
468,74.0,0.0,120.0,0.0,0.0
469,70.0,40.0,40.0,1.0,0.0
470,67.0,0.0,40.0,1.0,0.0
471,62.0,0.0,40.0,1.0,0.0
472,31.0,0.0,60.0,2.0,0.0
473,62.0,0.0,40.0,1.0,0.0
474,67.0,40.0,40.0,1.0,0.0
475,70.0,0.0,40.0,1.0,0.0
476,67.0,20.0,40.0,1.0,0.0
477,70.0,0.0,40.0,1.0,0.0
478,62.0,0.0,40.0,1.0,0.0
479,69.0,20.0,60.0,0.0,0.0
480,34.0,0.0,120.0,2.0,0.0
481,70.0,40.0,40.0,1.0,0.0
482,62.0,0.0,40.0,1.0,0.0
483,67.0,0.0,40.0,1.0,0.0
484,70.0,0.0,60.0,0.0,0.0
485,70.0,0.0,40.0,1.0,0.0
486,67.0,0.0,40.0,1.0,0.0
487,62.0,40.0,40.0,1.0,0.0
488,74.0,40.0,120.0,0.0,0.0
489,30.0,20.0,60.0,2.0,0.0
490,70.0,0.0,40.0,1.0,0.0
491,62.0,0.0,40.0,1.0,0.0
492,67.0,20.0,40.0,1.0,0.0
493,70.0,0.0,40.0,1.0,0.0
494,67.0,40.0,40.0,1.0,0.0
495,62.0,0.0,40.0,1.0,0.0
496,31.0,0.0,60.0,2.0,0.0
497,62.0,0.0,40.0,1.0,0.0
498,70.0,0.0,40.0,1.0,0.0
499,67.0,0.0,40.0,1.0,0.0
500,73.0,20.0,60.0,0.0,0.0
501,67.0,0.0,40.0,1.0,0.0
502,62.0,20.0,40.0,1.0,0.0
503,70.0,0.0,40.0,1.0,0.0
504,34.0,0.0,120.0,2.0,0.0
505,70.0,40.0,40.0,1.0,0.0
506,62.0,0.0,40.0,1.0,0.0
507,67.0,0.0,40.0,1.0,0.0
508,74.0,40.0,60.0,0.0,0.0
509,62.0,0.0,40.0,1.0,0.0
510,70.0,0.0,40.0,1.0,0.0
511,67.0,0.0,40.0,1.0,0.0
512,82.0,0.0,120.0,0.0,0.0
513,37.0,20.0,60.0,2.0,0.0
514,70.0,0.0,40.0,1.0,0.0
515,67.0,20.0,40.0,1.0,0.0
516,62.0,0.0,40.0,1.0,0.0
517,67.0,0.0,40.0,1.0,0.0
518,70.0,0.0,40.0,1.0,0.0
519,62.0,40.0,40.0,1.0,0.0
520,38.0,0.0,60.0,2.0,0.0
521,62.0,0.0,40.0,1.0,0.0
522,70.0,0.0,40.0,1.0,0.0
523,67.0,40.0,40.0,1.0,0.0
524,70.0,20.0,40.0,1.0,0.0
525,67.0,0.0,40.0,1.0,0.0
526,81.0,20.0,60.0,0.0,0.0
527,62.0,0.0,40.0,1.0,0.0
528,50.0,40.0,120.0,2.0,0.0
529,67.0,0.0,40.0,1.0,0.0
530,70.0,40.0,40.0,1.0,0.0
531,62.0,0.0,40.0,1.0,0.0
532,79.0,0.0,60.0,0.0,0.0
533,62.0,0.0,40.0,1.0,0.0
534,70.0,0.0,40.0,1.0,0.0
535,67.0,0.0,40.0,1.0,0.0
536,35.0,20.0,60.0,2.0,0.0
537,63.0,0.0,40.0,1.0,0.0
538,69.0,0.0,40.0,1.0,0.0
539,67.0,20.0,40.0,1.0,0.0
540,75.0,0.0,120.0,0.0,0.0
541,67.0,0.0,40.0,1.0,0.0
542,69.0,0.0,40.0,1.0,0.0
543,63.0,40.0,40.0,1.0,0.0
544,36.0,0.0,60.0,2.0,0.0
545,63.0,0.0,40.0,1.0,0.0
546,67.0,0.0,40.0,1.0,0.0
547,69.0,40.0,40.0,1.0,0.0
548,63.0,20.0,40.0,1.0,0.0
549,69.0,0.0,40.0,1.0,0.0
550,67.0,0.0,40.0,1.0,0.0
551,48.0,0.0,120.0,2.0,0.0
552,74.0,20.0,60.0,0.0,0.0
553,63.0,40.0,40.0,1.0,0.0
554,69.0,0.0,40.0,1.0,0.0
555,67.0,0.0,40.0,1.0,0.0
556,75.0,40.0,60.0,0.0,0.0
557,63.0,0.0,40.0,1.0,0.0
558,67.0,0.0,40.0,1.0,0.0
559,69.0,0.0,40.0,1.0,0.0
560,79.0,0.0,120.0,0.0,0.0
561,35.0,20.0,60.0,2.0,0.0
562,69.0,20.0,40.0,1.0,0.0
563,67.0,0.0,40.0,1.0,0.0
564,63.0,0.0,40.0,1.0,0.0
565,67.0,0.0,40.0,1.0,0.0
566,63.0,40.0,40.0,1.0,0.0
567,69.0,0.0,40.0,1.0,0.0
568,36.0,0.0,60.0,2.0,0.0
569,63.0,0.0,40.0,1.0,0.0
570,69.0,0.0,40.0,1.0,0.0
571,67.0,40.0,40.0,1.0,0.0
572,63.0,0.0,40.0,1.0,0.0
573,69.0,20.0,40.0,1.0,0.0
574,67.0,0.0,40.0,1.0,0.0
575,48.0,0.0,120.0,2.0,0.0
576,77.0,20.0,60.0,0.0,0.0
577,69.0,0.0,40.0,1.0,0.0
578,63.0,40.0,40.0,1.0,0.0
579,67.0,0.0,40.0,1.0,0.0
580,75.0,0.0,60.0,0.0,0.0
581,67.0,0.0,40.0,1.0,0.0
582,63.0,40.0,40.0,1.0,0.0
583,69.0,0.0,40.0,1.0,0.0
584,36.0,20.0,60.0,2.0,0.0
585,72.0,0.0,120.0,0.0,0.0
586,64.0,0.0,40.0,1.0,0.0
587,67.0,20.0,40.0,1.0,0.0
588,64.0,0.0,40.0,1.0,0.0
589,67.0,40.0,40.0,1.0,0.0
590,37.0,0.0,60.0,2.0,0.0
591,64.0,0.0,40.0,1.0,0.0
592,67.0,40.0,40.0,1.0,0.0
593,49.0,40.0,120.0,2.0,0.0
594,64.0,0.0,40.0,1.0,0.0
595,67.0,40.0,40.0,1.0,0.0
596,70.0,0.0,120.0,0.0,0.0
597,67.0,0.0,40.0,1.0,0.0
598,64.0,40.0,40.0,1.0,0.0
599,67.0,0.0,40.0,1.0,0.0
600,64.0,0.0,40.0,1.0,0.0
601,66.0,20.0,40.0,1.0,0.0
602,69.0,0.0,40.0,1.0,0.0
603,69.0,40.0,240.0,0.0,0.0
604,37.0,20.0,60.0,2.0,0.0
605,69.0,40.0,40.0,1.0,0.0
606,66.0,0.0,40.0,1.0,0.0
607,38.0,40.0,60.0,2.0,0.0
608,69.0,0.0,40.0,1.0,0.0
609,66.0,0.0,40.0,1.0,0.0
610,66.0,0.0,40.0,1.0,0.0
611,50.0,0.0,120.0,2.0,0.0
612,74.0,40.0,40.0,1.0,0.0
613,69.0,0.0,40.0,1.0,0.0
614,66.0,40.0,40.0,1.0,0.0
615,74.0,0.0,40.0,1.0,0.0
616,69.0,0.0,40.0,1.0,0.0
617,69.0,0.0,40.0,1.0,0.0
618,74.0,0.0,40.0,1.0,0.0
619,66.0,0.0,40.0,1.0,0.0
620,78.0,0.0,40.0,1.0,0.0
621,74.0,40.0,40.0,1.0,0.0
622,69.0,0.0,40.0,1.0,0.0
623,78.0,0.0,40.0,1.0,0.0
624,69.0,0.0,40.0,1.0,0.0
625,74.0,40.0,40.0,1.0,0.0
626,74.0,0.0,40.0,1.0,0.0
627,78.0,40.0,40.0,1.0,0.0
628,69.0,0.0,40.0,1.0,0.0
629,78.0,0.0,40.0,1.0,0.0
630,74.0,20.0,60.0,0.0,0.0
631,81.0,0.0,40.0,1.0,0.0
632,74.0,20.0,40.0,1.0,0.0
633,78.0,0.0,40.0,1.0,0.0
634,74.0,0.0,40.0,1.0,0.0
635,81.0,40.0,40.0,1.0,0.0
636,74.0,0.0,60.0,0.0,0.0
637,81.0,0.0,40.0,1.0,0.0
638,74.0,0.0,40.0,1.0,0.0
639,78.0,40.0,40.0,1.0,0.0
640,75.0,0.0,180.0,2.0,0.0
641,75.0,20.0,180.0,0.0,0.0
642,79.0,40.0,40.0,1.0,0.0
643,84.0,0.0,40.0,1.0,0.0
644,79.0,40.0,40.0,1.0,0.0
645,84.0,0.0,40.0,1.0,0.0
646,84.0,40.0,40.0,1.0,0.0
647,79.0,0.0,40.0,1.0,0.0
648,82.0,0.0,40.0,1.0,0.0
649,79.0,20.0,40.0,1.0,0.0
650,79.0,40.0,40.0,1.0,0.0
651,82.0,0.0,40.0,1.0,0.0
652,74.0,0.0,60.0,2.0,0.0
653,74.0,40.0,60.0,0.0,0.0
654,79.0,0.0,40.0,1.0,0.0
655,82.0,0.0,40.0,1.0,0.0
656,72.0,0.0,120.0,0.0,0.0
657,81.0,0.0,40.0,1.0,0.0
658,79.0,40.0,40.0,1.0,0.0
659,72.0,0.0,120.0,2.0,0.0
660,79.0,40.0,40.0,1.0,0.0
661,81.0,0.0,40.0,1.0,0.0
662,81.0,0.0,40.0,1.0,0.0
663,79.0,40.0,40.0,1.0,0.0
664,75.0,0.0,60.0,2.0,0.0
665,79.0,0.0,40.0,1.0,0.0
666,84.0,20.0,40.0,1.0,0.0
667,75.0,20.0,60.0,0.0,0.0
668,79.0,0.0,40.0,1.0,0.0
669,84.0,40.0,40.0,1.0,0.0
670,79.0,40.0,60.0,2.0,0.0
671,79.0,0.0,60.0,0.0,0.0
672,84.0,0.0,40.0,1.0,0.0
673,79.0,0.0,40.0,1.0,0.0
674,81.0,40.0,40.0,1.0,0.0
675,77.0,0.0,180.0,2.0,0.0
676,77.0,20.0,180.0,0.0,0.0
677,84.0,0.0,40.0,1.0,0.0
678,84.0,40.0,40.0,1.0,0.0
679,81.0,0.0,40.0,1.0,0.0
680,84.0,40.0,40.0,1.0,0.0
681,81.0,0.0,40.0,1.0,0.0
682,84.0,20.0,40.0,1.0,0.0
683,81.0,0.0,40.0,1.0,0.0
684,84.0,0.0,40.0,1.0,0.0
685,81.0,40.0,40.0,1.0,0.0
686,75.0,0.0,60.0,0.0,0.0
687,75.0,40.0,60.0,2.0,0.0
688,81.0,0.0,40.0,1.0,0.0
689,84.0,0.0,40.0,1.0,0.0
690,82.0,0.0,40.0,1.0,0.0
691,77.0,0.0,40.0,1.0,0.0
692,86.0,40.0,40.0,1.0,0.0
693,74.0,0.0,120.0,0.0,0.0
694,74.0,40.0,120.0,2.0,0.0
695,86.0,0.0,40.0,1.0,0.0
696,77.0,0.0,40.0,1.0,0.0
697,82.0,40.0,40.0,1.0,0.0
698,86.0,0.0,40.0,1.0,0.0
699,82.0,0.0,40.0,1.0,0.0
700,77.0,0.0,40.0,1.0,0.0
701,77.0,40.0,120.0,2.0,0.0
702,82.0,0.0,40.0,1.0,0.0
703,86.0,20.0,40.0,1.0,0.0
704,77.0,20.0,60.0,0.0,0.0
705,82.0,40.0,40.0,1.0,0.0
706,86.0,0.0,40.0,1.0,0.0
707,77.0,0.0,60.0,0.0,0.0
708,82.0,0.0,40.0,1.0,0.0
709,86.0,0.0,40.0,1.0,0.0
710,82.0,0.0,40.0,1.0,0.0
711,86.0,40.0,40.0,1.0,0.0
712,80.0,40.0,120.0,2.0,0.0
713,82.0,0.0,360.0,0.0,0.0
714,70.0,40.0,240.0,2.0,0.0
715,89.0,0.0,40.0,1.0,0.0
716,82.0,0.0,40.0,1.0,0.0
717,86.0,40.0,40.0,1.0,0.0
718,89.0,0.0,40.0,1.0,0.0
719,86.0,0.0,40.0,1.0,0.0
720,82.0,0.0,40.0,1.0,0.0
721,89.0,0.0,40.0,1.0,0.0
722,79.0,0.0,120.0,2.0,0.0
723,82.0,0.0,40.0,1.0,0.0
724,88.0,40.0,40.0,1.0,0.0
725,85.0,0.0,40.0,1.0,0.0
726,82.0,0.0,40.0,1.0,0.0
727,85.0,40.0,40.0,1.0,0.0
728,88.0,0.0,40.0,1.0,0.0
729,82.0,0.0,40.0,1.0,0.0
730,85.0,0.0,40.0,1.0,0.0
731,88.0,0.0,40.0,1.0,0.0
732,80.0,0.0,120.0,2.0,0.0
733,70.0,0.0,240.0,2.0,0.0
734,82.0,40.0,40.0,1.0,0.0
735,86.0,0.0,40.0,1.0,0.0
736,89.0,0.0,40.0,1.0,0.0
737,86.0,0.0,40.0,1.0,0.0
738,82.0,40.0,40.0,1.0,0.0
739,89.0,0.0,40.0,1.0,0.0
740,86.0,0.0,40.0,1.0,0.0
741,89.0,40.0,40.0,1.0,0.0
742,82.0,0.0,40.0,1.0,0.0
743,76.0,0.0,120.0,0.0,0.0
744,85.0,40.0,40.0,1.0,0.0
745,88.0,0.0,40.0,1.0,0.0
746,82.0,0.0,40.0,1.0,0.0
747,79.0,0.0,120.0,2.0,0.0
748,85.0,40.0,40.0,1.0,0.0
749,88.0,0.0,40.0,1.0,0.0
750,82.0,0.0,40.0,1.0,0.0
751,82.0,40.0,40.0,1.0,0.0
752,88.0,0.0,40.0,1.0,0.0
753,85.0,0.0,40.0,1.0,0.0
754,70.0,0.0,360.0,2.0,0.0
755,77.0,0.0,360.0,0.0,0.0
756,89.0,40.0,40.0,1.0,0.0
757,82.0,0.0,40.0,1.0,0.0
758,86.0,0.0,40.0,1.0,0.0
759,80.0,0.0,120.0,2.0,0.0
760,82.0,40.0,40.0,1.0,0.0
761,89.0,0.0,40.0,1.0,0.0
762,86.0,0.0,40.0,1.0,0.0
763,82.0,40.0,40.0,1.0,0.0
764,89.0,0.0,40.0,1.0,0.0
765,86.0,0.0,40.0,1.0,0.0
766,77.0,40.0,120.0,2.0,0.0
767,82.0,0.0,40.0,1.0,0.0
768,89.0,0.0,40.0,1.0,0.0
769,86.0,40.0,40.0,1.0,0.0
770,89.0,0.0,40.0,1.0,0.0
771,82.0,40.0,40.0,1.0,0.0
772,86.0,0.0,40.0,1.0,0.0
773,82.0,0.0,40.0,1.0,0.0
774,89.0,0.0,40.0,1.0,0.0
775,86.0,0.0,40.0,1.0,0.0
776,86.0,40.0,40.0,1.0,0.0
777,82.0,0.0,40.0,1.0,0.0
778,74.0,0.0,120.0,2.0,0.0
779,89.0,0.0,40.0,1.0,0.0
780,89.0,40.0,40.0,1.0,0.0
781,82.0,0.0,40.0,1.0,0.0
782,86.0,0.0,40.0,1.0,0.0
783,86.0,40.0,40.0,1.0,0.0
784,82.0,0.0,40.0,1.0,0.0
785,89.0,0.0,40.0,1.0,0.0
786,82.0,0.0,40.0,1.0,0.0
787,78.0,0.0,120.0,0.0,0.0
788,70.0,0.0,120.0,2.0,0.0
789,80.0,0.0,40.0,1.0,0.0
790,86.0,40.0,40.0,1.0,0.0
791,90.0,0.0,40.0,1.0,0.0
792,82.0,0.0,40.0,1.0,0.0
793,80.0,0.0,40.0,1.0,0.0
794,90.0,40.0,40.0,1.0,0.0
795,86.0,0.0,40.0,1.0,0.0
796,82.0,0.0,40.0,1.0,0.0
797,80.0,40.0,40.0,1.0,0.0
798,90.0,0.0,40.0,1.0,0.0
799,86.0,0.0,40.0,1.0,0.0
800,91.0,0.0,40.0,1.0,0.0
801,79.0,0.0,360.0,0.0,0.0
802,87.0,40.0,40.0,1.0,0.0
803,79.0,0.0,40.0,1.0,0.0
804,82.0,0.0,40.0,1.0,0.0
805,70.0,0.0,360.0,2.0,0.0
806,63.0,40.0,360.0,2.0,0.0
807,79.0,0.0,40.0,1.0,0.0
808,82.0,0.0,40.0,1.0,0.0
809,91.0,40.0,40.0,1.0,0.0
810,87.0,0.0,40.0,1.0,0.0
811,79.0,0.0,40.0,1.0,0.0
812,87.0,0.0,40.0,1.0,0.0
813,91.0,0.0,40.0,1.0,0.0
814,82.0,40.0,40.0,1.0,0.0
815,87.0,40.0,40.0,1.0,0.0
816,82.0,0.0,40.0,1.0,0.0
817,79.0,0.0,40.0,1.0,0.0
818,87.0,0.0,40.0,1.0,0.0
819,82.0,0.0,40.0,1.0,0.0
820,79.0,40.0,40.0,1.0,0.0
821,87.0,0.0,40.0,1.0,0.0
822,82.0,40.0,40.0,1.0,0.0
823,79.0,0.0,40.0,1.0,0.0
824,79.0,40.0,40.0,1.0,0.0
825,82.0,0.0,40.0,1.0,0.0
826,75.0,0.0,40.0,1.0,0.0
827,75.0,0.0,40.0,1.0,0.0
828,79.0,40.0,40.0,1.0,0.0
829,82.0,0.0,40.0,1.0,0.0
830,75.0,0.0,40.0,1.0,0.0
831,82.0,0.0,40.0,1.0,0.0
832,79.0,0.0,40.0,1.0,0.0
833,75.0,40.0,40.0,1.0,0.0
834,79.0,0.0,40.0,1.0,0.0
835,70.0,0.0,40.0,1.0,0.0
836,75.0,0.0,40.0,1.0,0.0
837,79.0,40.0,40.0,1.0,0.0
838,70.0,0.0,40.0,1.0,0.0
839,75.0,0.0,40.0,1.0,0.0
840,79.0,40.0,40.0,1.0,0.0
841,70.0,0.0,40.0,1.0,0.0
842,70.0,40.0,40.0,1.0,0.0
843,67.0,0.0,40.0,1.0,0.0
844,75.0,0.0,40.0,1.0,0.0
845,75.0,0.0,40.0,1.0,0.0
846,70.0,0.0,40.0,1.0,0.0
847,67.0,40.0,40.0,1.0,0.0
848,70.0,40.0,40.0,1.0,0.0
849,67.0,0.0,40.0,1.0,0.0
850,75.0,0.0,40.0,1.0,0.0
851,67.0,0.0,40.0,1.0,0.0
852,70.0,0.0,40.0,1.0,0.0
853,63.0,40.0,40.0,1.0,0.0
854,63.0,0.0,40.0,1.0,0.0
855,70.0,0.0,40.0,1.0,0.0
856,67.0,40.0,40.0,1.0,0.0
857,63.0,40.0,40.0,1.0,0.0
858,70.0,0.0,40.0,1.0,0.0
859,67.0,0.0,40.0,1.0,0.0
860,42.0,20.0,60.0,2.0,0.0
861,62.0,0.0,40.0,1.0,0.0
862,70.0,20.0,40.0,1.0,0.0
863,67.0,0.0,40.0,1.0,0.0
864,67.0,0.0,40.0,1.0,0.0
865,70.0,0.0,40.0,1.0,0.0
866,62.0,40.0,40.0,1.0,0.0
867,43.0,40.0,60.0,2.0,0.0
868,62.0,0.0,40.0,1.0,0.0
869,70.0,0.0,40.0,1.0,0.0
870,67.0,0.0,40.0,1.0,0.0
871,70.0,20.0,40.0,1.0,0.0
872,67.0,0.0,40.0,1.0,0.0
873,69.0,20.0,60.0,0.0,0.0
874,46.0,0.0,120.0,2.0,0.0
875,62.0,0.0,40.0,1.0,0.0
876,67.0,0.0,40.0,1.0,0.0
877,70.0,40.0,40.0,1.0,0.0
878,62.0,0.0,40.0,1.0,0.0
879,70.0,0.0,60.0,0.0,0.0
880,70.0,0.0,40.0,1.0,0.0
881,62.0,40.0,40.0,1.0,0.0
882,67.0,0.0,40.0,1.0,0.0
883,74.0,40.0,120.0,0.0,0.0
884,70.0,20.0,40.0,1.0,0.0
885,67.0,0.0,40.0,1.0,0.0
886,42.0,20.0,60.0,2.0,0.0
887,62.0,0.0,40.0,1.0,0.0
888,67.0,40.0,40.0,1.0,0.0
889,62.0,0.0,40.0,1.0,0.0
890,70.0,0.0,40.0,1.0,0.0
891,43.0,0.0,60.0,2.0,0.0
892,70.0,0.0,40.0,1.0,0.0
893,67.0,0.0,40.0,1.0,0.0
894,62.0,0.0,40.0,1.0,0.0
895,46.0,0.0,120.0,2.0,0.0
896,67.0,0.0,40.0,1.0,0.0
897,62.0,0.0,40.0,1.0,0.0
898,69.0,20.0,60.0,0.0,0.0
899,70.0,20.0,40.0,1.0,0.0
900,67.0,0.0,40.0,1.0,0.0
901,62.0,0.0,40.0,1.0,0.0
902,70.0,40.0,40.0,1.0,0.0
903,70.0,40.0,60.0,0.0,0.0
904,67.0,0.0,40.0,1.0,0.0
905,70.0,0.0,40.0,1.0,0.0
906,62.0,0.0,40.0,1.0,0.0
907,70.0,20.0,40.0,1.0,0.0
908,67.0,0.0,40.0,1.0,0.0
909,62.0,0.0,40.0,1.0,0.0
910,42.0,20.0,60.0,2.0,0.0
911,74.0,0.0,120.0,0.0,0.0
912,67.0,0.0,40.0,1.0,0.0
913,62.0,40.0,40.0,1.0,0.0
914,70.0,0.0,40.0,1.0,0.0
915,43.0,0.0,60.0,2.0,0.0
916,67.0,0.0,40.0,1.0,0.0
917,62.0,40.0,40.0,1.0,0.0
918,70.0,0.0,40.0,1.0,0.0
919,70.0,20.0,40.0,1.0,0.0
920,67.0,0.0,40.0,1.0,0.0
921,62.0,0.0,40.0,1.0,0.0
922,73.0,20.0,60.0,0.0,0.0
923,46.0,0.0,120.0,2.0,0.0
924,62.0,0.0,40.0,1.0,0.0
925,70.0,40.0,40.0,1.0,0.0
926,67.0,0.0,40.0,1.0,0.0
927,74.0,40.0,60.0,0.0,0.0
928,70.0,0.0,40.0,1.0,0.0
929,62.0,0.0,40.0,1.0,0.0
930,67.0,0.0,40.0,1.0,0.0
931,70.0,0.0,40.0,1.0,0.0
932,67.0,0.0,40.0,1.0,0.0
933,62.0,20.0,40.0,1.0,0.0
934,37.0,20.0,60.0,2.0,0.0
935,82.0,0.0,120.0,0.0,0.0
936,67.0,0.0,40.0,1.0,0.0
937,70.0,0.0,40.0,1.0,0.0
938,62.0,40.0,40.0,1.0,0.0
939,38.0,0.0,60.0,2.0,0.0
940,70.0,40.0,40.0,1.0,0.0
941,62.0,0.0,40.0,1.0,0.0
942,67.0,0.0,40.0,1.0,0.0
943,67.0,0.0,40.0,1.0,0.0
944,70.0,20.0,40.0,1.0,0.0
945,62.0,0.0,40.0,1.0,0.0
946,46.0,0.0,120.0,2.0,0.0
947,81.0,20.0,60.0,0.0,0.0
948,70.0,0.0,40.0,1.0,0.0
949,62.0,40.0,40.0,1.0,0.0
950,67.0,0.0,40.0,1.0,0.0
951,79.0,0.0,60.0,0.0,0.0
952,62.0,0.0,40.0,1.0,0.0
953,67.0,40.0,40.0,1.0,0.0
954,70.0,0.0,40.0,1.0,0.0
955,75.0,40.0,120.0,0.0,0.0
956,67.0,0.0,40.0,1.0,0.0
957,69.0,20.0,40.0,1.0,0.0
958,63.0,0.0,40.0,1.0,0.0
959,35.0,20.0,60.0,2.0,0.0
960,63.0,40.0,40.0,1.0,0.0
961,67.0,0.0,40.0,1.0,0.0
962,69.0,0.0,40.0,1.0,0.0
963,36.0,0.0,60.0,2.0,0.0
964,67.0,0.0,40.0,1.0,0.0
965,63.0,0.0,40.0,1.0,0.0
966,69.0,0.0,40.0,1.0,0.0
967,74.0,20.0,60.0,0.0,0.0
968,48.0,40.0,120.0,2.0,0.0
969,69.0,0.0,40.0,1.0,0.0
970,67.0,20.0,40.0,1.0,0.0
971,63.0,0.0,40.0,1.0,0.0
972,63.0,0.0,40.0,1.0,0.0
973,67.0,40.0,40.0,1.0,0.0
974,69.0,0.0,40.0,1.0,0.0
975,75.0,0.0,60.0,0.0,0.0
976,63.0,0.0,40.0,1.0,0.0
977,69.0,0.0,40.0,1.0,0.0
978,67.0,0.0,40.0,1.0,0.0
979,35.0,20.0,60.0,2.0,0.0
980,69.0,20.0,40.0,1.0,0.0
981,79.0,0.0,120.0,0.0,0.0
982,63.0,0.0,40.0,1.0,0.0
983,67.0,0.0,40.0,1.0,0.0
984,69.0,0.0,40.0,1.0,0.0
985,63.0,40.0,40.0,1.0,0.0
986,67.0,0.0,40.0,1.0,0.0
987,36.0,40.0,60.0,2.0,0.0
988,63.0,0.0,40.0,1.0,0.0
989,69.0,0.0,40.0,1.0,0.0
990,67.0,0.0,40.0,1.0,0.0
991,67.0,0.0,40.0,1.0,0.0
992,69.0,20.0,40.0,1.0,0.0
993,63.0,0.0,40.0,1.0,0.0
994,48.0,0.0,120.0,2.0,0.0
995,77.0,20.0,60.0,0.0,0.0
996,67.0,40.0,40.0,1.0,0.0
997,63.0,0.0,40.0,1.0,0.0
998,69.0,0.0,40.0,1.0,0.0
999,75.0,40.0,60.0,0.0,0.0
1000,69.0,0.0,40.0,1.0,0.0
1001,67.0,0.0,40.0,1.0,0.0
1002,63.0,0.0,40.0,1.0,0.0
1003,36.0,20.0,60.0,2.0,0.0
1004,72.0,0.0,120.0,0.0,0.0
1005,67.0,20.0,40.0,1.0,0.0
1006,64.0,0.0,40.0,1.0,0.0
1007,67.0,0.0,40.0,1.0,0.0
1008,64.0,40.0,40.0,1.0,0.0
1009,37.0,0.0,60.0,2.0,0.0
1010,67.0,40.0,40.0,1.0,0.0
1011,64.0,0.0,40.0,1.0,0.0
1012,64.0,0.0,40.0,1.0,0.0
1013,49.0,0.0,120.0,2.0,0.0
1014,70.0,0.0,120.0,0.0,0.0
1015,67.0,40.0,40.0,1.0,0.0
1016,64.0,0.0,40.0,1.0,0.0
1017,67.0,40.0,40.0,1.0,0.0
1018,67.0,0.0,40.0,1.0,0.0
1019,64.0,40.0,40.0,1.0,0.0
1020,69.0,20.0,40.0,1.0,0.0
1021,37.0,20.0,60.0,2.0,0.0
1022,66.0,0.0,40.0,1.0,0.0
1023,69.0,0.0,240.0,0.0,0.0
1024,69.0,40.0,40.0,1.0,0.0
1025,66.0,0.0,40.0,1.0,0.0
1026,38.0,40.0,60.0,2.0,0.0
1027,69.0,0.0,40.0,1.0,0.0
1028,66.0,0.0,40.0,1.0,0.0
1029,66.0,0.0,40.0,1.0,0.0
1030,74.0,40.0,40.0,1.0,0.0
1031,69.0,0.0,40.0,1.0,0.0
1032,50.0,40.0,120.0,2.0,0.0
1033,74.0,0.0,40.0,1.0,0.0
1034,69.0,40.0,40.0,1.0,0.0
1035,66.0,0.0,40.0,1.0,0.0
1036,66.0,0.0,40.0,1.0,0.0
1037,74.0,0.0,40.0,1.0,0.0
1038,69.0,0.0,40.0,1.0,0.0
1039,69.0,0.0,40.0,1.0,0.0
1040,49.0,20.0,60.0,2.0,0.0
1041,78.0,0.0,40.0,1.0,0.0
1042,74.0,20.0,40.0,1.0,0.0
1043,78.0,40.0,40.0,1.0,0.0
1044,74.0,0.0,40.0,1.0,0.0
1045,69.0,0.0,40.0,1.0,0.0
1046,50.0,40.0,60.0,2.0,0.0
1047,78.0,0.0,40.0,1.0,0.0
1048,69.0,0.0,40.0,1.0,0.0
1049,74.0,0.0,40.0,1.0,0.0
1050,72.0,0.0,40.0,1.0,0.0
1051,81.0,40.0,40.0,1.0,0.0
1052,78.0,0.0,40.0,1.0,0.0
1053,74.0,0.0,40.0,1.0,0.0
1054,62.0,40.0,120.0,2.0,0.0
1055,81.0,0.0,40.0,1.0,0.0
1056,74.0,0.0,40.0,1.0,0.0
1057,72.0,0.0,40.0,1.0,0.0
1058,78.0,40.0,40.0,1.0,0.0
1059,74.0,0.0,60.0,0.0,0.0
1060,81.0,0.0,40.0,1.0,0.0
1061,72.0,0.0,40.0,1.0,0.0
1062,74.0,0.0,40.0,1.0,0.0
1063,78.0,0.0,40.0,1.0,0.0
1064,79.0,0.0,40.0,1.0,0.0
1065,74.0,0.0,40.0,1.0,0.0
1066,83.0,0.0,40.0,1.0,0.0
1067,71.0,20.0,40.0,1.0,0.0
1068,37.0,20.0,60.0,2.0,0.0
1069,74.0,0.0,120.0,0.0,0.0
1070,71.0,40.0,40.0,1.0,0.0
1071,74.0,0.0,40.0,1.0,0.0
1072,83.0,0.0,40.0,1.0,0.0
1073,79.0,0.0,40.0,1.0,0.0
1074,38.0,0.0,60.0,2.0,0.0
1075,71.0,40.0,40.0,1.0,0.0
1076,83.0,0.0,40.0,1.0,0.0
1077,79.0,0.0,40.0,1.0,0.0
1078,74.0,0.0,40.0,1.0,0.0
1079,70.0,20.0,60.0,0.0,0.0
1080,74.0,0.0,40.0,1.0,0.0
1081,71.0,0.0,40.0,1.0,0.0
1082,79.0,20.0,40.0,1.0,0.0
1083,83.0,0.0,40.0,1.0,0.0
1084,50.0,0.0,120.0,2.0,0.0
1085,71.0,0.0,40.0,1.0,0.0
1086,74.0,0.0,40.0,1.0,0.0
1087,79.0,40.0,40.0,1.0,0.0
1088,83.0,0.0,40.0,1.0,0.0
1089,71.0,0.0,60.0,0.0,0.0
1090,83.0,0.0,40.0,1.0,0.0
1091,71.0,0.0,40.0,1.0,0.0
1092,74.0,40.0,40.0,1.0,0.0
1093,79.0,0.0,40.0,1.0,0.0
1094,49.0,20.0,60.0,2.0,0.0
1095,71.0,20.0,40.0,1.0,0.0
1096,74.0,0.0,120.0,0.0,0.0
1097,83.0,0.0,40.0,1.0,0.0
1098,79.0,0.0,40.0,1.0,0.0
1099,74.0,0.0,40.0,1.0,0.0
1100,74.0,0.0,40.0,1.0,0.0
1101,83.0,0.0,40.0,1.0,0.0
1102,79.0,40.0,40.0,1.0,0.0
1103,71.0,0.0,40.0,1.0,0.0
1104,50.0,0.0,60.0,2.0,0.0
1105,83.0,0.0,40.0,1.0,0.0
1106,71.0,0.0,40.0,1.0,0.0
1107,74.0,0.0,40.0,1.0,0.0
1108,79.0,40.0,40.0,1.0,0.0
1109,73.0,20.0,60.0,0.0,0.0
1110,83.0,0.0,40.0,1.0,0.0
1111,79.0,0.0,40.0,1.0,0.0
1112,74.0,0.0,40.0,1.0,0.0
1113,62.0,0.0,120.0,2.0,0.0
1114,71.0,20.0,40.0,1.0,0.0
1115,83.0,0.0,40.0,1.0,0.0
1116,74.0,40.0,40.0,1.0,0.0
1117,71.0,0.0,40.0,1.0,0.0
1118,79.0,0.0,40.0,1.0,0.0
1119,74.0,0.0,60.0,0.0,0.0
1120,71.0,40.0,40.0,1.0,0.0
1121,79.0,0.0,40.0,1.0,0.0
1122,74.0,0.0,40.0,1.0,0.0
1123,83.0,0.0,40.0,1.0,0.0
1124,34.0,20.0,60.0,2.0,0.0
1125,79.0,0.0,40.0,1.0,0.0
1126,83.0,0.0,40.0,1.0,0.0
1127,71.0,20.0,40.0,1.0,0.0
1128,83.0,0.0,120.0,0.0,0.0
1129,74.0,0.0,40.0,1.0,0.0
1130,74.0,0.0,40.0,1.0,0.0
1131,71.0,0.0,40.0,1.0,0.0
1132,83.0,0.0,40.0,1.0,0.0
1133,79.0,40.0,40.0,1.0,0.0
1134,35.0,0.0,60.0,2.0,0.0
1135,74.0,0.0,40.0,1.0,0.0
1136,71.0,0.0,40.0,1.0,0.0
1137,79.0,40.0,40.0,1.0,0.0
1138,83.0,0.0,40.0,1.0,0.0
1139,81.0,20.0,60.0,0.0,0.0
1140,47.0,0.0,120.0,2.0,0.0
1141,71.0,0.0,40.0,1.0,0.0
1142,81.0,20.0,40.0,1.0,0.0
1143,74.0,0.0,40.0,1.0,0.0
1144,81.0,0.0,40.0,1.0,0.0
1145,74.0,0.0,40.0,1.0,0.0
1146,71.0,40.0,40.0,1.0,0.0
1147,79.0,0.0,60.0,0.0,0.0
1148,71.0,0.0,40.0,1.0,0.0
1149,79.0,40.0,40.0,1.0,0.0
1150,74.0,0.0,40.0,1.0,0.0
1151,67.0,0.0,40.0,1.0,0.0
1152,76.0,0.0,120.0,0.0,0.0
1153,47.0,20.0,60.0,2.0,0.0
1154,76.0,20.0,40.0,1.0,0.0
1155,69.0,0.0,40.0,1.0,0.0
1156,67.0,0.0,40.0,1.0,0.0
1157,69.0,40.0,40.0,1.0,0.0
1158,76.0,0.0,40.0,1.0,0.0
1159,48.0,0.0,60.0,2.0,0.0
1160,67.0,40.0,40.0,1.0,0.0
1161,69.0,0.0,40.0,1.0,0.0
1162,76.0,0.0,40.0,1.0,0.0
1163,60.0,40.0,120.0,2.0,0.0
1164,76.0,0.0,40.0,1.0,0.0
1165,76.0,20.0,60.0,0.0,0.0
1166,67.0,20.0,40.0,1.0,0.0
1167,69.0,0.0,40.0,1.0,0.0
1168,76.0,40.0,40.0,1.0,0.0
1169,67.0,0.0,40.0,1.0,0.0
1170,69.0,0.0,40.0,1.0,0.0
1171,81.0,0.0,60.0,0.0,0.0
1172,72.0,0.0,40.0,1.0,0.0
1173,81.0,0.0,40.0,1.0,0.0
1174,76.0,0.0,40.0,1.0,0.0
1175,32.0,20.0,60.0,2.0,0.0
1176,79.0,0.0,40.0,1.0,0.0
1177,72.0,20.0,40.0,1.0,0.0
1178,84.0,0.0,40.0,1.0,0.0
1179,76.0,0.0,40.0,1.0,0.0
1180,84.0,0.0,120.0,0.0,0.0
1181,76.0,0.0,40.0,1.0,0.0
1182,72.0,0.0,40.0,1.0,0.0
1183,79.0,40.0,40.0,1.0,0.0
1184,84.0,0.0,40.0,1.0,0.0
1185,33.0,40.0,60.0,2.0,0.0
1186,72.0,0.0,40.0,1.0,0.0
1187,76.0,0.0,40.0,1.0,0.0
1188,79.0,0.0,40.0,1.0,0.0
1189,84.0,0.0,40.0,1.0,0.0
1190,83.0,0.0,40.0,1.0,0.0
1191,76.0,20.0,40.0,1.0,0.0
1192,79.0,0.0,40.0,1.0,0.0
1193,72.0,0.0,40.0,1.0,0.0
1194,45.0,0.0,120.0,2.0,0.0
1195,83.0,20.0,60.0,0.0,0.0
1196,83.0,0.0,40.0,1.0,0.0
1197,76.0,0.0,40.0,1.0,0.0
1198,72.0,0.0,40.0,1.0,0.0
1199,79.0,40.0,40.0,1.0,0.0
1200,81.0,0.0,60.0,0.0,0.0
1201,79.0,40.0,40.0,1.0,0.0
1202,72.0,0.0,40.0,1.0,0.0
1203,76.0,0.0,40.0,1.0,0.0
1204,81.0,0.0,40.0,1.0,0.0
1205,72.0,0.0,40.0,1.0,0.0
1206,69.0,20.0,40.0,1.0,0.0
1207,79.0,0.0,40.0,1.0,0.0
1208,35.0,20.0,60.0,2.0,0.0
1209,79.0,40.0,120.0,0.0,0.0
1210,75.0,0.0,40.0,1.0,0.0
1211,72.0,0.0,40.0,1.0,0.0
1212,79.0,40.0,40.0,1.0,0.0
1213,69.0,0.0,40.0,1.0,0.0
1214,75.0,0.0,40.0,1.0,0.0
1215,36.0,0.0,60.0,2.0,0.0
1216,69.0,0.0,40.0,1.0,0.0
1217,79.0,0.0,40.0,1.0,0.0
1218,75.0,0.0,40.0,1.0,0.0
1219,72.0,0.0,40.0,1.0,0.0
1220,48.0,0.0,120.0,2.0,0.0
1221,75.0,0.0,120.0,0.0,0.0
1222,75.0,40.0,40.0,1.0,0.0
1223,72.0,0.0,40.0,1.0,0.0
1224,67.0,0.0,40.0,1.0,0.0
1225,69.0,0.0,40.0,1.0,0.0
1226,72.0,0.0,40.0,1.0,0.0
1227,69.0,40.0,40.0,1.0,0.0
1228,75.0,0.0,40.0,1.0,0.0
1229,67.0,0.0,40.0,1.0,0.0
1230,72.0,0.0,40.0,1.0,0.0
1231,69.0,40.0,40.0,1.0,0.0
1232,67.0,0.0,40.0,1.0,0.0
1233,75.0,0.0,40.0,1.0,0.0
1234,37.0,20.0,60.0,2.0,0.0
1235,74.0,0.0,240.0,0.0,0.0
1236,74.0,0.0,40.0,1.0,0.0
1237,72.0,0.0,40.0,1.0,0.0
1238,66.0,0.0,40.0,1.0,0.0
1239,69.0,20.0,40.0,1.0,0.0
1240,69.0,40.0,40.0,1.0,0.0
1241,66.0,0.0,40.0,1.0,0.0
1242,74.0,0.0,40.0,1.0,0.0
1243,72.0,0.0,40.0,1.0,0.0
1244,38.0,20.0,240.0,2.0,0.0
1245,69.0,0.0,40.0,1.0,0.0
1246,66.0,40.0,40.0,1.0,0.0
1247,72.0,0.0,40.0,1.0,0.0
1248,74.0,0.0,40.0,1.0,0.0
1249,74.0,0.0,40.0,1.0,0.0
1250,72.0,0.0,40.0,1.0,0.0
1251,69.0,40.0,40.0,1.0,0.0
1252,66.0,0.0,40.0,1.0,0.0
1253,50.0,0.0,180.0,2.0,0.0
1254,74.0,40.0,40.0,1.0,0.0
1255,69.0,0.0,40.0,1.0,0.0
1256,72.0,0.0,40.0,1.0,0.0
1257,66.0,0.0,40.0,1.0,0.0
1258,72.0,0.0,40.0,1.0,0.0
1259,66.0,0.0,40.0,1.0,0.0
1260,69.0,0.0,40.0,1.0,0.0
1261,74.0,40.0,40.0,1.0,0.0
1262,72.0,20.0,40.0,1.0,0.0
1263,66.0,0.0,40.0,1.0,0.0
1264,69.0,0.0,40.0,1.0,0.0
1265,69.0,0.0,40.0,1.0,0.0
1266,72.0,0.0,40.0,1.0,0.0
1267,66.0,40.0,40.0,1.0,0.0
1268,39.0,20.0,240.0,2.0,0.0
1269,72.0,0.0,40.0,1.0,0.0
1270,66.0,40.0,40.0,1.0,0.0
1271,69.0,0.0,40.0,1.0,0.0
1272,72.0,0.0,40.0,1.0,0.0
1273,66.0,40.0,40.0,1.0,0.0
1274,69.0,0.0,40.0,1.0,0.0
1275,51.0,0.0,180.0,2.0,0.0
1276,69.0,0.0,40.0,1.0,0.0
1277,72.0,0.0,40.0,1.0,0.0
1278,66.0,40.0,40.0,1.0,0.0
1279,72.0,0.0,40.0,1.0,0.0
1280,66.0,40.0,40.0,1.0,0.0
1281,69.0,0.0,40.0,1.0,0.0
1282,69.0,20.0,40.0,1.0,0.0
1283,72.0,0.0,40.0,1.0,0.0
1284,64.0,0.0,40.0,1.0,0.0
1285,64.0,0.0,40.0,1.0,0.0
1286,69.0,40.0,40.0,1.0,0.0
1287,72.0,0.0,40.0,1.0,0.0
1288,40.0,20.0,240.0,2.0,0.0
1289,69.0,40.0,40.0,1.0,0.0
1290,72.0,0.0,40.0,1.0,0.0
1291,64.0,0.0,40.0,1.0,0.0
1292,72.0,0.0,40.0,1.0,0.0
1293,64.0,0.0,40.0,1.0,0.0
1294,69.0,40.0,40.0,1.0,0.0
1295,52.0,0.0,180.0,2.0,0.0
1296,72.0,0.0,40.0,1.0,0.0
1297,64.0,40.0,40.0,1.0,0.0
1298,69.0,0.0,40.0,1.0,0.0
1299,72.0,40.0,40.0,1.0,0.0
1300,64.0,0.0,40.0,1.0,0.0
1301,69.0,0.0,40.0,1.0,0.0
1302,72.0,0.0,40.0,1.0,0.0
1303,63.0,0.0,40.0,1.0,0.0
1304,69.0,20.0,40.0,1.0,0.0
1305,63.0,40.0,40.0,1.0,0.0
1306,72.0,0.0,40.0,1.0,0.0
1307,69.0,0.0,40.0,1.0,0.0
1308,41.0,20.0,240.0,2.0,0.0
1309,63.0,0.0,40.0,1.0,0.0
1310,69.0,40.0,40.0,1.0,0.0
1311,72.0,0.0,40.0,1.0,0.0
1312,63.0,0.0,40.0,1.0,0.0
1313,72.0,0.0,40.0,1.0,0.0
1314,53.0,0.0,180.0,2.0,0.0
1315,75.0,40.0,120.0,0.0,0.0
1316,69.0,40.0,40.0,1.0,0.0
1317,63.0,40.0,40.0,1.0,0.0
1318,69.0,0.0,40.0,1.0,0.0
1319,72.0,0.0,40.0,1.0,0.0
1320,69.0,0.0,40.0,1.0,0.0
1321,72.0,0.0,40.0,1.0,0.0
1322,63.0,0.0,40.0,1.0,0.0
1323,65.0,20.0,40.0,1.0,0.0
1324,70.0,0.0,40.0,1.0,0.0
1325,62.0,0.0,40.0,1.0,0.0
1326,74.0,0.0,240.0,0.0,0.0
1327,70.0,0.0,40.0,1.0,0.0
1328,62.0,40.0,40.0,1.0,0.0
1329,65.0,0.0,40.0,1.0,0.0
1330,41.0,20.0,240.0,2.0,0.0
1331,65.0,0.0,40.0,1.0,0.0
1332,70.0,0.0,40.0,1.0,0.0
1333,62.0,40.0,40.0,1.0,0.0
1334,70.0,0.0,40.0,1.0,0.0
1335,62.0,40.0,40.0,1.0,0.0
1336,65.0,0.0,40.0,1.0,0.0
1337,53.0,0.0,180.0,2.0,0.0
1338,70.0,40.0,40.0,1.0,0.0
1339,62.0,0.0,40.0,1.0,0.0
1340,65.0,0.0,40.0,1.0,0.0
1341,65.0,0.0,40.0,1.0,0.0
1342,62.0,0.0,40.0,1.0,0.0
1343,70.0,40.0,40.0,1.0,0.0
1344,63.0,0.0,40.0,1.0,0.0
1345,60.0,0.0,40.0,1.0,0.0
1346,69.0,20.0,40.0,1.0,0.0
1347,60.0,0.0,40.0,1.0,0.0
1348,69.0,0.0,40.0,1.0,0.0
1349,63.0,40.0,40.0,1.0,0.0
1350,36.0,0.0,240.0,2.0,0.0
1351,60.0,0.0,40.0,1.0,0.0
1352,69.0,0.0,40.0,1.0,0.0
1353,63.0,40.0,40.0,1.0,0.0
1354,72.0,0.0,120.0,0.0,0.0
1355,63.0,0.0,40.0,1.0,0.0
1356,69.0,0.0,40.0,1.0,0.0
1357,60.0,40.0,40.0,1.0,0.0
1358,48.0,20.0,180.0,2.0,0.0
1359,60.0,40.0,40.0,1.0,0.0
1360,69.0,0.0,40.0,1.0,0.0
1361,63.0,0.0,40.0,1.0,0.0
1362,69.0,0.0,40.0,1.0,0.0
1363,63.0,40.0,40.0,1.0,0.0
1364,60.0,0.0,40.0,1.0,0.0
1365,67.0,20.0,40.0,1.0,0.0
1366,70.0,0.0,240.0,0.0,0.0
1367,62.0,0.0,40.0,1.0,0.0
1368,58.0,0.0,40.0,1.0,0.0
1369,58.0,0.0,40.0,1.0,0.0
1370,67.0,40.0,40.0,1.0,0.0
1371,62.0,0.0,40.0,1.0,0.0
1372,38.0,20.0,240.0,2.0,0.0
1373,58.0,40.0,40.0,1.0,0.0
1374,67.0,0.0,40.0,1.0,0.0
1375,62.0,0.0,40.0,1.0,0.0
1376,50.0,0.0,180.0,2.0,0.0
1377,67.0,0.0,40.0,1.0,0.0
1378,62.0,40.0,40.0,1.0,0.0
1379,58.0,0.0,40.0,1.0,0.0
1380,67.0,0.0,40.0,1.0,0.0
1381,58.0,40.0,40.0,1.0,0.0
1382,62.0,0.0,40.0,1.0,0.0
1383,67.0,0.0,40.0,1.0,0.0
1384,58.0,0.0,40.0,1.0,0.0
1385,62.0,40.0,40.0,1.0,0.0
1386,57.0,20.0,40.0,1.0,0.0
1387,62.0,0.0,40.0,1.0,0.0
1388,67.0,0.0,40.0,1.0,0.0
1389,62.0,0.0,40.0,1.0,0.0
1390,57.0,40.0,40.0,1.0,0.0
1391,67.0,0.0,40.0,1.0,0.0
1392,38.0,0.0,180.0,2.0,0.0
1393,62.0,0.0,40.0,1.0,0.0
1394,57.0,40.0,40.0,1.0,0.0
1395,67.0,0.0,40.0,1.0,0.0
1396,50.0,0.0,120.0,2.0,0.0
1397,62.0,0.0,40.0,1.0,0.0
1398,69.0,40.0,120.0,0.0,0.0
1399,66.0,0.0,40.0,1.0,0.0
1400,57.0,40.0,40.0,1.0,0.0
1401,66.0,0.0,40.0,1.0,0.0
1402,62.0,0.0,40.0,1.0,0.0
1403,57.0,40.0,40.0,1.0,0.0
1404,62.0,0.0,40.0,1.0,0.0
1405,66.0,0.0,40.0,1.0,0.0
1406,57.0,0.0,40.0,1.0,0.0
1407,42.0,20.0,60.0,2.0,0.0
1408,62.0,0.0,40.0,1.0,0.0
1409,58.0,0.0,40.0,1.0,0.0
1410,67.0,20.0,40.0,1.0,0.0
1411,67.0,0.0,360.0,0.0,0.0
1412,67.0,0.0,40.0,1.0,0.0
1413,62.0,0.0,40.0,1.0,0.0
1414,58.0,40.0,40.0,1.0,0.0
1415,43.0,0.0,60.0,2.0,0.0
1416,67.0,0.0,40.0,1.0,0.0
1417,58.0,40.0,40.0,1.0,0.0
1418,62.0,0.0,40.0,1.0,0.0
1419,46.0,0.0,240.0,2.0,0.0
1420,58.0,40.0,40.0,1.0,0.0
1421,67.0,0.0,40.0,1.0,0.0
1422,62.0,0.0,40.0,1.0,0.0
1423,62.0,40.0,40.0,1.0,0.0
1424,58.0,0.0,40.0,1.0,0.0
1425,67.0,0.0,40.0,1.0,0.0
1426,58.0,0.0,40.0,1.0,0.0
1427,67.0,40.0,40.0,1.0,0.0
1428,62.0,0.0,40.0,1.0,0.0
1429,62.0,0.0,40.0,1.0,0.0
1430,67.0,40.0,40.0,1.0,0.0
1431,58.0,0.0,40.0,1.0,0.0
1432,58.0,0.0,40.0,1.0,0.0
1433,67.0,40.0,40.0,1.0,0.0
1434,62.0,0.0,40.0,1.0,0.0
1435,67.0,0.0,40.0,1.0,0.0
1436,62.0,40.0,40.0,1.0,0.0
1437,58.0,0.0,40.0,1.0,0.0
1438,58.0,20.0,40.0,1.0,0.0
1439,62.0,0.0,40.0,1.0,0.0
1440,67.0,0.0,40.0,1.0,0.0
1441,37.0,20.0,60.0,2.0,0.0
1442,67.0,0.0,40.0,1.0,0.0
1443,58.0,0.0,40.0,1.0,0.0
1444,62.0,40.0,40.0,1.0,0.0
1445,38.0,0.0,60.0,2.0,0.0
1446,67.0,40.0,40.0,1.0,0.0
1447,62.0,0.0,40.0,1.0,0.0
1448,58.0,0.0,40.0,1.0,0.0
1449,62.0,0.0,40.0,1.0,0.0
1450,58.0,0.0,40.0,1.0,0.0
1451,43.0,0.0,240.0,2.0,0.0
1452,67.0,40.0,40.0,1.0,0.0
1453,67.0,0.0,40.0,1.0,0.0
1454,58.0,40.0,40.0,1.0,0.0
1455,62.0,0.0,40.0,1.0,0.0
1456,67.0,0.0,40.0,1.0,0.0
1457,62.0,40.0,40.0,1.0,0.0
1458,58.0,0.0,40.0,1.0,0.0
1459,58.0,40.0,40.0,1.0,0.0
1460,62.0,0.0,40.0,1.0,0.0
1461,67.0,0.0,40.0,1.0,0.0
1462,62.0,40.0,40.0,1.0,0.0
1463,58.0,0.0,40.0,1.0,0.0
1464,67.0,0.0,40.0,1.0,0.0
1465,58.0,0.0,40.0,1.0,0.0
1466,62.0,40.0,40.0,1.0,0.0
1467,67.0,0.0,40.0,1.0,0.0
1468,62.0,0.0,40.0,1.0,0.0
1469,67.0,40.0,40.0,1.0,0.0
1470,33.0,0.0,120.0,2.0,0.0
1471,58.0,0.0,40.0,1.0,0.0
1472,67.0,0.0,40.0,1.0,0.0
1473,62.0,40.0,40.0,1.0,0.0
1474,58.0,0.0,40.0,1.0,0.0
1475,58.0,40.0,40.0,1.0,0.0
1476,62.0,0.0,40.0,1.0,0.0
1477,67.0,0.0,40.0,1.0,0.0
1478,34.0,0.0,120.0,2.0,0.0
1479,62.0,0.0,40.0,1.0,0.0
1480,67.0,40.0,40.0,1.0,0.0
1481,58.0,0.0,40.0,1.0,0.0
1482,58.0,0.0,40.0,1.0,0.0
1483,62.0,40.0,40.0,1.0,0.0
1484,67.0,0.0,40.0,1.0,0.0
1485,62.0,0.0,40.0,1.0,0.0
1486,67.0,0.0,40.0,1.0,0.0
1487,58.0,480.0,40.0,1.0,0.0
1488,31.0,0.0,480.0,2.0,0.0
1489,67.0,0.0,480.0,1.0,0.0
1490,58.0,0.0,480.0,1.0,0.0
1491,62.0,0.0,480.0,1.0,0.0
