,note,step,duration,channel,velocity
0,94.0,0.0,240.0,1.0,0.0
1,58.0,0.0,240.0,5.0,0.0
2,97.0,0.0,210.0,2.0,0.0
3,61.0,3.0,210.0,4.0,0.0
4,101.0,0.0,150.0,2.0,0.0
5,65.0,0.0,150.0,4.0,0.0
6,106.0,213.0,120.0,1.0,0.0
7,70.0,0.0,120.0,5.0,0.0
8,97.0,0.0,90.0,1.0,0.0
9,61.0,0.0,90.0,5.0,0.0
10,49.0,120.0,90.0,5.0,0.0
11,85.0,0.0,90.0,1.0,0.0
12,99.0,120.0,90.0,1.0,0.0
13,87.0,0.0,90.0,1.0,0.0
14,63.0,0.0,90.0,5.0,0.0
15,51.0,0.0,90.0,5.0,0.0
16,101.0,120.0,90.0,1.0,0.0
17,89.0,0.0,90.0,1.0,0.0
18,53.0,0.0,90.0,5.0,0.0
19,65.0,0.0,90.0,5.0,0.0
20,58.0,120.0,90.0,5.0,0.0
21,46.0,0.0,90.0,5.0,0.0
22,94.0,0.0,90.0,1.0,0.0
23,82.0,0.0,90.0,1.0,0.0
24,84.0,0.0,90.0,1.0,0.0
25,48.0,504.0,90.0,5.0,0.0
26,60.0,0.0,90.0,5.0,0.0
27,96.0,0.0,90.0,1.0,0.0
28,61.0,0.0,480.0,5.0,0.0
29,49.0,240.0,480.0,5.0,0.0
30,85.0,0.0,480.0,1.0,0.0
31,97.0,0.0,15.0,1.0,0.0
32,61.0,0.0,240.0,5.0,0.0
33,101.0,3.0,210.0,2.0,0.0
34,65.0,0.0,210.0,4.0,0.0
35,104.0,0.0,150.0,2.0,0.0
36,68.0,213.0,150.0,4.0,0.0
37,109.0,0.0,120.0,1.0,0.0
38,73.0,0.0,120.0,5.0,0.0
39,89.0,0.0,90.0,1.0,0.0
40,65.0,0.0,90.0,5.0,0.0
41,53.0,120.0,90.0,5.0,0.0
42,77.0,0.0,90.0,1.0,0.0
43,90.0,0.0,90.0,1.0,0.0
44,54.0,0.0,90.0,5.0,0.0
45,66.0,0.0,90.0,5.0,0.0
46,78.0,120.0,90.0,1.0,0.0
47,68.0,120.0,90.0,5.0,0.0
48,56.0,0.0,90.0,5.0,0.0
49,92.0,0.0,90.0,1.0,0.0
50,80.0,0.0,90.0,1.0,0.0
51,61.0,0.0,90.0,5.0,0.0
52,85.0,0.0,90.0,1.0,0.0
53,73.0,0.0,90.0,1.0,0.0
54,49.0,120.0,90.0,5.0,0.0
55,75.0,384.0,90.0,1.0,0.0
56,87.0,0.0,90.0,1.0,0.0
57,51.0,0.0,90.0,5.0,0.0
58,63.0,0.0,90.0,5.0,0.0
59,89.0,4.0,360.0,1.0,0.0
60,53.0,3.0,360.0,5.0,0.0
61,65.0,233.0,360.0,5.0,0.0
62,77.0,0.0,15.0,1.0,0.0
63,81.0,40.0,240.0,2.0,0.0
64,84.0,40.0,240.0,2.0,0.0
65,48.0,40.0,120.0,3.0,0.0
66,41.0,0.0,120.0,5.0,0.0
67,89.0,0.0,240.0,1.0,0.0
68,51.0,120.0,120.0,3.0,0.0
69,48.0,120.0,120.0,3.0,0.0
70,41.0,0.0,120.0,5.0,0.0
71,51.0,120.0,120.0,3.0,0.0
72,65.0,0.0,15.0,1.0,0.0
73,48.0,120.0,120.0,3.0,0.0
74,41.0,0.0,120.0,5.0,0.0
75,66.0,120.0,120.0,1.0,0.0
76,51.0,0.0,120.0,3.0,0.0
77,48.0,120.0,120.0,3.0,0.0
78,66.0,0.0,120.0,1.0,0.0
79,41.0,0.0,120.0,5.0,0.0
80,51.0,120.0,120.0,3.0,0.0
81,65.0,0.0,15.0,1.0,0.0
82,41.0,0.0,120.0,5.0,0.0
83,48.0,0.0,120.0,3.0,0.0
84,69.0,0.0,120.0,1.0,0.0
85,51.0,120.0,120.0,3.0,0.0
86,48.0,0.0,120.0,3.0,0.0
87,69.0,120.0,120.0,1.0,0.0
88,41.0,0.0,120.0,5.0,0.0
89,65.0,0.0,120.0,1.0,0.0
90,51.0,120.0,120.0,3.0,0.0
91,65.0,120.0,120.0,1.0,0.0
92,48.0,0.0,120.0,3.0,0.0
93,41.0,0.0,120.0,5.0,0.0
94,51.0,0.0,120.0,3.0,0.0
95,72.0,120.0,15.0,1.0,0.0
96,41.0,0.0,120.0,5.0,0.0
97,48.0,120.0,120.0,3.0,0.0
98,51.0,0.0,120.0,3.0,0.0
99,65.0,120.0,120.0,1.0,0.0
100,41.0,0.0,120.0,5.0,0.0
101,48.0,0.0,120.0,3.0,0.0
102,65.0,120.0,120.0,1.0,0.0
103,51.0,120.0,120.0,3.0,0.0
104,78.0,0.0,120.0,1.0,0.0
105,48.0,120.0,120.0,3.0,0.0
106,41.0,0.0,120.0,5.0,0.0
107,78.0,0.0,120.0,1.0,0.0
108,65.0,120.0,120.0,1.0,0.0
109,51.0,0.0,120.0,3.0,0.0
110,48.0,0.0,120.0,3.0,0.0
111,41.0,0.0,120.0,5.0,0.0
112,65.0,120.0,120.0,1.0,0.0
113,51.0,0.0,120.0,3.0,0.0
114,48.0,120.0,120.0,3.0,0.0
115,41.0,0.0,120.0,5.0,0.0
116,81.0,120.0,15.0,1.0,0.0
117,51.0,0.0,120.0,3.0,0.0
118,41.0,0.0,120.0,5.0,0.0
119,48.0,120.0,120.0,3.0,0.0
120,77.0,120.0,15.0,1.0,0.0
121,51.0,120.0,120.0,3.0,0.0
122,84.0,0.0,15.0,1.0,0.0
123,41.0,0.0,120.0,5.0,0.0
124,48.0,120.0,120.0,3.0,0.0
125,51.0,120.0,120.0,3.0,0.0
126,48.0,0.0,120.0,3.0,0.0
127,77.0,0.0,15.0,1.0,0.0
128,41.0,120.0,120.0,5.0,0.0
129,51.0,120.0,120.0,3.0,0.0
130,90.0,0.0,15.0,1.0,0.0
131,48.0,0.0,120.0,3.0,0.0
132,41.0,0.0,120.0,5.0,0.0
133,51.0,120.0,120.0,3.0,0.0
134,77.0,0.0,15.0,1.0,0.0
135,41.0,0.0,120.0,5.0,0.0
136,48.0,120.0,120.0,3.0,0.0
137,93.0,120.0,120.0,1.0,0.0
138,51.0,0.0,120.0,3.0,0.0
139,48.0,0.0,120.0,3.0,0.0
140,41.0,0.0,120.0,5.0,0.0
141,93.0,120.0,120.0,1.0,0.0
142,51.0,120.0,120.0,3.0,0.0
143,77.0,0.0,120.0,1.0,0.0
144,77.0,120.0,120.0,1.0,0.0
145,41.0,0.0,120.0,5.0,0.0
146,48.0,0.0,120.0,3.0,0.0
147,90.0,120.0,120.0,1.0,0.0
148,51.0,0.0,120.0,3.0,0.0
149,41.0,0.0,120.0,5.0,0.0
150,48.0,120.0,120.0,3.0,0.0
151,90.0,0.0,120.0,1.0,0.0
152,51.0,120.0,120.0,3.0,0.0
153,48.0,0.0,120.0,3.0,0.0
154,77.0,0.0,15.0,1.0,0.0
155,41.0,120.0,120.0,5.0,0.0
156,51.0,120.0,120.0,3.0,0.0
157,41.0,120.0,120.0,5.0,0.0
158,93.0,0.0,15.0,1.0,0.0
159,48.0,0.0,120.0,3.0,0.0
160,51.0,120.0,120.0,3.0,0.0
161,77.0,0.0,15.0,1.0,0.0
162,41.0,0.0,120.0,5.0,0.0
163,48.0,0.0,120.0,3.0,0.0
164,51.0,0.0,120.0,3.0,0.0
165,90.0,120.0,15.0,1.0,0.0
166,41.0,0.0,120.0,5.0,0.0
167,48.0,0.0,120.0,3.0,0.0
168,51.0,0.0,120.0,3.0,0.0
169,102.0,180.0,15.0,1.0,0.0
170,90.0,0.0,180.0,1.0,0.0
171,54.0,0.0,180.0,5.0,0.0
172,66.0,276.0,180.0,5.0,0.0
173,101.0,120.0,90.0,1.0,0.0
174,89.0,0.0,90.0,1.0,0.0
175,65.0,0.0,90.0,5.0,0.0
176,53.0,0.0,90.0,5.0,0.0
177,100.0,0.0,90.0,1.0,0.0
178,64.0,0.0,90.0,5.0,0.0
179,52.0,0.0,90.0,5.0,0.0
180,88.0,120.0,90.0,1.0,0.0
181,63.0,120.0,90.0,5.0,0.0
182,51.0,0.0,90.0,5.0,0.0
183,87.0,0.0,90.0,1.0,0.0
184,99.0,0.0,90.0,1.0,0.0
185,62.0,0.0,90.0,5.0,0.0
186,50.0,0.0,90.0,5.0,0.0
187,98.0,120.0,90.0,1.0,0.0
188,86.0,0.0,90.0,1.0,0.0
189,49.0,0.0,90.0,5.0,0.0
190,61.0,120.0,90.0,5.0,0.0
191,85.0,0.0,90.0,1.0,0.0
192,97.0,0.0,90.0,1.0,0.0
193,96.0,0.0,90.0,1.0,0.0
194,48.0,0.0,90.0,5.0,0.0
195,60.0,120.0,90.0,5.0,0.0
196,84.0,0.0,90.0,1.0,0.0
197,59.0,0.0,90.0,5.0,0.0
198,83.0,0.0,90.0,1.0,0.0
199,47.0,0.0,90.0,5.0,0.0
200,95.0,120.0,90.0,1.0,0.0
201,46.0,0.0,90.0,5.0,0.0
202,58.0,0.0,90.0,5.0,0.0
203,82.0,0.0,90.0,1.0,0.0
204,94.0,120.0,90.0,1.0,0.0
205,45.0,120.0,90.0,5.0,0.0
206,81.0,0.0,90.0,1.0,0.0
207,93.0,0.0,90.0,1.0,0.0
208,57.0,0.0,90.0,5.0,0.0
209,44.0,0.0,90.0,5.0,0.0
210,92.0,0.0,90.0,1.0,0.0
211,80.0,0.0,90.0,1.0,0.0
212,56.0,120.0,90.0,5.0,0.0
213,43.0,0.0,90.0,5.0,0.0
214,91.0,0.0,90.0,1.0,0.0
215,55.0,0.0,90.0,5.0,0.0
216,79.0,120.0,90.0,1.0,0.0
217,42.0,120.0,90.0,5.0,0.0
218,90.0,0.0,90.0,1.0,0.0
219,78.0,0.0,90.0,1.0,0.0
220,54.0,0.0,90.0,5.0,0.0
221,89.0,0.0,90.0,1.0,0.0
222,41.0,0.0,90.0,5.0,0.0
223,53.0,120.0,90.0,5.0,0.0
224,77.0,0.0,90.0,1.0,0.0
225,52.0,0.0,90.0,5.0,0.0
226,40.0,0.0,90.0,5.0,0.0
227,76.0,0.0,90.0,1.0,0.0
228,88.0,120.0,90.0,1.0,0.0
229,75.0,0.0,90.0,1.0,0.0
230,51.0,0.0,90.0,5.0,0.0
231,87.0,120.0,90.0,1.0,0.0
232,39.0,0.0,90.0,5.0,0.0
233,74.0,0.0,90.0,1.0,0.0
234,38.0,0.0,90.0,5.0,0.0
235,50.0,0.0,90.0,5.0,0.0
236,86.0,120.0,90.0,1.0,0.0
237,53.0,120.0,90.0,5.0,0.0
238,89.0,0.0,90.0,1.0,0.0
239,77.0,0.0,90.0,1.0,0.0
240,41.0,0.0,90.0,5.0,0.0
241,73.0,120.0,90.0,1.0,0.0
242,85.0,0.0,90.0,1.0,0.0
243,37.0,0.0,90.0,5.0,0.0
244,49.0,0.0,90.0,5.0,0.0
245,77.0,0.0,90.0,1.0,0.0
246,89.0,0.0,90.0,1.0,0.0
247,53.0,120.0,90.0,5.0,0.0
248,41.0,0.0,90.0,5.0,0.0
249,36.0,0.0,90.0,5.0,0.0
250,48.0,0.0,90.0,5.0,0.0
251,84.0,0.0,90.0,1.0,0.0
252,72.0,120.0,90.0,1.0,0.0
253,41.0,0.0,90.0,5.0,0.0
254,53.0,0.0,90.0,5.0,0.0
255,77.0,264.0,90.0,1.0,0.0
256,89.0,0.0,90.0,1.0,0.0
257,34.0,3.0,240.0,5.0,0.0
258,82.0,0.0,240.0,1.0,0.0
259,85.0,0.0,210.0,2.0,0.0
260,37.0,0.0,210.0,4.0,0.0
261,41.0,0.0,150.0,4.0,0.0
262,89.0,0.0,150.0,2.0,0.0
263,94.0,0.0,120.0,1.0,0.0
264,46.0,213.0,120.0,5.0,0.0
265,73.0,0.0,90.0,1.0,0.0
266,85.0,0.0,90.0,1.0,0.0
267,49.0,0.0,90.0,5.0,0.0
268,61.0,120.0,90.0,5.0,0.0
269,87.0,0.0,90.0,1.0,0.0
270,63.0,0.0,90.0,5.0,0.0
271,51.0,120.0,90.0,5.0,0.0
272,75.0,0.0,90.0,1.0,0.0
273,53.0,0.0,90.0,5.0,0.0
274,77.0,0.0,90.0,1.0,0.0
275,89.0,0.0,90.0,1.0,0.0
276,65.0,120.0,90.0,5.0,0.0
277,70.0,120.0,90.0,1.0,0.0
278,58.0,0.0,90.0,5.0,0.0
279,82.0,0.0,90.0,1.0,0.0
280,46.0,0.0,90.0,5.0,0.0
281,60.0,0.0,90.0,5.0,0.0
282,72.0,0.0,90.0,1.0,0.0
283,84.0,0.0,90.0,1.0,0.0
284,48.0,859.0,90.0,5.0,0.0
285,73.0,91.0,840.0,1.0,0.0
286,85.0,0.0,840.0,1.0,0.0
287,61.0,5.0,840.0,5.0,0.0
288,49.0,5.0,840.0,5.0,0.0
289,78.0,0.0,90.0,1.0,0.0
290,70.0,0.0,90.0,1.0,0.0
291,66.0,0.0,90.0,5.0,0.0
292,58.0,120.0,90.0,5.0,0.0
293,73.0,120.0,90.0,1.0,0.0
294,80.0,0.0,90.0,1.0,0.0
295,68.0,0.0,90.0,5.0,0.0
296,61.0,0.0,90.0,5.0,0.0
297,70.0,120.0,90.0,5.0,0.0
298,66.0,0.0,90.0,5.0,0.0
299,82.0,0.0,90.0,1.0,0.0
300,78.0,0.0,90.0,1.0,0.0
301,58.0,0.0,90.0,5.0,0.0
302,54.0,120.0,90.0,5.0,0.0
303,66.0,0.0,90.0,1.0,0.0
304,70.0,0.0,90.0,1.0,0.0
305,72.0,0.0,90.0,1.0,0.0
306,56.0,0.0,90.0,5.0,0.0
307,60.0,744.0,90.0,5.0,0.0
308,68.0,0.0,90.0,1.0,0.0
309,73.0,0.0,720.0,1.0,0.0
310,61.0,0.0,720.0,5.0,0.0
311,70.0,0.0,15.0,1.0,0.0
312,66.0,0.0,90.0,1.0,0.0
313,54.0,120.0,90.0,5.0,0.0
314,58.0,96.0,15.0,5.0,0.0
315,68.0,0.0,90.0,1.0,0.0
316,60.0,0.0,90.0,5.0,0.0
317,56.0,0.0,90.0,5.0,0.0
318,72.0,744.0,90.0,1.0,0.0
319,73.0,0.0,720.0,1.0,0.0
320,70.0,0.0,720.0,1.0,0.0
321,61.0,96.0,720.0,5.0,0.0
322,58.0,0.0,720.0,5.0,0.0
323,70.0,0.0,90.0,1.0,0.0
324,66.0,0.0,90.0,1.0,0.0
325,58.0,0.0,90.0,5.0,0.0
326,54.0,120.0,90.0,5.0,0.0
327,72.0,152.0,90.0,1.0,0.0
328,68.0,0.0,90.0,1.0,0.0
329,56.0,0.0,90.0,5.0,0.0
330,60.0,0.0,90.0,5.0,0.0
331,73.0,0.0,120.0,1.0,0.0
332,70.0,0.0,120.0,1.0,0.0
333,58.0,0.0,120.0,5.0,0.0
334,61.0,160.0,120.0,5.0,0.0
335,58.0,0.0,120.0,5.0,0.0
336,54.0,160.0,120.0,5.0,0.0
337,66.0,0.0,120.0,1.0,0.0
338,70.0,0.0,120.0,1.0,0.0
339,56.0,160.0,120.0,5.0,0.0
340,60.0,0.0,120.0,5.0,0.0
341,68.0,0.0,120.0,1.0,0.0
342,72.0,0.0,120.0,1.0,0.0
343,73.0,0.0,120.0,1.0,0.0
344,70.0,0.0,120.0,1.0,0.0
345,58.0,160.0,120.0,5.0,0.0
346,61.0,0.0,120.0,5.0,0.0
347,58.0,0.0,120.0,5.0,0.0
348,70.0,0.0,120.0,1.0,0.0
349,66.0,0.0,120.0,1.0,0.0
350,54.0,160.0,120.0,5.0,0.0
351,68.0,0.0,120.0,1.0,0.0
352,72.0,0.0,120.0,1.0,0.0
353,60.0,160.0,120.0,5.0,0.0
354,56.0,0.0,120.0,5.0,0.0
355,70.0,0.0,120.0,1.0,0.0
356,73.0,0.0,120.0,1.0,0.0
357,61.0,0.0,120.0,5.0,0.0
358,58.0,160.0,120.0,5.0,0.0
359,54.0,0.0,120.0,5.0,0.0
360,70.0,160.0,120.0,1.0,0.0
361,66.0,0.0,120.0,1.0,0.0
362,58.0,0.0,120.0,5.0,0.0
363,68.0,0.0,120.0,1.0,0.0
364,72.0,0.0,120.0,1.0,0.0
365,56.0,224.0,120.0,5.0,0.0
366,60.0,0.0,120.0,5.0,0.0
367,66.0,0.0,180.0,5.0,0.0
368,63.0,0.0,180.0,5.0,0.0
369,75.0,240.0,180.0,1.0,0.0
370,78.0,0.0,180.0,1.0,0.0
371,75.0,0.0,180.0,1.0,0.0
372,63.0,0.0,180.0,5.0,0.0
373,72.0,240.0,180.0,1.0,0.0
374,60.0,0.0,180.0,5.0,0.0
375,60.0,0.0,180.0,5.0,0.0
376,68.0,0.0,180.0,1.0,0.0
377,72.0,0.0,180.0,1.0,0.0
378,56.0,240.0,180.0,5.0,0.0
379,54.0,240.0,180.0,5.0,0.0
380,66.0,0.0,180.0,1.0,0.0
381,70.0,0.0,180.0,1.0,0.0
382,58.0,0.0,180.0,5.0,0.0
383,54.0,0.0,180.0,5.0,0.0
384,51.0,0.0,180.0,5.0,0.0
385,66.0,0.0,180.0,1.0,0.0
386,63.0,240.0,180.0,1.0,0.0
387,63.0,0.0,180.0,1.0,0.0
388,60.0,240.0,180.0,1.0,0.0
389,51.0,0.0,180.0,5.0,0.0
390,48.0,0.0,180.0,5.0,0.0
391,56.0,0.0,180.0,1.0,0.0
392,60.0,0.0,180.0,1.0,0.0
393,44.0,0.0,180.0,5.0,0.0
394,48.0,720.0,180.0,5.0,0.0
395,46.0,0.0,180.0,5.0,0.0
396,42.0,0.0,180.0,5.0,0.0
397,54.0,1908.0,180.0,1.0,0.0
398,58.0,0.0,180.0,1.0,0.0
399,53.0,0.0,1380.0,1.0,0.0
400,57.0,0.0,1380.0,1.0,0.0
401,45.0,3.0,1380.0,5.0,0.0
402,41.0,537.0,1380.0,5.0,0.0
403,34.0,480.0,480.0,5.0,0.0
404,37.0,320.0,480.0,5.0,0.0
405,40.0,160.0,330.0,5.0,0.0
406,41.0,480.0,150.0,5.0,0.0
407,53.0,0.0,480.0,2.0,0.0
408,57.0,0.0,480.0,2.0,0.0
409,60.0,480.0,480.0,1.0,0.0
410,41.0,480.0,1440.0,5.0,0.0
411,57.0,320.0,480.0,2.0,0.0
412,65.0,0.0,480.0,1.0,0.0
413,69.0,160.0,330.0,1.0,0.0
414,60.0,0.0,15.0,2.0,0.0
415,66.0,0.0,330.0,2.0,0.0
416,63.0,0.0,330.0,2.0,0.0
417,70.0,0.0,150.0,1.0,0.0
418,65.0,0.0,150.0,2.0,0.0
419,61.0,0.0,150.0,2.0,0.0
420,65.0,0.0,960.0,2.0,0.0
421,61.0,325.0,960.0,2.0,0.0
422,70.0,0.0,960.0,1.0,0.0
423,34.0,480.0,480.0,5.0,0.0
424,37.0,0.0,480.0,5.0,0.0
425,40.0,155.0,330.0,5.0,0.0
426,41.0,480.0,150.0,5.0,0.0
427,63.0,0.0,480.0,2.0,0.0
428,57.0,0.0,480.0,2.0,0.0
429,41.0,480.0,1440.0,5.0,0.0
430,66.0,480.0,480.0,1.0,0.0
431,61.0,0.0,15.0,2.0,0.0
432,66.0,0.0,480.0,2.0,0.0
433,69.0,0.0,480.0,1.0,0.0
434,72.0,160.0,330.0,1.0,0.0
435,69.0,0.0,330.0,2.0,0.0
436,66.0,0.0,330.0,2.0,0.0
437,63.0,0.0,330.0,2.0,0.0
438,73.0,0.0,15.0,1.0,0.0
439,61.0,0.0,15.0,2.0,0.0
440,65.0,0.0,15.0,2.0,0.0
441,70.0,0.0,15.0,2.0,0.0
442,34.0,480.0,480.0,5.0,0.0
443,37.0,325.0,480.0,5.0,0.0
444,41.0,155.0,330.0,5.0,0.0
445,42.0,480.0,150.0,5.0,0.0
446,57.0,480.0,480.0,2.0,0.0
447,61.0,0.0,480.0,1.0,0.0
448,69.0,320.0,480.0,1.0,0.0
449,61.0,0.0,480.0,2.0,0.0
450,73.0,155.0,330.0,1.0,0.0
451,66.0,0.0,15.0,2.0,0.0
452,69.0,0.0,480.0,2.0,0.0
453,75.0,0.0,15.0,1.0,0.0
454,66.0,0.0,960.0,2.0,0.0
455,42.0,480.0,15.0,5.0,0.0
456,71.0,0.0,15.0,2.0,0.0
457,30.0,0.0,480.0,4.0,0.0
458,69.0,0.0,960.0,2.0,0.0
459,33.0,0.0,480.0,4.0,0.0
460,45.0,0.0,480.0,5.0,0.0
461,36.0,0.0,330.0,4.0,0.0
462,48.0,160.0,330.0,5.0,0.0
463,42.0,240.0,150.0,4.0,0.0
464,54.0,0.0,150.0,5.0,0.0
465,54.0,0.0,1440.0,5.0,0.0
466,42.0,240.0,1440.0,4.0,0.0
467,73.0,0.0,240.0,1.0,0.0
468,80.0,3.0,210.0,2.0,0.0
469,85.0,195.0,150.0,1.0,0.0
470,66.0,0.0,90.0,2.0,0.0
471,68.0,120.0,90.0,2.0,0.0
472,73.0,0.0,90.0,1.0,0.0
473,68.0,0.0,90.0,2.0,0.0
474,66.0,0.0,90.0,2.0,0.0
475,78.0,120.0,90.0,1.0,0.0
476,66.0,120.0,90.0,2.0,0.0
477,68.0,0.0,90.0,2.0,0.0
478,80.0,0.0,90.0,1.0,0.0
479,68.0,120.0,90.0,2.0,0.0
480,66.0,0.0,90.0,2.0,0.0
481,72.0,0.0,90.0,1.0,0.0
482,68.0,522.0,90.0,2.0,0.0
483,66.0,0.0,90.0,2.0,0.0
484,66.0,0.0,480.0,2.0,0.0
485,68.0,0.0,480.0,2.0,0.0
486,73.0,0.0,480.0,1.0,0.0
487,41.0,0.0,480.0,5.0,0.0
488,29.0,480.0,480.0,4.0,0.0
489,65.0,3.0,240.0,2.0,0.0
490,73.0,0.0,210.0,1.0,0.0
491,80.0,237.0,150.0,1.0,0.0
492,44.0,315.0,480.0,5.0,0.0
493,32.0,0.0,480.0,4.0,0.0
494,49.0,7.0,300.0,5.0,0.0
495,37.0,158.0,330.0,4.0,0.0
496,41.0,240.0,150.0,4.0,0.0
497,53.0,0.0,150.0,5.0,0.0
498,73.0,3.0,240.0,1.0,0.0
499,53.0,240.0,1440.0,5.0,0.0
500,41.0,0.0,1440.0,4.0,0.0
501,81.0,195.0,210.0,2.0,0.0
502,85.0,0.0,150.0,1.0,0.0
503,73.0,0.0,90.0,1.0,0.0
504,65.0,0.0,90.0,2.0,0.0
505,69.0,120.0,90.0,2.0,0.0
506,77.0,0.0,90.0,1.0,0.0
507,69.0,120.0,90.0,2.0,0.0
508,65.0,0.0,90.0,2.0,0.0
509,69.0,0.0,90.0,2.0,0.0
510,65.0,0.0,90.0,2.0,0.0
511,81.0,120.0,90.0,1.0,0.0
512,69.0,0.0,90.0,1.0,0.0
513,65.0,120.0,90.0,2.0,0.0
514,73.0,0.0,90.0,1.0,0.0
515,65.0,0.0,90.0,2.0,0.0
516,69.0,522.0,90.0,2.0,0.0
517,68.0,0.0,480.0,2.0,0.0
518,77.0,0.0,480.0,1.0,0.0
519,65.0,0.0,480.0,2.0,0.0
520,29.0,480.0,480.0,4.0,0.0
521,70.0,3.0,240.0,1.0,0.0
522,41.0,0.0,480.0,5.0,0.0
523,73.0,0.0,210.0,2.0,0.0
524,82.0,237.0,150.0,1.0,0.0
525,44.0,0.0,480.0,5.0,0.0
526,32.0,315.0,480.0,4.0,0.0
527,49.0,7.0,300.0,5.0,0.0
528,37.0,158.0,330.0,4.0,0.0
529,41.0,240.0,150.0,4.0,0.0
530,53.0,0.0,150.0,5.0,0.0
531,41.0,0.0,1440.0,4.0,0.0
532,53.0,0.0,1440.0,5.0,0.0
533,78.0,0.0,240.0,1.0,0.0
534,82.0,0.0,210.0,2.0,0.0
535,85.0,3.0,210.0,2.0,0.0
536,90.0,195.0,150.0,1.0,0.0
537,70.0,120.0,90.0,2.0,0.0
538,66.0,0.0,90.0,2.0,0.0
539,65.0,0.0,90.0,2.0,0.0
540,78.0,0.0,90.0,1.0,0.0
541,66.0,0.0,90.0,2.0,0.0
542,70.0,120.0,90.0,2.0,0.0
543,82.0,0.0,90.0,1.0,0.0
544,65.0,0.0,90.0,2.0,0.0
545,65.0,0.0,90.0,2.0,0.0
546,66.0,120.0,90.0,2.0,0.0
547,85.0,0.0,90.0,1.0,0.0
548,70.0,0.0,90.0,2.0,0.0
549,70.0,120.0,90.0,2.0,0.0
550,66.0,0.0,90.0,2.0,0.0
551,73.0,0.0,90.0,1.0,0.0
552,65.0,0.0,90.0,2.0,0.0
553,65.0,0.0,90.0,2.0,0.0
554,78.0,0.0,90.0,1.0,0.0
555,70.0,0.0,90.0,2.0,0.0
556,66.0,522.0,90.0,2.0,0.0
557,70.0,240.0,480.0,2.0,0.0
558,66.0,0.0,480.0,2.0,0.0
559,65.0,0.0,480.0,2.0,0.0
560,82.0,0.0,480.0,1.0,0.0
561,79.0,3.0,240.0,1.0,0.0
562,40.0,78.0,480.0,5.0,0.0
563,85.0,0.0,210.0,2.0,0.0
564,82.0,0.0,210.0,2.0,0.0
565,91.0,195.0,150.0,1.0,0.0
566,79.0,42.0,90.0,1.0,0.0
567,46.0,240.0,480.0,5.0,0.0
568,85.0,120.0,90.0,1.0,0.0
569,88.0,120.0,90.0,1.0,0.0
570,76.0,120.0,90.0,1.0,0.0
571,79.0,42.0,90.0,1.0,0.0
572,82.0,82.0,240.0,1.0,0.0
573,49.0,158.0,330.0,5.0,0.0
574,52.0,240.0,150.0,5.0,0.0
575,82.0,3.0,240.0,1.0,0.0
576,37.0,96.0,480.0,5.0,0.0
577,91.0,213.0,210.0,2.0,0.0
578,88.0,0.0,210.0,2.0,0.0
579,94.0,0.0,150.0,1.0,0.0
580,79.0,24.0,90.0,1.0,0.0
581,85.0,120.0,90.0,1.0,0.0
582,43.0,96.0,480.0,5.0,0.0
583,88.0,120.0,90.0,1.0,0.0
584,76.0,120.0,90.0,1.0,0.0
585,79.0,24.0,90.0,1.0,0.0
586,82.0,120.0,90.0,1.0,0.0
587,46.0,14.0,330.0,5.0,0.0
588,85.0,106.0,90.0,1.0,0.0
589,88.0,120.0,90.0,1.0,0.0
590,49.0,96.0,150.0,5.0,0.0
591,91.0,24.0,90.0,1.0,0.0
592,36.0,96.0,480.0,5.0,0.0
593,97.0,120.0,90.0,1.0,0.0
594,94.0,120.0,90.0,1.0,0.0
595,91.0,120.0,90.0,1.0,0.0
596,88.0,24.0,90.0,1.0,0.0
597,85.0,120.0,90.0,1.0,0.0
598,43.0,96.0,480.0,5.0,0.0
599,82.0,120.0,90.0,1.0,0.0
600,79.0,120.0,90.0,1.0,0.0
601,76.0,24.0,90.0,1.0,0.0
602,73.0,120.0,90.0,1.0,0.0
603,47.0,6.0,330.0,5.0,0.0
604,76.0,114.0,90.0,1.0,0.0
605,79.0,120.0,90.0,1.0,0.0
606,48.0,96.0,150.0,5.0,0.0
607,85.0,24.0,90.0,1.0,0.0
608,97.0,120.0,90.0,1.0,0.0
609,36.0,96.0,480.0,5.0,0.0
610,94.0,120.0,90.0,1.0,0.0
611,91.0,120.0,90.0,1.0,0.0
612,88.0,24.0,90.0,1.0,0.0
613,85.0,120.0,90.0,1.0,0.0
614,43.0,96.0,480.0,5.0,0.0
615,82.0,120.0,90.0,1.0,0.0
616,79.0,120.0,90.0,1.0,0.0
617,76.0,24.0,90.0,1.0,0.0
618,73.0,120.0,90.0,1.0,0.0
619,47.0,14.0,330.0,5.0,0.0
620,76.0,106.0,90.0,1.0,0.0
621,79.0,120.0,90.0,1.0,0.0
622,48.0,96.0,150.0,5.0,0.0
623,85.0,24.0,90.0,1.0,0.0
624,36.0,96.0,480.0,5.0,0.0
625,95.0,120.0,90.0,1.0,0.0
626,92.0,120.0,90.0,1.0,0.0
627,89.0,120.0,90.0,1.0,0.0
628,86.0,24.0,90.0,1.0,0.0
629,83.0,120.0,90.0,1.0,0.0
630,41.0,96.0,480.0,5.0,0.0
631,80.0,120.0,90.0,1.0,0.0
632,77.0,120.0,90.0,1.0,0.0
633,74.0,24.0,90.0,1.0,0.0
634,71.0,120.0,90.0,1.0,0.0
635,47.0,14.0,330.0,5.0,0.0
636,74.0,106.0,90.0,1.0,0.0
637,77.0,120.0,90.0,1.0,0.0
638,48.0,96.0,150.0,5.0,0.0
639,80.0,24.0,90.0,1.0,0.0
640,95.0,120.0,90.0,1.0,0.0
641,36.0,96.0,480.0,5.0,0.0
642,92.0,120.0,90.0,1.0,0.0
643,89.0,120.0,90.0,1.0,0.0
644,86.0,24.0,90.0,1.0,0.0
645,41.0,96.0,480.0,5.0,0.0
646,83.0,120.0,90.0,1.0,0.0
647,80.0,120.0,90.0,1.0,0.0
648,77.0,120.0,90.0,1.0,0.0
649,74.0,24.0,90.0,1.0,0.0
650,47.0,14.0,330.0,5.0,0.0
651,71.0,120.0,90.0,1.0,0.0
652,74.0,106.0,90.0,1.0,0.0
653,77.0,120.0,90.0,1.0,0.0
654,48.0,96.0,150.0,5.0,0.0
655,80.0,24.0,90.0,1.0,0.0
656,36.0,96.0,480.0,5.0,0.0
657,94.0,120.0,90.0,1.0,0.0
658,91.0,120.0,90.0,1.0,0.0
659,88.0,120.0,90.0,1.0,0.0
660,85.0,24.0,90.0,1.0,0.0
661,43.0,96.0,480.0,5.0,0.0
662,82.0,120.0,90.0,1.0,0.0
663,79.0,120.0,90.0,1.0,0.0
664,76.0,120.0,90.0,1.0,0.0
665,73.0,24.0,90.0,1.0,0.0
666,70.0,120.0,90.0,1.0,0.0
667,47.0,14.0,330.0,5.0,0.0
668,67.0,106.0,90.0,1.0,0.0
669,64.0,120.0,90.0,1.0,0.0
670,48.0,96.0,150.0,5.0,0.0
671,61.0,24.0,90.0,1.0,0.0
672,70.0,120.0,90.0,1.0,0.0
673,36.0,96.0,480.0,5.0,0.0
674,67.0,120.0,90.0,1.0,0.0
675,64.0,120.0,90.0,1.0,0.0
676,61.0,24.0,90.0,1.0,0.0
677,43.0,322.0,480.0,5.0,0.0
678,58.0,120.0,90.0,1.0,0.0
679,55.0,120.0,90.0,1.0,0.0
680,52.0,120.0,90.0,1.0,0.0
681,49.0,24.0,90.0,1.0,0.0
682,47.0,158.0,330.0,5.0,0.0
683,48.0,96.0,150.0,5.0,0.0
684,36.0,960.0,480.0,5.0,0.0
685,58.0,120.0,90.0,1.0,0.0
686,55.0,120.0,90.0,1.0,0.0
687,52.0,120.0,90.0,1.0,0.0
688,49.0,24.0,90.0,1.0,0.0
689,40.0,96.0,960.0,5.0,0.0
690,36.0,960.0,480.0,5.0,0.0
691,58.0,120.0,90.0,1.0,0.0
692,55.0,120.0,90.0,1.0,0.0
693,52.0,120.0,90.0,1.0,0.0
694,49.0,24.0,90.0,1.0,0.0
695,40.0,480.0,960.0,5.0,0.0
696,36.0,1440.0,480.0,5.0,0.0
697,36.0,1064.0,480.0,5.0,0.0
698,41.0,160.0,90.0,5.0,0.0
699,53.0,0.0,90.0,5.0,0.0
700,56.0,160.0,90.0,5.0,0.0
701,44.0,0.0,90.0,5.0,0.0
702,59.0,160.0,90.0,5.0,0.0
703,47.0,0.0,90.0,5.0,0.0
704,48.0,160.0,90.0,5.0,0.0
705,60.0,0.0,90.0,5.0,0.0
706,41.0,160.0,90.0,5.0,0.0
707,53.0,0.0,90.0,5.0,0.0
708,56.0,160.0,90.0,5.0,0.0
709,44.0,0.0,90.0,5.0,0.0
710,59.0,160.0,90.0,5.0,0.0
711,47.0,0.0,90.0,5.0,0.0
712,60.0,160.0,90.0,5.0,0.0
713,48.0,0.0,90.0,5.0,0.0
714,77.0,0.0,90.0,1.0,0.0
715,41.0,0.0,90.0,5.0,0.0
716,53.0,0.0,90.0,5.0,0.0
717,65.0,160.0,90.0,1.0,0.0
718,80.0,0.0,90.0,1.0,0.0
719,56.0,160.0,90.0,5.0,0.0
720,44.0,0.0,90.0,5.0,0.0
721,68.0,0.0,90.0,1.0,0.0
722,71.0,160.0,90.0,1.0,0.0
723,83.0,0.0,90.0,1.0,0.0
724,59.0,0.0,90.0,5.0,0.0
725,47.0,0.0,90.0,5.0,0.0
726,72.0,0.0,90.0,1.0,0.0
727,48.0,861.0,90.0,5.0,0.0
728,60.0,0.0,90.0,5.0,0.0
729,84.0,0.0,90.0,1.0,0.0
730,77.0,0.0,810.0,1.0,0.0
731,89.0,155.0,810.0,1.0,0.0
732,65.0,3.0,2070.0,5.0,0.0
733,53.0,0.0,2070.0,5.0,0.0
734,87.0,320.0,150.0,1.0,0.0
735,75.0,0.0,150.0,1.0,0.0
736,44.0,155.0,1140.0,5.0,0.0
737,32.0,0.0,1110.0,5.0,0.0
738,75.0,160.0,330.0,1.0,0.0
739,87.0,0.0,330.0,1.0,0.0
740,68.0,0.0,15.0,3.0,0.0
741,65.0,0.0,15.0,3.0,0.0
742,85.0,0.0,15.0,1.0,0.0
743,73.0,160.0,15.0,1.0,0.0
744,65.0,0.0,150.0,3.0,0.0
745,68.0,160.0,15.0,3.0,0.0
746,65.0,5.0,150.0,3.0,0.0
747,68.0,157.0,150.0,3.0,0.0
748,72.0,0.0,150.0,1.0,0.0
749,84.0,0.0,150.0,1.0,0.0
750,84.0,160.0,330.0,1.0,0.0
751,65.0,0.0,15.0,3.0,0.0
752,72.0,0.0,330.0,1.0,0.0
753,68.0,5.0,150.0,3.0,0.0
754,82.0,0.0,150.0,1.0,0.0
755,79.0,160.0,90.0,2.0,0.0
756,70.0,104.0,15.0,1.0,0.0
757,43.0,0.0,90.0,5.0,0.0
758,55.0,0.0,90.0,5.0,0.0
759,82.0,0.0,90.0,1.0,0.0
760,77.0,0.0,90.0,2.0,0.0
761,77.0,160.0,90.0,2.0,0.0
762,58.0,0.0,90.0,5.0,0.0
763,82.0,0.0,90.0,1.0,0.0
764,70.0,0.0,90.0,1.0,0.0
765,46.0,0.0,90.0,5.0,0.0
766,79.0,0.0,90.0,2.0,0.0
767,70.0,0.0,90.0,1.0,0.0
768,82.0,160.0,90.0,1.0,0.0
769,48.0,0.0,90.0,5.0,0.0
770,60.0,0.0,90.0,5.0,0.0
771,77.0,0.0,90.0,2.0,0.0
772,79.0,0.0,90.0,2.0,0.0
773,79.0,160.0,90.0,2.0,0.0
774,77.0,0.0,90.0,2.0,0.0
775,70.0,0.0,90.0,1.0,0.0
776,82.0,0.0,90.0,1.0,0.0
777,61.0,0.0,90.0,5.0,0.0
778,49.0,0.0,90.0,5.0,0.0
779,82.0,160.0,90.0,1.0,0.0
780,79.0,0.0,90.0,2.0,0.0
781,77.0,0.0,90.0,2.0,0.0
782,70.0,0.0,90.0,1.0,0.0
783,43.0,0.0,90.0,5.0,0.0
784,55.0,0.0,90.0,5.0,0.0
785,46.0,0.0,90.0,5.0,0.0
786,58.0,0.0,90.0,5.0,0.0
787,79.0,0.0,90.0,2.0,0.0
788,77.0,0.0,90.0,2.0,0.0
789,82.0,160.0,90.0,1.0,0.0
790,70.0,0.0,90.0,1.0,0.0
791,60.0,0.0,90.0,5.0,0.0
792,48.0,0.0,90.0,5.0,0.0
793,79.0,0.0,90.0,2.0,0.0
794,70.0,160.0,90.0,1.0,0.0
795,82.0,0.0,90.0,1.0,0.0
796,77.0,0.0,90.0,2.0,0.0
797,70.0,0.0,90.0,1.0,0.0
798,82.0,0.0,90.0,1.0,0.0
799,77.0,0.0,90.0,2.0,0.0
800,79.0,160.0,90.0,2.0,0.0
801,61.0,0.0,90.0,5.0,0.0
802,49.0,0.0,90.0,5.0,0.0
803,43.0,0.0,90.0,5.0,0.0
804,82.0,0.0,90.0,1.0,0.0
805,70.0,0.0,90.0,1.0,0.0
806,77.0,160.0,90.0,2.0,0.0
807,79.0,0.0,90.0,2.0,0.0
808,55.0,0.0,90.0,5.0,0.0
809,46.0,0.0,90.0,5.0,0.0
810,82.0,0.0,90.0,1.0,0.0
811,70.0,160.0,90.0,1.0,0.0
812,77.0,0.0,90.0,2.0,0.0
813,58.0,0.0,90.0,5.0,0.0
814,79.0,0.0,90.0,2.0,0.0
815,48.0,0.0,90.0,5.0,0.0
816,60.0,0.0,90.0,5.0,0.0
817,84.0,160.0,90.0,1.0,0.0
818,72.0,0.0,90.0,1.0,0.0
819,85.0,0.0,90.0,1.0,0.0
820,49.0,856.0,90.0,5.0,0.0
821,61.0,0.0,90.0,5.0,0.0
822,73.0,0.0,90.0,1.0,0.0
823,79.0,5.0,810.0,1.0,0.0
824,91.0,145.0,810.0,1.0,0.0
825,55.0,3.0,2070.0,5.0,0.0
826,67.0,0.0,2070.0,5.0,0.0
827,77.0,325.0,150.0,1.0,0.0
828,89.0,5.0,150.0,1.0,0.0
829,89.0,0.0,330.0,1.0,0.0
830,36.0,7.0,1110.0,5.0,0.0
831,48.0,0.0,1110.0,5.0,0.0
832,77.0,160.0,330.0,1.0,0.0
833,70.0,0.0,150.0,3.0,0.0
834,67.0,0.0,15.0,3.0,0.0
835,88.0,0.0,15.0,1.0,0.0
836,76.0,0.0,15.0,1.0,0.0
837,70.0,160.0,15.0,3.0,0.0
838,67.0,0.0,15.0,3.0,0.0
839,70.0,0.0,150.0,3.0,0.0
840,73.0,0.0,150.0,1.0,0.0
841,85.0,150.0,150.0,1.0,0.0
842,67.0,160.0,15.0,3.0,0.0
843,70.0,0.0,15.0,3.0,0.0
844,67.0,0.0,15.0,3.0,0.0
845,72.0,0.0,330.0,1.0,0.0
846,84.0,160.0,330.0,1.0,0.0
847,70.0,0.0,150.0,1.0,0.0
848,82.0,104.0,150.0,1.0,0.0
849,72.0,160.0,90.0,2.0,0.0
850,80.0,0.0,90.0,1.0,0.0
851,53.0,0.0,90.0,5.0,0.0
852,41.0,0.0,90.0,5.0,0.0
853,77.0,0.0,90.0,2.0,0.0
854,68.0,0.0,90.0,1.0,0.0
855,68.0,160.0,90.0,1.0,0.0
856,72.0,0.0,90.0,2.0,0.0
857,80.0,0.0,90.0,1.0,0.0
858,44.0,0.0,90.0,5.0,0.0
859,56.0,0.0,90.0,5.0,0.0
860,77.0,0.0,90.0,2.0,0.0
861,68.0,0.0,90.0,1.0,0.0
862,47.0,0.0,90.0,5.0,0.0
863,72.0,0.0,90.0,2.0,0.0
864,77.0,160.0,90.0,2.0,0.0
865,59.0,0.0,90.0,5.0,0.0
866,80.0,0.0,90.0,1.0,0.0
867,80.0,0.0,90.0,1.0,0.0
868,68.0,160.0,90.0,1.0,0.0
869,77.0,0.0,90.0,2.0,0.0
870,60.0,0.0,90.0,5.0,0.0
871,48.0,0.0,90.0,5.0,0.0
872,72.0,0.0,90.0,2.0,0.0
873,77.0,0.0,90.0,2.0,0.0
874,72.0,0.0,90.0,2.0,0.0
875,41.0,160.0,90.0,5.0,0.0
876,80.0,0.0,90.0,1.0,0.0
877,68.0,0.0,90.0,1.0,0.0
878,53.0,0.0,90.0,5.0,0.0
879,77.0,0.0,90.0,2.0,0.0
880,44.0,0.0,90.0,5.0,0.0
881,56.0,0.0,90.0,5.0,0.0
882,80.0,160.0,90.0,1.0,0.0
883,72.0,0.0,90.0,2.0,0.0
884,68.0,0.0,90.0,1.0,0.0
885,80.0,0.0,90.0,1.0,0.0
886,68.0,0.0,90.0,1.0,0.0
887,72.0,0.0,90.0,2.0,0.0
888,47.0,0.0,90.0,5.0,0.0
889,59.0,160.0,90.0,5.0,0.0
890,77.0,0.0,90.0,2.0,0.0
891,72.0,0.0,90.0,2.0,0.0
892,77.0,0.0,90.0,2.0,0.0
893,80.0,0.0,90.0,1.0,0.0
894,60.0,160.0,90.0,5.0,0.0
895,48.0,0.0,90.0,5.0,0.0
896,68.0,0.0,90.0,1.0,0.0
897,41.0,0.0,90.0,5.0,0.0
898,53.0,0.0,90.0,5.0,0.0
899,72.0,0.0,90.0,2.0,0.0
900,77.0,160.0,90.0,2.0,0.0
901,80.0,0.0,90.0,1.0,0.0
902,68.0,0.0,90.0,1.0,0.0
903,72.0,0.0,90.0,2.0,0.0
904,80.0,0.0,90.0,1.0,0.0
905,68.0,0.0,90.0,1.0,0.0
906,77.0,0.0,90.0,2.0,0.0
907,56.0,0.0,90.0,5.0,0.0
908,44.0,160.0,90.0,5.0,0.0
909,83.0,0.0,90.0,1.0,0.0
910,59.0,160.0,90.0,5.0,0.0
911,47.0,0.0,90.0,5.0,0.0
912,71.0,0.0,90.0,1.0,0.0
913,72.0,0.0,90.0,1.0,0.0
914,84.0,0.0,90.0,1.0,0.0
915,60.0,0.0,90.0,5.0,0.0
916,48.0,843.0,90.0,5.0,0.0
917,84.0,8.0,780.0,1.0,0.0
918,60.0,3.0,2070.0,5.0,0.0
919,72.0,0.0,2070.0,5.0,0.0
920,96.0,157.0,780.0,1.0,0.0
921,84.0,8.0,150.0,1.0,0.0
922,96.0,320.0,15.0,1.0,0.0
923,43.0,0.0,1140.0,5.0,0.0
924,31.0,145.0,1140.0,5.0,0.0
925,84.0,0.0,330.0,1.0,0.0
926,62.0,0.0,150.0,3.0,0.0
927,71.0,0.0,150.0,3.0,0.0
928,65.0,0.0,150.0,3.0,0.0
929,83.0,0.0,150.0,1.0,0.0
930,95.0,0.0,150.0,1.0,0.0
931,65.0,160.0,150.0,3.0,0.0
932,62.0,0.0,150.0,3.0,0.0
933,71.0,0.0,15.0,3.0,0.0
934,65.0,160.0,150.0,3.0,0.0
935,62.0,0.0,150.0,3.0,0.0
936,95.0,0.0,330.0,1.0,0.0
937,83.0,0.0,330.0,1.0,0.0
938,62.0,160.0,150.0,3.0,0.0
939,65.0,0.0,150.0,3.0,0.0
940,71.0,0.0,150.0,3.0,0.0
941,92.0,0.0,150.0,1.0,0.0
942,80.0,0.0,150.0,1.0,0.0
943,62.0,0.0,150.0,3.0,0.0
944,79.0,165.0,300.0,1.0,0.0
945,71.0,157.0,15.0,3.0,0.0
946,91.0,5.0,300.0,1.0,0.0
947,65.0,0.0,15.0,3.0,0.0
948,62.0,0.0,150.0,3.0,0.0
949,89.0,0.0,150.0,1.0,0.0
950,77.0,104.0,150.0,1.0,0.0
951,48.0,0.0,90.0,5.0,0.0
952,60.0,0.0,90.0,5.0,0.0
953,88.0,0.0,90.0,1.0,0.0
954,76.0,0.0,90.0,1.0,0.0
955,79.0,160.0,90.0,2.0,0.0
956,84.0,0.0,90.0,2.0,0.0
957,52.0,0.0,90.0,5.0,0.0
958,84.0,0.0,90.0,2.0,0.0
959,79.0,0.0,90.0,2.0,0.0
960,64.0,160.0,90.0,5.0,0.0
961,88.0,0.0,90.0,1.0,0.0
962,76.0,0.0,90.0,1.0,0.0
963,84.0,0.0,90.0,2.0,0.0
964,79.0,160.0,90.0,2.0,0.0
965,88.0,0.0,90.0,1.0,0.0
966,66.0,0.0,90.0,5.0,0.0
967,76.0,0.0,90.0,1.0,0.0
968,54.0,0.0,90.0,5.0,0.0
969,67.0,160.0,90.0,5.0,0.0
970,55.0,0.0,90.0,5.0,0.0
971,76.0,0.0,90.0,1.0,0.0
972,88.0,0.0,90.0,1.0,0.0
973,84.0,0.0,90.0,2.0,0.0
974,79.0,0.0,90.0,2.0,0.0
975,79.0,0.0,90.0,2.0,0.0
976,88.0,160.0,90.0,1.0,0.0
977,48.0,0.0,90.0,5.0,0.0
978,60.0,0.0,90.0,5.0,0.0
979,76.0,0.0,90.0,1.0,0.0
980,84.0,0.0,90.0,2.0,0.0
981,52.0,160.0,90.0,5.0,0.0
982,64.0,0.0,90.0,5.0,0.0
983,76.0,0.0,90.0,1.0,0.0
984,84.0,0.0,90.0,2.0,0.0
985,79.0,0.0,90.0,2.0,0.0
986,88.0,0.0,90.0,1.0,0.0
987,84.0,160.0,90.0,2.0,0.0
988,79.0,0.0,90.0,2.0,0.0
989,76.0,0.0,90.0,1.0,0.0
990,54.0,0.0,90.0,5.0,0.0
991,66.0,0.0,90.0,5.0,0.0
992,88.0,0.0,90.0,1.0,0.0
993,88.0,0.0,90.0,1.0,0.0
994,79.0,0.0,90.0,2.0,0.0
995,76.0,0.0,90.0,1.0,0.0
996,84.0,160.0,90.0,2.0,0.0
997,67.0,0.0,90.0,5.0,0.0
998,55.0,0.0,90.0,5.0,0.0
999,48.0,160.0,90.0,5.0,0.0
1000,76.0,0.0,90.0,1.0,0.0
1001,88.0,0.0,90.0,1.0,0.0
1002,84.0,0.0,90.0,2.0,0.0
1003,79.0,0.0,90.0,2.0,0.0
1004,60.0,0.0,90.0,5.0,0.0
1005,52.0,0.0,90.0,5.0,0.0
1006,64.0,0.0,90.0,5.0,0.0
1007,79.0,0.0,90.0,2.0,0.0
1008,84.0,0.0,90.0,2.0,0.0
1009,88.0,160.0,90.0,1.0,0.0
1010,76.0,0.0,90.0,1.0,0.0
1011,54.0,0.0,90.0,5.0,0.0
1012,66.0,0.0,90.0,5.0,0.0
1013,78.0,0.0,90.0,1.0,0.0
1014,90.0,160.0,90.0,1.0,0.0
1015,79.0,0.0,90.0,1.0,0.0
1016,55.0,0.0,90.0,5.0,0.0
1017,67.0,846.0,90.0,5.0,0.0
1018,91.0,0.0,90.0,1.0,0.0
1019,87.0,5.0,780.0,1.0,0.0
1020,75.0,0.0,1920.0,5.0,0.0
1021,63.0,5.0,2070.0,5.0,0.0
1022,99.0,150.0,780.0,1.0,0.0
1023,99.0,10.0,150.0,1.0,0.0
1024,87.0,325.0,150.0,1.0,0.0
1025,32.0,10.0,1260.0,5.0,0.0
1026,99.0,0.0,810.0,1.0,0.0
1027,87.0,160.0,810.0,1.0,0.0
1028,92.0,0.0,810.0,2.0,0.0
1029,44.0,155.0,1290.0,5.0,0.0
1030,63.0,160.0,150.0,3.0,0.0
1031,60.0,0.0,150.0,3.0,0.0
1032,56.0,0.0,150.0,3.0,0.0
1033,60.0,160.0,15.0,3.0,0.0
1034,63.0,0.0,15.0,3.0,0.0
1035,56.0,0.0,15.0,3.0,0.0
1036,63.0,160.0,15.0,3.0,0.0
1037,56.0,0.0,150.0,3.0,0.0
1038,60.0,0.0,150.0,3.0,0.0
1039,56.0,0.0,150.0,3.0,0.0
1040,60.0,0.0,150.0,3.0,0.0
1041,96.0,0.0,150.0,1.0,0.0
1042,84.0,0.0,150.0,1.0,0.0
1043,82.0,5.0,330.0,1.0,0.0
1044,94.0,0.0,330.0,1.0,0.0
1045,56.0,150.0,150.0,3.0,0.0
1046,63.0,155.0,15.0,3.0,0.0
1047,60.0,0.0,150.0,3.0,0.0
1048,56.0,0.0,150.0,3.0,0.0
1049,60.0,0.0,150.0,3.0,0.0
1050,63.0,0.0,150.0,3.0,0.0
1051,63.0,0.0,150.0,3.0,0.0
1052,60.0,0.0,150.0,3.0,0.0
1053,80.0,0.0,150.0,1.0,0.0
1054,56.0,0.0,150.0,3.0,0.0
1055,92.0,160.0,15.0,1.0,0.0
1056,85.0,0.0,960.0,2.0,0.0
1057,88.0,0.0,960.0,2.0,0.0
1058,64.0,0.0,1110.0,2.0,0.0
1059,56.0,0.0,150.0,3.0,0.0
1060,80.0,0.0,480.0,1.0,0.0
1061,58.0,0.0,15.0,3.0,0.0
1062,61.0,160.0,15.0,3.0,0.0
1063,61.0,160.0,15.0,3.0,0.0
1064,58.0,0.0,15.0,3.0,0.0
1065,56.0,0.0,15.0,3.0,0.0
1066,91.0,0.0,480.0,1.0,0.0
1067,79.0,160.0,480.0,1.0,0.0
1068,56.0,160.0,150.0,3.0,0.0
1069,58.0,0.0,150.0,3.0,0.0
1070,61.0,160.0,15.0,3.0,0.0
1071,58.0,0.0,15.0,3.0,0.0
1072,56.0,160.0,15.0,3.0,0.0
1073,61.0,0.0,15.0,3.0,0.0
1074,56.0,0.0,15.0,3.0,0.0
1075,61.0,0.0,15.0,3.0,0.0
1076,58.0,320.0,150.0,3.0,0.0
1077,94.0,0.0,150.0,1.0,0.0
1078,82.0,320.0,150.0,1.0,0.0
1079,92.0,160.0,810.0,2.0,0.0
1080,87.0,0.0,810.0,1.0,0.0
1081,99.0,0.0,810.0,1.0,0.0
1082,44.0,20.0,1260.0,5.0,0.0
1083,32.0,0.0,1260.0,5.0,0.0
1084,56.0,0.0,150.0,3.0,0.0
1085,60.0,160.0,150.0,3.0,0.0
1086,63.0,0.0,15.0,3.0,0.0
1087,60.0,160.0,150.0,3.0,0.0
1088,56.0,0.0,150.0,3.0,0.0
1089,60.0,0.0,150.0,3.0,0.0
1090,63.0,0.0,150.0,3.0,0.0
1091,56.0,160.0,150.0,3.0,0.0
1092,63.0,0.0,15.0,3.0,0.0
1093,56.0,0.0,15.0,3.0,0.0
1094,60.0,0.0,15.0,3.0,0.0
1095,96.0,0.0,150.0,1.0,0.0
1096,84.0,0.0,150.0,1.0,0.0
1097,56.0,160.0,15.0,3.0,0.0
1098,63.0,0.0,15.0,3.0,0.0
1099,60.0,0.0,15.0,3.0,0.0
1100,94.0,0.0,330.0,1.0,0.0
1101,82.0,0.0,330.0,1.0,0.0
1102,60.0,140.0,15.0,3.0,0.0
1103,80.0,0.0,150.0,1.0,0.0
1104,56.0,160.0,15.0,3.0,0.0
1105,63.0,0.0,15.0,3.0,0.0
1106,60.0,0.0,150.0,3.0,0.0
1107,56.0,160.0,15.0,3.0,0.0
1108,92.0,0.0,15.0,1.0,0.0
1109,80.0,0.0,480.0,1.0,0.0
1110,64.0,0.0,1110.0,2.0,0.0
1111,85.0,0.0,960.0,2.0,0.0
1112,88.0,0.0,960.0,2.0,0.0
1113,61.0,0.0,15.0,3.0,0.0
1114,58.0,160.0,15.0,3.0,0.0
1115,56.0,0.0,15.0,3.0,0.0
1116,56.0,160.0,15.0,3.0,0.0
1117,58.0,0.0,15.0,3.0,0.0
1118,61.0,160.0,15.0,3.0,0.0
1119,58.0,0.0,15.0,3.0,0.0
1120,91.0,160.0,480.0,1.0,0.0
1121,79.0,0.0,480.0,1.0,0.0
1122,56.0,0.0,15.0,3.0,0.0
1123,61.0,160.0,15.0,3.0,0.0
1124,58.0,0.0,15.0,3.0,0.0
1125,56.0,0.0,150.0,3.0,0.0
1126,61.0,0.0,150.0,3.0,0.0
1127,58.0,0.0,15.0,3.0,0.0
1128,56.0,0.0,15.0,3.0,0.0
1129,61.0,320.0,150.0,3.0,0.0
1130,82.0,0.0,150.0,1.0,0.0
1131,94.0,320.0,150.0,1.0,0.0
1132,99.0,0.0,810.0,1.0,0.0
1133,87.0,155.0,810.0,1.0,0.0
1134,44.0,0.0,720.0,5.0,0.0
1135,32.0,85.0,720.0,5.0,0.0
1136,92.0,5.0,780.0,2.0,0.0
1137,60.0,0.0,150.0,3.0,0.0
1138,56.0,160.0,15.0,3.0,0.0
1139,63.0,0.0,15.0,3.0,0.0
1140,60.0,160.0,150.0,3.0,0.0
1141,60.0,0.0,150.0,3.0,0.0
1142,56.0,0.0,15.0,3.0,0.0
1143,63.0,70.0,15.0,3.0,0.0
1144,60.0,0.0,150.0,3.0,0.0
1145,96.0,0.0,150.0,1.0,0.0
1146,84.0,0.0,150.0,1.0,0.0
1147,60.0,160.0,150.0,3.0,0.0
1148,63.0,0.0,150.0,3.0,0.0
1149,56.0,5.0,15.0,3.0,0.0
1150,82.0,160.0,330.0,1.0,0.0
1151,94.0,5.0,300.0,1.0,0.0
1152,48.0,155.0,150.0,5.0,0.0
1153,63.0,0.0,150.0,3.0,0.0
1154,56.0,0.0,15.0,3.0,0.0
1155,80.0,160.0,150.0,1.0,0.0
1156,92.0,0.0,150.0,1.0,0.0
1157,63.0,0.0,150.0,3.0,0.0
1158,79.0,0.0,330.0,1.0,0.0
1159,46.0,160.0,150.0,5.0,0.0
1160,91.0,155.0,330.0,1.0,0.0
1161,67.0,0.0,150.0,3.0,0.0
1162,58.0,0.0,150.0,3.0,0.0
1163,63.0,5.0,15.0,3.0,0.0
1164,92.0,0.0,150.0,1.0,0.0
1165,67.0,0.0,150.0,3.0,0.0
1166,80.0,0.0,150.0,1.0,0.0
1167,58.0,160.0,15.0,3.0,0.0
1168,82.0,160.0,480.0,1.0,0.0
1169,94.0,0.0,480.0,1.0,0.0
1170,63.0,0.0,150.0,3.0,0.0
1171,63.0,0.0,150.0,3.0,0.0
1172,58.0,0.0,150.0,3.0,0.0
1173,67.0,160.0,15.0,3.0,0.0
1174,63.0,0.0,150.0,3.0,0.0
1175,67.0,160.0,15.0,3.0,0.0
1176,89.0,5.0,330.0,1.0,0.0
1177,86.0,0.0,330.0,2.0,0.0
1178,77.0,150.0,330.0,1.0,0.0
1179,58.0,0.0,15.0,3.0,0.0
1180,62.0,0.0,150.0,3.0,0.0
1181,58.0,160.0,15.0,3.0,0.0
1182,68.0,0.0,15.0,3.0,0.0
1183,62.0,0.0,150.0,3.0,0.0
1184,68.0,160.0,150.0,3.0,0.0
1185,58.0,0.0,150.0,3.0,0.0
1186,78.0,0.0,150.0,1.0,0.0
1187,62.0,0.0,150.0,3.0,0.0
1188,90.0,0.0,150.0,1.0,0.0
1189,88.0,0.0,960.0,1.0,0.0
1190,46.0,0.0,720.0,5.0,0.0
1191,85.0,0.0,150.0,3.0,0.0
1192,79.0,0.0,150.0,3.0,0.0
1193,58.0,80.0,720.0,5.0,0.0
1194,76.0,160.0,150.0,2.0,0.0
1195,76.0,0.0,150.0,2.0,0.0
1196,79.0,0.0,15.0,3.0,0.0
1197,85.0,160.0,15.0,3.0,0.0
1198,76.0,160.0,15.0,2.0,0.0
1199,79.0,80.0,150.0,3.0,0.0
1200,85.0,0.0,15.0,3.0,0.0
1201,76.0,0.0,15.0,2.0,0.0
1202,85.0,0.0,15.0,3.0,0.0
1203,79.0,0.0,15.0,3.0,0.0
1204,55.0,0.0,150.0,5.0,0.0
1205,76.0,160.0,150.0,2.0,0.0
1206,87.0,160.0,480.0,1.0,0.0
1207,79.0,0.0,15.0,3.0,0.0
1208,85.0,0.0,15.0,3.0,0.0
1209,43.0,0.0,15.0,5.0,0.0
1210,55.0,0.0,150.0,5.0,0.0
1211,75.0,0.0,150.0,2.0,0.0
1212,41.0,0.0,150.0,5.0,0.0
1213,53.0,0.0,150.0,5.0,0.0
1214,79.0,0.0,15.0,3.0,0.0
1215,85.0,160.0,15.0,3.0,0.0
1216,75.0,160.0,150.0,2.0,0.0
1217,79.0,0.0,15.0,3.0,0.0
1218,85.0,0.0,150.0,3.0,0.0
1219,39.0,0.0,150.0,5.0,0.0
1220,51.0,0.0,150.0,5.0,0.0
1221,75.0,0.0,150.0,2.0,0.0
1222,32.0,128.0,150.0,5.0,0.0
1223,44.0,0.0,150.0,5.0,0.0
1224,92.0,128.0,810.0,2.0,0.0
1225,87.0,0.0,810.0,1.0,0.0
1226,99.0,0.0,810.0,1.0,0.0
1227,60.0,0.0,120.0,3.0,0.0
1228,56.0,0.0,120.0,3.0,0.0
1229,63.0,160.0,120.0,5.0,0.0
1230,60.0,0.0,120.0,3.0,0.0
1231,56.0,192.0,120.0,3.0,0.0
1232,63.0,0.0,120.0,5.0,0.0
1233,63.0,0.0,150.0,5.0,0.0
1234,60.0,128.0,150.0,3.0,0.0
1235,56.0,0.0,150.0,3.0,0.0
1236,65.0,32.0,120.0,5.0,0.0
1237,56.0,0.0,120.0,3.0,0.0
1238,60.0,0.0,120.0,3.0,0.0
1239,84.0,160.0,150.0,1.0,0.0
1240,96.0,0.0,150.0,1.0,0.0
1241,63.0,32.0,120.0,5.0,0.0
1242,56.0,0.0,150.0,3.0,0.0
1243,82.0,128.0,330.0,1.0,0.0
1244,94.0,0.0,330.0,1.0,0.0
1245,63.0,0.0,150.0,5.0,0.0
1246,60.0,128.0,150.0,3.0,0.0
1247,65.0,32.0,120.0,5.0,0.0
1248,63.0,0.0,120.0,5.0,0.0
1249,92.0,288.0,150.0,1.0,0.0
1250,60.0,32.0,120.0,3.0,0.0
1251,56.0,0.0,120.0,3.0,0.0
1252,80.0,0.0,150.0,1.0,0.0
1253,85.0,160.0,960.0,2.0,0.0
1254,88.0,0.0,960.0,2.0,0.0
1255,80.0,0.0,480.0,1.0,0.0
1256,92.0,160.0,480.0,1.0,0.0
1257,61.0,0.0,120.0,3.0,0.0
1258,58.0,0.0,120.0,3.0,0.0
1259,56.0,160.0,120.0,3.0,0.0
1260,64.0,0.0,120.0,5.0,0.0
1261,58.0,0.0,120.0,3.0,0.0
1262,64.0,32.0,120.0,5.0,0.0
1263,56.0,0.0,120.0,3.0,0.0
1264,61.0,0.0,120.0,3.0,0.0
1265,61.0,128.0,150.0,3.0,0.0
1266,58.0,0.0,150.0,3.0,0.0
1267,56.0,0.0,150.0,3.0,0.0
1268,64.0,0.0,150.0,5.0,0.0
1269,79.0,0.0,480.0,1.0,0.0
1270,91.0,0.0,480.0,1.0,0.0
1271,66.0,160.0,120.0,5.0,0.0
1272,64.0,0.0,120.0,5.0,0.0
1273,56.0,0.0,120.0,3.0,0.0
1274,58.0,0.0,120.0,3.0,0.0
1275,61.0,32.0,120.0,3.0,0.0
1276,64.0,0.0,150.0,5.0,0.0
1277,56.0,128.0,150.0,3.0,0.0
1278,61.0,0.0,150.0,3.0,0.0
1279,58.0,0.0,150.0,3.0,0.0
1280,66.0,160.0,120.0,5.0,0.0
1281,94.0,0.0,150.0,1.0,0.0
1282,82.0,288.0,150.0,1.0,0.0
1283,61.0,32.0,120.0,3.0,0.0
1284,64.0,0.0,120.0,5.0,0.0
1285,56.0,0.0,120.0,3.0,0.0
1286,58.0,0.0,120.0,3.0,0.0
1287,99.0,0.0,810.0,1.0,0.0
1288,32.0,281.0,1440.0,5.0,0.0
1289,92.0,128.0,810.0,2.0,0.0
1290,87.0,0.0,810.0,1.0,0.0
1291,44.0,0.0,1440.0,5.0,0.0
1292,59.0,0.0,120.0,3.0,0.0
1293,63.0,160.0,120.0,5.0,0.0
1294,56.0,0.0,120.0,3.0,0.0
1295,59.0,0.0,120.0,3.0,0.0
1296,56.0,192.0,120.0,3.0,0.0
1297,63.0,0.0,120.0,5.0,0.0
1298,59.0,128.0,150.0,3.0,0.0
1299,56.0,0.0,150.0,3.0,0.0
1300,63.0,0.0,150.0,5.0,0.0
1301,64.0,32.0,120.0,5.0,0.0
1302,63.0,0.0,120.0,5.0,0.0
1303,95.0,0.0,150.0,1.0,0.0
1304,83.0,160.0,150.0,1.0,0.0
1305,56.0,0.0,120.0,3.0,0.0
1306,59.0,32.0,120.0,3.0,0.0
1307,59.0,128.0,150.0,3.0,0.0
1308,56.0,0.0,150.0,3.0,0.0
1309,94.0,128.0,330.0,1.0,0.0
1310,82.0,0.0,330.0,1.0,0.0
1311,63.0,0.0,150.0,5.0,0.0
1312,64.0,32.0,120.0,5.0,0.0
1313,92.0,0.0,150.0,1.0,0.0
1314,63.0,32.0,120.0,5.0,0.0
1315,59.0,0.0,120.0,3.0,0.0
1316,56.0,0.0,120.0,3.0,0.0
1317,88.0,0.0,960.0,2.0,0.0
1318,85.0,0.0,960.0,2.0,0.0
1319,80.0,7.0,15.0,1.0,0.0
1320,92.0,160.0,480.0,1.0,0.0
1321,64.0,0.0,120.0,5.0,0.0
1322,58.0,0.0,120.0,3.0,0.0
1323,61.0,160.0,120.0,3.0,0.0
1324,56.0,0.0,120.0,3.0,0.0
1325,61.0,0.0,120.0,3.0,0.0
1326,58.0,0.0,120.0,3.0,0.0
1327,56.0,32.0,120.0,3.0,0.0
1328,64.0,0.0,120.0,5.0,0.0
1329,79.0,160.0,480.0,1.0,0.0
1330,91.0,0.0,480.0,1.0,0.0
1331,56.0,0.0,150.0,3.0,0.0
1332,58.0,0.0,150.0,3.0,0.0
1333,61.0,128.0,150.0,3.0,0.0
1334,64.0,0.0,150.0,5.0,0.0
1335,66.0,160.0,120.0,5.0,0.0
1336,58.0,32.0,120.0,3.0,0.0
1337,56.0,0.0,120.0,3.0,0.0
1338,64.0,0.0,120.0,5.0,0.0
1339,61.0,0.0,120.0,3.0,0.0
1340,64.0,128.0,150.0,5.0,0.0
1341,56.0,0.0,150.0,3.0,0.0
1342,58.0,0.0,150.0,3.0,0.0
1343,61.0,0.0,150.0,3.0,0.0
1344,66.0,160.0,120.0,5.0,0.0
1345,61.0,32.0,120.0,3.0,0.0
1346,58.0,0.0,120.0,3.0,0.0
1347,88.0,128.0,150.0,1.0,0.0
1348,76.0,0.0,150.0,1.0,0.0
1349,64.0,0.0,120.0,5.0,0.0
1350,56.0,0.0,120.0,3.0,0.0
1351,76.0,7.0,780.0,1.0,0.0
1352,56.0,160.0,120.0,3.0,0.0
1353,88.0,126.0,810.0,1.0,0.0
1354,44.0,121.0,1440.0,5.0,0.0
1355,83.0,0.0,780.0,2.0,0.0
1356,56.0,0.0,120.0,3.0,0.0
1357,59.0,160.0,120.0,5.0,0.0
1358,59.0,192.0,120.0,5.0,0.0
1359,56.0,0.0,120.0,3.0,0.0
1360,59.0,0.0,150.0,5.0,0.0
1361,56.0,128.0,150.0,3.0,0.0
1362,61.0,27.0,120.0,5.0,0.0
1363,56.0,32.0,120.0,3.0,0.0
1364,59.0,0.0,120.0,5.0,0.0
1365,83.0,160.0,150.0,1.0,0.0
1366,71.0,0.0,150.0,1.0,0.0
1367,59.0,0.0,150.0,5.0,0.0
1368,69.0,118.0,330.0,1.0,0.0
1369,81.0,8.0,330.0,1.0,0.0
1370,56.0,128.0,150.0,3.0,0.0
1371,61.0,34.0,120.0,5.0,0.0
1372,59.0,32.0,120.0,5.0,0.0
1373,56.0,0.0,120.0,3.0,0.0
1374,80.0,0.0,150.0,1.0,0.0
1375,68.0,7.0,150.0,1.0,0.0
1376,45.0,128.0,1440.0,5.0,0.0
1377,76.0,0.0,810.0,2.0,0.0
1378,73.0,0.0,780.0,2.0,0.0
1379,80.0,128.0,810.0,1.0,0.0
1380,68.0,5.0,780.0,1.0,0.0
1381,57.0,160.0,120.0,3.0,0.0
1382,61.0,160.0,120.0,5.0,0.0
1383,57.0,0.0,120.0,3.0,0.0
1384,61.0,192.0,120.0,5.0,0.0
1385,57.0,0.0,120.0,3.0,0.0
1386,61.0,0.0,150.0,5.0,0.0
1387,57.0,128.0,150.0,3.0,0.0
1388,62.0,27.0,120.0,5.0,0.0
1389,61.0,0.0,120.0,5.0,0.0
1390,66.0,160.0,150.0,1.0,0.0
1391,78.0,0.0,150.0,1.0,0.0
1392,57.0,32.0,120.0,3.0,0.0
1393,61.0,0.0,150.0,5.0,0.0
1394,65.0,0.0,330.0,1.0,0.0
1395,77.0,128.0,330.0,1.0,0.0
1396,57.0,128.0,150.0,3.0,0.0
1397,62.0,32.0,120.0,5.0,0.0
1398,73.0,0.0,150.0,2.0,0.0
1399,57.0,0.0,120.0,3.0,0.0
1400,66.0,0.0,150.0,1.0,0.0
1401,61.0,32.0,120.0,5.0,0.0
1402,78.0,0.0,150.0,1.0,0.0
1403,59.0,160.0,120.0,3.0,0.0
1404,76.0,0.0,15.0,2.0,0.0
1405,74.0,5.0,780.0,2.0,0.0
1406,81.0,10.0,780.0,1.0,0.0
1407,69.0,123.0,810.0,1.0,0.0
1408,47.0,0.0,1440.0,5.0,0.0
1409,59.0,160.0,120.0,3.0,0.0
1410,62.0,0.0,120.0,3.0,0.0
1411,64.0,0.0,120.0,5.0,0.0
1412,59.0,192.0,120.0,3.0,0.0
1413,62.0,0.0,120.0,3.0,0.0
1414,64.0,0.0,120.0,5.0,0.0
1415,62.0,128.0,150.0,3.0,0.0
1416,59.0,0.0,150.0,3.0,0.0
1417,64.0,0.0,150.0,5.0,0.0
1418,66.0,17.0,120.0,5.0,0.0
1419,76.0,0.0,150.0,2.0,0.0
1420,59.0,0.0,120.0,3.0,0.0
1421,64.0,0.0,120.0,5.0,0.0
1422,62.0,32.0,120.0,3.0,0.0
1423,68.0,0.0,150.0,1.0,0.0
1424,80.0,160.0,150.0,1.0,0.0
1425,67.0,118.0,330.0,1.0,0.0
1426,74.0,0.0,15.0,2.0,0.0
1427,79.0,5.0,330.0,1.0,0.0
1428,62.0,0.0,150.0,3.0,0.0
1429,59.0,128.0,150.0,3.0,0.0
1430,64.0,0.0,150.0,5.0,0.0
1431,76.0,0.0,330.0,2.0,0.0
1432,66.0,32.0,120.0,5.0,0.0
1433,68.0,0.0,150.0,1.0,0.0
1434,77.0,0.0,150.0,2.0,0.0
1435,74.0,5.0,15.0,2.0,0.0
1436,80.0,0.0,150.0,1.0,0.0
1437,62.0,0.0,120.0,3.0,0.0
1438,59.0,0.0,120.0,3.0,0.0
1439,64.0,32.0,120.0,5.0,0.0
1440,76.0,5.0,780.0,2.0,0.0
1441,49.0,8.0,1440.0,5.0,0.0
1442,61.0,160.0,120.0,3.0,0.0
1443,83.0,0.0,810.0,1.0,0.0
1444,71.0,128.0,810.0,1.0,0.0
1445,61.0,160.0,120.0,3.0,0.0
1446,64.0,0.0,120.0,5.0,0.0
1447,64.0,192.0,120.0,5.0,0.0
1448,61.0,0.0,120.0,3.0,0.0
1449,61.0,0.0,150.0,3.0,0.0
1450,64.0,128.0,150.0,5.0,0.0
1451,66.0,27.0,120.0,5.0,0.0
1452,61.0,0.0,120.0,3.0,0.0
1453,69.0,0.0,150.0,1.0,0.0
1454,81.0,160.0,150.0,1.0,0.0
1455,64.0,32.0,120.0,5.0,0.0
1456,64.0,0.0,150.0,5.0,0.0
1457,61.0,128.0,150.0,3.0,0.0
1458,68.0,123.0,330.0,1.0,0.0
1459,80.0,5.0,330.0,1.0,0.0
1460,66.0,32.0,120.0,5.0,0.0
1461,81.0,0.0,150.0,1.0,0.0
1462,61.0,0.0,120.0,3.0,0.0
1463,69.0,128.0,150.0,1.0,0.0
1464,64.0,24.0,120.0,5.0,0.0
1465,76.0,5.0,780.0,2.0,0.0
1466,49.0,15.0,1440.0,5.0,0.0
1467,61.0,160.0,120.0,3.0,0.0
1468,83.0,128.0,810.0,1.0,0.0
1469,71.0,0.0,810.0,1.0,0.0
1470,65.0,160.0,120.0,5.0,0.0
1471,61.0,0.0,120.0,3.0,0.0
1472,61.0,192.0,120.0,3.0,0.0
1473,65.0,0.0,120.0,5.0,0.0
1474,65.0,0.0,150.0,5.0,0.0
1475,61.0,128.0,150.0,3.0,0.0
1476,66.0,27.0,120.0,5.0,0.0
1477,65.0,32.0,120.0,5.0,0.0
1478,69.0,160.0,150.0,1.0,0.0
1479,61.0,0.0,120.0,3.0,0.0
1480,81.0,0.0,150.0,1.0,0.0
1481,61.0,0.0,150.0,3.0,0.0
1482,65.0,128.0,150.0,5.0,0.0
1483,80.0,5.0,330.0,1.0,0.0
1484,68.0,123.0,330.0,1.0,0.0
1485,66.0,32.0,120.0,5.0,0.0
1486,65.0,0.0,120.0,5.0,0.0
1487,61.0,17.0,120.0,3.0,0.0
1488,69.0,128.0,150.0,1.0,0.0
1489,81.0,0.0,150.0,1.0,0.0
1490,49.0,281.0,1440.0,5.0,0.0
1491,77.0,133.0,300.0,2.0,0.0
1492,71.0,0.0,300.0,1.0,0.0
1493,83.0,0.0,300.0,1.0,0.0
1494,61.0,160.0,120.0,3.0,0.0
1495,65.0,0.0,120.0,5.0,0.0
1496,61.0,27.0,120.0,3.0,0.0
1497,81.0,0.0,150.0,1.0,0.0
1498,69.0,0.0,150.0,1.0,0.0
1499,61.0,32.0,120.0,3.0,0.0
1500,65.0,0.0,120.0,5.0,0.0
1501,68.0,118.0,330.0,1.0,0.0
1502,61.0,128.0,150.0,3.0,0.0
1503,77.0,160.0,15.0,2.0,0.0
1504,65.0,0.0,150.0,5.0,0.0
1505,80.0,15.0,300.0,1.0,0.0
1506,66.0,27.0,120.0,5.0,0.0
1507,65.0,32.0,120.0,5.0,0.0
1508,61.0,0.0,120.0,3.0,0.0
1509,81.0,0.0,150.0,1.0,0.0
1510,69.0,0.0,150.0,1.0,0.0
1511,77.0,160.0,15.0,2.0,0.0
1512,68.0,118.0,330.0,1.0,0.0
1513,80.0,15.0,300.0,1.0,0.0
1514,61.0,0.0,150.0,3.0,0.0
1515,65.0,128.0,150.0,5.0,0.0
1516,66.0,27.0,120.0,5.0,0.0
1517,61.0,32.0,120.0,3.0,0.0
1518,81.0,0.0,150.0,1.0,0.0
1519,69.0,7.0,150.0,1.0,0.0
1520,65.0,0.0,120.0,5.0,0.0
1521,89.0,0.0,300.0,2.0,0.0
1522,95.0,0.0,300.0,1.0,0.0
1523,83.0,133.0,300.0,1.0,0.0
1524,53.0,0.0,120.0,5.0,0.0
1525,49.0,27.0,120.0,5.0,0.0
1526,53.0,32.0,120.0,5.0,0.0
1527,49.0,0.0,120.0,5.0,0.0
1528,81.0,160.0,150.0,1.0,0.0
1529,93.0,0.0,150.0,1.0,0.0
1530,80.0,118.0,330.0,1.0,0.0
1531,49.0,0.0,150.0,5.0,0.0
1532,53.0,128.0,150.0,5.0,0.0
1533,89.0,0.0,15.0,2.0,0.0
1534,92.0,15.0,300.0,1.0,0.0
1535,54.0,27.0,120.0,5.0,0.0
1536,81.0,0.0,150.0,1.0,0.0
1537,53.0,32.0,120.0,5.0,0.0
1538,93.0,0.0,150.0,1.0,0.0
1539,49.0,0.0,120.0,5.0,0.0
1540,53.0,0.0,150.0,5.0,0.0
1541,49.0,128.0,150.0,5.0,0.0
1542,94.0,133.0,300.0,1.0,0.0
1543,82.0,8.0,300.0,1.0,0.0
1544,89.0,7.0,300.0,2.0,0.0
1545,54.0,12.0,120.0,5.0,0.0
1546,49.0,0.0,120.0,5.0,0.0
1547,83.0,104.0,150.0,1.0,0.0
1548,95.0,0.0,150.0,1.0,0.0
1549,89.0,0.0,150.0,2.0,0.0
1550,53.0,32.0,120.0,5.0,0.0
1551,92.0,0.0,90.0,2.0,0.0
1552,89.0,0.0,90.0,2.0,0.0
1553,84.0,0.0,90.0,1.0,0.0
1554,96.0,0.0,90.0,1.0,0.0
1555,60.0,0.0,90.0,5.0,0.0
1556,48.0,160.0,90.0,5.0,0.0
1557,53.0,0.0,90.0,5.0,0.0
1558,96.0,0.0,90.0,1.0,0.0
1559,92.0,0.0,90.0,2.0,0.0
1560,89.0,0.0,90.0,2.0,0.0
1561,84.0,0.0,90.0,1.0,0.0
1562,65.0,160.0,90.0,5.0,0.0
1563,84.0,0.0,90.0,1.0,0.0
1564,96.0,0.0,90.0,1.0,0.0
1565,92.0,160.0,90.0,2.0,0.0
1566,89.0,0.0,90.0,2.0,0.0
1567,55.0,0.0,90.0,5.0,0.0
1568,67.0,0.0,90.0,5.0,0.0
1569,56.0,0.0,90.0,5.0,0.0
1570,68.0,0.0,90.0,5.0,0.0
1571,84.0,0.0,90.0,1.0,0.0
1572,96.0,160.0,90.0,1.0,0.0
1573,92.0,0.0,90.0,2.0,0.0
1574,89.0,0.0,90.0,2.0,0.0
1575,96.0,0.0,90.0,1.0,0.0
1576,89.0,0.0,90.0,2.0,0.0
1577,92.0,160.0,90.0,2.0,0.0
1578,60.0,0.0,90.0,5.0,0.0
1579,48.0,0.0,90.0,5.0,0.0
1580,84.0,0.0,90.0,1.0,0.0
1581,84.0,0.0,90.0,1.0,0.0
1582,92.0,0.0,90.0,2.0,0.0
1583,89.0,0.0,90.0,2.0,0.0
1584,96.0,0.0,90.0,1.0,0.0
1585,53.0,0.0,90.0,5.0,0.0
1586,65.0,160.0,90.0,5.0,0.0
1587,96.0,0.0,90.0,1.0,0.0
1588,84.0,0.0,90.0,1.0,0.0
1589,55.0,160.0,90.0,5.0,0.0
1590,67.0,0.0,90.0,5.0,0.0
1591,92.0,0.0,90.0,2.0,0.0
1592,89.0,0.0,90.0,2.0,0.0
1593,68.0,0.0,90.0,5.0,0.0
1594,56.0,0.0,90.0,5.0,0.0
1595,96.0,0.0,90.0,1.0,0.0
1596,84.0,0.0,90.0,1.0,0.0
1597,92.0,160.0,90.0,2.0,0.0
1598,89.0,0.0,90.0,2.0,0.0
1599,89.0,0.0,90.0,2.0,0.0
1600,92.0,0.0,90.0,2.0,0.0
1601,60.0,0.0,90.0,5.0,0.0
1602,84.0,160.0,90.0,1.0,0.0
1603,96.0,0.0,90.0,1.0,0.0
1604,48.0,0.0,90.0,5.0,0.0
1605,84.0,0.0,90.0,1.0,0.0
1606,92.0,0.0,90.0,2.0,0.0
1607,89.0,0.0,90.0,2.0,0.0
1608,96.0,160.0,90.0,1.0,0.0
1609,53.0,0.0,90.0,5.0,0.0
1610,65.0,0.0,90.0,5.0,0.0
1611,92.0,0.0,90.0,2.0,0.0
1612,89.0,160.0,90.0,2.0,0.0
1613,84.0,0.0,90.0,1.0,0.0
1614,96.0,0.0,90.0,1.0,0.0
1615,67.0,0.0,90.0,5.0,0.0
1616,55.0,0.0,90.0,5.0,0.0
1617,89.0,0.0,90.0,2.0,0.0
1618,56.0,0.0,90.0,5.0,0.0
1619,68.0,0.0,90.0,5.0,0.0
1620,96.0,296.0,90.0,1.0,0.0
1621,84.0,0.0,90.0,1.0,0.0
1622,92.0,0.0,90.0,2.0,0.0
1623,89.0,0.0,240.0,2.0,0.0
1624,72.0,344.0,240.0,5.0,0.0
1625,60.0,0.0,240.0,5.0,0.0
1626,92.0,0.0,240.0,2.0,0.0
1627,84.0,0.0,240.0,1.0,0.0
1628,96.0,0.0,240.0,1.0,0.0
1629,53.0,0.0,90.0,5.0,0.0
1630,89.0,0.0,90.0,1.0,0.0
1631,65.0,0.0,90.0,5.0,0.0
1632,77.0,160.0,90.0,1.0,0.0
1633,67.0,0.0,90.0,5.0,0.0
1634,91.0,0.0,90.0,1.0,0.0
1635,79.0,0.0,90.0,1.0,0.0
1636,55.0,160.0,90.0,5.0,0.0
1637,80.0,0.0,90.0,1.0,0.0
1638,92.0,0.0,90.0,1.0,0.0
1639,56.0,0.0,90.0,5.0,0.0
1640,68.0,296.0,90.0,5.0,0.0
1641,97.0,0.0,240.0,1.0,0.0
1642,73.0,0.0,240.0,5.0,0.0
1643,61.0,344.0,240.0,5.0,0.0
1644,85.0,0.0,240.0,1.0,0.0
1645,53.0,0.0,90.0,5.0,0.0
1646,65.0,160.0,90.0,5.0,0.0
1647,77.0,0.0,90.0,1.0,0.0
1648,89.0,0.0,90.0,1.0,0.0
1649,91.0,0.0,90.0,1.0,0.0
1650,55.0,0.0,90.0,5.0,0.0
1651,67.0,0.0,90.0,5.0,0.0
1652,79.0,160.0,90.0,1.0,0.0
1653,80.0,0.0,90.0,1.0,0.0
1654,92.0,296.0,90.0,1.0,0.0
1655,68.0,0.0,90.0,5.0,0.0
1656,56.0,0.0,90.0,5.0,0.0
1657,86.0,0.0,240.0,1.0,0.0
1658,62.0,1116.0,240.0,5.0,0.0
1659,74.0,0.0,240.0,5.0,0.0
1660,98.0,0.0,240.0,1.0,0.0
1661,89.0,0.0,150.0,1.0,0.0
1662,77.0,240.0,150.0,1.0,0.0
1663,44.0,0.0,150.0,5.0,0.0
1664,56.0,0.0,150.0,5.0,0.0
1665,79.0,0.0,150.0,1.0,0.0
1666,55.0,0.0,150.0,5.0,0.0
1667,43.0,240.0,150.0,5.0,0.0
1668,91.0,0.0,150.0,1.0,0.0
1669,41.0,0.0,150.0,5.0,0.0
1670,80.0,0.0,150.0,1.0,0.0
1671,92.0,0.0,150.0,1.0,0.0
1672,53.0,188.0,150.0,5.0,0.0
1673,92.0,0.0,90.0,1.0,0.0
1674,104.0,160.0,90.0,1.0,0.0
1675,36.0,0.0,90.0,5.0,0.0
1676,48.0,0.0,90.0,5.0,0.0
1677,53.0,160.0,90.0,4.0,0.0
1678,56.0,0.0,90.0,4.0,0.0
1679,101.0,0.0,90.0,1.0,0.0
1680,48.0,0.0,90.0,5.0,0.0
1681,89.0,0.0,90.0,1.0,0.0
1682,48.0,0.0,90.0,5.0,0.0
1683,84.0,0.0,90.0,1.0,0.0
1684,96.0,0.0,90.0,1.0,0.0
1685,53.0,0.0,90.0,4.0,0.0
1686,56.0,160.0,90.0,4.0,0.0
1687,92.0,160.0,90.0,1.0,0.0
1688,80.0,0.0,90.0,1.0,0.0
1689,56.0,0.0,90.0,4.0,0.0
1690,48.0,0.0,90.0,5.0,0.0
1691,53.0,0.0,90.0,4.0,0.0
1692,48.0,160.0,90.0,5.0,0.0
1693,56.0,0.0,90.0,4.0,0.0
1694,89.0,0.0,90.0,1.0,0.0
1695,53.0,0.0,90.0,4.0,0.0
1696,65.0,0.0,90.0,1.0,0.0
1697,48.0,0.0,90.0,5.0,0.0
1698,72.0,0.0,90.0,1.0,0.0
1699,84.0,160.0,90.0,1.0,0.0
1700,56.0,0.0,90.0,4.0,0.0
1701,53.0,0.0,90.0,4.0,0.0
1702,68.0,0.0,90.0,1.0,0.0
1703,80.0,0.0,90.0,1.0,0.0
1704,53.0,160.0,90.0,4.0,0.0
1705,56.0,0.0,90.0,4.0,0.0
1706,48.0,0.0,90.0,5.0,0.0
1707,65.0,0.0,90.0,1.0,0.0
1708,53.0,0.0,90.0,4.0,0.0
1709,56.0,160.0,90.0,4.0,0.0
1710,48.0,0.0,90.0,5.0,0.0
1711,77.0,0.0,90.0,1.0,0.0
1712,48.0,0.0,90.0,5.0,0.0
1713,56.0,0.0,90.0,4.0,0.0
1714,73.0,0.0,90.0,1.0,0.0
1715,61.0,296.0,90.0,1.0,0.0
1716,53.0,0.0,90.0,4.0,0.0
1717,60.0,960.0,240.0,1.0,0.0
1718,48.0,0.0,240.0,5.0,0.0
1719,53.0,0.0,240.0,4.0,0.0
1720,56.0,0.0,240.0,4.0,0.0
1721,72.0,0.0,240.0,1.0,0.0
1722,48.0,0.0,300.0,5.0,0.0
1723,79.0,0.0,270.0,2.0,0.0
1724,52.0,0.0,270.0,4.0,0.0
1725,82.0,0.0,270.0,2.0,0.0
1726,55.0,339.0,270.0,4.0,0.0
1727,84.0,0.0,240.0,2.0,0.0
1728,76.0,5.0,240.0,1.0,0.0
1729,60.0,0.0,240.0,4.0,0.0
1730,88.0,0.0,240.0,1.0,0.0
1731,41.0,0.0,90.0,5.0,0.0
1732,53.0,0.0,90.0,5.0,0.0
1733,89.0,160.0,90.0,1.0,0.0
1734,77.0,0.0,90.0,1.0,0.0
1735,85.0,0.0,90.0,2.0,0.0
1736,80.0,0.0,90.0,2.0,0.0
1737,77.0,0.0,90.0,1.0,0.0
1738,56.0,0.0,90.0,5.0,0.0
1739,89.0,0.0,90.0,1.0,0.0
1740,44.0,0.0,90.0,5.0,0.0
1741,80.0,0.0,90.0,2.0,0.0
1742,85.0,160.0,90.0,2.0,0.0
1743,85.0,851.0,90.0,2.0,0.0
1744,46.0,0.0,90.0,5.0,0.0
1745,58.0,0.0,90.0,5.0,0.0
1746,89.0,0.0,90.0,1.0,0.0
1747,77.0,0.0,90.0,1.0,0.0
1748,80.0,0.0,90.0,2.0,0.0
1749,77.0,5.0,780.0,1.0,0.0
1750,89.0,0.0,780.0,1.0,0.0
1751,59.0,0.0,810.0,5.0,0.0
1752,80.0,10.0,810.0,2.0,0.0
1753,85.0,0.0,810.0,2.0,0.0
1754,47.0,118.0,810.0,5.0,0.0
1755,88.0,0.0,120.0,1.0,0.0
1756,76.0,0.0,120.0,1.0,0.0
1757,48.0,0.0,120.0,5.0,0.0
1758,60.0,0.0,120.0,5.0,0.0
1759,79.0,0.0,120.0,2.0,0.0
1760,84.0,136.0,120.0,2.0,0.0
1761,89.0,0.0,90.0,1.0,0.0
1762,77.0,160.0,90.0,1.0,0.0
1763,41.0,0.0,90.0,5.0,0.0
1764,53.0,0.0,90.0,5.0,0.0
1765,80.0,0.0,90.0,2.0,0.0
1766,85.0,0.0,90.0,2.0,0.0
1767,77.0,0.0,90.0,1.0,0.0
1768,85.0,0.0,90.0,2.0,0.0
1769,80.0,0.0,90.0,2.0,0.0
1770,44.0,160.0,90.0,5.0,0.0
1771,56.0,0.0,90.0,5.0,0.0
1772,89.0,0.0,90.0,1.0,0.0
1773,46.0,0.0,90.0,5.0,0.0
1774,58.0,851.0,90.0,5.0,0.0
1775,80.0,0.0,90.0,2.0,0.0
1776,85.0,0.0,90.0,2.0,0.0
1777,77.0,0.0,90.0,1.0,0.0
1778,89.0,0.0,90.0,1.0,0.0
1779,59.0,0.0,810.0,5.0,0.0
1780,80.0,10.0,810.0,2.0,0.0
1781,77.0,5.0,780.0,1.0,0.0
1782,89.0,0.0,780.0,1.0,0.0
1783,47.0,118.0,810.0,5.0,0.0
1784,85.0,0.0,810.0,2.0,0.0
1785,79.0,0.0,120.0,2.0,0.0
1786,60.0,0.0,120.0,5.0,0.0
1787,76.0,0.0,120.0,1.0,0.0
1788,88.0,136.0,120.0,1.0,0.0
1789,48.0,0.0,120.0,5.0,0.0
1790,84.0,0.0,120.0,2.0,0.0
1791,80.0,0.0,90.0,2.0,0.0
1792,41.0,0.0,90.0,5.0,0.0
1793,53.0,0.0,90.0,5.0,0.0
1794,84.0,160.0,90.0,2.0,0.0
1795,89.0,0.0,90.0,1.0,0.0
1796,77.0,0.0,90.0,1.0,0.0
1797,92.0,0.0,90.0,1.0,0.0
1798,84.0,160.0,90.0,1.0,0.0
1799,72.0,0.0,90.0,5.0,0.0
1800,80.0,0.0,90.0,5.0,0.0
1801,92.0,0.0,90.0,1.0,0.0
1802,84.0,160.0,90.0,1.0,0.0
1803,80.0,0.0,90.0,5.0,0.0
1804,72.0,0.0,90.0,5.0,0.0
1805,92.0,0.0,90.0,1.0,0.0
1806,80.0,0.0,90.0,5.0,0.0
1807,72.0,160.0,90.0,5.0,0.0
1808,84.0,0.0,90.0,1.0,0.0
1809,77.0,160.0,90.0,5.0,0.0
1810,68.0,0.0,90.0,5.0,0.0
1811,89.0,0.0,90.0,1.0,0.0
1812,80.0,0.0,90.0,1.0,0.0
1813,89.0,0.0,90.0,1.0,0.0
1814,77.0,0.0,90.0,5.0,0.0
1815,68.0,0.0,90.0,5.0,0.0
1816,80.0,160.0,90.0,1.0,0.0
1817,80.0,0.0,90.0,1.0,0.0
1818,89.0,0.0,90.0,1.0,0.0
1819,77.0,160.0,90.0,5.0,0.0
1820,68.0,0.0,90.0,5.0,0.0
1821,84.0,0.0,90.0,1.0,0.0
1822,68.0,0.0,90.0,5.0,0.0
1823,72.0,0.0,90.0,5.0,0.0
1824,80.0,160.0,90.0,1.0,0.0
1825,84.0,0.0,90.0,1.0,0.0
1826,80.0,160.0,90.0,1.0,0.0
1827,68.0,0.0,90.0,5.0,0.0
1828,72.0,0.0,90.0,5.0,0.0
1829,84.0,0.0,90.0,1.0,0.0
1830,80.0,0.0,90.0,1.0,0.0
1831,72.0,160.0,90.0,5.0,0.0
1832,68.0,0.0,90.0,5.0,0.0
1833,65.0,0.0,90.0,5.0,0.0
1834,68.0,0.0,90.0,5.0,0.0
1835,80.0,160.0,90.0,1.0,0.0
1836,77.0,0.0,90.0,1.0,0.0
1837,77.0,160.0,90.0,1.0,0.0
1838,65.0,0.0,90.0,5.0,0.0
1839,60.0,0.0,90.0,5.0,0.0
1840,72.0,0.0,90.0,1.0,0.0
1841,56.0,0.0,90.0,5.0,0.0
1842,72.0,160.0,90.0,1.0,0.0
1843,68.0,0.0,90.0,1.0,0.0
1844,60.0,0.0,90.0,5.0,0.0
1845,56.0,0.0,90.0,5.0,0.0
1846,68.0,160.0,90.0,1.0,0.0
1847,65.0,0.0,90.0,1.0,0.0
1848,53.0,0.0,90.0,5.0,0.0
1849,53.0,0.0,90.0,5.0,0.0
1850,48.0,0.0,90.0,5.0,0.0
1851,65.0,160.0,90.0,1.0,0.0
1852,60.0,0.0,90.0,1.0,0.0
1853,48.0,0.0,90.0,5.0,0.0
1854,60.0,160.0,90.0,1.0,0.0
1855,56.0,0.0,90.0,1.0,0.0
1856,44.0,0.0,90.0,5.0,0.0
1857,44.0,0.0,90.0,5.0,0.0
1858,41.0,160.0,90.0,5.0,0.0
1859,53.0,0.0,90.0,1.0,0.0
1860,56.0,0.0,90.0,1.0,0.0
1861,53.0,0.0,90.0,1.0,0.0
1862,48.0,0.0,90.0,1.0,0.0
1863,36.0,0.0,90.0,5.0,0.0
1864,41.0,1496.0,90.0,5.0,0.0
1865,41.0,1440.0,1440.0,1.0,0.0
1866,29.0,0.0,1440.0,5.0,0.0
1867,39.0,0.0,1440.0,5.0,0.0
1868,65.0,240.0,4320.0,1.0,0.0
1869,53.0,0.0,4320.0,5.0,0.0
1870,51.0,1440.0,1440.0,5.0,0.0
1871,49.0,0.0,1440.0,5.0,0.0
1872,37.0,1440.0,1440.0,5.0,0.0
1873,48.0,0.0,1440.0,5.0,0.0
1874,36.0,0.0,1440.0,5.0,0.0
1875,78.0,0.0,240.0,1.0,0.0
1876,34.0,71.0,1470.0,5.0,0.0
1877,85.0,211.0,210.0,2.0,0.0
1878,90.0,5.0,150.0,1.0,0.0
1879,46.0,0.0,15.0,5.0,0.0
1880,54.0,96.0,120.0,3.0,0.0
1881,82.0,24.0,90.0,1.0,0.0
1882,83.0,24.0,90.0,1.0,0.0
1883,61.0,96.0,120.0,3.0,0.0
1884,85.0,24.0,90.0,1.0,0.0
1885,54.0,96.0,120.0,3.0,0.0
1886,61.0,96.0,120.0,3.0,0.0
1887,78.0,24.0,90.0,1.0,0.0
1888,80.0,24.0,90.0,1.0,0.0
1889,54.0,120.0,120.0,3.0,0.0
1890,82.0,0.0,240.0,1.0,0.0
1891,61.0,120.0,120.0,3.0,0.0
1892,54.0,120.0,120.0,3.0,0.0
1893,61.0,96.0,120.0,3.0,0.0
1894,54.0,25.0,120.0,3.0,0.0
1895,73.0,19.0,90.0,1.0,0.0
1896,45.0,5.0,1440.0,5.0,0.0
1897,77.0,120.0,90.0,1.0,0.0
1898,78.0,24.0,90.0,1.0,0.0
1899,54.0,96.0,120.0,3.0,0.0
1900,61.0,96.0,120.0,3.0,0.0
1901,69.0,24.0,90.0,1.0,0.0
1902,71.0,24.0,90.0,1.0,0.0
1903,54.0,96.0,120.0,3.0,0.0
1904,73.0,24.0,90.0,1.0,0.0
1905,61.0,96.0,120.0,3.0,0.0
1906,54.0,96.0,120.0,3.0,0.0
1907,66.0,24.0,90.0,1.0,0.0
1908,68.0,24.0,90.0,1.0,0.0
1909,61.0,96.0,120.0,3.0,0.0
1910,69.0,24.0,90.0,1.0,0.0
1911,54.0,96.0,120.0,3.0,0.0
1912,61.0,120.0,90.0,1.0,0.0
1913,65.0,24.0,90.0,1.0,0.0
1914,54.0,120.0,120.0,3.0,0.0
1915,66.0,235.0,240.0,1.0,0.0
1916,61.0,115.0,120.0,3.0,0.0
1917,54.0,0.0,120.0,3.0,0.0
1918,44.0,0.0,1440.0,5.0,0.0
1919,77.0,0.0,240.0,1.0,0.0
1920,85.0,5.0,180.0,2.0,0.0
1921,89.0,120.0,150.0,1.0,0.0
1922,53.0,0.0,120.0,3.0,0.0
1923,61.0,0.0,120.0,3.0,0.0
1924,56.0,96.0,120.0,3.0,0.0
1925,53.0,96.0,120.0,3.0,0.0
1926,80.0,24.0,90.0,1.0,0.0
1927,61.0,96.0,120.0,3.0,0.0
1928,56.0,0.0,120.0,3.0,0.0
1929,84.0,24.0,90.0,1.0,0.0
1930,53.0,96.0,120.0,3.0,0.0
1931,85.0,24.0,90.0,1.0,0.0
1932,77.0,24.0,90.0,1.0,0.0
1933,61.0,0.0,120.0,3.0,0.0
1934,56.0,96.0,120.0,3.0,0.0
1935,78.0,24.0,90.0,1.0,0.0
1936,53.0,120.0,120.0,3.0,0.0
1937,61.0,120.0,120.0,3.0,0.0
1938,56.0,0.0,120.0,3.0,0.0
1939,80.0,0.0,240.0,1.0,0.0
1940,53.0,120.0,120.0,3.0,0.0
1941,61.0,96.0,120.0,3.0,0.0
1942,56.0,0.0,120.0,3.0,0.0
1943,53.0,96.0,120.0,3.0,0.0
1944,73.0,24.0,90.0,1.0,0.0
1945,44.0,0.0,1440.0,5.0,0.0
1946,75.0,120.0,90.0,1.0,0.0
1947,76.0,24.0,90.0,1.0,0.0
1948,52.0,96.0,120.0,3.0,0.0
1949,56.0,0.0,120.0,3.0,0.0
1950,61.0,96.0,120.0,3.0,0.0
1951,68.0,24.0,90.0,1.0,0.0
1952,52.0,96.0,120.0,3.0,0.0
1953,72.0,24.0,90.0,1.0,0.0
1954,56.0,0.0,120.0,3.0,0.0
1955,61.0,96.0,120.0,3.0,0.0
1956,73.0,24.0,90.0,1.0,0.0
1957,64.0,24.0,90.0,1.0,0.0
1958,52.0,96.0,120.0,3.0,0.0
1959,56.0,0.0,120.0,3.0,0.0
1960,61.0,96.0,120.0,3.0,0.0
1961,66.0,24.0,90.0,1.0,0.0
1962,52.0,120.0,120.0,3.0,0.0
1963,68.0,24.0,90.0,1.0,0.0
1964,61.0,120.0,120.0,3.0,0.0
1965,56.0,0.0,120.0,3.0,0.0
1966,61.0,0.0,120.0,1.0,0.0
1967,63.0,0.0,120.0,1.0,0.0
1968,52.0,120.0,120.0,3.0,0.0
1969,61.0,0.0,120.0,3.0,0.0
1970,56.0,120.0,120.0,3.0,0.0
1971,64.0,240.0,240.0,1.0,0.0
1972,52.0,0.0,120.0,3.0,0.0
1973,43.0,0.0,1440.0,5.0,0.0
1974,82.0,120.0,240.0,1.0,0.0
1975,87.0,0.0,210.0,2.0,0.0
1976,94.0,0.0,150.0,1.0,0.0
1977,51.0,0.0,120.0,3.0,0.0
1978,58.0,96.0,120.0,3.0,0.0
1979,87.0,24.0,90.0,1.0,0.0
1980,51.0,96.0,120.0,3.0,0.0
1981,89.0,24.0,90.0,1.0,0.0
1982,58.0,96.0,120.0,3.0,0.0
1983,91.0,24.0,90.0,1.0,0.0
1984,51.0,96.0,120.0,3.0,0.0
1985,58.0,96.0,120.0,3.0,0.0
1986,82.0,24.0,90.0,1.0,0.0
1987,51.0,120.0,120.0,3.0,0.0
1988,86.0,24.0,90.0,1.0,0.0
1989,87.0,0.0,240.0,1.0,0.0
1990,58.0,120.0,120.0,3.0,0.0
1991,51.0,120.0,120.0,3.0,0.0
1992,58.0,96.0,120.0,3.0,0.0
1993,51.0,96.0,120.0,3.0,0.0
1994,79.0,24.0,90.0,1.0,0.0
1995,42.0,0.0,1440.0,5.0,0.0
1996,80.0,120.0,90.0,1.0,0.0
1997,82.0,24.0,90.0,1.0,0.0
1998,51.0,96.0,120.0,3.0,0.0
1999,58.0,96.0,120.0,3.0,0.0
2000,75.0,24.0,90.0,1.0,0.0
2001,51.0,96.0,120.0,3.0,0.0
2002,77.0,24.0,90.0,1.0,0.0
2003,58.0,96.0,120.0,3.0,0.0
2004,78.0,24.0,90.0,1.0,0.0
2005,70.0,24.0,90.0,1.0,0.0
2006,51.0,96.0,120.0,3.0,0.0
2007,74.0,24.0,90.0,1.0,0.0
2008,58.0,96.0,120.0,3.0,0.0
2009,75.0,24.0,90.0,1.0,0.0
2010,51.0,96.0,120.0,3.0,0.0
2011,66.0,24.0,90.0,1.0,0.0
2012,58.0,96.0,120.0,3.0,0.0
2013,51.0,120.0,120.0,3.0,0.0
2014,68.0,24.0,90.0,1.0,0.0
2015,70.0,0.0,240.0,1.0,0.0
2016,58.0,120.0,120.0,3.0,0.0
2017,51.0,120.0,120.0,3.0,0.0
2018,69.0,120.0,120.0,1.0,0.0
2019,42.0,0.0,1440.0,5.0,0.0
2020,73.0,120.0,120.0,1.0,0.0
2021,49.0,0.0,120.0,3.0,0.0
2022,75.0,120.0,120.0,1.0,0.0
2023,57.0,0.0,120.0,3.0,0.0
2024,49.0,120.0,120.0,3.0,0.0
2025,78.0,0.0,120.0,1.0,0.0
2026,81.0,120.0,120.0,1.0,0.0
2027,57.0,0.0,120.0,3.0,0.0
2028,85.0,0.0,120.0,1.0,0.0
2029,49.0,120.0,120.0,3.0,0.0
2030,87.0,120.0,120.0,1.0,0.0
2031,57.0,0.0,120.0,3.0,0.0
2032,49.0,120.0,120.0,3.0,0.0
2033,90.0,0.0,120.0,1.0,0.0
2034,57.0,120.0,120.0,3.0,0.0
2035,49.0,120.0,120.0,3.0,0.0
2036,57.0,120.0,120.0,3.0,0.0
2037,49.0,120.0,120.0,3.0,0.0
2038,68.0,120.0,120.0,1.0,0.0
2039,72.0,120.0,120.0,1.0,0.0
2040,48.0,0.0,120.0,3.0,0.0
2041,75.0,0.0,120.0,1.0,0.0
2042,56.0,120.0,120.0,3.0,0.0
2043,48.0,0.0,120.0,3.0,0.0
2044,78.0,120.0,120.0,1.0,0.0
2045,80.0,120.0,120.0,1.0,0.0
2046,56.0,0.0,120.0,3.0,0.0
2047,48.0,0.0,120.0,3.0,0.0
2048,84.0,120.0,120.0,1.0,0.0
2049,56.0,120.0,120.0,3.0,0.0
2050,87.0,0.0,120.0,1.0,0.0
2051,48.0,0.0,120.0,3.0,0.0
2052,90.0,120.0,120.0,1.0,0.0
2053,56.0,120.0,120.0,3.0,0.0
2054,49.0,120.0,120.0,3.0,0.0
2055,56.0,120.0,120.0,3.0,0.0
2056,49.0,120.0,120.0,3.0,0.0
2057,42.0,0.0,15.0,5.0,0.0
2058,68.0,120.0,120.0,1.0,0.0
2059,72.0,120.0,120.0,1.0,0.0
2060,48.0,0.0,120.0,3.0,0.0
2061,56.0,0.0,120.0,3.0,0.0
2062,75.0,120.0,120.0,1.0,0.0
2063,79.0,0.0,120.0,1.0,0.0
2064,48.0,120.0,120.0,3.0,0.0
2065,80.0,0.0,120.0,1.0,0.0
2066,56.0,120.0,120.0,3.0,0.0
2067,84.0,120.0,120.0,1.0,0.0
2068,48.0,0.0,120.0,3.0,0.0
2069,56.0,120.0,120.0,3.0,0.0
2070,87.0,0.0,120.0,1.0,0.0
2071,91.0,0.0,120.0,1.0,0.0
2072,48.0,120.0,120.0,3.0,0.0
2073,56.0,120.0,120.0,3.0,0.0
2074,49.0,120.0,120.0,3.0,0.0
2075,56.0,120.0,120.0,3.0,0.0
2076,49.0,288.0,120.0,3.0,0.0
2077,80.0,128.0,810.0,1.0,0.0
2078,41.0,109.0,1290.0,5.0,0.0
2079,85.0,8.0,750.0,2.0,0.0
2080,92.0,5.0,720.0,1.0,0.0
2081,44.0,160.0,120.0,4.0,0.0
2082,48.0,160.0,120.0,4.0,0.0
2083,49.0,179.0,120.0,4.0,0.0
2084,41.0,146.0,450.0,4.0,0.0
2085,44.0,32.0,120.0,4.0,0.0
2086,77.0,128.0,150.0,1.0,0.0
2087,89.0,0.0,150.0,1.0,0.0
2088,75.0,0.0,330.0,1.0,0.0
2089,87.0,19.0,330.0,1.0,0.0
2090,48.0,14.0,120.0,4.0,0.0
2091,49.0,32.0,120.0,4.0,0.0
2092,41.0,32.0,120.0,4.0,0.0
2093,42.0,109.0,1290.0,5.0,0.0
2094,73.0,0.0,15.0,1.0,0.0
2095,85.0,288.0,15.0,1.0,0.0
2096,78.0,10.0,1440.0,2.0,0.0
2097,82.0,0.0,1440.0,2.0,0.0
2098,45.0,160.0,120.0,4.0,0.0
2099,49.0,160.0,120.0,4.0,0.0
2100,51.0,320.0,120.0,4.0,0.0
2101,42.0,123.0,480.0,4.0,0.0
2102,45.0,32.0,120.0,4.0,0.0
2103,48.0,37.0,120.0,4.0,0.0
2104,84.0,288.0,480.0,1.0,0.0
2105,72.0,0.0,480.0,1.0,0.0
2106,51.0,51.0,120.0,4.0,0.0
2107,42.0,22.0,120.0,4.0,0.0
2108,41.0,116.0,1290.0,5.0,0.0
2109,80.0,2.0,810.0,1.0,0.0
2110,85.0,5.0,750.0,2.0,0.0
2111,92.0,126.0,720.0,1.0,0.0
2112,44.0,160.0,120.0,4.0,0.0
2113,48.0,160.0,120.0,4.0,0.0
2114,49.0,187.0,120.0,4.0,0.0
2115,41.0,131.0,480.0,4.0,0.0
2116,44.0,32.0,120.0,4.0,0.0
2117,77.0,0.0,150.0,1.0,0.0
2118,89.0,128.0,150.0,1.0,0.0
2119,47.0,29.0,120.0,4.0,0.0
2120,87.0,12.0,330.0,1.0,0.0
2121,75.0,0.0,330.0,1.0,0.0
2122,53.0,32.0,120.0,4.0,0.0
2123,41.0,32.0,120.0,4.0,0.0
2124,86.0,0.0,150.0,1.0,0.0
2125,74.0,288.0,150.0,1.0,0.0
2126,77.0,0.0,960.0,1.0,0.0
2127,82.0,0.0,1440.0,2.0,0.0
2128,89.0,128.0,960.0,1.0,0.0
2129,42.0,116.0,1290.0,5.0,0.0
2130,46.0,160.0,120.0,4.0,0.0
2131,50.0,160.0,120.0,4.0,0.0
2132,51.0,320.0,120.0,4.0,0.0
2133,42.0,131.0,480.0,4.0,0.0
2134,46.0,32.0,120.0,4.0,0.0
2135,75.0,288.0,480.0,1.0,0.0
2136,87.0,0.0,480.0,1.0,0.0
2137,50.0,29.0,120.0,4.0,0.0
2138,51.0,44.0,120.0,4.0,0.0
2139,42.0,32.0,120.0,4.0,0.0
2140,43.0,109.0,1290.0,5.0,0.0
2141,73.0,123.0,330.0,1.0,0.0
2142,46.0,37.0,120.0,4.0,0.0
2143,76.0,128.0,150.0,1.0,0.0
2144,49.0,32.0,120.0,4.0,0.0
2145,79.0,128.0,330.0,1.0,0.0
2146,52.0,192.0,120.0,4.0,0.0
2147,43.0,131.0,480.0,4.0,0.0
2148,49.0,32.0,120.0,4.0,0.0
2149,82.0,128.0,150.0,1.0,0.0
2150,85.0,19.0,330.0,1.0,0.0
2151,52.0,29.0,120.0,4.0,0.0
2152,58.0,32.0,120.0,4.0,0.0
2153,94.0,288.0,150.0,1.0,0.0
2154,43.0,32.0,120.0,4.0,0.0
2155,88.0,0.0,150.0,2.0,0.0
2156,85.0,123.0,810.0,1.0,0.0
2157,44.0,5.0,1260.0,5.0,0.0
2158,89.0,5.0,750.0,2.0,0.0
2159,94.0,0.0,720.0,1.0,0.0
2160,49.0,160.0,120.0,4.0,0.0
2161,53.0,160.0,120.0,4.0,0.0
2162,56.0,160.0,120.0,4.0,0.0
2163,49.0,32.0,120.0,4.0,0.0
2164,80.0,0.0,150.0,1.0,0.0
2165,92.0,128.0,150.0,1.0,0.0
2166,53.0,32.0,120.0,4.0,0.0
2167,56.0,160.0,120.0,4.0,0.0
2168,78.0,0.0,330.0,1.0,0.0
2169,90.0,128.0,330.0,1.0,0.0
2170,61.0,27.0,120.0,4.0,0.0
2171,44.0,32.0,120.0,4.0,0.0
2172,89.0,0.0,150.0,1.0,0.0
2173,77.0,288.0,150.0,1.0,0.0
2174,77.0,5.0,780.0,1.0,0.0
2175,44.0,3.0,1290.0,5.0,0.0
2176,79.0,0.0,750.0,2.0,0.0
2177,82.0,5.0,750.0,2.0,0.0
2178,89.0,123.0,720.0,1.0,0.0
2179,49.0,160.0,120.0,4.0,0.0
2180,51.0,160.0,120.0,4.0,0.0
2181,55.0,160.0,120.0,4.0,0.0
2182,51.0,27.0,120.0,4.0,0.0
2183,87.0,128.0,150.0,1.0,0.0
2184,75.0,0.0,150.0,1.0,0.0
2185,55.0,32.0,120.0,4.0,0.0
2186,58.0,160.0,120.0,4.0,0.0
2187,86.0,2.0,330.0,1.0,0.0
2188,74.0,123.0,330.0,1.0,0.0
2189,61.0,32.0,120.0,4.0,0.0
2190,51.0,32.0,120.0,4.0,0.0
2191,87.0,288.0,150.0,1.0,0.0
2192,75.0,0.0,150.0,1.0,0.0
2193,44.0,3.0,1110.0,5.0,0.0
2194,89.0,128.0,330.0,1.0,0.0
2195,84.0,0.0,330.0,2.0,0.0
2196,80.0,0.0,330.0,2.0,0.0
2197,78.0,5.0,300.0,2.0,0.0
2198,51.0,27.0,120.0,4.0,0.0
2199,54.0,32.0,120.0,4.0,0.0
2200,87.0,128.0,150.0,1.0,0.0
2201,56.0,32.0,120.0,4.0,0.0
2202,84.0,128.0,150.0,1.0,0.0
2203,80.0,128.0,150.0,1.0,0.0
2204,60.0,32.0,120.0,4.0,0.0
2205,63.0,32.0,120.0,4.0,0.0
2206,78.0,157.0,150.0,1.0,0.0
2207,75.0,33.0,150.0,1.0,0.0
2208,66.0,127.0,180.0,4.0,0.0
2209,72.0,160.0,150.0,1.0,0.0
2210,68.0,288.0,150.0,1.0,0.0
2211,41.0,5.0,1260.0,5.0,0.0
2212,68.0,128.0,810.0,1.0,0.0
2213,44.0,160.0,120.0,4.0,0.0
2214,48.0,160.0,120.0,4.0,0.0
2215,49.0,160.0,120.0,4.0,0.0
2216,53.0,32.0,120.0,4.0,0.0
2217,56.0,32.0,120.0,4.0,0.0
2218,65.0,128.0,150.0,1.0,0.0
2219,63.0,128.0,330.0,1.0,0.0
2220,60.0,160.0,120.0,4.0,0.0
2221,61.0,27.0,120.0,4.0,0.0
2222,53.0,32.0,120.0,4.0,0.0
2223,61.0,288.0,150.0,1.0,0.0
2224,69.0,123.0,810.0,1.0,0.0
2225,61.0,128.0,480.0,1.0,0.0
2226,42.0,133.0,1260.0,5.0,0.0
2227,45.0,160.0,120.0,4.0,0.0
2228,49.0,32.0,120.0,4.0,0.0
2229,51.0,160.0,120.0,4.0,0.0
2230,60.0,123.0,480.0,2.0,0.0
2231,54.0,37.0,120.0,4.0,0.0
2232,66.0,5.0,150.0,1.0,0.0
2233,57.0,32.0,120.0,4.0,0.0
2234,65.0,0.0,300.0,1.0,0.0
2235,59.0,160.0,120.0,4.0,0.0
2236,57.0,27.0,120.0,4.0,0.0
2237,54.0,32.0,120.0,4.0,0.0
2238,63.0,288.0,150.0,1.0,0.0
2239,41.0,8.0,1290.0,5.0,0.0
2240,64.0,128.0,480.0,1.0,0.0
2241,80.0,123.0,780.0,1.0,0.0
2242,44.0,160.0,120.0,4.0,0.0
2243,48.0,32.0,120.0,4.0,0.0
2244,65.0,128.0,480.0,2.0,0.0
2245,49.0,160.0,120.0,4.0,0.0
2246,53.0,37.0,120.0,4.0,0.0
2247,56.0,32.0,120.0,4.0,0.0
2248,77.0,0.0,150.0,1.0,0.0
2249,75.0,118.0,330.0,1.0,0.0
2250,59.0,160.0,120.0,4.0,0.0
2251,65.0,34.0,120.0,1.0,0.0
2252,53.0,32.0,120.0,4.0,0.0
2253,73.0,288.0,15.0,1.0,0.0
2254,42.0,5.0,1260.0,5.0,0.0
2255,82.0,118.0,810.0,1.0,0.0
2256,46.0,160.0,120.0,4.0,0.0
2257,50.0,32.0,120.0,4.0,0.0
2258,51.0,160.0,120.0,4.0,0.0
2259,75.0,0.0,480.0,2.0,0.0
2260,54.0,42.0,120.0,4.0,0.0
2261,78.0,128.0,150.0,1.0,0.0
2262,58.0,32.0,120.0,4.0,0.0
2263,62.0,160.0,120.0,4.0,0.0
2264,77.0,128.0,330.0,1.0,0.0
2265,63.0,27.0,120.0,4.0,0.0
2266,54.0,32.0,120.0,4.0,0.0
2267,75.0,320.0,150.0,1.0,0.0
2268,61.0,160.0,330.0,1.0,0.0
2269,43.0,150.0,1290.0,5.0,0.0
2270,76.0,150.0,450.0,1.0,0.0
2271,46.0,0.0,150.0,4.0,0.0
2272,64.0,0.0,150.0,1.0,0.0
2273,49.0,10.0,150.0,4.0,0.0
2274,52.0,160.0,150.0,4.0,0.0
2275,67.0,160.0,330.0,1.0,0.0
2276,55.0,0.0,150.0,4.0,0.0
2277,61.0,160.0,150.0,4.0,0.0
2278,70.0,0.0,150.0,1.0,0.0
2279,73.0,5.0,330.0,1.0,0.0
2280,64.0,160.0,150.0,4.0,0.0
2281,61.0,5.0,150.0,4.0,0.0
2282,76.0,320.0,150.0,2.0,0.0
2283,58.0,0.0,150.0,4.0,0.0
2284,85.0,0.0,15.0,1.0,0.0
2285,73.0,0.0,810.0,1.0,0.0
2286,44.0,15.0,1260.0,5.0,0.0
2287,77.0,160.0,810.0,2.0,0.0
2288,49.0,160.0,150.0,4.0,0.0
2289,53.0,160.0,150.0,4.0,0.0
2290,56.0,155.0,150.0,4.0,0.0
2291,61.0,0.0,150.0,4.0,0.0
2292,65.0,0.0,150.0,4.0,0.0
2293,68.0,0.0,150.0,1.0,0.0
2294,80.0,160.0,150.0,1.0,0.0
2295,61.0,140.0,150.0,4.0,0.0
2296,66.0,5.0,300.0,1.0,0.0
2297,78.0,0.0,330.0,1.0,0.0
2298,56.0,160.0,150.0,4.0,0.0
2299,65.0,0.0,150.0,1.0,0.0
2300,77.0,0.0,150.0,1.0,0.0
2301,44.0,320.0,150.0,4.0,0.0
2302,61.0,155.0,330.0,1.0,0.0
2303,43.0,13.0,1260.0,5.0,0.0
2304,46.0,5.0,150.0,4.0,0.0
2305,64.0,0.0,150.0,1.0,0.0
2306,49.0,160.0,150.0,4.0,0.0
2307,52.0,155.0,150.0,4.0,0.0
2308,67.0,5.0,300.0,1.0,0.0
2309,55.0,160.0,150.0,4.0,0.0
2310,70.0,160.0,150.0,1.0,0.0
2311,61.0,0.0,150.0,4.0,0.0
2312,73.0,155.0,330.0,1.0,0.0
2313,64.0,147.0,150.0,4.0,0.0
2314,58.0,5.0,150.0,4.0,0.0
2315,85.0,320.0,150.0,1.0,0.0
2316,55.0,0.0,150.0,4.0,0.0
2317,76.0,0.0,150.0,2.0,0.0
2318,43.0,5.0,1260.0,5.0,0.0
2319,73.0,160.0,330.0,1.0,0.0
2320,46.0,0.0,150.0,4.0,0.0
2321,49.0,0.0,150.0,4.0,0.0
2322,76.0,160.0,150.0,1.0,0.0
2323,79.0,0.0,330.0,1.0,0.0
2324,52.0,160.0,150.0,4.0,0.0
2325,55.0,160.0,150.0,4.0,0.0
2326,82.0,160.0,150.0,1.0,0.0
2327,61.0,0.0,150.0,4.0,0.0
2328,85.0,0.0,150.0,1.0,0.0
2329,64.0,155.0,150.0,4.0,0.0
2330,58.0,160.0,150.0,4.0,0.0
2331,88.0,0.0,150.0,1.0,0.0
2332,94.0,0.0,150.0,1.0,0.0
2333,55.0,40.0,150.0,4.0,0.0
2334,44.0,40.0,40.0,5.0,0.0
2335,56.0,280.0,40.0,5.0,0.0
2336,65.0,0.0,240.0,5.0,0.0
2337,77.0,78.0,240.0,5.0,0.0
2338,97.0,0.0,480.0,1.0,0.0
2339,85.0,0.0,480.0,1.0,0.0
2340,89.0,78.0,480.0,2.0,0.0
2341,56.0,120.0,90.0,5.0,0.0
2342,68.0,0.0,90.0,5.0,0.0
2343,58.0,0.0,90.0,5.0,0.0
2344,70.0,42.0,90.0,5.0,0.0
2345,84.0,0.0,90.0,1.0,0.0
2346,72.0,0.0,90.0,5.0,0.0
2347,60.0,120.0,90.0,5.0,0.0
2348,96.0,0.0,90.0,1.0,0.0
2349,89.0,0.0,90.0,1.0,0.0
2350,65.0,120.0,90.0,5.0,0.0
2351,53.0,0.0,90.0,5.0,0.0
2352,77.0,0.0,90.0,1.0,0.0
2353,79.0,0.0,90.0,1.0,0.0
2354,91.0,0.0,90.0,1.0,0.0
2355,55.0,282.0,90.0,5.0,0.0
2356,67.0,0.0,90.0,5.0,0.0
2357,80.0,0.0,240.0,1.0,0.0
2358,92.0,0.0,240.0,1.0,0.0
2359,68.0,280.0,240.0,5.0,0.0
2360,56.0,0.0,240.0,5.0,0.0
2361,44.0,40.0,40.0,5.0,0.0
2362,56.0,280.0,40.0,5.0,0.0
2363,77.0,0.0,480.0,2.0,0.0
2364,85.0,0.0,480.0,1.0,0.0
2365,73.0,78.0,480.0,1.0,0.0
2366,65.0,78.0,240.0,5.0,0.0
2367,56.0,120.0,90.0,5.0,0.0
2368,58.0,42.0,90.0,5.0,0.0
2369,84.0,0.0,90.0,1.0,0.0
2370,72.0,120.0,90.0,1.0,0.0
2371,60.0,0.0,90.0,5.0,0.0
2372,53.0,0.0,90.0,5.0,0.0
2373,77.0,120.0,90.0,1.0,0.0
2374,65.0,0.0,90.0,1.0,0.0
2375,79.0,0.0,90.0,1.0,0.0
2376,67.0,0.0,90.0,1.0,0.0
2377,55.0,282.0,90.0,5.0,0.0
2378,80.0,0.0,240.0,1.0,0.0
2379,68.0,280.0,240.0,1.0,0.0
2380,56.0,0.0,240.0,5.0,0.0
2381,46.0,40.0,40.0,5.0,0.0
2382,58.0,280.0,40.0,5.0,0.0
2383,66.0,78.0,240.0,5.0,0.0
2384,87.0,0.0,480.0,1.0,0.0
2385,75.0,78.0,480.0,1.0,0.0
2386,78.0,0.0,480.0,2.0,0.0
2387,58.0,120.0,90.0,5.0,0.0
2388,59.0,42.0,90.0,5.0,0.0
2389,85.0,0.0,90.0,1.0,0.0
2390,61.0,120.0,90.0,5.0,0.0
2391,73.0,0.0,90.0,1.0,0.0
2392,54.0,120.0,90.0,5.0,0.0
2393,66.0,0.0,90.0,1.0,0.0
2394,78.0,0.0,90.0,1.0,0.0
2395,68.0,0.0,90.0,1.0,0.0
2396,80.0,0.0,90.0,1.0,0.0
2397,56.0,282.0,90.0,5.0,0.0
2398,82.0,0.0,240.0,1.0,0.0
2399,70.0,0.0,240.0,1.0,0.0
2400,58.0,280.0,240.0,5.0,0.0
2401,47.0,40.0,40.0,5.0,0.0
2402,59.0,358.0,40.0,5.0,0.0
2403,75.0,0.0,480.0,1.0,0.0
2404,77.0,0.0,480.0,1.0,0.0
2405,80.0,78.0,480.0,2.0,0.0
2406,87.0,0.0,480.0,1.0,0.0
2407,59.0,120.0,90.0,5.0,0.0
2408,61.0,42.0,90.0,5.0,0.0
2409,74.0,0.0,90.0,1.0,0.0
2410,86.0,0.0,90.0,1.0,0.0
2411,62.0,120.0,90.0,5.0,0.0
2412,68.0,120.0,90.0,1.0,0.0
2413,80.0,0.0,90.0,1.0,0.0
2414,56.0,0.0,90.0,5.0,0.0
2415,82.0,0.0,90.0,1.0,0.0
2416,70.0,0.0,90.0,1.0,0.0
2417,58.0,282.0,90.0,5.0,0.0
2418,59.0,528.0,240.0,5.0,0.0
2419,83.0,0.0,240.0,1.0,0.0
2420,71.0,0.0,240.0,1.0,0.0
2421,81.0,0.0,960.0,2.0,0.0
2422,77.0,4.0,960.0,2.0,0.0
2423,87.0,8.0,810.0,1.0,0.0
2424,75.0,122.0,810.0,1.0,0.0
2425,48.0,61.0,1200.0,5.0,0.0
2426,51.0,160.0,120.0,4.0,0.0
2427,53.0,160.0,120.0,4.0,0.0
2428,57.0,190.0,120.0,4.0,0.0
2429,48.0,55.0,480.0,4.0,0.0
2430,84.0,0.0,150.0,1.0,0.0
2431,72.0,128.0,150.0,1.0,0.0
2432,51.0,28.0,120.0,4.0,0.0
2433,70.0,130.0,330.0,1.0,0.0
2434,82.0,0.0,330.0,1.0,0.0
2435,53.0,44.0,120.0,4.0,0.0
2436,57.0,30.0,120.0,4.0,0.0
2437,48.0,32.0,120.0,4.0,0.0
2438,69.0,288.0,150.0,1.0,0.0
2439,81.0,0.0,150.0,1.0,0.0
2440,49.0,61.0,1200.0,5.0,0.0
2441,69.0,124.0,1440.0,1.0,0.0
2442,81.0,0.0,960.0,1.0,0.0
2443,76.0,0.0,1440.0,2.0,0.0
2444,73.0,128.0,960.0,2.0,0.0
2445,52.0,160.0,120.0,4.0,0.0
2446,55.0,160.0,120.0,4.0,0.0
2447,58.0,320.0,120.0,4.0,0.0
2448,46.0,62.0,480.0,4.0,0.0
2449,49.0,32.0,120.0,4.0,0.0
2450,67.0,3.0,480.0,1.0,0.0
2451,52.0,37.0,120.0,4.0,0.0
2452,79.0,0.0,480.0,1.0,0.0
2453,58.0,160.0,120.0,4.0,0.0
2454,40.0,32.0,120.0,4.0,0.0
2455,65.0,0.0,120.0,1.0,0.0
2456,77.0,160.0,120.0,1.0,0.0
2457,75.0,1.0,120.0,2.0,0.0
2458,72.0,0.0,120.0,2.0,0.0
2459,41.0,133.0,1260.0,5.0,0.0
2460,45.0,160.0,120.0,4.0,0.0
2461,75.0,7.0,420.0,1.0,0.0
2462,87.0,11.0,450.0,1.0,0.0
2463,77.0,4.0,420.0,2.0,0.0
2464,81.0,0.0,450.0,2.0,0.0
2465,48.0,160.0,120.0,4.0,0.0
2466,53.0,138.0,120.0,4.0,0.0
2467,53.0,160.0,120.0,4.0,0.0
2468,77.0,0.0,420.0,2.0,0.0
2469,81.0,15.0,420.0,2.0,0.0
2470,60.0,160.0,120.0,4.0,0.0
2471,74.0,3.0,420.0,1.0,0.0
2472,86.0,0.0,420.0,1.0,0.0
2473,63.0,142.0,120.0,4.0,0.0
2474,65.0,27.0,120.0,4.0,0.0
2475,72.0,0.0,120.0,1.0,0.0
2476,53.0,0.0,120.0,4.0,0.0
2477,84.0,320.0,120.0,1.0,0.0
2478,41.0,126.0,1290.0,5.0,0.0
2479,76.0,0.0,1440.0,2.0,0.0
2480,79.0,125.0,1440.0,2.0,0.0
2481,72.0,128.0,960.0,1.0,0.0
2482,84.0,0.0,960.0,1.0,0.0
2483,46.0,160.0,120.0,4.0,0.0
2484,49.0,160.0,120.0,4.0,0.0
2485,52.0,160.0,120.0,4.0,0.0
2486,55.0,160.0,120.0,4.0,0.0
2487,58.0,32.0,120.0,4.0,0.0
2488,70.0,0.0,480.0,1.0,0.0
2489,82.0,3.0,480.0,1.0,0.0
2490,61.0,160.0,120.0,4.0,0.0
2491,64.0,34.0,120.0,4.0,0.0
2492,52.0,32.0,120.0,4.0,0.0
2493,77.0,0.0,120.0,2.0,0.0
2494,75.0,160.0,120.0,2.0,0.0
2495,41.0,126.0,1290.0,5.0,0.0
2496,81.0,0.0,120.0,1.0,0.0
2497,69.0,0.0,120.0,1.0,0.0
2498,48.0,160.0,120.0,4.0,0.0
2499,79.0,88.0,360.0,1.0,0.0
2500,84.0,0.0,360.0,2.0,0.0
2501,87.0,0.0,360.0,2.0,0.0
2502,91.0,0.0,360.0,1.0,0.0
2503,51.0,160.0,120.0,4.0,0.0
2504,53.0,72.0,120.0,4.0,0.0
2505,53.0,160.0,120.0,4.0,0.0
2506,84.0,0.0,360.0,2.0,0.0
2507,87.0,88.0,360.0,2.0,0.0
2508,60.0,160.0,120.0,4.0,0.0
2509,90.0,0.0,360.0,1.0,0.0
2510,78.0,0.0,360.0,1.0,0.0
2511,63.0,72.0,120.0,4.0,0.0
2512,65.0,34.0,120.0,4.0,0.0
2513,77.0,0.0,360.0,1.0,0.0
2514,87.0,88.0,360.0,2.0,0.0
2515,84.0,0.0,360.0,2.0,0.0
2516,53.0,232.0,120.0,4.0,0.0
2517,89.0,0.0,360.0,1.0,0.0
2518,41.0,133.0,1260.0,5.0,0.0
2519,48.0,160.0,120.0,4.0,0.0
2520,51.0,160.0,120.0,4.0,0.0
2521,89.0,0.0,360.0,2.0,0.0
2522,84.0,0.0,360.0,1.0,0.0
2523,96.0,88.0,360.0,1.0,0.0
2524,87.0,0.0,360.0,2.0,0.0
2525,53.0,72.0,120.0,4.0,0.0
2526,53.0,160.0,120.0,4.0,0.0
2527,89.0,0.0,360.0,2.0,0.0
2528,83.0,0.0,360.0,1.0,0.0
2529,60.0,160.0,120.0,4.0,0.0
2530,95.0,88.0,360.0,1.0,0.0
2531,87.0,0.0,360.0,2.0,0.0
2532,63.0,72.0,120.0,4.0,0.0
2533,65.0,27.0,120.0,4.0,0.0
2534,82.0,0.0,120.0,1.0,0.0
2535,53.0,0.0,120.0,4.0,0.0
2536,89.0,0.0,120.0,2.0,0.0
2537,87.0,160.0,120.0,2.0,0.0
2538,94.0,0.0,120.0,1.0,0.0
2539,81.0,0.0,120.0,1.0,0.0
2540,41.0,133.0,1260.0,5.0,0.0
2541,89.0,160.0,120.0,2.0,0.0
2542,87.0,0.0,120.0,2.0,0.0
2543,93.0,0.0,120.0,1.0,0.0
2544,48.0,160.0,120.0,4.0,0.0
2545,99.0,0.0,360.0,1.0,0.0
2546,89.0,0.0,360.0,1.0,0.0
2547,51.0,160.0,120.0,4.0,0.0
2548,87.0,0.0,360.0,2.0,0.0
2549,93.0,88.0,360.0,2.0,0.0
2550,53.0,72.0,120.0,4.0,0.0
2551,53.0,160.0,120.0,4.0,0.0
2552,60.0,160.0,120.0,4.0,0.0
2553,89.0,88.0,360.0,2.0,0.0
2554,86.0,0.0,360.0,1.0,0.0
2555,93.0,0.0,360.0,2.0,0.0
2556,98.0,0.0,360.0,1.0,0.0
2557,63.0,72.0,120.0,4.0,0.0
2558,65.0,27.0,120.0,4.0,0.0
2559,96.0,179.0,120.0,1.0,0.0
2560,53.0,2.0,120.0,4.0,0.0
2561,89.0,3.0,120.0,2.0,0.0
2562,84.0,0.0,120.0,1.0,0.0
2563,93.0,0.0,120.0,2.0,0.0
2564,53.0,32.0,240.0,5.0,0.0
2565,60.0,8.0,180.0,4.0,0.0
2566,101.0,240.0,180.0,1.0,0.0
2567,69.0,0.0,180.0,4.0,0.0
2568,63.0,0.0,180.0,4.0,0.0
2569,89.0,0.0,180.0,1.0,0.0
2570,100.0,0.0,180.0,1.0,0.0
2571,88.0,168.0,180.0,1.0,0.0
2572,87.0,0.0,120.0,1.0,0.0
2573,99.0,120.0,120.0,1.0,0.0
2574,96.0,0.0,120.0,1.0,0.0
2575,84.0,120.0,120.0,1.0,0.0
2576,93.0,0.0,120.0,1.0,0.0
2577,81.0,120.0,120.0,1.0,0.0
2578,89.0,120.0,120.0,1.0,0.0
2579,77.0,0.0,120.0,1.0,0.0
2580,75.0,120.0,120.0,1.0,0.0
2581,87.0,0.0,120.0,1.0,0.0
2582,72.0,120.0,120.0,1.0,0.0
2583,84.0,0.0,120.0,1.0,0.0
2584,81.0,120.0,120.0,1.0,0.0
2585,69.0,0.0,120.0,1.0,0.0
2586,77.0,0.0,120.0,1.0,0.0
2587,65.0,192.0,120.0,1.0,0.0
2588,89.0,240.0,180.0,1.0,0.0
2589,77.0,0.0,180.0,1.0,0.0
2590,88.0,168.0,180.0,1.0,0.0
2591,76.0,0.0,180.0,1.0,0.0
2592,75.0,0.0,120.0,1.0,0.0
2593,87.0,120.0,120.0,1.0,0.0
2594,84.0,120.0,120.0,1.0,0.0
2595,72.0,0.0,120.0,1.0,0.0
2596,81.0,0.0,120.0,1.0,0.0
2597,69.0,120.0,120.0,1.0,0.0
2598,77.0,0.0,120.0,1.0,0.0
2599,65.0,120.0,120.0,1.0,0.0
2600,75.0,0.0,120.0,1.0,0.0
2601,63.0,120.0,120.0,1.0,0.0
2602,72.0,120.0,120.0,1.0,0.0
2603,60.0,0.0,120.0,1.0,0.0
2604,57.0,120.0,120.0,1.0,0.0
2605,69.0,0.0,120.0,1.0,0.0
2606,53.0,120.0,120.0,1.0,0.0
2607,65.0,0.0,120.0,1.0,0.0
2608,63.0,120.0,120.0,1.0,0.0
2609,51.0,0.0,120.0,1.0,0.0
2610,60.0,120.0,120.0,1.0,0.0
2611,48.0,0.0,120.0,1.0,0.0
2612,57.0,120.0,120.0,1.0,0.0
2613,45.0,0.0,120.0,1.0,0.0
2614,53.0,0.0,120.0,1.0,0.0
2615,41.0,120.0,120.0,1.0,0.0
2616,57.0,120.0,120.0,1.0,0.0
2617,29.0,0.0,240.0,5.0,0.0
2618,60.0,120.0,120.0,1.0,0.0
2619,63.0,120.0,120.0,1.0,0.0
2620,65.0,120.0,120.0,1.0,0.0
2621,69.0,120.0,120.0,1.0,0.0
2622,72.0,120.0,120.0,1.0,0.0
2623,75.0,120.0,120.0,1.0,0.0
2624,77.0,120.0,120.0,1.0,0.0
2625,41.0,5.0,300.0,5.0,0.0
2626,57.0,115.0,300.0,4.0,0.0
2627,60.0,0.0,240.0,4.0,0.0
2628,63.0,0.0,240.0,4.0,0.0
2629,69.0,115.0,120.0,1.0,0.0
2630,65.0,0.0,240.0,4.0,0.0
2631,72.0,5.0,120.0,1.0,0.0
2632,75.0,120.0,120.0,1.0,0.0
2633,77.0,60.0,120.0,1.0,0.0
2634,81.0,60.0,60.0,1.0,0.0
2635,84.0,60.0,60.0,1.0,0.0
2636,87.0,60.0,60.0,1.0,0.0
2637,89.0,60.0,60.0,1.0,0.0
2638,93.0,60.0,60.0,1.0,0.0
2639,96.0,60.0,60.0,1.0,0.0
2640,99.0,60.0,60.0,1.0,0.0
2641,101.0,240.0,60.0,1.0,0.0
2642,105.0,280.0,240.0,1.0,0.0
2643,40.0,0.0,40.0,5.0,0.0
2644,94.0,40.0,40.0,1.0,0.0
2645,43.0,0.0,40.0,4.0,0.0
2646,97.0,40.0,40.0,2.0,0.0
2647,46.0,0.0,40.0,4.0,0.0
2648,100.0,40.0,40.0,2.0,0.0
2649,103.0,0.0,40.0,2.0,0.0
2650,49.0,40.0,40.0,4.0,0.0
2651,106.0,0.0,40.0,1.0,0.0
2652,52.0,238.0,40.0,5.0,0.0
2653,85.0,120.0,90.0,1.0,0.0
2654,73.0,0.0,90.0,5.0,0.0
2655,61.0,0.0,90.0,5.0,0.0
2656,97.0,0.0,90.0,1.0,0.0
2657,87.0,0.0,90.0,1.0,0.0
2658,75.0,0.0,90.0,5.0,0.0
2659,63.0,0.0,90.0,5.0,0.0
2660,99.0,120.0,90.0,1.0,0.0
2661,64.0,120.0,90.0,5.0,0.0
2662,100.0,0.0,90.0,1.0,0.0
2663,88.0,0.0,90.0,1.0,0.0
2664,76.0,0.0,90.0,5.0,0.0
2665,70.0,0.0,90.0,5.0,0.0
2666,58.0,0.0,90.0,5.0,0.0
2667,94.0,0.0,90.0,1.0,0.0
2668,82.0,120.0,90.0,1.0,0.0
2669,84.0,0.0,90.0,1.0,0.0
2670,96.0,0.0,90.0,1.0,0.0
2671,72.0,0.0,90.0,5.0,0.0
2672,60.0,762.0,90.0,5.0,0.0
2673,61.0,198.0,720.0,5.0,0.0
2674,73.0,0.0,720.0,5.0,0.0
2675,97.0,0.0,720.0,1.0,0.0
2676,85.0,0.0,720.0,1.0,0.0
2677,67.0,120.0,90.0,5.0,0.0
2678,55.0,0.0,90.0,5.0,0.0
2679,91.0,0.0,90.0,1.0,0.0
2680,79.0,0.0,90.0,1.0,0.0
2681,56.0,0.0,90.0,5.0,0.0
2682,68.0,120.0,90.0,5.0,0.0
2683,80.0,0.0,90.0,1.0,0.0
2684,92.0,0.0,90.0,1.0,0.0
2685,70.0,0.0,90.0,5.0,0.0
2686,82.0,0.0,90.0,1.0,0.0
2687,94.0,120.0,90.0,1.0,0.0
2688,58.0,0.0,90.0,5.0,0.0
2689,49.0,0.0,90.0,5.0,0.0
2690,61.0,0.0,90.0,5.0,0.0
2691,85.0,120.0,90.0,1.0,0.0
2692,73.0,0.0,90.0,1.0,0.0
2693,63.0,0.0,90.0,5.0,0.0
2694,51.0,0.0,90.0,5.0,0.0
2695,87.0,0.0,90.0,1.0,0.0
2696,75.0,1482.0,90.0,1.0,0.0
2697,52.0,0.0,1440.0,5.0,0.0
2698,64.0,0.0,1440.0,5.0,0.0
2699,76.0,0.0,1440.0,1.0,0.0
2700,88.0,960.0,1440.0,1.0,0.0
2701,64.0,120.0,15.0,1.0,0.0
2702,47.0,0.0,120.0,3.0,0.0
2703,40.0,0.0,120.0,5.0,0.0
2704,50.0,120.0,120.0,3.0,0.0
2705,65.0,0.0,15.0,1.0,0.0
2706,40.0,0.0,120.0,5.0,0.0
2707,47.0,120.0,120.0,3.0,0.0
2708,50.0,0.0,120.0,3.0,0.0
2709,64.0,120.0,15.0,1.0,0.0
2710,47.0,0.0,120.0,3.0,0.0
2711,40.0,120.0,120.0,5.0,0.0
2712,50.0,120.0,120.0,3.0,0.0
2713,47.0,0.0,120.0,3.0,0.0
2714,68.0,0.0,15.0,1.0,0.0
2715,40.0,120.0,120.0,5.0,0.0
2716,50.0,0.0,120.0,3.0,0.0
2717,64.0,120.0,120.0,1.0,0.0
2718,40.0,0.0,120.0,5.0,0.0
2719,47.0,120.0,120.0,3.0,0.0
2720,64.0,0.0,120.0,1.0,0.0
2721,71.0,120.0,120.0,1.0,0.0
2722,50.0,0.0,120.0,3.0,0.0
2723,47.0,0.0,120.0,3.0,0.0
2724,40.0,0.0,120.0,5.0,0.0
2725,71.0,120.0,120.0,1.0,0.0
2726,50.0,120.0,120.0,3.0,0.0
2727,64.0,0.0,120.0,1.0,0.0
2728,47.0,0.0,120.0,3.0,0.0
2729,40.0,120.0,120.0,5.0,0.0
2730,64.0,0.0,120.0,1.0,0.0
2731,77.0,0.0,120.0,1.0,0.0
2732,50.0,120.0,120.0,3.0,0.0
2733,40.0,0.0,120.0,5.0,0.0
2734,77.0,0.0,120.0,1.0,0.0
2735,47.0,120.0,120.0,3.0,0.0
2736,50.0,120.0,120.0,3.0,0.0
2737,64.0,0.0,120.0,1.0,0.0
2738,40.0,117.0,120.0,5.0,0.0
2739,47.0,0.0,120.0,3.0,0.0
2740,64.0,3.0,120.0,1.0,0.0
2741,50.0,0.0,120.0,3.0,0.0
2742,40.0,120.0,120.0,5.0,0.0
2743,47.0,0.0,120.0,3.0,0.0
2744,80.0,120.0,15.0,1.0,0.0
2745,74.0,0.0,120.0,1.0,0.0
2746,50.0,120.0,120.0,3.0,0.0
2747,41.0,120.0,120.0,5.0,0.0
2748,74.0,0.0,120.0,1.0,0.0
2749,47.0,0.0,120.0,3.0,0.0
2750,83.0,0.0,120.0,1.0,0.0
2751,50.0,120.0,120.0,3.0,0.0
2752,83.0,120.0,120.0,1.0,0.0
2753,41.0,0.0,120.0,5.0,0.0
2754,47.0,0.0,120.0,3.0,0.0
2755,50.0,0.0,120.0,3.0,0.0
2756,74.0,120.0,15.0,1.0,0.0
2757,41.0,0.0,120.0,5.0,0.0
2758,47.0,120.0,120.0,3.0,0.0
2759,89.0,0.0,120.0,1.0,0.0
2760,50.0,120.0,120.0,3.0,0.0
2761,47.0,120.0,120.0,3.0,0.0
2762,89.0,0.0,120.0,1.0,0.0
2763,41.0,0.0,120.0,5.0,0.0
2764,74.0,0.0,120.0,1.0,0.0
2765,50.0,120.0,120.0,3.0,0.0
2766,77.0,0.0,120.0,1.0,0.0
2767,41.0,0.0,120.0,5.0,0.0
2768,47.0,120.0,120.0,3.0,0.0
2769,50.0,0.0,120.0,3.0,0.0
2770,47.0,0.0,120.0,3.0,0.0
2771,41.0,120.0,120.0,5.0,0.0
2772,92.0,120.0,15.0,1.0,0.0
2773,77.0,120.0,120.0,1.0,0.0
2774,50.0,0.0,120.0,3.0,0.0
2775,41.0,0.0,120.0,5.0,0.0
2776,47.0,120.0,120.0,3.0,0.0
2777,74.0,0.0,120.0,1.0,0.0
2778,50.0,120.0,120.0,3.0,0.0
2779,89.0,0.0,15.0,1.0,0.0
2780,41.0,120.0,120.0,5.0,0.0
2781,47.0,0.0,120.0,3.0,0.0
2782,50.0,120.0,120.0,3.0,0.0
2783,74.0,0.0,120.0,1.0,0.0
2784,77.0,0.0,120.0,1.0,0.0
2785,47.0,120.0,120.0,3.0,0.0
2786,41.0,0.0,120.0,5.0,0.0
2787,50.0,0.0,120.0,3.0,0.0
2788,47.0,0.0,120.0,3.0,0.0
2789,92.0,120.0,15.0,1.0,0.0
2790,41.0,120.0,120.0,5.0,0.0
2791,50.0,120.0,120.0,3.0,0.0
2792,41.0,0.0,210.0,5.0,0.0
2793,53.0,1.0,180.0,4.0,0.0
2794,59.0,80.0,180.0,4.0,0.0
2795,77.0,0.0,15.0,1.0,0.0
2796,62.0,4.0,150.0,4.0,0.0
2797,71.0,0.0,150.0,4.0,0.0
2798,89.0,120.0,120.0,1.0,0.0
2799,41.0,80.0,210.0,5.0,0.0
2800,53.0,11.0,180.0,4.0,0.0
2801,59.0,0.0,180.0,4.0,0.0
2802,62.0,0.0,150.0,4.0,0.0
2803,71.0,4.0,150.0,4.0,0.0
2804,89.0,25.0,120.0,1.0,0.0
2805,101.0,180.0,120.0,1.0,0.0
2806,90.0,0.0,180.0,1.0,0.0
2807,53.0,40.0,180.0,5.0,0.0
2808,60.0,0.0,180.0,4.0,0.0
2809,96.0,40.0,180.0,2.0,0.0
2810,63.0,40.0,180.0,4.0,0.0
2811,99.0,0.0,180.0,2.0,0.0
2812,102.0,156.0,180.0,1.0,0.0
2813,69.0,0.0,180.0,5.0,0.0
2814,65.0,120.0,90.0,5.0,0.0
2815,89.0,0.0,90.0,1.0,0.0
2816,101.0,0.0,90.0,1.0,0.0
2817,53.0,0.0,90.0,5.0,0.0
2818,100.0,0.0,90.0,1.0,0.0
2819,88.0,0.0,90.0,1.0,0.0
2820,52.0,0.0,90.0,5.0,0.0
2821,64.0,120.0,90.0,5.0,0.0
2822,63.0,0.0,90.0,5.0,0.0
2823,87.0,0.0,90.0,1.0,0.0
2824,99.0,120.0,90.0,1.0,0.0
2825,51.0,0.0,90.0,5.0,0.0
2826,62.0,0.0,90.0,5.0,0.0
2827,86.0,0.0,90.0,1.0,0.0
2828,98.0,120.0,90.0,1.0,0.0
2829,50.0,0.0,90.0,5.0,0.0
2830,61.0,0.0,90.0,5.0,0.0
2831,97.0,0.0,90.0,1.0,0.0
2832,49.0,0.0,90.0,5.0,0.0
2833,85.0,120.0,90.0,1.0,0.0
2834,60.0,0.0,90.0,5.0,0.0
2835,48.0,120.0,90.0,5.0,0.0
2836,96.0,0.0,90.0,1.0,0.0
2837,84.0,0.0,90.0,1.0,0.0
2838,59.0,0.0,90.0,5.0,0.0
2839,95.0,0.0,90.0,1.0,0.0
2840,47.0,120.0,90.0,5.0,0.0
2841,83.0,0.0,90.0,1.0,0.0
2842,58.0,120.0,90.0,5.0,0.0
2843,46.0,0.0,90.0,5.0,0.0
2844,94.0,0.0,90.0,1.0,0.0
2845,82.0,0.0,90.0,1.0,0.0
2846,45.0,0.0,90.0,5.0,0.0
2847,57.0,0.0,90.0,5.0,0.0
2848,93.0,120.0,90.0,1.0,0.0
2849,81.0,0.0,90.0,1.0,0.0
2850,44.0,120.0,90.0,5.0,0.0
2851,56.0,0.0,90.0,5.0,0.0
2852,92.0,0.0,90.0,1.0,0.0
2853,80.0,0.0,90.0,1.0,0.0
2854,91.0,120.0,90.0,1.0,0.0
2855,79.0,0.0,90.0,1.0,0.0
2856,55.0,0.0,90.0,5.0,0.0
2857,43.0,0.0,90.0,5.0,0.0
2858,78.0,120.0,90.0,1.0,0.0
2859,90.0,0.0,90.0,1.0,0.0
2860,54.0,0.0,90.0,5.0,0.0
2861,42.0,0.0,90.0,5.0,0.0
2862,53.0,0.0,90.0,5.0,0.0
2863,77.0,120.0,90.0,1.0,0.0
2864,89.0,0.0,90.0,1.0,0.0
2865,41.0,0.0,90.0,5.0,0.0
2866,52.0,0.0,90.0,5.0,0.0
2867,40.0,0.0,90.0,5.0,0.0
2868,76.0,0.0,90.0,1.0,0.0
2869,88.0,120.0,90.0,1.0,0.0
2870,51.0,120.0,90.0,5.0,0.0
2871,87.0,0.0,90.0,1.0,0.0
2872,75.0,0.0,90.0,1.0,0.0
2873,39.0,0.0,90.0,5.0,0.0
2874,86.0,0.0,90.0,1.0,0.0
2875,74.0,0.0,90.0,1.0,0.0
2876,50.0,0.0,90.0,5.0,0.0
2877,38.0,120.0,90.0,5.0,0.0
2878,53.0,120.0,90.0,5.0,0.0
2879,41.0,0.0,90.0,5.0,0.0
2880,77.0,0.0,90.0,1.0,0.0
2881,89.0,0.0,90.0,1.0,0.0
2882,85.0,120.0,90.0,1.0,0.0
2883,73.0,0.0,90.0,1.0,0.0
2884,37.0,0.0,90.0,5.0,0.0
2885,49.0,0.0,90.0,5.0,0.0
2886,41.0,0.0,90.0,5.0,0.0
2887,53.0,120.0,90.0,5.0,0.0
2888,77.0,0.0,90.0,1.0,0.0
2889,89.0,0.0,90.0,1.0,0.0
2890,84.0,0.0,90.0,1.0,0.0
2891,72.0,0.0,90.0,1.0,0.0
2892,48.0,120.0,90.0,5.0,0.0
2893,36.0,0.0,90.0,5.0,0.0
2894,89.0,264.0,90.0,1.0,0.0
2895,77.0,0.0,90.0,1.0,0.0
2896,53.0,0.0,90.0,5.0,0.0
2897,41.0,0.0,90.0,5.0,0.0
2898,34.0,3.0,240.0,5.0,0.0
2899,82.0,0.0,240.0,1.0,0.0
2900,85.0,0.0,210.0,2.0,0.0
2901,37.0,0.0,210.0,4.0,0.0
2902,41.0,0.0,150.0,4.0,0.0
2903,89.0,213.0,150.0,2.0,0.0
2904,46.0,0.0,120.0,5.0,0.0
2905,94.0,0.0,120.0,1.0,0.0
2906,85.0,0.0,90.0,1.0,0.0
2907,73.0,0.0,90.0,1.0,0.0
2908,49.0,120.0,90.0,5.0,0.0
2909,61.0,0.0,90.0,5.0,0.0
2910,63.0,0.0,90.0,5.0,0.0
2911,51.0,0.0,90.0,5.0,0.0
2912,75.0,120.0,90.0,1.0,0.0
2913,87.0,0.0,90.0,1.0,0.0
2914,53.0,0.0,90.0,5.0,0.0
2915,65.0,0.0,90.0,5.0,0.0
2916,89.0,120.0,90.0,1.0,0.0
2917,77.0,0.0,90.0,1.0,0.0
2918,46.0,120.0,90.0,5.0,0.0
2919,58.0,0.0,90.0,5.0,0.0
2920,70.0,0.0,90.0,1.0,0.0
2921,82.0,0.0,90.0,1.0,0.0
2922,84.0,0.0,90.0,1.0,0.0
2923,72.0,0.0,90.0,1.0,0.0
2924,48.0,0.0,90.0,5.0,0.0
2925,60.0,102.0,90.0,5.0,0.0
2926,63.0,0.0,90.0,5.0,0.0
2927,51.0,120.0,90.0,5.0,0.0
2928,73.0,0.0,240.0,1.0,0.0
2929,85.0,78.0,240.0,1.0,0.0
2930,53.0,42.0,90.0,5.0,0.0
2931,65.0,0.0,90.0,5.0,0.0
2932,87.0,0.0,90.0,1.0,0.0
2933,54.0,120.0,90.0,5.0,0.0
2934,75.0,0.0,90.0,1.0,0.0
2935,66.0,0.0,90.0,5.0,0.0
2936,48.0,120.0,90.0,5.0,0.0
2937,60.0,0.0,90.0,5.0,0.0
2938,77.0,0.0,90.0,1.0,0.0
2939,89.0,0.0,90.0,1.0,0.0
2940,51.0,0.0,240.0,5.0,0.0
2941,63.0,78.0,240.0,5.0,0.0
2942,78.0,120.0,90.0,1.0,0.0
2943,90.0,0.0,90.0,1.0,0.0
2944,80.0,42.0,90.0,1.0,0.0
2945,92.0,0.0,90.0,1.0,0.0
2946,85.0,120.0,90.0,1.0,0.0
2947,73.0,0.0,90.0,1.0,0.0
2948,53.0,0.0,90.0,5.0,0.0
2949,65.0,0.0,90.0,5.0,0.0
2950,75.0,0.0,90.0,1.0,0.0
2951,54.0,120.0,90.0,5.0,0.0
2952,66.0,0.0,90.0,5.0,0.0
2953,87.0,0.0,90.0,1.0,0.0
2954,89.0,78.0,240.0,1.0,0.0
2955,56.0,0.0,90.0,5.0,0.0
2956,77.0,0.0,240.0,1.0,0.0
2957,68.0,120.0,90.0,5.0,0.0
2958,58.0,42.0,90.0,5.0,0.0
2959,70.0,0.0,90.0,5.0,0.0
2960,90.0,0.0,90.0,1.0,0.0
2961,78.0,0.0,90.0,1.0,0.0
2962,63.0,0.0,90.0,5.0,0.0
2963,51.0,120.0,90.0,5.0,0.0
2964,80.0,0.0,90.0,1.0,0.0
2965,53.0,120.0,90.0,5.0,0.0
2966,92.0,0.0,90.0,1.0,0.0
2967,65.0,0.0,90.0,5.0,0.0
2968,66.0,0.0,360.0,5.0,0.0
2969,54.0,78.0,360.0,5.0,0.0
2970,94.0,0.0,90.0,1.0,0.0
2971,82.0,120.0,90.0,1.0,0.0
2972,95.0,0.0,90.0,1.0,0.0
2973,83.0,120.0,90.0,1.0,0.0
2974,83.0,42.0,90.0,2.0,0.0
2975,87.0,0.0,90.0,1.0,0.0
2976,75.0,0.0,90.0,1.0,0.0
2977,56.0,0.0,90.0,5.0,0.0
2978,44.0,0.0,90.0,5.0,0.0
2979,85.0,0.0,90.0,2.0,0.0
2980,76.0,120.0,90.0,1.0,0.0
2981,88.0,0.0,90.0,1.0,0.0
2982,58.0,0.0,90.0,5.0,0.0
2983,46.0,120.0,90.0,5.0,0.0
2984,90.0,78.0,360.0,1.0,0.0
2985,78.0,0.0,360.0,1.0,0.0
2986,87.0,0.0,360.0,2.0,0.0
2987,47.0,120.0,90.0,5.0,0.0
2988,59.0,0.0,90.0,5.0,0.0
2989,51.0,0.0,90.0,5.0,0.0
2990,39.0,42.0,90.0,5.0,0.0
2991,92.0,0.0,90.0,1.0,0.0
2992,52.0,0.0,90.0,5.0,0.0
2993,88.0,0.0,90.0,2.0,0.0
2994,40.0,120.0,90.0,5.0,0.0
2995,80.0,0.0,90.0,1.0,0.0
2996,94.0,0.0,90.0,1.0,0.0
2997,90.0,120.0,90.0,2.0,0.0
2998,54.0,78.0,360.0,5.0,0.0
2999,82.0,0.0,90.0,1.0,0.0
3000,42.0,0.0,360.0,5.0,0.0
3001,92.0,120.0,90.0,2.0,0.0
3002,83.0,0.0,90.0,1.0,0.0
3003,95.0,0.0,90.0,1.0,0.0
3004,83.0,42.0,90.0,2.0,0.0
3005,75.0,0.0,90.0,1.0,0.0
3006,87.0,0.0,90.0,1.0,0.0
3007,76.0,0.0,90.0,1.0,0.0
3008,85.0,42.0,90.0,2.0,0.0
3009,88.0,0.0,90.0,1.0,0.0
3010,56.0,120.0,120.0,5.0,0.0
3011,44.0,0.0,120.0,5.0,0.0
3012,78.0,0.0,360.0,1.0,0.0
3013,87.0,0.0,360.0,2.0,0.0
3014,58.0,120.0,120.0,5.0,0.0
3015,46.0,0.0,120.0,5.0,0.0
3016,90.0,0.0,360.0,1.0,0.0
3017,59.0,120.0,120.0,5.0,0.0
3018,47.0,0.0,120.0,5.0,0.0
3019,51.0,78.0,120.0,5.0,0.0
3020,39.0,0.0,120.0,5.0,0.0
3021,88.0,42.0,90.0,2.0,0.0
3022,80.0,0.0,90.0,1.0,0.0
3023,92.0,0.0,90.0,1.0,0.0
3024,40.0,78.0,120.0,5.0,0.0
3025,52.0,0.0,120.0,5.0,0.0
3026,82.0,0.0,90.0,1.0,0.0
3027,94.0,120.0,90.0,1.0,0.0
3028,54.0,0.0,720.0,5.0,0.0
3029,90.0,0.0,90.0,2.0,0.0
3030,42.0,120.0,720.0,5.0,0.0
3031,92.0,120.0,90.0,2.0,0.0
3032,95.0,0.0,90.0,1.0,0.0
3033,83.0,0.0,90.0,1.0,0.0
3034,83.0,0.0,90.0,2.0,0.0
3035,75.0,0.0,90.0,1.0,0.0
3036,87.0,120.0,90.0,1.0,0.0
3037,76.0,0.0,90.0,1.0,0.0
3038,88.0,0.0,90.0,1.0,0.0
3039,85.0,282.0,90.0,2.0,0.0
3040,87.0,0.0,720.0,2.0,0.0
3041,78.0,120.0,720.0,1.0,0.0
3042,90.0,0.0,720.0,1.0,0.0
3043,47.0,0.0,120.0,5.0,0.0
3044,51.0,120.0,120.0,5.0,0.0
3045,52.0,0.0,120.0,5.0,0.0
3046,49.0,240.0,120.0,5.0,0.0
3047,54.0,160.0,570.0,5.0,0.0
3048,51.0,0.0,570.0,5.0,0.0
3049,83.0,120.0,120.0,2.0,0.0
3050,87.0,0.0,120.0,1.0,0.0
3051,75.0,0.0,120.0,1.0,0.0
3052,76.0,104.0,120.0,1.0,0.0
3053,88.0,0.0,120.0,1.0,0.0
3054,85.0,0.0,120.0,2.0,0.0
3055,87.0,0.0,90.0,2.0,0.0
3056,90.0,0.0,90.0,1.0,0.0
3057,78.0,0.0,90.0,1.0,0.0
3058,48.0,0.0,90.0,5.0,0.0
3059,51.0,0.0,90.0,5.0,0.0
3060,84.0,0.0,90.0,2.0,0.0
3061,87.0,0.0,90.0,1.0,0.0
3062,75.0,160.0,90.0,1.0,0.0
3063,85.0,0.0,90.0,2.0,0.0
3064,77.0,0.0,90.0,1.0,0.0
3065,89.0,160.0,90.0,1.0,0.0
3066,53.0,0.0,90.0,5.0,0.0
3067,49.0,0.0,90.0,5.0,0.0
3068,87.0,0.0,90.0,2.0,0.0
3069,78.0,0.0,90.0,1.0,0.0
3070,54.0,160.0,90.0,5.0,0.0
3071,51.0,0.0,90.0,5.0,0.0
3072,90.0,0.0,90.0,1.0,0.0
3073,48.0,160.0,90.0,5.0,0.0
3074,51.0,0.0,90.0,5.0,0.0
3075,84.0,0.0,90.0,2.0,0.0
3076,87.0,0.0,90.0,1.0,0.0
3077,75.0,0.0,90.0,1.0,0.0
3078,49.0,0.0,90.0,5.0,0.0
3079,53.0,0.0,90.0,5.0,0.0
3080,77.0,0.0,90.0,1.0,0.0
3081,85.0,160.0,90.0,2.0,0.0
3082,89.0,0.0,90.0,1.0,0.0
3083,78.0,0.0,90.0,1.0,0.0
3084,90.0,0.0,90.0,1.0,0.0
3085,87.0,0.0,90.0,2.0,0.0
3086,51.0,0.0,90.0,5.0,0.0
3087,56.0,160.0,90.0,5.0,0.0
3088,48.0,0.0,90.0,5.0,0.0
3089,75.0,0.0,90.0,1.0,0.0
3090,87.0,160.0,90.0,1.0,0.0
3091,51.0,0.0,90.0,4.0,0.0
3092,84.0,0.0,90.0,2.0,0.0
3093,60.0,0.0,90.0,5.0,0.0
3094,54.0,0.0,90.0,4.0,0.0
3095,87.0,0.0,90.0,2.0,0.0
3096,78.0,212.0,90.0,1.0,0.0
3097,90.0,0.0,90.0,1.0,0.0
3098,63.0,0.0,90.0,5.0,0.0
3099,51.0,0.0,90.0,5.0,0.0
3100,66.0,0.0,150.0,4.0,0.0
3101,63.0,0.0,150.0,5.0,0.0
3102,75.0,0.0,150.0,5.0,0.0
3103,99.0,240.0,150.0,2.0,0.0
3104,90.0,0.0,150.0,1.0,0.0
3105,102.0,0.0,150.0,1.0,0.0
3106,68.0,0.0,150.0,4.0,0.0
3107,72.0,0.0,150.0,5.0,0.0
3108,60.0,240.0,150.0,5.0,0.0
3109,96.0,0.0,150.0,2.0,0.0
3110,99.0,0.0,150.0,1.0,0.0
3111,87.0,0.0,150.0,1.0,0.0
3112,68.0,0.0,150.0,5.0,0.0
3113,56.0,0.0,150.0,5.0,0.0
3114,60.0,0.0,150.0,4.0,0.0
3115,92.0,240.0,150.0,2.0,0.0
3116,96.0,0.0,150.0,1.0,0.0
3117,84.0,0.0,150.0,1.0,0.0
3118,90.0,0.0,150.0,2.0,0.0
3119,82.0,0.0,150.0,1.0,0.0
3120,58.0,240.0,150.0,4.0,0.0
3121,94.0,0.0,150.0,1.0,0.0
3122,54.0,0.0,150.0,5.0,0.0
3123,66.0,0.0,150.0,5.0,0.0
3124,54.0,0.0,150.0,4.0,0.0
3125,87.0,240.0,150.0,2.0,0.0
3126,63.0,0.0,150.0,5.0,0.0
3127,51.0,0.0,150.0,5.0,0.0
3128,78.0,0.0,150.0,1.0,0.0
3129,90.0,0.0,150.0,1.0,0.0
3130,60.0,0.0,150.0,5.0,0.0
3131,51.0,0.0,150.0,4.0,0.0
3132,48.0,0.0,150.0,5.0,0.0
3133,75.0,0.0,150.0,1.0,0.0
3134,84.0,0.0,150.0,2.0,0.0
3135,87.0,240.0,150.0,1.0,0.0
3136,48.0,0.0,150.0,4.0,0.0
3137,80.0,0.0,150.0,2.0,0.0
3138,72.0,0.0,150.0,1.0,0.0
3139,44.0,0.0,150.0,5.0,0.0
3140,56.0,0.0,150.0,5.0,0.0
3141,84.0,720.0,150.0,1.0,0.0
3142,82.0,0.0,150.0,1.0,0.0
3143,70.0,0.0,150.0,1.0,0.0
3144,46.0,3444.0,150.0,4.0,0.0
3145,42.0,0.0,150.0,5.0,0.0
3146,54.0,0.0,150.0,5.0,0.0
3147,78.0,0.0,150.0,2.0,0.0
3148,53.0,0.0,2880.0,5.0,0.0
3149,41.0,0.0,2880.0,5.0,0.0
3150,81.0,156.0,2880.0,1.0,0.0
3151,69.0,0.0,2880.0,1.0,0.0
3152,45.0,0.0,2880.0,4.0,0.0
3153,77.0,0.0,2880.0,2.0,0.0
3154,56.0,0.0,150.0,2.0,0.0
3155,48.0,0.0,150.0,1.0,0.0
3156,60.0,0.0,150.0,1.0,0.0
3157,44.0,720.0,150.0,5.0,0.0
3158,32.0,0.0,150.0,5.0,0.0
3159,30.0,3444.0,150.0,5.0,0.0
3160,46.0,0.0,150.0,1.0,0.0
3161,58.0,0.0,150.0,1.0,0.0
3162,42.0,0.0,150.0,5.0,0.0
3163,54.0,0.0,150.0,2.0,0.0
3164,29.0,0.0,2880.0,5.0,0.0
3165,41.0,104.0,2880.0,5.0,0.0
3166,45.0,0.0,2880.0,1.0,0.0
3167,57.0,0.0,2880.0,1.0,0.0
3168,53.0,0.0,2880.0,2.0,0.0
3169,46.0,0.0,90.0,5.0,0.0
3170,58.0,160.0,90.0,5.0,0.0
3171,61.0,0.0,90.0,5.0,0.0
3172,49.0,160.0,90.0,5.0,0.0
3173,64.0,0.0,90.0,5.0,0.0
3174,52.0,160.0,90.0,5.0,0.0
3175,53.0,160.0,90.0,5.0,0.0
3176,65.0,0.0,90.0,5.0,0.0
3177,58.0,0.0,90.0,5.0,0.0
3178,46.0,160.0,90.0,5.0,0.0
3179,49.0,0.0,90.0,5.0,0.0
3180,61.0,160.0,90.0,5.0,0.0
3181,52.0,160.0,90.0,5.0,0.0
3182,64.0,0.0,90.0,5.0,0.0
3183,65.0,160.0,90.0,5.0,0.0
3184,53.0,0.0,90.0,5.0,0.0
3185,58.0,0.0,90.0,5.0,0.0
3186,70.0,0.0,90.0,1.0,0.0
3187,82.0,0.0,90.0,1.0,0.0
3188,46.0,160.0,90.0,5.0,0.0
3189,49.0,0.0,90.0,5.0,0.0
3190,61.0,160.0,90.0,5.0,0.0
3191,73.0,0.0,90.0,1.0,0.0
3192,85.0,0.0,90.0,1.0,0.0
3193,64.0,0.0,90.0,5.0,0.0
3194,76.0,0.0,90.0,1.0,0.0
3195,52.0,0.0,90.0,5.0,0.0
3196,88.0,160.0,90.0,1.0,0.0
3197,65.0,0.0,90.0,5.0,0.0
3198,53.0,0.0,90.0,5.0,0.0
3199,77.0,861.0,90.0,1.0,0.0
3200,89.0,0.0,90.0,1.0,0.0
3201,82.0,0.0,810.0,1.0,0.0
3202,94.0,155.0,810.0,1.0,0.0
3203,70.0,0.0,2070.0,5.0,0.0
3204,58.0,0.0,2070.0,5.0,0.0
3205,92.0,0.0,150.0,1.0,0.0
3206,80.0,320.0,15.0,1.0,0.0
3207,92.0,0.0,330.0,1.0,0.0
3208,37.0,3.0,1110.0,5.0,0.0
3209,49.0,155.0,1140.0,5.0,0.0
3210,73.0,160.0,15.0,3.0,0.0
3211,78.0,0.0,150.0,1.0,0.0
3212,90.0,160.0,150.0,1.0,0.0
3213,70.0,0.0,15.0,3.0,0.0
3214,73.0,0.0,15.0,3.0,0.0
3215,70.0,0.0,15.0,3.0,0.0
3216,78.0,155.0,330.0,1.0,0.0
3217,90.0,0.0,330.0,1.0,0.0
3218,70.0,0.0,15.0,3.0,0.0
3219,89.0,0.0,150.0,1.0,0.0
3220,73.0,5.0,15.0,3.0,0.0
3221,70.0,157.0,15.0,3.0,0.0
3222,77.0,0.0,15.0,1.0,0.0
3223,89.0,0.0,330.0,1.0,0.0
3224,73.0,5.0,150.0,3.0,0.0
3225,75.0,0.0,15.0,1.0,0.0
3226,87.0,104.0,15.0,1.0,0.0
3227,82.0,0.0,90.0,2.0,0.0
3228,60.0,160.0,90.0,5.0,0.0
3229,48.0,0.0,90.0,5.0,0.0
3230,84.0,0.0,90.0,2.0,0.0
3231,63.0,0.0,90.0,5.0,0.0
3232,51.0,0.0,90.0,5.0,0.0
3233,84.0,0.0,90.0,2.0,0.0
3234,87.0,0.0,90.0,1.0,0.0
3235,75.0,0.0,90.0,1.0,0.0
3236,82.0,160.0,90.0,2.0,0.0
3237,75.0,0.0,90.0,1.0,0.0
3238,87.0,0.0,90.0,1.0,0.0
3239,65.0,0.0,90.0,5.0,0.0
3240,53.0,0.0,90.0,5.0,0.0
3241,82.0,160.0,90.0,2.0,0.0
3242,84.0,0.0,90.0,2.0,0.0
3243,87.0,0.0,90.0,1.0,0.0
3244,75.0,0.0,90.0,1.0,0.0
3245,66.0,160.0,90.0,5.0,0.0
3246,82.0,0.0,90.0,2.0,0.0
3247,84.0,0.0,90.0,2.0,0.0
3248,54.0,0.0,90.0,5.0,0.0
3249,84.0,0.0,90.0,2.0,0.0
3250,82.0,0.0,90.0,2.0,0.0
3251,87.0,160.0,90.0,1.0,0.0
3252,75.0,0.0,90.0,1.0,0.0
3253,48.0,0.0,90.0,5.0,0.0
3254,60.0,0.0,90.0,5.0,0.0
3255,82.0,0.0,90.0,2.0,0.0
3256,84.0,160.0,90.0,2.0,0.0
3257,51.0,0.0,90.0,5.0,0.0
3258,63.0,0.0,90.0,5.0,0.0
3259,87.0,0.0,90.0,1.0,0.0
3260,75.0,0.0,90.0,1.0,0.0
3261,65.0,0.0,90.0,5.0,0.0
3262,53.0,0.0,90.0,5.0,0.0
3263,82.0,0.0,90.0,2.0,0.0
3264,84.0,160.0,90.0,2.0,0.0
3265,75.0,0.0,90.0,1.0,0.0
3266,87.0,0.0,90.0,1.0,0.0
3267,66.0,0.0,90.0,5.0,0.0
3268,87.0,0.0,90.0,1.0,0.0
3269,82.0,0.0,90.0,2.0,0.0
3270,84.0,160.0,90.0,2.0,0.0
3271,54.0,0.0,90.0,5.0,0.0
3272,75.0,0.0,90.0,1.0,0.0
3273,87.0,160.0,90.0,1.0,0.0
3274,60.0,0.0,90.0,5.0,0.0
3275,48.0,0.0,90.0,5.0,0.0
3276,84.0,0.0,90.0,2.0,0.0
3277,75.0,0.0,90.0,1.0,0.0
3278,82.0,0.0,90.0,2.0,0.0
3279,82.0,0.0,90.0,2.0,0.0
3280,87.0,0.0,90.0,1.0,0.0
3281,63.0,0.0,90.0,5.0,0.0
3282,51.0,0.0,90.0,5.0,0.0
3283,75.0,0.0,90.0,1.0,0.0
3284,84.0,160.0,90.0,2.0,0.0
3285,89.0,0.0,90.0,1.0,0.0
3286,77.0,0.0,90.0,1.0,0.0
3287,65.0,0.0,90.0,5.0,0.0
3288,53.0,160.0,90.0,5.0,0.0
3289,78.0,0.0,90.0,1.0,0.0
3290,90.0,856.0,90.0,1.0,0.0
3291,54.0,0.0,90.0,5.0,0.0
3292,66.0,0.0,90.0,5.0,0.0
3293,84.0,5.0,810.0,1.0,0.0
3294,96.0,145.0,810.0,1.0,0.0
3295,72.0,3.0,2070.0,5.0,0.0
3296,60.0,0.0,2070.0,5.0,0.0
3297,94.0,10.0,150.0,1.0,0.0
3298,82.0,320.0,15.0,1.0,0.0
3299,94.0,0.0,330.0,1.0,0.0
3300,41.0,0.0,1110.0,5.0,0.0
3301,53.0,7.0,1110.0,5.0,0.0
3302,72.0,0.0,150.0,3.0,0.0
3303,81.0,0.0,150.0,1.0,0.0
3304,75.0,0.0,15.0,3.0,0.0
3305,72.0,160.0,150.0,3.0,0.0
3306,93.0,0.0,150.0,1.0,0.0
3307,81.0,3.0,330.0,1.0,0.0
3308,72.0,157.0,150.0,3.0,0.0
3309,75.0,0.0,150.0,3.0,0.0
3310,93.0,0.0,330.0,1.0,0.0
3311,75.0,0.0,150.0,3.0,0.0
3312,72.0,160.0,150.0,3.0,0.0
3313,90.0,0.0,150.0,1.0,0.0
3314,78.0,150.0,150.0,1.0,0.0
3315,72.0,0.0,150.0,3.0,0.0
3316,75.0,0.0,15.0,3.0,0.0
3317,77.0,0.0,330.0,1.0,0.0
3318,89.0,160.0,330.0,1.0,0.0
3319,72.0,160.0,150.0,3.0,0.0
3320,75.0,104.0,150.0,1.0,0.0
3321,87.0,0.0,150.0,1.0,0.0
3322,85.0,160.0,90.0,1.0,0.0
3323,73.0,0.0,90.0,1.0,0.0
3324,58.0,0.0,90.0,5.0,0.0
3325,46.0,0.0,90.0,5.0,0.0
3326,82.0,0.0,90.0,2.0,0.0
3327,77.0,0.0,90.0,2.0,0.0
3328,77.0,0.0,90.0,2.0,0.0
3329,82.0,160.0,90.0,2.0,0.0
3330,49.0,0.0,90.0,5.0,0.0
3331,61.0,0.0,90.0,5.0,0.0
3332,73.0,0.0,90.0,1.0,0.0
3333,85.0,0.0,90.0,1.0,0.0
3334,77.0,0.0,90.0,2.0,0.0
3335,85.0,0.0,90.0,1.0,0.0
3336,73.0,0.0,90.0,1.0,0.0
3337,82.0,0.0,90.0,2.0,0.0
3338,64.0,160.0,90.0,5.0,0.0
3339,52.0,0.0,90.0,5.0,0.0
3340,65.0,0.0,90.0,5.0,0.0
3341,82.0,0.0,90.0,2.0,0.0
3342,73.0,0.0,90.0,1.0,0.0
3343,85.0,0.0,90.0,1.0,0.0
3344,53.0,0.0,90.0,5.0,0.0
3345,77.0,160.0,90.0,2.0,0.0
3346,46.0,0.0,90.0,5.0,0.0
3347,58.0,0.0,90.0,5.0,0.0
3348,73.0,160.0,90.0,1.0,0.0
3349,85.0,0.0,90.0,1.0,0.0
3350,82.0,0.0,90.0,2.0,0.0
3351,77.0,0.0,90.0,2.0,0.0
3352,73.0,0.0,90.0,1.0,0.0
3353,85.0,0.0,90.0,1.0,0.0
3354,61.0,0.0,90.0,5.0,0.0
3355,49.0,0.0,90.0,5.0,0.0
3356,82.0,160.0,90.0,2.0,0.0
3357,77.0,0.0,90.0,2.0,0.0
3358,73.0,160.0,90.0,1.0,0.0
3359,64.0,0.0,90.0,5.0,0.0
3360,52.0,0.0,90.0,5.0,0.0
3361,85.0,0.0,90.0,1.0,0.0
3362,77.0,0.0,90.0,2.0,0.0
3363,82.0,0.0,90.0,2.0,0.0
3364,82.0,0.0,90.0,2.0,0.0
3365,85.0,0.0,90.0,1.0,0.0
3366,73.0,160.0,90.0,1.0,0.0
3367,65.0,0.0,90.0,5.0,0.0
3368,53.0,0.0,90.0,5.0,0.0
3369,77.0,0.0,90.0,2.0,0.0
3370,46.0,0.0,90.0,5.0,0.0
3371,58.0,0.0,90.0,5.0,0.0
3372,73.0,160.0,90.0,1.0,0.0
3373,85.0,0.0,90.0,1.0,0.0
3374,82.0,0.0,90.0,2.0,0.0
3375,77.0,0.0,90.0,2.0,0.0
3376,49.0,0.0,90.0,5.0,0.0
3377,61.0,0.0,90.0,5.0,0.0
3378,82.0,0.0,90.0,2.0,0.0
3379,77.0,160.0,90.0,2.0,0.0
3380,73.0,0.0,90.0,1.0,0.0
3381,85.0,0.0,90.0,1.0,0.0
3382,52.0,0.0,90.0,5.0,0.0
3383,76.0,0.0,90.0,1.0,0.0
3384,64.0,160.0,90.0,5.0,0.0
3385,88.0,0.0,90.0,1.0,0.0
3386,89.0,0.0,90.0,1.0,0.0
3387,77.0,0.0,90.0,1.0,0.0
3388,53.0,843.0,90.0,5.0,0.0
3389,65.0,0.0,90.0,5.0,0.0
3390,77.0,0.0,2070.0,5.0,0.0
3391,65.0,7.0,2070.0,5.0,0.0
3392,89.0,8.0,780.0,1.0,0.0
3393,101.0,157.0,780.0,1.0,0.0
3394,89.0,8.0,150.0,1.0,0.0
3395,48.0,145.0,1140.0,5.0,0.0
3396,36.0,3.0,1110.0,5.0,0.0
3397,89.0,160.0,330.0,1.0,0.0
3398,101.0,320.0,15.0,1.0,0.0
3399,76.0,0.0,150.0,3.0,0.0
3400,70.0,0.0,150.0,3.0,0.0
3401,67.0,0.0,150.0,3.0,0.0
3402,88.0,0.0,150.0,1.0,0.0
3403,70.0,160.0,150.0,3.0,0.0
3404,67.0,0.0,150.0,3.0,0.0
3405,76.0,0.0,150.0,3.0,0.0
3406,100.0,0.0,150.0,1.0,0.0
3407,88.0,0.0,330.0,1.0,0.0
3408,70.0,160.0,150.0,3.0,0.0
3409,67.0,0.0,150.0,3.0,0.0
3410,100.0,0.0,330.0,1.0,0.0
3411,76.0,0.0,15.0,3.0,0.0
3412,70.0,0.0,150.0,3.0,0.0
3413,67.0,160.0,15.0,3.0,0.0
3414,85.0,0.0,150.0,1.0,0.0
3415,97.0,0.0,150.0,1.0,0.0
3416,96.0,5.0,300.0,1.0,0.0
3417,76.0,0.0,15.0,3.0,0.0
3418,67.0,0.0,150.0,3.0,0.0
3419,70.0,150.0,15.0,3.0,0.0
3420,84.0,165.0,300.0,1.0,0.0
3421,94.0,0.0,150.0,1.0,0.0
3422,82.0,104.0,150.0,1.0,0.0
3423,81.0,0.0,90.0,1.0,0.0
3424,93.0,0.0,90.0,1.0,0.0
3425,89.0,0.0,90.0,2.0,0.0
3426,84.0,160.0,90.0,2.0,0.0
3427,53.0,0.0,90.0,5.0,0.0
3428,65.0,0.0,90.0,5.0,0.0
3429,69.0,0.0,90.0,5.0,0.0
3430,57.0,0.0,90.0,5.0,0.0
3431,84.0,0.0,90.0,2.0,0.0
3432,89.0,0.0,90.0,2.0,0.0
3433,81.0,160.0,90.0,1.0,0.0
3434,93.0,0.0,90.0,1.0,0.0
3435,59.0,0.0,90.0,5.0,0.0
3436,84.0,0.0,90.0,2.0,0.0
3437,89.0,0.0,90.0,2.0,0.0
3438,81.0,160.0,90.0,1.0,0.0
3439,93.0,0.0,90.0,1.0,0.0
3440,71.0,0.0,90.0,5.0,0.0
3441,84.0,160.0,90.0,2.0,0.0
3442,89.0,0.0,90.0,2.0,0.0
3443,60.0,0.0,90.0,5.0,0.0
3444,93.0,0.0,90.0,1.0,0.0
3445,72.0,0.0,90.0,5.0,0.0
3446,81.0,0.0,90.0,1.0,0.0
3447,65.0,160.0,90.0,5.0,0.0
3448,81.0,0.0,90.0,1.0,0.0
3449,93.0,0.0,90.0,1.0,0.0
3450,53.0,0.0,90.0,5.0,0.0
3451,89.0,0.0,90.0,2.0,0.0
3452,84.0,0.0,90.0,2.0,0.0
3453,81.0,0.0,90.0,1.0,0.0
3454,93.0,160.0,90.0,1.0,0.0
3455,89.0,0.0,90.0,2.0,0.0
3456,84.0,0.0,90.0,2.0,0.0
3457,57.0,0.0,90.0,5.0,0.0
3458,69.0,0.0,90.0,5.0,0.0
3459,71.0,0.0,90.0,5.0,0.0
3460,59.0,0.0,90.0,5.0,0.0
3461,93.0,0.0,90.0,1.0,0.0
3462,84.0,0.0,90.0,2.0,0.0
3463,81.0,160.0,90.0,1.0,0.0
3464,89.0,0.0,90.0,2.0,0.0
3465,89.0,0.0,90.0,2.0,0.0
3466,81.0,0.0,90.0,1.0,0.0
3467,93.0,160.0,90.0,1.0,0.0
3468,60.0,0.0,90.0,5.0,0.0
3469,72.0,0.0,90.0,5.0,0.0
3470,84.0,0.0,90.0,2.0,0.0
3471,65.0,0.0,90.0,5.0,0.0
3472,53.0,160.0,90.0,5.0,0.0
3473,81.0,0.0,90.0,1.0,0.0
3474,93.0,0.0,90.0,1.0,0.0
3475,84.0,0.0,90.0,2.0,0.0
3476,89.0,0.0,90.0,2.0,0.0
3477,81.0,0.0,90.0,1.0,0.0
3478,57.0,0.0,90.0,5.0,0.0
3479,69.0,0.0,90.0,5.0,0.0
3480,93.0,160.0,90.0,1.0,0.0
3481,89.0,0.0,90.0,2.0,0.0
3482,84.0,0.0,90.0,2.0,0.0
3483,71.0,0.0,90.0,5.0,0.0
3484,59.0,0.0,90.0,5.0,0.0
3485,95.0,0.0,90.0,1.0,0.0
3486,83.0,160.0,90.0,1.0,0.0
3487,96.0,0.0,90.0,1.0,0.0
3488,84.0,0.0,90.0,1.0,0.0
3489,60.0,776.0,90.0,5.0,0.0
3490,72.0,0.0,90.0,5.0,0.0
3491,80.0,3.0,1110.0,5.0,0.0
3492,68.0,7.0,1110.0,5.0,0.0
3493,92.0,160.0,780.0,1.0,0.0
3494,104.0,75.0,720.0,1.0,0.0
3495,92.0,155.0,150.0,1.0,0.0
3496,80.0,0.0,150.0,1.0,0.0
3497,80.0,155.0,810.0,1.0,0.0
3498,85.0,5.0,810.0,2.0,0.0
3499,37.0,160.0,150.0,5.0,0.0
3500,92.0,0.0,810.0,1.0,0.0
3501,49.0,0.0,150.0,5.0,0.0
3502,68.0,0.0,150.0,3.0,0.0
3503,61.0,0.0,150.0,3.0,0.0
3504,65.0,160.0,15.0,3.0,0.0
3505,68.0,0.0,15.0,3.0,0.0
3506,61.0,160.0,15.0,3.0,0.0
3507,65.0,0.0,15.0,3.0,0.0
3508,61.0,0.0,15.0,3.0,0.0
3509,68.0,0.0,15.0,3.0,0.0
3510,89.0,0.0,150.0,1.0,0.0
3511,77.0,0.0,150.0,1.0,0.0
3512,65.0,160.0,15.0,3.0,0.0
3513,68.0,0.0,150.0,3.0,0.0
3514,87.0,0.0,330.0,1.0,0.0
3515,61.0,0.0,150.0,3.0,0.0
3516,75.0,0.0,330.0,1.0,0.0
3517,68.0,160.0,15.0,3.0,0.0
3518,61.0,0.0,15.0,3.0,0.0
3519,65.0,0.0,15.0,3.0,0.0
3520,73.0,0.0,150.0,1.0,0.0
3521,78.0,0.0,960.0,2.0,0.0
3522,81.0,0.0,960.0,2.0,0.0
3523,69.0,320.0,1110.0,2.0,0.0
3524,61.0,0.0,15.0,3.0,0.0
3525,85.0,160.0,15.0,1.0,0.0
3526,73.0,0.0,480.0,1.0,0.0
3527,63.0,160.0,15.0,3.0,0.0
3528,66.0,0.0,15.0,3.0,0.0
3529,61.0,0.0,150.0,3.0,0.0
3530,63.0,160.0,15.0,3.0,0.0
3531,61.0,0.0,150.0,3.0,0.0
3532,66.0,0.0,150.0,3.0,0.0
3533,66.0,0.0,150.0,3.0,0.0
3534,63.0,160.0,150.0,3.0,0.0
3535,61.0,0.0,150.0,3.0,0.0
3536,72.0,0.0,480.0,1.0,0.0
3537,84.0,0.0,480.0,1.0,0.0
3538,66.0,160.0,150.0,3.0,0.0
3539,61.0,0.0,150.0,3.0,0.0
3540,63.0,0.0,150.0,3.0,0.0
3541,66.0,0.0,15.0,3.0,0.0
3542,63.0,160.0,15.0,3.0,0.0
3543,61.0,0.0,15.0,3.0,0.0
3544,75.0,0.0,150.0,1.0,0.0
3545,87.0,160.0,150.0,1.0,0.0
3546,37.0,0.0,150.0,5.0,0.0
3547,80.0,160.0,810.0,1.0,0.0
3548,49.0,160.0,150.0,5.0,0.0
3549,85.0,0.0,810.0,2.0,0.0
3550,92.0,0.0,810.0,1.0,0.0
3551,68.0,0.0,150.0,3.0,0.0
3552,61.0,160.0,15.0,3.0,0.0
3553,65.0,0.0,15.0,3.0,0.0
3554,65.0,160.0,15.0,3.0,0.0
3555,68.0,0.0,15.0,3.0,0.0
3556,61.0,160.0,150.0,3.0,0.0
3557,65.0,0.0,15.0,3.0,0.0
3558,68.0,0.0,150.0,3.0,0.0
3559,61.0,0.0,150.0,3.0,0.0
3560,61.0,0.0,150.0,3.0,0.0
3561,65.0,0.0,150.0,3.0,0.0
3562,89.0,0.0,150.0,1.0,0.0
3563,77.0,160.0,150.0,1.0,0.0
3564,87.0,160.0,330.0,1.0,0.0
3565,68.0,0.0,15.0,3.0,0.0
3566,75.0,0.0,330.0,1.0,0.0
3567,65.0,0.0,15.0,3.0,0.0
3568,61.0,160.0,15.0,3.0,0.0
3569,68.0,0.0,15.0,3.0,0.0
3570,65.0,0.0,15.0,3.0,0.0
3571,68.0,0.0,15.0,3.0,0.0
3572,61.0,0.0,15.0,3.0,0.0
3573,85.0,0.0,150.0,1.0,0.0
3574,69.0,0.0,1110.0,2.0,0.0
3575,81.0,0.0,960.0,2.0,0.0
3576,78.0,0.0,960.0,2.0,0.0
3577,61.0,160.0,15.0,3.0,0.0
3578,63.0,0.0,150.0,3.0,0.0
3579,73.0,0.0,15.0,1.0,0.0
3580,85.0,0.0,480.0,1.0,0.0
3581,61.0,0.0,15.0,3.0,0.0
3582,66.0,160.0,15.0,3.0,0.0
3583,63.0,0.0,15.0,3.0,0.0
3584,66.0,0.0,15.0,3.0,0.0
3585,63.0,160.0,15.0,3.0,0.0
3586,61.0,0.0,15.0,3.0,0.0
3587,84.0,0.0,480.0,1.0,0.0
3588,72.0,160.0,480.0,1.0,0.0
3589,61.0,0.0,15.0,3.0,0.0
3590,63.0,0.0,15.0,3.0,0.0
3591,66.0,160.0,15.0,3.0,0.0
3592,66.0,0.0,15.0,3.0,0.0
3593,63.0,160.0,15.0,3.0,0.0
3594,63.0,0.0,15.0,3.0,0.0
3595,61.0,0.0,15.0,3.0,0.0
3596,66.0,320.0,150.0,3.0,0.0
3597,75.0,160.0,150.0,1.0,0.0
3598,87.0,0.0,150.0,1.0,0.0
3599,49.0,0.0,150.0,5.0,0.0
3600,85.0,5.0,780.0,2.0,0.0
3601,37.0,160.0,150.0,5.0,0.0
3602,92.0,0.0,810.0,1.0,0.0
3603,80.0,155.0,810.0,1.0,0.0
3604,65.0,0.0,150.0,3.0,0.0
3605,68.0,0.0,150.0,3.0,0.0
3606,61.0,160.0,150.0,3.0,0.0
3607,61.0,160.0,150.0,3.0,0.0
3608,65.0,0.0,150.0,3.0,0.0
3609,68.0,0.0,150.0,3.0,0.0
3610,68.0,0.0,150.0,3.0,0.0
3611,61.0,155.0,150.0,3.0,0.0
3612,65.0,0.0,15.0,3.0,0.0
3613,65.0,0.0,15.0,3.0,0.0
3614,61.0,0.0,15.0,3.0,0.0
3615,68.0,5.0,15.0,3.0,0.0
3616,77.0,160.0,150.0,1.0,0.0
3617,89.0,0.0,150.0,1.0,0.0
3618,75.0,0.0,330.0,1.0,0.0
3619,87.0,5.0,300.0,1.0,0.0
3620,53.0,155.0,150.0,5.0,0.0
3621,61.0,160.0,150.0,3.0,0.0
3622,68.0,0.0,150.0,3.0,0.0
3623,73.0,0.0,150.0,1.0,0.0
3624,85.0,0.0,150.0,1.0,0.0
3625,61.0,0.0,150.0,3.0,0.0
3626,68.0,160.0,150.0,3.0,0.0
3627,51.0,160.0,150.0,5.0,0.0
3628,72.0,0.0,480.0,1.0,0.0
3629,84.0,155.0,330.0,1.0,0.0
3630,68.0,0.0,15.0,3.0,0.0
3631,85.0,0.0,150.0,1.0,0.0
3632,63.0,5.0,15.0,3.0,0.0
3633,73.0,0.0,150.0,1.0,0.0
3634,72.0,0.0,150.0,3.0,0.0
3635,63.0,0.0,15.0,3.0,0.0
3636,68.0,160.0,15.0,3.0,0.0
3637,75.0,160.0,480.0,1.0,0.0
3638,87.0,0.0,480.0,1.0,0.0
3639,72.0,0.0,150.0,3.0,0.0
3640,68.0,0.0,150.0,3.0,0.0
3641,72.0,0.0,150.0,3.0,0.0
3642,63.0,160.0,15.0,3.0,0.0
3643,68.0,0.0,150.0,3.0,0.0
3644,63.0,0.0,150.0,3.0,0.0
3645,67.0,0.0,150.0,3.0,0.0
3646,70.0,150.0,330.0,1.0,0.0
3647,61.0,160.0,150.0,5.0,0.0
3648,79.0,0.0,330.0,2.0,0.0
3649,82.0,5.0,330.0,1.0,0.0
3650,67.0,0.0,150.0,3.0,0.0
3651,63.0,0.0,150.0,3.0,0.0
3652,67.0,0.0,150.0,3.0,0.0
3653,63.0,0.0,150.0,3.0,0.0
3654,61.0,5.0,15.0,5.0,0.0
3655,71.0,0.0,150.0,1.0,0.0
3656,83.0,0.0,150.0,1.0,0.0
3657,63.0,5.0,780.0,5.0,0.0
3658,81.0,0.0,960.0,1.0,0.0
3659,51.0,158.0,810.0,5.0,0.0
3660,69.0,0.0,15.0,2.0,0.0
3661,78.0,160.0,15.0,3.0,0.0
3662,72.0,0.0,15.0,3.0,0.0
3663,69.0,0.0,15.0,2.0,0.0
3664,72.0,160.0,15.0,3.0,0.0
3665,72.0,0.0,150.0,3.0,0.0
3666,78.0,160.0,15.0,3.0,0.0
3667,69.0,0.0,15.0,2.0,0.0
3668,69.0,0.0,15.0,2.0,0.0
3669,78.0,155.0,15.0,3.0,0.0
3670,60.0,0.0,150.0,5.0,0.0
3671,69.0,0.0,150.0,2.0,0.0
3672,48.0,0.0,150.0,5.0,0.0
3673,78.0,2.0,15.0,3.0,0.0
3674,72.0,0.0,15.0,3.0,0.0
3675,48.0,0.0,150.0,5.0,0.0
3676,60.0,0.0,150.0,5.0,0.0
3677,80.0,320.0,480.0,1.0,0.0
3678,72.0,0.0,150.0,3.0,0.0
3679,46.0,0.0,150.0,5.0,0.0
3680,68.0,0.0,15.0,2.0,0.0
3681,58.0,0.0,150.0,5.0,0.0
3682,78.0,160.0,15.0,3.0,0.0
3683,72.0,0.0,150.0,3.0,0.0
3684,72.0,0.0,150.0,3.0,0.0
3685,78.0,160.0,15.0,3.0,0.0
3686,68.0,0.0,150.0,2.0,0.0
3687,56.0,0.0,150.0,5.0,0.0
3688,44.0,0.0,150.0,5.0,0.0
3689,37.0,153.0,480.0,5.0,0.0
3690,80.0,2.0,810.0,1.0,0.0
3691,68.0,158.0,810.0,1.0,0.0
3692,77.0,160.0,15.0,3.0,0.0
3693,73.0,0.0,15.0,3.0,0.0
3694,77.0,7.0,15.0,3.0,0.0
3695,41.0,320.0,480.0,5.0,0.0
3696,77.0,160.0,15.0,3.0,0.0
3697,73.0,0.0,15.0,3.0,0.0
3698,65.0,0.0,150.0,1.0,0.0
3699,77.0,0.0,150.0,1.0,0.0
3700,43.0,158.0,330.0,5.0,0.0
3701,75.0,0.0,330.0,1.0,0.0
3702,63.0,0.0,330.0,1.0,0.0
3703,68.0,2.0,150.0,3.0,0.0
3704,65.0,0.0,150.0,3.0,0.0
3705,44.0,0.0,150.0,5.0,0.0
3706,61.0,0.0,150.0,1.0,0.0
3707,45.0,153.0,960.0,5.0,0.0
3708,73.0,320.0,15.0,1.0,0.0
3709,61.0,0.0,480.0,1.0,0.0
3710,66.0,160.0,150.0,3.0,0.0
3711,63.0,0.0,150.0,3.0,0.0
3712,66.0,320.0,150.0,3.0,0.0
3713,63.0,0.0,150.0,3.0,0.0
3714,60.0,7.0,480.0,1.0,0.0
3715,72.0,0.0,480.0,1.0,0.0
3716,66.0,0.0,150.0,3.0,0.0
3717,63.0,160.0,15.0,3.0,0.0
3718,66.0,0.0,150.0,3.0,0.0
3719,44.0,313.0,480.0,5.0,0.0
3720,63.0,160.0,150.0,3.0,0.0
3721,66.0,0.0,15.0,3.0,0.0
3722,63.0,160.0,150.0,3.0,0.0
3723,63.0,0.0,150.0,1.0,0.0
3724,75.0,7.0,150.0,1.0,0.0
3725,37.0,153.0,480.0,5.0,0.0
3726,68.0,158.0,810.0,1.0,0.0
3727,80.0,2.0,810.0,1.0,0.0
3728,76.0,0.0,15.0,3.0,0.0
3729,73.0,160.0,15.0,3.0,0.0
3730,40.0,320.0,480.0,5.0,0.0
3731,73.0,0.0,150.0,3.0,0.0
3732,73.0,0.0,150.0,3.0,0.0
3733,76.0,160.0,15.0,3.0,0.0
3734,64.0,0.0,150.0,1.0,0.0
3735,76.0,0.0,150.0,1.0,0.0
3736,75.0,0.0,330.0,1.0,0.0
3737,63.0,0.0,330.0,1.0,0.0
3738,43.0,158.0,330.0,5.0,0.0
3739,68.0,2.0,150.0,3.0,0.0
3740,64.0,0.0,150.0,3.0,0.0
3741,44.0,0.0,150.0,5.0,0.0
3742,73.0,0.0,150.0,1.0,0.0
3743,45.0,160.0,960.0,5.0,0.0
3744,61.0,320.0,15.0,1.0,0.0
3745,73.0,0.0,480.0,1.0,0.0
3746,63.0,160.0,150.0,3.0,0.0
3747,66.0,0.0,150.0,3.0,0.0
3748,63.0,0.0,150.0,3.0,0.0
3749,66.0,0.0,150.0,3.0,0.0
3750,60.0,0.0,480.0,1.0,0.0
3751,72.0,0.0,480.0,1.0,0.0
3752,63.0,0.0,15.0,3.0,0.0
3753,66.0,160.0,15.0,3.0,0.0
3754,63.0,160.0,150.0,3.0,0.0
3755,44.0,313.0,480.0,5.0,0.0
3756,66.0,0.0,15.0,3.0,0.0
3757,63.0,0.0,150.0,3.0,0.0
3758,68.0,0.0,150.0,1.0,0.0
3759,80.0,7.0,150.0,1.0,0.0
3760,37.0,153.0,480.0,5.0,0.0
3761,69.0,5.0,780.0,1.0,0.0
3762,81.0,158.0,810.0,1.0,0.0
3763,73.0,160.0,150.0,3.0,0.0
3764,76.0,0.0,150.0,3.0,0.0
3765,73.0,0.0,150.0,3.0,0.0
3766,76.0,7.0,150.0,3.0,0.0
3767,76.0,155.0,150.0,3.0,0.0
3768,40.0,0.0,480.0,5.0,0.0
3769,73.0,0.0,150.0,3.0,0.0
3770,73.0,2.0,150.0,3.0,0.0
3771,76.0,0.0,150.0,3.0,0.0
3772,64.0,320.0,150.0,1.0,0.0
3773,76.0,0.0,150.0,1.0,0.0
3774,62.0,150.0,330.0,1.0,0.0
3775,44.0,8.0,330.0,5.0,0.0
3776,74.0,0.0,330.0,1.0,0.0
3777,69.0,2.0,150.0,3.0,0.0
3778,45.0,0.0,150.0,5.0,0.0
3779,38.0,153.0,480.0,5.0,0.0
3780,73.0,0.0,15.0,1.0,0.0
3781,61.0,320.0,15.0,1.0,0.0
3782,66.0,0.0,150.0,3.0,0.0
3783,69.0,160.0,15.0,3.0,0.0
3784,66.0,7.0,150.0,3.0,0.0
3785,42.0,0.0,480.0,5.0,0.0
3786,69.0,0.0,150.0,3.0,0.0
3787,69.0,160.0,150.0,3.0,0.0
3788,66.0,155.0,15.0,3.0,0.0
3789,59.0,320.0,150.0,1.0,0.0
3790,71.0,0.0,150.0,1.0,0.0
3791,44.0,158.0,330.0,5.0,0.0
3792,61.0,0.0,330.0,1.0,0.0
3793,73.0,0.0,330.0,1.0,0.0
3794,66.0,2.0,150.0,3.0,0.0
3795,69.0,0.0,150.0,3.0,0.0
3796,45.0,0.0,150.0,5.0,0.0
3797,71.0,0.0,150.0,1.0,0.0
3798,59.0,320.0,150.0,1.0,0.0
3799,62.0,155.0,810.0,1.0,0.0
3800,40.0,153.0,480.0,5.0,0.0
3801,74.0,5.0,780.0,1.0,0.0
3802,69.0,160.0,15.0,3.0,0.0
3803,67.0,0.0,15.0,3.0,0.0
3804,69.0,7.0,15.0,3.0,0.0
3805,67.0,0.0,15.0,3.0,0.0
3806,43.0,0.0,480.0,5.0,0.0
3807,67.0,0.0,15.0,3.0,0.0
3808,69.0,5.0,150.0,3.0,0.0
3809,73.0,1.0,150.0,1.0,0.0
3810,61.0,0.0,150.0,1.0,0.0
3811,44.0,2.0,330.0,5.0,0.0
3812,62.0,319.0,15.0,1.0,0.0
3813,74.0,156.0,330.0,1.0,0.0
3814,69.0,2.0,150.0,3.0,0.0
3815,67.0,0.0,150.0,3.0,0.0
3816,73.0,0.0,150.0,1.0,0.0
3817,61.0,0.0,150.0,1.0,0.0
3818,45.0,320.0,150.0,5.0,0.0
3819,42.0,153.0,480.0,5.0,0.0
3820,76.0,0.0,810.0,1.0,0.0
3821,64.0,0.0,810.0,1.0,0.0
3822,66.0,0.0,150.0,3.0,0.0
3823,69.0,160.0,15.0,3.0,0.0
3824,66.0,7.0,150.0,3.0,0.0
3825,45.0,0.0,480.0,5.0,0.0
3826,66.0,0.0,150.0,3.0,0.0
3827,69.0,160.0,15.0,3.0,0.0
3828,66.0,160.0,150.0,3.0,0.0
3829,62.0,0.0,150.0,1.0,0.0
3830,74.0,320.0,150.0,1.0,0.0
3831,76.0,0.0,330.0,1.0,0.0
3832,64.0,155.0,330.0,1.0,0.0
3833,49.0,3.0,330.0,5.0,0.0
3834,69.0,2.0,150.0,3.0,0.0
3835,66.0,0.0,150.0,3.0,0.0
3836,50.0,315.0,150.0,5.0,0.0
3837,74.0,0.0,150.0,1.0,0.0
3838,62.0,0.0,150.0,1.0,0.0
3839,76.0,0.0,810.0,1.0,0.0
3840,88.0,10.0,810.0,1.0,0.0
3841,54.0,0.0,300.0,5.0,0.0
3842,42.0,5.0,300.0,5.0,0.0
3843,82.0,160.0,150.0,3.0,0.0
3844,58.0,160.0,150.0,5.0,0.0
3845,78.0,0.0,15.0,3.0,0.0
3846,46.0,0.0,150.0,5.0,0.0
3847,82.0,0.0,15.0,3.0,0.0
3848,78.0,0.0,15.0,3.0,0.0
3849,49.0,143.0,330.0,5.0,0.0
3850,61.0,7.0,330.0,5.0,0.0
3851,82.0,0.0,150.0,3.0,0.0
3852,78.0,0.0,150.0,3.0,0.0
3853,62.0,0.0,150.0,5.0,0.0
3854,50.0,315.0,150.0,5.0,0.0
3855,74.0,0.0,150.0,1.0,0.0
3856,86.0,0.0,150.0,1.0,0.0
3857,42.0,5.0,300.0,5.0,0.0
3858,54.0,0.0,300.0,5.0,0.0
3859,85.0,0.0,330.0,1.0,0.0
3860,73.0,155.0,330.0,1.0,0.0
3861,78.0,5.0,150.0,3.0,0.0
3862,82.0,0.0,150.0,3.0,0.0
3863,58.0,0.0,150.0,5.0,0.0
3864,86.0,320.0,150.0,1.0,0.0
3865,74.0,0.0,150.0,1.0,0.0
3866,46.0,0.0,150.0,5.0,0.0
3867,76.0,0.0,330.0,1.0,0.0
3868,49.0,125.0,330.0,5.0,0.0
3869,88.0,8.0,330.0,1.0,0.0
3870,61.0,7.0,330.0,5.0,0.0
3871,82.0,0.0,150.0,3.0,0.0
3872,78.0,2.0,150.0,3.0,0.0
3873,50.0,307.0,150.0,5.0,0.0
3874,62.0,0.0,150.0,5.0,0.0
3875,86.0,0.0,150.0,1.0,0.0
3876,74.0,18.0,150.0,1.0,0.0
3877,73.0,7.0,330.0,1.0,0.0
3878,85.0,8.0,330.0,1.0,0.0
3879,54.0,13.0,300.0,5.0,0.0
3880,42.0,143.0,330.0,5.0,0.0
3881,78.0,2.0,150.0,3.0,0.0
3882,82.0,0.0,150.0,3.0,0.0
3883,74.0,0.0,150.0,1.0,0.0
3884,46.0,0.0,150.0,5.0,0.0
3885,58.0,160.0,150.0,5.0,0.0
3886,86.0,0.0,150.0,1.0,0.0
3887,85.0,5.0,330.0,1.0,0.0
3888,73.0,155.0,330.0,1.0,0.0
3889,54.0,5.0,150.0,5.0,0.0
3890,66.0,155.0,180.0,5.0,0.0
3891,82.0,0.0,150.0,3.0,0.0
3892,78.0,0.0,150.0,3.0,0.0
3893,86.0,0.0,150.0,1.0,0.0
3894,74.0,288.0,150.0,1.0,0.0
3895,82.0,0.0,300.0,2.0,0.0
3896,76.0,133.0,300.0,1.0,0.0
3897,88.0,0.0,300.0,1.0,0.0
3898,42.0,0.0,120.0,5.0,0.0
3899,54.0,0.0,120.0,5.0,0.0
3900,46.0,27.0,120.0,4.0,0.0
3901,54.0,0.0,120.0,5.0,0.0
3902,86.0,0.0,150.0,1.0,0.0
3903,74.0,0.0,150.0,1.0,0.0
3904,42.0,0.0,120.0,5.0,0.0
3905,82.0,160.0,150.0,2.0,0.0
3906,46.0,32.0,120.0,4.0,0.0
3907,42.0,128.0,150.0,5.0,0.0
3908,54.0,0.0,150.0,5.0,0.0
3909,85.0,15.0,300.0,1.0,0.0
3910,73.0,118.0,330.0,1.0,0.0
3911,46.0,0.0,150.0,4.0,0.0
3912,82.0,0.0,480.0,2.0,0.0
3913,44.0,0.0,120.0,5.0,0.0
3914,56.0,27.0,120.0,5.0,0.0
3915,54.0,0.0,120.0,5.0,0.0
3916,42.0,0.0,120.0,5.0,0.0
3917,86.0,160.0,150.0,1.0,0.0
3918,46.0,32.0,120.0,4.0,0.0
3919,74.0,0.0,150.0,1.0,0.0
3920,75.0,8.0,300.0,1.0,0.0
3921,87.0,133.0,300.0,1.0,0.0
3922,82.0,7.0,300.0,2.0,0.0
3923,46.0,0.0,150.0,4.0,0.0
3924,54.0,0.0,150.0,5.0,0.0
3925,42.0,128.0,150.0,5.0,0.0
3926,44.0,12.0,120.0,5.0,0.0
3927,56.0,0.0,120.0,5.0,0.0
3928,88.0,104.0,150.0,1.0,0.0
3929,76.0,0.0,150.0,1.0,0.0
3930,82.0,0.0,150.0,2.0,0.0
3931,42.0,0.0,120.0,5.0,0.0
3932,46.0,32.0,120.0,4.0,0.0
3933,54.0,0.0,120.0,5.0,0.0
3934,82.0,0.0,90.0,2.0,0.0
3935,85.0,0.0,90.0,2.0,0.0
3936,89.0,160.0,90.0,1.0,0.0
3937,41.0,0.0,90.0,5.0,0.0
3938,77.0,0.0,90.0,1.0,0.0
3939,53.0,0.0,90.0,5.0,0.0
3940,77.0,0.0,90.0,1.0,0.0
3941,89.0,0.0,90.0,1.0,0.0
3942,46.0,0.0,90.0,5.0,0.0
3943,58.0,0.0,90.0,5.0,0.0
3944,82.0,160.0,90.0,2.0,0.0
3945,85.0,0.0,90.0,2.0,0.0
3946,85.0,0.0,90.0,2.0,0.0
3947,82.0,0.0,90.0,2.0,0.0
3948,60.0,0.0,90.0,5.0,0.0
3949,89.0,0.0,90.0,1.0,0.0
3950,48.0,0.0,90.0,5.0,0.0
3951,77.0,160.0,90.0,1.0,0.0
3952,85.0,0.0,90.0,2.0,0.0
3953,82.0,0.0,90.0,2.0,0.0
3954,61.0,0.0,90.0,5.0,0.0
3955,49.0,0.0,90.0,5.0,0.0
3956,77.0,0.0,90.0,1.0,0.0
3957,89.0,160.0,90.0,1.0,0.0
3958,53.0,160.0,90.0,5.0,0.0
3959,82.0,0.0,90.0,2.0,0.0
3960,85.0,0.0,90.0,2.0,0.0
3961,89.0,0.0,90.0,1.0,0.0
3962,41.0,0.0,90.0,5.0,0.0
3963,77.0,0.0,90.0,1.0,0.0
3964,77.0,0.0,90.0,1.0,0.0
3965,58.0,0.0,90.0,5.0,0.0
3966,46.0,0.0,90.0,5.0,0.0
3967,85.0,0.0,90.0,2.0,0.0
3968,82.0,0.0,90.0,2.0,0.0
3969,89.0,160.0,90.0,1.0,0.0
3970,89.0,0.0,90.0,1.0,0.0
3971,77.0,0.0,90.0,1.0,0.0
3972,82.0,160.0,90.0,2.0,0.0
3973,60.0,0.0,90.0,5.0,0.0
3974,48.0,0.0,90.0,5.0,0.0
3975,85.0,0.0,90.0,2.0,0.0
3976,61.0,0.0,90.0,5.0,0.0
3977,89.0,0.0,90.0,1.0,0.0
3978,77.0,0.0,90.0,1.0,0.0
3979,49.0,160.0,90.0,5.0,0.0
3980,82.0,0.0,90.0,2.0,0.0
3981,85.0,0.0,90.0,2.0,0.0
3982,82.0,0.0,90.0,2.0,0.0
3983,85.0,0.0,90.0,2.0,0.0
3984,77.0,160.0,90.0,1.0,0.0
3985,89.0,0.0,90.0,1.0,0.0
3986,41.0,0.0,90.0,5.0,0.0
3987,53.0,0.0,90.0,5.0,0.0
3988,82.0,0.0,90.0,2.0,0.0
3989,46.0,0.0,90.0,5.0,0.0
3990,58.0,0.0,90.0,5.0,0.0
3991,85.0,0.0,90.0,2.0,0.0
3992,89.0,0.0,90.0,1.0,0.0
3993,77.0,160.0,90.0,1.0,0.0
3994,77.0,160.0,90.0,1.0,0.0
3995,89.0,0.0,90.0,1.0,0.0
3996,48.0,0.0,90.0,5.0,0.0
3997,60.0,0.0,90.0,5.0,0.0
3998,82.0,0.0,90.0,2.0,0.0
3999,85.0,0.0,90.0,2.0,0.0
4000,49.0,0.0,90.0,5.0,0.0
4001,61.0,0.0,90.0,5.0,0.0
4002,82.0,0.0,90.0,2.0,0.0
4003,85.0,0.0,90.0,2.0,0.0
4004,89.0,0.0,90.0,1.0,0.0
4005,77.0,296.0,90.0,1.0,0.0
4006,53.0,0.0,240.0,5.0,0.0
4007,82.0,0.0,240.0,2.0,0.0
4008,65.0,344.0,240.0,5.0,0.0
4009,85.0,0.0,240.0,2.0,0.0
4010,89.0,0.0,240.0,1.0,0.0
4011,77.0,0.0,240.0,1.0,0.0
4012,46.0,0.0,90.0,5.0,0.0
4013,58.0,0.0,90.0,5.0,0.0
4014,70.0,160.0,90.0,1.0,0.0
4015,82.0,0.0,90.0,1.0,0.0
4016,60.0,160.0,90.0,5.0,0.0
4017,48.0,0.0,90.0,5.0,0.0
4018,84.0,0.0,90.0,1.0,0.0
4019,72.0,0.0,90.0,1.0,0.0
4020,49.0,0.0,90.0,5.0,0.0
4021,61.0,0.0,90.0,5.0,0.0
4022,73.0,296.0,90.0,1.0,0.0
4023,85.0,0.0,90.0,1.0,0.0
4024,66.0,0.0,240.0,5.0,0.0
4025,54.0,344.0,240.0,5.0,0.0
4026,90.0,0.0,240.0,1.0,0.0
4027,78.0,0.0,240.0,1.0,0.0
4028,82.0,0.0,90.0,1.0,0.0
4029,70.0,160.0,90.0,1.0,0.0
4030,46.0,0.0,90.0,5.0,0.0
4031,58.0,0.0,90.0,5.0,0.0
4032,48.0,0.0,90.0,5.0,0.0
4033,84.0,160.0,90.0,1.0,0.0
4034,72.0,0.0,90.0,1.0,0.0
4035,60.0,0.0,90.0,5.0,0.0
4036,49.0,0.0,90.0,5.0,0.0
4037,73.0,296.0,90.0,1.0,0.0
4038,85.0,0.0,90.0,1.0,0.0
4039,61.0,0.0,90.0,5.0,0.0
4040,79.0,344.0,240.0,1.0,0.0
4041,55.0,0.0,240.0,5.0,0.0
4042,67.0,0.0,240.0,5.0,0.0
4043,91.0,0.0,240.0,1.0,0.0
4044,80.0,0.0,90.0,1.0,0.0
4045,89.0,0.0,90.0,2.0,0.0
4046,56.0,160.0,90.0,5.0,0.0
4047,44.0,0.0,90.0,5.0,0.0
4048,92.0,0.0,90.0,1.0,0.0
4049,85.0,0.0,90.0,2.0,0.0
4050,89.0,0.0,90.0,2.0,0.0
4051,85.0,160.0,90.0,2.0,0.0
4052,80.0,0.0,90.0,1.0,0.0
4053,92.0,0.0,90.0,1.0,0.0
4054,61.0,0.0,90.0,5.0,0.0
4055,49.0,0.0,90.0,5.0,0.0
4056,85.0,160.0,90.0,2.0,0.0
4057,51.0,0.0,90.0,5.0,0.0
4058,63.0,0.0,90.0,5.0,0.0
4059,89.0,0.0,90.0,2.0,0.0
4060,80.0,0.0,90.0,1.0,0.0
4061,92.0,0.0,90.0,1.0,0.0
4062,65.0,0.0,90.0,5.0,0.0
4063,53.0,0.0,90.0,5.0,0.0
4064,92.0,160.0,90.0,1.0,0.0
4065,80.0,0.0,90.0,1.0,0.0
4066,85.0,0.0,90.0,2.0,0.0
4067,89.0,0.0,90.0,2.0,0.0
4068,85.0,0.0,90.0,2.0,0.0
4069,92.0,0.0,90.0,1.0,0.0
4070,80.0,0.0,90.0,1.0,0.0
4071,56.0,0.0,90.0,5.0,0.0
4072,89.0,160.0,90.0,2.0,0.0
4073,44.0,0.0,90.0,5.0,0.0
4074,61.0,0.0,90.0,5.0,0.0
4075,49.0,0.0,90.0,5.0,0.0
4076,80.0,0.0,90.0,1.0,0.0
4077,92.0,0.0,90.0,1.0,0.0
4078,89.0,0.0,90.0,2.0,0.0
4079,85.0,160.0,90.0,2.0,0.0
4080,63.0,0.0,90.0,5.0,0.0
4081,51.0,0.0,90.0,5.0,0.0
4082,92.0,0.0,90.0,1.0,0.0
4083,89.0,0.0,90.0,2.0,0.0
4084,85.0,0.0,90.0,2.0,0.0
4085,80.0,160.0,90.0,1.0,0.0
4086,53.0,0.0,90.0,5.0,0.0
4087,85.0,160.0,90.0,2.0,0.0
4088,65.0,0.0,90.0,5.0,0.0
4089,80.0,0.0,90.0,1.0,0.0
4090,92.0,0.0,90.0,1.0,0.0
4091,89.0,0.0,90.0,2.0,0.0
4092,92.0,0.0,90.0,1.0,0.0
4093,80.0,0.0,90.0,1.0,0.0
4094,85.0,0.0,90.0,2.0,0.0
4095,89.0,160.0,90.0,2.0,0.0
4096,56.0,0.0,90.0,5.0,0.0
4097,44.0,0.0,90.0,5.0,0.0
4098,61.0,0.0,90.0,5.0,0.0
4099,49.0,0.0,90.0,5.0,0.0
4100,80.0,0.0,90.0,1.0,0.0
4101,92.0,160.0,90.0,1.0,0.0
4102,85.0,0.0,90.0,2.0,0.0
4103,89.0,0.0,90.0,2.0,0.0
4104,51.0,0.0,90.0,5.0,0.0
4105,63.0,0.0,90.0,5.0,0.0
4106,92.0,160.0,90.0,1.0,0.0
4107,89.0,0.0,90.0,2.0,0.0
4108,85.0,0.0,90.0,2.0,0.0
4109,80.0,0.0,90.0,1.0,0.0
4110,53.0,0.0,90.0,5.0,0.0
4111,92.0,0.0,90.0,1.0,0.0
4112,80.0,0.0,90.0,1.0,0.0
4113,85.0,0.0,90.0,2.0,0.0
4114,89.0,0.0,90.0,2.0,0.0
4115,65.0,216.0,90.0,5.0,0.0
4116,68.0,80.0,150.0,5.0,0.0
4117,89.0,0.0,240.0,2.0,0.0
4118,85.0,0.0,240.0,2.0,0.0
4119,56.0,0.0,150.0,5.0,0.0
4120,92.0,344.0,240.0,1.0,0.0
4121,80.0,0.0,240.0,1.0,0.0
4122,61.0,0.0,90.0,5.0,0.0
4123,49.0,160.0,90.0,5.0,0.0
4124,73.0,0.0,90.0,1.0,0.0
4125,85.0,0.0,90.0,1.0,0.0
4126,75.0,0.0,90.0,1.0,0.0
4127,87.0,0.0,90.0,1.0,0.0
4128,63.0,160.0,90.0,5.0,0.0
4129,51.0,0.0,90.0,5.0,0.0
4130,77.0,216.0,90.0,1.0,0.0
4131,65.0,0.0,90.0,5.0,0.0
4132,89.0,0.0,90.0,1.0,0.0
4133,53.0,0.0,90.0,5.0,0.0
4134,70.0,0.0,150.0,5.0,0.0
4135,58.0,80.0,150.0,5.0,0.0
4136,94.0,224.0,360.0,1.0,0.0
4137,82.0,120.0,240.0,1.0,0.0
4138,49.0,0.0,90.0,5.0,0.0
4139,61.0,0.0,90.0,5.0,0.0
4140,85.0,160.0,90.0,1.0,0.0
4141,73.0,0.0,90.0,1.0,0.0
4142,75.0,160.0,90.0,1.0,0.0
4143,87.0,0.0,90.0,1.0,0.0
4144,51.0,0.0,90.0,5.0,0.0
4145,63.0,0.0,90.0,5.0,0.0
4146,77.0,0.0,90.0,1.0,0.0
4147,89.0,0.0,90.0,1.0,0.0
4148,53.0,0.0,90.0,5.0,0.0
4149,65.0,296.0,90.0,5.0,0.0
4150,95.0,0.0,240.0,1.0,0.0
4151,83.0,0.0,240.0,1.0,0.0
4152,71.0,0.0,240.0,5.0,0.0
4153,59.0,400.0,240.0,5.0,0.0
4154,96.0,0.0,150.0,1.0,0.0
4155,36.0,160.0,480.0,5.0,0.0
4156,48.0,0.0,480.0,5.0,0.0
4157,89.0,0.0,150.0,2.0,0.0
4158,93.0,160.0,150.0,2.0,0.0
4159,53.0,0.0,150.0,5.0,0.0
4160,84.0,160.0,150.0,2.0,0.0
4161,55.0,0.0,150.0,5.0,0.0
4162,96.0,0.0,15.0,1.0,0.0
4163,93.0,0.0,15.0,2.0,0.0
4164,89.0,0.0,15.0,2.0,0.0
4165,57.0,0.0,150.0,5.0,0.0
4166,84.0,160.0,150.0,2.0,0.0
4167,48.0,0.0,150.0,5.0,0.0
4168,53.0,160.0,150.0,5.0,0.0
4169,93.0,0.0,150.0,2.0,0.0
4170,96.0,0.0,15.0,1.0,0.0
4171,92.0,0.0,150.0,2.0,0.0
4172,89.0,0.0,15.0,2.0,0.0
4173,55.0,0.0,150.0,5.0,0.0
4174,84.0,0.0,150.0,2.0,0.0
4175,56.0,160.0,150.0,5.0,0.0
4176,48.0,0.0,150.0,5.0,0.0
4177,89.0,0.0,150.0,2.0,0.0
4178,92.0,0.0,150.0,2.0,0.0
4179,96.0,160.0,15.0,1.0,0.0
4180,37.0,0.0,330.0,5.0,0.0
4181,49.0,158.0,330.0,5.0,0.0
4182,89.0,0.0,150.0,2.0,0.0
4183,92.0,160.0,150.0,2.0,0.0
4184,53.0,0.0,150.0,5.0,0.0
4185,83.0,2.0,150.0,2.0,0.0
4186,92.0,0.0,150.0,2.0,0.0
4187,55.0,0.0,150.0,5.0,0.0
4188,89.0,0.0,150.0,2.0,0.0
4189,96.0,160.0,150.0,1.0,0.0
4190,89.0,0.0,150.0,2.0,0.0
4191,56.0,0.0,150.0,5.0,0.0
4192,92.0,0.0,150.0,2.0,0.0
4193,96.0,160.0,150.0,1.0,0.0
4194,49.0,0.0,150.0,5.0,0.0
4195,83.0,160.0,150.0,2.0,0.0
4196,92.0,0.0,150.0,2.0,0.0
4197,53.0,0.0,150.0,5.0,0.0
4198,96.0,0.0,15.0,1.0,0.0
4199,89.0,160.0,15.0,2.0,0.0
4200,92.0,0.0,150.0,2.0,0.0
4201,55.0,0.0,150.0,5.0,0.0
4202,56.0,160.0,150.0,5.0,0.0
4203,83.0,0.0,150.0,2.0,0.0
4204,89.0,0.0,150.0,2.0,0.0
4205,96.0,160.0,150.0,1.0,0.0
4206,50.0,0.0,150.0,5.0,0.0
4207,92.0,0.0,150.0,2.0,0.0
4208,94.0,0.0,150.0,1.0,0.0
4209,51.0,0.0,330.0,5.0,0.0
4210,39.0,158.0,330.0,5.0,0.0
4211,91.0,160.0,150.0,2.0,0.0
4212,82.0,2.0,150.0,2.0,0.0
4213,55.0,0.0,150.0,5.0,0.0
4214,56.0,160.0,150.0,5.0,0.0
4215,94.0,0.0,150.0,1.0,0.0
4216,58.0,0.0,150.0,5.0,0.0
4217,94.0,0.0,150.0,1.0,0.0
4218,91.0,0.0,15.0,2.0,0.0
4219,51.0,160.0,150.0,5.0,0.0
4220,82.0,0.0,150.0,2.0,0.0
4221,91.0,0.0,150.0,2.0,0.0
4222,55.0,0.0,150.0,5.0,0.0
4223,94.0,160.0,15.0,1.0,0.0
4224,56.0,0.0,150.0,5.0,0.0
4225,90.0,0.0,150.0,2.0,0.0
4226,58.0,0.0,150.0,5.0,0.0
4227,82.0,160.0,150.0,2.0,0.0
4228,90.0,0.0,150.0,2.0,0.0
4229,40.0,160.0,150.0,5.0,0.0
4230,82.0,0.0,150.0,2.0,0.0
4231,53.0,288.0,150.0,5.0,0.0
4232,85.0,0.0,150.0,2.0,0.0
4233,89.0,0.0,150.0,2.0,0.0
4234,94.0,0.0,15.0,1.0,0.0
4235,41.0,0.0,150.0,5.0,0.0
4236,73.0,0.0,120.0,1.0,0.0
4237,61.0,192.0,120.0,5.0,0.0
4238,88.0,128.0,150.0,1.0,0.0
4239,64.0,0.0,150.0,5.0,0.0
4240,89.0,160.0,120.0,1.0,0.0
4241,65.0,0.0,120.0,5.0,0.0
4242,58.0,0.0,120.0,5.0,0.0
4243,70.0,192.0,120.0,1.0,0.0
4244,60.0,0.0,150.0,5.0,0.0
4245,84.0,128.0,150.0,1.0,0.0
4246,61.0,0.0,120.0,5.0,0.0
4247,85.0,160.0,120.0,1.0,0.0
4248,65.0,0.0,120.0,1.0,0.0
4249,53.0,192.0,120.0,5.0,0.0
4250,81.0,128.0,150.0,1.0,0.0
4251,57.0,0.0,150.0,5.0,0.0
4252,82.0,0.0,120.0,1.0,0.0
4253,58.0,160.0,120.0,5.0,0.0
4254,61.0,192.0,120.0,1.0,0.0
4255,49.0,0.0,120.0,5.0,0.0
4256,76.0,128.0,150.0,1.0,0.0
4257,52.0,0.0,150.0,5.0,0.0
4258,53.0,160.0,120.0,5.0,0.0
4259,77.0,0.0,120.0,1.0,0.0
4260,58.0,0.0,120.0,1.0,0.0
4261,46.0,192.0,120.0,5.0,0.0
4262,72.0,0.0,150.0,1.0,0.0
4263,48.0,128.0,150.0,5.0,0.0
4264,73.0,0.0,120.0,1.0,0.0
4265,49.0,160.0,120.0,5.0,0.0
4266,64.0,0.0,120.0,1.0,0.0
4267,40.0,224.0,120.0,5.0,0.0
4268,53.0,720.0,180.0,5.0,0.0
4269,41.0,0.0,180.0,5.0,0.0
4270,65.0,0.0,180.0,1.0,0.0
4271,41.0,0.0,180.0,5.0,0.0
4272,48.0,0.0,180.0,4.0,0.0
4273,93.0,624.0,180.0,1.0,0.0
4274,81.0,0.0,180.0,1.0,0.0
4275,53.0,0.0,180.0,5.0,0.0
4276,87.0,0.0,180.0,2.0,0.0
4277,54.0,0.0,180.0,5.0,0.0
4278,94.0,255.0,180.0,1.0,0.0
4279,85.0,97.0,90.0,2.0,0.0
4280,46.0,0.0,180.0,4.0,0.0
4281,42.0,0.0,180.0,5.0,0.0
4282,82.0,0.0,180.0,1.0,0.0
4283,73.0,192.0,120.0,1.0,0.0
4284,61.0,0.0,120.0,5.0,0.0
4285,65.0,128.0,150.0,5.0,0.0
4286,89.0,0.0,150.0,1.0,0.0
4287,66.0,0.0,120.0,5.0,0.0
4288,90.0,160.0,120.0,1.0,0.0
4289,70.0,192.0,120.0,1.0,0.0
4290,58.0,0.0,120.0,5.0,0.0
4291,60.0,0.0,150.0,5.0,0.0
4292,84.0,128.0,150.0,1.0,0.0
4293,61.0,160.0,120.0,5.0,0.0
4294,85.0,0.0,120.0,1.0,0.0
4295,54.0,192.0,120.0,5.0,0.0
4296,66.0,0.0,120.0,1.0,0.0
4297,81.0,0.0,150.0,1.0,0.0
4298,57.0,128.0,150.0,5.0,0.0
4299,58.0,0.0,120.0,5.0,0.0
4300,82.0,160.0,120.0,1.0,0.0
4301,61.0,0.0,120.0,1.0,0.0
4302,49.0,192.0,120.0,5.0,0.0
4303,53.0,0.0,150.0,5.0,0.0
4304,77.0,128.0,150.0,1.0,0.0
4305,78.0,0.0,120.0,1.0,0.0
4306,54.0,160.0,120.0,5.0,0.0
4307,58.0,0.0,120.0,1.0,0.0
4308,46.0,192.0,120.0,5.0,0.0
4309,72.0,0.0,150.0,1.0,0.0
4310,48.0,128.0,150.0,5.0,0.0
4311,73.0,0.0,120.0,1.0,0.0
4312,49.0,160.0,120.0,5.0,0.0
4313,65.0,224.0,120.0,1.0,0.0
4314,41.0,0.0,120.0,5.0,0.0
4315,66.0,720.0,180.0,1.0,0.0
4316,42.0,0.0,180.0,5.0,0.0
4317,54.0,0.0,180.0,5.0,0.0
4318,48.0,0.0,180.0,4.0,0.0
4319,89.0,0.0,180.0,2.0,0.0
4320,93.0,708.0,180.0,1.0,0.0
4321,81.0,0.0,180.0,1.0,0.0
4322,87.0,0.0,180.0,2.0,0.0
4323,53.0,0.0,180.0,5.0,0.0
4324,41.0,0.0,180.0,5.0,0.0
4325,94.0,0.0,180.0,1.0,0.0
4326,82.0,0.0,180.0,1.0,0.0
4327,51.0,0.0,180.0,5.0,0.0
4328,87.0,0.0,180.0,2.0,0.0
4329,39.0,12.0,180.0,5.0,0.0
4330,90.0,255.0,180.0,2.0,0.0
4331,42.0,0.0,180.0,4.0,0.0
4332,75.0,0.0,120.0,1.0,0.0
4333,63.0,193.0,120.0,5.0,0.0
4334,89.0,0.0,150.0,1.0,0.0
4335,65.0,128.0,150.0,5.0,0.0
4336,90.0,0.0,120.0,1.0,0.0
4337,66.0,160.0,120.0,5.0,0.0
4338,58.0,0.0,120.0,5.0,0.0
4339,70.0,192.0,120.0,1.0,0.0
4340,62.0,128.0,150.0,5.0,0.0
4341,86.0,0.0,150.0,1.0,0.0
4342,63.0,0.0,120.0,5.0,0.0
4343,87.0,160.0,120.0,1.0,0.0
4344,54.0,0.0,120.0,5.0,0.0
4345,66.0,192.0,120.0,1.0,0.0
4346,81.0,128.0,150.0,1.0,0.0
4347,57.0,0.0,150.0,5.0,0.0
4348,58.0,160.0,120.0,5.0,0.0
4349,82.0,0.0,120.0,1.0,0.0
4350,63.0,192.0,120.0,1.0,0.0
4351,51.0,0.0,120.0,5.0,0.0
4352,77.0,0.0,150.0,1.0,0.0
4353,53.0,128.0,150.0,5.0,0.0
4354,54.0,0.0,120.0,5.0,0.0
4355,78.0,160.0,120.0,1.0,0.0
4356,58.0,192.0,120.0,1.0,0.0
4357,46.0,0.0,120.0,5.0,0.0
4358,74.0,0.0,150.0,1.0,0.0
4359,50.0,128.0,150.0,5.0,0.0
4360,75.0,0.0,120.0,1.0,0.0
4361,51.0,160.0,120.0,5.0,0.0
4362,63.0,0.0,120.0,1.0,0.0
4363,39.0,224.0,120.0,5.0,0.0
4364,64.0,0.0,180.0,1.0,0.0
4365,52.0,720.0,180.0,5.0,0.0
4366,40.0,0.0,180.0,5.0,0.0
4367,81.0,0.0,180.0,1.0,0.0
4368,89.0,0.0,180.0,2.0,0.0
4369,87.0,632.0,180.0,2.0,0.0
4370,93.0,0.0,180.0,1.0,0.0
4371,41.0,0.0,180.0,5.0,0.0
4372,53.0,0.0,180.0,5.0,0.0
4373,45.0,0.0,180.0,4.0,0.0
4374,48.0,0.0,180.0,4.0,0.0
4375,82.0,0.0,90.0,1.0,0.0
4376,90.0,160.0,90.0,2.0,0.0
4377,46.0,0.0,90.0,5.0,0.0
4378,34.0,0.0,90.0,5.0,0.0
4379,94.0,0.0,90.0,1.0,0.0
4380,85.0,0.0,90.0,2.0,0.0
4381,49.0,160.0,90.0,5.0,0.0
4382,94.0,0.0,90.0,1.0,0.0
4383,85.0,0.0,90.0,2.0,0.0
4384,37.0,0.0,90.0,5.0,0.0
4385,82.0,0.0,90.0,1.0,0.0
4386,90.0,0.0,90.0,2.0,0.0
4387,85.0,0.0,90.0,2.0,0.0
4388,90.0,843.0,90.0,2.0,0.0
4389,82.0,0.0,90.0,1.0,0.0
4390,39.0,0.0,90.0,5.0,0.0
4391,51.0,0.0,90.0,5.0,0.0
4392,94.0,0.0,90.0,1.0,0.0
4393,85.0,0.0,810.0,2.0,0.0
4394,90.0,15.0,780.0,2.0,0.0
4395,40.0,8.0,810.0,5.0,0.0
4396,52.0,0.0,810.0,5.0,0.0
4397,82.0,94.0,810.0,1.0,0.0
4398,94.0,0.0,810.0,1.0,0.0
4399,84.0,0.0,90.0,2.0,0.0
4400,81.0,0.0,90.0,1.0,0.0
4401,89.0,0.0,90.0,2.0,0.0
4402,41.0,160.0,90.0,5.0,0.0
4403,53.0,0.0,90.0,5.0,0.0
4404,93.0,0.0,90.0,1.0,0.0
4405,94.0,0.0,90.0,1.0,0.0
4406,82.0,0.0,90.0,1.0,0.0
4407,46.0,160.0,90.0,5.0,0.0
4408,85.0,0.0,90.0,2.0,0.0
4409,90.0,0.0,90.0,2.0,0.0
4410,34.0,0.0,90.0,5.0,0.0
4411,82.0,160.0,90.0,1.0,0.0
4412,90.0,0.0,90.0,2.0,0.0
4413,85.0,0.0,90.0,2.0,0.0
4414,94.0,0.0,90.0,1.0,0.0
4415,37.0,0.0,90.0,5.0,0.0
4416,49.0,0.0,90.0,5.0,0.0
4417,39.0,0.0,90.0,5.0,0.0
4418,51.0,0.0,90.0,5.0,0.0
4419,85.0,0.0,90.0,2.0,0.0
4420,90.0,0.0,90.0,2.0,0.0
4421,82.0,843.0,90.0,1.0,0.0
4422,94.0,0.0,90.0,1.0,0.0
4423,94.0,0.0,810.0,1.0,0.0
4424,82.0,94.0,810.0,1.0,0.0
4425,52.0,8.0,810.0,5.0,0.0
4426,40.0,0.0,810.0,5.0,0.0
4427,90.0,15.0,780.0,2.0,0.0
4428,85.0,0.0,810.0,2.0,0.0
4429,89.0,0.0,90.0,2.0,0.0
4430,81.0,0.0,90.0,1.0,0.0
4431,41.0,160.0,90.0,5.0,0.0
4432,53.0,0.0,90.0,5.0,0.0
4433,84.0,0.0,90.0,2.0,0.0
4434,93.0,0.0,90.0,1.0,0.0
4435,85.0,0.0,90.0,2.0,0.0
4436,94.0,160.0,90.0,1.0,0.0
4437,34.0,0.0,90.0,5.0,0.0
4438,46.0,0.0,90.0,5.0,0.0
4439,89.0,0.0,90.0,2.0,0.0
4440,82.0,0.0,90.0,1.0,0.0
4441,89.0,0.0,90.0,1.0,0.0
4442,97.0,0.0,90.0,1.0,0.0
4443,77.0,0.0,90.0,5.0,0.0
4444,85.0,160.0,90.0,5.0,0.0
4445,97.0,0.0,90.0,1.0,0.0
4446,85.0,0.0,90.0,5.0,0.0
4447,77.0,160.0,90.0,5.0,0.0
4448,89.0,0.0,90.0,1.0,0.0
4449,89.0,0.0,90.0,1.0,0.0
4450,97.0,0.0,90.0,1.0,0.0
4451,77.0,160.0,90.0,5.0,0.0
4452,85.0,0.0,90.0,5.0,0.0
4453,94.0,0.0,90.0,1.0,0.0
4454,85.0,160.0,90.0,1.0,0.0
4455,82.0,0.0,90.0,5.0,0.0
4456,73.0,0.0,90.0,5.0,0.0
4457,82.0,0.0,90.0,5.0,0.0
4458,73.0,0.0,90.0,5.0,0.0
4459,85.0,160.0,90.0,1.0,0.0
4460,94.0,0.0,90.0,1.0,0.0
4461,73.0,160.0,90.0,5.0,0.0
4462,82.0,0.0,90.0,5.0,0.0
4463,94.0,0.0,90.0,1.0,0.0
4464,85.0,0.0,90.0,1.0,0.0
4465,77.0,0.0,90.0,5.0,0.0
4466,85.0,0.0,90.0,1.0,0.0
4467,89.0,0.0,90.0,1.0,0.0
4468,73.0,160.0,90.0,5.0,0.0
4469,73.0,0.0,90.0,5.0,0.0
4470,77.0,0.0,90.0,5.0,0.0
4471,85.0,160.0,90.0,1.0,0.0
4472,89.0,0.0,90.0,1.0,0.0
4473,73.0,0.0,90.0,5.0,0.0
4474,77.0,160.0,90.0,5.0,0.0
4475,89.0,0.0,90.0,1.0,0.0
4476,85.0,0.0,90.0,1.0,0.0
4477,70.0,160.0,90.0,5.0,0.0
4478,82.0,0.0,90.0,1.0,0.0
4479,85.0,0.0,90.0,1.0,0.0
4480,73.0,0.0,90.0,5.0,0.0
4481,82.0,0.0,90.0,1.0,0.0
4482,77.0,0.0,90.0,1.0,0.0
4483,70.0,0.0,90.0,5.0,0.0
4484,65.0,160.0,90.0,5.0,0.0
4485,73.0,0.0,90.0,1.0,0.0
4486,61.0,0.0,90.0,5.0,0.0
4487,65.0,0.0,90.0,5.0,0.0
4488,77.0,160.0,90.0,1.0,0.0
4489,58.0,160.0,90.0,5.0,0.0
4490,70.0,0.0,90.0,1.0,0.0
4491,73.0,0.0,90.0,1.0,0.0
4492,61.0,0.0,90.0,5.0,0.0
4493,53.0,0.0,90.0,5.0,0.0
4494,65.0,0.0,90.0,1.0,0.0
4495,58.0,160.0,90.0,5.0,0.0
4496,70.0,0.0,90.0,1.0,0.0
4497,49.0,0.0,90.0,5.0,0.0
4498,65.0,0.0,90.0,1.0,0.0
4499,61.0,0.0,90.0,1.0,0.0
4500,53.0,160.0,90.0,5.0,0.0
4501,58.0,160.0,90.0,1.0,0.0
4502,61.0,0.0,90.0,1.0,0.0
4503,49.0,0.0,90.0,5.0,0.0
4504,46.0,0.0,90.0,5.0,0.0
4505,58.0,0.0,90.0,1.0,0.0
4506,41.0,1016.0,90.0,5.0,0.0
4507,53.0,0.0,90.0,1.0,0.0
4508,46.0,0.0,90.0,5.0,0.0
4509,46.0,240.0,960.0,1.0,0.0
4510,34.0,0.0,960.0,5.0,0.0
4511,58.0,0.0,240.0,5.0,0.0
4512,82.0,0.0,240.0,1.0,0.0
4513,94.0,0.0,240.0,1.0,0.0
4514,88.0,0.0,240.0,2.0,0.0
4515,67.0,480.0,240.0,4.0,0.0
4516,61.0,0.0,240.0,4.0,0.0
4517,64.0,0.0,240.0,4.0,0.0
4518,73.0,0.0,240.0,4.0,0.0
4519,85.0,0.0,240.0,2.0,0.0
4520,73.0,0.0,240.0,4.0,0.0
4521,61.0,0.0,240.0,4.0,0.0
4522,85.0,0.0,240.0,2.0,0.0
4523,89.0,0.0,240.0,2.0,0.0
4524,65.0,1488.0,240.0,4.0,0.0
4525,82.0,0.0,240.0,1.0,0.0
4526,94.0,0.0,240.0,1.0,0.0
4527,58.0,0.0,240.0,5.0,0.0
4528,49.0,1440.0,300.0,2.0,0.0
4529,55.0,0.0,300.0,2.0,0.0
4530,58.0,0.0,300.0,1.0,0.0
4531,43.0,0.0,300.0,4.0,0.0
4532,40.0,0.0,300.0,4.0,0.0
4533,46.0,0.0,300.0,5.0,0.0
4534,34.0,0.0,300.0,5.0,0.0
4535,52.0,0.0,300.0,2.0,0.0
4536,46.0,0.0,300.0,5.0,0.0
4537,34.0,0.0,300.0,5.0,0.0
4538,41.0,0.0,300.0,4.0,0.0
4539,53.0,0.0,300.0,2.0,0.0
4540,49.0,0.0,300.0,2.0,0.0
4541,58.0,3452.0,300.0,1.0,0.0
4542,63.0,480.0,390.0,5.0,0.0
4543,65.0,480.0,390.0,5.0,0.0
4544,66.0,960.0,390.0,5.0,0.0
4545,62.0,470.0,2310.0,5.0,0.0
4546,65.0,480.0,390.0,5.0,0.0
4547,80.0,0.0,390.0,2.0,0.0
4548,83.0,0.0,390.0,1.0,0.0
4549,82.0,0.0,390.0,1.0,0.0
4550,66.0,0.0,390.0,5.0,0.0
4551,78.0,480.0,390.0,2.0,0.0
4552,77.0,0.0,390.0,2.0,0.0
4553,68.0,0.0,390.0,5.0,0.0
4554,80.0,480.0,390.0,1.0,0.0
4555,74.0,0.0,390.0,2.0,0.0
4556,71.0,0.0,390.0,5.0,0.0
4557,77.0,10.0,390.0,1.0,0.0
4558,65.0,480.0,390.0,5.0,0.0
4559,66.0,480.0,390.0,5.0,0.0
4560,68.0,960.0,390.0,5.0,0.0
4561,63.0,470.0,2310.0,5.0,0.0
4562,83.0,480.0,390.0,2.0,0.0
4563,68.0,0.0,390.0,5.0,0.0
4564,87.0,0.0,390.0,1.0,0.0
4565,85.0,0.0,390.0,1.0,0.0
4566,82.0,0.0,390.0,2.0,0.0
4567,70.0,480.0,390.0,5.0,0.0
4568,71.0,480.0,390.0,5.0,0.0
4569,80.0,0.0,390.0,2.0,0.0
4570,83.0,0.0,390.0,1.0,0.0
4571,80.0,0.0,390.0,1.0,0.0
4572,71.0,10.0,390.0,2.0,0.0
4573,75.0,0.0,390.0,5.0,0.0
4574,64.0,480.0,390.0,5.0,0.0
4575,59.0,480.0,390.0,5.0,0.0
4576,76.0,0.0,390.0,2.0,0.0
4577,80.0,480.0,390.0,1.0,0.0
4578,68.0,480.0,390.0,2.0,0.0
4579,71.0,0.0,390.0,1.0,0.0
4580,63.0,480.0,390.0,5.0,0.0
4581,59.0,480.0,390.0,5.0,0.0
4582,80.0,0.0,390.0,1.0,0.0
4583,75.0,480.0,390.0,2.0,0.0
4584,68.0,480.0,390.0,2.0,0.0
4585,71.0,0.0,390.0,1.0,0.0
4586,62.0,420.0,390.0,5.0,0.0
4587,68.0,0.0,1920.0,2.0,0.0
4588,80.0,0.0,1920.0,1.0,0.0
4589,77.0,0.0,1920.0,2.0,0.0
4590,59.0,80.0,330.0,5.0,0.0
4591,58.0,80.0,90.0,5.0,0.0
4592,61.0,720.0,90.0,5.0,0.0
4593,59.0,240.0,720.0,5.0,0.0
4594,58.0,960.0,240.0,5.0,0.0
4595,58.0,10.0,1680.0,5.0,0.0
4596,51.0,610.0,1680.0,5.0,0.0
4597,70.0,0.0,480.0,1.0,0.0
4598,66.0,720.0,480.0,2.0,0.0
4599,78.0,0.0,720.0,1.0,0.0
4600,75.0,0.0,720.0,2.0,0.0
4601,66.0,480.0,390.0,5.0,0.0
4602,68.0,480.0,390.0,5.0,0.0
4603,70.0,960.0,390.0,5.0,0.0
4604,65.0,0.0,1350.0,5.0,0.0
4605,86.0,0.0,390.0,1.0,0.0
4606,83.0,480.0,390.0,2.0,0.0
4607,82.0,480.0,390.0,2.0,0.0
4608,85.0,0.0,390.0,1.0,0.0
4609,83.0,0.0,390.0,1.0,0.0
4610,68.0,0.0,390.0,5.0,0.0
4611,80.0,480.0,390.0,2.0,0.0
4612,77.0,0.0,390.0,2.0,0.0
4613,70.0,480.0,390.0,5.0,0.0
4614,80.0,0.0,390.0,1.0,0.0
4615,71.0,460.0,390.0,5.0,0.0
4616,73.0,160.0,360.0,5.0,0.0
4617,73.0,360.0,120.0,5.0,0.0
4618,74.0,940.0,390.0,5.0,0.0
4619,66.0,780.0,2310.0,5.0,0.0
4620,86.0,480.0,390.0,2.0,0.0
4621,71.0,0.0,390.0,5.0,0.0
4622,90.0,0.0,390.0,1.0,0.0
4623,88.0,0.0,390.0,1.0,0.0
4624,73.0,0.0,390.0,5.0,0.0
4625,85.0,480.0,390.0,2.0,0.0
4626,83.0,0.0,390.0,2.0,0.0
4627,74.0,0.0,390.0,5.0,0.0
4628,86.0,460.0,390.0,1.0,0.0
4629,74.0,20.0,360.0,2.0,0.0
4630,83.0,10.0,390.0,1.0,0.0
4631,78.0,0.0,390.0,5.0,0.0
4632,67.0,110.0,690.0,5.0,0.0
4633,74.0,110.0,390.0,3.0,0.0
4634,71.0,0.0,390.0,3.0,0.0
4635,79.0,0.0,390.0,3.0,0.0
4636,83.0,0.0,390.0,2.0,0.0
4637,69.0,60.0,90.0,5.0,0.0
4638,67.0,230.0,180.0,5.0,0.0
4639,74.0,0.0,390.0,3.0,0.0
4640,71.0,0.0,390.0,3.0,0.0
4641,79.0,100.0,390.0,3.0,0.0
4642,66.0,140.0,240.0,5.0,0.0
4643,83.0,0.0,390.0,2.0,0.0
4644,67.0,240.0,240.0,5.0,0.0
4645,74.0,0.0,390.0,3.0,0.0
4646,83.0,100.0,390.0,2.0,0.0
4647,71.0,140.0,240.0,5.0,0.0
4648,79.0,0.0,390.0,3.0,0.0
4649,67.0,720.0,240.0,5.0,0.0
4650,67.0,140.0,720.0,5.0,0.0
4651,83.0,0.0,390.0,2.0,0.0
4652,71.0,0.0,390.0,3.0,0.0
4653,77.0,0.0,390.0,3.0,0.0
4654,74.0,100.0,390.0,3.0,0.0
4655,66.0,380.0,240.0,5.0,0.0
4656,83.0,0.0,390.0,2.0,0.0
4657,66.0,720.0,960.0,5.0,0.0
4658,74.0,480.0,390.0,3.0,0.0
4659,77.0,0.0,390.0,3.0,0.0
4660,71.0,0.0,390.0,3.0,0.0
4661,71.0,0.0,390.0,3.0,0.0
4662,77.0,100.0,390.0,3.0,0.0
4663,74.0,0.0,390.0,3.0,0.0
4664,83.0,0.0,390.0,2.0,0.0
4665,66.0,80.0,720.0,5.0,0.0
4666,74.0,0.0,390.0,3.0,0.0
4667,84.0,0.0,390.0,2.0,0.0
4668,72.0,0.0,390.0,3.0,0.0
4669,81.0,110.0,390.0,3.0,0.0
4670,67.0,60.0,90.0,5.0,0.0
4671,66.0,230.0,180.0,5.0,0.0
4672,81.0,0.0,390.0,3.0,0.0
4673,84.0,0.0,390.0,2.0,0.0
4674,72.0,100.0,390.0,3.0,0.0
4675,74.0,0.0,390.0,3.0,0.0
4676,65.0,140.0,240.0,5.0,0.0
4677,66.0,240.0,240.0,5.0,0.0
4678,81.0,0.0,390.0,3.0,0.0
4679,72.0,0.0,390.0,3.0,0.0
4680,69.0,140.0,240.0,5.0,0.0
4681,84.0,0.0,390.0,2.0,0.0
4682,74.0,100.0,390.0,3.0,0.0
4683,66.0,720.0,15.0,5.0,0.0
4684,80.0,0.0,390.0,3.0,0.0
4685,71.0,0.0,390.0,3.0,0.0
4686,83.0,100.0,390.0,2.0,0.0
4687,65.0,380.0,240.0,5.0,0.0
4688,80.0,0.0,390.0,3.0,0.0
4689,73.0,0.0,390.0,3.0,0.0
4690,85.0,480.0,390.0,2.0,0.0
4691,65.0,450.0,1380.0,5.0,0.0
4692,74.0,0.0,390.0,3.0,0.0
4693,80.0,510.0,390.0,3.0,0.0
4694,86.0,0.0,390.0,2.0,0.0
4695,86.0,10.0,2310.0,2.0,0.0
4696,77.0,0.0,2310.0,3.0,0.0
4697,74.0,0.0,2310.0,3.0,0.0
4698,80.0,350.0,2310.0,3.0,0.0
4699,62.0,480.0,390.0,5.0,0.0
4700,61.0,480.0,390.0,5.0,0.0
4701,59.0,480.0,390.0,5.0,0.0
4702,58.0,220.0,750.0,5.0,0.0
4703,46.0,1330.0,2880.0,5.0,0.0
4704,80.0,0.0,480.0,2.0,0.0
4705,74.0,1920.0,480.0,3.0,0.0
4706,89.0,0.0,1920.0,2.0,0.0
4707,62.0,0.0,15.0,5.0,0.0
4708,77.0,0.0,1920.0,3.0,0.0
4709,80.0,0.0,1920.0,3.0,0.0
4710,83.0,10.0,1920.0,3.0,0.0
4711,51.0,0.0,390.0,5.0,0.0
4712,63.0,50.0,390.0,5.0,0.0
4713,83.0,430.0,180.0,3.0,0.0
4714,65.0,0.0,390.0,5.0,0.0
4715,53.0,50.0,390.0,5.0,0.0
4716,83.0,430.0,180.0,3.0,0.0
4717,54.0,50.0,390.0,5.0,0.0
4718,66.0,0.0,390.0,5.0,0.0
4719,83.0,480.0,180.0,3.0,0.0
4720,62.0,10.0,2280.0,5.0,0.0
4721,50.0,10.0,2280.0,5.0,0.0
4722,83.0,430.0,180.0,3.0,0.0
4723,95.0,0.0,390.0,1.0,0.0
4724,92.0,50.0,390.0,2.0,0.0
4725,65.0,0.0,390.0,5.0,0.0
4726,83.0,430.0,180.0,3.0,0.0
4727,90.0,0.0,390.0,2.0,0.0
4728,94.0,50.0,390.0,1.0,0.0
4729,66.0,0.0,390.0,5.0,0.0
4730,83.0,430.0,180.0,3.0,0.0
4731,92.0,0.0,390.0,1.0,0.0
4732,89.0,50.0,390.0,2.0,0.0
4733,68.0,0.0,390.0,5.0,0.0
4734,83.0,410.0,180.0,3.0,0.0
4735,71.0,0.0,390.0,5.0,0.0
4736,86.0,0.0,390.0,2.0,0.0
4737,89.0,50.0,390.0,1.0,0.0
4738,83.0,430.0,180.0,3.0,0.0
4739,65.0,0.0,390.0,5.0,0.0
4740,53.0,50.0,390.0,5.0,0.0
4741,83.0,430.0,180.0,3.0,0.0
4742,54.0,50.0,390.0,5.0,0.0
4743,66.0,0.0,390.0,5.0,0.0
4744,83.0,430.0,180.0,3.0,0.0
4745,68.0,0.0,390.0,5.0,0.0
4746,56.0,50.0,390.0,5.0,0.0
4747,83.0,430.0,180.0,3.0,0.0
4748,63.0,0.0,390.0,5.0,0.0
4749,51.0,50.0,390.0,5.0,0.0
4750,83.0,430.0,180.0,3.0,0.0
4751,95.0,50.0,390.0,2.0,0.0
4752,63.0,40.0,1830.0,5.0,0.0
4753,99.0,0.0,390.0,1.0,0.0
4754,68.0,0.0,390.0,5.0,0.0
4755,83.0,430.0,180.0,3.0,0.0
4756,70.0,0.0,390.0,5.0,0.0
4757,94.0,50.0,390.0,2.0,0.0
4758,97.0,0.0,390.0,1.0,0.0
4759,83.0,430.0,180.0,3.0,0.0
4760,92.0,50.0,390.0,2.0,0.0
4761,71.0,0.0,390.0,5.0,0.0
4762,95.0,0.0,390.0,1.0,0.0
4763,83.0,430.0,180.0,3.0,0.0
4764,87.0,0.0,390.0,2.0,0.0
4765,75.0,10.0,390.0,5.0,0.0
4766,92.0,0.0,390.0,1.0,0.0
4767,83.0,430.0,180.0,3.0,0.0
4768,64.0,50.0,390.0,5.0,0.0
4769,56.0,0.0,390.0,4.0,0.0
4770,83.0,430.0,180.0,3.0,0.0
4771,54.0,0.0,390.0,4.0,0.0
4772,51.0,0.0,390.0,4.0,0.0
4773,59.0,50.0,390.0,5.0,0.0
4774,83.0,430.0,180.0,3.0,0.0
4775,92.0,0.0,390.0,1.0,0.0
4776,76.0,50.0,390.0,2.0,0.0
4777,80.0,0.0,390.0,2.0,0.0
4778,88.0,0.0,390.0,2.0,0.0
4779,83.0,430.0,180.0,3.0,0.0
4780,90.0,50.0,390.0,1.0,0.0
4781,78.0,0.0,390.0,2.0,0.0
4782,87.0,0.0,390.0,2.0,0.0
4783,71.0,0.0,390.0,2.0,0.0
4784,83.0,430.0,180.0,3.0,0.0
4785,63.0,50.0,390.0,5.0,0.0
4786,56.0,0.0,390.0,4.0,0.0
4787,59.0,0.0,390.0,4.0,0.0
4788,83.0,430.0,180.0,3.0,0.0
4789,54.0,50.0,390.0,4.0,0.0
4790,51.0,0.0,390.0,4.0,0.0
4791,59.0,0.0,390.0,5.0,0.0
4792,83.0,430.0,180.0,3.0,0.0
4793,80.0,0.0,390.0,2.0,0.0
4794,87.0,0.0,390.0,2.0,0.0
4795,92.0,50.0,390.0,1.0,0.0
4796,75.0,0.0,390.0,2.0,0.0
4797,83.0,430.0,180.0,3.0,0.0
4798,71.0,0.0,390.0,2.0,0.0
4799,87.0,0.0,390.0,2.0,0.0
4800,78.0,50.0,390.0,2.0,0.0
4801,90.0,0.0,390.0,1.0,0.0
4802,83.0,480.0,180.0,3.0,0.0
4803,56.0,0.0,870.0,4.0,0.0
4804,62.0,370.0,480.0,5.0,0.0
4805,50.0,0.0,480.0,5.0,0.0
4806,53.0,10.0,840.0,4.0,0.0
4807,83.0,50.0,180.0,3.0,0.0
4808,59.0,50.0,390.0,5.0,0.0
4809,47.0,0.0,390.0,5.0,0.0
4810,83.0,480.0,180.0,3.0,0.0
4811,47.0,370.0,480.0,5.0,0.0
4812,59.0,0.0,480.0,5.0,0.0
4813,53.0,10.0,840.0,4.0,0.0
4814,56.0,0.0,870.0,4.0,0.0
4815,85.0,50.0,180.0,3.0,0.0
4816,46.0,50.0,390.0,5.0,0.0
4817,58.0,0.0,390.0,5.0,0.0
4818,86.0,480.0,180.0,3.0,0.0
4819,58.0,380.0,1920.0,5.0,0.0
4820,51.0,0.0,1920.0,5.0,0.0
4821,54.0,0.0,1920.0,4.0,0.0
4822,87.0,480.0,180.0,3.0,0.0
4823,75.0,0.0,180.0,3.0,0.0
4824,87.0,480.0,180.0,3.0,0.0
4825,75.0,0.0,180.0,3.0,0.0
4826,87.0,0.0,180.0,3.0,0.0
4827,75.0,480.0,180.0,3.0,0.0
4828,75.0,0.0,180.0,3.0,0.0
4829,87.0,50.0,180.0,3.0,0.0
4830,54.0,0.0,390.0,5.0,0.0
4831,66.0,50.0,390.0,5.0,0.0
4832,87.0,0.0,180.0,3.0,0.0
4833,75.0,430.0,180.0,3.0,0.0
4834,68.0,50.0,390.0,5.0,0.0
4835,56.0,0.0,390.0,5.0,0.0
4836,87.0,430.0,180.0,3.0,0.0
4837,75.0,0.0,180.0,3.0,0.0
4838,70.0,50.0,390.0,5.0,0.0
4839,58.0,0.0,390.0,5.0,0.0
4840,74.0,430.0,180.0,3.0,0.0
4841,86.0,0.0,180.0,3.0,0.0
4842,65.0,0.0,390.0,5.0,0.0
4843,53.0,50.0,390.0,5.0,0.0
4844,86.0,430.0,180.0,3.0,0.0
4845,74.0,0.0,180.0,3.0,0.0
4846,98.0,0.0,390.0,1.0,0.0
4847,95.0,50.0,390.0,2.0,0.0
4848,86.0,0.0,180.0,3.0,0.0
4849,74.0,430.0,180.0,3.0,0.0
4850,97.0,0.0,390.0,1.0,0.0
4851,94.0,50.0,390.0,2.0,0.0
4852,86.0,0.0,180.0,3.0,0.0
4853,74.0,430.0,180.0,3.0,0.0
4854,95.0,0.0,390.0,1.0,0.0
4855,92.0,0.0,390.0,2.0,0.0
4856,56.0,50.0,390.0,5.0,0.0
4857,68.0,0.0,390.0,5.0,0.0
4858,86.0,430.0,180.0,3.0,0.0
4859,74.0,0.0,180.0,3.0,0.0
4860,58.0,0.0,390.0,5.0,0.0
4861,70.0,0.0,390.0,5.0,0.0
4862,92.0,40.0,390.0,1.0,0.0
4863,74.0,440.0,180.0,3.0,0.0
4864,86.0,0.0,180.0,3.0,0.0
4865,71.0,0.0,390.0,5.0,0.0
4866,59.0,50.0,390.0,5.0,0.0
4867,74.0,410.0,180.0,3.0,0.0
4868,86.0,0.0,180.0,3.0,0.0
4869,73.0,20.0,360.0,5.0,0.0
4870,61.0,50.0,390.0,5.0,0.0
4871,74.0,90.0,180.0,3.0,0.0
4872,86.0,0.0,180.0,3.0,0.0
4873,73.0,335.0,120.0,5.0,0.0
4874,61.0,0.0,120.0,5.0,0.0
4875,74.0,5.0,360.0,5.0,0.0
4876,62.0,50.0,390.0,5.0,0.0
4877,86.0,430.0,180.0,3.0,0.0
4878,74.0,0.0,180.0,3.0,0.0
4879,54.0,0.0,390.0,5.0,0.0
4880,66.0,20.0,390.0,5.0,0.0
4881,74.0,450.0,180.0,3.0,0.0
4882,86.0,10.0,150.0,3.0,0.0
4883,98.0,0.0,390.0,2.0,0.0
4884,71.0,0.0,390.0,5.0,0.0
4885,102.0,50.0,390.0,1.0,0.0
4886,86.0,0.0,180.0,3.0,0.0
4887,74.0,430.0,180.0,3.0,0.0
4888,70.0,0.0,390.0,5.0,0.0
4889,97.0,50.0,390.0,2.0,0.0
4890,100.0,0.0,390.0,1.0,0.0
4891,86.0,0.0,180.0,3.0,0.0
4892,74.0,430.0,180.0,3.0,0.0
4893,95.0,0.0,390.0,2.0,0.0
4894,98.0,50.0,390.0,1.0,0.0
4895,71.0,0.0,390.0,5.0,0.0
4896,86.0,0.0,180.0,3.0,0.0
4897,74.0,430.0,180.0,3.0,0.0
4898,90.0,0.0,390.0,2.0,0.0
4899,95.0,20.0,390.0,1.0,0.0
4900,86.0,20.0,150.0,3.0,0.0
4901,74.0,490.0,180.0,3.0,0.0
4902,62.0,10.0,630.0,4.0,0.0
4903,67.0,110.0,660.0,5.0,0.0
4904,59.0,10.0,630.0,4.0,0.0
4905,55.0,0.0,630.0,5.0,0.0
4906,74.0,200.0,180.0,3.0,0.0
4907,86.0,0.0,180.0,3.0,0.0
4908,83.0,0.0,180.0,3.0,0.0
4909,57.0,150.0,120.0,5.0,0.0
4910,69.0,0.0,120.0,5.0,0.0
4911,67.0,0.0,240.0,5.0,0.0
4912,83.0,0.0,180.0,3.0,0.0
4913,86.0,50.0,180.0,3.0,0.0
4914,74.0,0.0,180.0,3.0,0.0
4915,55.0,240.0,240.0,5.0,0.0
4916,66.0,190.0,240.0,5.0,0.0
4917,54.0,0.0,240.0,5.0,0.0
4918,55.0,240.0,240.0,5.0,0.0
4919,86.0,0.0,180.0,3.0,0.0
4920,83.0,0.0,180.0,3.0,0.0
4921,74.0,50.0,180.0,3.0,0.0
4922,67.0,0.0,240.0,5.0,0.0
4923,71.0,0.0,240.0,5.0,0.0
4924,59.0,190.0,240.0,5.0,0.0
4925,67.0,0.0,240.0,5.0,0.0
4926,86.0,50.0,180.0,3.0,0.0
4927,74.0,0.0,180.0,3.0,0.0
4928,83.0,0.0,180.0,3.0,0.0
4929,55.0,430.0,15.0,5.0,0.0
4930,67.0,0.0,480.0,5.0,0.0
4931,59.0,430.0,480.0,4.0,0.0
4932,62.0,0.0,480.0,4.0,0.0
4933,77.0,0.0,180.0,3.0,0.0
4934,74.0,0.0,180.0,3.0,0.0
4935,86.0,50.0,180.0,3.0,0.0
4936,83.0,0.0,180.0,3.0,0.0
4937,66.0,430.0,480.0,5.0,0.0
4938,77.0,0.0,180.0,3.0,0.0
4939,74.0,0.0,180.0,3.0,0.0
4940,83.0,0.0,180.0,3.0,0.0
4941,86.0,50.0,180.0,3.0,0.0
4942,62.0,0.0,900.0,4.0,0.0
4943,59.0,10.0,900.0,4.0,0.0
4944,54.0,0.0,15.0,5.0,0.0
4945,66.0,0.0,900.0,5.0,0.0
4946,86.0,0.0,180.0,3.0,0.0
4947,74.0,0.0,180.0,3.0,0.0
4948,77.0,470.0,180.0,3.0,0.0
4949,83.0,0.0,180.0,3.0,0.0
4950,83.0,0.0,180.0,3.0,0.0
4951,86.0,480.0,180.0,3.0,0.0
4952,74.0,0.0,180.0,3.0,0.0
4953,77.0,0.0,180.0,3.0,0.0
4954,60.0,0.0,660.0,4.0,0.0
4955,66.0,0.0,630.0,5.0,0.0
4956,54.0,20.0,630.0,5.0,0.0
4957,57.0,0.0,630.0,4.0,0.0
4958,62.0,110.0,660.0,4.0,0.0
4959,74.0,0.0,180.0,3.0,0.0
4960,81.0,0.0,180.0,3.0,0.0
4961,84.0,0.0,180.0,3.0,0.0
4962,86.0,200.0,180.0,3.0,0.0
4963,67.0,0.0,120.0,5.0,0.0
4964,55.0,150.0,120.0,5.0,0.0
4965,86.0,50.0,180.0,3.0,0.0
4966,54.0,240.0,240.0,5.0,0.0
4967,66.0,0.0,240.0,5.0,0.0
4968,84.0,0.0,180.0,3.0,0.0
4969,81.0,0.0,180.0,3.0,0.0
4970,74.0,0.0,180.0,3.0,0.0
4971,64.0,190.0,240.0,5.0,0.0
4972,52.0,0.0,240.0,5.0,0.0
4973,74.0,0.0,180.0,3.0,0.0
4974,86.0,0.0,180.0,3.0,0.0
4975,54.0,240.0,240.0,5.0,0.0
4976,66.0,0.0,240.0,5.0,0.0
4977,81.0,50.0,180.0,3.0,0.0
4978,84.0,0.0,180.0,3.0,0.0
4979,69.0,190.0,240.0,5.0,0.0
4980,57.0,0.0,240.0,5.0,0.0
4981,74.0,0.0,180.0,3.0,0.0
4982,84.0,0.0,180.0,3.0,0.0
4983,81.0,50.0,180.0,3.0,0.0
4984,86.0,0.0,180.0,3.0,0.0
4985,66.0,0.0,15.0,5.0,0.0
4986,54.0,430.0,15.0,5.0,0.0
4987,59.0,0.0,480.0,4.0,0.0
4988,62.0,0.0,480.0,4.0,0.0
4989,74.0,50.0,180.0,3.0,0.0
4990,83.0,0.0,180.0,3.0,0.0
4991,86.0,0.0,180.0,3.0,0.0
4992,80.0,0.0,180.0,3.0,0.0
4993,74.0,0.0,180.0,3.0,0.0
4994,86.0,0.0,180.0,3.0,0.0
4995,83.0,50.0,180.0,3.0,0.0
4996,80.0,0.0,180.0,3.0,0.0
4997,59.0,0.0,720.0,4.0,0.0
4998,62.0,190.0,720.0,4.0,0.0
4999,64.0,0.0,15.0,5.0,0.0
5000,52.0,430.0,15.0,5.0,0.0
5001,80.0,0.0,180.0,3.0,0.0
5002,74.0,290.0,180.0,3.0,0.0
5003,83.0,0.0,180.0,3.0,0.0
5004,86.0,0.0,180.0,3.0,0.0
5005,52.0,0.0,15.0,5.0,0.0
5006,83.0,0.0,180.0,3.0,0.0
5007,86.0,0.0,180.0,3.0,0.0
5008,80.0,50.0,180.0,3.0,0.0
5009,64.0,430.0,240.0,5.0,0.0
5010,74.0,0.0,180.0,3.0,0.0
5011,52.0,430.0,480.0,5.0,0.0
5012,64.0,0.0,480.0,5.0,0.0
5013,77.0,50.0,180.0,3.0,0.0
5014,74.0,0.0,180.0,3.0,0.0
5015,86.0,0.0,180.0,3.0,0.0
5016,80.0,0.0,180.0,3.0,0.0
5017,50.0,430.0,480.0,5.0,0.0
5018,62.0,0.0,480.0,5.0,0.0
5019,77.0,0.0,180.0,3.0,0.0
5020,74.0,0.0,180.0,3.0,0.0
5021,80.0,0.0,180.0,3.0,0.0
5022,86.0,50.0,180.0,3.0,0.0
5023,61.0,430.0,480.0,5.0,0.0
5024,49.0,0.0,480.0,5.0,0.0
5025,77.0,0.0,180.0,3.0,0.0
5026,80.0,0.0,180.0,3.0,0.0
5027,86.0,0.0,180.0,3.0,0.0
5028,74.0,50.0,180.0,3.0,0.0
5029,59.0,0.0,480.0,5.0,0.0
5030,47.0,430.0,480.0,5.0,0.0
5031,86.0,0.0,180.0,3.0,0.0
5032,74.0,50.0,180.0,3.0,0.0
5033,80.0,0.0,180.0,3.0,0.0
5034,77.0,0.0,180.0,3.0,0.0
5035,52.0,10.0,2880.0,4.0,0.0
5036,55.0,0.0,2880.0,4.0,0.0
5037,58.0,430.0,480.0,5.0,0.0
5038,46.0,0.0,2880.0,5.0,0.0
5039,74.0,0.0,180.0,3.0,0.0
5040,80.0,0.0,180.0,3.0,0.0
5041,86.0,50.0,180.0,3.0,0.0
5042,77.0,0.0,180.0,3.0,0.0
5043,80.0,0.0,180.0,3.0,0.0
5044,86.0,0.0,180.0,3.0,0.0
5045,89.0,0.0,180.0,3.0,0.0
5046,77.0,50.0,180.0,3.0,0.0
5047,62.0,1910.0,15.0,5.0,0.0
5048,80.0,1430.0,1680.0,3.0,0.0
5049,92.0,0.0,1680.0,3.0,0.0
5050,89.0,0.0,1680.0,3.0,0.0
5051,83.0,10.0,1680.0,3.0,0.0
5052,54.0,0.0,480.0,5.0,0.0
5053,63.0,240.0,240.0,2.0,0.0
5054,56.0,0.0,480.0,5.0,0.0
5055,64.0,240.0,240.0,2.0,0.0
5056,65.0,240.0,240.0,2.0,0.0
5057,47.0,0.0,15.0,5.0,0.0
5058,57.0,240.0,480.0,5.0,0.0
5059,68.0,240.0,240.0,2.0,0.0
5060,66.0,0.0,240.0,2.0,0.0
5061,62.0,620.0,240.0,2.0,0.0
5062,53.0,0.0,2400.0,5.0,0.0
5063,83.0,100.0,390.0,1.0,0.0
5064,80.0,0.0,390.0,2.0,0.0
5065,92.0,240.0,240.0,1.0,0.0
5066,78.0,0.0,390.0,2.0,0.0
5067,82.0,100.0,390.0,1.0,0.0
5068,94.0,140.0,240.0,1.0,0.0
5069,97.0,240.0,240.0,1.0,0.0
5070,80.0,0.0,390.0,1.0,0.0
5071,77.0,340.0,390.0,2.0,0.0
5072,95.0,140.0,240.0,1.0,0.0
5073,92.0,140.0,480.0,1.0,0.0
5074,71.0,0.0,390.0,2.0,0.0
5075,74.0,100.0,390.0,1.0,0.0
5076,89.0,480.0,240.0,1.0,0.0
5077,56.0,240.0,480.0,5.0,0.0
5078,47.0,0.0,960.0,5.0,0.0
5079,65.0,0.0,240.0,2.0,0.0
5080,58.0,240.0,480.0,5.0,0.0
5081,66.0,240.0,240.0,2.0,0.0
5082,67.0,0.0,240.0,2.0,0.0
5083,70.0,240.0,240.0,2.0,0.0
5084,47.0,0.0,2880.0,5.0,0.0
5085,59.0,0.0,480.0,5.0,0.0
5086,68.0,860.0,240.0,2.0,0.0
5087,63.0,0.0,2400.0,2.0,0.0
5088,87.0,100.0,390.0,1.0,0.0
5089,83.0,0.0,390.0,2.0,0.0
5090,89.0,240.0,240.0,1.0,0.0
5091,82.0,0.0,390.0,2.0,0.0
5092,91.0,140.0,240.0,1.0,0.0
5093,85.0,100.0,390.0,1.0,0.0
5094,94.0,240.0,240.0,1.0,0.0
5095,92.0,140.0,240.0,1.0,0.0
5096,83.0,0.0,390.0,1.0,0.0
5097,80.0,100.0,390.0,2.0,0.0
5098,99.0,380.0,240.0,1.0,0.0
5099,71.0,0.0,390.0,2.0,0.0
5100,80.0,100.0,390.0,1.0,0.0
5101,104.0,640.0,240.0,1.0,0.0
5102,56.0,0.0,15.0,5.0,0.0
5103,47.0,640.0,1920.0,5.0,0.0
5104,62.0,40.0,480.0,4.0,0.0
5105,64.0,80.0,390.0,5.0,0.0
5106,68.0,200.0,120.0,5.0,0.0
5107,66.0,480.0,240.0,5.0,0.0
5108,78.0,0.0,480.0,5.0,0.0
5109,74.0,240.0,480.0,4.0,0.0
5110,90.0,0.0,480.0,1.0,0.0
5111,86.0,240.0,480.0,2.0,0.0
5112,71.0,0.0,480.0,5.0,0.0
5113,68.0,0.0,480.0,4.0,0.0
5114,80.0,0.0,240.0,2.0,0.0
5115,83.0,0.0,240.0,1.0,0.0
5116,57.0,0.0,1920.0,5.0,0.0
5117,45.0,0.0,1920.0,5.0,0.0
5118,64.0,80.0,390.0,5.0,0.0
5119,62.0,40.0,480.0,4.0,0.0
5120,68.0,200.0,120.0,5.0,0.0
5121,66.0,480.0,240.0,5.0,0.0
5122,78.0,0.0,480.0,5.0,0.0
5123,74.0,240.0,480.0,4.0,0.0
5124,86.0,0.0,480.0,2.0,0.0
5125,90.0,240.0,480.0,1.0,0.0
5126,69.0,0.0,480.0,5.0,0.0
5127,66.0,0.0,480.0,4.0,0.0
5128,78.0,480.0,240.0,2.0,0.0
5129,81.0,0.0,240.0,1.0,0.0
5130,44.0,310.0,1380.0,5.0,0.0
5131,56.0,10.0,1350.0,5.0,0.0
5132,62.0,0.0,240.0,4.0,0.0
5133,59.0,350.0,240.0,4.0,0.0
5134,65.0,0.0,240.0,5.0,0.0
5135,68.0,90.0,360.0,5.0,0.0
5136,92.0,30.0,330.0,1.0,0.0
5137,80.0,80.0,360.0,2.0,0.0
5138,70.0,80.0,120.0,5.0,0.0
5139,73.0,50.0,120.0,5.0,0.0
5140,71.0,0.0,720.0,5.0,0.0
5141,94.0,80.0,120.0,1.0,0.0
5142,97.0,120.0,120.0,1.0,0.0
5143,95.0,120.0,480.0,1.0,0.0
5144,83.0,0.0,480.0,2.0,0.0
5145,46.0,5.0,390.0,5.0,0.0
5146,53.0,115.0,390.0,5.0,0.0
5147,62.0,0.0,360.0,5.0,0.0
5148,70.0,0.0,120.0,5.0,0.0
5149,94.0,240.0,240.0,1.0,0.0
5150,82.0,0.0,120.0,2.0,0.0
5151,51.0,235.0,1980.0,5.0,0.0
5152,58.0,0.0,1980.0,5.0,0.0
5153,66.0,0.0,1950.0,5.0,0.0
5154,70.0,1.0,1920.0,5.0,0.0
5155,83.0,0.0,120.0,2.0,0.0
5156,95.0,350.0,120.0,1.0,0.0
5157,94.0,120.0,360.0,1.0,0.0
5158,82.0,10.0,360.0,2.0,0.0
5159,90.0,0.0,120.0,1.0,0.0
5160,78.0,360.0,120.0,2.0,0.0
5161,75.0,120.0,360.0,2.0,0.0
5162,87.0,0.0,360.0,1.0,0.0
5163,71.0,0.0,120.0,2.0,0.0
5164,83.0,360.0,120.0,1.0,0.0
5165,70.0,0.0,360.0,2.0,0.0
5166,82.0,120.0,360.0,1.0,0.0
5167,78.0,244.0,120.0,1.0,0.0
5168,66.0,0.0,120.0,2.0,0.0
5169,63.0,240.0,480.0,5.0,0.0
5170,75.0,0.0,480.0,1.0,0.0
5171,71.0,240.0,240.0,1.0,0.0
5172,59.0,0.0,240.0,5.0,0.0
5173,70.0,240.0,240.0,1.0,0.0
5174,58.0,0.0,240.0,5.0,0.0
5175,54.0,240.0,240.0,5.0,0.0
5176,66.0,0.0,240.0,1.0,0.0
5177,51.0,240.0,240.0,5.0,0.0
5178,63.0,0.0,240.0,1.0,0.0
5179,47.0,240.0,240.0,5.0,0.0
5180,59.0,0.0,240.0,1.0,0.0
5181,46.0,0.0,240.0,5.0,0.0
5182,58.0,240.0,240.0,1.0,0.0
5183,42.0,0.0,240.0,5.0,0.0
5184,54.0,480.0,240.0,1.0,0.0
5185,50.0,20.0,4290.0,5.0,0.0
5186,38.0,10.0,4290.0,5.0,0.0
5187,65.0,240.0,240.0,5.0,0.0
5188,68.0,240.0,240.0,5.0,0.0
5189,70.0,240.0,240.0,5.0,0.0
5190,73.0,240.0,240.0,5.0,0.0
5191,71.0,240.0,240.0,5.0,0.0
5192,68.0,240.0,240.0,5.0,0.0
5193,65.0,380.0,240.0,5.0,0.0
5194,83.0,50.0,390.0,2.0,0.0
5195,86.0,0.0,390.0,1.0,0.0
5196,92.0,51.0,180.0,1.0,0.0
5197,94.0,190.0,180.0,1.0,0.0
5198,85.0,50.0,390.0,1.0,0.0
5199,82.0,189.0,15.0,2.0,0.0
5200,97.0,240.0,180.0,1.0,0.0
5201,83.0,50.0,390.0,1.0,0.0
5202,95.0,0.0,180.0,1.0,0.0
5203,80.0,190.0,180.0,2.0,0.0
5204,92.0,50.0,180.0,1.0,0.0
5205,65.0,190.0,240.0,5.0,0.0
5206,80.0,50.0,180.0,2.0,0.0
5207,89.0,0.0,180.0,1.0,0.0
5208,68.0,190.0,240.0,5.0,0.0
5209,83.0,0.0,180.0,2.0,0.0
5210,70.0,260.0,240.0,5.0,0.0
5211,86.0,50.0,180.0,1.0,0.0
5212,71.0,60.0,270.0,5.0,0.0
5213,62.0,240.0,480.0,4.0,0.0
5214,66.0,0.0,480.0,4.0,0.0
5215,73.0,80.0,90.0,5.0,0.0
5216,71.0,50.0,90.0,5.0,0.0
5217,70.0,0.0,90.0,5.0,0.0
5218,38.0,0.0,1440.0,5.0,0.0
5219,71.0,240.0,240.0,5.0,0.0
5220,73.0,240.0,240.0,5.0,0.0
5221,76.0,240.0,240.0,5.0,0.0
5222,74.0,0.0,240.0,5.0,0.0
5223,90.0,240.0,240.0,1.0,0.0
5224,78.0,0.0,240.0,2.0,0.0
5225,71.0,0.0,240.0,5.0,0.0
5226,83.0,0.0,240.0,2.0,0.0
5227,95.0,240.0,240.0,1.0,0.0
5228,66.0,240.0,240.0,5.0,0.0
5229,85.0,0.0,240.0,2.0,0.0
5230,97.0,0.0,240.0,1.0,0.0
5231,50.0,0.0,15.0,5.0,0.0
5232,98.0,80.0,240.0,1.0,0.0
5233,38.0,280.0,1890.0,5.0,0.0
5234,86.0,0.0,480.0,2.0,0.0
5235,100.0,60.0,90.0,1.0,0.0
5236,98.0,60.0,90.0,1.0,0.0
5237,97.0,50.0,90.0,1.0,0.0
5238,98.0,230.0,60.0,1.0,0.0
5239,100.0,0.0,240.0,1.0,0.0
5240,97.0,140.0,240.0,2.0,0.0
5241,91.0,0.0,240.0,2.0,0.0
5242,79.0,20.0,390.0,4.0,0.0
5243,85.0,20.0,390.0,4.0,0.0
5244,88.0,60.0,390.0,4.0,0.0
5245,103.0,240.0,240.0,1.0,0.0
5246,90.0,140.0,240.0,2.0,0.0
5247,95.0,0.0,240.0,2.0,0.0
5248,102.0,0.0,240.0,1.0,0.0
5249,78.0,20.0,390.0,4.0,0.0
5250,83.0,20.0,390.0,4.0,0.0
5251,86.0,60.0,390.0,4.0,0.0
5252,98.0,240.0,240.0,1.0,0.0
5253,86.0,0.0,240.0,2.0,0.0
5254,74.0,20.0,390.0,4.0,0.0
5255,95.0,140.0,240.0,1.0,0.0
5256,78.0,20.0,390.0,4.0,0.0
5257,83.0,10.0,390.0,4.0,0.0
5258,90.0,0.0,210.0,1.0,0.0
5259,50.0,5.0,960.0,5.0,0.0
5260,59.0,0.0,930.0,4.0,0.0
5261,94.0,240.0,240.0,1.0,0.0
5262,66.0,0.0,240.0,5.0,0.0
5263,86.0,0.0,240.0,2.0,0.0
5264,82.0,0.0,240.0,2.0,0.0
5265,95.0,0.0,240.0,1.0,0.0
5266,83.0,0.0,240.0,2.0,0.0
5267,67.0,240.0,240.0,5.0,0.0
5268,86.0,0.0,240.0,2.0,0.0
5269,91.0,0.0,240.0,2.0,0.0
5270,62.0,0.0,240.0,4.0,0.0
5271,98.0,0.0,240.0,1.0,0.0
5272,71.0,195.0,240.0,5.0,0.0
5273,83.0,360.0,210.0,2.0,0.0
5274,67.0,0.0,180.0,5.0,0.0
5275,95.0,0.0,210.0,1.0,0.0
5276,83.0,20.0,360.0,2.0,0.0
5277,84.0,20.0,360.0,2.0,0.0
5278,57.0,0.0,930.0,4.0,0.0
5279,95.0,115.0,360.0,1.0,0.0
5280,60.0,5.0,480.0,4.0,0.0
5281,67.0,195.0,720.0,5.0,0.0
5282,38.0,0.0,240.0,5.0,0.0
5283,93.0,240.0,120.0,1.0,0.0
5284,81.0,0.0,120.0,2.0,0.0
5285,50.0,0.0,15.0,5.0,0.0
5286,84.0,0.0,420.0,2.0,0.0
5287,93.0,240.0,480.0,1.0,0.0
5288,60.0,40.0,450.0,4.0,0.0
5289,66.0,0.0,210.0,5.0,0.0
5290,50.0,30.0,930.0,5.0,0.0
5291,57.0,45.0,930.0,4.0,0.0
5292,80.0,0.0,240.0,2.0,0.0
5293,65.0,5.0,240.0,5.0,0.0
5294,84.0,235.0,240.0,2.0,0.0
5295,60.0,165.0,720.0,4.0,0.0
5296,92.0,0.0,240.0,1.0,0.0
5297,66.0,0.0,240.0,5.0,0.0
5298,81.0,0.0,240.0,2.0,0.0
5299,93.0,240.0,240.0,1.0,0.0
5300,86.0,0.0,240.0,2.0,0.0
5301,84.0,0.0,240.0,2.0,0.0
5302,96.0,0.0,240.0,1.0,0.0
5303,62.0,0.0,240.0,4.0,0.0
5304,69.0,0.0,240.0,5.0,0.0
5305,66.0,0.0,240.0,5.0,0.0
5306,93.0,0.0,240.0,1.0,0.0
5307,81.0,360.0,240.0,2.0,0.0
5308,50.0,235.0,1020.0,5.0,0.0
5309,55.0,0.0,990.0,4.0,0.0
5310,65.0,0.0,480.0,5.0,0.0
5311,59.0,5.0,960.0,4.0,0.0
5312,93.0,0.0,360.0,1.0,0.0
5313,89.0,120.0,360.0,2.0,0.0
5314,86.0,0.0,360.0,2.0,0.0
5315,81.0,0.0,360.0,2.0,0.0
5316,38.0,0.0,240.0,5.0,0.0
5317,79.0,0.0,120.0,2.0,0.0
5318,71.0,0.0,480.0,4.0,0.0
5319,65.0,0.0,480.0,4.0,0.0
5320,74.0,5.0,480.0,4.0,0.0
5321,89.0,0.0,420.0,2.0,0.0
5322,83.0,0.0,420.0,2.0,0.0
5323,79.0,0.0,420.0,2.0,0.0
5324,91.0,435.0,15.0,1.0,0.0
5325,86.0,0.0,420.0,2.0,0.0
5326,77.0,0.0,240.0,5.0,0.0
5327,79.0,0.0,750.0,2.0,0.0
5328,84.0,10.0,720.0,2.0,0.0
5329,72.0,5.0,900.0,4.0,0.0
5330,67.0,0.0,900.0,4.0,0.0
5331,62.0,0.0,15.0,4.0,0.0
5332,75.0,240.0,240.0,5.0,0.0
5333,91.0,0.0,720.0,1.0,0.0
5334,76.0,230.0,240.0,5.0,0.0
5335,79.0,155.0,240.0,5.0,0.0
5336,76.0,40.0,150.0,5.0,0.0
5337,84.0,280.0,210.0,2.0,0.0
5338,79.0,0.0,210.0,2.0,0.0
5339,91.0,0.0,180.0,1.0,0.0
5340,62.0,5.0,480.0,4.0,0.0
5341,67.0,0.0,450.0,4.0,0.0
5342,90.0,15.0,240.0,1.0,0.0
5343,71.0,0.0,450.0,4.0,0.0
5344,76.0,75.0,360.0,5.0,0.0
5345,78.0,105.0,240.0,2.0,0.0
5346,91.0,5.0,210.0,1.0,0.0
5347,79.0,275.0,210.0,2.0,0.0
5348,74.0,0.0,90.0,5.0,0.0
5349,62.0,10.0,510.0,4.0,0.0
5350,67.0,0.0,510.0,4.0,0.0
5351,74.0,0.0,480.0,5.0,0.0
5352,83.0,230.0,240.0,2.0,0.0
5353,71.0,240.0,480.0,4.0,0.0
5354,95.0,0.0,240.0,1.0,0.0
5355,91.0,0.0,240.0,1.0,0.0
5356,79.0,0.0,240.0,2.0,0.0
5357,38.0,140.0,1890.0,5.0,0.0
5358,71.0,120.0,240.0,5.0,0.0
5359,84.0,0.0,360.0,2.0,0.0
5360,86.0,0.0,360.0,2.0,0.0
5361,79.0,0.0,360.0,2.0,0.0
5362,62.0,0.0,480.0,4.0,0.0
5363,91.0,120.0,360.0,1.0,0.0
5364,72.0,0.0,240.0,5.0,0.0
5365,78.0,240.0,120.0,2.0,0.0
5366,90.0,0.0,15.0,1.0,0.0
5367,76.0,240.0,240.0,5.0,0.0
5368,78.0,0.0,480.0,2.0,0.0
5369,72.0,240.0,240.0,5.0,0.0
5370,62.0,0.0,15.0,4.0,0.0
5371,71.0,120.0,360.0,5.0,0.0
5372,77.0,0.0,240.0,2.0,0.0
5373,86.0,0.0,240.0,2.0,0.0
5374,84.0,120.0,240.0,2.0,0.0
5375,89.0,0.0,240.0,1.0,0.0
5376,78.0,0.0,240.0,2.0,0.0
5377,90.0,0.0,240.0,1.0,0.0
5378,69.0,0.0,120.0,5.0,0.0
5379,69.0,0.0,480.0,5.0,0.0
5380,86.0,0.0,240.0,2.0,0.0
5381,62.0,0.0,15.0,4.0,0.0
5382,81.0,0.0,240.0,2.0,0.0
5383,84.0,100.0,240.0,2.0,0.0
5384,60.0,240.0,15.0,4.0,0.0
5385,93.0,0.0,240.0,1.0,0.0
5386,90.0,120.0,240.0,1.0,0.0
5387,78.0,0.0,240.0,2.0,0.0
5388,38.0,120.0,240.0,5.0,0.0
5389,83.0,100.0,390.0,2.0,0.0
5390,86.0,0.0,390.0,2.0,0.0
5391,89.0,0.0,390.0,1.0,0.0
5392,77.0,0.0,390.0,2.0,0.0
5393,55.0,0.0,240.0,5.0,0.0
5394,67.0,140.0,240.0,5.0,0.0
5395,56.0,240.0,240.0,5.0,0.0
5396,68.0,0.0,240.0,5.0,0.0
5397,86.0,0.0,390.0,1.0,0.0
5398,80.0,100.0,390.0,2.0,0.0
5399,74.0,0.0,390.0,2.0,0.0
5400,77.0,0.0,390.0,2.0,0.0
5401,59.0,140.0,240.0,5.0,0.0
5402,71.0,0.0,240.0,5.0,0.0
5403,56.0,0.0,240.0,5.0,0.0
5404,68.0,240.0,240.0,5.0,0.0
5405,85.0,0.0,390.0,1.0,0.0
5406,80.0,100.0,390.0,2.0,0.0
5407,73.0,0.0,390.0,2.0,0.0
5408,83.0,0.0,390.0,2.0,0.0
5409,64.0,140.0,240.0,5.0,0.0
5410,52.0,0.0,240.0,5.0,0.0
5411,65.0,0.0,240.0,5.0,0.0
5412,53.0,240.0,240.0,5.0,0.0
5413,83.0,0.0,390.0,1.0,0.0
5414,71.0,0.0,390.0,2.0,0.0
5415,68.0,140.0,240.0,5.0,0.0
5416,77.0,100.0,390.0,2.0,0.0
5417,74.0,0.0,390.0,2.0,0.0
5418,56.0,0.0,240.0,5.0,0.0
5419,65.0,240.0,240.0,5.0,0.0
5420,53.0,0.0,240.0,5.0,0.0
5421,92.0,100.0,390.0,1.0,0.0
5422,49.0,0.0,240.0,5.0,0.0
5423,61.0,140.0,240.0,5.0,0.0
5424,80.0,0.0,390.0,2.0,0.0
5425,89.0,0.0,390.0,2.0,0.0
5426,83.0,0.0,390.0,2.0,0.0
5427,50.0,0.0,240.0,5.0,0.0
5428,62.0,240.0,240.0,5.0,0.0
5429,89.0,100.0,390.0,1.0,0.0
5430,53.0,140.0,240.0,5.0,0.0
5431,65.0,0.0,240.0,5.0,0.0
5432,86.0,0.0,390.0,2.0,0.0
5433,83.0,0.0,390.0,2.0,0.0
5434,77.0,0.0,390.0,2.0,0.0
5435,80.0,0.0,390.0,2.0,0.0
5436,62.0,0.0,240.0,5.0,0.0
5437,50.0,240.0,240.0,5.0,0.0
5438,46.0,0.0,240.0,5.0,0.0
5439,58.0,140.0,240.0,5.0,0.0
5440,86.0,0.0,390.0,1.0,0.0
5441,80.0,100.0,390.0,2.0,0.0
5442,74.0,0.0,390.0,2.0,0.0
5443,77.0,0.0,390.0,2.0,0.0
5444,59.0,190.0,240.0,5.0,0.0
5445,47.0,0.0,240.0,5.0,0.0
5446,63.0,0.0,240.0,5.0,0.0
5447,51.0,165.0,240.0,5.0,0.0
5448,73.0,0.0,180.0,2.0,0.0
5449,80.0,50.0,180.0,2.0,0.0
5450,77.0,0.0,180.0,2.0,0.0
5451,85.0,0.0,180.0,1.0,0.0
5452,75.0,290.0,180.0,2.0,0.0
5453,41.0,0.0,180.0,5.0,0.0
5454,29.0,25.0,180.0,5.0,0.0
5455,80.0,0.0,180.0,2.0,0.0
5456,71.0,0.0,180.0,2.0,0.0
5457,83.0,0.0,180.0,1.0,0.0
5458,30.0,5.0,3900.0,5.0,0.0
5459,42.0,0.0,3870.0,5.0,0.0
5460,82.0,0.0,240.0,2.0,0.0
5461,78.0,480.0,240.0,2.0,0.0
5462,85.0,0.0,15.0,2.0,0.0
5463,90.0,0.0,15.0,1.0,0.0
5464,78.0,0.0,480.0,2.0,0.0
5465,78.0,0.0,180.0,2.0,0.0
5466,82.0,0.0,15.0,2.0,0.0
5467,85.0,0.0,210.0,2.0,0.0
5468,90.0,680.0,240.0,1.0,0.0
5469,66.0,0.0,15.0,5.0,0.0
5470,61.0,0.0,15.0,5.0,0.0
5471,58.0,0.0,15.0,5.0,0.0
5472,54.0,195.0,15.0,5.0,0.0
5473,49.0,20.0,720.0,5.0,0.0
5474,54.0,20.0,720.0,5.0,0.0
5475,78.0,0.0,480.0,2.0,0.0
5476,66.0,0.0,15.0,5.0,0.0
5477,58.0,195.0,15.0,5.0,0.0
5478,85.0,0.0,15.0,2.0,0.0
5479,82.0,0.0,15.0,2.0,0.0
5480,78.0,0.0,180.0,2.0,0.0
5481,54.0,0.0,180.0,5.0,0.0
5482,90.0,0.0,15.0,1.0,0.0
5483,49.0,0.0,180.0,5.0,0.0
5484,46.0,20.0,720.0,5.0,0.0
5485,54.0,20.0,720.0,5.0,0.0
5486,66.0,0.0,720.0,5.0,0.0
5487,78.0,0.0,480.0,2.0,0.0
5488,54.0,0.0,210.0,5.0,0.0
5489,85.0,0.0,15.0,2.0,0.0
5490,82.0,0.0,15.0,2.0,0.0
5491,78.0,0.0,180.0,2.0,0.0
5492,46.0,0.0,210.0,5.0,0.0
5493,90.0,0.0,15.0,1.0,0.0
5494,66.0,5.0,180.0,5.0,0.0
5495,58.0,195.0,15.0,5.0,0.0
5496,49.0,20.0,720.0,5.0,0.0
5497,54.0,20.0,720.0,5.0,0.0
5498,66.0,0.0,720.0,5.0,0.0
5499,58.0,0.0,720.0,5.0,0.0
5500,82.0,0.0,480.0,2.0,0.0
5501,49.0,0.0,240.0,5.0,0.0
5502,54.0,0.0,240.0,5.0,0.0
5503,58.0,0.0,240.0,5.0,0.0
5504,66.0,0.0,240.0,5.0,0.0
5505,85.0,0.0,15.0,2.0,0.0
5506,78.0,235.0,15.0,2.0,0.0
5507,90.0,0.0,15.0,1.0,0.0
5508,82.0,120.0,240.0,2.0,0.0
5509,90.0,0.0,15.0,1.0,0.0
5510,42.0,0.0,240.0,5.0,0.0
5511,49.0,240.0,210.0,5.0,0.0
5512,66.0,5.0,450.0,5.0,0.0
5513,82.0,5.0,180.0,2.0,0.0
5514,58.0,0.0,180.0,5.0,0.0
5515,78.0,375.0,450.0,1.0,0.0
5516,85.0,0.0,180.0,2.0,0.0
5517,68.0,480.0,390.0,5.0,0.0
5518,80.0,0.0,390.0,1.0,0.0
5519,81.0,480.0,390.0,1.0,0.0
5520,69.0,0.0,390.0,5.0,0.0
5521,65.0,0.0,390.0,5.0,0.0
5522,77.0,370.0,390.0,1.0,0.0
5523,48.0,4.0,180.0,5.0,0.0
5524,54.0,1.0,180.0,5.0,0.0
5525,93.0,0.0,150.0,2.0,0.0
5526,63.0,174.0,180.0,5.0,0.0
5527,90.0,0.0,150.0,2.0,0.0
5528,99.0,5.0,150.0,1.0,0.0
5529,87.0,0.0,180.0,2.0,0.0
5530,57.0,5.0,150.0,5.0,0.0
5531,48.0,0.0,150.0,5.0,0.0
5532,54.0,209.0,120.0,5.0,0.0
5533,57.0,1.0,90.0,5.0,0.0
5534,63.0,0.0,90.0,5.0,0.0
5535,87.0,0.0,90.0,2.0,0.0
5536,93.0,0.0,90.0,2.0,0.0
5537,99.0,1.0,90.0,1.0,0.0
5538,90.0,0.0,90.0,2.0,0.0
5539,66.0,240.0,180.0,5.0,0.0
5540,78.0,0.0,180.0,1.0,0.0
5541,68.0,0.0,180.0,5.0,0.0
5542,80.0,240.0,180.0,1.0,0.0
5543,81.0,240.0,180.0,1.0,0.0
5544,69.0,0.0,180.0,5.0,0.0
5545,65.0,330.0,180.0,5.0,0.0
5546,77.0,0.0,180.0,1.0,0.0
5547,48.0,0.0,210.0,5.0,0.0
5548,54.0,0.0,180.0,5.0,0.0
5549,90.0,0.0,150.0,2.0,0.0
5550,63.0,0.0,180.0,5.0,0.0
5551,57.0,5.0,150.0,5.0,0.0
5552,93.0,0.0,150.0,2.0,0.0
5553,87.0,0.0,180.0,2.0,0.0
5554,99.0,170.0,180.0,1.0,0.0
5555,48.0,0.0,120.0,5.0,0.0
5556,54.0,209.0,120.0,5.0,0.0
5557,93.0,0.0,90.0,2.0,0.0
5558,90.0,2.0,90.0,2.0,0.0
5559,87.0,0.0,90.0,2.0,0.0
5560,99.0,4.0,90.0,1.0,0.0
5561,57.0,0.0,90.0,5.0,0.0
5562,63.0,0.0,90.0,5.0,0.0
5563,66.0,135.0,180.0,5.0,0.0
5564,78.0,75.0,240.0,1.0,0.0
5565,90.0,30.0,240.0,1.0,0.0
5566,68.0,135.0,180.0,5.0,0.0
5567,80.0,75.0,240.0,1.0,0.0
5568,92.0,30.0,240.0,1.0,0.0
5569,69.0,130.0,180.0,5.0,0.0
5570,81.0,75.0,240.0,1.0,0.0
5571,93.0,35.0,240.0,1.0,0.0
5572,65.0,125.0,180.0,5.0,0.0
5573,77.0,85.0,240.0,1.0,0.0
5574,89.0,30.0,240.0,1.0,0.0
5575,63.0,125.0,180.0,5.0,0.0
5576,75.0,85.0,240.0,1.0,0.0
5577,87.0,30.0,240.0,1.0,0.0
5578,60.0,130.0,180.0,5.0,0.0
5579,72.0,80.0,240.0,1.0,0.0
5580,84.0,30.0,240.0,1.0,0.0
5581,57.0,125.0,180.0,5.0,0.0
5582,69.0,80.0,240.0,1.0,0.0
5583,81.0,35.0,240.0,1.0,0.0
5584,53.0,135.0,180.0,5.0,0.0
5585,65.0,70.0,240.0,1.0,0.0
5586,77.0,35.0,240.0,1.0,0.0
5587,51.0,130.0,180.0,5.0,0.0
5588,63.0,75.0,240.0,1.0,0.0
5589,75.0,35.0,240.0,1.0,0.0
5590,48.0,135.0,180.0,5.0,0.0
5591,60.0,70.0,240.0,1.0,0.0
5592,72.0,35.0,240.0,1.0,0.0
5593,45.0,125.0,180.0,5.0,0.0
5594,57.0,80.0,240.0,1.0,0.0
5595,69.0,35.0,240.0,1.0,0.0
5596,41.0,125.0,180.0,5.0,0.0
5597,53.0,85.0,240.0,1.0,0.0
5598,65.0,30.0,240.0,1.0,0.0
5599,39.0,135.0,180.0,5.0,0.0
5600,51.0,75.0,240.0,1.0,0.0
5601,63.0,30.0,240.0,1.0,0.0
5602,35.0,50.0,180.0,5.0,0.0
5603,47.0,115.0,180.0,1.0,0.0
5604,59.0,5.0,90.0,1.0,0.0
5605,34.0,0.0,120.0,5.0,0.0
5606,58.0,0.0,120.0,1.0,0.0
5607,46.0,240.0,120.0,5.0,0.0
5608,82.0,120.0,240.0,1.0,0.0
5609,78.0,0.0,240.0,2.0,0.0
5610,75.0,0.0,240.0,2.0,0.0
5611,63.0,0.0,240.0,4.0,0.0
5612,58.0,0.0,15.0,5.0,0.0
5613,70.0,0.0,15.0,4.0,0.0
5614,63.0,0.0,120.0,4.0,0.0
5615,66.0,0.0,15.0,4.0,0.0
5616,75.0,120.0,120.0,2.0,0.0
5617,78.0,0.0,120.0,2.0,0.0
5618,82.0,0.0,120.0,1.0,0.0
5619,58.0,0.0,120.0,1.0,0.0
5620,46.0,240.0,120.0,5.0,0.0
5621,34.0,0.0,120.0,5.0,0.0
5622,82.0,0.0,240.0,1.0,0.0
5623,58.0,120.0,15.0,5.0,0.0
5624,72.0,0.0,15.0,2.0,0.0
5625,75.0,0.0,15.0,2.0,0.0
5626,60.0,0.0,15.0,4.0,0.0
5627,63.0,0.0,15.0,4.0,0.0
5628,82.0,0.0,120.0,1.0,0.0
5629,70.0,0.0,15.0,4.0,0.0
5630,34.0,15.0,1290.0,5.0,0.0
5631,46.0,45.0,480.0,5.0,0.0
5632,58.0,240.0,120.0,1.0,0.0
5633,58.0,0.0,240.0,5.0,0.0
5634,70.0,0.0,240.0,4.0,0.0
5635,65.0,0.0,240.0,4.0,0.0
5636,62.0,0.0,240.0,4.0,0.0
5637,77.0,115.0,240.0,2.0,0.0
5638,74.0,0.0,240.0,2.0,0.0
5639,82.0,0.0,240.0,1.0,0.0
5640,58.0,0.0,120.0,5.0,0.0
5641,50.0,720.0,120.0,5.0,0.0
5642,74.0,0.0,120.0,2.0,0.0
5643,77.0,0.0,120.0,2.0,0.0
5644,70.0,0.0,120.0,2.0,0.0
5645,82.0,0.0,120.0,1.0,0.0
5646,53.0,0.0,120.0,5.0,0.0
5647,65.0,0.0,120.0,4.0,0.0
5648,46.0,5.0,720.0,5.0,0.0
5649,53.0,20.0,720.0,5.0,0.0
5650,58.0,20.0,750.0,5.0,0.0
5651,70.0,165.0,750.0,2.0,0.0
5652,74.0,20.0,720.0,2.0,0.0
5653,77.0,15.0,660.0,2.0,0.0
5654,82.0,20.0,630.0,1.0,0.0
5655,62.0,0.0,720.0,4.0,0.0
5656,55.0,80.0,90.0,1.0,0.0
5657,39.0,50.0,180.0,5.0,0.0
5658,51.0,0.0,180.0,5.0,0.0
5659,58.0,30.0,90.0,1.0,0.0
5660,67.0,0.0,90.0,1.0,0.0
5661,63.0,120.0,90.0,2.0,0.0
5662,41.0,25.0,180.0,5.0,0.0
5663,67.0,0.0,120.0,1.0,0.0
5664,53.0,0.0,180.0,5.0,0.0
5665,56.0,70.0,120.0,2.0,0.0
5666,62.0,0.0,120.0,2.0,0.0
5667,65.0,145.0,90.0,1.0,0.0
5668,58.0,0.0,120.0,2.0,0.0
5669,65.0,70.0,120.0,1.0,0.0
5670,43.0,0.0,180.0,5.0,0.0
5671,55.0,25.0,180.0,5.0,0.0
5672,63.0,145.0,90.0,1.0,0.0
5673,38.0,0.0,1200.0,5.0,0.0
5674,50.0,25.0,180.0,5.0,0.0
5675,56.0,0.0,120.0,2.0,0.0
5676,61.0,70.0,120.0,1.0,0.0
5677,59.0,105.0,90.0,1.0,0.0
5678,71.0,0.0,90.0,2.0,0.0
5679,50.0,80.0,960.0,5.0,0.0
5680,59.0,0.0,90.0,4.0,0.0
5681,83.0,80.0,90.0,1.0,0.0
5682,70.0,0.0,90.0,2.0,0.0
5683,58.0,80.0,90.0,4.0,0.0
5684,82.0,0.0,90.0,1.0,0.0
5685,96.0,0.0,90.0,1.0,0.0
5686,68.0,0.0,90.0,4.0,0.0
5687,84.0,120.0,15.0,2.0,0.0
5688,58.0,0.0,120.0,4.0,0.0
5689,72.0,0.0,15.0,4.0,0.0
5690,96.0,0.0,120.0,1.0,0.0
5691,68.0,0.0,120.0,4.0,0.0
5692,92.0,0.0,15.0,2.0,0.0
5693,70.0,0.0,90.0,4.0,0.0
5694,94.0,0.0,90.0,1.0,0.0
5695,91.0,145.0,90.0,2.0,0.0
5696,82.0,0.0,90.0,2.0,0.0
5697,67.0,0.0,90.0,4.0,0.0
5698,67.0,0.0,120.0,4.0,0.0
5699,82.0,95.0,120.0,2.0,0.0
5700,94.0,0.0,120.0,1.0,0.0
5701,58.0,0.0,120.0,4.0,0.0
5702,70.0,0.0,120.0,4.0,0.0
5703,91.0,0.0,120.0,2.0,0.0
5704,92.0,0.0,90.0,1.0,0.0
5705,65.0,0.0,90.0,4.0,0.0
5706,68.0,0.0,90.0,4.0,0.0
5707,89.0,0.0,90.0,2.0,0.0
5708,80.0,145.0,90.0,2.0,0.0
5709,80.0,0.0,120.0,2.0,0.0
5710,89.0,0.0,120.0,2.0,0.0
5711,92.0,95.0,120.0,1.0,0.0
5712,68.0,0.0,120.0,4.0,0.0
5713,58.0,0.0,120.0,4.0,0.0
5714,77.0,0.0,90.0,2.0,0.0
5715,86.0,25.0,90.0,2.0,0.0
5716,62.0,0.0,90.0,4.0,0.0
5717,65.0,0.0,15.0,4.0,0.0
5718,89.0,0.0,90.0,1.0,0.0
5719,53.0,0.0,180.0,5.0,0.0
5720,41.0,50.0,180.0,5.0,0.0
5721,56.0,80.0,90.0,1.0,0.0
5722,62.0,30.0,90.0,1.0,0.0
5723,68.0,120.0,90.0,1.0,0.0
5724,63.0,0.0,120.0,2.0,0.0
5725,58.0,0.0,120.0,2.0,0.0
5726,68.0,70.0,120.0,1.0,0.0
5727,55.0,0.0,180.0,5.0,0.0
5728,43.0,25.0,180.0,5.0,0.0
5729,67.0,145.0,90.0,1.0,0.0
5730,59.0,0.0,120.0,2.0,0.0
5731,62.0,0.0,120.0,2.0,0.0
5732,56.0,25.0,180.0,5.0,0.0
5733,44.0,0.0,180.0,5.0,0.0
5734,67.0,70.0,120.0,1.0,0.0
5735,65.0,145.0,90.0,1.0,0.0
5736,60.0,0.0,120.0,2.0,0.0
5737,51.0,120.0,960.0,5.0,0.0
5738,39.0,155.0,1200.0,5.0,0.0
5739,63.0,95.0,120.0,1.0,0.0
5740,60.0,0.0,90.0,1.0,0.0
5741,56.0,105.0,90.0,2.0,0.0
5742,59.0,0.0,90.0,4.0,0.0
5743,51.0,0.0,90.0,4.0,0.0
5744,71.0,0.0,90.0,2.0,0.0
5745,83.0,80.0,90.0,1.0,0.0
5746,84.0,0.0,90.0,1.0,0.0
5747,72.0,60.0,90.0,2.0,0.0
5748,60.0,0.0,90.0,4.0,0.0
5749,87.0,0.0,60.0,2.0,0.0
5750,99.0,0.0,60.0,1.0,0.0
5751,96.0,0.0,60.0,2.0,0.0
5752,72.0,0.0,60.0,4.0,0.0
5753,75.0,140.0,60.0,4.0,0.0
5754,75.0,0.0,120.0,4.0,0.0
5755,96.0,0.0,120.0,2.0,0.0
5756,87.0,0.0,120.0,2.0,0.0
5757,99.0,0.0,120.0,1.0,0.0
5758,63.0,0.0,120.0,4.0,0.0
5759,68.0,145.0,90.0,4.0,0.0
5760,72.0,95.0,15.0,4.0,0.0
5761,92.0,0.0,90.0,2.0,0.0
5762,84.0,0.0,90.0,2.0,0.0
5763,96.0,0.0,90.0,1.0,0.0
5764,96.0,0.0,120.0,1.0,0.0
5765,72.0,0.0,120.0,4.0,0.0
5766,68.0,0.0,120.0,4.0,0.0
5767,63.0,0.0,120.0,4.0,0.0
5768,92.0,0.0,120.0,2.0,0.0
5769,84.0,53.0,120.0,2.0,0.0
5770,92.0,25.0,90.0,1.0,0.0
5771,60.0,0.0,60.0,4.0,0.0
5772,68.0,42.0,60.0,4.0,0.0
5773,87.0,0.0,90.0,2.0,0.0
5774,80.0,0.0,90.0,2.0,0.0
5775,51.0,92.0,150.0,4.0,0.0
5776,60.0,2.0,150.0,4.0,0.0
5777,92.0,0.0,120.0,1.0,0.0
5778,80.0,0.0,120.0,2.0,0.0
5779,68.0,0.0,120.0,4.0,0.0
5780,84.0,1.0,120.0,2.0,0.0
5781,63.0,30.0,90.0,4.0,0.0
5782,56.0,0.0,90.0,4.0,0.0
5783,87.0,0.0,90.0,1.0,0.0
5784,84.0,0.0,90.0,2.0,0.0
5785,75.0,0.0,90.0,2.0,0.0
5786,52.0,50.0,180.0,5.0,0.0
5787,40.0,0.0,180.0,5.0,0.0
5788,59.0,30.0,90.0,1.0,0.0
5789,68.0,120.0,90.0,1.0,0.0
5790,64.0,0.0,90.0,2.0,0.0
5791,57.0,0.0,120.0,2.0,0.0
5792,68.0,70.0,120.0,1.0,0.0
5793,47.0,0.0,180.0,5.0,0.0
5794,35.0,25.0,180.0,5.0,0.0
5795,63.0,0.0,120.0,2.0,0.0
5796,66.0,105.0,90.0,1.0,0.0
5797,82.0,80.0,90.0,1.0,0.0
5798,70.0,0.0,90.0,2.0,0.0
5799,58.0,0.0,90.0,4.0,0.0
5800,83.0,0.0,90.0,1.0,0.0
5801,71.0,80.0,90.0,2.0,0.0
5802,59.0,0.0,90.0,4.0,0.0
5803,66.0,0.0,90.0,4.0,0.0
5804,93.0,0.0,90.0,2.0,0.0
5805,59.0,0.0,120.0,4.0,0.0
5806,73.0,95.0,120.0,4.0,0.0
5807,69.0,0.0,15.0,4.0,0.0
5808,97.0,0.0,15.0,1.0,0.0
5809,93.0,0.0,120.0,2.0,0.0
5810,85.0,120.0,15.0,2.0,0.0
5811,93.0,0.0,90.0,1.0,0.0
5812,63.0,0.0,90.0,4.0,0.0
5813,69.0,0.0,90.0,4.0,0.0
5814,87.0,0.0,90.0,2.0,0.0
5815,81.0,185.0,90.0,2.0,0.0
5816,52.0,50.0,180.0,5.0,0.0
5817,40.0,0.0,180.0,5.0,0.0
5818,59.0,30.0,90.0,1.0,0.0
5819,64.0,120.0,90.0,2.0,0.0
5820,68.0,0.0,90.0,1.0,0.0
5821,36.0,25.0,180.0,5.0,0.0
5822,57.0,0.0,120.0,2.0,0.0
5823,68.0,0.0,120.0,1.0,0.0
5824,48.0,0.0,180.0,5.0,0.0
5825,63.0,70.0,120.0,2.0,0.0
5826,66.0,105.0,90.0,1.0,0.0
5827,71.0,0.0,90.0,2.0,0.0
5828,59.0,80.0,90.0,4.0,0.0
5829,83.0,0.0,90.0,1.0,0.0
5830,84.0,0.0,90.0,1.0,0.0
5831,72.0,0.0,90.0,2.0,0.0
5832,60.0,80.0,90.0,4.0,0.0
5833,69.0,115.0,15.0,4.0,0.0
5834,93.0,0.0,15.0,2.0,0.0
5835,87.0,0.0,15.0,2.0,0.0
5836,75.0,0.0,15.0,4.0,0.0
5837,99.0,0.0,15.0,1.0,0.0
5838,60.0,95.0,120.0,4.0,0.0
5839,96.0,0.0,90.0,1.0,0.0
5840,81.0,0.0,90.0,2.0,0.0
5841,90.0,84.0,90.0,2.0,0.0
5842,66.0,0.0,90.0,4.0,0.0
5843,72.0,0.0,90.0,4.0,0.0
5844,46.0,92.0,90.0,5.0,0.0
5845,51.0,1.0,90.0,5.0,0.0
5846,96.0,5.0,150.0,1.0,0.0
5847,91.0,0.0,150.0,2.0,0.0
5848,84.0,0.0,150.0,2.0,0.0
5849,58.0,3.0,60.0,5.0,0.0
5850,87.0,0.0,150.0,2.0,0.0
5851,55.0,0.0,60.0,5.0,0.0
5852,58.0,80.0,90.0,4.0,0.0
5853,94.0,0.0,150.0,1.0,0.0
5854,91.0,5.0,150.0,2.0,0.0
5855,87.0,5.0,150.0,2.0,0.0
5856,82.0,0.0,150.0,2.0,0.0
5857,75.0,70.0,90.0,4.0,0.0
5858,67.0,0.0,15.0,4.0,0.0
5859,75.0,0.0,90.0,4.0,0.0
5860,79.0,54.0,90.0,2.0,0.0
5861,91.0,0.0,90.0,1.0,0.0
5862,75.0,0.0,60.0,2.0,0.0
5863,70.0,76.0,60.0,5.0,0.0
5864,63.0,4.0,60.0,5.0,0.0
5865,58.0,0.0,60.0,5.0,0.0
5866,87.0,0.0,60.0,1.0,0.0
5867,46.0,1.0,90.0,5.0,0.0
5868,53.0,5.0,60.0,4.0,0.0
5869,82.0,0.0,150.0,2.0,0.0
5870,94.0,5.0,150.0,1.0,0.0
5871,89.0,0.0,150.0,2.0,0.0
5872,62.0,90.0,60.0,4.0,0.0
5873,86.0,5.0,150.0,2.0,0.0
5874,58.0,80.0,90.0,4.0,0.0
5875,92.0,5.0,150.0,1.0,0.0
5876,89.0,0.0,150.0,2.0,0.0
5877,80.0,0.0,150.0,2.0,0.0
5878,86.0,10.0,150.0,2.0,0.0
5879,65.0,65.0,15.0,4.0,0.0
5880,74.0,0.0,15.0,4.0,0.0
5881,89.0,65.0,90.0,1.0,0.0
5882,77.0,0.0,90.0,2.0,0.0
5883,86.0,3.0,60.0,1.0,0.0
5884,74.0,92.0,60.0,2.0,0.0
5885,68.0,0.0,60.0,4.0,0.0
5886,58.0,0.0,60.0,4.0,0.0
5887,58.0,70.0,720.0,5.0,0.0
5888,75.0,60.0,90.0,2.0,0.0
5889,67.0,60.0,480.0,5.0,0.0
5890,51.0,70.0,870.0,5.0,0.0
5891,87.0,80.0,60.0,1.0,0.0
5892,82.0,80.0,60.0,1.0,0.0
5893,79.0,80.0,60.0,1.0,0.0
5894,75.0,80.0,60.0,1.0,0.0
5895,70.0,20.0,60.0,1.0,0.0
5896,67.0,80.0,60.0,1.0,0.0
5897,63.0,80.0,60.0,5.0,0.0
5898,60.0,10.0,60.0,5.0,0.0
5899,58.0,80.0,60.0,5.0,0.0
5900,55.0,10.0,60.0,5.0,0.0
5901,51.0,100.0,60.0,5.0,0.0
5902,58.0,80.0,90.0,1.0,0.0
5903,50.0,120.0,720.0,5.0,0.0
5904,55.0,50.0,180.0,5.0,0.0
5905,43.0,0.0,180.0,5.0,0.0
5906,62.0,30.0,90.0,1.0,0.0
5907,67.0,120.0,90.0,2.0,0.0
5908,70.0,0.0,15.0,1.0,0.0
5909,57.0,25.0,180.0,5.0,0.0
5910,45.0,0.0,180.0,5.0,0.0
5911,60.0,0.0,120.0,2.0,0.0
5912,66.0,70.0,120.0,2.0,0.0
5913,69.0,145.0,90.0,1.0,0.0
5914,69.0,0.0,120.0,1.0,0.0
5915,62.0,70.0,120.0,2.0,0.0
5916,58.0,25.0,180.0,5.0,0.0
5917,46.0,0.0,180.0,5.0,0.0
5918,67.0,25.0,90.0,1.0,0.0
5919,60.0,0.0,120.0,2.0,0.0
5920,57.0,70.0,120.0,2.0,0.0
5921,42.0,0.0,180.0,5.0,0.0
5922,54.0,25.0,180.0,5.0,0.0
5923,65.0,0.0,120.0,1.0,0.0
5924,63.0,105.0,90.0,1.0,0.0
5925,42.0,80.0,90.0,4.0,0.0
5926,66.0,0.0,90.0,2.0,0.0
5927,78.0,0.0,90.0,1.0,0.0
5928,54.0,0.0,90.0,4.0,0.0
5929,77.0,0.0,90.0,1.0,0.0
5930,41.0,0.0,90.0,4.0,0.0
5931,53.0,0.0,90.0,4.0,0.0
5932,65.0,80.0,90.0,2.0,0.0
5933,63.0,0.0,90.0,4.0,0.0
5934,91.0,120.0,90.0,1.0,0.0
5935,87.0,0.0,90.0,2.0,0.0
5936,53.0,0.0,15.0,4.0,0.0
5937,87.0,0.0,120.0,2.0,0.0
5938,79.0,0.0,15.0,2.0,0.0
5939,63.0,0.0,120.0,4.0,0.0
5940,67.0,0.0,15.0,4.0,0.0
5941,91.0,95.0,120.0,1.0,0.0
5942,77.0,145.0,90.0,2.0,0.0
5943,65.0,0.0,90.0,4.0,0.0
5944,62.0,0.0,90.0,4.0,0.0
5945,86.0,0.0,90.0,2.0,0.0
5946,89.0,0.0,90.0,1.0,0.0
5947,53.0,0.0,120.0,4.0,0.0
5948,62.0,0.0,120.0,4.0,0.0
5949,65.0,0.0,120.0,4.0,0.0
5950,89.0,0.0,120.0,1.0,0.0
5951,77.0,0.0,120.0,2.0,0.0
5952,86.0,95.0,120.0,2.0,0.0
5953,63.0,0.0,90.0,4.0,0.0
5954,60.0,0.0,90.0,4.0,0.0
5955,87.0,0.0,90.0,1.0,0.0
5956,84.0,145.0,90.0,2.0,0.0
5957,75.0,0.0,90.0,2.0,0.0
5958,53.0,95.0,120.0,4.0,0.0
5959,60.0,0.0,120.0,4.0,0.0
5960,63.0,0.0,120.0,4.0,0.0
5961,75.0,0.0,120.0,2.0,0.0
5962,84.0,0.0,120.0,2.0,0.0
5963,87.0,0.0,120.0,1.0,0.0
5964,72.0,0.0,90.0,2.0,0.0
5965,84.0,0.0,90.0,1.0,0.0
5966,81.0,105.0,90.0,2.0,0.0
5967,60.0,0.0,90.0,4.0,0.0
5968,57.0,0.0,90.0,4.0,0.0
5969,45.0,0.0,180.0,5.0,0.0
5970,57.0,50.0,180.0,5.0,0.0
5971,63.0,80.0,90.0,1.0,0.0
5972,66.0,30.0,90.0,1.0,0.0
5973,62.0,0.0,120.0,2.0,0.0
5974,67.0,70.0,120.0,2.0,0.0
5975,72.0,120.0,15.0,1.0,0.0
5976,46.0,0.0,180.0,5.0,0.0
5977,58.0,25.0,180.0,5.0,0.0
5978,70.0,145.0,90.0,1.0,0.0
5979,70.0,0.0,120.0,1.0,0.0
5980,60.0,25.0,180.0,5.0,0.0
5981,48.0,0.0,180.0,5.0,0.0
5982,63.0,0.0,120.0,2.0,0.0
5983,66.0,70.0,120.0,2.0,0.0
5984,69.0,145.0,90.0,1.0,0.0
5985,67.0,0.0,120.0,1.0,0.0
5986,63.0,70.0,120.0,2.0,0.0
5987,43.0,0.0,180.0,5.0,0.0
5988,55.0,25.0,180.0,5.0,0.0
5989,60.0,0.0,90.0,2.0,0.0
5990,63.0,105.0,90.0,1.0,0.0
5991,78.0,0.0,90.0,2.0,0.0
5992,90.0,0.0,90.0,1.0,0.0
5993,42.0,0.0,90.0,4.0,0.0
5994,54.0,80.0,90.0,4.0,0.0
5995,79.0,0.0,90.0,2.0,0.0
5996,55.0,0.0,90.0,4.0,0.0
5997,43.0,0.0,90.0,4.0,0.0
5998,91.0,80.0,90.0,1.0,0.0
5999,75.0,120.0,90.0,4.0,0.0
6000,79.0,0.0,90.0,4.0,0.0
6001,67.0,0.0,90.0,4.0,0.0
6002,103.0,0.0,15.0,1.0,0.0
6003,91.0,0.0,15.0,2.0,0.0
6004,99.0,0.0,15.0,2.0,0.0
6005,63.0,0.0,120.0,4.0,0.0
6006,79.0,0.0,120.0,4.0,0.0
6007,75.0,95.0,15.0,4.0,0.0
6008,87.0,0.0,90.0,2.0,0.0
6009,96.0,0.0,90.0,2.0,0.0
6010,72.0,0.0,90.0,4.0,0.0
6011,99.0,145.0,90.0,1.0,0.0
6012,87.0,78.0,120.0,2.0,0.0
6013,96.0,0.0,120.0,2.0,0.0
6014,99.0,0.0,120.0,1.0,0.0
6015,75.0,0.0,120.0,4.0,0.0
6016,72.0,0.0,120.0,4.0,0.0
6017,67.0,0.0,120.0,4.0,0.0
6018,63.0,17.0,90.0,4.0,0.0
6019,72.0,0.0,90.0,4.0,0.0
6020,84.0,0.0,90.0,2.0,0.0
6021,91.0,0.0,90.0,2.0,0.0
6022,96.0,144.0,90.0,1.0,0.0
6023,55.0,0.0,150.0,4.0,0.0
6024,63.0,1.0,150.0,4.0,0.0
6025,72.0,0.0,120.0,4.0,0.0
6026,84.0,0.0,120.0,2.0,0.0
6027,96.0,95.0,120.0,1.0,0.0
6028,79.0,85.0,90.0,2.0,0.0
6029,87.0,0.0,15.0,2.0,0.0
6030,91.0,0.0,90.0,1.0,0.0
6031,60.0,0.0,90.0,4.0,0.0
6032,67.0,0.0,90.0,4.0,0.0
6033,44.0,0.0,60.0,5.0,0.0
6034,68.0,60.0,60.0,2.0,0.0
6035,72.0,0.0,60.0,2.0,0.0
6036,51.0,20.0,60.0,4.0,0.0
6037,72.0,0.0,60.0,2.0,0.0
6038,68.0,40.0,60.0,2.0,0.0
6039,54.0,40.0,60.0,4.0,0.0
6040,72.0,20.0,60.0,2.0,0.0
6041,68.0,0.0,60.0,2.0,0.0
6042,56.0,60.0,60.0,4.0,0.0
6043,51.0,0.0,60.0,5.0,0.0
6044,72.0,0.0,60.0,2.0,0.0
6045,68.0,60.0,60.0,2.0,0.0
6046,54.0,0.0,60.0,4.0,0.0
6047,68.0,40.0,60.0,2.0,0.0
6048,72.0,0.0,60.0,2.0,0.0
6049,78.0,20.0,15.0,1.0,0.0
6050,56.0,40.0,60.0,4.0,0.0
6051,68.0,0.0,60.0,2.0,0.0
6052,72.0,20.0,60.0,2.0,0.0
6053,63.0,60.0,60.0,4.0,0.0
6054,72.0,57.0,120.0,2.0,0.0
6055,77.0,0.0,120.0,1.0,0.0
6056,56.0,60.0,60.0,5.0,0.0
6057,68.0,3.0,120.0,2.0,0.0
6058,60.0,0.0,60.0,4.0,0.0
6059,63.0,30.0,60.0,4.0,0.0
6060,78.0,30.0,90.0,1.0,0.0
6061,66.0,15.0,60.0,4.0,0.0
6062,81.0,45.0,60.0,1.0,0.0
6063,80.0,60.0,120.0,1.0,0.0
6064,48.0,60.0,60.0,5.0,0.0
6065,54.0,0.0,60.0,4.0,0.0
6066,56.0,60.0,60.0,4.0,0.0
6067,78.0,0.0,120.0,1.0,0.0
6068,60.0,80.0,60.0,4.0,0.0
6069,77.0,0.0,90.0,1.0,0.0
6070,65.0,0.0,90.0,2.0,0.0
6071,44.0,0.0,150.0,5.0,0.0
6072,56.0,0.0,150.0,5.0,0.0
6073,72.0,75.0,90.0,2.0,0.0
6074,54.0,0.0,150.0,5.0,0.0
6075,51.0,5.0,150.0,5.0,0.0
6076,66.0,0.0,90.0,2.0,0.0
6077,78.0,60.0,90.0,1.0,0.0
6078,99.0,0.0,60.0,2.0,0.0
6079,78.0,0.0,60.0,4.0,0.0
6080,68.0,0.0,60.0,4.0,0.0
6081,75.0,0.0,60.0,4.0,0.0
6082,90.0,0.0,60.0,2.0,0.0
6083,102.0,100.0,60.0,1.0,0.0
6084,102.0,0.0,90.0,1.0,0.0
6085,75.0,0.0,90.0,4.0,0.0
6086,78.0,0.0,90.0,4.0,0.0
6087,99.0,0.0,90.0,2.0,0.0
6088,68.0,0.0,90.0,4.0,0.0
6089,90.0,80.0,90.0,2.0,0.0
6090,101.0,60.0,90.0,1.0,0.0
6091,77.0,0.0,90.0,4.0,0.0
6092,73.0,0.0,90.0,4.0,0.0
6093,89.0,0.0,90.0,2.0,0.0
6094,97.0,0.0,90.0,2.0,0.0
6095,68.0,0.0,15.0,4.0,0.0
6096,72.0,100.0,60.0,4.0,0.0
6097,75.0,0.0,60.0,4.0,0.0
6098,99.0,0.0,60.0,1.0,0.0
6099,96.0,0.0,60.0,2.0,0.0
6100,87.0,0.0,60.0,2.0,0.0
6101,90.0,0.0,90.0,2.0,0.0
6102,99.0,80.0,90.0,1.0,0.0
6103,87.0,0.0,90.0,2.0,0.0
6104,75.0,0.0,90.0,4.0,0.0
6105,72.0,0.0,90.0,4.0,0.0
6106,97.0,0.0,90.0,1.0,0.0
6107,68.0,0.0,15.0,4.0,0.0
6108,73.0,0.0,90.0,4.0,0.0
6109,70.0,0.0,90.0,4.0,0.0
6110,85.0,0.0,90.0,2.0,0.0
6111,90.0,60.0,15.0,2.0,0.0
6112,68.0,0.0,15.0,4.0,0.0
6113,84.0,0.0,60.0,2.0,0.0
6114,96.0,0.0,60.0,1.0,0.0
6115,72.0,0.0,60.0,4.0,0.0
6116,90.0,0.0,90.0,2.0,0.0
6117,84.0,0.0,90.0,2.0,0.0
6118,63.0,0.0,90.0,4.0,0.0
6119,72.0,0.0,90.0,4.0,0.0
6120,96.0,80.0,90.0,1.0,0.0
6121,70.0,60.0,90.0,4.0,0.0
6122,56.0,0.0,15.0,4.0,0.0
6123,61.0,0.0,90.0,4.0,0.0
6124,82.0,0.0,90.0,2.0,0.0
6125,94.0,0.0,90.0,1.0,0.0
6126,90.0,0.0,15.0,2.0,0.0
6127,80.0,0.0,60.0,2.0,0.0
6128,92.0,0.0,60.0,1.0,0.0
6129,56.0,0.0,60.0,4.0,0.0
6130,60.0,0.0,60.0,4.0,0.0
6131,68.0,80.0,60.0,4.0,0.0
6132,72.0,60.0,60.0,2.0,0.0
6133,66.0,0.0,60.0,2.0,0.0
6134,45.0,0.0,60.0,5.0,0.0
6135,51.0,20.0,60.0,4.0,0.0
6136,72.0,0.0,60.0,2.0,0.0
6137,66.0,40.0,60.0,2.0,0.0
6138,54.0,40.0,60.0,4.0,0.0
6139,66.0,20.0,60.0,2.0,0.0
6140,72.0,0.0,60.0,2.0,0.0
6141,57.0,60.0,60.0,4.0,0.0
6142,66.0,60.0,60.0,2.0,0.0
6143,51.0,0.0,60.0,5.0,0.0
6144,72.0,0.0,60.0,2.0,0.0
6145,54.0,0.0,60.0,4.0,0.0
6146,66.0,40.0,60.0,2.0,0.0
6147,72.0,0.0,60.0,2.0,0.0
6148,57.0,40.0,60.0,4.0,0.0
6149,78.0,20.0,15.0,1.0,0.0
6150,66.0,20.0,60.0,2.0,0.0
6151,72.0,0.0,60.0,2.0,0.0
6152,63.0,0.0,60.0,4.0,0.0
6153,57.0,60.0,60.0,5.0,0.0
6154,66.0,0.0,120.0,2.0,0.0
6155,72.0,57.0,120.0,2.0,0.0
6156,77.0,0.0,120.0,1.0,0.0
6157,60.0,3.0,60.0,4.0,0.0
6158,78.0,30.0,90.0,1.0,0.0
6159,63.0,30.0,60.0,4.0,0.0
6160,66.0,15.0,60.0,4.0,0.0
6161,81.0,45.0,60.0,1.0,0.0
6162,80.0,0.0,120.0,1.0,0.0
6163,48.0,60.0,60.0,5.0,0.0
6164,54.0,60.0,60.0,4.0,0.0
6165,78.0,80.0,120.0,1.0,0.0
6166,57.0,60.0,60.0,4.0,0.0
6167,60.0,0.0,60.0,4.0,0.0
6168,51.0,0.0,150.0,5.0,0.0
6169,54.0,0.0,150.0,5.0,0.0
6170,45.0,0.0,150.0,5.0,0.0
6171,57.0,5.0,150.0,5.0,0.0
6172,77.0,0.0,90.0,1.0,0.0
6173,72.0,0.0,90.0,2.0,0.0
6174,65.0,75.0,90.0,2.0,0.0
6175,78.0,60.0,90.0,1.0,0.0
6176,66.0,0.0,90.0,2.0,0.0
6177,69.0,0.0,60.0,4.0,0.0
6178,99.0,0.0,60.0,2.0,0.0
6179,90.0,0.0,60.0,2.0,0.0
6180,102.0,0.0,60.0,1.0,0.0
6181,78.0,0.0,60.0,4.0,0.0
6182,75.0,100.0,60.0,4.0,0.0
6183,69.0,0.0,90.0,4.0,0.0
6184,78.0,0.0,90.0,4.0,0.0
6185,75.0,0.0,90.0,4.0,0.0
6186,102.0,0.0,90.0,1.0,0.0
6187,99.0,80.0,90.0,2.0,0.0
6188,90.0,0.0,90.0,2.0,0.0
6189,77.0,60.0,90.0,4.0,0.0
6190,74.0,0.0,90.0,4.0,0.0
6191,101.0,0.0,90.0,1.0,0.0
6192,98.0,0.0,90.0,2.0,0.0
6193,89.0,0.0,90.0,2.0,0.0
6194,99.0,0.0,60.0,1.0,0.0
6195,96.0,0.0,60.0,2.0,0.0
6196,87.0,0.0,60.0,2.0,0.0
6197,75.0,100.0,60.0,4.0,0.0
6198,69.0,0.0,15.0,4.0,0.0
6199,72.0,0.0,60.0,4.0,0.0
6200,99.0,0.0,90.0,1.0,0.0
6201,87.0,80.0,90.0,2.0,0.0
6202,69.0,0.0,90.0,4.0,0.0
6203,75.0,0.0,90.0,4.0,0.0
6204,72.0,0.0,90.0,4.0,0.0
6205,74.0,0.0,90.0,4.0,0.0
6206,70.0,0.0,90.0,4.0,0.0
6207,69.0,0.0,90.0,4.0,0.0
6208,90.0,0.0,15.0,2.0,0.0
6209,98.0,0.0,90.0,1.0,0.0
6210,86.0,60.0,90.0,2.0,0.0
6211,96.0,100.0,60.0,1.0,0.0
6212,72.0,0.0,60.0,4.0,0.0
6213,84.0,0.0,60.0,2.0,0.0
6214,69.0,0.0,60.0,4.0,0.0
6215,90.0,0.0,60.0,2.0,0.0
6216,90.0,0.0,90.0,2.0,0.0
6217,84.0,0.0,90.0,2.0,0.0
6218,96.0,80.0,90.0,1.0,0.0
6219,63.0,0.0,90.0,4.0,0.0
6220,57.0,0.0,90.0,4.0,0.0
6221,72.0,0.0,90.0,4.0,0.0
6222,82.0,0.0,90.0,2.0,0.0
6223,70.0,0.0,90.0,4.0,0.0
6224,94.0,60.0,90.0,1.0,0.0
6225,90.0,0.0,90.0,2.0,0.0
6226,62.0,0.0,90.0,4.0,0.0
6227,57.0,0.0,90.0,4.0,0.0
6228,60.0,0.0,60.0,4.0,0.0
6229,69.0,0.0,60.0,4.0,0.0
6230,90.0,65.0,60.0,2.0,0.0
6231,81.0,0.0,60.0,2.0,0.0
6232,93.0,0.0,60.0,1.0,0.0
6233,57.0,0.0,60.0,4.0,0.0
6234,51.0,49.0,60.0,5.0,0.0
6235,96.0,0.0,90.0,1.0,0.0
6236,91.0,25.0,90.0,2.0,0.0
6237,87.0,0.0,90.0,2.0,0.0
6238,58.0,0.0,40.0,4.0,0.0
6239,55.0,1.0,40.0,4.0,0.0
6240,84.0,0.0,90.0,2.0,0.0
6241,58.0,60.0,60.0,4.0,0.0
6242,94.0,60.0,180.0,1.0,0.0
6243,91.0,0.0,150.0,2.0,0.0
6244,82.0,0.0,180.0,2.0,0.0
6245,63.0,60.0,60.0,4.0,0.0
6246,87.0,5.0,150.0,2.0,0.0
6247,67.0,40.0,60.0,4.0,0.0
6248,72.0,60.0,120.0,5.0,0.0
6249,79.0,0.0,40.0,2.0,0.0
6250,91.0,15.0,40.0,1.0,0.0
6251,91.0,45.0,60.0,1.0,0.0
6252,67.0,0.0,120.0,5.0,0.0
6253,58.0,35.0,120.0,4.0,0.0
6254,79.0,0.0,60.0,2.0,0.0
6255,87.0,0.0,40.0,2.0,0.0
6256,75.0,15.0,40.0,2.0,0.0
6257,46.0,5.0,60.0,5.0,0.0
6258,53.0,5.0,60.0,4.0,0.0
6259,86.0,0.0,90.0,2.0,0.0
6260,82.0,0.0,90.0,2.0,0.0
6261,89.0,25.0,90.0,2.0,0.0
6262,94.0,0.0,90.0,1.0,0.0
6263,62.0,50.0,40.0,4.0,0.0
6264,58.0,60.0,60.0,4.0,0.0
6265,89.0,0.0,150.0,2.0,0.0
6266,62.0,60.0,60.0,4.0,0.0
6267,86.0,65.0,150.0,2.0,0.0
6268,92.0,0.0,150.0,1.0,0.0
6269,80.0,5.0,150.0,2.0,0.0
6270,65.0,35.0,60.0,4.0,0.0
6271,74.0,60.0,120.0,5.0,0.0
6272,77.0,15.0,40.0,2.0,0.0
6273,89.0,0.0,40.0,1.0,0.0
6274,89.0,38.0,60.0,1.0,0.0
6275,68.0,4.0,90.0,5.0,0.0
6276,77.0,0.0,60.0,2.0,0.0
6277,58.0,3.0,90.0,4.0,0.0
6278,74.0,0.0,40.0,2.0,0.0
6279,86.0,75.0,40.0,1.0,0.0
6280,46.0,92.0,750.0,5.0,0.0
6281,53.0,49.0,630.0,5.0,0.0
6282,62.0,49.0,420.0,5.0,0.0
6283,82.0,45.0,60.0,1.0,0.0
6284,80.0,60.0,40.0,1.0,0.0
6285,77.0,60.0,40.0,1.0,0.0
6286,74.0,75.0,40.0,1.0,0.0
6287,70.0,45.0,60.0,1.0,0.0
6288,68.0,60.0,40.0,1.0,0.0
6289,65.0,11.0,40.0,1.0,0.0
6290,62.0,75.0,40.0,1.0,0.0
6291,58.0,45.0,60.0,1.0,0.0
6292,56.0,11.0,40.0,1.0,0.0
6293,53.0,60.0,40.0,1.0,0.0
6294,50.0,3.0,40.0,1.0,0.0
6295,46.0,80.0,90.0,1.0,0.0
6296,44.0,80.0,90.0,1.0,0.0
6297,41.0,480.0,90.0,1.0,0.0
6298,38.0,480.0,480.0,1.0,0.0
6299,35.0,960.0,480.0,1.0,0.0
6300,34.0,1596.0,960.0,1.0,0.0
6301,51.0,240.0,150.0,5.0,0.0
6302,63.0,0.0,150.0,1.0,0.0
6303,39.0,0.0,150.0,5.0,0.0
6304,65.0,0.0,150.0,1.0,0.0
6305,41.0,0.0,150.0,5.0,0.0
6306,53.0,240.0,150.0,5.0,0.0
6307,54.0,324.0,150.0,5.0,0.0
6308,42.0,0.0,150.0,5.0,0.0
6309,66.0,0.0,150.0,1.0,0.0
6310,38.0,0.0,240.0,5.0,0.0
6311,62.0,0.0,240.0,1.0,0.0
6312,50.0,636.0,240.0,5.0,0.0
6313,83.0,0.0,150.0,1.0,0.0
6314,80.0,240.0,150.0,2.0,0.0
6315,65.0,0.0,150.0,5.0,0.0
6316,66.0,0.0,150.0,5.0,0.0
6317,78.0,240.0,150.0,2.0,0.0
6318,82.0,0.0,150.0,1.0,0.0
6319,77.0,0.0,150.0,2.0,0.0
6320,68.0,0.0,150.0,5.0,0.0
6321,80.0,324.0,150.0,1.0,0.0
6322,80.0,0.0,240.0,2.0,0.0
6323,62.0,636.0,240.0,5.0,0.0
6324,89.0,0.0,240.0,1.0,0.0
6325,41.0,0.0,150.0,5.0,0.0
6326,53.0,0.0,150.0,5.0,0.0
6327,65.0,240.0,150.0,1.0,0.0
6328,66.0,0.0,150.0,1.0,0.0
6329,42.0,240.0,150.0,5.0,0.0
6330,54.0,0.0,150.0,5.0,0.0
6331,44.0,324.0,150.0,5.0,0.0
6332,68.0,0.0,150.0,1.0,0.0
6333,56.0,0.0,150.0,5.0,0.0
6334,63.0,0.0,240.0,1.0,0.0
6335,39.0,0.0,240.0,5.0,0.0
6336,51.0,636.0,240.0,5.0,0.0
6337,68.0,0.0,150.0,5.0,0.0
6338,87.0,240.0,150.0,1.0,0.0
6339,83.0,0.0,150.0,2.0,0.0
6340,82.0,0.0,150.0,2.0,0.0
6341,70.0,240.0,150.0,5.0,0.0
6342,85.0,0.0,150.0,1.0,0.0
6343,80.0,0.0,150.0,2.0,0.0
6344,83.0,0.0,150.0,1.0,0.0
6345,71.0,324.0,150.0,5.0,0.0
6346,92.0,0.0,240.0,1.0,0.0
6347,63.0,636.0,240.0,5.0,0.0
6348,83.0,0.0,240.0,2.0,0.0
6349,64.0,0.0,150.0,1.0,0.0
6350,40.0,204.0,150.0,5.0,0.0
6351,47.0,0.0,150.0,4.0,0.0
6352,59.0,105.0,120.0,1.0,0.0
6353,35.0,15.0,120.0,5.0,0.0
6354,40.0,156.0,120.0,5.0,0.0
6355,64.0,0.0,120.0,1.0,0.0
6356,47.0,0.0,120.0,4.0,0.0
6357,59.0,0.0,150.0,1.0,0.0
6358,35.0,240.0,150.0,5.0,0.0
6359,64.0,240.0,150.0,1.0,0.0
6360,47.0,0.0,150.0,4.0,0.0
6361,40.0,0.0,150.0,5.0,0.0
6362,35.0,0.0,150.0,5.0,0.0
6363,59.0,240.0,150.0,1.0,0.0
6364,47.0,240.0,150.0,4.0,0.0
6365,40.0,0.0,150.0,5.0,0.0
6366,64.0,0.0,150.0,1.0,0.0
6367,59.0,0.0,150.0,4.0,0.0
6368,76.0,204.0,150.0,2.0,0.0
6369,52.0,0.0,150.0,5.0,0.0
6370,80.0,0.0,150.0,1.0,0.0
6371,78.0,0.0,120.0,1.0,0.0
6372,47.0,120.0,120.0,5.0,0.0
6373,80.0,0.0,120.0,1.0,0.0
6374,52.0,0.0,120.0,5.0,0.0
6375,76.0,0.0,120.0,2.0,0.0
6376,59.0,156.0,120.0,4.0,0.0
6377,78.0,240.0,150.0,1.0,0.0
6378,47.0,0.0,150.0,5.0,0.0
6379,76.0,240.0,150.0,2.0,0.0
6380,59.0,0.0,150.0,4.0,0.0
6381,80.0,0.0,150.0,1.0,0.0
6382,52.0,0.0,150.0,5.0,0.0
6383,47.0,240.0,150.0,5.0,0.0
6384,78.0,0.0,150.0,1.0,0.0
6385,52.0,240.0,150.0,5.0,0.0
6386,80.0,0.0,150.0,1.0,0.0
6387,76.0,0.0,150.0,2.0,0.0
6388,59.0,0.0,150.0,4.0,0.0
6389,64.0,0.0,150.0,5.0,0.0
6390,52.0,204.0,150.0,5.0,0.0
6391,80.0,0.0,150.0,2.0,0.0
6392,83.0,0.0,150.0,1.0,0.0
6393,71.0,0.0,150.0,2.0,0.0
6394,80.0,36.0,120.0,2.0,0.0
6395,51.0,0.0,150.0,5.0,0.0
6396,83.0,0.0,120.0,1.0,0.0
6397,63.0,84.0,150.0,5.0,0.0
6398,71.0,156.0,120.0,2.0,0.0
6399,80.0,0.0,150.0,2.0,0.0
6400,83.0,0.0,150.0,1.0,0.0
6401,62.0,240.0,150.0,5.0,0.0
6402,50.0,0.0,150.0,5.0,0.0
6403,71.0,0.0,150.0,2.0,0.0
6404,80.0,0.0,150.0,2.0,0.0
6405,51.0,240.0,150.0,5.0,0.0
6406,63.0,0.0,150.0,5.0,0.0
6407,83.0,0.0,150.0,1.0,0.0
6408,78.0,0.0,150.0,2.0,0.0
6409,82.0,0.0,150.0,1.0,0.0
6410,70.0,240.0,150.0,2.0,0.0
6411,68.0,0.0,150.0,2.0,0.0
6412,77.0,0.0,150.0,2.0,0.0
6413,44.0,240.0,150.0,5.0,0.0
6414,56.0,0.0,150.0,5.0,0.0
6415,80.0,0.0,150.0,1.0,0.0
6416,78.0,480.0,150.0,1.0,0.0
6417,66.0,0.0,150.0,2.0,0.0
6418,58.0,0.0,150.0,5.0,0.0
6419,46.0,0.0,150.0,5.0,0.0
6420,65.0,0.0,150.0,2.0,0.0
6421,74.0,0.0,150.0,2.0,0.0
6422,46.0,0.0,150.0,5.0,0.0
6423,34.0,0.0,150.0,5.0,0.0
6424,77.0,324.0,150.0,1.0,0.0
6425,51.0,636.0,240.0,5.0,0.0
6426,63.0,0.0,240.0,2.0,0.0
6427,75.0,0.0,240.0,1.0,0.0
6428,39.0,0.0,240.0,5.0,0.0
6429,63.0,0.0,150.0,1.0,0.0
6430,39.0,240.0,150.0,5.0,0.0
6431,51.0,0.0,150.0,5.0,0.0
6432,41.0,0.0,150.0,5.0,0.0
6433,65.0,240.0,150.0,1.0,0.0
6434,53.0,0.0,150.0,5.0,0.0
6435,66.0,0.0,150.0,1.0,0.0
6436,54.0,324.0,150.0,5.0,0.0
6437,42.0,0.0,150.0,5.0,0.0
6438,62.0,0.0,240.0,1.0,0.0
6439,38.0,636.0,240.0,5.0,0.0
6440,50.0,0.0,240.0,5.0,0.0
6441,65.0,0.0,150.0,5.0,0.0
6442,83.0,0.0,150.0,1.0,0.0
6443,80.0,240.0,150.0,2.0,0.0
6444,66.0,240.0,150.0,5.0,0.0
6445,78.0,0.0,150.0,2.0,0.0
6446,82.0,0.0,150.0,1.0,0.0
6447,68.0,324.0,150.0,5.0,0.0
6448,77.0,0.0,150.0,2.0,0.0
6449,80.0,0.0,150.0,1.0,0.0
6450,80.0,636.0,240.0,2.0,0.0
6451,89.0,0.0,240.0,1.0,0.0
6452,62.0,0.0,240.0,5.0,0.0
6453,41.0,0.0,150.0,5.0,0.0
6454,53.0,240.0,150.0,5.0,0.0
6455,65.0,0.0,150.0,1.0,0.0
6456,42.0,0.0,150.0,5.0,0.0
6457,66.0,240.0,150.0,1.0,0.0
6458,54.0,0.0,150.0,5.0,0.0
6459,56.0,0.0,150.0,5.0,0.0
6460,44.0,0.0,150.0,5.0,0.0
6461,68.0,324.0,150.0,1.0,0.0
6462,39.0,636.0,240.0,5.0,0.0
6463,63.0,0.0,240.0,1.0,0.0
6464,51.0,0.0,240.0,5.0,0.0
6465,87.0,0.0,150.0,1.0,0.0
6466,83.0,0.0,150.0,2.0,0.0
6467,68.0,240.0,150.0,5.0,0.0
6468,85.0,0.0,150.0,1.0,0.0
6469,70.0,0.0,150.0,5.0,0.0
6470,82.0,240.0,150.0,2.0,0.0
6471,71.0,0.0,150.0,5.0,0.0
6472,83.0,0.0,150.0,1.0,0.0
6473,80.0,324.0,150.0,2.0,0.0
6474,63.0,0.0,240.0,5.0,0.0
6475,92.0,636.0,240.0,1.0,0.0
6476,83.0,0.0,240.0,2.0,0.0
6477,64.0,0.0,150.0,1.0,0.0
6478,47.0,0.0,150.0,4.0,0.0
6479,40.0,204.0,150.0,5.0,0.0
6480,59.0,105.0,120.0,1.0,0.0
6481,35.0,15.0,120.0,5.0,0.0
6482,47.0,0.0,120.0,4.0,0.0
6483,40.0,0.0,120.0,5.0,0.0
6484,64.0,156.0,120.0,1.0,0.0
6485,59.0,0.0,150.0,1.0,0.0
6486,35.0,240.0,150.0,5.0,0.0
6487,40.0,0.0,150.0,5.0,0.0
6488,64.0,0.0,150.0,1.0,0.0
6489,47.0,240.0,150.0,4.0,0.0
6490,59.0,0.0,150.0,1.0,0.0
6491,35.0,240.0,150.0,5.0,0.0
6492,64.0,0.0,150.0,1.0,0.0
6493,40.0,0.0,150.0,5.0,0.0
6494,47.0,240.0,150.0,4.0,0.0
6495,59.0,0.0,150.0,4.0,0.0
6496,80.0,0.0,150.0,1.0,0.0
6497,52.0,204.0,150.0,5.0,0.0
6498,76.0,0.0,150.0,2.0,0.0
6499,78.0,120.0,120.0,1.0,0.0
6500,47.0,0.0,120.0,5.0,0.0
6501,76.0,156.0,120.0,2.0,0.0
6502,80.0,0.0,120.0,1.0,0.0
6503,59.0,0.0,120.0,4.0,0.0
6504,52.0,0.0,120.0,5.0,0.0
6505,47.0,240.0,150.0,5.0,0.0
6506,78.0,0.0,150.0,1.0,0.0
6507,76.0,0.0,150.0,2.0,0.0
6508,52.0,0.0,150.0,5.0,0.0
6509,80.0,0.0,150.0,1.0,0.0
6510,59.0,240.0,150.0,4.0,0.0
6511,47.0,0.0,150.0,5.0,0.0
6512,78.0,240.0,150.0,1.0,0.0
6513,80.0,0.0,150.0,1.0,0.0
6514,76.0,240.0,150.0,2.0,0.0
6515,59.0,0.0,150.0,4.0,0.0
6516,52.0,0.0,150.0,5.0,0.0
6517,71.0,0.0,150.0,2.0,0.0
6518,80.0,204.0,150.0,2.0,0.0
6519,83.0,0.0,150.0,1.0,0.0
6520,52.0,0.0,150.0,5.0,0.0
6521,64.0,0.0,150.0,5.0,0.0
6522,80.0,0.0,120.0,2.0,0.0
6523,63.0,84.0,150.0,5.0,0.0
6524,51.0,0.0,150.0,5.0,0.0
6525,83.0,36.0,120.0,1.0,0.0
6526,71.0,156.0,120.0,2.0,0.0
6527,83.0,0.0,150.0,1.0,0.0
6528,62.0,240.0,150.0,5.0,0.0
6529,50.0,0.0,150.0,5.0,0.0
6530,80.0,0.0,150.0,2.0,0.0
6531,83.0,0.0,150.0,1.0,0.0
6532,51.0,240.0,150.0,5.0,0.0
6533,71.0,0.0,150.0,2.0,0.0
6534,63.0,0.0,150.0,5.0,0.0
6535,80.0,0.0,150.0,2.0,0.0
6536,70.0,0.0,150.0,2.0,0.0
6537,82.0,0.0,150.0,1.0,0.0
6538,78.0,240.0,150.0,2.0,0.0
6539,80.0,0.0,150.0,1.0,0.0
6540,68.0,240.0,150.0,2.0,0.0
6541,56.0,0.0,150.0,5.0,0.0
6542,44.0,0.0,150.0,5.0,0.0
6543,77.0,0.0,150.0,2.0,0.0
6544,66.0,480.0,150.0,2.0,0.0
6545,58.0,0.0,150.0,5.0,0.0
6546,78.0,0.0,150.0,1.0,0.0
6547,46.0,0.0,150.0,5.0,0.0
6548,74.0,0.0,150.0,2.0,0.0
6549,77.0,0.0,150.0,1.0,0.0
6550,34.0,324.0,150.0,5.0,0.0
6551,46.0,0.0,150.0,5.0,0.0
6552,65.0,0.0,150.0,2.0,0.0
6553,51.0,0.0,240.0,5.0,0.0
6554,75.0,0.0,240.0,1.0,0.0
6555,63.0,0.0,240.0,2.0,0.0
6556,39.0,636.0,240.0,5.0,0.0
6557,54.0,0.0,150.0,5.0,0.0
6558,66.0,240.0,150.0,1.0,0.0
6559,42.0,0.0,150.0,5.0,0.0
6560,44.0,0.0,150.0,5.0,0.0
6561,68.0,240.0,150.0,1.0,0.0
6562,56.0,0.0,150.0,5.0,0.0
6563,58.0,324.0,150.0,5.0,0.0
6564,46.0,0.0,150.0,5.0,0.0
6565,70.0,0.0,150.0,1.0,0.0
6566,65.0,636.0,240.0,1.0,0.0
6567,53.0,0.0,240.0,5.0,0.0
6568,41.0,0.0,240.0,5.0,0.0
6569,83.0,0.0,150.0,2.0,0.0
6570,68.0,0.0,150.0,5.0,0.0
6571,86.0,240.0,150.0,1.0,0.0
6572,70.0,0.0,150.0,5.0,0.0
6573,85.0,0.0,150.0,1.0,0.0
6574,82.0,240.0,150.0,2.0,0.0
6575,83.0,0.0,150.0,1.0,0.0
6576,71.0,0.0,150.0,5.0,0.0
6577,80.0,324.0,150.0,2.0,0.0
6578,65.0,0.0,240.0,5.0,0.0
6579,83.0,0.0,240.0,2.0,0.0
6580,92.0,636.0,240.0,1.0,0.0
6581,56.0,240.0,150.0,5.0,0.0
6582,68.0,0.0,150.0,1.0,0.0
6583,44.0,0.0,150.0,5.0,0.0
6584,58.0,240.0,150.0,5.0,0.0
6585,70.0,0.0,150.0,1.0,0.0
6586,46.0,0.0,150.0,5.0,0.0
6587,59.0,324.0,150.0,5.0,0.0
6588,47.0,0.0,150.0,5.0,0.0
6589,71.0,0.0,150.0,1.0,0.0
6590,42.0,636.0,240.0,5.0,0.0
6591,66.0,0.0,240.0,1.0,0.0
6592,54.0,0.0,240.0,5.0,0.0
6593,90.0,240.0,150.0,1.0,0.0
6594,71.0,0.0,150.0,5.0,0.0
6595,86.0,0.0,150.0,2.0,0.0
6596,73.0,0.0,150.0,5.0,0.0
6597,88.0,240.0,150.0,1.0,0.0
6598,85.0,0.0,150.0,2.0,0.0
6599,83.0,0.0,150.0,2.0,0.0
6600,74.0,324.0,150.0,5.0,0.0
6601,86.0,0.0,150.0,1.0,0.0
6602,66.0,0.0,240.0,5.0,0.0
6603,95.0,636.0,240.0,1.0,0.0
6604,86.0,0.0,240.0,2.0,0.0
6605,67.0,204.0,150.0,1.0,0.0
6606,43.0,0.0,150.0,5.0,0.0
6607,50.0,0.0,150.0,4.0,0.0
6608,62.0,0.0,120.0,1.0,0.0
6609,38.0,120.0,120.0,5.0,0.0
6610,50.0,156.0,120.0,4.0,0.0
6611,67.0,0.0,120.0,1.0,0.0
6612,43.0,0.0,120.0,5.0,0.0
6613,62.0,0.0,150.0,1.0,0.0
6614,38.0,240.0,150.0,5.0,0.0
6615,50.0,240.0,150.0,4.0,0.0
6616,67.0,0.0,150.0,1.0,0.0
6617,43.0,0.0,150.0,5.0,0.0
6618,38.0,240.0,150.0,5.0,0.0
6619,62.0,0.0,150.0,1.0,0.0
6620,50.0,0.0,150.0,4.0,0.0
6621,67.0,0.0,150.0,1.0,0.0
6622,43.0,240.0,150.0,5.0,0.0
6623,83.0,204.0,150.0,1.0,0.0
6624,62.0,0.0,150.0,4.0,0.0
6625,79.0,0.0,150.0,2.0,0.0
6626,55.0,0.0,150.0,5.0,0.0
6627,50.0,0.0,120.0,5.0,0.0
6628,78.0,120.0,120.0,2.0,0.0
6629,81.0,0.0,120.0,1.0,0.0
6630,55.0,0.0,120.0,5.0,0.0
6631,62.0,0.0,120.0,4.0,0.0
6632,83.0,0.0,120.0,1.0,0.0
6633,79.0,156.0,120.0,2.0,0.0
6634,78.0,0.0,150.0,2.0,0.0
6635,81.0,240.0,150.0,1.0,0.0
6636,50.0,0.0,150.0,5.0,0.0
6637,55.0,0.0,150.0,5.0,0.0
6638,62.0,240.0,150.0,4.0,0.0
6639,83.0,0.0,150.0,1.0,0.0
6640,79.0,0.0,150.0,2.0,0.0
6641,81.0,0.0,150.0,1.0,0.0
6642,50.0,0.0,150.0,5.0,0.0
6643,78.0,240.0,150.0,2.0,0.0
6644,62.0,240.0,150.0,4.0,0.0
6645,83.0,0.0,150.0,1.0,0.0
6646,55.0,0.0,150.0,5.0,0.0
6647,79.0,0.0,150.0,2.0,0.0
6648,86.0,0.0,150.0,1.0,0.0
6649,55.0,204.0,150.0,5.0,0.0
6650,67.0,0.0,150.0,5.0,0.0
6651,74.0,0.0,150.0,2.0,0.0
6652,54.0,84.0,150.0,5.0,0.0
6653,66.0,0.0,150.0,5.0,0.0
6654,83.0,36.0,120.0,2.0,0.0
6655,86.0,0.0,120.0,1.0,0.0
6656,74.0,156.0,120.0,2.0,0.0
6657,83.0,0.0,150.0,2.0,0.0
6658,53.0,0.0,150.0,5.0,0.0
6659,65.0,240.0,150.0,5.0,0.0
6660,86.0,0.0,150.0,1.0,0.0
6661,54.0,0.0,150.0,5.0,0.0
6662,66.0,0.0,150.0,5.0,0.0
6663,83.0,0.0,150.0,2.0,0.0
6664,74.0,240.0,150.0,2.0,0.0
6665,86.0,0.0,150.0,1.0,0.0
6666,87.0,240.0,150.0,1.0,0.0
6667,75.0,0.0,150.0,2.0,0.0
6668,82.0,0.0,150.0,2.0,0.0
6669,77.0,0.0,150.0,2.0,0.0
6670,83.0,0.0,150.0,1.0,0.0
6671,75.0,0.0,150.0,2.0,0.0
6672,56.0,240.0,150.0,5.0,0.0
6673,68.0,0.0,150.0,5.0,0.0
6674,58.0,0.0,150.0,5.0,0.0
6675,82.0,0.0,150.0,1.0,0.0
6676,77.0,0.0,150.0,2.0,0.0
6677,75.0,0.0,150.0,2.0,0.0
6678,70.0,480.0,150.0,5.0,0.0
6679,46.0,240.0,150.0,5.0,0.0
6680,58.0,0.0,150.0,5.0,0.0
6681,74.0,0.0,150.0,1.0,0.0
6682,68.0,0.0,150.0,2.0,0.0
6683,47.0,0.0,150.0,5.0,0.0
6684,75.0,240.0,150.0,1.0,0.0
6685,66.0,0.0,150.0,2.0,0.0
6686,59.0,0.0,150.0,5.0,0.0
6687,46.0,240.0,150.0,5.0,0.0
6688,58.0,0.0,150.0,5.0,0.0
6689,45.0,0.0,150.0,5.0,0.0
6690,57.0,240.0,150.0,5.0,0.0
6691,71.0,0.0,150.0,1.0,0.0
6692,56.0,204.0,150.0,5.0,0.0
6693,44.0,0.0,150.0,5.0,0.0
6694,62.0,0.0,150.0,2.0,0.0
6695,42.0,0.0,150.0,5.0,0.0
6696,71.0,36.0,120.0,1.0,0.0
6697,54.0,84.0,150.0,5.0,0.0
6698,62.0,156.0,120.0,2.0,0.0
6699,71.0,240.0,150.0,1.0,0.0
6700,41.0,0.0,150.0,5.0,0.0
6701,53.0,0.0,150.0,5.0,0.0
6702,62.0,0.0,150.0,2.0,0.0
6703,42.0,0.0,150.0,5.0,0.0
6704,54.0,0.0,150.0,5.0,0.0
6705,71.0,240.0,150.0,1.0,0.0
6706,70.0,0.0,150.0,1.0,0.0
6707,63.0,240.0,150.0,2.0,0.0
6708,65.0,0.0,150.0,2.0,0.0
6709,44.0,240.0,150.0,5.0,0.0
6710,68.0,0.0,150.0,1.0,0.0
6711,56.0,0.0,150.0,5.0,0.0
6712,66.0,480.0,150.0,1.0,0.0
6713,46.0,0.0,150.0,5.0,0.0
6714,63.0,0.0,150.0,2.0,0.0
6715,58.0,0.0,150.0,5.0,0.0
6716,34.0,0.0,150.0,5.0,0.0
6717,46.0,0.0,150.0,5.0,0.0
6718,62.0,0.0,150.0,2.0,0.0
6719,65.0,240.0,150.0,1.0,0.0
6720,35.0,240.0,150.0,5.0,0.0
6721,47.0,0.0,150.0,5.0,0.0
6722,63.0,0.0,150.0,1.0,0.0
6723,46.0,0.0,150.0,5.0,0.0
6724,34.0,240.0,150.0,5.0,0.0
6725,33.0,240.0,150.0,5.0,0.0
6726,45.0,0.0,150.0,5.0,0.0
6727,59.0,0.0,150.0,1.0,0.0
6728,44.0,0.0,150.0,5.0,0.0
6729,32.0,204.0,150.0,5.0,0.0
6730,59.0,36.0,120.0,1.0,0.0
6731,30.0,0.0,150.0,5.0,0.0
6732,42.0,84.0,150.0,5.0,0.0
6733,50.0,156.0,120.0,2.0,0.0
6734,29.0,0.0,150.0,5.0,0.0
6735,41.0,0.0,150.0,5.0,0.0
6736,59.0,240.0,150.0,1.0,0.0
6737,59.0,240.0,150.0,1.0,0.0
6738,30.0,0.0,150.0,5.0,0.0
6739,51.0,0.0,150.0,2.0,0.0
6740,42.0,0.0,150.0,5.0,0.0
6741,58.0,240.0,150.0,1.0,0.0
6742,56.0,240.0,150.0,1.0,0.0
6743,53.0,0.0,150.0,2.0,0.0
6744,44.0,0.0,150.0,5.0,0.0
6745,46.0,720.0,150.0,5.0,0.0
6746,51.0,0.0,150.0,2.0,0.0
6747,54.0,0.0,150.0,1.0,0.0
6748,53.0,0.0,150.0,1.0,0.0
6749,50.0,720.0,150.0,2.0,0.0
6750,34.0,0.0,150.0,5.0,0.0
6751,51.0,2196.0,150.0,1.0,0.0
6752,39.0,0.0,150.0,5.0,0.0
6753,73.0,0.0,180.0,1.0,0.0
6754,61.0,240.0,180.0,5.0,0.0
6755,58.0,0.0,180.0,5.0,0.0
6756,66.0,240.0,180.0,5.0,0.0
6757,70.0,0.0,180.0,2.0,0.0
6758,78.0,0.0,180.0,1.0,0.0
6759,61.0,0.0,180.0,5.0,0.0
6760,73.0,0.0,180.0,2.0,0.0
6761,68.0,0.0,180.0,5.0,0.0
6762,80.0,708.0,180.0,1.0,0.0
6763,78.0,0.0,720.0,2.0,0.0
6764,82.0,633.0,720.0,1.0,0.0
6765,66.0,0.0,720.0,5.0,0.0
6766,70.0,0.0,720.0,5.0,0.0
6767,42.0,0.0,300.0,5.0,0.0
6768,49.0,60.0,180.0,5.0,0.0
6769,73.0,0.0,15.0,2.0,0.0
6770,66.0,0.0,630.0,5.0,0.0
6771,70.0,16.0,630.0,5.0,0.0
6772,82.0,3.0,630.0,1.0,0.0
6773,78.0,0.0,630.0,2.0,0.0
6774,42.0,5.0,300.0,5.0,0.0
6775,49.0,40.0,180.0,5.0,0.0
6776,78.0,0.0,60.0,2.0,0.0
6777,82.0,40.0,60.0,1.0,0.0
6778,80.0,0.0,60.0,2.0,0.0
6779,83.0,124.0,60.0,1.0,0.0
6780,66.0,0.0,150.0,5.0,0.0
6781,70.0,0.0,150.0,5.0,0.0
6782,82.0,0.0,150.0,1.0,0.0
6783,78.0,336.0,150.0,2.0,0.0
6784,68.0,144.0,120.0,5.0,0.0
6785,77.0,0.0,120.0,2.0,0.0
6786,65.0,0.0,120.0,5.0,0.0
6787,80.0,0.0,120.0,1.0,0.0
6788,78.0,0.0,150.0,2.0,0.0
6789,82.0,76.0,150.0,1.0,0.0
6790,66.0,0.0,150.0,5.0,0.0
6791,70.0,0.0,150.0,5.0,0.0
6792,78.0,0.0,60.0,2.0,0.0
6793,82.0,40.0,60.0,1.0,0.0
6794,80.0,0.0,60.0,2.0,0.0
6795,83.0,124.0,60.0,1.0,0.0
6796,70.0,336.0,150.0,5.0,0.0
6797,78.0,0.0,150.0,2.0,0.0
6798,82.0,0.0,150.0,1.0,0.0
6799,66.0,0.0,150.0,5.0,0.0
6800,77.0,0.0,120.0,2.0,0.0
6801,65.0,144.0,120.0,5.0,0.0
6802,68.0,0.0,120.0,5.0,0.0
6803,80.0,0.0,120.0,1.0,0.0
6804,78.0,0.0,150.0,2.0,0.0
6805,82.0,0.0,150.0,1.0,0.0
6806,66.0,576.0,150.0,5.0,0.0
6807,70.0,0.0,150.0,5.0,0.0
6808,73.0,0.0,480.0,5.0,0.0
6809,85.0,0.0,480.0,1.0,0.0
6810,82.0,0.0,480.0,2.0,0.0
6811,70.0,240.0,15.0,5.0,0.0
6812,78.0,0.0,240.0,2.0,0.0
6813,82.0,0.0,240.0,1.0,0.0
6814,66.0,660.0,240.0,5.0,0.0
6815,61.0,0.0,15.0,5.0,0.0
6816,80.0,0.0,720.0,1.0,0.0
6817,37.0,60.0,300.0,5.0,0.0
6818,49.0,0.0,180.0,5.0,0.0
6819,73.0,0.0,15.0,2.0,0.0
6820,61.0,660.0,15.0,5.0,0.0
6821,64.0,0.0,720.0,5.0,0.0
6822,68.0,0.0,15.0,5.0,0.0
6823,76.0,0.0,720.0,2.0,0.0
6824,37.0,55.0,300.0,5.0,0.0
6825,44.0,5.0,180.0,5.0,0.0
6826,80.0,0.0,15.0,1.0,0.0
6827,64.0,0.0,630.0,5.0,0.0
6828,68.0,21.0,630.0,5.0,0.0
6829,73.0,0.0,630.0,2.0,0.0
6830,76.0,3.0,630.0,2.0,0.0
6831,61.0,0.0,630.0,5.0,0.0
6832,37.0,40.0,300.0,5.0,0.0
6833,44.0,0.0,180.0,5.0,0.0
6834,80.0,40.0,60.0,1.0,0.0
6835,76.0,0.0,60.0,2.0,0.0
6836,78.0,0.0,60.0,2.0,0.0
6837,81.0,124.0,60.0,1.0,0.0
6838,68.0,0.0,150.0,5.0,0.0
6839,80.0,0.0,150.0,1.0,0.0
6840,64.0,336.0,150.0,5.0,0.0
6841,76.0,0.0,150.0,2.0,0.0
6842,75.0,0.0,120.0,2.0,0.0
6843,66.0,144.0,120.0,5.0,0.0
6844,63.0,0.0,120.0,5.0,0.0
6845,78.0,0.0,120.0,1.0,0.0
6846,64.0,76.0,150.0,5.0,0.0
6847,68.0,0.0,150.0,5.0,0.0
6848,80.0,0.0,150.0,1.0,0.0
6849,76.0,0.0,150.0,2.0,0.0
6850,76.0,0.0,60.0,2.0,0.0
6851,80.0,40.0,60.0,1.0,0.0
6852,78.0,124.0,60.0,2.0,0.0
6853,81.0,0.0,60.0,1.0,0.0
6854,68.0,0.0,150.0,5.0,0.0
6855,76.0,336.0,150.0,2.0,0.0
6856,64.0,0.0,150.0,5.0,0.0
6857,80.0,0.0,150.0,1.0,0.0
6858,63.0,0.0,120.0,5.0,0.0
6859,66.0,0.0,120.0,5.0,0.0
6860,78.0,144.0,120.0,1.0,0.0
6861,75.0,0.0,120.0,2.0,0.0
6862,68.0,0.0,150.0,5.0,0.0
6863,64.0,0.0,150.0,5.0,0.0
6864,80.0,0.0,150.0,1.0,0.0
6865,76.0,576.0,150.0,2.0,0.0
6866,80.0,0.0,480.0,2.0,0.0
6867,59.0,0.0,720.0,5.0,0.0
6868,71.0,0.0,480.0,5.0,0.0
6869,83.0,240.0,480.0,1.0,0.0
6870,64.0,0.0,240.0,5.0,0.0
6871,68.0,0.0,15.0,5.0,0.0
6872,76.0,655.0,240.0,2.0,0.0
6873,80.0,0.0,240.0,1.0,0.0
6874,35.0,5.0,300.0,5.0,0.0
6875,47.0,60.0,180.0,5.0,0.0
6876,78.0,0.0,15.0,1.0,0.0
6877,71.0,660.0,15.0,2.0,0.0
6878,74.0,0.0,720.0,2.0,0.0
6879,66.0,0.0,15.0,5.0,0.0
6880,59.0,0.0,15.0,5.0,0.0
6881,35.0,55.0,300.0,5.0,0.0
6882,42.0,5.0,180.0,5.0,0.0
6883,78.0,3.0,630.0,1.0,0.0
6884,74.0,0.0,630.0,2.0,0.0
6885,71.0,0.0,630.0,2.0,0.0
6886,66.0,0.0,15.0,5.0,0.0
6887,62.0,0.0,15.0,5.0,0.0
6888,59.0,636.0,15.0,5.0,0.0
6889,35.0,40.0,300.0,5.0,0.0
6890,42.0,0.0,180.0,5.0,0.0
6891,74.0,0.0,60.0,2.0,0.0
6892,78.0,40.0,60.0,1.0,0.0
6893,76.0,124.0,60.0,2.0,0.0
6894,80.0,0.0,60.0,1.0,0.0
6895,74.0,0.0,150.0,2.0,0.0
6896,78.0,0.0,150.0,1.0,0.0
6897,66.0,336.0,150.0,5.0,0.0
6898,62.0,0.0,150.0,5.0,0.0
6899,77.0,0.0,120.0,1.0,0.0
6900,61.0,0.0,120.0,5.0,0.0
6901,65.0,0.0,120.0,5.0,0.0
6902,73.0,144.0,120.0,2.0,0.0
6903,66.0,0.0,150.0,5.0,0.0
6904,62.0,76.0,150.0,5.0,0.0
6905,78.0,0.0,150.0,1.0,0.0
6906,74.0,0.0,150.0,2.0,0.0
6907,74.0,40.0,60.0,2.0,0.0
6908,78.0,0.0,60.0,1.0,0.0
6909,80.0,124.0,60.0,1.0,0.0
6910,76.0,0.0,60.0,2.0,0.0
6911,78.0,336.0,150.0,1.0,0.0
6912,66.0,0.0,150.0,5.0,0.0
6913,62.0,0.0,150.0,5.0,0.0
6914,74.0,0.0,150.0,2.0,0.0
6915,73.0,0.0,120.0,2.0,0.0
6916,65.0,144.0,120.0,5.0,0.0
6917,61.0,0.0,120.0,5.0,0.0
6918,77.0,0.0,120.0,1.0,0.0
6919,74.0,0.0,150.0,2.0,0.0
6920,78.0,576.0,150.0,1.0,0.0
6921,66.0,0.0,150.0,5.0,0.0
6922,62.0,0.0,150.0,5.0,0.0
6923,69.0,0.0,480.0,5.0,0.0
6924,85.0,240.0,480.0,1.0,0.0
6925,73.0,0.0,480.0,5.0,0.0
6926,81.0,0.0,480.0,2.0,0.0
6927,69.0,0.0,240.0,5.0,0.0
6928,66.0,0.0,240.0,5.0,0.0
6929,78.0,0.0,240.0,2.0,0.0
6930,81.0,660.0,240.0,1.0,0.0
6931,73.0,0.0,720.0,2.0,0.0
6932,68.0,480.0,720.0,5.0,0.0
6933,61.0,0.0,15.0,5.0,0.0
6934,80.0,0.0,720.0,1.0,0.0
6935,37.0,60.0,300.0,5.0,0.0
6936,49.0,0.0,180.0,5.0,0.0
6937,85.0,0.0,480.0,1.0,0.0
6938,73.0,0.0,480.0,5.0,0.0
6939,61.0,0.0,15.0,5.0,0.0
6940,69.0,240.0,480.0,5.0,0.0
6941,81.0,0.0,480.0,2.0,0.0
6942,81.0,0.0,240.0,1.0,0.0
6943,78.0,0.0,240.0,2.0,0.0
6944,66.0,0.0,240.0,5.0,0.0
6945,69.0,660.0,240.0,5.0,0.0
6946,73.0,144.0,720.0,2.0,0.0
6947,68.0,0.0,720.0,5.0,0.0
6948,80.0,0.0,720.0,1.0,0.0
6949,61.0,0.0,720.0,5.0,0.0
6950,37.0,55.0,300.0,5.0,0.0
6951,49.0,5.0,180.0,5.0,0.0
6952,93.0,336.0,150.0,1.0,0.0
6953,90.0,0.0,150.0,2.0,0.0
6954,69.0,0.0,150.0,5.0,0.0
6955,66.0,0.0,150.0,5.0,0.0
6956,81.0,0.0,150.0,2.0,0.0
6957,85.0,0.0,120.0,2.0,0.0
6958,97.0,141.0,120.0,1.0,0.0
6959,73.0,0.0,120.0,5.0,0.0
6960,69.0,0.0,120.0,5.0,0.0
6961,93.0,3.0,120.0,2.0,0.0
6962,93.0,0.0,150.0,1.0,0.0
6963,66.0,0.0,150.0,5.0,0.0
6964,69.0,96.0,150.0,5.0,0.0
6965,81.0,0.0,150.0,2.0,0.0
6966,90.0,0.0,150.0,2.0,0.0
6967,93.0,0.0,150.0,1.0,0.0
6968,81.0,0.0,150.0,2.0,0.0
6969,90.0,0.0,150.0,2.0,0.0
6970,61.0,144.0,15.0,5.0,0.0
6971,66.0,0.0,150.0,5.0,0.0
6972,69.0,336.0,150.0,5.0,0.0
6973,85.0,0.0,120.0,2.0,0.0
6974,93.0,0.0,120.0,2.0,0.0
6975,73.0,3.0,120.0,5.0,0.0
6976,97.0,141.0,120.0,1.0,0.0
6977,93.0,96.0,150.0,1.0,0.0
6978,66.0,0.0,150.0,5.0,0.0
6979,69.0,0.0,15.0,5.0,0.0
6980,90.0,0.0,150.0,2.0,0.0
6981,81.0,0.0,150.0,2.0,0.0
6982,68.0,0.0,720.0,5.0,0.0
6983,85.0,0.0,720.0,2.0,0.0
6984,61.0,0.0,720.0,5.0,0.0
6985,37.0,0.0,300.0,5.0,0.0
6986,49.0,60.0,180.0,5.0,0.0
6987,85.0,0.0,720.0,2.0,0.0
6988,80.0,660.0,15.0,2.0,0.0
6989,89.0,0.0,15.0,2.0,0.0
6990,92.0,0.0,15.0,1.0,0.0
6991,68.0,0.0,720.0,5.0,0.0
6992,61.0,0.0,720.0,5.0,0.0
6993,37.0,60.0,300.0,5.0,0.0
6994,49.0,0.0,180.0,5.0,0.0
6995,68.0,0.0,720.0,5.0,0.0
6996,61.0,0.0,720.0,5.0,0.0
6997,85.0,0.0,720.0,2.0,0.0
6998,92.0,0.0,15.0,1.0,0.0
6999,80.0,660.0,15.0,2.0,0.0
7000,89.0,0.0,720.0,2.0,0.0
7001,37.0,0.0,300.0,5.0,0.0
7002,49.0,60.0,180.0,5.0,0.0
7003,37.0,720.0,300.0,5.0,0.0
7004,49.0,0.0,180.0,5.0,0.0
7005,37.0,0.0,300.0,5.0,0.0
7006,49.0,252.0,180.0,5.0,0.0
7007,73.0,240.0,180.0,1.0,0.0
7008,61.0,0.0,180.0,5.0,0.0
7009,70.0,0.0,180.0,2.0,0.0
7010,58.0,0.0,180.0,5.0,0.0
7011,66.0,240.0,180.0,5.0,0.0
7012,78.0,0.0,180.0,1.0,0.0
7013,68.0,0.0,180.0,5.0,0.0
7014,61.0,0.0,180.0,5.0,0.0
7015,73.0,0.0,180.0,2.0,0.0
7016,80.0,708.0,180.0,1.0,0.0
7017,82.0,0.0,720.0,1.0,0.0
7018,73.0,0.0,720.0,2.0,0.0
7019,78.0,0.0,720.0,2.0,0.0
7020,42.0,0.0,300.0,5.0,0.0
7021,49.0,60.0,180.0,5.0,0.0
7022,78.0,3.0,630.0,2.0,0.0
7023,73.0,0.0,630.0,2.0,0.0
7024,82.0,3.0,630.0,1.0,0.0
7025,66.0,633.0,15.0,5.0,0.0
7026,70.0,0.0,15.0,5.0,0.0
7027,42.0,5.0,300.0,5.0,0.0
7028,49.0,40.0,180.0,5.0,0.0
7029,82.0,40.0,60.0,1.0,0.0
7030,78.0,0.0,60.0,2.0,0.0
7031,80.0,124.0,60.0,2.0,0.0
7032,83.0,0.0,60.0,1.0,0.0
7033,82.0,336.0,150.0,1.0,0.0
7034,70.0,0.0,150.0,5.0,0.0
7035,66.0,0.0,150.0,5.0,0.0
7036,78.0,0.0,150.0,2.0,0.0
7037,77.0,0.0,120.0,2.0,0.0
7038,68.0,0.0,120.0,5.0,0.0
7039,65.0,0.0,120.0,5.0,0.0
7040,80.0,144.0,120.0,1.0,0.0
7041,66.0,0.0,150.0,5.0,0.0
7042,78.0,0.0,150.0,2.0,0.0
7043,82.0,0.0,150.0,1.0,0.0
7044,70.0,76.0,150.0,5.0,0.0
7045,78.0,0.0,60.0,2.0,0.0
7046,82.0,40.0,60.0,1.0,0.0
7047,80.0,124.0,60.0,2.0,0.0
7048,83.0,0.0,60.0,1.0,0.0
7049,78.0,0.0,150.0,2.0,0.0
7050,82.0,0.0,150.0,1.0,0.0
7051,70.0,0.0,150.0,5.0,0.0
7052,66.0,336.0,150.0,5.0,0.0
7053,65.0,0.0,120.0,5.0,0.0
7054,77.0,0.0,120.0,2.0,0.0
7055,68.0,144.0,120.0,5.0,0.0
7056,80.0,0.0,120.0,1.0,0.0
7057,78.0,576.0,150.0,2.0,0.0
7058,82.0,0.0,150.0,1.0,0.0
7059,66.0,0.0,150.0,5.0,0.0
7060,70.0,0.0,150.0,5.0,0.0
7061,85.0,0.0,480.0,1.0,0.0
7062,73.0,240.0,480.0,5.0,0.0
7063,70.0,0.0,480.0,5.0,0.0
7064,82.0,0.0,480.0,2.0,0.0
7065,78.0,0.0,240.0,2.0,0.0
7066,82.0,660.0,240.0,1.0,0.0
7067,70.0,0.0,240.0,5.0,0.0
7068,66.0,0.0,240.0,5.0,0.0
7069,61.0,0.0,15.0,5.0,0.0
7070,37.0,0.0,300.0,5.0,0.0
7071,49.0,60.0,180.0,5.0,0.0
7072,68.0,0.0,15.0,5.0,0.0
7073,80.0,0.0,15.0,1.0,0.0
7074,73.0,0.0,15.0,2.0,0.0
7075,76.0,0.0,720.0,2.0,0.0
7076,61.0,0.0,720.0,5.0,0.0
7077,64.0,0.0,720.0,5.0,0.0
7078,37.0,55.0,300.0,5.0,0.0
7079,44.0,5.0,180.0,5.0,0.0
7080,68.0,21.0,630.0,5.0,0.0
7081,64.0,0.0,630.0,5.0,0.0
7082,61.0,0.0,630.0,5.0,0.0
7083,80.0,3.0,630.0,1.0,0.0
7084,73.0,0.0,630.0,2.0,0.0
7085,76.0,0.0,630.0,2.0,0.0
7086,37.0,0.0,300.0,5.0,0.0
7087,44.0,40.0,180.0,5.0,0.0
7088,80.0,0.0,60.0,1.0,0.0
7089,76.0,40.0,60.0,2.0,0.0
7090,81.0,0.0,60.0,1.0,0.0
7091,78.0,124.0,60.0,2.0,0.0
7092,76.0,0.0,150.0,2.0,0.0
7093,68.0,0.0,150.0,5.0,0.0
7094,80.0,0.0,150.0,1.0,0.0
7095,64.0,336.0,150.0,5.0,0.0
7096,75.0,144.0,120.0,2.0,0.0
7097,66.0,0.0,120.0,5.0,0.0
7098,63.0,0.0,120.0,5.0,0.0
7099,78.0,0.0,120.0,1.0,0.0
7100,80.0,0.0,150.0,1.0,0.0
7101,64.0,0.0,150.0,5.0,0.0
7102,68.0,0.0,150.0,5.0,0.0
7103,76.0,76.0,150.0,2.0,0.0
7104,76.0,40.0,60.0,2.0,0.0
7105,80.0,0.0,60.0,1.0,0.0
7106,81.0,0.0,60.0,1.0,0.0
7107,78.0,124.0,60.0,2.0,0.0
7108,68.0,0.0,150.0,5.0,0.0
7109,80.0,336.0,150.0,1.0,0.0
7110,64.0,0.0,150.0,5.0,0.0
7111,76.0,0.0,150.0,2.0,0.0
7112,66.0,144.0,120.0,5.0,0.0
7113,63.0,0.0,120.0,5.0,0.0
7114,78.0,0.0,120.0,1.0,0.0
7115,75.0,0.0,120.0,2.0,0.0
7116,80.0,0.0,150.0,1.0,0.0
7117,76.0,0.0,150.0,2.0,0.0
7118,64.0,576.0,150.0,5.0,0.0
7119,68.0,0.0,150.0,5.0,0.0
7120,71.0,0.0,480.0,5.0,0.0
7121,83.0,0.0,480.0,1.0,0.0
7122,80.0,240.0,480.0,2.0,0.0
7123,80.0,0.0,240.0,1.0,0.0
7124,64.0,0.0,240.0,5.0,0.0
7125,68.0,0.0,15.0,5.0,0.0
7126,76.0,655.0,240.0,2.0,0.0
7127,59.0,0.0,15.0,5.0,0.0
7128,66.0,0.0,720.0,5.0,0.0
7129,71.0,0.0,720.0,2.0,0.0
7130,35.0,5.0,300.0,5.0,0.0
7131,47.0,60.0,180.0,5.0,0.0
7132,62.0,0.0,720.0,5.0,0.0
7133,66.0,0.0,720.0,5.0,0.0
7134,59.0,0.0,15.0,5.0,0.0
7135,74.0,0.0,720.0,2.0,0.0
7136,71.0,0.0,720.0,2.0,0.0
7137,78.0,660.0,15.0,1.0,0.0
7138,35.0,55.0,300.0,5.0,0.0
7139,42.0,5.0,180.0,5.0,0.0
7140,74.0,0.0,630.0,2.0,0.0
7141,78.0,636.0,15.0,1.0,0.0
7142,71.0,0.0,630.0,2.0,0.0
7143,66.0,0.0,630.0,5.0,0.0
7144,62.0,21.0,630.0,5.0,0.0
7145,59.0,0.0,630.0,5.0,0.0
7146,35.0,0.0,300.0,5.0,0.0
7147,42.0,40.0,180.0,5.0,0.0
7148,74.0,40.0,60.0,2.0,0.0
7149,78.0,0.0,60.0,1.0,0.0
7150,76.0,0.0,60.0,2.0,0.0
7151,80.0,124.0,60.0,1.0,0.0
7152,78.0,336.0,150.0,1.0,0.0
7153,66.0,0.0,150.0,5.0,0.0
7154,74.0,0.0,150.0,2.0,0.0
7155,62.0,0.0,150.0,5.0,0.0
7156,73.0,144.0,120.0,2.0,0.0
7157,61.0,0.0,120.0,5.0,0.0
7158,65.0,0.0,120.0,5.0,0.0
7159,77.0,0.0,120.0,1.0,0.0
7160,66.0,0.0,150.0,5.0,0.0
7161,62.0,76.0,150.0,5.0,0.0
7162,78.0,0.0,150.0,1.0,0.0
7163,74.0,0.0,150.0,2.0,0.0
7164,74.0,0.0,60.0,2.0,0.0
7165,78.0,40.0,60.0,1.0,0.0
7166,80.0,124.0,60.0,1.0,0.0
7167,76.0,0.0,60.0,2.0,0.0
7168,66.0,0.0,150.0,5.0,0.0
7169,62.0,0.0,150.0,5.0,0.0
7170,74.0,0.0,150.0,2.0,0.0
7171,78.0,336.0,150.0,1.0,0.0
7172,73.0,144.0,120.0,2.0,0.0
7173,77.0,0.0,120.0,1.0,0.0
7174,65.0,0.0,120.0,5.0,0.0
7175,61.0,0.0,120.0,5.0,0.0
7176,78.0,0.0,150.0,1.0,0.0
7177,62.0,0.0,150.0,5.0,0.0
7178,74.0,0.0,150.0,2.0,0.0
7179,66.0,576.0,150.0,5.0,0.0
7180,81.0,0.0,480.0,2.0,0.0
7181,61.0,0.0,720.0,5.0,0.0
7182,73.0,240.0,480.0,5.0,0.0
7183,85.0,0.0,480.0,1.0,0.0
7184,69.0,0.0,480.0,5.0,0.0
7185,78.0,660.0,240.0,2.0,0.0
7186,81.0,0.0,240.0,1.0,0.0
7187,66.0,0.0,240.0,5.0,0.0
7188,69.0,0.0,240.0,5.0,0.0
7189,68.0,0.0,720.0,5.0,0.0
7190,73.0,480.0,720.0,2.0,0.0
7191,80.0,0.0,720.0,1.0,0.0
7192,37.0,0.0,300.0,5.0,0.0
7193,49.0,60.0,180.0,5.0,0.0
7194,81.0,240.0,480.0,2.0,0.0
7195,61.0,0.0,15.0,5.0,0.0
7196,85.0,0.0,480.0,1.0,0.0
7197,73.0,0.0,480.0,5.0,0.0
7198,81.0,0.0,240.0,1.0,0.0
7199,78.0,0.0,240.0,2.0,0.0
7200,66.0,0.0,240.0,5.0,0.0
7201,69.0,0.0,15.0,5.0,0.0
7202,73.0,0.0,720.0,2.0,0.0
7203,80.0,0.0,720.0,1.0,0.0
7204,61.0,0.0,15.0,5.0,0.0
7205,68.0,144.0,720.0,5.0,0.0
7206,37.0,55.0,300.0,5.0,0.0
7207,49.0,5.0,180.0,5.0,0.0
7208,93.0,0.0,150.0,1.0,0.0
7209,66.0,336.0,150.0,5.0,0.0
7210,69.0,0.0,150.0,5.0,0.0
7211,61.0,0.0,15.0,5.0,0.0
7212,81.0,0.0,150.0,2.0,0.0
7213,90.0,0.0,150.0,2.0,0.0
7214,97.0,141.0,120.0,1.0,0.0
7215,73.0,0.0,120.0,5.0,0.0
7216,69.0,0.0,120.0,5.0,0.0
7217,85.0,3.0,120.0,2.0,0.0
7218,93.0,0.0,120.0,2.0,0.0
7219,90.0,0.0,150.0,2.0,0.0
7220,81.0,0.0,150.0,2.0,0.0
7221,66.0,0.0,150.0,5.0,0.0
7222,69.0,96.0,150.0,5.0,0.0
7223,93.0,0.0,150.0,1.0,0.0
7224,69.0,0.0,150.0,5.0,0.0
7225,66.0,0.0,150.0,5.0,0.0
7226,61.0,144.0,15.0,5.0,0.0
7227,90.0,336.0,150.0,2.0,0.0
7228,81.0,0.0,150.0,2.0,0.0
7229,93.0,0.0,150.0,1.0,0.0
7230,73.0,0.0,120.0,5.0,0.0
7231,93.0,0.0,120.0,2.0,0.0
7232,85.0,3.0,120.0,2.0,0.0
7233,97.0,141.0,120.0,1.0,0.0
7234,69.0,0.0,120.0,5.0,0.0
7235,69.0,0.0,150.0,5.0,0.0
7236,81.0,96.0,150.0,2.0,0.0
7237,66.0,0.0,150.0,5.0,0.0
7238,93.0,0.0,150.0,1.0,0.0
7239,90.0,0.0,150.0,2.0,0.0
7240,68.0,0.0,720.0,5.0,0.0
7241,61.0,660.0,15.0,5.0,0.0
7242,85.0,0.0,720.0,2.0,0.0
7243,80.0,0.0,720.0,2.0,0.0
7244,89.0,0.0,720.0,2.0,0.0
7245,37.0,60.0,300.0,5.0,0.0
7246,49.0,0.0,180.0,5.0,0.0
7247,92.0,0.0,15.0,1.0,0.0
7248,61.0,0.0,720.0,5.0,0.0
7249,68.0,0.0,720.0,5.0,0.0
7250,89.0,0.0,720.0,2.0,0.0
7251,37.0,0.0,300.0,5.0,0.0
7252,49.0,60.0,180.0,5.0,0.0
7253,61.0,0.0,720.0,5.0,0.0
7254,68.0,0.0,720.0,5.0,0.0
7255,80.0,0.0,15.0,2.0,0.0
7256,85.0,0.0,15.0,2.0,0.0
7257,92.0,0.0,720.0,1.0,0.0
7258,89.0,0.0,720.0,2.0,0.0
7259,37.0,60.0,300.0,5.0,0.0
7260,49.0,0.0,180.0,5.0,0.0
7261,37.0,0.0,300.0,5.0,0.0
7262,49.0,720.0,180.0,5.0,0.0
7263,37.0,0.0,300.0,5.0,0.0
7264,49.0,252.0,180.0,5.0,0.0
7265,73.0,240.0,180.0,1.0,0.0
7266,61.0,0.0,180.0,5.0,0.0
7267,78.0,0.0,180.0,1.0,0.0
7268,66.0,0.0,180.0,5.0,0.0
7269,58.0,0.0,180.0,5.0,0.0
7270,70.0,240.0,180.0,2.0,0.0
7271,70.0,0.0,180.0,5.0,0.0
7272,61.0,703.0,180.0,5.0,0.0
7273,82.0,0.0,180.0,1.0,0.0
7274,73.0,0.0,180.0,2.0,0.0
7275,82.0,0.0,720.0,1.0,0.0
7276,67.0,0.0,720.0,5.0,0.0
7277,70.0,0.0,720.0,5.0,0.0
7278,39.0,5.0,300.0,5.0,0.0
7279,51.0,60.0,180.0,5.0,0.0
7280,63.0,0.0,15.0,5.0,0.0
7281,79.0,0.0,15.0,2.0,0.0
7282,75.0,633.0,15.0,2.0,0.0
7283,82.0,0.0,630.0,1.0,0.0
7284,67.0,0.0,630.0,5.0,0.0
7285,70.0,21.0,630.0,5.0,0.0
7286,39.0,0.0,300.0,5.0,0.0
7287,51.0,40.0,180.0,5.0,0.0
7288,79.0,0.0,60.0,2.0,0.0
7289,82.0,40.0,60.0,1.0,0.0
7290,80.0,0.0,60.0,2.0,0.0
7291,83.0,124.0,60.0,1.0,0.0
7292,79.0,0.0,150.0,2.0,0.0
7293,70.0,0.0,150.0,5.0,0.0
7294,67.0,0.0,150.0,5.0,0.0
7295,82.0,336.0,150.0,1.0,0.0
7296,68.0,0.0,120.0,5.0,0.0
7297,65.0,144.0,120.0,5.0,0.0
7298,77.0,0.0,120.0,2.0,0.0
7299,80.0,0.0,120.0,1.0,0.0
7300,82.0,0.0,150.0,1.0,0.0
7301,70.0,0.0,150.0,5.0,0.0
7302,79.0,0.0,150.0,2.0,0.0
7303,67.0,76.0,150.0,5.0,0.0
7304,82.0,0.0,60.0,1.0,0.0
7305,79.0,40.0,60.0,2.0,0.0
7306,80.0,0.0,60.0,2.0,0.0
7307,83.0,124.0,60.0,1.0,0.0
7308,70.0,0.0,150.0,5.0,0.0
7309,82.0,0.0,150.0,1.0,0.0
7310,67.0,336.0,150.0,5.0,0.0
7311,79.0,0.0,150.0,2.0,0.0
7312,77.0,0.0,120.0,2.0,0.0
7313,80.0,0.0,120.0,1.0,0.0
7314,65.0,144.0,120.0,5.0,0.0
7315,68.0,0.0,120.0,5.0,0.0
7316,67.0,0.0,150.0,5.0,0.0
7317,70.0,576.0,150.0,5.0,0.0
7318,79.0,0.0,150.0,2.0,0.0
7319,82.0,0.0,150.0,1.0,0.0
7320,87.0,0.0,480.0,1.0,0.0
7321,75.0,240.0,480.0,5.0,0.0
7322,70.0,0.0,480.0,5.0,0.0
7323,63.0,0.0,720.0,5.0,0.0
7324,82.0,0.0,480.0,2.0,0.0
7325,67.0,0.0,240.0,5.0,0.0
7326,70.0,0.0,240.0,5.0,0.0
7327,79.0,0.0,240.0,2.0,0.0
7328,82.0,660.0,240.0,1.0,0.0
7329,68.0,0.0,720.0,5.0,0.0
7330,71.0,0.0,720.0,2.0,0.0
7331,80.0,0.0,720.0,2.0,0.0
7332,83.0,660.0,720.0,1.0,0.0
7333,39.0,60.0,300.0,5.0,0.0
7334,51.0,0.0,180.0,5.0,0.0
7335,72.0,0.0,720.0,5.0,0.0
7336,65.0,0.0,720.0,5.0,0.0
7337,77.0,0.0,720.0,2.0,0.0
7338,69.0,0.0,720.0,5.0,0.0
7339,39.0,0.0,300.0,5.0,0.0
7340,51.0,60.0,180.0,5.0,0.0
7341,69.0,0.0,630.0,5.0,0.0
7342,72.0,3.0,630.0,5.0,0.0
7343,63.0,0.0,15.0,5.0,0.0
7344,84.0,0.0,15.0,1.0,0.0
7345,65.0,0.0,630.0,5.0,0.0
7346,81.0,633.0,15.0,2.0,0.0
7347,77.0,21.0,630.0,2.0,0.0
7348,39.0,0.0,300.0,5.0,0.0
7349,51.0,40.0,180.0,5.0,0.0
7350,81.0,0.0,60.0,2.0,0.0
7351,84.0,40.0,60.0,1.0,0.0
7352,85.0,124.0,60.0,1.0,0.0
7353,82.0,0.0,60.0,2.0,0.0
7354,80.0,0.0,150.0,2.0,0.0
7355,72.0,0.0,150.0,5.0,0.0
7356,84.0,0.0,150.0,1.0,0.0
7357,68.0,336.0,150.0,5.0,0.0
7358,79.0,144.0,120.0,2.0,0.0
7359,82.0,0.0,120.0,1.0,0.0
7360,70.0,0.0,120.0,5.0,0.0
7361,67.0,0.0,120.0,5.0,0.0
7362,72.0,76.0,150.0,5.0,0.0
7363,84.0,0.0,150.0,1.0,0.0
7364,81.0,0.0,150.0,2.0,0.0
7365,69.0,0.0,150.0,5.0,0.0
7366,84.0,0.0,60.0,1.0,0.0
7367,81.0,40.0,60.0,2.0,0.0
7368,85.0,124.0,60.0,1.0,0.0
7369,82.0,0.0,60.0,2.0,0.0
7370,72.0,0.0,150.0,5.0,0.0
7371,69.0,336.0,150.0,5.0,0.0
7372,81.0,0.0,150.0,2.0,0.0
7373,84.0,0.0,150.0,1.0,0.0
7374,79.0,0.0,120.0,2.0,0.0
7375,82.0,144.0,120.0,1.0,0.0
7376,70.0,0.0,120.0,5.0,0.0
7377,67.0,0.0,120.0,5.0,0.0
7378,81.0,0.0,150.0,2.0,0.0
7379,72.0,0.0,150.0,5.0,0.0
7380,84.0,0.0,150.0,1.0,0.0
7381,69.0,576.0,150.0,5.0,0.0
7382,85.0,240.0,480.0,2.0,0.0
7383,89.0,0.0,480.0,1.0,0.0
7384,73.0,0.0,480.0,5.0,0.0
7385,65.0,0.0,720.0,5.0,0.0
7386,77.0,0.0,480.0,5.0,0.0
7387,69.0,0.0,240.0,5.0,0.0
7388,72.0,0.0,240.0,5.0,0.0
7389,84.0,0.0,240.0,1.0,0.0
7390,81.0,360.0,240.0,2.0,0.0
7391,85.0,480.0,720.0,1.0,0.0
7392,82.0,0.0,720.0,2.0,0.0
7393,73.0,297.0,360.0,5.0,0.0
7394,70.0,3.0,360.0,5.0,0.0
7395,37.0,0.0,300.0,5.0,0.0
7396,49.0,60.0,180.0,5.0,0.0
7397,81.0,240.0,480.0,2.0,0.0
7398,90.0,0.0,480.0,1.0,0.0
7399,73.0,0.0,480.0,5.0,0.0
7400,78.0,0.0,480.0,5.0,0.0
7401,69.0,0.0,240.0,5.0,0.0
7402,66.0,360.0,240.0,5.0,0.0
7403,81.0,0.0,240.0,1.0,0.0
7404,78.0,0.0,240.0,2.0,0.0
7405,68.0,0.0,360.0,5.0,0.0
7406,73.0,297.0,360.0,5.0,0.0
7407,61.0,0.0,15.0,5.0,0.0
7408,77.0,0.0,720.0,2.0,0.0
7409,85.0,476.0,720.0,1.0,0.0
7410,37.0,55.0,300.0,5.0,0.0
7411,49.0,5.0,180.0,5.0,0.0
7412,61.0,0.0,720.0,5.0,0.0
7413,73.0,0.0,480.0,5.0,0.0
7414,69.0,4.0,480.0,5.0,0.0
7415,90.0,0.0,480.0,1.0,0.0
7416,78.0,0.0,480.0,5.0,0.0
7417,81.0,240.0,480.0,2.0,0.0
7418,69.0,360.0,240.0,5.0,0.0
7419,81.0,0.0,240.0,1.0,0.0
7420,66.0,0.0,240.0,5.0,0.0
7421,78.0,0.0,240.0,2.0,0.0
7422,85.0,472.0,720.0,1.0,0.0
7423,73.0,0.0,360.0,5.0,0.0
7424,61.0,3.0,360.0,5.0,0.0
7425,77.0,0.0,720.0,2.0,0.0
7426,68.0,297.0,360.0,5.0,0.0
7427,37.0,0.0,300.0,5.0,0.0
7428,49.0,60.0,180.0,5.0,0.0
7429,69.0,8.0,480.0,5.0,0.0
7430,81.0,240.0,480.0,2.0,0.0
7431,61.0,0.0,720.0,5.0,0.0
7432,78.0,0.0,480.0,5.0,0.0
7433,90.0,0.0,480.0,1.0,0.0
7434,73.0,0.0,15.0,5.0,0.0
7435,73.0,0.0,15.0,5.0,0.0
7436,85.0,0.0,15.0,1.0,0.0
7437,69.0,0.0,15.0,5.0,0.0
7438,81.0,240.0,15.0,2.0,0.0
7439,71.0,0.0,240.0,5.0,0.0
7440,83.0,240.0,240.0,1.0,0.0
7441,80.0,0.0,240.0,2.0,0.0
7442,68.0,0.0,240.0,5.0,0.0
7443,66.0,0.0,240.0,5.0,0.0
7444,69.0,0.0,240.0,5.0,0.0
7445,81.0,0.0,240.0,1.0,0.0
7446,78.0,0.0,240.0,2.0,0.0
7447,68.0,660.0,720.0,5.0,0.0
7448,80.0,0.0,720.0,1.0,0.0
7449,61.0,660.0,15.0,5.0,0.0
7450,65.0,0.0,720.0,5.0,0.0
7451,37.0,60.0,300.0,5.0,0.0
7452,49.0,0.0,180.0,5.0,0.0
7453,73.0,0.0,15.0,2.0,0.0
7454,80.0,0.0,720.0,1.0,0.0
7455,61.0,0.0,720.0,5.0,0.0
7456,68.0,0.0,720.0,5.0,0.0
7457,37.0,60.0,300.0,5.0,0.0
7458,49.0,0.0,180.0,5.0,0.0
7459,80.0,0.0,720.0,1.0,0.0
7460,73.0,0.0,15.0,2.0,0.0
7461,68.0,0.0,720.0,5.0,0.0
7462,61.0,0.0,720.0,5.0,0.0
7463,65.0,660.0,15.0,5.0,0.0
7464,37.0,60.0,300.0,5.0,0.0
7465,49.0,0.0,180.0,5.0,0.0
7466,37.0,0.0,300.0,5.0,0.0
7467,49.0,720.0,180.0,5.0,0.0
7468,37.0,0.0,300.0,5.0,0.0
7469,49.0,252.0,180.0,5.0,0.0
7470,61.0,0.0,180.0,5.0,0.0
7471,85.0,240.0,180.0,1.0,0.0
7472,73.0,0.0,180.0,2.0,0.0
7473,90.0,0.0,180.0,1.0,0.0
7474,66.0,0.0,180.0,5.0,0.0
7475,58.0,0.0,180.0,5.0,0.0
7476,82.0,240.0,180.0,2.0,0.0
7477,78.0,0.0,180.0,2.0,0.0
7478,80.0,0.0,180.0,2.0,0.0
7479,85.0,0.0,180.0,2.0,0.0
7480,92.0,0.0,180.0,1.0,0.0
7481,68.0,703.0,180.0,5.0,0.0
7482,61.0,0.0,180.0,5.0,0.0
7483,58.0,0.0,720.0,5.0,0.0
7484,42.0,5.0,300.0,5.0,0.0
7485,49.0,60.0,180.0,5.0,0.0
7486,85.0,0.0,15.0,2.0,0.0
7487,82.0,0.0,15.0,2.0,0.0
7488,94.0,0.0,15.0,1.0,0.0
7489,90.0,0.0,15.0,2.0,0.0
7490,58.0,0.0,630.0,5.0,0.0
7491,61.0,633.0,15.0,5.0,0.0
7492,70.0,0.0,15.0,5.0,0.0
7493,66.0,0.0,15.0,5.0,0.0
7494,42.0,35.0,300.0,5.0,0.0
7495,49.0,5.0,180.0,5.0,0.0
7496,94.0,0.0,60.0,1.0,0.0
7497,82.0,40.0,60.0,2.0,0.0
7498,95.0,0.0,60.0,1.0,0.0
7499,83.0,124.0,60.0,2.0,0.0
7500,82.0,0.0,150.0,2.0,0.0
7501,90.0,0.0,150.0,2.0,0.0
7502,94.0,0.0,150.0,1.0,0.0
7503,66.0,0.0,150.0,5.0,0.0
7504,70.0,336.0,150.0,5.0,0.0
7505,89.0,0.0,120.0,2.0,0.0
7506,80.0,144.0,120.0,2.0,0.0
7507,68.0,0.0,120.0,5.0,0.0
7508,65.0,0.0,120.0,5.0,0.0
7509,92.0,0.0,120.0,1.0,0.0
7510,90.0,0.0,150.0,2.0,0.0
7511,94.0,76.0,150.0,1.0,0.0
7512,82.0,0.0,150.0,2.0,0.0
7513,70.0,0.0,150.0,5.0,0.0
7514,66.0,0.0,150.0,5.0,0.0
7515,94.0,40.0,60.0,1.0,0.0
7516,82.0,0.0,60.0,2.0,0.0
7517,95.0,0.0,60.0,1.0,0.0
7518,83.0,124.0,60.0,2.0,0.0
7519,70.0,336.0,150.0,5.0,0.0
7520,82.0,0.0,150.0,2.0,0.0
7521,66.0,0.0,150.0,5.0,0.0
7522,90.0,0.0,150.0,2.0,0.0
7523,94.0,0.0,150.0,1.0,0.0
7524,68.0,144.0,120.0,5.0,0.0
7525,92.0,0.0,120.0,1.0,0.0
7526,89.0,0.0,120.0,2.0,0.0
7527,65.0,0.0,120.0,5.0,0.0
7528,80.0,0.0,120.0,2.0,0.0
7529,66.0,0.0,150.0,5.0,0.0
7530,70.0,0.0,150.0,5.0,0.0
7531,94.0,576.0,150.0,1.0,0.0
7532,82.0,0.0,150.0,2.0,0.0
7533,90.0,0.0,150.0,2.0,0.0
7534,61.0,0.0,720.0,5.0,0.0
7535,94.0,0.0,480.0,2.0,0.0
7536,97.0,0.0,480.0,1.0,0.0
7537,73.0,0.0,480.0,5.0,0.0
7538,85.0,0.0,480.0,2.0,0.0
7539,66.0,0.0,240.0,5.0,0.0
7540,70.0,240.0,15.0,5.0,0.0
7541,90.0,0.0,240.0,2.0,0.0
7542,82.0,0.0,240.0,2.0,0.0
7543,94.0,660.0,240.0,1.0,0.0
7544,68.0,0.0,720.0,5.0,0.0
7545,85.0,0.0,720.0,2.0,0.0
7546,80.0,0.0,720.0,2.0,0.0
7547,92.0,0.0,720.0,1.0,0.0
7548,37.0,55.0,300.0,5.0,0.0
7549,49.0,5.0,180.0,5.0,0.0
7550,92.0,0.0,720.0,1.0,0.0
7551,61.0,660.0,15.0,5.0,0.0
7552,64.0,0.0,720.0,5.0,0.0
7553,68.0,636.0,720.0,5.0,0.0
7554,37.0,60.0,300.0,5.0,0.0
7555,44.0,0.0,180.0,5.0,0.0
7556,88.0,0.0,15.0,2.0,0.0
7557,80.0,0.0,15.0,2.0,0.0
7558,92.0,0.0,630.0,1.0,0.0
7559,61.0,0.0,630.0,5.0,0.0
7560,68.0,21.0,630.0,5.0,0.0
7561,64.0,0.0,630.0,5.0,0.0
7562,37.0,40.0,300.0,5.0,0.0
7563,44.0,0.0,180.0,5.0,0.0
7564,80.0,0.0,60.0,2.0,0.0
7565,92.0,40.0,60.0,1.0,0.0
7566,81.0,0.0,60.0,2.0,0.0
7567,93.0,124.0,60.0,1.0,0.0
7568,80.0,0.0,150.0,2.0,0.0
7569,92.0,0.0,150.0,1.0,0.0
7570,64.0,0.0,150.0,5.0,0.0
7571,68.0,336.0,150.0,5.0,0.0
7572,88.0,0.0,150.0,2.0,0.0
7573,87.0,0.0,120.0,2.0,0.0
7574,78.0,0.0,120.0,2.0,0.0
7575,90.0,144.0,120.0,1.0,0.0
7576,66.0,0.0,120.0,5.0,0.0
7577,63.0,0.0,120.0,5.0,0.0
7578,80.0,76.0,150.0,2.0,0.0
7579,88.0,0.0,150.0,2.0,0.0
7580,64.0,0.0,150.0,5.0,0.0
7581,68.0,0.0,150.0,5.0,0.0
7582,92.0,0.0,150.0,1.0,0.0
7583,80.0,0.0,60.0,2.0,0.0
7584,92.0,40.0,60.0,1.0,0.0
7585,81.0,124.0,60.0,2.0,0.0
7586,93.0,0.0,60.0,1.0,0.0
7587,88.0,336.0,150.0,2.0,0.0
7588,80.0,0.0,150.0,2.0,0.0
7589,92.0,0.0,150.0,1.0,0.0
7590,64.0,0.0,150.0,5.0,0.0
7591,68.0,0.0,150.0,5.0,0.0
7592,78.0,0.0,120.0,2.0,0.0
7593,87.0,144.0,120.0,2.0,0.0
7594,90.0,0.0,120.0,1.0,0.0
7595,66.0,0.0,120.0,5.0,0.0
7596,63.0,0.0,120.0,5.0,0.0
7597,64.0,0.0,150.0,5.0,0.0
7598,92.0,0.0,150.0,1.0,0.0
7599,80.0,0.0,150.0,2.0,0.0
7600,88.0,576.0,150.0,2.0,0.0
7601,68.0,0.0,150.0,5.0,0.0
7602,71.0,0.0,480.0,5.0,0.0
7603,83.0,0.0,480.0,2.0,0.0
7604,95.0,0.0,480.0,1.0,0.0
7605,92.0,0.0,480.0,2.0,0.0
7606,68.0,240.0,15.0,5.0,0.0
7607,88.0,0.0,240.0,2.0,0.0
7608,80.0,0.0,240.0,2.0,0.0
7609,64.0,0.0,240.0,5.0,0.0
7610,92.0,660.0,240.0,1.0,0.0
7611,59.0,0.0,15.0,5.0,0.0
7612,83.0,0.0,720.0,2.0,0.0
7613,35.0,60.0,300.0,5.0,0.0
7614,47.0,0.0,180.0,5.0,0.0
7615,59.0,636.0,720.0,5.0,0.0
7616,90.0,0.0,15.0,1.0,0.0
7617,78.0,0.0,15.0,2.0,0.0
7618,62.0,0.0,720.0,5.0,0.0
7619,66.0,660.0,15.0,5.0,0.0
7620,35.0,60.0,300.0,5.0,0.0
7621,42.0,0.0,180.0,5.0,0.0
7622,86.0,0.0,15.0,2.0,0.0
7623,78.0,0.0,15.0,2.0,0.0
7624,59.0,3.0,630.0,5.0,0.0
7625,62.0,0.0,630.0,5.0,0.0
7626,66.0,21.0,630.0,5.0,0.0
7627,90.0,0.0,630.0,1.0,0.0
7628,35.0,40.0,300.0,5.0,0.0
7629,42.0,0.0,180.0,5.0,0.0
7630,78.0,0.0,60.0,2.0,0.0
7631,90.0,40.0,60.0,1.0,0.0
7632,80.0,0.0,60.0,2.0,0.0
7633,92.0,124.0,60.0,1.0,0.0
7634,62.0,0.0,150.0,5.0,0.0
7635,90.0,0.0,150.0,1.0,0.0
7636,86.0,336.0,150.0,2.0,0.0
7637,78.0,0.0,150.0,2.0,0.0
7638,66.0,0.0,150.0,5.0,0.0
7639,77.0,0.0,120.0,2.0,0.0
7640,65.0,0.0,120.0,5.0,0.0
7641,85.0,0.0,120.0,2.0,0.0
7642,89.0,0.0,120.0,1.0,0.0
7643,61.0,144.0,120.0,5.0,0.0
7644,86.0,0.0,150.0,2.0,0.0
7645,78.0,0.0,150.0,2.0,0.0
7646,90.0,76.0,150.0,1.0,0.0
7647,62.0,0.0,150.0,5.0,0.0
7648,66.0,0.0,150.0,5.0,0.0
7649,90.0,40.0,60.0,1.0,0.0
7650,78.0,0.0,60.0,2.0,0.0
7651,80.0,0.0,60.0,2.0,0.0
7652,92.0,124.0,60.0,1.0,0.0
7653,62.0,0.0,150.0,5.0,0.0
7654,66.0,0.0,150.0,5.0,0.0
7655,78.0,336.0,150.0,2.0,0.0
7656,86.0,0.0,150.0,2.0,0.0
7657,90.0,0.0,150.0,1.0,0.0
7658,77.0,0.0,120.0,2.0,0.0
7659,89.0,0.0,120.0,1.0,0.0
7660,65.0,0.0,120.0,5.0,0.0
7661,61.0,0.0,120.0,5.0,0.0
7662,85.0,144.0,120.0,2.0,0.0
7663,66.0,240.0,150.0,5.0,0.0
7664,90.0,0.0,150.0,1.0,0.0
7665,62.0,0.0,150.0,5.0,0.0
7666,78.0,0.0,150.0,2.0,0.0
7667,86.0,0.0,150.0,2.0,0.0
7668,82.0,336.0,150.0,2.0,0.0
7669,73.0,0.0,150.0,2.0,0.0
7670,37.0,0.0,150.0,5.0,0.0
7671,49.0,0.0,150.0,5.0,0.0
7672,66.0,0.0,150.0,5.0,0.0
7673,85.0,0.0,150.0,1.0,0.0
7674,66.0,0.0,120.0,5.0,0.0
7675,82.0,0.0,120.0,2.0,0.0
7676,90.0,120.0,120.0,1.0,0.0
7677,78.0,0.0,120.0,2.0,0.0
7678,58.0,0.0,120.0,5.0,0.0
7679,70.0,0.0,150.0,5.0,0.0
7680,94.0,0.0,150.0,1.0,0.0
7681,82.0,3.0,120.0,2.0,0.0
7682,85.0,226.0,150.0,2.0,0.0
7683,90.0,0.0,150.0,2.0,0.0
7684,61.0,21.0,120.0,5.0,0.0
7685,97.0,14.0,120.0,1.0,0.0
7686,66.0,0.0,150.0,5.0,0.0
7687,85.0,0.0,150.0,2.0,0.0
7688,94.0,0.0,150.0,2.0,0.0
7689,70.0,336.0,150.0,5.0,0.0
7690,94.0,141.0,120.0,1.0,0.0
7691,82.0,0.0,120.0,2.0,0.0
7692,61.0,0.0,120.0,5.0,0.0
7693,90.0,0.0,120.0,2.0,0.0
7694,70.0,3.0,120.0,5.0,0.0
7695,82.0,576.0,150.0,2.0,0.0
7696,78.0,0.0,150.0,2.0,0.0
7697,58.0,0.0,150.0,5.0,0.0
7698,66.0,0.0,150.0,5.0,0.0
7699,90.0,0.0,150.0,1.0,0.0
7700,68.0,0.0,480.0,5.0,0.0
7701,89.0,0.0,480.0,2.0,0.0
7702,80.0,0.0,480.0,2.0,0.0
7703,92.0,0.0,480.0,1.0,0.0
7704,85.0,240.0,480.0,2.0,0.0
7705,85.0,0.0,240.0,1.0,0.0
7706,61.0,0.0,15.0,5.0,0.0
7707,73.0,660.0,240.0,2.0,0.0
7708,90.0,0.0,720.0,2.0,0.0
7709,70.0,0.0,720.0,5.0,0.0
7710,66.0,0.0,720.0,5.0,0.0
7711,58.0,0.0,720.0,5.0,0.0
7712,85.0,0.0,720.0,2.0,0.0
7713,94.0,480.0,720.0,1.0,0.0
7714,82.0,0.0,720.0,2.0,0.0
7715,42.0,60.0,300.0,5.0,0.0
7716,49.0,0.0,180.0,5.0,0.0
7717,61.0,0.0,15.0,5.0,0.0
7718,68.0,0.0,480.0,5.0,0.0
7719,89.0,0.0,480.0,2.0,0.0
7720,85.0,240.0,480.0,2.0,0.0
7721,80.0,0.0,480.0,2.0,0.0
7722,92.0,0.0,480.0,1.0,0.0
7723,73.0,0.0,240.0,2.0,0.0
7724,85.0,660.0,240.0,1.0,0.0
7725,61.0,0.0,15.0,5.0,0.0
7726,94.0,0.0,720.0,1.0,0.0
7727,58.0,0.0,720.0,5.0,0.0
7728,82.0,0.0,720.0,2.0,0.0
7729,66.0,0.0,720.0,5.0,0.0
7730,85.0,144.0,720.0,2.0,0.0
7731,90.0,0.0,720.0,2.0,0.0
7732,70.0,0.0,720.0,5.0,0.0
7733,42.0,60.0,300.0,5.0,0.0
7734,49.0,0.0,180.0,5.0,0.0
7735,65.0,0.0,150.0,5.0,0.0
7736,89.0,336.0,150.0,2.0,0.0
7737,68.0,0.0,150.0,5.0,0.0
7738,80.0,0.0,150.0,2.0,0.0
7739,92.0,0.0,150.0,1.0,0.0
7740,97.0,141.0,120.0,1.0,0.0
7741,85.0,3.0,120.0,2.0,0.0
7742,73.0,0.0,120.0,2.0,0.0
7743,92.0,240.0,150.0,1.0,0.0
7744,68.0,0.0,150.0,5.0,0.0
7745,65.0,0.0,150.0,5.0,0.0
7746,89.0,0.0,150.0,2.0,0.0
7747,80.0,0.0,150.0,2.0,0.0
7748,89.0,0.0,150.0,2.0,0.0
7749,80.0,0.0,150.0,2.0,0.0
7750,65.0,336.0,150.0,5.0,0.0
7751,68.0,0.0,150.0,5.0,0.0
7752,92.0,0.0,150.0,1.0,0.0
7753,97.0,141.0,120.0,1.0,0.0
7754,73.0,0.0,120.0,2.0,0.0
7755,85.0,3.0,120.0,2.0,0.0
7756,68.0,0.0,150.0,5.0,0.0
7757,89.0,0.0,150.0,2.0,0.0
7758,80.0,0.0,150.0,2.0,0.0
7759,65.0,756.0,150.0,5.0,0.0
7760,92.0,0.0,150.0,1.0,0.0
7761,94.0,0.0,720.0,1.0,0.0
7762,66.0,0.0,720.0,5.0,0.0
7763,58.0,0.0,720.0,5.0,0.0
7764,70.0,0.0,720.0,5.0,0.0
7765,61.0,0.0,720.0,5.0,0.0
7766,42.0,0.0,300.0,5.0,0.0
7767,49.0,60.0,180.0,5.0,0.0
7768,90.0,0.0,15.0,2.0,0.0
7769,85.0,0.0,15.0,2.0,0.0
7770,82.0,660.0,15.0,2.0,0.0
7771,66.0,0.0,720.0,5.0,0.0
7772,70.0,0.0,720.0,5.0,0.0
7773,42.0,0.0,300.0,5.0,0.0
7774,49.0,60.0,180.0,5.0,0.0
7775,94.0,0.0,15.0,1.0,0.0
7776,58.0,0.0,15.0,5.0,0.0
7777,61.0,0.0,15.0,5.0,0.0
7778,70.0,0.0,720.0,5.0,0.0
7779,66.0,660.0,720.0,5.0,0.0
7780,82.0,0.0,720.0,2.0,0.0
7781,90.0,660.0,15.0,2.0,0.0
7782,85.0,0.0,15.0,2.0,0.0
7783,42.0,0.0,300.0,5.0,0.0
7784,49.0,60.0,180.0,5.0,0.0
7785,42.0,720.0,300.0,5.0,0.0
7786,49.0,0.0,180.0,5.0,0.0
7787,42.0,0.0,300.0,5.0,0.0
7788,49.0,216.0,180.0,5.0,0.0
7789,61.0,240.0,150.0,1.0,0.0
7790,66.0,240.0,150.0,1.0,0.0
7791,68.0,804.0,150.0,1.0,0.0
7792,70.0,720.0,15.0,1.0,0.0
7793,38.0,204.0,150.0,5.0,0.0
7794,38.0,120.0,120.0,5.0,0.0
7795,53.0,144.0,120.0,5.0,0.0
7796,38.0,240.0,150.0,5.0,0.0
7797,53.0,240.0,150.0,5.0,0.0
7798,38.0,240.0,150.0,5.0,0.0
7799,53.0,816.0,150.0,5.0,0.0
7800,70.0,0.0,720.0,2.0,0.0
7801,70.0,156.0,720.0,2.0,0.0
7802,71.0,720.0,15.0,1.0,0.0
7803,38.0,204.0,150.0,5.0,0.0
7804,38.0,120.0,120.0,5.0,0.0
7805,53.0,144.0,120.0,5.0,0.0
7806,38.0,240.0,150.0,5.0,0.0
7807,53.0,240.0,150.0,5.0,0.0
7808,38.0,240.0,150.0,5.0,0.0
7809,53.0,456.0,150.0,5.0,0.0
7810,70.0,0.0,720.0,2.0,0.0
7811,38.0,120.0,120.0,5.0,0.0
7812,53.0,156.0,120.0,5.0,0.0
7813,38.0,84.0,150.0,5.0,0.0
7814,71.0,360.0,15.0,1.0,0.0
7815,70.0,0.0,720.0,2.0,0.0
7816,38.0,120.0,120.0,5.0,0.0
7817,53.0,156.0,120.0,5.0,0.0
7818,38.0,84.0,150.0,5.0,0.0
7819,71.0,360.0,15.0,1.0,0.0
7820,38.0,120.0,120.0,5.0,0.0
7821,53.0,0.0,120.0,5.0,0.0
7822,71.0,0.0,15.0,1.0,0.0
7823,70.0,360.0,15.0,2.0,0.0
7824,38.0,120.0,120.0,5.0,0.0
7825,53.0,0.0,120.0,5.0,0.0
7826,70.0,360.0,15.0,2.0,0.0
7827,38.0,120.0,120.0,5.0,0.0
7828,53.0,0.0,120.0,5.0,0.0
7829,71.0,0.0,15.0,1.0,0.0
7830,70.0,360.0,15.0,2.0,0.0
7831,38.0,120.0,120.0,5.0,0.0
7832,53.0,0.0,120.0,5.0,0.0
7833,71.0,360.0,15.0,1.0,0.0
7834,70.0,0.0,15.0,2.0,0.0
7835,38.0,120.0,120.0,5.0,0.0
7836,53.0,0.0,120.0,5.0,0.0
7837,71.0,10.0,420.0,1.0,0.0
7838,70.0,5.0,420.0,2.0,0.0
7839,38.0,70.0,120.0,5.0,0.0
7840,53.0,185.0,90.0,5.0,0.0
7841,68.0,200.0,210.0,2.0,0.0
7842,80.0,4.0,150.0,1.0,0.0
7843,71.0,6.0,150.0,1.0,0.0
7844,46.0,36.0,120.0,5.0,0.0
7845,78.0,0.0,150.0,1.0,0.0
7846,70.0,84.0,150.0,2.0,0.0
7847,58.0,156.0,120.0,5.0,0.0
7848,46.0,240.0,150.0,5.0,0.0
7849,77.0,0.0,150.0,1.0,0.0
7850,68.0,0.0,150.0,2.0,0.0
7851,66.0,240.0,150.0,2.0,0.0
7852,58.0,0.0,150.0,5.0,0.0
7853,75.0,0.0,150.0,1.0,0.0
7854,46.0,0.0,150.0,5.0,0.0
7855,74.0,0.0,150.0,1.0,0.0
7856,65.0,240.0,150.0,2.0,0.0
7857,71.0,0.0,150.0,1.0,0.0
7858,58.0,240.0,150.0,5.0,0.0
7859,63.0,0.0,150.0,2.0,0.0
7860,70.0,0.0,150.0,1.0,0.0
7861,62.0,204.0,150.0,2.0,0.0
7862,59.0,84.0,150.0,2.0,0.0
7863,34.0,36.0,120.0,5.0,0.0
7864,68.0,0.0,150.0,1.0,0.0
7865,46.0,156.0,120.0,5.0,0.0
7866,66.0,240.0,150.0,1.0,0.0
7867,58.0,0.0,150.0,2.0,0.0
7868,34.0,0.0,150.0,5.0,0.0
7869,65.0,0.0,150.0,1.0,0.0
7870,56.0,0.0,150.0,2.0,0.0
7871,46.0,240.0,150.0,5.0,0.0
7872,63.0,240.0,150.0,1.0,0.0
7873,54.0,0.0,150.0,2.0,0.0
7874,34.0,0.0,150.0,5.0,0.0
7875,46.0,0.0,150.0,5.0,0.0
7876,62.0,0.0,150.0,1.0,0.0
7877,53.0,240.0,150.0,2.0,0.0
7878,63.0,240.0,150.0,1.0,0.0
7879,39.0,0.0,150.0,5.0,0.0
7880,51.0,0.0,150.0,5.0,0.0
7881,65.0,0.0,150.0,1.0,0.0
7882,41.0,0.0,150.0,5.0,0.0
7883,53.0,240.0,150.0,5.0,0.0
7884,54.0,324.0,150.0,5.0,0.0
7885,66.0,0.0,150.0,1.0,0.0
7886,42.0,0.0,150.0,5.0,0.0
7887,38.0,0.0,240.0,5.0,0.0
7888,50.0,0.0,240.0,5.0,0.0
7889,62.0,636.0,240.0,1.0,0.0
7890,83.0,240.0,150.0,1.0,0.0
7891,65.0,0.0,150.0,5.0,0.0
7892,80.0,0.0,150.0,2.0,0.0
7893,66.0,0.0,150.0,5.0,0.0
7894,78.0,240.0,150.0,2.0,0.0
7895,82.0,0.0,150.0,1.0,0.0
7896,68.0,324.0,150.0,5.0,0.0
7897,77.0,0.0,150.0,2.0,0.0
7898,80.0,0.0,150.0,1.0,0.0
7899,89.0,0.0,240.0,1.0,0.0
7900,62.0,0.0,240.0,5.0,0.0
7901,80.0,636.0,240.0,2.0,0.0
7902,53.0,0.0,150.0,5.0,0.0
7903,41.0,0.0,150.0,5.0,0.0
7904,65.0,240.0,150.0,1.0,0.0
7905,42.0,240.0,150.0,5.0,0.0
7906,54.0,0.0,150.0,5.0,0.0
7907,66.0,0.0,150.0,1.0,0.0
7908,44.0,324.0,150.0,5.0,0.0
7909,56.0,0.0,150.0,5.0,0.0
7910,68.0,0.0,150.0,1.0,0.0
7911,63.0,636.0,240.0,1.0,0.0
7912,51.0,0.0,240.0,5.0,0.0
7913,39.0,0.0,240.0,5.0,0.0
7914,87.0,0.0,150.0,1.0,0.0
7915,83.0,240.0,150.0,2.0,0.0
7916,68.0,0.0,150.0,5.0,0.0
7917,85.0,0.0,150.0,1.0,0.0
7918,82.0,0.0,150.0,2.0,0.0
7919,70.0,240.0,150.0,5.0,0.0
7920,80.0,0.0,150.0,2.0,0.0
7921,83.0,324.0,150.0,1.0,0.0
7922,71.0,0.0,150.0,5.0,0.0
7923,92.0,636.0,240.0,1.0,0.0
7924,83.0,0.0,240.0,2.0,0.0
7925,63.0,0.0,240.0,5.0,0.0
7926,64.0,204.0,150.0,1.0,0.0
7927,47.0,0.0,150.0,4.0,0.0
7928,40.0,0.0,150.0,5.0,0.0
7929,35.0,120.0,120.0,5.0,0.0
7930,59.0,0.0,120.0,1.0,0.0
7931,47.0,0.0,120.0,4.0,0.0
7932,64.0,156.0,120.0,1.0,0.0
7933,40.0,0.0,120.0,5.0,0.0
7934,35.0,0.0,150.0,5.0,0.0
7935,59.0,240.0,150.0,1.0,0.0
7936,64.0,240.0,150.0,1.0,0.0
7937,40.0,0.0,150.0,5.0,0.0
7938,47.0,0.0,150.0,4.0,0.0
7939,35.0,240.0,150.0,5.0,0.0
7940,59.0,0.0,150.0,1.0,0.0
7941,47.0,0.0,150.0,4.0,0.0
7942,40.0,0.0,150.0,5.0,0.0
7943,64.0,240.0,150.0,1.0,0.0
7944,80.0,0.0,150.0,1.0,0.0
7945,52.0,204.0,150.0,5.0,0.0
7946,76.0,0.0,150.0,2.0,0.0
7947,59.0,0.0,150.0,4.0,0.0
7948,47.0,120.0,120.0,5.0,0.0
7949,78.0,0.0,120.0,1.0,0.0
7950,76.0,0.0,120.0,2.0,0.0
7951,59.0,0.0,120.0,4.0,0.0
7952,80.0,0.0,120.0,1.0,0.0
7953,52.0,156.0,120.0,5.0,0.0
7954,47.0,240.0,150.0,5.0,0.0
7955,78.0,0.0,150.0,1.0,0.0
7956,80.0,0.0,150.0,1.0,0.0
7957,59.0,0.0,150.0,4.0,0.0
7958,76.0,0.0,150.0,2.0,0.0
7959,52.0,240.0,150.0,5.0,0.0
7960,78.0,240.0,150.0,1.0,0.0
7961,47.0,0.0,150.0,5.0,0.0
7962,52.0,0.0,150.0,5.0,0.0
7963,80.0,0.0,150.0,1.0,0.0
7964,76.0,240.0,150.0,2.0,0.0
7965,59.0,0.0,150.0,4.0,0.0
7966,83.0,0.0,150.0,1.0,0.0
7967,64.0,204.0,150.0,5.0,0.0
7968,80.0,0.0,150.0,2.0,0.0
7969,71.0,0.0,150.0,2.0,0.0
7970,52.0,0.0,150.0,5.0,0.0
7971,51.0,84.0,150.0,5.0,0.0
7972,80.0,0.0,120.0,2.0,0.0
7973,63.0,0.0,150.0,5.0,0.0
7974,83.0,36.0,120.0,1.0,0.0
7975,71.0,156.0,120.0,2.0,0.0
7976,50.0,240.0,150.0,5.0,0.0
7977,62.0,0.0,150.0,5.0,0.0
7978,83.0,0.0,150.0,1.0,0.0
7979,80.0,0.0,150.0,2.0,0.0
7980,83.0,0.0,150.0,1.0,0.0
7981,80.0,0.0,150.0,2.0,0.0
7982,63.0,0.0,150.0,5.0,0.0
7983,51.0,240.0,150.0,5.0,0.0
7984,71.0,0.0,150.0,2.0,0.0
7985,82.0,240.0,150.0,1.0,0.0
7986,70.0,0.0,150.0,2.0,0.0
7987,78.0,0.0,150.0,2.0,0.0
7988,77.0,0.0,150.0,2.0,0.0
7989,68.0,240.0,150.0,2.0,0.0
7990,80.0,0.0,150.0,1.0,0.0
7991,56.0,0.0,150.0,5.0,0.0
7992,44.0,0.0,150.0,5.0,0.0
7993,78.0,0.0,150.0,1.0,0.0
7994,46.0,0.0,150.0,5.0,0.0
7995,58.0,0.0,150.0,5.0,0.0
7996,66.0,480.0,150.0,2.0,0.0
7997,46.0,0.0,150.0,5.0,0.0
7998,34.0,0.0,150.0,5.0,0.0
7999,65.0,0.0,150.0,2.0,0.0
8000,77.0,324.0,150.0,1.0,0.0
8001,74.0,0.0,150.0,2.0,0.0
8002,75.0,0.0,240.0,1.0,0.0
8003,51.0,0.0,240.0,5.0,0.0
8004,63.0,600.0,240.0,2.0,0.0
8005,39.0,0.0,240.0,5.0,0.0
8006,39.0,113.0,300.0,5.0,0.0
8007,63.0,7.0,270.0,5.0,0.0
8008,83.0,0.0,120.0,3.0,0.0
8009,95.0,120.0,120.0,3.0,0.0
8010,97.0,0.0,120.0,3.0,0.0
8011,53.0,0.0,150.0,5.0,0.0
8012,95.0,36.0,120.0,3.0,0.0
8013,83.0,0.0,120.0,3.0,0.0
8014,65.0,84.0,150.0,5.0,0.0
8015,97.0,120.0,120.0,3.0,0.0
8016,83.0,0.0,120.0,3.0,0.0
8017,66.0,84.0,150.0,5.0,0.0
8018,95.0,36.0,120.0,3.0,0.0
8019,54.0,0.0,150.0,5.0,0.0
8020,97.0,120.0,120.0,3.0,0.0
8021,83.0,0.0,120.0,3.0,0.0
8022,95.0,120.0,120.0,3.0,0.0
8023,62.0,120.0,240.0,5.0,0.0
8024,50.0,0.0,240.0,5.0,0.0
8025,97.0,0.0,120.0,3.0,0.0
8026,95.0,120.0,120.0,3.0,0.0
8027,83.0,0.0,120.0,3.0,0.0
8028,97.0,120.0,120.0,3.0,0.0
8029,83.0,0.0,120.0,3.0,0.0
8030,95.0,120.0,120.0,3.0,0.0
8031,97.0,120.0,120.0,3.0,0.0
8032,68.0,0.0,150.0,5.0,0.0
8033,83.0,36.0,120.0,3.0,0.0
8034,95.0,0.0,120.0,3.0,0.0
8035,71.0,84.0,150.0,5.0,0.0
8036,97.0,120.0,120.0,3.0,0.0
8037,83.0,36.0,120.0,3.0,0.0
8038,95.0,0.0,120.0,3.0,0.0
8039,70.0,0.0,150.0,5.0,0.0
8040,66.0,84.0,150.0,5.0,0.0
8041,97.0,120.0,120.0,3.0,0.0
8042,65.0,84.0,150.0,5.0,0.0
8043,83.0,0.0,120.0,3.0,0.0
8044,95.0,36.0,120.0,3.0,0.0
8045,68.0,0.0,150.0,5.0,0.0
8046,97.0,120.0,120.0,3.0,0.0
8047,62.0,117.0,270.0,5.0,0.0
8048,68.0,3.0,270.0,5.0,0.0
8049,83.0,120.0,120.0,3.0,0.0
8050,95.0,0.0,120.0,3.0,0.0
8051,77.0,0.0,240.0,5.0,0.0
8052,97.0,0.0,120.0,3.0,0.0
8053,83.0,0.0,120.0,3.0,0.0
8054,95.0,120.0,120.0,3.0,0.0
8055,97.0,120.0,120.0,3.0,0.0
8056,83.0,120.0,120.0,3.0,0.0
8057,95.0,0.0,120.0,3.0,0.0
8058,97.0,120.0,120.0,3.0,0.0
8059,83.0,0.0,120.0,3.0,0.0
8060,95.0,36.0,120.0,3.0,0.0
8061,65.0,0.0,150.0,5.0,0.0
8062,53.0,84.0,150.0,5.0,0.0
8063,97.0,120.0,120.0,3.0,0.0
8064,66.0,0.0,150.0,5.0,0.0
8065,54.0,84.0,150.0,5.0,0.0
8066,83.0,0.0,120.0,3.0,0.0
8067,95.0,36.0,120.0,3.0,0.0
8068,97.0,120.0,120.0,3.0,0.0
8069,56.0,0.0,150.0,5.0,0.0
8070,68.0,84.0,150.0,5.0,0.0
8071,83.0,0.0,120.0,3.0,0.0
8072,95.0,36.0,120.0,3.0,0.0
8073,97.0,120.0,120.0,3.0,0.0
8074,51.0,120.0,240.0,5.0,0.0
8075,63.0,0.0,240.0,5.0,0.0
8076,95.0,120.0,120.0,3.0,0.0
8077,83.0,0.0,120.0,3.0,0.0
8078,97.0,0.0,120.0,3.0,0.0
8079,95.0,0.0,120.0,3.0,0.0
8080,83.0,120.0,120.0,3.0,0.0
8081,97.0,120.0,120.0,3.0,0.0
8082,83.0,0.0,120.0,3.0,0.0
8083,95.0,120.0,120.0,3.0,0.0
8084,97.0,120.0,120.0,3.0,0.0
8085,75.0,84.0,150.0,5.0,0.0
8086,71.0,0.0,150.0,5.0,0.0
8087,83.0,36.0,120.0,3.0,0.0
8088,95.0,0.0,120.0,3.0,0.0
8089,97.0,120.0,120.0,3.0,0.0
8090,95.0,36.0,120.0,3.0,0.0
8091,83.0,0.0,120.0,3.0,0.0
8092,70.0,84.0,150.0,5.0,0.0
8093,73.0,0.0,150.0,5.0,0.0
8094,97.0,120.0,120.0,3.0,0.0
8095,95.0,36.0,120.0,3.0,0.0
8096,83.0,0.0,120.0,3.0,0.0
8097,68.0,84.0,150.0,5.0,0.0
8098,71.0,0.0,150.0,5.0,0.0
8099,97.0,120.0,120.0,3.0,0.0
8100,63.0,117.0,270.0,5.0,0.0
8101,71.0,4.0,270.0,5.0,0.0
8102,95.0,0.0,120.0,3.0,0.0
8103,83.0,116.0,120.0,3.0,0.0
8104,80.0,3.0,240.0,5.0,0.0
8105,97.0,0.0,120.0,3.0,0.0
8106,95.0,0.0,120.0,3.0,0.0
8107,83.0,120.0,120.0,3.0,0.0
8108,97.0,120.0,120.0,3.0,0.0
8109,83.0,120.0,120.0,3.0,0.0
8110,95.0,0.0,120.0,3.0,0.0
8111,97.0,120.0,120.0,3.0,0.0
8112,64.0,0.0,150.0,5.0,0.0
8113,52.0,84.0,150.0,5.0,0.0
8114,83.0,36.0,120.0,3.0,0.0
8115,95.0,0.0,120.0,3.0,0.0
8116,56.0,0.0,150.0,4.0,0.0
8117,59.0,0.0,150.0,4.0,0.0
8118,97.0,120.0,120.0,3.0,0.0
8119,83.0,120.0,120.0,3.0,0.0
8120,47.0,0.0,120.0,5.0,0.0
8121,95.0,0.0,120.0,3.0,0.0
8122,59.0,120.0,120.0,4.0,0.0
8123,52.0,0.0,120.0,5.0,0.0
8124,56.0,0.0,120.0,4.0,0.0
8125,97.0,0.0,120.0,3.0,0.0
8126,83.0,0.0,120.0,3.0,0.0
8127,95.0,36.0,120.0,3.0,0.0
8128,47.0,84.0,150.0,5.0,0.0
8129,97.0,120.0,120.0,3.0,0.0
8130,95.0,36.0,120.0,3.0,0.0
8131,83.0,0.0,120.0,3.0,0.0
8132,59.0,0.0,150.0,4.0,0.0
8133,56.0,0.0,150.0,4.0,0.0
8134,52.0,84.0,150.0,5.0,0.0
8135,97.0,120.0,120.0,3.0,0.0
8136,83.0,36.0,120.0,3.0,0.0
8137,95.0,0.0,120.0,3.0,0.0
8138,47.0,84.0,150.0,5.0,0.0
8139,97.0,120.0,120.0,3.0,0.0
8140,52.0,84.0,150.0,5.0,0.0
8141,83.0,0.0,120.0,3.0,0.0
8142,95.0,36.0,120.0,3.0,0.0
8143,59.0,0.0,150.0,4.0,0.0
8144,56.0,0.0,150.0,4.0,0.0
8145,97.0,120.0,120.0,3.0,0.0
8146,80.0,84.0,150.0,5.0,0.0
8147,88.0,0.0,240.0,2.0,0.0
8148,95.0,36.0,120.0,3.0,0.0
8149,92.0,0.0,240.0,2.0,0.0
8150,76.0,0.0,150.0,5.0,0.0
8151,97.0,120.0,120.0,3.0,0.0
8152,95.0,0.0,120.0,3.0,0.0
8153,71.0,0.0,120.0,5.0,0.0
8154,78.0,120.0,120.0,5.0,0.0
8155,87.0,0.0,240.0,2.0,0.0
8156,97.0,120.0,120.0,3.0,0.0
8157,76.0,0.0,120.0,5.0,0.0
8158,80.0,0.0,120.0,5.0,0.0
8159,90.0,0.0,15.0,2.0,0.0
8160,87.0,0.0,240.0,2.0,0.0
8161,78.0,84.0,150.0,5.0,0.0
8162,71.0,0.0,150.0,5.0,0.0
8163,95.0,36.0,120.0,3.0,0.0
8164,97.0,0.0,120.0,3.0,0.0
8165,95.0,36.0,120.0,3.0,0.0
8166,92.0,120.0,240.0,2.0,0.0
8167,88.0,0.0,240.0,2.0,0.0
8168,76.0,0.0,150.0,5.0,0.0
8169,80.0,84.0,150.0,5.0,0.0
8170,97.0,0.0,120.0,3.0,0.0
8171,95.0,36.0,120.0,3.0,0.0
8172,71.0,0.0,150.0,5.0,0.0
8173,78.0,84.0,150.0,5.0,0.0
8174,87.0,0.0,240.0,2.0,0.0
8175,90.0,0.0,240.0,2.0,0.0
8176,97.0,120.0,120.0,3.0,0.0
8177,95.0,36.0,120.0,3.0,0.0
8178,76.0,84.0,150.0,5.0,0.0
8179,80.0,0.0,150.0,5.0,0.0
8180,88.0,0.0,240.0,2.0,0.0
8181,92.0,0.0,240.0,2.0,0.0
8182,97.0,120.0,120.0,3.0,0.0
8183,83.0,0.0,120.0,3.0,0.0
8184,92.0,36.0,120.0,3.0,0.0
8185,95.0,0.0,120.0,3.0,0.0
8186,52.0,0.0,150.0,5.0,0.0
8187,64.0,84.0,150.0,5.0,0.0
8188,97.0,120.0,120.0,3.0,0.0
8189,92.0,36.0,120.0,3.0,0.0
8190,83.0,0.0,120.0,3.0,0.0
8191,63.0,84.0,150.0,5.0,0.0
8192,51.0,0.0,150.0,5.0,0.0
8193,95.0,0.0,120.0,3.0,0.0
8194,97.0,120.0,120.0,3.0,0.0
8195,62.0,84.0,150.0,5.0,0.0
8196,50.0,0.0,150.0,5.0,0.0
8197,83.0,0.0,120.0,3.0,0.0
8198,92.0,0.0,120.0,3.0,0.0
8199,95.0,36.0,120.0,3.0,0.0
8200,97.0,120.0,120.0,3.0,0.0
8201,92.0,0.0,120.0,3.0,0.0
8202,83.0,0.0,120.0,3.0,0.0
8203,95.0,36.0,120.0,3.0,0.0
8204,63.0,0.0,150.0,5.0,0.0
8205,51.0,84.0,150.0,5.0,0.0
8206,97.0,120.0,120.0,3.0,0.0
8207,90.0,0.0,120.0,3.0,0.0
8208,94.0,0.0,120.0,3.0,0.0
8209,82.0,120.0,120.0,3.0,0.0
8210,95.0,120.0,120.0,3.0,0.0
8211,80.0,0.0,120.0,3.0,0.0
8212,56.0,84.0,150.0,5.0,0.0
8213,44.0,0.0,150.0,5.0,0.0
8214,89.0,0.0,120.0,3.0,0.0
8215,92.0,36.0,120.0,3.0,0.0
8216,94.0,120.0,120.0,3.0,0.0
8217,90.0,0.0,120.0,3.0,0.0
8218,87.0,36.0,120.0,3.0,0.0
8219,78.0,0.0,120.0,3.0,0.0
8220,58.0,0.0,150.0,5.0,0.0
8221,46.0,84.0,150.0,5.0,0.0
8222,92.0,120.0,120.0,3.0,0.0
8223,87.0,120.0,120.0,3.0,0.0
8224,78.0,0.0,120.0,3.0,0.0
8225,90.0,0.0,120.0,3.0,0.0
8226,92.0,120.0,120.0,3.0,0.0
8227,89.0,36.0,120.0,3.0,0.0
8228,46.0,0.0,150.0,5.0,0.0
8229,34.0,84.0,150.0,5.0,0.0
8230,77.0,0.0,120.0,3.0,0.0
8231,86.0,0.0,120.0,3.0,0.0
8232,90.0,120.0,120.0,3.0,0.0
8233,51.0,0.0,150.0,5.0,0.0
8234,39.0,84.0,150.0,5.0,0.0
8235,75.0,36.0,120.0,3.0,0.0
8236,87.0,0.0,120.0,3.0,0.0
8237,89.0,120.0,120.0,3.0,0.0
8238,87.0,0.0,120.0,3.0,0.0
8239,75.0,120.0,120.0,3.0,0.0
8240,89.0,120.0,120.0,3.0,0.0
8241,75.0,0.0,120.0,3.0,0.0
8242,87.0,120.0,120.0,3.0,0.0
8243,89.0,120.0,120.0,3.0,0.0
8244,99.0,0.0,120.0,3.0,0.0
8245,87.0,36.0,120.0,3.0,0.0
8246,54.0,0.0,150.0,5.0,0.0
8247,66.0,84.0,150.0,5.0,0.0
8248,101.0,120.0,120.0,3.0,0.0
8249,56.0,84.0,150.0,5.0,0.0
8250,68.0,0.0,150.0,5.0,0.0
8251,99.0,0.0,120.0,3.0,0.0
8252,87.0,36.0,120.0,3.0,0.0
8253,101.0,120.0,120.0,3.0,0.0
8254,58.0,0.0,150.0,5.0,0.0
8255,99.0,36.0,120.0,3.0,0.0
8256,70.0,84.0,150.0,5.0,0.0
8257,87.0,0.0,120.0,3.0,0.0
8258,101.0,120.0,120.0,3.0,0.0
8259,53.0,0.0,240.0,5.0,0.0
8260,98.0,120.0,120.0,3.0,0.0
8261,86.0,0.0,120.0,3.0,0.0
8262,65.0,0.0,240.0,5.0,0.0
8263,99.0,120.0,120.0,3.0,0.0
8264,86.0,0.0,120.0,3.0,0.0
8265,98.0,120.0,120.0,3.0,0.0
8266,99.0,120.0,120.0,3.0,0.0
8267,86.0,0.0,120.0,3.0,0.0
8268,98.0,120.0,120.0,3.0,0.0
8269,99.0,120.0,120.0,3.0,0.0
8270,86.0,36.0,120.0,3.0,0.0
8271,98.0,0.0,120.0,3.0,0.0
8272,74.0,84.0,150.0,5.0,0.0
8273,71.0,0.0,150.0,5.0,0.0
8274,99.0,120.0,120.0,3.0,0.0
8275,98.0,0.0,120.0,3.0,0.0
8276,73.0,84.0,150.0,5.0,0.0
8277,86.0,36.0,120.0,3.0,0.0
8278,70.0,0.0,150.0,5.0,0.0
8279,99.0,120.0,120.0,3.0,0.0
8280,86.0,36.0,120.0,3.0,0.0
8281,98.0,0.0,120.0,3.0,0.0
8282,68.0,0.0,150.0,5.0,0.0
8283,71.0,84.0,150.0,5.0,0.0
8284,99.0,120.0,120.0,3.0,0.0
8285,65.0,4.0,270.0,5.0,0.0
8286,71.0,113.0,270.0,5.0,0.0
8287,98.0,0.0,120.0,3.0,0.0
8288,86.0,120.0,120.0,3.0,0.0
8289,80.0,0.0,240.0,5.0,0.0
8290,99.0,3.0,120.0,3.0,0.0
8291,86.0,120.0,120.0,3.0,0.0
8292,98.0,0.0,120.0,3.0,0.0
8293,99.0,120.0,120.0,3.0,0.0
8294,98.0,120.0,120.0,3.0,0.0
8295,86.0,0.0,120.0,3.0,0.0
8296,99.0,120.0,120.0,3.0,0.0
8297,86.0,0.0,120.0,3.0,0.0
8298,98.0,36.0,120.0,3.0,0.0
8299,44.0,0.0,150.0,5.0,0.0
8300,56.0,84.0,150.0,5.0,0.0
8301,100.0,120.0,120.0,3.0,0.0
8302,86.0,0.0,120.0,3.0,0.0
8303,98.0,36.0,120.0,3.0,0.0
8304,58.0,0.0,150.0,5.0,0.0
8305,46.0,84.0,150.0,5.0,0.0
8306,100.0,120.0,120.0,3.0,0.0
8307,47.0,84.0,150.0,5.0,0.0
8308,59.0,0.0,150.0,5.0,0.0
8309,86.0,36.0,120.0,3.0,0.0
8310,98.0,0.0,120.0,3.0,0.0
8311,100.0,120.0,120.0,3.0,0.0
8312,98.0,0.0,120.0,3.0,0.0
8313,86.0,120.0,120.0,3.0,0.0
8314,54.0,120.0,240.0,5.0,0.0
8315,42.0,0.0,240.0,5.0,0.0
8316,100.0,0.0,120.0,3.0,0.0
8317,86.0,120.0,120.0,3.0,0.0
8318,98.0,0.0,120.0,3.0,0.0
8319,100.0,120.0,120.0,3.0,0.0
8320,98.0,0.0,120.0,3.0,0.0
8321,86.0,120.0,120.0,3.0,0.0
8322,100.0,120.0,120.0,3.0,0.0
8323,78.0,0.0,150.0,5.0,0.0
8324,86.0,0.0,120.0,3.0,0.0
8325,98.0,36.0,120.0,3.0,0.0
8326,74.0,84.0,150.0,5.0,0.0
8327,100.0,120.0,120.0,3.0,0.0
8328,86.0,36.0,120.0,3.0,0.0
8329,98.0,0.0,120.0,3.0,0.0
8330,73.0,0.0,150.0,5.0,0.0
8331,76.0,84.0,150.0,5.0,0.0
8332,100.0,120.0,120.0,3.0,0.0
8333,86.0,36.0,120.0,3.0,0.0
8334,98.0,0.0,120.0,3.0,0.0
8335,74.0,0.0,150.0,5.0,0.0
8336,71.0,84.0,150.0,5.0,0.0
8337,100.0,120.0,120.0,3.0,0.0
8338,66.0,3.0,270.0,5.0,0.0
8339,74.0,117.0,270.0,5.0,0.0
8340,86.0,0.0,120.0,3.0,0.0
8341,98.0,120.0,120.0,3.0,0.0
8342,83.0,0.0,240.0,5.0,0.0
8343,100.0,0.0,120.0,3.0,0.0
8344,98.0,120.0,120.0,3.0,0.0
8345,86.0,0.0,120.0,3.0,0.0
8346,100.0,120.0,120.0,3.0,0.0
8347,86.0,0.0,120.0,3.0,0.0
8348,98.0,120.0,120.0,3.0,0.0
8349,100.0,120.0,120.0,3.0,0.0
8350,98.0,0.0,120.0,3.0,0.0
8351,67.0,84.0,150.0,5.0,0.0
8352,55.0,0.0,150.0,5.0,0.0
8353,62.0,0.0,150.0,5.0,0.0
8354,59.0,0.0,150.0,5.0,0.0
8355,86.0,36.0,120.0,3.0,0.0
8356,100.0,120.0,120.0,3.0,0.0
8357,50.0,0.0,120.0,5.0,0.0
8358,86.0,120.0,120.0,3.0,0.0
8359,98.0,0.0,120.0,3.0,0.0
8360,100.0,120.0,120.0,3.0,0.0
8361,55.0,0.0,120.0,5.0,0.0
8362,62.0,0.0,120.0,5.0,0.0
8363,59.0,0.0,120.0,5.0,0.0
8364,86.0,36.0,120.0,3.0,0.0
8365,98.0,0.0,120.0,3.0,0.0
8366,50.0,84.0,150.0,5.0,0.0
8367,100.0,120.0,120.0,3.0,0.0
8368,86.0,36.0,120.0,3.0,0.0
8369,62.0,84.0,150.0,5.0,0.0
8370,98.0,0.0,120.0,3.0,0.0
8371,59.0,0.0,150.0,5.0,0.0
8372,55.0,0.0,150.0,5.0,0.0
8373,100.0,120.0,120.0,3.0,0.0
8374,98.0,0.0,120.0,3.0,0.0
8375,50.0,84.0,150.0,5.0,0.0
8376,86.0,36.0,120.0,3.0,0.0
8377,100.0,120.0,120.0,3.0,0.0
8378,62.0,0.0,150.0,5.0,0.0
8379,55.0,84.0,150.0,5.0,0.0
8380,59.0,0.0,150.0,5.0,0.0
8381,86.0,36.0,120.0,3.0,0.0
8382,98.0,0.0,120.0,3.0,0.0
8383,100.0,120.0,120.0,3.0,0.0
8384,95.0,120.0,240.0,3.0,0.0
8385,98.0,36.0,120.0,3.0,0.0
8386,91.0,0.0,240.0,3.0,0.0
8387,83.0,0.0,150.0,5.0,0.0
8388,79.0,84.0,150.0,5.0,0.0
8389,100.0,0.0,120.0,3.0,0.0
8390,98.0,120.0,120.0,3.0,0.0
8391,74.0,0.0,120.0,5.0,0.0
8392,81.0,0.0,120.0,5.0,0.0
8393,79.0,0.0,120.0,5.0,0.0
8394,83.0,0.0,120.0,5.0,0.0
8395,100.0,0.0,120.0,3.0,0.0
8396,81.0,0.0,150.0,5.0,0.0
8397,90.0,0.0,15.0,3.0,0.0
8398,93.0,120.0,15.0,3.0,0.0
8399,74.0,84.0,150.0,5.0,0.0
8400,98.0,36.0,120.0,3.0,0.0
8401,100.0,120.0,120.0,3.0,0.0
8402,95.0,0.0,240.0,3.0,0.0
8403,98.0,36.0,120.0,3.0,0.0
8404,83.0,84.0,150.0,5.0,0.0
8405,79.0,0.0,150.0,5.0,0.0
8406,91.0,120.0,240.0,3.0,0.0
8407,100.0,0.0,120.0,3.0,0.0
8408,90.0,0.0,240.0,3.0,0.0
8409,93.0,0.0,240.0,3.0,0.0
8410,98.0,36.0,120.0,3.0,0.0
8411,74.0,84.0,150.0,5.0,0.0
8412,81.0,0.0,150.0,5.0,0.0
8413,100.0,120.0,120.0,3.0,0.0
8414,79.0,84.0,150.0,5.0,0.0
8415,83.0,0.0,150.0,5.0,0.0
8416,98.0,36.0,120.0,3.0,0.0
8417,91.0,0.0,240.0,3.0,0.0
8418,100.0,120.0,120.0,3.0,0.0
8419,98.0,0.0,120.0,3.0,0.0
8420,95.0,0.0,15.0,3.0,0.0
8421,86.0,0.0,120.0,3.0,0.0
8422,68.0,84.0,150.0,5.0,0.0
8423,56.0,0.0,150.0,5.0,0.0
8424,99.0,120.0,120.0,3.0,0.0
8425,54.0,0.0,150.0,5.0,0.0
8426,66.0,84.0,150.0,5.0,0.0
8427,86.0,0.0,120.0,3.0,0.0
8428,95.0,0.0,120.0,3.0,0.0
8429,98.0,36.0,120.0,3.0,0.0
8430,99.0,120.0,120.0,3.0,0.0
8431,65.0,84.0,150.0,5.0,0.0
8432,53.0,0.0,150.0,5.0,0.0
8433,86.0,36.0,120.0,3.0,0.0
8434,95.0,0.0,120.0,3.0,0.0
8435,98.0,0.0,120.0,3.0,0.0
8436,99.0,120.0,120.0,3.0,0.0
8437,98.0,0.0,120.0,3.0,0.0
8438,53.0,84.0,150.0,5.0,0.0
8439,95.0,36.0,120.0,3.0,0.0
8440,86.0,0.0,120.0,3.0,0.0
8441,65.0,0.0,150.0,5.0,0.0
8442,99.0,120.0,120.0,3.0,0.0
8443,85.0,0.0,120.0,3.0,0.0
8444,97.0,0.0,120.0,3.0,0.0
8445,94.0,36.0,120.0,3.0,0.0
8446,67.0,84.0,150.0,5.0,0.0
8447,55.0,0.0,150.0,5.0,0.0
8448,99.0,120.0,120.0,3.0,0.0
8449,92.0,36.0,120.0,3.0,0.0
8450,95.0,0.0,120.0,3.0,0.0
8451,83.0,0.0,120.0,3.0,0.0
8452,56.0,84.0,150.0,5.0,0.0
8453,68.0,0.0,150.0,5.0,0.0
8454,97.0,120.0,120.0,3.0,0.0
8455,82.0,36.0,120.0,3.0,0.0
8456,58.0,84.0,150.0,5.0,0.0
8457,70.0,0.0,150.0,5.0,0.0
8458,91.0,0.0,120.0,3.0,0.0
8459,94.0,0.0,120.0,3.0,0.0
8460,95.0,120.0,120.0,3.0,0.0
8461,82.0,120.0,120.0,3.0,0.0
8462,91.0,0.0,120.0,3.0,0.0
8463,94.0,0.0,120.0,3.0,0.0
8464,95.0,120.0,120.0,3.0,0.0
8465,46.0,84.0,150.0,5.0,0.0
8466,58.0,0.0,150.0,5.0,0.0
8467,94.0,36.0,120.0,3.0,0.0
8468,82.0,0.0,120.0,3.0,0.0
8469,91.0,0.0,120.0,3.0,0.0
8470,95.0,120.0,120.0,3.0,0.0
8471,94.0,120.0,120.0,3.0,0.0
8472,82.0,0.0,120.0,3.0,0.0
8473,95.0,120.0,120.0,3.0,0.0
8474,94.0,0.0,120.0,3.0,0.0
8475,82.0,120.0,120.0,3.0,0.0
8476,95.0,120.0,120.0,3.0,0.0
8477,58.0,0.0,150.0,5.0,0.0
8478,46.0,84.0,150.0,5.0,0.0
8479,94.0,36.0,120.0,3.0,0.0
8480,82.0,0.0,120.0,3.0,0.0
8481,89.0,0.0,120.0,3.0,0.0
8482,95.0,120.0,120.0,3.0,0.0
8483,80.0,0.0,120.0,3.0,0.0
8484,92.0,0.0,120.0,3.0,0.0
8485,50.0,84.0,150.0,5.0,0.0
8486,62.0,0.0,150.0,5.0,0.0
8487,89.0,36.0,120.0,3.0,0.0
8488,94.0,120.0,120.0,3.0,0.0
8489,63.0,0.0,150.0,5.0,0.0
8490,87.0,36.0,120.0,3.0,0.0
8491,90.0,0.0,120.0,3.0,0.0
8492,78.0,0.0,120.0,3.0,0.0
8493,51.0,84.0,150.0,5.0,0.0
8494,92.0,120.0,120.0,3.0,0.0
8495,86.0,0.0,120.0,3.0,0.0
8496,89.0,36.0,120.0,3.0,0.0
8497,53.0,0.0,150.0,5.0,0.0
8498,77.0,0.0,120.0,3.0,0.0
8499,65.0,84.0,150.0,5.0,0.0
8500,90.0,120.0,120.0,3.0,0.0
8501,75.0,0.0,120.0,3.0,0.0
8502,87.0,0.0,120.0,3.0,0.0
8503,54.0,0.0,150.0,5.0,0.0
8504,83.0,36.0,120.0,3.0,0.0
8505,66.0,84.0,150.0,5.0,0.0
8506,89.0,120.0,120.0,3.0,0.0
8507,67.0,84.0,150.0,5.0,0.0
8508,55.0,0.0,150.0,5.0,0.0
8509,73.0,0.0,120.0,3.0,0.0
8510,85.0,36.0,120.0,3.0,0.0
8511,82.0,0.0,120.0,3.0,0.0
8512,87.0,120.0,120.0,3.0,0.0
8513,80.0,36.0,120.0,3.0,0.0
8514,83.0,0.0,120.0,3.0,0.0
8515,71.0,0.0,120.0,3.0,0.0
8516,68.0,0.0,150.0,5.0,0.0
8517,56.0,84.0,150.0,5.0,0.0
8518,85.0,120.0,120.0,3.0,0.0
8519,58.0,0.0,150.0,5.0,0.0
8520,70.0,84.0,150.0,5.0,0.0
8521,82.0,0.0,120.0,3.0,0.0
8522,78.0,36.0,120.0,3.0,0.0
8523,70.0,0.0,120.0,3.0,0.0
8524,83.0,120.0,120.0,3.0,0.0
8525,82.0,0.0,120.0,3.0,0.0
8526,70.0,0.0,120.0,3.0,0.0
8527,78.0,120.0,120.0,3.0,0.0
8528,83.0,120.0,120.0,3.0,0.0
8529,77.0,0.0,120.0,3.0,0.0
8530,70.0,0.0,120.0,3.0,0.0
8531,82.0,36.0,120.0,3.0,0.0
8532,58.0,84.0,150.0,5.0,0.0
8533,46.0,0.0,150.0,5.0,0.0
8534,83.0,120.0,120.0,3.0,0.0
8535,70.0,120.0,120.0,3.0,0.0
8536,82.0,0.0,120.0,3.0,0.0
8537,83.0,120.0,120.0,3.0,0.0
8538,70.0,120.0,120.0,3.0,0.0
8539,82.0,0.0,120.0,3.0,0.0
8540,83.0,120.0,120.0,3.0,0.0
8541,82.0,0.0,120.0,3.0,0.0
8542,77.0,36.0,120.0,3.0,0.0
8543,58.0,0.0,150.0,5.0,0.0
8544,46.0,84.0,150.0,5.0,0.0
8545,70.0,0.0,120.0,3.0,0.0
8546,83.0,120.0,120.0,3.0,0.0
8547,70.0,120.0,120.0,3.0,0.0
8548,82.0,0.0,120.0,3.0,0.0
8549,83.0,120.0,120.0,3.0,0.0
8550,70.0,120.0,120.0,3.0,0.0
8551,82.0,0.0,120.0,3.0,0.0
8552,83.0,120.0,120.0,3.0,0.0
8553,34.0,84.0,150.0,5.0,0.0
8554,82.0,0.0,120.0,3.0,0.0
8555,46.0,0.0,150.0,5.0,0.0
8556,70.0,36.0,120.0,3.0,0.0
8557,83.0,120.0,120.0,3.0,0.0
8558,70.0,120.0,120.0,3.0,0.0
8559,82.0,0.0,120.0,3.0,0.0
8560,83.0,120.0,120.0,3.0,0.0
8561,82.0,0.0,120.0,3.0,0.0
8562,70.0,120.0,120.0,3.0,0.0
8563,83.0,120.0,120.0,3.0,0.0
8564,82.0,36.0,120.0,3.0,0.0
8565,34.0,84.0,150.0,5.0,0.0
8566,46.0,0.0,150.0,5.0,0.0
8567,70.0,0.0,120.0,3.0,0.0
8568,83.0,120.0,120.0,3.0,0.0
8569,82.0,120.0,120.0,3.0,0.0
8570,83.0,120.0,120.0,3.0,0.0
8571,82.0,120.0,120.0,3.0,0.0
8572,83.0,120.0,120.0,3.0,0.0
8573,82.0,120.0,120.0,3.0,0.0
8574,83.0,120.0,120.0,3.0,0.0
8575,82.0,120.0,120.0,3.0,0.0
8576,83.0,120.0,120.0,3.0,0.0
8577,82.0,120.0,120.0,3.0,0.0
8578,83.0,120.0,120.0,3.0,0.0
8579,82.0,120.0,120.0,3.0,0.0
8580,83.0,80.0,120.0,3.0,0.0
8581,82.0,80.0,90.0,3.0,0.0
8582,84.0,80.0,90.0,3.0,0.0
8583,82.0,80.0,90.0,3.0,0.0
8584,84.0,80.0,90.0,3.0,0.0
8585,82.0,80.0,90.0,3.0,0.0
8586,84.0,80.0,90.0,3.0,0.0
8587,82.0,80.0,90.0,3.0,0.0
8588,84.0,80.0,90.0,3.0,0.0
8589,82.0,80.0,90.0,3.0,0.0
8590,84.0,76.0,90.0,3.0,0.0
8591,70.0,4.0,150.0,1.0,0.0
8592,58.0,0.0,150.0,5.0,0.0
8593,82.0,80.0,90.0,3.0,0.0
8594,84.0,80.0,90.0,3.0,0.0
8595,75.0,4.0,150.0,1.0,0.0
8596,63.0,0.0,150.0,5.0,0.0
8597,55.0,0.0,150.0,5.0,0.0
8598,82.0,76.0,90.0,3.0,0.0
8599,84.0,80.0,90.0,3.0,0.0
8600,82.0,80.0,90.0,3.0,0.0
8601,77.0,0.0,150.0,1.0,0.0
8602,58.0,0.0,150.0,5.0,0.0
8603,65.0,4.0,150.0,5.0,0.0
8604,84.0,76.0,90.0,3.0,0.0
8605,82.0,80.0,90.0,3.0,0.0
8606,84.0,80.0,90.0,3.0,0.0
8607,82.0,80.0,90.0,3.0,0.0
8608,84.0,80.0,90.0,3.0,0.0
8609,82.0,80.0,90.0,3.0,0.0
8610,84.0,80.0,90.0,3.0,0.0
8611,82.0,80.0,90.0,3.0,0.0
8612,39.0,55.0,300.0,5.0,0.0
8613,84.0,80.0,90.0,3.0,0.0
8614,82.0,80.0,90.0,3.0,0.0
8615,46.0,5.0,180.0,5.0,0.0
8616,84.0,20.0,90.0,3.0,0.0
8617,82.0,0.0,90.0,3.0,0.0
8618,79.0,80.0,15.0,1.0,0.0
8619,84.0,80.0,90.0,3.0,0.0
8620,67.0,0.0,15.0,5.0,0.0
8621,63.0,0.0,15.0,5.0,0.0
8622,82.0,80.0,90.0,3.0,0.0
8623,84.0,80.0,90.0,3.0,0.0
8624,82.0,80.0,90.0,3.0,0.0
8625,84.0,80.0,90.0,3.0,0.0
8626,39.0,55.0,300.0,5.0,0.0
8627,82.0,80.0,90.0,3.0,0.0
8628,46.0,5.0,180.0,5.0,0.0
8629,84.0,80.0,90.0,3.0,0.0
8630,82.0,20.0,90.0,3.0,0.0
8631,84.0,0.0,90.0,3.0,0.0
8632,82.0,80.0,90.0,3.0,0.0
8633,63.0,60.0,180.0,5.0,0.0
8634,79.0,80.0,15.0,1.0,0.0
8635,67.0,0.0,15.0,5.0,0.0
8636,84.0,20.0,90.0,3.0,0.0
8637,82.0,80.0,90.0,3.0,0.0
8638,84.0,80.0,90.0,3.0,0.0
8639,82.0,80.0,90.0,3.0,0.0
8640,77.0,80.0,120.0,1.0,0.0
8641,65.0,0.0,120.0,5.0,0.0
8642,62.0,0.0,120.0,5.0,0.0
8643,84.0,0.0,90.0,3.0,0.0
8644,63.0,0.0,180.0,5.0,0.0
8645,67.0,0.0,180.0,5.0,0.0
8646,82.0,80.0,90.0,3.0,0.0
8647,79.0,60.0,180.0,1.0,0.0
8648,84.0,20.0,90.0,3.0,0.0
8649,82.0,80.0,90.0,3.0,0.0
8650,79.0,0.0,180.0,1.0,0.0
8651,84.0,80.0,90.0,3.0,0.0
8652,67.0,0.0,180.0,5.0,0.0
8653,63.0,60.0,180.0,5.0,0.0
8654,82.0,20.0,90.0,3.0,0.0
8655,84.0,80.0,90.0,3.0,0.0
8656,82.0,80.0,90.0,3.0,0.0
8657,84.0,80.0,90.0,3.0,0.0
8658,77.0,80.0,120.0,1.0,0.0
8659,65.0,0.0,120.0,5.0,0.0
8660,62.0,0.0,120.0,5.0,0.0
8661,82.0,0.0,90.0,3.0,0.0
8662,63.0,0.0,180.0,5.0,0.0
8663,79.0,60.0,180.0,1.0,0.0
8664,67.0,0.0,180.0,5.0,0.0
8665,84.0,80.0,90.0,3.0,0.0
8666,82.0,20.0,90.0,3.0,0.0
8667,84.0,160.0,90.0,3.0,0.0
8668,70.0,0.0,480.0,5.0,0.0
8669,82.0,0.0,1440.0,1.0,0.0
8670,84.0,80.0,90.0,3.0,0.0
8671,82.0,80.0,90.0,3.0,0.0
8672,84.0,80.0,90.0,3.0,0.0
8673,82.0,80.0,90.0,3.0,0.0
8674,84.0,80.0,90.0,3.0,0.0
8675,63.0,0.0,240.0,5.0,0.0
8676,67.0,0.0,15.0,5.0,0.0
8677,79.0,0.0,240.0,1.0,0.0
8678,82.0,80.0,90.0,3.0,0.0
8679,84.0,80.0,90.0,3.0,0.0
8680,82.0,80.0,90.0,3.0,0.0
8681,62.0,0.0,720.0,5.0,0.0
8682,77.0,0.0,720.0,1.0,0.0
8683,58.0,0.0,15.0,5.0,0.0
8684,65.0,0.0,720.0,5.0,0.0
8685,84.0,80.0,90.0,3.0,0.0
8686,82.0,80.0,90.0,3.0,0.0
8687,84.0,80.0,90.0,3.0,0.0
8688,82.0,80.0,90.0,3.0,0.0
8689,84.0,80.0,90.0,3.0,0.0
8690,34.0,0.0,300.0,5.0,0.0
8691,82.0,80.0,90.0,3.0,0.0
8692,84.0,80.0,90.0,3.0,0.0
8693,46.0,60.0,180.0,5.0,0.0
8694,82.0,20.0,90.0,3.0,0.0
8695,84.0,0.0,90.0,3.0,0.0
8696,94.0,0.0,480.0,1.0,0.0
8697,82.0,0.0,1440.0,2.0,0.0
8698,78.0,0.0,480.0,5.0,0.0
8699,84.0,80.0,90.0,3.0,0.0
8700,82.0,80.0,90.0,3.0,0.0
8701,84.0,80.0,90.0,3.0,0.0
8702,82.0,80.0,90.0,3.0,0.0
8703,84.0,0.0,90.0,3.0,0.0
8704,82.0,80.0,90.0,3.0,0.0
8705,70.0,80.0,15.0,5.0,0.0
8706,90.0,80.0,240.0,1.0,0.0
8707,75.0,0.0,240.0,5.0,0.0
8708,84.0,80.0,90.0,3.0,0.0
8709,82.0,0.0,90.0,3.0,0.0
8710,89.0,0.0,480.0,1.0,0.0
8711,74.0,0.0,480.0,5.0,0.0
8712,70.0,80.0,480.0,5.0,0.0
8713,84.0,80.0,90.0,3.0,0.0
8714,82.0,80.0,90.0,3.0,0.0
8715,84.0,80.0,90.0,3.0,0.0
8716,82.0,80.0,90.0,3.0,0.0
8717,84.0,80.0,90.0,3.0,0.0
8718,82.0,0.0,90.0,3.0,0.0
8719,84.0,80.0,90.0,3.0,0.0
8720,46.0,70.0,240.0,5.0,0.0
8721,82.0,80.0,90.0,3.0,0.0
8722,58.0,10.0,120.0,5.0,0.0
8723,84.0,0.0,90.0,3.0,0.0
8724,82.0,76.0,90.0,2.0,0.0
8725,71.0,0.0,150.0,5.0,0.0
8726,59.0,4.0,150.0,5.0,0.0
8727,84.0,80.0,90.0,2.0,0.0
8728,82.0,80.0,90.0,2.0,0.0
8729,61.0,0.0,150.0,5.0,0.0
8730,84.0,76.0,90.0,2.0,0.0
8731,73.0,4.0,150.0,5.0,0.0
8732,82.0,80.0,90.0,2.0,0.0
8733,84.0,80.0,90.0,2.0,0.0
8734,62.0,0.0,150.0,5.0,0.0
8735,74.0,4.0,150.0,5.0,0.0
8736,82.0,76.0,90.0,2.0,0.0
8737,84.0,80.0,90.0,2.0,0.0
8738,82.0,80.0,90.0,2.0,0.0
8739,68.0,0.0,150.0,5.0,0.0
8740,84.0,76.0,90.0,2.0,0.0
8741,56.0,4.0,150.0,5.0,0.0
8742,82.0,80.0,90.0,2.0,0.0
8743,84.0,80.0,90.0,2.0,0.0
8744,82.0,76.0,90.0,2.0,0.0
8745,70.0,0.0,150.0,5.0,0.0
8746,58.0,4.0,150.0,5.0,0.0
8747,84.0,80.0,90.0,2.0,0.0
8748,82.0,80.0,90.0,2.0,0.0
8749,59.0,0.0,150.0,5.0,0.0
8750,71.0,4.0,150.0,5.0,0.0
8751,84.0,76.0,90.0,2.0,0.0
8752,82.0,80.0,90.0,2.0,0.0
8753,84.0,80.0,90.0,2.0,0.0
8754,82.0,76.0,90.0,2.0,0.0
8755,65.0,0.0,150.0,5.0,0.0
8756,53.0,4.0,150.0,5.0,0.0
8757,84.0,80.0,90.0,2.0,0.0
8758,82.0,80.0,90.0,2.0,0.0
8759,84.0,76.0,90.0,2.0,0.0
8760,66.0,4.0,150.0,5.0,0.0
8761,54.0,0.0,150.0,5.0,0.0
8762,82.0,80.0,90.0,2.0,0.0
8763,84.0,80.0,90.0,2.0,0.0
8764,56.0,0.0,150.0,5.0,0.0
8765,68.0,4.0,150.0,5.0,0.0
8766,82.0,76.0,90.0,2.0,0.0
8767,84.0,80.0,90.0,2.0,0.0
8768,82.0,80.0,90.0,2.0,0.0
8769,84.0,76.0,90.0,2.0,0.0
8770,62.0,0.0,150.0,5.0,0.0
8771,50.0,4.0,150.0,5.0,0.0
8772,82.0,80.0,90.0,2.0,0.0
8773,84.0,80.0,90.0,2.0,0.0
8774,82.0,76.0,90.0,2.0,0.0
8775,63.0,4.0,150.0,5.0,0.0
8776,51.0,0.0,150.0,5.0,0.0
8777,84.0,80.0,90.0,2.0,0.0
8778,82.0,80.0,90.0,2.0,0.0
8779,65.0,0.0,150.0,5.0,0.0
8780,84.0,76.0,90.0,2.0,0.0
8781,53.0,4.0,150.0,5.0,0.0
8782,82.0,80.0,90.0,2.0,0.0
8783,84.0,156.0,90.0,2.0,0.0
8784,82.0,0.0,150.0,2.0,0.0
8785,94.0,0.0,150.0,1.0,0.0
8786,46.0,0.0,150.0,5.0,0.0
8787,58.0,240.0,150.0,5.0,0.0
8788,59.0,0.0,150.0,5.0,0.0
8789,83.0,0.0,150.0,2.0,0.0
8790,47.0,240.0,150.0,5.0,0.0
8791,95.0,0.0,150.0,1.0,0.0
8792,94.0,240.0,150.0,1.0,0.0
8793,58.0,0.0,150.0,5.0,0.0
8794,82.0,0.0,150.0,2.0,0.0
8795,46.0,0.0,150.0,5.0,0.0
8796,92.0,0.0,150.0,1.0,0.0
8797,80.0,240.0,150.0,2.0,0.0
8798,44.0,0.0,150.0,5.0,0.0
8799,56.0,0.0,150.0,5.0,0.0
8800,90.0,0.0,150.0,1.0,0.0
8801,54.0,0.0,150.0,5.0,0.0
8802,42.0,0.0,150.0,5.0,0.0
8803,78.0,240.0,150.0,2.0,0.0
8804,77.0,324.0,150.0,2.0,0.0
8805,89.0,0.0,150.0,1.0,0.0
8806,41.0,0.0,150.0,5.0,0.0
8807,53.0,0.0,150.0,5.0,0.0
8808,39.0,0.0,240.0,5.0,0.0
8809,51.0,2520.0,240.0,5.0,0.0
8810,87.0,0.0,240.0,1.0,0.0
8811,75.0,0.0,240.0,2.0,0.0
8812,58.0,0.0,360.0,5.0,0.0
8813,70.0,1080.0,360.0,5.0,0.0
8814,82.0,0.0,360.0,1.0,0.0
8815,80.0,0.0,960.0,1.0,0.0
8816,68.0,360.0,960.0,5.0,0.0
8817,56.0,0.0,960.0,5.0,0.0
8818,49.0,0.0,360.0,5.0,0.0
8819,61.0,0.0,360.0,5.0,0.0
8820,73.0,480.0,360.0,1.0,0.0
8821,63.0,0.0,360.0,5.0,0.0
8822,75.0,0.0,360.0,1.0,0.0
8823,51.0,1560.0,360.0,5.0,0.0
8824,56.0,0.0,1440.0,5.0,0.0
8825,68.0,0.0,1440.0,1.0,0.0
8826,44.0,360.0,1440.0,5.0,0.0
8827,46.0,0.0,360.0,5.0,0.0
8828,70.0,1080.0,360.0,1.0,0.0
8829,44.0,0.0,960.0,5.0,0.0
8830,68.0,360.0,960.0,1.0,0.0
8831,37.0,0.0,360.0,5.0,0.0
8832,61.0,480.0,360.0,1.0,0.0
8833,63.0,1560.0,360.0,1.0,0.0
8834,39.0,0.0,360.0,5.0,0.0
8835,56.0,240.0,1440.0,1.0,0.0
8836,32.0,0.0,1440.0,5.0,0.0
8837,44.0,0.0,1440.0,5.0,0.0
8838,68.0,240.0,240.0,1.0,0.0
8839,65.0,475.0,480.0,5.0,0.0
8840,73.0,245.0,720.0,1.0,0.0
8841,66.0,0.0,960.0,5.0,0.0
8842,63.0,0.0,960.0,5.0,0.0
8843,72.0,240.0,240.0,1.0,0.0
8844,75.0,240.0,720.0,1.0,0.0
8845,68.0,0.0,960.0,5.0,0.0
8846,65.0,0.0,960.0,5.0,0.0
8847,44.0,0.0,15.0,4.0,0.0
8848,32.0,480.0,15.0,4.0,0.0
8849,73.0,240.0,240.0,1.0,0.0
8850,77.0,240.0,720.0,1.0,0.0
8851,67.0,0.0,960.0,5.0,0.0
8852,70.0,80.0,960.0,5.0,0.0
8853,44.0,0.0,960.0,4.0,0.0
8854,32.0,480.0,15.0,4.0,0.0
8855,75.0,240.0,240.0,1.0,0.0
8856,85.0,0.0,240.0,1.0,0.0
8857,84.0,80.0,90.0,1.0,0.0
8858,32.0,0.0,90.0,5.0,0.0
8859,44.0,0.0,90.0,5.0,0.0
8860,80.0,80.0,90.0,1.0,0.0
8861,56.0,80.0,90.0,5.0,0.0
8862,82.0,0.0,90.0,1.0,0.0
8863,80.0,40.0,90.0,1.0,0.0
8864,63.0,40.0,120.0,5.0,0.0
8865,82.0,80.0,90.0,1.0,0.0
8866,68.0,0.0,120.0,5.0,0.0
8867,80.0,60.0,90.0,1.0,0.0
8868,82.0,60.0,60.0,1.0,0.0
8869,72.0,30.0,1770.0,5.0,0.0
8870,80.0,60.0,60.0,1.0,0.0
8871,82.0,60.0,60.0,1.0,0.0
8872,80.0,60.0,60.0,1.0,0.0
8873,82.0,60.0,60.0,1.0,0.0
8874,80.0,60.0,60.0,1.0,0.0
8875,82.0,60.0,60.0,1.0,0.0
8876,80.0,60.0,60.0,1.0,0.0
8877,82.0,60.0,60.0,1.0,0.0
8878,80.0,60.0,60.0,1.0,0.0
8879,82.0,60.0,60.0,1.0,0.0
8880,80.0,60.0,60.0,1.0,0.0
8881,82.0,60.0,60.0,1.0,0.0
8882,80.0,60.0,60.0,1.0,0.0
8883,82.0,60.0,60.0,1.0,0.0
8884,80.0,60.0,60.0,1.0,0.0
8885,82.0,60.0,60.0,1.0,0.0
8886,80.0,60.0,60.0,1.0,0.0
8887,82.0,60.0,60.0,1.0,0.0
8888,80.0,60.0,60.0,1.0,0.0
8889,82.0,60.0,60.0,1.0,0.0
8890,80.0,60.0,60.0,1.0,0.0
8891,82.0,60.0,60.0,1.0,0.0
8892,80.0,60.0,60.0,1.0,0.0
8893,82.0,60.0,60.0,1.0,0.0
8894,80.0,60.0,60.0,1.0,0.0
8895,82.0,60.0,60.0,1.0,0.0
8896,80.0,60.0,60.0,1.0,0.0
8897,82.0,30.0,60.0,1.0,0.0
8898,80.0,208.0,60.0,1.0,0.0
8899,79.0,58.0,210.0,1.0,0.0
8900,80.0,57.0,210.0,1.0,0.0
8901,82.0,58.0,210.0,1.0,0.0
8902,84.0,57.0,210.0,1.0,0.0
8903,85.0,58.0,210.0,1.0,0.0
8904,87.0,44.0,210.0,1.0,0.0
8905,89.0,115.0,180.0,1.0,0.0
8906,91.0,13.0,120.0,1.0,0.0
8907,92.0,14.0,180.0,1.0,0.0
8908,91.0,101.0,150.0,1.0,0.0
8909,89.0,58.0,180.0,1.0,0.0
8910,87.0,57.0,180.0,1.0,0.0
8911,85.0,58.0,180.0,1.0,0.0
8912,84.0,57.0,180.0,1.0,0.0
8913,82.0,58.0,180.0,1.0,0.0
8914,80.0,57.0,180.0,1.0,0.0
8915,79.0,58.0,180.0,1.0,0.0
8916,77.0,57.0,180.0,1.0,0.0
8917,75.0,58.0,150.0,1.0,0.0
8918,73.0,57.0,150.0,1.0,0.0
8919,72.0,58.0,150.0,1.0,0.0
8920,70.0,57.0,150.0,1.0,0.0
8921,68.0,58.0,150.0,1.0,0.0
8922,67.0,57.0,150.0,1.0,0.0
8923,65.0,58.0,150.0,1.0,0.0
8924,63.0,57.0,150.0,1.0,0.0
8925,61.0,58.0,150.0,1.0,0.0
8926,60.0,57.0,150.0,1.0,0.0
8927,58.0,58.0,150.0,1.0,0.0
8928,56.0,57.0,150.0,1.0,0.0
8929,55.0,58.0,120.0,1.0,0.0
8930,53.0,57.0,120.0,1.0,0.0
8931,51.0,58.0,120.0,1.0,0.0
8932,49.0,57.0,120.0,1.0,0.0
8933,48.0,58.0,120.0,1.0,0.0
8934,46.0,299.0,120.0,1.0,0.0
8935,44.0,1800.0,360.0,1.0,0.0
8936,80.0,0.0,360.0,1.0,0.0
8937,56.0,1080.0,360.0,5.0,0.0
8938,68.0,0.0,360.0,5.0,0.0
8939,54.0,0.0,960.0,5.0,0.0
8940,66.0,0.0,960.0,5.0,0.0
8941,78.0,360.0,960.0,1.0,0.0
8942,59.0,0.0,360.0,5.0,0.0
8943,71.0,480.0,360.0,1.0,0.0
8944,47.0,0.0,360.0,5.0,0.0
8945,61.0,0.0,360.0,5.0,0.0
8946,49.0,0.0,360.0,5.0,0.0
8947,73.0,1560.0,360.0,1.0,0.0
8948,66.0,0.0,1440.0,1.0,0.0
8949,54.0,360.0,1440.0,5.0,0.0
8950,42.0,0.0,1440.0,5.0,0.0
8951,68.0,0.0,360.0,1.0,0.0
8952,44.0,1080.0,360.0,5.0,0.0
8953,42.0,0.0,960.0,5.0,0.0
8954,66.0,360.0,960.0,1.0,0.0
8955,35.0,0.0,360.0,5.0,0.0
8956,59.0,480.0,360.0,1.0,0.0
8957,37.0,1560.0,360.0,5.0,0.0
8958,61.0,0.0,360.0,1.0,0.0
8959,42.0,0.0,1920.0,5.0,0.0
8960,30.0,0.0,1920.0,5.0,0.0
8961,54.0,240.0,1440.0,1.0,0.0
8962,63.0,475.0,480.0,5.0,0.0
8963,66.0,240.0,240.0,1.0,0.0
8964,71.0,245.0,720.0,1.0,0.0
8965,64.0,0.0,960.0,5.0,0.0
8966,61.0,480.0,960.0,5.0,0.0
8967,30.0,0.0,960.0,4.0,0.0
8968,70.0,240.0,240.0,1.0,0.0
8969,73.0,240.0,720.0,1.0,0.0
8970,42.0,0.0,15.0,4.0,0.0
8971,63.0,0.0,960.0,5.0,0.0
8972,30.0,0.0,960.0,4.0,0.0
8973,66.0,0.0,960.0,5.0,0.0
8974,71.0,240.0,240.0,1.0,0.0
8975,75.0,240.0,720.0,1.0,0.0
8976,68.0,0.0,960.0,5.0,0.0
8977,65.0,0.0,960.0,5.0,0.0
8978,30.0,80.0,960.0,4.0,0.0
8979,42.0,480.0,15.0,4.0,0.0
8980,73.0,240.0,240.0,1.0,0.0
8981,83.0,0.0,240.0,1.0,0.0
8982,30.0,0.0,90.0,5.0,0.0
8983,82.0,80.0,90.0,1.0,0.0
8984,78.0,0.0,90.0,1.0,0.0
8985,42.0,80.0,90.0,5.0,0.0
8986,80.0,80.0,90.0,1.0,0.0
8987,54.0,0.0,90.0,5.0,0.0
8988,78.0,40.0,90.0,1.0,0.0
8989,61.0,40.0,120.0,5.0,0.0
8990,80.0,80.0,90.0,1.0,0.0
8991,66.0,0.0,120.0,5.0,0.0
8992,78.0,60.0,90.0,1.0,0.0
8993,70.0,17.0,1800.0,5.0,0.0
8994,80.0,60.0,60.0,1.0,0.0
8995,78.0,60.0,60.0,1.0,0.0
8996,80.0,60.0,60.0,1.0,0.0
8997,78.0,60.0,60.0,1.0,0.0
8998,80.0,60.0,60.0,1.0,0.0
8999,78.0,60.0,60.0,1.0,0.0
9000,80.0,60.0,60.0,1.0,0.0
9001,78.0,60.0,60.0,1.0,0.0
9002,80.0,60.0,60.0,1.0,0.0
9003,78.0,60.0,60.0,1.0,0.0
9004,80.0,60.0,60.0,1.0,0.0
9005,78.0,60.0,60.0,1.0,0.0
9006,80.0,60.0,60.0,1.0,0.0
9007,78.0,60.0,60.0,1.0,0.0
9008,80.0,60.0,60.0,1.0,0.0
9009,78.0,60.0,60.0,1.0,0.0
9010,80.0,60.0,60.0,1.0,0.0
9011,78.0,60.0,60.0,1.0,0.0
9012,80.0,60.0,60.0,1.0,0.0
9013,78.0,60.0,60.0,1.0,0.0
9014,80.0,60.0,60.0,1.0,0.0
9015,78.0,60.0,60.0,1.0,0.0
9016,80.0,60.0,60.0,1.0,0.0
9017,78.0,60.0,60.0,1.0,0.0
9018,80.0,60.0,60.0,1.0,0.0
9019,78.0,60.0,60.0,1.0,0.0
9020,80.0,60.0,60.0,1.0,0.0
9021,78.0,131.0,60.0,1.0,0.0
9022,80.0,17.0,150.0,1.0,0.0
9023,78.0,99.0,120.0,1.0,0.0
9024,77.0,55.0,150.0,1.0,0.0
9025,78.0,61.0,150.0,1.0,0.0
9026,80.0,58.0,150.0,1.0,0.0
9027,82.0,57.0,150.0,1.0,0.0
9028,83.0,58.0,120.0,1.0,0.0
9029,85.0,58.0,120.0,1.0,0.0
9030,87.0,58.0,120.0,1.0,0.0
9031,89.0,43.0,120.0,1.0,0.0
9032,90.0,73.0,120.0,1.0,0.0
9033,94.0,55.0,120.0,1.0,0.0
9034,90.0,60.0,120.0,1.0,0.0
9035,84.0,58.0,120.0,1.0,0.0
9036,87.0,58.0,15.0,1.0,0.0
9037,85.0,58.0,120.0,1.0,0.0
9038,80.0,58.0,120.0,1.0,0.0
9039,78.0,58.0,120.0,1.0,0.0
9040,82.0,57.0,120.0,1.0,0.0
9041,78.0,58.0,120.0,1.0,0.0
9042,75.0,58.0,90.0,1.0,0.0
9043,72.0,58.0,90.0,1.0,0.0
9044,75.0,58.0,90.0,1.0,0.0
9045,73.0,58.0,90.0,1.0,0.0
9046,68.0,58.0,90.0,1.0,0.0
9047,66.0,58.0,90.0,1.0,0.0
9048,70.0,57.0,90.0,1.0,0.0
9049,66.0,58.0,90.0,1.0,0.0
9050,63.0,58.0,90.0,1.0,0.0
9051,60.0,58.0,90.0,1.0,0.0
9052,63.0,58.0,90.0,1.0,0.0
9053,60.0,58.0,90.0,1.0,0.0
9054,56.0,58.0,90.0,1.0,0.0
9055,54.0,57.0,90.0,1.0,0.0
9056,58.0,58.0,60.0,1.0,0.0
9057,54.0,58.0,60.0,1.0,0.0
9058,51.0,58.0,60.0,1.0,0.0
9059,48.0,58.0,60.0,1.0,0.0
9060,51.0,58.0,60.0,1.0,0.0
9061,49.0,58.0,60.0,1.0,0.0
9062,44.0,359.0,60.0,1.0,0.0
9063,42.0,1672.0,360.0,1.0,0.0
9064,69.0,488.0,480.0,5.0,0.0
9065,73.0,0.0,3240.0,1.0,0.0
9066,78.0,240.0,720.0,1.0,0.0
9067,68.0,480.0,960.0,5.0,0.0
9068,61.0,8.0,1920.0,5.0,0.0
9069,76.0,240.0,240.0,1.0,0.0
9070,81.0,472.0,720.0,1.0,0.0
9071,69.0,480.0,960.0,5.0,0.0
9072,80.0,0.0,480.0,1.0,0.0
9073,70.0,0.0,840.0,5.0,0.0
9074,61.0,7.0,840.0,5.0,0.0
9075,79.0,360.0,480.0,1.0,0.0
9076,87.0,1073.0,360.0,1.0,0.0
9077,66.0,480.0,480.0,5.0,0.0
9078,70.0,593.0,3240.0,1.0,0.0
9079,75.0,240.0,720.0,1.0,0.0
9080,65.0,480.0,960.0,5.0,0.0
9081,58.0,465.0,1920.0,5.0,0.0
9082,73.0,240.0,240.0,1.0,0.0
9083,78.0,480.0,720.0,1.0,0.0
9084,66.0,15.0,960.0,5.0,0.0
9085,77.0,0.0,480.0,1.0,0.0
9086,76.0,360.0,480.0,1.0,0.0
9087,67.0,7.0,840.0,5.0,0.0
9088,60.0,0.0,840.0,5.0,0.0
9089,84.0,0.0,360.0,1.0,0.0
9090,84.0,60.0,15.0,1.0,0.0
9091,85.0,60.0,60.0,1.0,0.0
9092,84.0,60.0,60.0,1.0,0.0
9093,85.0,60.0,60.0,1.0,0.0
9094,84.0,37.0,60.0,1.0,0.0
9095,85.0,38.0,60.0,1.0,0.0
9096,84.0,45.0,60.0,1.0,0.0
9097,82.0,60.0,60.0,1.0,0.0
9098,84.0,720.0,60.0,1.0,0.0
9099,87.0,240.0,720.0,1.0,0.0
9100,72.0,128.0,960.0,5.0,0.0
9101,66.0,80.0,1200.0,5.0,0.0
9102,63.0,0.0,1200.0,5.0,0.0
9103,58.0,0.0,960.0,5.0,0.0
9104,85.0,0.0,240.0,1.0,0.0
9105,84.0,112.0,120.0,1.0,0.0
9106,57.0,0.0,240.0,5.0,0.0
9107,75.0,160.0,150.0,1.0,0.0
9108,77.0,160.0,150.0,1.0,0.0
9109,80.0,160.0,150.0,1.0,0.0
9110,78.0,160.0,150.0,1.0,0.0
9111,72.0,160.0,150.0,1.0,0.0
9112,77.0,160.0,150.0,1.0,0.0
9113,75.0,160.0,150.0,1.0,0.0
9114,69.0,160.0,150.0,1.0,0.0
9115,73.0,160.0,150.0,1.0,0.0
9116,72.0,128.0,150.0,1.0,0.0
9117,65.0,160.0,120.0,1.0,0.0
9118,69.0,160.0,120.0,1.0,0.0
9119,66.0,160.0,120.0,1.0,0.0
9120,65.0,157.0,120.0,1.0,0.0
9121,63.0,128.0,120.0,1.0,0.0
9122,66.0,128.0,120.0,1.0,0.0
9123,70.0,128.0,150.0,1.0,0.0
9124,73.0,128.0,150.0,1.0,0.0
9125,72.0,129.0,150.0,1.0,0.0
9126,75.0,128.0,180.0,1.0,0.0
9127,78.0,128.0,180.0,1.0,0.0
9128,82.0,128.0,180.0,1.0,0.0
9129,81.0,128.0,180.0,1.0,0.0
9130,84.0,128.0,210.0,1.0,0.0
9131,87.0,34.0,210.0,1.0,0.0
9132,90.0,480.0,120.0,1.0,0.0
9133,90.0,0.0,720.0,1.0,0.0
9134,41.0,240.0,240.0,5.0,0.0
9135,48.0,192.0,240.0,5.0,0.0
9136,78.0,0.0,15.0,2.0,0.0
9137,53.0,128.0,240.0,5.0,0.0
9138,90.0,0.0,180.0,1.0,0.0
9139,58.0,128.0,150.0,5.0,0.0
9140,78.0,0.0,120.0,2.0,0.0
9141,90.0,32.0,120.0,1.0,0.0
9142,78.0,32.0,120.0,2.0,0.0
9143,60.0,128.0,150.0,5.0,0.0
9144,90.0,0.0,120.0,1.0,0.0
9145,78.0,0.0,120.0,2.0,0.0
9146,65.0,128.0,150.0,5.0,0.0
9147,90.0,32.0,120.0,1.0,0.0
9148,78.0,0.0,120.0,2.0,0.0
9149,90.0,32.0,120.0,1.0,0.0
9150,70.0,128.0,150.0,5.0,0.0
9151,90.0,32.0,120.0,1.0,0.0
9152,72.0,128.0,150.0,5.0,0.0
9153,78.0,0.0,120.0,2.0,0.0
9154,90.0,0.0,120.0,1.0,0.0
9155,77.0,780.0,150.0,2.0,0.0
9156,78.0,32.0,120.0,2.0,0.0
9157,90.0,0.0,960.0,1.0,0.0
9158,78.0,0.0,960.0,2.0,0.0
9159,82.0,1447.0,960.0,5.0,0.0
9160,53.0,60.0,60.0,5.0,0.0
9161,57.0,60.0,60.0,5.0,0.0
9162,60.0,60.0,60.0,5.0,0.0
9163,65.0,0.0,60.0,5.0,0.0
9164,69.0,2385.0,1440.0,5.0,0.0
9165,81.0,0.0,1440.0,5.0,0.0
9166,89.0,0.0,1440.0,1.0,0.0
9167,77.0,8.0,1440.0,2.0,0.0
9168,78.0,456.0,480.0,1.0,0.0
9169,77.0,0.0,960.0,1.0,0.0
9170,57.0,24.0,450.0,4.0,0.0
9171,53.0,456.0,240.0,3.0,0.0
9172,60.0,24.0,450.0,4.0,0.0
9173,53.0,456.0,240.0,3.0,0.0
9174,61.0,24.0,450.0,4.0,0.0
9175,70.0,456.0,480.0,1.0,0.0
9176,53.0,0.0,240.0,3.0,0.0
9177,63.0,24.0,450.0,4.0,0.0
9178,72.0,0.0,480.0,1.0,0.0
9179,53.0,456.0,240.0,3.0,0.0
9180,65.0,456.0,1440.0,1.0,0.0
9181,64.0,24.0,450.0,4.0,0.0
9182,53.0,456.0,240.0,3.0,0.0
9183,63.0,24.0,450.0,4.0,0.0
9184,53.0,456.0,240.0,3.0,0.0
9185,62.0,24.0,450.0,4.0,0.0
9186,53.0,0.0,240.0,3.0,0.0
9187,61.0,24.0,450.0,4.0,0.0
9188,70.0,456.0,480.0,1.0,0.0
9189,53.0,0.0,240.0,3.0,0.0
9190,69.0,0.0,480.0,1.0,0.0
9191,60.0,24.0,450.0,4.0,0.0
9192,53.0,456.0,240.0,3.0,0.0
9193,70.0,456.0,480.0,1.0,0.0
9194,61.0,24.0,450.0,4.0,0.0
9195,53.0,0.0,240.0,3.0,0.0
9196,72.0,0.0,480.0,1.0,0.0
9197,57.0,24.0,450.0,4.0,0.0
9198,53.0,456.0,240.0,3.0,0.0
9199,58.0,24.0,450.0,4.0,0.0
9200,73.0,0.0,480.0,1.0,0.0
9201,53.0,456.0,240.0,3.0,0.0
9202,77.0,0.0,480.0,1.0,0.0
9203,70.0,0.0,960.0,2.0,0.0
9204,68.0,24.0,450.0,4.0,0.0
9205,53.0,456.0,240.0,3.0,0.0
9206,75.0,456.0,480.0,1.0,0.0
9207,66.0,24.0,450.0,4.0,0.0
9208,53.0,0.0,240.0,3.0,0.0
9209,72.0,0.0,480.0,1.0,0.0
9210,69.0,0.0,480.0,2.0,0.0
9211,65.0,24.0,450.0,4.0,0.0
9212,53.0,936.0,240.0,3.0,0.0
9213,78.0,0.0,1440.0,1.0,0.0
9214,66.0,24.0,450.0,4.0,0.0
9215,54.0,456.0,240.0,3.0,0.0
9216,66.0,24.0,450.0,4.0,0.0
9217,54.0,456.0,240.0,3.0,0.0
9218,71.0,0.0,480.0,1.0,0.0
9219,63.0,24.0,450.0,4.0,0.0
9220,54.0,456.0,240.0,3.0,0.0
9221,64.0,24.0,450.0,4.0,0.0
9222,73.0,456.0,480.0,1.0,0.0
9223,54.0,0.0,240.0,3.0,0.0
9224,58.0,24.0,450.0,4.0,0.0
9225,66.0,80.0,1920.0,1.0,0.0
9226,54.0,456.0,240.0,3.0,0.0
9227,58.0,24.0,450.0,4.0,0.0
9228,52.0,456.0,240.0,3.0,0.0
9229,59.0,24.0,450.0,4.0,0.0
9230,51.0,456.0,240.0,3.0,0.0
9231,72.0,0.0,480.0,1.0,0.0
9232,63.0,24.0,450.0,4.0,0.0
9233,51.0,0.0,240.0,3.0,0.0
9234,61.0,24.0,450.0,4.0,0.0
9235,70.0,80.0,90.0,1.0,0.0
9236,65.0,456.0,1440.0,2.0,0.0
9237,72.0,80.0,90.0,1.0,0.0
9238,70.0,80.0,90.0,1.0,0.0
9239,53.0,80.0,240.0,3.0,0.0
9240,72.0,80.0,90.0,1.0,0.0
9241,70.0,56.0,90.0,1.0,0.0
9242,72.0,0.0,90.0,1.0,0.0
9243,70.0,80.0,90.0,1.0,0.0
9244,61.0,24.0,450.0,4.0,0.0
9245,72.0,80.0,90.0,1.0,0.0
9246,70.0,120.0,90.0,1.0,0.0
9247,53.0,0.0,240.0,3.0,0.0
9248,69.0,96.0,120.0,1.0,0.0
9249,70.0,456.0,120.0,1.0,0.0
9250,63.0,24.0,450.0,4.0,0.0
9251,72.0,0.0,480.0,1.0,0.0
9252,53.0,0.0,240.0,3.0,0.0
9253,63.0,24.0,450.0,4.0,0.0
9254,69.0,0.0,480.0,2.0,0.0
9255,53.0,240.0,240.0,3.0,0.0
9256,77.0,0.0,15.0,1.0,0.0
9257,46.0,240.0,240.0,4.0,0.0
9258,70.0,0.0,960.0,2.0,0.0
9259,53.0,240.0,240.0,4.0,0.0
9260,61.0,240.0,240.0,4.0,0.0
9261,58.0,240.0,240.0,4.0,0.0
9262,70.0,1149.0,240.0,1.0,0.0
9263,82.0,429.0,1440.0,1.0,0.0
9264,62.0,51.0,420.0,4.0,0.0
9265,58.0,429.0,240.0,3.0,0.0
9266,65.0,51.0,420.0,4.0,0.0
9267,58.0,0.0,240.0,3.0,0.0
9268,66.0,51.0,420.0,4.0,0.0
9269,75.0,0.0,480.0,1.0,0.0
9270,58.0,429.0,240.0,3.0,0.0
9271,68.0,51.0,420.0,4.0,0.0
9272,77.0,429.0,480.0,1.0,0.0
9273,58.0,0.0,240.0,3.0,0.0
9274,70.0,429.0,1440.0,1.0,0.0
9275,69.0,51.0,420.0,4.0,0.0
9276,58.0,429.0,240.0,3.0,0.0
9277,68.0,51.0,420.0,4.0,0.0
9278,58.0,429.0,240.0,3.0,0.0
9279,67.0,51.0,420.0,4.0,0.0
9280,58.0,0.0,240.0,3.0,0.0
9281,75.0,429.0,480.0,1.0,0.0
9282,66.0,51.0,420.0,4.0,0.0
9283,58.0,0.0,240.0,3.0,0.0
9284,74.0,0.0,480.0,1.0,0.0
9285,65.0,51.0,420.0,4.0,0.0
9286,58.0,429.0,240.0,3.0,0.0
9287,75.0,0.0,480.0,1.0,0.0
9288,66.0,51.0,420.0,4.0,0.0
9289,58.0,429.0,240.0,3.0,0.0
9290,62.0,51.0,420.0,4.0,0.0
9291,77.0,0.0,480.0,1.0,0.0
9292,58.0,429.0,240.0,3.0,0.0
9293,78.0,0.0,480.0,1.0,0.0
9294,63.0,51.0,420.0,4.0,0.0
9295,58.0,429.0,240.0,3.0,0.0
9296,80.0,429.0,960.0,1.0,0.0
9297,77.0,0.0,960.0,2.0,0.0
9298,70.0,51.0,420.0,4.0,0.0
9299,58.0,429.0,240.0,3.0,0.0
9300,71.0,51.0,420.0,4.0,0.0
9301,59.0,0.0,240.0,3.0,0.0
9302,72.0,51.0,420.0,4.0,0.0
9303,76.0,0.0,480.0,2.0,0.0
9304,79.0,429.0,480.0,1.0,0.0
9305,60.0,0.0,240.0,3.0,0.0
9306,85.0,429.0,480.0,1.0,0.0
9307,72.0,51.0,420.0,4.0,0.0
9308,60.0,0.0,240.0,3.0,0.0
9309,84.0,0.0,960.0,1.0,0.0
9310,72.0,51.0,420.0,4.0,0.0
9311,60.0,429.0,240.0,3.0,0.0
9312,72.0,51.0,420.0,4.0,0.0
9313,60.0,429.0,240.0,3.0,0.0
9314,77.0,429.0,480.0,1.0,0.0
9315,68.0,51.0,420.0,4.0,0.0
9316,60.0,0.0,240.0,3.0,0.0
9317,79.0,0.0,480.0,1.0,0.0
9318,70.0,51.0,420.0,4.0,0.0
9319,60.0,429.0,240.0,3.0,0.0
9320,72.0,429.0,1440.0,1.0,0.0
9321,71.0,51.0,420.0,4.0,0.0
9322,60.0,429.0,240.0,3.0,0.0
9323,70.0,51.0,420.0,4.0,0.0
9324,60.0,429.0,240.0,3.0,0.0
9325,69.0,51.0,420.0,4.0,0.0
9326,60.0,0.0,240.0,3.0,0.0
9327,77.0,429.0,480.0,1.0,0.0
9328,68.0,51.0,420.0,4.0,0.0
9329,60.0,0.0,240.0,3.0,0.0
9330,67.0,51.0,420.0,4.0,0.0
9331,76.0,0.0,480.0,1.0,0.0
9332,60.0,429.0,240.0,3.0,0.0
9333,77.0,429.0,480.0,1.0,0.0
9334,68.0,51.0,420.0,4.0,0.0
9335,60.0,0.0,240.0,3.0,0.0
9336,79.0,429.0,480.0,1.0,0.0
9337,64.0,51.0,420.0,4.0,0.0
9338,60.0,0.0,240.0,3.0,0.0
9339,80.0,429.0,480.0,1.0,0.0
9340,65.0,51.0,420.0,4.0,0.0
9341,60.0,0.0,240.0,3.0,0.0
9342,82.0,429.0,1440.0,1.0,0.0
9343,72.0,51.0,420.0,4.0,0.0
9344,79.0,0.0,1440.0,2.0,0.0
9345,60.0,429.0,240.0,3.0,0.0
9346,73.0,51.0,420.0,4.0,0.0
9347,61.0,429.0,240.0,3.0,0.0
9348,74.0,51.0,420.0,4.0,0.0
9349,62.0,0.0,240.0,3.0,0.0
9350,78.0,0.0,480.0,2.0,0.0
9351,75.0,51.0,420.0,4.0,0.0
9352,81.0,429.0,480.0,1.0,0.0
9353,63.0,0.0,240.0,3.0,0.0
9354,81.0,429.0,1440.0,2.0,0.0
9355,76.0,51.0,420.0,4.0,0.0
9356,84.0,0.0,1440.0,1.0,0.0
9357,64.0,429.0,240.0,3.0,0.0
9358,77.0,51.0,420.0,4.0,0.0
9359,65.0,429.0,240.0,3.0,0.0
9360,78.0,51.0,420.0,4.0,0.0
9361,66.0,0.0,240.0,3.0,0.0
9362,77.0,51.0,420.0,4.0,0.0
9363,84.0,240.0,480.0,2.0,0.0
9364,87.0,0.0,480.0,1.0,0.0
9365,65.0,0.0,480.0,3.0,0.0
9366,90.0,0.0,240.0,1.0,0.0
9367,72.0,240.0,240.0,4.0,0.0
9368,69.0,0.0,240.0,5.0,0.0
9369,87.0,240.0,240.0,1.0,0.0
9370,84.0,240.0,240.0,1.0,0.0
9371,81.0,200.0,240.0,1.0,0.0
9372,53.0,20.0,240.0,5.0,0.0
9373,57.0,10.0,240.0,5.0,0.0
9374,60.0,10.0,240.0,5.0,0.0
9375,63.0,240.0,240.0,5.0,0.0
9376,78.0,0.0,240.0,1.0,0.0
9377,75.0,240.0,240.0,1.0,0.0
9378,72.0,240.0,240.0,1.0,0.0
9379,69.0,200.0,240.0,1.0,0.0
9380,44.0,20.0,240.0,5.0,0.0
9381,48.0,10.0,240.0,5.0,0.0
9382,51.0,10.0,240.0,5.0,0.0
9383,54.0,0.0,240.0,5.0,0.0
9384,66.0,192.0,240.0,1.0,0.0
9385,65.0,288.0,180.0,1.0,0.0
9386,78.0,0.0,240.0,1.0,0.0
9387,54.0,192.0,240.0,5.0,0.0
9388,77.0,0.0,180.0,1.0,0.0
9389,53.0,288.0,180.0,5.0,0.0
9390,54.0,0.0,240.0,5.0,0.0
9391,78.0,192.0,240.0,1.0,0.0
9392,53.0,288.0,180.0,5.0,0.0
9393,77.0,0.0,180.0,1.0,0.0
9394,78.0,0.0,960.0,1.0,0.0
9395,54.0,192.0,240.0,5.0,0.0
9396,53.0,504.0,180.0,5.0,0.0
9397,57.0,24.0,450.0,4.0,0.0
9398,53.0,456.0,240.0,3.0,0.0
9399,77.0,456.0,480.0,1.0,0.0
9400,60.0,24.0,450.0,4.0,0.0
9401,53.0,0.0,240.0,3.0,0.0
9402,70.0,0.0,480.0,1.0,0.0
9403,61.0,24.0,450.0,4.0,0.0
9404,53.0,456.0,240.0,3.0,0.0
9405,63.0,24.0,450.0,4.0,0.0
9406,72.0,0.0,480.0,1.0,0.0
9407,53.0,456.0,240.0,3.0,0.0
9408,65.0,456.0,1440.0,1.0,0.0
9409,64.0,24.0,450.0,4.0,0.0
9410,53.0,456.0,240.0,3.0,0.0
9411,63.0,24.0,450.0,4.0,0.0
9412,53.0,456.0,240.0,3.0,0.0
9413,62.0,24.0,450.0,4.0,0.0
9414,53.0,0.0,240.0,3.0,0.0
9415,61.0,24.0,450.0,4.0,0.0
9416,70.0,0.0,480.0,1.0,0.0
9417,53.0,456.0,240.0,3.0,0.0
9418,69.0,456.0,480.0,1.0,0.0
9419,60.0,24.0,450.0,4.0,0.0
9420,53.0,0.0,240.0,3.0,0.0
9421,61.0,24.0,450.0,4.0,0.0
9422,70.0,456.0,480.0,1.0,0.0
9423,53.0,0.0,240.0,3.0,0.0
9424,72.0,0.0,480.0,1.0,0.0
9425,57.0,24.0,450.0,4.0,0.0
9426,53.0,456.0,240.0,3.0,0.0
9427,58.0,24.0,450.0,4.0,0.0
9428,73.0,0.0,480.0,1.0,0.0
9429,53.0,456.0,240.0,3.0,0.0
9430,68.0,24.0,450.0,4.0,0.0
9431,77.0,456.0,480.0,1.0,0.0
9432,70.0,0.0,960.0,2.0,0.0
9433,54.0,0.0,240.0,3.0,0.0
9434,75.0,0.0,480.0,1.0,0.0
9435,66.0,24.0,450.0,4.0,0.0
9436,54.0,456.0,240.0,3.0,0.0
9437,63.0,24.0,450.0,4.0,0.0
9438,72.0,456.0,480.0,1.0,0.0
9439,68.0,0.0,480.0,2.0,0.0
9440,56.0,0.0,240.0,3.0,0.0
9441,72.0,456.0,960.0,1.0,0.0
9442,63.0,24.0,450.0,4.0,0.0
9443,56.0,456.0,240.0,3.0,0.0
9444,64.0,24.0,450.0,4.0,0.0
9445,56.0,0.0,240.0,3.0,0.0
9446,65.0,24.0,450.0,4.0,0.0
9447,73.0,456.0,480.0,1.0,0.0
9448,56.0,0.0,240.0,3.0,0.0
9449,75.0,456.0,480.0,1.0,0.0
9450,60.0,24.0,450.0,4.0,0.0
9451,56.0,0.0,240.0,3.0,0.0
9452,77.0,429.0,480.0,1.0,0.0
9453,61.0,24.0,450.0,4.0,0.0
9454,56.0,0.0,240.0,3.0,0.0
9455,73.0,0.0,960.0,2.0,0.0
9456,70.0,51.0,420.0,4.0,0.0
9457,80.0,0.0,480.0,1.0,0.0
9458,58.0,429.0,240.0,3.0,0.0
9459,70.0,51.0,420.0,4.0,0.0
9460,79.0,429.0,480.0,1.0,0.0
9461,58.0,0.0,240.0,3.0,0.0
9462,76.0,0.0,480.0,1.0,0.0
9463,72.0,0.0,480.0,2.0,0.0
9464,67.0,51.0,420.0,4.0,0.0
9465,60.0,429.0,240.0,3.0,0.0
9466,75.0,0.0,960.0,1.0,0.0
9467,67.0,51.0,420.0,4.0,0.0
9468,60.0,429.0,240.0,3.0,0.0
9469,67.0,51.0,420.0,4.0,0.0
9470,60.0,429.0,240.0,3.0,0.0
9471,77.0,0.0,480.0,1.0,0.0
9472,68.0,51.0,420.0,4.0,0.0
9473,60.0,429.0,240.0,3.0,0.0
9474,64.0,51.0,420.0,4.0,0.0
9475,79.0,429.0,480.0,1.0,0.0
9476,60.0,0.0,240.0,3.0,0.0
9477,82.0,11.0,450.0,1.0,0.0
9478,67.0,13.0,420.0,4.0,0.0
9479,60.0,267.0,210.0,3.0,0.0
9480,58.0,30.0,360.0,5.0,0.0
9481,65.0,10.0,360.0,5.0,0.0
9482,70.0,120.0,360.0,4.0,0.0
9483,73.0,0.0,240.0,2.0,0.0
9484,85.0,80.0,240.0,1.0,0.0
9485,77.0,0.0,240.0,2.0,0.0
9486,84.0,240.0,240.0,1.0,0.0
9487,82.0,240.0,240.0,1.0,0.0
9488,77.0,240.0,240.0,1.0,0.0
9489,73.0,240.0,240.0,1.0,0.0
9490,72.0,240.0,240.0,1.0,0.0
9491,63.0,120.0,360.0,5.0,0.0
9492,70.0,120.0,240.0,1.0,0.0
9493,58.0,0.0,360.0,5.0,0.0
9494,51.0,0.0,360.0,5.0,0.0
9495,78.0,360.0,240.0,1.0,0.0
9496,77.0,0.0,360.0,1.0,0.0
9497,53.0,0.0,360.0,5.0,0.0
9498,61.0,960.0,360.0,5.0,0.0
9499,58.0,0.0,360.0,5.0,0.0
9500,53.0,760.0,360.0,5.0,0.0
9501,60.0,0.0,360.0,5.0,0.0
9502,63.0,0.0,360.0,5.0,0.0
9503,65.0,0.0,360.0,2.0,0.0
9504,69.0,0.0,360.0,1.0,0.0
9505,90.0,160.0,150.0,1.0,0.0
9506,39.0,0.0,150.0,5.0,0.0
9507,41.0,160.0,150.0,5.0,0.0
9508,89.0,0.0,150.0,1.0,0.0
9509,87.0,0.0,150.0,1.0,0.0
9510,42.0,160.0,150.0,5.0,0.0
9511,82.0,160.0,150.0,1.0,0.0
9512,46.0,0.0,150.0,5.0,0.0
9513,78.0,160.0,150.0,1.0,0.0
9514,51.0,0.0,150.0,5.0,0.0
9515,53.0,0.0,150.0,5.0,0.0
9516,77.0,160.0,150.0,1.0,0.0
9517,54.0,0.0,150.0,5.0,0.0
9518,75.0,160.0,150.0,1.0,0.0
9519,58.0,0.0,150.0,5.0,0.0
9520,70.0,160.0,150.0,1.0,0.0
9521,63.0,160.0,150.0,5.0,0.0
9522,66.0,0.0,150.0,1.0,0.0
9523,70.0,160.0,150.0,1.0,0.0
9524,58.0,0.0,150.0,5.0,0.0
9525,54.0,0.0,150.0,5.0,0.0
9526,75.0,160.0,150.0,1.0,0.0
9527,51.0,0.0,150.0,5.0,0.0
9528,78.0,360.0,150.0,1.0,0.0
9529,61.0,960.0,360.0,5.0,0.0
9530,58.0,0.0,360.0,5.0,0.0
9531,53.0,0.0,360.0,5.0,0.0
9532,65.0,0.0,360.0,2.0,0.0
9533,70.0,0.0,360.0,2.0,0.0
9534,77.0,0.0,360.0,1.0,0.0
9535,53.0,0.0,360.0,5.0,0.0
9536,63.0,0.0,360.0,5.0,0.0
9537,65.0,0.0,360.0,2.0,0.0
9538,69.0,0.0,360.0,1.0,0.0
9539,60.0,540.0,360.0,5.0,0.0
9540,89.0,40.0,60.0,1.0,0.0
9541,46.0,38.0,450.0,5.0,0.0
9542,90.0,40.0,60.0,1.0,0.0
9543,53.0,2.0,360.0,5.0,0.0
9544,92.0,300.0,60.0,1.0,0.0
9545,94.0,0.0,720.0,1.0,0.0
9546,82.0,125.0,720.0,2.0,0.0
9547,61.0,360.0,360.0,5.0,0.0
9548,92.0,55.0,120.0,1.0,0.0
9549,73.0,0.0,60.0,5.0,0.0
9550,85.0,40.0,60.0,1.0,0.0
9551,75.0,40.0,60.0,5.0,0.0
9552,87.0,0.0,60.0,1.0,0.0
9553,77.0,0.0,60.0,5.0,0.0
9554,89.0,700.0,60.0,1.0,0.0
9555,90.0,0.0,720.0,1.0,0.0
9556,78.0,120.0,720.0,5.0,0.0
9557,89.0,35.0,120.0,1.0,0.0
9558,77.0,5.0,120.0,5.0,0.0
9559,58.0,0.0,60.0,5.0,0.0
9560,70.0,20.0,40.0,2.0,0.0
9561,82.0,20.0,60.0,1.0,0.0
9562,71.0,20.0,40.0,2.0,0.0
9563,59.0,0.0,60.0,5.0,0.0
9564,83.0,20.0,60.0,1.0,0.0
9565,61.0,700.0,60.0,5.0,0.0
9566,73.0,20.0,40.0,2.0,0.0
9567,85.0,0.0,60.0,1.0,0.0
9568,63.0,0.0,720.0,5.0,0.0
9569,87.0,0.0,720.0,1.0,0.0
9570,75.0,120.0,720.0,2.0,0.0
9571,85.0,60.0,120.0,1.0,0.0
9572,61.0,0.0,120.0,5.0,0.0
9573,73.0,0.0,120.0,2.0,0.0
9574,42.0,40.0,60.0,5.0,0.0
9575,78.0,0.0,60.0,1.0,0.0
9576,44.0,0.0,60.0,5.0,0.0
9577,80.0,40.0,60.0,1.0,0.0
9578,46.0,700.0,60.0,5.0,0.0
9579,82.0,0.0,60.0,1.0,0.0
9580,71.0,192.0,720.0,2.0,0.0
9581,47.0,0.0,720.0,5.0,0.0
9582,83.0,0.0,720.0,1.0,0.0
9583,58.0,0.0,180.0,5.0,0.0
9584,70.0,304.0,180.0,2.0,0.0
9585,82.0,0.0,180.0,1.0,0.0
9586,68.0,0.0,270.0,2.0,0.0
9587,56.0,0.0,270.0,5.0,0.0
9588,80.0,320.0,270.0,1.0,0.0
9589,54.0,0.0,270.0,5.0,0.0
9590,66.0,320.0,270.0,2.0,0.0
9591,78.0,0.0,270.0,1.0,0.0
9592,77.0,0.0,270.0,1.0,0.0
9593,65.0,320.0,270.0,2.0,0.0
9594,53.0,0.0,270.0,5.0,0.0
9595,63.0,0.0,270.0,2.0,0.0
9596,75.0,0.0,270.0,1.0,0.0
9597,51.0,320.0,270.0,5.0,0.0
9598,61.0,0.0,270.0,2.0,0.0
9599,73.0,320.0,270.0,1.0,0.0
9600,49.0,0.0,270.0,5.0,0.0
9601,60.0,0.0,270.0,2.0,0.0
9602,48.0,320.0,270.0,5.0,0.0
9603,72.0,0.0,270.0,1.0,0.0
9604,68.0,0.0,270.0,1.0,0.0
9605,56.0,320.0,270.0,2.0,0.0
9606,44.0,0.0,270.0,5.0,0.0
9607,66.0,0.0,270.0,1.0,0.0
9608,42.0,0.0,270.0,5.0,0.0
9609,54.0,320.0,270.0,2.0,0.0
9610,53.0,0.0,270.0,2.0,0.0
9611,65.0,320.0,270.0,1.0,0.0
9612,41.0,0.0,270.0,5.0,0.0
9613,39.0,320.0,270.0,5.0,0.0
9614,63.0,0.0,270.0,1.0,0.0
9615,51.0,0.0,270.0,2.0,0.0
9616,37.0,320.0,270.0,5.0,0.0
9617,61.0,0.0,270.0,1.0,0.0
9618,49.0,0.0,270.0,2.0,0.0
9619,48.0,0.0,270.0,2.0,0.0
9620,60.0,352.0,270.0,1.0,0.0
9621,36.0,0.0,270.0,5.0,0.0
9622,46.0,0.0,300.0,2.0,0.0
9623,58.0,0.0,300.0,1.0,0.0
9624,34.0,949.0,300.0,5.0,0.0
9625,46.0,4.0,330.0,5.0,0.0
9626,49.0,0.0,300.0,5.0,0.0
9627,53.0,7.0,300.0,5.0,0.0
9628,82.0,0.0,300.0,1.0,0.0
9629,73.0,0.0,300.0,2.0,0.0
9630,61.0,945.0,300.0,5.0,0.0
9631,70.0,0.0,300.0,2.0,0.0
9632,77.0,0.0,300.0,2.0,0.0
9633,58.0,7.0,330.0,5.0,0.0
9634,61.0,5.0,300.0,5.0,0.0
9635,65.0,3.0,300.0,5.0,0.0
9636,70.0,672.0,300.0,5.0,0.0
9637,82.0,0.0,960.0,2.0,0.0
9638,89.0,0.0,960.0,2.0,0.0
9639,94.0,960.0,960.0,1.0,0.0
9640,85.0,0.0,960.0,2.0,0.0
9641,54.0,0.0,480.0,5.0,0.0
9642,66.0,360.0,480.0,5.0,0.0
9643,53.0,0.0,360.0,5.0,0.0
9644,65.0,360.0,360.0,5.0,0.0
9645,48.0,0.0,240.0,5.0,0.0
9646,60.0,240.0,240.0,5.0,0.0
9647,49.0,360.0,240.0,5.0,0.0
9648,61.0,0.0,240.0,5.0,0.0
9649,58.0,360.0,360.0,5.0,0.0
9650,46.0,0.0,360.0,5.0,0.0
9651,44.0,240.0,240.0,5.0,0.0
9652,56.0,0.0,240.0,5.0,0.0
9653,58.0,360.0,240.0,5.0,0.0
9654,46.0,0.0,240.0,5.0,0.0
9655,54.0,276.0,360.0,5.0,0.0
9656,42.0,0.0,360.0,5.0,0.0
9657,53.0,0.0,150.0,5.0,0.0
9658,41.0,240.0,150.0,5.0,0.0
9659,54.0,0.0,150.0,5.0,0.0
9660,42.0,444.0,150.0,5.0,0.0
9661,51.0,276.0,360.0,5.0,0.0
9662,39.0,0.0,360.0,5.0,0.0
9663,49.0,0.0,150.0,5.0,0.0
9664,37.0,204.0,150.0,5.0,0.0
9665,75.0,0.0,360.0,1.0,0.0
9666,63.0,0.0,360.0,1.0,0.0
9667,70.0,0.0,360.0,2.0,0.0
9668,67.0,36.0,360.0,2.0,0.0
9669,51.0,0.0,150.0,5.0,0.0
9670,39.0,444.0,150.0,5.0,0.0
9671,80.0,0.0,360.0,2.0,0.0
9672,47.0,0.0,360.0,5.0,0.0
9673,75.0,276.0,360.0,1.0,0.0
9674,87.0,0.0,360.0,1.0,0.0
9675,35.0,0.0,360.0,5.0,0.0
9676,82.0,0.0,150.0,1.0,0.0
9677,59.0,0.0,360.0,5.0,0.0
9678,63.0,36.0,360.0,5.0,0.0
9679,56.0,0.0,360.0,5.0,0.0
9680,70.0,204.0,150.0,1.0,0.0
9681,83.0,444.0,150.0,1.0,0.0
9682,71.0,0.0,150.0,1.0,0.0
9683,68.0,276.0,360.0,1.0,0.0
9684,80.0,0.0,360.0,1.0,0.0
9685,34.0,240.0,150.0,5.0,0.0
9686,78.0,0.0,150.0,1.0,0.0
9687,66.0,0.0,150.0,1.0,0.0
9688,46.0,0.0,150.0,5.0,0.0
9689,80.0,444.0,150.0,1.0,0.0
9690,47.0,0.0,150.0,5.0,0.0
9691,68.0,0.0,150.0,1.0,0.0
9692,35.0,0.0,150.0,5.0,0.0
9693,65.0,260.0,360.0,1.0,0.0
9694,32.0,0.0,360.0,5.0,0.0
9695,44.0,0.0,360.0,5.0,0.0
9696,77.0,0.0,360.0,1.0,0.0
9697,59.0,0.0,360.0,5.0,0.0
9698,56.0,36.0,360.0,5.0,0.0
9699,63.0,204.0,150.0,1.0,0.0
9700,75.0,16.0,150.0,1.0,0.0
9701,65.0,0.0,150.0,1.0,0.0
9702,77.0,444.0,150.0,1.0,0.0
9703,62.0,276.0,360.0,1.0,0.0
9704,74.0,0.0,360.0,1.0,0.0
9705,58.0,0.0,360.0,5.0,0.0
9706,46.0,36.0,360.0,5.0,0.0
9707,75.0,204.0,150.0,1.0,0.0
9708,63.0,0.0,150.0,1.0,0.0
9709,65.0,0.0,150.0,1.0,0.0
9710,77.0,444.0,150.0,1.0,0.0
9711,70.0,0.0,360.0,5.0,0.0
9712,58.0,276.0,360.0,5.0,0.0
9713,78.0,0.0,360.0,1.0,0.0
9714,66.0,0.0,360.0,1.0,0.0
9715,87.0,36.0,360.0,1.0,0.0
9716,82.0,0.0,360.0,2.0,0.0
9717,65.0,0.0,150.0,5.0,0.0
9718,75.0,0.0,360.0,1.0,0.0
9719,53.0,204.0,150.0,5.0,0.0
9720,54.0,444.0,150.0,5.0,0.0
9721,66.0,0.0,150.0,5.0,0.0
9722,63.0,0.0,360.0,5.0,0.0
9723,51.0,276.0,360.0,5.0,0.0
9724,49.0,0.0,150.0,5.0,0.0
9725,65.0,240.0,150.0,1.0,0.0
9726,77.0,0.0,150.0,1.0,0.0
9727,61.0,0.0,150.0,5.0,0.0
9728,79.0,0.0,150.0,1.0,0.0
9729,51.0,0.0,150.0,5.0,0.0
9730,63.0,444.0,150.0,5.0,0.0
9731,67.0,0.0,150.0,1.0,0.0
9732,47.0,0.0,360.0,5.0,0.0
9733,59.0,0.0,360.0,5.0,0.0
9734,80.0,276.0,360.0,1.0,0.0
9735,68.0,0.0,360.0,1.0,0.0
9736,58.0,0.0,150.0,5.0,0.0
9737,46.0,204.0,150.0,5.0,0.0
9738,80.0,0.0,360.0,1.0,0.0
9739,92.0,0.0,360.0,1.0,0.0
9740,87.0,36.0,360.0,2.0,0.0
9741,60.0,0.0,150.0,5.0,0.0
9742,48.0,444.0,150.0,5.0,0.0
9743,44.0,276.0,360.0,5.0,0.0
9744,56.0,0.0,360.0,5.0,0.0
9745,69.0,36.0,360.0,1.0,0.0
9746,42.0,0.0,150.0,5.0,0.0
9747,81.0,0.0,360.0,1.0,0.0
9748,75.0,0.0,360.0,2.0,0.0
9749,72.0,0.0,360.0,2.0,0.0
9750,54.0,204.0,150.0,5.0,0.0
9751,56.0,444.0,150.0,5.0,0.0
9752,44.0,0.0,150.0,5.0,0.0
9753,93.0,0.0,360.0,1.0,0.0
9754,81.0,0.0,360.0,1.0,0.0
9755,85.0,0.0,360.0,2.0,0.0
9756,52.0,0.0,360.0,5.0,0.0
9757,40.0,276.0,360.0,5.0,0.0
9758,40.0,240.0,600.0,5.0,0.0
9759,52.0,0.0,600.0,5.0,0.0
9760,49.0,0.0,600.0,4.0,0.0
9761,75.0,0.0,150.0,1.0,0.0
9762,87.0,240.0,150.0,1.0,0.0
9763,76.0,204.0,150.0,1.0,0.0
9764,88.0,0.0,150.0,1.0,0.0
9765,73.0,0.0,360.0,1.0,0.0
9766,85.0,36.0,360.0,1.0,0.0
9767,49.0,0.0,150.0,4.0,0.0
9768,40.0,0.0,150.0,5.0,0.0
9769,52.0,240.0,150.0,5.0,0.0
9770,71.0,240.0,150.0,1.0,0.0
9771,49.0,235.0,600.0,4.0,0.0
9772,83.0,0.0,150.0,1.0,0.0
9773,53.0,0.0,600.0,5.0,0.0
9774,41.0,5.0,600.0,5.0,0.0
9775,85.0,204.0,150.0,1.0,0.0
9776,73.0,0.0,150.0,1.0,0.0
9777,81.0,36.0,360.0,1.0,0.0
9778,69.0,0.0,360.0,1.0,0.0
9779,41.0,0.0,150.0,5.0,0.0
9780,53.0,240.0,150.0,5.0,0.0
9781,49.0,0.0,150.0,4.0,0.0
9782,54.0,5.0,600.0,5.0,0.0
9783,42.0,0.0,600.0,5.0,0.0
9784,80.0,0.0,150.0,1.0,0.0
9785,68.0,240.0,150.0,1.0,0.0
9786,49.0,240.0,600.0,4.0,0.0
9787,69.0,199.0,150.0,1.0,0.0
9788,81.0,0.0,150.0,1.0,0.0
9789,66.0,0.0,360.0,1.0,0.0
9790,78.0,36.0,360.0,1.0,0.0
9791,49.0,240.0,150.0,4.0,0.0
9792,42.0,0.0,150.0,5.0,0.0
9793,54.0,0.0,150.0,5.0,0.0
9794,76.0,0.0,150.0,1.0,0.0
9795,64.0,240.0,150.0,1.0,0.0
9796,55.0,5.0,600.0,5.0,0.0
9797,43.0,235.0,600.0,5.0,0.0
9798,49.0,0.0,600.0,4.0,0.0
9799,66.0,204.0,150.0,1.0,0.0
9800,78.0,0.0,150.0,1.0,0.0
9801,75.0,0.0,360.0,1.0,0.0
9802,63.0,36.0,360.0,1.0,0.0
9803,49.0,0.0,150.0,4.0,0.0
9804,55.0,0.0,150.0,5.0,0.0
9805,43.0,240.0,150.0,5.0,0.0
9806,45.0,240.0,600.0,5.0,0.0
9807,57.0,5.0,600.0,5.0,0.0
9808,51.0,0.0,600.0,4.0,0.0
9809,61.0,0.0,150.0,1.0,0.0
9810,73.0,0.0,150.0,1.0,0.0
9811,67.0,240.0,150.0,2.0,0.0
9812,75.0,0.0,150.0,1.0,0.0
9813,63.0,199.0,150.0,1.0,0.0
9814,68.0,36.0,360.0,2.0,0.0
9815,72.0,0.0,360.0,1.0,0.0
9816,60.0,0.0,360.0,1.0,0.0
9817,51.0,240.0,150.0,4.0,0.0
9818,56.0,0.0,150.0,5.0,0.0
9819,44.0,0.0,150.0,5.0,0.0
9820,61.0,0.0,150.0,1.0,0.0
9821,57.0,235.0,600.0,5.0,0.0
9822,45.0,0.0,600.0,5.0,0.0
9823,51.0,5.0,600.0,4.0,0.0
9824,73.0,0.0,150.0,1.0,0.0
9825,67.0,240.0,150.0,2.0,0.0
9826,63.0,0.0,150.0,1.0,0.0
9827,75.0,204.0,150.0,1.0,0.0
9828,60.0,0.0,360.0,1.0,0.0
9829,68.0,0.0,360.0,2.0,0.0
9830,72.0,36.0,360.0,1.0,0.0
9831,51.0,0.0,150.0,4.0,0.0
9832,44.0,444.0,150.0,5.0,0.0
9833,56.0,0.0,150.0,5.0,0.0
9834,68.0,0.0,360.0,1.0,0.0
9835,56.0,408.0,360.0,1.0,0.0
9836,44.0,0.0,300.0,5.0,0.0
9837,32.0,912.0,300.0,5.0,0.0
9838,68.0,240.0,960.0,1.0,0.0
9839,47.0,240.0,240.0,5.0,0.0
9840,63.0,0.0,240.0,3.0,0.0
9841,55.0,120.0,240.0,3.0,0.0
9842,80.0,72.0,360.0,1.0,0.0
9843,56.0,288.0,180.0,3.0,0.0
9844,44.0,240.0,240.0,5.0,0.0
9845,66.0,20.0,240.0,3.0,0.0
9846,75.0,0.0,240.0,1.0,0.0
9847,78.0,136.0,60.0,1.0,0.0
9848,76.0,84.0,150.0,1.0,0.0
9849,55.0,156.0,240.0,3.0,0.0
9850,75.0,36.0,150.0,1.0,0.0
9851,56.0,288.0,180.0,3.0,0.0
9852,73.0,0.0,480.0,1.0,0.0
9853,49.0,240.0,240.0,5.0,0.0
9854,64.0,240.0,240.0,3.0,0.0
9855,68.0,240.0,480.0,1.0,0.0
9856,55.0,192.0,240.0,3.0,0.0
9857,56.0,48.0,180.0,3.0,0.0
9858,52.0,240.0,240.0,5.0,0.0
9859,61.0,240.0,240.0,3.0,0.0
9860,68.0,0.0,960.0,1.0,0.0
9861,55.0,192.0,240.0,3.0,0.0
9862,56.0,288.0,180.0,3.0,0.0
9863,47.0,240.0,240.0,5.0,0.0
9864,63.0,240.0,240.0,3.0,0.0
9865,80.0,72.0,360.0,1.0,0.0
9866,55.0,120.0,240.0,3.0,0.0
9867,56.0,528.0,180.0,3.0,0.0
9868,54.0,480.0,960.0,5.0,0.0
9869,75.0,0.0,240.0,1.0,0.0
9870,60.0,20.0,240.0,3.0,0.0
9871,78.0,136.0,60.0,1.0,0.0
9872,55.0,156.0,240.0,3.0,0.0
9873,76.0,84.0,150.0,1.0,0.0
9874,75.0,36.0,150.0,1.0,0.0
9875,56.0,48.0,180.0,3.0,0.0
9876,52.0,240.0,720.0,5.0,0.0
9877,73.0,0.0,480.0,1.0,0.0
9878,61.0,240.0,240.0,3.0,0.0
9879,55.0,0.0,240.0,3.0,0.0
9880,68.0,0.0,480.0,1.0,0.0
9881,56.0,240.0,240.0,3.0,0.0
9882,49.0,240.0,240.0,5.0,0.0
9883,64.0,240.0,240.0,3.0,0.0
9884,55.0,192.0,240.0,3.0,0.0
9885,73.0,240.0,960.0,1.0,0.0
9886,56.0,528.0,180.0,3.0,0.0
9887,53.0,120.0,720.0,5.0,0.0
9888,61.0,0.0,240.0,3.0,0.0
9889,55.0,0.0,240.0,3.0,0.0
9890,85.0,120.0,360.0,1.0,0.0
9891,56.0,240.0,240.0,3.0,0.0
9892,49.0,215.0,240.0,5.0,0.0
9893,80.0,25.0,210.0,1.0,0.0
9894,65.0,20.0,240.0,3.0,0.0
9895,83.0,136.0,60.0,1.0,0.0
9896,58.0,156.0,240.0,3.0,0.0
9897,81.0,84.0,150.0,1.0,0.0
9898,80.0,36.0,150.0,1.0,0.0
9899,59.0,288.0,180.0,3.0,0.0
9900,69.0,0.0,360.0,2.0,0.0
9901,80.0,120.0,240.0,1.0,0.0
9902,54.0,72.0,360.0,5.0,0.0
9903,73.0,0.0,360.0,2.0,0.0
9904,78.0,288.0,180.0,1.0,0.0
9905,73.0,0.0,360.0,2.0,0.0
9906,68.0,0.0,360.0,2.0,0.0
9907,78.0,120.0,240.0,1.0,0.0
9908,56.0,72.0,360.0,5.0,0.0
9909,76.0,288.0,180.0,1.0,0.0
9910,76.0,120.0,240.0,1.0,0.0
9911,57.0,0.0,360.0,5.0,0.0
9912,72.0,72.0,360.0,2.0,0.0
9913,66.0,0.0,360.0,2.0,0.0
9914,75.0,288.0,180.0,1.0,0.0
9915,75.0,120.0,240.0,1.0,0.0
9916,67.0,0.0,360.0,2.0,0.0
9917,64.0,72.0,360.0,2.0,0.0
9918,58.0,0.0,360.0,5.0,0.0
9919,73.0,288.0,180.0,1.0,0.0
9920,47.0,0.0,360.0,5.0,0.0
9921,73.0,120.0,240.0,1.0,0.0
9922,59.0,0.0,360.0,2.0,0.0
9923,68.0,0.0,360.0,2.0,0.0
9924,64.0,72.0,360.0,2.0,0.0
9925,71.0,288.0,180.0,1.0,0.0
9926,71.0,120.0,240.0,1.0,0.0
9927,63.0,0.0,360.0,2.0,0.0
9928,48.0,72.0,360.0,5.0,0.0
9929,66.0,0.0,360.0,2.0,0.0
9930,69.0,288.0,180.0,1.0,0.0
9931,69.0,120.0,240.0,1.0,0.0
9932,64.0,0.0,360.0,2.0,0.0
9933,49.0,72.0,360.0,5.0,0.0
9934,61.0,0.0,360.0,2.0,0.0
9935,68.0,288.0,180.0,1.0,0.0
9936,57.0,0.0,360.0,2.0,0.0
9937,51.0,72.0,360.0,5.0,0.0
9938,60.0,0.0,360.0,2.0,0.0
9939,68.0,120.0,240.0,1.0,0.0
9940,66.0,288.0,180.0,1.0,0.0
9941,52.0,0.0,360.0,5.0,0.0
9942,56.0,72.0,360.0,2.0,0.0
9943,61.0,0.0,360.0,2.0,0.0
9944,66.0,120.0,240.0,1.0,0.0
9945,64.0,768.0,180.0,1.0,0.0
9946,58.0,72.0,360.0,2.0,0.0
9947,55.0,0.0,360.0,5.0,0.0
9948,63.0,120.0,240.0,1.0,0.0
9949,61.0,768.0,180.0,1.0,0.0
9950,60.0,120.0,240.0,1.0,0.0
9951,56.0,840.0,360.0,5.0,0.0
9952,68.0,120.0,960.0,1.0,0.0
9953,44.0,480.0,360.0,5.0,0.0
9954,51.0,0.0,360.0,5.0,0.0
9955,36.0,0.0,360.0,5.0,0.0
9956,80.0,156.0,960.0,1.0,0.0
9957,68.0,0.0,960.0,1.0,0.0
9958,48.0,476.0,360.0,5.0,0.0
9959,46.0,4.0,390.0,5.0,0.0
9960,56.0,0.0,390.0,5.0,0.0
9961,79.0,0.0,480.0,1.0,0.0
9962,63.0,120.0,360.0,5.0,0.0
9963,58.0,204.0,150.0,5.0,0.0
9964,78.0,36.0,360.0,1.0,0.0
9965,92.0,0.0,360.0,1.0,0.0
9966,60.0,444.0,150.0,5.0,0.0
9967,56.0,85.0,360.0,5.0,0.0
9968,87.0,0.0,210.0,1.0,0.0
9969,75.0,55.0,210.0,1.0,0.0
9970,90.0,136.0,60.0,1.0,0.0
9971,54.0,240.0,150.0,5.0,0.0
9972,88.0,0.0,150.0,1.0,0.0
9973,76.0,0.0,150.0,1.0,0.0
9974,87.0,444.0,150.0,1.0,0.0
9975,75.0,0.0,150.0,1.0,0.0
9976,56.0,0.0,150.0,5.0,0.0
9977,52.0,120.0,360.0,5.0,0.0
9978,73.0,156.0,480.0,1.0,0.0
9979,85.0,0.0,480.0,1.0,0.0
9980,51.0,204.0,150.0,5.0,0.0
9981,68.0,0.0,360.0,1.0,0.0
9982,80.0,36.0,360.0,1.0,0.0
9983,52.0,444.0,150.0,5.0,0.0
9984,49.0,480.0,360.0,5.0,0.0
9985,81.0,0.0,960.0,1.0,0.0
9986,37.0,480.0,360.0,5.0,0.0
9987,49.0,0.0,360.0,5.0,0.0
9988,69.0,0.0,960.0,1.0,0.0
9989,49.0,0.0,390.0,5.0,0.0
9990,57.0,0.0,390.0,5.0,0.0
9991,64.0,120.0,360.0,5.0,0.0
9992,80.0,156.0,480.0,1.0,0.0
9993,59.0,204.0,150.0,5.0,0.0
9994,79.0,0.0,360.0,1.0,0.0
9995,93.0,36.0,360.0,1.0,0.0
9996,61.0,444.0,150.0,5.0,0.0
9997,57.0,75.0,360.0,5.0,0.0
9998,88.0,60.0,210.0,1.0,0.0
9999,76.0,5.0,180.0,1.0,0.0
10000,91.0,136.0,60.0,1.0,0.0
10001,55.0,240.0,150.0,5.0,0.0
10002,90.0,0.0,150.0,1.0,0.0
10003,78.0,0.0,150.0,1.0,0.0
10004,88.0,0.0,150.0,1.0,0.0
10005,76.0,444.0,150.0,1.0,0.0
10006,58.0,0.0,150.0,5.0,0.0
10007,75.0,0.0,480.0,1.0,0.0
10008,87.0,156.0,480.0,1.0,0.0
10009,54.0,120.0,360.0,5.0,0.0
10010,66.0,36.0,360.0,1.0,0.0
10011,78.0,0.0,360.0,1.0,0.0
10012,57.0,204.0,150.0,5.0,0.0
10013,60.0,444.0,150.0,5.0,0.0
10014,45.0,80.0,360.0,5.0,0.0
10015,74.0,0.0,210.0,1.0,0.0
10016,86.0,60.0,210.0,1.0,0.0
10017,89.0,136.0,60.0,1.0,0.0
10018,56.0,0.0,150.0,5.0,0.0
10019,76.0,240.0,150.0,1.0,0.0
10020,88.0,0.0,150.0,1.0,0.0
10021,59.0,0.0,150.0,5.0,0.0
10022,74.0,444.0,150.0,1.0,0.0
10023,86.0,0.0,150.0,1.0,0.0
10024,73.0,156.0,480.0,1.0,0.0
10025,45.0,120.0,360.0,5.0,0.0
10026,85.0,0.0,480.0,1.0,0.0
10027,67.0,0.0,360.0,1.0,0.0
10028,79.0,36.0,360.0,1.0,0.0
10029,52.0,204.0,150.0,5.0,0.0
10030,57.0,444.0,150.0,5.0,0.0
10031,45.0,36.0,360.0,5.0,0.0
10032,85.0,240.0,150.0,1.0,0.0
10033,73.0,0.0,150.0,1.0,0.0
10034,54.0,240.0,150.0,5.0,0.0
10035,86.0,0.0,150.0,1.0,0.0
10036,74.0,0.0,150.0,1.0,0.0
10037,66.0,0.0,150.0,1.0,0.0
10038,78.0,0.0,150.0,1.0,0.0
10039,57.0,444.0,150.0,5.0,0.0
10040,67.0,156.0,480.0,1.0,0.0
10041,79.0,0.0,480.0,1.0,0.0
10042,45.0,120.0,360.0,5.0,0.0
10043,52.0,204.0,150.0,5.0,0.0
10044,73.0,36.0,360.0,1.0,0.0
10045,85.0,0.0,360.0,1.0,0.0
10046,57.0,444.0,150.0,5.0,0.0
10047,45.0,36.0,360.0,5.0,0.0
10048,73.0,240.0,150.0,1.0,0.0
10049,85.0,0.0,150.0,1.0,0.0
10050,74.0,0.0,150.0,1.0,0.0
10051,86.0,240.0,150.0,1.0,0.0
10052,54.0,0.0,150.0,5.0,0.0
10053,57.0,0.0,150.0,5.0,0.0
10054,66.0,444.0,150.0,1.0,0.0
10055,78.0,0.0,150.0,1.0,0.0
10056,79.0,0.0,480.0,1.0,0.0
10057,67.0,156.0,480.0,1.0,0.0
10058,45.0,120.0,360.0,5.0,0.0
10059,52.0,204.0,150.0,5.0,0.0
10060,85.0,0.0,360.0,1.0,0.0
10061,73.0,36.0,360.0,1.0,0.0
10062,57.0,444.0,150.0,5.0,0.0
10063,45.0,36.0,360.0,5.0,0.0
10064,73.0,240.0,150.0,1.0,0.0
10065,85.0,0.0,150.0,1.0,0.0
10066,86.0,0.0,150.0,1.0,0.0
10067,74.0,0.0,150.0,1.0,0.0
10068,54.0,240.0,150.0,5.0,0.0
10069,57.0,0.0,150.0,5.0,0.0
10070,78.0,244.0,150.0,1.0,0.0
10071,66.0,0.0,150.0,1.0,0.0
10072,67.0,0.0,360.0,1.0,0.0
10073,79.0,120.0,360.0,1.0,0.0
10074,45.0,200.0,150.0,5.0,0.0
10075,52.0,128.0,150.0,5.0,0.0
10076,57.0,352.0,120.0,5.0,0.0
10077,40.0,128.0,150.0,5.0,0.0
10078,45.0,232.0,120.0,5.0,0.0
10079,73.0,0.0,360.0,1.0,0.0
10080,80.0,120.0,360.0,2.0,0.0
10081,85.0,0.0,360.0,1.0,0.0
10082,52.0,128.0,150.0,5.0,0.0
10083,57.0,352.0,120.0,5.0,0.0
10084,52.0,128.0,150.0,5.0,0.0
10085,40.0,0.0,150.0,5.0,0.0
10086,45.0,0.0,120.0,5.0,0.0
10087,57.0,352.0,120.0,5.0,0.0
10088,49.0,128.0,150.0,5.0,0.0
10089,61.0,0.0,150.0,5.0,0.0
10090,64.0,0.0,120.0,5.0,0.0
10091,52.0,352.0,120.0,5.0,0.0
10092,57.0,128.0,150.0,5.0,0.0
10093,69.0,0.0,150.0,5.0,0.0
10094,61.0,352.0,120.0,5.0,0.0
10095,73.0,0.0,120.0,5.0,0.0
10096,64.0,0.0,150.0,5.0,0.0
10097,76.0,128.0,150.0,5.0,0.0
10098,81.0,352.0,120.0,5.0,0.0
10099,69.0,0.0,120.0,5.0,0.0
10100,45.0,128.0,150.0,5.0,0.0
10101,50.0,232.0,120.0,5.0,0.0
10102,81.0,0.0,360.0,1.0,0.0
10103,69.0,0.0,360.0,1.0,0.0
10104,74.0,120.0,360.0,2.0,0.0
10105,77.0,0.0,360.0,2.0,0.0
10106,53.0,128.0,150.0,5.0,0.0
10107,57.0,352.0,120.0,5.0,0.0
10108,45.0,128.0,150.0,5.0,0.0
10109,50.0,232.0,120.0,5.0,0.0
10110,86.0,0.0,360.0,1.0,0.0
10111,81.0,0.0,360.0,2.0,0.0
10112,77.0,0.0,360.0,2.0,0.0
10113,74.0,120.0,360.0,1.0,0.0
10114,53.0,128.0,150.0,5.0,0.0
10115,57.0,352.0,120.0,5.0,0.0
10116,45.0,128.0,150.0,5.0,0.0
10117,50.0,352.0,120.0,5.0,0.0
10118,53.0,0.0,150.0,5.0,0.0
10119,65.0,128.0,150.0,5.0,0.0
10120,69.0,352.0,120.0,5.0,0.0
10121,57.0,0.0,120.0,5.0,0.0
10122,62.0,128.0,150.0,5.0,0.0
10123,74.0,0.0,150.0,5.0,0.0
10124,77.0,352.0,120.0,5.0,0.0
10125,65.0,0.0,120.0,5.0,0.0
10126,69.0,0.0,150.0,5.0,0.0
10127,81.0,128.0,150.0,5.0,0.0
10128,74.0,352.0,120.0,5.0,0.0
10129,86.0,0.0,120.0,5.0,0.0
10130,42.0,128.0,150.0,5.0,0.0
10131,75.0,0.0,360.0,1.0,0.0
10132,87.0,120.0,360.0,1.0,0.0
10133,48.0,232.0,120.0,5.0,0.0
10134,81.0,0.0,360.0,2.0,0.0
10135,84.0,0.0,360.0,2.0,0.0
10136,54.0,128.0,150.0,5.0,0.0
10137,60.0,352.0,120.0,5.0,0.0
10138,43.0,128.0,150.0,5.0,0.0
10139,85.0,0.0,360.0,2.0,0.0
10140,49.0,232.0,120.0,5.0,0.0
10141,76.0,0.0,360.0,1.0,0.0
10142,88.0,120.0,360.0,1.0,0.0
10143,82.0,0.0,360.0,2.0,0.0
10144,55.0,128.0,150.0,5.0,0.0
10145,61.0,352.0,120.0,5.0,0.0
10146,44.0,128.0,150.0,5.0,0.0
10147,56.0,232.0,120.0,5.0,0.0
10148,89.0,0.0,360.0,1.0,0.0
10149,77.0,0.0,360.0,1.0,0.0
10150,85.0,120.0,360.0,2.0,0.0
10151,45.0,720.0,150.0,5.0,0.0
10152,57.0,0.0,720.0,5.0,0.0
10153,90.0,0.0,720.0,1.0,0.0
10154,78.0,600.0,720.0,1.0,0.0
10155,85.0,0.0,720.0,2.0,0.0
10156,45.0,0.0,720.0,5.0,0.0
10157,92.0,0.0,360.0,1.0,0.0
10158,49.0,480.0,360.0,5.0,0.0
10159,53.0,0.0,360.0,5.0,0.0
10160,41.0,0.0,360.0,5.0,0.0
10161,80.0,0.0,360.0,1.0,0.0
10162,85.0,0.0,360.0,2.0,0.0
10163,42.0,1920.0,360.0,5.0,0.0
10164,93.0,0.0,360.0,1.0,0.0
10165,81.0,0.0,360.0,1.0,0.0
10166,85.0,0.0,360.0,2.0,0.0
10167,49.0,0.0,360.0,5.0,0.0
10168,54.0,0.0,360.0,5.0,0.0
10169,44.0,1740.0,390.0,5.0,0.0
10170,48.0,0.0,390.0,5.0,0.0
10171,51.0,3.0,360.0,5.0,0.0
10172,75.0,0.0,360.0,2.0,0.0
10173,56.0,0.0,360.0,5.0,0.0
10174,84.0,0.0,360.0,1.0,0.0
10175,72.0,0.0,360.0,1.0,0.0
10176,78.0,0.0,360.0,2.0,0.0
10177,37.0,8.0,210.0,5.0,0.0
10178,44.0,1.0,210.0,5.0,0.0
10179,77.0,0.0,1440.0,1.0,0.0
10180,49.0,240.0,180.0,5.0,0.0
10181,80.0,0.0,1440.0,1.0,0.0
10182,59.0,0.0,180.0,5.0,0.0
10183,71.0,240.0,180.0,5.0,0.0
10184,59.0,240.0,180.0,5.0,0.0
10185,71.0,0.0,180.0,5.0,0.0
10186,71.0,0.0,180.0,5.0,0.0
10187,59.0,528.0,180.0,5.0,0.0
10188,59.0,432.0,960.0,5.0,0.0
10189,71.0,0.0,960.0,5.0,0.0
10190,73.0,0.0,15.0,1.0,0.0
10191,83.0,0.0,480.0,1.0,0.0
10192,85.0,480.0,15.0,1.0,0.0
10193,73.0,0.0,15.0,1.0,0.0
10194,85.0,0.0,15.0,1.0,0.0
10195,81.0,480.0,960.0,1.0,0.0
10196,57.0,240.0,180.0,5.0,0.0
10197,69.0,0.0,180.0,5.0,0.0
10198,57.0,0.0,180.0,5.0,0.0
10199,69.0,240.0,180.0,5.0,0.0
10200,69.0,48.0,180.0,5.0,0.0
10201,57.0,0.0,180.0,5.0,0.0
10202,66.0,0.0,480.0,5.0,0.0
10203,54.0,435.0,480.0,5.0,0.0
10204,78.0,0.0,480.0,1.0,0.0
10205,73.0,0.0,15.0,1.0,0.0
10206,80.0,0.0,450.0,1.0,0.0
10207,85.0,0.0,15.0,1.0,0.0
10208,68.0,0.0,450.0,5.0,0.0
10209,56.0,3.0,420.0,5.0,0.0
10210,49.0,5.0,240.0,5.0,0.0
10211,53.0,0.0,210.0,5.0,0.0
10212,56.0,0.0,210.0,5.0,0.0
10213,61.0,240.0,180.0,5.0,0.0
10214,80.0,0.0,1440.0,1.0,0.0
10215,77.0,0.0,1440.0,1.0,0.0
10216,73.0,0.0,1440.0,1.0,0.0
10217,85.0,480.0,1440.0,1.0,0.0
10218,71.0,0.0,180.0,5.0,0.0
10219,59.0,240.0,180.0,5.0,0.0
10220,71.0,240.0,180.0,5.0,0.0
10221,59.0,0.0,180.0,5.0,0.0
10222,59.0,0.0,180.0,5.0,0.0
10223,71.0,528.0,180.0,5.0,0.0
10224,71.0,0.0,960.0,5.0,0.0
10225,59.0,432.0,960.0,5.0,0.0
10226,83.0,0.0,480.0,1.0,0.0
10227,73.0,0.0,480.0,1.0,0.0
10228,85.0,0.0,480.0,1.0,0.0
10229,81.0,480.0,960.0,1.0,0.0
10230,73.0,0.0,1440.0,1.0,0.0
10231,57.0,240.0,180.0,5.0,0.0
10232,69.0,0.0,180.0,5.0,0.0
10233,57.0,240.0,180.0,5.0,0.0
10234,69.0,0.0,180.0,5.0,0.0
10235,69.0,0.0,180.0,5.0,0.0
10236,57.0,48.0,180.0,5.0,0.0
10237,78.0,0.0,480.0,1.0,0.0
10238,54.0,480.0,480.0,5.0,0.0
10239,66.0,0.0,480.0,5.0,0.0
10240,85.0,0.0,15.0,1.0,0.0
10241,80.0,0.0,480.0,1.0,0.0
10242,73.0,0.0,480.0,1.0,0.0
10243,68.0,0.0,480.0,5.0,0.0
10244,56.0,960.0,480.0,5.0,0.0
10245,77.0,0.0,1920.0,1.0,0.0
10246,85.0,960.0,1920.0,1.0,0.0
10247,80.0,0.0,1920.0,1.0,0.0
10248,73.0,960.0,960.0,1.0,0.0
10249,53.0,0.0,1920.0,5.0,0.0
10250,56.0,0.0,1920.0,5.0,0.0
10251,72.0,0.0,960.0,1.0,0.0
10252,60.0,0.0,960.0,5.0,0.0
10253,59.0,960.0,960.0,5.0,0.0
10254,61.0,0.0,15.0,5.0,0.0
10255,49.0,0.0,15.0,5.0,0.0
10256,54.0,960.0,1920.0,5.0,0.0
10257,71.0,0.0,960.0,1.0,0.0
10258,85.0,0.0,1920.0,1.0,0.0
10259,78.0,0.0,1920.0,1.0,0.0
10260,57.0,0.0,960.0,5.0,0.0
10261,69.0,0.0,960.0,1.0,0.0
10262,61.0,0.0,15.0,5.0,0.0
10263,56.0,0.0,1920.0,5.0,0.0
10264,49.0,0.0,15.0,5.0,0.0
10265,65.0,0.0,1920.0,1.0,0.0
10266,73.0,0.0,15.0,1.0,0.0
10267,68.0,0.0,1920.0,1.0,0.0
10268,60.0,0.0,960.0,5.0,0.0
10269,48.0,0.0,960.0,5.0,0.0
10270,49.0,915.0,960.0,5.0,0.0
10271,54.0,7.0,1860.0,5.0,0.0
10272,59.0,0.0,960.0,5.0,0.0
10273,47.0,0.0,960.0,5.0,0.0
10274,73.0,960.0,15.0,1.0,0.0
10275,66.0,0.0,1890.0,1.0,0.0
10276,61.0,0.0,1890.0,1.0,0.0
10277,45.0,0.0,900.0,5.0,0.0
10278,57.0,0.0,930.0,5.0,0.0
10279,37.0,2.0,1920.0,5.0,0.0
10280,44.0,0.0,1890.0,5.0,0.0
10281,49.0,3.0,1890.0,5.0,0.0
10282,65.0,4.0,1890.0,1.0,0.0
10283,56.0,0.0,1890.0,5.0,0.0
10284,68.0,1879.0,1890.0,1.0,0.0
10285,61.0,2.0,1890.0,1.0,0.0
10286,73.0,0.0,1890.0,1.0,0.0
10287,37.0,0.0,1890.0,5.0,0.0
10288,44.0,15.0,1860.0,5.0,0.0
10289,49.0,15.0,1860.0,5.0,0.0
10290,68.0,4.0,1890.0,1.0,0.0
10291,73.0,1918.0,1890.0,1.0,0.0
10292,65.0,3.0,1860.0,1.0,0.0
10293,56.0,0.0,1890.0,5.0,0.0
10294,61.0,0.0,1890.0,1.0,0.0
10295,37.0,20.0,1920.0,5.0,0.0
10296,44.0,10.0,1920.0,5.0,0.0
10297,49.0,30.0,1920.0,5.0,0.0
10298,68.0,16.0,3810.0,1.0,0.0
10299,61.0,3.0,3780.0,1.0,0.0
10300,73.0,0.0,3810.0,1.0,0.0
10301,65.0,4.0,3810.0,1.0,0.0
10302,56.0,1855.0,1920.0,5.0,0.0
10303,35.0,1897.0,1890.0,5.0,0.0
10304,65.0,0.0,1890.0,1.0,0.0
10305,68.0,0.0,1890.0,1.0,0.0
10306,74.0,17.0,1890.0,1.0,0.0
10307,41.0,2.0,1890.0,5.0,0.0
10308,62.0,3.0,1860.0,1.0,0.0
10309,46.0,3.0,1890.0,5.0,0.0
10310,56.0,0.0,1890.0,5.0,0.0
10311,34.0,1891.0,15.0,5.0,0.0
10312,62.0,17.0,1890.0,1.0,0.0
10313,65.0,7.0,1860.0,1.0,0.0
10314,68.0,0.0,1860.0,1.0,0.0
10315,74.0,0.0,1890.0,1.0,0.0
10316,41.0,0.0,1890.0,5.0,0.0
10317,46.0,3.0,1890.0,5.0,0.0
10318,56.0,2862.0,1890.0,5.0,0.0
10319,41.0,10.0,2880.0,5.0,0.0
10320,46.0,10.0,2880.0,5.0,0.0
10321,68.0,0.0,2880.0,1.0,0.0
10322,65.0,0.0,2880.0,1.0,0.0
10323,62.0,0.0,2880.0,1.0,0.0
10324,74.0,960.0,2880.0,1.0,0.0
10325,56.0,0.0,2880.0,5.0,0.0
10326,78.0,480.0,480.0,1.0,0.0
10327,77.0,0.0,960.0,1.0,0.0
10328,51.0,228.0,240.0,3.0,0.0
10329,58.0,252.0,240.0,3.0,0.0
10330,63.0,480.0,240.0,3.0,0.0
10331,70.0,228.0,480.0,1.0,0.0
10332,54.0,0.0,240.0,3.0,0.0
10333,72.0,480.0,480.0,1.0,0.0
10334,58.0,252.0,240.0,3.0,0.0
10335,64.0,0.0,720.0,4.0,0.0
10336,65.0,0.0,1440.0,1.0,0.0
10337,53.0,456.0,240.0,3.0,0.0
10338,63.0,24.0,450.0,4.0,0.0
10339,53.0,456.0,240.0,3.0,0.0
10340,62.0,24.0,450.0,4.0,0.0
10341,53.0,456.0,240.0,3.0,0.0
10342,70.0,456.0,480.0,1.0,0.0
10343,61.0,24.0,450.0,4.0,0.0
10344,53.0,0.0,240.0,3.0,0.0
10345,60.0,24.0,450.0,4.0,0.0
10346,69.0,456.0,480.0,1.0,0.0
10347,53.0,0.0,240.0,3.0,0.0
10348,70.0,456.0,480.0,1.0,0.0
10349,61.0,24.0,450.0,4.0,0.0
10350,53.0,0.0,240.0,3.0,0.0
10351,72.0,456.0,480.0,1.0,0.0
10352,57.0,24.0,450.0,4.0,0.0
10353,53.0,0.0,240.0,3.0,0.0
10354,73.0,456.0,480.0,1.0,0.0
10355,58.0,24.0,450.0,4.0,0.0
10356,53.0,0.0,240.0,3.0,0.0
10357,77.0,456.0,480.0,1.0,0.0
10358,70.0,0.0,960.0,2.0,0.0
10359,68.0,24.0,450.0,4.0,0.0
10360,53.0,0.0,240.0,3.0,0.0
10361,66.0,24.0,450.0,4.0,0.0
10362,75.0,0.0,480.0,1.0,0.0
10363,53.0,456.0,240.0,3.0,0.0
10364,69.0,936.0,480.0,2.0,0.0
10365,72.0,0.0,480.0,1.0,0.0
10366,65.0,24.0,450.0,4.0,0.0
10367,53.0,0.0,240.0,3.0,0.0
10368,78.0,456.0,1440.0,1.0,0.0
10369,66.0,24.0,450.0,4.0,0.0
10370,54.0,456.0,240.0,3.0,0.0
10371,66.0,24.0,450.0,4.0,0.0
10372,54.0,0.0,240.0,3.0,0.0
10373,71.0,0.0,480.0,1.0,0.0
10374,63.0,24.0,450.0,4.0,0.0
10375,54.0,456.0,240.0,3.0,0.0
10376,64.0,24.0,450.0,4.0,0.0
10377,73.0,0.0,480.0,1.0,0.0
10378,54.0,456.0,240.0,3.0,0.0
10379,66.0,0.0,1920.0,1.0,0.0
10380,58.0,24.0,450.0,4.0,0.0
10381,54.0,456.0,240.0,3.0,0.0
10382,58.0,24.0,450.0,4.0,0.0
10383,52.0,456.0,240.0,3.0,0.0
10384,59.0,24.0,450.0,4.0,0.0
10385,51.0,456.0,240.0,3.0,0.0
10386,72.0,80.0,480.0,1.0,0.0
10387,63.0,24.0,450.0,4.0,0.0
10388,51.0,0.0,240.0,3.0,0.0
10389,61.0,24.0,450.0,4.0,0.0
10390,70.0,80.0,90.0,1.0,0.0
10391,65.0,456.0,1440.0,2.0,0.0
10392,72.0,80.0,90.0,1.0,0.0
10393,70.0,80.0,90.0,1.0,0.0
10394,53.0,0.0,240.0,3.0,0.0
10395,72.0,80.0,90.0,1.0,0.0
10396,70.0,56.0,90.0,1.0,0.0
10397,72.0,80.0,90.0,1.0,0.0
10398,70.0,80.0,90.0,1.0,0.0
10399,61.0,24.0,450.0,4.0,0.0
10400,72.0,80.0,90.0,1.0,0.0
10401,70.0,120.0,90.0,1.0,0.0
10402,69.0,96.0,120.0,1.0,0.0
10403,53.0,456.0,240.0,3.0,0.0
10404,70.0,0.0,120.0,1.0,0.0
10405,72.0,0.0,480.0,1.0,0.0
10406,63.0,24.0,450.0,4.0,0.0
10407,53.0,0.0,240.0,3.0,0.0
10408,69.0,240.0,480.0,2.0,0.0
10409,63.0,24.0,450.0,4.0,0.0
10410,53.0,0.0,240.0,3.0,0.0
10411,77.0,0.0,15.0,1.0,0.0
10412,46.0,240.0,240.0,4.0,0.0
10413,70.0,0.0,960.0,2.0,0.0
10414,53.0,240.0,240.0,4.0,0.0
10415,61.0,240.0,240.0,4.0,0.0
10416,58.0,240.0,240.0,4.0,0.0
10417,70.0,1149.0,240.0,1.0,0.0
10418,82.0,429.0,1440.0,1.0,0.0
10419,62.0,51.0,420.0,4.0,0.0
10420,58.0,429.0,240.0,3.0,0.0
10421,65.0,51.0,420.0,4.0,0.0
10422,58.0,0.0,240.0,3.0,0.0
10423,66.0,51.0,420.0,4.0,0.0
10424,75.0,429.0,480.0,1.0,0.0
10425,58.0,0.0,240.0,3.0,0.0
10426,77.0,429.0,480.0,1.0,0.0
10427,68.0,51.0,420.0,4.0,0.0
10428,58.0,0.0,240.0,3.0,0.0
10429,70.0,0.0,1440.0,1.0,0.0
10430,69.0,51.0,420.0,4.0,0.0
10431,58.0,429.0,240.0,3.0,0.0
10432,68.0,51.0,420.0,4.0,0.0
10433,58.0,429.0,240.0,3.0,0.0
10434,67.0,51.0,420.0,4.0,0.0
10435,58.0,429.0,240.0,3.0,0.0
10436,66.0,51.0,420.0,4.0,0.0
10437,75.0,0.0,480.0,1.0,0.0
10438,58.0,429.0,240.0,3.0,0.0
10439,74.0,429.0,480.0,1.0,0.0
10440,65.0,51.0,420.0,4.0,0.0
10441,58.0,0.0,240.0,3.0,0.0
10442,66.0,51.0,420.0,4.0,0.0
10443,75.0,0.0,480.0,1.0,0.0
10444,58.0,429.0,240.0,3.0,0.0
10445,62.0,51.0,420.0,4.0,0.0
10446,77.0,429.0,480.0,1.0,0.0
10447,58.0,0.0,240.0,3.0,0.0
10448,78.0,429.0,480.0,1.0,0.0
10449,63.0,51.0,420.0,4.0,0.0
10450,58.0,0.0,240.0,3.0,0.0
10451,77.0,0.0,960.0,2.0,0.0
10452,70.0,51.0,420.0,4.0,0.0
10453,80.0,0.0,960.0,1.0,0.0
10454,58.0,429.0,240.0,3.0,0.0
10455,71.0,51.0,420.0,4.0,0.0
10456,59.0,429.0,240.0,3.0,0.0
10457,79.0,0.0,480.0,1.0,0.0
10458,76.0,429.0,480.0,2.0,0.0
10459,72.0,51.0,420.0,4.0,0.0
10460,60.0,0.0,240.0,3.0,0.0
10461,72.0,51.0,420.0,4.0,0.0
10462,85.0,429.0,480.0,1.0,0.0
10463,60.0,0.0,240.0,3.0,0.0
10464,72.0,51.0,420.0,4.0,0.0
10465,84.0,429.0,960.0,1.0,0.0
10466,60.0,429.0,240.0,3.0,0.0
10467,72.0,51.0,420.0,4.0,0.0
10468,60.0,0.0,240.0,3.0,0.0
10469,77.0,429.0,480.0,1.0,0.0
10470,68.0,51.0,420.0,4.0,0.0
10471,60.0,0.0,240.0,3.0,0.0
10472,70.0,51.0,420.0,4.0,0.0
10473,79.0,0.0,480.0,1.0,0.0
10474,60.0,429.0,240.0,3.0,0.0
10475,71.0,51.0,420.0,4.0,0.0
10476,72.0,429.0,1440.0,1.0,0.0
10477,60.0,429.0,240.0,3.0,0.0
10478,70.0,51.0,420.0,4.0,0.0
10479,60.0,429.0,240.0,3.0,0.0
10480,69.0,51.0,420.0,4.0,0.0
10481,60.0,0.0,240.0,3.0,0.0
10482,77.0,0.0,480.0,1.0,0.0
10483,68.0,51.0,420.0,4.0,0.0
10484,60.0,429.0,240.0,3.0,0.0
10485,67.0,51.0,420.0,4.0,0.0
10486,76.0,0.0,480.0,1.0,0.0
10487,60.0,429.0,240.0,3.0,0.0
10488,68.0,51.0,420.0,4.0,0.0
10489,77.0,429.0,480.0,1.0,0.0
10490,60.0,0.0,240.0,3.0,0.0
10491,79.0,0.0,480.0,1.0,0.0
10492,64.0,51.0,420.0,4.0,0.0
10493,60.0,429.0,240.0,3.0,0.0
10494,80.0,429.0,480.0,1.0,0.0
10495,65.0,51.0,420.0,4.0,0.0
10496,60.0,0.0,240.0,3.0,0.0
10497,72.0,51.0,420.0,4.0,0.0
10498,79.0,429.0,1440.0,2.0,0.0
10499,82.0,0.0,1440.0,1.0,0.0
10500,60.0,429.0,240.0,3.0,0.0
10501,73.0,51.0,420.0,4.0,0.0
10502,61.0,429.0,240.0,3.0,0.0
10503,74.0,51.0,420.0,4.0,0.0
10504,62.0,0.0,240.0,3.0,0.0
10505,75.0,51.0,420.0,4.0,0.0
10506,78.0,0.0,480.0,2.0,0.0
10507,81.0,0.0,480.0,1.0,0.0
10508,63.0,429.0,240.0,3.0,0.0
10509,81.0,0.0,1440.0,2.0,0.0
10510,76.0,51.0,420.0,4.0,0.0
10511,84.0,429.0,1440.0,1.0,0.0
10512,64.0,429.0,240.0,3.0,0.0
10513,77.0,51.0,420.0,4.0,0.0
10514,65.0,429.0,240.0,3.0,0.0
10515,78.0,51.0,420.0,4.0,0.0
10516,66.0,0.0,240.0,3.0,0.0
10517,77.0,51.0,420.0,4.0,0.0
10518,87.0,240.0,480.0,1.0,0.0
10519,84.0,0.0,480.0,2.0,0.0
10520,65.0,0.0,480.0,3.0,0.0
10521,90.0,0.0,240.0,1.0,0.0
10522,72.0,240.0,240.0,4.0,0.0
10523,69.0,0.0,240.0,5.0,0.0
10524,87.0,240.0,240.0,1.0,0.0
10525,84.0,240.0,240.0,1.0,0.0
10526,81.0,200.0,240.0,1.0,0.0
10527,53.0,20.0,240.0,5.0,0.0
10528,57.0,10.0,240.0,5.0,0.0
10529,60.0,10.0,240.0,5.0,0.0
10530,63.0,0.0,240.0,5.0,0.0
10531,78.0,240.0,240.0,1.0,0.0
10532,75.0,240.0,240.0,1.0,0.0
10533,72.0,240.0,240.0,1.0,0.0
10534,69.0,200.0,240.0,1.0,0.0
10535,44.0,20.0,240.0,5.0,0.0
10536,48.0,10.0,240.0,5.0,0.0
10537,51.0,10.0,240.0,5.0,0.0
10538,66.0,0.0,240.0,1.0,0.0
10539,54.0,192.0,240.0,5.0,0.0
10540,65.0,288.0,180.0,1.0,0.0
10541,78.0,192.0,240.0,1.0,0.0
10542,54.0,0.0,240.0,5.0,0.0
10543,53.0,0.0,180.0,5.0,0.0
10544,77.0,288.0,180.0,1.0,0.0
10545,54.0,0.0,240.0,5.0,0.0
10546,78.0,192.0,240.0,1.0,0.0
10547,53.0,288.0,180.0,5.0,0.0
10548,77.0,0.0,180.0,1.0,0.0
10549,78.0,456.0,960.0,1.0,0.0
10550,54.0,192.0,240.0,5.0,0.0
10551,53.0,504.0,180.0,5.0,0.0
10552,57.0,24.0,450.0,4.0,0.0
10553,53.0,0.0,240.0,3.0,0.0
10554,60.0,24.0,450.0,4.0,0.0
10555,77.0,0.0,480.0,1.0,0.0
10556,53.0,456.0,240.0,3.0,0.0
10557,61.0,24.0,450.0,4.0,0.0
10558,70.0,456.0,480.0,1.0,0.0
10559,53.0,0.0,240.0,3.0,0.0
10560,63.0,24.0,450.0,4.0,0.0
10561,72.0,0.0,480.0,1.0,0.0
10562,53.0,456.0,240.0,3.0,0.0
10563,64.0,24.0,450.0,4.0,0.0
10564,65.0,0.0,1440.0,1.0,0.0
10565,53.0,456.0,240.0,3.0,0.0
10566,63.0,24.0,450.0,4.0,0.0
10567,53.0,456.0,240.0,3.0,0.0
10568,62.0,24.0,450.0,4.0,0.0
10569,53.0,456.0,240.0,3.0,0.0
10570,70.0,0.0,480.0,1.0,0.0
10571,61.0,24.0,450.0,4.0,0.0
10572,53.0,456.0,240.0,3.0,0.0
10573,60.0,24.0,450.0,4.0,0.0
10574,69.0,456.0,480.0,1.0,0.0
10575,53.0,0.0,240.0,3.0,0.0
10576,70.0,456.0,480.0,1.0,0.0
10577,61.0,24.0,450.0,4.0,0.0
10578,53.0,0.0,240.0,3.0,0.0
10579,57.0,24.0,450.0,4.0,0.0
10580,72.0,456.0,480.0,1.0,0.0
10581,53.0,0.0,240.0,3.0,0.0
10582,58.0,24.0,450.0,4.0,0.0
10583,73.0,0.0,480.0,1.0,0.0
10584,53.0,456.0,240.0,3.0,0.0
10585,70.0,456.0,960.0,2.0,0.0
10586,77.0,456.0,480.0,1.0,0.0
10587,68.0,24.0,450.0,4.0,0.0
10588,54.0,0.0,240.0,3.0,0.0
10589,75.0,0.0,480.0,1.0,0.0
10590,66.0,24.0,450.0,4.0,0.0
10591,54.0,0.0,240.0,3.0,0.0
10592,72.0,0.0,480.0,1.0,0.0
10593,68.0,0.0,480.0,2.0,0.0
10594,63.0,24.0,450.0,4.0,0.0
10595,56.0,456.0,240.0,3.0,0.0
10596,63.0,24.0,450.0,4.0,0.0
10597,72.0,456.0,960.0,1.0,0.0
10598,56.0,456.0,240.0,3.0,0.0
10599,64.0,24.0,450.0,4.0,0.0
10600,56.0,0.0,240.0,3.0,0.0
10601,73.0,0.0,480.0,1.0,0.0
10602,65.0,24.0,450.0,4.0,0.0
10603,56.0,456.0,240.0,3.0,0.0
10604,75.0,0.0,480.0,1.0,0.0
10605,60.0,24.0,450.0,4.0,0.0
10606,56.0,456.0,240.0,3.0,0.0
10607,77.0,429.0,480.0,1.0,0.0
10608,61.0,24.0,450.0,4.0,0.0
10609,56.0,0.0,240.0,3.0,0.0
10610,73.0,0.0,960.0,2.0,0.0
10611,80.0,429.0,480.0,1.0,0.0
10612,70.0,51.0,420.0,4.0,0.0
10613,58.0,0.0,240.0,3.0,0.0
10614,70.0,51.0,420.0,4.0,0.0
10615,79.0,429.0,480.0,1.0,0.0
10616,58.0,0.0,240.0,3.0,0.0
10617,76.0,0.0,480.0,1.0,0.0
10618,67.0,51.0,420.0,4.0,0.0
10619,72.0,0.0,480.0,2.0,0.0
10620,60.0,429.0,240.0,3.0,0.0
10621,75.0,429.0,960.0,1.0,0.0
10622,67.0,51.0,420.0,4.0,0.0
10623,60.0,429.0,240.0,3.0,0.0
10624,67.0,51.0,420.0,4.0,0.0
10625,60.0,0.0,240.0,3.0,0.0
10626,68.0,51.0,420.0,4.0,0.0
10627,77.0,0.0,480.0,1.0,0.0
10628,60.0,429.0,240.0,3.0,0.0
10629,79.0,0.0,480.0,1.0,0.0
10630,64.0,51.0,420.0,4.0,0.0
10631,60.0,429.0,240.0,3.0,0.0
10632,67.0,13.0,420.0,4.0,0.0
10633,82.0,11.0,450.0,1.0,0.0
10634,60.0,267.0,210.0,3.0,0.0
10635,58.0,30.0,360.0,5.0,0.0
10636,65.0,10.0,360.0,5.0,0.0
10637,85.0,0.0,240.0,1.0,0.0
10638,73.0,0.0,240.0,2.0,0.0
10639,77.0,80.0,240.0,2.0,0.0
10640,70.0,120.0,360.0,4.0,0.0
10641,84.0,240.0,240.0,1.0,0.0
10642,82.0,240.0,240.0,1.0,0.0
10643,77.0,240.0,240.0,1.0,0.0
10644,73.0,240.0,240.0,1.0,0.0
10645,72.0,240.0,240.0,1.0,0.0
10646,51.0,120.0,360.0,5.0,0.0
10647,63.0,0.0,360.0,5.0,0.0
10648,70.0,120.0,240.0,1.0,0.0
10649,58.0,0.0,360.0,5.0,0.0
10650,78.0,360.0,240.0,1.0,0.0
10651,58.0,0.0,360.0,5.0,0.0
10652,77.0,0.0,360.0,1.0,0.0
10653,61.0,0.0,360.0,5.0,0.0
10654,53.0,960.0,360.0,5.0,0.0
10655,69.0,0.0,360.0,1.0,0.0
10656,63.0,760.0,360.0,5.0,0.0
10657,60.0,0.0,360.0,5.0,0.0
10658,53.0,0.0,360.0,5.0,0.0
10659,65.0,0.0,360.0,2.0,0.0
10660,90.0,0.0,150.0,1.0,0.0
10661,39.0,160.0,150.0,5.0,0.0
10662,89.0,0.0,150.0,1.0,0.0
10663,41.0,160.0,150.0,5.0,0.0
10664,87.0,160.0,150.0,1.0,0.0
10665,42.0,0.0,150.0,5.0,0.0
10666,82.0,160.0,150.0,1.0,0.0
10667,46.0,0.0,150.0,5.0,0.0
10668,51.0,160.0,150.0,5.0,0.0
10669,78.0,0.0,150.0,1.0,0.0
10670,53.0,160.0,150.0,5.0,0.0
10671,77.0,0.0,150.0,1.0,0.0
10672,75.0,160.0,150.0,1.0,0.0
10673,54.0,0.0,150.0,5.0,0.0
10674,58.0,0.0,150.0,5.0,0.0
10675,70.0,160.0,150.0,1.0,0.0
10676,63.0,160.0,150.0,5.0,0.0
10677,66.0,0.0,150.0,1.0,0.0
10678,58.0,0.0,150.0,5.0,0.0
10679,70.0,160.0,150.0,1.0,0.0
10680,75.0,160.0,150.0,1.0,0.0
10681,54.0,0.0,150.0,5.0,0.0
10682,78.0,0.0,150.0,1.0,0.0
10683,51.0,360.0,150.0,5.0,0.0
10684,77.0,0.0,360.0,1.0,0.0
10685,65.0,0.0,360.0,2.0,0.0
10686,70.0,0.0,360.0,2.0,0.0
10687,61.0,0.0,360.0,5.0,0.0
10688,53.0,960.0,360.0,5.0,0.0
10689,58.0,0.0,360.0,5.0,0.0
10690,60.0,0.0,360.0,5.0,0.0
10691,53.0,0.0,360.0,5.0,0.0
10692,65.0,540.0,360.0,2.0,0.0
10693,69.0,0.0,360.0,1.0,0.0
10694,63.0,0.0,360.0,5.0,0.0
10695,89.0,40.0,60.0,1.0,0.0
10696,46.0,38.0,450.0,5.0,0.0
10697,90.0,40.0,60.0,1.0,0.0
10698,92.0,300.0,60.0,1.0,0.0
10699,53.0,2.0,360.0,5.0,0.0
10700,94.0,0.0,720.0,1.0,0.0
10701,61.0,360.0,360.0,5.0,0.0
10702,82.0,125.0,720.0,2.0,0.0
10703,92.0,55.0,120.0,1.0,0.0
10704,73.0,0.0,60.0,5.0,0.0
10705,85.0,40.0,60.0,1.0,0.0
10706,75.0,40.0,60.0,5.0,0.0
10707,87.0,0.0,60.0,1.0,0.0
10708,89.0,700.0,60.0,1.0,0.0
10709,77.0,0.0,60.0,5.0,0.0
10710,78.0,0.0,720.0,5.0,0.0
10711,90.0,120.0,720.0,1.0,0.0
10712,77.0,5.0,120.0,5.0,0.0
10713,89.0,35.0,120.0,1.0,0.0
10714,58.0,20.0,60.0,5.0,0.0
10715,70.0,20.0,40.0,2.0,0.0
10716,82.0,0.0,60.0,1.0,0.0
10717,71.0,20.0,40.0,2.0,0.0
10718,83.0,20.0,60.0,1.0,0.0
10719,59.0,0.0,60.0,5.0,0.0
10720,73.0,20.0,40.0,2.0,0.0
10721,61.0,700.0,60.0,5.0,0.0
10722,85.0,0.0,60.0,1.0,0.0
10723,75.0,120.0,720.0,2.0,0.0
10724,63.0,0.0,720.0,5.0,0.0
10725,87.0,0.0,720.0,1.0,0.0
10726,61.0,0.0,120.0,5.0,0.0
10727,85.0,60.0,120.0,1.0,0.0
10728,73.0,0.0,120.0,2.0,0.0
10729,78.0,40.0,60.0,1.0,0.0
10730,42.0,0.0,60.0,5.0,0.0
10731,44.0,0.0,60.0,5.0,0.0
10732,80.0,40.0,60.0,1.0,0.0
10733,82.0,700.0,60.0,1.0,0.0
10734,46.0,0.0,60.0,5.0,0.0
10735,47.0,0.0,720.0,5.0,0.0
10736,71.0,192.0,720.0,2.0,0.0
10737,83.0,0.0,720.0,1.0,0.0
10738,58.0,0.0,180.0,5.0,0.0
10739,70.0,0.0,180.0,2.0,0.0
10740,82.0,304.0,180.0,1.0,0.0
10741,68.0,0.0,270.0,2.0,0.0
10742,56.0,0.0,270.0,5.0,0.0
10743,80.0,320.0,270.0,1.0,0.0
10744,66.0,0.0,270.0,2.0,0.0
10745,54.0,320.0,270.0,5.0,0.0
10746,78.0,0.0,270.0,1.0,0.0
10747,53.0,0.0,270.0,5.0,0.0
10748,77.0,320.0,270.0,1.0,0.0
10749,65.0,0.0,270.0,2.0,0.0
10750,63.0,320.0,270.0,2.0,0.0
10751,75.0,0.0,270.0,1.0,0.0
10752,51.0,0.0,270.0,5.0,0.0
10753,49.0,320.0,270.0,5.0,0.0
10754,73.0,0.0,270.0,1.0,0.0
10755,61.0,0.0,270.0,2.0,0.0
10756,60.0,320.0,270.0,2.0,0.0
10757,72.0,0.0,270.0,1.0,0.0
10758,48.0,0.0,270.0,5.0,0.0
10759,68.0,0.0,270.0,1.0,0.0
10760,56.0,0.0,270.0,2.0,0.0
10761,44.0,320.0,270.0,5.0,0.0
10762,66.0,0.0,270.0,1.0,0.0
10763,42.0,320.0,270.0,5.0,0.0
10764,54.0,0.0,270.0,2.0,0.0
10765,41.0,0.0,270.0,5.0,0.0
10766,53.0,0.0,270.0,2.0,0.0
10767,65.0,320.0,270.0,1.0,0.0
10768,39.0,320.0,270.0,5.0,0.0
10769,51.0,0.0,270.0,2.0,0.0
10770,63.0,0.0,270.0,1.0,0.0
10771,61.0,320.0,270.0,1.0,0.0
10772,37.0,0.0,270.0,5.0,0.0
10773,49.0,0.0,270.0,2.0,0.0
10774,36.0,0.0,270.0,5.0,0.0
10775,48.0,352.0,270.0,2.0,0.0
10776,60.0,0.0,270.0,1.0,0.0
10777,58.0,0.0,300.0,1.0,0.0
10778,46.0,949.0,300.0,2.0,0.0
10779,34.0,0.0,300.0,5.0,0.0
10780,46.0,4.0,330.0,5.0,0.0
10781,49.0,7.0,300.0,5.0,0.0
10782,53.0,0.0,300.0,5.0,0.0
10783,61.0,0.0,300.0,5.0,0.0
10784,82.0,945.0,300.0,1.0,0.0
10785,70.0,0.0,300.0,2.0,0.0
10786,77.0,0.0,300.0,2.0,0.0
10787,73.0,0.0,300.0,2.0,0.0
10788,58.0,7.0,330.0,5.0,0.0
10789,61.0,5.0,300.0,5.0,0.0
10790,65.0,3.0,300.0,5.0,0.0
10791,70.0,672.0,300.0,5.0,0.0
10792,94.0,0.0,960.0,1.0,0.0
10793,85.0,0.0,960.0,2.0,0.0
10794,89.0,0.0,960.0,2.0,0.0
10795,82.0,960.0,960.0,2.0,0.0
10796,54.0,360.0,480.0,5.0,0.0
10797,66.0,0.0,480.0,5.0,0.0
10798,53.0,360.0,360.0,5.0,0.0
10799,65.0,0.0,360.0,5.0,0.0
10800,48.0,0.0,240.0,5.0,0.0
10801,60.0,240.0,240.0,5.0,0.0
10802,49.0,360.0,240.0,5.0,0.0
10803,61.0,0.0,240.0,5.0,0.0
10804,46.0,0.0,360.0,5.0,0.0
10805,58.0,360.0,360.0,5.0,0.0
10806,44.0,240.0,240.0,5.0,0.0
10807,56.0,0.0,240.0,5.0,0.0
10808,46.0,0.0,240.0,5.0,0.0
10809,58.0,360.0,240.0,5.0,0.0
10810,54.0,0.0,360.0,5.0,0.0
10811,42.0,276.0,360.0,5.0,0.0
10812,41.0,240.0,150.0,5.0,0.0
10813,53.0,0.0,150.0,5.0,0.0
10814,42.0,444.0,150.0,5.0,0.0
10815,54.0,0.0,150.0,5.0,0.0
10816,39.0,0.0,360.0,5.0,0.0
10817,51.0,276.0,360.0,5.0,0.0
10818,37.0,0.0,150.0,5.0,0.0
10819,63.0,0.0,360.0,1.0,0.0
10820,75.0,0.0,360.0,1.0,0.0
10821,67.0,0.0,360.0,2.0,0.0
10822,70.0,36.0,360.0,2.0,0.0
10823,49.0,204.0,150.0,5.0,0.0
10824,39.0,444.0,150.0,5.0,0.0
10825,51.0,0.0,150.0,5.0,0.0
10826,35.0,0.0,360.0,5.0,0.0
10827,47.0,0.0,360.0,5.0,0.0
10828,80.0,276.0,360.0,2.0,0.0
10829,87.0,0.0,360.0,1.0,0.0
10830,75.0,0.0,360.0,1.0,0.0
10831,70.0,204.0,150.0,1.0,0.0
10832,59.0,0.0,360.0,5.0,0.0
10833,63.0,36.0,360.0,5.0,0.0
10834,56.0,0.0,360.0,5.0,0.0
10835,82.0,0.0,150.0,1.0,0.0
10836,71.0,0.0,150.0,1.0,0.0
10837,83.0,444.0,150.0,1.0,0.0
10838,68.0,276.0,360.0,1.0,0.0
10839,80.0,0.0,360.0,1.0,0.0
10840,78.0,0.0,150.0,1.0,0.0
10841,66.0,0.0,150.0,1.0,0.0
10842,34.0,240.0,150.0,5.0,0.0
10843,46.0,0.0,150.0,5.0,0.0
10844,47.0,0.0,150.0,5.0,0.0
10845,68.0,444.0,150.0,1.0,0.0
10846,80.0,0.0,150.0,1.0,0.0
10847,35.0,0.0,150.0,5.0,0.0
10848,65.0,260.0,360.0,1.0,0.0
10849,77.0,0.0,360.0,1.0,0.0
10850,32.0,0.0,360.0,5.0,0.0
10851,44.0,0.0,360.0,5.0,0.0
10852,63.0,204.0,150.0,1.0,0.0
10853,75.0,16.0,150.0,1.0,0.0
10854,56.0,0.0,360.0,5.0,0.0
10855,59.0,36.0,360.0,5.0,0.0
10856,65.0,0.0,150.0,1.0,0.0
10857,77.0,444.0,150.0,1.0,0.0
10858,62.0,276.0,360.0,1.0,0.0
10859,74.0,0.0,360.0,1.0,0.0
10860,58.0,0.0,360.0,5.0,0.0
10861,46.0,36.0,360.0,5.0,0.0
10862,63.0,0.0,150.0,1.0,0.0
10863,75.0,204.0,150.0,1.0,0.0
10864,65.0,444.0,150.0,1.0,0.0
10865,77.0,0.0,150.0,1.0,0.0
10866,58.0,0.0,360.0,5.0,0.0
10867,66.0,0.0,360.0,1.0,0.0
10868,78.0,276.0,360.0,1.0,0.0
10869,70.0,0.0,360.0,5.0,0.0
10870,87.0,0.0,360.0,1.0,0.0
10871,75.0,36.0,360.0,1.0,0.0
10872,53.0,204.0,150.0,5.0,0.0
10873,65.0,0.0,150.0,5.0,0.0
10874,82.0,0.0,360.0,2.0,0.0
10875,54.0,444.0,150.0,5.0,0.0
10876,66.0,0.0,150.0,5.0,0.0
10877,51.0,0.0,360.0,5.0,0.0
10878,63.0,276.0,360.0,5.0,0.0
10879,65.0,0.0,150.0,1.0,0.0
10880,77.0,0.0,150.0,1.0,0.0
10881,49.0,240.0,150.0,5.0,0.0
10882,61.0,0.0,150.0,5.0,0.0
10883,79.0,0.0,150.0,1.0,0.0
10884,63.0,0.0,150.0,5.0,0.0
10885,51.0,444.0,150.0,5.0,0.0
10886,67.0,0.0,150.0,1.0,0.0
10887,59.0,0.0,360.0,5.0,0.0
10888,47.0,276.0,360.0,5.0,0.0
10889,68.0,0.0,360.0,1.0,0.0
10890,80.0,0.0,360.0,1.0,0.0
10891,80.0,0.0,360.0,1.0,0.0
10892,58.0,204.0,150.0,5.0,0.0
10893,46.0,0.0,150.0,5.0,0.0
10894,87.0,36.0,360.0,2.0,0.0
10895,92.0,0.0,360.0,1.0,0.0
10896,48.0,444.0,150.0,5.0,0.0
10897,60.0,0.0,150.0,5.0,0.0
10898,56.0,276.0,360.0,5.0,0.0
10899,44.0,0.0,360.0,5.0,0.0
10900,69.0,36.0,360.0,1.0,0.0
10901,42.0,0.0,150.0,5.0,0.0
10902,75.0,0.0,360.0,2.0,0.0
10903,72.0,0.0,360.0,2.0,0.0
10904,54.0,204.0,150.0,5.0,0.0
10905,81.0,0.0,360.0,1.0,0.0
10906,56.0,444.0,150.0,5.0,0.0
10907,44.0,0.0,150.0,5.0,0.0
10908,85.0,0.0,360.0,2.0,0.0
10909,93.0,0.0,360.0,1.0,0.0
10910,81.0,276.0,360.0,1.0,0.0
10911,40.0,0.0,360.0,5.0,0.0
10912,52.0,0.0,360.0,5.0,0.0
10913,52.0,240.0,600.0,5.0,0.0
10914,40.0,0.0,600.0,5.0,0.0
10915,49.0,0.0,600.0,4.0,0.0
10916,75.0,0.0,150.0,1.0,0.0
10917,87.0,240.0,150.0,1.0,0.0
10918,88.0,0.0,150.0,1.0,0.0
10919,76.0,204.0,150.0,1.0,0.0
10920,73.0,36.0,360.0,1.0,0.0
10921,85.0,0.0,360.0,1.0,0.0
10922,49.0,0.0,150.0,4.0,0.0
10923,52.0,0.0,150.0,5.0,0.0
10924,40.0,240.0,150.0,5.0,0.0
10925,49.0,235.0,600.0,4.0,0.0
10926,53.0,5.0,600.0,5.0,0.0
10927,41.0,0.0,600.0,5.0,0.0
10928,71.0,240.0,150.0,1.0,0.0
10929,83.0,0.0,150.0,1.0,0.0
10930,73.0,204.0,150.0,1.0,0.0
10931,85.0,0.0,150.0,1.0,0.0
10932,69.0,0.0,360.0,1.0,0.0
10933,81.0,36.0,360.0,1.0,0.0
10934,53.0,0.0,150.0,5.0,0.0
10935,41.0,0.0,150.0,5.0,0.0
10936,49.0,240.0,150.0,4.0,0.0
10937,49.0,0.0,600.0,4.0,0.0
10938,68.0,0.0,150.0,1.0,0.0
10939,80.0,240.0,150.0,1.0,0.0
10940,42.0,240.0,600.0,5.0,0.0
10941,54.0,5.0,600.0,5.0,0.0
10942,81.0,199.0,150.0,1.0,0.0
10943,69.0,0.0,150.0,1.0,0.0
10944,66.0,0.0,360.0,1.0,0.0
10945,78.0,36.0,360.0,1.0,0.0
10946,42.0,240.0,150.0,5.0,0.0
10947,54.0,0.0,150.0,5.0,0.0
10948,49.0,0.0,150.0,4.0,0.0
10949,49.0,0.0,600.0,4.0,0.0
10950,64.0,240.0,150.0,1.0,0.0
10951,55.0,5.0,600.0,5.0,0.0
10952,43.0,235.0,600.0,5.0,0.0
10953,76.0,0.0,150.0,1.0,0.0
10954,78.0,0.0,150.0,1.0,0.0
10955,66.0,204.0,150.0,1.0,0.0
10956,75.0,0.0,360.0,1.0,0.0
10957,63.0,36.0,360.0,1.0,0.0
10958,43.0,0.0,150.0,5.0,0.0
10959,55.0,0.0,150.0,5.0,0.0
10960,49.0,240.0,150.0,4.0,0.0
10961,45.0,240.0,600.0,5.0,0.0
10962,57.0,0.0,600.0,5.0,0.0
10963,67.0,0.0,150.0,2.0,0.0
10964,61.0,240.0,150.0,1.0,0.0
10965,51.0,5.0,600.0,4.0,0.0
10966,73.0,0.0,150.0,1.0,0.0
10967,75.0,199.0,150.0,1.0,0.0
10968,63.0,0.0,150.0,1.0,0.0
10969,60.0,36.0,360.0,1.0,0.0
10970,72.0,0.0,360.0,1.0,0.0
10971,68.0,0.0,360.0,2.0,0.0
10972,51.0,0.0,150.0,4.0,0.0
10973,56.0,240.0,150.0,5.0,0.0
10974,44.0,0.0,150.0,5.0,0.0
10975,61.0,0.0,150.0,1.0,0.0
10976,73.0,240.0,150.0,1.0,0.0
10977,67.0,0.0,150.0,2.0,0.0
10978,51.0,0.0,600.0,4.0,0.0
10979,57.0,235.0,600.0,5.0,0.0
10980,45.0,5.0,600.0,5.0,0.0
10981,75.0,204.0,150.0,1.0,0.0
10982,63.0,0.0,150.0,1.0,0.0
10983,72.0,36.0,360.0,1.0,0.0
10984,68.0,0.0,360.0,2.0,0.0
10985,60.0,0.0,360.0,1.0,0.0
10986,44.0,0.0,150.0,5.0,0.0
10987,51.0,0.0,150.0,4.0,0.0
10988,56.0,444.0,150.0,5.0,0.0
10989,56.0,0.0,360.0,1.0,0.0
10990,68.0,408.0,360.0,1.0,0.0
10991,32.0,912.0,300.0,5.0,0.0
10992,44.0,0.0,300.0,5.0,0.0
10993,68.0,240.0,960.0,1.0,0.0
10994,47.0,240.0,240.0,5.0,0.0
10995,63.0,0.0,240.0,3.0,0.0
10996,80.0,72.0,360.0,1.0,0.0
10997,55.0,120.0,240.0,3.0,0.0
10998,56.0,288.0,180.0,3.0,0.0
10999,44.0,240.0,240.0,5.0,0.0
11000,66.0,20.0,240.0,3.0,0.0
11001,75.0,0.0,240.0,1.0,0.0
11002,78.0,136.0,60.0,1.0,0.0
11003,76.0,84.0,150.0,1.0,0.0
11004,55.0,156.0,240.0,3.0,0.0
11005,56.0,288.0,180.0,3.0,0.0
11006,75.0,36.0,150.0,1.0,0.0
11007,49.0,240.0,240.0,5.0,0.0
11008,73.0,240.0,480.0,1.0,0.0
11009,64.0,0.0,240.0,3.0,0.0
11010,55.0,192.0,240.0,3.0,0.0
11011,68.0,240.0,480.0,1.0,0.0
11012,56.0,48.0,180.0,3.0,0.0
11013,52.0,240.0,240.0,5.0,0.0
11014,61.0,240.0,240.0,3.0,0.0
11015,55.0,192.0,240.0,3.0,0.0
11016,68.0,0.0,960.0,1.0,0.0
11017,56.0,288.0,180.0,3.0,0.0
11018,47.0,240.0,240.0,5.0,0.0
11019,63.0,240.0,240.0,3.0,0.0
11020,80.0,72.0,360.0,1.0,0.0
11021,55.0,120.0,240.0,3.0,0.0
11022,56.0,528.0,180.0,3.0,0.0
11023,54.0,480.0,960.0,5.0,0.0
11024,75.0,0.0,240.0,1.0,0.0
11025,60.0,20.0,240.0,3.0,0.0
11026,78.0,136.0,60.0,1.0,0.0
11027,76.0,84.0,150.0,1.0,0.0
11028,55.0,156.0,240.0,3.0,0.0
11029,75.0,36.0,150.0,1.0,0.0
11030,56.0,48.0,180.0,3.0,0.0
11031,52.0,0.0,720.0,5.0,0.0
11032,73.0,0.0,480.0,1.0,0.0
11033,61.0,240.0,240.0,3.0,0.0
11034,55.0,240.0,240.0,3.0,0.0
11035,68.0,240.0,480.0,1.0,0.0
11036,56.0,0.0,240.0,3.0,0.0
11037,49.0,240.0,240.0,5.0,0.0
11038,64.0,240.0,240.0,3.0,0.0
11039,73.0,0.0,960.0,1.0,0.0
11040,55.0,192.0,240.0,3.0,0.0
11041,56.0,528.0,180.0,3.0,0.0
11042,53.0,120.0,720.0,5.0,0.0
11043,61.0,240.0,240.0,3.0,0.0
11044,85.0,120.0,360.0,1.0,0.0
11045,55.0,0.0,240.0,3.0,0.0
11046,56.0,240.0,240.0,3.0,0.0
11047,49.0,215.0,240.0,5.0,0.0
11048,65.0,20.0,240.0,3.0,0.0
11049,80.0,25.0,210.0,1.0,0.0
11050,83.0,136.0,60.0,1.0,0.0
11051,81.0,84.0,150.0,1.0,0.0
11052,58.0,156.0,240.0,3.0,0.0
11053,59.0,288.0,180.0,3.0,0.0
11054,80.0,36.0,150.0,1.0,0.0
11055,69.0,72.0,360.0,2.0,0.0
11056,54.0,0.0,360.0,5.0,0.0
11057,73.0,0.0,360.0,2.0,0.0
11058,80.0,120.0,240.0,1.0,0.0
11059,78.0,288.0,180.0,1.0,0.0
11060,78.0,120.0,240.0,1.0,0.0
11061,73.0,0.0,360.0,2.0,0.0
11062,68.0,0.0,360.0,2.0,0.0
11063,56.0,72.0,360.0,5.0,0.0
11064,76.0,288.0,180.0,1.0,0.0
11065,57.0,0.0,360.0,5.0,0.0
11066,66.0,72.0,360.0,2.0,0.0
11067,72.0,0.0,360.0,2.0,0.0
11068,76.0,120.0,240.0,1.0,0.0
11069,75.0,288.0,180.0,1.0,0.0
11070,75.0,120.0,240.0,1.0,0.0
11071,58.0,72.0,360.0,5.0,0.0
11072,67.0,0.0,360.0,2.0,0.0
11073,64.0,0.0,360.0,2.0,0.0
11074,73.0,288.0,180.0,1.0,0.0
11075,59.0,0.0,360.0,2.0,0.0
11076,68.0,0.0,360.0,2.0,0.0
11077,64.0,72.0,360.0,2.0,0.0
11078,47.0,0.0,360.0,5.0,0.0
11079,73.0,120.0,240.0,1.0,0.0
11080,71.0,288.0,180.0,1.0,0.0
11081,71.0,120.0,240.0,1.0,0.0
11082,48.0,0.0,360.0,5.0,0.0
11083,63.0,0.0,360.0,2.0,0.0
11084,66.0,72.0,360.0,2.0,0.0
11085,69.0,288.0,180.0,1.0,0.0
11086,69.0,120.0,240.0,1.0,0.0
11087,49.0,72.0,360.0,5.0,0.0
11088,61.0,0.0,360.0,2.0,0.0
11089,64.0,0.0,360.0,2.0,0.0
11090,68.0,288.0,180.0,1.0,0.0
11091,68.0,120.0,240.0,1.0,0.0
11092,51.0,0.0,360.0,5.0,0.0
11093,57.0,72.0,360.0,2.0,0.0
11094,60.0,0.0,360.0,2.0,0.0
11095,66.0,288.0,180.0,1.0,0.0
11096,66.0,120.0,240.0,1.0,0.0
11097,61.0,0.0,360.0,2.0,0.0
11098,52.0,0.0,360.0,5.0,0.0
11099,56.0,72.0,360.0,2.0,0.0
11100,64.0,768.0,180.0,1.0,0.0
11101,55.0,72.0,360.0,5.0,0.0
11102,58.0,0.0,360.0,2.0,0.0
11103,63.0,120.0,240.0,1.0,0.0
11104,61.0,768.0,180.0,1.0,0.0
11105,60.0,120.0,240.0,1.0,0.0
11106,56.0,840.0,360.0,5.0,0.0
11107,68.0,120.0,960.0,1.0,0.0
11108,44.0,0.0,360.0,5.0,0.0
11109,51.0,480.0,360.0,5.0,0.0
11110,80.0,0.0,960.0,1.0,0.0
11111,68.0,156.0,960.0,1.0,0.0
11112,48.0,0.0,360.0,5.0,0.0
11113,36.0,476.0,360.0,5.0,0.0
11114,46.0,4.0,390.0,5.0,0.0
11115,56.0,120.0,390.0,5.0,0.0
11116,63.0,0.0,360.0,5.0,0.0
11117,79.0,0.0,480.0,1.0,0.0
11118,58.0,204.0,150.0,5.0,0.0
11119,92.0,36.0,360.0,1.0,0.0
11120,78.0,0.0,360.0,1.0,0.0
11121,60.0,444.0,150.0,5.0,0.0
11122,56.0,85.0,360.0,5.0,0.0
11123,75.0,55.0,210.0,1.0,0.0
11124,87.0,0.0,210.0,1.0,0.0
11125,90.0,136.0,60.0,1.0,0.0
11126,88.0,0.0,150.0,1.0,0.0
11127,76.0,240.0,150.0,1.0,0.0
11128,54.0,0.0,150.0,5.0,0.0
11129,87.0,0.0,150.0,1.0,0.0
11130,75.0,0.0,150.0,1.0,0.0
11131,56.0,444.0,150.0,5.0,0.0
11132,52.0,120.0,360.0,5.0,0.0
11133,85.0,0.0,480.0,1.0,0.0
11134,73.0,156.0,480.0,1.0,0.0
11135,80.0,0.0,360.0,1.0,0.0
11136,51.0,204.0,150.0,5.0,0.0
11137,68.0,36.0,360.0,1.0,0.0
11138,52.0,444.0,150.0,5.0,0.0
11139,49.0,480.0,360.0,5.0,0.0
11140,37.0,480.0,360.0,5.0,0.0
11141,49.0,0.0,360.0,5.0,0.0
11142,69.0,0.0,960.0,1.0,0.0
11143,81.0,156.0,960.0,1.0,0.0
11144,49.0,120.0,390.0,5.0,0.0
11145,57.0,0.0,390.0,5.0,0.0
11146,80.0,0.0,480.0,1.0,0.0
11147,64.0,0.0,360.0,5.0,0.0
11148,59.0,204.0,150.0,5.0,0.0
11149,93.0,36.0,360.0,1.0,0.0
11150,79.0,0.0,360.0,1.0,0.0
11151,61.0,444.0,150.0,5.0,0.0
11152,57.0,75.0,360.0,5.0,0.0
11153,76.0,5.0,180.0,1.0,0.0
11154,88.0,60.0,210.0,1.0,0.0
11155,91.0,136.0,60.0,1.0,0.0
11156,55.0,0.0,150.0,5.0,0.0
11157,78.0,0.0,150.0,1.0,0.0
11158,90.0,240.0,150.0,1.0,0.0
11159,76.0,0.0,150.0,1.0,0.0
11160,88.0,444.0,150.0,1.0,0.0
11161,58.0,0.0,150.0,5.0,0.0
11162,54.0,120.0,360.0,5.0,0.0
11163,75.0,156.0,480.0,1.0,0.0
11164,87.0,0.0,480.0,1.0,0.0
11165,78.0,36.0,360.0,1.0,0.0
11166,66.0,0.0,360.0,1.0,0.0
11167,57.0,204.0,150.0,5.0,0.0
11168,60.0,444.0,150.0,5.0,0.0
11169,45.0,80.0,360.0,5.0,0.0
11170,74.0,0.0,210.0,1.0,0.0
11171,86.0,60.0,210.0,1.0,0.0
11172,89.0,136.0,60.0,1.0,0.0
11173,76.0,0.0,150.0,1.0,0.0
11174,88.0,0.0,150.0,1.0,0.0
11175,56.0,240.0,150.0,5.0,0.0
11176,59.0,444.0,150.0,5.0,0.0
11177,86.0,0.0,150.0,1.0,0.0
11178,74.0,0.0,150.0,1.0,0.0
11179,73.0,156.0,480.0,1.0,0.0
11180,85.0,0.0,480.0,1.0,0.0
11181,45.0,120.0,360.0,5.0,0.0
11182,67.0,36.0,360.0,1.0,0.0
11183,79.0,0.0,360.0,1.0,0.0
11184,52.0,204.0,150.0,5.0,0.0
11185,57.0,444.0,150.0,5.0,0.0
11186,45.0,36.0,360.0,5.0,0.0
11187,85.0,240.0,150.0,1.0,0.0
11188,73.0,0.0,150.0,1.0,0.0
11189,86.0,0.0,150.0,1.0,0.0
11190,74.0,0.0,150.0,1.0,0.0
11191,54.0,240.0,150.0,5.0,0.0
11192,66.0,444.0,150.0,1.0,0.0
11193,78.0,0.0,150.0,1.0,0.0
11194,57.0,0.0,150.0,5.0,0.0
11195,45.0,120.0,360.0,5.0,0.0
11196,79.0,0.0,480.0,1.0,0.0
11197,67.0,156.0,480.0,1.0,0.0
11198,52.0,204.0,150.0,5.0,0.0
11199,85.0,36.0,360.0,1.0,0.0
11200,73.0,0.0,360.0,1.0,0.0
11201,57.0,444.0,150.0,5.0,0.0
11202,45.0,36.0,360.0,5.0,0.0
11203,73.0,240.0,150.0,1.0,0.0
11204,85.0,0.0,150.0,1.0,0.0
11205,86.0,0.0,150.0,1.0,0.0
11206,74.0,0.0,150.0,1.0,0.0
11207,54.0,240.0,150.0,5.0,0.0
11208,66.0,444.0,150.0,1.0,0.0
11209,78.0,0.0,150.0,1.0,0.0
11210,57.0,0.0,150.0,5.0,0.0
11211,67.0,0.0,480.0,1.0,0.0
11212,45.0,120.0,360.0,5.0,0.0
11213,79.0,156.0,480.0,1.0,0.0
11214,73.0,0.0,360.0,1.0,0.0
11215,85.0,36.0,360.0,1.0,0.0
11216,52.0,204.0,150.0,5.0,0.0
11217,57.0,444.0,150.0,5.0,0.0
11218,45.0,36.0,360.0,5.0,0.0
11219,85.0,240.0,150.0,1.0,0.0
11220,73.0,0.0,150.0,1.0,0.0
11221,74.0,0.0,150.0,1.0,0.0
11222,54.0,240.0,150.0,5.0,0.0
11223,86.0,0.0,150.0,1.0,0.0
11224,57.0,244.0,150.0,5.0,0.0
11225,66.0,0.0,150.0,1.0,0.0
11226,78.0,0.0,150.0,1.0,0.0
11227,79.0,0.0,360.0,1.0,0.0
11228,67.0,120.0,360.0,1.0,0.0
11229,45.0,200.0,150.0,5.0,0.0
11230,52.0,128.0,150.0,5.0,0.0
11231,57.0,352.0,120.0,5.0,0.0
11232,40.0,128.0,150.0,5.0,0.0
11233,73.0,0.0,360.0,1.0,0.0
11234,45.0,232.0,120.0,5.0,0.0
11235,85.0,0.0,360.0,1.0,0.0
11236,80.0,120.0,360.0,2.0,0.0
11237,52.0,128.0,150.0,5.0,0.0
11238,57.0,352.0,120.0,5.0,0.0
11239,52.0,128.0,150.0,5.0,0.0
11240,40.0,0.0,150.0,5.0,0.0
11241,57.0,352.0,120.0,5.0,0.0
11242,45.0,0.0,120.0,5.0,0.0
11243,61.0,0.0,150.0,5.0,0.0
11244,49.0,128.0,150.0,5.0,0.0
11245,52.0,352.0,120.0,5.0,0.0
11246,64.0,0.0,120.0,5.0,0.0
11247,69.0,128.0,150.0,5.0,0.0
11248,57.0,0.0,150.0,5.0,0.0
11249,73.0,0.0,120.0,5.0,0.0
11250,61.0,352.0,120.0,5.0,0.0
11251,64.0,0.0,150.0,5.0,0.0
11252,76.0,128.0,150.0,5.0,0.0
11253,69.0,0.0,120.0,5.0,0.0
11254,81.0,352.0,120.0,5.0,0.0
11255,45.0,128.0,150.0,5.0,0.0
11256,77.0,0.0,360.0,2.0,0.0
11257,69.0,0.0,360.0,1.0,0.0
11258,81.0,0.0,360.0,1.0,0.0
11259,50.0,232.0,120.0,5.0,0.0
11260,74.0,120.0,360.0,2.0,0.0
11261,53.0,128.0,150.0,5.0,0.0
11262,57.0,352.0,120.0,5.0,0.0
11263,45.0,128.0,150.0,5.0,0.0
11264,50.0,232.0,120.0,5.0,0.0
11265,86.0,120.0,360.0,1.0,0.0
11266,74.0,0.0,360.0,1.0,0.0
11267,77.0,0.0,360.0,2.0,0.0
11268,81.0,0.0,360.0,2.0,0.0
11269,53.0,128.0,150.0,5.0,0.0
11270,57.0,352.0,120.0,5.0,0.0
11271,45.0,128.0,150.0,5.0,0.0
11272,50.0,352.0,120.0,5.0,0.0
11273,65.0,128.0,150.0,5.0,0.0
11274,53.0,0.0,150.0,5.0,0.0
11275,69.0,352.0,120.0,5.0,0.0
11276,57.0,0.0,120.0,5.0,0.0
11277,74.0,0.0,150.0,5.0,0.0
11278,62.0,128.0,150.0,5.0,0.0
11279,77.0,352.0,120.0,5.0,0.0
11280,65.0,0.0,120.0,5.0,0.0
11281,81.0,0.0,150.0,5.0,0.0
11282,69.0,128.0,150.0,5.0,0.0
11283,86.0,352.0,120.0,5.0,0.0
11284,74.0,0.0,120.0,5.0,0.0
11285,42.0,128.0,150.0,5.0,0.0
11286,87.0,0.0,360.0,1.0,0.0
11287,75.0,120.0,360.0,1.0,0.0
11288,81.0,0.0,360.0,2.0,0.0
11289,84.0,0.0,360.0,2.0,0.0
11290,48.0,232.0,120.0,5.0,0.0
11291,54.0,128.0,150.0,5.0,0.0
11292,60.0,352.0,120.0,5.0,0.0
11293,43.0,128.0,150.0,5.0,0.0
11294,82.0,0.0,360.0,2.0,0.0
11295,85.0,0.0,360.0,2.0,0.0
11296,88.0,120.0,360.0,1.0,0.0
11297,76.0,0.0,360.0,1.0,0.0
11298,49.0,232.0,120.0,5.0,0.0
11299,55.0,128.0,150.0,5.0,0.0
11300,61.0,352.0,120.0,5.0,0.0
11301,44.0,128.0,150.0,5.0,0.0
11302,77.0,0.0,360.0,1.0,0.0
11303,56.0,232.0,120.0,5.0,0.0
11304,85.0,120.0,360.0,2.0,0.0
11305,89.0,0.0,360.0,1.0,0.0
11306,85.0,0.0,720.0,2.0,0.0
11307,57.0,0.0,720.0,5.0,0.0
11308,45.0,720.0,15.0,5.0,0.0
11309,78.0,0.0,720.0,1.0,0.0
11310,90.0,600.0,720.0,1.0,0.0
11311,41.0,480.0,360.0,5.0,0.0
11312,85.0,0.0,360.0,2.0,0.0
11313,80.0,0.0,360.0,1.0,0.0
11314,49.0,0.0,360.0,5.0,0.0
11315,53.0,0.0,360.0,5.0,0.0
11316,92.0,0.0,360.0,1.0,0.0
11317,81.0,1920.0,360.0,1.0,0.0
11318,93.0,0.0,360.0,1.0,0.0
11319,85.0,0.0,360.0,2.0,0.0
11320,42.0,0.0,360.0,5.0,0.0
11321,54.0,0.0,360.0,5.0,0.0
11322,49.0,0.0,360.0,5.0,0.0
11323,44.0,1740.0,390.0,5.0,0.0
11324,48.0,0.0,390.0,5.0,0.0
11325,51.0,3.0,360.0,5.0,0.0
11326,78.0,0.0,360.0,2.0,0.0
11327,75.0,0.0,360.0,2.0,0.0
11328,72.0,0.0,360.0,1.0,0.0
11329,84.0,0.0,360.0,1.0,0.0
11330,56.0,0.0,360.0,5.0,0.0
11331,37.0,8.0,210.0,5.0,0.0
11332,44.0,1.0,210.0,5.0,0.0
11333,49.0,240.0,180.0,5.0,0.0
11334,77.0,0.0,1440.0,1.0,0.0
11335,80.0,0.0,1440.0,1.0,0.0
11336,73.0,0.0,1440.0,1.0,0.0
11337,71.0,240.0,180.0,5.0,0.0
11338,59.0,0.0,180.0,5.0,0.0
11339,59.0,0.0,180.0,5.0,0.0
11340,71.0,240.0,180.0,5.0,0.0
11341,59.0,0.0,180.0,5.0,0.0
11342,71.0,528.0,180.0,5.0,0.0
11343,71.0,0.0,960.0,5.0,0.0
11344,59.0,432.0,960.0,5.0,0.0
11345,83.0,0.0,480.0,1.0,0.0
11346,85.0,480.0,15.0,1.0,0.0
11347,73.0,0.0,480.0,1.0,0.0
11348,85.0,0.0,1440.0,1.0,0.0
11349,81.0,480.0,960.0,1.0,0.0
11350,73.0,0.0,1440.0,1.0,0.0
11351,57.0,0.0,180.0,5.0,0.0
11352,69.0,240.0,180.0,5.0,0.0
11353,57.0,0.0,180.0,5.0,0.0
11354,69.0,240.0,180.0,5.0,0.0
11355,69.0,48.0,180.0,5.0,0.0
11356,57.0,0.0,180.0,5.0,0.0
11357,66.0,0.0,480.0,5.0,0.0
11358,54.0,0.0,480.0,5.0,0.0
11359,78.0,435.0,480.0,1.0,0.0
11360,73.0,4.0,450.0,1.0,0.0
11361,80.0,225.0,450.0,1.0,0.0
11362,85.0,0.0,450.0,1.0,0.0
11363,68.0,0.0,450.0,5.0,0.0
11364,56.0,3.0,420.0,5.0,0.0
11365,49.0,0.0,240.0,5.0,0.0
11366,53.0,0.0,210.0,5.0,0.0
11367,56.0,5.0,210.0,5.0,0.0
11368,61.0,240.0,180.0,5.0,0.0
11369,73.0,480.0,1440.0,1.0,0.0
11370,77.0,0.0,1440.0,1.0,0.0
11371,80.0,0.0,1440.0,1.0,0.0
11372,85.0,0.0,1440.0,1.0,0.0
11373,71.0,0.0,180.0,5.0,0.0
11374,59.0,240.0,180.0,5.0,0.0
11375,71.0,0.0,180.0,5.0,0.0
11376,59.0,240.0,180.0,5.0,0.0
11377,71.0,0.0,180.0,5.0,0.0
11378,59.0,528.0,180.0,5.0,0.0
11379,59.0,0.0,960.0,5.0,0.0
11380,71.0,432.0,960.0,5.0,0.0
11381,73.0,0.0,480.0,1.0,0.0
11382,85.0,0.0,480.0,1.0,0.0
11383,83.0,0.0,480.0,1.0,0.0
11384,81.0,480.0,960.0,1.0,0.0
11385,73.0,0.0,1440.0,1.0,0.0
11386,57.0,240.0,180.0,5.0,0.0
11387,69.0,0.0,180.0,5.0,0.0
11388,57.0,240.0,180.0,5.0,0.0
11389,69.0,0.0,180.0,5.0,0.0
11390,69.0,0.0,180.0,5.0,0.0
11391,57.0,48.0,180.0,5.0,0.0
11392,54.0,0.0,480.0,5.0,0.0
11393,66.0,0.0,480.0,5.0,0.0
11394,78.0,480.0,480.0,1.0,0.0
11395,68.0,960.0,480.0,5.0,0.0
11396,85.0,0.0,15.0,1.0,0.0
11397,80.0,0.0,480.0,1.0,0.0
11398,56.0,0.0,480.0,5.0,0.0
11399,73.0,0.0,480.0,1.0,0.0
11400,73.0,960.0,960.0,1.0,0.0
11401,80.0,0.0,1920.0,1.0,0.0
11402,77.0,0.0,1920.0,1.0,0.0
11403,53.0,0.0,1920.0,5.0,0.0
11404,49.0,0.0,1920.0,5.0,0.0
11405,61.0,0.0,1920.0,5.0,0.0
11406,56.0,0.0,1920.0,5.0,0.0
11407,72.0,960.0,960.0,1.0,0.0
11408,60.0,0.0,960.0,5.0,0.0
11409,54.0,0.0,1920.0,5.0,0.0
11410,61.0,0.0,1920.0,5.0,0.0
11411,59.0,0.0,960.0,5.0,0.0
11412,71.0,960.0,960.0,1.0,0.0
11413,73.0,960.0,1920.0,1.0,0.0
11414,78.0,0.0,1920.0,1.0,0.0
11415,85.0,0.0,15.0,1.0,0.0
11416,57.0,0.0,960.0,5.0,0.0
11417,69.0,0.0,960.0,1.0,0.0
11418,61.0,0.0,1920.0,5.0,0.0
11419,49.0,0.0,15.0,5.0,0.0
11420,56.0,0.0,1920.0,5.0,0.0
11421,68.0,0.0,1920.0,1.0,0.0
11422,65.0,0.0,1920.0,1.0,0.0
11423,48.0,0.0,960.0,5.0,0.0
11424,60.0,0.0,960.0,5.0,0.0
11425,73.0,960.0,15.0,1.0,0.0
11426,66.0,0.0,1890.0,1.0,0.0
11427,49.0,915.0,960.0,5.0,0.0
11428,61.0,0.0,1890.0,1.0,0.0
11429,59.0,0.0,960.0,5.0,0.0
11430,54.0,7.0,1860.0,5.0,0.0
11431,47.0,0.0,960.0,5.0,0.0
11432,45.0,0.0,900.0,5.0,0.0
11433,57.0,1913.0,930.0,5.0,0.0
11434,37.0,0.0,1920.0,5.0,0.0
11435,44.0,2.0,1890.0,5.0,0.0
11436,49.0,3.0,1890.0,5.0,0.0
11437,65.0,4.0,1890.0,1.0,0.0
11438,73.0,0.0,1890.0,1.0,0.0
11439,68.0,1879.0,1890.0,1.0,0.0
11440,61.0,2.0,1890.0,1.0,0.0
11441,56.0,0.0,1890.0,5.0,0.0
11442,37.0,0.0,1890.0,5.0,0.0
11443,44.0,15.0,1860.0,5.0,0.0
11444,49.0,15.0,1860.0,5.0,0.0
11445,68.0,4.0,1890.0,1.0,0.0
11446,73.0,1918.0,1890.0,1.0,0.0
11447,56.0,0.0,1890.0,5.0,0.0
11448,61.0,0.0,1890.0,1.0,0.0
11449,65.0,3.0,1860.0,1.0,0.0
11450,37.0,20.0,1920.0,5.0,0.0
11451,44.0,10.0,1920.0,5.0,0.0
11452,49.0,30.0,1920.0,5.0,0.0
11453,73.0,16.0,3810.0,1.0,0.0
11454,61.0,3.0,3780.0,1.0,0.0
11455,65.0,4.0,3810.0,1.0,0.0
11456,68.0,0.0,3810.0,1.0,0.0
11457,56.0,1855.0,1920.0,5.0,0.0
11458,35.0,1897.0,1890.0,5.0,0.0
11459,74.0,17.0,1890.0,1.0,0.0
11460,68.0,0.0,1890.0,1.0,0.0
11461,65.0,0.0,1890.0,1.0,0.0
11462,62.0,3.0,1860.0,1.0,0.0
11463,41.0,0.0,1890.0,5.0,0.0
11464,46.0,3.0,1890.0,5.0,0.0
11465,56.0,2.0,1890.0,5.0,0.0
11466,34.0,1891.0,15.0,5.0,0.0
11467,41.0,2862.0,1890.0,5.0,0.0
11468,65.0,0.0,1860.0,1.0,0.0
11469,68.0,7.0,1860.0,1.0,0.0
11470,62.0,0.0,1890.0,1.0,0.0
11471,74.0,17.0,1890.0,1.0,0.0
11472,46.0,3.0,1890.0,5.0,0.0
11473,56.0,0.0,1890.0,5.0,0.0
11474,41.0,10.0,2880.0,5.0,0.0
11475,46.0,10.0,2880.0,5.0,0.0
11476,56.0,0.0,2880.0,5.0,0.0
11477,68.0,0.0,2880.0,1.0,0.0
11478,65.0,0.0,2880.0,1.0,0.0
11479,62.0,915.0,2880.0,1.0,0.0
11480,74.0,0.0,2880.0,1.0,0.0
11481,74.0,4.0,450.0,1.0,0.0
11482,77.0,3.0,420.0,1.0,0.0
11483,82.0,230.0,450.0,1.0,0.0
11484,86.0,0.0,420.0,1.0,0.0
11485,46.0,0.0,420.0,5.0,0.0
11486,50.0,0.0,420.0,5.0,0.0
11487,53.0,0.0,450.0,5.0,0.0
11488,58.0,0.0,420.0,5.0,0.0
11489,39.0,232.0,240.0,5.0,0.0
11490,46.0,5.0,210.0,5.0,0.0
11491,82.0,0.0,1440.0,1.0,0.0
11492,51.0,3.0,180.0,5.0,0.0
11493,79.0,0.0,1440.0,1.0,0.0
11494,73.0,240.0,180.0,5.0,0.0
11495,61.0,0.0,180.0,5.0,0.0
11496,73.0,240.0,180.0,5.0,0.0
11497,61.0,0.0,180.0,5.0,0.0
11498,73.0,528.0,180.0,5.0,0.0
11499,61.0,0.0,180.0,5.0,0.0
11500,73.0,0.0,960.0,5.0,0.0
11501,61.0,0.0,960.0,5.0,0.0
11502,75.0,0.0,15.0,1.0,0.0
11503,87.0,480.0,15.0,1.0,0.0
11504,85.0,432.0,480.0,1.0,0.0
11505,75.0,0.0,15.0,1.0,0.0
11506,87.0,0.0,15.0,1.0,0.0
11507,83.0,480.0,960.0,1.0,0.0
11508,71.0,240.0,180.0,5.0,0.0
11509,59.0,0.0,180.0,5.0,0.0
11510,71.0,0.0,180.0,5.0,0.0
11511,59.0,240.0,180.0,5.0,0.0
11512,59.0,48.0,180.0,5.0,0.0
11513,71.0,0.0,180.0,5.0,0.0
11514,80.0,0.0,480.0,1.0,0.0
11515,68.0,0.0,480.0,5.0,0.0
11516,56.0,0.0,480.0,5.0,0.0
11517,75.0,0.0,15.0,1.0,0.0
11518,58.0,5.0,420.0,5.0,0.0
11519,70.0,0.0,420.0,5.0,0.0
11520,87.0,435.0,15.0,1.0,0.0
11521,82.0,0.0,420.0,1.0,0.0
11522,51.0,2.0,240.0,5.0,0.0
11523,55.0,0.0,210.0,5.0,0.0
11524,58.0,0.0,210.0,5.0,0.0
11525,82.0,480.0,1440.0,1.0,0.0
11526,79.0,0.0,1440.0,1.0,0.0
11527,75.0,0.0,1440.0,1.0,0.0
11528,87.0,0.0,1440.0,1.0,0.0
11529,63.0,240.0,180.0,5.0,0.0
11530,61.0,240.0,180.0,5.0,0.0
11531,73.0,0.0,180.0,5.0,0.0
11532,73.0,240.0,180.0,5.0,0.0
11533,61.0,0.0,180.0,5.0,0.0
11534,73.0,528.0,180.0,5.0,0.0
11535,61.0,0.0,180.0,5.0,0.0
11536,61.0,432.0,960.0,5.0,0.0
11537,73.0,0.0,960.0,5.0,0.0
11538,87.0,0.0,480.0,1.0,0.0
11539,85.0,0.0,480.0,1.0,0.0
11540,75.0,0.0,15.0,1.0,0.0
11541,83.0,480.0,960.0,1.0,0.0
11542,59.0,240.0,180.0,5.0,0.0
11543,71.0,0.0,180.0,5.0,0.0
11544,71.0,0.0,180.0,5.0,0.0
11545,59.0,240.0,180.0,5.0,0.0
11546,71.0,48.0,180.0,5.0,0.0
11547,59.0,0.0,180.0,5.0,0.0
11548,56.0,0.0,480.0,5.0,0.0
11549,80.0,480.0,480.0,1.0,0.0
11550,68.0,0.0,480.0,5.0,0.0
11551,70.0,0.0,480.0,5.0,0.0
11552,75.0,0.0,15.0,1.0,0.0
11553,87.0,0.0,15.0,1.0,0.0
11554,58.0,960.0,480.0,5.0,0.0
11555,87.0,0.0,15.0,1.0,0.0
11556,82.0,0.0,15.0,1.0,0.0
11557,75.0,0.0,960.0,1.0,0.0
11558,79.0,0.0,1920.0,1.0,0.0
11559,63.0,960.0,960.0,5.0,0.0
11560,51.0,0.0,1920.0,5.0,0.0
11561,55.0,960.0,1920.0,5.0,0.0
11562,58.0,0.0,1920.0,5.0,0.0
11563,74.0,0.0,960.0,1.0,0.0
11564,62.0,0.0,960.0,5.0,0.0
11565,56.0,0.0,1920.0,5.0,0.0
11566,73.0,960.0,960.0,1.0,0.0
11567,87.0,0.0,1920.0,1.0,0.0
11568,80.0,0.0,1920.0,1.0,0.0
11569,61.0,0.0,960.0,5.0,0.0
11570,51.0,0.0,1920.0,5.0,0.0
11571,71.0,960.0,960.0,1.0,0.0
11572,59.0,0.0,960.0,5.0,0.0
11573,75.0,0.0,1920.0,1.0,0.0
11574,67.0,0.0,1920.0,1.0,0.0
11575,70.0,0.0,1920.0,1.0,0.0
11576,51.0,0.0,960.0,5.0,0.0
11577,58.0,960.0,960.0,5.0,0.0
11578,55.0,0.0,960.0,5.0,0.0
11579,63.0,0.0,15.0,5.0,0.0
11580,62.0,0.0,960.0,5.0,0.0
11581,50.0,0.0,960.0,5.0,0.0
11582,63.0,0.0,1860.0,1.0,0.0
11583,68.0,0.0,1860.0,1.0,0.0
11584,75.0,0.0,1860.0,1.0,0.0
11585,61.0,0.0,960.0,5.0,0.0
11586,49.0,910.0,960.0,5.0,0.0
11587,56.0,5.0,1860.0,5.0,0.0
11588,47.0,0.0,900.0,5.0,0.0
11589,59.0,1920.0,900.0,5.0,0.0
11590,39.0,1910.0,1920.0,5.0,0.0
11591,46.0,0.0,1890.0,5.0,0.0
11592,51.0,0.0,1890.0,5.0,0.0
11593,63.0,5.0,1860.0,1.0,0.0
11594,67.0,0.0,1860.0,1.0,0.0
11595,75.0,0.0,1860.0,1.0,0.0
11596,58.0,0.0,1860.0,5.0,0.0
11597,46.0,5.0,1890.0,5.0,0.0
11598,51.0,0.0,1890.0,5.0,0.0
11599,63.0,5.0,1860.0,1.0,0.0
11600,67.0,0.0,1860.0,1.0,0.0
11601,75.0,0.0,1890.0,1.0,0.0
11602,58.0,0.0,1860.0,5.0,0.0
11603,39.0,1930.0,15.0,5.0,0.0
11604,46.0,0.0,1920.0,5.0,0.0
11605,51.0,15.0,1890.0,5.0,0.0
11606,58.0,1840.0,1920.0,5.0,0.0
11607,67.0,1892.0,3780.0,1.0,0.0
11608,75.0,5.0,3780.0,1.0,0.0
11609,37.0,45.0,1830.0,5.0,0.0
11610,36.0,5.0,1890.0,5.0,0.0
11611,43.0,23.0,1860.0,5.0,0.0
11612,48.0,5.0,1890.0,5.0,0.0
11613,58.0,52.0,3720.0,5.0,0.0
11614,64.0,0.0,1860.0,1.0,0.0
11615,76.0,1855.0,1890.0,1.0,0.0
11616,67.0,0.0,1860.0,1.0,0.0
11617,36.0,8.0,1920.0,5.0,0.0
11618,43.0,0.0,1890.0,5.0,0.0
11619,48.0,0.0,1890.0,5.0,0.0
11620,76.0,0.0,1860.0,1.0,0.0
11621,67.0,1925.0,1860.0,1.0,0.0
11622,64.0,0.0,1860.0,1.0,0.0
11623,36.0,30.0,1920.0,5.0,0.0
11624,43.0,5.0,1920.0,5.0,0.0
11625,48.0,5.0,1920.0,5.0,0.0
11626,64.0,0.0,3780.0,1.0,0.0
11627,76.0,0.0,3780.0,1.0,0.0
11628,58.0,1860.0,1920.0,5.0,0.0
11629,67.0,0.0,3780.0,1.0,0.0
11630,46.0,1920.0,1860.0,5.0,0.0
11631,53.0,50.0,1890.0,5.0,0.0
11632,65.0,0.0,1890.0,1.0,0.0
11633,72.0,0.0,1860.0,1.0,0.0
11634,63.0,1850.0,1920.0,5.0,0.0
11635,77.0,0.0,1860.0,1.0,0.0
11636,45.0,0.0,15.0,5.0,0.0
11637,53.0,5.0,1920.0,5.0,0.0
11638,65.0,5.0,1860.0,1.0,0.0
11639,72.0,0.0,1860.0,1.0,0.0
11640,63.0,1970.0,1890.0,5.0,0.0
11641,77.0,5.0,1860.0,1.0,0.0
11642,45.0,1807.0,1950.0,5.0,0.0
11643,65.0,8.0,3780.0,1.0,0.0
11644,53.0,37.0,3750.0,5.0,0.0
11645,63.0,8.0,3750.0,5.0,0.0
11646,72.0,7.0,3780.0,1.0,0.0
11647,77.0,1893.0,3780.0,1.0,0.0
11648,44.0,1815.0,7680.0,5.0,0.0
11649,51.0,12.0,1920.0,5.0,0.0
11650,56.0,40.0,1920.0,5.0,0.0
11651,66.0,0.0,1890.0,1.0,0.0
11652,72.0,13.0,1890.0,1.0,0.0
11653,63.0,1840.0,1920.0,5.0,0.0
11654,78.0,15.0,1860.0,1.0,0.0
11655,51.0,12.0,1920.0,5.0,0.0
11656,56.0,0.0,1890.0,5.0,0.0
11657,66.0,60.0,1890.0,1.0,0.0
11658,72.0,8.0,1860.0,1.0,0.0
11659,78.0,0.0,1860.0,1.0,0.0
11660,51.0,12.0,3840.0,5.0,0.0
11661,56.0,8.0,3810.0,5.0,0.0
11662,66.0,10.0,3840.0,1.0,0.0
11663,72.0,1930.0,3840.0,1.0,0.0
11664,78.0,40.0,3780.0,1.0,0.0
11665,63.0,1920.0,15.0,5.0,0.0
11666,43.0,900.0,3840.0,5.0,0.0
11667,55.0,20.0,2910.0,5.0,0.0
11668,60.0,0.0,2880.0,5.0,0.0
11669,62.0,10.0,2880.0,5.0,0.0
11670,67.0,0.0,2880.0,1.0,0.0
11671,74.0,10.0,2880.0,1.0,0.0
11672,79.0,2895.0,2880.0,1.0,0.0
11673,72.0,20.0,2850.0,1.0,0.0
11674,41.0,870.0,3840.0,5.0,0.0
11675,55.0,0.0,2910.0,5.0,0.0
11676,59.0,20.0,2880.0,5.0,0.0
11677,62.0,10.0,2880.0,5.0,0.0
11678,71.0,10.0,2880.0,1.0,0.0
11679,67.0,15.0,2820.0,5.0,0.0
11680,74.0,10.0,2880.0,1.0,0.0
11681,79.0,10.0,2880.0,1.0,0.0
11682,83.0,2865.0,2880.0,1.0,0.0
11683,40.0,900.0,3840.0,5.0,0.0
11684,55.0,30.0,2910.0,5.0,0.0
11685,62.0,15.0,2850.0,5.0,0.0
11686,67.0,10.0,2880.0,5.0,0.0
11687,74.0,10.0,2880.0,1.0,0.0
11688,79.0,10.0,2880.0,1.0,0.0
11689,86.0,2865.0,2880.0,1.0,0.0
11690,39.0,915.0,3840.0,5.0,0.0
11691,55.0,10.0,2910.0,5.0,0.0
11692,60.0,10.0,2880.0,5.0,0.0
11693,67.0,10.0,2880.0,5.0,0.0
11694,72.0,10.0,2880.0,5.0,0.0
11695,79.0,10.0,2880.0,1.0,0.0
11696,84.0,10.0,2880.0,1.0,0.0
11697,91.0,960.0,2880.0,1.0,0.0
11698,38.0,360.0,1920.0,5.0,0.0
11699,50.0,1080.0,360.0,5.0,0.0
11700,79.0,0.0,960.0,4.0,0.0
11701,96.0,0.0,960.0,1.0,0.0
11702,84.0,480.0,960.0,1.0,0.0
11703,69.0,0.0,960.0,5.0,0.0
11704,91.0,0.0,960.0,2.0,0.0
11705,81.0,0.0,480.0,1.0,0.0
11706,72.0,0.0,15.0,4.0,0.0
11707,78.0,0.0,480.0,4.0,0.0
11708,84.0,0.0,480.0,2.0,0.0
11709,69.0,480.0,480.0,5.0,0.0
11710,90.0,0.0,480.0,1.0,0.0
11711,78.0,0.0,480.0,1.0,0.0
11712,90.0,0.0,480.0,1.0,0.0
11713,84.0,960.0,480.0,2.0,0.0
11714,69.0,0.0,480.0,5.0,0.0
11715,74.0,0.0,480.0,4.0,0.0
11716,72.0,0.0,480.0,4.0,0.0
11717,60.0,0.0,960.0,5.0,0.0
11718,69.0,0.0,960.0,2.0,0.0
11719,62.0,0.0,960.0,1.0,0.0
11720,66.0,0.0,15.0,2.0,0.0
11721,62.0,0.0,480.0,1.0,0.0
11722,74.0,480.0,15.0,1.0,0.0
11723,69.0,0.0,480.0,2.0,0.0
11724,48.0,0.0,15.0,5.0,0.0
11725,36.0,0.0,480.0,5.0,0.0
11726,62.0,960.0,480.0,1.0,0.0
11727,74.0,0.0,480.0,1.0,0.0
11728,67.0,0.0,480.0,2.0,0.0
11729,35.0,0.0,480.0,5.0,0.0
11730,47.0,0.0,480.0,5.0,0.0
11731,74.0,0.0,960.0,4.0,0.0
11732,91.0,0.0,960.0,2.0,0.0
11733,98.0,0.0,960.0,1.0,0.0
11734,86.0,480.0,960.0,1.0,0.0
11735,79.0,0.0,960.0,4.0,0.0
11736,74.0,0.0,480.0,4.0,0.0
11737,77.0,0.0,480.0,1.0,0.0
11738,71.0,0.0,15.0,5.0,0.0
11739,79.0,0.0,480.0,2.0,0.0
11740,86.0,0.0,480.0,2.0,0.0
11741,89.0,0.0,480.0,1.0,0.0
11742,87.0,0.0,480.0,1.0,0.0
11743,79.0,0.0,480.0,2.0,0.0
11744,84.0,0.0,480.0,2.0,0.0
11745,72.0,960.0,480.0,5.0,0.0
11746,75.0,0.0,15.0,1.0,0.0
11747,67.0,0.0,960.0,2.0,0.0
11748,60.0,0.0,960.0,5.0,0.0
11749,48.0,480.0,960.0,5.0,0.0
11750,75.0,0.0,15.0,1.0,0.0
11751,63.0,0.0,15.0,1.0,0.0
11752,36.0,0.0,480.0,5.0,0.0
11753,48.0,480.0,480.0,5.0,0.0
11754,74.0,0.0,480.0,1.0,0.0
11755,67.0,0.0,15.0,2.0,0.0
11756,35.0,0.0,480.0,5.0,0.0
11757,47.0,0.0,480.0,5.0,0.0
11758,62.0,960.0,480.0,1.0,0.0
11759,91.0,0.0,960.0,2.0,0.0
11760,86.0,0.0,960.0,1.0,0.0
11761,98.0,0.0,960.0,1.0,0.0
11762,79.0,0.0,960.0,4.0,0.0
11763,71.0,0.0,960.0,5.0,0.0
11764,86.0,0.0,480.0,2.0,0.0
11765,74.0,480.0,15.0,4.0,0.0
11766,71.0,0.0,480.0,5.0,0.0
11767,77.0,0.0,480.0,1.0,0.0
11768,89.0,0.0,480.0,1.0,0.0
11769,79.0,480.0,15.0,2.0,0.0
11770,84.0,0.0,480.0,2.0,0.0
11771,72.0,0.0,480.0,5.0,0.0
11772,87.0,0.0,480.0,1.0,0.0
11773,67.0,0.0,960.0,2.0,0.0
11774,60.0,480.0,960.0,5.0,0.0
11775,75.0,960.0,15.0,1.0,0.0
11776,48.0,0.0,960.0,5.0,0.0
11777,67.0,0.0,480.0,2.0,0.0
11778,36.0,0.0,480.0,5.0,0.0
11779,63.0,0.0,15.0,1.0,0.0
11780,75.0,0.0,15.0,1.0,0.0
11781,48.0,480.0,480.0,5.0,0.0
11782,62.0,0.0,480.0,1.0,0.0
11783,47.0,960.0,480.0,5.0,0.0
11784,35.0,0.0,480.0,5.0,0.0
11785,74.0,0.0,480.0,1.0,0.0
11786,67.0,0.0,480.0,2.0,0.0
11787,60.0,0.0,960.0,5.0,0.0
11788,67.0,480.0,960.0,2.0,0.0
11789,63.0,0.0,15.0,1.0,0.0
11790,36.0,0.0,480.0,5.0,0.0
11791,48.0,0.0,15.0,5.0,0.0
11792,75.0,0.0,15.0,1.0,0.0
11793,47.0,0.0,480.0,5.0,0.0
11794,35.0,0.0,480.0,5.0,0.0
11795,74.0,0.0,480.0,1.0,0.0
11796,67.0,480.0,15.0,2.0,0.0
11797,62.0,960.0,480.0,1.0,0.0
11798,60.0,480.0,960.0,5.0,0.0
11799,72.0,0.0,960.0,2.0,0.0
11800,67.0,0.0,960.0,2.0,0.0
11801,63.0,0.0,15.0,1.0,0.0
11802,72.0,480.0,480.0,2.0,0.0
11803,67.0,0.0,480.0,2.0,0.0
11804,48.0,0.0,15.0,5.0,0.0
11805,75.0,0.0,15.0,1.0,0.0
11806,36.0,0.0,480.0,5.0,0.0
11807,62.0,960.0,480.0,1.0,0.0
11808,74.0,0.0,480.0,1.0,0.0
11809,71.0,0.0,480.0,2.0,0.0
11810,43.0,0.0,480.0,5.0,0.0
11811,67.0,0.0,480.0,2.0,0.0
11812,31.0,0.0,480.0,5.0,0.0
11813,86.0,0.0,960.0,2.0,0.0
11814,83.0,0.0,960.0,2.0,0.0
11815,91.0,0.0,960.0,1.0,0.0
11816,79.0,0.0,960.0,1.0,0.0
11817,67.0,0.0,960.0,5.0,0.0
11818,55.0,480.0,960.0,5.0,0.0
11819,59.0,0.0,15.0,4.0,0.0
11820,62.0,0.0,15.0,4.0,0.0
11821,67.0,0.0,480.0,5.0,0.0
11822,55.0,0.0,480.0,5.0,0.0
11823,83.0,0.0,480.0,2.0,0.0
11824,86.0,0.0,480.0,2.0,0.0
11825,48.0,0.0,960.0,5.0,0.0
11826,87.0,0.0,960.0,2.0,0.0
11827,84.0,0.0,960.0,2.0,0.0
11828,36.0,0.0,960.0,5.0,0.0
11829,79.0,480.0,15.0,1.0,0.0
11830,91.0,0.0,15.0,1.0,0.0
11831,55.0,240.0,15.0,3.0,0.0
11832,60.0,0.0,15.0,3.0,0.0
11833,60.0,0.0,240.0,3.0,0.0
11834,55.0,0.0,240.0,3.0,0.0
11835,84.0,0.0,480.0,1.0,0.0
11836,72.0,0.0,480.0,1.0,0.0
11837,60.0,0.0,240.0,3.0,0.0
11838,55.0,480.0,240.0,3.0,0.0
11839,86.0,0.0,480.0,1.0,0.0
11840,74.0,0.0,480.0,1.0,0.0
11841,60.0,480.0,240.0,3.0,0.0
11842,65.0,0.0,240.0,3.0,0.0
11843,56.0,0.0,240.0,3.0,0.0
11844,67.0,480.0,960.0,1.0,0.0
11845,79.0,0.0,960.0,1.0,0.0
11846,64.0,0.0,240.0,3.0,0.0
11847,58.0,0.0,240.0,3.0,0.0
11848,64.0,0.0,240.0,3.0,0.0
11849,58.0,0.0,240.0,3.0,0.0
11850,60.0,240.0,15.0,3.0,0.0
11851,64.0,0.0,240.0,3.0,0.0
11852,58.0,0.0,240.0,3.0,0.0
11853,60.0,240.0,15.0,3.0,0.0
11854,84.0,480.0,480.0,1.0,0.0
11855,72.0,0.0,480.0,1.0,0.0
11856,60.0,0.0,240.0,3.0,0.0
11857,65.0,0.0,240.0,3.0,0.0
11858,56.0,0.0,240.0,3.0,0.0
11859,72.0,480.0,480.0,1.0,0.0
11860,84.0,0.0,480.0,1.0,0.0
11861,60.0,0.0,240.0,3.0,0.0
11862,56.0,0.0,240.0,3.0,0.0
11863,65.0,0.0,240.0,3.0,0.0
11864,71.0,0.0,480.0,1.0,0.0
11865,83.0,0.0,480.0,1.0,0.0
11866,55.0,0.0,240.0,3.0,0.0
11867,68.0,0.0,240.0,3.0,0.0
11868,65.0,480.0,240.0,3.0,0.0
11869,84.0,480.0,480.0,1.0,0.0
11870,72.0,0.0,480.0,1.0,0.0
11871,55.0,0.0,240.0,3.0,0.0
11872,63.0,0.0,240.0,3.0,0.0
11873,67.0,0.0,240.0,3.0,0.0
11874,74.0,0.0,480.0,1.0,0.0
11875,86.0,480.0,480.0,1.0,0.0
11876,55.0,0.0,240.0,3.0,0.0
11877,65.0,0.0,240.0,3.0,0.0
11878,62.0,0.0,240.0,3.0,0.0
11879,75.0,480.0,480.0,1.0,0.0
11880,87.0,0.0,480.0,1.0,0.0
11881,55.0,0.0,240.0,3.0,0.0
11882,60.0,0.0,240.0,3.0,0.0
11883,89.0,480.0,960.0,1.0,0.0
11884,77.0,0.0,960.0,1.0,0.0
11885,55.0,240.0,240.0,3.0,0.0
11886,59.0,0.0,240.0,3.0,0.0
11887,62.0,0.0,15.0,3.0,0.0
11888,56.0,0.0,240.0,3.0,0.0
11889,62.0,240.0,15.0,3.0,0.0
11890,55.0,0.0,240.0,3.0,0.0
11891,59.0,0.0,15.0,3.0,0.0
11892,88.0,0.0,480.0,1.0,0.0
11893,76.0,0.0,480.0,1.0,0.0
11894,48.0,0.0,240.0,3.0,0.0
11895,58.0,240.0,240.0,3.0,0.0
11896,55.0,0.0,240.0,3.0,0.0
11897,58.0,0.0,240.0,3.0,0.0
11898,55.0,240.0,240.0,3.0,0.0
11899,49.0,0.0,240.0,3.0,0.0
11900,58.0,0.0,240.0,3.0,0.0
11901,55.0,0.0,240.0,3.0,0.0
11902,48.0,0.0,240.0,3.0,0.0
11903,96.0,480.0,15.0,1.0,0.0
11904,41.0,0.0,960.0,5.0,0.0
11905,84.0,0.0,15.0,1.0,0.0
11906,53.0,0.0,960.0,5.0,0.0
11907,69.0,240.0,240.0,3.0,0.0
11908,65.0,0.0,15.0,3.0,0.0
11909,60.0,0.0,15.0,3.0,0.0
11910,69.0,0.0,240.0,3.0,0.0
11911,60.0,240.0,15.0,3.0,0.0
11912,69.0,0.0,240.0,3.0,0.0
11913,65.0,0.0,240.0,3.0,0.0
11914,77.0,0.0,480.0,1.0,0.0
11915,89.0,0.0,480.0,1.0,0.0
11916,65.0,0.0,240.0,3.0,0.0
11917,60.0,0.0,240.0,3.0,0.0
11918,69.0,471.0,240.0,3.0,0.0
11919,90.0,0.0,480.0,1.0,0.0
11920,78.0,0.0,480.0,1.0,0.0
11921,65.0,0.0,240.0,3.0,0.0
11922,61.0,9.0,240.0,3.0,0.0
11923,70.0,480.0,240.0,3.0,0.0
11924,72.0,480.0,960.0,1.0,0.0
11925,84.0,0.0,960.0,1.0,0.0
11926,66.0,0.0,240.0,3.0,0.0
11927,63.0,0.0,240.0,3.0,0.0
11928,69.0,240.0,240.0,3.0,0.0
11929,63.0,0.0,240.0,3.0,0.0
11930,69.0,240.0,15.0,3.0,0.0
11931,66.0,0.0,15.0,3.0,0.0
11932,63.0,0.0,240.0,3.0,0.0
11933,77.0,0.0,480.0,1.0,0.0
11934,89.0,480.0,480.0,1.0,0.0
11935,70.0,0.0,240.0,3.0,0.0
11936,65.0,0.0,240.0,3.0,0.0
11937,62.0,0.0,240.0,3.0,0.0
11938,77.0,0.0,480.0,1.0,0.0
11939,70.0,0.0,240.0,3.0,0.0
11940,65.0,0.0,240.0,3.0,0.0
11941,61.0,480.0,240.0,3.0,0.0
11942,76.0,0.0,480.0,1.0,0.0
11943,60.0,480.0,960.0,5.0,0.0
11944,67.0,0.0,240.0,3.0,0.0
11945,70.0,480.0,240.0,3.0,0.0
11946,77.0,0.0,480.0,1.0,0.0
11947,68.0,0.0,240.0,3.0,0.0
11948,72.0,0.0,240.0,3.0,0.0
11949,79.0,0.0,480.0,1.0,0.0
11950,52.0,0.0,480.0,5.0,0.0
11951,72.0,480.0,240.0,3.0,0.0
11952,70.0,0.0,240.0,3.0,0.0
11953,80.0,480.0,480.0,1.0,0.0
11954,53.0,0.0,480.0,5.0,0.0
11955,68.0,0.0,240.0,3.0,0.0
11956,72.0,0.0,240.0,3.0,0.0
11957,84.0,0.0,480.0,1.0,0.0
11958,48.0,0.0,960.0,5.0,0.0
11959,72.0,480.0,240.0,3.0,0.0
11960,76.0,0.0,240.0,3.0,0.0
11961,82.0,0.0,480.0,1.0,0.0
11962,76.0,480.0,240.0,3.0,0.0
11963,72.0,0.0,240.0,3.0,0.0
11964,76.0,0.0,240.0,3.0,0.0
11965,72.0,0.0,240.0,3.0,0.0
11966,79.0,480.0,15.0,1.0,0.0
11967,61.0,480.0,480.0,5.0,0.0
11968,70.0,0.0,240.0,3.0,0.0
11969,76.0,0.0,240.0,3.0,0.0
11970,62.0,0.0,960.0,5.0,0.0
11971,78.0,0.0,480.0,1.0,0.0
11972,72.0,480.0,240.0,3.0,0.0
11973,69.0,0.0,240.0,3.0,0.0
11974,79.0,480.0,480.0,1.0,0.0
11975,70.0,0.0,240.0,3.0,0.0
11976,74.0,0.0,240.0,3.0,0.0
11977,54.0,480.0,480.0,5.0,0.0
11978,81.0,0.0,480.0,1.0,0.0
11979,74.0,0.0,240.0,3.0,0.0
11980,72.0,0.0,240.0,3.0,0.0
11981,82.0,480.0,480.0,1.0,0.0
11982,55.0,0.0,480.0,5.0,0.0
11983,70.0,0.0,240.0,3.0,0.0
11984,74.0,0.0,240.0,3.0,0.0
11985,50.0,0.0,960.0,5.0,0.0
11986,86.0,480.0,480.0,1.0,0.0
11987,74.0,0.0,240.0,3.0,0.0
11988,78.0,0.0,240.0,3.0,0.0
11989,84.0,480.0,480.0,1.0,0.0
11990,78.0,0.0,240.0,3.0,0.0
11991,74.0,0.0,240.0,3.0,0.0
11992,81.0,0.0,480.0,1.0,0.0
11993,74.0,480.0,240.0,3.0,0.0
11994,78.0,0.0,240.0,3.0,0.0
11995,63.0,480.0,480.0,5.0,0.0
11996,81.0,0.0,480.0,1.0,0.0
11997,72.0,0.0,240.0,3.0,0.0
11998,78.0,0.0,240.0,3.0,0.0
11999,80.0,0.0,480.0,1.0,0.0
12000,64.0,0.0,960.0,5.0,0.0
12001,76.0,0.0,240.0,3.0,0.0
12002,71.0,480.0,240.0,3.0,0.0
12003,81.0,0.0,480.0,1.0,0.0
12004,76.0,0.0,240.0,3.0,0.0
12005,72.0,480.0,240.0,3.0,0.0
12006,83.0,0.0,480.0,1.0,0.0
12007,56.0,0.0,480.0,5.0,0.0
12008,76.0,480.0,240.0,3.0,0.0
12009,74.0,0.0,240.0,3.0,0.0
12010,84.0,0.0,480.0,1.0,0.0
12011,57.0,480.0,480.0,5.0,0.0
12012,72.0,0.0,240.0,3.0,0.0
12013,76.0,0.0,240.0,3.0,0.0
12014,52.0,0.0,960.0,5.0,0.0
12015,83.0,480.0,480.0,1.0,0.0
12016,64.0,0.0,960.0,5.0,0.0
12017,80.0,0.0,240.0,3.0,0.0
12018,74.0,0.0,240.0,3.0,0.0
12019,84.0,480.0,480.0,1.0,0.0
12020,81.0,0.0,240.0,3.0,0.0
12021,72.0,0.0,240.0,3.0,0.0
12022,86.0,0.0,480.0,1.0,0.0
12023,59.0,480.0,480.0,5.0,0.0
12024,47.0,0.0,480.0,5.0,0.0
12025,77.0,0.0,240.0,3.0,0.0
12026,80.0,0.0,240.0,3.0,0.0
12027,60.0,480.0,480.0,5.0,0.0
12028,48.0,0.0,480.0,5.0,0.0
12029,88.0,0.0,480.0,1.0,0.0
12030,81.0,0.0,240.0,3.0,0.0
12031,76.0,0.0,240.0,3.0,0.0
12032,89.0,0.0,480.0,1.0,0.0
12033,52.0,0.0,480.0,5.0,0.0
12034,40.0,0.0,480.0,5.0,0.0
12035,80.0,0.0,240.0,3.0,0.0
12036,76.0,480.0,240.0,3.0,0.0
12037,64.0,0.0,960.0,4.0,0.0
12038,88.0,0.0,480.0,1.0,0.0
12039,56.0,0.0,960.0,5.0,0.0
12040,76.0,0.0,240.0,3.0,0.0
12041,80.0,480.0,240.0,3.0,0.0
12042,83.0,0.0,480.0,1.0,0.0
12043,80.0,0.0,240.0,3.0,0.0
12044,76.0,0.0,240.0,3.0,0.0
12045,56.0,0.0,480.0,5.0,0.0
12046,59.0,480.0,15.0,4.0,0.0
12047,64.0,0.0,480.0,4.0,0.0
12048,88.0,0.0,480.0,1.0,0.0
12049,76.0,0.0,240.0,3.0,0.0
12050,80.0,0.0,240.0,3.0,0.0
12051,38.0,0.0,480.0,5.0,0.0
12052,91.0,0.0,480.0,1.0,0.0
12053,50.0,480.0,480.0,5.0,0.0
12054,79.0,0.0,240.0,3.0,0.0
12055,83.0,0.0,240.0,3.0,0.0
12056,55.0,0.0,960.0,5.0,0.0
12057,89.0,0.0,480.0,1.0,0.0
12058,83.0,0.0,240.0,3.0,0.0
12059,79.0,480.0,240.0,3.0,0.0
12060,86.0,480.0,480.0,1.0,0.0
12061,79.0,0.0,240.0,3.0,0.0
12062,83.0,0.0,240.0,3.0,0.0
12063,65.0,0.0,15.0,4.0,0.0
12064,59.0,0.0,15.0,4.0,0.0
12065,55.0,0.0,480.0,5.0,0.0
12066,89.0,0.0,480.0,1.0,0.0
12067,79.0,0.0,240.0,3.0,0.0
12068,83.0,240.0,240.0,3.0,0.0
12069,31.0,240.0,480.0,5.0,0.0
12070,95.0,0.0,240.0,1.0,0.0
12071,43.0,0.0,480.0,5.0,0.0
12072,89.0,0.0,240.0,2.0,0.0
12073,86.0,0.0,240.0,2.0,0.0
12074,83.0,192.0,240.0,2.0,0.0
12075,91.0,48.0,180.0,1.0,0.0
12076,80.0,240.0,960.0,5.0,0.0
12077,84.0,240.0,240.0,2.0,0.0
12078,77.0,0.0,240.0,2.0,0.0
12079,89.0,0.0,240.0,1.0,0.0
12080,72.0,0.0,960.0,4.0,0.0
12081,74.0,0.0,960.0,4.0,0.0
12082,86.0,240.0,240.0,1.0,0.0
12083,84.0,240.0,240.0,1.0,0.0
12084,80.0,0.0,240.0,1.0,0.0
12085,68.0,0.0,15.0,5.0,0.0
12086,77.0,120.0,240.0,1.0,0.0
12087,56.0,0.0,360.0,5.0,0.0
12088,72.0,240.0,240.0,1.0,0.0
12089,55.0,0.0,360.0,5.0,0.0
12090,67.0,72.0,360.0,5.0,0.0
12091,83.0,0.0,240.0,1.0,0.0
12092,71.0,120.0,240.0,2.0,0.0
12093,74.0,0.0,240.0,2.0,0.0
12094,79.0,288.0,180.0,1.0,0.0
12095,68.0,0.0,960.0,5.0,0.0
12096,56.0,0.0,960.0,5.0,0.0
12097,60.0,240.0,960.0,4.0,0.0
12098,62.0,0.0,960.0,4.0,0.0
12099,77.0,240.0,240.0,1.0,0.0
12100,65.0,0.0,240.0,2.0,0.0
12101,74.0,0.0,240.0,2.0,0.0
12102,74.0,240.0,240.0,1.0,0.0
12103,72.0,240.0,240.0,1.0,0.0
12104,68.0,0.0,240.0,1.0,0.0
12105,65.0,120.0,240.0,1.0,0.0
12106,56.0,0.0,360.0,5.0,0.0
12107,44.0,120.0,360.0,5.0,0.0
12108,60.0,240.0,240.0,1.0,0.0
12109,43.0,0.0,360.0,5.0,0.0
12110,71.0,120.0,240.0,1.0,0.0
12111,55.0,72.0,360.0,5.0,0.0
12112,59.0,0.0,240.0,2.0,0.0
12113,62.0,0.0,240.0,2.0,0.0
12114,67.0,288.0,180.0,1.0,0.0
12115,56.0,15.0,720.0,5.0,0.0
12116,60.0,0.0,240.0,2.0,0.0
12117,50.0,0.0,960.0,4.0,0.0
12118,48.0,0.0,960.0,4.0,0.0
12119,53.0,240.0,240.0,2.0,0.0
12120,65.0,0.0,240.0,1.0,0.0
12121,62.0,225.0,240.0,1.0,0.0
12122,60.0,240.0,240.0,1.0,0.0
12123,56.0,0.0,240.0,1.0,0.0
12124,53.0,120.0,240.0,1.0,0.0
12125,44.0,240.0,15.0,5.0,0.0
12126,32.0,120.0,360.0,5.0,0.0
12127,48.0,360.0,240.0,1.0,0.0
12128,47.0,408.0,360.0,2.0,0.0
12129,43.0,0.0,360.0,5.0,0.0
12130,31.0,0.0,360.0,5.0,0.0
12131,55.0,0.0,360.0,1.0,0.0
12132,31.0,1032.0,300.0,5.0,0.0
12133,55.0,600.0,360.0,5.0,0.0
12134,55.0,360.0,480.0,5.0,0.0
12135,67.0,516.0,360.0,5.0,0.0
12136,62.0,104.0,150.0,5.0,0.0
12137,65.0,136.0,60.0,5.0,0.0
12138,64.0,240.0,150.0,5.0,0.0
12139,62.0,324.0,150.0,5.0,0.0
12140,76.0,156.0,240.0,1.0,0.0
12141,60.0,156.0,480.0,5.0,0.0
12142,88.0,84.0,150.0,1.0,0.0
12143,86.0,204.0,150.0,1.0,0.0
12144,55.0,36.0,360.0,5.0,0.0
12145,84.0,240.0,150.0,1.0,0.0
12146,83.0,240.0,150.0,1.0,0.0
12147,81.0,240.0,150.0,1.0,0.0
12148,79.0,240.0,150.0,1.0,0.0
12149,55.0,240.0,960.0,5.0,0.0
12150,76.0,324.0,150.0,1.0,0.0
12151,73.0,192.0,240.0,1.0,0.0
12152,71.0,0.0,240.0,2.0,0.0
12153,74.0,48.0,180.0,1.0,0.0
12154,67.0,72.0,360.0,5.0,0.0
12155,81.0,0.0,240.0,1.0,0.0
12156,71.0,0.0,240.0,2.0,0.0
12157,74.0,120.0,240.0,2.0,0.0
12158,79.0,288.0,180.0,1.0,0.0
12159,71.0,0.0,240.0,2.0,0.0
12160,74.0,0.0,240.0,2.0,0.0
12161,78.0,156.0,240.0,1.0,0.0
12162,79.0,68.0,180.0,1.0,0.0
12163,62.0,36.0,150.0,5.0,0.0
12164,65.0,136.0,60.0,5.0,0.0
12165,64.0,84.0,150.0,5.0,0.0
12166,77.0,0.0,240.0,2.0,0.0
12167,74.0,0.0,240.0,2.0,0.0
12168,84.0,156.0,240.0,1.0,0.0
12169,83.0,288.0,180.0,1.0,0.0
12170,62.0,36.0,150.0,5.0,0.0
12171,84.0,156.0,240.0,1.0,0.0
12172,60.0,156.0,480.0,5.0,0.0
12173,76.0,0.0,240.0,2.0,0.0
12174,91.0,84.0,150.0,1.0,0.0
12175,55.0,156.0,480.0,5.0,0.0
12176,89.0,240.0,150.0,1.0,0.0
12177,88.0,84.0,150.0,1.0,0.0
12178,86.0,240.0,150.0,1.0,0.0
12179,84.0,240.0,150.0,1.0,0.0
12180,82.0,240.0,150.0,1.0,0.0
12181,60.0,240.0,960.0,5.0,0.0
12182,80.0,324.0,150.0,1.0,0.0
12183,78.0,192.0,240.0,1.0,0.0
12184,76.0,0.0,240.0,2.0,0.0
12185,79.0,48.0,180.0,1.0,0.0
12186,72.0,72.0,360.0,5.0,0.0
12187,85.0,0.0,240.0,1.0,0.0
12188,76.0,120.0,240.0,2.0,0.0
12189,79.0,0.0,240.0,2.0,0.0
12190,84.0,288.0,180.0,1.0,0.0
12191,76.0,0.0,240.0,2.0,0.0
12192,79.0,0.0,240.0,2.0,0.0
12193,83.0,156.0,240.0,1.0,0.0
12194,67.0,36.0,150.0,5.0,0.0
12195,84.0,68.0,180.0,1.0,0.0
12196,70.0,136.0,60.0,5.0,0.0
12197,79.0,0.0,240.0,2.0,0.0
12198,82.0,0.0,240.0,2.0,0.0
12199,68.0,84.0,150.0,5.0,0.0
12200,89.0,156.0,240.0,1.0,0.0
12201,67.0,36.0,150.0,5.0,0.0
12202,88.0,288.0,180.0,1.0,0.0
12203,80.0,0.0,360.0,1.0,0.0
12204,92.0,72.0,360.0,1.0,0.0
12205,67.0,120.0,240.0,5.0,0.0
12206,84.0,0.0,360.0,2.0,0.0
12207,65.0,288.0,180.0,5.0,0.0
12208,65.0,120.0,240.0,5.0,0.0
12209,91.0,72.0,360.0,1.0,0.0
12210,79.0,0.0,360.0,1.0,0.0
12211,84.0,0.0,360.0,2.0,0.0
12212,63.0,288.0,180.0,5.0,0.0
12213,83.0,0.0,360.0,1.0,0.0
12214,71.0,0.0,360.0,1.0,0.0
12215,63.0,120.0,240.0,5.0,0.0
12216,77.0,72.0,360.0,2.0,0.0
12217,62.0,288.0,180.0,5.0,0.0
12218,72.0,0.0,360.0,1.0,0.0
12219,62.0,120.0,240.0,5.0,0.0
12220,84.0,0.0,360.0,1.0,0.0
12221,75.0,72.0,360.0,2.0,0.0
12222,60.0,288.0,180.0,5.0,0.0
12223,79.0,0.0,360.0,2.0,0.0
12224,74.0,72.0,360.0,1.0,0.0
12225,86.0,0.0,360.0,1.0,0.0
12226,60.0,120.0,240.0,5.0,0.0
12227,58.0,288.0,180.0,5.0,0.0
12228,58.0,120.0,240.0,5.0,0.0
12229,84.0,72.0,360.0,2.0,0.0
12230,87.0,0.0,360.0,1.0,0.0
12231,75.0,0.0,360.0,1.0,0.0
12232,56.0,288.0,180.0,5.0,0.0
12233,82.0,0.0,360.0,2.0,0.0
12234,56.0,120.0,240.0,5.0,0.0
12235,88.0,0.0,360.0,1.0,0.0
12236,76.0,72.0,360.0,1.0,0.0
12237,55.0,288.0,180.0,5.0,0.0
12238,55.0,120.0,240.0,5.0,0.0
12239,77.0,0.0,360.0,1.0,0.0
12240,89.0,0.0,360.0,1.0,0.0
12241,80.0,72.0,360.0,2.0,0.0
12242,53.0,288.0,180.0,5.0,0.0
12243,91.0,0.0,480.0,1.0,0.0
12244,79.0,720.0,480.0,1.0,0.0
12245,84.0,0.0,480.0,2.0,0.0
12246,53.0,192.0,240.0,5.0,0.0
12247,51.0,48.0,180.0,5.0,0.0
12248,91.0,0.0,480.0,1.0,0.0
12249,87.0,0.0,480.0,2.0,0.0
12250,50.0,192.0,240.0,5.0,0.0
12251,79.0,720.0,480.0,1.0,0.0
12252,48.0,48.0,180.0,5.0,0.0
12253,83.0,0.0,360.0,2.0,0.0
12254,91.0,860.0,360.0,1.0,0.0
12255,79.0,0.0,360.0,1.0,0.0
12256,43.0,120.0,240.0,5.0,0.0
12257,86.0,0.0,360.0,2.0,0.0
12258,55.0,100.0,990.0,5.0,0.0
12259,83.0,0.0,360.0,1.0,0.0
12260,95.0,600.0,360.0,1.0,0.0
12261,86.0,0.0,360.0,2.0,0.0
12262,91.0,0.0,360.0,2.0,0.0
12263,67.0,240.0,720.0,5.0,0.0
12264,91.0,0.0,240.0,1.0,0.0
12265,86.0,120.0,240.0,2.0,0.0
12266,83.0,0.0,240.0,2.0,0.0
12267,79.0,0.0,360.0,5.0,0.0
12268,71.0,0.0,360.0,5.0,0.0
12269,74.0,36.0,360.0,5.0,0.0
12270,89.0,240.0,150.0,1.0,0.0
12271,86.0,240.0,150.0,1.0,0.0
12272,83.0,240.0,150.0,1.0,0.0
12273,79.0,240.0,150.0,1.0,0.0
12274,74.0,104.0,150.0,1.0,0.0
12275,77.0,136.0,60.0,1.0,0.0
12276,75.0,240.0,150.0,1.0,0.0
12277,74.0,324.0,150.0,1.0,0.0
12278,60.0,240.0,240.0,5.0,0.0
12279,72.0,0.0,480.0,1.0,0.0
12280,63.0,156.0,240.0,5.0,0.0
12281,62.0,204.0,150.0,5.0,0.0
12282,67.0,36.0,360.0,1.0,0.0
12283,60.0,240.0,150.0,5.0,0.0
12284,58.0,240.0,150.0,5.0,0.0
12285,56.0,240.0,150.0,5.0,0.0
12286,67.0,0.0,960.0,1.0,0.0
12287,55.0,240.0,150.0,5.0,0.0
12288,53.0,324.0,150.0,5.0,0.0
12289,49.0,240.0,240.0,5.0,0.0
12290,50.0,240.0,240.0,5.0,0.0
12291,59.0,120.0,240.0,5.0,0.0
12292,79.0,120.0,360.0,1.0,0.0
12293,55.0,240.0,240.0,5.0,0.0
12294,55.0,156.0,240.0,5.0,0.0
12295,56.0,20.0,240.0,5.0,0.0
12296,74.0,84.0,150.0,1.0,0.0
12297,77.0,136.0,60.0,1.0,0.0
12298,65.0,156.0,240.0,5.0,0.0
12299,76.0,84.0,150.0,1.0,0.0
12300,74.0,84.0,150.0,1.0,0.0
12301,59.0,240.0,240.0,5.0,0.0
12302,73.0,360.0,480.0,1.0,0.0
12303,57.0,156.0,240.0,5.0,0.0
12304,70.0,84.0,150.0,5.0,0.0
12305,69.0,36.0,360.0,1.0,0.0
12306,67.0,240.0,150.0,5.0,0.0
12307,65.0,240.0,150.0,5.0,0.0
12308,64.0,240.0,150.0,5.0,0.0
12309,69.0,240.0,960.0,1.0,0.0
12310,62.0,324.0,150.0,5.0,0.0
12311,61.0,240.0,240.0,5.0,0.0
12312,56.0,240.0,240.0,5.0,0.0
12313,57.0,0.0,240.0,5.0,0.0
12314,81.0,120.0,360.0,1.0,0.0
12315,64.0,120.0,240.0,5.0,0.0
12316,61.0,240.0,240.0,5.0,0.0
12317,56.0,156.0,240.0,5.0,0.0
12318,76.0,84.0,150.0,1.0,0.0
12319,57.0,20.0,240.0,5.0,0.0
12320,79.0,136.0,60.0,1.0,0.0
12321,77.0,84.0,150.0,1.0,0.0
12322,67.0,156.0,240.0,5.0,0.0
12323,76.0,84.0,150.0,1.0,0.0
12324,61.0,240.0,240.0,5.0,0.0
12325,75.0,240.0,480.0,1.0,0.0
12326,56.0,240.0,240.0,5.0,0.0
12327,57.0,0.0,240.0,5.0,0.0
12328,65.0,120.0,240.0,5.0,0.0
12329,87.0,120.0,360.0,1.0,0.0
12330,60.0,240.0,240.0,5.0,0.0
12331,54.0,156.0,240.0,5.0,0.0
12332,58.0,20.0,240.0,5.0,0.0
12333,82.0,84.0,150.0,1.0,0.0
12334,85.0,136.0,60.0,1.0,0.0
12335,84.0,84.0,150.0,1.0,0.0
12336,63.0,156.0,240.0,5.0,0.0
12337,82.0,59.0,150.0,1.0,0.0
12338,54.0,225.0,210.0,5.0,0.0
12339,53.0,20.0,240.0,5.0,0.0
12340,57.0,20.0,240.0,5.0,0.0
12341,81.0,156.0,240.0,1.0,0.0
12342,60.0,0.0,240.0,5.0,0.0
12343,66.0,0.0,150.0,5.0,0.0
12344,78.0,240.0,150.0,2.0,0.0
12345,90.0,0.0,150.0,1.0,0.0
12346,89.0,240.0,150.0,1.0,0.0
12347,77.0,0.0,150.0,2.0,0.0
12348,65.0,0.0,150.0,5.0,0.0
12349,75.0,0.0,150.0,2.0,0.0
12350,63.0,0.0,150.0,5.0,0.0
12351,87.0,240.0,150.0,1.0,0.0
12352,85.0,0.0,150.0,1.0,0.0
12353,73.0,240.0,150.0,2.0,0.0
12354,61.0,0.0,150.0,5.0,0.0
12355,60.0,240.0,150.0,5.0,0.0
12356,84.0,0.0,150.0,1.0,0.0
12357,72.0,0.0,150.0,2.0,0.0
12358,70.0,0.0,150.0,2.0,0.0
12359,82.0,0.0,150.0,1.0,0.0
12360,58.0,240.0,150.0,5.0,0.0
12361,69.0,240.0,150.0,2.0,0.0
12362,57.0,0.0,150.0,5.0,0.0
12363,81.0,0.0,150.0,1.0,0.0
12364,54.0,0.0,150.0,5.0,0.0
12365,66.0,240.0,150.0,2.0,0.0
12366,78.0,0.0,150.0,1.0,0.0
12367,77.0,240.0,150.0,1.0,0.0
12368,65.0,0.0,150.0,2.0,0.0
12369,53.0,0.0,150.0,5.0,0.0
12370,63.0,240.0,150.0,2.0,0.0
12371,51.0,0.0,150.0,5.0,0.0
12372,75.0,0.0,150.0,1.0,0.0
12373,49.0,0.0,150.0,5.0,0.0
12374,61.0,0.0,150.0,2.0,0.0
12375,73.0,240.0,150.0,1.0,0.0
12376,48.0,0.0,150.0,5.0,0.0
12377,60.0,0.0,150.0,5.0,0.0
12378,72.0,240.0,150.0,1.0,0.0
12379,46.0,240.0,150.0,5.0,0.0
12380,58.0,0.0,150.0,5.0,0.0
12381,70.0,0.0,150.0,1.0,0.0
12382,68.0,0.0,150.0,1.0,0.0
12383,56.0,240.0,150.0,5.0,0.0
12384,44.0,0.0,150.0,5.0,0.0
12385,42.0,0.0,150.0,5.0,0.0
12386,66.0,0.0,150.0,1.0,0.0
12387,54.0,564.0,150.0,5.0,0.0
12388,53.0,0.0,960.0,5.0,0.0
12389,41.0,420.0,960.0,5.0,0.0
12390,65.0,480.0,480.0,1.0,0.0
12391,34.0,0.0,420.0,5.0,0.0
12392,46.0,480.0,420.0,5.0,0.0
12393,36.0,1015.0,420.0,5.0,0.0
12394,48.0,5.0,420.0,5.0,0.0
12395,29.0,0.0,1920.0,5.0,0.0
12396,58.0,0.0,960.0,2.0,0.0
12397,66.0,0.0,960.0,1.0,0.0
12398,54.0,420.0,960.0,1.0,0.0
12399,41.0,0.0,1920.0,5.0,0.0
12400,61.0,480.0,420.0,1.0,0.0
12401,58.0,960.0,960.0,2.0,0.0
12402,53.0,0.0,420.0,1.0,0.0
12403,63.0,53.0,420.0,1.0,0.0
12404,54.0,7.0,420.0,1.0,0.0
12405,60.0,0.0,960.0,5.0,0.0
12406,72.0,0.0,960.0,1.0,0.0
12407,84.0,0.0,960.0,1.0,0.0
12408,51.0,480.0,960.0,5.0,0.0
12409,78.0,0.0,960.0,2.0,0.0
12410,58.0,0.0,960.0,4.0,0.0
12411,80.0,5.0,480.0,1.0,0.0
12412,68.0,415.0,480.0,1.0,0.0
12413,41.0,0.0,960.0,5.0,0.0
12414,29.0,960.0,960.0,5.0,0.0
12415,81.0,60.0,420.0,1.0,0.0
12416,69.0,0.0,420.0,1.0,0.0
12417,87.0,480.0,960.0,1.0,0.0
12418,75.0,0.0,960.0,1.0,0.0
12419,66.0,0.0,960.0,5.0,0.0
12420,78.0,0.0,960.0,5.0,0.0
12421,41.0,0.0,1920.0,5.0,0.0
12422,90.0,0.0,960.0,1.0,0.0
12423,78.0,0.0,960.0,1.0,0.0
12424,62.0,412.0,480.0,5.0,0.0
12425,74.0,0.0,480.0,5.0,0.0
12426,84.0,0.0,15.0,2.0,0.0
12427,75.0,55.0,420.0,5.0,0.0
12428,63.0,13.0,420.0,5.0,0.0
12429,59.0,0.0,480.0,5.0,0.0
12430,71.0,420.0,480.0,5.0,0.0
12431,93.0,0.0,960.0,1.0,0.0
12432,81.0,0.0,960.0,1.0,0.0
12433,87.0,480.0,960.0,2.0,0.0
12434,60.0,55.0,420.0,5.0,0.0
12435,72.0,5.0,420.0,5.0,0.0
12436,90.0,0.0,900.0,2.0,0.0
12437,96.0,5.0,900.0,1.0,0.0
12438,84.0,300.0,900.0,1.0,0.0
12439,56.0,410.0,480.0,5.0,0.0
12440,68.0,0.0,480.0,5.0,0.0
12441,57.0,0.0,420.0,5.0,0.0
12442,69.0,5.0,420.0,5.0,0.0
12443,41.0,10.0,270.0,5.0,0.0
12444,45.0,5.0,270.0,5.0,0.0
12445,48.0,1.0,270.0,5.0,0.0
12446,103.0,0.0,480.0,1.0,0.0
12447,96.0,96.0,480.0,2.0,0.0
12448,99.0,0.0,480.0,2.0,0.0
12449,91.0,0.0,480.0,1.0,0.0
12450,53.0,224.0,270.0,5.0,0.0
12451,71.0,0.0,270.0,5.0,0.0
12452,83.0,320.0,270.0,5.0,0.0
12453,72.0,0.0,270.0,5.0,0.0
12454,84.0,544.0,270.0,5.0,0.0
12455,99.0,96.0,480.0,1.0,0.0
12456,87.0,0.0,480.0,1.0,0.0
12457,80.0,0.0,270.0,5.0,0.0
12458,68.0,320.0,270.0,5.0,0.0
12459,69.0,0.0,270.0,5.0,0.0
12460,81.0,544.0,270.0,5.0,0.0
12461,84.0,96.0,480.0,1.0,0.0
12462,96.0,0.0,480.0,1.0,0.0
12463,62.0,304.0,270.0,5.0,0.0
12464,74.0,0.0,270.0,5.0,0.0
12465,63.0,16.0,240.0,5.0,0.0
12466,75.0,544.0,270.0,5.0,0.0
12467,79.0,96.0,480.0,1.0,0.0
12468,91.0,0.0,480.0,1.0,0.0
12469,68.0,0.0,270.0,5.0,0.0
12470,56.0,320.0,270.0,5.0,0.0
12471,57.0,0.0,270.0,5.0,0.0
12472,69.0,384.0,270.0,5.0,0.0
12473,76.0,320.0,330.0,1.0,0.0
12474,88.0,0.0,330.0,1.0,0.0
12475,70.0,320.0,330.0,5.0,0.0
12476,58.0,0.0,330.0,5.0,0.0
12477,85.0,0.0,330.0,1.0,0.0
12478,73.0,320.0,330.0,1.0,0.0
12479,67.0,0.0,330.0,5.0,0.0
12480,55.0,320.0,330.0,5.0,0.0
12481,70.0,320.0,330.0,1.0,0.0
12482,82.0,0.0,330.0,1.0,0.0
12483,52.0,320.0,330.0,5.0,0.0
12484,64.0,0.0,330.0,5.0,0.0
12485,67.0,0.0,330.0,1.0,0.0
12486,79.0,320.0,330.0,1.0,0.0
12487,49.0,320.0,330.0,5.0,0.0
12488,61.0,0.0,330.0,5.0,0.0
12489,76.0,0.0,330.0,1.0,0.0
12490,64.0,320.0,330.0,1.0,0.0
12491,46.0,320.0,330.0,5.0,0.0
12492,58.0,0.0,330.0,5.0,0.0
12493,58.0,0.0,330.0,1.0,0.0
12494,70.0,320.0,330.0,1.0,0.0
12495,40.0,1920.0,330.0,5.0,0.0
12496,52.0,0.0,330.0,5.0,0.0
12497,29.0,0.0,7680.0,5.0,0.0
12498,41.0,15.0,7680.0,5.0,0.0
12499,65.0,0.0,1920.0,1.0,0.0
12500,53.0,2400.0,1920.0,1.0,0.0
12501,53.0,15.0,2880.0,5.0,0.0
12502,58.0,480.0,1440.0,5.0,0.0
12503,60.0,480.0,480.0,5.0,0.0
12504,72.0,0.0,480.0,1.0,0.0
12505,75.0,480.0,1440.0,1.0,0.0
12506,57.0,465.0,480.0,5.0,0.0
12507,60.0,480.0,1440.0,5.0,0.0
12508,73.0,480.0,480.0,1.0,0.0
12509,53.0,15.0,2880.0,5.0,0.0
12510,65.0,0.0,1440.0,5.0,0.0
12511,77.0,480.0,1440.0,1.0,0.0
12512,58.0,465.0,480.0,5.0,0.0
12513,61.0,480.0,1440.0,5.0,0.0
12514,75.0,465.0,480.0,1.0,0.0
12515,78.0,0.0,1440.0,1.0,0.0
12516,66.0,480.0,1440.0,5.0,0.0
12517,60.0,480.0,480.0,5.0,0.0
12518,53.0,0.0,1920.0,5.0,0.0
12519,69.0,480.0,1440.0,5.0,0.0
12520,75.0,480.0,480.0,1.0,0.0
12521,41.0,0.0,15.0,5.0,0.0
12522,78.0,0.0,1440.0,1.0,0.0
12523,66.0,0.0,1440.0,5.0,0.0
12524,60.0,480.0,480.0,5.0,0.0
12525,53.0,15.0,1920.0,5.0,0.0
12526,69.0,960.0,1440.0,5.0,0.0
12527,41.0,480.0,3840.0,5.0,0.0
12528,75.0,465.0,480.0,1.0,0.0
12529,66.0,1905.0,1440.0,5.0,0.0
12530,78.0,8.0,3840.0,1.0,0.0
12531,53.0,0.0,960.0,5.0,0.0
12532,60.0,429.0,3360.0,5.0,0.0
12533,69.0,7.0,2880.0,5.0,0.0
12534,41.0,0.0,1920.0,5.0,0.0
12535,53.0,0.0,240.0,3.0,0.0
12536,68.0,51.0,420.0,4.0,0.0
12537,65.0,0.0,480.0,2.0,0.0
12538,77.0,0.0,480.0,1.0,0.0
12539,53.0,429.0,240.0,3.0,0.0
12540,64.0,0.0,480.0,2.0,0.0
12541,67.0,51.0,420.0,4.0,0.0
12542,70.0,429.0,480.0,1.0,0.0
12543,53.0,0.0,240.0,3.0,0.0
12544,63.0,0.0,480.0,2.0,0.0
12545,72.0,480.0,480.0,1.0,0.0
12546,66.0,51.0,420.0,4.0,0.0
12547,53.0,0.0,240.0,3.0,0.0
12548,62.0,0.0,480.0,2.0,0.0
12549,65.0,429.0,1440.0,1.0,0.0
12550,53.0,429.0,240.0,3.0,0.0
12551,61.0,429.0,480.0,2.0,0.0
12552,64.0,51.0,420.0,4.0,0.0
12553,53.0,0.0,240.0,3.0,0.0
12554,63.0,51.0,420.0,4.0,0.0
12555,60.0,0.0,480.0,2.0,0.0
12556,53.0,0.0,240.0,3.0,0.0
12557,61.0,51.0,420.0,4.0,0.0
12558,70.0,0.0,480.0,1.0,0.0
12559,53.0,429.0,240.0,3.0,0.0
12560,60.0,51.0,420.0,4.0,0.0
12561,69.0,0.0,480.0,1.0,0.0
12562,53.0,429.0,240.0,3.0,0.0
12563,70.0,0.0,480.0,1.0,0.0
12564,61.0,51.0,420.0,4.0,0.0
12565,53.0,429.0,240.0,3.0,0.0
12566,72.0,0.0,480.0,1.0,0.0
12567,57.0,51.0,420.0,4.0,0.0
12568,53.0,429.0,240.0,3.0,0.0
12569,58.0,51.0,420.0,4.0,0.0
12570,73.0,0.0,480.0,1.0,0.0
12571,53.0,429.0,240.0,3.0,0.0
12572,68.0,51.0,420.0,4.0,0.0
12573,77.0,0.0,480.0,1.0,0.0
12574,70.0,0.0,960.0,2.0,0.0
12575,53.0,429.0,240.0,3.0,0.0
12576,75.0,0.0,480.0,1.0,0.0
12577,66.0,51.0,420.0,4.0,0.0
12578,53.0,429.0,240.0,3.0,0.0
12579,69.0,0.0,480.0,2.0,0.0
12580,72.0,429.0,480.0,1.0,0.0
12581,65.0,51.0,420.0,4.0,0.0
12582,66.0,51.0,420.0,4.0,0.0
12583,78.0,429.0,480.0,1.0,0.0
12584,54.0,0.0,240.0,3.0,0.0
12585,79.0,0.0,960.0,1.0,0.0
12586,67.0,51.0,420.0,4.0,0.0
12587,55.0,429.0,240.0,3.0,0.0
12588,67.0,51.0,420.0,4.0,0.0
12589,55.0,429.0,240.0,3.0,0.0
12590,72.0,429.0,480.0,1.0,0.0
12591,63.0,51.0,420.0,4.0,0.0
12592,55.0,0.0,240.0,3.0,0.0
12593,65.0,51.0,420.0,4.0,0.0
12594,74.0,0.0,480.0,1.0,0.0
12595,55.0,429.0,240.0,3.0,0.0
12596,67.0,0.0,1920.0,1.0,0.0
12597,59.0,51.0,420.0,4.0,0.0
12598,55.0,429.0,240.0,3.0,0.0
12599,59.0,51.0,420.0,4.0,0.0
12600,55.0,429.0,240.0,3.0,0.0
12601,60.0,51.0,420.0,4.0,0.0
12602,51.0,429.0,240.0,3.0,0.0
12603,63.0,51.0,420.0,4.0,0.0
12604,72.0,429.0,960.0,1.0,0.0
12605,51.0,429.0,240.0,3.0,0.0
12606,63.0,51.0,420.0,4.0,0.0
12607,66.0,0.0,1920.0,2.0,0.0
12608,51.0,0.0,240.0,3.0,0.0
12609,78.0,429.0,480.0,1.0,0.0
12610,60.0,51.0,420.0,4.0,0.0
12611,51.0,0.0,240.0,3.0,0.0
12612,60.0,51.0,420.0,4.0,0.0
12613,75.0,429.0,480.0,1.0,0.0
12614,51.0,0.0,240.0,3.0,0.0
12615,72.0,0.0,480.0,1.0,0.0
12616,63.0,51.0,420.0,4.0,0.0
12617,51.0,80.0,240.0,3.0,0.0
12618,70.0,80.0,90.0,1.0,0.0
12619,61.0,51.0,420.0,4.0,0.0
12620,65.0,0.0,1440.0,2.0,0.0
12621,72.0,80.0,90.0,1.0,0.0
12622,70.0,80.0,90.0,1.0,0.0
12623,53.0,0.0,240.0,3.0,0.0
12624,72.0,80.0,90.0,1.0,0.0
12625,70.0,29.0,90.0,1.0,0.0
12626,72.0,80.0,90.0,1.0,0.0
12627,61.0,51.0,420.0,4.0,0.0
12628,70.0,80.0,90.0,1.0,0.0
12629,72.0,80.0,90.0,1.0,0.0
12630,70.0,120.0,90.0,1.0,0.0
12631,69.0,69.0,120.0,1.0,0.0
12632,53.0,429.0,240.0,3.0,0.0
12633,70.0,0.0,120.0,1.0,0.0
12634,72.0,429.0,480.0,1.0,0.0
12635,63.0,51.0,420.0,4.0,0.0
12636,53.0,0.0,240.0,3.0,0.0
12637,63.0,51.0,420.0,4.0,0.0
12638,69.0,240.0,480.0,2.0,0.0
12639,77.0,0.0,480.0,1.0,0.0
12640,53.0,0.0,240.0,3.0,0.0
12641,46.0,240.0,240.0,4.0,0.0
12642,70.0,0.0,960.0,2.0,0.0
12643,77.0,240.0,960.0,1.0,0.0
12644,53.0,240.0,240.0,4.0,0.0
12645,58.0,240.0,240.0,4.0,0.0
12646,53.0,0.0,240.0,4.0,0.0
12647,61.0,240.0,240.0,4.0,0.0
12648,58.0,240.0,240.0,4.0,0.0
12649,65.0,240.0,240.0,4.0,0.0
12650,61.0,240.0,240.0,4.0,0.0
12651,70.0,240.0,240.0,4.0,0.0
12652,65.0,240.0,240.0,4.0,0.0
12653,73.0,240.0,240.0,4.0,0.0
12654,70.0,240.0,240.0,4.0,0.0
12655,77.0,720.0,240.0,4.0,0.0
12656,82.0,0.0,480.0,1.0,0.0
12657,70.0,669.0,15.0,2.0,0.0
12658,46.0,40.0,1890.0,3.0,0.0
12659,82.0,0.0,960.0,1.0,0.0
12660,62.0,240.0,420.0,4.0,0.0
12661,65.0,51.0,420.0,4.0,0.0
12662,58.0,0.0,240.0,3.0,0.0
12663,66.0,51.0,420.0,4.0,0.0
12664,75.0,429.0,480.0,1.0,0.0
12665,58.0,0.0,240.0,3.0,0.0
12666,68.0,11.0,420.0,4.0,0.0
12667,77.0,0.0,480.0,1.0,0.0
12668,58.0,429.0,240.0,3.0,0.0
12669,69.0,51.0,420.0,4.0,0.0
12670,70.0,0.0,1440.0,1.0,0.0
12671,58.0,429.0,240.0,3.0,0.0
12672,68.0,51.0,420.0,4.0,0.0
12673,58.0,429.0,240.0,3.0,0.0
12674,67.0,51.0,420.0,4.0,0.0
12675,58.0,429.0,240.0,3.0,0.0
12676,66.0,51.0,420.0,4.0,0.0
12677,75.0,429.0,480.0,1.0,0.0
12678,58.0,0.0,240.0,3.0,0.0
12679,74.0,0.0,480.0,1.0,0.0
12680,65.0,51.0,420.0,4.0,0.0
12681,58.0,429.0,240.0,3.0,0.0
12682,75.0,429.0,480.0,1.0,0.0
12683,66.0,51.0,420.0,4.0,0.0
12684,58.0,0.0,240.0,3.0,0.0
12685,77.0,429.0,480.0,1.0,0.0
12686,62.0,51.0,420.0,4.0,0.0
12687,58.0,0.0,240.0,3.0,0.0
12688,78.0,429.0,480.0,1.0,0.0
12689,63.0,51.0,420.0,4.0,0.0
12690,58.0,0.0,240.0,3.0,0.0
12691,70.0,51.0,420.0,4.0,0.0
12692,77.0,429.0,960.0,2.0,0.0
12693,80.0,0.0,960.0,1.0,0.0
12694,58.0,429.0,240.0,3.0,0.0
12695,71.0,51.0,420.0,4.0,0.0
12696,59.0,0.0,240.0,3.0,0.0
12697,76.0,0.0,480.0,2.0,0.0
12698,79.0,429.0,480.0,1.0,0.0
12699,72.0,51.0,420.0,4.0,0.0
12700,60.0,0.0,240.0,3.0,0.0
12701,72.0,51.0,420.0,4.0,0.0
12702,85.0,0.0,480.0,1.0,0.0
12703,60.0,429.0,240.0,3.0,0.0
12704,72.0,51.0,420.0,4.0,0.0
12705,84.0,0.0,960.0,1.0,0.0
12706,60.0,429.0,240.0,3.0,0.0
12707,72.0,51.0,420.0,4.0,0.0
12708,60.0,429.0,240.0,3.0,0.0
12709,68.0,51.0,420.0,4.0,0.0
12710,77.0,0.0,480.0,1.0,0.0
12711,60.0,429.0,240.0,3.0,0.0
12712,70.0,51.0,420.0,4.0,0.0
12713,79.0,429.0,480.0,1.0,0.0
12714,60.0,0.0,240.0,3.0,0.0
12715,71.0,51.0,420.0,4.0,0.0
12716,72.0,0.0,1440.0,1.0,0.0
12717,60.0,429.0,240.0,3.0,0.0
12718,70.0,51.0,420.0,4.0,0.0
12719,60.0,429.0,240.0,3.0,0.0
12720,69.0,51.0,420.0,4.0,0.0
12721,60.0,429.0,240.0,3.0,0.0
12722,77.0,0.0,480.0,1.0,0.0
12723,68.0,51.0,420.0,4.0,0.0
12724,60.0,429.0,240.0,3.0,0.0
12725,76.0,429.0,480.0,1.0,0.0
12726,67.0,51.0,420.0,4.0,0.0
12727,60.0,0.0,240.0,3.0,0.0
12728,68.0,51.0,420.0,4.0,0.0
12729,77.0,429.0,480.0,1.0,0.0
12730,60.0,0.0,240.0,3.0,0.0
12731,64.0,51.0,420.0,4.0,0.0
12732,79.0,0.0,480.0,1.0,0.0
12733,60.0,429.0,240.0,3.0,0.0
12734,80.0,0.0,480.0,1.0,0.0
12735,65.0,51.0,420.0,4.0,0.0
12736,60.0,456.0,240.0,3.0,0.0
12737,79.0,0.0,1440.0,2.0,0.0
12738,82.0,456.0,1440.0,1.0,0.0
12739,72.0,24.0,450.0,4.0,0.0
12740,60.0,456.0,240.0,3.0,0.0
12741,73.0,24.0,450.0,4.0,0.0
12742,61.0,456.0,240.0,3.0,0.0
12743,74.0,24.0,450.0,4.0,0.0
12744,62.0,0.0,240.0,3.0,0.0
12745,78.0,0.0,480.0,2.0,0.0
12746,81.0,0.0,480.0,1.0,0.0
12747,75.0,24.0,450.0,4.0,0.0
12748,63.0,456.0,240.0,3.0,0.0
12749,84.0,456.0,1440.0,1.0,0.0
12750,76.0,24.0,450.0,4.0,0.0
12751,81.0,0.0,1440.0,2.0,0.0
12752,64.0,456.0,240.0,3.0,0.0
12753,77.0,24.0,450.0,4.0,0.0
12754,65.0,456.0,240.0,3.0,0.0
12755,78.0,24.0,450.0,4.0,0.0
12756,66.0,0.0,240.0,3.0,0.0
12757,84.0,0.0,480.0,2.0,0.0
12758,77.0,24.0,450.0,4.0,0.0
12759,87.0,240.0,480.0,1.0,0.0
12760,65.0,0.0,480.0,3.0,0.0
12761,90.0,0.0,240.0,1.0,0.0
12762,69.0,0.0,240.0,5.0,0.0
12763,72.0,0.0,240.0,5.0,0.0
12764,75.0,240.0,240.0,4.0,0.0
12765,87.0,240.0,240.0,1.0,0.0
12766,84.0,240.0,240.0,1.0,0.0
12767,81.0,240.0,240.0,1.0,0.0
12768,78.0,20.0,240.0,1.0,0.0
12769,53.0,0.0,240.0,5.0,0.0
12770,57.0,10.0,240.0,5.0,0.0
12771,60.0,10.0,240.0,5.0,0.0
12772,63.0,200.0,240.0,5.0,0.0
12773,75.0,240.0,240.0,1.0,0.0
12774,72.0,240.0,240.0,1.0,0.0
12775,69.0,240.0,240.0,1.0,0.0
12776,66.0,240.0,240.0,1.0,0.0
12777,63.0,240.0,240.0,1.0,0.0
12778,60.0,240.0,240.0,1.0,0.0
12779,57.0,240.0,240.0,1.0,0.0
12780,53.0,0.0,240.0,1.0,0.0
12781,41.0,960.0,240.0,5.0,0.0
12782,65.0,0.0,960.0,1.0,0.0
12783,48.0,240.0,240.0,5.0,0.0
12784,63.0,240.0,240.0,3.0,0.0
12785,77.0,72.0,360.0,1.0,0.0
12786,56.0,120.0,240.0,3.0,0.0
12787,57.0,288.0,180.0,3.0,0.0
12788,41.0,156.0,240.0,5.0,0.0
12789,63.0,156.0,240.0,3.0,0.0
12790,72.0,84.0,150.0,1.0,0.0
12791,71.0,84.0,150.0,1.0,0.0
12792,55.0,156.0,240.0,3.0,0.0
12793,57.0,288.0,180.0,3.0,0.0
12794,72.0,36.0,150.0,1.0,0.0
12795,46.0,240.0,240.0,5.0,0.0
12796,73.0,0.0,480.0,1.0,0.0
12797,62.0,240.0,240.0,3.0,0.0
12798,74.0,72.0,360.0,1.0,0.0
12799,52.0,120.0,240.0,3.0,0.0
12800,53.0,288.0,180.0,3.0,0.0
12801,41.0,240.0,240.0,5.0,0.0
12802,62.0,240.0,240.0,3.0,0.0
12803,65.0,240.0,480.0,1.0,0.0
12804,52.0,192.0,240.0,3.0,0.0
12805,53.0,48.0,180.0,3.0,0.0
12806,48.0,120.0,240.0,5.0,0.0
12807,79.0,120.0,360.0,1.0,0.0
12808,63.0,240.0,240.0,3.0,0.0
12809,56.0,192.0,240.0,3.0,0.0
12810,78.0,156.0,720.0,1.0,0.0
12811,57.0,288.0,180.0,3.0,0.0
12812,41.0,0.0,240.0,5.0,0.0
12813,63.0,156.0,240.0,3.0,0.0
12814,77.0,84.0,150.0,1.0,0.0
12815,71.0,84.0,150.0,1.0,0.0
12816,55.0,156.0,240.0,3.0,0.0
12817,57.0,288.0,180.0,3.0,0.0
12818,72.0,36.0,150.0,1.0,0.0
12819,46.0,240.0,240.0,5.0,0.0
12820,73.0,240.0,480.0,1.0,0.0
12821,62.0,0.0,240.0,3.0,0.0
12822,74.0,72.0,360.0,1.0,0.0
12823,52.0,120.0,240.0,3.0,0.0
12824,53.0,288.0,180.0,3.0,0.0
12825,41.0,240.0,240.0,5.0,0.0
12826,62.0,240.0,240.0,3.0,0.0
12827,70.0,240.0,480.0,1.0,0.0
12828,52.0,192.0,240.0,3.0,0.0
12829,53.0,48.0,180.0,3.0,0.0
12830,85.0,240.0,480.0,1.0,0.0
12831,50.0,240.0,240.0,5.0,0.0
12832,65.0,0.0,240.0,3.0,0.0
12833,83.0,240.0,480.0,1.0,0.0
12834,55.0,192.0,240.0,3.0,0.0
12835,56.0,48.0,180.0,3.0,0.0
12836,46.0,156.0,240.0,5.0,0.0
12837,82.0,84.0,150.0,1.0,0.0
12838,62.0,156.0,240.0,3.0,0.0
12839,76.0,84.0,150.0,1.0,0.0
12840,55.0,156.0,240.0,3.0,0.0
12841,77.0,36.0,150.0,1.0,0.0
12842,56.0,288.0,180.0,3.0,0.0
12843,80.0,120.0,240.0,1.0,0.0
12844,51.0,72.0,360.0,5.0,0.0
12845,70.0,0.0,240.0,4.0,0.0
12846,75.0,0.0,240.0,4.0,0.0
12847,78.0,288.0,180.0,1.0,0.0
12848,70.0,0.0,240.0,4.0,0.0
12849,66.0,0.0,240.0,4.0,0.0
12850,77.0,120.0,240.0,1.0,0.0
12851,53.0,72.0,360.0,5.0,0.0
12852,75.0,288.0,180.0,1.0,0.0
12853,54.0,72.0,360.0,5.0,0.0
12854,63.0,0.0,240.0,4.0,0.0
12855,73.0,0.0,240.0,1.0,0.0
12856,66.0,120.0,240.0,4.0,0.0
12857,72.0,288.0,180.0,1.0,0.0
12858,55.0,72.0,360.0,5.0,0.0
12859,72.0,0.0,240.0,1.0,0.0
12860,61.0,120.0,240.0,4.0,0.0
12861,64.0,0.0,240.0,4.0,0.0
12862,70.0,288.0,180.0,1.0,0.0
12863,61.0,120.0,240.0,4.0,0.0
12864,70.0,0.0,240.0,1.0,0.0
12865,56.0,0.0,360.0,5.0,0.0
12866,44.0,72.0,360.0,5.0,0.0
12867,65.0,0.0,240.0,4.0,0.0
12868,68.0,288.0,180.0,1.0,0.0
12869,60.0,0.0,240.0,4.0,0.0
12870,63.0,120.0,240.0,4.0,0.0
12871,45.0,72.0,360.0,5.0,0.0
12872,68.0,0.0,240.0,1.0,0.0
12873,66.0,288.0,180.0,1.0,0.0
12874,66.0,0.0,240.0,1.0,0.0
12875,46.0,72.0,360.0,5.0,0.0
12876,61.0,0.0,240.0,4.0,0.0
12877,58.0,120.0,240.0,4.0,0.0
12878,65.0,288.0,180.0,1.0,0.0
12879,48.0,120.0,360.0,5.0,0.0
12880,65.0,0.0,240.0,1.0,0.0
12881,54.0,120.0,240.0,4.0,0.0
12882,57.0,0.0,240.0,4.0,0.0
12883,63.0,240.0,240.0,1.0,0.0
12884,58.0,0.0,240.0,4.0,0.0
12885,53.0,0.0,240.0,4.0,0.0
12886,49.0,120.0,360.0,5.0,0.0
12887,63.0,120.0,240.0,1.0,0.0
12888,61.0,720.0,240.0,1.0,0.0
12889,60.0,120.0,240.0,1.0,0.0
12890,55.0,0.0,240.0,4.0,0.0
12891,52.0,72.0,360.0,5.0,0.0
12892,58.0,768.0,180.0,1.0,0.0
12893,57.0,120.0,240.0,1.0,0.0
12894,53.0,840.0,360.0,5.0,0.0
12895,65.0,120.0,960.0,1.0,0.0
12896,41.0,480.0,360.0,5.0,0.0
12897,48.0,0.0,360.0,5.0,0.0
12898,65.0,0.0,960.0,1.0,0.0
12899,45.0,7.0,360.0,5.0,0.0
12900,33.0,473.0,360.0,5.0,0.0
12901,77.0,0.0,960.0,1.0,0.0
12902,45.0,0.0,450.0,5.0,0.0
12903,53.0,113.0,420.0,5.0,0.0
12904,60.0,7.0,360.0,5.0,0.0
12905,76.0,156.0,480.0,1.0,0.0
12906,55.0,204.0,150.0,5.0,0.0
12907,75.0,0.0,360.0,1.0,0.0
12908,89.0,36.0,360.0,1.0,0.0
12909,57.0,444.0,150.0,5.0,0.0
12910,53.0,85.0,360.0,5.0,0.0
12911,72.0,55.0,210.0,1.0,0.0
12912,84.0,0.0,210.0,1.0,0.0
12913,87.0,136.0,60.0,1.0,0.0
12914,73.0,0.0,150.0,1.0,0.0
12915,85.0,0.0,150.0,1.0,0.0
12916,51.0,240.0,150.0,5.0,0.0
12917,72.0,0.0,150.0,1.0,0.0
12918,84.0,0.0,150.0,1.0,0.0
12919,53.0,444.0,150.0,5.0,0.0
12920,82.0,156.0,480.0,1.0,0.0
12921,70.0,0.0,480.0,1.0,0.0
12922,49.0,120.0,360.0,5.0,0.0
12923,77.0,36.0,360.0,1.0,0.0
12924,65.0,0.0,360.0,1.0,0.0
12925,48.0,204.0,150.0,5.0,0.0
12926,49.0,444.0,150.0,5.0,0.0
12927,46.0,480.0,360.0,5.0,0.0
12928,46.0,475.0,360.0,5.0,0.0
12929,34.0,0.0,360.0,5.0,0.0
12930,66.0,0.0,960.0,1.0,0.0
12931,78.0,156.0,960.0,1.0,0.0
12932,46.0,5.0,390.0,5.0,0.0
12933,54.0,0.0,360.0,5.0,0.0
12934,77.0,0.0,480.0,1.0,0.0
12935,61.0,120.0,360.0,5.0,0.0
12936,76.0,36.0,360.0,1.0,0.0
12937,90.0,0.0,360.0,1.0,0.0
12938,56.0,204.0,150.0,5.0,0.0
12939,58.0,444.0,150.0,5.0,0.0
12940,54.0,75.0,360.0,5.0,0.0
12941,85.0,60.0,210.0,1.0,0.0
12942,73.0,5.0,180.0,1.0,0.0
12943,88.0,136.0,60.0,1.0,0.0
12944,52.0,240.0,150.0,5.0,0.0
12945,87.0,0.0,150.0,1.0,0.0
12946,75.0,0.0,150.0,1.0,0.0
12947,55.0,0.0,150.0,5.0,0.0
12948,73.0,444.0,150.0,1.0,0.0
12949,85.0,0.0,150.0,1.0,0.0
12950,72.0,156.0,480.0,1.0,0.0
12951,84.0,0.0,480.0,1.0,0.0
12952,51.0,120.0,360.0,5.0,0.0
12953,75.0,0.0,360.0,1.0,0.0
12954,54.0,204.0,150.0,5.0,0.0
12955,63.0,36.0,360.0,1.0,0.0
12956,57.0,444.0,150.0,5.0,0.0
12957,42.0,80.0,360.0,5.0,0.0
12958,71.0,60.0,210.0,1.0,0.0
12959,83.0,0.0,210.0,1.0,0.0
12960,86.0,136.0,60.0,1.0,0.0
12961,73.0,0.0,150.0,1.0,0.0
12962,53.0,0.0,150.0,5.0,0.0
12963,85.0,240.0,150.0,1.0,0.0
12964,83.0,0.0,150.0,1.0,0.0
12965,56.0,444.0,150.0,5.0,0.0
12966,71.0,0.0,150.0,1.0,0.0
12967,42.0,120.0,360.0,5.0,0.0
12968,70.0,156.0,480.0,1.0,0.0
12969,82.0,0.0,480.0,1.0,0.0
12970,64.0,36.0,360.0,1.0,0.0
12971,49.0,204.0,150.0,5.0,0.0
12972,76.0,0.0,360.0,1.0,0.0
12973,54.0,444.0,150.0,5.0,0.0
12974,42.0,36.0,360.0,5.0,0.0
12975,70.0,0.0,150.0,1.0,0.0
12976,82.0,240.0,150.0,1.0,0.0
12977,71.0,0.0,150.0,1.0,0.0
12978,83.0,0.0,150.0,1.0,0.0
12979,51.0,240.0,150.0,5.0,0.0
12980,54.0,444.0,150.0,5.0,0.0
12981,75.0,0.0,150.0,1.0,0.0
12982,63.0,0.0,150.0,1.0,0.0
12983,64.0,156.0,480.0,1.0,0.0
12984,76.0,0.0,480.0,1.0,0.0
12985,42.0,120.0,360.0,5.0,0.0
12986,49.0,204.0,150.0,5.0,0.0
12987,70.0,0.0,360.0,1.0,0.0
12988,82.0,36.0,360.0,1.0,0.0
12989,54.0,444.0,150.0,5.0,0.0
12990,42.0,36.0,360.0,5.0,0.0
12991,82.0,0.0,150.0,1.0,0.0
12992,70.0,240.0,150.0,1.0,0.0
12993,83.0,240.0,150.0,1.0,0.0
12994,71.0,0.0,150.0,1.0,0.0
12995,51.0,0.0,150.0,5.0,0.0
12996,54.0,0.0,150.0,5.0,0.0
12997,75.0,444.0,150.0,1.0,0.0
12998,63.0,0.0,150.0,1.0,0.0
12999,76.0,156.0,480.0,1.0,0.0
13000,64.0,0.0,480.0,1.0,0.0
13001,42.0,120.0,360.0,5.0,0.0
13002,49.0,204.0,150.0,5.0,0.0
13003,70.0,0.0,360.0,1.0,0.0
13004,82.0,36.0,360.0,1.0,0.0
13005,54.0,444.0,150.0,5.0,0.0
13006,42.0,36.0,360.0,5.0,0.0
13007,82.0,0.0,150.0,1.0,0.0
13008,70.0,240.0,150.0,1.0,0.0
13009,51.0,0.0,150.0,5.0,0.0
13010,83.0,0.0,150.0,1.0,0.0
13011,71.0,240.0,150.0,1.0,0.0
13012,54.0,244.0,150.0,5.0,0.0
13013,63.0,0.0,150.0,1.0,0.0
13014,75.0,0.0,150.0,1.0,0.0
13015,64.0,120.0,360.0,1.0,0.0
13016,42.0,200.0,150.0,5.0,0.0
13017,76.0,0.0,360.0,1.0,0.0
13018,49.0,128.0,150.0,5.0,0.0
13019,54.0,352.0,120.0,5.0,0.0
13020,37.0,128.0,150.0,5.0,0.0
13021,70.0,0.0,360.0,1.0,0.0
13022,82.0,0.0,360.0,1.0,0.0
13023,42.0,232.0,120.0,5.0,0.0
13024,77.0,120.0,360.0,2.0,0.0
13025,49.0,128.0,150.0,5.0,0.0
13026,54.0,352.0,120.0,5.0,0.0
13027,49.0,128.0,150.0,5.0,0.0
13028,37.0,0.0,150.0,5.0,0.0
13029,42.0,352.0,120.0,5.0,0.0
13030,54.0,0.0,120.0,5.0,0.0
13031,46.0,0.0,150.0,5.0,0.0
13032,58.0,120.0,150.0,5.0,0.0
13033,49.0,352.0,120.0,5.0,0.0
13034,61.0,8.0,120.0,5.0,0.0
13035,54.0,128.0,150.0,5.0,0.0
13036,58.0,33.0,120.0,5.0,0.0
13037,70.0,320.0,150.0,5.0,0.0
13038,61.0,0.0,150.0,5.0,0.0
13039,73.0,119.0,150.0,5.0,0.0
13040,78.0,0.0,120.0,5.0,0.0
13041,66.0,360.0,120.0,5.0,0.0
13042,42.0,128.0,150.0,5.0,0.0
13043,66.0,0.0,360.0,1.0,0.0
13044,78.0,0.0,360.0,1.0,0.0
13045,74.0,120.0,360.0,2.0,0.0
13046,47.0,232.0,120.0,5.0,0.0
13047,71.0,0.0,360.0,2.0,0.0
13048,50.0,128.0,150.0,5.0,0.0
13049,54.0,352.0,120.0,5.0,0.0
13050,42.0,128.0,150.0,5.0,0.0
13051,78.0,0.0,360.0,2.0,0.0
13052,83.0,0.0,360.0,1.0,0.0
13053,47.0,232.0,120.0,5.0,0.0
13054,74.0,120.0,360.0,2.0,0.0
13055,71.0,0.0,360.0,1.0,0.0
13056,50.0,128.0,150.0,5.0,0.0
13057,54.0,352.0,120.0,5.0,0.0
13058,42.0,128.0,150.0,5.0,0.0
13059,47.0,352.0,120.0,5.0,0.0
13060,62.0,0.0,150.0,5.0,0.0
13061,50.0,128.0,150.0,5.0,0.0
13062,54.0,0.0,120.0,5.0,0.0
13063,66.0,352.0,120.0,5.0,0.0
13064,59.0,0.0,150.0,5.0,0.0
13065,71.0,128.0,150.0,5.0,0.0
13066,74.0,352.0,120.0,5.0,0.0
13067,62.0,0.0,120.0,5.0,0.0
13068,66.0,0.0,150.0,5.0,0.0
13069,78.0,128.0,150.0,5.0,0.0
13070,83.0,0.0,120.0,5.0,0.0
13071,71.0,352.0,120.0,5.0,0.0
13072,39.0,128.0,150.0,5.0,0.0
13073,84.0,0.0,360.0,1.0,0.0
13074,72.0,0.0,360.0,1.0,0.0
13075,81.0,0.0,360.0,2.0,0.0
13076,78.0,120.0,360.0,2.0,0.0
13077,45.0,232.0,120.0,5.0,0.0
13078,51.0,128.0,150.0,5.0,0.0
13079,57.0,352.0,120.0,5.0,0.0
13080,40.0,128.0,150.0,5.0,0.0
13081,82.0,0.0,360.0,2.0,0.0
13082,79.0,120.0,360.0,2.0,0.0
13083,46.0,232.0,120.0,5.0,0.0
13084,85.0,0.0,360.0,1.0,0.0
13085,73.0,0.0,360.0,1.0,0.0
13086,52.0,128.0,150.0,5.0,0.0
13087,58.0,352.0,120.0,5.0,0.0
13088,41.0,128.0,150.0,5.0,0.0
13089,86.0,120.0,360.0,1.0,0.0
13090,82.0,0.0,360.0,2.0,0.0
13091,53.0,232.0,120.0,5.0,0.0
13092,74.0,0.0,360.0,1.0,0.0
13093,54.0,0.0,720.0,5.0,0.0
13094,42.0,720.0,15.0,5.0,0.0
13095,82.0,0.0,720.0,2.0,0.0
13096,75.0,0.0,720.0,2.0,0.0
13097,75.0,0.0,720.0,1.0,0.0
13098,87.0,0.0,720.0,1.0,0.0
13099,89.0,0.0,360.0,1.0,0.0
13100,77.0,0.0,360.0,1.0,0.0
13101,82.0,0.0,360.0,2.0,0.0
13102,46.0,0.0,360.0,5.0,0.0
13103,50.0,480.0,360.0,5.0,0.0
13104,38.0,0.0,360.0,5.0,0.0
13105,78.0,0.0,360.0,1.0,0.0
13106,46.0,0.0,360.0,5.0,0.0
13107,51.0,0.0,360.0,5.0,0.0
13108,90.0,0.0,360.0,1.0,0.0
13109,39.0,0.0,360.0,5.0,0.0
13110,82.0,1905.0,360.0,2.0,0.0
13111,41.0,10.0,390.0,5.0,0.0
13112,45.0,5.0,360.0,5.0,0.0
13113,48.0,0.0,360.0,5.0,0.0
13114,72.0,0.0,360.0,2.0,0.0
13115,81.0,1752.0,360.0,1.0,0.0
13116,69.0,0.0,360.0,1.0,0.0
13117,77.0,0.0,360.0,2.0,0.0
13118,53.0,0.0,360.0,5.0,0.0
13119,82.0,480.0,1440.0,1.0,0.0
13120,34.0,0.0,180.0,5.0,0.0
13121,41.0,0.0,180.0,5.0,0.0
13122,46.0,240.0,180.0,5.0,0.0
13123,70.0,0.0,1440.0,1.0,0.0
13124,74.0,0.0,1440.0,1.0,0.0
13125,77.0,0.0,1440.0,1.0,0.0
13126,68.0,240.0,180.0,5.0,0.0
13127,56.0,0.0,180.0,5.0,0.0
13128,56.0,0.0,180.0,5.0,0.0
13129,68.0,240.0,180.0,5.0,0.0
13130,68.0,528.0,180.0,5.0,0.0
13131,56.0,0.0,180.0,5.0,0.0
13132,68.0,0.0,960.0,5.0,0.0
13133,56.0,0.0,960.0,5.0,0.0
13134,80.0,0.0,480.0,1.0,0.0
13135,82.0,432.0,15.0,1.0,0.0
13136,78.0,480.0,960.0,1.0,0.0
13137,70.0,0.0,15.0,1.0,0.0
13138,66.0,0.0,180.0,5.0,0.0
13139,54.0,240.0,180.0,5.0,0.0
13140,54.0,240.0,180.0,5.0,0.0
13141,66.0,0.0,180.0,5.0,0.0
13142,54.0,0.0,180.0,5.0,0.0
13143,66.0,48.0,180.0,5.0,0.0
13144,63.0,0.0,480.0,5.0,0.0
13145,51.0,0.0,480.0,5.0,0.0
13146,75.0,435.0,480.0,1.0,0.0
13147,65.0,0.0,420.0,5.0,0.0
13148,77.0,0.0,450.0,1.0,0.0
13149,82.0,0.0,15.0,1.0,0.0
13150,53.0,0.0,420.0,5.0,0.0
13151,70.0,0.0,15.0,1.0,0.0
13152,46.0,0.0,240.0,5.0,0.0
13153,50.0,0.0,210.0,5.0,0.0
13154,53.0,2.0,210.0,5.0,0.0
13155,77.0,0.0,1440.0,1.0,0.0
13156,70.0,480.0,1440.0,1.0,0.0
13157,74.0,0.0,1440.0,1.0,0.0
13158,82.0,0.0,1440.0,1.0,0.0
13159,58.0,240.0,180.0,5.0,0.0
13160,57.0,0.0,180.0,5.0,0.0
13161,69.0,240.0,180.0,5.0,0.0
13162,69.0,240.0,180.0,5.0,0.0
13163,57.0,0.0,180.0,5.0,0.0
13164,57.0,528.0,180.0,5.0,0.0
13165,69.0,0.0,180.0,5.0,0.0
13166,57.0,432.0,960.0,5.0,0.0
13167,69.0,0.0,960.0,5.0,0.0
13168,81.0,0.0,480.0,1.0,0.0
13169,70.0,0.0,480.0,1.0,0.0
13170,82.0,0.0,15.0,1.0,0.0
13171,80.0,480.0,960.0,1.0,0.0
13172,70.0,0.0,1440.0,1.0,0.0
13173,56.0,0.0,180.0,5.0,0.0
13174,68.0,240.0,180.0,5.0,0.0
13175,56.0,0.0,180.0,5.0,0.0
13176,68.0,240.0,180.0,5.0,0.0
13177,56.0,0.0,180.0,5.0,0.0
13178,68.0,48.0,180.0,5.0,0.0
13179,53.0,0.0,480.0,5.0,0.0
13180,77.0,480.0,480.0,1.0,0.0
13181,65.0,0.0,480.0,5.0,0.0
13182,66.0,0.0,480.0,5.0,0.0
13183,54.0,315.0,480.0,5.0,0.0
13184,94.0,0.0,810.0,1.0,0.0
13185,90.0,320.0,1050.0,1.0,0.0
13186,82.0,0.0,810.0,1.0,0.0
13187,46.0,7.0,300.0,5.0,0.0
13188,58.0,254.0,330.0,5.0,0.0
13189,78.0,0.0,270.0,1.0,0.0
13190,58.0,8.0,630.0,5.0,0.0
13191,70.0,246.0,660.0,5.0,0.0
13192,92.0,320.0,270.0,1.0,0.0
13193,80.0,0.0,270.0,1.0,0.0
13194,82.0,66.0,270.0,1.0,0.0
13195,70.0,0.0,270.0,1.0,0.0
13196,66.0,320.0,270.0,5.0,0.0
13197,54.0,0.0,270.0,5.0,0.0
13198,82.0,7.0,630.0,1.0,0.0
13199,68.0,0.0,270.0,5.0,0.0
13200,56.0,379.0,270.0,5.0,0.0
13201,94.0,254.0,630.0,1.0,0.0
13202,58.0,0.0,330.0,5.0,0.0
13203,46.0,0.0,300.0,5.0,0.0
13204,92.0,320.0,270.0,1.0,0.0
13205,80.0,0.0,270.0,1.0,0.0
13206,59.0,254.0,630.0,5.0,0.0
13207,71.0,0.0,630.0,5.0,0.0
13208,93.0,320.0,270.0,1.0,0.0
13209,81.0,0.0,270.0,1.0,0.0
13210,69.0,66.0,270.0,1.0,0.0
13211,81.0,0.0,270.0,1.0,0.0
13212,56.0,320.0,270.0,5.0,0.0
13213,68.0,0.0,270.0,5.0,0.0
13214,57.0,0.0,270.0,5.0,0.0
13215,69.0,221.0,270.0,5.0,0.0
13216,83.0,99.0,480.0,1.0,0.0
13217,45.0,64.0,270.0,5.0,0.0
13218,57.0,0.0,270.0,5.0,0.0
13219,75.0,160.0,150.0,1.0,0.0
13220,77.0,160.0,150.0,1.0,0.0
13221,71.0,1.0,150.0,1.0,0.0
13222,69.0,159.0,150.0,5.0,0.0
13223,63.0,160.0,150.0,5.0,0.0
13224,65.0,160.0,150.0,5.0,0.0
13225,83.0,0.0,150.0,1.0,0.0
13226,57.0,160.0,150.0,5.0,0.0
13227,75.0,160.0,150.0,1.0,0.0
13228,77.0,160.0,150.0,1.0,0.0
13229,57.0,0.0,150.0,5.0,0.0
13230,71.0,160.0,150.0,1.0,0.0
13231,51.0,160.0,150.0,5.0,0.0
13232,54.0,160.0,150.0,5.0,0.0
13233,45.0,0.0,150.0,5.0,0.0
13234,83.0,160.0,150.0,1.0,0.0
13235,75.0,160.0,150.0,1.0,0.0
13236,78.0,160.0,150.0,1.0,0.0
13237,69.0,161.0,150.0,5.0,0.0
13238,71.0,0.0,150.0,1.0,0.0
13239,63.0,159.0,150.0,5.0,0.0
13240,66.0,160.0,150.0,5.0,0.0
13241,87.0,0.0,150.0,1.0,0.0
13242,57.0,160.0,150.0,5.0,0.0
13243,78.0,160.0,150.0,1.0,0.0
13244,83.0,160.0,150.0,1.0,0.0
13245,54.0,0.0,150.0,5.0,0.0
13246,75.0,160.0,150.0,1.0,0.0
13247,47.0,160.0,150.0,5.0,0.0
13248,51.0,160.0,150.0,5.0,0.0
13249,90.0,160.0,150.0,1.0,0.0
13250,42.0,0.0,150.0,5.0,0.0
13251,81.0,160.0,150.0,1.0,0.0
13252,87.0,160.0,150.0,1.0,0.0
13253,78.0,1.0,150.0,1.0,0.0
13254,63.0,159.0,150.0,5.0,0.0
13255,54.0,160.0,150.0,5.0,0.0
13256,59.0,160.0,150.0,5.0,0.0
13257,51.0,0.0,150.0,5.0,0.0
13258,93.0,160.0,150.0,1.0,0.0
13259,87.0,160.0,150.0,1.0,0.0
13260,90.0,160.0,150.0,1.0,0.0
13261,81.0,0.0,150.0,1.0,0.0
13262,47.0,160.0,150.0,5.0,0.0
13263,39.0,110.0,150.0,5.0,0.0
13264,42.0,210.0,120.0,5.0,0.0
13265,35.0,5.0,1920.0,5.0,0.0
13266,47.0,10.0,1890.0,5.0,0.0
13267,59.0,35.0,1890.0,5.0,0.0
13268,71.0,0.0,1860.0,5.0,0.0
13269,84.0,160.0,150.0,2.0,0.0
13270,96.0,0.0,150.0,1.0,0.0
13271,87.0,160.0,150.0,1.0,0.0
13272,93.0,160.0,150.0,1.0,0.0
13273,83.0,160.0,150.0,2.0,0.0
13274,76.0,0.0,150.0,2.0,0.0
13275,80.0,0.0,150.0,2.0,0.0
13276,95.0,0.0,150.0,1.0,0.0
13277,88.0,160.0,150.0,1.0,0.0
13278,92.0,160.0,150.0,1.0,0.0
13279,79.0,160.0,150.0,2.0,0.0
13280,94.0,0.0,150.0,1.0,0.0
13281,73.0,0.0,150.0,2.0,0.0
13282,82.0,0.0,150.0,2.0,0.0
13283,88.0,160.0,150.0,1.0,0.0
13284,91.0,160.0,150.0,1.0,0.0
13285,93.0,0.0,150.0,1.0,0.0
13286,75.0,160.0,150.0,2.0,0.0
13287,81.0,0.0,150.0,2.0,0.0
13288,78.0,0.0,150.0,2.0,0.0
13289,84.0,110.0,150.0,1.0,0.0
13290,90.0,160.0,150.0,1.0,0.0
13291,52.0,40.0,960.0,5.0,0.0
13292,64.0,15.0,930.0,5.0,0.0
13293,92.0,160.0,150.0,1.0,0.0
13294,76.0,0.0,150.0,2.0,0.0
13295,71.0,0.0,150.0,2.0,0.0
13296,80.0,0.0,150.0,2.0,0.0
13297,83.0,160.0,150.0,1.0,0.0
13298,88.0,160.0,150.0,1.0,0.0
13299,71.0,0.0,150.0,2.0,0.0
13300,79.0,160.0,150.0,2.0,0.0
13301,91.0,0.0,150.0,1.0,0.0
13302,76.0,0.0,150.0,2.0,0.0
13303,83.0,105.0,150.0,1.0,0.0
13304,88.0,160.0,150.0,1.0,0.0
13305,54.0,40.0,960.0,5.0,0.0
13306,66.0,5.0,930.0,5.0,0.0
13307,73.0,0.0,150.0,2.0,0.0
13308,90.0,160.0,150.0,1.0,0.0
13309,70.0,0.0,150.0,2.0,0.0
13310,78.0,0.0,150.0,2.0,0.0
13311,82.0,160.0,150.0,1.0,0.0
13312,85.0,160.0,150.0,1.0,0.0
13313,89.0,0.0,150.0,1.0,0.0
13314,68.0,160.0,150.0,2.0,0.0
13315,77.0,0.0,150.0,2.0,0.0
13316,74.0,0.0,150.0,2.0,0.0
13317,83.0,115.0,150.0,1.0,0.0
13318,86.0,160.0,150.0,1.0,0.0
13319,47.0,40.0,1920.0,5.0,0.0
13320,59.0,10.0,1890.0,5.0,0.0
13321,73.0,0.0,150.0,2.0,0.0
13322,67.0,0.0,150.0,2.0,0.0
13323,76.0,0.0,150.0,2.0,0.0
13324,88.0,160.0,150.0,1.0,0.0
13325,82.0,160.0,150.0,1.0,0.0
13326,85.0,160.0,150.0,1.0,0.0
13327,75.0,0.0,150.0,2.0,0.0
13328,66.0,0.0,150.0,2.0,0.0
13329,87.0,160.0,150.0,1.0,0.0
13330,72.0,0.0,150.0,2.0,0.0
13331,81.0,160.0,150.0,1.0,0.0
13332,84.0,160.0,150.0,1.0,0.0
13333,86.0,160.0,150.0,1.0,0.0
13334,74.0,0.0,150.0,2.0,0.0
13335,65.0,0.0,150.0,2.0,0.0
13336,71.0,0.0,150.0,2.0,0.0
13337,80.0,160.0,150.0,1.0,0.0
13338,83.0,160.0,150.0,1.0,0.0
13339,64.0,0.0,150.0,2.0,0.0
13340,70.0,0.0,150.0,2.0,0.0
13341,85.0,0.0,150.0,1.0,0.0
13342,73.0,160.0,150.0,2.0,0.0
13343,79.0,110.0,150.0,1.0,0.0
13344,82.0,160.0,150.0,1.0,0.0
13345,40.0,15.0,960.0,5.0,0.0
13346,52.0,25.0,960.0,5.0,0.0
13347,72.0,0.0,150.0,2.0,0.0
13348,84.0,0.0,150.0,1.0,0.0
13349,69.0,1.0,150.0,2.0,0.0
13350,63.0,159.0,150.0,2.0,0.0
13351,78.0,160.0,150.0,1.0,0.0
13352,81.0,160.0,150.0,1.0,0.0
13353,67.0,0.0,150.0,2.0,0.0
13354,71.0,160.0,150.0,2.0,0.0
13355,64.0,0.0,150.0,2.0,0.0
13356,83.0,0.0,150.0,1.0,0.0
13357,76.0,120.0,150.0,1.0,0.0
13358,79.0,160.0,150.0,1.0,0.0
13359,42.0,40.0,960.0,5.0,0.0
13360,54.0,20.0,930.0,5.0,0.0
13361,70.0,0.0,150.0,2.0,0.0
13362,61.0,159.0,150.0,2.0,0.0
13363,66.0,0.0,150.0,2.0,0.0
13364,82.0,1.0,150.0,1.0,0.0
13365,73.0,160.0,150.0,1.0,0.0
13366,78.0,160.0,150.0,1.0,0.0
13367,66.0,1.0,150.0,2.0,0.0
13368,63.0,159.0,150.0,2.0,0.0
13369,59.0,0.0,150.0,2.0,0.0
13370,69.0,0.0,150.0,2.0,0.0
13371,81.0,0.0,150.0,1.0,0.0
13372,75.0,100.0,150.0,1.0,0.0
13373,78.0,160.0,150.0,1.0,0.0
13374,35.0,5.0,960.0,5.0,0.0
13375,47.0,35.0,960.0,5.0,0.0
13376,80.0,0.0,960.0,1.0,0.0
13377,68.0,160.0,150.0,2.0,0.0
13378,64.0,160.0,480.0,5.0,0.0
13379,59.0,0.0,480.0,5.0,0.0
13380,71.0,160.0,150.0,2.0,0.0
13381,76.0,0.0,150.0,2.0,0.0
13382,68.0,160.0,150.0,2.0,0.0
13383,71.0,120.0,150.0,2.0,0.0
13384,76.0,160.0,150.0,2.0,0.0
13385,79.0,160.0,960.0,1.0,0.0
13386,47.0,20.0,480.0,5.0,0.0
13387,67.0,160.0,150.0,2.0,0.0
13388,52.0,20.0,480.0,5.0,0.0
13389,59.0,20.0,480.0,5.0,0.0
13390,64.0,100.0,480.0,5.0,0.0
13391,71.0,160.0,150.0,2.0,0.0
13392,76.0,0.0,150.0,2.0,0.0
13393,67.0,160.0,150.0,2.0,0.0
13394,71.0,160.0,150.0,2.0,0.0
13395,76.0,0.0,150.0,2.0,0.0
13396,47.0,0.0,480.0,5.0,0.0
13397,66.0,160.0,150.0,2.0,0.0
13398,78.0,0.0,960.0,1.0,0.0
13399,51.0,20.0,480.0,5.0,0.0
13400,59.0,10.0,480.0,5.0,0.0
13401,63.0,110.0,480.0,5.0,0.0
13402,71.0,160.0,150.0,2.0,0.0
13403,75.0,20.0,150.0,2.0,0.0
13404,66.0,160.0,150.0,2.0,0.0
13405,71.0,160.0,150.0,2.0,0.0
13406,75.0,160.0,150.0,2.0,0.0
13407,76.0,160.0,960.0,1.0,0.0
13408,64.0,160.0,150.0,2.0,0.0
13409,47.0,0.0,480.0,5.0,0.0
13410,49.0,20.0,480.0,5.0,0.0
13411,59.0,10.0,480.0,5.0,0.0
13412,61.0,110.0,480.0,5.0,0.0
13413,71.0,160.0,150.0,2.0,0.0
13414,73.0,20.0,150.0,2.0,0.0
13415,64.0,160.0,150.0,2.0,0.0
13416,71.0,160.0,150.0,2.0,0.0
13417,73.0,0.0,150.0,2.0,0.0
13418,66.0,160.0,150.0,2.0,0.0
13419,64.0,20.0,480.0,5.0,0.0
13420,78.0,0.0,960.0,1.0,0.0
13421,47.0,0.0,480.0,5.0,0.0
13422,51.0,20.0,480.0,5.0,0.0
13423,59.0,120.0,480.0,5.0,0.0
13424,71.0,160.0,150.0,2.0,0.0
13425,75.0,0.0,150.0,2.0,0.0
13426,66.0,160.0,150.0,2.0,0.0
13427,71.0,160.0,150.0,2.0,0.0
13428,75.0,160.0,150.0,2.0,0.0
13429,63.0,0.0,480.0,5.0,0.0
13430,59.0,0.0,480.0,5.0,0.0
13431,66.0,160.0,150.0,2.0,0.0
13432,71.0,160.0,150.0,2.0,0.0
13433,75.0,160.0,150.0,2.0,0.0
13434,66.0,160.0,150.0,2.0,0.0
13435,71.0,160.0,150.0,2.0,0.0
13436,75.0,172.0,150.0,2.0,0.0
13437,63.0,148.0,180.0,2.0,0.0
13438,59.0,161.0,480.0,5.0,0.0
13439,54.0,0.0,480.0,5.0,0.0
13440,66.0,160.0,150.0,2.0,0.0
13441,71.0,0.0,150.0,2.0,0.0
13442,63.0,159.0,150.0,2.0,0.0
13443,66.0,160.0,150.0,2.0,0.0
13444,71.0,160.0,150.0,2.0,0.0
13445,54.0,0.0,480.0,5.0,0.0
13446,59.0,161.0,150.0,2.0,0.0
13447,51.0,0.0,480.0,5.0,0.0
13448,63.0,159.0,150.0,2.0,0.0
13449,66.0,160.0,150.0,2.0,0.0
13450,59.0,147.0,150.0,2.0,0.0
13451,63.0,173.0,150.0,2.0,0.0
13452,66.0,160.0,150.0,2.0,0.0
13453,51.0,0.0,480.0,5.0,0.0
13454,47.0,160.0,480.0,5.0,0.0
13455,54.0,160.0,150.0,2.0,0.0
13456,59.0,160.0,150.0,2.0,0.0
13457,63.0,0.0,150.0,2.0,0.0
13458,54.0,160.0,150.0,2.0,0.0
13459,59.0,161.0,150.0,2.0,0.0
13460,63.0,159.0,150.0,2.0,0.0
13461,42.0,0.0,480.0,5.0,0.0
13462,47.0,0.0,480.0,5.0,0.0
13463,51.0,160.0,150.0,2.0,0.0
13464,54.0,160.0,150.0,2.0,0.0
13465,59.0,160.0,150.0,2.0,0.0
13466,51.0,160.0,150.0,2.0,0.0
13467,54.0,160.0,150.0,2.0,0.0
13468,59.0,160.0,150.0,2.0,0.0
13469,51.0,160.0,150.0,2.0,0.0
13470,54.0,160.0,150.0,2.0,0.0
13471,59.0,160.0,150.0,2.0,0.0
13472,51.0,160.0,150.0,2.0,0.0
13473,54.0,160.0,150.0,2.0,0.0
13474,59.0,160.0,150.0,2.0,0.0
13475,47.0,0.0,480.0,5.0,0.0
13476,35.0,0.0,480.0,5.0,0.0
13477,51.0,160.0,150.0,2.0,0.0
13478,54.0,160.0,150.0,2.0,0.0
13479,59.0,160.0,150.0,2.0,0.0
13480,51.0,160.0,150.0,2.0,0.0
13481,54.0,160.0,150.0,2.0,0.0
13482,59.0,960.0,150.0,2.0,0.0
13483,35.0,0.0,960.0,5.0,0.0
13484,47.0,960.0,960.0,5.0,0.0
13485,34.0,0.0,960.0,5.0,0.0
13486,46.0,960.0,960.0,5.0,0.0
13487,33.0,0.0,960.0,5.0,0.0
13488,45.0,960.0,15.0,5.0,0.0
13489,57.0,727.0,960.0,5.0,0.0
13490,55.0,240.0,960.0,1.0,0.0
13491,46.0,7.0,1920.0,5.0,0.0
13492,58.0,233.0,1920.0,5.0,0.0
13493,51.0,0.0,960.0,2.0,0.0
13494,70.0,0.0,240.0,1.0,0.0
13495,67.0,233.0,240.0,2.0,0.0
13496,75.0,232.0,720.0,1.0,0.0
13497,56.0,255.0,240.0,1.0,0.0
13498,65.0,0.0,720.0,1.0,0.0
13499,74.0,233.0,240.0,1.0,0.0
13500,77.0,233.0,720.0,1.0,0.0
13501,58.0,247.0,240.0,1.0,0.0
13502,51.0,0.0,960.0,5.0,0.0
13503,39.0,0.0,960.0,5.0,0.0
13504,67.0,240.0,720.0,1.0,0.0
13505,75.0,240.0,240.0,1.0,0.0
13506,79.0,233.0,720.0,1.0,0.0
13507,63.0,247.0,240.0,1.0,0.0
13508,41.0,0.0,960.0,5.0,0.0
13509,53.0,0.0,960.0,5.0,0.0
13510,69.0,128.0,720.0,1.0,0.0
13511,75.0,240.0,240.0,1.0,0.0
13512,87.0,7.0,240.0,1.0,0.0
13513,31.0,65.0,120.0,5.0,0.0
13514,46.0,60.0,60.0,5.0,0.0
13515,50.0,60.0,60.0,5.0,0.0
13516,53.0,60.0,60.0,5.0,0.0
13517,58.0,60.0,60.0,5.0,0.0
13518,62.0,60.0,60.0,5.0,0.0
13519,65.0,60.0,60.0,5.0,0.0
13520,70.0,80.0,60.0,5.0,0.0
13521,74.0,0.0,480.0,5.0,0.0
13522,86.0,80.0,90.0,3.0,0.0
13523,82.0,80.0,90.0,3.0,0.0
13524,84.0,80.0,90.0,3.0,0.0
13525,82.0,80.0,90.0,3.0,0.0
13526,84.0,80.0,90.0,3.0,0.0
13527,82.0,60.0,90.0,3.0,0.0
13528,84.0,60.0,60.0,3.0,0.0
13529,82.0,60.0,60.0,3.0,0.0
13530,84.0,60.0,60.0,3.0,0.0
13531,82.0,60.0,60.0,3.0,0.0
13532,84.0,60.0,60.0,3.0,0.0
13533,82.0,60.0,60.0,3.0,0.0
13534,84.0,60.0,60.0,3.0,0.0
13535,82.0,60.0,60.0,3.0,0.0
13536,84.0,60.0,60.0,3.0,0.0
13537,82.0,60.0,60.0,3.0,0.0
13538,84.0,60.0,60.0,3.0,0.0
13539,82.0,60.0,60.0,3.0,0.0
13540,84.0,60.0,60.0,3.0,0.0
13541,82.0,60.0,60.0,3.0,0.0
13542,84.0,60.0,60.0,3.0,0.0
13543,82.0,60.0,60.0,3.0,0.0
13544,84.0,60.0,60.0,3.0,0.0
13545,82.0,60.0,60.0,3.0,0.0
13546,84.0,60.0,60.0,3.0,0.0
13547,82.0,60.0,60.0,3.0,0.0
13548,84.0,60.0,60.0,3.0,0.0
13549,82.0,60.0,60.0,3.0,0.0
13550,84.0,60.0,60.0,3.0,0.0
13551,82.0,60.0,60.0,3.0,0.0
13552,84.0,60.0,60.0,3.0,0.0
13553,82.0,60.0,60.0,3.0,0.0
13554,84.0,60.0,60.0,3.0,0.0
13555,82.0,60.0,60.0,3.0,0.0
13556,84.0,60.0,60.0,3.0,0.0
13557,82.0,60.0,60.0,3.0,0.0
13558,84.0,60.0,60.0,3.0,0.0
13559,82.0,60.0,60.0,3.0,0.0
13560,84.0,60.0,60.0,3.0,0.0
13561,82.0,60.0,60.0,3.0,0.0
13562,84.0,60.0,60.0,3.0,0.0
13563,82.0,60.0,60.0,3.0,0.0
13564,84.0,60.0,60.0,3.0,0.0
13565,82.0,60.0,60.0,3.0,0.0
13566,84.0,60.0,60.0,3.0,0.0
13567,82.0,60.0,60.0,3.0,0.0
13568,84.0,60.0,60.0,3.0,0.0
13569,74.0,0.0,240.0,1.0,0.0
13570,82.0,60.0,60.0,3.0,0.0
13571,84.0,60.0,60.0,3.0,0.0
13572,82.0,60.0,60.0,3.0,0.0
13573,84.0,60.0,60.0,3.0,0.0
13574,80.0,0.0,240.0,1.0,0.0
13575,82.0,60.0,60.0,3.0,0.0
13576,84.0,60.0,60.0,3.0,0.0
13577,82.0,60.0,60.0,3.0,0.0
13578,31.0,60.0,60.0,5.0,0.0
13579,46.0,60.0,60.0,5.0,0.0
13580,51.0,60.0,60.0,5.0,0.0
13581,55.0,80.0,60.0,5.0,0.0
13582,58.0,100.0,90.0,5.0,0.0
13583,63.0,60.0,90.0,5.0,0.0
13584,67.0,80.0,90.0,5.0,0.0
13585,82.0,58.0,420.0,1.0,0.0
13586,70.0,80.0,90.0,5.0,0.0
13587,79.0,0.0,90.0,3.0,0.0
13588,75.0,80.0,90.0,3.0,0.0
13589,77.0,80.0,90.0,3.0,0.0
13590,75.0,80.0,90.0,3.0,0.0
13591,77.0,22.0,90.0,3.0,0.0
13592,75.0,60.0,90.0,3.0,0.0
13593,77.0,60.0,60.0,3.0,0.0
13594,75.0,60.0,60.0,3.0,0.0
13595,77.0,60.0,60.0,3.0,0.0
13596,75.0,60.0,60.0,3.0,0.0
13597,77.0,60.0,60.0,3.0,0.0
13598,75.0,60.0,60.0,3.0,0.0
13599,77.0,60.0,60.0,3.0,0.0
13600,75.0,60.0,60.0,3.0,0.0
13601,77.0,60.0,60.0,3.0,0.0
13602,75.0,60.0,60.0,3.0,0.0
13603,77.0,60.0,60.0,3.0,0.0
13604,75.0,60.0,60.0,3.0,0.0
13605,77.0,60.0,60.0,3.0,0.0
13606,75.0,60.0,60.0,3.0,0.0
13607,77.0,60.0,60.0,3.0,0.0
13608,75.0,60.0,60.0,3.0,0.0
13609,77.0,60.0,60.0,3.0,0.0
13610,75.0,60.0,60.0,3.0,0.0
13611,77.0,60.0,60.0,3.0,0.0
13612,75.0,60.0,60.0,3.0,0.0
13613,77.0,60.0,60.0,3.0,0.0
13614,75.0,60.0,60.0,3.0,0.0
13615,77.0,60.0,60.0,3.0,0.0
13616,75.0,60.0,60.0,3.0,0.0
13617,77.0,60.0,60.0,3.0,0.0
13618,75.0,60.0,60.0,3.0,0.0
13619,77.0,60.0,60.0,3.0,0.0
13620,75.0,60.0,60.0,3.0,0.0
13621,77.0,60.0,60.0,3.0,0.0
13622,75.0,60.0,60.0,3.0,0.0
13623,77.0,60.0,60.0,3.0,0.0
13624,75.0,60.0,60.0,3.0,0.0
13625,77.0,60.0,60.0,3.0,0.0
13626,75.0,60.0,60.0,3.0,0.0
13627,77.0,60.0,60.0,3.0,0.0
13628,75.0,60.0,60.0,3.0,0.0
13629,77.0,60.0,60.0,3.0,0.0
13630,75.0,60.0,60.0,3.0,0.0
13631,77.0,60.0,60.0,3.0,0.0
13632,75.0,60.0,60.0,3.0,0.0
13633,67.0,0.0,240.0,1.0,0.0
13634,77.0,60.0,60.0,3.0,0.0
13635,75.0,60.0,60.0,3.0,0.0
13636,77.0,60.0,60.0,3.0,0.0
13637,75.0,60.0,60.0,3.0,0.0
13638,73.0,0.0,240.0,1.0,0.0
13639,77.0,60.0,60.0,3.0,0.0
13640,75.0,60.0,60.0,3.0,0.0
13641,77.0,60.0,60.0,3.0,0.0
13642,75.0,80.0,60.0,3.0,0.0
13643,31.0,80.0,90.0,5.0,0.0
13644,46.0,80.0,90.0,5.0,0.0
13645,51.0,120.0,90.0,5.0,0.0
13646,56.0,120.0,120.0,5.0,0.0
13647,60.0,80.0,120.0,5.0,0.0
13648,63.0,20.0,960.0,5.0,0.0
13649,75.0,80.0,390.0,1.0,0.0
13650,72.0,80.0,90.0,3.0,0.0
13651,68.0,80.0,90.0,3.0,0.0
13652,70.0,80.0,90.0,3.0,0.0
13653,68.0,80.0,90.0,3.0,0.0
13654,70.0,0.0,90.0,3.0,0.0
13655,68.0,60.0,90.0,3.0,0.0
13656,70.0,60.0,60.0,3.0,0.0
13657,68.0,60.0,60.0,3.0,0.0
13658,70.0,60.0,60.0,3.0,0.0
13659,68.0,60.0,60.0,3.0,0.0
13660,70.0,60.0,60.0,3.0,0.0
13661,68.0,40.0,60.0,3.0,0.0
13662,70.0,60.0,60.0,3.0,0.0
13663,68.0,60.0,60.0,3.0,0.0
13664,70.0,60.0,60.0,3.0,0.0
13665,68.0,60.0,60.0,3.0,0.0
13666,70.0,60.0,60.0,3.0,0.0
13667,68.0,60.0,60.0,3.0,0.0
13668,70.0,60.0,60.0,3.0,0.0
13669,68.0,60.0,60.0,3.0,0.0
13670,70.0,60.0,60.0,3.0,0.0
13671,68.0,60.0,60.0,3.0,0.0
13672,70.0,60.0,60.0,3.0,0.0
13673,68.0,60.0,60.0,3.0,0.0
13674,70.0,60.0,60.0,3.0,0.0
13675,68.0,60.0,60.0,3.0,0.0
13676,70.0,60.0,60.0,3.0,0.0
13677,68.0,60.0,60.0,3.0,0.0
13678,70.0,60.0,60.0,3.0,0.0
13679,68.0,60.0,60.0,3.0,0.0
13680,67.0,60.0,60.0,3.0,0.0
13681,68.0,60.0,60.0,3.0,0.0
13682,70.0,60.0,60.0,3.0,0.0
13683,72.0,60.0,60.0,3.0,0.0
13684,74.0,60.0,60.0,3.0,0.0
13685,75.0,60.0,60.0,3.0,0.0
13686,77.0,60.0,60.0,3.0,0.0
13687,79.0,60.0,60.0,3.0,0.0
13688,80.0,60.0,60.0,3.0,0.0
13689,82.0,60.0,60.0,3.0,0.0
13690,84.0,60.0,60.0,3.0,0.0
13691,86.0,60.0,60.0,3.0,0.0
13692,87.0,60.0,60.0,3.0,0.0
13693,86.0,60.0,60.0,3.0,0.0
13694,84.0,60.0,60.0,3.0,0.0
13695,82.0,60.0,60.0,3.0,0.0
13696,80.0,60.0,60.0,3.0,0.0
13697,79.0,60.0,60.0,3.0,0.0
13698,77.0,60.0,60.0,3.0,0.0
13699,75.0,60.0,60.0,3.0,0.0
13700,74.0,60.0,60.0,3.0,0.0
13701,72.0,100.0,60.0,3.0,0.0
13702,70.0,60.0,90.0,3.0,0.0
13703,46.0,23.0,150.0,5.0,0.0
13704,69.0,37.0,60.0,3.0,0.0
13705,70.0,60.0,60.0,3.0,0.0
13706,53.0,0.0,90.0,5.0,0.0
13707,69.0,60.0,60.0,3.0,0.0
13708,70.0,20.0,60.0,3.0,0.0
13709,60.0,40.0,90.0,5.0,0.0
13710,69.0,60.0,60.0,3.0,0.0
13711,63.0,60.0,240.0,5.0,0.0
13712,70.0,60.0,60.0,3.0,0.0
13713,69.0,60.0,60.0,3.0,0.0
13714,70.0,60.0,60.0,3.0,0.0
13715,69.0,0.0,60.0,3.0,0.0
13716,70.0,60.0,60.0,3.0,0.0
13717,69.0,60.0,60.0,3.0,0.0
13718,70.0,60.0,60.0,3.0,0.0
13719,69.0,60.0,60.0,3.0,0.0
13720,70.0,60.0,60.0,3.0,0.0
13721,69.0,60.0,60.0,3.0,0.0
13722,70.0,60.0,60.0,3.0,0.0
13723,69.0,60.0,60.0,3.0,0.0
13724,70.0,60.0,60.0,3.0,0.0
13725,69.0,60.0,60.0,3.0,0.0
13726,70.0,60.0,60.0,3.0,0.0
13727,69.0,60.0,60.0,3.0,0.0
13728,70.0,60.0,60.0,3.0,0.0
13729,69.0,60.0,60.0,3.0,0.0
13730,70.0,60.0,60.0,3.0,0.0
13731,69.0,60.0,60.0,3.0,0.0
13732,70.0,80.0,60.0,3.0,0.0
13733,69.0,60.0,60.0,3.0,0.0
13734,70.0,60.0,60.0,3.0,0.0
13735,69.0,60.0,60.0,3.0,0.0
13736,70.0,60.0,60.0,3.0,0.0
13737,69.0,60.0,60.0,3.0,0.0
13738,67.0,60.0,60.0,3.0,0.0
13739,69.0,60.0,60.0,3.0,0.0
13740,70.0,60.0,60.0,3.0,0.0
13741,72.0,60.0,60.0,3.0,0.0
13742,74.0,60.0,60.0,3.0,0.0
13743,75.0,60.0,60.0,3.0,0.0
13744,77.0,60.0,60.0,3.0,0.0
13745,79.0,60.0,60.0,3.0,0.0
13746,81.0,60.0,60.0,3.0,0.0
13747,82.0,60.0,60.0,3.0,0.0
13748,84.0,60.0,60.0,3.0,0.0
13749,86.0,60.0,60.0,3.0,0.0
13750,87.0,60.0,60.0,3.0,0.0
13751,89.0,60.0,60.0,3.0,0.0
13752,87.0,60.0,60.0,3.0,0.0
13753,86.0,60.0,60.0,3.0,0.0
13754,84.0,60.0,60.0,3.0,0.0
13755,82.0,60.0,60.0,3.0,0.0
13756,81.0,60.0,60.0,3.0,0.0
13757,79.0,60.0,60.0,3.0,0.0
13758,77.0,60.0,60.0,3.0,0.0
13759,74.0,60.0,60.0,3.0,0.0
13760,72.0,60.0,60.0,3.0,0.0
13761,70.0,120.0,60.0,3.0,0.0
13762,69.0,100.0,120.0,3.0,0.0
13763,46.0,23.0,150.0,5.0,0.0
13764,70.0,60.0,60.0,3.0,0.0
13765,69.0,37.0,60.0,3.0,0.0
13766,70.0,60.0,60.0,3.0,0.0
13767,53.0,60.0,90.0,5.0,0.0
13768,69.0,0.0,60.0,3.0,0.0
13769,70.0,20.0,60.0,3.0,0.0
13770,58.0,40.0,90.0,5.0,0.0
13771,69.0,40.0,60.0,3.0,0.0
13772,62.0,20.0,90.0,5.0,0.0
13773,70.0,60.0,60.0,3.0,0.0
13774,69.0,60.0,60.0,3.0,0.0
13775,70.0,60.0,60.0,3.0,0.0
13776,69.0,60.0,60.0,3.0,0.0
13777,70.0,60.0,60.0,3.0,0.0
13778,69.0,60.0,60.0,3.0,0.0
13779,70.0,60.0,60.0,3.0,0.0
13780,69.0,60.0,60.0,3.0,0.0
13781,70.0,60.0,60.0,3.0,0.0
13782,69.0,60.0,60.0,3.0,0.0
13783,70.0,60.0,60.0,3.0,0.0
13784,69.0,60.0,60.0,3.0,0.0
13785,70.0,60.0,60.0,3.0,0.0
13786,69.0,60.0,60.0,3.0,0.0
13787,70.0,60.0,60.0,3.0,0.0
13788,69.0,60.0,60.0,3.0,0.0
13789,70.0,80.0,60.0,3.0,0.0
13790,69.0,60.0,60.0,3.0,0.0
13791,70.0,190.0,60.0,3.0,0.0
13792,69.0,150.0,210.0,3.0,0.0
13793,70.0,120.0,120.0,3.0,0.0
13794,69.0,120.0,120.0,3.0,0.0
13795,70.0,120.0,120.0,3.0,0.0
13796,75.0,140.0,120.0,1.0,0.0
13797,69.0,120.0,120.0,3.0,0.0
13798,70.0,120.0,120.0,3.0,0.0
13799,71.0,120.0,120.0,3.0,0.0
13800,72.0,120.0,120.0,3.0,0.0
13801,73.0,120.0,120.0,3.0,0.0
13802,74.0,120.0,120.0,3.0,0.0
13803,79.0,120.0,120.0,1.0,0.0
13804,73.0,120.0,120.0,3.0,0.0
13805,74.0,120.0,120.0,3.0,0.0
13806,75.0,120.0,120.0,3.0,0.0
13807,76.0,120.0,120.0,3.0,0.0
13808,77.0,120.0,120.0,3.0,0.0
13809,84.0,120.0,120.0,1.0,0.0
13810,76.0,120.0,120.0,3.0,0.0
13811,77.0,120.0,120.0,3.0,0.0
13812,78.0,120.0,120.0,3.0,0.0
13813,79.0,120.0,120.0,3.0,0.0
13814,80.0,120.0,120.0,3.0,0.0
13815,81.0,120.0,120.0,3.0,0.0
13816,82.0,120.0,120.0,3.0,0.0
13817,87.0,120.0,120.0,1.0,0.0
13818,81.0,120.0,120.0,3.0,0.0
13819,82.0,120.0,120.0,3.0,0.0
13820,83.0,120.0,120.0,3.0,0.0
13821,84.0,120.0,120.0,3.0,0.0
13822,85.0,120.0,120.0,3.0,0.0
13823,86.0,120.0,120.0,3.0,0.0
13824,91.0,120.0,120.0,1.0,0.0
13825,85.0,120.0,120.0,3.0,0.0
13826,86.0,120.0,120.0,3.0,0.0
13827,87.0,120.0,120.0,3.0,0.0
13828,88.0,120.0,120.0,3.0,0.0
13829,89.0,100.0,120.0,3.0,0.0
13830,96.0,140.0,120.0,1.0,0.0
13831,88.0,120.0,120.0,3.0,0.0
13832,89.0,120.0,120.0,3.0,0.0
13833,90.0,120.0,120.0,3.0,0.0
13834,91.0,120.0,120.0,3.0,0.0
13835,92.0,120.0,120.0,3.0,0.0
13836,93.0,120.0,120.0,3.0,0.0
13837,94.0,40.0,120.0,3.0,0.0
13838,82.0,20.0,240.0,5.0,0.0
13839,99.0,40.0,40.0,2.0,0.0
13840,89.0,15.0,240.0,5.0,0.0
13841,98.0,40.0,40.0,2.0,0.0
13842,94.0,25.0,210.0,5.0,0.0
13843,99.0,40.0,40.0,2.0,0.0
13844,98.0,40.0,40.0,2.0,0.0
13845,99.0,20.0,40.0,2.0,0.0
13846,98.0,20.0,40.0,2.0,0.0
13847,96.0,60.0,60.0,2.0,0.0
13848,94.0,60.0,60.0,2.0,0.0
13849,93.0,60.0,60.0,2.0,0.0
13850,91.0,60.0,60.0,2.0,0.0
13851,89.0,60.0,60.0,2.0,0.0
13852,70.0,17.0,240.0,5.0,0.0
13853,87.0,40.0,15.0,2.0,0.0
13854,77.0,37.0,240.0,5.0,0.0
13855,86.0,40.0,40.0,2.0,0.0
13856,82.0,0.0,150.0,5.0,0.0
13857,87.0,40.0,40.0,2.0,0.0
13858,86.0,40.0,40.0,2.0,0.0
13859,87.0,23.0,40.0,2.0,0.0
13860,86.0,23.0,40.0,2.0,0.0
13861,84.0,60.0,60.0,2.0,0.0
13862,82.0,60.0,60.0,2.0,0.0
13863,81.0,60.0,60.0,2.0,0.0
13864,79.0,60.0,60.0,2.0,0.0
13865,77.0,60.0,60.0,2.0,0.0
13866,75.0,40.0,60.0,2.0,0.0
13867,58.0,5.0,240.0,5.0,0.0
13868,75.0,40.0,40.0,2.0,0.0
13869,65.0,25.0,240.0,5.0,0.0
13870,74.0,40.0,40.0,2.0,0.0
13871,70.0,15.0,150.0,5.0,0.0
13872,75.0,40.0,40.0,2.0,0.0
13873,74.0,40.0,40.0,2.0,0.0
13874,75.0,20.0,40.0,2.0,0.0
13875,74.0,35.0,40.0,2.0,0.0
13876,72.0,60.0,60.0,2.0,0.0
13877,70.0,60.0,60.0,2.0,0.0
13878,69.0,60.0,60.0,2.0,0.0
13879,67.0,60.0,60.0,2.0,0.0
13880,65.0,40.0,60.0,2.0,0.0
13881,63.0,80.0,60.0,5.0,0.0
13882,46.0,3.0,240.0,5.0,0.0
13883,53.0,57.0,240.0,5.0,0.0
13884,62.0,60.0,60.0,5.0,0.0
13885,58.0,17.0,180.0,5.0,0.0
13886,63.0,60.0,60.0,5.0,0.0
13887,62.0,40.0,60.0,5.0,0.0
13888,60.0,3.0,60.0,5.0,0.0
13889,58.0,60.0,60.0,5.0,0.0
13890,57.0,60.0,60.0,5.0,0.0
13891,55.0,60.0,60.0,5.0,0.0
13892,53.0,60.0,60.0,5.0,0.0
13893,51.0,60.0,60.0,5.0,0.0
13894,50.0,60.0,60.0,5.0,0.0
13895,48.0,60.0,60.0,5.0,0.0
13896,46.0,60.0,60.0,5.0,0.0
13897,45.0,60.0,60.0,5.0,0.0
13898,43.0,60.0,60.0,5.0,0.0
13899,41.0,60.0,60.0,5.0,0.0
13900,39.0,60.0,60.0,5.0,0.0
13901,38.0,60.0,60.0,5.0,0.0
13902,36.0,240.0,60.0,5.0,0.0
13903,34.0,480.0,240.0,5.0,0.0
13904,46.0,40.0,240.0,5.0,0.0
13905,50.0,40.0,240.0,5.0,0.0
13906,53.0,40.0,240.0,5.0,0.0
13907,62.0,40.0,240.0,5.0,0.0
13908,70.0,40.0,240.0,1.0,0.0
13909,74.0,40.0,240.0,1.0,0.0
13910,77.0,40.0,240.0,1.0,0.0
13911,82.0,1620.0,240.0,1.0,0.0
13912,34.0,40.0,960.0,5.0,0.0
13913,41.0,40.0,960.0,5.0,0.0
13914,46.0,40.0,960.0,5.0,0.0
13915,82.0,40.0,960.0,1.0,0.0
13916,86.0,40.0,960.0,1.0,0.0
13917,89.0,40.0,960.0,1.0,0.0
13918,94.0,840.0,960.0,1.0,0.0
