,note,step,duration,channel,velocity
0,75.0,0.0,480.0,0.0,0.0
1,87.0,32.0,480.0,0.0,0.0
2,84.0,0.0,720.0,0.0,0.0
3,75.0,0.0,720.0,0.0,0.0
4,56.0,96.0,1290.0,0.0,0.0
5,80.0,216.0,720.0,0.0,0.0
6,60.0,0.0,240.0,0.0,0.0
7,63.0,240.0,240.0,0.0,0.0
8,60.0,0.0,480.0,0.0,0.0
9,63.0,336.0,480.0,0.0,0.0
10,87.0,24.0,210.0,0.0,0.0
11,68.0,0.0,420.0,0.0,0.0
12,75.0,0.0,420.0,0.0,0.0
13,60.0,0.0,420.0,0.0,0.0
14,87.0,48.0,420.0,0.0,0.0
15,79.0,0.0,720.0,0.0,0.0
16,58.0,96.0,1290.0,0.0,0.0
17,85.0,0.0,720.0,0.0,0.0
18,75.0,216.0,720.0,0.0,0.0
19,61.0,0.0,240.0,0.0,0.0
20,63.0,240.0,240.0,0.0,0.0
21,61.0,0.0,480.0,0.0,0.0
22,63.0,336.0,480.0,0.0,0.0
23,87.0,24.0,210.0,0.0,0.0
24,67.0,0.0,420.0,0.0,0.0
25,75.0,0.0,420.0,0.0,0.0
26,61.0,0.0,420.0,0.0,0.0
27,87.0,48.0,420.0,0.0,0.0
28,80.0,0.0,720.0,0.0,0.0
29,56.0,72.0,870.0,0.0,0.0
30,84.0,0.0,720.0,0.0,0.0
31,75.0,144.0,720.0,0.0,0.0
32,60.0,0.0,240.0,0.0,0.0
33,63.0,240.0,240.0,0.0,0.0
34,60.0,0.0,480.0,0.0,0.0
35,63.0,480.0,480.0,0.0,0.0
36,87.0,24.0,210.0,0.0,0.0
37,72.0,0.0,480.0,0.0,0.0
38,80.0,0.0,480.0,0.0,0.0
39,60.0,0.0,480.0,0.0,0.0
40,92.0,480.0,480.0,0.0,0.0
41,91.0,0.0,720.0,0.0,0.0
42,51.0,240.0,480.0,0.0,0.0
43,79.0,240.0,720.0,0.0,0.0
44,61.0,0.0,480.0,0.0,0.0
45,70.0,0.0,480.0,0.0,0.0
46,89.0,480.0,240.0,0.0,0.0
47,67.0,0.0,480.0,0.0,0.0
48,82.0,0.0,480.0,0.0,0.0
49,63.0,0.0,480.0,0.0,0.0
50,85.0,0.0,480.0,0.0,0.0
51,80.0,0.0,720.0,0.0,0.0
52,56.0,96.0,1290.0,0.0,0.0
53,84.0,0.0,720.0,0.0,0.0
54,75.0,216.0,720.0,0.0,0.0
55,60.0,0.0,240.0,0.0,0.0
56,63.0,240.0,240.0,0.0,0.0
57,60.0,0.0,480.0,0.0,0.0
58,63.0,336.0,480.0,0.0,0.0
59,87.0,24.0,210.0,0.0,0.0
60,68.0,0.0,420.0,0.0,0.0
61,75.0,0.0,420.0,0.0,0.0
62,60.0,0.0,420.0,0.0,0.0
63,87.0,48.0,420.0,0.0,0.0
64,55.0,96.0,1290.0,0.0,0.0
65,82.0,0.0,720.0,0.0,0.0
66,75.0,216.0,720.0,0.0,0.0
67,58.0,0.0,240.0,0.0,0.0
68,63.0,240.0,240.0,0.0,0.0
69,58.0,0.0,480.0,0.0,0.0
70,63.0,336.0,480.0,0.0,0.0
71,87.0,24.0,210.0,0.0,0.0
72,67.0,0.0,420.0,0.0,0.0
73,75.0,0.0,420.0,0.0,0.0
74,58.0,0.0,420.0,0.0,0.0
75,87.0,48.0,420.0,0.0,0.0
76,84.0,0.0,720.0,0.0,0.0
77,53.0,240.0,240.0,0.0,0.0
78,92.0,0.0,720.0,0.0,0.0
79,80.0,240.0,720.0,0.0,0.0
80,63.0,0.0,240.0,0.0,0.0
81,68.0,0.0,240.0,0.0,0.0
82,60.0,240.0,240.0,0.0,0.0
83,63.0,0.0,480.0,0.0,0.0
84,68.0,0.0,480.0,0.0,0.0
85,60.0,0.0,480.0,0.0,0.0
86,92.0,480.0,240.0,0.0,0.0
87,89.0,0.0,480.0,0.0,0.0
88,94.0,0.0,480.0,0.0,0.0
89,62.0,0.0,480.0,0.0,0.0
90,65.0,0.0,480.0,0.0,0.0
91,80.0,0.0,480.0,0.0,0.0
92,86.0,0.0,480.0,0.0,0.0
93,58.0,0.0,480.0,0.0,0.0
94,51.0,144.0,1290.0,0.0,0.0
95,87.0,0.0,960.0,0.0,0.0
96,79.0,0.0,960.0,0.0,0.0
97,58.0,0.0,240.0,0.0,0.0
98,63.0,480.0,240.0,0.0,0.0
99,58.0,0.0,480.0,0.0,0.0
100,63.0,336.0,480.0,0.0,0.0
101,55.0,0.0,480.0,0.0,0.0
102,63.0,0.0,480.0,0.0,0.0
103,85.0,0.0,480.0,0.0,0.0
104,82.0,0.0,480.0,0.0,0.0
105,80.0,0.0,720.0,0.0,0.0
106,56.0,96.0,1290.0,0.0,0.0
107,84.0,0.0,720.0,0.0,0.0
108,75.0,216.0,720.0,0.0,0.0
109,60.0,0.0,240.0,0.0,0.0
110,63.0,240.0,240.0,0.0,0.0
111,60.0,0.0,480.0,0.0,0.0
112,63.0,336.0,480.0,0.0,0.0
113,87.0,24.0,210.0,0.0,0.0
114,68.0,0.0,420.0,0.0,0.0
115,75.0,0.0,420.0,0.0,0.0
116,60.0,0.0,420.0,0.0,0.0
117,87.0,48.0,420.0,0.0,0.0
118,79.0,0.0,720.0,0.0,0.0
119,58.0,96.0,1290.0,0.0,0.0
120,85.0,0.0,720.0,0.0,0.0
121,75.0,216.0,720.0,0.0,0.0
122,61.0,0.0,240.0,0.0,0.0
123,63.0,240.0,240.0,0.0,0.0
124,61.0,0.0,480.0,0.0,0.0
125,63.0,336.0,480.0,0.0,0.0
126,87.0,24.0,210.0,0.0,0.0
127,67.0,0.0,420.0,0.0,0.0
128,75.0,0.0,420.0,0.0,0.0
129,61.0,0.0,420.0,0.0,0.0
130,87.0,48.0,420.0,0.0,0.0
131,80.0,0.0,720.0,0.0,0.0
132,56.0,72.0,870.0,0.0,0.0
133,84.0,0.0,720.0,0.0,0.0
134,75.0,144.0,720.0,0.0,0.0
135,60.0,0.0,240.0,0.0,0.0
136,63.0,240.0,240.0,0.0,0.0
137,60.0,0.0,480.0,0.0,0.0
138,63.0,480.0,480.0,0.0,0.0
139,87.0,24.0,210.0,0.0,0.0
140,72.0,0.0,480.0,0.0,0.0
141,80.0,0.0,480.0,0.0,0.0
142,60.0,0.0,480.0,0.0,0.0
143,92.0,480.0,480.0,0.0,0.0
144,91.0,0.0,720.0,0.0,0.0
145,51.0,240.0,480.0,0.0,0.0
146,79.0,240.0,720.0,0.0,0.0
147,61.0,0.0,480.0,0.0,0.0
148,70.0,0.0,480.0,0.0,0.0
149,89.0,480.0,240.0,0.0,0.0
150,67.0,0.0,480.0,0.0,0.0
151,82.0,0.0,480.0,0.0,0.0
152,63.0,0.0,480.0,0.0,0.0
153,85.0,0.0,480.0,0.0,0.0
154,80.0,0.0,720.0,0.0,0.0
155,56.0,96.0,1290.0,0.0,0.0
156,84.0,0.0,720.0,0.0,0.0
157,75.0,216.0,720.0,0.0,0.0
158,60.0,0.0,240.0,0.0,0.0
159,63.0,240.0,240.0,0.0,0.0
160,60.0,0.0,480.0,0.0,0.0
161,63.0,336.0,480.0,0.0,0.0
162,87.0,24.0,210.0,0.0,0.0
163,68.0,0.0,420.0,0.0,0.0
164,75.0,0.0,420.0,0.0,0.0
165,60.0,0.0,420.0,0.0,0.0
166,87.0,48.0,420.0,0.0,0.0
167,55.0,96.0,1290.0,0.0,0.0
168,82.0,0.0,720.0,0.0,0.0
169,75.0,216.0,720.0,0.0,0.0
170,58.0,0.0,240.0,0.0,0.0
171,63.0,240.0,240.0,0.0,0.0
172,58.0,0.0,480.0,0.0,0.0
173,63.0,336.0,480.0,0.0,0.0
174,87.0,24.0,210.0,0.0,0.0
175,67.0,0.0,420.0,0.0,0.0
176,75.0,0.0,420.0,0.0,0.0
177,58.0,0.0,420.0,0.0,0.0
178,87.0,48.0,420.0,0.0,0.0
179,84.0,0.0,720.0,0.0,0.0
180,53.0,240.0,240.0,0.0,0.0
181,92.0,0.0,720.0,0.0,0.0
182,80.0,240.0,720.0,0.0,0.0
183,63.0,0.0,240.0,0.0,0.0
184,68.0,0.0,240.0,0.0,0.0
185,60.0,240.0,240.0,0.0,0.0
186,63.0,0.0,480.0,0.0,0.0
187,68.0,0.0,480.0,0.0,0.0
188,60.0,0.0,480.0,0.0,0.0
189,92.0,480.0,240.0,0.0,0.0
190,89.0,0.0,480.0,0.0,0.0
191,94.0,0.0,480.0,0.0,0.0
192,62.0,0.0,480.0,0.0,0.0
193,65.0,0.0,480.0,0.0,0.0
194,80.0,0.0,480.0,0.0,0.0
195,86.0,0.0,480.0,0.0,0.0
196,58.0,0.0,480.0,0.0,0.0
197,51.0,96.0,870.0,0.0,0.0
198,87.0,0.0,960.0,0.0,0.0
199,79.0,0.0,960.0,0.0,0.0
200,58.0,0.0,240.0,0.0,0.0
201,63.0,384.0,240.0,0.0,0.0
202,58.0,0.0,480.0,0.0,0.0
203,63.0,480.0,480.0,0.0,0.0
204,55.0,0.0,480.0,0.0,0.0
205,58.0,0.0,480.0,0.0,0.0
206,87.0,0.0,480.0,0.0,0.0
207,75.0,0.0,480.0,0.0,0.0
208,51.0,0.0,870.0,0.0,0.0
209,87.0,144.0,720.0,0.0,0.0
210,79.0,72.0,870.0,0.0,0.0
211,55.0,0.0,240.0,0.0,0.0
212,58.0,240.0,240.0,0.0,0.0
213,55.0,0.0,480.0,0.0,0.0
214,58.0,432.0,480.0,0.0,0.0
215,88.0,24.0,210.0,0.0,0.0
216,79.0,0.0,420.0,0.0,0.0
217,55.0,0.0,420.0,0.0,0.0
218,88.0,0.0,420.0,0.0,0.0
219,49.0,0.0,420.0,0.0,0.0
220,58.0,48.0,420.0,0.0,0.0
221,51.0,0.0,870.0,0.0,0.0
222,87.0,144.0,720.0,0.0,0.0
223,79.0,72.0,870.0,0.0,0.0
224,55.0,0.0,240.0,0.0,0.0
225,58.0,240.0,240.0,0.0,0.0
226,55.0,0.0,480.0,0.0,0.0
227,58.0,432.0,480.0,0.0,0.0
228,85.0,24.0,210.0,0.0,0.0
229,79.0,0.0,420.0,0.0,0.0
230,55.0,0.0,420.0,0.0,0.0
231,85.0,0.0,420.0,0.0,0.0
232,52.0,0.0,420.0,0.0,0.0
233,58.0,48.0,420.0,0.0,0.0
234,52.0,0.0,870.0,0.0,0.0
235,83.0,144.0,720.0,0.0,0.0
236,80.0,72.0,870.0,0.0,0.0
237,56.0,0.0,240.0,0.0,0.0
238,59.0,240.0,240.0,0.0,0.0
239,56.0,0.0,480.0,0.0,0.0
240,59.0,432.0,480.0,0.0,0.0
241,85.0,24.0,210.0,0.0,0.0
242,82.0,0.0,420.0,0.0,0.0
243,55.0,0.0,420.0,0.0,0.0
244,85.0,0.0,420.0,0.0,0.0
245,58.0,48.0,420.0,0.0,0.0
246,52.0,0.0,870.0,0.0,0.0
247,83.0,144.0,720.0,0.0,0.0
248,80.0,72.0,870.0,0.0,0.0
249,56.0,0.0,240.0,0.0,0.0
250,59.0,240.0,240.0,0.0,0.0
251,56.0,0.0,480.0,0.0,0.0
252,59.0,432.0,480.0,0.0,0.0
253,82.0,24.0,210.0,0.0,0.0
254,79.0,0.0,420.0,0.0,0.0
255,58.0,0.0,420.0,0.0,0.0
256,82.0,0.0,420.0,0.0,0.0
257,67.0,48.0,420.0,0.0,0.0
258,52.0,288.0,420.0,0.0,0.0
259,80.0,144.0,720.0,0.0,0.0
260,74.0,48.0,870.0,0.0,0.0
261,59.0,0.0,420.0,0.0,0.0
262,68.0,24.0,420.0,0.0,0.0
263,82.0,456.0,210.0,0.0,0.0
264,74.0,0.0,420.0,0.0,0.0
265,58.0,0.0,420.0,0.0,0.0
266,82.0,0.0,420.0,0.0,0.0
267,67.0,528.0,420.0,0.0,0.0
268,52.0,96.0,1290.0,0.0,0.0
269,71.0,240.0,480.0,0.0,0.0
270,62.0,0.0,960.0,0.0,0.0
271,80.0,216.0,720.0,0.0,0.0
272,70.0,336.0,480.0,0.0,0.0
273,74.0,24.0,210.0,0.0,0.0
274,74.0,0.0,420.0,0.0,0.0
275,56.0,0.0,420.0,0.0,0.0
276,68.0,48.0,420.0,0.0,0.0
277,75.0,216.0,720.0,0.0,0.0
278,51.0,240.0,240.0,0.0,0.0
279,67.0,0.0,240.0,0.0,0.0
280,58.0,240.0,240.0,0.0,0.0
281,67.0,0.0,480.0,0.0,0.0
282,58.0,432.0,480.0,0.0,0.0
283,87.0,24.0,210.0,0.0,0.0
284,56.0,0.0,420.0,0.0,0.0
285,65.0,0.0,420.0,0.0,0.0
286,87.0,48.0,420.0,0.0,0.0
287,75.0,216.0,720.0,0.0,0.0
288,51.0,240.0,240.0,0.0,0.0
289,63.0,0.0,240.0,0.0,0.0
290,55.0,240.0,240.0,0.0,0.0
291,63.0,0.0,480.0,0.0,0.0
292,55.0,432.0,480.0,0.0,0.0
293,87.0,24.0,210.0,0.0,0.0
294,53.0,0.0,420.0,0.0,0.0
295,61.0,0.0,420.0,0.0,0.0
296,87.0,48.0,420.0,0.0,0.0
297,75.0,216.0,720.0,0.0,0.0
298,44.0,0.0,240.0,0.0,0.0
299,51.0,240.0,240.0,0.0,0.0
300,60.0,240.0,240.0,0.0,0.0
301,60.0,0.0,480.0,0.0,0.0
302,63.0,432.0,480.0,0.0,0.0
303,87.0,24.0,210.0,0.0,0.0
304,63.0,0.0,420.0,0.0,0.0
305,75.0,0.0,420.0,0.0,0.0
306,60.0,0.0,420.0,0.0,0.0
307,87.0,48.0,420.0,0.0,0.0
308,79.0,0.0,720.0,0.0,0.0
309,58.0,96.0,1290.0,0.0,0.0
310,85.0,0.0,720.0,0.0,0.0
311,75.0,216.0,720.0,0.0,0.0
312,61.0,0.0,240.0,0.0,0.0
313,63.0,240.0,240.0,0.0,0.0
314,61.0,0.0,480.0,0.0,0.0
315,63.0,336.0,480.0,0.0,0.0
316,87.0,24.0,210.0,0.0,0.0
317,67.0,0.0,420.0,0.0,0.0
318,75.0,0.0,420.0,0.0,0.0
319,61.0,0.0,420.0,0.0,0.0
320,87.0,48.0,420.0,0.0,0.0
321,80.0,0.0,720.0,0.0,0.0
322,56.0,72.0,870.0,0.0,0.0
323,84.0,0.0,720.0,0.0,0.0
324,75.0,144.0,720.0,0.0,0.0
325,60.0,0.0,240.0,0.0,0.0
326,63.0,240.0,240.0,0.0,0.0
327,60.0,0.0,480.0,0.0,0.0
328,63.0,480.0,480.0,0.0,0.0
329,87.0,24.0,210.0,0.0,0.0
330,72.0,0.0,480.0,0.0,0.0
331,80.0,0.0,480.0,0.0,0.0
332,60.0,0.0,480.0,0.0,0.0
333,92.0,240.0,480.0,0.0,0.0
334,91.0,0.0,720.0,0.0,0.0
335,51.0,216.0,240.0,0.0,0.0
336,79.0,240.0,720.0,0.0,0.0
337,70.0,0.0,210.0,0.0,0.0
338,61.0,264.0,210.0,0.0,0.0
339,61.0,0.0,480.0,0.0,0.0
340,70.0,0.0,480.0,0.0,0.0
341,89.0,432.0,240.0,0.0,0.0
342,67.0,0.0,420.0,0.0,0.0
343,82.0,0.0,420.0,0.0,0.0
344,63.0,0.0,420.0,0.0,0.0
345,85.0,48.0,420.0,0.0,0.0
346,80.0,0.0,720.0,0.0,0.0
347,56.0,72.0,870.0,0.0,0.0
348,84.0,0.0,720.0,0.0,0.0
349,75.0,144.0,720.0,0.0,0.0
350,60.0,0.0,240.0,0.0,0.0
351,63.0,240.0,240.0,0.0,0.0
352,60.0,0.0,480.0,0.0,0.0
353,63.0,432.0,480.0,0.0,0.0
354,87.0,24.0,210.0,0.0,0.0
355,60.0,0.0,420.0,0.0,0.0
356,75.0,0.0,420.0,0.0,0.0
357,56.0,0.0,420.0,0.0,0.0
358,87.0,48.0,420.0,0.0,0.0
359,55.0,96.0,1290.0,0.0,0.0
360,87.0,0.0,720.0,0.0,0.0
361,84.0,216.0,720.0,0.0,0.0
362,63.0,0.0,240.0,0.0,0.0
363,67.0,240.0,240.0,0.0,0.0
364,63.0,0.0,480.0,0.0,0.0
365,67.0,336.0,480.0,0.0,0.0
366,96.0,24.0,210.0,0.0,0.0
367,63.0,0.0,420.0,0.0,0.0
368,84.0,0.0,420.0,0.0,0.0
369,60.0,0.0,420.0,0.0,0.0
370,96.0,264.0,420.0,0.0,0.0
371,51.0,24.0,420.0,0.0,0.0
372,87.0,216.0,210.0,0.0,0.0
373,96.0,456.0,210.0,0.0,0.0
374,61.0,0.0,480.0,0.0,0.0
375,97.0,0.0,420.0,0.0,0.0
376,65.0,0.0,480.0,0.0,0.0
377,85.0,48.0,420.0,0.0,0.0
378,70.0,216.0,480.0,0.0,0.0
379,58.0,0.0,480.0,0.0,0.0
380,91.0,216.0,240.0,0.0,0.0
381,63.0,0.0,480.0,0.0,0.0
382,87.0,24.0,210.0,0.0,0.0
383,51.0,0.0,480.0,0.0,0.0
384,85.0,24.0,210.0,0.0,0.0
385,84.0,0.0,960.0,0.0,0.0
386,92.0,0.0,960.0,0.0,0.0
387,56.0,96.0,870.0,0.0,0.0
388,60.0,0.0,240.0,0.0,0.0
389,63.0,384.0,240.0,0.0,0.0
390,60.0,0.0,480.0,0.0,0.0
391,63.0,480.0,480.0,0.0,0.0
392,48.0,0.0,480.0,0.0,0.0
393,87.0,0.0,480.0,0.0,0.0
394,75.0,0.0,480.0,0.0,0.0
395,51.0,0.0,870.0,0.0,0.0
396,87.0,144.0,720.0,0.0,0.0
397,79.0,72.0,870.0,0.0,0.0
398,55.0,0.0,240.0,0.0,0.0
399,58.0,240.0,240.0,0.0,0.0
400,55.0,0.0,480.0,0.0,0.0
401,58.0,432.0,480.0,0.0,0.0
402,88.0,24.0,210.0,0.0,0.0
403,79.0,0.0,420.0,0.0,0.0
404,55.0,0.0,420.0,0.0,0.0
405,88.0,0.0,420.0,0.0,0.0
406,49.0,0.0,420.0,0.0,0.0
407,58.0,48.0,420.0,0.0,0.0
408,51.0,0.0,870.0,0.0,0.0
409,87.0,144.0,720.0,0.0,0.0
410,79.0,72.0,870.0,0.0,0.0
411,55.0,0.0,240.0,0.0,0.0
412,58.0,240.0,240.0,0.0,0.0
413,55.0,0.0,480.0,0.0,0.0
414,58.0,460.0,480.0,0.0,0.0
415,85.0,24.0,210.0,0.0,0.0
416,79.0,0.0,450.0,0.0,0.0
417,55.0,0.0,450.0,0.0,0.0
418,85.0,0.0,450.0,0.0,0.0
419,52.0,0.0,450.0,0.0,0.0
420,58.0,20.0,450.0,0.0,0.0
421,52.0,0.0,870.0,0.0,0.0
422,83.0,144.0,720.0,0.0,0.0
423,80.0,72.0,870.0,0.0,0.0
424,56.0,0.0,240.0,0.0,0.0
425,59.0,240.0,240.0,0.0,0.0
426,56.0,0.0,480.0,0.0,0.0
427,59.0,432.0,480.0,0.0,0.0
428,85.0,24.0,210.0,0.0,0.0
429,82.0,0.0,420.0,0.0,0.0
430,55.0,0.0,420.0,0.0,0.0
431,85.0,0.0,420.0,0.0,0.0
432,58.0,48.0,420.0,0.0,0.0
433,52.0,0.0,870.0,0.0,0.0
434,83.0,144.0,720.0,0.0,0.0
435,80.0,72.0,870.0,0.0,0.0
436,56.0,0.0,240.0,0.0,0.0
437,59.0,240.0,240.0,0.0,0.0
438,56.0,0.0,480.0,0.0,0.0
439,59.0,432.0,480.0,0.0,0.0
440,82.0,24.0,210.0,0.0,0.0
441,79.0,0.0,420.0,0.0,0.0
442,58.0,0.0,420.0,0.0,0.0
443,82.0,0.0,420.0,0.0,0.0
444,67.0,48.0,420.0,0.0,0.0
445,52.0,288.0,420.0,0.0,0.0
446,80.0,144.0,720.0,0.0,0.0
447,74.0,48.0,870.0,0.0,0.0
448,59.0,0.0,420.0,0.0,0.0
449,68.0,24.0,420.0,0.0,0.0
450,82.0,456.0,210.0,0.0,0.0
451,74.0,0.0,420.0,0.0,0.0
452,58.0,0.0,420.0,0.0,0.0
453,82.0,0.0,420.0,0.0,0.0
454,67.0,528.0,420.0,0.0,0.0
455,52.0,96.0,1290.0,0.0,0.0
456,71.0,240.0,480.0,0.0,0.0
457,62.0,0.0,960.0,0.0,0.0
458,80.0,216.0,720.0,0.0,0.0
459,70.0,336.0,480.0,0.0,0.0
460,74.0,24.0,210.0,0.0,0.0
461,74.0,0.0,420.0,0.0,0.0
462,56.0,0.0,420.0,0.0,0.0
463,68.0,48.0,420.0,0.0,0.0
464,75.0,216.0,720.0,0.0,0.0
465,51.0,240.0,240.0,0.0,0.0
466,67.0,0.0,240.0,0.0,0.0
467,58.0,240.0,240.0,0.0,0.0
468,67.0,0.0,480.0,0.0,0.0
469,58.0,432.0,480.0,0.0,0.0
470,87.0,24.0,210.0,0.0,0.0
471,56.0,0.0,420.0,0.0,0.0
472,65.0,0.0,420.0,0.0,0.0
473,87.0,48.0,420.0,0.0,0.0
474,75.0,216.0,720.0,0.0,0.0
475,51.0,240.0,240.0,0.0,0.0
476,63.0,0.0,240.0,0.0,0.0
477,55.0,240.0,240.0,0.0,0.0
478,63.0,0.0,480.0,0.0,0.0
479,55.0,432.0,480.0,0.0,0.0
480,87.0,24.0,210.0,0.0,0.0
481,53.0,0.0,420.0,0.0,0.0
482,61.0,0.0,420.0,0.0,0.0
483,87.0,48.0,420.0,0.0,0.0
484,75.0,216.0,720.0,0.0,0.0
485,44.0,0.0,240.0,0.0,0.0
486,51.0,240.0,240.0,0.0,0.0
487,60.0,240.0,240.0,0.0,0.0
488,60.0,0.0,480.0,0.0,0.0
489,63.0,432.0,480.0,0.0,0.0
490,87.0,24.0,210.0,0.0,0.0
491,63.0,0.0,420.0,0.0,0.0
492,75.0,0.0,420.0,0.0,0.0
493,60.0,0.0,420.0,0.0,0.0
494,87.0,48.0,420.0,0.0,0.0
495,79.0,0.0,720.0,0.0,0.0
496,58.0,96.0,1290.0,0.0,0.0
497,85.0,0.0,720.0,0.0,0.0
498,75.0,216.0,720.0,0.0,0.0
499,61.0,0.0,240.0,0.0,0.0
500,63.0,240.0,240.0,0.0,0.0
501,61.0,0.0,480.0,0.0,0.0
502,63.0,336.0,480.0,0.0,0.0
503,87.0,24.0,210.0,0.0,0.0
504,67.0,0.0,420.0,0.0,0.0
505,75.0,0.0,420.0,0.0,0.0
506,61.0,0.0,420.0,0.0,0.0
507,87.0,48.0,420.0,0.0,0.0
508,80.0,0.0,720.0,0.0,0.0
509,56.0,72.0,870.0,0.0,0.0
510,84.0,0.0,720.0,0.0,0.0
511,75.0,144.0,720.0,0.0,0.0
512,60.0,0.0,240.0,0.0,0.0
513,63.0,240.0,240.0,0.0,0.0
514,60.0,0.0,480.0,0.0,0.0
515,63.0,480.0,480.0,0.0,0.0
516,87.0,24.0,210.0,0.0,0.0
517,72.0,0.0,480.0,0.0,0.0
518,80.0,0.0,480.0,0.0,0.0
519,60.0,0.0,480.0,0.0,0.0
520,92.0,240.0,480.0,0.0,0.0
521,91.0,0.0,720.0,0.0,0.0
522,51.0,216.0,240.0,0.0,0.0
523,79.0,240.0,720.0,0.0,0.0
524,70.0,0.0,210.0,0.0,0.0
525,61.0,264.0,210.0,0.0,0.0
526,61.0,0.0,480.0,0.0,0.0
527,70.0,0.0,480.0,0.0,0.0
528,89.0,432.0,240.0,0.0,0.0
529,67.0,0.0,420.0,0.0,0.0
530,82.0,0.0,420.0,0.0,0.0
531,63.0,0.0,420.0,0.0,0.0
532,85.0,48.0,420.0,0.0,0.0
533,80.0,0.0,720.0,0.0,0.0
534,56.0,72.0,870.0,0.0,0.0
535,84.0,0.0,720.0,0.0,0.0
536,75.0,144.0,720.0,0.0,0.0
537,60.0,0.0,240.0,0.0,0.0
538,63.0,240.0,240.0,0.0,0.0
539,60.0,0.0,480.0,0.0,0.0
540,63.0,432.0,480.0,0.0,0.0
541,87.0,24.0,210.0,0.0,0.0
542,60.0,0.0,420.0,0.0,0.0
543,75.0,0.0,420.0,0.0,0.0
544,56.0,0.0,420.0,0.0,0.0
545,87.0,48.0,420.0,0.0,0.0
546,55.0,96.0,1290.0,0.0,0.0
547,87.0,0.0,720.0,0.0,0.0
548,84.0,216.0,720.0,0.0,0.0
549,63.0,0.0,240.0,0.0,0.0
550,67.0,240.0,240.0,0.0,0.0
551,63.0,0.0,480.0,0.0,0.0
552,67.0,336.0,480.0,0.0,0.0
553,96.0,24.0,210.0,0.0,0.0
554,63.0,0.0,420.0,0.0,0.0
555,84.0,0.0,420.0,0.0,0.0
556,60.0,0.0,420.0,0.0,0.0
557,96.0,264.0,420.0,0.0,0.0
558,51.0,24.0,420.0,0.0,0.0
559,87.0,216.0,210.0,0.0,0.0
560,96.0,456.0,210.0,0.0,0.0
561,61.0,0.0,480.0,0.0,0.0
562,97.0,0.0,420.0,0.0,0.0
563,65.0,0.0,480.0,0.0,0.0
564,85.0,48.0,420.0,0.0,0.0
565,70.0,216.0,480.0,0.0,0.0
566,58.0,0.0,480.0,0.0,0.0
567,91.0,216.0,240.0,0.0,0.0
568,63.0,0.0,480.0,0.0,0.0
569,87.0,24.0,210.0,0.0,0.0
570,51.0,0.0,480.0,0.0,0.0
571,85.0,24.0,210.0,0.0,0.0
572,44.0,460.0,480.0,0.0,0.0
573,92.0,0.0,960.0,0.0,0.0
574,84.0,0.0,960.0,0.0,0.0
575,63.0,0.0,450.0,0.0,0.0
576,56.0,0.0,450.0,0.0,0.0
577,60.0,20.0,450.0,0.0,0.0
