,note,step,duration,channel,velocity
0,45.0,216.0,90.0,1.0,64.0
1,38.0,144.0,180.0,1.0,64.0
2,45.0,216.0,90.0,1.0,64.0
3,38.0,24.0,180.0,1.0,64.0
4,57.0,0.0,90.0,1.0,64.0
5,69.0,120.0,90.0,0.0,64.0
6,69.0,0.0,90.0,0.0,64.0
7,45.0,120.0,90.0,1.0,64.0
8,57.0,0.0,90.0,1.0,64.0
9,54.0,0.0,90.0,1.0,64.0
10,62.0,96.0,90.0,1.0,64.0
11,38.0,24.0,180.0,1.0,64.0
12,74.0,0.0,90.0,0.0,64.0
13,55.0,0.0,90.0,1.0,64.0
14,76.0,120.0,90.0,0.0,64.0
15,64.0,0.0,90.0,1.0,64.0
16,66.0,0.0,90.0,1.0,64.0
17,57.0,0.0,90.0,1.0,64.0
18,45.0,0.0,90.0,1.0,64.0
19,78.0,120.0,90.0,0.0,64.0
20,54.0,0.0,90.0,1.0,64.0
21,38.0,24.0,180.0,1.0,64.0
22,74.0,96.0,90.0,0.0,64.0
23,62.0,0.0,90.0,1.0,64.0
24,61.0,0.0,90.0,1.0,64.0
25,52.0,120.0,90.0,1.0,64.0
26,73.0,0.0,90.0,0.0,64.0
27,71.0,0.0,90.0,0.0,64.0
28,45.0,0.0,90.0,1.0,64.0
29,50.0,0.0,90.0,1.0,64.0
30,59.0,120.0,90.0,1.0,64.0
31,38.0,24.0,180.0,1.0,64.0
32,49.0,0.0,90.0,1.0,64.0
33,57.0,96.0,90.0,1.0,64.0
34,69.0,0.0,90.0,0.0,64.0
35,71.0,0.0,90.0,0.0,64.0
36,50.0,120.0,90.0,1.0,64.0
37,59.0,0.0,90.0,1.0,64.0
38,45.0,120.0,90.0,1.0,64.0
39,61.0,0.0,90.0,1.0,64.0
40,52.0,0.0,90.0,1.0,64.0
41,73.0,0.0,90.0,0.0,64.0
42,62.0,0.0,90.0,1.0,64.0
43,54.0,0.0,90.0,1.0,64.0
44,38.0,24.0,180.0,1.0,64.0
45,74.0,96.0,90.0,0.0,64.0
46,64.0,0.0,90.0,1.0,64.0
47,76.0,120.0,90.0,0.0,64.0
48,55.0,0.0,90.0,1.0,64.0
49,66.0,0.0,90.0,1.0,64.0
50,78.0,216.0,90.0,0.0,64.0
51,50.0,0.0,90.0,1.0,64.0
52,57.0,0.0,90.0,1.0,64.0
53,79.0,144.0,180.0,0.0,64.0
54,43.0,0.0,180.0,1.0,64.0
55,59.0,0.0,180.0,1.0,64.0
56,67.0,0.0,180.0,1.0,64.0
57,78.0,0.0,90.0,0.0,64.0
58,66.0,0.0,90.0,1.0,64.0
59,50.0,120.0,90.0,1.0,64.0
60,57.0,0.0,90.0,1.0,64.0
61,66.0,96.0,90.0,1.0,64.0
62,78.0,0.0,90.0,0.0,64.0
63,57.0,48.0,300.0,1.0,64.0
64,62.0,0.0,90.0,1.0,64.0
65,38.0,24.0,180.0,1.0,64.0
66,67.0,0.0,90.0,1.0,64.0
67,64.0,72.0,90.0,1.0,64.0
68,79.0,0.0,90.0,0.0,64.0
69,69.0,120.0,90.0,1.0,64.0
70,45.0,0.0,90.0,1.0,64.0
71,66.0,0.0,90.0,1.0,64.0
72,81.0,0.0,90.0,0.0,64.0
73,78.0,0.0,90.0,0.0,64.0
74,38.0,24.0,180.0,1.0,64.0
75,57.0,0.0,90.0,1.0,64.0
76,66.0,96.0,90.0,1.0,64.0
77,55.0,0.0,90.0,1.0,64.0
78,64.0,0.0,90.0,1.0,64.0
79,76.0,120.0,90.0,0.0,64.0
80,54.0,0.0,90.0,1.0,64.0
81,62.0,0.0,90.0,1.0,64.0
82,74.0,0.0,90.0,0.0,64.0
83,45.0,120.0,90.0,1.0,64.0
84,73.0,0.0,90.0,0.0,64.0
85,38.0,24.0,180.0,1.0,64.0
86,52.0,96.0,90.0,1.0,64.0
87,61.0,0.0,90.0,1.0,64.0
88,62.0,0.0,90.0,1.0,64.0
89,74.0,0.0,90.0,0.0,64.0
90,54.0,120.0,90.0,1.0,64.0
91,45.0,0.0,90.0,1.0,64.0
92,64.0,120.0,90.0,1.0,64.0
93,55.0,0.0,90.0,1.0,64.0
94,76.0,0.0,90.0,0.0,64.0
95,66.0,96.0,90.0,1.0,64.0
96,78.0,0.0,90.0,0.0,64.0
97,38.0,24.0,180.0,1.0,64.0
98,57.0,0.0,90.0,1.0,64.0
99,59.0,120.0,90.0,1.0,64.0
100,67.0,0.0,90.0,1.0,64.0
101,79.0,0.0,90.0,0.0,64.0
102,60.0,0.0,90.0,1.0,64.0
103,81.0,216.0,90.0,0.0,64.0
104,50.0,0.0,90.0,1.0,64.0
105,69.0,0.0,90.0,1.0,64.0
106,83.0,0.0,180.0,0.0,64.0
107,43.0,144.0,180.0,1.0,64.0
108,71.0,0.0,180.0,1.0,64.0
109,62.0,0.0,180.0,1.0,64.0
110,59.0,120.0,90.0,1.0,64.0
111,67.0,0.0,90.0,1.0,64.0
112,55.0,0.0,90.0,1.0,64.0
113,79.0,0.0,90.0,0.0,64.0
114,62.0,96.0,90.0,1.0,64.0
115,76.0,0.0,90.0,0.0,64.0
116,64.0,0.0,180.0,1.0,64.0
117,45.0,24.0,180.0,1.0,64.0
118,57.0,0.0,180.0,1.0,64.0
119,61.0,0.0,90.0,1.0,64.0
120,76.0,120.0,90.0,0.0,64.0
121,78.0,0.0,90.0,0.0,64.0
122,45.0,120.0,90.0,1.0,64.0
123,60.0,0.0,90.0,1.0,64.0
124,66.0,0.0,90.0,1.0,64.0
125,57.0,0.0,90.0,1.0,64.0
126,40.0,24.0,180.0,1.0,64.0
127,67.0,0.0,180.0,1.0,64.0
128,66.0,0.0,90.0,1.0,64.0
129,55.0,0.0,180.0,1.0,64.0
130,59.0,0.0,180.0,1.0,64.0
131,79.0,96.0,90.0,0.0,64.0
132,64.0,120.0,90.0,1.0,64.0
133,79.0,0.0,90.0,0.0,64.0
134,40.0,0.0,90.0,1.0,64.0
135,67.0,0.0,90.0,1.0,64.0
136,79.0,0.0,90.0,0.0,64.0
137,59.0,120.0,90.0,1.0,64.0
138,62.0,0.0,90.0,1.0,64.0
139,67.0,36.0,180.0,1.0,64.0
140,62.0,72.0,90.0,1.0,64.0
141,57.0,0.0,180.0,1.0,64.0
142,33.0,0.0,180.0,1.0,64.0
143,79.0,0.0,180.0,0.0,64.0
144,61.0,24.0,60.0,1.0,64.0
145,59.0,108.0,60.0,1.0,64.0
146,45.0,0.0,90.0,1.0,64.0
147,61.0,0.0,90.0,1.0,64.0
148,69.0,0.0,90.0,1.0,64.0
149,67.0,120.0,90.0,1.0,64.0
150,79.0,0.0,90.0,0.0,64.0
151,69.0,0.0,180.0,1.0,64.0
152,62.0,0.0,180.0,1.0,64.0
153,67.0,96.0,90.0,1.0,64.0
154,38.0,24.0,180.0,1.0,64.0
155,79.0,0.0,90.0,0.0,64.0
156,78.0,0.0,90.0,0.0,64.0
157,66.0,120.0,90.0,1.0,64.0
158,65.0,0.0,90.0,1.0,64.0
159,62.0,0.0,90.0,1.0,64.0
160,69.0,0.0,90.0,1.0,64.0
161,77.0,120.0,90.0,0.0,64.0
162,50.0,0.0,90.0,1.0,64.0
163,71.0,0.0,90.0,1.0,64.0
164,69.0,72.0,90.0,1.0,64.0
165,64.0,36.0,180.0,1.0,64.0
166,71.0,0.0,180.0,1.0,64.0
167,76.0,0.0,180.0,0.0,64.0
168,40.0,0.0,180.0,1.0,64.0
169,68.0,24.0,60.0,1.0,64.0
170,66.0,108.0,60.0,1.0,64.0
171,74.0,216.0,90.0,0.0,64.0
172,52.0,0.0,90.0,1.0,64.0
173,68.0,0.0,90.0,1.0,64.0
174,71.0,0.0,90.0,1.0,64.0
175,64.0,0.0,90.0,1.0,64.0
176,40.0,0.0,180.0,1.0,64.0
177,64.0,24.0,180.0,1.0,64.0
178,69.0,0.0,180.0,1.0,64.0
179,73.0,0.0,180.0,1.0,64.0
180,73.0,120.0,90.0,0.0,64.0
181,76.0,0.0,90.0,1.0,64.0
182,64.0,0.0,90.0,1.0,64.0
183,76.0,0.0,90.0,0.0,64.0
184,71.0,120.0,90.0,1.0,64.0
185,52.0,0.0,90.0,1.0,64.0
186,69.0,0.0,180.0,1.0,64.0
187,73.0,24.0,180.0,1.0,64.0
188,81.0,96.0,90.0,0.0,64.0
189,81.0,0.0,180.0,1.0,64.0
190,40.0,0.0,180.0,1.0,64.0
191,81.0,120.0,90.0,0.0,64.0
192,76.0,0.0,90.0,0.0,64.0
193,52.0,0.0,90.0,1.0,64.0
194,64.0,216.0,90.0,1.0,64.0
195,71.0,0.0,90.0,1.0,64.0
196,76.0,0.0,90.0,1.0,64.0
197,40.0,0.0,180.0,1.0,64.0
198,73.0,144.0,180.0,1.0,64.0
199,73.0,0.0,180.0,0.0,64.0
200,64.0,0.0,180.0,1.0,64.0
201,69.0,0.0,180.0,1.0,64.0
202,64.0,0.0,90.0,1.0,64.0
203,52.0,0.0,90.0,1.0,64.0
204,71.0,0.0,90.0,1.0,64.0
205,71.0,216.0,90.0,0.0,64.0
206,40.0,0.0,180.0,1.0,64.0
207,69.0,0.0,180.0,1.0,64.0
208,61.0,0.0,180.0,1.0,64.0
209,69.0,144.0,180.0,0.0,64.0
210,59.0,216.0,90.0,1.0,64.0
211,64.0,0.0,90.0,1.0,64.0
212,52.0,0.0,90.0,1.0,64.0
213,40.0,0.0,180.0,1.0,64.0
214,61.0,144.0,180.0,1.0,64.0
215,57.0,0.0,180.0,1.0,64.0
216,59.0,0.0,90.0,1.0,64.0
217,52.0,0.0,90.0,1.0,64.0
218,83.0,96.0,90.0,1.0,64.0
219,71.0,0.0,90.0,1.0,64.0
220,40.0,24.0,180.0,1.0,64.0
221,79.0,0.0,90.0,1.0,64.0
222,83.0,0.0,180.0,0.0,64.0
223,81.0,0.0,90.0,1.0,64.0
224,78.0,120.0,90.0,1.0,64.0
225,69.0,0.0,90.0,1.0,64.0
226,52.0,0.0,90.0,1.0,64.0
227,79.0,0.0,90.0,1.0,64.0
228,76.0,120.0,90.0,1.0,64.0
229,67.0,0.0,90.0,1.0,64.0
230,79.0,0.0,90.0,0.0,64.0
231,47.0,24.0,180.0,1.0,64.0
232,75.0,0.0,90.0,1.0,64.0
233,78.0,0.0,90.0,0.0,64.0
234,66.0,96.0,90.0,1.0,64.0
235,78.0,0.0,90.0,1.0,64.0
236,76.0,0.0,90.0,1.0,64.0
237,79.0,0.0,90.0,1.0,64.0
238,79.0,120.0,90.0,0.0,64.0
239,67.0,0.0,90.0,1.0,64.0
240,81.0,0.0,90.0,0.0,64.0
241,78.0,0.0,90.0,1.0,64.0
242,69.0,0.0,90.0,1.0,64.0
243,81.0,120.0,90.0,1.0,64.0
244,59.0,0.0,90.0,1.0,64.0
245,79.0,0.0,90.0,1.0,64.0
246,52.0,0.0,180.0,1.0,64.0
247,76.0,0.0,90.0,1.0,64.0
248,79.0,24.0,180.0,0.0,64.0
249,67.0,96.0,90.0,1.0,64.0
250,74.0,0.0,90.0,1.0,64.0
251,66.0,0.0,90.0,1.0,64.0
252,78.0,120.0,90.0,1.0,64.0
253,76.0,120.0,90.0,1.0,64.0
254,73.0,0.0,90.0,1.0,64.0
255,64.0,0.0,90.0,1.0,64.0
256,52.0,0.0,90.0,1.0,64.0
257,73.0,0.0,90.0,1.0,64.0
258,54.0,24.0,180.0,1.0,64.0
259,61.0,0.0,90.0,1.0,64.0
260,70.0,0.0,90.0,1.0,64.0
261,73.0,96.0,90.0,0.0,64.0
262,74.0,0.0,90.0,0.0,64.0
263,74.0,0.0,90.0,1.0,64.0
264,62.0,0.0,90.0,1.0,64.0
265,71.0,120.0,90.0,1.0,64.0
266,64.0,0.0,90.0,1.0,64.0
267,76.0,0.0,90.0,1.0,64.0
268,73.0,0.0,90.0,1.0,64.0
269,76.0,120.0,90.0,0.0,64.0
270,42.0,0.0,90.0,1.0,64.0
271,74.0,0.0,90.0,1.0,64.0
272,78.0,0.0,180.0,0.0,64.0
273,35.0,24.0,180.0,1.0,64.0
274,66.0,96.0,90.0,1.0,64.0
275,78.0,0.0,90.0,1.0,64.0
276,76.0,0.0,90.0,1.0,64.0
277,64.0,120.0,90.0,1.0,64.0
278,73.0,0.0,90.0,1.0,64.0
279,74.0,0.0,90.0,0.0,64.0
280,62.0,0.0,90.0,1.0,64.0
281,71.0,0.0,90.0,1.0,64.0
282,74.0,120.0,90.0,1.0,64.0
283,47.0,0.0,90.0,1.0,64.0
284,73.0,0.0,90.0,1.0,64.0
285,61.0,0.0,90.0,1.0,64.0
286,70.0,96.0,90.0,1.0,64.0
287,73.0,0.0,180.0,0.0,64.0
288,42.0,24.0,180.0,1.0,64.0
289,59.0,120.0,90.0,1.0,64.0
290,68.0,0.0,90.0,1.0,64.0
291,71.0,0.0,90.0,1.0,64.0
292,54.0,0.0,90.0,1.0,64.0
293,70.0,0.0,90.0,1.0,64.0
294,66.0,120.0,90.0,1.0,64.0
295,58.0,0.0,90.0,1.0,64.0
296,66.0,0.0,90.0,1.0,64.0
297,69.0,96.0,90.0,1.0,64.0
298,57.0,0.0,90.0,1.0,64.0
299,42.0,24.0,180.0,1.0,64.0
300,85.0,0.0,180.0,0.0,64.0
301,59.0,0.0,90.0,1.0,64.0
302,71.0,120.0,90.0,1.0,64.0
303,68.0,0.0,90.0,1.0,64.0
304,54.0,0.0,90.0,1.0,64.0
305,61.0,0.0,90.0,1.0,64.0
306,69.0,0.0,90.0,1.0,64.0
307,81.0,120.0,90.0,0.0,64.0
308,73.0,0.0,90.0,1.0,64.0
309,80.0,0.0,90.0,0.0,64.0
310,73.0,96.0,90.0,1.0,64.0
311,37.0,24.0,180.0,1.0,64.0
312,77.0,0.0,90.0,1.0,64.0
313,65.0,0.0,90.0,1.0,64.0
314,66.0,0.0,90.0,1.0,64.0
315,75.0,0.0,90.0,1.0,64.0
316,81.0,120.0,90.0,0.0,64.0
317,78.0,0.0,90.0,1.0,64.0
318,80.0,0.0,90.0,1.0,64.0
319,77.0,0.0,90.0,1.0,64.0
320,49.0,0.0,90.0,1.0,64.0
321,68.0,120.0,90.0,1.0,64.0
322,83.0,0.0,90.0,0.0,64.0
323,81.0,0.0,180.0,0.0,64.0
324,42.0,24.0,180.0,1.0,64.0
325,81.0,96.0,90.0,1.0,64.0
326,78.0,0.0,90.0,1.0,64.0
327,69.0,0.0,90.0,1.0,64.0
328,54.0,0.0,180.0,1.0,64.0
329,68.0,0.0,90.0,1.0,64.0
330,77.0,0.0,90.0,1.0,64.0
331,71.0,120.0,90.0,1.0,64.0
332,78.0,120.0,90.0,1.0,64.0
333,73.0,0.0,90.0,1.0,64.0
334,69.0,0.0,90.0,1.0,64.0
335,45.0,0.0,300.0,1.0,64.0
336,73.0,0.0,90.0,1.0,64.0
337,57.0,24.0,180.0,1.0,64.0
338,81.0,96.0,90.0,1.0,64.0
339,78.0,0.0,90.0,1.0,64.0
340,68.0,120.0,90.0,1.0,64.0
341,71.0,0.0,90.0,1.0,64.0
342,77.0,0.0,90.0,1.0,64.0
343,73.0,0.0,90.0,1.0,64.0
344,69.0,0.0,90.0,1.0,64.0
345,78.0,0.0,90.0,1.0,64.0
346,45.0,120.0,90.0,1.0,64.0
347,62.0,0.0,90.0,1.0,64.0
348,57.0,0.0,180.0,1.0,64.0
349,75.0,0.0,90.0,1.0,64.0
350,69.0,0.0,90.0,1.0,64.0
351,64.0,24.0,180.0,1.0,64.0
352,76.0,0.0,90.0,1.0,64.0
353,76.0,96.0,90.0,0.0,64.0
354,76.0,0.0,90.0,0.0,64.0
355,61.0,120.0,90.0,1.0,64.0
356,73.0,0.0,90.0,1.0,64.0
357,69.0,0.0,90.0,1.0,64.0
358,76.0,0.0,90.0,1.0,64.0
359,66.0,120.0,90.0,1.0,64.0
360,57.0,0.0,90.0,1.0,64.0
361,72.0,0.0,90.0,1.0,64.0
362,78.0,0.0,90.0,1.0,64.0
363,69.0,0.0,90.0,1.0,64.0
364,60.0,0.0,90.0,1.0,64.0
365,78.0,0.0,90.0,0.0,64.0
366,71.0,24.0,180.0,1.0,64.0
367,79.0,0.0,180.0,0.0,64.0
368,78.0,96.0,90.0,1.0,64.0
369,66.0,0.0,90.0,1.0,64.0
370,59.0,0.0,180.0,1.0,64.0
371,67.0,0.0,180.0,1.0,64.0
372,52.0,0.0,180.0,1.0,64.0
373,79.0,0.0,180.0,1.0,64.0
374,76.0,0.0,90.0,1.0,64.0
375,64.0,120.0,90.0,1.0,64.0
376,74.0,0.0,90.0,1.0,64.0
377,79.0,0.0,90.0,1.0,64.0
378,52.0,120.0,90.0,1.0,64.0
379,58.0,0.0,90.0,1.0,64.0
380,67.0,0.0,90.0,1.0,64.0
381,70.0,0.0,90.0,1.0,64.0
382,62.0,0.0,90.0,1.0,64.0
383,64.0,0.0,90.0,1.0,64.0
384,79.0,0.0,90.0,0.0,64.0
385,79.0,0.0,180.0,1.0,64.0
386,79.0,0.0,90.0,0.0,64.0
387,62.0,0.0,90.0,1.0,64.0
388,69.0,24.0,180.0,1.0,64.0
389,74.0,72.0,90.0,1.0,64.0
390,57.0,0.0,180.0,1.0,64.0
391,64.0,0.0,180.0,1.0,64.0
392,73.0,0.0,60.0,1.0,64.0
393,61.0,24.0,60.0,1.0,64.0
394,79.0,12.0,90.0,0.0,64.0
395,59.0,108.0,60.0,1.0,64.0
396,71.0,0.0,60.0,1.0,64.0
397,57.0,0.0,90.0,1.0,64.0
398,61.0,0.0,90.0,1.0,64.0
399,79.0,0.0,90.0,1.0,64.0
400,73.0,0.0,90.0,1.0,64.0
401,79.0,120.0,90.0,0.0,64.0
402,81.0,0.0,90.0,1.0,64.0
403,64.0,0.0,90.0,1.0,64.0
404,69.0,0.0,90.0,1.0,64.0
405,79.0,96.0,90.0,1.0,64.0
406,74.0,0.0,90.0,1.0,64.0
407,69.0,0.0,180.0,1.0,64.0
408,50.0,0.0,180.0,1.0,64.0
409,81.0,24.0,180.0,1.0,64.0
410,62.0,0.0,180.0,1.0,64.0
411,57.0,0.0,180.0,1.0,64.0
412,79.0,0.0,90.0,0.0,64.0
413,78.0,0.0,90.0,0.0,64.0
414,78.0,0.0,90.0,1.0,64.0
415,74.0,120.0,90.0,1.0,64.0
416,77.0,0.0,90.0,1.0,64.0
417,50.0,0.0,90.0,1.0,64.0
418,71.0,0.0,90.0,1.0,64.0
419,74.0,0.0,90.0,1.0,64.0
420,62.0,0.0,90.0,1.0,64.0
421,83.0,0.0,90.0,1.0,64.0
422,77.0,120.0,90.0,0.0,64.0
423,81.0,72.0,90.0,1.0,64.0
424,76.0,0.0,180.0,1.0,64.0
425,52.0,36.0,180.0,1.0,64.0
426,64.0,0.0,180.0,1.0,64.0
427,83.0,0.0,180.0,1.0,64.0
428,71.0,0.0,180.0,1.0,64.0
429,76.0,0.0,180.0,0.0,64.0
430,80.0,24.0,60.0,1.0,64.0
431,78.0,108.0,60.0,1.0,64.0
432,80.0,0.0,90.0,1.0,64.0
433,52.0,0.0,90.0,1.0,64.0
434,74.0,0.0,90.0,0.0,64.0
435,83.0,0.0,90.0,1.0,64.0
436,74.0,0.0,90.0,1.0,64.0
437,71.0,216.0,90.0,1.0,64.0
438,76.0,0.0,180.0,1.0,64.0
439,81.0,0.0,180.0,1.0,64.0
440,85.0,0.0,180.0,1.0,64.0
441,73.0,24.0,180.0,1.0,64.0
442,40.0,0.0,180.0,1.0,64.0
443,73.0,120.0,90.0,0.0,64.0
444,76.0,0.0,90.0,0.0,64.0
445,71.0,120.0,90.0,1.0,64.0
446,52.0,0.0,90.0,1.0,64.0
447,76.0,0.0,90.0,1.0,64.0
448,83.0,0.0,90.0,1.0,64.0
449,73.0,0.0,180.0,1.0,64.0
450,81.0,0.0,180.0,1.0,64.0
451,81.0,96.0,90.0,0.0,64.0
452,69.0,0.0,180.0,1.0,64.0
453,40.0,24.0,180.0,1.0,64.0
454,81.0,120.0,90.0,0.0,64.0
455,76.0,0.0,90.0,0.0,64.0
456,76.0,216.0,90.0,1.0,64.0
457,64.0,0.0,90.0,1.0,64.0
458,52.0,0.0,90.0,1.0,64.0
459,71.0,0.0,90.0,1.0,64.0
460,64.0,0.0,180.0,1.0,64.0
461,67.0,0.0,180.0,1.0,64.0
462,40.0,0.0,180.0,1.0,64.0
463,73.0,0.0,180.0,1.0,64.0
464,73.0,144.0,180.0,0.0,64.0
465,67.0,0.0,90.0,1.0,64.0
466,52.0,0.0,90.0,1.0,64.0
467,62.0,0.0,90.0,1.0,64.0
468,71.0,0.0,90.0,1.0,64.0
469,71.0,216.0,90.0,0.0,64.0
470,40.0,0.0,180.0,1.0,64.0
471,67.0,0.0,180.0,1.0,64.0
472,69.0,0.0,180.0,1.0,64.0
473,61.0,144.0,180.0,1.0,64.0
474,69.0,0.0,180.0,0.0,64.0
475,52.0,216.0,90.0,1.0,64.0
476,67.0,0.0,90.0,1.0,64.0
477,62.0,0.0,90.0,1.0,64.0
478,71.0,0.0,90.0,1.0,64.0
479,61.0,0.0,180.0,1.0,64.0
480,67.0,0.0,180.0,1.0,64.0
481,40.0,0.0,180.0,1.0,64.0
482,69.0,144.0,180.0,1.0,64.0
483,71.0,0.0,90.0,1.0,64.0
484,67.0,216.0,90.0,1.0,64.0
485,52.0,0.0,90.0,1.0,64.0
486,62.0,0.0,90.0,1.0,64.0
487,69.0,0.0,180.0,1.0,64.0
488,79.0,96.0,450.0,0.0,64.0
489,61.0,0.0,180.0,1.0,64.0
490,45.0,0.0,180.0,1.0,64.0
491,33.0,144.0,180.0,1.0,64.0
492,67.0,0.0,180.0,1.0,64.0
493,52.0,0.0,90.0,1.0,64.0
494,40.0,0.0,90.0,1.0,64.0
495,62.0,0.0,90.0,1.0,64.0
496,67.0,0.0,90.0,1.0,64.0
497,71.0,120.0,90.0,1.0,64.0
498,67.0,0.0,180.0,1.0,64.0
499,61.0,0.0,180.0,1.0,64.0
500,33.0,0.0,180.0,1.0,64.0
501,45.0,0.0,180.0,1.0,64.0
502,69.0,24.0,180.0,1.0,64.0
503,78.0,120.0,90.0,0.0,64.0
504,71.0,0.0,90.0,1.0,64.0
505,76.0,120.0,90.0,0.0,64.0
506,45.0,0.0,90.0,1.0,64.0
507,67.0,0.0,90.0,1.0,64.0
508,61.0,0.0,90.0,1.0,64.0
509,69.0,144.0,540.0,1.0,64.0
510,38.0,144.0,180.0,1.0,64.0
511,66.0,0.0,540.0,1.0,64.0
512,78.0,96.0,90.0,0.0,64.0
513,62.0,0.0,540.0,1.0,64.0
514,81.0,144.0,780.0,0.0,64.0
515,45.0,216.0,90.0,1.0,64.0
516,38.0,0.0,180.0,1.0,64.0
517,45.0,216.0,90.0,1.0,64.0
518,66.0,0.0,660.0,1.0,64.0
519,62.0,144.0,660.0,1.0,64.0
520,57.0,0.0,660.0,1.0,64.0
521,38.0,0.0,180.0,1.0,64.0
522,45.0,216.0,90.0,1.0,64.0
523,38.0,0.0,180.0,1.0,64.0
524,62.0,0.0,300.0,1.0,64.0
525,66.0,0.0,300.0,1.0,64.0
526,57.0,0.0,300.0,1.0,64.0
527,45.0,216.0,90.0,1.0,64.0
528,38.0,0.0,180.0,1.0,64.0
