,note,step,duration,channel,velocity
0,54.0,120.0,120.0,8.0,0.0
1,56.0,119.0,120.0,8.0,0.0
2,58.0,40.0,120.0,8.0,0.0
3,59.0,42.0,40.0,8.0,0.0
4,58.0,39.0,40.0,8.0,0.0
5,56.0,40.0,40.0,8.0,0.0
6,18.0,38.0,40.0,0.0,0.0
7,58.0,38.0,120.0,8.0,0.0
8,30.0,42.0,40.0,0.0,0.0
9,34.0,0.0,40.0,0.0,0.0
10,49.0,2.0,40.0,0.0,0.0
11,42.0,0.0,40.0,0.0,0.0
12,61.0,1.0,360.0,8.0,0.0
13,46.0,38.0,15.0,0.0,0.0
14,49.0,0.0,40.0,0.0,0.0
15,54.0,40.0,40.0,0.0,0.0
16,49.0,0.0,40.0,0.0,0.0
17,58.0,0.0,40.0,0.0,0.0
18,54.0,40.0,40.0,0.0,0.0
19,54.0,0.0,40.0,0.0,0.0
20,58.0,0.0,40.0,0.0,0.0
21,61.0,40.0,15.0,0.0,0.0
22,66.0,0.0,40.0,0.0,0.0
23,58.0,38.0,40.0,0.0,0.0
24,54.0,2.0,40.0,0.0,0.0
25,49.0,0.0,40.0,0.0,0.0
26,58.0,1.0,40.0,0.0,0.0
27,70.0,37.0,40.0,0.0,0.0
28,59.0,2.0,40.0,0.0,0.0
29,49.0,0.0,40.0,0.0,0.0
30,56.0,38.0,40.0,0.0,0.0
31,71.0,0.0,40.0,0.0,0.0
32,80.0,0.0,40.0,0.0,0.0
33,83.0,0.0,40.0,0.0,0.0
34,54.0,2.0,40.0,0.0,0.0
35,58.0,0.0,40.0,0.0,0.0
36,49.0,2.0,40.0,0.0,0.0
37,70.0,0.0,40.0,0.0,0.0
38,82.0,0.0,40.0,0.0,0.0
39,78.0,38.0,40.0,0.0,0.0
40,49.0,0.0,40.0,0.0,0.0
41,53.0,0.0,40.0,0.0,0.0
42,56.0,0.0,40.0,0.0,0.0
43,80.0,0.0,40.0,0.0,0.0
44,77.0,119.0,40.0,0.0,0.0
45,68.0,0.0,40.0,0.0,0.0
46,82.0,0.0,120.0,0.0,0.0
47,78.0,0.0,120.0,0.0,0.0
48,70.0,0.0,120.0,0.0,0.0
49,58.0,0.0,120.0,0.0,0.0
50,54.0,358.0,120.0,0.0,0.0
51,49.0,0.0,120.0,0.0,0.0
52,61.0,2.0,360.0,0.0,0.0
53,49.0,0.0,360.0,0.0,0.0
54,58.0,0.0,360.0,0.0,0.0
55,85.0,2.0,360.0,0.0,0.0
56,82.0,0.0,360.0,0.0,0.0
57,73.0,118.0,360.0,0.0,0.0
58,66.0,120.0,120.0,8.0,0.0
59,61.0,120.0,120.0,8.0,0.0
60,59.0,42.0,120.0,8.0,0.0
61,58.0,39.0,40.0,8.0,0.0
62,56.0,38.0,40.0,8.0,0.0
63,54.0,44.0,40.0,8.0,0.0
64,56.0,40.0,120.0,8.0,0.0
65,25.0,37.0,40.0,0.0,0.0
66,37.0,40.0,15.0,0.0,0.0
67,41.0,0.0,40.0,0.0,0.0
68,41.0,0.0,40.0,0.0,0.0
69,44.0,0.0,40.0,0.0,0.0
70,61.0,0.0,360.0,8.0,0.0
71,44.0,40.0,40.0,0.0,0.0
72,49.0,40.0,15.0,0.0,0.0
73,49.0,0.0,15.0,0.0,0.0
74,53.0,0.0,15.0,0.0,0.0
75,56.0,40.0,40.0,0.0,0.0
76,53.0,0.0,40.0,0.0,0.0
77,65.0,2.0,40.0,0.0,0.0
78,61.0,0.0,15.0,0.0,0.0
79,56.0,38.0,15.0,0.0,0.0
80,53.0,0.0,40.0,0.0,0.0
81,56.0,40.0,15.0,0.0,0.0
82,68.0,36.0,40.0,0.0,0.0
83,70.0,2.0,40.0,0.0,0.0
84,82.0,35.0,40.0,0.0,0.0
85,49.0,2.0,15.0,0.0,0.0
86,58.0,0.0,40.0,0.0,0.0
87,54.0,0.0,40.0,0.0,0.0
88,78.0,1.0,40.0,0.0,0.0
89,68.0,0.0,40.0,0.0,0.0
90,77.0,2.0,40.0,0.0,0.0
91,56.0,0.0,40.0,0.0,0.0
92,80.0,0.0,40.0,0.0,0.0
93,49.0,2.0,15.0,0.0,0.0
94,53.0,0.0,40.0,0.0,0.0
95,54.0,2.0,40.0,0.0,0.0
96,66.0,117.0,40.0,0.0,0.0
97,75.0,0.0,40.0,0.0,0.0
98,78.0,2.0,40.0,0.0,0.0
99,51.0,1.0,40.0,0.0,0.0
100,68.0,0.0,120.0,0.0,0.0
101,80.0,0.0,120.0,0.0,0.0
102,77.0,358.0,120.0,0.0,0.0
103,49.0,0.0,15.0,0.0,0.0
104,53.0,0.0,120.0,0.0,0.0
105,56.0,0.0,120.0,0.0,0.0
106,61.0,2.0,360.0,0.0,0.0
107,85.0,0.0,360.0,0.0,0.0
108,49.0,0.0,15.0,0.0,0.0
109,73.0,3.0,360.0,0.0,0.0
110,61.0,1.0,120.0,4.0,0.0
111,73.0,1.0,120.0,1.0,0.0
112,49.0,115.0,120.0,6.0,0.0
113,51.0,0.0,120.0,6.0,0.0
114,54.0,0.0,120.0,6.0,0.0
115,71.0,0.0,120.0,4.0,0.0
116,66.0,0.0,120.0,4.0,0.0
117,83.0,60.0,120.0,1.0,0.0
118,85.0,53.0,60.0,1.0,0.0
119,49.0,0.0,120.0,6.0,0.0
120,65.0,0.0,120.0,4.0,0.0
121,73.0,0.0,60.0,4.0,0.0
122,53.0,115.0,120.0,6.0,0.0
123,70.0,7.0,60.0,4.0,0.0
124,82.0,2.0,60.0,1.0,0.0
125,51.0,1.0,120.0,6.0,0.0
126,47.0,2.0,120.0,6.0,0.0
127,63.0,0.0,120.0,4.0,0.0
128,68.0,1.0,120.0,4.0,0.0
129,80.0,52.0,120.0,1.0,0.0
130,70.0,5.0,60.0,4.0,0.0
131,82.0,60.0,60.0,1.0,0.0
132,49.0,2.0,120.0,6.0,0.0
133,61.0,0.0,120.0,4.0,0.0
134,46.0,118.0,120.0,6.0,0.0
135,66.0,0.0,60.0,4.0,0.0
136,78.0,2.0,60.0,1.0,0.0
137,59.0,0.0,120.0,4.0,0.0
138,65.0,0.0,120.0,4.0,0.0
139,77.0,7.0,120.0,1.0,0.0
140,47.0,0.0,120.0,6.0,0.0
141,44.0,106.0,120.0,6.0,0.0
142,48.0,6.0,120.0,6.0,0.0
143,75.0,1.0,120.0,1.0,0.0
144,42.0,0.0,120.0,6.0,0.0
145,63.0,60.0,120.0,4.0,0.0
146,57.0,0.0,120.0,4.0,0.0
147,49.0,3.0,180.0,6.0,0.0
148,80.0,3.0,180.0,1.0,0.0
149,56.0,60.0,60.0,4.0,0.0
150,41.0,54.0,120.0,6.0,0.0
151,68.0,0.0,180.0,4.0,0.0
152,61.0,53.0,120.0,4.0,0.0
153,40.0,0.0,120.0,6.0,0.0
154,52.0,0.0,120.0,3.0,0.0
155,61.0,7.0,120.0,7.0,0.0
156,40.0,0.0,120.0,5.0,0.0
157,82.0,0.0,60.0,1.0,0.0
158,70.0,3.0,60.0,4.0,0.0
159,67.0,0.0,60.0,4.0,0.0
160,55.0,117.0,60.0,6.0,0.0
161,38.0,0.0,120.0,6.0,0.0
162,54.0,0.0,120.0,6.0,0.0
163,83.0,0.0,120.0,1.0,0.0
164,54.0,2.0,120.0,7.0,0.0
165,71.0,0.0,120.0,4.0,0.0
166,50.0,0.0,120.0,3.0,0.0
167,71.0,0.0,120.0,7.0,0.0
168,66.0,0.0,120.0,4.0,0.0
169,38.0,0.0,120.0,5.0,0.0
170,66.0,55.0,120.0,7.0,0.0
171,73.0,1.0,60.0,7.0,0.0
172,64.0,0.0,120.0,7.0,0.0
173,85.0,57.0,60.0,1.0,0.0
174,52.0,1.0,120.0,6.0,0.0
175,52.0,1.0,120.0,7.0,0.0
176,37.0,2.0,120.0,6.0,0.0
177,64.0,0.0,120.0,4.0,0.0
178,37.0,0.0,120.0,5.0,0.0
179,49.0,115.0,120.0,3.0,0.0
180,69.0,0.0,120.0,4.0,0.0
181,81.0,3.0,60.0,1.0,0.0
182,69.0,0.0,60.0,7.0,0.0
183,68.0,0.0,120.0,4.0,0.0
184,68.0,3.0,120.0,7.0,0.0
185,80.0,2.0,120.0,1.0,0.0
186,62.0,0.0,120.0,4.0,0.0
187,47.0,0.0,120.0,3.0,0.0
188,50.0,0.0,120.0,6.0,0.0
189,62.0,0.0,120.0,7.0,0.0
190,50.0,0.0,120.0,7.0,0.0
191,35.0,0.0,120.0,5.0,0.0
192,35.0,53.0,120.0,6.0,0.0
193,66.0,2.0,120.0,4.0,0.0
194,81.0,2.0,60.0,1.0,0.0
195,45.0,1.0,120.0,6.0,0.0
196,69.0,58.0,60.0,7.0,0.0
197,45.0,0.0,120.0,3.0,0.0
198,49.0,0.0,120.0,6.0,0.0
199,33.0,0.0,120.0,5.0,0.0
200,49.0,0.0,120.0,7.0,0.0
201,61.0,1.0,120.0,4.0,0.0
202,61.0,239.0,120.0,7.0,0.0
203,66.0,2.0,60.0,7.0,0.0
204,78.0,0.0,60.0,1.0,0.0
205,44.0,0.0,240.0,3.0,0.0
206,47.0,0.0,240.0,6.0,0.0
207,44.0,0.0,240.0,6.0,0.0
208,32.0,0.0,240.0,5.0,0.0
209,64.0,0.0,240.0,4.0,0.0
210,47.0,0.0,240.0,7.0,0.0
211,76.0,0.0,240.0,1.0,0.0
212,64.0,0.0,240.0,7.0,0.0
213,62.0,2.0,240.0,7.0,0.0
214,40.0,1.0,240.0,6.0,0.0
215,62.0,1.0,240.0,4.0,0.0
216,59.0,0.0,15.0,7.0,0.0
217,28.0,0.0,240.0,5.0,0.0
218,56.0,0.0,240.0,7.0,0.0
219,59.0,234.0,15.0,4.0,0.0
220,74.0,18.0,240.0,1.0,0.0
221,40.0,0.0,240.0,3.0,0.0
222,56.0,0.0,240.0,6.0,0.0
223,29.0,20.0,20.0,0.0,0.0
224,35.0,20.0,20.0,0.0,0.0
225,41.0,22.0,20.0,0.0,0.0
226,44.0,18.0,20.0,0.0,0.0
227,47.0,20.0,20.0,0.0,0.0
228,62.0,0.0,30.0,0.0,0.0
229,50.0,59.0,30.0,0.0,0.0
230,61.0,1.0,60.0,0.0,0.0
231,49.0,80.0,60.0,0.0,0.0
232,41.0,20.0,20.0,0.0,0.0
233,47.0,20.0,20.0,0.0,0.0
234,53.0,20.0,20.0,0.0,0.0
235,56.0,20.0,20.0,0.0,0.0
236,59.0,19.0,20.0,0.0,0.0
237,62.0,1.0,30.0,0.0,0.0
238,74.0,58.0,30.0,0.0,0.0
239,61.0,1.0,60.0,0.0,0.0
240,73.0,81.0,60.0,0.0,0.0
241,29.0,20.0,20.0,0.0,0.0
242,35.0,20.0,20.0,0.0,0.0
243,41.0,22.0,20.0,0.0,0.0
244,44.0,18.0,20.0,0.0,0.0
245,47.0,20.0,20.0,0.0,0.0
246,50.0,20.0,30.0,0.0,0.0
247,62.0,0.0,30.0,0.0,0.0
248,49.0,0.0,60.0,0.0,0.0
249,61.0,0.0,60.0,0.0,0.0
250,35.0,20.0,20.0,0.0,0.0
251,44.0,19.0,20.0,0.0,0.0
252,47.0,20.0,20.0,0.0,0.0
253,53.0,22.0,20.0,0.0,0.0
254,56.0,20.0,20.0,0.0,0.0
255,54.0,0.0,30.0,0.0,0.0
256,66.0,40.0,30.0,0.0,0.0
257,65.0,1.0,60.0,0.0,0.0
258,32.0,0.0,60.0,0.0,0.0
259,53.0,16.0,60.0,0.0,0.0
260,35.0,18.0,20.0,0.0,0.0
261,41.0,4.0,20.0,0.0,0.0
262,44.0,20.0,20.0,0.0,0.0
263,47.0,19.0,20.0,0.0,0.0
264,69.0,22.0,30.0,0.0,0.0
265,57.0,0.0,30.0,0.0,0.0
266,68.0,1.0,60.0,0.0,0.0
267,32.0,19.0,20.0,0.0,0.0
268,56.0,18.0,60.0,0.0,0.0
269,35.0,19.0,20.0,0.0,0.0
270,41.0,1.0,20.0,0.0,0.0
271,44.0,21.0,20.0,0.0,0.0
272,47.0,19.0,20.0,0.0,0.0
273,62.0,1.0,30.0,0.0,0.0
274,74.0,20.0,30.0,0.0,0.0
275,73.0,0.0,60.0,0.0,0.0
276,28.0,20.0,20.0,0.0,0.0
277,61.0,21.0,60.0,0.0,0.0
278,34.0,19.0,20.0,0.0,0.0
279,40.0,1.0,20.0,0.0,0.0
280,46.0,20.0,20.0,0.0,0.0
281,49.0,17.0,20.0,0.0,0.0
282,55.0,2.0,30.0,0.0,0.0
283,67.0,58.0,30.0,0.0,0.0
284,66.0,2.0,60.0,0.0,0.0
285,54.0,80.0,60.0,0.0,0.0
286,40.0,20.0,20.0,0.0,0.0
287,46.0,20.0,20.0,0.0,0.0
288,52.0,21.0,20.0,0.0,0.0
289,58.0,20.0,20.0,0.0,0.0
290,61.0,18.0,20.0,0.0,0.0
291,67.0,61.0,30.0,0.0,0.0
292,79.0,0.0,30.0,0.0,0.0
293,66.0,0.0,60.0,0.0,0.0
294,78.0,80.0,60.0,0.0,0.0
295,28.0,20.0,20.0,0.0,0.0
296,34.0,20.0,20.0,0.0,0.0
297,40.0,21.0,20.0,0.0,0.0
298,46.0,20.0,20.0,0.0,0.0
299,49.0,18.0,20.0,0.0,0.0
300,55.0,1.0,30.0,0.0,0.0
301,67.0,19.0,30.0,0.0,0.0
302,34.0,21.0,20.0,0.0,0.0
303,54.0,15.0,60.0,0.0,0.0
304,66.0,0.0,60.0,0.0,0.0
305,40.0,20.0,20.0,0.0,0.0
306,46.0,0.0,20.0,0.0,0.0
307,49.0,25.0,15.0,0.0,0.0
308,52.0,19.0,20.0,0.0,0.0
309,59.0,1.0,30.0,0.0,0.0
310,71.0,19.0,30.0,0.0,0.0
311,37.0,21.0,20.0,0.0,0.0
312,70.0,0.0,60.0,0.0,0.0
313,58.0,1.0,60.0,0.0,0.0
314,40.0,20.0,20.0,0.0,0.0
315,46.0,19.0,20.0,0.0,0.0
316,49.0,11.0,20.0,0.0,0.0
317,52.0,29.0,15.0,0.0,0.0
318,62.0,1.0,30.0,0.0,0.0
319,74.0,18.0,30.0,0.0,0.0
320,29.0,20.0,20.0,0.0,0.0
321,61.0,1.0,60.0,0.0,0.0
322,73.0,19.0,60.0,0.0,0.0
323,34.0,20.0,20.0,0.0,0.0
324,40.0,0.0,20.0,0.0,0.0
325,46.0,21.0,20.0,0.0,0.0
326,49.0,19.0,20.0,0.0,0.0
327,67.0,2.0,30.0,0.0,0.0
328,79.0,19.0,30.0,0.0,0.0
329,26.0,19.0,20.0,0.0,0.0
330,66.0,0.0,60.0,0.0,0.0
331,78.0,1.0,60.0,0.0,0.0
332,35.0,21.0,20.0,0.0,0.0
333,38.0,19.0,20.0,0.0,0.0
334,42.0,20.0,20.0,0.0,0.0
335,47.0,18.0,20.0,0.0,0.0
336,61.0,2.0,30.0,0.0,0.0
337,73.0,1.0,30.0,0.0,0.0
338,50.0,57.0,20.0,0.0,0.0
339,59.0,0.0,60.0,0.0,0.0
340,71.0,82.0,60.0,0.0,0.0
341,38.0,21.0,20.0,0.0,0.0
342,47.0,19.0,20.0,0.0,0.0
343,50.0,20.0,20.0,0.0,0.0
344,55.0,20.0,20.0,0.0,0.0
345,59.0,15.0,20.0,0.0,0.0
346,83.0,0.0,30.0,0.0,0.0
347,71.0,60.0,30.0,0.0,0.0
348,62.0,5.0,15.0,0.0,0.0
349,84.0,0.0,60.0,0.0,0.0
350,78.0,0.0,60.0,0.0,0.0
351,72.0,0.0,60.0,0.0,0.0
352,66.0,0.0,60.0,0.0,0.0
353,57.0,0.0,60.0,0.0,0.0
354,81.0,80.0,60.0,0.0,0.0
355,50.0,0.0,60.0,0.0,0.0
356,54.0,0.0,60.0,0.0,0.0
357,26.0,19.0,20.0,0.0,0.0
358,35.0,22.0,20.0,0.0,0.0
359,38.0,19.0,20.0,0.0,0.0
360,42.0,20.0,20.0,0.0,0.0
361,47.0,20.0,20.0,0.0,0.0
362,60.0,60.0,30.0,0.0,0.0
363,72.0,0.0,30.0,0.0,0.0
364,50.0,0.0,20.0,0.0,0.0
365,71.0,80.0,60.0,0.0,0.0
366,59.0,0.0,60.0,0.0,0.0
367,38.0,21.0,20.0,0.0,0.0
368,47.0,19.0,20.0,0.0,0.0
369,50.0,20.0,20.0,0.0,0.0
370,55.0,20.0,20.0,0.0,0.0
371,59.0,15.0,20.0,0.0,0.0
372,83.0,2.0,30.0,0.0,0.0
373,71.0,58.0,30.0,0.0,0.0
374,62.0,3.0,15.0,0.0,0.0
375,77.0,1.0,60.0,0.0,0.0
376,65.0,1.0,60.0,0.0,0.0
377,56.0,0.0,60.0,0.0,0.0
378,53.0,0.0,60.0,0.0,0.0
379,59.0,1.0,60.0,0.0,0.0
380,89.0,0.0,60.0,0.0,0.0
381,83.0,0.0,60.0,0.0,0.0
382,50.0,1.0,60.0,0.0,0.0
383,80.0,178.0,60.0,0.0,0.0
384,25.0,0.0,60.0,0.0,0.0
385,49.0,177.0,60.0,0.0,0.0
386,37.0,0.0,60.0,0.0,0.0
387,59.0,1.0,180.0,0.0,0.0
388,80.0,2.0,180.0,0.0,0.0
389,56.0,0.0,180.0,0.0,0.0
390,92.0,0.0,180.0,0.0,0.0
391,83.0,0.0,180.0,0.0,0.0
392,68.0,2.0,180.0,0.0,0.0
393,65.0,0.0,180.0,0.0,0.0
394,89.0,55.0,180.0,0.0,0.0
395,66.0,1.0,60.0,0.0,0.0
396,61.0,0.0,60.0,0.0,0.0
397,90.0,4.0,60.0,0.0,0.0
398,78.0,36.0,60.0,0.0,0.0
399,58.0,0.0,60.0,0.0,0.0
400,65.0,2.0,60.0,0.0,0.0
401,59.0,0.0,60.0,0.0,0.0
402,89.0,4.0,40.0,0.0,0.0
403,56.0,18.0,60.0,0.0,0.0
404,77.0,16.0,40.0,0.0,0.0
405,90.0,2.0,40.0,0.0,0.0
406,78.0,38.0,40.0,0.0,0.0
407,63.0,2.0,60.0,0.0,0.0
408,54.0,0.0,60.0,0.0,0.0
409,58.0,0.0,60.0,0.0,0.0
410,87.0,0.0,40.0,0.0,0.0
411,75.0,40.0,40.0,0.0,0.0
412,73.0,0.0,40.0,0.0,0.0
413,56.0,0.0,60.0,0.0,0.0
414,61.0,2.0,60.0,0.0,0.0
415,85.0,20.0,40.0,0.0,0.0
416,53.0,16.0,60.0,0.0,0.0
417,87.0,4.0,40.0,0.0,0.0
418,75.0,36.0,40.0,0.0,0.0
419,54.0,0.0,60.0,0.0,0.0
420,59.0,2.0,60.0,0.0,0.0
421,51.0,0.0,60.0,0.0,0.0
422,83.0,0.0,40.0,0.0,0.0
423,71.0,40.0,40.0,0.0,0.0
424,58.0,0.0,60.0,0.0,0.0
425,53.0,0.0,60.0,0.0,0.0
426,49.0,22.0,60.0,0.0,0.0
427,82.0,0.0,40.0,0.0,0.0
428,70.0,18.0,40.0,0.0,0.0
429,83.0,0.0,40.0,0.0,0.0
430,71.0,37.0,40.0,0.0,0.0
431,47.0,1.0,60.0,0.0,0.0
432,56.0,2.0,60.0,0.0,0.0
433,51.0,45.0,60.0,0.0,0.0
434,68.0,0.0,40.0,0.0,0.0
435,80.0,0.0,40.0,0.0,0.0
436,44.0,2.0,60.0,0.0,0.0
437,65.0,0.0,40.0,0.0,0.0
438,53.0,2.0,60.0,0.0,0.0
439,77.0,13.0,40.0,0.0,0.0
440,47.0,18.0,60.0,0.0,0.0
441,78.0,5.0,40.0,0.0,0.0
442,66.0,35.0,40.0,0.0,0.0
443,42.0,0.0,60.0,0.0,0.0
444,46.0,5.0,60.0,0.0,0.0
445,51.0,0.0,60.0,0.0,0.0
446,75.0,0.0,40.0,0.0,0.0
447,63.0,40.0,40.0,0.0,0.0
448,48.0,2.0,60.0,0.0,0.0
449,72.0,0.0,40.0,0.0,0.0
450,42.0,25.0,60.0,0.0,0.0
451,39.0,0.0,60.0,0.0,0.0
452,60.0,13.0,40.0,0.0,0.0
453,61.0,35.0,40.0,0.0,0.0
454,73.0,0.0,40.0,0.0,0.0
455,41.0,0.0,60.0,0.0,0.0
456,49.0,5.0,15.0,0.0,0.0
457,71.0,0.0,15.0,0.0,0.0
458,59.0,175.0,15.0,0.0,0.0
459,44.0,0.0,15.0,0.0,0.0
460,41.0,7.0,180.0,0.0,0.0
461,68.0,51.0,180.0,0.0,0.0
462,66.0,2.0,60.0,0.0,0.0
463,58.0,0.0,60.0,0.0,0.0
464,70.0,2.0,60.0,0.0,0.0
465,49.0,0.0,15.0,0.0,0.0
466,46.0,0.0,60.0,0.0,0.0
467,42.0,56.0,60.0,0.0,0.0
468,44.0,0.0,60.0,0.0,0.0
469,65.0,2.0,60.0,0.0,0.0
470,56.0,0.0,60.0,0.0,0.0
471,47.0,58.0,60.0,0.0,0.0
472,68.0,0.0,60.0,0.0,0.0
473,49.0,0.0,15.0,0.0,0.0
474,46.0,0.0,60.0,0.0,0.0
475,66.0,2.0,60.0,0.0,0.0
476,49.0,0.0,15.0,0.0,0.0
477,70.0,0.0,60.0,0.0,0.0
478,58.0,2.0,60.0,0.0,0.0
479,42.0,48.0,60.0,0.0,0.0
480,71.0,5.0,60.0,0.0,0.0
481,68.0,2.0,60.0,0.0,0.0
482,49.0,0.0,60.0,0.0,0.0
483,41.0,2.0,60.0,0.0,0.0
484,59.0,0.0,60.0,0.0,0.0
485,44.0,58.0,60.0,0.0,0.0
486,69.0,0.0,60.0,0.0,0.0
487,72.0,180.0,60.0,0.0,0.0
488,60.0,0.0,15.0,0.0,0.0
489,49.0,0.0,15.0,0.0,0.0
490,42.0,0.0,15.0,0.0,0.0
491,39.0,0.0,15.0,0.0,0.0
492,69.0,0.0,180.0,0.0,0.0
493,72.0,0.0,180.0,0.0,0.0
494,49.0,0.0,15.0,0.0,0.0
495,73.0,0.0,15.0,0.0,0.0
496,61.0,0.0,15.0,0.0,0.0
497,41.0,0.0,15.0,0.0,0.0
498,37.0,60.0,15.0,0.0,0.0
499,70.0,0.0,15.0,0.0,0.0
500,49.0,0.0,15.0,0.0,0.0
501,41.0,0.0,15.0,0.0,0.0
502,71.0,0.0,15.0,0.0,0.0
503,44.0,0.0,15.0,0.0,0.0
504,68.0,60.0,15.0,0.0,0.0
505,59.0,0.0,15.0,0.0,0.0
506,49.0,0.0,15.0,0.0,0.0
507,41.0,0.0,15.0,0.0,0.0
508,58.0,4.0,60.0,0.0,0.0
509,46.0,1.0,60.0,0.0,0.0
510,66.0,0.0,60.0,0.0,0.0
511,49.0,0.0,15.0,0.0,0.0
512,42.0,1.0,60.0,0.0,0.0
513,70.0,178.0,60.0,0.0,0.0
514,49.0,1.0,15.0,0.0,0.0
515,41.0,0.0,180.0,0.0,0.0
516,44.0,7.0,180.0,0.0,0.0
517,59.0,0.0,180.0,0.0,0.0
518,71.0,0.0,180.0,0.0,0.0
519,68.0,51.0,180.0,0.0,0.0
520,58.0,0.0,60.0,0.0,0.0
521,66.0,2.0,60.0,0.0,0.0
522,49.0,0.0,15.0,0.0,0.0
523,46.0,0.0,60.0,0.0,0.0
524,70.0,0.0,60.0,0.0,0.0
525,42.0,56.0,60.0,0.0,0.0
526,44.0,0.0,60.0,0.0,0.0
527,65.0,2.0,60.0,0.0,0.0
528,56.0,0.0,60.0,0.0,0.0
529,68.0,0.0,60.0,0.0,0.0
530,47.0,0.0,60.0,0.0,0.0
531,49.0,2.0,15.0,0.0,0.0
532,46.0,0.0,60.0,0.0,0.0
533,66.0,2.0,60.0,0.0,0.0
534,70.0,0.0,60.0,0.0,0.0
535,49.0,3.0,60.0,0.0,0.0
536,58.0,2.0,60.0,0.0,0.0
537,42.0,48.0,60.0,0.0,0.0
538,71.0,5.0,60.0,0.0,0.0
539,68.0,2.0,60.0,0.0,0.0
540,49.0,0.0,60.0,0.0,0.0
541,41.0,2.0,60.0,0.0,0.0
542,59.0,0.0,60.0,0.0,0.0
543,44.0,55.0,60.0,0.0,0.0
544,70.0,3.0,60.0,0.0,0.0
545,46.0,0.0,60.0,0.0,0.0
546,42.0,3.0,60.0,0.0,0.0
547,49.0,0.0,60.0,0.0,0.0
548,78.0,3.0,60.0,0.0,0.0
549,82.0,54.0,60.0,0.0,0.0
550,49.0,0.0,60.0,0.0,0.0
551,47.0,58.0,60.0,0.0,0.0
552,44.0,0.0,60.0,0.0,0.0
553,80.0,0.0,60.0,0.0,0.0
554,77.0,0.0,60.0,0.0,0.0
555,68.0,0.0,60.0,0.0,0.0
556,82.0,0.0,60.0,0.0,0.0
557,42.0,2.0,60.0,0.0,0.0
558,46.0,0.0,60.0,0.0,0.0
559,70.0,57.0,60.0,0.0,0.0
560,78.0,0.0,60.0,0.0,0.0
561,49.0,0.0,60.0,0.0,0.0
562,71.0,1.0,60.0,0.0,0.0
563,41.0,0.0,60.0,0.0,0.0
564,80.0,2.0,60.0,0.0,0.0
565,83.0,60.0,60.0,0.0,0.0
566,44.0,0.0,60.0,0.0,0.0
567,49.0,0.0,15.0,0.0,0.0
568,72.0,0.0,15.0,0.0,0.0
569,42.0,0.0,15.0,0.0,0.0
570,81.0,180.0,15.0,0.0,0.0
571,39.0,0.0,15.0,0.0,0.0
572,84.0,0.0,15.0,0.0,0.0
573,49.0,0.0,180.0,0.0,0.0
574,73.0,3.0,60.0,0.0,0.0
575,82.0,3.0,60.0,0.0,0.0
576,85.0,2.0,60.0,0.0,0.0
577,37.0,0.0,60.0,0.0,0.0
578,49.0,0.0,60.0,0.0,0.0
579,41.0,38.0,60.0,0.0,0.0
580,77.0,40.0,40.0,0.0,0.0
581,82.0,0.0,40.0,0.0,0.0
582,37.0,3.0,120.0,0.0,0.0
583,85.0,0.0,40.0,0.0,0.0
584,73.0,40.0,40.0,0.0,0.0
585,65.0,0.0,40.0,0.0,0.0
586,70.0,0.0,40.0,0.0,0.0
587,73.0,35.0,40.0,0.0,0.0
588,59.0,42.0,40.0,0.0,0.0
589,39.0,2.0,120.0,0.0,0.0
590,66.0,38.0,40.0,0.0,0.0
591,71.0,2.0,15.0,0.0,0.0
592,83.0,0.0,40.0,0.0,0.0
593,78.0,36.0,40.0,0.0,0.0
594,37.0,2.0,240.0,0.0,0.0
595,80.0,2.0,40.0,0.0,0.0
596,71.0,40.0,40.0,0.0,0.0
597,68.0,37.0,15.0,0.0,0.0
598,59.0,43.0,40.0,0.0,0.0
599,42.0,20.0,60.0,0.0,0.0
600,58.0,18.0,40.0,0.0,0.0
601,70.0,2.0,40.0,0.0,0.0
602,61.0,38.0,40.0,0.0,0.0
603,39.0,0.0,60.0,0.0,0.0
604,78.0,0.0,40.0,0.0,0.0
605,66.0,0.0,40.0,0.0,0.0
606,72.0,38.0,40.0,0.0,0.0
607,68.0,40.0,40.0,0.0,0.0
608,73.0,0.0,40.0,0.0,0.0
609,77.0,0.0,40.0,0.0,0.0
610,25.0,2.0,15.0,0.0,0.0
611,37.0,0.0,120.0,0.0,0.0
612,61.0,38.0,40.0,0.0,0.0
613,65.0,40.0,15.0,0.0,0.0
614,56.0,0.0,40.0,0.0,0.0
615,54.0,40.0,40.0,0.0,0.0
616,39.0,36.0,120.0,0.0,0.0
617,59.0,4.0,40.0,0.0,0.0
618,66.0,2.0,40.0,0.0,0.0
619,75.0,0.0,40.0,0.0,0.0
620,63.0,36.0,15.0,0.0,0.0
621,41.0,0.0,120.0,0.0,0.0
622,71.0,0.0,15.0,0.0,0.0
623,68.0,0.0,40.0,0.0,0.0
624,59.0,40.0,15.0,0.0,0.0
625,56.0,40.0,40.0,0.0,0.0
626,42.0,18.0,60.0,0.0,0.0
627,46.0,20.0,40.0,0.0,0.0
628,58.0,2.0,40.0,0.0,0.0
629,54.0,40.0,40.0,0.0,0.0
630,39.0,0.0,60.0,0.0,0.0
631,48.0,0.0,40.0,0.0,0.0
632,54.0,0.0,40.0,0.0,0.0
633,49.0,40.0,40.0,0.0,0.0
634,25.0,2.0,15.0,0.0,0.0
635,37.0,38.0,15.0,0.0,0.0
636,61.0,0.0,40.0,0.0,0.0
637,73.0,40.0,90.0,0.0,0.0
638,54.0,0.0,40.0,0.0,0.0
639,63.0,40.0,40.0,0.0,0.0
640,60.0,0.0,40.0,0.0,0.0
641,85.0,0.0,90.0,0.0,0.0
642,51.0,0.0,40.0,0.0,0.0
643,53.0,40.0,40.0,0.0,0.0
644,25.0,0.0,90.0,0.0,0.0
645,37.0,40.0,90.0,0.0,0.0
646,56.0,0.0,40.0,0.0,0.0
647,61.0,0.0,40.0,0.0,0.0
648,65.0,0.0,40.0,0.0,0.0
649,73.0,0.0,90.0,0.0,0.0
650,85.0,40.0,90.0,0.0,0.0
651,66.0,0.0,40.0,0.0,0.0
652,57.0,40.0,40.0,0.0,0.0
653,54.0,0.0,40.0,0.0,0.0
654,25.0,35.0,90.0,0.0,0.0
655,53.0,40.0,40.0,0.0,0.0
656,37.0,5.0,90.0,0.0,0.0
657,65.0,0.0,40.0,0.0,0.0
658,61.0,0.0,40.0,0.0,0.0
659,56.0,0.0,40.0,0.0,0.0
660,85.0,0.0,90.0,0.0,0.0
661,60.0,40.0,40.0,0.0,0.0
662,63.0,0.0,40.0,0.0,0.0
663,73.0,0.0,90.0,0.0,0.0
664,54.0,0.0,40.0,0.0,0.0
665,51.0,40.0,40.0,0.0,0.0
666,25.0,0.0,90.0,0.0,0.0
667,53.0,40.0,40.0,0.0,0.0
668,37.0,0.0,90.0,0.0,0.0
669,56.0,40.0,40.0,0.0,0.0
670,65.0,0.0,40.0,0.0,0.0
671,61.0,0.0,40.0,0.0,0.0
672,58.0,40.0,40.0,0.0,0.0
673,64.0,0.0,40.0,0.0,0.0
674,67.0,0.0,40.0,0.0,0.0
675,85.0,0.0,90.0,0.0,0.0
676,73.0,0.0,90.0,0.0,0.0
677,55.0,40.0,40.0,0.0,0.0
678,37.0,0.0,90.0,0.0,0.0
679,25.0,0.0,90.0,0.0,0.0
680,56.0,40.0,40.0,0.0,0.0
681,68.0,0.0,40.0,0.0,0.0
682,59.0,40.0,40.0,0.0,0.0
683,65.0,0.0,40.0,0.0,0.0
684,63.0,40.0,40.0,0.0,0.0
685,71.0,0.0,40.0,0.0,0.0
686,85.0,0.0,90.0,0.0,0.0
687,73.0,0.0,90.0,0.0,0.0
688,59.0,40.0,40.0,0.0,0.0
689,25.0,35.0,90.0,0.0,0.0
690,37.0,0.0,90.0,0.0,0.0
691,58.0,40.0,40.0,0.0,0.0
692,61.0,5.0,40.0,0.0,0.0
693,70.0,0.0,40.0,0.0,0.0
694,69.0,0.0,40.0,0.0,0.0
695,60.0,40.0,40.0,0.0,0.0
696,65.0,0.0,15.0,0.0,0.0
697,85.0,0.0,90.0,0.0,0.0
698,73.0,40.0,90.0,0.0,0.0
699,57.0,0.0,40.0,0.0,0.0
700,58.0,40.0,40.0,0.0,0.0
701,25.0,0.0,90.0,0.0,0.0
702,37.0,0.0,90.0,0.0,0.0
703,65.0,0.0,40.0,0.0,0.0
704,70.0,0.0,40.0,0.0,0.0
705,61.0,40.0,40.0,0.0,0.0
706,63.0,0.0,40.0,0.0,0.0
707,73.0,0.0,90.0,0.0,0.0
708,85.0,0.0,90.0,0.0,0.0
709,72.0,40.0,40.0,0.0,0.0
710,69.0,0.0,40.0,0.0,0.0
711,60.0,40.0,40.0,0.0,0.0
712,37.0,40.0,90.0,0.0,0.0
713,25.0,0.0,90.0,0.0,0.0
714,61.0,40.0,40.0,0.0,0.0
715,65.0,0.0,40.0,0.0,0.0
716,73.0,0.0,40.0,0.0,0.0
717,70.0,0.0,40.0,0.0,0.0
718,85.0,0.0,90.0,0.0,0.0
719,77.0,0.0,40.0,0.0,0.0
720,73.0,40.0,40.0,0.0,0.0
721,68.0,0.0,40.0,0.0,0.0
722,97.0,40.0,90.0,0.0,0.0
723,65.0,0.0,40.0,0.0,0.0
724,25.0,35.0,90.0,0.0,0.0
725,63.0,40.0,40.0,0.0,0.0
726,37.0,0.0,90.0,0.0,0.0
727,75.0,0.0,40.0,0.0,0.0
728,66.0,0.0,40.0,0.0,0.0
729,68.0,40.0,40.0,0.0,0.0
730,71.0,5.0,15.0,0.0,0.0
731,85.0,0.0,90.0,0.0,0.0
732,73.0,0.0,90.0,0.0,0.0
733,63.0,0.0,40.0,0.0,0.0
734,59.0,40.0,40.0,0.0,0.0
735,56.0,40.0,40.0,0.0,0.0
736,25.0,0.0,90.0,0.0,0.0
737,37.0,0.0,90.0,0.0,0.0
738,59.0,0.0,40.0,0.0,0.0
739,68.0,0.0,40.0,0.0,0.0
740,73.0,0.0,90.0,0.0,0.0
741,85.0,40.0,90.0,0.0,0.0
742,65.0,40.0,15.0,0.0,0.0
743,61.0,0.0,40.0,0.0,0.0
744,56.0,0.0,40.0,0.0,0.0
745,53.0,0.0,40.0,0.0,0.0
746,37.0,0.0,90.0,0.0,0.0
747,49.0,40.0,40.0,0.0,0.0
748,25.0,40.0,90.0,0.0,0.0
749,58.0,0.0,40.0,0.0,0.0
750,61.0,0.0,40.0,0.0,0.0
751,53.0,0.0,40.0,0.0,0.0
752,56.0,0.0,40.0,0.0,0.0
753,59.0,0.0,40.0,0.0,0.0
754,51.0,40.0,40.0,0.0,0.0
755,61.0,0.0,90.0,0.0,0.0
756,73.0,40.0,90.0,0.0,0.0
757,47.0,0.0,40.0,0.0,0.0
758,25.0,35.0,90.0,0.0,0.0
759,37.0,0.0,90.0,0.0,0.0
760,44.0,40.0,40.0,0.0,0.0
761,56.0,0.0,40.0,0.0,0.0
762,41.0,0.0,40.0,0.0,0.0
763,37.0,0.0,40.0,0.0,0.0
764,44.0,100.0,40.0,0.0,0.0
765,47.0,5.0,15.0,0.0,0.0
766,53.0,0.0,15.0,0.0,0.0
767,73.0,0.0,40.0,0.0,0.0
768,77.0,0.0,40.0,0.0,0.0
769,83.0,0.0,40.0,0.0,0.0
770,85.0,0.0,40.0,0.0,0.0
771,58.0,0.0,120.0,7.0,0.0
772,42.0,0.0,120.0,13.0,0.0
773,73.0,0.0,120.0,1.0,0.0
774,42.0,2.0,60.0,3.0,0.0
775,46.0,0.0,120.0,8.0,0.0
776,66.0,0.0,120.0,10.0,0.0
777,58.0,0.0,120.0,10.0,0.0
778,78.0,57.0,120.0,1.0,0.0
779,58.0,0.0,120.0,4.0,0.0
780,66.0,0.0,120.0,4.0,0.0
781,54.0,0.0,120.0,8.0,0.0
782,66.0,0.0,120.0,7.0,0.0
783,30.0,0.0,60.0,5.0,0.0
784,54.0,0.0,60.0,7.0,0.0
785,66.0,0.0,120.0,2.0,0.0
786,61.0,0.0,120.0,2.0,0.0
787,42.0,53.0,60.0,6.0,0.0
788,37.0,2.0,60.0,6.0,0.0
789,37.0,3.0,60.0,3.0,0.0
790,49.0,0.0,60.0,7.0,0.0
791,25.0,0.0,60.0,5.0,0.0
792,49.0,0.0,60.0,3.0,0.0
793,49.0,0.0,60.0,6.0,0.0
794,49.0,1.0,120.0,8.0,0.0
795,37.0,0.0,60.0,5.0,0.0
796,61.0,0.0,120.0,10.0,0.0
797,61.0,0.0,120.0,4.0,0.0
798,37.0,0.0,120.0,13.0,0.0
799,77.0,0.0,120.0,1.0,0.0
800,68.0,0.0,120.0,4.0,0.0
801,68.0,0.0,120.0,10.0,0.0
802,56.0,0.0,120.0,8.0,0.0
803,65.0,0.0,120.0,7.0,0.0
804,61.0,0.0,15.0,7.0,0.0
805,68.0,0.0,120.0,2.0,0.0
806,80.0,3.0,120.0,1.0,0.0
807,65.0,0.0,120.0,2.0,0.0
808,68.0,55.0,120.0,7.0,0.0
809,42.0,2.0,60.0,6.0,0.0
810,42.0,0.0,60.0,3.0,0.0
811,54.0,0.0,60.0,7.0,0.0
812,30.0,0.0,60.0,5.0,0.0
813,66.0,0.0,120.0,2.0,0.0
814,58.0,1.0,120.0,7.0,0.0
815,70.0,0.0,120.0,2.0,0.0
816,42.0,2.0,60.0,5.0,0.0
817,70.0,0.0,120.0,10.0,0.0
818,58.0,2.0,120.0,8.0,0.0
819,54.0,0.0,60.0,3.0,0.0
820,61.0,0.0,120.0,4.0,0.0
821,82.0,0.0,120.0,1.0,0.0
822,70.0,0.0,120.0,7.0,0.0
823,54.0,57.0,60.0,6.0,0.0
824,54.0,0.0,120.0,8.0,0.0
825,78.0,0.0,120.0,1.0,0.0
826,70.0,1.0,120.0,4.0,0.0
827,66.0,0.0,60.0,7.0,0.0
828,35.0,0.0,60.0,3.0,0.0
829,47.0,0.0,60.0,7.0,0.0
830,35.0,0.0,60.0,6.0,0.0
831,35.0,35.0,60.0,5.0,0.0
832,71.0,0.0,40.0,7.0,0.0
833,59.0,0.0,40.0,8.0,0.0
834,63.0,2.0,40.0,7.0,0.0
835,63.0,0.0,40.0,2.0,0.0
836,42.0,0.0,15.0,13.0,0.0
837,63.0,0.0,40.0,4.0,0.0
838,71.0,0.0,40.0,4.0,0.0
839,59.0,0.0,60.0,7.0,0.0
840,59.0,0.0,60.0,6.0,0.0
841,47.0,6.0,60.0,5.0,0.0
842,56.0,15.0,40.0,8.0,0.0
843,83.0,0.0,40.0,1.0,0.0
844,66.0,2.0,15.0,10.0,0.0
845,54.0,0.0,40.0,10.0,0.0
846,71.0,1.0,40.0,2.0,0.0
847,75.0,2.0,40.0,1.0,0.0
848,59.0,12.0,60.0,3.0,0.0
849,70.0,0.0,40.0,7.0,0.0
850,61.0,2.0,40.0,7.0,0.0
851,58.0,0.0,40.0,8.0,0.0
852,70.0,2.0,40.0,2.0,0.0
853,54.0,0.0,40.0,10.0,0.0
854,61.0,0.0,40.0,2.0,0.0
855,42.0,2.0,15.0,13.0,0.0
856,61.0,0.0,40.0,4.0,0.0
857,70.0,0.0,40.0,4.0,0.0
858,82.0,0.0,40.0,1.0,0.0
859,73.0,35.0,40.0,1.0,0.0
860,30.0,2.0,60.0,5.0,0.0
861,42.0,0.0,60.0,3.0,0.0
862,54.0,0.0,60.0,7.0,0.0
863,42.0,0.0,60.0,6.0,0.0
864,56.0,0.0,40.0,8.0,0.0
865,68.0,1.0,40.0,2.0,0.0
866,68.0,0.0,40.0,4.0,0.0
867,59.0,0.0,40.0,7.0,0.0
868,59.0,0.0,40.0,4.0,0.0
869,71.0,0.0,40.0,1.0,0.0
870,80.0,2.0,40.0,1.0,0.0
871,42.0,0.0,40.0,13.0,0.0
872,54.0,0.0,15.0,8.0,0.0
873,59.0,0.0,40.0,2.0,0.0
874,66.0,0.0,15.0,10.0,0.0
875,68.0,58.0,40.0,7.0,0.0
876,54.0,0.0,15.0,8.0,0.0
877,58.0,0.0,120.0,8.0,0.0
878,42.0,0.0,60.0,5.0,0.0
879,61.0,0.0,120.0,2.0,0.0
880,61.0,0.0,120.0,7.0,0.0
881,66.0,57.0,60.0,7.0,0.0
882,54.0,0.0,60.0,6.0,0.0
883,54.0,0.0,60.0,3.0,0.0
884,61.0,0.0,120.0,4.0,0.0
885,73.0,0.0,120.0,1.0,0.0
886,70.0,0.0,120.0,4.0,0.0
887,66.0,0.0,15.0,10.0,0.0
888,54.0,0.0,15.0,10.0,0.0
889,42.0,0.0,120.0,13.0,0.0
890,58.0,0.0,60.0,7.0,0.0
891,46.0,3.0,60.0,3.0,0.0
892,34.0,0.0,60.0,5.0,0.0
893,46.0,0.0,60.0,6.0,0.0
894,46.0,0.0,60.0,5.0,0.0
895,70.0,0.0,15.0,7.0,0.0
896,58.0,61.0,60.0,3.0,0.0
897,58.0,0.0,60.0,6.0,0.0
898,73.0,0.0,240.0,7.0,0.0
899,73.0,0.0,360.0,2.0,0.0
900,61.0,1.0,360.0,8.0,0.0
901,58.0,0.0,240.0,7.0,0.0
902,73.0,0.0,360.0,4.0,0.0
903,82.0,56.0,15.0,1.0,0.0
904,85.0,0.0,360.0,1.0,0.0
905,70.0,0.0,15.0,2.0,0.0
906,54.0,0.0,60.0,7.0,0.0
907,30.0,2.0,60.0,5.0,0.0
908,42.0,0.0,60.0,3.0,0.0
909,42.0,61.0,60.0,6.0,0.0
910,54.0,0.0,60.0,3.0,0.0
911,66.0,0.0,60.0,7.0,0.0
912,54.0,57.0,60.0,6.0,0.0
913,42.0,0.0,60.0,5.0,0.0
914,41.0,0.0,60.0,3.0,0.0
915,29.0,0.0,60.0,5.0,0.0
916,53.0,1.0,60.0,7.0,0.0
917,41.0,0.0,60.0,6.0,0.0
918,53.0,4.0,60.0,6.0,0.0
919,78.0,3.0,180.0,7.0,0.0
920,41.0,0.0,60.0,5.0,0.0
921,65.0,15.0,60.0,7.0,0.0
922,70.0,57.0,180.0,7.0,0.0
923,53.0,0.0,60.0,3.0,0.0
924,42.0,15.0,15.0,13.0,0.0
925,42.0,11.0,15.0,13.0,0.0
926,42.0,0.0,15.0,13.0,0.0
927,39.0,0.0,60.0,6.0,0.0
928,27.0,0.0,60.0,5.0,0.0
929,39.0,0.0,60.0,3.0,0.0
930,51.0,0.0,60.0,7.0,0.0
931,42.0,11.0,15.0,13.0,0.0
932,42.0,14.0,15.0,13.0,0.0
933,51.0,0.0,120.0,6.0,0.0
934,39.0,0.0,120.0,5.0,0.0
935,78.0,2.0,120.0,2.0,0.0
936,70.0,0.0,120.0,2.0,0.0
937,58.0,0.0,15.0,8.0,0.0
938,51.0,0.0,120.0,3.0,0.0
939,63.0,0.0,120.0,7.0,0.0
940,70.0,0.0,15.0,4.0,0.0
941,42.0,57.0,15.0,13.0,0.0
942,78.0,0.0,120.0,4.0,0.0
943,82.0,0.0,120.0,1.0,0.0
944,78.0,0.0,120.0,1.0,0.0
945,66.0,54.0,120.0,8.0,0.0
946,66.0,3.0,60.0,7.0,0.0
947,58.0,0.0,60.0,7.0,0.0
948,73.0,4.0,60.0,7.0,0.0
949,61.0,1.0,120.0,8.0,0.0
950,56.0,1.0,120.0,8.0,0.0
951,53.0,0.0,120.0,6.0,0.0
952,65.0,0.0,120.0,7.0,0.0
953,41.0,0.0,120.0,5.0,0.0
954,53.0,1.0,120.0,3.0,0.0
955,73.0,0.0,120.0,2.0,0.0
956,68.0,0.0,120.0,2.0,0.0
957,68.0,0.0,120.0,4.0,0.0
958,80.0,0.0,120.0,1.0,0.0
959,68.0,57.0,60.0,7.0,0.0
960,73.0,1.0,120.0,4.0,0.0
961,85.0,53.0,120.0,1.0,0.0
962,56.0,0.0,60.0,7.0,0.0
963,61.0,1.0,60.0,7.0,0.0
964,71.0,2.0,60.0,7.0,0.0
965,63.0,60.0,60.0,7.0,0.0
966,63.0,2.0,120.0,4.0,0.0
967,71.0,0.0,120.0,4.0,0.0
968,59.0,1.0,120.0,8.0,0.0
969,54.0,0.0,180.0,6.0,0.0
970,42.0,0.0,180.0,5.0,0.0
971,71.0,0.0,120.0,2.0,0.0
972,63.0,0.0,120.0,2.0,0.0
973,54.0,0.0,180.0,3.0,0.0
974,66.0,1.0,180.0,7.0,0.0
975,75.0,0.0,120.0,1.0,0.0
976,83.0,13.0,120.0,1.0,0.0
977,59.0,1.0,60.0,7.0,0.0
978,51.0,1.0,60.0,7.0,0.0
979,54.0,0.0,15.0,8.0,0.0
980,61.0,0.0,40.0,4.0,0.0
981,58.0,0.0,40.0,8.0,0.0
982,73.0,0.0,40.0,1.0,0.0
983,61.0,0.0,40.0,2.0,0.0
984,82.0,0.0,40.0,1.0,0.0
985,70.0,0.0,40.0,4.0,0.0
986,70.0,5.0,40.0,2.0,0.0
987,54.0,0.0,60.0,7.0,0.0
988,42.0,15.0,15.0,13.0,0.0
989,42.0,10.0,15.0,13.0,0.0
990,56.0,0.0,40.0,8.0,0.0
991,59.0,10.0,40.0,4.0,0.0
992,68.0,0.0,40.0,4.0,0.0
993,59.0,0.0,40.0,2.0,0.0
994,71.0,0.0,40.0,1.0,0.0
995,80.0,0.0,40.0,1.0,0.0
996,68.0,0.0,40.0,2.0,0.0
997,39.0,2.0,60.0,6.0,0.0
998,78.0,0.0,120.0,7.0,0.0
999,70.0,58.0,120.0,7.0,0.0
1000,42.0,0.0,60.0,8.0,0.0
1001,42.0,0.0,15.0,13.0,0.0
1002,39.0,0.0,60.0,3.0,0.0
1003,27.0,0.0,60.0,5.0,0.0
1004,51.0,58.0,60.0,7.0,0.0
1005,42.0,5.0,15.0,13.0,0.0
1006,54.0,0.0,40.0,8.0,0.0
1007,70.0,0.0,40.0,1.0,0.0
1008,58.0,0.0,40.0,2.0,0.0
1009,66.0,0.0,40.0,2.0,0.0
1010,58.0,0.0,40.0,4.0,0.0
1011,66.0,0.0,40.0,4.0,0.0
1012,42.0,15.0,15.0,13.0,0.0
1013,51.0,0.0,120.0,6.0,0.0
1014,78.0,0.0,120.0,4.0,0.0
1015,70.0,0.0,120.0,4.0,0.0
1016,63.0,0.0,120.0,7.0,0.0
1017,51.0,0.0,120.0,3.0,0.0
1018,39.0,0.0,120.0,5.0,0.0
1019,82.0,0.0,120.0,1.0,0.0
1020,78.0,1.0,15.0,1.0,0.0
1021,42.0,0.0,15.0,13.0,0.0
1022,78.0,0.0,120.0,2.0,0.0
1023,70.0,0.0,120.0,2.0,0.0
1024,58.0,0.0,120.0,8.0,0.0
1025,66.0,54.0,120.0,8.0,0.0
1026,66.0,3.0,60.0,7.0,0.0
1027,58.0,2.0,60.0,7.0,0.0
1028,73.0,4.0,60.0,7.0,0.0
1029,61.0,1.0,120.0,8.0,0.0
1030,56.0,1.0,120.0,8.0,0.0
1031,53.0,0.0,120.0,6.0,0.0
1032,65.0,1.0,120.0,7.0,0.0
1033,41.0,0.0,120.0,5.0,0.0
1034,53.0,0.0,120.0,3.0,0.0
1035,68.0,0.0,120.0,4.0,0.0
1036,80.0,0.0,120.0,1.0,0.0
1037,68.0,57.0,60.0,7.0,0.0
1038,73.0,1.0,120.0,4.0,0.0
1039,68.0,0.0,120.0,2.0,0.0
1040,73.0,0.0,120.0,2.0,0.0
1041,85.0,53.0,120.0,1.0,0.0
1042,56.0,0.0,60.0,7.0,0.0
1043,61.0,1.0,60.0,7.0,0.0
1044,71.0,2.0,60.0,7.0,0.0
1045,63.0,60.0,60.0,7.0,0.0
1046,63.0,2.0,120.0,4.0,0.0
1047,71.0,0.0,120.0,4.0,0.0
1048,54.0,0.0,180.0,3.0,0.0
1049,75.0,0.0,120.0,1.0,0.0
1050,54.0,1.0,180.0,6.0,0.0
1051,59.0,0.0,120.0,8.0,0.0
1052,63.0,0.0,120.0,2.0,0.0
1053,71.0,0.0,120.0,2.0,0.0
1054,42.0,0.0,180.0,5.0,0.0
1055,83.0,13.0,120.0,1.0,0.0
1056,59.0,1.0,60.0,7.0,0.0
1057,51.0,1.0,60.0,7.0,0.0
1058,54.0,1.0,15.0,8.0,0.0
1059,82.0,0.0,40.0,1.0,0.0
1060,58.0,0.0,40.0,8.0,0.0
1061,42.0,15.0,15.0,13.0,0.0
1062,73.0,0.0,40.0,1.0,0.0
1063,70.0,5.0,40.0,2.0,0.0
1064,70.0,0.0,40.0,4.0,0.0
1065,61.0,0.0,40.0,4.0,0.0
1066,61.0,0.0,40.0,2.0,0.0
1067,54.0,0.0,60.0,7.0,0.0
1068,42.0,10.0,15.0,13.0,0.0
1069,42.0,12.0,15.0,13.0,0.0
1070,56.0,0.0,40.0,8.0,0.0
1071,71.0,0.0,40.0,1.0,0.0
1072,59.0,10.0,40.0,4.0,0.0
1073,68.0,0.0,40.0,4.0,0.0
1074,59.0,0.0,40.0,2.0,0.0
1075,68.0,0.0,40.0,2.0,0.0
1076,80.0,0.0,40.0,1.0,0.0
1077,42.0,0.0,15.0,13.0,0.0
1078,39.0,1.0,60.0,6.0,0.0
1079,66.0,0.0,15.0,7.0,0.0
1080,42.0,0.0,60.0,8.0,0.0
1081,42.0,5.0,15.0,13.0,0.0
1082,58.0,0.0,60.0,7.0,0.0
1083,66.0,1.0,60.0,7.0,0.0
1084,39.0,0.0,60.0,3.0,0.0
1085,27.0,39.0,60.0,5.0,0.0
1086,42.0,15.0,15.0,13.0,0.0
1087,70.0,0.0,40.0,1.0,0.0
1088,78.0,0.0,40.0,1.0,0.0
1089,58.0,0.0,40.0,2.0,0.0
1090,66.0,0.0,40.0,4.0,0.0
1091,58.0,0.0,40.0,4.0,0.0
1092,42.0,13.0,15.0,13.0,0.0
1093,63.0,0.0,120.0,4.0,0.0
1094,71.0,0.0,120.0,4.0,0.0
1095,71.0,0.0,120.0,2.0,0.0
1096,66.0,0.0,15.0,2.0,0.0
1097,51.0,0.0,40.0,3.0,0.0
1098,54.0,0.0,15.0,8.0,0.0
1099,83.0,0.0,120.0,1.0,0.0
1100,39.0,20.0,40.0,5.0,0.0
1101,42.0,1.0,15.0,13.0,0.0
1102,71.0,0.0,120.0,7.0,0.0
1103,78.0,0.0,120.0,1.0,0.0
1104,51.0,0.0,40.0,6.0,0.0
1105,53.0,0.0,40.0,6.0,0.0
1106,53.0,0.0,40.0,3.0,0.0
1107,41.0,35.0,40.0,5.0,0.0
1108,42.0,2.0,60.0,8.0,0.0
1109,54.0,3.0,60.0,7.0,0.0
1110,54.0,0.0,90.0,3.0,0.0
1111,54.0,15.0,90.0,6.0,0.0
1112,42.0,0.0,90.0,5.0,0.0
1113,61.0,0.0,40.0,7.0,0.0
1114,61.0,0.0,40.0,2.0,0.0
1115,70.0,0.0,40.0,2.0,0.0
1116,73.0,0.0,40.0,1.0,0.0
1117,70.0,1.0,40.0,4.0,0.0
1118,70.0,0.0,40.0,7.0,0.0
1119,61.0,1.0,40.0,4.0,0.0
1120,82.0,4.0,40.0,1.0,0.0
1121,42.0,15.0,15.0,13.0,0.0
1122,68.0,0.0,40.0,4.0,0.0
1123,59.0,1.0,40.0,2.0,0.0
1124,59.0,1.0,40.0,4.0,0.0
1125,71.0,0.0,40.0,1.0,0.0
1126,68.0,0.0,40.0,2.0,0.0
1127,68.0,1.0,40.0,7.0,0.0
1128,59.0,0.0,40.0,7.0,0.0
1129,80.0,9.0,40.0,1.0,0.0
1130,42.0,15.0,15.0,13.0,0.0
1131,54.0,1.0,120.0,8.0,0.0
1132,58.0,0.0,120.0,8.0,0.0
1133,39.0,0.0,60.0,3.0,0.0
1134,27.0,0.0,60.0,5.0,0.0
1135,42.0,0.0,15.0,13.0,0.0
1136,39.0,0.0,60.0,6.0,0.0
1137,42.0,3.0,15.0,13.0,0.0
1138,66.0,0.0,40.0,2.0,0.0
1139,70.0,0.0,40.0,1.0,0.0
1140,58.0,0.0,40.0,4.0,0.0
1141,78.0,0.0,40.0,1.0,0.0
1142,58.0,2.0,40.0,2.0,0.0
1143,42.0,15.0,15.0,13.0,0.0
1144,73.0,1.0,120.0,2.0,0.0
1145,66.0,0.0,15.0,7.0,0.0
1146,73.0,2.0,120.0,7.0,0.0
1147,42.0,0.0,15.0,13.0,0.0
1148,82.0,0.0,120.0,1.0,0.0
1149,85.0,0.0,120.0,1.0,0.0
1150,39.0,19.0,40.0,5.0,0.0
1151,61.0,1.0,120.0,12.0,0.0
1152,51.0,0.0,40.0,3.0,0.0
1153,66.0,38.0,15.0,4.0,0.0
1154,70.0,0.0,120.0,2.0,0.0
1155,58.0,0.0,15.0,7.0,0.0
1156,51.0,0.0,40.0,6.0,0.0
1157,70.0,10.0,120.0,4.0,0.0
1158,41.0,35.0,40.0,5.0,0.0
1159,53.0,0.0,40.0,3.0,0.0
1160,53.0,0.0,40.0,6.0,0.0
1161,51.0,1.0,60.0,7.0,0.0
1162,42.0,4.0,60.0,8.0,0.0
1163,42.0,15.0,90.0,5.0,0.0
1164,54.0,0.0,90.0,3.0,0.0
1165,54.0,0.0,90.0,6.0,0.0
1166,75.0,1.0,40.0,1.0,0.0
1167,60.0,0.0,60.0,12.0,0.0
1168,63.0,0.0,40.0,4.0,0.0
1169,72.0,0.0,40.0,4.0,0.0
1170,72.0,0.0,40.0,2.0,0.0
1171,63.0,3.0,40.0,2.0,0.0
1172,63.0,0.0,40.0,7.0,0.0
1173,72.0,0.0,40.0,7.0,0.0
1174,84.0,2.0,40.0,1.0,0.0
1175,42.0,15.0,15.0,13.0,0.0
1176,42.0,9.0,15.0,13.0,0.0
1177,82.0,0.0,40.0,1.0,0.0
1178,73.0,1.0,40.0,1.0,0.0
1179,61.0,0.0,40.0,2.0,0.0
1180,70.0,0.0,40.0,2.0,0.0
1181,61.0,0.0,40.0,7.0,0.0
1182,61.0,0.0,40.0,4.0,0.0
1183,70.0,0.0,40.0,7.0,0.0
1184,70.0,10.0,40.0,4.0,0.0
1185,42.0,15.0,15.0,13.0,0.0
1186,66.0,1.0,120.0,7.0,0.0
1187,54.0,4.0,120.0,8.0,0.0
1188,66.0,20.0,120.0,8.0,0.0
1189,39.0,1.0,60.0,3.0,0.0
1190,39.0,0.0,60.0,6.0,0.0
1191,27.0,0.0,60.0,5.0,0.0
1192,56.0,0.0,60.0,12.0,0.0
1193,68.0,0.0,40.0,4.0,0.0
1194,42.0,4.0,15.0,13.0,0.0
1195,68.0,0.0,40.0,2.0,0.0
1196,60.0,0.0,40.0,2.0,0.0
1197,60.0,0.0,40.0,4.0,0.0
1198,68.0,2.0,40.0,7.0,0.0
1199,60.0,37.0,40.0,7.0,0.0
1200,80.0,0.0,40.0,1.0,0.0
1201,72.0,0.0,40.0,1.0,0.0
1202,42.0,15.0,15.0,13.0,0.0
1203,77.0,0.0,120.0,2.0,0.0
1204,39.0,0.0,40.0,5.0,0.0
1205,73.0,0.0,120.0,2.0,0.0
1206,89.0,0.0,120.0,1.0,0.0
1207,85.0,1.0,120.0,1.0,0.0
1208,65.0,0.0,120.0,12.0,0.0
1209,73.0,0.0,120.0,4.0,0.0
1210,70.0,0.0,120.0,4.0,0.0
1211,73.0,0.0,120.0,7.0,0.0
1212,51.0,15.0,40.0,6.0,0.0
1213,51.0,0.0,40.0,3.0,0.0
1214,70.0,2.0,120.0,7.0,0.0
1215,61.0,0.0,120.0,12.0,0.0
1216,77.0,12.0,120.0,7.0,0.0
1217,53.0,0.0,40.0,6.0,0.0
1218,53.0,0.0,40.0,3.0,0.0
1219,41.0,39.0,40.0,5.0,0.0
1220,42.0,1.0,60.0,8.0,0.0
1221,54.0,0.0,60.0,8.0,0.0
1222,51.0,0.0,60.0,7.0,0.0
1223,42.0,15.0,90.0,5.0,0.0
1224,54.0,0.0,90.0,3.0,0.0
1225,54.0,0.0,90.0,6.0,0.0
1226,63.0,3.0,60.0,12.0,0.0
1227,72.0,0.0,120.0,4.0,0.0
1228,75.0,0.0,120.0,2.0,0.0
1229,60.0,1.0,60.0,12.0,0.0
1230,72.0,1.0,120.0,2.0,0.0
1231,75.0,0.0,40.0,7.0,0.0
1232,42.0,0.0,15.0,13.0,0.0
1233,84.0,0.0,120.0,1.0,0.0
1234,87.0,0.0,120.0,1.0,0.0
1235,75.0,0.0,120.0,4.0,0.0
1236,42.0,15.0,15.0,13.0,0.0
1237,42.0,10.0,15.0,13.0,0.0
1238,72.0,5.0,15.0,7.0,0.0
1239,42.0,0.0,15.0,13.0,0.0
1240,56.0,2.0,60.0,12.0,0.0
1241,66.0,1.0,120.0,8.0,0.0
1242,27.0,1.0,60.0,5.0,0.0
1243,66.0,1.0,120.0,7.0,0.0
1244,39.0,0.0,60.0,6.0,0.0
1245,39.0,0.0,60.0,3.0,0.0
1246,42.0,5.0,15.0,13.0,0.0
1247,42.0,15.0,15.0,13.0,0.0
1248,68.0,0.0,15.0,7.0,0.0
1249,60.0,0.0,40.0,7.0,0.0
1250,42.0,12.0,15.0,13.0,0.0
1251,77.0,2.0,120.0,7.0,0.0
1252,77.0,0.0,120.0,2.0,0.0
1253,73.0,0.0,120.0,2.0,0.0
1254,42.0,0.0,15.0,13.0,0.0
1255,85.0,0.0,120.0,1.0,0.0
1256,65.0,0.0,120.0,12.0,0.0
1257,70.0,0.0,120.0,7.0,0.0
1258,89.0,0.0,120.0,1.0,0.0
1259,51.0,0.0,40.0,6.0,0.0
1260,61.0,0.0,120.0,12.0,0.0
1261,73.0,0.0,120.0,4.0,0.0
1262,70.0,16.0,120.0,4.0,0.0
1263,51.0,0.0,40.0,3.0,0.0
1264,73.0,0.0,120.0,7.0,0.0
1265,39.0,19.0,40.0,5.0,0.0
1266,41.0,0.0,40.0,5.0,0.0
1267,53.0,0.0,40.0,3.0,0.0
1268,53.0,35.0,40.0,6.0,0.0
1269,54.0,19.0,15.0,8.0,0.0
1270,42.0,0.0,60.0,8.0,0.0
1271,51.0,0.0,60.0,7.0,0.0
1272,54.0,0.0,90.0,3.0,0.0
1273,42.0,1.0,90.0,5.0,0.0
1274,54.0,0.0,90.0,6.0,0.0
1275,72.0,1.0,120.0,2.0,0.0
1276,72.0,2.0,120.0,4.0,0.0
1277,63.0,3.0,60.0,12.0,0.0
1278,75.0,0.0,120.0,2.0,0.0
1279,84.0,1.0,120.0,1.0,0.0
1280,80.0,0.0,120.0,1.0,0.0
1281,75.0,0.0,40.0,7.0,0.0
1282,60.0,0.0,60.0,12.0,0.0
1283,75.0,0.0,120.0,4.0,0.0
1284,42.0,15.0,15.0,13.0,0.0
1285,42.0,11.0,15.0,13.0,0.0
1286,72.0,6.0,15.0,7.0,0.0
1287,42.0,15.0,15.0,13.0,0.0
1288,63.0,0.0,60.0,7.0,0.0
1289,56.0,0.0,60.0,12.0,0.0
1290,56.0,1.0,60.0,8.0,0.0
1291,30.0,0.0,60.0,5.0,0.0
1292,42.0,0.0,60.0,6.0,0.0
1293,42.0,0.0,60.0,3.0,0.0
1294,42.0,4.0,15.0,13.0,0.0
1295,68.0,0.0,15.0,7.0,0.0
1296,60.0,2.0,40.0,7.0,0.0
1297,42.0,10.0,15.0,13.0,0.0
1298,42.0,0.0,15.0,13.0,0.0
1299,80.0,0.0,60.0,7.0,0.0
1300,29.0,0.0,60.0,5.0,0.0
1301,73.0,0.0,60.0,4.0,0.0
1302,49.0,0.0,60.0,8.0,0.0
1303,61.0,0.0,60.0,8.0,0.0
1304,41.0,0.0,60.0,3.0,0.0
1305,80.0,0.0,60.0,2.0,0.0
1306,68.0,37.0,15.0,10.0,0.0
1307,85.0,20.0,60.0,1.0,0.0
1308,37.0,0.0,60.0,13.0,0.0
1309,56.0,20.0,40.0,12.0,0.0
1310,68.0,0.0,40.0,12.0,0.0
1311,68.0,0.0,60.0,2.0,0.0
1312,61.0,0.0,40.0,7.0,0.0
1313,41.0,0.0,60.0,6.0,0.0
1314,62.0,0.0,40.0,12.0,0.0
1315,83.0,40.0,60.0,1.0,0.0
1316,74.0,0.0,60.0,4.0,0.0
1317,62.0,0.0,15.0,7.0,0.0
1318,59.0,0.0,15.0,12.0,0.0
1319,59.0,38.0,15.0,7.0,0.0
1320,59.0,0.0,15.0,12.0,0.0
1321,71.0,1.0,15.0,4.0,0.0
1322,67.0,1.0,120.0,2.0,0.0
1323,62.0,0.0,15.0,12.0,0.0
1324,86.0,0.0,15.0,1.0,0.0
1325,53.0,0.0,240.0,6.0,0.0
1326,59.0,0.0,40.0,7.0,0.0
1327,62.0,40.0,40.0,7.0,0.0
1328,83.0,0.0,240.0,1.0,0.0
1329,79.0,0.0,120.0,2.0,0.0
1330,74.0,0.0,240.0,4.0,0.0
1331,41.0,0.0,240.0,5.0,0.0
1332,53.0,37.0,240.0,3.0,0.0
1333,79.0,35.0,120.0,7.0,0.0
1334,59.0,1.0,40.0,7.0,0.0
1335,62.0,38.0,40.0,7.0,0.0
1336,59.0,1.0,40.0,7.0,0.0
1337,80.0,0.0,120.0,7.0,0.0
1338,80.0,0.0,120.0,2.0,0.0
1339,62.0,4.0,15.0,7.0,0.0
1340,59.0,0.0,15.0,7.0,0.0
1341,59.0,2.0,15.0,7.0,0.0
1342,62.0,31.0,15.0,7.0,0.0
1343,54.0,0.0,120.0,3.0,0.0
1344,42.0,2.0,120.0,5.0,0.0
1345,75.0,4.0,240.0,4.0,0.0
1346,68.0,3.0,15.0,2.0,0.0
1347,63.0,0.0,120.0,8.0,0.0
1348,51.0,1.0,120.0,8.0,0.0
1349,54.0,0.0,120.0,6.0,0.0
1350,68.0,1.0,120.0,7.0,0.0
1351,63.0,0.0,240.0,12.0,0.0
1352,87.0,0.0,240.0,1.0,0.0
1353,63.0,39.0,40.0,7.0,0.0
1354,56.0,1.0,120.0,2.0,0.0
1355,51.0,1.0,15.0,7.0,0.0
1356,60.0,0.0,15.0,7.0,0.0
1357,60.0,0.0,15.0,7.0,0.0
1358,51.0,1.0,15.0,7.0,0.0
1359,56.0,38.0,40.0,7.0,0.0
1360,39.0,0.0,120.0,3.0,0.0
1361,42.0,0.0,120.0,6.0,0.0
1362,27.0,0.0,120.0,5.0,0.0
1363,51.0,21.0,40.0,7.0,0.0
1364,60.0,0.0,40.0,7.0,0.0
1365,54.0,0.0,120.0,8.0,0.0
1366,42.0,0.0,120.0,8.0,0.0
1367,68.0,19.0,60.0,7.0,0.0
1368,60.0,0.0,40.0,7.0,0.0
1369,51.0,36.0,15.0,7.0,0.0
1370,60.0,0.0,40.0,7.0,0.0
1371,78.0,1.0,240.0,1.0,0.0
1372,72.0,0.0,15.0,4.0,0.0
1373,51.0,0.0,240.0,3.0,0.0
1374,39.0,1.0,240.0,5.0,0.0
1375,51.0,0.0,240.0,6.0,0.0
1376,80.0,0.0,120.0,2.0,0.0
1377,68.0,0.0,120.0,2.0,0.0
1378,66.0,0.0,240.0,4.0,0.0
1379,66.0,0.0,240.0,12.0,0.0
1380,60.0,0.0,15.0,12.0,0.0
1381,84.0,39.0,15.0,1.0,0.0
1382,80.0,39.0,120.0,7.0,0.0
1383,66.0,0.0,15.0,7.0,0.0
1384,60.0,40.0,15.0,7.0,0.0
1385,60.0,40.0,15.0,7.0,0.0
1386,66.0,0.0,40.0,7.0,0.0
1387,81.0,0.0,120.0,2.0,0.0
1388,69.0,0.0,120.0,2.0,0.0
1389,81.0,0.0,120.0,7.0,0.0
1390,60.0,0.0,40.0,7.0,0.0
1391,66.0,40.0,15.0,7.0,0.0
1392,60.0,0.0,15.0,7.0,0.0
1393,66.0,38.0,15.0,7.0,0.0
1394,85.0,0.0,240.0,1.0,0.0
1395,73.0,2.0,240.0,4.0,0.0
1396,64.0,2.0,240.0,4.0,0.0
1397,57.0,0.0,120.0,2.0,0.0
1398,64.0,0.0,120.0,12.0,0.0
1399,61.0,1.0,120.0,12.0,0.0
1400,61.0,0.0,40.0,7.0,0.0
1401,52.0,40.0,40.0,7.0,0.0
1402,57.0,0.0,240.0,8.0,0.0
1403,64.0,0.0,40.0,7.0,0.0
1404,69.0,0.0,120.0,2.0,0.0
1405,40.0,1.0,120.0,5.0,0.0
1406,52.0,3.0,120.0,3.0,0.0
1407,52.0,36.0,120.0,6.0,0.0
1408,57.0,1.0,40.0,7.0,0.0
1409,52.0,1.0,15.0,7.0,0.0
1410,61.0,0.0,15.0,7.0,0.0
1411,28.0,40.0,120.0,5.0,0.0
1412,69.0,0.0,15.0,7.0,0.0
1413,40.0,0.0,120.0,3.0,0.0
1414,40.0,0.0,120.0,6.0,0.0
1415,49.0,0.0,120.0,12.0,0.0
1416,52.0,20.0,40.0,7.0,0.0
1417,61.0,0.0,40.0,7.0,0.0
1418,52.0,0.0,120.0,12.0,0.0
1419,52.0,0.0,40.0,7.0,0.0
1420,61.0,36.0,40.0,7.0,0.0
1421,61.0,0.0,40.0,7.0,0.0
1422,52.0,0.0,40.0,7.0,0.0
1423,61.0,0.0,15.0,8.0,0.0
1424,49.0,0.0,240.0,6.0,0.0
1425,37.0,1.0,240.0,5.0,0.0
1426,52.0,0.0,240.0,8.0,0.0
1427,69.0,1.0,120.0,2.0,0.0
1428,79.0,0.0,240.0,1.0,0.0
1429,76.0,0.0,15.0,1.0,0.0
1430,49.0,1.0,240.0,3.0,0.0
1431,81.0,0.0,120.0,7.0,0.0
1432,76.0,0.0,240.0,4.0,0.0
1433,67.0,0.0,240.0,4.0,0.0
1434,55.0,0.0,240.0,12.0,0.0
1435,81.0,0.0,120.0,2.0,0.0
1436,64.0,0.0,240.0,12.0,0.0
1437,67.0,0.0,15.0,7.0,0.0
1438,64.0,40.0,15.0,7.0,0.0
1439,64.0,39.0,15.0,7.0,0.0
1440,67.0,40.0,40.0,7.0,0.0
1441,64.0,0.0,15.0,7.0,0.0
1442,70.0,0.0,120.0,2.0,0.0
1443,82.0,1.0,120.0,2.0,0.0
1444,82.0,38.0,120.0,7.0,0.0
1445,67.0,40.0,15.0,7.0,0.0
1446,64.0,0.0,40.0,7.0,0.0
1447,67.0,36.0,15.0,7.0,0.0
1448,64.0,0.0,40.0,7.0,0.0
1449,58.0,3.0,240.0,8.0,0.0
1450,50.0,0.0,240.0,3.0,0.0
1451,50.0,0.0,240.0,6.0,0.0
1452,38.0,0.0,240.0,5.0,0.0
1453,81.0,1.0,120.0,2.0,0.0
1454,80.0,1.0,240.0,1.0,0.0
1455,81.0,40.0,120.0,7.0,0.0
1456,68.0,0.0,40.0,7.0,0.0
1457,77.0,0.0,240.0,4.0,0.0
1458,68.0,0.0,240.0,4.0,0.0
1459,69.0,0.0,120.0,2.0,0.0
1460,56.0,0.0,240.0,12.0,0.0
1461,76.0,1.0,240.0,1.0,0.0
1462,65.0,38.0,240.0,12.0,0.0
1463,58.0,0.0,15.0,7.0,0.0
1464,65.0,40.0,15.0,7.0,0.0
1465,58.0,0.0,15.0,7.0,0.0
1466,58.0,0.0,15.0,7.0,0.0
1467,68.0,39.0,15.0,7.0,0.0
1468,58.0,0.0,40.0,7.0,0.0
1469,65.0,0.0,40.0,7.0,0.0
1470,68.0,0.0,15.0,7.0,0.0
1471,58.0,0.0,15.0,7.0,0.0
1472,65.0,40.0,40.0,7.0,0.0
1473,82.0,0.0,120.0,2.0,0.0
1474,58.0,0.0,40.0,7.0,0.0
1475,65.0,0.0,15.0,7.0,0.0
1476,58.0,0.0,15.0,7.0,0.0
1477,68.0,36.0,15.0,7.0,0.0
1478,58.0,0.0,40.0,7.0,0.0
1479,70.0,1.0,15.0,2.0,0.0
1480,68.0,1.0,240.0,12.0,0.0
1481,51.0,0.0,240.0,3.0,0.0
1482,39.0,1.0,240.0,5.0,0.0
1483,82.0,0.0,15.0,7.0,0.0
1484,51.0,40.0,40.0,7.0,0.0
1485,68.0,0.0,40.0,7.0,0.0
1486,58.0,0.0,15.0,7.0,0.0
1487,70.0,0.0,240.0,4.0,0.0
1488,51.0,0.0,240.0,6.0,0.0
1489,68.0,3.0,240.0,4.0,0.0
1490,80.0,36.0,240.0,2.0,0.0
1491,82.0,36.0,120.0,1.0,0.0
1492,63.0,0.0,15.0,7.0,0.0
1493,51.0,0.0,15.0,7.0,0.0
1494,58.0,0.0,15.0,7.0,0.0
1495,68.0,40.0,15.0,7.0,0.0
1496,87.0,2.0,180.0,7.0,0.0
1497,63.0,4.0,15.0,7.0,0.0
1498,51.0,0.0,15.0,7.0,0.0
1499,68.0,0.0,15.0,7.0,0.0
1500,58.0,0.0,15.0,7.0,0.0
1501,87.0,20.0,180.0,1.0,0.0
1502,58.0,0.0,40.0,7.0,0.0
1503,63.0,0.0,15.0,7.0,0.0
1504,51.0,40.0,15.0,7.0,0.0
1505,68.0,0.0,40.0,7.0,0.0
1506,68.0,0.0,40.0,7.0,0.0
1507,63.0,0.0,15.0,7.0,0.0
1508,58.0,0.0,40.0,7.0,0.0
1509,51.0,0.0,40.0,7.0,0.0
1510,27.0,1.0,120.0,5.0,0.0
1511,79.0,0.0,120.0,2.0,0.0
1512,39.0,0.0,120.0,6.0,0.0
1513,61.0,1.0,120.0,8.0,0.0
1514,39.0,1.0,120.0,3.0,0.0
1515,58.0,0.0,15.0,8.0,0.0
1516,75.0,0.0,40.0,7.0,0.0
1517,67.0,0.0,120.0,4.0,0.0
1518,75.0,0.0,120.0,4.0,0.0
1519,63.0,1.0,15.0,12.0,0.0
1520,73.0,40.0,120.0,2.0,0.0
1521,51.0,0.0,15.0,7.0,0.0
1522,67.0,0.0,15.0,7.0,0.0
1523,61.0,18.0,15.0,7.0,0.0
1524,82.0,0.0,60.0,7.0,0.0
1525,82.0,0.0,60.0,1.0,0.0
1526,75.0,37.0,15.0,7.0,0.0
1527,61.0,0.0,15.0,7.0,0.0
1528,67.0,0.0,15.0,7.0,0.0
1529,51.0,0.0,15.0,7.0,0.0
1530,32.0,0.0,40.0,3.0,0.0
1531,68.0,0.0,360.0,10.0,0.0
1532,56.0,0.0,360.0,8.0,0.0
1533,44.0,0.0,360.0,6.0,0.0
1534,85.0,59.0,300.0,1.0,0.0
1535,75.0,0.0,40.0,7.0,0.0
1536,66.0,0.0,40.0,7.0,0.0
1537,85.0,0.0,300.0,7.0,0.0
1538,66.0,0.0,480.0,12.0,0.0
1539,63.0,0.0,15.0,12.0,0.0
1540,75.0,0.0,360.0,4.0,0.0
1541,32.0,5.0,360.0,5.0,0.0
1542,75.0,0.0,360.0,2.0,0.0
1543,78.0,0.0,360.0,2.0,0.0
1544,66.0,55.0,360.0,4.0,0.0
1545,63.0,40.0,15.0,7.0,0.0
1546,66.0,0.0,15.0,7.0,0.0
1547,39.0,0.0,40.0,3.0,0.0
1548,75.0,0.0,15.0,7.0,0.0
1549,66.0,0.0,15.0,7.0,0.0
1550,42.0,40.0,40.0,3.0,0.0
1551,63.0,0.0,15.0,7.0,0.0
1552,75.0,0.0,15.0,7.0,0.0
1553,66.0,0.0,15.0,7.0,0.0
1554,44.0,0.0,40.0,3.0,0.0
1555,66.0,0.0,15.0,7.0,0.0
1556,66.0,0.0,15.0,7.0,0.0
1557,51.0,0.0,40.0,3.0,0.0
1558,75.0,0.0,15.0,7.0,0.0
1559,66.0,0.0,15.0,7.0,0.0
1560,63.0,40.0,15.0,7.0,0.0
1561,55.0,0.0,40.0,3.0,0.0
1562,56.0,1.0,120.0,3.0,0.0
1563,63.0,0.0,15.0,7.0,0.0
1564,66.0,60.0,15.0,7.0,0.0
1565,75.0,0.0,15.0,7.0,0.0
1566,84.0,3.0,120.0,7.0,0.0
1567,84.0,52.0,120.0,1.0,0.0
1568,58.0,2.0,120.0,8.0,0.0
1569,58.0,2.0,120.0,3.0,0.0
1570,66.0,0.0,120.0,7.0,0.0
1571,61.0,1.0,120.0,7.0,0.0
1572,61.0,59.0,120.0,12.0,0.0
1573,82.0,1.0,120.0,1.0,0.0
1574,82.0,55.0,120.0,7.0,0.0
1575,65.0,0.0,120.0,12.0,0.0
1576,65.0,5.0,120.0,7.0,0.0
1577,59.0,0.0,120.0,3.0,0.0
1578,62.0,0.0,120.0,7.0,0.0
1579,62.0,60.0,120.0,12.0,0.0
1580,80.0,5.0,60.0,1.0,0.0
1581,80.0,52.0,120.0,7.0,0.0
1582,66.0,2.0,120.0,7.0,0.0
1583,63.0,1.0,120.0,7.0,0.0
1584,63.0,1.0,120.0,12.0,0.0
1585,66.0,2.0,120.0,12.0,0.0
1586,60.0,57.0,120.0,3.0,0.0
1587,82.0,59.0,120.0,7.0,0.0
1588,65.0,1.0,120.0,7.0,0.0
1589,59.0,1.0,120.0,3.0,0.0
1590,62.0,58.0,120.0,7.0,0.0
1591,80.0,58.0,120.0,7.0,0.0
1592,66.0,3.0,120.0,7.0,0.0
1593,63.0,0.0,120.0,7.0,0.0
1594,60.0,120.0,120.0,3.0,0.0
1595,82.0,0.0,180.0,7.0,0.0
1596,62.0,0.0,120.0,7.0,0.0
1597,65.0,1.0,120.0,7.0,0.0
1598,59.0,114.0,120.0,3.0,0.0
1599,66.0,1.0,120.0,7.0,0.0
1600,63.0,1.0,120.0,7.0,0.0
1601,60.0,123.0,120.0,3.0,0.0
1602,64.0,2.0,120.0,7.0,0.0
1603,58.0,2.0,120.0,3.0,0.0
1604,67.0,55.0,120.0,7.0,0.0
1605,56.0,0.0,120.0,3.0,0.0
1606,65.0,3.0,120.0,7.0,0.0
1607,80.0,1.0,15.0,7.0,0.0
1608,68.0,0.0,60.0,7.0,0.0
1609,61.0,0.0,60.0,7.0,0.0
1610,49.0,0.0,15.0,12.0,0.0
1611,61.0,57.0,15.0,12.0,0.0
1612,81.0,0.0,120.0,7.0,0.0
1613,65.0,0.0,120.0,7.0,0.0
1614,59.0,60.0,120.0,7.0,0.0
1615,61.0,120.0,120.0,12.0,0.0
1616,49.0,0.0,120.0,12.0,0.0
1617,82.0,4.0,240.0,7.0,0.0
1618,58.0,2.0,240.0,7.0,0.0
1619,66.0,59.0,240.0,7.0,0.0
1620,61.0,0.0,120.0,12.0,0.0
1621,49.0,55.0,120.0,12.0,0.0
1622,49.0,0.0,120.0,12.0,0.0
1623,61.0,61.0,120.0,12.0,0.0
1624,63.0,3.0,240.0,7.0,0.0
1625,78.0,5.0,240.0,7.0,0.0
1626,59.0,59.0,120.0,7.0,0.0
1627,61.0,57.0,120.0,12.0,0.0
1628,49.0,0.0,120.0,12.0,0.0
1629,60.0,55.0,120.0,7.0,0.0
1630,56.0,1.0,240.0,7.0,0.0
1631,61.0,60.0,240.0,7.0,0.0
1632,77.0,0.0,240.0,7.0,0.0
1633,61.0,0.0,15.0,12.0,0.0
1634,49.0,120.0,15.0,12.0,0.0
1635,65.0,2.0,240.0,7.0,0.0
1636,73.0,0.0,240.0,7.0,0.0
1637,32.0,3.0,120.0,5.0,0.0
1638,44.0,57.0,120.0,3.0,0.0
1639,61.0,60.0,15.0,12.0,0.0
1640,49.0,0.0,15.0,12.0,0.0
1641,33.0,3.0,120.0,5.0,0.0
1642,45.0,61.0,120.0,3.0,0.0
1643,49.0,0.0,120.0,12.0,0.0
1644,46.0,5.0,240.0,3.0,0.0
1645,61.0,0.0,240.0,7.0,0.0
1646,34.0,2.0,240.0,5.0,0.0
1647,65.0,117.0,240.0,7.0,0.0
1648,61.0,120.0,15.0,12.0,0.0
1649,49.0,54.0,15.0,12.0,0.0
1650,61.0,0.0,15.0,12.0,0.0
1651,70.0,1.0,240.0,7.0,0.0
1652,30.0,2.0,240.0,5.0,0.0
1653,63.0,117.0,120.0,7.0,0.0
1654,42.0,4.0,240.0,3.0,0.0
1655,58.0,232.0,240.0,7.0,0.0
1656,64.0,1.0,120.0,7.0,0.0
1657,29.0,2.0,240.0,5.0,0.0
1658,60.0,0.0,240.0,7.0,0.0
1659,69.0,1.0,240.0,7.0,0.0
1660,65.0,0.0,240.0,7.0,0.0
1661,41.0,119.0,240.0,3.0,0.0
1662,30.0,1.0,240.0,5.0,0.0
1663,46.0,2.0,240.0,7.0,0.0
1664,51.0,118.0,120.0,7.0,0.0
1665,42.0,1.0,240.0,3.0,0.0
1666,58.0,174.0,240.0,7.0,0.0
1667,52.0,0.0,120.0,7.0,0.0
1668,57.0,1.0,180.0,7.0,0.0
1669,29.0,3.0,180.0,5.0,0.0
1670,41.0,1.0,180.0,3.0,0.0
1671,48.0,1.0,180.0,7.0,0.0
1672,53.0,58.0,180.0,7.0,0.0
1673,39.0,59.0,60.0,6.0,0.0
1674,42.0,1.0,15.0,6.0,0.0
1675,58.0,0.0,240.0,7.0,0.0
1676,70.0,0.0,240.0,7.0,0.0
1677,46.0,0.0,15.0,6.0,0.0
1678,51.0,60.0,15.0,6.0,0.0
1679,58.0,5.0,60.0,6.0,0.0
1680,51.0,3.0,60.0,4.0,0.0
1681,63.0,0.0,60.0,2.0,0.0
1682,54.0,55.0,15.0,6.0,0.0
1683,66.0,2.0,60.0,1.0,0.0
1684,66.0,2.0,60.0,2.0,0.0
1685,70.0,1.0,60.0,1.0,0.0
1686,54.0,52.0,15.0,4.0,0.0
1687,58.0,3.0,240.0,7.0,0.0
1688,58.0,1.0,60.0,4.0,0.0
1689,51.0,0.0,60.0,6.0,0.0
1690,54.0,58.0,60.0,6.0,0.0
1691,70.0,1.0,60.0,2.0,0.0
1692,75.0,0.0,60.0,1.0,0.0
1693,49.0,0.0,60.0,6.0,0.0
1694,53.0,0.0,60.0,6.0,0.0
1695,58.0,55.0,60.0,4.0,0.0
1696,66.0,1.0,60.0,4.0,0.0
1697,75.0,3.0,60.0,2.0,0.0
1698,63.0,0.0,15.0,4.0,0.0
1699,51.0,0.0,60.0,6.0,0.0
1700,48.0,56.0,60.0,6.0,0.0
1701,78.0,0.0,60.0,1.0,0.0
1702,82.0,1.0,60.0,1.0,0.0
1703,58.0,0.0,120.0,4.0,0.0
1704,54.0,3.0,60.0,6.0,0.0
1705,70.0,2.0,120.0,2.0,0.0
1706,70.0,0.0,60.0,4.0,0.0
1707,42.0,54.0,60.0,6.0,0.0
1708,51.0,0.0,60.0,6.0,0.0
1709,39.0,1.0,60.0,6.0,0.0
1710,70.0,0.0,15.0,7.0,0.0
1711,78.0,3.0,60.0,1.0,0.0
1712,66.0,53.0,60.0,4.0,0.0
1713,65.0,1.0,60.0,4.0,0.0
1714,77.0,2.0,60.0,1.0,0.0
1715,66.0,3.0,180.0,2.0,0.0
1716,49.0,1.0,60.0,6.0,0.0
1717,54.0,0.0,60.0,4.0,0.0
1718,37.0,40.0,60.0,6.0,0.0
1719,63.0,0.0,240.0,4.0,0.0
1720,36.0,5.0,240.0,5.0,0.0
1721,75.0,0.0,120.0,1.0,0.0
1722,48.0,40.0,40.0,11.0,0.0
1723,48.0,0.0,120.0,6.0,0.0
1724,36.0,0.0,120.0,6.0,0.0
1725,70.0,0.0,180.0,7.0,0.0
1726,66.0,35.0,240.0,4.0,0.0
1727,51.0,37.0,40.0,11.0,0.0
1728,54.0,40.0,40.0,11.0,0.0
1729,51.0,20.0,40.0,11.0,0.0
1730,48.0,0.0,120.0,11.0,0.0
1731,54.0,40.0,40.0,11.0,0.0
1732,69.0,0.0,60.0,7.0,0.0
1733,63.0,0.0,40.0,11.0,0.0
1734,65.0,5.0,240.0,4.0,0.0
1735,57.0,1.0,120.0,4.0,0.0
1736,57.0,0.0,120.0,11.0,0.0
1737,41.0,21.0,40.0,11.0,0.0
1738,29.0,0.0,120.0,5.0,0.0
1739,41.0,0.0,120.0,6.0,0.0
1740,75.0,0.0,60.0,7.0,0.0
1741,48.0,39.0,40.0,11.0,0.0
1742,72.0,0.0,60.0,7.0,0.0
1743,53.0,1.0,40.0,11.0,0.0
1744,30.0,1.0,120.0,5.0,0.0
1745,69.0,0.0,60.0,7.0,0.0
1746,42.0,0.0,120.0,11.0,0.0
1747,49.0,19.0,40.0,11.0,0.0
1748,42.0,40.0,120.0,6.0,0.0
1749,61.0,19.0,60.0,4.0,0.0
1750,53.0,34.0,40.0,11.0,0.0
1751,73.0,0.0,60.0,7.0,0.0
1752,58.0,0.0,60.0,4.0,0.0
1753,58.0,0.0,40.0,11.0,0.0
1754,36.0,40.0,240.0,6.0,0.0
1755,36.0,38.0,40.0,11.0,0.0
1756,24.0,0.0,240.0,5.0,0.0
1757,63.0,0.0,240.0,4.0,0.0
1758,54.0,0.0,240.0,4.0,0.0
1759,70.0,0.0,180.0,7.0,0.0
1760,42.0,42.0,40.0,11.0,0.0
1761,48.0,0.0,40.0,11.0,0.0
1762,36.0,0.0,120.0,11.0,0.0
1763,51.0,40.0,15.0,11.0,0.0
1764,54.0,38.0,40.0,11.0,0.0
1765,69.0,0.0,60.0,7.0,0.0
1766,63.0,0.0,40.0,11.0,0.0
1767,68.0,0.0,120.0,7.0,0.0
1768,65.0,1.0,240.0,4.0,0.0
1769,37.0,2.0,240.0,6.0,0.0
1770,37.0,42.0,40.0,11.0,0.0
1771,25.0,0.0,240.0,5.0,0.0
1772,53.0,0.0,120.0,4.0,0.0
1773,44.0,32.0,40.0,11.0,0.0
1774,49.0,2.0,40.0,11.0,0.0
1775,56.0,1.0,120.0,4.0,0.0
1776,37.0,0.0,120.0,11.0,0.0
1777,53.0,40.0,15.0,11.0,0.0
1778,56.0,34.0,40.0,11.0,0.0
1779,61.0,0.0,60.0,7.0,0.0
1780,65.0,1.0,40.0,11.0,0.0
1781,66.0,0.0,180.0,7.0,0.0
1782,34.0,0.0,240.0,5.0,0.0
1783,61.0,0.0,240.0,4.0,0.0
1784,34.0,0.0,240.0,6.0,0.0
1785,34.0,38.0,40.0,11.0,0.0
1786,46.0,40.0,240.0,6.0,0.0
1787,42.0,44.0,40.0,11.0,0.0
1788,46.0,0.0,40.0,11.0,0.0
1789,34.0,2.0,120.0,11.0,0.0
1790,49.0,38.0,15.0,11.0,0.0
1791,54.0,37.0,40.0,11.0,0.0
1792,65.0,0.0,60.0,7.0,0.0
1793,61.0,0.0,40.0,11.0,0.0
1794,35.0,2.0,240.0,5.0,0.0
1795,54.0,0.0,15.0,4.0,0.0
1796,47.0,0.0,240.0,6.0,0.0
1797,35.0,40.0,40.0,11.0,0.0
1798,63.0,40.0,240.0,4.0,0.0
1799,65.0,0.0,180.0,7.0,0.0
1800,35.0,0.0,240.0,6.0,0.0
1801,54.0,36.0,120.0,11.0,0.0
1802,42.0,40.0,40.0,11.0,0.0
1803,47.0,2.0,40.0,11.0,0.0
1804,51.0,22.0,40.0,11.0,0.0
1805,35.0,0.0,120.0,11.0,0.0
1806,54.0,35.0,40.0,11.0,0.0
1807,63.0,0.0,60.0,7.0,0.0
1808,59.0,1.0,40.0,11.0,0.0
1809,34.0,0.0,240.0,6.0,0.0
1810,54.0,0.0,180.0,4.0,0.0
1811,46.0,0.0,240.0,6.0,0.0
1812,61.0,0.0,240.0,4.0,0.0
1813,34.0,38.0,40.0,11.0,0.0
1814,34.0,0.0,240.0,5.0,0.0
1815,66.0,0.0,180.0,7.0,0.0
1816,42.0,40.0,40.0,11.0,0.0
1817,46.0,2.0,40.0,11.0,0.0
1818,34.0,4.0,120.0,11.0,0.0
1819,49.0,38.0,15.0,11.0,0.0
1820,58.0,36.0,40.0,11.0,0.0
1821,58.0,0.0,60.0,4.0,0.0
1822,65.0,0.0,60.0,7.0,0.0
1823,61.0,0.0,40.0,11.0,0.0
1824,36.0,1.0,240.0,5.0,0.0
1825,36.0,2.0,240.0,6.0,0.0
1826,55.0,3.0,120.0,11.0,0.0
1827,48.0,1.0,240.0,6.0,0.0
1828,64.0,1.0,180.0,2.0,0.0
1829,60.0,0.0,120.0,4.0,0.0
1830,55.0,1.0,120.0,4.0,0.0
1831,64.0,0.0,60.0,7.0,0.0
1832,36.0,20.0,40.0,11.0,0.0
1833,42.0,36.0,40.0,11.0,0.0
1834,48.0,0.0,40.0,11.0,0.0
1835,67.0,0.0,15.0,7.0,0.0
1836,36.0,0.0,120.0,11.0,0.0
1837,67.0,40.0,15.0,7.0,0.0
1838,52.0,19.0,40.0,11.0,0.0
1839,58.0,36.0,40.0,11.0,0.0
1840,70.0,0.0,60.0,7.0,0.0
1841,60.0,39.0,60.0,2.0,0.0
1842,64.0,2.0,40.0,11.0,0.0
1843,48.0,38.0,40.0,11.0,0.0
1844,63.0,0.0,120.0,11.0,0.0
1845,70.0,1.0,15.0,7.0,0.0
1846,63.0,0.0,120.0,2.0,0.0
1847,63.0,0.0,240.0,4.0,0.0
1848,66.0,0.0,240.0,4.0,0.0
1849,36.0,2.0,240.0,5.0,0.0
1850,48.0,0.0,240.0,6.0,0.0
1851,70.0,0.0,180.0,7.0,0.0
1852,51.0,40.0,40.0,11.0,0.0
1853,54.0,2.0,40.0,11.0,0.0
1854,51.0,23.0,40.0,11.0,0.0
1855,48.0,1.0,120.0,11.0,0.0
1856,54.0,38.0,40.0,11.0,0.0
1857,69.0,0.0,60.0,7.0,0.0
1858,63.0,1.0,40.0,11.0,0.0
1859,29.0,2.0,120.0,5.0,0.0
1860,41.0,22.0,40.0,11.0,0.0
1861,57.0,37.0,120.0,4.0,0.0
1862,41.0,0.0,120.0,6.0,0.0
1863,57.0,0.0,120.0,11.0,0.0
1864,75.0,0.0,60.0,7.0,0.0
1865,65.0,39.0,240.0,4.0,0.0
1866,48.0,34.0,40.0,11.0,0.0
1867,72.0,0.0,60.0,7.0,0.0
1868,53.0,4.0,40.0,11.0,0.0
1869,30.0,1.0,120.0,5.0,0.0
1870,41.0,0.0,120.0,11.0,0.0
1871,42.0,2.0,120.0,6.0,0.0
1872,61.0,3.0,60.0,4.0,0.0
1873,49.0,20.0,40.0,11.0,0.0
1874,69.0,0.0,60.0,7.0,0.0
1875,53.0,34.0,40.0,11.0,0.0
1876,58.0,1.0,60.0,4.0,0.0
1877,58.0,1.0,40.0,11.0,0.0
1878,37.0,38.0,40.0,11.0,0.0
1879,69.0,2.0,240.0,2.0,0.0
1880,51.0,0.0,240.0,6.0,0.0
1881,54.0,0.0,120.0,11.0,0.0
1882,66.0,1.0,360.0,2.0,0.0
1883,27.0,0.0,120.0,5.0,0.0
1884,73.0,0.0,15.0,7.0,0.0
1885,66.0,40.0,120.0,4.0,0.0
1886,54.0,0.0,120.0,4.0,0.0
1887,57.0,0.0,240.0,6.0,0.0
1888,45.0,36.0,40.0,11.0,0.0
1889,49.0,6.0,40.0,11.0,0.0
1890,39.0,3.0,120.0,11.0,0.0
1891,54.0,20.0,40.0,11.0,0.0
1892,39.0,38.0,120.0,5.0,0.0
1893,57.0,37.0,40.0,11.0,0.0
1894,72.0,0.0,60.0,7.0,0.0
1895,66.0,0.0,40.0,11.0,0.0
1896,78.0,0.0,60.0,7.0,0.0
1897,60.0,3.0,120.0,4.0,0.0
1898,44.0,16.0,40.0,11.0,0.0
1899,56.0,0.0,240.0,6.0,0.0
1900,68.0,0.0,240.0,2.0,0.0
1901,44.0,2.0,120.0,6.0,0.0
1902,60.0,17.0,60.0,11.0,0.0
1903,63.0,1.0,120.0,4.0,0.0
1904,32.0,33.0,120.0,5.0,0.0
1905,51.0,36.0,40.0,11.0,0.0
1906,72.0,0.0,60.0,7.0,0.0
1907,63.0,0.0,60.0,11.0,0.0
1908,56.0,0.0,40.0,11.0,0.0
1909,49.0,21.0,40.0,11.0,0.0
1910,77.0,0.0,60.0,7.0,0.0
1911,37.0,1.0,120.0,5.0,0.0
1912,56.0,0.0,120.0,4.0,0.0
1913,65.0,1.0,120.0,4.0,0.0
1914,60.0,21.0,60.0,11.0,0.0
1915,65.0,0.0,120.0,2.0,0.0
1916,49.0,0.0,120.0,6.0,0.0
1917,53.0,37.0,40.0,11.0,0.0
1918,72.0,0.0,60.0,7.0,0.0
1919,65.0,35.0,60.0,11.0,0.0
1920,56.0,5.0,40.0,11.0,0.0
1921,42.0,0.0,120.0,6.0,0.0
1922,54.0,0.0,120.0,6.0,0.0
1923,42.0,20.0,40.0,11.0,0.0
1924,77.0,0.0,60.0,7.0,0.0
1925,30.0,0.0,120.0,5.0,0.0
1926,65.0,0.0,120.0,2.0,0.0
1927,70.0,40.0,120.0,2.0,0.0
1928,58.0,0.0,60.0,11.0,0.0
1929,58.0,0.0,120.0,4.0,0.0
1930,61.0,0.0,120.0,4.0,0.0
1931,49.0,38.0,40.0,11.0,0.0
1932,70.0,0.0,60.0,7.0,0.0
1933,61.0,0.0,60.0,11.0,0.0
1934,54.0,1.0,40.0,11.0,0.0
1935,36.0,1.0,60.0,5.0,0.0
1936,48.0,4.0,60.0,6.0,0.0
1937,51.0,0.0,60.0,6.0,0.0
1938,63.0,0.0,120.0,2.0,0.0
1939,57.0,1.0,60.0,11.0,0.0
1940,63.0,0.0,60.0,4.0,0.0
1941,48.0,14.0,40.0,11.0,0.0
1942,75.0,0.0,60.0,7.0,0.0
1943,54.0,20.0,60.0,4.0,0.0
1944,69.0,56.0,120.0,2.0,0.0
1945,51.0,33.0,40.0,11.0,0.0
1946,53.0,1.0,60.0,6.0,0.0
1947,41.0,1.0,60.0,6.0,0.0
1948,69.0,0.0,60.0,7.0,0.0
1949,60.0,0.0,60.0,11.0,0.0
1950,29.0,0.0,60.0,5.0,0.0
1951,60.0,0.0,60.0,4.0,0.0
1952,57.0,4.0,60.0,4.0,0.0
1953,53.0,2.0,40.0,11.0,0.0
1954,61.0,1.0,120.0,4.0,0.0
1955,61.0,0.0,120.0,11.0,0.0
1956,65.0,0.0,120.0,2.0,0.0
1957,58.0,1.0,120.0,4.0,0.0
1958,46.0,1.0,120.0,6.0,0.0
1959,70.0,1.0,120.0,2.0,0.0
1960,73.0,0.0,60.0,7.0,0.0
1961,49.0,3.0,120.0,6.0,0.0
1962,34.0,0.0,120.0,5.0,0.0
1963,46.0,54.0,120.0,11.0,0.0
1964,70.0,0.0,120.0,7.0,0.0
1965,30.0,1.0,120.0,5.0,0.0
1966,58.0,1.0,120.0,11.0,0.0
1967,42.0,120.0,120.0,11.0,0.0
1968,66.0,0.0,60.0,7.0,0.0
1969,37.0,0.0,120.0,3.0,0.0
1970,49.0,118.0,120.0,7.0,0.0
1971,58.0,0.0,120.0,7.0,0.0
1972,61.0,0.0,120.0,7.0,0.0
1973,25.0,0.0,120.0,5.0,0.0
1974,27.0,2.0,120.0,5.0,0.0
1975,63.0,0.0,120.0,7.0,0.0
1976,51.0,0.0,120.0,7.0,0.0
1977,39.0,3.0,120.0,3.0,0.0
1978,53.0,0.0,240.0,7.0,0.0
1979,48.0,0.0,15.0,6.0,0.0
1980,46.0,0.0,15.0,6.0,0.0
1981,41.0,2.0,240.0,3.0,0.0
1982,65.0,1.0,240.0,7.0,0.0
1983,29.0,0.0,240.0,5.0,0.0
1984,58.0,0.0,15.0,7.0,0.0
1985,60.0,117.0,15.0,7.0,0.0
1986,57.0,0.0,120.0,7.0,0.0
1987,45.0,0.0,120.0,6.0,0.0
1988,53.0,0.0,20.0,7.0,0.0
1989,65.0,0.0,20.0,7.0,0.0
1990,67.0,0.0,20.0,7.0,0.0
1991,55.0,0.0,20.0,7.0,0.0
1992,69.0,20.0,20.0,7.0,0.0
1993,57.0,0.0,20.0,7.0,0.0
1994,70.0,0.0,20.0,7.0,0.0
1995,58.0,0.0,20.0,7.0,0.0
1996,72.0,0.0,20.0,7.0,0.0
1997,60.0,0.0,20.0,7.0,0.0
1998,61.0,0.0,20.0,7.0,0.0
1999,73.0,0.0,20.0,7.0,0.0
2000,63.0,2.0,60.0,7.0,0.0
2001,75.0,0.0,60.0,7.0,0.0
2002,73.0,3.0,30.0,7.0,0.0
2003,61.0,0.0,30.0,7.0,0.0
2004,70.0,7.0,60.0,4.0,0.0
2005,46.0,20.0,20.0,5.0,0.0
2006,78.0,0.0,60.0,7.0,0.0
2007,73.0,0.0,60.0,2.0,0.0
2008,78.0,0.0,60.0,4.0,0.0
2009,66.0,0.0,60.0,7.0,0.0
2010,73.0,0.0,60.0,7.0,0.0
2011,82.0,0.0,60.0,1.0,0.0
2012,58.0,0.0,20.0,3.0,0.0
2013,58.0,0.0,20.0,6.0,0.0
2014,85.0,1.0,60.0,1.0,0.0
2015,78.0,17.0,60.0,2.0,0.0
2016,56.0,0.0,20.0,6.0,0.0
2017,56.0,0.0,20.0,3.0,0.0
2018,44.0,13.0,20.0,5.0,0.0
2019,54.0,0.0,20.0,6.0,0.0
2020,54.0,0.0,20.0,3.0,0.0
2021,42.0,2.0,20.0,5.0,0.0
2022,53.0,0.0,20.0,3.0,0.0
2023,41.0,0.0,20.0,5.0,0.0
2024,53.0,20.0,20.0,6.0,0.0
2025,51.0,0.0,20.0,3.0,0.0
2026,39.0,0.0,20.0,5.0,0.0
2027,51.0,17.0,20.0,6.0,0.0
2028,70.0,3.0,30.0,4.0,0.0
2029,70.0,0.0,30.0,2.0,0.0
2030,77.0,0.0,30.0,2.0,0.0
2031,77.0,0.0,30.0,4.0,0.0
2032,70.0,0.0,30.0,7.0,0.0
2033,82.0,2.0,30.0,1.0,0.0
2034,89.0,1.0,30.0,1.0,0.0
2035,65.0,57.0,30.0,7.0,0.0
2036,77.0,0.0,30.0,7.0,0.0
2037,49.0,0.0,20.0,6.0,0.0
2038,37.0,0.0,20.0,5.0,0.0
2039,49.0,0.0,20.0,3.0,0.0
2040,67.0,0.0,60.0,4.0,0.0
2041,36.0,5.0,60.0,5.0,0.0
2042,76.0,0.0,60.0,2.0,0.0
2043,70.0,0.0,60.0,2.0,0.0
2044,76.0,0.0,60.0,4.0,0.0
2045,76.0,0.0,60.0,7.0,0.0
2046,67.0,0.0,60.0,7.0,0.0
2047,48.0,0.0,60.0,6.0,0.0
2048,70.0,0.0,60.0,7.0,0.0
2049,82.0,0.0,60.0,1.0,0.0
2050,48.0,0.0,60.0,3.0,0.0
2051,88.0,48.0,60.0,1.0,0.0
2052,68.0,2.0,30.0,7.0,0.0
2053,37.0,5.0,30.0,5.0,0.0
2054,65.0,0.0,30.0,7.0,0.0
2055,77.0,3.0,30.0,7.0,0.0
2056,49.0,0.0,30.0,3.0,0.0
2057,49.0,52.0,30.0,6.0,0.0
2058,65.0,0.0,60.0,4.0,0.0
2059,65.0,0.0,60.0,7.0,0.0
2060,44.0,5.0,60.0,3.0,0.0
2061,89.0,0.0,60.0,1.0,0.0
2062,44.0,0.0,60.0,6.0,0.0
2063,32.0,0.0,60.0,5.0,0.0
2064,77.0,2.0,60.0,7.0,0.0
2065,84.0,0.0,60.0,1.0,0.0
2066,77.0,3.0,60.0,4.0,0.0
2067,77.0,0.0,60.0,2.0,0.0
2068,72.0,0.0,60.0,2.0,0.0
2069,72.0,50.0,60.0,7.0,0.0
2070,73.0,3.0,30.0,7.0,0.0
2071,46.0,0.0,30.0,3.0,0.0
2072,70.0,0.0,30.0,7.0,0.0
2073,73.0,1.0,30.0,2.0,0.0
2074,82.0,0.0,30.0,1.0,0.0
2075,70.0,1.0,30.0,2.0,0.0
2076,73.0,0.0,30.0,4.0,0.0
2077,34.0,0.0,30.0,5.0,0.0
2078,46.0,2.0,30.0,6.0,0.0
2079,65.0,1.0,30.0,4.0,0.0
2080,65.0,52.0,30.0,7.0,0.0
2081,85.0,0.0,30.0,1.0,0.0
2082,67.0,0.0,60.0,7.0,0.0
2083,64.0,0.0,60.0,7.0,0.0
2084,48.0,0.0,60.0,3.0,0.0
2085,67.0,3.0,60.0,2.0,0.0
2086,72.0,0.0,60.0,2.0,0.0
2087,64.0,2.0,60.0,4.0,0.0
2088,36.0,0.0,60.0,5.0,0.0
2089,84.0,2.0,60.0,1.0,0.0
2090,79.0,0.0,60.0,1.0,0.0
2091,48.0,0.0,60.0,6.0,0.0
2092,72.0,3.0,60.0,4.0,0.0
2093,72.0,53.0,60.0,7.0,0.0
2094,36.0,2.0,30.0,5.0,0.0
2095,67.0,0.0,30.0,7.0,0.0
2096,75.0,0.0,30.0,7.0,0.0
2097,48.0,1.0,30.0,6.0,0.0
2098,48.0,52.0,30.0,3.0,0.0
2099,31.0,3.0,60.0,5.0,0.0
2100,70.0,2.0,60.0,2.0,0.0
2101,63.0,2.0,15.0,7.0,0.0
2102,75.0,0.0,60.0,7.0,0.0
2103,63.0,0.0,60.0,4.0,0.0
2104,43.0,0.0,60.0,3.0,0.0
2105,70.0,2.0,60.0,7.0,0.0
2106,82.0,0.0,60.0,1.0,0.0
2107,75.0,0.0,60.0,2.0,0.0
2108,87.0,3.0,60.0,1.0,0.0
2109,43.0,0.0,60.0,6.0,0.0
2110,75.0,50.0,60.0,4.0,0.0
2111,33.0,2.0,30.0,5.0,0.0
2112,45.0,1.0,30.0,6.0,0.0
2113,63.0,2.0,30.0,7.0,0.0
2114,84.0,0.0,30.0,1.0,0.0
2115,77.0,5.0,30.0,1.0,0.0
2116,72.0,0.0,30.0,4.0,0.0
2117,45.0,0.0,30.0,3.0,0.0
2118,72.0,0.0,30.0,7.0,0.0
2119,63.0,0.0,30.0,4.0,0.0
2120,72.0,0.0,30.0,2.0,0.0
2121,65.0,55.0,30.0,7.0,0.0
2122,53.0,0.0,60.0,7.0,0.0
2123,61.0,3.0,60.0,4.0,0.0
2124,46.0,0.0,60.0,6.0,0.0
2125,34.0,0.0,60.0,5.0,0.0
2126,70.0,0.0,60.0,2.0,0.0
2127,65.0,0.0,15.0,2.0,0.0
2128,70.0,0.0,60.0,7.0,0.0
2129,61.0,0.0,60.0,7.0,0.0
2130,46.0,0.0,60.0,3.0,0.0
2131,82.0,0.0,60.0,1.0,0.0
2132,77.0,0.0,60.0,1.0,0.0
2133,70.0,54.0,60.0,4.0,0.0
2134,67.0,3.0,30.0,2.0,0.0
2135,73.0,2.0,30.0,2.0,0.0
2136,46.0,0.0,30.0,7.0,0.0
2137,79.0,0.0,30.0,1.0,0.0
2138,67.0,1.0,30.0,7.0,0.0
2139,67.0,0.0,30.0,4.0,0.0
2140,64.0,17.0,30.0,4.0,0.0
2141,73.0,0.0,30.0,7.0,0.0
2142,85.0,0.0,30.0,1.0,0.0
2143,64.0,0.0,30.0,7.0,0.0
2144,65.0,3.0,60.0,4.0,0.0
2145,69.0,0.0,60.0,2.0,0.0
2146,29.0,0.0,20.0,5.0,0.0
2147,41.0,0.0,20.0,6.0,0.0
2148,53.0,20.0,20.0,7.0,0.0
2149,41.0,0.0,20.0,3.0,0.0
2150,81.0,0.0,60.0,1.0,0.0
2151,69.0,0.0,60.0,7.0,0.0
2152,72.0,0.0,60.0,7.0,0.0
2153,69.0,0.0,60.0,4.0,0.0
2154,65.0,0.0,60.0,7.0,0.0
2155,84.0,3.0,60.0,1.0,0.0
2156,72.0,14.0,60.0,2.0,0.0
2157,31.0,0.0,20.0,5.0,0.0
2158,55.0,17.0,20.0,7.0,0.0
2159,43.0,0.0,20.0,3.0,0.0
2160,43.0,0.0,20.0,6.0,0.0
2161,33.0,0.0,20.0,5.0,0.0
2162,45.0,0.0,20.0,3.0,0.0
2163,45.0,3.0,20.0,6.0,0.0
2164,57.0,0.0,20.0,7.0,0.0
2165,46.0,0.0,20.0,3.0,0.0
2166,34.0,20.0,20.0,5.0,0.0
2167,46.0,0.0,20.0,6.0,0.0
2168,58.0,0.0,20.0,7.0,0.0
2169,48.0,0.0,20.0,6.0,0.0
2170,60.0,20.0,20.0,7.0,0.0
2171,48.0,0.0,20.0,3.0,0.0
2172,36.0,0.0,20.0,5.0,0.0
2173,49.0,0.0,20.0,3.0,0.0
2174,37.0,0.0,20.0,5.0,0.0
2175,49.0,0.0,20.0,6.0,0.0
2176,61.0,61.0,20.0,7.0,0.0
2177,39.0,0.0,60.0,5.0,0.0
2178,51.0,1.0,60.0,3.0,0.0
2179,63.0,1.0,60.0,7.0,0.0
2180,51.0,54.0,60.0,6.0,0.0
2181,37.0,3.0,30.0,5.0,0.0
2182,49.0,0.0,30.0,3.0,0.0
2183,49.0,0.0,30.0,6.0,0.0
2184,54.0,2.0,60.0,3.0,0.0
2185,70.0,0.0,120.0,2.0,0.0
2186,82.0,2.0,240.0,2.0,0.0
2187,42.0,0.0,60.0,5.0,0.0
2188,70.0,0.0,30.0,7.0,0.0
2189,82.0,10.0,20.0,7.0,0.0
2190,73.0,0.0,120.0,4.0,0.0
2191,61.0,20.0,15.0,7.0,0.0
2192,82.0,1.0,240.0,1.0,0.0
2193,85.0,18.0,120.0,1.0,0.0
2194,70.0,17.0,240.0,4.0,0.0
2195,54.0,15.0,60.0,6.0,0.0
2196,80.0,18.0,20.0,7.0,0.0
2197,61.0,10.0,15.0,7.0,0.0
2198,70.0,0.0,30.0,7.0,0.0
2199,78.0,5.0,20.0,7.0,0.0
2200,77.0,10.0,20.0,7.0,0.0
2201,75.0,17.0,20.0,7.0,0.0
2202,41.0,1.0,30.0,5.0,0.0
2203,53.0,0.0,30.0,3.0,0.0
2204,53.0,2.0,30.0,6.0,0.0
2205,61.0,0.0,15.0,7.0,0.0
2206,70.0,10.0,15.0,7.0,0.0
2207,73.0,0.0,20.0,7.0,0.0
2208,39.0,0.0,60.0,5.0,0.0
2209,78.0,0.0,120.0,4.0,0.0
2210,51.0,0.0,60.0,6.0,0.0
2211,72.0,0.0,60.0,7.0,0.0
2212,72.0,0.0,240.0,2.0,0.0
2213,66.0,0.0,30.0,7.0,0.0
2214,84.0,3.0,240.0,1.0,0.0
2215,70.0,2.0,15.0,7.0,0.0
2216,51.0,0.0,60.0,3.0,0.0
2217,82.0,10.0,20.0,7.0,0.0
2218,80.0,20.0,20.0,7.0,0.0
2219,70.0,10.0,15.0,7.0,0.0
2220,78.0,0.0,20.0,7.0,0.0
2221,77.0,10.0,20.0,7.0,0.0
2222,66.0,20.0,15.0,7.0,0.0
2223,75.0,13.0,20.0,7.0,0.0
2224,36.0,0.0,30.0,5.0,0.0
2225,48.0,0.0,30.0,3.0,0.0
2226,48.0,5.0,30.0,6.0,0.0
2227,70.0,10.0,15.0,7.0,0.0
2228,66.0,0.0,30.0,7.0,0.0
2229,73.0,0.0,20.0,7.0,0.0
2230,53.0,0.0,60.0,6.0,0.0
2231,80.0,2.0,240.0,2.0,0.0
2232,53.0,2.0,60.0,3.0,0.0
2233,41.0,0.0,60.0,5.0,0.0
2234,72.0,0.0,60.0,7.0,0.0
2235,80.0,10.0,20.0,7.0,0.0
2236,60.0,10.0,30.0,7.0,0.0
2237,68.0,0.0,30.0,7.0,0.0
2238,80.0,0.0,240.0,1.0,0.0
2239,68.0,17.0,240.0,4.0,0.0
2240,72.0,17.0,120.0,4.0,0.0
2241,78.0,18.0,20.0,7.0,0.0
2242,68.0,0.0,30.0,7.0,0.0
2243,60.0,0.0,30.0,7.0,0.0
2244,77.0,20.0,20.0,7.0,0.0
2245,60.0,0.0,30.0,7.0,0.0
2246,68.0,10.0,30.0,7.0,0.0
2247,75.0,10.0,20.0,7.0,0.0
2248,73.0,20.0,20.0,7.0,0.0
2249,39.0,0.0,30.0,5.0,0.0
2250,51.0,0.0,30.0,3.0,0.0
2251,51.0,0.0,30.0,6.0,0.0
2252,60.0,0.0,30.0,7.0,0.0
2253,68.0,0.0,30.0,7.0,0.0
2254,72.0,0.0,20.0,7.0,0.0
2255,82.0,0.0,240.0,1.0,0.0
2256,77.0,3.0,120.0,4.0,0.0
2257,65.0,0.0,30.0,7.0,0.0
2258,80.0,10.0,20.0,7.0,0.0
2259,70.0,0.0,60.0,7.0,0.0
2260,49.0,17.0,60.0,3.0,0.0
2261,70.0,17.0,240.0,2.0,0.0
2262,49.0,0.0,60.0,6.0,0.0
2263,37.0,0.0,60.0,5.0,0.0
2264,78.0,20.0,20.0,7.0,0.0
2265,68.0,10.0,15.0,7.0,0.0
2266,77.0,0.0,20.0,7.0,0.0
2267,68.0,3.0,15.0,7.0,0.0
2268,65.0,0.0,15.0,7.0,0.0
2269,75.0,10.0,20.0,7.0,0.0
2270,73.0,18.0,20.0,7.0,0.0
2271,46.0,0.0,30.0,6.0,0.0
2272,46.0,0.0,30.0,3.0,0.0
2273,34.0,0.0,30.0,5.0,0.0
2274,68.0,10.0,15.0,7.0,0.0
2275,65.0,0.0,15.0,7.0,0.0
2276,72.0,0.0,20.0,7.0,0.0
2277,39.0,0.0,60.0,5.0,0.0
2278,51.0,2.0,60.0,3.0,0.0
2279,51.0,0.0,60.0,6.0,0.0
2280,66.0,10.0,30.0,7.0,0.0
2281,58.0,0.0,30.0,7.0,0.0
2282,70.0,0.0,60.0,7.0,0.0
2283,78.0,0.0,480.0,1.0,0.0
2284,78.0,10.0,20.0,7.0,0.0
2285,70.0,0.0,60.0,4.0,0.0
2286,78.0,20.0,480.0,2.0,0.0
2287,66.0,1.0,120.0,4.0,0.0
2288,77.0,18.0,20.0,7.0,0.0
2289,75.0,20.0,20.0,7.0,0.0
2290,66.0,0.0,15.0,7.0,0.0
2291,73.0,10.0,20.0,7.0,0.0
2292,58.0,0.0,15.0,7.0,0.0
2293,75.0,0.0,60.0,4.0,0.0
2294,72.0,18.0,20.0,7.0,0.0
2295,48.0,0.0,30.0,3.0,0.0
2296,48.0,2.0,30.0,6.0,0.0
2297,36.0,0.0,30.0,5.0,0.0
2298,58.0,10.0,15.0,7.0,0.0
2299,66.0,0.0,15.0,7.0,0.0
2300,70.0,2.0,20.0,7.0,0.0
2301,78.0,10.0,20.0,7.0,0.0
2302,60.0,0.0,30.0,7.0,0.0
2303,41.0,0.0,60.0,5.0,0.0
2304,53.0,0.0,60.0,6.0,0.0
2305,69.0,0.0,120.0,2.0,0.0
2306,69.0,0.0,120.0,4.0,0.0
2307,69.0,0.0,60.0,7.0,0.0
2308,53.0,20.0,60.0,3.0,0.0
2309,81.0,17.0,120.0,1.0,0.0
2310,77.0,20.0,20.0,7.0,0.0
2311,57.0,10.0,15.0,7.0,0.0
2312,60.0,0.0,30.0,7.0,0.0
2313,75.0,0.0,20.0,7.0,0.0
2314,73.0,10.0,20.0,7.0,0.0
2315,72.0,18.0,20.0,7.0,0.0
2316,41.0,2.0,30.0,6.0,0.0
2317,29.0,0.0,30.0,5.0,0.0
2318,41.0,0.0,30.0,3.0,0.0
2319,60.0,0.0,15.0,7.0,0.0
2320,57.0,10.0,15.0,7.0,0.0
2321,70.0,0.0,20.0,7.0,0.0
2322,39.0,7.0,60.0,5.0,0.0
2323,51.0,0.0,60.0,3.0,0.0
2324,51.0,0.0,60.0,6.0,0.0
2325,70.0,2.0,120.0,4.0,0.0
2326,78.0,10.0,20.0,7.0,0.0
2327,58.0,0.0,30.0,7.0,0.0
2328,82.0,0.0,120.0,1.0,0.0
2329,70.0,0.0,60.0,7.0,0.0
2330,70.0,15.0,120.0,2.0,0.0
2331,77.0,13.0,20.0,7.0,0.0
2332,66.0,10.0,15.0,7.0,0.0
2333,75.0,20.0,20.0,7.0,0.0
2334,66.0,0.0,15.0,7.0,0.0
2335,58.0,0.0,15.0,7.0,0.0
2336,73.0,10.0,20.0,7.0,0.0
2337,72.0,17.0,20.0,7.0,0.0
2338,48.0,1.0,30.0,3.0,0.0
2339,36.0,0.0,30.0,5.0,0.0
2340,48.0,0.0,30.0,6.0,0.0
2341,58.0,0.0,15.0,7.0,0.0
2342,66.0,10.0,15.0,7.0,0.0
2343,70.0,0.0,20.0,7.0,0.0
2344,41.0,7.0,60.0,5.0,0.0
2345,53.0,0.0,60.0,6.0,0.0
2346,53.0,0.0,60.0,3.0,0.0
2347,72.0,0.0,15.0,4.0,0.0
2348,69.0,0.0,240.0,2.0,0.0
2349,69.0,0.0,60.0,7.0,0.0
2350,78.0,10.0,20.0,7.0,0.0
2351,69.0,1.0,240.0,4.0,0.0
2352,81.0,15.0,240.0,1.0,0.0
2353,77.0,13.0,20.0,7.0,0.0
2354,60.0,0.0,15.0,7.0,0.0
2355,57.0,10.0,15.0,7.0,0.0
2356,75.0,0.0,20.0,7.0,0.0
2357,57.0,0.0,15.0,7.0,0.0
2358,60.0,20.0,15.0,7.0,0.0
2359,73.0,10.0,20.0,7.0,0.0
2360,72.0,20.0,20.0,7.0,0.0
2361,60.0,0.0,30.0,7.0,0.0
2362,57.0,0.0,30.0,7.0,0.0
2363,70.0,0.0,20.0,7.0,0.0
2364,77.0,1.0,120.0,2.0,0.0
2365,69.0,0.0,20.0,7.0,0.0
2366,60.0,0.0,30.0,7.0,0.0
2367,57.0,9.0,30.0,7.0,0.0
2368,29.0,0.0,60.0,5.0,0.0
2369,41.0,18.0,60.0,6.0,0.0
2370,41.0,0.0,60.0,3.0,0.0
2371,77.0,0.0,120.0,1.0,0.0
2372,66.0,0.0,20.0,7.0,0.0
2373,60.0,1.0,30.0,7.0,0.0
2374,57.0,0.0,30.0,7.0,0.0
2375,65.0,0.0,20.0,7.0,0.0
2376,63.0,0.0,20.0,7.0,0.0
2377,57.0,9.0,30.0,7.0,0.0
2378,61.0,0.0,20.0,7.0,0.0
2379,60.0,0.0,15.0,7.0,0.0
2380,57.0,1.0,30.0,7.0,0.0
2381,60.0,0.0,20.0,7.0,0.0
2382,70.0,0.0,120.0,10.0,0.0
2383,82.0,0.0,120.0,1.0,0.0
2384,58.0,0.0,120.0,10.0,0.0
2385,70.0,3.0,120.0,4.0,0.0
2386,42.0,0.0,480.0,6.0,0.0
2387,54.0,0.0,480.0,8.0,0.0
2388,42.0,0.0,480.0,8.0,0.0
2389,42.0,0.0,480.0,3.0,0.0
2390,58.0,0.0,120.0,12.0,0.0
2391,70.0,0.0,120.0,2.0,0.0
2392,58.0,0.0,20.0,7.0,0.0
2393,30.0,0.0,480.0,5.0,0.0
2394,30.0,18.0,480.0,6.0,0.0
2395,42.0,2.0,15.0,13.0,0.0
2396,58.0,0.0,15.0,7.0,0.0
2397,46.0,13.0,15.0,7.0,0.0
2398,58.0,0.0,20.0,7.0,0.0
2399,58.0,8.0,15.0,7.0,0.0
2400,46.0,0.0,15.0,7.0,0.0
2401,58.0,0.0,20.0,7.0,0.0
2402,42.0,12.0,15.0,13.0,0.0
2403,42.0,2.0,15.0,13.0,0.0
2404,58.0,0.0,15.0,7.0,0.0
2405,46.0,13.0,15.0,7.0,0.0
2406,58.0,0.0,20.0,7.0,0.0
2407,42.0,7.0,15.0,13.0,0.0
2408,46.0,8.0,15.0,7.0,0.0
2409,58.0,0.0,20.0,7.0,0.0
2410,72.0,0.0,120.0,2.0,0.0
2411,60.0,2.0,120.0,12.0,0.0
2412,58.0,0.0,15.0,7.0,0.0
2413,42.0,12.0,15.0,13.0,0.0
2414,46.0,0.0,15.0,7.0,0.0
2415,58.0,0.0,20.0,7.0,0.0
2416,72.0,0.0,120.0,4.0,0.0
2417,58.0,10.0,15.0,7.0,0.0
2418,46.0,0.0,20.0,7.0,0.0
2419,42.0,10.0,15.0,13.0,0.0
2420,58.0,0.0,15.0,7.0,0.0
2421,58.0,5.0,15.0,7.0,0.0
2422,46.0,0.0,20.0,7.0,0.0
2423,42.0,0.0,15.0,13.0,0.0
2424,58.0,15.0,15.0,7.0,0.0
2425,42.0,5.0,15.0,13.0,0.0
2426,58.0,0.0,15.0,7.0,0.0
2427,46.0,10.0,15.0,7.0,0.0
2428,42.0,10.0,15.0,13.0,0.0
2429,46.0,0.0,15.0,7.0,0.0
2430,42.0,0.0,15.0,13.0,0.0
2431,61.0,3.0,240.0,12.0,0.0
2432,73.0,2.0,240.0,4.0,0.0
2433,84.0,14.0,15.0,1.0,0.0
2434,58.0,0.0,15.0,7.0,0.0
2435,46.0,2.0,15.0,7.0,0.0
2436,42.0,4.0,15.0,13.0,0.0
2437,73.0,0.0,240.0,2.0,0.0
2438,42.0,9.0,15.0,13.0,0.0
2439,58.0,11.0,15.0,7.0,0.0
2440,42.0,14.0,15.0,13.0,0.0
2441,46.0,6.0,15.0,7.0,0.0
2442,58.0,0.0,15.0,7.0,0.0
2443,58.0,0.0,15.0,7.0,0.0
2444,46.0,1.0,15.0,7.0,0.0
2445,42.0,15.0,15.0,13.0,0.0
2446,58.0,11.0,15.0,7.0,0.0
2447,42.0,9.0,15.0,13.0,0.0
2448,58.0,0.0,15.0,7.0,0.0
2449,46.0,6.0,15.0,7.0,0.0
2450,58.0,0.0,20.0,7.0,0.0
2451,42.0,14.0,15.0,13.0,0.0
2452,48.0,0.0,20.0,7.0,0.0
2453,60.0,0.0,20.0,7.0,0.0
2454,42.0,3.0,15.0,13.0,0.0
2455,60.0,12.0,15.0,7.0,0.0
2456,48.0,7.0,20.0,7.0,0.0
2457,60.0,0.0,20.0,7.0,0.0
2458,46.0,0.0,20.0,7.0,0.0
2459,58.0,0.0,20.0,7.0,0.0
2460,42.0,13.0,15.0,13.0,0.0
2461,46.0,12.0,20.0,7.0,0.0
2462,58.0,2.0,15.0,7.0,0.0
2463,42.0,15.0,15.0,13.0,0.0
2464,42.0,8.0,15.0,13.0,0.0
2465,45.0,0.0,20.0,7.0,0.0
2466,42.0,10.0,15.0,13.0,0.0
2467,57.0,0.0,15.0,7.0,0.0
2468,45.0,0.0,20.0,7.0,0.0
2469,57.0,7.0,15.0,7.0,0.0
2470,42.0,0.0,15.0,13.0,0.0
2471,37.0,0.0,120.0,13.0,0.0
2472,49.0,0.0,120.0,8.0,0.0
2473,77.0,0.0,120.0,4.0,0.0
2474,65.0,1.0,120.0,12.0,0.0
2475,25.0,0.0,120.0,5.0,0.0
2476,37.0,0.0,120.0,3.0,0.0
2477,37.0,0.0,120.0,6.0,0.0
2478,58.0,0.0,120.0,10.0,0.0
2479,70.0,1.0,120.0,10.0,0.0
2480,37.0,1.0,120.0,8.0,0.0
2481,77.0,4.0,120.0,2.0,0.0
2482,89.0,13.0,120.0,1.0,0.0
2483,58.0,0.0,15.0,7.0,0.0
2484,46.0,20.0,15.0,7.0,0.0
2485,58.0,0.0,20.0,7.0,0.0
2486,58.0,20.0,15.0,7.0,0.0
2487,46.0,0.0,15.0,7.0,0.0
2488,46.0,0.0,15.0,7.0,0.0
2489,58.0,20.0,15.0,7.0,0.0
2490,58.0,0.0,15.0,7.0,0.0
2491,58.0,20.0,15.0,7.0,0.0
2492,46.0,0.0,20.0,7.0,0.0
2493,58.0,0.0,20.0,7.0,0.0
2494,63.0,3.0,120.0,12.0,0.0
2495,75.0,2.0,120.0,2.0,0.0
2496,87.0,0.0,120.0,1.0,0.0
2497,46.0,0.0,15.0,7.0,0.0
2498,27.0,0.0,120.0,5.0,0.0
2499,39.0,0.0,120.0,6.0,0.0
2500,58.0,0.0,15.0,7.0,0.0
2501,58.0,0.0,20.0,7.0,0.0
2502,75.0,5.0,120.0,4.0,0.0
2503,39.0,13.0,120.0,3.0,0.0
2504,58.0,20.0,15.0,7.0,0.0
2505,46.0,0.0,15.0,7.0,0.0
2506,58.0,0.0,15.0,7.0,0.0
2507,58.0,20.0,15.0,7.0,0.0
2508,58.0,0.0,15.0,7.0,0.0
2509,58.0,20.0,15.0,7.0,0.0
2510,58.0,0.0,15.0,7.0,0.0
2511,46.0,0.0,15.0,7.0,0.0
2512,58.0,20.0,15.0,7.0,0.0
2513,46.0,0.0,15.0,7.0,0.0
2514,58.0,0.0,15.0,7.0,0.0
2515,58.0,15.0,15.0,7.0,0.0
2516,73.0,5.0,120.0,4.0,0.0
2517,41.0,3.0,240.0,3.0,0.0
2518,58.0,0.0,15.0,7.0,0.0
2519,29.0,1.0,240.0,5.0,0.0
2520,41.0,0.0,240.0,6.0,0.0
2521,46.0,20.0,20.0,7.0,0.0
2522,61.0,2.0,120.0,12.0,0.0
2523,73.0,0.0,120.0,2.0,0.0
2524,85.0,13.0,120.0,1.0,0.0
2525,58.0,0.0,15.0,7.0,0.0
2526,58.0,0.0,15.0,7.0,0.0
2527,46.0,20.0,20.0,7.0,0.0
2528,58.0,0.0,15.0,7.0,0.0
2529,46.0,22.0,20.0,7.0,0.0
2530,46.0,0.0,15.0,7.0,0.0
2531,58.0,0.0,15.0,7.0,0.0
2532,46.0,0.0,20.0,7.0,0.0
2533,58.0,0.0,20.0,7.0,0.0
2534,87.0,3.0,60.0,1.0,0.0
2535,48.0,0.0,20.0,7.0,0.0
2536,75.0,1.0,60.0,4.0,0.0
2537,75.0,4.0,60.0,2.0,0.0
2538,63.0,15.0,60.0,12.0,0.0
2539,60.0,0.0,15.0,7.0,0.0
2540,48.0,0.0,20.0,7.0,0.0
2541,60.0,20.0,15.0,7.0,0.0
2542,58.0,0.0,20.0,7.0,0.0
2543,46.0,0.0,20.0,7.0,0.0
2544,72.0,0.0,60.0,4.0,0.0
2545,84.0,0.0,60.0,1.0,0.0
2546,46.0,19.0,20.0,7.0,0.0
2547,58.0,0.0,20.0,7.0,0.0
2548,60.0,3.0,60.0,12.0,0.0
2549,72.0,10.0,60.0,2.0,0.0
2550,57.0,0.0,20.0,7.0,0.0
2551,45.0,16.0,15.0,7.0,0.0
2552,57.0,0.0,15.0,7.0,0.0
2553,82.0,0.0,360.0,1.0,0.0
2554,70.0,0.0,120.0,4.0,0.0
2555,58.0,4.0,120.0,12.0,0.0
2556,42.0,0.0,480.0,3.0,0.0
2557,54.0,0.0,480.0,8.0,0.0
2558,82.0,10.0,20.0,7.0,0.0
2559,70.0,0.0,20.0,7.0,0.0
2560,70.0,0.0,360.0,2.0,0.0
2561,30.0,1.0,480.0,5.0,0.0
2562,42.0,0.0,480.0,8.0,0.0
2563,46.0,8.0,120.0,6.0,0.0
2564,42.0,5.0,15.0,13.0,0.0
2565,46.0,0.0,15.0,7.0,0.0
2566,42.0,10.0,15.0,13.0,0.0
2567,46.0,0.0,15.0,7.0,0.0
2568,82.0,0.0,15.0,7.0,0.0
2569,70.0,5.0,15.0,7.0,0.0
2570,42.0,15.0,15.0,13.0,0.0
2571,46.0,0.0,15.0,7.0,0.0
2572,82.0,0.0,20.0,7.0,0.0
2573,42.0,15.0,15.0,13.0,0.0
2574,42.0,10.0,15.0,13.0,0.0
2575,82.0,0.0,20.0,7.0,0.0
2576,70.0,10.0,15.0,7.0,0.0
2577,82.0,0.0,20.0,7.0,0.0
2578,70.0,5.0,15.0,7.0,0.0
2579,46.0,0.0,15.0,7.0,0.0
2580,42.0,15.0,15.0,13.0,0.0
2581,42.0,0.0,15.0,13.0,0.0
2582,72.0,1.0,120.0,4.0,0.0
2583,48.0,13.0,120.0,6.0,0.0
2584,82.0,0.0,20.0,7.0,0.0
2585,70.0,0.0,15.0,7.0,0.0
2586,48.0,0.0,20.0,7.0,0.0
2587,60.0,0.0,120.0,12.0,0.0
2588,42.0,8.0,15.0,13.0,0.0
2589,70.0,7.0,15.0,7.0,0.0
2590,42.0,13.0,15.0,13.0,0.0
2591,82.0,0.0,15.0,7.0,0.0
2592,48.0,0.0,15.0,7.0,0.0
2593,70.0,0.0,20.0,7.0,0.0
2594,42.0,3.0,15.0,13.0,0.0
2595,48.0,0.0,15.0,7.0,0.0
2596,82.0,0.0,20.0,7.0,0.0
2597,48.0,0.0,15.0,7.0,0.0
2598,70.0,7.0,15.0,7.0,0.0
2599,42.0,13.0,15.0,13.0,0.0
2600,82.0,2.0,15.0,7.0,0.0
2601,48.0,0.0,20.0,7.0,0.0
2602,42.0,2.0,15.0,13.0,0.0
2603,61.0,1.0,240.0,12.0,0.0
2604,49.0,1.0,240.0,6.0,0.0
2605,70.0,0.0,15.0,7.0,0.0
2606,82.0,0.0,15.0,7.0,0.0
2607,73.0,0.0,240.0,4.0,0.0
2608,42.0,7.0,15.0,13.0,0.0
2609,49.0,0.0,15.0,7.0,0.0
2610,70.0,0.0,15.0,7.0,0.0
2611,82.0,8.0,15.0,7.0,0.0
2612,42.0,12.0,15.0,13.0,0.0
2613,70.0,0.0,15.0,7.0,0.0
2614,82.0,3.0,15.0,7.0,0.0
2615,49.0,0.0,15.0,7.0,0.0
2616,42.0,15.0,15.0,13.0,0.0
2617,70.0,6.0,20.0,7.0,0.0
2618,82.0,0.0,20.0,7.0,0.0
2619,42.0,7.0,15.0,13.0,0.0
2620,49.0,2.0,15.0,7.0,0.0
2621,70.0,0.0,20.0,7.0,0.0
2622,42.0,12.0,15.0,13.0,0.0
2623,70.0,0.0,20.0,7.0,0.0
2624,82.0,1.0,15.0,7.0,0.0
2625,42.0,15.0,15.0,13.0,0.0
2626,84.0,0.0,40.0,1.0,0.0
2627,49.0,2.0,15.0,7.0,0.0
2628,72.0,0.0,40.0,2.0,0.0
2629,84.0,0.0,20.0,7.0,0.0
2630,42.0,6.0,15.0,13.0,0.0
2631,72.0,9.0,15.0,7.0,0.0
2632,49.0,0.0,20.0,7.0,0.0
2633,84.0,0.0,20.0,7.0,0.0
2634,42.0,11.0,15.0,13.0,0.0
2635,82.0,0.0,40.0,1.0,0.0
2636,82.0,0.0,20.0,7.0,0.0
2637,70.0,2.0,40.0,2.0,0.0
2638,70.0,14.0,20.0,7.0,0.0
2639,49.0,0.0,20.0,7.0,0.0
2640,42.0,15.0,15.0,13.0,0.0
2641,42.0,1.0,15.0,13.0,0.0
2642,82.0,0.0,20.0,7.0,0.0
2643,70.0,7.0,20.0,7.0,0.0
2644,49.0,0.0,20.0,7.0,0.0
2645,81.0,0.0,40.0,1.0,0.0
2646,69.0,0.0,40.0,2.0,0.0
2647,49.0,2.0,20.0,7.0,0.0
2648,42.0,12.0,15.0,13.0,0.0
2649,81.0,0.0,15.0,7.0,0.0
2650,69.0,1.0,15.0,7.0,0.0
2651,49.0,18.0,20.0,7.0,0.0
2652,42.0,14.0,15.0,13.0,0.0
2653,37.0,3.0,120.0,13.0,0.0
2654,37.0,0.0,120.0,8.0,0.0
2655,49.0,0.0,120.0,8.0,0.0
2656,37.0,0.0,120.0,3.0,0.0
2657,82.0,20.0,360.0,1.0,0.0
2658,70.0,0.0,120.0,10.0,0.0
2659,65.0,0.0,120.0,12.0,0.0
2660,70.0,0.0,360.0,2.0,0.0
2661,25.0,2.0,120.0,5.0,0.0
2662,58.0,0.0,120.0,10.0,0.0
2663,53.0,0.0,20.0,7.0,0.0
2664,77.0,0.0,120.0,4.0,0.0
2665,53.0,18.0,120.0,6.0,0.0
2666,82.0,0.0,15.0,7.0,0.0
2667,70.0,20.0,15.0,7.0,0.0
2668,53.0,0.0,15.0,7.0,0.0
2669,70.0,20.0,15.0,7.0,0.0
2670,70.0,0.0,15.0,7.0,0.0
2671,82.0,20.0,15.0,7.0,0.0
2672,53.0,20.0,15.0,7.0,0.0
2673,70.0,0.0,15.0,7.0,0.0
2674,82.0,0.0,15.0,7.0,0.0
2675,82.0,0.0,15.0,7.0,0.0
2676,53.0,17.0,15.0,7.0,0.0
2677,70.0,0.0,20.0,7.0,0.0
2678,51.0,2.0,120.0,6.0,0.0
2679,63.0,1.0,120.0,12.0,0.0
2680,27.0,7.0,120.0,5.0,0.0
2681,75.0,0.0,120.0,4.0,0.0
2682,82.0,0.0,15.0,7.0,0.0
2683,39.0,13.0,120.0,3.0,0.0
2684,70.0,0.0,15.0,7.0,0.0
2685,51.0,0.0,15.0,7.0,0.0
2686,82.0,20.0,15.0,7.0,0.0
2687,51.0,0.0,15.0,7.0,0.0
2688,70.0,20.0,20.0,7.0,0.0
2689,82.0,0.0,20.0,7.0,0.0
2690,51.0,0.0,15.0,7.0,0.0
2691,82.0,0.0,20.0,7.0,0.0
2692,51.0,0.0,15.0,7.0,0.0
2693,70.0,20.0,15.0,7.0,0.0
2694,51.0,17.0,15.0,7.0,0.0
2695,82.0,0.0,15.0,7.0,0.0
2696,70.0,0.0,20.0,7.0,0.0
2697,41.0,3.0,240.0,3.0,0.0
2698,49.0,0.0,120.0,6.0,0.0
2699,61.0,2.0,120.0,12.0,0.0
2700,82.0,0.0,15.0,7.0,0.0
2701,73.0,0.0,120.0,4.0,0.0
2702,49.0,20.0,20.0,7.0,0.0
2703,70.0,0.0,20.0,7.0,0.0
2704,29.0,0.0,240.0,5.0,0.0
2705,49.0,0.0,20.0,7.0,0.0
2706,70.0,0.0,15.0,7.0,0.0
2707,49.0,0.0,20.0,7.0,0.0
2708,82.0,20.0,15.0,7.0,0.0
2709,82.0,0.0,15.0,7.0,0.0
2710,70.0,0.0,20.0,7.0,0.0
2711,82.0,0.0,15.0,7.0,0.0
2712,49.0,20.0,15.0,7.0,0.0
2713,70.0,0.0,15.0,7.0,0.0
2714,49.0,0.0,15.0,7.0,0.0
2715,82.0,18.0,15.0,7.0,0.0
2716,72.0,0.0,40.0,2.0,0.0
2717,75.0,0.0,60.0,4.0,0.0
2718,72.0,20.0,20.0,7.0,0.0
2719,63.0,0.0,60.0,12.0,0.0
2720,51.0,0.0,20.0,7.0,0.0
2721,51.0,0.0,60.0,6.0,0.0
2722,84.0,0.0,40.0,1.0,0.0
2723,84.0,0.0,15.0,7.0,0.0
2724,72.0,0.0,20.0,7.0,0.0
2725,51.0,0.0,20.0,7.0,0.0
2726,82.0,0.0,20.0,7.0,0.0
2727,51.0,0.0,20.0,7.0,0.0
2728,70.0,0.0,40.0,2.0,0.0
2729,82.0,0.0,40.0,1.0,0.0
2730,48.0,0.0,60.0,6.0,0.0
2731,70.0,20.0,15.0,7.0,0.0
2732,82.0,0.0,20.0,7.0,0.0
2733,60.0,20.0,60.0,12.0,0.0
2734,72.0,0.0,60.0,4.0,0.0
2735,81.0,0.0,40.0,1.0,0.0
2736,48.0,20.0,15.0,7.0,0.0
2737,69.0,0.0,40.0,2.0,0.0
2738,69.0,17.0,15.0,7.0,0.0
2739,48.0,0.0,20.0,7.0,0.0
2740,81.0,0.0,15.0,7.0,0.0
2741,70.0,0.0,120.0,4.0,0.0
2742,82.0,0.0,20.0,7.0,0.0
2743,58.0,0.0,120.0,8.0,0.0
2744,70.0,0.0,120.0,10.0,0.0
2745,58.0,0.0,120.0,6.0,0.0
2746,70.0,0.0,120.0,2.0,0.0
2747,46.0,0.0,120.0,6.0,0.0
2748,70.0,20.0,20.0,7.0,0.0
2749,58.0,0.0,120.0,12.0,0.0
2750,82.0,2.0,120.0,1.0,0.0
2751,46.0,0.0,20.0,7.0,0.0
2752,58.0,18.0,120.0,10.0,0.0
2753,58.0,0.0,20.0,7.0,0.0
2754,46.0,20.0,15.0,7.0,0.0
2755,46.0,0.0,15.0,7.0,0.0
2756,58.0,0.0,15.0,7.0,0.0
2757,58.0,0.0,20.0,7.0,0.0
2758,46.0,0.0,15.0,7.0,0.0
2759,58.0,20.0,15.0,7.0,0.0
2760,58.0,0.0,20.0,7.0,0.0
2761,58.0,0.0,15.0,7.0,0.0
2762,46.0,20.0,15.0,7.0,0.0
2763,57.0,1.0,120.0,6.0,0.0
2764,48.0,1.0,120.0,6.0,0.0
2765,58.0,0.0,15.0,7.0,0.0
2766,57.0,19.0,120.0,8.0,0.0
2767,58.0,0.0,15.0,7.0,0.0
2768,48.0,0.0,15.0,7.0,0.0
2769,58.0,20.0,15.0,7.0,0.0
2770,48.0,20.0,15.0,7.0,0.0
2771,58.0,0.0,15.0,7.0,0.0
2772,58.0,0.0,15.0,7.0,0.0
2773,48.0,20.0,15.0,7.0,0.0
2774,58.0,0.0,15.0,7.0,0.0
2775,58.0,0.0,15.0,7.0,0.0
2776,48.0,0.0,20.0,7.0,0.0
2777,58.0,18.0,15.0,7.0,0.0
2778,48.0,0.0,20.0,7.0,0.0
2779,56.0,1.0,120.0,8.0,0.0
2780,56.0,2.0,120.0,6.0,0.0
2781,58.0,1.0,15.0,7.0,0.0
2782,50.0,20.0,120.0,6.0,0.0
2783,50.0,0.0,20.0,7.0,0.0
2784,58.0,0.0,15.0,7.0,0.0
2785,50.0,0.0,20.0,7.0,0.0
2786,58.0,20.0,15.0,7.0,0.0
2787,58.0,20.0,15.0,7.0,0.0
2788,50.0,0.0,20.0,7.0,0.0
2789,58.0,0.0,15.0,7.0,0.0
2790,58.0,0.0,15.0,7.0,0.0
2791,50.0,20.0,15.0,7.0,0.0
2792,58.0,0.0,20.0,7.0,0.0
2793,50.0,17.0,15.0,7.0,0.0
2794,58.0,0.0,20.0,7.0,0.0
2795,51.0,0.0,40.0,6.0,0.0
2796,51.0,0.0,20.0,7.0,0.0
2797,54.0,0.0,40.0,6.0,0.0
2798,54.0,20.0,40.0,8.0,0.0
2799,51.0,0.0,20.0,7.0,0.0
2800,60.0,0.0,15.0,7.0,0.0
2801,60.0,20.0,15.0,7.0,0.0
2802,53.0,0.0,40.0,8.0,0.0
2803,53.0,0.0,40.0,6.0,0.0
2804,49.0,0.0,40.0,6.0,0.0
2805,49.0,0.0,20.0,7.0,0.0
2806,58.0,0.0,15.0,7.0,0.0
2807,58.0,0.0,20.0,7.0,0.0
2808,49.0,18.0,20.0,7.0,0.0
2809,51.0,0.0,40.0,8.0,0.0
2810,51.0,0.0,40.0,6.0,0.0
2811,47.0,0.0,40.0,6.0,0.0
2812,47.0,18.0,20.0,7.0,0.0
2813,57.0,0.0,15.0,7.0,0.0
2814,57.0,2.0,15.0,7.0,0.0
2815,47.0,18.0,20.0,7.0,0.0
2816,34.0,1.0,15.0,3.0,0.0
2817,50.0,0.0,120.0,6.0,0.0
2818,46.0,20.0,20.0,7.0,0.0
2819,34.0,0.0,15.0,5.0,0.0
2820,58.0,0.0,120.0,8.0,0.0
2821,58.0,19.0,120.0,4.0,0.0
2822,46.0,0.0,120.0,6.0,0.0
2823,58.0,0.0,15.0,7.0,0.0
2824,58.0,0.0,15.0,7.0,0.0
2825,58.0,20.0,15.0,7.0,0.0
2826,46.0,0.0,15.0,7.0,0.0
2827,46.0,0.0,15.0,7.0,0.0
2828,58.0,20.0,15.0,7.0,0.0
2829,58.0,0.0,15.0,7.0,0.0
2830,46.0,20.0,20.0,7.0,0.0
2831,58.0,0.0,20.0,7.0,0.0
2832,46.0,0.0,20.0,7.0,0.0
2833,51.0,1.0,120.0,6.0,0.0
2834,58.0,0.0,15.0,7.0,0.0
2835,57.0,0.0,120.0,4.0,0.0
2836,48.0,0.0,20.0,7.0,0.0
2837,48.0,19.0,120.0,6.0,0.0
2838,57.0,0.0,120.0,8.0,0.0
2839,58.0,0.0,15.0,7.0,0.0
2840,58.0,20.0,15.0,7.0,0.0
2841,48.0,0.0,15.0,7.0,0.0
2842,58.0,0.0,15.0,7.0,0.0
2843,58.0,20.0,15.0,7.0,0.0
2844,48.0,0.0,15.0,7.0,0.0
2845,58.0,0.0,15.0,7.0,0.0
2846,58.0,20.0,15.0,7.0,0.0
2847,48.0,0.0,20.0,7.0,0.0
2848,56.0,3.0,120.0,8.0,0.0
2849,56.0,0.0,120.0,4.0,0.0
2850,50.0,0.0,120.0,6.0,0.0
2851,53.0,0.0,120.0,6.0,0.0
2852,50.0,0.0,20.0,7.0,0.0
2853,58.0,0.0,15.0,7.0,0.0
2854,58.0,1.0,15.0,7.0,0.0
2855,58.0,0.0,15.0,7.0,0.0
2856,58.0,20.0,15.0,7.0,0.0
2857,50.0,20.0,15.0,7.0,0.0
2858,58.0,0.0,15.0,7.0,0.0
2859,58.0,0.0,20.0,7.0,0.0
2860,50.0,2.0,20.0,7.0,0.0
2861,58.0,0.0,20.0,7.0,0.0
2862,50.0,2.0,20.0,7.0,0.0
2863,58.0,0.0,20.0,7.0,0.0
2864,50.0,2.0,20.0,7.0,0.0
2865,58.0,15.0,15.0,7.0,0.0
2866,54.0,3.0,60.0,4.0,0.0
2867,54.0,0.0,40.0,8.0,0.0
2868,54.0,0.0,40.0,6.0,0.0
2869,51.0,0.0,40.0,6.0,0.0
2870,60.0,0.0,15.0,7.0,0.0
2871,60.0,0.0,20.0,7.0,0.0
2872,51.0,20.0,15.0,7.0,0.0
2873,49.0,20.0,20.0,7.0,0.0
2874,58.0,0.0,20.0,7.0,0.0
2875,49.0,0.0,40.0,6.0,0.0
2876,53.0,0.0,40.0,6.0,0.0
2877,53.0,2.0,40.0,8.0,0.0
2878,49.0,0.0,20.0,7.0,0.0
2879,58.0,0.0,20.0,7.0,0.0
2880,51.0,0.0,40.0,6.0,0.0
2881,51.0,0.0,40.0,8.0,0.0
2882,47.0,1.0,40.0,6.0,0.0
2883,57.0,0.0,15.0,7.0,0.0
2884,57.0,1.0,15.0,7.0,0.0
2885,47.0,18.0,15.0,7.0,0.0
2886,82.0,0.0,240.0,1.0,0.0
2887,58.0,0.0,15.0,7.0,0.0
2888,82.0,0.0,240.0,2.0,0.0
2889,74.0,0.0,240.0,2.0,0.0
2890,70.0,0.0,60.0,10.0,0.0
2891,58.0,15.0,60.0,8.0,0.0
2892,74.0,0.0,240.0,4.0,0.0
2893,34.0,0.0,240.0,3.0,0.0
2894,46.0,0.0,60.0,6.0,0.0
2895,50.0,0.0,60.0,6.0,0.0
2896,70.0,0.0,240.0,4.0,0.0
2897,46.0,15.0,15.0,7.0,0.0
2898,58.0,0.0,60.0,10.0,0.0
2899,77.0,1.0,240.0,1.0,0.0
2900,34.0,13.0,240.0,5.0,0.0
2901,47.0,0.0,15.0,7.0,0.0
2902,59.0,0.0,15.0,7.0,0.0
2903,58.0,0.0,15.0,7.0,0.0
2904,46.0,0.0,15.0,7.0,0.0
2905,59.0,0.0,15.0,7.0,0.0
2906,47.0,0.0,15.0,7.0,0.0
2907,58.0,0.0,15.0,7.0,0.0
2908,46.0,0.0,15.0,7.0,0.0
2909,59.0,0.0,15.0,7.0,0.0
2910,47.0,0.0,15.0,7.0,0.0
2911,46.0,0.0,15.0,7.0,0.0
2912,58.0,0.0,15.0,7.0,0.0
2913,47.0,13.0,15.0,7.0,0.0
2914,59.0,0.0,15.0,7.0,0.0
2915,58.0,0.0,15.0,7.0,0.0
2916,46.0,18.0,15.0,7.0,0.0
2917,59.0,0.0,15.0,7.0,0.0
2918,47.0,15.0,15.0,7.0,0.0
2919,46.0,0.0,15.0,7.0,0.0
2920,58.0,0.0,15.0,7.0,0.0
2921,47.0,0.0,15.0,7.0,0.0
2922,59.0,0.0,15.0,7.0,0.0
2923,58.0,0.0,15.0,7.0,0.0
2924,46.0,16.0,15.0,7.0,0.0
2925,47.0,15.0,15.0,7.0,0.0
2926,59.0,0.0,15.0,7.0,0.0
2927,57.0,0.0,15.0,7.0,0.0
2928,45.0,0.0,15.0,7.0,0.0
2929,46.0,0.0,15.0,7.0,0.0
2930,58.0,0.0,15.0,7.0,0.0
2931,36.0,2.0,240.0,5.0,0.0
2932,81.0,0.0,240.0,1.0,0.0
2933,75.0,1.0,240.0,4.0,0.0
2934,57.0,0.0,240.0,6.0,0.0
2935,48.0,1.0,15.0,7.0,0.0
2936,60.0,0.0,15.0,7.0,0.0
2937,69.0,0.0,240.0,4.0,0.0
2938,36.0,0.0,15.0,3.0,0.0
2939,54.0,1.0,240.0,6.0,0.0
2940,75.0,0.0,240.0,2.0,0.0
2941,81.0,0.0,240.0,2.0,0.0
2942,78.0,29.0,240.0,1.0,0.0
2943,49.0,0.0,15.0,7.0,0.0
2944,61.0,0.0,15.0,7.0,0.0
2945,42.0,13.0,15.0,13.0,0.0
2946,37.0,15.0,15.0,3.0,0.0
2947,48.0,3.0,15.0,7.0,0.0
2948,42.0,0.0,15.0,13.0,0.0
2949,60.0,0.0,15.0,7.0,0.0
2950,36.0,12.0,15.0,3.0,0.0
2951,49.0,15.0,15.0,7.0,0.0
2952,37.0,0.0,15.0,3.0,0.0
2953,61.0,0.0,15.0,7.0,0.0
2954,42.0,0.0,15.0,13.0,0.0
2955,36.0,1.0,15.0,3.0,0.0
2956,48.0,0.0,15.0,7.0,0.0
2957,60.0,0.0,15.0,7.0,0.0
2958,61.0,0.0,15.0,7.0,0.0
2959,49.0,1.0,15.0,7.0,0.0
2960,42.0,1.0,15.0,13.0,0.0
2961,37.0,13.0,15.0,3.0,0.0
2962,36.0,1.0,15.0,3.0,0.0
2963,60.0,0.0,15.0,7.0,0.0
2964,48.0,0.0,15.0,7.0,0.0
2965,37.0,1.0,15.0,3.0,0.0
2966,42.0,0.0,15.0,13.0,0.0
2967,49.0,0.0,15.0,7.0,0.0
2968,61.0,0.0,15.0,7.0,0.0
2969,36.0,4.0,15.0,3.0,0.0
2970,48.0,0.0,15.0,7.0,0.0
2971,60.0,0.0,15.0,7.0,0.0
2972,37.0,1.0,15.0,3.0,0.0
2973,49.0,0.0,15.0,7.0,0.0
2974,42.0,0.0,15.0,13.0,0.0
2975,61.0,0.0,15.0,7.0,0.0
2976,36.0,1.0,15.0,3.0,0.0
2977,42.0,14.0,15.0,13.0,0.0
2978,48.0,0.0,15.0,7.0,0.0
2979,60.0,0.0,15.0,7.0,0.0
2980,61.0,0.0,15.0,7.0,0.0
2981,49.0,1.0,15.0,7.0,0.0
2982,37.0,0.0,15.0,3.0,0.0
2983,36.0,2.0,15.0,3.0,0.0
2984,42.0,13.0,15.0,13.0,0.0
2985,60.0,0.0,15.0,7.0,0.0
2986,48.0,0.0,15.0,7.0,0.0
2987,37.0,1.0,15.0,3.0,0.0
2988,49.0,14.0,15.0,7.0,0.0
2989,61.0,0.0,15.0,7.0,0.0
2990,42.0,0.0,15.0,13.0,0.0
2991,47.0,1.0,15.0,7.0,0.0
2992,35.0,0.0,15.0,3.0,0.0
2993,59.0,0.0,15.0,7.0,0.0
2994,42.0,11.0,15.0,13.0,0.0
2995,60.0,0.0,15.0,7.0,0.0
2996,48.0,0.0,15.0,7.0,0.0
2997,36.0,0.0,15.0,3.0,0.0
2998,42.0,0.0,15.0,13.0,0.0
2999,37.0,0.0,60.0,3.0,0.0
3000,25.0,30.0,30.0,0.0,0.0
3001,37.0,2.0,60.0,13.0,0.0
3002,53.0,0.0,60.0,6.0,0.0
3003,37.0,0.0,60.0,5.0,0.0
3004,80.0,0.0,60.0,1.0,0.0
3005,77.0,0.0,60.0,1.0,0.0
3006,77.0,0.0,60.0,2.0,0.0
3007,68.0,0.0,60.0,4.0,0.0
3008,77.0,0.0,60.0,4.0,0.0
3009,80.0,0.0,60.0,2.0,0.0
3010,49.0,0.0,60.0,7.0,0.0
3011,56.0,0.0,60.0,6.0,0.0
3012,61.0,0.0,60.0,7.0,0.0
3013,37.0,176.0,30.0,0.0,0.0
3014,49.0,2.0,180.0,0.0,0.0
3015,53.0,0.0,180.0,0.0,0.0
3016,61.0,2.0,180.0,0.0,0.0
3017,77.0,0.0,180.0,0.0,0.0
3018,56.0,0.0,180.0,0.0,0.0
3019,80.0,0.0,180.0,0.0,0.0
3020,73.0,0.0,180.0,0.0,0.0
3021,85.0,31.0,180.0,0.0,0.0
3022,24.0,29.0,30.0,0.0,0.0
3023,36.0,173.0,30.0,0.0,0.0
3024,87.0,4.0,180.0,0.0,0.0
3025,57.0,1.0,180.0,0.0,0.0
3026,45.0,0.0,180.0,0.0,0.0
3027,78.0,0.0,180.0,0.0,0.0
3028,54.0,30.0,180.0,0.0,0.0
3029,81.0,0.0,180.0,0.0,0.0
3030,75.0,0.0,180.0,0.0,0.0
3031,23.0,30.0,30.0,0.0,0.0
3032,35.0,140.0,30.0,0.0,0.0
3033,89.0,2.0,180.0,0.0,0.0
3034,56.0,3.0,180.0,0.0,0.0
3035,85.0,3.0,180.0,0.0,0.0
3036,44.0,0.0,180.0,0.0,0.0
3037,53.0,0.0,180.0,0.0,0.0
3038,77.0,0.0,180.0,0.0,0.0
3039,80.0,17.0,180.0,0.0,0.0
3040,39.0,20.0,40.0,0.0,0.0
3041,51.0,15.0,40.0,0.0,0.0
3042,63.0,0.0,40.0,0.0,0.0
3043,37.0,0.0,40.0,0.0,0.0
3044,61.0,20.0,40.0,0.0,0.0
3045,49.0,0.0,20.0,0.0,0.0
3046,35.0,0.0,150.0,0.0,0.0
3047,42.0,20.0,40.0,0.0,0.0
3048,54.0,0.0,40.0,0.0,0.0
3049,66.0,20.0,40.0,0.0,0.0
3050,41.0,20.0,40.0,0.0,0.0
3051,65.0,0.0,40.0,0.0,0.0
3052,53.0,20.0,40.0,0.0,0.0
3053,46.0,20.0,40.0,0.0,0.0
3054,70.0,20.0,40.0,0.0,0.0
3055,58.0,0.0,40.0,0.0,0.0
3056,44.0,20.0,40.0,0.0,0.0
3057,56.0,0.0,40.0,0.0,0.0
3058,68.0,20.0,40.0,0.0,0.0
3059,51.0,20.0,40.0,0.0,0.0
3060,63.0,20.0,40.0,0.0,0.0
3061,75.0,0.0,40.0,0.0,0.0
3062,49.0,20.0,40.0,0.0,0.0
3063,73.0,0.0,40.0,0.0,0.0
3064,61.0,20.0,40.0,0.0,0.0
3065,47.0,20.0,150.0,0.0,0.0
3066,54.0,20.0,40.0,0.0,0.0
3067,66.0,20.0,40.0,0.0,0.0
3068,78.0,0.0,40.0,0.0,0.0
3069,53.0,20.0,40.0,0.0,0.0
3070,65.0,0.0,40.0,0.0,0.0
3071,77.0,20.0,40.0,0.0,0.0
3072,58.0,20.0,40.0,0.0,0.0
3073,70.0,20.0,40.0,0.0,0.0
3074,82.0,0.0,40.0,0.0,0.0
3075,56.0,0.0,40.0,0.0,0.0
3076,68.0,0.0,40.0,0.0,0.0
3077,80.0,20.0,40.0,0.0,0.0
3078,63.0,20.0,40.0,0.0,0.0
3079,75.0,0.0,40.0,0.0,0.0
3080,87.0,20.0,40.0,0.0,0.0
3081,99.0,0.0,40.0,0.0,0.0
3082,73.0,0.0,40.0,0.0,0.0
3083,61.0,20.0,40.0,0.0,0.0
3084,97.0,2.0,40.0,0.0,0.0
3085,85.0,18.0,40.0,0.0,0.0
3086,70.0,20.0,40.0,0.0,0.0
3087,58.0,0.0,40.0,0.0,0.0
3088,82.0,0.0,40.0,0.0,0.0
3089,94.0,20.0,40.0,0.0,0.0
3090,56.0,0.0,40.0,0.0,0.0
3091,68.0,20.0,40.0,0.0,0.0
3092,92.0,20.0,40.0,0.0,0.0
3093,80.0,0.0,40.0,0.0,0.0
3094,65.0,20.0,40.0,0.0,0.0
3095,53.0,0.0,40.0,0.0,0.0
3096,77.0,20.0,40.0,0.0,0.0
3097,89.0,0.0,40.0,0.0,0.0
3098,63.0,20.0,40.0,0.0,0.0
3099,51.0,0.0,40.0,0.0,0.0
3100,75.0,0.0,40.0,0.0,0.0
3101,87.0,20.0,40.0,0.0,0.0
3102,61.0,0.0,40.0,0.0,0.0
3103,49.0,20.0,40.0,0.0,0.0
3104,73.0,0.0,40.0,0.0,0.0
3105,85.0,20.0,40.0,0.0,0.0
3106,60.0,20.0,40.0,0.0,0.0
3107,48.0,0.0,40.0,0.0,0.0
3108,84.0,20.0,40.0,0.0,0.0
3109,72.0,0.0,40.0,0.0,0.0
3110,59.0,20.0,40.0,0.0,0.0
3111,47.0,0.0,40.0,0.0,0.0
3112,83.0,20.0,40.0,0.0,0.0
3113,71.0,0.0,40.0,0.0,0.0
3114,44.0,0.0,40.0,0.0,0.0
3115,56.0,20.0,40.0,0.0,0.0
3116,68.0,0.0,40.0,0.0,0.0
3117,80.0,20.0,40.0,0.0,0.0
3118,41.0,20.0,40.0,0.0,0.0
3119,53.0,0.0,40.0,0.0,0.0
3120,77.0,20.0,40.0,0.0,0.0
3121,65.0,0.0,40.0,0.0,0.0
3122,51.0,20.0,40.0,0.0,0.0
3123,39.0,0.0,40.0,0.0,0.0
3124,63.0,0.0,40.0,0.0,0.0
3125,75.0,20.0,40.0,0.0,0.0
3126,49.0,0.0,40.0,0.0,0.0
3127,37.0,20.0,40.0,0.0,0.0
3128,73.0,20.0,40.0,0.0,0.0
3129,61.0,0.0,40.0,0.0,0.0
3130,36.0,0.0,40.0,0.0,0.0
3131,48.0,58.0,40.0,0.0,0.0
3132,72.0,0.0,20.0,0.0,0.0
3133,60.0,0.0,20.0,0.0,0.0
3134,47.0,32.0,60.0,0.0,0.0
3135,59.0,32.0,60.0,0.0,0.0
3136,71.0,0.0,60.0,0.0,0.0
3137,44.0,28.0,60.0,0.0,0.0
3138,68.0,0.0,60.0,0.0,0.0
3139,56.0,30.0,60.0,0.0,0.0
3140,41.0,30.0,60.0,0.0,0.0
3141,53.0,30.0,60.0,0.0,0.0
3142,65.0,0.0,60.0,0.0,0.0
3143,37.0,116.0,60.0,0.0,0.0
3144,49.0,0.0,30.0,0.0,0.0
3145,61.0,0.0,30.0,0.0,0.0
3146,35.0,4.0,15.0,0.0,0.0
3147,47.0,60.0,120.0,0.0,0.0
3148,59.0,60.0,120.0,0.0,0.0
3149,44.0,60.0,120.0,0.0,0.0
3150,56.0,60.0,120.0,0.0,0.0
3151,41.0,60.0,120.0,0.0,0.0
3152,53.0,60.0,120.0,0.0,0.0
3153,37.0,0.0,120.0,0.0,0.0
3154,49.0,120.0,60.0,0.0,0.0
3155,34.0,0.0,120.0,0.0,0.0
3156,46.0,120.0,120.0,0.0,0.0
3157,54.0,0.0,120.0,0.0,0.0
3158,66.0,0.0,120.0,0.0,0.0
3159,42.0,0.0,120.0,0.0,0.0
3160,56.0,0.0,120.0,0.0,0.0
3161,44.0,0.0,120.0,0.0,0.0
3162,65.0,0.0,120.0,0.0,0.0
3163,61.0,0.0,15.0,0.0,0.0
3164,49.0,117.0,120.0,0.0,0.0
3165,37.0,0.0,120.0,0.0,0.0
3166,68.0,0.0,120.0,0.0,0.0
3167,54.0,0.0,120.0,0.0,0.0
3168,61.0,0.0,15.0,0.0,0.0
3169,42.0,3.0,120.0,0.0,0.0
3170,58.0,0.0,120.0,0.0,0.0
3171,46.0,0.0,120.0,0.0,0.0
3172,49.0,37.0,120.0,0.0,0.0
3173,66.0,0.0,120.0,0.0,0.0
3174,70.0,0.0,120.0,0.0,0.0
3175,65.0,1.0,120.0,0.0,0.0
3176,71.0,40.0,40.0,0.0,0.0
3177,44.0,0.0,120.0,0.0,0.0
3178,53.0,117.0,120.0,0.0,0.0
3179,70.0,39.0,40.0,0.0,0.0
3180,68.0,3.0,40.0,0.0,0.0
3181,71.0,40.0,150.0,0.0,0.0
3182,42.0,0.0,120.0,0.0,0.0
3183,47.0,0.0,15.0,0.0,0.0
3184,51.0,0.0,120.0,0.0,0.0
3185,63.0,0.0,120.0,0.0,0.0
3186,59.0,0.0,15.0,0.0,0.0
3187,53.0,2.0,120.0,0.0,0.0
3188,47.0,40.0,15.0,0.0,0.0
3189,44.0,0.0,120.0,0.0,0.0
3190,41.0,0.0,120.0,0.0,0.0
3191,59.0,0.0,15.0,0.0,0.0
3192,70.0,37.0,40.0,0.0,0.0
3193,68.0,1.0,40.0,0.0,0.0
3194,51.0,1.0,120.0,0.0,0.0
3195,71.0,4.0,150.0,0.0,0.0
3196,39.0,1.0,120.0,0.0,0.0
3197,66.0,0.0,120.0,0.0,0.0
3198,59.0,2.0,120.0,0.0,0.0
3199,42.0,37.0,120.0,0.0,0.0
3200,47.0,0.0,120.0,0.0,0.0
3201,49.0,3.0,60.0,0.0,0.0
3202,37.0,21.0,60.0,0.0,0.0
3203,41.0,0.0,60.0,0.0,0.0
3204,65.0,0.0,40.0,0.0,0.0
3205,61.0,12.0,40.0,0.0,0.0
3206,70.0,39.0,40.0,0.0,0.0
3207,47.0,1.0,60.0,0.0,0.0
3208,35.0,37.0,60.0,0.0,0.0
3209,65.0,3.0,40.0,0.0,0.0
3210,68.0,0.0,40.0,0.0,0.0
3211,61.0,0.0,15.0,0.0,0.0
3212,66.0,0.0,120.0,0.0,0.0
3213,46.0,119.0,120.0,0.0,0.0
3214,37.0,0.0,120.0,0.0,0.0
3215,34.0,0.0,120.0,0.0,0.0
3216,73.0,40.0,40.0,0.0,0.0
3217,71.0,40.0,40.0,0.0,0.0
3218,70.0,0.0,40.0,0.0,0.0
3219,64.0,1.0,120.0,0.0,0.0
3220,61.0,0.0,15.0,0.0,0.0
3221,73.0,0.0,150.0,0.0,0.0
3222,52.0,40.0,120.0,0.0,0.0
3223,47.0,0.0,120.0,0.0,0.0
3224,44.0,0.0,120.0,0.0,0.0
3225,63.0,40.0,40.0,0.0,0.0
3226,70.0,0.0,40.0,0.0,0.0
3227,61.0,1.0,120.0,0.0,0.0
3228,46.0,2.0,120.0,0.0,0.0
3229,43.0,2.0,120.0,0.0,0.0
3230,51.0,110.0,120.0,0.0,0.0
3231,71.0,40.0,40.0,0.0,0.0
3232,70.0,0.0,40.0,0.0,0.0
3233,40.0,0.0,120.0,0.0,0.0
3234,52.0,5.0,120.0,0.0,0.0
3235,68.0,0.0,120.0,0.0,0.0
3236,73.0,0.0,150.0,0.0,0.0
3237,44.0,1.0,120.0,0.0,0.0
3238,61.0,39.0,120.0,0.0,0.0
3239,67.0,20.0,40.0,0.0,0.0
3240,63.0,0.0,40.0,0.0,0.0
3241,51.0,1.0,60.0,0.0,0.0
3242,39.0,0.0,60.0,0.0,0.0
3243,46.0,19.0,60.0,0.0,0.0
3244,71.0,40.0,40.0,0.0,0.0
3245,37.0,0.0,60.0,0.0,0.0
3246,49.0,0.0,60.0,0.0,0.0
3247,64.0,0.0,40.0,0.0,0.0
3248,67.0,40.0,40.0,0.0,0.0
3249,70.0,0.0,40.0,0.0,0.0
3250,47.0,20.0,60.0,0.0,0.0
3251,75.0,20.0,40.0,0.0,0.0
3252,68.0,0.0,40.0,0.0,0.0
3253,63.0,0.0,40.0,0.0,0.0
3254,35.0,0.0,60.0,0.0,0.0
3255,73.0,39.0,40.0,0.0,0.0
3256,34.0,1.0,60.0,0.0,0.0
3257,46.0,118.0,60.0,0.0,0.0
3258,63.0,0.0,40.0,0.0,0.0
3259,66.0,0.0,40.0,0.0,0.0
3260,71.0,2.0,40.0,0.0,0.0
3261,65.0,3.0,180.0,0.0,0.0
3262,35.0,0.0,120.0,0.0,0.0
3263,32.0,20.0,120.0,0.0,0.0
3264,44.0,0.0,120.0,0.0,0.0
3265,77.0,1.0,180.0,0.0,0.0
3266,59.0,0.0,1320.0,12.0,0.0
3267,71.0,19.0,180.0,0.0,0.0
3268,42.0,19.0,20.0,0.0,0.0
3269,47.0,18.0,20.0,0.0,0.0
3270,54.0,0.0,20.0,0.0,0.0
3271,63.0,20.0,20.0,0.0,0.0
3272,59.0,0.0,20.0,0.0,0.0
3273,66.0,20.0,20.0,0.0,0.0
3274,71.0,0.0,20.0,0.0,0.0
3275,75.0,40.0,20.0,0.0,0.0
3276,80.0,0.0,40.0,0.0,0.0
3277,53.0,0.0,120.0,0.0,0.0
3278,41.0,0.0,120.0,0.0,0.0
3279,68.0,1.0,40.0,0.0,0.0
3280,71.0,37.0,40.0,0.0,0.0
3281,82.0,2.0,40.0,0.0,0.0
3282,70.0,39.0,40.0,0.0,0.0
3283,83.0,1.0,40.0,0.0,0.0
3284,65.0,2.0,180.0,0.0,0.0
3285,56.0,2.0,120.0,0.0,0.0
3286,71.0,116.0,15.0,0.0,0.0
3287,77.0,0.0,180.0,0.0,0.0
3288,47.0,1.0,15.0,0.0,0.0
3289,44.0,20.0,120.0,0.0,0.0
3290,42.0,19.0,20.0,0.0,0.0
3291,47.0,18.0,20.0,0.0,0.0
3292,54.0,19.0,20.0,0.0,0.0
3293,63.0,20.0,20.0,0.0,0.0
3294,59.0,0.0,20.0,0.0,0.0
3295,66.0,0.0,20.0,0.0,0.0
3296,71.0,20.0,20.0,0.0,0.0
3297,75.0,40.0,20.0,0.0,0.0
3298,68.0,0.0,40.0,0.0,0.0
3299,71.0,40.0,40.0,0.0,0.0
3300,41.0,1.0,120.0,0.0,0.0
3301,80.0,0.0,40.0,0.0,0.0
3302,53.0,35.0,120.0,0.0,0.0
3303,70.0,0.0,40.0,0.0,0.0
3304,82.0,40.0,40.0,0.0,0.0
3305,83.0,0.0,90.0,0.0,0.0
3306,71.0,40.0,90.0,0.0,0.0
3307,78.0,0.0,40.0,0.0,0.0
3308,42.0,0.0,120.0,0.0,0.0
3309,39.0,120.0,120.0,0.0,0.0
3310,47.0,4.0,15.0,0.0,0.0
3311,51.0,0.0,120.0,0.0,0.0
3312,73.0,40.0,40.0,0.0,0.0
3313,85.0,0.0,40.0,0.0,0.0
3314,75.0,0.0,40.0,0.0,0.0
3315,87.0,0.0,40.0,0.0,0.0
3316,44.0,0.0,120.0,11.0,0.0
3317,56.0,2.0,120.0,0.0,0.0
3318,65.0,2.0,180.0,0.0,0.0
3319,71.0,0.0,180.0,0.0,0.0
3320,77.0,2.0,180.0,0.0,0.0
3321,47.0,1.0,120.0,0.0,0.0
3322,44.0,20.0,120.0,0.0,0.0
3323,42.0,4.0,120.0,11.0,0.0
3324,42.0,19.0,20.0,0.0,0.0
3325,47.0,18.0,20.0,0.0,0.0
3326,54.0,16.0,20.0,0.0,0.0
3327,63.0,20.0,20.0,0.0,0.0
3328,59.0,0.0,20.0,0.0,0.0
3329,71.0,16.0,20.0,0.0,0.0
3330,66.0,0.0,20.0,0.0,0.0
3331,75.0,40.0,20.0,0.0,0.0
3332,44.0,1.0,120.0,0.0,0.0
3333,53.0,0.0,120.0,0.0,0.0
3334,83.0,40.0,40.0,0.0,0.0
3335,80.0,0.0,40.0,0.0,0.0
3336,71.0,0.0,40.0,0.0,0.0
3337,41.0,0.0,120.0,0.0,0.0
3338,41.0,37.0,120.0,11.0,0.0
3339,73.0,39.0,40.0,0.0,0.0
3340,85.0,0.0,40.0,0.0,0.0
3341,75.0,0.0,90.0,0.0,0.0
3342,87.0,0.0,90.0,0.0,0.0
3343,83.0,40.0,40.0,0.0,0.0
3344,78.0,0.0,40.0,0.0,0.0
3345,51.0,0.0,120.0,0.0,0.0
3346,42.0,2.0,120.0,0.0,0.0
3347,39.0,0.0,120.0,0.0,0.0
3348,47.0,3.0,15.0,0.0,0.0
3349,39.0,119.0,120.0,11.0,0.0
3350,77.0,0.0,40.0,0.0,0.0
3351,89.0,40.0,40.0,0.0,0.0
3352,90.0,0.0,40.0,0.0,0.0
3353,54.0,2.0,720.0,8.0,0.0
3354,78.0,0.0,15.0,0.0,0.0
3355,70.0,0.0,180.0,0.0,0.0
3356,82.0,2.0,180.0,0.0,0.0
3357,78.0,1.0,600.0,4.0,0.0
3358,42.0,0.0,720.0,8.0,0.0
3359,49.0,2.0,120.0,0.0,0.0
3360,42.0,0.0,120.0,0.0,0.0
3361,37.0,0.0,120.0,11.0,0.0
3362,37.0,17.0,120.0,0.0,0.0
3363,66.0,37.0,600.0,4.0,0.0
3364,36.0,19.0,20.0,0.0,0.0
3365,36.0,37.0,120.0,11.0,0.0
3366,42.0,18.0,20.0,0.0,0.0
3367,48.0,19.0,20.0,0.0,0.0
3368,68.0,0.0,20.0,0.0,0.0
3369,51.0,20.0,20.0,0.0,0.0
3370,54.0,0.0,20.0,0.0,0.0
3371,75.0,20.0,20.0,0.0,0.0
3372,63.0,0.0,20.0,0.0,0.0
3373,80.0,2.0,20.0,0.0,0.0
3374,47.0,1.0,120.0,0.0,0.0
3375,78.0,1.0,40.0,0.0,0.0
3376,75.0,39.0,40.0,0.0,0.0
3377,87.0,0.0,40.0,0.0,0.0
3378,35.0,1.0,120.0,11.0,0.0
3379,35.0,0.0,120.0,0.0,0.0
3380,89.0,1.0,40.0,0.0,0.0
3381,77.0,39.0,40.0,0.0,0.0
3382,78.0,0.0,40.0,0.0,0.0
3383,90.0,0.0,40.0,0.0,0.0
3384,82.0,1.0,180.0,0.0,0.0
3385,49.0,0.0,120.0,0.0,0.0
3386,42.0,119.0,15.0,0.0,0.0
3387,70.0,0.0,180.0,0.0,0.0
3388,78.0,0.0,180.0,0.0,0.0
3389,37.0,3.0,120.0,11.0,0.0
3390,37.0,15.0,120.0,0.0,0.0
3391,51.0,2.0,240.0,6.0,0.0
3392,36.0,1.0,120.0,11.0,0.0
3393,75.0,1.0,240.0,2.0,0.0
3394,36.0,19.0,20.0,0.0,0.0
3395,42.0,21.0,20.0,0.0,0.0
3396,48.0,19.0,20.0,0.0,0.0
3397,51.0,0.0,20.0,0.0,0.0
3398,68.0,20.0,20.0,0.0,0.0
3399,75.0,0.0,20.0,0.0,0.0
3400,54.0,18.0,20.0,0.0,0.0
3401,80.0,3.0,20.0,0.0,0.0
3402,63.0,0.0,20.0,0.0,0.0
3403,47.0,0.0,120.0,0.0,0.0
3404,35.0,0.0,120.0,0.0,0.0
3405,35.0,0.0,120.0,11.0,0.0
3406,87.0,0.0,40.0,0.0,0.0
3407,78.0,40.0,40.0,0.0,0.0
3408,75.0,0.0,40.0,0.0,0.0
3409,42.0,40.0,120.0,0.0,0.0
3410,77.0,35.0,40.0,0.0,0.0
3411,89.0,0.0,40.0,0.0,0.0
3412,90.0,0.0,90.0,0.0,0.0
3413,78.0,17.0,90.0,0.0,0.0
3414,34.0,2.0,60.0,0.0,0.0
3415,34.0,1.0,120.0,11.0,0.0
3416,73.0,1.0,60.0,2.0,0.0
3417,61.0,2.0,60.0,8.0,0.0
3418,54.0,0.0,60.0,8.0,0.0
3419,85.0,0.0,40.0,0.0,0.0
3420,46.0,0.0,60.0,0.0,0.0
3421,49.0,1.0,60.0,6.0,0.0
3422,42.0,17.0,60.0,0.0,0.0
3423,80.0,35.0,40.0,0.0,0.0
3424,92.0,0.0,40.0,0.0,0.0
3425,78.0,3.0,60.0,2.0,0.0
3426,49.0,0.0,60.0,0.0,0.0
3427,46.0,1.0,60.0,6.0,0.0
3428,54.0,0.0,60.0,0.0,0.0
3429,58.0,2.0,60.0,8.0,0.0
3430,61.0,0.0,60.0,0.0,0.0
3431,66.0,118.0,60.0,8.0,0.0
3432,94.0,0.0,40.0,0.0,0.0
3433,90.0,0.0,40.0,0.0,0.0
3434,82.0,0.0,40.0,0.0,0.0
3435,58.0,0.0,120.0,7.0,0.0
3436,78.0,0.0,120.0,1.0,0.0
3437,66.0,1.0,120.0,7.0,0.0
3438,46.0,0.0,120.0,8.0,0.0
3439,66.0,0.0,120.0,2.0,0.0
3440,61.0,0.0,120.0,2.0,0.0
3441,66.0,0.0,120.0,4.0,0.0
3442,66.0,0.0,120.0,10.0,0.0
3443,58.0,0.0,120.0,10.0,0.0
3444,49.0,0.0,120.0,3.0,0.0
3445,58.0,0.0,120.0,4.0,0.0
3446,54.0,0.0,120.0,8.0,0.0
3447,49.0,2.0,120.0,6.0,0.0
3448,37.0,0.0,120.0,5.0,0.0
3449,61.0,1.0,120.0,12.0,0.0
3450,73.0,113.0,120.0,1.0,0.0
3451,68.0,0.0,120.0,4.0,0.0
3452,68.0,2.0,120.0,2.0,0.0
3453,37.0,0.0,15.0,13.0,0.0
3454,37.0,0.0,120.0,3.0,0.0
3455,49.0,0.0,15.0,12.0,0.0
3456,65.0,0.0,120.0,7.0,0.0
3457,25.0,0.0,120.0,5.0,0.0
3458,68.0,0.0,120.0,7.0,0.0
3459,65.0,0.0,120.0,2.0,0.0
3460,77.0,0.0,120.0,1.0,0.0
3461,56.0,0.0,120.0,8.0,0.0
3462,68.0,0.0,120.0,10.0,0.0
3463,61.0,1.0,120.0,4.0,0.0
3464,61.0,0.0,15.0,7.0,0.0
3465,37.0,0.0,120.0,6.0,0.0
3466,61.0,0.0,120.0,10.0,0.0
3467,37.0,0.0,120.0,12.0,0.0
3468,49.0,0.0,120.0,8.0,0.0
3469,80.0,55.0,120.0,1.0,0.0
3470,61.0,1.0,15.0,7.0,0.0
3471,42.0,0.0,60.0,3.0,0.0
3472,70.0,0.0,60.0,2.0,0.0
3473,70.0,0.0,60.0,10.0,0.0
3474,42.0,2.0,60.0,6.0,0.0
3475,54.0,1.0,60.0,8.0,0.0
3476,70.0,0.0,60.0,4.0,0.0
3477,82.0,0.0,60.0,1.0,0.0
3478,66.0,0.0,60.0,10.0,0.0
3479,61.0,0.0,60.0,2.0,0.0
3480,58.0,0.0,60.0,8.0,0.0
3481,49.0,0.0,60.0,12.0,0.0
3482,78.0,0.0,60.0,1.0,0.0
3483,42.0,1.0,60.0,13.0,0.0
3484,61.0,0.0,60.0,4.0,0.0
3485,70.0,0.0,60.0,7.0,0.0
3486,30.0,0.0,60.0,5.0,0.0
3487,66.0,0.0,60.0,7.0,0.0
3488,61.0,19.0,60.0,12.0,0.0
3489,54.0,0.0,40.0,0.0,0.0
3490,42.0,40.0,40.0,0.0,0.0
3491,37.0,0.0,40.0,0.0,0.0
3492,53.0,40.0,40.0,0.0,0.0
3493,56.0,0.0,40.0,0.0,0.0
3494,25.0,0.0,40.0,0.0,0.0
3495,44.0,0.0,40.0,0.0,0.0
3496,42.0,40.0,40.0,0.0,0.0
3497,46.0,0.0,40.0,0.0,0.0
3498,30.0,0.0,40.0,0.0,0.0
3499,54.0,0.0,40.0,0.0,0.0
3500,58.0,0.0,40.0,0.0,0.0
3501,54.0,0.0,40.0,0.0,0.0
3502,66.0,40.0,40.0,0.0,0.0
3503,56.0,0.0,40.0,0.0,0.0
3504,37.0,0.0,40.0,0.0,0.0
3505,49.0,0.0,40.0,0.0,0.0
3506,68.0,40.0,40.0,0.0,0.0
3507,42.0,0.0,40.0,0.0,0.0
3508,70.0,40.0,40.0,0.0,0.0
3509,54.0,0.0,40.0,0.0,0.0
3510,58.0,0.0,40.0,0.0,0.0
3511,78.0,40.0,40.0,0.0,0.0
3512,66.0,0.0,15.0,0.0,0.0
3513,77.0,0.0,40.0,0.0,0.0
3514,68.0,0.0,40.0,0.0,0.0
3515,80.0,0.0,40.0,0.0,0.0
3516,49.0,0.0,40.0,0.0,0.0
3517,61.0,40.0,40.0,0.0,0.0
3518,78.0,0.0,40.0,0.0,0.0
3519,82.0,40.0,40.0,0.0,0.0
3520,66.0,0.0,40.0,0.0,0.0
3521,54.0,0.0,40.0,0.0,0.0
3522,70.0,0.0,40.0,0.0,0.0
3523,90.0,0.0,40.0,0.0,0.0
3524,78.0,40.0,40.0,0.0,0.0
3525,61.0,40.0,40.0,0.0,0.0
3526,73.0,0.0,40.0,0.0,0.0
3527,80.0,0.0,40.0,0.0,0.0
3528,89.0,0.0,40.0,0.0,0.0
3529,92.0,0.0,40.0,0.0,0.0
3530,78.0,0.0,120.0,2.0,0.0
3531,39.0,0.0,120.0,5.0,0.0
3532,51.0,0.0,120.0,3.0,0.0
3533,51.0,1.0,120.0,6.0,0.0
3534,39.0,0.0,120.0,6.0,0.0
3535,54.0,2.0,120.0,8.0,0.0
3536,70.0,0.0,120.0,2.0,0.0
3537,66.0,0.0,120.0,4.0,0.0
3538,78.0,0.0,120.0,1.0,0.0
3539,66.0,1.0,120.0,10.0,0.0
3540,78.0,0.0,120.0,7.0,0.0
3541,94.0,0.0,40.0,0.0,0.0
3542,90.0,0.0,40.0,0.0,0.0
3543,82.0,0.0,40.0,0.0,0.0
3544,66.0,0.0,40.0,0.0,0.0
3545,78.0,76.0,40.0,0.0,0.0
3546,70.0,115.0,120.0,7.0,0.0
3547,66.0,0.0,120.0,7.0,0.0
3548,47.0,1.0,120.0,6.0,0.0
3549,75.0,0.0,15.0,4.0,0.0
3550,47.0,2.0,120.0,3.0,0.0
3551,75.0,0.0,15.0,1.0,0.0
3552,75.0,0.0,120.0,7.0,0.0
3553,35.0,1.0,120.0,5.0,0.0
3554,63.0,1.0,15.0,12.0,0.0
3555,68.0,0.0,120.0,10.0,0.0
3556,63.0,0.0,120.0,7.0,0.0
3557,80.0,0.0,120.0,7.0,0.0
3558,80.0,0.0,120.0,2.0,0.0
3559,35.0,0.0,120.0,6.0,0.0
3560,68.0,0.0,120.0,4.0,0.0
3561,56.0,1.0,120.0,8.0,0.0
3562,80.0,59.0,120.0,1.0,0.0
3563,75.0,0.0,120.0,2.0,0.0
3564,65.0,0.0,60.0,4.0,0.0
3565,74.0,0.0,60.0,4.0,0.0
3566,70.0,0.0,60.0,10.0,0.0
3567,74.0,0.0,60.0,2.0,0.0
3568,34.0,0.0,60.0,6.0,0.0
3569,82.0,0.0,60.0,2.0,0.0
3570,82.0,0.0,60.0,1.0,0.0
3571,74.0,0.0,60.0,7.0,0.0
3572,34.0,0.0,60.0,5.0,0.0
3573,46.0,0.0,60.0,6.0,0.0
3574,82.0,0.0,60.0,7.0,0.0
3575,58.0,0.0,60.0,12.0,0.0
3576,65.0,0.0,60.0,7.0,0.0
3577,58.0,0.0,60.0,8.0,0.0
3578,74.0,0.0,60.0,1.0,0.0
3579,46.0,20.0,60.0,3.0,0.0
3580,42.0,0.0,40.0,0.0,0.0
3581,54.0,40.0,40.0,0.0,0.0
3582,23.0,0.0,40.0,0.0,0.0
3583,35.0,5.0,40.0,0.0,0.0
3584,51.0,35.0,40.0,0.0,0.0
3585,56.0,0.0,40.0,0.0,0.0
3586,44.0,0.0,40.0,0.0,0.0
3587,22.0,0.0,40.0,0.0,0.0
3588,50.0,0.0,40.0,0.0,0.0
3589,46.0,40.0,40.0,0.0,0.0
3590,34.0,0.0,40.0,0.0,0.0
3591,58.0,0.0,40.0,0.0,0.0
3592,54.0,0.0,40.0,0.0,0.0
3593,66.0,40.0,40.0,0.0,0.0
3594,35.0,0.0,40.0,0.0,0.0
3595,47.0,0.0,40.0,0.0,0.0
3596,63.0,0.0,40.0,0.0,0.0
3597,56.0,40.0,40.0,0.0,0.0
3598,68.0,0.0,40.0,0.0,0.0
3599,62.0,40.0,40.0,0.0,0.0
3600,46.0,0.0,40.0,0.0,0.0
3601,70.0,0.0,40.0,0.0,0.0
3602,58.0,0.0,40.0,0.0,0.0
3603,34.0,0.0,40.0,0.0,0.0
3604,78.0,40.0,40.0,0.0,0.0
3605,66.0,0.0,40.0,0.0,0.0
3606,68.0,0.0,40.0,0.0,0.0
3607,80.0,0.0,40.0,0.0,0.0
3608,75.0,0.0,40.0,0.0,0.0
3609,59.0,0.0,40.0,0.0,0.0
3610,47.0,40.0,40.0,0.0,0.0
3611,46.0,40.0,40.0,0.0,0.0
3612,82.0,0.0,40.0,0.0,0.0
3613,74.0,0.0,40.0,0.0,0.0
3614,58.0,0.0,40.0,0.0,0.0
3615,70.0,0.0,40.0,0.0,0.0
3616,90.0,0.0,40.0,0.0,0.0
3617,78.0,40.0,40.0,0.0,0.0
3618,71.0,0.0,40.0,0.0,0.0
3619,80.0,0.0,40.0,0.0,0.0
3620,87.0,0.0,40.0,0.0,0.0
3621,92.0,0.0,40.0,0.0,0.0
3622,59.0,40.0,40.0,0.0,0.0
3623,94.0,0.0,40.0,0.0,0.0
3624,70.0,40.0,40.0,0.0,0.0
3625,58.0,0.0,40.0,0.0,0.0
3626,86.0,0.0,40.0,0.0,0.0
3627,82.0,0.0,40.0,0.0,0.0
3628,53.0,39.0,40.0,7.0,0.0
3629,56.0,0.0,40.0,7.0,0.0
3630,39.0,1.0,60.0,3.0,0.0
3631,27.0,1.0,60.0,5.0,0.0
3632,51.0,52.0,60.0,7.0,0.0
3633,58.0,0.0,40.0,7.0,0.0
3634,55.0,3.0,40.0,7.0,0.0
3635,44.0,1.0,60.0,3.0,0.0
3636,59.0,0.0,60.0,7.0,0.0
3637,32.0,20.0,60.0,5.0,0.0
3638,56.0,3.0,60.0,7.0,0.0
3639,56.0,0.0,40.0,0.0,0.0
3640,68.0,0.0,40.0,0.0,0.0
3641,65.0,40.0,40.0,0.0,0.0
3642,27.0,0.0,60.0,0.0,0.0
3643,39.0,0.0,60.0,0.0,0.0
3644,70.0,0.0,40.0,0.0,0.0
3645,58.0,60.0,40.0,0.0,0.0
3646,67.0,0.0,40.0,0.0,0.0
3647,68.0,0.0,60.0,0.0,0.0
3648,71.0,20.0,60.0,0.0,0.0
3649,59.0,0.0,60.0,0.0,0.0
3650,32.0,0.0,60.0,0.0,0.0
3651,44.0,0.0,60.0,0.0,0.0
3652,68.0,36.0,40.0,7.0,0.0
3653,65.0,0.0,40.0,7.0,0.0
3654,39.0,4.0,60.0,5.0,0.0
3655,51.0,4.0,60.0,7.0,0.0
3656,51.0,36.0,60.0,3.0,0.0
3657,70.0,0.0,40.0,7.0,0.0
3658,67.0,0.0,40.0,7.0,0.0
3659,56.0,3.0,60.0,3.0,0.0
3660,44.0,1.0,60.0,5.0,0.0
3661,71.0,0.0,60.0,7.0,0.0
3662,63.0,20.0,60.0,7.0,0.0
3663,68.0,16.0,40.0,7.0,0.0
3664,77.0,0.0,40.0,0.0,0.0
3665,68.0,39.0,40.0,0.0,0.0
3666,80.0,0.0,40.0,0.0,0.0
3667,51.0,1.0,60.0,0.0,0.0
3668,39.0,35.0,60.0,0.0,0.0
3669,70.0,0.0,40.0,0.0,0.0
3670,79.0,5.0,40.0,0.0,0.0
3671,82.0,0.0,40.0,0.0,0.0
3672,44.0,0.0,60.0,0.0,0.0
3673,56.0,20.0,60.0,0.0,0.0
3674,80.0,20.0,40.0,0.0,0.0
3675,71.0,0.0,40.0,0.0,0.0
3676,83.0,0.0,40.0,0.0,0.0
3677,70.0,0.0,40.0,0.0,0.0
3678,82.0,37.0,40.0,0.0,0.0
3679,35.0,0.0,60.0,0.0,0.0
3680,47.0,0.0,60.0,0.0,0.0
3681,35.0,0.0,60.0,11.0,0.0
3682,47.0,3.0,60.0,11.0,0.0
3683,63.0,3.0,60.0,11.0,0.0
3684,68.0,36.0,60.0,11.0,0.0
3685,68.0,0.0,40.0,0.0,0.0
3686,80.0,1.0,40.0,0.0,0.0
3687,75.0,0.0,40.0,0.0,0.0
3688,39.0,1.0,60.0,11.0,0.0
3689,70.0,0.0,60.0,11.0,0.0
3690,82.0,0.0,40.0,0.0,0.0
3691,78.0,19.0,40.0,0.0,0.0
3692,70.0,0.0,40.0,0.0,0.0
3693,51.0,0.0,60.0,0.0,0.0
3694,51.0,0.0,60.0,11.0,0.0
3695,80.0,0.0,40.0,0.0,0.0
3696,77.0,0.0,40.0,0.0,0.0
3697,68.0,39.0,40.0,0.0,0.0
3698,66.0,0.0,15.0,11.0,0.0
3699,27.0,1.0,60.0,11.0,0.0
3700,39.0,0.0,60.0,11.0,0.0
3701,58.0,19.0,15.0,11.0,0.0
3702,39.0,1.0,15.0,0.0,0.0
3703,27.0,0.0,60.0,0.0,0.0
3704,63.0,56.0,60.0,11.0,0.0
3705,66.0,1.0,40.0,0.0,0.0
3706,78.0,0.0,40.0,0.0,0.0
3707,75.0,0.0,40.0,0.0,0.0
3708,68.0,2.0,60.0,11.0,0.0
3709,25.0,1.0,60.0,11.0,0.0
3710,66.0,0.0,60.0,11.0,0.0
3711,37.0,0.0,60.0,11.0,0.0
3712,78.0,75.0,60.0,0.0,0.0
3713,80.0,0.0,60.0,0.0,0.0
3714,37.0,0.0,60.0,0.0,0.0
3715,68.0,0.0,60.0,0.0,0.0
3716,25.0,0.0,60.0,0.0,0.0
3717,61.0,0.0,60.0,11.0,0.0
3718,68.0,0.0,60.0,7.0,0.0
3719,73.0,3.0,60.0,7.0,0.0
3720,59.0,15.0,15.0,0.0,0.0
3721,61.0,0.0,15.0,0.0,0.0
3722,47.0,3.0,60.0,3.0,0.0
3723,61.0,0.0,60.0,8.0,0.0
3724,49.0,0.0,60.0,8.0,0.0
3725,35.0,12.0,60.0,5.0,0.0
3726,65.0,0.0,60.0,7.0,0.0
3727,56.0,15.0,15.0,0.0,0.0
3728,65.0,0.0,15.0,0.0,0.0
3729,68.0,12.0,15.0,0.0,0.0
3730,53.0,0.0,15.0,0.0,0.0
3731,47.0,0.0,15.0,0.0,0.0
3732,73.0,0.0,15.0,0.0,0.0
3733,37.0,0.0,15.0,0.0,0.0
3734,77.0,15.0,15.0,0.0,0.0
3735,80.0,15.0,15.0,0.0,0.0
3736,32.0,0.0,15.0,0.0,0.0
3737,85.0,0.0,15.0,0.0,0.0
3738,29.0,15.0,15.0,0.0,0.0
3739,89.0,60.0,15.0,0.0,0.0
3740,25.0,0.0,15.0,0.0,0.0
3741,66.0,0.0,60.0,7.0,0.0
3742,46.0,0.0,60.0,3.0,0.0
3743,70.0,0.0,120.0,4.0,0.0
3744,78.0,53.0,60.0,7.0,0.0
3745,34.0,0.0,60.0,5.0,0.0
3746,61.0,0.0,60.0,8.0,0.0
3747,49.0,0.0,60.0,8.0,0.0
3748,46.0,0.0,120.0,6.0,0.0
3749,61.0,0.0,60.0,7.0,0.0
3750,78.0,0.0,120.0,2.0,0.0
3751,70.0,0.0,120.0,2.0,0.0
3752,78.0,53.0,120.0,4.0,0.0
3753,34.0,0.0,120.0,6.0,0.0
3754,34.0,4.0,60.0,0.0,0.0
3755,30.0,2.0,60.0,0.0,0.0
3756,22.0,0.0,60.0,0.0,0.0
3757,78.0,0.0,60.0,0.0,0.0
3758,25.0,1.0,60.0,0.0,0.0
3759,82.0,0.0,60.0,0.0,0.0
3760,85.0,0.0,60.0,0.0,0.0
3761,90.0,0.0,60.0,0.0,0.0
3762,65.0,3.0,60.0,7.0,0.0
3763,77.0,0.0,120.0,2.0,0.0
3764,73.0,1.0,120.0,4.0,0.0
3765,37.0,1.0,60.0,5.0,0.0
3766,37.0,0.0,120.0,6.0,0.0
3767,68.0,2.0,60.0,7.0,0.0
3768,73.0,1.0,60.0,7.0,0.0
3769,68.0,0.0,120.0,4.0,0.0
3770,49.0,55.0,60.0,3.0,0.0
3771,68.0,1.0,120.0,2.0,0.0
3772,85.0,0.0,120.0,1.0,0.0
3773,49.0,0.0,120.0,6.0,0.0
3774,37.0,1.0,60.0,0.0,0.0
3775,73.0,0.0,60.0,0.0,0.0
3776,80.0,2.0,60.0,0.0,0.0
3777,32.0,1.0,60.0,0.0,0.0
3778,77.0,0.0,60.0,0.0,0.0
3779,25.0,0.0,60.0,0.0,0.0
3780,29.0,0.0,60.0,0.0,0.0
3781,85.0,52.0,60.0,0.0,0.0
3782,54.0,4.0,60.0,3.0,0.0
3783,63.0,0.0,60.0,7.0,0.0
3784,71.0,0.0,120.0,4.0,0.0
3785,63.0,1.0,120.0,4.0,0.0
3786,71.0,0.0,60.0,7.0,0.0
3787,42.0,2.0,120.0,6.0,0.0
3788,42.0,4.0,60.0,5.0,0.0
3789,75.0,0.0,120.0,2.0,0.0
3790,71.0,0.0,120.0,2.0,0.0
3791,66.0,55.0,60.0,7.0,0.0
3792,54.0,0.0,120.0,6.0,0.0
3793,83.0,35.0,120.0,1.0,0.0
3794,30.0,0.0,60.0,0.0,0.0
3795,35.0,1.0,60.0,0.0,0.0
3796,42.0,0.0,60.0,0.0,0.0
3797,71.0,0.0,60.0,0.0,0.0
3798,78.0,0.0,60.0,0.0,0.0
3799,83.0,1.0,60.0,0.0,0.0
3800,39.0,4.0,60.0,0.0,0.0
3801,75.0,0.0,60.0,0.0,0.0
3802,46.0,0.0,120.0,6.0,0.0
3803,46.0,3.0,60.0,5.0,0.0
3804,54.0,0.0,60.0,8.0,0.0
3805,70.0,0.0,40.0,4.0,0.0
3806,61.0,0.0,40.0,4.0,0.0
3807,61.0,0.0,40.0,7.0,0.0
3808,73.0,17.0,40.0,2.0,0.0
3809,70.0,0.0,40.0,2.0,0.0
3810,70.0,0.0,40.0,7.0,0.0
3811,58.0,1.0,60.0,3.0,0.0
3812,66.0,0.0,60.0,8.0,0.0
3813,82.0,0.0,40.0,1.0,0.0
3814,66.0,19.0,60.0,7.0,0.0
3815,68.0,0.0,40.0,7.0,0.0
3816,80.0,37.0,40.0,1.0,0.0
3817,68.0,0.0,40.0,4.0,0.0
3818,68.0,0.0,40.0,2.0,0.0
3819,71.0,0.0,40.0,2.0,0.0
3820,59.0,0.0,40.0,7.0,0.0
3821,59.0,0.0,40.0,4.0,0.0
3822,37.0,2.0,60.0,0.0,0.0
3823,70.0,0.0,60.0,0.0,0.0
3824,78.0,1.0,60.0,0.0,0.0
3825,82.0,0.0,60.0,0.0,0.0
3826,42.0,0.0,60.0,0.0,0.0
3827,34.0,0.0,60.0,0.0,0.0
3828,73.0,0.0,60.0,0.0,0.0
3829,61.0,0.0,60.0,7.0,0.0
3830,46.0,59.0,60.0,0.0,0.0
3831,66.0,0.0,40.0,4.0,0.0
3832,58.0,0.0,40.0,4.0,0.0
3833,70.0,0.0,40.0,2.0,0.0
3834,58.0,0.0,40.0,7.0,0.0
3835,66.0,0.0,120.0,4.0,0.0
3836,68.0,1.0,120.0,4.0,0.0
3837,66.0,0.0,15.0,7.0,0.0
3838,61.0,0.0,60.0,8.0,0.0
3839,49.0,0.0,60.0,8.0,0.0
3840,68.0,0.0,60.0,7.0,0.0
3841,78.0,1.0,15.0,1.0,0.0
3842,66.0,0.0,15.0,2.0,0.0
3843,61.0,0.0,60.0,7.0,0.0
3844,61.0,0.0,60.0,3.0,0.0
3845,68.0,0.0,120.0,2.0,0.0
3846,80.0,8.0,120.0,1.0,0.0
3847,49.0,0.0,360.0,6.0,0.0
3848,49.0,59.0,60.0,5.0,0.0
3849,42.0,0.0,60.0,0.0,0.0
3850,44.0,0.0,60.0,0.0,0.0
3851,49.0,0.0,60.0,0.0,0.0
3852,68.0,0.0,60.0,0.0,0.0
3853,78.0,0.0,60.0,0.0,0.0
3854,80.0,0.0,60.0,0.0,0.0
3855,37.0,0.0,60.0,0.0,0.0
3856,73.0,0.0,60.0,0.0,0.0
3857,77.0,1.0,240.0,1.0,0.0
3858,37.0,1.0,240.0,6.0,0.0
3859,61.0,33.0,15.0,0.0,0.0
3860,65.0,0.0,240.0,4.0,0.0
3861,73.0,0.0,240.0,4.0,0.0
3862,85.0,0.0,240.0,1.0,0.0
3863,65.0,3.0,240.0,2.0,0.0
3864,65.0,0.0,60.0,7.0,0.0
3865,49.0,0.0,60.0,8.0,0.0
3866,61.0,0.0,60.0,8.0,0.0
3867,25.0,1.0,60.0,5.0,0.0
3868,37.0,0.0,60.0,3.0,0.0
3869,61.0,0.0,240.0,12.0,0.0
3870,53.0,1.0,240.0,12.0,0.0
3871,56.0,0.0,60.0,7.0,0.0
3872,73.0,8.0,60.0,7.0,0.0
3873,73.0,59.0,240.0,2.0,0.0
3874,56.0,13.0,15.0,0.0,0.0
3875,65.0,0.0,15.0,0.0,0.0
3876,49.0,0.0,15.0,0.0,0.0
3877,73.0,4.0,15.0,0.0,0.0
3878,49.0,13.0,15.0,0.0,0.0
3879,44.0,0.0,15.0,0.0,0.0
3880,77.0,13.0,15.0,0.0,0.0
3881,37.0,13.0,15.0,0.0,0.0
3882,85.0,0.0,15.0,0.0,0.0
3883,37.0,13.0,15.0,0.0,0.0
3884,85.0,0.0,15.0,0.0,0.0
3885,32.0,0.0,15.0,0.0,0.0
3886,89.0,60.0,15.0,0.0,0.0
3887,25.0,0.0,60.0,0.0,0.0
3888,97.0,0.0,60.0,0.0,0.0
3889,53.0,55.0,15.0,7.0,0.0
3890,49.0,0.0,15.0,7.0,0.0
3891,49.0,5.0,120.0,3.0,0.0
3892,53.0,0.0,240.0,12.0,0.0
3893,61.0,60.0,120.0,7.0,0.0
3894,53.0,0.0,120.0,7.0,0.0
3895,49.0,0.0,120.0,7.0,0.0
3896,61.0,0.0,60.0,7.0,0.0
3897,71.0,0.0,120.0,7.0,0.0
3898,56.0,60.0,120.0,3.0,0.0
3899,61.0,0.0,120.0,7.0,0.0
3900,65.0,60.0,15.0,7.0,0.0
3901,73.0,57.0,60.0,7.0,0.0
3902,61.0,0.0,15.0,12.0,0.0
3903,25.0,3.0,120.0,11.0,0.0
3904,58.0,56.0,120.0,3.0,0.0
3905,70.0,4.0,60.0,7.0,0.0
3906,53.0,0.0,15.0,7.0,0.0
3907,49.0,0.0,15.0,7.0,0.0
3908,65.0,0.0,120.0,7.0,0.0
3909,59.0,4.0,120.0,3.0,0.0
3910,68.0,59.0,120.0,7.0,0.0
3911,49.0,0.0,15.0,7.0,0.0
3912,61.0,56.0,15.0,7.0,0.0
3913,58.0,3.0,120.0,3.0,0.0
3914,53.0,1.0,15.0,12.0,0.0
3915,70.0,60.0,120.0,7.0,0.0
3916,25.0,0.0,120.0,11.0,0.0
3917,53.0,57.0,15.0,7.0,0.0
3918,49.0,0.0,15.0,7.0,0.0
3919,65.0,0.0,15.0,7.0,0.0
3920,56.0,0.0,120.0,3.0,0.0
3921,71.0,0.0,120.0,7.0,0.0
3922,49.0,0.0,15.0,7.0,0.0
3923,53.0,0.0,15.0,7.0,0.0
3924,61.0,60.0,15.0,7.0,0.0
3925,65.0,0.0,120.0,7.0,0.0
3926,49.0,3.0,240.0,12.0,0.0
3927,61.0,60.0,15.0,12.0,0.0
3928,73.0,59.0,60.0,7.0,0.0
3929,58.0,4.0,120.0,3.0,0.0
3930,25.0,53.0,120.0,11.0,0.0
3931,65.0,55.0,120.0,7.0,0.0
3932,61.0,0.0,120.0,7.0,0.0
3933,49.0,0.0,15.0,7.0,0.0
3934,70.0,3.0,60.0,7.0,0.0
3935,53.0,0.0,120.0,7.0,0.0
3936,59.0,2.0,120.0,3.0,0.0
3937,68.0,117.0,120.0,7.0,0.0
3938,49.0,0.0,15.0,7.0,0.0
3939,53.0,0.0,60.0,7.0,0.0
3940,65.0,0.0,60.0,7.0,0.0
3941,61.0,0.0,60.0,7.0,0.0
3942,70.0,0.0,120.0,0.0,0.0
3943,37.0,0.0,120.0,0.0,0.0
3944,67.0,0.0,60.0,0.0,0.0
3945,64.0,0.0,60.0,0.0,0.0
3946,55.0,0.0,60.0,0.0,0.0
3947,52.0,116.0,60.0,0.0,0.0
3948,49.0,0.0,60.0,0.0,0.0
3949,35.0,0.0,120.0,0.0,0.0
3950,75.0,1.0,120.0,0.0,0.0
3951,56.0,4.0,60.0,0.0,0.0
3952,51.0,0.0,60.0,0.0,0.0
3953,47.0,0.0,60.0,0.0,0.0
3954,63.0,0.0,60.0,0.0,0.0
3955,68.0,58.0,60.0,0.0,0.0
3956,31.0,1.0,120.0,0.0,0.0
3957,73.0,59.0,60.0,0.0,0.0
3958,49.0,1.0,60.0,0.0,0.0
3959,58.0,0.0,60.0,0.0,0.0
3960,52.0,4.0,60.0,0.0,0.0
3961,61.0,0.0,60.0,0.0,0.0
3962,70.0,0.0,60.0,0.0,0.0
3963,64.0,61.0,60.0,0.0,0.0
3964,32.0,1.0,120.0,0.0,0.0
3965,71.0,51.0,60.0,0.0,0.0
3966,68.0,3.0,60.0,0.0,0.0
3967,47.0,0.0,60.0,0.0,0.0
3968,63.0,59.0,60.0,0.0,0.0
3969,56.0,0.0,60.0,0.0,0.0
3970,59.0,0.0,60.0,0.0,0.0
3971,51.0,0.0,60.0,0.0,0.0
3972,69.0,61.0,60.0,0.0,0.0
3973,35.0,0.0,120.0,0.0,0.0
3974,63.0,0.0,60.0,0.0,0.0
3975,67.0,0.0,60.0,0.0,0.0
3976,47.0,0.0,60.0,0.0,0.0
3977,51.0,116.0,60.0,0.0,0.0
3978,57.0,0.0,60.0,0.0,0.0
3979,68.0,0.0,120.0,0.0,0.0
3980,40.0,0.0,120.0,0.0,0.0
3981,59.0,3.0,60.0,0.0,0.0
3982,47.0,1.0,60.0,0.0,0.0
3983,52.0,0.0,60.0,0.0,0.0
3984,56.0,118.0,60.0,0.0,0.0
3985,66.0,0.0,240.0,0.0,0.0
3986,38.0,2.0,240.0,0.0,0.0
3987,68.0,0.0,240.0,0.0,0.0
3988,54.0,1.0,60.0,0.0,0.0
3989,48.0,0.0,60.0,0.0,0.0
3990,56.0,4.0,60.0,0.0,0.0
3991,60.0,110.0,60.0,0.0,0.0
3992,60.0,4.0,60.0,0.0,0.0
3993,48.0,1.0,60.0,0.0,0.0
3994,54.0,0.0,60.0,0.0,0.0
3995,56.0,113.0,60.0,0.0,0.0
3996,37.0,1.0,120.0,0.0,0.0
3997,65.0,0.0,120.0,0.0,0.0
3998,68.0,3.0,120.0,0.0,0.0
3999,56.0,3.0,60.0,0.0,0.0
4000,61.0,2.0,60.0,0.0,0.0
4001,49.0,1.0,60.0,0.0,0.0
4002,53.0,0.0,60.0,0.0,0.0
4003,71.0,0.0,120.0,7.0,0.0
4004,61.0,57.0,15.0,7.0,0.0
4005,65.0,60.0,60.0,7.0,0.0
4006,53.0,0.0,60.0,7.0,0.0
4007,49.0,0.0,15.0,7.0,0.0
4008,61.0,0.0,120.0,7.0,0.0
4009,37.0,2.0,120.0,3.0,0.0
4010,61.0,0.0,15.0,12.0,0.0
4011,73.0,0.0,60.0,7.0,0.0
4012,53.0,60.0,15.0,12.0,0.0
4013,70.0,63.0,60.0,7.0,0.0
4014,53.0,0.0,15.0,7.0,0.0
4015,65.0,55.0,15.0,7.0,0.0
4016,47.0,1.0,120.0,3.0,0.0
4017,68.0,59.0,120.0,7.0,0.0
4018,53.0,0.0,15.0,7.0,0.0
4019,49.0,0.0,15.0,7.0,0.0
4020,61.0,0.0,15.0,7.0,0.0
4021,65.0,59.0,15.0,7.0,0.0
4022,70.0,60.0,120.0,7.0,0.0
4023,53.0,1.0,15.0,12.0,0.0
4024,49.0,59.0,60.0,3.0,0.0
4025,65.0,0.0,120.0,7.0,0.0
4026,61.0,0.0,120.0,7.0,0.0
4027,49.0,0.0,120.0,7.0,0.0
4028,53.0,1.0,15.0,7.0,0.0
4029,46.0,0.0,60.0,3.0,0.0
4030,71.0,0.0,120.0,7.0,0.0
4031,44.0,0.0,120.0,3.0,0.0
4032,65.0,0.0,120.0,7.0,0.0
4033,53.0,60.0,15.0,7.0,0.0
4034,46.0,60.0,120.0,3.0,0.0
4035,53.0,0.0,15.0,12.0,0.0
4036,61.0,60.0,15.0,12.0,0.0
4037,73.0,59.0,60.0,7.0,0.0
4038,61.0,0.0,15.0,7.0,0.0
4039,49.0,1.0,15.0,7.0,0.0
4040,70.0,0.0,60.0,7.0,0.0
4041,65.0,0.0,120.0,7.0,0.0
4042,53.0,0.0,120.0,7.0,0.0
4043,68.0,2.0,120.0,7.0,0.0
4044,47.0,55.0,120.0,3.0,0.0
4045,61.0,0.0,120.0,7.0,0.0
4046,49.0,60.0,15.0,7.0,0.0
4047,70.0,0.0,120.0,7.0,0.0
4048,53.0,0.0,15.0,12.0,0.0
4049,61.0,3.0,15.0,12.0,0.0
4050,49.0,56.0,60.0,3.0,0.0
4051,46.0,1.0,60.0,3.0,0.0
4052,49.0,3.0,15.0,7.0,0.0
4053,53.0,0.0,15.0,7.0,0.0
4054,65.0,0.0,15.0,7.0,0.0
4055,32.0,120.0,480.0,5.0,0.0
4056,44.0,0.0,480.0,3.0,0.0
4057,71.0,0.0,480.0,7.0,0.0
4058,61.0,0.0,15.0,7.0,0.0
4059,65.0,0.0,15.0,7.0,0.0
4060,49.0,0.0,120.0,7.0,0.0
4061,53.0,120.0,15.0,7.0,0.0
4062,50.0,119.0,360.0,7.0,0.0
4063,62.0,0.0,360.0,7.0,0.0
4064,65.0,0.0,360.0,7.0,0.0
4065,53.0,0.0,360.0,7.0,0.0
4066,46.0,0.0,480.0,3.0,0.0
4067,70.0,0.0,480.0,7.0,0.0
4068,34.0,0.0,480.0,5.0,0.0
4069,61.0,1.0,120.0,7.0,0.0
4070,49.0,0.0,120.0,7.0,0.0
4071,66.0,0.0,120.0,7.0,0.0
4072,54.0,239.0,120.0,7.0,0.0
4073,50.0,1.0,240.0,7.0,0.0
4074,54.0,237.0,240.0,7.0,0.0
4075,62.0,0.0,240.0,7.0,0.0
4076,66.0,0.0,240.0,7.0,0.0
4077,35.0,5.0,240.0,3.0,0.0
4078,69.0,3.0,120.0,7.0,0.0
4079,54.0,115.0,120.0,7.0,0.0
4080,35.0,60.0,240.0,5.0,0.0
4081,56.0,0.0,120.0,7.0,0.0
4082,68.0,1.0,120.0,7.0,0.0
4083,57.0,1.0,120.0,7.0,0.0
4084,36.0,0.0,120.0,5.0,0.0
4085,63.0,0.0,15.0,7.0,0.0
4086,36.0,0.0,120.0,3.0,0.0
4087,65.0,58.0,60.0,7.0,0.0
4088,66.0,0.0,60.0,7.0,0.0
4089,37.0,0.0,480.0,3.0,0.0
4090,37.0,0.0,480.0,5.0,0.0
4091,66.0,0.0,240.0,7.0,0.0
4092,58.0,0.0,120.0,7.0,0.0
4093,61.0,56.0,120.0,7.0,0.0
4094,63.0,3.0,60.0,7.0,0.0
4095,59.0,61.0,60.0,7.0,0.0
4096,56.0,0.0,15.0,7.0,0.0
4097,59.0,61.0,15.0,7.0,0.0
4098,65.0,26.0,60.0,7.0,0.0
4099,66.0,33.0,30.0,7.0,0.0
4100,65.0,60.0,30.0,7.0,0.0
4101,63.0,60.0,60.0,7.0,0.0
4102,65.0,0.0,60.0,7.0,0.0
4103,83.0,0.0,240.0,1.0,0.0
4104,87.0,239.0,240.0,1.0,0.0
4105,30.0,0.0,120.0,5.0,0.0
4106,71.0,0.0,240.0,4.0,0.0
4107,47.0,0.0,240.0,6.0,0.0
4108,59.0,0.0,120.0,7.0,0.0
4109,51.0,0.0,240.0,6.0,0.0
4110,42.0,0.0,120.0,3.0,0.0
4111,54.0,0.0,240.0,8.0,0.0
4112,75.0,0.0,240.0,4.0,0.0
4113,54.0,0.0,120.0,7.0,0.0
4114,66.0,120.0,120.0,7.0,0.0
4115,82.0,2.0,240.0,1.0,0.0
4116,54.0,0.0,600.0,8.0,0.0
4117,42.0,0.0,15.0,8.0,0.0
4118,73.0,0.0,300.0,4.0,0.0
4119,49.0,56.0,300.0,6.0,0.0
4120,85.0,0.0,300.0,1.0,0.0
4121,70.0,2.0,240.0,4.0,0.0
4122,46.0,57.0,240.0,6.0,0.0
4123,39.0,1.0,240.0,3.0,0.0
4124,27.0,2.0,240.0,5.0,0.0
4125,71.0,1.0,60.0,4.0,0.0
4126,47.0,6.0,60.0,6.0,0.0
4127,83.0,52.0,60.0,1.0,0.0
4128,78.0,1.0,60.0,1.0,0.0
4129,66.0,3.0,60.0,4.0,0.0
4130,54.0,56.0,60.0,6.0,0.0
4131,56.0,5.0,60.0,6.0,0.0
4132,68.0,0.0,60.0,4.0,0.0
4133,80.0,57.0,60.0,1.0,0.0
4134,25.0,0.0,240.0,5.0,0.0
4135,57.0,0.0,60.0,6.0,0.0
4136,81.0,0.0,60.0,1.0,0.0
4137,69.0,59.0,60.0,4.0,0.0
4138,37.0,2.0,240.0,3.0,0.0
4139,54.0,0.0,60.0,6.0,0.0
4140,82.0,0.0,60.0,1.0,0.0
4141,66.0,1.0,15.0,2.0,0.0
4142,58.0,0.0,60.0,6.0,0.0
4143,70.0,55.0,60.0,4.0,0.0
4144,59.0,3.0,60.0,6.0,0.0
4145,71.0,0.0,60.0,4.0,0.0
4146,53.0,1.0,60.0,6.0,0.0
4147,83.0,3.0,60.0,1.0,0.0
4148,65.0,53.0,60.0,2.0,0.0
4149,65.0,1.0,60.0,4.0,0.0
4150,56.0,2.0,60.0,6.0,0.0
4151,53.0,1.0,60.0,6.0,0.0
4152,77.0,1.0,60.0,1.0,0.0
4153,71.0,37.0,60.0,2.0,0.0
4154,30.0,40.0,40.0,0.0,0.0
4155,63.0,0.0,120.0,0.0,0.0
4156,75.0,0.0,120.0,0.0,0.0
4157,71.0,40.0,120.0,0.0,0.0
4158,35.0,40.0,40.0,0.0,0.0
4159,42.0,0.0,40.0,0.0,0.0
4160,77.0,1.0,60.0,0.0,0.0
4161,65.0,3.0,60.0,0.0,0.0
4162,47.0,16.0,40.0,0.0,0.0
4163,73.0,20.0,60.0,0.0,0.0
4164,51.0,40.0,40.0,0.0,0.0
4165,66.0,0.0,60.0,0.0,0.0
4166,75.0,0.0,60.0,0.0,0.0
4167,78.0,85.0,60.0,0.0,0.0
4168,59.0,0.0,40.0,0.0,0.0
4169,66.0,5.0,120.0,0.0,0.0
4170,78.0,0.0,120.0,0.0,0.0
4171,30.0,35.0,40.0,0.0,0.0
4172,37.0,40.0,40.0,0.0,0.0
4173,73.0,3.0,180.0,0.0,0.0
4174,61.0,1.0,180.0,0.0,0.0
4175,70.0,0.0,15.0,0.0,0.0
4176,42.0,35.0,40.0,0.0,0.0
4177,46.0,40.0,40.0,0.0,0.0
4178,49.0,51.0,40.0,0.0,0.0
4179,39.0,0.0,240.0,0.0,0.0
4180,66.0,57.0,60.0,0.0,0.0
4181,69.0,3.0,60.0,0.0,0.0
4182,60.0,0.0,60.0,0.0,0.0
4183,72.0,57.0,60.0,0.0,0.0
4184,59.0,3.0,60.0,0.0,0.0
4185,41.0,0.0,60.0,0.0,0.0
4186,53.0,0.0,60.0,0.0,0.0
4187,71.0,59.0,60.0,0.0,0.0
4188,58.0,1.0,60.0,0.0,0.0
4189,54.0,0.0,60.0,0.0,0.0
4190,66.0,0.0,60.0,0.0,0.0
4191,70.0,117.0,60.0,0.0,0.0
4192,51.0,0.0,15.0,0.0,0.0
4193,42.0,3.0,15.0,0.0,0.0
4194,60.0,0.0,120.0,11.0,0.0
4195,60.0,0.0,1080.0,4.0,0.0
4196,51.0,200.0,120.0,11.0,0.0
4197,54.0,0.0,1080.0,8.0,0.0
4198,42.0,12.0,1080.0,8.0,0.0
4199,63.0,0.0,120.0,11.0,0.0
4200,42.0,0.0,120.0,11.0,0.0
4201,69.0,0.0,1080.0,4.0,0.0
4202,54.0,0.0,120.0,11.0,0.0
4203,69.0,0.0,120.0,11.0,0.0
4204,48.0,0.0,1080.0,6.0,0.0
4205,48.0,0.0,120.0,11.0,0.0
4206,51.0,0.0,1080.0,6.0,0.0
4207,30.0,20.0,20.0,0.0,0.0
4208,33.0,20.0,20.0,0.0,0.0
4209,36.0,20.0,20.0,0.0,0.0
4210,30.0,0.0,20.0,0.0,0.0
4211,39.0,20.0,20.0,0.0,0.0
4212,42.0,20.0,20.0,0.0,0.0
4213,33.0,0.0,20.0,0.0,0.0
4214,36.0,15.0,20.0,0.0,0.0
4215,45.0,0.0,20.0,0.0,0.0
4216,39.0,0.0,15.0,0.0,0.0
4217,48.0,20.0,15.0,0.0,0.0
4218,51.0,0.0,15.0,0.0,0.0
4219,42.0,20.0,15.0,0.0,0.0
4220,45.0,0.0,15.0,0.0,0.0
4221,54.0,20.0,15.0,0.0,0.0
4222,48.0,15.0,20.0,0.0,0.0
4223,57.0,5.0,15.0,0.0,0.0
4224,51.0,15.0,20.0,0.0,0.0
4225,60.0,5.0,15.0,0.0,0.0
4226,63.0,5.0,15.0,0.0,0.0
4227,54.0,20.0,20.0,0.0,0.0
4228,57.0,20.0,20.0,0.0,0.0
4229,66.0,0.0,20.0,0.0,0.0
4230,69.0,20.0,20.0,0.0,0.0
4231,60.0,0.0,20.0,0.0,0.0
4232,72.0,0.0,20.0,0.0,0.0
4233,63.0,20.0,20.0,0.0,0.0
4234,66.0,20.0,20.0,0.0,0.0
4235,75.0,0.0,20.0,0.0,0.0
4236,78.0,0.0,20.0,0.0,0.0
4237,69.0,20.0,20.0,0.0,0.0
4238,81.0,20.0,20.0,0.0,0.0
4239,72.0,0.0,20.0,0.0,0.0
4240,75.0,20.0,20.0,0.0,0.0
4241,84.0,0.0,20.0,0.0,0.0
4242,87.0,0.0,20.0,0.0,0.0
4243,78.0,15.0,20.0,0.0,0.0
4244,90.0,0.0,20.0,0.0,0.0
4245,81.0,1.0,20.0,0.0,0.0
4246,93.0,0.0,20.0,0.0,0.0
4247,84.0,20.0,20.0,0.0,0.0
4248,81.0,20.0,20.0,0.0,0.0
4249,90.0,0.0,20.0,0.0,0.0
4250,87.0,20.0,20.0,0.0,0.0
4251,78.0,0.0,20.0,0.0,0.0
4252,75.0,20.0,20.0,0.0,0.0
4253,84.0,0.0,20.0,0.0,0.0
4254,72.0,20.0,20.0,0.0,0.0
4255,81.0,0.0,20.0,0.0,0.0
4256,78.0,20.0,20.0,0.0,0.0
4257,69.0,0.0,20.0,0.0,0.0
4258,66.0,0.0,20.0,0.0,0.0
4259,75.0,20.0,20.0,0.0,0.0
4260,63.0,0.0,20.0,0.0,0.0
4261,72.0,20.0,20.0,0.0,0.0
4262,60.0,15.0,20.0,0.0,0.0
4263,69.0,0.0,20.0,0.0,0.0
4264,66.0,20.0,15.0,0.0,0.0
4265,57.0,0.0,15.0,0.0,0.0
4266,63.0,20.0,15.0,0.0,0.0
4267,54.0,0.0,15.0,0.0,0.0
4268,60.0,15.0,20.0,0.0,0.0
4269,51.0,5.0,15.0,0.0,0.0
4270,57.0,20.0,15.0,0.0,0.0
4271,48.0,0.0,15.0,0.0,0.0
4272,45.0,5.0,15.0,0.0,0.0
4273,54.0,15.0,20.0,0.0,0.0
4274,42.0,20.0,15.0,0.0,0.0
4275,57.0,0.0,15.0,0.0,0.0
4276,39.0,0.0,15.0,0.0,0.0
4277,60.0,20.0,15.0,0.0,0.0
4278,36.0,5.0,15.0,0.0,0.0
4279,63.0,15.0,20.0,0.0,0.0
4280,66.0,0.0,15.0,0.0,0.0
4281,33.0,5.0,15.0,0.0,0.0
4282,30.0,15.0,15.0,0.0,0.0
4283,35.0,15.0,15.0,0.0,0.0
4284,60.0,0.0,60.0,0.0,0.0
4285,57.0,0.0,60.0,0.0,0.0
4286,63.0,0.0,60.0,0.0,0.0
4287,69.0,48.0,60.0,0.0,0.0
4288,42.0,45.0,15.0,0.0,0.0
4289,53.0,0.0,240.0,6.0,0.0
4290,37.0,0.0,30.0,0.0,0.0
4291,56.0,5.0,240.0,6.0,0.0
4292,53.0,0.0,120.0,7.0,0.0
4293,41.0,0.0,30.0,0.0,0.0
4294,68.0,0.0,120.0,7.0,0.0
4295,65.0,0.0,120.0,7.0,0.0
4296,61.0,0.0,120.0,7.0,0.0
4297,85.0,0.0,120.0,1.0,0.0
4298,49.0,0.0,600.0,8.0,0.0
4299,73.0,0.0,120.0,4.0,0.0
4300,37.0,0.0,600.0,8.0,0.0
4301,44.0,0.0,15.0,7.0,0.0
4302,41.0,15.0,15.0,3.0,0.0
4303,25.0,2.0,600.0,5.0,0.0
4304,44.0,1.0,30.0,0.0,0.0
4305,53.0,0.0,30.0,0.0,0.0
4306,41.0,0.0,15.0,3.0,0.0
4307,49.0,14.0,30.0,0.0,0.0
4308,56.0,1.0,60.0,0.0,0.0
4309,44.0,15.0,15.0,7.0,0.0
4310,41.0,0.0,15.0,3.0,0.0
4311,65.0,0.0,60.0,0.0,0.0
4312,68.0,1.0,60.0,0.0,0.0
4313,61.0,13.0,60.0,0.0,0.0
4314,44.0,0.0,15.0,7.0,0.0
4315,41.0,15.0,15.0,3.0,0.0
4316,41.0,0.0,15.0,3.0,0.0
4317,44.0,14.0,15.0,7.0,0.0
4318,41.0,0.0,15.0,3.0,0.0
4319,44.0,1.0,15.0,7.0,0.0
4320,41.0,0.0,15.0,3.0,0.0
4321,44.0,15.0,15.0,7.0,0.0
4322,68.0,1.0,120.0,4.0,0.0
4323,41.0,0.0,15.0,3.0,0.0
4324,44.0,15.0,15.0,7.0,0.0
4325,80.0,10.0,120.0,1.0,0.0
4326,44.0,15.0,15.0,7.0,0.0
4327,41.0,0.0,15.0,3.0,0.0
4328,44.0,15.0,15.0,7.0,0.0
4329,41.0,0.0,15.0,3.0,0.0
4330,44.0,15.0,15.0,7.0,0.0
4331,41.0,15.0,15.0,3.0,0.0
4332,41.0,15.0,15.0,3.0,0.0
4333,44.0,0.0,15.0,7.0,0.0
4334,41.0,0.0,15.0,3.0,0.0
4335,44.0,14.0,15.0,7.0,0.0
4336,63.0,1.0,240.0,12.0,0.0
4337,60.0,0.0,240.0,12.0,0.0
4338,78.0,0.0,120.0,1.0,0.0
4339,42.0,15.0,15.0,3.0,0.0
4340,66.0,15.0,120.0,4.0,0.0
4341,57.0,0.0,240.0,6.0,0.0
4342,54.0,0.0,240.0,6.0,0.0
4343,45.0,0.0,15.0,7.0,0.0
4344,42.0,0.0,15.0,3.0,0.0
4345,45.0,15.0,15.0,7.0,0.0
4346,45.0,0.0,15.0,7.0,0.0
4347,42.0,15.0,15.0,3.0,0.0
4348,45.0,0.0,15.0,7.0,0.0
4349,42.0,15.0,15.0,3.0,0.0
4350,45.0,0.0,15.0,7.0,0.0
4351,45.0,15.0,15.0,7.0,0.0
4352,42.0,15.0,15.0,3.0,0.0
4353,42.0,0.0,15.0,3.0,0.0
4354,45.0,15.0,15.0,7.0,0.0
4355,45.0,0.0,15.0,7.0,0.0
4356,65.0,5.0,40.0,4.0,0.0
4357,42.0,0.0,15.0,3.0,0.0
4358,77.0,0.0,40.0,1.0,0.0
4359,45.0,0.0,15.0,7.0,0.0
4360,42.0,10.0,15.0,3.0,0.0
4361,75.0,10.0,40.0,1.0,0.0
4362,63.0,0.0,40.0,4.0,0.0
4363,45.0,0.0,15.0,7.0,0.0
4364,42.0,15.0,15.0,3.0,0.0
4365,85.0,4.0,120.0,0.0,0.0
4366,45.0,0.0,15.0,7.0,0.0
4367,73.0,16.0,120.0,0.0,0.0
4368,45.0,0.0,15.0,7.0,0.0
4369,42.0,5.0,15.0,3.0,0.0
4370,61.0,0.0,40.0,4.0,0.0
4371,73.0,0.0,40.0,1.0,0.0
4372,45.0,0.0,15.0,7.0,0.0
4373,42.0,15.0,15.0,3.0,0.0
4374,45.0,14.0,15.0,7.0,0.0
4375,42.0,0.0,15.0,3.0,0.0
4376,56.0,0.0,120.0,6.0,0.0
4377,44.0,20.0,40.0,0.0,0.0
4378,41.0,0.0,120.0,3.0,0.0
4379,53.0,0.0,120.0,6.0,0.0
4380,44.0,0.0,120.0,7.0,0.0
4381,61.0,0.0,120.0,12.0,0.0
4382,65.0,35.0,120.0,12.0,0.0
4383,37.0,35.0,40.0,0.0,0.0
4384,83.0,5.0,60.0,0.0,0.0
4385,71.0,3.0,60.0,0.0,0.0
4386,49.0,0.0,40.0,0.0,0.0
4387,69.0,1.0,60.0,0.0,0.0
4388,81.0,20.0,60.0,0.0,0.0
4389,53.0,19.0,40.0,0.0,0.0
4390,56.0,40.0,40.0,0.0,0.0
4391,80.0,1.0,60.0,0.0,0.0
4392,68.0,39.0,60.0,0.0,0.0
4393,45.0,20.0,40.0,0.0,0.0
4394,66.0,3.0,60.0,0.0,0.0
4395,78.0,17.0,60.0,0.0,0.0
4396,37.0,40.0,40.0,0.0,0.0
4397,76.0,0.0,60.0,0.0,0.0
4398,64.0,40.0,60.0,0.0,0.0
4399,49.0,0.0,40.0,0.0,0.0
4400,62.0,2.0,60.0,0.0,0.0
4401,54.0,19.0,40.0,0.0,0.0
4402,74.0,19.0,60.0,0.0,0.0
4403,57.0,41.0,40.0,0.0,0.0
4404,73.0,3.0,60.0,0.0,0.0
4405,61.0,11.0,60.0,0.0,0.0
4406,81.0,0.0,120.0,2.0,0.0
4407,57.0,0.0,480.0,8.0,0.0
4408,25.0,0.0,240.0,5.0,0.0
4409,52.0,0.0,240.0,6.0,0.0
4410,45.0,0.0,480.0,8.0,0.0
4411,37.0,0.0,240.0,6.0,0.0
4412,40.0,0.0,15.0,3.0,0.0
4413,52.0,15.0,15.0,7.0,0.0
4414,52.0,15.0,15.0,7.0,0.0
4415,40.0,0.0,15.0,3.0,0.0
4416,40.0,0.0,15.0,3.0,0.0
4417,52.0,15.0,15.0,7.0,0.0
4418,40.0,0.0,15.0,3.0,0.0
4419,52.0,15.0,15.0,7.0,0.0
4420,52.0,15.0,15.0,7.0,0.0
4421,40.0,0.0,15.0,3.0,0.0
4422,52.0,15.0,15.0,7.0,0.0
4423,52.0,0.0,15.0,7.0,0.0
4424,40.0,15.0,15.0,3.0,0.0
4425,76.0,0.0,120.0,2.0,0.0
4426,40.0,15.0,15.0,3.0,0.0
4427,52.0,0.0,15.0,7.0,0.0
4428,40.0,15.0,15.0,3.0,0.0
4429,52.0,15.0,15.0,7.0,0.0
4430,40.0,0.0,15.0,3.0,0.0
4431,40.0,0.0,15.0,3.0,0.0
4432,52.0,15.0,15.0,7.0,0.0
4433,40.0,15.0,15.0,3.0,0.0
4434,52.0,0.0,15.0,7.0,0.0
4435,52.0,15.0,15.0,7.0,0.0
4436,40.0,15.0,15.0,3.0,0.0
4437,69.0,4.0,360.0,4.0,0.0
4438,74.0,3.0,120.0,2.0,0.0
4439,26.0,1.0,240.0,5.0,0.0
4440,54.0,0.0,240.0,6.0,0.0
4441,54.0,0.0,15.0,7.0,0.0
4442,38.0,38.0,240.0,6.0,0.0
4443,42.0,15.0,15.0,3.0,0.0
4444,54.0,15.0,15.0,7.0,0.0
4445,42.0,0.0,15.0,3.0,0.0
4446,42.0,15.0,15.0,3.0,0.0
4447,54.0,15.0,15.0,7.0,0.0
4448,54.0,15.0,15.0,7.0,0.0
4449,42.0,0.0,15.0,3.0,0.0
4450,54.0,0.0,15.0,7.0,0.0
4451,42.0,15.0,15.0,3.0,0.0
4452,42.0,0.0,15.0,3.0,0.0
4453,54.0,15.0,15.0,7.0,0.0
4454,73.0,5.0,40.0,2.0,0.0
4455,42.0,0.0,15.0,3.0,0.0
4456,54.0,15.0,15.0,7.0,0.0
4457,42.0,0.0,15.0,3.0,0.0
4458,42.0,15.0,15.0,3.0,0.0
4459,54.0,0.0,15.0,7.0,0.0
4460,71.0,10.0,40.0,2.0,0.0
4461,42.0,15.0,15.0,3.0,0.0
4462,54.0,0.0,15.0,7.0,0.0
4463,54.0,5.0,15.0,7.0,0.0
4464,93.0,20.0,120.0,0.0,0.0
4465,81.0,0.0,60.0,0.0,0.0
4466,42.0,0.0,15.0,3.0,0.0
4467,54.0,0.0,15.0,7.0,0.0
4468,69.0,2.0,40.0,2.0,0.0
4469,42.0,15.0,15.0,3.0,0.0
4470,54.0,0.0,15.0,7.0,0.0
4471,42.0,14.0,15.0,3.0,0.0
4472,40.0,0.0,120.0,3.0,0.0
4473,28.0,20.0,40.0,0.0,0.0
4474,61.0,0.0,120.0,8.0,0.0
4475,52.0,0.0,120.0,7.0,0.0
4476,52.0,0.0,120.0,6.0,0.0
4477,40.0,0.0,120.0,6.0,0.0
4478,49.0,0.0,120.0,8.0,0.0
4479,28.0,40.0,120.0,5.0,0.0
4480,80.0,0.0,30.0,0.0,0.0
4481,37.0,36.0,40.0,0.0,0.0
4482,92.0,0.0,60.0,0.0,0.0
4483,40.0,0.0,40.0,0.0,0.0
4484,78.0,0.0,30.0,0.0,0.0
4485,90.0,20.0,60.0,0.0,0.0
4486,45.0,20.0,40.0,0.0,0.0
4487,76.0,0.0,30.0,0.0,0.0
4488,49.0,40.0,40.0,0.0,0.0
4489,88.0,0.0,60.0,0.0,0.0
4490,74.0,40.0,30.0,0.0,0.0
4491,30.0,20.0,40.0,0.0,0.0
4492,86.0,20.0,60.0,0.0,0.0
4493,73.0,0.0,30.0,0.0,0.0
4494,38.0,40.0,40.0,0.0,0.0
4495,85.0,0.0,60.0,0.0,0.0
4496,42.0,0.0,40.0,0.0,0.0
4497,71.0,40.0,30.0,0.0,0.0
4498,83.0,0.0,60.0,0.0,0.0
4499,45.0,20.0,40.0,0.0,0.0
4500,69.0,20.0,30.0,0.0,0.0
4501,50.0,40.0,40.0,0.0,0.0
4502,81.0,40.0,60.0,0.0,0.0
4503,68.0,0.0,30.0,0.0,0.0
4504,80.0,20.0,60.0,0.0,0.0
4505,32.0,20.0,40.0,0.0,0.0
4506,66.0,0.0,30.0,0.0,0.0
4507,39.0,40.0,40.0,0.0,0.0
4508,78.0,0.0,60.0,0.0,0.0
4509,46.0,60.0,40.0,0.0,0.0
4510,64.0,0.0,30.0,0.0,0.0
4511,44.0,4.0,120.0,0.0,0.0
4512,76.0,0.0,60.0,0.0,0.0
4513,49.0,56.0,60.0,0.0,0.0
4514,63.0,0.0,30.0,0.0,0.0
4515,75.0,60.0,60.0,0.0,0.0
4516,48.0,0.0,60.0,0.0,0.0
4517,61.0,0.0,30.0,0.0,0.0
4518,73.0,0.0,60.0,0.0,0.0
4519,52.0,0.0,60.0,0.0,0.0
4520,44.0,0.0,120.0,0.0,0.0
4521,59.0,60.0,30.0,0.0,0.0
4522,71.0,60.0,60.0,0.0,0.0
4523,51.0,0.0,60.0,0.0,0.0
4524,57.0,0.0,30.0,0.0,0.0
4525,69.0,0.0,60.0,0.0,0.0
4526,54.0,60.0,60.0,0.0,0.0
4527,44.0,28.0,120.0,0.0,0.0
4528,56.0,0.0,30.0,0.0,0.0
4529,52.0,2.0,60.0,0.0,0.0
4530,68.0,0.0,60.0,0.0,0.0
4531,61.0,30.0,60.0,0.0,0.0
4532,57.0,30.0,60.0,0.0,0.0
4533,66.0,0.0,60.0,0.0,0.0
4534,59.0,30.0,60.0,0.0,0.0
4535,56.0,30.0,60.0,0.0,0.0
4536,64.0,0.0,60.0,0.0,0.0
4537,57.0,30.0,60.0,0.0,0.0
4538,54.0,30.0,60.0,0.0,0.0
4539,63.0,0.0,60.0,0.0,0.0
4540,56.0,30.0,60.0,0.0,0.0
4541,52.0,30.0,60.0,0.0,0.0
4542,61.0,0.0,60.0,0.0,0.0
4543,54.0,30.0,60.0,0.0,0.0
4544,51.0,0.0,60.0,0.0,0.0
4545,59.0,30.0,60.0,0.0,0.0
4546,52.0,30.0,60.0,0.0,0.0
4547,49.0,2.0,60.0,0.0,0.0
4548,57.0,0.0,60.0,0.0,0.0
4549,51.0,0.0,90.0,0.0,0.0
4550,48.0,58.0,60.0,0.0,0.0
4551,44.0,58.0,15.0,0.0,0.0
4552,56.0,0.0,60.0,0.0,0.0
4553,56.0,60.0,240.0,12.0,0.0
4554,68.0,3.0,120.0,7.0,0.0
4555,69.0,0.0,120.0,7.0,0.0
4556,56.0,60.0,15.0,7.0,0.0
4557,70.0,2.0,240.0,7.0,0.0
4558,56.0,120.0,15.0,7.0,0.0
4559,56.0,57.0,15.0,7.0,0.0
4560,71.0,65.0,120.0,7.0,0.0
4561,56.0,60.0,15.0,12.0,0.0
4562,78.0,57.0,240.0,7.0,0.0
4563,72.0,0.0,120.0,7.0,0.0
4564,56.0,60.0,15.0,7.0,0.0
4565,56.0,1.0,240.0,12.0,0.0
4566,77.0,59.0,240.0,7.0,0.0
4567,56.0,57.0,120.0,7.0,0.0
4568,56.0,61.0,120.0,7.0,0.0
4569,73.0,3.0,15.0,7.0,0.0
4570,65.0,0.0,240.0,7.0,0.0
4571,53.0,0.0,240.0,12.0,0.0
4572,32.0,3.0,120.0,5.0,0.0
4573,44.0,56.0,120.0,3.0,0.0
4574,61.0,0.0,120.0,7.0,0.0
4575,33.0,0.0,120.0,5.0,0.0
4576,45.0,0.0,120.0,3.0,0.0
4577,53.0,55.0,15.0,7.0,0.0
4578,34.0,0.0,240.0,5.0,0.0
4579,65.0,2.0,240.0,7.0,0.0
4580,61.0,120.0,60.0,7.0,0.0
4581,61.0,60.0,15.0,12.0,0.0
4582,49.0,0.0,240.0,12.0,0.0
4583,46.0,59.0,240.0,3.0,0.0
4584,53.0,0.0,15.0,7.0,0.0
4585,61.0,0.0,120.0,7.0,0.0
4586,58.0,55.0,120.0,7.0,0.0
4587,61.0,1.0,60.0,7.0,0.0
4588,42.0,1.0,120.0,3.0,0.0
4589,61.0,0.0,60.0,7.0,0.0
4590,61.0,1.0,15.0,12.0,0.0
4591,49.0,0.0,120.0,12.0,0.0
4592,70.0,0.0,240.0,7.0,0.0
4593,30.0,119.0,120.0,5.0,0.0
4594,49.0,4.0,60.0,7.0,0.0
4595,61.0,0.0,60.0,7.0,0.0
4596,64.0,237.0,120.0,7.0,0.0
4597,52.0,0.0,120.0,7.0,0.0
4598,52.0,0.0,120.0,12.0,0.0
4599,31.0,0.0,120.0,5.0,0.0
4600,43.0,0.0,120.0,3.0,0.0
4601,56.0,0.0,240.0,12.0,0.0
4602,32.0,2.0,240.0,5.0,0.0
4603,44.0,0.0,240.0,3.0,0.0
4604,56.0,0.0,240.0,7.0,0.0
4605,63.0,0.0,240.0,7.0,0.0
4606,60.0,60.0,240.0,7.0,0.0
4607,44.0,20.0,60.0,0.0,0.0
4608,32.0,40.0,40.0,0.0,0.0
4609,49.0,40.0,60.0,0.0,0.0
4610,41.0,0.0,40.0,0.0,0.0
4611,44.0,20.0,40.0,0.0,0.0
4612,50.0,20.0,60.0,0.0,0.0
4613,41.0,40.0,40.0,0.0,0.0
4614,58.0,0.0,60.0,0.0,0.0
4615,53.0,60.0,40.0,0.0,0.0
4616,56.0,20.0,60.0,0.0,0.0
4617,44.0,40.0,40.0,0.0,0.0
4618,63.0,0.0,60.0,0.0,0.0
4619,54.0,40.0,40.0,0.0,0.0
4620,64.0,20.0,60.0,0.0,0.0
4621,56.0,20.0,40.0,0.0,0.0
4622,55.0,40.0,40.0,0.0,0.0
4623,70.0,60.0,60.0,0.0,0.0
4624,67.0,0.0,40.0,0.0,0.0
4625,68.0,20.0,60.0,0.0,0.0
4626,44.0,40.0,40.0,0.0,0.0
4627,77.0,0.0,60.0,0.0,0.0
4628,56.0,40.0,40.0,0.0,0.0
4629,65.0,40.0,40.0,0.0,0.0
4630,85.0,20.0,180.0,0.0,0.0
4631,56.0,40.0,40.0,0.0,0.0
4632,78.0,40.0,60.0,0.0,0.0
4633,70.0,0.0,40.0,0.0,0.0
4634,63.0,20.0,40.0,0.0,0.0
4635,79.0,0.0,60.0,0.0,0.0
4636,56.0,40.0,40.0,0.0,0.0
4637,84.0,40.0,60.0,0.0,0.0
4638,80.0,0.0,60.0,0.0,0.0
4639,68.0,0.0,40.0,0.0,0.0
4640,72.0,0.0,180.0,0.0,0.0
4641,66.0,40.0,40.0,0.0,0.0
4642,82.0,0.0,180.0,0.0,0.0
4643,56.0,40.0,40.0,0.0,0.0
4644,75.0,0.0,60.0,0.0,0.0
4645,60.0,40.0,40.0,0.0,0.0
4646,76.0,20.0,40.0,0.0,0.0
4647,32.0,20.0,60.0,0.0,0.0
4648,77.0,0.0,40.0,0.0,0.0
4649,80.0,40.0,40.0,0.0,0.0
4650,44.0,40.0,60.0,0.0,0.0
4651,68.0,0.0,40.0,0.0,0.0
4652,72.0,20.0,40.0,0.0,0.0
4653,78.0,0.0,40.0,0.0,0.0
4654,33.0,20.0,60.0,0.0,0.0
4655,45.0,40.0,60.0,0.0,0.0
4656,66.0,40.0,15.0,0.0,0.0
4657,72.0,0.0,40.0,0.0,0.0
4658,63.0,40.0,40.0,0.0,0.0
4659,34.0,0.0,240.0,0.0,0.0
4660,65.0,40.0,40.0,0.0,0.0
4661,73.0,0.0,40.0,0.0,0.0
4662,46.0,0.0,180.0,0.0,0.0
4663,65.0,0.0,40.0,0.0,0.0
4664,61.0,40.0,15.0,0.0,0.0
4665,53.0,40.0,40.0,0.0,0.0
4666,65.0,40.0,40.0,0.0,0.0
4667,73.0,0.0,40.0,0.0,0.0
4668,61.0,20.0,40.0,0.0,0.0
4669,30.0,20.0,60.0,0.0,0.0
4670,82.0,0.0,40.0,0.0,0.0
4671,73.0,40.0,40.0,0.0,0.0
4672,42.0,40.0,60.0,0.0,0.0
4673,70.0,0.0,40.0,0.0,0.0
4674,73.0,40.0,40.0,0.0,0.0
4675,76.0,0.0,40.0,0.0,0.0
4676,31.0,0.0,360.0,0.0,0.0
4677,64.0,40.0,40.0,0.0,0.0
4678,43.0,0.0,300.0,0.0,0.0
4679,72.0,0.0,40.0,0.0,0.0
4680,69.0,40.0,40.0,0.0,0.0
4681,63.0,40.0,40.0,0.0,0.0
4682,70.0,40.0,40.0,0.0,0.0
4683,73.0,0.0,40.0,0.0,0.0
4684,61.0,40.0,40.0,0.0,0.0
4685,64.0,40.0,40.0,0.0,0.0
4686,70.0,0.0,40.0,0.0,0.0
4687,61.0,40.0,15.0,0.0,0.0
4688,58.0,0.0,40.0,0.0,0.0
4689,31.0,0.0,120.0,0.0,0.0
4690,58.0,40.0,15.0,0.0,0.0
4691,61.0,40.0,40.0,0.0,0.0
4692,52.0,40.0,40.0,0.0,0.0
4693,32.0,0.0,60.0,0.0,0.0
4694,44.0,0.0,60.0,0.0,0.0
4695,48.0,0.0,60.0,0.0,0.0
4696,56.0,0.0,60.0,0.0,0.0
4697,32.0,0.0,60.0,5.0,0.0
4698,44.0,20.0,60.0,3.0,0.0
4699,44.0,20.0,15.0,7.0,0.0
4700,44.0,40.0,15.0,7.0,0.0
4701,44.0,40.0,15.0,7.0,0.0
4702,44.0,40.0,15.0,7.0,0.0
4703,44.0,37.0,15.0,7.0,0.0
4704,44.0,3.0,30.0,3.0,0.0
4705,32.0,39.0,30.0,5.0,0.0
4706,52.0,2.0,60.0,6.0,0.0
4707,33.0,1.0,60.0,5.0,0.0
4708,57.0,2.0,60.0,8.0,0.0
4709,61.0,1.0,60.0,12.0,0.0
4710,45.0,0.0,60.0,8.0,0.0
4711,61.0,21.0,60.0,6.0,0.0
4712,45.0,0.0,60.0,3.0,0.0
4713,45.0,13.0,15.0,7.0,0.0
4714,45.0,40.0,15.0,7.0,0.0
4715,45.0,40.0,15.0,7.0,0.0
4716,45.0,40.0,15.0,7.0,0.0
4717,45.0,34.0,15.0,7.0,0.0
4718,52.0,4.0,30.0,6.0,0.0
4719,61.0,1.0,30.0,6.0,0.0
4720,45.0,1.0,30.0,8.0,0.0
4721,61.0,5.0,30.0,12.0,0.0
4722,45.0,0.0,360.0,8.0,0.0
4723,62.0,0.0,180.0,6.0,0.0
4724,54.0,0.0,180.0,6.0,0.0
4725,57.0,35.0,15.0,8.0,0.0
4726,45.0,0.0,15.0,7.0,0.0
4727,62.0,20.0,180.0,12.0,0.0
4728,45.0,40.0,15.0,7.0,0.0
4729,45.0,40.0,40.0,7.0,0.0
4730,45.0,20.0,15.0,7.0,0.0
4731,61.0,2.0,60.0,6.0,0.0
4732,52.0,6.0,60.0,6.0,0.0
4733,61.0,34.0,60.0,12.0,0.0
4734,45.0,38.0,15.0,7.0,0.0
4735,57.0,2.0,60.0,6.0,0.0
4736,50.0,4.0,60.0,6.0,0.0
4737,66.0,20.0,60.0,12.0,0.0
4738,45.0,14.0,15.0,7.0,0.0
4739,49.0,2.0,60.0,6.0,0.0
4740,52.0,0.0,60.0,6.0,0.0
4741,64.0,0.0,60.0,12.0,0.0
4742,45.0,40.0,40.0,7.0,0.0
4743,56.0,2.0,60.0,12.0,0.0
4744,50.0,2.0,60.0,6.0,0.0
4745,47.0,20.0,60.0,6.0,0.0
4746,45.0,16.0,40.0,7.0,0.0
4747,45.0,36.0,40.0,7.0,0.0
4748,45.0,2.0,60.0,6.0,0.0
4749,49.0,2.0,60.0,6.0,0.0
4750,57.0,40.0,60.0,12.0,0.0
4751,45.0,0.0,40.0,7.0,0.0
4752,28.0,0.0,60.0,5.0,0.0
4753,40.0,20.0,60.0,3.0,0.0
4754,44.0,0.0,120.0,6.0,0.0
4755,52.0,0.0,120.0,6.0,0.0
4756,59.0,37.0,120.0,12.0,0.0
4757,52.0,20.0,15.0,7.0,0.0
4758,52.0,3.0,40.0,7.0,0.0
4759,52.0,40.0,15.0,7.0,0.0
4760,52.0,39.0,15.0,7.0,0.0
4761,40.0,1.0,30.0,3.0,0.0
4762,28.0,40.0,30.0,5.0,0.0
4763,44.0,6.0,60.0,3.0,0.0
4764,44.0,0.0,40.0,12.0,0.0
4765,56.0,14.0,40.0,12.0,0.0
4766,54.0,2.0,60.0,7.0,0.0
4767,51.0,0.0,60.0,7.0,0.0
4768,32.0,2.0,60.0,5.0,0.0
4769,60.0,16.0,60.0,7.0,0.0
4770,56.0,0.0,40.0,12.0,0.0
4771,44.0,40.0,15.0,12.0,0.0
4772,56.0,40.0,40.0,12.0,0.0
4773,56.0,40.0,40.0,12.0,0.0
4774,44.0,0.0,40.0,12.0,0.0
4775,44.0,0.0,40.0,12.0,0.0
4776,56.0,39.0,40.0,12.0,0.0
4777,44.0,0.0,40.0,12.0,0.0
4778,51.0,1.0,30.0,7.0,0.0
4779,60.0,0.0,30.0,7.0,0.0
4780,56.0,0.0,15.0,12.0,0.0
4781,54.0,40.0,15.0,7.0,0.0
4782,63.0,20.0,180.0,7.0,0.0
4783,44.0,40.0,15.0,12.0,0.0
4784,56.0,40.0,15.0,12.0,0.0
4785,44.0,40.0,15.0,12.0,0.0
4786,56.0,20.0,15.0,12.0,0.0
4787,60.0,0.0,15.0,7.0,0.0
4788,51.0,40.0,60.0,7.0,0.0
4789,54.0,0.0,60.0,7.0,0.0
4790,44.0,40.0,15.0,12.0,0.0
4791,56.0,0.0,15.0,12.0,0.0
4792,63.0,0.0,60.0,7.0,0.0
4793,44.0,0.0,40.0,12.0,0.0
4794,60.0,0.0,60.0,7.0,0.0
4795,54.0,20.0,60.0,7.0,0.0
4796,56.0,20.0,40.0,12.0,0.0
4797,56.0,40.0,40.0,12.0,0.0
4798,44.0,0.0,40.0,12.0,0.0
4799,61.0,0.0,60.0,7.0,0.0
4800,53.0,0.0,60.0,7.0,0.0
4801,44.0,0.0,40.0,12.0,0.0
4802,56.0,0.0,15.0,12.0,0.0
4803,56.0,0.0,60.0,7.0,0.0
4804,44.0,20.0,15.0,12.0,0.0
4805,56.0,0.0,15.0,12.0,0.0
4806,52.0,20.0,15.0,7.0,0.0
4807,49.0,40.0,60.0,7.0,0.0
4808,58.0,0.0,60.0,7.0,0.0
4809,44.0,40.0,15.0,12.0,0.0
4810,56.0,0.0,40.0,12.0,0.0
4811,51.0,40.0,120.0,7.0,0.0
4812,56.0,0.0,60.0,3.0,0.0
4813,44.0,0.0,60.0,5.0,0.0
4814,56.0,20.0,40.0,7.0,0.0
4815,60.0,0.0,120.0,7.0,0.0
4816,44.0,20.0,60.0,12.0,0.0
4817,56.0,0.0,60.0,12.0,0.0
4818,56.0,40.0,40.0,7.0,0.0
4819,56.0,0.0,40.0,7.0,0.0
4820,56.0,40.0,15.0,7.0,0.0
4821,56.0,40.0,15.0,7.0,0.0
4822,56.0,40.0,30.0,3.0,0.0
4823,44.0,0.0,30.0,5.0,0.0
4824,57.0,20.0,40.0,7.0,0.0
4825,57.0,0.0,60.0,8.0,0.0
4826,57.0,20.0,60.0,4.0,0.0
4827,69.0,0.0,60.0,4.0,0.0
4828,45.0,0.0,60.0,5.0,0.0
4829,57.0,0.0,60.0,3.0,0.0
4830,73.0,0.0,60.0,1.0,0.0
4831,73.0,0.0,60.0,2.0,0.0
4832,64.0,0.0,60.0,2.0,0.0
4833,57.0,40.0,15.0,7.0,0.0
4834,57.0,40.0,15.0,7.0,0.0
4835,57.0,40.0,40.0,7.0,0.0
4836,57.0,40.0,40.0,7.0,0.0
4837,73.0,0.0,30.0,2.0,0.0
4838,64.0,0.0,30.0,2.0,0.0
4839,73.0,0.0,30.0,1.0,0.0
4840,57.0,0.0,30.0,8.0,0.0
4841,74.0,0.0,180.0,1.0,0.0
4842,66.0,0.0,180.0,2.0,0.0
4843,74.0,20.0,180.0,2.0,0.0
4844,57.0,0.0,360.0,8.0,0.0
4845,69.0,0.0,15.0,4.0,0.0
4846,57.0,0.0,15.0,4.0,0.0
4847,57.0,40.0,40.0,7.0,0.0
4848,57.0,40.0,15.0,7.0,0.0
4849,57.0,20.0,15.0,7.0,0.0
4850,73.0,40.0,60.0,1.0,0.0
4851,64.0,0.0,60.0,2.0,0.0
4852,73.0,0.0,60.0,2.0,0.0
4853,57.0,0.0,40.0,7.0,0.0
4854,62.0,0.0,60.0,2.0,0.0
4855,78.0,0.0,60.0,2.0,0.0
4856,78.0,20.0,60.0,1.0,0.0
4857,57.0,20.0,15.0,7.0,0.0
4858,76.0,0.0,60.0,2.0,0.0
4859,61.0,0.0,60.0,2.0,0.0
4860,76.0,0.0,60.0,1.0,0.0
4861,57.0,40.0,15.0,7.0,0.0
4862,59.0,0.0,60.0,4.0,0.0
4863,62.0,20.0,60.0,4.0,0.0
4864,62.0,0.0,60.0,2.0,0.0
4865,68.0,0.0,60.0,2.0,0.0
4866,57.0,20.0,40.0,7.0,0.0
4867,68.0,0.0,60.0,1.0,0.0
4868,69.0,0.0,60.0,2.0,0.0
4869,61.0,40.0,60.0,2.0,0.0
4870,57.0,0.0,60.0,4.0,0.0
4871,61.0,0.0,60.0,4.0,0.0
4872,69.0,0.0,60.0,1.0,0.0
4873,57.0,40.0,15.0,7.0,0.0
4874,40.0,20.0,40.0,3.0,0.0
4875,56.0,0.0,120.0,4.0,0.0
4876,64.0,0.0,120.0,4.0,0.0
4877,71.0,0.0,120.0,2.0,0.0
4878,52.0,40.0,120.0,7.0,0.0
4879,71.0,0.0,120.0,1.0,0.0
4880,28.0,20.0,60.0,5.0,0.0
4881,59.0,0.0,120.0,2.0,0.0
4882,40.0,40.0,40.0,3.0,0.0
4883,40.0,0.0,40.0,3.0,0.0
4884,40.0,40.0,15.0,3.0,0.0
4885,40.0,40.0,40.0,3.0,0.0
4886,28.0,0.0,30.0,5.0,0.0
4887,59.0,0.0,60.0,7.0,0.0
4888,29.0,20.0,60.0,5.0,0.0
4889,57.0,0.0,60.0,7.0,0.0
4890,51.0,0.0,60.0,7.0,0.0
4891,41.0,20.0,15.0,3.0,0.0
4892,41.0,40.0,15.0,3.0,0.0
4893,41.0,40.0,15.0,3.0,0.0
4894,41.0,40.0,15.0,3.0,0.0
4895,59.0,0.0,30.0,7.0,0.0
4896,41.0,0.0,15.0,3.0,0.0
4897,60.0,20.0,180.0,7.0,0.0
4898,51.0,0.0,15.0,7.0,0.0
4899,57.0,40.0,15.0,7.0,0.0
4900,41.0,40.0,15.0,3.0,0.0
4901,41.0,40.0,15.0,3.0,0.0
4902,41.0,20.0,15.0,3.0,0.0
4903,48.0,0.0,60.0,7.0,0.0
4904,57.0,0.0,15.0,7.0,0.0
4905,41.0,40.0,15.0,3.0,0.0
4906,51.0,40.0,15.0,7.0,0.0
4907,60.0,0.0,60.0,7.0,0.0
4908,57.0,0.0,60.0,7.0,0.0
4909,41.0,20.0,15.0,3.0,0.0
4910,50.0,0.0,60.0,7.0,0.0
4911,58.0,0.0,60.0,7.0,0.0
4912,41.0,40.0,15.0,3.0,0.0
4913,49.0,20.0,60.0,7.0,0.0
4914,53.0,40.0,15.0,7.0,0.0
4915,41.0,20.0,15.0,3.0,0.0
4916,55.0,0.0,60.0,7.0,0.0
4917,46.0,0.0,60.0,7.0,0.0
4918,41.0,0.0,40.0,3.0,0.0
4919,41.0,20.0,40.0,3.0,0.0
4920,57.0,0.0,120.0,7.0,0.0
4921,48.0,0.0,120.0,7.0,0.0
4922,29.0,20.0,60.0,5.0,0.0
4923,53.0,0.0,120.0,7.0,0.0
4924,41.0,40.0,40.0,3.0,0.0
4925,41.0,0.0,40.0,3.0,0.0
4926,69.0,0.0,30.0,0.0,0.0
4927,60.0,0.0,30.0,0.0,0.0
4928,75.0,0.0,15.0,0.0,0.0
4929,81.0,0.0,15.0,0.0,0.0
4930,63.0,0.0,15.0,0.0,0.0
4931,84.0,0.0,180.0,0.0,0.0
4932,72.0,40.0,15.0,0.0,0.0
4933,41.0,40.0,15.0,3.0,0.0
4934,41.0,40.0,15.0,3.0,0.0
4935,29.0,0.0,30.0,5.0,0.0
4936,30.0,0.0,60.0,5.0,0.0
4937,42.0,20.0,40.0,3.0,0.0
4938,42.0,40.0,40.0,3.0,0.0
4939,69.0,0.0,15.0,0.0,0.0
4940,60.0,0.0,60.0,0.0,0.0
4941,75.0,0.0,15.0,0.0,0.0
4942,72.0,20.0,15.0,0.0,0.0
4943,42.0,0.0,40.0,3.0,0.0
4944,63.0,0.0,15.0,0.0,0.0
4945,81.0,0.0,15.0,0.0,0.0
4946,75.0,0.0,15.0,0.0,0.0
4947,69.0,0.0,15.0,0.0,0.0
4948,84.0,20.0,60.0,0.0,0.0
4949,72.0,40.0,15.0,0.0,0.0
4950,42.0,20.0,15.0,3.0,0.0
4951,73.0,0.0,60.0,0.0,0.0
4952,61.0,0.0,60.0,0.0,0.0
4953,70.0,0.0,60.0,0.0,0.0
4954,82.0,0.0,60.0,0.0,0.0
4955,42.0,40.0,40.0,3.0,0.0
4956,59.0,0.0,60.0,0.0,0.0
4957,62.0,0.0,60.0,0.0,0.0
4958,65.0,0.0,60.0,0.0,0.0
4959,68.0,0.0,60.0,0.0,0.0
4960,71.0,20.0,60.0,0.0,0.0
4961,74.0,0.0,60.0,0.0,0.0
4962,77.0,0.0,60.0,0.0,0.0
4963,80.0,0.0,60.0,0.0,0.0
4964,42.0,20.0,40.0,3.0,0.0
4965,58.0,0.0,60.0,0.0,0.0
4966,63.0,0.0,60.0,0.0,0.0
4967,66.0,0.0,60.0,0.0,0.0
4968,70.0,0.0,60.0,0.0,0.0
4969,78.0,40.0,60.0,0.0,0.0
4970,75.0,0.0,60.0,0.0,0.0
4971,42.0,40.0,15.0,3.0,0.0
4972,42.0,0.0,15.0,3.0,0.0
4973,77.0,0.0,60.0,0.0,0.0
4974,74.0,0.0,60.0,0.0,0.0
4975,71.0,0.0,60.0,0.0,0.0
4976,65.0,0.0,60.0,0.0,0.0
4977,62.0,0.0,60.0,0.0,0.0
4978,68.0,0.0,60.0,0.0,0.0
4979,56.0,0.0,60.0,0.0,0.0
4980,59.0,20.0,60.0,0.0,0.0
4981,42.0,40.0,40.0,3.0,0.0
4982,58.0,40.0,60.0,0.0,0.0
4983,70.0,0.0,60.0,0.0,0.0
4984,75.0,0.0,60.0,0.0,0.0
4985,78.0,0.0,60.0,0.0,0.0
4986,66.0,0.0,60.0,0.0,0.0
4987,63.0,0.0,60.0,0.0,0.0
4988,42.0,0.0,40.0,3.0,0.0
4989,56.0,20.0,60.0,0.0,0.0
4990,59.0,0.0,60.0,0.0,0.0
4991,74.0,0.0,60.0,0.0,0.0
4992,68.0,0.0,60.0,0.0,0.0
4993,65.0,0.0,60.0,0.0,0.0
4994,71.0,0.0,60.0,0.0,0.0
4995,77.0,0.0,60.0,0.0,0.0
4996,42.0,20.0,15.0,3.0,0.0
4997,70.0,0.0,60.0,0.0,0.0
4998,54.0,0.0,60.0,0.0,0.0
4999,58.0,0.0,60.0,0.0,0.0
5000,63.0,0.0,60.0,0.0,0.0
5001,66.0,0.0,60.0,0.0,0.0
5002,75.0,0.0,60.0,0.0,0.0
5003,42.0,40.0,15.0,3.0,0.0
5004,62.0,0.0,60.0,0.0,0.0
5005,53.0,0.0,60.0,0.0,0.0
5006,56.0,0.0,60.0,0.0,0.0
5007,74.0,0.0,60.0,0.0,0.0
5008,71.0,0.0,60.0,0.0,0.0
5009,68.0,0.0,60.0,0.0,0.0
5010,65.0,0.0,60.0,0.0,0.0
5011,59.0,20.0,60.0,0.0,0.0
5012,42.0,20.0,40.0,3.0,0.0
5013,75.0,0.0,60.0,0.0,0.0
5014,70.0,0.0,60.0,0.0,0.0
5015,54.0,0.0,60.0,0.0,0.0
5016,58.0,0.0,60.0,0.0,0.0
5017,63.0,60.0,60.0,0.0,0.0
5018,66.0,0.0,60.0,0.0,0.0
5019,42.0,40.0,15.0,3.0,0.0
5020,44.0,0.0,60.0,3.0,0.0
5021,55.0,0.0,60.0,0.0,0.0
5022,52.0,0.0,60.0,0.0,0.0
5023,73.0,0.0,120.0,0.0,0.0
5024,32.0,60.0,60.0,11.0,0.0
5025,64.0,0.0,120.0,0.0,0.0
5026,61.0,0.0,60.0,0.0,0.0
5027,67.0,0.0,120.0,0.0,0.0
5028,60.0,0.0,30.0,7.0,0.0
5029,51.0,0.0,30.0,7.0,0.0
5030,44.0,17.0,15.0,0.0,0.0
5031,54.0,17.0,15.0,7.0,0.0
5032,63.0,0.0,180.0,7.0,0.0
5033,51.0,17.0,15.0,0.0,0.0
5034,56.0,17.0,15.0,0.0,0.0
5035,60.0,17.0,15.0,0.0,0.0
5036,66.0,17.0,15.0,0.0,0.0
5037,72.0,17.0,15.0,0.0,0.0
5038,75.0,41.0,15.0,0.0,0.0
5039,87.0,20.0,40.0,0.0,0.0
5040,60.0,0.0,15.0,7.0,0.0
5041,54.0,21.0,15.0,7.0,0.0
5042,51.0,0.0,60.0,7.0,0.0
5043,63.0,0.0,15.0,0.0,0.0
5044,60.0,13.0,15.0,0.0,0.0
5045,66.0,13.0,15.0,0.0,0.0
5046,56.0,0.0,15.0,0.0,0.0
5047,72.0,13.0,15.0,0.0,0.0
5048,51.0,0.0,15.0,0.0,0.0
5049,44.0,0.0,15.0,0.0,0.0
5050,77.0,0.0,15.0,0.0,0.0
5051,65.0,0.0,60.0,7.0,0.0
5052,59.0,0.0,120.0,7.0,0.0
5053,50.0,21.0,60.0,7.0,0.0
5054,32.0,20.0,40.0,0.0,0.0
5055,89.0,0.0,40.0,0.0,0.0
5056,53.0,0.0,60.0,7.0,0.0
5057,62.0,0.0,60.0,7.0,0.0
5058,59.0,13.0,15.0,0.0,0.0
5059,62.0,0.0,15.0,0.0,0.0
5060,53.0,0.0,15.0,0.0,0.0
5061,68.0,13.0,15.0,0.0,0.0
5062,47.0,0.0,15.0,0.0,0.0
5063,74.0,13.0,15.0,0.0,0.0
5064,44.0,0.0,15.0,0.0,0.0
5065,75.0,40.0,15.0,0.0,0.0
5066,44.0,0.0,60.0,11.0,0.0
5067,63.0,60.0,60.0,7.0,0.0
5068,54.0,0.0,60.0,7.0,0.0
5069,87.0,20.0,40.0,0.0,0.0
5070,32.0,0.0,40.0,0.0,0.0
5071,60.0,0.0,60.0,7.0,0.0
5072,54.0,0.0,30.0,7.0,0.0
5073,60.0,0.0,30.0,7.0,0.0
5074,51.0,17.0,30.0,7.0,0.0
5075,54.0,0.0,180.0,7.0,0.0
5076,60.0,21.0,180.0,7.0,0.0
5077,44.0,17.0,15.0,0.0,0.0
5078,63.0,0.0,180.0,7.0,0.0
5079,51.0,17.0,15.0,0.0,0.0
5080,56.0,17.0,15.0,0.0,0.0
5081,60.0,17.0,15.0,0.0,0.0
5082,66.0,17.0,15.0,0.0,0.0
5083,72.0,17.0,15.0,0.0,0.0
5084,75.0,41.0,15.0,0.0,0.0
5085,87.0,20.0,40.0,0.0,0.0
5086,51.0,40.0,60.0,7.0,0.0
5087,54.0,0.0,60.0,7.0,0.0
5088,60.0,0.0,60.0,7.0,0.0
5089,63.0,13.0,15.0,0.0,0.0
5090,60.0,0.0,15.0,0.0,0.0
5091,66.0,13.0,15.0,0.0,0.0
5092,56.0,0.0,15.0,0.0,0.0
5093,51.0,13.0,15.0,0.0,0.0
5094,72.0,0.0,15.0,0.0,0.0
5095,77.0,0.0,15.0,0.0,0.0
5096,44.0,0.0,15.0,0.0,0.0
5097,65.0,21.0,60.0,7.0,0.0
5098,59.0,40.0,120.0,7.0,0.0
5099,32.0,0.0,40.0,0.0,0.0
5100,89.0,20.0,40.0,0.0,0.0
5101,50.0,0.0,60.0,7.0,0.0
5102,53.0,0.0,60.0,7.0,0.0
5103,62.0,0.0,60.0,7.0,0.0
5104,62.0,13.0,15.0,0.0,0.0
5105,59.0,0.0,15.0,0.0,0.0
5106,53.0,13.0,15.0,0.0,0.0
5107,68.0,0.0,15.0,0.0,0.0
5108,47.0,13.0,15.0,0.0,0.0
5109,74.0,0.0,15.0,0.0,0.0
5110,44.0,0.0,15.0,0.0,0.0
5111,75.0,0.0,15.0,0.0,0.0
5112,63.0,21.0,60.0,7.0,0.0
5113,87.0,0.0,40.0,0.0,0.0
5114,32.0,20.0,40.0,0.0,0.0
5115,54.0,0.0,60.0,7.0,0.0
5116,60.0,0.0,60.0,7.0,0.0
5117,44.0,0.0,60.0,11.0,0.0
5118,60.0,0.0,15.0,0.0,0.0
5119,63.0,13.0,15.0,0.0,0.0
5120,66.0,0.0,15.0,0.0,0.0
5121,56.0,13.0,15.0,0.0,0.0
5122,54.0,0.0,30.0,7.0,0.0
5123,60.0,0.0,30.0,7.0,0.0
5124,51.0,40.0,30.0,7.0,0.0
5125,72.0,13.0,15.0,0.0,0.0
5126,51.0,0.0,15.0,0.0,0.0
5127,77.0,0.0,15.0,0.0,0.0
5128,44.0,0.0,15.0,0.0,0.0
5129,89.0,20.0,40.0,0.0,0.0
5130,32.0,0.0,40.0,0.0,0.0
5131,59.0,21.0,60.0,7.0,0.0
5132,65.0,0.0,60.0,7.0,0.0
5133,50.0,0.0,60.0,7.0,0.0
5134,59.0,0.0,15.0,0.0,0.0
5135,62.0,13.0,15.0,0.0,0.0
5136,53.0,0.0,15.0,0.0,0.0
5137,68.0,13.0,15.0,0.0,0.0
5138,59.0,0.0,30.0,7.0,0.0
5139,62.0,0.0,30.0,7.0,0.0
5140,53.0,0.0,30.0,7.0,0.0
5141,74.0,0.0,15.0,0.0,0.0
5142,47.0,13.0,15.0,0.0,0.0
5143,75.0,40.0,15.0,0.0,0.0
5144,44.0,0.0,15.0,0.0,0.0
5145,87.0,0.0,40.0,0.0,0.0
5146,60.0,0.0,60.0,7.0,0.0
5147,32.0,20.0,40.0,0.0,0.0
5148,63.0,0.0,60.0,7.0,0.0
5149,54.0,21.0,60.0,7.0,0.0
5150,59.0,13.0,15.0,0.0,0.0
5151,62.0,0.0,15.0,0.0,0.0
5152,53.0,0.0,15.0,0.0,0.0
5153,68.0,13.0,15.0,0.0,0.0
5154,74.0,0.0,30.0,1.0,0.0
5155,74.0,13.0,15.0,0.0,0.0
5156,47.0,0.0,15.0,0.0,0.0
5157,75.0,40.0,15.0,0.0,0.0
5158,44.0,0.0,15.0,0.0,0.0
5159,32.0,20.0,40.0,0.0,0.0
5160,60.0,0.0,60.0,11.0,0.0
5161,87.0,0.0,40.0,0.0,0.0
5162,63.0,21.0,60.0,11.0,0.0
5163,54.0,0.0,60.0,11.0,0.0
5164,75.0,0.0,60.0,1.0,0.0
5165,64.0,13.0,15.0,0.0,0.0
5166,61.0,0.0,15.0,0.0,0.0
5167,70.0,0.0,15.0,0.0,0.0
5168,55.0,13.0,15.0,0.0,0.0
5169,76.0,40.0,30.0,1.0,0.0
5170,76.0,0.0,15.0,0.0,0.0
5171,49.0,13.0,15.0,0.0,0.0
5172,44.0,0.0,15.0,0.0,0.0
5173,77.0,0.0,15.0,0.0,0.0
5174,77.0,0.0,60.0,1.0,0.0
5175,32.0,20.0,40.0,0.0,0.0
5176,89.0,0.0,40.0,0.0,0.0
5177,44.0,0.0,60.0,11.0,0.0
5178,50.0,0.0,60.0,11.0,0.0
5179,65.0,0.0,60.0,11.0,0.0
5180,59.0,21.0,60.0,11.0,0.0
5181,59.0,0.0,15.0,0.0,0.0
5182,62.0,13.0,15.0,0.0,0.0
5183,68.0,13.0,15.0,0.0,0.0
5184,53.0,0.0,15.0,0.0,0.0
5185,74.0,0.0,30.0,1.0,0.0
5186,47.0,13.0,15.0,0.0,0.0
5187,74.0,0.0,15.0,0.0,0.0
5188,44.0,40.0,15.0,0.0,0.0
5189,75.0,0.0,15.0,0.0,0.0
5190,63.0,21.0,60.0,11.0,0.0
5191,32.0,20.0,40.0,0.0,0.0
5192,54.0,0.0,60.0,11.0,0.0
5193,75.0,0.0,60.0,1.0,0.0
5194,60.0,0.0,60.0,11.0,0.0
5195,87.0,0.0,40.0,0.0,0.0
5196,64.0,0.0,15.0,0.0,0.0
5197,61.0,13.0,15.0,0.0,0.0
5198,55.0,13.0,15.0,0.0,0.0
5199,70.0,0.0,15.0,0.0,0.0
5200,76.0,0.0,30.0,1.0,0.0
5201,76.0,13.0,15.0,0.0,0.0
5202,49.0,0.0,15.0,0.0,0.0
5203,77.0,40.0,15.0,0.0,0.0
5204,44.0,0.0,15.0,0.0,0.0
5205,59.0,0.0,60.0,11.0,0.0
5206,65.0,0.0,60.0,11.0,0.0
5207,77.0,21.0,60.0,1.0,0.0
5208,32.0,0.0,40.0,0.0,0.0
5209,89.0,20.0,40.0,0.0,0.0
5210,50.0,0.0,60.0,11.0,0.0
5211,61.0,13.0,15.0,0.0,0.0
5212,64.0,0.0,15.0,0.0,0.0
5213,55.0,13.0,15.0,0.0,0.0
5214,70.0,0.0,15.0,0.0,0.0
5215,76.0,0.0,30.0,1.0,0.0
5216,49.0,0.0,15.0,0.0,0.0
5217,76.0,13.0,15.0,0.0,0.0
5218,77.0,40.0,15.0,0.0,0.0
5219,44.0,0.0,15.0,0.0,0.0
5220,50.0,0.0,60.0,11.0,0.0
5221,77.0,21.0,60.0,1.0,0.0
5222,32.0,20.0,40.0,0.0,0.0
5223,89.0,0.0,40.0,0.0,0.0
5224,65.0,0.0,60.0,11.0,0.0
5225,59.0,0.0,60.0,11.0,0.0
5226,62.0,13.0,15.0,0.0,0.0
5227,65.0,0.0,15.0,0.0,0.0
5228,71.0,0.0,15.0,0.0,0.0
5229,56.0,13.0,15.0,0.0,0.0
5230,77.0,0.0,30.0,1.0,0.0
5231,77.0,13.0,15.0,0.0,0.0
5232,50.0,0.0,15.0,0.0,0.0
5233,78.0,0.0,15.0,0.0,0.0
5234,44.0,40.0,15.0,0.0,0.0
5235,60.0,0.0,60.0,11.0,0.0
5236,66.0,21.0,60.0,11.0,0.0
5237,51.0,0.0,60.0,11.0,0.0
5238,44.0,0.0,60.0,11.0,0.0
5239,32.0,20.0,40.0,0.0,0.0
5240,78.0,0.0,60.0,1.0,0.0
5241,90.0,0.0,40.0,0.0,0.0
5242,65.0,13.0,15.0,0.0,0.0
5243,62.0,0.0,15.0,0.0,0.0
5244,56.0,0.0,15.0,0.0,0.0
5245,71.0,13.0,15.0,0.0,0.0
5246,77.0,40.0,30.0,1.0,0.0
5247,77.0,13.0,15.0,0.0,0.0
5248,50.0,0.0,15.0,0.0,0.0
5249,78.0,0.0,15.0,0.0,0.0
5250,44.0,0.0,15.0,0.0,0.0
5251,66.0,0.0,60.0,11.0,0.0
5252,51.0,21.0,60.0,11.0,0.0
5253,60.0,0.0,60.0,11.0,0.0
5254,32.0,20.0,40.0,0.0,0.0
5255,90.0,0.0,40.0,0.0,0.0
5256,78.0,0.0,60.0,1.0,0.0
5257,63.0,13.0,15.0,0.0,0.0
5258,66.0,0.0,15.0,0.0,0.0
5259,56.0,13.0,15.0,0.0,0.0
5260,72.0,0.0,15.0,0.0,0.0
5261,78.0,40.0,30.0,1.0,0.0
5262,78.0,13.0,15.0,0.0,0.0
5263,51.0,0.0,15.0,0.0,0.0
5264,79.0,0.0,15.0,0.0,0.0
5265,44.0,0.0,15.0,0.0,0.0
5266,61.0,0.0,60.0,11.0,0.0
5267,52.0,21.0,60.0,11.0,0.0
5268,67.0,0.0,60.0,11.0,0.0
5269,32.0,20.0,40.0,0.0,0.0
5270,91.0,0.0,40.0,0.0,0.0
5271,79.0,0.0,60.0,1.0,0.0
5272,64.0,0.0,15.0,0.0,0.0
5273,67.0,13.0,15.0,0.0,0.0
5274,73.0,0.0,15.0,0.0,0.0
5275,58.0,13.0,15.0,0.0,0.0
5276,79.0,40.0,30.0,1.0,0.0
5277,79.0,0.0,15.0,0.0,0.0
5278,52.0,13.0,15.0,0.0,0.0
5279,44.0,0.0,15.0,0.0,0.0
5280,82.0,0.0,15.0,0.0,0.0
5281,55.0,0.0,60.0,11.0,0.0
5282,70.0,0.0,60.0,11.0,0.0
5283,32.0,20.0,40.0,0.0,0.0
5284,64.0,21.0,60.0,11.0,0.0
5285,82.0,0.0,60.0,1.0,0.0
5286,94.0,0.0,40.0,0.0,0.0
5287,61.0,13.0,15.0,0.0,0.0
5288,70.0,0.0,15.0,0.0,0.0
5289,76.0,13.0,15.0,0.0,0.0
5290,55.0,0.0,15.0,0.0,0.0
5291,82.0,0.0,30.0,1.0,0.0
5292,82.0,13.0,15.0,0.0,0.0
5293,49.0,0.0,15.0,0.0,0.0
5294,85.0,85.0,120.0,0.0,0.0
5295,44.0,40.0,15.0,0.0,0.0
5296,64.0,0.0,60.0,11.0,0.0
5297,85.0,20.0,60.0,1.0,0.0
5298,32.0,20.0,40.0,0.0,0.0
5299,97.0,0.0,120.0,0.0,0.0
5300,58.0,0.0,240.0,6.0,0.0
5301,44.0,0.0,60.0,11.0,0.0
5302,55.0,0.0,60.0,11.0,0.0
5303,32.0,0.0,60.0,11.0,0.0
5304,73.0,0.0,60.0,11.0,0.0
5305,55.0,5.0,240.0,6.0,0.0
5306,43.0,40.0,40.0,0.0,0.0
5307,46.0,0.0,40.0,0.0,0.0
5308,64.0,0.0,120.0,0.0,0.0
5309,52.0,0.0,120.0,0.0,0.0
5310,49.0,35.0,40.0,0.0,0.0
5311,43.0,80.0,40.0,0.0,0.0
5312,51.0,0.0,120.0,0.0,0.0
5313,63.0,5.0,120.0,0.0,0.0
5314,60.0,0.0,120.0,6.0,0.0
5315,32.0,35.0,40.0,0.0,0.0
5316,48.0,80.0,40.0,0.0,0.0
5317,56.0,0.0,120.0,6.0,0.0
5318,96.0,5.0,120.0,0.0,0.0
5319,84.0,0.0,120.0,0.0,0.0
5320,51.0,35.0,40.0,0.0,0.0
5321,44.0,75.0,40.0,0.0,0.0
5322,83.0,0.0,120.0,0.0,0.0
5323,95.0,80.0,120.0,0.0,0.0
5324,53.0,0.0,240.0,6.0,0.0
5325,29.0,40.0,40.0,0.0,0.0
5326,44.0,0.0,40.0,0.0,0.0
5327,50.0,0.0,120.0,0.0,0.0
5328,62.0,80.0,120.0,0.0,0.0
5329,47.0,40.0,40.0,0.0,0.0
5330,41.0,0.0,40.0,0.0,0.0
5331,58.0,80.0,120.0,6.0,0.0
5332,49.0,0.0,120.0,0.0,0.0
5333,61.0,0.0,120.0,0.0,0.0
5334,30.0,40.0,40.0,0.0,0.0
5335,46.0,0.0,40.0,0.0,0.0
5336,94.0,0.0,120.0,0.0,0.0
5337,82.0,0.0,120.0,0.0,0.0
5338,54.0,0.0,120.0,6.0,0.0
5339,49.0,40.0,40.0,0.0,0.0
5340,42.0,0.0,40.0,0.0,0.0
5341,81.0,0.0,120.0,0.0,0.0
5342,93.0,0.0,120.0,0.0,0.0
5343,57.0,0.0,480.0,6.0,0.0
5344,49.0,0.0,240.0,6.0,0.0
5345,64.0,0.0,240.0,4.0,0.0
5346,25.0,40.0,40.0,0.0,0.0
5347,40.0,80.0,40.0,0.0,0.0
5348,55.0,80.0,120.0,0.0,0.0
5349,67.0,0.0,120.0,0.0,0.0
5350,52.0,40.0,40.0,0.0,0.0
5351,45.0,0.0,40.0,0.0,0.0
5352,66.0,80.0,240.0,4.0,0.0
5353,81.0,80.0,120.0,0.0,0.0
5354,93.0,0.0,120.0,0.0,0.0
5355,50.0,0.0,240.0,6.0,0.0
5356,26.0,40.0,40.0,0.0,0.0
5357,42.0,0.0,40.0,0.0,0.0
5358,54.0,0.0,120.0,0.0,0.0
5359,66.0,0.0,120.0,0.0,0.0
5360,50.0,40.0,40.0,0.0,0.0
5361,45.0,0.0,40.0,0.0,0.0
5362,48.0,80.0,240.0,6.0,0.0
5363,56.0,0.0,480.0,6.0,0.0
5364,92.0,0.0,120.0,0.0,0.0
5365,80.0,80.0,120.0,0.0,0.0
5366,63.0,0.0,240.0,4.0,0.0
5367,24.0,40.0,40.0,0.0,0.0
5368,39.0,0.0,40.0,0.0,0.0
5369,54.0,0.0,120.0,0.0,0.0
5370,66.0,0.0,120.0,0.0,0.0
5371,51.0,40.0,40.0,0.0,0.0
5372,44.0,0.0,40.0,0.0,0.0
5373,49.0,0.0,240.0,6.0,0.0
5374,92.0,80.0,120.0,0.0,0.0
5375,80.0,0.0,120.0,0.0,0.0
5376,65.0,0.0,240.0,4.0,0.0
5377,25.0,40.0,40.0,0.0,0.0
5378,41.0,0.0,40.0,0.0,0.0
5379,53.0,0.0,120.0,0.0,0.0
5380,65.0,0.0,120.0,0.0,0.0
5381,49.0,40.0,40.0,0.0,0.0
5382,44.0,40.0,40.0,0.0,0.0
5383,31.0,0.0,60.0,5.0,0.0
5384,43.0,20.0,60.0,3.0,0.0
5385,64.0,0.0,60.0,7.0,0.0
5386,58.0,0.0,60.0,7.0,0.0
5387,61.0,0.0,120.0,12.0,0.0
5388,61.0,0.0,60.0,7.0,0.0
5389,31.0,20.0,40.0,0.0,0.0
5390,73.0,40.0,120.0,4.0,0.0
5391,85.0,0.0,120.0,1.0,0.0
5392,49.0,40.0,40.0,0.0,0.0
5393,57.0,0.0,40.0,0.0,0.0
5394,52.0,0.0,40.0,0.0,0.0
5395,58.0,0.0,40.0,0.0,0.0
5396,64.0,0.0,120.0,1.0,0.0
5397,69.0,40.0,40.0,0.0,0.0
5398,64.0,0.0,40.0,0.0,0.0
5399,61.0,0.0,40.0,0.0,0.0
5400,52.0,40.0,120.0,4.0,0.0
5401,70.0,40.0,40.0,0.0,0.0
5402,76.0,0.0,40.0,0.0,0.0
5403,73.0,0.0,40.0,0.0,0.0
5404,81.0,0.0,40.0,0.0,0.0
5405,60.0,0.0,60.0,7.0,0.0
5406,82.0,0.0,40.0,0.0,0.0
5407,32.0,20.0,40.0,0.0,0.0
5408,32.0,0.0,60.0,5.0,0.0
5409,63.0,20.0,60.0,7.0,0.0
5410,63.0,40.0,120.0,1.0,0.0
5411,44.0,0.0,60.0,3.0,0.0
5412,51.0,0.0,120.0,4.0,0.0
5413,51.0,0.0,60.0,7.0,0.0
5414,72.0,0.0,40.0,0.0,0.0
5415,75.0,40.0,40.0,0.0,0.0
5416,79.0,0.0,40.0,0.0,0.0
5417,80.0,0.0,40.0,0.0,0.0
5418,60.0,40.0,40.0,0.0,0.0
5419,72.0,0.0,120.0,4.0,0.0
5420,84.0,40.0,120.0,1.0,0.0
5421,63.0,0.0,40.0,0.0,0.0
5422,67.0,0.0,40.0,0.0,0.0
5423,60.0,0.0,120.0,12.0,0.0
5424,68.0,40.0,40.0,0.0,0.0
5425,54.0,0.0,90.0,0.0,0.0
5426,51.0,0.0,90.0,0.0,0.0
5427,48.0,0.0,90.0,0.0,0.0
5428,66.0,0.0,60.0,7.0,0.0
5429,63.0,0.0,120.0,12.0,0.0
5430,45.0,0.0,60.0,3.0,0.0
5431,75.0,0.0,120.0,4.0,0.0
5432,63.0,25.0,60.0,7.0,0.0
5433,33.0,20.0,40.0,0.0,0.0
5434,33.0,0.0,60.0,5.0,0.0
5435,60.0,0.0,60.0,7.0,0.0
5436,87.0,5.0,120.0,1.0,0.0
5437,54.0,0.0,40.0,0.0,0.0
5438,59.0,0.0,40.0,0.0,0.0
5439,51.0,35.0,40.0,0.0,0.0
5440,60.0,35.0,40.0,0.0,0.0
5441,66.0,0.0,120.0,1.0,0.0
5442,63.0,40.0,40.0,0.0,0.0
5443,66.0,0.0,40.0,0.0,0.0
5444,54.0,0.0,120.0,4.0,0.0
5445,71.0,0.0,40.0,0.0,0.0
5446,72.0,40.0,40.0,0.0,0.0
5447,78.0,0.0,40.0,0.0,0.0
5448,83.0,0.0,40.0,0.0,0.0
5449,75.0,40.0,40.0,0.0,0.0
5450,46.0,0.0,60.0,3.0,0.0
5451,61.0,0.0,60.0,7.0,0.0
5452,34.0,20.0,60.0,5.0,0.0
5453,53.0,45.0,120.0,4.0,0.0
5454,65.0,0.0,120.0,1.0,0.0
5455,65.0,0.0,60.0,7.0,0.0
5456,34.0,20.0,40.0,0.0,0.0
5457,84.0,0.0,40.0,0.0,0.0
5458,53.0,0.0,60.0,7.0,0.0
5459,73.0,40.0,40.0,0.0,0.0
5460,81.0,0.0,40.0,0.0,0.0
5461,77.0,0.0,40.0,0.0,0.0
5462,82.0,0.0,40.0,0.0,0.0
5463,61.0,0.0,40.0,0.0,0.0
5464,85.0,0.0,120.0,1.0,0.0
5465,73.0,0.0,120.0,4.0,0.0
5466,69.0,40.0,40.0,0.0,0.0
5467,65.0,0.0,40.0,0.0,0.0
5468,70.0,35.0,40.0,0.0,0.0
5469,53.0,55.0,40.0,0.0,0.0
5470,49.0,0.0,40.0,0.0,0.0
5471,42.0,60.0,480.0,8.0,0.0
5472,61.0,5.0,15.0,12.0,0.0
5473,54.0,0.0,480.0,8.0,0.0
5474,22.0,20.0,60.0,0.0,0.0
5475,90.0,40.0,40.0,0.0,0.0
5476,34.0,40.0,60.0,0.0,0.0
5477,78.0,0.0,40.0,0.0,0.0
5478,76.0,20.0,40.0,0.0,0.0
5479,37.0,20.0,60.0,0.0,0.0
5480,64.0,40.0,40.0,0.0,0.0
5481,42.0,0.0,60.0,0.0,0.0
5482,52.0,60.0,40.0,0.0,0.0
5483,63.0,0.0,480.0,12.0,0.0
5484,23.0,20.0,60.0,0.0,0.0
5485,90.0,40.0,40.0,0.0,0.0
5486,35.0,0.0,60.0,0.0,0.0
5487,78.0,40.0,40.0,0.0,0.0
5488,42.0,20.0,60.0,0.0,0.0
5489,75.0,20.0,40.0,0.0,0.0
5490,63.0,40.0,40.0,0.0,0.0
5491,47.0,0.0,60.0,0.0,0.0
5492,51.0,0.0,40.0,0.0,0.0
5493,44.0,0.0,300.0,12.0,0.0
5494,24.0,20.0,60.0,0.0,0.0
5495,56.0,0.0,360.0,8.0,0.0
5496,92.0,40.0,40.0,0.0,0.0
5497,36.0,40.0,60.0,0.0,0.0
5498,80.0,0.0,40.0,0.0,0.0
5499,78.0,20.0,40.0,0.0,0.0
5500,39.0,20.0,60.0,0.0,0.0
5501,66.0,40.0,40.0,0.0,0.0
5502,44.0,60.0,60.0,0.0,0.0
5503,54.0,0.0,40.0,0.0,0.0
5504,65.0,0.0,60.0,12.0,0.0
5505,25.0,20.0,60.0,0.0,0.0
5506,92.0,40.0,40.0,0.0,0.0
5507,37.0,40.0,60.0,0.0,0.0
5508,49.0,20.0,120.0,12.0,0.0
5509,80.0,0.0,40.0,0.0,0.0
5510,73.0,0.0,120.0,7.0,0.0
5511,49.0,0.0,240.0,3.0,0.0
5512,77.0,20.0,40.0,0.0,0.0
5513,44.0,0.0,60.0,0.0,0.0
5514,37.0,40.0,240.0,5.0,0.0
5515,80.0,0.0,120.0,7.0,0.0
5516,53.0,60.0,120.0,7.0,0.0
5517,65.0,40.0,40.0,0.0,0.0
5518,61.0,0.0,15.0,12.0,0.0
5519,49.0,0.0,120.0,12.0,0.0
5520,65.0,0.0,120.0,7.0,0.0
5521,49.0,0.0,15.0,0.0,0.0
5522,53.0,0.0,15.0,0.0,0.0
5523,59.0,0.0,120.0,0.0,0.0
5524,71.0,0.0,120.0,7.0,0.0
5525,81.0,0.0,120.0,7.0,0.0
5526,99.0,40.0,40.0,0.0,0.0
5527,61.0,20.0,15.0,12.0,0.0
5528,49.0,0.0,120.0,12.0,0.0
5529,87.0,0.0,40.0,0.0,0.0
5530,82.0,0.0,240.0,7.0,0.0
5531,66.0,0.0,240.0,7.0,0.0
5532,58.0,0.0,240.0,0.0,0.0
5533,85.0,20.0,40.0,0.0,0.0
5534,70.0,0.0,240.0,7.0,0.0
5535,73.0,40.0,40.0,0.0,0.0
5536,61.0,60.0,40.0,0.0,0.0
5537,99.0,40.0,40.0,0.0,0.0
5538,61.0,0.0,15.0,12.0,0.0
5539,49.0,20.0,15.0,12.0,0.0
5540,87.0,0.0,40.0,0.0,0.0
5541,85.0,20.0,40.0,0.0,0.0
5542,49.0,60.0,120.0,0.0,0.0
5543,56.0,0.0,120.0,0.0,0.0
5544,61.0,0.0,120.0,7.0,0.0
5545,65.0,0.0,240.0,7.0,0.0
5546,68.0,0.0,120.0,7.0,0.0
5547,37.0,0.0,15.0,5.0,0.0
5548,53.0,0.0,15.0,0.0,0.0
5549,49.0,40.0,15.0,3.0,0.0
5550,73.0,40.0,40.0,0.0,0.0
5551,61.0,20.0,15.0,12.0,0.0
5552,61.0,0.0,40.0,0.0,0.0
5553,59.0,0.0,120.0,7.0,0.0
5554,37.0,0.0,240.0,0.0,0.0
5555,69.0,0.0,120.0,7.0,0.0
5556,47.0,40.0,120.0,0.0,0.0
5557,87.0,40.0,40.0,0.0,0.0
5558,49.0,20.0,15.0,12.0,0.0
5559,61.0,0.0,15.0,12.0,0.0
5560,75.0,0.0,40.0,0.0,0.0
5561,58.0,0.0,240.0,7.0,0.0
5562,70.0,0.0,240.0,7.0,0.0
5563,37.0,0.0,240.0,5.0,0.0
5564,49.0,0.0,15.0,3.0,0.0
5565,73.0,20.0,40.0,0.0,0.0
5566,46.0,0.0,240.0,0.0,0.0
5567,61.0,40.0,40.0,0.0,0.0
5568,49.0,0.0,120.0,12.0,0.0
5569,61.0,20.0,15.0,12.0,0.0
5570,49.0,60.0,40.0,0.0,0.0
5571,42.0,120.0,120.0,0.0,0.0
5572,49.0,0.0,60.0,12.0,0.0
5573,61.0,0.0,60.0,12.0,0.0
5574,66.0,0.0,15.0,7.0,0.0
5575,63.0,0.0,240.0,7.0,0.0
5576,47.0,120.0,120.0,7.0,0.0
5577,25.0,0.0,240.0,5.0,0.0
5578,48.0,0.0,120.0,7.0,0.0
5579,56.0,120.0,240.0,7.0,0.0
5580,65.0,0.0,240.0,7.0,0.0
5581,37.0,240.0,15.0,3.0,0.0
5582,25.0,0.0,240.0,5.0,0.0
5583,49.0,0.0,240.0,7.0,0.0
5584,54.0,0.0,240.0,7.0,0.0
5585,35.0,0.0,120.0,5.0,0.0
5586,35.0,120.0,120.0,3.0,0.0
5587,51.0,0.0,120.0,7.0,0.0
5588,42.0,0.0,120.0,6.0,0.0
5589,45.0,0.0,120.0,6.0,0.0
5590,24.0,0.0,120.0,5.0,0.0
5591,36.0,0.0,120.0,3.0,0.0
5592,45.0,0.0,120.0,7.0,0.0
5593,37.0,0.0,240.0,3.0,0.0
5594,25.0,0.0,240.0,5.0,0.0
5595,44.0,0.0,240.0,7.0,0.0
5596,44.0,0.0,240.0,6.0,0.0
5597,53.0,0.0,240.0,7.0,0.0
5598,66.0,0.0,240.0,7.0,0.0
5599,57.0,0.0,240.0,6.0,0.0
5600,26.0,0.0,120.0,5.0,0.0
5601,69.0,240.0,240.0,7.0,0.0
5602,45.0,120.0,120.0,7.0,0.0
5603,54.0,0.0,240.0,6.0,0.0
5604,38.0,0.0,120.0,3.0,0.0
5605,39.0,0.0,120.0,3.0,0.0
5606,27.0,0.0,120.0,5.0,0.0
5607,48.0,0.0,120.0,7.0,0.0
5608,30.0,0.0,240.0,5.0,0.0
5609,44.0,0.0,240.0,7.0,0.0
5610,51.0,120.0,240.0,7.0,0.0
5611,42.0,0.0,240.0,3.0,0.0
5612,63.0,0.0,240.0,7.0,0.0
5613,51.0,0.0,240.0,6.0,0.0
5614,56.0,0.0,240.0,6.0,0.0
5615,68.0,0.0,240.0,7.0,0.0
5616,56.0,0.0,120.0,0.0,0.0
5617,68.0,0.0,120.0,7.0,0.0
5618,61.0,0.0,120.0,0.0,0.0
5619,73.0,0.0,120.0,0.0,0.0
5620,52.0,0.0,120.0,0.0,0.0
5621,61.0,40.0,120.0,7.0,0.0
5622,80.0,0.0,120.0,0.0,0.0
5623,56.0,0.0,120.0,6.0,0.0
5624,28.0,0.0,120.0,5.0,0.0
5625,49.0,0.0,120.0,7.0,0.0
5626,49.0,0.0,120.0,6.0,0.0
5627,40.0,0.0,120.0,3.0,0.0
5628,78.0,0.0,150.0,0.0,0.0
5629,81.0,0.0,150.0,0.0,0.0
5630,85.0,0.0,15.0,0.0,0.0
5631,27.0,40.0,40.0,0.0,0.0
5632,73.0,40.0,150.0,0.0,0.0
5633,39.0,80.0,40.0,0.0,0.0
5634,42.0,0.0,150.0,0.0,0.0
5635,66.0,0.0,40.0,0.0,0.0
5636,54.0,40.0,120.0,0.0,0.0
5637,72.0,40.0,40.0,0.0,0.0
5638,78.0,0.0,15.0,0.0,0.0
5639,90.0,0.0,40.0,0.0,0.0
5640,84.0,0.0,15.0,0.0,0.0
5641,20.0,0.0,40.0,0.0,0.0
5642,32.0,0.0,40.0,0.0,0.0
5643,75.0,0.0,40.0,0.0,0.0
5644,48.0,40.0,40.0,0.0,0.0
5645,60.0,40.0,40.0,0.0,0.0
5646,87.0,0.0,40.0,0.0,0.0
5647,78.0,0.0,40.0,0.0,0.0
5648,33.0,40.0,40.0,0.0,0.0
5649,45.0,0.0,40.0,0.0,0.0
5650,84.0,0.0,40.0,0.0,0.0
5651,72.0,0.0,40.0,0.0,0.0
5652,78.0,0.0,40.0,0.0,0.0
5653,49.0,40.0,40.0,0.0,0.0
5654,76.0,0.0,40.0,0.0,0.0
5655,61.0,40.0,40.0,0.0,0.0
5656,85.0,0.0,40.0,0.0,0.0
5657,88.0,0.0,40.0,0.0,0.0
5658,27.0,40.0,40.0,0.0,0.0
5659,85.0,0.0,150.0,0.0,0.0
5660,81.0,0.0,150.0,0.0,0.0
5661,73.0,40.0,150.0,0.0,0.0
5662,78.0,0.0,150.0,0.0,0.0
5663,39.0,80.0,40.0,0.0,0.0
5664,42.0,0.0,150.0,0.0,0.0
5665,66.0,0.0,40.0,0.0,0.0
5666,54.0,5.0,120.0,0.0,0.0
5667,72.0,40.0,40.0,0.0,0.0
5668,84.0,0.0,40.0,0.0,0.0
5669,81.0,40.0,40.0,0.0,0.0
5670,28.0,40.0,40.0,0.0,0.0
5671,83.0,45.0,150.0,0.0,0.0
5672,80.0,0.0,150.0,0.0,0.0
5673,71.0,0.0,150.0,0.0,0.0
5674,40.0,75.0,40.0,0.0,0.0
5675,44.0,5.0,150.0,0.0,0.0
5676,56.0,0.0,120.0,0.0,0.0
5677,64.0,35.0,40.0,0.0,0.0
5678,71.0,0.0,40.0,0.0,0.0
5679,69.0,40.0,150.0,0.0,0.0
5680,76.0,40.0,15.0,0.0,0.0
5681,81.0,0.0,150.0,0.0,0.0
5682,25.0,35.0,40.0,0.0,0.0
5683,37.0,80.0,40.0,0.0,0.0
5684,40.0,0.0,150.0,0.0,0.0
5685,52.0,0.0,120.0,0.0,0.0
5686,68.0,40.0,40.0,0.0,0.0
5687,68.0,0.0,150.0,0.0,0.0
5688,80.0,0.0,15.0,0.0,0.0
5689,76.0,45.0,15.0,0.0,0.0
5690,26.0,40.0,40.0,0.0,0.0
5691,38.0,75.0,40.0,0.0,0.0
5692,45.0,0.0,150.0,0.0,0.0
5693,57.0,5.0,120.0,0.0,0.0
5694,66.0,35.0,40.0,0.0,0.0
5695,78.0,0.0,40.0,0.0,0.0
5696,74.0,40.0,40.0,0.0,0.0
5697,69.0,40.0,150.0,0.0,0.0
5698,76.0,0.0,150.0,0.0,0.0
5699,81.0,0.0,150.0,0.0,0.0
5700,25.0,35.0,40.0,0.0,0.0
5701,37.0,80.0,40.0,0.0,0.0
5702,40.0,0.0,150.0,0.0,0.0
5703,52.0,40.0,120.0,0.0,0.0
5704,68.0,40.0,40.0,0.0,0.0
5705,76.0,0.0,40.0,0.0,0.0
5706,80.0,0.0,40.0,0.0,0.0
5707,67.0,40.0,40.0,0.0,0.0
5708,27.0,0.0,40.0,0.0,0.0
5709,75.0,0.0,40.0,0.0,0.0
5710,39.0,0.0,40.0,0.0,0.0
5711,79.0,40.0,40.0,0.0,0.0
5712,70.0,40.0,40.0,0.0,0.0
5713,43.0,0.0,150.0,0.0,0.0
5714,82.0,0.0,40.0,0.0,0.0
5715,55.0,0.0,120.0,0.0,0.0
5716,75.0,40.0,40.0,0.0,0.0
5717,73.0,40.0,40.0,0.0,0.0
5718,85.0,0.0,40.0,0.0,0.0
5719,82.0,40.0,40.0,0.0,0.0
5720,81.0,0.0,150.0,0.0,0.0
5721,73.0,0.0,150.0,0.0,0.0
5722,78.0,0.0,150.0,0.0,0.0
5723,85.0,45.0,150.0,0.0,0.0
5724,39.0,40.0,40.0,0.0,0.0
5725,51.0,80.0,40.0,0.0,0.0
5726,54.0,0.0,150.0,0.0,0.0
5727,66.0,5.0,120.0,0.0,0.0
5728,72.0,35.0,40.0,0.0,0.0
5729,32.0,0.0,40.0,0.0,0.0
5730,90.0,0.0,40.0,0.0,0.0
5731,84.0,0.0,15.0,0.0,0.0
5732,78.0,35.0,15.0,0.0,0.0
5733,44.0,0.0,40.0,0.0,0.0
5734,48.0,40.0,40.0,0.0,0.0
5735,75.0,0.0,40.0,0.0,0.0
5736,60.0,0.0,40.0,0.0,0.0
5737,87.0,40.0,40.0,0.0,0.0
5738,72.0,0.0,40.0,0.0,0.0
5739,78.0,0.0,15.0,0.0,0.0
5740,84.0,0.0,40.0,0.0,0.0
5741,33.0,0.0,40.0,0.0,0.0
5742,45.0,40.0,40.0,0.0,0.0
5743,49.0,40.0,40.0,0.0,0.0
5744,76.0,0.0,40.0,0.0,0.0
5745,61.0,0.0,40.0,0.0,0.0
5746,85.0,40.0,40.0,0.0,0.0
5747,88.0,0.0,15.0,0.0,0.0
5748,30.0,40.0,40.0,0.0,0.0
5749,84.0,0.0,150.0,0.0,0.0
5750,76.0,0.0,150.0,0.0,0.0
5751,81.0,40.0,150.0,0.0,0.0
5752,42.0,80.0,40.0,0.0,0.0
5753,48.0,0.0,150.0,0.0,0.0
5754,60.0,0.0,120.0,0.0,0.0
5755,75.0,40.0,40.0,0.0,0.0
5756,81.0,40.0,15.0,0.0,0.0
5757,87.0,0.0,15.0,0.0,0.0
5758,35.0,35.0,40.0,0.0,0.0
5759,93.0,0.0,40.0,0.0,0.0
5760,23.0,5.0,40.0,0.0,0.0
5761,59.0,5.0,40.0,0.0,0.0
5762,54.0,35.0,40.0,0.0,0.0
5763,75.0,0.0,40.0,0.0,0.0
5764,47.0,35.0,40.0,0.0,0.0
5765,81.0,5.0,40.0,0.0,0.0
5766,80.0,0.0,40.0,0.0,0.0
5767,87.0,0.0,15.0,0.0,0.0
5768,92.0,0.0,40.0,0.0,0.0
5769,40.0,0.0,40.0,0.0,0.0
5770,28.0,40.0,40.0,0.0,0.0
5771,52.0,0.0,40.0,0.0,0.0
5772,59.0,40.0,40.0,0.0,0.0
5773,75.0,0.0,40.0,0.0,0.0
5774,47.0,0.0,40.0,0.0,0.0
5775,80.0,0.0,15.0,0.0,0.0
5776,87.0,40.0,15.0,0.0,0.0
5777,92.0,0.0,40.0,0.0,0.0
5778,33.0,0.0,40.0,0.0,0.0
5779,45.0,0.0,40.0,0.0,0.0
5780,73.0,40.0,40.0,0.0,0.0
5781,57.0,0.0,40.0,0.0,0.0
5782,52.0,0.0,40.0,0.0,0.0
5783,45.0,0.0,40.0,0.0,0.0
5784,80.0,0.0,40.0,0.0,0.0
5785,85.0,40.0,40.0,0.0,0.0
5786,90.0,0.0,40.0,0.0,0.0
5787,39.0,0.0,60.0,0.0,0.0
5788,85.0,20.0,40.0,0.0,0.0
5789,78.0,0.0,40.0,0.0,0.0
5790,72.0,40.0,40.0,0.0,0.0
5791,51.0,20.0,15.0,0.0,0.0
5792,44.0,0.0,60.0,0.0,0.0
5793,56.0,0.0,40.0,0.0,0.0
5794,84.0,0.0,40.0,0.0,0.0
5795,78.0,40.0,40.0,0.0,0.0
5796,57.0,0.0,90.0,0.0,0.0
5797,49.0,0.0,90.0,0.0,0.0
5798,76.0,0.0,40.0,0.0,0.0
5799,88.0,40.0,40.0,0.0,0.0
5800,52.0,40.0,90.0,0.0,0.0
5801,61.0,0.0,90.0,0.0,0.0
5802,81.0,0.0,40.0,0.0,0.0
5803,85.0,0.0,40.0,0.0,0.0
5804,73.0,0.0,40.0,0.0,0.0
5805,57.0,0.0,40.0,0.0,0.0
5806,81.0,0.0,40.0,0.0,0.0
5807,69.0,40.0,40.0,0.0,0.0
5808,45.0,0.0,40.0,0.0,0.0
5809,40.0,0.0,40.0,0.0,0.0
5810,52.0,0.0,40.0,0.0,0.0
5811,64.0,0.0,40.0,0.0,0.0
5812,76.0,40.0,40.0,0.0,0.0
5813,73.0,0.0,40.0,0.0,0.0
5814,61.0,40.0,40.0,0.0,0.0
5815,49.0,0.0,40.0,0.0,0.0
5816,37.0,0.0,40.0,0.0,0.0
5817,33.0,0.0,40.0,0.0,0.0
5818,45.0,0.0,40.0,0.0,0.0
5819,57.0,120.0,40.0,0.0,0.0
5820,69.0,0.0,40.0,0.0,0.0
5821,52.0,120.0,120.0,0.0,0.0
5822,40.0,0.0,120.0,0.0,0.0
5823,28.0,0.0,120.0,0.0,0.0
5824,54.0,0.0,120.0,0.0,0.0
5825,49.0,0.0,15.0,0.0,0.0
5826,42.0,120.0,120.0,0.0,0.0
5827,30.0,0.0,120.0,0.0,0.0
5828,49.0,0.0,15.0,0.0,0.0
5829,51.0,0.0,15.0,0.0,0.0
5830,44.0,0.0,240.0,0.0,0.0
5831,39.0,0.0,15.0,0.0,0.0
5832,32.0,0.0,240.0,0.0,0.0
5833,37.0,0.0,15.0,0.0,0.0
5834,56.0,0.0,240.0,0.0,0.0
5835,48.0,123.0,120.0,0.0,0.0
5836,36.0,0.0,120.0,0.0,0.0
5837,32.0,9.0,15.0,0.0,0.0
5838,44.0,0.0,15.0,0.0,0.0
5839,36.0,0.0,15.0,0.0,0.0
5840,48.0,9.0,15.0,0.0,0.0
5841,51.0,0.0,15.0,0.0,0.0
5842,39.0,9.0,15.0,0.0,0.0
5843,41.0,9.0,15.0,0.0,0.0
5844,53.0,0.0,15.0,0.0,0.0
5845,42.0,9.0,15.0,0.0,0.0
5846,54.0,0.0,15.0,0.0,0.0
5847,56.0,0.0,15.0,0.0,0.0
5848,44.0,9.0,15.0,0.0,0.0
5849,48.0,9.0,15.0,0.0,0.0
5850,60.0,0.0,15.0,0.0,0.0
5851,54.0,0.0,15.0,0.0,0.0
5852,51.0,0.0,15.0,0.0,0.0
5853,63.0,9.0,15.0,0.0,0.0
5854,65.0,0.0,15.0,0.0,0.0
5855,53.0,9.0,15.0,0.0,0.0
5856,54.0,0.0,15.0,0.0,0.0
5857,66.0,9.0,15.0,0.0,0.0
5858,68.0,0.0,15.0,0.0,0.0
5859,56.0,9.0,15.0,0.0,0.0
5860,60.0,0.0,15.0,0.0,0.0
5861,72.0,9.0,15.0,0.0,0.0
5862,75.0,0.0,15.0,0.0,0.0
5863,63.0,9.0,15.0,0.0,0.0
5864,77.0,0.0,15.0,0.0,0.0
5865,65.0,60.0,15.0,0.0,0.0
5866,66.0,60.0,60.0,0.0,0.0
5867,78.0,0.0,60.0,0.0,0.0
5868,76.0,0.0,30.0,0.0,0.0
5869,64.0,13.0,30.0,0.0,0.0
5870,61.0,13.0,15.0,0.0,0.0
5871,69.0,0.0,60.0,0.0,0.0
5872,81.0,5.0,60.0,0.0,0.0
5873,76.0,0.0,60.0,0.0,0.0
5874,49.0,0.0,15.0,0.0,0.0
5875,57.0,13.0,15.0,0.0,0.0
5876,52.0,13.0,15.0,0.0,0.0
5877,49.0,8.0,15.0,0.0,0.0
5878,45.0,13.0,15.0,0.0,0.0
5879,40.0,13.0,15.0,0.0,0.0
5880,37.0,13.0,15.0,0.0,0.0
5881,68.0,60.0,30.0,0.0,0.0
5882,80.0,0.0,30.0,0.0,0.0
5883,73.0,0.0,30.0,0.0,0.0
5884,33.0,13.0,15.0,0.0,0.0
5885,28.0,3.0,15.0,0.0,0.0
5886,67.0,0.0,60.0,0.0,0.0
5887,75.0,0.0,60.0,0.0,0.0
5888,79.0,0.0,60.0,0.0,0.0
5889,27.0,60.0,60.0,0.0,0.0
5890,39.0,0.0,60.0,0.0,0.0
5891,52.0,60.0,30.0,0.0,0.0
5892,40.0,0.0,30.0,0.0,0.0
5893,68.0,0.0,30.0,0.0,0.0
5894,71.0,0.0,30.0,0.0,0.0
5895,75.0,0.0,60.0,0.0,0.0
5896,80.0,0.0,15.0,0.0,0.0
5897,35.0,60.0,60.0,0.0,0.0
5898,47.0,0.0,60.0,0.0,0.0
5899,68.0,0.0,60.0,0.0,0.0
5900,68.0,0.0,30.0,0.0,0.0
5901,49.0,0.0,30.0,0.0,0.0
5902,37.0,0.0,30.0,0.0,0.0
5903,76.0,0.0,30.0,0.0,0.0
5904,64.0,60.0,30.0,0.0,0.0
5905,39.0,0.0,60.0,0.0,0.0
5906,75.0,0.0,60.0,0.0,0.0
5907,51.0,0.0,60.0,0.0,0.0
5908,63.0,0.0,60.0,0.0,0.0
5909,67.0,60.0,60.0,0.0,0.0
5910,78.0,0.0,30.0,0.0,0.0
5911,39.0,0.0,30.0,0.0,0.0
5912,51.0,0.0,30.0,0.0,0.0
5913,70.0,0.0,30.0,0.0,0.0
5914,73.0,0.0,60.0,0.0,0.0
5915,34.0,0.0,60.0,0.0,0.0
5916,46.0,60.0,60.0,0.0,0.0
5917,78.0,0.0,60.0,0.0,0.0
5918,66.0,60.0,15.0,0.0,0.0
5919,36.0,0.0,30.0,0.0,0.0
5920,48.0,0.0,30.0,0.0,0.0
5921,66.0,60.0,30.0,0.0,0.0
5922,63.0,0.0,30.0,0.0,0.0
5923,75.0,0.0,30.0,0.0,0.0
5924,64.0,0.0,60.0,0.0,0.0
5925,61.0,60.0,60.0,0.0,0.0
5926,37.0,0.0,60.0,0.0,0.0
5927,49.0,0.0,60.0,0.0,0.0
5928,73.0,0.0,60.0,0.0,0.0
5929,70.0,0.0,30.0,0.0,0.0
5930,49.0,0.0,30.0,0.0,0.0
5931,52.0,0.0,30.0,0.0,0.0
5932,55.0,0.0,30.0,0.0,0.0
5933,64.0,0.0,30.0,0.0,0.0
5934,76.0,20.0,30.0,0.0,0.0
5935,67.0,0.0,30.0,0.0,0.0
5936,56.0,0.0,20.0,7.0,0.0
5937,32.0,0.0,20.0,5.0,0.0
5938,44.0,20.0,20.0,3.0,0.0
5939,51.0,0.0,60.0,0.0,0.0
5940,48.0,0.0,60.0,0.0,0.0
5941,44.0,0.0,60.0,0.0,0.0
5942,75.0,0.0,60.0,0.0,0.0
5943,72.0,0.0,60.0,0.0,0.0
5944,68.0,0.0,60.0,0.0,0.0
5945,63.0,0.0,60.0,0.0,0.0
5946,56.0,0.0,60.0,0.0,0.0
5947,34.0,0.0,20.0,5.0,0.0
5948,58.0,20.0,20.0,7.0,0.0
5949,46.0,0.0,20.0,3.0,0.0
5950,48.0,0.0,20.0,3.0,0.0
5951,36.0,20.0,20.0,5.0,0.0
5952,60.0,0.0,20.0,7.0,0.0
5953,61.0,20.0,20.0,7.0,0.0
5954,37.0,0.0,20.0,5.0,0.0
5955,49.0,0.0,20.0,3.0,0.0
5956,39.0,0.0,20.0,5.0,0.0
5957,63.0,20.0,20.0,7.0,0.0
5958,51.0,0.0,20.0,3.0,0.0
5959,40.0,0.0,20.0,5.0,0.0
5960,52.0,60.0,20.0,3.0,0.0
5961,64.0,0.0,20.0,7.0,0.0
5962,66.0,0.0,60.0,7.0,0.0
5963,42.0,60.0,60.0,5.0,0.0
5964,54.0,0.0,60.0,3.0,0.0
5965,40.0,20.0,30.0,5.0,0.0
5966,52.0,0.0,30.0,3.0,0.0
5967,45.0,20.0,60.0,5.0,0.0
5968,57.0,0.0,60.0,3.0,0.0
5969,73.0,0.0,60.0,7.0,0.0
5970,69.0,0.0,60.0,7.0,0.0
5971,85.0,20.0,20.0,0.0,0.0
5972,64.0,0.0,60.0,7.0,0.0
5973,81.0,20.0,20.0,0.0,0.0
5974,76.0,0.0,20.0,0.0,0.0
5975,73.0,20.0,20.0,0.0,0.0
5976,69.0,20.0,20.0,0.0,0.0
5977,56.0,0.0,30.0,3.0,0.0
5978,44.0,0.0,30.0,5.0,0.0
5979,64.0,20.0,20.0,0.0,0.0
5980,63.0,0.0,60.0,7.0,0.0
5981,73.0,20.0,20.0,0.0,0.0
5982,54.0,0.0,60.0,3.0,0.0
5983,73.0,0.0,60.0,7.0,0.0
5984,42.0,0.0,60.0,5.0,0.0
5985,69.0,20.0,60.0,7.0,0.0
5986,63.0,0.0,60.0,0.0,0.0
5987,69.0,20.0,20.0,0.0,0.0
5988,66.0,0.0,20.0,0.0,0.0
5989,61.0,20.0,20.0,0.0,0.0
5990,57.0,20.0,20.0,0.0,0.0
5991,51.0,20.0,30.0,3.0,0.0
5992,39.0,0.0,30.0,5.0,0.0
5993,54.0,0.0,20.0,0.0,0.0
5994,44.0,20.0,60.0,5.0,0.0
5995,51.0,0.0,60.0,0.0,0.0
5996,71.0,0.0,60.0,7.0,0.0
5997,63.0,0.0,60.0,7.0,0.0
5998,56.0,0.0,60.0,3.0,0.0
5999,83.0,20.0,20.0,0.0,0.0
6000,68.0,0.0,60.0,7.0,0.0
6001,80.0,20.0,20.0,0.0,0.0
6002,75.0,0.0,20.0,0.0,0.0
6003,71.0,20.0,20.0,0.0,0.0
6004,68.0,20.0,20.0,0.0,0.0
6005,54.0,0.0,30.0,3.0,0.0
6006,42.0,20.0,30.0,5.0,0.0
6007,63.0,0.0,20.0,0.0,0.0
6008,52.0,20.0,60.0,3.0,0.0
6009,61.0,0.0,60.0,0.0,0.0
6010,71.0,20.0,20.0,0.0,0.0
6011,40.0,0.0,60.0,5.0,0.0
6012,61.0,0.0,60.0,7.0,0.0
6013,68.0,0.0,60.0,7.0,0.0
6014,71.0,0.0,60.0,7.0,0.0
6015,68.0,20.0,20.0,0.0,0.0
6016,64.0,0.0,20.0,0.0,0.0
6017,59.0,20.0,20.0,0.0,0.0
6018,56.0,20.0,20.0,0.0,0.0
6019,37.0,0.0,30.0,5.0,0.0
6020,49.0,20.0,30.0,3.0,0.0
6021,52.0,0.0,20.0,0.0,0.0
6022,66.0,0.0,60.0,7.0,0.0
6023,81.0,20.0,20.0,0.0,0.0
6024,54.0,0.0,60.0,3.0,0.0
6025,42.0,0.0,60.0,5.0,0.0
6026,61.0,0.0,60.0,7.0,0.0
6027,49.0,0.0,60.0,0.0,0.0
6028,69.0,0.0,60.0,7.0,0.0
6029,78.0,20.0,20.0,0.0,0.0
6030,73.0,20.0,20.0,0.0,0.0
6031,69.0,20.0,20.0,0.0,0.0
6032,66.0,20.0,20.0,0.0,0.0
6033,51.0,0.0,30.0,3.0,0.0
6034,39.0,0.0,30.0,5.0,0.0
6035,61.0,20.0,20.0,0.0,0.0
6036,69.0,20.0,20.0,0.0,0.0
6037,60.0,0.0,60.0,0.0,0.0
6038,56.0,20.0,60.0,3.0,0.0
6039,63.0,0.0,60.0,7.0,0.0
6040,60.0,0.0,60.0,7.0,0.0
6041,44.0,0.0,60.0,5.0,0.0
6042,66.0,0.0,60.0,7.0,0.0
6043,66.0,20.0,20.0,0.0,0.0
6044,63.0,0.0,20.0,0.0,0.0
6045,57.0,20.0,20.0,0.0,0.0
6046,54.0,20.0,20.0,0.0,0.0
6047,44.0,0.0,30.0,3.0,0.0
6048,32.0,20.0,30.0,5.0,0.0
6049,51.0,0.0,20.0,0.0,0.0
6050,61.0,0.0,60.0,7.0,0.0
6051,81.0,20.0,20.0,0.0,0.0
6052,69.0,20.0,60.0,7.0,0.0
6053,54.0,0.0,60.0,3.0,0.0
6054,42.0,0.0,60.0,5.0,0.0
6055,66.0,0.0,60.0,7.0,0.0
6056,78.0,20.0,20.0,0.0,0.0
6057,75.0,0.0,20.0,0.0,0.0
6058,69.0,20.0,20.0,0.0,0.0
6059,66.0,20.0,20.0,0.0,0.0
6060,39.0,0.0,30.0,5.0,0.0
6061,51.0,0.0,30.0,3.0,0.0
6062,63.0,13.0,20.0,0.0,0.0
6063,56.0,0.0,60.0,3.0,0.0
6064,44.0,5.0,60.0,5.0,0.0
6065,69.0,0.0,60.0,7.0,0.0
6066,81.0,13.0,15.0,0.0,0.0
6067,69.0,0.0,15.0,0.0,0.0
6068,60.0,0.0,60.0,7.0,0.0
6069,66.0,0.0,60.0,7.0,0.0
6070,80.0,0.0,15.0,0.0,0.0
6071,68.0,13.0,15.0,0.0,0.0
6072,66.0,13.0,15.0,0.0,0.0
6073,78.0,0.0,15.0,0.0,0.0
6074,64.0,8.0,15.0,0.0,0.0
6075,76.0,0.0,15.0,0.0,0.0
6076,63.0,0.0,15.0,0.0,0.0
6077,75.0,13.0,15.0,0.0,0.0
6078,61.0,13.0,15.0,0.0,0.0
6079,73.0,0.0,15.0,0.0,0.0
6080,72.0,0.0,15.0,0.0,0.0
6081,60.0,13.0,15.0,0.0,0.0
6082,57.0,13.0,15.0,0.0,0.0
6083,69.0,0.0,15.0,0.0,0.0
6084,56.0,13.0,15.0,0.0,0.0
6085,68.0,0.0,15.0,0.0,0.0
6086,54.0,13.0,15.0,0.0,0.0
6087,66.0,0.0,15.0,0.0,0.0
6088,54.0,2.0,60.0,7.0,0.0
6089,51.0,0.0,60.0,7.0,0.0
6090,60.0,0.0,60.0,7.0,0.0
6091,44.0,0.0,60.0,3.0,0.0
6092,32.0,0.0,60.0,5.0,0.0
6093,52.0,0.0,15.0,0.0,0.0
6094,64.0,13.0,15.0,0.0,0.0
6095,51.0,0.0,15.0,0.0,0.0
6096,63.0,13.0,15.0,0.0,0.0
6097,61.0,0.0,15.0,0.0,0.0
6098,49.0,11.0,15.0,0.0,0.0
6099,60.0,12.0,15.0,0.0,0.0
6100,48.0,0.0,15.0,0.0,0.0
6101,45.0,0.0,15.0,0.0,0.0
6102,57.0,12.0,15.0,0.0,0.0
6103,44.0,12.0,15.0,0.0,0.0
6104,56.0,0.0,15.0,0.0,0.0
6105,42.0,12.0,15.0,0.0,0.0
6106,54.0,0.0,15.0,0.0,0.0
6107,40.0,10.0,15.0,0.0,0.0
6108,52.0,0.0,15.0,0.0,0.0
6109,39.0,30.0,15.0,0.0,0.0
6110,51.0,0.0,15.0,0.0,0.0
6111,37.0,0.0,60.0,5.0,0.0
6112,61.0,0.0,60.0,7.0,0.0
6113,49.0,0.0,60.0,7.0,0.0
6114,25.0,0.0,30.0,0.0,0.0
6115,37.0,0.0,30.0,0.0,0.0
6116,52.0,0.0,30.0,0.0,0.0
6117,49.0,30.0,60.0,3.0,0.0
6118,61.0,30.0,30.0,0.0,0.0
6119,52.0,0.0,60.0,7.0,0.0
6120,44.0,0.0,30.0,0.0,0.0
6121,56.0,0.0,30.0,0.0,0.0
6122,49.0,30.0,30.0,0.0,0.0
6123,52.0,0.0,30.0,0.0,0.0
6124,61.0,30.0,30.0,0.0,0.0
6125,63.0,0.0,30.0,0.0,0.0
6126,54.0,30.0,30.0,0.0,0.0
6127,36.0,0.0,30.0,0.0,0.0
6128,24.0,0.0,30.0,0.0,0.0
6129,45.0,30.0,30.0,0.0,0.0
6130,57.0,0.0,30.0,0.0,0.0
6131,51.0,30.0,30.0,0.0,0.0
6132,56.0,30.0,30.0,0.0,0.0
6133,37.0,30.0,30.0,0.0,0.0
6134,52.0,0.0,30.0,0.0,0.0
6135,61.0,0.0,30.0,0.0,0.0
6136,25.0,0.0,30.0,0.0,0.0
6137,56.0,30.0,30.0,0.0,0.0
6138,44.0,0.0,30.0,0.0,0.0
6139,49.0,30.0,30.0,0.0,0.0
6140,52.0,0.0,30.0,0.0,0.0
6141,61.0,30.0,30.0,0.0,0.0
6142,24.0,0.0,30.0,0.0,0.0
6143,36.0,0.0,30.0,0.0,0.0
6144,54.0,30.0,30.0,0.0,0.0
6145,63.0,0.0,30.0,0.0,0.0
6146,45.0,30.0,30.0,0.0,0.0
6147,57.0,0.0,30.0,0.0,0.0
6148,51.0,30.0,30.0,0.0,0.0
6149,56.0,30.0,30.0,0.0,0.0
6150,25.0,30.0,30.0,0.0,0.0
6151,37.0,0.0,30.0,0.0,0.0
6152,52.0,0.0,30.0,0.0,0.0
6153,61.0,0.0,30.0,0.0,0.0
6154,64.0,0.0,30.0,0.0,0.0
6155,56.0,0.0,30.0,0.0,0.0
6156,44.0,30.0,30.0,0.0,0.0
6157,49.0,30.0,30.0,0.0,0.0
6158,68.0,30.0,30.0,0.0,0.0
6159,56.0,0.0,30.0,0.0,0.0
6160,34.0,0.0,30.0,0.0,0.0
6161,61.0,30.0,30.0,0.0,0.0
6162,22.0,0.0,30.0,0.0,0.0
6163,64.0,0.0,30.0,0.0,0.0
6164,73.0,0.0,30.0,0.0,0.0
6165,66.0,0.0,30.0,0.0,0.0
6166,42.0,30.0,30.0,0.0,0.0
6167,49.0,30.0,30.0,0.0,0.0
6168,64.0,30.0,30.0,0.0,0.0
6169,52.0,0.0,30.0,0.0,0.0
6170,35.0,30.0,30.0,0.0,0.0
6171,51.0,0.0,30.0,0.0,0.0
6172,59.0,0.0,30.0,0.0,0.0
6173,63.0,0.0,30.0,0.0,0.0
6174,23.0,0.0,30.0,0.0,0.0
6175,42.0,30.0,30.0,0.0,0.0
6176,54.0,0.0,30.0,0.0,0.0
6177,47.0,30.0,30.0,0.0,0.0
6178,54.0,0.0,30.0,0.0,0.0
6179,66.0,30.0,30.0,0.0,0.0
6180,20.0,0.0,30.0,0.0,0.0
6181,32.0,0.0,30.0,0.0,0.0
6182,59.0,0.0,30.0,0.0,0.0
6183,63.0,30.0,30.0,0.0,0.0
6184,71.0,0.0,30.0,0.0,0.0
6185,40.0,0.0,30.0,0.0,0.0
6186,64.0,30.0,30.0,0.0,0.0
6187,47.0,30.0,30.0,0.0,0.0
6188,51.0,30.0,30.0,0.0,0.0
6189,63.0,0.0,30.0,0.0,0.0
6190,21.0,0.0,30.0,0.0,0.0
6191,45.0,0.0,120.0,11.0,0.0
6192,49.0,30.0,30.0,0.0,0.0
6193,61.0,0.0,240.0,7.0,0.0
6194,57.0,0.0,30.0,0.0,0.0
6195,61.0,0.0,30.0,0.0,0.0
6196,52.0,0.0,120.0,7.0,0.0
6197,57.0,0.0,120.0,11.0,0.0
6198,33.0,0.0,30.0,0.0,0.0
6199,40.0,0.0,30.0,0.0,0.0
6200,52.0,30.0,30.0,0.0,0.0
6201,45.0,30.0,30.0,0.0,0.0
6202,64.0,0.0,30.0,0.0,0.0
6203,61.0,0.0,30.0,0.0,0.0
6204,32.0,30.0,30.0,0.0,0.0
6205,44.0,0.0,30.0,0.0,0.0
6206,57.0,0.0,360.0,7.0,0.0
6207,61.0,0.0,30.0,0.0,0.0
6208,64.0,0.0,30.0,0.0,0.0
6209,52.0,30.0,15.0,0.0,0.0
6210,56.0,30.0,120.0,11.0,0.0
6211,44.0,0.0,120.0,11.0,0.0
6212,45.0,30.0,30.0,0.0,0.0
6213,57.0,0.0,30.0,0.0,0.0
6214,49.0,30.0,30.0,0.0,0.0
6215,69.0,0.0,30.0,0.0,0.0
6216,66.0,0.0,30.0,0.0,0.0
6217,57.0,0.0,15.0,0.0,0.0
6218,42.0,0.0,30.0,0.0,0.0
6219,30.0,0.0,30.0,0.0,0.0
6220,69.0,0.0,30.0,0.0,0.0
6221,42.0,0.0,120.0,11.0,0.0
6222,54.0,30.0,120.0,11.0,0.0
6223,66.0,0.0,30.0,0.0,0.0
6224,49.0,0.0,30.0,0.0,0.0
6225,61.0,30.0,30.0,0.0,0.0
6226,54.0,30.0,30.0,0.0,0.0
6227,61.0,0.0,30.0,0.0,0.0
6228,69.0,0.0,30.0,0.0,0.0
6229,52.0,0.0,120.0,11.0,0.0
6230,73.0,0.0,15.0,0.0,0.0
6231,28.0,0.0,30.0,0.0,0.0
6232,40.0,0.0,30.0,0.0,0.0
6233,61.0,0.0,30.0,0.0,0.0
6234,69.0,30.0,30.0,0.0,0.0
6235,40.0,0.0,120.0,11.0,0.0
6236,54.0,30.0,30.0,0.0,0.0
6237,66.0,0.0,30.0,0.0,0.0
6238,57.0,30.0,30.0,0.0,0.0
6239,39.0,0.0,120.0,11.0,0.0
6240,78.0,0.0,15.0,0.0,0.0
6241,75.0,0.0,15.0,0.0,0.0
6242,66.0,0.0,15.0,0.0,0.0
6243,39.0,0.0,30.0,0.0,0.0
6244,51.0,30.0,120.0,11.0,0.0
6245,69.0,0.0,240.0,7.0,0.0
6246,66.0,30.0,15.0,7.0,0.0
6247,27.0,0.0,30.0,0.0,0.0
6248,69.0,30.0,30.0,0.0,0.0
6249,54.0,0.0,30.0,0.0,0.0
6250,57.0,30.0,30.0,0.0,0.0
6251,69.0,0.0,30.0,0.0,0.0
6252,78.0,0.0,30.0,0.0,0.0
6253,81.0,0.0,30.0,0.0,0.0
6254,69.0,0.0,30.0,0.0,0.0
6255,37.0,0.0,30.0,0.0,0.0
6256,25.0,0.0,30.0,0.0,0.0
6257,37.0,0.0,120.0,11.0,0.0
6258,78.0,30.0,30.0,0.0,0.0
6259,49.0,0.0,120.0,11.0,0.0
6260,81.0,0.0,30.0,0.0,0.0
6261,57.0,30.0,30.0,0.0,0.0
6262,75.0,0.0,30.0,0.0,0.0
6263,63.0,30.0,30.0,0.0,0.0
6264,87.0,0.0,30.0,0.0,0.0
6265,81.0,0.0,180.0,0.0,0.0
6266,78.0,60.0,180.0,0.0,0.0
6267,48.0,0.0,120.0,11.0,0.0
6268,75.0,60.0,15.0,0.0,0.0
6269,24.0,60.0,60.0,0.0,0.0
6270,36.0,60.0,120.0,11.0,0.0
6271,75.0,0.0,240.0,7.0,0.0
6272,36.0,0.0,60.0,0.0,0.0
6273,87.0,0.0,180.0,0.0,0.0
6274,63.0,0.0,120.0,0.0,0.0
6275,57.0,0.0,120.0,0.0,0.0
6276,66.0,0.0,120.0,0.0,0.0
6277,69.0,0.0,120.0,0.0,0.0
6278,44.0,0.0,60.0,0.0,0.0
6279,80.0,0.0,60.0,0.0,0.0
6280,68.0,0.0,60.0,0.0,0.0
6281,56.0,0.0,60.0,0.0,0.0
6282,73.0,0.0,30.0,0.0,0.0
6283,25.0,0.0,30.0,0.0,0.0
6284,37.0,0.0,30.0,0.0,0.0
6285,61.0,30.0,30.0,0.0,0.0
6286,64.0,0.0,30.0,0.0,0.0
6287,64.0,0.0,120.0,7.0,0.0
6288,37.0,0.0,120.0,11.0,0.0
6289,49.0,0.0,120.0,11.0,0.0
6290,68.0,0.0,120.0,7.0,0.0
6291,68.0,30.0,30.0,0.0,0.0
6292,52.0,0.0,30.0,0.0,0.0
6293,44.0,0.0,30.0,0.0,0.0
6294,56.0,30.0,30.0,0.0,0.0
6295,64.0,0.0,30.0,0.0,0.0
6296,73.0,0.0,30.0,0.0,0.0
6297,61.0,30.0,30.0,0.0,0.0
6298,75.0,0.0,30.0,0.0,0.0
6299,66.0,0.0,30.0,0.0,0.0
6300,63.0,0.0,30.0,0.0,0.0
6301,24.0,0.0,30.0,0.0,0.0
6302,36.0,30.0,30.0,0.0,0.0
6303,54.0,30.0,30.0,0.0,0.0
6304,69.0,0.0,30.0,0.0,0.0
6305,57.0,0.0,30.0,0.0,0.0
6306,45.0,30.0,30.0,0.0,0.0
6307,56.0,30.0,30.0,0.0,0.0
6308,68.0,0.0,30.0,0.0,0.0
6309,64.0,0.0,30.0,0.0,0.0
6310,73.0,30.0,30.0,0.0,0.0
6311,25.0,0.0,30.0,0.0,0.0
6312,37.0,0.0,30.0,0.0,0.0
6313,61.0,0.0,30.0,0.0,0.0
6314,52.0,0.0,30.0,0.0,0.0
6315,68.0,30.0,30.0,0.0,0.0
6316,56.0,0.0,30.0,0.0,0.0
6317,44.0,30.0,30.0,0.0,0.0
6318,73.0,0.0,30.0,0.0,0.0
6319,64.0,30.0,30.0,0.0,0.0
6320,61.0,0.0,30.0,0.0,0.0
6321,66.0,0.0,120.0,11.0,0.0
6322,78.0,30.0,30.0,0.0,0.0
6323,27.0,0.0,30.0,0.0,0.0
6324,66.0,0.0,30.0,0.0,0.0
6325,69.0,0.0,30.0,0.0,0.0
6326,39.0,0.0,120.0,11.0,0.0
6327,39.0,0.0,30.0,0.0,0.0
6328,69.0,0.0,120.0,11.0,0.0
6329,51.0,0.0,120.0,11.0,0.0
6330,72.0,0.0,30.0,0.0,0.0
6331,57.0,30.0,30.0,0.0,0.0
6332,69.0,0.0,30.0,0.0,0.0
6333,78.0,30.0,30.0,0.0,0.0
6334,60.0,0.0,30.0,0.0,0.0
6335,66.0,0.0,30.0,0.0,0.0
6336,48.0,0.0,30.0,0.0,0.0
6337,71.0,0.0,30.0,0.0,0.0
6338,59.0,30.0,30.0,0.0,0.0
6339,47.0,0.0,30.0,0.0,0.0
6340,68.0,0.0,120.0,11.0,0.0
6341,59.0,0.0,120.0,11.0,0.0
6342,52.0,0.0,120.0,11.0,0.0
6343,40.0,30.0,120.0,11.0,0.0
6344,40.0,0.0,30.0,0.0,0.0
6345,76.0,0.0,30.0,0.0,0.0
6346,28.0,0.0,30.0,0.0,0.0
6347,64.0,0.0,30.0,0.0,0.0
6348,68.0,30.0,30.0,0.0,0.0
6349,71.0,0.0,30.0,0.0,0.0
6350,56.0,24.0,30.0,0.0,0.0
6351,47.0,6.0,30.0,0.0,0.0
6352,59.0,30.0,30.0,0.0,0.0
6353,64.0,0.0,30.0,0.0,0.0
6354,68.0,0.0,30.0,0.0,0.0
6355,76.0,0.0,30.0,0.0,0.0
6356,65.0,0.0,30.0,0.0,0.0
6357,39.0,0.0,30.0,0.0,0.0
6358,27.0,0.0,30.0,0.0,0.0
6359,69.0,30.0,30.0,0.0,0.0
6360,77.0,0.0,30.0,0.0,0.0
6361,57.0,30.0,30.0,0.0,0.0
6362,72.0,0.0,30.0,0.0,0.0
6363,48.0,0.0,30.0,0.0,0.0
6364,60.0,30.0,30.0,0.0,0.0
6365,77.0,0.0,30.0,0.0,0.0
6366,65.0,0.0,30.0,0.0,0.0
6367,69.0,30.0,30.0,0.0,0.0
6368,76.0,30.0,30.0,0.0,0.0
6369,28.0,0.0,30.0,0.0,0.0
6370,40.0,0.0,30.0,0.0,0.0
6371,64.0,0.0,30.0,0.0,0.0
6372,68.0,0.0,30.0,0.0,0.0
6373,56.0,0.0,30.0,0.0,0.0
6374,71.0,30.0,30.0,0.0,0.0
6375,59.0,30.0,30.0,0.0,0.0
6376,47.0,0.0,30.0,0.0,0.0
6377,64.0,0.0,30.0,0.0,0.0
6378,76.0,0.0,30.0,0.0,0.0
6379,68.0,30.0,30.0,0.0,0.0
6380,41.0,0.0,30.0,0.0,0.0
6381,81.0,30.0,30.0,0.0,0.0
6382,69.0,0.0,120.0,11.0,0.0
6383,41.0,0.0,60.0,11.0,0.0
6384,72.0,0.0,120.0,11.0,0.0
6385,29.0,0.0,30.0,0.0,0.0
6386,63.0,0.0,120.0,11.0,0.0
6387,69.0,0.0,30.0,0.0,0.0
6388,72.0,0.0,30.0,0.0,0.0
6389,75.0,30.0,30.0,0.0,0.0
6390,51.0,0.0,30.0,0.0,0.0
6391,60.0,0.0,30.0,0.0,0.0
6392,30.0,0.0,30.0,0.0,0.0
6393,42.0,0.0,60.0,11.0,0.0
6394,72.0,0.0,30.0,0.0,0.0
6395,81.0,0.0,30.0,0.0,0.0
6396,69.0,0.0,30.0,0.0,0.0
6397,42.0,30.0,30.0,0.0,0.0
6398,75.0,30.0,30.0,0.0,0.0
6399,71.0,0.0,120.0,11.0,0.0
6400,43.0,0.0,120.0,11.0,0.0
6401,62.0,0.0,120.0,11.0,0.0
6402,71.0,0.0,30.0,0.0,0.0
6403,67.0,0.0,30.0,0.0,0.0
6404,43.0,0.0,30.0,0.0,0.0
6405,31.0,0.0,30.0,0.0,0.0
6406,79.0,30.0,30.0,0.0,0.0
6407,59.0,0.0,30.0,0.0,0.0
6408,74.0,30.0,30.0,0.0,0.0
6409,62.0,30.0,30.0,0.0,0.0
6410,50.0,0.0,30.0,0.0,0.0
6411,67.0,0.0,30.0,0.0,0.0
6412,71.0,0.0,30.0,0.0,0.0
6413,79.0,30.0,30.0,0.0,0.0
6414,30.0,0.0,30.0,0.0,0.0
6415,42.0,0.0,30.0,0.0,0.0
6416,68.0,0.0,30.0,0.0,0.0
6417,72.0,30.0,30.0,0.0,0.0
6418,80.0,0.0,30.0,0.0,0.0
6419,60.0,0.0,30.0,0.0,0.0
6420,75.0,30.0,30.0,0.0,0.0
6421,51.0,30.0,30.0,0.0,0.0
6422,63.0,0.0,30.0,0.0,0.0
6423,80.0,30.0,30.0,0.0,0.0
6424,68.0,0.0,30.0,0.0,0.0
6425,72.0,0.0,30.0,0.0,0.0
6426,79.0,0.0,30.0,0.0,0.0
6427,67.0,0.0,30.0,0.0,0.0
6428,71.0,0.0,30.0,0.0,0.0
6429,43.0,30.0,30.0,0.0,0.0
6430,31.0,0.0,30.0,0.0,0.0
6431,59.0,30.0,30.0,0.0,0.0
6432,74.0,0.0,30.0,0.0,0.0
6433,62.0,30.0,30.0,0.0,0.0
6434,50.0,0.0,30.0,0.0,0.0
6435,79.0,0.0,30.0,0.0,0.0
6436,71.0,30.0,30.0,0.0,0.0
6437,67.0,0.0,30.0,0.0,0.0
6438,72.0,0.0,120.0,11.0,0.0
6439,63.0,0.0,120.0,11.0,0.0
6440,75.0,0.0,30.0,0.0,0.0
6441,32.0,0.0,30.0,0.0,0.0
6442,72.0,0.0,30.0,0.0,0.0
6443,44.0,0.0,30.0,0.0,0.0
6444,84.0,30.0,30.0,0.0,0.0
6445,44.0,0.0,60.0,11.0,0.0
6446,66.0,30.0,120.0,11.0,0.0
6447,78.0,0.0,30.0,0.0,0.0
6448,54.0,0.0,30.0,0.0,0.0
6449,63.0,30.0,30.0,0.0,0.0
6450,75.0,30.0,30.0,0.0,0.0
6451,33.0,0.0,30.0,0.0,0.0
6452,84.0,0.0,30.0,0.0,0.0
6453,72.0,0.0,30.0,0.0,0.0
6454,45.0,0.0,30.0,0.0,0.0
6455,45.0,0.0,60.0,11.0,0.0
6456,78.0,0.0,30.0,0.0,0.0
6457,70.0,0.0,30.0,0.0,0.0
6458,82.0,0.0,30.0,0.0,0.0
6459,46.0,0.0,30.0,0.0,0.0
6460,34.0,0.0,30.0,0.0,0.0
6461,46.0,0.0,60.0,11.0,0.0
6462,62.0,30.0,120.0,11.0,0.0
6463,65.0,0.0,60.0,11.0,0.0
6464,74.0,30.0,30.0,0.0,0.0
6465,77.0,0.0,30.0,0.0,0.0
6466,62.0,30.0,30.0,0.0,0.0
6467,34.0,0.0,60.0,11.0,0.0
6468,53.0,0.0,30.0,0.0,0.0
6469,65.0,30.0,30.0,0.0,0.0
6470,46.0,0.0,60.0,11.0,0.0
6471,74.0,0.0,30.0,0.0,0.0
6472,82.0,0.0,30.0,0.0,0.0
6473,70.0,0.0,30.0,0.0,0.0
6474,35.0,30.0,60.0,11.0,0.0
6475,69.0,0.0,60.0,11.0,0.0
6476,35.0,0.0,30.0,0.0,0.0
6477,47.0,0.0,30.0,0.0,0.0
6478,75.0,0.0,30.0,0.0,0.0
6479,78.0,30.0,30.0,0.0,0.0
6480,87.0,0.0,30.0,0.0,0.0
6481,47.0,0.0,60.0,11.0,0.0
6482,81.0,0.0,30.0,0.0,0.0
6483,54.0,0.0,30.0,0.0,0.0
6484,63.0,0.0,30.0,0.0,0.0
6485,48.0,0.0,30.0,0.0,0.0
6486,48.0,0.0,60.0,11.0,0.0
6487,66.0,0.0,15.0,11.0,0.0
6488,36.0,0.0,30.0,0.0,0.0
6489,87.0,0.0,30.0,0.0,0.0
6490,75.0,0.0,30.0,0.0,0.0
6491,36.0,0.0,60.0,11.0,0.0
6492,78.0,30.0,30.0,0.0,0.0
6493,57.0,0.0,60.0,11.0,0.0
6494,81.0,0.0,30.0,0.0,0.0
6495,65.0,0.0,60.0,11.0,0.0
6496,37.0,0.0,60.0,11.0,0.0
6497,73.0,30.0,30.0,0.0,0.0
6498,49.0,0.0,60.0,11.0,0.0
6499,85.0,0.0,30.0,0.0,0.0
6500,49.0,0.0,30.0,0.0,0.0
6501,37.0,0.0,30.0,0.0,0.0
6502,56.0,0.0,60.0,11.0,0.0
6503,80.0,30.0,30.0,0.0,0.0
6504,77.0,0.0,30.0,0.0,0.0
6505,53.0,0.0,30.0,0.0,0.0
6506,56.0,0.0,30.0,0.0,0.0
6507,50.0,0.0,60.0,11.0,0.0
6508,59.0,0.0,60.0,11.0,0.0
6509,62.0,30.0,30.0,0.0,0.0
6510,50.0,0.0,30.0,0.0,0.0
6511,38.0,0.0,60.0,11.0,0.0
6512,68.0,0.0,60.0,11.0,0.0
6513,56.0,0.0,30.0,0.0,0.0
6514,86.0,0.0,30.0,0.0,0.0
6515,74.0,30.0,30.0,0.0,0.0
6516,59.0,0.0,30.0,0.0,0.0
6517,51.0,0.0,60.0,11.0,0.0
6518,75.0,0.0,30.0,0.0,0.0
6519,58.0,0.0,60.0,11.0,0.0
6520,39.0,0.0,60.0,11.0,0.0
6521,67.0,0.0,60.0,11.0,0.0
6522,87.0,30.0,30.0,0.0,0.0
6523,51.0,0.0,30.0,0.0,0.0
6524,39.0,0.0,30.0,0.0,0.0
6525,79.0,0.0,30.0,0.0,0.0
6526,82.0,30.0,30.0,0.0,0.0
6527,55.0,0.0,30.0,0.0,0.0
6528,58.0,0.0,30.0,0.0,0.0
6529,52.0,0.0,60.0,11.0,0.0
6530,40.0,0.0,60.0,11.0,0.0
6531,52.0,0.0,30.0,0.0,0.0
6532,61.0,0.0,60.0,11.0,0.0
6533,70.0,0.0,60.0,11.0,0.0
6534,64.0,30.0,30.0,0.0,0.0
6535,88.0,30.0,30.0,0.0,0.0
6536,61.0,0.0,30.0,0.0,0.0
6537,58.0,0.0,30.0,0.0,0.0
6538,76.0,0.0,30.0,0.0,0.0
6539,60.0,30.0,60.0,11.0,0.0
6540,53.0,0.0,60.0,11.0,0.0
6541,53.0,0.0,30.0,0.0,0.0
6542,69.0,0.0,60.0,11.0,0.0
6543,41.0,0.0,60.0,11.0,0.0
6544,89.0,30.0,30.0,0.0,0.0
6545,41.0,0.0,30.0,0.0,0.0
6546,77.0,0.0,30.0,0.0,0.0
6547,60.0,0.0,30.0,0.0,0.0
6548,57.0,0.0,30.0,0.0,0.0
6549,81.0,0.0,30.0,0.0,0.0
6550,84.0,0.0,30.0,0.0,0.0
6551,42.0,0.0,60.0,11.0,0.0
6552,72.0,0.0,60.0,11.0,0.0
6553,54.0,0.0,30.0,0.0,0.0
6554,63.0,0.0,60.0,11.0,0.0
6555,66.0,30.0,30.0,0.0,0.0
6556,54.0,0.0,60.0,11.0,0.0
6557,90.0,0.0,30.0,0.0,0.0
6558,78.0,30.0,30.0,0.0,0.0
6559,60.0,0.0,30.0,0.0,0.0
6560,63.0,0.0,30.0,0.0,0.0
6561,41.0,0.0,60.0,11.0,0.0
6562,53.0,30.0,60.0,11.0,0.0
6563,69.0,0.0,60.0,11.0,0.0
6564,60.0,0.0,60.0,11.0,0.0
6565,41.0,0.0,30.0,0.0,0.0
6566,53.0,0.0,30.0,0.0,0.0
6567,77.0,30.0,30.0,0.0,0.0
6568,89.0,0.0,30.0,0.0,0.0
6569,60.0,0.0,30.0,0.0,0.0
6570,57.0,0.0,30.0,0.0,0.0
6571,81.0,0.0,30.0,0.0,0.0
6572,84.0,0.0,30.0,0.0,0.0
6573,54.0,30.0,30.0,0.0,0.0
6574,66.0,0.0,30.0,0.0,0.0
6575,42.0,0.0,60.0,11.0,0.0
6576,63.0,0.0,60.0,11.0,0.0
6577,54.0,0.0,60.0,11.0,0.0
6578,72.0,30.0,60.0,11.0,0.0
6579,60.0,0.0,30.0,0.0,0.0
6580,63.0,0.0,30.0,0.0,0.0
6581,78.0,0.0,30.0,0.0,0.0
6582,90.0,0.0,30.0,0.0,0.0
6583,43.0,0.0,30.0,0.0,0.0
6584,55.0,0.0,30.0,0.0,0.0
6585,55.0,0.0,60.0,11.0,0.0
6586,63.0,0.0,60.0,11.0,0.0
6587,43.0,0.0,60.0,11.0,0.0
6588,79.0,0.0,30.0,0.0,0.0
6589,60.0,0.0,60.0,11.0,0.0
6590,91.0,30.0,30.0,0.0,0.0
6591,84.0,30.0,30.0,0.0,0.0
6592,87.0,0.0,30.0,0.0,0.0
6593,60.0,0.0,30.0,0.0,0.0
6594,63.0,0.0,30.0,0.0,0.0
6595,72.0,0.0,60.0,11.0,0.0
6596,44.0,30.0,60.0,11.0,0.0
6597,68.0,30.0,30.0,0.0,0.0
6598,56.0,0.0,30.0,0.0,0.0
6599,56.0,0.0,60.0,11.0,0.0
6600,80.0,0.0,30.0,0.0,0.0
6601,92.0,0.0,30.0,0.0,0.0
6602,60.0,0.0,30.0,0.0,0.0
6603,63.0,0.0,30.0,0.0,0.0
6604,55.0,0.0,60.0,11.0,0.0
6605,63.0,0.0,15.0,11.0,0.0
6606,43.0,0.0,30.0,0.0,0.0
6607,55.0,30.0,30.0,0.0,0.0
6608,79.0,0.0,30.0,0.0,0.0
6609,60.0,0.0,60.0,11.0,0.0
6610,91.0,0.0,30.0,0.0,0.0
6611,43.0,0.0,60.0,11.0,0.0
6612,84.0,30.0,30.0,0.0,0.0
6613,63.0,0.0,30.0,0.0,0.0
6614,60.0,0.0,30.0,0.0,0.0
6615,87.0,0.0,30.0,0.0,0.0
6616,63.0,0.0,15.0,11.0,0.0
6617,44.0,0.0,60.0,11.0,0.0
6618,56.0,0.0,30.0,0.0,0.0
6619,68.0,30.0,30.0,0.0,0.0
6620,72.0,0.0,60.0,11.0,0.0
6621,56.0,0.0,60.0,11.0,0.0
6622,92.0,0.0,30.0,0.0,0.0
6623,80.0,0.0,30.0,0.0,0.0
6624,63.0,0.0,30.0,0.0,0.0
6625,60.0,0.0,30.0,0.0,0.0
6626,36.0,0.0,120.0,11.0,0.0
6627,48.0,0.0,120.0,0.0,0.0
6628,48.0,0.0,120.0,11.0,0.0
6629,42.0,15.0,120.0,0.0,0.0
6630,45.0,0.0,120.0,0.0,0.0
6631,39.0,0.0,120.0,0.0,0.0
6632,36.0,0.0,120.0,0.0,0.0
6633,93.0,0.0,15.0,0.0,0.0
6634,60.0,0.0,120.0,11.0,0.0
6635,90.0,15.0,15.0,0.0,0.0
6636,95.0,15.0,15.0,0.0,0.0
6637,90.0,15.0,15.0,0.0,0.0
6638,93.0,0.0,15.0,0.0,0.0
6639,95.0,15.0,15.0,0.0,0.0
6640,90.0,15.0,15.0,0.0,0.0
6641,93.0,0.0,15.0,0.0,0.0
6642,95.0,15.0,15.0,0.0,0.0
6643,93.0,15.0,15.0,0.0,0.0
6644,90.0,0.0,15.0,0.0,0.0
6645,81.0,0.0,15.0,0.0,0.0
6646,44.0,0.0,120.0,0.0,0.0
6647,40.0,0.0,120.0,0.0,0.0
6648,37.0,0.0,120.0,0.0,0.0
6649,76.0,15.0,15.0,0.0,0.0
6650,80.0,0.0,15.0,0.0,0.0
6651,49.0,15.0,120.0,11.0,0.0
6652,61.0,0.0,120.0,11.0,0.0
6653,37.0,0.0,120.0,11.0,0.0
6654,81.0,15.0,15.0,0.0,0.0
6655,76.0,15.0,15.0,0.0,0.0
6656,80.0,0.0,15.0,0.0,0.0
6657,81.0,15.0,15.0,0.0,0.0
6658,80.0,15.0,15.0,0.0,0.0
6659,76.0,0.0,15.0,0.0,0.0
6660,81.0,15.0,15.0,0.0,0.0
6661,76.0,0.0,15.0,0.0,0.0
6662,80.0,15.0,15.0,0.0,0.0
6663,68.0,0.0,15.0,0.0,0.0
6664,46.0,0.0,240.0,0.0,0.0
6665,39.0,0.0,240.0,0.0,0.0
6666,63.0,15.0,15.0,0.0,0.0
6667,67.0,0.0,15.0,0.0,0.0
6668,49.0,0.0,15.0,0.0,0.0
6669,63.0,0.0,120.0,11.0,0.0
6670,51.0,15.0,240.0,0.0,0.0
6671,39.0,0.0,120.0,11.0,0.0
6672,51.0,0.0,120.0,11.0,0.0
6673,68.0,15.0,15.0,0.0,0.0
6674,63.0,15.0,15.0,0.0,0.0
6675,67.0,0.0,15.0,0.0,0.0
6676,68.0,15.0,15.0,0.0,0.0
6677,63.0,15.0,15.0,0.0,0.0
6678,67.0,0.0,15.0,0.0,0.0
6679,68.0,15.0,15.0,0.0,0.0
6680,67.0,15.0,15.0,0.0,0.0
6681,63.0,0.0,15.0,0.0,0.0
6682,55.0,0.0,15.0,0.0,0.0
6683,63.0,20.0,20.0,0.0,0.0
6684,67.0,0.0,15.0,0.0,0.0
6685,75.0,15.0,20.0,0.0,0.0
6686,79.0,0.0,15.0,0.0,0.0
6687,91.0,20.0,20.0,0.0,0.0
6688,87.0,5.0,15.0,0.0,0.0
6689,44.0,0.0,120.0,11.0,0.0
6690,56.0,0.0,120.0,11.0,0.0
6691,32.0,0.0,120.0,11.0,0.0
6692,92.0,0.0,15.0,0.0,0.0
6693,32.0,0.0,120.0,0.0,0.0
6694,40.0,0.0,120.0,0.0,0.0
6695,44.0,0.0,120.0,0.0,0.0
6696,88.0,15.0,15.0,0.0,0.0
6697,93.0,15.0,15.0,0.0,0.0
6698,88.0,0.0,15.0,0.0,0.0
6699,92.0,15.0,15.0,0.0,0.0
6700,93.0,15.0,15.0,0.0,0.0
6701,88.0,15.0,15.0,0.0,0.0
6702,92.0,0.0,15.0,0.0,0.0
6703,93.0,15.0,15.0,0.0,0.0
6704,88.0,15.0,15.0,0.0,0.0
6705,92.0,0.0,15.0,0.0,0.0
6706,80.0,0.0,15.0,0.0,0.0
6707,79.0,0.0,15.0,0.0,0.0
6708,76.0,15.0,15.0,0.0,0.0
6709,46.0,0.0,120.0,11.0,0.0
6710,34.0,0.0,120.0,0.0,0.0
6711,37.0,0.0,15.0,0.0,0.0
6712,34.0,0.0,120.0,11.0,0.0
6713,40.0,0.0,120.0,0.0,0.0
6714,46.0,0.0,120.0,0.0,0.0
6715,58.0,0.0,120.0,11.0,0.0
6716,80.0,15.0,15.0,0.0,0.0
6717,76.0,0.0,15.0,0.0,0.0
6718,79.0,15.0,15.0,0.0,0.0
6719,80.0,15.0,15.0,0.0,0.0
6720,76.0,15.0,15.0,0.0,0.0
6721,79.0,0.0,15.0,0.0,0.0
6722,80.0,15.0,15.0,0.0,0.0
6723,76.0,0.0,15.0,0.0,0.0
6724,79.0,15.0,15.0,0.0,0.0
6725,67.0,0.0,15.0,0.0,0.0
6726,60.0,0.0,120.0,11.0,0.0
6727,66.0,0.0,15.0,0.0,0.0
6728,63.0,15.0,15.0,0.0,0.0
6729,36.0,0.0,240.0,0.0,0.0
6730,39.0,15.0,240.0,0.0,0.0
6731,42.0,0.0,240.0,0.0,0.0
6732,48.0,0.0,120.0,11.0,0.0
6733,48.0,0.0,240.0,0.0,0.0
6734,36.0,0.0,120.0,11.0,0.0
6735,45.0,0.0,240.0,0.0,0.0
6736,68.0,15.0,15.0,0.0,0.0
6737,66.0,0.0,15.0,0.0,0.0
6738,63.0,15.0,15.0,0.0,0.0
6739,68.0,15.0,15.0,0.0,0.0
6740,63.0,0.0,15.0,0.0,0.0
6741,66.0,15.0,15.0,0.0,0.0
6742,68.0,15.0,15.0,0.0,0.0
6743,63.0,0.0,15.0,0.0,0.0
6744,66.0,15.0,15.0,0.0,0.0
6745,54.0,0.0,15.0,0.0,0.0
6746,66.0,0.0,20.0,0.0,0.0
6747,63.0,20.0,20.0,0.0,0.0
6748,66.0,20.0,20.0,0.0,0.0
6749,78.0,0.0,20.0,0.0,0.0
6750,75.0,15.0,20.0,0.0,0.0
6751,78.0,20.0,15.0,0.0,0.0
6752,90.0,20.0,20.0,0.0,0.0
6753,87.0,5.0,15.0,0.0,0.0
6754,61.0,0.0,120.0,11.0,0.0
6755,45.0,0.0,120.0,11.0,0.0
6756,88.0,0.0,15.0,0.0,0.0
6757,85.0,15.0,15.0,0.0,0.0
6758,33.0,0.0,120.0,11.0,0.0
6759,49.0,0.0,40.0,0.0,0.0
6760,37.0,5.0,40.0,0.0,0.0
6761,52.0,0.0,120.0,11.0,0.0
6762,90.0,10.0,15.0,0.0,0.0
6763,85.0,0.0,15.0,0.0,0.0
6764,88.0,15.0,15.0,0.0,0.0
6765,35.0,10.0,40.0,0.0,0.0
6766,47.0,0.0,40.0,0.0,0.0
6767,90.0,15.0,15.0,0.0,0.0
6768,88.0,5.0,15.0,0.0,0.0
6769,85.0,0.0,15.0,0.0,0.0
6770,90.0,15.0,15.0,0.0,0.0
6771,33.0,0.0,40.0,0.0,0.0
6772,45.0,0.0,40.0,0.0,0.0
6773,85.0,15.0,15.0,0.0,0.0
6774,88.0,0.0,15.0,0.0,0.0
6775,76.0,0.0,15.0,0.0,0.0
6776,49.0,5.0,40.0,0.0,0.0
6777,61.0,0.0,40.0,0.0,0.0
6778,88.0,0.0,15.0,0.0,0.0
6779,85.0,15.0,15.0,0.0,0.0
6780,90.0,10.0,15.0,0.0,0.0
6781,85.0,0.0,15.0,0.0,0.0
6782,88.0,15.0,15.0,0.0,0.0
6783,59.0,10.0,40.0,0.0,0.0
6784,47.0,0.0,40.0,0.0,0.0
6785,90.0,15.0,15.0,0.0,0.0
6786,85.0,0.0,15.0,0.0,0.0
6787,88.0,5.0,15.0,0.0,0.0
6788,90.0,15.0,15.0,0.0,0.0
6789,45.0,15.0,40.0,0.0,0.0
6790,57.0,0.0,40.0,0.0,0.0
6791,85.0,15.0,15.0,0.0,0.0
6792,88.0,0.0,15.0,0.0,0.0
6793,76.0,0.0,15.0,0.0,0.0
6794,88.0,15.0,15.0,0.0,0.0
6795,61.0,0.0,40.0,0.0,0.0
6796,85.0,0.0,15.0,0.0,0.0
6797,73.0,5.0,40.0,0.0,0.0
6798,90.0,10.0,15.0,0.0,0.0
6799,88.0,15.0,15.0,0.0,0.0
6800,85.0,0.0,15.0,0.0,0.0
6801,71.0,10.0,40.0,0.0,0.0
6802,59.0,0.0,40.0,0.0,0.0
6803,90.0,15.0,15.0,0.0,0.0
6804,88.0,0.0,15.0,0.0,0.0
6805,85.0,5.0,15.0,0.0,0.0
6806,90.0,15.0,15.0,0.0,0.0
6807,57.0,0.0,150.0,0.0,0.0
6808,69.0,15.0,150.0,0.0,0.0
6809,85.0,15.0,15.0,0.0,0.0
6810,88.0,0.0,15.0,0.0,0.0
6811,76.0,20.0,15.0,0.0,0.0
6812,78.0,20.0,20.0,0.0,0.0
6813,73.0,0.0,20.0,0.0,0.0
6814,66.0,20.0,20.0,0.0,0.0
6815,73.0,0.0,20.0,0.0,0.0
6816,78.0,15.0,15.0,0.0,0.0
6817,90.0,20.0,20.0,0.0,0.0
6818,85.0,5.0,15.0,0.0,0.0
6819,37.0,0.0,40.0,0.0,0.0
6820,49.0,5.0,40.0,0.0,0.0
6821,61.0,0.0,120.0,11.0,0.0
6822,88.0,15.0,15.0,0.0,0.0
6823,44.0,0.0,120.0,11.0,0.0
6824,52.0,0.0,120.0,11.0,0.0
6825,32.0,0.0,120.0,11.0,0.0
6826,92.0,0.0,15.0,0.0,0.0
6827,93.0,10.0,15.0,0.0,0.0
6828,92.0,15.0,15.0,0.0,0.0
6829,88.0,0.0,15.0,0.0,0.0
6830,33.0,0.0,40.0,0.0,0.0
6831,45.0,10.0,40.0,0.0,0.0
6832,93.0,15.0,15.0,0.0,0.0
6833,88.0,5.0,15.0,0.0,0.0
6834,92.0,0.0,15.0,0.0,0.0
6835,93.0,15.0,15.0,0.0,0.0
6836,32.0,0.0,40.0,0.0,0.0
6837,44.0,0.0,40.0,0.0,0.0
6838,92.0,15.0,15.0,0.0,0.0
6839,88.0,0.0,15.0,0.0,0.0
6840,80.0,0.0,15.0,0.0,0.0
6841,88.0,15.0,15.0,0.0,0.0
6842,92.0,0.0,15.0,0.0,0.0
6843,49.0,0.0,40.0,0.0,0.0
6844,61.0,5.0,40.0,0.0,0.0
6845,93.0,10.0,15.0,0.0,0.0
6846,88.0,0.0,15.0,0.0,0.0
6847,92.0,15.0,15.0,0.0,0.0
6848,57.0,5.0,40.0,0.0,0.0
6849,45.0,5.0,40.0,0.0,0.0
6850,93.0,15.0,15.0,0.0,0.0
6851,88.0,5.0,15.0,0.0,0.0
6852,92.0,0.0,15.0,0.0,0.0
6853,93.0,15.0,15.0,0.0,0.0
6854,44.0,15.0,40.0,0.0,0.0
6855,56.0,0.0,40.0,0.0,0.0
6856,92.0,0.0,15.0,0.0,0.0
6857,88.0,15.0,15.0,0.0,0.0
6858,80.0,0.0,15.0,0.0,0.0
6859,88.0,15.0,15.0,0.0,0.0
6860,92.0,0.0,15.0,0.0,0.0
6861,61.0,5.0,40.0,0.0,0.0
6862,73.0,0.0,40.0,0.0,0.0
6863,93.0,10.0,15.0,0.0,0.0
6864,88.0,0.0,15.0,0.0,0.0
6865,92.0,15.0,15.0,0.0,0.0
6866,57.0,10.0,40.0,0.0,0.0
6867,69.0,0.0,40.0,0.0,0.0
6868,93.0,15.0,15.0,0.0,0.0
6869,88.0,5.0,15.0,0.0,0.0
6870,92.0,0.0,15.0,0.0,0.0
6871,93.0,15.0,15.0,0.0,0.0
6872,68.0,0.0,150.0,0.0,0.0
6873,56.0,15.0,150.0,0.0,0.0
6874,92.0,0.0,15.0,0.0,0.0
6875,88.0,15.0,15.0,0.0,0.0
6876,80.0,20.0,15.0,0.0,0.0
6877,91.0,0.0,20.0,0.0,0.0
6878,94.0,20.0,20.0,0.0,0.0
6879,88.0,0.0,20.0,0.0,0.0
6880,82.0,20.0,20.0,0.0,0.0
6881,88.0,0.0,20.0,0.0,0.0
6882,91.0,0.0,20.0,0.0,0.0
6883,94.0,15.0,15.0,0.0,0.0
6884,100.0,0.0,15.0,0.0,0.0
6885,103.0,25.0,15.0,0.0,0.0
6886,106.0,0.0,15.0,0.0,0.0
6887,60.0,0.0,120.0,11.0,0.0
6888,96.0,0.0,15.0,0.0,0.0
6889,90.0,15.0,15.0,0.0,0.0
6890,51.0,0.0,40.0,0.0,0.0
6891,39.0,5.0,40.0,0.0,0.0
6892,51.0,0.0,120.0,11.0,0.0
6893,32.0,0.0,120.0,11.0,0.0
6894,44.0,0.0,120.0,11.0,0.0
6895,97.0,10.0,15.0,0.0,0.0
6896,90.0,0.0,15.0,0.0,0.0
6897,96.0,15.0,15.0,0.0,0.0
6898,33.0,0.0,40.0,0.0,0.0
6899,45.0,10.0,40.0,0.0,0.0
6900,97.0,15.0,15.0,0.0,0.0
6901,90.0,5.0,15.0,0.0,0.0
6902,96.0,0.0,15.0,0.0,0.0
6903,97.0,15.0,15.0,0.0,0.0
6904,32.0,15.0,150.0,0.0,0.0
6905,44.0,0.0,150.0,0.0,0.0
6906,96.0,0.0,15.0,0.0,0.0
6907,90.0,15.0,15.0,0.0,0.0
6908,84.0,15.0,15.0,0.0,0.0
6909,51.0,0.0,40.0,7.0,0.0
6910,63.0,5.0,40.0,7.0,0.0
6911,96.0,0.0,15.0,0.0,0.0
6912,90.0,15.0,15.0,0.0,0.0
6913,97.0,10.0,15.0,0.0,0.0
6914,90.0,15.0,15.0,0.0,0.0
6915,96.0,0.0,15.0,0.0,0.0
6916,45.0,10.0,40.0,7.0,0.0
6917,57.0,0.0,40.0,7.0,0.0
6918,97.0,15.0,15.0,0.0,0.0
6919,96.0,5.0,15.0,0.0,0.0
6920,90.0,0.0,15.0,0.0,0.0
6921,97.0,15.0,15.0,0.0,0.0
6922,56.0,15.0,150.0,7.0,0.0
6923,44.0,0.0,150.0,7.0,0.0
6924,96.0,15.0,15.0,0.0,0.0
6925,90.0,0.0,15.0,0.0,0.0
6926,84.0,0.0,15.0,0.0,0.0
6927,60.0,0.0,120.0,11.0,0.0
6928,32.0,0.0,120.0,11.0,0.0
6929,51.0,0.0,40.0,0.0,0.0
6930,63.0,5.0,40.0,0.0,0.0
6931,90.0,15.0,15.0,0.0,0.0
6932,96.0,0.0,15.0,0.0,0.0
6933,51.0,0.0,120.0,11.0,0.0
6934,97.0,10.0,15.0,0.0,0.0
6935,96.0,15.0,15.0,0.0,0.0
6936,90.0,0.0,15.0,0.0,0.0
6937,45.0,0.0,40.0,0.0,0.0
6938,57.0,10.0,40.0,0.0,0.0
6939,97.0,15.0,15.0,0.0,0.0
6940,90.0,0.0,15.0,0.0,0.0
6941,96.0,5.0,15.0,0.0,0.0
6942,97.0,15.0,15.0,0.0,0.0
6943,56.0,0.0,150.0,0.0,0.0
6944,44.0,15.0,150.0,0.0,0.0
6945,96.0,15.0,15.0,0.0,0.0
6946,90.0,0.0,15.0,0.0,0.0
6947,84.0,0.0,15.0,0.0,0.0
6948,90.0,15.0,15.0,0.0,0.0
6949,96.0,0.0,15.0,0.0,0.0
6950,63.0,5.0,40.0,7.0,0.0
6951,75.0,0.0,40.0,7.0,0.0
6952,97.0,10.0,15.0,0.0,0.0
6953,90.0,0.0,15.0,0.0,0.0
6954,96.0,15.0,15.0,0.0,0.0
6955,69.0,10.0,40.0,7.0,0.0
6956,57.0,0.0,40.0,7.0,0.0
6957,97.0,15.0,15.0,0.0,0.0
6958,90.0,5.0,15.0,0.0,0.0
6959,96.0,0.0,15.0,0.0,0.0
6960,97.0,15.0,15.0,0.0,0.0
6961,56.0,15.0,150.0,7.0,0.0
6962,68.0,0.0,150.0,7.0,0.0
6963,96.0,0.0,15.0,0.0,0.0
6964,90.0,15.0,15.0,0.0,0.0
6965,96.0,0.0,15.0,0.0,0.0
6966,90.0,0.0,15.0,0.0,0.0
6967,84.0,0.0,15.0,0.0,0.0
6968,68.0,15.0,15.0,0.0,0.0
6969,51.0,5.0,40.0,3.0,0.0
6970,39.0,0.0,40.0,5.0,0.0
6971,75.0,0.0,15.0,0.0,0.0
6972,97.0,10.0,15.0,0.0,0.0
6973,76.0,0.0,15.0,0.0,0.0
6974,96.0,0.0,15.0,0.0,0.0
6975,84.0,0.0,15.0,0.0,0.0
6976,90.0,0.0,15.0,0.0,0.0
6977,75.0,0.0,15.0,0.0,0.0
6978,68.0,15.0,15.0,0.0,0.0
6979,33.0,0.0,40.0,5.0,0.0
6980,45.0,10.0,40.0,3.0,0.0
6981,97.0,15.0,15.0,0.0,0.0
6982,76.0,0.0,15.0,0.0,0.0
6983,84.0,0.0,15.0,0.0,0.0
6984,68.0,0.0,15.0,0.0,0.0
6985,75.0,0.0,15.0,0.0,0.0
6986,90.0,5.0,15.0,0.0,0.0
6987,96.0,0.0,15.0,0.0,0.0
6988,76.0,0.0,15.0,0.0,0.0
6989,97.0,15.0,15.0,0.0,0.0
6990,32.0,0.0,150.0,5.0,0.0
6991,44.0,0.0,150.0,3.0,0.0
6992,84.0,0.0,15.0,0.0,0.0
6993,75.0,0.0,15.0,0.0,0.0
6994,68.0,0.0,15.0,0.0,0.0
6995,90.0,0.0,15.0,0.0,0.0
6996,96.0,15.0,15.0,0.0,0.0
6997,76.0,0.0,15.0,0.0,0.0
6998,97.0,0.0,15.0,0.0,0.0
6999,51.0,0.0,40.0,7.0,0.0
7000,75.0,5.0,40.0,7.0,0.0
7001,63.0,0.0,40.0,7.0,0.0
7002,68.0,0.0,15.0,0.0,0.0
7003,75.0,15.0,15.0,0.0,0.0
7004,96.0,0.0,15.0,0.0,0.0
7005,90.0,0.0,15.0,0.0,0.0
7006,84.0,0.0,15.0,0.0,0.0
7007,76.0,10.0,15.0,0.0,0.0
7008,97.0,0.0,15.0,0.0,0.0
7009,84.0,15.0,15.0,0.0,0.0
7010,90.0,0.0,15.0,0.0,0.0
7011,96.0,0.0,15.0,0.0,0.0
7012,75.0,0.0,15.0,0.0,0.0
7013,68.0,0.0,15.0,0.0,0.0
7014,57.0,0.0,40.0,7.0,0.0
7015,45.0,10.0,40.0,7.0,0.0
7016,69.0,0.0,40.0,7.0,0.0
7017,97.0,15.0,15.0,0.0,0.0
7018,75.0,0.0,15.0,0.0,0.0
7019,68.0,5.0,15.0,0.0,0.0
7020,84.0,0.0,15.0,0.0,0.0
7021,96.0,0.0,15.0,0.0,0.0
7022,90.0,0.0,15.0,0.0,0.0
7023,76.0,15.0,15.0,0.0,0.0
7024,97.0,0.0,15.0,0.0,0.0
7025,44.0,0.0,40.0,7.0,0.0
7026,56.0,0.0,40.0,7.0,0.0
7027,68.0,0.0,40.0,7.0,0.0
7028,68.0,0.0,15.0,0.0,0.0
7029,96.0,0.0,15.0,0.0,0.0
7030,90.0,15.0,15.0,0.0,0.0
7031,84.0,0.0,15.0,0.0,0.0
7032,75.0,0.0,15.0,0.0,0.0
7033,97.0,15.0,15.0,0.0,0.0
7034,76.0,0.0,15.0,0.0,0.0
7035,56.0,0.0,120.0,3.0,0.0
7036,80.0,0.0,120.0,7.0,0.0
7037,75.0,0.0,15.0,0.0,0.0
7038,68.0,0.0,15.0,0.0,0.0
7039,84.0,0.0,15.0,0.0,0.0
7040,90.0,15.0,15.0,0.0,0.0
7041,96.0,0.0,15.0,0.0,0.0
7042,97.0,0.0,15.0,0.0,0.0
7043,76.0,15.0,15.0,0.0,0.0
7044,96.0,0.0,15.0,0.0,0.0
7045,90.0,0.0,15.0,0.0,0.0
7046,84.0,0.0,15.0,0.0,0.0
7047,75.0,0.0,15.0,0.0,0.0
7048,68.0,15.0,15.0,0.0,0.0
7049,97.0,15.0,15.0,0.0,0.0
7050,75.0,15.0,15.0,0.0,0.0
7051,68.0,0.0,15.0,0.0,0.0
7052,84.0,0.0,15.0,0.0,0.0
7053,90.0,0.0,15.0,0.0,0.0
7054,96.0,0.0,15.0,0.0,0.0
7055,97.0,0.0,15.0,0.0,0.0
7056,76.0,15.0,15.0,0.0,0.0
7057,90.0,0.0,15.0,0.0,0.0
7058,68.0,0.0,15.0,0.0,0.0
7059,84.0,0.0,15.0,0.0,0.0
7060,96.0,0.0,15.0,0.0,0.0
7061,75.0,15.0,15.0,0.0,0.0
7062,97.0,0.0,15.0,0.0,0.0
7063,76.0,0.0,15.0,0.0,0.0
7064,56.0,0.0,120.0,3.0,0.0
7065,75.0,0.0,15.0,0.0,0.0
7066,68.0,15.0,15.0,0.0,0.0
7067,84.0,0.0,15.0,0.0,0.0
7068,90.0,0.0,15.0,0.0,0.0
7069,96.0,0.0,15.0,0.0,0.0
7070,80.0,0.0,120.0,7.0,0.0
7071,66.0,0.0,15.0,7.0,0.0
7072,56.0,0.0,15.0,7.0,0.0
7073,44.0,15.0,15.0,5.0,0.0
7074,72.0,0.0,15.0,7.0,0.0
7075,63.0,0.0,15.0,7.0,0.0
7076,97.0,0.0,15.0,0.0,0.0
7077,76.0,15.0,15.0,0.0,0.0
7078,84.0,0.0,15.0,0.0,0.0
7079,75.0,0.0,15.0,0.0,0.0
7080,68.0,0.0,15.0,0.0,0.0
7081,90.0,0.0,15.0,0.0,0.0
7082,96.0,15.0,15.0,0.0,0.0
7083,97.0,0.0,15.0,0.0,0.0
7084,76.0,30.0,15.0,0.0,0.0
7085,73.0,0.0,30.0,0.0,0.0
7086,84.0,0.0,30.0,0.0,0.0
7087,68.0,0.0,30.0,0.0,0.0
7088,90.0,30.0,30.0,0.0,0.0
7089,94.0,0.0,30.0,0.0,0.0
7090,96.0,0.0,30.0,0.0,0.0
7091,75.0,0.0,30.0,0.0,0.0
7092,45.0,0.0,480.0,6.0,0.0
7093,73.0,0.0,360.0,10.0,0.0
7094,61.0,0.0,20.0,7.0,0.0
7095,61.0,0.0,120.0,4.0,0.0
7096,73.0,0.0,120.0,2.0,0.0
7097,33.0,0.0,480.0,5.0,0.0
7098,33.0,0.0,480.0,6.0,0.0
7099,73.0,0.0,120.0,4.0,0.0
7100,61.0,0.0,120.0,2.0,0.0
7101,61.0,0.0,360.0,10.0,0.0
7102,85.0,0.0,120.0,1.0,0.0
7103,73.0,0.0,120.0,1.0,0.0
7104,45.0,0.0,480.0,3.0,0.0
7105,45.0,0.0,480.0,8.0,0.0
7106,57.0,0.0,480.0,8.0,0.0
7107,61.0,2.0,360.0,12.0,0.0
7108,37.0,5.0,15.0,13.0,0.0
7109,49.0,0.0,15.0,7.0,0.0
7110,61.0,10.0,15.0,7.0,0.0
7111,61.0,0.0,20.0,7.0,0.0
7112,61.0,5.0,15.0,7.0,0.0
7113,37.0,15.0,15.0,13.0,0.0
7114,37.0,0.0,15.0,13.0,0.0
7115,61.0,0.0,15.0,7.0,0.0
7116,49.0,0.0,15.0,7.0,0.0
7117,61.0,15.0,15.0,7.0,0.0
7118,37.0,5.0,15.0,13.0,0.0
7119,49.0,0.0,15.0,7.0,0.0
7120,61.0,10.0,15.0,7.0,0.0
7121,61.0,0.0,20.0,7.0,0.0
7122,49.0,0.0,15.0,7.0,0.0
7123,61.0,5.0,15.0,7.0,0.0
7124,37.0,15.0,15.0,13.0,0.0
7125,37.0,0.0,15.0,13.0,0.0
7126,75.0,0.0,120.0,2.0,0.0
7127,63.0,0.0,120.0,2.0,0.0
7128,63.0,0.0,120.0,12.0,0.0
7129,63.0,13.0,120.0,4.0,0.0
7130,75.0,0.0,120.0,4.0,0.0
7131,61.0,0.0,15.0,7.0,0.0
7132,87.0,0.0,120.0,1.0,0.0
7133,75.0,0.0,120.0,1.0,0.0
7134,37.0,8.0,15.0,13.0,0.0
7135,49.0,0.0,15.0,7.0,0.0
7136,61.0,7.0,15.0,7.0,0.0
7137,37.0,13.0,15.0,13.0,0.0
7138,49.0,0.0,20.0,7.0,0.0
7139,61.0,2.0,15.0,7.0,0.0
7140,37.0,3.0,15.0,13.0,0.0
7141,61.0,0.0,15.0,7.0,0.0
7142,37.0,8.0,15.0,13.0,0.0
7143,61.0,0.0,15.0,7.0,0.0
7144,49.0,7.0,15.0,7.0,0.0
7145,37.0,13.0,15.0,13.0,0.0
7146,61.0,0.0,15.0,7.0,0.0
7147,61.0,2.0,15.0,7.0,0.0
7148,49.0,0.0,15.0,7.0,0.0
7149,37.0,3.0,15.0,13.0,0.0
7150,61.0,0.0,15.0,7.0,0.0
7151,76.0,0.0,240.0,2.0,0.0
7152,64.0,0.0,240.0,2.0,0.0
7153,76.0,0.0,240.0,1.0,0.0
7154,88.0,0.0,240.0,1.0,0.0
7155,64.0,0.0,240.0,12.0,0.0
7156,64.0,1.0,240.0,4.0,0.0
7157,76.0,0.0,240.0,4.0,0.0
7158,37.0,7.0,15.0,13.0,0.0
7159,49.0,8.0,15.0,7.0,0.0
7160,61.0,0.0,15.0,7.0,0.0
7161,61.0,0.0,15.0,7.0,0.0
7162,37.0,15.0,15.0,13.0,0.0
7163,49.0,13.0,20.0,7.0,0.0
7164,61.0,3.0,15.0,7.0,0.0
7165,37.0,2.0,15.0,13.0,0.0
7166,49.0,0.0,20.0,7.0,0.0
7167,37.0,9.0,15.0,13.0,0.0
7168,61.0,0.0,15.0,7.0,0.0
7169,61.0,6.0,15.0,7.0,0.0
7170,49.0,0.0,20.0,7.0,0.0
7171,37.0,15.0,15.0,13.0,0.0
7172,61.0,0.0,15.0,7.0,0.0
7173,49.0,12.0,20.0,7.0,0.0
7174,37.0,2.0,15.0,13.0,0.0
7175,37.0,6.0,15.0,13.0,0.0
7176,63.0,0.0,40.0,12.0,0.0
7177,51.0,0.0,15.0,7.0,0.0
7178,63.0,0.0,15.0,7.0,0.0
7179,37.0,11.0,15.0,13.0,0.0
7180,49.0,14.0,20.0,7.0,0.0
7181,61.0,0.0,20.0,7.0,0.0
7182,61.0,2.0,40.0,12.0,0.0
7183,37.0,15.0,15.0,13.0,0.0
7184,37.0,1.0,15.0,13.0,0.0
7185,49.0,0.0,20.0,7.0,0.0
7186,61.0,0.0,20.0,7.0,0.0
7187,37.0,12.0,15.0,13.0,0.0
7188,60.0,0.0,40.0,12.0,0.0
7189,60.0,0.0,20.0,7.0,0.0
7190,60.0,0.0,15.0,7.0,0.0
7191,60.0,0.0,20.0,7.0,0.0
7192,48.0,3.0,15.0,7.0,0.0
7193,37.0,15.0,15.0,13.0,0.0
7194,37.0,1.0,15.0,13.0,0.0
7195,73.0,2.0,360.0,10.0,0.0
7196,80.0,0.0,120.0,2.0,0.0
7197,68.0,0.0,120.0,2.0,0.0
7198,40.0,0.0,120.0,6.0,0.0
7199,68.0,20.0,120.0,12.0,0.0
7200,61.0,0.0,360.0,12.0,0.0
7201,40.0,0.0,120.0,3.0,0.0
7202,61.0,0.0,360.0,10.0,0.0
7203,52.0,0.0,120.0,8.0,0.0
7204,80.0,0.0,120.0,1.0,0.0
7205,28.0,0.0,120.0,5.0,0.0
7206,61.0,0.0,20.0,7.0,0.0
7207,68.0,0.0,120.0,4.0,0.0
7208,80.0,0.0,120.0,4.0,0.0
7209,49.0,0.0,15.0,7.0,0.0
7210,61.0,20.0,15.0,7.0,0.0
7211,49.0,20.0,15.0,7.0,0.0
7212,61.0,0.0,15.0,7.0,0.0
7213,49.0,20.0,15.0,7.0,0.0
7214,61.0,0.0,15.0,7.0,0.0
7215,61.0,0.0,15.0,7.0,0.0
7216,61.0,0.0,15.0,7.0,0.0
7217,61.0,0.0,20.0,7.0,0.0
7218,49.0,20.0,15.0,7.0,0.0
7219,61.0,0.0,15.0,7.0,0.0
7220,49.0,0.0,20.0,7.0,0.0
7221,61.0,0.0,15.0,7.0,0.0
7222,78.0,0.0,120.0,1.0,0.0
7223,78.0,0.0,120.0,4.0,0.0
7224,78.0,0.0,120.0,2.0,0.0
7225,66.0,0.0,120.0,2.0,0.0
7226,49.0,0.0,20.0,7.0,0.0
7227,66.0,0.0,120.0,4.0,0.0
7228,42.0,0.0,120.0,6.0,0.0
7229,30.0,0.0,120.0,5.0,0.0
7230,61.0,0.0,20.0,7.0,0.0
7231,54.0,0.0,120.0,8.0,0.0
7232,66.0,0.0,120.0,12.0,0.0
7233,42.0,0.0,120.0,3.0,0.0
7234,61.0,20.0,15.0,7.0,0.0
7235,61.0,0.0,20.0,7.0,0.0
7236,49.0,20.0,15.0,7.0,0.0
7237,61.0,0.0,15.0,7.0,0.0
7238,61.0,0.0,15.0,7.0,0.0
7239,49.0,20.0,15.0,7.0,0.0
7240,61.0,0.0,15.0,7.0,0.0
7241,61.0,20.0,15.0,7.0,0.0
7242,49.0,0.0,15.0,7.0,0.0
7243,49.0,20.0,15.0,7.0,0.0
7244,61.0,0.0,15.0,7.0,0.0
7245,61.0,0.0,15.0,7.0,0.0
7246,49.0,0.0,15.0,7.0,0.0
7247,64.0,0.0,120.0,12.0,0.0
7248,61.0,20.0,15.0,7.0,0.0
7249,76.0,0.0,120.0,2.0,0.0
7250,64.0,0.0,120.0,2.0,0.0
7251,44.0,0.0,240.0,3.0,0.0
7252,76.0,0.0,120.0,1.0,0.0
7253,44.0,0.0,240.0,6.0,0.0
7254,64.0,0.0,120.0,4.0,0.0
7255,76.0,0.0,120.0,4.0,0.0
7256,56.0,0.0,240.0,8.0,0.0
7257,32.0,0.0,240.0,5.0,0.0
7258,61.0,0.0,15.0,7.0,0.0
7259,61.0,0.0,20.0,7.0,0.0
7260,49.0,0.0,20.0,7.0,0.0
7261,49.0,0.0,20.0,7.0,0.0
7262,61.0,20.0,15.0,7.0,0.0
7263,61.0,0.0,15.0,7.0,0.0
7264,49.0,0.0,15.0,7.0,0.0
7265,61.0,0.0,20.0,7.0,0.0
7266,49.0,0.0,20.0,7.0,0.0
7267,61.0,18.0,15.0,7.0,0.0
7268,51.0,20.0,20.0,7.0,0.0
7269,63.0,0.0,20.0,7.0,0.0
7270,68.0,1.0,120.0,10.0,0.0
7271,78.0,20.0,60.0,1.0,0.0
7272,78.0,0.0,60.0,4.0,0.0
7273,66.0,0.0,60.0,4.0,0.0
7274,66.0,0.0,60.0,2.0,0.0
7275,78.0,0.0,60.0,2.0,0.0
7276,66.0,0.0,60.0,12.0,0.0
7277,63.0,20.0,40.0,12.0,0.0
7278,63.0,0.0,15.0,7.0,0.0
7279,51.0,0.0,20.0,7.0,0.0
7280,63.0,0.0,20.0,7.0,0.0
7281,49.0,0.0,20.0,7.0,0.0
7282,61.0,0.0,20.0,7.0,0.0
7283,61.0,2.0,40.0,12.0,0.0
7284,75.0,0.0,60.0,1.0,0.0
7285,75.0,0.0,60.0,2.0,0.0
7286,63.0,0.0,60.0,2.0,0.0
7287,63.0,0.0,60.0,4.0,0.0
7288,63.0,0.0,60.0,12.0,0.0
7289,75.0,0.0,60.0,4.0,0.0
7290,49.0,0.0,20.0,7.0,0.0
7291,61.0,0.0,20.0,7.0,0.0
7292,60.0,0.0,40.0,12.0,0.0
7293,48.0,0.0,20.0,7.0,0.0
7294,60.0,0.0,20.0,7.0,0.0
7295,48.0,0.0,20.0,7.0,0.0
7296,60.0,19.0,15.0,7.0,0.0
7297,73.0,0.0,360.0,2.0,0.0
7298,45.0,0.0,480.0,8.0,0.0
7299,61.0,0.0,120.0,4.0,0.0
7300,73.0,0.0,120.0,4.0,0.0
7301,57.0,0.0,480.0,8.0,0.0
7302,33.0,0.0,480.0,5.0,0.0
7303,61.0,0.0,360.0,12.0,0.0
7304,45.0,0.0,480.0,3.0,0.0
7305,61.0,2.0,360.0,10.0,0.0
7306,73.0,0.0,20.0,7.0,0.0
7307,49.0,12.0,120.0,6.0,0.0
7308,88.0,0.0,360.0,1.0,0.0
7309,37.0,0.0,120.0,6.0,0.0
7310,73.0,0.0,360.0,10.0,0.0
7311,37.0,5.0,15.0,13.0,0.0
7312,49.0,0.0,15.0,7.0,0.0
7313,73.0,0.0,20.0,7.0,0.0
7314,37.0,10.0,15.0,13.0,0.0
7315,49.0,0.0,20.0,7.0,0.0
7316,73.0,0.0,20.0,7.0,0.0
7317,37.0,15.0,15.0,13.0,0.0
7318,49.0,10.0,20.0,7.0,0.0
7319,37.0,5.0,15.0,13.0,0.0
7320,73.0,15.0,15.0,7.0,0.0
7321,73.0,0.0,20.0,7.0,0.0
7322,73.0,0.0,15.0,7.0,0.0
7323,37.0,10.0,15.0,13.0,0.0
7324,49.0,5.0,15.0,7.0,0.0
7325,73.0,0.0,15.0,7.0,0.0
7326,37.0,15.0,15.0,13.0,0.0
7327,37.0,0.0,15.0,13.0,0.0
7328,51.0,0.0,20.0,7.0,0.0
7329,73.0,0.0,15.0,7.0,0.0
7330,63.0,0.0,120.0,12.0,0.0
7331,39.0,0.0,120.0,6.0,0.0
7332,63.0,0.0,120.0,4.0,0.0
7333,51.0,0.0,120.0,6.0,0.0
7334,75.0,13.0,120.0,4.0,0.0
7335,73.0,7.0,15.0,7.0,0.0
7336,37.0,13.0,15.0,13.0,0.0
7337,51.0,0.0,15.0,7.0,0.0
7338,73.0,0.0,15.0,7.0,0.0
7339,73.0,0.0,20.0,7.0,0.0
7340,37.0,3.0,15.0,13.0,0.0
7341,37.0,8.0,15.0,13.0,0.0
7342,37.0,13.0,15.0,13.0,0.0
7343,73.0,0.0,15.0,7.0,0.0
7344,51.0,7.0,15.0,7.0,0.0
7345,51.0,0.0,20.0,7.0,0.0
7346,73.0,2.0,15.0,7.0,0.0
7347,37.0,15.0,15.0,13.0,0.0
7348,73.0,0.0,15.0,7.0,0.0
7349,52.0,0.0,240.0,6.0,0.0
7350,40.0,0.0,240.0,6.0,0.0
7351,73.0,0.0,15.0,7.0,0.0
7352,64.0,0.0,240.0,12.0,0.0
7353,64.0,0.0,240.0,4.0,0.0
7354,76.0,0.0,240.0,4.0,0.0
7355,37.0,7.0,15.0,13.0,0.0
7356,52.0,0.0,15.0,7.0,0.0
7357,73.0,8.0,15.0,7.0,0.0
7358,37.0,12.0,15.0,13.0,0.0
7359,73.0,3.0,15.0,7.0,0.0
7360,52.0,0.0,15.0,7.0,0.0
7361,73.0,0.0,20.0,7.0,0.0
7362,37.0,15.0,15.0,13.0,0.0
7363,37.0,2.0,15.0,13.0,0.0
7364,37.0,9.0,15.0,13.0,0.0
7365,73.0,0.0,15.0,7.0,0.0
7366,52.0,6.0,15.0,7.0,0.0
7367,73.0,0.0,20.0,7.0,0.0
7368,37.0,15.0,15.0,13.0,0.0
7369,73.0,1.0,15.0,7.0,0.0
7370,52.0,0.0,15.0,7.0,0.0
7371,73.0,0.0,20.0,7.0,0.0
7372,37.0,2.0,15.0,13.0,0.0
7373,87.0,0.0,40.0,1.0,0.0
7374,63.0,0.0,40.0,12.0,0.0
7375,75.0,0.0,20.0,7.0,0.0
7376,75.0,0.0,40.0,2.0,0.0
7377,52.0,0.0,15.0,7.0,0.0
7378,37.0,6.0,15.0,13.0,0.0
7379,52.0,0.0,15.0,7.0,0.0
7380,75.0,0.0,20.0,7.0,0.0
7381,37.0,11.0,15.0,13.0,0.0
7382,61.0,0.0,40.0,12.0,0.0
7383,52.0,14.0,20.0,7.0,0.0
7384,85.0,0.0,40.0,1.0,0.0
7385,73.0,0.0,20.0,7.0,0.0
7386,73.0,2.0,40.0,2.0,0.0
7387,37.0,1.0,15.0,13.0,0.0
7388,37.0,6.0,15.0,13.0,0.0
7389,52.0,0.0,20.0,7.0,0.0
7390,73.0,0.0,20.0,7.0,0.0
7391,37.0,12.0,15.0,13.0,0.0
7392,84.0,0.0,40.0,1.0,0.0
7393,60.0,1.0,40.0,12.0,0.0
7394,72.0,0.0,40.0,2.0,0.0
7395,72.0,0.0,20.0,7.0,0.0
7396,72.0,1.0,15.0,7.0,0.0
7397,52.0,2.0,15.0,7.0,0.0
7398,37.0,15.0,15.0,13.0,0.0
7399,37.0,1.0,15.0,13.0,0.0
7400,88.0,2.0,360.0,1.0,0.0
7401,73.0,0.0,360.0,2.0,0.0
7402,68.0,0.0,120.0,12.0,0.0
7403,40.0,0.0,120.0,3.0,0.0
7404,28.0,0.0,120.0,5.0,0.0
7405,80.0,0.0,120.0,4.0,0.0
7406,61.0,0.0,360.0,10.0,0.0
7407,61.0,0.0,360.0,12.0,0.0
7408,52.0,0.0,120.0,8.0,0.0
7409,68.0,20.0,120.0,4.0,0.0
7410,56.0,0.0,120.0,6.0,0.0
7411,73.0,0.0,360.0,10.0,0.0
7412,44.0,0.0,120.0,6.0,0.0
7413,56.0,0.0,15.0,7.0,0.0
7414,73.0,0.0,15.0,7.0,0.0
7415,73.0,20.0,15.0,7.0,0.0
7416,73.0,0.0,15.0,7.0,0.0
7417,73.0,0.0,20.0,7.0,0.0
7418,56.0,0.0,20.0,7.0,0.0
7419,73.0,20.0,15.0,7.0,0.0
7420,56.0,20.0,15.0,7.0,0.0
7421,73.0,0.0,20.0,7.0,0.0
7422,73.0,0.0,15.0,7.0,0.0
7423,73.0,0.0,20.0,7.0,0.0
7424,56.0,17.0,15.0,7.0,0.0
7425,54.0,0.0,120.0,8.0,0.0
7426,66.0,0.0,120.0,12.0,0.0
7427,73.0,0.0,15.0,7.0,0.0
7428,54.0,20.0,120.0,6.0,0.0
7429,42.0,0.0,120.0,6.0,0.0
7430,30.0,0.0,120.0,5.0,0.0
7431,78.0,0.0,120.0,4.0,0.0
7432,66.0,0.0,120.0,4.0,0.0
7433,42.0,0.0,120.0,3.0,0.0
7434,73.0,0.0,15.0,7.0,0.0
7435,54.0,20.0,15.0,7.0,0.0
7436,73.0,0.0,20.0,7.0,0.0
7437,73.0,20.0,15.0,7.0,0.0
7438,54.0,20.0,20.0,7.0,0.0
7439,73.0,0.0,15.0,7.0,0.0
7440,54.0,0.0,20.0,7.0,0.0
7441,54.0,0.0,20.0,7.0,0.0
7442,73.0,0.0,15.0,7.0,0.0
7443,73.0,20.0,15.0,7.0,0.0
7444,73.0,0.0,15.0,7.0,0.0
7445,54.0,0.0,20.0,7.0,0.0
7446,40.0,0.0,120.0,6.0,0.0
7447,44.0,0.0,240.0,3.0,0.0
7448,73.0,0.0,15.0,7.0,0.0
7449,73.0,0.0,15.0,7.0,0.0
7450,32.0,0.0,240.0,5.0,0.0
7451,56.0,0.0,240.0,8.0,0.0
7452,64.0,0.0,120.0,4.0,0.0
7453,52.0,0.0,120.0,6.0,0.0
7454,64.0,0.0,120.0,12.0,0.0
7455,76.0,0.0,120.0,4.0,0.0
7456,73.0,20.0,15.0,7.0,0.0
7457,52.0,0.0,15.0,7.0,0.0
7458,73.0,0.0,15.0,7.0,0.0
7459,52.0,20.0,15.0,7.0,0.0
7460,73.0,0.0,20.0,7.0,0.0
7461,73.0,0.0,15.0,7.0,0.0
7462,73.0,20.0,15.0,7.0,0.0
7463,52.0,0.0,15.0,7.0,0.0
7464,73.0,18.0,15.0,7.0,0.0
7465,52.0,0.0,15.0,7.0,0.0
7466,73.0,0.0,20.0,7.0,0.0
7467,66.0,0.0,60.0,12.0,0.0
7468,63.0,20.0,40.0,12.0,0.0
7469,75.0,0.0,40.0,2.0,0.0
7470,54.0,0.0,60.0,6.0,0.0
7471,78.0,20.0,60.0,4.0,0.0
7472,42.0,0.0,60.0,6.0,0.0
7473,51.0,20.0,20.0,7.0,0.0
7474,66.0,0.0,60.0,4.0,0.0
7475,68.0,0.0,120.0,10.0,0.0
7476,87.0,0.0,40.0,1.0,0.0
7477,63.0,0.0,15.0,7.0,0.0
7478,63.0,0.0,15.0,7.0,0.0
7479,51.0,0.0,20.0,7.0,0.0
7480,85.0,0.0,40.0,1.0,0.0
7481,73.0,2.0,40.0,2.0,0.0
7482,61.0,0.0,20.0,7.0,0.0
7483,61.0,0.0,40.0,12.0,0.0
7484,49.0,0.0,20.0,7.0,0.0
7485,51.0,0.0,60.0,6.0,0.0
7486,39.0,0.0,60.0,6.0,0.0
7487,63.0,0.0,60.0,12.0,0.0
7488,63.0,0.0,60.0,4.0,0.0
7489,75.0,0.0,60.0,4.0,0.0
7490,49.0,0.0,20.0,7.0,0.0
7491,61.0,0.0,20.0,7.0,0.0
7492,84.0,1.0,40.0,1.0,0.0
7493,72.0,0.0,40.0,2.0,0.0
7494,60.0,0.0,40.0,12.0,0.0
7495,48.0,19.0,20.0,7.0,0.0
7496,60.0,0.0,15.0,7.0,0.0
7497,48.0,0.0,20.0,7.0,0.0
7498,60.0,0.0,20.0,7.0,0.0
7499,51.0,0.0,20.0,7.0,0.0
7500,63.0,0.0,15.0,7.0,0.0
7501,63.0,20.0,15.0,7.0,0.0
7502,51.0,0.0,20.0,7.0,0.0
7503,49.0,0.0,20.0,7.0,0.0
7504,61.0,0.0,20.0,7.0,0.0
7505,49.0,0.0,20.0,7.0,0.0
7506,61.0,0.0,20.0,7.0,0.0
7507,60.0,0.0,20.0,7.0,0.0
7508,60.0,20.0,15.0,7.0,0.0
7509,48.0,0.0,15.0,7.0,0.0
7510,66.0,0.0,20.0,7.0,0.0
7511,66.0,0.0,15.0,7.0,0.0
7512,66.0,0.0,20.0,7.0,0.0
7513,54.0,20.0,15.0,7.0,0.0
7514,64.0,0.0,20.0,7.0,0.0
7515,52.0,0.0,15.0,7.0,0.0
7516,64.0,20.0,15.0,7.0,0.0
7517,64.0,0.0,20.0,7.0,0.0
7518,63.0,0.0,20.0,7.0,0.0
7519,63.0,0.0,15.0,7.0,0.0
7520,63.0,0.0,20.0,7.0,0.0
7521,51.0,20.0,15.0,7.0,0.0
7522,57.0,0.0,20.0,7.0,0.0
7523,69.0,0.0,15.0,7.0,0.0
7524,69.0,20.0,15.0,7.0,0.0
7525,57.0,0.0,20.0,7.0,0.0
7526,56.0,0.0,20.0,7.0,0.0
7527,68.0,0.0,20.0,7.0,0.0
7528,56.0,0.0,20.0,7.0,0.0
7529,68.0,20.0,15.0,7.0,0.0
7530,54.0,0.0,20.0,7.0,0.0
7531,66.0,0.0,15.0,7.0,0.0
7532,54.0,0.0,20.0,7.0,0.0
7533,66.0,20.0,15.0,7.0,0.0
7534,75.0,0.0,20.0,7.0,0.0
7535,75.0,0.0,15.0,7.0,0.0
7536,63.0,20.0,15.0,7.0,0.0
7537,75.0,0.0,20.0,7.0,0.0
7538,73.0,0.0,20.0,7.0,0.0
7539,61.0,0.0,15.0,7.0,0.0
7540,73.0,0.0,20.0,7.0,0.0
7541,60.0,20.0,15.0,7.0,0.0
7542,72.0,0.0,15.0,7.0,0.0
7543,72.0,0.0,20.0,7.0,0.0
7544,56.0,0.0,240.0,3.0,0.0
7545,63.0,0.0,360.0,4.0,0.0
7546,78.0,0.0,180.0,1.0,0.0
7547,71.0,0.0,240.0,4.0,0.0
7548,59.0,0.0,360.0,8.0,0.0
7549,44.0,0.0,240.0,5.0,0.0
7550,74.0,0.0,20.0,7.0,0.0
7551,78.0,20.0,180.0,7.0,0.0
7552,62.0,0.0,360.0,8.0,0.0
7553,71.0,0.0,240.0,2.0,0.0
7554,74.0,0.0,360.0,2.0,0.0
7555,44.0,0.0,240.0,6.0,0.0
7556,56.0,0.0,240.0,6.0,0.0
7557,56.0,0.0,240.0,12.0,0.0
7558,68.0,20.0,240.0,12.0,0.0
7559,74.0,20.0,20.0,7.0,0.0
7560,59.0,20.0,15.0,7.0,0.0
7561,73.0,0.0,20.0,7.0,0.0
7562,73.0,20.0,20.0,7.0,0.0
7563,61.0,20.0,15.0,7.0,0.0
7564,62.0,0.0,15.0,7.0,0.0
7565,71.0,20.0,15.0,7.0,0.0
7566,59.0,20.0,20.0,7.0,0.0
7567,74.0,0.0,15.0,7.0,0.0
7568,59.0,0.0,20.0,7.0,0.0
7569,61.0,0.0,20.0,7.0,0.0
7570,73.0,0.0,20.0,7.0,0.0
7571,61.0,20.0,20.0,7.0,0.0
7572,77.0,0.0,60.0,1.0,0.0
7573,73.0,0.0,20.0,7.0,0.0
7574,77.0,0.0,60.0,7.0,0.0
7575,71.0,0.0,20.0,7.0,0.0
7576,62.0,20.0,20.0,7.0,0.0
7577,62.0,0.0,20.0,7.0,0.0
7578,71.0,0.0,20.0,7.0,0.0
7579,37.0,0.0,120.0,5.0,0.0
7580,65.0,0.0,60.0,2.0,0.0
7581,49.0,20.0,120.0,3.0,0.0
7582,65.0,0.0,60.0,4.0,0.0
7583,49.0,0.0,120.0,6.0,0.0
7584,83.0,20.0,60.0,1.0,0.0
7585,49.0,0.0,120.0,12.0,0.0
7586,83.0,0.0,60.0,7.0,0.0
7587,37.0,0.0,120.0,6.0,0.0
7588,61.0,0.0,120.0,12.0,0.0
7589,53.0,20.0,15.0,7.0,0.0
7590,74.0,0.0,15.0,7.0,0.0
7591,73.0,0.0,20.0,7.0,0.0
7592,56.0,0.0,20.0,7.0,0.0
7593,80.0,0.0,60.0,1.0,0.0
7594,80.0,0.0,60.0,7.0,0.0
7595,73.0,20.0,20.0,7.0,0.0
7596,71.0,0.0,60.0,2.0,0.0
7597,56.0,0.0,20.0,7.0,0.0
7598,71.0,0.0,60.0,4.0,0.0
7599,62.0,0.0,20.0,7.0,0.0
7600,71.0,20.0,15.0,7.0,0.0
7601,62.0,0.0,20.0,7.0,0.0
7602,77.0,0.0,60.0,7.0,0.0
7603,69.0,20.0,60.0,4.0,0.0
7604,61.0,0.0,60.0,4.0,0.0
7605,73.0,0.0,60.0,2.0,0.0
7606,69.0,0.0,20.0,7.0,0.0
7607,57.0,0.0,120.0,8.0,0.0
7608,54.0,0.0,120.0,3.0,0.0
7609,42.0,20.0,120.0,5.0,0.0
7610,54.0,0.0,120.0,6.0,0.0
7611,42.0,0.0,120.0,6.0,0.0
7612,61.0,0.0,120.0,8.0,0.0
7613,77.0,0.0,60.0,1.0,0.0
7614,69.0,0.0,20.0,7.0,0.0
7615,61.0,20.0,15.0,7.0,0.0
7616,81.0,0.0,60.0,7.0,0.0
7617,59.0,0.0,15.0,7.0,0.0
7618,81.0,0.0,60.0,1.0,0.0
7619,69.0,0.0,15.0,2.0,0.0
7620,66.0,0.0,60.0,2.0,0.0
7621,68.0,0.0,15.0,7.0,0.0
7622,57.0,0.0,60.0,4.0,0.0
7623,66.0,0.0,60.0,4.0,0.0
7624,66.0,20.0,20.0,7.0,0.0
7625,57.0,0.0,15.0,7.0,0.0
7626,66.0,0.0,20.0,7.0,0.0
7627,75.0,20.0,60.0,2.0,0.0
7628,69.0,0.0,60.0,2.0,0.0
7629,36.0,0.0,60.0,5.0,0.0
7630,78.0,0.0,60.0,7.0,0.0
7631,69.0,0.0,60.0,4.0,0.0
7632,78.0,0.0,60.0,1.0,0.0
7633,48.0,0.0,60.0,6.0,0.0
7634,48.0,0.0,60.0,3.0,0.0
7635,51.0,0.0,15.0,7.0,0.0
7636,69.0,20.0,15.0,7.0,0.0
7637,66.0,0.0,20.0,7.0,0.0
7638,63.0,0.0,20.0,7.0,0.0
7639,61.0,0.0,60.0,12.0,0.0
7640,49.0,0.0,60.0,3.0,0.0
7641,37.0,0.0,60.0,5.0,0.0
7642,68.0,20.0,60.0,4.0,0.0
7643,49.0,0.0,60.0,12.0,0.0
7644,66.0,0.0,20.0,7.0,0.0
7645,63.0,20.0,20.0,7.0,0.0
7646,76.0,0.0,60.0,2.0,0.0
7647,68.0,0.0,60.0,2.0,0.0
7648,49.0,0.0,60.0,6.0,0.0
7649,68.0,0.0,15.0,7.0,0.0
7650,56.0,20.0,15.0,7.0,0.0
7651,73.0,20.0,20.0,7.0,0.0
7652,58.0,0.0,20.0,7.0,0.0
7653,70.0,0.0,60.0,2.0,0.0
7654,76.0,0.0,15.0,7.0,0.0
7655,30.0,0.0,60.0,5.0,0.0
7656,42.0,0.0,60.0,3.0,0.0
7657,76.0,0.0,15.0,1.0,0.0
7658,73.0,0.0,60.0,2.0,0.0
7659,70.0,0.0,60.0,4.0,0.0
7660,42.0,0.0,60.0,6.0,0.0
7661,58.0,0.0,20.0,7.0,0.0
7662,73.0,20.0,20.0,7.0,0.0
7663,61.0,0.0,20.0,7.0,0.0
7664,75.0,0.0,60.0,7.0,0.0
7665,32.0,0.0,60.0,5.0,0.0
7666,75.0,20.0,60.0,1.0,0.0
7667,72.0,0.0,60.0,2.0,0.0
7668,63.0,0.0,60.0,2.0,0.0
7669,44.0,0.0,60.0,6.0,0.0
7670,44.0,0.0,60.0,12.0,0.0
7671,44.0,0.0,60.0,3.0,0.0
7672,61.0,20.0,20.0,7.0,0.0
7673,63.0,0.0,60.0,4.0,0.0
7674,70.0,20.0,15.0,7.0,0.0
7675,56.0,0.0,60.0,12.0,0.0
7676,60.0,0.0,60.0,4.0,0.0
7677,72.0,0.0,20.0,7.0,0.0
7678,60.0,20.0,20.0,7.0,0.0
7679,72.0,0.0,20.0,7.0,0.0
7680,60.0,0.0,20.0,7.0,0.0
7681,69.0,0.0,15.0,7.0,0.0
7682,57.0,20.0,15.0,7.0,0.0
7683,56.0,20.0,20.0,7.0,0.0
7684,68.0,0.0,15.0,7.0,0.0
7685,56.0,20.0,20.0,7.0,0.0
7686,66.0,20.0,15.0,7.0,0.0
7687,54.0,0.0,15.0,7.0,0.0
7688,75.0,20.0,15.0,7.0,0.0
7689,63.0,0.0,15.0,7.0,0.0
7690,73.0,0.0,20.0,7.0,0.0
7691,73.0,20.0,20.0,7.0,0.0
7692,61.0,20.0,15.0,7.0,0.0
7693,60.0,0.0,20.0,7.0,0.0
7694,72.0,20.0,20.0,7.0,0.0
7695,72.0,20.0,20.0,7.0,0.0
7696,60.0,0.0,20.0,7.0,0.0
7697,59.0,0.0,20.0,7.0,0.0
7698,56.0,0.0,240.0,3.0,0.0
7699,56.0,0.0,240.0,12.0,0.0
7700,78.0,0.0,180.0,7.0,0.0
7701,56.0,0.0,240.0,6.0,0.0
7702,78.0,20.0,180.0,1.0,0.0
7703,74.0,0.0,240.0,2.0,0.0
7704,71.0,0.0,240.0,2.0,0.0
7705,71.0,0.0,240.0,4.0,0.0
7706,44.0,20.0,240.0,5.0,0.0
7707,59.0,0.0,20.0,7.0,0.0
7708,74.0,20.0,15.0,7.0,0.0
7709,73.0,0.0,20.0,7.0,0.0
7710,61.0,20.0,15.0,7.0,0.0
7711,73.0,20.0,20.0,7.0,0.0
7712,71.0,0.0,20.0,7.0,0.0
7713,71.0,0.0,20.0,7.0,0.0
7714,62.0,20.0,15.0,7.0,0.0
7715,74.0,0.0,15.0,7.0,0.0
7716,59.0,20.0,15.0,7.0,0.0
7717,61.0,0.0,20.0,7.0,0.0
7718,73.0,0.0,20.0,7.0,0.0
7719,73.0,0.0,20.0,7.0,0.0
7720,77.0,0.0,60.0,7.0,0.0
7721,61.0,20.0,20.0,7.0,0.0
7722,77.0,0.0,60.0,1.0,0.0
7723,71.0,20.0,15.0,7.0,0.0
7724,62.0,0.0,15.0,7.0,0.0
7725,74.0,0.0,20.0,7.0,0.0
7726,83.0,0.0,60.0,7.0,0.0
7727,65.0,0.0,60.0,4.0,0.0
7728,49.0,0.0,240.0,12.0,0.0
7729,62.0,0.0,15.0,4.0,0.0
7730,49.0,0.0,120.0,3.0,0.0
7731,49.0,20.0,120.0,6.0,0.0
7732,37.0,0.0,120.0,5.0,0.0
7733,74.0,0.0,60.0,2.0,0.0
7734,65.0,0.0,60.0,2.0,0.0
7735,83.0,0.0,60.0,1.0,0.0
7736,53.0,20.0,15.0,7.0,0.0
7737,74.0,0.0,20.0,7.0,0.0
7738,56.0,20.0,20.0,7.0,0.0
7739,73.0,0.0,20.0,7.0,0.0
7740,68.0,0.0,60.0,4.0,0.0
7741,59.0,0.0,60.0,4.0,0.0
7742,73.0,20.0,20.0,7.0,0.0
7743,80.0,0.0,60.0,1.0,0.0
7744,71.0,0.0,60.0,2.0,0.0
7745,68.0,0.0,60.0,2.0,0.0
7746,80.0,0.0,60.0,7.0,0.0
7747,56.0,0.0,20.0,7.0,0.0
7748,61.0,0.0,20.0,7.0,0.0
7749,71.0,20.0,20.0,7.0,0.0
7750,61.0,0.0,20.0,7.0,0.0
7751,71.0,0.0,20.0,7.0,0.0
7752,38.0,0.0,120.0,5.0,0.0
7753,65.0,0.0,60.0,4.0,0.0
7754,50.0,0.0,120.0,3.0,0.0
7755,57.0,0.0,120.0,4.0,0.0
7756,65.0,0.0,60.0,2.0,0.0
7757,77.0,20.0,60.0,7.0,0.0
7758,77.0,0.0,60.0,1.0,0.0
7759,50.0,0.0,120.0,6.0,0.0
7760,69.0,0.0,20.0,7.0,0.0
7761,69.0,0.0,60.0,2.0,0.0
7762,69.0,20.0,20.0,7.0,0.0
7763,50.0,20.0,15.0,7.0,0.0
7764,68.0,0.0,15.0,7.0,0.0
7765,57.0,0.0,15.0,7.0,0.0
7766,66.0,0.0,60.0,2.0,0.0
7767,81.0,0.0,60.0,7.0,0.0
7768,66.0,20.0,60.0,4.0,0.0
7769,62.0,20.0,20.0,7.0,0.0
7770,66.0,0.0,20.0,7.0,0.0
7771,66.0,0.0,20.0,7.0,0.0
7772,65.0,0.0,180.0,2.0,0.0
7773,74.0,0.0,180.0,2.0,0.0
7774,81.0,0.0,180.0,7.0,0.0
7775,62.0,0.0,15.0,7.0,0.0
7776,81.0,0.0,15.0,1.0,0.0
7777,77.0,0.0,20.0,7.0,0.0
7778,65.0,0.0,180.0,4.0,0.0
7779,62.0,0.0,180.0,4.0,0.0
7780,77.0,20.0,20.0,7.0,0.0
7781,62.0,20.0,15.0,7.0,0.0
7782,64.0,0.0,20.0,7.0,0.0
7783,35.0,0.0,60.0,5.0,0.0
7784,47.0,0.0,60.0,3.0,0.0
7785,64.0,20.0,20.0,7.0,0.0
7786,47.0,0.0,60.0,6.0,0.0
7787,76.0,20.0,15.0,7.0,0.0
7788,65.0,20.0,20.0,7.0,0.0
7789,74.0,0.0,15.0,7.0,0.0
7790,65.0,20.0,20.0,7.0,0.0
7791,77.0,0.0,20.0,7.0,0.0
7792,28.0,20.0,60.0,5.0,0.0
7793,40.0,0.0,60.0,6.0,0.0
7794,40.0,0.0,60.0,3.0,0.0
7795,77.0,20.0,20.0,7.0,0.0
7796,62.0,20.0,15.0,7.0,0.0
7797,64.0,0.0,20.0,7.0,0.0
7798,76.0,0.0,20.0,7.0,0.0
7799,52.0,0.0,60.0,6.0,0.0
7800,64.0,0.0,20.0,7.0,0.0
7801,68.0,20.0,60.0,4.0,0.0
7802,52.0,0.0,60.0,3.0,0.0
7803,40.0,0.0,60.0,5.0,0.0
7804,76.0,20.0,20.0,7.0,0.0
7805,71.0,0.0,60.0,2.0,0.0
7806,68.0,0.0,60.0,2.0,0.0
7807,80.0,0.0,60.0,1.0,0.0
7808,59.0,0.0,60.0,4.0,0.0
7809,80.0,0.0,60.0,7.0,0.0
7810,74.0,0.0,20.0,7.0,0.0
7811,74.0,0.0,20.0,7.0,0.0
7812,65.0,20.0,15.0,7.0,0.0
7813,83.0,0.0,180.0,7.0,0.0
7814,76.0,0.0,180.0,2.0,0.0
7815,67.0,0.0,180.0,2.0,0.0
7816,64.0,20.0,20.0,7.0,0.0
7817,83.0,20.0,180.0,1.0,0.0
7818,79.0,0.0,20.0,7.0,0.0
7819,67.0,0.0,180.0,4.0,0.0
7820,64.0,0.0,180.0,4.0,0.0
7821,79.0,0.0,20.0,7.0,0.0
7822,64.0,20.0,20.0,7.0,0.0
7823,66.0,20.0,20.0,7.0,0.0
7824,78.0,0.0,20.0,7.0,0.0
7825,49.0,20.0,60.0,3.0,0.0
7826,37.0,0.0,60.0,5.0,0.0
7827,49.0,0.0,60.0,6.0,0.0
7828,66.0,0.0,20.0,7.0,0.0
7829,78.0,20.0,20.0,7.0,0.0
7830,76.0,0.0,20.0,7.0,0.0
7831,67.0,20.0,15.0,7.0,0.0
7832,76.0,0.0,20.0,7.0,0.0
7833,79.0,20.0,20.0,7.0,0.0
7834,30.0,0.0,60.0,5.0,0.0
7835,42.0,0.0,60.0,6.0,0.0
7836,42.0,0.0,60.0,3.0,0.0
7837,64.0,0.0,15.0,7.0,0.0
7838,79.0,20.0,20.0,7.0,0.0
7839,66.0,0.0,20.0,7.0,0.0
7840,78.0,0.0,20.0,7.0,0.0
7841,73.0,0.0,60.0,2.0,0.0
7842,70.0,0.0,60.0,2.0,0.0
7843,54.0,0.0,60.0,3.0,0.0
7844,82.0,0.0,60.0,7.0,0.0
7845,78.0,20.0,20.0,7.0,0.0
7846,42.0,0.0,60.0,5.0,0.0
7847,61.0,0.0,60.0,4.0,0.0
7848,54.0,0.0,60.0,6.0,0.0
7849,82.0,0.0,60.0,1.0,0.0
7850,70.0,20.0,60.0,4.0,0.0
7851,66.0,0.0,20.0,7.0,0.0
7852,67.0,0.0,20.0,7.0,0.0
7853,76.0,20.0,20.0,7.0,0.0
7854,67.0,0.0,20.0,7.0,0.0
7855,76.0,0.0,20.0,7.0,0.0
7856,85.0,0.0,180.0,1.0,0.0
7857,73.0,0.0,180.0,1.0,0.0
7858,63.0,20.0,240.0,12.0,0.0
7859,85.0,0.0,180.0,7.0,0.0
7860,69.0,0.0,240.0,4.0,0.0
7861,69.0,0.0,240.0,2.0,0.0
7862,78.0,0.0,240.0,2.0,0.0
7863,81.0,20.0,15.0,7.0,0.0
7864,66.0,0.0,15.0,7.0,0.0
7865,80.0,0.0,20.0,7.0,0.0
7866,68.0,20.0,15.0,7.0,0.0
7867,51.0,0.0,60.0,3.0,0.0
7868,51.0,20.0,60.0,6.0,0.0
7869,80.0,0.0,20.0,7.0,0.0
7870,39.0,0.0,60.0,5.0,0.0
7871,78.0,0.0,20.0,7.0,0.0
7872,69.0,20.0,20.0,7.0,0.0
7873,78.0,0.0,20.0,7.0,0.0
7874,69.0,0.0,20.0,7.0,0.0
7875,66.0,20.0,20.0,7.0,0.0
7876,32.0,0.0,60.0,5.0,0.0
7877,44.0,0.0,60.0,6.0,0.0
7878,44.0,0.0,60.0,3.0,0.0
7879,81.0,0.0,20.0,7.0,0.0
7880,66.0,20.0,20.0,7.0,0.0
7881,81.0,0.0,20.0,7.0,0.0
7882,72.0,0.0,60.0,1.0,0.0
7883,84.0,0.0,60.0,1.0,0.0
7884,80.0,0.0,15.0,7.0,0.0
7885,44.0,0.0,60.0,5.0,0.0
7886,56.0,0.0,60.0,3.0,0.0
7887,56.0,0.0,60.0,6.0,0.0
7888,84.0,0.0,60.0,7.0,0.0
7889,68.0,20.0,15.0,7.0,0.0
7890,78.0,0.0,20.0,7.0,0.0
7891,78.0,0.0,20.0,7.0,0.0
7892,69.0,20.0,15.0,7.0,0.0
7893,44.0,0.0,60.0,3.0,0.0
7894,66.0,0.0,15.0,4.0,0.0
7895,90.0,0.0,60.0,1.0,0.0
7896,69.0,0.0,60.0,2.0,0.0
7897,72.0,0.0,60.0,2.0,0.0
7898,81.0,0.0,20.0,7.0,0.0
7899,44.0,0.0,60.0,6.0,0.0
7900,78.0,20.0,60.0,1.0,0.0
7901,69.0,0.0,60.0,4.0,0.0
7902,32.0,0.0,60.0,5.0,0.0
7903,90.0,0.0,60.0,7.0,0.0
7904,56.0,0.0,240.0,12.0,0.0
7905,81.0,0.0,20.0,7.0,0.0
7906,60.0,20.0,15.0,7.0,0.0
7907,80.0,0.0,20.0,7.0,0.0
7908,61.0,0.0,15.0,7.0,0.0
7909,80.0,20.0,20.0,7.0,0.0
7910,44.0,0.0,60.0,5.0,0.0
7911,66.0,0.0,60.0,2.0,0.0
7912,87.0,0.0,60.0,1.0,0.0
7913,56.0,0.0,60.0,6.0,0.0
7914,66.0,0.0,15.0,4.0,0.0
7915,63.0,0.0,60.0,4.0,0.0
7916,75.0,0.0,60.0,2.0,0.0
7917,87.0,0.0,60.0,7.0,0.0
7918,56.0,20.0,60.0,3.0,0.0
7919,75.0,0.0,60.0,1.0,0.0
7920,78.0,0.0,20.0,7.0,0.0
7921,63.0,20.0,20.0,7.0,0.0
7922,78.0,0.0,20.0,7.0,0.0
7923,63.0,0.0,20.0,7.0,0.0
7924,76.0,0.0,20.0,7.0,0.0
7925,64.0,0.0,60.0,2.0,0.0
7926,72.0,0.0,60.0,2.0,0.0
7927,45.0,0.0,60.0,6.0,0.0
7928,69.0,0.0,60.0,4.0,0.0
7929,60.0,20.0,20.0,7.0,0.0
7930,72.0,0.0,60.0,1.0,0.0
7931,84.0,20.0,60.0,1.0,0.0
7932,84.0,0.0,60.0,7.0,0.0
7933,33.0,0.0,60.0,5.0,0.0
7934,45.0,0.0,60.0,3.0,0.0
7935,60.0,20.0,20.0,7.0,0.0
7936,76.0,0.0,20.0,7.0,0.0
7937,75.0,0.0,20.0,7.0,0.0
7938,61.0,0.0,20.0,7.0,0.0
7939,64.0,0.0,15.0,4.0,0.0
7940,75.0,0.0,20.0,7.0,0.0
7941,61.0,0.0,60.0,2.0,0.0
7942,73.0,0.0,60.0,2.0,0.0
7943,61.0,20.0,20.0,7.0,0.0
7944,61.0,0.0,60.0,4.0,0.0
7945,57.0,0.0,60.0,6.0,0.0
7946,45.0,0.0,60.0,5.0,0.0
7947,57.0,0.0,60.0,3.0,0.0
7948,85.0,0.0,60.0,7.0,0.0
7949,85.0,0.0,60.0,1.0,0.0
7950,73.0,20.0,60.0,1.0,0.0
7951,73.0,20.0,15.0,7.0,0.0
7952,63.0,0.0,15.0,7.0,0.0
7953,57.0,20.0,60.0,8.0,0.0
7954,36.0,0.0,60.0,5.0,0.0
7955,63.0,20.0,20.0,7.0,0.0
7956,48.0,0.0,60.0,3.0,0.0
7957,81.0,0.0,60.0,7.0,0.0
7958,69.0,0.0,60.0,4.0,0.0
7959,81.0,0.0,60.0,1.0,0.0
7960,63.0,0.0,60.0,4.0,0.0
7961,78.0,0.0,60.0,2.0,0.0
7962,75.0,0.0,60.0,2.0,0.0
7963,48.0,0.0,60.0,6.0,0.0
7964,78.0,0.0,60.0,1.0,0.0
7965,78.0,0.0,20.0,7.0,0.0
7966,63.0,20.0,20.0,7.0,0.0
7967,78.0,0.0,20.0,7.0,0.0
7968,49.0,0.0,60.0,12.0,0.0
7969,61.0,0.0,60.0,12.0,0.0
7970,75.0,0.0,15.0,7.0,0.0
7971,49.0,20.0,60.0,3.0,0.0
7972,76.0,0.0,60.0,2.0,0.0
7973,68.0,0.0,60.0,4.0,0.0
7974,64.0,0.0,60.0,4.0,0.0
7975,68.0,0.0,60.0,2.0,0.0
7976,37.0,0.0,60.0,5.0,0.0
7977,49.0,0.0,60.0,6.0,0.0
7978,76.0,0.0,60.0,1.0,0.0
7979,80.0,0.0,60.0,1.0,0.0
7980,66.0,0.0,15.0,7.0,0.0
7981,56.0,0.0,60.0,8.0,0.0
7982,64.0,0.0,20.0,7.0,0.0
7983,76.0,20.0,20.0,7.0,0.0
7984,76.0,0.0,20.0,7.0,0.0
7985,64.0,0.0,20.0,7.0,0.0
7986,80.0,0.0,15.0,7.0,0.0
7987,76.0,20.0,20.0,7.0,0.0
7988,61.0,0.0,20.0,7.0,0.0
7989,73.0,0.0,60.0,2.0,0.0
7990,76.0,0.0,60.0,2.0,0.0
7991,44.0,0.0,60.0,6.0,0.0
7992,58.0,0.0,60.0,4.0,0.0
7993,44.0,20.0,60.0,3.0,0.0
7994,32.0,0.0,60.0,5.0,0.0
7995,73.0,0.0,60.0,1.0,0.0
7996,44.0,0.0,60.0,12.0,0.0
7997,56.0,0.0,60.0,12.0,0.0
7998,80.0,0.0,60.0,1.0,0.0
7999,68.0,0.0,60.0,4.0,0.0
8000,76.0,20.0,20.0,7.0,0.0
8001,61.0,0.0,20.0,7.0,0.0
8002,58.0,0.0,20.0,7.0,0.0
8003,75.0,0.0,60.0,2.0,0.0
8004,56.0,0.0,60.0,6.0,0.0
8005,72.0,0.0,60.0,1.0,0.0
8006,75.0,0.0,60.0,1.0,0.0
8007,73.0,0.0,15.0,7.0,0.0
8008,60.0,0.0,60.0,4.0,0.0
8009,72.0,0.0,60.0,2.0,0.0
8010,56.0,0.0,60.0,3.0,0.0
8011,44.0,0.0,60.0,5.0,0.0
8012,58.0,20.0,20.0,7.0,0.0
8013,75.0,0.0,20.0,7.0,0.0
8014,60.0,20.0,15.0,7.0,0.0
8015,75.0,0.0,20.0,7.0,0.0
8016,36.0,0.0,60.0,5.0,0.0
8017,48.0,0.0,60.0,3.0,0.0
8018,69.0,0.0,60.0,4.0,0.0
8019,63.0,0.0,15.0,4.0,0.0
8020,57.0,0.0,60.0,8.0,0.0
8021,78.0,0.0,60.0,1.0,0.0
8022,81.0,0.0,60.0,1.0,0.0
8023,78.0,0.0,60.0,2.0,0.0
8024,75.0,0.0,60.0,2.0,0.0
8025,78.0,0.0,20.0,7.0,0.0
8026,81.0,0.0,60.0,7.0,0.0
8027,48.0,0.0,60.0,6.0,0.0
8028,78.0,20.0,20.0,7.0,0.0
8029,63.0,20.0,15.0,7.0,0.0
8030,75.0,0.0,20.0,7.0,0.0
8031,75.0,20.0,20.0,7.0,0.0
8032,56.0,0.0,60.0,8.0,0.0
8033,64.0,0.0,60.0,4.0,0.0
8034,49.0,0.0,60.0,12.0,0.0
8035,61.0,0.0,60.0,12.0,0.0
8036,49.0,0.0,60.0,3.0,0.0
8037,76.0,0.0,60.0,2.0,0.0
8038,68.0,0.0,60.0,2.0,0.0
8039,66.0,20.0,15.0,7.0,0.0
8040,49.0,20.0,60.0,6.0,0.0
8041,37.0,0.0,60.0,5.0,0.0
8042,76.0,0.0,60.0,1.0,0.0
8043,80.0,0.0,60.0,1.0,0.0
8044,64.0,20.0,20.0,7.0,0.0
8045,76.0,0.0,15.0,7.0,0.0
8046,64.0,0.0,20.0,7.0,0.0
8047,73.0,0.0,60.0,2.0,0.0
8048,44.0,0.0,60.0,3.0,0.0
8049,80.0,0.0,60.0,1.0,0.0
8050,58.0,0.0,60.0,4.0,0.0
8051,76.0,0.0,60.0,2.0,0.0
8052,56.0,0.0,60.0,12.0,0.0
8053,76.0,0.0,20.0,7.0,0.0
8054,44.0,0.0,60.0,12.0,0.0
8055,68.0,0.0,15.0,4.0,0.0
8056,80.0,0.0,15.0,7.0,0.0
8057,32.0,0.0,60.0,5.0,0.0
8058,44.0,0.0,60.0,6.0,0.0
8059,73.0,0.0,60.0,1.0,0.0
8060,61.0,20.0,15.0,7.0,0.0
8061,76.0,20.0,20.0,7.0,0.0
8062,72.0,0.0,60.0,2.0,0.0
8063,58.0,20.0,15.0,7.0,0.0
8064,44.0,0.0,60.0,5.0,0.0
8065,63.0,0.0,60.0,4.0,0.0
8066,75.0,0.0,60.0,1.0,0.0
8067,72.0,0.0,60.0,1.0,0.0
8068,60.0,0.0,60.0,4.0,0.0
8069,56.0,0.0,60.0,3.0,0.0
8070,73.0,0.0,15.0,7.0,0.0
8071,75.0,0.0,60.0,2.0,0.0
8072,56.0,0.0,60.0,6.0,0.0
8073,60.0,0.0,20.0,7.0,0.0
8074,75.0,20.0,15.0,7.0,0.0
8075,60.0,0.0,20.0,7.0,0.0
8076,69.0,0.0,20.0,7.0,0.0
8077,57.0,0.0,360.0,8.0,0.0
8078,81.0,0.0,360.0,1.0,0.0
8079,81.0,1.0,360.0,2.0,0.0
8080,69.0,0.0,360.0,4.0,0.0
8081,81.0,0.0,360.0,4.0,0.0
8082,69.0,1.0,360.0,2.0,0.0
8083,57.0,20.0,15.0,7.0,0.0
8084,69.0,20.0,20.0,7.0,0.0
8085,57.0,0.0,15.0,7.0,0.0
8086,69.0,20.0,20.0,7.0,0.0
8087,57.0,0.0,15.0,7.0,0.0
8088,57.0,0.0,15.0,7.0,0.0
8089,69.0,20.0,15.0,7.0,0.0
8090,57.0,20.0,20.0,7.0,0.0
8091,69.0,0.0,15.0,7.0,0.0
8092,57.0,0.0,20.0,7.0,0.0
8093,69.0,20.0,15.0,7.0,0.0
8094,57.0,20.0,20.0,7.0,0.0
8095,69.0,0.0,15.0,7.0,0.0
8096,57.0,0.0,20.0,7.0,0.0
8097,69.0,20.0,15.0,7.0,0.0
8098,57.0,0.0,20.0,7.0,0.0
8099,69.0,20.0,15.0,7.0,0.0
8100,69.0,20.0,20.0,7.0,0.0
8101,57.0,20.0,15.0,7.0,0.0
8102,51.0,2.0,480.0,7.0,0.0
8103,24.0,1.0,480.0,5.0,0.0
8104,36.0,0.0,480.0,6.0,0.0
8105,51.0,0.0,480.0,6.0,0.0
8106,36.0,0.0,480.0,3.0,0.0
8107,57.0,20.0,20.0,7.0,0.0
8108,69.0,0.0,20.0,7.0,0.0
8109,69.0,0.0,20.0,7.0,0.0
8110,57.0,20.0,20.0,7.0,0.0
8111,69.0,22.0,20.0,7.0,0.0
8112,57.0,0.0,20.0,7.0,0.0
8113,69.0,20.0,20.0,7.0,0.0
8114,57.0,0.0,15.0,7.0,0.0
8115,57.0,0.0,15.0,7.0,0.0
8116,69.0,18.0,15.0,7.0,0.0
8117,56.0,1.0,480.0,8.0,0.0
8118,80.0,20.0,120.0,4.0,0.0
8119,80.0,0.0,120.0,2.0,0.0
8120,68.0,0.0,120.0,2.0,0.0
8121,68.0,20.0,20.0,7.0,0.0
8122,68.0,0.0,120.0,4.0,0.0
8123,80.0,0.0,120.0,1.0,0.0
8124,56.0,0.0,15.0,7.0,0.0
8125,68.0,20.0,20.0,7.0,0.0
8126,56.0,0.0,20.0,7.0,0.0
8127,68.0,20.0,15.0,7.0,0.0
8128,56.0,0.0,20.0,7.0,0.0
8129,56.0,0.0,20.0,7.0,0.0
8130,68.0,20.0,15.0,7.0,0.0
8131,56.0,0.0,20.0,7.0,0.0
8132,68.0,0.0,20.0,7.0,0.0
8133,79.0,2.0,120.0,4.0,0.0
8134,67.0,0.0,120.0,4.0,0.0
8135,67.0,0.0,15.0,7.0,0.0
8136,55.0,20.0,15.0,7.0,0.0
8137,55.0,0.0,20.0,7.0,0.0
8138,67.0,22.0,20.0,7.0,0.0
8139,67.0,20.0,15.0,7.0,0.0
8140,55.0,0.0,15.0,7.0,0.0
8141,55.0,0.0,15.0,7.0,0.0
8142,67.0,18.0,15.0,7.0,0.0
8143,78.0,0.0,120.0,4.0,0.0
8144,66.0,0.0,120.0,4.0,0.0
8145,66.0,0.0,20.0,7.0,0.0
8146,54.0,20.0,20.0,7.0,0.0
8147,66.0,0.0,20.0,7.0,0.0
8148,54.0,20.0,15.0,7.0,0.0
8149,66.0,20.0,20.0,7.0,0.0
8150,66.0,0.0,20.0,7.0,0.0
8151,54.0,20.0,20.0,7.0,0.0
8152,66.0,0.0,20.0,7.0,0.0
8153,54.0,17.0,15.0,7.0,0.0
8154,66.0,20.0,20.0,7.0,0.0
8155,37.0,1.0,240.0,3.0,0.0
8156,44.0,0.0,240.0,7.0,0.0
8157,53.0,0.0,20.0,7.0,0.0
8158,44.0,0.0,240.0,6.0,0.0
8159,37.0,0.0,240.0,6.0,0.0
8160,65.0,0.0,120.0,4.0,0.0
8161,77.0,2.0,120.0,4.0,0.0
8162,25.0,19.0,240.0,5.0,0.0
8163,65.0,20.0,15.0,7.0,0.0
8164,65.0,0.0,15.0,7.0,0.0
8165,53.0,20.0,15.0,7.0,0.0
8166,53.0,0.0,20.0,7.0,0.0
8167,65.0,20.0,20.0,7.0,0.0
8168,53.0,0.0,20.0,7.0,0.0
8169,65.0,17.0,15.0,7.0,0.0
8170,53.0,18.0,20.0,7.0,0.0
8171,76.0,1.0,120.0,4.0,0.0
8172,64.0,0.0,120.0,4.0,0.0
8173,64.0,0.0,15.0,7.0,0.0
8174,52.0,20.0,15.0,7.0,0.0
8175,52.0,20.0,15.0,7.0,0.0
8176,64.0,0.0,15.0,7.0,0.0
8177,52.0,0.0,15.0,7.0,0.0
8178,64.0,20.0,15.0,7.0,0.0
8179,52.0,20.0,15.0,7.0,0.0
8180,64.0,0.0,15.0,7.0,0.0
8181,52.0,19.0,15.0,7.0,0.0
8182,63.0,20.0,20.0,7.0,0.0
8183,57.0,0.0,240.0,7.0,0.0
8184,42.0,0.0,240.0,3.0,0.0
8185,45.0,2.0,240.0,7.0,0.0
8186,75.0,2.0,120.0,4.0,0.0
8187,63.0,0.0,120.0,4.0,0.0
8188,42.0,0.0,240.0,6.0,0.0
8189,45.0,0.0,240.0,6.0,0.0
8190,30.0,18.0,240.0,5.0,0.0
8191,63.0,20.0,15.0,7.0,0.0
8192,63.0,20.0,15.0,7.0,0.0
8193,63.0,18.0,20.0,7.0,0.0
8194,62.0,0.0,120.0,4.0,0.0
8195,62.0,20.0,20.0,7.0,0.0
8196,74.0,0.0,120.0,4.0,0.0
8197,62.0,20.0,20.0,7.0,0.0
8198,62.0,20.0,20.0,7.0,0.0
8199,62.0,20.0,15.0,7.0,0.0
8200,62.0,20.0,15.0,7.0,0.0
8201,61.0,0.0,120.0,4.0,0.0
8202,73.0,2.0,120.0,4.0,0.0
8203,61.0,20.0,20.0,7.0,0.0
8204,53.0,1.0,240.0,7.0,0.0
8205,53.0,0.0,240.0,6.0,0.0
8206,50.0,0.0,240.0,6.0,0.0
8207,62.0,1.0,240.0,7.0,0.0
8208,44.0,3.0,240.0,3.0,0.0
8209,32.0,15.0,240.0,5.0,0.0
8210,61.0,20.0,20.0,7.0,0.0
8211,61.0,22.0,20.0,7.0,0.0
8212,61.0,20.0,20.0,7.0,0.0
8213,61.0,18.0,15.0,7.0,0.0
8214,59.0,0.0,120.0,4.0,0.0
8215,71.0,0.0,120.0,4.0,0.0
8216,59.0,20.0,20.0,7.0,0.0
8217,59.0,20.0,15.0,7.0,0.0
8218,59.0,20.0,20.0,7.0,0.0
8219,59.0,20.0,15.0,7.0,0.0
8220,33.0,20.0,60.0,5.0,0.0
8221,57.0,20.0,20.0,7.0,0.0
8222,61.0,0.0,20.0,7.0,0.0
8223,45.0,0.0,60.0,3.0,0.0
8224,49.0,0.0,60.0,6.0,0.0
8225,52.0,0.0,60.0,7.0,0.0
8226,69.0,0.0,60.0,4.0,0.0
8227,57.0,0.0,60.0,4.0,0.0
8228,52.0,0.0,60.0,6.0,0.0
8229,57.0,20.0,20.0,7.0,0.0
8230,61.0,0.0,20.0,7.0,0.0
8231,57.0,0.0,20.0,7.0,0.0
8232,57.0,0.0,20.0,7.0,0.0
8233,61.0,0.0,15.0,7.0,0.0
8234,61.0,20.0,15.0,7.0,0.0
8235,57.0,20.0,20.0,7.0,0.0
8236,61.0,0.0,15.0,7.0,0.0
8237,57.0,0.0,20.0,7.0,0.0
8238,61.0,20.0,15.0,7.0,0.0
8239,61.0,20.0,240.0,12.0,0.0
8240,57.0,0.0,15.0,7.0,0.0
8241,61.0,20.0,20.0,7.0,0.0
8242,57.0,0.0,15.0,7.0,0.0
8243,61.0,0.0,20.0,7.0,0.0
8244,57.0,20.0,15.0,7.0,0.0
8245,61.0,20.0,15.0,7.0,0.0
8246,57.0,0.0,15.0,7.0,0.0
8247,57.0,0.0,15.0,7.0,0.0
8248,61.0,20.0,15.0,7.0,0.0
8249,57.0,20.0,15.0,7.0,0.0
8250,61.0,0.0,15.0,7.0,0.0
8251,61.0,20.0,15.0,7.0,0.0
8252,57.0,0.0,15.0,7.0,0.0
8253,61.0,20.0,15.0,7.0,0.0
8254,61.0,20.0,15.0,7.0,0.0
8255,57.0,0.0,15.0,7.0,0.0
8256,61.0,20.0,15.0,7.0,0.0
8257,57.0,0.0,15.0,7.0,0.0
8258,57.0,0.0,15.0,7.0,0.0
8259,63.0,0.0,120.0,12.0,0.0
8260,61.0,20.0,20.0,7.0,0.0
8261,61.0,20.0,15.0,7.0,0.0
8262,57.0,0.0,15.0,7.0,0.0
8263,61.0,20.0,15.0,7.0,0.0
8264,57.0,0.0,20.0,7.0,0.0
8265,57.0,20.0,20.0,7.0,0.0
8266,61.0,20.0,15.0,7.0,0.0
8267,57.0,0.0,20.0,7.0,0.0
8268,61.0,20.0,15.0,7.0,0.0
8269,64.0,0.0,120.0,12.0,0.0
8270,57.0,20.0,15.0,7.0,0.0
8271,61.0,20.0,15.0,7.0,0.0
8272,61.0,20.0,15.0,7.0,0.0
8273,57.0,0.0,15.0,7.0,0.0
8274,61.0,0.0,15.0,7.0,0.0
8275,57.0,20.0,15.0,7.0,0.0
8276,61.0,20.0,15.0,7.0,0.0
8277,61.0,0.0,15.0,7.0,0.0
8278,57.0,20.0,15.0,7.0,0.0
8279,66.0,20.0,40.0,12.0,0.0
8280,57.0,20.0,15.0,7.0,0.0
8281,61.0,0.0,15.0,7.0,0.0
8282,57.0,0.0,20.0,7.0,0.0
8283,64.0,0.0,40.0,12.0,0.0
8284,57.0,0.0,20.0,7.0,0.0
8285,61.0,20.0,15.0,7.0,0.0
8286,63.0,0.0,40.0,12.0,0.0
8287,57.0,0.0,20.0,7.0,0.0
8288,61.0,20.0,15.0,7.0,0.0
8289,57.0,4.0,15.0,7.0,0.0
8290,61.0,16.0,15.0,7.0,0.0
8291,56.0,0.0,60.0,7.0,0.0
8292,61.0,0.0,60.0,7.0,0.0
8293,64.0,0.0,120.0,12.0,0.0
8294,25.0,40.0,40.0,0.0,0.0
8295,37.0,39.0,15.0,0.0,0.0
8296,68.0,0.0,360.0,12.0,0.0
8297,40.0,38.0,40.0,0.0,0.0
8298,44.0,0.0,15.0,0.0,0.0
8299,49.0,6.0,40.0,0.0,0.0
8300,40.0,35.0,40.0,0.0,0.0
8301,44.0,0.0,40.0,0.0,0.0
8302,49.0,2.0,40.0,0.0,0.0
8303,52.0,39.0,15.0,0.0,0.0
8304,49.0,0.0,40.0,0.0,0.0
8305,56.0,0.0,40.0,0.0,0.0
8306,61.0,0.0,40.0,0.0,0.0
8307,52.0,40.0,15.0,0.0,0.0
8308,56.0,33.0,40.0,0.0,0.0
8309,64.0,1.0,40.0,0.0,0.0
8310,52.0,6.0,15.0,0.0,0.0
8311,49.0,0.0,40.0,0.0,0.0
8312,51.0,0.0,40.0,0.0,0.0
8313,75.0,0.0,40.0,0.0,0.0
8314,66.0,40.0,40.0,0.0,0.0
8315,54.0,0.0,40.0,0.0,0.0
8316,44.0,39.0,15.0,0.0,0.0
8317,78.0,0.0,40.0,0.0,0.0
8318,64.0,0.0,40.0,0.0,0.0
8319,52.0,0.0,40.0,0.0,0.0
8320,49.0,0.0,40.0,0.0,0.0
8321,44.0,0.0,15.0,0.0,0.0
8322,76.0,40.0,40.0,0.0,0.0
8323,73.0,0.0,40.0,0.0,0.0
8324,48.0,0.0,40.0,0.0,0.0
8325,51.0,0.0,40.0,0.0,0.0
8326,63.0,0.0,40.0,0.0,0.0
8327,75.0,0.0,40.0,0.0,0.0
8328,72.0,0.0,40.0,0.0,0.0
8329,44.0,114.0,15.0,0.0,0.0
8330,64.0,2.0,120.0,0.0,0.0
8331,52.0,0.0,120.0,0.0,0.0
8332,49.0,0.0,120.0,0.0,0.0
8333,76.0,2.0,120.0,0.0,0.0
8334,73.0,20.0,120.0,0.0,0.0
8335,80.0,2.0,360.0,0.0,0.0
8336,68.0,4.0,360.0,0.0,0.0
8337,61.0,0.0,20.0,7.0,0.0
8338,56.0,0.0,360.0,0.0,0.0
8339,64.0,20.0,15.0,7.0,0.0
8340,61.0,20.0,15.0,7.0,0.0
8341,64.0,20.0,15.0,7.0,0.0
8342,61.0,0.0,20.0,7.0,0.0
8343,64.0,20.0,15.0,7.0,0.0
8344,61.0,20.0,15.0,7.0,0.0
8345,64.0,20.0,20.0,7.0,0.0
8346,64.0,0.0,20.0,7.0,0.0
8347,61.0,20.0,20.0,7.0,0.0
8348,61.0,0.0,15.0,7.0,0.0
8349,64.0,20.0,15.0,7.0,0.0
8350,61.0,0.0,20.0,7.0,0.0
8351,61.0,0.0,20.0,7.0,0.0
8352,64.0,20.0,15.0,7.0,0.0
8353,61.0,0.0,20.0,7.0,0.0
8354,64.0,20.0,15.0,7.0,0.0
8355,59.0,20.0,20.0,7.0,0.0
8356,63.0,0.0,15.0,7.0,0.0
8357,59.0,0.0,20.0,7.0,0.0
8358,59.0,0.0,15.0,7.0,0.0
8359,63.0,20.0,15.0,7.0,0.0
8360,63.0,0.0,20.0,7.0,0.0
8361,59.0,14.0,15.0,7.0,0.0
8362,59.0,0.0,15.0,7.0,0.0
8363,63.0,20.0,15.0,7.0,0.0
8364,63.0,0.0,15.0,7.0,0.0
8365,59.0,20.0,15.0,7.0,0.0
8366,63.0,0.0,20.0,7.0,0.0
8367,63.0,20.0,20.0,7.0,0.0
8368,59.0,0.0,15.0,7.0,0.0
8369,59.0,0.0,15.0,7.0,0.0
8370,63.0,20.0,15.0,7.0,0.0
8371,73.0,4.0,240.0,2.0,0.0
8372,57.0,20.0,20.0,7.0,0.0
8373,61.0,0.0,240.0,12.0,0.0
8374,61.0,0.0,20.0,7.0,0.0
8375,85.0,16.0,240.0,1.0,0.0
8376,64.0,0.0,15.0,7.0,0.0
8377,57.0,0.0,15.0,7.0,0.0
8378,61.0,20.0,15.0,7.0,0.0
8379,64.0,0.0,20.0,7.0,0.0
8380,57.0,0.0,15.0,7.0,0.0
8381,61.0,20.0,15.0,7.0,0.0
8382,64.0,0.0,20.0,7.0,0.0
8383,61.0,20.0,15.0,7.0,0.0
8384,57.0,0.0,20.0,7.0,0.0
8385,64.0,20.0,15.0,7.0,0.0
8386,64.0,0.0,15.0,7.0,0.0
8387,61.0,20.0,15.0,7.0,0.0
8388,57.0,0.0,15.0,7.0,0.0
8389,61.0,0.0,15.0,7.0,0.0
8390,64.0,0.0,20.0,7.0,0.0
8391,57.0,20.0,15.0,7.0,0.0
8392,61.0,0.0,20.0,7.0,0.0
8393,64.0,0.0,15.0,7.0,0.0
8394,57.0,20.0,15.0,7.0,0.0
8395,64.0,20.0,15.0,7.0,0.0
8396,61.0,0.0,15.0,7.0,0.0
8397,57.0,0.0,15.0,7.0,0.0
8398,64.0,0.0,20.0,7.0,0.0
8399,61.0,20.0,15.0,7.0,0.0
8400,68.0,2.0,120.0,2.0,0.0
8401,61.0,0.0,20.0,7.0,0.0
8402,52.0,0.0,20.0,7.0,0.0
8403,68.0,3.0,120.0,12.0,0.0
8404,80.0,17.0,120.0,1.0,0.0
8405,52.0,0.0,20.0,7.0,0.0
8406,56.0,20.0,15.0,7.0,0.0
8407,61.0,0.0,15.0,7.0,0.0
8408,56.0,20.0,15.0,7.0,0.0
8409,52.0,0.0,20.0,7.0,0.0
8410,52.0,0.0,20.0,7.0,0.0
8411,56.0,20.0,15.0,7.0,0.0
8412,61.0,0.0,15.0,7.0,0.0
8413,56.0,18.0,20.0,7.0,0.0
8414,52.0,0.0,20.0,7.0,0.0
8415,61.0,0.0,20.0,7.0,0.0
8416,52.0,0.0,20.0,7.0,0.0
8417,56.0,0.0,20.0,7.0,0.0
8418,61.0,0.0,15.0,7.0,0.0
8419,66.0,0.0,120.0,2.0,0.0
8420,54.0,20.0,20.0,7.0,0.0
8421,78.0,18.0,120.0,1.0,0.0
8422,66.0,0.0,120.0,12.0,0.0
8423,57.0,0.0,15.0,7.0,0.0
8424,54.0,0.0,20.0,7.0,0.0
8425,54.0,0.0,20.0,7.0,0.0
8426,57.0,0.0,20.0,7.0,0.0
8427,61.0,20.0,15.0,7.0,0.0
8428,61.0,20.0,15.0,7.0,0.0
8429,57.0,20.0,20.0,7.0,0.0
8430,54.0,0.0,20.0,7.0,0.0
8431,61.0,0.0,15.0,7.0,0.0
8432,54.0,0.0,20.0,7.0,0.0
8433,57.0,0.0,20.0,7.0,0.0
8434,54.0,2.0,20.0,7.0,0.0
8435,57.0,0.0,20.0,7.0,0.0
8436,61.0,20.0,15.0,7.0,0.0
8437,64.0,0.0,40.0,12.0,0.0
8438,64.0,0.0,40.0,2.0,0.0
8439,76.0,0.0,40.0,1.0,0.0
8440,58.0,0.0,20.0,7.0,0.0
8441,61.0,0.0,15.0,7.0,0.0
8442,55.0,20.0,15.0,7.0,0.0
8443,55.0,0.0,15.0,7.0,0.0
8444,58.0,20.0,15.0,7.0,0.0
8445,63.0,20.0,40.0,12.0,0.0
8446,75.0,0.0,40.0,1.0,0.0
8447,63.0,0.0,40.0,2.0,0.0
8448,58.0,0.0,15.0,7.0,0.0
8449,55.0,0.0,15.0,7.0,0.0
8450,61.0,20.0,15.0,7.0,0.0
8451,61.0,0.0,15.0,7.0,0.0
8452,55.0,0.0,15.0,7.0,0.0
8453,58.0,0.0,15.0,7.0,0.0
8454,61.0,0.0,40.0,2.0,0.0
8455,73.0,0.0,40.0,1.0,0.0
8456,61.0,0.0,40.0,12.0,0.0
8457,58.0,0.0,15.0,7.0,0.0
8458,61.0,0.0,15.0,7.0,0.0
8459,55.0,0.0,20.0,7.0,0.0
8460,56.0,0.0,60.0,7.0,0.0
8461,20.0,20.0,40.0,0.0,0.0
8462,60.0,0.0,60.0,7.0,0.0
8463,63.0,14.0,120.0,12.0,0.0
8464,75.0,0.0,60.0,1.0,0.0
8465,63.0,21.0,60.0,2.0,0.0
8466,32.0,24.0,15.0,0.0,0.0
8467,81.0,1.0,30.0,1.0,0.0
8468,69.0,35.0,30.0,2.0,0.0
8469,36.0,4.0,15.0,0.0,0.0
8470,39.0,0.0,40.0,0.0,0.0
8471,68.0,0.0,240.0,2.0,0.0
8472,80.0,0.0,240.0,1.0,0.0
8473,56.0,35.0,240.0,12.0,0.0
8474,44.0,40.0,15.0,0.0,0.0
8475,39.0,0.0,40.0,0.0,0.0
8476,44.0,39.0,15.0,0.0,0.0
8477,48.0,0.0,15.0,0.0,0.0
8478,51.0,40.0,40.0,0.0,0.0
8479,48.0,36.0,40.0,0.0,0.0
8480,56.0,4.0,40.0,0.0,0.0
8481,51.0,0.0,40.0,0.0,0.0
8482,51.0,0.0,40.0,0.0,0.0
8483,60.0,38.0,40.0,0.0,0.0
8484,48.0,2.0,40.0,0.0,0.0
8485,63.0,3.0,40.0,0.0,0.0
8486,51.0,0.0,40.0,0.0,0.0
8487,73.0,5.0,40.0,0.0,0.0
8488,76.0,0.0,40.0,0.0,0.0
8489,52.0,0.0,40.0,0.0,0.0
8490,49.0,0.0,40.0,0.0,0.0
8491,44.0,1.0,15.0,0.0,0.0
8492,64.0,34.0,40.0,0.0,0.0
8493,63.0,2.0,40.0,0.0,0.0
8494,48.0,0.0,40.0,0.0,0.0
8495,75.0,0.0,40.0,0.0,0.0
8496,72.0,4.0,40.0,0.0,0.0
8497,44.0,0.0,40.0,0.0,0.0
8498,51.0,35.0,40.0,0.0,0.0
8499,49.0,1.0,40.0,0.0,0.0
8500,46.0,0.0,40.0,0.0,0.0
8501,61.0,0.0,40.0,0.0,0.0
8502,73.0,2.0,40.0,0.0,0.0
8503,70.0,0.0,40.0,0.0,0.0
8504,51.0,0.0,60.0,0.0,0.0
8505,48.0,0.0,60.0,0.0,0.0
8506,44.0,58.0,15.0,0.0,0.0
8507,63.0,55.0,60.0,0.0,0.0
8508,75.0,0.0,60.0,0.0,0.0
8509,72.0,0.0,60.0,0.0,0.0
8510,57.0,2.0,30.0,0.0,0.0
8511,69.0,1.0,30.0,0.0,0.0
8512,81.0,22.0,30.0,0.0,0.0
8513,56.0,2.0,240.0,0.0,0.0
8514,68.0,3.0,240.0,0.0,0.0
8515,80.0,0.0,240.0,0.0,0.0
8516,63.0,0.0,20.0,7.0,0.0
8517,60.0,20.0,15.0,7.0,0.0
8518,63.0,20.0,20.0,7.0,0.0
8519,60.0,0.0,15.0,7.0,0.0
8520,63.0,0.0,20.0,7.0,0.0
8521,60.0,20.0,15.0,7.0,0.0
8522,63.0,20.0,20.0,7.0,0.0
8523,60.0,0.0,15.0,7.0,0.0
8524,63.0,20.0,15.0,7.0,0.0
8525,63.0,20.0,15.0,7.0,0.0
8526,60.0,0.0,15.0,7.0,0.0
8527,63.0,0.0,15.0,7.0,0.0
8528,60.0,20.0,15.0,7.0,0.0
8529,60.0,0.0,15.0,7.0,0.0
8530,63.0,0.0,20.0,7.0,0.0
8531,60.0,20.0,15.0,7.0,0.0
8532,63.0,20.0,20.0,7.0,0.0
8533,63.0,15.0,15.0,7.0,0.0
8534,60.0,0.0,15.0,7.0,0.0
8535,62.0,20.0,20.0,7.0,0.0
8536,59.0,0.0,20.0,7.0,0.0
8537,59.0,2.0,120.0,6.0,0.0
8538,65.0,0.0,120.0,12.0,0.0
8539,59.0,0.0,20.0,7.0,0.0
8540,62.0,20.0,20.0,7.0,0.0
8541,59.0,20.0,20.0,7.0,0.0
8542,62.0,0.0,20.0,7.0,0.0
8543,62.0,2.0,20.0,7.0,0.0
8544,62.0,2.0,20.0,7.0,0.0
8545,59.0,18.0,15.0,7.0,0.0
8546,62.0,0.0,20.0,7.0,0.0
8547,59.0,18.0,15.0,7.0,0.0
8548,57.0,0.0,120.0,6.0,0.0
8549,66.0,2.0,120.0,12.0,0.0
8550,57.0,0.0,15.0,7.0,0.0
8551,61.0,20.0,15.0,7.0,0.0
8552,61.0,0.0,15.0,7.0,0.0
8553,57.0,0.0,20.0,7.0,0.0
8554,57.0,20.0,20.0,7.0,0.0
8555,61.0,0.0,15.0,7.0,0.0
8556,57.0,0.0,15.0,7.0,0.0
8557,61.0,18.0,15.0,7.0,0.0
8558,68.0,1.0,60.0,12.0,0.0
8559,56.0,1.0,120.0,6.0,0.0
8560,59.0,0.0,20.0,7.0,0.0
8561,59.0,0.0,20.0,7.0,0.0
8562,56.0,20.0,15.0,7.0,0.0
8563,56.0,19.0,15.0,7.0,0.0
8564,59.0,0.0,20.0,7.0,0.0
8565,56.0,20.0,15.0,7.0,0.0
8566,64.0,1.0,60.0,12.0,0.0
8567,59.0,18.0,15.0,7.0,0.0
8568,56.0,2.0,15.0,7.0,0.0
8569,59.0,18.0,15.0,7.0,0.0
8570,57.0,20.0,20.0,7.0,0.0
8571,54.0,0.0,120.0,6.0,0.0
8572,63.0,20.0,120.0,12.0,0.0
8573,54.0,0.0,15.0,7.0,0.0
8574,57.0,20.0,20.0,7.0,0.0
8575,54.0,0.0,15.0,7.0,0.0
8576,57.0,20.0,20.0,7.0,0.0
8577,54.0,0.0,15.0,7.0,0.0
8578,54.0,0.0,15.0,7.0,0.0
8579,57.0,20.0,15.0,7.0,0.0
8580,57.0,20.0,15.0,7.0,0.0
8581,54.0,0.0,20.0,7.0,0.0
8582,52.0,4.0,120.0,6.0,0.0
8583,64.0,3.0,60.0,12.0,0.0
8584,56.0,0.0,20.0,7.0,0.0
8585,52.0,20.0,20.0,7.0,0.0
8586,52.0,17.0,20.0,7.0,0.0
8587,56.0,0.0,15.0,7.0,0.0
8588,52.0,20.0,20.0,7.0,0.0
8589,56.0,0.0,15.0,7.0,0.0
8590,61.0,2.0,60.0,12.0,0.0
8591,52.0,18.0,15.0,7.0,0.0
8592,56.0,2.0,15.0,7.0,0.0
8593,52.0,14.0,15.0,7.0,0.0
8594,54.0,0.0,20.0,7.0,0.0
8595,59.0,0.0,120.0,12.0,0.0
8596,51.0,2.0,120.0,6.0,0.0
8597,51.0,20.0,15.0,7.0,0.0
8598,54.0,20.0,15.0,7.0,0.0
8599,51.0,0.0,20.0,7.0,0.0
8600,51.0,2.0,20.0,7.0,0.0
8601,51.0,2.0,20.0,7.0,0.0
8602,54.0,18.0,15.0,7.0,0.0
8603,51.0,0.0,20.0,7.0,0.0
8604,54.0,18.0,20.0,7.0,0.0
8605,61.0,5.0,120.0,12.0,0.0
8606,57.0,1.0,240.0,6.0,0.0
8607,49.0,0.0,20.0,7.0,0.0
8608,49.0,0.0,120.0,6.0,0.0
8609,49.0,0.0,20.0,7.0,0.0
8610,52.0,20.0,15.0,7.0,0.0
8611,52.0,20.0,15.0,7.0,0.0
8612,49.0,20.0,20.0,7.0,0.0
8613,49.0,0.0,20.0,7.0,0.0
8614,52.0,20.0,15.0,7.0,0.0
8615,49.0,0.0,20.0,7.0,0.0
8616,49.0,20.0,20.0,7.0,0.0
8617,52.0,0.0,20.0,7.0,0.0
8618,48.0,0.0,120.0,6.0,0.0
8619,75.0,5.0,180.0,1.0,0.0
8620,48.0,20.0,20.0,7.0,0.0
8621,51.0,19.0,120.0,7.0,0.0
8622,63.0,15.0,180.0,12.0,0.0
8623,48.0,20.0,20.0,7.0,0.0
8624,48.0,20.0,20.0,7.0,0.0
8625,48.0,20.0,20.0,7.0,0.0
8626,48.0,20.0,15.0,7.0,0.0
8627,47.0,20.0,20.0,7.0,0.0
8628,56.0,0.0,120.0,7.0,0.0
8629,47.0,3.0,120.0,3.0,0.0
8630,47.0,1.0,120.0,6.0,0.0
8631,56.0,15.0,120.0,6.0,0.0
8632,47.0,20.0,20.0,7.0,0.0
8633,47.0,0.0,20.0,7.0,0.0
8634,77.0,1.0,60.0,1.0,0.0
8635,65.0,0.0,60.0,12.0,0.0
8636,65.0,0.0,60.0,7.0,0.0
8637,50.0,20.0,15.0,7.0,0.0
8638,50.0,20.0,15.0,7.0,0.0
8639,61.0,1.0,120.0,6.0,0.0
8640,66.0,0.0,120.0,7.0,0.0
8641,45.0,0.0,120.0,6.0,0.0
8642,45.0,0.0,120.0,3.0,0.0
8643,61.0,0.0,120.0,7.0,0.0
8644,78.0,1.0,120.0,1.0,0.0
8645,66.0,15.0,120.0,12.0,0.0
8646,49.0,20.0,15.0,7.0,0.0
8647,49.0,22.0,20.0,7.0,0.0
8648,49.0,20.0,15.0,7.0,0.0
8649,49.0,18.0,15.0,7.0,0.0
8650,59.0,0.0,120.0,7.0,0.0
8651,68.0,0.0,60.0,7.0,0.0
8652,44.0,1.0,120.0,6.0,0.0
8653,80.0,5.0,60.0,1.0,0.0
8654,44.0,0.0,120.0,3.0,0.0
8655,59.0,0.0,120.0,6.0,0.0
8656,68.0,15.0,60.0,12.0,0.0
8657,47.0,20.0,15.0,7.0,0.0
8658,47.0,20.0,15.0,7.0,0.0
8659,64.0,1.0,60.0,7.0,0.0
8660,47.0,0.0,15.0,7.0,0.0
8661,64.0,4.0,60.0,12.0,0.0
8662,76.0,15.0,60.0,1.0,0.0
8663,47.0,20.0,15.0,7.0,0.0
8664,47.0,19.0,15.0,7.0,0.0
8665,42.0,1.0,120.0,3.0,0.0
8666,57.0,0.0,120.0,6.0,0.0
8667,42.0,0.0,120.0,6.0,0.0
8668,63.0,2.0,120.0,7.0,0.0
8669,57.0,0.0,120.0,7.0,0.0
8670,63.0,2.0,120.0,12.0,0.0
8671,75.0,15.0,120.0,1.0,0.0
8672,45.0,20.0,15.0,7.0,0.0
8673,45.0,20.0,15.0,7.0,0.0
8674,45.0,20.0,20.0,7.0,0.0
8675,45.0,19.0,15.0,7.0,0.0
8676,56.0,3.0,120.0,7.0,0.0
8677,44.0,20.0,20.0,7.0,0.0
8678,40.0,1.0,120.0,6.0,0.0
8679,40.0,0.0,120.0,3.0,0.0
8680,76.0,1.0,60.0,1.0,0.0
8681,64.0,3.0,60.0,12.0,0.0
8682,56.0,0.0,120.0,6.0,0.0
8683,64.0,15.0,60.0,7.0,0.0
8684,44.0,20.0,20.0,7.0,0.0
8685,44.0,3.0,20.0,7.0,0.0
8686,61.0,1.0,60.0,7.0,0.0
8687,73.0,1.0,60.0,1.0,0.0
8688,61.0,15.0,60.0,12.0,0.0
8689,44.0,20.0,15.0,7.0,0.0
8690,44.0,3.0,20.0,7.0,0.0
8691,59.0,0.0,240.0,7.0,0.0
8692,39.0,0.0,240.0,3.0,0.0
8693,71.0,3.0,240.0,1.0,0.0
8694,39.0,0.0,240.0,6.0,0.0
8695,59.0,0.0,240.0,12.0,0.0
8696,54.0,17.0,240.0,6.0,0.0
8697,47.0,0.0,15.0,7.0,0.0
8698,54.0,20.0,15.0,7.0,0.0
8699,47.0,20.0,15.0,7.0,0.0
8700,47.0,0.0,20.0,7.0,0.0
8701,54.0,20.0,15.0,7.0,0.0
8702,47.0,0.0,20.0,7.0,0.0
8703,47.0,0.0,20.0,7.0,0.0
8704,54.0,20.0,15.0,7.0,0.0
8705,54.0,20.0,15.0,7.0,0.0
8706,47.0,0.0,15.0,7.0,0.0
8707,54.0,0.0,15.0,7.0,0.0
8708,47.0,20.0,15.0,7.0,0.0
8709,54.0,20.0,15.0,7.0,0.0
8710,47.0,0.0,20.0,7.0,0.0
8711,54.0,20.0,15.0,7.0,0.0
8712,47.0,0.0,20.0,7.0,0.0
8713,54.0,0.0,20.0,7.0,0.0
8714,69.0,4.0,240.0,1.0,0.0
8715,47.0,0.0,15.0,7.0,0.0
8716,35.0,1.0,240.0,6.0,0.0
8717,35.0,0.0,240.0,3.0,0.0
8718,51.0,2.0,240.0,6.0,0.0
8719,57.0,12.0,240.0,7.0,0.0
8720,51.0,20.0,15.0,7.0,0.0
8721,47.0,0.0,15.0,7.0,0.0
8722,51.0,0.0,20.0,7.0,0.0
8723,47.0,20.0,15.0,7.0,0.0
8724,51.0,20.0,20.0,7.0,0.0
8725,47.0,0.0,15.0,7.0,0.0
8726,51.0,20.0,20.0,7.0,0.0
8727,51.0,20.0,15.0,7.0,0.0
8728,47.0,0.0,15.0,7.0,0.0
8729,51.0,0.0,15.0,7.0,0.0
8730,47.0,0.0,20.0,7.0,0.0
8731,47.0,0.0,20.0,7.0,0.0
8732,51.0,20.0,15.0,7.0,0.0
8733,51.0,20.0,15.0,7.0,0.0
8734,47.0,20.0,20.0,7.0,0.0
8735,51.0,16.0,20.0,7.0,0.0
8736,47.0,0.0,20.0,7.0,0.0
8737,47.0,0.0,20.0,7.0,0.0
8738,51.0,0.0,20.0,7.0,0.0
8739,36.0,2.0,120.0,11.0,0.0
8740,24.0,18.0,15.0,0.0,0.0
8741,48.0,9.0,60.0,7.0,0.0
8742,30.0,16.0,15.0,0.0,0.0
8743,36.0,11.0,15.0,0.0,0.0
8744,39.0,5.0,15.0,0.0,0.0
8745,42.0,19.0,15.0,0.0,0.0
8746,48.0,14.0,15.0,0.0,0.0
8747,57.0,1.0,30.0,7.0,0.0
8748,51.0,12.0,15.0,0.0,0.0
8749,54.0,54.0,15.0,0.0,0.0
8750,56.0,5.0,60.0,7.0,0.0
8751,54.0,0.0,120.0,11.0,0.0
8752,51.0,17.0,120.0,11.0,0.0
8753,63.0,59.0,60.0,0.0,0.0
8754,48.0,4.0,120.0,11.0,0.0
8755,36.0,12.0,15.0,0.0,0.0
8756,42.0,15.0,15.0,0.0,0.0
8757,48.0,16.0,15.0,0.0,0.0
8758,51.0,16.0,15.0,0.0,0.0
8759,54.0,14.0,15.0,0.0,0.0
8760,60.0,15.0,15.0,0.0,0.0
8761,63.0,11.0,15.0,0.0,0.0
8762,81.0,63.0,30.0,7.0,0.0
8763,66.0,1.0,15.0,0.0,0.0
8764,66.0,1.0,120.0,11.0,0.0
8765,56.0,14.0,120.0,11.0,0.0
8766,80.0,3.0,60.0,7.0,0.0
8767,75.0,53.0,60.0,0.0,0.0
8768,36.0,1.0,120.0,11.0,0.0
8769,24.0,17.0,15.0,0.0,0.0
8770,36.0,13.0,15.0,0.0,0.0
8771,39.0,13.0,15.0,0.0,0.0
8772,42.0,16.0,15.0,0.0,0.0
8773,48.0,17.0,15.0,0.0,0.0
8774,51.0,13.0,15.0,0.0,0.0
8775,69.0,3.0,30.0,7.0,0.0
8776,54.0,13.0,15.0,0.0,0.0
8777,63.0,17.0,15.0,0.0,0.0
8778,68.0,6.0,60.0,7.0,0.0
8779,51.0,3.0,120.0,11.0,0.0
8780,42.0,0.0,120.0,11.0,0.0
8781,60.0,0.0,120.0,11.0,0.0
8782,30.0,13.0,15.0,0.0,0.0
8783,36.0,14.0,15.0,0.0,0.0
8784,42.0,8.0,15.0,0.0,0.0
8785,48.0,16.0,15.0,0.0,0.0
8786,51.0,18.0,15.0,0.0,0.0
8787,56.0,12.0,15.0,0.0,0.0
8788,60.0,14.0,15.0,0.0,0.0
8789,73.0,11.0,30.0,7.0,0.0
8790,68.0,1.0,15.0,0.0,0.0
8791,72.0,6.0,60.0,7.0,0.0
8792,27.0,16.0,15.0,0.0,0.0
8793,39.0,1.0,120.0,11.0,0.0
8794,54.0,0.0,120.0,11.0,0.0
8795,39.0,17.0,15.0,0.0,0.0
8796,42.0,6.0,15.0,0.0,0.0
8797,48.0,19.0,15.0,0.0,0.0
8798,51.0,15.0,15.0,0.0,0.0
8799,60.0,14.0,15.0,0.0,0.0
8800,76.0,0.0,30.0,7.0,0.0
8801,66.0,12.0,15.0,0.0,0.0
8802,72.0,15.0,15.0,0.0,0.0
8803,75.0,3.0,60.0,7.0,0.0
8804,63.0,1.0,15.0,11.0,0.0
8805,36.0,1.0,120.0,11.0,0.0
8806,66.0,2.0,120.0,11.0,0.0
8807,24.0,14.0,15.0,0.0,0.0
8808,36.0,14.0,15.0,0.0,0.0
8809,39.0,13.0,15.0,0.0,0.0
8810,42.0,15.0,15.0,0.0,0.0
8811,48.0,16.0,15.0,0.0,0.0
8812,63.0,13.0,15.0,0.0,0.0
8813,66.0,13.0,15.0,0.0,0.0
8814,81.0,12.0,30.0,7.0,0.0
8815,75.0,3.0,15.0,0.0,0.0
8816,35.0,0.0,120.0,11.0,0.0
8817,80.0,8.0,60.0,7.0,0.0
8818,65.0,59.0,120.0,11.0,0.0
8819,23.0,17.0,15.0,0.0,0.0
8820,56.0,0.0,120.0,11.0,0.0
8821,35.0,17.0,15.0,0.0,0.0
8822,41.0,9.0,15.0,0.0,0.0
8823,44.0,17.0,15.0,0.0,0.0
8824,47.0,17.0,15.0,0.0,0.0
8825,53.0,17.0,15.0,0.0,0.0
8826,62.0,1.0,30.0,7.0,0.0
8827,56.0,0.0,20.0,0.0,0.0
8828,65.0,4.0,60.0,0.0,0.0
8829,53.0,0.0,120.0,11.0,0.0
8830,56.0,15.0,120.0,11.0,0.0
8831,61.0,57.0,60.0,7.0,0.0
8832,35.0,14.0,15.0,0.0,0.0
8833,47.0,3.0,120.0,11.0,0.0
8834,44.0,16.0,15.0,0.0,0.0
8835,47.0,16.0,15.0,0.0,0.0
8836,53.0,14.0,15.0,0.0,0.0
8837,56.0,13.0,15.0,0.0,0.0
8838,59.0,17.0,15.0,0.0,0.0
8839,65.0,14.0,15.0,0.0,0.0
8840,86.0,51.0,30.0,7.0,0.0
8841,68.0,5.0,15.0,0.0,0.0
8842,77.0,1.0,60.0,0.0,0.0
8843,85.0,60.0,60.0,7.0,0.0
8844,56.0,1.0,120.0,11.0,0.0
8845,65.0,15.0,120.0,11.0,0.0
8846,23.0,18.0,15.0,0.0,0.0
8847,35.0,3.0,120.0,11.0,0.0
8848,35.0,12.0,15.0,0.0,0.0
8849,41.0,13.0,15.0,0.0,0.0
8850,44.0,16.0,15.0,0.0,0.0
8851,47.0,19.0,15.0,0.0,0.0
8852,53.0,10.0,15.0,0.0,0.0
8853,62.0,3.0,30.0,7.0,0.0
8854,56.0,14.0,15.0,0.0,0.0
8855,65.0,12.0,15.0,0.0,0.0
8856,47.0,0.0,120.0,11.0,0.0
8857,29.0,15.0,15.0,0.0,0.0
8858,41.0,4.0,120.0,11.0,0.0
8859,56.0,0.0,120.0,11.0,0.0
8860,61.0,10.0,60.0,7.0,0.0
8861,41.0,12.0,15.0,0.0,0.0
8862,44.0,17.0,15.0,0.0,0.0
8863,47.0,4.0,15.0,0.0,0.0
8864,53.0,13.0,15.0,0.0,0.0
8865,56.0,19.0,15.0,0.0,0.0
8866,59.0,13.0,15.0,0.0,0.0
8867,66.0,11.0,30.0,7.0,0.0
8868,68.0,2.0,15.0,0.0,0.0
8869,65.0,4.0,60.0,7.0,0.0
8870,44.0,2.0,120.0,11.0,0.0
8871,59.0,2.0,120.0,11.0,0.0
8872,32.0,15.0,15.0,0.0,0.0
8873,53.0,0.0,120.0,11.0,0.0
8874,44.0,15.0,15.0,0.0,0.0
8875,47.0,12.0,15.0,0.0,0.0
8876,53.0,10.0,15.0,0.0,0.0
8877,56.0,17.0,15.0,0.0,0.0
8878,59.0,16.0,15.0,0.0,0.0
8879,65.0,14.0,15.0,0.0,0.0
8880,69.0,11.0,30.0,7.0,0.0
8881,71.0,2.0,15.0,0.0,0.0
8882,68.0,3.0,60.0,7.0,0.0
8883,65.0,2.0,120.0,11.0,0.0
8884,56.0,1.0,120.0,11.0,0.0
8885,35.0,3.0,120.0,11.0,0.0
8886,23.0,14.0,15.0,0.0,0.0
8887,35.0,15.0,15.0,0.0,0.0
8888,44.0,11.0,15.0,0.0,0.0
8889,47.0,13.0,15.0,0.0,0.0
8890,56.0,20.0,15.0,0.0,0.0
8891,65.0,15.0,15.0,0.0,0.0
8892,74.0,4.0,30.0,7.0,0.0
8893,68.0,7.0,15.0,0.0,0.0
8894,77.0,14.0,15.0,0.0,0.0
8895,21.0,17.0,15.0,0.0,0.0
8896,73.0,8.0,60.0,7.0,0.0
8897,61.0,1.0,120.0,11.0,0.0
8898,33.0,0.0,120.0,11.0,0.0
8899,66.0,0.0,120.0,11.0,0.0
8900,33.0,17.0,15.0,0.0,0.0
8901,37.0,9.0,15.0,0.0,0.0
8902,42.0,17.0,15.0,0.0,0.0
8903,45.0,17.0,15.0,0.0,0.0
8904,49.0,18.0,15.0,0.0,0.0
8905,56.0,59.0,30.0,7.0,0.0
8906,54.0,0.0,20.0,0.0,0.0
8907,54.0,3.0,120.0,11.0,0.0
8908,54.0,1.0,60.0,7.0,0.0
8909,49.0,16.0,120.0,11.0,0.0
8910,61.0,56.0,60.0,0.0,0.0
8911,33.0,21.0,15.0,0.0,0.0
8912,45.0,54.0,120.0,11.0,0.0
8913,45.0,13.0,15.0,0.0,0.0
8914,49.0,13.0,15.0,0.0,0.0
8915,54.0,15.0,15.0,0.0,0.0
8916,61.0,15.0,15.0,0.0,0.0
8917,66.0,11.0,15.0,0.0,0.0
8918,73.0,17.0,15.0,0.0,0.0
8919,78.0,0.0,30.0,7.0,0.0
8920,78.0,2.0,15.0,0.0,0.0
8921,67.0,3.0,60.0,0.0,0.0
8922,73.0,0.0,120.0,11.0,0.0
8923,73.0,0.0,60.0,0.0,0.0
8924,69.0,0.0,60.0,0.0,0.0
8925,64.0,0.0,60.0,0.0,0.0
8926,57.0,1.0,120.0,11.0,0.0
8927,79.0,3.0,60.0,0.0,0.0
8928,64.0,3.0,120.0,11.0,0.0
8929,57.0,2.0,60.0,0.0,0.0
8930,79.0,52.0,60.0,7.0,0.0
8931,33.0,0.0,120.0,11.0,0.0
8932,21.0,17.0,15.0,0.0,0.0
8933,33.0,17.0,15.0,0.0,0.0
8934,38.0,17.0,15.0,0.0,0.0
8935,42.0,17.0,15.0,0.0,0.0
8936,45.0,17.0,15.0,0.0,0.0
8937,55.0,7.0,30.0,7.0,0.0
8938,50.0,11.0,15.0,0.0,0.0
8939,54.0,56.0,20.0,0.0,0.0
8940,54.0,2.0,60.0,7.0,0.0
8941,62.0,62.0,60.0,0.0,0.0
8942,50.0,3.0,120.0,11.0,0.0
8943,54.0,15.0,120.0,11.0,0.0
8944,45.0,56.0,120.0,11.0,0.0
8945,33.0,13.0,15.0,0.0,0.0
8946,45.0,15.0,15.0,0.0,0.0
8947,50.0,16.0,15.0,0.0,0.0
8948,54.0,14.0,15.0,0.0,0.0
8949,62.0,15.0,15.0,0.0,0.0
8950,66.0,16.0,15.0,0.0,0.0
8951,78.0,3.0,30.0,7.0,0.0
8952,74.0,10.0,15.0,0.0,0.0
8953,78.0,3.0,15.0,0.0,0.0
8954,57.0,3.0,120.0,11.0,0.0
8955,69.0,0.0,60.0,0.0,0.0
8956,57.0,1.0,60.0,0.0,0.0
8957,74.0,3.0,120.0,11.0,0.0
8958,72.0,0.0,60.0,0.0,0.0
8959,84.0,0.0,60.0,0.0,0.0
8960,78.0,0.0,60.0,0.0,0.0
8961,62.0,1.0,60.0,0.0,0.0
8962,84.0,55.0,60.0,7.0,0.0
8963,66.0,1.0,120.0,11.0,0.0
8964,68.0,2.0,120.0,0.0,0.0
8965,62.0,0.0,120.0,0.0,0.0
8966,77.0,0.0,120.0,0.0,0.0
8967,80.0,0.0,120.0,0.0,0.0
8968,59.0,0.0,120.0,0.0,0.0
8969,71.0,0.0,120.0,0.0,0.0
8970,65.0,56.0,120.0,0.0,0.0
8971,40.0,4.0,30.0,3.0,0.0
8972,64.0,1.0,30.0,7.0,0.0
8973,28.0,55.0,30.0,5.0,0.0
8974,52.0,0.0,30.0,7.0,0.0
8975,62.0,2.0,60.0,7.0,0.0
8976,38.0,3.0,60.0,3.0,0.0
8977,26.0,1.0,60.0,5.0,0.0
8978,50.0,1.0,60.0,7.0,0.0
8979,81.0,2.0,120.0,0.0,0.0
8980,60.0,0.0,120.0,0.0,0.0
8981,72.0,0.0,120.0,0.0,0.0
8982,74.0,0.0,15.0,0.0,0.0
8983,69.0,0.0,120.0,0.0,0.0
8984,43.0,2.0,30.0,3.0,0.0
8985,67.0,1.0,30.0,7.0,0.0
8986,55.0,2.0,30.0,7.0,0.0
8987,31.0,50.0,30.0,5.0,0.0
8988,66.0,2.0,60.0,7.0,0.0
8989,42.0,1.0,60.0,3.0,0.0
8990,54.0,2.0,60.0,7.0,0.0
8991,30.0,54.0,60.0,5.0,0.0
8992,83.0,4.0,120.0,0.0,0.0
8993,62.0,0.0,15.0,0.0,0.0
8994,71.0,0.0,120.0,0.0,0.0
8995,78.0,0.0,15.0,0.0,0.0
8996,74.0,0.0,15.0,0.0,0.0
8997,66.0,2.0,15.0,0.0,0.0
8998,59.0,0.0,120.0,0.0,0.0
8999,59.0,2.0,30.0,7.0,0.0
9000,47.0,5.0,30.0,3.0,0.0
9001,35.0,1.0,30.0,5.0,0.0
9002,71.0,50.0,30.0,7.0,0.0
9003,69.0,0.0,60.0,7.0,0.0
9004,45.0,5.0,60.0,3.0,0.0
9005,57.0,0.0,60.0,7.0,0.0
9006,33.0,54.0,60.0,5.0,0.0
9007,84.0,2.0,120.0,0.0,0.0
9008,69.0,0.0,120.0,0.0,0.0
9009,72.0,2.0,120.0,0.0,0.0
9010,57.0,0.0,120.0,0.0,0.0
9011,62.0,0.0,15.0,0.0,0.0
9012,66.0,0.0,120.0,0.0,0.0
9013,81.0,5.0,120.0,0.0,0.0
9014,78.0,0.0,120.0,0.0,0.0
9015,52.0,5.0,30.0,3.0,0.0
9016,64.0,0.0,30.0,7.0,0.0
9017,40.0,1.0,30.0,5.0,0.0
9018,76.0,51.0,30.0,7.0,0.0
9019,74.0,0.0,60.0,7.0,0.0
9020,50.0,0.0,60.0,3.0,0.0
9021,74.0,0.0,360.0,2.0,0.0
9022,62.0,1.0,360.0,2.0,0.0
9023,38.0,0.0,360.0,6.0,0.0
9024,62.0,0.0,60.0,7.0,0.0
9025,50.0,54.0,360.0,6.0,0.0
9026,38.0,54.0,60.0,5.0,0.0
9027,87.0,1.0,30.0,0.0,0.0
9028,75.0,0.0,30.0,0.0,0.0
9029,83.0,3.0,30.0,0.0,0.0
9030,59.0,0.0,30.0,0.0,0.0
9031,63.0,53.0,30.0,0.0,0.0
9032,60.0,4.0,60.0,0.0,0.0
9033,64.0,4.0,60.0,0.0,0.0
9034,84.0,0.0,60.0,0.0,0.0
9035,88.0,0.0,60.0,0.0,0.0
9036,76.0,51.0,60.0,0.0,0.0
9037,56.0,4.0,30.0,0.0,0.0
9038,59.0,1.0,30.0,0.0,0.0
9039,71.0,0.0,30.0,0.0,0.0
9040,83.0,3.0,30.0,0.0,0.0
9041,80.0,53.0,30.0,0.0,0.0
9042,60.0,1.0,60.0,0.0,0.0
9043,84.0,3.0,60.0,0.0,0.0
9044,57.0,0.0,60.0,0.0,0.0
9045,81.0,4.0,60.0,0.0,0.0
9046,72.0,52.0,60.0,0.0,0.0
9047,53.0,1.0,30.0,0.0,0.0
9048,56.0,2.0,30.0,0.0,0.0
9049,68.0,0.0,30.0,0.0,0.0
9050,80.0,1.0,30.0,0.0,0.0
9051,77.0,2.0,30.0,0.0,0.0
9052,81.0,2.0,60.0,0.0,0.0
9053,57.0,0.0,60.0,0.0,0.0
9054,69.0,1.0,60.0,0.0,0.0
9055,54.0,1.0,60.0,0.0,0.0
9056,78.0,56.0,60.0,0.0,0.0
9057,62.0,1.0,60.0,7.0,0.0
9058,36.0,4.0,60.0,5.0,0.0
9059,66.0,0.0,60.0,7.0,0.0
9060,69.0,0.0,60.0,7.0,0.0
9061,48.0,0.0,60.0,3.0,0.0
9062,50.0,2.0,30.0,0.0,0.0
9063,62.0,0.0,30.0,0.0,0.0
9064,47.0,0.0,60.0,3.0,0.0
9065,50.0,0.0,60.0,7.0,0.0
9066,35.0,57.0,60.0,5.0,0.0
9067,67.0,0.0,60.0,7.0,0.0
9068,55.0,0.0,60.0,0.0,0.0
9069,74.0,56.0,15.0,0.0,0.0
9070,79.0,0.0,60.0,0.0,0.0
9071,62.0,0.0,60.0,0.0,0.0
9072,59.0,0.0,60.0,0.0,0.0
9073,86.0,0.0,60.0,0.0,0.0
9074,74.0,0.0,60.0,7.0,0.0
9075,52.0,0.0,120.0,0.0,0.0
9076,58.0,0.0,120.0,0.0,0.0
9077,64.0,0.0,120.0,0.0,0.0
9078,79.0,0.0,120.0,0.0,0.0
9079,73.0,1.0,120.0,0.0,0.0
9080,85.0,52.0,120.0,0.0,0.0
9081,82.0,0.0,120.0,0.0,0.0
9082,61.0,0.0,120.0,0.0,0.0
9083,45.0,3.0,30.0,3.0,0.0
9084,69.0,1.0,30.0,7.0,0.0
9085,57.0,0.0,30.0,7.0,0.0
9086,33.0,52.0,30.0,5.0,0.0
9087,55.0,2.0,60.0,7.0,0.0
9088,43.0,3.0,60.0,3.0,0.0
9089,67.0,1.0,60.0,7.0,0.0
9090,31.0,1.0,60.0,5.0,0.0
9091,65.0,0.0,120.0,0.0,0.0
9092,74.0,0.0,120.0,0.0,0.0
9093,62.0,0.0,120.0,0.0,0.0
9094,86.0,2.0,120.0,0.0,0.0
9095,53.0,52.0,120.0,0.0,0.0
9096,72.0,4.0,30.0,7.0,0.0
9097,48.0,56.0,30.0,3.0,0.0
9098,36.0,0.0,30.0,5.0,0.0
9099,60.0,0.0,30.0,7.0,0.0
9100,59.0,2.0,60.0,7.0,0.0
9101,71.0,2.0,60.0,7.0,0.0
9102,35.0,2.0,60.0,5.0,0.0
9103,47.0,1.0,60.0,3.0,0.0
9104,52.0,1.0,120.0,0.0,0.0
9105,59.0,0.0,15.0,0.0,0.0
9106,76.0,0.0,120.0,0.0,0.0
9107,79.0,1.0,15.0,0.0,0.0
9108,83.0,0.0,15.0,0.0,0.0
9109,88.0,0.0,120.0,0.0,0.0
9110,64.0,56.0,120.0,0.0,0.0
9111,52.0,4.0,30.0,3.0,0.0
9112,64.0,1.0,30.0,7.0,0.0
9113,40.0,4.0,30.0,5.0,0.0
9114,76.0,51.0,30.0,7.0,0.0
9115,62.0,1.0,60.0,7.0,0.0
9116,38.0,1.0,60.0,5.0,0.0
9117,50.0,1.0,60.0,3.0,0.0
9118,74.0,1.0,60.0,7.0,0.0
9119,50.0,0.0,120.0,0.0,0.0
9120,55.0,0.0,15.0,0.0,0.0
9121,62.0,0.0,120.0,0.0,0.0
9122,89.0,0.0,120.0,0.0,0.0
9123,79.0,0.0,15.0,0.0,0.0
9124,77.0,0.0,120.0,0.0,0.0
9125,59.0,0.0,120.0,0.0,0.0
9126,83.0,0.0,120.0,0.0,0.0
9127,69.0,5.0,30.0,7.0,0.0
9128,81.0,0.0,30.0,7.0,0.0
9129,57.0,2.0,30.0,3.0,0.0
9130,45.0,57.0,30.0,5.0,0.0
9131,55.0,0.0,60.0,3.0,0.0
9132,55.0,0.0,360.0,6.0,0.0
9133,43.0,0.0,360.0,6.0,0.0
9134,67.0,1.0,360.0,2.0,0.0
9135,67.0,0.0,60.0,7.0,0.0
9136,43.0,56.0,60.0,5.0,0.0
9137,79.0,0.0,60.0,7.0,0.0
9138,79.0,0.0,360.0,2.0,0.0
9139,64.0,4.0,30.0,0.0,0.0
9140,80.0,0.0,30.0,0.0,0.0
9141,68.0,0.0,30.0,0.0,0.0
9142,88.0,0.0,30.0,0.0,0.0
9143,92.0,58.0,30.0,0.0,0.0
9144,81.0,2.0,60.0,0.0,0.0
9145,89.0,0.0,60.0,0.0,0.0
9146,93.0,0.0,60.0,0.0,0.0
9147,69.0,2.0,60.0,0.0,0.0
9148,65.0,57.0,60.0,0.0,0.0
9149,64.0,1.0,30.0,0.0,0.0
9150,88.0,0.0,30.0,0.0,0.0
9151,85.0,2.0,30.0,0.0,0.0
9152,76.0,56.0,30.0,0.0,0.0
9153,61.0,0.0,30.0,0.0,0.0
9154,86.0,0.0,60.0,0.0,0.0
9155,65.0,2.0,60.0,0.0,0.0
9156,89.0,0.0,60.0,0.0,0.0
9157,62.0,2.0,60.0,0.0,0.0
9158,77.0,57.0,60.0,0.0,0.0
9159,82.0,1.0,30.0,0.0,0.0
9160,85.0,0.0,30.0,0.0,0.0
9161,73.0,1.0,30.0,0.0,0.0
9162,61.0,2.0,30.0,0.0,0.0
9163,58.0,54.0,30.0,0.0,0.0
9164,59.0,0.0,60.0,0.0,0.0
9165,83.0,2.0,60.0,0.0,0.0
9166,86.0,0.0,60.0,0.0,0.0
9167,62.0,5.0,60.0,0.0,0.0
9168,74.0,49.0,60.0,0.0,0.0
9169,53.0,1.0,60.0,3.0,0.0
9170,41.0,0.0,60.0,5.0,0.0
9171,67.0,2.0,60.0,7.0,0.0
9172,59.0,2.0,60.0,7.0,0.0
9173,74.0,56.0,60.0,7.0,0.0
9174,55.0,4.0,30.0,0.0,0.0
9175,67.0,1.0,30.0,0.0,0.0
9176,79.0,0.0,30.0,0.0,0.0
9177,55.0,0.0,60.0,7.0,0.0
9178,40.0,0.0,60.0,5.0,0.0
9179,60.0,0.0,60.0,7.0,0.0
9180,79.0,0.0,60.0,7.0,0.0
9181,52.0,0.0,60.0,3.0,0.0
9182,79.0,0.0,60.0,0.0,0.0
9183,91.0,0.0,60.0,0.0,0.0
9184,60.0,5.0,60.0,0.0,0.0
9185,64.0,0.0,60.0,0.0,0.0
9186,67.0,0.0,60.0,0.0,0.0
9187,84.0,95.0,60.0,0.0,0.0
9188,66.0,1.0,120.0,0.0,0.0
9189,54.0,0.0,120.0,0.0,0.0
9190,90.0,1.0,120.0,0.0,0.0
9191,78.0,19.0,120.0,0.0,0.0
9192,40.0,0.0,120.0,5.0,0.0
9193,58.0,0.0,40.0,7.0,0.0
9194,52.0,0.0,120.0,3.0,0.0
9195,58.0,40.0,40.0,7.0,0.0
9196,61.0,19.0,15.0,7.0,0.0
9197,55.0,0.0,120.0,0.0,0.0
9198,79.0,1.0,120.0,0.0,0.0
9199,67.0,1.0,120.0,0.0,0.0
9200,91.0,20.0,120.0,0.0,0.0
9201,61.0,0.0,15.0,7.0,0.0
9202,58.0,0.0,40.0,7.0,0.0
9203,41.0,0.0,120.0,5.0,0.0
9204,53.0,1.0,120.0,3.0,0.0
9205,67.0,1.0,240.0,4.0,0.0
9206,62.0,0.0,40.0,7.0,0.0
9207,55.0,18.0,40.0,7.0,0.0
9208,55.0,0.0,240.0,4.0,0.0
9209,62.0,0.0,40.0,7.0,0.0
9210,59.0,0.0,15.0,7.0,0.0
9211,55.0,0.0,40.0,7.0,0.0
9212,43.0,2.0,60.0,0.0,0.0
9213,55.0,1.0,60.0,0.0,0.0
9214,79.0,2.0,60.0,0.0,0.0
9215,67.0,37.0,60.0,0.0,0.0
9216,59.0,37.0,15.0,7.0,0.0
9217,55.0,0.0,40.0,7.0,0.0
9218,62.0,0.0,40.0,7.0,0.0
9219,41.0,4.0,120.0,3.0,0.0
9220,47.0,1.0,240.0,6.0,0.0
9221,59.0,0.0,15.0,7.0,0.0
9222,71.0,0.0,240.0,1.0,0.0
9223,29.0,0.0,120.0,5.0,0.0
9224,55.0,0.0,40.0,7.0,0.0
9225,74.0,39.0,120.0,1.0,0.0
9226,50.0,0.0,120.0,6.0,0.0
9227,59.0,0.0,15.0,7.0,0.0
9228,55.0,36.0,40.0,7.0,0.0
9229,62.0,40.0,15.0,7.0,0.0
9230,67.0,3.0,120.0,0.0,0.0
9231,79.0,0.0,120.0,0.0,0.0
9232,55.0,20.0,120.0,0.0,0.0
9233,91.0,0.0,120.0,0.0,0.0
9234,62.0,0.0,40.0,7.0,0.0
9235,59.0,0.0,15.0,7.0,0.0
9236,55.0,0.0,40.0,7.0,0.0
9237,77.0,0.0,120.0,1.0,0.0
9238,50.0,40.0,120.0,3.0,0.0
9239,53.0,0.0,120.0,6.0,0.0
9240,59.0,17.0,40.0,7.0,0.0
9241,38.0,0.0,120.0,5.0,0.0
9242,65.0,0.0,15.0,7.0,0.0
9243,68.0,2.0,120.0,0.0,0.0
9244,80.0,3.0,120.0,0.0,0.0
9245,92.0,17.0,120.0,0.0,0.0
9246,59.0,0.0,15.0,7.0,0.0
9247,65.0,39.0,15.0,7.0,0.0
9248,39.0,1.0,120.0,5.0,0.0
9249,75.0,0.0,120.0,1.0,0.0
9250,60.0,0.0,40.0,7.0,0.0
9251,51.0,0.0,120.0,3.0,0.0
9252,51.0,0.0,120.0,6.0,0.0
9253,72.0,38.0,120.0,1.0,0.0
9254,48.0,0.0,120.0,6.0,0.0
9255,63.0,0.0,15.0,7.0,0.0
9256,60.0,0.0,40.0,7.0,0.0
9257,56.0,17.0,15.0,7.0,0.0
9258,56.0,1.0,15.0,0.0,0.0
9259,80.0,0.0,60.0,0.0,0.0
9260,68.0,0.0,60.0,0.0,0.0
9261,44.0,1.0,60.0,0.0,0.0
9262,56.0,37.0,15.0,7.0,0.0
9263,60.0,0.0,40.0,7.0,0.0
9264,63.0,0.0,40.0,7.0,0.0
9265,27.0,4.0,120.0,5.0,0.0
9266,39.0,1.0,120.0,3.0,0.0
9267,56.0,1.0,15.0,7.0,0.0
9268,63.0,0.0,40.0,7.0,0.0
9269,56.0,0.0,240.0,4.0,0.0
9270,68.0,0.0,240.0,4.0,0.0
9271,60.0,40.0,15.0,7.0,0.0
9272,56.0,0.0,15.0,7.0,0.0
9273,68.0,2.0,120.0,0.0,0.0
9274,56.0,1.0,120.0,0.0,0.0
9275,92.0,20.0,120.0,0.0,0.0
9276,80.0,0.0,120.0,0.0,0.0
9277,63.0,0.0,15.0,7.0,0.0
9278,60.0,35.0,15.0,7.0,0.0
9279,56.0,0.0,40.0,7.0,0.0
9280,54.0,3.0,120.0,6.0,0.0
9281,48.0,2.0,120.0,3.0,0.0
9282,36.0,1.0,120.0,5.0,0.0
9283,75.0,4.0,120.0,1.0,0.0
9284,78.0,0.0,120.0,1.0,0.0
9285,63.0,0.0,15.0,7.0,0.0
9286,51.0,36.0,120.0,6.0,0.0
9287,63.0,0.0,15.0,7.0,0.0
9288,54.0,17.0,15.0,7.0,0.0
9289,81.0,1.0,120.0,0.0,0.0
9290,93.0,20.0,120.0,0.0,0.0
9291,63.0,0.0,15.0,7.0,0.0
9292,54.0,34.0,15.0,7.0,0.0
9293,64.0,0.0,40.0,7.0,0.0
9294,76.0,0.0,120.0,1.0,0.0
9295,69.0,0.0,180.0,4.0,0.0
9296,57.0,1.0,180.0,4.0,0.0
9297,55.0,16.0,40.0,7.0,0.0
9298,49.0,0.0,120.0,3.0,0.0
9299,55.0,0.0,360.0,6.0,0.0
9300,57.0,0.0,40.0,7.0,0.0
9301,37.0,0.0,120.0,5.0,0.0
9302,79.0,38.0,360.0,1.0,0.0
9303,52.0,38.0,120.0,6.0,0.0
9304,45.0,0.0,120.0,0.0,0.0
9305,57.0,0.0,15.0,0.0,0.0
9306,69.0,3.0,15.0,0.0,0.0
9307,81.0,0.0,120.0,0.0,0.0
9308,64.0,0.0,15.0,7.0,0.0
9309,57.0,0.0,15.0,7.0,0.0
9310,55.0,40.0,15.0,7.0,0.0
9311,50.0,1.0,120.0,6.0,0.0
9312,74.0,0.0,120.0,1.0,0.0
9313,50.0,1.0,120.0,3.0,0.0
9314,38.0,4.0,120.0,5.0,0.0
9315,62.0,0.0,40.0,7.0,0.0
9316,57.0,19.0,60.0,7.0,0.0
9317,55.0,15.0,15.0,7.0,0.0
9318,62.0,0.0,40.0,7.0,0.0
9319,57.0,3.0,120.0,0.0,0.0
9320,93.0,0.0,120.0,0.0,0.0
9321,55.0,34.0,15.0,7.0,0.0
9322,62.0,0.0,40.0,7.0,0.0
9323,51.0,4.0,120.0,3.0,0.0
9324,39.0,1.0,120.0,5.0,0.0
9325,57.0,0.0,40.0,7.0,0.0
9326,55.0,0.0,40.0,7.0,0.0
9327,49.0,0.0,120.0,6.0,0.0
9328,57.0,2.0,180.0,4.0,0.0
9329,69.0,18.0,180.0,4.0,0.0
9330,55.0,0.0,40.0,7.0,0.0
9331,61.0,17.0,15.0,7.0,0.0
9332,57.0,0.0,40.0,7.0,0.0
9333,45.0,1.0,120.0,0.0,0.0
9334,81.0,19.0,15.0,0.0,0.0
9335,69.0,1.0,15.0,0.0,0.0
9336,57.0,2.0,120.0,0.0,0.0
9337,61.0,35.0,15.0,7.0,0.0
9338,76.0,1.0,120.0,1.0,0.0
9339,57.0,0.0,15.0,7.0,0.0
9340,45.0,1.0,120.0,3.0,0.0
9341,55.0,0.0,15.0,7.0,0.0
9342,33.0,0.0,120.0,5.0,0.0
9343,61.0,2.0,15.0,7.0,0.0
9344,73.0,0.0,15.0,1.0,0.0
9345,52.0,0.0,120.0,6.0,0.0
9346,49.0,0.0,120.0,6.0,0.0
9347,61.0,0.0,15.0,7.0,0.0
9348,55.0,15.0,15.0,7.0,0.0
9349,70.0,3.0,120.0,0.0,0.0
9350,58.0,0.0,120.0,0.0,0.0
9351,94.0,0.0,120.0,0.0,0.0
9352,82.0,0.0,120.0,0.0,0.0
9353,55.0,38.0,15.0,7.0,0.0
9354,61.0,0.0,40.0,7.0,0.0
9355,55.0,0.0,15.0,7.0,0.0
9356,70.0,20.0,60.0,4.0,0.0
9357,52.0,0.0,120.0,6.0,0.0
9358,55.0,0.0,420.0,6.0,0.0
9359,37.0,0.0,120.0,5.0,0.0
9360,49.0,40.0,120.0,3.0,0.0
9361,76.0,0.0,120.0,1.0,0.0
9362,64.0,0.0,15.0,7.0,0.0
9363,58.0,0.0,15.0,7.0,0.0
9364,57.0,4.0,120.0,0.0,0.0
9365,69.0,2.0,60.0,4.0,0.0
9366,69.0,1.0,120.0,0.0,0.0
9367,45.0,1.0,120.0,0.0,0.0
9368,81.0,0.0,120.0,0.0,0.0
9369,55.0,38.0,15.0,7.0,0.0
9370,64.0,0.0,15.0,7.0,0.0
9371,57.0,0.0,40.0,7.0,0.0
9372,50.0,5.0,120.0,3.0,0.0
9373,38.0,0.0,120.0,5.0,0.0
9374,50.0,0.0,120.0,6.0,0.0
9375,57.0,19.0,60.0,7.0,0.0
9376,74.0,38.0,120.0,1.0,0.0
9377,55.0,15.0,15.0,7.0,0.0
9378,62.0,0.0,15.0,7.0,0.0
9379,70.0,2.0,120.0,0.0,0.0
9380,58.0,2.0,120.0,0.0,0.0
9381,82.0,3.0,120.0,0.0,0.0
9382,94.0,1.0,120.0,0.0,0.0
9383,62.0,0.0,40.0,7.0,0.0
9384,39.0,5.0,120.0,5.0,0.0
9385,73.0,0.0,120.0,1.0,0.0
9386,49.0,2.0,120.0,6.0,0.0
9387,55.0,2.0,15.0,7.0,0.0
9388,51.0,1.0,120.0,3.0,0.0
9389,70.0,19.0,60.0,4.0,0.0
9390,55.0,0.0,15.0,7.0,0.0
9391,58.0,0.0,15.0,7.0,0.0
9392,61.0,13.0,15.0,7.0,0.0
9393,81.0,0.0,120.0,0.0,0.0
9394,69.0,0.0,120.0,0.0,0.0
9395,57.0,5.0,120.0,0.0,0.0
9396,69.0,39.0,60.0,4.0,0.0
9397,45.0,15.0,120.0,0.0,0.0
9398,61.0,0.0,40.0,7.0,0.0
9399,55.0,0.0,15.0,7.0,0.0
9400,52.0,2.0,60.0,3.0,0.0
9401,40.0,4.0,60.0,5.0,0.0
9402,57.0,0.0,15.0,7.0,0.0
9403,55.0,0.0,15.0,7.0,0.0
9404,61.0,13.0,15.0,7.0,0.0
9405,33.0,2.0,60.0,5.0,0.0
9406,45.0,5.0,60.0,3.0,0.0
9407,85.0,2.0,60.0,0.0,0.0
9408,88.0,0.0,60.0,0.0,0.0
9409,67.0,0.0,60.0,0.0,0.0
9410,79.0,0.0,60.0,0.0,0.0
9411,76.0,0.0,60.0,0.0,0.0
9412,76.0,0.0,60.0,1.0,0.0
9413,79.0,0.0,15.0,1.0,0.0
9414,64.0,0.0,60.0,4.0,0.0
9415,73.0,0.0,60.0,4.0,0.0
9416,64.0,0.0,60.0,0.0,0.0
9417,73.0,0.0,60.0,0.0,0.0
9418,55.0,38.0,60.0,6.0,0.0
9419,52.0,0.0,60.0,6.0,0.0
9420,61.0,0.0,40.0,7.0,0.0
9421,55.0,0.0,40.0,7.0,0.0
9422,50.0,0.0,60.0,6.0,0.0
9423,69.0,0.0,60.0,1.0,0.0
9424,78.0,0.0,60.0,1.0,0.0
9425,54.0,0.0,60.0,6.0,0.0
9426,38.0,0.0,60.0,3.0,0.0
9427,74.0,0.0,60.0,0.0,0.0
9428,78.0,0.0,60.0,0.0,0.0
9429,81.0,0.0,60.0,0.0,0.0
9430,86.0,0.0,60.0,0.0,0.0
9431,62.0,0.0,60.0,0.0,0.0
9432,66.0,0.0,60.0,0.0,0.0
9433,69.0,0.0,60.0,0.0,0.0
9434,66.0,0.0,60.0,4.0,0.0
9435,74.0,20.0,60.0,4.0,0.0
9436,62.0,0.0,60.0,7.0,0.0
9437,54.0,0.0,60.0,7.0,0.0
9438,26.0,0.0,60.0,5.0,0.0
9439,50.0,20.0,15.0,7.0,0.0
9440,50.0,40.0,15.0,7.0,0.0
9441,50.0,40.0,15.0,7.0,0.0
9442,38.0,1.0,60.0,3.0,0.0
9443,26.0,39.0,60.0,5.0,0.0
9444,50.0,0.0,40.0,7.0,0.0
9445,55.0,3.0,120.0,7.0,0.0
9446,46.0,0.0,120.0,7.0,0.0
9447,27.0,1.0,120.0,5.0,0.0
9448,46.0,0.0,40.0,6.0,0.0
9449,55.0,0.0,40.0,4.0,0.0
9450,58.0,40.0,40.0,4.0,0.0
9451,43.0,0.0,40.0,6.0,0.0
9452,39.0,0.0,120.0,3.0,0.0
9453,51.0,37.0,120.0,7.0,0.0
9454,51.0,0.0,40.0,6.0,0.0
9455,63.0,0.0,40.0,4.0,0.0
9456,46.0,0.0,40.0,6.0,0.0
9457,58.0,36.0,40.0,4.0,0.0
9458,55.0,0.0,40.0,6.0,0.0
9459,63.0,3.0,40.0,4.0,0.0
9460,67.0,0.0,40.0,4.0,0.0
9461,51.0,0.0,40.0,6.0,0.0
9462,58.0,0.0,40.0,6.0,0.0
9463,55.0,0.0,40.0,6.0,0.0
9464,67.0,40.0,40.0,4.0,0.0
9465,70.0,0.0,40.0,4.0,0.0
9466,70.0,36.0,40.0,4.0,0.0
9467,55.0,1.0,60.0,7.0,0.0
9468,46.0,3.0,60.0,7.0,0.0
9469,75.0,0.0,15.0,4.0,0.0
9470,70.0,0.0,40.0,4.0,0.0
9471,79.0,0.0,40.0,4.0,0.0
9472,75.0,0.0,120.0,4.0,0.0
9473,48.0,1.0,120.0,6.0,0.0
9474,80.0,0.0,120.0,4.0,0.0
9475,56.0,0.0,120.0,6.0,0.0
9476,24.0,0.0,120.0,5.0,0.0
9477,56.0,0.0,120.0,7.0,0.0
9478,48.0,40.0,40.0,7.0,0.0
9479,51.0,39.0,15.0,7.0,0.0
9480,36.0,37.0,120.0,3.0,0.0
9481,48.0,40.0,40.0,7.0,0.0
9482,48.0,0.0,40.0,7.0,0.0
9483,48.0,40.0,15.0,7.0,0.0
9484,48.0,1.0,40.0,7.0,0.0
9485,24.0,3.0,30.0,5.0,0.0
9486,36.0,16.0,30.0,3.0,0.0
9487,50.0,1.0,120.0,7.0,0.0
9488,45.0,1.0,120.0,6.0,0.0
9489,54.0,20.0,20.0,0.0,0.0
9490,26.0,0.0,120.0,5.0,0.0
9491,54.0,1.0,120.0,7.0,0.0
9492,54.0,7.0,120.0,6.0,0.0
9493,45.0,0.0,40.0,0.0,0.0
9494,42.0,0.0,40.0,0.0,0.0
9495,62.0,0.0,20.0,0.0,0.0
9496,38.0,13.0,120.0,3.0,0.0
9497,57.0,0.0,20.0,0.0,0.0
9498,64.0,20.0,20.0,0.0,0.0
9499,62.0,20.0,20.0,0.0,0.0
9500,66.0,0.0,20.0,0.0,0.0
9501,50.0,0.0,40.0,0.0,0.0
9502,54.0,0.0,40.0,0.0,0.0
9503,64.0,0.0,20.0,0.0,0.0
9504,69.0,20.0,20.0,0.0,0.0
9505,74.0,17.0,20.0,0.0,0.0
9506,57.0,0.0,40.0,0.0,0.0
9507,66.0,0.0,20.0,0.0,0.0
9508,54.0,0.0,40.0,0.0,0.0
9509,69.0,0.0,20.0,0.0,0.0
9510,76.0,0.0,20.0,0.0,0.0
9511,74.0,0.0,20.0,0.0,0.0
9512,78.0,20.0,20.0,0.0,0.0
9513,66.0,0.0,40.0,0.0,0.0
9514,62.0,0.0,40.0,0.0,0.0
9515,76.0,0.0,20.0,0.0,0.0
9516,81.0,20.0,20.0,0.0,0.0
9517,69.0,0.0,40.0,0.0,0.0
9518,86.0,0.0,20.0,0.0,0.0
9519,78.0,20.0,20.0,0.0,0.0
9520,66.0,0.0,40.0,0.0,0.0
9521,88.0,0.0,20.0,0.0,0.0
9522,90.0,0.0,40.0,0.0,0.0
9523,78.0,0.0,40.0,0.0,0.0
9524,81.0,33.0,15.0,0.0,0.0
9525,54.0,4.0,30.0,6.0,0.0
9526,45.0,1.0,30.0,6.0,0.0
9527,54.0,2.0,20.0,7.0,0.0
9528,74.0,0.0,15.0,0.0,0.0
9529,43.0,0.0,120.0,11.0,0.0
9530,70.0,0.0,90.0,0.0,0.0
9531,91.0,0.0,90.0,0.0,0.0
9532,31.0,0.0,120.0,11.0,0.0
9533,46.0,0.0,120.0,6.0,0.0
9534,55.0,0.0,120.0,6.0,0.0
9535,50.0,85.0,15.0,7.0,0.0
9536,55.0,0.0,120.0,7.0,0.0
9537,79.0,30.0,15.0,0.0,0.0
9538,86.0,0.0,15.0,0.0,0.0
9539,82.0,0.0,15.0,0.0,0.0
9540,74.0,0.0,15.0,0.0,0.0
9541,62.0,3.0,90.0,0.0,0.0
9542,74.0,0.0,15.0,0.0,0.0
9543,79.0,0.0,15.0,0.0,0.0
9544,70.0,0.0,15.0,0.0,0.0
9545,67.0,87.0,15.0,0.0,0.0
9546,82.0,0.0,15.0,0.0,0.0
9547,81.0,0.0,30.0,0.0,0.0
9548,72.0,4.0,30.0,0.0,0.0
9549,69.0,0.0,30.0,0.0,0.0
9550,60.0,1.0,30.0,0.0,0.0
9551,75.0,0.0,30.0,0.0,0.0
9552,63.0,87.0,30.0,0.0,0.0
9553,51.0,0.0,30.0,7.0,0.0
9554,79.0,3.0,90.0,0.0,0.0
9555,62.0,0.0,90.0,0.0,0.0
9556,31.0,0.0,120.0,11.0,0.0
9557,43.0,0.0,120.0,11.0,0.0
9558,55.0,0.0,120.0,7.0,0.0
9559,58.0,0.0,90.0,0.0,0.0
9560,67.0,30.0,90.0,0.0,0.0
9561,74.0,0.0,15.0,0.0,0.0
9562,70.0,0.0,15.0,0.0,0.0
9563,50.0,3.0,90.0,0.0,0.0
9564,55.0,0.0,15.0,0.0,0.0
9565,58.0,0.0,15.0,0.0,0.0
9566,62.0,0.0,15.0,0.0,0.0
9567,70.0,0.0,15.0,0.0,0.0
9568,67.0,0.0,15.0,0.0,0.0
9569,69.0,2.0,30.0,0.0,0.0
9570,60.0,0.0,30.0,0.0,0.0
9571,48.0,3.0,30.0,0.0,0.0
9572,63.0,0.0,30.0,0.0,0.0
9573,51.0,0.0,30.0,0.0,0.0
9574,51.0,3.0,30.0,6.0,0.0
9575,57.0,87.0,30.0,0.0,0.0
9576,46.0,0.0,90.0,0.0,0.0
9577,31.0,0.0,120.0,11.0,0.0
9578,62.0,0.0,90.0,0.0,0.0
9579,55.0,0.0,120.0,6.0,0.0
9580,58.0,27.0,90.0,0.0,0.0
9581,50.0,0.0,90.0,0.0,0.0
9582,43.0,90.0,120.0,11.0,0.0
9583,67.0,0.0,90.0,0.0,0.0
9584,43.0,3.0,30.0,0.0,0.0
9585,55.0,0.0,15.0,0.0,0.0
9586,46.0,0.0,30.0,0.0,0.0
9587,62.0,0.0,30.0,0.0,0.0
9588,50.0,0.0,30.0,0.0,0.0
9589,58.0,0.0,30.0,0.0,0.0
9590,50.0,0.0,90.0,0.0,0.0
9591,55.0,0.0,90.0,0.0,0.0
9592,62.0,3.0,90.0,0.0,0.0
9593,46.0,0.0,90.0,0.0,0.0
9594,58.0,0.0,90.0,0.0,0.0
9595,67.0,26.0,90.0,0.0,0.0
9596,69.0,0.0,30.0,0.0,0.0
9597,60.0,1.0,30.0,0.0,0.0
9598,51.0,1.0,30.0,0.0,0.0
9599,57.0,0.0,30.0,0.0,0.0
9600,63.0,0.0,30.0,0.0,0.0
9601,48.0,0.0,30.0,0.0,0.0
9602,48.0,89.0,30.0,7.0,0.0
9603,43.0,0.0,120.0,11.0,0.0
9604,31.0,1.0,120.0,11.0,0.0
9605,70.0,0.0,90.0,0.0,0.0
9606,55.0,85.0,120.0,7.0,0.0
9607,55.0,0.0,15.0,0.0,0.0
9608,67.0,0.0,15.0,0.0,0.0
9609,62.0,0.0,15.0,0.0,0.0
9610,58.0,30.0,15.0,0.0,0.0
9611,50.0,0.0,15.0,0.0,0.0
9612,46.0,4.0,30.0,0.0,0.0
9613,67.0,0.0,15.0,0.0,0.0
9614,50.0,0.0,90.0,0.0,0.0
9615,58.0,0.0,90.0,0.0,0.0
9616,62.0,0.0,90.0,0.0,0.0
9617,55.0,0.0,90.0,0.0,0.0
9618,70.0,0.0,90.0,0.0,0.0
9619,51.0,2.0,30.0,6.0,0.0
9620,63.0,1.0,30.0,0.0,0.0
9621,72.0,90.0,30.0,0.0,0.0
9622,67.0,27.0,15.0,0.0,0.0
9623,60.0,0.0,30.0,0.0,0.0
9624,55.0,0.0,30.0,0.0,0.0
9625,51.0,0.0,30.0,0.0,0.0
9626,53.0,30.0,90.0,0.0,0.0
9627,58.0,0.0,90.0,0.0,0.0
9628,26.0,85.0,120.0,11.0,0.0
9629,58.0,0.0,120.0,6.0,0.0
9630,38.0,0.0,120.0,11.0,0.0
9631,62.0,0.0,90.0,0.0,0.0
9632,70.0,0.0,15.0,0.0,0.0
9633,74.0,0.0,15.0,0.0,0.0
9634,77.0,0.0,30.0,0.0,0.0
9635,65.0,0.0,15.0,0.0,0.0
9636,58.0,0.0,30.0,0.0,0.0
9637,62.0,0.0,30.0,0.0,0.0
9638,53.0,5.0,90.0,0.0,0.0
9639,65.0,0.0,15.0,0.0,0.0
9640,58.0,25.0,90.0,0.0,0.0
9641,70.0,0.0,90.0,0.0,0.0
9642,74.0,0.0,90.0,0.0,0.0
9643,62.0,0.0,90.0,0.0,0.0
9644,46.0,2.0,30.0,7.0,0.0
9645,72.0,3.0,30.0,0.0,0.0
9646,67.0,0.0,30.0,0.0,0.0
9647,63.0,3.0,30.0,0.0,0.0
9648,51.0,0.0,30.0,0.0,0.0
9649,60.0,84.0,30.0,0.0,0.0
9650,55.0,0.0,30.0,0.0,0.0
9651,70.0,3.0,90.0,0.0,0.0
9652,62.0,25.0,90.0,0.0,0.0
9653,50.0,0.0,90.0,0.0,0.0
9654,53.0,0.0,120.0,7.0,0.0
9655,38.0,3.0,120.0,11.0,0.0
9656,50.0,0.0,120.0,11.0,0.0
9657,58.0,0.0,90.0,0.0,0.0
9658,46.0,5.0,30.0,0.0,0.0
9659,65.0,0.0,15.0,0.0,0.0
9660,53.0,0.0,15.0,0.0,0.0
9661,70.0,3.0,90.0,0.0,0.0
9662,58.0,0.0,15.0,0.0,0.0
9663,50.0,0.0,15.0,0.0,0.0
9664,65.0,0.0,90.0,0.0,0.0
9665,62.0,84.0,15.0,0.0,0.0
9666,53.0,0.0,90.0,0.0,0.0
9667,63.0,3.0,30.0,0.0,0.0
9668,60.0,0.0,30.0,0.0,0.0
9669,51.0,0.0,30.0,0.0,0.0
9670,72.0,3.0,30.0,0.0,0.0
9671,51.0,0.0,30.0,6.0,0.0
9672,55.0,0.0,30.0,0.0,0.0
9673,67.0,87.0,30.0,0.0,0.0
9674,58.0,87.0,120.0,6.0,0.0
9675,46.0,0.0,120.0,11.0,0.0
9676,34.0,0.0,120.0,11.0,0.0
9677,74.0,0.0,90.0,0.0,0.0
9678,50.0,3.0,30.0,0.0,0.0
9679,53.0,0.0,15.0,0.0,0.0
9680,65.0,0.0,15.0,0.0,0.0
9681,70.0,0.0,15.0,0.0,0.0
9682,62.0,0.0,15.0,0.0,0.0
9683,58.0,27.0,15.0,0.0,0.0
9684,58.0,0.0,15.0,0.0,0.0
9685,70.0,0.0,90.0,0.0,0.0
9686,53.0,3.0,90.0,0.0,0.0
9687,62.0,0.0,90.0,0.0,0.0
9688,74.0,23.0,90.0,0.0,0.0
9689,65.0,0.0,90.0,0.0,0.0
9690,55.0,1.0,30.0,7.0,0.0
9691,64.0,1.0,30.0,0.0,0.0
9692,67.0,2.0,30.0,0.0,0.0
9693,58.0,0.0,30.0,0.0,0.0
9694,55.0,0.0,30.0,0.0,0.0
9695,70.0,2.0,30.0,0.0,0.0
9696,76.0,83.0,30.0,0.0,0.0
9697,57.0,5.0,90.0,0.0,0.0
9698,60.0,1.0,120.0,7.0,0.0
9699,77.0,0.0,90.0,0.0,0.0
9700,72.0,0.0,90.0,0.0,0.0
9701,65.0,0.0,90.0,0.0,0.0
9702,60.0,0.0,90.0,0.0,0.0
9703,45.0,0.0,120.0,11.0,0.0
9704,33.0,0.0,120.0,11.0,0.0
9705,81.0,2.0,30.0,0.0,0.0
9706,69.0,27.0,15.0,0.0,0.0
9707,77.0,0.0,30.0,0.0,0.0
9708,72.0,0.0,30.0,0.0,0.0
9709,65.0,0.0,30.0,0.0,0.0
9710,36.0,1.0,120.0,11.0,0.0
9711,69.0,90.0,15.0,0.0,0.0
9712,77.0,5.0,90.0,0.0,0.0
9713,72.0,0.0,90.0,0.0,0.0
9714,65.0,0.0,90.0,0.0,0.0
9715,60.0,0.0,15.0,0.0,0.0
9716,48.0,1.0,120.0,11.0,0.0
9717,57.0,21.0,90.0,0.0,0.0
9718,76.0,2.0,30.0,0.0,0.0
9719,58.0,0.0,30.0,0.0,0.0
9720,64.0,1.0,30.0,0.0,0.0
9721,70.0,0.0,30.0,0.0,0.0
9722,48.0,1.0,30.0,6.0,0.0
9723,67.0,0.0,30.0,0.0,0.0
9724,55.0,38.0,30.0,0.0,0.0
9725,77.0,0.0,60.0,0.0,0.0
9726,72.0,0.0,60.0,0.0,0.0
9727,69.0,0.0,60.0,0.0,0.0
9728,65.0,0.0,60.0,0.0,0.0
9729,77.0,0.0,40.0,1.0,0.0
9730,81.0,20.0,40.0,4.0,0.0
9731,81.0,0.0,40.0,1.0,0.0
9732,41.0,0.0,120.0,11.0,0.0
9733,57.0,0.0,120.0,11.0,0.0
9734,60.0,0.0,60.0,0.0,0.0
9735,60.0,0.0,120.0,11.0,0.0
9736,65.0,0.0,120.0,7.0,0.0
9737,29.0,0.0,120.0,11.0,0.0
9738,53.0,0.0,120.0,6.0,0.0
9739,77.0,0.0,120.0,7.0,0.0
9740,57.0,20.0,60.0,0.0,0.0
9741,72.0,0.0,40.0,4.0,0.0
9742,72.0,40.0,40.0,1.0,0.0
9743,77.0,0.0,15.0,4.0,0.0
9744,77.0,0.0,40.0,1.0,0.0
9745,72.0,0.0,40.0,4.0,0.0
9746,69.0,0.0,40.0,4.0,0.0
9747,72.0,0.0,40.0,1.0,0.0
9748,65.0,1.0,40.0,1.0,0.0
9749,69.0,39.0,15.0,1.0,0.0
9750,69.0,40.0,40.0,4.0,0.0
9751,60.0,39.0,40.0,4.0,0.0
9752,65.0,0.0,15.0,4.0,0.0
9753,57.0,1.0,40.0,4.0,0.0
9754,60.0,0.0,40.0,4.0,0.0
9755,77.0,1.0,30.0,7.0,0.0
9756,65.0,8.0,30.0,7.0,0.0
9757,97.0,17.0,15.0,0.0,0.0
9758,34.0,2.0,120.0,5.0,0.0
9759,58.0,1.0,60.0,4.0,0.0
9760,70.0,0.0,60.0,1.0,0.0
9761,61.0,1.0,120.0,11.0,0.0
9762,78.0,1.0,120.0,7.0,0.0
9763,46.0,0.0,120.0,3.0,0.0
9764,58.0,0.0,120.0,11.0,0.0
9765,66.0,0.0,120.0,7.0,0.0
9766,82.0,0.0,40.0,0.0,0.0
9767,61.0,2.0,60.0,4.0,0.0
9768,78.0,2.0,40.0,0.0,0.0
9769,73.0,13.0,60.0,1.0,0.0
9770,96.0,14.0,15.0,0.0,0.0
9771,94.0,16.0,15.0,0.0,0.0
9772,73.0,10.0,40.0,0.0,0.0
9773,90.0,1.0,15.0,0.0,0.0
9774,85.0,5.0,15.0,0.0,0.0
9775,84.0,15.0,15.0,0.0,0.0
9776,70.0,0.0,15.0,0.0,0.0
9777,66.0,15.0,40.0,0.0,0.0
9778,82.0,11.0,15.0,0.0,0.0
9779,78.0,0.0,15.0,0.0,0.0
9780,73.0,15.0,15.0,0.0,0.0
9781,58.0,5.0,40.0,0.0,0.0
9782,61.0,0.0,40.0,0.0,0.0
9783,72.0,10.0,15.0,0.0,0.0
9784,70.0,15.0,15.0,0.0,0.0
9785,54.0,39.0,40.0,0.0,0.0
9786,58.0,0.0,40.0,0.0,0.0
9787,66.0,20.0,15.0,0.0,0.0
9788,61.0,0.0,60.0,0.0,0.0
9789,46.0,1.0,40.0,0.0,0.0
9790,49.0,0.0,40.0,0.0,0.0
9791,46.0,1.0,30.0,3.0,0.0
9792,34.0,39.0,30.0,5.0,0.0
9793,36.0,0.0,120.0,5.0,0.0
9794,55.0,2.0,120.0,11.0,0.0
9795,64.0,0.0,120.0,11.0,0.0
9796,48.0,0.0,120.0,3.0,0.0
9797,76.0,40.0,40.0,4.0,0.0
9798,60.0,0.0,120.0,7.0,0.0
9799,72.0,38.0,120.0,7.0,0.0
9800,67.0,40.0,40.0,4.0,0.0
9801,72.0,0.0,15.0,4.0,0.0
9802,67.0,0.0,40.0,4.0,0.0
9803,64.0,0.0,40.0,4.0,0.0
9804,64.0,40.0,40.0,4.0,0.0
9805,60.0,0.0,15.0,4.0,0.0
9806,52.0,1.0,40.0,4.0,0.0
9807,55.0,34.0,15.0,4.0,0.0
9808,72.0,4.0,30.0,7.0,0.0
9809,60.0,1.0,30.0,7.0,0.0
9810,65.0,2.0,120.0,7.0,0.0
9811,96.0,18.0,15.0,0.0,0.0
9812,29.0,2.0,120.0,5.0,0.0
9813,77.0,0.0,120.0,7.0,0.0
9814,57.0,0.0,60.0,4.0,0.0
9815,69.0,0.0,40.0,0.0,0.0
9816,53.0,14.0,60.0,4.0,0.0
9817,41.0,0.0,120.0,3.0,0.0
9818,57.0,0.0,120.0,11.0,0.0
9819,77.0,0.0,40.0,0.0,0.0
9820,65.0,13.0,120.0,11.0,0.0
9821,93.0,10.0,15.0,0.0,0.0
9822,91.0,14.0,15.0,0.0,0.0
9823,65.0,0.0,40.0,0.0,0.0
9824,69.0,6.0,40.0,0.0,0.0
9825,72.0,5.0,15.0,0.0,0.0
9826,89.0,1.0,15.0,0.0,0.0
9827,84.0,6.0,15.0,0.0,0.0
9828,81.0,17.0,15.0,0.0,0.0
9829,57.0,0.0,40.0,0.0,0.0
9830,60.0,0.0,40.0,0.0,0.0
9831,65.0,1.0,40.0,0.0,0.0
9832,79.0,12.0,15.0,0.0,0.0
9833,77.0,1.0,15.0,0.0,0.0
9834,72.0,11.0,15.0,0.0,0.0
9835,57.0,15.0,40.0,0.0,0.0
9836,60.0,0.0,40.0,0.0,0.0
9837,69.0,15.0,15.0,0.0,0.0
9838,67.0,0.0,15.0,0.0,0.0
9839,48.0,0.0,40.0,0.0,0.0
9840,53.0,0.0,15.0,0.0,0.0
9841,65.0,25.0,15.0,0.0,0.0
9842,60.0,1.0,60.0,0.0,0.0
9843,41.0,0.0,40.0,0.0,0.0
9844,45.0,36.0,15.0,0.0,0.0
9845,48.0,60.0,40.0,0.0,0.0
9846,41.0,3.0,30.0,3.0,0.0
9847,29.0,0.0,30.0,5.0,0.0
9848,34.0,0.0,120.0,5.0,0.0
9849,46.0,0.0,120.0,3.0,0.0
9850,53.0,30.0,30.0,0.0,0.0
9851,62.0,0.0,15.0,0.0,0.0
9852,58.0,0.0,15.0,0.0,0.0
9853,65.0,56.0,60.0,0.0,0.0
9854,46.0,29.0,15.0,0.0,0.0
9855,50.0,0.0,15.0,0.0,0.0
9856,53.0,1.0,30.0,0.0,0.0
9857,58.0,0.0,15.0,0.0,0.0
9858,50.0,0.0,90.0,0.0,0.0
9859,53.0,0.0,90.0,0.0,0.0
9860,70.0,3.0,30.0,0.0,0.0
9861,62.0,0.0,30.0,0.0,0.0
9862,65.0,30.0,30.0,0.0,0.0
9863,63.0,1.0,60.0,0.0,0.0
9864,67.0,1.0,60.0,0.0,0.0
9865,72.0,1.0,60.0,0.0,0.0
9866,55.0,2.0,30.0,0.0,0.0
9867,51.0,0.0,30.0,7.0,0.0
9868,60.0,0.0,30.0,0.0,0.0
9869,51.0,56.0,30.0,0.0,0.0
9870,46.0,0.0,120.0,3.0,0.0
9871,53.0,3.0,90.0,0.0,0.0
9872,58.0,1.0,120.0,7.0,0.0
9873,34.0,0.0,120.0,5.0,0.0
9874,62.0,0.0,90.0,0.0,0.0
9875,65.0,27.0,30.0,0.0,0.0
9876,74.0,0.0,30.0,0.0,0.0
9877,70.0,3.0,15.0,0.0,0.0
9878,77.0,1.0,60.0,0.0,0.0
9879,74.0,59.0,60.0,0.0,0.0
9880,58.0,25.0,15.0,0.0,0.0
9881,62.0,0.0,30.0,0.0,0.0
9882,65.0,0.0,30.0,0.0,0.0
9883,70.0,3.0,90.0,0.0,0.0
9884,65.0,0.0,90.0,0.0,0.0
9885,62.0,27.0,90.0,0.0,0.0
9886,74.0,0.0,30.0,0.0,0.0
9887,77.0,27.0,30.0,0.0,0.0
9888,82.0,0.0,30.0,0.0,0.0
9889,75.0,57.0,60.0,0.0,0.0
9890,79.0,0.0,60.0,0.0,0.0
9891,84.0,0.0,60.0,0.0,0.0
9892,67.0,2.0,30.0,0.0,0.0
9893,72.0,1.0,30.0,0.0,0.0
9894,63.0,0.0,30.0,0.0,0.0
9895,65.0,27.0,90.0,0.0,0.0
9896,34.0,0.0,120.0,5.0,0.0
9897,74.0,0.0,90.0,0.0,0.0
9898,46.0,0.0,120.0,3.0,0.0
9899,58.0,0.0,120.0,6.0,0.0
9900,77.0,3.0,30.0,0.0,0.0
9901,82.0,0.0,30.0,0.0,0.0
9902,86.0,30.0,30.0,0.0,0.0
9903,82.0,0.0,60.0,0.0,0.0
9904,86.0,0.0,60.0,0.0,0.0
9905,89.0,0.0,60.0,0.0,0.0
9906,77.0,3.0,30.0,0.0,0.0
9907,70.0,0.0,15.0,0.0,0.0
9908,74.0,0.0,30.0,0.0,0.0
9909,70.0,0.0,90.0,0.0,0.0
9910,74.0,26.0,90.0,0.0,0.0
9911,65.0,0.0,90.0,0.0,0.0
9912,77.0,0.0,30.0,0.0,0.0
9913,86.0,0.0,30.0,0.0,0.0
9914,82.0,30.0,30.0,0.0,0.0
9915,84.0,1.0,60.0,0.0,0.0
9916,79.0,0.0,60.0,0.0,0.0
9917,75.0,0.0,60.0,0.0,0.0
9918,51.0,2.0,30.0,7.0,0.0
9919,72.0,1.0,30.0,0.0,0.0
9920,67.0,0.0,30.0,0.0,0.0
9921,63.0,60.0,30.0,0.0,0.0
9922,65.0,2.0,90.0,0.0,0.0
9923,46.0,2.0,120.0,3.0,0.0
9924,70.0,28.0,90.0,0.0,0.0
9925,62.0,0.0,90.0,0.0,0.0
9926,58.0,5.0,120.0,7.0,0.0
9927,34.0,55.0,120.0,5.0,0.0
9928,77.0,5.0,30.0,0.0,0.0
9929,82.0,0.0,30.0,0.0,0.0
9930,74.0,20.0,30.0,0.0,0.0
9931,86.0,1.0,60.0,0.0,0.0
9932,82.0,0.0,60.0,0.0,0.0
9933,77.0,0.0,60.0,0.0,0.0
9934,74.0,2.0,30.0,0.0,0.0
9935,65.0,0.0,30.0,0.0,0.0
9936,70.0,0.0,30.0,0.0,0.0
9937,70.0,0.0,90.0,0.0,0.0
9938,62.0,27.0,90.0,0.0,0.0
9939,65.0,0.0,90.0,0.0,0.0
9940,82.0,0.0,30.0,0.0,0.0
9941,77.0,30.0,30.0,0.0,0.0
9942,74.0,0.0,30.0,0.0,0.0
9943,72.0,0.0,60.0,0.0,0.0
9944,75.0,1.0,60.0,0.0,0.0
9945,81.0,56.0,60.0,0.0,0.0
9946,46.0,2.0,30.0,6.0,0.0
9947,60.0,0.0,30.0,4.0,0.0
9948,69.0,1.0,30.0,0.0,0.0
9949,63.0,0.0,30.0,0.0,0.0
9950,63.0,0.0,30.0,4.0,0.0
9951,60.0,0.0,30.0,0.0,0.0
9952,51.0,0.0,120.0,3.0,0.0
9953,39.0,0.0,120.0,5.0,0.0
9954,67.0,0.0,120.0,4.0,0.0
9955,58.0,0.0,120.0,4.0,0.0
9956,51.0,0.0,120.0,6.0,0.0
9957,79.0,3.0,30.0,0.0,0.0
9958,70.0,0.0,30.0,0.0,0.0
9959,67.0,0.0,40.0,0.0,0.0
9960,75.0,30.0,15.0,0.0,0.0
9961,70.0,0.0,60.0,0.0,0.0
9962,55.0,0.0,30.0,0.0,0.0
9963,58.0,0.0,15.0,0.0,0.0
9964,63.0,25.0,15.0,0.0,0.0
9965,58.0,0.0,15.0,0.0,0.0
9966,67.0,27.0,90.0,0.0,0.0
9967,63.0,0.0,90.0,0.0,0.0
9968,75.0,5.0,30.0,0.0,0.0
9969,79.0,0.0,30.0,0.0,0.0
9970,70.0,30.0,30.0,0.0,0.0
9971,77.0,2.0,60.0,0.0,0.0
9972,81.0,1.0,60.0,0.0,0.0
9973,72.0,0.0,60.0,0.0,0.0
9974,65.0,1.0,30.0,0.0,0.0
9975,60.0,0.0,30.0,0.0,0.0
9976,69.0,0.0,30.0,0.0,0.0
9977,63.0,56.0,30.0,7.0,0.0
9978,39.0,3.0,120.0,3.0,0.0
9979,67.0,0.0,90.0,0.0,0.0
9980,39.0,0.0,120.0,5.0,0.0
9981,58.0,54.0,120.0,7.0,0.0
9982,82.0,3.0,30.0,0.0,0.0
9983,75.0,27.0,30.0,0.0,0.0
9984,79.0,0.0,30.0,0.0,0.0
9985,70.0,3.0,30.0,0.0,0.0
9986,79.0,0.0,60.0,0.0,0.0
9987,75.0,1.0,60.0,0.0,0.0
9988,67.0,0.0,30.0,0.0,0.0
9989,63.0,27.0,15.0,0.0,0.0
9990,58.0,0.0,30.0,0.0,0.0
9991,43.0,2.0,120.0,5.0,0.0
9992,43.0,2.0,120.0,3.0,0.0
9993,70.0,25.0,90.0,0.0,0.0
9994,67.0,0.0,90.0,0.0,0.0
9995,63.0,0.0,90.0,0.0,0.0
9996,82.0,5.0,30.0,0.0,0.0
9997,79.0,30.0,30.0,0.0,0.0
9998,75.0,0.0,30.0,0.0,0.0
9999,84.0,0.0,60.0,0.0,0.0
10000,75.0,0.0,60.0,0.0,0.0
10001,79.0,0.0,60.0,0.0,0.0
10002,63.0,0.0,30.0,6.0,0.0
10003,51.0,0.0,30.0,6.0,0.0
10004,72.0,1.0,30.0,0.0,0.0
10005,67.0,1.0,30.0,0.0,0.0
10006,63.0,59.0,30.0,0.0,0.0
10007,46.0,1.0,120.0,6.0,0.0
10008,65.0,0.0,90.0,0.0,0.0
10009,70.0,27.0,90.0,0.0,0.0
10010,74.0,0.0,90.0,0.0,0.0
10011,58.0,0.0,120.0,6.0,0.0
10012,46.0,0.0,120.0,3.0,0.0
10013,46.0,2.0,120.0,5.0,0.0
10014,82.0,0.0,30.0,0.0,0.0
10015,86.0,3.0,30.0,0.0,0.0
10016,77.0,27.0,30.0,0.0,0.0
10017,84.0,0.0,60.0,0.0,0.0
10018,81.0,1.0,60.0,0.0,0.0
10019,75.0,0.0,60.0,0.0,0.0
10020,72.0,0.0,30.0,0.0,0.0
10021,63.0,2.0,30.0,0.0,0.0
10022,69.0,57.0,30.0,0.0,0.0
10023,70.0,0.0,90.0,0.0,0.0
10024,62.0,2.0,90.0,0.0,0.0
10025,65.0,28.0,90.0,0.0,0.0
10026,34.0,0.0,120.0,3.0,0.0
10027,34.0,0.0,120.0,5.0,0.0
10028,82.0,5.0,30.0,0.0,0.0
10029,77.0,0.0,30.0,0.0,0.0
10030,74.0,20.0,30.0,0.0,0.0
10031,86.0,1.0,60.0,0.0,0.0
10032,77.0,3.0,60.0,0.0,0.0
10033,82.0,0.0,60.0,0.0,0.0
10034,74.0,2.0,30.0,0.0,0.0
10035,70.0,0.0,30.0,0.0,0.0
10036,65.0,2.0,30.0,0.0,0.0
10037,46.0,0.0,30.0,6.0,0.0
10038,58.0,54.0,30.0,6.0,0.0
10039,72.0,3.0,90.0,0.0,0.0
10040,63.0,0.0,90.0,0.0,0.0
10041,48.0,0.0,120.0,3.0,0.0
10042,51.0,2.0,120.0,6.0,0.0
10043,39.0,1.0,120.0,6.0,0.0
10044,69.0,27.0,90.0,0.0,0.0
10045,36.0,60.0,120.0,5.0,0.0
10046,81.0,3.0,30.0,0.0,0.0
10047,84.0,3.0,30.0,0.0,0.0
10048,75.0,24.0,30.0,0.0,0.0
10049,74.0,0.0,60.0,0.0,0.0
10050,82.0,0.0,60.0,0.0,0.0
10051,79.0,0.0,60.0,0.0,0.0
10052,62.0,0.0,30.0,0.0,0.0
10053,70.0,0.0,30.0,0.0,0.0
10054,67.0,0.0,30.0,0.0,0.0
10055,65.0,2.0,90.0,0.0,0.0
10056,69.0,0.0,90.0,0.0,0.0
10057,60.0,30.0,90.0,0.0,0.0
10058,24.0,0.0,120.0,5.0,0.0
10059,36.0,59.0,120.0,3.0,0.0
10060,81.0,25.0,30.0,0.0,0.0
10061,75.0,0.0,30.0,0.0,0.0
10062,72.0,0.0,30.0,0.0,0.0
10063,70.0,0.0,60.0,0.0,0.0
10064,79.0,1.0,60.0,0.0,0.0
10065,75.0,0.0,60.0,0.0,0.0
10066,58.0,2.0,30.0,0.0,0.0
10067,63.0,1.0,30.0,0.0,0.0
10068,67.0,0.0,30.0,0.0,0.0
10069,86.0,0.0,60.0,0.0,0.0
10070,78.0,0.0,60.0,0.0,0.0
10071,38.0,0.0,60.0,3.0,0.0
10072,74.0,0.0,60.0,0.0,0.0
10073,50.0,0.0,60.0,6.0,0.0
10074,38.0,60.0,60.0,6.0,0.0
10075,57.0,0.0,60.0,0.0,0.0
10076,62.0,0.0,60.0,0.0,0.0
10077,66.0,0.0,60.0,0.0,0.0
10078,26.0,0.0,60.0,5.0,0.0
10079,26.0,0.0,30.0,5.0,0.0
10080,38.0,40.0,15.0,3.0,0.0
10081,26.0,0.0,60.0,5.0,0.0
10082,50.0,0.0,15.0,6.0,0.0
10083,38.0,0.0,15.0,6.0,0.0
10084,62.0,0.0,40.0,7.0,0.0
10085,50.0,0.0,40.0,7.0,0.0
10086,66.0,0.0,40.0,7.0,0.0
10087,69.0,0.0,40.0,7.0,0.0
10088,66.0,0.0,40.0,7.0,0.0
10089,54.0,20.0,15.0,7.0,0.0
10090,69.0,0.0,40.0,7.0,0.0
10091,57.0,40.0,15.0,7.0,0.0
10092,62.0,57.0,15.0,7.0,0.0
10093,74.0,0.0,15.0,7.0,0.0
10094,78.0,0.0,60.0,7.0,0.0
10095,66.0,1.0,60.0,7.0,0.0
10096,74.0,0.0,60.0,2.0,0.0
10097,50.0,0.0,60.0,3.0,0.0
10098,62.0,60.0,60.0,2.0,0.0
10099,38.0,0.0,60.0,5.0,0.0
10100,50.0,0.0,30.0,3.0,0.0
10101,62.0,20.0,20.0,0.0,0.0
10102,54.0,0.0,20.0,0.0,0.0
10103,42.0,0.0,40.0,0.0,0.0
10104,45.0,0.0,40.0,0.0,0.0
10105,38.0,20.0,15.0,5.0,0.0
10106,50.0,0.0,60.0,3.0,0.0
10107,74.0,0.0,15.0,2.0,0.0
10108,62.0,0.0,15.0,2.0,0.0
10109,64.0,0.0,20.0,0.0,0.0
10110,57.0,20.0,20.0,0.0,0.0
10111,62.0,0.0,20.0,0.0,0.0
10112,66.0,0.0,20.0,0.0,0.0
10113,50.0,20.0,40.0,0.0,0.0
10114,54.0,0.0,40.0,0.0,0.0
10115,64.0,0.0,20.0,0.0,0.0
10116,69.0,0.0,20.0,0.0,0.0
10117,74.0,20.0,20.0,0.0,0.0
10118,66.0,0.0,20.0,0.0,0.0
10119,54.0,0.0,40.0,0.0,0.0
10120,57.0,40.0,40.0,0.0,0.0
10121,69.0,0.0,20.0,0.0,0.0
10122,76.0,0.0,20.0,0.0,0.0
10123,38.0,0.0,120.0,5.0,0.0
10124,86.0,40.0,120.0,1.0,0.0
10125,74.0,0.0,120.0,1.0,0.0
10126,74.0,0.0,120.0,4.0,0.0
10127,54.0,0.0,40.0,7.0,0.0
10128,78.0,0.0,60.0,0.0,0.0
10129,74.0,0.0,60.0,0.0,0.0
10130,66.0,0.0,60.0,0.0,0.0
10131,62.0,20.0,60.0,0.0,0.0
10132,62.0,0.0,120.0,4.0,0.0
10133,50.0,0.0,120.0,3.0,0.0
10134,57.0,20.0,15.0,7.0,0.0
10135,66.0,0.0,40.0,7.0,0.0
10136,62.0,40.0,15.0,7.0,0.0
10137,62.0,0.0,15.0,7.0,0.0
10138,66.0,17.0,40.0,7.0,0.0
10139,69.0,0.0,40.0,7.0,0.0
10140,69.0,0.0,40.0,7.0,0.0
10141,74.0,40.0,15.0,7.0,0.0
10142,78.0,0.0,40.0,7.0,0.0
10143,86.0,0.0,30.0,1.0,0.0
10144,74.0,0.0,30.0,1.0,0.0
10145,38.0,0.0,30.0,5.0,0.0
10146,50.0,20.0,30.0,3.0,0.0
10147,62.0,0.0,30.0,4.0,0.0
10148,74.0,0.0,30.0,4.0,0.0
10149,70.0,3.0,60.0,7.0,0.0
10150,79.0,0.0,60.0,7.0,0.0
10151,75.0,0.0,120.0,1.0,0.0
10152,46.0,17.0,40.0,0.0,0.0
10153,55.0,20.0,20.0,0.0,0.0
10154,87.0,0.0,120.0,1.0,0.0
10155,39.0,0.0,120.0,5.0,0.0
10156,51.0,20.0,120.0,3.0,0.0
10157,43.0,0.0,40.0,0.0,0.0
10158,63.0,0.0,20.0,0.0,0.0
10159,75.0,0.0,120.0,4.0,0.0
10160,63.0,0.0,120.0,4.0,0.0
10161,58.0,0.0,20.0,0.0,0.0
10162,65.0,0.0,20.0,0.0,0.0
10163,67.0,0.0,20.0,0.0,0.0
10164,63.0,20.0,20.0,0.0,0.0
10165,55.0,0.0,40.0,0.0,0.0
10166,51.0,0.0,40.0,0.0,0.0
10167,65.0,0.0,20.0,0.0,0.0
10168,70.0,20.0,20.0,0.0,0.0
10169,55.0,0.0,40.0,0.0,0.0
10170,67.0,17.0,20.0,0.0,0.0
10171,75.0,0.0,20.0,0.0,0.0
10172,58.0,0.0,40.0,0.0,0.0
10173,77.0,0.0,20.0,0.0,0.0
10174,70.0,3.0,15.0,0.0,0.0
10175,79.0,0.0,20.0,0.0,0.0
10176,75.0,20.0,20.0,0.0,0.0
10177,67.0,0.0,40.0,0.0,0.0
10178,63.0,0.0,40.0,0.0,0.0
10179,82.0,0.0,20.0,0.0,0.0
10180,77.0,20.0,20.0,0.0,0.0
10181,67.0,0.0,40.0,0.0,0.0
10182,87.0,20.0,20.0,0.0,0.0
10183,70.0,40.0,40.0,0.0,0.0
10184,79.0,0.0,20.0,0.0,0.0
10185,89.0,0.0,20.0,0.0,0.0
10186,82.0,0.0,20.0,0.0,0.0
10187,79.0,60.0,40.0,0.0,0.0
10188,87.0,0.0,40.0,0.0,0.0
10189,91.0,0.0,40.0,0.0,0.0
10190,51.0,0.0,30.0,3.0,0.0
10191,75.0,0.0,15.0,0.0,0.0
10192,72.0,0.0,90.0,0.0,0.0
10193,39.0,0.0,15.0,5.0,0.0
10194,51.0,0.0,120.0,3.0,0.0
10195,92.0,30.0,30.0,0.0,0.0
10196,80.0,0.0,30.0,0.0,0.0
10197,84.0,0.0,15.0,0.0,0.0
10198,87.0,0.0,15.0,0.0,0.0
10199,56.0,3.0,30.0,6.0,0.0
10200,75.0,26.0,15.0,0.0,0.0
10201,68.0,0.0,30.0,0.0,0.0
10202,63.0,3.0,90.0,0.0,0.0
10203,72.0,0.0,15.0,0.0,0.0
10204,68.0,28.0,90.0,0.0,0.0
10205,51.0,58.0,120.0,6.0,0.0
10206,75.0,3.0,30.0,0.0,0.0
10207,84.0,0.0,30.0,0.0,0.0
10208,80.0,28.0,30.0,0.0,0.0
10209,73.0,1.0,60.0,0.0,0.0
10210,82.0,0.0,60.0,0.0,0.0
10211,77.0,0.0,60.0,0.0,0.0
10212,70.0,1.0,30.0,0.0,0.0
10213,65.0,0.0,30.0,0.0,0.0
10214,61.0,0.0,30.0,0.0,0.0
10215,63.0,3.0,90.0,0.0,0.0
10216,60.0,29.0,90.0,0.0,0.0
10217,39.0,0.0,15.0,5.0,0.0
10218,51.0,1.0,15.0,3.0,0.0
10219,80.0,1.0,30.0,0.0,0.0
10220,75.0,0.0,15.0,0.0,0.0
10221,68.0,2.0,30.0,0.0,0.0
10222,72.0,25.0,15.0,0.0,0.0
10223,63.0,0.0,30.0,0.0,0.0
10224,60.0,0.0,30.0,0.0,0.0
10225,56.0,2.0,30.0,0.0,0.0
10226,68.0,55.0,30.0,7.0,0.0
10227,60.0,26.0,90.0,0.0,0.0
10228,51.0,0.0,90.0,0.0,0.0
10229,63.0,58.0,120.0,7.0,0.0
10230,68.0,2.0,30.0,0.0,0.0
10231,63.0,31.0,30.0,0.0,0.0
10232,72.0,0.0,30.0,0.0,0.0
10233,74.0,1.0,60.0,0.0,0.0
10234,65.0,1.0,60.0,0.0,0.0
10235,68.0,0.0,60.0,0.0,0.0
10236,56.0,0.0,15.0,0.0,0.0
10237,53.0,1.0,30.0,0.0,0.0
10238,62.0,2.0,30.0,0.0,0.0
10239,51.0,0.0,30.0,3.0,0.0
10240,39.0,0.0,30.0,5.0,0.0
10241,51.0,1.0,120.0,3.0,0.0
10242,58.0,0.0,90.0,0.0,0.0
10243,55.0,0.0,90.0,0.0,0.0
10244,39.0,0.0,120.0,5.0,0.0
10245,75.0,30.0,30.0,0.0,0.0
10246,67.0,0.0,30.0,0.0,0.0
10247,70.0,0.0,30.0,0.0,0.0
10248,70.0,0.0,60.0,0.0,0.0
10249,63.0,30.0,30.0,0.0,0.0
10250,67.0,0.0,60.0,0.0,0.0
10251,51.0,0.0,30.0,0.0,0.0
10252,58.0,0.0,30.0,0.0,0.0
10253,51.0,58.0,30.0,6.0,0.0
10254,46.0,0.0,120.0,6.0,0.0
10255,63.0,0.0,15.0,0.0,0.0
10256,55.0,0.0,15.0,0.0,0.0
10257,58.0,0.0,90.0,0.0,0.0
10258,75.0,1.0,30.0,0.0,0.0
10259,70.0,0.0,30.0,0.0,0.0
10260,67.0,30.0,30.0,0.0,0.0
10261,68.0,0.0,60.0,0.0,0.0
10262,74.0,0.0,60.0,0.0,0.0
10263,77.0,0.0,60.0,0.0,0.0
10264,65.0,1.0,30.0,0.0,0.0
10265,62.0,0.0,30.0,0.0,0.0
10266,39.0,0.0,30.0,5.0,0.0
10267,56.0,59.0,30.0,0.0,0.0
10268,58.0,2.0,90.0,0.0,0.0
10269,63.0,29.0,90.0,0.0,0.0
10270,39.0,0.0,120.0,5.0,0.0
10271,51.0,1.0,15.0,3.0,0.0
10272,79.0,0.0,30.0,0.0,0.0
10273,75.0,0.0,15.0,0.0,0.0
10274,70.0,27.0,15.0,0.0,0.0
10275,67.0,1.0,30.0,0.0,0.0
10276,55.0,1.0,30.0,0.0,0.0
10277,63.0,56.0,30.0,7.0,0.0
10278,58.0,1.0,60.0,7.0,0.0
10279,67.0,0.0,15.0,0.0,0.0
10280,58.0,3.0,15.0,0.0,0.0
10281,63.0,0.0,15.0,0.0,0.0
10282,79.0,0.0,30.0,0.0,0.0
10283,75.0,3.0,30.0,0.0,0.0
10284,70.0,26.0,30.0,0.0,0.0
10285,81.0,3.0,60.0,0.0,0.0
10286,72.0,0.0,60.0,0.0,0.0
10287,75.0,57.0,60.0,0.0,0.0
10288,39.0,0.0,30.0,5.0,0.0
10289,51.0,3.0,30.0,7.0,0.0
10290,51.0,0.0,30.0,3.0,0.0
10291,69.0,0.0,30.0,0.0,0.0
10292,63.0,0.0,30.0,0.0,0.0
10293,60.0,0.0,30.0,0.0,0.0
10294,34.0,0.0,60.0,5.0,0.0
10295,46.0,0.0,60.0,3.0,0.0
10296,62.0,0.0,60.0,0.0,0.0
10297,65.0,55.0,60.0,0.0,0.0
10298,70.0,0.0,60.0,0.0,0.0
10299,74.0,0.0,60.0,0.0,0.0
10300,77.0,0.0,60.0,0.0,0.0
10301,82.0,0.0,60.0,0.0,0.0
10302,46.0,0.0,60.0,7.0,0.0
10303,46.0,2.0,30.0,3.0,0.0
10304,46.0,1.0,60.0,3.0,0.0
10305,46.0,4.0,15.0,7.0,0.0
10306,34.0,39.0,15.0,5.0,0.0
10307,74.0,16.0,40.0,7.0,0.0
10308,70.0,0.0,15.0,7.0,0.0
10309,62.0,57.0,40.0,7.0,0.0
10310,65.0,0.0,15.0,7.0,0.0
10311,58.0,2.0,60.0,3.0,0.0
10312,58.0,1.0,60.0,7.0,0.0
10313,46.0,0.0,60.0,5.0,0.0
10314,70.0,1.0,60.0,7.0,0.0
10315,62.0,59.0,60.0,7.0,0.0
10316,58.0,1.0,30.0,3.0,0.0
10317,46.0,2.0,15.0,5.0,0.0
10318,70.0,12.0,15.0,7.0,0.0
10319,65.0,0.0,40.0,0.0,0.0
10320,70.0,5.0,40.0,0.0,0.0
10321,86.0,15.0,15.0,0.0,0.0
10322,58.0,14.0,60.0,3.0,0.0
10323,84.0,10.0,15.0,0.0,0.0
10324,82.0,11.0,15.0,0.0,0.0
10325,58.0,10.0,40.0,0.0,0.0
10326,62.0,0.0,40.0,0.0,0.0
10327,77.0,1.0,15.0,0.0,0.0
10328,74.0,5.0,15.0,0.0,0.0
10329,72.0,15.0,15.0,0.0,0.0
10330,53.0,0.0,40.0,0.0,0.0
10331,58.0,60.0,40.0,0.0,0.0
10332,70.0,15.0,15.0,0.0,0.0
10333,65.0,0.0,15.0,0.0,0.0
10334,46.0,0.0,120.0,3.0,0.0
10335,50.0,60.0,60.0,0.0,0.0
10336,46.0,0.0,60.0,0.0,0.0
10337,82.0,0.0,120.0,1.0,0.0
10338,34.0,1.0,120.0,5.0,0.0
10339,70.0,0.0,120.0,4.0,0.0
10340,62.0,0.0,60.0,0.0,0.0
10341,58.0,0.0,120.0,4.0,0.0
10342,70.0,118.0,120.0,1.0,0.0
10343,34.0,1.0,30.0,5.0,0.0
10344,70.0,1.0,30.0,1.0,0.0
10345,70.0,3.0,30.0,4.0,0.0
10346,58.0,3.0,30.0,4.0,0.0
10347,46.0,0.0,30.0,3.0,0.0
10348,82.0,8.0,30.0,1.0,0.0
10349,62.0,4.0,120.0,4.0,0.0
10350,50.0,0.0,120.0,3.0,0.0
10351,38.0,2.0,120.0,5.0,0.0
10352,74.0,1.0,120.0,1.0,0.0
10353,86.0,0.0,120.0,1.0,0.0
10354,96.0,15.0,15.0,0.0,0.0
10355,74.0,14.0,120.0,4.0,0.0
10356,81.0,14.0,40.0,0.0,0.0
10357,86.0,0.0,40.0,0.0,0.0
10358,95.0,15.0,15.0,0.0,0.0
10359,93.0,1.0,15.0,0.0,0.0
10360,78.0,10.0,40.0,0.0,0.0
10361,88.0,15.0,15.0,0.0,0.0
10362,84.0,5.0,15.0,0.0,0.0
10363,83.0,15.0,15.0,0.0,0.0
10364,74.0,0.0,15.0,0.0,0.0
10365,69.0,1.0,40.0,0.0,0.0
10366,81.0,8.0,15.0,0.0,0.0
10367,78.0,0.0,15.0,0.0,0.0
10368,62.0,0.0,40.0,0.0,0.0
10369,66.0,5.0,40.0,0.0,0.0
10370,72.0,15.0,15.0,0.0,0.0
10371,71.0,10.0,15.0,0.0,0.0
10372,69.0,15.0,15.0,0.0,0.0
10373,62.0,37.0,40.0,0.0,0.0
10374,57.0,0.0,40.0,0.0,0.0
10375,66.0,20.0,15.0,0.0,0.0
10376,60.0,0.0,60.0,0.0,0.0
10377,54.0,1.0,40.0,0.0,0.0
10378,50.0,52.0,40.0,0.0,0.0
10379,38.0,3.0,30.0,5.0,0.0
10380,50.0,5.0,15.0,3.0,0.0
10381,43.0,0.0,90.0,0.0,0.0
10382,38.0,1.0,120.0,5.0,0.0
10383,50.0,2.0,30.0,0.0,0.0
10384,55.0,30.0,15.0,0.0,0.0
10385,59.0,0.0,15.0,0.0,0.0
10386,62.0,59.0,60.0,0.0,0.0
10387,55.0,5.0,30.0,6.0,0.0
10388,50.0,0.0,30.0,0.0,0.0
10389,47.0,25.0,15.0,0.0,0.0
10390,43.0,0.0,30.0,0.0,0.0
10391,55.0,0.0,15.0,0.0,0.0
10392,50.0,26.0,90.0,0.0,0.0
10393,47.0,0.0,90.0,0.0,0.0
10394,50.0,1.0,120.0,6.0,0.0
10395,62.0,0.0,30.0,0.0,0.0
10396,67.0,27.0,30.0,0.0,0.0
10397,59.0,0.0,30.0,0.0,0.0
10398,69.0,0.0,60.0,0.0,0.0
10399,60.0,0.0,60.0,0.0,0.0
10400,64.0,0.0,60.0,0.0,0.0
10401,38.0,3.0,30.0,5.0,0.0
10402,48.0,1.0,30.0,0.0,0.0
10403,52.0,1.0,30.0,0.0,0.0
10404,57.0,2.0,30.0,0.0,0.0
10405,38.0,2.0,120.0,5.0,0.0
10406,50.0,0.0,90.0,0.0,0.0
10407,50.0,56.0,15.0,3.0,0.0
10408,59.0,1.0,90.0,0.0,0.0
10409,55.0,27.0,90.0,0.0,0.0
10410,67.0,0.0,30.0,0.0,0.0
10411,62.0,25.0,30.0,0.0,0.0
10412,71.0,4.0,15.0,0.0,0.0
10413,67.0,0.0,60.0,0.0,0.0
10414,74.0,0.0,60.0,0.0,0.0
10415,59.0,0.0,30.0,0.0,0.0
10416,55.0,4.0,30.0,0.0,0.0
10417,55.0,51.0,30.0,6.0,0.0
10418,67.0,0.0,30.0,7.0,0.0
10419,50.0,2.0,60.0,6.0,0.0
10420,62.0,33.0,60.0,7.0,0.0
10421,62.0,0.0,15.0,0.0,0.0
10422,59.0,3.0,90.0,0.0,0.0
10423,71.0,1.0,90.0,0.0,0.0
10424,74.0,0.0,90.0,0.0,0.0
10425,79.0,0.0,90.0,0.0,0.0
10426,73.0,1.0,60.0,0.0,0.0
10427,76.0,0.0,60.0,0.0,0.0
10428,67.0,23.0,30.0,0.0,0.0
10429,70.0,4.0,60.0,0.0,0.0
10430,38.0,0.0,30.0,5.0,0.0
10431,55.0,2.0,30.0,0.0,0.0
10432,58.0,0.0,30.0,0.0,0.0
10433,50.0,0.0,30.0,3.0,0.0
10434,43.0,0.0,30.0,6.0,0.0
10435,64.0,0.0,30.0,0.0,0.0
10436,61.0,0.0,30.0,0.0,0.0
10437,55.0,55.0,30.0,7.0,0.0
10438,66.0,0.0,60.0,0.0,0.0
10439,38.0,0.0,60.0,6.0,0.0
10440,69.0,0.0,480.0,2.0,0.0
10441,54.0,0.0,480.0,4.0,0.0
10442,38.0,0.0,60.0,5.0,0.0
10443,50.0,0.0,60.0,3.0,0.0
10444,62.0,0.0,480.0,4.0,0.0
10445,50.0,20.0,60.0,7.0,0.0
10446,62.0,0.0,60.0,0.0,0.0
10447,69.0,0.0,60.0,0.0,0.0
10448,57.0,0.0,60.0,0.0,0.0
10449,78.0,0.0,60.0,0.0,0.0
10450,74.0,0.0,60.0,0.0,0.0
10451,66.0,15.0,480.0,2.0,0.0
10452,57.0,20.0,20.0,0.0,0.0
10453,93.0,0.0,20.0,0.0,0.0
10454,69.0,20.0,20.0,0.0,0.0
10455,81.0,20.0,20.0,0.0,0.0
10456,54.0,20.0,20.0,0.0,0.0
10457,66.0,20.0,20.0,0.0,0.0
10458,90.0,0.0,20.0,0.0,0.0
10459,78.0,20.0,20.0,0.0,0.0
10460,52.0,20.0,20.0,0.0,0.0
10461,88.0,20.0,20.0,0.0,0.0
10462,64.0,0.0,20.0,0.0,0.0
10463,76.0,20.0,20.0,0.0,0.0
10464,50.0,20.0,20.0,0.0,0.0
10465,62.0,20.0,20.0,0.0,0.0
10466,86.0,0.0,20.0,0.0,0.0
10467,74.0,20.0,20.0,0.0,0.0
10468,45.0,20.0,20.0,0.0,0.0
10469,81.0,20.0,20.0,0.0,0.0
10470,57.0,0.0,20.0,0.0,0.0
10471,69.0,20.0,20.0,0.0,0.0
10472,42.0,20.0,20.0,0.0,0.0
10473,78.0,0.0,20.0,0.0,0.0
10474,54.0,20.0,20.0,0.0,0.0
10475,66.0,20.0,20.0,0.0,0.0
10476,40.0,20.0,20.0,0.0,0.0
10477,76.0,0.0,20.0,0.0,0.0
10478,52.0,20.0,20.0,0.0,0.0
10479,64.0,0.0,20.0,0.0,0.0
10480,78.0,0.0,15.0,1.0,0.0
10481,59.0,0.0,60.0,3.0,0.0
10482,38.0,0.0,480.0,0.0,0.0
10483,74.0,5.0,15.0,1.0,0.0
10484,83.0,20.0,60.0,7.0,0.0
10485,38.0,0.0,480.0,6.0,0.0
10486,47.0,0.0,480.0,6.0,0.0
10487,71.0,0.0,20.0,7.0,0.0
10488,54.0,0.0,480.0,0.0,0.0
10489,50.0,0.0,480.0,0.0,0.0
10490,35.0,0.0,480.0,0.0,0.0
10491,26.0,0.0,480.0,0.0,0.0
10492,50.0,0.0,480.0,4.0,0.0
10493,66.0,0.0,480.0,4.0,0.0
10494,71.0,0.0,480.0,2.0,0.0
10495,59.0,0.0,480.0,0.0,0.0
10496,30.0,19.0,480.0,0.0,0.0
10497,71.0,20.0,15.0,7.0,0.0
10498,71.0,0.0,15.0,7.0,0.0
10499,71.0,20.0,15.0,7.0,0.0
10500,66.0,0.0,20.0,7.0,0.0
10501,54.0,16.0,60.0,3.0,0.0
10502,78.0,0.0,60.0,7.0,0.0
10503,66.0,20.0,15.0,7.0,0.0
10504,66.0,0.0,15.0,7.0,0.0
10505,66.0,20.0,15.0,7.0,0.0
10506,74.0,4.0,60.0,7.0,0.0
10507,62.0,0.0,20.0,7.0,0.0
10508,50.0,16.0,60.0,3.0,0.0
10509,62.0,20.0,15.0,7.0,0.0
10510,62.0,0.0,15.0,7.0,0.0
10511,62.0,16.0,15.0,7.0,0.0
10512,73.0,0.0,60.0,7.0,0.0
10513,49.0,4.0,60.0,3.0,0.0
10514,61.0,0.0,15.0,7.0,0.0
10515,61.0,16.0,15.0,7.0,0.0
10516,61.0,0.0,20.0,7.0,0.0
10517,59.0,1.0,60.0,3.0,0.0
10518,59.0,0.0,20.0,7.0,0.0
10519,47.0,19.0,60.0,5.0,0.0
10520,71.0,20.0,15.0,7.0,0.0
10521,71.0,3.0,15.0,7.0,0.0
10522,59.0,16.0,15.0,7.0,0.0
10523,54.0,3.0,60.0,3.0,0.0
10524,42.0,19.0,60.0,5.0,0.0
10525,66.0,20.0,15.0,7.0,0.0
10526,54.0,0.0,15.0,7.0,0.0
10527,66.0,1.0,15.0,7.0,0.0
10528,54.0,16.0,15.0,7.0,0.0
10529,38.0,0.0,60.0,5.0,0.0
10530,50.0,0.0,20.0,7.0,0.0
10531,50.0,0.0,60.0,3.0,0.0
10532,62.0,20.0,15.0,7.0,0.0
10533,50.0,0.0,20.0,7.0,0.0
10534,50.0,1.0,20.0,7.0,0.0
10535,62.0,0.0,20.0,7.0,0.0
10536,49.0,2.0,60.0,3.0,0.0
10537,37.0,0.0,60.0,5.0,0.0
10538,49.0,20.0,15.0,7.0,0.0
10539,61.0,0.0,15.0,7.0,0.0
10540,61.0,17.0,15.0,7.0,0.0
10541,49.0,1.0,20.0,7.0,0.0
10542,55.0,20.0,20.0,0.0,0.0
10543,35.0,0.0,480.0,5.0,0.0
10544,50.0,0.0,480.0,6.0,0.0
10545,47.0,20.0,60.0,7.0,0.0
10546,79.0,0.0,480.0,1.0,0.0
10547,47.0,1.0,480.0,6.0,0.0
10548,74.0,0.0,480.0,1.0,0.0
10549,67.0,0.0,480.0,4.0,0.0
10550,62.0,0.0,480.0,4.0,0.0
10551,62.0,0.0,15.0,2.0,0.0
10552,59.0,0.0,60.0,7.0,0.0
10553,47.0,19.0,480.0,3.0,0.0
10554,67.0,20.0,20.0,0.0,0.0
10555,91.0,0.0,20.0,0.0,0.0
10556,79.0,0.0,20.0,0.0,0.0
10557,50.0,20.0,20.0,0.0,0.0
10558,62.0,20.0,20.0,0.0,0.0
10559,86.0,0.0,20.0,0.0,0.0
10560,74.0,20.0,20.0,0.0,0.0
10561,47.0,20.0,20.0,0.0,0.0
10562,83.0,20.0,20.0,0.0,0.0
10563,59.0,0.0,20.0,0.0,0.0
10564,71.0,20.0,20.0,0.0,0.0
10565,45.0,20.0,20.0,0.0,0.0
10566,81.0,0.0,20.0,0.0,0.0
10567,57.0,20.0,20.0,0.0,0.0
10568,69.0,20.0,20.0,0.0,0.0
10569,43.0,20.0,20.0,0.0,0.0
10570,55.0,0.0,20.0,0.0,0.0
10571,79.0,20.0,20.0,0.0,0.0
10572,67.0,20.0,20.0,0.0,0.0
10573,38.0,20.0,20.0,0.0,0.0
10574,50.0,20.0,20.0,0.0,0.0
10575,74.0,0.0,20.0,0.0,0.0
10576,62.0,20.0,20.0,0.0,0.0
10577,35.0,20.0,20.0,0.0,0.0
10578,71.0,20.0,20.0,0.0,0.0
10579,47.0,0.0,20.0,0.0,0.0
10580,59.0,20.0,20.0,0.0,0.0
10581,33.0,20.0,20.0,0.0,0.0
10582,45.0,20.0,20.0,0.0,0.0
10583,69.0,0.0,20.0,0.0,0.0
10584,57.0,0.0,20.0,0.0,0.0
10585,31.0,0.0,480.0,0.0,0.0
10586,64.0,0.0,60.0,3.0,0.0
10587,35.0,0.0,480.0,0.0,0.0
10588,40.0,0.0,480.0,0.0,0.0
10589,43.0,0.0,480.0,0.0,0.0
10590,55.0,0.0,480.0,0.0,0.0
10591,59.0,0.0,480.0,0.0,0.0
10592,64.0,0.0,480.0,0.0,0.0
10593,67.0,0.0,480.0,0.0,0.0
10594,64.0,0.0,480.0,4.0,0.0
10595,88.0,0.0,60.0,7.0,0.0
10596,71.0,0.0,480.0,2.0,0.0
10597,67.0,0.0,15.0,2.0,0.0
10598,83.0,0.0,480.0,1.0,0.0
10599,79.0,0.0,480.0,1.0,0.0
10600,43.0,0.0,480.0,6.0,0.0
10601,59.0,0.0,480.0,4.0,0.0
10602,31.0,0.0,480.0,6.0,0.0
10603,76.0,0.0,15.0,7.0,0.0
10604,64.0,20.0,15.0,7.0,0.0
10605,64.0,0.0,15.0,7.0,0.0
10606,76.0,20.0,20.0,7.0,0.0
10607,59.0,16.0,60.0,3.0,0.0
10608,83.0,0.0,60.0,7.0,0.0
10609,71.0,0.0,15.0,7.0,0.0
10610,59.0,20.0,15.0,7.0,0.0
10611,59.0,20.0,15.0,7.0,0.0
10612,71.0,0.0,15.0,7.0,0.0
10613,79.0,4.0,60.0,7.0,0.0
10614,67.0,0.0,20.0,7.0,0.0
10615,55.0,16.0,60.0,3.0,0.0
10616,55.0,20.0,15.0,7.0,0.0
10617,55.0,16.0,15.0,7.0,0.0
10618,67.0,0.0,15.0,7.0,0.0
10619,78.0,4.0,60.0,7.0,0.0
10620,54.0,0.0,60.0,3.0,0.0
10621,66.0,20.0,20.0,7.0,0.0
10622,54.0,0.0,15.0,7.0,0.0
10623,66.0,16.0,20.0,7.0,0.0
10624,54.0,0.0,15.0,7.0,0.0
10625,66.0,20.0,20.0,7.0,0.0
10626,76.0,3.0,60.0,7.0,0.0
10627,52.0,1.0,60.0,3.0,0.0
10628,64.0,0.0,20.0,7.0,0.0
10629,40.0,19.0,60.0,5.0,0.0
10630,64.0,20.0,15.0,7.0,0.0
10631,64.0,0.0,20.0,7.0,0.0
10632,64.0,16.0,15.0,7.0,0.0
10633,71.0,1.0,60.0,7.0,0.0
10634,47.0,3.0,60.0,3.0,0.0
10635,59.0,0.0,20.0,7.0,0.0
10636,35.0,19.0,60.0,5.0,0.0
10637,59.0,20.0,15.0,7.0,0.0
10638,59.0,0.0,15.0,7.0,0.0
10639,59.0,16.0,15.0,7.0,0.0
10640,31.0,0.0,60.0,5.0,0.0
10641,55.0,0.0,20.0,7.0,0.0
10642,43.0,0.0,60.0,3.0,0.0
10643,67.0,19.0,60.0,7.0,0.0
10644,55.0,20.0,15.0,7.0,0.0
10645,55.0,20.0,15.0,7.0,0.0
10646,42.0,2.0,60.0,3.0,0.0
10647,66.0,1.0,60.0,7.0,0.0
10648,30.0,19.0,60.0,5.0,0.0
10649,54.0,0.0,15.0,7.0,0.0
10650,54.0,20.0,15.0,7.0,0.0
10651,54.0,0.0,15.0,7.0,0.0
10652,54.0,17.0,15.0,7.0,0.0
10653,84.0,0.0,60.0,1.0,0.0
10654,79.0,0.0,60.0,1.0,0.0
10655,67.0,0.0,240.0,4.0,0.0
10656,60.0,20.0,240.0,4.0,0.0
10657,60.0,20.0,20.0,0.0,0.0
10658,40.0,0.0,60.0,3.0,0.0
10659,52.0,0.0,60.0,7.0,0.0
10660,28.0,0.0,60.0,5.0,0.0
10661,55.0,20.0,60.0,7.0,0.0
10662,64.0,0.0,60.0,7.0,0.0
10663,67.0,0.0,240.0,2.0,0.0
10664,72.0,0.0,240.0,2.0,0.0
10665,40.0,0.0,240.0,6.0,0.0
10666,52.0,0.0,240.0,6.0,0.0
10667,96.0,0.0,20.0,0.0,0.0
10668,72.0,20.0,20.0,0.0,0.0
10669,84.0,0.0,20.0,0.0,0.0
10670,55.0,20.0,20.0,0.0,0.0
10671,91.0,0.0,20.0,0.0,0.0
10672,67.0,20.0,20.0,0.0,0.0
10673,79.0,20.0,20.0,0.0,0.0
10674,52.0,20.0,20.0,0.0,0.0
10675,88.0,20.0,20.0,0.0,0.0
10676,64.0,0.0,20.0,0.0,0.0
10677,76.0,20.0,20.0,0.0,0.0
10678,50.0,20.0,20.0,0.0,0.0
10679,86.0,20.0,20.0,0.0,0.0
10680,62.0,0.0,20.0,0.0,0.0
10681,74.0,0.0,20.0,0.0,0.0
10682,60.0,20.0,20.0,0.0,0.0
10683,60.0,0.0,60.0,7.0,0.0
10684,48.0,0.0,60.0,7.0,0.0
10685,67.0,0.0,240.0,2.0,0.0
10686,39.0,0.0,60.0,3.0,0.0
10687,72.0,0.0,240.0,2.0,0.0
10688,51.0,0.0,240.0,6.0,0.0
10689,39.0,0.0,240.0,6.0,0.0
10690,55.0,0.0,60.0,7.0,0.0
10691,84.0,0.0,60.0,1.0,0.0
10692,79.0,0.0,60.0,1.0,0.0
10693,67.0,0.0,240.0,4.0,0.0
10694,27.0,0.0,60.0,5.0,0.0
10695,60.0,0.0,240.0,4.0,0.0
10696,96.0,0.0,20.0,0.0,0.0
10697,72.0,20.0,20.0,0.0,0.0
10698,84.0,20.0,20.0,0.0,0.0
10699,55.0,20.0,20.0,0.0,0.0
10700,67.0,0.0,20.0,0.0,0.0
10701,91.0,20.0,20.0,0.0,0.0
10702,79.0,20.0,20.0,0.0,0.0
10703,51.0,20.0,20.0,0.0,0.0
10704,87.0,20.0,20.0,0.0,0.0
10705,63.0,0.0,20.0,0.0,0.0
10706,75.0,20.0,20.0,0.0,0.0
10707,50.0,20.0,20.0,0.0,0.0
10708,62.0,0.0,20.0,0.0,0.0
10709,86.0,20.0,20.0,0.0,0.0
10710,74.0,20.0,20.0,0.0,0.0
10711,72.0,0.0,240.0,2.0,0.0
10712,66.0,0.0,240.0,2.0,0.0
10713,60.0,20.0,20.0,0.0,0.0
10714,69.0,0.0,240.0,4.0,0.0
10715,54.0,0.0,60.0,7.0,0.0
10716,26.0,0.0,60.0,5.0,0.0
10717,50.0,0.0,240.0,6.0,0.0
10718,38.0,20.0,240.0,6.0,0.0
10719,45.0,0.0,60.0,7.0,0.0
10720,78.0,0.0,60.0,1.0,0.0
10721,60.0,0.0,240.0,4.0,0.0
10722,84.0,0.0,60.0,1.0,0.0
10723,38.0,0.0,60.0,3.0,0.0
10724,60.0,0.0,60.0,7.0,0.0
10725,72.0,0.0,20.0,0.0,0.0
10726,96.0,20.0,20.0,0.0,0.0
10727,84.0,20.0,20.0,0.0,0.0
10728,57.0,20.0,20.0,0.0,0.0
10729,93.0,20.0,20.0,0.0,0.0
10730,69.0,0.0,20.0,0.0,0.0
10731,81.0,20.0,20.0,0.0,0.0
10732,54.0,20.0,20.0,0.0,0.0
10733,66.0,20.0,20.0,0.0,0.0
10734,90.0,0.0,20.0,0.0,0.0
10735,78.0,20.0,20.0,0.0,0.0
10736,48.0,20.0,20.0,0.0,0.0
10737,60.0,0.0,20.0,0.0,0.0
10738,84.0,20.0,20.0,0.0,0.0
10739,72.0,0.0,20.0,0.0,0.0
10740,25.0,0.0,60.0,5.0,0.0
10741,79.0,0.0,60.0,1.0,0.0
10742,37.0,0.0,240.0,6.0,0.0
10743,49.0,60.0,240.0,6.0,0.0
10744,52.0,0.0,60.0,7.0,0.0
10745,55.0,0.0,240.0,4.0,0.0
10746,67.0,0.0,240.0,2.0,0.0
10747,58.0,0.0,60.0,7.0,0.0
10748,37.0,0.0,60.0,3.0,0.0
10749,55.0,0.0,60.0,7.0,0.0
10750,64.0,0.0,240.0,4.0,0.0
10751,82.0,0.0,60.0,1.0,0.0
10752,70.0,0.0,240.0,2.0,0.0
10753,46.0,20.0,20.0,0.0,0.0
10754,58.0,0.0,20.0,0.0,0.0
10755,82.0,20.0,20.0,0.0,0.0
10756,70.0,20.0,20.0,0.0,0.0
10757,43.0,20.0,20.0,0.0,0.0
10758,79.0,20.0,20.0,0.0,0.0
10759,55.0,0.0,20.0,0.0,0.0
10760,67.0,20.0,20.0,0.0,0.0
10761,40.0,20.0,20.0,0.0,0.0
10762,52.0,20.0,20.0,0.0,0.0
10763,76.0,0.0,20.0,0.0,0.0
10764,64.0,20.0,20.0,0.0,0.0
10765,34.0,20.0,20.0,0.0,0.0
10766,46.0,0.0,20.0,0.0,0.0
10767,70.0,20.0,20.0,0.0,0.0
10768,58.0,0.0,20.0,0.0,0.0
10769,57.0,0.0,120.0,2.0,0.0
10770,81.0,0.0,60.0,1.0,0.0
10771,78.0,0.0,60.0,1.0,0.0
10772,45.0,0.0,120.0,7.0,0.0
10773,57.0,0.0,120.0,7.0,0.0
10774,57.0,0.0,120.0,8.0,0.0
10775,54.0,120.0,120.0,8.0,0.0
10776,54.0,0.0,120.0,4.0,0.0
10777,57.0,0.0,120.0,4.0,0.0
10778,38.0,0.0,240.0,3.0,0.0
10779,69.0,0.0,120.0,2.0,0.0
10780,26.0,0.0,240.0,5.0,0.0
10781,66.0,0.0,60.0,0.0,0.0
10782,69.0,0.0,60.0,0.0,0.0
10783,62.0,0.0,60.0,0.0,0.0
10784,57.0,60.0,60.0,0.0,0.0
10785,38.0,0.0,60.0,0.0,0.0
10786,45.0,0.0,60.0,0.0,0.0
10787,42.0,0.0,60.0,0.0,0.0
10788,50.0,0.0,240.0,6.0,0.0
10789,38.0,0.0,240.0,6.0,0.0
10790,66.0,0.0,120.0,2.0,0.0
10791,59.0,0.0,120.0,2.0,0.0
10792,47.0,0.0,120.0,7.0,0.0
10793,54.0,0.0,15.0,7.0,0.0
10794,59.0,0.0,120.0,12.0,0.0
10795,59.0,0.0,120.0,4.0,0.0
10796,47.0,0.0,120.0,4.0,0.0
10797,59.0,0.0,120.0,7.0,0.0
10798,54.0,0.0,120.0,8.0,0.0
10799,42.0,0.0,120.0,8.0,0.0
10800,45.0,0.0,360.0,8.0,0.0
10801,49.0,15.0,120.0,7.0,0.0
10802,49.0,0.0,360.0,12.0,0.0
10803,33.0,60.0,1320.0,3.0,0.0
10804,61.0,0.0,360.0,12.0,0.0
10805,33.0,15.0,360.0,6.0,0.0
10806,52.0,0.0,360.0,8.0,0.0
10807,45.0,0.0,360.0,6.0,0.0
10808,61.0,0.0,360.0,2.0,0.0
10809,52.0,0.0,360.0,4.0,0.0
10810,61.0,0.0,360.0,4.0,0.0
10811,21.0,15.0,15.0,0.0,0.0
10812,52.0,0.0,360.0,7.0,0.0
10813,33.0,0.0,1320.0,5.0,0.0
10814,61.0,0.0,360.0,7.0,0.0
10815,64.0,0.0,360.0,2.0,0.0
10816,25.0,15.0,15.0,0.0,0.0
10817,28.0,15.0,15.0,0.0,0.0
10818,33.0,15.0,15.0,0.0,0.0
10819,37.0,15.0,15.0,0.0,0.0
10820,40.0,15.0,15.0,0.0,0.0
10821,45.0,15.0,15.0,0.0,0.0
10822,49.0,0.0,15.0,0.0,0.0
10823,25.0,15.0,15.0,0.0,0.0
10824,45.0,0.0,240.0,7.0,0.0
10825,28.0,15.0,15.0,0.0,0.0
10826,33.0,15.0,15.0,0.0,0.0
10827,37.0,15.0,15.0,0.0,0.0
10828,40.0,15.0,15.0,0.0,0.0
10829,45.0,15.0,15.0,0.0,0.0
10830,49.0,15.0,15.0,0.0,0.0
10831,52.0,15.0,15.0,0.0,0.0
10832,28.0,15.0,15.0,0.0,0.0
10833,33.0,15.0,15.0,0.0,0.0
10834,37.0,15.0,15.0,0.0,0.0
10835,40.0,15.0,15.0,0.0,0.0
10836,45.0,15.0,15.0,0.0,0.0
10837,49.0,15.0,15.0,0.0,0.0
10838,52.0,15.0,15.0,0.0,0.0
10839,57.0,0.0,15.0,0.0,0.0
10840,53.0,0.0,120.0,7.0,0.0
10841,33.0,15.0,15.0,0.0,0.0
10842,47.0,0.0,120.0,7.0,0.0
10843,57.0,0.0,240.0,7.0,0.0
10844,38.0,15.0,15.0,0.0,0.0
10845,41.0,15.0,15.0,0.0,0.0
10846,45.0,15.0,15.0,0.0,0.0
10847,47.0,15.0,15.0,0.0,0.0
10848,50.0,15.0,15.0,0.0,0.0
10849,53.0,15.0,15.0,0.0,0.0
10850,59.0,15.0,15.0,0.0,0.0
10851,52.0,0.0,120.0,7.0,0.0
10852,49.0,15.0,120.0,7.0,0.0
10853,33.0,15.0,15.0,0.0,0.0
10854,37.0,15.0,15.0,0.0,0.0
10855,40.0,15.0,15.0,0.0,0.0
10856,45.0,15.0,15.0,0.0,0.0
10857,49.0,15.0,15.0,0.0,0.0
10858,52.0,15.0,15.0,0.0,0.0
10859,57.0,15.0,15.0,0.0,0.0
10860,61.0,0.0,15.0,0.0,0.0
10861,53.0,0.0,120.0,7.0,0.0
10862,59.0,15.0,120.0,7.0,0.0
10863,45.0,0.0,240.0,7.0,0.0
10864,35.0,15.0,15.0,0.0,0.0
10865,38.0,15.0,15.0,0.0,0.0
10866,41.0,15.0,15.0,0.0,0.0
10867,47.0,15.0,15.0,0.0,0.0
10868,53.0,15.0,15.0,0.0,0.0
10869,59.0,15.0,15.0,0.0,0.0
10870,62.0,15.0,15.0,0.0,0.0
10871,65.0,0.0,15.0,0.0,0.0
10872,52.0,0.0,120.0,7.0,0.0
10873,37.0,15.0,15.0,0.0,0.0
10874,61.0,0.0,120.0,7.0,0.0
10875,40.0,15.0,15.0,0.0,0.0
10876,45.0,15.0,15.0,0.0,0.0
10877,49.0,15.0,15.0,0.0,0.0
10878,57.0,15.0,15.0,0.0,0.0
10879,61.0,15.0,15.0,0.0,0.0
10880,64.0,15.0,15.0,0.0,0.0
10881,69.0,15.0,15.0,0.0,0.0
10882,57.0,0.0,240.0,7.0,0.0
10883,47.0,0.0,120.0,7.0,0.0
10884,41.0,15.0,15.0,0.0,0.0
10885,53.0,0.0,120.0,7.0,0.0
10886,47.0,15.0,15.0,0.0,0.0
10887,50.0,15.0,15.0,0.0,0.0
10888,53.0,15.0,15.0,0.0,0.0
10889,59.0,15.0,15.0,0.0,0.0
10890,62.0,15.0,15.0,0.0,0.0
10891,65.0,15.0,15.0,0.0,0.0
10892,71.0,15.0,15.0,0.0,0.0
10893,45.0,15.0,15.0,0.0,0.0
10894,49.0,0.0,120.0,7.0,0.0
10895,52.0,0.0,120.0,7.0,0.0
10896,49.0,15.0,15.0,0.0,0.0
10897,52.0,15.0,15.0,0.0,0.0
10898,57.0,15.0,15.0,0.0,0.0
10899,61.0,15.0,15.0,0.0,0.0
10900,64.0,15.0,15.0,0.0,0.0
10901,69.0,15.0,15.0,0.0,0.0
10902,73.0,15.0,15.0,0.0,0.0
10903,53.0,0.0,120.0,7.0,0.0
10904,59.0,12.0,120.0,7.0,0.0
10905,45.0,0.0,240.0,7.0,0.0
10906,47.0,15.0,15.0,0.0,0.0
10907,50.0,15.0,15.0,0.0,0.0
10908,53.0,15.0,15.0,0.0,0.0
10909,59.0,15.0,15.0,0.0,0.0
10910,65.0,15.0,15.0,0.0,0.0
10911,71.0,15.0,15.0,0.0,0.0
10912,74.0,15.0,15.0,0.0,0.0
10913,77.0,0.0,15.0,0.0,0.0
10914,49.0,12.0,15.0,0.0,0.0
10915,61.0,0.0,120.0,7.0,0.0
10916,52.0,0.0,1080.0,7.0,0.0
10917,52.0,12.0,15.0,0.0,0.0
10918,57.0,12.0,15.0,0.0,0.0
10919,61.0,12.0,15.0,0.0,0.0
10920,64.0,12.0,15.0,0.0,0.0
10921,69.0,12.0,15.0,0.0,0.0
10922,73.0,12.0,15.0,0.0,0.0
10923,77.0,12.0,15.0,0.0,0.0
10924,81.0,12.0,15.0,0.0,0.0
10925,89.0,0.0,15.0,0.0,0.0
10926,34.0,0.0,60.0,5.0,0.0
10927,86.0,60.0,60.0,0.0,0.0
10928,62.0,0.0,60.0,0.0,0.0
10929,64.0,0.0,60.0,0.0,0.0
10930,74.0,0.0,60.0,0.0,0.0
10931,62.0,0.0,120.0,7.0,0.0
10932,88.0,0.0,60.0,0.0,0.0
10933,76.0,0.0,60.0,0.0,0.0
10934,46.0,0.0,60.0,7.0,0.0
10935,34.0,0.0,60.0,3.0,0.0
10936,32.0,0.0,60.0,3.0,0.0
10937,44.0,12.0,60.0,7.0,0.0
10938,32.0,0.0,60.0,5.0,0.0
10939,61.0,0.0,120.0,7.0,0.0
10940,49.0,12.0,15.0,0.0,0.0
10941,45.0,60.0,120.0,7.0,0.0
10942,33.0,0.0,120.0,5.0,0.0
10943,33.0,0.0,120.0,3.0,0.0
10944,52.0,12.0,15.0,0.0,0.0
10945,57.0,12.0,15.0,0.0,0.0
10946,61.0,12.0,15.0,0.0,0.0
10947,64.0,12.0,15.0,0.0,0.0
10948,69.0,12.0,15.0,0.0,0.0
10949,73.0,12.0,15.0,0.0,0.0
10950,77.0,12.0,15.0,0.0,0.0
10951,81.0,12.0,15.0,0.0,0.0
10952,89.0,0.0,15.0,0.0,0.0
10953,34.0,0.0,60.0,3.0,0.0
10954,34.0,60.0,60.0,5.0,0.0
10955,46.0,0.0,60.0,7.0,0.0
10956,74.0,0.0,60.0,0.0,0.0
10957,64.0,0.0,60.0,0.0,0.0
10958,62.0,0.0,60.0,0.0,0.0
10959,86.0,0.0,60.0,0.0,0.0
10960,88.0,0.0,60.0,0.0,0.0
10961,76.0,0.0,60.0,0.0,0.0
10962,62.0,0.0,120.0,7.0,0.0
10963,44.0,0.0,60.0,7.0,0.0
10964,32.0,0.0,60.0,3.0,0.0
10965,32.0,17.0,60.0,5.0,0.0
10966,49.0,17.0,15.0,0.0,0.0
10967,33.0,0.0,600.0,5.0,0.0
10968,61.0,0.0,120.0,7.0,0.0
10969,45.0,0.0,600.0,7.0,0.0
10970,33.0,0.0,600.0,3.0,0.0
10971,52.0,17.0,15.0,0.0,0.0
10972,57.0,17.0,15.0,0.0,0.0
10973,61.0,17.0,15.0,0.0,0.0
10974,65.0,17.0,15.0,0.0,0.0
10975,69.0,18.0,15.0,0.0,0.0
10976,77.0,60.0,20.0,0.0,0.0
10977,70.0,0.0,60.0,2.0,0.0
10978,62.0,0.0,60.0,0.0,0.0
10979,52.0,0.0,60.0,0.0,0.0
10980,62.0,17.0,120.0,7.0,0.0
10981,50.0,0.0,60.0,0.0,0.0
10982,74.0,60.0,60.0,0.0,0.0
10983,64.0,0.0,60.0,0.0,0.0
10984,82.0,0.0,60.0,1.0,0.0
10985,76.0,0.0,60.0,0.0,0.0
10986,80.0,0.0,60.0,1.0,0.0
10987,68.0,0.0,60.0,2.0,0.0
10988,81.0,0.0,120.0,1.0,0.0
10989,69.0,0.0,120.0,2.0,0.0
10990,49.0,17.0,15.0,0.0,0.0
10991,61.0,60.0,120.0,7.0,0.0
10992,52.0,17.0,15.0,0.0,0.0
10993,57.0,17.0,15.0,0.0,0.0
10994,61.0,17.0,15.0,0.0,0.0
10995,65.0,17.0,15.0,0.0,0.0
10996,69.0,18.0,15.0,0.0,0.0
10997,77.0,0.0,20.0,0.0,0.0
10998,64.0,60.0,60.0,0.0,0.0
10999,76.0,0.0,60.0,0.0,0.0
11000,74.0,0.0,60.0,0.0,0.0
11001,50.0,0.0,60.0,0.0,0.0
11002,62.0,0.0,60.0,0.0,0.0
11003,70.0,0.0,60.0,2.0,0.0
11004,62.0,0.0,120.0,7.0,0.0
11005,82.0,0.0,60.0,1.0,0.0
11006,52.0,0.0,60.0,0.0,0.0
11007,80.0,0.0,60.0,1.0,0.0
11008,68.0,40.0,60.0,2.0,0.0
11009,69.0,0.0,120.0,2.0,0.0
11010,65.0,0.0,40.0,0.0,0.0
11011,53.0,0.0,40.0,0.0,0.0
11012,81.0,0.0,120.0,1.0,0.0
11013,61.0,0.0,120.0,7.0,0.0
11014,89.0,0.0,20.0,0.0,0.0
11015,77.0,40.0,20.0,0.0,0.0
11016,52.0,0.0,40.0,0.0,0.0
11017,64.0,0.0,40.0,0.0,0.0
11018,76.0,40.0,20.0,0.0,0.0
11019,88.0,0.0,20.0,0.0,0.0
11020,58.0,0.0,40.0,0.0,0.0
11021,46.0,40.0,40.0,0.0,0.0
11022,70.0,0.0,20.0,0.0,0.0
11023,82.0,0.0,20.0,0.0,0.0
11024,57.0,0.0,40.0,0.0,0.0
11025,45.0,40.0,40.0,0.0,0.0
11026,69.0,0.0,20.0,0.0,0.0
11027,81.0,0.0,20.0,0.0,0.0
11028,41.0,0.0,40.0,0.0,0.0
11029,53.0,0.0,40.0,0.0,0.0
11030,65.0,40.0,20.0,0.0,0.0
11031,77.0,0.0,20.0,0.0,0.0
11032,40.0,0.0,40.0,0.0,0.0
11033,52.0,0.0,40.0,0.0,0.0
11034,64.0,40.0,20.0,0.0,0.0
11035,76.0,0.0,20.0,0.0,0.0
11036,34.0,0.0,40.0,0.0,0.0
11037,46.0,0.0,40.0,0.0,0.0
11038,58.0,40.0,20.0,0.0,0.0
11039,70.0,0.0,20.0,0.0,0.0
11040,33.0,0.0,40.0,0.0,0.0
11041,45.0,0.0,40.0,0.0,0.0
11042,57.0,40.0,20.0,0.0,0.0
11043,69.0,0.0,20.0,0.0,0.0
11044,29.0,0.0,40.0,0.0,0.0
11045,41.0,40.0,40.0,0.0,0.0
11046,53.0,0.0,20.0,0.0,0.0
11047,65.0,0.0,20.0,0.0,0.0
11048,28.0,0.0,40.0,0.0,0.0
11049,40.0,40.0,40.0,0.0,0.0
11050,52.0,0.0,20.0,0.0,0.0
11051,64.0,0.0,20.0,0.0,0.0
11052,34.0,40.0,40.0,0.0,0.0
11053,22.0,0.0,40.0,0.0,0.0
11054,46.0,0.0,20.0,0.0,0.0
11055,58.0,0.0,20.0,0.0,0.0
11056,21.0,0.0,40.0,0.0,0.0
11057,33.0,0.0,40.0,0.0,0.0
11058,45.0,0.0,20.0,0.0,0.0
11059,52.0,120.0,20.0,0.0,0.0
11060,49.0,0.0,20.0,0.0,0.0
11061,57.0,0.0,20.0,0.0,0.0
11062,54.0,0.0,120.0,7.0,0.0
11063,57.0,0.0,120.0,7.0,0.0
11064,57.0,0.0,120.0,2.0,0.0
11065,50.0,120.0,120.0,4.0,0.0
11066,54.0,0.0,120.0,8.0,0.0
11067,57.0,0.0,120.0,8.0,0.0
11068,38.0,0.0,240.0,5.0,0.0
11069,50.0,0.0,240.0,6.0,0.0
11070,38.0,0.0,240.0,3.0,0.0
11071,45.0,0.0,120.0,7.0,0.0
11072,38.0,0.0,240.0,6.0,0.0
11073,42.0,0.0,120.0,8.0,0.0
11074,59.0,0.0,120.0,7.0,0.0
11075,54.0,0.0,120.0,8.0,0.0
11076,47.0,240.0,120.0,7.0,0.0
11077,59.0,0.0,120.0,2.0,0.0
11078,54.0,0.0,15.0,4.0,0.0
11079,54.0,0.0,120.0,7.0,0.0
11080,59.0,0.0,120.0,12.0,0.0
11081,47.0,0.0,120.0,4.0,0.0
11082,61.0,15.0,240.0,2.0,0.0
11083,33.0,0.0,240.0,3.0,0.0
11084,52.0,0.0,240.0,8.0,0.0
11085,49.0,0.0,240.0,12.0,0.0
11086,33.0,0.0,240.0,5.0,0.0
11087,33.0,0.0,240.0,6.0,0.0
11088,45.0,0.0,240.0,8.0,0.0
11089,52.0,0.0,240.0,4.0,0.0
11090,61.0,0.0,240.0,7.0,0.0
11091,49.0,0.0,240.0,7.0,0.0
11092,52.0,0.0,240.0,7.0,0.0
11093,45.0,0.0,240.0,6.0,0.0
11094,54.0,0.0,120.0,8.0,0.0
11095,42.0,0.0,240.0,6.0,0.0
11096,30.0,0.0,240.0,6.0,0.0
11097,73.0,0.0,120.0,1.0,0.0
11098,49.0,0.0,15.0,4.0,0.0
11099,61.0,0.0,15.0,12.0,0.0
11100,61.0,0.0,120.0,7.0,0.0
11101,42.0,0.0,240.0,3.0,0.0
11102,69.0,0.0,120.0,2.0,0.0
11103,73.0,0.0,120.0,2.0,0.0
11104,57.0,0.0,120.0,7.0,0.0
11105,30.0,0.0,240.0,5.0,0.0
11106,49.0,16.0,120.0,7.0,0.0
11107,57.0,0.0,120.0,8.0,0.0
11108,42.0,15.0,15.0,13.0,0.0
11109,42.0,15.0,15.0,13.0,0.0
11110,42.0,15.0,15.0,13.0,0.0
11111,42.0,15.0,15.0,13.0,0.0
11112,42.0,15.0,15.0,13.0,0.0
11113,42.0,15.0,15.0,13.0,0.0
11114,42.0,0.0,120.0,8.0,0.0
11115,54.0,0.0,120.0,8.0,0.0
11116,63.0,0.0,120.0,7.0,0.0
11117,57.0,0.0,120.0,7.0,0.0
11118,69.0,0.0,120.0,2.0,0.0
11119,75.0,0.0,120.0,2.0,0.0
11120,75.0,0.0,120.0,1.0,0.0
11121,69.0,0.0,15.0,1.0,0.0
11122,63.0,0.0,120.0,12.0,0.0
11123,51.0,1.0,120.0,7.0,0.0
11124,51.0,0.0,120.0,4.0,0.0
11125,42.0,15.0,15.0,13.0,0.0
11126,42.0,15.0,15.0,13.0,0.0
11127,42.0,15.0,15.0,13.0,0.0
11128,42.0,15.0,15.0,13.0,0.0
11129,42.0,15.0,15.0,13.0,0.0
11130,42.0,15.0,15.0,13.0,0.0
11131,42.0,14.0,15.0,13.0,0.0
11132,37.0,0.0,60.0,13.0,0.0
11133,53.0,15.0,120.0,7.0,0.0
11134,56.0,0.0,360.0,7.0,0.0
11135,37.0,0.0,1320.0,3.0,0.0
11136,25.0,15.0,15.0,0.0,0.0
11137,68.0,0.0,360.0,1.0,0.0
11138,77.0,0.0,360.0,1.0,0.0
11139,56.0,0.0,360.0,12.0,0.0
11140,65.0,0.0,360.0,12.0,0.0
11141,65.0,0.0,360.0,7.0,0.0
11142,77.0,0.0,360.0,2.0,0.0
11143,25.0,0.0,1320.0,5.0,0.0
11144,44.0,0.0,360.0,6.0,0.0
11145,37.0,0.0,360.0,6.0,0.0
11146,53.0,0.0,360.0,4.0,0.0
11147,49.0,0.0,360.0,8.0,0.0
11148,37.0,0.0,360.0,8.0,0.0
11149,68.0,0.0,360.0,2.0,0.0
11150,29.0,15.0,15.0,0.0,0.0
11151,32.0,15.0,15.0,0.0,0.0
11152,37.0,15.0,15.0,0.0,0.0
11153,41.0,15.0,15.0,0.0,0.0
11154,44.0,15.0,15.0,0.0,0.0
11155,49.0,15.0,15.0,0.0,0.0
11156,53.0,0.0,15.0,0.0,0.0
11157,29.0,15.0,15.0,0.0,0.0
11158,49.0,0.0,240.0,7.0,0.0
11159,32.0,15.0,15.0,0.0,0.0
11160,37.0,15.0,15.0,0.0,0.0
11161,41.0,15.0,15.0,0.0,0.0
11162,44.0,15.0,15.0,0.0,0.0
11163,49.0,15.0,15.0,0.0,0.0
11164,53.0,15.0,15.0,0.0,0.0
11165,56.0,15.0,15.0,0.0,0.0
11166,32.0,15.0,15.0,0.0,0.0
11167,37.0,15.0,15.0,0.0,0.0
11168,41.0,15.0,15.0,0.0,0.0
11169,44.0,15.0,15.0,0.0,0.0
11170,49.0,15.0,15.0,0.0,0.0
11171,53.0,15.0,15.0,0.0,0.0
11172,56.0,15.0,15.0,0.0,0.0
11173,61.0,15.0,15.0,0.0,0.0
11174,57.0,0.0,120.0,7.0,0.0
11175,51.0,0.0,120.0,7.0,0.0
11176,63.0,15.0,120.0,7.0,0.0
11177,37.0,15.0,15.0,0.0,0.0
11178,42.0,15.0,15.0,0.0,0.0
11179,45.0,15.0,15.0,0.0,0.0
11180,48.0,15.0,15.0,0.0,0.0
11181,51.0,15.0,15.0,0.0,0.0
11182,54.0,15.0,15.0,0.0,0.0
11183,57.0,15.0,15.0,0.0,0.0
11184,63.0,0.0,15.0,0.0,0.0
11185,53.0,0.0,120.0,7.0,0.0
11186,56.0,15.0,120.0,7.0,0.0
11187,37.0,15.0,15.0,0.0,0.0
11188,61.0,0.0,120.0,7.0,0.0
11189,41.0,15.0,15.0,0.0,0.0
11190,44.0,15.0,15.0,0.0,0.0
11191,49.0,15.0,15.0,0.0,0.0
11192,53.0,15.0,15.0,0.0,0.0
11193,56.0,15.0,15.0,0.0,0.0
11194,61.0,15.0,15.0,0.0,0.0
11195,65.0,0.0,15.0,0.0,0.0
11196,63.0,0.0,120.0,7.0,0.0
11197,48.0,0.0,120.0,7.0,0.0
11198,39.0,15.0,15.0,0.0,0.0
11199,57.0,15.0,120.0,7.0,0.0
11200,42.0,15.0,15.0,0.0,0.0
11201,48.0,15.0,15.0,0.0,0.0
11202,51.0,15.0,15.0,0.0,0.0
11203,57.0,15.0,15.0,0.0,0.0
11204,60.0,15.0,15.0,0.0,0.0
11205,66.0,15.0,15.0,0.0,0.0
11206,69.0,0.0,15.0,0.0,0.0
11207,65.0,0.0,120.0,7.0,0.0
11208,41.0,15.0,15.0,0.0,0.0
11209,56.0,0.0,120.0,7.0,0.0
11210,49.0,0.0,120.0,7.0,0.0
11211,44.0,15.0,15.0,0.0,0.0
11212,49.0,15.0,15.0,0.0,0.0
11213,53.0,15.0,15.0,0.0,0.0
11214,61.0,15.0,15.0,0.0,0.0
11215,65.0,15.0,15.0,0.0,0.0
11216,68.0,15.0,15.0,0.0,0.0
11217,73.0,15.0,15.0,0.0,0.0
11218,51.0,15.0,120.0,7.0,0.0
11219,60.0,0.0,120.0,7.0,0.0
11220,57.0,0.0,120.0,7.0,0.0
11221,45.0,15.0,15.0,0.0,0.0
11222,48.0,15.0,15.0,0.0,0.0
11223,54.0,15.0,15.0,0.0,0.0
11224,57.0,15.0,15.0,0.0,0.0
11225,63.0,15.0,15.0,0.0,0.0
11226,66.0,15.0,15.0,0.0,0.0
11227,72.0,15.0,15.0,0.0,0.0
11228,75.0,0.0,15.0,0.0,0.0
11229,49.0,15.0,15.0,0.0,0.0
11230,53.0,15.0,120.0,7.0,0.0
11231,61.0,0.0,120.0,7.0,0.0
11232,56.0,0.0,120.0,7.0,0.0
11233,53.0,15.0,15.0,0.0,0.0
11234,56.0,15.0,15.0,0.0,0.0
11235,61.0,15.0,15.0,0.0,0.0
11236,65.0,15.0,15.0,0.0,0.0
11237,68.0,15.0,15.0,0.0,0.0
11238,73.0,15.0,15.0,0.0,0.0
11239,77.0,0.0,15.0,0.0,0.0
11240,63.0,12.0,120.0,7.0,0.0
11241,51.0,15.0,15.0,0.0,0.0
11242,57.0,0.0,120.0,7.0,0.0
11243,48.0,0.0,120.0,7.0,0.0
11244,54.0,15.0,15.0,0.0,0.0
11245,60.0,15.0,15.0,0.0,0.0
11246,63.0,15.0,15.0,0.0,0.0
11247,69.0,15.0,15.0,0.0,0.0
11248,72.0,15.0,15.0,0.0,0.0
11249,78.0,15.0,15.0,0.0,0.0
11250,81.0,0.0,15.0,0.0,0.0
11251,49.0,0.0,120.0,7.0,0.0
11252,56.0,0.0,1080.0,7.0,0.0
11253,65.0,0.0,120.0,7.0,0.0
11254,53.0,12.0,15.0,0.0,0.0
11255,56.0,12.0,15.0,0.0,0.0
11256,61.0,12.0,15.0,0.0,0.0
11257,65.0,12.0,15.0,0.0,0.0
11258,68.0,12.0,15.0,0.0,0.0
11259,73.0,12.0,15.0,0.0,0.0
11260,77.0,12.0,15.0,0.0,0.0
11261,81.0,12.0,15.0,0.0,0.0
11262,85.0,12.0,15.0,0.0,0.0
11263,93.0,60.0,15.0,0.0,0.0
11264,68.0,0.0,60.0,0.0,0.0
11265,66.0,0.0,60.0,0.0,0.0
11266,26.0,0.0,60.0,5.0,0.0
11267,92.0,0.0,60.0,0.0,0.0
11268,80.0,0.0,60.0,0.0,0.0
11269,38.0,0.0,60.0,3.0,0.0
11270,90.0,0.0,60.0,0.0,0.0
11271,78.0,0.0,60.0,0.0,0.0
11272,66.0,12.0,120.0,7.0,0.0
11273,50.0,60.0,60.0,7.0,0.0
11274,48.0,0.0,60.0,7.0,0.0
11275,24.0,0.0,60.0,5.0,0.0
11276,36.0,0.0,60.0,3.0,0.0
11277,25.0,0.0,120.0,5.0,0.0
11278,49.0,0.0,120.0,7.0,0.0
11279,65.0,0.0,120.0,7.0,0.0
11280,37.0,0.0,120.0,3.0,0.0
11281,53.0,12.0,15.0,0.0,0.0
11282,56.0,12.0,15.0,0.0,0.0
11283,61.0,12.0,15.0,0.0,0.0
11284,65.0,12.0,15.0,0.0,0.0
11285,68.0,12.0,15.0,0.0,0.0
11286,73.0,12.0,15.0,0.0,0.0
11287,77.0,12.0,15.0,0.0,0.0
11288,81.0,12.0,15.0,0.0,0.0
11289,85.0,12.0,15.0,0.0,0.0
11290,93.0,60.0,15.0,0.0,0.0
11291,50.0,0.0,60.0,7.0,0.0
11292,38.0,0.0,60.0,3.0,0.0
11293,26.0,0.0,60.0,5.0,0.0
11294,66.0,0.0,120.0,7.0,0.0
11295,78.0,0.0,60.0,0.0,0.0
11296,68.0,0.0,60.0,0.0,0.0
11297,66.0,0.0,60.0,0.0,0.0
11298,90.0,0.0,60.0,0.0,0.0
11299,92.0,60.0,60.0,0.0,0.0
11300,80.0,0.0,60.0,0.0,0.0
11301,36.0,17.0,60.0,3.0,0.0
11302,24.0,0.0,60.0,5.0,0.0
11303,48.0,0.0,60.0,7.0,0.0
11304,49.0,60.0,600.0,7.0,0.0
11305,65.0,60.0,120.0,7.0,0.0
11306,25.0,0.0,1080.0,5.0,0.0
11307,53.0,17.0,15.0,0.0,0.0
11308,37.0,60.0,1080.0,3.0,0.0
11309,56.0,17.0,15.0,0.0,0.0
11310,61.0,17.0,15.0,0.0,0.0
11311,65.0,17.0,15.0,0.0,0.0
11312,69.0,17.0,15.0,0.0,0.0
11313,73.0,18.0,15.0,0.0,0.0
11314,81.0,0.0,20.0,0.0,0.0
11315,66.0,0.0,60.0,0.0,0.0
11316,56.0,0.0,60.0,0.0,0.0
11317,54.0,0.0,60.0,0.0,0.0
11318,80.0,60.0,60.0,0.0,0.0
11319,68.0,0.0,60.0,0.0,0.0
11320,78.0,0.0,60.0,0.0,0.0
11321,62.0,0.0,60.0,6.0,0.0
11322,66.0,17.0,120.0,7.0,0.0
11323,60.0,0.0,60.0,6.0,0.0
11324,61.0,0.0,120.0,6.0,0.0
11325,65.0,60.0,120.0,7.0,0.0
11326,53.0,17.0,15.0,0.0,0.0
11327,56.0,17.0,15.0,0.0,0.0
11328,61.0,17.0,15.0,0.0,0.0
11329,65.0,17.0,15.0,0.0,0.0
11330,69.0,17.0,15.0,0.0,0.0
11331,73.0,18.0,15.0,0.0,0.0
11332,81.0,0.0,20.0,0.0,0.0
11333,66.0,15.0,120.0,7.0,0.0
11334,62.0,0.0,60.0,6.0,0.0
11335,68.0,60.0,60.0,0.0,0.0
11336,66.0,0.0,60.0,0.0,0.0
11337,78.0,0.0,60.0,0.0,0.0
11338,54.0,0.0,60.0,0.0,0.0
11339,56.0,0.0,60.0,0.0,0.0
11340,80.0,0.0,60.0,0.0,0.0
11341,60.0,0.0,60.0,6.0,0.0
11342,61.0,0.0,360.0,6.0,0.0
11343,53.0,15.0,15.0,0.0,0.0
11344,65.0,0.0,120.0,7.0,0.0
11345,56.0,15.0,15.0,0.0,0.0
11346,61.0,15.0,15.0,0.0,0.0
11347,65.0,15.0,15.0,0.0,0.0
11348,68.0,15.0,15.0,0.0,0.0
11349,73.0,15.0,15.0,0.0,0.0
11350,77.0,15.0,15.0,0.0,0.0
11351,80.0,0.0,15.0,0.0,0.0
11352,85.0,0.0,60.0,1.0,0.0
11353,58.0,0.0,120.0,7.0,0.0
11354,67.0,0.0,120.0,7.0,0.0
11355,79.0,0.0,60.0,0.0,0.0
11356,76.0,60.0,60.0,0.0,0.0
11357,64.0,0.0,60.0,0.0,0.0
11358,58.0,0.0,60.0,0.0,0.0
11359,64.0,0.0,120.0,7.0,0.0
11360,67.0,0.0,60.0,0.0,0.0
11361,73.0,0.0,60.0,2.0,0.0
11362,82.0,15.0,60.0,1.0,0.0
11363,70.0,0.0,60.0,2.0,0.0
11364,53.0,15.0,15.0,0.0,0.0
11365,71.0,0.0,120.0,2.0,0.0
11366,68.0,0.0,120.0,7.0,0.0
11367,56.0,60.0,120.0,7.0,0.0
11368,65.0,0.0,120.0,7.0,0.0
11369,83.0,0.0,120.0,1.0,0.0
11370,56.0,15.0,15.0,0.0,0.0
11371,61.0,15.0,15.0,0.0,0.0
11372,65.0,15.0,15.0,0.0,0.0
11373,68.0,15.0,15.0,0.0,0.0
11374,73.0,15.0,15.0,0.0,0.0
11375,77.0,15.0,15.0,0.0,0.0
11376,80.0,0.0,15.0,0.0,0.0
11377,64.0,0.0,120.0,7.0,0.0
11378,79.0,0.0,60.0,0.0,0.0
11379,76.0,0.0,60.0,0.0,0.0
11380,67.0,0.0,60.0,0.0,0.0
11381,73.0,0.0,60.0,2.0,0.0
11382,85.0,0.0,60.0,1.0,0.0
11383,67.0,0.0,120.0,7.0,0.0
11384,64.0,0.0,60.0,0.0,0.0
11385,58.0,15.0,120.0,7.0,0.0
11386,58.0,60.0,60.0,0.0,0.0
11387,82.0,0.0,60.0,1.0,0.0
11388,70.0,0.0,60.0,2.0,0.0
11389,53.0,15.0,15.0,0.0,0.0
11390,65.0,0.0,240.0,7.0,0.0
11391,71.0,0.0,360.0,2.0,0.0
11392,56.0,60.0,360.0,7.0,0.0
11393,68.0,0.0,720.0,7.0,0.0
11394,83.0,0.0,360.0,1.0,0.0
11395,56.0,15.0,15.0,0.0,0.0
11396,61.0,15.0,15.0,0.0,0.0
11397,65.0,15.0,15.0,0.0,0.0
11398,70.0,15.0,15.0,0.0,0.0
11399,73.0,15.0,15.0,0.0,0.0
11400,77.0,15.0,15.0,0.0,0.0
11401,82.0,0.0,15.0,0.0,0.0
11402,68.0,0.0,60.0,0.0,0.0
11403,77.0,0.0,60.0,0.0,0.0
11404,80.0,60.0,60.0,0.0,0.0
11405,38.0,0.0,120.0,3.0,0.0
11406,59.0,0.0,60.0,0.0,0.0
11407,26.0,15.0,120.0,5.0,0.0
11408,65.0,0.0,60.0,0.0,0.0
11409,51.0,15.0,15.0,0.0,0.0
11410,63.0,0.0,120.0,7.0,0.0
11411,27.0,0.0,120.0,5.0,0.0
11412,39.0,0.0,120.0,3.0,0.0
11413,56.0,15.0,15.0,0.0,0.0
11414,59.0,15.0,15.0,0.0,0.0
11415,63.0,15.0,15.0,0.0,0.0
11416,71.0,15.0,15.0,0.0,0.0
11417,75.0,15.0,15.0,0.0,0.0
11418,80.0,15.0,15.0,0.0,0.0
11419,83.0,0.0,15.0,0.0,0.0
11420,58.0,0.0,120.0,7.0,0.0
11421,70.0,0.0,120.0,2.0,0.0
11422,82.0,0.0,60.0,0.0,0.0
11423,28.0,0.0,60.0,5.0,0.0
11424,70.0,0.0,60.0,0.0,0.0
11425,80.0,0.0,60.0,0.0,0.0
11426,58.0,0.0,60.0,0.0,0.0
11427,82.0,0.0,120.0,1.0,0.0
11428,40.0,0.0,60.0,3.0,0.0
11429,68.0,60.0,60.0,0.0,0.0
11430,26.0,15.0,60.0,5.0,0.0
11431,38.0,0.0,60.0,3.0,0.0
11432,59.0,0.0,120.0,7.0,0.0
11433,39.0,60.0,120.0,3.0,0.0
11434,51.0,15.0,15.0,0.0,0.0
11435,27.0,0.0,120.0,5.0,0.0
11436,56.0,15.0,15.0,0.0,0.0
11437,59.0,15.0,15.0,0.0,0.0
11438,63.0,15.0,15.0,0.0,0.0
11439,71.0,15.0,15.0,0.0,0.0
11440,75.0,15.0,15.0,0.0,0.0
11441,80.0,15.0,15.0,0.0,0.0
11442,83.0,0.0,15.0,0.0,0.0
11443,40.0,0.0,60.0,3.0,0.0
11444,28.0,0.0,60.0,5.0,0.0
11445,58.0,0.0,60.0,0.0,0.0
11446,68.0,0.0,60.0,0.0,0.0
11447,70.0,0.0,60.0,0.0,0.0
11448,80.0,0.0,60.0,0.0,0.0
11449,82.0,60.0,60.0,0.0,0.0
11450,26.0,15.0,60.0,5.0,0.0
11451,38.0,0.0,60.0,3.0,0.0
11452,67.0,60.0,120.0,7.0,0.0
11453,51.0,15.0,15.0,0.0,0.0
11454,27.0,0.0,600.0,5.0,0.0
11455,39.0,60.0,600.0,3.0,0.0
11456,55.0,15.0,15.0,0.0,0.0
11457,58.0,15.0,15.0,0.0,0.0
11458,63.0,15.0,15.0,0.0,0.0
11459,70.0,15.0,15.0,0.0,0.0
11460,75.0,15.0,15.0,0.0,0.0
11461,79.0,15.0,15.0,0.0,0.0
11462,82.0,0.0,15.0,0.0,0.0
11463,60.0,0.0,60.0,0.0,0.0
11464,60.0,0.0,120.0,7.0,0.0
11465,66.0,0.0,60.0,0.0,0.0
11466,66.0,15.0,120.0,7.0,0.0
11467,75.0,60.0,60.0,2.0,0.0
11468,69.0,0.0,60.0,0.0,0.0
11469,78.0,0.0,60.0,0.0,0.0
11470,81.0,0.0,60.0,0.0,0.0
11471,69.0,0.0,120.0,7.0,0.0
11472,87.0,0.0,60.0,1.0,0.0
11473,84.0,0.0,60.0,1.0,0.0
11474,72.0,0.0,60.0,2.0,0.0
11475,85.0,0.0,120.0,1.0,0.0
11476,58.0,0.0,120.0,7.0,0.0
11477,51.0,15.0,15.0,0.0,0.0
11478,70.0,0.0,120.0,7.0,0.0
11479,67.0,0.0,120.0,7.0,0.0
11480,73.0,0.0,120.0,2.0,0.0
11481,55.0,15.0,15.0,0.0,0.0
11482,58.0,15.0,15.0,0.0,0.0
11483,63.0,15.0,15.0,0.0,0.0
11484,70.0,15.0,15.0,0.0,0.0
11485,75.0,15.0,15.0,0.0,0.0
11486,79.0,15.0,15.0,0.0,0.0
11487,82.0,60.0,15.0,0.0,0.0
11488,60.0,0.0,120.0,7.0,0.0
11489,69.0,15.0,120.0,7.0,0.0
11490,75.0,0.0,60.0,2.0,0.0
11491,87.0,60.0,60.0,1.0,0.0
11492,66.0,0.0,120.0,7.0,0.0
11493,81.0,0.0,60.0,0.0,0.0
11494,78.0,0.0,60.0,0.0,0.0
11495,69.0,0.0,60.0,0.0,0.0
11496,66.0,0.0,60.0,0.0,0.0
11497,60.0,0.0,60.0,0.0,0.0
11498,84.0,0.0,60.0,1.0,0.0
11499,72.0,0.0,60.0,2.0,0.0
11500,85.0,0.0,360.0,1.0,0.0
11501,67.0,0.0,240.0,7.0,0.0
11502,58.0,0.0,240.0,7.0,0.0
11503,51.0,20.0,15.0,0.0,0.0
11504,73.0,0.0,360.0,2.0,0.0
11505,70.0,0.0,240.0,7.0,0.0
11506,55.0,10.0,15.0,0.0,0.0
11507,58.0,15.0,15.0,0.0,0.0
11508,63.0,15.0,15.0,0.0,0.0
11509,72.0,15.0,15.0,0.0,0.0
11510,75.0,15.0,15.0,0.0,0.0
11511,79.0,15.0,15.0,0.0,0.0
11512,84.0,0.0,15.0,0.0,0.0
11513,61.0,0.0,60.0,0.0,0.0
11514,67.0,60.0,60.0,0.0,0.0
11515,70.0,0.0,60.0,0.0,0.0
11516,79.0,0.0,60.0,0.0,0.0
11517,82.0,0.0,60.0,0.0,0.0
11518,40.0,0.0,120.0,3.0,0.0
11519,28.0,15.0,120.0,5.0,0.0
11520,41.0,0.0,120.0,3.0,0.0
11521,60.0,20.0,960.0,7.0,0.0
11522,65.0,0.0,120.0,7.0,0.0
11523,69.0,60.0,120.0,7.0,0.0
11524,53.0,15.0,15.0,0.0,0.0
11525,29.0,0.0,120.0,5.0,0.0
11526,57.0,15.0,15.0,0.0,0.0
11527,60.0,15.0,15.0,0.0,0.0
11528,65.0,15.0,15.0,0.0,0.0
11529,73.0,15.0,15.0,0.0,0.0
11530,77.0,15.0,15.0,0.0,0.0
11531,81.0,15.0,15.0,0.0,0.0
11532,85.0,0.0,15.0,0.0,0.0
11533,70.0,15.0,120.0,7.0,0.0
11534,84.0,0.0,60.0,0.0,0.0
11535,30.0,60.0,60.0,5.0,0.0
11536,42.0,0.0,60.0,3.0,0.0
11537,82.0,0.0,60.0,0.0,0.0
11538,72.0,0.0,60.0,0.0,0.0
11539,70.0,0.0,60.0,0.0,0.0
11540,60.0,0.0,60.0,0.0,0.0
11541,28.0,0.0,60.0,5.0,0.0
11542,40.0,0.0,60.0,3.0,0.0
11543,53.0,15.0,15.0,0.0,0.0
11544,29.0,0.0,120.0,5.0,0.0
11545,41.0,0.0,120.0,3.0,0.0
11546,69.0,60.0,120.0,7.0,0.0
11547,57.0,15.0,15.0,0.0,0.0
11548,60.0,15.0,15.0,0.0,0.0
11549,65.0,15.0,15.0,0.0,0.0
11550,73.0,15.0,15.0,0.0,0.0
11551,77.0,15.0,15.0,0.0,0.0
11552,81.0,15.0,15.0,0.0,0.0
11553,85.0,0.0,15.0,0.0,0.0
11554,60.0,0.0,60.0,0.0,0.0
11555,72.0,0.0,60.0,0.0,0.0
11556,82.0,0.0,60.0,0.0,0.0
11557,84.0,0.0,60.0,0.0,0.0
11558,42.0,0.0,60.0,3.0,0.0
11559,70.0,60.0,60.0,0.0,0.0
11560,70.0,0.0,120.0,7.0,0.0
11561,30.0,0.0,60.0,5.0,0.0
11562,28.0,20.0,60.0,5.0,0.0
11563,40.0,0.0,60.0,3.0,0.0
11564,69.0,0.0,480.0,7.0,0.0
11565,41.0,0.0,2400.0,3.0,0.0
11566,53.0,15.0,20.0,0.0,0.0
11567,29.0,0.0,2400.0,5.0,0.0
11568,57.0,20.0,15.0,0.0,0.0
11569,60.0,25.0,15.0,0.0,0.0
11570,65.0,20.0,20.0,0.0,0.0
11571,69.0,20.0,20.0,0.0,0.0
11572,73.0,60.0,20.0,0.0,0.0
11573,72.0,80.0,60.0,0.0,0.0
11574,53.0,15.0,20.0,0.0,0.0
11575,57.0,20.0,15.0,0.0,0.0
11576,60.0,25.0,15.0,0.0,0.0
11577,65.0,20.0,20.0,0.0,0.0
11578,69.0,20.0,20.0,0.0,0.0
11579,73.0,60.0,20.0,0.0,0.0
11580,72.0,60.0,60.0,0.0,0.0
11581,53.0,0.0,1800.0,7.0,0.0
11582,57.0,20.0,480.0,7.0,0.0
11583,29.0,20.0,20.0,0.0,0.0
11584,48.0,20.0,960.0,7.0,0.0
11585,48.0,0.0,960.0,6.0,0.0
11586,41.0,15.0,20.0,0.0,0.0
11587,85.0,5.0,15.0,0.0,0.0
11588,45.0,20.0,20.0,0.0,0.0
11589,48.0,0.0,20.0,0.0,0.0
11590,77.0,20.0,20.0,0.0,0.0
11591,84.0,20.0,20.0,0.0,0.0
11592,53.0,0.0,20.0,0.0,0.0
11593,81.0,20.0,20.0,0.0,0.0
11594,57.0,0.0,20.0,0.0,0.0
11595,60.0,0.0,20.0,0.0,0.0
11596,85.0,20.0,20.0,0.0,0.0
11597,65.0,0.0,20.0,0.0,0.0
11598,77.0,20.0,20.0,0.0,0.0
11599,69.0,20.0,20.0,0.0,0.0
11600,84.0,0.0,20.0,0.0,0.0
11601,72.0,20.0,20.0,0.0,0.0
11602,81.0,0.0,20.0,0.0,0.0
11603,85.0,0.0,20.0,0.0,0.0
11604,65.0,20.0,20.0,0.0,0.0
11605,73.0,20.0,20.0,0.0,0.0
11606,77.0,0.0,20.0,0.0,0.0
11607,84.0,20.0,20.0,0.0,0.0
11608,69.0,0.0,20.0,0.0,0.0
11609,81.0,20.0,20.0,0.0,0.0
11610,72.0,0.0,20.0,0.0,0.0
11611,65.0,20.0,20.0,0.0,0.0
11612,85.0,0.0,20.0,0.0,0.0
11613,73.0,20.0,20.0,0.0,0.0
11614,77.0,0.0,20.0,0.0,0.0
11615,84.0,0.0,20.0,0.0,0.0
11616,69.0,20.0,20.0,0.0,0.0
11617,72.0,20.0,20.0,0.0,0.0
11618,81.0,0.0,20.0,0.0,0.0
11619,65.0,20.0,20.0,0.0,0.0
11620,85.0,0.0,20.0,0.0,0.0
11621,77.0,0.0,20.0,0.0,0.0
11622,73.0,20.0,20.0,0.0,0.0
11623,69.0,0.0,20.0,0.0,0.0
11624,84.0,20.0,20.0,0.0,0.0
11625,72.0,20.0,20.0,0.0,0.0
11626,81.0,0.0,20.0,0.0,0.0
11627,65.0,20.0,20.0,0.0,0.0
11628,85.0,0.0,20.0,0.0,0.0
11629,73.0,0.0,20.0,0.0,0.0
11630,77.0,0.0,20.0,0.0,0.0
11631,84.0,0.0,20.0,0.0,0.0
11632,68.0,20.0,20.0,0.0,0.0
11633,56.0,0.0,1320.0,7.0,0.0
11634,72.0,20.0,20.0,0.0,0.0
11635,80.0,0.0,20.0,0.0,0.0
11636,65.0,20.0,20.0,0.0,0.0
11637,85.0,0.0,20.0,0.0,0.0
11638,73.0,0.0,20.0,0.0,0.0
11639,77.0,20.0,20.0,0.0,0.0
11640,68.0,20.0,20.0,0.0,0.0
11641,84.0,0.0,20.0,0.0,0.0
11642,72.0,20.0,20.0,0.0,0.0
11643,80.0,0.0,20.0,0.0,0.0
11644,65.0,20.0,20.0,0.0,0.0
11645,85.0,0.0,20.0,0.0,0.0
11646,73.0,20.0,20.0,0.0,0.0
11647,77.0,0.0,20.0,0.0,0.0
11648,68.0,20.0,20.0,0.0,0.0
11649,84.0,0.0,20.0,0.0,0.0
11650,72.0,20.0,20.0,0.0,0.0
11651,80.0,0.0,20.0,0.0,0.0
11652,85.0,0.0,20.0,0.0,0.0
11653,65.0,20.0,20.0,0.0,0.0
11654,77.0,20.0,20.0,0.0,0.0
11655,73.0,0.0,20.0,0.0,0.0
11656,84.0,0.0,20.0,0.0,0.0
11657,68.0,20.0,20.0,0.0,0.0
11658,72.0,20.0,20.0,0.0,0.0
11659,80.0,0.0,20.0,0.0,0.0
11660,65.0,0.0,20.0,0.0,0.0
11661,85.0,20.0,20.0,0.0,0.0
11662,77.0,20.0,20.0,0.0,0.0
11663,73.0,0.0,20.0,0.0,0.0
11664,68.0,20.0,20.0,0.0,0.0
11665,84.0,0.0,20.0,0.0,0.0
11666,72.0,20.0,20.0,0.0,0.0
11667,80.0,0.0,20.0,0.0,0.0
11668,65.0,20.0,20.0,0.0,0.0
11669,85.0,0.0,20.0,0.0,0.0
11670,77.0,20.0,20.0,0.0,0.0
11671,73.0,0.0,20.0,0.0,0.0
11672,84.0,20.0,20.0,0.0,0.0
11673,68.0,0.0,20.0,0.0,0.0
11674,80.0,0.0,20.0,0.0,0.0
11675,72.0,20.0,20.0,0.0,0.0
11676,65.0,20.0,20.0,0.0,0.0
11677,85.0,0.0,20.0,0.0,0.0
11678,73.0,0.0,20.0,0.0,0.0
11679,77.0,0.0,20.0,0.0,0.0
11680,68.0,20.0,20.0,0.0,0.0
11681,84.0,0.0,20.0,0.0,0.0
11682,49.0,20.0,240.0,7.0,0.0
11683,49.0,20.0,840.0,8.0,0.0
11684,49.0,0.0,960.0,6.0,0.0
11685,72.0,0.0,20.0,0.0,0.0
11686,80.0,20.0,20.0,0.0,0.0
11687,85.0,20.0,20.0,0.0,0.0
11688,65.0,0.0,20.0,0.0,0.0
11689,73.0,20.0,20.0,0.0,0.0
11690,77.0,0.0,20.0,0.0,0.0
11691,68.0,20.0,20.0,0.0,0.0
11692,84.0,0.0,20.0,0.0,0.0
11693,72.0,20.0,20.0,0.0,0.0
11694,80.0,0.0,20.0,0.0,0.0
11695,87.0,0.0,20.0,0.0,0.0
11696,65.0,20.0,20.0,0.0,0.0
11697,77.0,0.0,20.0,0.0,0.0
11698,75.0,20.0,20.0,0.0,0.0
11699,68.0,20.0,20.0,0.0,0.0
11700,85.0,0.0,20.0,0.0,0.0
11701,73.0,0.0,20.0,0.0,0.0
11702,80.0,20.0,20.0,0.0,0.0
11703,65.0,20.0,20.0,0.0,0.0
11704,87.0,0.0,20.0,0.0,0.0
11705,75.0,0.0,20.0,0.0,0.0
11706,77.0,0.0,20.0,0.0,0.0
11707,71.0,0.0,20.0,0.0,0.0
11708,47.0,0.0,600.0,7.0,0.0
11709,86.0,20.0,20.0,0.0,0.0
11710,83.0,20.0,20.0,0.0,0.0
11711,74.0,0.0,20.0,0.0,0.0
11712,87.0,20.0,20.0,0.0,0.0
11713,68.0,0.0,20.0,0.0,0.0
11714,80.0,0.0,20.0,0.0,0.0
11715,75.0,20.0,20.0,0.0,0.0
11716,71.0,20.0,20.0,0.0,0.0
11717,86.0,0.0,20.0,0.0,0.0
11718,74.0,0.0,20.0,0.0,0.0
11719,83.0,20.0,20.0,0.0,0.0
11720,89.0,20.0,20.0,0.0,0.0
11721,68.0,0.0,20.0,0.0,0.0
11722,77.0,20.0,20.0,0.0,0.0
11723,80.0,0.0,20.0,0.0,0.0
11724,87.0,20.0,20.0,0.0,0.0
11725,71.0,0.0,20.0,0.0,0.0
11726,83.0,20.0,20.0,0.0,0.0
11727,75.0,0.0,20.0,0.0,0.0
11728,68.0,20.0,20.0,0.0,0.0
11729,89.0,0.0,20.0,0.0,0.0
11730,77.0,20.0,20.0,0.0,0.0
11731,80.0,0.0,20.0,0.0,0.0
11732,37.0,0.0,480.0,6.0,0.0
11733,88.0,20.0,20.0,0.0,0.0
11734,71.0,0.0,20.0,0.0,0.0
11735,83.0,20.0,20.0,0.0,0.0
11736,76.0,0.0,20.0,0.0,0.0
11737,89.0,0.0,20.0,0.0,0.0
11738,68.0,20.0,20.0,0.0,0.0
11739,77.0,20.0,20.0,0.0,0.0
11740,80.0,0.0,20.0,0.0,0.0
11741,88.0,0.0,20.0,0.0,0.0
11742,71.0,20.0,20.0,0.0,0.0
11743,76.0,20.0,20.0,0.0,0.0
11744,83.0,0.0,20.0,0.0,0.0
11745,68.0,20.0,20.0,0.0,0.0
11746,90.0,0.0,20.0,0.0,0.0
11747,80.0,0.0,20.0,0.0,0.0
11748,78.0,20.0,20.0,0.0,0.0
11749,71.0,0.0,20.0,0.0,0.0
11750,89.0,20.0,20.0,0.0,0.0
11751,83.0,0.0,20.0,0.0,0.0
11752,77.0,20.0,20.0,0.0,0.0
11753,68.0,20.0,20.0,0.0,0.0
11754,90.0,0.0,20.0,0.0,0.0
11755,78.0,20.0,20.0,0.0,0.0
11756,80.0,0.0,20.0,0.0,0.0
11757,71.0,0.0,20.0,0.0,0.0
11758,89.0,20.0,20.0,0.0,0.0
11759,77.0,20.0,20.0,0.0,0.0
11760,83.0,0.0,20.0,0.0,0.0
11761,68.0,20.0,20.0,0.0,0.0
11762,90.0,0.0,20.0,0.0,0.0
11763,80.0,0.0,20.0,0.0,0.0
11764,78.0,20.0,20.0,0.0,0.0
11765,89.0,0.0,20.0,0.0,0.0
11766,71.0,20.0,20.0,0.0,0.0
11767,77.0,0.0,20.0,0.0,0.0
11768,83.0,0.0,20.0,0.0,0.0
11769,70.0,0.0,20.0,0.0,0.0
11770,92.0,20.0,20.0,0.0,0.0
11771,54.0,0.0,240.0,7.0,0.0
11772,46.0,0.0,240.0,4.0,0.0
11773,49.0,0.0,240.0,4.0,0.0
11774,46.0,20.0,240.0,7.0,0.0
11775,54.0,0.0,240.0,8.0,0.0
11776,80.0,20.0,20.0,0.0,0.0
11777,82.0,0.0,20.0,0.0,0.0
11778,90.0,20.0,20.0,0.0,0.0
11779,73.0,0.0,20.0,0.0,0.0
11780,85.0,0.0,20.0,0.0,0.0
11781,78.0,20.0,20.0,0.0,0.0
11782,70.0,20.0,20.0,0.0,0.0
11783,92.0,0.0,20.0,0.0,0.0
11784,82.0,20.0,20.0,0.0,0.0
11785,80.0,0.0,20.0,0.0,0.0
11786,30.0,0.0,360.0,5.0,0.0
11787,90.0,20.0,20.0,0.0,0.0
11788,42.0,0.0,600.0,6.0,0.0
11789,73.0,0.0,20.0,0.0,0.0
11790,42.0,0.0,600.0,3.0,0.0
11791,30.0,0.0,480.0,6.0,0.0
11792,85.0,20.0,20.0,0.0,0.0
11793,78.0,0.0,20.0,0.0,0.0
11794,70.0,20.0,20.0,0.0,0.0
11795,92.0,0.0,20.0,0.0,0.0
11796,80.0,20.0,20.0,0.0,0.0
11797,82.0,0.0,20.0,0.0,0.0
11798,73.0,20.0,20.0,0.0,0.0
11799,90.0,0.0,20.0,0.0,0.0
11800,78.0,0.0,20.0,0.0,0.0
11801,85.0,0.0,20.0,0.0,0.0
11802,47.0,0.0,120.0,4.0,0.0
11803,56.0,0.0,120.0,8.0,0.0
11804,92.0,20.0,20.0,0.0,0.0
11805,71.0,0.0,20.0,0.0,0.0
11806,51.0,0.0,120.0,4.0,0.0
11807,51.0,20.0,120.0,7.0,0.0
11808,56.0,0.0,120.0,7.0,0.0
11809,47.0,0.0,120.0,7.0,0.0
11810,80.0,0.0,20.0,0.0,0.0
11811,83.0,20.0,20.0,0.0,0.0
11812,90.0,0.0,20.0,0.0,0.0
11813,75.0,20.0,20.0,0.0,0.0
11814,78.0,20.0,20.0,0.0,0.0
11815,87.0,0.0,20.0,0.0,0.0
11816,71.0,0.0,20.0,0.0,0.0
11817,92.0,20.0,20.0,0.0,0.0
11818,83.0,0.0,20.0,0.0,0.0
11819,80.0,0.0,20.0,0.0,0.0
11820,73.0,20.0,20.0,0.0,0.0
11821,90.0,0.0,20.0,0.0,0.0
11822,49.0,20.0,120.0,4.0,0.0
11823,58.0,0.0,120.0,7.0,0.0
11824,54.0,0.0,360.0,7.0,0.0
11825,49.0,0.0,120.0,7.0,0.0
11826,58.0,0.0,120.0,8.0,0.0
11827,54.0,0.0,120.0,4.0,0.0
11828,85.0,0.0,20.0,0.0,0.0
11829,78.0,20.0,20.0,0.0,0.0
11830,92.0,20.0,20.0,0.0,0.0
11831,70.0,0.0,20.0,0.0,0.0
11832,82.0,20.0,20.0,0.0,0.0
11833,80.0,0.0,20.0,0.0,0.0
11834,90.0,0.0,20.0,0.0,0.0
11835,73.0,20.0,20.0,0.0,0.0
11836,85.0,0.0,20.0,0.0,0.0
11837,78.0,0.0,20.0,0.0,0.0
11838,51.0,0.0,120.0,7.0,0.0
11839,92.0,0.0,20.0,0.0,0.0
11840,71.0,20.0,20.0,0.0,0.0
11841,59.0,0.0,120.0,7.0,0.0
11842,42.0,0.0,240.0,5.0,0.0
11843,59.0,0.0,40.0,8.0,0.0
11844,51.0,0.0,40.0,4.0,0.0
11845,83.0,20.0,20.0,0.0,0.0
11846,80.0,0.0,20.0,0.0,0.0
11847,58.0,0.0,40.0,8.0,0.0
11848,49.0,0.0,40.0,4.0,0.0
11849,90.0,20.0,20.0,0.0,0.0
11850,75.0,0.0,20.0,0.0,0.0
11851,54.0,0.0,40.0,4.0,0.0
11852,78.0,0.0,20.0,0.0,0.0
11853,87.0,20.0,20.0,0.0,0.0
11854,56.0,0.0,40.0,8.0,0.0
11855,47.0,15.0,40.0,4.0,0.0
11856,92.0,20.0,20.0,0.0,0.0
11857,71.0,0.0,20.0,0.0,0.0
11858,51.0,0.0,40.0,4.0,0.0
11859,83.0,0.0,20.0,0.0,0.0
11860,80.0,0.0,20.0,0.0,0.0
11861,70.0,5.0,15.0,0.0,0.0
11862,49.0,0.0,1080.0,7.0,0.0
11863,58.0,10.0,120.0,8.0,0.0
11864,46.0,0.0,240.0,4.0,0.0
11865,90.0,5.0,20.0,0.0,0.0
11866,73.0,15.0,15.0,0.0,0.0
11867,82.0,10.0,20.0,0.0,0.0
11868,78.0,0.0,15.0,0.0,0.0
11869,85.0,20.0,20.0,0.0,0.0
11870,78.0,10.0,15.0,0.0,0.0
11871,80.0,20.0,20.0,0.0,0.0
11872,82.0,20.0,20.0,0.0,0.0
11873,78.0,0.0,20.0,0.0,0.0
11874,41.0,10.0,120.0,6.0,0.0
11875,85.0,5.0,20.0,0.0,0.0
11876,41.0,0.0,120.0,3.0,0.0
11877,41.0,0.0,120.0,5.0,0.0
11878,61.0,10.0,15.0,0.0,0.0
11879,58.0,0.0,120.0,7.0,0.0
11880,61.0,40.0,480.0,8.0,0.0
11881,49.0,0.0,480.0,8.0,0.0
11882,65.0,15.0,15.0,0.0,0.0
11883,77.0,20.0,20.0,0.0,0.0
11884,70.0,0.0,15.0,0.0,0.0
11885,82.0,20.0,20.0,0.0,0.0
11886,73.0,20.0,20.0,0.0,0.0
11887,77.0,20.0,20.0,0.0,0.0
11888,70.0,0.0,20.0,0.0,0.0
11889,49.0,0.0,15.0,4.0,0.0
11890,53.0,40.0,240.0,4.0,0.0
11891,53.0,10.0,15.0,0.0,0.0
11892,34.0,0.0,120.0,3.0,0.0
11893,53.0,0.0,240.0,7.0,0.0
11894,34.0,0.0,120.0,6.0,0.0
11895,34.0,0.0,120.0,5.0,0.0
11896,82.0,5.0,20.0,0.0,0.0
11897,58.0,15.0,15.0,0.0,0.0
11898,73.0,20.0,20.0,0.0,0.0
11899,61.0,0.0,15.0,0.0,0.0
11900,77.0,20.0,20.0,0.0,0.0
11901,70.0,20.0,20.0,0.0,0.0
11902,73.0,20.0,20.0,0.0,0.0
11903,65.0,0.0,20.0,0.0,0.0
11904,49.0,10.0,15.0,0.0,0.0
11905,59.0,0.0,120.0,7.0,0.0
11906,37.0,0.0,120.0,5.0,0.0
11907,37.0,0.0,120.0,6.0,0.0
11908,37.0,0.0,120.0,3.0,0.0
11909,68.0,5.0,20.0,0.0,0.0
11910,71.0,0.0,20.0,0.0,0.0
11911,53.0,15.0,15.0,0.0,0.0
11912,61.0,20.0,20.0,0.0,0.0
11913,56.0,0.0,15.0,0.0,0.0
11914,70.0,0.0,20.0,0.0,0.0
11915,66.0,20.0,20.0,0.0,0.0
11916,61.0,20.0,20.0,0.0,0.0
11917,68.0,20.0,20.0,0.0,0.0
11918,65.0,0.0,20.0,0.0,0.0
11919,61.0,0.0,20.0,0.0,0.0
11920,70.0,0.0,120.0,2.0,0.0
11921,54.0,0.0,360.0,7.0,0.0
11922,18.0,40.0,40.0,0.0,0.0
11923,30.0,0.0,120.0,6.0,0.0
11924,82.0,0.0,120.0,1.0,0.0
11925,58.0,40.0,360.0,7.0,0.0
11926,30.0,40.0,40.0,0.0,0.0
11927,42.0,0.0,40.0,0.0,0.0
11928,37.0,0.0,40.0,0.0,0.0
11929,73.0,0.0,600.0,2.0,0.0
11930,85.0,0.0,600.0,1.0,0.0
11931,46.0,40.0,40.0,0.0,0.0
11932,42.0,0.0,40.0,0.0,0.0
11933,49.0,0.0,15.0,0.0,0.0
11934,46.0,40.0,40.0,0.0,0.0
11935,54.0,0.0,15.0,0.0,0.0
11936,58.0,0.0,40.0,0.0,0.0
11937,49.0,40.0,40.0,0.0,0.0
11938,54.0,0.0,15.0,0.0,0.0
11939,61.0,40.0,40.0,0.0,0.0
11940,58.0,0.0,15.0,0.0,0.0
11941,66.0,0.0,40.0,0.0,0.0
11942,61.0,0.0,40.0,0.0,0.0
11943,54.0,0.0,40.0,0.0,0.0
11944,49.0,0.0,40.0,0.0,0.0
11945,58.0,40.0,15.0,0.0,0.0
11946,70.0,0.0,40.0,0.0,0.0
11947,59.0,0.0,40.0,0.0,0.0
11948,80.0,0.0,40.0,0.0,0.0
11949,83.0,40.0,40.0,0.0,0.0
11950,71.0,0.0,40.0,0.0,0.0
11951,49.0,0.0,40.0,0.0,0.0
11952,56.0,0.0,40.0,0.0,0.0
11953,59.0,0.0,120.0,7.0,0.0
11954,53.0,0.0,120.0,7.0,0.0
11955,82.0,0.0,40.0,0.0,0.0
11956,78.0,0.0,40.0,0.0,0.0
11957,70.0,0.0,40.0,0.0,0.0
11958,54.0,0.0,40.0,0.0,0.0
11959,58.0,0.0,40.0,0.0,0.0
11960,56.0,0.0,40.0,0.0,0.0
11961,77.0,0.0,40.0,0.0,0.0
11962,49.0,40.0,15.0,0.0,0.0
11963,68.0,0.0,40.0,0.0,0.0
11964,80.0,0.0,40.0,0.0,0.0
11965,53.0,0.0,40.0,0.0,0.0
11966,82.0,0.0,120.0,0.0,0.0
11967,78.0,0.0,120.0,0.0,0.0
11968,70.0,0.0,120.0,0.0,0.0
11969,58.0,0.0,120.0,0.0,0.0
11970,49.0,0.0,120.0,0.0,0.0
11971,30.0,120.0,15.0,5.0,0.0
11972,58.0,0.0,120.0,7.0,0.0
11973,66.0,120.0,120.0,8.0,0.0
11974,42.0,0.0,15.0,3.0,0.0
11975,54.0,0.0,120.0,6.0,0.0
11976,58.0,120.0,240.0,6.0,0.0
11977,54.0,0.0,120.0,7.0,0.0
11978,54.0,0.0,120.0,0.0,0.0
11979,49.0,0.0,360.0,0.0,0.0
11980,61.0,0.0,360.0,0.0,0.0
11981,85.0,40.0,360.0,0.0,0.0
11982,73.0,0.0,360.0,0.0,0.0
11983,58.0,0.0,120.0,7.0,0.0
11984,53.0,0.0,120.0,6.0,0.0
11985,61.0,0.0,120.0,8.0,0.0
11986,61.0,0.0,120.0,7.0,0.0
11987,53.0,0.0,120.0,7.0,0.0
11988,51.0,0.0,120.0,7.0,0.0
11989,59.0,0.0,120.0,7.0,0.0
11990,54.0,0.0,240.0,7.0,0.0
11991,59.0,0.0,120.0,8.0,0.0
11992,51.0,40.0,120.0,6.0,0.0
11993,54.0,0.0,240.0,6.0,0.0
11994,49.0,0.0,40.0,6.0,0.0
11995,58.0,0.0,120.0,7.0,0.0
11996,49.0,0.0,720.0,7.0,0.0
11997,58.0,40.0,40.0,8.0,0.0
11998,56.0,0.0,40.0,8.0,0.0
11999,47.0,40.0,40.0,6.0,0.0
12000,54.0,0.0,40.0,8.0,0.0
12001,46.0,0.0,40.0,6.0,0.0
12002,56.0,0.0,360.0,7.0,0.0
12003,25.0,0.0,840.0,5.0,0.0
12004,53.0,0.0,120.0,6.0,0.0
12005,37.0,0.0,480.0,3.0,0.0
12006,56.0,0.0,120.0,8.0,0.0
12007,53.0,5.0,360.0,7.0,0.0
12008,25.0,40.0,40.0,0.0,0.0
12009,37.0,40.0,40.0,0.0,0.0
12010,37.0,40.0,40.0,0.0,0.0
12011,41.0,0.0,15.0,0.0,0.0
12012,44.0,0.0,40.0,0.0,0.0
12013,61.0,0.0,360.0,8.0,0.0
12014,49.0,0.0,360.0,6.0,0.0
12015,53.0,0.0,40.0,0.0,0.0
12016,49.0,0.0,15.0,0.0,0.0
12017,44.0,0.0,40.0,0.0,0.0
12018,49.0,5.0,40.0,0.0,0.0
12019,53.0,0.0,40.0,0.0,0.0
12020,56.0,35.0,15.0,0.0,0.0
12021,53.0,35.0,40.0,0.0,0.0
12022,61.0,0.0,40.0,0.0,0.0
12023,65.0,0.0,40.0,0.0,0.0
12024,61.0,40.0,40.0,0.0,0.0
12025,56.0,5.0,15.0,0.0,0.0
12026,53.0,35.0,40.0,0.0,0.0
12027,68.0,0.0,40.0,0.0,0.0
12028,56.0,0.0,40.0,0.0,0.0
12029,58.0,0.0,120.0,7.0,0.0
12030,49.0,0.0,15.0,0.0,0.0
12031,70.0,0.0,40.0,0.0,0.0
12032,82.0,0.0,40.0,0.0,0.0
12033,78.0,0.0,40.0,0.0,0.0
12034,54.0,0.0,120.0,7.0,0.0
12035,54.0,35.0,40.0,0.0,0.0
12036,58.0,0.0,40.0,0.0,0.0
12037,49.0,5.0,15.0,0.0,0.0
12038,56.0,0.0,40.0,0.0,0.0
12039,77.0,0.0,40.0,0.0,0.0
12040,80.0,40.0,40.0,0.0,0.0
12041,68.0,0.0,40.0,0.0,0.0
12042,53.0,0.0,40.0,0.0,0.0
12043,51.0,40.0,40.0,0.0,0.0
12044,66.0,0.0,40.0,0.0,0.0
12045,78.0,0.0,40.0,0.0,0.0
12046,54.0,0.0,40.0,0.0,0.0
12047,75.0,0.0,40.0,0.0,0.0
12048,53.0,0.0,360.0,7.0,0.0
12049,37.0,40.0,40.0,11.0,0.0
12050,56.0,0.0,240.0,7.0,0.0
12051,49.0,0.0,15.0,0.0,0.0
12052,56.0,0.0,120.0,0.0,0.0
12053,53.0,0.0,120.0,0.0,0.0
12054,80.0,0.0,120.0,0.0,0.0
12055,77.0,0.0,120.0,0.0,0.0
12056,68.0,0.0,120.0,0.0,0.0
12057,41.0,40.0,40.0,11.0,0.0
12058,44.0,0.0,40.0,11.0,0.0
12059,73.0,120.0,360.0,0.0,0.0
12060,49.0,40.0,15.0,0.0,0.0
12061,61.0,0.0,360.0,0.0,0.0
12062,85.0,0.0,360.0,0.0,0.0
12063,49.0,40.0,40.0,11.0,0.0
12064,53.0,40.0,40.0,11.0,0.0
12065,56.0,40.0,40.0,11.0,0.0
12066,61.0,40.0,40.0,11.0,0.0
12067,65.0,40.0,40.0,11.0,0.0
12068,68.0,120.0,40.0,11.0,0.0
12069,73.0,0.0,120.0,1.0,0.0
12070,61.0,0.0,120.0,4.0,0.0
12071,49.0,0.0,120.0,6.0,0.0
12072,83.0,0.0,120.0,1.0,0.0
12073,71.0,0.0,120.0,4.0,0.0
12074,51.0,0.0,120.0,6.0,0.0
12075,66.0,0.0,120.0,4.0,0.0
12076,54.0,60.0,120.0,6.0,0.0
12077,73.0,60.0,60.0,4.0,0.0
12078,65.0,0.0,120.0,4.0,0.0
12079,49.0,0.0,120.0,6.0,0.0
12080,85.0,0.0,60.0,1.0,0.0
12081,53.0,0.0,120.0,6.0,0.0
12082,82.0,120.0,60.0,1.0,0.0
12083,70.0,0.0,60.0,4.0,0.0
12084,63.0,0.0,120.0,4.0,0.0
12085,68.0,0.0,120.0,4.0,0.0
12086,80.0,0.0,120.0,1.0,0.0
12087,47.0,60.0,120.0,6.0,0.0
12088,51.0,0.0,120.0,6.0,0.0
12089,82.0,60.0,60.0,1.0,0.0
12090,46.0,0.0,120.0,6.0,0.0
12091,70.0,0.0,60.0,4.0,0.0
12092,61.0,0.0,120.0,4.0,0.0
12093,49.0,0.0,120.0,6.0,0.0
12094,66.0,0.0,60.0,4.0,0.0
12095,78.0,120.0,60.0,1.0,0.0
12096,77.0,0.0,120.0,1.0,0.0
12097,44.0,0.0,120.0,6.0,0.0
12098,59.0,0.0,120.0,4.0,0.0
12099,65.0,0.0,120.0,4.0,0.0
12100,47.0,120.0,120.0,6.0,0.0
12101,57.0,0.0,120.0,4.0,0.0
12102,63.0,0.0,120.0,4.0,0.0
12103,75.0,60.0,120.0,1.0,0.0
12104,42.0,0.0,120.0,6.0,0.0
12105,48.0,0.0,120.0,6.0,0.0
12106,41.0,60.0,120.0,6.0,0.0
12107,49.0,0.0,180.0,6.0,0.0
12108,68.0,60.0,180.0,4.0,0.0
12109,56.0,60.0,60.0,4.0,0.0
12110,80.0,0.0,180.0,1.0,0.0
12111,61.0,0.0,120.0,4.0,0.0
12112,40.0,120.0,120.0,6.0,0.0
12113,52.0,0.0,120.0,3.0,0.0
12114,40.0,0.0,120.0,5.0,0.0
12115,61.0,0.0,120.0,7.0,0.0
12116,82.0,0.0,60.0,1.0,0.0
12117,70.0,0.0,60.0,4.0,0.0
12118,55.0,0.0,60.0,6.0,0.0
12119,67.0,0.0,60.0,4.0,0.0
12120,66.0,0.0,120.0,7.0,0.0
12121,83.0,0.0,120.0,1.0,0.0
12122,71.0,0.0,120.0,4.0,0.0
12123,38.0,0.0,120.0,5.0,0.0
12124,54.0,0.0,120.0,7.0,0.0
12125,66.0,60.0,120.0,4.0,0.0
12126,71.0,0.0,120.0,7.0,0.0
12127,38.0,0.0,120.0,6.0,0.0
12128,54.0,0.0,120.0,6.0,0.0
12129,50.0,0.0,120.0,3.0,0.0
12130,52.0,0.0,120.0,6.0,0.0
12131,85.0,0.0,60.0,1.0,0.0
12132,49.0,0.0,120.0,3.0,0.0
12133,37.0,0.0,120.0,5.0,0.0
12134,64.0,0.0,120.0,7.0,0.0
12135,37.0,120.0,120.0,6.0,0.0
12136,73.0,60.0,60.0,7.0,0.0
12137,52.0,0.0,120.0,7.0,0.0
12138,64.0,0.0,120.0,4.0,0.0
12139,69.0,0.0,120.0,4.0,0.0
12140,81.0,0.0,60.0,1.0,0.0
12141,69.0,0.0,60.0,7.0,0.0
12142,62.0,0.0,120.0,4.0,0.0
12143,68.0,0.0,120.0,4.0,0.0
12144,35.0,0.0,120.0,5.0,0.0
12145,50.0,0.0,120.0,7.0,0.0
12146,68.0,60.0,120.0,7.0,0.0
12147,47.0,0.0,120.0,3.0,0.0
12148,80.0,0.0,120.0,1.0,0.0
12149,62.0,0.0,120.0,7.0,0.0
12150,50.0,0.0,120.0,6.0,0.0
12151,35.0,0.0,120.0,6.0,0.0
12152,81.0,60.0,60.0,1.0,0.0
12153,61.0,0.0,120.0,7.0,0.0
12154,33.0,240.0,120.0,5.0,0.0
12155,61.0,0.0,120.0,4.0,0.0
12156,45.0,0.0,120.0,6.0,0.0
12157,49.0,0.0,120.0,6.0,0.0
12158,66.0,0.0,120.0,4.0,0.0
12159,45.0,0.0,120.0,3.0,0.0
12160,49.0,0.0,120.0,7.0,0.0
12161,69.0,0.0,60.0,7.0,0.0
12162,66.0,0.0,60.0,7.0,0.0
12163,78.0,0.0,60.0,1.0,0.0
12164,47.0,0.0,240.0,7.0,0.0
12165,44.0,0.0,240.0,6.0,0.0
12166,47.0,0.0,240.0,6.0,0.0
12167,64.0,0.0,240.0,7.0,0.0
12168,64.0,40.0,240.0,4.0,0.0
12169,59.0,40.0,480.0,4.0,0.0
12170,59.0,0.0,480.0,7.0,0.0
12171,76.0,0.0,240.0,1.0,0.0
12172,32.0,0.0,240.0,5.0,0.0
12173,44.0,0.0,240.0,3.0,0.0
12174,40.0,0.0,720.0,3.0,0.0
12175,56.0,0.0,240.0,7.0,0.0
12176,40.0,0.0,240.0,6.0,0.0
12177,56.0,0.0,240.0,6.0,0.0
12178,62.0,0.0,240.0,7.0,0.0
12179,83.0,40.0,40.0,0.0,0.0
12180,28.0,0.0,720.0,5.0,0.0
12181,74.0,0.0,240.0,1.0,0.0
12182,62.0,0.0,240.0,4.0,0.0
12183,85.0,40.0,40.0,0.0,0.0
12184,81.0,40.0,40.0,0.0,0.0
12185,80.0,40.0,40.0,0.0,0.0
12186,71.0,0.0,40.0,0.0,0.0
12187,81.0,40.0,40.0,0.0,0.0
12188,73.0,0.0,40.0,0.0,0.0
12189,69.0,0.0,40.0,0.0,0.0
12190,78.0,0.0,40.0,0.0,0.0
12191,68.0,0.0,40.0,0.0,0.0
12192,71.0,40.0,40.0,0.0,0.0
12193,76.0,0.0,40.0,0.0,0.0
12194,69.0,0.0,40.0,0.0,0.0
12195,78.0,0.0,40.0,0.0,0.0
12196,73.0,40.0,40.0,0.0,0.0
12197,74.0,0.0,40.0,0.0,0.0
12198,66.0,40.0,40.0,0.0,0.0
12199,69.0,0.0,40.0,0.0,0.0
12200,73.0,40.0,40.0,0.0,0.0
12201,64.0,0.0,40.0,0.0,0.0
12202,68.0,0.0,40.0,0.0,0.0
12203,66.0,0.0,40.0,0.0,0.0
12204,74.0,40.0,40.0,0.0,0.0
12205,69.0,0.0,40.0,0.0,0.0
12206,62.0,0.0,40.0,0.0,0.0
12207,66.0,40.0,40.0,0.0,0.0
12208,71.0,0.0,40.0,0.0,0.0
12209,62.0,0.0,40.0,0.0,0.0
12210,68.0,0.0,40.0,0.0,0.0
12211,59.0,40.0,40.0,0.0,0.0
12212,61.0,40.0,40.0,0.0,0.0
12213,69.0,0.0,40.0,0.0,0.0
12214,64.0,0.0,40.0,0.0,0.0
12215,61.0,0.0,40.0,0.0,0.0
12216,66.0,0.0,40.0,0.0,0.0
12217,57.0,40.0,15.0,0.0,0.0
12218,54.0,0.0,40.0,0.0,0.0
12219,63.0,40.0,40.0,0.0,0.0
12220,64.0,0.0,40.0,0.0,0.0
12221,59.0,40.0,40.0,0.0,0.0
12222,62.0,0.0,40.0,0.0,0.0
12223,56.0,0.0,15.0,0.0,0.0
12224,52.0,235.0,40.0,0.0,0.0
12225,57.0,40.0,240.0,7.0,0.0
12226,49.0,0.0,240.0,7.0,0.0
12227,41.0,0.0,240.0,3.0,0.0
12228,29.0,0.0,240.0,5.0,0.0
12229,61.0,0.0,240.0,7.0,0.0
12230,83.0,40.0,40.0,0.0,0.0
12231,59.0,0.0,240.0,7.0,0.0
12232,53.0,40.0,240.0,7.0,0.0
12233,37.0,0.0,600.0,3.0,0.0
12234,25.0,0.0,600.0,5.0,0.0
12235,56.0,0.0,240.0,7.0,0.0
12236,86.0,40.0,40.0,0.0,0.0
12237,81.0,40.0,40.0,0.0,0.0
12238,80.0,40.0,40.0,0.0,0.0
12239,71.0,0.0,40.0,0.0,0.0
12240,74.0,0.0,40.0,0.0,0.0
12241,83.0,40.0,40.0,0.0,0.0
12242,69.0,0.0,40.0,0.0,0.0
12243,78.0,0.0,40.0,0.0,0.0
12244,59.0,0.0,40.0,0.0,0.0
12245,68.0,0.0,40.0,0.0,0.0
12246,77.0,40.0,40.0,0.0,0.0
12247,80.0,0.0,40.0,0.0,0.0
12248,71.0,0.0,40.0,0.0,0.0
12249,62.0,40.0,40.0,0.0,0.0
12250,57.0,40.0,40.0,0.0,0.0
12251,66.0,0.0,40.0,0.0,0.0
12252,74.0,0.0,40.0,0.0,0.0
12253,78.0,0.0,40.0,0.0,0.0
12254,61.0,40.0,40.0,0.0,0.0
12255,69.0,0.0,40.0,0.0,0.0
12256,56.0,0.0,40.0,0.0,0.0
12257,64.0,0.0,40.0,0.0,0.0
12258,73.0,40.0,40.0,0.0,0.0
12259,49.0,0.0,40.0,0.0,0.0
12260,76.0,0.0,40.0,0.0,0.0
12261,68.0,40.0,40.0,0.0,0.0
12262,66.0,0.0,40.0,0.0,0.0
12263,74.0,40.0,40.0,0.0,0.0
12264,59.0,0.0,40.0,0.0,0.0
12265,71.0,0.0,40.0,0.0,0.0
12266,49.0,0.0,40.0,0.0,0.0
12267,62.0,40.0,40.0,0.0,0.0
12268,53.0,40.0,40.0,0.0,0.0
12269,68.0,0.0,40.0,0.0,0.0
12270,69.0,0.0,40.0,0.0,0.0
12271,37.0,40.0,40.0,0.0,0.0
12272,60.0,0.0,40.0,0.0,0.0
12273,48.0,40.0,40.0,0.0,0.0
12274,57.0,0.0,40.0,0.0,0.0
12275,66.0,0.0,40.0,0.0,0.0
12276,63.0,0.0,40.0,0.0,0.0
12277,54.0,40.0,40.0,0.0,0.0
12278,37.0,0.0,40.0,0.0,0.0
12279,47.0,0.0,40.0,0.0,0.0
12280,53.0,0.0,40.0,0.0,0.0
12281,62.0,40.0,40.0,0.0,0.0
12282,59.0,0.0,40.0,0.0,0.0
12283,50.0,0.0,40.0,0.0,0.0
12284,37.0,40.0,40.0,0.0,0.0
12285,47.0,40.0,40.0,0.0,0.0
12286,41.0,0.0,40.0,0.0,0.0
12287,56.0,0.0,40.0,0.0,0.0
12288,48.0,40.0,40.0,0.0,0.0
12289,57.0,0.0,40.0,0.0,0.0
12290,25.0,0.0,40.0,0.0,0.0
12291,54.0,0.0,40.0,0.0,0.0
12292,45.0,0.0,40.0,0.0,0.0
12293,36.0,40.0,40.0,0.0,0.0
12294,25.0,0.0,40.0,0.0,0.0
12295,51.0,0.0,40.0,0.0,0.0
12296,42.0,60.0,40.0,0.0,0.0
12297,37.0,0.0,120.0,0.0,0.0
12298,49.0,0.0,60.0,12.0,0.0
12299,45.0,60.0,120.0,0.0,0.0
12300,49.0,0.0,120.0,0.0,0.0
12301,61.0,60.0,15.0,12.0,0.0
12302,49.0,0.0,120.0,12.0,0.0
12303,66.0,0.0,120.0,4.0,0.0
12304,78.0,0.0,120.0,2.0,0.0
12305,57.0,0.0,120.0,8.0,0.0
12306,69.0,60.0,120.0,2.0,0.0
12307,78.0,0.0,120.0,1.0,0.0
12308,79.0,0.0,120.0,1.0,0.0
12309,70.0,0.0,120.0,2.0,0.0
12310,67.0,0.0,120.0,4.0,0.0
12311,58.0,0.0,120.0,8.0,0.0
12312,79.0,60.0,120.0,2.0,0.0
12313,61.0,60.0,15.0,12.0,0.0
12314,49.0,0.0,15.0,12.0,0.0
12315,80.0,0.0,120.0,2.0,0.0
12316,59.0,0.0,120.0,8.0,0.0
12317,80.0,0.0,120.0,1.0,0.0
12318,71.0,0.0,120.0,2.0,0.0
12319,68.0,60.0,120.0,4.0,0.0
12320,61.0,0.0,15.0,12.0,0.0
12321,81.0,0.0,120.0,2.0,0.0
12322,72.0,0.0,120.0,2.0,0.0
12323,69.0,60.0,120.0,4.0,0.0
12324,60.0,0.0,120.0,8.0,0.0
12325,81.0,0.0,120.0,1.0,0.0
12326,61.0,0.0,120.0,12.0,0.0
12327,49.0,60.0,15.0,12.0,0.0
12328,49.0,20.0,60.0,0.0,0.0
12329,73.0,0.0,120.0,2.0,0.0
12330,78.0,0.0,120.0,2.0,0.0
12331,66.0,0.0,120.0,4.0,0.0
12332,54.0,0.0,120.0,7.0,0.0
12333,45.0,0.0,120.0,7.0,0.0
12334,78.0,0.0,120.0,1.0,0.0
12335,61.0,0.0,120.0,8.0,0.0
12336,37.0,40.0,40.0,0.0,0.0
12337,49.0,0.0,60.0,12.0,0.0
12338,61.0,0.0,60.0,12.0,0.0
12339,37.0,40.0,60.0,11.0,0.0
12340,54.0,0.0,60.0,0.0,0.0
12341,45.0,0.0,40.0,0.0,0.0
12342,55.0,0.0,120.0,7.0,0.0
12343,46.0,0.0,120.0,7.0,0.0
12344,49.0,20.0,40.0,0.0,0.0
12345,55.0,20.0,60.0,0.0,0.0
12346,46.0,40.0,40.0,0.0,0.0
12347,37.0,0.0,60.0,11.0,0.0
12348,63.0,40.0,60.0,0.0,0.0
12349,58.0,0.0,40.0,0.0,0.0
12350,56.0,0.0,120.0,7.0,0.0
12351,47.0,40.0,120.0,7.0,0.0
12352,56.0,20.0,40.0,0.0,0.0
12353,61.0,20.0,60.0,0.0,0.0
12354,49.0,40.0,40.0,0.0,0.0
12355,68.0,0.0,60.0,0.0,0.0
12356,37.0,0.0,60.0,11.0,0.0
12357,59.0,0.0,40.0,0.0,0.0
12358,57.0,60.0,120.0,7.0,0.0
12359,69.0,20.0,60.0,0.0,0.0
12360,61.0,20.0,40.0,0.0,0.0
12361,48.0,0.0,120.0,7.0,0.0
12362,60.0,40.0,40.0,0.0,0.0
12363,75.0,0.0,60.0,0.0,0.0
12364,37.0,0.0,60.0,11.0,0.0
12365,72.0,0.0,40.0,0.0,0.0
12366,58.0,40.0,120.0,7.0,0.0
12367,55.0,0.0,120.0,7.0,0.0
12368,73.0,20.0,60.0,0.0,0.0
12369,49.0,0.0,120.0,7.0,0.0
12370,61.0,40.0,40.0,0.0,0.0
12371,78.0,0.0,60.0,0.0,0.0
12372,37.0,0.0,60.0,11.0,0.0
12373,82.0,0.0,60.0,0.0,0.0
12374,73.0,0.0,40.0,0.0,0.0
12375,70.0,0.0,40.0,0.0,0.0
12376,56.0,0.0,240.0,7.0,0.0
12377,25.0,0.0,60.0,5.0,0.0
12378,37.0,20.0,60.0,3.0,0.0
12379,68.0,0.0,40.0,0.0,0.0
12380,71.0,0.0,40.0,0.0,0.0
12381,83.0,0.0,40.0,0.0,0.0
12382,59.0,20.0,180.0,7.0,0.0
12383,80.0,20.0,40.0,0.0,0.0
12384,49.0,0.0,15.0,7.0,0.0
12385,65.0,0.0,40.0,0.0,0.0
12386,68.0,0.0,40.0,0.0,0.0
12387,80.0,0.0,40.0,0.0,0.0
12388,65.0,0.0,40.0,0.0,0.0
12389,59.0,0.0,40.0,0.0,0.0
12390,71.0,0.0,40.0,0.0,0.0
12391,77.0,0.0,15.0,0.0,0.0
12392,56.0,0.0,40.0,0.0,0.0
12393,49.0,40.0,15.0,7.0,0.0
12394,71.0,0.0,40.0,0.0,0.0
12395,68.0,0.0,40.0,0.0,0.0
12396,59.0,0.0,40.0,0.0,0.0
12397,65.0,0.0,40.0,0.0,0.0
12398,56.0,0.0,40.0,0.0,0.0
12399,68.0,0.0,40.0,0.0,0.0
12400,49.0,20.0,15.0,7.0,0.0
12401,53.0,5.0,60.0,7.0,0.0
12402,59.0,0.0,40.0,0.0,0.0
12403,53.0,35.0,15.0,0.0,0.0
12404,47.0,35.0,40.0,0.0,0.0
12405,65.0,0.0,40.0,0.0,0.0
12406,49.0,5.0,15.0,7.0,0.0
12407,37.0,0.0,30.0,3.0,0.0
12408,25.0,0.0,30.0,5.0,0.0
12409,45.0,20.0,60.0,6.0,0.0
12410,54.0,0.0,60.0,6.0,0.0
12411,57.0,0.0,60.0,4.0,0.0
12412,57.0,0.0,60.0,0.0,0.0
12413,54.0,0.0,60.0,0.0,0.0
12414,66.0,0.0,60.0,0.0,0.0
12415,50.0,0.0,60.0,4.0,0.0
12416,45.0,0.0,60.0,0.0,0.0
12417,26.0,0.0,60.0,5.0,0.0
12418,38.0,0.0,40.0,3.0,0.0
12419,62.0,0.0,60.0,2.0,0.0
12420,54.0,0.0,60.0,7.0,0.0
12421,66.0,0.0,60.0,2.0,0.0
12422,50.0,20.0,15.0,7.0,0.0
12423,38.0,0.0,40.0,3.0,0.0
12424,38.0,0.0,40.0,3.0,0.0
12425,50.0,40.0,15.0,7.0,0.0
12426,38.0,40.0,15.0,3.0,0.0
12427,50.0,40.0,15.0,7.0,0.0
12428,38.0,0.0,40.0,3.0,0.0
12429,54.0,0.0,30.0,6.0,0.0
12430,45.0,0.0,30.0,6.0,0.0
12431,57.0,0.0,30.0,4.0,0.0
12432,50.0,0.0,30.0,4.0,0.0
12433,66.0,0.0,30.0,2.0,0.0
12434,62.0,0.0,30.0,2.0,0.0
12435,55.0,0.0,180.0,6.0,0.0
12436,47.0,0.0,180.0,6.0,0.0
12437,62.0,0.0,360.0,2.0,0.0
12438,67.0,0.0,180.0,2.0,0.0
12439,59.0,20.0,180.0,4.0,0.0
12440,50.0,40.0,40.0,7.0,0.0
12441,50.0,0.0,360.0,4.0,0.0
12442,38.0,0.0,15.0,3.0,0.0
12443,50.0,40.0,15.0,7.0,0.0
12444,38.0,40.0,15.0,3.0,0.0
12445,50.0,0.0,15.0,7.0,0.0
12446,50.0,0.0,40.0,7.0,0.0
12447,38.0,20.0,15.0,3.0,0.0
12448,45.0,0.0,60.0,6.0,0.0
12449,54.0,0.0,60.0,6.0,0.0
12450,66.0,0.0,60.0,2.0,0.0
12451,57.0,0.0,60.0,4.0,0.0
12452,50.0,0.0,40.0,7.0,0.0
12453,38.0,40.0,15.0,3.0,0.0
12454,71.0,0.0,60.0,2.0,0.0
12455,43.0,0.0,60.0,6.0,0.0
12456,55.0,0.0,60.0,6.0,0.0
12457,59.0,20.0,60.0,4.0,0.0
12458,50.0,20.0,15.0,7.0,0.0
12459,38.0,0.0,15.0,3.0,0.0
12460,54.0,0.0,60.0,6.0,0.0
12461,42.0,0.0,60.0,6.0,0.0
12462,57.0,0.0,60.0,4.0,0.0
12463,69.0,0.0,60.0,2.0,0.0
12464,38.0,0.0,15.0,3.0,0.0
12465,38.0,0.0,15.0,3.0,0.0
12466,61.0,0.0,60.0,2.0,0.0
12467,55.0,0.0,60.0,4.0,0.0
12468,52.0,0.0,60.0,6.0,0.0
12469,50.0,40.0,15.0,7.0,0.0
12470,40.0,20.0,60.0,6.0,0.0
12471,38.0,0.0,15.0,3.0,0.0
12472,50.0,0.0,40.0,7.0,0.0
12473,54.0,0.0,60.0,4.0,0.0
12474,62.0,0.0,60.0,2.0,0.0
12475,50.0,40.0,60.0,6.0,0.0
12476,38.0,0.0,60.0,6.0,0.0
12477,38.0,0.0,40.0,3.0,0.0
12478,50.0,0.0,40.0,7.0,0.0
12479,64.0,0.0,120.0,2.0,0.0
12480,57.0,0.0,120.0,4.0,0.0
12481,49.0,40.0,120.0,6.0,0.0
12482,45.0,0.0,120.0,6.0,0.0
12483,57.0,20.0,40.0,7.0,0.0
12484,45.0,0.0,60.0,3.0,0.0
12485,33.0,20.0,60.0,5.0,0.0
12486,57.0,40.0,40.0,7.0,0.0
12487,57.0,0.0,40.0,7.0,0.0
12488,57.0,40.0,40.0,7.0,0.0
12489,57.0,40.0,15.0,7.0,0.0
12490,45.0,0.0,30.0,3.0,0.0
12491,33.0,40.0,30.0,5.0,0.0
12492,59.0,0.0,60.0,7.0,0.0
12493,65.0,0.0,60.0,7.0,0.0
12494,37.0,0.0,40.0,8.0,0.0
12495,56.0,0.0,60.0,7.0,0.0
12496,37.0,20.0,60.0,5.0,0.0
12497,49.0,0.0,60.0,3.0,0.0
12498,49.0,20.0,15.0,8.0,0.0
12499,37.0,40.0,40.0,8.0,0.0
12500,49.0,0.0,40.0,8.0,0.0
12501,37.0,40.0,15.0,8.0,0.0
12502,49.0,0.0,40.0,8.0,0.0
12503,49.0,0.0,40.0,8.0,0.0
12504,37.0,40.0,15.0,8.0,0.0
12505,65.0,0.0,30.0,7.0,0.0
12506,56.0,0.0,30.0,7.0,0.0
12507,59.0,0.0,15.0,7.0,0.0
12508,49.0,0.0,15.0,8.0,0.0
12509,37.0,40.0,15.0,8.0,0.0
12510,68.0,20.0,180.0,7.0,0.0
12511,65.0,0.0,180.0,7.0,0.0
12512,49.0,0.0,15.0,8.0,0.0
12513,37.0,40.0,15.0,8.0,0.0
12514,49.0,40.0,40.0,8.0,0.0
12515,37.0,0.0,15.0,8.0,0.0
12516,49.0,20.0,15.0,8.0,0.0
12517,37.0,40.0,40.0,8.0,0.0
12518,59.0,0.0,15.0,7.0,0.0
12519,65.0,0.0,60.0,7.0,0.0
12520,56.0,40.0,60.0,7.0,0.0
12521,37.0,0.0,40.0,8.0,0.0
12522,65.0,0.0,60.0,7.0,0.0
12523,37.0,0.0,40.0,8.0,0.0
12524,49.0,0.0,15.0,8.0,0.0
12525,59.0,0.0,60.0,7.0,0.0
12526,68.0,20.0,60.0,7.0,0.0
12527,37.0,0.0,40.0,8.0,0.0
12528,49.0,20.0,15.0,8.0,0.0
12529,66.0,0.0,60.0,7.0,0.0
12530,58.0,0.0,60.0,7.0,0.0
12531,61.0,0.0,15.0,7.0,0.0
12532,57.0,0.0,60.0,7.0,0.0
12533,49.0,40.0,15.0,8.0,0.0
12534,37.0,0.0,15.0,8.0,0.0
12535,61.0,0.0,60.0,7.0,0.0
12536,37.0,40.0,40.0,8.0,0.0
12537,49.0,20.0,15.0,8.0,0.0
12538,54.0,40.0,60.0,7.0,0.0
12539,57.0,0.0,60.0,7.0,0.0
12540,63.0,0.0,60.0,7.0,0.0
12541,49.0,0.0,40.0,8.0,0.0
12542,65.0,0.0,120.0,7.0,0.0
12543,49.0,0.0,60.0,8.0,0.0
12544,37.0,0.0,15.0,8.0,0.0
12545,56.0,40.0,120.0,7.0,0.0
12546,49.0,0.0,60.0,3.0,0.0
12547,37.0,0.0,60.0,5.0,0.0
12548,61.0,20.0,40.0,7.0,0.0
12549,61.0,40.0,40.0,7.0,0.0
12550,61.0,0.0,40.0,7.0,0.0
12551,61.0,40.0,15.0,7.0,0.0
12552,61.0,40.0,15.0,7.0,0.0
12553,49.0,0.0,30.0,3.0,0.0
12554,37.0,0.0,30.0,5.0,0.0
12555,74.0,0.0,60.0,2.0,0.0
12556,62.0,0.0,60.0,2.0,0.0
12557,38.0,0.0,60.0,5.0,0.0
12558,57.0,20.0,60.0,6.0,0.0
12559,66.0,0.0,60.0,4.0,0.0
12560,50.0,0.0,40.0,3.0,0.0
12561,78.0,0.0,60.0,1.0,0.0
12562,62.0,20.0,15.0,7.0,0.0
12563,50.0,0.0,40.0,3.0,0.0
12564,62.0,40.0,15.0,7.0,0.0
12565,62.0,0.0,15.0,7.0,0.0
12566,50.0,40.0,15.0,3.0,0.0
12567,50.0,40.0,15.0,3.0,0.0
12568,50.0,0.0,15.0,3.0,0.0
12569,62.0,40.0,15.0,7.0,0.0
12570,66.0,40.0,30.0,4.0,0.0
12571,62.0,0.0,30.0,2.0,0.0
12572,74.0,0.0,30.0,2.0,0.0
12573,57.0,0.0,30.0,6.0,0.0
12574,78.0,0.0,30.0,1.0,0.0
12575,59.0,0.0,360.0,6.0,0.0
12576,62.0,0.0,360.0,2.0,0.0
12577,74.0,0.0,360.0,2.0,0.0
12578,79.0,0.0,360.0,1.0,0.0
12579,50.0,0.0,15.0,3.0,0.0
12580,62.0,40.0,15.0,7.0,0.0
12581,50.0,40.0,15.0,3.0,0.0
12582,62.0,0.0,15.0,7.0,0.0
12583,62.0,40.0,15.0,7.0,0.0
12584,50.0,40.0,15.0,3.0,0.0
12585,62.0,0.0,40.0,7.0,0.0
12586,78.0,0.0,60.0,1.0,0.0
12587,57.0,0.0,60.0,6.0,0.0
12588,66.0,40.0,60.0,4.0,0.0
12589,62.0,0.0,40.0,7.0,0.0
12590,50.0,0.0,40.0,3.0,0.0
12591,83.0,0.0,60.0,1.0,0.0
12592,55.0,20.0,60.0,6.0,0.0
12593,62.0,20.0,40.0,7.0,0.0
12594,71.0,0.0,60.0,4.0,0.0
12595,50.0,0.0,15.0,3.0,0.0
12596,69.0,0.0,60.0,4.0,0.0
12597,81.0,40.0,60.0,1.0,0.0
12598,54.0,0.0,60.0,6.0,0.0
12599,62.0,0.0,15.0,7.0,0.0
12600,52.0,0.0,60.0,6.0,0.0
12601,73.0,20.0,60.0,2.0,0.0
12602,73.0,0.0,60.0,1.0,0.0
12603,50.0,0.0,15.0,3.0,0.0
12604,67.0,0.0,15.0,4.0,0.0
12605,62.0,0.0,15.0,7.0,0.0
12606,50.0,20.0,15.0,3.0,0.0
12607,74.0,0.0,60.0,1.0,0.0
12608,66.0,40.0,60.0,4.0,0.0
12609,50.0,0.0,60.0,6.0,0.0
12610,74.0,0.0,60.0,2.0,0.0
12611,62.0,0.0,15.0,7.0,0.0
12612,50.0,0.0,40.0,3.0,0.0
12613,45.0,20.0,40.0,8.0,0.0
12614,69.0,0.0,15.0,2.0,0.0
12615,57.0,40.0,120.0,6.0,0.0
12616,64.0,0.0,120.0,4.0,0.0
12617,76.0,0.0,120.0,2.0,0.0
12618,76.0,0.0,120.0,1.0,0.0
12619,33.0,0.0,60.0,5.0,0.0
12620,61.0,0.0,120.0,7.0,0.0
12621,45.0,20.0,60.0,3.0,0.0
12622,57.0,0.0,15.0,8.0,0.0
12623,45.0,0.0,40.0,8.0,0.0
12624,45.0,0.0,40.0,8.0,0.0
12625,57.0,0.0,15.0,8.0,0.0
12626,45.0,40.0,40.0,8.0,0.0
12627,45.0,40.0,40.0,8.0,0.0
12628,57.0,0.0,40.0,8.0,0.0
12629,45.0,40.0,40.0,8.0,0.0
12630,57.0,0.0,40.0,8.0,0.0
12631,45.0,0.0,30.0,3.0,0.0
12632,33.0,0.0,30.0,5.0,0.0
12633,64.0,0.0,60.0,7.0,0.0
12634,34.0,0.0,60.0,5.0,0.0
12635,58.0,0.0,40.0,8.0,0.0
12636,56.0,20.0,60.0,7.0,0.0
12637,62.0,0.0,60.0,7.0,0.0
12638,46.0,0.0,60.0,3.0,0.0
12639,46.0,20.0,40.0,8.0,0.0
12640,46.0,0.0,40.0,8.0,0.0
12641,58.0,40.0,40.0,8.0,0.0
12642,58.0,40.0,15.0,8.0,0.0
12643,46.0,0.0,15.0,8.0,0.0
12644,58.0,0.0,15.0,8.0,0.0
12645,58.0,0.0,40.0,8.0,0.0
12646,46.0,40.0,15.0,8.0,0.0
12647,64.0,0.0,30.0,7.0,0.0
12648,46.0,0.0,15.0,8.0,0.0
12649,56.0,0.0,15.0,7.0,0.0
12650,65.0,0.0,180.0,7.0,0.0
12651,58.0,0.0,40.0,8.0,0.0
12652,62.0,40.0,15.0,7.0,0.0
12653,46.0,0.0,40.0,8.0,0.0
12654,58.0,40.0,15.0,8.0,0.0
12655,46.0,40.0,40.0,8.0,0.0
12656,46.0,0.0,40.0,8.0,0.0
12657,58.0,20.0,15.0,8.0,0.0
12658,46.0,40.0,40.0,8.0,0.0
12659,62.0,0.0,15.0,7.0,0.0
12660,53.0,0.0,60.0,7.0,0.0
12661,56.0,0.0,60.0,7.0,0.0
12662,58.0,0.0,40.0,8.0,0.0
12663,65.0,0.0,60.0,7.0,0.0
12664,62.0,0.0,60.0,7.0,0.0
12665,56.0,20.0,60.0,7.0,0.0
12666,46.0,40.0,15.0,8.0,0.0
12667,58.0,20.0,15.0,8.0,0.0
12668,46.0,40.0,40.0,8.0,0.0
12669,63.0,0.0,60.0,7.0,0.0
12670,55.0,0.0,60.0,7.0,0.0
12671,58.0,0.0,15.0,7.0,0.0
12672,54.0,0.0,60.0,7.0,0.0
12673,58.0,0.0,60.0,7.0,0.0
12674,58.0,40.0,15.0,8.0,0.0
12675,46.0,0.0,15.0,8.0,0.0
12676,60.0,0.0,60.0,7.0,0.0
12677,51.0,0.0,60.0,7.0,0.0
12678,54.0,40.0,60.0,7.0,0.0
12679,58.0,40.0,15.0,8.0,0.0
12680,46.0,0.0,15.0,8.0,0.0
12681,46.0,0.0,15.0,8.0,0.0
12682,58.0,0.0,15.0,8.0,0.0
12683,53.0,0.0,120.0,7.0,0.0
12684,46.0,20.0,40.0,7.0,0.0
12685,62.0,0.0,120.0,7.0,0.0
12686,34.0,20.0,60.0,5.0,0.0
12687,46.0,0.0,60.0,3.0,0.0
12688,46.0,40.0,40.0,7.0,0.0
12689,53.0,0.0,30.0,0.0,0.0
12690,56.0,0.0,30.0,0.0,0.0
12691,62.0,0.0,30.0,0.0,0.0
12692,65.0,0.0,30.0,0.0,0.0
12693,74.0,0.0,30.0,0.0,0.0
12694,68.0,40.0,30.0,0.0,0.0
12695,46.0,0.0,15.0,7.0,0.0
12696,62.0,0.0,180.0,0.0,0.0
12697,65.0,20.0,180.0,0.0,0.0
12698,68.0,0.0,180.0,0.0,0.0
12699,74.0,0.0,180.0,0.0,0.0
12700,77.0,0.0,180.0,0.0,0.0
12701,56.0,0.0,180.0,0.0,0.0
12702,46.0,40.0,15.0,7.0,0.0
12703,46.0,40.0,15.0,7.0,0.0
12704,46.0,0.0,30.0,3.0,0.0
12705,34.0,40.0,30.0,5.0,0.0
12706,47.0,0.0,40.0,3.0,0.0
12707,35.0,0.0,60.0,5.0,0.0
12708,47.0,20.0,40.0,7.0,0.0
12709,47.0,0.0,40.0,3.0,0.0
12710,53.0,0.0,60.0,0.0,0.0
12711,47.0,40.0,15.0,7.0,0.0
12712,56.0,40.0,15.0,0.0,0.0
12713,62.0,0.0,15.0,0.0,0.0
12714,65.0,0.0,15.0,0.0,0.0
12715,68.0,0.0,15.0,0.0,0.0
12716,74.0,0.0,15.0,0.0,0.0
12717,47.0,0.0,15.0,3.0,0.0
12718,47.0,0.0,15.0,7.0,0.0
12719,77.0,20.0,60.0,0.0,0.0
12720,47.0,0.0,15.0,7.0,0.0
12721,47.0,20.0,15.0,3.0,0.0
12722,66.0,0.0,60.0,0.0,0.0
12723,54.0,40.0,60.0,0.0,0.0
12724,75.0,0.0,60.0,0.0,0.0
12725,63.0,0.0,60.0,0.0,0.0
12726,47.0,40.0,15.0,7.0,0.0
12727,47.0,0.0,40.0,3.0,0.0
12728,73.0,0.0,60.0,0.0,0.0
12729,70.0,0.0,60.0,0.0,0.0
12730,67.0,0.0,60.0,0.0,0.0
12731,64.0,20.0,60.0,0.0,0.0
12732,61.0,0.0,60.0,0.0,0.0
12733,58.0,0.0,60.0,0.0,0.0
12734,55.0,0.0,60.0,0.0,0.0
12735,52.0,0.0,60.0,0.0,0.0
12736,47.0,0.0,60.0,7.0,0.0
12737,47.0,20.0,15.0,3.0,0.0
12738,71.0,0.0,60.0,0.0,0.0
12739,68.0,0.0,60.0,0.0,0.0
12740,63.0,0.0,60.0,0.0,0.0
12741,59.0,0.0,60.0,0.0,0.0
12742,56.0,0.0,60.0,0.0,0.0
12743,51.0,0.0,60.0,0.0,0.0
12744,47.0,40.0,15.0,3.0,0.0
12745,70.0,0.0,60.0,0.0,0.0
12746,67.0,0.0,60.0,0.0,0.0
12747,64.0,20.0,60.0,0.0,0.0
12748,61.0,0.0,60.0,0.0,0.0
12749,58.0,0.0,60.0,0.0,0.0
12750,52.0,0.0,60.0,0.0,0.0
12751,55.0,0.0,60.0,0.0,0.0
12752,49.0,0.0,60.0,0.0,0.0
12753,47.0,40.0,40.0,3.0,0.0
12754,51.0,0.0,60.0,0.0,0.0
12755,59.0,0.0,60.0,0.0,0.0
12756,63.0,0.0,60.0,0.0,0.0
12757,68.0,0.0,60.0,0.0,0.0
12758,71.0,0.0,60.0,0.0,0.0
12759,56.0,0.0,60.0,0.0,0.0
12760,47.0,40.0,15.0,3.0,0.0
12761,70.0,0.0,60.0,0.0,0.0
12762,67.0,0.0,60.0,0.0,0.0
12763,64.0,0.0,60.0,0.0,0.0
12764,58.0,0.0,60.0,0.0,0.0
12765,61.0,0.0,60.0,0.0,0.0
12766,55.0,0.0,60.0,0.0,0.0
12767,52.0,20.0,60.0,0.0,0.0
12768,49.0,0.0,60.0,0.0,0.0
12769,47.0,40.0,40.0,3.0,0.0
12770,56.0,0.0,60.0,0.0,0.0
12771,68.0,40.0,60.0,0.0,0.0
12772,59.0,0.0,60.0,0.0,0.0
12773,51.0,0.0,60.0,0.0,0.0
12774,63.0,0.0,60.0,0.0,0.0
12775,47.0,0.0,60.0,0.0,0.0
12776,47.0,0.0,40.0,3.0,0.0
12777,47.0,20.0,40.0,3.0,0.0
12778,67.0,0.0,60.0,0.0,0.0
12779,64.0,0.0,60.0,0.0,0.0
12780,58.0,0.0,60.0,0.0,0.0
12781,55.0,0.0,60.0,0.0,0.0
12782,52.0,0.0,60.0,0.0,0.0
12783,49.0,20.0,60.0,0.0,0.0
12784,46.0,0.0,60.0,0.0,0.0
12785,61.0,0.0,60.0,0.0,0.0
12786,68.0,0.0,60.0,0.0,0.0
12787,59.0,60.0,60.0,0.0,0.0
12788,47.0,0.0,60.0,0.0,0.0
12789,51.0,0.0,60.0,0.0,0.0
12790,56.0,0.0,60.0,0.0,0.0
12791,63.0,0.0,60.0,0.0,0.0
12792,47.0,40.0,15.0,3.0,0.0
12793,57.0,0.0,60.0,0.0,0.0
12794,36.0,0.0,60.0,11.0,0.0
12795,45.0,0.0,60.0,0.0,0.0
12796,48.0,60.0,60.0,3.0,0.0
12797,51.0,0.0,60.0,0.0,0.0
12798,63.0,0.0,60.0,0.0,0.0
12799,54.0,0.0,60.0,0.0,0.0
12800,66.0,0.0,60.0,0.0,0.0
12801,56.0,0.0,30.0,7.0,0.0
12802,65.0,0.0,30.0,7.0,0.0
12803,59.0,17.0,30.0,7.0,0.0
12804,68.0,4.0,180.0,7.0,0.0
12805,49.0,1.0,60.0,3.0,0.0
12806,37.0,17.0,15.0,0.0,0.0
12807,37.0,8.0,60.0,11.0,0.0
12808,44.0,17.0,15.0,0.0,0.0
12809,49.0,8.0,15.0,0.0,0.0
12810,53.0,17.0,15.0,0.0,0.0
12811,59.0,17.0,15.0,0.0,0.0
12812,65.0,17.0,15.0,0.0,0.0
12813,68.0,41.0,15.0,0.0,0.0
12814,80.0,16.0,40.0,0.0,0.0
12815,65.0,21.0,15.0,7.0,0.0
12816,59.0,0.0,15.0,7.0,0.0
12817,56.0,40.0,60.0,7.0,0.0
12818,53.0,13.0,15.0,0.0,0.0
12819,56.0,0.0,15.0,0.0,0.0
12820,49.0,0.0,15.0,0.0,0.0
12821,59.0,13.0,15.0,0.0,0.0
12822,65.0,12.0,15.0,0.0,0.0
12823,44.0,0.0,15.0,0.0,0.0
12824,49.0,0.0,15.0,0.0,0.0
12825,70.0,0.0,15.0,0.0,0.0
12826,64.0,3.0,120.0,7.0,0.0
12827,55.0,1.0,60.0,7.0,0.0
12828,70.0,23.0,60.0,7.0,0.0
12829,37.0,17.0,40.0,0.0,0.0
12830,82.0,0.0,40.0,0.0,0.0
12831,67.0,1.0,60.0,7.0,0.0
12832,58.0,40.0,60.0,7.0,0.0
12833,55.0,13.0,15.0,0.0,0.0
12834,58.0,0.0,15.0,0.0,0.0
12835,61.0,0.0,15.0,0.0,0.0
12836,52.0,13.0,15.0,0.0,0.0
12837,67.0,0.0,15.0,0.0,0.0
12838,46.0,9.0,15.0,0.0,0.0
12839,49.0,0.0,15.0,0.0,0.0
12840,68.0,0.0,15.0,0.0,0.0
12841,37.0,0.0,60.0,11.0,0.0
12842,37.0,0.0,40.0,0.0,0.0
12843,59.0,0.0,60.0,7.0,0.0
12844,80.0,20.0,40.0,0.0,0.0
12845,65.0,60.0,60.0,7.0,0.0
12846,68.0,0.0,60.0,7.0,0.0
12847,56.0,0.0,30.0,7.0,0.0
12848,59.0,0.0,30.0,7.0,0.0
12849,68.0,4.0,180.0,7.0,0.0
12850,49.0,17.0,15.0,0.0,0.0
12851,65.0,17.0,15.0,7.0,0.0
12852,59.0,0.0,180.0,7.0,0.0
12853,56.0,17.0,15.0,0.0,0.0
12854,61.0,17.0,15.0,0.0,0.0
12855,65.0,17.0,15.0,0.0,0.0
12856,71.0,17.0,15.0,0.0,0.0
12857,77.0,17.0,15.0,0.0,0.0
12858,80.0,41.0,15.0,0.0,0.0
12859,92.0,16.0,40.0,0.0,0.0
12860,65.0,21.0,15.0,7.0,0.0
12861,56.0,0.0,60.0,7.0,0.0
12862,59.0,0.0,60.0,7.0,0.0
12863,65.0,13.0,15.0,0.0,0.0
12864,68.0,0.0,15.0,0.0,0.0
12865,61.0,13.0,15.0,0.0,0.0
12866,71.0,0.0,15.0,0.0,0.0
12867,56.0,0.0,15.0,0.0,0.0
12868,77.0,12.0,15.0,0.0,0.0
12869,49.0,0.0,15.0,0.0,0.0
12870,82.0,40.0,15.0,0.0,0.0
12871,64.0,3.0,120.0,7.0,0.0
12872,55.0,1.0,60.0,7.0,0.0
12873,70.0,23.0,60.0,7.0,0.0
12874,94.0,17.0,40.0,0.0,0.0
12875,37.0,0.0,40.0,0.0,0.0
12876,67.0,1.0,60.0,7.0,0.0
12877,58.0,40.0,60.0,7.0,0.0
12878,70.0,0.0,15.0,0.0,0.0
12879,67.0,13.0,15.0,0.0,0.0
12880,73.0,13.0,15.0,0.0,0.0
12881,64.0,0.0,15.0,0.0,0.0
12882,79.0,0.0,15.0,0.0,0.0
12883,58.0,9.0,15.0,0.0,0.0
12884,80.0,0.0,15.0,0.0,0.0
12885,49.0,0.0,15.0,0.0,0.0
12886,59.0,21.0,60.0,7.0,0.0
12887,37.0,0.0,40.0,0.0,0.0
12888,65.0,0.0,60.0,7.0,0.0
12889,92.0,20.0,40.0,0.0,0.0
12890,68.0,0.0,60.0,7.0,0.0
12891,37.0,0.0,60.0,11.0,0.0
12892,56.0,0.0,15.0,0.0,0.0
12893,53.0,13.0,15.0,0.0,0.0
12894,49.0,13.0,15.0,0.0,0.0
12895,59.0,0.0,15.0,0.0,0.0
12896,56.0,2.0,30.0,7.0,0.0
12897,59.0,2.0,30.0,7.0,0.0
12898,44.0,13.0,15.0,0.0,0.0
12899,65.0,0.0,15.0,0.0,0.0
12900,65.0,35.0,30.0,7.0,0.0
12901,70.0,0.0,15.0,0.0,0.0
12902,49.0,1.0,15.0,0.0,0.0
12903,52.0,0.0,60.0,7.0,0.0
12904,70.0,4.0,60.0,7.0,0.0
12905,37.0,19.0,40.0,0.0,0.0
12906,82.0,0.0,40.0,0.0,0.0
12907,55.0,18.0,60.0,7.0,0.0
12908,58.0,0.0,15.0,0.0,0.0
12909,55.0,13.0,15.0,0.0,0.0
12910,61.0,0.0,15.0,0.0,0.0
12911,52.0,13.0,15.0,0.0,0.0
12912,52.0,0.0,30.0,7.0,0.0
12913,46.0,13.0,15.0,0.0,0.0
12914,67.0,0.0,15.0,0.0,0.0
12915,58.0,2.0,30.0,7.0,0.0
12916,67.0,33.0,30.0,7.0,0.0
12917,49.0,0.0,15.0,0.0,0.0
12918,68.0,5.0,15.0,0.0,0.0
12919,49.0,6.0,60.0,11.0,0.0
12920,59.0,1.0,60.0,7.0,0.0
12921,37.0,13.0,40.0,0.0,0.0
12922,80.0,0.0,40.0,0.0,0.0
12923,53.0,1.0,60.0,7.0,0.0
12924,68.0,20.0,60.0,7.0,0.0
12925,58.0,13.0,15.0,0.0,0.0
12926,55.0,0.0,15.0,0.0,0.0
12927,61.0,0.0,15.0,0.0,0.0
12928,52.0,13.0,15.0,0.0,0.0
12929,67.0,1.0,30.0,4.0,0.0
12930,46.0,12.0,15.0,0.0,0.0
12931,67.0,0.0,15.0,0.0,0.0
12932,49.0,40.0,15.0,0.0,0.0
12933,68.0,0.0,15.0,0.0,0.0
12934,59.0,0.0,60.0,11.0,0.0
12935,68.0,2.0,60.0,4.0,0.0
12936,80.0,0.0,40.0,0.0,0.0
12937,37.0,18.0,40.0,0.0,0.0
12938,53.0,1.0,60.0,11.0,0.0
12939,68.0,20.0,60.0,11.0,0.0
12940,60.0,13.0,15.0,0.0,0.0
12941,57.0,0.0,15.0,0.0,0.0
12942,63.0,0.0,15.0,0.0,0.0
12943,54.0,13.0,15.0,0.0,0.0
12944,48.0,0.0,15.0,0.0,0.0
12945,69.0,13.0,15.0,0.0,0.0
12946,69.0,35.0,30.0,4.0,0.0
12947,70.0,0.0,15.0,0.0,0.0
12948,49.0,5.0,15.0,0.0,0.0
12949,52.0,0.0,60.0,11.0,0.0
12950,70.0,21.0,60.0,11.0,0.0
12951,61.0,0.0,60.0,11.0,0.0
12952,82.0,20.0,40.0,0.0,0.0
12953,70.0,0.0,60.0,4.0,0.0
12954,37.0,0.0,60.0,11.0,0.0
12955,37.0,0.0,40.0,0.0,0.0
12956,55.0,13.0,15.0,0.0,0.0
12957,58.0,0.0,15.0,0.0,0.0
12958,52.0,0.0,15.0,0.0,0.0
12959,61.0,13.0,15.0,0.0,0.0
12960,67.0,38.0,30.0,4.0,0.0
12961,46.0,13.0,15.0,0.0,0.0
12962,67.0,0.0,15.0,0.0,0.0
12963,68.0,2.0,15.0,0.0,0.0
12964,49.0,0.0,15.0,0.0,0.0
12965,59.0,1.0,60.0,11.0,0.0
12966,53.0,22.0,60.0,11.0,0.0
12967,68.0,0.0,60.0,11.0,0.0
12968,68.0,0.0,60.0,4.0,0.0
12969,37.0,18.0,40.0,0.0,0.0
12970,80.0,0.0,40.0,0.0,0.0
12971,60.0,13.0,15.0,0.0,0.0
12972,57.0,0.0,15.0,0.0,0.0
12973,54.0,13.0,15.0,0.0,0.0
12974,63.0,0.0,15.0,0.0,0.0
12975,69.0,4.0,30.0,4.0,0.0
12976,48.0,9.0,15.0,0.0,0.0
12977,69.0,0.0,15.0,0.0,0.0
12978,49.0,40.0,15.0,0.0,0.0
12979,70.0,0.0,15.0,0.0,0.0
12980,49.0,1.0,60.0,11.0,0.0
12981,64.0,0.0,60.0,11.0,0.0
12982,55.0,1.0,60.0,11.0,0.0
12983,82.0,18.0,40.0,0.0,0.0
12984,70.0,1.0,60.0,4.0,0.0
12985,37.0,0.0,40.0,0.0,0.0
12986,70.0,20.0,60.0,11.0,0.0
12987,60.0,13.0,15.0,0.0,0.0
12988,57.0,0.0,15.0,0.0,0.0
12989,54.0,13.0,15.0,0.0,0.0
12990,63.0,0.0,15.0,0.0,0.0
12991,48.0,0.0,15.0,0.0,0.0
12992,69.0,13.0,15.0,0.0,0.0
12993,69.0,36.0,30.0,4.0,0.0
12994,70.0,0.0,15.0,0.0,0.0
12995,49.0,4.0,15.0,0.0,0.0
12996,55.0,1.0,60.0,11.0,0.0
12997,64.0,1.0,60.0,11.0,0.0
12998,37.0,0.0,40.0,0.0,0.0
12999,82.0,18.0,40.0,0.0,0.0
13000,70.0,1.0,60.0,11.0,0.0
13001,70.0,20.0,60.0,4.0,0.0
13002,61.0,0.0,15.0,0.0,0.0
13003,58.0,13.0,15.0,0.0,0.0
13004,64.0,13.0,15.0,0.0,0.0
13005,55.0,0.0,15.0,0.0,0.0
13006,70.0,37.0,30.0,4.0,0.0
13007,49.0,0.0,15.0,0.0,0.0
13008,70.0,13.0,15.0,0.0,0.0
13009,71.0,0.0,15.0,0.0,0.0
13010,49.0,3.0,15.0,0.0,0.0
13011,37.0,20.0,40.0,0.0,0.0
13012,83.0,0.0,40.0,0.0,0.0
13013,37.0,1.0,60.0,11.0,0.0
13014,71.0,0.0,60.0,11.0,0.0
13015,71.0,0.0,60.0,4.0,0.0
13016,65.0,2.0,60.0,11.0,0.0
13017,56.0,18.0,60.0,11.0,0.0
13018,61.0,13.0,15.0,0.0,0.0
13019,58.0,0.0,15.0,0.0,0.0
13020,55.0,0.0,15.0,0.0,0.0
13021,64.0,13.0,15.0,0.0,0.0
13022,70.0,38.0,30.0,4.0,0.0
13023,49.0,0.0,15.0,0.0,0.0
13024,70.0,13.0,15.0,0.0,0.0
13025,71.0,2.0,15.0,0.0,0.0
13026,49.0,0.0,15.0,0.0,0.0
13027,71.0,3.0,60.0,4.0,0.0
13028,83.0,0.0,40.0,0.0,0.0
13029,37.0,17.0,40.0,0.0,0.0
13030,65.0,0.0,60.0,11.0,0.0
13031,56.0,1.0,60.0,11.0,0.0
13032,71.0,20.0,60.0,11.0,0.0
13033,61.0,0.0,15.0,0.0,0.0
13034,59.0,13.0,15.0,0.0,0.0
13035,56.0,0.0,15.0,0.0,0.0
13036,65.0,13.0,15.0,0.0,0.0
13037,71.0,1.0,30.0,4.0,0.0
13038,71.0,0.0,15.0,0.0,0.0
13039,49.0,12.0,15.0,0.0,0.0
13040,49.0,0.0,15.0,0.0,0.0
13041,72.0,40.0,15.0,0.0,0.0
13042,49.0,1.0,60.0,11.0,0.0
13043,72.0,1.0,60.0,4.0,0.0
13044,72.0,0.0,60.0,11.0,0.0
13045,66.0,22.0,60.0,11.0,0.0
13046,57.0,0.0,60.0,11.0,0.0
13047,84.0,0.0,40.0,0.0,0.0
13048,37.0,17.0,40.0,0.0,0.0
13049,60.0,0.0,15.0,0.0,0.0
13050,63.0,13.0,15.0,0.0,0.0
13051,66.0,13.0,15.0,0.0,0.0
13052,57.0,0.0,15.0,0.0,0.0
13053,72.0,37.0,30.0,4.0,0.0
13054,51.0,13.0,15.0,0.0,0.0
13055,72.0,0.0,15.0,0.0,0.0
13056,49.0,0.0,15.0,0.0,0.0
13057,75.0,3.0,15.0,0.0,0.0
13058,75.0,1.0,60.0,4.0,0.0
13059,54.0,1.0,60.0,11.0,0.0
13060,37.0,18.0,40.0,0.0,0.0
13061,60.0,0.0,60.0,11.0,0.0
13062,87.0,0.0,40.0,0.0,0.0
13063,75.0,21.0,60.0,11.0,0.0
13064,63.0,13.0,15.0,0.0,0.0
13065,66.0,0.0,15.0,0.0,0.0
13066,69.0,0.0,15.0,0.0,0.0
13067,60.0,13.0,15.0,0.0,0.0
13068,54.0,13.0,15.0,0.0,0.0
13069,75.0,0.0,15.0,0.0,0.0
13070,75.0,36.0,30.0,4.0,0.0
13071,49.0,4.0,15.0,0.0,0.0
13072,78.0,85.0,120.0,0.0,0.0
13073,37.0,0.0,60.0,11.0,0.0
13074,48.0,1.0,60.0,11.0,0.0
13075,57.0,0.0,60.0,11.0,0.0
13076,37.0,20.0,40.0,0.0,0.0
13077,90.0,0.0,120.0,0.0,0.0
13078,78.0,0.0,60.0,4.0,0.0
13079,51.0,0.0,240.0,6.0,0.0
13080,48.0,0.0,240.0,6.0,0.0
13081,78.0,19.0,60.0,11.0,0.0
13082,48.0,40.0,40.0,0.0,0.0
13083,51.0,0.0,40.0,0.0,0.0
13084,57.0,0.0,120.0,0.0,0.0
13085,69.0,5.0,120.0,0.0,0.0
13086,54.0,35.0,40.0,0.0,0.0
13087,48.0,80.0,40.0,0.0,0.0
13088,53.0,5.0,120.0,6.0,0.0
13089,56.0,0.0,120.0,0.0,0.0
13090,68.0,0.0,120.0,0.0,0.0
13091,37.0,35.0,40.0,0.0,0.0
13092,53.0,80.0,40.0,0.0,0.0
13093,77.0,0.0,120.0,0.0,0.0
13094,89.0,5.0,120.0,0.0,0.0
13095,49.0,0.0,120.0,6.0,0.0
13096,56.0,35.0,40.0,0.0,0.0
13097,49.0,75.0,40.0,0.0,0.0
13098,76.0,0.0,120.0,0.0,0.0
13099,46.0,0.0,240.0,6.0,0.0
13100,88.0,0.0,120.0,0.0,0.0
13101,34.0,40.0,40.0,0.0,0.0
13102,49.0,80.0,40.0,0.0,0.0
13103,67.0,0.0,120.0,0.0,0.0
13104,55.0,0.0,120.0,0.0,0.0
13105,52.0,40.0,40.0,0.0,0.0
13106,46.0,0.0,40.0,0.0,0.0
13107,51.0,80.0,120.0,6.0,0.0
13108,54.0,0.0,120.0,0.0,0.0
13109,66.0,0.0,120.0,0.0,0.0
13110,35.0,40.0,40.0,0.0,0.0
13111,51.0,0.0,40.0,0.0,0.0
13112,47.0,0.0,120.0,6.0,0.0
13113,87.0,0.0,120.0,0.0,0.0
13114,75.0,0.0,120.0,0.0,0.0
13115,54.0,40.0,40.0,0.0,0.0
13116,47.0,0.0,40.0,0.0,0.0
13117,86.0,0.0,120.0,0.0,0.0
13118,74.0,80.0,120.0,0.0,0.0
13119,42.0,0.0,240.0,6.0,0.0
13120,50.0,0.0,480.0,6.0,0.0
13121,57.0,0.0,240.0,8.0,0.0
13122,30.0,40.0,40.0,0.0,0.0
13123,45.0,0.0,40.0,0.0,0.0
13124,60.0,0.0,120.0,0.0,0.0
13125,72.0,0.0,120.0,0.0,0.0
13126,57.0,40.0,40.0,0.0,0.0
13127,50.0,80.0,40.0,0.0,0.0
13128,86.0,0.0,120.0,0.0,0.0
13129,74.0,80.0,120.0,0.0,0.0
13130,43.0,80.0,240.0,6.0,0.0
13131,59.0,0.0,240.0,8.0,0.0
13132,31.0,40.0,40.0,0.0,0.0
13133,47.0,0.0,40.0,0.0,0.0
13134,59.0,0.0,120.0,0.0,0.0
13135,71.0,0.0,120.0,0.0,0.0
13136,55.0,40.0,40.0,0.0,0.0
13137,50.0,0.0,40.0,0.0,0.0
13138,73.0,0.0,120.0,0.0,0.0
13139,41.0,0.0,240.0,6.0,0.0
13140,49.0,0.0,480.0,6.0,0.0
13141,56.0,80.0,240.0,8.0,0.0
13142,85.0,0.0,120.0,0.0,0.0
13143,29.0,40.0,40.0,0.0,0.0
13144,44.0,80.0,40.0,0.0,0.0
13145,71.0,0.0,120.0,0.0,0.0
13146,59.0,0.0,120.0,0.0,0.0
13147,56.0,40.0,40.0,0.0,0.0
13148,49.0,0.0,40.0,0.0,0.0
13149,42.0,0.0,240.0,6.0,0.0
13150,73.0,0.0,120.0,0.0,0.0
13151,85.0,0.0,120.0,0.0,0.0
13152,58.0,0.0,240.0,8.0,0.0
13153,30.0,40.0,40.0,0.0,0.0
13154,46.0,80.0,40.0,0.0,0.0
13155,70.0,0.0,120.0,0.0,0.0
13156,58.0,0.0,120.0,0.0,0.0
13157,54.0,40.0,40.0,0.0,0.0
13158,49.0,40.0,40.0,0.0,0.0
13159,36.0,0.0,60.0,11.0,0.0
13160,78.0,40.0,120.0,4.0,0.0
13161,57.0,0.0,60.0,11.0,0.0
13162,48.0,0.0,60.0,11.0,0.0
13163,66.0,20.0,60.0,11.0,0.0
13164,36.0,20.0,40.0,0.0,0.0
13165,63.0,0.0,60.0,11.0,0.0
13166,62.0,0.0,40.0,0.0,0.0
13167,54.0,40.0,40.0,0.0,0.0
13168,57.0,0.0,40.0,0.0,0.0
13169,63.0,0.0,40.0,0.0,0.0
13170,69.0,0.0,40.0,0.0,0.0
13171,74.0,40.0,40.0,0.0,0.0
13172,57.0,40.0,120.0,4.0,0.0
13173,66.0,0.0,40.0,0.0,0.0
13174,75.0,40.0,40.0,0.0,0.0
13175,81.0,0.0,40.0,0.0,0.0
13176,86.0,0.0,40.0,0.0,0.0
13177,78.0,0.0,40.0,0.0,0.0
13178,37.0,0.0,40.0,0.0,0.0
13179,87.0,20.0,40.0,0.0,0.0
13180,61.0,20.0,60.0,11.0,0.0
13181,56.0,0.0,120.0,4.0,0.0
13182,56.0,0.0,60.0,11.0,0.0
13183,49.0,0.0,60.0,11.0,0.0
13184,65.0,0.0,60.0,11.0,0.0
13185,37.0,0.0,60.0,11.0,0.0
13186,84.0,0.0,40.0,0.0,0.0
13187,77.0,40.0,40.0,0.0,0.0
13188,80.0,0.0,40.0,0.0,0.0
13189,85.0,40.0,40.0,0.0,0.0
13190,72.0,0.0,40.0,0.0,0.0
13191,65.0,40.0,40.0,0.0,0.0
13192,68.0,0.0,40.0,0.0,0.0
13193,77.0,40.0,120.0,4.0,0.0
13194,73.0,40.0,40.0,0.0,0.0
13195,53.0,0.0,90.0,0.0,0.0
13196,56.0,20.0,90.0,0.0,0.0
13197,59.0,0.0,90.0,0.0,0.0
13198,38.0,0.0,60.0,11.0,0.0
13199,65.0,0.0,60.0,11.0,0.0
13200,38.0,0.0,40.0,0.0,0.0
13201,68.0,25.0,60.0,11.0,0.0
13202,50.0,0.0,60.0,11.0,0.0
13203,80.0,5.0,120.0,4.0,0.0
13204,59.0,0.0,60.0,11.0,0.0
13205,59.0,35.0,40.0,0.0,0.0
13206,64.0,0.0,40.0,0.0,0.0
13207,56.0,0.0,40.0,0.0,0.0
13208,65.0,35.0,40.0,0.0,0.0
13209,59.0,40.0,120.0,4.0,0.0
13210,68.0,40.0,40.0,0.0,0.0
13211,76.0,0.0,40.0,0.0,0.0
13212,71.0,0.0,40.0,0.0,0.0
13213,77.0,40.0,40.0,0.0,0.0
13214,88.0,0.0,40.0,0.0,0.0
13215,83.0,0.0,40.0,0.0,0.0
13216,80.0,0.0,40.0,0.0,0.0
13217,89.0,20.0,40.0,0.0,0.0
13218,63.0,0.0,60.0,11.0,0.0
13219,58.0,45.0,120.0,4.0,0.0
13220,39.0,0.0,40.0,0.0,0.0
13221,39.0,0.0,60.0,11.0,0.0
13222,66.0,20.0,60.0,11.0,0.0
13223,51.0,0.0,60.0,11.0,0.0
13224,58.0,0.0,60.0,11.0,0.0
13225,86.0,40.0,40.0,0.0,0.0
13226,82.0,0.0,40.0,0.0,0.0
13227,78.0,0.0,40.0,0.0,0.0
13228,87.0,0.0,40.0,0.0,0.0
13229,70.0,40.0,40.0,0.0,0.0
13230,78.0,5.0,120.0,4.0,0.0
13231,66.0,0.0,40.0,0.0,0.0
13232,74.0,0.0,40.0,0.0,0.0
13233,78.0,0.0,120.0,1.0,0.0
13234,75.0,35.0,40.0,0.0,0.0
13235,58.0,0.0,40.0,0.0,0.0
13236,54.0,55.0,40.0,0.0,0.0
13237,27.0,20.0,60.0,0.0,0.0
13238,39.0,0.0,240.0,3.0,0.0
13239,83.0,40.0,120.0,1.0,0.0
13240,59.0,0.0,480.0,8.0,0.0
13241,54.0,0.0,240.0,8.0,0.0
13242,95.0,40.0,40.0,0.0,0.0
13243,39.0,0.0,60.0,0.0,0.0
13244,83.0,0.0,40.0,0.0,0.0
13245,81.0,20.0,40.0,0.0,0.0
13246,71.0,0.0,120.0,1.0,0.0
13247,42.0,20.0,60.0,0.0,0.0
13248,69.0,40.0,40.0,0.0,0.0
13249,47.0,60.0,60.0,0.0,0.0
13250,57.0,0.0,40.0,0.0,0.0
13251,56.0,0.0,480.0,8.0,0.0
13252,28.0,20.0,60.0,0.0,0.0
13253,40.0,0.0,240.0,3.0,0.0
13254,95.0,40.0,40.0,0.0,0.0
13255,40.0,40.0,60.0,0.0,0.0
13256,83.0,0.0,40.0,0.0,0.0
13257,47.0,20.0,60.0,0.0,0.0
13258,80.0,20.0,40.0,0.0,0.0
13259,68.0,40.0,40.0,0.0,0.0
13260,52.0,60.0,60.0,0.0,0.0
13261,56.0,0.0,40.0,0.0,0.0
13262,61.0,0.0,300.0,8.0,0.0
13263,41.0,60.0,240.0,3.0,0.0
13264,29.0,20.0,60.0,0.0,0.0
13265,97.0,40.0,40.0,0.0,0.0
13266,41.0,40.0,60.0,0.0,0.0
13267,85.0,0.0,40.0,0.0,0.0
13268,83.0,20.0,40.0,0.0,0.0
13269,44.0,20.0,60.0,0.0,0.0
13270,71.0,40.0,40.0,0.0,0.0
13271,49.0,0.0,60.0,0.0,0.0
13272,59.0,0.0,40.0,0.0,0.0
13273,42.0,40.0,120.0,3.0,0.0
13274,30.0,0.0,60.0,0.0,0.0
13275,58.0,20.0,60.0,8.0,0.0
13276,97.0,40.0,40.0,0.0,0.0
13277,54.0,0.0,120.0,8.0,0.0
13278,42.0,0.0,60.0,0.0,0.0
13279,85.0,0.0,40.0,0.0,0.0
13280,42.0,0.0,240.0,5.0,0.0
13281,82.0,20.0,40.0,0.0,0.0
13282,49.0,20.0,60.0,0.0,0.0
13283,58.0,0.0,120.0,7.0,0.0
13284,66.0,0.0,120.0,7.0,0.0
13285,73.0,0.0,120.0,7.0,0.0
13286,54.0,0.0,240.0,3.0,0.0
13287,70.0,40.0,40.0,0.0,0.0
13288,42.0,0.0,15.0,8.0,0.0
13289,54.0,60.0,60.0,0.0,0.0
13290,54.0,20.0,120.0,8.0,0.0
13291,58.0,0.0,40.0,0.0,0.0
13292,64.0,0.0,120.0,0.0,0.0
13293,74.0,0.0,120.0,7.0,0.0
13294,70.0,0.0,120.0,7.0,0.0
13295,64.0,40.0,120.0,7.0,0.0
13296,54.0,40.0,360.0,0.0,0.0
13297,58.0,0.0,360.0,0.0,0.0
13298,92.0,40.0,40.0,0.0,0.0
13299,42.0,20.0,120.0,8.0,0.0
13300,54.0,0.0,120.0,8.0,0.0
13301,80.0,0.0,40.0,0.0,0.0
13302,71.0,0.0,240.0,7.0,0.0
13303,42.0,0.0,240.0,5.0,0.0
13304,54.0,0.0,240.0,3.0,0.0
13305,63.0,0.0,240.0,7.0,0.0
13306,90.0,20.0,40.0,0.0,0.0
13307,63.0,0.0,240.0,0.0,0.0
13308,75.0,0.0,240.0,7.0,0.0
13309,78.0,40.0,40.0,0.0,0.0
13310,42.0,0.0,120.0,8.0,0.0
13311,54.0,20.0,120.0,8.0,0.0
13312,66.0,60.0,40.0,0.0,0.0
13313,80.0,40.0,40.0,0.0,0.0
13314,68.0,0.0,40.0,0.0,0.0
13315,61.0,60.0,120.0,7.0,0.0
13316,42.0,0.0,240.0,5.0,0.0
13317,49.0,0.0,120.0,0.0,0.0
13318,78.0,20.0,40.0,0.0,0.0
13319,58.0,0.0,240.0,7.0,0.0
13320,54.0,0.0,120.0,7.0,0.0
13321,66.0,40.0,40.0,0.0,0.0
13322,42.0,0.0,15.0,8.0,0.0
13323,54.0,20.0,15.0,8.0,0.0
13324,54.0,0.0,40.0,0.0,0.0
13325,52.0,0.0,120.0,0.0,0.0
13326,52.0,0.0,120.0,7.0,0.0
13327,62.0,0.0,120.0,7.0,0.0
13328,54.0,60.0,15.0,8.0,0.0
13329,42.0,0.0,15.0,8.0,0.0
13330,68.0,0.0,60.0,0.0,0.0
13331,59.0,0.0,240.0,7.0,0.0
13332,51.0,0.0,240.0,7.0,0.0
13333,63.0,0.0,240.0,7.0,0.0
13334,54.0,0.0,15.0,3.0,0.0
13335,42.0,0.0,240.0,5.0,0.0
13336,66.0,60.0,60.0,0.0,0.0
13337,42.0,60.0,15.0,0.0,0.0
13338,51.0,120.0,240.0,0.0,0.0
13339,54.0,0.0,60.0,0.0,0.0
13340,47.0,0.0,120.0,0.0,0.0
13341,54.0,60.0,15.0,8.0,0.0
13342,42.0,0.0,15.0,8.0,0.0
13343,42.0,240.0,240.0,3.0,0.0
13344,56.0,0.0,240.0,7.0,0.0
13345,52.0,120.0,120.0,7.0,0.0
13346,59.0,0.0,240.0,7.0,0.0
13347,53.0,0.0,120.0,7.0,0.0
13348,58.0,120.0,240.0,7.0,0.0
13349,30.0,0.0,15.0,5.0,0.0
13350,54.0,0.0,240.0,7.0,0.0
13351,49.0,0.0,240.0,7.0,0.0
13352,42.0,0.0,240.0,3.0,0.0
13353,40.0,0.0,120.0,3.0,0.0
13354,56.0,0.0,240.0,7.0,0.0
13355,28.0,120.0,120.0,5.0,0.0
13356,59.0,0.0,240.0,7.0,0.0
13357,47.0,0.0,120.0,7.0,0.0
13358,50.0,240.0,120.0,7.0,0.0
13359,41.0,0.0,120.0,3.0,0.0
13360,29.0,0.0,120.0,5.0,0.0
13361,49.0,0.0,240.0,7.0,0.0
13362,54.0,0.0,240.0,7.0,0.0
13363,58.0,0.0,240.0,7.0,0.0
13364,30.0,0.0,240.0,5.0,0.0
13365,42.0,120.0,240.0,3.0,0.0
13366,59.0,0.0,240.0,7.0,0.0
13367,50.0,0.0,120.0,7.0,0.0
13368,43.0,0.0,120.0,3.0,0.0
13369,31.0,120.0,120.0,5.0,0.0
13370,62.0,240.0,240.0,7.0,0.0
13371,32.0,0.0,120.0,5.0,0.0
13372,44.0,0.0,120.0,3.0,0.0
13373,53.0,0.0,120.0,7.0,0.0
13374,47.0,0.0,240.0,3.0,0.0
13375,56.0,0.0,240.0,7.0,0.0
13376,35.0,0.0,240.0,5.0,0.0
13377,49.0,0.0,15.0,7.0,0.0
13378,54.0,0.0,120.0,0.0,0.0
13379,45.0,0.0,120.0,0.0,0.0
13380,49.0,0.0,120.0,0.0,0.0
13381,33.0,0.0,120.0,5.0,0.0
13382,66.0,0.0,120.0,0.0,0.0
13383,73.0,0.0,120.0,0.0,0.0
13384,54.0,0.0,120.0,7.0,0.0
13385,61.0,120.0,15.0,7.0,0.0
13386,45.0,0.0,120.0,3.0,0.0
13387,32.0,40.0,40.0,0.0,0.0
13388,78.0,0.0,15.0,0.0,0.0
13389,74.0,40.0,150.0,0.0,0.0
13390,71.0,0.0,150.0,0.0,0.0
13391,66.0,0.0,150.0,0.0,0.0
13392,44.0,75.0,40.0,0.0,0.0
13393,47.0,0.0,150.0,0.0,0.0
13394,59.0,0.0,120.0,0.0,0.0
13395,65.0,40.0,40.0,0.0,0.0
13396,77.0,0.0,40.0,0.0,0.0
13397,71.0,40.0,40.0,0.0,0.0
13398,25.0,0.0,40.0,0.0,0.0
13399,37.0,0.0,40.0,0.0,0.0
13400,83.0,0.0,40.0,0.0,0.0
13401,80.0,40.0,40.0,0.0,0.0
13402,71.0,0.0,40.0,0.0,0.0
13403,41.0,0.0,40.0,0.0,0.0
13404,68.0,40.0,40.0,0.0,0.0
13405,80.0,0.0,40.0,0.0,0.0
13406,71.0,0.0,40.0,0.0,0.0
13407,53.0,40.0,40.0,0.0,0.0
13408,65.0,0.0,40.0,0.0,0.0
13409,26.0,40.0,40.0,0.0,0.0
13410,38.0,0.0,40.0,0.0,0.0
13411,77.0,0.0,40.0,0.0,0.0
13412,71.0,0.0,40.0,0.0,0.0
13413,69.0,40.0,40.0,0.0,0.0
13414,42.0,0.0,40.0,0.0,0.0
13415,54.0,0.0,40.0,0.0,0.0
13416,81.0,0.0,40.0,0.0,0.0
13417,78.0,45.0,15.0,0.0,0.0
13418,74.0,0.0,150.0,0.0,0.0
13419,71.0,0.0,150.0,0.0,0.0
13420,66.0,40.0,150.0,0.0,0.0
13421,20.0,40.0,40.0,0.0,0.0
13422,32.0,75.0,40.0,0.0,0.0
13423,47.0,0.0,150.0,0.0,0.0
13424,59.0,5.0,120.0,0.0,0.0
13425,65.0,40.0,40.0,0.0,0.0
13426,74.0,40.0,40.0,0.0,0.0
13427,77.0,0.0,40.0,0.0,0.0
13428,73.0,0.0,150.0,0.0,0.0
13429,76.0,45.0,150.0,0.0,0.0
13430,21.0,40.0,40.0,0.0,0.0
13431,64.0,0.0,150.0,0.0,0.0
13432,33.0,75.0,40.0,0.0,0.0
13433,49.0,5.0,150.0,0.0,0.0
13434,61.0,0.0,120.0,0.0,0.0
13435,57.0,35.0,40.0,0.0,0.0
13436,64.0,40.0,40.0,0.0,0.0
13437,69.0,0.0,15.0,0.0,0.0
13438,62.0,0.0,150.0,0.0,0.0
13439,30.0,40.0,40.0,0.0,0.0
13440,74.0,45.0,150.0,0.0,0.0
13441,42.0,75.0,40.0,0.0,0.0
13442,45.0,5.0,150.0,0.0,0.0
13443,57.0,0.0,120.0,0.0,0.0
13444,61.0,35.0,40.0,0.0,0.0
13445,31.0,40.0,40.0,0.0,0.0
13446,69.0,40.0,15.0,0.0,0.0
13447,73.0,0.0,15.0,0.0,0.0
13448,61.0,0.0,150.0,0.0,0.0
13449,43.0,75.0,40.0,0.0,0.0
13450,50.0,5.0,150.0,0.0,0.0
13451,62.0,0.0,120.0,0.0,0.0
13452,59.0,35.0,40.0,0.0,0.0
13453,71.0,0.0,40.0,0.0,0.0
13454,67.0,40.0,40.0,0.0,0.0
13455,62.0,0.0,150.0,0.0,0.0
13456,69.0,0.0,150.0,0.0,0.0
13457,74.0,45.0,150.0,0.0,0.0
13458,30.0,40.0,40.0,0.0,0.0
13459,42.0,75.0,40.0,0.0,0.0
13460,45.0,5.0,150.0,0.0,0.0
13461,57.0,0.0,120.0,0.0,0.0
13462,61.0,35.0,40.0,0.0,0.0
13463,73.0,0.0,40.0,0.0,0.0
13464,69.0,35.0,40.0,0.0,0.0
13465,60.0,5.0,40.0,0.0,0.0
13466,32.0,35.0,40.0,0.0,0.0
13467,72.0,0.0,40.0,0.0,0.0
13468,68.0,5.0,40.0,0.0,0.0
13469,44.0,35.0,40.0,0.0,0.0
13470,63.0,40.0,40.0,0.0,0.0
13471,48.0,0.0,150.0,0.0,0.0
13472,60.0,0.0,120.0,0.0,0.0
13473,75.0,0.0,40.0,0.0,0.0
13474,68.0,40.0,40.0,0.0,0.0
13475,66.0,40.0,40.0,0.0,0.0
13476,75.0,45.0,40.0,0.0,0.0
13477,66.0,0.0,150.0,0.0,0.0
13478,71.0,0.0,150.0,0.0,0.0
13479,78.0,0.0,15.0,0.0,0.0
13480,74.0,40.0,150.0,0.0,0.0
13481,32.0,40.0,40.0,0.0,0.0
13482,44.0,75.0,40.0,0.0,0.0
13483,47.0,0.0,150.0,0.0,0.0
13484,59.0,40.0,120.0,0.0,0.0
13485,65.0,40.0,40.0,0.0,0.0
13486,77.0,0.0,40.0,0.0,0.0
13487,71.0,0.0,40.0,0.0,0.0
13488,25.0,0.0,40.0,0.0,0.0
13489,37.0,0.0,40.0,0.0,0.0
13490,83.0,40.0,40.0,0.0,0.0
13491,80.0,0.0,40.0,0.0,0.0
13492,71.0,0.0,40.0,0.0,0.0
13493,68.0,0.0,40.0,0.0,0.0
13494,41.0,40.0,40.0,0.0,0.0
13495,53.0,40.0,40.0,0.0,0.0
13496,80.0,0.0,40.0,0.0,0.0
13497,71.0,0.0,40.0,0.0,0.0
13498,65.0,0.0,40.0,0.0,0.0
13499,26.0,0.0,40.0,0.0,0.0
13500,38.0,0.0,40.0,0.0,0.0
13501,71.0,0.0,40.0,0.0,0.0
13502,77.0,40.0,40.0,0.0,0.0
13503,42.0,40.0,40.0,0.0,0.0
13504,69.0,0.0,40.0,0.0,0.0
13505,54.0,0.0,40.0,0.0,0.0
13506,78.0,0.0,40.0,0.0,0.0
13507,77.0,40.0,150.0,0.0,0.0
13508,74.0,0.0,150.0,0.0,0.0
13509,23.0,40.0,40.0,0.0,0.0
13510,69.0,0.0,150.0,0.0,0.0
13511,81.0,45.0,15.0,0.0,0.0
13512,35.0,75.0,40.0,0.0,0.0
13513,41.0,0.0,150.0,0.0,0.0
13514,53.0,0.0,120.0,0.0,0.0
13515,68.0,40.0,40.0,0.0,0.0
13516,74.0,40.0,40.0,0.0,0.0
13517,80.0,0.0,15.0,0.0,0.0
13518,28.0,0.0,40.0,0.0,0.0
13519,40.0,0.0,40.0,0.0,0.0
13520,86.0,40.0,40.0,0.0,0.0
13521,74.0,0.0,40.0,0.0,0.0
13522,59.0,0.0,40.0,0.0,0.0
13523,52.0,0.0,40.0,0.0,0.0
13524,68.0,40.0,40.0,0.0,0.0
13525,74.0,0.0,40.0,0.0,0.0
13526,80.0,0.0,40.0,0.0,0.0
13527,47.0,40.0,40.0,0.0,0.0
13528,33.0,0.0,40.0,0.0,0.0
13529,45.0,0.0,40.0,0.0,0.0
13530,85.0,40.0,40.0,0.0,0.0
13531,80.0,0.0,40.0,0.0,0.0
13532,73.0,0.0,40.0,0.0,0.0
13533,57.0,0.0,40.0,0.0,0.0
13534,52.0,0.0,40.0,0.0,0.0
13535,68.0,40.0,40.0,0.0,0.0
13536,73.0,0.0,40.0,0.0,0.0
13537,80.0,0.0,40.0,0.0,0.0
13538,45.0,40.0,40.0,0.0,0.0
13539,26.0,0.0,40.0,0.0,0.0
13540,38.0,0.0,40.0,0.0,0.0
13541,85.0,0.0,40.0,0.0,0.0
13542,78.0,40.0,40.0,0.0,0.0
13543,73.0,0.0,40.0,0.0,0.0
13544,66.0,40.0,40.0,0.0,0.0
13545,57.0,0.0,40.0,0.0,0.0
13546,50.0,0.0,40.0,0.0,0.0
13547,45.0,0.0,40.0,0.0,0.0
13548,78.0,40.0,40.0,0.0,0.0
13549,73.0,0.0,40.0,0.0,0.0
13550,83.0,20.0,40.0,0.0,0.0
13551,78.0,0.0,40.0,0.0,0.0
13552,32.0,20.0,60.0,0.0,0.0
13553,71.0,0.0,40.0,0.0,0.0
13554,65.0,40.0,40.0,0.0,0.0
13555,44.0,0.0,15.0,0.0,0.0
13556,37.0,0.0,60.0,0.0,0.0
13557,49.0,0.0,60.0,0.0,0.0
13558,71.0,0.0,40.0,0.0,0.0
13559,77.0,0.0,40.0,0.0,0.0
13560,69.0,40.0,40.0,0.0,0.0
13561,74.0,0.0,40.0,0.0,0.0
13562,81.0,0.0,40.0,0.0,0.0
13563,42.0,40.0,90.0,0.0,0.0
13564,54.0,0.0,90.0,0.0,0.0
13565,45.0,0.0,90.0,0.0,0.0
13566,50.0,0.0,90.0,0.0,0.0
13567,78.0,0.0,40.0,0.0,0.0
13568,66.0,0.0,40.0,0.0,0.0
13569,50.0,0.0,40.0,0.0,0.0
13570,62.0,40.0,40.0,0.0,0.0
13571,74.0,0.0,40.0,0.0,0.0
13572,69.0,0.0,40.0,0.0,0.0
13573,57.0,40.0,40.0,0.0,0.0
13574,45.0,0.0,40.0,0.0,0.0
13575,66.0,0.0,40.0,0.0,0.0
13576,54.0,40.0,40.0,0.0,0.0
13577,42.0,0.0,40.0,0.0,0.0
13578,50.0,0.0,40.0,0.0,0.0
13579,38.0,120.0,40.0,0.0,0.0
13580,62.0,0.0,40.0,0.0,0.0
13581,42.0,0.0,120.0,0.0,0.0
13582,57.0,0.0,120.0,0.0,0.0
13583,45.0,0.0,120.0,0.0,0.0
13584,33.0,0.0,120.0,0.0,0.0
13585,59.0,0.0,120.0,0.0,0.0
13586,35.0,120.0,120.0,0.0,0.0
13587,44.0,0.0,120.0,0.0,0.0
13588,47.0,0.0,120.0,0.0,0.0
13589,54.0,120.0,15.0,0.0,0.0
13590,56.0,0.0,120.0,0.0,0.0
13591,42.0,0.0,15.0,0.0,0.0
13592,54.0,0.0,15.0,0.0,0.0
13593,49.0,0.0,240.0,0.0,0.0
13594,56.0,123.0,240.0,0.0,0.0
13595,61.0,0.0,240.0,0.0,0.0
13596,44.0,0.0,240.0,0.0,0.0
13597,37.0,0.0,240.0,0.0,0.0
13598,41.0,0.0,120.0,0.0,0.0
13599,53.0,0.0,120.0,0.0,0.0
13600,37.0,9.0,15.0,0.0,0.0
13601,49.0,0.0,15.0,0.0,0.0
13602,41.0,9.0,15.0,0.0,0.0
13603,53.0,0.0,15.0,0.0,0.0
13604,44.0,0.0,15.0,0.0,0.0
13605,56.0,9.0,15.0,0.0,0.0
13606,58.0,9.0,15.0,0.0,0.0
13607,46.0,0.0,15.0,0.0,0.0
13608,47.0,9.0,15.0,0.0,0.0
13609,59.0,0.0,15.0,0.0,0.0
13610,49.0,9.0,15.0,0.0,0.0
13611,61.0,0.0,15.0,0.0,0.0
13612,53.0,9.0,15.0,0.0,0.0
13613,65.0,0.0,15.0,0.0,0.0
13614,68.0,0.0,15.0,0.0,0.0
13615,59.0,0.0,15.0,0.0,0.0
13616,56.0,9.0,15.0,0.0,0.0
13617,58.0,9.0,15.0,0.0,0.0
13618,70.0,0.0,15.0,0.0,0.0
13619,59.0,9.0,15.0,0.0,0.0
13620,71.0,0.0,15.0,0.0,0.0
13621,61.0,9.0,15.0,0.0,0.0
13622,73.0,0.0,15.0,0.0,0.0
13623,65.0,9.0,15.0,0.0,0.0
13624,77.0,0.0,15.0,0.0,0.0
13625,68.0,9.0,15.0,0.0,0.0
13626,80.0,0.0,15.0,0.0,0.0
13627,70.0,60.0,15.0,0.0,0.0
13628,82.0,0.0,15.0,0.0,0.0
13629,71.0,60.0,60.0,0.0,0.0
13630,83.0,0.0,60.0,0.0,0.0
13631,81.0,0.0,30.0,0.0,0.0
13632,69.0,13.0,30.0,0.0,0.0
13633,66.0,13.0,15.0,0.0,0.0
13634,54.0,0.0,15.0,0.0,0.0
13635,86.0,5.0,60.0,0.0,0.0
13636,81.0,0.0,60.0,0.0,0.0
13637,74.0,0.0,60.0,0.0,0.0
13638,62.0,13.0,15.0,0.0,0.0
13639,57.0,13.0,15.0,0.0,0.0
13640,54.0,8.0,15.0,0.0,0.0
13641,50.0,13.0,15.0,0.0,0.0
13642,45.0,13.0,15.0,0.0,0.0
13643,42.0,13.0,15.0,0.0,0.0
13644,78.0,0.0,30.0,0.0,0.0
13645,73.0,0.0,30.0,0.0,0.0
13646,85.0,60.0,30.0,0.0,0.0
13647,38.0,13.0,15.0,0.0,0.0
13648,33.0,3.0,15.0,0.0,0.0
13649,32.0,0.0,60.0,0.0,0.0
13650,44.0,60.0,60.0,0.0,0.0
13651,72.0,0.0,60.0,0.0,0.0
13652,80.0,0.0,60.0,0.0,0.0
13653,84.0,0.0,60.0,0.0,0.0
13654,76.0,0.0,30.0,0.0,0.0
13655,45.0,0.0,30.0,0.0,0.0
13656,57.0,0.0,30.0,0.0,0.0
13657,73.0,0.0,15.0,0.0,0.0
13658,40.0,0.0,60.0,0.0,0.0
13659,52.0,0.0,60.0,0.0,0.0
13660,85.0,60.0,15.0,0.0,0.0
13661,80.0,0.0,60.0,0.0,0.0
13662,42.0,0.0,30.0,0.0,0.0
13663,54.0,0.0,30.0,0.0,0.0
13664,73.0,0.0,30.0,0.0,0.0
13665,81.0,0.0,30.0,0.0,0.0
13666,69.0,60.0,30.0,0.0,0.0
13667,68.0,0.0,60.0,0.0,0.0
13668,44.0,0.0,60.0,0.0,0.0
13669,56.0,0.0,60.0,0.0,0.0
13670,80.0,0.0,60.0,0.0,0.0
13671,72.0,60.0,60.0,0.0,0.0
13672,44.0,60.0,30.0,0.0,0.0
13673,56.0,0.0,30.0,0.0,0.0
13674,75.0,0.0,30.0,0.0,0.0
13675,71.0,0.0,30.0,0.0,0.0
13676,83.0,0.0,15.0,0.0,0.0
13677,51.0,0.0,60.0,0.0,0.0
13678,39.0,0.0,60.0,0.0,0.0
13679,71.0,0.0,60.0,0.0,0.0
13680,78.0,60.0,60.0,0.0,0.0
13681,80.0,0.0,30.0,0.0,0.0
13682,53.0,0.0,30.0,0.0,0.0
13683,68.0,60.0,30.0,0.0,0.0
13684,41.0,0.0,30.0,0.0,0.0
13685,71.0,0.0,30.0,0.0,0.0
13686,66.0,0.0,60.0,0.0,0.0
13687,42.0,0.0,60.0,0.0,0.0
13688,54.0,0.0,60.0,0.0,0.0
13689,78.0,59.0,60.0,0.0,0.0
13690,69.0,0.0,60.0,0.0,0.0
13691,42.0,1.0,30.0,0.0,0.0
13692,51.0,1.0,30.0,0.0,0.0
13693,75.0,0.0,30.0,0.0,0.0
13694,72.0,0.0,30.0,0.0,0.0
13695,69.0,0.0,30.0,0.0,0.0
13696,81.0,0.0,30.0,0.0,0.0
13697,48.0,9.0,30.0,0.0,0.0
13698,37.0,0.0,20.0,3.0,0.0
13699,49.0,10.0,20.0,7.0,0.0
13700,68.0,0.0,60.0,0.0,0.0
13701,73.0,0.0,60.0,0.0,0.0
13702,77.0,0.0,60.0,0.0,0.0
13703,25.0,0.0,20.0,5.0,0.0
13704,37.0,10.0,15.0,0.0,0.0
13705,80.0,0.0,60.0,0.0,0.0
13706,44.0,0.0,15.0,0.0,0.0
13707,49.0,10.0,15.0,0.0,0.0
13708,27.0,20.0,20.0,5.0,0.0
13709,51.0,0.0,20.0,7.0,0.0
13710,39.0,0.0,20.0,3.0,0.0
13711,53.0,0.0,30.0,0.0,0.0
13712,53.0,20.0,20.0,7.0,0.0
13713,41.0,0.0,20.0,3.0,0.0
13714,29.0,0.0,20.0,5.0,0.0
13715,42.0,0.0,20.0,3.0,0.0
13716,30.0,0.0,20.0,5.0,0.0
13717,54.0,20.0,20.0,7.0,0.0
13718,56.0,0.0,20.0,7.0,0.0
13719,44.0,0.0,20.0,3.0,0.0
13720,32.0,20.0,20.0,5.0,0.0
13721,57.0,60.0,20.0,7.0,0.0
13722,45.0,0.0,20.0,3.0,0.0
13723,33.0,0.0,20.0,5.0,0.0
13724,47.0,0.0,60.0,3.0,0.0
13725,59.0,0.0,60.0,7.0,0.0
13726,35.0,60.0,60.0,5.0,0.0
13727,45.0,0.0,30.0,3.0,0.0
13728,33.0,19.0,30.0,5.0,0.0
13729,66.0,1.0,20.0,7.0,0.0
13730,50.0,0.0,60.0,3.0,0.0
13731,38.0,0.0,60.0,5.0,0.0
13732,78.0,20.0,20.0,7.0,0.0
13733,57.0,0.0,60.0,7.0,0.0
13734,76.0,19.0,20.0,7.0,0.0
13735,64.0,0.0,20.0,7.0,0.0
13736,74.0,1.0,20.0,7.0,0.0
13737,62.0,20.0,20.0,7.0,0.0
13738,61.0,1.0,20.0,7.0,0.0
13739,73.0,17.0,20.0,7.0,0.0
13740,59.0,2.0,20.0,7.0,0.0
13741,71.0,20.0,20.0,7.0,0.0
13742,37.0,0.0,30.0,5.0,0.0
13743,49.0,1.0,30.0,3.0,0.0
13744,57.0,0.0,20.0,7.0,0.0
13745,69.0,19.0,20.0,7.0,0.0
13746,62.0,0.0,60.0,7.0,0.0
13747,68.0,1.0,60.0,7.0,0.0
13748,78.0,0.0,20.0,0.0,0.0
13749,56.0,0.0,60.0,7.0,0.0
13750,35.0,0.0,60.0,5.0,0.0
13751,90.0,20.0,20.0,0.0,0.0
13752,47.0,0.0,60.0,3.0,0.0
13753,74.0,20.0,20.0,0.0,0.0
13754,86.0,0.0,20.0,0.0,0.0
13755,83.0,0.0,20.0,0.0,0.0
13756,71.0,19.0,20.0,0.0,0.0
13757,66.0,20.0,20.0,0.0,0.0
13758,78.0,0.0,20.0,0.0,0.0
13759,62.0,0.0,20.0,0.0,0.0
13760,74.0,20.0,20.0,0.0,0.0
13761,44.0,0.0,30.0,3.0,0.0
13762,32.0,0.0,30.0,5.0,0.0
13763,71.0,19.0,20.0,0.0,0.0
13764,59.0,0.0,20.0,0.0,0.0
13765,76.0,1.0,20.0,7.0,0.0
13766,56.0,0.0,60.0,0.0,0.0
13767,64.0,20.0,20.0,7.0,0.0
13768,49.0,20.0,60.0,3.0,0.0
13769,68.0,0.0,60.0,0.0,0.0
13770,37.0,0.0,60.0,5.0,0.0
13771,56.0,0.0,60.0,7.0,0.0
13772,74.0,20.0,20.0,7.0,0.0
13773,62.0,0.0,20.0,7.0,0.0
13774,73.0,0.0,20.0,7.0,0.0
13775,61.0,0.0,20.0,7.0,0.0
13776,71.0,1.0,20.0,7.0,0.0
13777,59.0,19.0,20.0,7.0,0.0
13778,57.0,0.0,20.0,7.0,0.0
13779,69.0,20.0,20.0,7.0,0.0
13780,47.0,0.0,30.0,3.0,0.0
13781,35.0,1.0,30.0,5.0,0.0
13782,56.0,0.0,20.0,7.0,0.0
13783,68.0,19.0,20.0,7.0,0.0
13784,33.0,0.0,60.0,5.0,0.0
13785,61.0,0.0,60.0,7.0,0.0
13786,76.0,0.0,20.0,0.0,0.0
13787,66.0,0.0,60.0,7.0,0.0
13788,45.0,1.0,60.0,3.0,0.0
13789,88.0,20.0,20.0,0.0,0.0
13790,54.0,19.0,60.0,7.0,0.0
13791,85.0,20.0,20.0,0.0,0.0
13792,73.0,0.0,20.0,0.0,0.0
13793,69.0,0.0,20.0,0.0,0.0
13794,81.0,0.0,20.0,0.0,0.0
13795,64.0,0.0,20.0,0.0,0.0
13796,76.0,20.0,20.0,0.0,0.0
13797,61.0,20.0,20.0,0.0,0.0
13798,73.0,0.0,20.0,0.0,0.0
13799,30.0,1.0,30.0,5.0,0.0
13800,42.0,0.0,30.0,3.0,0.0
13801,57.0,0.0,20.0,0.0,0.0
13802,69.0,19.0,20.0,0.0,0.0
13803,66.0,0.0,60.0,0.0,0.0
13804,47.0,0.0,60.0,3.0,0.0
13805,54.0,1.0,60.0,7.0,0.0
13806,35.0,0.0,60.0,5.0,0.0
13807,62.0,1.0,20.0,7.0,0.0
13808,54.0,0.0,60.0,0.0,0.0
13809,74.0,19.0,20.0,7.0,0.0
13810,61.0,20.0,20.0,7.0,0.0
13811,73.0,0.0,20.0,7.0,0.0
13812,71.0,2.0,20.0,7.0,0.0
13813,59.0,17.0,20.0,7.0,0.0
13814,57.0,0.0,20.0,7.0,0.0
13815,69.0,20.0,20.0,7.0,0.0
13816,56.0,19.0,20.0,7.0,0.0
13817,68.0,0.0,20.0,7.0,0.0
13818,44.0,4.0,30.0,3.0,0.0
13819,32.0,0.0,30.0,5.0,0.0
13820,66.0,1.0,20.0,7.0,0.0
13821,54.0,16.0,20.0,7.0,0.0
13822,65.0,0.0,60.0,7.0,0.0
13823,59.0,0.0,60.0,7.0,0.0
13824,49.0,0.0,60.0,3.0,0.0
13825,37.0,1.0,60.0,5.0,0.0
13826,74.0,0.0,20.0,0.0,0.0
13827,86.0,20.0,20.0,0.0,0.0
13828,53.0,0.0,60.0,7.0,0.0
13829,71.0,0.0,20.0,0.0,0.0
13830,83.0,20.0,20.0,0.0,0.0
13831,68.0,0.0,20.0,0.0,0.0
13832,80.0,19.0,20.0,0.0,0.0
13833,74.0,20.0,20.0,0.0,0.0
13834,62.0,0.0,20.0,0.0,0.0
13835,71.0,0.0,20.0,0.0,0.0
13836,59.0,20.0,20.0,0.0,0.0
13837,25.0,0.0,30.0,5.0,0.0
13838,37.0,1.0,30.0,3.0,0.0
13839,68.0,0.0,20.0,0.0,0.0
13840,56.0,18.0,20.0,0.0,0.0
13841,74.0,2.0,20.0,7.0,0.0
13842,50.0,0.0,60.0,0.0,0.0
13843,62.0,1.0,60.0,0.0,0.0
13844,35.0,21.0,60.0,5.0,0.0
13845,54.0,0.0,60.0,7.0,0.0
13846,47.0,0.0,60.0,3.0,0.0
13847,62.0,19.0,20.0,7.0,0.0
13848,73.0,0.0,20.0,7.0,0.0
13849,61.0,19.0,20.0,7.0,0.0
13850,59.0,0.0,20.0,7.0,0.0
13851,71.0,0.0,20.0,7.0,0.0
13852,69.0,18.0,20.0,7.0,0.0
13853,57.0,0.0,20.0,7.0,0.0
13854,56.0,1.0,20.0,7.0,0.0
13855,68.0,19.0,20.0,7.0,0.0
13856,44.0,13.0,30.0,3.0,0.0
13857,32.0,0.0,30.0,5.0,0.0
13858,66.0,1.0,20.0,7.0,0.0
13859,54.0,0.0,20.0,7.0,0.0
13860,59.0,1.0,60.0,7.0,0.0
13861,49.0,0.0,60.0,3.0,0.0
13862,86.0,13.0,15.0,0.0,0.0
13863,65.0,0.0,60.0,7.0,0.0
13864,37.0,1.0,60.0,5.0,0.0
13865,74.0,0.0,15.0,0.0,0.0
13866,53.0,4.0,60.0,7.0,0.0
13867,73.0,0.0,15.0,0.0,0.0
13868,85.0,13.0,15.0,0.0,0.0
13869,83.0,0.0,15.0,0.0,0.0
13870,71.0,13.0,15.0,0.0,0.0
13871,69.0,7.0,15.0,0.0,0.0
13872,81.0,0.0,15.0,0.0,0.0
13873,80.0,0.0,15.0,0.0,0.0
13874,68.0,13.0,15.0,0.0,0.0
13875,66.0,0.0,15.0,0.0,0.0
13876,78.0,13.0,15.0,0.0,0.0
13877,65.0,13.0,15.0,0.0,0.0
13878,77.0,0.0,15.0,0.0,0.0
13879,62.0,13.0,15.0,0.0,0.0
13880,74.0,0.0,15.0,0.0,0.0
13881,61.0,0.0,15.0,0.0,0.0
13882,73.0,13.0,15.0,0.0,0.0
13883,59.0,0.0,15.0,0.0,0.0
13884,71.0,13.0,15.0,0.0,0.0
13885,25.0,2.0,60.0,5.0,0.0
13886,56.0,0.0,60.0,7.0,0.0
13887,37.0,0.0,60.0,3.0,0.0
13888,65.0,0.0,60.0,7.0,0.0
13889,59.0,10.0,60.0,7.0,0.0
13890,57.0,13.0,15.0,0.0,0.0
13891,69.0,0.0,15.0,0.0,0.0
13892,68.0,0.0,15.0,0.0,0.0
13893,56.0,13.0,15.0,0.0,0.0
13894,54.0,11.0,15.0,0.0,0.0
13895,66.0,0.0,15.0,0.0,0.0
13896,53.0,2.0,15.0,0.0,0.0
13897,65.0,0.0,15.0,0.0,0.0
13898,50.0,12.0,15.0,0.0,0.0
13899,62.0,0.0,15.0,0.0,0.0
13900,49.0,12.0,15.0,0.0,0.0
13901,61.0,0.0,15.0,0.0,0.0
13902,59.0,0.0,15.0,0.0,0.0
13903,47.0,12.0,15.0,0.0,0.0
13904,45.0,10.0,15.0,0.0,0.0
13905,57.0,0.0,15.0,0.0,0.0
13906,44.0,30.0,15.0,0.0,0.0
13907,56.0,0.0,15.0,0.0,0.0
13908,42.0,0.0,60.0,3.0,0.0
13909,66.0,0.0,60.0,7.0,0.0
13910,54.0,0.0,60.0,7.0,0.0
13911,57.0,0.0,60.0,7.0,0.0
13912,30.0,0.0,60.0,5.0,0.0
13913,66.0,0.0,30.0,0.0,0.0
13914,30.0,0.0,30.0,0.0,0.0
13915,42.0,0.0,30.0,0.0,0.0
13916,57.0,0.0,30.0,0.0,0.0
13917,25.0,30.0,30.0,0.0,0.0
13918,61.0,0.0,30.0,0.0,0.0
13919,49.0,30.0,30.0,0.0,0.0
13920,54.0,30.0,30.0,0.0,0.0
13921,57.0,0.0,30.0,0.0,0.0
13922,66.0,30.0,30.0,0.0,0.0
13923,59.0,0.0,30.0,0.0,0.0
13924,41.0,0.0,30.0,0.0,0.0
13925,29.0,0.0,30.0,0.0,0.0
13926,24.0,30.0,30.0,0.0,0.0
13927,68.0,0.0,30.0,0.0,0.0
13928,50.0,30.0,30.0,0.0,0.0
13929,62.0,0.0,30.0,0.0,0.0
13930,56.0,30.0,30.0,0.0,0.0
13931,61.0,30.0,30.0,0.0,0.0
13932,66.0,0.0,30.0,0.0,0.0
13933,57.0,30.0,30.0,0.0,0.0
13934,42.0,0.0,30.0,0.0,0.0
13935,25.0,0.0,30.0,0.0,0.0
13936,30.0,0.0,30.0,0.0,0.0
13937,49.0,0.0,30.0,0.0,0.0
13938,61.0,30.0,30.0,0.0,0.0
13939,54.0,30.0,30.0,0.0,0.0
13940,57.0,0.0,30.0,0.0,0.0
13941,66.0,30.0,30.0,0.0,0.0
13942,68.0,0.0,30.0,0.0,0.0
13943,59.0,30.0,30.0,0.0,0.0
13944,24.0,0.0,30.0,0.0,0.0
13945,29.0,0.0,30.0,0.0,0.0
13946,41.0,0.0,30.0,0.0,0.0
13947,50.0,0.0,30.0,0.0,0.0
13948,62.0,30.0,30.0,0.0,0.0
13949,56.0,30.0,30.0,0.0,0.0
13950,61.0,30.0,30.0,0.0,0.0
13951,69.0,0.0,30.0,0.0,0.0
13952,66.0,30.0,30.0,0.0,0.0
13953,57.0,0.0,30.0,0.0,0.0
13954,42.0,0.0,30.0,0.0,0.0
13955,30.0,0.0,30.0,0.0,0.0
13956,61.0,30.0,30.0,0.0,0.0
13957,49.0,0.0,30.0,0.0,0.0
13958,54.0,30.0,30.0,0.0,0.0
13959,61.0,0.0,30.0,0.0,0.0
13960,73.0,30.0,30.0,0.0,0.0
13961,27.0,0.0,30.0,0.0,0.0
13962,78.0,30.0,30.0,0.0,0.0
13963,66.0,0.0,30.0,0.0,0.0
13964,69.0,0.0,30.0,0.0,0.0
13965,39.0,0.0,30.0,0.0,0.0
13966,47.0,30.0,30.0,0.0,0.0
13967,71.0,0.0,30.0,0.0,0.0
13968,54.0,30.0,30.0,0.0,0.0
13969,69.0,30.0,30.0,0.0,0.0
13970,57.0,0.0,30.0,0.0,0.0
13971,68.0,30.0,30.0,0.0,0.0
13972,64.0,0.0,30.0,0.0,0.0
13973,56.0,0.0,30.0,0.0,0.0
13974,40.0,0.0,30.0,0.0,0.0
13975,28.0,0.0,30.0,0.0,0.0
13976,59.0,0.0,30.0,0.0,0.0
13977,47.0,30.0,30.0,0.0,0.0
13978,52.0,30.0,30.0,0.0,0.0
13979,59.0,0.0,30.0,0.0,0.0
13980,71.0,30.0,30.0,0.0,0.0
13981,76.0,30.0,30.0,0.0,0.0
13982,68.0,0.0,30.0,0.0,0.0
13983,64.0,0.0,30.0,0.0,0.0
13984,37.0,0.0,30.0,0.0,0.0
13985,25.0,0.0,30.0,0.0,0.0
13986,69.0,30.0,30.0,0.0,0.0
13987,45.0,0.0,30.0,0.0,0.0
13988,52.0,30.0,30.0,0.0,0.0
13989,56.0,0.0,30.0,0.0,0.0
13990,68.0,30.0,30.0,0.0,0.0
13991,57.0,30.0,240.0,7.0,0.0
13992,54.0,30.0,30.0,0.0,0.0
13993,38.0,0.0,30.0,0.0,0.0
13994,26.0,0.0,30.0,0.0,0.0
13995,62.0,0.0,30.0,0.0,0.0
13996,66.0,0.0,30.0,0.0,0.0
13997,50.0,3.0,120.0,11.0,0.0
13998,54.0,0.0,360.0,7.0,0.0
13999,57.0,30.0,30.0,0.0,0.0
14000,45.0,0.0,30.0,0.0,0.0
14001,50.0,30.0,30.0,0.0,0.0
14002,69.0,0.0,30.0,0.0,0.0
14003,66.0,0.0,30.0,0.0,0.0
14004,57.0,0.0,30.0,0.0,0.0
14005,49.0,2.0,120.0,11.0,0.0
14006,49.0,0.0,30.0,0.0,0.0
14007,37.0,0.0,30.0,0.0,0.0
14008,66.0,0.0,30.0,0.0,0.0
14009,69.0,0.0,30.0,0.0,0.0
14010,57.0,30.0,30.0,0.0,0.0
14011,54.0,30.0,30.0,0.0,0.0
14012,62.0,0.0,30.0,0.0,0.0
14013,57.0,25.0,30.0,0.0,0.0
14014,74.0,0.0,30.0,0.0,0.0
14015,71.0,0.0,15.0,0.0,0.0
14016,62.0,0.0,15.0,0.0,0.0
14017,47.0,0.0,30.0,0.0,0.0
14018,35.0,0.0,30.0,0.0,0.0
14019,74.0,30.0,30.0,0.0,0.0
14020,47.0,0.0,120.0,11.0,0.0
14021,66.0,2.0,30.0,0.0,0.0
14022,50.0,28.0,30.0,0.0,0.0
14023,54.0,30.0,30.0,0.0,0.0
14024,66.0,0.0,30.0,0.0,0.0
14025,78.0,0.0,30.0,0.0,0.0
14026,59.0,5.0,120.0,7.0,0.0
14027,74.0,3.0,15.0,0.0,0.0
14028,66.0,0.0,30.0,0.0,0.0
14029,45.0,0.0,30.0,0.0,0.0
14030,33.0,0.0,30.0,0.0,0.0
14031,78.0,0.0,30.0,0.0,0.0
14032,45.0,2.0,120.0,11.0,0.0
14033,50.0,30.0,30.0,0.0,0.0
14034,71.0,0.0,30.0,0.0,0.0
14035,54.0,25.0,30.0,0.0,0.0
14036,83.0,3.0,30.0,0.0,0.0
14037,80.0,0.0,15.0,0.0,0.0
14038,71.0,0.0,15.0,0.0,0.0
14039,44.0,0.0,30.0,0.0,0.0
14040,32.0,0.0,30.0,0.0,0.0
14041,71.0,0.0,240.0,7.0,0.0
14042,83.0,0.0,30.0,0.0,0.0
14043,62.0,25.0,15.0,7.0,0.0
14044,44.0,0.0,120.0,11.0,0.0
14045,47.0,30.0,30.0,0.0,0.0
14046,74.0,0.0,30.0,0.0,0.0
14047,50.0,30.0,30.0,0.0,0.0
14048,83.0,0.0,30.0,0.0,0.0
14049,59.0,2.0,120.0,11.0,0.0
14050,42.0,1.0,120.0,11.0,0.0
14051,86.0,0.0,15.0,0.0,0.0
14052,30.0,0.0,30.0,0.0,0.0
14053,42.0,0.0,30.0,0.0,0.0
14054,74.0,3.0,15.0,0.0,0.0
14055,83.0,0.0,30.0,0.0,0.0
14056,47.0,0.0,30.0,0.0,0.0
14057,80.0,30.0,30.0,0.0,0.0
14058,50.0,27.0,30.0,0.0,0.0
14059,92.0,0.0,30.0,0.0,0.0
14060,80.0,0.0,30.0,0.0,0.0
14061,62.0,5.0,120.0,11.0,0.0
14062,83.0,0.0,180.0,0.0,0.0
14063,80.0,0.0,180.0,0.0,0.0
14064,29.0,59.0,60.0,0.0,0.0
14065,41.0,0.0,60.0,0.0,0.0
14066,92.0,57.0,180.0,0.0,0.0
14067,86.0,0.0,180.0,0.0,0.0
14068,68.0,27.0,240.0,7.0,0.0
14069,59.0,0.0,240.0,7.0,0.0
14070,41.0,56.0,120.0,11.0,0.0
14071,62.0,0.0,120.0,0.0,0.0
14072,68.0,0.0,120.0,0.0,0.0
14073,71.0,0.0,120.0,0.0,0.0
14074,74.0,0.0,120.0,0.0,0.0
14075,61.0,3.0,60.0,11.0,0.0
14076,61.0,0.0,60.0,0.0,0.0
14077,49.0,3.0,60.0,0.0,0.0
14078,85.0,0.0,60.0,0.0,0.0
14079,73.0,0.0,60.0,0.0,0.0
14080,78.0,0.0,30.0,0.0,0.0
14081,30.0,0.0,30.0,0.0,0.0
14082,42.0,0.0,30.0,0.0,0.0
14083,66.0,0.0,30.0,0.0,0.0
14084,57.0,2.0,120.0,11.0,0.0
14085,69.0,30.0,30.0,0.0,0.0
14086,42.0,0.0,120.0,11.0,0.0
14087,66.0,0.0,120.0,11.0,0.0
14088,54.0,28.0,120.0,11.0,0.0
14089,73.0,0.0,30.0,0.0,0.0
14090,57.0,30.0,30.0,0.0,0.0
14091,61.0,30.0,30.0,0.0,0.0
14092,49.0,0.0,30.0,0.0,0.0
14093,66.0,0.0,30.0,0.0,0.0
14094,78.0,0.0,30.0,0.0,0.0
14095,69.0,0.0,30.0,0.0,0.0
14096,29.0,0.0,30.0,0.0,0.0
14097,80.0,30.0,30.0,0.0,0.0
14098,41.0,0.0,30.0,0.0,0.0
14099,68.0,0.0,30.0,0.0,0.0
14100,71.0,0.0,30.0,0.0,0.0
14101,59.0,0.0,30.0,0.0,0.0
14102,74.0,30.0,30.0,0.0,0.0
14103,50.0,0.0,30.0,0.0,0.0
14104,62.0,30.0,30.0,0.0,0.0
14105,73.0,30.0,30.0,0.0,0.0
14106,61.0,0.0,30.0,0.0,0.0
14107,66.0,0.0,30.0,0.0,0.0
14108,42.0,0.0,30.0,0.0,0.0
14109,30.0,30.0,30.0,0.0,0.0
14110,78.0,0.0,30.0,0.0,0.0
14111,69.0,0.0,30.0,0.0,0.0
14112,57.0,0.0,30.0,0.0,0.0
14113,73.0,30.0,30.0,0.0,0.0
14114,61.0,30.0,30.0,0.0,0.0
14115,49.0,0.0,30.0,0.0,0.0
14116,66.0,30.0,30.0,0.0,0.0
14117,78.0,0.0,30.0,0.0,0.0
14118,69.0,0.0,30.0,0.0,0.0
14119,44.0,0.0,120.0,11.0,0.0
14120,62.0,30.0,120.0,11.0,0.0
14121,83.0,30.0,30.0,0.0,0.0
14122,71.0,0.0,120.0,11.0,0.0
14123,44.0,0.0,30.0,0.0,0.0
14124,74.0,0.0,30.0,0.0,0.0
14125,56.0,0.0,120.0,11.0,0.0
14126,32.0,0.0,30.0,0.0,0.0
14127,71.0,0.0,30.0,0.0,0.0
14128,62.0,30.0,30.0,0.0,0.0
14129,77.0,0.0,30.0,0.0,0.0
14130,65.0,30.0,30.0,0.0,0.0
14131,53.0,0.0,30.0,0.0,0.0
14132,71.0,0.0,30.0,0.0,0.0
14133,83.0,0.0,30.0,0.0,0.0
14134,74.0,0.0,30.0,0.0,0.0
14135,64.0,0.0,30.0,0.0,0.0
14136,52.0,0.0,30.0,0.0,0.0
14137,76.0,0.0,30.0,0.0,0.0
14138,61.0,0.0,120.0,11.0,0.0
14139,45.0,0.0,30.0,0.0,0.0
14140,57.0,0.0,120.0,11.0,0.0
14141,64.0,0.0,120.0,11.0,0.0
14142,45.0,0.0,120.0,11.0,0.0
14143,81.0,0.0,30.0,0.0,0.0
14144,69.0,30.0,30.0,0.0,0.0
14145,33.0,0.0,30.0,0.0,0.0
14146,73.0,0.0,30.0,0.0,0.0
14147,61.0,30.0,30.0,0.0,0.0
14148,76.0,0.0,30.0,0.0,0.0
14149,64.0,0.0,30.0,0.0,0.0
14150,52.0,30.0,30.0,0.0,0.0
14151,81.0,0.0,30.0,0.0,0.0
14152,73.0,30.0,30.0,0.0,0.0
14153,69.0,0.0,30.0,0.0,0.0
14154,70.0,0.0,30.0,0.0,0.0
14155,44.0,0.0,30.0,0.0,0.0
14156,82.0,30.0,30.0,0.0,0.0
14157,32.0,0.0,30.0,0.0,0.0
14158,74.0,0.0,30.0,0.0,0.0
14159,77.0,0.0,30.0,0.0,0.0
14160,62.0,30.0,30.0,0.0,0.0
14161,65.0,0.0,30.0,0.0,0.0
14162,53.0,30.0,30.0,0.0,0.0
14163,74.0,30.0,30.0,0.0,0.0
14164,70.0,0.0,30.0,0.0,0.0
14165,82.0,0.0,30.0,0.0,0.0
14166,81.0,30.0,30.0,0.0,0.0
14167,33.0,0.0,30.0,0.0,0.0
14168,69.0,0.0,30.0,0.0,0.0
14169,73.0,0.0,30.0,0.0,0.0
14170,45.0,0.0,30.0,0.0,0.0
14171,61.0,0.0,30.0,0.0,0.0
14172,76.0,30.0,30.0,0.0,0.0
14173,64.0,0.0,30.0,0.0,0.0
14174,52.0,30.0,30.0,0.0,0.0
14175,69.0,0.0,30.0,0.0,0.0
14176,81.0,30.0,30.0,0.0,0.0
14177,73.0,0.0,30.0,0.0,0.0
14178,65.0,1.0,120.0,11.0,0.0
14179,86.0,0.0,30.0,0.0,0.0
14180,46.0,0.0,30.0,0.0,0.0
14181,77.0,30.0,30.0,0.0,0.0
14182,34.0,0.0,30.0,0.0,0.0
14183,74.0,0.0,30.0,0.0,0.0
14184,74.0,4.0,120.0,11.0,0.0
14185,46.0,28.0,60.0,11.0,0.0
14186,56.0,25.0,120.0,11.0,0.0
14187,65.0,2.0,30.0,0.0,0.0
14188,56.0,0.0,30.0,0.0,0.0
14189,80.0,0.0,30.0,0.0,0.0
14190,47.0,0.0,60.0,11.0,0.0
14191,35.0,0.0,30.0,0.0,0.0
14192,86.0,0.0,30.0,0.0,0.0
14193,74.0,0.0,30.0,0.0,0.0
14194,77.0,29.0,30.0,0.0,0.0
14195,47.0,0.0,30.0,0.0,0.0
14196,80.0,1.0,30.0,0.0,0.0
14197,72.0,0.0,30.0,0.0,0.0
14198,48.0,0.0,30.0,0.0,0.0
14199,84.0,0.0,30.0,0.0,0.0
14200,36.0,0.0,30.0,0.0,0.0
14201,48.0,0.0,120.0,11.0,0.0
14202,67.0,0.0,120.0,11.0,0.0
14203,76.0,30.0,30.0,0.0,0.0
14204,64.0,0.0,120.0,11.0,0.0
14205,55.0,0.0,120.0,11.0,0.0
14206,64.0,30.0,30.0,0.0,0.0
14207,79.0,0.0,30.0,0.0,0.0
14208,55.0,0.0,30.0,0.0,0.0
14209,67.0,30.0,30.0,0.0,0.0
14210,84.0,0.0,30.0,0.0,0.0
14211,76.0,0.0,30.0,0.0,0.0
14212,72.0,30.0,30.0,0.0,0.0
14213,85.0,0.0,30.0,0.0,0.0
14214,77.0,30.0,30.0,0.0,0.0
14215,73.0,0.0,30.0,0.0,0.0
14216,47.0,0.0,30.0,0.0,0.0
14217,35.0,0.0,30.0,0.0,0.0
14218,80.0,0.0,30.0,0.0,0.0
14219,65.0,30.0,30.0,0.0,0.0
14220,68.0,0.0,30.0,0.0,0.0
14221,56.0,30.0,30.0,0.0,0.0
14222,77.0,0.0,30.0,0.0,0.0
14223,73.0,30.0,30.0,0.0,0.0
14224,85.0,0.0,30.0,0.0,0.0
14225,48.0,0.0,30.0,0.0,0.0
14226,84.0,0.0,30.0,0.0,0.0
14227,36.0,30.0,30.0,0.0,0.0
14228,72.0,0.0,30.0,0.0,0.0
14229,76.0,0.0,30.0,0.0,0.0
14230,79.0,30.0,30.0,0.0,0.0
14231,64.0,0.0,30.0,0.0,0.0
14232,67.0,0.0,30.0,0.0,0.0
14233,55.0,30.0,30.0,0.0,0.0
14234,76.0,0.0,30.0,0.0,0.0
14235,84.0,0.0,30.0,0.0,0.0
14236,72.0,30.0,30.0,0.0,0.0
14237,49.0,2.0,60.0,11.0,0.0
14238,68.0,2.0,120.0,11.0,0.0
14239,59.0,0.0,120.0,11.0,0.0
14240,89.0,28.0,30.0,0.0,0.0
14241,37.0,0.0,30.0,0.0,0.0
14242,77.0,0.0,30.0,0.0,0.0
14243,80.0,0.0,30.0,0.0,0.0
14244,49.0,0.0,30.0,0.0,0.0
14245,77.0,26.0,120.0,11.0,0.0
14246,68.0,0.0,30.0,0.0,0.0
14247,59.0,0.0,30.0,0.0,0.0
14248,83.0,30.0,30.0,0.0,0.0
14249,50.0,2.0,60.0,11.0,0.0
14250,50.0,0.0,30.0,0.0,0.0
14251,89.0,26.0,30.0,0.0,0.0
14252,77.0,0.0,30.0,0.0,0.0
14253,80.0,0.0,30.0,0.0,0.0
14254,38.0,0.0,30.0,0.0,0.0
14255,83.0,4.0,30.0,0.0,0.0
14256,51.0,0.0,60.0,11.0,0.0
14257,79.0,0.0,30.0,0.0,0.0
14258,75.0,0.0,30.0,0.0,0.0
14259,51.0,30.0,30.0,0.0,0.0
14260,39.0,0.0,30.0,0.0,0.0
14261,58.0,0.0,120.0,11.0,0.0
14262,67.0,0.0,120.0,11.0,0.0
14263,87.0,0.0,30.0,0.0,0.0
14264,70.0,25.0,120.0,11.0,0.0
14265,67.0,30.0,30.0,0.0,0.0
14266,82.0,0.0,30.0,0.0,0.0
14267,70.0,30.0,30.0,0.0,0.0
14268,58.0,0.0,30.0,0.0,0.0
14269,39.0,0.0,60.0,11.0,0.0
14270,75.0,0.0,30.0,0.0,0.0
14271,87.0,0.0,30.0,0.0,0.0
14272,79.0,5.0,30.0,0.0,0.0
14273,40.0,0.0,60.0,11.0,0.0
14274,68.0,1.0,60.0,11.0,0.0
14275,40.0,0.0,30.0,0.0,0.0
14276,83.0,0.0,30.0,0.0,0.0
14277,92.0,27.0,30.0,0.0,0.0
14278,80.0,0.0,30.0,0.0,0.0
14279,52.0,0.0,30.0,0.0,0.0
14280,68.0,0.0,30.0,0.0,0.0
14281,86.0,0.0,30.0,0.0,0.0
14282,59.0,0.0,30.0,0.0,0.0
14283,62.0,28.0,30.0,0.0,0.0
14284,62.0,2.0,15.0,11.0,0.0
14285,56.0,3.0,60.0,11.0,0.0
14286,53.0,0.0,30.0,0.0,0.0
14287,92.0,0.0,30.0,0.0,0.0
14288,83.0,27.0,30.0,0.0,0.0
14289,80.0,0.0,30.0,0.0,0.0
14290,41.0,0.0,60.0,11.0,0.0
14291,71.0,30.0,60.0,11.0,0.0
14292,41.0,0.0,30.0,0.0,0.0
14293,86.0,0.0,30.0,0.0,0.0
14294,42.0,0.0,60.0,11.0,0.0
14295,90.0,0.0,30.0,0.0,0.0
14296,54.0,0.0,30.0,0.0,0.0
14297,42.0,27.0,30.0,0.0,0.0
14298,78.0,0.0,30.0,0.0,0.0
14299,61.0,3.0,60.0,11.0,0.0
14300,70.0,27.0,60.0,11.0,0.0
14301,82.0,0.0,30.0,0.0,0.0
14302,61.0,2.0,30.0,0.0,0.0
14303,85.0,0.0,30.0,0.0,0.0
14304,58.0,0.0,30.0,0.0,0.0
14305,58.0,2.0,60.0,11.0,0.0
14306,43.0,1.0,60.0,11.0,0.0
14307,64.0,3.0,60.0,11.0,0.0
14308,67.0,27.0,30.0,0.0,0.0
14309,55.0,0.0,30.0,0.0,0.0
14310,73.0,27.0,60.0,11.0,0.0
14311,91.0,0.0,30.0,0.0,0.0
14312,79.0,0.0,30.0,0.0,0.0
14313,64.0,0.0,30.0,0.0,0.0
14314,61.0,0.0,30.0,0.0,0.0
14315,61.0,2.0,60.0,11.0,0.0
14316,54.0,0.0,30.0,0.0,0.0
14317,90.0,27.0,30.0,0.0,0.0
14318,42.0,0.0,60.0,11.0,0.0
14319,42.0,0.0,30.0,0.0,0.0
14320,78.0,0.0,30.0,0.0,0.0
14321,70.0,0.0,60.0,11.0,0.0
14322,82.0,0.0,30.0,0.0,0.0
14323,85.0,0.0,30.0,0.0,0.0
14324,58.0,0.0,30.0,0.0,0.0
14325,61.0,30.0,30.0,0.0,0.0
14326,64.0,1.0,60.0,11.0,0.0
14327,67.0,0.0,30.0,0.0,0.0
14328,55.0,29.0,30.0,0.0,0.0
14329,41.0,1.0,60.0,11.0,0.0
14330,58.0,1.0,60.0,11.0,0.0
14331,73.0,27.0,60.0,11.0,0.0
14332,91.0,1.0,30.0,0.0,0.0
14333,79.0,0.0,30.0,0.0,0.0
14334,64.0,0.0,30.0,0.0,0.0
14335,61.0,0.0,30.0,0.0,0.0
14336,80.0,0.0,30.0,0.0,0.0
14337,56.0,0.0,30.0,0.0,0.0
14338,44.0,0.0,30.0,0.0,0.0
14339,92.0,30.0,30.0,0.0,0.0
14340,63.0,0.0,60.0,11.0,0.0
14341,44.0,1.0,60.0,11.0,0.0
14342,72.0,27.0,60.0,11.0,0.0
14343,84.0,1.0,30.0,0.0,0.0
14344,60.0,0.0,30.0,0.0,0.0
14345,63.0,0.0,30.0,0.0,0.0
14346,87.0,0.0,30.0,0.0,0.0
14347,45.0,0.0,60.0,11.0,0.0
14348,66.0,0.0,60.0,11.0,0.0
14349,60.0,0.0,60.0,11.0,0.0
14350,69.0,0.0,30.0,0.0,0.0
14351,75.0,0.0,60.0,11.0,0.0
14352,57.0,30.0,30.0,0.0,0.0
14353,63.0,0.0,30.0,0.0,0.0
14354,66.0,0.0,30.0,0.0,0.0
14355,81.0,0.0,30.0,0.0,0.0
14356,93.0,30.0,30.0,0.0,0.0
14357,44.0,1.0,60.0,11.0,0.0
14358,72.0,1.0,60.0,11.0,0.0
14359,63.0,0.0,60.0,11.0,0.0
14360,44.0,0.0,30.0,0.0,0.0
14361,56.0,0.0,30.0,0.0,0.0
14362,80.0,0.0,30.0,0.0,0.0
14363,92.0,26.0,30.0,0.0,0.0
14364,87.0,0.0,30.0,0.0,0.0
14365,63.0,0.0,30.0,0.0,0.0
14366,60.0,30.0,30.0,0.0,0.0
14367,84.0,0.0,30.0,0.0,0.0
14368,66.0,1.0,60.0,11.0,0.0
14369,45.0,4.0,60.0,11.0,0.0
14370,60.0,0.0,60.0,11.0,0.0
14371,75.0,0.0,60.0,11.0,0.0
14372,57.0,0.0,30.0,0.0,0.0
14373,69.0,25.0,30.0,0.0,0.0
14374,66.0,0.0,30.0,0.0,0.0
14375,63.0,0.0,30.0,0.0,0.0
14376,93.0,30.0,30.0,0.0,0.0
14377,81.0,0.0,30.0,0.0,0.0
14378,64.0,0.0,60.0,11.0,0.0
14379,56.0,0.0,60.0,11.0,0.0
14380,92.0,0.0,30.0,0.0,0.0
14381,80.0,0.0,30.0,0.0,0.0
14382,44.0,30.0,30.0,0.0,0.0
14383,56.0,0.0,30.0,0.0,0.0
14384,61.0,0.0,30.0,0.0,0.0
14385,64.0,30.0,30.0,0.0,0.0
14386,85.0,0.0,30.0,0.0,0.0
14387,88.0,0.0,30.0,0.0,0.0
14388,76.0,1.0,60.0,11.0,0.0
14389,73.0,0.0,15.0,11.0,0.0
14390,61.0,2.0,60.0,11.0,0.0
14391,69.0,0.0,30.0,0.0,0.0
14392,57.0,0.0,60.0,11.0,0.0
14393,57.0,27.0,30.0,0.0,0.0
14394,64.0,0.0,30.0,0.0,0.0
14395,93.0,0.0,30.0,0.0,0.0
14396,61.0,0.0,30.0,0.0,0.0
14397,81.0,30.0,30.0,0.0,0.0
14398,44.0,0.0,30.0,0.0,0.0
14399,56.0,0.0,30.0,0.0,0.0
14400,80.0,0.0,30.0,0.0,0.0
14401,92.0,30.0,30.0,0.0,0.0
14402,85.0,0.0,30.0,0.0,0.0
14403,88.0,30.0,30.0,0.0,0.0
14404,64.0,0.0,30.0,0.0,0.0
14405,61.0,0.0,30.0,0.0,0.0
14406,69.0,0.0,30.0,0.0,0.0
14407,57.0,30.0,30.0,0.0,0.0
14408,61.0,0.0,30.0,0.0,0.0
14409,64.0,0.0,30.0,0.0,0.0
14410,81.0,0.0,30.0,0.0,0.0
14411,93.0,15.0,30.0,0.0,0.0
14412,81.0,0.0,60.0,7.0,0.0
14413,26.0,0.0,60.0,5.0,0.0
14414,57.0,0.0,60.0,7.0,0.0
14415,65.0,0.0,60.0,7.0,0.0
14416,38.0,0.0,60.0,3.0,0.0
14417,53.0,0.0,480.0,6.0,0.0
14418,57.0,0.0,960.0,6.0,0.0
14419,77.0,15.0,480.0,2.0,0.0
14420,77.0,0.0,60.0,7.0,0.0
14421,89.0,14.0,30.0,0.0,0.0
14422,93.0,14.0,15.0,0.0,0.0
14423,81.0,13.0,960.0,1.0,0.0
14424,95.0,1.0,15.0,0.0,0.0
14425,93.0,16.0,15.0,0.0,0.0
14426,95.0,0.0,15.0,0.0,0.0
14427,89.0,0.0,15.0,0.0,0.0
14428,93.0,14.0,15.0,0.0,0.0
14429,62.0,0.0,120.0,0.0,0.0
14430,65.0,0.0,120.0,0.0,0.0
14431,69.0,0.0,120.0,0.0,0.0
14432,95.0,14.0,15.0,0.0,0.0
14433,93.0,15.0,15.0,0.0,0.0
14434,89.0,2.0,30.0,0.0,0.0
14435,80.0,13.0,15.0,0.0,0.0
14436,81.0,14.0,15.0,0.0,0.0
14437,83.0,1.0,15.0,0.0,0.0
14438,81.0,16.0,15.0,0.0,0.0
14439,77.0,14.0,15.0,0.0,0.0
14440,83.0,0.0,15.0,0.0,0.0
14441,57.0,0.0,120.0,0.0,0.0
14442,50.0,1.0,120.0,0.0,0.0
14443,77.0,15.0,15.0,0.0,0.0
14444,53.0,2.0,120.0,0.0,0.0
14445,81.0,14.0,15.0,0.0,0.0
14446,83.0,14.0,15.0,0.0,0.0
14447,77.0,14.0,30.0,0.0,0.0
14448,81.0,15.0,15.0,0.0,0.0
14449,68.0,0.0,15.0,0.0,0.0
14450,65.0,1.0,15.0,0.0,0.0
14451,69.0,14.0,15.0,0.0,0.0
14452,71.0,16.0,15.0,0.0,0.0
14453,65.0,13.0,15.0,0.0,0.0
14454,69.0,0.0,15.0,0.0,0.0
14455,71.0,14.0,15.0,0.0,0.0
14456,45.0,0.0,120.0,0.0,0.0
14457,41.0,0.0,120.0,0.0,0.0
14458,69.0,1.0,15.0,0.0,0.0
14459,65.0,13.0,15.0,0.0,0.0
14460,38.0,53.0,120.0,0.0,0.0
14461,71.0,16.0,15.0,0.0,0.0
14462,69.0,2.0,15.0,0.0,0.0
14463,65.0,13.0,15.0,0.0,0.0
14464,56.0,58.0,15.0,0.0,0.0
14465,57.0,1.0,60.0,0.0,0.0
14466,53.0,5.0,60.0,0.0,0.0
14467,29.0,1.0,60.0,0.0,0.0
14468,26.0,1.0,60.0,0.0,0.0
14469,33.0,1.0,60.0,0.0,0.0
14470,64.0,0.0,60.0,7.0,0.0
14471,60.0,0.0,60.0,7.0,0.0
14472,76.0,0.0,60.0,7.0,0.0
14473,88.0,15.0,15.0,0.0,0.0
14474,36.0,0.0,60.0,3.0,0.0
14475,76.0,0.0,480.0,2.0,0.0
14476,52.0,2.0,480.0,6.0,0.0
14477,69.0,0.0,60.0,7.0,0.0
14478,81.0,0.0,60.0,7.0,0.0
14479,93.0,0.0,15.0,0.0,0.0
14480,24.0,0.0,60.0,5.0,0.0
14481,95.0,15.0,15.0,0.0,0.0
14482,93.0,1.0,15.0,0.0,0.0
14483,88.0,14.0,15.0,0.0,0.0
14484,95.0,0.0,15.0,0.0,0.0
14485,93.0,2.0,15.0,0.0,0.0
14486,60.0,0.0,120.0,0.0,0.0
14487,64.0,15.0,120.0,0.0,0.0
14488,69.0,0.0,120.0,0.0,0.0
14489,88.0,13.0,15.0,0.0,0.0
14490,95.0,15.0,15.0,0.0,0.0
14491,93.0,1.0,15.0,0.0,0.0
14492,88.0,14.0,15.0,0.0,0.0
14493,80.0,15.0,15.0,0.0,0.0
14494,76.0,15.0,15.0,0.0,0.0
14495,81.0,0.0,15.0,0.0,0.0
14496,83.0,15.0,15.0,0.0,0.0
14497,81.0,1.0,15.0,0.0,0.0
14498,76.0,14.0,15.0,0.0,0.0
14499,83.0,0.0,15.0,0.0,0.0
14500,57.0,0.0,120.0,0.0,0.0
14501,48.0,1.0,120.0,0.0,0.0
14502,52.0,1.0,120.0,0.0,0.0
14503,81.0,2.0,15.0,0.0,0.0
14504,76.0,13.0,15.0,0.0,0.0
14505,83.0,15.0,15.0,0.0,0.0
14506,81.0,1.0,15.0,0.0,0.0
14507,76.0,14.0,15.0,0.0,0.0
14508,68.0,15.0,15.0,0.0,0.0
14509,64.0,15.0,15.0,0.0,0.0
14510,69.0,0.0,15.0,0.0,0.0
14511,71.0,15.0,15.0,0.0,0.0
14512,69.0,0.0,15.0,0.0,0.0
14513,64.0,13.0,15.0,0.0,0.0
14514,71.0,15.0,15.0,0.0,0.0
14515,45.0,0.0,120.0,0.0,0.0
14516,40.0,1.0,120.0,0.0,0.0
14517,64.0,16.0,15.0,0.0,0.0
14518,69.0,0.0,15.0,0.0,0.0
14519,36.0,53.0,120.0,0.0,0.0
14520,71.0,14.0,15.0,0.0,0.0
14521,64.0,15.0,15.0,0.0,0.0
14522,69.0,0.0,15.0,0.0,0.0
14523,56.0,58.0,15.0,0.0,0.0
14524,57.0,0.0,60.0,0.0,0.0
14525,52.0,5.0,60.0,0.0,0.0
14526,28.0,1.0,60.0,0.0,0.0
14527,24.0,1.0,60.0,0.0,0.0
14528,33.0,1.0,60.0,0.0,0.0
14529,41.0,0.0,15.0,0.0,0.0
14530,38.0,0.0,15.0,0.0,0.0
14531,74.0,0.0,480.0,2.0,0.0
14532,77.0,0.0,480.0,1.0,0.0
14533,53.0,0.0,480.0,6.0,0.0
14534,32.0,0.0,480.0,3.0,0.0
14535,50.0,0.0,480.0,6.0,0.0
14536,50.0,0.0,15.0,0.0,0.0
14537,53.0,15.0,15.0,0.0,0.0
14538,43.0,0.0,15.0,0.0,0.0
14539,55.0,15.0,15.0,0.0,0.0
14540,41.0,15.0,15.0,0.0,0.0
14541,38.0,0.0,15.0,0.0,0.0
14542,50.0,0.0,15.0,0.0,0.0
14543,53.0,0.0,15.0,0.0,0.0
14544,55.0,0.0,15.0,0.0,0.0
14545,43.0,15.0,15.0,0.0,0.0
14546,38.0,0.0,15.0,0.0,0.0
14547,41.0,0.0,15.0,0.0,0.0
14548,50.0,0.0,15.0,0.0,0.0
14549,53.0,16.0,15.0,0.0,0.0
14550,43.0,14.0,15.0,0.0,0.0
14551,55.0,0.0,15.0,0.0,0.0
14552,38.0,15.0,15.0,0.0,0.0
14553,41.0,0.0,15.0,0.0,0.0
14554,50.0,0.0,15.0,0.0,0.0
14555,53.0,0.0,15.0,0.0,0.0
14556,49.0,0.0,15.0,0.0,0.0
14557,37.0,15.0,15.0,0.0,0.0
14558,65.0,5.0,40.0,7.0,0.0
14559,53.0,0.0,15.0,0.0,0.0
14560,50.0,0.0,15.0,0.0,0.0
14561,53.0,0.0,40.0,7.0,0.0
14562,38.0,0.0,15.0,0.0,0.0
14563,41.0,15.0,15.0,0.0,0.0
14564,55.0,0.0,15.0,0.0,0.0
14565,43.0,10.0,15.0,0.0,0.0
14566,38.0,0.0,15.0,0.0,0.0
14567,41.0,0.0,15.0,0.0,0.0
14568,50.0,0.0,15.0,0.0,0.0
14569,53.0,15.0,15.0,0.0,0.0
14570,64.0,11.0,40.0,7.0,0.0
14571,52.0,0.0,40.0,7.0,0.0
14572,55.0,0.0,15.0,0.0,0.0
14573,43.0,15.0,15.0,0.0,0.0
14574,38.0,0.0,15.0,0.0,0.0
14575,41.0,0.0,15.0,0.0,0.0
14576,53.0,5.0,15.0,0.0,0.0
14577,50.0,0.0,15.0,0.0,0.0
14578,55.0,0.0,15.0,0.0,0.0
14579,43.0,14.0,15.0,0.0,0.0
14580,50.0,0.0,40.0,7.0,0.0
14581,62.0,15.0,40.0,7.0,0.0
14582,50.0,0.0,15.0,0.0,0.0
14583,53.0,15.0,15.0,0.0,0.0
14584,38.0,0.0,15.0,0.0,0.0
14585,41.0,0.0,15.0,0.0,0.0
14586,37.0,0.0,15.0,0.0,0.0
14587,49.0,0.0,15.0,0.0,0.0
14588,38.0,0.0,15.0,0.0,0.0
14589,41.0,15.0,15.0,0.0,0.0
14590,50.0,0.0,15.0,0.0,0.0
14591,53.0,0.0,15.0,0.0,0.0
14592,55.0,15.0,15.0,0.0,0.0
14593,43.0,0.0,15.0,0.0,0.0
14594,53.0,0.0,15.0,0.0,0.0
14595,50.0,0.0,15.0,0.0,0.0
14596,41.0,0.0,15.0,0.0,0.0
14597,38.0,15.0,15.0,0.0,0.0
14598,43.0,15.0,15.0,0.0,0.0
14599,55.0,0.0,15.0,0.0,0.0
14600,53.0,16.0,15.0,0.0,0.0
14601,38.0,0.0,15.0,0.0,0.0
14602,50.0,0.0,15.0,0.0,0.0
14603,41.0,0.0,15.0,0.0,0.0
14604,55.0,14.0,15.0,0.0,0.0
14605,43.0,0.0,15.0,0.0,0.0
14606,53.0,0.0,15.0,0.0,0.0
14607,50.0,0.0,15.0,0.0,0.0
14608,38.0,15.0,15.0,0.0,0.0
14609,41.0,0.0,15.0,0.0,0.0
14610,37.0,15.0,15.0,0.0,0.0
14611,49.0,0.0,15.0,0.0,0.0
14612,65.0,5.0,40.0,7.0,0.0
14613,53.0,0.0,15.0,0.0,0.0
14614,38.0,0.0,15.0,0.0,0.0
14615,77.0,0.0,40.0,7.0,0.0
14616,41.0,0.0,15.0,0.0,0.0
14617,50.0,15.0,15.0,0.0,0.0
14618,43.0,10.0,15.0,0.0,0.0
14619,55.0,0.0,15.0,0.0,0.0
14620,50.0,0.0,15.0,0.0,0.0
14621,53.0,15.0,15.0,0.0,0.0
14622,38.0,0.0,15.0,0.0,0.0
14623,41.0,0.0,15.0,0.0,0.0
14624,76.0,11.0,40.0,7.0,0.0
14625,64.0,0.0,40.0,7.0,0.0
14626,55.0,0.0,15.0,0.0,0.0
14627,43.0,15.0,15.0,0.0,0.0
14628,50.0,0.0,15.0,0.0,0.0
14629,53.0,0.0,15.0,0.0,0.0
14630,38.0,5.0,15.0,0.0,0.0
14631,41.0,0.0,15.0,0.0,0.0
14632,43.0,0.0,15.0,0.0,0.0
14633,55.0,14.0,15.0,0.0,0.0
14634,62.0,0.0,40.0,7.0,0.0
14635,74.0,0.0,40.0,7.0,0.0
14636,41.0,0.0,15.0,0.0,0.0
14637,53.0,0.0,15.0,0.0,0.0
14638,38.0,0.0,15.0,0.0,0.0
14639,50.0,15.0,15.0,0.0,0.0
14640,47.0,0.0,15.0,0.0,0.0
14641,35.0,15.0,15.0,0.0,0.0
14642,49.0,0.0,120.0,6.0,0.0
14643,76.0,0.0,120.0,7.0,0.0
14644,64.0,0.0,120.0,7.0,0.0
14645,73.0,15.0,120.0,2.0,0.0
14646,33.0,60.0,360.0,3.0,0.0
14647,76.0,0.0,120.0,1.0,0.0
14648,37.0,0.0,15.0,0.0,0.0
14649,52.0,0.0,15.0,0.0,0.0
14650,52.0,0.0,120.0,6.0,0.0
14651,49.0,15.0,15.0,0.0,0.0
14652,40.0,0.0,15.0,0.0,0.0
14653,45.0,0.0,15.0,0.0,0.0
14654,33.0,15.0,15.0,0.0,0.0
14655,37.0,0.0,15.0,0.0,0.0
14656,49.0,15.0,15.0,0.0,0.0
14657,52.0,15.0,15.0,0.0,0.0
14658,40.0,0.0,15.0,0.0,0.0
14659,45.0,0.0,15.0,0.0,0.0
14660,45.0,0.0,15.0,0.0,0.0
14661,57.0,15.0,15.0,0.0,0.0
14662,61.0,15.0,15.0,0.0,0.0
14663,49.0,0.0,15.0,0.0,0.0
14664,52.0,0.0,15.0,0.0,0.0
14665,64.0,0.0,15.0,0.0,0.0
14666,81.0,0.0,360.0,7.0,0.0
14667,69.0,0.0,15.0,0.0,0.0
14668,45.0,15.0,15.0,0.0,0.0
14669,57.0,15.0,15.0,0.0,0.0
14670,49.0,0.0,15.0,0.0,0.0
14671,61.0,15.0,15.0,0.0,0.0
14672,52.0,15.0,15.0,0.0,0.0
14673,64.0,0.0,15.0,0.0,0.0
14674,57.0,0.0,15.0,0.0,0.0
14675,69.0,15.0,15.0,0.0,0.0
14676,57.0,15.0,15.0,0.0,0.0
14677,61.0,15.0,15.0,0.0,0.0
14678,73.0,0.0,15.0,0.0,0.0
14679,76.0,15.0,15.0,0.0,0.0
14680,64.0,0.0,15.0,0.0,0.0
14681,81.0,15.0,15.0,0.0,0.0
14682,69.0,0.0,15.0,0.0,0.0
14683,69.0,15.0,15.0,0.0,0.0
14684,57.0,0.0,15.0,0.0,0.0
14685,73.0,15.0,15.0,0.0,0.0
14686,61.0,0.0,15.0,0.0,0.0
14687,64.0,15.0,15.0,0.0,0.0
14688,76.0,0.0,15.0,0.0,0.0
14689,69.0,15.0,15.0,0.0,0.0
14690,81.0,0.0,15.0,0.0,0.0
14691,85.0,15.0,15.0,0.0,0.0
14692,73.0,0.0,15.0,0.0,0.0
14693,76.0,0.0,15.0,0.0,0.0
14694,88.0,0.0,15.0,0.0,0.0
14695,81.0,0.0,60.0,0.0,0.0
14696,93.0,60.0,60.0,0.0,0.0
14697,69.0,0.0,960.0,4.0,0.0
14698,50.0,0.0,60.0,3.0,0.0
14699,78.0,15.0,480.0,2.0,0.0
14700,57.0,0.0,60.0,7.0,0.0
14701,69.0,15.0,15.0,7.0,0.0
14702,38.0,15.0,60.0,5.0,0.0
14703,54.0,0.0,480.0,6.0,0.0
14704,50.0,0.0,480.0,6.0,0.0
14705,66.0,0.0,480.0,4.0,0.0
14706,81.0,0.0,60.0,7.0,0.0
14707,81.0,0.0,960.0,1.0,0.0
14708,66.0,0.0,60.0,7.0,0.0
14709,62.0,0.0,60.0,7.0,0.0
14710,93.0,14.0,15.0,0.0,0.0
14711,95.0,1.0,15.0,0.0,0.0
14712,93.0,16.0,15.0,0.0,0.0
14713,90.0,14.0,15.0,0.0,0.0
14714,95.0,0.0,15.0,0.0,0.0
14715,93.0,15.0,15.0,0.0,0.0
14716,90.0,1.0,30.0,0.0,0.0
14717,62.0,0.0,120.0,0.0,0.0
14718,69.0,15.0,120.0,0.0,0.0
14719,66.0,0.0,120.0,0.0,0.0
14720,95.0,14.0,15.0,0.0,0.0
14721,90.0,2.0,30.0,0.0,0.0
14722,93.0,15.0,15.0,0.0,0.0
14723,80.0,13.0,15.0,0.0,0.0
14724,78.0,14.0,30.0,0.0,0.0
14725,81.0,14.0,15.0,0.0,0.0
14726,83.0,1.0,15.0,0.0,0.0
14727,81.0,16.0,15.0,0.0,0.0
14728,83.0,0.0,15.0,0.0,0.0
14729,50.0,1.0,120.0,0.0,0.0
14730,57.0,0.0,120.0,0.0,0.0
14731,54.0,2.0,120.0,0.0,0.0
14732,78.0,0.0,15.0,0.0,0.0
14733,81.0,15.0,15.0,0.0,0.0
14734,83.0,14.0,15.0,0.0,0.0
14735,81.0,15.0,15.0,0.0,0.0
14736,78.0,15.0,30.0,0.0,0.0
14737,68.0,0.0,15.0,0.0,0.0
14738,66.0,14.0,15.0,0.0,0.0
14739,69.0,0.0,15.0,0.0,0.0
14740,71.0,16.0,15.0,0.0,0.0
14741,66.0,13.0,15.0,0.0,0.0
14742,69.0,0.0,15.0,0.0,0.0
14743,71.0,14.0,15.0,0.0,0.0
14744,45.0,0.0,120.0,0.0,0.0
14745,42.0,0.0,120.0,0.0,0.0
14746,66.0,14.0,15.0,0.0,0.0
14747,69.0,0.0,15.0,0.0,0.0
14748,38.0,54.0,120.0,0.0,0.0
14749,71.0,16.0,15.0,0.0,0.0
14750,66.0,15.0,15.0,0.0,0.0
14751,69.0,0.0,15.0,0.0,0.0
14752,56.0,58.0,15.0,0.0,0.0
14753,57.0,2.0,60.0,0.0,0.0
14754,54.0,4.0,60.0,0.0,0.0
14755,26.0,1.0,60.0,0.0,0.0
14756,33.0,1.0,60.0,0.0,0.0
14757,30.0,0.0,60.0,0.0,0.0
14758,81.0,15.0,60.0,7.0,0.0
14759,64.0,0.0,60.0,7.0,0.0
14760,64.0,0.0,480.0,4.0,0.0
14761,33.0,0.0,60.0,5.0,0.0
14762,93.0,15.0,15.0,0.0,0.0
14763,88.0,0.0,15.0,0.0,0.0
14764,45.0,0.0,60.0,3.0,0.0
14765,61.0,0.0,60.0,7.0,0.0
14766,76.0,0.0,480.0,2.0,0.0
14767,49.0,0.0,480.0,6.0,0.0
14768,52.0,0.0,480.0,6.0,0.0
14769,57.0,0.0,60.0,7.0,0.0
14770,69.0,0.0,60.0,7.0,0.0
14771,95.0,15.0,15.0,0.0,0.0
14772,93.0,1.0,15.0,0.0,0.0
14773,88.0,14.0,15.0,0.0,0.0
14774,95.0,0.0,15.0,0.0,0.0
14775,93.0,2.0,15.0,0.0,0.0
14776,61.0,0.0,120.0,0.0,0.0
14777,64.0,0.0,120.0,0.0,0.0
14778,69.0,15.0,120.0,0.0,0.0
14779,88.0,13.0,15.0,0.0,0.0
14780,95.0,15.0,15.0,0.0,0.0
14781,93.0,1.0,15.0,0.0,0.0
14782,88.0,14.0,15.0,0.0,0.0
14783,80.0,15.0,15.0,0.0,0.0
14784,76.0,15.0,15.0,0.0,0.0
14785,81.0,0.0,15.0,0.0,0.0
14786,83.0,15.0,15.0,0.0,0.0
14787,81.0,1.0,15.0,0.0,0.0
14788,76.0,14.0,15.0,0.0,0.0
14789,83.0,0.0,15.0,0.0,0.0
14790,57.0,0.0,15.0,0.0,0.0
14791,52.0,1.0,120.0,0.0,0.0
14792,49.0,15.0,120.0,0.0,0.0
14793,81.0,2.0,15.0,0.0,0.0
14794,76.0,13.0,15.0,0.0,0.0
14795,83.0,15.0,15.0,0.0,0.0
14796,81.0,1.0,15.0,0.0,0.0
14797,76.0,14.0,15.0,0.0,0.0
14798,68.0,15.0,15.0,0.0,0.0
14799,64.0,0.0,15.0,0.0,0.0
14800,69.0,15.0,15.0,0.0,0.0
14801,71.0,15.0,15.0,0.0,0.0
14802,64.0,13.0,15.0,0.0,0.0
14803,69.0,0.0,15.0,0.0,0.0
14804,71.0,0.0,15.0,0.0,0.0
14805,45.0,0.0,15.0,0.0,0.0
14806,40.0,0.0,120.0,0.0,0.0
14807,37.0,0.0,120.0,0.0,0.0
14808,69.0,0.0,15.0,0.0,0.0
14809,64.0,16.0,15.0,0.0,0.0
14810,71.0,14.0,15.0,0.0,0.0
14811,64.0,0.0,15.0,0.0,0.0
14812,69.0,15.0,15.0,0.0,0.0
14813,56.0,58.0,15.0,0.0,0.0
14814,57.0,1.0,60.0,0.0,0.0
14815,52.0,1.0,60.0,0.0,0.0
14816,28.0,2.0,60.0,0.0,0.0
14817,33.0,57.0,15.0,0.0,0.0
14818,21.0,0.0,60.0,0.0,0.0
14819,25.0,15.0,60.0,0.0,0.0
14820,74.0,15.0,120.0,2.0,0.0
14821,78.0,0.0,120.0,1.0,0.0
14822,66.0,0.0,120.0,4.0,0.0
14823,62.0,0.0,120.0,4.0,0.0
14824,26.0,0.0,960.0,5.0,0.0
14825,66.0,0.0,60.0,7.0,0.0
14826,38.0,15.0,960.0,3.0,0.0
14827,50.0,0.0,120.0,6.0,0.0
14828,54.0,0.0,120.0,6.0,0.0
14829,54.0,0.0,60.0,7.0,0.0
14830,54.0,15.0,600.0,8.0,0.0
14831,42.0,0.0,4800.0,8.0,0.0
14832,42.0,0.0,15.0,0.0,0.0
14833,38.0,0.0,15.0,0.0,0.0
14834,26.0,0.0,15.0,0.0,0.0
14835,30.0,15.0,15.0,0.0,0.0
14836,32.0,0.0,15.0,0.0,0.0
14837,44.0,15.0,15.0,0.0,0.0
14838,42.0,15.0,15.0,0.0,0.0
14839,30.0,0.0,15.0,0.0,0.0
14840,38.0,0.0,15.0,0.0,0.0
14841,26.0,0.0,15.0,0.0,0.0
14842,44.0,0.0,15.0,0.0,0.0
14843,32.0,0.0,15.0,0.0,0.0
14844,42.0,16.0,15.0,0.0,0.0
14845,38.0,0.0,15.0,0.0,0.0
14846,26.0,0.0,15.0,0.0,0.0
14847,30.0,0.0,15.0,0.0,0.0
14848,44.0,14.0,15.0,0.0,0.0
14849,32.0,0.0,15.0,0.0,0.0
14850,42.0,0.0,15.0,0.0,0.0
14851,38.0,15.0,15.0,0.0,0.0
14852,26.0,0.0,15.0,0.0,0.0
14853,30.0,0.0,15.0,0.0,0.0
14854,37.0,0.0,15.0,0.0,0.0
14855,25.0,0.0,15.0,0.0,0.0
14856,42.0,15.0,15.0,0.0,0.0
14857,30.0,0.0,15.0,0.0,0.0
14858,38.0,0.0,15.0,0.0,0.0
14859,26.0,0.0,15.0,0.0,0.0
14860,32.0,15.0,15.0,0.0,0.0
14861,44.0,0.0,15.0,0.0,0.0
14862,38.0,0.0,15.0,0.0,0.0
14863,26.0,15.0,15.0,0.0,0.0
14864,42.0,0.0,15.0,0.0,0.0
14865,30.0,0.0,15.0,0.0,0.0
14866,44.0,15.0,15.0,0.0,0.0
14867,32.0,0.0,15.0,0.0,0.0
14868,30.0,0.0,15.0,0.0,0.0
14869,42.0,0.0,15.0,0.0,0.0
14870,38.0,16.0,15.0,0.0,0.0
14871,26.0,0.0,15.0,0.0,0.0
14872,32.0,14.0,15.0,0.0,0.0
14873,44.0,0.0,15.0,0.0,0.0
14874,38.0,0.0,15.0,0.0,0.0
14875,26.0,15.0,15.0,0.0,0.0
14876,30.0,0.0,15.0,0.0,0.0
14877,42.0,0.0,15.0,0.0,0.0
14878,25.0,15.0,15.0,0.0,0.0
14879,37.0,0.0,15.0,0.0,0.0
14880,30.0,0.0,15.0,0.0,0.0
14881,26.0,0.0,15.0,0.0,0.0
14882,38.0,0.0,15.0,0.0,0.0
14883,42.0,15.0,15.0,0.0,0.0
14884,32.0,0.0,15.0,0.0,0.0
14885,44.0,15.0,15.0,0.0,0.0
14886,26.0,15.0,15.0,0.0,0.0
14887,30.0,0.0,15.0,0.0,0.0
14888,42.0,0.0,15.0,0.0,0.0
14889,38.0,0.0,15.0,0.0,0.0
14890,32.0,0.0,15.0,0.0,0.0
14891,44.0,15.0,15.0,0.0,0.0
14892,38.0,0.0,15.0,0.0,0.0
14893,26.0,16.0,15.0,0.0,0.0
14894,30.0,0.0,15.0,0.0,0.0
14895,42.0,0.0,15.0,0.0,0.0
14896,44.0,14.0,15.0,0.0,0.0
14897,32.0,0.0,15.0,0.0,0.0
14898,30.0,0.0,15.0,0.0,0.0
14899,38.0,0.0,15.0,0.0,0.0
14900,42.0,15.0,15.0,0.0,0.0
14901,26.0,0.0,15.0,0.0,0.0
14902,37.0,0.0,15.0,0.0,0.0
14903,25.0,15.0,15.0,0.0,0.0
14904,42.0,0.0,15.0,0.0,0.0
14905,30.0,15.0,15.0,0.0,0.0
14906,38.0,0.0,15.0,0.0,0.0
14907,26.0,0.0,15.0,0.0,0.0
14908,32.0,15.0,15.0,0.0,0.0
14909,44.0,0.0,15.0,0.0,0.0
14910,38.0,15.0,15.0,0.0,0.0
14911,26.0,0.0,15.0,0.0,0.0
14912,30.0,0.0,15.0,0.0,0.0
14913,42.0,0.0,15.0,0.0,0.0
14914,32.0,0.0,15.0,0.0,0.0
14915,44.0,15.0,15.0,0.0,0.0
14916,38.0,0.0,15.0,0.0,0.0
14917,30.0,16.0,15.0,0.0,0.0
14918,26.0,0.0,15.0,0.0,0.0
14919,42.0,0.0,15.0,0.0,0.0
14920,32.0,14.0,15.0,0.0,0.0
14921,44.0,0.0,15.0,0.0,0.0
14922,30.0,0.0,15.0,0.0,0.0
14923,38.0,15.0,15.0,0.0,0.0
14924,26.0,0.0,15.0,0.0,0.0
14925,42.0,0.0,15.0,0.0,0.0
14926,25.0,15.0,15.0,0.0,0.0
14927,37.0,0.0,15.0,0.0,0.0
14928,42.0,0.0,15.0,0.0,0.0
14929,38.0,0.0,15.0,0.0,0.0
14930,26.0,15.0,15.0,0.0,0.0
14931,30.0,0.0,15.0,0.0,0.0
14932,44.0,0.0,15.0,0.0,0.0
14933,32.0,15.0,15.0,0.0,0.0
14934,30.0,0.0,15.0,0.0,0.0
14935,38.0,15.0,15.0,0.0,0.0
14936,26.0,0.0,15.0,0.0,0.0
14937,42.0,0.0,15.0,0.0,0.0
14938,44.0,15.0,15.0,0.0,0.0
14939,32.0,0.0,15.0,0.0,0.0
14940,42.0,0.0,15.0,0.0,0.0
14941,38.0,16.0,15.0,0.0,0.0
14942,26.0,0.0,15.0,0.0,0.0
14943,30.0,0.0,15.0,0.0,0.0
14944,32.0,0.0,15.0,0.0,0.0
14945,44.0,14.0,15.0,0.0,0.0
14946,42.0,15.0,15.0,0.0,0.0
14947,38.0,0.0,15.0,0.0,0.0
14948,26.0,0.0,15.0,0.0,0.0
14949,30.0,0.0,15.0,0.0,0.0
14950,25.0,0.0,15.0,0.0,0.0
14951,37.0,0.0,15.0,0.0,0.0
14952,56.0,15.0,120.0,8.0,0.0
14953,42.0,0.0,15.0,0.0,0.0
14954,38.0,15.0,15.0,0.0,0.0
14955,26.0,0.0,15.0,0.0,0.0
14956,30.0,0.0,15.0,0.0,0.0
14957,44.0,15.0,15.0,0.0,0.0
14958,32.0,0.0,15.0,0.0,0.0
14959,42.0,0.0,15.0,0.0,0.0
14960,38.0,0.0,15.0,0.0,0.0
14961,26.0,15.0,15.0,0.0,0.0
14962,30.0,0.0,15.0,0.0,0.0
14963,44.0,15.0,15.0,0.0,0.0
14964,32.0,0.0,15.0,0.0,0.0
14965,38.0,0.0,15.0,0.0,0.0
14966,30.0,0.0,15.0,0.0,0.0
14967,26.0,16.0,15.0,0.0,0.0
14968,42.0,0.0,15.0,0.0,0.0
14969,44.0,14.0,15.0,0.0,0.0
14970,32.0,0.0,15.0,0.0,0.0
14971,42.0,15.0,15.0,0.0,0.0
14972,38.0,0.0,15.0,0.0,0.0
14973,26.0,0.0,15.0,0.0,0.0
14974,30.0,0.0,15.0,0.0,0.0
14975,37.0,0.0,15.0,0.0,0.0
14976,25.0,0.0,15.0,0.0,0.0
14977,26.0,0.0,15.0,0.0,0.0
14978,38.0,0.0,15.0,0.0,0.0
14979,42.0,15.0,15.0,0.0,0.0
14980,30.0,0.0,15.0,0.0,0.0
14981,58.0,15.0,120.0,8.0,0.0
14982,44.0,15.0,15.0,0.0,0.0
14983,32.0,0.0,15.0,0.0,0.0
14984,42.0,15.0,15.0,0.0,0.0
14985,38.0,0.0,15.0,0.0,0.0
14986,26.0,0.0,15.0,0.0,0.0
14987,30.0,0.0,15.0,0.0,0.0
14988,32.0,0.0,15.0,0.0,0.0
14989,44.0,15.0,15.0,0.0,0.0
14990,42.0,0.0,15.0,0.0,0.0
14991,38.0,0.0,15.0,0.0,0.0
14992,26.0,16.0,15.0,0.0,0.0
14993,30.0,0.0,15.0,0.0,0.0
14994,44.0,14.0,15.0,0.0,0.0
14995,32.0,0.0,15.0,0.0,0.0
14996,30.0,0.0,15.0,0.0,0.0
14997,38.0,0.0,15.0,0.0,0.0
14998,42.0,15.0,15.0,0.0,0.0
14999,26.0,0.0,15.0,0.0,0.0
15000,37.0,0.0,15.0,0.0,0.0
15001,25.0,0.0,15.0,0.0,0.0
15002,30.0,0.0,15.0,0.0,0.0
15003,26.0,15.0,15.0,0.0,0.0
15004,38.0,0.0,15.0,0.0,0.0
15005,59.0,5.0,40.0,8.0,0.0
15006,42.0,0.0,15.0,0.0,0.0
15007,44.0,10.0,15.0,0.0,0.0
15008,32.0,0.0,15.0,0.0,0.0
15009,38.0,0.0,15.0,0.0,0.0
15010,26.0,15.0,15.0,0.0,0.0
15011,30.0,0.0,15.0,0.0,0.0
15012,42.0,0.0,15.0,0.0,0.0
15013,58.0,11.0,40.0,8.0,0.0
15014,44.0,15.0,15.0,0.0,0.0
15015,32.0,0.0,15.0,0.0,0.0
15016,38.0,0.0,15.0,0.0,0.0
15017,30.0,0.0,15.0,0.0,0.0
15018,26.0,5.0,15.0,0.0,0.0
15019,42.0,0.0,15.0,0.0,0.0
15020,32.0,0.0,15.0,0.0,0.0
15021,44.0,14.0,15.0,0.0,0.0
15022,56.0,0.0,40.0,8.0,0.0
15023,42.0,15.0,15.0,0.0,0.0
15024,38.0,0.0,15.0,0.0,0.0
15025,26.0,0.0,15.0,0.0,0.0
15026,30.0,0.0,15.0,0.0,0.0
15027,24.0,0.0,15.0,0.0,0.0
15028,36.0,0.0,15.0,0.0,0.0
15029,58.0,0.0,120.0,8.0,0.0
15030,37.0,0.0,60.0,0.0,0.0
15031,25.0,0.0,120.0,5.0,0.0
15032,25.0,0.0,60.0,0.0,0.0
15033,42.0,15.0,15.0,0.0,0.0
15034,37.0,0.0,120.0,3.0,0.0
15035,30.0,0.0,15.0,0.0,0.0
15036,32.0,15.0,15.0,0.0,0.0
15037,44.0,0.0,15.0,0.0,0.0
15038,30.0,15.0,15.0,0.0,0.0
15039,42.0,0.0,15.0,0.0,0.0
15040,44.0,15.0,15.0,0.0,0.0
15041,32.0,0.0,15.0,0.0,0.0
15042,30.0,15.0,15.0,0.0,0.0
15043,42.0,0.0,15.0,0.0,0.0
15044,32.0,15.0,15.0,0.0,0.0
15045,44.0,0.0,15.0,0.0,0.0
15046,30.0,15.0,15.0,0.0,0.0
15047,42.0,0.0,15.0,0.0,0.0
15048,29.0,0.0,15.0,0.0,0.0
15049,41.0,15.0,15.0,0.0,0.0
15050,30.0,15.0,15.0,0.0,0.0
15051,59.0,0.0,40.0,8.0,0.0
15052,38.0,0.0,120.0,3.0,0.0
15053,71.0,5.0,40.0,2.0,0.0
15054,26.0,0.0,120.0,5.0,0.0
15055,42.0,0.0,15.0,0.0,0.0
15056,32.0,10.0,15.0,0.0,0.0
15057,44.0,0.0,15.0,0.0,0.0
15058,42.0,0.0,15.0,0.0,0.0
15059,30.0,15.0,15.0,0.0,0.0
15060,58.0,10.0,40.0,8.0,0.0
15061,70.0,0.0,40.0,2.0,0.0
15062,44.0,15.0,15.0,0.0,0.0
15063,32.0,0.0,15.0,0.0,0.0
15064,30.0,5.0,15.0,0.0,0.0
15065,42.0,0.0,15.0,0.0,0.0
15066,32.0,15.0,15.0,0.0,0.0
15067,44.0,0.0,15.0,0.0,0.0
15068,68.0,15.0,40.0,2.0,0.0
15069,56.0,0.0,40.0,8.0,0.0
15070,30.0,0.0,15.0,0.0,0.0
15071,42.0,15.0,15.0,0.0,0.0
15072,29.0,0.0,15.0,0.0,0.0
15073,41.0,0.0,15.0,0.0,0.0
15074,70.0,0.0,120.0,2.0,0.0
15075,25.0,0.0,120.0,5.0,0.0
15076,58.0,0.0,120.0,8.0,0.0
15077,30.0,15.0,15.0,0.0,0.0
15078,42.0,0.0,15.0,0.0,0.0
15079,37.0,15.0,120.0,3.0,0.0
15080,32.0,0.0,15.0,0.0,0.0
15081,44.0,15.0,15.0,0.0,0.0
15082,30.0,15.0,15.0,0.0,0.0
15083,42.0,0.0,15.0,0.0,0.0
15084,32.0,15.0,15.0,0.0,0.0
15085,44.0,0.0,15.0,0.0,0.0
15086,30.0,15.0,15.0,0.0,0.0
15087,42.0,0.0,15.0,0.0,0.0
15088,32.0,15.0,15.0,0.0,0.0
15089,44.0,0.0,15.0,0.0,0.0
15090,30.0,15.0,15.0,0.0,0.0
15091,42.0,0.0,15.0,0.0,0.0
15092,29.0,0.0,15.0,0.0,0.0
15093,41.0,0.0,15.0,0.0,0.0
15094,30.0,0.0,15.0,0.0,0.0
15095,42.0,15.0,15.0,0.0,0.0
15096,71.0,0.0,40.0,2.0,0.0
15097,59.0,0.0,40.0,8.0,0.0
15098,83.0,5.0,40.0,1.0,0.0
15099,38.0,0.0,120.0,3.0,0.0
15100,26.0,15.0,120.0,5.0,0.0
15101,44.0,10.0,15.0,0.0,0.0
15102,32.0,0.0,15.0,0.0,0.0
15103,42.0,0.0,15.0,0.0,0.0
15104,30.0,15.0,15.0,0.0,0.0
15105,58.0,0.0,40.0,8.0,0.0
15106,70.0,10.0,40.0,2.0,0.0
15107,82.0,0.0,40.0,1.0,0.0
15108,32.0,15.0,15.0,0.0,0.0
15109,44.0,0.0,15.0,0.0,0.0
15110,42.0,5.0,15.0,0.0,0.0
15111,30.0,0.0,15.0,0.0,0.0
15112,44.0,0.0,15.0,0.0,0.0
15113,32.0,15.0,15.0,0.0,0.0
15114,80.0,0.0,40.0,1.0,0.0
15115,56.0,0.0,40.0,8.0,0.0
15116,68.0,0.0,40.0,2.0,0.0
15117,30.0,0.0,15.0,0.0,0.0
15118,42.0,15.0,15.0,0.0,0.0
15119,29.0,0.0,15.0,0.0,0.0
15120,41.0,0.0,15.0,0.0,0.0
15121,42.0,10.0,20.0,0.0,0.0
15122,30.0,5.0,15.0,0.0,0.0
15123,58.0,15.0,120.0,8.0,0.0
15124,82.0,0.0,120.0,1.0,0.0
15125,25.0,0.0,360.0,5.0,0.0
15126,37.0,0.0,360.0,3.0,0.0
15127,70.0,0.0,120.0,2.0,0.0
15128,32.0,10.0,15.0,0.0,0.0
15129,54.0,5.0,20.0,0.0,0.0
15130,30.0,15.0,15.0,0.0,0.0
15131,41.0,0.0,20.0,0.0,0.0
15132,32.0,15.0,15.0,0.0,0.0
15133,53.0,10.0,20.0,0.0,0.0
15134,30.0,5.0,15.0,0.0,0.0
15135,32.0,10.0,15.0,0.0,0.0
15136,42.0,5.0,20.0,0.0,0.0
15137,30.0,15.0,15.0,0.0,0.0
15138,54.0,0.0,20.0,0.0,0.0
15139,29.0,0.0,15.0,0.0,0.0
15140,30.0,5.0,15.0,0.0,0.0
15141,73.0,0.0,360.0,2.0,0.0
15142,85.0,0.0,360.0,1.0,0.0
15143,61.0,0.0,480.0,8.0,0.0
15144,43.0,10.0,20.0,0.0,0.0
15145,32.0,15.0,15.0,0.0,0.0
15146,30.0,15.0,15.0,0.0,0.0
15147,44.0,15.0,20.0,0.0,0.0
15148,32.0,0.0,15.0,0.0,0.0
15149,56.0,10.0,20.0,0.0,0.0
15150,30.0,5.0,15.0,0.0,0.0
15151,32.0,10.0,15.0,0.0,0.0
15152,45.0,5.0,20.0,0.0,0.0
15153,30.0,15.0,15.0,0.0,0.0
15154,57.0,15.0,20.0,0.0,0.0
15155,29.0,0.0,15.0,0.0,0.0
15156,46.0,10.0,20.0,0.0,0.0
15157,30.0,5.0,15.0,0.0,0.0
15158,32.0,10.0,15.0,0.0,0.0
15159,58.0,5.0,20.0,0.0,0.0
15160,30.0,15.0,15.0,0.0,0.0
15161,45.0,15.0,20.0,0.0,0.0
15162,32.0,0.0,15.0,0.0,0.0
15163,57.0,10.0,20.0,0.0,0.0
15164,30.0,5.0,15.0,0.0,0.0
15165,32.0,10.0,15.0,0.0,0.0
15166,46.0,5.0,20.0,0.0,0.0
15167,30.0,15.0,15.0,0.0,0.0
15168,58.0,15.0,20.0,0.0,0.0
15169,29.0,0.0,15.0,0.0,0.0
15170,38.0,0.0,120.0,3.0,0.0
15171,26.0,0.0,120.0,5.0,0.0
15172,30.0,5.0,15.0,0.0,0.0
15173,47.0,10.0,20.0,0.0,0.0
15174,32.0,10.0,15.0,0.0,0.0
15175,59.0,5.0,20.0,0.0,0.0
15176,30.0,15.0,15.0,0.0,0.0
15177,46.0,15.0,20.0,0.0,0.0
15178,32.0,0.0,15.0,0.0,0.0
15179,58.0,10.0,20.0,0.0,0.0
15180,30.0,5.0,15.0,0.0,0.0
15181,32.0,10.0,15.0,0.0,0.0
15182,44.0,5.0,20.0,0.0,0.0
15183,30.0,15.0,15.0,0.0,0.0
15184,56.0,0.0,20.0,0.0,0.0
15185,29.0,15.0,15.0,0.0,0.0
15186,37.0,0.0,480.0,3.0,0.0
15187,25.0,0.0,480.0,5.0,0.0
15188,46.0,10.0,20.0,0.0,0.0
15189,30.0,5.0,15.0,0.0,0.0
15190,32.0,10.0,15.0,0.0,0.0
15191,58.0,5.0,20.0,0.0,0.0
15192,30.0,15.0,15.0,0.0,0.0
15193,47.0,15.0,20.0,0.0,0.0
15194,32.0,0.0,15.0,0.0,0.0
15195,59.0,10.0,20.0,0.0,0.0
15196,30.0,5.0,15.0,0.0,0.0
15197,32.0,10.0,15.0,0.0,0.0
15198,48.0,5.0,20.0,0.0,0.0
15199,30.0,15.0,15.0,0.0,0.0
15200,60.0,15.0,20.0,0.0,0.0
15201,29.0,0.0,15.0,0.0,0.0
15202,30.0,5.0,15.0,0.0,0.0
15203,49.0,10.0,20.0,0.0,0.0
15204,32.0,10.0,15.0,0.0,0.0
15205,61.0,5.0,20.0,0.0,0.0
15206,30.0,15.0,15.0,0.0,0.0
15207,48.0,15.0,20.0,0.0,0.0
15208,32.0,0.0,15.0,0.0,0.0
15209,60.0,10.0,20.0,0.0,0.0
15210,30.0,5.0,15.0,0.0,0.0
15211,32.0,10.0,15.0,0.0,0.0
15212,49.0,5.0,20.0,0.0,0.0
15213,30.0,15.0,15.0,0.0,0.0
15214,61.0,0.0,20.0,0.0,0.0
15215,29.0,15.0,15.0,0.0,0.0
15216,48.0,10.0,20.0,0.0,0.0
15217,30.0,5.0,15.0,0.0,0.0
15218,32.0,10.0,15.0,0.0,0.0
15219,60.0,5.0,20.0,0.0,0.0
15220,30.0,15.0,15.0,0.0,0.0
15221,61.0,15.0,20.0,0.0,0.0
15222,32.0,0.0,15.0,0.0,0.0
15223,30.0,5.0,15.0,0.0,0.0
15224,73.0,10.0,20.0,0.0,0.0
15225,32.0,10.0,15.0,0.0,0.0
15226,60.0,5.0,20.0,0.0,0.0
15227,30.0,15.0,15.0,0.0,0.0
15228,72.0,15.0,20.0,0.0,0.0
15229,29.0,0.0,15.0,0.0,0.0
15230,61.0,10.0,20.0,0.0,0.0
15231,30.0,5.0,15.0,0.0,0.0
15232,32.0,10.0,15.0,0.0,0.0
15233,73.0,5.0,20.0,0.0,0.0
15234,30.0,15.0,15.0,0.0,0.0
15235,60.0,0.0,20.0,0.0,0.0
15236,32.0,15.0,15.0,0.0,0.0
15237,30.0,5.0,15.0,0.0,0.0
15238,72.0,10.0,20.0,0.0,0.0
15239,32.0,10.0,15.0,0.0,0.0
15240,61.0,5.0,20.0,0.0,0.0
15241,30.0,15.0,15.0,0.0,0.0
15242,73.0,15.0,20.0,0.0,0.0
15243,29.0,0.0,15.0,0.0,0.0
15244,62.0,10.0,20.0,0.0,0.0
15245,35.0,0.0,120.0,5.0,0.0
15246,30.0,5.0,15.0,0.0,0.0
15247,66.0,0.0,120.0,8.0,0.0
15248,35.0,0.0,120.0,3.0,0.0
15249,32.0,10.0,15.0,0.0,0.0
15250,74.0,5.0,20.0,0.0,0.0
15251,30.0,15.0,15.0,0.0,0.0
15252,64.0,15.0,20.0,0.0,0.0
15253,32.0,0.0,15.0,0.0,0.0
15254,30.0,5.0,15.0,0.0,0.0
15255,76.0,10.0,20.0,0.0,0.0
15256,32.0,10.0,15.0,0.0,0.0
15257,65.0,5.0,20.0,0.0,0.0
15258,30.0,15.0,15.0,0.0,0.0
15259,77.0,15.0,20.0,0.0,0.0
15260,29.0,0.0,15.0,0.0,0.0
15261,61.0,0.0,120.0,8.0,0.0
15262,37.0,15.0,120.0,5.0,0.0
15263,37.0,0.0,120.0,3.0,0.0
15264,30.0,5.0,15.0,0.0,0.0
15265,66.0,10.0,20.0,0.0,0.0
15266,32.0,10.0,15.0,0.0,0.0
15267,78.0,5.0,20.0,0.0,0.0
15268,30.0,15.0,15.0,0.0,0.0
15269,65.0,15.0,20.0,0.0,0.0
15270,32.0,0.0,15.0,0.0,0.0
15271,30.0,5.0,15.0,0.0,0.0
15272,77.0,10.0,20.0,0.0,0.0
15273,32.0,10.0,15.0,0.0,0.0
15274,66.0,5.0,20.0,0.0,0.0
15275,30.0,15.0,15.0,0.0,0.0
15276,78.0,0.0,20.0,0.0,0.0
15277,29.0,0.0,15.0,0.0,0.0
15278,65.0,10.0,20.0,0.0,0.0
15279,30.0,5.0,15.0,0.0,0.0
15280,38.0,13.0,240.0,3.0,0.0
15281,26.0,0.0,240.0,5.0,0.0
15282,59.0,0.0,120.0,8.0,0.0
15283,32.0,10.0,15.0,0.0,0.0
15284,77.0,5.0,20.0,0.0,0.0
15285,30.0,15.0,15.0,0.0,0.0
15286,66.0,15.0,20.0,0.0,0.0
15287,32.0,0.0,15.0,0.0,0.0
15288,78.0,10.0,20.0,0.0,0.0
15289,30.0,5.0,15.0,0.0,0.0
15290,32.0,10.0,15.0,0.0,0.0
15291,77.0,5.0,20.0,0.0,0.0
15292,30.0,15.0,15.0,0.0,0.0
15293,89.0,15.0,20.0,0.0,0.0
15294,29.0,0.0,15.0,0.0,0.0
15295,30.0,5.0,15.0,0.0,0.0
15296,78.0,10.0,20.0,0.0,0.0
15297,78.0,0.0,240.0,2.0,0.0
15298,58.0,5.0,40.0,8.0,0.0
15299,66.0,0.0,240.0,4.0,0.0
15300,32.0,10.0,15.0,0.0,0.0
15301,90.0,0.0,20.0,0.0,0.0
15302,30.0,15.0,15.0,0.0,0.0
15303,77.0,15.0,20.0,0.0,0.0
15304,56.0,0.0,40.0,8.0,0.0
15305,32.0,0.0,15.0,0.0,0.0
15306,89.0,10.0,20.0,0.0,0.0
15307,30.0,5.0,15.0,0.0,0.0
15308,32.0,10.0,15.0,0.0,0.0
15309,78.0,5.0,20.0,0.0,0.0
15310,30.0,15.0,15.0,0.0,0.0
15311,90.0,0.0,20.0,0.0,0.0
15312,29.0,0.0,15.0,0.0,0.0
15313,30.0,11.0,15.0,0.0,0.0
15314,35.0,13.0,120.0,5.0,0.0
15315,35.0,0.0,120.0,3.0,0.0
15316,89.0,2.0,15.0,0.0,0.0
15317,77.0,4.0,15.0,0.0,0.0
15318,32.0,9.0,15.0,0.0,0.0
15319,89.0,6.0,15.0,0.0,0.0
15320,30.0,7.0,15.0,0.0,0.0
15321,88.0,8.0,15.0,0.0,0.0
15322,32.0,5.0,15.0,0.0,0.0
15323,76.0,10.0,15.0,0.0,0.0
15324,30.0,3.0,15.0,0.0,0.0
15325,88.0,12.0,15.0,0.0,0.0
15326,32.0,1.0,15.0,0.0,0.0
15327,87.0,13.0,15.0,0.0,0.0
15328,30.0,15.0,15.0,0.0,0.0
15329,75.0,1.0,15.0,0.0,0.0
15330,87.0,0.0,15.0,0.0,0.0
15331,29.0,0.0,15.0,0.0,0.0
15332,61.0,0.0,120.0,4.0,0.0
15333,86.0,2.0,15.0,0.0,0.0
15334,73.0,0.0,120.0,2.0,0.0
15335,30.0,11.0,15.0,0.0,0.0
15336,37.0,0.0,120.0,3.0,0.0
15337,37.0,0.0,120.0,5.0,0.0
15338,74.0,4.0,15.0,0.0,0.0
15339,32.0,9.0,15.0,0.0,0.0
15340,86.0,6.0,15.0,0.0,0.0
15341,30.0,7.0,15.0,0.0,0.0
15342,85.0,8.0,15.0,0.0,0.0
15343,32.0,5.0,15.0,0.0,0.0
15344,73.0,10.0,15.0,0.0,0.0
15345,30.0,3.0,15.0,0.0,0.0
15346,85.0,12.0,15.0,0.0,0.0
15347,32.0,1.0,15.0,0.0,0.0
15348,84.0,13.0,15.0,0.0,0.0
15349,30.0,15.0,15.0,0.0,0.0
15350,72.0,1.0,15.0,0.0,0.0
15351,84.0,13.0,15.0,0.0,0.0
15352,29.0,0.0,15.0,0.0,0.0
15353,83.0,2.0,15.0,0.0,0.0
15354,26.0,0.0,240.0,5.0,0.0
15355,38.0,0.0,240.0,3.0,0.0
15356,30.0,11.0,15.0,0.0,0.0
15357,71.0,4.0,15.0,0.0,0.0
15358,32.0,9.0,15.0,0.0,0.0
15359,83.0,6.0,15.0,0.0,0.0
15360,30.0,7.0,15.0,0.0,0.0
15361,82.0,8.0,15.0,0.0,0.0
15362,32.0,5.0,15.0,0.0,0.0
15363,70.0,10.0,15.0,0.0,0.0
15364,30.0,3.0,15.0,0.0,0.0
15365,82.0,12.0,15.0,0.0,0.0
15366,32.0,1.0,15.0,0.0,0.0
15367,81.0,13.0,15.0,0.0,0.0
15368,30.0,15.0,15.0,0.0,0.0
15369,69.0,1.0,15.0,0.0,0.0
15370,81.0,13.0,15.0,0.0,0.0
15371,29.0,0.0,15.0,0.0,0.0
15372,78.0,0.0,240.0,4.0,0.0
15373,54.0,0.0,240.0,6.0,0.0
15374,30.0,11.0,15.0,0.0,0.0
15375,80.0,2.0,15.0,0.0,0.0
15376,68.0,4.0,15.0,0.0,0.0
15377,32.0,9.0,15.0,0.0,0.0
15378,80.0,6.0,15.0,0.0,0.0
15379,30.0,7.0,15.0,0.0,0.0
15380,79.0,8.0,15.0,0.0,0.0
15381,32.0,5.0,15.0,0.0,0.0
15382,67.0,10.0,15.0,0.0,0.0
15383,30.0,3.0,15.0,0.0,0.0
15384,79.0,12.0,15.0,0.0,0.0
15385,32.0,1.0,15.0,0.0,0.0
15386,78.0,13.0,15.0,0.0,0.0
15387,30.0,15.0,15.0,0.0,0.0
15388,66.0,1.0,15.0,0.0,0.0
15389,78.0,0.0,15.0,0.0,0.0
15390,29.0,13.0,15.0,0.0,0.0
15391,77.0,2.0,15.0,0.0,0.0
15392,30.0,11.0,15.0,0.0,0.0
15393,35.0,13.0,120.0,5.0,0.0
15394,35.0,0.0,120.0,3.0,0.0
15395,65.0,4.0,15.0,0.0,0.0
15396,32.0,9.0,15.0,0.0,0.0
15397,77.0,6.0,15.0,0.0,0.0
15398,30.0,7.0,15.0,0.0,0.0
15399,76.0,8.0,15.0,0.0,0.0
15400,32.0,5.0,15.0,0.0,0.0
15401,64.0,10.0,15.0,0.0,0.0
15402,30.0,3.0,15.0,0.0,0.0
15403,76.0,12.0,15.0,0.0,0.0
15404,32.0,1.0,15.0,0.0,0.0
15405,75.0,13.0,15.0,0.0,0.0
15406,30.0,15.0,15.0,0.0,0.0
15407,63.0,1.0,15.0,0.0,0.0
15408,75.0,0.0,15.0,0.0,0.0
15409,29.0,0.0,15.0,0.0,0.0
15410,73.0,0.0,120.0,4.0,0.0
15411,49.0,0.0,120.0,6.0,0.0
15412,37.0,13.0,120.0,5.0,0.0
15413,30.0,11.0,15.0,0.0,0.0
15414,37.0,0.0,120.0,3.0,0.0
15415,74.0,2.0,15.0,0.0,0.0
15416,62.0,4.0,15.0,0.0,0.0
15417,32.0,9.0,15.0,0.0,0.0
15418,74.0,6.0,15.0,0.0,0.0
15419,30.0,7.0,15.0,0.0,0.0
15420,73.0,8.0,15.0,0.0,0.0
15421,32.0,5.0,15.0,0.0,0.0
15422,61.0,10.0,15.0,0.0,0.0
15423,30.0,3.0,15.0,0.0,0.0
15424,73.0,12.0,15.0,0.0,0.0
15425,32.0,1.0,15.0,0.0,0.0
15426,72.0,13.0,15.0,0.0,0.0
15427,30.0,15.0,15.0,0.0,0.0
15428,60.0,1.0,15.0,0.0,0.0
15429,72.0,0.0,15.0,0.0,0.0
15430,29.0,0.0,15.0,0.0,0.0
15431,26.0,0.0,240.0,5.0,0.0
15432,71.0,2.0,15.0,0.0,0.0
15433,30.0,11.0,15.0,0.0,0.0
15434,38.0,13.0,240.0,3.0,0.0
15435,59.0,4.0,15.0,0.0,0.0
15436,32.0,9.0,15.0,0.0,0.0
15437,71.0,6.0,15.0,0.0,0.0
15438,30.0,7.0,15.0,0.0,0.0
15439,70.0,8.0,15.0,0.0,0.0
15440,32.0,5.0,15.0,0.0,0.0
15441,58.0,10.0,15.0,0.0,0.0
15442,30.0,3.0,15.0,0.0,0.0
15443,70.0,12.0,15.0,0.0,0.0
15444,32.0,1.0,15.0,0.0,0.0
15445,69.0,13.0,15.0,0.0,0.0
15446,30.0,15.0,15.0,0.0,0.0
15447,57.0,1.0,15.0,0.0,0.0
15448,69.0,13.0,15.0,0.0,0.0
15449,29.0,0.0,15.0,0.0,0.0
15450,78.0,13.0,240.0,2.0,0.0
15451,68.0,2.0,15.0,0.0,0.0
15452,30.0,11.0,15.0,0.0,0.0
15453,66.0,0.0,240.0,6.0,0.0
15454,90.0,0.0,240.0,1.0,0.0
15455,56.0,4.0,15.0,0.0,0.0
15456,32.0,9.0,15.0,0.0,0.0
15457,68.0,6.0,15.0,0.0,0.0
15458,30.0,7.0,15.0,0.0,0.0
15459,67.0,8.0,15.0,0.0,0.0
15460,32.0,5.0,15.0,0.0,0.0
15461,55.0,10.0,15.0,0.0,0.0
15462,30.0,3.0,15.0,0.0,0.0
15463,67.0,12.0,15.0,0.0,0.0
15464,32.0,1.0,15.0,0.0,0.0
15465,66.0,13.0,15.0,0.0,0.0
15466,30.0,15.0,15.0,0.0,0.0
15467,54.0,1.0,15.0,0.0,0.0
15468,66.0,0.0,15.0,0.0,0.0
15469,29.0,0.0,15.0,0.0,0.0
15470,30.0,11.0,15.0,0.0,0.0
15471,65.0,2.0,15.0,0.0,0.0
15472,35.0,0.0,120.0,3.0,0.0
15473,35.0,0.0,120.0,5.0,0.0
15474,54.0,4.0,15.0,0.0,0.0
15475,32.0,9.0,15.0,0.0,0.0
15476,65.0,6.0,15.0,0.0,0.0
15477,30.0,7.0,15.0,0.0,0.0
15478,64.0,8.0,15.0,0.0,0.0
15479,32.0,5.0,15.0,0.0,0.0
15480,54.0,10.0,15.0,0.0,0.0
15481,30.0,3.0,15.0,0.0,0.0
15482,64.0,12.0,15.0,0.0,0.0
15483,32.0,1.0,15.0,0.0,0.0
15484,63.0,13.0,15.0,0.0,0.0
15485,30.0,15.0,15.0,0.0,0.0
15486,54.0,1.0,15.0,0.0,0.0
15487,63.0,0.0,15.0,0.0,0.0
15488,29.0,0.0,15.0,0.0,0.0
15489,73.0,0.0,120.0,2.0,0.0
15490,61.0,0.0,120.0,6.0,0.0
15491,62.0,2.0,15.0,0.0,0.0
15492,30.0,11.0,15.0,0.0,0.0
15493,85.0,0.0,120.0,1.0,0.0
15494,37.0,0.0,120.0,5.0,0.0
15495,37.0,0.0,120.0,3.0,0.0
15496,54.0,4.0,15.0,0.0,0.0
15497,32.0,9.0,15.0,0.0,0.0
15498,62.0,6.0,15.0,0.0,0.0
15499,30.0,7.0,15.0,0.0,0.0
15500,61.0,8.0,15.0,0.0,0.0
15501,32.0,5.0,15.0,0.0,0.0
15502,54.0,10.0,15.0,0.0,0.0
15503,30.0,3.0,15.0,0.0,0.0
15504,61.0,12.0,15.0,0.0,0.0
15505,32.0,1.0,15.0,0.0,0.0
15506,60.0,13.0,15.0,0.0,0.0
15507,30.0,15.0,15.0,0.0,0.0
15508,54.0,1.0,15.0,0.0,0.0
15509,60.0,13.0,15.0,0.0,0.0
15510,29.0,0.0,15.0,0.0,0.0
15511,38.0,0.0,240.0,3.0,0.0
15512,59.0,2.0,15.0,0.0,0.0
15513,30.0,11.0,15.0,0.0,0.0
15514,26.0,0.0,240.0,5.0,0.0
15515,54.0,4.0,15.0,0.0,0.0
15516,32.0,9.0,15.0,0.0,0.0
15517,59.0,6.0,15.0,0.0,0.0
15518,30.0,7.0,15.0,0.0,0.0
15519,58.0,8.0,15.0,0.0,0.0
15520,32.0,5.0,15.0,0.0,0.0
15521,54.0,10.0,15.0,0.0,0.0
15522,30.0,3.0,15.0,0.0,0.0
15523,58.0,12.0,15.0,0.0,0.0
15524,32.0,1.0,15.0,0.0,0.0
15525,57.0,13.0,15.0,0.0,0.0
15526,30.0,15.0,15.0,0.0,0.0
15527,54.0,1.0,15.0,0.0,0.0
15528,57.0,13.0,15.0,0.0,0.0
15529,29.0,0.0,15.0,0.0,0.0
15530,30.0,11.0,15.0,0.0,0.0
15531,56.0,2.0,15.0,0.0,0.0
15532,54.0,4.0,15.0,0.0,0.0
15533,32.0,9.0,15.0,0.0,0.0
15534,56.0,6.0,15.0,0.0,0.0
15535,30.0,7.0,15.0,0.0,0.0
15536,55.0,8.0,15.0,0.0,0.0
15537,32.0,5.0,15.0,0.0,0.0
15538,54.0,10.0,15.0,0.0,0.0
15539,30.0,3.0,15.0,0.0,0.0
15540,55.0,12.0,15.0,0.0,0.0
15541,32.0,1.0,15.0,0.0,0.0
15542,54.0,13.0,15.0,0.0,0.0
15543,30.0,15.0,15.0,0.0,0.0
15544,53.0,1.0,15.0,0.0,0.0
15545,54.0,0.0,15.0,0.0,0.0
15546,29.0,15.0,15.0,0.0,0.0
15547,35.0,15.0,120.0,5.0,0.0
15548,35.0,0.0,120.0,3.0,0.0
15549,30.0,5.0,15.0,0.0,0.0
15550,53.0,10.0,20.0,0.0,0.0
15551,32.0,10.0,15.0,0.0,0.0
15552,54.0,5.0,20.0,0.0,0.0
15553,30.0,15.0,15.0,0.0,0.0
15554,52.0,15.0,20.0,0.0,0.0
15555,32.0,0.0,15.0,0.0,0.0
15556,30.0,5.0,15.0,0.0,0.0
15557,54.0,10.0,20.0,0.0,0.0
15558,32.0,10.0,15.0,0.0,0.0
15559,51.0,5.0,20.0,0.0,0.0
15560,30.0,15.0,15.0,0.0,0.0
15561,54.0,0.0,20.0,0.0,0.0
15562,29.0,0.0,15.0,0.0,0.0
15563,37.0,0.0,120.0,3.0,0.0
15564,37.0,0.0,120.0,5.0,0.0
15565,50.0,10.0,20.0,0.0,0.0
15566,30.0,5.0,15.0,0.0,0.0
15567,32.0,10.0,15.0,0.0,0.0
15568,54.0,5.0,20.0,0.0,0.0
15569,30.0,15.0,15.0,0.0,0.0
15570,49.0,0.0,20.0,0.0,0.0
15571,32.0,15.0,15.0,0.0,0.0
15572,30.0,5.0,15.0,0.0,0.0
15573,54.0,10.0,20.0,0.0,0.0
15574,32.0,10.0,15.0,0.0,0.0
15575,48.0,5.0,20.0,0.0,0.0
15576,30.0,15.0,15.0,0.0,0.0
15577,54.0,15.0,20.0,0.0,0.0
15578,29.0,0.0,15.0,0.0,0.0
15579,30.0,5.0,15.0,0.0,0.0
15580,47.0,10.0,20.0,0.0,0.0
15581,38.0,0.0,240.0,3.0,0.0
15582,26.0,0.0,240.0,5.0,0.0
15583,32.0,10.0,15.0,0.0,0.0
15584,54.0,5.0,20.0,0.0,0.0
15585,30.0,15.0,15.0,0.0,0.0
15586,46.0,15.0,20.0,0.0,0.0
15587,32.0,0.0,15.0,0.0,0.0
15588,54.0,10.0,20.0,0.0,0.0
15589,30.0,5.0,15.0,0.0,0.0
15590,32.0,10.0,15.0,0.0,0.0
15591,45.0,5.0,20.0,0.0,0.0
15592,30.0,15.0,15.0,0.0,0.0
15593,54.0,0.0,20.0,0.0,0.0
15594,29.0,20.0,15.0,0.0,0.0
15595,44.0,20.0,20.0,0.0,0.0
15596,30.0,20.0,60.0,0.0,0.0
15597,54.0,20.0,20.0,0.0,0.0
15598,43.0,0.0,20.0,0.0,0.0
15599,54.0,20.0,20.0,0.0,0.0
15600,42.0,20.0,20.0,0.0,0.0
15601,54.0,120.0,20.0,0.0,0.0
15602,46.0,0.0,120.0,8.0,0.0
15603,54.0,0.0,15.0,8.0,0.0
15604,66.0,0.0,120.0,10.0,0.0
15605,58.0,0.0,120.0,10.0,0.0
15606,37.0,0.0,120.0,12.0,0.0
15607,70.0,0.0,120.0,4.0,0.0
15608,70.0,0.0,120.0,2.0,0.0
15609,25.0,0.0,120.0,5.0,0.0
15610,37.0,0.0,120.0,6.0,0.0
15611,37.0,0.0,120.0,3.0,0.0
15612,66.0,0.0,120.0,11.0,0.0
15613,61.0,0.0,120.0,11.0,0.0
15614,58.0,120.0,120.0,11.0,0.0
15615,66.0,0.0,120.0,2.0,0.0
15616,66.0,0.0,120.0,4.0,0.0
15617,78.0,0.0,120.0,1.0,0.0
15618,61.0,0.0,120.0,10.0,0.0
15619,65.0,0.0,120.0,2.0,0.0
15620,68.0,0.0,120.0,2.0,0.0
15621,49.0,0.0,15.0,12.0,0.0
15622,65.0,0.0,120.0,12.0,0.0
15623,65.0,60.0,120.0,11.0,0.0
15624,80.0,0.0,120.0,1.0,0.0
15625,49.0,0.0,120.0,8.0,0.0
15626,68.0,0.0,120.0,10.0,0.0
15627,49.0,0.0,120.0,6.0,0.0
15628,37.0,0.0,15.0,13.0,0.0
15629,49.0,0.0,120.0,3.0,0.0
15630,37.0,0.0,120.0,5.0,0.0
15631,61.0,0.0,120.0,11.0,0.0
15632,65.0,0.0,120.0,4.0,0.0
15633,56.0,0.0,120.0,8.0,0.0
15634,68.0,0.0,120.0,11.0,0.0
15635,68.0,0.0,120.0,4.0,0.0
15636,66.0,0.0,60.0,4.0,0.0
15637,70.0,0.0,60.0,4.0,0.0
15638,61.0,0.0,60.0,3.0,0.0
15639,61.0,0.0,60.0,12.0,0.0
15640,66.0,0.0,60.0,2.0,0.0
15641,82.0,0.0,60.0,1.0,0.0
15642,58.0,0.0,60.0,8.0,0.0
15643,37.0,0.0,15.0,13.0,0.0
15644,54.0,0.0,60.0,8.0,0.0
15645,58.0,0.0,120.0,11.0,0.0
15646,70.0,0.0,60.0,10.0,0.0
15647,66.0,0.0,60.0,10.0,0.0
15648,70.0,0.0,60.0,2.0,0.0
15649,49.0,60.0,60.0,5.0,0.0
15650,61.0,0.0,60.0,6.0,0.0
15651,25.0,0.0,120.0,0.0,0.0
15652,30.0,0.0,120.0,0.0,0.0
15653,34.0,0.0,120.0,0.0,0.0
15654,37.0,0.0,120.0,0.0,0.0
15655,78.0,0.0,120.0,0.0,0.0
15656,73.0,0.0,120.0,0.0,0.0
15657,70.0,0.0,120.0,0.0,0.0
15658,66.0,120.0,120.0,0.0,0.0
15659,66.0,0.0,120.0,11.0,0.0
15660,37.0,0.0,120.0,0.0,0.0
15661,44.0,0.0,120.0,0.0,0.0
15662,80.0,120.0,120.0,0.0,0.0
15663,41.0,0.0,120.0,0.0,0.0
15664,61.0,0.0,15.0,11.0,0.0
15665,68.0,0.0,120.0,11.0,0.0
15666,65.0,0.0,120.0,11.0,0.0
15667,37.0,0.0,120.0,11.0,0.0
15668,77.0,0.0,120.0,0.0,0.0
15669,68.0,0.0,120.0,0.0,0.0
15670,61.0,0.0,120.0,0.0,0.0
15671,70.0,0.0,120.0,11.0,0.0
15672,66.0,0.0,120.0,11.0,0.0
15673,70.0,0.0,120.0,0.0,0.0
15674,73.0,0.0,15.0,0.0,0.0
15675,78.0,0.0,120.0,0.0,0.0
15676,82.0,0.0,120.0,0.0,0.0
15677,58.0,0.0,120.0,0.0,0.0
15678,61.0,0.0,120.0,11.0,0.0
15679,49.0,0.0,15.0,11.0,0.0
15680,54.0,0.0,120.0,0.0,0.0
15681,49.0,0.0,15.0,0.0,0.0
15682,56.0,0.0,40.0,11.0,0.0
15683,68.0,0.0,40.0,11.0,0.0
15684,59.0,0.0,40.0,11.0,0.0
15685,71.0,0.0,40.0,11.0,0.0
15686,56.0,0.0,40.0,0.0,0.0
15687,59.0,0.0,40.0,0.0,0.0
15688,71.0,40.0,20.0,0.0,0.0
15689,80.0,0.0,20.0,0.0,0.0
15690,83.0,0.0,20.0,0.0,0.0
15691,66.0,0.0,40.0,11.0,0.0
15692,70.0,0.0,40.0,11.0,0.0
15693,58.0,0.0,40.0,0.0,0.0
15694,54.0,0.0,40.0,0.0,0.0
15695,54.0,0.0,40.0,11.0,0.0
15696,58.0,0.0,40.0,11.0,0.0
15697,78.0,0.0,20.0,0.0,0.0
15698,70.0,0.0,20.0,0.0,0.0
15699,82.0,40.0,20.0,0.0,0.0
15700,56.0,0.0,40.0,11.0,0.0
15701,65.0,0.0,40.0,11.0,0.0
15702,53.0,0.0,40.0,0.0,0.0
15703,56.0,0.0,40.0,0.0,0.0
15704,68.0,0.0,40.0,11.0,0.0
15705,53.0,0.0,40.0,11.0,0.0
15706,68.0,0.0,20.0,0.0,0.0
15707,80.0,0.0,20.0,0.0,0.0
15708,77.0,120.0,20.0,0.0,0.0
15709,58.0,0.0,120.0,0.0,0.0
15710,66.0,30.0,120.0,11.0,0.0
15711,54.0,0.0,120.0,0.0,0.0
15712,58.0,0.0,120.0,11.0,0.0
15713,70.0,0.0,120.0,11.0,0.0
15714,82.0,0.0,120.0,0.0,0.0
15715,78.0,0.0,120.0,0.0,0.0
15716,70.0,0.0,120.0,0.0,0.0
15717,54.0,0.0,120.0,11.0,0.0
15718,59.0,0.0,40.0,6.0,0.0
15719,68.0,20.0,40.0,2.0,0.0
15720,71.0,0.0,40.0,2.0,0.0
15721,37.0,0.0,120.0,11.0,0.0
15722,56.0,0.0,40.0,6.0,0.0
15723,97.0,10.0,30.0,0.0,0.0
15724,37.0,0.0,30.0,0.0,0.0
15725,49.0,0.0,120.0,11.0,0.0
15726,61.0,0.0,120.0,11.0,0.0
15727,83.0,0.0,40.0,1.0,0.0
15728,80.0,0.0,40.0,1.0,0.0
15729,73.0,0.0,120.0,11.0,0.0
15730,85.0,20.0,30.0,0.0,0.0
15731,82.0,0.0,40.0,1.0,0.0
15732,78.0,0.0,40.0,1.0,0.0
15733,70.0,0.0,40.0,2.0,0.0
15734,66.0,40.0,40.0,2.0,0.0
15735,54.0,0.0,40.0,6.0,0.0
15736,49.0,0.0,15.0,0.0,0.0
15737,73.0,0.0,180.0,0.0,0.0
15738,61.0,0.0,180.0,0.0,0.0
15739,85.0,40.0,180.0,0.0,0.0
15740,77.0,0.0,40.0,1.0,0.0
15741,80.0,0.0,40.0,1.0,0.0
15742,68.0,0.0,40.0,2.0,0.0
15743,65.0,0.0,40.0,2.0,0.0
15744,53.0,0.0,40.0,6.0,0.0
15745,58.0,0.0,15.0,6.0,0.0
15746,70.0,0.0,120.0,2.0,0.0
15747,66.0,0.0,120.0,2.0,0.0
15748,82.0,0.0,120.0,1.0,0.0
15749,78.0,0.0,120.0,1.0,0.0
15750,58.0,0.0,120.0,6.0,0.0
15751,54.0,0.0,120.0,6.0,0.0
15752,56.0,0.0,40.0,0.0,0.0
15753,59.0,0.0,40.0,0.0,0.0
15754,85.0,0.0,240.0,1.0,0.0
15755,73.0,30.0,240.0,2.0,0.0
15756,73.0,0.0,240.0,1.0,0.0
15757,61.0,0.0,240.0,2.0,0.0
15758,68.0,40.0,40.0,11.0,0.0
15759,59.0,0.0,40.0,11.0,0.0
15760,71.0,0.0,40.0,11.0,0.0
15761,61.0,0.0,240.0,6.0,0.0
15762,49.0,0.0,240.0,6.0,0.0
15763,56.0,0.0,40.0,11.0,0.0
15764,71.0,0.0,20.0,0.0,0.0
15765,80.0,0.0,20.0,0.0,0.0
15766,83.0,0.0,20.0,0.0,0.0
15767,54.0,0.0,40.0,0.0,0.0
15768,58.0,0.0,40.0,0.0,0.0
15769,54.0,0.0,40.0,11.0,0.0
15770,70.0,0.0,40.0,11.0,0.0
15771,66.0,0.0,40.0,11.0,0.0
15772,58.0,0.0,40.0,11.0,0.0
15773,82.0,0.0,20.0,0.0,0.0
15774,78.0,0.0,20.0,0.0,0.0
15775,70.0,40.0,20.0,0.0,0.0
15776,53.0,0.0,40.0,11.0,0.0
15777,56.0,0.0,40.0,0.0,0.0
15778,56.0,0.0,40.0,11.0,0.0
15779,53.0,0.0,40.0,0.0,0.0
15780,65.0,0.0,40.0,11.0,0.0
15781,68.0,120.0,40.0,11.0,0.0
15782,80.0,0.0,20.0,0.0,0.0
15783,77.0,0.0,20.0,0.0,0.0
15784,68.0,0.0,20.0,0.0,0.0
15785,66.0,0.0,120.0,11.0,0.0
15786,54.0,0.0,120.0,0.0,0.0
15787,58.0,0.0,120.0,0.0,0.0
15788,70.0,0.0,120.0,0.0,0.0
15789,78.0,0.0,120.0,0.0,0.0
15790,54.0,0.0,120.0,11.0,0.0
15791,58.0,0.0,120.0,11.0,0.0
15792,82.0,0.0,120.0,0.0,0.0
15793,70.0,0.0,120.0,11.0,0.0
15794,68.0,0.0,40.0,4.0,0.0
15795,37.0,0.0,30.0,0.0,0.0
15796,73.0,0.0,120.0,11.0,0.0
15797,37.0,0.0,120.0,11.0,0.0
15798,61.0,0.0,120.0,11.0,0.0
15799,97.0,10.0,30.0,0.0,0.0
15800,71.0,0.0,40.0,4.0,0.0
15801,49.0,0.0,120.0,11.0,0.0
15802,56.0,0.0,40.0,8.0,0.0
15803,59.0,20.0,40.0,8.0,0.0
15804,49.0,0.0,30.0,0.0,0.0
15805,70.0,0.0,40.0,4.0,0.0
15806,66.0,40.0,40.0,4.0,0.0
15807,58.0,0.0,40.0,8.0,0.0
15808,54.0,0.0,40.0,8.0,0.0
15809,85.0,20.0,15.0,0.0,0.0
15810,49.0,0.0,60.0,0.0,0.0
15811,61.0,0.0,60.0,0.0,0.0
15812,73.0,0.0,60.0,0.0,0.0
15813,53.0,0.0,40.0,8.0,0.0
15814,68.0,0.0,40.0,4.0,0.0
15815,65.0,0.0,40.0,4.0,0.0
15816,38.0,0.0,30.0,0.0,0.0
15817,50.0,0.0,120.0,11.0,0.0
15818,68.0,0.0,120.0,4.0,0.0
15819,38.0,0.0,120.0,11.0,0.0
15820,71.0,0.0,120.0,4.0,0.0
15821,59.0,0.0,120.0,8.0,0.0
15822,62.0,0.0,120.0,11.0,0.0
15823,98.0,30.0,30.0,0.0,0.0
15824,74.0,0.0,120.0,11.0,0.0
15825,56.0,0.0,15.0,8.0,0.0
15826,86.0,0.0,30.0,0.0,0.0
15827,50.0,60.0,30.0,0.0,0.0
15828,62.0,0.0,60.0,0.0,0.0
15829,74.0,0.0,60.0,0.0,0.0
15830,86.0,0.0,60.0,0.0,0.0
15831,50.0,0.0,60.0,0.0,0.0
15832,61.0,0.0,40.0,6.0,0.0
15833,58.0,0.0,40.0,6.0,0.0
15834,70.0,120.0,120.0,4.0,0.0
15835,85.0,0.0,40.0,1.0,0.0
15836,82.0,0.0,40.0,1.0,0.0
15837,39.0,0.0,120.0,11.0,0.0
15838,55.0,0.0,120.0,8.0,0.0
15839,67.0,0.0,120.0,4.0,0.0
15840,58.0,0.0,120.0,8.0,0.0
15841,39.0,0.0,30.0,0.0,0.0
15842,99.0,10.0,30.0,0.0,0.0
15843,63.0,0.0,120.0,11.0,0.0
15844,51.0,0.0,120.0,11.0,0.0
15845,75.0,0.0,120.0,11.0,0.0
15846,70.0,20.0,40.0,2.0,0.0
15847,73.0,0.0,40.0,2.0,0.0
15848,87.0,0.0,30.0,0.0,0.0
15849,51.0,20.0,30.0,0.0,0.0
15850,56.0,0.0,40.0,6.0,0.0
15851,80.0,0.0,40.0,1.0,0.0
15852,71.0,0.0,40.0,2.0,0.0
15853,68.0,0.0,40.0,2.0,0.0
15854,59.0,40.0,40.0,6.0,0.0
15855,83.0,0.0,40.0,1.0,0.0
15856,63.0,0.0,180.0,0.0,0.0
15857,75.0,0.0,180.0,0.0,0.0
15858,51.0,0.0,180.0,0.0,0.0
15859,87.0,0.0,180.0,0.0,0.0
15860,67.0,0.0,40.0,2.0,0.0
15861,79.0,0.0,40.0,1.0,0.0
15862,82.0,0.0,40.0,1.0,0.0
15863,58.0,0.0,40.0,6.0,0.0
15864,55.0,0.0,40.0,6.0,0.0
15865,70.0,0.0,40.0,2.0,0.0
15866,83.0,0.0,120.0,1.0,0.0
15867,80.0,40.0,120.0,1.0,0.0
15868,68.0,0.0,120.0,2.0,0.0
15869,71.0,0.0,120.0,2.0,0.0
15870,59.0,0.0,120.0,6.0,0.0
15871,56.0,0.0,120.0,6.0,0.0
15872,58.0,0.0,40.0,0.0,0.0
15873,61.0,0.0,40.0,0.0,0.0
15874,61.0,0.0,40.0,11.0,0.0
15875,73.0,0.0,40.0,11.0,0.0
15876,58.0,0.0,40.0,11.0,0.0
15877,75.0,0.0,240.0,2.0,0.0
15878,63.0,0.0,240.0,6.0,0.0
15879,51.0,0.0,240.0,6.0,0.0
15880,63.0,0.0,240.0,2.0,0.0
15881,75.0,0.0,240.0,1.0,0.0
15882,87.0,0.0,240.0,1.0,0.0
15883,70.0,0.0,40.0,11.0,0.0
15884,82.0,0.0,20.0,0.0,0.0
15885,73.0,40.0,20.0,0.0,0.0
15886,85.0,0.0,20.0,0.0,0.0
15887,68.0,0.0,40.0,11.0,0.0
15888,59.0,0.0,40.0,11.0,0.0
15889,71.0,0.0,40.0,11.0,0.0
15890,56.0,0.0,40.0,11.0,0.0
15891,56.0,0.0,40.0,0.0,0.0
15892,59.0,40.0,40.0,0.0,0.0
15893,71.0,0.0,20.0,0.0,0.0
15894,80.0,0.0,20.0,0.0,0.0
15895,83.0,0.0,20.0,0.0,0.0
15896,58.0,0.0,40.0,11.0,0.0
15897,67.0,120.0,40.0,11.0,0.0
15898,55.0,0.0,40.0,11.0,0.0
15899,70.0,0.0,40.0,11.0,0.0
15900,55.0,0.0,40.0,0.0,0.0
15901,58.0,0.0,40.0,0.0,0.0
15902,82.0,0.0,20.0,0.0,0.0
15903,70.0,0.0,20.0,0.0,0.0
15904,79.0,0.0,20.0,0.0,0.0
15905,71.0,0.0,120.0,0.0,0.0
15906,80.0,0.0,120.0,0.0,0.0
15907,83.0,0.0,120.0,0.0,0.0
15908,56.0,0.0,120.0,11.0,0.0
15909,56.0,0.0,120.0,0.0,0.0
15910,59.0,0.0,120.0,0.0,0.0
15911,59.0,30.0,120.0,11.0,0.0
15912,71.0,0.0,120.0,11.0,0.0
15913,68.0,0.0,120.0,11.0,0.0
15914,70.0,0.0,40.0,2.0,0.0
15915,73.0,0.0,40.0,2.0,0.0
15916,82.0,20.0,40.0,1.0,0.0
15917,39.0,0.0,120.0,11.0,0.0
15918,61.0,0.0,40.0,6.0,0.0
15919,85.0,0.0,40.0,1.0,0.0
15920,39.0,0.0,30.0,0.0,0.0
15921,99.0,10.0,30.0,0.0,0.0
15922,58.0,0.0,40.0,6.0,0.0
15923,51.0,120.0,120.0,11.0,0.0
15924,75.0,0.0,120.0,11.0,0.0
15925,63.0,0.0,120.0,11.0,0.0
15926,51.0,0.0,30.0,0.0,0.0
15927,68.0,40.0,40.0,2.0,0.0
15928,71.0,0.0,40.0,2.0,0.0
15929,80.0,0.0,40.0,1.0,0.0
15930,83.0,0.0,40.0,1.0,0.0
15931,59.0,0.0,40.0,6.0,0.0
15932,56.0,0.0,40.0,6.0,0.0
15933,51.0,0.0,180.0,0.0,0.0
15934,63.0,0.0,180.0,0.0,0.0
15935,87.0,20.0,15.0,0.0,0.0
15936,75.0,0.0,180.0,0.0,0.0
15937,58.0,0.0,40.0,6.0,0.0
15938,55.0,0.0,40.0,6.0,0.0
15939,70.0,0.0,40.0,2.0,0.0
15940,67.0,0.0,40.0,2.0,0.0
15941,82.0,0.0,40.0,1.0,0.0
15942,79.0,0.0,40.0,1.0,0.0
15943,56.0,0.0,120.0,6.0,0.0
15944,80.0,0.0,120.0,1.0,0.0
15945,59.0,0.0,120.0,6.0,0.0
15946,68.0,0.0,120.0,2.0,0.0
15947,71.0,40.0,120.0,2.0,0.0
15948,83.0,0.0,120.0,1.0,0.0
15949,61.0,0.0,40.0,11.0,0.0
15950,61.0,0.0,40.0,0.0,0.0
15951,63.0,0.0,240.0,6.0,0.0
15952,58.0,40.0,40.0,0.0,0.0
15953,58.0,0.0,40.0,11.0,0.0
15954,87.0,30.0,240.0,1.0,0.0
15955,70.0,0.0,40.0,11.0,0.0
15956,73.0,0.0,40.0,11.0,0.0
15957,75.0,0.0,240.0,1.0,0.0
15958,51.0,0.0,240.0,6.0,0.0
15959,63.0,0.0,240.0,2.0,0.0
15960,75.0,0.0,240.0,2.0,0.0
15961,85.0,0.0,20.0,0.0,0.0
15962,82.0,0.0,20.0,0.0,0.0
15963,73.0,0.0,20.0,0.0,0.0
15964,71.0,0.0,40.0,11.0,0.0
15965,56.0,40.0,40.0,0.0,0.0
15966,59.0,0.0,40.0,0.0,0.0
15967,56.0,0.0,40.0,11.0,0.0
15968,68.0,0.0,40.0,11.0,0.0
15969,59.0,0.0,40.0,11.0,0.0
15970,71.0,0.0,20.0,0.0,0.0
15971,80.0,0.0,20.0,0.0,0.0
15972,83.0,0.0,20.0,0.0,0.0
15973,70.0,0.0,40.0,11.0,0.0
15974,58.0,0.0,40.0,11.0,0.0
15975,58.0,0.0,40.0,0.0,0.0
15976,55.0,0.0,40.0,0.0,0.0
15977,55.0,0.0,40.0,11.0,0.0
15978,67.0,120.0,40.0,11.0,0.0
15979,82.0,0.0,20.0,0.0,0.0
15980,70.0,0.0,20.0,0.0,0.0
15981,79.0,0.0,20.0,0.0,0.0
15982,56.0,0.0,120.0,11.0,0.0
15983,71.0,0.0,120.0,11.0,0.0
15984,83.0,0.0,120.0,0.0,0.0
15985,80.0,0.0,120.0,0.0,0.0
15986,71.0,0.0,120.0,0.0,0.0
15987,59.0,0.0,120.0,0.0,0.0
15988,56.0,0.0,120.0,0.0,0.0
15989,68.0,0.0,120.0,11.0,0.0
15990,59.0,0.0,120.0,11.0,0.0
15991,39.0,0.0,30.0,0.0,0.0
15992,63.0,0.0,120.0,11.0,0.0
15993,75.0,0.0,120.0,11.0,0.0
15994,70.0,20.0,40.0,4.0,0.0
15995,73.0,0.0,40.0,4.0,0.0
15996,99.0,10.0,30.0,0.0,0.0
15997,51.0,0.0,120.0,11.0,0.0
15998,58.0,0.0,40.0,8.0,0.0
15999,61.0,0.0,40.0,8.0,0.0
16000,39.0,30.0,120.0,11.0,0.0
16001,87.0,0.0,30.0,0.0,0.0
16002,71.0,0.0,40.0,4.0,0.0
16003,59.0,0.0,40.0,8.0,0.0
16004,56.0,0.0,40.0,8.0,0.0
16005,68.0,40.0,40.0,4.0,0.0
16006,51.0,20.0,15.0,0.0,0.0
16007,87.0,0.0,60.0,0.0,0.0
16008,75.0,0.0,60.0,0.0,0.0
16009,63.0,0.0,60.0,0.0,0.0
16010,67.0,0.0,40.0,4.0,0.0
16011,58.0,0.0,40.0,8.0,0.0
16012,55.0,0.0,40.0,8.0,0.0
16013,73.0,0.0,120.0,4.0,0.0
16014,52.0,0.0,120.0,11.0,0.0
16015,70.0,0.0,15.0,4.0,0.0
16016,76.0,0.0,120.0,11.0,0.0
16017,61.0,0.0,120.0,8.0,0.0
16018,40.0,30.0,30.0,0.0,0.0
16019,100.0,0.0,30.0,0.0,0.0
16020,40.0,0.0,120.0,11.0,0.0
16021,58.0,0.0,120.0,8.0,0.0
16022,64.0,0.0,120.0,11.0,0.0
16023,52.0,0.0,30.0,0.0,0.0
16024,88.0,60.0,30.0,0.0,0.0
16025,64.0,0.0,60.0,0.0,0.0
16026,76.0,0.0,60.0,0.0,0.0
16027,88.0,0.0,60.0,0.0,0.0
16028,52.0,30.0,60.0,0.0,0.0
16029,69.0,0.0,120.0,4.0,0.0
16030,60.0,0.0,120.0,8.0,0.0
16031,57.0,0.0,120.0,8.0,0.0
16032,53.0,0.0,120.0,11.0,0.0
16033,72.0,0.0,120.0,4.0,0.0
16034,77.0,0.0,120.0,11.0,0.0
16035,41.0,0.0,120.0,11.0,0.0
16036,63.0,0.0,40.0,6.0,0.0
16037,60.0,0.0,40.0,6.0,0.0
16038,72.0,0.0,40.0,2.0,0.0
16039,75.0,20.0,40.0,2.0,0.0
16040,41.0,0.0,30.0,0.0,0.0
16041,65.0,0.0,120.0,11.0,0.0
16042,84.0,0.0,40.0,1.0,0.0
16043,101.0,10.0,30.0,0.0,0.0
16044,87.0,0.0,40.0,1.0,0.0
16045,89.0,20.0,30.0,0.0,0.0
16046,53.0,0.0,30.0,0.0,0.0
16047,58.0,0.0,40.0,6.0,0.0
16048,70.0,0.0,40.0,2.0,0.0
16049,61.0,0.0,40.0,6.0,0.0
16050,73.0,0.0,40.0,2.0,0.0
16051,82.0,40.0,40.0,1.0,0.0
16052,85.0,0.0,40.0,1.0,0.0
16053,77.0,0.0,180.0,0.0,0.0
16054,53.0,40.0,180.0,0.0,0.0
16055,89.0,0.0,180.0,0.0,0.0
16056,65.0,0.0,180.0,0.0,0.0
16057,57.0,0.0,40.0,6.0,0.0
16058,60.0,0.0,40.0,6.0,0.0
16059,72.0,0.0,40.0,2.0,0.0
16060,69.0,0.0,40.0,2.0,0.0
16061,81.0,0.0,40.0,1.0,0.0
16062,84.0,0.0,40.0,1.0,0.0
16063,85.0,0.0,120.0,1.0,0.0
16064,82.0,0.0,120.0,1.0,0.0
16065,70.0,0.0,120.0,2.0,0.0
16066,73.0,0.0,120.0,2.0,0.0
16067,58.0,0.0,120.0,6.0,0.0
16068,61.0,0.0,120.0,6.0,0.0
16069,41.0,0.0,120.0,11.0,0.0
16070,60.0,0.0,40.0,6.0,0.0
16071,60.0,0.0,40.0,0.0,0.0
16072,75.0,0.0,40.0,4.0,0.0
16073,63.0,0.0,40.0,0.0,0.0
16074,77.0,0.0,120.0,11.0,0.0
16075,65.0,0.0,240.0,12.0,0.0
16076,53.0,0.0,240.0,12.0,0.0
16077,72.0,0.0,40.0,4.0,0.0
16078,53.0,0.0,120.0,11.0,0.0
16079,63.0,40.0,40.0,6.0,0.0
16080,89.0,0.0,240.0,1.0,0.0
16081,65.0,0.0,240.0,2.0,0.0
16082,65.0,0.0,120.0,11.0,0.0
16083,77.0,0.0,240.0,1.0,0.0
16084,77.0,0.0,240.0,2.0,0.0
16085,75.0,0.0,20.0,0.0,0.0
16086,84.0,0.0,20.0,0.0,0.0
16087,87.0,0.0,20.0,0.0,0.0
16088,58.0,0.0,40.0,0.0,0.0
16089,73.0,0.0,40.0,4.0,0.0
16090,61.0,40.0,40.0,0.0,0.0
16091,70.0,0.0,40.0,4.0,0.0
16092,61.0,0.0,40.0,6.0,0.0
16093,58.0,0.0,40.0,6.0,0.0
16094,73.0,0.0,20.0,0.0,0.0
16095,82.0,0.0,20.0,0.0,0.0
16096,85.0,0.0,20.0,0.0,0.0
16097,57.0,0.0,40.0,6.0,0.0
16098,69.0,0.0,40.0,4.0,0.0
16099,57.0,0.0,40.0,0.0,0.0
16100,60.0,0.0,40.0,0.0,0.0
16101,72.0,0.0,20.0,0.0,0.0
16102,81.0,0.0,20.0,0.0,0.0
16103,84.0,40.0,20.0,0.0,0.0
16104,75.0,40.0,40.0,4.0,0.0
16105,63.0,0.0,40.0,6.0,0.0
16106,72.0,0.0,15.0,4.0,0.0
16107,60.0,0.0,15.0,6.0,0.0
16108,63.0,0.0,40.0,0.0,0.0
16109,60.0,0.0,40.0,0.0,0.0
16110,84.0,0.0,20.0,0.0,0.0
16111,75.0,0.0,20.0,0.0,0.0
16112,87.0,0.0,20.0,0.0,0.0
16113,61.0,0.0,40.0,0.0,0.0
16114,58.0,0.0,40.0,6.0,0.0
16115,73.0,0.0,40.0,4.0,0.0
16116,70.0,40.0,40.0,4.0,0.0
16117,58.0,0.0,40.0,0.0,0.0
16118,61.0,0.0,40.0,6.0,0.0
16119,85.0,0.0,20.0,0.0,0.0
16120,82.0,0.0,20.0,0.0,0.0
16121,73.0,0.0,20.0,0.0,0.0
16122,57.0,0.0,40.0,0.0,0.0
16123,60.0,0.0,40.0,0.0,0.0
16124,72.0,0.0,40.0,4.0,0.0
16125,69.0,0.0,40.0,4.0,0.0
16126,57.0,0.0,40.0,6.0,0.0
16127,60.0,0.0,40.0,6.0,0.0
16128,84.0,0.0,20.0,0.0,0.0
16129,81.0,40.0,20.0,0.0,0.0
16130,72.0,0.0,20.0,0.0,0.0
16131,25.0,0.0,240.0,5.0,0.0
16132,49.0,0.0,240.0,8.0,0.0
16133,37.0,0.0,240.0,8.0,0.0
16134,75.0,0.0,40.0,4.0,0.0
16135,71.0,0.0,40.0,4.0,0.0
16136,77.0,0.0,240.0,7.0,0.0
16137,56.0,0.0,240.0,12.0,0.0
16138,63.0,0.0,40.0,6.0,0.0
16139,75.0,0.0,40.0,2.0,0.0
16140,71.0,0.0,40.0,2.0,0.0
16141,83.0,40.0,40.0,1.0,0.0
16142,65.0,0.0,240.0,12.0,0.0
16143,59.0,0.0,40.0,6.0,0.0
16144,37.0,0.0,240.0,3.0,0.0
16145,68.0,0.0,240.0,7.0,0.0
16146,56.0,40.0,240.0,7.0,0.0
16147,59.0,0.0,40.0,0.0,0.0
16148,63.0,0.0,40.0,0.0,0.0
16149,65.0,0.0,240.0,7.0,0.0
16150,87.0,0.0,40.0,1.0,0.0
16151,75.0,0.0,20.0,0.0,0.0
16152,83.0,0.0,20.0,0.0,0.0
16153,87.0,0.0,20.0,0.0,0.0
16154,61.0,0.0,40.0,6.0,0.0
16155,58.0,0.0,40.0,6.0,0.0
16156,70.0,0.0,40.0,4.0,0.0
16157,73.0,0.0,40.0,4.0,0.0
16158,61.0,0.0,40.0,0.0,0.0
16159,58.0,0.0,40.0,0.0,0.0
16160,73.0,0.0,40.0,2.0,0.0
16161,85.0,0.0,40.0,1.0,0.0
16162,82.0,0.0,40.0,1.0,0.0
16163,70.0,0.0,40.0,2.0,0.0
16164,85.0,0.0,20.0,0.0,0.0
16165,82.0,40.0,20.0,0.0,0.0
16166,73.0,0.0,20.0,0.0,0.0
16167,83.0,40.0,40.0,1.0,0.0
16168,80.0,0.0,40.0,1.0,0.0
16169,68.0,0.0,40.0,2.0,0.0
16170,56.0,0.0,40.0,0.0,0.0
16171,59.0,0.0,40.0,0.0,0.0
16172,56.0,0.0,40.0,6.0,0.0
16173,59.0,0.0,40.0,6.0,0.0
16174,68.0,0.0,40.0,4.0,0.0
16175,71.0,0.0,20.0,0.0,0.0
16176,80.0,0.0,20.0,0.0,0.0
16177,83.0,0.0,20.0,0.0,0.0
16178,71.0,0.0,15.0,4.0,0.0
16179,63.0,0.0,40.0,0.0,0.0
16180,71.0,0.0,15.0,2.0,0.0
16181,75.0,0.0,40.0,2.0,0.0
16182,61.0,0.0,60.0,6.0,0.0
16183,56.0,20.0,60.0,6.0,0.0
16184,75.0,0.0,40.0,4.0,0.0
16185,59.0,0.0,40.0,0.0,0.0
16186,87.0,0.0,40.0,1.0,0.0
16187,83.0,0.0,40.0,1.0,0.0
16188,83.0,0.0,20.0,0.0,0.0
16189,75.0,0.0,20.0,0.0,0.0
16190,87.0,0.0,20.0,0.0,0.0
16191,73.0,40.0,40.0,2.0,0.0
16192,70.0,0.0,40.0,2.0,0.0
16193,58.0,0.0,40.0,0.0,0.0
16194,61.0,0.0,40.0,0.0,0.0
16195,85.0,0.0,40.0,1.0,0.0
16196,82.0,0.0,40.0,1.0,0.0
16197,70.0,0.0,40.0,4.0,0.0
16198,73.0,0.0,40.0,4.0,0.0
16199,73.0,0.0,20.0,0.0,0.0
16200,85.0,0.0,20.0,0.0,0.0
16201,82.0,0.0,20.0,0.0,0.0
16202,71.0,0.0,40.0,2.0,0.0
16203,83.0,0.0,40.0,1.0,0.0
16204,59.0,0.0,40.0,0.0,0.0
16205,56.0,0.0,40.0,0.0,0.0
16206,80.0,0.0,40.0,1.0,0.0
16207,71.0,0.0,40.0,4.0,0.0
16208,68.0,0.0,40.0,2.0,0.0
16209,68.0,0.0,40.0,4.0,0.0
16210,71.0,0.0,20.0,0.0,0.0
16211,80.0,0.0,20.0,0.0,0.0
16212,83.0,0.0,20.0,0.0,0.0
16213,24.0,0.0,240.0,5.0,0.0
16214,66.0,40.0,240.0,12.0,0.0
16215,78.0,0.0,40.0,1.0,0.0
16216,82.0,0.0,40.0,1.0,0.0
16217,75.0,0.0,240.0,7.0,0.0
16218,58.0,0.0,40.0,0.0,0.0
16219,54.0,0.0,40.0,0.0,0.0
16220,63.0,0.0,240.0,12.0,0.0
16221,58.0,0.0,240.0,8.0,0.0
16222,54.0,0.0,240.0,8.0,0.0
16223,70.0,0.0,240.0,7.0,0.0
16224,78.0,0.0,240.0,7.0,0.0
16225,66.0,0.0,40.0,2.0,0.0
16226,48.0,0.0,240.0,6.0,0.0
16227,36.0,0.0,240.0,6.0,0.0
16228,63.0,0.0,240.0,7.0,0.0
16229,66.0,0.0,240.0,7.0,0.0
16230,70.0,0.0,40.0,2.0,0.0
16231,66.0,40.0,40.0,4.0,0.0
16232,70.0,0.0,40.0,4.0,0.0
16233,36.0,0.0,240.0,3.0,0.0
16234,70.0,0.0,20.0,0.0,0.0
16235,78.0,0.0,20.0,0.0,0.0
16236,82.0,0.0,20.0,0.0,0.0
16237,80.0,0.0,40.0,1.0,0.0
16238,68.0,0.0,40.0,4.0,0.0
16239,77.0,0.0,40.0,1.0,0.0
16240,65.0,0.0,40.0,4.0,0.0
16241,68.0,0.0,40.0,2.0,0.0
16242,65.0,0.0,40.0,2.0,0.0
16243,56.0,0.0,40.0,0.0,0.0
16244,53.0,0.0,40.0,0.0,0.0
16245,68.0,0.0,20.0,0.0,0.0
16246,77.0,0.0,20.0,0.0,0.0
16247,80.0,40.0,20.0,0.0,0.0
16248,63.0,0.0,40.0,2.0,0.0
16249,75.0,0.0,40.0,1.0,0.0
16250,63.0,0.0,40.0,4.0,0.0
16251,66.0,0.0,40.0,4.0,0.0
16252,78.0,0.0,40.0,1.0,0.0
16253,51.0,0.0,40.0,0.0,0.0
16254,54.0,0.0,40.0,0.0,0.0
16255,75.0,0.0,20.0,0.0,0.0
16256,78.0,0.0,20.0,0.0,0.0
16257,66.0,0.0,20.0,0.0,0.0
16258,54.0,0.0,40.0,0.0,0.0
16259,58.0,0.0,40.0,0.0,0.0
16260,70.0,0.0,40.0,2.0,0.0
16261,66.0,40.0,15.0,2.0,0.0
16262,66.0,0.0,40.0,4.0,0.0
16263,70.0,0.0,40.0,4.0,0.0
16264,82.0,0.0,40.0,1.0,0.0
16265,78.0,0.0,40.0,1.0,0.0
16266,78.0,0.0,20.0,0.0,0.0
16267,82.0,0.0,20.0,0.0,0.0
16268,70.0,40.0,20.0,0.0,0.0
16269,56.0,0.0,40.0,0.0,0.0
16270,53.0,40.0,40.0,0.0,0.0
16271,65.0,0.0,40.0,2.0,0.0
16272,68.0,0.0,40.0,2.0,0.0
16273,80.0,0.0,40.0,1.0,0.0
16274,77.0,0.0,40.0,1.0,0.0
16275,65.0,0.0,40.0,4.0,0.0
16276,68.0,0.0,40.0,4.0,0.0
16277,68.0,0.0,20.0,0.0,0.0
16278,77.0,0.0,20.0,0.0,0.0
16279,80.0,0.0,20.0,0.0,0.0
16280,54.0,0.0,40.0,0.0,0.0
16281,51.0,0.0,40.0,0.0,0.0
16282,66.0,0.0,40.0,4.0,0.0
16283,75.0,0.0,40.0,1.0,0.0
16284,78.0,0.0,40.0,1.0,0.0
16285,63.0,0.0,40.0,2.0,0.0
16286,66.0,0.0,40.0,2.0,0.0
16287,63.0,0.0,40.0,4.0,0.0
16288,75.0,0.0,20.0,0.0,0.0
16289,78.0,0.0,20.0,0.0,0.0
16290,66.0,0.0,20.0,0.0,0.0
16291,65.0,0.0,40.0,2.0,0.0
16292,80.0,0.0,40.0,7.0,0.0
16293,68.0,0.0,40.0,2.0,0.0
16294,68.0,0.0,40.0,12.0,0.0
16295,35.0,0.0,120.0,6.0,0.0
16296,47.0,0.0,120.0,6.0,0.0
16297,56.0,0.0,120.0,8.0,0.0
16298,37.0,0.0,40.0,13.0,0.0
16299,49.0,0.0,120.0,8.0,0.0
16300,35.0,0.0,120.0,3.0,0.0
16301,56.0,0.0,40.0,0.0,0.0
16302,68.0,0.0,40.0,7.0,0.0
16303,77.0,0.0,40.0,7.0,0.0
16304,35.0,60.0,120.0,5.0,0.0
16305,65.0,0.0,40.0,4.0,0.0
16306,68.0,0.0,40.0,4.0,0.0
16307,56.0,0.0,40.0,12.0,0.0
16308,80.0,0.0,40.0,1.0,0.0
16309,80.0,0.0,20.0,0.0,0.0
16310,77.0,0.0,20.0,0.0,0.0
16311,68.0,40.0,20.0,0.0,0.0
16312,65.0,0.0,15.0,7.0,0.0
16313,77.0,40.0,40.0,7.0,0.0
16314,77.0,0.0,15.0,1.0,0.0
16315,65.0,0.0,40.0,2.0,0.0
16316,65.0,0.0,40.0,4.0,0.0
16317,53.0,0.0,40.0,12.0,0.0
16318,65.0,0.0,40.0,12.0,0.0
16319,53.0,0.0,15.0,0.0,0.0
16320,65.0,0.0,40.0,7.0,0.0
16321,37.0,0.0,40.0,13.0,0.0
16322,77.0,0.0,20.0,0.0,0.0
16323,65.0,0.0,20.0,0.0,0.0
16324,49.0,0.0,40.0,12.0,0.0
16325,49.0,0.0,40.0,0.0,0.0
16326,37.0,0.0,40.0,13.0,0.0
16327,61.0,0.0,40.0,4.0,0.0
16328,61.0,0.0,40.0,12.0,0.0
16329,61.0,0.0,40.0,2.0,0.0
16330,61.0,0.0,40.0,7.0,0.0
16331,73.0,0.0,40.0,1.0,0.0
16332,73.0,0.0,20.0,0.0,0.0
16333,61.0,0.0,20.0,0.0,0.0
16334,66.0,0.0,60.0,2.0,0.0
16335,46.0,0.0,60.0,6.0,0.0
16336,73.0,0.0,60.0,4.0,0.0
16337,85.0,0.0,60.0,0.0,0.0
16338,78.0,0.0,60.0,0.0,0.0
16339,73.0,0.0,60.0,0.0,0.0
16340,61.0,0.0,60.0,0.0,0.0
16341,58.0,0.0,60.0,0.0,0.0
16342,54.0,0.0,60.0,0.0,0.0
16343,73.0,0.0,15.0,7.0,0.0
16344,66.0,0.0,60.0,7.0,0.0
16345,61.0,0.0,60.0,12.0,0.0
16346,73.0,0.0,60.0,2.0,0.0
16347,34.0,0.0,60.0,6.0,0.0
16348,34.0,0.0,60.0,3.0,0.0
16349,85.0,0.0,60.0,7.0,0.0
16350,37.0,0.0,60.0,13.0,0.0
16351,49.0,0.0,60.0,8.0,0.0
16352,61.0,0.0,60.0,8.0,0.0
16353,66.0,0.0,60.0,4.0,0.0
16354,34.0,0.0,60.0,5.0,0.0
16355,78.0,0.0,60.0,1.0,0.0
16356,85.0,80.0,60.0,1.0,0.0
16357,84.0,0.0,120.0,1.0,0.0
16358,67.0,0.0,240.0,4.0,0.0
16359,64.0,0.0,240.0,4.0,0.0
16360,46.0,0.0,240.0,5.0,0.0
16361,72.0,20.0,120.0,2.0,0.0
16362,58.0,0.0,240.0,3.0,0.0
16363,84.0,0.0,120.0,7.0,0.0
16364,52.0,0.0,240.0,8.0,0.0
16365,55.0,0.0,240.0,8.0,0.0
16366,58.0,0.0,240.0,6.0,0.0
16367,46.0,0.0,240.0,6.0,0.0
16368,67.0,0.0,15.0,7.0,0.0
16369,64.0,20.0,15.0,7.0,0.0
16370,55.0,0.0,15.0,7.0,0.0
16371,52.0,0.0,15.0,7.0,0.0
16372,64.0,0.0,15.0,7.0,0.0
16373,67.0,0.0,15.0,7.0,0.0
16374,55.0,20.0,15.0,7.0,0.0
16375,52.0,0.0,15.0,7.0,0.0
16376,67.0,0.0,15.0,7.0,0.0
16377,64.0,0.0,20.0,7.0,0.0
16378,52.0,0.0,15.0,7.0,0.0
16379,55.0,20.0,15.0,7.0,0.0
16380,67.0,0.0,20.0,7.0,0.0
16381,64.0,0.0,20.0,7.0,0.0
16382,64.0,0.0,20.0,7.0,0.0
16383,55.0,0.0,15.0,7.0,0.0
16384,52.0,20.0,15.0,7.0,0.0
16385,55.0,0.0,15.0,7.0,0.0
16386,52.0,0.0,15.0,7.0,0.0
16387,85.0,0.0,120.0,1.0,0.0
16388,85.0,0.0,120.0,7.0,0.0
16389,67.0,0.0,15.0,7.0,0.0
16390,64.0,20.0,20.0,7.0,0.0
16391,73.0,20.0,120.0,2.0,0.0
16392,55.0,0.0,20.0,7.0,0.0
16393,64.0,0.0,15.0,7.0,0.0
16394,67.0,0.0,15.0,7.0,0.0
16395,52.0,20.0,15.0,7.0,0.0
16396,64.0,0.0,15.0,7.0,0.0
16397,67.0,0.0,15.0,7.0,0.0
16398,55.0,20.0,15.0,7.0,0.0
16399,52.0,0.0,15.0,7.0,0.0
16400,67.0,20.0,15.0,7.0,0.0
16401,52.0,0.0,20.0,7.0,0.0
16402,55.0,0.0,20.0,7.0,0.0
16403,64.0,20.0,15.0,7.0,0.0
16404,67.0,0.0,20.0,7.0,0.0
16405,52.0,0.0,20.0,7.0,0.0
16406,55.0,0.0,20.0,7.0,0.0
16407,65.0,0.0,240.0,4.0,0.0
16408,68.0,0.0,240.0,4.0,0.0
16409,59.0,20.0,120.0,3.0,0.0
16410,47.0,0.0,120.0,6.0,0.0
16411,59.0,0.0,120.0,6.0,0.0
16412,68.0,0.0,40.0,12.0,0.0
16413,56.0,0.0,240.0,8.0,0.0
16414,56.0,0.0,40.0,0.0,0.0
16415,73.0,0.0,120.0,1.0,0.0
16416,47.0,0.0,120.0,5.0,0.0
16417,37.0,0.0,40.0,13.0,0.0
16418,61.0,0.0,120.0,2.0,0.0
16419,65.0,0.0,20.0,7.0,0.0
16420,68.0,0.0,20.0,7.0,0.0
16421,53.0,0.0,240.0,8.0,0.0
16422,56.0,0.0,40.0,12.0,0.0
16423,56.0,20.0,15.0,7.0,0.0
16424,68.0,20.0,20.0,7.0,0.0
16425,53.0,0.0,15.0,7.0,0.0
16426,65.0,0.0,20.0,7.0,0.0
16427,80.0,0.0,20.0,0.0,0.0
16428,68.0,0.0,20.0,0.0,0.0
16429,53.0,0.0,15.0,7.0,0.0
16430,56.0,0.0,15.0,7.0,0.0
16431,53.0,0.0,40.0,0.0,0.0
16432,65.0,0.0,40.0,12.0,0.0
16433,53.0,0.0,40.0,12.0,0.0
16434,65.0,0.0,20.0,7.0,0.0
16435,77.0,0.0,20.0,0.0,0.0
16436,65.0,0.0,20.0,0.0,0.0
16437,65.0,0.0,20.0,7.0,0.0
16438,56.0,0.0,15.0,7.0,0.0
16439,53.0,20.0,15.0,7.0,0.0
16440,49.0,0.0,40.0,0.0,0.0
16441,56.0,0.0,15.0,7.0,0.0
16442,37.0,20.0,15.0,13.0,0.0
16443,49.0,0.0,40.0,12.0,0.0
16444,61.0,0.0,40.0,12.0,0.0
16445,61.0,20.0,15.0,7.0,0.0
16446,56.0,0.0,15.0,7.0,0.0
16447,53.0,0.0,15.0,7.0,0.0
16448,73.0,0.0,20.0,0.0,0.0
16449,35.0,20.0,120.0,5.0,0.0
16450,73.0,0.0,15.0,7.0,0.0
16451,56.0,0.0,15.0,7.0,0.0
16452,47.0,0.0,120.0,3.0,0.0
16453,85.0,0.0,60.0,0.0,0.0
16454,53.0,0.0,15.0,7.0,0.0
16455,61.0,0.0,15.0,0.0,0.0
16456,37.0,0.0,60.0,13.0,0.0
16457,35.0,0.0,120.0,6.0,0.0
16458,47.0,0.0,120.0,6.0,0.0
16459,73.0,0.0,60.0,0.0,0.0
16460,61.0,0.0,60.0,12.0,0.0
16461,65.0,0.0,20.0,7.0,0.0
16462,68.0,0.0,20.0,7.0,0.0
16463,53.0,20.0,15.0,7.0,0.0
16464,56.0,20.0,20.0,7.0,0.0
16465,53.0,0.0,20.0,7.0,0.0
16466,65.0,0.0,20.0,7.0,0.0
16467,56.0,0.0,15.0,7.0,0.0
16468,65.0,0.0,20.0,7.0,0.0
16469,68.0,20.0,15.0,7.0,0.0
16470,68.0,20.0,15.0,7.0,0.0
16471,65.0,20.0,20.0,7.0,0.0
16472,56.0,0.0,15.0,7.0,0.0
16473,53.0,0.0,15.0,7.0,0.0
16474,65.0,0.0,20.0,7.0,0.0
16475,68.0,0.0,20.0,7.0,0.0
16476,56.0,0.0,20.0,7.0,0.0
16477,53.0,0.0,20.0,7.0,0.0
16478,84.0,0.0,120.0,7.0,0.0
16479,46.0,0.0,240.0,6.0,0.0
16480,58.0,0.0,240.0,6.0,0.0
16481,58.0,0.0,240.0,3.0,0.0
16482,64.0,0.0,20.0,7.0,0.0
16483,72.0,0.0,120.0,2.0,0.0
16484,67.0,0.0,240.0,4.0,0.0
16485,84.0,0.0,120.0,1.0,0.0
16486,64.0,20.0,240.0,4.0,0.0
16487,55.0,0.0,240.0,8.0,0.0
16488,52.0,0.0,240.0,8.0,0.0
16489,55.0,0.0,20.0,7.0,0.0
16490,46.0,0.0,240.0,5.0,0.0
16491,55.0,0.0,20.0,7.0,0.0
16492,52.0,0.0,15.0,7.0,0.0
16493,67.0,20.0,15.0,7.0,0.0
16494,67.0,0.0,20.0,7.0,0.0
16495,64.0,20.0,15.0,7.0,0.0
16496,55.0,0.0,15.0,7.0,0.0
16497,64.0,0.0,20.0,7.0,0.0
16498,52.0,20.0,15.0,7.0,0.0
16499,55.0,0.0,20.0,7.0,0.0
16500,52.0,0.0,20.0,7.0,0.0
16501,67.0,20.0,15.0,7.0,0.0
16502,64.0,20.0,15.0,7.0,0.0
16503,55.0,0.0,15.0,7.0,0.0
16504,52.0,0.0,15.0,7.0,0.0
16505,85.0,0.0,120.0,1.0,0.0
16506,64.0,20.0,15.0,7.0,0.0
16507,67.0,0.0,15.0,7.0,0.0
16508,67.0,20.0,20.0,7.0,0.0
16509,55.0,20.0,15.0,7.0,0.0
16510,52.0,0.0,15.0,7.0,0.0
16511,55.0,0.0,15.0,7.0,0.0
16512,64.0,0.0,15.0,7.0,0.0
16513,67.0,0.0,20.0,7.0,0.0
16514,52.0,0.0,15.0,7.0,0.0
16515,64.0,0.0,20.0,7.0,0.0
16516,67.0,0.0,20.0,7.0,0.0
16517,55.0,20.0,15.0,7.0,0.0
16518,64.0,0.0,20.0,7.0,0.0
16519,55.0,20.0,15.0,7.0,0.0
16520,52.0,0.0,15.0,7.0,0.0
16521,64.0,0.0,20.0,7.0,0.0
16522,67.0,20.0,15.0,7.0,0.0
16523,55.0,0.0,15.0,7.0,0.0
16524,52.0,0.0,15.0,7.0,0.0
16525,53.0,0.0,240.0,8.0,0.0
16526,85.0,0.0,15.0,7.0,0.0
16527,56.0,0.0,240.0,8.0,0.0
16528,59.0,0.0,240.0,3.0,0.0
16529,73.0,0.0,15.0,2.0,0.0
16530,59.0,0.0,240.0,6.0,0.0
16531,47.0,0.0,240.0,6.0,0.0
16532,85.0,20.0,120.0,1.0,0.0
16533,47.0,0.0,240.0,5.0,0.0
16534,68.0,0.0,240.0,4.0,0.0
16535,65.0,0.0,240.0,4.0,0.0
16536,65.0,0.0,15.0,7.0,0.0
16537,68.0,0.0,15.0,7.0,0.0
16538,56.0,20.0,15.0,7.0,0.0
16539,53.0,0.0,15.0,7.0,0.0
16540,56.0,0.0,15.0,7.0,0.0
16541,53.0,0.0,15.0,7.0,0.0
16542,68.0,0.0,20.0,7.0,0.0
16543,65.0,20.0,15.0,7.0,0.0
16544,53.0,0.0,20.0,7.0,0.0
16545,56.0,0.0,20.0,7.0,0.0
16546,65.0,20.0,15.0,7.0,0.0
16547,68.0,0.0,15.0,7.0,0.0
16548,56.0,0.0,15.0,7.0,0.0
16549,53.0,0.0,15.0,7.0,0.0
16550,65.0,0.0,20.0,7.0,0.0
16551,68.0,20.0,15.0,7.0,0.0
16552,68.0,0.0,15.0,7.0,0.0
16553,56.0,0.0,15.0,7.0,0.0
16554,86.0,0.0,120.0,7.0,0.0
16555,65.0,0.0,20.0,7.0,0.0
16556,74.0,0.0,120.0,2.0,0.0
16557,86.0,0.0,120.0,1.0,0.0
16558,56.0,0.0,15.0,7.0,0.0
16559,53.0,0.0,15.0,7.0,0.0
16560,68.0,0.0,20.0,7.0,0.0
16561,65.0,0.0,20.0,7.0,0.0
16562,53.0,0.0,15.0,7.0,0.0
16563,56.0,20.0,15.0,7.0,0.0
16564,68.0,0.0,15.0,7.0,0.0
16565,65.0,0.0,15.0,7.0,0.0
16566,53.0,0.0,20.0,7.0,0.0
16567,56.0,0.0,20.0,7.0,0.0
16568,65.0,20.0,15.0,7.0,0.0
16569,56.0,0.0,20.0,7.0,0.0
16570,68.0,0.0,15.0,7.0,0.0
16571,65.0,20.0,15.0,7.0,0.0
16572,53.0,0.0,15.0,7.0,0.0
16573,56.0,0.0,20.0,7.0,0.0
16574,57.0,0.0,40.0,8.0,0.0
16575,62.0,0.0,120.0,2.0,0.0
16576,74.0,0.0,120.0,7.0,0.0
16577,69.0,0.0,240.0,4.0,0.0
16578,62.0,0.0,20.0,7.0,0.0
16579,57.0,0.0,120.0,3.0,0.0
16580,57.0,0.0,120.0,6.0,0.0
16581,45.0,0.0,120.0,6.0,0.0
16582,54.0,0.0,20.0,7.0,0.0
16583,66.0,0.0,240.0,4.0,0.0
16584,45.0,0.0,120.0,5.0,0.0
16585,54.0,0.0,40.0,8.0,0.0
16586,74.0,0.0,120.0,1.0,0.0
16587,57.0,20.0,40.0,0.0,0.0
16588,69.0,20.0,15.0,7.0,0.0
16589,62.0,0.0,20.0,7.0,0.0
16590,54.0,0.0,20.0,7.0,0.0
16591,81.0,0.0,20.0,0.0,0.0
16592,69.0,0.0,20.0,0.0,0.0
16593,66.0,0.0,15.0,7.0,0.0
16594,66.0,0.0,15.0,7.0,0.0
16595,42.0,0.0,15.0,13.0,0.0
16596,42.0,0.0,40.0,8.0,0.0
16597,54.0,0.0,40.0,0.0,0.0
16598,62.0,0.0,15.0,7.0,0.0
16599,54.0,0.0,15.0,7.0,0.0
16600,66.0,20.0,15.0,7.0,0.0
16601,78.0,0.0,20.0,0.0,0.0
16602,66.0,0.0,20.0,0.0,0.0
16603,54.0,0.0,15.0,7.0,0.0
16604,42.0,0.0,15.0,13.0,0.0
16605,62.0,0.0,15.0,7.0,0.0
16606,42.0,0.0,40.0,8.0,0.0
16607,54.0,20.0,15.0,8.0,0.0
16608,50.0,0.0,40.0,0.0,0.0
16609,62.0,20.0,15.0,7.0,0.0
16610,74.0,0.0,20.0,0.0,0.0
16611,62.0,0.0,20.0,0.0,0.0
16612,54.0,0.0,60.0,8.0,0.0
16613,54.0,0.0,15.0,7.0,0.0
16614,62.0,0.0,15.0,7.0,0.0
16615,74.0,0.0,20.0,7.0,0.0
16616,45.0,20.0,120.0,3.0,0.0
16617,33.0,0.0,120.0,5.0,0.0
16618,86.0,20.0,60.0,0.0,0.0
16619,42.0,0.0,60.0,13.0,0.0
16620,33.0,0.0,120.0,6.0,0.0
16621,74.0,0.0,60.0,0.0,0.0
16622,62.0,0.0,60.0,0.0,0.0
16623,57.0,0.0,60.0,8.0,0.0
16624,69.0,0.0,20.0,7.0,0.0
16625,66.0,0.0,20.0,7.0,0.0
16626,66.0,0.0,20.0,7.0,0.0
16627,62.0,20.0,15.0,7.0,0.0
16628,54.0,0.0,15.0,7.0,0.0
16629,62.0,0.0,15.0,7.0,0.0
16630,54.0,0.0,15.0,7.0,0.0
16631,69.0,0.0,15.0,7.0,0.0
16632,54.0,0.0,15.0,7.0,0.0
16633,66.0,0.0,15.0,7.0,0.0
16634,69.0,0.0,15.0,7.0,0.0
16635,62.0,20.0,15.0,7.0,0.0
16636,66.0,0.0,15.0,7.0,0.0
16637,69.0,20.0,15.0,7.0,0.0
16638,62.0,0.0,20.0,7.0,0.0
16639,54.0,0.0,20.0,7.0,0.0
16640,57.0,0.0,240.0,3.0,0.0
16641,66.0,0.0,15.0,7.0,0.0
16642,45.0,0.0,15.0,6.0,0.0
16643,86.0,0.0,120.0,7.0,0.0
16644,72.0,0.0,240.0,4.0,0.0
16645,66.0,0.0,240.0,4.0,0.0
16646,72.0,0.0,20.0,7.0,0.0
16647,86.0,0.0,120.0,1.0,0.0
16648,62.0,0.0,20.0,7.0,0.0
16649,45.0,0.0,240.0,5.0,0.0
16650,57.0,0.0,240.0,6.0,0.0
16651,74.0,20.0,120.0,2.0,0.0
16652,62.0,20.0,15.0,7.0,0.0
16653,72.0,0.0,20.0,7.0,0.0
16654,62.0,0.0,20.0,7.0,0.0
16655,66.0,20.0,15.0,7.0,0.0
16656,62.0,0.0,15.0,7.0,0.0
16657,66.0,20.0,15.0,7.0,0.0
16658,62.0,0.0,15.0,7.0,0.0
16659,72.0,0.0,15.0,7.0,0.0
16660,62.0,0.0,15.0,7.0,0.0
16661,62.0,0.0,20.0,7.0,0.0
16662,72.0,20.0,20.0,7.0,0.0
16663,66.0,0.0,15.0,7.0,0.0
16664,62.0,0.0,15.0,7.0,0.0
16665,72.0,0.0,20.0,7.0,0.0
16666,87.0,0.0,120.0,7.0,0.0
16667,87.0,0.0,120.0,1.0,0.0
16668,72.0,20.0,15.0,7.0,0.0
16669,66.0,0.0,15.0,7.0,0.0
16670,63.0,0.0,15.0,7.0,0.0
16671,63.0,0.0,15.0,7.0,0.0
16672,72.0,0.0,15.0,7.0,0.0
16673,63.0,0.0,20.0,7.0,0.0
16674,66.0,0.0,20.0,7.0,0.0
16675,63.0,20.0,15.0,7.0,0.0
16676,63.0,0.0,20.0,7.0,0.0
16677,72.0,0.0,15.0,7.0,0.0
16678,63.0,0.0,15.0,7.0,0.0
16679,66.0,20.0,15.0,7.0,0.0
16680,66.0,20.0,15.0,7.0,0.0
16681,63.0,0.0,15.0,7.0,0.0
16682,72.0,0.0,20.0,7.0,0.0
16683,63.0,0.0,20.0,7.0,0.0
16684,85.0,0.0,240.0,1.0,0.0
16685,46.0,0.0,120.0,5.0,0.0
16686,67.0,0.0,120.0,4.0,0.0
16687,73.0,0.0,240.0,4.0,0.0
16688,73.0,0.0,240.0,2.0,0.0
16689,75.0,0.0,15.0,2.0,0.0
16690,58.0,0.0,120.0,3.0,0.0
16691,87.0,0.0,120.0,7.0,0.0
16692,73.0,0.0,20.0,7.0,0.0
16693,63.0,0.0,15.0,7.0,0.0
16694,63.0,0.0,20.0,7.0,0.0
16695,67.0,0.0,20.0,7.0,0.0
16696,46.0,0.0,120.0,6.0,0.0
16697,58.0,0.0,120.0,6.0,0.0
16698,67.0,0.0,20.0,7.0,0.0
16699,63.0,20.0,15.0,7.0,0.0
16700,73.0,0.0,20.0,7.0,0.0
16701,63.0,0.0,15.0,7.0,0.0
16702,73.0,0.0,20.0,7.0,0.0
16703,63.0,20.0,15.0,7.0,0.0
16704,63.0,0.0,15.0,7.0,0.0
16705,67.0,20.0,15.0,7.0,0.0
16706,63.0,0.0,15.0,7.0,0.0
16707,73.0,0.0,15.0,7.0,0.0
16708,67.0,0.0,15.0,7.0,0.0
16709,63.0,0.0,15.0,7.0,0.0
16710,73.0,0.0,15.0,7.0,0.0
16711,63.0,0.0,15.0,7.0,0.0
16712,44.0,0.0,240.0,12.0,0.0
16713,56.0,0.0,120.0,3.0,0.0
16714,92.0,20.0,180.0,7.0,0.0
16715,80.0,0.0,180.0,2.0,0.0
16716,56.0,0.0,120.0,6.0,0.0
16717,56.0,0.0,240.0,8.0,0.0
16718,68.0,0.0,120.0,4.0,0.0
16719,44.0,0.0,120.0,5.0,0.0
16720,68.0,20.0,15.0,7.0,0.0
16721,73.0,0.0,15.0,7.0,0.0
16722,56.0,0.0,15.0,7.0,0.0
16723,63.0,0.0,15.0,7.0,0.0
16724,73.0,0.0,15.0,7.0,0.0
16725,56.0,0.0,20.0,7.0,0.0
16726,73.0,0.0,15.0,7.0,0.0
16727,68.0,20.0,15.0,7.0,0.0
16728,63.0,0.0,15.0,7.0,0.0
16729,68.0,0.0,15.0,7.0,0.0
16730,56.0,0.0,15.0,7.0,0.0
16731,73.0,0.0,20.0,7.0,0.0
16732,68.0,0.0,15.0,7.0,0.0
16733,56.0,0.0,15.0,7.0,0.0
16734,63.0,20.0,15.0,7.0,0.0
16735,73.0,0.0,20.0,7.0,0.0
16736,87.0,0.0,15.0,1.0,0.0
16737,44.0,0.0,120.0,3.0,0.0
16738,44.0,0.0,15.0,6.0,0.0
16739,32.0,0.0,120.0,6.0,0.0
16740,72.0,0.0,120.0,2.0,0.0
16741,63.0,0.0,15.0,7.0,0.0
16742,72.0,0.0,120.0,4.0,0.0
16743,32.0,0.0,120.0,5.0,0.0
16744,66.0,0.0,120.0,4.0,0.0
16745,84.0,15.0,120.0,1.0,0.0
16746,72.0,0.0,20.0,7.0,0.0
16747,56.0,0.0,20.0,7.0,0.0
16748,56.0,0.0,20.0,7.0,0.0
16749,63.0,20.0,20.0,7.0,0.0
16750,66.0,20.0,15.0,7.0,0.0
16751,72.0,0.0,20.0,7.0,0.0
16752,66.0,0.0,15.0,7.0,0.0
16753,72.0,0.0,20.0,7.0,0.0
16754,56.0,0.0,20.0,7.0,0.0
16755,63.0,0.0,20.0,7.0,0.0
16756,63.0,0.0,20.0,7.0,0.0
16757,66.0,0.0,15.0,7.0,0.0
16758,72.0,0.0,20.0,7.0,0.0
16759,75.0,0.0,60.0,2.0,0.0
16760,56.0,0.0,20.0,7.0,0.0
16761,87.0,0.0,60.0,7.0,0.0
16762,66.0,20.0,15.0,7.0,0.0
16763,63.0,0.0,20.0,7.0,0.0
16764,72.0,0.0,20.0,7.0,0.0
16765,72.0,0.0,20.0,7.0,0.0
16766,66.0,20.0,15.0,7.0,0.0
16767,56.0,0.0,15.0,7.0,0.0
16768,63.0,0.0,20.0,7.0,0.0
16769,59.0,0.0,300.0,12.0,0.0
16770,56.0,0.0,15.0,12.0,0.0
16771,49.0,0.0,300.0,8.0,0.0
16772,37.0,0.0,300.0,8.0,0.0
16773,68.0,30.0,300.0,4.0,0.0
16774,71.0,0.0,300.0,4.0,0.0
16775,37.0,5.0,15.0,13.0,0.0
16776,68.0,0.0,20.0,7.0,0.0
16777,71.0,10.0,20.0,7.0,0.0
16778,25.0,0.0,300.0,5.0,0.0
16779,90.0,0.0,240.0,7.0,0.0
16780,78.0,0.0,240.0,2.0,0.0
16781,37.0,0.0,40.0,3.0,0.0
16782,83.0,0.0,300.0,1.0,0.0
16783,85.0,0.0,300.0,1.0,0.0
16784,37.0,5.0,40.0,6.0,0.0
16785,71.0,0.0,300.0,2.0,0.0
16786,66.0,0.0,20.0,7.0,0.0
16787,56.0,0.0,15.0,7.0,0.0
16788,71.0,0.0,20.0,7.0,0.0
16789,68.0,0.0,20.0,7.0,0.0
16790,37.0,10.0,15.0,13.0,0.0
16791,68.0,0.0,20.0,7.0,0.0
16792,66.0,0.0,15.0,7.0,0.0
16793,44.0,0.0,40.0,3.0,0.0
16794,71.0,0.0,20.0,7.0,0.0
16795,44.0,0.0,40.0,6.0,0.0
16796,37.0,15.0,15.0,13.0,0.0
16797,66.0,0.0,15.0,7.0,0.0
16798,56.0,0.0,15.0,7.0,0.0
16799,71.0,0.0,20.0,7.0,0.0
16800,68.0,0.0,20.0,7.0,0.0
16801,37.0,5.0,15.0,13.0,0.0
16802,68.0,5.0,20.0,7.0,0.0
16803,66.0,10.0,15.0,7.0,0.0
16804,56.0,0.0,15.0,7.0,0.0
16805,48.0,0.0,40.0,3.0,0.0
16806,71.0,0.0,20.0,7.0,0.0
16807,48.0,0.0,40.0,6.0,0.0
16808,37.0,15.0,15.0,13.0,0.0
16809,68.0,0.0,20.0,7.0,0.0
16810,71.0,0.0,15.0,7.0,0.0
16811,49.0,0.0,40.0,3.0,0.0
16812,37.0,0.0,15.0,13.0,0.0
16813,49.0,0.0,40.0,6.0,0.0
16814,66.0,15.0,15.0,7.0,0.0
16815,56.0,0.0,15.0,7.0,0.0
16816,68.0,0.0,20.0,7.0,0.0
16817,66.0,10.0,15.0,7.0,0.0
16818,37.0,10.0,15.0,13.0,0.0
16819,56.0,0.0,15.0,7.0,0.0
16820,56.0,0.0,40.0,6.0,0.0
16821,66.0,0.0,15.0,7.0,0.0
16822,56.0,0.0,40.0,3.0,0.0
16823,68.0,5.0,15.0,7.0,0.0
16824,71.0,0.0,15.0,7.0,0.0
16825,37.0,15.0,15.0,13.0,0.0
16826,68.0,0.0,15.0,7.0,0.0
16827,71.0,0.0,15.0,7.0,0.0
16828,37.0,15.0,15.0,13.0,0.0
16829,66.0,0.0,15.0,7.0,0.0
16830,37.0,10.0,15.0,13.0,0.0
16831,60.0,30.0,40.0,3.0,0.0
16832,60.0,0.0,40.0,6.0,0.0
16833,66.0,0.0,15.0,7.0,0.0
16834,56.0,10.0,15.0,7.0,0.0
16835,71.0,5.0,20.0,7.0,0.0
16836,68.0,0.0,20.0,7.0,0.0
16837,37.0,15.0,15.0,13.0,0.0
16838,68.0,0.0,20.0,7.0,0.0
16839,56.0,0.0,20.0,7.0,0.0
16840,66.0,0.0,20.0,7.0,0.0
16841,71.0,0.0,20.0,7.0,0.0
16842,37.0,0.0,15.0,13.0,0.0
16843,65.0,0.0,60.0,7.0,0.0
16844,89.0,0.0,60.0,7.0,0.0
16845,77.0,0.0,60.0,2.0,0.0
16846,56.0,0.0,60.0,7.0,0.0
16847,61.0,0.0,60.0,6.0,0.0
16848,61.0,0.0,60.0,3.0,0.0
16849,37.0,30.0,30.0,13.0,0.0
16850,68.0,0.0,60.0,7.0,0.0
16851,71.0,0.0,60.0,7.0,0.0
16852,37.0,0.0,30.0,0.0,0.0
16853,41.0,0.0,30.0,0.0,0.0
16854,44.0,30.0,30.0,0.0,0.0
16855,48.0,30.0,30.0,0.0,0.0
16856,61.0,0.0,120.0,0.0,0.0
16857,49.0,30.0,30.0,0.0,0.0
16858,53.0,30.0,30.0,0.0,0.0
16859,56.0,30.0,30.0,0.0,0.0
16860,60.0,40.0,30.0,0.0,0.0
16861,37.0,0.0,120.0,11.0,0.0
16862,71.0,0.0,120.0,0.0,0.0
16863,37.0,20.0,60.0,0.0,0.0
16864,61.0,0.0,120.0,11.0,0.0
16865,65.0,20.0,20.0,0.0,0.0
16866,61.0,0.0,20.0,0.0,0.0
16867,56.0,20.0,20.0,0.0,0.0
16868,49.0,20.0,20.0,0.0,0.0
16869,44.0,40.0,20.0,0.0,0.0
16870,65.0,0.0,120.0,11.0,0.0
16871,61.0,0.0,15.0,11.0,0.0
16872,49.0,0.0,120.0,11.0,0.0
16873,53.0,0.0,15.0,11.0,0.0
16874,73.0,0.0,60.0,0.0,0.0
16875,37.0,20.0,60.0,0.0,0.0
16876,65.0,20.0,20.0,0.0,0.0
16877,61.0,0.0,20.0,0.0,0.0
16878,70.0,0.0,60.0,0.0,0.0
16879,58.0,20.0,20.0,0.0,0.0
16880,49.0,20.0,20.0,0.0,0.0
16881,46.0,40.0,20.0,0.0,0.0
16882,37.0,0.0,60.0,0.0,0.0
16883,68.0,0.0,120.0,0.0,0.0
16884,65.0,20.0,20.0,0.0,0.0
16885,61.0,20.0,20.0,0.0,0.0
16886,59.0,20.0,20.0,0.0,0.0
16887,49.0,20.0,20.0,0.0,0.0
16888,47.0,40.0,20.0,0.0,0.0
16889,37.0,0.0,60.0,0.0,0.0
16890,70.0,40.0,120.0,0.0,0.0
16891,65.0,0.0,120.0,11.0,0.0
16892,53.0,0.0,120.0,11.0,0.0
16893,61.0,0.0,120.0,11.0,0.0
16894,49.0,0.0,120.0,11.0,0.0
16895,65.0,20.0,20.0,0.0,0.0
16896,61.0,20.0,20.0,0.0,0.0
16897,58.0,20.0,20.0,0.0,0.0
16898,49.0,20.0,20.0,0.0,0.0
16899,46.0,0.0,20.0,0.0,0.0
16900,71.0,0.0,120.0,0.0,0.0
16901,37.0,0.0,60.0,0.0,0.0
16902,65.0,20.0,20.0,0.0,0.0
16903,61.0,20.0,20.0,0.0,0.0
16904,56.0,20.0,20.0,0.0,0.0
16905,49.0,20.0,20.0,0.0,0.0
16906,44.0,40.0,20.0,0.0,0.0
16907,65.0,0.0,120.0,11.0,0.0
16908,49.0,0.0,120.0,11.0,0.0
16909,53.0,40.0,120.0,11.0,0.0
16910,61.0,0.0,120.0,11.0,0.0
16911,37.0,20.0,60.0,0.0,0.0
16912,73.0,0.0,60.0,0.0,0.0
16913,65.0,20.0,20.0,0.0,0.0
16914,61.0,0.0,20.0,0.0,0.0
16915,70.0,0.0,60.0,0.0,0.0
16916,58.0,20.0,20.0,0.0,0.0
16917,49.0,20.0,20.0,0.0,0.0
16918,46.0,0.0,20.0,0.0,0.0
16919,37.0,20.0,60.0,0.0,0.0
16920,68.0,40.0,120.0,0.0,0.0
16921,65.0,20.0,20.0,0.0,0.0
16922,61.0,0.0,20.0,0.0,0.0
16923,59.0,20.0,20.0,0.0,0.0
16924,49.0,20.0,20.0,0.0,0.0
16925,47.0,0.0,20.0,0.0,0.0
16926,49.0,0.0,120.0,11.0,0.0
16927,67.0,0.0,120.0,11.0,0.0
16928,37.0,0.0,60.0,0.0,0.0
16929,70.0,40.0,120.0,0.0,0.0
16930,52.0,0.0,120.0,11.0,0.0
16931,58.0,0.0,120.0,11.0,0.0
16932,67.0,20.0,20.0,0.0,0.0
16933,64.0,20.0,20.0,0.0,0.0
16934,55.0,20.0,20.0,0.0,0.0
16935,52.0,20.0,20.0,0.0,0.0
16936,49.0,0.0,20.0,0.0,0.0
16937,51.0,0.0,120.0,11.0,0.0
16938,68.0,0.0,120.0,11.0,0.0
16939,63.0,40.0,120.0,11.0,0.0
16940,47.0,0.0,120.0,11.0,0.0
16941,75.0,0.0,120.0,0.0,0.0
16942,35.0,20.0,60.0,0.0,0.0
16943,68.0,20.0,20.0,0.0,0.0
16944,63.0,0.0,20.0,0.0,0.0
16945,56.0,20.0,20.0,0.0,0.0
16946,51.0,20.0,20.0,0.0,0.0
16947,44.0,0.0,20.0,0.0,0.0
16948,64.0,0.0,120.0,11.0,0.0
16949,73.0,0.0,60.0,0.0,0.0
16950,61.0,40.0,120.0,11.0,0.0
16951,58.0,0.0,120.0,11.0,0.0
16952,43.0,0.0,120.0,11.0,0.0
16953,31.0,20.0,60.0,0.0,0.0
16954,64.0,20.0,20.0,0.0,0.0
16955,61.0,0.0,20.0,0.0,0.0
16956,70.0,0.0,60.0,0.0,0.0
16957,58.0,20.0,20.0,0.0,0.0
16958,52.0,20.0,20.0,0.0,0.0
16959,49.0,0.0,20.0,0.0,0.0
16960,63.0,0.0,120.0,11.0,0.0
16961,32.0,20.0,60.0,0.0,0.0
16962,71.0,0.0,60.0,0.0,0.0
16963,44.0,0.0,120.0,11.0,0.0
16964,59.0,0.0,120.0,11.0,0.0
16965,51.0,0.0,120.0,11.0,0.0
16966,63.0,20.0,20.0,0.0,0.0
16967,59.0,0.0,20.0,0.0,0.0
16968,56.0,20.0,20.0,0.0,0.0
16969,68.0,40.0,60.0,0.0,0.0
16970,51.0,20.0,20.0,0.0,0.0
16971,47.0,0.0,20.0,0.0,0.0
16972,47.0,0.0,120.0,11.0,0.0
16973,57.0,40.0,120.0,11.0,0.0
16974,69.0,20.0,60.0,0.0,0.0
16975,35.0,0.0,60.0,0.0,0.0
16976,63.0,0.0,120.0,11.0,0.0
16977,63.0,20.0,20.0,0.0,0.0
16978,59.0,0.0,20.0,0.0,0.0
16979,67.0,0.0,60.0,0.0,0.0
16980,57.0,20.0,20.0,0.0,0.0
16981,51.0,20.0,20.0,0.0,0.0
16982,47.0,0.0,20.0,0.0,0.0
16983,40.0,0.0,60.0,0.0,0.0
16984,59.0,0.0,15.0,11.0,0.0
16985,52.0,0.0,120.0,11.0,0.0
16986,56.0,0.0,120.0,11.0,0.0
16987,59.0,20.0,20.0,0.0,0.0
16988,56.0,20.0,20.0,0.0,0.0
16989,52.0,20.0,20.0,0.0,0.0
16990,47.0,20.0,20.0,0.0,0.0
16991,44.0,40.0,20.0,0.0,0.0
16992,60.0,0.0,120.0,11.0,0.0
16993,66.0,0.0,240.0,0.0,0.0
16994,38.0,20.0,60.0,0.0,0.0
16995,68.0,0.0,15.0,0.0,0.0
16996,50.0,0.0,120.0,11.0,0.0
16997,54.0,40.0,120.0,11.0,0.0
16998,56.0,0.0,120.0,11.0,0.0
16999,60.0,20.0,20.0,0.0,0.0
17000,56.0,0.0,20.0,0.0,0.0
17001,54.0,20.0,20.0,0.0,0.0
17002,48.0,20.0,20.0,0.0,0.0
17003,44.0,0.0,20.0,0.0,0.0
17004,60.0,20.0,20.0,0.0,0.0
17005,56.0,20.0,20.0,0.0,0.0
17006,54.0,20.0,20.0,0.0,0.0
17007,48.0,20.0,20.0,0.0,0.0
17008,44.0,0.0,20.0,0.0,0.0
17009,61.0,0.0,120.0,7.0,0.0
17010,65.0,20.0,20.0,0.0,0.0
17011,73.0,0.0,120.0,1.0,0.0
17012,49.0,0.0,120.0,3.0,0.0
17013,53.0,0.0,120.0,11.0,0.0
17014,37.0,0.0,60.0,0.0,0.0
17015,68.0,20.0,15.0,0.0,0.0
17016,61.0,0.0,120.0,11.0,0.0
17017,37.0,0.0,120.0,11.0,0.0
17018,49.0,40.0,960.0,12.0,0.0
17019,61.0,0.0,960.0,12.0,0.0
17020,61.0,20.0,20.0,0.0,0.0
17021,56.0,20.0,20.0,0.0,0.0
17022,53.0,20.0,20.0,0.0,0.0
17023,49.0,20.0,20.0,0.0,0.0
17024,44.0,40.0,20.0,0.0,0.0
17025,56.0,0.0,120.0,3.0,0.0
17026,37.0,0.0,60.0,0.0,0.0
17027,71.0,0.0,120.0,7.0,0.0
17028,83.0,40.0,120.0,1.0,0.0
17029,77.0,20.0,20.0,0.0,0.0
17030,73.0,20.0,20.0,0.0,0.0
17031,65.0,20.0,20.0,0.0,0.0
17032,61.0,20.0,20.0,0.0,0.0
17033,53.0,0.0,20.0,0.0,0.0
17034,73.0,20.0,60.0,7.0,0.0
17035,85.0,0.0,60.0,1.0,0.0
17036,49.0,0.0,60.0,0.0,0.0
17037,58.0,0.0,120.0,3.0,0.0
17038,37.0,0.0,120.0,11.0,0.0
17039,53.0,0.0,120.0,11.0,0.0
17040,61.0,0.0,120.0,11.0,0.0
17041,89.0,20.0,20.0,0.0,0.0
17042,85.0,0.0,20.0,0.0,0.0
17043,70.0,0.0,60.0,7.0,0.0
17044,77.0,20.0,20.0,0.0,0.0
17045,82.0,40.0,60.0,1.0,0.0
17046,73.0,20.0,20.0,0.0,0.0
17047,65.0,0.0,20.0,0.0,0.0
17048,68.0,0.0,120.0,7.0,0.0
17049,80.0,40.0,120.0,1.0,0.0
17050,61.0,20.0,60.0,0.0,0.0
17051,59.0,0.0,120.0,3.0,0.0
17052,77.0,20.0,20.0,0.0,0.0
17053,73.0,0.0,20.0,0.0,0.0
17054,65.0,20.0,20.0,0.0,0.0
17055,61.0,20.0,20.0,0.0,0.0
17056,53.0,0.0,20.0,0.0,0.0
17057,70.0,0.0,120.0,7.0,0.0
17058,58.0,0.0,120.0,3.0,0.0
17059,37.0,0.0,120.0,11.0,0.0
17060,49.0,20.0,60.0,0.0,0.0
17061,82.0,0.0,120.0,1.0,0.0
17062,61.0,40.0,120.0,11.0,0.0
17063,53.0,0.0,120.0,11.0,0.0
17064,65.0,20.0,20.0,0.0,0.0
17065,61.0,0.0,20.0,0.0,0.0
17066,53.0,20.0,20.0,0.0,0.0
17067,49.0,20.0,20.0,0.0,0.0
17068,41.0,0.0,20.0,0.0,0.0
17069,56.0,0.0,120.0,3.0,0.0
17070,37.0,20.0,60.0,0.0,0.0
17071,83.0,0.0,120.0,1.0,0.0
17072,71.0,40.0,120.0,7.0,0.0
17073,77.0,20.0,20.0,0.0,0.0
17074,73.0,0.0,20.0,0.0,0.0
17075,65.0,20.0,20.0,0.0,0.0
17076,61.0,20.0,20.0,0.0,0.0
17077,53.0,0.0,20.0,0.0,0.0
17078,85.0,0.0,60.0,1.0,0.0
17079,73.0,0.0,60.0,7.0,0.0
17080,49.0,20.0,60.0,0.0,0.0
17081,53.0,0.0,120.0,11.0,0.0
17082,37.0,0.0,120.0,11.0,0.0
17083,61.0,0.0,120.0,11.0,0.0
17084,58.0,40.0,120.0,3.0,0.0
17085,89.0,20.0,20.0,0.0,0.0
17086,85.0,0.0,20.0,0.0,0.0
17087,82.0,0.0,60.0,1.0,0.0
17088,70.0,0.0,60.0,7.0,0.0
17089,77.0,20.0,20.0,0.0,0.0
17090,73.0,20.0,20.0,0.0,0.0
17091,65.0,0.0,20.0,0.0,0.0
17092,59.0,0.0,120.0,3.0,0.0
17093,61.0,20.0,60.0,0.0,0.0
17094,68.0,0.0,120.0,7.0,0.0
17095,80.0,0.0,120.0,1.0,0.0
17096,77.0,20.0,20.0,0.0,0.0
17097,73.0,0.0,20.0,0.0,0.0
17098,65.0,20.0,20.0,0.0,0.0
17099,61.0,20.0,20.0,0.0,0.0
17100,53.0,0.0,20.0,0.0,0.0
17101,53.0,0.0,120.0,11.0,0.0
17102,61.0,0.0,120.0,11.0,0.0
17103,82.0,0.0,120.0,1.0,0.0
17104,70.0,0.0,120.0,7.0,0.0
17105,52.0,0.0,120.0,3.0,0.0
17106,49.0,20.0,60.0,0.0,0.0
17107,70.0,0.0,120.0,2.0,0.0
17108,54.0,0.0,240.0,8.0,0.0
17109,40.0,40.0,120.0,11.0,0.0
17110,66.0,20.0,20.0,0.0,0.0
17111,61.0,0.0,20.0,0.0,0.0
17112,56.0,20.0,20.0,0.0,0.0
17113,54.0,20.0,20.0,0.0,0.0
17114,49.0,0.0,20.0,0.0,0.0
17115,51.0,40.0,120.0,3.0,0.0
17116,42.0,20.0,60.0,0.0,0.0
17117,78.0,0.0,120.0,1.0,0.0
17118,59.0,0.0,120.0,11.0,0.0
17119,39.0,0.0,120.0,11.0,0.0
17120,78.0,0.0,120.0,2.0,0.0
17121,78.0,0.0,120.0,7.0,0.0
17122,78.0,20.0,20.0,0.0,0.0
17123,71.0,0.0,20.0,0.0,0.0
17124,68.0,20.0,20.0,0.0,0.0
17125,66.0,20.0,20.0,0.0,0.0
17126,59.0,0.0,20.0,0.0,0.0
17127,42.0,0.0,15.0,8.0,0.0
17128,76.0,20.0,60.0,2.0,0.0
17129,34.0,0.0,120.0,11.0,0.0
17130,46.0,0.0,120.0,3.0,0.0
17131,54.0,0.0,120.0,11.0,0.0
17132,66.0,0.0,120.0,11.0,0.0
17133,54.0,0.0,60.0,0.0,0.0
17134,88.0,0.0,60.0,1.0,0.0
17135,76.0,0.0,60.0,7.0,0.0
17136,54.0,0.0,240.0,8.0,0.0
17137,90.0,20.0,20.0,0.0,0.0
17138,88.0,0.0,20.0,0.0,0.0
17139,74.0,40.0,60.0,2.0,0.0
17140,73.0,0.0,60.0,7.0,0.0
17141,86.0,0.0,60.0,1.0,0.0
17142,80.0,20.0,20.0,0.0,0.0
17143,78.0,20.0,20.0,0.0,0.0
17144,76.0,0.0,20.0,0.0,0.0
17145,47.0,0.0,120.0,3.0,0.0
17146,35.0,0.0,120.0,11.0,0.0
17147,75.0,0.0,60.0,7.0,0.0
17148,75.0,0.0,60.0,2.0,0.0
17149,87.0,0.0,60.0,1.0,0.0
17150,66.0,20.0,60.0,0.0,0.0
17151,78.0,20.0,20.0,0.0,0.0
17152,75.0,0.0,20.0,0.0,0.0
17153,68.0,20.0,20.0,0.0,0.0
17154,66.0,0.0,60.0,7.0,0.0
17155,78.0,40.0,60.0,1.0,0.0
17156,66.0,0.0,60.0,2.0,0.0
17157,66.0,20.0,20.0,0.0,0.0
17158,61.0,0.0,20.0,0.0,0.0
17159,66.0,0.0,120.0,11.0,0.0
17160,75.0,0.0,60.0,2.0,0.0
17161,45.0,0.0,120.0,3.0,0.0
17162,31.0,0.0,120.0,11.0,0.0
17163,42.0,0.0,240.0,8.0,0.0
17164,87.0,0.0,60.0,1.0,0.0
17165,54.0,0.0,120.0,11.0,0.0
17166,54.0,0.0,240.0,8.0,0.0
17167,54.0,0.0,60.0,0.0,0.0
17168,75.0,0.0,60.0,7.0,0.0
17169,66.0,20.0,20.0,0.0,0.0
17170,63.0,20.0,20.0,0.0,0.0
17171,84.0,40.0,60.0,1.0,0.0
17172,72.0,0.0,60.0,7.0,0.0
17173,56.0,20.0,20.0,0.0,0.0
17174,72.0,0.0,60.0,2.0,0.0
17175,54.0,20.0,20.0,0.0,0.0
17176,51.0,0.0,20.0,0.0,0.0
17177,73.0,20.0,60.0,2.0,0.0
17178,73.0,0.0,60.0,7.0,0.0
17179,34.0,0.0,120.0,11.0,0.0
17180,42.0,0.0,60.0,0.0,0.0
17181,85.0,0.0,60.0,1.0,0.0
17182,46.0,0.0,120.0,3.0,0.0
17183,78.0,20.0,20.0,0.0,0.0
17184,73.0,0.0,20.0,0.0,0.0
17185,66.0,0.0,60.0,7.0,0.0
17186,68.0,20.0,20.0,0.0,0.0
17187,78.0,0.0,60.0,1.0,0.0
17188,66.0,40.0,60.0,2.0,0.0
17189,66.0,20.0,20.0,0.0,0.0
17190,61.0,0.0,20.0,0.0,0.0
17191,66.0,0.0,120.0,11.0,0.0
17192,61.0,0.0,60.0,8.0,0.0
17193,54.0,0.0,60.0,0.0,0.0
17194,73.0,20.0,60.0,2.0,0.0
17195,85.0,0.0,60.0,1.0,0.0
17196,51.0,0.0,120.0,3.0,0.0
17197,54.0,0.0,120.0,11.0,0.0
17198,39.0,0.0,120.0,11.0,0.0
17199,73.0,0.0,60.0,7.0,0.0
17200,90.0,20.0,20.0,0.0,0.0
17201,83.0,0.0,20.0,0.0,0.0
17202,80.0,20.0,20.0,0.0,0.0
17203,83.0,0.0,60.0,1.0,0.0
17204,71.0,0.0,60.0,7.0,0.0
17205,71.0,0.0,60.0,2.0,0.0
17206,59.0,0.0,60.0,8.0,0.0
17207,78.0,20.0,20.0,0.0,0.0
17208,71.0,40.0,20.0,0.0,0.0
17209,49.0,0.0,120.0,3.0,0.0
17210,66.0,0.0,60.0,7.0,0.0
17211,37.0,0.0,120.0,11.0,0.0
17212,66.0,0.0,60.0,0.0,0.0
17213,78.0,0.0,60.0,1.0,0.0
17214,66.0,0.0,60.0,2.0,0.0
17215,54.0,0.0,60.0,8.0,0.0
17216,73.0,20.0,20.0,0.0,0.0
17217,70.0,0.0,20.0,0.0,0.0
17218,68.0,0.0,60.0,7.0,0.0
17219,65.0,40.0,60.0,11.0,0.0
17220,80.0,0.0,60.0,1.0,0.0
17221,77.0,0.0,60.0,1.0,0.0
17222,56.0,0.0,60.0,8.0,0.0
17223,65.0,20.0,20.0,0.0,0.0
17224,65.0,0.0,60.0,2.0,0.0
17225,68.0,0.0,60.0,2.0,0.0
17226,56.0,0.0,60.0,11.0,0.0
17227,53.0,0.0,60.0,8.0,0.0
17228,61.0,20.0,20.0,0.0,0.0
17229,56.0,0.0,20.0,0.0,0.0
17230,78.0,0.0,60.0,1.0,0.0
17231,66.0,0.0,60.0,2.0,0.0
17232,49.0,20.0,60.0,0.0,0.0
17233,70.0,0.0,60.0,7.0,0.0
17234,40.0,0.0,120.0,11.0,0.0
17235,54.0,0.0,60.0,8.0,0.0
17236,52.0,0.0,120.0,3.0,0.0
17237,73.0,20.0,20.0,0.0,0.0
17238,70.0,0.0,20.0,0.0,0.0
17239,82.0,0.0,15.0,1.0,0.0
17240,73.0,0.0,60.0,2.0,0.0
17241,70.0,0.0,15.0,2.0,0.0
17242,61.0,0.0,60.0,8.0,0.0
17243,58.0,0.0,15.0,8.0,0.0
17244,73.0,0.0,60.0,7.0,0.0
17245,85.0,0.0,60.0,1.0,0.0
17246,66.0,20.0,20.0,0.0,0.0
17247,61.0,20.0,20.0,0.0,0.0
17248,58.0,0.0,20.0,0.0,0.0
17249,54.0,20.0,60.0,0.0,0.0
17250,54.0,0.0,120.0,8.0,0.0
17251,51.0,0.0,120.0,3.0,0.0
17252,66.0,0.0,15.0,11.0,0.0
17253,54.0,40.0,15.0,11.0,0.0
17254,78.0,0.0,120.0,2.0,0.0
17255,71.0,0.0,120.0,2.0,0.0
17256,78.0,0.0,120.0,7.0,0.0
17257,78.0,0.0,120.0,1.0,0.0
17258,39.0,0.0,120.0,11.0,0.0
17259,59.0,40.0,120.0,8.0,0.0
17260,83.0,0.0,120.0,1.0,0.0
17261,78.0,20.0,20.0,0.0,0.0
17262,71.0,0.0,20.0,0.0,0.0
17263,68.0,20.0,20.0,0.0,0.0
17264,66.0,20.0,20.0,0.0,0.0
17265,59.0,0.0,20.0,0.0,0.0
17266,54.0,0.0,120.0,11.0,0.0
17267,46.0,0.0,120.0,3.0,0.0
17268,34.0,0.0,120.0,11.0,0.0
17269,76.0,0.0,60.0,2.0,0.0
17270,78.0,0.0,240.0,7.0,0.0
17271,88.0,0.0,60.0,1.0,0.0
17272,54.0,0.0,60.0,0.0,0.0
17273,66.0,0.0,120.0,11.0,0.0
17274,90.0,20.0,20.0,0.0,0.0
17275,88.0,20.0,20.0,0.0,0.0
17276,86.0,0.0,60.0,1.0,0.0
17277,74.0,40.0,60.0,2.0,0.0
17278,80.0,20.0,20.0,0.0,0.0
17279,78.0,20.0,20.0,0.0,0.0
17280,76.0,0.0,20.0,0.0,0.0
17281,87.0,0.0,60.0,1.0,0.0
17282,66.0,0.0,60.0,0.0,0.0
17283,47.0,0.0,120.0,3.0,0.0
17284,35.0,0.0,120.0,11.0,0.0
17285,75.0,20.0,60.0,2.0,0.0
17286,78.0,20.0,20.0,0.0,0.0
17287,75.0,0.0,20.0,0.0,0.0
17288,68.0,20.0,20.0,0.0,0.0
17289,78.0,0.0,60.0,1.0,0.0
17290,66.0,20.0,20.0,0.0,0.0
17291,63.0,0.0,20.0,0.0,0.0
17292,66.0,40.0,15.0,2.0,0.0
17293,54.0,0.0,15.0,8.0,0.0
17294,42.0,0.0,15.0,8.0,0.0
17295,76.0,20.0,60.0,7.0,0.0
17296,66.0,0.0,120.0,11.0,0.0
17297,34.0,0.0,120.0,11.0,0.0
17298,46.0,40.0,120.0,3.0,0.0
17299,54.0,0.0,120.0,11.0,0.0
17300,54.0,0.0,60.0,0.0,0.0
17301,66.0,20.0,20.0,0.0,0.0
17302,64.0,0.0,20.0,0.0,0.0
17303,74.0,0.0,60.0,7.0,0.0
17304,56.0,20.0,20.0,0.0,0.0
17305,54.0,20.0,20.0,0.0,0.0
17306,52.0,0.0,20.0,0.0,0.0
17307,42.0,0.0,60.0,0.0,0.0
17308,75.0,0.0,60.0,7.0,0.0
17309,47.0,0.0,120.0,3.0,0.0
17310,35.0,0.0,120.0,11.0,0.0
17311,78.0,20.0,20.0,0.0,0.0
17312,75.0,20.0,20.0,0.0,0.0
17313,66.0,40.0,60.0,7.0,0.0
17314,68.0,20.0,20.0,0.0,0.0
17315,66.0,20.0,20.0,0.0,0.0
17316,63.0,0.0,20.0,0.0,0.0
17317,66.0,0.0,120.0,11.0,0.0
17318,54.0,0.0,60.0,0.0,0.0
17319,49.0,0.0,120.0,3.0,0.0
17320,66.0,0.0,15.0,2.0,0.0
17321,54.0,0.0,15.0,8.0,0.0
17322,42.0,0.0,15.0,8.0,0.0
17323,78.0,0.0,15.0,1.0,0.0
17324,37.0,0.0,120.0,11.0,0.0
17325,54.0,0.0,120.0,11.0,0.0
17326,73.0,20.0,60.0,7.0,0.0
17327,90.0,20.0,20.0,0.0,0.0
17328,85.0,0.0,20.0,0.0,0.0
17329,66.0,40.0,60.0,7.0,0.0
17330,80.0,20.0,20.0,0.0,0.0
17331,78.0,20.0,20.0,0.0,0.0
17332,73.0,0.0,20.0,0.0,0.0
17333,39.0,0.0,120.0,11.0,0.0
17334,66.0,20.0,60.0,0.0,0.0
17335,51.0,0.0,120.0,3.0,0.0
17336,72.0,0.0,60.0,7.0,0.0
17337,78.0,20.0,20.0,0.0,0.0
17338,72.0,0.0,20.0,0.0,0.0
17339,66.0,0.0,60.0,7.0,0.0
17340,68.0,20.0,20.0,0.0,0.0
17341,66.0,20.0,20.0,0.0,0.0
17342,60.0,0.0,20.0,0.0,0.0
17343,50.0,0.0,120.0,3.0,0.0
17344,66.0,0.0,240.0,2.0,0.0
17345,54.0,0.0,15.0,8.0,0.0
17346,42.0,0.0,15.0,8.0,0.0
17347,71.0,20.0,60.0,7.0,0.0
17348,38.0,0.0,120.0,11.0,0.0
17349,66.0,0.0,120.0,11.0,0.0
17350,54.0,0.0,120.0,11.0,0.0
17351,54.0,0.0,60.0,0.0,0.0
17352,78.0,0.0,240.0,1.0,0.0
17353,66.0,20.0,20.0,0.0,0.0
17354,59.0,0.0,20.0,0.0,0.0
17355,66.0,0.0,60.0,7.0,0.0
17356,56.0,20.0,20.0,0.0,0.0
17357,54.0,20.0,20.0,0.0,0.0
17358,47.0,40.0,20.0,0.0,0.0
17359,49.0,0.0,120.0,3.0,0.0
17360,70.0,0.0,60.0,7.0,0.0
17361,42.0,20.0,60.0,0.0,0.0
17362,37.0,40.0,120.0,11.0,0.0
17363,78.0,20.0,20.0,0.0,0.0
17364,70.0,0.0,20.0,0.0,0.0
17365,68.0,20.0,20.0,0.0,0.0
17366,66.0,0.0,60.0,7.0,0.0
17367,66.0,20.0,20.0,0.0,0.0
17368,58.0,0.0,20.0,0.0,0.0
17369,64.0,20.0,60.0,8.0,0.0
17370,34.0,0.0,120.0,11.0,0.0
17371,54.0,0.0,120.0,11.0,0.0
17372,54.0,0.0,60.0,0.0,0.0
17373,76.0,0.0,60.0,2.0,0.0
17374,46.0,0.0,120.0,3.0,0.0
17375,66.0,0.0,240.0,7.0,0.0
17376,42.0,0.0,240.0,8.0,0.0
17377,66.0,0.0,120.0,11.0,0.0
17378,90.0,20.0,20.0,0.0,0.0
17379,88.0,0.0,20.0,0.0,0.0
17380,74.0,40.0,60.0,2.0,0.0
17381,62.0,0.0,60.0,8.0,0.0
17382,80.0,20.0,20.0,0.0,0.0
17383,78.0,20.0,20.0,0.0,0.0
17384,76.0,0.0,20.0,0.0,0.0
17385,35.0,40.0,120.0,11.0,0.0
17386,66.0,0.0,60.0,0.0,0.0
17387,63.0,20.0,60.0,8.0,0.0
17388,47.0,0.0,120.0,3.0,0.0
17389,75.0,0.0,60.0,2.0,0.0
17390,78.0,20.0,20.0,0.0,0.0
17391,75.0,0.0,20.0,0.0,0.0
17392,66.0,0.0,60.0,2.0,0.0
17393,68.0,20.0,20.0,0.0,0.0
17394,66.0,20.0,20.0,0.0,0.0
17395,63.0,0.0,20.0,0.0,0.0
17396,54.0,20.0,60.0,0.0,0.0
17397,46.0,0.0,120.0,3.0,0.0
17398,64.0,0.0,60.0,7.0,0.0
17399,54.0,0.0,15.0,8.0,0.0
17400,66.0,0.0,120.0,11.0,0.0
17401,54.0,0.0,120.0,11.0,0.0
17402,66.0,0.0,240.0,2.0,0.0
17403,34.0,40.0,120.0,11.0,0.0
17404,66.0,20.0,20.0,0.0,0.0
17405,64.0,0.0,20.0,0.0,0.0
17406,56.0,20.0,20.0,0.0,0.0
17407,62.0,0.0,60.0,7.0,0.0
17408,54.0,20.0,20.0,0.0,0.0
17409,52.0,0.0,20.0,0.0,0.0
17410,42.0,0.0,60.0,0.0,0.0
17411,47.0,0.0,120.0,3.0,0.0
17412,35.0,0.0,120.0,11.0,0.0
17413,63.0,0.0,60.0,7.0,0.0
17414,78.0,20.0,20.0,0.0,0.0
17415,75.0,20.0,20.0,0.0,0.0
17416,54.0,40.0,60.0,7.0,0.0
17417,68.0,20.0,20.0,0.0,0.0
17418,66.0,20.0,20.0,0.0,0.0
17419,59.0,0.0,20.0,0.0,0.0
17420,54.0,20.0,60.0,0.0,0.0
17421,54.0,0.0,15.0,8.0,0.0
17422,42.0,0.0,15.0,8.0,0.0
17423,66.0,0.0,120.0,11.0,0.0
17424,49.0,0.0,120.0,3.0,0.0
17425,37.0,40.0,120.0,11.0,0.0
17426,66.0,0.0,240.0,2.0,0.0
17427,54.0,0.0,120.0,11.0,0.0
17428,61.0,0.0,60.0,7.0,0.0
17429,90.0,20.0,20.0,0.0,0.0
17430,85.0,0.0,20.0,0.0,0.0
17431,80.0,20.0,20.0,0.0,0.0
17432,54.0,0.0,60.0,7.0,0.0
17433,78.0,20.0,20.0,0.0,0.0
17434,73.0,0.0,20.0,0.0,0.0
17435,66.0,0.0,60.0,0.0,0.0
17436,60.0,20.0,60.0,7.0,0.0
17437,39.0,0.0,120.0,11.0,0.0
17438,51.0,40.0,120.0,3.0,0.0
17439,78.0,20.0,20.0,0.0,0.0
17440,72.0,0.0,20.0,0.0,0.0
17441,54.0,0.0,60.0,7.0,0.0
17442,68.0,20.0,20.0,0.0,0.0
17443,66.0,20.0,20.0,0.0,0.0
17444,60.0,0.0,20.0,0.0,0.0
17445,66.0,0.0,120.0,11.0,0.0
17446,38.0,0.0,120.0,11.0,0.0
17447,59.0,0.0,60.0,7.0,0.0
17448,54.0,0.0,120.0,11.0,0.0
17449,54.0,20.0,60.0,0.0,0.0
17450,42.0,0.0,15.0,8.0,0.0
17451,50.0,0.0,120.0,3.0,0.0
17452,54.0,0.0,240.0,8.0,0.0
17453,66.0,0.0,120.0,2.0,0.0
17454,66.0,20.0,20.0,0.0,0.0
17455,59.0,0.0,20.0,0.0,0.0
17456,54.0,40.0,60.0,7.0,0.0
17457,56.0,20.0,20.0,0.0,0.0
17458,54.0,20.0,20.0,0.0,0.0
17459,47.0,0.0,20.0,0.0,0.0
17460,49.0,0.0,120.0,3.0,0.0
17461,42.0,0.0,60.0,0.0,0.0
17462,37.0,0.0,120.0,11.0,0.0
17463,58.0,0.0,60.0,7.0,0.0
17464,78.0,20.0,20.0,0.0,0.0
17465,70.0,20.0,20.0,0.0,0.0
17466,68.0,20.0,20.0,0.0,0.0
17467,54.0,40.0,60.0,7.0,0.0
17468,66.0,20.0,20.0,0.0,0.0
17469,58.0,0.0,20.0,0.0,0.0
17470,54.0,0.0,60.0,0.0,0.0
17471,54.0,0.0,120.0,11.0,0.0
17472,42.0,0.0,240.0,8.0,0.0
17473,54.0,0.0,240.0,8.0,0.0
17474,34.0,0.0,120.0,11.0,0.0
17475,61.0,20.0,60.0,7.0,0.0
17476,46.0,0.0,120.0,3.0,0.0
17477,90.0,20.0,20.0,0.0,0.0
17478,85.0,0.0,20.0,0.0,0.0
17479,80.0,20.0,20.0,0.0,0.0
17480,54.0,0.0,60.0,7.0,0.0
17481,78.0,20.0,20.0,0.0,0.0
17482,73.0,40.0,20.0,0.0,0.0
17483,39.0,0.0,120.0,11.0,0.0
17484,51.0,0.0,120.0,3.0,0.0
17485,66.0,0.0,60.0,0.0,0.0
17486,60.0,20.0,60.0,7.0,0.0
17487,78.0,20.0,20.0,0.0,0.0
17488,72.0,0.0,20.0,0.0,0.0
17489,68.0,20.0,20.0,0.0,0.0
17490,54.0,40.0,60.0,7.0,0.0
17491,66.0,20.0,20.0,0.0,0.0
17492,60.0,0.0,20.0,0.0,0.0
17493,50.0,0.0,120.0,3.0,0.0
17494,59.0,20.0,60.0,7.0,0.0
17495,38.0,40.0,120.0,11.0,0.0
17496,54.0,0.0,240.0,8.0,0.0
17497,42.0,0.0,240.0,8.0,0.0
17498,54.0,0.0,120.0,11.0,0.0
17499,54.0,0.0,60.0,0.0,0.0
17500,66.0,20.0,20.0,0.0,0.0
17501,59.0,0.0,20.0,0.0,0.0
17502,56.0,20.0,20.0,0.0,0.0
17503,54.0,0.0,60.0,7.0,0.0
17504,54.0,20.0,20.0,0.0,0.0
17505,47.0,0.0,20.0,0.0,0.0
17506,42.0,0.0,60.0,0.0,0.0
17507,49.0,0.0,120.0,3.0,0.0
17508,37.0,160.0,120.0,11.0,0.0
17509,58.0,0.0,60.0,7.0,0.0
17510,78.0,20.0,20.0,0.0,0.0
17511,70.0,20.0,20.0,0.0,0.0
17512,54.0,0.0,60.0,7.0,0.0
17513,68.0,20.0,20.0,0.0,0.0
17514,66.0,20.0,20.0,0.0,0.0
17515,58.0,0.0,20.0,0.0,0.0
17516,48.0,0.0,120.0,3.0,0.0
17517,58.0,0.0,60.0,7.0,0.0
17518,54.0,0.0,120.0,8.0,0.0
17519,42.0,0.0,120.0,8.0,0.0
17520,54.0,0.0,120.0,11.0,0.0
17521,36.0,0.0,120.0,11.0,0.0
17522,90.0,20.0,20.0,0.0,0.0
17523,82.0,20.0,20.0,0.0,0.0
17524,54.0,0.0,60.0,7.0,0.0
17525,80.0,20.0,20.0,0.0,0.0
17526,78.0,20.0,20.0,0.0,0.0
17527,70.0,150.0,20.0,0.0,0.0
17528,73.0,0.0,120.0,10.0,0.0
17529,37.0,0.0,120.0,13.0,0.0
17530,42.0,0.0,120.0,6.0,0.0
17531,66.0,0.0,120.0,7.0,0.0
17532,54.0,10.0,120.0,6.0,0.0
17533,25.0,10.0,30.0,0.0,0.0
17534,42.0,0.0,120.0,5.0,0.0
17535,61.0,0.0,120.0,10.0,0.0
17536,61.0,0.0,120.0,8.0,0.0
17537,70.0,0.0,120.0,7.0,0.0
17538,61.0,0.0,120.0,7.0,0.0
17539,54.0,0.0,120.0,7.0,0.0
17540,49.0,0.0,120.0,8.0,0.0
17541,58.0,0.0,120.0,7.0,0.0
17542,54.0,0.0,120.0,3.0,0.0
17543,37.0,0.0,15.0,0.0,0.0
17544,49.0,10.0,15.0,0.0,0.0
17545,39.0,10.0,15.0,0.0,0.0
17546,51.0,0.0,15.0,0.0,0.0
17547,53.0,10.0,15.0,0.0,0.0
17548,41.0,0.0,15.0,0.0,0.0
17549,54.0,10.0,15.0,0.0,0.0
17550,42.0,0.0,15.0,0.0,0.0
17551,56.0,10.0,15.0,0.0,0.0
17552,44.0,0.0,15.0,0.0,0.0
17553,46.0,0.0,15.0,0.0,0.0
17554,58.0,10.0,15.0,0.0,0.0
17555,59.0,10.0,15.0,0.0,0.0
17556,47.0,0.0,15.0,0.0,0.0
17557,61.0,0.0,15.0,0.0,0.0
17558,49.0,0.0,15.0,0.0,0.0
17559,51.0,10.0,15.0,0.0,0.0
17560,63.0,0.0,15.0,0.0,0.0
17561,53.0,10.0,15.0,0.0,0.0
17562,65.0,0.0,15.0,0.0,0.0
17563,54.0,0.0,15.0,0.0,0.0
17564,66.0,10.0,15.0,0.0,0.0
17565,56.0,10.0,15.0,0.0,0.0
17566,68.0,0.0,15.0,0.0,0.0
17567,58.0,10.0,15.0,0.0,0.0
17568,70.0,0.0,15.0,0.0,0.0
17569,71.0,0.0,15.0,0.0,0.0
17570,59.0,10.0,15.0,0.0,0.0
17571,73.0,0.0,15.0,0.0,0.0
17572,61.0,10.0,15.0,0.0,0.0
17573,75.0,10.0,15.0,0.0,0.0
17574,63.0,0.0,15.0,0.0,0.0
17575,77.0,10.0,15.0,0.0,0.0
17576,65.0,0.0,15.0,0.0,0.0
17577,78.0,10.0,15.0,0.0,0.0
17578,66.0,0.0,15.0,0.0,0.0
17579,80.0,10.0,15.0,0.0,0.0
17580,68.0,0.0,15.0,0.0,0.0
17581,82.0,0.0,15.0,0.0,0.0
17582,70.0,10.0,15.0,0.0,0.0
17583,71.0,15.0,15.0,0.0,0.0
17584,83.0,0.0,15.0,0.0,0.0
17585,49.0,0.0,120.0,8.0,0.0
17586,37.0,0.0,120.0,8.0,0.0
17587,85.0,0.0,15.0,1.0,0.0
17588,49.0,0.0,120.0,6.0,0.0
17589,73.0,0.0,120.0,7.0,0.0
17590,65.0,0.0,120.0,7.0,0.0
17591,37.0,0.0,120.0,13.0,0.0
17592,37.0,0.0,120.0,6.0,0.0
17593,61.0,0.0,120.0,7.0,0.0
17594,85.0,15.0,15.0,0.0,0.0
17595,73.0,0.0,15.0,2.0,0.0
17596,61.0,0.0,120.0,10.0,0.0
17597,73.0,0.0,15.0,0.0,0.0
17598,56.0,0.0,120.0,7.0,0.0
17599,49.0,0.0,120.0,10.0,0.0
17600,49.0,0.0,120.0,3.0,0.0
17601,37.0,0.0,120.0,5.0,0.0
17602,87.0,0.0,15.0,0.0,0.0
17603,75.0,0.0,15.0,2.0,0.0
17604,75.0,15.0,15.0,0.0,0.0
17605,87.0,0.0,15.0,1.0,0.0
17606,85.0,0.0,15.0,1.0,0.0
17607,73.0,15.0,15.0,0.0,0.0
17608,85.0,0.0,15.0,0.0,0.0
17609,73.0,0.0,15.0,2.0,0.0
17610,87.0,0.0,15.0,0.0,0.0
17611,75.0,0.0,15.0,0.0,0.0
17612,87.0,15.0,15.0,1.0,0.0
17613,75.0,0.0,15.0,2.0,0.0
17614,73.0,0.0,15.0,0.0,0.0
17615,85.0,0.0,15.0,0.0,0.0
17616,73.0,0.0,15.0,2.0,0.0
17617,85.0,15.0,15.0,1.0,0.0
17618,75.0,15.0,15.0,2.0,0.0
17619,75.0,0.0,15.0,0.0,0.0
17620,87.0,0.0,15.0,1.0,0.0
17621,87.0,0.0,15.0,0.0,0.0
17622,85.0,0.0,15.0,0.0,0.0
17623,73.0,0.0,15.0,2.0,0.0
17624,73.0,15.0,15.0,0.0,0.0
17625,85.0,0.0,15.0,1.0,0.0
17626,87.0,0.0,15.0,0.0,0.0
17627,75.0,15.0,15.0,2.0,0.0
17628,87.0,0.0,15.0,1.0,0.0
17629,75.0,0.0,15.0,0.0,0.0
17630,73.0,0.0,15.0,2.0,0.0
17631,73.0,15.0,15.0,0.0,0.0
17632,85.0,0.0,15.0,0.0,0.0
17633,85.0,0.0,15.0,1.0,0.0
17634,87.0,0.0,15.0,0.0,0.0
17635,75.0,0.0,15.0,2.0,0.0
17636,87.0,15.0,15.0,1.0,0.0
17637,75.0,0.0,15.0,0.0,0.0
17638,73.0,0.0,15.0,2.0,0.0
17639,73.0,0.0,15.0,0.0,0.0
17640,85.0,0.0,15.0,0.0,0.0
17641,85.0,15.0,15.0,1.0,0.0
17642,75.0,0.0,15.0,2.0,0.0
17643,87.0,15.0,15.0,1.0,0.0
17644,87.0,0.0,15.0,0.0,0.0
17645,75.0,0.0,15.0,0.0,0.0
17646,73.0,15.0,15.0,2.0,0.0
17647,85.0,0.0,15.0,1.0,0.0
17648,85.0,0.0,15.0,0.0,0.0
17649,73.0,0.0,15.0,0.0,0.0
17650,75.0,0.0,15.0,0.0,0.0
17651,87.0,0.0,15.0,0.0,0.0
17652,87.0,0.0,15.0,1.0,0.0
17653,75.0,15.0,15.0,2.0,0.0
17654,85.0,0.0,15.0,1.0,0.0
17655,85.0,15.0,15.0,0.0,0.0
17656,73.0,0.0,15.0,2.0,0.0
17657,73.0,0.0,15.0,0.0,0.0
17658,75.0,0.0,15.0,2.0,0.0
17659,87.0,15.0,15.0,1.0,0.0
17660,87.0,0.0,15.0,0.0,0.0
17661,75.0,0.0,15.0,0.0,0.0
17662,46.0,0.0,120.0,3.0,0.0
17663,34.0,0.0,120.0,6.0,0.0
17664,46.0,0.0,120.0,6.0,0.0
17665,85.0,0.0,15.0,0.0,0.0
17666,73.0,0.0,15.0,2.0,0.0
17667,34.0,0.0,120.0,5.0,0.0
17668,78.0,0.0,120.0,7.0,0.0
17669,54.0,0.0,120.0,7.0,0.0
17670,66.0,0.0,120.0,7.0,0.0
17671,85.0,0.0,15.0,1.0,0.0
17672,58.0,0.0,120.0,7.0,0.0
17673,73.0,15.0,15.0,0.0,0.0
17674,75.0,0.0,15.0,2.0,0.0
17675,75.0,0.0,15.0,0.0,0.0
17676,87.0,0.0,15.0,0.0,0.0
17677,87.0,15.0,15.0,1.0,0.0
17678,73.0,0.0,15.0,0.0,0.0
17679,85.0,0.0,15.0,0.0,0.0
17680,73.0,15.0,15.0,2.0,0.0
17681,85.0,0.0,15.0,1.0,0.0
17682,87.0,0.0,15.0,1.0,0.0
17683,75.0,0.0,15.0,2.0,0.0
17684,75.0,15.0,15.0,0.0,0.0
17685,87.0,0.0,15.0,0.0,0.0
17686,85.0,0.0,15.0,1.0,0.0
17687,73.0,0.0,15.0,2.0,0.0
17688,85.0,0.0,15.0,0.0,0.0
17689,73.0,15.0,15.0,0.0,0.0
17690,87.0,0.0,15.0,1.0,0.0
17691,87.0,0.0,15.0,0.0,0.0
17692,75.0,0.0,15.0,0.0,0.0
17693,75.0,15.0,15.0,2.0,0.0
17694,73.0,0.0,15.0,0.0,0.0
17695,85.0,0.0,15.0,1.0,0.0
17696,73.0,15.0,15.0,2.0,0.0
17697,85.0,0.0,15.0,0.0,0.0
17698,87.0,0.0,15.0,1.0,0.0
17699,75.0,0.0,15.0,0.0,0.0
17700,87.0,0.0,15.0,0.0,0.0
17701,75.0,0.0,15.0,2.0,0.0
17702,73.0,15.0,15.0,0.0,0.0
17703,85.0,0.0,15.0,0.0,0.0
17704,85.0,0.0,15.0,1.0,0.0
17705,49.0,0.0,120.0,3.0,0.0
17706,37.0,0.0,120.0,5.0,0.0
17707,73.0,0.0,120.0,7.0,0.0
17708,61.0,0.0,120.0,7.0,0.0
17709,56.0,0.0,120.0,7.0,0.0
17710,65.0,0.0,120.0,7.0,0.0
17711,73.0,0.0,15.0,2.0,0.0
17712,53.0,0.0,120.0,7.0,0.0
17713,37.0,0.0,120.0,6.0,0.0
17714,49.0,0.0,120.0,6.0,0.0
17715,75.0,15.0,15.0,2.0,0.0
17716,87.0,0.0,15.0,1.0,0.0
17717,75.0,0.0,15.0,0.0,0.0
17718,87.0,0.0,15.0,0.0,0.0
17719,85.0,0.0,15.0,0.0,0.0
17720,85.0,15.0,15.0,1.0,0.0
17721,73.0,0.0,15.0,0.0,0.0
17722,73.0,0.0,15.0,2.0,0.0
17723,75.0,0.0,15.0,0.0,0.0
17724,75.0,15.0,15.0,2.0,0.0
17725,87.0,0.0,15.0,1.0,0.0
17726,87.0,0.0,15.0,0.0,0.0
17727,73.0,0.0,15.0,2.0,0.0
17728,85.0,0.0,15.0,1.0,0.0
17729,85.0,15.0,15.0,0.0,0.0
17730,73.0,0.0,15.0,0.0,0.0
17731,75.0,15.0,15.0,0.0,0.0
17732,87.0,0.0,15.0,0.0,0.0
17733,87.0,0.0,15.0,1.0,0.0
17734,75.0,0.0,15.0,2.0,0.0
17735,73.0,0.0,15.0,2.0,0.0
17736,85.0,15.0,15.0,1.0,0.0
17737,85.0,0.0,15.0,0.0,0.0
17738,73.0,0.0,15.0,0.0,0.0
17739,75.0,0.0,15.0,0.0,0.0
17740,87.0,15.0,15.0,1.0,0.0
17741,75.0,0.0,15.0,2.0,0.0
17742,87.0,0.0,15.0,0.0,0.0
17743,73.0,0.0,15.0,2.0,0.0
17744,66.0,0.0,120.0,7.0,0.0
17745,71.0,0.0,120.0,7.0,0.0
17746,63.0,0.0,120.0,7.0,0.0
17747,54.0,0.0,120.0,7.0,0.0
17748,59.0,0.0,120.0,7.0,0.0
17749,59.0,0.0,120.0,8.0,0.0
17750,51.0,0.0,120.0,3.0,0.0
17751,85.0,0.0,15.0,0.0,0.0
17752,73.0,0.0,15.0,0.0,0.0
17753,51.0,15.0,120.0,8.0,0.0
17754,51.0,0.0,120.0,7.0,0.0
17755,39.0,0.0,120.0,5.0,0.0
17756,85.0,0.0,15.0,1.0,0.0
17757,51.0,0.0,120.0,6.0,0.0
17758,39.0,0.0,120.0,6.0,0.0
17759,87.0,15.0,15.0,0.0,0.0
17760,75.0,0.0,15.0,0.0,0.0
17761,42.0,15.0,15.0,13.0,0.0
17762,87.0,0.0,15.0,1.0,0.0
17763,75.0,0.0,15.0,2.0,0.0
17764,85.0,15.0,15.0,1.0,0.0
17765,85.0,0.0,15.0,0.0,0.0
17766,73.0,0.0,15.0,0.0,0.0
17767,73.0,0.0,15.0,2.0,0.0
17768,42.0,0.0,15.0,13.0,0.0
17769,75.0,0.0,15.0,2.0,0.0
17770,87.0,0.0,15.0,0.0,0.0
17771,87.0,15.0,15.0,1.0,0.0
17772,75.0,0.0,15.0,0.0,0.0
17773,73.0,0.0,15.0,0.0,0.0
17774,85.0,0.0,15.0,0.0,0.0
17775,73.0,0.0,15.0,2.0,0.0
17776,85.0,15.0,15.0,1.0,0.0
17777,42.0,0.0,15.0,13.0,0.0
17778,75.0,0.0,15.0,0.0,0.0
17779,87.0,15.0,15.0,0.0,0.0
17780,75.0,0.0,15.0,2.0,0.0
17781,87.0,0.0,15.0,1.0,0.0
17782,85.0,15.0,15.0,1.0,0.0
17783,42.0,0.0,15.0,13.0,0.0
17784,73.0,0.0,15.0,2.0,0.0
17785,85.0,0.0,15.0,0.0,0.0
17786,73.0,0.0,15.0,0.0,0.0
17787,75.0,0.0,15.0,2.0,0.0
17788,42.0,0.0,15.0,13.0,0.0
17789,87.0,0.0,15.0,1.0,0.0
17790,75.0,0.0,15.0,0.0,0.0
17791,87.0,0.0,15.0,0.0,0.0
17792,54.0,0.0,60.0,3.0,0.0
17793,85.0,15.0,15.0,1.0,0.0
17794,42.0,0.0,60.0,5.0,0.0
17795,70.0,0.0,40.0,7.0,0.0
17796,66.0,0.0,60.0,7.0,0.0
17797,61.0,5.0,40.0,7.0,0.0
17798,85.0,0.0,15.0,0.0,0.0
17799,73.0,0.0,15.0,0.0,0.0
17800,42.0,0.0,60.0,13.0,0.0
17801,73.0,0.0,15.0,2.0,0.0
17802,58.0,0.0,60.0,7.0,0.0
17803,58.0,0.0,60.0,8.0,0.0
17804,54.0,0.0,60.0,6.0,0.0
17805,42.0,0.0,60.0,6.0,0.0
17806,75.0,0.0,15.0,0.0,0.0
17807,87.0,0.0,15.0,0.0,0.0
17808,87.0,10.0,15.0,1.0,0.0
17809,75.0,0.0,15.0,2.0,0.0
17810,85.0,0.0,15.0,0.0,0.0
17811,73.0,0.0,15.0,0.0,0.0
17812,73.0,15.0,15.0,2.0,0.0
17813,85.0,0.0,15.0,1.0,0.0
17814,68.0,0.0,40.0,7.0,0.0
17815,59.0,10.0,40.0,7.0,0.0
17816,75.0,0.0,15.0,2.0,0.0
17817,87.0,0.0,15.0,1.0,0.0
17818,87.0,15.0,15.0,0.0,0.0
17819,75.0,0.0,15.0,0.0,0.0
17820,54.0,0.0,15.0,8.0,0.0
17821,30.0,0.0,60.0,6.0,0.0
17822,54.0,0.0,60.0,7.0,0.0
17823,73.0,0.0,15.0,2.0,0.0
17824,42.0,0.0,60.0,8.0,0.0
17825,46.0,0.0,60.0,3.0,0.0
17826,85.0,0.0,15.0,1.0,0.0
17827,42.0,15.0,60.0,6.0,0.0
17828,34.0,0.0,60.0,5.0,0.0
17829,73.0,5.0,15.0,0.0,0.0
17830,85.0,0.0,15.0,0.0,0.0
17831,87.0,0.0,15.0,0.0,0.0
17832,75.0,0.0,15.0,0.0,0.0
17833,75.0,15.0,15.0,2.0,0.0
17834,87.0,0.0,15.0,1.0,0.0
17835,58.0,0.0,40.0,7.0,0.0
17836,66.0,0.0,40.0,7.0,0.0
17837,85.0,0.0,15.0,1.0,0.0
17838,73.0,0.0,15.0,0.0,0.0
17839,85.0,0.0,15.0,0.0,0.0
17840,73.0,15.0,15.0,2.0,0.0
17841,87.0,0.0,15.0,1.0,0.0
17842,75.0,0.0,15.0,2.0,0.0
17843,75.0,0.0,15.0,0.0,0.0
17844,87.0,0.0,15.0,0.0,0.0
17845,85.0,0.0,15.0,0.0,0.0
17846,73.0,0.0,15.0,0.0,0.0
17847,61.0,0.0,15.0,0.0,0.0
17848,73.0,0.0,15.0,1.0,0.0
17849,73.0,15.0,15.0,2.0,0.0
17850,85.0,0.0,15.0,1.0,0.0
17851,73.0,0.0,15.0,4.0,0.0
17852,87.0,0.0,15.0,0.0,0.0
17853,63.0,0.0,15.0,0.0,0.0
17854,75.0,0.0,15.0,4.0,0.0
17855,75.0,0.0,15.0,1.0,0.0
17856,87.0,15.0,15.0,1.0,0.0
17857,75.0,0.0,15.0,2.0,0.0
17858,73.0,0.0,15.0,4.0,0.0
17859,85.0,0.0,15.0,1.0,0.0
17860,73.0,0.0,15.0,1.0,0.0
17861,73.0,0.0,15.0,0.0,0.0
17862,61.0,0.0,15.0,0.0,0.0
17863,73.0,15.0,15.0,2.0,0.0
17864,85.0,0.0,15.0,0.0,0.0
17865,75.0,0.0,15.0,1.0,0.0
17866,87.0,0.0,15.0,1.0,0.0
17867,63.0,0.0,15.0,0.0,0.0
17868,75.0,0.0,15.0,2.0,0.0
17869,87.0,0.0,15.0,0.0,0.0
17870,75.0,15.0,15.0,4.0,0.0
17871,61.0,0.0,15.0,0.0,0.0
17872,73.0,0.0,15.0,0.0,0.0
17873,85.0,0.0,15.0,1.0,0.0
17874,85.0,0.0,15.0,0.0,0.0
17875,73.0,0.0,15.0,1.0,0.0
17876,73.0,0.0,15.0,2.0,0.0
17877,73.0,15.0,15.0,4.0,0.0
17878,75.0,0.0,15.0,2.0,0.0
17879,87.0,0.0,15.0,0.0,0.0
17880,63.0,0.0,15.0,0.0,0.0
17881,75.0,0.0,15.0,4.0,0.0
17882,75.0,0.0,15.0,1.0,0.0
17883,87.0,15.0,15.0,1.0,0.0
17884,73.0,0.0,15.0,2.0,0.0
17885,61.0,15.0,15.0,0.0,0.0
17886,73.0,0.0,15.0,1.0,0.0
17887,73.0,0.0,15.0,0.0,0.0
17888,85.0,0.0,15.0,1.0,0.0
17889,73.0,0.0,15.0,4.0,0.0
17890,85.0,0.0,15.0,0.0,0.0
17891,87.0,0.0,15.0,0.0,0.0
17892,63.0,0.0,15.0,0.0,0.0
17893,75.0,0.0,15.0,4.0,0.0
17894,75.0,15.0,15.0,2.0,0.0
17895,75.0,0.0,15.0,1.0,0.0
17896,87.0,0.0,15.0,1.0,0.0
17897,61.0,0.0,15.0,0.0,0.0
17898,73.0,0.0,15.0,0.0,0.0
17899,85.0,0.0,15.0,1.0,0.0
17900,73.0,0.0,15.0,1.0,0.0
17901,73.0,0.0,15.0,4.0,0.0
17902,85.0,0.0,15.0,0.0,0.0
17903,51.0,0.0,120.0,7.0,0.0
17904,59.0,0.0,120.0,8.0,0.0
17905,66.0,0.0,120.0,7.0,0.0
17906,63.0,0.0,120.0,7.0,0.0
17907,71.0,0.0,120.0,7.0,0.0
17908,54.0,0.0,120.0,7.0,0.0
17909,39.0,0.0,120.0,6.0,0.0
17910,51.0,0.0,120.0,3.0,0.0
17911,51.0,0.0,120.0,8.0,0.0
17912,73.0,15.0,15.0,2.0,0.0
17913,39.0,0.0,120.0,5.0,0.0
17914,42.0,0.0,15.0,13.0,0.0
17915,51.0,0.0,120.0,6.0,0.0
17916,59.0,0.0,120.0,7.0,0.0
17917,87.0,15.0,15.0,1.0,0.0
17918,75.0,0.0,15.0,1.0,0.0
17919,75.0,0.0,15.0,4.0,0.0
17920,87.0,0.0,15.0,0.0,0.0
17921,63.0,0.0,15.0,0.0,0.0
17922,42.0,0.0,15.0,13.0,0.0
17923,75.0,0.0,15.0,2.0,0.0
17924,73.0,0.0,15.0,2.0,0.0
17925,73.0,0.0,15.0,0.0,0.0
17926,42.0,0.0,15.0,13.0,0.0
17927,73.0,15.0,15.0,4.0,0.0
17928,85.0,0.0,15.0,0.0,0.0
17929,61.0,0.0,15.0,0.0,0.0
17930,85.0,0.0,15.0,1.0,0.0
17931,73.0,0.0,15.0,1.0,0.0
17932,87.0,0.0,15.0,0.0,0.0
17933,63.0,15.0,15.0,0.0,0.0
17934,75.0,0.0,15.0,2.0,0.0
17935,42.0,0.0,15.0,13.0,0.0
17936,75.0,0.0,15.0,4.0,0.0
17937,75.0,0.0,15.0,1.0,0.0
17938,87.0,0.0,15.0,1.0,0.0
17939,73.0,0.0,15.0,4.0,0.0
17940,73.0,0.0,15.0,2.0,0.0
17941,61.0,0.0,15.0,0.0,0.0
17942,85.0,0.0,15.0,0.0,0.0
17943,73.0,15.0,15.0,0.0,0.0
17944,85.0,0.0,15.0,1.0,0.0
17945,73.0,0.0,15.0,1.0,0.0
17946,63.0,0.0,15.0,0.0,0.0
17947,75.0,0.0,15.0,1.0,0.0
17948,75.0,15.0,15.0,4.0,0.0
17949,87.0,0.0,15.0,1.0,0.0
17950,42.0,0.0,15.0,13.0,0.0
17951,75.0,0.0,15.0,2.0,0.0
17952,87.0,0.0,15.0,0.0,0.0
17953,73.0,0.0,15.0,0.0,0.0
17954,85.0,0.0,15.0,0.0,0.0
17955,61.0,0.0,15.0,0.0,0.0
17956,73.0,0.0,15.0,2.0,0.0
17957,85.0,15.0,15.0,1.0,0.0
17958,73.0,0.0,15.0,4.0,0.0
17959,73.0,0.0,15.0,1.0,0.0
17960,75.0,15.0,15.0,4.0,0.0
17961,42.0,0.0,15.0,13.0,0.0
17962,75.0,0.0,15.0,2.0,0.0
17963,87.0,0.0,15.0,0.0,0.0
17964,63.0,0.0,15.0,0.0,0.0
17965,87.0,0.0,15.0,1.0,0.0
17966,75.0,0.0,15.0,1.0,0.0
17967,42.0,0.0,15.0,13.0,0.0
17968,42.0,0.0,60.0,5.0,0.0
17969,42.0,0.0,60.0,6.0,0.0
17970,61.0,0.0,40.0,7.0,0.0
17971,73.0,0.0,15.0,1.0,0.0
17972,73.0,15.0,15.0,4.0,0.0
17973,73.0,0.0,15.0,2.0,0.0
17974,54.0,0.0,60.0,3.0,0.0
17975,85.0,0.0,15.0,1.0,0.0
17976,58.0,0.0,60.0,7.0,0.0
17977,66.0,15.0,60.0,7.0,0.0
17978,61.0,0.0,15.0,0.0,0.0
17979,73.0,0.0,15.0,0.0,0.0
17980,85.0,0.0,15.0,0.0,0.0
17981,58.0,0.0,60.0,8.0,0.0
17982,54.0,0.0,60.0,8.0,0.0
17983,54.0,0.0,60.0,6.0,0.0
17984,70.0,5.0,40.0,7.0,0.0
17985,87.0,0.0,15.0,1.0,0.0
17986,75.0,0.0,15.0,2.0,0.0
17987,75.0,0.0,15.0,1.0,0.0
17988,87.0,0.0,15.0,0.0,0.0
17989,63.0,10.0,15.0,0.0,0.0
17990,75.0,0.0,15.0,4.0,0.0
17991,85.0,15.0,15.0,1.0,0.0
17992,73.0,0.0,15.0,2.0,0.0
17993,73.0,0.0,15.0,1.0,0.0
17994,73.0,0.0,15.0,4.0,0.0
17995,85.0,0.0,15.0,0.0,0.0
17996,61.0,0.0,15.0,0.0,0.0
17997,73.0,0.0,15.0,0.0,0.0
17998,59.0,10.0,40.0,7.0,0.0
17999,68.0,0.0,40.0,7.0,0.0
18000,87.0,0.0,15.0,0.0,0.0
18001,75.0,0.0,15.0,4.0,0.0
18002,63.0,0.0,15.0,0.0,0.0
18003,75.0,0.0,15.0,2.0,0.0
18004,87.0,0.0,15.0,1.0,0.0
18005,75.0,0.0,15.0,1.0,0.0
18006,73.0,0.0,15.0,4.0,0.0
18007,73.0,5.0,15.0,0.0,0.0
18008,85.0,0.0,15.0,0.0,0.0
18009,30.0,0.0,60.0,5.0,0.0
18010,61.0,0.0,15.0,0.0,0.0
18011,73.0,0.0,15.0,2.0,0.0
18012,73.0,0.0,15.0,1.0,0.0
18013,42.0,0.0,60.0,3.0,0.0
18014,42.0,0.0,60.0,8.0,0.0
18015,42.0,0.0,60.0,6.0,0.0
18016,54.0,0.0,60.0,8.0,0.0
18017,30.0,0.0,60.0,6.0,0.0
18018,85.0,0.0,15.0,1.0,0.0
18019,54.0,0.0,60.0,7.0,0.0
18020,75.0,0.0,15.0,4.0,0.0
18021,63.0,0.0,15.0,0.0,0.0
18022,87.0,0.0,15.0,1.0,0.0
18023,87.0,0.0,15.0,0.0,0.0
18024,75.0,15.0,15.0,2.0,0.0
18025,75.0,0.0,15.0,1.0,0.0
18026,66.0,0.0,40.0,7.0,0.0
18027,58.0,0.0,40.0,7.0,0.0
18028,73.0,0.0,15.0,4.0,0.0
18029,85.0,0.0,15.0,1.0,0.0
18030,73.0,0.0,15.0,1.0,0.0
18031,61.0,0.0,15.0,0.0,0.0
18032,85.0,0.0,15.0,0.0,0.0
18033,73.0,0.0,15.0,0.0,0.0
18034,73.0,15.0,15.0,2.0,0.0
18035,75.0,0.0,15.0,1.0,0.0
18036,75.0,0.0,15.0,2.0,0.0
18037,87.0,0.0,15.0,0.0,0.0
18038,75.0,0.0,15.0,4.0,0.0
18039,63.0,15.0,15.0,0.0,0.0
18040,87.0,0.0,15.0,1.0,0.0
18041,73.0,0.0,15.0,1.0,0.0
18042,85.0,0.0,15.0,1.0,0.0
18043,73.0,0.0,15.0,2.0,0.0
18044,73.0,15.0,15.0,4.0,0.0
18045,85.0,0.0,15.0,0.0,0.0
18046,73.0,0.0,15.0,0.0,0.0
18047,61.0,0.0,15.0,0.0,0.0
18048,87.0,0.0,15.0,0.0,0.0
18049,63.0,0.0,15.0,0.0,0.0
18050,75.0,0.0,15.0,4.0,0.0
18051,75.0,0.0,15.0,1.0,0.0
18052,87.0,0.0,15.0,1.0,0.0
18053,75.0,15.0,15.0,2.0,0.0
18054,85.0,0.0,15.0,1.0,0.0
18055,73.0,0.0,15.0,1.0,0.0
18056,85.0,0.0,15.0,0.0,0.0
18057,73.0,0.0,15.0,0.0,0.0
18058,61.0,0.0,15.0,0.0,0.0
18059,73.0,15.0,15.0,4.0,0.0
18060,73.0,0.0,15.0,2.0,0.0
18061,87.0,15.0,15.0,0.0,0.0
18062,75.0,0.0,15.0,1.0,0.0
18063,63.0,0.0,15.0,0.0,0.0
18064,75.0,0.0,15.0,2.0,0.0
18065,87.0,0.0,15.0,1.0,0.0
18066,75.0,0.0,15.0,4.0,0.0
18067,73.0,0.0,15.0,4.0,0.0
18068,73.0,0.0,15.0,0.0,0.0
18069,61.0,0.0,15.0,0.0,0.0
18070,85.0,0.0,15.0,0.0,0.0
18071,73.0,0.0,15.0,1.0,0.0
18072,73.0,0.0,15.0,2.0,0.0
18073,85.0,15.0,15.0,1.0,0.0
18074,75.0,0.0,15.0,2.0,0.0
18075,87.0,0.0,15.0,1.0,0.0
18076,75.0,0.0,15.0,1.0,0.0
18077,87.0,0.0,15.0,0.0,0.0
18078,75.0,15.0,15.0,4.0,0.0
18079,63.0,0.0,15.0,0.0,0.0
18080,85.0,15.0,15.0,1.0,0.0
18081,73.0,0.0,15.0,1.0,0.0
18082,61.0,0.0,15.0,0.0,0.0
18083,85.0,0.0,15.0,0.0,0.0
18084,73.0,0.0,15.0,0.0,0.0
18085,73.0,0.0,15.0,2.0,0.0
18086,73.0,0.0,15.0,4.0,0.0
18087,75.0,15.0,15.0,2.0,0.0
18088,87.0,0.0,15.0,1.0,0.0
18089,75.0,0.0,15.0,4.0,0.0
18090,87.0,0.0,15.0,0.0,0.0
18091,75.0,0.0,15.0,1.0,0.0
18092,63.0,0.0,15.0,0.0,0.0
18093,39.0,0.0,120.0,5.0,0.0
18094,42.0,0.0,15.0,13.0,0.0
18095,61.0,0.0,15.0,0.0,0.0
18096,51.0,0.0,120.0,3.0,0.0
18097,51.0,0.0,120.0,6.0,0.0
18098,63.0,0.0,120.0,7.0,0.0
18099,71.0,0.0,120.0,7.0,0.0
18100,73.0,0.0,15.0,1.0,0.0
18101,85.0,0.0,15.0,1.0,0.0
18102,51.0,0.0,120.0,7.0,0.0
18103,59.0,0.0,120.0,7.0,0.0
18104,73.0,0.0,15.0,4.0,0.0
18105,85.0,15.0,15.0,4.0,0.0
18106,54.0,0.0,120.0,7.0,0.0
18107,39.0,0.0,120.0,6.0,0.0
18108,85.0,0.0,15.0,0.0,0.0
18109,73.0,0.0,15.0,0.0,0.0
18110,51.0,0.0,120.0,8.0,0.0
18111,59.0,15.0,120.0,8.0,0.0
18112,73.0,0.0,15.0,2.0,0.0
18113,75.0,0.0,15.0,4.0,0.0
18114,63.0,0.0,15.0,0.0,0.0
18115,75.0,0.0,15.0,1.0,0.0
18116,87.0,0.0,15.0,1.0,0.0
18117,75.0,15.0,15.0,2.0,0.0
18118,87.0,0.0,15.0,4.0,0.0
18119,87.0,0.0,15.0,0.0,0.0
18120,61.0,0.0,15.0,0.0,0.0
18121,73.0,0.0,15.0,4.0,0.0
18122,85.0,0.0,15.0,4.0,0.0
18123,85.0,0.0,15.0,1.0,0.0
18124,73.0,0.0,15.0,1.0,0.0
18125,42.0,0.0,15.0,13.0,0.0
18126,85.0,0.0,15.0,0.0,0.0
18127,73.0,0.0,15.0,0.0,0.0
18128,73.0,0.0,15.0,2.0,0.0
18129,75.0,15.0,15.0,2.0,0.0
18130,87.0,0.0,15.0,0.0,0.0
18131,63.0,0.0,15.0,0.0,0.0
18132,87.0,0.0,15.0,4.0,0.0
18133,75.0,0.0,15.0,1.0,0.0
18134,42.0,15.0,15.0,13.0,0.0
18135,75.0,0.0,15.0,4.0,0.0
18136,87.0,0.0,15.0,1.0,0.0
18137,85.0,0.0,15.0,0.0,0.0
18138,73.0,0.0,15.0,0.0,0.0
18139,61.0,0.0,15.0,0.0,0.0
18140,73.0,0.0,15.0,1.0,0.0
18141,85.0,0.0,15.0,1.0,0.0
18142,85.0,0.0,15.0,4.0,0.0
18143,42.0,0.0,15.0,13.0,0.0
18144,73.0,15.0,15.0,4.0,0.0
18145,73.0,0.0,15.0,2.0,0.0
18146,87.0,0.0,15.0,4.0,0.0
18147,75.0,0.0,15.0,1.0,0.0
18148,87.0,0.0,15.0,1.0,0.0
18149,75.0,0.0,15.0,4.0,0.0
18150,42.0,0.0,15.0,13.0,0.0
18151,75.0,0.0,15.0,2.0,0.0
18152,63.0,0.0,15.0,0.0,0.0
18153,87.0,15.0,15.0,0.0,0.0
18154,73.0,0.0,15.0,1.0,0.0
18155,73.0,0.0,15.0,2.0,0.0
18156,85.0,0.0,15.0,0.0,0.0
18157,73.0,0.0,15.0,4.0,0.0
18158,73.0,0.0,15.0,0.0,0.0
18159,61.0,15.0,15.0,0.0,0.0
18160,85.0,0.0,15.0,1.0,0.0
18161,85.0,0.0,15.0,4.0,0.0
18162,75.0,0.0,15.0,4.0,0.0
18163,87.0,0.0,15.0,4.0,0.0
18164,75.0,0.0,15.0,1.0,0.0
18165,75.0,0.0,15.0,2.0,0.0
18166,42.0,0.0,15.0,13.0,0.0
18167,87.0,0.0,15.0,1.0,0.0
18168,87.0,0.0,15.0,0.0,0.0
18169,63.0,0.0,15.0,0.0,0.0
18170,58.0,0.0,60.0,7.0,0.0
18171,42.0,0.0,15.0,13.0,0.0
18172,73.0,0.0,15.0,2.0,0.0
18173,85.0,0.0,15.0,4.0,0.0
18174,42.0,0.0,60.0,5.0,0.0
18175,73.0,0.0,15.0,1.0,0.0
18176,73.0,0.0,15.0,4.0,0.0
18177,66.0,0.0,15.0,7.0,0.0
18178,85.0,0.0,15.0,0.0,0.0
18179,73.0,15.0,15.0,0.0,0.0
18180,61.0,0.0,15.0,0.0,0.0
18181,85.0,0.0,15.0,1.0,0.0
18182,70.0,5.0,40.0,7.0,0.0
18183,54.0,0.0,60.0,3.0,0.0
18184,42.0,0.0,60.0,6.0,0.0
18185,54.0,0.0,60.0,6.0,0.0
18186,58.0,0.0,60.0,8.0,0.0
18187,61.0,0.0,40.0,7.0,0.0
18188,75.0,0.0,15.0,4.0,0.0
18189,87.0,0.0,15.0,4.0,0.0
18190,75.0,0.0,15.0,1.0,0.0
18191,75.0,0.0,15.0,2.0,0.0
18192,63.0,0.0,15.0,0.0,0.0
18193,87.0,10.0,15.0,0.0,0.0
18194,87.0,0.0,15.0,1.0,0.0
18195,73.0,0.0,15.0,4.0,0.0
18196,85.0,0.0,15.0,4.0,0.0
18197,73.0,0.0,15.0,2.0,0.0
18198,73.0,0.0,15.0,0.0,0.0
18199,61.0,0.0,15.0,0.0,0.0
18200,85.0,15.0,15.0,1.0,0.0
18201,73.0,0.0,15.0,1.0,0.0
18202,85.0,0.0,15.0,0.0,0.0
18203,59.0,10.0,40.0,7.0,0.0
18204,68.0,0.0,40.0,7.0,0.0
18205,87.0,0.0,15.0,4.0,0.0
18206,75.0,0.0,15.0,2.0,0.0
18207,75.0,0.0,15.0,4.0,0.0
18208,87.0,0.0,15.0,0.0,0.0
18209,75.0,0.0,15.0,1.0,0.0
18210,87.0,15.0,15.0,1.0,0.0
18211,63.0,0.0,15.0,0.0,0.0
18212,30.0,0.0,60.0,5.0,0.0
18213,85.0,0.0,15.0,0.0,0.0
18214,73.0,0.0,15.0,0.0,0.0
18215,61.0,0.0,15.0,0.0,0.0
18216,30.0,0.0,60.0,6.0,0.0
18217,73.0,5.0,15.0,2.0,0.0
18218,54.0,0.0,60.0,7.0,0.0
18219,42.0,0.0,60.0,3.0,0.0
18220,42.0,0.0,60.0,6.0,0.0
18221,73.0,0.0,15.0,4.0,0.0
18222,85.0,0.0,15.0,4.0,0.0
18223,54.0,0.0,15.0,8.0,0.0
18224,73.0,0.0,15.0,1.0,0.0
18225,42.0,0.0,60.0,8.0,0.0
18226,85.0,0.0,15.0,1.0,0.0
18227,63.0,0.0,15.0,0.0,0.0
18228,87.0,0.0,15.0,0.0,0.0
18229,87.0,0.0,15.0,1.0,0.0
18230,75.0,0.0,15.0,1.0,0.0
18231,75.0,0.0,15.0,2.0,0.0
18232,75.0,15.0,15.0,4.0,0.0
18233,87.0,0.0,15.0,4.0,0.0
18234,66.0,0.0,40.0,7.0,0.0
18235,58.0,0.0,40.0,7.0,0.0
18236,85.0,0.0,15.0,0.0,0.0
18237,73.0,0.0,15.0,4.0,0.0
18238,85.0,15.0,15.0,4.0,0.0
18239,73.0,0.0,15.0,0.0,0.0
18240,85.0,0.0,15.0,1.0,0.0
18241,61.0,0.0,15.0,0.0,0.0
18242,73.0,0.0,15.0,2.0,0.0
18243,73.0,0.0,15.0,1.0,0.0
18244,75.0,15.0,15.0,2.0,0.0
18245,63.0,0.0,15.0,0.0,0.0
18246,75.0,0.0,15.0,4.0,0.0
18247,87.0,0.0,15.0,0.0,0.0
18248,87.0,0.0,15.0,1.0,0.0
18249,75.0,0.0,15.0,1.0,0.0
18250,87.0,0.0,15.0,4.0,0.0
18251,74.0,15.0,15.0,0.0,0.0
18252,42.0,0.0,60.0,13.0,0.0
18253,86.0,0.0,15.0,0.0,0.0
18254,62.0,0.0,15.0,0.0,0.0
18255,74.0,0.0,15.0,4.0,0.0
18256,58.0,0.0,60.0,8.0,0.0
18257,54.0,0.0,15.0,8.0,0.0
18258,86.0,0.0,15.0,4.0,0.0
18259,42.0,15.0,60.0,5.0,0.0
18260,86.0,0.0,15.0,1.0,0.0
18261,54.0,0.0,60.0,6.0,0.0
18262,70.0,5.0,40.0,7.0,0.0
18263,54.0,0.0,60.0,3.0,0.0
18264,66.0,0.0,60.0,7.0,0.0
18265,61.0,0.0,40.0,7.0,0.0
18266,74.0,0.0,15.0,1.0,0.0
18267,58.0,0.0,60.0,7.0,0.0
18268,74.0,0.0,15.0,2.0,0.0
18269,63.0,0.0,15.0,0.0,0.0
18270,75.0,0.0,15.0,1.0,0.0
18271,87.0,0.0,15.0,0.0,0.0
18272,75.0,0.0,15.0,4.0,0.0
18273,75.0,0.0,15.0,2.0,0.0
18274,87.0,10.0,15.0,4.0,0.0
18275,87.0,0.0,15.0,1.0,0.0
18276,86.0,15.0,15.0,1.0,0.0
18277,74.0,0.0,15.0,1.0,0.0
18278,74.0,0.0,15.0,0.0,0.0
18279,86.0,0.0,15.0,0.0,0.0
18280,62.0,0.0,15.0,0.0,0.0
18281,74.0,0.0,15.0,2.0,0.0
18282,74.0,0.0,15.0,4.0,0.0
18283,86.0,0.0,15.0,4.0,0.0
18284,59.0,10.0,40.0,7.0,0.0
18285,68.0,0.0,40.0,7.0,0.0
18286,75.0,0.0,15.0,2.0,0.0
18287,87.0,0.0,15.0,4.0,0.0
18288,75.0,0.0,15.0,4.0,0.0
18289,87.0,0.0,15.0,0.0,0.0
18290,87.0,0.0,15.0,1.0,0.0
18291,75.0,0.0,15.0,1.0,0.0
18292,63.0,0.0,15.0,0.0,0.0
18293,86.0,0.0,15.0,4.0,0.0
18294,86.0,0.0,15.0,1.0,0.0
18295,74.0,0.0,15.0,1.0,0.0
18296,42.0,0.0,15.0,6.0,0.0
18297,62.0,0.0,15.0,0.0,0.0
18298,74.0,5.0,15.0,2.0,0.0
18299,74.0,0.0,15.0,0.0,0.0
18300,86.0,0.0,15.0,0.0,0.0
18301,30.0,0.0,60.0,6.0,0.0
18302,74.0,0.0,15.0,4.0,0.0
18303,42.0,15.0,60.0,3.0,0.0
18304,54.0,0.0,60.0,7.0,0.0
18305,42.0,0.0,60.0,8.0,0.0
18306,30.0,0.0,60.0,5.0,0.0
18307,54.0,0.0,60.0,8.0,0.0
18308,63.0,0.0,15.0,0.0,0.0
18309,87.0,15.0,15.0,0.0,0.0
18310,87.0,0.0,15.0,1.0,0.0
18311,75.0,0.0,15.0,1.0,0.0
18312,75.0,0.0,15.0,2.0,0.0
18313,75.0,0.0,15.0,4.0,0.0
18314,87.0,0.0,15.0,4.0,0.0
18315,66.0,0.0,40.0,7.0,0.0
18316,74.0,0.0,15.0,0.0,0.0
18317,62.0,0.0,15.0,0.0,0.0
18318,86.0,0.0,15.0,4.0,0.0
18319,74.0,0.0,15.0,1.0,0.0
18320,74.0,0.0,15.0,4.0,0.0
18321,86.0,15.0,15.0,1.0,0.0
18322,86.0,0.0,15.0,0.0,0.0
18323,74.0,0.0,15.0,2.0,0.0
18324,75.0,0.0,15.0,1.0,0.0
18325,87.0,0.0,15.0,1.0,0.0
18326,63.0,0.0,15.0,0.0,0.0
18327,87.0,0.0,15.0,0.0,0.0
18328,75.0,0.0,15.0,2.0,0.0
18329,75.0,0.0,15.0,4.0,0.0
18330,87.0,0.0,15.0,4.0,0.0
18331,86.0,0.0,15.0,1.0,0.0
18332,58.0,0.0,60.0,8.0,0.0
18333,74.0,0.0,15.0,1.0,0.0
18334,74.0,0.0,15.0,2.0,0.0
18335,66.0,0.0,60.0,7.0,0.0
18336,58.0,0.0,15.0,7.0,0.0
18337,42.0,0.0,15.0,6.0,0.0
18338,54.0,0.0,60.0,6.0,0.0
18339,86.0,15.0,15.0,0.0,0.0
18340,62.0,0.0,15.0,0.0,0.0
18341,70.0,5.0,40.0,7.0,0.0
18342,54.0,0.0,60.0,3.0,0.0
18343,86.0,0.0,15.0,4.0,0.0
18344,74.0,0.0,15.0,4.0,0.0
18345,61.0,0.0,40.0,7.0,0.0
18346,42.0,0.0,60.0,5.0,0.0
18347,42.0,0.0,60.0,13.0,0.0
18348,74.0,0.0,15.0,0.0,0.0
18349,75.0,10.0,15.0,2.0,0.0
18350,75.0,0.0,15.0,4.0,0.0
18351,87.0,0.0,15.0,4.0,0.0
18352,75.0,0.0,15.0,1.0,0.0
18353,87.0,0.0,15.0,1.0,0.0
18354,87.0,0.0,15.0,0.0,0.0
18355,63.0,0.0,15.0,0.0,0.0
18356,62.0,15.0,15.0,0.0,0.0
18357,74.0,0.0,15.0,0.0,0.0
18358,86.0,0.0,15.0,4.0,0.0
18359,74.0,0.0,15.0,4.0,0.0
18360,74.0,0.0,15.0,2.0,0.0
18361,86.0,0.0,15.0,0.0,0.0
18362,74.0,0.0,15.0,1.0,0.0
18363,86.0,0.0,15.0,1.0,0.0
18364,68.0,10.0,40.0,7.0,0.0
18365,59.0,0.0,40.0,7.0,0.0
18366,87.0,0.0,15.0,1.0,0.0
18367,75.0,15.0,15.0,1.0,0.0
18368,75.0,0.0,15.0,4.0,0.0
18369,87.0,0.0,15.0,4.0,0.0
18370,63.0,0.0,15.0,0.0,0.0
18371,87.0,0.0,15.0,0.0,0.0
18372,75.0,0.0,15.0,2.0,0.0
18373,54.0,0.0,60.0,7.0,0.0
18374,30.0,0.0,60.0,5.0,0.0
18375,42.0,0.0,60.0,3.0,0.0
18376,86.0,0.0,15.0,4.0,0.0
18377,74.0,0.0,15.0,4.0,0.0
18378,86.0,0.0,15.0,0.0,0.0
18379,62.0,0.0,15.0,0.0,0.0
18380,74.0,0.0,15.0,0.0,0.0
18381,42.0,0.0,15.0,6.0,0.0
18382,30.0,0.0,60.0,6.0,0.0
18383,54.0,0.0,15.0,8.0,0.0
18384,74.0,0.0,15.0,2.0,0.0
18385,86.0,5.0,15.0,1.0,0.0
18386,74.0,0.0,15.0,1.0,0.0
18387,87.0,0.0,15.0,0.0,0.0
18388,75.0,0.0,15.0,2.0,0.0
18389,87.0,0.0,15.0,4.0,0.0
18390,75.0,0.0,15.0,4.0,0.0
18391,63.0,0.0,15.0,0.0,0.0
18392,87.0,15.0,15.0,1.0,0.0
18393,75.0,0.0,15.0,1.0,0.0
18394,58.0,0.0,40.0,7.0,0.0
18395,86.0,0.0,15.0,1.0,0.0
18396,74.0,0.0,15.0,1.0,0.0
18397,86.0,0.0,15.0,4.0,0.0
18398,74.0,0.0,15.0,4.0,0.0
18399,74.0,0.0,15.0,0.0,0.0
18400,62.0,0.0,15.0,0.0,0.0
18401,74.0,0.0,15.0,2.0,0.0
18402,86.0,15.0,15.0,0.0,0.0
18403,87.0,0.0,15.0,1.0,0.0
18404,75.0,0.0,15.0,1.0,0.0
18405,47.0,15.0,120.0,6.0,0.0
18406,71.0,0.0,120.0,7.0,0.0
18407,47.0,0.0,120.0,3.0,0.0
18408,35.0,0.0,120.0,6.0,0.0
18409,35.0,0.0,120.0,5.0,0.0
18410,87.0,0.0,15.0,0.0,0.0
18411,66.0,0.0,15.0,7.0,0.0
18412,75.0,0.0,15.0,0.0,0.0
18413,63.0,15.0,15.0,0.0,0.0
18414,63.0,0.0,120.0,7.0,0.0
18415,75.0,0.0,15.0,4.0,0.0
18416,87.0,0.0,15.0,4.0,0.0
18417,75.0,0.0,15.0,2.0,0.0
18418,54.0,0.0,120.0,7.0,0.0
18419,42.0,0.0,120.0,13.0,0.0
18420,87.0,0.0,15.0,1.0,0.0
18421,75.0,0.0,15.0,1.0,0.0
18422,42.0,0.0,15.0,8.0,0.0
18423,54.0,0.0,120.0,8.0,0.0
18424,77.0,0.0,15.0,4.0,0.0
18425,89.0,0.0,15.0,4.0,0.0
18426,77.0,0.0,15.0,2.0,0.0
18427,65.0,0.0,15.0,0.0,0.0
18428,77.0,0.0,15.0,1.0,0.0
18429,89.0,15.0,15.0,1.0,0.0
18430,89.0,0.0,15.0,0.0,0.0
18431,87.0,15.0,15.0,0.0,0.0
18432,63.0,0.0,15.0,0.0,0.0
18433,75.0,0.0,15.0,0.0,0.0
18434,75.0,0.0,15.0,2.0,0.0
18435,75.0,0.0,15.0,4.0,0.0
18436,87.0,0.0,15.0,4.0,0.0
18437,75.0,0.0,15.0,1.0,0.0
18438,87.0,0.0,15.0,1.0,0.0
18439,77.0,0.0,15.0,1.0,0.0
18440,89.0,0.0,15.0,4.0,0.0
18441,89.0,0.0,15.0,1.0,0.0
18442,77.0,0.0,15.0,2.0,0.0
18443,77.0,0.0,15.0,4.0,0.0
18444,89.0,15.0,15.0,0.0,0.0
18445,65.0,0.0,15.0,0.0,0.0
18446,75.0,0.0,15.0,1.0,0.0
18447,75.0,0.0,15.0,2.0,0.0
18448,87.0,0.0,15.0,1.0,0.0
18449,63.0,15.0,15.0,0.0,0.0
18450,75.0,0.0,15.0,0.0,0.0
18451,87.0,0.0,15.0,0.0,0.0
18452,75.0,0.0,15.0,4.0,0.0
18453,87.0,0.0,15.0,4.0,0.0
18454,65.0,0.0,15.0,0.0,0.0
18455,89.0,0.0,15.0,1.0,0.0
18456,77.0,15.0,15.0,1.0,0.0
18457,89.0,0.0,15.0,0.0,0.0
18458,89.0,0.0,15.0,4.0,0.0
18459,77.0,0.0,15.0,4.0,0.0
18460,77.0,0.0,15.0,2.0,0.0
18461,87.0,0.0,15.0,1.0,0.0
18462,75.0,0.0,15.0,1.0,0.0
18463,75.0,15.0,15.0,2.0,0.0
18464,87.0,0.0,15.0,0.0,0.0
18465,75.0,0.0,15.0,0.0,0.0
18466,63.0,0.0,15.0,0.0,0.0
18467,87.0,0.0,15.0,4.0,0.0
18468,75.0,0.0,15.0,4.0,0.0
18469,77.0,0.0,15.0,1.0,0.0
18470,89.0,0.0,15.0,4.0,0.0
18471,77.0,0.0,15.0,4.0,0.0
18472,89.0,0.0,15.0,1.0,0.0
18473,65.0,0.0,15.0,0.0,0.0
18474,77.0,0.0,15.0,2.0,0.0
18475,89.0,0.0,15.0,0.0,0.0
18476,63.0,0.0,15.0,0.0,0.0
18477,75.0,0.0,15.0,0.0,0.0
18478,75.0,0.0,15.0,4.0,0.0
18479,87.0,0.0,15.0,4.0,0.0
18480,75.0,0.0,15.0,2.0,0.0
18481,87.0,15.0,15.0,1.0,0.0
18482,75.0,0.0,15.0,1.0,0.0
18483,87.0,0.0,15.0,0.0,0.0
18484,89.0,0.0,15.0,1.0,0.0
18485,77.0,0.0,15.0,1.0,0.0
18486,77.0,0.0,15.0,2.0,0.0
18487,89.0,0.0,15.0,0.0,0.0
18488,65.0,0.0,15.0,0.0,0.0
18489,89.0,15.0,15.0,4.0,0.0
18490,77.0,0.0,15.0,4.0,0.0
18491,75.0,0.0,15.0,2.0,0.0
18492,75.0,0.0,15.0,1.0,0.0
18493,87.0,0.0,15.0,4.0,0.0
18494,75.0,0.0,15.0,4.0,0.0
18495,87.0,0.0,15.0,1.0,0.0
18496,63.0,0.0,15.0,0.0,0.0
18497,75.0,0.0,15.0,0.0,0.0
18498,87.0,15.0,15.0,0.0,0.0
18499,77.0,0.0,15.0,1.0,0.0
18500,89.0,0.0,15.0,1.0,0.0
18501,89.0,15.0,15.0,4.0,0.0
18502,65.0,0.0,15.0,0.0,0.0
18503,89.0,0.0,15.0,0.0,0.0
18504,77.0,0.0,15.0,4.0,0.0
18505,77.0,0.0,15.0,2.0,0.0
18506,63.0,0.0,15.0,0.0,0.0
18507,87.0,15.0,15.0,0.0,0.0
18508,75.0,0.0,15.0,2.0,0.0
18509,75.0,0.0,15.0,0.0,0.0
18510,87.0,0.0,15.0,1.0,0.0
18511,75.0,0.0,15.0,1.0,0.0
18512,87.0,0.0,15.0,4.0,0.0
18513,75.0,0.0,15.0,4.0,0.0
18514,77.0,0.0,15.0,2.0,0.0
18515,89.0,15.0,15.0,4.0,0.0
18516,65.0,0.0,15.0,0.0,0.0
18517,77.0,0.0,15.0,4.0,0.0
18518,89.0,0.0,15.0,1.0,0.0
18519,77.0,0.0,15.0,1.0,0.0
18520,89.0,0.0,15.0,0.0,0.0
18521,87.0,0.0,15.0,0.0,0.0
18522,63.0,0.0,15.0,0.0,0.0
18523,75.0,0.0,15.0,0.0,0.0
18524,75.0,0.0,15.0,2.0,0.0
18525,87.0,0.0,15.0,4.0,0.0
18526,87.0,0.0,15.0,1.0,0.0
18527,75.0,15.0,15.0,1.0,0.0
18528,75.0,0.0,15.0,4.0,0.0
18529,89.0,0.0,15.0,1.0,0.0
18530,89.0,0.0,15.0,4.0,0.0
18531,77.0,0.0,15.0,2.0,0.0
18532,65.0,0.0,15.0,0.0,0.0
18533,77.0,0.0,15.0,0.0,0.0
18534,89.0,0.0,15.0,0.0,0.0
18535,65.0,0.0,15.0,0.0,0.0
18536,37.0,0.0,120.0,5.0,0.0
18537,49.0,0.0,120.0,3.0,0.0
18538,77.0,0.0,15.0,2.0,0.0
18539,49.0,0.0,120.0,8.0,0.0
18540,37.0,0.0,120.0,8.0,0.0
18541,37.0,0.0,120.0,13.0,0.0
18542,49.0,0.0,120.0,6.0,0.0
18543,37.0,0.0,120.0,6.0,0.0
18544,77.0,15.0,15.0,4.0,0.0
18545,77.0,0.0,15.0,1.0,0.0
18546,61.0,0.0,120.0,7.0,0.0
18547,53.0,0.0,120.0,7.0,0.0
18548,89.0,0.0,15.0,4.0,0.0
18549,68.0,15.0,120.0,12.0,0.0
18550,65.0,0.0,120.0,7.0,0.0
18551,89.0,0.0,15.0,1.0,0.0
18552,73.0,0.0,120.0,7.0,0.0
18553,56.0,0.0,120.0,12.0,0.0
18554,56.0,0.0,120.0,7.0,0.0
18555,78.0,0.0,15.0,4.0,0.0
18556,66.0,0.0,15.0,0.0,0.0
18557,90.0,0.0,15.0,0.0,0.0
18558,90.0,15.0,15.0,1.0,0.0
18559,90.0,0.0,15.0,4.0,0.0
18560,78.0,0.0,15.0,1.0,0.0
18561,78.0,0.0,15.0,2.0,0.0
18562,89.0,0.0,15.0,4.0,0.0
18563,77.0,0.0,15.0,4.0,0.0
18564,77.0,0.0,15.0,1.0,0.0
18565,89.0,0.0,15.0,1.0,0.0
18566,65.0,0.0,15.0,0.0,0.0
18567,89.0,15.0,15.0,0.0,0.0
18568,77.0,0.0,15.0,0.0,0.0
18569,77.0,0.0,15.0,2.0,0.0
18570,78.0,0.0,15.0,2.0,0.0
18571,90.0,0.0,15.0,1.0,0.0
18572,78.0,0.0,15.0,1.0,0.0
18573,90.0,0.0,15.0,4.0,0.0
18574,78.0,0.0,15.0,4.0,0.0
18575,90.0,0.0,15.0,0.0,0.0
18576,66.0,15.0,15.0,0.0,0.0
18577,77.0,0.0,15.0,0.0,0.0
18578,65.0,0.0,15.0,0.0,0.0
18579,77.0,0.0,15.0,2.0,0.0
18580,77.0,0.0,15.0,4.0,0.0
18581,89.0,0.0,15.0,4.0,0.0
18582,89.0,0.0,15.0,1.0,0.0
18583,77.0,0.0,15.0,1.0,0.0
18584,89.0,15.0,15.0,0.0,0.0
18585,78.0,0.0,15.0,2.0,0.0
18586,90.0,0.0,15.0,0.0,0.0
18587,78.0,0.0,15.0,4.0,0.0
18588,90.0,0.0,15.0,4.0,0.0
18589,78.0,0.0,15.0,1.0,0.0
18590,66.0,0.0,15.0,0.0,0.0
18591,90.0,15.0,15.0,1.0,0.0
18592,77.0,15.0,15.0,4.0,0.0
18593,89.0,0.0,15.0,4.0,0.0
18594,77.0,0.0,15.0,2.0,0.0
18595,89.0,0.0,15.0,0.0,0.0
18596,65.0,0.0,15.0,0.0,0.0
18597,77.0,0.0,15.0,0.0,0.0
18598,89.0,0.0,15.0,1.0,0.0
18599,77.0,0.0,15.0,1.0,0.0
18600,90.0,0.0,15.0,1.0,0.0
18601,78.0,0.0,15.0,1.0,0.0
18602,66.0,0.0,15.0,0.0,0.0
18603,78.0,0.0,15.0,2.0,0.0
18604,90.0,0.0,15.0,0.0,0.0
18605,78.0,0.0,15.0,4.0,0.0
18606,90.0,0.0,15.0,4.0,0.0
18607,89.0,0.0,15.0,0.0,0.0
18608,77.0,0.0,15.0,2.0,0.0
18609,77.0,0.0,15.0,0.0,0.0
18610,65.0,0.0,15.0,0.0,0.0
18611,77.0,0.0,15.0,1.0,0.0
18612,89.0,0.0,15.0,1.0,0.0
18613,77.0,15.0,15.0,4.0,0.0
18614,89.0,0.0,15.0,4.0,0.0
18615,90.0,0.0,15.0,1.0,0.0
18616,90.0,0.0,15.0,0.0,0.0
18617,78.0,0.0,15.0,2.0,0.0
18618,66.0,0.0,15.0,0.0,0.0
18619,78.0,0.0,15.0,1.0,0.0
18620,78.0,0.0,15.0,4.0,0.0
18621,90.0,15.0,15.0,4.0,0.0
18622,77.0,0.0,15.0,0.0,0.0
18623,89.0,0.0,15.0,1.0,0.0
18624,77.0,15.0,15.0,4.0,0.0
18625,77.0,0.0,15.0,1.0,0.0
18626,89.0,0.0,15.0,0.0,0.0
18627,65.0,0.0,15.0,0.0,0.0
18628,77.0,0.0,15.0,2.0,0.0
18629,89.0,0.0,15.0,4.0,0.0
18630,90.0,0.0,15.0,0.0,0.0
18631,66.0,0.0,15.0,0.0,0.0
18632,78.0,0.0,15.0,1.0,0.0
18633,90.0,15.0,15.0,4.0,0.0
18634,78.0,0.0,15.0,4.0,0.0
18635,90.0,0.0,15.0,1.0,0.0
18636,78.0,0.0,15.0,2.0,0.0
18637,89.0,15.0,15.0,1.0,0.0
18638,77.0,0.0,15.0,1.0,0.0
18639,89.0,0.0,15.0,4.0,0.0
18640,77.0,0.0,15.0,4.0,0.0
18641,63.0,15.0,30.0,0.0,0.0
18642,87.0,0.0,30.0,0.0,0.0
18643,77.0,0.0,15.0,2.0,0.0
18644,90.0,0.0,15.0,4.0,0.0
18645,78.0,0.0,15.0,4.0,0.0
18646,90.0,0.0,15.0,1.0,0.0
18647,78.0,0.0,15.0,1.0,0.0
18648,78.0,0.0,15.0,2.0,0.0
18649,77.0,0.0,15.0,2.0,0.0
18650,77.0,0.0,15.0,1.0,0.0
18651,89.0,0.0,15.0,1.0,0.0
18652,77.0,0.0,30.0,0.0,0.0
18653,77.0,15.0,15.0,4.0,0.0
18654,89.0,0.0,15.0,4.0,0.0
18655,89.0,0.0,30.0,0.0,0.0
18656,65.0,0.0,30.0,0.0,0.0
18657,90.0,0.0,15.0,1.0,0.0
18658,90.0,0.0,15.0,4.0,0.0
18659,42.0,0.0,120.0,6.0,0.0
18660,66.0,0.0,120.0,4.0,0.0
18661,78.0,0.0,15.0,4.0,0.0
18662,30.0,0.0,40.0,0.0,0.0
18663,18.0,0.0,40.0,0.0,0.0
18664,30.0,0.0,120.0,5.0,0.0
18665,54.0,0.0,120.0,8.0,0.0
18666,42.0,0.0,120.0,8.0,0.0
18667,42.0,0.0,120.0,13.0,0.0
18668,42.0,0.0,120.0,3.0,0.0
18669,58.0,0.0,120.0,7.0,0.0
18670,66.0,0.0,120.0,7.0,0.0
18671,78.0,0.0,15.0,2.0,0.0
18672,78.0,40.0,15.0,1.0,0.0
18673,90.0,0.0,120.0,1.0,0.0
18674,54.0,0.0,120.0,7.0,0.0
18675,30.0,0.0,120.0,6.0,0.0
18676,46.0,40.0,20.0,0.0,0.0
18677,42.0,0.0,20.0,0.0,0.0
18678,34.0,0.0,40.0,0.0,0.0
18679,46.0,0.0,20.0,0.0,0.0
18680,49.0,0.0,20.0,0.0,0.0
18681,37.0,40.0,15.0,0.0,0.0
18682,42.0,0.0,40.0,0.0,0.0
18683,49.0,0.0,20.0,0.0,0.0
18684,54.0,40.0,20.0,0.0,0.0
18685,42.0,0.0,40.0,0.0,0.0
18686,54.0,40.0,20.0,0.0,0.0
18687,58.0,0.0,20.0,0.0,0.0
18688,46.0,0.0,15.0,0.0,0.0
18689,58.0,0.0,20.0,0.0,0.0
18690,61.0,0.0,20.0,0.0,0.0
18691,49.0,0.0,15.0,0.0,0.0
18692,54.0,0.0,40.0,0.0,0.0
18693,61.0,40.0,20.0,0.0,0.0
18694,66.0,0.0,20.0,0.0,0.0
18695,58.0,0.0,40.0,0.0,0.0
18696,54.0,0.0,40.0,0.0,0.0
18697,70.0,40.0,20.0,0.0,0.0
18698,66.0,0.0,20.0,0.0,0.0
18699,58.0,0.0,40.0,0.0,0.0
18700,61.0,0.0,40.0,0.0,0.0
18701,70.0,0.0,20.0,0.0,0.0
18702,73.0,40.0,20.0,0.0,0.0
18703,61.0,0.0,40.0,0.0,0.0
18704,78.0,40.0,20.0,0.0,0.0
18705,73.0,0.0,20.0,0.0,0.0
18706,66.0,0.0,15.0,0.0,0.0
18707,82.0,0.0,20.0,0.0,0.0
18708,78.0,0.0,20.0,0.0,0.0
18709,70.0,40.0,15.0,0.0,0.0
18710,85.0,0.0,20.0,0.0,0.0
18711,82.0,0.0,20.0,0.0,0.0
18712,78.0,0.0,40.0,0.0,0.0
18713,73.0,40.0,15.0,0.0,0.0
18714,85.0,0.0,20.0,0.0,0.0
18715,90.0,0.0,20.0,0.0,0.0
18716,42.0,0.0,120.0,5.0,0.0
18717,61.0,0.0,120.0,12.0,0.0
18718,58.0,0.0,120.0,12.0,0.0
18719,66.0,0.0,120.0,10.0,0.0
18720,54.0,0.0,120.0,7.0,0.0
18721,70.0,0.0,120.0,10.0,0.0
18722,78.0,130.0,120.0,1.0,0.0
18723,42.0,0.0,120.0,13.0,0.0
18724,58.0,0.0,120.0,7.0,0.0
18725,66.0,0.0,120.0,7.0,0.0
18726,42.0,10.0,15.0,0.0,0.0
18727,54.0,0.0,120.0,3.0,0.0
18728,82.0,0.0,120.0,1.0,0.0
18729,58.0,0.0,120.0,8.0,0.0
18730,49.0,0.0,120.0,7.0,0.0
18731,54.0,0.0,120.0,6.0,0.0
18732,70.0,0.0,120.0,4.0,0.0
18733,73.0,0.0,120.0,4.0,0.0
18734,42.0,0.0,120.0,6.0,0.0
18735,78.0,0.0,120.0,2.0,0.0
18736,70.0,0.0,120.0,2.0,0.0
18737,61.0,0.0,120.0,8.0,0.0
18738,78.0,0.0,120.0,7.0,0.0
18739,46.0,10.0,15.0,0.0,0.0
18740,49.0,90.0,15.0,0.0,0.0
18741,54.0,0.0,90.0,0.0,0.0
18742,90.0,0.0,90.0,0.0,0.0
18743,85.0,0.0,90.0,0.0,0.0
18744,82.0,0.0,90.0,0.0,0.0
18745,94.0,0.0,90.0,0.0,0.0
18746,61.0,0.0,120.0,12.0,0.0
18747,61.0,0.0,120.0,8.0,0.0
18748,78.0,0.0,120.0,2.0,0.0
18749,70.0,0.0,120.0,2.0,0.0
18750,30.0,10.0,15.0,0.0,0.0
18751,70.0,0.0,120.0,10.0,0.0
18752,54.0,0.0,120.0,6.0,0.0
18753,66.0,0.0,120.0,10.0,0.0
18754,54.0,0.0,120.0,7.0,0.0
18755,54.0,135.0,120.0,3.0,0.0
18756,49.0,0.0,120.0,7.0,0.0
18757,58.0,0.0,120.0,8.0,0.0
18758,82.0,0.0,120.0,1.0,0.0
18759,42.0,0.0,120.0,6.0,0.0
18760,42.0,0.0,120.0,5.0,0.0
18761,58.0,0.0,120.0,12.0,0.0
18762,78.0,0.0,120.0,1.0,0.0
18763,42.0,0.0,120.0,13.0,0.0
18764,70.0,0.0,120.0,4.0,0.0
18765,78.0,0.0,120.0,7.0,0.0
18766,66.0,0.0,120.0,7.0,0.0
18767,58.0,0.0,120.0,7.0,0.0
18768,73.0,0.0,120.0,4.0,0.0
18769,34.0,10.0,15.0,0.0,0.0
18770,37.0,90.0,15.0,0.0,0.0
18771,70.0,0.0,90.0,0.0,0.0
18772,73.0,0.0,90.0,0.0,0.0
18773,82.0,0.0,90.0,0.0,0.0
18774,42.0,0.0,90.0,0.0,0.0
18775,78.0,0.0,90.0,0.0,0.0
18776,58.0,0.0,480.0,0.0,0.0
18777,54.0,0.0,480.0,0.0,0.0
18778,66.0,0.0,480.0,7.0,0.0
18779,70.0,0.0,480.0,2.0,0.0
18780,78.0,0.0,480.0,2.0,0.0
18781,54.0,0.0,480.0,7.0,0.0
18782,49.0,0.0,480.0,7.0,0.0
18783,58.0,0.0,480.0,12.0,0.0
18784,49.0,0.0,480.0,12.0,0.0
18785,54.0,0.0,480.0,8.0,0.0
18786,30.0,0.0,480.0,6.0,0.0
18787,58.0,0.0,480.0,7.0,0.0
18788,30.0,0.0,480.0,5.0,0.0
18789,42.0,0.0,480.0,3.0,0.0
18790,61.0,0.0,480.0,0.0,0.0
18791,42.0,0.0,480.0,6.0,0.0
18792,42.0,0.0,480.0,8.0,0.0
18793,66.0,0.0,480.0,0.0,0.0
18794,34.0,0.0,480.0,0.0,0.0
18795,54.0,0.0,480.0,10.0,0.0
18796,66.0,0.0,480.0,10.0,0.0
18797,66.0,0.0,480.0,4.0,0.0
18798,70.0,0.0,480.0,4.0,0.0
18799,78.0,0.0,480.0,1.0,0.0
18800,37.0,0.0,480.0,0.0,0.0
18801,42.0,0.0,480.0,0.0,0.0
18802,30.0,0.0,480.0,0.0,0.0
18803,42.0,15.0,15.0,13.0,0.0
18804,42.0,15.0,15.0,13.0,0.0
18805,42.0,15.0,15.0,13.0,0.0
18806,42.0,15.0,15.0,13.0,0.0
18807,42.0,15.0,15.0,13.0,0.0
18808,42.0,15.0,15.0,13.0,0.0
18809,42.0,15.0,15.0,13.0,0.0
18810,42.0,15.0,15.0,13.0,0.0
18811,42.0,15.0,15.0,13.0,0.0
18812,42.0,15.0,15.0,13.0,0.0
18813,42.0,15.0,15.0,13.0,0.0
18814,42.0,15.0,15.0,13.0,0.0
18815,42.0,15.0,15.0,13.0,0.0
18816,42.0,15.0,15.0,13.0,0.0
18817,42.0,15.0,15.0,13.0,0.0
18818,42.0,15.0,15.0,13.0,0.0
18819,42.0,15.0,15.0,13.0,0.0
18820,42.0,15.0,15.0,13.0,0.0
18821,42.0,15.0,15.0,13.0,0.0
18822,42.0,15.0,15.0,13.0,0.0
18823,42.0,15.0,15.0,13.0,0.0
18824,42.0,15.0,15.0,13.0,0.0
18825,42.0,15.0,15.0,13.0,0.0
18826,42.0,15.0,15.0,13.0,0.0
18827,42.0,0.0,15.0,13.0,0.0
