,note,step,duration,channel,velocity
0,86.0,0.0,240.0,1.0,0.0
1,50.0,0.0,240.0,5.0,0.0
2,89.0,0.0,210.0,2.0,0.0
3,53.0,3.0,210.0,4.0,0.0
4,93.0,0.0,150.0,2.0,0.0
5,57.0,0.0,150.0,4.0,0.0
6,98.0,213.0,120.0,1.0,0.0
7,62.0,0.0,120.0,5.0,0.0
8,89.0,0.0,90.0,1.0,0.0
9,53.0,0.0,90.0,5.0,0.0
10,41.0,120.0,90.0,5.0,0.0
11,77.0,0.0,90.0,1.0,0.0
12,91.0,120.0,90.0,1.0,0.0
13,79.0,0.0,90.0,1.0,0.0
14,55.0,0.0,90.0,5.0,0.0
15,43.0,0.0,90.0,5.0,0.0
16,93.0,120.0,90.0,1.0,0.0
17,81.0,0.0,90.0,1.0,0.0
18,45.0,0.0,90.0,5.0,0.0
19,57.0,0.0,90.0,5.0,0.0
20,50.0,120.0,90.0,5.0,0.0
21,38.0,0.0,90.0,5.0,0.0
22,86.0,0.0,90.0,1.0,0.0
23,74.0,0.0,90.0,1.0,0.0
24,76.0,0.0,90.0,1.0,0.0
25,40.0,504.0,90.0,5.0,0.0
26,52.0,0.0,90.0,5.0,0.0
27,88.0,0.0,90.0,1.0,0.0
28,53.0,0.0,480.0,5.0,0.0
29,41.0,240.0,480.0,5.0,0.0
30,77.0,0.0,480.0,1.0,0.0
31,89.0,0.0,15.0,1.0,0.0
32,53.0,0.0,240.0,5.0,0.0
33,93.0,3.0,210.0,2.0,0.0
34,57.0,0.0,210.0,4.0,0.0
35,96.0,0.0,150.0,2.0,0.0
36,60.0,213.0,150.0,4.0,0.0
37,101.0,0.0,120.0,1.0,0.0
38,65.0,0.0,120.0,5.0,0.0
39,81.0,0.0,90.0,1.0,0.0
40,57.0,0.0,90.0,5.0,0.0
41,45.0,120.0,90.0,5.0,0.0
42,69.0,0.0,90.0,1.0,0.0
43,82.0,0.0,90.0,1.0,0.0
44,46.0,0.0,90.0,5.0,0.0
45,58.0,0.0,90.0,5.0,0.0
46,70.0,120.0,90.0,1.0,0.0
47,60.0,120.0,90.0,5.0,0.0
48,48.0,0.0,90.0,5.0,0.0
49,84.0,0.0,90.0,1.0,0.0
50,72.0,0.0,90.0,1.0,0.0
51,53.0,0.0,90.0,5.0,0.0
52,77.0,0.0,90.0,1.0,0.0
53,65.0,0.0,90.0,1.0,0.0
54,41.0,120.0,90.0,5.0,0.0
55,67.0,384.0,90.0,1.0,0.0
56,79.0,0.0,90.0,1.0,0.0
57,43.0,0.0,90.0,5.0,0.0
58,55.0,0.0,90.0,5.0,0.0
59,81.0,4.0,360.0,1.0,0.0
60,45.0,3.0,360.0,5.0,0.0
61,57.0,233.0,360.0,5.0,0.0
62,69.0,0.0,15.0,1.0,0.0
63,73.0,40.0,240.0,2.0,0.0
64,76.0,40.0,240.0,2.0,0.0
65,40.0,40.0,120.0,3.0,0.0
66,33.0,0.0,120.0,5.0,0.0
67,81.0,0.0,240.0,1.0,0.0
68,43.0,120.0,120.0,3.0,0.0
69,40.0,120.0,120.0,3.0,0.0
70,33.0,0.0,120.0,5.0,0.0
71,43.0,120.0,120.0,3.0,0.0
72,57.0,0.0,15.0,1.0,0.0
73,40.0,120.0,120.0,3.0,0.0
74,33.0,0.0,120.0,5.0,0.0
75,58.0,120.0,120.0,1.0,0.0
76,43.0,0.0,120.0,3.0,0.0
77,40.0,120.0,120.0,3.0,0.0
78,58.0,0.0,120.0,1.0,0.0
79,33.0,0.0,120.0,5.0,0.0
80,43.0,120.0,120.0,3.0,0.0
81,57.0,0.0,15.0,1.0,0.0
82,33.0,0.0,120.0,5.0,0.0
83,40.0,0.0,120.0,3.0,0.0
84,61.0,0.0,120.0,1.0,0.0
85,43.0,120.0,120.0,3.0,0.0
86,40.0,0.0,120.0,3.0,0.0
87,61.0,120.0,120.0,1.0,0.0
88,33.0,0.0,120.0,5.0,0.0
89,57.0,0.0,120.0,1.0,0.0
90,43.0,120.0,120.0,3.0,0.0
91,57.0,120.0,120.0,1.0,0.0
92,40.0,0.0,120.0,3.0,0.0
93,33.0,0.0,120.0,5.0,0.0
94,43.0,0.0,120.0,3.0,0.0
95,64.0,120.0,15.0,1.0,0.0
96,33.0,0.0,120.0,5.0,0.0
97,40.0,120.0,120.0,3.0,0.0
98,43.0,0.0,120.0,3.0,0.0
99,57.0,120.0,120.0,1.0,0.0
100,33.0,0.0,120.0,5.0,0.0
101,40.0,0.0,120.0,3.0,0.0
102,57.0,120.0,120.0,1.0,0.0
103,43.0,120.0,120.0,3.0,0.0
104,70.0,0.0,120.0,1.0,0.0
105,40.0,120.0,120.0,3.0,0.0
106,33.0,0.0,120.0,5.0,0.0
107,70.0,0.0,120.0,1.0,0.0
108,57.0,120.0,120.0,1.0,0.0
109,43.0,0.0,120.0,3.0,0.0
110,40.0,0.0,120.0,3.0,0.0
111,33.0,0.0,120.0,5.0,0.0
112,57.0,120.0,120.0,1.0,0.0
113,43.0,0.0,120.0,3.0,0.0
114,40.0,120.0,120.0,3.0,0.0
115,33.0,0.0,120.0,5.0,0.0
116,73.0,120.0,15.0,1.0,0.0
117,43.0,0.0,120.0,3.0,0.0
118,33.0,0.0,120.0,5.0,0.0
119,40.0,120.0,120.0,3.0,0.0
120,69.0,120.0,15.0,1.0,0.0
121,43.0,120.0,120.0,3.0,0.0
122,76.0,0.0,15.0,1.0,0.0
123,33.0,0.0,120.0,5.0,0.0
124,40.0,120.0,120.0,3.0,0.0
125,43.0,120.0,120.0,3.0,0.0
126,40.0,0.0,120.0,3.0,0.0
127,69.0,0.0,15.0,1.0,0.0
128,33.0,120.0,120.0,5.0,0.0
129,43.0,120.0,120.0,3.0,0.0
130,82.0,0.0,15.0,1.0,0.0
131,40.0,0.0,120.0,3.0,0.0
132,33.0,0.0,120.0,5.0,0.0
133,43.0,120.0,120.0,3.0,0.0
134,69.0,0.0,15.0,1.0,0.0
135,33.0,0.0,120.0,5.0,0.0
136,40.0,120.0,120.0,3.0,0.0
137,85.0,120.0,120.0,1.0,0.0
138,43.0,0.0,120.0,3.0,0.0
139,40.0,0.0,120.0,3.0,0.0
140,33.0,0.0,120.0,5.0,0.0
141,85.0,120.0,120.0,1.0,0.0
142,43.0,120.0,120.0,3.0,0.0
143,69.0,0.0,120.0,1.0,0.0
144,69.0,120.0,120.0,1.0,0.0
145,33.0,0.0,120.0,5.0,0.0
146,40.0,0.0,120.0,3.0,0.0
147,82.0,120.0,120.0,1.0,0.0
148,43.0,0.0,120.0,3.0,0.0
149,33.0,0.0,120.0,5.0,0.0
150,40.0,120.0,120.0,3.0,0.0
151,82.0,0.0,120.0,1.0,0.0
152,43.0,120.0,120.0,3.0,0.0
153,40.0,0.0,120.0,3.0,0.0
154,69.0,0.0,15.0,1.0,0.0
155,33.0,120.0,120.0,5.0,0.0
156,43.0,120.0,120.0,3.0,0.0
157,33.0,120.0,120.0,5.0,0.0
158,85.0,0.0,15.0,1.0,0.0
159,40.0,0.0,120.0,3.0,0.0
160,43.0,120.0,120.0,3.0,0.0
161,69.0,0.0,15.0,1.0,0.0
162,33.0,0.0,120.0,5.0,0.0
163,40.0,0.0,120.0,3.0,0.0
164,43.0,0.0,120.0,3.0,0.0
165,82.0,120.0,15.0,1.0,0.0
166,33.0,0.0,120.0,5.0,0.0
167,40.0,0.0,120.0,3.0,0.0
168,43.0,0.0,120.0,3.0,0.0
169,94.0,180.0,15.0,1.0,0.0
170,82.0,0.0,180.0,1.0,0.0
171,46.0,0.0,180.0,5.0,0.0
172,58.0,276.0,180.0,5.0,0.0
173,93.0,120.0,90.0,1.0,0.0
174,81.0,0.0,90.0,1.0,0.0
175,57.0,0.0,90.0,5.0,0.0
176,45.0,0.0,90.0,5.0,0.0
177,92.0,0.0,90.0,1.0,0.0
178,56.0,0.0,90.0,5.0,0.0
179,44.0,0.0,90.0,5.0,0.0
180,80.0,120.0,90.0,1.0,0.0
181,55.0,120.0,90.0,5.0,0.0
182,43.0,0.0,90.0,5.0,0.0
183,79.0,0.0,90.0,1.0,0.0
184,91.0,0.0,90.0,1.0,0.0
185,54.0,0.0,90.0,5.0,0.0
186,42.0,0.0,90.0,5.0,0.0
187,90.0,120.0,90.0,1.0,0.0
188,78.0,0.0,90.0,1.0,0.0
189,41.0,0.0,90.0,5.0,0.0
190,53.0,120.0,90.0,5.0,0.0
191,77.0,0.0,90.0,1.0,0.0
192,89.0,0.0,90.0,1.0,0.0
193,88.0,0.0,90.0,1.0,0.0
194,40.0,0.0,90.0,5.0,0.0
195,52.0,120.0,90.0,5.0,0.0
196,76.0,0.0,90.0,1.0,0.0
197,51.0,0.0,90.0,5.0,0.0
198,75.0,0.0,90.0,1.0,0.0
199,39.0,0.0,90.0,5.0,0.0
200,87.0,120.0,90.0,1.0,0.0
201,38.0,0.0,90.0,5.0,0.0
202,50.0,0.0,90.0,5.0,0.0
203,74.0,0.0,90.0,1.0,0.0
204,86.0,120.0,90.0,1.0,0.0
205,37.0,120.0,90.0,5.0,0.0
206,73.0,0.0,90.0,1.0,0.0
207,85.0,0.0,90.0,1.0,0.0
208,49.0,0.0,90.0,5.0,0.0
209,36.0,0.0,90.0,5.0,0.0
210,84.0,0.0,90.0,1.0,0.0
211,72.0,0.0,90.0,1.0,0.0
212,48.0,120.0,90.0,5.0,0.0
213,35.0,0.0,90.0,5.0,0.0
214,83.0,0.0,90.0,1.0,0.0
215,47.0,0.0,90.0,5.0,0.0
216,71.0,120.0,90.0,1.0,0.0
217,34.0,120.0,90.0,5.0,0.0
218,82.0,0.0,90.0,1.0,0.0
219,70.0,0.0,90.0,1.0,0.0
220,46.0,0.0,90.0,5.0,0.0
221,81.0,0.0,90.0,1.0,0.0
222,33.0,0.0,90.0,5.0,0.0
223,45.0,120.0,90.0,5.0,0.0
224,69.0,0.0,90.0,1.0,0.0
225,44.0,0.0,90.0,5.0,0.0
226,32.0,0.0,90.0,5.0,0.0
227,68.0,0.0,90.0,1.0,0.0
228,80.0,120.0,90.0,1.0,0.0
229,67.0,0.0,90.0,1.0,0.0
230,43.0,0.0,90.0,5.0,0.0
231,79.0,120.0,90.0,1.0,0.0
232,31.0,0.0,90.0,5.0,0.0
233,66.0,0.0,90.0,1.0,0.0
234,30.0,0.0,90.0,5.0,0.0
235,42.0,0.0,90.0,5.0,0.0
236,78.0,120.0,90.0,1.0,0.0
237,45.0,120.0,90.0,5.0,0.0
238,81.0,0.0,90.0,1.0,0.0
239,69.0,0.0,90.0,1.0,0.0
240,33.0,0.0,90.0,5.0,0.0
241,65.0,120.0,90.0,1.0,0.0
242,77.0,0.0,90.0,1.0,0.0
243,29.0,0.0,90.0,5.0,0.0
244,41.0,0.0,90.0,5.0,0.0
245,69.0,0.0,90.0,1.0,0.0
246,81.0,0.0,90.0,1.0,0.0
247,45.0,120.0,90.0,5.0,0.0
248,33.0,0.0,90.0,5.0,0.0
249,28.0,0.0,90.0,5.0,0.0
250,40.0,0.0,90.0,5.0,0.0
251,76.0,0.0,90.0,1.0,0.0
252,64.0,120.0,90.0,1.0,0.0
253,33.0,0.0,90.0,5.0,0.0
254,45.0,0.0,90.0,5.0,0.0
255,69.0,264.0,90.0,1.0,0.0
256,81.0,0.0,90.0,1.0,0.0
257,26.0,3.0,240.0,5.0,0.0
258,74.0,0.0,240.0,1.0,0.0
259,77.0,0.0,210.0,2.0,0.0
260,29.0,0.0,210.0,4.0,0.0
261,33.0,0.0,150.0,4.0,0.0
262,81.0,0.0,150.0,2.0,0.0
263,86.0,0.0,120.0,1.0,0.0
264,38.0,213.0,120.0,5.0,0.0
265,65.0,0.0,90.0,1.0,0.0
266,77.0,0.0,90.0,1.0,0.0
267,41.0,0.0,90.0,5.0,0.0
268,53.0,120.0,90.0,5.0,0.0
269,79.0,0.0,90.0,1.0,0.0
270,55.0,0.0,90.0,5.0,0.0
271,43.0,120.0,90.0,5.0,0.0
272,67.0,0.0,90.0,1.0,0.0
273,45.0,0.0,90.0,5.0,0.0
274,69.0,0.0,90.0,1.0,0.0
275,81.0,0.0,90.0,1.0,0.0
276,57.0,120.0,90.0,5.0,0.0
277,62.0,120.0,90.0,1.0,0.0
278,50.0,0.0,90.0,5.0,0.0
279,74.0,0.0,90.0,1.0,0.0
280,38.0,0.0,90.0,5.0,0.0
281,52.0,0.0,90.0,5.0,0.0
282,64.0,0.0,90.0,1.0,0.0
283,76.0,0.0,90.0,1.0,0.0
284,40.0,859.0,90.0,5.0,0.0
285,65.0,91.0,840.0,1.0,0.0
286,77.0,0.0,840.0,1.0,0.0
287,53.0,5.0,840.0,5.0,0.0
288,41.0,5.0,840.0,5.0,0.0
289,70.0,0.0,90.0,1.0,0.0
290,62.0,0.0,90.0,1.0,0.0
291,58.0,0.0,90.0,5.0,0.0
292,50.0,120.0,90.0,5.0,0.0
293,65.0,120.0,90.0,1.0,0.0
294,72.0,0.0,90.0,1.0,0.0
295,60.0,0.0,90.0,5.0,0.0
296,53.0,0.0,90.0,5.0,0.0
297,62.0,120.0,90.0,5.0,0.0
298,58.0,0.0,90.0,5.0,0.0
299,74.0,0.0,90.0,1.0,0.0
300,70.0,0.0,90.0,1.0,0.0
301,50.0,0.0,90.0,5.0,0.0
302,46.0,120.0,90.0,5.0,0.0
303,58.0,0.0,90.0,1.0,0.0
304,62.0,0.0,90.0,1.0,0.0
305,64.0,0.0,90.0,1.0,0.0
306,48.0,0.0,90.0,5.0,0.0
307,52.0,744.0,90.0,5.0,0.0
308,60.0,0.0,90.0,1.0,0.0
309,65.0,0.0,720.0,1.0,0.0
310,53.0,0.0,720.0,5.0,0.0
311,62.0,0.0,15.0,1.0,0.0
312,58.0,0.0,90.0,1.0,0.0
313,46.0,120.0,90.0,5.0,0.0
314,50.0,96.0,15.0,5.0,0.0
315,60.0,0.0,90.0,1.0,0.0
316,52.0,0.0,90.0,5.0,0.0
317,48.0,0.0,90.0,5.0,0.0
318,64.0,744.0,90.0,1.0,0.0
319,65.0,0.0,720.0,1.0,0.0
320,62.0,0.0,720.0,1.0,0.0
321,53.0,96.0,720.0,5.0,0.0
322,50.0,0.0,720.0,5.0,0.0
323,62.0,0.0,90.0,1.0,0.0
324,58.0,0.0,90.0,1.0,0.0
325,50.0,0.0,90.0,5.0,0.0
326,46.0,120.0,90.0,5.0,0.0
327,64.0,152.0,90.0,1.0,0.0
328,60.0,0.0,90.0,1.0,0.0
329,48.0,0.0,90.0,5.0,0.0
330,52.0,0.0,90.0,5.0,0.0
331,65.0,0.0,120.0,1.0,0.0
332,62.0,0.0,120.0,1.0,0.0
333,50.0,0.0,120.0,5.0,0.0
334,53.0,160.0,120.0,5.0,0.0
335,50.0,0.0,120.0,5.0,0.0
336,46.0,160.0,120.0,5.0,0.0
337,58.0,0.0,120.0,1.0,0.0
338,62.0,0.0,120.0,1.0,0.0
339,48.0,160.0,120.0,5.0,0.0
340,52.0,0.0,120.0,5.0,0.0
341,60.0,0.0,120.0,1.0,0.0
342,64.0,0.0,120.0,1.0,0.0
343,65.0,0.0,120.0,1.0,0.0
344,62.0,0.0,120.0,1.0,0.0
345,50.0,160.0,120.0,5.0,0.0
346,53.0,0.0,120.0,5.0,0.0
347,50.0,0.0,120.0,5.0,0.0
348,62.0,0.0,120.0,1.0,0.0
349,58.0,0.0,120.0,1.0,0.0
350,46.0,160.0,120.0,5.0,0.0
351,60.0,0.0,120.0,1.0,0.0
352,64.0,0.0,120.0,1.0,0.0
353,52.0,160.0,120.0,5.0,0.0
354,48.0,0.0,120.0,5.0,0.0
355,62.0,0.0,120.0,1.0,0.0
356,65.0,0.0,120.0,1.0,0.0
357,53.0,0.0,120.0,5.0,0.0
358,50.0,160.0,120.0,5.0,0.0
359,46.0,0.0,120.0,5.0,0.0
360,62.0,160.0,120.0,1.0,0.0
361,58.0,0.0,120.0,1.0,0.0
362,50.0,0.0,120.0,5.0,0.0
363,60.0,0.0,120.0,1.0,0.0
364,64.0,0.0,120.0,1.0,0.0
365,48.0,224.0,120.0,5.0,0.0
366,52.0,0.0,120.0,5.0,0.0
367,58.0,0.0,180.0,5.0,0.0
368,55.0,0.0,180.0,5.0,0.0
369,67.0,240.0,180.0,1.0,0.0
370,70.0,0.0,180.0,1.0,0.0
371,67.0,0.0,180.0,1.0,0.0
372,55.0,0.0,180.0,5.0,0.0
373,64.0,240.0,180.0,1.0,0.0
374,52.0,0.0,180.0,5.0,0.0
375,52.0,0.0,180.0,5.0,0.0
376,60.0,0.0,180.0,1.0,0.0
377,64.0,0.0,180.0,1.0,0.0
378,48.0,240.0,180.0,5.0,0.0
379,46.0,240.0,180.0,5.0,0.0
380,58.0,0.0,180.0,1.0,0.0
381,62.0,0.0,180.0,1.0,0.0
382,50.0,0.0,180.0,5.0,0.0
383,46.0,0.0,180.0,5.0,0.0
384,43.0,0.0,180.0,5.0,0.0
385,58.0,0.0,180.0,1.0,0.0
386,55.0,240.0,180.0,1.0,0.0
387,55.0,0.0,180.0,1.0,0.0
388,52.0,240.0,180.0,1.0,0.0
389,43.0,0.0,180.0,5.0,0.0
390,40.0,0.0,180.0,5.0,0.0
391,48.0,0.0,180.0,1.0,0.0
392,52.0,0.0,180.0,1.0,0.0
393,36.0,0.0,180.0,5.0,0.0
394,40.0,720.0,180.0,5.0,0.0
395,38.0,0.0,180.0,5.0,0.0
396,34.0,0.0,180.0,5.0,0.0
397,46.0,1908.0,180.0,1.0,0.0
398,50.0,0.0,180.0,1.0,0.0
399,45.0,0.0,1380.0,1.0,0.0
400,49.0,0.0,1380.0,1.0,0.0
401,37.0,3.0,1380.0,5.0,0.0
402,33.0,537.0,1380.0,5.0,0.0
403,26.0,480.0,480.0,5.0,0.0
404,29.0,320.0,480.0,5.0,0.0
405,32.0,160.0,330.0,5.0,0.0
406,33.0,480.0,150.0,5.0,0.0
407,45.0,0.0,480.0,2.0,0.0
408,49.0,0.0,480.0,2.0,0.0
409,52.0,480.0,480.0,1.0,0.0
410,33.0,480.0,1440.0,5.0,0.0
411,49.0,320.0,480.0,2.0,0.0
412,57.0,0.0,480.0,1.0,0.0
413,61.0,160.0,330.0,1.0,0.0
414,52.0,0.0,15.0,2.0,0.0
415,58.0,0.0,330.0,2.0,0.0
416,55.0,0.0,330.0,2.0,0.0
417,62.0,0.0,150.0,1.0,0.0
418,57.0,0.0,150.0,2.0,0.0
419,53.0,0.0,150.0,2.0,0.0
420,57.0,0.0,960.0,2.0,0.0
421,53.0,325.0,960.0,2.0,0.0
422,62.0,0.0,960.0,1.0,0.0
423,26.0,480.0,480.0,5.0,0.0
424,29.0,0.0,480.0,5.0,0.0
425,32.0,155.0,330.0,5.0,0.0
426,33.0,480.0,150.0,5.0,0.0
427,55.0,0.0,480.0,2.0,0.0
428,49.0,0.0,480.0,2.0,0.0
429,33.0,480.0,1440.0,5.0,0.0
430,58.0,480.0,480.0,1.0,0.0
431,53.0,0.0,15.0,2.0,0.0
432,58.0,0.0,480.0,2.0,0.0
433,61.0,0.0,480.0,1.0,0.0
434,64.0,160.0,330.0,1.0,0.0
435,61.0,0.0,330.0,2.0,0.0
436,58.0,0.0,330.0,2.0,0.0
437,55.0,0.0,330.0,2.0,0.0
438,65.0,0.0,15.0,1.0,0.0
439,53.0,0.0,15.0,2.0,0.0
440,57.0,0.0,15.0,2.0,0.0
441,62.0,0.0,15.0,2.0,0.0
442,26.0,480.0,480.0,5.0,0.0
443,29.0,325.0,480.0,5.0,0.0
444,33.0,155.0,330.0,5.0,0.0
445,34.0,480.0,150.0,5.0,0.0
446,49.0,480.0,480.0,2.0,0.0
447,53.0,0.0,480.0,1.0,0.0
448,61.0,320.0,480.0,1.0,0.0
449,53.0,0.0,480.0,2.0,0.0
450,65.0,155.0,330.0,1.0,0.0
451,58.0,0.0,15.0,2.0,0.0
452,61.0,0.0,480.0,2.0,0.0
453,67.0,0.0,15.0,1.0,0.0
454,58.0,0.0,960.0,2.0,0.0
455,34.0,480.0,15.0,5.0,0.0
456,63.0,0.0,15.0,2.0,0.0
457,22.0,0.0,480.0,4.0,0.0
458,61.0,0.0,960.0,2.0,0.0
459,25.0,0.0,480.0,4.0,0.0
460,37.0,0.0,480.0,5.0,0.0
461,28.0,0.0,330.0,4.0,0.0
462,40.0,160.0,330.0,5.0,0.0
463,34.0,240.0,150.0,4.0,0.0
464,46.0,0.0,150.0,5.0,0.0
465,46.0,0.0,1440.0,5.0,0.0
466,34.0,240.0,1440.0,4.0,0.0
467,65.0,0.0,240.0,1.0,0.0
468,72.0,3.0,210.0,2.0,0.0
469,77.0,195.0,150.0,1.0,0.0
470,58.0,0.0,90.0,2.0,0.0
471,60.0,120.0,90.0,2.0,0.0
472,65.0,0.0,90.0,1.0,0.0
473,60.0,0.0,90.0,2.0,0.0
474,58.0,0.0,90.0,2.0,0.0
475,70.0,120.0,90.0,1.0,0.0
476,58.0,120.0,90.0,2.0,0.0
477,60.0,0.0,90.0,2.0,0.0
478,72.0,0.0,90.0,1.0,0.0
479,60.0,120.0,90.0,2.0,0.0
480,58.0,0.0,90.0,2.0,0.0
481,64.0,0.0,90.0,1.0,0.0
482,60.0,522.0,90.0,2.0,0.0
483,58.0,0.0,90.0,2.0,0.0
484,58.0,0.0,480.0,2.0,0.0
485,60.0,0.0,480.0,2.0,0.0
486,65.0,0.0,480.0,1.0,0.0
487,33.0,0.0,480.0,5.0,0.0
488,21.0,480.0,480.0,4.0,0.0
489,57.0,3.0,240.0,2.0,0.0
490,65.0,0.0,210.0,1.0,0.0
491,72.0,237.0,150.0,1.0,0.0
492,36.0,315.0,480.0,5.0,0.0
493,24.0,0.0,480.0,4.0,0.0
494,41.0,7.0,300.0,5.0,0.0
495,29.0,158.0,330.0,4.0,0.0
496,33.0,240.0,150.0,4.0,0.0
497,45.0,0.0,150.0,5.0,0.0
498,65.0,3.0,240.0,1.0,0.0
499,45.0,240.0,1440.0,5.0,0.0
500,33.0,0.0,1440.0,4.0,0.0
501,73.0,195.0,210.0,2.0,0.0
502,77.0,0.0,150.0,1.0,0.0
503,65.0,0.0,90.0,1.0,0.0
504,57.0,0.0,90.0,2.0,0.0
505,61.0,120.0,90.0,2.0,0.0
506,69.0,0.0,90.0,1.0,0.0
507,61.0,120.0,90.0,2.0,0.0
508,57.0,0.0,90.0,2.0,0.0
509,61.0,0.0,90.0,2.0,0.0
510,57.0,0.0,90.0,2.0,0.0
511,73.0,120.0,90.0,1.0,0.0
512,61.0,0.0,90.0,1.0,0.0
513,57.0,120.0,90.0,2.0,0.0
514,65.0,0.0,90.0,1.0,0.0
515,57.0,0.0,90.0,2.0,0.0
516,61.0,522.0,90.0,2.0,0.0
517,60.0,0.0,480.0,2.0,0.0
518,69.0,0.0,480.0,1.0,0.0
519,57.0,0.0,480.0,2.0,0.0
520,21.0,480.0,480.0,4.0,0.0
521,62.0,3.0,240.0,1.0,0.0
522,33.0,0.0,480.0,5.0,0.0
523,65.0,0.0,210.0,2.0,0.0
524,74.0,237.0,150.0,1.0,0.0
525,36.0,0.0,480.0,5.0,0.0
526,24.0,315.0,480.0,4.0,0.0
527,41.0,7.0,300.0,5.0,0.0
528,29.0,158.0,330.0,4.0,0.0
529,33.0,240.0,150.0,4.0,0.0
530,45.0,0.0,150.0,5.0,0.0
531,33.0,0.0,1440.0,4.0,0.0
532,45.0,0.0,1440.0,5.0,0.0
533,70.0,0.0,240.0,1.0,0.0
534,74.0,0.0,210.0,2.0,0.0
535,77.0,3.0,210.0,2.0,0.0
536,82.0,195.0,150.0,1.0,0.0
537,62.0,120.0,90.0,2.0,0.0
538,58.0,0.0,90.0,2.0,0.0
539,57.0,0.0,90.0,2.0,0.0
540,70.0,0.0,90.0,1.0,0.0
541,58.0,0.0,90.0,2.0,0.0
542,62.0,120.0,90.0,2.0,0.0
543,74.0,0.0,90.0,1.0,0.0
544,57.0,0.0,90.0,2.0,0.0
545,57.0,0.0,90.0,2.0,0.0
546,58.0,120.0,90.0,2.0,0.0
547,77.0,0.0,90.0,1.0,0.0
548,62.0,0.0,90.0,2.0,0.0
549,62.0,120.0,90.0,2.0,0.0
550,58.0,0.0,90.0,2.0,0.0
551,65.0,0.0,90.0,1.0,0.0
552,57.0,0.0,90.0,2.0,0.0
553,57.0,0.0,90.0,2.0,0.0
554,70.0,0.0,90.0,1.0,0.0
555,62.0,0.0,90.0,2.0,0.0
556,58.0,522.0,90.0,2.0,0.0
557,62.0,240.0,480.0,2.0,0.0
558,58.0,0.0,480.0,2.0,0.0
559,57.0,0.0,480.0,2.0,0.0
560,74.0,0.0,480.0,1.0,0.0
561,71.0,3.0,240.0,1.0,0.0
562,32.0,78.0,480.0,5.0,0.0
563,77.0,0.0,210.0,2.0,0.0
564,74.0,0.0,210.0,2.0,0.0
565,83.0,195.0,150.0,1.0,0.0
566,71.0,42.0,90.0,1.0,0.0
567,38.0,240.0,480.0,5.0,0.0
568,77.0,120.0,90.0,1.0,0.0
569,80.0,120.0,90.0,1.0,0.0
570,68.0,120.0,90.0,1.0,0.0
571,71.0,42.0,90.0,1.0,0.0
572,74.0,82.0,240.0,1.0,0.0
573,41.0,158.0,330.0,5.0,0.0
574,44.0,240.0,150.0,5.0,0.0
575,74.0,3.0,240.0,1.0,0.0
576,29.0,96.0,480.0,5.0,0.0
577,83.0,213.0,210.0,2.0,0.0
578,80.0,0.0,210.0,2.0,0.0
579,86.0,0.0,150.0,1.0,0.0
580,71.0,24.0,90.0,1.0,0.0
581,77.0,120.0,90.0,1.0,0.0
582,35.0,96.0,480.0,5.0,0.0
583,80.0,120.0,90.0,1.0,0.0
584,68.0,120.0,90.0,1.0,0.0
585,71.0,24.0,90.0,1.0,0.0
586,74.0,120.0,90.0,1.0,0.0
587,38.0,14.0,330.0,5.0,0.0
588,77.0,106.0,90.0,1.0,0.0
589,80.0,120.0,90.0,1.0,0.0
590,41.0,96.0,150.0,5.0,0.0
591,83.0,24.0,90.0,1.0,0.0
592,28.0,96.0,480.0,5.0,0.0
593,89.0,120.0,90.0,1.0,0.0
594,86.0,120.0,90.0,1.0,0.0
595,83.0,120.0,90.0,1.0,0.0
596,80.0,24.0,90.0,1.0,0.0
597,77.0,120.0,90.0,1.0,0.0
598,35.0,96.0,480.0,5.0,0.0
599,74.0,120.0,90.0,1.0,0.0
600,71.0,120.0,90.0,1.0,0.0
601,68.0,24.0,90.0,1.0,0.0
602,65.0,120.0,90.0,1.0,0.0
603,39.0,6.0,330.0,5.0,0.0
604,68.0,114.0,90.0,1.0,0.0
605,71.0,120.0,90.0,1.0,0.0
606,40.0,96.0,150.0,5.0,0.0
607,77.0,24.0,90.0,1.0,0.0
608,89.0,120.0,90.0,1.0,0.0
609,28.0,96.0,480.0,5.0,0.0
610,86.0,120.0,90.0,1.0,0.0
611,83.0,120.0,90.0,1.0,0.0
612,80.0,24.0,90.0,1.0,0.0
613,77.0,120.0,90.0,1.0,0.0
614,35.0,96.0,480.0,5.0,0.0
615,74.0,120.0,90.0,1.0,0.0
616,71.0,120.0,90.0,1.0,0.0
617,68.0,24.0,90.0,1.0,0.0
618,65.0,120.0,90.0,1.0,0.0
619,39.0,14.0,330.0,5.0,0.0
620,68.0,106.0,90.0,1.0,0.0
621,71.0,120.0,90.0,1.0,0.0
622,40.0,96.0,150.0,5.0,0.0
623,77.0,24.0,90.0,1.0,0.0
624,28.0,96.0,480.0,5.0,0.0
625,87.0,120.0,90.0,1.0,0.0
626,84.0,120.0,90.0,1.0,0.0
627,81.0,120.0,90.0,1.0,0.0
628,78.0,24.0,90.0,1.0,0.0
629,75.0,120.0,90.0,1.0,0.0
630,33.0,96.0,480.0,5.0,0.0
631,72.0,120.0,90.0,1.0,0.0
632,69.0,120.0,90.0,1.0,0.0
633,66.0,24.0,90.0,1.0,0.0
634,63.0,120.0,90.0,1.0,0.0
635,39.0,14.0,330.0,5.0,0.0
636,66.0,106.0,90.0,1.0,0.0
637,69.0,120.0,90.0,1.0,0.0
638,40.0,96.0,150.0,5.0,0.0
639,72.0,24.0,90.0,1.0,0.0
640,87.0,120.0,90.0,1.0,0.0
641,28.0,96.0,480.0,5.0,0.0
642,84.0,120.0,90.0,1.0,0.0
643,81.0,120.0,90.0,1.0,0.0
644,78.0,24.0,90.0,1.0,0.0
645,33.0,96.0,480.0,5.0,0.0
646,75.0,120.0,90.0,1.0,0.0
647,72.0,120.0,90.0,1.0,0.0
648,69.0,120.0,90.0,1.0,0.0
649,66.0,24.0,90.0,1.0,0.0
650,39.0,14.0,330.0,5.0,0.0
651,63.0,120.0,90.0,1.0,0.0
652,66.0,106.0,90.0,1.0,0.0
653,69.0,120.0,90.0,1.0,0.0
654,40.0,96.0,150.0,5.0,0.0
655,72.0,24.0,90.0,1.0,0.0
656,28.0,96.0,480.0,5.0,0.0
657,86.0,120.0,90.0,1.0,0.0
658,83.0,120.0,90.0,1.0,0.0
659,80.0,120.0,90.0,1.0,0.0
660,77.0,24.0,90.0,1.0,0.0
661,35.0,96.0,480.0,5.0,0.0
662,74.0,120.0,90.0,1.0,0.0
663,71.0,120.0,90.0,1.0,0.0
664,68.0,120.0,90.0,1.0,0.0
665,65.0,24.0,90.0,1.0,0.0
666,62.0,120.0,90.0,1.0,0.0
667,39.0,14.0,330.0,5.0,0.0
668,59.0,106.0,90.0,1.0,0.0
669,56.0,120.0,90.0,1.0,0.0
670,40.0,96.0,150.0,5.0,0.0
671,53.0,24.0,90.0,1.0,0.0
672,62.0,120.0,90.0,1.0,0.0
673,28.0,96.0,480.0,5.0,0.0
674,59.0,120.0,90.0,1.0,0.0
675,56.0,120.0,90.0,1.0,0.0
676,53.0,24.0,90.0,1.0,0.0
677,35.0,322.0,480.0,5.0,0.0
678,50.0,120.0,90.0,1.0,0.0
679,47.0,120.0,90.0,1.0,0.0
680,44.0,120.0,90.0,1.0,0.0
681,41.0,24.0,90.0,1.0,0.0
682,39.0,158.0,330.0,5.0,0.0
683,40.0,96.0,150.0,5.0,0.0
684,28.0,960.0,480.0,5.0,0.0
685,50.0,120.0,90.0,1.0,0.0
686,47.0,120.0,90.0,1.0,0.0
687,44.0,120.0,90.0,1.0,0.0
688,41.0,24.0,90.0,1.0,0.0
689,32.0,96.0,960.0,5.0,0.0
690,28.0,960.0,480.0,5.0,0.0
691,50.0,120.0,90.0,1.0,0.0
692,47.0,120.0,90.0,1.0,0.0
693,44.0,120.0,90.0,1.0,0.0
694,41.0,24.0,90.0,1.0,0.0
695,32.0,480.0,960.0,5.0,0.0
696,28.0,1440.0,480.0,5.0,0.0
697,28.0,1064.0,480.0,5.0,0.0
698,33.0,160.0,90.0,5.0,0.0
699,45.0,0.0,90.0,5.0,0.0
700,48.0,160.0,90.0,5.0,0.0
701,36.0,0.0,90.0,5.0,0.0
702,51.0,160.0,90.0,5.0,0.0
703,39.0,0.0,90.0,5.0,0.0
704,40.0,160.0,90.0,5.0,0.0
705,52.0,0.0,90.0,5.0,0.0
706,33.0,160.0,90.0,5.0,0.0
707,45.0,0.0,90.0,5.0,0.0
708,48.0,160.0,90.0,5.0,0.0
709,36.0,0.0,90.0,5.0,0.0
710,51.0,160.0,90.0,5.0,0.0
711,39.0,0.0,90.0,5.0,0.0
712,52.0,160.0,90.0,5.0,0.0
713,40.0,0.0,90.0,5.0,0.0
714,69.0,0.0,90.0,1.0,0.0
715,33.0,0.0,90.0,5.0,0.0
716,45.0,0.0,90.0,5.0,0.0
717,57.0,160.0,90.0,1.0,0.0
718,72.0,0.0,90.0,1.0,0.0
719,48.0,160.0,90.0,5.0,0.0
720,36.0,0.0,90.0,5.0,0.0
721,60.0,0.0,90.0,1.0,0.0
722,63.0,160.0,90.0,1.0,0.0
723,75.0,0.0,90.0,1.0,0.0
724,51.0,0.0,90.0,5.0,0.0
725,39.0,0.0,90.0,5.0,0.0
726,64.0,0.0,90.0,1.0,0.0
727,40.0,861.0,90.0,5.0,0.0
728,52.0,0.0,90.0,5.0,0.0
729,76.0,0.0,90.0,1.0,0.0
730,69.0,0.0,810.0,1.0,0.0
731,81.0,155.0,810.0,1.0,0.0
732,57.0,3.0,2070.0,5.0,0.0
733,45.0,0.0,2070.0,5.0,0.0
734,79.0,320.0,150.0,1.0,0.0
735,67.0,0.0,150.0,1.0,0.0
736,36.0,155.0,1140.0,5.0,0.0
737,24.0,0.0,1110.0,5.0,0.0
738,67.0,160.0,330.0,1.0,0.0
739,79.0,0.0,330.0,1.0,0.0
740,60.0,0.0,15.0,3.0,0.0
741,57.0,0.0,15.0,3.0,0.0
742,77.0,0.0,15.0,1.0,0.0
743,65.0,160.0,15.0,1.0,0.0
744,57.0,0.0,150.0,3.0,0.0
745,60.0,160.0,15.0,3.0,0.0
746,57.0,5.0,150.0,3.0,0.0
747,60.0,157.0,150.0,3.0,0.0
748,64.0,0.0,150.0,1.0,0.0
749,76.0,0.0,150.0,1.0,0.0
750,76.0,160.0,330.0,1.0,0.0
751,57.0,0.0,15.0,3.0,0.0
752,64.0,0.0,330.0,1.0,0.0
753,60.0,5.0,150.0,3.0,0.0
754,74.0,0.0,150.0,1.0,0.0
755,71.0,160.0,90.0,2.0,0.0
756,62.0,104.0,15.0,1.0,0.0
757,35.0,0.0,90.0,5.0,0.0
758,47.0,0.0,90.0,5.0,0.0
759,74.0,0.0,90.0,1.0,0.0
760,69.0,0.0,90.0,2.0,0.0
761,69.0,160.0,90.0,2.0,0.0
762,50.0,0.0,90.0,5.0,0.0
763,74.0,0.0,90.0,1.0,0.0
764,62.0,0.0,90.0,1.0,0.0
765,38.0,0.0,90.0,5.0,0.0
766,71.0,0.0,90.0,2.0,0.0
767,62.0,0.0,90.0,1.0,0.0
768,74.0,160.0,90.0,1.0,0.0
769,40.0,0.0,90.0,5.0,0.0
770,52.0,0.0,90.0,5.0,0.0
771,69.0,0.0,90.0,2.0,0.0
772,71.0,0.0,90.0,2.0,0.0
773,71.0,160.0,90.0,2.0,0.0
774,69.0,0.0,90.0,2.0,0.0
775,62.0,0.0,90.0,1.0,0.0
776,74.0,0.0,90.0,1.0,0.0
777,53.0,0.0,90.0,5.0,0.0
778,41.0,0.0,90.0,5.0,0.0
779,74.0,160.0,90.0,1.0,0.0
780,71.0,0.0,90.0,2.0,0.0
781,69.0,0.0,90.0,2.0,0.0
782,62.0,0.0,90.0,1.0,0.0
783,35.0,0.0,90.0,5.0,0.0
784,47.0,0.0,90.0,5.0,0.0
785,38.0,0.0,90.0,5.0,0.0
786,50.0,0.0,90.0,5.0,0.0
787,71.0,0.0,90.0,2.0,0.0
788,69.0,0.0,90.0,2.0,0.0
789,74.0,160.0,90.0,1.0,0.0
790,62.0,0.0,90.0,1.0,0.0
791,52.0,0.0,90.0,5.0,0.0
792,40.0,0.0,90.0,5.0,0.0
793,71.0,0.0,90.0,2.0,0.0
794,62.0,160.0,90.0,1.0,0.0
795,74.0,0.0,90.0,1.0,0.0
796,69.0,0.0,90.0,2.0,0.0
797,62.0,0.0,90.0,1.0,0.0
798,74.0,0.0,90.0,1.0,0.0
799,69.0,0.0,90.0,2.0,0.0
800,71.0,160.0,90.0,2.0,0.0
801,53.0,0.0,90.0,5.0,0.0
802,41.0,0.0,90.0,5.0,0.0
803,35.0,0.0,90.0,5.0,0.0
804,74.0,0.0,90.0,1.0,0.0
805,62.0,0.0,90.0,1.0,0.0
806,69.0,160.0,90.0,2.0,0.0
807,71.0,0.0,90.0,2.0,0.0
808,47.0,0.0,90.0,5.0,0.0
809,38.0,0.0,90.0,5.0,0.0
810,74.0,0.0,90.0,1.0,0.0
811,62.0,160.0,90.0,1.0,0.0
812,69.0,0.0,90.0,2.0,0.0
813,50.0,0.0,90.0,5.0,0.0
814,71.0,0.0,90.0,2.0,0.0
815,40.0,0.0,90.0,5.0,0.0
816,52.0,0.0,90.0,5.0,0.0
817,76.0,160.0,90.0,1.0,0.0
818,64.0,0.0,90.0,1.0,0.0
819,77.0,0.0,90.0,1.0,0.0
820,41.0,856.0,90.0,5.0,0.0
821,53.0,0.0,90.0,5.0,0.0
822,65.0,0.0,90.0,1.0,0.0
823,71.0,5.0,810.0,1.0,0.0
824,83.0,145.0,810.0,1.0,0.0
825,47.0,3.0,2070.0,5.0,0.0
826,59.0,0.0,2070.0,5.0,0.0
827,69.0,325.0,150.0,1.0,0.0
828,81.0,5.0,150.0,1.0,0.0
829,81.0,0.0,330.0,1.0,0.0
830,28.0,7.0,1110.0,5.0,0.0
831,40.0,0.0,1110.0,5.0,0.0
832,69.0,160.0,330.0,1.0,0.0
833,62.0,0.0,150.0,3.0,0.0
834,59.0,0.0,15.0,3.0,0.0
835,80.0,0.0,15.0,1.0,0.0
836,68.0,0.0,15.0,1.0,0.0
837,62.0,160.0,15.0,3.0,0.0
838,59.0,0.0,15.0,3.0,0.0
839,62.0,0.0,150.0,3.0,0.0
840,65.0,0.0,150.0,1.0,0.0
841,77.0,150.0,150.0,1.0,0.0
842,59.0,160.0,15.0,3.0,0.0
843,62.0,0.0,15.0,3.0,0.0
844,59.0,0.0,15.0,3.0,0.0
845,64.0,0.0,330.0,1.0,0.0
846,76.0,160.0,330.0,1.0,0.0
847,62.0,0.0,150.0,1.0,0.0
848,74.0,104.0,150.0,1.0,0.0
849,64.0,160.0,90.0,2.0,0.0
850,72.0,0.0,90.0,1.0,0.0
851,45.0,0.0,90.0,5.0,0.0
852,33.0,0.0,90.0,5.0,0.0
853,69.0,0.0,90.0,2.0,0.0
854,60.0,0.0,90.0,1.0,0.0
855,60.0,160.0,90.0,1.0,0.0
856,64.0,0.0,90.0,2.0,0.0
857,72.0,0.0,90.0,1.0,0.0
858,36.0,0.0,90.0,5.0,0.0
859,48.0,0.0,90.0,5.0,0.0
860,69.0,0.0,90.0,2.0,0.0
861,60.0,0.0,90.0,1.0,0.0
862,39.0,0.0,90.0,5.0,0.0
863,64.0,0.0,90.0,2.0,0.0
864,69.0,160.0,90.0,2.0,0.0
865,51.0,0.0,90.0,5.0,0.0
866,72.0,0.0,90.0,1.0,0.0
867,72.0,0.0,90.0,1.0,0.0
868,60.0,160.0,90.0,1.0,0.0
869,69.0,0.0,90.0,2.0,0.0
870,52.0,0.0,90.0,5.0,0.0
871,40.0,0.0,90.0,5.0,0.0
872,64.0,0.0,90.0,2.0,0.0
873,69.0,0.0,90.0,2.0,0.0
874,64.0,0.0,90.0,2.0,0.0
875,33.0,160.0,90.0,5.0,0.0
876,72.0,0.0,90.0,1.0,0.0
877,60.0,0.0,90.0,1.0,0.0
878,45.0,0.0,90.0,5.0,0.0
879,69.0,0.0,90.0,2.0,0.0
880,36.0,0.0,90.0,5.0,0.0
881,48.0,0.0,90.0,5.0,0.0
882,72.0,160.0,90.0,1.0,0.0
883,64.0,0.0,90.0,2.0,0.0
884,60.0,0.0,90.0,1.0,0.0
885,72.0,0.0,90.0,1.0,0.0
886,60.0,0.0,90.0,1.0,0.0
887,64.0,0.0,90.0,2.0,0.0
888,39.0,0.0,90.0,5.0,0.0
889,51.0,160.0,90.0,5.0,0.0
890,69.0,0.0,90.0,2.0,0.0
891,64.0,0.0,90.0,2.0,0.0
892,69.0,0.0,90.0,2.0,0.0
893,72.0,0.0,90.0,1.0,0.0
894,52.0,160.0,90.0,5.0,0.0
895,40.0,0.0,90.0,5.0,0.0
896,60.0,0.0,90.0,1.0,0.0
897,33.0,0.0,90.0,5.0,0.0
898,45.0,0.0,90.0,5.0,0.0
899,64.0,0.0,90.0,2.0,0.0
900,69.0,160.0,90.0,2.0,0.0
901,72.0,0.0,90.0,1.0,0.0
902,60.0,0.0,90.0,1.0,0.0
903,64.0,0.0,90.0,2.0,0.0
904,72.0,0.0,90.0,1.0,0.0
905,60.0,0.0,90.0,1.0,0.0
906,69.0,0.0,90.0,2.0,0.0
907,48.0,0.0,90.0,5.0,0.0
908,36.0,160.0,90.0,5.0,0.0
909,75.0,0.0,90.0,1.0,0.0
910,51.0,160.0,90.0,5.0,0.0
911,39.0,0.0,90.0,5.0,0.0
912,63.0,0.0,90.0,1.0,0.0
913,64.0,0.0,90.0,1.0,0.0
914,76.0,0.0,90.0,1.0,0.0
915,52.0,0.0,90.0,5.0,0.0
916,40.0,843.0,90.0,5.0,0.0
917,76.0,8.0,780.0,1.0,0.0
918,52.0,3.0,2070.0,5.0,0.0
919,64.0,0.0,2070.0,5.0,0.0
920,88.0,157.0,780.0,1.0,0.0
921,76.0,8.0,150.0,1.0,0.0
922,88.0,320.0,15.0,1.0,0.0
923,35.0,0.0,1140.0,5.0,0.0
924,23.0,145.0,1140.0,5.0,0.0
925,76.0,0.0,330.0,1.0,0.0
926,54.0,0.0,150.0,3.0,0.0
927,63.0,0.0,150.0,3.0,0.0
928,57.0,0.0,150.0,3.0,0.0
929,75.0,0.0,150.0,1.0,0.0
930,87.0,0.0,150.0,1.0,0.0
931,57.0,160.0,150.0,3.0,0.0
932,54.0,0.0,150.0,3.0,0.0
933,63.0,0.0,15.0,3.0,0.0
934,57.0,160.0,150.0,3.0,0.0
935,54.0,0.0,150.0,3.0,0.0
936,87.0,0.0,330.0,1.0,0.0
937,75.0,0.0,330.0,1.0,0.0
938,54.0,160.0,150.0,3.0,0.0
939,57.0,0.0,150.0,3.0,0.0
940,63.0,0.0,150.0,3.0,0.0
941,84.0,0.0,150.0,1.0,0.0
942,72.0,0.0,150.0,1.0,0.0
943,54.0,0.0,150.0,3.0,0.0
944,71.0,165.0,300.0,1.0,0.0
945,63.0,157.0,15.0,3.0,0.0
946,83.0,5.0,300.0,1.0,0.0
947,57.0,0.0,15.0,3.0,0.0
948,54.0,0.0,150.0,3.0,0.0
949,81.0,0.0,150.0,1.0,0.0
950,69.0,104.0,150.0,1.0,0.0
951,40.0,0.0,90.0,5.0,0.0
952,52.0,0.0,90.0,5.0,0.0
953,80.0,0.0,90.0,1.0,0.0
954,68.0,0.0,90.0,1.0,0.0
955,71.0,160.0,90.0,2.0,0.0
956,76.0,0.0,90.0,2.0,0.0
957,44.0,0.0,90.0,5.0,0.0
958,76.0,0.0,90.0,2.0,0.0
959,71.0,0.0,90.0,2.0,0.0
960,56.0,160.0,90.0,5.0,0.0
961,80.0,0.0,90.0,1.0,0.0
962,68.0,0.0,90.0,1.0,0.0
963,76.0,0.0,90.0,2.0,0.0
964,71.0,160.0,90.0,2.0,0.0
965,80.0,0.0,90.0,1.0,0.0
966,58.0,0.0,90.0,5.0,0.0
967,68.0,0.0,90.0,1.0,0.0
968,46.0,0.0,90.0,5.0,0.0
969,59.0,160.0,90.0,5.0,0.0
970,47.0,0.0,90.0,5.0,0.0
971,68.0,0.0,90.0,1.0,0.0
972,80.0,0.0,90.0,1.0,0.0
973,76.0,0.0,90.0,2.0,0.0
974,71.0,0.0,90.0,2.0,0.0
975,71.0,0.0,90.0,2.0,0.0
976,80.0,160.0,90.0,1.0,0.0
977,40.0,0.0,90.0,5.0,0.0
978,52.0,0.0,90.0,5.0,0.0
979,68.0,0.0,90.0,1.0,0.0
980,76.0,0.0,90.0,2.0,0.0
981,44.0,160.0,90.0,5.0,0.0
982,56.0,0.0,90.0,5.0,0.0
983,68.0,0.0,90.0,1.0,0.0
984,76.0,0.0,90.0,2.0,0.0
985,71.0,0.0,90.0,2.0,0.0
986,80.0,0.0,90.0,1.0,0.0
987,76.0,160.0,90.0,2.0,0.0
988,71.0,0.0,90.0,2.0,0.0
989,68.0,0.0,90.0,1.0,0.0
990,46.0,0.0,90.0,5.0,0.0
991,58.0,0.0,90.0,5.0,0.0
992,80.0,0.0,90.0,1.0,0.0
993,80.0,0.0,90.0,1.0,0.0
994,71.0,0.0,90.0,2.0,0.0
995,68.0,0.0,90.0,1.0,0.0
996,76.0,160.0,90.0,2.0,0.0
997,59.0,0.0,90.0,5.0,0.0
998,47.0,0.0,90.0,5.0,0.0
999,40.0,160.0,90.0,5.0,0.0
1000,68.0,0.0,90.0,1.0,0.0
1001,80.0,0.0,90.0,1.0,0.0
1002,76.0,0.0,90.0,2.0,0.0
1003,71.0,0.0,90.0,2.0,0.0
1004,52.0,0.0,90.0,5.0,0.0
1005,44.0,0.0,90.0,5.0,0.0
1006,56.0,0.0,90.0,5.0,0.0
1007,71.0,0.0,90.0,2.0,0.0
1008,76.0,0.0,90.0,2.0,0.0
1009,80.0,160.0,90.0,1.0,0.0
1010,68.0,0.0,90.0,1.0,0.0
1011,46.0,0.0,90.0,5.0,0.0
1012,58.0,0.0,90.0,5.0,0.0
1013,70.0,0.0,90.0,1.0,0.0
1014,82.0,160.0,90.0,1.0,0.0
1015,71.0,0.0,90.0,1.0,0.0
1016,47.0,0.0,90.0,5.0,0.0
1017,59.0,846.0,90.0,5.0,0.0
1018,83.0,0.0,90.0,1.0,0.0
1019,79.0,5.0,780.0,1.0,0.0
1020,67.0,0.0,1920.0,5.0,0.0
1021,55.0,5.0,2070.0,5.0,0.0
1022,91.0,150.0,780.0,1.0,0.0
1023,91.0,10.0,150.0,1.0,0.0
1024,79.0,325.0,150.0,1.0,0.0
1025,24.0,10.0,1260.0,5.0,0.0
1026,91.0,0.0,810.0,1.0,0.0
1027,79.0,160.0,810.0,1.0,0.0
1028,84.0,0.0,810.0,2.0,0.0
1029,36.0,155.0,1290.0,5.0,0.0
1030,55.0,160.0,150.0,3.0,0.0
1031,52.0,0.0,150.0,3.0,0.0
1032,48.0,0.0,150.0,3.0,0.0
1033,52.0,160.0,15.0,3.0,0.0
1034,55.0,0.0,15.0,3.0,0.0
1035,48.0,0.0,15.0,3.0,0.0
1036,55.0,160.0,15.0,3.0,0.0
1037,48.0,0.0,150.0,3.0,0.0
1038,52.0,0.0,150.0,3.0,0.0
1039,48.0,0.0,150.0,3.0,0.0
1040,52.0,0.0,150.0,3.0,0.0
1041,88.0,0.0,150.0,1.0,0.0
1042,76.0,0.0,150.0,1.0,0.0
1043,74.0,5.0,330.0,1.0,0.0
1044,86.0,0.0,330.0,1.0,0.0
1045,48.0,150.0,150.0,3.0,0.0
1046,55.0,155.0,15.0,3.0,0.0
1047,52.0,0.0,150.0,3.0,0.0
1048,48.0,0.0,150.0,3.0,0.0
1049,52.0,0.0,150.0,3.0,0.0
1050,55.0,0.0,150.0,3.0,0.0
1051,55.0,0.0,150.0,3.0,0.0
1052,52.0,0.0,150.0,3.0,0.0
1053,72.0,0.0,150.0,1.0,0.0
1054,48.0,0.0,150.0,3.0,0.0
1055,84.0,160.0,15.0,1.0,0.0
1056,77.0,0.0,960.0,2.0,0.0
1057,80.0,0.0,960.0,2.0,0.0
1058,56.0,0.0,1110.0,2.0,0.0
1059,48.0,0.0,150.0,3.0,0.0
1060,72.0,0.0,480.0,1.0,0.0
1061,50.0,0.0,15.0,3.0,0.0
1062,53.0,160.0,15.0,3.0,0.0
1063,53.0,160.0,15.0,3.0,0.0
1064,50.0,0.0,15.0,3.0,0.0
1065,48.0,0.0,15.0,3.0,0.0
1066,83.0,0.0,480.0,1.0,0.0
1067,71.0,160.0,480.0,1.0,0.0
1068,48.0,160.0,150.0,3.0,0.0
1069,50.0,0.0,150.0,3.0,0.0
1070,53.0,160.0,15.0,3.0,0.0
1071,50.0,0.0,15.0,3.0,0.0
1072,48.0,160.0,15.0,3.0,0.0
1073,53.0,0.0,15.0,3.0,0.0
1074,48.0,0.0,15.0,3.0,0.0
1075,53.0,0.0,15.0,3.0,0.0
1076,50.0,320.0,150.0,3.0,0.0
1077,86.0,0.0,150.0,1.0,0.0
1078,74.0,320.0,150.0,1.0,0.0
1079,84.0,160.0,810.0,2.0,0.0
1080,79.0,0.0,810.0,1.0,0.0
1081,91.0,0.0,810.0,1.0,0.0
1082,36.0,20.0,1260.0,5.0,0.0
1083,24.0,0.0,1260.0,5.0,0.0
1084,48.0,0.0,150.0,3.0,0.0
1085,52.0,160.0,150.0,3.0,0.0
1086,55.0,0.0,15.0,3.0,0.0
1087,52.0,160.0,150.0,3.0,0.0
1088,48.0,0.0,150.0,3.0,0.0
1089,52.0,0.0,150.0,3.0,0.0
1090,55.0,0.0,150.0,3.0,0.0
1091,48.0,160.0,150.0,3.0,0.0
1092,55.0,0.0,15.0,3.0,0.0
1093,48.0,0.0,15.0,3.0,0.0
1094,52.0,0.0,15.0,3.0,0.0
1095,88.0,0.0,150.0,1.0,0.0
1096,76.0,0.0,150.0,1.0,0.0
1097,48.0,160.0,15.0,3.0,0.0
1098,55.0,0.0,15.0,3.0,0.0
1099,52.0,0.0,15.0,3.0,0.0
1100,86.0,0.0,330.0,1.0,0.0
1101,74.0,0.0,330.0,1.0,0.0
1102,52.0,140.0,15.0,3.0,0.0
1103,72.0,0.0,150.0,1.0,0.0
1104,48.0,160.0,15.0,3.0,0.0
1105,55.0,0.0,15.0,3.0,0.0
1106,52.0,0.0,150.0,3.0,0.0
1107,48.0,160.0,15.0,3.0,0.0
1108,84.0,0.0,15.0,1.0,0.0
1109,72.0,0.0,480.0,1.0,0.0
1110,56.0,0.0,1110.0,2.0,0.0
1111,77.0,0.0,960.0,2.0,0.0
1112,80.0,0.0,960.0,2.0,0.0
1113,53.0,0.0,15.0,3.0,0.0
1114,50.0,160.0,15.0,3.0,0.0
1115,48.0,0.0,15.0,3.0,0.0
1116,48.0,160.0,15.0,3.0,0.0
1117,50.0,0.0,15.0,3.0,0.0
1118,53.0,160.0,15.0,3.0,0.0
1119,50.0,0.0,15.0,3.0,0.0
1120,83.0,160.0,480.0,1.0,0.0
1121,71.0,0.0,480.0,1.0,0.0
1122,48.0,0.0,15.0,3.0,0.0
1123,53.0,160.0,15.0,3.0,0.0
1124,50.0,0.0,15.0,3.0,0.0
1125,48.0,0.0,150.0,3.0,0.0
1126,53.0,0.0,150.0,3.0,0.0
1127,50.0,0.0,15.0,3.0,0.0
1128,48.0,0.0,15.0,3.0,0.0
1129,53.0,320.0,150.0,3.0,0.0
1130,74.0,0.0,150.0,1.0,0.0
1131,86.0,320.0,150.0,1.0,0.0
1132,91.0,0.0,810.0,1.0,0.0
1133,79.0,155.0,810.0,1.0,0.0
1134,36.0,0.0,720.0,5.0,0.0
1135,24.0,85.0,720.0,5.0,0.0
1136,84.0,5.0,780.0,2.0,0.0
1137,52.0,0.0,150.0,3.0,0.0
1138,48.0,160.0,15.0,3.0,0.0
1139,55.0,0.0,15.0,3.0,0.0
1140,52.0,160.0,150.0,3.0,0.0
1141,52.0,0.0,150.0,3.0,0.0
1142,48.0,0.0,15.0,3.0,0.0
1143,55.0,70.0,15.0,3.0,0.0
1144,52.0,0.0,150.0,3.0,0.0
1145,88.0,0.0,150.0,1.0,0.0
1146,76.0,0.0,150.0,1.0,0.0
1147,52.0,160.0,150.0,3.0,0.0
1148,55.0,0.0,150.0,3.0,0.0
1149,48.0,5.0,15.0,3.0,0.0
1150,74.0,160.0,330.0,1.0,0.0
1151,86.0,5.0,300.0,1.0,0.0
1152,40.0,155.0,150.0,5.0,0.0
1153,55.0,0.0,150.0,3.0,0.0
1154,48.0,0.0,15.0,3.0,0.0
1155,72.0,160.0,150.0,1.0,0.0
1156,84.0,0.0,150.0,1.0,0.0
1157,55.0,0.0,150.0,3.0,0.0
1158,71.0,0.0,330.0,1.0,0.0
1159,38.0,160.0,150.0,5.0,0.0
1160,83.0,155.0,330.0,1.0,0.0
1161,59.0,0.0,150.0,3.0,0.0
1162,50.0,0.0,150.0,3.0,0.0
1163,55.0,5.0,15.0,3.0,0.0
1164,84.0,0.0,150.0,1.0,0.0
1165,59.0,0.0,150.0,3.0,0.0
1166,72.0,0.0,150.0,1.0,0.0
1167,50.0,160.0,15.0,3.0,0.0
1168,74.0,160.0,480.0,1.0,0.0
1169,86.0,0.0,480.0,1.0,0.0
1170,55.0,0.0,150.0,3.0,0.0
1171,55.0,0.0,150.0,3.0,0.0
1172,50.0,0.0,150.0,3.0,0.0
1173,59.0,160.0,15.0,3.0,0.0
1174,55.0,0.0,150.0,3.0,0.0
1175,59.0,160.0,15.0,3.0,0.0
1176,81.0,5.0,330.0,1.0,0.0
1177,78.0,0.0,330.0,2.0,0.0
1178,69.0,150.0,330.0,1.0,0.0
1179,50.0,0.0,15.0,3.0,0.0
1180,54.0,0.0,150.0,3.0,0.0
1181,50.0,160.0,15.0,3.0,0.0
1182,60.0,0.0,15.0,3.0,0.0
1183,54.0,0.0,150.0,3.0,0.0
1184,60.0,160.0,150.0,3.0,0.0
1185,50.0,0.0,150.0,3.0,0.0
1186,70.0,0.0,150.0,1.0,0.0
1187,54.0,0.0,150.0,3.0,0.0
1188,82.0,0.0,150.0,1.0,0.0
1189,80.0,0.0,960.0,1.0,0.0
1190,38.0,0.0,720.0,5.0,0.0
1191,77.0,0.0,150.0,3.0,0.0
1192,71.0,0.0,150.0,3.0,0.0
1193,50.0,80.0,720.0,5.0,0.0
1194,68.0,160.0,150.0,2.0,0.0
1195,68.0,0.0,150.0,2.0,0.0
1196,71.0,0.0,15.0,3.0,0.0
1197,77.0,160.0,15.0,3.0,0.0
1198,68.0,160.0,15.0,2.0,0.0
1199,71.0,80.0,150.0,3.0,0.0
1200,77.0,0.0,15.0,3.0,0.0
1201,68.0,0.0,15.0,2.0,0.0
1202,77.0,0.0,15.0,3.0,0.0
1203,71.0,0.0,15.0,3.0,0.0
1204,47.0,0.0,150.0,5.0,0.0
1205,68.0,160.0,150.0,2.0,0.0
1206,79.0,160.0,480.0,1.0,0.0
1207,71.0,0.0,15.0,3.0,0.0
1208,77.0,0.0,15.0,3.0,0.0
1209,35.0,0.0,15.0,5.0,0.0
1210,47.0,0.0,150.0,5.0,0.0
1211,67.0,0.0,150.0,2.0,0.0
1212,33.0,0.0,150.0,5.0,0.0
1213,45.0,0.0,150.0,5.0,0.0
1214,71.0,0.0,15.0,3.0,0.0
1215,77.0,160.0,15.0,3.0,0.0
1216,67.0,160.0,150.0,2.0,0.0
1217,71.0,0.0,15.0,3.0,0.0
1218,77.0,0.0,150.0,3.0,0.0
1219,31.0,0.0,150.0,5.0,0.0
1220,43.0,0.0,150.0,5.0,0.0
1221,67.0,0.0,150.0,2.0,0.0
1222,24.0,128.0,150.0,5.0,0.0
1223,36.0,0.0,150.0,5.0,0.0
1224,84.0,128.0,810.0,2.0,0.0
1225,79.0,0.0,810.0,1.0,0.0
1226,91.0,0.0,810.0,1.0,0.0
1227,52.0,0.0,120.0,3.0,0.0
1228,48.0,0.0,120.0,3.0,0.0
1229,55.0,160.0,120.0,5.0,0.0
1230,52.0,0.0,120.0,3.0,0.0
1231,48.0,192.0,120.0,3.0,0.0
1232,55.0,0.0,120.0,5.0,0.0
1233,55.0,0.0,150.0,5.0,0.0
1234,52.0,128.0,150.0,3.0,0.0
1235,48.0,0.0,150.0,3.0,0.0
1236,57.0,32.0,120.0,5.0,0.0
1237,48.0,0.0,120.0,3.0,0.0
1238,52.0,0.0,120.0,3.0,0.0
1239,76.0,160.0,150.0,1.0,0.0
1240,88.0,0.0,150.0,1.0,0.0
1241,55.0,32.0,120.0,5.0,0.0
1242,48.0,0.0,150.0,3.0,0.0
1243,74.0,128.0,330.0,1.0,0.0
1244,86.0,0.0,330.0,1.0,0.0
1245,55.0,0.0,150.0,5.0,0.0
1246,52.0,128.0,150.0,3.0,0.0
1247,57.0,32.0,120.0,5.0,0.0
1248,55.0,0.0,120.0,5.0,0.0
1249,84.0,288.0,150.0,1.0,0.0
1250,52.0,32.0,120.0,3.0,0.0
1251,48.0,0.0,120.0,3.0,0.0
1252,72.0,0.0,150.0,1.0,0.0
1253,77.0,160.0,960.0,2.0,0.0
1254,80.0,0.0,960.0,2.0,0.0
1255,72.0,0.0,480.0,1.0,0.0
1256,84.0,160.0,480.0,1.0,0.0
1257,53.0,0.0,120.0,3.0,0.0
1258,50.0,0.0,120.0,3.0,0.0
1259,48.0,160.0,120.0,3.0,0.0
1260,56.0,0.0,120.0,5.0,0.0
1261,50.0,0.0,120.0,3.0,0.0
1262,56.0,32.0,120.0,5.0,0.0
1263,48.0,0.0,120.0,3.0,0.0
1264,53.0,0.0,120.0,3.0,0.0
1265,53.0,128.0,150.0,3.0,0.0
1266,50.0,0.0,150.0,3.0,0.0
1267,48.0,0.0,150.0,3.0,0.0
1268,56.0,0.0,150.0,5.0,0.0
1269,71.0,0.0,480.0,1.0,0.0
1270,83.0,0.0,480.0,1.0,0.0
1271,58.0,160.0,120.0,5.0,0.0
1272,56.0,0.0,120.0,5.0,0.0
1273,48.0,0.0,120.0,3.0,0.0
1274,50.0,0.0,120.0,3.0,0.0
1275,53.0,32.0,120.0,3.0,0.0
1276,56.0,0.0,150.0,5.0,0.0
1277,48.0,128.0,150.0,3.0,0.0
1278,53.0,0.0,150.0,3.0,0.0
1279,50.0,0.0,150.0,3.0,0.0
1280,58.0,160.0,120.0,5.0,0.0
1281,86.0,0.0,150.0,1.0,0.0
1282,74.0,288.0,150.0,1.0,0.0
1283,53.0,32.0,120.0,3.0,0.0
1284,56.0,0.0,120.0,5.0,0.0
1285,48.0,0.0,120.0,3.0,0.0
1286,50.0,0.0,120.0,3.0,0.0
1287,91.0,0.0,810.0,1.0,0.0
1288,24.0,281.0,1440.0,5.0,0.0
1289,84.0,128.0,810.0,2.0,0.0
1290,79.0,0.0,810.0,1.0,0.0
1291,36.0,0.0,1440.0,5.0,0.0
1292,51.0,0.0,120.0,3.0,0.0
1293,55.0,160.0,120.0,5.0,0.0
1294,48.0,0.0,120.0,3.0,0.0
1295,51.0,0.0,120.0,3.0,0.0
1296,48.0,192.0,120.0,3.0,0.0
1297,55.0,0.0,120.0,5.0,0.0
1298,51.0,128.0,150.0,3.0,0.0
1299,48.0,0.0,150.0,3.0,0.0
1300,55.0,0.0,150.0,5.0,0.0
1301,56.0,32.0,120.0,5.0,0.0
1302,55.0,0.0,120.0,5.0,0.0
1303,87.0,0.0,150.0,1.0,0.0
1304,75.0,160.0,150.0,1.0,0.0
1305,48.0,0.0,120.0,3.0,0.0
1306,51.0,32.0,120.0,3.0,0.0
1307,51.0,128.0,150.0,3.0,0.0
1308,48.0,0.0,150.0,3.0,0.0
1309,86.0,128.0,330.0,1.0,0.0
1310,74.0,0.0,330.0,1.0,0.0
1311,55.0,0.0,150.0,5.0,0.0
1312,56.0,32.0,120.0,5.0,0.0
1313,84.0,0.0,150.0,1.0,0.0
1314,55.0,32.0,120.0,5.0,0.0
1315,51.0,0.0,120.0,3.0,0.0
1316,48.0,0.0,120.0,3.0,0.0
1317,80.0,0.0,960.0,2.0,0.0
1318,77.0,0.0,960.0,2.0,0.0
1319,72.0,7.0,15.0,1.0,0.0
1320,84.0,160.0,480.0,1.0,0.0
1321,56.0,0.0,120.0,5.0,0.0
1322,50.0,0.0,120.0,3.0,0.0
1323,53.0,160.0,120.0,3.0,0.0
1324,48.0,0.0,120.0,3.0,0.0
1325,53.0,0.0,120.0,3.0,0.0
1326,50.0,0.0,120.0,3.0,0.0
1327,48.0,32.0,120.0,3.0,0.0
1328,56.0,0.0,120.0,5.0,0.0
1329,71.0,160.0,480.0,1.0,0.0
1330,83.0,0.0,480.0,1.0,0.0
1331,48.0,0.0,150.0,3.0,0.0
1332,50.0,0.0,150.0,3.0,0.0
1333,53.0,128.0,150.0,3.0,0.0
1334,56.0,0.0,150.0,5.0,0.0
1335,58.0,160.0,120.0,5.0,0.0
1336,50.0,32.0,120.0,3.0,0.0
1337,48.0,0.0,120.0,3.0,0.0
1338,56.0,0.0,120.0,5.0,0.0
1339,53.0,0.0,120.0,3.0,0.0
1340,56.0,128.0,150.0,5.0,0.0
1341,48.0,0.0,150.0,3.0,0.0
1342,50.0,0.0,150.0,3.0,0.0
1343,53.0,0.0,150.0,3.0,0.0
1344,58.0,160.0,120.0,5.0,0.0
1345,53.0,32.0,120.0,3.0,0.0
1346,50.0,0.0,120.0,3.0,0.0
1347,80.0,128.0,150.0,1.0,0.0
1348,68.0,0.0,150.0,1.0,0.0
1349,56.0,0.0,120.0,5.0,0.0
1350,48.0,0.0,120.0,3.0,0.0
1351,68.0,7.0,780.0,1.0,0.0
1352,48.0,160.0,120.0,3.0,0.0
1353,80.0,126.0,810.0,1.0,0.0
1354,36.0,121.0,1440.0,5.0,0.0
1355,75.0,0.0,780.0,2.0,0.0
1356,48.0,0.0,120.0,3.0,0.0
1357,51.0,160.0,120.0,5.0,0.0
1358,51.0,192.0,120.0,5.0,0.0
1359,48.0,0.0,120.0,3.0,0.0
1360,51.0,0.0,150.0,5.0,0.0
1361,48.0,128.0,150.0,3.0,0.0
1362,53.0,27.0,120.0,5.0,0.0
1363,48.0,32.0,120.0,3.0,0.0
1364,51.0,0.0,120.0,5.0,0.0
1365,75.0,160.0,150.0,1.0,0.0
1366,63.0,0.0,150.0,1.0,0.0
1367,51.0,0.0,150.0,5.0,0.0
1368,61.0,118.0,330.0,1.0,0.0
1369,73.0,8.0,330.0,1.0,0.0
1370,48.0,128.0,150.0,3.0,0.0
1371,53.0,34.0,120.0,5.0,0.0
1372,51.0,32.0,120.0,5.0,0.0
1373,48.0,0.0,120.0,3.0,0.0
1374,72.0,0.0,150.0,1.0,0.0
1375,60.0,7.0,150.0,1.0,0.0
1376,37.0,128.0,1440.0,5.0,0.0
1377,68.0,0.0,810.0,2.0,0.0
1378,65.0,0.0,780.0,2.0,0.0
1379,72.0,128.0,810.0,1.0,0.0
1380,60.0,5.0,780.0,1.0,0.0
1381,49.0,160.0,120.0,3.0,0.0
1382,53.0,160.0,120.0,5.0,0.0
1383,49.0,0.0,120.0,3.0,0.0
1384,53.0,192.0,120.0,5.0,0.0
1385,49.0,0.0,120.0,3.0,0.0
1386,53.0,0.0,150.0,5.0,0.0
1387,49.0,128.0,150.0,3.0,0.0
1388,54.0,27.0,120.0,5.0,0.0
1389,53.0,0.0,120.0,5.0,0.0
1390,58.0,160.0,150.0,1.0,0.0
1391,70.0,0.0,150.0,1.0,0.0
1392,49.0,32.0,120.0,3.0,0.0
1393,53.0,0.0,150.0,5.0,0.0
1394,57.0,0.0,330.0,1.0,0.0
1395,69.0,128.0,330.0,1.0,0.0
1396,49.0,128.0,150.0,3.0,0.0
1397,54.0,32.0,120.0,5.0,0.0
1398,65.0,0.0,150.0,2.0,0.0
1399,49.0,0.0,120.0,3.0,0.0
1400,58.0,0.0,150.0,1.0,0.0
1401,53.0,32.0,120.0,5.0,0.0
1402,70.0,0.0,150.0,1.0,0.0
1403,51.0,160.0,120.0,3.0,0.0
1404,68.0,0.0,15.0,2.0,0.0
1405,66.0,5.0,780.0,2.0,0.0
1406,73.0,10.0,780.0,1.0,0.0
1407,61.0,123.0,810.0,1.0,0.0
1408,39.0,0.0,1440.0,5.0,0.0
1409,51.0,160.0,120.0,3.0,0.0
1410,54.0,0.0,120.0,3.0,0.0
1411,56.0,0.0,120.0,5.0,0.0
1412,51.0,192.0,120.0,3.0,0.0
1413,54.0,0.0,120.0,3.0,0.0
1414,56.0,0.0,120.0,5.0,0.0
1415,54.0,128.0,150.0,3.0,0.0
1416,51.0,0.0,150.0,3.0,0.0
1417,56.0,0.0,150.0,5.0,0.0
1418,58.0,17.0,120.0,5.0,0.0
1419,68.0,0.0,150.0,2.0,0.0
1420,51.0,0.0,120.0,3.0,0.0
1421,56.0,0.0,120.0,5.0,0.0
1422,54.0,32.0,120.0,3.0,0.0
1423,60.0,0.0,150.0,1.0,0.0
1424,72.0,160.0,150.0,1.0,0.0
1425,59.0,118.0,330.0,1.0,0.0
1426,66.0,0.0,15.0,2.0,0.0
1427,71.0,5.0,330.0,1.0,0.0
1428,54.0,0.0,150.0,3.0,0.0
1429,51.0,128.0,150.0,3.0,0.0
1430,56.0,0.0,150.0,5.0,0.0
1431,68.0,0.0,330.0,2.0,0.0
1432,58.0,32.0,120.0,5.0,0.0
1433,60.0,0.0,150.0,1.0,0.0
1434,69.0,0.0,150.0,2.0,0.0
1435,66.0,5.0,15.0,2.0,0.0
1436,72.0,0.0,150.0,1.0,0.0
1437,54.0,0.0,120.0,3.0,0.0
1438,51.0,0.0,120.0,3.0,0.0
1439,56.0,32.0,120.0,5.0,0.0
1440,68.0,5.0,780.0,2.0,0.0
1441,41.0,8.0,1440.0,5.0,0.0
1442,53.0,160.0,120.0,3.0,0.0
1443,75.0,0.0,810.0,1.0,0.0
1444,63.0,128.0,810.0,1.0,0.0
1445,53.0,160.0,120.0,3.0,0.0
1446,56.0,0.0,120.0,5.0,0.0
1447,56.0,192.0,120.0,5.0,0.0
1448,53.0,0.0,120.0,3.0,0.0
1449,53.0,0.0,150.0,3.0,0.0
1450,56.0,128.0,150.0,5.0,0.0
1451,58.0,27.0,120.0,5.0,0.0
1452,53.0,0.0,120.0,3.0,0.0
1453,61.0,0.0,150.0,1.0,0.0
1454,73.0,160.0,150.0,1.0,0.0
1455,56.0,32.0,120.0,5.0,0.0
1456,56.0,0.0,150.0,5.0,0.0
1457,53.0,128.0,150.0,3.0,0.0
1458,60.0,123.0,330.0,1.0,0.0
1459,72.0,5.0,330.0,1.0,0.0
1460,58.0,32.0,120.0,5.0,0.0
1461,73.0,0.0,150.0,1.0,0.0
1462,53.0,0.0,120.0,3.0,0.0
1463,61.0,128.0,150.0,1.0,0.0
1464,56.0,24.0,120.0,5.0,0.0
1465,68.0,5.0,780.0,2.0,0.0
1466,41.0,15.0,1440.0,5.0,0.0
1467,53.0,160.0,120.0,3.0,0.0
1468,75.0,128.0,810.0,1.0,0.0
1469,63.0,0.0,810.0,1.0,0.0
1470,57.0,160.0,120.0,5.0,0.0
1471,53.0,0.0,120.0,3.0,0.0
1472,53.0,192.0,120.0,3.0,0.0
1473,57.0,0.0,120.0,5.0,0.0
1474,57.0,0.0,150.0,5.0,0.0
1475,53.0,128.0,150.0,3.0,0.0
1476,58.0,27.0,120.0,5.0,0.0
1477,57.0,32.0,120.0,5.0,0.0
1478,61.0,160.0,150.0,1.0,0.0
1479,53.0,0.0,120.0,3.0,0.0
1480,73.0,0.0,150.0,1.0,0.0
1481,53.0,0.0,150.0,3.0,0.0
1482,57.0,128.0,150.0,5.0,0.0
1483,72.0,5.0,330.0,1.0,0.0
1484,60.0,123.0,330.0,1.0,0.0
1485,58.0,32.0,120.0,5.0,0.0
1486,57.0,0.0,120.0,5.0,0.0
1487,53.0,17.0,120.0,3.0,0.0
1488,61.0,128.0,150.0,1.0,0.0
1489,73.0,0.0,150.0,1.0,0.0
1490,41.0,281.0,1440.0,5.0,0.0
1491,69.0,133.0,300.0,2.0,0.0
1492,63.0,0.0,300.0,1.0,0.0
1493,75.0,0.0,300.0,1.0,0.0
1494,53.0,160.0,120.0,3.0,0.0
1495,57.0,0.0,120.0,5.0,0.0
1496,53.0,27.0,120.0,3.0,0.0
1497,73.0,0.0,150.0,1.0,0.0
1498,61.0,0.0,150.0,1.0,0.0
1499,53.0,32.0,120.0,3.0,0.0
1500,57.0,0.0,120.0,5.0,0.0
1501,60.0,118.0,330.0,1.0,0.0
1502,53.0,128.0,150.0,3.0,0.0
1503,69.0,160.0,15.0,2.0,0.0
1504,57.0,0.0,150.0,5.0,0.0
1505,72.0,15.0,300.0,1.0,0.0
1506,58.0,27.0,120.0,5.0,0.0
1507,57.0,32.0,120.0,5.0,0.0
1508,53.0,0.0,120.0,3.0,0.0
1509,73.0,0.0,150.0,1.0,0.0
1510,61.0,0.0,150.0,1.0,0.0
1511,69.0,160.0,15.0,2.0,0.0
1512,60.0,118.0,330.0,1.0,0.0
1513,72.0,15.0,300.0,1.0,0.0
1514,53.0,0.0,150.0,3.0,0.0
1515,57.0,128.0,150.0,5.0,0.0
1516,58.0,27.0,120.0,5.0,0.0
1517,53.0,32.0,120.0,3.0,0.0
1518,73.0,0.0,150.0,1.0,0.0
1519,61.0,7.0,150.0,1.0,0.0
1520,57.0,0.0,120.0,5.0,0.0
1521,81.0,0.0,300.0,2.0,0.0
1522,87.0,0.0,300.0,1.0,0.0
1523,75.0,133.0,300.0,1.0,0.0
1524,45.0,0.0,120.0,5.0,0.0
1525,41.0,27.0,120.0,5.0,0.0
1526,45.0,32.0,120.0,5.0,0.0
1527,41.0,0.0,120.0,5.0,0.0
1528,73.0,160.0,150.0,1.0,0.0
1529,85.0,0.0,150.0,1.0,0.0
1530,72.0,118.0,330.0,1.0,0.0
1531,41.0,0.0,150.0,5.0,0.0
1532,45.0,128.0,150.0,5.0,0.0
1533,81.0,0.0,15.0,2.0,0.0
1534,84.0,15.0,300.0,1.0,0.0
1535,46.0,27.0,120.0,5.0,0.0
1536,73.0,0.0,150.0,1.0,0.0
1537,45.0,32.0,120.0,5.0,0.0
1538,85.0,0.0,150.0,1.0,0.0
1539,41.0,0.0,120.0,5.0,0.0
1540,45.0,0.0,150.0,5.0,0.0
1541,41.0,128.0,150.0,5.0,0.0
1542,86.0,133.0,300.0,1.0,0.0
1543,74.0,8.0,300.0,1.0,0.0
1544,81.0,7.0,300.0,2.0,0.0
1545,46.0,12.0,120.0,5.0,0.0
1546,41.0,0.0,120.0,5.0,0.0
1547,75.0,104.0,150.0,1.0,0.0
1548,87.0,0.0,150.0,1.0,0.0
1549,81.0,0.0,150.0,2.0,0.0
1550,45.0,32.0,120.0,5.0,0.0
1551,84.0,0.0,90.0,2.0,0.0
1552,81.0,0.0,90.0,2.0,0.0
1553,76.0,0.0,90.0,1.0,0.0
1554,88.0,0.0,90.0,1.0,0.0
1555,52.0,0.0,90.0,5.0,0.0
1556,40.0,160.0,90.0,5.0,0.0
1557,45.0,0.0,90.0,5.0,0.0
1558,88.0,0.0,90.0,1.0,0.0
1559,84.0,0.0,90.0,2.0,0.0
1560,81.0,0.0,90.0,2.0,0.0
1561,76.0,0.0,90.0,1.0,0.0
1562,57.0,160.0,90.0,5.0,0.0
1563,76.0,0.0,90.0,1.0,0.0
1564,88.0,0.0,90.0,1.0,0.0
1565,84.0,160.0,90.0,2.0,0.0
1566,81.0,0.0,90.0,2.0,0.0
1567,47.0,0.0,90.0,5.0,0.0
1568,59.0,0.0,90.0,5.0,0.0
1569,48.0,0.0,90.0,5.0,0.0
1570,60.0,0.0,90.0,5.0,0.0
1571,76.0,0.0,90.0,1.0,0.0
1572,88.0,160.0,90.0,1.0,0.0
1573,84.0,0.0,90.0,2.0,0.0
1574,81.0,0.0,90.0,2.0,0.0
1575,88.0,0.0,90.0,1.0,0.0
1576,81.0,0.0,90.0,2.0,0.0
1577,84.0,160.0,90.0,2.0,0.0
1578,52.0,0.0,90.0,5.0,0.0
1579,40.0,0.0,90.0,5.0,0.0
1580,76.0,0.0,90.0,1.0,0.0
1581,76.0,0.0,90.0,1.0,0.0
1582,84.0,0.0,90.0,2.0,0.0
1583,81.0,0.0,90.0,2.0,0.0
1584,88.0,0.0,90.0,1.0,0.0
1585,45.0,0.0,90.0,5.0,0.0
1586,57.0,160.0,90.0,5.0,0.0
1587,88.0,0.0,90.0,1.0,0.0
1588,76.0,0.0,90.0,1.0,0.0
1589,47.0,160.0,90.0,5.0,0.0
1590,59.0,0.0,90.0,5.0,0.0
1591,84.0,0.0,90.0,2.0,0.0
1592,81.0,0.0,90.0,2.0,0.0
1593,60.0,0.0,90.0,5.0,0.0
1594,48.0,0.0,90.0,5.0,0.0
1595,88.0,0.0,90.0,1.0,0.0
1596,76.0,0.0,90.0,1.0,0.0
1597,84.0,160.0,90.0,2.0,0.0
1598,81.0,0.0,90.0,2.0,0.0
1599,81.0,0.0,90.0,2.0,0.0
1600,84.0,0.0,90.0,2.0,0.0
1601,52.0,0.0,90.0,5.0,0.0
1602,76.0,160.0,90.0,1.0,0.0
1603,88.0,0.0,90.0,1.0,0.0
1604,40.0,0.0,90.0,5.0,0.0
1605,76.0,0.0,90.0,1.0,0.0
1606,84.0,0.0,90.0,2.0,0.0
1607,81.0,0.0,90.0,2.0,0.0
1608,88.0,160.0,90.0,1.0,0.0
1609,45.0,0.0,90.0,5.0,0.0
1610,57.0,0.0,90.0,5.0,0.0
1611,84.0,0.0,90.0,2.0,0.0
1612,81.0,160.0,90.0,2.0,0.0
1613,76.0,0.0,90.0,1.0,0.0
1614,88.0,0.0,90.0,1.0,0.0
1615,59.0,0.0,90.0,5.0,0.0
1616,47.0,0.0,90.0,5.0,0.0
1617,81.0,0.0,90.0,2.0,0.0
1618,48.0,0.0,90.0,5.0,0.0
1619,60.0,0.0,90.0,5.0,0.0
1620,88.0,296.0,90.0,1.0,0.0
1621,76.0,0.0,90.0,1.0,0.0
1622,84.0,0.0,90.0,2.0,0.0
1623,81.0,0.0,240.0,2.0,0.0
1624,64.0,344.0,240.0,5.0,0.0
1625,52.0,0.0,240.0,5.0,0.0
1626,84.0,0.0,240.0,2.0,0.0
1627,76.0,0.0,240.0,1.0,0.0
1628,88.0,0.0,240.0,1.0,0.0
1629,45.0,0.0,90.0,5.0,0.0
1630,81.0,0.0,90.0,1.0,0.0
1631,57.0,0.0,90.0,5.0,0.0
1632,69.0,160.0,90.0,1.0,0.0
1633,59.0,0.0,90.0,5.0,0.0
1634,83.0,0.0,90.0,1.0,0.0
1635,71.0,0.0,90.0,1.0,0.0
1636,47.0,160.0,90.0,5.0,0.0
1637,72.0,0.0,90.0,1.0,0.0
1638,84.0,0.0,90.0,1.0,0.0
1639,48.0,0.0,90.0,5.0,0.0
1640,60.0,296.0,90.0,5.0,0.0
1641,89.0,0.0,240.0,1.0,0.0
1642,65.0,0.0,240.0,5.0,0.0
1643,53.0,344.0,240.0,5.0,0.0
1644,77.0,0.0,240.0,1.0,0.0
1645,45.0,0.0,90.0,5.0,0.0
1646,57.0,160.0,90.0,5.0,0.0
1647,69.0,0.0,90.0,1.0,0.0
1648,81.0,0.0,90.0,1.0,0.0
1649,83.0,0.0,90.0,1.0,0.0
1650,47.0,0.0,90.0,5.0,0.0
1651,59.0,0.0,90.0,5.0,0.0
1652,71.0,160.0,90.0,1.0,0.0
1653,72.0,0.0,90.0,1.0,0.0
1654,84.0,296.0,90.0,1.0,0.0
1655,60.0,0.0,90.0,5.0,0.0
1656,48.0,0.0,90.0,5.0,0.0
1657,78.0,0.0,240.0,1.0,0.0
1658,54.0,1116.0,240.0,5.0,0.0
1659,66.0,0.0,240.0,5.0,0.0
1660,90.0,0.0,240.0,1.0,0.0
1661,81.0,0.0,150.0,1.0,0.0
1662,69.0,240.0,150.0,1.0,0.0
1663,36.0,0.0,150.0,5.0,0.0
1664,48.0,0.0,150.0,5.0,0.0
1665,71.0,0.0,150.0,1.0,0.0
1666,47.0,0.0,150.0,5.0,0.0
1667,35.0,240.0,150.0,5.0,0.0
1668,83.0,0.0,150.0,1.0,0.0
1669,33.0,0.0,150.0,5.0,0.0
1670,72.0,0.0,150.0,1.0,0.0
1671,84.0,0.0,150.0,1.0,0.0
1672,45.0,188.0,150.0,5.0,0.0
1673,84.0,0.0,90.0,1.0,0.0
1674,96.0,160.0,90.0,1.0,0.0
1675,28.0,0.0,90.0,5.0,0.0
1676,40.0,0.0,90.0,5.0,0.0
1677,45.0,160.0,90.0,4.0,0.0
1678,48.0,0.0,90.0,4.0,0.0
1679,93.0,0.0,90.0,1.0,0.0
1680,40.0,0.0,90.0,5.0,0.0
1681,81.0,0.0,90.0,1.0,0.0
1682,40.0,0.0,90.0,5.0,0.0
1683,76.0,0.0,90.0,1.0,0.0
1684,88.0,0.0,90.0,1.0,0.0
1685,45.0,0.0,90.0,4.0,0.0
1686,48.0,160.0,90.0,4.0,0.0
1687,84.0,160.0,90.0,1.0,0.0
1688,72.0,0.0,90.0,1.0,0.0
1689,48.0,0.0,90.0,4.0,0.0
1690,40.0,0.0,90.0,5.0,0.0
1691,45.0,0.0,90.0,4.0,0.0
1692,40.0,160.0,90.0,5.0,0.0
1693,48.0,0.0,90.0,4.0,0.0
1694,81.0,0.0,90.0,1.0,0.0
1695,45.0,0.0,90.0,4.0,0.0
1696,57.0,0.0,90.0,1.0,0.0
1697,40.0,0.0,90.0,5.0,0.0
1698,64.0,0.0,90.0,1.0,0.0
1699,76.0,160.0,90.0,1.0,0.0
1700,48.0,0.0,90.0,4.0,0.0
1701,45.0,0.0,90.0,4.0,0.0
1702,60.0,0.0,90.0,1.0,0.0
1703,72.0,0.0,90.0,1.0,0.0
1704,45.0,160.0,90.0,4.0,0.0
1705,48.0,0.0,90.0,4.0,0.0
1706,40.0,0.0,90.0,5.0,0.0
1707,57.0,0.0,90.0,1.0,0.0
1708,45.0,0.0,90.0,4.0,0.0
1709,48.0,160.0,90.0,4.0,0.0
1710,40.0,0.0,90.0,5.0,0.0
1711,69.0,0.0,90.0,1.0,0.0
1712,40.0,0.0,90.0,5.0,0.0
1713,48.0,0.0,90.0,4.0,0.0
1714,65.0,0.0,90.0,1.0,0.0
1715,53.0,296.0,90.0,1.0,0.0
1716,45.0,0.0,90.0,4.0,0.0
1717,52.0,960.0,240.0,1.0,0.0
1718,40.0,0.0,240.0,5.0,0.0
1719,45.0,0.0,240.0,4.0,0.0
1720,48.0,0.0,240.0,4.0,0.0
1721,64.0,0.0,240.0,1.0,0.0
1722,40.0,0.0,300.0,5.0,0.0
1723,71.0,0.0,270.0,2.0,0.0
1724,44.0,0.0,270.0,4.0,0.0
1725,74.0,0.0,270.0,2.0,0.0
1726,47.0,339.0,270.0,4.0,0.0
1727,76.0,0.0,240.0,2.0,0.0
1728,68.0,5.0,240.0,1.0,0.0
1729,52.0,0.0,240.0,4.0,0.0
1730,80.0,0.0,240.0,1.0,0.0
1731,33.0,0.0,90.0,5.0,0.0
1732,45.0,0.0,90.0,5.0,0.0
1733,81.0,160.0,90.0,1.0,0.0
1734,69.0,0.0,90.0,1.0,0.0
1735,77.0,0.0,90.0,2.0,0.0
1736,72.0,0.0,90.0,2.0,0.0
1737,69.0,0.0,90.0,1.0,0.0
1738,48.0,0.0,90.0,5.0,0.0
1739,81.0,0.0,90.0,1.0,0.0
1740,36.0,0.0,90.0,5.0,0.0
1741,72.0,0.0,90.0,2.0,0.0
1742,77.0,160.0,90.0,2.0,0.0
1743,77.0,851.0,90.0,2.0,0.0
1744,38.0,0.0,90.0,5.0,0.0
1745,50.0,0.0,90.0,5.0,0.0
1746,81.0,0.0,90.0,1.0,0.0
1747,69.0,0.0,90.0,1.0,0.0
1748,72.0,0.0,90.0,2.0,0.0
1749,69.0,5.0,780.0,1.0,0.0
1750,81.0,0.0,780.0,1.0,0.0
1751,51.0,0.0,810.0,5.0,0.0
1752,72.0,10.0,810.0,2.0,0.0
1753,77.0,0.0,810.0,2.0,0.0
1754,39.0,118.0,810.0,5.0,0.0
1755,80.0,0.0,120.0,1.0,0.0
1756,68.0,0.0,120.0,1.0,0.0
1757,40.0,0.0,120.0,5.0,0.0
1758,52.0,0.0,120.0,5.0,0.0
1759,71.0,0.0,120.0,2.0,0.0
1760,76.0,136.0,120.0,2.0,0.0
1761,81.0,0.0,90.0,1.0,0.0
1762,69.0,160.0,90.0,1.0,0.0
1763,33.0,0.0,90.0,5.0,0.0
1764,45.0,0.0,90.0,5.0,0.0
1765,72.0,0.0,90.0,2.0,0.0
1766,77.0,0.0,90.0,2.0,0.0
1767,69.0,0.0,90.0,1.0,0.0
1768,77.0,0.0,90.0,2.0,0.0
1769,72.0,0.0,90.0,2.0,0.0
1770,36.0,160.0,90.0,5.0,0.0
1771,48.0,0.0,90.0,5.0,0.0
1772,81.0,0.0,90.0,1.0,0.0
1773,38.0,0.0,90.0,5.0,0.0
1774,50.0,851.0,90.0,5.0,0.0
1775,72.0,0.0,90.0,2.0,0.0
1776,77.0,0.0,90.0,2.0,0.0
1777,69.0,0.0,90.0,1.0,0.0
1778,81.0,0.0,90.0,1.0,0.0
1779,51.0,0.0,810.0,5.0,0.0
1780,72.0,10.0,810.0,2.0,0.0
1781,69.0,5.0,780.0,1.0,0.0
1782,81.0,0.0,780.0,1.0,0.0
1783,39.0,118.0,810.0,5.0,0.0
1784,77.0,0.0,810.0,2.0,0.0
1785,71.0,0.0,120.0,2.0,0.0
1786,52.0,0.0,120.0,5.0,0.0
1787,68.0,0.0,120.0,1.0,0.0
1788,80.0,136.0,120.0,1.0,0.0
1789,40.0,0.0,120.0,5.0,0.0
1790,76.0,0.0,120.0,2.0,0.0
1791,72.0,0.0,90.0,2.0,0.0
1792,33.0,0.0,90.0,5.0,0.0
1793,45.0,0.0,90.0,5.0,0.0
1794,76.0,160.0,90.0,2.0,0.0
1795,81.0,0.0,90.0,1.0,0.0
1796,69.0,0.0,90.0,1.0,0.0
1797,84.0,0.0,90.0,1.0,0.0
1798,76.0,160.0,90.0,1.0,0.0
1799,64.0,0.0,90.0,5.0,0.0
1800,72.0,0.0,90.0,5.0,0.0
1801,84.0,0.0,90.0,1.0,0.0
1802,76.0,160.0,90.0,1.0,0.0
1803,72.0,0.0,90.0,5.0,0.0
1804,64.0,0.0,90.0,5.0,0.0
1805,84.0,0.0,90.0,1.0,0.0
1806,72.0,0.0,90.0,5.0,0.0
1807,64.0,160.0,90.0,5.0,0.0
1808,76.0,0.0,90.0,1.0,0.0
1809,69.0,160.0,90.0,5.0,0.0
1810,60.0,0.0,90.0,5.0,0.0
1811,81.0,0.0,90.0,1.0,0.0
1812,72.0,0.0,90.0,1.0,0.0
1813,81.0,0.0,90.0,1.0,0.0
1814,69.0,0.0,90.0,5.0,0.0
1815,60.0,0.0,90.0,5.0,0.0
1816,72.0,160.0,90.0,1.0,0.0
1817,72.0,0.0,90.0,1.0,0.0
1818,81.0,0.0,90.0,1.0,0.0
1819,69.0,160.0,90.0,5.0,0.0
1820,60.0,0.0,90.0,5.0,0.0
1821,76.0,0.0,90.0,1.0,0.0
1822,60.0,0.0,90.0,5.0,0.0
1823,64.0,0.0,90.0,5.0,0.0
1824,72.0,160.0,90.0,1.0,0.0
1825,76.0,0.0,90.0,1.0,0.0
1826,72.0,160.0,90.0,1.0,0.0
1827,60.0,0.0,90.0,5.0,0.0
1828,64.0,0.0,90.0,5.0,0.0
1829,76.0,0.0,90.0,1.0,0.0
1830,72.0,0.0,90.0,1.0,0.0
1831,64.0,160.0,90.0,5.0,0.0
1832,60.0,0.0,90.0,5.0,0.0
1833,57.0,0.0,90.0,5.0,0.0
1834,60.0,0.0,90.0,5.0,0.0
1835,72.0,160.0,90.0,1.0,0.0
1836,69.0,0.0,90.0,1.0,0.0
1837,69.0,160.0,90.0,1.0,0.0
1838,57.0,0.0,90.0,5.0,0.0
1839,52.0,0.0,90.0,5.0,0.0
1840,64.0,0.0,90.0,1.0,0.0
1841,48.0,0.0,90.0,5.0,0.0
1842,64.0,160.0,90.0,1.0,0.0
1843,60.0,0.0,90.0,1.0,0.0
1844,52.0,0.0,90.0,5.0,0.0
1845,48.0,0.0,90.0,5.0,0.0
1846,60.0,160.0,90.0,1.0,0.0
1847,57.0,0.0,90.0,1.0,0.0
1848,45.0,0.0,90.0,5.0,0.0
1849,45.0,0.0,90.0,5.0,0.0
1850,40.0,0.0,90.0,5.0,0.0
1851,57.0,160.0,90.0,1.0,0.0
1852,52.0,0.0,90.0,1.0,0.0
1853,40.0,0.0,90.0,5.0,0.0
1854,52.0,160.0,90.0,1.0,0.0
1855,48.0,0.0,90.0,1.0,0.0
1856,36.0,0.0,90.0,5.0,0.0
1857,36.0,0.0,90.0,5.0,0.0
1858,33.0,160.0,90.0,5.0,0.0
1859,45.0,0.0,90.0,1.0,0.0
1860,48.0,0.0,90.0,1.0,0.0
1861,45.0,0.0,90.0,1.0,0.0
1862,40.0,0.0,90.0,1.0,0.0
1863,28.0,0.0,90.0,5.0,0.0
1864,33.0,1496.0,90.0,5.0,0.0
1865,33.0,1440.0,1440.0,1.0,0.0
1866,21.0,0.0,1440.0,5.0,0.0
1867,31.0,0.0,1440.0,5.0,0.0
1868,57.0,240.0,4320.0,1.0,0.0
1869,45.0,0.0,4320.0,5.0,0.0
1870,43.0,1440.0,1440.0,5.0,0.0
1871,41.0,0.0,1440.0,5.0,0.0
1872,29.0,1440.0,1440.0,5.0,0.0
1873,40.0,0.0,1440.0,5.0,0.0
1874,28.0,0.0,1440.0,5.0,0.0
1875,70.0,0.0,240.0,1.0,0.0
1876,26.0,71.0,1470.0,5.0,0.0
1877,77.0,211.0,210.0,2.0,0.0
1878,82.0,5.0,150.0,1.0,0.0
1879,38.0,0.0,15.0,5.0,0.0
1880,46.0,96.0,120.0,3.0,0.0
1881,74.0,24.0,90.0,1.0,0.0
1882,75.0,24.0,90.0,1.0,0.0
1883,53.0,96.0,120.0,3.0,0.0
1884,77.0,24.0,90.0,1.0,0.0
1885,46.0,96.0,120.0,3.0,0.0
1886,53.0,96.0,120.0,3.0,0.0
1887,70.0,24.0,90.0,1.0,0.0
1888,72.0,24.0,90.0,1.0,0.0
1889,46.0,120.0,120.0,3.0,0.0
1890,74.0,0.0,240.0,1.0,0.0
1891,53.0,120.0,120.0,3.0,0.0
1892,46.0,120.0,120.0,3.0,0.0
1893,53.0,96.0,120.0,3.0,0.0
1894,46.0,25.0,120.0,3.0,0.0
1895,65.0,19.0,90.0,1.0,0.0
1896,37.0,5.0,1440.0,5.0,0.0
1897,69.0,120.0,90.0,1.0,0.0
1898,70.0,24.0,90.0,1.0,0.0
1899,46.0,96.0,120.0,3.0,0.0
1900,53.0,96.0,120.0,3.0,0.0
1901,61.0,24.0,90.0,1.0,0.0
1902,63.0,24.0,90.0,1.0,0.0
1903,46.0,96.0,120.0,3.0,0.0
1904,65.0,24.0,90.0,1.0,0.0
1905,53.0,96.0,120.0,3.0,0.0
1906,46.0,96.0,120.0,3.0,0.0
1907,58.0,24.0,90.0,1.0,0.0
1908,60.0,24.0,90.0,1.0,0.0
1909,53.0,96.0,120.0,3.0,0.0
1910,61.0,24.0,90.0,1.0,0.0
1911,46.0,96.0,120.0,3.0,0.0
1912,53.0,120.0,90.0,1.0,0.0
1913,57.0,24.0,90.0,1.0,0.0
1914,46.0,120.0,120.0,3.0,0.0
1915,58.0,235.0,240.0,1.0,0.0
1916,53.0,115.0,120.0,3.0,0.0
1917,46.0,0.0,120.0,3.0,0.0
1918,36.0,0.0,1440.0,5.0,0.0
1919,69.0,0.0,240.0,1.0,0.0
1920,77.0,5.0,180.0,2.0,0.0
1921,81.0,120.0,150.0,1.0,0.0
1922,45.0,0.0,120.0,3.0,0.0
1923,53.0,0.0,120.0,3.0,0.0
1924,48.0,96.0,120.0,3.0,0.0
1925,45.0,96.0,120.0,3.0,0.0
1926,72.0,24.0,90.0,1.0,0.0
1927,53.0,96.0,120.0,3.0,0.0
1928,48.0,0.0,120.0,3.0,0.0
1929,76.0,24.0,90.0,1.0,0.0
1930,45.0,96.0,120.0,3.0,0.0
1931,77.0,24.0,90.0,1.0,0.0
1932,69.0,24.0,90.0,1.0,0.0
1933,53.0,0.0,120.0,3.0,0.0
1934,48.0,96.0,120.0,3.0,0.0
1935,70.0,24.0,90.0,1.0,0.0
1936,45.0,120.0,120.0,3.0,0.0
1937,53.0,120.0,120.0,3.0,0.0
1938,48.0,0.0,120.0,3.0,0.0
1939,72.0,0.0,240.0,1.0,0.0
1940,45.0,120.0,120.0,3.0,0.0
1941,53.0,96.0,120.0,3.0,0.0
1942,48.0,0.0,120.0,3.0,0.0
1943,45.0,96.0,120.0,3.0,0.0
1944,65.0,24.0,90.0,1.0,0.0
1945,36.0,0.0,1440.0,5.0,0.0
1946,67.0,120.0,90.0,1.0,0.0
1947,68.0,24.0,90.0,1.0,0.0
1948,44.0,96.0,120.0,3.0,0.0
1949,48.0,0.0,120.0,3.0,0.0
1950,53.0,96.0,120.0,3.0,0.0
1951,60.0,24.0,90.0,1.0,0.0
1952,44.0,96.0,120.0,3.0,0.0
1953,64.0,24.0,90.0,1.0,0.0
1954,48.0,0.0,120.0,3.0,0.0
1955,53.0,96.0,120.0,3.0,0.0
1956,65.0,24.0,90.0,1.0,0.0
1957,56.0,24.0,90.0,1.0,0.0
1958,44.0,96.0,120.0,3.0,0.0
1959,48.0,0.0,120.0,3.0,0.0
1960,53.0,96.0,120.0,3.0,0.0
1961,58.0,24.0,90.0,1.0,0.0
1962,44.0,120.0,120.0,3.0,0.0
1963,60.0,24.0,90.0,1.0,0.0
1964,53.0,120.0,120.0,3.0,0.0
1965,48.0,0.0,120.0,3.0,0.0
1966,53.0,0.0,120.0,1.0,0.0
1967,55.0,0.0,120.0,1.0,0.0
1968,44.0,120.0,120.0,3.0,0.0
1969,53.0,0.0,120.0,3.0,0.0
1970,48.0,120.0,120.0,3.0,0.0
1971,56.0,240.0,240.0,1.0,0.0
1972,44.0,0.0,120.0,3.0,0.0
1973,35.0,0.0,1440.0,5.0,0.0
1974,74.0,120.0,240.0,1.0,0.0
1975,79.0,0.0,210.0,2.0,0.0
1976,86.0,0.0,150.0,1.0,0.0
1977,43.0,0.0,120.0,3.0,0.0
1978,50.0,96.0,120.0,3.0,0.0
1979,79.0,24.0,90.0,1.0,0.0
1980,43.0,96.0,120.0,3.0,0.0
1981,81.0,24.0,90.0,1.0,0.0
1982,50.0,96.0,120.0,3.0,0.0
1983,83.0,24.0,90.0,1.0,0.0
1984,43.0,96.0,120.0,3.0,0.0
1985,50.0,96.0,120.0,3.0,0.0
1986,74.0,24.0,90.0,1.0,0.0
1987,43.0,120.0,120.0,3.0,0.0
1988,78.0,24.0,90.0,1.0,0.0
1989,79.0,0.0,240.0,1.0,0.0
1990,50.0,120.0,120.0,3.0,0.0
1991,43.0,120.0,120.0,3.0,0.0
1992,50.0,96.0,120.0,3.0,0.0
1993,43.0,96.0,120.0,3.0,0.0
1994,71.0,24.0,90.0,1.0,0.0
1995,34.0,0.0,1440.0,5.0,0.0
1996,72.0,120.0,90.0,1.0,0.0
1997,74.0,24.0,90.0,1.0,0.0
1998,43.0,96.0,120.0,3.0,0.0
1999,50.0,96.0,120.0,3.0,0.0
2000,67.0,24.0,90.0,1.0,0.0
2001,43.0,96.0,120.0,3.0,0.0
2002,69.0,24.0,90.0,1.0,0.0
2003,50.0,96.0,120.0,3.0,0.0
2004,70.0,24.0,90.0,1.0,0.0
2005,62.0,24.0,90.0,1.0,0.0
2006,43.0,96.0,120.0,3.0,0.0
2007,66.0,24.0,90.0,1.0,0.0
2008,50.0,96.0,120.0,3.0,0.0
2009,67.0,24.0,90.0,1.0,0.0
2010,43.0,96.0,120.0,3.0,0.0
2011,58.0,24.0,90.0,1.0,0.0
2012,50.0,96.0,120.0,3.0,0.0
2013,43.0,120.0,120.0,3.0,0.0
2014,60.0,24.0,90.0,1.0,0.0
2015,62.0,0.0,240.0,1.0,0.0
2016,50.0,120.0,120.0,3.0,0.0
2017,43.0,120.0,120.0,3.0,0.0
2018,61.0,120.0,120.0,1.0,0.0
2019,34.0,0.0,1440.0,5.0,0.0
2020,65.0,120.0,120.0,1.0,0.0
2021,41.0,0.0,120.0,3.0,0.0
2022,67.0,120.0,120.0,1.0,0.0
2023,49.0,0.0,120.0,3.0,0.0
2024,41.0,120.0,120.0,3.0,0.0
2025,70.0,0.0,120.0,1.0,0.0
2026,73.0,120.0,120.0,1.0,0.0
2027,49.0,0.0,120.0,3.0,0.0
2028,77.0,0.0,120.0,1.0,0.0
2029,41.0,120.0,120.0,3.0,0.0
2030,79.0,120.0,120.0,1.0,0.0
2031,49.0,0.0,120.0,3.0,0.0
2032,41.0,120.0,120.0,3.0,0.0
2033,82.0,0.0,120.0,1.0,0.0
2034,49.0,120.0,120.0,3.0,0.0
2035,41.0,120.0,120.0,3.0,0.0
2036,49.0,120.0,120.0,3.0,0.0
2037,41.0,120.0,120.0,3.0,0.0
2038,60.0,120.0,120.0,1.0,0.0
2039,64.0,120.0,120.0,1.0,0.0
2040,40.0,0.0,120.0,3.0,0.0
2041,67.0,0.0,120.0,1.0,0.0
2042,48.0,120.0,120.0,3.0,0.0
2043,40.0,0.0,120.0,3.0,0.0
2044,70.0,120.0,120.0,1.0,0.0
2045,72.0,120.0,120.0,1.0,0.0
2046,48.0,0.0,120.0,3.0,0.0
2047,40.0,0.0,120.0,3.0,0.0
2048,76.0,120.0,120.0,1.0,0.0
2049,48.0,120.0,120.0,3.0,0.0
2050,79.0,0.0,120.0,1.0,0.0
2051,40.0,0.0,120.0,3.0,0.0
2052,82.0,120.0,120.0,1.0,0.0
2053,48.0,120.0,120.0,3.0,0.0
2054,41.0,120.0,120.0,3.0,0.0
2055,48.0,120.0,120.0,3.0,0.0
2056,41.0,120.0,120.0,3.0,0.0
2057,34.0,0.0,15.0,5.0,0.0
2058,60.0,120.0,120.0,1.0,0.0
2059,64.0,120.0,120.0,1.0,0.0
2060,40.0,0.0,120.0,3.0,0.0
2061,48.0,0.0,120.0,3.0,0.0
2062,67.0,120.0,120.0,1.0,0.0
2063,71.0,0.0,120.0,1.0,0.0
2064,40.0,120.0,120.0,3.0,0.0
2065,72.0,0.0,120.0,1.0,0.0
2066,48.0,120.0,120.0,3.0,0.0
2067,76.0,120.0,120.0,1.0,0.0
2068,40.0,0.0,120.0,3.0,0.0
2069,48.0,120.0,120.0,3.0,0.0
2070,79.0,0.0,120.0,1.0,0.0
2071,83.0,0.0,120.0,1.0,0.0
2072,40.0,120.0,120.0,3.0,0.0
2073,48.0,120.0,120.0,3.0,0.0
2074,41.0,120.0,120.0,3.0,0.0
2075,48.0,120.0,120.0,3.0,0.0
2076,41.0,288.0,120.0,3.0,0.0
2077,72.0,128.0,810.0,1.0,0.0
2078,33.0,109.0,1290.0,5.0,0.0
2079,77.0,8.0,750.0,2.0,0.0
2080,84.0,5.0,720.0,1.0,0.0
2081,36.0,160.0,120.0,4.0,0.0
2082,40.0,160.0,120.0,4.0,0.0
2083,41.0,179.0,120.0,4.0,0.0
2084,33.0,146.0,450.0,4.0,0.0
2085,36.0,32.0,120.0,4.0,0.0
2086,69.0,128.0,150.0,1.0,0.0
2087,81.0,0.0,150.0,1.0,0.0
2088,67.0,0.0,330.0,1.0,0.0
2089,79.0,19.0,330.0,1.0,0.0
2090,40.0,14.0,120.0,4.0,0.0
2091,41.0,32.0,120.0,4.0,0.0
2092,33.0,32.0,120.0,4.0,0.0
2093,34.0,109.0,1290.0,5.0,0.0
2094,65.0,0.0,15.0,1.0,0.0
2095,77.0,288.0,15.0,1.0,0.0
2096,70.0,10.0,1440.0,2.0,0.0
2097,74.0,0.0,1440.0,2.0,0.0
2098,37.0,160.0,120.0,4.0,0.0
2099,41.0,160.0,120.0,4.0,0.0
2100,43.0,320.0,120.0,4.0,0.0
2101,34.0,123.0,480.0,4.0,0.0
2102,37.0,32.0,120.0,4.0,0.0
2103,40.0,37.0,120.0,4.0,0.0
2104,76.0,288.0,480.0,1.0,0.0
2105,64.0,0.0,480.0,1.0,0.0
2106,43.0,51.0,120.0,4.0,0.0
2107,34.0,22.0,120.0,4.0,0.0
2108,33.0,116.0,1290.0,5.0,0.0
2109,72.0,2.0,810.0,1.0,0.0
2110,77.0,5.0,750.0,2.0,0.0
2111,84.0,126.0,720.0,1.0,0.0
2112,36.0,160.0,120.0,4.0,0.0
2113,40.0,160.0,120.0,4.0,0.0
2114,41.0,187.0,120.0,4.0,0.0
2115,33.0,131.0,480.0,4.0,0.0
2116,36.0,32.0,120.0,4.0,0.0
2117,69.0,0.0,150.0,1.0,0.0
2118,81.0,128.0,150.0,1.0,0.0
2119,39.0,29.0,120.0,4.0,0.0
2120,79.0,12.0,330.0,1.0,0.0
2121,67.0,0.0,330.0,1.0,0.0
2122,45.0,32.0,120.0,4.0,0.0
2123,33.0,32.0,120.0,4.0,0.0
2124,78.0,0.0,150.0,1.0,0.0
2125,66.0,288.0,150.0,1.0,0.0
2126,69.0,0.0,960.0,1.0,0.0
2127,74.0,0.0,1440.0,2.0,0.0
2128,81.0,128.0,960.0,1.0,0.0
2129,34.0,116.0,1290.0,5.0,0.0
2130,38.0,160.0,120.0,4.0,0.0
2131,42.0,160.0,120.0,4.0,0.0
2132,43.0,320.0,120.0,4.0,0.0
2133,34.0,131.0,480.0,4.0,0.0
2134,38.0,32.0,120.0,4.0,0.0
2135,67.0,288.0,480.0,1.0,0.0
2136,79.0,0.0,480.0,1.0,0.0
2137,42.0,29.0,120.0,4.0,0.0
2138,43.0,44.0,120.0,4.0,0.0
2139,34.0,32.0,120.0,4.0,0.0
2140,35.0,109.0,1290.0,5.0,0.0
2141,65.0,123.0,330.0,1.0,0.0
2142,38.0,37.0,120.0,4.0,0.0
2143,68.0,128.0,150.0,1.0,0.0
2144,41.0,32.0,120.0,4.0,0.0
2145,71.0,128.0,330.0,1.0,0.0
2146,44.0,192.0,120.0,4.0,0.0
2147,35.0,131.0,480.0,4.0,0.0
2148,41.0,32.0,120.0,4.0,0.0
2149,74.0,128.0,150.0,1.0,0.0
2150,77.0,19.0,330.0,1.0,0.0
2151,44.0,29.0,120.0,4.0,0.0
2152,50.0,32.0,120.0,4.0,0.0
2153,86.0,288.0,150.0,1.0,0.0
2154,35.0,32.0,120.0,4.0,0.0
2155,80.0,0.0,150.0,2.0,0.0
2156,77.0,123.0,810.0,1.0,0.0
2157,36.0,5.0,1260.0,5.0,0.0
2158,81.0,5.0,750.0,2.0,0.0
2159,86.0,0.0,720.0,1.0,0.0
2160,41.0,160.0,120.0,4.0,0.0
2161,45.0,160.0,120.0,4.0,0.0
2162,48.0,160.0,120.0,4.0,0.0
2163,41.0,32.0,120.0,4.0,0.0
2164,72.0,0.0,150.0,1.0,0.0
2165,84.0,128.0,150.0,1.0,0.0
2166,45.0,32.0,120.0,4.0,0.0
2167,48.0,160.0,120.0,4.0,0.0
2168,70.0,0.0,330.0,1.0,0.0
2169,82.0,128.0,330.0,1.0,0.0
2170,53.0,27.0,120.0,4.0,0.0
2171,36.0,32.0,120.0,4.0,0.0
2172,81.0,0.0,150.0,1.0,0.0
2173,69.0,288.0,150.0,1.0,0.0
2174,69.0,5.0,780.0,1.0,0.0
2175,36.0,3.0,1290.0,5.0,0.0
2176,71.0,0.0,750.0,2.0,0.0
2177,74.0,5.0,750.0,2.0,0.0
2178,81.0,123.0,720.0,1.0,0.0
2179,41.0,160.0,120.0,4.0,0.0
2180,43.0,160.0,120.0,4.0,0.0
2181,47.0,160.0,120.0,4.0,0.0
2182,43.0,27.0,120.0,4.0,0.0
2183,79.0,128.0,150.0,1.0,0.0
2184,67.0,0.0,150.0,1.0,0.0
2185,47.0,32.0,120.0,4.0,0.0
2186,50.0,160.0,120.0,4.0,0.0
2187,78.0,2.0,330.0,1.0,0.0
2188,66.0,123.0,330.0,1.0,0.0
2189,53.0,32.0,120.0,4.0,0.0
2190,43.0,32.0,120.0,4.0,0.0
2191,79.0,288.0,150.0,1.0,0.0
2192,67.0,0.0,150.0,1.0,0.0
2193,36.0,3.0,1110.0,5.0,0.0
2194,81.0,128.0,330.0,1.0,0.0
2195,76.0,0.0,330.0,2.0,0.0
2196,72.0,0.0,330.0,2.0,0.0
2197,70.0,5.0,300.0,2.0,0.0
2198,43.0,27.0,120.0,4.0,0.0
2199,46.0,32.0,120.0,4.0,0.0
2200,79.0,128.0,150.0,1.0,0.0
2201,48.0,32.0,120.0,4.0,0.0
2202,76.0,128.0,150.0,1.0,0.0
2203,72.0,128.0,150.0,1.0,0.0
2204,52.0,32.0,120.0,4.0,0.0
2205,55.0,32.0,120.0,4.0,0.0
2206,70.0,157.0,150.0,1.0,0.0
2207,67.0,33.0,150.0,1.0,0.0
2208,58.0,127.0,180.0,4.0,0.0
2209,64.0,160.0,150.0,1.0,0.0
2210,60.0,288.0,150.0,1.0,0.0
2211,33.0,5.0,1260.0,5.0,0.0
2212,60.0,128.0,810.0,1.0,0.0
2213,36.0,160.0,120.0,4.0,0.0
2214,40.0,160.0,120.0,4.0,0.0
2215,41.0,160.0,120.0,4.0,0.0
2216,45.0,32.0,120.0,4.0,0.0
2217,48.0,32.0,120.0,4.0,0.0
2218,57.0,128.0,150.0,1.0,0.0
2219,55.0,128.0,330.0,1.0,0.0
2220,52.0,160.0,120.0,4.0,0.0
2221,53.0,27.0,120.0,4.0,0.0
2222,45.0,32.0,120.0,4.0,0.0
2223,53.0,288.0,150.0,1.0,0.0
2224,61.0,123.0,810.0,1.0,0.0
2225,53.0,128.0,480.0,1.0,0.0
2226,34.0,133.0,1260.0,5.0,0.0
2227,37.0,160.0,120.0,4.0,0.0
2228,41.0,32.0,120.0,4.0,0.0
2229,43.0,160.0,120.0,4.0,0.0
2230,52.0,123.0,480.0,2.0,0.0
2231,46.0,37.0,120.0,4.0,0.0
2232,58.0,5.0,150.0,1.0,0.0
2233,49.0,32.0,120.0,4.0,0.0
2234,57.0,0.0,300.0,1.0,0.0
2235,51.0,160.0,120.0,4.0,0.0
2236,49.0,27.0,120.0,4.0,0.0
2237,46.0,32.0,120.0,4.0,0.0
2238,55.0,288.0,150.0,1.0,0.0
2239,33.0,8.0,1290.0,5.0,0.0
2240,56.0,128.0,480.0,1.0,0.0
2241,72.0,123.0,780.0,1.0,0.0
2242,36.0,160.0,120.0,4.0,0.0
2243,40.0,32.0,120.0,4.0,0.0
2244,57.0,128.0,480.0,2.0,0.0
2245,41.0,160.0,120.0,4.0,0.0
2246,45.0,37.0,120.0,4.0,0.0
2247,48.0,32.0,120.0,4.0,0.0
2248,69.0,0.0,150.0,1.0,0.0
2249,67.0,118.0,330.0,1.0,0.0
2250,51.0,160.0,120.0,4.0,0.0
2251,57.0,34.0,120.0,1.0,0.0
2252,45.0,32.0,120.0,4.0,0.0
2253,65.0,288.0,15.0,1.0,0.0
2254,34.0,5.0,1260.0,5.0,0.0
2255,74.0,118.0,810.0,1.0,0.0
2256,38.0,160.0,120.0,4.0,0.0
2257,42.0,32.0,120.0,4.0,0.0
2258,43.0,160.0,120.0,4.0,0.0
2259,67.0,0.0,480.0,2.0,0.0
2260,46.0,42.0,120.0,4.0,0.0
2261,70.0,128.0,150.0,1.0,0.0
2262,50.0,32.0,120.0,4.0,0.0
2263,54.0,160.0,120.0,4.0,0.0
2264,69.0,128.0,330.0,1.0,0.0
2265,55.0,27.0,120.0,4.0,0.0
2266,46.0,32.0,120.0,4.0,0.0
2267,67.0,320.0,150.0,1.0,0.0
2268,53.0,160.0,330.0,1.0,0.0
2269,35.0,150.0,1290.0,5.0,0.0
2270,68.0,150.0,450.0,1.0,0.0
2271,38.0,0.0,150.0,4.0,0.0
2272,56.0,0.0,150.0,1.0,0.0
2273,41.0,10.0,150.0,4.0,0.0
2274,44.0,160.0,150.0,4.0,0.0
2275,59.0,160.0,330.0,1.0,0.0
2276,47.0,0.0,150.0,4.0,0.0
2277,53.0,160.0,150.0,4.0,0.0
2278,62.0,0.0,150.0,1.0,0.0
2279,65.0,5.0,330.0,1.0,0.0
2280,56.0,160.0,150.0,4.0,0.0
2281,53.0,5.0,150.0,4.0,0.0
2282,68.0,320.0,150.0,2.0,0.0
2283,50.0,0.0,150.0,4.0,0.0
2284,77.0,0.0,15.0,1.0,0.0
2285,65.0,0.0,810.0,1.0,0.0
2286,36.0,15.0,1260.0,5.0,0.0
2287,69.0,160.0,810.0,2.0,0.0
2288,41.0,160.0,150.0,4.0,0.0
2289,45.0,160.0,150.0,4.0,0.0
2290,48.0,155.0,150.0,4.0,0.0
2291,53.0,0.0,150.0,4.0,0.0
2292,57.0,0.0,150.0,4.0,0.0
2293,60.0,0.0,150.0,1.0,0.0
2294,72.0,160.0,150.0,1.0,0.0
2295,53.0,140.0,150.0,4.0,0.0
2296,58.0,5.0,300.0,1.0,0.0
2297,70.0,0.0,330.0,1.0,0.0
2298,48.0,160.0,150.0,4.0,0.0
2299,57.0,0.0,150.0,1.0,0.0
2300,69.0,0.0,150.0,1.0,0.0
2301,36.0,320.0,150.0,4.0,0.0
2302,53.0,155.0,330.0,1.0,0.0
2303,35.0,13.0,1260.0,5.0,0.0
2304,38.0,5.0,150.0,4.0,0.0
2305,56.0,0.0,150.0,1.0,0.0
2306,41.0,160.0,150.0,4.0,0.0
2307,44.0,155.0,150.0,4.0,0.0
2308,59.0,5.0,300.0,1.0,0.0
2309,47.0,160.0,150.0,4.0,0.0
2310,62.0,160.0,150.0,1.0,0.0
2311,53.0,0.0,150.0,4.0,0.0
2312,65.0,155.0,330.0,1.0,0.0
2313,56.0,147.0,150.0,4.0,0.0
2314,50.0,5.0,150.0,4.0,0.0
2315,77.0,320.0,150.0,1.0,0.0
2316,47.0,0.0,150.0,4.0,0.0
2317,68.0,0.0,150.0,2.0,0.0
2318,35.0,5.0,1260.0,5.0,0.0
2319,65.0,160.0,330.0,1.0,0.0
2320,38.0,0.0,150.0,4.0,0.0
2321,41.0,0.0,150.0,4.0,0.0
2322,68.0,160.0,150.0,1.0,0.0
2323,71.0,0.0,330.0,1.0,0.0
2324,44.0,160.0,150.0,4.0,0.0
2325,47.0,160.0,150.0,4.0,0.0
2326,74.0,160.0,150.0,1.0,0.0
2327,53.0,0.0,150.0,4.0,0.0
2328,77.0,0.0,150.0,1.0,0.0
2329,56.0,155.0,150.0,4.0,0.0
2330,50.0,160.0,150.0,4.0,0.0
2331,80.0,0.0,150.0,1.0,0.0
2332,86.0,0.0,150.0,1.0,0.0
2333,47.0,40.0,150.0,4.0,0.0
2334,36.0,40.0,40.0,5.0,0.0
2335,48.0,280.0,40.0,5.0,0.0
2336,57.0,0.0,240.0,5.0,0.0
2337,69.0,78.0,240.0,5.0,0.0
2338,89.0,0.0,480.0,1.0,0.0
2339,77.0,0.0,480.0,1.0,0.0
2340,81.0,78.0,480.0,2.0,0.0
2341,48.0,120.0,90.0,5.0,0.0
2342,60.0,0.0,90.0,5.0,0.0
2343,50.0,0.0,90.0,5.0,0.0
2344,62.0,42.0,90.0,5.0,0.0
2345,76.0,0.0,90.0,1.0,0.0
2346,64.0,0.0,90.0,5.0,0.0
2347,52.0,120.0,90.0,5.0,0.0
2348,88.0,0.0,90.0,1.0,0.0
2349,81.0,0.0,90.0,1.0,0.0
2350,57.0,120.0,90.0,5.0,0.0
2351,45.0,0.0,90.0,5.0,0.0
2352,69.0,0.0,90.0,1.0,0.0
2353,71.0,0.0,90.0,1.0,0.0
2354,83.0,0.0,90.0,1.0,0.0
2355,47.0,282.0,90.0,5.0,0.0
2356,59.0,0.0,90.0,5.0,0.0
2357,72.0,0.0,240.0,1.0,0.0
2358,84.0,0.0,240.0,1.0,0.0
2359,60.0,280.0,240.0,5.0,0.0
2360,48.0,0.0,240.0,5.0,0.0
2361,36.0,40.0,40.0,5.0,0.0
2362,48.0,280.0,40.0,5.0,0.0
2363,69.0,0.0,480.0,2.0,0.0
2364,77.0,0.0,480.0,1.0,0.0
2365,65.0,78.0,480.0,1.0,0.0
2366,57.0,78.0,240.0,5.0,0.0
2367,48.0,120.0,90.0,5.0,0.0
2368,50.0,42.0,90.0,5.0,0.0
2369,76.0,0.0,90.0,1.0,0.0
2370,64.0,120.0,90.0,1.0,0.0
2371,52.0,0.0,90.0,5.0,0.0
2372,45.0,0.0,90.0,5.0,0.0
2373,69.0,120.0,90.0,1.0,0.0
2374,57.0,0.0,90.0,1.0,0.0
2375,71.0,0.0,90.0,1.0,0.0
2376,59.0,0.0,90.0,1.0,0.0
2377,47.0,282.0,90.0,5.0,0.0
2378,72.0,0.0,240.0,1.0,0.0
2379,60.0,280.0,240.0,1.0,0.0
2380,48.0,0.0,240.0,5.0,0.0
2381,38.0,40.0,40.0,5.0,0.0
2382,50.0,280.0,40.0,5.0,0.0
2383,58.0,78.0,240.0,5.0,0.0
2384,79.0,0.0,480.0,1.0,0.0
2385,67.0,78.0,480.0,1.0,0.0
2386,70.0,0.0,480.0,2.0,0.0
2387,50.0,120.0,90.0,5.0,0.0
2388,51.0,42.0,90.0,5.0,0.0
2389,77.0,0.0,90.0,1.0,0.0
2390,53.0,120.0,90.0,5.0,0.0
2391,65.0,0.0,90.0,1.0,0.0
2392,46.0,120.0,90.0,5.0,0.0
2393,58.0,0.0,90.0,1.0,0.0
2394,70.0,0.0,90.0,1.0,0.0
2395,60.0,0.0,90.0,1.0,0.0
2396,72.0,0.0,90.0,1.0,0.0
2397,48.0,282.0,90.0,5.0,0.0
2398,74.0,0.0,240.0,1.0,0.0
2399,62.0,0.0,240.0,1.0,0.0
2400,50.0,280.0,240.0,5.0,0.0
2401,39.0,40.0,40.0,5.0,0.0
2402,51.0,358.0,40.0,5.0,0.0
2403,67.0,0.0,480.0,1.0,0.0
2404,69.0,0.0,480.0,1.0,0.0
2405,72.0,78.0,480.0,2.0,0.0
2406,79.0,0.0,480.0,1.0,0.0
2407,51.0,120.0,90.0,5.0,0.0
2408,53.0,42.0,90.0,5.0,0.0
2409,66.0,0.0,90.0,1.0,0.0
2410,78.0,0.0,90.0,1.0,0.0
2411,54.0,120.0,90.0,5.0,0.0
2412,60.0,120.0,90.0,1.0,0.0
2413,72.0,0.0,90.0,1.0,0.0
2414,48.0,0.0,90.0,5.0,0.0
2415,74.0,0.0,90.0,1.0,0.0
2416,62.0,0.0,90.0,1.0,0.0
2417,50.0,282.0,90.0,5.0,0.0
2418,51.0,528.0,240.0,5.0,0.0
2419,75.0,0.0,240.0,1.0,0.0
2420,63.0,0.0,240.0,1.0,0.0
2421,73.0,0.0,960.0,2.0,0.0
2422,69.0,4.0,960.0,2.0,0.0
2423,79.0,8.0,810.0,1.0,0.0
2424,67.0,122.0,810.0,1.0,0.0
2425,40.0,61.0,1200.0,5.0,0.0
2426,43.0,160.0,120.0,4.0,0.0
2427,45.0,160.0,120.0,4.0,0.0
2428,49.0,190.0,120.0,4.0,0.0
2429,40.0,55.0,480.0,4.0,0.0
2430,76.0,0.0,150.0,1.0,0.0
2431,64.0,128.0,150.0,1.0,0.0
2432,43.0,28.0,120.0,4.0,0.0
2433,62.0,130.0,330.0,1.0,0.0
2434,74.0,0.0,330.0,1.0,0.0
2435,45.0,44.0,120.0,4.0,0.0
2436,49.0,30.0,120.0,4.0,0.0
2437,40.0,32.0,120.0,4.0,0.0
2438,61.0,288.0,150.0,1.0,0.0
2439,73.0,0.0,150.0,1.0,0.0
2440,41.0,61.0,1200.0,5.0,0.0
2441,61.0,124.0,1440.0,1.0,0.0
2442,73.0,0.0,960.0,1.0,0.0
2443,68.0,0.0,1440.0,2.0,0.0
2444,65.0,128.0,960.0,2.0,0.0
2445,44.0,160.0,120.0,4.0,0.0
2446,47.0,160.0,120.0,4.0,0.0
2447,50.0,320.0,120.0,4.0,0.0
2448,38.0,62.0,480.0,4.0,0.0
2449,41.0,32.0,120.0,4.0,0.0
2450,59.0,3.0,480.0,1.0,0.0
2451,44.0,37.0,120.0,4.0,0.0
2452,71.0,0.0,480.0,1.0,0.0
2453,50.0,160.0,120.0,4.0,0.0
2454,32.0,32.0,120.0,4.0,0.0
2455,57.0,0.0,120.0,1.0,0.0
2456,69.0,160.0,120.0,1.0,0.0
2457,67.0,1.0,120.0,2.0,0.0
2458,64.0,0.0,120.0,2.0,0.0
2459,33.0,133.0,1260.0,5.0,0.0
2460,37.0,160.0,120.0,4.0,0.0
2461,67.0,7.0,420.0,1.0,0.0
2462,79.0,11.0,450.0,1.0,0.0
2463,69.0,4.0,420.0,2.0,0.0
2464,73.0,0.0,450.0,2.0,0.0
2465,40.0,160.0,120.0,4.0,0.0
2466,45.0,138.0,120.0,4.0,0.0
2467,45.0,160.0,120.0,4.0,0.0
2468,69.0,0.0,420.0,2.0,0.0
2469,73.0,15.0,420.0,2.0,0.0
2470,52.0,160.0,120.0,4.0,0.0
2471,66.0,3.0,420.0,1.0,0.0
2472,78.0,0.0,420.0,1.0,0.0
2473,55.0,142.0,120.0,4.0,0.0
2474,57.0,27.0,120.0,4.0,0.0
2475,64.0,0.0,120.0,1.0,0.0
2476,45.0,0.0,120.0,4.0,0.0
2477,76.0,320.0,120.0,1.0,0.0
2478,33.0,126.0,1290.0,5.0,0.0
2479,68.0,0.0,1440.0,2.0,0.0
2480,71.0,125.0,1440.0,2.0,0.0
2481,64.0,128.0,960.0,1.0,0.0
2482,76.0,0.0,960.0,1.0,0.0
2483,38.0,160.0,120.0,4.0,0.0
2484,41.0,160.0,120.0,4.0,0.0
2485,44.0,160.0,120.0,4.0,0.0
2486,47.0,160.0,120.0,4.0,0.0
2487,50.0,32.0,120.0,4.0,0.0
2488,62.0,0.0,480.0,1.0,0.0
2489,74.0,3.0,480.0,1.0,0.0
2490,53.0,160.0,120.0,4.0,0.0
2491,56.0,34.0,120.0,4.0,0.0
2492,44.0,32.0,120.0,4.0,0.0
2493,69.0,0.0,120.0,2.0,0.0
2494,67.0,160.0,120.0,2.0,0.0
2495,33.0,126.0,1290.0,5.0,0.0
2496,73.0,0.0,120.0,1.0,0.0
2497,61.0,0.0,120.0,1.0,0.0
2498,40.0,160.0,120.0,4.0,0.0
2499,71.0,88.0,360.0,1.0,0.0
2500,76.0,0.0,360.0,2.0,0.0
2501,79.0,0.0,360.0,2.0,0.0
2502,83.0,0.0,360.0,1.0,0.0
2503,43.0,160.0,120.0,4.0,0.0
2504,45.0,72.0,120.0,4.0,0.0
2505,45.0,160.0,120.0,4.0,0.0
2506,76.0,0.0,360.0,2.0,0.0
2507,79.0,88.0,360.0,2.0,0.0
2508,52.0,160.0,120.0,4.0,0.0
2509,82.0,0.0,360.0,1.0,0.0
2510,70.0,0.0,360.0,1.0,0.0
2511,55.0,72.0,120.0,4.0,0.0
2512,57.0,34.0,120.0,4.0,0.0
2513,69.0,0.0,360.0,1.0,0.0
2514,79.0,88.0,360.0,2.0,0.0
2515,76.0,0.0,360.0,2.0,0.0
2516,45.0,232.0,120.0,4.0,0.0
2517,81.0,0.0,360.0,1.0,0.0
2518,33.0,133.0,1260.0,5.0,0.0
2519,40.0,160.0,120.0,4.0,0.0
2520,43.0,160.0,120.0,4.0,0.0
2521,81.0,0.0,360.0,2.0,0.0
2522,76.0,0.0,360.0,1.0,0.0
2523,88.0,88.0,360.0,1.0,0.0
2524,79.0,0.0,360.0,2.0,0.0
2525,45.0,72.0,120.0,4.0,0.0
2526,45.0,160.0,120.0,4.0,0.0
2527,81.0,0.0,360.0,2.0,0.0
2528,75.0,0.0,360.0,1.0,0.0
2529,52.0,160.0,120.0,4.0,0.0
2530,87.0,88.0,360.0,1.0,0.0
2531,79.0,0.0,360.0,2.0,0.0
2532,55.0,72.0,120.0,4.0,0.0
2533,57.0,27.0,120.0,4.0,0.0
2534,74.0,0.0,120.0,1.0,0.0
2535,45.0,0.0,120.0,4.0,0.0
2536,81.0,0.0,120.0,2.0,0.0
2537,79.0,160.0,120.0,2.0,0.0
2538,86.0,0.0,120.0,1.0,0.0
2539,73.0,0.0,120.0,1.0,0.0
2540,33.0,133.0,1260.0,5.0,0.0
2541,81.0,160.0,120.0,2.0,0.0
2542,79.0,0.0,120.0,2.0,0.0
2543,85.0,0.0,120.0,1.0,0.0
2544,40.0,160.0,120.0,4.0,0.0
2545,91.0,0.0,360.0,1.0,0.0
2546,81.0,0.0,360.0,1.0,0.0
2547,43.0,160.0,120.0,4.0,0.0
2548,79.0,0.0,360.0,2.0,0.0
2549,85.0,88.0,360.0,2.0,0.0
2550,45.0,72.0,120.0,4.0,0.0
2551,45.0,160.0,120.0,4.0,0.0
2552,52.0,160.0,120.0,4.0,0.0
2553,81.0,88.0,360.0,2.0,0.0
2554,78.0,0.0,360.0,1.0,0.0
2555,85.0,0.0,360.0,2.0,0.0
2556,90.0,0.0,360.0,1.0,0.0
2557,55.0,72.0,120.0,4.0,0.0
2558,57.0,27.0,120.0,4.0,0.0
2559,88.0,179.0,120.0,1.0,0.0
2560,45.0,2.0,120.0,4.0,0.0
2561,81.0,3.0,120.0,2.0,0.0
2562,76.0,0.0,120.0,1.0,0.0
2563,85.0,0.0,120.0,2.0,0.0
2564,45.0,32.0,240.0,5.0,0.0
2565,52.0,8.0,180.0,4.0,0.0
2566,93.0,240.0,180.0,1.0,0.0
2567,61.0,0.0,180.0,4.0,0.0
2568,55.0,0.0,180.0,4.0,0.0
2569,81.0,0.0,180.0,1.0,0.0
2570,92.0,0.0,180.0,1.0,0.0
2571,80.0,168.0,180.0,1.0,0.0
2572,79.0,0.0,120.0,1.0,0.0
2573,91.0,120.0,120.0,1.0,0.0
2574,88.0,0.0,120.0,1.0,0.0
2575,76.0,120.0,120.0,1.0,0.0
2576,85.0,0.0,120.0,1.0,0.0
2577,73.0,120.0,120.0,1.0,0.0
2578,81.0,120.0,120.0,1.0,0.0
2579,69.0,0.0,120.0,1.0,0.0
2580,67.0,120.0,120.0,1.0,0.0
2581,79.0,0.0,120.0,1.0,0.0
2582,64.0,120.0,120.0,1.0,0.0
2583,76.0,0.0,120.0,1.0,0.0
2584,73.0,120.0,120.0,1.0,0.0
2585,61.0,0.0,120.0,1.0,0.0
2586,69.0,0.0,120.0,1.0,0.0
2587,57.0,192.0,120.0,1.0,0.0
2588,81.0,240.0,180.0,1.0,0.0
2589,69.0,0.0,180.0,1.0,0.0
2590,80.0,168.0,180.0,1.0,0.0
2591,68.0,0.0,180.0,1.0,0.0
2592,67.0,0.0,120.0,1.0,0.0
2593,79.0,120.0,120.0,1.0,0.0
2594,76.0,120.0,120.0,1.0,0.0
2595,64.0,0.0,120.0,1.0,0.0
2596,73.0,0.0,120.0,1.0,0.0
2597,61.0,120.0,120.0,1.0,0.0
2598,69.0,0.0,120.0,1.0,0.0
2599,57.0,120.0,120.0,1.0,0.0
2600,67.0,0.0,120.0,1.0,0.0
2601,55.0,120.0,120.0,1.0,0.0
2602,64.0,120.0,120.0,1.0,0.0
2603,52.0,0.0,120.0,1.0,0.0
2604,49.0,120.0,120.0,1.0,0.0
2605,61.0,0.0,120.0,1.0,0.0
2606,45.0,120.0,120.0,1.0,0.0
2607,57.0,0.0,120.0,1.0,0.0
2608,55.0,120.0,120.0,1.0,0.0
2609,43.0,0.0,120.0,1.0,0.0
2610,52.0,120.0,120.0,1.0,0.0
2611,40.0,0.0,120.0,1.0,0.0
2612,49.0,120.0,120.0,1.0,0.0
2613,37.0,0.0,120.0,1.0,0.0
2614,45.0,0.0,120.0,1.0,0.0
2615,33.0,120.0,120.0,1.0,0.0
2616,49.0,120.0,120.0,1.0,0.0
2617,21.0,0.0,240.0,5.0,0.0
2618,52.0,120.0,120.0,1.0,0.0
2619,55.0,120.0,120.0,1.0,0.0
2620,57.0,120.0,120.0,1.0,0.0
2621,61.0,120.0,120.0,1.0,0.0
2622,64.0,120.0,120.0,1.0,0.0
2623,67.0,120.0,120.0,1.0,0.0
2624,69.0,120.0,120.0,1.0,0.0
2625,33.0,5.0,300.0,5.0,0.0
2626,49.0,115.0,300.0,4.0,0.0
2627,52.0,0.0,240.0,4.0,0.0
2628,55.0,0.0,240.0,4.0,0.0
2629,61.0,115.0,120.0,1.0,0.0
2630,57.0,0.0,240.0,4.0,0.0
2631,64.0,5.0,120.0,1.0,0.0
2632,67.0,120.0,120.0,1.0,0.0
2633,69.0,60.0,120.0,1.0,0.0
2634,73.0,60.0,60.0,1.0,0.0
2635,76.0,60.0,60.0,1.0,0.0
2636,79.0,60.0,60.0,1.0,0.0
2637,81.0,60.0,60.0,1.0,0.0
2638,85.0,60.0,60.0,1.0,0.0
2639,88.0,60.0,60.0,1.0,0.0
2640,91.0,60.0,60.0,1.0,0.0
2641,93.0,240.0,60.0,1.0,0.0
2642,97.0,280.0,240.0,1.0,0.0
2643,32.0,0.0,40.0,5.0,0.0
2644,86.0,40.0,40.0,1.0,0.0
2645,35.0,0.0,40.0,4.0,0.0
2646,89.0,40.0,40.0,2.0,0.0
2647,38.0,0.0,40.0,4.0,0.0
2648,92.0,40.0,40.0,2.0,0.0
2649,95.0,0.0,40.0,2.0,0.0
2650,41.0,40.0,40.0,4.0,0.0
2651,98.0,0.0,40.0,1.0,0.0
2652,44.0,238.0,40.0,5.0,0.0
2653,77.0,120.0,90.0,1.0,0.0
2654,65.0,0.0,90.0,5.0,0.0
2655,53.0,0.0,90.0,5.0,0.0
2656,89.0,0.0,90.0,1.0,0.0
2657,79.0,0.0,90.0,1.0,0.0
2658,67.0,0.0,90.0,5.0,0.0
2659,55.0,0.0,90.0,5.0,0.0
2660,91.0,120.0,90.0,1.0,0.0
2661,56.0,120.0,90.0,5.0,0.0
2662,92.0,0.0,90.0,1.0,0.0
2663,80.0,0.0,90.0,1.0,0.0
2664,68.0,0.0,90.0,5.0,0.0
2665,62.0,0.0,90.0,5.0,0.0
2666,50.0,0.0,90.0,5.0,0.0
2667,86.0,0.0,90.0,1.0,0.0
2668,74.0,120.0,90.0,1.0,0.0
2669,76.0,0.0,90.0,1.0,0.0
2670,88.0,0.0,90.0,1.0,0.0
2671,64.0,0.0,90.0,5.0,0.0
2672,52.0,762.0,90.0,5.0,0.0
2673,53.0,198.0,720.0,5.0,0.0
2674,65.0,0.0,720.0,5.0,0.0
2675,89.0,0.0,720.0,1.0,0.0
2676,77.0,0.0,720.0,1.0,0.0
2677,59.0,120.0,90.0,5.0,0.0
2678,47.0,0.0,90.0,5.0,0.0
2679,83.0,0.0,90.0,1.0,0.0
2680,71.0,0.0,90.0,1.0,0.0
2681,48.0,0.0,90.0,5.0,0.0
2682,60.0,120.0,90.0,5.0,0.0
2683,72.0,0.0,90.0,1.0,0.0
2684,84.0,0.0,90.0,1.0,0.0
2685,62.0,0.0,90.0,5.0,0.0
2686,74.0,0.0,90.0,1.0,0.0
2687,86.0,120.0,90.0,1.0,0.0
2688,50.0,0.0,90.0,5.0,0.0
2689,41.0,0.0,90.0,5.0,0.0
2690,53.0,0.0,90.0,5.0,0.0
2691,77.0,120.0,90.0,1.0,0.0
2692,65.0,0.0,90.0,1.0,0.0
2693,55.0,0.0,90.0,5.0,0.0
2694,43.0,0.0,90.0,5.0,0.0
2695,79.0,0.0,90.0,1.0,0.0
2696,67.0,1482.0,90.0,1.0,0.0
2697,44.0,0.0,1440.0,5.0,0.0
2698,56.0,0.0,1440.0,5.0,0.0
2699,68.0,0.0,1440.0,1.0,0.0
2700,80.0,960.0,1440.0,1.0,0.0
2701,56.0,120.0,15.0,1.0,0.0
2702,39.0,0.0,120.0,3.0,0.0
2703,32.0,0.0,120.0,5.0,0.0
2704,42.0,120.0,120.0,3.0,0.0
2705,57.0,0.0,15.0,1.0,0.0
2706,32.0,0.0,120.0,5.0,0.0
2707,39.0,120.0,120.0,3.0,0.0
2708,42.0,0.0,120.0,3.0,0.0
2709,56.0,120.0,15.0,1.0,0.0
2710,39.0,0.0,120.0,3.0,0.0
2711,32.0,120.0,120.0,5.0,0.0
2712,42.0,120.0,120.0,3.0,0.0
2713,39.0,0.0,120.0,3.0,0.0
2714,60.0,0.0,15.0,1.0,0.0
2715,32.0,120.0,120.0,5.0,0.0
2716,42.0,0.0,120.0,3.0,0.0
2717,56.0,120.0,120.0,1.0,0.0
2718,32.0,0.0,120.0,5.0,0.0
2719,39.0,120.0,120.0,3.0,0.0
2720,56.0,0.0,120.0,1.0,0.0
2721,63.0,120.0,120.0,1.0,0.0
2722,42.0,0.0,120.0,3.0,0.0
2723,39.0,0.0,120.0,3.0,0.0
2724,32.0,0.0,120.0,5.0,0.0
2725,63.0,120.0,120.0,1.0,0.0
2726,42.0,120.0,120.0,3.0,0.0
2727,56.0,0.0,120.0,1.0,0.0
2728,39.0,0.0,120.0,3.0,0.0
2729,32.0,120.0,120.0,5.0,0.0
2730,56.0,0.0,120.0,1.0,0.0
2731,69.0,0.0,120.0,1.0,0.0
2732,42.0,120.0,120.0,3.0,0.0
2733,32.0,0.0,120.0,5.0,0.0
2734,69.0,0.0,120.0,1.0,0.0
2735,39.0,120.0,120.0,3.0,0.0
2736,42.0,120.0,120.0,3.0,0.0
2737,56.0,0.0,120.0,1.0,0.0
2738,32.0,117.0,120.0,5.0,0.0
2739,39.0,0.0,120.0,3.0,0.0
2740,56.0,3.0,120.0,1.0,0.0
2741,42.0,0.0,120.0,3.0,0.0
2742,32.0,120.0,120.0,5.0,0.0
2743,39.0,0.0,120.0,3.0,0.0
2744,72.0,120.0,15.0,1.0,0.0
2745,66.0,0.0,120.0,1.0,0.0
2746,42.0,120.0,120.0,3.0,0.0
2747,33.0,120.0,120.0,5.0,0.0
2748,66.0,0.0,120.0,1.0,0.0
2749,39.0,0.0,120.0,3.0,0.0
2750,75.0,0.0,120.0,1.0,0.0
2751,42.0,120.0,120.0,3.0,0.0
2752,75.0,120.0,120.0,1.0,0.0
2753,33.0,0.0,120.0,5.0,0.0
2754,39.0,0.0,120.0,3.0,0.0
2755,42.0,0.0,120.0,3.0,0.0
2756,66.0,120.0,15.0,1.0,0.0
2757,33.0,0.0,120.0,5.0,0.0
2758,39.0,120.0,120.0,3.0,0.0
2759,81.0,0.0,120.0,1.0,0.0
2760,42.0,120.0,120.0,3.0,0.0
2761,39.0,120.0,120.0,3.0,0.0
2762,81.0,0.0,120.0,1.0,0.0
2763,33.0,0.0,120.0,5.0,0.0
2764,66.0,0.0,120.0,1.0,0.0
2765,42.0,120.0,120.0,3.0,0.0
2766,69.0,0.0,120.0,1.0,0.0
2767,33.0,0.0,120.0,5.0,0.0
2768,39.0,120.0,120.0,3.0,0.0
2769,42.0,0.0,120.0,3.0,0.0
2770,39.0,0.0,120.0,3.0,0.0
2771,33.0,120.0,120.0,5.0,0.0
2772,84.0,120.0,15.0,1.0,0.0
2773,69.0,120.0,120.0,1.0,0.0
2774,42.0,0.0,120.0,3.0,0.0
2775,33.0,0.0,120.0,5.0,0.0
2776,39.0,120.0,120.0,3.0,0.0
2777,66.0,0.0,120.0,1.0,0.0
2778,42.0,120.0,120.0,3.0,0.0
2779,81.0,0.0,15.0,1.0,0.0
2780,33.0,120.0,120.0,5.0,0.0
2781,39.0,0.0,120.0,3.0,0.0
2782,42.0,120.0,120.0,3.0,0.0
2783,66.0,0.0,120.0,1.0,0.0
2784,69.0,0.0,120.0,1.0,0.0
2785,39.0,120.0,120.0,3.0,0.0
2786,33.0,0.0,120.0,5.0,0.0
2787,42.0,0.0,120.0,3.0,0.0
2788,39.0,0.0,120.0,3.0,0.0
2789,84.0,120.0,15.0,1.0,0.0
2790,33.0,120.0,120.0,5.0,0.0
2791,42.0,120.0,120.0,3.0,0.0
2792,33.0,0.0,210.0,5.0,0.0
2793,45.0,1.0,180.0,4.0,0.0
2794,51.0,80.0,180.0,4.0,0.0
2795,69.0,0.0,15.0,1.0,0.0
2796,54.0,4.0,150.0,4.0,0.0
2797,63.0,0.0,150.0,4.0,0.0
2798,81.0,120.0,120.0,1.0,0.0
2799,33.0,80.0,210.0,5.0,0.0
2800,45.0,11.0,180.0,4.0,0.0
2801,51.0,0.0,180.0,4.0,0.0
2802,54.0,0.0,150.0,4.0,0.0
2803,63.0,4.0,150.0,4.0,0.0
2804,81.0,25.0,120.0,1.0,0.0
2805,93.0,180.0,120.0,1.0,0.0
2806,82.0,0.0,180.0,1.0,0.0
2807,45.0,40.0,180.0,5.0,0.0
2808,52.0,0.0,180.0,4.0,0.0
2809,88.0,40.0,180.0,2.0,0.0
2810,55.0,40.0,180.0,4.0,0.0
2811,91.0,0.0,180.0,2.0,0.0
2812,94.0,156.0,180.0,1.0,0.0
2813,61.0,0.0,180.0,5.0,0.0
2814,57.0,120.0,90.0,5.0,0.0
2815,81.0,0.0,90.0,1.0,0.0
2816,93.0,0.0,90.0,1.0,0.0
2817,45.0,0.0,90.0,5.0,0.0
2818,92.0,0.0,90.0,1.0,0.0
2819,80.0,0.0,90.0,1.0,0.0
2820,44.0,0.0,90.0,5.0,0.0
2821,56.0,120.0,90.0,5.0,0.0
2822,55.0,0.0,90.0,5.0,0.0
2823,79.0,0.0,90.0,1.0,0.0
2824,91.0,120.0,90.0,1.0,0.0
2825,43.0,0.0,90.0,5.0,0.0
2826,54.0,0.0,90.0,5.0,0.0
2827,78.0,0.0,90.0,1.0,0.0
2828,90.0,120.0,90.0,1.0,0.0
2829,42.0,0.0,90.0,5.0,0.0
2830,53.0,0.0,90.0,5.0,0.0
2831,89.0,0.0,90.0,1.0,0.0
2832,41.0,0.0,90.0,5.0,0.0
2833,77.0,120.0,90.0,1.0,0.0
2834,52.0,0.0,90.0,5.0,0.0
2835,40.0,120.0,90.0,5.0,0.0
2836,88.0,0.0,90.0,1.0,0.0
2837,76.0,0.0,90.0,1.0,0.0
2838,51.0,0.0,90.0,5.0,0.0
2839,87.0,0.0,90.0,1.0,0.0
2840,39.0,120.0,90.0,5.0,0.0
2841,75.0,0.0,90.0,1.0,0.0
2842,50.0,120.0,90.0,5.0,0.0
2843,38.0,0.0,90.0,5.0,0.0
2844,86.0,0.0,90.0,1.0,0.0
2845,74.0,0.0,90.0,1.0,0.0
2846,37.0,0.0,90.0,5.0,0.0
2847,49.0,0.0,90.0,5.0,0.0
2848,85.0,120.0,90.0,1.0,0.0
2849,73.0,0.0,90.0,1.0,0.0
2850,36.0,120.0,90.0,5.0,0.0
2851,48.0,0.0,90.0,5.0,0.0
2852,84.0,0.0,90.0,1.0,0.0
2853,72.0,0.0,90.0,1.0,0.0
2854,83.0,120.0,90.0,1.0,0.0
2855,71.0,0.0,90.0,1.0,0.0
2856,47.0,0.0,90.0,5.0,0.0
2857,35.0,0.0,90.0,5.0,0.0
2858,70.0,120.0,90.0,1.0,0.0
2859,82.0,0.0,90.0,1.0,0.0
2860,46.0,0.0,90.0,5.0,0.0
2861,34.0,0.0,90.0,5.0,0.0
2862,45.0,0.0,90.0,5.0,0.0
2863,69.0,120.0,90.0,1.0,0.0
2864,81.0,0.0,90.0,1.0,0.0
2865,33.0,0.0,90.0,5.0,0.0
2866,44.0,0.0,90.0,5.0,0.0
2867,32.0,0.0,90.0,5.0,0.0
2868,68.0,0.0,90.0,1.0,0.0
2869,80.0,120.0,90.0,1.0,0.0
2870,43.0,120.0,90.0,5.0,0.0
2871,79.0,0.0,90.0,1.0,0.0
2872,67.0,0.0,90.0,1.0,0.0
2873,31.0,0.0,90.0,5.0,0.0
2874,78.0,0.0,90.0,1.0,0.0
2875,66.0,0.0,90.0,1.0,0.0
2876,42.0,0.0,90.0,5.0,0.0
2877,30.0,120.0,90.0,5.0,0.0
2878,45.0,120.0,90.0,5.0,0.0
2879,33.0,0.0,90.0,5.0,0.0
2880,69.0,0.0,90.0,1.0,0.0
2881,81.0,0.0,90.0,1.0,0.0
2882,77.0,120.0,90.0,1.0,0.0
2883,65.0,0.0,90.0,1.0,0.0
2884,29.0,0.0,90.0,5.0,0.0
2885,41.0,0.0,90.0,5.0,0.0
2886,33.0,0.0,90.0,5.0,0.0
2887,45.0,120.0,90.0,5.0,0.0
2888,69.0,0.0,90.0,1.0,0.0
2889,81.0,0.0,90.0,1.0,0.0
2890,76.0,0.0,90.0,1.0,0.0
2891,64.0,0.0,90.0,1.0,0.0
2892,40.0,120.0,90.0,5.0,0.0
2893,28.0,0.0,90.0,5.0,0.0
2894,81.0,264.0,90.0,1.0,0.0
2895,69.0,0.0,90.0,1.0,0.0
2896,45.0,0.0,90.0,5.0,0.0
2897,33.0,0.0,90.0,5.0,0.0
2898,26.0,3.0,240.0,5.0,0.0
2899,74.0,0.0,240.0,1.0,0.0
2900,77.0,0.0,210.0,2.0,0.0
2901,29.0,0.0,210.0,4.0,0.0
2902,33.0,0.0,150.0,4.0,0.0
2903,81.0,213.0,150.0,2.0,0.0
2904,38.0,0.0,120.0,5.0,0.0
2905,86.0,0.0,120.0,1.0,0.0
2906,77.0,0.0,90.0,1.0,0.0
2907,65.0,0.0,90.0,1.0,0.0
2908,41.0,120.0,90.0,5.0,0.0
2909,53.0,0.0,90.0,5.0,0.0
2910,55.0,0.0,90.0,5.0,0.0
2911,43.0,0.0,90.0,5.0,0.0
2912,67.0,120.0,90.0,1.0,0.0
2913,79.0,0.0,90.0,1.0,0.0
2914,45.0,0.0,90.0,5.0,0.0
2915,57.0,0.0,90.0,5.0,0.0
2916,81.0,120.0,90.0,1.0,0.0
2917,69.0,0.0,90.0,1.0,0.0
2918,38.0,120.0,90.0,5.0,0.0
2919,50.0,0.0,90.0,5.0,0.0
2920,62.0,0.0,90.0,1.0,0.0
2921,74.0,0.0,90.0,1.0,0.0
2922,76.0,0.0,90.0,1.0,0.0
2923,64.0,0.0,90.0,1.0,0.0
2924,40.0,0.0,90.0,5.0,0.0
2925,52.0,102.0,90.0,5.0,0.0
2926,55.0,0.0,90.0,5.0,0.0
2927,43.0,120.0,90.0,5.0,0.0
2928,65.0,0.0,240.0,1.0,0.0
2929,77.0,78.0,240.0,1.0,0.0
2930,45.0,42.0,90.0,5.0,0.0
2931,57.0,0.0,90.0,5.0,0.0
2932,79.0,0.0,90.0,1.0,0.0
2933,46.0,120.0,90.0,5.0,0.0
2934,67.0,0.0,90.0,1.0,0.0
2935,58.0,0.0,90.0,5.0,0.0
2936,40.0,120.0,90.0,5.0,0.0
2937,52.0,0.0,90.0,5.0,0.0
2938,69.0,0.0,90.0,1.0,0.0
2939,81.0,0.0,90.0,1.0,0.0
2940,43.0,0.0,240.0,5.0,0.0
2941,55.0,78.0,240.0,5.0,0.0
2942,70.0,120.0,90.0,1.0,0.0
2943,82.0,0.0,90.0,1.0,0.0
2944,72.0,42.0,90.0,1.0,0.0
2945,84.0,0.0,90.0,1.0,0.0
2946,77.0,120.0,90.0,1.0,0.0
2947,65.0,0.0,90.0,1.0,0.0
2948,45.0,0.0,90.0,5.0,0.0
2949,57.0,0.0,90.0,5.0,0.0
2950,67.0,0.0,90.0,1.0,0.0
2951,46.0,120.0,90.0,5.0,0.0
2952,58.0,0.0,90.0,5.0,0.0
2953,79.0,0.0,90.0,1.0,0.0
2954,81.0,78.0,240.0,1.0,0.0
2955,48.0,0.0,90.0,5.0,0.0
2956,69.0,0.0,240.0,1.0,0.0
2957,60.0,120.0,90.0,5.0,0.0
2958,50.0,42.0,90.0,5.0,0.0
2959,62.0,0.0,90.0,5.0,0.0
2960,82.0,0.0,90.0,1.0,0.0
2961,70.0,0.0,90.0,1.0,0.0
2962,55.0,0.0,90.0,5.0,0.0
2963,43.0,120.0,90.0,5.0,0.0
2964,72.0,0.0,90.0,1.0,0.0
2965,45.0,120.0,90.0,5.0,0.0
2966,84.0,0.0,90.0,1.0,0.0
2967,57.0,0.0,90.0,5.0,0.0
2968,58.0,0.0,360.0,5.0,0.0
2969,46.0,78.0,360.0,5.0,0.0
2970,86.0,0.0,90.0,1.0,0.0
2971,74.0,120.0,90.0,1.0,0.0
2972,87.0,0.0,90.0,1.0,0.0
2973,75.0,120.0,90.0,1.0,0.0
2974,75.0,42.0,90.0,2.0,0.0
2975,79.0,0.0,90.0,1.0,0.0
2976,67.0,0.0,90.0,1.0,0.0
2977,48.0,0.0,90.0,5.0,0.0
2978,36.0,0.0,90.0,5.0,0.0
2979,77.0,0.0,90.0,2.0,0.0
2980,68.0,120.0,90.0,1.0,0.0
2981,80.0,0.0,90.0,1.0,0.0
2982,50.0,0.0,90.0,5.0,0.0
2983,38.0,120.0,90.0,5.0,0.0
2984,82.0,78.0,360.0,1.0,0.0
2985,70.0,0.0,360.0,1.0,0.0
2986,79.0,0.0,360.0,2.0,0.0
2987,39.0,120.0,90.0,5.0,0.0
2988,51.0,0.0,90.0,5.0,0.0
2989,43.0,0.0,90.0,5.0,0.0
2990,31.0,42.0,90.0,5.0,0.0
2991,84.0,0.0,90.0,1.0,0.0
2992,44.0,0.0,90.0,5.0,0.0
2993,80.0,0.0,90.0,2.0,0.0
2994,32.0,120.0,90.0,5.0,0.0
2995,72.0,0.0,90.0,1.0,0.0
2996,86.0,0.0,90.0,1.0,0.0
2997,82.0,120.0,90.0,2.0,0.0
2998,46.0,78.0,360.0,5.0,0.0
2999,74.0,0.0,90.0,1.0,0.0
3000,34.0,0.0,360.0,5.0,0.0
3001,84.0,120.0,90.0,2.0,0.0
3002,75.0,0.0,90.0,1.0,0.0
3003,87.0,0.0,90.0,1.0,0.0
3004,75.0,42.0,90.0,2.0,0.0
3005,67.0,0.0,90.0,1.0,0.0
3006,79.0,0.0,90.0,1.0,0.0
3007,68.0,0.0,90.0,1.0,0.0
3008,77.0,42.0,90.0,2.0,0.0
3009,80.0,0.0,90.0,1.0,0.0
3010,48.0,120.0,120.0,5.0,0.0
3011,36.0,0.0,120.0,5.0,0.0
3012,70.0,0.0,360.0,1.0,0.0
3013,79.0,0.0,360.0,2.0,0.0
3014,50.0,120.0,120.0,5.0,0.0
3015,38.0,0.0,120.0,5.0,0.0
3016,82.0,0.0,360.0,1.0,0.0
3017,51.0,120.0,120.0,5.0,0.0
3018,39.0,0.0,120.0,5.0,0.0
3019,43.0,78.0,120.0,5.0,0.0
3020,31.0,0.0,120.0,5.0,0.0
3021,80.0,42.0,90.0,2.0,0.0
3022,72.0,0.0,90.0,1.0,0.0
3023,84.0,0.0,90.0,1.0,0.0
3024,32.0,78.0,120.0,5.0,0.0
3025,44.0,0.0,120.0,5.0,0.0
3026,74.0,0.0,90.0,1.0,0.0
3027,86.0,120.0,90.0,1.0,0.0
3028,46.0,0.0,720.0,5.0,0.0
3029,82.0,0.0,90.0,2.0,0.0
3030,34.0,120.0,720.0,5.0,0.0
3031,84.0,120.0,90.0,2.0,0.0
3032,87.0,0.0,90.0,1.0,0.0
3033,75.0,0.0,90.0,1.0,0.0
3034,75.0,0.0,90.0,2.0,0.0
3035,67.0,0.0,90.0,1.0,0.0
3036,79.0,120.0,90.0,1.0,0.0
3037,68.0,0.0,90.0,1.0,0.0
3038,80.0,0.0,90.0,1.0,0.0
3039,77.0,282.0,90.0,2.0,0.0
3040,79.0,0.0,720.0,2.0,0.0
3041,70.0,120.0,720.0,1.0,0.0
3042,82.0,0.0,720.0,1.0,0.0
3043,39.0,0.0,120.0,5.0,0.0
3044,43.0,120.0,120.0,5.0,0.0
3045,44.0,0.0,120.0,5.0,0.0
3046,41.0,240.0,120.0,5.0,0.0
3047,46.0,160.0,570.0,5.0,0.0
3048,43.0,0.0,570.0,5.0,0.0
3049,75.0,120.0,120.0,2.0,0.0
3050,79.0,0.0,120.0,1.0,0.0
3051,67.0,0.0,120.0,1.0,0.0
3052,68.0,104.0,120.0,1.0,0.0
3053,80.0,0.0,120.0,1.0,0.0
3054,77.0,0.0,120.0,2.0,0.0
3055,79.0,0.0,90.0,2.0,0.0
3056,82.0,0.0,90.0,1.0,0.0
3057,70.0,0.0,90.0,1.0,0.0
3058,40.0,0.0,90.0,5.0,0.0
3059,43.0,0.0,90.0,5.0,0.0
3060,76.0,0.0,90.0,2.0,0.0
3061,79.0,0.0,90.0,1.0,0.0
3062,67.0,160.0,90.0,1.0,0.0
3063,77.0,0.0,90.0,2.0,0.0
3064,69.0,0.0,90.0,1.0,0.0
3065,81.0,160.0,90.0,1.0,0.0
3066,45.0,0.0,90.0,5.0,0.0
3067,41.0,0.0,90.0,5.0,0.0
3068,79.0,0.0,90.0,2.0,0.0
3069,70.0,0.0,90.0,1.0,0.0
3070,46.0,160.0,90.0,5.0,0.0
3071,43.0,0.0,90.0,5.0,0.0
3072,82.0,0.0,90.0,1.0,0.0
3073,40.0,160.0,90.0,5.0,0.0
3074,43.0,0.0,90.0,5.0,0.0
3075,76.0,0.0,90.0,2.0,0.0
3076,79.0,0.0,90.0,1.0,0.0
3077,67.0,0.0,90.0,1.0,0.0
3078,41.0,0.0,90.0,5.0,0.0
3079,45.0,0.0,90.0,5.0,0.0
3080,69.0,0.0,90.0,1.0,0.0
3081,77.0,160.0,90.0,2.0,0.0
3082,81.0,0.0,90.0,1.0,0.0
3083,70.0,0.0,90.0,1.0,0.0
3084,82.0,0.0,90.0,1.0,0.0
3085,79.0,0.0,90.0,2.0,0.0
3086,43.0,0.0,90.0,5.0,0.0
3087,48.0,160.0,90.0,5.0,0.0
3088,40.0,0.0,90.0,5.0,0.0
3089,67.0,0.0,90.0,1.0,0.0
3090,79.0,160.0,90.0,1.0,0.0
3091,43.0,0.0,90.0,4.0,0.0
3092,76.0,0.0,90.0,2.0,0.0
3093,52.0,0.0,90.0,5.0,0.0
3094,46.0,0.0,90.0,4.0,0.0
3095,79.0,0.0,90.0,2.0,0.0
3096,70.0,212.0,90.0,1.0,0.0
3097,82.0,0.0,90.0,1.0,0.0
3098,55.0,0.0,90.0,5.0,0.0
3099,43.0,0.0,90.0,5.0,0.0
3100,58.0,0.0,150.0,4.0,0.0
3101,55.0,0.0,150.0,5.0,0.0
3102,67.0,0.0,150.0,5.0,0.0
3103,91.0,240.0,150.0,2.0,0.0
3104,82.0,0.0,150.0,1.0,0.0
3105,94.0,0.0,150.0,1.0,0.0
3106,60.0,0.0,150.0,4.0,0.0
3107,64.0,0.0,150.0,5.0,0.0
3108,52.0,240.0,150.0,5.0,0.0
3109,88.0,0.0,150.0,2.0,0.0
3110,91.0,0.0,150.0,1.0,0.0
3111,79.0,0.0,150.0,1.0,0.0
3112,60.0,0.0,150.0,5.0,0.0
3113,48.0,0.0,150.0,5.0,0.0
3114,52.0,0.0,150.0,4.0,0.0
3115,84.0,240.0,150.0,2.0,0.0
3116,88.0,0.0,150.0,1.0,0.0
3117,76.0,0.0,150.0,1.0,0.0
3118,82.0,0.0,150.0,2.0,0.0
3119,74.0,0.0,150.0,1.0,0.0
3120,50.0,240.0,150.0,4.0,0.0
3121,86.0,0.0,150.0,1.0,0.0
3122,46.0,0.0,150.0,5.0,0.0
3123,58.0,0.0,150.0,5.0,0.0
3124,46.0,0.0,150.0,4.0,0.0
3125,79.0,240.0,150.0,2.0,0.0
3126,55.0,0.0,150.0,5.0,0.0
3127,43.0,0.0,150.0,5.0,0.0
3128,70.0,0.0,150.0,1.0,0.0
3129,82.0,0.0,150.0,1.0,0.0
3130,52.0,0.0,150.0,5.0,0.0
3131,43.0,0.0,150.0,4.0,0.0
3132,40.0,0.0,150.0,5.0,0.0
3133,67.0,0.0,150.0,1.0,0.0
3134,76.0,0.0,150.0,2.0,0.0
3135,79.0,240.0,150.0,1.0,0.0
3136,40.0,0.0,150.0,4.0,0.0
3137,72.0,0.0,150.0,2.0,0.0
3138,64.0,0.0,150.0,1.0,0.0
3139,36.0,0.0,150.0,5.0,0.0
3140,48.0,0.0,150.0,5.0,0.0
3141,76.0,720.0,150.0,1.0,0.0
3142,74.0,0.0,150.0,1.0,0.0
3143,62.0,0.0,150.0,1.0,0.0
3144,38.0,3444.0,150.0,4.0,0.0
3145,34.0,0.0,150.0,5.0,0.0
3146,46.0,0.0,150.0,5.0,0.0
3147,70.0,0.0,150.0,2.0,0.0
3148,45.0,0.0,2880.0,5.0,0.0
3149,33.0,0.0,2880.0,5.0,0.0
3150,73.0,156.0,2880.0,1.0,0.0
3151,61.0,0.0,2880.0,1.0,0.0
3152,37.0,0.0,2880.0,4.0,0.0
3153,69.0,0.0,2880.0,2.0,0.0
3154,48.0,0.0,150.0,2.0,0.0
3155,40.0,0.0,150.0,1.0,0.0
3156,52.0,0.0,150.0,1.0,0.0
3157,36.0,720.0,150.0,5.0,0.0
3158,24.0,0.0,150.0,5.0,0.0
3159,22.0,3444.0,150.0,5.0,0.0
3160,38.0,0.0,150.0,1.0,0.0
3161,50.0,0.0,150.0,1.0,0.0
3162,34.0,0.0,150.0,5.0,0.0
3163,46.0,0.0,150.0,2.0,0.0
3164,21.0,0.0,2880.0,5.0,0.0
3165,33.0,104.0,2880.0,5.0,0.0
3166,37.0,0.0,2880.0,1.0,0.0
3167,49.0,0.0,2880.0,1.0,0.0
3168,45.0,0.0,2880.0,2.0,0.0
3169,38.0,0.0,90.0,5.0,0.0
3170,50.0,160.0,90.0,5.0,0.0
3171,53.0,0.0,90.0,5.0,0.0
3172,41.0,160.0,90.0,5.0,0.0
3173,56.0,0.0,90.0,5.0,0.0
3174,44.0,160.0,90.0,5.0,0.0
3175,45.0,160.0,90.0,5.0,0.0
3176,57.0,0.0,90.0,5.0,0.0
3177,50.0,0.0,90.0,5.0,0.0
3178,38.0,160.0,90.0,5.0,0.0
3179,41.0,0.0,90.0,5.0,0.0
3180,53.0,160.0,90.0,5.0,0.0
3181,44.0,160.0,90.0,5.0,0.0
3182,56.0,0.0,90.0,5.0,0.0
3183,57.0,160.0,90.0,5.0,0.0
3184,45.0,0.0,90.0,5.0,0.0
3185,50.0,0.0,90.0,5.0,0.0
3186,62.0,0.0,90.0,1.0,0.0
3187,74.0,0.0,90.0,1.0,0.0
3188,38.0,160.0,90.0,5.0,0.0
3189,41.0,0.0,90.0,5.0,0.0
3190,53.0,160.0,90.0,5.0,0.0
3191,65.0,0.0,90.0,1.0,0.0
3192,77.0,0.0,90.0,1.0,0.0
3193,56.0,0.0,90.0,5.0,0.0
3194,68.0,0.0,90.0,1.0,0.0
3195,44.0,0.0,90.0,5.0,0.0
3196,80.0,160.0,90.0,1.0,0.0
3197,57.0,0.0,90.0,5.0,0.0
3198,45.0,0.0,90.0,5.0,0.0
3199,69.0,861.0,90.0,1.0,0.0
3200,81.0,0.0,90.0,1.0,0.0
3201,74.0,0.0,810.0,1.0,0.0
3202,86.0,155.0,810.0,1.0,0.0
3203,62.0,0.0,2070.0,5.0,0.0
3204,50.0,0.0,2070.0,5.0,0.0
3205,84.0,0.0,150.0,1.0,0.0
3206,72.0,320.0,15.0,1.0,0.0
3207,84.0,0.0,330.0,1.0,0.0
3208,29.0,3.0,1110.0,5.0,0.0
3209,41.0,155.0,1140.0,5.0,0.0
3210,65.0,160.0,15.0,3.0,0.0
3211,70.0,0.0,150.0,1.0,0.0
3212,82.0,160.0,150.0,1.0,0.0
3213,62.0,0.0,15.0,3.0,0.0
3214,65.0,0.0,15.0,3.0,0.0
3215,62.0,0.0,15.0,3.0,0.0
3216,70.0,155.0,330.0,1.0,0.0
3217,82.0,0.0,330.0,1.0,0.0
3218,62.0,0.0,15.0,3.0,0.0
3219,81.0,0.0,150.0,1.0,0.0
3220,65.0,5.0,15.0,3.0,0.0
3221,62.0,157.0,15.0,3.0,0.0
3222,69.0,0.0,15.0,1.0,0.0
3223,81.0,0.0,330.0,1.0,0.0
3224,65.0,5.0,150.0,3.0,0.0
3225,67.0,0.0,15.0,1.0,0.0
3226,79.0,104.0,15.0,1.0,0.0
3227,74.0,0.0,90.0,2.0,0.0
3228,52.0,160.0,90.0,5.0,0.0
3229,40.0,0.0,90.0,5.0,0.0
3230,76.0,0.0,90.0,2.0,0.0
3231,55.0,0.0,90.0,5.0,0.0
3232,43.0,0.0,90.0,5.0,0.0
3233,76.0,0.0,90.0,2.0,0.0
3234,79.0,0.0,90.0,1.0,0.0
3235,67.0,0.0,90.0,1.0,0.0
3236,74.0,160.0,90.0,2.0,0.0
3237,67.0,0.0,90.0,1.0,0.0
3238,79.0,0.0,90.0,1.0,0.0
3239,57.0,0.0,90.0,5.0,0.0
3240,45.0,0.0,90.0,5.0,0.0
3241,74.0,160.0,90.0,2.0,0.0
3242,76.0,0.0,90.0,2.0,0.0
3243,79.0,0.0,90.0,1.0,0.0
3244,67.0,0.0,90.0,1.0,0.0
3245,58.0,160.0,90.0,5.0,0.0
3246,74.0,0.0,90.0,2.0,0.0
3247,76.0,0.0,90.0,2.0,0.0
3248,46.0,0.0,90.0,5.0,0.0
3249,76.0,0.0,90.0,2.0,0.0
3250,74.0,0.0,90.0,2.0,0.0
3251,79.0,160.0,90.0,1.0,0.0
3252,67.0,0.0,90.0,1.0,0.0
3253,40.0,0.0,90.0,5.0,0.0
3254,52.0,0.0,90.0,5.0,0.0
3255,74.0,0.0,90.0,2.0,0.0
3256,76.0,160.0,90.0,2.0,0.0
3257,43.0,0.0,90.0,5.0,0.0
3258,55.0,0.0,90.0,5.0,0.0
3259,79.0,0.0,90.0,1.0,0.0
3260,67.0,0.0,90.0,1.0,0.0
3261,57.0,0.0,90.0,5.0,0.0
3262,45.0,0.0,90.0,5.0,0.0
3263,74.0,0.0,90.0,2.0,0.0
3264,76.0,160.0,90.0,2.0,0.0
3265,67.0,0.0,90.0,1.0,0.0
3266,79.0,0.0,90.0,1.0,0.0
3267,58.0,0.0,90.0,5.0,0.0
3268,79.0,0.0,90.0,1.0,0.0
3269,74.0,0.0,90.0,2.0,0.0
3270,76.0,160.0,90.0,2.0,0.0
3271,46.0,0.0,90.0,5.0,0.0
3272,67.0,0.0,90.0,1.0,0.0
3273,79.0,160.0,90.0,1.0,0.0
3274,52.0,0.0,90.0,5.0,0.0
3275,40.0,0.0,90.0,5.0,0.0
3276,76.0,0.0,90.0,2.0,0.0
3277,67.0,0.0,90.0,1.0,0.0
3278,74.0,0.0,90.0,2.0,0.0
3279,74.0,0.0,90.0,2.0,0.0
3280,79.0,0.0,90.0,1.0,0.0
3281,55.0,0.0,90.0,5.0,0.0
3282,43.0,0.0,90.0,5.0,0.0
3283,67.0,0.0,90.0,1.0,0.0
3284,76.0,160.0,90.0,2.0,0.0
3285,81.0,0.0,90.0,1.0,0.0
3286,69.0,0.0,90.0,1.0,0.0
3287,57.0,0.0,90.0,5.0,0.0
3288,45.0,160.0,90.0,5.0,0.0
3289,70.0,0.0,90.0,1.0,0.0
3290,82.0,856.0,90.0,1.0,0.0
3291,46.0,0.0,90.0,5.0,0.0
3292,58.0,0.0,90.0,5.0,0.0
3293,76.0,5.0,810.0,1.0,0.0
3294,88.0,145.0,810.0,1.0,0.0
3295,64.0,3.0,2070.0,5.0,0.0
3296,52.0,0.0,2070.0,5.0,0.0
3297,86.0,10.0,150.0,1.0,0.0
3298,74.0,320.0,15.0,1.0,0.0
3299,86.0,0.0,330.0,1.0,0.0
3300,33.0,0.0,1110.0,5.0,0.0
3301,45.0,7.0,1110.0,5.0,0.0
3302,64.0,0.0,150.0,3.0,0.0
3303,73.0,0.0,150.0,1.0,0.0
3304,67.0,0.0,15.0,3.0,0.0
3305,64.0,160.0,150.0,3.0,0.0
3306,85.0,0.0,150.0,1.0,0.0
3307,73.0,3.0,330.0,1.0,0.0
3308,64.0,157.0,150.0,3.0,0.0
3309,67.0,0.0,150.0,3.0,0.0
3310,85.0,0.0,330.0,1.0,0.0
3311,67.0,0.0,150.0,3.0,0.0
3312,64.0,160.0,150.0,3.0,0.0
3313,82.0,0.0,150.0,1.0,0.0
3314,70.0,150.0,150.0,1.0,0.0
3315,64.0,0.0,150.0,3.0,0.0
3316,67.0,0.0,15.0,3.0,0.0
3317,69.0,0.0,330.0,1.0,0.0
3318,81.0,160.0,330.0,1.0,0.0
3319,64.0,160.0,150.0,3.0,0.0
3320,67.0,104.0,150.0,1.0,0.0
3321,79.0,0.0,150.0,1.0,0.0
3322,77.0,160.0,90.0,1.0,0.0
3323,65.0,0.0,90.0,1.0,0.0
3324,50.0,0.0,90.0,5.0,0.0
3325,38.0,0.0,90.0,5.0,0.0
3326,74.0,0.0,90.0,2.0,0.0
3327,69.0,0.0,90.0,2.0,0.0
3328,69.0,0.0,90.0,2.0,0.0
3329,74.0,160.0,90.0,2.0,0.0
3330,41.0,0.0,90.0,5.0,0.0
3331,53.0,0.0,90.0,5.0,0.0
3332,65.0,0.0,90.0,1.0,0.0
3333,77.0,0.0,90.0,1.0,0.0
3334,69.0,0.0,90.0,2.0,0.0
3335,77.0,0.0,90.0,1.0,0.0
3336,65.0,0.0,90.0,1.0,0.0
3337,74.0,0.0,90.0,2.0,0.0
3338,56.0,160.0,90.0,5.0,0.0
3339,44.0,0.0,90.0,5.0,0.0
3340,57.0,0.0,90.0,5.0,0.0
3341,74.0,0.0,90.0,2.0,0.0
3342,65.0,0.0,90.0,1.0,0.0
3343,77.0,0.0,90.0,1.0,0.0
3344,45.0,0.0,90.0,5.0,0.0
3345,69.0,160.0,90.0,2.0,0.0
3346,38.0,0.0,90.0,5.0,0.0
3347,50.0,0.0,90.0,5.0,0.0
3348,65.0,160.0,90.0,1.0,0.0
3349,77.0,0.0,90.0,1.0,0.0
3350,74.0,0.0,90.0,2.0,0.0
3351,69.0,0.0,90.0,2.0,0.0
3352,65.0,0.0,90.0,1.0,0.0
3353,77.0,0.0,90.0,1.0,0.0
3354,53.0,0.0,90.0,5.0,0.0
3355,41.0,0.0,90.0,5.0,0.0
3356,74.0,160.0,90.0,2.0,0.0
3357,69.0,0.0,90.0,2.0,0.0
3358,65.0,160.0,90.0,1.0,0.0
3359,56.0,0.0,90.0,5.0,0.0
3360,44.0,0.0,90.0,5.0,0.0
3361,77.0,0.0,90.0,1.0,0.0
3362,69.0,0.0,90.0,2.0,0.0
3363,74.0,0.0,90.0,2.0,0.0
3364,74.0,0.0,90.0,2.0,0.0
3365,77.0,0.0,90.0,1.0,0.0
3366,65.0,160.0,90.0,1.0,0.0
3367,57.0,0.0,90.0,5.0,0.0
3368,45.0,0.0,90.0,5.0,0.0
3369,69.0,0.0,90.0,2.0,0.0
3370,38.0,0.0,90.0,5.0,0.0
3371,50.0,0.0,90.0,5.0,0.0
3372,65.0,160.0,90.0,1.0,0.0
3373,77.0,0.0,90.0,1.0,0.0
3374,74.0,0.0,90.0,2.0,0.0
3375,69.0,0.0,90.0,2.0,0.0
3376,41.0,0.0,90.0,5.0,0.0
3377,53.0,0.0,90.0,5.0,0.0
3378,74.0,0.0,90.0,2.0,0.0
3379,69.0,160.0,90.0,2.0,0.0
3380,65.0,0.0,90.0,1.0,0.0
3381,77.0,0.0,90.0,1.0,0.0
3382,44.0,0.0,90.0,5.0,0.0
3383,68.0,0.0,90.0,1.0,0.0
3384,56.0,160.0,90.0,5.0,0.0
3385,80.0,0.0,90.0,1.0,0.0
3386,81.0,0.0,90.0,1.0,0.0
3387,69.0,0.0,90.0,1.0,0.0
3388,45.0,843.0,90.0,5.0,0.0
3389,57.0,0.0,90.0,5.0,0.0
3390,69.0,0.0,2070.0,5.0,0.0
3391,57.0,7.0,2070.0,5.0,0.0
3392,81.0,8.0,780.0,1.0,0.0
3393,93.0,157.0,780.0,1.0,0.0
3394,81.0,8.0,150.0,1.0,0.0
3395,40.0,145.0,1140.0,5.0,0.0
3396,28.0,3.0,1110.0,5.0,0.0
3397,81.0,160.0,330.0,1.0,0.0
3398,93.0,320.0,15.0,1.0,0.0
3399,68.0,0.0,150.0,3.0,0.0
3400,62.0,0.0,150.0,3.0,0.0
3401,59.0,0.0,150.0,3.0,0.0
3402,80.0,0.0,150.0,1.0,0.0
3403,62.0,160.0,150.0,3.0,0.0
3404,59.0,0.0,150.0,3.0,0.0
3405,68.0,0.0,150.0,3.0,0.0
3406,92.0,0.0,150.0,1.0,0.0
3407,80.0,0.0,330.0,1.0,0.0
3408,62.0,160.0,150.0,3.0,0.0
3409,59.0,0.0,150.0,3.0,0.0
3410,92.0,0.0,330.0,1.0,0.0
3411,68.0,0.0,15.0,3.0,0.0
3412,62.0,0.0,150.0,3.0,0.0
3413,59.0,160.0,15.0,3.0,0.0
3414,77.0,0.0,150.0,1.0,0.0
3415,89.0,0.0,150.0,1.0,0.0
3416,88.0,5.0,300.0,1.0,0.0
3417,68.0,0.0,15.0,3.0,0.0
3418,59.0,0.0,150.0,3.0,0.0
3419,62.0,150.0,15.0,3.0,0.0
3420,76.0,165.0,300.0,1.0,0.0
3421,86.0,0.0,150.0,1.0,0.0
3422,74.0,104.0,150.0,1.0,0.0
3423,73.0,0.0,90.0,1.0,0.0
3424,85.0,0.0,90.0,1.0,0.0
3425,81.0,0.0,90.0,2.0,0.0
3426,76.0,160.0,90.0,2.0,0.0
3427,45.0,0.0,90.0,5.0,0.0
3428,57.0,0.0,90.0,5.0,0.0
3429,61.0,0.0,90.0,5.0,0.0
3430,49.0,0.0,90.0,5.0,0.0
3431,76.0,0.0,90.0,2.0,0.0
3432,81.0,0.0,90.0,2.0,0.0
3433,73.0,160.0,90.0,1.0,0.0
3434,85.0,0.0,90.0,1.0,0.0
3435,51.0,0.0,90.0,5.0,0.0
3436,76.0,0.0,90.0,2.0,0.0
3437,81.0,0.0,90.0,2.0,0.0
3438,73.0,160.0,90.0,1.0,0.0
3439,85.0,0.0,90.0,1.0,0.0
3440,63.0,0.0,90.0,5.0,0.0
3441,76.0,160.0,90.0,2.0,0.0
3442,81.0,0.0,90.0,2.0,0.0
3443,52.0,0.0,90.0,5.0,0.0
3444,85.0,0.0,90.0,1.0,0.0
3445,64.0,0.0,90.0,5.0,0.0
3446,73.0,0.0,90.0,1.0,0.0
3447,57.0,160.0,90.0,5.0,0.0
3448,73.0,0.0,90.0,1.0,0.0
3449,85.0,0.0,90.0,1.0,0.0
3450,45.0,0.0,90.0,5.0,0.0
3451,81.0,0.0,90.0,2.0,0.0
3452,76.0,0.0,90.0,2.0,0.0
3453,73.0,0.0,90.0,1.0,0.0
3454,85.0,160.0,90.0,1.0,0.0
3455,81.0,0.0,90.0,2.0,0.0
3456,76.0,0.0,90.0,2.0,0.0
3457,49.0,0.0,90.0,5.0,0.0
3458,61.0,0.0,90.0,5.0,0.0
3459,63.0,0.0,90.0,5.0,0.0
3460,51.0,0.0,90.0,5.0,0.0
3461,85.0,0.0,90.0,1.0,0.0
3462,76.0,0.0,90.0,2.0,0.0
3463,73.0,160.0,90.0,1.0,0.0
3464,81.0,0.0,90.0,2.0,0.0
3465,81.0,0.0,90.0,2.0,0.0
3466,73.0,0.0,90.0,1.0,0.0
3467,85.0,160.0,90.0,1.0,0.0
3468,52.0,0.0,90.0,5.0,0.0
3469,64.0,0.0,90.0,5.0,0.0
3470,76.0,0.0,90.0,2.0,0.0
3471,57.0,0.0,90.0,5.0,0.0
3472,45.0,160.0,90.0,5.0,0.0
3473,73.0,0.0,90.0,1.0,0.0
3474,85.0,0.0,90.0,1.0,0.0
3475,76.0,0.0,90.0,2.0,0.0
3476,81.0,0.0,90.0,2.0,0.0
3477,73.0,0.0,90.0,1.0,0.0
3478,49.0,0.0,90.0,5.0,0.0
3479,61.0,0.0,90.0,5.0,0.0
3480,85.0,160.0,90.0,1.0,0.0
3481,81.0,0.0,90.0,2.0,0.0
3482,76.0,0.0,90.0,2.0,0.0
3483,63.0,0.0,90.0,5.0,0.0
3484,51.0,0.0,90.0,5.0,0.0
3485,87.0,0.0,90.0,1.0,0.0
3486,75.0,160.0,90.0,1.0,0.0
3487,88.0,0.0,90.0,1.0,0.0
3488,76.0,0.0,90.0,1.0,0.0
3489,52.0,776.0,90.0,5.0,0.0
3490,64.0,0.0,90.0,5.0,0.0
3491,72.0,3.0,1110.0,5.0,0.0
3492,60.0,7.0,1110.0,5.0,0.0
3493,84.0,160.0,780.0,1.0,0.0
3494,96.0,75.0,720.0,1.0,0.0
3495,84.0,155.0,150.0,1.0,0.0
3496,72.0,0.0,150.0,1.0,0.0
3497,72.0,155.0,810.0,1.0,0.0
3498,77.0,5.0,810.0,2.0,0.0
3499,29.0,160.0,150.0,5.0,0.0
3500,84.0,0.0,810.0,1.0,0.0
3501,41.0,0.0,150.0,5.0,0.0
3502,60.0,0.0,150.0,3.0,0.0
3503,53.0,0.0,150.0,3.0,0.0
3504,57.0,160.0,15.0,3.0,0.0
3505,60.0,0.0,15.0,3.0,0.0
3506,53.0,160.0,15.0,3.0,0.0
3507,57.0,0.0,15.0,3.0,0.0
3508,53.0,0.0,15.0,3.0,0.0
3509,60.0,0.0,15.0,3.0,0.0
3510,81.0,0.0,150.0,1.0,0.0
3511,69.0,0.0,150.0,1.0,0.0
3512,57.0,160.0,15.0,3.0,0.0
3513,60.0,0.0,150.0,3.0,0.0
3514,79.0,0.0,330.0,1.0,0.0
3515,53.0,0.0,150.0,3.0,0.0
3516,67.0,0.0,330.0,1.0,0.0
3517,60.0,160.0,15.0,3.0,0.0
3518,53.0,0.0,15.0,3.0,0.0
3519,57.0,0.0,15.0,3.0,0.0
3520,65.0,0.0,150.0,1.0,0.0
3521,70.0,0.0,960.0,2.0,0.0
3522,73.0,0.0,960.0,2.0,0.0
3523,61.0,320.0,1110.0,2.0,0.0
3524,53.0,0.0,15.0,3.0,0.0
3525,77.0,160.0,15.0,1.0,0.0
3526,65.0,0.0,480.0,1.0,0.0
3527,55.0,160.0,15.0,3.0,0.0
3528,58.0,0.0,15.0,3.0,0.0
3529,53.0,0.0,150.0,3.0,0.0
3530,55.0,160.0,15.0,3.0,0.0
3531,53.0,0.0,150.0,3.0,0.0
3532,58.0,0.0,150.0,3.0,0.0
3533,58.0,0.0,150.0,3.0,0.0
3534,55.0,160.0,150.0,3.0,0.0
3535,53.0,0.0,150.0,3.0,0.0
3536,64.0,0.0,480.0,1.0,0.0
3537,76.0,0.0,480.0,1.0,0.0
3538,58.0,160.0,150.0,3.0,0.0
3539,53.0,0.0,150.0,3.0,0.0
3540,55.0,0.0,150.0,3.0,0.0
3541,58.0,0.0,15.0,3.0,0.0
3542,55.0,160.0,15.0,3.0,0.0
3543,53.0,0.0,15.0,3.0,0.0
3544,67.0,0.0,150.0,1.0,0.0
3545,79.0,160.0,150.0,1.0,0.0
3546,29.0,0.0,150.0,5.0,0.0
3547,72.0,160.0,810.0,1.0,0.0
3548,41.0,160.0,150.0,5.0,0.0
3549,77.0,0.0,810.0,2.0,0.0
3550,84.0,0.0,810.0,1.0,0.0
3551,60.0,0.0,150.0,3.0,0.0
3552,53.0,160.0,15.0,3.0,0.0
3553,57.0,0.0,15.0,3.0,0.0
3554,57.0,160.0,15.0,3.0,0.0
3555,60.0,0.0,15.0,3.0,0.0
3556,53.0,160.0,150.0,3.0,0.0
3557,57.0,0.0,15.0,3.0,0.0
3558,60.0,0.0,150.0,3.0,0.0
3559,53.0,0.0,150.0,3.0,0.0
3560,53.0,0.0,150.0,3.0,0.0
3561,57.0,0.0,150.0,3.0,0.0
3562,81.0,0.0,150.0,1.0,0.0
3563,69.0,160.0,150.0,1.0,0.0
3564,79.0,160.0,330.0,1.0,0.0
3565,60.0,0.0,15.0,3.0,0.0
3566,67.0,0.0,330.0,1.0,0.0
3567,57.0,0.0,15.0,3.0,0.0
3568,53.0,160.0,15.0,3.0,0.0
3569,60.0,0.0,15.0,3.0,0.0
3570,57.0,0.0,15.0,3.0,0.0
3571,60.0,0.0,15.0,3.0,0.0
3572,53.0,0.0,15.0,3.0,0.0
3573,77.0,0.0,150.0,1.0,0.0
3574,61.0,0.0,1110.0,2.0,0.0
3575,73.0,0.0,960.0,2.0,0.0
3576,70.0,0.0,960.0,2.0,0.0
3577,53.0,160.0,15.0,3.0,0.0
3578,55.0,0.0,150.0,3.0,0.0
3579,65.0,0.0,15.0,1.0,0.0
3580,77.0,0.0,480.0,1.0,0.0
3581,53.0,0.0,15.0,3.0,0.0
3582,58.0,160.0,15.0,3.0,0.0
3583,55.0,0.0,15.0,3.0,0.0
3584,58.0,0.0,15.0,3.0,0.0
3585,55.0,160.0,15.0,3.0,0.0
3586,53.0,0.0,15.0,3.0,0.0
3587,76.0,0.0,480.0,1.0,0.0
3588,64.0,160.0,480.0,1.0,0.0
3589,53.0,0.0,15.0,3.0,0.0
3590,55.0,0.0,15.0,3.0,0.0
3591,58.0,160.0,15.0,3.0,0.0
3592,58.0,0.0,15.0,3.0,0.0
3593,55.0,160.0,15.0,3.0,0.0
3594,55.0,0.0,15.0,3.0,0.0
3595,53.0,0.0,15.0,3.0,0.0
3596,58.0,320.0,150.0,3.0,0.0
3597,67.0,160.0,150.0,1.0,0.0
3598,79.0,0.0,150.0,1.0,0.0
3599,41.0,0.0,150.0,5.0,0.0
3600,77.0,5.0,780.0,2.0,0.0
3601,29.0,160.0,150.0,5.0,0.0
3602,84.0,0.0,810.0,1.0,0.0
3603,72.0,155.0,810.0,1.0,0.0
3604,57.0,0.0,150.0,3.0,0.0
3605,60.0,0.0,150.0,3.0,0.0
3606,53.0,160.0,150.0,3.0,0.0
3607,53.0,160.0,150.0,3.0,0.0
3608,57.0,0.0,150.0,3.0,0.0
3609,60.0,0.0,150.0,3.0,0.0
3610,60.0,0.0,150.0,3.0,0.0
3611,53.0,155.0,150.0,3.0,0.0
3612,57.0,0.0,15.0,3.0,0.0
3613,57.0,0.0,15.0,3.0,0.0
3614,53.0,0.0,15.0,3.0,0.0
3615,60.0,5.0,15.0,3.0,0.0
3616,69.0,160.0,150.0,1.0,0.0
3617,81.0,0.0,150.0,1.0,0.0
3618,67.0,0.0,330.0,1.0,0.0
3619,79.0,5.0,300.0,1.0,0.0
3620,45.0,155.0,150.0,5.0,0.0
3621,53.0,160.0,150.0,3.0,0.0
3622,60.0,0.0,150.0,3.0,0.0
3623,65.0,0.0,150.0,1.0,0.0
3624,77.0,0.0,150.0,1.0,0.0
3625,53.0,0.0,150.0,3.0,0.0
3626,60.0,160.0,150.0,3.0,0.0
3627,43.0,160.0,150.0,5.0,0.0
3628,64.0,0.0,480.0,1.0,0.0
3629,76.0,155.0,330.0,1.0,0.0
3630,60.0,0.0,15.0,3.0,0.0
3631,77.0,0.0,150.0,1.0,0.0
3632,55.0,5.0,15.0,3.0,0.0
3633,65.0,0.0,150.0,1.0,0.0
3634,64.0,0.0,150.0,3.0,0.0
3635,55.0,0.0,15.0,3.0,0.0
3636,60.0,160.0,15.0,3.0,0.0
3637,67.0,160.0,480.0,1.0,0.0
3638,79.0,0.0,480.0,1.0,0.0
3639,64.0,0.0,150.0,3.0,0.0
3640,60.0,0.0,150.0,3.0,0.0
3641,64.0,0.0,150.0,3.0,0.0
3642,55.0,160.0,15.0,3.0,0.0
3643,60.0,0.0,150.0,3.0,0.0
3644,55.0,0.0,150.0,3.0,0.0
3645,59.0,0.0,150.0,3.0,0.0
3646,62.0,150.0,330.0,1.0,0.0
3647,53.0,160.0,150.0,5.0,0.0
3648,71.0,0.0,330.0,2.0,0.0
3649,74.0,5.0,330.0,1.0,0.0
3650,59.0,0.0,150.0,3.0,0.0
3651,55.0,0.0,150.0,3.0,0.0
3652,59.0,0.0,150.0,3.0,0.0
3653,55.0,0.0,150.0,3.0,0.0
3654,53.0,5.0,15.0,5.0,0.0
3655,63.0,0.0,150.0,1.0,0.0
3656,75.0,0.0,150.0,1.0,0.0
3657,55.0,5.0,780.0,5.0,0.0
3658,73.0,0.0,960.0,1.0,0.0
3659,43.0,158.0,810.0,5.0,0.0
3660,61.0,0.0,15.0,2.0,0.0
3661,70.0,160.0,15.0,3.0,0.0
3662,64.0,0.0,15.0,3.0,0.0
3663,61.0,0.0,15.0,2.0,0.0
3664,64.0,160.0,15.0,3.0,0.0
3665,64.0,0.0,150.0,3.0,0.0
3666,70.0,160.0,15.0,3.0,0.0
3667,61.0,0.0,15.0,2.0,0.0
3668,61.0,0.0,15.0,2.0,0.0
3669,70.0,155.0,15.0,3.0,0.0
3670,52.0,0.0,150.0,5.0,0.0
3671,61.0,0.0,150.0,2.0,0.0
3672,40.0,0.0,150.0,5.0,0.0
3673,70.0,2.0,15.0,3.0,0.0
3674,64.0,0.0,15.0,3.0,0.0
3675,40.0,0.0,150.0,5.0,0.0
3676,52.0,0.0,150.0,5.0,0.0
3677,72.0,320.0,480.0,1.0,0.0
3678,64.0,0.0,150.0,3.0,0.0
3679,38.0,0.0,150.0,5.0,0.0
3680,60.0,0.0,15.0,2.0,0.0
3681,50.0,0.0,150.0,5.0,0.0
3682,70.0,160.0,15.0,3.0,0.0
3683,64.0,0.0,150.0,3.0,0.0
3684,64.0,0.0,150.0,3.0,0.0
3685,70.0,160.0,15.0,3.0,0.0
3686,60.0,0.0,150.0,2.0,0.0
3687,48.0,0.0,150.0,5.0,0.0
3688,36.0,0.0,150.0,5.0,0.0
3689,29.0,153.0,480.0,5.0,0.0
3690,72.0,2.0,810.0,1.0,0.0
3691,60.0,158.0,810.0,1.0,0.0
3692,69.0,160.0,15.0,3.0,0.0
3693,65.0,0.0,15.0,3.0,0.0
3694,69.0,7.0,15.0,3.0,0.0
3695,33.0,320.0,480.0,5.0,0.0
3696,69.0,160.0,15.0,3.0,0.0
3697,65.0,0.0,15.0,3.0,0.0
3698,57.0,0.0,150.0,1.0,0.0
3699,69.0,0.0,150.0,1.0,0.0
3700,35.0,158.0,330.0,5.0,0.0
3701,67.0,0.0,330.0,1.0,0.0
3702,55.0,0.0,330.0,1.0,0.0
3703,60.0,2.0,150.0,3.0,0.0
3704,57.0,0.0,150.0,3.0,0.0
3705,36.0,0.0,150.0,5.0,0.0
3706,53.0,0.0,150.0,1.0,0.0
3707,37.0,153.0,960.0,5.0,0.0
3708,65.0,320.0,15.0,1.0,0.0
3709,53.0,0.0,480.0,1.0,0.0
3710,58.0,160.0,150.0,3.0,0.0
3711,55.0,0.0,150.0,3.0,0.0
3712,58.0,320.0,150.0,3.0,0.0
3713,55.0,0.0,150.0,3.0,0.0
3714,52.0,7.0,480.0,1.0,0.0
3715,64.0,0.0,480.0,1.0,0.0
3716,58.0,0.0,150.0,3.0,0.0
3717,55.0,160.0,15.0,3.0,0.0
3718,58.0,0.0,150.0,3.0,0.0
3719,36.0,313.0,480.0,5.0,0.0
3720,55.0,160.0,150.0,3.0,0.0
3721,58.0,0.0,15.0,3.0,0.0
3722,55.0,160.0,150.0,3.0,0.0
3723,55.0,0.0,150.0,1.0,0.0
3724,67.0,7.0,150.0,1.0,0.0
3725,29.0,153.0,480.0,5.0,0.0
3726,60.0,158.0,810.0,1.0,0.0
3727,72.0,2.0,810.0,1.0,0.0
3728,68.0,0.0,15.0,3.0,0.0
3729,65.0,160.0,15.0,3.0,0.0
3730,32.0,320.0,480.0,5.0,0.0
3731,65.0,0.0,150.0,3.0,0.0
3732,65.0,0.0,150.0,3.0,0.0
3733,68.0,160.0,15.0,3.0,0.0
3734,56.0,0.0,150.0,1.0,0.0
3735,68.0,0.0,150.0,1.0,0.0
3736,67.0,0.0,330.0,1.0,0.0
3737,55.0,0.0,330.0,1.0,0.0
3738,35.0,158.0,330.0,5.0,0.0
3739,60.0,2.0,150.0,3.0,0.0
3740,56.0,0.0,150.0,3.0,0.0
3741,36.0,0.0,150.0,5.0,0.0
3742,65.0,0.0,150.0,1.0,0.0
3743,37.0,160.0,960.0,5.0,0.0
3744,53.0,320.0,15.0,1.0,0.0
3745,65.0,0.0,480.0,1.0,0.0
3746,55.0,160.0,150.0,3.0,0.0
3747,58.0,0.0,150.0,3.0,0.0
3748,55.0,0.0,150.0,3.0,0.0
3749,58.0,0.0,150.0,3.0,0.0
3750,52.0,0.0,480.0,1.0,0.0
3751,64.0,0.0,480.0,1.0,0.0
3752,55.0,0.0,15.0,3.0,0.0
3753,58.0,160.0,15.0,3.0,0.0
3754,55.0,160.0,150.0,3.0,0.0
3755,36.0,313.0,480.0,5.0,0.0
3756,58.0,0.0,15.0,3.0,0.0
3757,55.0,0.0,150.0,3.0,0.0
3758,60.0,0.0,150.0,1.0,0.0
3759,72.0,7.0,150.0,1.0,0.0
3760,29.0,153.0,480.0,5.0,0.0
3761,61.0,5.0,780.0,1.0,0.0
3762,73.0,158.0,810.0,1.0,0.0
3763,65.0,160.0,150.0,3.0,0.0
3764,68.0,0.0,150.0,3.0,0.0
3765,65.0,0.0,150.0,3.0,0.0
3766,68.0,7.0,150.0,3.0,0.0
3767,68.0,155.0,150.0,3.0,0.0
3768,32.0,0.0,480.0,5.0,0.0
3769,65.0,0.0,150.0,3.0,0.0
3770,65.0,2.0,150.0,3.0,0.0
3771,68.0,0.0,150.0,3.0,0.0
3772,56.0,320.0,150.0,1.0,0.0
3773,68.0,0.0,150.0,1.0,0.0
3774,54.0,150.0,330.0,1.0,0.0
3775,36.0,8.0,330.0,5.0,0.0
3776,66.0,0.0,330.0,1.0,0.0
3777,61.0,2.0,150.0,3.0,0.0
3778,37.0,0.0,150.0,5.0,0.0
3779,30.0,153.0,480.0,5.0,0.0
3780,65.0,0.0,15.0,1.0,0.0
3781,53.0,320.0,15.0,1.0,0.0
3782,58.0,0.0,150.0,3.0,0.0
3783,61.0,160.0,15.0,3.0,0.0
3784,58.0,7.0,150.0,3.0,0.0
3785,34.0,0.0,480.0,5.0,0.0
3786,61.0,0.0,150.0,3.0,0.0
3787,61.0,160.0,150.0,3.0,0.0
3788,58.0,155.0,15.0,3.0,0.0
3789,51.0,320.0,150.0,1.0,0.0
3790,63.0,0.0,150.0,1.0,0.0
3791,36.0,158.0,330.0,5.0,0.0
3792,53.0,0.0,330.0,1.0,0.0
3793,65.0,0.0,330.0,1.0,0.0
3794,58.0,2.0,150.0,3.0,0.0
3795,61.0,0.0,150.0,3.0,0.0
3796,37.0,0.0,150.0,5.0,0.0
3797,63.0,0.0,150.0,1.0,0.0
3798,51.0,320.0,150.0,1.0,0.0
3799,54.0,155.0,810.0,1.0,0.0
3800,32.0,153.0,480.0,5.0,0.0
3801,66.0,5.0,780.0,1.0,0.0
3802,61.0,160.0,15.0,3.0,0.0
3803,59.0,0.0,15.0,3.0,0.0
3804,61.0,7.0,15.0,3.0,0.0
3805,59.0,0.0,15.0,3.0,0.0
3806,35.0,0.0,480.0,5.0,0.0
3807,59.0,0.0,15.0,3.0,0.0
3808,61.0,5.0,150.0,3.0,0.0
3809,65.0,1.0,150.0,1.0,0.0
3810,53.0,0.0,150.0,1.0,0.0
3811,36.0,2.0,330.0,5.0,0.0
3812,54.0,319.0,15.0,1.0,0.0
3813,66.0,156.0,330.0,1.0,0.0
3814,61.0,2.0,150.0,3.0,0.0
3815,59.0,0.0,150.0,3.0,0.0
3816,65.0,0.0,150.0,1.0,0.0
3817,53.0,0.0,150.0,1.0,0.0
3818,37.0,320.0,150.0,5.0,0.0
3819,34.0,153.0,480.0,5.0,0.0
3820,68.0,0.0,810.0,1.0,0.0
3821,56.0,0.0,810.0,1.0,0.0
3822,58.0,0.0,150.0,3.0,0.0
3823,61.0,160.0,15.0,3.0,0.0
3824,58.0,7.0,150.0,3.0,0.0
3825,37.0,0.0,480.0,5.0,0.0
3826,58.0,0.0,150.0,3.0,0.0
3827,61.0,160.0,15.0,3.0,0.0
3828,58.0,160.0,150.0,3.0,0.0
3829,54.0,0.0,150.0,1.0,0.0
3830,66.0,320.0,150.0,1.0,0.0
3831,68.0,0.0,330.0,1.0,0.0
3832,56.0,155.0,330.0,1.0,0.0
3833,41.0,3.0,330.0,5.0,0.0
3834,61.0,2.0,150.0,3.0,0.0
3835,58.0,0.0,150.0,3.0,0.0
3836,42.0,315.0,150.0,5.0,0.0
3837,66.0,0.0,150.0,1.0,0.0
3838,54.0,0.0,150.0,1.0,0.0
3839,68.0,0.0,810.0,1.0,0.0
3840,80.0,10.0,810.0,1.0,0.0
3841,46.0,0.0,300.0,5.0,0.0
3842,34.0,5.0,300.0,5.0,0.0
3843,74.0,160.0,150.0,3.0,0.0
3844,50.0,160.0,150.0,5.0,0.0
3845,70.0,0.0,15.0,3.0,0.0
3846,38.0,0.0,150.0,5.0,0.0
3847,74.0,0.0,15.0,3.0,0.0
3848,70.0,0.0,15.0,3.0,0.0
3849,41.0,143.0,330.0,5.0,0.0
3850,53.0,7.0,330.0,5.0,0.0
3851,74.0,0.0,150.0,3.0,0.0
3852,70.0,0.0,150.0,3.0,0.0
3853,54.0,0.0,150.0,5.0,0.0
3854,42.0,315.0,150.0,5.0,0.0
3855,66.0,0.0,150.0,1.0,0.0
3856,78.0,0.0,150.0,1.0,0.0
3857,34.0,5.0,300.0,5.0,0.0
3858,46.0,0.0,300.0,5.0,0.0
3859,77.0,0.0,330.0,1.0,0.0
3860,65.0,155.0,330.0,1.0,0.0
3861,70.0,5.0,150.0,3.0,0.0
3862,74.0,0.0,150.0,3.0,0.0
3863,50.0,0.0,150.0,5.0,0.0
3864,78.0,320.0,150.0,1.0,0.0
3865,66.0,0.0,150.0,1.0,0.0
3866,38.0,0.0,150.0,5.0,0.0
3867,68.0,0.0,330.0,1.0,0.0
3868,41.0,125.0,330.0,5.0,0.0
3869,80.0,8.0,330.0,1.0,0.0
3870,53.0,7.0,330.0,5.0,0.0
3871,74.0,0.0,150.0,3.0,0.0
3872,70.0,2.0,150.0,3.0,0.0
3873,42.0,307.0,150.0,5.0,0.0
3874,54.0,0.0,150.0,5.0,0.0
3875,78.0,0.0,150.0,1.0,0.0
3876,66.0,18.0,150.0,1.0,0.0
3877,65.0,7.0,330.0,1.0,0.0
3878,77.0,8.0,330.0,1.0,0.0
3879,46.0,13.0,300.0,5.0,0.0
3880,34.0,143.0,330.0,5.0,0.0
3881,70.0,2.0,150.0,3.0,0.0
3882,74.0,0.0,150.0,3.0,0.0
3883,66.0,0.0,150.0,1.0,0.0
3884,38.0,0.0,150.0,5.0,0.0
3885,50.0,160.0,150.0,5.0,0.0
3886,78.0,0.0,150.0,1.0,0.0
3887,77.0,5.0,330.0,1.0,0.0
3888,65.0,155.0,330.0,1.0,0.0
3889,46.0,5.0,150.0,5.0,0.0
3890,58.0,155.0,180.0,5.0,0.0
3891,74.0,0.0,150.0,3.0,0.0
3892,70.0,0.0,150.0,3.0,0.0
3893,78.0,0.0,150.0,1.0,0.0
3894,66.0,288.0,150.0,1.0,0.0
3895,74.0,0.0,300.0,2.0,0.0
3896,68.0,133.0,300.0,1.0,0.0
3897,80.0,0.0,300.0,1.0,0.0
3898,34.0,0.0,120.0,5.0,0.0
3899,46.0,0.0,120.0,5.0,0.0
3900,38.0,27.0,120.0,4.0,0.0
3901,46.0,0.0,120.0,5.0,0.0
3902,78.0,0.0,150.0,1.0,0.0
3903,66.0,0.0,150.0,1.0,0.0
3904,34.0,0.0,120.0,5.0,0.0
3905,74.0,160.0,150.0,2.0,0.0
3906,38.0,32.0,120.0,4.0,0.0
3907,34.0,128.0,150.0,5.0,0.0
3908,46.0,0.0,150.0,5.0,0.0
3909,77.0,15.0,300.0,1.0,0.0
3910,65.0,118.0,330.0,1.0,0.0
3911,38.0,0.0,150.0,4.0,0.0
3912,74.0,0.0,480.0,2.0,0.0
3913,36.0,0.0,120.0,5.0,0.0
3914,48.0,27.0,120.0,5.0,0.0
3915,46.0,0.0,120.0,5.0,0.0
3916,34.0,0.0,120.0,5.0,0.0
3917,78.0,160.0,150.0,1.0,0.0
3918,38.0,32.0,120.0,4.0,0.0
3919,66.0,0.0,150.0,1.0,0.0
3920,67.0,8.0,300.0,1.0,0.0
3921,79.0,133.0,300.0,1.0,0.0
3922,74.0,7.0,300.0,2.0,0.0
3923,38.0,0.0,150.0,4.0,0.0
3924,46.0,0.0,150.0,5.0,0.0
3925,34.0,128.0,150.0,5.0,0.0
3926,36.0,12.0,120.0,5.0,0.0
3927,48.0,0.0,120.0,5.0,0.0
3928,80.0,104.0,150.0,1.0,0.0
3929,68.0,0.0,150.0,1.0,0.0
3930,74.0,0.0,150.0,2.0,0.0
3931,34.0,0.0,120.0,5.0,0.0
3932,38.0,32.0,120.0,4.0,0.0
3933,46.0,0.0,120.0,5.0,0.0
3934,74.0,0.0,90.0,2.0,0.0
3935,77.0,0.0,90.0,2.0,0.0
3936,81.0,160.0,90.0,1.0,0.0
3937,33.0,0.0,90.0,5.0,0.0
3938,69.0,0.0,90.0,1.0,0.0
3939,45.0,0.0,90.0,5.0,0.0
3940,69.0,0.0,90.0,1.0,0.0
3941,81.0,0.0,90.0,1.0,0.0
3942,38.0,0.0,90.0,5.0,0.0
3943,50.0,0.0,90.0,5.0,0.0
3944,74.0,160.0,90.0,2.0,0.0
3945,77.0,0.0,90.0,2.0,0.0
3946,77.0,0.0,90.0,2.0,0.0
3947,74.0,0.0,90.0,2.0,0.0
3948,52.0,0.0,90.0,5.0,0.0
3949,81.0,0.0,90.0,1.0,0.0
3950,40.0,0.0,90.0,5.0,0.0
3951,69.0,160.0,90.0,1.0,0.0
3952,77.0,0.0,90.0,2.0,0.0
3953,74.0,0.0,90.0,2.0,0.0
3954,53.0,0.0,90.0,5.0,0.0
3955,41.0,0.0,90.0,5.0,0.0
3956,69.0,0.0,90.0,1.0,0.0
3957,81.0,160.0,90.0,1.0,0.0
3958,45.0,160.0,90.0,5.0,0.0
3959,74.0,0.0,90.0,2.0,0.0
3960,77.0,0.0,90.0,2.0,0.0
3961,81.0,0.0,90.0,1.0,0.0
3962,33.0,0.0,90.0,5.0,0.0
3963,69.0,0.0,90.0,1.0,0.0
3964,69.0,0.0,90.0,1.0,0.0
3965,50.0,0.0,90.0,5.0,0.0
3966,38.0,0.0,90.0,5.0,0.0
3967,77.0,0.0,90.0,2.0,0.0
3968,74.0,0.0,90.0,2.0,0.0
3969,81.0,160.0,90.0,1.0,0.0
3970,81.0,0.0,90.0,1.0,0.0
3971,69.0,0.0,90.0,1.0,0.0
3972,74.0,160.0,90.0,2.0,0.0
3973,52.0,0.0,90.0,5.0,0.0
3974,40.0,0.0,90.0,5.0,0.0
3975,77.0,0.0,90.0,2.0,0.0
3976,53.0,0.0,90.0,5.0,0.0
3977,81.0,0.0,90.0,1.0,0.0
3978,69.0,0.0,90.0,1.0,0.0
3979,41.0,160.0,90.0,5.0,0.0
3980,74.0,0.0,90.0,2.0,0.0
3981,77.0,0.0,90.0,2.0,0.0
3982,74.0,0.0,90.0,2.0,0.0
3983,77.0,0.0,90.0,2.0,0.0
3984,69.0,160.0,90.0,1.0,0.0
3985,81.0,0.0,90.0,1.0,0.0
3986,33.0,0.0,90.0,5.0,0.0
3987,45.0,0.0,90.0,5.0,0.0
3988,74.0,0.0,90.0,2.0,0.0
3989,38.0,0.0,90.0,5.0,0.0
3990,50.0,0.0,90.0,5.0,0.0
3991,77.0,0.0,90.0,2.0,0.0
3992,81.0,0.0,90.0,1.0,0.0
3993,69.0,160.0,90.0,1.0,0.0
3994,69.0,160.0,90.0,1.0,0.0
3995,81.0,0.0,90.0,1.0,0.0
3996,40.0,0.0,90.0,5.0,0.0
3997,52.0,0.0,90.0,5.0,0.0
3998,74.0,0.0,90.0,2.0,0.0
3999,77.0,0.0,90.0,2.0,0.0
4000,41.0,0.0,90.0,5.0,0.0
4001,53.0,0.0,90.0,5.0,0.0
4002,74.0,0.0,90.0,2.0,0.0
4003,77.0,0.0,90.0,2.0,0.0
4004,81.0,0.0,90.0,1.0,0.0
4005,69.0,296.0,90.0,1.0,0.0
4006,45.0,0.0,240.0,5.0,0.0
4007,74.0,0.0,240.0,2.0,0.0
4008,57.0,344.0,240.0,5.0,0.0
4009,77.0,0.0,240.0,2.0,0.0
4010,81.0,0.0,240.0,1.0,0.0
4011,69.0,0.0,240.0,1.0,0.0
4012,38.0,0.0,90.0,5.0,0.0
4013,50.0,0.0,90.0,5.0,0.0
4014,62.0,160.0,90.0,1.0,0.0
4015,74.0,0.0,90.0,1.0,0.0
4016,52.0,160.0,90.0,5.0,0.0
4017,40.0,0.0,90.0,5.0,0.0
4018,76.0,0.0,90.0,1.0,0.0
4019,64.0,0.0,90.0,1.0,0.0
4020,41.0,0.0,90.0,5.0,0.0
4021,53.0,0.0,90.0,5.0,0.0
4022,65.0,296.0,90.0,1.0,0.0
4023,77.0,0.0,90.0,1.0,0.0
4024,58.0,0.0,240.0,5.0,0.0
4025,46.0,344.0,240.0,5.0,0.0
4026,82.0,0.0,240.0,1.0,0.0
4027,70.0,0.0,240.0,1.0,0.0
4028,74.0,0.0,90.0,1.0,0.0
4029,62.0,160.0,90.0,1.0,0.0
4030,38.0,0.0,90.0,5.0,0.0
4031,50.0,0.0,90.0,5.0,0.0
4032,40.0,0.0,90.0,5.0,0.0
4033,76.0,160.0,90.0,1.0,0.0
4034,64.0,0.0,90.0,1.0,0.0
4035,52.0,0.0,90.0,5.0,0.0
4036,41.0,0.0,90.0,5.0,0.0
4037,65.0,296.0,90.0,1.0,0.0
4038,77.0,0.0,90.0,1.0,0.0
4039,53.0,0.0,90.0,5.0,0.0
4040,71.0,344.0,240.0,1.0,0.0
4041,47.0,0.0,240.0,5.0,0.0
4042,59.0,0.0,240.0,5.0,0.0
4043,83.0,0.0,240.0,1.0,0.0
4044,72.0,0.0,90.0,1.0,0.0
4045,81.0,0.0,90.0,2.0,0.0
4046,48.0,160.0,90.0,5.0,0.0
4047,36.0,0.0,90.0,5.0,0.0
4048,84.0,0.0,90.0,1.0,0.0
4049,77.0,0.0,90.0,2.0,0.0
4050,81.0,0.0,90.0,2.0,0.0
4051,77.0,160.0,90.0,2.0,0.0
4052,72.0,0.0,90.0,1.0,0.0
4053,84.0,0.0,90.0,1.0,0.0
4054,53.0,0.0,90.0,5.0,0.0
4055,41.0,0.0,90.0,5.0,0.0
4056,77.0,160.0,90.0,2.0,0.0
4057,43.0,0.0,90.0,5.0,0.0
4058,55.0,0.0,90.0,5.0,0.0
4059,81.0,0.0,90.0,2.0,0.0
4060,72.0,0.0,90.0,1.0,0.0
4061,84.0,0.0,90.0,1.0,0.0
4062,57.0,0.0,90.0,5.0,0.0
4063,45.0,0.0,90.0,5.0,0.0
4064,84.0,160.0,90.0,1.0,0.0
4065,72.0,0.0,90.0,1.0,0.0
4066,77.0,0.0,90.0,2.0,0.0
4067,81.0,0.0,90.0,2.0,0.0
4068,77.0,0.0,90.0,2.0,0.0
4069,84.0,0.0,90.0,1.0,0.0
4070,72.0,0.0,90.0,1.0,0.0
4071,48.0,0.0,90.0,5.0,0.0
4072,81.0,160.0,90.0,2.0,0.0
4073,36.0,0.0,90.0,5.0,0.0
4074,53.0,0.0,90.0,5.0,0.0
4075,41.0,0.0,90.0,5.0,0.0
4076,72.0,0.0,90.0,1.0,0.0
4077,84.0,0.0,90.0,1.0,0.0
4078,81.0,0.0,90.0,2.0,0.0
4079,77.0,160.0,90.0,2.0,0.0
4080,55.0,0.0,90.0,5.0,0.0
4081,43.0,0.0,90.0,5.0,0.0
4082,84.0,0.0,90.0,1.0,0.0
4083,81.0,0.0,90.0,2.0,0.0
4084,77.0,0.0,90.0,2.0,0.0
4085,72.0,160.0,90.0,1.0,0.0
4086,45.0,0.0,90.0,5.0,0.0
4087,77.0,160.0,90.0,2.0,0.0
4088,57.0,0.0,90.0,5.0,0.0
4089,72.0,0.0,90.0,1.0,0.0
4090,84.0,0.0,90.0,1.0,0.0
4091,81.0,0.0,90.0,2.0,0.0
4092,84.0,0.0,90.0,1.0,0.0
4093,72.0,0.0,90.0,1.0,0.0
4094,77.0,0.0,90.0,2.0,0.0
4095,81.0,160.0,90.0,2.0,0.0
4096,48.0,0.0,90.0,5.0,0.0
4097,36.0,0.0,90.0,5.0,0.0
4098,53.0,0.0,90.0,5.0,0.0
4099,41.0,0.0,90.0,5.0,0.0
4100,72.0,0.0,90.0,1.0,0.0
4101,84.0,160.0,90.0,1.0,0.0
4102,77.0,0.0,90.0,2.0,0.0
4103,81.0,0.0,90.0,2.0,0.0
4104,43.0,0.0,90.0,5.0,0.0
4105,55.0,0.0,90.0,5.0,0.0
4106,84.0,160.0,90.0,1.0,0.0
4107,81.0,0.0,90.0,2.0,0.0
4108,77.0,0.0,90.0,2.0,0.0
4109,72.0,0.0,90.0,1.0,0.0
4110,45.0,0.0,90.0,5.0,0.0
4111,84.0,0.0,90.0,1.0,0.0
4112,72.0,0.0,90.0,1.0,0.0
4113,77.0,0.0,90.0,2.0,0.0
4114,81.0,0.0,90.0,2.0,0.0
4115,57.0,216.0,90.0,5.0,0.0
4116,60.0,80.0,150.0,5.0,0.0
4117,81.0,0.0,240.0,2.0,0.0
4118,77.0,0.0,240.0,2.0,0.0
4119,48.0,0.0,150.0,5.0,0.0
4120,84.0,344.0,240.0,1.0,0.0
4121,72.0,0.0,240.0,1.0,0.0
4122,53.0,0.0,90.0,5.0,0.0
4123,41.0,160.0,90.0,5.0,0.0
4124,65.0,0.0,90.0,1.0,0.0
4125,77.0,0.0,90.0,1.0,0.0
4126,67.0,0.0,90.0,1.0,0.0
4127,79.0,0.0,90.0,1.0,0.0
4128,55.0,160.0,90.0,5.0,0.0
4129,43.0,0.0,90.0,5.0,0.0
4130,69.0,216.0,90.0,1.0,0.0
4131,57.0,0.0,90.0,5.0,0.0
4132,81.0,0.0,90.0,1.0,0.0
4133,45.0,0.0,90.0,5.0,0.0
4134,62.0,0.0,150.0,5.0,0.0
4135,50.0,80.0,150.0,5.0,0.0
4136,86.0,224.0,360.0,1.0,0.0
4137,74.0,120.0,240.0,1.0,0.0
4138,41.0,0.0,90.0,5.0,0.0
4139,53.0,0.0,90.0,5.0,0.0
4140,77.0,160.0,90.0,1.0,0.0
4141,65.0,0.0,90.0,1.0,0.0
4142,67.0,160.0,90.0,1.0,0.0
4143,79.0,0.0,90.0,1.0,0.0
4144,43.0,0.0,90.0,5.0,0.0
4145,55.0,0.0,90.0,5.0,0.0
4146,69.0,0.0,90.0,1.0,0.0
4147,81.0,0.0,90.0,1.0,0.0
4148,45.0,0.0,90.0,5.0,0.0
4149,57.0,296.0,90.0,5.0,0.0
4150,87.0,0.0,240.0,1.0,0.0
4151,75.0,0.0,240.0,1.0,0.0
4152,63.0,0.0,240.0,5.0,0.0
4153,51.0,400.0,240.0,5.0,0.0
4154,88.0,0.0,150.0,1.0,0.0
4155,28.0,160.0,480.0,5.0,0.0
4156,40.0,0.0,480.0,5.0,0.0
4157,81.0,0.0,150.0,2.0,0.0
4158,85.0,160.0,150.0,2.0,0.0
4159,45.0,0.0,150.0,5.0,0.0
4160,76.0,160.0,150.0,2.0,0.0
4161,47.0,0.0,150.0,5.0,0.0
4162,88.0,0.0,15.0,1.0,0.0
4163,85.0,0.0,15.0,2.0,0.0
4164,81.0,0.0,15.0,2.0,0.0
4165,49.0,0.0,150.0,5.0,0.0
4166,76.0,160.0,150.0,2.0,0.0
4167,40.0,0.0,150.0,5.0,0.0
4168,45.0,160.0,150.0,5.0,0.0
4169,85.0,0.0,150.0,2.0,0.0
4170,88.0,0.0,15.0,1.0,0.0
4171,84.0,0.0,150.0,2.0,0.0
4172,81.0,0.0,15.0,2.0,0.0
4173,47.0,0.0,150.0,5.0,0.0
4174,76.0,0.0,150.0,2.0,0.0
4175,48.0,160.0,150.0,5.0,0.0
4176,40.0,0.0,150.0,5.0,0.0
4177,81.0,0.0,150.0,2.0,0.0
4178,84.0,0.0,150.0,2.0,0.0
4179,88.0,160.0,15.0,1.0,0.0
4180,29.0,0.0,330.0,5.0,0.0
4181,41.0,158.0,330.0,5.0,0.0
4182,81.0,0.0,150.0,2.0,0.0
4183,84.0,160.0,150.0,2.0,0.0
4184,45.0,0.0,150.0,5.0,0.0
4185,75.0,2.0,150.0,2.0,0.0
4186,84.0,0.0,150.0,2.0,0.0
4187,47.0,0.0,150.0,5.0,0.0
4188,81.0,0.0,150.0,2.0,0.0
4189,88.0,160.0,150.0,1.0,0.0
4190,81.0,0.0,150.0,2.0,0.0
4191,48.0,0.0,150.0,5.0,0.0
4192,84.0,0.0,150.0,2.0,0.0
4193,88.0,160.0,150.0,1.0,0.0
4194,41.0,0.0,150.0,5.0,0.0
4195,75.0,160.0,150.0,2.0,0.0
4196,84.0,0.0,150.0,2.0,0.0
4197,45.0,0.0,150.0,5.0,0.0
4198,88.0,0.0,15.0,1.0,0.0
4199,81.0,160.0,15.0,2.0,0.0
4200,84.0,0.0,150.0,2.0,0.0
4201,47.0,0.0,150.0,5.0,0.0
4202,48.0,160.0,150.0,5.0,0.0
4203,75.0,0.0,150.0,2.0,0.0
4204,81.0,0.0,150.0,2.0,0.0
4205,88.0,160.0,150.0,1.0,0.0
4206,42.0,0.0,150.0,5.0,0.0
4207,84.0,0.0,150.0,2.0,0.0
4208,86.0,0.0,150.0,1.0,0.0
4209,43.0,0.0,330.0,5.0,0.0
4210,31.0,158.0,330.0,5.0,0.0
4211,83.0,160.0,150.0,2.0,0.0
4212,74.0,2.0,150.0,2.0,0.0
4213,47.0,0.0,150.0,5.0,0.0
4214,48.0,160.0,150.0,5.0,0.0
4215,86.0,0.0,150.0,1.0,0.0
4216,50.0,0.0,150.0,5.0,0.0
4217,86.0,0.0,150.0,1.0,0.0
4218,83.0,0.0,15.0,2.0,0.0
4219,43.0,160.0,150.0,5.0,0.0
4220,74.0,0.0,150.0,2.0,0.0
4221,83.0,0.0,150.0,2.0,0.0
4222,47.0,0.0,150.0,5.0,0.0
4223,86.0,160.0,15.0,1.0,0.0
4224,48.0,0.0,150.0,5.0,0.0
4225,82.0,0.0,150.0,2.0,0.0
4226,50.0,0.0,150.0,5.0,0.0
4227,74.0,160.0,150.0,2.0,0.0
4228,82.0,0.0,150.0,2.0,0.0
4229,32.0,160.0,150.0,5.0,0.0
4230,74.0,0.0,150.0,2.0,0.0
4231,45.0,288.0,150.0,5.0,0.0
4232,77.0,0.0,150.0,2.0,0.0
4233,81.0,0.0,150.0,2.0,0.0
4234,86.0,0.0,15.0,1.0,0.0
4235,33.0,0.0,150.0,5.0,0.0
4236,65.0,0.0,120.0,1.0,0.0
4237,53.0,192.0,120.0,5.0,0.0
4238,80.0,128.0,150.0,1.0,0.0
4239,56.0,0.0,150.0,5.0,0.0
4240,81.0,160.0,120.0,1.0,0.0
4241,57.0,0.0,120.0,5.0,0.0
4242,50.0,0.0,120.0,5.0,0.0
4243,62.0,192.0,120.0,1.0,0.0
4244,52.0,0.0,150.0,5.0,0.0
4245,76.0,128.0,150.0,1.0,0.0
4246,53.0,0.0,120.0,5.0,0.0
4247,77.0,160.0,120.0,1.0,0.0
4248,57.0,0.0,120.0,1.0,0.0
4249,45.0,192.0,120.0,5.0,0.0
4250,73.0,128.0,150.0,1.0,0.0
4251,49.0,0.0,150.0,5.0,0.0
4252,74.0,0.0,120.0,1.0,0.0
4253,50.0,160.0,120.0,5.0,0.0
4254,53.0,192.0,120.0,1.0,0.0
4255,41.0,0.0,120.0,5.0,0.0
4256,68.0,128.0,150.0,1.0,0.0
4257,44.0,0.0,150.0,5.0,0.0
4258,45.0,160.0,120.0,5.0,0.0
4259,69.0,0.0,120.0,1.0,0.0
4260,50.0,0.0,120.0,1.0,0.0
4261,38.0,192.0,120.0,5.0,0.0
4262,64.0,0.0,150.0,1.0,0.0
4263,40.0,128.0,150.0,5.0,0.0
4264,65.0,0.0,120.0,1.0,0.0
4265,41.0,160.0,120.0,5.0,0.0
4266,56.0,0.0,120.0,1.0,0.0
4267,32.0,224.0,120.0,5.0,0.0
4268,45.0,720.0,180.0,5.0,0.0
4269,33.0,0.0,180.0,5.0,0.0
4270,57.0,0.0,180.0,1.0,0.0
4271,33.0,0.0,180.0,5.0,0.0
4272,40.0,0.0,180.0,4.0,0.0
4273,85.0,624.0,180.0,1.0,0.0
4274,73.0,0.0,180.0,1.0,0.0
4275,45.0,0.0,180.0,5.0,0.0
4276,79.0,0.0,180.0,2.0,0.0
4277,46.0,0.0,180.0,5.0,0.0
4278,86.0,255.0,180.0,1.0,0.0
4279,77.0,97.0,90.0,2.0,0.0
4280,38.0,0.0,180.0,4.0,0.0
4281,34.0,0.0,180.0,5.0,0.0
4282,74.0,0.0,180.0,1.0,0.0
4283,65.0,192.0,120.0,1.0,0.0
4284,53.0,0.0,120.0,5.0,0.0
4285,57.0,128.0,150.0,5.0,0.0
4286,81.0,0.0,150.0,1.0,0.0
4287,58.0,0.0,120.0,5.0,0.0
4288,82.0,160.0,120.0,1.0,0.0
4289,62.0,192.0,120.0,1.0,0.0
4290,50.0,0.0,120.0,5.0,0.0
4291,52.0,0.0,150.0,5.0,0.0
4292,76.0,128.0,150.0,1.0,0.0
4293,53.0,160.0,120.0,5.0,0.0
4294,77.0,0.0,120.0,1.0,0.0
4295,46.0,192.0,120.0,5.0,0.0
4296,58.0,0.0,120.0,1.0,0.0
4297,73.0,0.0,150.0,1.0,0.0
4298,49.0,128.0,150.0,5.0,0.0
4299,50.0,0.0,120.0,5.0,0.0
4300,74.0,160.0,120.0,1.0,0.0
4301,53.0,0.0,120.0,1.0,0.0
4302,41.0,192.0,120.0,5.0,0.0
4303,45.0,0.0,150.0,5.0,0.0
4304,69.0,128.0,150.0,1.0,0.0
4305,70.0,0.0,120.0,1.0,0.0
4306,46.0,160.0,120.0,5.0,0.0
4307,50.0,0.0,120.0,1.0,0.0
4308,38.0,192.0,120.0,5.0,0.0
4309,64.0,0.0,150.0,1.0,0.0
4310,40.0,128.0,150.0,5.0,0.0
4311,65.0,0.0,120.0,1.0,0.0
4312,41.0,160.0,120.0,5.0,0.0
4313,57.0,224.0,120.0,1.0,0.0
4314,33.0,0.0,120.0,5.0,0.0
4315,58.0,720.0,180.0,1.0,0.0
4316,34.0,0.0,180.0,5.0,0.0
4317,46.0,0.0,180.0,5.0,0.0
4318,40.0,0.0,180.0,4.0,0.0
4319,81.0,0.0,180.0,2.0,0.0
4320,85.0,708.0,180.0,1.0,0.0
4321,73.0,0.0,180.0,1.0,0.0
4322,79.0,0.0,180.0,2.0,0.0
4323,45.0,0.0,180.0,5.0,0.0
4324,33.0,0.0,180.0,5.0,0.0
4325,86.0,0.0,180.0,1.0,0.0
4326,74.0,0.0,180.0,1.0,0.0
4327,43.0,0.0,180.0,5.0,0.0
4328,79.0,0.0,180.0,2.0,0.0
4329,31.0,12.0,180.0,5.0,0.0
4330,82.0,255.0,180.0,2.0,0.0
4331,34.0,0.0,180.0,4.0,0.0
4332,67.0,0.0,120.0,1.0,0.0
4333,55.0,193.0,120.0,5.0,0.0
4334,81.0,0.0,150.0,1.0,0.0
4335,57.0,128.0,150.0,5.0,0.0
4336,82.0,0.0,120.0,1.0,0.0
4337,58.0,160.0,120.0,5.0,0.0
4338,50.0,0.0,120.0,5.0,0.0
4339,62.0,192.0,120.0,1.0,0.0
4340,54.0,128.0,150.0,5.0,0.0
4341,78.0,0.0,150.0,1.0,0.0
4342,55.0,0.0,120.0,5.0,0.0
4343,79.0,160.0,120.0,1.0,0.0
4344,46.0,0.0,120.0,5.0,0.0
4345,58.0,192.0,120.0,1.0,0.0
4346,73.0,128.0,150.0,1.0,0.0
4347,49.0,0.0,150.0,5.0,0.0
4348,50.0,160.0,120.0,5.0,0.0
4349,74.0,0.0,120.0,1.0,0.0
4350,55.0,192.0,120.0,1.0,0.0
4351,43.0,0.0,120.0,5.0,0.0
4352,69.0,0.0,150.0,1.0,0.0
4353,45.0,128.0,150.0,5.0,0.0
4354,46.0,0.0,120.0,5.0,0.0
4355,70.0,160.0,120.0,1.0,0.0
4356,50.0,192.0,120.0,1.0,0.0
4357,38.0,0.0,120.0,5.0,0.0
4358,66.0,0.0,150.0,1.0,0.0
4359,42.0,128.0,150.0,5.0,0.0
4360,67.0,0.0,120.0,1.0,0.0
4361,43.0,160.0,120.0,5.0,0.0
4362,55.0,0.0,120.0,1.0,0.0
4363,31.0,224.0,120.0,5.0,0.0
4364,56.0,0.0,180.0,1.0,0.0
4365,44.0,720.0,180.0,5.0,0.0
4366,32.0,0.0,180.0,5.0,0.0
4367,73.0,0.0,180.0,1.0,0.0
4368,81.0,0.0,180.0,2.0,0.0
4369,79.0,632.0,180.0,2.0,0.0
4370,85.0,0.0,180.0,1.0,0.0
4371,33.0,0.0,180.0,5.0,0.0
4372,45.0,0.0,180.0,5.0,0.0
4373,37.0,0.0,180.0,4.0,0.0
4374,40.0,0.0,180.0,4.0,0.0
4375,74.0,0.0,90.0,1.0,0.0
4376,82.0,160.0,90.0,2.0,0.0
4377,38.0,0.0,90.0,5.0,0.0
4378,26.0,0.0,90.0,5.0,0.0
4379,86.0,0.0,90.0,1.0,0.0
4380,77.0,0.0,90.0,2.0,0.0
4381,41.0,160.0,90.0,5.0,0.0
4382,86.0,0.0,90.0,1.0,0.0
4383,77.0,0.0,90.0,2.0,0.0
4384,29.0,0.0,90.0,5.0,0.0
4385,74.0,0.0,90.0,1.0,0.0
4386,82.0,0.0,90.0,2.0,0.0
4387,77.0,0.0,90.0,2.0,0.0
4388,82.0,843.0,90.0,2.0,0.0
4389,74.0,0.0,90.0,1.0,0.0
4390,31.0,0.0,90.0,5.0,0.0
4391,43.0,0.0,90.0,5.0,0.0
4392,86.0,0.0,90.0,1.0,0.0
4393,77.0,0.0,810.0,2.0,0.0
4394,82.0,15.0,780.0,2.0,0.0
4395,32.0,8.0,810.0,5.0,0.0
4396,44.0,0.0,810.0,5.0,0.0
4397,74.0,94.0,810.0,1.0,0.0
4398,86.0,0.0,810.0,1.0,0.0
4399,76.0,0.0,90.0,2.0,0.0
4400,73.0,0.0,90.0,1.0,0.0
4401,81.0,0.0,90.0,2.0,0.0
4402,33.0,160.0,90.0,5.0,0.0
4403,45.0,0.0,90.0,5.0,0.0
4404,85.0,0.0,90.0,1.0,0.0
4405,86.0,0.0,90.0,1.0,0.0
4406,74.0,0.0,90.0,1.0,0.0
4407,38.0,160.0,90.0,5.0,0.0
4408,77.0,0.0,90.0,2.0,0.0
4409,82.0,0.0,90.0,2.0,0.0
4410,26.0,0.0,90.0,5.0,0.0
4411,74.0,160.0,90.0,1.0,0.0
4412,82.0,0.0,90.0,2.0,0.0
4413,77.0,0.0,90.0,2.0,0.0
4414,86.0,0.0,90.0,1.0,0.0
4415,29.0,0.0,90.0,5.0,0.0
4416,41.0,0.0,90.0,5.0,0.0
4417,31.0,0.0,90.0,5.0,0.0
4418,43.0,0.0,90.0,5.0,0.0
4419,77.0,0.0,90.0,2.0,0.0
4420,82.0,0.0,90.0,2.0,0.0
4421,74.0,843.0,90.0,1.0,0.0
4422,86.0,0.0,90.0,1.0,0.0
4423,86.0,0.0,810.0,1.0,0.0
4424,74.0,94.0,810.0,1.0,0.0
4425,44.0,8.0,810.0,5.0,0.0
4426,32.0,0.0,810.0,5.0,0.0
4427,82.0,15.0,780.0,2.0,0.0
4428,77.0,0.0,810.0,2.0,0.0
4429,81.0,0.0,90.0,2.0,0.0
4430,73.0,0.0,90.0,1.0,0.0
4431,33.0,160.0,90.0,5.0,0.0
4432,45.0,0.0,90.0,5.0,0.0
4433,76.0,0.0,90.0,2.0,0.0
4434,85.0,0.0,90.0,1.0,0.0
4435,77.0,0.0,90.0,2.0,0.0
4436,86.0,160.0,90.0,1.0,0.0
4437,26.0,0.0,90.0,5.0,0.0
4438,38.0,0.0,90.0,5.0,0.0
4439,81.0,0.0,90.0,2.0,0.0
4440,74.0,0.0,90.0,1.0,0.0
4441,81.0,0.0,90.0,1.0,0.0
4442,89.0,0.0,90.0,1.0,0.0
4443,69.0,0.0,90.0,5.0,0.0
4444,77.0,160.0,90.0,5.0,0.0
4445,89.0,0.0,90.0,1.0,0.0
4446,77.0,0.0,90.0,5.0,0.0
4447,69.0,160.0,90.0,5.0,0.0
4448,81.0,0.0,90.0,1.0,0.0
4449,81.0,0.0,90.0,1.0,0.0
4450,89.0,0.0,90.0,1.0,0.0
4451,69.0,160.0,90.0,5.0,0.0
4452,77.0,0.0,90.0,5.0,0.0
4453,86.0,0.0,90.0,1.0,0.0
4454,77.0,160.0,90.0,1.0,0.0
4455,74.0,0.0,90.0,5.0,0.0
4456,65.0,0.0,90.0,5.0,0.0
4457,74.0,0.0,90.0,5.0,0.0
4458,65.0,0.0,90.0,5.0,0.0
4459,77.0,160.0,90.0,1.0,0.0
4460,86.0,0.0,90.0,1.0,0.0
4461,65.0,160.0,90.0,5.0,0.0
4462,74.0,0.0,90.0,5.0,0.0
4463,86.0,0.0,90.0,1.0,0.0
4464,77.0,0.0,90.0,1.0,0.0
4465,69.0,0.0,90.0,5.0,0.0
4466,77.0,0.0,90.0,1.0,0.0
4467,81.0,0.0,90.0,1.0,0.0
4468,65.0,160.0,90.0,5.0,0.0
4469,65.0,0.0,90.0,5.0,0.0
4470,69.0,0.0,90.0,5.0,0.0
4471,77.0,160.0,90.0,1.0,0.0
4472,81.0,0.0,90.0,1.0,0.0
4473,65.0,0.0,90.0,5.0,0.0
4474,69.0,160.0,90.0,5.0,0.0
4475,81.0,0.0,90.0,1.0,0.0
4476,77.0,0.0,90.0,1.0,0.0
4477,62.0,160.0,90.0,5.0,0.0
4478,74.0,0.0,90.0,1.0,0.0
4479,77.0,0.0,90.0,1.0,0.0
4480,65.0,0.0,90.0,5.0,0.0
4481,74.0,0.0,90.0,1.0,0.0
4482,69.0,0.0,90.0,1.0,0.0
4483,62.0,0.0,90.0,5.0,0.0
4484,57.0,160.0,90.0,5.0,0.0
4485,65.0,0.0,90.0,1.0,0.0
4486,53.0,0.0,90.0,5.0,0.0
4487,57.0,0.0,90.0,5.0,0.0
4488,69.0,160.0,90.0,1.0,0.0
4489,50.0,160.0,90.0,5.0,0.0
4490,62.0,0.0,90.0,1.0,0.0
4491,65.0,0.0,90.0,1.0,0.0
4492,53.0,0.0,90.0,5.0,0.0
4493,45.0,0.0,90.0,5.0,0.0
4494,57.0,0.0,90.0,1.0,0.0
4495,50.0,160.0,90.0,5.0,0.0
4496,62.0,0.0,90.0,1.0,0.0
4497,41.0,0.0,90.0,5.0,0.0
4498,57.0,0.0,90.0,1.0,0.0
4499,53.0,0.0,90.0,1.0,0.0
4500,45.0,160.0,90.0,5.0,0.0
4501,50.0,160.0,90.0,1.0,0.0
4502,53.0,0.0,90.0,1.0,0.0
4503,41.0,0.0,90.0,5.0,0.0
4504,38.0,0.0,90.0,5.0,0.0
4505,50.0,0.0,90.0,1.0,0.0
4506,33.0,1016.0,90.0,5.0,0.0
4507,45.0,0.0,90.0,1.0,0.0
4508,38.0,0.0,90.0,5.0,0.0
4509,38.0,240.0,960.0,1.0,0.0
4510,26.0,0.0,960.0,5.0,0.0
4511,50.0,0.0,240.0,5.0,0.0
4512,74.0,0.0,240.0,1.0,0.0
4513,86.0,0.0,240.0,1.0,0.0
4514,80.0,0.0,240.0,2.0,0.0
4515,59.0,480.0,240.0,4.0,0.0
4516,53.0,0.0,240.0,4.0,0.0
4517,56.0,0.0,240.0,4.0,0.0
4518,65.0,0.0,240.0,4.0,0.0
4519,77.0,0.0,240.0,2.0,0.0
4520,65.0,0.0,240.0,4.0,0.0
4521,53.0,0.0,240.0,4.0,0.0
4522,77.0,0.0,240.0,2.0,0.0
4523,81.0,0.0,240.0,2.0,0.0
4524,57.0,1488.0,240.0,4.0,0.0
4525,74.0,0.0,240.0,1.0,0.0
4526,86.0,0.0,240.0,1.0,0.0
4527,50.0,0.0,240.0,5.0,0.0
4528,41.0,1440.0,300.0,2.0,0.0
4529,47.0,0.0,300.0,2.0,0.0
4530,50.0,0.0,300.0,1.0,0.0
4531,35.0,0.0,300.0,4.0,0.0
4532,32.0,0.0,300.0,4.0,0.0
4533,38.0,0.0,300.0,5.0,0.0
4534,26.0,0.0,300.0,5.0,0.0
4535,44.0,0.0,300.0,2.0,0.0
4536,38.0,0.0,300.0,5.0,0.0
4537,26.0,0.0,300.0,5.0,0.0
4538,33.0,0.0,300.0,4.0,0.0
4539,45.0,0.0,300.0,2.0,0.0
4540,41.0,0.0,300.0,2.0,0.0
4541,50.0,3452.0,300.0,1.0,0.0
4542,55.0,480.0,390.0,5.0,0.0
4543,57.0,480.0,390.0,5.0,0.0
4544,58.0,960.0,390.0,5.0,0.0
4545,54.0,470.0,2310.0,5.0,0.0
4546,57.0,480.0,390.0,5.0,0.0
4547,72.0,0.0,390.0,2.0,0.0
4548,75.0,0.0,390.0,1.0,0.0
4549,74.0,0.0,390.0,1.0,0.0
4550,58.0,0.0,390.0,5.0,0.0
4551,70.0,480.0,390.0,2.0,0.0
4552,69.0,0.0,390.0,2.0,0.0
4553,60.0,0.0,390.0,5.0,0.0
4554,72.0,480.0,390.0,1.0,0.0
4555,66.0,0.0,390.0,2.0,0.0
4556,63.0,0.0,390.0,5.0,0.0
4557,69.0,10.0,390.0,1.0,0.0
4558,57.0,480.0,390.0,5.0,0.0
4559,58.0,480.0,390.0,5.0,0.0
4560,60.0,960.0,390.0,5.0,0.0
4561,55.0,470.0,2310.0,5.0,0.0
4562,75.0,480.0,390.0,2.0,0.0
4563,60.0,0.0,390.0,5.0,0.0
4564,79.0,0.0,390.0,1.0,0.0
4565,77.0,0.0,390.0,1.0,0.0
4566,74.0,0.0,390.0,2.0,0.0
4567,62.0,480.0,390.0,5.0,0.0
4568,63.0,480.0,390.0,5.0,0.0
4569,72.0,0.0,390.0,2.0,0.0
4570,75.0,0.0,390.0,1.0,0.0
4571,72.0,0.0,390.0,1.0,0.0
4572,63.0,10.0,390.0,2.0,0.0
4573,67.0,0.0,390.0,5.0,0.0
4574,56.0,480.0,390.0,5.0,0.0
4575,51.0,480.0,390.0,5.0,0.0
4576,68.0,0.0,390.0,2.0,0.0
4577,72.0,480.0,390.0,1.0,0.0
4578,60.0,480.0,390.0,2.0,0.0
4579,63.0,0.0,390.0,1.0,0.0
4580,55.0,480.0,390.0,5.0,0.0
4581,51.0,480.0,390.0,5.0,0.0
4582,72.0,0.0,390.0,1.0,0.0
4583,67.0,480.0,390.0,2.0,0.0
4584,60.0,480.0,390.0,2.0,0.0
4585,63.0,0.0,390.0,1.0,0.0
4586,54.0,420.0,390.0,5.0,0.0
4587,60.0,0.0,1920.0,2.0,0.0
4588,72.0,0.0,1920.0,1.0,0.0
4589,69.0,0.0,1920.0,2.0,0.0
4590,51.0,80.0,330.0,5.0,0.0
4591,50.0,80.0,90.0,5.0,0.0
4592,53.0,720.0,90.0,5.0,0.0
4593,51.0,240.0,720.0,5.0,0.0
4594,50.0,960.0,240.0,5.0,0.0
4595,50.0,10.0,1680.0,5.0,0.0
4596,43.0,610.0,1680.0,5.0,0.0
4597,62.0,0.0,480.0,1.0,0.0
4598,58.0,720.0,480.0,2.0,0.0
4599,70.0,0.0,720.0,1.0,0.0
4600,67.0,0.0,720.0,2.0,0.0
4601,58.0,480.0,390.0,5.0,0.0
4602,60.0,480.0,390.0,5.0,0.0
4603,62.0,960.0,390.0,5.0,0.0
4604,57.0,0.0,1350.0,5.0,0.0
4605,78.0,0.0,390.0,1.0,0.0
4606,75.0,480.0,390.0,2.0,0.0
4607,74.0,480.0,390.0,2.0,0.0
4608,77.0,0.0,390.0,1.0,0.0
4609,75.0,0.0,390.0,1.0,0.0
4610,60.0,0.0,390.0,5.0,0.0
4611,72.0,480.0,390.0,2.0,0.0
4612,69.0,0.0,390.0,2.0,0.0
4613,62.0,480.0,390.0,5.0,0.0
4614,72.0,0.0,390.0,1.0,0.0
4615,63.0,460.0,390.0,5.0,0.0
4616,65.0,160.0,360.0,5.0,0.0
4617,65.0,360.0,120.0,5.0,0.0
4618,66.0,940.0,390.0,5.0,0.0
4619,58.0,780.0,2310.0,5.0,0.0
4620,78.0,480.0,390.0,2.0,0.0
4621,63.0,0.0,390.0,5.0,0.0
4622,82.0,0.0,390.0,1.0,0.0
4623,80.0,0.0,390.0,1.0,0.0
4624,65.0,0.0,390.0,5.0,0.0
4625,77.0,480.0,390.0,2.0,0.0
4626,75.0,0.0,390.0,2.0,0.0
4627,66.0,0.0,390.0,5.0,0.0
4628,78.0,460.0,390.0,1.0,0.0
4629,66.0,20.0,360.0,2.0,0.0
4630,75.0,10.0,390.0,1.0,0.0
4631,70.0,0.0,390.0,5.0,0.0
4632,59.0,110.0,690.0,5.0,0.0
4633,66.0,110.0,390.0,3.0,0.0
4634,63.0,0.0,390.0,3.0,0.0
4635,71.0,0.0,390.0,3.0,0.0
4636,75.0,0.0,390.0,2.0,0.0
4637,61.0,60.0,90.0,5.0,0.0
4638,59.0,230.0,180.0,5.0,0.0
4639,66.0,0.0,390.0,3.0,0.0
4640,63.0,0.0,390.0,3.0,0.0
4641,71.0,100.0,390.0,3.0,0.0
4642,58.0,140.0,240.0,5.0,0.0
4643,75.0,0.0,390.0,2.0,0.0
4644,59.0,240.0,240.0,5.0,0.0
4645,66.0,0.0,390.0,3.0,0.0
4646,75.0,100.0,390.0,2.0,0.0
4647,63.0,140.0,240.0,5.0,0.0
4648,71.0,0.0,390.0,3.0,0.0
4649,59.0,720.0,240.0,5.0,0.0
4650,59.0,140.0,720.0,5.0,0.0
4651,75.0,0.0,390.0,2.0,0.0
4652,63.0,0.0,390.0,3.0,0.0
4653,69.0,0.0,390.0,3.0,0.0
4654,66.0,100.0,390.0,3.0,0.0
4655,58.0,380.0,240.0,5.0,0.0
4656,75.0,0.0,390.0,2.0,0.0
4657,58.0,720.0,960.0,5.0,0.0
4658,66.0,480.0,390.0,3.0,0.0
4659,69.0,0.0,390.0,3.0,0.0
4660,63.0,0.0,390.0,3.0,0.0
4661,63.0,0.0,390.0,3.0,0.0
4662,69.0,100.0,390.0,3.0,0.0
4663,66.0,0.0,390.0,3.0,0.0
4664,75.0,0.0,390.0,2.0,0.0
4665,58.0,80.0,720.0,5.0,0.0
4666,66.0,0.0,390.0,3.0,0.0
4667,76.0,0.0,390.0,2.0,0.0
4668,64.0,0.0,390.0,3.0,0.0
4669,73.0,110.0,390.0,3.0,0.0
4670,59.0,60.0,90.0,5.0,0.0
4671,58.0,230.0,180.0,5.0,0.0
4672,73.0,0.0,390.0,3.0,0.0
4673,76.0,0.0,390.0,2.0,0.0
4674,64.0,100.0,390.0,3.0,0.0
4675,66.0,0.0,390.0,3.0,0.0
4676,57.0,140.0,240.0,5.0,0.0
4677,58.0,240.0,240.0,5.0,0.0
4678,73.0,0.0,390.0,3.0,0.0
4679,64.0,0.0,390.0,3.0,0.0
4680,61.0,140.0,240.0,5.0,0.0
4681,76.0,0.0,390.0,2.0,0.0
4682,66.0,100.0,390.0,3.0,0.0
4683,58.0,720.0,15.0,5.0,0.0
4684,72.0,0.0,390.0,3.0,0.0
4685,63.0,0.0,390.0,3.0,0.0
4686,75.0,100.0,390.0,2.0,0.0
4687,57.0,380.0,240.0,5.0,0.0
4688,72.0,0.0,390.0,3.0,0.0
4689,65.0,0.0,390.0,3.0,0.0
4690,77.0,480.0,390.0,2.0,0.0
4691,57.0,450.0,1380.0,5.0,0.0
4692,66.0,0.0,390.0,3.0,0.0
4693,72.0,510.0,390.0,3.0,0.0
4694,78.0,0.0,390.0,2.0,0.0
4695,78.0,10.0,2310.0,2.0,0.0
4696,69.0,0.0,2310.0,3.0,0.0
4697,66.0,0.0,2310.0,3.0,0.0
4698,72.0,350.0,2310.0,3.0,0.0
4699,54.0,480.0,390.0,5.0,0.0
4700,53.0,480.0,390.0,5.0,0.0
4701,51.0,480.0,390.0,5.0,0.0
4702,50.0,220.0,750.0,5.0,0.0
4703,38.0,1330.0,2880.0,5.0,0.0
4704,72.0,0.0,480.0,2.0,0.0
4705,66.0,1920.0,480.0,3.0,0.0
4706,81.0,0.0,1920.0,2.0,0.0
4707,54.0,0.0,15.0,5.0,0.0
4708,69.0,0.0,1920.0,3.0,0.0
4709,72.0,0.0,1920.0,3.0,0.0
4710,75.0,10.0,1920.0,3.0,0.0
4711,43.0,0.0,390.0,5.0,0.0
4712,55.0,50.0,390.0,5.0,0.0
4713,75.0,430.0,180.0,3.0,0.0
4714,57.0,0.0,390.0,5.0,0.0
4715,45.0,50.0,390.0,5.0,0.0
4716,75.0,430.0,180.0,3.0,0.0
4717,46.0,50.0,390.0,5.0,0.0
4718,58.0,0.0,390.0,5.0,0.0
4719,75.0,480.0,180.0,3.0,0.0
4720,54.0,10.0,2280.0,5.0,0.0
4721,42.0,10.0,2280.0,5.0,0.0
4722,75.0,430.0,180.0,3.0,0.0
4723,87.0,0.0,390.0,1.0,0.0
4724,84.0,50.0,390.0,2.0,0.0
4725,57.0,0.0,390.0,5.0,0.0
4726,75.0,430.0,180.0,3.0,0.0
4727,82.0,0.0,390.0,2.0,0.0
4728,86.0,50.0,390.0,1.0,0.0
4729,58.0,0.0,390.0,5.0,0.0
4730,75.0,430.0,180.0,3.0,0.0
4731,84.0,0.0,390.0,1.0,0.0
4732,81.0,50.0,390.0,2.0,0.0
4733,60.0,0.0,390.0,5.0,0.0
4734,75.0,410.0,180.0,3.0,0.0
4735,63.0,0.0,390.0,5.0,0.0
4736,78.0,0.0,390.0,2.0,0.0
4737,81.0,50.0,390.0,1.0,0.0
4738,75.0,430.0,180.0,3.0,0.0
4739,57.0,0.0,390.0,5.0,0.0
4740,45.0,50.0,390.0,5.0,0.0
4741,75.0,430.0,180.0,3.0,0.0
4742,46.0,50.0,390.0,5.0,0.0
4743,58.0,0.0,390.0,5.0,0.0
4744,75.0,430.0,180.0,3.0,0.0
4745,60.0,0.0,390.0,5.0,0.0
4746,48.0,50.0,390.0,5.0,0.0
4747,75.0,430.0,180.0,3.0,0.0
4748,55.0,0.0,390.0,5.0,0.0
4749,43.0,50.0,390.0,5.0,0.0
4750,75.0,430.0,180.0,3.0,0.0
4751,87.0,50.0,390.0,2.0,0.0
4752,55.0,40.0,1830.0,5.0,0.0
4753,91.0,0.0,390.0,1.0,0.0
4754,60.0,0.0,390.0,5.0,0.0
4755,75.0,430.0,180.0,3.0,0.0
4756,62.0,0.0,390.0,5.0,0.0
4757,86.0,50.0,390.0,2.0,0.0
4758,89.0,0.0,390.0,1.0,0.0
4759,75.0,430.0,180.0,3.0,0.0
4760,84.0,50.0,390.0,2.0,0.0
4761,63.0,0.0,390.0,5.0,0.0
4762,87.0,0.0,390.0,1.0,0.0
4763,75.0,430.0,180.0,3.0,0.0
4764,79.0,0.0,390.0,2.0,0.0
4765,67.0,10.0,390.0,5.0,0.0
4766,84.0,0.0,390.0,1.0,0.0
4767,75.0,430.0,180.0,3.0,0.0
4768,56.0,50.0,390.0,5.0,0.0
4769,48.0,0.0,390.0,4.0,0.0
4770,75.0,430.0,180.0,3.0,0.0
4771,46.0,0.0,390.0,4.0,0.0
4772,43.0,0.0,390.0,4.0,0.0
4773,51.0,50.0,390.0,5.0,0.0
4774,75.0,430.0,180.0,3.0,0.0
4775,84.0,0.0,390.0,1.0,0.0
4776,68.0,50.0,390.0,2.0,0.0
4777,72.0,0.0,390.0,2.0,0.0
4778,80.0,0.0,390.0,2.0,0.0
4779,75.0,430.0,180.0,3.0,0.0
4780,82.0,50.0,390.0,1.0,0.0
4781,70.0,0.0,390.0,2.0,0.0
4782,79.0,0.0,390.0,2.0,0.0
4783,63.0,0.0,390.0,2.0,0.0
4784,75.0,430.0,180.0,3.0,0.0
4785,55.0,50.0,390.0,5.0,0.0
4786,48.0,0.0,390.0,4.0,0.0
4787,51.0,0.0,390.0,4.0,0.0
4788,75.0,430.0,180.0,3.0,0.0
4789,46.0,50.0,390.0,4.0,0.0
4790,43.0,0.0,390.0,4.0,0.0
4791,51.0,0.0,390.0,5.0,0.0
4792,75.0,430.0,180.0,3.0,0.0
4793,72.0,0.0,390.0,2.0,0.0
4794,79.0,0.0,390.0,2.0,0.0
4795,84.0,50.0,390.0,1.0,0.0
4796,67.0,0.0,390.0,2.0,0.0
4797,75.0,430.0,180.0,3.0,0.0
4798,63.0,0.0,390.0,2.0,0.0
4799,79.0,0.0,390.0,2.0,0.0
4800,70.0,50.0,390.0,2.0,0.0
4801,82.0,0.0,390.0,1.0,0.0
4802,75.0,480.0,180.0,3.0,0.0
4803,48.0,0.0,870.0,4.0,0.0
4804,54.0,370.0,480.0,5.0,0.0
4805,42.0,0.0,480.0,5.0,0.0
4806,45.0,10.0,840.0,4.0,0.0
4807,75.0,50.0,180.0,3.0,0.0
4808,51.0,50.0,390.0,5.0,0.0
4809,39.0,0.0,390.0,5.0,0.0
4810,75.0,480.0,180.0,3.0,0.0
4811,39.0,370.0,480.0,5.0,0.0
4812,51.0,0.0,480.0,5.0,0.0
4813,45.0,10.0,840.0,4.0,0.0
4814,48.0,0.0,870.0,4.0,0.0
4815,77.0,50.0,180.0,3.0,0.0
4816,38.0,50.0,390.0,5.0,0.0
4817,50.0,0.0,390.0,5.0,0.0
4818,78.0,480.0,180.0,3.0,0.0
4819,50.0,380.0,1920.0,5.0,0.0
4820,43.0,0.0,1920.0,5.0,0.0
4821,46.0,0.0,1920.0,4.0,0.0
4822,79.0,480.0,180.0,3.0,0.0
4823,67.0,0.0,180.0,3.0,0.0
4824,79.0,480.0,180.0,3.0,0.0
4825,67.0,0.0,180.0,3.0,0.0
4826,79.0,0.0,180.0,3.0,0.0
4827,67.0,480.0,180.0,3.0,0.0
4828,67.0,0.0,180.0,3.0,0.0
4829,79.0,50.0,180.0,3.0,0.0
4830,46.0,0.0,390.0,5.0,0.0
4831,58.0,50.0,390.0,5.0,0.0
4832,79.0,0.0,180.0,3.0,0.0
4833,67.0,430.0,180.0,3.0,0.0
4834,60.0,50.0,390.0,5.0,0.0
4835,48.0,0.0,390.0,5.0,0.0
4836,79.0,430.0,180.0,3.0,0.0
4837,67.0,0.0,180.0,3.0,0.0
4838,62.0,50.0,390.0,5.0,0.0
4839,50.0,0.0,390.0,5.0,0.0
4840,66.0,430.0,180.0,3.0,0.0
4841,78.0,0.0,180.0,3.0,0.0
4842,57.0,0.0,390.0,5.0,0.0
4843,45.0,50.0,390.0,5.0,0.0
4844,78.0,430.0,180.0,3.0,0.0
4845,66.0,0.0,180.0,3.0,0.0
4846,90.0,0.0,390.0,1.0,0.0
4847,87.0,50.0,390.0,2.0,0.0
4848,78.0,0.0,180.0,3.0,0.0
4849,66.0,430.0,180.0,3.0,0.0
4850,89.0,0.0,390.0,1.0,0.0
4851,86.0,50.0,390.0,2.0,0.0
4852,78.0,0.0,180.0,3.0,0.0
4853,66.0,430.0,180.0,3.0,0.0
4854,87.0,0.0,390.0,1.0,0.0
4855,84.0,0.0,390.0,2.0,0.0
4856,48.0,50.0,390.0,5.0,0.0
4857,60.0,0.0,390.0,5.0,0.0
4858,78.0,430.0,180.0,3.0,0.0
4859,66.0,0.0,180.0,3.0,0.0
4860,50.0,0.0,390.0,5.0,0.0
4861,62.0,0.0,390.0,5.0,0.0
4862,84.0,40.0,390.0,1.0,0.0
4863,66.0,440.0,180.0,3.0,0.0
4864,78.0,0.0,180.0,3.0,0.0
4865,63.0,0.0,390.0,5.0,0.0
4866,51.0,50.0,390.0,5.0,0.0
4867,66.0,410.0,180.0,3.0,0.0
4868,78.0,0.0,180.0,3.0,0.0
4869,65.0,20.0,360.0,5.0,0.0
4870,53.0,50.0,390.0,5.0,0.0
4871,66.0,90.0,180.0,3.0,0.0
4872,78.0,0.0,180.0,3.0,0.0
4873,65.0,335.0,120.0,5.0,0.0
4874,53.0,0.0,120.0,5.0,0.0
4875,66.0,5.0,360.0,5.0,0.0
4876,54.0,50.0,390.0,5.0,0.0
4877,78.0,430.0,180.0,3.0,0.0
4878,66.0,0.0,180.0,3.0,0.0
4879,46.0,0.0,390.0,5.0,0.0
4880,58.0,20.0,390.0,5.0,0.0
4881,66.0,450.0,180.0,3.0,0.0
4882,78.0,10.0,150.0,3.0,0.0
4883,90.0,0.0,390.0,2.0,0.0
4884,63.0,0.0,390.0,5.0,0.0
4885,94.0,50.0,390.0,1.0,0.0
4886,78.0,0.0,180.0,3.0,0.0
4887,66.0,430.0,180.0,3.0,0.0
4888,62.0,0.0,390.0,5.0,0.0
4889,89.0,50.0,390.0,2.0,0.0
4890,92.0,0.0,390.0,1.0,0.0
4891,78.0,0.0,180.0,3.0,0.0
4892,66.0,430.0,180.0,3.0,0.0
4893,87.0,0.0,390.0,2.0,0.0
4894,90.0,50.0,390.0,1.0,0.0
4895,63.0,0.0,390.0,5.0,0.0
4896,78.0,0.0,180.0,3.0,0.0
4897,66.0,430.0,180.0,3.0,0.0
4898,82.0,0.0,390.0,2.0,0.0
4899,87.0,20.0,390.0,1.0,0.0
4900,78.0,20.0,150.0,3.0,0.0
4901,66.0,490.0,180.0,3.0,0.0
4902,54.0,10.0,630.0,4.0,0.0
4903,59.0,110.0,660.0,5.0,0.0
4904,51.0,10.0,630.0,4.0,0.0
4905,47.0,0.0,630.0,5.0,0.0
4906,66.0,200.0,180.0,3.0,0.0
4907,78.0,0.0,180.0,3.0,0.0
4908,75.0,0.0,180.0,3.0,0.0
4909,49.0,150.0,120.0,5.0,0.0
4910,61.0,0.0,120.0,5.0,0.0
4911,59.0,0.0,240.0,5.0,0.0
4912,75.0,0.0,180.0,3.0,0.0
4913,78.0,50.0,180.0,3.0,0.0
4914,66.0,0.0,180.0,3.0,0.0
4915,47.0,240.0,240.0,5.0,0.0
4916,58.0,190.0,240.0,5.0,0.0
4917,46.0,0.0,240.0,5.0,0.0
4918,47.0,240.0,240.0,5.0,0.0
4919,78.0,0.0,180.0,3.0,0.0
4920,75.0,0.0,180.0,3.0,0.0
4921,66.0,50.0,180.0,3.0,0.0
4922,59.0,0.0,240.0,5.0,0.0
4923,63.0,0.0,240.0,5.0,0.0
4924,51.0,190.0,240.0,5.0,0.0
4925,59.0,0.0,240.0,5.0,0.0
4926,78.0,50.0,180.0,3.0,0.0
4927,66.0,0.0,180.0,3.0,0.0
4928,75.0,0.0,180.0,3.0,0.0
4929,47.0,430.0,15.0,5.0,0.0
4930,59.0,0.0,480.0,5.0,0.0
4931,51.0,430.0,480.0,4.0,0.0
4932,54.0,0.0,480.0,4.0,0.0
4933,69.0,0.0,180.0,3.0,0.0
4934,66.0,0.0,180.0,3.0,0.0
4935,78.0,50.0,180.0,3.0,0.0
4936,75.0,0.0,180.0,3.0,0.0
4937,58.0,430.0,480.0,5.0,0.0
4938,69.0,0.0,180.0,3.0,0.0
4939,66.0,0.0,180.0,3.0,0.0
4940,75.0,0.0,180.0,3.0,0.0
4941,78.0,50.0,180.0,3.0,0.0
4942,54.0,0.0,900.0,4.0,0.0
4943,51.0,10.0,900.0,4.0,0.0
4944,46.0,0.0,15.0,5.0,0.0
4945,58.0,0.0,900.0,5.0,0.0
4946,78.0,0.0,180.0,3.0,0.0
4947,66.0,0.0,180.0,3.0,0.0
4948,69.0,470.0,180.0,3.0,0.0
4949,75.0,0.0,180.0,3.0,0.0
4950,75.0,0.0,180.0,3.0,0.0
4951,78.0,480.0,180.0,3.0,0.0
4952,66.0,0.0,180.0,3.0,0.0
4953,69.0,0.0,180.0,3.0,0.0
4954,52.0,0.0,660.0,4.0,0.0
4955,58.0,0.0,630.0,5.0,0.0
4956,46.0,20.0,630.0,5.0,0.0
4957,49.0,0.0,630.0,4.0,0.0
4958,54.0,110.0,660.0,4.0,0.0
4959,66.0,0.0,180.0,3.0,0.0
4960,73.0,0.0,180.0,3.0,0.0
4961,76.0,0.0,180.0,3.0,0.0
4962,78.0,200.0,180.0,3.0,0.0
4963,59.0,0.0,120.0,5.0,0.0
4964,47.0,150.0,120.0,5.0,0.0
4965,78.0,50.0,180.0,3.0,0.0
4966,46.0,240.0,240.0,5.0,0.0
4967,58.0,0.0,240.0,5.0,0.0
4968,76.0,0.0,180.0,3.0,0.0
4969,73.0,0.0,180.0,3.0,0.0
4970,66.0,0.0,180.0,3.0,0.0
4971,56.0,190.0,240.0,5.0,0.0
4972,44.0,0.0,240.0,5.0,0.0
4973,66.0,0.0,180.0,3.0,0.0
4974,78.0,0.0,180.0,3.0,0.0
4975,46.0,240.0,240.0,5.0,0.0
4976,58.0,0.0,240.0,5.0,0.0
4977,73.0,50.0,180.0,3.0,0.0
4978,76.0,0.0,180.0,3.0,0.0
4979,61.0,190.0,240.0,5.0,0.0
4980,49.0,0.0,240.0,5.0,0.0
4981,66.0,0.0,180.0,3.0,0.0
4982,76.0,0.0,180.0,3.0,0.0
4983,73.0,50.0,180.0,3.0,0.0
4984,78.0,0.0,180.0,3.0,0.0
4985,58.0,0.0,15.0,5.0,0.0
4986,46.0,430.0,15.0,5.0,0.0
4987,51.0,0.0,480.0,4.0,0.0
4988,54.0,0.0,480.0,4.0,0.0
4989,66.0,50.0,180.0,3.0,0.0
4990,75.0,0.0,180.0,3.0,0.0
4991,78.0,0.0,180.0,3.0,0.0
4992,72.0,0.0,180.0,3.0,0.0
4993,66.0,0.0,180.0,3.0,0.0
4994,78.0,0.0,180.0,3.0,0.0
4995,75.0,50.0,180.0,3.0,0.0
4996,72.0,0.0,180.0,3.0,0.0
4997,51.0,0.0,720.0,4.0,0.0
4998,54.0,190.0,720.0,4.0,0.0
4999,56.0,0.0,15.0,5.0,0.0
5000,44.0,430.0,15.0,5.0,0.0
5001,72.0,0.0,180.0,3.0,0.0
5002,66.0,290.0,180.0,3.0,0.0
5003,75.0,0.0,180.0,3.0,0.0
5004,78.0,0.0,180.0,3.0,0.0
5005,44.0,0.0,15.0,5.0,0.0
5006,75.0,0.0,180.0,3.0,0.0
5007,78.0,0.0,180.0,3.0,0.0
5008,72.0,50.0,180.0,3.0,0.0
5009,56.0,430.0,240.0,5.0,0.0
5010,66.0,0.0,180.0,3.0,0.0
5011,44.0,430.0,480.0,5.0,0.0
5012,56.0,0.0,480.0,5.0,0.0
5013,69.0,50.0,180.0,3.0,0.0
5014,66.0,0.0,180.0,3.0,0.0
5015,78.0,0.0,180.0,3.0,0.0
5016,72.0,0.0,180.0,3.0,0.0
5017,42.0,430.0,480.0,5.0,0.0
5018,54.0,0.0,480.0,5.0,0.0
5019,69.0,0.0,180.0,3.0,0.0
5020,66.0,0.0,180.0,3.0,0.0
5021,72.0,0.0,180.0,3.0,0.0
5022,78.0,50.0,180.0,3.0,0.0
5023,53.0,430.0,480.0,5.0,0.0
5024,41.0,0.0,480.0,5.0,0.0
5025,69.0,0.0,180.0,3.0,0.0
5026,72.0,0.0,180.0,3.0,0.0
5027,78.0,0.0,180.0,3.0,0.0
5028,66.0,50.0,180.0,3.0,0.0
5029,51.0,0.0,480.0,5.0,0.0
5030,39.0,430.0,480.0,5.0,0.0
5031,78.0,0.0,180.0,3.0,0.0
5032,66.0,50.0,180.0,3.0,0.0
5033,72.0,0.0,180.0,3.0,0.0
5034,69.0,0.0,180.0,3.0,0.0
5035,44.0,10.0,2880.0,4.0,0.0
5036,47.0,0.0,2880.0,4.0,0.0
5037,50.0,430.0,480.0,5.0,0.0
5038,38.0,0.0,2880.0,5.0,0.0
5039,66.0,0.0,180.0,3.0,0.0
5040,72.0,0.0,180.0,3.0,0.0
5041,78.0,50.0,180.0,3.0,0.0
5042,69.0,0.0,180.0,3.0,0.0
5043,72.0,0.0,180.0,3.0,0.0
5044,78.0,0.0,180.0,3.0,0.0
5045,81.0,0.0,180.0,3.0,0.0
5046,69.0,50.0,180.0,3.0,0.0
5047,54.0,1910.0,15.0,5.0,0.0
5048,72.0,1430.0,1680.0,3.0,0.0
5049,84.0,0.0,1680.0,3.0,0.0
5050,81.0,0.0,1680.0,3.0,0.0
5051,75.0,10.0,1680.0,3.0,0.0
5052,46.0,0.0,480.0,5.0,0.0
5053,55.0,240.0,240.0,2.0,0.0
5054,48.0,0.0,480.0,5.0,0.0
5055,56.0,240.0,240.0,2.0,0.0
5056,57.0,240.0,240.0,2.0,0.0
5057,39.0,0.0,15.0,5.0,0.0
5058,49.0,240.0,480.0,5.0,0.0
5059,60.0,240.0,240.0,2.0,0.0
5060,58.0,0.0,240.0,2.0,0.0
5061,54.0,620.0,240.0,2.0,0.0
5062,45.0,0.0,2400.0,5.0,0.0
5063,75.0,100.0,390.0,1.0,0.0
5064,72.0,0.0,390.0,2.0,0.0
5065,84.0,240.0,240.0,1.0,0.0
5066,70.0,0.0,390.0,2.0,0.0
5067,74.0,100.0,390.0,1.0,0.0
5068,86.0,140.0,240.0,1.0,0.0
5069,89.0,240.0,240.0,1.0,0.0
5070,72.0,0.0,390.0,1.0,0.0
5071,69.0,340.0,390.0,2.0,0.0
5072,87.0,140.0,240.0,1.0,0.0
5073,84.0,140.0,480.0,1.0,0.0
5074,63.0,0.0,390.0,2.0,0.0
5075,66.0,100.0,390.0,1.0,0.0
5076,81.0,480.0,240.0,1.0,0.0
5077,48.0,240.0,480.0,5.0,0.0
5078,39.0,0.0,960.0,5.0,0.0
5079,57.0,0.0,240.0,2.0,0.0
5080,50.0,240.0,480.0,5.0,0.0
5081,58.0,240.0,240.0,2.0,0.0
5082,59.0,0.0,240.0,2.0,0.0
5083,62.0,240.0,240.0,2.0,0.0
5084,39.0,0.0,2880.0,5.0,0.0
5085,51.0,0.0,480.0,5.0,0.0
5086,60.0,860.0,240.0,2.0,0.0
5087,55.0,0.0,2400.0,2.0,0.0
5088,79.0,100.0,390.0,1.0,0.0
5089,75.0,0.0,390.0,2.0,0.0
5090,81.0,240.0,240.0,1.0,0.0
5091,74.0,0.0,390.0,2.0,0.0
5092,83.0,140.0,240.0,1.0,0.0
5093,77.0,100.0,390.0,1.0,0.0
5094,86.0,240.0,240.0,1.0,0.0
5095,84.0,140.0,240.0,1.0,0.0
5096,75.0,0.0,390.0,1.0,0.0
5097,72.0,100.0,390.0,2.0,0.0
5098,91.0,380.0,240.0,1.0,0.0
5099,63.0,0.0,390.0,2.0,0.0
5100,72.0,100.0,390.0,1.0,0.0
5101,96.0,640.0,240.0,1.0,0.0
5102,48.0,0.0,15.0,5.0,0.0
5103,39.0,640.0,1920.0,5.0,0.0
5104,54.0,40.0,480.0,4.0,0.0
5105,56.0,80.0,390.0,5.0,0.0
5106,60.0,200.0,120.0,5.0,0.0
5107,58.0,480.0,240.0,5.0,0.0
5108,70.0,0.0,480.0,5.0,0.0
5109,66.0,240.0,480.0,4.0,0.0
5110,82.0,0.0,480.0,1.0,0.0
5111,78.0,240.0,480.0,2.0,0.0
5112,63.0,0.0,480.0,5.0,0.0
5113,60.0,0.0,480.0,4.0,0.0
5114,72.0,0.0,240.0,2.0,0.0
5115,75.0,0.0,240.0,1.0,0.0
5116,49.0,0.0,1920.0,5.0,0.0
5117,37.0,0.0,1920.0,5.0,0.0
5118,56.0,80.0,390.0,5.0,0.0
5119,54.0,40.0,480.0,4.0,0.0
5120,60.0,200.0,120.0,5.0,0.0
5121,58.0,480.0,240.0,5.0,0.0
5122,70.0,0.0,480.0,5.0,0.0
5123,66.0,240.0,480.0,4.0,0.0
5124,78.0,0.0,480.0,2.0,0.0
5125,82.0,240.0,480.0,1.0,0.0
5126,61.0,0.0,480.0,5.0,0.0
5127,58.0,0.0,480.0,4.0,0.0
5128,70.0,480.0,240.0,2.0,0.0
5129,73.0,0.0,240.0,1.0,0.0
5130,36.0,310.0,1380.0,5.0,0.0
5131,48.0,10.0,1350.0,5.0,0.0
5132,54.0,0.0,240.0,4.0,0.0
5133,51.0,350.0,240.0,4.0,0.0
5134,57.0,0.0,240.0,5.0,0.0
5135,60.0,90.0,360.0,5.0,0.0
5136,84.0,30.0,330.0,1.0,0.0
5137,72.0,80.0,360.0,2.0,0.0
5138,62.0,80.0,120.0,5.0,0.0
5139,65.0,50.0,120.0,5.0,0.0
5140,63.0,0.0,720.0,5.0,0.0
5141,86.0,80.0,120.0,1.0,0.0
5142,89.0,120.0,120.0,1.0,0.0
5143,87.0,120.0,480.0,1.0,0.0
5144,75.0,0.0,480.0,2.0,0.0
5145,38.0,5.0,390.0,5.0,0.0
5146,45.0,115.0,390.0,5.0,0.0
5147,54.0,0.0,360.0,5.0,0.0
5148,62.0,0.0,120.0,5.0,0.0
5149,86.0,240.0,240.0,1.0,0.0
5150,74.0,0.0,120.0,2.0,0.0
5151,43.0,235.0,1980.0,5.0,0.0
5152,50.0,0.0,1980.0,5.0,0.0
5153,58.0,0.0,1950.0,5.0,0.0
5154,62.0,1.0,1920.0,5.0,0.0
5155,75.0,0.0,120.0,2.0,0.0
5156,87.0,350.0,120.0,1.0,0.0
5157,86.0,120.0,360.0,1.0,0.0
5158,74.0,10.0,360.0,2.0,0.0
5159,82.0,0.0,120.0,1.0,0.0
5160,70.0,360.0,120.0,2.0,0.0
5161,67.0,120.0,360.0,2.0,0.0
5162,79.0,0.0,360.0,1.0,0.0
5163,63.0,0.0,120.0,2.0,0.0
5164,75.0,360.0,120.0,1.0,0.0
5165,62.0,0.0,360.0,2.0,0.0
5166,74.0,120.0,360.0,1.0,0.0
5167,70.0,244.0,120.0,1.0,0.0
5168,58.0,0.0,120.0,2.0,0.0
5169,55.0,240.0,480.0,5.0,0.0
5170,67.0,0.0,480.0,1.0,0.0
5171,63.0,240.0,240.0,1.0,0.0
5172,51.0,0.0,240.0,5.0,0.0
5173,62.0,240.0,240.0,1.0,0.0
5174,50.0,0.0,240.0,5.0,0.0
5175,46.0,240.0,240.0,5.0,0.0
5176,58.0,0.0,240.0,1.0,0.0
5177,43.0,240.0,240.0,5.0,0.0
5178,55.0,0.0,240.0,1.0,0.0
5179,39.0,240.0,240.0,5.0,0.0
5180,51.0,0.0,240.0,1.0,0.0
5181,38.0,0.0,240.0,5.0,0.0
5182,50.0,240.0,240.0,1.0,0.0
5183,34.0,0.0,240.0,5.0,0.0
5184,46.0,480.0,240.0,1.0,0.0
5185,42.0,20.0,4290.0,5.0,0.0
5186,30.0,10.0,4290.0,5.0,0.0
5187,57.0,240.0,240.0,5.0,0.0
5188,60.0,240.0,240.0,5.0,0.0
5189,62.0,240.0,240.0,5.0,0.0
5190,65.0,240.0,240.0,5.0,0.0
5191,63.0,240.0,240.0,5.0,0.0
5192,60.0,240.0,240.0,5.0,0.0
5193,57.0,380.0,240.0,5.0,0.0
5194,75.0,50.0,390.0,2.0,0.0
5195,78.0,0.0,390.0,1.0,0.0
5196,84.0,51.0,180.0,1.0,0.0
5197,86.0,190.0,180.0,1.0,0.0
5198,77.0,50.0,390.0,1.0,0.0
5199,74.0,189.0,15.0,2.0,0.0
5200,89.0,240.0,180.0,1.0,0.0
5201,75.0,50.0,390.0,1.0,0.0
5202,87.0,0.0,180.0,1.0,0.0
5203,72.0,190.0,180.0,2.0,0.0
5204,84.0,50.0,180.0,1.0,0.0
5205,57.0,190.0,240.0,5.0,0.0
5206,72.0,50.0,180.0,2.0,0.0
5207,81.0,0.0,180.0,1.0,0.0
5208,60.0,190.0,240.0,5.0,0.0
5209,75.0,0.0,180.0,2.0,0.0
5210,62.0,260.0,240.0,5.0,0.0
5211,78.0,50.0,180.0,1.0,0.0
5212,63.0,60.0,270.0,5.0,0.0
5213,54.0,240.0,480.0,4.0,0.0
5214,58.0,0.0,480.0,4.0,0.0
5215,65.0,80.0,90.0,5.0,0.0
5216,63.0,50.0,90.0,5.0,0.0
5217,62.0,0.0,90.0,5.0,0.0
5218,30.0,0.0,1440.0,5.0,0.0
5219,63.0,240.0,240.0,5.0,0.0
5220,65.0,240.0,240.0,5.0,0.0
5221,68.0,240.0,240.0,5.0,0.0
5222,66.0,0.0,240.0,5.0,0.0
5223,82.0,240.0,240.0,1.0,0.0
5224,70.0,0.0,240.0,2.0,0.0
5225,63.0,0.0,240.0,5.0,0.0
5226,75.0,0.0,240.0,2.0,0.0
5227,87.0,240.0,240.0,1.0,0.0
5228,58.0,240.0,240.0,5.0,0.0
5229,77.0,0.0,240.0,2.0,0.0
5230,89.0,0.0,240.0,1.0,0.0
5231,42.0,0.0,15.0,5.0,0.0
5232,90.0,80.0,240.0,1.0,0.0
5233,30.0,280.0,1890.0,5.0,0.0
5234,78.0,0.0,480.0,2.0,0.0
5235,92.0,60.0,90.0,1.0,0.0
5236,90.0,60.0,90.0,1.0,0.0
5237,89.0,50.0,90.0,1.0,0.0
5238,90.0,230.0,60.0,1.0,0.0
5239,92.0,0.0,240.0,1.0,0.0
5240,89.0,140.0,240.0,2.0,0.0
5241,83.0,0.0,240.0,2.0,0.0
5242,71.0,20.0,390.0,4.0,0.0
5243,77.0,20.0,390.0,4.0,0.0
5244,80.0,60.0,390.0,4.0,0.0
5245,95.0,240.0,240.0,1.0,0.0
5246,82.0,140.0,240.0,2.0,0.0
5247,87.0,0.0,240.0,2.0,0.0
5248,94.0,0.0,240.0,1.0,0.0
5249,70.0,20.0,390.0,4.0,0.0
5250,75.0,20.0,390.0,4.0,0.0
5251,78.0,60.0,390.0,4.0,0.0
5252,90.0,240.0,240.0,1.0,0.0
5253,78.0,0.0,240.0,2.0,0.0
5254,66.0,20.0,390.0,4.0,0.0
5255,87.0,140.0,240.0,1.0,0.0
5256,70.0,20.0,390.0,4.0,0.0
5257,75.0,10.0,390.0,4.0,0.0
5258,82.0,0.0,210.0,1.0,0.0
5259,42.0,5.0,960.0,5.0,0.0
5260,51.0,0.0,930.0,4.0,0.0
5261,86.0,240.0,240.0,1.0,0.0
5262,58.0,0.0,240.0,5.0,0.0
5263,78.0,0.0,240.0,2.0,0.0
5264,74.0,0.0,240.0,2.0,0.0
5265,87.0,0.0,240.0,1.0,0.0
5266,75.0,0.0,240.0,2.0,0.0
5267,59.0,240.0,240.0,5.0,0.0
5268,78.0,0.0,240.0,2.0,0.0
5269,83.0,0.0,240.0,2.0,0.0
5270,54.0,0.0,240.0,4.0,0.0
5271,90.0,0.0,240.0,1.0,0.0
5272,63.0,195.0,240.0,5.0,0.0
5273,75.0,360.0,210.0,2.0,0.0
5274,59.0,0.0,180.0,5.0,0.0
5275,87.0,0.0,210.0,1.0,0.0
5276,75.0,20.0,360.0,2.0,0.0
5277,76.0,20.0,360.0,2.0,0.0
5278,49.0,0.0,930.0,4.0,0.0
5279,87.0,115.0,360.0,1.0,0.0
5280,52.0,5.0,480.0,4.0,0.0
5281,59.0,195.0,720.0,5.0,0.0
5282,30.0,0.0,240.0,5.0,0.0
5283,85.0,240.0,120.0,1.0,0.0
5284,73.0,0.0,120.0,2.0,0.0
5285,42.0,0.0,15.0,5.0,0.0
5286,76.0,0.0,420.0,2.0,0.0
5287,85.0,240.0,480.0,1.0,0.0
5288,52.0,40.0,450.0,4.0,0.0
5289,58.0,0.0,210.0,5.0,0.0
5290,42.0,30.0,930.0,5.0,0.0
5291,49.0,45.0,930.0,4.0,0.0
5292,72.0,0.0,240.0,2.0,0.0
5293,57.0,5.0,240.0,5.0,0.0
5294,76.0,235.0,240.0,2.0,0.0
5295,52.0,165.0,720.0,4.0,0.0
5296,84.0,0.0,240.0,1.0,0.0
5297,58.0,0.0,240.0,5.0,0.0
5298,73.0,0.0,240.0,2.0,0.0
5299,85.0,240.0,240.0,1.0,0.0
5300,78.0,0.0,240.0,2.0,0.0
5301,76.0,0.0,240.0,2.0,0.0
5302,88.0,0.0,240.0,1.0,0.0
5303,54.0,0.0,240.0,4.0,0.0
5304,61.0,0.0,240.0,5.0,0.0
5305,58.0,0.0,240.0,5.0,0.0
5306,85.0,0.0,240.0,1.0,0.0
5307,73.0,360.0,240.0,2.0,0.0
5308,42.0,235.0,1020.0,5.0,0.0
5309,47.0,0.0,990.0,4.0,0.0
5310,57.0,0.0,480.0,5.0,0.0
5311,51.0,5.0,960.0,4.0,0.0
5312,85.0,0.0,360.0,1.0,0.0
5313,81.0,120.0,360.0,2.0,0.0
5314,78.0,0.0,360.0,2.0,0.0
5315,73.0,0.0,360.0,2.0,0.0
5316,30.0,0.0,240.0,5.0,0.0
5317,71.0,0.0,120.0,2.0,0.0
5318,63.0,0.0,480.0,4.0,0.0
5319,57.0,0.0,480.0,4.0,0.0
5320,66.0,5.0,480.0,4.0,0.0
5321,81.0,0.0,420.0,2.0,0.0
5322,75.0,0.0,420.0,2.0,0.0
5323,71.0,0.0,420.0,2.0,0.0
5324,83.0,435.0,15.0,1.0,0.0
5325,78.0,0.0,420.0,2.0,0.0
5326,69.0,0.0,240.0,5.0,0.0
5327,71.0,0.0,750.0,2.0,0.0
5328,76.0,10.0,720.0,2.0,0.0
5329,64.0,5.0,900.0,4.0,0.0
5330,59.0,0.0,900.0,4.0,0.0
5331,54.0,0.0,15.0,4.0,0.0
5332,67.0,240.0,240.0,5.0,0.0
5333,83.0,0.0,720.0,1.0,0.0
5334,68.0,230.0,240.0,5.0,0.0
5335,71.0,155.0,240.0,5.0,0.0
5336,68.0,40.0,150.0,5.0,0.0
5337,76.0,280.0,210.0,2.0,0.0
5338,71.0,0.0,210.0,2.0,0.0
5339,83.0,0.0,180.0,1.0,0.0
5340,54.0,5.0,480.0,4.0,0.0
5341,59.0,0.0,450.0,4.0,0.0
5342,82.0,15.0,240.0,1.0,0.0
5343,63.0,0.0,450.0,4.0,0.0
5344,68.0,75.0,360.0,5.0,0.0
5345,70.0,105.0,240.0,2.0,0.0
5346,83.0,5.0,210.0,1.0,0.0
5347,71.0,275.0,210.0,2.0,0.0
5348,66.0,0.0,90.0,5.0,0.0
5349,54.0,10.0,510.0,4.0,0.0
5350,59.0,0.0,510.0,4.0,0.0
5351,66.0,0.0,480.0,5.0,0.0
5352,75.0,230.0,240.0,2.0,0.0
5353,63.0,240.0,480.0,4.0,0.0
5354,87.0,0.0,240.0,1.0,0.0
5355,83.0,0.0,240.0,1.0,0.0
5356,71.0,0.0,240.0,2.0,0.0
5357,30.0,140.0,1890.0,5.0,0.0
5358,63.0,120.0,240.0,5.0,0.0
5359,76.0,0.0,360.0,2.0,0.0
5360,78.0,0.0,360.0,2.0,0.0
5361,71.0,0.0,360.0,2.0,0.0
5362,54.0,0.0,480.0,4.0,0.0
5363,83.0,120.0,360.0,1.0,0.0
5364,64.0,0.0,240.0,5.0,0.0
5365,70.0,240.0,120.0,2.0,0.0
5366,82.0,0.0,15.0,1.0,0.0
5367,68.0,240.0,240.0,5.0,0.0
5368,70.0,0.0,480.0,2.0,0.0
5369,64.0,240.0,240.0,5.0,0.0
5370,54.0,0.0,15.0,4.0,0.0
5371,63.0,120.0,360.0,5.0,0.0
5372,69.0,0.0,240.0,2.0,0.0
5373,78.0,0.0,240.0,2.0,0.0
5374,76.0,120.0,240.0,2.0,0.0
5375,81.0,0.0,240.0,1.0,0.0
5376,70.0,0.0,240.0,2.0,0.0
5377,82.0,0.0,240.0,1.0,0.0
5378,61.0,0.0,120.0,5.0,0.0
5379,61.0,0.0,480.0,5.0,0.0
5380,78.0,0.0,240.0,2.0,0.0
5381,54.0,0.0,15.0,4.0,0.0
5382,73.0,0.0,240.0,2.0,0.0
5383,76.0,100.0,240.0,2.0,0.0
5384,52.0,240.0,15.0,4.0,0.0
5385,85.0,0.0,240.0,1.0,0.0
5386,82.0,120.0,240.0,1.0,0.0
5387,70.0,0.0,240.0,2.0,0.0
5388,30.0,120.0,240.0,5.0,0.0
5389,75.0,100.0,390.0,2.0,0.0
5390,78.0,0.0,390.0,2.0,0.0
5391,81.0,0.0,390.0,1.0,0.0
5392,69.0,0.0,390.0,2.0,0.0
5393,47.0,0.0,240.0,5.0,0.0
5394,59.0,140.0,240.0,5.0,0.0
5395,48.0,240.0,240.0,5.0,0.0
5396,60.0,0.0,240.0,5.0,0.0
5397,78.0,0.0,390.0,1.0,0.0
5398,72.0,100.0,390.0,2.0,0.0
5399,66.0,0.0,390.0,2.0,0.0
5400,69.0,0.0,390.0,2.0,0.0
5401,51.0,140.0,240.0,5.0,0.0
5402,63.0,0.0,240.0,5.0,0.0
5403,48.0,0.0,240.0,5.0,0.0
5404,60.0,240.0,240.0,5.0,0.0
5405,77.0,0.0,390.0,1.0,0.0
5406,72.0,100.0,390.0,2.0,0.0
5407,65.0,0.0,390.0,2.0,0.0
5408,75.0,0.0,390.0,2.0,0.0
5409,56.0,140.0,240.0,5.0,0.0
5410,44.0,0.0,240.0,5.0,0.0
5411,57.0,0.0,240.0,5.0,0.0
5412,45.0,240.0,240.0,5.0,0.0
5413,75.0,0.0,390.0,1.0,0.0
5414,63.0,0.0,390.0,2.0,0.0
5415,60.0,140.0,240.0,5.0,0.0
5416,69.0,100.0,390.0,2.0,0.0
5417,66.0,0.0,390.0,2.0,0.0
5418,48.0,0.0,240.0,5.0,0.0
5419,57.0,240.0,240.0,5.0,0.0
5420,45.0,0.0,240.0,5.0,0.0
5421,84.0,100.0,390.0,1.0,0.0
5422,41.0,0.0,240.0,5.0,0.0
5423,53.0,140.0,240.0,5.0,0.0
5424,72.0,0.0,390.0,2.0,0.0
5425,81.0,0.0,390.0,2.0,0.0
5426,75.0,0.0,390.0,2.0,0.0
5427,42.0,0.0,240.0,5.0,0.0
5428,54.0,240.0,240.0,5.0,0.0
5429,81.0,100.0,390.0,1.0,0.0
5430,45.0,140.0,240.0,5.0,0.0
5431,57.0,0.0,240.0,5.0,0.0
5432,78.0,0.0,390.0,2.0,0.0
5433,75.0,0.0,390.0,2.0,0.0
5434,69.0,0.0,390.0,2.0,0.0
5435,72.0,0.0,390.0,2.0,0.0
5436,54.0,0.0,240.0,5.0,0.0
5437,42.0,240.0,240.0,5.0,0.0
5438,38.0,0.0,240.0,5.0,0.0
5439,50.0,140.0,240.0,5.0,0.0
5440,78.0,0.0,390.0,1.0,0.0
5441,72.0,100.0,390.0,2.0,0.0
5442,66.0,0.0,390.0,2.0,0.0
5443,69.0,0.0,390.0,2.0,0.0
5444,51.0,190.0,240.0,5.0,0.0
5445,39.0,0.0,240.0,5.0,0.0
5446,55.0,0.0,240.0,5.0,0.0
5447,43.0,165.0,240.0,5.0,0.0
5448,65.0,0.0,180.0,2.0,0.0
5449,72.0,50.0,180.0,2.0,0.0
5450,69.0,0.0,180.0,2.0,0.0
5451,77.0,0.0,180.0,1.0,0.0
5452,67.0,290.0,180.0,2.0,0.0
5453,33.0,0.0,180.0,5.0,0.0
5454,21.0,25.0,180.0,5.0,0.0
5455,72.0,0.0,180.0,2.0,0.0
5456,63.0,0.0,180.0,2.0,0.0
5457,75.0,0.0,180.0,1.0,0.0
5458,22.0,5.0,3900.0,5.0,0.0
5459,34.0,0.0,3870.0,5.0,0.0
5460,74.0,0.0,240.0,2.0,0.0
5461,70.0,480.0,240.0,2.0,0.0
5462,77.0,0.0,15.0,2.0,0.0
5463,82.0,0.0,15.0,1.0,0.0
5464,70.0,0.0,480.0,2.0,0.0
5465,70.0,0.0,180.0,2.0,0.0
5466,74.0,0.0,15.0,2.0,0.0
5467,77.0,0.0,210.0,2.0,0.0
5468,82.0,680.0,240.0,1.0,0.0
5469,58.0,0.0,15.0,5.0,0.0
5470,53.0,0.0,15.0,5.0,0.0
5471,50.0,0.0,15.0,5.0,0.0
5472,46.0,195.0,15.0,5.0,0.0
5473,41.0,20.0,720.0,5.0,0.0
5474,46.0,20.0,720.0,5.0,0.0
5475,70.0,0.0,480.0,2.0,0.0
5476,58.0,0.0,15.0,5.0,0.0
5477,50.0,195.0,15.0,5.0,0.0
5478,77.0,0.0,15.0,2.0,0.0
5479,74.0,0.0,15.0,2.0,0.0
5480,70.0,0.0,180.0,2.0,0.0
5481,46.0,0.0,180.0,5.0,0.0
5482,82.0,0.0,15.0,1.0,0.0
5483,41.0,0.0,180.0,5.0,0.0
5484,38.0,20.0,720.0,5.0,0.0
5485,46.0,20.0,720.0,5.0,0.0
5486,58.0,0.0,720.0,5.0,0.0
5487,70.0,0.0,480.0,2.0,0.0
5488,46.0,0.0,210.0,5.0,0.0
5489,77.0,0.0,15.0,2.0,0.0
5490,74.0,0.0,15.0,2.0,0.0
5491,70.0,0.0,180.0,2.0,0.0
5492,38.0,0.0,210.0,5.0,0.0
5493,82.0,0.0,15.0,1.0,0.0
5494,58.0,5.0,180.0,5.0,0.0
5495,50.0,195.0,15.0,5.0,0.0
5496,41.0,20.0,720.0,5.0,0.0
5497,46.0,20.0,720.0,5.0,0.0
5498,58.0,0.0,720.0,5.0,0.0
5499,50.0,0.0,720.0,5.0,0.0
5500,74.0,0.0,480.0,2.0,0.0
5501,41.0,0.0,240.0,5.0,0.0
5502,46.0,0.0,240.0,5.0,0.0
5503,50.0,0.0,240.0,5.0,0.0
5504,58.0,0.0,240.0,5.0,0.0
5505,77.0,0.0,15.0,2.0,0.0
5506,70.0,235.0,15.0,2.0,0.0
5507,82.0,0.0,15.0,1.0,0.0
5508,74.0,120.0,240.0,2.0,0.0
5509,82.0,0.0,15.0,1.0,0.0
5510,34.0,0.0,240.0,5.0,0.0
5511,41.0,240.0,210.0,5.0,0.0
5512,58.0,5.0,450.0,5.0,0.0
5513,74.0,5.0,180.0,2.0,0.0
5514,50.0,0.0,180.0,5.0,0.0
5515,70.0,375.0,450.0,1.0,0.0
5516,77.0,0.0,180.0,2.0,0.0
5517,60.0,480.0,390.0,5.0,0.0
5518,72.0,0.0,390.0,1.0,0.0
5519,73.0,480.0,390.0,1.0,0.0
5520,61.0,0.0,390.0,5.0,0.0
5521,57.0,0.0,390.0,5.0,0.0
5522,69.0,370.0,390.0,1.0,0.0
5523,40.0,4.0,180.0,5.0,0.0
5524,46.0,1.0,180.0,5.0,0.0
5525,85.0,0.0,150.0,2.0,0.0
5526,55.0,174.0,180.0,5.0,0.0
5527,82.0,0.0,150.0,2.0,0.0
5528,91.0,5.0,150.0,1.0,0.0
5529,79.0,0.0,180.0,2.0,0.0
5530,49.0,5.0,150.0,5.0,0.0
5531,40.0,0.0,150.0,5.0,0.0
5532,46.0,209.0,120.0,5.0,0.0
5533,49.0,1.0,90.0,5.0,0.0
5534,55.0,0.0,90.0,5.0,0.0
5535,79.0,0.0,90.0,2.0,0.0
5536,85.0,0.0,90.0,2.0,0.0
5537,91.0,1.0,90.0,1.0,0.0
5538,82.0,0.0,90.0,2.0,0.0
5539,58.0,240.0,180.0,5.0,0.0
5540,70.0,0.0,180.0,1.0,0.0
5541,60.0,0.0,180.0,5.0,0.0
5542,72.0,240.0,180.0,1.0,0.0
5543,73.0,240.0,180.0,1.0,0.0
5544,61.0,0.0,180.0,5.0,0.0
5545,57.0,330.0,180.0,5.0,0.0
5546,69.0,0.0,180.0,1.0,0.0
5547,40.0,0.0,210.0,5.0,0.0
5548,46.0,0.0,180.0,5.0,0.0
5549,82.0,0.0,150.0,2.0,0.0
5550,55.0,0.0,180.0,5.0,0.0
5551,49.0,5.0,150.0,5.0,0.0
5552,85.0,0.0,150.0,2.0,0.0
5553,79.0,0.0,180.0,2.0,0.0
5554,91.0,170.0,180.0,1.0,0.0
5555,40.0,0.0,120.0,5.0,0.0
5556,46.0,209.0,120.0,5.0,0.0
5557,85.0,0.0,90.0,2.0,0.0
5558,82.0,2.0,90.0,2.0,0.0
5559,79.0,0.0,90.0,2.0,0.0
5560,91.0,4.0,90.0,1.0,0.0
5561,49.0,0.0,90.0,5.0,0.0
5562,55.0,0.0,90.0,5.0,0.0
5563,58.0,135.0,180.0,5.0,0.0
5564,70.0,75.0,240.0,1.0,0.0
5565,82.0,30.0,240.0,1.0,0.0
5566,60.0,135.0,180.0,5.0,0.0
5567,72.0,75.0,240.0,1.0,0.0
5568,84.0,30.0,240.0,1.0,0.0
5569,61.0,130.0,180.0,5.0,0.0
5570,73.0,75.0,240.0,1.0,0.0
5571,85.0,35.0,240.0,1.0,0.0
5572,57.0,125.0,180.0,5.0,0.0
5573,69.0,85.0,240.0,1.0,0.0
5574,81.0,30.0,240.0,1.0,0.0
5575,55.0,125.0,180.0,5.0,0.0
5576,67.0,85.0,240.0,1.0,0.0
5577,79.0,30.0,240.0,1.0,0.0
5578,52.0,130.0,180.0,5.0,0.0
5579,64.0,80.0,240.0,1.0,0.0
5580,76.0,30.0,240.0,1.0,0.0
5581,49.0,125.0,180.0,5.0,0.0
5582,61.0,80.0,240.0,1.0,0.0
5583,73.0,35.0,240.0,1.0,0.0
5584,45.0,135.0,180.0,5.0,0.0
5585,57.0,70.0,240.0,1.0,0.0
5586,69.0,35.0,240.0,1.0,0.0
5587,43.0,130.0,180.0,5.0,0.0
5588,55.0,75.0,240.0,1.0,0.0
5589,67.0,35.0,240.0,1.0,0.0
5590,40.0,135.0,180.0,5.0,0.0
5591,52.0,70.0,240.0,1.0,0.0
5592,64.0,35.0,240.0,1.0,0.0
5593,37.0,125.0,180.0,5.0,0.0
5594,49.0,80.0,240.0,1.0,0.0
5595,61.0,35.0,240.0,1.0,0.0
5596,33.0,125.0,180.0,5.0,0.0
5597,45.0,85.0,240.0,1.0,0.0
5598,57.0,30.0,240.0,1.0,0.0
5599,31.0,135.0,180.0,5.0,0.0
5600,43.0,75.0,240.0,1.0,0.0
5601,55.0,30.0,240.0,1.0,0.0
5602,27.0,50.0,180.0,5.0,0.0
5603,39.0,115.0,180.0,1.0,0.0
5604,51.0,5.0,90.0,1.0,0.0
5605,26.0,0.0,120.0,5.0,0.0
5606,50.0,0.0,120.0,1.0,0.0
5607,38.0,240.0,120.0,5.0,0.0
5608,74.0,120.0,240.0,1.0,0.0
5609,70.0,0.0,240.0,2.0,0.0
5610,67.0,0.0,240.0,2.0,0.0
5611,55.0,0.0,240.0,4.0,0.0
5612,50.0,0.0,15.0,5.0,0.0
5613,62.0,0.0,15.0,4.0,0.0
5614,55.0,0.0,120.0,4.0,0.0
5615,58.0,0.0,15.0,4.0,0.0
5616,67.0,120.0,120.0,2.0,0.0
5617,70.0,0.0,120.0,2.0,0.0
5618,74.0,0.0,120.0,1.0,0.0
5619,50.0,0.0,120.0,1.0,0.0
5620,38.0,240.0,120.0,5.0,0.0
5621,26.0,0.0,120.0,5.0,0.0
5622,74.0,0.0,240.0,1.0,0.0
5623,50.0,120.0,15.0,5.0,0.0
5624,64.0,0.0,15.0,2.0,0.0
5625,67.0,0.0,15.0,2.0,0.0
5626,52.0,0.0,15.0,4.0,0.0
5627,55.0,0.0,15.0,4.0,0.0
5628,74.0,0.0,120.0,1.0,0.0
5629,62.0,0.0,15.0,4.0,0.0
5630,26.0,15.0,1290.0,5.0,0.0
5631,38.0,45.0,480.0,5.0,0.0
5632,50.0,240.0,120.0,1.0,0.0
5633,50.0,0.0,240.0,5.0,0.0
5634,62.0,0.0,240.0,4.0,0.0
5635,57.0,0.0,240.0,4.0,0.0
5636,54.0,0.0,240.0,4.0,0.0
5637,69.0,115.0,240.0,2.0,0.0
5638,66.0,0.0,240.0,2.0,0.0
5639,74.0,0.0,240.0,1.0,0.0
5640,50.0,0.0,120.0,5.0,0.0
5641,42.0,720.0,120.0,5.0,0.0
5642,66.0,0.0,120.0,2.0,0.0
5643,69.0,0.0,120.0,2.0,0.0
5644,62.0,0.0,120.0,2.0,0.0
5645,74.0,0.0,120.0,1.0,0.0
5646,45.0,0.0,120.0,5.0,0.0
5647,57.0,0.0,120.0,4.0,0.0
5648,38.0,5.0,720.0,5.0,0.0
5649,45.0,20.0,720.0,5.0,0.0
5650,50.0,20.0,750.0,5.0,0.0
5651,62.0,165.0,750.0,2.0,0.0
5652,66.0,20.0,720.0,2.0,0.0
5653,69.0,15.0,660.0,2.0,0.0
5654,74.0,20.0,630.0,1.0,0.0
5655,54.0,0.0,720.0,4.0,0.0
5656,47.0,80.0,90.0,1.0,0.0
5657,31.0,50.0,180.0,5.0,0.0
5658,43.0,0.0,180.0,5.0,0.0
5659,50.0,30.0,90.0,1.0,0.0
5660,59.0,0.0,90.0,1.0,0.0
5661,55.0,120.0,90.0,2.0,0.0
5662,33.0,25.0,180.0,5.0,0.0
5663,59.0,0.0,120.0,1.0,0.0
5664,45.0,0.0,180.0,5.0,0.0
5665,48.0,70.0,120.0,2.0,0.0
5666,54.0,0.0,120.0,2.0,0.0
5667,57.0,145.0,90.0,1.0,0.0
5668,50.0,0.0,120.0,2.0,0.0
5669,57.0,70.0,120.0,1.0,0.0
5670,35.0,0.0,180.0,5.0,0.0
5671,47.0,25.0,180.0,5.0,0.0
5672,55.0,145.0,90.0,1.0,0.0
5673,30.0,0.0,1200.0,5.0,0.0
5674,42.0,25.0,180.0,5.0,0.0
5675,48.0,0.0,120.0,2.0,0.0
5676,53.0,70.0,120.0,1.0,0.0
5677,51.0,105.0,90.0,1.0,0.0
5678,63.0,0.0,90.0,2.0,0.0
5679,42.0,80.0,960.0,5.0,0.0
5680,51.0,0.0,90.0,4.0,0.0
5681,75.0,80.0,90.0,1.0,0.0
5682,62.0,0.0,90.0,2.0,0.0
5683,50.0,80.0,90.0,4.0,0.0
5684,74.0,0.0,90.0,1.0,0.0
5685,88.0,0.0,90.0,1.0,0.0
5686,60.0,0.0,90.0,4.0,0.0
5687,76.0,120.0,15.0,2.0,0.0
5688,50.0,0.0,120.0,4.0,0.0
5689,64.0,0.0,15.0,4.0,0.0
5690,88.0,0.0,120.0,1.0,0.0
5691,60.0,0.0,120.0,4.0,0.0
5692,84.0,0.0,15.0,2.0,0.0
5693,62.0,0.0,90.0,4.0,0.0
5694,86.0,0.0,90.0,1.0,0.0
5695,83.0,145.0,90.0,2.0,0.0
5696,74.0,0.0,90.0,2.0,0.0
5697,59.0,0.0,90.0,4.0,0.0
5698,59.0,0.0,120.0,4.0,0.0
5699,74.0,95.0,120.0,2.0,0.0
5700,86.0,0.0,120.0,1.0,0.0
5701,50.0,0.0,120.0,4.0,0.0
5702,62.0,0.0,120.0,4.0,0.0
5703,83.0,0.0,120.0,2.0,0.0
5704,84.0,0.0,90.0,1.0,0.0
5705,57.0,0.0,90.0,4.0,0.0
5706,60.0,0.0,90.0,4.0,0.0
5707,81.0,0.0,90.0,2.0,0.0
5708,72.0,145.0,90.0,2.0,0.0
5709,72.0,0.0,120.0,2.0,0.0
5710,81.0,0.0,120.0,2.0,0.0
5711,84.0,95.0,120.0,1.0,0.0
5712,60.0,0.0,120.0,4.0,0.0
5713,50.0,0.0,120.0,4.0,0.0
5714,69.0,0.0,90.0,2.0,0.0
5715,78.0,25.0,90.0,2.0,0.0
5716,54.0,0.0,90.0,4.0,0.0
5717,57.0,0.0,15.0,4.0,0.0
5718,81.0,0.0,90.0,1.0,0.0
5719,45.0,0.0,180.0,5.0,0.0
5720,33.0,50.0,180.0,5.0,0.0
5721,48.0,80.0,90.0,1.0,0.0
5722,54.0,30.0,90.0,1.0,0.0
5723,60.0,120.0,90.0,1.0,0.0
5724,55.0,0.0,120.0,2.0,0.0
5725,50.0,0.0,120.0,2.0,0.0
5726,60.0,70.0,120.0,1.0,0.0
5727,47.0,0.0,180.0,5.0,0.0
5728,35.0,25.0,180.0,5.0,0.0
5729,59.0,145.0,90.0,1.0,0.0
5730,51.0,0.0,120.0,2.0,0.0
5731,54.0,0.0,120.0,2.0,0.0
5732,48.0,25.0,180.0,5.0,0.0
5733,36.0,0.0,180.0,5.0,0.0
5734,59.0,70.0,120.0,1.0,0.0
5735,57.0,145.0,90.0,1.0,0.0
5736,52.0,0.0,120.0,2.0,0.0
5737,43.0,120.0,960.0,5.0,0.0
5738,31.0,155.0,1200.0,5.0,0.0
5739,55.0,95.0,120.0,1.0,0.0
5740,52.0,0.0,90.0,1.0,0.0
5741,48.0,105.0,90.0,2.0,0.0
5742,51.0,0.0,90.0,4.0,0.0
5743,43.0,0.0,90.0,4.0,0.0
5744,63.0,0.0,90.0,2.0,0.0
5745,75.0,80.0,90.0,1.0,0.0
5746,76.0,0.0,90.0,1.0,0.0
5747,64.0,60.0,90.0,2.0,0.0
5748,52.0,0.0,90.0,4.0,0.0
5749,79.0,0.0,60.0,2.0,0.0
5750,91.0,0.0,60.0,1.0,0.0
5751,88.0,0.0,60.0,2.0,0.0
5752,64.0,0.0,60.0,4.0,0.0
5753,67.0,140.0,60.0,4.0,0.0
5754,67.0,0.0,120.0,4.0,0.0
5755,88.0,0.0,120.0,2.0,0.0
5756,79.0,0.0,120.0,2.0,0.0
5757,91.0,0.0,120.0,1.0,0.0
5758,55.0,0.0,120.0,4.0,0.0
5759,60.0,145.0,90.0,4.0,0.0
5760,64.0,95.0,15.0,4.0,0.0
5761,84.0,0.0,90.0,2.0,0.0
5762,76.0,0.0,90.0,2.0,0.0
5763,88.0,0.0,90.0,1.0,0.0
5764,88.0,0.0,120.0,1.0,0.0
5765,64.0,0.0,120.0,4.0,0.0
5766,60.0,0.0,120.0,4.0,0.0
5767,55.0,0.0,120.0,4.0,0.0
5768,84.0,0.0,120.0,2.0,0.0
5769,76.0,53.0,120.0,2.0,0.0
5770,84.0,25.0,90.0,1.0,0.0
5771,52.0,0.0,60.0,4.0,0.0
5772,60.0,42.0,60.0,4.0,0.0
5773,79.0,0.0,90.0,2.0,0.0
5774,72.0,0.0,90.0,2.0,0.0
5775,43.0,92.0,150.0,4.0,0.0
5776,52.0,2.0,150.0,4.0,0.0
5777,84.0,0.0,120.0,1.0,0.0
5778,72.0,0.0,120.0,2.0,0.0
5779,60.0,0.0,120.0,4.0,0.0
5780,76.0,1.0,120.0,2.0,0.0
5781,55.0,30.0,90.0,4.0,0.0
5782,48.0,0.0,90.0,4.0,0.0
5783,79.0,0.0,90.0,1.0,0.0
5784,76.0,0.0,90.0,2.0,0.0
5785,67.0,0.0,90.0,2.0,0.0
5786,44.0,50.0,180.0,5.0,0.0
5787,32.0,0.0,180.0,5.0,0.0
5788,51.0,30.0,90.0,1.0,0.0
5789,60.0,120.0,90.0,1.0,0.0
5790,56.0,0.0,90.0,2.0,0.0
5791,49.0,0.0,120.0,2.0,0.0
5792,60.0,70.0,120.0,1.0,0.0
5793,39.0,0.0,180.0,5.0,0.0
5794,27.0,25.0,180.0,5.0,0.0
5795,55.0,0.0,120.0,2.0,0.0
5796,58.0,105.0,90.0,1.0,0.0
5797,74.0,80.0,90.0,1.0,0.0
5798,62.0,0.0,90.0,2.0,0.0
5799,50.0,0.0,90.0,4.0,0.0
5800,75.0,0.0,90.0,1.0,0.0
5801,63.0,80.0,90.0,2.0,0.0
5802,51.0,0.0,90.0,4.0,0.0
5803,58.0,0.0,90.0,4.0,0.0
5804,85.0,0.0,90.0,2.0,0.0
5805,51.0,0.0,120.0,4.0,0.0
5806,65.0,95.0,120.0,4.0,0.0
5807,61.0,0.0,15.0,4.0,0.0
5808,89.0,0.0,15.0,1.0,0.0
5809,85.0,0.0,120.0,2.0,0.0
5810,77.0,120.0,15.0,2.0,0.0
5811,85.0,0.0,90.0,1.0,0.0
5812,55.0,0.0,90.0,4.0,0.0
5813,61.0,0.0,90.0,4.0,0.0
5814,79.0,0.0,90.0,2.0,0.0
5815,73.0,185.0,90.0,2.0,0.0
5816,44.0,50.0,180.0,5.0,0.0
5817,32.0,0.0,180.0,5.0,0.0
5818,51.0,30.0,90.0,1.0,0.0
5819,56.0,120.0,90.0,2.0,0.0
5820,60.0,0.0,90.0,1.0,0.0
5821,28.0,25.0,180.0,5.0,0.0
5822,49.0,0.0,120.0,2.0,0.0
5823,60.0,0.0,120.0,1.0,0.0
5824,40.0,0.0,180.0,5.0,0.0
5825,55.0,70.0,120.0,2.0,0.0
5826,58.0,105.0,90.0,1.0,0.0
5827,63.0,0.0,90.0,2.0,0.0
5828,51.0,80.0,90.0,4.0,0.0
5829,75.0,0.0,90.0,1.0,0.0
5830,76.0,0.0,90.0,1.0,0.0
5831,64.0,0.0,90.0,2.0,0.0
5832,52.0,80.0,90.0,4.0,0.0
5833,61.0,115.0,15.0,4.0,0.0
5834,85.0,0.0,15.0,2.0,0.0
5835,79.0,0.0,15.0,2.0,0.0
5836,67.0,0.0,15.0,4.0,0.0
5837,91.0,0.0,15.0,1.0,0.0
5838,52.0,95.0,120.0,4.0,0.0
5839,88.0,0.0,90.0,1.0,0.0
5840,73.0,0.0,90.0,2.0,0.0
5841,82.0,84.0,90.0,2.0,0.0
5842,58.0,0.0,90.0,4.0,0.0
5843,64.0,0.0,90.0,4.0,0.0
5844,38.0,92.0,90.0,5.0,0.0
5845,43.0,1.0,90.0,5.0,0.0
5846,88.0,5.0,150.0,1.0,0.0
5847,83.0,0.0,150.0,2.0,0.0
5848,76.0,0.0,150.0,2.0,0.0
5849,50.0,3.0,60.0,5.0,0.0
5850,79.0,0.0,150.0,2.0,0.0
5851,47.0,0.0,60.0,5.0,0.0
5852,50.0,80.0,90.0,4.0,0.0
5853,86.0,0.0,150.0,1.0,0.0
5854,83.0,5.0,150.0,2.0,0.0
5855,79.0,5.0,150.0,2.0,0.0
5856,74.0,0.0,150.0,2.0,0.0
5857,67.0,70.0,90.0,4.0,0.0
5858,59.0,0.0,15.0,4.0,0.0
5859,67.0,0.0,90.0,4.0,0.0
5860,71.0,54.0,90.0,2.0,0.0
5861,83.0,0.0,90.0,1.0,0.0
5862,67.0,0.0,60.0,2.0,0.0
5863,62.0,76.0,60.0,5.0,0.0
5864,55.0,4.0,60.0,5.0,0.0
5865,50.0,0.0,60.0,5.0,0.0
5866,79.0,0.0,60.0,1.0,0.0
5867,38.0,1.0,90.0,5.0,0.0
5868,45.0,5.0,60.0,4.0,0.0
5869,74.0,0.0,150.0,2.0,0.0
5870,86.0,5.0,150.0,1.0,0.0
5871,81.0,0.0,150.0,2.0,0.0
5872,54.0,90.0,60.0,4.0,0.0
5873,78.0,5.0,150.0,2.0,0.0
5874,50.0,80.0,90.0,4.0,0.0
5875,84.0,5.0,150.0,1.0,0.0
5876,81.0,0.0,150.0,2.0,0.0
5877,72.0,0.0,150.0,2.0,0.0
5878,78.0,10.0,150.0,2.0,0.0
5879,57.0,65.0,15.0,4.0,0.0
5880,66.0,0.0,15.0,4.0,0.0
5881,81.0,65.0,90.0,1.0,0.0
5882,69.0,0.0,90.0,2.0,0.0
5883,78.0,3.0,60.0,1.0,0.0
5884,66.0,92.0,60.0,2.0,0.0
5885,60.0,0.0,60.0,4.0,0.0
5886,50.0,0.0,60.0,4.0,0.0
5887,50.0,70.0,720.0,5.0,0.0
5888,67.0,60.0,90.0,2.0,0.0
5889,59.0,60.0,480.0,5.0,0.0
5890,43.0,70.0,870.0,5.0,0.0
5891,79.0,80.0,60.0,1.0,0.0
5892,74.0,80.0,60.0,1.0,0.0
5893,71.0,80.0,60.0,1.0,0.0
5894,67.0,80.0,60.0,1.0,0.0
5895,62.0,20.0,60.0,1.0,0.0
5896,59.0,80.0,60.0,1.0,0.0
5897,55.0,80.0,60.0,5.0,0.0
5898,52.0,10.0,60.0,5.0,0.0
5899,50.0,80.0,60.0,5.0,0.0
5900,47.0,10.0,60.0,5.0,0.0
5901,43.0,100.0,60.0,5.0,0.0
5902,50.0,80.0,90.0,1.0,0.0
5903,42.0,120.0,720.0,5.0,0.0
5904,47.0,50.0,180.0,5.0,0.0
5905,35.0,0.0,180.0,5.0,0.0
5906,54.0,30.0,90.0,1.0,0.0
5907,59.0,120.0,90.0,2.0,0.0
5908,62.0,0.0,15.0,1.0,0.0
5909,49.0,25.0,180.0,5.0,0.0
5910,37.0,0.0,180.0,5.0,0.0
5911,52.0,0.0,120.0,2.0,0.0
5912,58.0,70.0,120.0,2.0,0.0
5913,61.0,145.0,90.0,1.0,0.0
5914,61.0,0.0,120.0,1.0,0.0
5915,54.0,70.0,120.0,2.0,0.0
5916,50.0,25.0,180.0,5.0,0.0
5917,38.0,0.0,180.0,5.0,0.0
5918,59.0,25.0,90.0,1.0,0.0
5919,52.0,0.0,120.0,2.0,0.0
5920,49.0,70.0,120.0,2.0,0.0
5921,34.0,0.0,180.0,5.0,0.0
5922,46.0,25.0,180.0,5.0,0.0
5923,57.0,0.0,120.0,1.0,0.0
5924,55.0,105.0,90.0,1.0,0.0
5925,34.0,80.0,90.0,4.0,0.0
5926,58.0,0.0,90.0,2.0,0.0
5927,70.0,0.0,90.0,1.0,0.0
5928,46.0,0.0,90.0,4.0,0.0
5929,69.0,0.0,90.0,1.0,0.0
5930,33.0,0.0,90.0,4.0,0.0
5931,45.0,0.0,90.0,4.0,0.0
5932,57.0,80.0,90.0,2.0,0.0
5933,55.0,0.0,90.0,4.0,0.0
5934,83.0,120.0,90.0,1.0,0.0
5935,79.0,0.0,90.0,2.0,0.0
5936,45.0,0.0,15.0,4.0,0.0
5937,79.0,0.0,120.0,2.0,0.0
5938,71.0,0.0,15.0,2.0,0.0
5939,55.0,0.0,120.0,4.0,0.0
5940,59.0,0.0,15.0,4.0,0.0
5941,83.0,95.0,120.0,1.0,0.0
5942,69.0,145.0,90.0,2.0,0.0
5943,57.0,0.0,90.0,4.0,0.0
5944,54.0,0.0,90.0,4.0,0.0
5945,78.0,0.0,90.0,2.0,0.0
5946,81.0,0.0,90.0,1.0,0.0
5947,45.0,0.0,120.0,4.0,0.0
5948,54.0,0.0,120.0,4.0,0.0
5949,57.0,0.0,120.0,4.0,0.0
5950,81.0,0.0,120.0,1.0,0.0
5951,69.0,0.0,120.0,2.0,0.0
5952,78.0,95.0,120.0,2.0,0.0
5953,55.0,0.0,90.0,4.0,0.0
5954,52.0,0.0,90.0,4.0,0.0
5955,79.0,0.0,90.0,1.0,0.0
5956,76.0,145.0,90.0,2.0,0.0
5957,67.0,0.0,90.0,2.0,0.0
5958,45.0,95.0,120.0,4.0,0.0
5959,52.0,0.0,120.0,4.0,0.0
5960,55.0,0.0,120.0,4.0,0.0
5961,67.0,0.0,120.0,2.0,0.0
5962,76.0,0.0,120.0,2.0,0.0
5963,79.0,0.0,120.0,1.0,0.0
5964,64.0,0.0,90.0,2.0,0.0
5965,76.0,0.0,90.0,1.0,0.0
5966,73.0,105.0,90.0,2.0,0.0
5967,52.0,0.0,90.0,4.0,0.0
5968,49.0,0.0,90.0,4.0,0.0
5969,37.0,0.0,180.0,5.0,0.0
5970,49.0,50.0,180.0,5.0,0.0
5971,55.0,80.0,90.0,1.0,0.0
5972,58.0,30.0,90.0,1.0,0.0
5973,54.0,0.0,120.0,2.0,0.0
5974,59.0,70.0,120.0,2.0,0.0
5975,64.0,120.0,15.0,1.0,0.0
5976,38.0,0.0,180.0,5.0,0.0
5977,50.0,25.0,180.0,5.0,0.0
5978,62.0,145.0,90.0,1.0,0.0
5979,62.0,0.0,120.0,1.0,0.0
5980,52.0,25.0,180.0,5.0,0.0
5981,40.0,0.0,180.0,5.0,0.0
5982,55.0,0.0,120.0,2.0,0.0
5983,58.0,70.0,120.0,2.0,0.0
5984,61.0,145.0,90.0,1.0,0.0
5985,59.0,0.0,120.0,1.0,0.0
5986,55.0,70.0,120.0,2.0,0.0
5987,35.0,0.0,180.0,5.0,0.0
5988,47.0,25.0,180.0,5.0,0.0
5989,52.0,0.0,90.0,2.0,0.0
5990,55.0,105.0,90.0,1.0,0.0
5991,70.0,0.0,90.0,2.0,0.0
5992,82.0,0.0,90.0,1.0,0.0
5993,34.0,0.0,90.0,4.0,0.0
5994,46.0,80.0,90.0,4.0,0.0
5995,71.0,0.0,90.0,2.0,0.0
5996,47.0,0.0,90.0,4.0,0.0
5997,35.0,0.0,90.0,4.0,0.0
5998,83.0,80.0,90.0,1.0,0.0
5999,67.0,120.0,90.0,4.0,0.0
6000,71.0,0.0,90.0,4.0,0.0
6001,59.0,0.0,90.0,4.0,0.0
6002,95.0,0.0,15.0,1.0,0.0
6003,83.0,0.0,15.0,2.0,0.0
6004,91.0,0.0,15.0,2.0,0.0
6005,55.0,0.0,120.0,4.0,0.0
6006,71.0,0.0,120.0,4.0,0.0
6007,67.0,95.0,15.0,4.0,0.0
6008,79.0,0.0,90.0,2.0,0.0
6009,88.0,0.0,90.0,2.0,0.0
6010,64.0,0.0,90.0,4.0,0.0
6011,91.0,145.0,90.0,1.0,0.0
6012,79.0,78.0,120.0,2.0,0.0
6013,88.0,0.0,120.0,2.0,0.0
6014,91.0,0.0,120.0,1.0,0.0
6015,67.0,0.0,120.0,4.0,0.0
6016,64.0,0.0,120.0,4.0,0.0
6017,59.0,0.0,120.0,4.0,0.0
6018,55.0,17.0,90.0,4.0,0.0
6019,64.0,0.0,90.0,4.0,0.0
6020,76.0,0.0,90.0,2.0,0.0
6021,83.0,0.0,90.0,2.0,0.0
6022,88.0,144.0,90.0,1.0,0.0
6023,47.0,0.0,150.0,4.0,0.0
6024,55.0,1.0,150.0,4.0,0.0
6025,64.0,0.0,120.0,4.0,0.0
6026,76.0,0.0,120.0,2.0,0.0
6027,88.0,95.0,120.0,1.0,0.0
6028,71.0,85.0,90.0,2.0,0.0
6029,79.0,0.0,15.0,2.0,0.0
6030,83.0,0.0,90.0,1.0,0.0
6031,52.0,0.0,90.0,4.0,0.0
6032,59.0,0.0,90.0,4.0,0.0
6033,36.0,0.0,60.0,5.0,0.0
6034,60.0,60.0,60.0,2.0,0.0
6035,64.0,0.0,60.0,2.0,0.0
6036,43.0,20.0,60.0,4.0,0.0
6037,64.0,0.0,60.0,2.0,0.0
6038,60.0,40.0,60.0,2.0,0.0
6039,46.0,40.0,60.0,4.0,0.0
6040,64.0,20.0,60.0,2.0,0.0
6041,60.0,0.0,60.0,2.0,0.0
6042,48.0,60.0,60.0,4.0,0.0
6043,43.0,0.0,60.0,5.0,0.0
6044,64.0,0.0,60.0,2.0,0.0
6045,60.0,60.0,60.0,2.0,0.0
6046,46.0,0.0,60.0,4.0,0.0
6047,60.0,40.0,60.0,2.0,0.0
6048,64.0,0.0,60.0,2.0,0.0
6049,70.0,20.0,15.0,1.0,0.0
6050,48.0,40.0,60.0,4.0,0.0
6051,60.0,0.0,60.0,2.0,0.0
6052,64.0,20.0,60.0,2.0,0.0
6053,55.0,60.0,60.0,4.0,0.0
6054,64.0,57.0,120.0,2.0,0.0
6055,69.0,0.0,120.0,1.0,0.0
6056,48.0,60.0,60.0,5.0,0.0
6057,60.0,3.0,120.0,2.0,0.0
6058,52.0,0.0,60.0,4.0,0.0
6059,55.0,30.0,60.0,4.0,0.0
6060,70.0,30.0,90.0,1.0,0.0
6061,58.0,15.0,60.0,4.0,0.0
6062,73.0,45.0,60.0,1.0,0.0
6063,72.0,60.0,120.0,1.0,0.0
6064,40.0,60.0,60.0,5.0,0.0
6065,46.0,0.0,60.0,4.0,0.0
6066,48.0,60.0,60.0,4.0,0.0
6067,70.0,0.0,120.0,1.0,0.0
6068,52.0,80.0,60.0,4.0,0.0
6069,69.0,0.0,90.0,1.0,0.0
6070,57.0,0.0,90.0,2.0,0.0
6071,36.0,0.0,150.0,5.0,0.0
6072,48.0,0.0,150.0,5.0,0.0
6073,64.0,75.0,90.0,2.0,0.0
6074,46.0,0.0,150.0,5.0,0.0
6075,43.0,5.0,150.0,5.0,0.0
6076,58.0,0.0,90.0,2.0,0.0
6077,70.0,60.0,90.0,1.0,0.0
6078,91.0,0.0,60.0,2.0,0.0
6079,70.0,0.0,60.0,4.0,0.0
6080,60.0,0.0,60.0,4.0,0.0
6081,67.0,0.0,60.0,4.0,0.0
6082,82.0,0.0,60.0,2.0,0.0
6083,94.0,100.0,60.0,1.0,0.0
6084,94.0,0.0,90.0,1.0,0.0
6085,67.0,0.0,90.0,4.0,0.0
6086,70.0,0.0,90.0,4.0,0.0
6087,91.0,0.0,90.0,2.0,0.0
6088,60.0,0.0,90.0,4.0,0.0
6089,82.0,80.0,90.0,2.0,0.0
6090,93.0,60.0,90.0,1.0,0.0
6091,69.0,0.0,90.0,4.0,0.0
6092,65.0,0.0,90.0,4.0,0.0
6093,81.0,0.0,90.0,2.0,0.0
6094,89.0,0.0,90.0,2.0,0.0
6095,60.0,0.0,15.0,4.0,0.0
6096,64.0,100.0,60.0,4.0,0.0
6097,67.0,0.0,60.0,4.0,0.0
6098,91.0,0.0,60.0,1.0,0.0
6099,88.0,0.0,60.0,2.0,0.0
6100,79.0,0.0,60.0,2.0,0.0
6101,82.0,0.0,90.0,2.0,0.0
6102,91.0,80.0,90.0,1.0,0.0
6103,79.0,0.0,90.0,2.0,0.0
6104,67.0,0.0,90.0,4.0,0.0
6105,64.0,0.0,90.0,4.0,0.0
6106,89.0,0.0,90.0,1.0,0.0
6107,60.0,0.0,15.0,4.0,0.0
6108,65.0,0.0,90.0,4.0,0.0
6109,62.0,0.0,90.0,4.0,0.0
6110,77.0,0.0,90.0,2.0,0.0
6111,82.0,60.0,15.0,2.0,0.0
6112,60.0,0.0,15.0,4.0,0.0
6113,76.0,0.0,60.0,2.0,0.0
6114,88.0,0.0,60.0,1.0,0.0
6115,64.0,0.0,60.0,4.0,0.0
6116,82.0,0.0,90.0,2.0,0.0
6117,76.0,0.0,90.0,2.0,0.0
6118,55.0,0.0,90.0,4.0,0.0
6119,64.0,0.0,90.0,4.0,0.0
6120,88.0,80.0,90.0,1.0,0.0
6121,62.0,60.0,90.0,4.0,0.0
6122,48.0,0.0,15.0,4.0,0.0
6123,53.0,0.0,90.0,4.0,0.0
6124,74.0,0.0,90.0,2.0,0.0
6125,86.0,0.0,90.0,1.0,0.0
6126,82.0,0.0,15.0,2.0,0.0
6127,72.0,0.0,60.0,2.0,0.0
6128,84.0,0.0,60.0,1.0,0.0
6129,48.0,0.0,60.0,4.0,0.0
6130,52.0,0.0,60.0,4.0,0.0
6131,60.0,80.0,60.0,4.0,0.0
6132,64.0,60.0,60.0,2.0,0.0
6133,58.0,0.0,60.0,2.0,0.0
6134,37.0,0.0,60.0,5.0,0.0
6135,43.0,20.0,60.0,4.0,0.0
6136,64.0,0.0,60.0,2.0,0.0
6137,58.0,40.0,60.0,2.0,0.0
6138,46.0,40.0,60.0,4.0,0.0
6139,58.0,20.0,60.0,2.0,0.0
6140,64.0,0.0,60.0,2.0,0.0
6141,49.0,60.0,60.0,4.0,0.0
6142,58.0,60.0,60.0,2.0,0.0
6143,43.0,0.0,60.0,5.0,0.0
6144,64.0,0.0,60.0,2.0,0.0
6145,46.0,0.0,60.0,4.0,0.0
6146,58.0,40.0,60.0,2.0,0.0
6147,64.0,0.0,60.0,2.0,0.0
6148,49.0,40.0,60.0,4.0,0.0
6149,70.0,20.0,15.0,1.0,0.0
6150,58.0,20.0,60.0,2.0,0.0
6151,64.0,0.0,60.0,2.0,0.0
6152,55.0,0.0,60.0,4.0,0.0
6153,49.0,60.0,60.0,5.0,0.0
6154,58.0,0.0,120.0,2.0,0.0
6155,64.0,57.0,120.0,2.0,0.0
6156,69.0,0.0,120.0,1.0,0.0
6157,52.0,3.0,60.0,4.0,0.0
6158,70.0,30.0,90.0,1.0,0.0
6159,55.0,30.0,60.0,4.0,0.0
6160,58.0,15.0,60.0,4.0,0.0
6161,73.0,45.0,60.0,1.0,0.0
6162,72.0,0.0,120.0,1.0,0.0
6163,40.0,60.0,60.0,5.0,0.0
6164,46.0,60.0,60.0,4.0,0.0
6165,70.0,80.0,120.0,1.0,0.0
6166,49.0,60.0,60.0,4.0,0.0
6167,52.0,0.0,60.0,4.0,0.0
6168,43.0,0.0,150.0,5.0,0.0
6169,46.0,0.0,150.0,5.0,0.0
6170,37.0,0.0,150.0,5.0,0.0
6171,49.0,5.0,150.0,5.0,0.0
6172,69.0,0.0,90.0,1.0,0.0
6173,64.0,0.0,90.0,2.0,0.0
6174,57.0,75.0,90.0,2.0,0.0
6175,70.0,60.0,90.0,1.0,0.0
6176,58.0,0.0,90.0,2.0,0.0
6177,61.0,0.0,60.0,4.0,0.0
6178,91.0,0.0,60.0,2.0,0.0
6179,82.0,0.0,60.0,2.0,0.0
6180,94.0,0.0,60.0,1.0,0.0
6181,70.0,0.0,60.0,4.0,0.0
6182,67.0,100.0,60.0,4.0,0.0
6183,61.0,0.0,90.0,4.0,0.0
6184,70.0,0.0,90.0,4.0,0.0
6185,67.0,0.0,90.0,4.0,0.0
6186,94.0,0.0,90.0,1.0,0.0
6187,91.0,80.0,90.0,2.0,0.0
6188,82.0,0.0,90.0,2.0,0.0
6189,69.0,60.0,90.0,4.0,0.0
6190,66.0,0.0,90.0,4.0,0.0
6191,93.0,0.0,90.0,1.0,0.0
6192,90.0,0.0,90.0,2.0,0.0
6193,81.0,0.0,90.0,2.0,0.0
6194,91.0,0.0,60.0,1.0,0.0
6195,88.0,0.0,60.0,2.0,0.0
6196,79.0,0.0,60.0,2.0,0.0
6197,67.0,100.0,60.0,4.0,0.0
6198,61.0,0.0,15.0,4.0,0.0
6199,64.0,0.0,60.0,4.0,0.0
6200,91.0,0.0,90.0,1.0,0.0
6201,79.0,80.0,90.0,2.0,0.0
6202,61.0,0.0,90.0,4.0,0.0
6203,67.0,0.0,90.0,4.0,0.0
6204,64.0,0.0,90.0,4.0,0.0
6205,66.0,0.0,90.0,4.0,0.0
6206,62.0,0.0,90.0,4.0,0.0
6207,61.0,0.0,90.0,4.0,0.0
6208,82.0,0.0,15.0,2.0,0.0
6209,90.0,0.0,90.0,1.0,0.0
6210,78.0,60.0,90.0,2.0,0.0
6211,88.0,100.0,60.0,1.0,0.0
6212,64.0,0.0,60.0,4.0,0.0
6213,76.0,0.0,60.0,2.0,0.0
6214,61.0,0.0,60.0,4.0,0.0
6215,82.0,0.0,60.0,2.0,0.0
6216,82.0,0.0,90.0,2.0,0.0
6217,76.0,0.0,90.0,2.0,0.0
6218,88.0,80.0,90.0,1.0,0.0
6219,55.0,0.0,90.0,4.0,0.0
6220,49.0,0.0,90.0,4.0,0.0
6221,64.0,0.0,90.0,4.0,0.0
6222,74.0,0.0,90.0,2.0,0.0
6223,62.0,0.0,90.0,4.0,0.0
6224,86.0,60.0,90.0,1.0,0.0
6225,82.0,0.0,90.0,2.0,0.0
6226,54.0,0.0,90.0,4.0,0.0
6227,49.0,0.0,90.0,4.0,0.0
6228,52.0,0.0,60.0,4.0,0.0
6229,61.0,0.0,60.0,4.0,0.0
6230,82.0,65.0,60.0,2.0,0.0
6231,73.0,0.0,60.0,2.0,0.0
6232,85.0,0.0,60.0,1.0,0.0
6233,49.0,0.0,60.0,4.0,0.0
6234,43.0,49.0,60.0,5.0,0.0
6235,88.0,0.0,90.0,1.0,0.0
6236,83.0,25.0,90.0,2.0,0.0
6237,79.0,0.0,90.0,2.0,0.0
6238,50.0,0.0,40.0,4.0,0.0
6239,47.0,1.0,40.0,4.0,0.0
6240,76.0,0.0,90.0,2.0,0.0
6241,50.0,60.0,60.0,4.0,0.0
6242,86.0,60.0,180.0,1.0,0.0
6243,83.0,0.0,150.0,2.0,0.0
6244,74.0,0.0,180.0,2.0,0.0
6245,55.0,60.0,60.0,4.0,0.0
6246,79.0,5.0,150.0,2.0,0.0
6247,59.0,40.0,60.0,4.0,0.0
6248,64.0,60.0,120.0,5.0,0.0
6249,71.0,0.0,40.0,2.0,0.0
6250,83.0,15.0,40.0,1.0,0.0
6251,83.0,45.0,60.0,1.0,0.0
6252,59.0,0.0,120.0,5.0,0.0
6253,50.0,35.0,120.0,4.0,0.0
6254,71.0,0.0,60.0,2.0,0.0
6255,79.0,0.0,40.0,2.0,0.0
6256,67.0,15.0,40.0,2.0,0.0
6257,38.0,5.0,60.0,5.0,0.0
6258,45.0,5.0,60.0,4.0,0.0
6259,78.0,0.0,90.0,2.0,0.0
6260,74.0,0.0,90.0,2.0,0.0
6261,81.0,25.0,90.0,2.0,0.0
6262,86.0,0.0,90.0,1.0,0.0
6263,54.0,50.0,40.0,4.0,0.0
6264,50.0,60.0,60.0,4.0,0.0
6265,81.0,0.0,150.0,2.0,0.0
6266,54.0,60.0,60.0,4.0,0.0
6267,78.0,65.0,150.0,2.0,0.0
6268,84.0,0.0,150.0,1.0,0.0
6269,72.0,5.0,150.0,2.0,0.0
6270,57.0,35.0,60.0,4.0,0.0
6271,66.0,60.0,120.0,5.0,0.0
6272,69.0,15.0,40.0,2.0,0.0
6273,81.0,0.0,40.0,1.0,0.0
6274,81.0,38.0,60.0,1.0,0.0
6275,60.0,4.0,90.0,5.0,0.0
6276,69.0,0.0,60.0,2.0,0.0
6277,50.0,3.0,90.0,4.0,0.0
6278,66.0,0.0,40.0,2.0,0.0
6279,78.0,75.0,40.0,1.0,0.0
6280,38.0,92.0,750.0,5.0,0.0
6281,45.0,49.0,630.0,5.0,0.0
6282,54.0,49.0,420.0,5.0,0.0
6283,74.0,45.0,60.0,1.0,0.0
6284,72.0,60.0,40.0,1.0,0.0
6285,69.0,60.0,40.0,1.0,0.0
6286,66.0,75.0,40.0,1.0,0.0
6287,62.0,45.0,60.0,1.0,0.0
6288,60.0,60.0,40.0,1.0,0.0
6289,57.0,11.0,40.0,1.0,0.0
6290,54.0,75.0,40.0,1.0,0.0
6291,50.0,45.0,60.0,1.0,0.0
6292,48.0,11.0,40.0,1.0,0.0
6293,45.0,60.0,40.0,1.0,0.0
6294,42.0,3.0,40.0,1.0,0.0
6295,38.0,80.0,90.0,1.0,0.0
6296,36.0,80.0,90.0,1.0,0.0
6297,33.0,480.0,90.0,1.0,0.0
6298,30.0,480.0,480.0,1.0,0.0
6299,27.0,960.0,480.0,1.0,0.0
6300,26.0,1596.0,960.0,1.0,0.0
6301,43.0,240.0,150.0,5.0,0.0
6302,55.0,0.0,150.0,1.0,0.0
6303,31.0,0.0,150.0,5.0,0.0
6304,57.0,0.0,150.0,1.0,0.0
6305,33.0,0.0,150.0,5.0,0.0
6306,45.0,240.0,150.0,5.0,0.0
6307,46.0,324.0,150.0,5.0,0.0
6308,34.0,0.0,150.0,5.0,0.0
6309,58.0,0.0,150.0,1.0,0.0
6310,30.0,0.0,240.0,5.0,0.0
6311,54.0,0.0,240.0,1.0,0.0
6312,42.0,636.0,240.0,5.0,0.0
6313,75.0,0.0,150.0,1.0,0.0
6314,72.0,240.0,150.0,2.0,0.0
6315,57.0,0.0,150.0,5.0,0.0
6316,58.0,0.0,150.0,5.0,0.0
6317,70.0,240.0,150.0,2.0,0.0
6318,74.0,0.0,150.0,1.0,0.0
6319,69.0,0.0,150.0,2.0,0.0
6320,60.0,0.0,150.0,5.0,0.0
6321,72.0,324.0,150.0,1.0,0.0
6322,72.0,0.0,240.0,2.0,0.0
6323,54.0,636.0,240.0,5.0,0.0
6324,81.0,0.0,240.0,1.0,0.0
6325,33.0,0.0,150.0,5.0,0.0
6326,45.0,0.0,150.0,5.0,0.0
6327,57.0,240.0,150.0,1.0,0.0
6328,58.0,0.0,150.0,1.0,0.0
6329,34.0,240.0,150.0,5.0,0.0
6330,46.0,0.0,150.0,5.0,0.0
6331,36.0,324.0,150.0,5.0,0.0
6332,60.0,0.0,150.0,1.0,0.0
6333,48.0,0.0,150.0,5.0,0.0
6334,55.0,0.0,240.0,1.0,0.0
6335,31.0,0.0,240.0,5.0,0.0
6336,43.0,636.0,240.0,5.0,0.0
6337,60.0,0.0,150.0,5.0,0.0
6338,79.0,240.0,150.0,1.0,0.0
6339,75.0,0.0,150.0,2.0,0.0
6340,74.0,0.0,150.0,2.0,0.0
6341,62.0,240.0,150.0,5.0,0.0
6342,77.0,0.0,150.0,1.0,0.0
6343,72.0,0.0,150.0,2.0,0.0
6344,75.0,0.0,150.0,1.0,0.0
6345,63.0,324.0,150.0,5.0,0.0
6346,84.0,0.0,240.0,1.0,0.0
6347,55.0,636.0,240.0,5.0,0.0
6348,75.0,0.0,240.0,2.0,0.0
6349,56.0,0.0,150.0,1.0,0.0
6350,32.0,204.0,150.0,5.0,0.0
6351,39.0,0.0,150.0,4.0,0.0
6352,51.0,105.0,120.0,1.0,0.0
6353,27.0,15.0,120.0,5.0,0.0
6354,32.0,156.0,120.0,5.0,0.0
6355,56.0,0.0,120.0,1.0,0.0
6356,39.0,0.0,120.0,4.0,0.0
6357,51.0,0.0,150.0,1.0,0.0
6358,27.0,240.0,150.0,5.0,0.0
6359,56.0,240.0,150.0,1.0,0.0
6360,39.0,0.0,150.0,4.0,0.0
6361,32.0,0.0,150.0,5.0,0.0
6362,27.0,0.0,150.0,5.0,0.0
6363,51.0,240.0,150.0,1.0,0.0
6364,39.0,240.0,150.0,4.0,0.0
6365,32.0,0.0,150.0,5.0,0.0
6366,56.0,0.0,150.0,1.0,0.0
6367,51.0,0.0,150.0,4.0,0.0
6368,68.0,204.0,150.0,2.0,0.0
6369,44.0,0.0,150.0,5.0,0.0
6370,72.0,0.0,150.0,1.0,0.0
6371,70.0,0.0,120.0,1.0,0.0
6372,39.0,120.0,120.0,5.0,0.0
6373,72.0,0.0,120.0,1.0,0.0
6374,44.0,0.0,120.0,5.0,0.0
6375,68.0,0.0,120.0,2.0,0.0
6376,51.0,156.0,120.0,4.0,0.0
6377,70.0,240.0,150.0,1.0,0.0
6378,39.0,0.0,150.0,5.0,0.0
6379,68.0,240.0,150.0,2.0,0.0
6380,51.0,0.0,150.0,4.0,0.0
6381,72.0,0.0,150.0,1.0,0.0
6382,44.0,0.0,150.0,5.0,0.0
6383,39.0,240.0,150.0,5.0,0.0
6384,70.0,0.0,150.0,1.0,0.0
6385,44.0,240.0,150.0,5.0,0.0
6386,72.0,0.0,150.0,1.0,0.0
6387,68.0,0.0,150.0,2.0,0.0
6388,51.0,0.0,150.0,4.0,0.0
6389,56.0,0.0,150.0,5.0,0.0
6390,44.0,204.0,150.0,5.0,0.0
6391,72.0,0.0,150.0,2.0,0.0
6392,75.0,0.0,150.0,1.0,0.0
6393,63.0,0.0,150.0,2.0,0.0
6394,72.0,36.0,120.0,2.0,0.0
6395,43.0,0.0,150.0,5.0,0.0
6396,75.0,0.0,120.0,1.0,0.0
6397,55.0,84.0,150.0,5.0,0.0
6398,63.0,156.0,120.0,2.0,0.0
6399,72.0,0.0,150.0,2.0,0.0
6400,75.0,0.0,150.0,1.0,0.0
6401,54.0,240.0,150.0,5.0,0.0
6402,42.0,0.0,150.0,5.0,0.0
6403,63.0,0.0,150.0,2.0,0.0
6404,72.0,0.0,150.0,2.0,0.0
6405,43.0,240.0,150.0,5.0,0.0
6406,55.0,0.0,150.0,5.0,0.0
6407,75.0,0.0,150.0,1.0,0.0
6408,70.0,0.0,150.0,2.0,0.0
6409,74.0,0.0,150.0,1.0,0.0
6410,62.0,240.0,150.0,2.0,0.0
6411,60.0,0.0,150.0,2.0,0.0
6412,69.0,0.0,150.0,2.0,0.0
6413,36.0,240.0,150.0,5.0,0.0
6414,48.0,0.0,150.0,5.0,0.0
6415,72.0,0.0,150.0,1.0,0.0
6416,70.0,480.0,150.0,1.0,0.0
6417,58.0,0.0,150.0,2.0,0.0
6418,50.0,0.0,150.0,5.0,0.0
6419,38.0,0.0,150.0,5.0,0.0
6420,57.0,0.0,150.0,2.0,0.0
6421,66.0,0.0,150.0,2.0,0.0
6422,38.0,0.0,150.0,5.0,0.0
6423,26.0,0.0,150.0,5.0,0.0
6424,69.0,324.0,150.0,1.0,0.0
6425,43.0,636.0,240.0,5.0,0.0
6426,55.0,0.0,240.0,2.0,0.0
6427,67.0,0.0,240.0,1.0,0.0
6428,31.0,0.0,240.0,5.0,0.0
6429,55.0,0.0,150.0,1.0,0.0
6430,31.0,240.0,150.0,5.0,0.0
6431,43.0,0.0,150.0,5.0,0.0
6432,33.0,0.0,150.0,5.0,0.0
6433,57.0,240.0,150.0,1.0,0.0
6434,45.0,0.0,150.0,5.0,0.0
6435,58.0,0.0,150.0,1.0,0.0
6436,46.0,324.0,150.0,5.0,0.0
6437,34.0,0.0,150.0,5.0,0.0
6438,54.0,0.0,240.0,1.0,0.0
6439,30.0,636.0,240.0,5.0,0.0
6440,42.0,0.0,240.0,5.0,0.0
6441,57.0,0.0,150.0,5.0,0.0
6442,75.0,0.0,150.0,1.0,0.0
6443,72.0,240.0,150.0,2.0,0.0
6444,58.0,240.0,150.0,5.0,0.0
6445,70.0,0.0,150.0,2.0,0.0
6446,74.0,0.0,150.0,1.0,0.0
6447,60.0,324.0,150.0,5.0,0.0
6448,69.0,0.0,150.0,2.0,0.0
6449,72.0,0.0,150.0,1.0,0.0
6450,72.0,636.0,240.0,2.0,0.0
6451,81.0,0.0,240.0,1.0,0.0
6452,54.0,0.0,240.0,5.0,0.0
6453,33.0,0.0,150.0,5.0,0.0
6454,45.0,240.0,150.0,5.0,0.0
6455,57.0,0.0,150.0,1.0,0.0
6456,34.0,0.0,150.0,5.0,0.0
6457,58.0,240.0,150.0,1.0,0.0
6458,46.0,0.0,150.0,5.0,0.0
6459,48.0,0.0,150.0,5.0,0.0
6460,36.0,0.0,150.0,5.0,0.0
6461,60.0,324.0,150.0,1.0,0.0
6462,31.0,636.0,240.0,5.0,0.0
6463,55.0,0.0,240.0,1.0,0.0
6464,43.0,0.0,240.0,5.0,0.0
6465,79.0,0.0,150.0,1.0,0.0
6466,75.0,0.0,150.0,2.0,0.0
6467,60.0,240.0,150.0,5.0,0.0
6468,77.0,0.0,150.0,1.0,0.0
6469,62.0,0.0,150.0,5.0,0.0
6470,74.0,240.0,150.0,2.0,0.0
6471,63.0,0.0,150.0,5.0,0.0
6472,75.0,0.0,150.0,1.0,0.0
6473,72.0,324.0,150.0,2.0,0.0
6474,55.0,0.0,240.0,5.0,0.0
6475,84.0,636.0,240.0,1.0,0.0
6476,75.0,0.0,240.0,2.0,0.0
6477,56.0,0.0,150.0,1.0,0.0
6478,39.0,0.0,150.0,4.0,0.0
6479,32.0,204.0,150.0,5.0,0.0
6480,51.0,105.0,120.0,1.0,0.0
6481,27.0,15.0,120.0,5.0,0.0
6482,39.0,0.0,120.0,4.0,0.0
6483,32.0,0.0,120.0,5.0,0.0
6484,56.0,156.0,120.0,1.0,0.0
6485,51.0,0.0,150.0,1.0,0.0
6486,27.0,240.0,150.0,5.0,0.0
6487,32.0,0.0,150.0,5.0,0.0
6488,56.0,0.0,150.0,1.0,0.0
6489,39.0,240.0,150.0,4.0,0.0
6490,51.0,0.0,150.0,1.0,0.0
6491,27.0,240.0,150.0,5.0,0.0
6492,56.0,0.0,150.0,1.0,0.0
6493,32.0,0.0,150.0,5.0,0.0
6494,39.0,240.0,150.0,4.0,0.0
6495,51.0,0.0,150.0,4.0,0.0
6496,72.0,0.0,150.0,1.0,0.0
6497,44.0,204.0,150.0,5.0,0.0
6498,68.0,0.0,150.0,2.0,0.0
6499,70.0,120.0,120.0,1.0,0.0
6500,39.0,0.0,120.0,5.0,0.0
6501,68.0,156.0,120.0,2.0,0.0
6502,72.0,0.0,120.0,1.0,0.0
6503,51.0,0.0,120.0,4.0,0.0
6504,44.0,0.0,120.0,5.0,0.0
6505,39.0,240.0,150.0,5.0,0.0
6506,70.0,0.0,150.0,1.0,0.0
6507,68.0,0.0,150.0,2.0,0.0
6508,44.0,0.0,150.0,5.0,0.0
6509,72.0,0.0,150.0,1.0,0.0
6510,51.0,240.0,150.0,4.0,0.0
6511,39.0,0.0,150.0,5.0,0.0
6512,70.0,240.0,150.0,1.0,0.0
6513,72.0,0.0,150.0,1.0,0.0
6514,68.0,240.0,150.0,2.0,0.0
6515,51.0,0.0,150.0,4.0,0.0
6516,44.0,0.0,150.0,5.0,0.0
6517,63.0,0.0,150.0,2.0,0.0
6518,72.0,204.0,150.0,2.0,0.0
6519,75.0,0.0,150.0,1.0,0.0
6520,44.0,0.0,150.0,5.0,0.0
6521,56.0,0.0,150.0,5.0,0.0
6522,72.0,0.0,120.0,2.0,0.0
6523,55.0,84.0,150.0,5.0,0.0
6524,43.0,0.0,150.0,5.0,0.0
6525,75.0,36.0,120.0,1.0,0.0
6526,63.0,156.0,120.0,2.0,0.0
6527,75.0,0.0,150.0,1.0,0.0
6528,54.0,240.0,150.0,5.0,0.0
6529,42.0,0.0,150.0,5.0,0.0
6530,72.0,0.0,150.0,2.0,0.0
6531,75.0,0.0,150.0,1.0,0.0
6532,43.0,240.0,150.0,5.0,0.0
6533,63.0,0.0,150.0,2.0,0.0
6534,55.0,0.0,150.0,5.0,0.0
6535,72.0,0.0,150.0,2.0,0.0
6536,62.0,0.0,150.0,2.0,0.0
6537,74.0,0.0,150.0,1.0,0.0
6538,70.0,240.0,150.0,2.0,0.0
6539,72.0,0.0,150.0,1.0,0.0
6540,60.0,240.0,150.0,2.0,0.0
6541,48.0,0.0,150.0,5.0,0.0
6542,36.0,0.0,150.0,5.0,0.0
6543,69.0,0.0,150.0,2.0,0.0
6544,58.0,480.0,150.0,2.0,0.0
6545,50.0,0.0,150.0,5.0,0.0
6546,70.0,0.0,150.0,1.0,0.0
6547,38.0,0.0,150.0,5.0,0.0
6548,66.0,0.0,150.0,2.0,0.0
6549,69.0,0.0,150.0,1.0,0.0
6550,26.0,324.0,150.0,5.0,0.0
6551,38.0,0.0,150.0,5.0,0.0
6552,57.0,0.0,150.0,2.0,0.0
6553,43.0,0.0,240.0,5.0,0.0
6554,67.0,0.0,240.0,1.0,0.0
6555,55.0,0.0,240.0,2.0,0.0
6556,31.0,636.0,240.0,5.0,0.0
6557,46.0,0.0,150.0,5.0,0.0
6558,58.0,240.0,150.0,1.0,0.0
6559,34.0,0.0,150.0,5.0,0.0
6560,36.0,0.0,150.0,5.0,0.0
6561,60.0,240.0,150.0,1.0,0.0
6562,48.0,0.0,150.0,5.0,0.0
6563,50.0,324.0,150.0,5.0,0.0
6564,38.0,0.0,150.0,5.0,0.0
6565,62.0,0.0,150.0,1.0,0.0
6566,57.0,636.0,240.0,1.0,0.0
6567,45.0,0.0,240.0,5.0,0.0
6568,33.0,0.0,240.0,5.0,0.0
6569,75.0,0.0,150.0,2.0,0.0
6570,60.0,0.0,150.0,5.0,0.0
6571,78.0,240.0,150.0,1.0,0.0
6572,62.0,0.0,150.0,5.0,0.0
6573,77.0,0.0,150.0,1.0,0.0
6574,74.0,240.0,150.0,2.0,0.0
6575,75.0,0.0,150.0,1.0,0.0
6576,63.0,0.0,150.0,5.0,0.0
6577,72.0,324.0,150.0,2.0,0.0
6578,57.0,0.0,240.0,5.0,0.0
6579,75.0,0.0,240.0,2.0,0.0
6580,84.0,636.0,240.0,1.0,0.0
6581,48.0,240.0,150.0,5.0,0.0
6582,60.0,0.0,150.0,1.0,0.0
6583,36.0,0.0,150.0,5.0,0.0
6584,50.0,240.0,150.0,5.0,0.0
6585,62.0,0.0,150.0,1.0,0.0
6586,38.0,0.0,150.0,5.0,0.0
6587,51.0,324.0,150.0,5.0,0.0
6588,39.0,0.0,150.0,5.0,0.0
6589,63.0,0.0,150.0,1.0,0.0
6590,34.0,636.0,240.0,5.0,0.0
6591,58.0,0.0,240.0,1.0,0.0
6592,46.0,0.0,240.0,5.0,0.0
6593,82.0,240.0,150.0,1.0,0.0
6594,63.0,0.0,150.0,5.0,0.0
6595,78.0,0.0,150.0,2.0,0.0
6596,65.0,0.0,150.0,5.0,0.0
6597,80.0,240.0,150.0,1.0,0.0
6598,77.0,0.0,150.0,2.0,0.0
6599,75.0,0.0,150.0,2.0,0.0
6600,66.0,324.0,150.0,5.0,0.0
6601,78.0,0.0,150.0,1.0,0.0
6602,58.0,0.0,240.0,5.0,0.0
6603,87.0,636.0,240.0,1.0,0.0
6604,78.0,0.0,240.0,2.0,0.0
6605,59.0,204.0,150.0,1.0,0.0
6606,35.0,0.0,150.0,5.0,0.0
6607,42.0,0.0,150.0,4.0,0.0
6608,54.0,0.0,120.0,1.0,0.0
6609,30.0,120.0,120.0,5.0,0.0
6610,42.0,156.0,120.0,4.0,0.0
6611,59.0,0.0,120.0,1.0,0.0
6612,35.0,0.0,120.0,5.0,0.0
6613,54.0,0.0,150.0,1.0,0.0
6614,30.0,240.0,150.0,5.0,0.0
6615,42.0,240.0,150.0,4.0,0.0
6616,59.0,0.0,150.0,1.0,0.0
6617,35.0,0.0,150.0,5.0,0.0
6618,30.0,240.0,150.0,5.0,0.0
6619,54.0,0.0,150.0,1.0,0.0
6620,42.0,0.0,150.0,4.0,0.0
6621,59.0,0.0,150.0,1.0,0.0
6622,35.0,240.0,150.0,5.0,0.0
6623,75.0,204.0,150.0,1.0,0.0
6624,54.0,0.0,150.0,4.0,0.0
6625,71.0,0.0,150.0,2.0,0.0
6626,47.0,0.0,150.0,5.0,0.0
6627,42.0,0.0,120.0,5.0,0.0
6628,70.0,120.0,120.0,2.0,0.0
6629,73.0,0.0,120.0,1.0,0.0
6630,47.0,0.0,120.0,5.0,0.0
6631,54.0,0.0,120.0,4.0,0.0
6632,75.0,0.0,120.0,1.0,0.0
6633,71.0,156.0,120.0,2.0,0.0
6634,70.0,0.0,150.0,2.0,0.0
6635,73.0,240.0,150.0,1.0,0.0
6636,42.0,0.0,150.0,5.0,0.0
6637,47.0,0.0,150.0,5.0,0.0
6638,54.0,240.0,150.0,4.0,0.0
6639,75.0,0.0,150.0,1.0,0.0
6640,71.0,0.0,150.0,2.0,0.0
6641,73.0,0.0,150.0,1.0,0.0
6642,42.0,0.0,150.0,5.0,0.0
6643,70.0,240.0,150.0,2.0,0.0
6644,54.0,240.0,150.0,4.0,0.0
6645,75.0,0.0,150.0,1.0,0.0
6646,47.0,0.0,150.0,5.0,0.0
6647,71.0,0.0,150.0,2.0,0.0
6648,78.0,0.0,150.0,1.0,0.0
6649,47.0,204.0,150.0,5.0,0.0
6650,59.0,0.0,150.0,5.0,0.0
6651,66.0,0.0,150.0,2.0,0.0
6652,46.0,84.0,150.0,5.0,0.0
6653,58.0,0.0,150.0,5.0,0.0
6654,75.0,36.0,120.0,2.0,0.0
6655,78.0,0.0,120.0,1.0,0.0
6656,66.0,156.0,120.0,2.0,0.0
6657,75.0,0.0,150.0,2.0,0.0
6658,45.0,0.0,150.0,5.0,0.0
6659,57.0,240.0,150.0,5.0,0.0
6660,78.0,0.0,150.0,1.0,0.0
6661,46.0,0.0,150.0,5.0,0.0
6662,58.0,0.0,150.0,5.0,0.0
6663,75.0,0.0,150.0,2.0,0.0
6664,66.0,240.0,150.0,2.0,0.0
6665,78.0,0.0,150.0,1.0,0.0
6666,79.0,240.0,150.0,1.0,0.0
6667,67.0,0.0,150.0,2.0,0.0
6668,74.0,0.0,150.0,2.0,0.0
6669,69.0,0.0,150.0,2.0,0.0
6670,75.0,0.0,150.0,1.0,0.0
6671,67.0,0.0,150.0,2.0,0.0
6672,48.0,240.0,150.0,5.0,0.0
6673,60.0,0.0,150.0,5.0,0.0
6674,50.0,0.0,150.0,5.0,0.0
6675,74.0,0.0,150.0,1.0,0.0
6676,69.0,0.0,150.0,2.0,0.0
6677,67.0,0.0,150.0,2.0,0.0
6678,62.0,480.0,150.0,5.0,0.0
6679,38.0,240.0,150.0,5.0,0.0
6680,50.0,0.0,150.0,5.0,0.0
6681,66.0,0.0,150.0,1.0,0.0
6682,60.0,0.0,150.0,2.0,0.0
6683,39.0,0.0,150.0,5.0,0.0
6684,67.0,240.0,150.0,1.0,0.0
6685,58.0,0.0,150.0,2.0,0.0
6686,51.0,0.0,150.0,5.0,0.0
6687,38.0,240.0,150.0,5.0,0.0
6688,50.0,0.0,150.0,5.0,0.0
6689,37.0,0.0,150.0,5.0,0.0
6690,49.0,240.0,150.0,5.0,0.0
6691,63.0,0.0,150.0,1.0,0.0
6692,48.0,204.0,150.0,5.0,0.0
6693,36.0,0.0,150.0,5.0,0.0
6694,54.0,0.0,150.0,2.0,0.0
6695,34.0,0.0,150.0,5.0,0.0
6696,63.0,36.0,120.0,1.0,0.0
6697,46.0,84.0,150.0,5.0,0.0
6698,54.0,156.0,120.0,2.0,0.0
6699,63.0,240.0,150.0,1.0,0.0
6700,33.0,0.0,150.0,5.0,0.0
6701,45.0,0.0,150.0,5.0,0.0
6702,54.0,0.0,150.0,2.0,0.0
6703,34.0,0.0,150.0,5.0,0.0
6704,46.0,0.0,150.0,5.0,0.0
6705,63.0,240.0,150.0,1.0,0.0
6706,62.0,0.0,150.0,1.0,0.0
6707,55.0,240.0,150.0,2.0,0.0
6708,57.0,0.0,150.0,2.0,0.0
6709,36.0,240.0,150.0,5.0,0.0
6710,60.0,0.0,150.0,1.0,0.0
6711,48.0,0.0,150.0,5.0,0.0
6712,58.0,480.0,150.0,1.0,0.0
6713,38.0,0.0,150.0,5.0,0.0
6714,55.0,0.0,150.0,2.0,0.0
6715,50.0,0.0,150.0,5.0,0.0
6716,26.0,0.0,150.0,5.0,0.0
6717,38.0,0.0,150.0,5.0,0.0
6718,54.0,0.0,150.0,2.0,0.0
6719,57.0,240.0,150.0,1.0,0.0
6720,27.0,240.0,150.0,5.0,0.0
6721,39.0,0.0,150.0,5.0,0.0
6722,55.0,0.0,150.0,1.0,0.0
6723,38.0,0.0,150.0,5.0,0.0
6724,26.0,240.0,150.0,5.0,0.0
6725,25.0,240.0,150.0,5.0,0.0
6726,37.0,0.0,150.0,5.0,0.0
6727,51.0,0.0,150.0,1.0,0.0
6728,36.0,0.0,150.0,5.0,0.0
6729,24.0,204.0,150.0,5.0,0.0
6730,51.0,36.0,120.0,1.0,0.0
6731,22.0,0.0,150.0,5.0,0.0
6732,34.0,84.0,150.0,5.0,0.0
6733,42.0,156.0,120.0,2.0,0.0
6734,21.0,0.0,150.0,5.0,0.0
6735,33.0,0.0,150.0,5.0,0.0
6736,51.0,240.0,150.0,1.0,0.0
6737,51.0,240.0,150.0,1.0,0.0
6738,22.0,0.0,150.0,5.0,0.0
6739,43.0,0.0,150.0,2.0,0.0
6740,34.0,0.0,150.0,5.0,0.0
6741,50.0,240.0,150.0,1.0,0.0
6742,48.0,240.0,150.0,1.0,0.0
6743,45.0,0.0,150.0,2.0,0.0
6744,36.0,0.0,150.0,5.0,0.0
6745,38.0,720.0,150.0,5.0,0.0
6746,43.0,0.0,150.0,2.0,0.0
6747,46.0,0.0,150.0,1.0,0.0
6748,45.0,0.0,150.0,1.0,0.0
6749,42.0,720.0,150.0,2.0,0.0
6750,26.0,0.0,150.0,5.0,0.0
6751,43.0,2196.0,150.0,1.0,0.0
6752,31.0,0.0,150.0,5.0,0.0
6753,65.0,0.0,180.0,1.0,0.0
6754,53.0,240.0,180.0,5.0,0.0
6755,50.0,0.0,180.0,5.0,0.0
6756,58.0,240.0,180.0,5.0,0.0
6757,62.0,0.0,180.0,2.0,0.0
6758,70.0,0.0,180.0,1.0,0.0
6759,53.0,0.0,180.0,5.0,0.0
6760,65.0,0.0,180.0,2.0,0.0
6761,60.0,0.0,180.0,5.0,0.0
6762,72.0,708.0,180.0,1.0,0.0
6763,70.0,0.0,720.0,2.0,0.0
6764,74.0,633.0,720.0,1.0,0.0
6765,58.0,0.0,720.0,5.0,0.0
6766,62.0,0.0,720.0,5.0,0.0
6767,34.0,0.0,300.0,5.0,0.0
6768,41.0,60.0,180.0,5.0,0.0
6769,65.0,0.0,15.0,2.0,0.0
6770,58.0,0.0,630.0,5.0,0.0
6771,62.0,16.0,630.0,5.0,0.0
6772,74.0,3.0,630.0,1.0,0.0
6773,70.0,0.0,630.0,2.0,0.0
6774,34.0,5.0,300.0,5.0,0.0
6775,41.0,40.0,180.0,5.0,0.0
6776,70.0,0.0,60.0,2.0,0.0
6777,74.0,40.0,60.0,1.0,0.0
6778,72.0,0.0,60.0,2.0,0.0
6779,75.0,124.0,60.0,1.0,0.0
6780,58.0,0.0,150.0,5.0,0.0
6781,62.0,0.0,150.0,5.0,0.0
6782,74.0,0.0,150.0,1.0,0.0
6783,70.0,336.0,150.0,2.0,0.0
6784,60.0,144.0,120.0,5.0,0.0
6785,69.0,0.0,120.0,2.0,0.0
6786,57.0,0.0,120.0,5.0,0.0
6787,72.0,0.0,120.0,1.0,0.0
6788,70.0,0.0,150.0,2.0,0.0
6789,74.0,76.0,150.0,1.0,0.0
6790,58.0,0.0,150.0,5.0,0.0
6791,62.0,0.0,150.0,5.0,0.0
6792,70.0,0.0,60.0,2.0,0.0
6793,74.0,40.0,60.0,1.0,0.0
6794,72.0,0.0,60.0,2.0,0.0
6795,75.0,124.0,60.0,1.0,0.0
6796,62.0,336.0,150.0,5.0,0.0
6797,70.0,0.0,150.0,2.0,0.0
6798,74.0,0.0,150.0,1.0,0.0
6799,58.0,0.0,150.0,5.0,0.0
6800,69.0,0.0,120.0,2.0,0.0
6801,57.0,144.0,120.0,5.0,0.0
6802,60.0,0.0,120.0,5.0,0.0
6803,72.0,0.0,120.0,1.0,0.0
6804,70.0,0.0,150.0,2.0,0.0
6805,74.0,0.0,150.0,1.0,0.0
6806,58.0,576.0,150.0,5.0,0.0
6807,62.0,0.0,150.0,5.0,0.0
6808,65.0,0.0,480.0,5.0,0.0
6809,77.0,0.0,480.0,1.0,0.0
6810,74.0,0.0,480.0,2.0,0.0
6811,62.0,240.0,15.0,5.0,0.0
6812,70.0,0.0,240.0,2.0,0.0
6813,74.0,0.0,240.0,1.0,0.0
6814,58.0,660.0,240.0,5.0,0.0
6815,53.0,0.0,15.0,5.0,0.0
6816,72.0,0.0,720.0,1.0,0.0
6817,29.0,60.0,300.0,5.0,0.0
6818,41.0,0.0,180.0,5.0,0.0
6819,65.0,0.0,15.0,2.0,0.0
6820,53.0,660.0,15.0,5.0,0.0
6821,56.0,0.0,720.0,5.0,0.0
6822,60.0,0.0,15.0,5.0,0.0
6823,68.0,0.0,720.0,2.0,0.0
6824,29.0,55.0,300.0,5.0,0.0
6825,36.0,5.0,180.0,5.0,0.0
6826,72.0,0.0,15.0,1.0,0.0
6827,56.0,0.0,630.0,5.0,0.0
6828,60.0,21.0,630.0,5.0,0.0
6829,65.0,0.0,630.0,2.0,0.0
6830,68.0,3.0,630.0,2.0,0.0
6831,53.0,0.0,630.0,5.0,0.0
6832,29.0,40.0,300.0,5.0,0.0
6833,36.0,0.0,180.0,5.0,0.0
6834,72.0,40.0,60.0,1.0,0.0
6835,68.0,0.0,60.0,2.0,0.0
6836,70.0,0.0,60.0,2.0,0.0
6837,73.0,124.0,60.0,1.0,0.0
6838,60.0,0.0,150.0,5.0,0.0
6839,72.0,0.0,150.0,1.0,0.0
6840,56.0,336.0,150.0,5.0,0.0
6841,68.0,0.0,150.0,2.0,0.0
6842,67.0,0.0,120.0,2.0,0.0
6843,58.0,144.0,120.0,5.0,0.0
6844,55.0,0.0,120.0,5.0,0.0
6845,70.0,0.0,120.0,1.0,0.0
6846,56.0,76.0,150.0,5.0,0.0
6847,60.0,0.0,150.0,5.0,0.0
6848,72.0,0.0,150.0,1.0,0.0
6849,68.0,0.0,150.0,2.0,0.0
6850,68.0,0.0,60.0,2.0,0.0
6851,72.0,40.0,60.0,1.0,0.0
6852,70.0,124.0,60.0,2.0,0.0
6853,73.0,0.0,60.0,1.0,0.0
6854,60.0,0.0,150.0,5.0,0.0
6855,68.0,336.0,150.0,2.0,0.0
6856,56.0,0.0,150.0,5.0,0.0
6857,72.0,0.0,150.0,1.0,0.0
6858,55.0,0.0,120.0,5.0,0.0
6859,58.0,0.0,120.0,5.0,0.0
6860,70.0,144.0,120.0,1.0,0.0
6861,67.0,0.0,120.0,2.0,0.0
6862,60.0,0.0,150.0,5.0,0.0
6863,56.0,0.0,150.0,5.0,0.0
6864,72.0,0.0,150.0,1.0,0.0
6865,68.0,576.0,150.0,2.0,0.0
6866,72.0,0.0,480.0,2.0,0.0
6867,51.0,0.0,720.0,5.0,0.0
6868,63.0,0.0,480.0,5.0,0.0
6869,75.0,240.0,480.0,1.0,0.0
6870,56.0,0.0,240.0,5.0,0.0
6871,60.0,0.0,15.0,5.0,0.0
6872,68.0,655.0,240.0,2.0,0.0
6873,72.0,0.0,240.0,1.0,0.0
6874,27.0,5.0,300.0,5.0,0.0
6875,39.0,60.0,180.0,5.0,0.0
6876,70.0,0.0,15.0,1.0,0.0
6877,63.0,660.0,15.0,2.0,0.0
6878,66.0,0.0,720.0,2.0,0.0
6879,58.0,0.0,15.0,5.0,0.0
6880,51.0,0.0,15.0,5.0,0.0
6881,27.0,55.0,300.0,5.0,0.0
6882,34.0,5.0,180.0,5.0,0.0
6883,70.0,3.0,630.0,1.0,0.0
6884,66.0,0.0,630.0,2.0,0.0
6885,63.0,0.0,630.0,2.0,0.0
6886,58.0,0.0,15.0,5.0,0.0
6887,54.0,0.0,15.0,5.0,0.0
6888,51.0,636.0,15.0,5.0,0.0
6889,27.0,40.0,300.0,5.0,0.0
6890,34.0,0.0,180.0,5.0,0.0
6891,66.0,0.0,60.0,2.0,0.0
6892,70.0,40.0,60.0,1.0,0.0
6893,68.0,124.0,60.0,2.0,0.0
6894,72.0,0.0,60.0,1.0,0.0
6895,66.0,0.0,150.0,2.0,0.0
6896,70.0,0.0,150.0,1.0,0.0
6897,58.0,336.0,150.0,5.0,0.0
6898,54.0,0.0,150.0,5.0,0.0
6899,69.0,0.0,120.0,1.0,0.0
6900,53.0,0.0,120.0,5.0,0.0
6901,57.0,0.0,120.0,5.0,0.0
6902,65.0,144.0,120.0,2.0,0.0
6903,58.0,0.0,150.0,5.0,0.0
6904,54.0,76.0,150.0,5.0,0.0
6905,70.0,0.0,150.0,1.0,0.0
6906,66.0,0.0,150.0,2.0,0.0
6907,66.0,40.0,60.0,2.0,0.0
6908,70.0,0.0,60.0,1.0,0.0
6909,72.0,124.0,60.0,1.0,0.0
6910,68.0,0.0,60.0,2.0,0.0
6911,70.0,336.0,150.0,1.0,0.0
6912,58.0,0.0,150.0,5.0,0.0
6913,54.0,0.0,150.0,5.0,0.0
6914,66.0,0.0,150.0,2.0,0.0
6915,65.0,0.0,120.0,2.0,0.0
6916,57.0,144.0,120.0,5.0,0.0
6917,53.0,0.0,120.0,5.0,0.0
6918,69.0,0.0,120.0,1.0,0.0
6919,66.0,0.0,150.0,2.0,0.0
6920,70.0,576.0,150.0,1.0,0.0
6921,58.0,0.0,150.0,5.0,0.0
6922,54.0,0.0,150.0,5.0,0.0
6923,61.0,0.0,480.0,5.0,0.0
6924,77.0,240.0,480.0,1.0,0.0
6925,65.0,0.0,480.0,5.0,0.0
6926,73.0,0.0,480.0,2.0,0.0
6927,61.0,0.0,240.0,5.0,0.0
6928,58.0,0.0,240.0,5.0,0.0
6929,70.0,0.0,240.0,2.0,0.0
6930,73.0,660.0,240.0,1.0,0.0
6931,65.0,0.0,720.0,2.0,0.0
6932,60.0,480.0,720.0,5.0,0.0
6933,53.0,0.0,15.0,5.0,0.0
6934,72.0,0.0,720.0,1.0,0.0
6935,29.0,60.0,300.0,5.0,0.0
6936,41.0,0.0,180.0,5.0,0.0
6937,77.0,0.0,480.0,1.0,0.0
6938,65.0,0.0,480.0,5.0,0.0
6939,53.0,0.0,15.0,5.0,0.0
6940,61.0,240.0,480.0,5.0,0.0
6941,73.0,0.0,480.0,2.0,0.0
6942,73.0,0.0,240.0,1.0,0.0
6943,70.0,0.0,240.0,2.0,0.0
6944,58.0,0.0,240.0,5.0,0.0
6945,61.0,660.0,240.0,5.0,0.0
6946,65.0,144.0,720.0,2.0,0.0
6947,60.0,0.0,720.0,5.0,0.0
6948,72.0,0.0,720.0,1.0,0.0
6949,53.0,0.0,720.0,5.0,0.0
6950,29.0,55.0,300.0,5.0,0.0
6951,41.0,5.0,180.0,5.0,0.0
6952,85.0,336.0,150.0,1.0,0.0
6953,82.0,0.0,150.0,2.0,0.0
6954,61.0,0.0,150.0,5.0,0.0
6955,58.0,0.0,150.0,5.0,0.0
6956,73.0,0.0,150.0,2.0,0.0
6957,77.0,0.0,120.0,2.0,0.0
6958,89.0,141.0,120.0,1.0,0.0
6959,65.0,0.0,120.0,5.0,0.0
6960,61.0,0.0,120.0,5.0,0.0
6961,85.0,3.0,120.0,2.0,0.0
6962,85.0,0.0,150.0,1.0,0.0
6963,58.0,0.0,150.0,5.0,0.0
6964,61.0,96.0,150.0,5.0,0.0
6965,73.0,0.0,150.0,2.0,0.0
6966,82.0,0.0,150.0,2.0,0.0
6967,85.0,0.0,150.0,1.0,0.0
6968,73.0,0.0,150.0,2.0,0.0
6969,82.0,0.0,150.0,2.0,0.0
6970,53.0,144.0,15.0,5.0,0.0
6971,58.0,0.0,150.0,5.0,0.0
6972,61.0,336.0,150.0,5.0,0.0
6973,77.0,0.0,120.0,2.0,0.0
6974,85.0,0.0,120.0,2.0,0.0
6975,65.0,3.0,120.0,5.0,0.0
6976,89.0,141.0,120.0,1.0,0.0
6977,85.0,96.0,150.0,1.0,0.0
6978,58.0,0.0,150.0,5.0,0.0
6979,61.0,0.0,15.0,5.0,0.0
6980,82.0,0.0,150.0,2.0,0.0
6981,73.0,0.0,150.0,2.0,0.0
6982,60.0,0.0,720.0,5.0,0.0
6983,77.0,0.0,720.0,2.0,0.0
6984,53.0,0.0,720.0,5.0,0.0
6985,29.0,0.0,300.0,5.0,0.0
6986,41.0,60.0,180.0,5.0,0.0
6987,77.0,0.0,720.0,2.0,0.0
6988,72.0,660.0,15.0,2.0,0.0
6989,81.0,0.0,15.0,2.0,0.0
6990,84.0,0.0,15.0,1.0,0.0
6991,60.0,0.0,720.0,5.0,0.0
6992,53.0,0.0,720.0,5.0,0.0
6993,29.0,60.0,300.0,5.0,0.0
6994,41.0,0.0,180.0,5.0,0.0
6995,60.0,0.0,720.0,5.0,0.0
6996,53.0,0.0,720.0,5.0,0.0
6997,77.0,0.0,720.0,2.0,0.0
6998,84.0,0.0,15.0,1.0,0.0
6999,72.0,660.0,15.0,2.0,0.0
7000,81.0,0.0,720.0,2.0,0.0
7001,29.0,0.0,300.0,5.0,0.0
7002,41.0,60.0,180.0,5.0,0.0
7003,29.0,720.0,300.0,5.0,0.0
7004,41.0,0.0,180.0,5.0,0.0
7005,29.0,0.0,300.0,5.0,0.0
7006,41.0,252.0,180.0,5.0,0.0
7007,65.0,240.0,180.0,1.0,0.0
7008,53.0,0.0,180.0,5.0,0.0
7009,62.0,0.0,180.0,2.0,0.0
7010,50.0,0.0,180.0,5.0,0.0
7011,58.0,240.0,180.0,5.0,0.0
7012,70.0,0.0,180.0,1.0,0.0
7013,60.0,0.0,180.0,5.0,0.0
7014,53.0,0.0,180.0,5.0,0.0
7015,65.0,0.0,180.0,2.0,0.0
7016,72.0,708.0,180.0,1.0,0.0
7017,74.0,0.0,720.0,1.0,0.0
7018,65.0,0.0,720.0,2.0,0.0
7019,70.0,0.0,720.0,2.0,0.0
7020,34.0,0.0,300.0,5.0,0.0
7021,41.0,60.0,180.0,5.0,0.0
7022,70.0,3.0,630.0,2.0,0.0
7023,65.0,0.0,630.0,2.0,0.0
7024,74.0,3.0,630.0,1.0,0.0
7025,58.0,633.0,15.0,5.0,0.0
7026,62.0,0.0,15.0,5.0,0.0
7027,34.0,5.0,300.0,5.0,0.0
7028,41.0,40.0,180.0,5.0,0.0
7029,74.0,40.0,60.0,1.0,0.0
7030,70.0,0.0,60.0,2.0,0.0
7031,72.0,124.0,60.0,2.0,0.0
7032,75.0,0.0,60.0,1.0,0.0
7033,74.0,336.0,150.0,1.0,0.0
7034,62.0,0.0,150.0,5.0,0.0
7035,58.0,0.0,150.0,5.0,0.0
7036,70.0,0.0,150.0,2.0,0.0
7037,69.0,0.0,120.0,2.0,0.0
7038,60.0,0.0,120.0,5.0,0.0
7039,57.0,0.0,120.0,5.0,0.0
7040,72.0,144.0,120.0,1.0,0.0
7041,58.0,0.0,150.0,5.0,0.0
7042,70.0,0.0,150.0,2.0,0.0
7043,74.0,0.0,150.0,1.0,0.0
7044,62.0,76.0,150.0,5.0,0.0
7045,70.0,0.0,60.0,2.0,0.0
7046,74.0,40.0,60.0,1.0,0.0
7047,72.0,124.0,60.0,2.0,0.0
7048,75.0,0.0,60.0,1.0,0.0
7049,70.0,0.0,150.0,2.0,0.0
7050,74.0,0.0,150.0,1.0,0.0
7051,62.0,0.0,150.0,5.0,0.0
7052,58.0,336.0,150.0,5.0,0.0
7053,57.0,0.0,120.0,5.0,0.0
7054,69.0,0.0,120.0,2.0,0.0
7055,60.0,144.0,120.0,5.0,0.0
7056,72.0,0.0,120.0,1.0,0.0
7057,70.0,576.0,150.0,2.0,0.0
7058,74.0,0.0,150.0,1.0,0.0
7059,58.0,0.0,150.0,5.0,0.0
7060,62.0,0.0,150.0,5.0,0.0
7061,77.0,0.0,480.0,1.0,0.0
7062,65.0,240.0,480.0,5.0,0.0
7063,62.0,0.0,480.0,5.0,0.0
7064,74.0,0.0,480.0,2.0,0.0
7065,70.0,0.0,240.0,2.0,0.0
7066,74.0,660.0,240.0,1.0,0.0
7067,62.0,0.0,240.0,5.0,0.0
7068,58.0,0.0,240.0,5.0,0.0
7069,53.0,0.0,15.0,5.0,0.0
7070,29.0,0.0,300.0,5.0,0.0
7071,41.0,60.0,180.0,5.0,0.0
7072,60.0,0.0,15.0,5.0,0.0
7073,72.0,0.0,15.0,1.0,0.0
7074,65.0,0.0,15.0,2.0,0.0
7075,68.0,0.0,720.0,2.0,0.0
7076,53.0,0.0,720.0,5.0,0.0
7077,56.0,0.0,720.0,5.0,0.0
7078,29.0,55.0,300.0,5.0,0.0
7079,36.0,5.0,180.0,5.0,0.0
7080,60.0,21.0,630.0,5.0,0.0
7081,56.0,0.0,630.0,5.0,0.0
7082,53.0,0.0,630.0,5.0,0.0
7083,72.0,3.0,630.0,1.0,0.0
7084,65.0,0.0,630.0,2.0,0.0
7085,68.0,0.0,630.0,2.0,0.0
7086,29.0,0.0,300.0,5.0,0.0
7087,36.0,40.0,180.0,5.0,0.0
7088,72.0,0.0,60.0,1.0,0.0
7089,68.0,40.0,60.0,2.0,0.0
7090,73.0,0.0,60.0,1.0,0.0
7091,70.0,124.0,60.0,2.0,0.0
7092,68.0,0.0,150.0,2.0,0.0
7093,60.0,0.0,150.0,5.0,0.0
7094,72.0,0.0,150.0,1.0,0.0
7095,56.0,336.0,150.0,5.0,0.0
7096,67.0,144.0,120.0,2.0,0.0
7097,58.0,0.0,120.0,5.0,0.0
7098,55.0,0.0,120.0,5.0,0.0
7099,70.0,0.0,120.0,1.0,0.0
7100,72.0,0.0,150.0,1.0,0.0
7101,56.0,0.0,150.0,5.0,0.0
7102,60.0,0.0,150.0,5.0,0.0
7103,68.0,76.0,150.0,2.0,0.0
7104,68.0,40.0,60.0,2.0,0.0
7105,72.0,0.0,60.0,1.0,0.0
7106,73.0,0.0,60.0,1.0,0.0
7107,70.0,124.0,60.0,2.0,0.0
7108,60.0,0.0,150.0,5.0,0.0
7109,72.0,336.0,150.0,1.0,0.0
7110,56.0,0.0,150.0,5.0,0.0
7111,68.0,0.0,150.0,2.0,0.0
7112,58.0,144.0,120.0,5.0,0.0
7113,55.0,0.0,120.0,5.0,0.0
7114,70.0,0.0,120.0,1.0,0.0
7115,67.0,0.0,120.0,2.0,0.0
7116,72.0,0.0,150.0,1.0,0.0
7117,68.0,0.0,150.0,2.0,0.0
7118,56.0,576.0,150.0,5.0,0.0
7119,60.0,0.0,150.0,5.0,0.0
7120,63.0,0.0,480.0,5.0,0.0
7121,75.0,0.0,480.0,1.0,0.0
7122,72.0,240.0,480.0,2.0,0.0
7123,72.0,0.0,240.0,1.0,0.0
7124,56.0,0.0,240.0,5.0,0.0
7125,60.0,0.0,15.0,5.0,0.0
7126,68.0,655.0,240.0,2.0,0.0
7127,51.0,0.0,15.0,5.0,0.0
7128,58.0,0.0,720.0,5.0,0.0
7129,63.0,0.0,720.0,2.0,0.0
7130,27.0,5.0,300.0,5.0,0.0
7131,39.0,60.0,180.0,5.0,0.0
7132,54.0,0.0,720.0,5.0,0.0
7133,58.0,0.0,720.0,5.0,0.0
7134,51.0,0.0,15.0,5.0,0.0
7135,66.0,0.0,720.0,2.0,0.0
7136,63.0,0.0,720.0,2.0,0.0
7137,70.0,660.0,15.0,1.0,0.0
7138,27.0,55.0,300.0,5.0,0.0
7139,34.0,5.0,180.0,5.0,0.0
7140,66.0,0.0,630.0,2.0,0.0
7141,70.0,636.0,15.0,1.0,0.0
7142,63.0,0.0,630.0,2.0,0.0
7143,58.0,0.0,630.0,5.0,0.0
7144,54.0,21.0,630.0,5.0,0.0
7145,51.0,0.0,630.0,5.0,0.0
7146,27.0,0.0,300.0,5.0,0.0
7147,34.0,40.0,180.0,5.0,0.0
7148,66.0,40.0,60.0,2.0,0.0
7149,70.0,0.0,60.0,1.0,0.0
7150,68.0,0.0,60.0,2.0,0.0
7151,72.0,124.0,60.0,1.0,0.0
7152,70.0,336.0,150.0,1.0,0.0
7153,58.0,0.0,150.0,5.0,0.0
7154,66.0,0.0,150.0,2.0,0.0
7155,54.0,0.0,150.0,5.0,0.0
7156,65.0,144.0,120.0,2.0,0.0
7157,53.0,0.0,120.0,5.0,0.0
7158,57.0,0.0,120.0,5.0,0.0
7159,69.0,0.0,120.0,1.0,0.0
7160,58.0,0.0,150.0,5.0,0.0
7161,54.0,76.0,150.0,5.0,0.0
7162,70.0,0.0,150.0,1.0,0.0
7163,66.0,0.0,150.0,2.0,0.0
7164,66.0,0.0,60.0,2.0,0.0
7165,70.0,40.0,60.0,1.0,0.0
7166,72.0,124.0,60.0,1.0,0.0
7167,68.0,0.0,60.0,2.0,0.0
7168,58.0,0.0,150.0,5.0,0.0
7169,54.0,0.0,150.0,5.0,0.0
7170,66.0,0.0,150.0,2.0,0.0
7171,70.0,336.0,150.0,1.0,0.0
7172,65.0,144.0,120.0,2.0,0.0
7173,69.0,0.0,120.0,1.0,0.0
7174,57.0,0.0,120.0,5.0,0.0
7175,53.0,0.0,120.0,5.0,0.0
7176,70.0,0.0,150.0,1.0,0.0
7177,54.0,0.0,150.0,5.0,0.0
7178,66.0,0.0,150.0,2.0,0.0
7179,58.0,576.0,150.0,5.0,0.0
7180,73.0,0.0,480.0,2.0,0.0
7181,53.0,0.0,720.0,5.0,0.0
7182,65.0,240.0,480.0,5.0,0.0
7183,77.0,0.0,480.0,1.0,0.0
7184,61.0,0.0,480.0,5.0,0.0
7185,70.0,660.0,240.0,2.0,0.0
7186,73.0,0.0,240.0,1.0,0.0
7187,58.0,0.0,240.0,5.0,0.0
7188,61.0,0.0,240.0,5.0,0.0
7189,60.0,0.0,720.0,5.0,0.0
7190,65.0,480.0,720.0,2.0,0.0
7191,72.0,0.0,720.0,1.0,0.0
7192,29.0,0.0,300.0,5.0,0.0
7193,41.0,60.0,180.0,5.0,0.0
7194,73.0,240.0,480.0,2.0,0.0
7195,53.0,0.0,15.0,5.0,0.0
7196,77.0,0.0,480.0,1.0,0.0
7197,65.0,0.0,480.0,5.0,0.0
7198,73.0,0.0,240.0,1.0,0.0
7199,70.0,0.0,240.0,2.0,0.0
7200,58.0,0.0,240.0,5.0,0.0
7201,61.0,0.0,15.0,5.0,0.0
7202,65.0,0.0,720.0,2.0,0.0
7203,72.0,0.0,720.0,1.0,0.0
7204,53.0,0.0,15.0,5.0,0.0
7205,60.0,144.0,720.0,5.0,0.0
7206,29.0,55.0,300.0,5.0,0.0
7207,41.0,5.0,180.0,5.0,0.0
7208,85.0,0.0,150.0,1.0,0.0
7209,58.0,336.0,150.0,5.0,0.0
7210,61.0,0.0,150.0,5.0,0.0
7211,53.0,0.0,15.0,5.0,0.0
7212,73.0,0.0,150.0,2.0,0.0
7213,82.0,0.0,150.0,2.0,0.0
7214,89.0,141.0,120.0,1.0,0.0
7215,65.0,0.0,120.0,5.0,0.0
7216,61.0,0.0,120.0,5.0,0.0
7217,77.0,3.0,120.0,2.0,0.0
7218,85.0,0.0,120.0,2.0,0.0
7219,82.0,0.0,150.0,2.0,0.0
7220,73.0,0.0,150.0,2.0,0.0
7221,58.0,0.0,150.0,5.0,0.0
7222,61.0,96.0,150.0,5.0,0.0
7223,85.0,0.0,150.0,1.0,0.0
7224,61.0,0.0,150.0,5.0,0.0
7225,58.0,0.0,150.0,5.0,0.0
7226,53.0,144.0,15.0,5.0,0.0
7227,82.0,336.0,150.0,2.0,0.0
7228,73.0,0.0,150.0,2.0,0.0
7229,85.0,0.0,150.0,1.0,0.0
7230,65.0,0.0,120.0,5.0,0.0
7231,85.0,0.0,120.0,2.0,0.0
7232,77.0,3.0,120.0,2.0,0.0
7233,89.0,141.0,120.0,1.0,0.0
7234,61.0,0.0,120.0,5.0,0.0
7235,61.0,0.0,150.0,5.0,0.0
7236,73.0,96.0,150.0,2.0,0.0
7237,58.0,0.0,150.0,5.0,0.0
7238,85.0,0.0,150.0,1.0,0.0
7239,82.0,0.0,150.0,2.0,0.0
7240,60.0,0.0,720.0,5.0,0.0
7241,53.0,660.0,15.0,5.0,0.0
7242,77.0,0.0,720.0,2.0,0.0
7243,72.0,0.0,720.0,2.0,0.0
7244,81.0,0.0,720.0,2.0,0.0
7245,29.0,60.0,300.0,5.0,0.0
7246,41.0,0.0,180.0,5.0,0.0
7247,84.0,0.0,15.0,1.0,0.0
7248,53.0,0.0,720.0,5.0,0.0
7249,60.0,0.0,720.0,5.0,0.0
7250,81.0,0.0,720.0,2.0,0.0
7251,29.0,0.0,300.0,5.0,0.0
7252,41.0,60.0,180.0,5.0,0.0
7253,53.0,0.0,720.0,5.0,0.0
7254,60.0,0.0,720.0,5.0,0.0
7255,72.0,0.0,15.0,2.0,0.0
7256,77.0,0.0,15.0,2.0,0.0
7257,84.0,0.0,720.0,1.0,0.0
7258,81.0,0.0,720.0,2.0,0.0
7259,29.0,60.0,300.0,5.0,0.0
7260,41.0,0.0,180.0,5.0,0.0
7261,29.0,0.0,300.0,5.0,0.0
7262,41.0,720.0,180.0,5.0,0.0
7263,29.0,0.0,300.0,5.0,0.0
7264,41.0,252.0,180.0,5.0,0.0
7265,65.0,240.0,180.0,1.0,0.0
7266,53.0,0.0,180.0,5.0,0.0
7267,70.0,0.0,180.0,1.0,0.0
7268,58.0,0.0,180.0,5.0,0.0
7269,50.0,0.0,180.0,5.0,0.0
7270,62.0,240.0,180.0,2.0,0.0
7271,62.0,0.0,180.0,5.0,0.0
7272,53.0,703.0,180.0,5.0,0.0
7273,74.0,0.0,180.0,1.0,0.0
7274,65.0,0.0,180.0,2.0,0.0
7275,74.0,0.0,720.0,1.0,0.0
7276,59.0,0.0,720.0,5.0,0.0
7277,62.0,0.0,720.0,5.0,0.0
7278,31.0,5.0,300.0,5.0,0.0
7279,43.0,60.0,180.0,5.0,0.0
7280,55.0,0.0,15.0,5.0,0.0
7281,71.0,0.0,15.0,2.0,0.0
7282,67.0,633.0,15.0,2.0,0.0
7283,74.0,0.0,630.0,1.0,0.0
7284,59.0,0.0,630.0,5.0,0.0
7285,62.0,21.0,630.0,5.0,0.0
7286,31.0,0.0,300.0,5.0,0.0
7287,43.0,40.0,180.0,5.0,0.0
7288,71.0,0.0,60.0,2.0,0.0
7289,74.0,40.0,60.0,1.0,0.0
7290,72.0,0.0,60.0,2.0,0.0
7291,75.0,124.0,60.0,1.0,0.0
7292,71.0,0.0,150.0,2.0,0.0
7293,62.0,0.0,150.0,5.0,0.0
7294,59.0,0.0,150.0,5.0,0.0
7295,74.0,336.0,150.0,1.0,0.0
7296,60.0,0.0,120.0,5.0,0.0
7297,57.0,144.0,120.0,5.0,0.0
7298,69.0,0.0,120.0,2.0,0.0
7299,72.0,0.0,120.0,1.0,0.0
7300,74.0,0.0,150.0,1.0,0.0
7301,62.0,0.0,150.0,5.0,0.0
7302,71.0,0.0,150.0,2.0,0.0
7303,59.0,76.0,150.0,5.0,0.0
7304,74.0,0.0,60.0,1.0,0.0
7305,71.0,40.0,60.0,2.0,0.0
7306,72.0,0.0,60.0,2.0,0.0
7307,75.0,124.0,60.0,1.0,0.0
7308,62.0,0.0,150.0,5.0,0.0
7309,74.0,0.0,150.0,1.0,0.0
7310,59.0,336.0,150.0,5.0,0.0
7311,71.0,0.0,150.0,2.0,0.0
7312,69.0,0.0,120.0,2.0,0.0
7313,72.0,0.0,120.0,1.0,0.0
7314,57.0,144.0,120.0,5.0,0.0
7315,60.0,0.0,120.0,5.0,0.0
7316,59.0,0.0,150.0,5.0,0.0
7317,62.0,576.0,150.0,5.0,0.0
7318,71.0,0.0,150.0,2.0,0.0
7319,74.0,0.0,150.0,1.0,0.0
7320,79.0,0.0,480.0,1.0,0.0
7321,67.0,240.0,480.0,5.0,0.0
7322,62.0,0.0,480.0,5.0,0.0
7323,55.0,0.0,720.0,5.0,0.0
7324,74.0,0.0,480.0,2.0,0.0
7325,59.0,0.0,240.0,5.0,0.0
7326,62.0,0.0,240.0,5.0,0.0
7327,71.0,0.0,240.0,2.0,0.0
7328,74.0,660.0,240.0,1.0,0.0
7329,60.0,0.0,720.0,5.0,0.0
7330,63.0,0.0,720.0,2.0,0.0
7331,72.0,0.0,720.0,2.0,0.0
7332,75.0,660.0,720.0,1.0,0.0
7333,31.0,60.0,300.0,5.0,0.0
7334,43.0,0.0,180.0,5.0,0.0
7335,64.0,0.0,720.0,5.0,0.0
7336,57.0,0.0,720.0,5.0,0.0
7337,69.0,0.0,720.0,2.0,0.0
7338,61.0,0.0,720.0,5.0,0.0
7339,31.0,0.0,300.0,5.0,0.0
7340,43.0,60.0,180.0,5.0,0.0
7341,61.0,0.0,630.0,5.0,0.0
7342,64.0,3.0,630.0,5.0,0.0
7343,55.0,0.0,15.0,5.0,0.0
7344,76.0,0.0,15.0,1.0,0.0
7345,57.0,0.0,630.0,5.0,0.0
7346,73.0,633.0,15.0,2.0,0.0
7347,69.0,21.0,630.0,2.0,0.0
7348,31.0,0.0,300.0,5.0,0.0
7349,43.0,40.0,180.0,5.0,0.0
7350,73.0,0.0,60.0,2.0,0.0
7351,76.0,40.0,60.0,1.0,0.0
7352,77.0,124.0,60.0,1.0,0.0
7353,74.0,0.0,60.0,2.0,0.0
7354,72.0,0.0,150.0,2.0,0.0
7355,64.0,0.0,150.0,5.0,0.0
7356,76.0,0.0,150.0,1.0,0.0
7357,60.0,336.0,150.0,5.0,0.0
7358,71.0,144.0,120.0,2.0,0.0
7359,74.0,0.0,120.0,1.0,0.0
7360,62.0,0.0,120.0,5.0,0.0
7361,59.0,0.0,120.0,5.0,0.0
7362,64.0,76.0,150.0,5.0,0.0
7363,76.0,0.0,150.0,1.0,0.0
7364,73.0,0.0,150.0,2.0,0.0
7365,61.0,0.0,150.0,5.0,0.0
7366,76.0,0.0,60.0,1.0,0.0
7367,73.0,40.0,60.0,2.0,0.0
7368,77.0,124.0,60.0,1.0,0.0
7369,74.0,0.0,60.0,2.0,0.0
7370,64.0,0.0,150.0,5.0,0.0
7371,61.0,336.0,150.0,5.0,0.0
7372,73.0,0.0,150.0,2.0,0.0
7373,76.0,0.0,150.0,1.0,0.0
7374,71.0,0.0,120.0,2.0,0.0
7375,74.0,144.0,120.0,1.0,0.0
7376,62.0,0.0,120.0,5.0,0.0
7377,59.0,0.0,120.0,5.0,0.0
7378,73.0,0.0,150.0,2.0,0.0
7379,64.0,0.0,150.0,5.0,0.0
7380,76.0,0.0,150.0,1.0,0.0
7381,61.0,576.0,150.0,5.0,0.0
7382,77.0,240.0,480.0,2.0,0.0
7383,81.0,0.0,480.0,1.0,0.0
7384,65.0,0.0,480.0,5.0,0.0
7385,57.0,0.0,720.0,5.0,0.0
7386,69.0,0.0,480.0,5.0,0.0
7387,61.0,0.0,240.0,5.0,0.0
7388,64.0,0.0,240.0,5.0,0.0
7389,76.0,0.0,240.0,1.0,0.0
7390,73.0,360.0,240.0,2.0,0.0
7391,77.0,480.0,720.0,1.0,0.0
7392,74.0,0.0,720.0,2.0,0.0
7393,65.0,297.0,360.0,5.0,0.0
7394,62.0,3.0,360.0,5.0,0.0
7395,29.0,0.0,300.0,5.0,0.0
7396,41.0,60.0,180.0,5.0,0.0
7397,73.0,240.0,480.0,2.0,0.0
7398,82.0,0.0,480.0,1.0,0.0
7399,65.0,0.0,480.0,5.0,0.0
7400,70.0,0.0,480.0,5.0,0.0
7401,61.0,0.0,240.0,5.0,0.0
7402,58.0,360.0,240.0,5.0,0.0
7403,73.0,0.0,240.0,1.0,0.0
7404,70.0,0.0,240.0,2.0,0.0
7405,60.0,0.0,360.0,5.0,0.0
7406,65.0,297.0,360.0,5.0,0.0
7407,53.0,0.0,15.0,5.0,0.0
7408,69.0,0.0,720.0,2.0,0.0
7409,77.0,476.0,720.0,1.0,0.0
7410,29.0,55.0,300.0,5.0,0.0
7411,41.0,5.0,180.0,5.0,0.0
7412,53.0,0.0,720.0,5.0,0.0
7413,65.0,0.0,480.0,5.0,0.0
7414,61.0,4.0,480.0,5.0,0.0
7415,82.0,0.0,480.0,1.0,0.0
7416,70.0,0.0,480.0,5.0,0.0
7417,73.0,240.0,480.0,2.0,0.0
7418,61.0,360.0,240.0,5.0,0.0
7419,73.0,0.0,240.0,1.0,0.0
7420,58.0,0.0,240.0,5.0,0.0
7421,70.0,0.0,240.0,2.0,0.0
7422,77.0,472.0,720.0,1.0,0.0
7423,65.0,0.0,360.0,5.0,0.0
7424,53.0,3.0,360.0,5.0,0.0
7425,69.0,0.0,720.0,2.0,0.0
7426,60.0,297.0,360.0,5.0,0.0
7427,29.0,0.0,300.0,5.0,0.0
7428,41.0,60.0,180.0,5.0,0.0
7429,61.0,8.0,480.0,5.0,0.0
7430,73.0,240.0,480.0,2.0,0.0
7431,53.0,0.0,720.0,5.0,0.0
7432,70.0,0.0,480.0,5.0,0.0
7433,82.0,0.0,480.0,1.0,0.0
7434,65.0,0.0,15.0,5.0,0.0
7435,65.0,0.0,15.0,5.0,0.0
7436,77.0,0.0,15.0,1.0,0.0
7437,61.0,0.0,15.0,5.0,0.0
7438,73.0,240.0,15.0,2.0,0.0
7439,63.0,0.0,240.0,5.0,0.0
7440,75.0,240.0,240.0,1.0,0.0
7441,72.0,0.0,240.0,2.0,0.0
7442,60.0,0.0,240.0,5.0,0.0
7443,58.0,0.0,240.0,5.0,0.0
7444,61.0,0.0,240.0,5.0,0.0
7445,73.0,0.0,240.0,1.0,0.0
7446,70.0,0.0,240.0,2.0,0.0
7447,60.0,660.0,720.0,5.0,0.0
7448,72.0,0.0,720.0,1.0,0.0
7449,53.0,660.0,15.0,5.0,0.0
7450,57.0,0.0,720.0,5.0,0.0
7451,29.0,60.0,300.0,5.0,0.0
7452,41.0,0.0,180.0,5.0,0.0
7453,65.0,0.0,15.0,2.0,0.0
7454,72.0,0.0,720.0,1.0,0.0
7455,53.0,0.0,720.0,5.0,0.0
7456,60.0,0.0,720.0,5.0,0.0
7457,29.0,60.0,300.0,5.0,0.0
7458,41.0,0.0,180.0,5.0,0.0
7459,72.0,0.0,720.0,1.0,0.0
7460,65.0,0.0,15.0,2.0,0.0
7461,60.0,0.0,720.0,5.0,0.0
7462,53.0,0.0,720.0,5.0,0.0
7463,57.0,660.0,15.0,5.0,0.0
7464,29.0,60.0,300.0,5.0,0.0
7465,41.0,0.0,180.0,5.0,0.0
7466,29.0,0.0,300.0,5.0,0.0
7467,41.0,720.0,180.0,5.0,0.0
7468,29.0,0.0,300.0,5.0,0.0
7469,41.0,252.0,180.0,5.0,0.0
7470,53.0,0.0,180.0,5.0,0.0
7471,77.0,240.0,180.0,1.0,0.0
7472,65.0,0.0,180.0,2.0,0.0
7473,82.0,0.0,180.0,1.0,0.0
7474,58.0,0.0,180.0,5.0,0.0
7475,50.0,0.0,180.0,5.0,0.0
7476,74.0,240.0,180.0,2.0,0.0
7477,70.0,0.0,180.0,2.0,0.0
7478,72.0,0.0,180.0,2.0,0.0
7479,77.0,0.0,180.0,2.0,0.0
7480,84.0,0.0,180.0,1.0,0.0
7481,60.0,703.0,180.0,5.0,0.0
7482,53.0,0.0,180.0,5.0,0.0
7483,50.0,0.0,720.0,5.0,0.0
7484,34.0,5.0,300.0,5.0,0.0
7485,41.0,60.0,180.0,5.0,0.0
7486,77.0,0.0,15.0,2.0,0.0
7487,74.0,0.0,15.0,2.0,0.0
7488,86.0,0.0,15.0,1.0,0.0
7489,82.0,0.0,15.0,2.0,0.0
7490,50.0,0.0,630.0,5.0,0.0
7491,53.0,633.0,15.0,5.0,0.0
7492,62.0,0.0,15.0,5.0,0.0
7493,58.0,0.0,15.0,5.0,0.0
7494,34.0,35.0,300.0,5.0,0.0
7495,41.0,5.0,180.0,5.0,0.0
7496,86.0,0.0,60.0,1.0,0.0
7497,74.0,40.0,60.0,2.0,0.0
7498,87.0,0.0,60.0,1.0,0.0
7499,75.0,124.0,60.0,2.0,0.0
7500,74.0,0.0,150.0,2.0,0.0
7501,82.0,0.0,150.0,2.0,0.0
7502,86.0,0.0,150.0,1.0,0.0
7503,58.0,0.0,150.0,5.0,0.0
7504,62.0,336.0,150.0,5.0,0.0
7505,81.0,0.0,120.0,2.0,0.0
7506,72.0,144.0,120.0,2.0,0.0
7507,60.0,0.0,120.0,5.0,0.0
7508,57.0,0.0,120.0,5.0,0.0
7509,84.0,0.0,120.0,1.0,0.0
7510,82.0,0.0,150.0,2.0,0.0
7511,86.0,76.0,150.0,1.0,0.0
7512,74.0,0.0,150.0,2.0,0.0
7513,62.0,0.0,150.0,5.0,0.0
7514,58.0,0.0,150.0,5.0,0.0
7515,86.0,40.0,60.0,1.0,0.0
7516,74.0,0.0,60.0,2.0,0.0
7517,87.0,0.0,60.0,1.0,0.0
7518,75.0,124.0,60.0,2.0,0.0
7519,62.0,336.0,150.0,5.0,0.0
7520,74.0,0.0,150.0,2.0,0.0
7521,58.0,0.0,150.0,5.0,0.0
7522,82.0,0.0,150.0,2.0,0.0
7523,86.0,0.0,150.0,1.0,0.0
7524,60.0,144.0,120.0,5.0,0.0
7525,84.0,0.0,120.0,1.0,0.0
7526,81.0,0.0,120.0,2.0,0.0
7527,57.0,0.0,120.0,5.0,0.0
7528,72.0,0.0,120.0,2.0,0.0
7529,58.0,0.0,150.0,5.0,0.0
7530,62.0,0.0,150.0,5.0,0.0
7531,86.0,576.0,150.0,1.0,0.0
7532,74.0,0.0,150.0,2.0,0.0
7533,82.0,0.0,150.0,2.0,0.0
7534,53.0,0.0,720.0,5.0,0.0
7535,86.0,0.0,480.0,2.0,0.0
7536,89.0,0.0,480.0,1.0,0.0
7537,65.0,0.0,480.0,5.0,0.0
7538,77.0,0.0,480.0,2.0,0.0
7539,58.0,0.0,240.0,5.0,0.0
7540,62.0,240.0,15.0,5.0,0.0
7541,82.0,0.0,240.0,2.0,0.0
7542,74.0,0.0,240.0,2.0,0.0
7543,86.0,660.0,240.0,1.0,0.0
7544,60.0,0.0,720.0,5.0,0.0
7545,77.0,0.0,720.0,2.0,0.0
7546,72.0,0.0,720.0,2.0,0.0
7547,84.0,0.0,720.0,1.0,0.0
7548,29.0,55.0,300.0,5.0,0.0
7549,41.0,5.0,180.0,5.0,0.0
7550,84.0,0.0,720.0,1.0,0.0
7551,53.0,660.0,15.0,5.0,0.0
7552,56.0,0.0,720.0,5.0,0.0
7553,60.0,636.0,720.0,5.0,0.0
7554,29.0,60.0,300.0,5.0,0.0
7555,36.0,0.0,180.0,5.0,0.0
7556,80.0,0.0,15.0,2.0,0.0
7557,72.0,0.0,15.0,2.0,0.0
7558,84.0,0.0,630.0,1.0,0.0
7559,53.0,0.0,630.0,5.0,0.0
7560,60.0,21.0,630.0,5.0,0.0
7561,56.0,0.0,630.0,5.0,0.0
7562,29.0,40.0,300.0,5.0,0.0
7563,36.0,0.0,180.0,5.0,0.0
7564,72.0,0.0,60.0,2.0,0.0
7565,84.0,40.0,60.0,1.0,0.0
7566,73.0,0.0,60.0,2.0,0.0
7567,85.0,124.0,60.0,1.0,0.0
7568,72.0,0.0,150.0,2.0,0.0
7569,84.0,0.0,150.0,1.0,0.0
7570,56.0,0.0,150.0,5.0,0.0
7571,60.0,336.0,150.0,5.0,0.0
7572,80.0,0.0,150.0,2.0,0.0
7573,79.0,0.0,120.0,2.0,0.0
7574,70.0,0.0,120.0,2.0,0.0
7575,82.0,144.0,120.0,1.0,0.0
7576,58.0,0.0,120.0,5.0,0.0
7577,55.0,0.0,120.0,5.0,0.0
7578,72.0,76.0,150.0,2.0,0.0
7579,80.0,0.0,150.0,2.0,0.0
7580,56.0,0.0,150.0,5.0,0.0
7581,60.0,0.0,150.0,5.0,0.0
7582,84.0,0.0,150.0,1.0,0.0
7583,72.0,0.0,60.0,2.0,0.0
7584,84.0,40.0,60.0,1.0,0.0
7585,73.0,124.0,60.0,2.0,0.0
7586,85.0,0.0,60.0,1.0,0.0
7587,80.0,336.0,150.0,2.0,0.0
7588,72.0,0.0,150.0,2.0,0.0
7589,84.0,0.0,150.0,1.0,0.0
7590,56.0,0.0,150.0,5.0,0.0
7591,60.0,0.0,150.0,5.0,0.0
7592,70.0,0.0,120.0,2.0,0.0
7593,79.0,144.0,120.0,2.0,0.0
7594,82.0,0.0,120.0,1.0,0.0
7595,58.0,0.0,120.0,5.0,0.0
7596,55.0,0.0,120.0,5.0,0.0
7597,56.0,0.0,150.0,5.0,0.0
7598,84.0,0.0,150.0,1.0,0.0
7599,72.0,0.0,150.0,2.0,0.0
7600,80.0,576.0,150.0,2.0,0.0
7601,60.0,0.0,150.0,5.0,0.0
7602,63.0,0.0,480.0,5.0,0.0
7603,75.0,0.0,480.0,2.0,0.0
7604,87.0,0.0,480.0,1.0,0.0
7605,84.0,0.0,480.0,2.0,0.0
7606,60.0,240.0,15.0,5.0,0.0
7607,80.0,0.0,240.0,2.0,0.0
7608,72.0,0.0,240.0,2.0,0.0
7609,56.0,0.0,240.0,5.0,0.0
7610,84.0,660.0,240.0,1.0,0.0
7611,51.0,0.0,15.0,5.0,0.0
7612,75.0,0.0,720.0,2.0,0.0
7613,27.0,60.0,300.0,5.0,0.0
7614,39.0,0.0,180.0,5.0,0.0
7615,51.0,636.0,720.0,5.0,0.0
7616,82.0,0.0,15.0,1.0,0.0
7617,70.0,0.0,15.0,2.0,0.0
7618,54.0,0.0,720.0,5.0,0.0
7619,58.0,660.0,15.0,5.0,0.0
7620,27.0,60.0,300.0,5.0,0.0
7621,34.0,0.0,180.0,5.0,0.0
7622,78.0,0.0,15.0,2.0,0.0
7623,70.0,0.0,15.0,2.0,0.0
7624,51.0,3.0,630.0,5.0,0.0
7625,54.0,0.0,630.0,5.0,0.0
7626,58.0,21.0,630.0,5.0,0.0
7627,82.0,0.0,630.0,1.0,0.0
7628,27.0,40.0,300.0,5.0,0.0
7629,34.0,0.0,180.0,5.0,0.0
7630,70.0,0.0,60.0,2.0,0.0
7631,82.0,40.0,60.0,1.0,0.0
7632,72.0,0.0,60.0,2.0,0.0
7633,84.0,124.0,60.0,1.0,0.0
7634,54.0,0.0,150.0,5.0,0.0
7635,82.0,0.0,150.0,1.0,0.0
7636,78.0,336.0,150.0,2.0,0.0
7637,70.0,0.0,150.0,2.0,0.0
7638,58.0,0.0,150.0,5.0,0.0
7639,69.0,0.0,120.0,2.0,0.0
7640,57.0,0.0,120.0,5.0,0.0
7641,77.0,0.0,120.0,2.0,0.0
7642,81.0,0.0,120.0,1.0,0.0
7643,53.0,144.0,120.0,5.0,0.0
7644,78.0,0.0,150.0,2.0,0.0
7645,70.0,0.0,150.0,2.0,0.0
7646,82.0,76.0,150.0,1.0,0.0
7647,54.0,0.0,150.0,5.0,0.0
7648,58.0,0.0,150.0,5.0,0.0
7649,82.0,40.0,60.0,1.0,0.0
7650,70.0,0.0,60.0,2.0,0.0
7651,72.0,0.0,60.0,2.0,0.0
7652,84.0,124.0,60.0,1.0,0.0
7653,54.0,0.0,150.0,5.0,0.0
7654,58.0,0.0,150.0,5.0,0.0
7655,70.0,336.0,150.0,2.0,0.0
7656,78.0,0.0,150.0,2.0,0.0
7657,82.0,0.0,150.0,1.0,0.0
7658,69.0,0.0,120.0,2.0,0.0
7659,81.0,0.0,120.0,1.0,0.0
7660,57.0,0.0,120.0,5.0,0.0
7661,53.0,0.0,120.0,5.0,0.0
7662,77.0,144.0,120.0,2.0,0.0
7663,58.0,240.0,150.0,5.0,0.0
7664,82.0,0.0,150.0,1.0,0.0
7665,54.0,0.0,150.0,5.0,0.0
7666,70.0,0.0,150.0,2.0,0.0
7667,78.0,0.0,150.0,2.0,0.0
7668,74.0,336.0,150.0,2.0,0.0
7669,65.0,0.0,150.0,2.0,0.0
7670,29.0,0.0,150.0,5.0,0.0
7671,41.0,0.0,150.0,5.0,0.0
7672,58.0,0.0,150.0,5.0,0.0
7673,77.0,0.0,150.0,1.0,0.0
7674,58.0,0.0,120.0,5.0,0.0
7675,74.0,0.0,120.0,2.0,0.0
7676,82.0,120.0,120.0,1.0,0.0
7677,70.0,0.0,120.0,2.0,0.0
7678,50.0,0.0,120.0,5.0,0.0
7679,62.0,0.0,150.0,5.0,0.0
7680,86.0,0.0,150.0,1.0,0.0
7681,74.0,3.0,120.0,2.0,0.0
7682,77.0,226.0,150.0,2.0,0.0
7683,82.0,0.0,150.0,2.0,0.0
7684,53.0,21.0,120.0,5.0,0.0
7685,89.0,14.0,120.0,1.0,0.0
7686,58.0,0.0,150.0,5.0,0.0
7687,77.0,0.0,150.0,2.0,0.0
7688,86.0,0.0,150.0,2.0,0.0
7689,62.0,336.0,150.0,5.0,0.0
7690,86.0,141.0,120.0,1.0,0.0
7691,74.0,0.0,120.0,2.0,0.0
7692,53.0,0.0,120.0,5.0,0.0
7693,82.0,0.0,120.0,2.0,0.0
7694,62.0,3.0,120.0,5.0,0.0
7695,74.0,576.0,150.0,2.0,0.0
7696,70.0,0.0,150.0,2.0,0.0
7697,50.0,0.0,150.0,5.0,0.0
7698,58.0,0.0,150.0,5.0,0.0
7699,82.0,0.0,150.0,1.0,0.0
7700,60.0,0.0,480.0,5.0,0.0
7701,81.0,0.0,480.0,2.0,0.0
7702,72.0,0.0,480.0,2.0,0.0
7703,84.0,0.0,480.0,1.0,0.0
7704,77.0,240.0,480.0,2.0,0.0
7705,77.0,0.0,240.0,1.0,0.0
7706,53.0,0.0,15.0,5.0,0.0
7707,65.0,660.0,240.0,2.0,0.0
7708,82.0,0.0,720.0,2.0,0.0
7709,62.0,0.0,720.0,5.0,0.0
7710,58.0,0.0,720.0,5.0,0.0
7711,50.0,0.0,720.0,5.0,0.0
7712,77.0,0.0,720.0,2.0,0.0
7713,86.0,480.0,720.0,1.0,0.0
7714,74.0,0.0,720.0,2.0,0.0
7715,34.0,60.0,300.0,5.0,0.0
7716,41.0,0.0,180.0,5.0,0.0
7717,53.0,0.0,15.0,5.0,0.0
7718,60.0,0.0,480.0,5.0,0.0
7719,81.0,0.0,480.0,2.0,0.0
7720,77.0,240.0,480.0,2.0,0.0
7721,72.0,0.0,480.0,2.0,0.0
7722,84.0,0.0,480.0,1.0,0.0
7723,65.0,0.0,240.0,2.0,0.0
7724,77.0,660.0,240.0,1.0,0.0
7725,53.0,0.0,15.0,5.0,0.0
7726,86.0,0.0,720.0,1.0,0.0
7727,50.0,0.0,720.0,5.0,0.0
7728,74.0,0.0,720.0,2.0,0.0
7729,58.0,0.0,720.0,5.0,0.0
7730,77.0,144.0,720.0,2.0,0.0
7731,82.0,0.0,720.0,2.0,0.0
7732,62.0,0.0,720.0,5.0,0.0
7733,34.0,60.0,300.0,5.0,0.0
7734,41.0,0.0,180.0,5.0,0.0
7735,57.0,0.0,150.0,5.0,0.0
7736,81.0,336.0,150.0,2.0,0.0
7737,60.0,0.0,150.0,5.0,0.0
7738,72.0,0.0,150.0,2.0,0.0
7739,84.0,0.0,150.0,1.0,0.0
7740,89.0,141.0,120.0,1.0,0.0
7741,77.0,3.0,120.0,2.0,0.0
7742,65.0,0.0,120.0,2.0,0.0
7743,84.0,240.0,150.0,1.0,0.0
7744,60.0,0.0,150.0,5.0,0.0
7745,57.0,0.0,150.0,5.0,0.0
7746,81.0,0.0,150.0,2.0,0.0
7747,72.0,0.0,150.0,2.0,0.0
7748,81.0,0.0,150.0,2.0,0.0
7749,72.0,0.0,150.0,2.0,0.0
7750,57.0,336.0,150.0,5.0,0.0
7751,60.0,0.0,150.0,5.0,0.0
7752,84.0,0.0,150.0,1.0,0.0
7753,89.0,141.0,120.0,1.0,0.0
7754,65.0,0.0,120.0,2.0,0.0
7755,77.0,3.0,120.0,2.0,0.0
7756,60.0,0.0,150.0,5.0,0.0
7757,81.0,0.0,150.0,2.0,0.0
7758,72.0,0.0,150.0,2.0,0.0
7759,57.0,756.0,150.0,5.0,0.0
7760,84.0,0.0,150.0,1.0,0.0
7761,86.0,0.0,720.0,1.0,0.0
7762,58.0,0.0,720.0,5.0,0.0
7763,50.0,0.0,720.0,5.0,0.0
7764,62.0,0.0,720.0,5.0,0.0
7765,53.0,0.0,720.0,5.0,0.0
7766,34.0,0.0,300.0,5.0,0.0
7767,41.0,60.0,180.0,5.0,0.0
7768,82.0,0.0,15.0,2.0,0.0
7769,77.0,0.0,15.0,2.0,0.0
7770,74.0,660.0,15.0,2.0,0.0
7771,58.0,0.0,720.0,5.0,0.0
7772,62.0,0.0,720.0,5.0,0.0
7773,34.0,0.0,300.0,5.0,0.0
7774,41.0,60.0,180.0,5.0,0.0
7775,86.0,0.0,15.0,1.0,0.0
7776,50.0,0.0,15.0,5.0,0.0
7777,53.0,0.0,15.0,5.0,0.0
7778,62.0,0.0,720.0,5.0,0.0
7779,58.0,660.0,720.0,5.0,0.0
7780,74.0,0.0,720.0,2.0,0.0
7781,82.0,660.0,15.0,2.0,0.0
7782,77.0,0.0,15.0,2.0,0.0
7783,34.0,0.0,300.0,5.0,0.0
7784,41.0,60.0,180.0,5.0,0.0
7785,34.0,720.0,300.0,5.0,0.0
7786,41.0,0.0,180.0,5.0,0.0
7787,34.0,0.0,300.0,5.0,0.0
7788,41.0,216.0,180.0,5.0,0.0
7789,53.0,240.0,150.0,1.0,0.0
7790,58.0,240.0,150.0,1.0,0.0
7791,60.0,804.0,150.0,1.0,0.0
7792,62.0,720.0,15.0,1.0,0.0
7793,30.0,204.0,150.0,5.0,0.0
7794,30.0,120.0,120.0,5.0,0.0
7795,45.0,144.0,120.0,5.0,0.0
7796,30.0,240.0,150.0,5.0,0.0
7797,45.0,240.0,150.0,5.0,0.0
7798,30.0,240.0,150.0,5.0,0.0
7799,45.0,816.0,150.0,5.0,0.0
7800,62.0,0.0,720.0,2.0,0.0
7801,62.0,156.0,720.0,2.0,0.0
7802,63.0,720.0,15.0,1.0,0.0
7803,30.0,204.0,150.0,5.0,0.0
7804,30.0,120.0,120.0,5.0,0.0
7805,45.0,144.0,120.0,5.0,0.0
7806,30.0,240.0,150.0,5.0,0.0
7807,45.0,240.0,150.0,5.0,0.0
7808,30.0,240.0,150.0,5.0,0.0
7809,45.0,456.0,150.0,5.0,0.0
7810,62.0,0.0,720.0,2.0,0.0
7811,30.0,120.0,120.0,5.0,0.0
7812,45.0,156.0,120.0,5.0,0.0
7813,30.0,84.0,150.0,5.0,0.0
7814,63.0,360.0,15.0,1.0,0.0
7815,62.0,0.0,720.0,2.0,0.0
7816,30.0,120.0,120.0,5.0,0.0
7817,45.0,156.0,120.0,5.0,0.0
7818,30.0,84.0,150.0,5.0,0.0
7819,63.0,360.0,15.0,1.0,0.0
7820,30.0,120.0,120.0,5.0,0.0
7821,45.0,0.0,120.0,5.0,0.0
7822,63.0,0.0,15.0,1.0,0.0
7823,62.0,360.0,15.0,2.0,0.0
7824,30.0,120.0,120.0,5.0,0.0
7825,45.0,0.0,120.0,5.0,0.0
7826,62.0,360.0,15.0,2.0,0.0
7827,30.0,120.0,120.0,5.0,0.0
7828,45.0,0.0,120.0,5.0,0.0
7829,63.0,0.0,15.0,1.0,0.0
7830,62.0,360.0,15.0,2.0,0.0
7831,30.0,120.0,120.0,5.0,0.0
7832,45.0,0.0,120.0,5.0,0.0
7833,63.0,360.0,15.0,1.0,0.0
7834,62.0,0.0,15.0,2.0,0.0
7835,30.0,120.0,120.0,5.0,0.0
7836,45.0,0.0,120.0,5.0,0.0
7837,63.0,10.0,420.0,1.0,0.0
7838,62.0,5.0,420.0,2.0,0.0
7839,30.0,70.0,120.0,5.0,0.0
7840,45.0,185.0,90.0,5.0,0.0
7841,60.0,200.0,210.0,2.0,0.0
7842,72.0,4.0,150.0,1.0,0.0
7843,63.0,6.0,150.0,1.0,0.0
7844,38.0,36.0,120.0,5.0,0.0
7845,70.0,0.0,150.0,1.0,0.0
7846,62.0,84.0,150.0,2.0,0.0
7847,50.0,156.0,120.0,5.0,0.0
7848,38.0,240.0,150.0,5.0,0.0
7849,69.0,0.0,150.0,1.0,0.0
7850,60.0,0.0,150.0,2.0,0.0
7851,58.0,240.0,150.0,2.0,0.0
7852,50.0,0.0,150.0,5.0,0.0
7853,67.0,0.0,150.0,1.0,0.0
7854,38.0,0.0,150.0,5.0,0.0
7855,66.0,0.0,150.0,1.0,0.0
7856,57.0,240.0,150.0,2.0,0.0
7857,63.0,0.0,150.0,1.0,0.0
7858,50.0,240.0,150.0,5.0,0.0
7859,55.0,0.0,150.0,2.0,0.0
7860,62.0,0.0,150.0,1.0,0.0
7861,54.0,204.0,150.0,2.0,0.0
7862,51.0,84.0,150.0,2.0,0.0
7863,26.0,36.0,120.0,5.0,0.0
7864,60.0,0.0,150.0,1.0,0.0
7865,38.0,156.0,120.0,5.0,0.0
7866,58.0,240.0,150.0,1.0,0.0
7867,50.0,0.0,150.0,2.0,0.0
7868,26.0,0.0,150.0,5.0,0.0
7869,57.0,0.0,150.0,1.0,0.0
7870,48.0,0.0,150.0,2.0,0.0
7871,38.0,240.0,150.0,5.0,0.0
7872,55.0,240.0,150.0,1.0,0.0
7873,46.0,0.0,150.0,2.0,0.0
7874,26.0,0.0,150.0,5.0,0.0
7875,38.0,0.0,150.0,5.0,0.0
7876,54.0,0.0,150.0,1.0,0.0
7877,45.0,240.0,150.0,2.0,0.0
7878,55.0,240.0,150.0,1.0,0.0
7879,31.0,0.0,150.0,5.0,0.0
7880,43.0,0.0,150.0,5.0,0.0
7881,57.0,0.0,150.0,1.0,0.0
7882,33.0,0.0,150.0,5.0,0.0
7883,45.0,240.0,150.0,5.0,0.0
7884,46.0,324.0,150.0,5.0,0.0
7885,58.0,0.0,150.0,1.0,0.0
7886,34.0,0.0,150.0,5.0,0.0
7887,30.0,0.0,240.0,5.0,0.0
7888,42.0,0.0,240.0,5.0,0.0
7889,54.0,636.0,240.0,1.0,0.0
7890,75.0,240.0,150.0,1.0,0.0
7891,57.0,0.0,150.0,5.0,0.0
7892,72.0,0.0,150.0,2.0,0.0
7893,58.0,0.0,150.0,5.0,0.0
7894,70.0,240.0,150.0,2.0,0.0
7895,74.0,0.0,150.0,1.0,0.0
7896,60.0,324.0,150.0,5.0,0.0
7897,69.0,0.0,150.0,2.0,0.0
7898,72.0,0.0,150.0,1.0,0.0
7899,81.0,0.0,240.0,1.0,0.0
7900,54.0,0.0,240.0,5.0,0.0
7901,72.0,636.0,240.0,2.0,0.0
7902,45.0,0.0,150.0,5.0,0.0
7903,33.0,0.0,150.0,5.0,0.0
7904,57.0,240.0,150.0,1.0,0.0
7905,34.0,240.0,150.0,5.0,0.0
7906,46.0,0.0,150.0,5.0,0.0
7907,58.0,0.0,150.0,1.0,0.0
7908,36.0,324.0,150.0,5.0,0.0
7909,48.0,0.0,150.0,5.0,0.0
7910,60.0,0.0,150.0,1.0,0.0
7911,55.0,636.0,240.0,1.0,0.0
7912,43.0,0.0,240.0,5.0,0.0
7913,31.0,0.0,240.0,5.0,0.0
7914,79.0,0.0,150.0,1.0,0.0
7915,75.0,240.0,150.0,2.0,0.0
7916,60.0,0.0,150.0,5.0,0.0
7917,77.0,0.0,150.0,1.0,0.0
7918,74.0,0.0,150.0,2.0,0.0
7919,62.0,240.0,150.0,5.0,0.0
7920,72.0,0.0,150.0,2.0,0.0
7921,75.0,324.0,150.0,1.0,0.0
7922,63.0,0.0,150.0,5.0,0.0
7923,84.0,636.0,240.0,1.0,0.0
7924,75.0,0.0,240.0,2.0,0.0
7925,55.0,0.0,240.0,5.0,0.0
7926,56.0,204.0,150.0,1.0,0.0
7927,39.0,0.0,150.0,4.0,0.0
7928,32.0,0.0,150.0,5.0,0.0
7929,27.0,120.0,120.0,5.0,0.0
7930,51.0,0.0,120.0,1.0,0.0
7931,39.0,0.0,120.0,4.0,0.0
7932,56.0,156.0,120.0,1.0,0.0
7933,32.0,0.0,120.0,5.0,0.0
7934,27.0,0.0,150.0,5.0,0.0
7935,51.0,240.0,150.0,1.0,0.0
7936,56.0,240.0,150.0,1.0,0.0
7937,32.0,0.0,150.0,5.0,0.0
7938,39.0,0.0,150.0,4.0,0.0
7939,27.0,240.0,150.0,5.0,0.0
7940,51.0,0.0,150.0,1.0,0.0
7941,39.0,0.0,150.0,4.0,0.0
7942,32.0,0.0,150.0,5.0,0.0
7943,56.0,240.0,150.0,1.0,0.0
7944,72.0,0.0,150.0,1.0,0.0
7945,44.0,204.0,150.0,5.0,0.0
7946,68.0,0.0,150.0,2.0,0.0
7947,51.0,0.0,150.0,4.0,0.0
7948,39.0,120.0,120.0,5.0,0.0
7949,70.0,0.0,120.0,1.0,0.0
7950,68.0,0.0,120.0,2.0,0.0
7951,51.0,0.0,120.0,4.0,0.0
7952,72.0,0.0,120.0,1.0,0.0
7953,44.0,156.0,120.0,5.0,0.0
7954,39.0,240.0,150.0,5.0,0.0
7955,70.0,0.0,150.0,1.0,0.0
7956,72.0,0.0,150.0,1.0,0.0
7957,51.0,0.0,150.0,4.0,0.0
7958,68.0,0.0,150.0,2.0,0.0
7959,44.0,240.0,150.0,5.0,0.0
7960,70.0,240.0,150.0,1.0,0.0
7961,39.0,0.0,150.0,5.0,0.0
7962,44.0,0.0,150.0,5.0,0.0
7963,72.0,0.0,150.0,1.0,0.0
7964,68.0,240.0,150.0,2.0,0.0
7965,51.0,0.0,150.0,4.0,0.0
7966,75.0,0.0,150.0,1.0,0.0
7967,56.0,204.0,150.0,5.0,0.0
7968,72.0,0.0,150.0,2.0,0.0
7969,63.0,0.0,150.0,2.0,0.0
7970,44.0,0.0,150.0,5.0,0.0
7971,43.0,84.0,150.0,5.0,0.0
7972,72.0,0.0,120.0,2.0,0.0
7973,55.0,0.0,150.0,5.0,0.0
7974,75.0,36.0,120.0,1.0,0.0
7975,63.0,156.0,120.0,2.0,0.0
7976,42.0,240.0,150.0,5.0,0.0
7977,54.0,0.0,150.0,5.0,0.0
7978,75.0,0.0,150.0,1.0,0.0
7979,72.0,0.0,150.0,2.0,0.0
7980,75.0,0.0,150.0,1.0,0.0
7981,72.0,0.0,150.0,2.0,0.0
7982,55.0,0.0,150.0,5.0,0.0
7983,43.0,240.0,150.0,5.0,0.0
7984,63.0,0.0,150.0,2.0,0.0
7985,74.0,240.0,150.0,1.0,0.0
7986,62.0,0.0,150.0,2.0,0.0
7987,70.0,0.0,150.0,2.0,0.0
7988,69.0,0.0,150.0,2.0,0.0
7989,60.0,240.0,150.0,2.0,0.0
7990,72.0,0.0,150.0,1.0,0.0
7991,48.0,0.0,150.0,5.0,0.0
7992,36.0,0.0,150.0,5.0,0.0
7993,70.0,0.0,150.0,1.0,0.0
7994,38.0,0.0,150.0,5.0,0.0
7995,50.0,0.0,150.0,5.0,0.0
7996,58.0,480.0,150.0,2.0,0.0
7997,38.0,0.0,150.0,5.0,0.0
7998,26.0,0.0,150.0,5.0,0.0
7999,57.0,0.0,150.0,2.0,0.0
8000,69.0,324.0,150.0,1.0,0.0
8001,66.0,0.0,150.0,2.0,0.0
8002,67.0,0.0,240.0,1.0,0.0
8003,43.0,0.0,240.0,5.0,0.0
8004,55.0,600.0,240.0,2.0,0.0
8005,31.0,0.0,240.0,5.0,0.0
8006,31.0,113.0,300.0,5.0,0.0
8007,55.0,7.0,270.0,5.0,0.0
8008,75.0,0.0,120.0,3.0,0.0
8009,87.0,120.0,120.0,3.0,0.0
8010,89.0,0.0,120.0,3.0,0.0
8011,45.0,0.0,150.0,5.0,0.0
8012,87.0,36.0,120.0,3.0,0.0
8013,75.0,0.0,120.0,3.0,0.0
8014,57.0,84.0,150.0,5.0,0.0
8015,89.0,120.0,120.0,3.0,0.0
8016,75.0,0.0,120.0,3.0,0.0
8017,58.0,84.0,150.0,5.0,0.0
8018,87.0,36.0,120.0,3.0,0.0
8019,46.0,0.0,150.0,5.0,0.0
8020,89.0,120.0,120.0,3.0,0.0
8021,75.0,0.0,120.0,3.0,0.0
8022,87.0,120.0,120.0,3.0,0.0
8023,54.0,120.0,240.0,5.0,0.0
8024,42.0,0.0,240.0,5.0,0.0
8025,89.0,0.0,120.0,3.0,0.0
8026,87.0,120.0,120.0,3.0,0.0
8027,75.0,0.0,120.0,3.0,0.0
8028,89.0,120.0,120.0,3.0,0.0
8029,75.0,0.0,120.0,3.0,0.0
8030,87.0,120.0,120.0,3.0,0.0
8031,89.0,120.0,120.0,3.0,0.0
8032,60.0,0.0,150.0,5.0,0.0
8033,75.0,36.0,120.0,3.0,0.0
8034,87.0,0.0,120.0,3.0,0.0
8035,63.0,84.0,150.0,5.0,0.0
8036,89.0,120.0,120.0,3.0,0.0
8037,75.0,36.0,120.0,3.0,0.0
8038,87.0,0.0,120.0,3.0,0.0
8039,62.0,0.0,150.0,5.0,0.0
8040,58.0,84.0,150.0,5.0,0.0
8041,89.0,120.0,120.0,3.0,0.0
8042,57.0,84.0,150.0,5.0,0.0
8043,75.0,0.0,120.0,3.0,0.0
8044,87.0,36.0,120.0,3.0,0.0
8045,60.0,0.0,150.0,5.0,0.0
8046,89.0,120.0,120.0,3.0,0.0
8047,54.0,117.0,270.0,5.0,0.0
8048,60.0,3.0,270.0,5.0,0.0
8049,75.0,120.0,120.0,3.0,0.0
8050,87.0,0.0,120.0,3.0,0.0
8051,69.0,0.0,240.0,5.0,0.0
8052,89.0,0.0,120.0,3.0,0.0
8053,75.0,0.0,120.0,3.0,0.0
8054,87.0,120.0,120.0,3.0,0.0
8055,89.0,120.0,120.0,3.0,0.0
8056,75.0,120.0,120.0,3.0,0.0
8057,87.0,0.0,120.0,3.0,0.0
8058,89.0,120.0,120.0,3.0,0.0
8059,75.0,0.0,120.0,3.0,0.0
8060,87.0,36.0,120.0,3.0,0.0
8061,57.0,0.0,150.0,5.0,0.0
8062,45.0,84.0,150.0,5.0,0.0
8063,89.0,120.0,120.0,3.0,0.0
8064,58.0,0.0,150.0,5.0,0.0
8065,46.0,84.0,150.0,5.0,0.0
8066,75.0,0.0,120.0,3.0,0.0
8067,87.0,36.0,120.0,3.0,0.0
8068,89.0,120.0,120.0,3.0,0.0
8069,48.0,0.0,150.0,5.0,0.0
8070,60.0,84.0,150.0,5.0,0.0
8071,75.0,0.0,120.0,3.0,0.0
8072,87.0,36.0,120.0,3.0,0.0
8073,89.0,120.0,120.0,3.0,0.0
8074,43.0,120.0,240.0,5.0,0.0
8075,55.0,0.0,240.0,5.0,0.0
8076,87.0,120.0,120.0,3.0,0.0
8077,75.0,0.0,120.0,3.0,0.0
8078,89.0,0.0,120.0,3.0,0.0
8079,87.0,0.0,120.0,3.0,0.0
8080,75.0,120.0,120.0,3.0,0.0
8081,89.0,120.0,120.0,3.0,0.0
8082,75.0,0.0,120.0,3.0,0.0
8083,87.0,120.0,120.0,3.0,0.0
8084,89.0,120.0,120.0,3.0,0.0
8085,67.0,84.0,150.0,5.0,0.0
8086,63.0,0.0,150.0,5.0,0.0
8087,75.0,36.0,120.0,3.0,0.0
8088,87.0,0.0,120.0,3.0,0.0
8089,89.0,120.0,120.0,3.0,0.0
8090,87.0,36.0,120.0,3.0,0.0
8091,75.0,0.0,120.0,3.0,0.0
8092,62.0,84.0,150.0,5.0,0.0
8093,65.0,0.0,150.0,5.0,0.0
8094,89.0,120.0,120.0,3.0,0.0
8095,87.0,36.0,120.0,3.0,0.0
8096,75.0,0.0,120.0,3.0,0.0
8097,60.0,84.0,150.0,5.0,0.0
8098,63.0,0.0,150.0,5.0,0.0
8099,89.0,120.0,120.0,3.0,0.0
8100,55.0,117.0,270.0,5.0,0.0
8101,63.0,4.0,270.0,5.0,0.0
8102,87.0,0.0,120.0,3.0,0.0
8103,75.0,116.0,120.0,3.0,0.0
8104,72.0,3.0,240.0,5.0,0.0
8105,89.0,0.0,120.0,3.0,0.0
8106,87.0,0.0,120.0,3.0,0.0
8107,75.0,120.0,120.0,3.0,0.0
8108,89.0,120.0,120.0,3.0,0.0
8109,75.0,120.0,120.0,3.0,0.0
8110,87.0,0.0,120.0,3.0,0.0
8111,89.0,120.0,120.0,3.0,0.0
8112,56.0,0.0,150.0,5.0,0.0
8113,44.0,84.0,150.0,5.0,0.0
8114,75.0,36.0,120.0,3.0,0.0
8115,87.0,0.0,120.0,3.0,0.0
8116,48.0,0.0,150.0,4.0,0.0
8117,51.0,0.0,150.0,4.0,0.0
8118,89.0,120.0,120.0,3.0,0.0
8119,75.0,120.0,120.0,3.0,0.0
8120,39.0,0.0,120.0,5.0,0.0
8121,87.0,0.0,120.0,3.0,0.0
8122,51.0,120.0,120.0,4.0,0.0
8123,44.0,0.0,120.0,5.0,0.0
8124,48.0,0.0,120.0,4.0,0.0
8125,89.0,0.0,120.0,3.0,0.0
8126,75.0,0.0,120.0,3.0,0.0
8127,87.0,36.0,120.0,3.0,0.0
8128,39.0,84.0,150.0,5.0,0.0
8129,89.0,120.0,120.0,3.0,0.0
8130,87.0,36.0,120.0,3.0,0.0
8131,75.0,0.0,120.0,3.0,0.0
8132,51.0,0.0,150.0,4.0,0.0
8133,48.0,0.0,150.0,4.0,0.0
8134,44.0,84.0,150.0,5.0,0.0
8135,89.0,120.0,120.0,3.0,0.0
8136,75.0,36.0,120.0,3.0,0.0
8137,87.0,0.0,120.0,3.0,0.0
8138,39.0,84.0,150.0,5.0,0.0
8139,89.0,120.0,120.0,3.0,0.0
8140,44.0,84.0,150.0,5.0,0.0
8141,75.0,0.0,120.0,3.0,0.0
8142,87.0,36.0,120.0,3.0,0.0
8143,51.0,0.0,150.0,4.0,0.0
8144,48.0,0.0,150.0,4.0,0.0
8145,89.0,120.0,120.0,3.0,0.0
8146,72.0,84.0,150.0,5.0,0.0
8147,80.0,0.0,240.0,2.0,0.0
8148,87.0,36.0,120.0,3.0,0.0
8149,84.0,0.0,240.0,2.0,0.0
8150,68.0,0.0,150.0,5.0,0.0
8151,89.0,120.0,120.0,3.0,0.0
8152,87.0,0.0,120.0,3.0,0.0
8153,63.0,0.0,120.0,5.0,0.0
8154,70.0,120.0,120.0,5.0,0.0
8155,79.0,0.0,240.0,2.0,0.0
8156,89.0,120.0,120.0,3.0,0.0
8157,68.0,0.0,120.0,5.0,0.0
8158,72.0,0.0,120.0,5.0,0.0
8159,82.0,0.0,15.0,2.0,0.0
8160,79.0,0.0,240.0,2.0,0.0
8161,70.0,84.0,150.0,5.0,0.0
8162,63.0,0.0,150.0,5.0,0.0
8163,87.0,36.0,120.0,3.0,0.0
8164,89.0,0.0,120.0,3.0,0.0
8165,87.0,36.0,120.0,3.0,0.0
8166,84.0,120.0,240.0,2.0,0.0
8167,80.0,0.0,240.0,2.0,0.0
8168,68.0,0.0,150.0,5.0,0.0
8169,72.0,84.0,150.0,5.0,0.0
8170,89.0,0.0,120.0,3.0,0.0
8171,87.0,36.0,120.0,3.0,0.0
8172,63.0,0.0,150.0,5.0,0.0
8173,70.0,84.0,150.0,5.0,0.0
8174,79.0,0.0,240.0,2.0,0.0
8175,82.0,0.0,240.0,2.0,0.0
8176,89.0,120.0,120.0,3.0,0.0
8177,87.0,36.0,120.0,3.0,0.0
8178,68.0,84.0,150.0,5.0,0.0
8179,72.0,0.0,150.0,5.0,0.0
8180,80.0,0.0,240.0,2.0,0.0
8181,84.0,0.0,240.0,2.0,0.0
8182,89.0,120.0,120.0,3.0,0.0
8183,75.0,0.0,120.0,3.0,0.0
8184,84.0,36.0,120.0,3.0,0.0
8185,87.0,0.0,120.0,3.0,0.0
8186,44.0,0.0,150.0,5.0,0.0
8187,56.0,84.0,150.0,5.0,0.0
8188,89.0,120.0,120.0,3.0,0.0
8189,84.0,36.0,120.0,3.0,0.0
8190,75.0,0.0,120.0,3.0,0.0
8191,55.0,84.0,150.0,5.0,0.0
8192,43.0,0.0,150.0,5.0,0.0
8193,87.0,0.0,120.0,3.0,0.0
8194,89.0,120.0,120.0,3.0,0.0
8195,54.0,84.0,150.0,5.0,0.0
8196,42.0,0.0,150.0,5.0,0.0
8197,75.0,0.0,120.0,3.0,0.0
8198,84.0,0.0,120.0,3.0,0.0
8199,87.0,36.0,120.0,3.0,0.0
8200,89.0,120.0,120.0,3.0,0.0
8201,84.0,0.0,120.0,3.0,0.0
8202,75.0,0.0,120.0,3.0,0.0
8203,87.0,36.0,120.0,3.0,0.0
8204,55.0,0.0,150.0,5.0,0.0
8205,43.0,84.0,150.0,5.0,0.0
8206,89.0,120.0,120.0,3.0,0.0
8207,82.0,0.0,120.0,3.0,0.0
8208,86.0,0.0,120.0,3.0,0.0
8209,74.0,120.0,120.0,3.0,0.0
8210,87.0,120.0,120.0,3.0,0.0
8211,72.0,0.0,120.0,3.0,0.0
8212,48.0,84.0,150.0,5.0,0.0
8213,36.0,0.0,150.0,5.0,0.0
8214,81.0,0.0,120.0,3.0,0.0
8215,84.0,36.0,120.0,3.0,0.0
8216,86.0,120.0,120.0,3.0,0.0
8217,82.0,0.0,120.0,3.0,0.0
8218,79.0,36.0,120.0,3.0,0.0
8219,70.0,0.0,120.0,3.0,0.0
8220,50.0,0.0,150.0,5.0,0.0
8221,38.0,84.0,150.0,5.0,0.0
8222,84.0,120.0,120.0,3.0,0.0
8223,79.0,120.0,120.0,3.0,0.0
8224,70.0,0.0,120.0,3.0,0.0
8225,82.0,0.0,120.0,3.0,0.0
8226,84.0,120.0,120.0,3.0,0.0
8227,81.0,36.0,120.0,3.0,0.0
8228,38.0,0.0,150.0,5.0,0.0
8229,26.0,84.0,150.0,5.0,0.0
8230,69.0,0.0,120.0,3.0,0.0
8231,78.0,0.0,120.0,3.0,0.0
8232,82.0,120.0,120.0,3.0,0.0
8233,43.0,0.0,150.0,5.0,0.0
8234,31.0,84.0,150.0,5.0,0.0
8235,67.0,36.0,120.0,3.0,0.0
8236,79.0,0.0,120.0,3.0,0.0
8237,81.0,120.0,120.0,3.0,0.0
8238,79.0,0.0,120.0,3.0,0.0
8239,67.0,120.0,120.0,3.0,0.0
8240,81.0,120.0,120.0,3.0,0.0
8241,67.0,0.0,120.0,3.0,0.0
8242,79.0,120.0,120.0,3.0,0.0
8243,81.0,120.0,120.0,3.0,0.0
8244,91.0,0.0,120.0,3.0,0.0
8245,79.0,36.0,120.0,3.0,0.0
8246,46.0,0.0,150.0,5.0,0.0
8247,58.0,84.0,150.0,5.0,0.0
8248,93.0,120.0,120.0,3.0,0.0
8249,48.0,84.0,150.0,5.0,0.0
8250,60.0,0.0,150.0,5.0,0.0
8251,91.0,0.0,120.0,3.0,0.0
8252,79.0,36.0,120.0,3.0,0.0
8253,93.0,120.0,120.0,3.0,0.0
8254,50.0,0.0,150.0,5.0,0.0
8255,91.0,36.0,120.0,3.0,0.0
8256,62.0,84.0,150.0,5.0,0.0
8257,79.0,0.0,120.0,3.0,0.0
8258,93.0,120.0,120.0,3.0,0.0
8259,45.0,0.0,240.0,5.0,0.0
8260,90.0,120.0,120.0,3.0,0.0
8261,78.0,0.0,120.0,3.0,0.0
8262,57.0,0.0,240.0,5.0,0.0
8263,91.0,120.0,120.0,3.0,0.0
8264,78.0,0.0,120.0,3.0,0.0
8265,90.0,120.0,120.0,3.0,0.0
8266,91.0,120.0,120.0,3.0,0.0
8267,78.0,0.0,120.0,3.0,0.0
8268,90.0,120.0,120.0,3.0,0.0
8269,91.0,120.0,120.0,3.0,0.0
8270,78.0,36.0,120.0,3.0,0.0
8271,90.0,0.0,120.0,3.0,0.0
8272,66.0,84.0,150.0,5.0,0.0
8273,63.0,0.0,150.0,5.0,0.0
8274,91.0,120.0,120.0,3.0,0.0
8275,90.0,0.0,120.0,3.0,0.0
8276,65.0,84.0,150.0,5.0,0.0
8277,78.0,36.0,120.0,3.0,0.0
8278,62.0,0.0,150.0,5.0,0.0
8279,91.0,120.0,120.0,3.0,0.0
8280,78.0,36.0,120.0,3.0,0.0
8281,90.0,0.0,120.0,3.0,0.0
8282,60.0,0.0,150.0,5.0,0.0
8283,63.0,84.0,150.0,5.0,0.0
8284,91.0,120.0,120.0,3.0,0.0
8285,57.0,4.0,270.0,5.0,0.0
8286,63.0,113.0,270.0,5.0,0.0
8287,90.0,0.0,120.0,3.0,0.0
8288,78.0,120.0,120.0,3.0,0.0
8289,72.0,0.0,240.0,5.0,0.0
8290,91.0,3.0,120.0,3.0,0.0
8291,78.0,120.0,120.0,3.0,0.0
8292,90.0,0.0,120.0,3.0,0.0
8293,91.0,120.0,120.0,3.0,0.0
8294,90.0,120.0,120.0,3.0,0.0
8295,78.0,0.0,120.0,3.0,0.0
8296,91.0,120.0,120.0,3.0,0.0
8297,78.0,0.0,120.0,3.0,0.0
8298,90.0,36.0,120.0,3.0,0.0
8299,36.0,0.0,150.0,5.0,0.0
8300,48.0,84.0,150.0,5.0,0.0
8301,92.0,120.0,120.0,3.0,0.0
8302,78.0,0.0,120.0,3.0,0.0
8303,90.0,36.0,120.0,3.0,0.0
8304,50.0,0.0,150.0,5.0,0.0
8305,38.0,84.0,150.0,5.0,0.0
8306,92.0,120.0,120.0,3.0,0.0
8307,39.0,84.0,150.0,5.0,0.0
8308,51.0,0.0,150.0,5.0,0.0
8309,78.0,36.0,120.0,3.0,0.0
8310,90.0,0.0,120.0,3.0,0.0
8311,92.0,120.0,120.0,3.0,0.0
8312,90.0,0.0,120.0,3.0,0.0
8313,78.0,120.0,120.0,3.0,0.0
8314,46.0,120.0,240.0,5.0,0.0
8315,34.0,0.0,240.0,5.0,0.0
8316,92.0,0.0,120.0,3.0,0.0
8317,78.0,120.0,120.0,3.0,0.0
8318,90.0,0.0,120.0,3.0,0.0
8319,92.0,120.0,120.0,3.0,0.0
8320,90.0,0.0,120.0,3.0,0.0
8321,78.0,120.0,120.0,3.0,0.0
8322,92.0,120.0,120.0,3.0,0.0
8323,70.0,0.0,150.0,5.0,0.0
8324,78.0,0.0,120.0,3.0,0.0
8325,90.0,36.0,120.0,3.0,0.0
8326,66.0,84.0,150.0,5.0,0.0
8327,92.0,120.0,120.0,3.0,0.0
8328,78.0,36.0,120.0,3.0,0.0
8329,90.0,0.0,120.0,3.0,0.0
8330,65.0,0.0,150.0,5.0,0.0
8331,68.0,84.0,150.0,5.0,0.0
8332,92.0,120.0,120.0,3.0,0.0
8333,78.0,36.0,120.0,3.0,0.0
8334,90.0,0.0,120.0,3.0,0.0
8335,66.0,0.0,150.0,5.0,0.0
8336,63.0,84.0,150.0,5.0,0.0
8337,92.0,120.0,120.0,3.0,0.0
8338,58.0,3.0,270.0,5.0,0.0
8339,66.0,117.0,270.0,5.0,0.0
8340,78.0,0.0,120.0,3.0,0.0
8341,90.0,120.0,120.0,3.0,0.0
8342,75.0,0.0,240.0,5.0,0.0
8343,92.0,0.0,120.0,3.0,0.0
8344,90.0,120.0,120.0,3.0,0.0
8345,78.0,0.0,120.0,3.0,0.0
8346,92.0,120.0,120.0,3.0,0.0
8347,78.0,0.0,120.0,3.0,0.0
8348,90.0,120.0,120.0,3.0,0.0
8349,92.0,120.0,120.0,3.0,0.0
8350,90.0,0.0,120.0,3.0,0.0
8351,59.0,84.0,150.0,5.0,0.0
8352,47.0,0.0,150.0,5.0,0.0
8353,54.0,0.0,150.0,5.0,0.0
8354,51.0,0.0,150.0,5.0,0.0
8355,78.0,36.0,120.0,3.0,0.0
8356,92.0,120.0,120.0,3.0,0.0
8357,42.0,0.0,120.0,5.0,0.0
8358,78.0,120.0,120.0,3.0,0.0
8359,90.0,0.0,120.0,3.0,0.0
8360,92.0,120.0,120.0,3.0,0.0
8361,47.0,0.0,120.0,5.0,0.0
8362,54.0,0.0,120.0,5.0,0.0
8363,51.0,0.0,120.0,5.0,0.0
8364,78.0,36.0,120.0,3.0,0.0
8365,90.0,0.0,120.0,3.0,0.0
8366,42.0,84.0,150.0,5.0,0.0
8367,92.0,120.0,120.0,3.0,0.0
8368,78.0,36.0,120.0,3.0,0.0
8369,54.0,84.0,150.0,5.0,0.0
8370,90.0,0.0,120.0,3.0,0.0
8371,51.0,0.0,150.0,5.0,0.0
8372,47.0,0.0,150.0,5.0,0.0
8373,92.0,120.0,120.0,3.0,0.0
8374,90.0,0.0,120.0,3.0,0.0
8375,42.0,84.0,150.0,5.0,0.0
8376,78.0,36.0,120.0,3.0,0.0
8377,92.0,120.0,120.0,3.0,0.0
8378,54.0,0.0,150.0,5.0,0.0
8379,47.0,84.0,150.0,5.0,0.0
8380,51.0,0.0,150.0,5.0,0.0
8381,78.0,36.0,120.0,3.0,0.0
8382,90.0,0.0,120.0,3.0,0.0
8383,92.0,120.0,120.0,3.0,0.0
8384,87.0,120.0,240.0,3.0,0.0
8385,90.0,36.0,120.0,3.0,0.0
8386,83.0,0.0,240.0,3.0,0.0
8387,75.0,0.0,150.0,5.0,0.0
8388,71.0,84.0,150.0,5.0,0.0
8389,92.0,0.0,120.0,3.0,0.0
8390,90.0,120.0,120.0,3.0,0.0
8391,66.0,0.0,120.0,5.0,0.0
8392,73.0,0.0,120.0,5.0,0.0
8393,71.0,0.0,120.0,5.0,0.0
8394,75.0,0.0,120.0,5.0,0.0
8395,92.0,0.0,120.0,3.0,0.0
8396,73.0,0.0,150.0,5.0,0.0
8397,82.0,0.0,15.0,3.0,0.0
8398,85.0,120.0,15.0,3.0,0.0
8399,66.0,84.0,150.0,5.0,0.0
8400,90.0,36.0,120.0,3.0,0.0
8401,92.0,120.0,120.0,3.0,0.0
8402,87.0,0.0,240.0,3.0,0.0
8403,90.0,36.0,120.0,3.0,0.0
8404,75.0,84.0,150.0,5.0,0.0
8405,71.0,0.0,150.0,5.0,0.0
8406,83.0,120.0,240.0,3.0,0.0
8407,92.0,0.0,120.0,3.0,0.0
8408,82.0,0.0,240.0,3.0,0.0
8409,85.0,0.0,240.0,3.0,0.0
8410,90.0,36.0,120.0,3.0,0.0
8411,66.0,84.0,150.0,5.0,0.0
8412,73.0,0.0,150.0,5.0,0.0
8413,92.0,120.0,120.0,3.0,0.0
8414,71.0,84.0,150.0,5.0,0.0
8415,75.0,0.0,150.0,5.0,0.0
8416,90.0,36.0,120.0,3.0,0.0
8417,83.0,0.0,240.0,3.0,0.0
8418,92.0,120.0,120.0,3.0,0.0
8419,90.0,0.0,120.0,3.0,0.0
8420,87.0,0.0,15.0,3.0,0.0
8421,78.0,0.0,120.0,3.0,0.0
8422,60.0,84.0,150.0,5.0,0.0
8423,48.0,0.0,150.0,5.0,0.0
8424,91.0,120.0,120.0,3.0,0.0
8425,46.0,0.0,150.0,5.0,0.0
8426,58.0,84.0,150.0,5.0,0.0
8427,78.0,0.0,120.0,3.0,0.0
8428,87.0,0.0,120.0,3.0,0.0
8429,90.0,36.0,120.0,3.0,0.0
8430,91.0,120.0,120.0,3.0,0.0
8431,57.0,84.0,150.0,5.0,0.0
8432,45.0,0.0,150.0,5.0,0.0
8433,78.0,36.0,120.0,3.0,0.0
8434,87.0,0.0,120.0,3.0,0.0
8435,90.0,0.0,120.0,3.0,0.0
8436,91.0,120.0,120.0,3.0,0.0
8437,90.0,0.0,120.0,3.0,0.0
8438,45.0,84.0,150.0,5.0,0.0
8439,87.0,36.0,120.0,3.0,0.0
8440,78.0,0.0,120.0,3.0,0.0
8441,57.0,0.0,150.0,5.0,0.0
8442,91.0,120.0,120.0,3.0,0.0
8443,77.0,0.0,120.0,3.0,0.0
8444,89.0,0.0,120.0,3.0,0.0
8445,86.0,36.0,120.0,3.0,0.0
8446,59.0,84.0,150.0,5.0,0.0
8447,47.0,0.0,150.0,5.0,0.0
8448,91.0,120.0,120.0,3.0,0.0
8449,84.0,36.0,120.0,3.0,0.0
8450,87.0,0.0,120.0,3.0,0.0
8451,75.0,0.0,120.0,3.0,0.0
8452,48.0,84.0,150.0,5.0,0.0
8453,60.0,0.0,150.0,5.0,0.0
8454,89.0,120.0,120.0,3.0,0.0
8455,74.0,36.0,120.0,3.0,0.0
8456,50.0,84.0,150.0,5.0,0.0
8457,62.0,0.0,150.0,5.0,0.0
8458,83.0,0.0,120.0,3.0,0.0
8459,86.0,0.0,120.0,3.0,0.0
8460,87.0,120.0,120.0,3.0,0.0
8461,74.0,120.0,120.0,3.0,0.0
8462,83.0,0.0,120.0,3.0,0.0
8463,86.0,0.0,120.0,3.0,0.0
8464,87.0,120.0,120.0,3.0,0.0
8465,38.0,84.0,150.0,5.0,0.0
8466,50.0,0.0,150.0,5.0,0.0
8467,86.0,36.0,120.0,3.0,0.0
8468,74.0,0.0,120.0,3.0,0.0
8469,83.0,0.0,120.0,3.0,0.0
8470,87.0,120.0,120.0,3.0,0.0
8471,86.0,120.0,120.0,3.0,0.0
8472,74.0,0.0,120.0,3.0,0.0
8473,87.0,120.0,120.0,3.0,0.0
8474,86.0,0.0,120.0,3.0,0.0
8475,74.0,120.0,120.0,3.0,0.0
8476,87.0,120.0,120.0,3.0,0.0
8477,50.0,0.0,150.0,5.0,0.0
8478,38.0,84.0,150.0,5.0,0.0
8479,86.0,36.0,120.0,3.0,0.0
8480,74.0,0.0,120.0,3.0,0.0
8481,81.0,0.0,120.0,3.0,0.0
8482,87.0,120.0,120.0,3.0,0.0
8483,72.0,0.0,120.0,3.0,0.0
8484,84.0,0.0,120.0,3.0,0.0
8485,42.0,84.0,150.0,5.0,0.0
8486,54.0,0.0,150.0,5.0,0.0
8487,81.0,36.0,120.0,3.0,0.0
8488,86.0,120.0,120.0,3.0,0.0
8489,55.0,0.0,150.0,5.0,0.0
8490,79.0,36.0,120.0,3.0,0.0
8491,82.0,0.0,120.0,3.0,0.0
8492,70.0,0.0,120.0,3.0,0.0
8493,43.0,84.0,150.0,5.0,0.0
8494,84.0,120.0,120.0,3.0,0.0
8495,78.0,0.0,120.0,3.0,0.0
8496,81.0,36.0,120.0,3.0,0.0
8497,45.0,0.0,150.0,5.0,0.0
8498,69.0,0.0,120.0,3.0,0.0
8499,57.0,84.0,150.0,5.0,0.0
8500,82.0,120.0,120.0,3.0,0.0
8501,67.0,0.0,120.0,3.0,0.0
8502,79.0,0.0,120.0,3.0,0.0
8503,46.0,0.0,150.0,5.0,0.0
8504,75.0,36.0,120.0,3.0,0.0
8505,58.0,84.0,150.0,5.0,0.0
8506,81.0,120.0,120.0,3.0,0.0
8507,59.0,84.0,150.0,5.0,0.0
8508,47.0,0.0,150.0,5.0,0.0
8509,65.0,0.0,120.0,3.0,0.0
8510,77.0,36.0,120.0,3.0,0.0
8511,74.0,0.0,120.0,3.0,0.0
8512,79.0,120.0,120.0,3.0,0.0
8513,72.0,36.0,120.0,3.0,0.0
8514,75.0,0.0,120.0,3.0,0.0
8515,63.0,0.0,120.0,3.0,0.0
8516,60.0,0.0,150.0,5.0,0.0
8517,48.0,84.0,150.0,5.0,0.0
8518,77.0,120.0,120.0,3.0,0.0
8519,50.0,0.0,150.0,5.0,0.0
8520,62.0,84.0,150.0,5.0,0.0
8521,74.0,0.0,120.0,3.0,0.0
8522,70.0,36.0,120.0,3.0,0.0
8523,62.0,0.0,120.0,3.0,0.0
8524,75.0,120.0,120.0,3.0,0.0
8525,74.0,0.0,120.0,3.0,0.0
8526,62.0,0.0,120.0,3.0,0.0
8527,70.0,120.0,120.0,3.0,0.0
8528,75.0,120.0,120.0,3.0,0.0
8529,69.0,0.0,120.0,3.0,0.0
8530,62.0,0.0,120.0,3.0,0.0
8531,74.0,36.0,120.0,3.0,0.0
8532,50.0,84.0,150.0,5.0,0.0
8533,38.0,0.0,150.0,5.0,0.0
8534,75.0,120.0,120.0,3.0,0.0
8535,62.0,120.0,120.0,3.0,0.0
8536,74.0,0.0,120.0,3.0,0.0
8537,75.0,120.0,120.0,3.0,0.0
8538,62.0,120.0,120.0,3.0,0.0
8539,74.0,0.0,120.0,3.0,0.0
8540,75.0,120.0,120.0,3.0,0.0
8541,74.0,0.0,120.0,3.0,0.0
8542,69.0,36.0,120.0,3.0,0.0
8543,50.0,0.0,150.0,5.0,0.0
8544,38.0,84.0,150.0,5.0,0.0
8545,62.0,0.0,120.0,3.0,0.0
8546,75.0,120.0,120.0,3.0,0.0
8547,62.0,120.0,120.0,3.0,0.0
8548,74.0,0.0,120.0,3.0,0.0
8549,75.0,120.0,120.0,3.0,0.0
8550,62.0,120.0,120.0,3.0,0.0
8551,74.0,0.0,120.0,3.0,0.0
8552,75.0,120.0,120.0,3.0,0.0
8553,26.0,84.0,150.0,5.0,0.0
8554,74.0,0.0,120.0,3.0,0.0
8555,38.0,0.0,150.0,5.0,0.0
8556,62.0,36.0,120.0,3.0,0.0
8557,75.0,120.0,120.0,3.0,0.0
8558,62.0,120.0,120.0,3.0,0.0
8559,74.0,0.0,120.0,3.0,0.0
8560,75.0,120.0,120.0,3.0,0.0
8561,74.0,0.0,120.0,3.0,0.0
8562,62.0,120.0,120.0,3.0,0.0
8563,75.0,120.0,120.0,3.0,0.0
8564,74.0,36.0,120.0,3.0,0.0
8565,26.0,84.0,150.0,5.0,0.0
8566,38.0,0.0,150.0,5.0,0.0
8567,62.0,0.0,120.0,3.0,0.0
8568,75.0,120.0,120.0,3.0,0.0
8569,74.0,120.0,120.0,3.0,0.0
8570,75.0,120.0,120.0,3.0,0.0
8571,74.0,120.0,120.0,3.0,0.0
8572,75.0,120.0,120.0,3.0,0.0
8573,74.0,120.0,120.0,3.0,0.0
8574,75.0,120.0,120.0,3.0,0.0
8575,74.0,120.0,120.0,3.0,0.0
8576,75.0,120.0,120.0,3.0,0.0
8577,74.0,120.0,120.0,3.0,0.0
8578,75.0,120.0,120.0,3.0,0.0
8579,74.0,120.0,120.0,3.0,0.0
8580,75.0,80.0,120.0,3.0,0.0
8581,74.0,80.0,90.0,3.0,0.0
8582,76.0,80.0,90.0,3.0,0.0
8583,74.0,80.0,90.0,3.0,0.0
8584,76.0,80.0,90.0,3.0,0.0
8585,74.0,80.0,90.0,3.0,0.0
8586,76.0,80.0,90.0,3.0,0.0
8587,74.0,80.0,90.0,3.0,0.0
8588,76.0,80.0,90.0,3.0,0.0
8589,74.0,80.0,90.0,3.0,0.0
8590,76.0,76.0,90.0,3.0,0.0
8591,62.0,4.0,150.0,1.0,0.0
8592,50.0,0.0,150.0,5.0,0.0
8593,74.0,80.0,90.0,3.0,0.0
8594,76.0,80.0,90.0,3.0,0.0
8595,67.0,4.0,150.0,1.0,0.0
8596,55.0,0.0,150.0,5.0,0.0
8597,47.0,0.0,150.0,5.0,0.0
8598,74.0,76.0,90.0,3.0,0.0
8599,76.0,80.0,90.0,3.0,0.0
8600,74.0,80.0,90.0,3.0,0.0
8601,69.0,0.0,150.0,1.0,0.0
8602,50.0,0.0,150.0,5.0,0.0
8603,57.0,4.0,150.0,5.0,0.0
8604,76.0,76.0,90.0,3.0,0.0
8605,74.0,80.0,90.0,3.0,0.0
8606,76.0,80.0,90.0,3.0,0.0
8607,74.0,80.0,90.0,3.0,0.0
8608,76.0,80.0,90.0,3.0,0.0
8609,74.0,80.0,90.0,3.0,0.0
8610,76.0,80.0,90.0,3.0,0.0
8611,74.0,80.0,90.0,3.0,0.0
8612,31.0,55.0,300.0,5.0,0.0
8613,76.0,80.0,90.0,3.0,0.0
8614,74.0,80.0,90.0,3.0,0.0
8615,38.0,5.0,180.0,5.0,0.0
8616,76.0,20.0,90.0,3.0,0.0
8617,74.0,0.0,90.0,3.0,0.0
8618,71.0,80.0,15.0,1.0,0.0
8619,76.0,80.0,90.0,3.0,0.0
8620,59.0,0.0,15.0,5.0,0.0
8621,55.0,0.0,15.0,5.0,0.0
8622,74.0,80.0,90.0,3.0,0.0
8623,76.0,80.0,90.0,3.0,0.0
8624,74.0,80.0,90.0,3.0,0.0
8625,76.0,80.0,90.0,3.0,0.0
8626,31.0,55.0,300.0,5.0,0.0
8627,74.0,80.0,90.0,3.0,0.0
8628,38.0,5.0,180.0,5.0,0.0
8629,76.0,80.0,90.0,3.0,0.0
8630,74.0,20.0,90.0,3.0,0.0
8631,76.0,0.0,90.0,3.0,0.0
8632,74.0,80.0,90.0,3.0,0.0
8633,55.0,60.0,180.0,5.0,0.0
8634,71.0,80.0,15.0,1.0,0.0
8635,59.0,0.0,15.0,5.0,0.0
8636,76.0,20.0,90.0,3.0,0.0
8637,74.0,80.0,90.0,3.0,0.0
8638,76.0,80.0,90.0,3.0,0.0
8639,74.0,80.0,90.0,3.0,0.0
8640,69.0,80.0,120.0,1.0,0.0
8641,57.0,0.0,120.0,5.0,0.0
8642,54.0,0.0,120.0,5.0,0.0
8643,76.0,0.0,90.0,3.0,0.0
8644,55.0,0.0,180.0,5.0,0.0
8645,59.0,0.0,180.0,5.0,0.0
8646,74.0,80.0,90.0,3.0,0.0
8647,71.0,60.0,180.0,1.0,0.0
8648,76.0,20.0,90.0,3.0,0.0
8649,74.0,80.0,90.0,3.0,0.0
8650,71.0,0.0,180.0,1.0,0.0
8651,76.0,80.0,90.0,3.0,0.0
8652,59.0,0.0,180.0,5.0,0.0
8653,55.0,60.0,180.0,5.0,0.0
8654,74.0,20.0,90.0,3.0,0.0
8655,76.0,80.0,90.0,3.0,0.0
8656,74.0,80.0,90.0,3.0,0.0
8657,76.0,80.0,90.0,3.0,0.0
8658,69.0,80.0,120.0,1.0,0.0
8659,57.0,0.0,120.0,5.0,0.0
8660,54.0,0.0,120.0,5.0,0.0
8661,74.0,0.0,90.0,3.0,0.0
8662,55.0,0.0,180.0,5.0,0.0
8663,71.0,60.0,180.0,1.0,0.0
8664,59.0,0.0,180.0,5.0,0.0
8665,76.0,80.0,90.0,3.0,0.0
8666,74.0,20.0,90.0,3.0,0.0
8667,76.0,160.0,90.0,3.0,0.0
8668,62.0,0.0,480.0,5.0,0.0
8669,74.0,0.0,1440.0,1.0,0.0
8670,76.0,80.0,90.0,3.0,0.0
8671,74.0,80.0,90.0,3.0,0.0
8672,76.0,80.0,90.0,3.0,0.0
8673,74.0,80.0,90.0,3.0,0.0
8674,76.0,80.0,90.0,3.0,0.0
8675,55.0,0.0,240.0,5.0,0.0
8676,59.0,0.0,15.0,5.0,0.0
8677,71.0,0.0,240.0,1.0,0.0
8678,74.0,80.0,90.0,3.0,0.0
8679,76.0,80.0,90.0,3.0,0.0
8680,74.0,80.0,90.0,3.0,0.0
8681,54.0,0.0,720.0,5.0,0.0
8682,69.0,0.0,720.0,1.0,0.0
8683,50.0,0.0,15.0,5.0,0.0
8684,57.0,0.0,720.0,5.0,0.0
8685,76.0,80.0,90.0,3.0,0.0
8686,74.0,80.0,90.0,3.0,0.0
8687,76.0,80.0,90.0,3.0,0.0
8688,74.0,80.0,90.0,3.0,0.0
8689,76.0,80.0,90.0,3.0,0.0
8690,26.0,0.0,300.0,5.0,0.0
8691,74.0,80.0,90.0,3.0,0.0
8692,76.0,80.0,90.0,3.0,0.0
8693,38.0,60.0,180.0,5.0,0.0
8694,74.0,20.0,90.0,3.0,0.0
8695,76.0,0.0,90.0,3.0,0.0
8696,86.0,0.0,480.0,1.0,0.0
8697,74.0,0.0,1440.0,2.0,0.0
8698,70.0,0.0,480.0,5.0,0.0
8699,76.0,80.0,90.0,3.0,0.0
8700,74.0,80.0,90.0,3.0,0.0
8701,76.0,80.0,90.0,3.0,0.0
8702,74.0,80.0,90.0,3.0,0.0
8703,76.0,0.0,90.0,3.0,0.0
8704,74.0,80.0,90.0,3.0,0.0
8705,62.0,80.0,15.0,5.0,0.0
8706,82.0,80.0,240.0,1.0,0.0
8707,67.0,0.0,240.0,5.0,0.0
8708,76.0,80.0,90.0,3.0,0.0
8709,74.0,0.0,90.0,3.0,0.0
8710,81.0,0.0,480.0,1.0,0.0
8711,66.0,0.0,480.0,5.0,0.0
8712,62.0,80.0,480.0,5.0,0.0
8713,76.0,80.0,90.0,3.0,0.0
8714,74.0,80.0,90.0,3.0,0.0
8715,76.0,80.0,90.0,3.0,0.0
8716,74.0,80.0,90.0,3.0,0.0
8717,76.0,80.0,90.0,3.0,0.0
8718,74.0,0.0,90.0,3.0,0.0
8719,76.0,80.0,90.0,3.0,0.0
8720,38.0,70.0,240.0,5.0,0.0
8721,74.0,80.0,90.0,3.0,0.0
8722,50.0,10.0,120.0,5.0,0.0
8723,76.0,0.0,90.0,3.0,0.0
8724,74.0,76.0,90.0,2.0,0.0
8725,63.0,0.0,150.0,5.0,0.0
8726,51.0,4.0,150.0,5.0,0.0
8727,76.0,80.0,90.0,2.0,0.0
8728,74.0,80.0,90.0,2.0,0.0
8729,53.0,0.0,150.0,5.0,0.0
8730,76.0,76.0,90.0,2.0,0.0
8731,65.0,4.0,150.0,5.0,0.0
8732,74.0,80.0,90.0,2.0,0.0
8733,76.0,80.0,90.0,2.0,0.0
8734,54.0,0.0,150.0,5.0,0.0
8735,66.0,4.0,150.0,5.0,0.0
8736,74.0,76.0,90.0,2.0,0.0
8737,76.0,80.0,90.0,2.0,0.0
8738,74.0,80.0,90.0,2.0,0.0
8739,60.0,0.0,150.0,5.0,0.0
8740,76.0,76.0,90.0,2.0,0.0
8741,48.0,4.0,150.0,5.0,0.0
8742,74.0,80.0,90.0,2.0,0.0
8743,76.0,80.0,90.0,2.0,0.0
8744,74.0,76.0,90.0,2.0,0.0
8745,62.0,0.0,150.0,5.0,0.0
8746,50.0,4.0,150.0,5.0,0.0
8747,76.0,80.0,90.0,2.0,0.0
8748,74.0,80.0,90.0,2.0,0.0
8749,51.0,0.0,150.0,5.0,0.0
8750,63.0,4.0,150.0,5.0,0.0
8751,76.0,76.0,90.0,2.0,0.0
8752,74.0,80.0,90.0,2.0,0.0
8753,76.0,80.0,90.0,2.0,0.0
8754,74.0,76.0,90.0,2.0,0.0
8755,57.0,0.0,150.0,5.0,0.0
8756,45.0,4.0,150.0,5.0,0.0
8757,76.0,80.0,90.0,2.0,0.0
8758,74.0,80.0,90.0,2.0,0.0
8759,76.0,76.0,90.0,2.0,0.0
8760,58.0,4.0,150.0,5.0,0.0
8761,46.0,0.0,150.0,5.0,0.0
8762,74.0,80.0,90.0,2.0,0.0
8763,76.0,80.0,90.0,2.0,0.0
8764,48.0,0.0,150.0,5.0,0.0
8765,60.0,4.0,150.0,5.0,0.0
8766,74.0,76.0,90.0,2.0,0.0
8767,76.0,80.0,90.0,2.0,0.0
8768,74.0,80.0,90.0,2.0,0.0
8769,76.0,76.0,90.0,2.0,0.0
8770,54.0,0.0,150.0,5.0,0.0
8771,42.0,4.0,150.0,5.0,0.0
8772,74.0,80.0,90.0,2.0,0.0
8773,76.0,80.0,90.0,2.0,0.0
8774,74.0,76.0,90.0,2.0,0.0
8775,55.0,4.0,150.0,5.0,0.0
8776,43.0,0.0,150.0,5.0,0.0
8777,76.0,80.0,90.0,2.0,0.0
8778,74.0,80.0,90.0,2.0,0.0
8779,57.0,0.0,150.0,5.0,0.0
8780,76.0,76.0,90.0,2.0,0.0
8781,45.0,4.0,150.0,5.0,0.0
8782,74.0,80.0,90.0,2.0,0.0
8783,76.0,156.0,90.0,2.0,0.0
8784,74.0,0.0,150.0,2.0,0.0
8785,86.0,0.0,150.0,1.0,0.0
8786,38.0,0.0,150.0,5.0,0.0
8787,50.0,240.0,150.0,5.0,0.0
8788,51.0,0.0,150.0,5.0,0.0
8789,75.0,0.0,150.0,2.0,0.0
8790,39.0,240.0,150.0,5.0,0.0
8791,87.0,0.0,150.0,1.0,0.0
8792,86.0,240.0,150.0,1.0,0.0
8793,50.0,0.0,150.0,5.0,0.0
8794,74.0,0.0,150.0,2.0,0.0
8795,38.0,0.0,150.0,5.0,0.0
8796,84.0,0.0,150.0,1.0,0.0
8797,72.0,240.0,150.0,2.0,0.0
8798,36.0,0.0,150.0,5.0,0.0
8799,48.0,0.0,150.0,5.0,0.0
8800,82.0,0.0,150.0,1.0,0.0
8801,46.0,0.0,150.0,5.0,0.0
8802,34.0,0.0,150.0,5.0,0.0
8803,70.0,240.0,150.0,2.0,0.0
8804,69.0,324.0,150.0,2.0,0.0
8805,81.0,0.0,150.0,1.0,0.0
8806,33.0,0.0,150.0,5.0,0.0
8807,45.0,0.0,150.0,5.0,0.0
8808,31.0,0.0,240.0,5.0,0.0
8809,43.0,2520.0,240.0,5.0,0.0
8810,79.0,0.0,240.0,1.0,0.0
8811,67.0,0.0,240.0,2.0,0.0
8812,50.0,0.0,360.0,5.0,0.0
8813,62.0,1080.0,360.0,5.0,0.0
8814,74.0,0.0,360.0,1.0,0.0
8815,72.0,0.0,960.0,1.0,0.0
8816,60.0,360.0,960.0,5.0,0.0
8817,48.0,0.0,960.0,5.0,0.0
8818,41.0,0.0,360.0,5.0,0.0
8819,53.0,0.0,360.0,5.0,0.0
8820,65.0,480.0,360.0,1.0,0.0
8821,55.0,0.0,360.0,5.0,0.0
8822,67.0,0.0,360.0,1.0,0.0
8823,43.0,1560.0,360.0,5.0,0.0
8824,48.0,0.0,1440.0,5.0,0.0
8825,60.0,0.0,1440.0,1.0,0.0
8826,36.0,360.0,1440.0,5.0,0.0
8827,38.0,0.0,360.0,5.0,0.0
8828,62.0,1080.0,360.0,1.0,0.0
8829,36.0,0.0,960.0,5.0,0.0
8830,60.0,360.0,960.0,1.0,0.0
8831,29.0,0.0,360.0,5.0,0.0
8832,53.0,480.0,360.0,1.0,0.0
8833,55.0,1560.0,360.0,1.0,0.0
8834,31.0,0.0,360.0,5.0,0.0
8835,48.0,240.0,1440.0,1.0,0.0
8836,24.0,0.0,1440.0,5.0,0.0
8837,36.0,0.0,1440.0,5.0,0.0
8838,60.0,240.0,240.0,1.0,0.0
8839,57.0,475.0,480.0,5.0,0.0
8840,65.0,245.0,720.0,1.0,0.0
8841,58.0,0.0,960.0,5.0,0.0
8842,55.0,0.0,960.0,5.0,0.0
8843,64.0,240.0,240.0,1.0,0.0
8844,67.0,240.0,720.0,1.0,0.0
8845,60.0,0.0,960.0,5.0,0.0
8846,57.0,0.0,960.0,5.0,0.0
8847,36.0,0.0,15.0,4.0,0.0
8848,24.0,480.0,15.0,4.0,0.0
8849,65.0,240.0,240.0,1.0,0.0
8850,69.0,240.0,720.0,1.0,0.0
8851,59.0,0.0,960.0,5.0,0.0
8852,62.0,80.0,960.0,5.0,0.0
8853,36.0,0.0,960.0,4.0,0.0
8854,24.0,480.0,15.0,4.0,0.0
8855,67.0,240.0,240.0,1.0,0.0
8856,77.0,0.0,240.0,1.0,0.0
8857,76.0,80.0,90.0,1.0,0.0
8858,24.0,0.0,90.0,5.0,0.0
8859,36.0,0.0,90.0,5.0,0.0
8860,72.0,80.0,90.0,1.0,0.0
8861,48.0,80.0,90.0,5.0,0.0
8862,74.0,0.0,90.0,1.0,0.0
8863,72.0,40.0,90.0,1.0,0.0
8864,55.0,40.0,120.0,5.0,0.0
8865,74.0,80.0,90.0,1.0,0.0
8866,60.0,0.0,120.0,5.0,0.0
8867,72.0,60.0,90.0,1.0,0.0
8868,74.0,60.0,60.0,1.0,0.0
8869,64.0,30.0,1770.0,5.0,0.0
8870,72.0,60.0,60.0,1.0,0.0
8871,74.0,60.0,60.0,1.0,0.0
8872,72.0,60.0,60.0,1.0,0.0
8873,74.0,60.0,60.0,1.0,0.0
8874,72.0,60.0,60.0,1.0,0.0
8875,74.0,60.0,60.0,1.0,0.0
8876,72.0,60.0,60.0,1.0,0.0
8877,74.0,60.0,60.0,1.0,0.0
8878,72.0,60.0,60.0,1.0,0.0
8879,74.0,60.0,60.0,1.0,0.0
8880,72.0,60.0,60.0,1.0,0.0
8881,74.0,60.0,60.0,1.0,0.0
8882,72.0,60.0,60.0,1.0,0.0
8883,74.0,60.0,60.0,1.0,0.0
8884,72.0,60.0,60.0,1.0,0.0
8885,74.0,60.0,60.0,1.0,0.0
8886,72.0,60.0,60.0,1.0,0.0
8887,74.0,60.0,60.0,1.0,0.0
8888,72.0,60.0,60.0,1.0,0.0
8889,74.0,60.0,60.0,1.0,0.0
8890,72.0,60.0,60.0,1.0,0.0
8891,74.0,60.0,60.0,1.0,0.0
8892,72.0,60.0,60.0,1.0,0.0
8893,74.0,60.0,60.0,1.0,0.0
8894,72.0,60.0,60.0,1.0,0.0
8895,74.0,60.0,60.0,1.0,0.0
8896,72.0,60.0,60.0,1.0,0.0
8897,74.0,30.0,60.0,1.0,0.0
8898,72.0,208.0,60.0,1.0,0.0
8899,71.0,58.0,210.0,1.0,0.0
8900,72.0,57.0,210.0,1.0,0.0
8901,74.0,58.0,210.0,1.0,0.0
8902,76.0,57.0,210.0,1.0,0.0
8903,77.0,58.0,210.0,1.0,0.0
8904,79.0,44.0,210.0,1.0,0.0
8905,81.0,115.0,180.0,1.0,0.0
8906,83.0,13.0,120.0,1.0,0.0
8907,84.0,14.0,180.0,1.0,0.0
8908,83.0,101.0,150.0,1.0,0.0
8909,81.0,58.0,180.0,1.0,0.0
8910,79.0,57.0,180.0,1.0,0.0
8911,77.0,58.0,180.0,1.0,0.0
8912,76.0,57.0,180.0,1.0,0.0
8913,74.0,58.0,180.0,1.0,0.0
8914,72.0,57.0,180.0,1.0,0.0
8915,71.0,58.0,180.0,1.0,0.0
8916,69.0,57.0,180.0,1.0,0.0
8917,67.0,58.0,150.0,1.0,0.0
8918,65.0,57.0,150.0,1.0,0.0
8919,64.0,58.0,150.0,1.0,0.0
8920,62.0,57.0,150.0,1.0,0.0
8921,60.0,58.0,150.0,1.0,0.0
8922,59.0,57.0,150.0,1.0,0.0
8923,57.0,58.0,150.0,1.0,0.0
8924,55.0,57.0,150.0,1.0,0.0
8925,53.0,58.0,150.0,1.0,0.0
8926,52.0,57.0,150.0,1.0,0.0
8927,50.0,58.0,150.0,1.0,0.0
8928,48.0,57.0,150.0,1.0,0.0
8929,47.0,58.0,120.0,1.0,0.0
8930,45.0,57.0,120.0,1.0,0.0
8931,43.0,58.0,120.0,1.0,0.0
8932,41.0,57.0,120.0,1.0,0.0
8933,40.0,58.0,120.0,1.0,0.0
8934,38.0,299.0,120.0,1.0,0.0
8935,36.0,1800.0,360.0,1.0,0.0
8936,72.0,0.0,360.0,1.0,0.0
8937,48.0,1080.0,360.0,5.0,0.0
8938,60.0,0.0,360.0,5.0,0.0
8939,46.0,0.0,960.0,5.0,0.0
8940,58.0,0.0,960.0,5.0,0.0
8941,70.0,360.0,960.0,1.0,0.0
8942,51.0,0.0,360.0,5.0,0.0
8943,63.0,480.0,360.0,1.0,0.0
8944,39.0,0.0,360.0,5.0,0.0
8945,53.0,0.0,360.0,5.0,0.0
8946,41.0,0.0,360.0,5.0,0.0
8947,65.0,1560.0,360.0,1.0,0.0
8948,58.0,0.0,1440.0,1.0,0.0
8949,46.0,360.0,1440.0,5.0,0.0
8950,34.0,0.0,1440.0,5.0,0.0
8951,60.0,0.0,360.0,1.0,0.0
8952,36.0,1080.0,360.0,5.0,0.0
8953,34.0,0.0,960.0,5.0,0.0
8954,58.0,360.0,960.0,1.0,0.0
8955,27.0,0.0,360.0,5.0,0.0
8956,51.0,480.0,360.0,1.0,0.0
8957,29.0,1560.0,360.0,5.0,0.0
8958,53.0,0.0,360.0,1.0,0.0
8959,34.0,0.0,1920.0,5.0,0.0
8960,22.0,0.0,1920.0,5.0,0.0
8961,46.0,240.0,1440.0,1.0,0.0
8962,55.0,475.0,480.0,5.0,0.0
8963,58.0,240.0,240.0,1.0,0.0
8964,63.0,245.0,720.0,1.0,0.0
8965,56.0,0.0,960.0,5.0,0.0
8966,53.0,480.0,960.0,5.0,0.0
8967,22.0,0.0,960.0,4.0,0.0
8968,62.0,240.0,240.0,1.0,0.0
8969,65.0,240.0,720.0,1.0,0.0
8970,34.0,0.0,15.0,4.0,0.0
8971,55.0,0.0,960.0,5.0,0.0
8972,22.0,0.0,960.0,4.0,0.0
8973,58.0,0.0,960.0,5.0,0.0
8974,63.0,240.0,240.0,1.0,0.0
8975,67.0,240.0,720.0,1.0,0.0
8976,60.0,0.0,960.0,5.0,0.0
8977,57.0,0.0,960.0,5.0,0.0
8978,22.0,80.0,960.0,4.0,0.0
8979,34.0,480.0,15.0,4.0,0.0
8980,65.0,240.0,240.0,1.0,0.0
8981,75.0,0.0,240.0,1.0,0.0
8982,22.0,0.0,90.0,5.0,0.0
8983,74.0,80.0,90.0,1.0,0.0
8984,70.0,0.0,90.0,1.0,0.0
8985,34.0,80.0,90.0,5.0,0.0
8986,72.0,80.0,90.0,1.0,0.0
8987,46.0,0.0,90.0,5.0,0.0
8988,70.0,40.0,90.0,1.0,0.0
8989,53.0,40.0,120.0,5.0,0.0
8990,72.0,80.0,90.0,1.0,0.0
8991,58.0,0.0,120.0,5.0,0.0
8992,70.0,60.0,90.0,1.0,0.0
8993,62.0,17.0,1800.0,5.0,0.0
8994,72.0,60.0,60.0,1.0,0.0
8995,70.0,60.0,60.0,1.0,0.0
8996,72.0,60.0,60.0,1.0,0.0
8997,70.0,60.0,60.0,1.0,0.0
8998,72.0,60.0,60.0,1.0,0.0
8999,70.0,60.0,60.0,1.0,0.0
9000,72.0,60.0,60.0,1.0,0.0
9001,70.0,60.0,60.0,1.0,0.0
9002,72.0,60.0,60.0,1.0,0.0
9003,70.0,60.0,60.0,1.0,0.0
9004,72.0,60.0,60.0,1.0,0.0
9005,70.0,60.0,60.0,1.0,0.0
9006,72.0,60.0,60.0,1.0,0.0
9007,70.0,60.0,60.0,1.0,0.0
9008,72.0,60.0,60.0,1.0,0.0
9009,70.0,60.0,60.0,1.0,0.0
9010,72.0,60.0,60.0,1.0,0.0
9011,70.0,60.0,60.0,1.0,0.0
9012,72.0,60.0,60.0,1.0,0.0
9013,70.0,60.0,60.0,1.0,0.0
9014,72.0,60.0,60.0,1.0,0.0
9015,70.0,60.0,60.0,1.0,0.0
9016,72.0,60.0,60.0,1.0,0.0
9017,70.0,60.0,60.0,1.0,0.0
9018,72.0,60.0,60.0,1.0,0.0
9019,70.0,60.0,60.0,1.0,0.0
9020,72.0,60.0,60.0,1.0,0.0
9021,70.0,131.0,60.0,1.0,0.0
9022,72.0,17.0,150.0,1.0,0.0
9023,70.0,99.0,120.0,1.0,0.0
9024,69.0,55.0,150.0,1.0,0.0
9025,70.0,61.0,150.0,1.0,0.0
9026,72.0,58.0,150.0,1.0,0.0
9027,74.0,57.0,150.0,1.0,0.0
9028,75.0,58.0,120.0,1.0,0.0
9029,77.0,58.0,120.0,1.0,0.0
9030,79.0,58.0,120.0,1.0,0.0
9031,81.0,43.0,120.0,1.0,0.0
9032,82.0,73.0,120.0,1.0,0.0
9033,86.0,55.0,120.0,1.0,0.0
9034,82.0,60.0,120.0,1.0,0.0
9035,76.0,58.0,120.0,1.0,0.0
9036,79.0,58.0,15.0,1.0,0.0
9037,77.0,58.0,120.0,1.0,0.0
9038,72.0,58.0,120.0,1.0,0.0
9039,70.0,58.0,120.0,1.0,0.0
9040,74.0,57.0,120.0,1.0,0.0
9041,70.0,58.0,120.0,1.0,0.0
9042,67.0,58.0,90.0,1.0,0.0
9043,64.0,58.0,90.0,1.0,0.0
9044,67.0,58.0,90.0,1.0,0.0
9045,65.0,58.0,90.0,1.0,0.0
9046,60.0,58.0,90.0,1.0,0.0
9047,58.0,58.0,90.0,1.0,0.0
9048,62.0,57.0,90.0,1.0,0.0
9049,58.0,58.0,90.0,1.0,0.0
9050,55.0,58.0,90.0,1.0,0.0
9051,52.0,58.0,90.0,1.0,0.0
9052,55.0,58.0,90.0,1.0,0.0
9053,52.0,58.0,90.0,1.0,0.0
9054,48.0,58.0,90.0,1.0,0.0
9055,46.0,57.0,90.0,1.0,0.0
9056,50.0,58.0,60.0,1.0,0.0
9057,46.0,58.0,60.0,1.0,0.0
9058,43.0,58.0,60.0,1.0,0.0
9059,40.0,58.0,60.0,1.0,0.0
9060,43.0,58.0,60.0,1.0,0.0
9061,41.0,58.0,60.0,1.0,0.0
9062,36.0,359.0,60.0,1.0,0.0
9063,34.0,1672.0,360.0,1.0,0.0
9064,61.0,488.0,480.0,5.0,0.0
9065,65.0,0.0,3240.0,1.0,0.0
9066,70.0,240.0,720.0,1.0,0.0
9067,60.0,480.0,960.0,5.0,0.0
9068,53.0,8.0,1920.0,5.0,0.0
9069,68.0,240.0,240.0,1.0,0.0
9070,73.0,472.0,720.0,1.0,0.0
9071,61.0,480.0,960.0,5.0,0.0
9072,72.0,0.0,480.0,1.0,0.0
9073,62.0,0.0,840.0,5.0,0.0
9074,53.0,7.0,840.0,5.0,0.0
9075,71.0,360.0,480.0,1.0,0.0
9076,79.0,1073.0,360.0,1.0,0.0
9077,58.0,480.0,480.0,5.0,0.0
9078,62.0,593.0,3240.0,1.0,0.0
9079,67.0,240.0,720.0,1.0,0.0
9080,57.0,480.0,960.0,5.0,0.0
9081,50.0,465.0,1920.0,5.0,0.0
9082,65.0,240.0,240.0,1.0,0.0
9083,70.0,480.0,720.0,1.0,0.0
9084,58.0,15.0,960.0,5.0,0.0
9085,69.0,0.0,480.0,1.0,0.0
9086,68.0,360.0,480.0,1.0,0.0
9087,59.0,7.0,840.0,5.0,0.0
9088,52.0,0.0,840.0,5.0,0.0
9089,76.0,0.0,360.0,1.0,0.0
9090,76.0,60.0,15.0,1.0,0.0
9091,77.0,60.0,60.0,1.0,0.0
9092,76.0,60.0,60.0,1.0,0.0
9093,77.0,60.0,60.0,1.0,0.0
9094,76.0,37.0,60.0,1.0,0.0
9095,77.0,38.0,60.0,1.0,0.0
9096,76.0,45.0,60.0,1.0,0.0
9097,74.0,60.0,60.0,1.0,0.0
9098,76.0,720.0,60.0,1.0,0.0
9099,79.0,240.0,720.0,1.0,0.0
9100,64.0,128.0,960.0,5.0,0.0
9101,58.0,80.0,1200.0,5.0,0.0
9102,55.0,0.0,1200.0,5.0,0.0
9103,50.0,0.0,960.0,5.0,0.0
9104,77.0,0.0,240.0,1.0,0.0
9105,76.0,112.0,120.0,1.0,0.0
9106,49.0,0.0,240.0,5.0,0.0
9107,67.0,160.0,150.0,1.0,0.0
9108,69.0,160.0,150.0,1.0,0.0
9109,72.0,160.0,150.0,1.0,0.0
9110,70.0,160.0,150.0,1.0,0.0
9111,64.0,160.0,150.0,1.0,0.0
9112,69.0,160.0,150.0,1.0,0.0
9113,67.0,160.0,150.0,1.0,0.0
9114,61.0,160.0,150.0,1.0,0.0
9115,65.0,160.0,150.0,1.0,0.0
9116,64.0,128.0,150.0,1.0,0.0
9117,57.0,160.0,120.0,1.0,0.0
9118,61.0,160.0,120.0,1.0,0.0
9119,58.0,160.0,120.0,1.0,0.0
9120,57.0,157.0,120.0,1.0,0.0
9121,55.0,128.0,120.0,1.0,0.0
9122,58.0,128.0,120.0,1.0,0.0
9123,62.0,128.0,150.0,1.0,0.0
9124,65.0,128.0,150.0,1.0,0.0
9125,64.0,129.0,150.0,1.0,0.0
9126,67.0,128.0,180.0,1.0,0.0
9127,70.0,128.0,180.0,1.0,0.0
9128,74.0,128.0,180.0,1.0,0.0
9129,73.0,128.0,180.0,1.0,0.0
9130,76.0,128.0,210.0,1.0,0.0
9131,79.0,34.0,210.0,1.0,0.0
9132,82.0,480.0,120.0,1.0,0.0
9133,82.0,0.0,720.0,1.0,0.0
9134,33.0,240.0,240.0,5.0,0.0
9135,40.0,192.0,240.0,5.0,0.0
9136,70.0,0.0,15.0,2.0,0.0
9137,45.0,128.0,240.0,5.0,0.0
9138,82.0,0.0,180.0,1.0,0.0
9139,50.0,128.0,150.0,5.0,0.0
9140,70.0,0.0,120.0,2.0,0.0
9141,82.0,32.0,120.0,1.0,0.0
9142,70.0,32.0,120.0,2.0,0.0
9143,52.0,128.0,150.0,5.0,0.0
9144,82.0,0.0,120.0,1.0,0.0
9145,70.0,0.0,120.0,2.0,0.0
9146,57.0,128.0,150.0,5.0,0.0
9147,82.0,32.0,120.0,1.0,0.0
9148,70.0,0.0,120.0,2.0,0.0
9149,82.0,32.0,120.0,1.0,0.0
9150,62.0,128.0,150.0,5.0,0.0
9151,82.0,32.0,120.0,1.0,0.0
9152,64.0,128.0,150.0,5.0,0.0
9153,70.0,0.0,120.0,2.0,0.0
9154,82.0,0.0,120.0,1.0,0.0
9155,69.0,780.0,150.0,2.0,0.0
9156,70.0,32.0,120.0,2.0,0.0
9157,82.0,0.0,960.0,1.0,0.0
9158,70.0,0.0,960.0,2.0,0.0
9159,74.0,1447.0,960.0,5.0,0.0
9160,45.0,60.0,60.0,5.0,0.0
9161,49.0,60.0,60.0,5.0,0.0
9162,52.0,60.0,60.0,5.0,0.0
9163,57.0,0.0,60.0,5.0,0.0
9164,61.0,2385.0,1440.0,5.0,0.0
9165,73.0,0.0,1440.0,5.0,0.0
9166,81.0,0.0,1440.0,1.0,0.0
9167,69.0,8.0,1440.0,2.0,0.0
9168,70.0,456.0,480.0,1.0,0.0
9169,69.0,0.0,960.0,1.0,0.0
9170,49.0,24.0,450.0,4.0,0.0
9171,45.0,456.0,240.0,3.0,0.0
9172,52.0,24.0,450.0,4.0,0.0
9173,45.0,456.0,240.0,3.0,0.0
9174,53.0,24.0,450.0,4.0,0.0
9175,62.0,456.0,480.0,1.0,0.0
9176,45.0,0.0,240.0,3.0,0.0
9177,55.0,24.0,450.0,4.0,0.0
9178,64.0,0.0,480.0,1.0,0.0
9179,45.0,456.0,240.0,3.0,0.0
9180,57.0,456.0,1440.0,1.0,0.0
9181,56.0,24.0,450.0,4.0,0.0
9182,45.0,456.0,240.0,3.0,0.0
9183,55.0,24.0,450.0,4.0,0.0
9184,45.0,456.0,240.0,3.0,0.0
9185,54.0,24.0,450.0,4.0,0.0
9186,45.0,0.0,240.0,3.0,0.0
9187,53.0,24.0,450.0,4.0,0.0
9188,62.0,456.0,480.0,1.0,0.0
9189,45.0,0.0,240.0,3.0,0.0
9190,61.0,0.0,480.0,1.0,0.0
9191,52.0,24.0,450.0,4.0,0.0
9192,45.0,456.0,240.0,3.0,0.0
9193,62.0,456.0,480.0,1.0,0.0
9194,53.0,24.0,450.0,4.0,0.0
9195,45.0,0.0,240.0,3.0,0.0
9196,64.0,0.0,480.0,1.0,0.0
9197,49.0,24.0,450.0,4.0,0.0
9198,45.0,456.0,240.0,3.0,0.0
9199,50.0,24.0,450.0,4.0,0.0
9200,65.0,0.0,480.0,1.0,0.0
9201,45.0,456.0,240.0,3.0,0.0
9202,69.0,0.0,480.0,1.0,0.0
9203,62.0,0.0,960.0,2.0,0.0
9204,60.0,24.0,450.0,4.0,0.0
9205,45.0,456.0,240.0,3.0,0.0
9206,67.0,456.0,480.0,1.0,0.0
9207,58.0,24.0,450.0,4.0,0.0
9208,45.0,0.0,240.0,3.0,0.0
9209,64.0,0.0,480.0,1.0,0.0
9210,61.0,0.0,480.0,2.0,0.0
9211,57.0,24.0,450.0,4.0,0.0
9212,45.0,936.0,240.0,3.0,0.0
9213,70.0,0.0,1440.0,1.0,0.0
9214,58.0,24.0,450.0,4.0,0.0
9215,46.0,456.0,240.0,3.0,0.0
9216,58.0,24.0,450.0,4.0,0.0
9217,46.0,456.0,240.0,3.0,0.0
9218,63.0,0.0,480.0,1.0,0.0
9219,55.0,24.0,450.0,4.0,0.0
9220,46.0,456.0,240.0,3.0,0.0
9221,56.0,24.0,450.0,4.0,0.0
9222,65.0,456.0,480.0,1.0,0.0
9223,46.0,0.0,240.0,3.0,0.0
9224,50.0,24.0,450.0,4.0,0.0
9225,58.0,80.0,1920.0,1.0,0.0
9226,46.0,456.0,240.0,3.0,0.0
9227,50.0,24.0,450.0,4.0,0.0
9228,44.0,456.0,240.0,3.0,0.0
9229,51.0,24.0,450.0,4.0,0.0
9230,43.0,456.0,240.0,3.0,0.0
9231,64.0,0.0,480.0,1.0,0.0
9232,55.0,24.0,450.0,4.0,0.0
9233,43.0,0.0,240.0,3.0,0.0
9234,53.0,24.0,450.0,4.0,0.0
9235,62.0,80.0,90.0,1.0,0.0
9236,57.0,456.0,1440.0,2.0,0.0
9237,64.0,80.0,90.0,1.0,0.0
9238,62.0,80.0,90.0,1.0,0.0
9239,45.0,80.0,240.0,3.0,0.0
9240,64.0,80.0,90.0,1.0,0.0
9241,62.0,56.0,90.0,1.0,0.0
9242,64.0,0.0,90.0,1.0,0.0
9243,62.0,80.0,90.0,1.0,0.0
9244,53.0,24.0,450.0,4.0,0.0
9245,64.0,80.0,90.0,1.0,0.0
9246,62.0,120.0,90.0,1.0,0.0
9247,45.0,0.0,240.0,3.0,0.0
9248,61.0,96.0,120.0,1.0,0.0
9249,62.0,456.0,120.0,1.0,0.0
9250,55.0,24.0,450.0,4.0,0.0
9251,64.0,0.0,480.0,1.0,0.0
9252,45.0,0.0,240.0,3.0,0.0
9253,55.0,24.0,450.0,4.0,0.0
9254,61.0,0.0,480.0,2.0,0.0
9255,45.0,240.0,240.0,3.0,0.0
9256,69.0,0.0,15.0,1.0,0.0
9257,38.0,240.0,240.0,4.0,0.0
9258,62.0,0.0,960.0,2.0,0.0
9259,45.0,240.0,240.0,4.0,0.0
9260,53.0,240.0,240.0,4.0,0.0
9261,50.0,240.0,240.0,4.0,0.0
9262,62.0,1149.0,240.0,1.0,0.0
9263,74.0,429.0,1440.0,1.0,0.0
9264,54.0,51.0,420.0,4.0,0.0
9265,50.0,429.0,240.0,3.0,0.0
9266,57.0,51.0,420.0,4.0,0.0
9267,50.0,0.0,240.0,3.0,0.0
9268,58.0,51.0,420.0,4.0,0.0
9269,67.0,0.0,480.0,1.0,0.0
9270,50.0,429.0,240.0,3.0,0.0
9271,60.0,51.0,420.0,4.0,0.0
9272,69.0,429.0,480.0,1.0,0.0
9273,50.0,0.0,240.0,3.0,0.0
9274,62.0,429.0,1440.0,1.0,0.0
9275,61.0,51.0,420.0,4.0,0.0
9276,50.0,429.0,240.0,3.0,0.0
9277,60.0,51.0,420.0,4.0,0.0
9278,50.0,429.0,240.0,3.0,0.0
9279,59.0,51.0,420.0,4.0,0.0
9280,50.0,0.0,240.0,3.0,0.0
9281,67.0,429.0,480.0,1.0,0.0
9282,58.0,51.0,420.0,4.0,0.0
9283,50.0,0.0,240.0,3.0,0.0
9284,66.0,0.0,480.0,1.0,0.0
9285,57.0,51.0,420.0,4.0,0.0
9286,50.0,429.0,240.0,3.0,0.0
9287,67.0,0.0,480.0,1.0,0.0
9288,58.0,51.0,420.0,4.0,0.0
9289,50.0,429.0,240.0,3.0,0.0
9290,54.0,51.0,420.0,4.0,0.0
9291,69.0,0.0,480.0,1.0,0.0
9292,50.0,429.0,240.0,3.0,0.0
9293,70.0,0.0,480.0,1.0,0.0
9294,55.0,51.0,420.0,4.0,0.0
9295,50.0,429.0,240.0,3.0,0.0
9296,72.0,429.0,960.0,1.0,0.0
9297,69.0,0.0,960.0,2.0,0.0
9298,62.0,51.0,420.0,4.0,0.0
9299,50.0,429.0,240.0,3.0,0.0
9300,63.0,51.0,420.0,4.0,0.0
9301,51.0,0.0,240.0,3.0,0.0
9302,64.0,51.0,420.0,4.0,0.0
9303,68.0,0.0,480.0,2.0,0.0
9304,71.0,429.0,480.0,1.0,0.0
9305,52.0,0.0,240.0,3.0,0.0
9306,77.0,429.0,480.0,1.0,0.0
9307,64.0,51.0,420.0,4.0,0.0
9308,52.0,0.0,240.0,3.0,0.0
9309,76.0,0.0,960.0,1.0,0.0
9310,64.0,51.0,420.0,4.0,0.0
9311,52.0,429.0,240.0,3.0,0.0
9312,64.0,51.0,420.0,4.0,0.0
9313,52.0,429.0,240.0,3.0,0.0
9314,69.0,429.0,480.0,1.0,0.0
9315,60.0,51.0,420.0,4.0,0.0
9316,52.0,0.0,240.0,3.0,0.0
9317,71.0,0.0,480.0,1.0,0.0
9318,62.0,51.0,420.0,4.0,0.0
9319,52.0,429.0,240.0,3.0,0.0
9320,64.0,429.0,1440.0,1.0,0.0
9321,63.0,51.0,420.0,4.0,0.0
9322,52.0,429.0,240.0,3.0,0.0
9323,62.0,51.0,420.0,4.0,0.0
9324,52.0,429.0,240.0,3.0,0.0
9325,61.0,51.0,420.0,4.0,0.0
9326,52.0,0.0,240.0,3.0,0.0
9327,69.0,429.0,480.0,1.0,0.0
9328,60.0,51.0,420.0,4.0,0.0
9329,52.0,0.0,240.0,3.0,0.0
9330,59.0,51.0,420.0,4.0,0.0
9331,68.0,0.0,480.0,1.0,0.0
9332,52.0,429.0,240.0,3.0,0.0
9333,69.0,429.0,480.0,1.0,0.0
9334,60.0,51.0,420.0,4.0,0.0
9335,52.0,0.0,240.0,3.0,0.0
9336,71.0,429.0,480.0,1.0,0.0
9337,56.0,51.0,420.0,4.0,0.0
9338,52.0,0.0,240.0,3.0,0.0
9339,72.0,429.0,480.0,1.0,0.0
9340,57.0,51.0,420.0,4.0,0.0
9341,52.0,0.0,240.0,3.0,0.0
9342,74.0,429.0,1440.0,1.0,0.0
9343,64.0,51.0,420.0,4.0,0.0
9344,71.0,0.0,1440.0,2.0,0.0
9345,52.0,429.0,240.0,3.0,0.0
9346,65.0,51.0,420.0,4.0,0.0
9347,53.0,429.0,240.0,3.0,0.0
9348,66.0,51.0,420.0,4.0,0.0
9349,54.0,0.0,240.0,3.0,0.0
9350,70.0,0.0,480.0,2.0,0.0
9351,67.0,51.0,420.0,4.0,0.0
9352,73.0,429.0,480.0,1.0,0.0
9353,55.0,0.0,240.0,3.0,0.0
9354,73.0,429.0,1440.0,2.0,0.0
9355,68.0,51.0,420.0,4.0,0.0
9356,76.0,0.0,1440.0,1.0,0.0
9357,56.0,429.0,240.0,3.0,0.0
9358,69.0,51.0,420.0,4.0,0.0
9359,57.0,429.0,240.0,3.0,0.0
9360,70.0,51.0,420.0,4.0,0.0
9361,58.0,0.0,240.0,3.0,0.0
9362,69.0,51.0,420.0,4.0,0.0
9363,76.0,240.0,480.0,2.0,0.0
9364,79.0,0.0,480.0,1.0,0.0
9365,57.0,0.0,480.0,3.0,0.0
9366,82.0,0.0,240.0,1.0,0.0
9367,64.0,240.0,240.0,4.0,0.0
9368,61.0,0.0,240.0,5.0,0.0
9369,79.0,240.0,240.0,1.0,0.0
9370,76.0,240.0,240.0,1.0,0.0
9371,73.0,200.0,240.0,1.0,0.0
9372,45.0,20.0,240.0,5.0,0.0
9373,49.0,10.0,240.0,5.0,0.0
9374,52.0,10.0,240.0,5.0,0.0
9375,55.0,240.0,240.0,5.0,0.0
9376,70.0,0.0,240.0,1.0,0.0
9377,67.0,240.0,240.0,1.0,0.0
9378,64.0,240.0,240.0,1.0,0.0
9379,61.0,200.0,240.0,1.0,0.0
9380,36.0,20.0,240.0,5.0,0.0
9381,40.0,10.0,240.0,5.0,0.0
9382,43.0,10.0,240.0,5.0,0.0
9383,46.0,0.0,240.0,5.0,0.0
9384,58.0,192.0,240.0,1.0,0.0
9385,57.0,288.0,180.0,1.0,0.0
9386,70.0,0.0,240.0,1.0,0.0
9387,46.0,192.0,240.0,5.0,0.0
9388,69.0,0.0,180.0,1.0,0.0
9389,45.0,288.0,180.0,5.0,0.0
9390,46.0,0.0,240.0,5.0,0.0
9391,70.0,192.0,240.0,1.0,0.0
9392,45.0,288.0,180.0,5.0,0.0
9393,69.0,0.0,180.0,1.0,0.0
9394,70.0,0.0,960.0,1.0,0.0
9395,46.0,192.0,240.0,5.0,0.0
9396,45.0,504.0,180.0,5.0,0.0
9397,49.0,24.0,450.0,4.0,0.0
9398,45.0,456.0,240.0,3.0,0.0
9399,69.0,456.0,480.0,1.0,0.0
9400,52.0,24.0,450.0,4.0,0.0
9401,45.0,0.0,240.0,3.0,0.0
9402,62.0,0.0,480.0,1.0,0.0
9403,53.0,24.0,450.0,4.0,0.0
9404,45.0,456.0,240.0,3.0,0.0
9405,55.0,24.0,450.0,4.0,0.0
9406,64.0,0.0,480.0,1.0,0.0
9407,45.0,456.0,240.0,3.0,0.0
9408,57.0,456.0,1440.0,1.0,0.0
9409,56.0,24.0,450.0,4.0,0.0
9410,45.0,456.0,240.0,3.0,0.0
9411,55.0,24.0,450.0,4.0,0.0
9412,45.0,456.0,240.0,3.0,0.0
9413,54.0,24.0,450.0,4.0,0.0
9414,45.0,0.0,240.0,3.0,0.0
9415,53.0,24.0,450.0,4.0,0.0
9416,62.0,0.0,480.0,1.0,0.0
9417,45.0,456.0,240.0,3.0,0.0
9418,61.0,456.0,480.0,1.0,0.0
9419,52.0,24.0,450.0,4.0,0.0
9420,45.0,0.0,240.0,3.0,0.0
9421,53.0,24.0,450.0,4.0,0.0
9422,62.0,456.0,480.0,1.0,0.0
9423,45.0,0.0,240.0,3.0,0.0
9424,64.0,0.0,480.0,1.0,0.0
9425,49.0,24.0,450.0,4.0,0.0
9426,45.0,456.0,240.0,3.0,0.0
9427,50.0,24.0,450.0,4.0,0.0
9428,65.0,0.0,480.0,1.0,0.0
9429,45.0,456.0,240.0,3.0,0.0
9430,60.0,24.0,450.0,4.0,0.0
9431,69.0,456.0,480.0,1.0,0.0
9432,62.0,0.0,960.0,2.0,0.0
9433,46.0,0.0,240.0,3.0,0.0
9434,67.0,0.0,480.0,1.0,0.0
9435,58.0,24.0,450.0,4.0,0.0
9436,46.0,456.0,240.0,3.0,0.0
9437,55.0,24.0,450.0,4.0,0.0
9438,64.0,456.0,480.0,1.0,0.0
9439,60.0,0.0,480.0,2.0,0.0
9440,48.0,0.0,240.0,3.0,0.0
9441,64.0,456.0,960.0,1.0,0.0
9442,55.0,24.0,450.0,4.0,0.0
9443,48.0,456.0,240.0,3.0,0.0
9444,56.0,24.0,450.0,4.0,0.0
9445,48.0,0.0,240.0,3.0,0.0
9446,57.0,24.0,450.0,4.0,0.0
9447,65.0,456.0,480.0,1.0,0.0
9448,48.0,0.0,240.0,3.0,0.0
9449,67.0,456.0,480.0,1.0,0.0
9450,52.0,24.0,450.0,4.0,0.0
9451,48.0,0.0,240.0,3.0,0.0
9452,69.0,429.0,480.0,1.0,0.0
9453,53.0,24.0,450.0,4.0,0.0
9454,48.0,0.0,240.0,3.0,0.0
9455,65.0,0.0,960.0,2.0,0.0
9456,62.0,51.0,420.0,4.0,0.0
9457,72.0,0.0,480.0,1.0,0.0
9458,50.0,429.0,240.0,3.0,0.0
9459,62.0,51.0,420.0,4.0,0.0
9460,71.0,429.0,480.0,1.0,0.0
9461,50.0,0.0,240.0,3.0,0.0
9462,68.0,0.0,480.0,1.0,0.0
9463,64.0,0.0,480.0,2.0,0.0
9464,59.0,51.0,420.0,4.0,0.0
9465,52.0,429.0,240.0,3.0,0.0
9466,67.0,0.0,960.0,1.0,0.0
9467,59.0,51.0,420.0,4.0,0.0
9468,52.0,429.0,240.0,3.0,0.0
9469,59.0,51.0,420.0,4.0,0.0
9470,52.0,429.0,240.0,3.0,0.0
9471,69.0,0.0,480.0,1.0,0.0
9472,60.0,51.0,420.0,4.0,0.0
9473,52.0,429.0,240.0,3.0,0.0
9474,56.0,51.0,420.0,4.0,0.0
9475,71.0,429.0,480.0,1.0,0.0
9476,52.0,0.0,240.0,3.0,0.0
9477,74.0,11.0,450.0,1.0,0.0
9478,59.0,13.0,420.0,4.0,0.0
9479,52.0,267.0,210.0,3.0,0.0
9480,50.0,30.0,360.0,5.0,0.0
9481,57.0,10.0,360.0,5.0,0.0
9482,62.0,120.0,360.0,4.0,0.0
9483,65.0,0.0,240.0,2.0,0.0
9484,77.0,80.0,240.0,1.0,0.0
9485,69.0,0.0,240.0,2.0,0.0
9486,76.0,240.0,240.0,1.0,0.0
9487,74.0,240.0,240.0,1.0,0.0
9488,69.0,240.0,240.0,1.0,0.0
9489,65.0,240.0,240.0,1.0,0.0
9490,64.0,240.0,240.0,1.0,0.0
9491,55.0,120.0,360.0,5.0,0.0
9492,62.0,120.0,240.0,1.0,0.0
9493,50.0,0.0,360.0,5.0,0.0
9494,43.0,0.0,360.0,5.0,0.0
9495,70.0,360.0,240.0,1.0,0.0
9496,69.0,0.0,360.0,1.0,0.0
9497,45.0,0.0,360.0,5.0,0.0
9498,53.0,960.0,360.0,5.0,0.0
9499,50.0,0.0,360.0,5.0,0.0
9500,45.0,760.0,360.0,5.0,0.0
9501,52.0,0.0,360.0,5.0,0.0
9502,55.0,0.0,360.0,5.0,0.0
9503,57.0,0.0,360.0,2.0,0.0
9504,61.0,0.0,360.0,1.0,0.0
9505,82.0,160.0,150.0,1.0,0.0
9506,31.0,0.0,150.0,5.0,0.0
9507,33.0,160.0,150.0,5.0,0.0
9508,81.0,0.0,150.0,1.0,0.0
9509,79.0,0.0,150.0,1.0,0.0
9510,34.0,160.0,150.0,5.0,0.0
9511,74.0,160.0,150.0,1.0,0.0
9512,38.0,0.0,150.0,5.0,0.0
9513,70.0,160.0,150.0,1.0,0.0
9514,43.0,0.0,150.0,5.0,0.0
9515,45.0,0.0,150.0,5.0,0.0
9516,69.0,160.0,150.0,1.0,0.0
9517,46.0,0.0,150.0,5.0,0.0
9518,67.0,160.0,150.0,1.0,0.0
9519,50.0,0.0,150.0,5.0,0.0
9520,62.0,160.0,150.0,1.0,0.0
9521,55.0,160.0,150.0,5.0,0.0
9522,58.0,0.0,150.0,1.0,0.0
9523,62.0,160.0,150.0,1.0,0.0
9524,50.0,0.0,150.0,5.0,0.0
9525,46.0,0.0,150.0,5.0,0.0
9526,67.0,160.0,150.0,1.0,0.0
9527,43.0,0.0,150.0,5.0,0.0
9528,70.0,360.0,150.0,1.0,0.0
9529,53.0,960.0,360.0,5.0,0.0
9530,50.0,0.0,360.0,5.0,0.0
9531,45.0,0.0,360.0,5.0,0.0
9532,57.0,0.0,360.0,2.0,0.0
9533,62.0,0.0,360.0,2.0,0.0
9534,69.0,0.0,360.0,1.0,0.0
9535,45.0,0.0,360.0,5.0,0.0
9536,55.0,0.0,360.0,5.0,0.0
9537,57.0,0.0,360.0,2.0,0.0
9538,61.0,0.0,360.0,1.0,0.0
9539,52.0,540.0,360.0,5.0,0.0
9540,81.0,40.0,60.0,1.0,0.0
9541,38.0,38.0,450.0,5.0,0.0
9542,82.0,40.0,60.0,1.0,0.0
9543,45.0,2.0,360.0,5.0,0.0
9544,84.0,300.0,60.0,1.0,0.0
9545,86.0,0.0,720.0,1.0,0.0
9546,74.0,125.0,720.0,2.0,0.0
9547,53.0,360.0,360.0,5.0,0.0
9548,84.0,55.0,120.0,1.0,0.0
9549,65.0,0.0,60.0,5.0,0.0
9550,77.0,40.0,60.0,1.0,0.0
9551,67.0,40.0,60.0,5.0,0.0
9552,79.0,0.0,60.0,1.0,0.0
9553,69.0,0.0,60.0,5.0,0.0
9554,81.0,700.0,60.0,1.0,0.0
9555,82.0,0.0,720.0,1.0,0.0
9556,70.0,120.0,720.0,5.0,0.0
9557,81.0,35.0,120.0,1.0,0.0
9558,69.0,5.0,120.0,5.0,0.0
9559,50.0,0.0,60.0,5.0,0.0
9560,62.0,20.0,40.0,2.0,0.0
9561,74.0,20.0,60.0,1.0,0.0
9562,63.0,20.0,40.0,2.0,0.0
9563,51.0,0.0,60.0,5.0,0.0
9564,75.0,20.0,60.0,1.0,0.0
9565,53.0,700.0,60.0,5.0,0.0
9566,65.0,20.0,40.0,2.0,0.0
9567,77.0,0.0,60.0,1.0,0.0
9568,55.0,0.0,720.0,5.0,0.0
9569,79.0,0.0,720.0,1.0,0.0
9570,67.0,120.0,720.0,2.0,0.0
9571,77.0,60.0,120.0,1.0,0.0
9572,53.0,0.0,120.0,5.0,0.0
9573,65.0,0.0,120.0,2.0,0.0
9574,34.0,40.0,60.0,5.0,0.0
9575,70.0,0.0,60.0,1.0,0.0
9576,36.0,0.0,60.0,5.0,0.0
9577,72.0,40.0,60.0,1.0,0.0
9578,38.0,700.0,60.0,5.0,0.0
9579,74.0,0.0,60.0,1.0,0.0
9580,63.0,192.0,720.0,2.0,0.0
9581,39.0,0.0,720.0,5.0,0.0
9582,75.0,0.0,720.0,1.0,0.0
9583,50.0,0.0,180.0,5.0,0.0
9584,62.0,304.0,180.0,2.0,0.0
9585,74.0,0.0,180.0,1.0,0.0
9586,60.0,0.0,270.0,2.0,0.0
9587,48.0,0.0,270.0,5.0,0.0
9588,72.0,320.0,270.0,1.0,0.0
9589,46.0,0.0,270.0,5.0,0.0
9590,58.0,320.0,270.0,2.0,0.0
9591,70.0,0.0,270.0,1.0,0.0
9592,69.0,0.0,270.0,1.0,0.0
9593,57.0,320.0,270.0,2.0,0.0
9594,45.0,0.0,270.0,5.0,0.0
9595,55.0,0.0,270.0,2.0,0.0
9596,67.0,0.0,270.0,1.0,0.0
9597,43.0,320.0,270.0,5.0,0.0
9598,53.0,0.0,270.0,2.0,0.0
9599,65.0,320.0,270.0,1.0,0.0
9600,41.0,0.0,270.0,5.0,0.0
9601,52.0,0.0,270.0,2.0,0.0
9602,40.0,320.0,270.0,5.0,0.0
9603,64.0,0.0,270.0,1.0,0.0
9604,60.0,0.0,270.0,1.0,0.0
9605,48.0,320.0,270.0,2.0,0.0
9606,36.0,0.0,270.0,5.0,0.0
9607,58.0,0.0,270.0,1.0,0.0
9608,34.0,0.0,270.0,5.0,0.0
9609,46.0,320.0,270.0,2.0,0.0
9610,45.0,0.0,270.0,2.0,0.0
9611,57.0,320.0,270.0,1.0,0.0
9612,33.0,0.0,270.0,5.0,0.0
9613,31.0,320.0,270.0,5.0,0.0
9614,55.0,0.0,270.0,1.0,0.0
9615,43.0,0.0,270.0,2.0,0.0
9616,29.0,320.0,270.0,5.0,0.0
9617,53.0,0.0,270.0,1.0,0.0
9618,41.0,0.0,270.0,2.0,0.0
9619,40.0,0.0,270.0,2.0,0.0
9620,52.0,352.0,270.0,1.0,0.0
9621,28.0,0.0,270.0,5.0,0.0
9622,38.0,0.0,300.0,2.0,0.0
9623,50.0,0.0,300.0,1.0,0.0
9624,26.0,949.0,300.0,5.0,0.0
9625,38.0,4.0,330.0,5.0,0.0
9626,41.0,0.0,300.0,5.0,0.0
9627,45.0,7.0,300.0,5.0,0.0
9628,74.0,0.0,300.0,1.0,0.0
9629,65.0,0.0,300.0,2.0,0.0
9630,53.0,945.0,300.0,5.0,0.0
9631,62.0,0.0,300.0,2.0,0.0
9632,69.0,0.0,300.0,2.0,0.0
9633,50.0,7.0,330.0,5.0,0.0
9634,53.0,5.0,300.0,5.0,0.0
9635,57.0,3.0,300.0,5.0,0.0
9636,62.0,672.0,300.0,5.0,0.0
9637,74.0,0.0,960.0,2.0,0.0
9638,81.0,0.0,960.0,2.0,0.0
9639,86.0,960.0,960.0,1.0,0.0
9640,77.0,0.0,960.0,2.0,0.0
9641,46.0,0.0,480.0,5.0,0.0
9642,58.0,360.0,480.0,5.0,0.0
9643,45.0,0.0,360.0,5.0,0.0
9644,57.0,360.0,360.0,5.0,0.0
9645,40.0,0.0,240.0,5.0,0.0
9646,52.0,240.0,240.0,5.0,0.0
9647,41.0,360.0,240.0,5.0,0.0
9648,53.0,0.0,240.0,5.0,0.0
9649,50.0,360.0,360.0,5.0,0.0
9650,38.0,0.0,360.0,5.0,0.0
9651,36.0,240.0,240.0,5.0,0.0
9652,48.0,0.0,240.0,5.0,0.0
9653,50.0,360.0,240.0,5.0,0.0
9654,38.0,0.0,240.0,5.0,0.0
9655,46.0,276.0,360.0,5.0,0.0
9656,34.0,0.0,360.0,5.0,0.0
9657,45.0,0.0,150.0,5.0,0.0
9658,33.0,240.0,150.0,5.0,0.0
9659,46.0,0.0,150.0,5.0,0.0
9660,34.0,444.0,150.0,5.0,0.0
9661,43.0,276.0,360.0,5.0,0.0
9662,31.0,0.0,360.0,5.0,0.0
9663,41.0,0.0,150.0,5.0,0.0
9664,29.0,204.0,150.0,5.0,0.0
9665,67.0,0.0,360.0,1.0,0.0
9666,55.0,0.0,360.0,1.0,0.0
9667,62.0,0.0,360.0,2.0,0.0
9668,59.0,36.0,360.0,2.0,0.0
9669,43.0,0.0,150.0,5.0,0.0
9670,31.0,444.0,150.0,5.0,0.0
9671,72.0,0.0,360.0,2.0,0.0
9672,39.0,0.0,360.0,5.0,0.0
9673,67.0,276.0,360.0,1.0,0.0
9674,79.0,0.0,360.0,1.0,0.0
9675,27.0,0.0,360.0,5.0,0.0
9676,74.0,0.0,150.0,1.0,0.0
9677,51.0,0.0,360.0,5.0,0.0
9678,55.0,36.0,360.0,5.0,0.0
9679,48.0,0.0,360.0,5.0,0.0
9680,62.0,204.0,150.0,1.0,0.0
9681,75.0,444.0,150.0,1.0,0.0
9682,63.0,0.0,150.0,1.0,0.0
9683,60.0,276.0,360.0,1.0,0.0
9684,72.0,0.0,360.0,1.0,0.0
9685,26.0,240.0,150.0,5.0,0.0
9686,70.0,0.0,150.0,1.0,0.0
9687,58.0,0.0,150.0,1.0,0.0
9688,38.0,0.0,150.0,5.0,0.0
9689,72.0,444.0,150.0,1.0,0.0
9690,39.0,0.0,150.0,5.0,0.0
9691,60.0,0.0,150.0,1.0,0.0
9692,27.0,0.0,150.0,5.0,0.0
9693,57.0,260.0,360.0,1.0,0.0
9694,24.0,0.0,360.0,5.0,0.0
9695,36.0,0.0,360.0,5.0,0.0
9696,69.0,0.0,360.0,1.0,0.0
9697,51.0,0.0,360.0,5.0,0.0
9698,48.0,36.0,360.0,5.0,0.0
9699,55.0,204.0,150.0,1.0,0.0
9700,67.0,16.0,150.0,1.0,0.0
9701,57.0,0.0,150.0,1.0,0.0
9702,69.0,444.0,150.0,1.0,0.0
9703,54.0,276.0,360.0,1.0,0.0
9704,66.0,0.0,360.0,1.0,0.0
9705,50.0,0.0,360.0,5.0,0.0
9706,38.0,36.0,360.0,5.0,0.0
9707,67.0,204.0,150.0,1.0,0.0
9708,55.0,0.0,150.0,1.0,0.0
9709,57.0,0.0,150.0,1.0,0.0
9710,69.0,444.0,150.0,1.0,0.0
9711,62.0,0.0,360.0,5.0,0.0
9712,50.0,276.0,360.0,5.0,0.0
9713,70.0,0.0,360.0,1.0,0.0
9714,58.0,0.0,360.0,1.0,0.0
9715,79.0,36.0,360.0,1.0,0.0
9716,74.0,0.0,360.0,2.0,0.0
9717,57.0,0.0,150.0,5.0,0.0
9718,67.0,0.0,360.0,1.0,0.0
9719,45.0,204.0,150.0,5.0,0.0
9720,46.0,444.0,150.0,5.0,0.0
9721,58.0,0.0,150.0,5.0,0.0
9722,55.0,0.0,360.0,5.0,0.0
9723,43.0,276.0,360.0,5.0,0.0
9724,41.0,0.0,150.0,5.0,0.0
9725,57.0,240.0,150.0,1.0,0.0
9726,69.0,0.0,150.0,1.0,0.0
9727,53.0,0.0,150.0,5.0,0.0
9728,71.0,0.0,150.0,1.0,0.0
9729,43.0,0.0,150.0,5.0,0.0
9730,55.0,444.0,150.0,5.0,0.0
9731,59.0,0.0,150.0,1.0,0.0
9732,39.0,0.0,360.0,5.0,0.0
9733,51.0,0.0,360.0,5.0,0.0
9734,72.0,276.0,360.0,1.0,0.0
9735,60.0,0.0,360.0,1.0,0.0
9736,50.0,0.0,150.0,5.0,0.0
9737,38.0,204.0,150.0,5.0,0.0
9738,72.0,0.0,360.0,1.0,0.0
9739,84.0,0.0,360.0,1.0,0.0
9740,79.0,36.0,360.0,2.0,0.0
9741,52.0,0.0,150.0,5.0,0.0
9742,40.0,444.0,150.0,5.0,0.0
9743,36.0,276.0,360.0,5.0,0.0
9744,48.0,0.0,360.0,5.0,0.0
9745,61.0,36.0,360.0,1.0,0.0
9746,34.0,0.0,150.0,5.0,0.0
9747,73.0,0.0,360.0,1.0,0.0
9748,67.0,0.0,360.0,2.0,0.0
9749,64.0,0.0,360.0,2.0,0.0
9750,46.0,204.0,150.0,5.0,0.0
9751,48.0,444.0,150.0,5.0,0.0
9752,36.0,0.0,150.0,5.0,0.0
9753,85.0,0.0,360.0,1.0,0.0
9754,73.0,0.0,360.0,1.0,0.0
9755,77.0,0.0,360.0,2.0,0.0
9756,44.0,0.0,360.0,5.0,0.0
9757,32.0,276.0,360.0,5.0,0.0
9758,32.0,240.0,600.0,5.0,0.0
9759,44.0,0.0,600.0,5.0,0.0
9760,41.0,0.0,600.0,4.0,0.0
9761,67.0,0.0,150.0,1.0,0.0
9762,79.0,240.0,150.0,1.0,0.0
9763,68.0,204.0,150.0,1.0,0.0
9764,80.0,0.0,150.0,1.0,0.0
9765,65.0,0.0,360.0,1.0,0.0
9766,77.0,36.0,360.0,1.0,0.0
9767,41.0,0.0,150.0,4.0,0.0
9768,32.0,0.0,150.0,5.0,0.0
9769,44.0,240.0,150.0,5.0,0.0
9770,63.0,240.0,150.0,1.0,0.0
9771,41.0,235.0,600.0,4.0,0.0
9772,75.0,0.0,150.0,1.0,0.0
9773,45.0,0.0,600.0,5.0,0.0
9774,33.0,5.0,600.0,5.0,0.0
9775,77.0,204.0,150.0,1.0,0.0
9776,65.0,0.0,150.0,1.0,0.0
9777,73.0,36.0,360.0,1.0,0.0
9778,61.0,0.0,360.0,1.0,0.0
9779,33.0,0.0,150.0,5.0,0.0
9780,45.0,240.0,150.0,5.0,0.0
9781,41.0,0.0,150.0,4.0,0.0
9782,46.0,5.0,600.0,5.0,0.0
9783,34.0,0.0,600.0,5.0,0.0
9784,72.0,0.0,150.0,1.0,0.0
9785,60.0,240.0,150.0,1.0,0.0
9786,41.0,240.0,600.0,4.0,0.0
9787,61.0,199.0,150.0,1.0,0.0
9788,73.0,0.0,150.0,1.0,0.0
9789,58.0,0.0,360.0,1.0,0.0
9790,70.0,36.0,360.0,1.0,0.0
9791,41.0,240.0,150.0,4.0,0.0
9792,34.0,0.0,150.0,5.0,0.0
9793,46.0,0.0,150.0,5.0,0.0
9794,68.0,0.0,150.0,1.0,0.0
9795,56.0,240.0,150.0,1.0,0.0
9796,47.0,5.0,600.0,5.0,0.0
9797,35.0,235.0,600.0,5.0,0.0
9798,41.0,0.0,600.0,4.0,0.0
9799,58.0,204.0,150.0,1.0,0.0
9800,70.0,0.0,150.0,1.0,0.0
9801,67.0,0.0,360.0,1.0,0.0
9802,55.0,36.0,360.0,1.0,0.0
9803,41.0,0.0,150.0,4.0,0.0
9804,47.0,0.0,150.0,5.0,0.0
9805,35.0,240.0,150.0,5.0,0.0
9806,37.0,240.0,600.0,5.0,0.0
9807,49.0,5.0,600.0,5.0,0.0
9808,43.0,0.0,600.0,4.0,0.0
9809,53.0,0.0,150.0,1.0,0.0
9810,65.0,0.0,150.0,1.0,0.0
9811,59.0,240.0,150.0,2.0,0.0
9812,67.0,0.0,150.0,1.0,0.0
9813,55.0,199.0,150.0,1.0,0.0
9814,60.0,36.0,360.0,2.0,0.0
9815,64.0,0.0,360.0,1.0,0.0
9816,52.0,0.0,360.0,1.0,0.0
9817,43.0,240.0,150.0,4.0,0.0
9818,48.0,0.0,150.0,5.0,0.0
9819,36.0,0.0,150.0,5.0,0.0
9820,53.0,0.0,150.0,1.0,0.0
9821,49.0,235.0,600.0,5.0,0.0
9822,37.0,0.0,600.0,5.0,0.0
9823,43.0,5.0,600.0,4.0,0.0
9824,65.0,0.0,150.0,1.0,0.0
9825,59.0,240.0,150.0,2.0,0.0
9826,55.0,0.0,150.0,1.0,0.0
9827,67.0,204.0,150.0,1.0,0.0
9828,52.0,0.0,360.0,1.0,0.0
9829,60.0,0.0,360.0,2.0,0.0
9830,64.0,36.0,360.0,1.0,0.0
9831,43.0,0.0,150.0,4.0,0.0
9832,36.0,444.0,150.0,5.0,0.0
9833,48.0,0.0,150.0,5.0,0.0
9834,60.0,0.0,360.0,1.0,0.0
9835,48.0,408.0,360.0,1.0,0.0
9836,36.0,0.0,300.0,5.0,0.0
9837,24.0,912.0,300.0,5.0,0.0
9838,60.0,240.0,960.0,1.0,0.0
9839,39.0,240.0,240.0,5.0,0.0
9840,55.0,0.0,240.0,3.0,0.0
9841,47.0,120.0,240.0,3.0,0.0
9842,72.0,72.0,360.0,1.0,0.0
9843,48.0,288.0,180.0,3.0,0.0
9844,36.0,240.0,240.0,5.0,0.0
9845,58.0,20.0,240.0,3.0,0.0
9846,67.0,0.0,240.0,1.0,0.0
9847,70.0,136.0,60.0,1.0,0.0
9848,68.0,84.0,150.0,1.0,0.0
9849,47.0,156.0,240.0,3.0,0.0
9850,67.0,36.0,150.0,1.0,0.0
9851,48.0,288.0,180.0,3.0,0.0
9852,65.0,0.0,480.0,1.0,0.0
9853,41.0,240.0,240.0,5.0,0.0
9854,56.0,240.0,240.0,3.0,0.0
9855,60.0,240.0,480.0,1.0,0.0
9856,47.0,192.0,240.0,3.0,0.0
9857,48.0,48.0,180.0,3.0,0.0
9858,44.0,240.0,240.0,5.0,0.0
9859,53.0,240.0,240.0,3.0,0.0
9860,60.0,0.0,960.0,1.0,0.0
9861,47.0,192.0,240.0,3.0,0.0
9862,48.0,288.0,180.0,3.0,0.0
9863,39.0,240.0,240.0,5.0,0.0
9864,55.0,240.0,240.0,3.0,0.0
9865,72.0,72.0,360.0,1.0,0.0
9866,47.0,120.0,240.0,3.0,0.0
9867,48.0,528.0,180.0,3.0,0.0
9868,46.0,480.0,960.0,5.0,0.0
9869,67.0,0.0,240.0,1.0,0.0
9870,52.0,20.0,240.0,3.0,0.0
9871,70.0,136.0,60.0,1.0,0.0
9872,47.0,156.0,240.0,3.0,0.0
9873,68.0,84.0,150.0,1.0,0.0
9874,67.0,36.0,150.0,1.0,0.0
9875,48.0,48.0,180.0,3.0,0.0
9876,44.0,240.0,720.0,5.0,0.0
9877,65.0,0.0,480.0,1.0,0.0
9878,53.0,240.0,240.0,3.0,0.0
9879,47.0,0.0,240.0,3.0,0.0
9880,60.0,0.0,480.0,1.0,0.0
9881,48.0,240.0,240.0,3.0,0.0
9882,41.0,240.0,240.0,5.0,0.0
9883,56.0,240.0,240.0,3.0,0.0
9884,47.0,192.0,240.0,3.0,0.0
9885,65.0,240.0,960.0,1.0,0.0
9886,48.0,528.0,180.0,3.0,0.0
9887,45.0,120.0,720.0,5.0,0.0
9888,53.0,0.0,240.0,3.0,0.0
9889,47.0,0.0,240.0,3.0,0.0
9890,77.0,120.0,360.0,1.0,0.0
9891,48.0,240.0,240.0,3.0,0.0
9892,41.0,215.0,240.0,5.0,0.0
9893,72.0,25.0,210.0,1.0,0.0
9894,57.0,20.0,240.0,3.0,0.0
9895,75.0,136.0,60.0,1.0,0.0
9896,50.0,156.0,240.0,3.0,0.0
9897,73.0,84.0,150.0,1.0,0.0
9898,72.0,36.0,150.0,1.0,0.0
9899,51.0,288.0,180.0,3.0,0.0
9900,61.0,0.0,360.0,2.0,0.0
9901,72.0,120.0,240.0,1.0,0.0
9902,46.0,72.0,360.0,5.0,0.0
9903,65.0,0.0,360.0,2.0,0.0
9904,70.0,288.0,180.0,1.0,0.0
9905,65.0,0.0,360.0,2.0,0.0
9906,60.0,0.0,360.0,2.0,0.0
9907,70.0,120.0,240.0,1.0,0.0
9908,48.0,72.0,360.0,5.0,0.0
9909,68.0,288.0,180.0,1.0,0.0
9910,68.0,120.0,240.0,1.0,0.0
9911,49.0,0.0,360.0,5.0,0.0
9912,64.0,72.0,360.0,2.0,0.0
9913,58.0,0.0,360.0,2.0,0.0
9914,67.0,288.0,180.0,1.0,0.0
9915,67.0,120.0,240.0,1.0,0.0
9916,59.0,0.0,360.0,2.0,0.0
9917,56.0,72.0,360.0,2.0,0.0
9918,50.0,0.0,360.0,5.0,0.0
9919,65.0,288.0,180.0,1.0,0.0
9920,39.0,0.0,360.0,5.0,0.0
9921,65.0,120.0,240.0,1.0,0.0
9922,51.0,0.0,360.0,2.0,0.0
9923,60.0,0.0,360.0,2.0,0.0
9924,56.0,72.0,360.0,2.0,0.0
9925,63.0,288.0,180.0,1.0,0.0
9926,63.0,120.0,240.0,1.0,0.0
9927,55.0,0.0,360.0,2.0,0.0
9928,40.0,72.0,360.0,5.0,0.0
9929,58.0,0.0,360.0,2.0,0.0
9930,61.0,288.0,180.0,1.0,0.0
9931,61.0,120.0,240.0,1.0,0.0
9932,56.0,0.0,360.0,2.0,0.0
9933,41.0,72.0,360.0,5.0,0.0
9934,53.0,0.0,360.0,2.0,0.0
9935,60.0,288.0,180.0,1.0,0.0
9936,49.0,0.0,360.0,2.0,0.0
9937,43.0,72.0,360.0,5.0,0.0
9938,52.0,0.0,360.0,2.0,0.0
9939,60.0,120.0,240.0,1.0,0.0
9940,58.0,288.0,180.0,1.0,0.0
9941,44.0,0.0,360.0,5.0,0.0
9942,48.0,72.0,360.0,2.0,0.0
9943,53.0,0.0,360.0,2.0,0.0
9944,58.0,120.0,240.0,1.0,0.0
9945,56.0,768.0,180.0,1.0,0.0
9946,50.0,72.0,360.0,2.0,0.0
9947,47.0,0.0,360.0,5.0,0.0
9948,55.0,120.0,240.0,1.0,0.0
9949,53.0,768.0,180.0,1.0,0.0
9950,52.0,120.0,240.0,1.0,0.0
9951,48.0,840.0,360.0,5.0,0.0
9952,60.0,120.0,960.0,1.0,0.0
9953,36.0,480.0,360.0,5.0,0.0
9954,43.0,0.0,360.0,5.0,0.0
9955,28.0,0.0,360.0,5.0,0.0
9956,72.0,156.0,960.0,1.0,0.0
9957,60.0,0.0,960.0,1.0,0.0
9958,40.0,476.0,360.0,5.0,0.0
9959,38.0,4.0,390.0,5.0,0.0
9960,48.0,0.0,390.0,5.0,0.0
9961,71.0,0.0,480.0,1.0,0.0
9962,55.0,120.0,360.0,5.0,0.0
9963,50.0,204.0,150.0,5.0,0.0
9964,70.0,36.0,360.0,1.0,0.0
9965,84.0,0.0,360.0,1.0,0.0
9966,52.0,444.0,150.0,5.0,0.0
9967,48.0,85.0,360.0,5.0,0.0
9968,79.0,0.0,210.0,1.0,0.0
9969,67.0,55.0,210.0,1.0,0.0
9970,82.0,136.0,60.0,1.0,0.0
9971,46.0,240.0,150.0,5.0,0.0
9972,80.0,0.0,150.0,1.0,0.0
9973,68.0,0.0,150.0,1.0,0.0
9974,79.0,444.0,150.0,1.0,0.0
9975,67.0,0.0,150.0,1.0,0.0
9976,48.0,0.0,150.0,5.0,0.0
9977,44.0,120.0,360.0,5.0,0.0
9978,65.0,156.0,480.0,1.0,0.0
9979,77.0,0.0,480.0,1.0,0.0
9980,43.0,204.0,150.0,5.0,0.0
9981,60.0,0.0,360.0,1.0,0.0
9982,72.0,36.0,360.0,1.0,0.0
9983,44.0,444.0,150.0,5.0,0.0
9984,41.0,480.0,360.0,5.0,0.0
9985,73.0,0.0,960.0,1.0,0.0
9986,29.0,480.0,360.0,5.0,0.0
9987,41.0,0.0,360.0,5.0,0.0
9988,61.0,0.0,960.0,1.0,0.0
9989,41.0,0.0,390.0,5.0,0.0
9990,49.0,0.0,390.0,5.0,0.0
9991,56.0,120.0,360.0,5.0,0.0
9992,72.0,156.0,480.0,1.0,0.0
9993,51.0,204.0,150.0,5.0,0.0
9994,71.0,0.0,360.0,1.0,0.0
9995,85.0,36.0,360.0,1.0,0.0
9996,53.0,444.0,150.0,5.0,0.0
9997,49.0,75.0,360.0,5.0,0.0
9998,80.0,60.0,210.0,1.0,0.0
9999,68.0,5.0,180.0,1.0,0.0
10000,83.0,136.0,60.0,1.0,0.0
10001,47.0,240.0,150.0,5.0,0.0
10002,82.0,0.0,150.0,1.0,0.0
10003,70.0,0.0,150.0,1.0,0.0
10004,80.0,0.0,150.0,1.0,0.0
10005,68.0,444.0,150.0,1.0,0.0
10006,50.0,0.0,150.0,5.0,0.0
10007,67.0,0.0,480.0,1.0,0.0
10008,79.0,156.0,480.0,1.0,0.0
10009,46.0,120.0,360.0,5.0,0.0
10010,58.0,36.0,360.0,1.0,0.0
10011,70.0,0.0,360.0,1.0,0.0
10012,49.0,204.0,150.0,5.0,0.0
10013,52.0,444.0,150.0,5.0,0.0
10014,37.0,80.0,360.0,5.0,0.0
10015,66.0,0.0,210.0,1.0,0.0
10016,78.0,60.0,210.0,1.0,0.0
10017,81.0,136.0,60.0,1.0,0.0
10018,48.0,0.0,150.0,5.0,0.0
10019,68.0,240.0,150.0,1.0,0.0
10020,80.0,0.0,150.0,1.0,0.0
10021,51.0,0.0,150.0,5.0,0.0
10022,66.0,444.0,150.0,1.0,0.0
10023,78.0,0.0,150.0,1.0,0.0
10024,65.0,156.0,480.0,1.0,0.0
10025,37.0,120.0,360.0,5.0,0.0
10026,77.0,0.0,480.0,1.0,0.0
10027,59.0,0.0,360.0,1.0,0.0
10028,71.0,36.0,360.0,1.0,0.0
10029,44.0,204.0,150.0,5.0,0.0
10030,49.0,444.0,150.0,5.0,0.0
10031,37.0,36.0,360.0,5.0,0.0
10032,77.0,240.0,150.0,1.0,0.0
10033,65.0,0.0,150.0,1.0,0.0
10034,46.0,240.0,150.0,5.0,0.0
10035,78.0,0.0,150.0,1.0,0.0
10036,66.0,0.0,150.0,1.0,0.0
10037,58.0,0.0,150.0,1.0,0.0
10038,70.0,0.0,150.0,1.0,0.0
10039,49.0,444.0,150.0,5.0,0.0
10040,59.0,156.0,480.0,1.0,0.0
10041,71.0,0.0,480.0,1.0,0.0
10042,37.0,120.0,360.0,5.0,0.0
10043,44.0,204.0,150.0,5.0,0.0
10044,65.0,36.0,360.0,1.0,0.0
10045,77.0,0.0,360.0,1.0,0.0
10046,49.0,444.0,150.0,5.0,0.0
10047,37.0,36.0,360.0,5.0,0.0
10048,65.0,240.0,150.0,1.0,0.0
10049,77.0,0.0,150.0,1.0,0.0
10050,66.0,0.0,150.0,1.0,0.0
10051,78.0,240.0,150.0,1.0,0.0
10052,46.0,0.0,150.0,5.0,0.0
10053,49.0,0.0,150.0,5.0,0.0
10054,58.0,444.0,150.0,1.0,0.0
10055,70.0,0.0,150.0,1.0,0.0
10056,71.0,0.0,480.0,1.0,0.0
10057,59.0,156.0,480.0,1.0,0.0
10058,37.0,120.0,360.0,5.0,0.0
10059,44.0,204.0,150.0,5.0,0.0
10060,77.0,0.0,360.0,1.0,0.0
10061,65.0,36.0,360.0,1.0,0.0
10062,49.0,444.0,150.0,5.0,0.0
10063,37.0,36.0,360.0,5.0,0.0
10064,65.0,240.0,150.0,1.0,0.0
10065,77.0,0.0,150.0,1.0,0.0
10066,78.0,0.0,150.0,1.0,0.0
10067,66.0,0.0,150.0,1.0,0.0
10068,46.0,240.0,150.0,5.0,0.0
10069,49.0,0.0,150.0,5.0,0.0
10070,70.0,244.0,150.0,1.0,0.0
10071,58.0,0.0,150.0,1.0,0.0
10072,59.0,0.0,360.0,1.0,0.0
10073,71.0,120.0,360.0,1.0,0.0
10074,37.0,200.0,150.0,5.0,0.0
10075,44.0,128.0,150.0,5.0,0.0
10076,49.0,352.0,120.0,5.0,0.0
10077,32.0,128.0,150.0,5.0,0.0
10078,37.0,232.0,120.0,5.0,0.0
10079,65.0,0.0,360.0,1.0,0.0
10080,72.0,120.0,360.0,2.0,0.0
10081,77.0,0.0,360.0,1.0,0.0
10082,44.0,128.0,150.0,5.0,0.0
10083,49.0,352.0,120.0,5.0,0.0
10084,44.0,128.0,150.0,5.0,0.0
10085,32.0,0.0,150.0,5.0,0.0
10086,37.0,0.0,120.0,5.0,0.0
10087,49.0,352.0,120.0,5.0,0.0
10088,41.0,128.0,150.0,5.0,0.0
10089,53.0,0.0,150.0,5.0,0.0
10090,56.0,0.0,120.0,5.0,0.0
10091,44.0,352.0,120.0,5.0,0.0
10092,49.0,128.0,150.0,5.0,0.0
10093,61.0,0.0,150.0,5.0,0.0
10094,53.0,352.0,120.0,5.0,0.0
10095,65.0,0.0,120.0,5.0,0.0
10096,56.0,0.0,150.0,5.0,0.0
10097,68.0,128.0,150.0,5.0,0.0
10098,73.0,352.0,120.0,5.0,0.0
10099,61.0,0.0,120.0,5.0,0.0
10100,37.0,128.0,150.0,5.0,0.0
10101,42.0,232.0,120.0,5.0,0.0
10102,73.0,0.0,360.0,1.0,0.0
10103,61.0,0.0,360.0,1.0,0.0
10104,66.0,120.0,360.0,2.0,0.0
10105,69.0,0.0,360.0,2.0,0.0
10106,45.0,128.0,150.0,5.0,0.0
10107,49.0,352.0,120.0,5.0,0.0
10108,37.0,128.0,150.0,5.0,0.0
10109,42.0,232.0,120.0,5.0,0.0
10110,78.0,0.0,360.0,1.0,0.0
10111,73.0,0.0,360.0,2.0,0.0
10112,69.0,0.0,360.0,2.0,0.0
10113,66.0,120.0,360.0,1.0,0.0
10114,45.0,128.0,150.0,5.0,0.0
10115,49.0,352.0,120.0,5.0,0.0
10116,37.0,128.0,150.0,5.0,0.0
10117,42.0,352.0,120.0,5.0,0.0
10118,45.0,0.0,150.0,5.0,0.0
10119,57.0,128.0,150.0,5.0,0.0
10120,61.0,352.0,120.0,5.0,0.0
10121,49.0,0.0,120.0,5.0,0.0
10122,54.0,128.0,150.0,5.0,0.0
10123,66.0,0.0,150.0,5.0,0.0
10124,69.0,352.0,120.0,5.0,0.0
10125,57.0,0.0,120.0,5.0,0.0
10126,61.0,0.0,150.0,5.0,0.0
10127,73.0,128.0,150.0,5.0,0.0
10128,66.0,352.0,120.0,5.0,0.0
10129,78.0,0.0,120.0,5.0,0.0
10130,34.0,128.0,150.0,5.0,0.0
10131,67.0,0.0,360.0,1.0,0.0
10132,79.0,120.0,360.0,1.0,0.0
10133,40.0,232.0,120.0,5.0,0.0
10134,73.0,0.0,360.0,2.0,0.0
10135,76.0,0.0,360.0,2.0,0.0
10136,46.0,128.0,150.0,5.0,0.0
10137,52.0,352.0,120.0,5.0,0.0
10138,35.0,128.0,150.0,5.0,0.0
10139,77.0,0.0,360.0,2.0,0.0
10140,41.0,232.0,120.0,5.0,0.0
10141,68.0,0.0,360.0,1.0,0.0
10142,80.0,120.0,360.0,1.0,0.0
10143,74.0,0.0,360.0,2.0,0.0
10144,47.0,128.0,150.0,5.0,0.0
10145,53.0,352.0,120.0,5.0,0.0
10146,36.0,128.0,150.0,5.0,0.0
10147,48.0,232.0,120.0,5.0,0.0
10148,81.0,0.0,360.0,1.0,0.0
10149,69.0,0.0,360.0,1.0,0.0
10150,77.0,120.0,360.0,2.0,0.0
10151,37.0,720.0,150.0,5.0,0.0
10152,49.0,0.0,720.0,5.0,0.0
10153,82.0,0.0,720.0,1.0,0.0
10154,70.0,600.0,720.0,1.0,0.0
10155,77.0,0.0,720.0,2.0,0.0
10156,37.0,0.0,720.0,5.0,0.0
10157,84.0,0.0,360.0,1.0,0.0
10158,41.0,480.0,360.0,5.0,0.0
10159,45.0,0.0,360.0,5.0,0.0
10160,33.0,0.0,360.0,5.0,0.0
10161,72.0,0.0,360.0,1.0,0.0
10162,77.0,0.0,360.0,2.0,0.0
10163,34.0,1920.0,360.0,5.0,0.0
10164,85.0,0.0,360.0,1.0,0.0
10165,73.0,0.0,360.0,1.0,0.0
10166,77.0,0.0,360.0,2.0,0.0
10167,41.0,0.0,360.0,5.0,0.0
10168,46.0,0.0,360.0,5.0,0.0
10169,36.0,1740.0,390.0,5.0,0.0
10170,40.0,0.0,390.0,5.0,0.0
10171,43.0,3.0,360.0,5.0,0.0
10172,67.0,0.0,360.0,2.0,0.0
10173,48.0,0.0,360.0,5.0,0.0
10174,76.0,0.0,360.0,1.0,0.0
10175,64.0,0.0,360.0,1.0,0.0
10176,70.0,0.0,360.0,2.0,0.0
10177,29.0,8.0,210.0,5.0,0.0
10178,36.0,1.0,210.0,5.0,0.0
10179,69.0,0.0,1440.0,1.0,0.0
10180,41.0,240.0,180.0,5.0,0.0
10181,72.0,0.0,1440.0,1.0,0.0
10182,51.0,0.0,180.0,5.0,0.0
10183,63.0,240.0,180.0,5.0,0.0
10184,51.0,240.0,180.0,5.0,0.0
10185,63.0,0.0,180.0,5.0,0.0
10186,63.0,0.0,180.0,5.0,0.0
10187,51.0,528.0,180.0,5.0,0.0
10188,51.0,432.0,960.0,5.0,0.0
10189,63.0,0.0,960.0,5.0,0.0
10190,65.0,0.0,15.0,1.0,0.0
10191,75.0,0.0,480.0,1.0,0.0
10192,77.0,480.0,15.0,1.0,0.0
10193,65.0,0.0,15.0,1.0,0.0
10194,77.0,0.0,15.0,1.0,0.0
10195,73.0,480.0,960.0,1.0,0.0
10196,49.0,240.0,180.0,5.0,0.0
10197,61.0,0.0,180.0,5.0,0.0
10198,49.0,0.0,180.0,5.0,0.0
10199,61.0,240.0,180.0,5.0,0.0
10200,61.0,48.0,180.0,5.0,0.0
10201,49.0,0.0,180.0,5.0,0.0
10202,58.0,0.0,480.0,5.0,0.0
10203,46.0,435.0,480.0,5.0,0.0
10204,70.0,0.0,480.0,1.0,0.0
10205,65.0,0.0,15.0,1.0,0.0
10206,72.0,0.0,450.0,1.0,0.0
10207,77.0,0.0,15.0,1.0,0.0
10208,60.0,0.0,450.0,5.0,0.0
10209,48.0,3.0,420.0,5.0,0.0
10210,41.0,5.0,240.0,5.0,0.0
10211,45.0,0.0,210.0,5.0,0.0
10212,48.0,0.0,210.0,5.0,0.0
10213,53.0,240.0,180.0,5.0,0.0
10214,72.0,0.0,1440.0,1.0,0.0
10215,69.0,0.0,1440.0,1.0,0.0
10216,65.0,0.0,1440.0,1.0,0.0
10217,77.0,480.0,1440.0,1.0,0.0
10218,63.0,0.0,180.0,5.0,0.0
10219,51.0,240.0,180.0,5.0,0.0
10220,63.0,240.0,180.0,5.0,0.0
10221,51.0,0.0,180.0,5.0,0.0
10222,51.0,0.0,180.0,5.0,0.0
10223,63.0,528.0,180.0,5.0,0.0
10224,63.0,0.0,960.0,5.0,0.0
10225,51.0,432.0,960.0,5.0,0.0
10226,75.0,0.0,480.0,1.0,0.0
10227,65.0,0.0,480.0,1.0,0.0
10228,77.0,0.0,480.0,1.0,0.0
10229,73.0,480.0,960.0,1.0,0.0
10230,65.0,0.0,1440.0,1.0,0.0
10231,49.0,240.0,180.0,5.0,0.0
10232,61.0,0.0,180.0,5.0,0.0
10233,49.0,240.0,180.0,5.0,0.0
10234,61.0,0.0,180.0,5.0,0.0
10235,61.0,0.0,180.0,5.0,0.0
10236,49.0,48.0,180.0,5.0,0.0
10237,70.0,0.0,480.0,1.0,0.0
10238,46.0,480.0,480.0,5.0,0.0
10239,58.0,0.0,480.0,5.0,0.0
10240,77.0,0.0,15.0,1.0,0.0
10241,72.0,0.0,480.0,1.0,0.0
10242,65.0,0.0,480.0,1.0,0.0
10243,60.0,0.0,480.0,5.0,0.0
10244,48.0,960.0,480.0,5.0,0.0
10245,69.0,0.0,1920.0,1.0,0.0
10246,77.0,960.0,1920.0,1.0,0.0
10247,72.0,0.0,1920.0,1.0,0.0
10248,65.0,960.0,960.0,1.0,0.0
10249,45.0,0.0,1920.0,5.0,0.0
10250,48.0,0.0,1920.0,5.0,0.0
10251,64.0,0.0,960.0,1.0,0.0
10252,52.0,0.0,960.0,5.0,0.0
10253,51.0,960.0,960.0,5.0,0.0
10254,53.0,0.0,15.0,5.0,0.0
10255,41.0,0.0,15.0,5.0,0.0
10256,46.0,960.0,1920.0,5.0,0.0
10257,63.0,0.0,960.0,1.0,0.0
10258,77.0,0.0,1920.0,1.0,0.0
10259,70.0,0.0,1920.0,1.0,0.0
10260,49.0,0.0,960.0,5.0,0.0
10261,61.0,0.0,960.0,1.0,0.0
10262,53.0,0.0,15.0,5.0,0.0
10263,48.0,0.0,1920.0,5.0,0.0
10264,41.0,0.0,15.0,5.0,0.0
10265,57.0,0.0,1920.0,1.0,0.0
10266,65.0,0.0,15.0,1.0,0.0
10267,60.0,0.0,1920.0,1.0,0.0
10268,52.0,0.0,960.0,5.0,0.0
10269,40.0,0.0,960.0,5.0,0.0
10270,41.0,915.0,960.0,5.0,0.0
10271,46.0,7.0,1860.0,5.0,0.0
10272,51.0,0.0,960.0,5.0,0.0
10273,39.0,0.0,960.0,5.0,0.0
10274,65.0,960.0,15.0,1.0,0.0
10275,58.0,0.0,1890.0,1.0,0.0
10276,53.0,0.0,1890.0,1.0,0.0
10277,37.0,0.0,900.0,5.0,0.0
10278,49.0,0.0,930.0,5.0,0.0
10279,29.0,2.0,1920.0,5.0,0.0
10280,36.0,0.0,1890.0,5.0,0.0
10281,41.0,3.0,1890.0,5.0,0.0
10282,57.0,4.0,1890.0,1.0,0.0
10283,48.0,0.0,1890.0,5.0,0.0
10284,60.0,1879.0,1890.0,1.0,0.0
10285,53.0,2.0,1890.0,1.0,0.0
10286,65.0,0.0,1890.0,1.0,0.0
10287,29.0,0.0,1890.0,5.0,0.0
10288,36.0,15.0,1860.0,5.0,0.0
10289,41.0,15.0,1860.0,5.0,0.0
10290,60.0,4.0,1890.0,1.0,0.0
10291,65.0,1918.0,1890.0,1.0,0.0
10292,57.0,3.0,1860.0,1.0,0.0
10293,48.0,0.0,1890.0,5.0,0.0
10294,53.0,0.0,1890.0,1.0,0.0
10295,29.0,20.0,1920.0,5.0,0.0
10296,36.0,10.0,1920.0,5.0,0.0
10297,41.0,30.0,1920.0,5.0,0.0
10298,60.0,16.0,3810.0,1.0,0.0
10299,53.0,3.0,3780.0,1.0,0.0
10300,65.0,0.0,3810.0,1.0,0.0
10301,57.0,4.0,3810.0,1.0,0.0
10302,48.0,1855.0,1920.0,5.0,0.0
10303,27.0,1897.0,1890.0,5.0,0.0
10304,57.0,0.0,1890.0,1.0,0.0
10305,60.0,0.0,1890.0,1.0,0.0
10306,66.0,17.0,1890.0,1.0,0.0
10307,33.0,2.0,1890.0,5.0,0.0
10308,54.0,3.0,1860.0,1.0,0.0
10309,38.0,3.0,1890.0,5.0,0.0
10310,48.0,0.0,1890.0,5.0,0.0
10311,26.0,1891.0,15.0,5.0,0.0
10312,54.0,17.0,1890.0,1.0,0.0
10313,57.0,7.0,1860.0,1.0,0.0
10314,60.0,0.0,1860.0,1.0,0.0
10315,66.0,0.0,1890.0,1.0,0.0
10316,33.0,0.0,1890.0,5.0,0.0
10317,38.0,3.0,1890.0,5.0,0.0
10318,48.0,2862.0,1890.0,5.0,0.0
10319,33.0,10.0,2880.0,5.0,0.0
10320,38.0,10.0,2880.0,5.0,0.0
10321,60.0,0.0,2880.0,1.0,0.0
10322,57.0,0.0,2880.0,1.0,0.0
10323,54.0,0.0,2880.0,1.0,0.0
10324,66.0,960.0,2880.0,1.0,0.0
10325,48.0,0.0,2880.0,5.0,0.0
10326,70.0,480.0,480.0,1.0,0.0
10327,69.0,0.0,960.0,1.0,0.0
10328,43.0,228.0,240.0,3.0,0.0
10329,50.0,252.0,240.0,3.0,0.0
10330,55.0,480.0,240.0,3.0,0.0
10331,62.0,228.0,480.0,1.0,0.0
10332,46.0,0.0,240.0,3.0,0.0
10333,64.0,480.0,480.0,1.0,0.0
10334,50.0,252.0,240.0,3.0,0.0
10335,56.0,0.0,720.0,4.0,0.0
10336,57.0,0.0,1440.0,1.0,0.0
10337,45.0,456.0,240.0,3.0,0.0
10338,55.0,24.0,450.0,4.0,0.0
10339,45.0,456.0,240.0,3.0,0.0
10340,54.0,24.0,450.0,4.0,0.0
10341,45.0,456.0,240.0,3.0,0.0
10342,62.0,456.0,480.0,1.0,0.0
10343,53.0,24.0,450.0,4.0,0.0
10344,45.0,0.0,240.0,3.0,0.0
10345,52.0,24.0,450.0,4.0,0.0
10346,61.0,456.0,480.0,1.0,0.0
10347,45.0,0.0,240.0,3.0,0.0
10348,62.0,456.0,480.0,1.0,0.0
10349,53.0,24.0,450.0,4.0,0.0
10350,45.0,0.0,240.0,3.0,0.0
10351,64.0,456.0,480.0,1.0,0.0
10352,49.0,24.0,450.0,4.0,0.0
10353,45.0,0.0,240.0,3.0,0.0
10354,65.0,456.0,480.0,1.0,0.0
10355,50.0,24.0,450.0,4.0,0.0
10356,45.0,0.0,240.0,3.0,0.0
10357,69.0,456.0,480.0,1.0,0.0
10358,62.0,0.0,960.0,2.0,0.0
10359,60.0,24.0,450.0,4.0,0.0
10360,45.0,0.0,240.0,3.0,0.0
10361,58.0,24.0,450.0,4.0,0.0
10362,67.0,0.0,480.0,1.0,0.0
10363,45.0,456.0,240.0,3.0,0.0
10364,61.0,936.0,480.0,2.0,0.0
10365,64.0,0.0,480.0,1.0,0.0
10366,57.0,24.0,450.0,4.0,0.0
10367,45.0,0.0,240.0,3.0,0.0
10368,70.0,456.0,1440.0,1.0,0.0
10369,58.0,24.0,450.0,4.0,0.0
10370,46.0,456.0,240.0,3.0,0.0
10371,58.0,24.0,450.0,4.0,0.0
10372,46.0,0.0,240.0,3.0,0.0
10373,63.0,0.0,480.0,1.0,0.0
10374,55.0,24.0,450.0,4.0,0.0
10375,46.0,456.0,240.0,3.0,0.0
10376,56.0,24.0,450.0,4.0,0.0
10377,65.0,0.0,480.0,1.0,0.0
10378,46.0,456.0,240.0,3.0,0.0
10379,58.0,0.0,1920.0,1.0,0.0
10380,50.0,24.0,450.0,4.0,0.0
10381,46.0,456.0,240.0,3.0,0.0
10382,50.0,24.0,450.0,4.0,0.0
10383,44.0,456.0,240.0,3.0,0.0
10384,51.0,24.0,450.0,4.0,0.0
10385,43.0,456.0,240.0,3.0,0.0
10386,64.0,80.0,480.0,1.0,0.0
10387,55.0,24.0,450.0,4.0,0.0
10388,43.0,0.0,240.0,3.0,0.0
10389,53.0,24.0,450.0,4.0,0.0
10390,62.0,80.0,90.0,1.0,0.0
10391,57.0,456.0,1440.0,2.0,0.0
10392,64.0,80.0,90.0,1.0,0.0
10393,62.0,80.0,90.0,1.0,0.0
10394,45.0,0.0,240.0,3.0,0.0
10395,64.0,80.0,90.0,1.0,0.0
10396,62.0,56.0,90.0,1.0,0.0
10397,64.0,80.0,90.0,1.0,0.0
10398,62.0,80.0,90.0,1.0,0.0
10399,53.0,24.0,450.0,4.0,0.0
10400,64.0,80.0,90.0,1.0,0.0
10401,62.0,120.0,90.0,1.0,0.0
10402,61.0,96.0,120.0,1.0,0.0
10403,45.0,456.0,240.0,3.0,0.0
10404,62.0,0.0,120.0,1.0,0.0
10405,64.0,0.0,480.0,1.0,0.0
10406,55.0,24.0,450.0,4.0,0.0
10407,45.0,0.0,240.0,3.0,0.0
10408,61.0,240.0,480.0,2.0,0.0
10409,55.0,24.0,450.0,4.0,0.0
10410,45.0,0.0,240.0,3.0,0.0
10411,69.0,0.0,15.0,1.0,0.0
10412,38.0,240.0,240.0,4.0,0.0
10413,62.0,0.0,960.0,2.0,0.0
10414,45.0,240.0,240.0,4.0,0.0
10415,53.0,240.0,240.0,4.0,0.0
10416,50.0,240.0,240.0,4.0,0.0
10417,62.0,1149.0,240.0,1.0,0.0
10418,74.0,429.0,1440.0,1.0,0.0
10419,54.0,51.0,420.0,4.0,0.0
10420,50.0,429.0,240.0,3.0,0.0
10421,57.0,51.0,420.0,4.0,0.0
10422,50.0,0.0,240.0,3.0,0.0
10423,58.0,51.0,420.0,4.0,0.0
10424,67.0,429.0,480.0,1.0,0.0
10425,50.0,0.0,240.0,3.0,0.0
10426,69.0,429.0,480.0,1.0,0.0
10427,60.0,51.0,420.0,4.0,0.0
10428,50.0,0.0,240.0,3.0,0.0
10429,62.0,0.0,1440.0,1.0,0.0
10430,61.0,51.0,420.0,4.0,0.0
10431,50.0,429.0,240.0,3.0,0.0
10432,60.0,51.0,420.0,4.0,0.0
10433,50.0,429.0,240.0,3.0,0.0
10434,59.0,51.0,420.0,4.0,0.0
10435,50.0,429.0,240.0,3.0,0.0
10436,58.0,51.0,420.0,4.0,0.0
10437,67.0,0.0,480.0,1.0,0.0
10438,50.0,429.0,240.0,3.0,0.0
10439,66.0,429.0,480.0,1.0,0.0
10440,57.0,51.0,420.0,4.0,0.0
10441,50.0,0.0,240.0,3.0,0.0
10442,58.0,51.0,420.0,4.0,0.0
10443,67.0,0.0,480.0,1.0,0.0
10444,50.0,429.0,240.0,3.0,0.0
10445,54.0,51.0,420.0,4.0,0.0
10446,69.0,429.0,480.0,1.0,0.0
10447,50.0,0.0,240.0,3.0,0.0
10448,70.0,429.0,480.0,1.0,0.0
10449,55.0,51.0,420.0,4.0,0.0
10450,50.0,0.0,240.0,3.0,0.0
10451,69.0,0.0,960.0,2.0,0.0
10452,62.0,51.0,420.0,4.0,0.0
10453,72.0,0.0,960.0,1.0,0.0
10454,50.0,429.0,240.0,3.0,0.0
10455,63.0,51.0,420.0,4.0,0.0
10456,51.0,429.0,240.0,3.0,0.0
10457,71.0,0.0,480.0,1.0,0.0
10458,68.0,429.0,480.0,2.0,0.0
10459,64.0,51.0,420.0,4.0,0.0
10460,52.0,0.0,240.0,3.0,0.0
10461,64.0,51.0,420.0,4.0,0.0
10462,77.0,429.0,480.0,1.0,0.0
10463,52.0,0.0,240.0,3.0,0.0
10464,64.0,51.0,420.0,4.0,0.0
10465,76.0,429.0,960.0,1.0,0.0
10466,52.0,429.0,240.0,3.0,0.0
10467,64.0,51.0,420.0,4.0,0.0
10468,52.0,0.0,240.0,3.0,0.0
10469,69.0,429.0,480.0,1.0,0.0
10470,60.0,51.0,420.0,4.0,0.0
10471,52.0,0.0,240.0,3.0,0.0
10472,62.0,51.0,420.0,4.0,0.0
10473,71.0,0.0,480.0,1.0,0.0
10474,52.0,429.0,240.0,3.0,0.0
10475,63.0,51.0,420.0,4.0,0.0
10476,64.0,429.0,1440.0,1.0,0.0
10477,52.0,429.0,240.0,3.0,0.0
10478,62.0,51.0,420.0,4.0,0.0
10479,52.0,429.0,240.0,3.0,0.0
10480,61.0,51.0,420.0,4.0,0.0
10481,52.0,0.0,240.0,3.0,0.0
10482,69.0,0.0,480.0,1.0,0.0
10483,60.0,51.0,420.0,4.0,0.0
10484,52.0,429.0,240.0,3.0,0.0
10485,59.0,51.0,420.0,4.0,0.0
10486,68.0,0.0,480.0,1.0,0.0
10487,52.0,429.0,240.0,3.0,0.0
10488,60.0,51.0,420.0,4.0,0.0
10489,69.0,429.0,480.0,1.0,0.0
10490,52.0,0.0,240.0,3.0,0.0
10491,71.0,0.0,480.0,1.0,0.0
10492,56.0,51.0,420.0,4.0,0.0
10493,52.0,429.0,240.0,3.0,0.0
10494,72.0,429.0,480.0,1.0,0.0
10495,57.0,51.0,420.0,4.0,0.0
10496,52.0,0.0,240.0,3.0,0.0
10497,64.0,51.0,420.0,4.0,0.0
10498,71.0,429.0,1440.0,2.0,0.0
10499,74.0,0.0,1440.0,1.0,0.0
10500,52.0,429.0,240.0,3.0,0.0
10501,65.0,51.0,420.0,4.0,0.0
10502,53.0,429.0,240.0,3.0,0.0
10503,66.0,51.0,420.0,4.0,0.0
10504,54.0,0.0,240.0,3.0,0.0
10505,67.0,51.0,420.0,4.0,0.0
10506,70.0,0.0,480.0,2.0,0.0
10507,73.0,0.0,480.0,1.0,0.0
10508,55.0,429.0,240.0,3.0,0.0
10509,73.0,0.0,1440.0,2.0,0.0
10510,68.0,51.0,420.0,4.0,0.0
10511,76.0,429.0,1440.0,1.0,0.0
10512,56.0,429.0,240.0,3.0,0.0
10513,69.0,51.0,420.0,4.0,0.0
10514,57.0,429.0,240.0,3.0,0.0
10515,70.0,51.0,420.0,4.0,0.0
10516,58.0,0.0,240.0,3.0,0.0
10517,69.0,51.0,420.0,4.0,0.0
10518,79.0,240.0,480.0,1.0,0.0
10519,76.0,0.0,480.0,2.0,0.0
10520,57.0,0.0,480.0,3.0,0.0
10521,82.0,0.0,240.0,1.0,0.0
10522,64.0,240.0,240.0,4.0,0.0
10523,61.0,0.0,240.0,5.0,0.0
10524,79.0,240.0,240.0,1.0,0.0
10525,76.0,240.0,240.0,1.0,0.0
10526,73.0,200.0,240.0,1.0,0.0
10527,45.0,20.0,240.0,5.0,0.0
10528,49.0,10.0,240.0,5.0,0.0
10529,52.0,10.0,240.0,5.0,0.0
10530,55.0,0.0,240.0,5.0,0.0
10531,70.0,240.0,240.0,1.0,0.0
10532,67.0,240.0,240.0,1.0,0.0
10533,64.0,240.0,240.0,1.0,0.0
10534,61.0,200.0,240.0,1.0,0.0
10535,36.0,20.0,240.0,5.0,0.0
10536,40.0,10.0,240.0,5.0,0.0
10537,43.0,10.0,240.0,5.0,0.0
10538,58.0,0.0,240.0,1.0,0.0
10539,46.0,192.0,240.0,5.0,0.0
10540,57.0,288.0,180.0,1.0,0.0
10541,70.0,192.0,240.0,1.0,0.0
10542,46.0,0.0,240.0,5.0,0.0
10543,45.0,0.0,180.0,5.0,0.0
10544,69.0,288.0,180.0,1.0,0.0
10545,46.0,0.0,240.0,5.0,0.0
10546,70.0,192.0,240.0,1.0,0.0
10547,45.0,288.0,180.0,5.0,0.0
10548,69.0,0.0,180.0,1.0,0.0
10549,70.0,456.0,960.0,1.0,0.0
10550,46.0,192.0,240.0,5.0,0.0
10551,45.0,504.0,180.0,5.0,0.0
10552,49.0,24.0,450.0,4.0,0.0
10553,45.0,0.0,240.0,3.0,0.0
10554,52.0,24.0,450.0,4.0,0.0
10555,69.0,0.0,480.0,1.0,0.0
10556,45.0,456.0,240.0,3.0,0.0
10557,53.0,24.0,450.0,4.0,0.0
10558,62.0,456.0,480.0,1.0,0.0
10559,45.0,0.0,240.0,3.0,0.0
10560,55.0,24.0,450.0,4.0,0.0
10561,64.0,0.0,480.0,1.0,0.0
10562,45.0,456.0,240.0,3.0,0.0
10563,56.0,24.0,450.0,4.0,0.0
10564,57.0,0.0,1440.0,1.0,0.0
10565,45.0,456.0,240.0,3.0,0.0
10566,55.0,24.0,450.0,4.0,0.0
10567,45.0,456.0,240.0,3.0,0.0
10568,54.0,24.0,450.0,4.0,0.0
10569,45.0,456.0,240.0,3.0,0.0
10570,62.0,0.0,480.0,1.0,0.0
10571,53.0,24.0,450.0,4.0,0.0
10572,45.0,456.0,240.0,3.0,0.0
10573,52.0,24.0,450.0,4.0,0.0
10574,61.0,456.0,480.0,1.0,0.0
10575,45.0,0.0,240.0,3.0,0.0
10576,62.0,456.0,480.0,1.0,0.0
10577,53.0,24.0,450.0,4.0,0.0
10578,45.0,0.0,240.0,3.0,0.0
10579,49.0,24.0,450.0,4.0,0.0
10580,64.0,456.0,480.0,1.0,0.0
10581,45.0,0.0,240.0,3.0,0.0
10582,50.0,24.0,450.0,4.0,0.0
10583,65.0,0.0,480.0,1.0,0.0
10584,45.0,456.0,240.0,3.0,0.0
10585,62.0,456.0,960.0,2.0,0.0
10586,69.0,456.0,480.0,1.0,0.0
10587,60.0,24.0,450.0,4.0,0.0
10588,46.0,0.0,240.0,3.0,0.0
10589,67.0,0.0,480.0,1.0,0.0
10590,58.0,24.0,450.0,4.0,0.0
10591,46.0,0.0,240.0,3.0,0.0
10592,64.0,0.0,480.0,1.0,0.0
10593,60.0,0.0,480.0,2.0,0.0
10594,55.0,24.0,450.0,4.0,0.0
10595,48.0,456.0,240.0,3.0,0.0
10596,55.0,24.0,450.0,4.0,0.0
10597,64.0,456.0,960.0,1.0,0.0
10598,48.0,456.0,240.0,3.0,0.0
10599,56.0,24.0,450.0,4.0,0.0
10600,48.0,0.0,240.0,3.0,0.0
10601,65.0,0.0,480.0,1.0,0.0
10602,57.0,24.0,450.0,4.0,0.0
10603,48.0,456.0,240.0,3.0,0.0
10604,67.0,0.0,480.0,1.0,0.0
10605,52.0,24.0,450.0,4.0,0.0
10606,48.0,456.0,240.0,3.0,0.0
10607,69.0,429.0,480.0,1.0,0.0
10608,53.0,24.0,450.0,4.0,0.0
10609,48.0,0.0,240.0,3.0,0.0
10610,65.0,0.0,960.0,2.0,0.0
10611,72.0,429.0,480.0,1.0,0.0
10612,62.0,51.0,420.0,4.0,0.0
10613,50.0,0.0,240.0,3.0,0.0
10614,62.0,51.0,420.0,4.0,0.0
10615,71.0,429.0,480.0,1.0,0.0
10616,50.0,0.0,240.0,3.0,0.0
10617,68.0,0.0,480.0,1.0,0.0
10618,59.0,51.0,420.0,4.0,0.0
10619,64.0,0.0,480.0,2.0,0.0
10620,52.0,429.0,240.0,3.0,0.0
10621,67.0,429.0,960.0,1.0,0.0
10622,59.0,51.0,420.0,4.0,0.0
10623,52.0,429.0,240.0,3.0,0.0
10624,59.0,51.0,420.0,4.0,0.0
10625,52.0,0.0,240.0,3.0,0.0
10626,60.0,51.0,420.0,4.0,0.0
10627,69.0,0.0,480.0,1.0,0.0
10628,52.0,429.0,240.0,3.0,0.0
10629,71.0,0.0,480.0,1.0,0.0
10630,56.0,51.0,420.0,4.0,0.0
10631,52.0,429.0,240.0,3.0,0.0
10632,59.0,13.0,420.0,4.0,0.0
10633,74.0,11.0,450.0,1.0,0.0
10634,52.0,267.0,210.0,3.0,0.0
10635,50.0,30.0,360.0,5.0,0.0
10636,57.0,10.0,360.0,5.0,0.0
10637,77.0,0.0,240.0,1.0,0.0
10638,65.0,0.0,240.0,2.0,0.0
10639,69.0,80.0,240.0,2.0,0.0
10640,62.0,120.0,360.0,4.0,0.0
10641,76.0,240.0,240.0,1.0,0.0
10642,74.0,240.0,240.0,1.0,0.0
10643,69.0,240.0,240.0,1.0,0.0
10644,65.0,240.0,240.0,1.0,0.0
10645,64.0,240.0,240.0,1.0,0.0
10646,43.0,120.0,360.0,5.0,0.0
10647,55.0,0.0,360.0,5.0,0.0
10648,62.0,120.0,240.0,1.0,0.0
10649,50.0,0.0,360.0,5.0,0.0
10650,70.0,360.0,240.0,1.0,0.0
10651,50.0,0.0,360.0,5.0,0.0
10652,69.0,0.0,360.0,1.0,0.0
10653,53.0,0.0,360.0,5.0,0.0
10654,45.0,960.0,360.0,5.0,0.0
10655,61.0,0.0,360.0,1.0,0.0
10656,55.0,760.0,360.0,5.0,0.0
10657,52.0,0.0,360.0,5.0,0.0
10658,45.0,0.0,360.0,5.0,0.0
10659,57.0,0.0,360.0,2.0,0.0
10660,82.0,0.0,150.0,1.0,0.0
10661,31.0,160.0,150.0,5.0,0.0
10662,81.0,0.0,150.0,1.0,0.0
10663,33.0,160.0,150.0,5.0,0.0
10664,79.0,160.0,150.0,1.0,0.0
10665,34.0,0.0,150.0,5.0,0.0
10666,74.0,160.0,150.0,1.0,0.0
10667,38.0,0.0,150.0,5.0,0.0
10668,43.0,160.0,150.0,5.0,0.0
10669,70.0,0.0,150.0,1.0,0.0
10670,45.0,160.0,150.0,5.0,0.0
10671,69.0,0.0,150.0,1.0,0.0
10672,67.0,160.0,150.0,1.0,0.0
10673,46.0,0.0,150.0,5.0,0.0
10674,50.0,0.0,150.0,5.0,0.0
10675,62.0,160.0,150.0,1.0,0.0
10676,55.0,160.0,150.0,5.0,0.0
10677,58.0,0.0,150.0,1.0,0.0
10678,50.0,0.0,150.0,5.0,0.0
10679,62.0,160.0,150.0,1.0,0.0
10680,67.0,160.0,150.0,1.0,0.0
10681,46.0,0.0,150.0,5.0,0.0
10682,70.0,0.0,150.0,1.0,0.0
10683,43.0,360.0,150.0,5.0,0.0
10684,69.0,0.0,360.0,1.0,0.0
10685,57.0,0.0,360.0,2.0,0.0
10686,62.0,0.0,360.0,2.0,0.0
10687,53.0,0.0,360.0,5.0,0.0
10688,45.0,960.0,360.0,5.0,0.0
10689,50.0,0.0,360.0,5.0,0.0
10690,52.0,0.0,360.0,5.0,0.0
10691,45.0,0.0,360.0,5.0,0.0
10692,57.0,540.0,360.0,2.0,0.0
10693,61.0,0.0,360.0,1.0,0.0
10694,55.0,0.0,360.0,5.0,0.0
10695,81.0,40.0,60.0,1.0,0.0
10696,38.0,38.0,450.0,5.0,0.0
10697,82.0,40.0,60.0,1.0,0.0
10698,84.0,300.0,60.0,1.0,0.0
10699,45.0,2.0,360.0,5.0,0.0
10700,86.0,0.0,720.0,1.0,0.0
10701,53.0,360.0,360.0,5.0,0.0
10702,74.0,125.0,720.0,2.0,0.0
10703,84.0,55.0,120.0,1.0,0.0
10704,65.0,0.0,60.0,5.0,0.0
10705,77.0,40.0,60.0,1.0,0.0
10706,67.0,40.0,60.0,5.0,0.0
10707,79.0,0.0,60.0,1.0,0.0
10708,81.0,700.0,60.0,1.0,0.0
10709,69.0,0.0,60.0,5.0,0.0
10710,70.0,0.0,720.0,5.0,0.0
10711,82.0,120.0,720.0,1.0,0.0
10712,69.0,5.0,120.0,5.0,0.0
10713,81.0,35.0,120.0,1.0,0.0
10714,50.0,20.0,60.0,5.0,0.0
10715,62.0,20.0,40.0,2.0,0.0
10716,74.0,0.0,60.0,1.0,0.0
10717,63.0,20.0,40.0,2.0,0.0
10718,75.0,20.0,60.0,1.0,0.0
10719,51.0,0.0,60.0,5.0,0.0
10720,65.0,20.0,40.0,2.0,0.0
10721,53.0,700.0,60.0,5.0,0.0
10722,77.0,0.0,60.0,1.0,0.0
10723,67.0,120.0,720.0,2.0,0.0
10724,55.0,0.0,720.0,5.0,0.0
10725,79.0,0.0,720.0,1.0,0.0
10726,53.0,0.0,120.0,5.0,0.0
10727,77.0,60.0,120.0,1.0,0.0
10728,65.0,0.0,120.0,2.0,0.0
10729,70.0,40.0,60.0,1.0,0.0
10730,34.0,0.0,60.0,5.0,0.0
10731,36.0,0.0,60.0,5.0,0.0
10732,72.0,40.0,60.0,1.0,0.0
10733,74.0,700.0,60.0,1.0,0.0
10734,38.0,0.0,60.0,5.0,0.0
10735,39.0,0.0,720.0,5.0,0.0
10736,63.0,192.0,720.0,2.0,0.0
10737,75.0,0.0,720.0,1.0,0.0
10738,50.0,0.0,180.0,5.0,0.0
10739,62.0,0.0,180.0,2.0,0.0
10740,74.0,304.0,180.0,1.0,0.0
10741,60.0,0.0,270.0,2.0,0.0
10742,48.0,0.0,270.0,5.0,0.0
10743,72.0,320.0,270.0,1.0,0.0
10744,58.0,0.0,270.0,2.0,0.0
10745,46.0,320.0,270.0,5.0,0.0
10746,70.0,0.0,270.0,1.0,0.0
10747,45.0,0.0,270.0,5.0,0.0
10748,69.0,320.0,270.0,1.0,0.0
10749,57.0,0.0,270.0,2.0,0.0
10750,55.0,320.0,270.0,2.0,0.0
10751,67.0,0.0,270.0,1.0,0.0
10752,43.0,0.0,270.0,5.0,0.0
10753,41.0,320.0,270.0,5.0,0.0
10754,65.0,0.0,270.0,1.0,0.0
10755,53.0,0.0,270.0,2.0,0.0
10756,52.0,320.0,270.0,2.0,0.0
10757,64.0,0.0,270.0,1.0,0.0
10758,40.0,0.0,270.0,5.0,0.0
10759,60.0,0.0,270.0,1.0,0.0
10760,48.0,0.0,270.0,2.0,0.0
10761,36.0,320.0,270.0,5.0,0.0
10762,58.0,0.0,270.0,1.0,0.0
10763,34.0,320.0,270.0,5.0,0.0
10764,46.0,0.0,270.0,2.0,0.0
10765,33.0,0.0,270.0,5.0,0.0
10766,45.0,0.0,270.0,2.0,0.0
10767,57.0,320.0,270.0,1.0,0.0
10768,31.0,320.0,270.0,5.0,0.0
10769,43.0,0.0,270.0,2.0,0.0
10770,55.0,0.0,270.0,1.0,0.0
10771,53.0,320.0,270.0,1.0,0.0
10772,29.0,0.0,270.0,5.0,0.0
10773,41.0,0.0,270.0,2.0,0.0
10774,28.0,0.0,270.0,5.0,0.0
10775,40.0,352.0,270.0,2.0,0.0
10776,52.0,0.0,270.0,1.0,0.0
10777,50.0,0.0,300.0,1.0,0.0
10778,38.0,949.0,300.0,2.0,0.0
10779,26.0,0.0,300.0,5.0,0.0
10780,38.0,4.0,330.0,5.0,0.0
10781,41.0,7.0,300.0,5.0,0.0
10782,45.0,0.0,300.0,5.0,0.0
10783,53.0,0.0,300.0,5.0,0.0
10784,74.0,945.0,300.0,1.0,0.0
10785,62.0,0.0,300.0,2.0,0.0
10786,69.0,0.0,300.0,2.0,0.0
10787,65.0,0.0,300.0,2.0,0.0
10788,50.0,7.0,330.0,5.0,0.0
10789,53.0,5.0,300.0,5.0,0.0
10790,57.0,3.0,300.0,5.0,0.0
10791,62.0,672.0,300.0,5.0,0.0
10792,86.0,0.0,960.0,1.0,0.0
10793,77.0,0.0,960.0,2.0,0.0
10794,81.0,0.0,960.0,2.0,0.0
10795,74.0,960.0,960.0,2.0,0.0
10796,46.0,360.0,480.0,5.0,0.0
10797,58.0,0.0,480.0,5.0,0.0
10798,45.0,360.0,360.0,5.0,0.0
10799,57.0,0.0,360.0,5.0,0.0
10800,40.0,0.0,240.0,5.0,0.0
10801,52.0,240.0,240.0,5.0,0.0
10802,41.0,360.0,240.0,5.0,0.0
10803,53.0,0.0,240.0,5.0,0.0
10804,38.0,0.0,360.0,5.0,0.0
10805,50.0,360.0,360.0,5.0,0.0
10806,36.0,240.0,240.0,5.0,0.0
10807,48.0,0.0,240.0,5.0,0.0
10808,38.0,0.0,240.0,5.0,0.0
10809,50.0,360.0,240.0,5.0,0.0
10810,46.0,0.0,360.0,5.0,0.0
10811,34.0,276.0,360.0,5.0,0.0
10812,33.0,240.0,150.0,5.0,0.0
10813,45.0,0.0,150.0,5.0,0.0
10814,34.0,444.0,150.0,5.0,0.0
10815,46.0,0.0,150.0,5.0,0.0
10816,31.0,0.0,360.0,5.0,0.0
10817,43.0,276.0,360.0,5.0,0.0
10818,29.0,0.0,150.0,5.0,0.0
10819,55.0,0.0,360.0,1.0,0.0
10820,67.0,0.0,360.0,1.0,0.0
10821,59.0,0.0,360.0,2.0,0.0
10822,62.0,36.0,360.0,2.0,0.0
10823,41.0,204.0,150.0,5.0,0.0
10824,31.0,444.0,150.0,5.0,0.0
10825,43.0,0.0,150.0,5.0,0.0
10826,27.0,0.0,360.0,5.0,0.0
10827,39.0,0.0,360.0,5.0,0.0
10828,72.0,276.0,360.0,2.0,0.0
10829,79.0,0.0,360.0,1.0,0.0
10830,67.0,0.0,360.0,1.0,0.0
10831,62.0,204.0,150.0,1.0,0.0
10832,51.0,0.0,360.0,5.0,0.0
10833,55.0,36.0,360.0,5.0,0.0
10834,48.0,0.0,360.0,5.0,0.0
10835,74.0,0.0,150.0,1.0,0.0
10836,63.0,0.0,150.0,1.0,0.0
10837,75.0,444.0,150.0,1.0,0.0
10838,60.0,276.0,360.0,1.0,0.0
10839,72.0,0.0,360.0,1.0,0.0
10840,70.0,0.0,150.0,1.0,0.0
10841,58.0,0.0,150.0,1.0,0.0
10842,26.0,240.0,150.0,5.0,0.0
10843,38.0,0.0,150.0,5.0,0.0
10844,39.0,0.0,150.0,5.0,0.0
10845,60.0,444.0,150.0,1.0,0.0
10846,72.0,0.0,150.0,1.0,0.0
10847,27.0,0.0,150.0,5.0,0.0
10848,57.0,260.0,360.0,1.0,0.0
10849,69.0,0.0,360.0,1.0,0.0
10850,24.0,0.0,360.0,5.0,0.0
10851,36.0,0.0,360.0,5.0,0.0
10852,55.0,204.0,150.0,1.0,0.0
10853,67.0,16.0,150.0,1.0,0.0
10854,48.0,0.0,360.0,5.0,0.0
10855,51.0,36.0,360.0,5.0,0.0
10856,57.0,0.0,150.0,1.0,0.0
10857,69.0,444.0,150.0,1.0,0.0
10858,54.0,276.0,360.0,1.0,0.0
10859,66.0,0.0,360.0,1.0,0.0
10860,50.0,0.0,360.0,5.0,0.0
10861,38.0,36.0,360.0,5.0,0.0
10862,55.0,0.0,150.0,1.0,0.0
10863,67.0,204.0,150.0,1.0,0.0
10864,57.0,444.0,150.0,1.0,0.0
10865,69.0,0.0,150.0,1.0,0.0
10866,50.0,0.0,360.0,5.0,0.0
10867,58.0,0.0,360.0,1.0,0.0
10868,70.0,276.0,360.0,1.0,0.0
10869,62.0,0.0,360.0,5.0,0.0
10870,79.0,0.0,360.0,1.0,0.0
10871,67.0,36.0,360.0,1.0,0.0
10872,45.0,204.0,150.0,5.0,0.0
10873,57.0,0.0,150.0,5.0,0.0
10874,74.0,0.0,360.0,2.0,0.0
10875,46.0,444.0,150.0,5.0,0.0
10876,58.0,0.0,150.0,5.0,0.0
10877,43.0,0.0,360.0,5.0,0.0
10878,55.0,276.0,360.0,5.0,0.0
10879,57.0,0.0,150.0,1.0,0.0
10880,69.0,0.0,150.0,1.0,0.0
10881,41.0,240.0,150.0,5.0,0.0
10882,53.0,0.0,150.0,5.0,0.0
10883,71.0,0.0,150.0,1.0,0.0
10884,55.0,0.0,150.0,5.0,0.0
10885,43.0,444.0,150.0,5.0,0.0
10886,59.0,0.0,150.0,1.0,0.0
10887,51.0,0.0,360.0,5.0,0.0
10888,39.0,276.0,360.0,5.0,0.0
10889,60.0,0.0,360.0,1.0,0.0
10890,72.0,0.0,360.0,1.0,0.0
10891,72.0,0.0,360.0,1.0,0.0
10892,50.0,204.0,150.0,5.0,0.0
10893,38.0,0.0,150.0,5.0,0.0
10894,79.0,36.0,360.0,2.0,0.0
10895,84.0,0.0,360.0,1.0,0.0
10896,40.0,444.0,150.0,5.0,0.0
10897,52.0,0.0,150.0,5.0,0.0
10898,48.0,276.0,360.0,5.0,0.0
10899,36.0,0.0,360.0,5.0,0.0
10900,61.0,36.0,360.0,1.0,0.0
10901,34.0,0.0,150.0,5.0,0.0
10902,67.0,0.0,360.0,2.0,0.0
10903,64.0,0.0,360.0,2.0,0.0
10904,46.0,204.0,150.0,5.0,0.0
10905,73.0,0.0,360.0,1.0,0.0
10906,48.0,444.0,150.0,5.0,0.0
10907,36.0,0.0,150.0,5.0,0.0
10908,77.0,0.0,360.0,2.0,0.0
10909,85.0,0.0,360.0,1.0,0.0
10910,73.0,276.0,360.0,1.0,0.0
10911,32.0,0.0,360.0,5.0,0.0
10912,44.0,0.0,360.0,5.0,0.0
10913,44.0,240.0,600.0,5.0,0.0
10914,32.0,0.0,600.0,5.0,0.0
10915,41.0,0.0,600.0,4.0,0.0
10916,67.0,0.0,150.0,1.0,0.0
10917,79.0,240.0,150.0,1.0,0.0
10918,80.0,0.0,150.0,1.0,0.0
10919,68.0,204.0,150.0,1.0,0.0
10920,65.0,36.0,360.0,1.0,0.0
10921,77.0,0.0,360.0,1.0,0.0
10922,41.0,0.0,150.0,4.0,0.0
10923,44.0,0.0,150.0,5.0,0.0
10924,32.0,240.0,150.0,5.0,0.0
10925,41.0,235.0,600.0,4.0,0.0
10926,45.0,5.0,600.0,5.0,0.0
10927,33.0,0.0,600.0,5.0,0.0
10928,63.0,240.0,150.0,1.0,0.0
10929,75.0,0.0,150.0,1.0,0.0
10930,65.0,204.0,150.0,1.0,0.0
10931,77.0,0.0,150.0,1.0,0.0
10932,61.0,0.0,360.0,1.0,0.0
10933,73.0,36.0,360.0,1.0,0.0
10934,45.0,0.0,150.0,5.0,0.0
10935,33.0,0.0,150.0,5.0,0.0
10936,41.0,240.0,150.0,4.0,0.0
10937,41.0,0.0,600.0,4.0,0.0
10938,60.0,0.0,150.0,1.0,0.0
10939,72.0,240.0,150.0,1.0,0.0
10940,34.0,240.0,600.0,5.0,0.0
10941,46.0,5.0,600.0,5.0,0.0
10942,73.0,199.0,150.0,1.0,0.0
10943,61.0,0.0,150.0,1.0,0.0
10944,58.0,0.0,360.0,1.0,0.0
10945,70.0,36.0,360.0,1.0,0.0
10946,34.0,240.0,150.0,5.0,0.0
10947,46.0,0.0,150.0,5.0,0.0
10948,41.0,0.0,150.0,4.0,0.0
10949,41.0,0.0,600.0,4.0,0.0
10950,56.0,240.0,150.0,1.0,0.0
10951,47.0,5.0,600.0,5.0,0.0
10952,35.0,235.0,600.0,5.0,0.0
10953,68.0,0.0,150.0,1.0,0.0
10954,70.0,0.0,150.0,1.0,0.0
10955,58.0,204.0,150.0,1.0,0.0
10956,67.0,0.0,360.0,1.0,0.0
10957,55.0,36.0,360.0,1.0,0.0
10958,35.0,0.0,150.0,5.0,0.0
10959,47.0,0.0,150.0,5.0,0.0
10960,41.0,240.0,150.0,4.0,0.0
10961,37.0,240.0,600.0,5.0,0.0
10962,49.0,0.0,600.0,5.0,0.0
10963,59.0,0.0,150.0,2.0,0.0
10964,53.0,240.0,150.0,1.0,0.0
10965,43.0,5.0,600.0,4.0,0.0
10966,65.0,0.0,150.0,1.0,0.0
10967,67.0,199.0,150.0,1.0,0.0
10968,55.0,0.0,150.0,1.0,0.0
10969,52.0,36.0,360.0,1.0,0.0
10970,64.0,0.0,360.0,1.0,0.0
10971,60.0,0.0,360.0,2.0,0.0
10972,43.0,0.0,150.0,4.0,0.0
10973,48.0,240.0,150.0,5.0,0.0
10974,36.0,0.0,150.0,5.0,0.0
10975,53.0,0.0,150.0,1.0,0.0
10976,65.0,240.0,150.0,1.0,0.0
10977,59.0,0.0,150.0,2.0,0.0
10978,43.0,0.0,600.0,4.0,0.0
10979,49.0,235.0,600.0,5.0,0.0
10980,37.0,5.0,600.0,5.0,0.0
10981,67.0,204.0,150.0,1.0,0.0
10982,55.0,0.0,150.0,1.0,0.0
10983,64.0,36.0,360.0,1.0,0.0
10984,60.0,0.0,360.0,2.0,0.0
10985,52.0,0.0,360.0,1.0,0.0
10986,36.0,0.0,150.0,5.0,0.0
10987,43.0,0.0,150.0,4.0,0.0
10988,48.0,444.0,150.0,5.0,0.0
10989,48.0,0.0,360.0,1.0,0.0
10990,60.0,408.0,360.0,1.0,0.0
10991,24.0,912.0,300.0,5.0,0.0
10992,36.0,0.0,300.0,5.0,0.0
10993,60.0,240.0,960.0,1.0,0.0
10994,39.0,240.0,240.0,5.0,0.0
10995,55.0,0.0,240.0,3.0,0.0
10996,72.0,72.0,360.0,1.0,0.0
10997,47.0,120.0,240.0,3.0,0.0
10998,48.0,288.0,180.0,3.0,0.0
10999,36.0,240.0,240.0,5.0,0.0
11000,58.0,20.0,240.0,3.0,0.0
11001,67.0,0.0,240.0,1.0,0.0
11002,70.0,136.0,60.0,1.0,0.0
11003,68.0,84.0,150.0,1.0,0.0
11004,47.0,156.0,240.0,3.0,0.0
11005,48.0,288.0,180.0,3.0,0.0
11006,67.0,36.0,150.0,1.0,0.0
11007,41.0,240.0,240.0,5.0,0.0
11008,65.0,240.0,480.0,1.0,0.0
11009,56.0,0.0,240.0,3.0,0.0
11010,47.0,192.0,240.0,3.0,0.0
11011,60.0,240.0,480.0,1.0,0.0
11012,48.0,48.0,180.0,3.0,0.0
11013,44.0,240.0,240.0,5.0,0.0
11014,53.0,240.0,240.0,3.0,0.0
11015,47.0,192.0,240.0,3.0,0.0
11016,60.0,0.0,960.0,1.0,0.0
11017,48.0,288.0,180.0,3.0,0.0
11018,39.0,240.0,240.0,5.0,0.0
11019,55.0,240.0,240.0,3.0,0.0
11020,72.0,72.0,360.0,1.0,0.0
11021,47.0,120.0,240.0,3.0,0.0
11022,48.0,528.0,180.0,3.0,0.0
11023,46.0,480.0,960.0,5.0,0.0
11024,67.0,0.0,240.0,1.0,0.0
11025,52.0,20.0,240.0,3.0,0.0
11026,70.0,136.0,60.0,1.0,0.0
11027,68.0,84.0,150.0,1.0,0.0
11028,47.0,156.0,240.0,3.0,0.0
11029,67.0,36.0,150.0,1.0,0.0
11030,48.0,48.0,180.0,3.0,0.0
11031,44.0,0.0,720.0,5.0,0.0
11032,65.0,0.0,480.0,1.0,0.0
11033,53.0,240.0,240.0,3.0,0.0
11034,47.0,240.0,240.0,3.0,0.0
11035,60.0,240.0,480.0,1.0,0.0
11036,48.0,0.0,240.0,3.0,0.0
11037,41.0,240.0,240.0,5.0,0.0
11038,56.0,240.0,240.0,3.0,0.0
11039,65.0,0.0,960.0,1.0,0.0
11040,47.0,192.0,240.0,3.0,0.0
11041,48.0,528.0,180.0,3.0,0.0
11042,45.0,120.0,720.0,5.0,0.0
11043,53.0,240.0,240.0,3.0,0.0
11044,77.0,120.0,360.0,1.0,0.0
11045,47.0,0.0,240.0,3.0,0.0
11046,48.0,240.0,240.0,3.0,0.0
11047,41.0,215.0,240.0,5.0,0.0
11048,57.0,20.0,240.0,3.0,0.0
11049,72.0,25.0,210.0,1.0,0.0
11050,75.0,136.0,60.0,1.0,0.0
11051,73.0,84.0,150.0,1.0,0.0
11052,50.0,156.0,240.0,3.0,0.0
11053,51.0,288.0,180.0,3.0,0.0
11054,72.0,36.0,150.0,1.0,0.0
11055,61.0,72.0,360.0,2.0,0.0
11056,46.0,0.0,360.0,5.0,0.0
11057,65.0,0.0,360.0,2.0,0.0
11058,72.0,120.0,240.0,1.0,0.0
11059,70.0,288.0,180.0,1.0,0.0
11060,70.0,120.0,240.0,1.0,0.0
11061,65.0,0.0,360.0,2.0,0.0
11062,60.0,0.0,360.0,2.0,0.0
11063,48.0,72.0,360.0,5.0,0.0
11064,68.0,288.0,180.0,1.0,0.0
11065,49.0,0.0,360.0,5.0,0.0
11066,58.0,72.0,360.0,2.0,0.0
11067,64.0,0.0,360.0,2.0,0.0
11068,68.0,120.0,240.0,1.0,0.0
11069,67.0,288.0,180.0,1.0,0.0
11070,67.0,120.0,240.0,1.0,0.0
11071,50.0,72.0,360.0,5.0,0.0
11072,59.0,0.0,360.0,2.0,0.0
11073,56.0,0.0,360.0,2.0,0.0
11074,65.0,288.0,180.0,1.0,0.0
11075,51.0,0.0,360.0,2.0,0.0
11076,60.0,0.0,360.0,2.0,0.0
11077,56.0,72.0,360.0,2.0,0.0
11078,39.0,0.0,360.0,5.0,0.0
11079,65.0,120.0,240.0,1.0,0.0
11080,63.0,288.0,180.0,1.0,0.0
11081,63.0,120.0,240.0,1.0,0.0
11082,40.0,0.0,360.0,5.0,0.0
11083,55.0,0.0,360.0,2.0,0.0
11084,58.0,72.0,360.0,2.0,0.0
11085,61.0,288.0,180.0,1.0,0.0
11086,61.0,120.0,240.0,1.0,0.0
11087,41.0,72.0,360.0,5.0,0.0
11088,53.0,0.0,360.0,2.0,0.0
11089,56.0,0.0,360.0,2.0,0.0
11090,60.0,288.0,180.0,1.0,0.0
11091,60.0,120.0,240.0,1.0,0.0
11092,43.0,0.0,360.0,5.0,0.0
11093,49.0,72.0,360.0,2.0,0.0
11094,52.0,0.0,360.0,2.0,0.0
11095,58.0,288.0,180.0,1.0,0.0
11096,58.0,120.0,240.0,1.0,0.0
11097,53.0,0.0,360.0,2.0,0.0
11098,44.0,0.0,360.0,5.0,0.0
11099,48.0,72.0,360.0,2.0,0.0
11100,56.0,768.0,180.0,1.0,0.0
11101,47.0,72.0,360.0,5.0,0.0
11102,50.0,0.0,360.0,2.0,0.0
11103,55.0,120.0,240.0,1.0,0.0
11104,53.0,768.0,180.0,1.0,0.0
11105,52.0,120.0,240.0,1.0,0.0
11106,48.0,840.0,360.0,5.0,0.0
11107,60.0,120.0,960.0,1.0,0.0
11108,36.0,0.0,360.0,5.0,0.0
11109,43.0,480.0,360.0,5.0,0.0
11110,72.0,0.0,960.0,1.0,0.0
11111,60.0,156.0,960.0,1.0,0.0
11112,40.0,0.0,360.0,5.0,0.0
11113,28.0,476.0,360.0,5.0,0.0
11114,38.0,4.0,390.0,5.0,0.0
11115,48.0,120.0,390.0,5.0,0.0
11116,55.0,0.0,360.0,5.0,0.0
11117,71.0,0.0,480.0,1.0,0.0
11118,50.0,204.0,150.0,5.0,0.0
11119,84.0,36.0,360.0,1.0,0.0
11120,70.0,0.0,360.0,1.0,0.0
11121,52.0,444.0,150.0,5.0,0.0
11122,48.0,85.0,360.0,5.0,0.0
11123,67.0,55.0,210.0,1.0,0.0
11124,79.0,0.0,210.0,1.0,0.0
11125,82.0,136.0,60.0,1.0,0.0
11126,80.0,0.0,150.0,1.0,0.0
11127,68.0,240.0,150.0,1.0,0.0
11128,46.0,0.0,150.0,5.0,0.0
11129,79.0,0.0,150.0,1.0,0.0
11130,67.0,0.0,150.0,1.0,0.0
11131,48.0,444.0,150.0,5.0,0.0
11132,44.0,120.0,360.0,5.0,0.0
11133,77.0,0.0,480.0,1.0,0.0
11134,65.0,156.0,480.0,1.0,0.0
11135,72.0,0.0,360.0,1.0,0.0
11136,43.0,204.0,150.0,5.0,0.0
11137,60.0,36.0,360.0,1.0,0.0
11138,44.0,444.0,150.0,5.0,0.0
11139,41.0,480.0,360.0,5.0,0.0
11140,29.0,480.0,360.0,5.0,0.0
11141,41.0,0.0,360.0,5.0,0.0
11142,61.0,0.0,960.0,1.0,0.0
11143,73.0,156.0,960.0,1.0,0.0
11144,41.0,120.0,390.0,5.0,0.0
11145,49.0,0.0,390.0,5.0,0.0
11146,72.0,0.0,480.0,1.0,0.0
11147,56.0,0.0,360.0,5.0,0.0
11148,51.0,204.0,150.0,5.0,0.0
11149,85.0,36.0,360.0,1.0,0.0
11150,71.0,0.0,360.0,1.0,0.0
11151,53.0,444.0,150.0,5.0,0.0
11152,49.0,75.0,360.0,5.0,0.0
11153,68.0,5.0,180.0,1.0,0.0
11154,80.0,60.0,210.0,1.0,0.0
11155,83.0,136.0,60.0,1.0,0.0
11156,47.0,0.0,150.0,5.0,0.0
11157,70.0,0.0,150.0,1.0,0.0
11158,82.0,240.0,150.0,1.0,0.0
11159,68.0,0.0,150.0,1.0,0.0
11160,80.0,444.0,150.0,1.0,0.0
11161,50.0,0.0,150.0,5.0,0.0
11162,46.0,120.0,360.0,5.0,0.0
11163,67.0,156.0,480.0,1.0,0.0
11164,79.0,0.0,480.0,1.0,0.0
11165,70.0,36.0,360.0,1.0,0.0
11166,58.0,0.0,360.0,1.0,0.0
11167,49.0,204.0,150.0,5.0,0.0
11168,52.0,444.0,150.0,5.0,0.0
11169,37.0,80.0,360.0,5.0,0.0
11170,66.0,0.0,210.0,1.0,0.0
11171,78.0,60.0,210.0,1.0,0.0
11172,81.0,136.0,60.0,1.0,0.0
11173,68.0,0.0,150.0,1.0,0.0
11174,80.0,0.0,150.0,1.0,0.0
11175,48.0,240.0,150.0,5.0,0.0
11176,51.0,444.0,150.0,5.0,0.0
11177,78.0,0.0,150.0,1.0,0.0
11178,66.0,0.0,150.0,1.0,0.0
11179,65.0,156.0,480.0,1.0,0.0
11180,77.0,0.0,480.0,1.0,0.0
11181,37.0,120.0,360.0,5.0,0.0
11182,59.0,36.0,360.0,1.0,0.0
11183,71.0,0.0,360.0,1.0,0.0
11184,44.0,204.0,150.0,5.0,0.0
11185,49.0,444.0,150.0,5.0,0.0
11186,37.0,36.0,360.0,5.0,0.0
11187,77.0,240.0,150.0,1.0,0.0
11188,65.0,0.0,150.0,1.0,0.0
11189,78.0,0.0,150.0,1.0,0.0
11190,66.0,0.0,150.0,1.0,0.0
11191,46.0,240.0,150.0,5.0,0.0
11192,58.0,444.0,150.0,1.0,0.0
11193,70.0,0.0,150.0,1.0,0.0
11194,49.0,0.0,150.0,5.0,0.0
11195,37.0,120.0,360.0,5.0,0.0
11196,71.0,0.0,480.0,1.0,0.0
11197,59.0,156.0,480.0,1.0,0.0
11198,44.0,204.0,150.0,5.0,0.0
11199,77.0,36.0,360.0,1.0,0.0
11200,65.0,0.0,360.0,1.0,0.0
11201,49.0,444.0,150.0,5.0,0.0
11202,37.0,36.0,360.0,5.0,0.0
11203,65.0,240.0,150.0,1.0,0.0
11204,77.0,0.0,150.0,1.0,0.0
11205,78.0,0.0,150.0,1.0,0.0
11206,66.0,0.0,150.0,1.0,0.0
11207,46.0,240.0,150.0,5.0,0.0
11208,58.0,444.0,150.0,1.0,0.0
11209,70.0,0.0,150.0,1.0,0.0
11210,49.0,0.0,150.0,5.0,0.0
11211,59.0,0.0,480.0,1.0,0.0
11212,37.0,120.0,360.0,5.0,0.0
11213,71.0,156.0,480.0,1.0,0.0
11214,65.0,0.0,360.0,1.0,0.0
11215,77.0,36.0,360.0,1.0,0.0
11216,44.0,204.0,150.0,5.0,0.0
11217,49.0,444.0,150.0,5.0,0.0
11218,37.0,36.0,360.0,5.0,0.0
11219,77.0,240.0,150.0,1.0,0.0
11220,65.0,0.0,150.0,1.0,0.0
11221,66.0,0.0,150.0,1.0,0.0
11222,46.0,240.0,150.0,5.0,0.0
11223,78.0,0.0,150.0,1.0,0.0
11224,49.0,244.0,150.0,5.0,0.0
11225,58.0,0.0,150.0,1.0,0.0
11226,70.0,0.0,150.0,1.0,0.0
11227,71.0,0.0,360.0,1.0,0.0
11228,59.0,120.0,360.0,1.0,0.0
11229,37.0,200.0,150.0,5.0,0.0
11230,44.0,128.0,150.0,5.0,0.0
11231,49.0,352.0,120.0,5.0,0.0
11232,32.0,128.0,150.0,5.0,0.0
11233,65.0,0.0,360.0,1.0,0.0
11234,37.0,232.0,120.0,5.0,0.0
11235,77.0,0.0,360.0,1.0,0.0
11236,72.0,120.0,360.0,2.0,0.0
11237,44.0,128.0,150.0,5.0,0.0
11238,49.0,352.0,120.0,5.0,0.0
11239,44.0,128.0,150.0,5.0,0.0
11240,32.0,0.0,150.0,5.0,0.0
11241,49.0,352.0,120.0,5.0,0.0
11242,37.0,0.0,120.0,5.0,0.0
11243,53.0,0.0,150.0,5.0,0.0
11244,41.0,128.0,150.0,5.0,0.0
11245,44.0,352.0,120.0,5.0,0.0
11246,56.0,0.0,120.0,5.0,0.0
11247,61.0,128.0,150.0,5.0,0.0
11248,49.0,0.0,150.0,5.0,0.0
11249,65.0,0.0,120.0,5.0,0.0
11250,53.0,352.0,120.0,5.0,0.0
11251,56.0,0.0,150.0,5.0,0.0
11252,68.0,128.0,150.0,5.0,0.0
11253,61.0,0.0,120.0,5.0,0.0
11254,73.0,352.0,120.0,5.0,0.0
11255,37.0,128.0,150.0,5.0,0.0
11256,69.0,0.0,360.0,2.0,0.0
11257,61.0,0.0,360.0,1.0,0.0
11258,73.0,0.0,360.0,1.0,0.0
11259,42.0,232.0,120.0,5.0,0.0
11260,66.0,120.0,360.0,2.0,0.0
11261,45.0,128.0,150.0,5.0,0.0
11262,49.0,352.0,120.0,5.0,0.0
11263,37.0,128.0,150.0,5.0,0.0
11264,42.0,232.0,120.0,5.0,0.0
11265,78.0,120.0,360.0,1.0,0.0
11266,66.0,0.0,360.0,1.0,0.0
11267,69.0,0.0,360.0,2.0,0.0
11268,73.0,0.0,360.0,2.0,0.0
11269,45.0,128.0,150.0,5.0,0.0
11270,49.0,352.0,120.0,5.0,0.0
11271,37.0,128.0,150.0,5.0,0.0
11272,42.0,352.0,120.0,5.0,0.0
11273,57.0,128.0,150.0,5.0,0.0
11274,45.0,0.0,150.0,5.0,0.0
11275,61.0,352.0,120.0,5.0,0.0
11276,49.0,0.0,120.0,5.0,0.0
11277,66.0,0.0,150.0,5.0,0.0
11278,54.0,128.0,150.0,5.0,0.0
11279,69.0,352.0,120.0,5.0,0.0
11280,57.0,0.0,120.0,5.0,0.0
11281,73.0,0.0,150.0,5.0,0.0
11282,61.0,128.0,150.0,5.0,0.0
11283,78.0,352.0,120.0,5.0,0.0
11284,66.0,0.0,120.0,5.0,0.0
11285,34.0,128.0,150.0,5.0,0.0
11286,79.0,0.0,360.0,1.0,0.0
11287,67.0,120.0,360.0,1.0,0.0
11288,73.0,0.0,360.0,2.0,0.0
11289,76.0,0.0,360.0,2.0,0.0
11290,40.0,232.0,120.0,5.0,0.0
11291,46.0,128.0,150.0,5.0,0.0
11292,52.0,352.0,120.0,5.0,0.0
11293,35.0,128.0,150.0,5.0,0.0
11294,74.0,0.0,360.0,2.0,0.0
11295,77.0,0.0,360.0,2.0,0.0
11296,80.0,120.0,360.0,1.0,0.0
11297,68.0,0.0,360.0,1.0,0.0
11298,41.0,232.0,120.0,5.0,0.0
11299,47.0,128.0,150.0,5.0,0.0
11300,53.0,352.0,120.0,5.0,0.0
11301,36.0,128.0,150.0,5.0,0.0
11302,69.0,0.0,360.0,1.0,0.0
11303,48.0,232.0,120.0,5.0,0.0
11304,77.0,120.0,360.0,2.0,0.0
11305,81.0,0.0,360.0,1.0,0.0
11306,77.0,0.0,720.0,2.0,0.0
11307,49.0,0.0,720.0,5.0,0.0
11308,37.0,720.0,15.0,5.0,0.0
11309,70.0,0.0,720.0,1.0,0.0
11310,82.0,600.0,720.0,1.0,0.0
11311,33.0,480.0,360.0,5.0,0.0
11312,77.0,0.0,360.0,2.0,0.0
11313,72.0,0.0,360.0,1.0,0.0
11314,41.0,0.0,360.0,5.0,0.0
11315,45.0,0.0,360.0,5.0,0.0
11316,84.0,0.0,360.0,1.0,0.0
11317,73.0,1920.0,360.0,1.0,0.0
11318,85.0,0.0,360.0,1.0,0.0
11319,77.0,0.0,360.0,2.0,0.0
11320,34.0,0.0,360.0,5.0,0.0
11321,46.0,0.0,360.0,5.0,0.0
11322,41.0,0.0,360.0,5.0,0.0
11323,36.0,1740.0,390.0,5.0,0.0
11324,40.0,0.0,390.0,5.0,0.0
11325,43.0,3.0,360.0,5.0,0.0
11326,70.0,0.0,360.0,2.0,0.0
11327,67.0,0.0,360.0,2.0,0.0
11328,64.0,0.0,360.0,1.0,0.0
11329,76.0,0.0,360.0,1.0,0.0
11330,48.0,0.0,360.0,5.0,0.0
11331,29.0,8.0,210.0,5.0,0.0
11332,36.0,1.0,210.0,5.0,0.0
11333,41.0,240.0,180.0,5.0,0.0
11334,69.0,0.0,1440.0,1.0,0.0
11335,72.0,0.0,1440.0,1.0,0.0
11336,65.0,0.0,1440.0,1.0,0.0
11337,63.0,240.0,180.0,5.0,0.0
11338,51.0,0.0,180.0,5.0,0.0
11339,51.0,0.0,180.0,5.0,0.0
11340,63.0,240.0,180.0,5.0,0.0
11341,51.0,0.0,180.0,5.0,0.0
11342,63.0,528.0,180.0,5.0,0.0
11343,63.0,0.0,960.0,5.0,0.0
11344,51.0,432.0,960.0,5.0,0.0
11345,75.0,0.0,480.0,1.0,0.0
11346,77.0,480.0,15.0,1.0,0.0
11347,65.0,0.0,480.0,1.0,0.0
11348,77.0,0.0,1440.0,1.0,0.0
11349,73.0,480.0,960.0,1.0,0.0
11350,65.0,0.0,1440.0,1.0,0.0
11351,49.0,0.0,180.0,5.0,0.0
11352,61.0,240.0,180.0,5.0,0.0
11353,49.0,0.0,180.0,5.0,0.0
11354,61.0,240.0,180.0,5.0,0.0
11355,61.0,48.0,180.0,5.0,0.0
11356,49.0,0.0,180.0,5.0,0.0
11357,58.0,0.0,480.0,5.0,0.0
11358,46.0,0.0,480.0,5.0,0.0
11359,70.0,435.0,480.0,1.0,0.0
11360,65.0,4.0,450.0,1.0,0.0
11361,72.0,225.0,450.0,1.0,0.0
11362,77.0,0.0,450.0,1.0,0.0
11363,60.0,0.0,450.0,5.0,0.0
11364,48.0,3.0,420.0,5.0,0.0
11365,41.0,0.0,240.0,5.0,0.0
11366,45.0,0.0,210.0,5.0,0.0
11367,48.0,5.0,210.0,5.0,0.0
11368,53.0,240.0,180.0,5.0,0.0
11369,65.0,480.0,1440.0,1.0,0.0
11370,69.0,0.0,1440.0,1.0,0.0
11371,72.0,0.0,1440.0,1.0,0.0
11372,77.0,0.0,1440.0,1.0,0.0
11373,63.0,0.0,180.0,5.0,0.0
11374,51.0,240.0,180.0,5.0,0.0
11375,63.0,0.0,180.0,5.0,0.0
11376,51.0,240.0,180.0,5.0,0.0
11377,63.0,0.0,180.0,5.0,0.0
11378,51.0,528.0,180.0,5.0,0.0
11379,51.0,0.0,960.0,5.0,0.0
11380,63.0,432.0,960.0,5.0,0.0
11381,65.0,0.0,480.0,1.0,0.0
11382,77.0,0.0,480.0,1.0,0.0
11383,75.0,0.0,480.0,1.0,0.0
11384,73.0,480.0,960.0,1.0,0.0
11385,65.0,0.0,1440.0,1.0,0.0
11386,49.0,240.0,180.0,5.0,0.0
11387,61.0,0.0,180.0,5.0,0.0
11388,49.0,240.0,180.0,5.0,0.0
11389,61.0,0.0,180.0,5.0,0.0
11390,61.0,0.0,180.0,5.0,0.0
11391,49.0,48.0,180.0,5.0,0.0
11392,46.0,0.0,480.0,5.0,0.0
11393,58.0,0.0,480.0,5.0,0.0
11394,70.0,480.0,480.0,1.0,0.0
11395,60.0,960.0,480.0,5.0,0.0
11396,77.0,0.0,15.0,1.0,0.0
11397,72.0,0.0,480.0,1.0,0.0
11398,48.0,0.0,480.0,5.0,0.0
11399,65.0,0.0,480.0,1.0,0.0
11400,65.0,960.0,960.0,1.0,0.0
11401,72.0,0.0,1920.0,1.0,0.0
11402,69.0,0.0,1920.0,1.0,0.0
11403,45.0,0.0,1920.0,5.0,0.0
11404,41.0,0.0,1920.0,5.0,0.0
11405,53.0,0.0,1920.0,5.0,0.0
11406,48.0,0.0,1920.0,5.0,0.0
11407,64.0,960.0,960.0,1.0,0.0
11408,52.0,0.0,960.0,5.0,0.0
11409,46.0,0.0,1920.0,5.0,0.0
11410,53.0,0.0,1920.0,5.0,0.0
11411,51.0,0.0,960.0,5.0,0.0
11412,63.0,960.0,960.0,1.0,0.0
11413,65.0,960.0,1920.0,1.0,0.0
11414,70.0,0.0,1920.0,1.0,0.0
11415,77.0,0.0,15.0,1.0,0.0
11416,49.0,0.0,960.0,5.0,0.0
11417,61.0,0.0,960.0,1.0,0.0
11418,53.0,0.0,1920.0,5.0,0.0
11419,41.0,0.0,15.0,5.0,0.0
11420,48.0,0.0,1920.0,5.0,0.0
11421,60.0,0.0,1920.0,1.0,0.0
11422,57.0,0.0,1920.0,1.0,0.0
11423,40.0,0.0,960.0,5.0,0.0
11424,52.0,0.0,960.0,5.0,0.0
11425,65.0,960.0,15.0,1.0,0.0
11426,58.0,0.0,1890.0,1.0,0.0
11427,41.0,915.0,960.0,5.0,0.0
11428,53.0,0.0,1890.0,1.0,0.0
11429,51.0,0.0,960.0,5.0,0.0
11430,46.0,7.0,1860.0,5.0,0.0
11431,39.0,0.0,960.0,5.0,0.0
11432,37.0,0.0,900.0,5.0,0.0
11433,49.0,1913.0,930.0,5.0,0.0
11434,29.0,0.0,1920.0,5.0,0.0
11435,36.0,2.0,1890.0,5.0,0.0
11436,41.0,3.0,1890.0,5.0,0.0
11437,57.0,4.0,1890.0,1.0,0.0
11438,65.0,0.0,1890.0,1.0,0.0
11439,60.0,1879.0,1890.0,1.0,0.0
11440,53.0,2.0,1890.0,1.0,0.0
11441,48.0,0.0,1890.0,5.0,0.0
11442,29.0,0.0,1890.0,5.0,0.0
11443,36.0,15.0,1860.0,5.0,0.0
11444,41.0,15.0,1860.0,5.0,0.0
11445,60.0,4.0,1890.0,1.0,0.0
11446,65.0,1918.0,1890.0,1.0,0.0
11447,48.0,0.0,1890.0,5.0,0.0
11448,53.0,0.0,1890.0,1.0,0.0
11449,57.0,3.0,1860.0,1.0,0.0
11450,29.0,20.0,1920.0,5.0,0.0
11451,36.0,10.0,1920.0,5.0,0.0
11452,41.0,30.0,1920.0,5.0,0.0
11453,65.0,16.0,3810.0,1.0,0.0
11454,53.0,3.0,3780.0,1.0,0.0
11455,57.0,4.0,3810.0,1.0,0.0
11456,60.0,0.0,3810.0,1.0,0.0
11457,48.0,1855.0,1920.0,5.0,0.0
11458,27.0,1897.0,1890.0,5.0,0.0
11459,66.0,17.0,1890.0,1.0,0.0
11460,60.0,0.0,1890.0,1.0,0.0
11461,57.0,0.0,1890.0,1.0,0.0
11462,54.0,3.0,1860.0,1.0,0.0
11463,33.0,0.0,1890.0,5.0,0.0
11464,38.0,3.0,1890.0,5.0,0.0
11465,48.0,2.0,1890.0,5.0,0.0
11466,26.0,1891.0,15.0,5.0,0.0
11467,33.0,2862.0,1890.0,5.0,0.0
11468,57.0,0.0,1860.0,1.0,0.0
11469,60.0,7.0,1860.0,1.0,0.0
11470,54.0,0.0,1890.0,1.0,0.0
11471,66.0,17.0,1890.0,1.0,0.0
11472,38.0,3.0,1890.0,5.0,0.0
11473,48.0,0.0,1890.0,5.0,0.0
11474,33.0,10.0,2880.0,5.0,0.0
11475,38.0,10.0,2880.0,5.0,0.0
11476,48.0,0.0,2880.0,5.0,0.0
11477,60.0,0.0,2880.0,1.0,0.0
11478,57.0,0.0,2880.0,1.0,0.0
11479,54.0,915.0,2880.0,1.0,0.0
11480,66.0,0.0,2880.0,1.0,0.0
11481,66.0,4.0,450.0,1.0,0.0
11482,69.0,3.0,420.0,1.0,0.0
11483,74.0,230.0,450.0,1.0,0.0
11484,78.0,0.0,420.0,1.0,0.0
11485,38.0,0.0,420.0,5.0,0.0
11486,42.0,0.0,420.0,5.0,0.0
11487,45.0,0.0,450.0,5.0,0.0
11488,50.0,0.0,420.0,5.0,0.0
11489,31.0,232.0,240.0,5.0,0.0
11490,38.0,5.0,210.0,5.0,0.0
11491,74.0,0.0,1440.0,1.0,0.0
11492,43.0,3.0,180.0,5.0,0.0
11493,71.0,0.0,1440.0,1.0,0.0
11494,65.0,240.0,180.0,5.0,0.0
11495,53.0,0.0,180.0,5.0,0.0
11496,65.0,240.0,180.0,5.0,0.0
11497,53.0,0.0,180.0,5.0,0.0
11498,65.0,528.0,180.0,5.0,0.0
11499,53.0,0.0,180.0,5.0,0.0
11500,65.0,0.0,960.0,5.0,0.0
11501,53.0,0.0,960.0,5.0,0.0
11502,67.0,0.0,15.0,1.0,0.0
11503,79.0,480.0,15.0,1.0,0.0
11504,77.0,432.0,480.0,1.0,0.0
11505,67.0,0.0,15.0,1.0,0.0
11506,79.0,0.0,15.0,1.0,0.0
11507,75.0,480.0,960.0,1.0,0.0
11508,63.0,240.0,180.0,5.0,0.0
11509,51.0,0.0,180.0,5.0,0.0
11510,63.0,0.0,180.0,5.0,0.0
11511,51.0,240.0,180.0,5.0,0.0
11512,51.0,48.0,180.0,5.0,0.0
11513,63.0,0.0,180.0,5.0,0.0
11514,72.0,0.0,480.0,1.0,0.0
11515,60.0,0.0,480.0,5.0,0.0
11516,48.0,0.0,480.0,5.0,0.0
11517,67.0,0.0,15.0,1.0,0.0
11518,50.0,5.0,420.0,5.0,0.0
11519,62.0,0.0,420.0,5.0,0.0
11520,79.0,435.0,15.0,1.0,0.0
11521,74.0,0.0,420.0,1.0,0.0
11522,43.0,2.0,240.0,5.0,0.0
11523,47.0,0.0,210.0,5.0,0.0
11524,50.0,0.0,210.0,5.0,0.0
11525,74.0,480.0,1440.0,1.0,0.0
11526,71.0,0.0,1440.0,1.0,0.0
11527,67.0,0.0,1440.0,1.0,0.0
11528,79.0,0.0,1440.0,1.0,0.0
11529,55.0,240.0,180.0,5.0,0.0
11530,53.0,240.0,180.0,5.0,0.0
11531,65.0,0.0,180.0,5.0,0.0
11532,65.0,240.0,180.0,5.0,0.0
11533,53.0,0.0,180.0,5.0,0.0
11534,65.0,528.0,180.0,5.0,0.0
11535,53.0,0.0,180.0,5.0,0.0
11536,53.0,432.0,960.0,5.0,0.0
11537,65.0,0.0,960.0,5.0,0.0
11538,79.0,0.0,480.0,1.0,0.0
11539,77.0,0.0,480.0,1.0,0.0
11540,67.0,0.0,15.0,1.0,0.0
11541,75.0,480.0,960.0,1.0,0.0
11542,51.0,240.0,180.0,5.0,0.0
11543,63.0,0.0,180.0,5.0,0.0
11544,63.0,0.0,180.0,5.0,0.0
11545,51.0,240.0,180.0,5.0,0.0
11546,63.0,48.0,180.0,5.0,0.0
11547,51.0,0.0,180.0,5.0,0.0
11548,48.0,0.0,480.0,5.0,0.0
11549,72.0,480.0,480.0,1.0,0.0
11550,60.0,0.0,480.0,5.0,0.0
11551,62.0,0.0,480.0,5.0,0.0
11552,67.0,0.0,15.0,1.0,0.0
11553,79.0,0.0,15.0,1.0,0.0
11554,50.0,960.0,480.0,5.0,0.0
11555,79.0,0.0,15.0,1.0,0.0
11556,74.0,0.0,15.0,1.0,0.0
11557,67.0,0.0,960.0,1.0,0.0
11558,71.0,0.0,1920.0,1.0,0.0
11559,55.0,960.0,960.0,5.0,0.0
11560,43.0,0.0,1920.0,5.0,0.0
11561,47.0,960.0,1920.0,5.0,0.0
11562,50.0,0.0,1920.0,5.0,0.0
11563,66.0,0.0,960.0,1.0,0.0
11564,54.0,0.0,960.0,5.0,0.0
11565,48.0,0.0,1920.0,5.0,0.0
11566,65.0,960.0,960.0,1.0,0.0
11567,79.0,0.0,1920.0,1.0,0.0
11568,72.0,0.0,1920.0,1.0,0.0
11569,53.0,0.0,960.0,5.0,0.0
11570,43.0,0.0,1920.0,5.0,0.0
11571,63.0,960.0,960.0,1.0,0.0
11572,51.0,0.0,960.0,5.0,0.0
11573,67.0,0.0,1920.0,1.0,0.0
11574,59.0,0.0,1920.0,1.0,0.0
11575,62.0,0.0,1920.0,1.0,0.0
11576,43.0,0.0,960.0,5.0,0.0
11577,50.0,960.0,960.0,5.0,0.0
11578,47.0,0.0,960.0,5.0,0.0
11579,55.0,0.0,15.0,5.0,0.0
11580,54.0,0.0,960.0,5.0,0.0
11581,42.0,0.0,960.0,5.0,0.0
11582,55.0,0.0,1860.0,1.0,0.0
11583,60.0,0.0,1860.0,1.0,0.0
11584,67.0,0.0,1860.0,1.0,0.0
11585,53.0,0.0,960.0,5.0,0.0
11586,41.0,910.0,960.0,5.0,0.0
11587,48.0,5.0,1860.0,5.0,0.0
11588,39.0,0.0,900.0,5.0,0.0
11589,51.0,1920.0,900.0,5.0,0.0
11590,31.0,1910.0,1920.0,5.0,0.0
11591,38.0,0.0,1890.0,5.0,0.0
11592,43.0,0.0,1890.0,5.0,0.0
11593,55.0,5.0,1860.0,1.0,0.0
11594,59.0,0.0,1860.0,1.0,0.0
11595,67.0,0.0,1860.0,1.0,0.0
11596,50.0,0.0,1860.0,5.0,0.0
11597,38.0,5.0,1890.0,5.0,0.0
11598,43.0,0.0,1890.0,5.0,0.0
11599,55.0,5.0,1860.0,1.0,0.0
11600,59.0,0.0,1860.0,1.0,0.0
11601,67.0,0.0,1890.0,1.0,0.0
11602,50.0,0.0,1860.0,5.0,0.0
11603,31.0,1930.0,15.0,5.0,0.0
11604,38.0,0.0,1920.0,5.0,0.0
11605,43.0,15.0,1890.0,5.0,0.0
11606,50.0,1840.0,1920.0,5.0,0.0
11607,59.0,1892.0,3780.0,1.0,0.0
11608,67.0,5.0,3780.0,1.0,0.0
11609,29.0,45.0,1830.0,5.0,0.0
11610,28.0,5.0,1890.0,5.0,0.0
11611,35.0,23.0,1860.0,5.0,0.0
11612,40.0,5.0,1890.0,5.0,0.0
11613,50.0,52.0,3720.0,5.0,0.0
11614,56.0,0.0,1860.0,1.0,0.0
11615,68.0,1855.0,1890.0,1.0,0.0
11616,59.0,0.0,1860.0,1.0,0.0
11617,28.0,8.0,1920.0,5.0,0.0
11618,35.0,0.0,1890.0,5.0,0.0
11619,40.0,0.0,1890.0,5.0,0.0
11620,68.0,0.0,1860.0,1.0,0.0
11621,59.0,1925.0,1860.0,1.0,0.0
11622,56.0,0.0,1860.0,1.0,0.0
11623,28.0,30.0,1920.0,5.0,0.0
11624,35.0,5.0,1920.0,5.0,0.0
11625,40.0,5.0,1920.0,5.0,0.0
11626,56.0,0.0,3780.0,1.0,0.0
11627,68.0,0.0,3780.0,1.0,0.0
11628,50.0,1860.0,1920.0,5.0,0.0
11629,59.0,0.0,3780.0,1.0,0.0
11630,38.0,1920.0,1860.0,5.0,0.0
11631,45.0,50.0,1890.0,5.0,0.0
11632,57.0,0.0,1890.0,1.0,0.0
11633,64.0,0.0,1860.0,1.0,0.0
11634,55.0,1850.0,1920.0,5.0,0.0
11635,69.0,0.0,1860.0,1.0,0.0
11636,37.0,0.0,15.0,5.0,0.0
11637,45.0,5.0,1920.0,5.0,0.0
11638,57.0,5.0,1860.0,1.0,0.0
11639,64.0,0.0,1860.0,1.0,0.0
11640,55.0,1970.0,1890.0,5.0,0.0
11641,69.0,5.0,1860.0,1.0,0.0
11642,37.0,1807.0,1950.0,5.0,0.0
11643,57.0,8.0,3780.0,1.0,0.0
11644,45.0,37.0,3750.0,5.0,0.0
11645,55.0,8.0,3750.0,5.0,0.0
11646,64.0,7.0,3780.0,1.0,0.0
11647,69.0,1893.0,3780.0,1.0,0.0
11648,36.0,1815.0,7680.0,5.0,0.0
11649,43.0,12.0,1920.0,5.0,0.0
11650,48.0,40.0,1920.0,5.0,0.0
11651,58.0,0.0,1890.0,1.0,0.0
11652,64.0,13.0,1890.0,1.0,0.0
11653,55.0,1840.0,1920.0,5.0,0.0
11654,70.0,15.0,1860.0,1.0,0.0
11655,43.0,12.0,1920.0,5.0,0.0
11656,48.0,0.0,1890.0,5.0,0.0
11657,58.0,60.0,1890.0,1.0,0.0
11658,64.0,8.0,1860.0,1.0,0.0
11659,70.0,0.0,1860.0,1.0,0.0
11660,43.0,12.0,3840.0,5.0,0.0
11661,48.0,8.0,3810.0,5.0,0.0
11662,58.0,10.0,3840.0,1.0,0.0
11663,64.0,1930.0,3840.0,1.0,0.0
11664,70.0,40.0,3780.0,1.0,0.0
11665,55.0,1920.0,15.0,5.0,0.0
11666,35.0,900.0,3840.0,5.0,0.0
11667,47.0,20.0,2910.0,5.0,0.0
11668,52.0,0.0,2880.0,5.0,0.0
11669,54.0,10.0,2880.0,5.0,0.0
11670,59.0,0.0,2880.0,1.0,0.0
11671,66.0,10.0,2880.0,1.0,0.0
11672,71.0,2895.0,2880.0,1.0,0.0
11673,64.0,20.0,2850.0,1.0,0.0
11674,33.0,870.0,3840.0,5.0,0.0
11675,47.0,0.0,2910.0,5.0,0.0
11676,51.0,20.0,2880.0,5.0,0.0
11677,54.0,10.0,2880.0,5.0,0.0
11678,63.0,10.0,2880.0,1.0,0.0
11679,59.0,15.0,2820.0,5.0,0.0
11680,66.0,10.0,2880.0,1.0,0.0
11681,71.0,10.0,2880.0,1.0,0.0
11682,75.0,2865.0,2880.0,1.0,0.0
11683,32.0,900.0,3840.0,5.0,0.0
11684,47.0,30.0,2910.0,5.0,0.0
11685,54.0,15.0,2850.0,5.0,0.0
11686,59.0,10.0,2880.0,5.0,0.0
11687,66.0,10.0,2880.0,1.0,0.0
11688,71.0,10.0,2880.0,1.0,0.0
11689,78.0,2865.0,2880.0,1.0,0.0
11690,31.0,915.0,3840.0,5.0,0.0
11691,47.0,10.0,2910.0,5.0,0.0
11692,52.0,10.0,2880.0,5.0,0.0
11693,59.0,10.0,2880.0,5.0,0.0
11694,64.0,10.0,2880.0,5.0,0.0
11695,71.0,10.0,2880.0,1.0,0.0
11696,76.0,10.0,2880.0,1.0,0.0
11697,83.0,960.0,2880.0,1.0,0.0
11698,30.0,360.0,1920.0,5.0,0.0
11699,42.0,1080.0,360.0,5.0,0.0
11700,71.0,0.0,960.0,4.0,0.0
11701,88.0,0.0,960.0,1.0,0.0
11702,76.0,480.0,960.0,1.0,0.0
11703,61.0,0.0,960.0,5.0,0.0
11704,83.0,0.0,960.0,2.0,0.0
11705,73.0,0.0,480.0,1.0,0.0
11706,64.0,0.0,15.0,4.0,0.0
11707,70.0,0.0,480.0,4.0,0.0
11708,76.0,0.0,480.0,2.0,0.0
11709,61.0,480.0,480.0,5.0,0.0
11710,82.0,0.0,480.0,1.0,0.0
11711,70.0,0.0,480.0,1.0,0.0
11712,82.0,0.0,480.0,1.0,0.0
11713,76.0,960.0,480.0,2.0,0.0
11714,61.0,0.0,480.0,5.0,0.0
11715,66.0,0.0,480.0,4.0,0.0
11716,64.0,0.0,480.0,4.0,0.0
11717,52.0,0.0,960.0,5.0,0.0
11718,61.0,0.0,960.0,2.0,0.0
11719,54.0,0.0,960.0,1.0,0.0
11720,58.0,0.0,15.0,2.0,0.0
11721,54.0,0.0,480.0,1.0,0.0
11722,66.0,480.0,15.0,1.0,0.0
11723,61.0,0.0,480.0,2.0,0.0
11724,40.0,0.0,15.0,5.0,0.0
11725,28.0,0.0,480.0,5.0,0.0
11726,54.0,960.0,480.0,1.0,0.0
11727,66.0,0.0,480.0,1.0,0.0
11728,59.0,0.0,480.0,2.0,0.0
11729,27.0,0.0,480.0,5.0,0.0
11730,39.0,0.0,480.0,5.0,0.0
11731,66.0,0.0,960.0,4.0,0.0
11732,83.0,0.0,960.0,2.0,0.0
11733,90.0,0.0,960.0,1.0,0.0
11734,78.0,480.0,960.0,1.0,0.0
11735,71.0,0.0,960.0,4.0,0.0
11736,66.0,0.0,480.0,4.0,0.0
11737,69.0,0.0,480.0,1.0,0.0
11738,63.0,0.0,15.0,5.0,0.0
11739,71.0,0.0,480.0,2.0,0.0
11740,78.0,0.0,480.0,2.0,0.0
11741,81.0,0.0,480.0,1.0,0.0
11742,79.0,0.0,480.0,1.0,0.0
11743,71.0,0.0,480.0,2.0,0.0
11744,76.0,0.0,480.0,2.0,0.0
11745,64.0,960.0,480.0,5.0,0.0
11746,67.0,0.0,15.0,1.0,0.0
11747,59.0,0.0,960.0,2.0,0.0
11748,52.0,0.0,960.0,5.0,0.0
11749,40.0,480.0,960.0,5.0,0.0
11750,67.0,0.0,15.0,1.0,0.0
11751,55.0,0.0,15.0,1.0,0.0
11752,28.0,0.0,480.0,5.0,0.0
11753,40.0,480.0,480.0,5.0,0.0
11754,66.0,0.0,480.0,1.0,0.0
11755,59.0,0.0,15.0,2.0,0.0
11756,27.0,0.0,480.0,5.0,0.0
11757,39.0,0.0,480.0,5.0,0.0
11758,54.0,960.0,480.0,1.0,0.0
11759,83.0,0.0,960.0,2.0,0.0
11760,78.0,0.0,960.0,1.0,0.0
11761,90.0,0.0,960.0,1.0,0.0
11762,71.0,0.0,960.0,4.0,0.0
11763,63.0,0.0,960.0,5.0,0.0
11764,78.0,0.0,480.0,2.0,0.0
11765,66.0,480.0,15.0,4.0,0.0
11766,63.0,0.0,480.0,5.0,0.0
11767,69.0,0.0,480.0,1.0,0.0
11768,81.0,0.0,480.0,1.0,0.0
11769,71.0,480.0,15.0,2.0,0.0
11770,76.0,0.0,480.0,2.0,0.0
11771,64.0,0.0,480.0,5.0,0.0
11772,79.0,0.0,480.0,1.0,0.0
11773,59.0,0.0,960.0,2.0,0.0
11774,52.0,480.0,960.0,5.0,0.0
11775,67.0,960.0,15.0,1.0,0.0
11776,40.0,0.0,960.0,5.0,0.0
11777,59.0,0.0,480.0,2.0,0.0
11778,28.0,0.0,480.0,5.0,0.0
11779,55.0,0.0,15.0,1.0,0.0
11780,67.0,0.0,15.0,1.0,0.0
11781,40.0,480.0,480.0,5.0,0.0
11782,54.0,0.0,480.0,1.0,0.0
11783,39.0,960.0,480.0,5.0,0.0
11784,27.0,0.0,480.0,5.0,0.0
11785,66.0,0.0,480.0,1.0,0.0
11786,59.0,0.0,480.0,2.0,0.0
11787,52.0,0.0,960.0,5.0,0.0
11788,59.0,480.0,960.0,2.0,0.0
11789,55.0,0.0,15.0,1.0,0.0
11790,28.0,0.0,480.0,5.0,0.0
11791,40.0,0.0,15.0,5.0,0.0
11792,67.0,0.0,15.0,1.0,0.0
11793,39.0,0.0,480.0,5.0,0.0
11794,27.0,0.0,480.0,5.0,0.0
11795,66.0,0.0,480.0,1.0,0.0
11796,59.0,480.0,15.0,2.0,0.0
11797,54.0,960.0,480.0,1.0,0.0
11798,52.0,480.0,960.0,5.0,0.0
11799,64.0,0.0,960.0,2.0,0.0
11800,59.0,0.0,960.0,2.0,0.0
11801,55.0,0.0,15.0,1.0,0.0
11802,64.0,480.0,480.0,2.0,0.0
11803,59.0,0.0,480.0,2.0,0.0
11804,40.0,0.0,15.0,5.0,0.0
11805,67.0,0.0,15.0,1.0,0.0
11806,28.0,0.0,480.0,5.0,0.0
11807,54.0,960.0,480.0,1.0,0.0
11808,66.0,0.0,480.0,1.0,0.0
11809,63.0,0.0,480.0,2.0,0.0
11810,35.0,0.0,480.0,5.0,0.0
11811,59.0,0.0,480.0,2.0,0.0
11812,23.0,0.0,480.0,5.0,0.0
11813,78.0,0.0,960.0,2.0,0.0
11814,75.0,0.0,960.0,2.0,0.0
11815,83.0,0.0,960.0,1.0,0.0
11816,71.0,0.0,960.0,1.0,0.0
11817,59.0,0.0,960.0,5.0,0.0
11818,47.0,480.0,960.0,5.0,0.0
11819,51.0,0.0,15.0,4.0,0.0
11820,54.0,0.0,15.0,4.0,0.0
11821,59.0,0.0,480.0,5.0,0.0
11822,47.0,0.0,480.0,5.0,0.0
11823,75.0,0.0,480.0,2.0,0.0
11824,78.0,0.0,480.0,2.0,0.0
11825,40.0,0.0,960.0,5.0,0.0
11826,79.0,0.0,960.0,2.0,0.0
11827,76.0,0.0,960.0,2.0,0.0
11828,28.0,0.0,960.0,5.0,0.0
11829,71.0,480.0,15.0,1.0,0.0
11830,83.0,0.0,15.0,1.0,0.0
11831,47.0,240.0,15.0,3.0,0.0
11832,52.0,0.0,15.0,3.0,0.0
11833,52.0,0.0,240.0,3.0,0.0
11834,47.0,0.0,240.0,3.0,0.0
11835,76.0,0.0,480.0,1.0,0.0
11836,64.0,0.0,480.0,1.0,0.0
11837,52.0,0.0,240.0,3.0,0.0
11838,47.0,480.0,240.0,3.0,0.0
11839,78.0,0.0,480.0,1.0,0.0
11840,66.0,0.0,480.0,1.0,0.0
11841,52.0,480.0,240.0,3.0,0.0
11842,57.0,0.0,240.0,3.0,0.0
11843,48.0,0.0,240.0,3.0,0.0
11844,59.0,480.0,960.0,1.0,0.0
11845,71.0,0.0,960.0,1.0,0.0
11846,56.0,0.0,240.0,3.0,0.0
11847,50.0,0.0,240.0,3.0,0.0
11848,56.0,0.0,240.0,3.0,0.0
11849,50.0,0.0,240.0,3.0,0.0
11850,52.0,240.0,15.0,3.0,0.0
11851,56.0,0.0,240.0,3.0,0.0
11852,50.0,0.0,240.0,3.0,0.0
11853,52.0,240.0,15.0,3.0,0.0
11854,76.0,480.0,480.0,1.0,0.0
11855,64.0,0.0,480.0,1.0,0.0
11856,52.0,0.0,240.0,3.0,0.0
11857,57.0,0.0,240.0,3.0,0.0
11858,48.0,0.0,240.0,3.0,0.0
11859,64.0,480.0,480.0,1.0,0.0
11860,76.0,0.0,480.0,1.0,0.0
11861,52.0,0.0,240.0,3.0,0.0
11862,48.0,0.0,240.0,3.0,0.0
11863,57.0,0.0,240.0,3.0,0.0
11864,63.0,0.0,480.0,1.0,0.0
11865,75.0,0.0,480.0,1.0,0.0
11866,47.0,0.0,240.0,3.0,0.0
11867,60.0,0.0,240.0,3.0,0.0
11868,57.0,480.0,240.0,3.0,0.0
11869,76.0,480.0,480.0,1.0,0.0
11870,64.0,0.0,480.0,1.0,0.0
11871,47.0,0.0,240.0,3.0,0.0
11872,55.0,0.0,240.0,3.0,0.0
11873,59.0,0.0,240.0,3.0,0.0
11874,66.0,0.0,480.0,1.0,0.0
11875,78.0,480.0,480.0,1.0,0.0
11876,47.0,0.0,240.0,3.0,0.0
11877,57.0,0.0,240.0,3.0,0.0
11878,54.0,0.0,240.0,3.0,0.0
11879,67.0,480.0,480.0,1.0,0.0
11880,79.0,0.0,480.0,1.0,0.0
11881,47.0,0.0,240.0,3.0,0.0
11882,52.0,0.0,240.0,3.0,0.0
11883,81.0,480.0,960.0,1.0,0.0
11884,69.0,0.0,960.0,1.0,0.0
11885,47.0,240.0,240.0,3.0,0.0
11886,51.0,0.0,240.0,3.0,0.0
11887,54.0,0.0,15.0,3.0,0.0
11888,48.0,0.0,240.0,3.0,0.0
11889,54.0,240.0,15.0,3.0,0.0
11890,47.0,0.0,240.0,3.0,0.0
11891,51.0,0.0,15.0,3.0,0.0
11892,80.0,0.0,480.0,1.0,0.0
11893,68.0,0.0,480.0,1.0,0.0
11894,40.0,0.0,240.0,3.0,0.0
11895,50.0,240.0,240.0,3.0,0.0
11896,47.0,0.0,240.0,3.0,0.0
11897,50.0,0.0,240.0,3.0,0.0
11898,47.0,240.0,240.0,3.0,0.0
11899,41.0,0.0,240.0,3.0,0.0
11900,50.0,0.0,240.0,3.0,0.0
11901,47.0,0.0,240.0,3.0,0.0
11902,40.0,0.0,240.0,3.0,0.0
11903,88.0,480.0,15.0,1.0,0.0
11904,33.0,0.0,960.0,5.0,0.0
11905,76.0,0.0,15.0,1.0,0.0
11906,45.0,0.0,960.0,5.0,0.0
11907,61.0,240.0,240.0,3.0,0.0
11908,57.0,0.0,15.0,3.0,0.0
11909,52.0,0.0,15.0,3.0,0.0
11910,61.0,0.0,240.0,3.0,0.0
11911,52.0,240.0,15.0,3.0,0.0
11912,61.0,0.0,240.0,3.0,0.0
11913,57.0,0.0,240.0,3.0,0.0
11914,69.0,0.0,480.0,1.0,0.0
11915,81.0,0.0,480.0,1.0,0.0
11916,57.0,0.0,240.0,3.0,0.0
11917,52.0,0.0,240.0,3.0,0.0
11918,61.0,471.0,240.0,3.0,0.0
11919,82.0,0.0,480.0,1.0,0.0
11920,70.0,0.0,480.0,1.0,0.0
11921,57.0,0.0,240.0,3.0,0.0
11922,53.0,9.0,240.0,3.0,0.0
11923,62.0,480.0,240.0,3.0,0.0
11924,64.0,480.0,960.0,1.0,0.0
11925,76.0,0.0,960.0,1.0,0.0
11926,58.0,0.0,240.0,3.0,0.0
11927,55.0,0.0,240.0,3.0,0.0
11928,61.0,240.0,240.0,3.0,0.0
11929,55.0,0.0,240.0,3.0,0.0
11930,61.0,240.0,15.0,3.0,0.0
11931,58.0,0.0,15.0,3.0,0.0
11932,55.0,0.0,240.0,3.0,0.0
11933,69.0,0.0,480.0,1.0,0.0
11934,81.0,480.0,480.0,1.0,0.0
11935,62.0,0.0,240.0,3.0,0.0
11936,57.0,0.0,240.0,3.0,0.0
11937,54.0,0.0,240.0,3.0,0.0
11938,69.0,0.0,480.0,1.0,0.0
11939,62.0,0.0,240.0,3.0,0.0
11940,57.0,0.0,240.0,3.0,0.0
11941,53.0,480.0,240.0,3.0,0.0
11942,68.0,0.0,480.0,1.0,0.0
11943,52.0,480.0,960.0,5.0,0.0
11944,59.0,0.0,240.0,3.0,0.0
11945,62.0,480.0,240.0,3.0,0.0
11946,69.0,0.0,480.0,1.0,0.0
11947,60.0,0.0,240.0,3.0,0.0
11948,64.0,0.0,240.0,3.0,0.0
11949,71.0,0.0,480.0,1.0,0.0
11950,44.0,0.0,480.0,5.0,0.0
11951,64.0,480.0,240.0,3.0,0.0
11952,62.0,0.0,240.0,3.0,0.0
11953,72.0,480.0,480.0,1.0,0.0
11954,45.0,0.0,480.0,5.0,0.0
11955,60.0,0.0,240.0,3.0,0.0
11956,64.0,0.0,240.0,3.0,0.0
11957,76.0,0.0,480.0,1.0,0.0
11958,40.0,0.0,960.0,5.0,0.0
11959,64.0,480.0,240.0,3.0,0.0
11960,68.0,0.0,240.0,3.0,0.0
11961,74.0,0.0,480.0,1.0,0.0
11962,68.0,480.0,240.0,3.0,0.0
11963,64.0,0.0,240.0,3.0,0.0
11964,68.0,0.0,240.0,3.0,0.0
11965,64.0,0.0,240.0,3.0,0.0
11966,71.0,480.0,15.0,1.0,0.0
11967,53.0,480.0,480.0,5.0,0.0
11968,62.0,0.0,240.0,3.0,0.0
11969,68.0,0.0,240.0,3.0,0.0
11970,54.0,0.0,960.0,5.0,0.0
11971,70.0,0.0,480.0,1.0,0.0
11972,64.0,480.0,240.0,3.0,0.0
11973,61.0,0.0,240.0,3.0,0.0
11974,71.0,480.0,480.0,1.0,0.0
11975,62.0,0.0,240.0,3.0,0.0
11976,66.0,0.0,240.0,3.0,0.0
11977,46.0,480.0,480.0,5.0,0.0
11978,73.0,0.0,480.0,1.0,0.0
11979,66.0,0.0,240.0,3.0,0.0
11980,64.0,0.0,240.0,3.0,0.0
11981,74.0,480.0,480.0,1.0,0.0
11982,47.0,0.0,480.0,5.0,0.0
11983,62.0,0.0,240.0,3.0,0.0
11984,66.0,0.0,240.0,3.0,0.0
11985,42.0,0.0,960.0,5.0,0.0
11986,78.0,480.0,480.0,1.0,0.0
11987,66.0,0.0,240.0,3.0,0.0
11988,70.0,0.0,240.0,3.0,0.0
11989,76.0,480.0,480.0,1.0,0.0
11990,70.0,0.0,240.0,3.0,0.0
11991,66.0,0.0,240.0,3.0,0.0
11992,73.0,0.0,480.0,1.0,0.0
11993,66.0,480.0,240.0,3.0,0.0
11994,70.0,0.0,240.0,3.0,0.0
11995,55.0,480.0,480.0,5.0,0.0
11996,73.0,0.0,480.0,1.0,0.0
11997,64.0,0.0,240.0,3.0,0.0
11998,70.0,0.0,240.0,3.0,0.0
11999,72.0,0.0,480.0,1.0,0.0
12000,56.0,0.0,960.0,5.0,0.0
12001,68.0,0.0,240.0,3.0,0.0
12002,63.0,480.0,240.0,3.0,0.0
12003,73.0,0.0,480.0,1.0,0.0
12004,68.0,0.0,240.0,3.0,0.0
12005,64.0,480.0,240.0,3.0,0.0
12006,75.0,0.0,480.0,1.0,0.0
12007,48.0,0.0,480.0,5.0,0.0
12008,68.0,480.0,240.0,3.0,0.0
12009,66.0,0.0,240.0,3.0,0.0
12010,76.0,0.0,480.0,1.0,0.0
12011,49.0,480.0,480.0,5.0,0.0
12012,64.0,0.0,240.0,3.0,0.0
12013,68.0,0.0,240.0,3.0,0.0
12014,44.0,0.0,960.0,5.0,0.0
12015,75.0,480.0,480.0,1.0,0.0
12016,56.0,0.0,960.0,5.0,0.0
12017,72.0,0.0,240.0,3.0,0.0
12018,66.0,0.0,240.0,3.0,0.0
12019,76.0,480.0,480.0,1.0,0.0
12020,73.0,0.0,240.0,3.0,0.0
12021,64.0,0.0,240.0,3.0,0.0
12022,78.0,0.0,480.0,1.0,0.0
12023,51.0,480.0,480.0,5.0,0.0
12024,39.0,0.0,480.0,5.0,0.0
12025,69.0,0.0,240.0,3.0,0.0
12026,72.0,0.0,240.0,3.0,0.0
12027,52.0,480.0,480.0,5.0,0.0
12028,40.0,0.0,480.0,5.0,0.0
12029,80.0,0.0,480.0,1.0,0.0
12030,73.0,0.0,240.0,3.0,0.0
12031,68.0,0.0,240.0,3.0,0.0
12032,81.0,0.0,480.0,1.0,0.0
12033,44.0,0.0,480.0,5.0,0.0
12034,32.0,0.0,480.0,5.0,0.0
12035,72.0,0.0,240.0,3.0,0.0
12036,68.0,480.0,240.0,3.0,0.0
12037,56.0,0.0,960.0,4.0,0.0
12038,80.0,0.0,480.0,1.0,0.0
12039,48.0,0.0,960.0,5.0,0.0
12040,68.0,0.0,240.0,3.0,0.0
12041,72.0,480.0,240.0,3.0,0.0
12042,75.0,0.0,480.0,1.0,0.0
12043,72.0,0.0,240.0,3.0,0.0
12044,68.0,0.0,240.0,3.0,0.0
12045,48.0,0.0,480.0,5.0,0.0
12046,51.0,480.0,15.0,4.0,0.0
12047,56.0,0.0,480.0,4.0,0.0
12048,80.0,0.0,480.0,1.0,0.0
12049,68.0,0.0,240.0,3.0,0.0
12050,72.0,0.0,240.0,3.0,0.0
12051,30.0,0.0,480.0,5.0,0.0
12052,83.0,0.0,480.0,1.0,0.0
12053,42.0,480.0,480.0,5.0,0.0
12054,71.0,0.0,240.0,3.0,0.0
12055,75.0,0.0,240.0,3.0,0.0
12056,47.0,0.0,960.0,5.0,0.0
12057,81.0,0.0,480.0,1.0,0.0
12058,75.0,0.0,240.0,3.0,0.0
12059,71.0,480.0,240.0,3.0,0.0
12060,78.0,480.0,480.0,1.0,0.0
12061,71.0,0.0,240.0,3.0,0.0
12062,75.0,0.0,240.0,3.0,0.0
12063,57.0,0.0,15.0,4.0,0.0
12064,51.0,0.0,15.0,4.0,0.0
12065,47.0,0.0,480.0,5.0,0.0
12066,81.0,0.0,480.0,1.0,0.0
12067,71.0,0.0,240.0,3.0,0.0
12068,75.0,240.0,240.0,3.0,0.0
12069,23.0,240.0,480.0,5.0,0.0
12070,87.0,0.0,240.0,1.0,0.0
12071,35.0,0.0,480.0,5.0,0.0
12072,81.0,0.0,240.0,2.0,0.0
12073,78.0,0.0,240.0,2.0,0.0
12074,75.0,192.0,240.0,2.0,0.0
12075,83.0,48.0,180.0,1.0,0.0
12076,72.0,240.0,960.0,5.0,0.0
12077,76.0,240.0,240.0,2.0,0.0
12078,69.0,0.0,240.0,2.0,0.0
12079,81.0,0.0,240.0,1.0,0.0
12080,64.0,0.0,960.0,4.0,0.0
12081,66.0,0.0,960.0,4.0,0.0
12082,78.0,240.0,240.0,1.0,0.0
12083,76.0,240.0,240.0,1.0,0.0
12084,72.0,0.0,240.0,1.0,0.0
12085,60.0,0.0,15.0,5.0,0.0
12086,69.0,120.0,240.0,1.0,0.0
12087,48.0,0.0,360.0,5.0,0.0
12088,64.0,240.0,240.0,1.0,0.0
12089,47.0,0.0,360.0,5.0,0.0
12090,59.0,72.0,360.0,5.0,0.0
12091,75.0,0.0,240.0,1.0,0.0
12092,63.0,120.0,240.0,2.0,0.0
12093,66.0,0.0,240.0,2.0,0.0
12094,71.0,288.0,180.0,1.0,0.0
12095,60.0,0.0,960.0,5.0,0.0
12096,48.0,0.0,960.0,5.0,0.0
12097,52.0,240.0,960.0,4.0,0.0
12098,54.0,0.0,960.0,4.0,0.0
12099,69.0,240.0,240.0,1.0,0.0
12100,57.0,0.0,240.0,2.0,0.0
12101,66.0,0.0,240.0,2.0,0.0
12102,66.0,240.0,240.0,1.0,0.0
12103,64.0,240.0,240.0,1.0,0.0
12104,60.0,0.0,240.0,1.0,0.0
12105,57.0,120.0,240.0,1.0,0.0
12106,48.0,0.0,360.0,5.0,0.0
12107,36.0,120.0,360.0,5.0,0.0
12108,52.0,240.0,240.0,1.0,0.0
12109,35.0,0.0,360.0,5.0,0.0
12110,63.0,120.0,240.0,1.0,0.0
12111,47.0,72.0,360.0,5.0,0.0
12112,51.0,0.0,240.0,2.0,0.0
12113,54.0,0.0,240.0,2.0,0.0
12114,59.0,288.0,180.0,1.0,0.0
12115,48.0,15.0,720.0,5.0,0.0
12116,52.0,0.0,240.0,2.0,0.0
12117,42.0,0.0,960.0,4.0,0.0
12118,40.0,0.0,960.0,4.0,0.0
12119,45.0,240.0,240.0,2.0,0.0
12120,57.0,0.0,240.0,1.0,0.0
12121,54.0,225.0,240.0,1.0,0.0
12122,52.0,240.0,240.0,1.0,0.0
12123,48.0,0.0,240.0,1.0,0.0
12124,45.0,120.0,240.0,1.0,0.0
12125,36.0,240.0,15.0,5.0,0.0
12126,24.0,120.0,360.0,5.0,0.0
12127,40.0,360.0,240.0,1.0,0.0
12128,39.0,408.0,360.0,2.0,0.0
12129,35.0,0.0,360.0,5.0,0.0
12130,23.0,0.0,360.0,5.0,0.0
12131,47.0,0.0,360.0,1.0,0.0
12132,23.0,1032.0,300.0,5.0,0.0
12133,47.0,600.0,360.0,5.0,0.0
12134,47.0,360.0,480.0,5.0,0.0
12135,59.0,516.0,360.0,5.0,0.0
12136,54.0,104.0,150.0,5.0,0.0
12137,57.0,136.0,60.0,5.0,0.0
12138,56.0,240.0,150.0,5.0,0.0
12139,54.0,324.0,150.0,5.0,0.0
12140,68.0,156.0,240.0,1.0,0.0
12141,52.0,156.0,480.0,5.0,0.0
12142,80.0,84.0,150.0,1.0,0.0
12143,78.0,204.0,150.0,1.0,0.0
12144,47.0,36.0,360.0,5.0,0.0
12145,76.0,240.0,150.0,1.0,0.0
12146,75.0,240.0,150.0,1.0,0.0
12147,73.0,240.0,150.0,1.0,0.0
12148,71.0,240.0,150.0,1.0,0.0
12149,47.0,240.0,960.0,5.0,0.0
12150,68.0,324.0,150.0,1.0,0.0
12151,65.0,192.0,240.0,1.0,0.0
12152,63.0,0.0,240.0,2.0,0.0
12153,66.0,48.0,180.0,1.0,0.0
12154,59.0,72.0,360.0,5.0,0.0
12155,73.0,0.0,240.0,1.0,0.0
12156,63.0,0.0,240.0,2.0,0.0
12157,66.0,120.0,240.0,2.0,0.0
12158,71.0,288.0,180.0,1.0,0.0
12159,63.0,0.0,240.0,2.0,0.0
12160,66.0,0.0,240.0,2.0,0.0
12161,70.0,156.0,240.0,1.0,0.0
12162,71.0,68.0,180.0,1.0,0.0
12163,54.0,36.0,150.0,5.0,0.0
12164,57.0,136.0,60.0,5.0,0.0
12165,56.0,84.0,150.0,5.0,0.0
12166,69.0,0.0,240.0,2.0,0.0
12167,66.0,0.0,240.0,2.0,0.0
12168,76.0,156.0,240.0,1.0,0.0
12169,75.0,288.0,180.0,1.0,0.0
12170,54.0,36.0,150.0,5.0,0.0
12171,76.0,156.0,240.0,1.0,0.0
12172,52.0,156.0,480.0,5.0,0.0
12173,68.0,0.0,240.0,2.0,0.0
12174,83.0,84.0,150.0,1.0,0.0
12175,47.0,156.0,480.0,5.0,0.0
12176,81.0,240.0,150.0,1.0,0.0
12177,80.0,84.0,150.0,1.0,0.0
12178,78.0,240.0,150.0,1.0,0.0
12179,76.0,240.0,150.0,1.0,0.0
12180,74.0,240.0,150.0,1.0,0.0
12181,52.0,240.0,960.0,5.0,0.0
12182,72.0,324.0,150.0,1.0,0.0
12183,70.0,192.0,240.0,1.0,0.0
12184,68.0,0.0,240.0,2.0,0.0
12185,71.0,48.0,180.0,1.0,0.0
12186,64.0,72.0,360.0,5.0,0.0
12187,77.0,0.0,240.0,1.0,0.0
12188,68.0,120.0,240.0,2.0,0.0
12189,71.0,0.0,240.0,2.0,0.0
12190,76.0,288.0,180.0,1.0,0.0
12191,68.0,0.0,240.0,2.0,0.0
12192,71.0,0.0,240.0,2.0,0.0
12193,75.0,156.0,240.0,1.0,0.0
12194,59.0,36.0,150.0,5.0,0.0
12195,76.0,68.0,180.0,1.0,0.0
12196,62.0,136.0,60.0,5.0,0.0
12197,71.0,0.0,240.0,2.0,0.0
12198,74.0,0.0,240.0,2.0,0.0
12199,60.0,84.0,150.0,5.0,0.0
12200,81.0,156.0,240.0,1.0,0.0
12201,59.0,36.0,150.0,5.0,0.0
12202,80.0,288.0,180.0,1.0,0.0
12203,72.0,0.0,360.0,1.0,0.0
12204,84.0,72.0,360.0,1.0,0.0
12205,59.0,120.0,240.0,5.0,0.0
12206,76.0,0.0,360.0,2.0,0.0
12207,57.0,288.0,180.0,5.0,0.0
12208,57.0,120.0,240.0,5.0,0.0
12209,83.0,72.0,360.0,1.0,0.0
12210,71.0,0.0,360.0,1.0,0.0
12211,76.0,0.0,360.0,2.0,0.0
12212,55.0,288.0,180.0,5.0,0.0
12213,75.0,0.0,360.0,1.0,0.0
12214,63.0,0.0,360.0,1.0,0.0
12215,55.0,120.0,240.0,5.0,0.0
12216,69.0,72.0,360.0,2.0,0.0
12217,54.0,288.0,180.0,5.0,0.0
12218,64.0,0.0,360.0,1.0,0.0
12219,54.0,120.0,240.0,5.0,0.0
12220,76.0,0.0,360.0,1.0,0.0
12221,67.0,72.0,360.0,2.0,0.0
12222,52.0,288.0,180.0,5.0,0.0
12223,71.0,0.0,360.0,2.0,0.0
12224,66.0,72.0,360.0,1.0,0.0
12225,78.0,0.0,360.0,1.0,0.0
12226,52.0,120.0,240.0,5.0,0.0
12227,50.0,288.0,180.0,5.0,0.0
12228,50.0,120.0,240.0,5.0,0.0
12229,76.0,72.0,360.0,2.0,0.0
12230,79.0,0.0,360.0,1.0,0.0
12231,67.0,0.0,360.0,1.0,0.0
12232,48.0,288.0,180.0,5.0,0.0
12233,74.0,0.0,360.0,2.0,0.0
12234,48.0,120.0,240.0,5.0,0.0
12235,80.0,0.0,360.0,1.0,0.0
12236,68.0,72.0,360.0,1.0,0.0
12237,47.0,288.0,180.0,5.0,0.0
12238,47.0,120.0,240.0,5.0,0.0
12239,69.0,0.0,360.0,1.0,0.0
12240,81.0,0.0,360.0,1.0,0.0
12241,72.0,72.0,360.0,2.0,0.0
12242,45.0,288.0,180.0,5.0,0.0
12243,83.0,0.0,480.0,1.0,0.0
12244,71.0,720.0,480.0,1.0,0.0
12245,76.0,0.0,480.0,2.0,0.0
12246,45.0,192.0,240.0,5.0,0.0
12247,43.0,48.0,180.0,5.0,0.0
12248,83.0,0.0,480.0,1.0,0.0
12249,79.0,0.0,480.0,2.0,0.0
12250,42.0,192.0,240.0,5.0,0.0
12251,71.0,720.0,480.0,1.0,0.0
12252,40.0,48.0,180.0,5.0,0.0
12253,75.0,0.0,360.0,2.0,0.0
12254,83.0,860.0,360.0,1.0,0.0
12255,71.0,0.0,360.0,1.0,0.0
12256,35.0,120.0,240.0,5.0,0.0
12257,78.0,0.0,360.0,2.0,0.0
12258,47.0,100.0,990.0,5.0,0.0
12259,75.0,0.0,360.0,1.0,0.0
12260,87.0,600.0,360.0,1.0,0.0
12261,78.0,0.0,360.0,2.0,0.0
12262,83.0,0.0,360.0,2.0,0.0
12263,59.0,240.0,720.0,5.0,0.0
12264,83.0,0.0,240.0,1.0,0.0
12265,78.0,120.0,240.0,2.0,0.0
12266,75.0,0.0,240.0,2.0,0.0
12267,71.0,0.0,360.0,5.0,0.0
12268,63.0,0.0,360.0,5.0,0.0
12269,66.0,36.0,360.0,5.0,0.0
12270,81.0,240.0,150.0,1.0,0.0
12271,78.0,240.0,150.0,1.0,0.0
12272,75.0,240.0,150.0,1.0,0.0
12273,71.0,240.0,150.0,1.0,0.0
12274,66.0,104.0,150.0,1.0,0.0
12275,69.0,136.0,60.0,1.0,0.0
12276,67.0,240.0,150.0,1.0,0.0
12277,66.0,324.0,150.0,1.0,0.0
12278,52.0,240.0,240.0,5.0,0.0
12279,64.0,0.0,480.0,1.0,0.0
12280,55.0,156.0,240.0,5.0,0.0
12281,54.0,204.0,150.0,5.0,0.0
12282,59.0,36.0,360.0,1.0,0.0
12283,52.0,240.0,150.0,5.0,0.0
12284,50.0,240.0,150.0,5.0,0.0
12285,48.0,240.0,150.0,5.0,0.0
12286,59.0,0.0,960.0,1.0,0.0
12287,47.0,240.0,150.0,5.0,0.0
12288,45.0,324.0,150.0,5.0,0.0
12289,41.0,240.0,240.0,5.0,0.0
12290,42.0,240.0,240.0,5.0,0.0
12291,51.0,120.0,240.0,5.0,0.0
12292,71.0,120.0,360.0,1.0,0.0
12293,47.0,240.0,240.0,5.0,0.0
12294,47.0,156.0,240.0,5.0,0.0
12295,48.0,20.0,240.0,5.0,0.0
12296,66.0,84.0,150.0,1.0,0.0
12297,69.0,136.0,60.0,1.0,0.0
12298,57.0,156.0,240.0,5.0,0.0
12299,68.0,84.0,150.0,1.0,0.0
12300,66.0,84.0,150.0,1.0,0.0
12301,51.0,240.0,240.0,5.0,0.0
12302,65.0,360.0,480.0,1.0,0.0
12303,49.0,156.0,240.0,5.0,0.0
12304,62.0,84.0,150.0,5.0,0.0
12305,61.0,36.0,360.0,1.0,0.0
12306,59.0,240.0,150.0,5.0,0.0
12307,57.0,240.0,150.0,5.0,0.0
12308,56.0,240.0,150.0,5.0,0.0
12309,61.0,240.0,960.0,1.0,0.0
12310,54.0,324.0,150.0,5.0,0.0
12311,53.0,240.0,240.0,5.0,0.0
12312,48.0,240.0,240.0,5.0,0.0
12313,49.0,0.0,240.0,5.0,0.0
12314,73.0,120.0,360.0,1.0,0.0
12315,56.0,120.0,240.0,5.0,0.0
12316,53.0,240.0,240.0,5.0,0.0
12317,48.0,156.0,240.0,5.0,0.0
12318,68.0,84.0,150.0,1.0,0.0
12319,49.0,20.0,240.0,5.0,0.0
12320,71.0,136.0,60.0,1.0,0.0
12321,69.0,84.0,150.0,1.0,0.0
12322,59.0,156.0,240.0,5.0,0.0
12323,68.0,84.0,150.0,1.0,0.0
12324,53.0,240.0,240.0,5.0,0.0
12325,67.0,240.0,480.0,1.0,0.0
12326,48.0,240.0,240.0,5.0,0.0
12327,49.0,0.0,240.0,5.0,0.0
12328,57.0,120.0,240.0,5.0,0.0
12329,79.0,120.0,360.0,1.0,0.0
12330,52.0,240.0,240.0,5.0,0.0
12331,46.0,156.0,240.0,5.0,0.0
12332,50.0,20.0,240.0,5.0,0.0
12333,74.0,84.0,150.0,1.0,0.0
12334,77.0,136.0,60.0,1.0,0.0
12335,76.0,84.0,150.0,1.0,0.0
12336,55.0,156.0,240.0,5.0,0.0
12337,74.0,59.0,150.0,1.0,0.0
12338,46.0,225.0,210.0,5.0,0.0
12339,45.0,20.0,240.0,5.0,0.0
12340,49.0,20.0,240.0,5.0,0.0
12341,73.0,156.0,240.0,1.0,0.0
12342,52.0,0.0,240.0,5.0,0.0
12343,58.0,0.0,150.0,5.0,0.0
12344,70.0,240.0,150.0,2.0,0.0
12345,82.0,0.0,150.0,1.0,0.0
12346,81.0,240.0,150.0,1.0,0.0
12347,69.0,0.0,150.0,2.0,0.0
12348,57.0,0.0,150.0,5.0,0.0
12349,67.0,0.0,150.0,2.0,0.0
12350,55.0,0.0,150.0,5.0,0.0
12351,79.0,240.0,150.0,1.0,0.0
12352,77.0,0.0,150.0,1.0,0.0
12353,65.0,240.0,150.0,2.0,0.0
12354,53.0,0.0,150.0,5.0,0.0
12355,52.0,240.0,150.0,5.0,0.0
12356,76.0,0.0,150.0,1.0,0.0
12357,64.0,0.0,150.0,2.0,0.0
12358,62.0,0.0,150.0,2.0,0.0
12359,74.0,0.0,150.0,1.0,0.0
12360,50.0,240.0,150.0,5.0,0.0
12361,61.0,240.0,150.0,2.0,0.0
12362,49.0,0.0,150.0,5.0,0.0
12363,73.0,0.0,150.0,1.0,0.0
12364,46.0,0.0,150.0,5.0,0.0
12365,58.0,240.0,150.0,2.0,0.0
12366,70.0,0.0,150.0,1.0,0.0
12367,69.0,240.0,150.0,1.0,0.0
12368,57.0,0.0,150.0,2.0,0.0
12369,45.0,0.0,150.0,5.0,0.0
12370,55.0,240.0,150.0,2.0,0.0
12371,43.0,0.0,150.0,5.0,0.0
12372,67.0,0.0,150.0,1.0,0.0
12373,41.0,0.0,150.0,5.0,0.0
12374,53.0,0.0,150.0,2.0,0.0
12375,65.0,240.0,150.0,1.0,0.0
12376,40.0,0.0,150.0,5.0,0.0
12377,52.0,0.0,150.0,5.0,0.0
12378,64.0,240.0,150.0,1.0,0.0
12379,38.0,240.0,150.0,5.0,0.0
12380,50.0,0.0,150.0,5.0,0.0
12381,62.0,0.0,150.0,1.0,0.0
12382,60.0,0.0,150.0,1.0,0.0
12383,48.0,240.0,150.0,5.0,0.0
12384,36.0,0.0,150.0,5.0,0.0
12385,34.0,0.0,150.0,5.0,0.0
12386,58.0,0.0,150.0,1.0,0.0
12387,46.0,564.0,150.0,5.0,0.0
12388,45.0,0.0,960.0,5.0,0.0
12389,33.0,420.0,960.0,5.0,0.0
12390,57.0,480.0,480.0,1.0,0.0
12391,26.0,0.0,420.0,5.0,0.0
12392,38.0,480.0,420.0,5.0,0.0
12393,28.0,1015.0,420.0,5.0,0.0
12394,40.0,5.0,420.0,5.0,0.0
12395,21.0,0.0,1920.0,5.0,0.0
12396,50.0,0.0,960.0,2.0,0.0
12397,58.0,0.0,960.0,1.0,0.0
12398,46.0,420.0,960.0,1.0,0.0
12399,33.0,0.0,1920.0,5.0,0.0
12400,53.0,480.0,420.0,1.0,0.0
12401,50.0,960.0,960.0,2.0,0.0
12402,45.0,0.0,420.0,1.0,0.0
12403,55.0,53.0,420.0,1.0,0.0
12404,46.0,7.0,420.0,1.0,0.0
12405,52.0,0.0,960.0,5.0,0.0
12406,64.0,0.0,960.0,1.0,0.0
12407,76.0,0.0,960.0,1.0,0.0
12408,43.0,480.0,960.0,5.0,0.0
12409,70.0,0.0,960.0,2.0,0.0
12410,50.0,0.0,960.0,4.0,0.0
12411,72.0,5.0,480.0,1.0,0.0
12412,60.0,415.0,480.0,1.0,0.0
12413,33.0,0.0,960.0,5.0,0.0
12414,21.0,960.0,960.0,5.0,0.0
12415,73.0,60.0,420.0,1.0,0.0
12416,61.0,0.0,420.0,1.0,0.0
12417,79.0,480.0,960.0,1.0,0.0
12418,67.0,0.0,960.0,1.0,0.0
12419,58.0,0.0,960.0,5.0,0.0
12420,70.0,0.0,960.0,5.0,0.0
12421,33.0,0.0,1920.0,5.0,0.0
12422,82.0,0.0,960.0,1.0,0.0
12423,70.0,0.0,960.0,1.0,0.0
12424,54.0,412.0,480.0,5.0,0.0
12425,66.0,0.0,480.0,5.0,0.0
12426,76.0,0.0,15.0,2.0,0.0
12427,67.0,55.0,420.0,5.0,0.0
12428,55.0,13.0,420.0,5.0,0.0
12429,51.0,0.0,480.0,5.0,0.0
12430,63.0,420.0,480.0,5.0,0.0
12431,85.0,0.0,960.0,1.0,0.0
12432,73.0,0.0,960.0,1.0,0.0
12433,79.0,480.0,960.0,2.0,0.0
12434,52.0,55.0,420.0,5.0,0.0
12435,64.0,5.0,420.0,5.0,0.0
12436,82.0,0.0,900.0,2.0,0.0
12437,88.0,5.0,900.0,1.0,0.0
12438,76.0,300.0,900.0,1.0,0.0
12439,48.0,410.0,480.0,5.0,0.0
12440,60.0,0.0,480.0,5.0,0.0
12441,49.0,0.0,420.0,5.0,0.0
12442,61.0,5.0,420.0,5.0,0.0
12443,33.0,10.0,270.0,5.0,0.0
12444,37.0,5.0,270.0,5.0,0.0
12445,40.0,1.0,270.0,5.0,0.0
12446,95.0,0.0,480.0,1.0,0.0
12447,88.0,96.0,480.0,2.0,0.0
12448,91.0,0.0,480.0,2.0,0.0
12449,83.0,0.0,480.0,1.0,0.0
12450,45.0,224.0,270.0,5.0,0.0
12451,63.0,0.0,270.0,5.0,0.0
12452,75.0,320.0,270.0,5.0,0.0
12453,64.0,0.0,270.0,5.0,0.0
12454,76.0,544.0,270.0,5.0,0.0
12455,91.0,96.0,480.0,1.0,0.0
12456,79.0,0.0,480.0,1.0,0.0
12457,72.0,0.0,270.0,5.0,0.0
12458,60.0,320.0,270.0,5.0,0.0
12459,61.0,0.0,270.0,5.0,0.0
12460,73.0,544.0,270.0,5.0,0.0
12461,76.0,96.0,480.0,1.0,0.0
12462,88.0,0.0,480.0,1.0,0.0
12463,54.0,304.0,270.0,5.0,0.0
12464,66.0,0.0,270.0,5.0,0.0
12465,55.0,16.0,240.0,5.0,0.0
12466,67.0,544.0,270.0,5.0,0.0
12467,71.0,96.0,480.0,1.0,0.0
12468,83.0,0.0,480.0,1.0,0.0
12469,60.0,0.0,270.0,5.0,0.0
12470,48.0,320.0,270.0,5.0,0.0
12471,49.0,0.0,270.0,5.0,0.0
12472,61.0,384.0,270.0,5.0,0.0
12473,68.0,320.0,330.0,1.0,0.0
12474,80.0,0.0,330.0,1.0,0.0
12475,62.0,320.0,330.0,5.0,0.0
12476,50.0,0.0,330.0,5.0,0.0
12477,77.0,0.0,330.0,1.0,0.0
12478,65.0,320.0,330.0,1.0,0.0
12479,59.0,0.0,330.0,5.0,0.0
12480,47.0,320.0,330.0,5.0,0.0
12481,62.0,320.0,330.0,1.0,0.0
12482,74.0,0.0,330.0,1.0,0.0
12483,44.0,320.0,330.0,5.0,0.0
12484,56.0,0.0,330.0,5.0,0.0
12485,59.0,0.0,330.0,1.0,0.0
12486,71.0,320.0,330.0,1.0,0.0
12487,41.0,320.0,330.0,5.0,0.0
12488,53.0,0.0,330.0,5.0,0.0
12489,68.0,0.0,330.0,1.0,0.0
12490,56.0,320.0,330.0,1.0,0.0
12491,38.0,320.0,330.0,5.0,0.0
12492,50.0,0.0,330.0,5.0,0.0
12493,50.0,0.0,330.0,1.0,0.0
12494,62.0,320.0,330.0,1.0,0.0
12495,32.0,1920.0,330.0,5.0,0.0
12496,44.0,0.0,330.0,5.0,0.0
12497,21.0,0.0,7680.0,5.0,0.0
12498,33.0,15.0,7680.0,5.0,0.0
12499,57.0,0.0,1920.0,1.0,0.0
12500,45.0,2400.0,1920.0,1.0,0.0
12501,45.0,15.0,2880.0,5.0,0.0
12502,50.0,480.0,1440.0,5.0,0.0
12503,52.0,480.0,480.0,5.0,0.0
12504,64.0,0.0,480.0,1.0,0.0
12505,67.0,480.0,1440.0,1.0,0.0
12506,49.0,465.0,480.0,5.0,0.0
12507,52.0,480.0,1440.0,5.0,0.0
12508,65.0,480.0,480.0,1.0,0.0
12509,45.0,15.0,2880.0,5.0,0.0
12510,57.0,0.0,1440.0,5.0,0.0
12511,69.0,480.0,1440.0,1.0,0.0
12512,50.0,465.0,480.0,5.0,0.0
12513,53.0,480.0,1440.0,5.0,0.0
12514,67.0,465.0,480.0,1.0,0.0
12515,70.0,0.0,1440.0,1.0,0.0
12516,58.0,480.0,1440.0,5.0,0.0
12517,52.0,480.0,480.0,5.0,0.0
12518,45.0,0.0,1920.0,5.0,0.0
12519,61.0,480.0,1440.0,5.0,0.0
12520,67.0,480.0,480.0,1.0,0.0
12521,33.0,0.0,15.0,5.0,0.0
12522,70.0,0.0,1440.0,1.0,0.0
12523,58.0,0.0,1440.0,5.0,0.0
12524,52.0,480.0,480.0,5.0,0.0
12525,45.0,15.0,1920.0,5.0,0.0
12526,61.0,960.0,1440.0,5.0,0.0
12527,33.0,480.0,3840.0,5.0,0.0
12528,67.0,465.0,480.0,1.0,0.0
12529,58.0,1905.0,1440.0,5.0,0.0
12530,70.0,8.0,3840.0,1.0,0.0
12531,45.0,0.0,960.0,5.0,0.0
12532,52.0,429.0,3360.0,5.0,0.0
12533,61.0,7.0,2880.0,5.0,0.0
12534,33.0,0.0,1920.0,5.0,0.0
12535,45.0,0.0,240.0,3.0,0.0
12536,60.0,51.0,420.0,4.0,0.0
12537,57.0,0.0,480.0,2.0,0.0
12538,69.0,0.0,480.0,1.0,0.0
12539,45.0,429.0,240.0,3.0,0.0
12540,56.0,0.0,480.0,2.0,0.0
12541,59.0,51.0,420.0,4.0,0.0
12542,62.0,429.0,480.0,1.0,0.0
12543,45.0,0.0,240.0,3.0,0.0
12544,55.0,0.0,480.0,2.0,0.0
12545,64.0,480.0,480.0,1.0,0.0
12546,58.0,51.0,420.0,4.0,0.0
12547,45.0,0.0,240.0,3.0,0.0
12548,54.0,0.0,480.0,2.0,0.0
12549,57.0,429.0,1440.0,1.0,0.0
12550,45.0,429.0,240.0,3.0,0.0
12551,53.0,429.0,480.0,2.0,0.0
12552,56.0,51.0,420.0,4.0,0.0
12553,45.0,0.0,240.0,3.0,0.0
12554,55.0,51.0,420.0,4.0,0.0
12555,52.0,0.0,480.0,2.0,0.0
12556,45.0,0.0,240.0,3.0,0.0
12557,53.0,51.0,420.0,4.0,0.0
12558,62.0,0.0,480.0,1.0,0.0
12559,45.0,429.0,240.0,3.0,0.0
12560,52.0,51.0,420.0,4.0,0.0
12561,61.0,0.0,480.0,1.0,0.0
12562,45.0,429.0,240.0,3.0,0.0
12563,62.0,0.0,480.0,1.0,0.0
12564,53.0,51.0,420.0,4.0,0.0
12565,45.0,429.0,240.0,3.0,0.0
12566,64.0,0.0,480.0,1.0,0.0
12567,49.0,51.0,420.0,4.0,0.0
12568,45.0,429.0,240.0,3.0,0.0
12569,50.0,51.0,420.0,4.0,0.0
12570,65.0,0.0,480.0,1.0,0.0
12571,45.0,429.0,240.0,3.0,0.0
12572,60.0,51.0,420.0,4.0,0.0
12573,69.0,0.0,480.0,1.0,0.0
12574,62.0,0.0,960.0,2.0,0.0
12575,45.0,429.0,240.0,3.0,0.0
12576,67.0,0.0,480.0,1.0,0.0
12577,58.0,51.0,420.0,4.0,0.0
12578,45.0,429.0,240.0,3.0,0.0
12579,61.0,0.0,480.0,2.0,0.0
12580,64.0,429.0,480.0,1.0,0.0
12581,57.0,51.0,420.0,4.0,0.0
12582,58.0,51.0,420.0,4.0,0.0
12583,70.0,429.0,480.0,1.0,0.0
12584,46.0,0.0,240.0,3.0,0.0
12585,71.0,0.0,960.0,1.0,0.0
12586,59.0,51.0,420.0,4.0,0.0
12587,47.0,429.0,240.0,3.0,0.0
12588,59.0,51.0,420.0,4.0,0.0
12589,47.0,429.0,240.0,3.0,0.0
12590,64.0,429.0,480.0,1.0,0.0
12591,55.0,51.0,420.0,4.0,0.0
12592,47.0,0.0,240.0,3.0,0.0
12593,57.0,51.0,420.0,4.0,0.0
12594,66.0,0.0,480.0,1.0,0.0
12595,47.0,429.0,240.0,3.0,0.0
12596,59.0,0.0,1920.0,1.0,0.0
12597,51.0,51.0,420.0,4.0,0.0
12598,47.0,429.0,240.0,3.0,0.0
12599,51.0,51.0,420.0,4.0,0.0
12600,47.0,429.0,240.0,3.0,0.0
12601,52.0,51.0,420.0,4.0,0.0
12602,43.0,429.0,240.0,3.0,0.0
12603,55.0,51.0,420.0,4.0,0.0
12604,64.0,429.0,960.0,1.0,0.0
12605,43.0,429.0,240.0,3.0,0.0
12606,55.0,51.0,420.0,4.0,0.0
12607,58.0,0.0,1920.0,2.0,0.0
12608,43.0,0.0,240.0,3.0,0.0
12609,70.0,429.0,480.0,1.0,0.0
12610,52.0,51.0,420.0,4.0,0.0
12611,43.0,0.0,240.0,3.0,0.0
12612,52.0,51.0,420.0,4.0,0.0
12613,67.0,429.0,480.0,1.0,0.0
12614,43.0,0.0,240.0,3.0,0.0
12615,64.0,0.0,480.0,1.0,0.0
12616,55.0,51.0,420.0,4.0,0.0
12617,43.0,80.0,240.0,3.0,0.0
12618,62.0,80.0,90.0,1.0,0.0
12619,53.0,51.0,420.0,4.0,0.0
12620,57.0,0.0,1440.0,2.0,0.0
12621,64.0,80.0,90.0,1.0,0.0
12622,62.0,80.0,90.0,1.0,0.0
12623,45.0,0.0,240.0,3.0,0.0
12624,64.0,80.0,90.0,1.0,0.0
12625,62.0,29.0,90.0,1.0,0.0
12626,64.0,80.0,90.0,1.0,0.0
12627,53.0,51.0,420.0,4.0,0.0
12628,62.0,80.0,90.0,1.0,0.0
12629,64.0,80.0,90.0,1.0,0.0
12630,62.0,120.0,90.0,1.0,0.0
12631,61.0,69.0,120.0,1.0,0.0
12632,45.0,429.0,240.0,3.0,0.0
12633,62.0,0.0,120.0,1.0,0.0
12634,64.0,429.0,480.0,1.0,0.0
12635,55.0,51.0,420.0,4.0,0.0
12636,45.0,0.0,240.0,3.0,0.0
12637,55.0,51.0,420.0,4.0,0.0
12638,61.0,240.0,480.0,2.0,0.0
12639,69.0,0.0,480.0,1.0,0.0
12640,45.0,0.0,240.0,3.0,0.0
12641,38.0,240.0,240.0,4.0,0.0
12642,62.0,0.0,960.0,2.0,0.0
12643,69.0,240.0,960.0,1.0,0.0
12644,45.0,240.0,240.0,4.0,0.0
12645,50.0,240.0,240.0,4.0,0.0
12646,45.0,0.0,240.0,4.0,0.0
12647,53.0,240.0,240.0,4.0,0.0
12648,50.0,240.0,240.0,4.0,0.0
12649,57.0,240.0,240.0,4.0,0.0
12650,53.0,240.0,240.0,4.0,0.0
12651,62.0,240.0,240.0,4.0,0.0
12652,57.0,240.0,240.0,4.0,0.0
12653,65.0,240.0,240.0,4.0,0.0
12654,62.0,240.0,240.0,4.0,0.0
12655,69.0,720.0,240.0,4.0,0.0
12656,74.0,0.0,480.0,1.0,0.0
12657,62.0,669.0,15.0,2.0,0.0
12658,38.0,40.0,1890.0,3.0,0.0
12659,74.0,0.0,960.0,1.0,0.0
12660,54.0,240.0,420.0,4.0,0.0
12661,57.0,51.0,420.0,4.0,0.0
12662,50.0,0.0,240.0,3.0,0.0
12663,58.0,51.0,420.0,4.0,0.0
12664,67.0,429.0,480.0,1.0,0.0
12665,50.0,0.0,240.0,3.0,0.0
12666,60.0,11.0,420.0,4.0,0.0
12667,69.0,0.0,480.0,1.0,0.0
12668,50.0,429.0,240.0,3.0,0.0
12669,61.0,51.0,420.0,4.0,0.0
12670,62.0,0.0,1440.0,1.0,0.0
12671,50.0,429.0,240.0,3.0,0.0
12672,60.0,51.0,420.0,4.0,0.0
12673,50.0,429.0,240.0,3.0,0.0
12674,59.0,51.0,420.0,4.0,0.0
12675,50.0,429.0,240.0,3.0,0.0
12676,58.0,51.0,420.0,4.0,0.0
12677,67.0,429.0,480.0,1.0,0.0
12678,50.0,0.0,240.0,3.0,0.0
12679,66.0,0.0,480.0,1.0,0.0
12680,57.0,51.0,420.0,4.0,0.0
12681,50.0,429.0,240.0,3.0,0.0
12682,67.0,429.0,480.0,1.0,0.0
12683,58.0,51.0,420.0,4.0,0.0
12684,50.0,0.0,240.0,3.0,0.0
12685,69.0,429.0,480.0,1.0,0.0
12686,54.0,51.0,420.0,4.0,0.0
12687,50.0,0.0,240.0,3.0,0.0
12688,70.0,429.0,480.0,1.0,0.0
12689,55.0,51.0,420.0,4.0,0.0
12690,50.0,0.0,240.0,3.0,0.0
12691,62.0,51.0,420.0,4.0,0.0
12692,69.0,429.0,960.0,2.0,0.0
12693,72.0,0.0,960.0,1.0,0.0
12694,50.0,429.0,240.0,3.0,0.0
12695,63.0,51.0,420.0,4.0,0.0
12696,51.0,0.0,240.0,3.0,0.0
12697,68.0,0.0,480.0,2.0,0.0
12698,71.0,429.0,480.0,1.0,0.0
12699,64.0,51.0,420.0,4.0,0.0
12700,52.0,0.0,240.0,3.0,0.0
12701,64.0,51.0,420.0,4.0,0.0
12702,77.0,0.0,480.0,1.0,0.0
12703,52.0,429.0,240.0,3.0,0.0
12704,64.0,51.0,420.0,4.0,0.0
12705,76.0,0.0,960.0,1.0,0.0
12706,52.0,429.0,240.0,3.0,0.0
12707,64.0,51.0,420.0,4.0,0.0
12708,52.0,429.0,240.0,3.0,0.0
12709,60.0,51.0,420.0,4.0,0.0
12710,69.0,0.0,480.0,1.0,0.0
12711,52.0,429.0,240.0,3.0,0.0
12712,62.0,51.0,420.0,4.0,0.0
12713,71.0,429.0,480.0,1.0,0.0
12714,52.0,0.0,240.0,3.0,0.0
12715,63.0,51.0,420.0,4.0,0.0
12716,64.0,0.0,1440.0,1.0,0.0
12717,52.0,429.0,240.0,3.0,0.0
12718,62.0,51.0,420.0,4.0,0.0
12719,52.0,429.0,240.0,3.0,0.0
12720,61.0,51.0,420.0,4.0,0.0
12721,52.0,429.0,240.0,3.0,0.0
12722,69.0,0.0,480.0,1.0,0.0
12723,60.0,51.0,420.0,4.0,0.0
12724,52.0,429.0,240.0,3.0,0.0
12725,68.0,429.0,480.0,1.0,0.0
12726,59.0,51.0,420.0,4.0,0.0
12727,52.0,0.0,240.0,3.0,0.0
12728,60.0,51.0,420.0,4.0,0.0
12729,69.0,429.0,480.0,1.0,0.0
12730,52.0,0.0,240.0,3.0,0.0
12731,56.0,51.0,420.0,4.0,0.0
12732,71.0,0.0,480.0,1.0,0.0
12733,52.0,429.0,240.0,3.0,0.0
12734,72.0,0.0,480.0,1.0,0.0
12735,57.0,51.0,420.0,4.0,0.0
12736,52.0,456.0,240.0,3.0,0.0
12737,71.0,0.0,1440.0,2.0,0.0
12738,74.0,456.0,1440.0,1.0,0.0
12739,64.0,24.0,450.0,4.0,0.0
12740,52.0,456.0,240.0,3.0,0.0
12741,65.0,24.0,450.0,4.0,0.0
12742,53.0,456.0,240.0,3.0,0.0
12743,66.0,24.0,450.0,4.0,0.0
12744,54.0,0.0,240.0,3.0,0.0
12745,70.0,0.0,480.0,2.0,0.0
12746,73.0,0.0,480.0,1.0,0.0
12747,67.0,24.0,450.0,4.0,0.0
12748,55.0,456.0,240.0,3.0,0.0
12749,76.0,456.0,1440.0,1.0,0.0
12750,68.0,24.0,450.0,4.0,0.0
12751,73.0,0.0,1440.0,2.0,0.0
12752,56.0,456.0,240.0,3.0,0.0
12753,69.0,24.0,450.0,4.0,0.0
12754,57.0,456.0,240.0,3.0,0.0
12755,70.0,24.0,450.0,4.0,0.0
12756,58.0,0.0,240.0,3.0,0.0
12757,76.0,0.0,480.0,2.0,0.0
12758,69.0,24.0,450.0,4.0,0.0
12759,79.0,240.0,480.0,1.0,0.0
12760,57.0,0.0,480.0,3.0,0.0
12761,82.0,0.0,240.0,1.0,0.0
12762,61.0,0.0,240.0,5.0,0.0
12763,64.0,0.0,240.0,5.0,0.0
12764,67.0,240.0,240.0,4.0,0.0
12765,79.0,240.0,240.0,1.0,0.0
12766,76.0,240.0,240.0,1.0,0.0
12767,73.0,240.0,240.0,1.0,0.0
12768,70.0,20.0,240.0,1.0,0.0
12769,45.0,0.0,240.0,5.0,0.0
12770,49.0,10.0,240.0,5.0,0.0
12771,52.0,10.0,240.0,5.0,0.0
12772,55.0,200.0,240.0,5.0,0.0
12773,67.0,240.0,240.0,1.0,0.0
12774,64.0,240.0,240.0,1.0,0.0
12775,61.0,240.0,240.0,1.0,0.0
12776,58.0,240.0,240.0,1.0,0.0
12777,55.0,240.0,240.0,1.0,0.0
12778,52.0,240.0,240.0,1.0,0.0
12779,49.0,240.0,240.0,1.0,0.0
12780,45.0,0.0,240.0,1.0,0.0
12781,33.0,960.0,240.0,5.0,0.0
12782,57.0,0.0,960.0,1.0,0.0
12783,40.0,240.0,240.0,5.0,0.0
12784,55.0,240.0,240.0,3.0,0.0
12785,69.0,72.0,360.0,1.0,0.0
12786,48.0,120.0,240.0,3.0,0.0
12787,49.0,288.0,180.0,3.0,0.0
12788,33.0,156.0,240.0,5.0,0.0
12789,55.0,156.0,240.0,3.0,0.0
12790,64.0,84.0,150.0,1.0,0.0
12791,63.0,84.0,150.0,1.0,0.0
12792,47.0,156.0,240.0,3.0,0.0
12793,49.0,288.0,180.0,3.0,0.0
12794,64.0,36.0,150.0,1.0,0.0
12795,38.0,240.0,240.0,5.0,0.0
12796,65.0,0.0,480.0,1.0,0.0
12797,54.0,240.0,240.0,3.0,0.0
12798,66.0,72.0,360.0,1.0,0.0
12799,44.0,120.0,240.0,3.0,0.0
12800,45.0,288.0,180.0,3.0,0.0
12801,33.0,240.0,240.0,5.0,0.0
12802,54.0,240.0,240.0,3.0,0.0
12803,57.0,240.0,480.0,1.0,0.0
12804,44.0,192.0,240.0,3.0,0.0
12805,45.0,48.0,180.0,3.0,0.0
12806,40.0,120.0,240.0,5.0,0.0
12807,71.0,120.0,360.0,1.0,0.0
12808,55.0,240.0,240.0,3.0,0.0
12809,48.0,192.0,240.0,3.0,0.0
12810,70.0,156.0,720.0,1.0,0.0
12811,49.0,288.0,180.0,3.0,0.0
12812,33.0,0.0,240.0,5.0,0.0
12813,55.0,156.0,240.0,3.0,0.0
12814,69.0,84.0,150.0,1.0,0.0
12815,63.0,84.0,150.0,1.0,0.0
12816,47.0,156.0,240.0,3.0,0.0
12817,49.0,288.0,180.0,3.0,0.0
12818,64.0,36.0,150.0,1.0,0.0
12819,38.0,240.0,240.0,5.0,0.0
12820,65.0,240.0,480.0,1.0,0.0
12821,54.0,0.0,240.0,3.0,0.0
12822,66.0,72.0,360.0,1.0,0.0
12823,44.0,120.0,240.0,3.0,0.0
12824,45.0,288.0,180.0,3.0,0.0
12825,33.0,240.0,240.0,5.0,0.0
12826,54.0,240.0,240.0,3.0,0.0
12827,62.0,240.0,480.0,1.0,0.0
12828,44.0,192.0,240.0,3.0,0.0
12829,45.0,48.0,180.0,3.0,0.0
12830,77.0,240.0,480.0,1.0,0.0
12831,42.0,240.0,240.0,5.0,0.0
12832,57.0,0.0,240.0,3.0,0.0
12833,75.0,240.0,480.0,1.0,0.0
12834,47.0,192.0,240.0,3.0,0.0
12835,48.0,48.0,180.0,3.0,0.0
12836,38.0,156.0,240.0,5.0,0.0
12837,74.0,84.0,150.0,1.0,0.0
12838,54.0,156.0,240.0,3.0,0.0
12839,68.0,84.0,150.0,1.0,0.0
12840,47.0,156.0,240.0,3.0,0.0
12841,69.0,36.0,150.0,1.0,0.0
12842,48.0,288.0,180.0,3.0,0.0
12843,72.0,120.0,240.0,1.0,0.0
12844,43.0,72.0,360.0,5.0,0.0
12845,62.0,0.0,240.0,4.0,0.0
12846,67.0,0.0,240.0,4.0,0.0
12847,70.0,288.0,180.0,1.0,0.0
12848,62.0,0.0,240.0,4.0,0.0
12849,58.0,0.0,240.0,4.0,0.0
12850,69.0,120.0,240.0,1.0,0.0
12851,45.0,72.0,360.0,5.0,0.0
12852,67.0,288.0,180.0,1.0,0.0
12853,46.0,72.0,360.0,5.0,0.0
12854,55.0,0.0,240.0,4.0,0.0
12855,65.0,0.0,240.0,1.0,0.0
12856,58.0,120.0,240.0,4.0,0.0
12857,64.0,288.0,180.0,1.0,0.0
12858,47.0,72.0,360.0,5.0,0.0
12859,64.0,0.0,240.0,1.0,0.0
12860,53.0,120.0,240.0,4.0,0.0
12861,56.0,0.0,240.0,4.0,0.0
12862,62.0,288.0,180.0,1.0,0.0
12863,53.0,120.0,240.0,4.0,0.0
12864,62.0,0.0,240.0,1.0,0.0
12865,48.0,0.0,360.0,5.0,0.0
12866,36.0,72.0,360.0,5.0,0.0
12867,57.0,0.0,240.0,4.0,0.0
12868,60.0,288.0,180.0,1.0,0.0
12869,52.0,0.0,240.0,4.0,0.0
12870,55.0,120.0,240.0,4.0,0.0
12871,37.0,72.0,360.0,5.0,0.0
12872,60.0,0.0,240.0,1.0,0.0
12873,58.0,288.0,180.0,1.0,0.0
12874,58.0,0.0,240.0,1.0,0.0
12875,38.0,72.0,360.0,5.0,0.0
12876,53.0,0.0,240.0,4.0,0.0
12877,50.0,120.0,240.0,4.0,0.0
12878,57.0,288.0,180.0,1.0,0.0
12879,40.0,120.0,360.0,5.0,0.0
12880,57.0,0.0,240.0,1.0,0.0
12881,46.0,120.0,240.0,4.0,0.0
12882,49.0,0.0,240.0,4.0,0.0
12883,55.0,240.0,240.0,1.0,0.0
12884,50.0,0.0,240.0,4.0,0.0
12885,45.0,0.0,240.0,4.0,0.0
12886,41.0,120.0,360.0,5.0,0.0
12887,55.0,120.0,240.0,1.0,0.0
12888,53.0,720.0,240.0,1.0,0.0
12889,52.0,120.0,240.0,1.0,0.0
12890,47.0,0.0,240.0,4.0,0.0
12891,44.0,72.0,360.0,5.0,0.0
12892,50.0,768.0,180.0,1.0,0.0
12893,49.0,120.0,240.0,1.0,0.0
12894,45.0,840.0,360.0,5.0,0.0
12895,57.0,120.0,960.0,1.0,0.0
12896,33.0,480.0,360.0,5.0,0.0
12897,40.0,0.0,360.0,5.0,0.0
12898,57.0,0.0,960.0,1.0,0.0
12899,37.0,7.0,360.0,5.0,0.0
12900,25.0,473.0,360.0,5.0,0.0
12901,69.0,0.0,960.0,1.0,0.0
12902,37.0,0.0,450.0,5.0,0.0
12903,45.0,113.0,420.0,5.0,0.0
12904,52.0,7.0,360.0,5.0,0.0
12905,68.0,156.0,480.0,1.0,0.0
12906,47.0,204.0,150.0,5.0,0.0
12907,67.0,0.0,360.0,1.0,0.0
12908,81.0,36.0,360.0,1.0,0.0
12909,49.0,444.0,150.0,5.0,0.0
12910,45.0,85.0,360.0,5.0,0.0
12911,64.0,55.0,210.0,1.0,0.0
12912,76.0,0.0,210.0,1.0,0.0
12913,79.0,136.0,60.0,1.0,0.0
12914,65.0,0.0,150.0,1.0,0.0
12915,77.0,0.0,150.0,1.0,0.0
12916,43.0,240.0,150.0,5.0,0.0
12917,64.0,0.0,150.0,1.0,0.0
12918,76.0,0.0,150.0,1.0,0.0
12919,45.0,444.0,150.0,5.0,0.0
12920,74.0,156.0,480.0,1.0,0.0
12921,62.0,0.0,480.0,1.0,0.0
12922,41.0,120.0,360.0,5.0,0.0
12923,69.0,36.0,360.0,1.0,0.0
12924,57.0,0.0,360.0,1.0,0.0
12925,40.0,204.0,150.0,5.0,0.0
12926,41.0,444.0,150.0,5.0,0.0
12927,38.0,480.0,360.0,5.0,0.0
12928,38.0,475.0,360.0,5.0,0.0
12929,26.0,0.0,360.0,5.0,0.0
12930,58.0,0.0,960.0,1.0,0.0
12931,70.0,156.0,960.0,1.0,0.0
12932,38.0,5.0,390.0,5.0,0.0
12933,46.0,0.0,360.0,5.0,0.0
12934,69.0,0.0,480.0,1.0,0.0
12935,53.0,120.0,360.0,5.0,0.0
12936,68.0,36.0,360.0,1.0,0.0
12937,82.0,0.0,360.0,1.0,0.0
12938,48.0,204.0,150.0,5.0,0.0
12939,50.0,444.0,150.0,5.0,0.0
12940,46.0,75.0,360.0,5.0,0.0
12941,77.0,60.0,210.0,1.0,0.0
12942,65.0,5.0,180.0,1.0,0.0
12943,80.0,136.0,60.0,1.0,0.0
12944,44.0,240.0,150.0,5.0,0.0
12945,79.0,0.0,150.0,1.0,0.0
12946,67.0,0.0,150.0,1.0,0.0
12947,47.0,0.0,150.0,5.0,0.0
12948,65.0,444.0,150.0,1.0,0.0
12949,77.0,0.0,150.0,1.0,0.0
12950,64.0,156.0,480.0,1.0,0.0
12951,76.0,0.0,480.0,1.0,0.0
12952,43.0,120.0,360.0,5.0,0.0
12953,67.0,0.0,360.0,1.0,0.0
12954,46.0,204.0,150.0,5.0,0.0
12955,55.0,36.0,360.0,1.0,0.0
12956,49.0,444.0,150.0,5.0,0.0
12957,34.0,80.0,360.0,5.0,0.0
12958,63.0,60.0,210.0,1.0,0.0
12959,75.0,0.0,210.0,1.0,0.0
12960,78.0,136.0,60.0,1.0,0.0
12961,65.0,0.0,150.0,1.0,0.0
12962,45.0,0.0,150.0,5.0,0.0
12963,77.0,240.0,150.0,1.0,0.0
12964,75.0,0.0,150.0,1.0,0.0
12965,48.0,444.0,150.0,5.0,0.0
12966,63.0,0.0,150.0,1.0,0.0
12967,34.0,120.0,360.0,5.0,0.0
12968,62.0,156.0,480.0,1.0,0.0
12969,74.0,0.0,480.0,1.0,0.0
12970,56.0,36.0,360.0,1.0,0.0
12971,41.0,204.0,150.0,5.0,0.0
12972,68.0,0.0,360.0,1.0,0.0
12973,46.0,444.0,150.0,5.0,0.0
12974,34.0,36.0,360.0,5.0,0.0
12975,62.0,0.0,150.0,1.0,0.0
12976,74.0,240.0,150.0,1.0,0.0
12977,63.0,0.0,150.0,1.0,0.0
12978,75.0,0.0,150.0,1.0,0.0
12979,43.0,240.0,150.0,5.0,0.0
12980,46.0,444.0,150.0,5.0,0.0
12981,67.0,0.0,150.0,1.0,0.0
12982,55.0,0.0,150.0,1.0,0.0
12983,56.0,156.0,480.0,1.0,0.0
12984,68.0,0.0,480.0,1.0,0.0
12985,34.0,120.0,360.0,5.0,0.0
12986,41.0,204.0,150.0,5.0,0.0
12987,62.0,0.0,360.0,1.0,0.0
12988,74.0,36.0,360.0,1.0,0.0
12989,46.0,444.0,150.0,5.0,0.0
12990,34.0,36.0,360.0,5.0,0.0
12991,74.0,0.0,150.0,1.0,0.0
12992,62.0,240.0,150.0,1.0,0.0
12993,75.0,240.0,150.0,1.0,0.0
12994,63.0,0.0,150.0,1.0,0.0
12995,43.0,0.0,150.0,5.0,0.0
12996,46.0,0.0,150.0,5.0,0.0
12997,67.0,444.0,150.0,1.0,0.0
12998,55.0,0.0,150.0,1.0,0.0
12999,68.0,156.0,480.0,1.0,0.0
13000,56.0,0.0,480.0,1.0,0.0
13001,34.0,120.0,360.0,5.0,0.0
13002,41.0,204.0,150.0,5.0,0.0
13003,62.0,0.0,360.0,1.0,0.0
13004,74.0,36.0,360.0,1.0,0.0
13005,46.0,444.0,150.0,5.0,0.0
13006,34.0,36.0,360.0,5.0,0.0
13007,74.0,0.0,150.0,1.0,0.0
13008,62.0,240.0,150.0,1.0,0.0
13009,43.0,0.0,150.0,5.0,0.0
13010,75.0,0.0,150.0,1.0,0.0
13011,63.0,240.0,150.0,1.0,0.0
13012,46.0,244.0,150.0,5.0,0.0
13013,55.0,0.0,150.0,1.0,0.0
13014,67.0,0.0,150.0,1.0,0.0
13015,56.0,120.0,360.0,1.0,0.0
13016,34.0,200.0,150.0,5.0,0.0
13017,68.0,0.0,360.0,1.0,0.0
13018,41.0,128.0,150.0,5.0,0.0
13019,46.0,352.0,120.0,5.0,0.0
13020,29.0,128.0,150.0,5.0,0.0
13021,62.0,0.0,360.0,1.0,0.0
13022,74.0,0.0,360.0,1.0,0.0
13023,34.0,232.0,120.0,5.0,0.0
13024,69.0,120.0,360.0,2.0,0.0
13025,41.0,128.0,150.0,5.0,0.0
13026,46.0,352.0,120.0,5.0,0.0
13027,41.0,128.0,150.0,5.0,0.0
13028,29.0,0.0,150.0,5.0,0.0
13029,34.0,352.0,120.0,5.0,0.0
13030,46.0,0.0,120.0,5.0,0.0
13031,38.0,0.0,150.0,5.0,0.0
13032,50.0,120.0,150.0,5.0,0.0
13033,41.0,352.0,120.0,5.0,0.0
13034,53.0,8.0,120.0,5.0,0.0
13035,46.0,128.0,150.0,5.0,0.0
13036,50.0,33.0,120.0,5.0,0.0
13037,62.0,320.0,150.0,5.0,0.0
13038,53.0,0.0,150.0,5.0,0.0
13039,65.0,119.0,150.0,5.0,0.0
13040,70.0,0.0,120.0,5.0,0.0
13041,58.0,360.0,120.0,5.0,0.0
13042,34.0,128.0,150.0,5.0,0.0
13043,58.0,0.0,360.0,1.0,0.0
13044,70.0,0.0,360.0,1.0,0.0
13045,66.0,120.0,360.0,2.0,0.0
13046,39.0,232.0,120.0,5.0,0.0
13047,63.0,0.0,360.0,2.0,0.0
13048,42.0,128.0,150.0,5.0,0.0
13049,46.0,352.0,120.0,5.0,0.0
13050,34.0,128.0,150.0,5.0,0.0
13051,70.0,0.0,360.0,2.0,0.0
13052,75.0,0.0,360.0,1.0,0.0
13053,39.0,232.0,120.0,5.0,0.0
13054,66.0,120.0,360.0,2.0,0.0
13055,63.0,0.0,360.0,1.0,0.0
13056,42.0,128.0,150.0,5.0,0.0
13057,46.0,352.0,120.0,5.0,0.0
13058,34.0,128.0,150.0,5.0,0.0
13059,39.0,352.0,120.0,5.0,0.0
13060,54.0,0.0,150.0,5.0,0.0
13061,42.0,128.0,150.0,5.0,0.0
13062,46.0,0.0,120.0,5.0,0.0
13063,58.0,352.0,120.0,5.0,0.0
13064,51.0,0.0,150.0,5.0,0.0
13065,63.0,128.0,150.0,5.0,0.0
13066,66.0,352.0,120.0,5.0,0.0
13067,54.0,0.0,120.0,5.0,0.0
13068,58.0,0.0,150.0,5.0,0.0
13069,70.0,128.0,150.0,5.0,0.0
13070,75.0,0.0,120.0,5.0,0.0
13071,63.0,352.0,120.0,5.0,0.0
13072,31.0,128.0,150.0,5.0,0.0
13073,76.0,0.0,360.0,1.0,0.0
13074,64.0,0.0,360.0,1.0,0.0
13075,73.0,0.0,360.0,2.0,0.0
13076,70.0,120.0,360.0,2.0,0.0
13077,37.0,232.0,120.0,5.0,0.0
13078,43.0,128.0,150.0,5.0,0.0
13079,49.0,352.0,120.0,5.0,0.0
13080,32.0,128.0,150.0,5.0,0.0
13081,74.0,0.0,360.0,2.0,0.0
13082,71.0,120.0,360.0,2.0,0.0
13083,38.0,232.0,120.0,5.0,0.0
13084,77.0,0.0,360.0,1.0,0.0
13085,65.0,0.0,360.0,1.0,0.0
13086,44.0,128.0,150.0,5.0,0.0
13087,50.0,352.0,120.0,5.0,0.0
13088,33.0,128.0,150.0,5.0,0.0
13089,78.0,120.0,360.0,1.0,0.0
13090,74.0,0.0,360.0,2.0,0.0
13091,45.0,232.0,120.0,5.0,0.0
13092,66.0,0.0,360.0,1.0,0.0
13093,46.0,0.0,720.0,5.0,0.0
13094,34.0,720.0,15.0,5.0,0.0
13095,74.0,0.0,720.0,2.0,0.0
13096,67.0,0.0,720.0,2.0,0.0
13097,67.0,0.0,720.0,1.0,0.0
13098,79.0,0.0,720.0,1.0,0.0
13099,81.0,0.0,360.0,1.0,0.0
13100,69.0,0.0,360.0,1.0,0.0
13101,74.0,0.0,360.0,2.0,0.0
13102,38.0,0.0,360.0,5.0,0.0
13103,42.0,480.0,360.0,5.0,0.0
13104,30.0,0.0,360.0,5.0,0.0
13105,70.0,0.0,360.0,1.0,0.0
13106,38.0,0.0,360.0,5.0,0.0
13107,43.0,0.0,360.0,5.0,0.0
13108,82.0,0.0,360.0,1.0,0.0
13109,31.0,0.0,360.0,5.0,0.0
13110,74.0,1905.0,360.0,2.0,0.0
13111,33.0,10.0,390.0,5.0,0.0
13112,37.0,5.0,360.0,5.0,0.0
13113,40.0,0.0,360.0,5.0,0.0
13114,64.0,0.0,360.0,2.0,0.0
13115,73.0,1752.0,360.0,1.0,0.0
13116,61.0,0.0,360.0,1.0,0.0
13117,69.0,0.0,360.0,2.0,0.0
13118,45.0,0.0,360.0,5.0,0.0
13119,74.0,480.0,1440.0,1.0,0.0
13120,26.0,0.0,180.0,5.0,0.0
13121,33.0,0.0,180.0,5.0,0.0
13122,38.0,240.0,180.0,5.0,0.0
13123,62.0,0.0,1440.0,1.0,0.0
13124,66.0,0.0,1440.0,1.0,0.0
13125,69.0,0.0,1440.0,1.0,0.0
13126,60.0,240.0,180.0,5.0,0.0
13127,48.0,0.0,180.0,5.0,0.0
13128,48.0,0.0,180.0,5.0,0.0
13129,60.0,240.0,180.0,5.0,0.0
13130,60.0,528.0,180.0,5.0,0.0
13131,48.0,0.0,180.0,5.0,0.0
13132,60.0,0.0,960.0,5.0,0.0
13133,48.0,0.0,960.0,5.0,0.0
13134,72.0,0.0,480.0,1.0,0.0
13135,74.0,432.0,15.0,1.0,0.0
13136,70.0,480.0,960.0,1.0,0.0
13137,62.0,0.0,15.0,1.0,0.0
13138,58.0,0.0,180.0,5.0,0.0
13139,46.0,240.0,180.0,5.0,0.0
13140,46.0,240.0,180.0,5.0,0.0
13141,58.0,0.0,180.0,5.0,0.0
13142,46.0,0.0,180.0,5.0,0.0
13143,58.0,48.0,180.0,5.0,0.0
13144,55.0,0.0,480.0,5.0,0.0
13145,43.0,0.0,480.0,5.0,0.0
13146,67.0,435.0,480.0,1.0,0.0
13147,57.0,0.0,420.0,5.0,0.0
13148,69.0,0.0,450.0,1.0,0.0
13149,74.0,0.0,15.0,1.0,0.0
13150,45.0,0.0,420.0,5.0,0.0
13151,62.0,0.0,15.0,1.0,0.0
13152,38.0,0.0,240.0,5.0,0.0
13153,42.0,0.0,210.0,5.0,0.0
13154,45.0,2.0,210.0,5.0,0.0
13155,69.0,0.0,1440.0,1.0,0.0
13156,62.0,480.0,1440.0,1.0,0.0
13157,66.0,0.0,1440.0,1.0,0.0
13158,74.0,0.0,1440.0,1.0,0.0
13159,50.0,240.0,180.0,5.0,0.0
13160,49.0,0.0,180.0,5.0,0.0
13161,61.0,240.0,180.0,5.0,0.0
13162,61.0,240.0,180.0,5.0,0.0
13163,49.0,0.0,180.0,5.0,0.0
13164,49.0,528.0,180.0,5.0,0.0
13165,61.0,0.0,180.0,5.0,0.0
13166,49.0,432.0,960.0,5.0,0.0
13167,61.0,0.0,960.0,5.0,0.0
13168,73.0,0.0,480.0,1.0,0.0
13169,62.0,0.0,480.0,1.0,0.0
13170,74.0,0.0,15.0,1.0,0.0
13171,72.0,480.0,960.0,1.0,0.0
13172,62.0,0.0,1440.0,1.0,0.0
13173,48.0,0.0,180.0,5.0,0.0
13174,60.0,240.0,180.0,5.0,0.0
13175,48.0,0.0,180.0,5.0,0.0
13176,60.0,240.0,180.0,5.0,0.0
13177,48.0,0.0,180.0,5.0,0.0
13178,60.0,48.0,180.0,5.0,0.0
13179,45.0,0.0,480.0,5.0,0.0
13180,69.0,480.0,480.0,1.0,0.0
13181,57.0,0.0,480.0,5.0,0.0
13182,58.0,0.0,480.0,5.0,0.0
13183,46.0,315.0,480.0,5.0,0.0
13184,86.0,0.0,810.0,1.0,0.0
13185,82.0,320.0,1050.0,1.0,0.0
13186,74.0,0.0,810.0,1.0,0.0
13187,38.0,7.0,300.0,5.0,0.0
13188,50.0,254.0,330.0,5.0,0.0
13189,70.0,0.0,270.0,1.0,0.0
13190,50.0,8.0,630.0,5.0,0.0
13191,62.0,246.0,660.0,5.0,0.0
13192,84.0,320.0,270.0,1.0,0.0
13193,72.0,0.0,270.0,1.0,0.0
13194,74.0,66.0,270.0,1.0,0.0
13195,62.0,0.0,270.0,1.0,0.0
13196,58.0,320.0,270.0,5.0,0.0
13197,46.0,0.0,270.0,5.0,0.0
13198,74.0,7.0,630.0,1.0,0.0
13199,60.0,0.0,270.0,5.0,0.0
13200,48.0,379.0,270.0,5.0,0.0
13201,86.0,254.0,630.0,1.0,0.0
13202,50.0,0.0,330.0,5.0,0.0
13203,38.0,0.0,300.0,5.0,0.0
13204,84.0,320.0,270.0,1.0,0.0
13205,72.0,0.0,270.0,1.0,0.0
13206,51.0,254.0,630.0,5.0,0.0
13207,63.0,0.0,630.0,5.0,0.0
13208,85.0,320.0,270.0,1.0,0.0
13209,73.0,0.0,270.0,1.0,0.0
13210,61.0,66.0,270.0,1.0,0.0
13211,73.0,0.0,270.0,1.0,0.0
13212,48.0,320.0,270.0,5.0,0.0
13213,60.0,0.0,270.0,5.0,0.0
13214,49.0,0.0,270.0,5.0,0.0
13215,61.0,221.0,270.0,5.0,0.0
13216,75.0,99.0,480.0,1.0,0.0
13217,37.0,64.0,270.0,5.0,0.0
13218,49.0,0.0,270.0,5.0,0.0
13219,67.0,160.0,150.0,1.0,0.0
13220,69.0,160.0,150.0,1.0,0.0
13221,63.0,1.0,150.0,1.0,0.0
13222,61.0,159.0,150.0,5.0,0.0
13223,55.0,160.0,150.0,5.0,0.0
13224,57.0,160.0,150.0,5.0,0.0
13225,75.0,0.0,150.0,1.0,0.0
13226,49.0,160.0,150.0,5.0,0.0
13227,67.0,160.0,150.0,1.0,0.0
13228,69.0,160.0,150.0,1.0,0.0
13229,49.0,0.0,150.0,5.0,0.0
13230,63.0,160.0,150.0,1.0,0.0
13231,43.0,160.0,150.0,5.0,0.0
13232,46.0,160.0,150.0,5.0,0.0
13233,37.0,0.0,150.0,5.0,0.0
13234,75.0,160.0,150.0,1.0,0.0
13235,67.0,160.0,150.0,1.0,0.0
13236,70.0,160.0,150.0,1.0,0.0
13237,61.0,161.0,150.0,5.0,0.0
13238,63.0,0.0,150.0,1.0,0.0
13239,55.0,159.0,150.0,5.0,0.0
13240,58.0,160.0,150.0,5.0,0.0
13241,79.0,0.0,150.0,1.0,0.0
13242,49.0,160.0,150.0,5.0,0.0
13243,70.0,160.0,150.0,1.0,0.0
13244,75.0,160.0,150.0,1.0,0.0
13245,46.0,0.0,150.0,5.0,0.0
13246,67.0,160.0,150.0,1.0,0.0
13247,39.0,160.0,150.0,5.0,0.0
13248,43.0,160.0,150.0,5.0,0.0
13249,82.0,160.0,150.0,1.0,0.0
13250,34.0,0.0,150.0,5.0,0.0
13251,73.0,160.0,150.0,1.0,0.0
13252,79.0,160.0,150.0,1.0,0.0
13253,70.0,1.0,150.0,1.0,0.0
13254,55.0,159.0,150.0,5.0,0.0
13255,46.0,160.0,150.0,5.0,0.0
13256,51.0,160.0,150.0,5.0,0.0
13257,43.0,0.0,150.0,5.0,0.0
13258,85.0,160.0,150.0,1.0,0.0
13259,79.0,160.0,150.0,1.0,0.0
13260,82.0,160.0,150.0,1.0,0.0
13261,73.0,0.0,150.0,1.0,0.0
13262,39.0,160.0,150.0,5.0,0.0
13263,31.0,110.0,150.0,5.0,0.0
13264,34.0,210.0,120.0,5.0,0.0
13265,27.0,5.0,1920.0,5.0,0.0
13266,39.0,10.0,1890.0,5.0,0.0
13267,51.0,35.0,1890.0,5.0,0.0
13268,63.0,0.0,1860.0,5.0,0.0
13269,76.0,160.0,150.0,2.0,0.0
13270,88.0,0.0,150.0,1.0,0.0
13271,79.0,160.0,150.0,1.0,0.0
13272,85.0,160.0,150.0,1.0,0.0
13273,75.0,160.0,150.0,2.0,0.0
13274,68.0,0.0,150.0,2.0,0.0
13275,72.0,0.0,150.0,2.0,0.0
13276,87.0,0.0,150.0,1.0,0.0
13277,80.0,160.0,150.0,1.0,0.0
13278,84.0,160.0,150.0,1.0,0.0
13279,71.0,160.0,150.0,2.0,0.0
13280,86.0,0.0,150.0,1.0,0.0
13281,65.0,0.0,150.0,2.0,0.0
13282,74.0,0.0,150.0,2.0,0.0
13283,80.0,160.0,150.0,1.0,0.0
13284,83.0,160.0,150.0,1.0,0.0
13285,85.0,0.0,150.0,1.0,0.0
13286,67.0,160.0,150.0,2.0,0.0
13287,73.0,0.0,150.0,2.0,0.0
13288,70.0,0.0,150.0,2.0,0.0
13289,76.0,110.0,150.0,1.0,0.0
13290,82.0,160.0,150.0,1.0,0.0
13291,44.0,40.0,960.0,5.0,0.0
13292,56.0,15.0,930.0,5.0,0.0
13293,84.0,160.0,150.0,1.0,0.0
13294,68.0,0.0,150.0,2.0,0.0
13295,63.0,0.0,150.0,2.0,0.0
13296,72.0,0.0,150.0,2.0,0.0
13297,75.0,160.0,150.0,1.0,0.0
13298,80.0,160.0,150.0,1.0,0.0
13299,63.0,0.0,150.0,2.0,0.0
13300,71.0,160.0,150.0,2.0,0.0
13301,83.0,0.0,150.0,1.0,0.0
13302,68.0,0.0,150.0,2.0,0.0
13303,75.0,105.0,150.0,1.0,0.0
13304,80.0,160.0,150.0,1.0,0.0
13305,46.0,40.0,960.0,5.0,0.0
13306,58.0,5.0,930.0,5.0,0.0
13307,65.0,0.0,150.0,2.0,0.0
13308,82.0,160.0,150.0,1.0,0.0
13309,62.0,0.0,150.0,2.0,0.0
13310,70.0,0.0,150.0,2.0,0.0
13311,74.0,160.0,150.0,1.0,0.0
13312,77.0,160.0,150.0,1.0,0.0
13313,81.0,0.0,150.0,1.0,0.0
13314,60.0,160.0,150.0,2.0,0.0
13315,69.0,0.0,150.0,2.0,0.0
13316,66.0,0.0,150.0,2.0,0.0
13317,75.0,115.0,150.0,1.0,0.0
13318,78.0,160.0,150.0,1.0,0.0
13319,39.0,40.0,1920.0,5.0,0.0
13320,51.0,10.0,1890.0,5.0,0.0
13321,65.0,0.0,150.0,2.0,0.0
13322,59.0,0.0,150.0,2.0,0.0
13323,68.0,0.0,150.0,2.0,0.0
13324,80.0,160.0,150.0,1.0,0.0
13325,74.0,160.0,150.0,1.0,0.0
13326,77.0,160.0,150.0,1.0,0.0
13327,67.0,0.0,150.0,2.0,0.0
13328,58.0,0.0,150.0,2.0,0.0
13329,79.0,160.0,150.0,1.0,0.0
13330,64.0,0.0,150.0,2.0,0.0
13331,73.0,160.0,150.0,1.0,0.0
13332,76.0,160.0,150.0,1.0,0.0
13333,78.0,160.0,150.0,1.0,0.0
13334,66.0,0.0,150.0,2.0,0.0
13335,57.0,0.0,150.0,2.0,0.0
13336,63.0,0.0,150.0,2.0,0.0
13337,72.0,160.0,150.0,1.0,0.0
13338,75.0,160.0,150.0,1.0,0.0
13339,56.0,0.0,150.0,2.0,0.0
13340,62.0,0.0,150.0,2.0,0.0
13341,77.0,0.0,150.0,1.0,0.0
13342,65.0,160.0,150.0,2.0,0.0
13343,71.0,110.0,150.0,1.0,0.0
13344,74.0,160.0,150.0,1.0,0.0
13345,32.0,15.0,960.0,5.0,0.0
13346,44.0,25.0,960.0,5.0,0.0
13347,64.0,0.0,150.0,2.0,0.0
13348,76.0,0.0,150.0,1.0,0.0
13349,61.0,1.0,150.0,2.0,0.0
13350,55.0,159.0,150.0,2.0,0.0
13351,70.0,160.0,150.0,1.0,0.0
13352,73.0,160.0,150.0,1.0,0.0
13353,59.0,0.0,150.0,2.0,0.0
13354,63.0,160.0,150.0,2.0,0.0
13355,56.0,0.0,150.0,2.0,0.0
13356,75.0,0.0,150.0,1.0,0.0
13357,68.0,120.0,150.0,1.0,0.0
13358,71.0,160.0,150.0,1.0,0.0
13359,34.0,40.0,960.0,5.0,0.0
13360,46.0,20.0,930.0,5.0,0.0
13361,62.0,0.0,150.0,2.0,0.0
13362,53.0,159.0,150.0,2.0,0.0
13363,58.0,0.0,150.0,2.0,0.0
13364,74.0,1.0,150.0,1.0,0.0
13365,65.0,160.0,150.0,1.0,0.0
13366,70.0,160.0,150.0,1.0,0.0
13367,58.0,1.0,150.0,2.0,0.0
13368,55.0,159.0,150.0,2.0,0.0
13369,51.0,0.0,150.0,2.0,0.0
13370,61.0,0.0,150.0,2.0,0.0
13371,73.0,0.0,150.0,1.0,0.0
13372,67.0,100.0,150.0,1.0,0.0
13373,70.0,160.0,150.0,1.0,0.0
13374,27.0,5.0,960.0,5.0,0.0
13375,39.0,35.0,960.0,5.0,0.0
13376,72.0,0.0,960.0,1.0,0.0
13377,60.0,160.0,150.0,2.0,0.0
13378,56.0,160.0,480.0,5.0,0.0
13379,51.0,0.0,480.0,5.0,0.0
13380,63.0,160.0,150.0,2.0,0.0
13381,68.0,0.0,150.0,2.0,0.0
13382,60.0,160.0,150.0,2.0,0.0
13383,63.0,120.0,150.0,2.0,0.0
13384,68.0,160.0,150.0,2.0,0.0
13385,71.0,160.0,960.0,1.0,0.0
13386,39.0,20.0,480.0,5.0,0.0
13387,59.0,160.0,150.0,2.0,0.0
13388,44.0,20.0,480.0,5.0,0.0
13389,51.0,20.0,480.0,5.0,0.0
13390,56.0,100.0,480.0,5.0,0.0
13391,63.0,160.0,150.0,2.0,0.0
13392,68.0,0.0,150.0,2.0,0.0
13393,59.0,160.0,150.0,2.0,0.0
13394,63.0,160.0,150.0,2.0,0.0
13395,68.0,0.0,150.0,2.0,0.0
13396,39.0,0.0,480.0,5.0,0.0
13397,58.0,160.0,150.0,2.0,0.0
13398,70.0,0.0,960.0,1.0,0.0
13399,43.0,20.0,480.0,5.0,0.0
13400,51.0,10.0,480.0,5.0,0.0
13401,55.0,110.0,480.0,5.0,0.0
13402,63.0,160.0,150.0,2.0,0.0
13403,67.0,20.0,150.0,2.0,0.0
13404,58.0,160.0,150.0,2.0,0.0
13405,63.0,160.0,150.0,2.0,0.0
13406,67.0,160.0,150.0,2.0,0.0
13407,68.0,160.0,960.0,1.0,0.0
13408,56.0,160.0,150.0,2.0,0.0
13409,39.0,0.0,480.0,5.0,0.0
13410,41.0,20.0,480.0,5.0,0.0
13411,51.0,10.0,480.0,5.0,0.0
13412,53.0,110.0,480.0,5.0,0.0
13413,63.0,160.0,150.0,2.0,0.0
13414,65.0,20.0,150.0,2.0,0.0
13415,56.0,160.0,150.0,2.0,0.0
13416,63.0,160.0,150.0,2.0,0.0
13417,65.0,0.0,150.0,2.0,0.0
13418,58.0,160.0,150.0,2.0,0.0
13419,56.0,20.0,480.0,5.0,0.0
13420,70.0,0.0,960.0,1.0,0.0
13421,39.0,0.0,480.0,5.0,0.0
13422,43.0,20.0,480.0,5.0,0.0
13423,51.0,120.0,480.0,5.0,0.0
13424,63.0,160.0,150.0,2.0,0.0
13425,67.0,0.0,150.0,2.0,0.0
13426,58.0,160.0,150.0,2.0,0.0
13427,63.0,160.0,150.0,2.0,0.0
13428,67.0,160.0,150.0,2.0,0.0
13429,55.0,0.0,480.0,5.0,0.0
13430,51.0,0.0,480.0,5.0,0.0
13431,58.0,160.0,150.0,2.0,0.0
13432,63.0,160.0,150.0,2.0,0.0
13433,67.0,160.0,150.0,2.0,0.0
13434,58.0,160.0,150.0,2.0,0.0
13435,63.0,160.0,150.0,2.0,0.0
13436,67.0,172.0,150.0,2.0,0.0
13437,55.0,148.0,180.0,2.0,0.0
13438,51.0,161.0,480.0,5.0,0.0
13439,46.0,0.0,480.0,5.0,0.0
13440,58.0,160.0,150.0,2.0,0.0
13441,63.0,0.0,150.0,2.0,0.0
13442,55.0,159.0,150.0,2.0,0.0
13443,58.0,160.0,150.0,2.0,0.0
13444,63.0,160.0,150.0,2.0,0.0
13445,46.0,0.0,480.0,5.0,0.0
13446,51.0,161.0,150.0,2.0,0.0
13447,43.0,0.0,480.0,5.0,0.0
13448,55.0,159.0,150.0,2.0,0.0
13449,58.0,160.0,150.0,2.0,0.0
13450,51.0,147.0,150.0,2.0,0.0
13451,55.0,173.0,150.0,2.0,0.0
13452,58.0,160.0,150.0,2.0,0.0
13453,43.0,0.0,480.0,5.0,0.0
13454,39.0,160.0,480.0,5.0,0.0
13455,46.0,160.0,150.0,2.0,0.0
13456,51.0,160.0,150.0,2.0,0.0
13457,55.0,0.0,150.0,2.0,0.0
13458,46.0,160.0,150.0,2.0,0.0
13459,51.0,161.0,150.0,2.0,0.0
13460,55.0,159.0,150.0,2.0,0.0
13461,34.0,0.0,480.0,5.0,0.0
13462,39.0,0.0,480.0,5.0,0.0
13463,43.0,160.0,150.0,2.0,0.0
13464,46.0,160.0,150.0,2.0,0.0
13465,51.0,160.0,150.0,2.0,0.0
13466,43.0,160.0,150.0,2.0,0.0
13467,46.0,160.0,150.0,2.0,0.0
13468,51.0,160.0,150.0,2.0,0.0
13469,43.0,160.0,150.0,2.0,0.0
13470,46.0,160.0,150.0,2.0,0.0
13471,51.0,160.0,150.0,2.0,0.0
13472,43.0,160.0,150.0,2.0,0.0
13473,46.0,160.0,150.0,2.0,0.0
13474,51.0,160.0,150.0,2.0,0.0
13475,39.0,0.0,480.0,5.0,0.0
13476,27.0,0.0,480.0,5.0,0.0
13477,43.0,160.0,150.0,2.0,0.0
13478,46.0,160.0,150.0,2.0,0.0
13479,51.0,160.0,150.0,2.0,0.0
13480,43.0,160.0,150.0,2.0,0.0
13481,46.0,160.0,150.0,2.0,0.0
13482,51.0,960.0,150.0,2.0,0.0
13483,27.0,0.0,960.0,5.0,0.0
13484,39.0,960.0,960.0,5.0,0.0
13485,26.0,0.0,960.0,5.0,0.0
13486,38.0,960.0,960.0,5.0,0.0
13487,25.0,0.0,960.0,5.0,0.0
13488,37.0,960.0,15.0,5.0,0.0
13489,49.0,727.0,960.0,5.0,0.0
13490,47.0,240.0,960.0,1.0,0.0
13491,38.0,7.0,1920.0,5.0,0.0
13492,50.0,233.0,1920.0,5.0,0.0
13493,43.0,0.0,960.0,2.0,0.0
13494,62.0,0.0,240.0,1.0,0.0
13495,59.0,233.0,240.0,2.0,0.0
13496,67.0,232.0,720.0,1.0,0.0
13497,48.0,255.0,240.0,1.0,0.0
13498,57.0,0.0,720.0,1.0,0.0
13499,66.0,233.0,240.0,1.0,0.0
13500,69.0,233.0,720.0,1.0,0.0
13501,50.0,247.0,240.0,1.0,0.0
13502,43.0,0.0,960.0,5.0,0.0
13503,31.0,0.0,960.0,5.0,0.0
13504,59.0,240.0,720.0,1.0,0.0
13505,67.0,240.0,240.0,1.0,0.0
13506,71.0,233.0,720.0,1.0,0.0
13507,55.0,247.0,240.0,1.0,0.0
13508,33.0,0.0,960.0,5.0,0.0
13509,45.0,0.0,960.0,5.0,0.0
13510,61.0,128.0,720.0,1.0,0.0
13511,67.0,240.0,240.0,1.0,0.0
13512,79.0,7.0,240.0,1.0,0.0
13513,23.0,65.0,120.0,5.0,0.0
13514,38.0,60.0,60.0,5.0,0.0
13515,42.0,60.0,60.0,5.0,0.0
13516,45.0,60.0,60.0,5.0,0.0
13517,50.0,60.0,60.0,5.0,0.0
13518,54.0,60.0,60.0,5.0,0.0
13519,57.0,60.0,60.0,5.0,0.0
13520,62.0,80.0,60.0,5.0,0.0
13521,66.0,0.0,480.0,5.0,0.0
13522,78.0,80.0,90.0,3.0,0.0
13523,74.0,80.0,90.0,3.0,0.0
13524,76.0,80.0,90.0,3.0,0.0
13525,74.0,80.0,90.0,3.0,0.0
13526,76.0,80.0,90.0,3.0,0.0
13527,74.0,60.0,90.0,3.0,0.0
13528,76.0,60.0,60.0,3.0,0.0
13529,74.0,60.0,60.0,3.0,0.0
13530,76.0,60.0,60.0,3.0,0.0
13531,74.0,60.0,60.0,3.0,0.0
13532,76.0,60.0,60.0,3.0,0.0
13533,74.0,60.0,60.0,3.0,0.0
13534,76.0,60.0,60.0,3.0,0.0
13535,74.0,60.0,60.0,3.0,0.0
13536,76.0,60.0,60.0,3.0,0.0
13537,74.0,60.0,60.0,3.0,0.0
13538,76.0,60.0,60.0,3.0,0.0
13539,74.0,60.0,60.0,3.0,0.0
13540,76.0,60.0,60.0,3.0,0.0
13541,74.0,60.0,60.0,3.0,0.0
13542,76.0,60.0,60.0,3.0,0.0
13543,74.0,60.0,60.0,3.0,0.0
13544,76.0,60.0,60.0,3.0,0.0
13545,74.0,60.0,60.0,3.0,0.0
13546,76.0,60.0,60.0,3.0,0.0
13547,74.0,60.0,60.0,3.0,0.0
13548,76.0,60.0,60.0,3.0,0.0
13549,74.0,60.0,60.0,3.0,0.0
13550,76.0,60.0,60.0,3.0,0.0
13551,74.0,60.0,60.0,3.0,0.0
13552,76.0,60.0,60.0,3.0,0.0
13553,74.0,60.0,60.0,3.0,0.0
13554,76.0,60.0,60.0,3.0,0.0
13555,74.0,60.0,60.0,3.0,0.0
13556,76.0,60.0,60.0,3.0,0.0
13557,74.0,60.0,60.0,3.0,0.0
13558,76.0,60.0,60.0,3.0,0.0
13559,74.0,60.0,60.0,3.0,0.0
13560,76.0,60.0,60.0,3.0,0.0
13561,74.0,60.0,60.0,3.0,0.0
13562,76.0,60.0,60.0,3.0,0.0
13563,74.0,60.0,60.0,3.0,0.0
13564,76.0,60.0,60.0,3.0,0.0
13565,74.0,60.0,60.0,3.0,0.0
13566,76.0,60.0,60.0,3.0,0.0
13567,74.0,60.0,60.0,3.0,0.0
13568,76.0,60.0,60.0,3.0,0.0
13569,66.0,0.0,240.0,1.0,0.0
13570,74.0,60.0,60.0,3.0,0.0
13571,76.0,60.0,60.0,3.0,0.0
13572,74.0,60.0,60.0,3.0,0.0
13573,76.0,60.0,60.0,3.0,0.0
13574,72.0,0.0,240.0,1.0,0.0
13575,74.0,60.0,60.0,3.0,0.0
13576,76.0,60.0,60.0,3.0,0.0
13577,74.0,60.0,60.0,3.0,0.0
13578,23.0,60.0,60.0,5.0,0.0
13579,38.0,60.0,60.0,5.0,0.0
13580,43.0,60.0,60.0,5.0,0.0
13581,47.0,80.0,60.0,5.0,0.0
13582,50.0,100.0,90.0,5.0,0.0
13583,55.0,60.0,90.0,5.0,0.0
13584,59.0,80.0,90.0,5.0,0.0
13585,74.0,58.0,420.0,1.0,0.0
13586,62.0,80.0,90.0,5.0,0.0
13587,71.0,0.0,90.0,3.0,0.0
13588,67.0,80.0,90.0,3.0,0.0
13589,69.0,80.0,90.0,3.0,0.0
13590,67.0,80.0,90.0,3.0,0.0
13591,69.0,22.0,90.0,3.0,0.0
13592,67.0,60.0,90.0,3.0,0.0
13593,69.0,60.0,60.0,3.0,0.0
13594,67.0,60.0,60.0,3.0,0.0
13595,69.0,60.0,60.0,3.0,0.0
13596,67.0,60.0,60.0,3.0,0.0
13597,69.0,60.0,60.0,3.0,0.0
13598,67.0,60.0,60.0,3.0,0.0
13599,69.0,60.0,60.0,3.0,0.0
13600,67.0,60.0,60.0,3.0,0.0
13601,69.0,60.0,60.0,3.0,0.0
13602,67.0,60.0,60.0,3.0,0.0
13603,69.0,60.0,60.0,3.0,0.0
13604,67.0,60.0,60.0,3.0,0.0
13605,69.0,60.0,60.0,3.0,0.0
13606,67.0,60.0,60.0,3.0,0.0
13607,69.0,60.0,60.0,3.0,0.0
13608,67.0,60.0,60.0,3.0,0.0
13609,69.0,60.0,60.0,3.0,0.0
13610,67.0,60.0,60.0,3.0,0.0
13611,69.0,60.0,60.0,3.0,0.0
13612,67.0,60.0,60.0,3.0,0.0
13613,69.0,60.0,60.0,3.0,0.0
13614,67.0,60.0,60.0,3.0,0.0
13615,69.0,60.0,60.0,3.0,0.0
13616,67.0,60.0,60.0,3.0,0.0
13617,69.0,60.0,60.0,3.0,0.0
13618,67.0,60.0,60.0,3.0,0.0
13619,69.0,60.0,60.0,3.0,0.0
13620,67.0,60.0,60.0,3.0,0.0
13621,69.0,60.0,60.0,3.0,0.0
13622,67.0,60.0,60.0,3.0,0.0
13623,69.0,60.0,60.0,3.0,0.0
13624,67.0,60.0,60.0,3.0,0.0
13625,69.0,60.0,60.0,3.0,0.0
13626,67.0,60.0,60.0,3.0,0.0
13627,69.0,60.0,60.0,3.0,0.0
13628,67.0,60.0,60.0,3.0,0.0
13629,69.0,60.0,60.0,3.0,0.0
13630,67.0,60.0,60.0,3.0,0.0
13631,69.0,60.0,60.0,3.0,0.0
13632,67.0,60.0,60.0,3.0,0.0
13633,59.0,0.0,240.0,1.0,0.0
13634,69.0,60.0,60.0,3.0,0.0
13635,67.0,60.0,60.0,3.0,0.0
13636,69.0,60.0,60.0,3.0,0.0
13637,67.0,60.0,60.0,3.0,0.0
13638,65.0,0.0,240.0,1.0,0.0
13639,69.0,60.0,60.0,3.0,0.0
13640,67.0,60.0,60.0,3.0,0.0
13641,69.0,60.0,60.0,3.0,0.0
13642,67.0,80.0,60.0,3.0,0.0
13643,23.0,80.0,90.0,5.0,0.0
13644,38.0,80.0,90.0,5.0,0.0
13645,43.0,120.0,90.0,5.0,0.0
13646,48.0,120.0,120.0,5.0,0.0
13647,52.0,80.0,120.0,5.0,0.0
13648,55.0,20.0,960.0,5.0,0.0
13649,67.0,80.0,390.0,1.0,0.0
13650,64.0,80.0,90.0,3.0,0.0
13651,60.0,80.0,90.0,3.0,0.0
13652,62.0,80.0,90.0,3.0,0.0
13653,60.0,80.0,90.0,3.0,0.0
13654,62.0,0.0,90.0,3.0,0.0
13655,60.0,60.0,90.0,3.0,0.0
13656,62.0,60.0,60.0,3.0,0.0
13657,60.0,60.0,60.0,3.0,0.0
13658,62.0,60.0,60.0,3.0,0.0
13659,60.0,60.0,60.0,3.0,0.0
13660,62.0,60.0,60.0,3.0,0.0
13661,60.0,40.0,60.0,3.0,0.0
13662,62.0,60.0,60.0,3.0,0.0
13663,60.0,60.0,60.0,3.0,0.0
13664,62.0,60.0,60.0,3.0,0.0
13665,60.0,60.0,60.0,3.0,0.0
13666,62.0,60.0,60.0,3.0,0.0
13667,60.0,60.0,60.0,3.0,0.0
13668,62.0,60.0,60.0,3.0,0.0
13669,60.0,60.0,60.0,3.0,0.0
13670,62.0,60.0,60.0,3.0,0.0
13671,60.0,60.0,60.0,3.0,0.0
13672,62.0,60.0,60.0,3.0,0.0
13673,60.0,60.0,60.0,3.0,0.0
13674,62.0,60.0,60.0,3.0,0.0
13675,60.0,60.0,60.0,3.0,0.0
13676,62.0,60.0,60.0,3.0,0.0
13677,60.0,60.0,60.0,3.0,0.0
13678,62.0,60.0,60.0,3.0,0.0
13679,60.0,60.0,60.0,3.0,0.0
13680,59.0,60.0,60.0,3.0,0.0
13681,60.0,60.0,60.0,3.0,0.0
13682,62.0,60.0,60.0,3.0,0.0
13683,64.0,60.0,60.0,3.0,0.0
13684,66.0,60.0,60.0,3.0,0.0
13685,67.0,60.0,60.0,3.0,0.0
13686,69.0,60.0,60.0,3.0,0.0
13687,71.0,60.0,60.0,3.0,0.0
13688,72.0,60.0,60.0,3.0,0.0
13689,74.0,60.0,60.0,3.0,0.0
13690,76.0,60.0,60.0,3.0,0.0
13691,78.0,60.0,60.0,3.0,0.0
13692,79.0,60.0,60.0,3.0,0.0
13693,78.0,60.0,60.0,3.0,0.0
13694,76.0,60.0,60.0,3.0,0.0
13695,74.0,60.0,60.0,3.0,0.0
13696,72.0,60.0,60.0,3.0,0.0
13697,71.0,60.0,60.0,3.0,0.0
13698,69.0,60.0,60.0,3.0,0.0
13699,67.0,60.0,60.0,3.0,0.0
13700,66.0,60.0,60.0,3.0,0.0
13701,64.0,100.0,60.0,3.0,0.0
13702,62.0,60.0,90.0,3.0,0.0
13703,38.0,23.0,150.0,5.0,0.0
13704,61.0,37.0,60.0,3.0,0.0
13705,62.0,60.0,60.0,3.0,0.0
13706,45.0,0.0,90.0,5.0,0.0
13707,61.0,60.0,60.0,3.0,0.0
13708,62.0,20.0,60.0,3.0,0.0
13709,52.0,40.0,90.0,5.0,0.0
13710,61.0,60.0,60.0,3.0,0.0
13711,55.0,60.0,240.0,5.0,0.0
13712,62.0,60.0,60.0,3.0,0.0
13713,61.0,60.0,60.0,3.0,0.0
13714,62.0,60.0,60.0,3.0,0.0
13715,61.0,0.0,60.0,3.0,0.0
13716,62.0,60.0,60.0,3.0,0.0
13717,61.0,60.0,60.0,3.0,0.0
13718,62.0,60.0,60.0,3.0,0.0
13719,61.0,60.0,60.0,3.0,0.0
13720,62.0,60.0,60.0,3.0,0.0
13721,61.0,60.0,60.0,3.0,0.0
13722,62.0,60.0,60.0,3.0,0.0
13723,61.0,60.0,60.0,3.0,0.0
13724,62.0,60.0,60.0,3.0,0.0
13725,61.0,60.0,60.0,3.0,0.0
13726,62.0,60.0,60.0,3.0,0.0
13727,61.0,60.0,60.0,3.0,0.0
13728,62.0,60.0,60.0,3.0,0.0
13729,61.0,60.0,60.0,3.0,0.0
13730,62.0,60.0,60.0,3.0,0.0
13731,61.0,60.0,60.0,3.0,0.0
13732,62.0,80.0,60.0,3.0,0.0
13733,61.0,60.0,60.0,3.0,0.0
13734,62.0,60.0,60.0,3.0,0.0
13735,61.0,60.0,60.0,3.0,0.0
13736,62.0,60.0,60.0,3.0,0.0
13737,61.0,60.0,60.0,3.0,0.0
13738,59.0,60.0,60.0,3.0,0.0
13739,61.0,60.0,60.0,3.0,0.0
13740,62.0,60.0,60.0,3.0,0.0
13741,64.0,60.0,60.0,3.0,0.0
13742,66.0,60.0,60.0,3.0,0.0
13743,67.0,60.0,60.0,3.0,0.0
13744,69.0,60.0,60.0,3.0,0.0
13745,71.0,60.0,60.0,3.0,0.0
13746,73.0,60.0,60.0,3.0,0.0
13747,74.0,60.0,60.0,3.0,0.0
13748,76.0,60.0,60.0,3.0,0.0
13749,78.0,60.0,60.0,3.0,0.0
13750,79.0,60.0,60.0,3.0,0.0
13751,81.0,60.0,60.0,3.0,0.0
13752,79.0,60.0,60.0,3.0,0.0
13753,78.0,60.0,60.0,3.0,0.0
13754,76.0,60.0,60.0,3.0,0.0
13755,74.0,60.0,60.0,3.0,0.0
13756,73.0,60.0,60.0,3.0,0.0
13757,71.0,60.0,60.0,3.0,0.0
13758,69.0,60.0,60.0,3.0,0.0
13759,66.0,60.0,60.0,3.0,0.0
13760,64.0,60.0,60.0,3.0,0.0
13761,62.0,120.0,60.0,3.0,0.0
13762,61.0,100.0,120.0,3.0,0.0
13763,38.0,23.0,150.0,5.0,0.0
13764,62.0,60.0,60.0,3.0,0.0
13765,61.0,37.0,60.0,3.0,0.0
13766,62.0,60.0,60.0,3.0,0.0
13767,45.0,60.0,90.0,5.0,0.0
13768,61.0,0.0,60.0,3.0,0.0
13769,62.0,20.0,60.0,3.0,0.0
13770,50.0,40.0,90.0,5.0,0.0
13771,61.0,40.0,60.0,3.0,0.0
13772,54.0,20.0,90.0,5.0,0.0
13773,62.0,60.0,60.0,3.0,0.0
13774,61.0,60.0,60.0,3.0,0.0
13775,62.0,60.0,60.0,3.0,0.0
13776,61.0,60.0,60.0,3.0,0.0
13777,62.0,60.0,60.0,3.0,0.0
13778,61.0,60.0,60.0,3.0,0.0
13779,62.0,60.0,60.0,3.0,0.0
13780,61.0,60.0,60.0,3.0,0.0
13781,62.0,60.0,60.0,3.0,0.0
13782,61.0,60.0,60.0,3.0,0.0
13783,62.0,60.0,60.0,3.0,0.0
13784,61.0,60.0,60.0,3.0,0.0
13785,62.0,60.0,60.0,3.0,0.0
13786,61.0,60.0,60.0,3.0,0.0
13787,62.0,60.0,60.0,3.0,0.0
13788,61.0,60.0,60.0,3.0,0.0
13789,62.0,80.0,60.0,3.0,0.0
13790,61.0,60.0,60.0,3.0,0.0
13791,62.0,190.0,60.0,3.0,0.0
13792,61.0,150.0,210.0,3.0,0.0
13793,62.0,120.0,120.0,3.0,0.0
13794,61.0,120.0,120.0,3.0,0.0
13795,62.0,120.0,120.0,3.0,0.0
13796,67.0,140.0,120.0,1.0,0.0
13797,61.0,120.0,120.0,3.0,0.0
13798,62.0,120.0,120.0,3.0,0.0
13799,63.0,120.0,120.0,3.0,0.0
13800,64.0,120.0,120.0,3.0,0.0
13801,65.0,120.0,120.0,3.0,0.0
13802,66.0,120.0,120.0,3.0,0.0
13803,71.0,120.0,120.0,1.0,0.0
13804,65.0,120.0,120.0,3.0,0.0
13805,66.0,120.0,120.0,3.0,0.0
13806,67.0,120.0,120.0,3.0,0.0
13807,68.0,120.0,120.0,3.0,0.0
13808,69.0,120.0,120.0,3.0,0.0
13809,76.0,120.0,120.0,1.0,0.0
13810,68.0,120.0,120.0,3.0,0.0
13811,69.0,120.0,120.0,3.0,0.0
13812,70.0,120.0,120.0,3.0,0.0
13813,71.0,120.0,120.0,3.0,0.0
13814,72.0,120.0,120.0,3.0,0.0
13815,73.0,120.0,120.0,3.0,0.0
13816,74.0,120.0,120.0,3.0,0.0
13817,79.0,120.0,120.0,1.0,0.0
13818,73.0,120.0,120.0,3.0,0.0
13819,74.0,120.0,120.0,3.0,0.0
13820,75.0,120.0,120.0,3.0,0.0
13821,76.0,120.0,120.0,3.0,0.0
13822,77.0,120.0,120.0,3.0,0.0
13823,78.0,120.0,120.0,3.0,0.0
13824,83.0,120.0,120.0,1.0,0.0
13825,77.0,120.0,120.0,3.0,0.0
13826,78.0,120.0,120.0,3.0,0.0
13827,79.0,120.0,120.0,3.0,0.0
13828,80.0,120.0,120.0,3.0,0.0
13829,81.0,100.0,120.0,3.0,0.0
13830,88.0,140.0,120.0,1.0,0.0
13831,80.0,120.0,120.0,3.0,0.0
13832,81.0,120.0,120.0,3.0,0.0
13833,82.0,120.0,120.0,3.0,0.0
13834,83.0,120.0,120.0,3.0,0.0
13835,84.0,120.0,120.0,3.0,0.0
13836,85.0,120.0,120.0,3.0,0.0
13837,86.0,40.0,120.0,3.0,0.0
13838,74.0,20.0,240.0,5.0,0.0
13839,91.0,40.0,40.0,2.0,0.0
13840,81.0,15.0,240.0,5.0,0.0
13841,90.0,40.0,40.0,2.0,0.0
13842,86.0,25.0,210.0,5.0,0.0
13843,91.0,40.0,40.0,2.0,0.0
13844,90.0,40.0,40.0,2.0,0.0
13845,91.0,20.0,40.0,2.0,0.0
13846,90.0,20.0,40.0,2.0,0.0
13847,88.0,60.0,60.0,2.0,0.0
13848,86.0,60.0,60.0,2.0,0.0
13849,85.0,60.0,60.0,2.0,0.0
13850,83.0,60.0,60.0,2.0,0.0
13851,81.0,60.0,60.0,2.0,0.0
13852,62.0,17.0,240.0,5.0,0.0
13853,79.0,40.0,15.0,2.0,0.0
13854,69.0,37.0,240.0,5.0,0.0
13855,78.0,40.0,40.0,2.0,0.0
13856,74.0,0.0,150.0,5.0,0.0
13857,79.0,40.0,40.0,2.0,0.0
13858,78.0,40.0,40.0,2.0,0.0
13859,79.0,23.0,40.0,2.0,0.0
13860,78.0,23.0,40.0,2.0,0.0
13861,76.0,60.0,60.0,2.0,0.0
13862,74.0,60.0,60.0,2.0,0.0
13863,73.0,60.0,60.0,2.0,0.0
13864,71.0,60.0,60.0,2.0,0.0
13865,69.0,60.0,60.0,2.0,0.0
13866,67.0,40.0,60.0,2.0,0.0
13867,50.0,5.0,240.0,5.0,0.0
13868,67.0,40.0,40.0,2.0,0.0
13869,57.0,25.0,240.0,5.0,0.0
13870,66.0,40.0,40.0,2.0,0.0
13871,62.0,15.0,150.0,5.0,0.0
13872,67.0,40.0,40.0,2.0,0.0
13873,66.0,40.0,40.0,2.0,0.0
13874,67.0,20.0,40.0,2.0,0.0
13875,66.0,35.0,40.0,2.0,0.0
13876,64.0,60.0,60.0,2.0,0.0
13877,62.0,60.0,60.0,2.0,0.0
13878,61.0,60.0,60.0,2.0,0.0
13879,59.0,60.0,60.0,2.0,0.0
13880,57.0,40.0,60.0,2.0,0.0
13881,55.0,80.0,60.0,5.0,0.0
13882,38.0,3.0,240.0,5.0,0.0
13883,45.0,57.0,240.0,5.0,0.0
13884,54.0,60.0,60.0,5.0,0.0
13885,50.0,17.0,180.0,5.0,0.0
13886,55.0,60.0,60.0,5.0,0.0
13887,54.0,40.0,60.0,5.0,0.0
13888,52.0,3.0,60.0,5.0,0.0
13889,50.0,60.0,60.0,5.0,0.0
13890,49.0,60.0,60.0,5.0,0.0
13891,47.0,60.0,60.0,5.0,0.0
13892,45.0,60.0,60.0,5.0,0.0
13893,43.0,60.0,60.0,5.0,0.0
13894,42.0,60.0,60.0,5.0,0.0
13895,40.0,60.0,60.0,5.0,0.0
13896,38.0,60.0,60.0,5.0,0.0
13897,37.0,60.0,60.0,5.0,0.0
13898,35.0,60.0,60.0,5.0,0.0
13899,33.0,60.0,60.0,5.0,0.0
13900,31.0,60.0,60.0,5.0,0.0
13901,30.0,60.0,60.0,5.0,0.0
13902,28.0,240.0,60.0,5.0,0.0
13903,26.0,480.0,240.0,5.0,0.0
13904,38.0,40.0,240.0,5.0,0.0
13905,42.0,40.0,240.0,5.0,0.0
13906,45.0,40.0,240.0,5.0,0.0
13907,54.0,40.0,240.0,5.0,0.0
13908,62.0,40.0,240.0,1.0,0.0
13909,66.0,40.0,240.0,1.0,0.0
13910,69.0,40.0,240.0,1.0,0.0
13911,74.0,1620.0,240.0,1.0,0.0
13912,26.0,40.0,960.0,5.0,0.0
13913,33.0,40.0,960.0,5.0,0.0
13914,38.0,40.0,960.0,5.0,0.0
13915,74.0,40.0,960.0,1.0,0.0
13916,78.0,40.0,960.0,1.0,0.0
13917,81.0,40.0,960.0,1.0,0.0
13918,86.0,840.0,960.0,1.0,0.0
