,note,step,duration,channel,velocity
0,34.0,48.0,180.0,1.0,0.0
1,60.0,72.0,120.0,0.0,0.0
2,56.0,0.0,120.0,0.0,0.0
3,62.0,0.0,120.0,0.0,0.0
4,58.0,120.0,120.0,0.0,0.0
5,53.0,48.0,180.0,1.0,0.0
6,46.0,0.0,180.0,1.0,0.0
7,56.0,72.0,120.0,0.0,0.0
8,60.0,0.0,120.0,0.0,0.0
9,58.0,120.0,120.0,0.0,0.0
10,62.0,0.0,120.0,0.0,0.0
11,46.0,48.0,180.0,1.0,0.0
12,63.0,72.0,120.0,0.0,0.0
13,60.0,0.0,120.0,0.0,0.0
14,55.0,0.0,180.0,1.0,0.0
15,65.0,192.0,120.0,0.0,0.0
16,62.0,0.0,120.0,0.0,0.0
17,34.0,48.0,180.0,1.0,0.0
18,63.0,0.0,240.0,0.0,0.0
19,67.0,192.0,240.0,0.0,0.0
20,62.0,0.0,240.0,0.0,0.0
21,65.0,192.0,240.0,0.0,0.0
22,56.0,0.0,180.0,1.0,0.0
23,46.0,48.0,180.0,1.0,0.0
24,46.0,0.0,180.0,1.0,0.0
25,60.0,0.0,240.0,0.0,0.0
26,63.0,120.0,240.0,0.0,0.0
27,55.0,48.0,180.0,1.0,0.0
28,34.0,48.0,180.0,1.0,0.0
29,62.0,0.0,120.0,0.0,0.0
30,58.0,72.0,120.0,0.0,0.0
31,63.0,0.0,120.0,0.0,0.0
32,60.0,120.0,120.0,0.0,0.0
33,46.0,48.0,180.0,1.0,0.0
34,65.0,0.0,120.0,0.0,0.0
35,62.0,72.0,120.0,0.0,0.0
36,53.0,0.0,180.0,1.0,0.0
37,56.0,0.0,180.0,1.0,0.0
38,63.0,0.0,120.0,0.0,0.0
39,67.0,120.0,120.0,0.0,0.0
40,68.0,72.0,120.0,0.0,0.0
41,65.0,0.0,120.0,0.0,0.0
42,51.0,48.0,180.0,1.0,0.0
43,55.0,0.0,180.0,1.0,0.0
44,46.0,0.0,180.0,1.0,0.0
45,70.0,0.0,120.0,0.0,0.0
46,67.0,192.0,120.0,0.0,0.0
47,72.0,0.0,240.0,0.0,0.0
48,34.0,48.0,180.0,1.0,0.0
49,68.0,192.0,240.0,0.0,0.0
50,70.0,0.0,240.0,0.0,0.0
51,50.0,0.0,180.0,1.0,0.0
52,46.0,0.0,180.0,1.0,0.0
53,53.0,48.0,180.0,1.0,0.0
54,67.0,192.0,240.0,0.0,0.0
55,58.0,0.0,180.0,1.0,0.0
56,68.0,0.0,240.0,0.0,0.0
57,46.0,48.0,180.0,1.0,0.0
58,65.0,120.0,240.0,0.0,0.0
59,63.0,72.0,120.0,0.0,0.0
60,67.0,0.0,120.0,0.0,0.0
61,39.0,48.0,180.0,1.0,0.0
62,70.0,120.0,120.0,0.0,0.0
63,67.0,0.0,120.0,0.0,0.0
64,73.0,72.0,120.0,0.0,0.0
65,61.0,48.0,180.0,1.0,0.0
66,51.0,0.0,180.0,1.0,0.0
67,77.0,120.0,120.0,0.0,0.0
68,58.0,48.0,180.0,1.0,0.0
69,73.0,0.0,120.0,0.0,0.0
70,67.0,72.0,120.0,0.0,0.0
71,51.0,0.0,180.0,1.0,0.0
72,70.0,120.0,120.0,0.0,0.0
73,63.0,0.0,120.0,0.0,0.0
74,67.0,72.0,120.0,0.0,0.0
75,39.0,48.0,180.0,1.0,0.0
76,68.0,120.0,120.0,0.0,0.0
77,51.0,48.0,180.0,1.0,0.0
78,60.0,0.0,180.0,1.0,0.0
79,67.0,72.0,120.0,0.0,0.0
80,72.0,0.0,120.0,0.0,0.0
81,75.0,120.0,120.0,0.0,0.0
82,56.0,48.0,180.0,1.0,0.0
83,51.0,0.0,180.0,1.0,0.0
84,72.0,0.0,120.0,0.0,0.0
85,67.0,72.0,120.0,0.0,0.0
86,68.0,120.0,120.0,0.0,0.0
87,39.0,48.0,180.0,1.0,0.0
88,66.0,0.0,120.0,0.0,0.0
89,63.0,72.0,120.0,0.0,0.0
90,67.0,120.0,120.0,0.0,0.0
91,58.0,48.0,180.0,1.0,0.0
92,51.0,0.0,180.0,1.0,0.0
93,70.0,0.0,120.0,0.0,0.0
94,66.0,72.0,120.0,0.0,0.0
95,75.0,120.0,120.0,0.0,0.0
96,55.0,48.0,180.0,1.0,0.0
97,51.0,0.0,180.0,1.0,0.0
98,70.0,72.0,120.0,0.0,0.0
99,66.0,0.0,120.0,0.0,0.0
100,67.0,120.0,120.0,0.0,0.0
101,62.0,120.0,480.0,0.0,0.0
102,64.0,72.0,120.0,0.0,0.0
103,39.0,48.0,180.0,1.0,0.0
104,65.0,120.0,120.0,0.0,0.0
105,56.0,0.0,180.0,1.0,0.0
106,46.0,48.0,180.0,1.0,0.0
107,68.0,72.0,120.0,0.0,0.0
108,65.0,0.0,120.0,0.0,0.0
109,53.0,0.0,180.0,1.0,0.0
110,60.0,72.0,120.0,0.0,0.0
111,63.0,0.0,120.0,0.0,0.0
112,46.0,48.0,180.0,1.0,0.0
113,58.0,120.0,120.0,0.0,0.0
114,62.0,0.0,120.0,0.0,0.0
115,56.0,72.0,120.0,0.0,0.0
116,60.0,0.0,120.0,0.0,0.0
117,34.0,48.0,180.0,1.0,0.0
118,62.0,120.0,120.0,0.0,0.0
119,58.0,0.0,120.0,0.0,0.0
120,53.0,48.0,180.0,1.0,0.0
121,46.0,0.0,180.0,1.0,0.0
122,60.0,72.0,120.0,0.0,0.0
123,56.0,0.0,120.0,0.0,0.0
124,62.0,0.0,120.0,0.0,0.0
125,58.0,120.0,120.0,0.0,0.0
126,46.0,0.0,180.0,1.0,0.0
127,55.0,48.0,180.0,1.0,0.0
128,60.0,72.0,120.0,0.0,0.0
129,63.0,0.0,120.0,0.0,0.0
130,65.0,0.0,120.0,0.0,0.0
131,62.0,192.0,120.0,0.0,0.0
132,63.0,192.0,240.0,0.0,0.0
133,67.0,0.0,240.0,0.0,0.0
134,34.0,48.0,180.0,1.0,0.0
135,46.0,48.0,180.0,1.0,0.0
136,56.0,0.0,180.0,1.0,0.0
137,62.0,0.0,240.0,0.0,0.0
138,65.0,192.0,240.0,0.0,0.0
139,46.0,0.0,180.0,1.0,0.0
140,55.0,48.0,180.0,1.0,0.0
141,60.0,0.0,240.0,0.0,0.0
142,63.0,120.0,240.0,0.0,0.0
143,58.0,72.0,120.0,0.0,0.0
144,62.0,0.0,120.0,0.0,0.0
145,34.0,48.0,180.0,1.0,0.0
146,63.0,120.0,120.0,0.0,0.0
147,60.0,0.0,120.0,0.0,0.0
148,56.0,0.0,180.0,1.0,0.0
149,53.0,0.0,180.0,1.0,0.0
150,46.0,48.0,180.0,1.0,0.0
151,62.0,0.0,120.0,0.0,0.0
152,65.0,72.0,120.0,0.0,0.0
153,67.0,0.0,120.0,0.0,0.0
154,63.0,120.0,120.0,0.0,0.0
155,68.0,0.0,120.0,0.0,0.0
156,65.0,72.0,120.0,0.0,0.0
157,46.0,48.0,180.0,1.0,0.0
158,51.0,0.0,180.0,1.0,0.0
159,55.0,0.0,180.0,1.0,0.0
160,70.0,192.0,120.0,0.0,0.0
161,67.0,0.0,120.0,0.0,0.0
162,34.0,48.0,180.0,1.0,0.0
163,68.0,192.0,240.0,0.0,0.0
164,72.0,0.0,240.0,0.0,0.0
165,46.0,0.0,180.0,1.0,0.0
166,50.0,0.0,180.0,1.0,0.0
167,53.0,48.0,180.0,1.0,0.0
168,70.0,192.0,240.0,0.0,0.0
169,67.0,0.0,240.0,0.0,0.0
170,46.0,0.0,180.0,1.0,0.0
171,65.0,120.0,240.0,0.0,0.0
172,68.0,0.0,240.0,0.0,0.0
173,58.0,48.0,180.0,1.0,0.0
174,39.0,48.0,180.0,1.0,0.0
175,67.0,72.0,120.0,0.0,0.0
176,63.0,0.0,120.0,0.0,0.0
177,70.0,120.0,120.0,0.0,0.0
178,73.0,72.0,120.0,0.0,0.0
179,67.0,0.0,120.0,0.0,0.0
180,51.0,48.0,180.0,1.0,0.0
181,61.0,0.0,180.0,1.0,0.0
182,77.0,120.0,120.0,0.0,0.0
183,58.0,48.0,180.0,1.0,0.0
184,51.0,0.0,180.0,1.0,0.0
185,67.0,72.0,120.0,0.0,0.0
186,73.0,0.0,120.0,0.0,0.0
187,70.0,120.0,120.0,0.0,0.0
188,67.0,72.0,120.0,0.0,0.0
189,39.0,48.0,180.0,1.0,0.0
190,63.0,0.0,120.0,0.0,0.0
191,68.0,120.0,120.0,0.0,0.0
192,60.0,48.0,180.0,1.0,0.0
193,51.0,0.0,180.0,1.0,0.0
194,67.0,0.0,120.0,0.0,0.0
195,72.0,72.0,120.0,0.0,0.0
196,75.0,120.0,120.0,0.0,0.0
197,51.0,48.0,180.0,1.0,0.0
198,56.0,0.0,180.0,1.0,0.0
199,67.0,72.0,120.0,0.0,0.0
200,72.0,0.0,120.0,0.0,0.0
201,68.0,120.0,120.0,0.0,0.0
202,39.0,48.0,180.0,1.0,0.0
203,66.0,0.0,120.0,0.0,0.0
204,63.0,72.0,120.0,0.0,0.0
205,67.0,120.0,120.0,0.0,0.0
206,66.0,0.0,120.0,0.0,0.0
207,70.0,72.0,120.0,0.0,0.0
208,58.0,48.0,180.0,1.0,0.0
209,51.0,0.0,180.0,1.0,0.0
210,75.0,120.0,120.0,0.0,0.0
211,66.0,72.0,120.0,0.0,0.0
212,70.0,0.0,120.0,0.0,0.0
213,51.0,48.0,180.0,1.0,0.0
214,55.0,0.0,180.0,1.0,0.0
215,67.0,192.0,120.0,0.0,0.0
216,64.0,72.0,360.0,0.0,0.0
217,34.0,168.0,180.0,1.0,0.0
218,46.0,0.0,180.0,1.0,0.0
219,56.0,48.0,180.0,1.0,0.0
220,65.0,120.0,120.0,0.0,0.0
221,68.0,72.0,120.0,0.0,0.0
222,46.0,48.0,180.0,1.0,0.0
223,53.0,0.0,180.0,1.0,0.0
224,67.0,0.0,120.0,0.0,0.0
225,62.0,120.0,15.0,0.0,0.0
226,35.0,48.0,180.0,1.0,0.0
227,47.0,0.0,180.0,1.0,0.0
228,67.0,0.0,120.0,0.0,0.0
229,66.0,120.0,120.0,0.0,0.0
230,69.0,0.0,120.0,0.0,0.0
231,55.0,0.0,180.0,1.0,0.0
232,62.0,72.0,120.0,0.0,0.0
233,67.0,0.0,120.0,0.0,0.0
234,50.0,48.0,180.0,1.0,0.0
235,69.0,0.0,120.0,0.0,0.0
236,66.0,120.0,120.0,0.0,0.0
237,67.0,0.0,120.0,0.0,0.0
238,43.0,0.0,180.0,1.0,0.0
239,31.0,48.0,180.0,1.0,0.0
240,71.0,72.0,120.0,0.0,0.0
241,72.0,0.0,120.0,0.0,0.0
242,69.0,192.0,120.0,0.0,0.0
243,26.0,0.0,180.0,1.0,0.0
244,71.0,0.0,240.0,0.0,0.0
245,74.0,192.0,240.0,0.0,0.0
246,38.0,48.0,180.0,1.0,0.0
247,69.0,0.0,240.0,0.0,0.0
248,55.0,48.0,180.0,1.0,0.0
249,50.0,0.0,180.0,1.0,0.0
250,72.0,192.0,240.0,0.0,0.0
251,71.0,0.0,240.0,0.0,0.0
252,43.0,0.0,180.0,1.0,0.0
253,31.0,48.0,180.0,1.0,0.0
254,67.0,120.0,15.0,0.0,0.0
255,62.0,0.0,120.0,0.0,0.0
256,34.0,48.0,180.0,1.0,0.0
257,46.0,0.0,180.0,1.0,0.0
258,66.0,120.0,120.0,0.0,0.0
259,69.0,0.0,120.0,0.0,0.0
260,62.0,0.0,120.0,0.0,0.0
261,67.0,72.0,120.0,0.0,0.0
262,55.0,0.0,180.0,1.0,0.0
263,50.0,48.0,180.0,1.0,0.0
264,69.0,120.0,120.0,0.0,0.0
265,66.0,0.0,120.0,0.0,0.0
266,43.0,0.0,180.0,1.0,0.0
267,67.0,0.0,120.0,0.0,0.0
268,31.0,48.0,180.0,1.0,0.0
269,70.0,72.0,120.0,0.0,0.0
270,72.0,0.0,120.0,0.0,0.0
271,69.0,192.0,120.0,0.0,0.0
272,38.0,0.0,180.0,1.0,0.0
273,26.0,48.0,180.0,1.0,0.0
274,74.0,192.0,240.0,0.0,0.0
275,70.0,0.0,240.0,0.0,0.0
276,72.0,192.0,240.0,0.0,0.0
277,69.0,0.0,240.0,0.0,0.0
278,55.0,48.0,180.0,1.0,0.0
279,50.0,0.0,180.0,1.0,0.0
280,31.0,0.0,180.0,1.0,0.0
281,43.0,48.0,180.0,1.0,0.0
282,67.0,120.0,240.0,0.0,0.0
283,70.0,0.0,240.0,0.0,0.0
284,46.0,0.0,180.0,1.0,0.0
285,68.0,72.0,120.0,0.0,0.0
286,65.0,0.0,120.0,0.0,0.0
287,34.0,48.0,180.0,1.0,0.0
288,67.0,120.0,120.0,0.0,0.0
289,70.0,0.0,120.0,0.0,0.0
290,68.0,0.0,120.0,0.0,0.0
291,65.0,72.0,120.0,0.0,0.0
292,56.0,48.0,180.0,1.0,0.0
293,46.0,0.0,180.0,1.0,0.0
294,67.0,120.0,120.0,0.0,0.0
295,70.0,0.0,120.0,0.0,0.0
296,53.0,0.0,180.0,1.0,0.0
297,72.0,0.0,120.0,0.0,0.0
298,68.0,72.0,120.0,0.0,0.0
299,46.0,48.0,180.0,1.0,0.0
300,70.0,0.0,120.0,0.0,0.0
301,74.0,192.0,120.0,0.0,0.0
302,72.0,192.0,240.0,0.0,0.0
303,75.0,0.0,240.0,0.0,0.0
304,32.0,48.0,180.0,1.0,0.0
305,68.0,192.0,240.0,0.0,0.0
306,72.0,0.0,240.0,0.0,0.0
307,44.0,0.0,180.0,1.0,0.0
308,56.0,48.0,180.0,1.0,0.0
309,48.0,20.0,180.0,1.0,0.0
310,44.0,0.0,180.0,1.0,0.0
311,65.0,0.0,180.0,0.0,0.0
312,68.0,0.0,180.0,0.0,0.0
313,67.0,20.0,20.0,0.0,0.0
314,68.0,20.0,20.0,0.0,0.0
315,70.0,180.0,20.0,0.0,0.0
316,34.0,48.0,180.0,1.0,0.0
317,68.0,192.0,240.0,0.0,0.0
318,60.0,0.0,240.0,0.0,0.0
319,58.0,0.0,240.0,0.0,0.0
320,67.0,192.0,240.0,0.0,0.0
321,50.0,0.0,180.0,1.0,0.0
322,46.0,48.0,180.0,1.0,0.0
323,46.0,48.0,180.0,1.0,0.0
324,50.0,0.0,180.0,1.0,0.0
325,65.0,0.0,240.0,0.0,0.0
326,56.0,192.0,240.0,0.0,0.0
327,39.0,240.0,180.0,1.0,0.0
328,27.0,0.0,180.0,1.0,0.0
329,70.0,240.0,480.0,0.0,0.0
330,55.0,0.0,480.0,0.0,0.0
331,46.0,0.0,180.0,1.0,0.0
332,51.0,48.0,180.0,1.0,0.0
333,67.0,120.0,240.0,0.0,0.0
334,63.0,0.0,15.0,0.0,0.0
335,35.0,48.0,180.0,1.0,0.0
336,47.0,0.0,180.0,1.0,0.0
337,62.0,72.0,120.0,0.0,0.0
338,67.0,0.0,120.0,0.0,0.0
339,69.0,120.0,120.0,0.0,0.0
340,66.0,0.0,120.0,0.0,0.0
341,50.0,48.0,180.0,1.0,0.0
342,67.0,0.0,120.0,0.0,0.0
343,62.0,72.0,120.0,0.0,0.0
344,55.0,0.0,180.0,1.0,0.0
345,66.0,0.0,120.0,0.0,0.0
346,69.0,120.0,120.0,0.0,0.0
347,71.0,0.0,120.0,0.0,0.0
348,67.0,72.0,120.0,0.0,0.0
349,31.0,48.0,180.0,1.0,0.0
350,43.0,0.0,180.0,1.0,0.0
351,69.0,192.0,120.0,0.0,0.0
352,72.0,0.0,120.0,0.0,0.0
353,74.0,0.0,240.0,0.0,0.0
354,71.0,192.0,240.0,0.0,0.0
355,38.0,48.0,180.0,1.0,0.0
356,26.0,0.0,180.0,1.0,0.0
357,69.0,192.0,240.0,0.0,0.0
358,50.0,0.0,180.0,1.0,0.0
359,72.0,0.0,240.0,0.0,0.0
360,55.0,48.0,180.0,1.0,0.0
361,31.0,48.0,180.0,1.0,0.0
362,43.0,0.0,180.0,1.0,0.0
363,71.0,120.0,240.0,0.0,0.0
364,67.0,0.0,15.0,0.0,0.0
365,34.0,48.0,180.0,1.0,0.0
366,62.0,72.0,120.0,0.0,0.0
367,46.0,0.0,180.0,1.0,0.0
368,69.0,120.0,120.0,0.0,0.0
369,66.0,0.0,120.0,0.0,0.0
370,55.0,0.0,180.0,1.0,0.0
371,62.0,72.0,120.0,0.0,0.0
372,67.0,0.0,120.0,0.0,0.0
373,50.0,48.0,180.0,1.0,0.0
374,66.0,0.0,120.0,0.0,0.0
375,69.0,120.0,120.0,0.0,0.0
376,67.0,0.0,120.0,0.0,0.0
377,43.0,48.0,180.0,1.0,0.0
378,31.0,0.0,180.0,1.0,0.0
379,70.0,72.0,120.0,0.0,0.0
380,69.0,0.0,120.0,0.0,0.0
381,72.0,192.0,120.0,0.0,0.0
382,26.0,48.0,180.0,1.0,0.0
383,74.0,192.0,240.0,0.0,0.0
384,70.0,0.0,240.0,0.0,0.0
385,38.0,0.0,180.0,1.0,0.0
386,50.0,48.0,180.0,1.0,0.0
387,55.0,0.0,180.0,1.0,0.0
388,72.0,192.0,240.0,0.0,0.0
389,69.0,0.0,240.0,0.0,0.0
390,43.0,0.0,180.0,1.0,0.0
391,70.0,120.0,240.0,0.0,0.0
392,67.0,0.0,240.0,0.0,0.0
393,31.0,48.0,180.0,1.0,0.0
394,46.0,0.0,180.0,1.0,0.0
395,68.0,0.0,120.0,0.0,0.0
396,65.0,72.0,120.0,0.0,0.0
397,34.0,48.0,180.0,1.0,0.0
398,67.0,120.0,120.0,0.0,0.0
399,70.0,0.0,120.0,0.0,0.0
400,46.0,0.0,180.0,1.0,0.0
401,56.0,48.0,180.0,1.0,0.0
402,68.0,72.0,120.0,0.0,0.0
403,65.0,0.0,120.0,0.0,0.0
404,70.0,120.0,120.0,0.0,0.0
405,67.0,0.0,120.0,0.0,0.0
406,68.0,72.0,120.0,0.0,0.0
407,72.0,0.0,120.0,0.0,0.0
408,53.0,0.0,180.0,1.0,0.0
409,46.0,48.0,180.0,1.0,0.0
410,70.0,192.0,120.0,0.0,0.0
411,74.0,0.0,120.0,0.0,0.0
412,72.0,192.0,240.0,0.0,0.0
413,32.0,48.0,180.0,1.0,0.0
414,75.0,0.0,240.0,0.0,0.0
415,56.0,0.0,180.0,1.0,0.0
416,44.0,48.0,180.0,1.0,0.0
417,72.0,0.0,240.0,0.0,0.0
418,48.0,0.0,180.0,1.0,0.0
419,44.0,0.0,180.0,1.0,0.0
420,68.0,192.0,15.0,0.0,0.0
421,65.0,20.0,180.0,0.0,0.0
422,67.0,20.0,20.0,0.0,0.0
423,68.0,20.0,20.0,0.0,0.0
424,70.0,180.0,20.0,0.0,0.0
425,34.0,48.0,180.0,1.0,0.0
426,60.0,192.0,240.0,0.0,0.0
427,68.0,0.0,240.0,0.0,0.0
428,46.0,48.0,180.0,1.0,0.0
429,50.0,0.0,180.0,1.0,0.0
430,67.0,192.0,240.0,0.0,0.0
431,58.0,0.0,240.0,0.0,0.0
432,50.0,0.0,180.0,1.0,0.0
433,65.0,0.0,240.0,0.0,0.0
434,56.0,192.0,240.0,0.0,0.0
435,46.0,48.0,180.0,1.0,0.0
436,39.0,0.0,180.0,1.0,0.0
437,27.0,240.0,180.0,1.0,0.0
438,63.0,52.0,480.0,0.0,0.0
439,55.0,0.0,480.0,0.0,0.0
440,46.0,0.0,180.0,1.0,0.0
441,51.0,48.0,180.0,1.0,0.0
