,note,step,duration,channel,velocity
0,72.0,35,90,0.0,64.0
1,72.0,15,30,0.0,64.0
2,74.0,10,30,0.0,64.0
3,76.0,30,30,0.0,64.0
4,77.0,50,60,0.0,64.0
5,41.0,0,90,4.0,64.0
6,65.0,50,30,0.0,64.0
7,62.0,15,90,3.0,64.0
8,53.0,0,90,3.0,64.0
9,58.0,0,90,3.0,64.0
10,70.0,50,30,0.0,64.0
11,74.0,85,30,0.0,64.0
12,72.0,0,60,0.0,64.0
13,41.0,100,90,4.0,64.0
14,69.0,30,60,1.0,64.0
15,60.0,10,60,3.0,64.0
16,57.0,0,60,3.0,64.0
17,53.0,0,60,3.0,64.0
18,72.0,40,90,0.0,64.0
19,69.0,0,90,1.0,64.0
20,69.0,0,30,1.0,64.0
21,72.0,10,30,0.0,64.0
22,74.0,0,30,0.0,64.0
23,70.0,10,30,1.0,64.0
24,76.0,60,30,0.0,64.0
25,72.0,0,30,1.0,64.0
26,34.0,0,90,4.0,64.0
27,46.0,80,90,4.0,64.0
28,74.0,20,90,1.0,64.0
29,77.0,0,90,0.0,64.0
30,76.0,180,60,0.0,64.0
31,58.0,0,240,3.0,64.0
32,72.0,0,60,1.0,64.0
33,74.0,0,210,0.0,64.0
34,70.0,50,210,1.0,64.0
35,53.0,0,15,3.0,64.0
36,58.0,0,90,3.0,64.0
37,62.0,80,15,3.0,64.0
38,72.0,60,30,0.0,64.0
39,69.0,0,60,1.0,64.0
40,77.0,30,60,0.0,64.0
41,41.0,260,90,4.0,64.0
42,57.0,60,240,3.0,64.0
43,53.0,0,240,3.0,64.0
44,69.0,0,240,1.0,64.0
45,60.0,0,240,3.0,64.0
46,72.0,0,240,0.0,64.0
47,57.0,35,90,3.0,64.0
48,53.0,0,90,3.0,64.0
49,72.0,20,60,0.0,64.0
50,72.0,15,30,0.0,64.0
51,74.0,10,30,0.0,64.0
52,76.0,30,30,0.0,64.0
53,77.0,50,60,0.0,64.0
54,41.0,50,90,4.0,64.0
55,60.0,0,30,0.0,64.0
56,53.0,0,90,3.0,64.0
57,57.0,15,90,3.0,64.0
58,65.0,50,30,0.0,64.0
59,48.0,0,90,3.0,64.0
60,70.0,85,30,0.0,64.0
61,69.0,30,60,0.0,64.0
62,41.0,100,90,4.0,64.0
63,53.0,0,60,3.0,64.0
64,48.0,10,60,3.0,64.0
65,65.0,40,90,0.0,64.0
66,57.0,0,60,3.0,64.0
67,65.0,10,30,0.0,64.0
68,67.0,10,30,0.0,64.0
69,69.0,60,30,0.0,64.0
70,70.0,0,90,0.0,64.0
71,36.0,0,90,4.0,64.0
72,48.0,80,90,4.0,64.0
73,67.0,20,90,1.0,64.0
74,58.0,0,240,3.0,64.0
75,69.0,180,60,0.0,64.0
76,65.0,0,60,1.0,64.0
77,60.0,0,210,1.0,64.0
78,67.0,0,210,0.0,64.0
79,52.0,110,90,3.0,64.0
80,48.0,80,15,3.0,64.0
81,69.0,30,60,0.0,64.0
82,41.0,220,90,4.0,64.0
83,65.0,0,60,1.0,64.0
84,65.0,40,210,0.0,64.0
85,48.0,0,240,3.0,64.0
86,57.0,60,15,3.0,64.0
87,53.0,0,90,3.0,64.0
88,72.0,20,60,0.0,64.0
89,72.0,15,30,0.0,64.0
90,74.0,10,30,0.0,64.0
91,76.0,30,30,0.0,64.0
92,41.0,50,90,4.0,64.0
93,77.0,50,60,0.0,64.0
94,65.0,0,30,0.0,64.0
95,62.0,0,90,3.0,64.0
96,70.0,50,30,0.0,64.0
97,58.0,15,90,3.0,64.0
98,53.0,0,90,3.0,64.0
99,74.0,85,30,0.0,64.0
100,72.0,0,60,0.0,64.0
101,41.0,100,90,4.0,64.0
102,69.0,30,60,1.0,64.0
103,69.0,0,90,1.0,64.0
104,72.0,40,90,0.0,64.0
105,53.0,10,60,3.0,64.0
106,57.0,0,60,3.0,64.0
107,60.0,0,60,3.0,64.0
108,72.0,0,30,0.0,64.0
109,69.0,10,30,1.0,64.0
110,70.0,0,30,1.0,64.0
111,74.0,10,30,0.0,64.0
112,72.0,0,30,1.0,64.0
113,76.0,60,30,0.0,64.0
114,46.0,80,90,4.0,64.0
115,77.0,0,90,0.0,64.0
116,34.0,0,90,4.0,64.0
117,74.0,20,90,1.0,64.0
118,72.0,180,60,1.0,64.0
119,76.0,0,60,0.0,64.0
120,58.0,0,240,3.0,64.0
121,70.0,0,210,1.0,64.0
122,74.0,50,210,0.0,64.0
123,53.0,80,15,3.0,64.0
124,58.0,0,90,3.0,64.0
125,62.0,0,15,3.0,64.0
126,72.0,60,30,0.0,64.0
127,41.0,260,90,4.0,64.0
128,77.0,0,60,0.0,64.0
129,69.0,30,60,1.0,64.0
130,69.0,0,240,1.0,64.0
131,60.0,0,240,3.0,64.0
132,57.0,0,240,3.0,64.0
133,57.0,0,90,3.0,64.0
134,53.0,0,15,3.0,64.0
135,72.0,60,15,0.0,64.0
136,72.0,15,30,0.0,64.0
137,74.0,10,30,0.0,64.0
138,76.0,30,30,0.0,64.0
139,41.0,50,90,4.0,64.0
140,77.0,50,60,0.0,64.0
141,60.0,0,30,0.0,64.0
142,65.0,50,30,0.0,64.0
143,48.0,15,90,3.0,64.0
144,53.0,0,90,3.0,64.0
145,57.0,0,90,3.0,64.0
146,70.0,85,30,0.0,64.0
147,69.0,30,60,0.0,64.0
148,41.0,100,90,4.0,64.0
149,48.0,10,60,3.0,64.0
150,53.0,0,60,3.0,64.0
151,57.0,0,60,3.0,64.0
152,65.0,40,90,0.0,64.0
153,65.0,10,30,0.0,64.0
154,67.0,10,30,0.0,64.0
155,69.0,60,30,0.0,64.0
156,67.0,20,90,1.0,64.0
157,48.0,0,90,4.0,64.0
158,36.0,80,90,4.0,64.0
159,70.0,0,90,0.0,64.0
160,69.0,180,60,0.0,64.0
161,58.0,80,240,3.0,64.0
162,65.0,0,60,1.0,64.0
163,60.0,0,210,1.0,64.0
164,67.0,0,210,0.0,64.0
165,48.0,0,15,3.0,64.0
166,52.0,0,90,3.0,64.0
167,41.0,220,90,4.0,64.0
168,65.0,30,60,1.0,64.0
169,69.0,0,60,0.0,64.0
170,48.0,0,240,3.0,64.0
171,65.0,40,210,0.0,64.0
172,57.0,100,15,3.0,64.0
173,45.0,10,60,4.0,64.0
174,62.0,40,30,3.0,64.0
175,38.0,0,60,4.0,64.0
176,53.0,0,30,3.0,64.0
177,57.0,0,20,3.0,64.0
178,64.0,110,20,3.0,64.0
179,62.0,170,60,3.0,64.0
180,45.0,30,240,4.0,64.0
181,65.0,0,60,3.0,64.0
182,57.0,0,30,3.0,64.0
183,64.0,30,30,3.0,64.0
184,38.0,0,15,4.0,64.0
185,45.0,0,60,4.0,64.0
186,65.0,0,20,3.0,64.0
187,64.0,110,20,3.0,64.0
188,64.0,130,90,3.0,64.0
189,45.0,10,60,4.0,64.0
190,38.0,0,60,4.0,64.0
191,67.0,0,90,3.0,64.0
192,38.0,0,240,4.0,64.0
193,45.0,60,240,4.0,64.0
194,62.0,100,30,3.0,64.0
195,65.0,0,30,3.0,64.0
196,62.0,30,60,3.0,64.0
197,65.0,0,60,3.0,64.0
198,64.0,0,30,3.0,64.0
199,61.0,20,30,3.0,64.0
200,45.0,10,60,4.0,64.0
201,38.0,0,60,4.0,64.0
202,64.0,40,60,3.0,64.0
203,61.0,0,60,3.0,64.0
204,62.0,80,60,3.0,64.0
205,59.0,0,60,3.0,64.0
206,38.0,0,60,4.0,64.0
207,45.0,180,60,4.0,64.0
208,64.0,90,240,3.0,64.0
209,61.0,0,240,3.0,64.0
210,46.0,70,240,4.0,64.0
211,38.0,0,240,4.0,64.0
212,69.0,20,90,3.0,64.0
213,45.0,0,240,4.0,64.0
214,38.0,70,240,4.0,64.0
215,57.0,80,60,3.0,64.0
216,53.0,50,30,3.0,64.0
217,62.0,0,30,3.0,64.0
218,64.0,40,20,3.0,64.0
219,57.0,0,20,3.0,64.0
220,44.0,30,240,4.0,64.0
221,38.0,0,240,4.0,64.0
222,65.0,0,60,3.0,64.0
223,62.0,170,60,3.0,64.0
224,64.0,0,30,3.0,64.0
225,57.0,50,30,3.0,64.0
226,64.0,0,20,3.0,64.0
227,65.0,120,20,3.0,64.0
228,67.0,0,90,3.0,64.0
229,64.0,40,90,3.0,64.0
230,38.0,0,15,4.0,64.0
231,45.0,90,15,4.0,64.0
232,62.0,0,30,3.0,64.0
233,65.0,100,30,3.0,64.0
234,65.0,30,60,3.0,64.0
235,62.0,0,60,3.0,64.0
236,64.0,20,30,3.0,64.0
237,61.0,0,30,3.0,64.0
238,38.0,120,240,4.0,64.0
239,45.0,0,240,4.0,64.0
240,64.0,40,60,3.0,64.0
241,61.0,0,60,3.0,64.0
242,57.0,130,60,3.0,64.0
243,62.0,100,240,3.0,64.0
244,53.0,0,240,3.0,64.0
245,38.0,70,240,4.0,64.0
246,62.0,0,90,3.0,64.0
247,53.0,20,90,3.0,64.0
248,69.0,50,90,0.0,64.0
249,45.0,0,15,4.0,64.0
250,57.0,10,60,3.0,64.0
251,38.0,0,60,4.0,64.0
252,65.0,0,30,1.0,64.0
253,74.0,0,30,0.0,64.0
254,45.0,10,60,4.0,64.0
255,62.0,0,30,3.0,64.0
256,53.0,40,30,3.0,64.0
257,76.0,110,20,0.0,64.0
258,57.0,0,20,3.0,64.0
259,64.0,0,20,3.0,64.0
260,69.0,0,20,1.0,64.0
261,74.0,0,60,1.0,64.0
262,38.0,0,240,4.0,64.0
263,45.0,30,240,4.0,64.0
264,62.0,0,60,3.0,64.0
265,65.0,170,60,3.0,64.0
266,77.0,0,60,0.0,64.0
267,64.0,0,30,3.0,64.0
268,57.0,30,30,3.0,64.0
269,76.0,0,30,0.0,64.0
270,73.0,0,30,1.0,64.0
271,45.0,20,60,4.0,64.0
272,38.0,0,60,4.0,64.0
273,77.0,110,20,0.0,64.0
274,74.0,0,20,1.0,64.0
275,65.0,0,20,3.0,64.0
276,64.0,0,20,3.0,64.0
277,45.0,10,60,4.0,64.0
278,79.0,0,90,0.0,64.0
279,76.0,130,90,1.0,64.0
280,38.0,0,60,4.0,64.0
281,64.0,0,90,3.0,64.0
282,67.0,0,90,3.0,64.0
283,45.0,60,240,4.0,64.0
284,65.0,0,30,3.0,64.0
285,62.0,0,30,3.0,64.0
286,77.0,0,30,0.0,64.0
287,74.0,100,30,1.0,64.0
288,74.0,30,60,1.0,64.0
289,77.0,0,60,0.0,64.0
290,62.0,0,60,3.0,64.0
291,65.0,0,60,3.0,64.0
292,64.0,0,30,3.0,64.0
293,61.0,0,30,3.0,64.0
294,76.0,0,30,0.0,64.0
295,73.0,20,30,1.0,64.0
296,76.0,40,60,0.0,64.0
297,38.0,0,15,4.0,64.0
298,73.0,0,60,1.0,64.0
299,61.0,0,60,3.0,64.0
300,45.0,0,60,4.0,64.0
301,64.0,0,60,3.0,64.0
302,74.0,80,60,0.0,64.0
303,59.0,0,60,3.0,64.0
304,62.0,0,60,3.0,64.0
305,71.0,0,60,1.0,64.0
306,61.0,0,240,3.0,64.0
307,64.0,90,240,3.0,64.0
308,73.0,10,240,1.0,64.0
309,45.0,170,60,4.0,64.0
310,76.0,0,240,0.0,64.0
311,38.0,0,60,4.0,64.0
312,46.0,70,240,4.0,64.0
313,69.0,20,90,3.0,64.0
314,81.0,0,90,0.0,64.0
315,38.0,0,15,4.0,64.0
316,45.0,0,240,4.0,64.0
317,69.0,0,60,0.0,64.0
318,57.0,80,60,3.0,64.0
319,74.0,0,30,0.0,64.0
320,65.0,0,30,1.0,64.0
321,53.0,0,30,3.0,64.0
322,62.0,50,30,3.0,64.0
323,69.0,0,20,1.0,64.0
324,64.0,40,20,3.0,64.0
325,76.0,0,20,0.0,64.0
326,57.0,0,20,3.0,64.0
327,74.0,170,60,1.0,64.0
328,65.0,0,60,3.0,64.0
329,44.0,30,240,4.0,64.0
330,38.0,0,240,4.0,64.0
331,62.0,0,60,3.0,64.0
332,77.0,0,60,0.0,64.0
333,57.0,0,30,3.0,64.0
334,64.0,0,30,3.0,64.0
335,38.0,90,240,4.0,64.0
336,45.0,0,240,4.0,64.0
337,76.0,50,30,0.0,64.0
338,73.0,0,30,1.0,64.0
339,74.0,0,20,1.0,64.0
340,77.0,120,20,0.0,64.0
341,65.0,0,20,3.0,64.0
342,64.0,0,20,3.0,64.0
343,79.0,0,90,0.0,64.0
344,76.0,0,90,1.0,64.0
345,64.0,40,90,3.0,64.0
346,67.0,0,90,3.0,64.0
347,74.0,0,30,1.0,64.0
348,77.0,0,30,0.0,64.0
349,62.0,0,30,3.0,64.0
350,65.0,100,30,3.0,64.0
351,62.0,0,60,3.0,64.0
352,77.0,0,60,0.0,64.0
353,74.0,30,60,1.0,64.0
354,65.0,0,60,3.0,64.0
355,76.0,20,30,0.0,64.0
356,64.0,0,30,3.0,64.0
357,61.0,0,30,3.0,64.0
358,73.0,0,30,1.0,64.0
359,73.0,190,120,1.0,64.0
360,45.0,0,15,4.0,64.0
361,64.0,0,60,3.0,64.0
362,76.0,10,60,0.0,64.0
363,38.0,70,15,4.0,64.0
364,61.0,0,60,3.0,64.0
365,57.0,20,60,3.0,64.0
366,69.0,0,60,0.0,64.0
367,74.0,190,240,0.0,64.0
368,45.0,50,210,4.0,64.0
369,53.0,0,210,3.0,64.0
370,62.0,0,210,3.0,64.0
371,38.0,0,210,4.0,64.0
372,48.0,0,240,4.0,64.0
373,72.0,35,210,0.0,64.0
374,58.0,0,240,3.0,64.0
375,60.0,0,240,3.0,64.0
376,55.0,0,240,3.0,64.0
377,40.0,10,240,4.0,64.0
378,72.0,15,30,0.0,64.0
379,74.0,0,30,0.0,64.0
380,76.0,30,30,0.0,64.0
381,77.0,50,60,0.0,64.0
382,41.0,0,90,4.0,64.0
383,65.0,50,30,0.0,64.0
384,53.0,0,90,3.0,64.0
385,58.0,15,90,3.0,64.0
386,62.0,0,90,3.0,64.0
387,70.0,50,30,0.0,64.0
388,74.0,85,30,0.0,64.0
389,72.0,0,60,0.0,64.0
390,41.0,100,90,4.0,64.0
391,69.0,30,60,1.0,64.0
392,72.0,40,90,0.0,64.0
393,53.0,0,60,3.0,64.0
394,69.0,0,90,1.0,64.0
395,57.0,10,60,3.0,64.0
396,60.0,0,60,3.0,64.0
397,72.0,10,30,0.0,64.0
398,69.0,0,30,1.0,64.0
399,70.0,10,30,1.0,64.0
400,74.0,0,30,0.0,64.0
401,72.0,60,30,1.0,64.0
402,76.0,0,30,0.0,64.0
403,74.0,20,90,1.0,64.0
404,46.0,0,90,4.0,64.0
405,34.0,80,90,4.0,64.0
406,77.0,0,90,0.0,64.0
407,76.0,180,60,0.0,64.0
408,72.0,0,60,1.0,64.0
409,58.0,0,240,3.0,64.0
410,62.0,0,240,3.0,64.0
411,70.0,50,210,1.0,64.0
412,74.0,0,210,0.0,64.0
413,62.0,0,90,3.0,64.0
414,58.0,0,90,3.0,64.0
415,53.0,80,15,3.0,64.0
416,72.0,60,30,0.0,64.0
417,69.0,0,60,1.0,64.0
418,41.0,260,90,4.0,64.0
419,77.0,30,60,0.0,64.0
420,69.0,0,240,1.0,64.0
421,72.0,60,240,0.0,64.0
422,60.0,0,240,3.0,64.0
423,53.0,0,15,3.0,64.0
424,57.0,0,15,3.0,64.0
425,72.0,20,60,0.0,64.0
426,72.0,15,30,0.0,64.0
427,74.0,10,30,0.0,64.0
428,76.0,30,30,0.0,64.0
429,41.0,50,90,4.0,64.0
430,77.0,50,60,0.0,64.0
431,60.0,0,30,0.0,64.0
432,57.0,0,90,3.0,64.0
433,53.0,0,90,3.0,64.0
434,48.0,15,90,3.0,64.0
435,65.0,50,30,0.0,64.0
436,70.0,85,30,0.0,64.0
437,41.0,100,90,4.0,64.0
438,69.0,30,60,0.0,64.0
439,57.0,10,60,3.0,64.0
440,53.0,0,60,3.0,64.0
441,65.0,40,90,0.0,64.0
442,48.0,0,60,3.0,64.0
443,65.0,10,30,0.0,64.0
444,67.0,10,30,0.0,64.0
445,69.0,60,30,0.0,64.0
446,70.0,20,90,0.0,64.0
447,67.0,0,90,1.0,64.0
448,48.0,0,90,4.0,64.0
449,36.0,80,90,4.0,64.0
450,48.0,0,240,3.0,64.0
451,58.0,80,240,3.0,64.0
452,69.0,0,60,0.0,64.0
453,65.0,180,60,1.0,64.0
454,60.0,0,210,1.0,64.0
455,67.0,0,210,0.0,64.0
456,52.0,0,90,3.0,64.0
457,48.0,110,90,3.0,64.0
458,65.0,0,60,1.0,64.0
459,69.0,30,60,0.0,64.0
460,41.0,220,90,4.0,64.0
461,48.0,0,240,3.0,64.0
462,57.0,60,240,3.0,64.0
463,65.0,40,210,0.0,64.0
464,72.0,20,60,0.0,64.0
465,57.0,35,90,3.0,64.0
466,53.0,0,90,3.0,64.0
467,72.0,15,30,0.0,64.0
468,74.0,10,30,0.0,64.0
469,76.0,30,30,0.0,64.0
470,77.0,50,60,0.0,64.0
471,41.0,0,90,4.0,64.0
472,65.0,50,30,0.0,64.0
473,53.0,0,90,3.0,64.0
474,58.0,15,90,3.0,64.0
475,62.0,0,90,3.0,64.0
476,70.0,50,30,0.0,64.0
477,74.0,85,30,0.0,64.0
478,69.0,0,60,1.0,64.0
479,41.0,100,90,4.0,64.0
480,72.0,30,60,0.0,64.0
481,69.0,40,90,1.0,64.0
482,60.0,0,60,3.0,64.0
483,57.0,0,60,3.0,64.0
484,53.0,10,60,3.0,64.0
485,72.0,0,90,0.0,64.0
486,72.0,10,30,0.0,64.0
487,69.0,0,30,1.0,64.0
488,70.0,0,30,1.0,64.0
489,74.0,10,30,0.0,64.0
490,72.0,0,30,1.0,64.0
491,76.0,60,30,0.0,64.0
492,46.0,0,90,4.0,64.0
493,34.0,80,90,4.0,64.0
494,77.0,0,90,0.0,64.0
495,74.0,20,90,1.0,64.0
496,58.0,0,240,3.0,64.0
497,76.0,0,60,0.0,64.0
498,72.0,180,60,1.0,64.0
499,70.0,50,210,1.0,64.0
500,74.0,0,210,0.0,64.0
501,62.0,0,15,3.0,64.0
502,58.0,0,90,3.0,64.0
503,53.0,80,15,3.0,64.0
504,72.0,60,30,0.0,64.0
505,41.0,260,90,4.0,64.0
506,69.0,0,60,1.0,64.0
507,77.0,30,60,0.0,64.0
508,69.0,0,240,1.0,64.0
509,60.0,0,240,3.0,64.0
510,57.0,0,240,3.0,64.0
511,53.0,0,240,3.0,64.0
512,72.0,60,15,0.0,64.0
513,53.0,0,90,3.0,64.0
514,57.0,35,90,3.0,64.0
515,72.0,15,30,0.0,64.0
516,74.0,10,30,0.0,64.0
517,76.0,30,30,0.0,64.0
518,77.0,50,60,0.0,64.0
519,41.0,50,90,4.0,64.0
520,60.0,0,30,0.0,64.0
521,65.0,50,30,0.0,64.0
522,57.0,15,90,3.0,64.0
523,48.0,0,90,3.0,64.0
524,53.0,0,90,3.0,64.0
525,70.0,85,30,0.0,64.0
526,41.0,100,90,4.0,64.0
527,69.0,30,60,0.0,64.0
528,48.0,0,60,3.0,64.0
529,53.0,0,60,3.0,64.0
530,65.0,40,90,0.0,64.0
531,57.0,10,60,3.0,64.0
532,65.0,10,30,0.0,64.0
533,67.0,10,30,0.0,64.0
534,69.0,60,30,0.0,64.0
535,48.0,0,90,4.0,64.0
536,67.0,20,90,1.0,64.0
537,36.0,80,90,4.0,64.0
538,70.0,0,90,0.0,64.0
539,58.0,0,240,3.0,64.0
540,65.0,180,60,1.0,64.0
541,69.0,0,60,0.0,64.0
542,67.0,110,210,0.0,64.0
543,60.0,0,210,1.0,64.0
544,52.0,0,90,3.0,64.0
545,48.0,80,15,3.0,64.0
546,69.0,0,60,0.0,64.0
547,41.0,220,90,4.0,64.0
548,65.0,30,60,1.0,64.0
549,57.0,100,240,3.0,64.0
550,65.0,40,210,0.0,64.0
551,53.0,0,240,3.0,64.0
552,45.0,0,90,3.0,64.0
553,33.0,50,90,4.0,64.0
554,62.0,0,30,1.0,64.0
555,45.0,0,30,4.0,64.0
556,38.0,0,30,4.0,64.0
557,50.0,50,30,3.0,64.0
558,57.0,0,30,3.0,64.0
559,64.0,0,20,1.0,64.0
560,45.0,110,20,4.0,64.0
561,52.0,0,20,3.0,64.0
562,57.0,0,20,3.0,64.0
563,40.0,0,20,4.0,64.0
564,45.0,0,60,4.0,64.0
565,41.0,0,60,4.0,64.0
566,65.0,0,60,1.0,64.0
567,57.0,200,60,3.0,64.0
568,53.0,0,60,3.0,64.0
569,57.0,0,30,3.0,64.0
570,52.0,0,30,3.0,64.0
571,64.0,0,30,1.0,64.0
572,45.0,50,30,4.0,64.0
573,40.0,0,30,4.0,64.0
574,57.0,110,30,3.0,64.0
575,53.0,0,20,3.0,64.0
576,41.0,10,20,4.0,64.0
577,65.0,0,20,1.0,64.0
578,45.0,0,30,4.0,64.0
579,45.0,0,90,4.0,64.0
580,67.0,0,90,1.0,64.0
581,55.0,130,90,3.0,64.0
582,43.0,0,90,4.0,64.0
583,57.0,0,90,3.0,64.0
584,65.0,0,30,1.0,64.0
585,53.0,0,30,3.0,64.0
586,57.0,0,30,3.0,64.0
587,45.0,100,30,4.0,64.0
588,41.0,0,30,4.0,64.0
589,45.0,30,60,4.0,64.0
590,53.0,0,60,3.0,64.0
591,57.0,0,60,3.0,64.0
592,41.0,0,60,4.0,64.0
593,65.0,0,60,1.0,64.0
594,52.0,90,30,3.0,64.0
595,64.0,0,30,1.0,64.0
596,40.0,0,30,4.0,64.0
597,57.0,0,60,3.0,64.0
598,64.0,0,60,1.0,64.0
599,52.0,0,60,3.0,64.0
600,40.0,40,60,4.0,64.0
601,45.0,0,60,4.0,64.0
602,50.0,0,60,3.0,64.0
603,62.0,60,60,1.0,64.0
604,38.0,0,60,4.0,64.0
605,52.0,0,240,3.0,64.0
606,64.0,80,60,1.0,64.0
607,40.0,60,240,4.0,64.0
608,57.0,10,240,3.0,64.0
609,70.0,60,60,1.0,64.0
610,82.0,0,60,0.0,64.0
611,81.0,50,60,0.0,64.0
612,69.0,0,60,1.0,64.0
613,68.0,0,60,1.0,64.0
614,80.0,0,60,0.0,64.0
615,81.0,30,60,0.0,64.0
616,45.0,0,15,4.0,64.0
617,57.0,0,90,3.0,64.0
618,69.0,0,60,1.0,64.0
619,79.0,0,60,0.0,64.0
620,67.0,60,60,1.0,64.0
621,77.0,0,60,0.0,64.0
622,33.0,0,60,4.0,64.0
623,45.0,40,60,3.0,64.0
624,65.0,0,60,1.0,64.0
625,64.0,40,60,1.0,64.0
626,76.0,0,60,0.0,64.0
627,57.0,0,30,3.0,64.0
628,38.0,0,30,4.0,64.0
629,62.0,50,30,1.0,64.0
630,50.0,0,30,3.0,64.0
631,74.0,70,120,0.0,64.0
632,45.0,0,30,4.0,64.0
633,40.0,0,20,4.0,64.0
634,52.0,0,20,3.0,64.0
635,57.0,0,20,3.0,64.0
636,64.0,40,20,1.0,64.0
637,45.0,0,20,4.0,64.0
638,41.0,200,60,4.0,64.0
639,45.0,0,60,4.0,64.0
640,57.0,0,60,3.0,64.0
641,65.0,0,60,1.0,64.0
642,53.0,0,60,3.0,64.0
643,40.0,0,30,4.0,64.0
644,45.0,0,30,4.0,64.0
645,64.0,0,30,1.0,64.0
646,57.0,0,30,3.0,64.0
647,52.0,50,30,3.0,64.0
648,45.0,0,20,4.0,64.0
649,41.0,0,20,4.0,64.0
650,57.0,0,20,3.0,64.0
651,53.0,0,20,3.0,64.0
652,65.0,120,20,1.0,64.0
653,45.0,130,90,4.0,64.0
654,43.0,0,90,4.0,64.0
655,55.0,0,90,3.0,64.0
656,57.0,0,90,3.0,64.0
657,67.0,0,90,1.0,64.0
658,41.0,60,30,4.0,64.0
659,65.0,0,30,1.0,64.0
660,57.0,0,30,3.0,64.0
661,53.0,0,30,3.0,64.0
662,45.0,0,30,4.0,64.0
663,53.0,0,60,3.0,64.0
664,65.0,0,60,1.0,64.0
665,57.0,0,30,3.0,64.0
666,41.0,30,60,4.0,64.0
667,45.0,40,30,4.0,64.0
668,64.0,0,30,1.0,64.0
669,52.0,90,30,3.0,64.0
670,40.0,0,30,4.0,64.0
671,57.0,0,60,3.0,64.0
672,52.0,0,60,3.0,64.0
673,64.0,40,60,1.0,64.0
674,45.0,0,60,4.0,64.0
675,40.0,0,60,4.0,64.0
676,57.0,0,60,1.0,64.0
677,33.0,0,60,4.0,64.0
678,45.0,80,60,3.0,64.0
679,62.0,60,60,1.0,64.0
680,58.0,0,60,1.0,64.0
681,70.0,60,60,0.0,64.0
682,57.0,50,60,1.0,64.0
683,69.0,0,60,0.0,64.0
684,56.0,60,60,1.0,64.0
685,68.0,0,60,0.0,64.0
686,57.0,0,60,1.0,64.0
687,69.0,30,60,0.0,64.0
688,50.0,0,15,3.0,64.0
689,38.0,10,15,4.0,64.0
690,59.0,60,60,1.0,64.0
691,71.0,0,60,0.0,64.0
692,45.0,40,60,3.0,64.0
693,33.0,0,60,4.0,64.0
694,73.0,0,60,0.0,64.0
695,61.0,0,60,1.0,64.0
696,74.0,40,60,0.0,64.0
697,62.0,0,60,1.0,64.0
698,62.0,0,30,1.0,64.0
699,45.0,0,30,4.0,64.0
700,38.0,0,30,4.0,64.0
701,50.0,50,30,3.0,64.0
702,57.0,0,30,3.0,64.0
703,45.0,0,20,4.0,64.0
704,57.0,0,20,3.0,64.0
705,40.0,0,20,4.0,64.0
706,52.0,0,20,3.0,64.0
707,64.0,110,20,1.0,64.0
708,53.0,0,60,3.0,64.0
709,41.0,200,60,4.0,64.0
710,45.0,0,60,4.0,64.0
711,65.0,0,60,1.0,64.0
712,57.0,0,60,3.0,64.0
713,64.0,0,30,1.0,64.0
714,57.0,0,30,3.0,64.0
715,52.0,0,30,3.0,64.0
716,40.0,50,30,4.0,64.0
717,45.0,0,30,4.0,64.0
718,45.0,110,30,4.0,64.0
719,41.0,0,20,4.0,64.0
720,57.0,0,30,3.0,64.0
721,53.0,0,20,3.0,64.0
722,65.0,10,20,1.0,64.0
723,67.0,0,90,1.0,64.0
724,55.0,0,90,3.0,64.0
725,57.0,0,90,3.0,64.0
726,45.0,0,90,4.0,64.0
727,43.0,130,90,4.0,64.0
728,41.0,0,30,4.0,64.0
729,65.0,0,30,1.0,64.0
730,57.0,100,30,3.0,64.0
731,53.0,0,30,3.0,64.0
732,45.0,0,30,4.0,64.0
733,45.0,30,60,4.0,64.0
734,57.0,0,60,3.0,64.0
735,65.0,0,60,1.0,64.0
736,53.0,0,60,3.0,64.0
737,41.0,0,60,4.0,64.0
738,52.0,0,30,3.0,64.0
739,64.0,0,30,1.0,64.0
740,40.0,90,30,4.0,64.0
741,57.0,0,60,3.0,64.0
742,40.0,0,60,4.0,64.0
743,52.0,0,60,3.0,64.0
744,64.0,0,60,1.0,64.0
745,45.0,40,60,4.0,64.0
746,50.0,0,60,3.0,64.0
747,62.0,0,60,1.0,64.0
748,38.0,60,60,4.0,64.0
749,64.0,80,60,1.0,64.0
750,40.0,0,240,4.0,64.0
751,52.0,0,240,3.0,64.0
752,82.0,60,60,0.0,64.0
753,70.0,0,60,1.0,64.0
754,69.0,50,60,1.0,64.0
755,81.0,0,60,0.0,64.0
756,80.0,60,60,0.0,64.0
757,68.0,0,60,1.0,64.0
758,57.0,10,15,3.0,64.0
759,69.0,30,60,1.0,64.0
760,45.0,0,15,4.0,64.0
761,81.0,0,60,0.0,64.0
762,79.0,0,60,0.0,64.0
763,67.0,60,60,1.0,64.0
764,77.0,0,60,0.0,64.0
765,45.0,0,60,3.0,64.0
766,65.0,40,60,1.0,64.0
767,33.0,0,60,4.0,64.0
768,64.0,20,60,1.0,64.0
769,76.0,20,60,0.0,64.0
770,45.0,0,30,4.0,64.0
771,57.0,50,30,3.0,64.0
772,38.0,0,30,4.0,64.0
773,50.0,0,30,3.0,64.0
774,62.0,0,30,1.0,64.0
775,74.0,70,120,0.0,64.0
776,57.0,0,20,3.0,64.0
777,40.0,40,20,4.0,64.0
778,64.0,0,20,1.0,64.0
779,52.0,0,20,3.0,64.0
780,45.0,0,20,4.0,64.0
781,57.0,0,60,3.0,64.0
782,53.0,0,60,3.0,64.0
783,41.0,200,60,4.0,64.0
784,65.0,0,60,1.0,64.0
785,45.0,0,60,4.0,64.0
786,57.0,0,30,3.0,64.0
787,64.0,50,30,1.0,64.0
788,52.0,0,30,3.0,64.0
789,40.0,0,30,4.0,64.0
790,45.0,0,30,4.0,64.0
791,45.0,0,20,4.0,64.0
792,41.0,120,20,4.0,64.0
793,53.0,0,20,3.0,64.0
794,57.0,0,20,3.0,64.0
795,65.0,0,20,1.0,64.0
796,45.0,0,90,4.0,64.0
797,43.0,0,90,4.0,64.0
798,57.0,0,90,3.0,64.0
799,55.0,130,90,3.0,64.0
800,67.0,0,90,1.0,64.0
801,53.0,0,30,3.0,64.0
802,57.0,60,30,3.0,64.0
803,45.0,0,30,4.0,64.0
804,65.0,0,30,1.0,64.0
805,41.0,0,30,4.0,64.0
806,65.0,0,60,1.0,64.0
807,53.0,30,60,3.0,64.0
808,57.0,0,30,3.0,64.0
809,45.0,40,30,4.0,64.0
810,41.0,0,60,4.0,64.0
811,40.0,90,30,4.0,64.0
812,52.0,0,30,3.0,64.0
813,64.0,0,30,1.0,64.0
814,57.0,0,60,3.0,64.0
815,52.0,0,60,3.0,64.0
816,64.0,40,60,1.0,64.0
817,40.0,0,60,4.0,64.0
818,45.0,0,60,4.0,64.0
819,45.0,80,60,3.0,64.0
820,57.0,0,60,1.0,64.0
821,33.0,0,60,4.0,64.0
822,62.0,60,60,1.0,64.0
823,38.0,0,240,4.0,64.0
824,50.0,10,240,3.0,64.0
825,58.0,60,60,1.0,64.0
826,70.0,0,60,0.0,64.0
827,57.0,0,60,1.0,64.0
828,69.0,50,60,0.0,64.0
829,56.0,60,60,1.0,64.0
830,68.0,0,60,0.0,64.0
831,69.0,60,60,0.0,64.0
832,33.0,0,210,4.0,64.0
833,45.0,30,210,3.0,64.0
834,57.0,0,60,1.0,64.0
835,61.0,60,60,1.0,64.0
836,73.0,0,60,0.0,64.0
837,76.0,0,60,0.0,64.0
838,64.0,10,60,1.0,64.0
839,69.0,200,60,1.0,64.0
840,81.0,0,60,0.0,64.0
841,62.0,0,60,3.0,64.0
842,57.0,0,60,3.0,64.0
843,38.0,250,60,4.0,64.0
844,26.0,0,60,4.0,64.0
845,54.0,0,60,3.0,64.0
846,98.0,0,60,0.0,64.0
847,74.0,0,60,1.0,64.0
848,78.0,0,60,1.0,64.0
849,81.0,0,60,1.0,64.0
850,86.0,0,60,0.0,64.0
851,90.0,0,60,0.0,64.0
852,38.0,0,210,4.0,64.0
853,62.0,0,210,3.0,64.0
854,86.0,0,210,0.0,64.0
855,90.0,0,210,0.0,64.0
856,93.0,0,210,0.0,64.0
857,69.0,0,210,3.0,64.0
858,66.0,0,210,3.0,64.0
859,50.0,0,210,4.0,64.0
860,81.0,100,210,1.0,64.0
861,78.0,0,210,1.0,64.0
862,74.0,0,210,1.0,64.0
863,67.0,0,60,3.0,64.0
864,79.0,0,60,1.0,64.0
865,86.0,0,60,0.0,64.0
866,91.0,0,60,0.0,64.0
867,95.0,0,60,0.0,64.0
868,74.0,0,60,1.0,64.0
869,31.0,0,60,4.0,64.0
870,71.0,0,60,3.0,64.0
871,43.0,0,60,4.0,64.0
872,62.0,0,60,3.0,64.0
873,83.0,260,60,1.0,64.0
874,90.0,0,210,0.0,64.0
875,69.0,0,210,3.0,64.0
876,78.0,0,210,1.0,64.0
877,38.0,0,210,4.0,64.0
878,50.0,0,210,4.0,64.0
879,81.0,0,210,1.0,64.0
880,86.0,0,210,0.0,64.0
881,66.0,0,210,3.0,64.0
882,74.0,240,210,1.0,64.0
883,93.0,0,210,0.0,64.0
884,62.0,0,210,3.0,64.0
885,79.0,0,210,1.0,64.0
886,74.0,0,210,1.0,64.0
887,31.0,0,210,4.0,64.0
888,43.0,0,210,4.0,64.0
889,95.0,0,210,0.0,64.0
890,91.0,0,210,0.0,64.0
891,83.0,0,210,1.0,64.0
892,62.0,0,210,3.0,64.0
893,67.0,0,210,3.0,64.0
894,71.0,440,210,3.0,64.0
895,86.0,0,210,0.0,64.0
896,38.0,0,450,4.0,64.0
897,90.0,20,450,0.0,64.0
898,50.0,25,450,4.0,64.0
899,93.0,30,390,0.0,64.0
900,86.0,0,450,0.0,64.0
901,81.0,0,390,1.0,64.0
902,74.0,0,450,1.0,64.0
903,78.0,0,450,1.0,64.0
904,62.0,0,450,3.0,64.0
905,69.0,0,450,3.0,64.0
906,66.0,0,450,3.0,64.0
907,93.0,0,30,0.0,64.0
908,81.0,10,30,1.0,64.0
909,95.0,0,30,0.0,64.0
910,83.0,0,30,1.0,64.0
911,85.0,0,30,1.0,64.0
912,97.0,65,30,0.0,64.0
913,66.0,0,60,3.0,64.0
914,98.0,0,60,0.0,64.0
915,90.0,0,60,0.0,64.0
916,26.0,0,60,4.0,64.0
917,38.0,250,60,4.0,64.0
918,57.0,0,60,3.0,64.0
919,86.0,0,60,1.0,64.0
920,78.0,0,60,1.0,64.0
921,62.0,0,60,3.0,64.0
922,93.0,0,210,0.0,64.0
923,69.0,0,210,3.0,64.0
924,66.0,0,210,3.0,64.0
925,62.0,0,210,3.0,64.0
926,86.0,0,210,0.0,64.0
927,90.0,0,210,0.0,64.0
928,38.0,0,210,4.0,64.0
929,50.0,100,210,4.0,64.0
930,81.0,0,210,1.0,64.0
931,78.0,0,210,1.0,64.0
932,74.0,0,210,1.0,64.0
933,43.0,0,60,4.0,64.0
934,31.0,0,60,4.0,64.0
935,67.0,260,60,3.0,64.0
936,71.0,0,60,3.0,64.0
937,74.0,0,60,1.0,64.0
938,83.0,0,60,1.0,64.0
939,62.0,0,60,3.0,64.0
940,79.0,0,60,1.0,64.0
941,95.0,0,60,0.0,64.0
942,91.0,0,60,0.0,64.0
943,86.0,0,60,0.0,64.0
944,69.0,0,210,3.0,64.0
945,62.0,0,210,3.0,64.0
946,74.0,0,210,1.0,64.0
947,78.0,240,210,1.0,64.0
948,81.0,0,210,1.0,64.0
949,50.0,0,210,4.0,64.0
950,86.0,0,210,0.0,64.0
951,90.0,0,210,0.0,64.0
952,93.0,0,210,0.0,64.0
953,66.0,0,210,3.0,64.0
954,38.0,0,210,4.0,64.0
955,57.0,0,210,3.0,64.0
956,67.0,0,210,3.0,64.0
957,79.0,0,210,1.0,64.0
958,64.0,0,210,3.0,64.0
959,76.0,0,210,1.0,64.0
960,73.0,0,210,1.0,64.0
961,33.0,0,210,4.0,64.0
962,45.0,0,210,4.0,64.0
963,85.0,0,210,0.0,64.0
964,88.0,0,210,0.0,64.0
965,91.0,0,210,0.0,64.0
966,61.0,30,210,3.0,64.0
967,86.0,0,20,0.0,64.0
968,90.0,0,20,0.0,64.0
969,81.0,0,20,0.0,64.0
970,74.0,70,20,1.0,64.0
971,69.0,0,20,1.0,64.0
972,78.0,0,20,1.0,64.0
973,78.0,0,210,1.0,64.0
974,74.0,0,210,1.0,64.0
975,66.0,0,450,3.0,64.0
976,62.0,30,450,3.0,64.0
977,57.0,0,450,3.0,64.0
978,38.0,25,60,4.0,64.0
979,81.0,0,210,0.0,64.0
980,86.0,10,210,0.0,64.0
981,90.0,0,210,0.0,64.0
982,69.0,0,210,1.0,64.0
983,45.0,25,30,4.0,64.0
984,38.0,20,30,4.0,64.0
985,45.0,25,30,4.0,64.0
986,38.0,25,30,4.0,64.0
987,45.0,20,30,4.0,64.0
988,38.0,90,30,4.0,64.0
989,45.0,5,240,4.0,64.0
990,74.0,30,60,0.0,64.0
991,38.0,0,210,4.0,64.0
992,78.0,40,30,0.0,64.0
993,81.0,40,60,0.0,64.0
994,86.0,0,60,0.0,64.0
995,74.0,30,60,1.0,64.0
996,78.0,0,60,1.0,64.0
997,90.0,15,60,0.0,64.0
998,81.0,0,60,1.0,64.0
999,93.0,60,60,0.0,64.0
1000,38.0,0,60,4.0,64.0
1001,66.0,0,60,3.0,64.0
1002,26.0,0,60,4.0,64.0
1003,62.0,0,60,3.0,64.0
1004,57.0,0,60,3.0,64.0
1005,90.0,250,60,0.0,64.0
1006,98.0,0,60,0.0,64.0
1007,78.0,0,60,1.0,64.0
1008,86.0,0,60,1.0,64.0
1009,93.0,100,210,0.0,64.0
1010,38.0,0,210,4.0,64.0
1011,50.0,0,210,4.0,64.0
1012,81.0,0,210,1.0,64.0
1013,78.0,0,210,1.0,64.0
1014,62.0,0,210,3.0,64.0
1015,74.0,0,210,1.0,64.0
1016,69.0,0,210,3.0,64.0
1017,90.0,0,210,0.0,64.0
1018,86.0,0,210,0.0,64.0
1019,66.0,0,210,3.0,64.0
1020,83.0,0,60,1.0,64.0
1021,43.0,0,60,4.0,64.0
1022,31.0,0,60,4.0,64.0
1023,62.0,0,60,3.0,64.0
1024,67.0,0,60,3.0,64.0
1025,71.0,0,60,3.0,64.0
1026,79.0,0,60,1.0,64.0
1027,86.0,0,60,0.0,64.0
1028,91.0,260,60,0.0,64.0
1029,95.0,0,60,0.0,64.0
1030,74.0,0,60,1.0,64.0
1031,62.0,240,210,3.0,64.0
1032,66.0,0,210,3.0,64.0
1033,69.0,0,210,3.0,64.0
1034,93.0,0,210,0.0,64.0
1035,86.0,0,210,0.0,64.0
1036,74.0,0,210,1.0,64.0
1037,38.0,0,210,4.0,64.0
1038,50.0,0,210,4.0,64.0
1039,78.0,0,210,1.0,64.0
1040,81.0,0,210,1.0,64.0
1041,90.0,0,210,0.0,64.0
1042,62.0,30,210,3.0,64.0
1043,90.0,0,210,0.0,64.0
1044,95.0,0,210,0.0,64.0
1045,71.0,0,210,3.0,64.0
1046,86.0,0,210,0.0,64.0
1047,66.0,0,210,3.0,64.0
1048,35.0,0,210,4.0,64.0
1049,74.0,0,210,1.0,64.0
1050,47.0,0,210,4.0,64.0
1051,83.0,0,210,1.0,64.0
1052,78.0,0,210,1.0,64.0
1053,78.0,0,20,1.0,64.0
1054,81.0,0,20,1.0,64.0
1055,74.0,0,20,1.0,64.0
1056,86.0,0,20,0.0,64.0
1057,90.0,410,20,0.0,64.0
1058,93.0,0,20,0.0,64.0
1059,69.0,0,450,3.0,64.0
1060,38.0,0,450,4.0,64.0
1061,50.0,0,450,4.0,64.0
1062,62.0,0,450,3.0,64.0
1063,66.0,0,450,3.0,64.0
1064,93.0,30,390,0.0,64.0
1065,90.0,0,450,0.0,64.0
1066,74.0,0,450,1.0,64.0
1067,81.0,0,390,1.0,64.0
1068,86.0,0,450,0.0,64.0
1069,78.0,20,450,1.0,64.0
1070,81.0,0,30,1.0,64.0
1071,93.0,10,30,0.0,64.0
1072,83.0,0,30,1.0,64.0
1073,95.0,25,30,0.0,64.0
1074,97.0,0,30,0.0,64.0
1075,85.0,65,30,1.0,64.0
1076,62.0,0,60,3.0,64.0
1077,90.0,0,60,0.0,64.0
1078,86.0,0,60,1.0,64.0
1079,78.0,0,60,1.0,64.0
1080,66.0,0,60,3.0,64.0
1081,98.0,250,60,0.0,64.0
1082,38.0,0,60,4.0,64.0
1083,26.0,0,60,4.0,64.0
1084,57.0,0,60,3.0,64.0
1085,86.0,0,210,0.0,64.0
1086,38.0,0,210,4.0,64.0
1087,90.0,0,210,0.0,64.0
1088,81.0,100,210,1.0,64.0
1089,74.0,0,210,1.0,64.0
1090,78.0,0,210,1.0,64.0
1091,69.0,0,210,3.0,64.0
1092,66.0,0,210,3.0,64.0
1093,62.0,0,210,3.0,64.0
1094,93.0,0,210,0.0,64.0
1095,50.0,0,210,4.0,64.0
1096,95.0,0,60,0.0,64.0
1097,91.0,0,60,0.0,64.0
1098,86.0,0,60,0.0,64.0
1099,62.0,0,60,3.0,64.0
1100,67.0,0,60,3.0,64.0
1101,79.0,0,60,1.0,64.0
1102,43.0,0,60,4.0,64.0
1103,31.0,0,60,4.0,64.0
1104,83.0,260,60,1.0,64.0
1105,71.0,0,60,3.0,64.0
1106,74.0,0,60,1.0,64.0
1107,90.0,0,210,0.0,64.0
1108,86.0,0,210,0.0,64.0
1109,81.0,0,210,1.0,64.0
1110,78.0,0,210,1.0,64.0
1111,74.0,240,210,1.0,64.0
1112,93.0,0,210,0.0,64.0
1113,69.0,0,210,3.0,64.0
1114,66.0,0,210,3.0,64.0
1115,50.0,0,210,4.0,64.0
1116,38.0,0,210,4.0,64.0
1117,62.0,0,210,3.0,64.0
1118,91.0,0,210,0.0,64.0
1119,88.0,0,210,0.0,64.0
1120,85.0,0,210,0.0,64.0
1121,73.0,30,210,1.0,64.0
1122,57.0,0,210,3.0,64.0
1123,64.0,0,210,3.0,64.0
1124,67.0,0,210,3.0,64.0
1125,76.0,0,210,1.0,64.0
1126,79.0,0,210,1.0,64.0
1127,45.0,0,210,4.0,64.0
1128,33.0,0,210,4.0,64.0
1129,61.0,0,210,3.0,64.0
1130,78.0,0,20,1.0,64.0
1131,74.0,0,20,1.0,64.0
1132,69.0,0,20,1.0,64.0
1133,90.0,0,20,0.0,64.0
1134,86.0,0,20,0.0,64.0
1135,81.0,70,20,0.0,64.0
1136,66.0,0,240,3.0,64.0
1137,62.0,0,240,3.0,64.0
1138,45.0,35,60,4.0,64.0
1139,86.0,15,210,0.0,64.0
1140,81.0,0,210,0.0,64.0
1141,90.0,0,210,0.0,64.0
1142,57.0,5,240,3.0,64.0
1143,69.0,0,210,1.0,64.0
1144,74.0,0,210,1.0,64.0
1145,78.0,0,210,1.0,64.0
1146,38.0,35,60,4.0,64.0
1147,45.0,30,30,4.0,64.0
1148,38.0,30,30,4.0,64.0
1149,45.0,10,30,4.0,64.0
1150,38.0,25,30,4.0,64.0
1151,45.0,25,30,4.0,64.0
1152,38.0,25,30,4.0,64.0
1153,45.0,30,30,4.0,64.0
1154,38.0,25,30,4.0,64.0
1155,45.0,25,30,4.0,64.0
1156,38.0,25,30,4.0,64.0
1157,69.0,0,90,1.0,64.0
1158,57.0,30,90,3.0,64.0
1159,81.0,0,90,0.0,64.0
1160,45.0,25,30,4.0,64.0
1161,38.0,30,30,4.0,64.0
1162,45.0,5,30,4.0,64.0
1163,38.0,20,60,4.0,64.0
1164,74.0,25,30,0.0,64.0
1165,65.0,0,30,1.0,64.0
1166,45.0,25,60,4.0,64.0
1167,62.0,0,30,3.0,64.0
1168,53.0,0,30,3.0,64.0
1169,38.0,30,60,4.0,64.0
1170,64.0,0,20,3.0,64.0
1171,57.0,0,20,3.0,64.0
1172,76.0,0,20,0.0,64.0
1173,69.0,10,20,1.0,64.0
1174,45.0,25,30,4.0,64.0
1175,38.0,30,30,4.0,64.0
1176,74.0,0,60,1.0,64.0
1177,62.0,15,60,3.0,64.0
1178,65.0,0,60,3.0,64.0
1179,77.0,0,60,0.0,64.0
1180,45.0,15,30,4.0,64.0
1181,38.0,25,30,4.0,64.0
1182,45.0,30,30,4.0,64.0
1183,38.0,30,30,4.0,64.0
1184,45.0,25,30,4.0,64.0
1185,38.0,30,30,4.0,64.0
1186,45.0,25,30,4.0,64.0
1187,38.0,20,30,4.0,64.0
1188,45.0,25,60,4.0,64.0
1189,73.0,0,30,1.0,64.0
1190,57.0,10,30,3.0,64.0
1191,64.0,0,30,3.0,64.0
1192,76.0,0,30,0.0,64.0
1193,38.0,15,30,4.0,64.0
1194,45.0,40,30,4.0,64.0
1195,65.0,0,20,3.0,64.0
1196,74.0,0,20,1.0,64.0
1197,64.0,0,20,3.0,64.0
1198,77.0,10,20,0.0,64.0
1199,38.0,45,60,4.0,64.0
1200,67.0,10,90,3.0,64.0
1201,45.0,25,60,4.0,64.0
1202,76.0,0,90,1.0,64.0
1203,79.0,0,90,0.0,64.0
1204,64.0,0,90,3.0,64.0
1205,38.0,30,60,4.0,64.0
1206,45.0,25,30,4.0,64.0
1207,38.0,30,30,4.0,64.0
1208,45.0,30,30,4.0,64.0
1209,38.0,5,30,4.0,64.0
1210,62.0,0,30,3.0,64.0
1211,77.0,0,30,0.0,64.0
1212,65.0,20,30,3.0,64.0
1213,74.0,0,30,1.0,64.0
1214,45.0,30,30,4.0,64.0
1215,38.0,30,30,4.0,64.0
1216,77.0,0,60,0.0,64.0
1217,74.0,0,60,1.0,64.0
1218,65.0,5,60,3.0,64.0
1219,62.0,0,60,3.0,64.0
1220,45.0,20,30,4.0,64.0
1221,38.0,25,30,4.0,64.0
1222,64.0,0,30,3.0,64.0
1223,76.0,5,30,0.0,64.0
1224,73.0,0,30,1.0,64.0
1225,61.0,0,30,3.0,64.0
1226,45.0,25,30,4.0,64.0
1227,38.0,30,30,4.0,64.0
1228,45.0,25,60,4.0,64.0
1229,73.0,0,60,1.0,64.0
1230,61.0,0,60,3.0,64.0
1231,76.0,20,60,0.0,64.0
1232,64.0,0,60,3.0,64.0
1233,38.0,5,30,4.0,64.0
1234,45.0,20,30,4.0,64.0
1235,74.0,0,60,0.0,64.0
1236,59.0,20,60,3.0,64.0
1237,71.0,0,60,1.0,64.0
1238,62.0,0,60,3.0,64.0
1239,38.0,30,60,4.0,64.0
1240,64.0,20,240,3.0,64.0
1241,45.0,35,30,4.0,64.0
1242,61.0,0,240,3.0,64.0
1243,76.0,0,240,1.0,64.0
1244,73.0,0,240,1.0,64.0
1245,38.0,30,30,4.0,64.0
1246,45.0,25,30,4.0,64.0
1247,38.0,45,30,4.0,64.0
1248,94.0,5,240,0.0,64.0
1249,82.0,0,240,0.0,64.0
1250,46.0,30,60,4.0,64.0
1251,38.0,35,30,4.0,64.0
1252,46.0,10,30,4.0,64.0
1253,38.0,25,30,4.0,64.0
1254,69.0,0,90,3.0,64.0
1255,81.0,10,90,1.0,64.0
1256,46.0,25,30,4.0,64.0
1257,38.0,20,30,4.0,64.0
1258,46.0,20,30,4.0,64.0
1259,38.0,30,30,4.0,64.0
1260,69.0,20,90,1.0,64.0
1261,81.0,20,120,0.0,64.0
1262,57.0,5,60,3.0,64.0
1263,45.0,25,60,4.0,64.0
1264,93.0,20,90,0.0,64.0
1265,38.0,5,30,4.0,64.0
1266,45.0,0,30,4.0,64.0
1267,38.0,10,60,4.0,64.0
1268,45.0,35,30,4.0,64.0
1269,62.0,0,30,3.0,64.0
1270,53.0,10,30,3.0,64.0
1271,74.0,0,30,1.0,64.0
1272,38.0,5,30,4.0,64.0
1273,64.0,0,20,3.0,64.0
1274,57.0,0,20,3.0,64.0
1275,76.0,25,20,1.0,64.0
1276,45.0,25,30,4.0,64.0
1277,38.0,45,30,4.0,64.0
1278,65.0,0,60,3.0,64.0
1279,77.0,10,60,1.0,64.0
1280,44.0,15,60,4.0,64.0
1281,80.0,5,90,0.0,64.0
1282,92.0,0,90,0.0,64.0
1283,62.0,0,60,3.0,64.0
1284,38.0,35,30,4.0,64.0
1285,44.0,30,30,4.0,64.0
1286,38.0,25,30,4.0,64.0
1287,44.0,25,30,4.0,64.0
1288,38.0,30,30,4.0,64.0
1289,44.0,25,30,4.0,64.0
1290,38.0,15,30,4.0,64.0
1291,64.0,15,30,3.0,64.0
1292,45.0,30,60,4.0,64.0
1293,57.0,0,30,3.0,64.0
1294,76.0,0,30,1.0,64.0
1295,93.0,10,90,0.0,64.0
1296,81.0,0,90,0.0,64.0
1297,38.0,5,30,4.0,64.0
1298,77.0,0,20,1.0,64.0
1299,65.0,10,20,3.0,64.0
1300,64.0,0,20,3.0,64.0
1301,45.0,40,30,4.0,64.0
1302,38.0,35,60,4.0,64.0
1303,79.0,0,90,1.0,64.0
1304,67.0,10,90,3.0,64.0
1305,45.0,25,60,4.0,64.0
1306,64.0,0,90,3.0,64.0
1307,38.0,30,60,4.0,64.0
1308,45.0,25,30,4.0,64.0
1309,38.0,30,30,4.0,64.0
1310,45.0,30,30,4.0,64.0
1311,38.0,5,30,4.0,64.0
1312,65.0,20,30,3.0,64.0
1313,62.0,0,30,3.0,64.0
1314,77.0,0,30,0.0,64.0
1315,74.0,0,30,1.0,64.0
1316,45.0,30,30,4.0,64.0
1317,38.0,30,30,4.0,64.0
1318,77.0,0,60,0.0,64.0
1319,62.0,0,60,3.0,64.0
1320,74.0,5,60,1.0,64.0
1321,65.0,0,60,3.0,64.0
1322,45.0,20,30,4.0,64.0
1323,38.0,25,30,4.0,64.0
1324,64.0,0,30,3.0,64.0
1325,76.0,0,30,0.0,64.0
1326,73.0,5,30,1.0,64.0
1327,61.0,0,30,3.0,64.0
1328,45.0,25,30,4.0,64.0
1329,38.0,30,30,4.0,64.0
1330,45.0,25,60,4.0,64.0
1331,61.0,20,60,3.0,64.0
1332,64.0,0,60,3.0,64.0
1333,73.0,0,60,1.0,64.0
1334,76.0,10,90,0.0,64.0
1335,38.0,5,30,4.0,64.0
1336,45.0,10,30,4.0,64.0
1337,57.0,0,60,3.0,64.0
1338,69.0,20,60,1.0,64.0
1339,38.0,35,60,4.0,64.0
1340,74.0,0,240,1.0,64.0
1341,62.0,10,240,3.0,64.0
1342,53.0,0,240,3.0,64.0
1343,45.0,30,60,4.0,64.0
1344,38.0,30,30,4.0,64.0
1345,45.0,25,30,4.0,64.0
1346,38.0,35,30,4.0,64.0
1347,82.0,35,120,0.0,64.0
1348,94.0,0,120,0.0,64.0
1349,46.0,30,60,4.0,64.0
1350,38.0,30,30,4.0,64.0
1351,46.0,15,30,4.0,64.0
1352,38.0,0,30,4.0,64.0
1353,74.0,0,90,1.0,64.0
1354,65.0,0,15,1.0,64.0
1355,45.0,30,60,4.0,64.0
1356,62.0,0,90,3.0,64.0
1357,53.0,5,90,3.0,64.0
1358,93.0,0,120,0.0,64.0
1359,81.0,35,120,0.0,64.0
1360,38.0,25,30,4.0,64.0
1361,45.0,25,30,4.0,64.0
1362,38.0,0,30,4.0,64.0
1363,80.0,20,120,0.0,64.0
1364,57.0,5,60,3.0,64.0
1365,44.0,25,60,4.0,64.0
1366,92.0,0,120,0.0,64.0
1367,38.0,30,30,4.0,64.0
1368,44.0,25,30,4.0,64.0
1369,38.0,0,30,4.0,64.0
1370,81.0,20,90,0.0,64.0
1371,93.0,0,90,0.0,64.0
1372,45.0,25,60,4.0,64.0
1373,62.0,0,30,3.0,64.0
1374,53.0,25,30,3.0,64.0
1375,38.0,10,60,4.0,64.0
1376,57.0,0,20,3.0,64.0
1377,64.0,10,20,3.0,64.0
1378,45.0,25,30,4.0,64.0
1379,38.0,30,30,4.0,64.0
1380,77.0,0,60,1.0,64.0
1381,89.0,15,60,0.0,64.0
1382,65.0,0,60,3.0,64.0
1383,62.0,0,60,3.0,64.0
1384,45.0,15,30,4.0,64.0
1385,38.0,25,30,4.0,64.0
1386,45.0,30,30,4.0,64.0
1387,38.0,30,30,4.0,64.0
1388,74.0,0,90,1.0,64.0
1389,86.0,25,90,0.0,64.0
1390,45.0,25,30,4.0,64.0
1391,38.0,5,30,4.0,64.0
1392,45.0,25,30,4.0,64.0
1393,38.0,20,30,4.0,64.0
1394,45.0,20,60,4.0,64.0
1395,81.0,0,60,0.0,64.0
1396,69.0,5,60,1.0,64.0
1397,57.0,0,30,3.0,64.0
1398,64.0,10,30,3.0,64.0
1399,38.0,15,30,4.0,64.0
1400,45.0,40,30,4.0,64.0
1401,64.0,10,20,3.0,64.0
1402,65.0,0,20,3.0,64.0
1403,38.0,30,60,4.0,64.0
1404,45.0,35,30,4.0,64.0
1405,67.0,25,90,3.0,64.0
1406,64.0,0,90,3.0,64.0
1407,38.0,5,30,4.0,64.0
1408,45.0,25,30,4.0,64.0
1409,38.0,45,30,4.0,64.0
1410,46.0,30,60,4.0,64.0
1411,70.0,30,90,1.0,64.0
1412,82.0,0,90,0.0,64.0
1413,38.0,5,30,4.0,64.0
1414,62.0,0,30,3.0,64.0
1415,65.0,0,30,3.0,64.0
1416,46.0,30,30,4.0,64.0
1417,38.0,25,30,4.0,64.0
1418,65.0,10,60,3.0,64.0
1419,62.0,0,60,3.0,64.0
1420,46.0,15,30,4.0,64.0
1421,38.0,20,30,4.0,64.0
1422,61.0,10,30,3.0,64.0
1423,64.0,0,30,3.0,64.0
1424,46.0,25,30,4.0,64.0
1425,38.0,30,30,4.0,64.0
1426,61.0,0,60,3.0,64.0
1427,44.0,25,60,4.0,64.0
1428,64.0,0,60,3.0,64.0
1429,68.0,0,60,1.0,64.0
1430,80.0,5,60,0.0,64.0
1431,38.0,25,30,4.0,64.0
1432,59.0,30,60,3.0,64.0
1433,44.0,10,30,4.0,64.0
1434,62.0,0,60,3.0,64.0
1435,38.0,50,60,4.0,64.0
1436,64.0,0,240,3.0,64.0
1437,61.0,15,240,3.0,64.0
1438,45.0,50,60,4.0,64.0
1439,38.0,40,60,4.0,64.0
1440,45.0,40,60,4.0,64.0
1441,81.0,20,240,0.0,64.0
1442,38.0,35,60,4.0,64.0
1443,45.0,15,60,4.0,64.0
1444,38.0,40,60,4.0,64.0
1445,69.0,20,90,3.0,64.0
1446,45.0,35,60,4.0,64.0
1447,38.0,0,60,4.0,64.0
1448,45.0,30,60,4.0,64.0
1449,38.0,20,60,4.0,64.0
1450,81.0,25,90,0.0,64.0
1451,57.0,20,60,3.0,64.0
1452,45.0,10,60,4.0,64.0
1453,38.0,25,60,4.0,64.0
1454,62.0,0,30,3.0,64.0
1455,53.0,20,30,3.0,64.0
1456,45.0,30,60,4.0,64.0
1457,38.0,40,60,4.0,64.0
1458,57.0,15,20,3.0,64.0
1459,64.0,0,20,3.0,64.0
1460,45.0,35,60,4.0,64.0
1461,62.0,0,60,3.0,64.0
1462,77.0,30,120,0.0,64.0
1463,38.0,20,60,4.0,64.0
1464,65.0,30,60,3.0,64.0
1465,44.0,10,60,4.0,64.0
1466,38.0,40,60,4.0,64.0
1467,74.0,40,90,0.0,64.0
1468,44.0,30,60,4.0,64.0
1469,38.0,0,60,4.0,64.0
1470,45.0,20,60,4.0,64.0
1471,69.0,30,90,0.0,64.0
1472,64.0,25,30,3.0,64.0
1473,57.0,0,30,3.0,64.0
1474,38.0,25,60,4.0,64.0
1475,45.0,5,60,4.0,64.0
1476,64.0,15,20,3.0,64.0
1477,65.0,0,20,3.0,64.0
1478,38.0,40,60,4.0,64.0
1479,45.0,30,60,4.0,64.0
1480,64.0,15,90,3.0,64.0
1481,67.0,0,90,3.0,64.0
1482,38.0,40,60,4.0,64.0
1483,45.0,35,60,4.0,64.0
1484,38.0,30,60,4.0,64.0
1485,70.0,10,90,0.0,64.0
1486,46.0,40,60,4.0,64.0
1487,65.0,0,30,3.0,64.0
1488,62.0,10,30,3.0,64.0
1489,38.0,40,60,4.0,64.0
1490,65.0,0,60,3.0,64.0
1491,62.0,20,60,3.0,64.0
1492,46.0,10,60,4.0,64.0
1493,38.0,10,60,4.0,64.0
1494,64.0,0,30,3.0,64.0
1495,61.0,30,30,3.0,64.0
1496,46.0,45,60,4.0,64.0
1497,69.0,5,90,0.0,64.0
1498,61.0,20,60,3.0,64.0
1499,64.0,0,60,3.0,64.0
1500,38.0,15,60,4.0,64.0
1501,45.0,15,60,4.0,64.0
1502,57.0,10,60,3.0,64.0
1503,62.0,0,210,3.0,64.0
1504,53.0,240,210,3.0,64.0
1505,38.0,200,15,4.0,64.0
1506,45.0,0,210,4.0,64.0
1507,40.0,0,240,4.0,64.0
1508,48.0,0,240,4.0,64.0
1509,55.0,0,240,3.0,64.0
1510,58.0,10,240,3.0,64.0
1511,60.0,0,240,3.0,64.0
1512,84.0,35,90,0.0,64.0
1513,72.0,0,90,1.0,64.0
1514,72.0,0,30,1.0,64.0
1515,84.0,15,30,0.0,64.0
1516,74.0,0,30,1.0,64.0
1517,86.0,0,30,0.0,64.0
1518,76.0,30,30,1.0,64.0
1519,88.0,0,30,0.0,64.0
1520,41.0,0,90,4.0,64.0
1521,77.0,50,60,1.0,64.0
1522,89.0,0,60,0.0,64.0
1523,77.0,0,30,0.0,64.0
1524,65.0,50,30,1.0,64.0
1525,70.0,50,30,1.0,64.0
1526,82.0,0,30,0.0,64.0
1527,62.0,15,90,3.0,64.0
1528,58.0,0,90,3.0,64.0
1529,53.0,0,90,3.0,64.0
1530,86.0,0,30,0.0,64.0
1531,74.0,75,30,1.0,64.0
1532,41.0,10,90,4.0,64.0
1533,72.0,0,60,1.0,64.0
1534,69.0,30,60,1.0,64.0
1535,53.0,10,60,3.0,64.0
1536,84.0,0,60,0.0,64.0
1537,81.0,0,60,0.0,64.0
1538,65.0,50,30,3.0,64.0
1539,81.0,15,90,0.0,64.0
1540,84.0,0,90,0.0,64.0
1541,60.0,50,30,3.0,64.0
1542,69.0,0,90,1.0,64.0
1543,72.0,0,90,1.0,64.0
1544,57.0,25,30,3.0,64.0
1545,72.0,0,30,1.0,64.0
1546,84.0,0,30,0.0,64.0
1547,86.0,0,20,0.0,64.0
1548,88.0,60,30,0.0,64.0
1549,76.0,0,30,1.0,64.0
1550,46.0,80,90,4.0,64.0
1551,34.0,0,90,4.0,64.0
1552,58.0,0,90,3.0,64.0
1553,86.0,0,90,0.0,64.0
1554,89.0,0,90,0.0,64.0
1555,77.0,0,90,1.0,64.0
1556,74.0,20,15,1.0,64.0
1557,72.0,0,60,1.0,64.0
1558,76.0,0,60,1.0,64.0
1559,65.0,0,240,3.0,64.0
1560,84.0,180,60,0.0,64.0
1561,88.0,0,60,0.0,64.0
1562,82.0,0,210,0.0,64.0
1563,70.0,0,210,1.0,64.0
1564,74.0,50,210,1.0,64.0
1565,86.0,0,210,0.0,64.0
1566,53.0,80,15,3.0,64.0
1567,58.0,0,90,3.0,64.0
1568,62.0,0,90,3.0,64.0
1569,81.0,60,30,0.0,64.0
1570,69.0,0,30,1.0,64.0
1571,53.0,0,90,3.0,64.0
1572,60.0,10,90,3.0,64.0
1573,77.0,20,60,1.0,64.0
1574,41.0,260,90,4.0,64.0
1575,89.0,0,60,0.0,64.0
1576,69.0,0,240,1.0,64.0
1577,65.0,0,240,3.0,64.0
1578,72.0,0,240,1.0,64.0
1579,81.0,0,240,0.0,64.0
1580,72.0,20,60,1.0,64.0
1581,84.0,60,15,0.0,64.0
1582,57.0,0,90,3.0,64.0
1583,53.0,0,15,3.0,64.0
1584,84.0,0,30,0.0,64.0
1585,72.0,15,30,1.0,64.0
1586,74.0,10,30,1.0,64.0
1587,86.0,0,30,0.0,64.0
1588,76.0,30,30,1.0,64.0
1589,88.0,0,30,0.0,64.0
1590,41.0,50,90,4.0,64.0
1591,89.0,0,60,0.0,64.0
1592,77.0,50,60,1.0,64.0
1593,72.0,0,30,0.0,64.0
1594,60.0,0,30,1.0,64.0
1595,77.0,0,30,0.0,64.0
1596,65.0,50,30,1.0,64.0
1597,57.0,15,90,3.0,64.0
1598,53.0,0,90,3.0,64.0
1599,82.0,75,30,0.0,64.0
1600,70.0,0,30,1.0,64.0
1601,48.0,10,60,3.0,64.0
1602,81.0,30,60,0.0,64.0
1603,41.0,10,90,4.0,64.0
1604,69.0,0,60,1.0,64.0
1605,60.0,50,30,3.0,64.0
1606,57.0,50,30,3.0,64.0
1607,77.0,15,90,0.0,64.0
1608,65.0,0,90,1.0,64.0
1609,53.0,25,30,3.0,64.0
1610,65.0,10,30,1.0,64.0
1611,77.0,0,30,0.0,64.0
1612,79.0,0,30,0.0,64.0
1613,67.0,10,30,1.0,64.0
1614,69.0,0,30,1.0,64.0
1615,81.0,60,30,0.0,64.0
1616,48.0,0,90,3.0,64.0
1617,36.0,80,90,4.0,64.0
1618,82.0,0,90,0.0,64.0
1619,70.0,20,90,1.0,64.0
1620,65.0,0,60,1.0,64.0
1621,69.0,0,60,1.0,64.0
1622,77.0,0,60,0.0,64.0
1623,58.0,80,240,3.0,64.0
1624,81.0,180,60,0.0,64.0
1625,48.0,0,240,3.0,64.0
1626,67.0,0,210,1.0,64.0
1627,60.0,0,210,1.0,64.0
1628,79.0,110,210,0.0,64.0
1629,72.0,0,210,0.0,64.0
1630,48.0,0,90,3.0,64.0
1631,52.0,0,90,3.0,64.0
1632,65.0,0,90,1.0,64.0
1633,77.0,0,90,0.0,64.0
1634,81.0,30,60,0.0,64.0
1635,69.0,0,60,1.0,64.0
1636,48.0,220,90,3.0,64.0
1637,41.0,0,90,4.0,64.0
1638,57.0,60,240,3.0,64.0
1639,48.0,0,240,3.0,64.0
1640,65.0,0,210,1.0,64.0
1641,77.0,40,210,0.0,64.0
1642,53.0,0,90,3.0,64.0
1643,72.0,0,60,1.0,64.0
1644,57.0,35,90,3.0,64.0
1645,84.0,20,60,0.0,64.0
1646,84.0,15,30,0.0,64.0
1647,72.0,0,30,1.0,64.0
1648,74.0,0,30,1.0,64.0
1649,86.0,10,30,0.0,64.0
1650,76.0,0,30,1.0,64.0
1651,88.0,30,30,0.0,64.0
1652,89.0,0,60,0.0,64.0
1653,77.0,50,60,1.0,64.0
1654,41.0,50,90,4.0,64.0
1655,77.0,0,30,0.0,64.0
1656,65.0,0,30,1.0,64.0
1657,70.0,0,30,1.0,64.0
1658,62.0,0,90,3.0,64.0
1659,82.0,50,30,0.0,64.0
1660,58.0,0,90,3.0,64.0
1661,53.0,15,90,3.0,64.0
1662,74.0,75,30,1.0,64.0
1663,86.0,0,30,0.0,64.0
1664,53.0,10,60,3.0,64.0
1665,84.0,0,60,0.0,64.0
1666,81.0,0,60,0.0,64.0
1667,72.0,0,60,1.0,64.0
1668,41.0,10,90,4.0,64.0
1669,69.0,30,60,1.0,64.0
1670,65.0,50,30,3.0,64.0
1671,69.0,0,90,1.0,64.0
1672,72.0,0,90,1.0,64.0
1673,81.0,15,90,0.0,64.0
1674,84.0,0,90,0.0,64.0
1675,60.0,50,30,3.0,64.0
1676,57.0,95,30,3.0,64.0
1677,58.0,20,90,3.0,64.0
1678,34.0,0,90,4.0,64.0
1679,76.0,0,60,1.0,64.0
1680,79.0,10,60,1.0,64.0
1681,46.0,10,90,4.0,64.0
1682,91.0,0,60,0.0,64.0
1683,88.0,0,60,0.0,64.0
1684,89.0,70,60,0.0,64.0
1685,86.0,0,60,0.0,64.0
1686,77.0,0,60,1.0,64.0
1687,74.0,0,60,1.0,64.0
1688,77.0,40,60,1.0,64.0
1689,74.0,0,60,1.0,64.0
1690,89.0,0,60,0.0,64.0
1691,65.0,0,240,3.0,64.0
1692,86.0,10,60,0.0,64.0
1693,74.0,0,60,1.0,64.0
1694,70.0,90,60,1.0,64.0
1695,82.0,0,60,0.0,64.0
1696,86.0,0,60,0.0,64.0
1697,70.0,0,210,1.0,64.0
1698,74.0,0,210,1.0,64.0
1699,86.0,50,210,0.0,64.0
1700,82.0,0,210,0.0,64.0
1701,50.0,0,90,4.0,64.0
1702,38.0,40,90,4.0,64.0
1703,53.0,80,15,3.0,64.0
1704,58.0,0,90,3.0,64.0
1705,62.0,0,90,3.0,64.0
1706,84.0,60,30,0.0,64.0
1707,72.0,0,30,1.0,64.0
1708,53.0,0,90,3.0,64.0
1709,93.0,0,60,0.0,64.0
1710,41.0,260,90,4.0,64.0
1711,81.0,30,60,1.0,64.0
1712,60.0,0,90,3.0,64.0
1713,65.0,60,240,3.0,64.0
1714,81.0,0,240,0.0,64.0
1715,69.0,0,240,1.0,64.0
1716,57.0,35,90,3.0,64.0
1717,72.0,0,15,1.0,64.0
1718,84.0,0,15,0.0,64.0
1719,53.0,0,15,3.0,64.0
1720,84.0,0,30,0.0,64.0
1721,72.0,15,30,1.0,64.0
1722,86.0,10,30,0.0,64.0
1723,74.0,0,30,1.0,64.0
1724,88.0,0,30,0.0,64.0
1725,76.0,30,30,1.0,64.0
1726,89.0,50,60,0.0,64.0
1727,41.0,0,90,4.0,64.0
1728,77.0,0,60,1.0,64.0
1729,72.0,0,30,0.0,64.0
1730,60.0,50,30,1.0,64.0
1731,57.0,0,90,3.0,64.0
1732,53.0,15,90,3.0,64.0
1733,77.0,50,30,0.0,64.0
1734,65.0,0,30,1.0,64.0
1735,82.0,75,30,0.0,64.0
1736,70.0,0,30,1.0,64.0
1737,41.0,10,90,4.0,64.0
1738,69.0,0,60,1.0,64.0
1739,81.0,30,60,0.0,64.0
1740,48.0,10,60,3.0,64.0
1741,60.0,50,30,3.0,64.0
1742,57.0,50,30,3.0,64.0
1743,77.0,15,90,0.0,64.0
1744,65.0,0,90,1.0,64.0
1745,53.0,25,30,3.0,64.0
1746,77.0,10,30,0.0,64.0
1747,65.0,0,30,1.0,64.0
1748,79.0,10,30,0.0,64.0
1749,67.0,0,30,1.0,64.0
1750,81.0,60,30,0.0,64.0
1751,69.0,0,30,1.0,64.0
1752,36.0,0,90,4.0,64.0
1753,48.0,0,90,4.0,64.0
1754,82.0,0,90,0.0,64.0
1755,70.0,20,90,1.0,64.0
1756,48.0,80,90,3.0,64.0
1757,48.0,0,240,3.0,64.0
1758,58.0,70,240,3.0,64.0
1759,69.0,0,60,1.0,64.0
1760,81.0,180,60,0.0,64.0
1761,77.0,0,60,0.0,64.0
1762,65.0,0,60,1.0,64.0
1763,79.0,0,180,0.0,64.0
1764,72.0,0,180,0.0,64.0
1765,60.0,0,180,1.0,64.0
1766,67.0,10,180,1.0,64.0
1767,52.0,30,90,3.0,64.0
1768,48.0,0,90,3.0,64.0
1769,84.0,80,60,0.0,64.0
1770,72.0,0,60,1.0,64.0
1771,41.0,0,60,4.0,64.0
1772,29.0,0,60,4.0,64.0
1773,69.0,0,60,1.0,64.0
1774,77.0,290,60,0.0,64.0
1775,65.0,0,60,1.0,64.0
1776,81.0,0,60,0.0,64.0
1777,48.0,0,60,3.0,64.0
1778,53.0,0,60,3.0,64.0
1779,53.0,0,120,3.0,64.0
1780,60.0,0,120,3.0,64.0
1781,57.0,0,120,3.0,64.0
1782,77.0,0,120,0.0,64.0
1783,69.0,0,120,1.0,64.0
1784,65.0,0,120,1.0,64.0
1785,72.0,120,120,0.0,64.0
