,note,step,duration,channel,velocity
0,57.0,5,55,7.0,0.0
1,55.0,29,22,8.0,0.0
2,62.0,3,115,7.0,0.0
3,53.0,29,22,8.0,0.0
4,52.0,32,22,8.0,0.0
5,53.0,25,22,8.0,0.0
6,57.0,20,22,8.0,0.0
7,55.0,4,22,8.0,0.0
8,64.0,9,8,7.0,0.0
9,65.0,1,8,7.0,0.0
10,64.0,17,8,7.0,0.0
11,62.0,10,15,7.0,0.0
12,52.0,3,22,8.0,0.0
13,64.0,26,15,7.0,0.0
14,65.0,30,30,7.0,0.0
15,50.0,2,22,8.0,0.0
16,53.0,29,22,8.0,0.0
17,69.0,4,30,7.0,0.0
18,64.0,25,30,7.0,0.0
19,52.0,1,22,8.0,0.0
20,48.0,31,22,8.0,0.0
21,74.0,2,85,7.0,0.0
22,65.0,3,85,7.0,0.0
23,46.0,29,22,8.0,0.0
24,50.0,26,22,8.0,0.0
25,45.0,16,22,8.0,0.0
26,74.0,2,15,7.0,0.0
27,65.0,11,15,7.0,0.0
28,50.0,30,22,8.0,0.0
29,73.0,3,30,7.0,0.0
30,64.0,22,30,7.0,0.0
31,43.0,1,22,8.0,0.0
32,74.0,4,25,7.0,0.0
33,65.0,1,25,7.0,0.0
34,50.0,16,22,8.0,0.0
35,76.0,3,15,7.0,0.0
36,67.0,9,15,7.0,0.0
37,41.0,19,22,8.0,0.0
38,77.0,1,15,7.0,0.0
39,69.0,11,15,7.0,0.0
40,50.0,31,22,8.0,0.0
41,73.0,3,30,7.0,0.0
42,64.0,26,30,7.0,0.0
43,45.0,1,22,8.0,0.0
44,57.0,30,22,8.0,0.0
45,58.0,17,22,8.0,0.0
46,74.0,2,15,7.0,0.0
47,65.0,11,15,7.0,0.0
48,57.0,29,22,8.0,0.0
49,73.0,1,30,7.0,0.0
50,64.0,25,30,7.0,0.0
51,41.0,2,22,8.0,0.0
52,74.0,1,25,7.0,0.0
53,65.0,2,25,7.0,0.0
54,53.0,17,22,8.0,0.0
55,76.0,0,15,7.0,0.0
56,67.0,11,15,7.0,0.0
57,40.0,17,22,8.0,0.0
58,77.0,3,15,7.0,0.0
59,69.0,12,15,7.0,0.0
60,52.0,30,22,8.0,0.0
61,73.0,1,30,7.0,0.0
62,64.0,26,30,7.0,0.0
63,45.0,2,22,8.0,0.0
64,57.0,30,22,8.0,0.0
65,55.0,15,22,8.0,0.0
66,69.0,9,10,7.0,0.0
67,52.0,6,22,8.0,0.0
68,71.0,5,10,7.0,0.0
69,73.0,26,10,7.0,0.0
70,74.0,3,30,7.0,0.0
71,66.0,26,30,7.0,0.0
72,50.0,1,22,8.0,0.0
73,48.0,28,22,8.0,0.0
74,79.0,1,115,7.0,0.0
75,74.0,1,115,7.0,0.0
76,67.0,1,115,7.0,0.0
77,70.0,0,115,7.0,0.0
78,46.0,32,22,8.0,0.0
79,45.0,28,22,8.0,0.0
80,46.0,28,22,8.0,0.0
81,50.0,29,22,8.0,0.0
82,69.0,27,60,7.0,0.0
83,81.0,0,60,7.0,0.0
84,74.0,25,90,7.0,0.0
85,46.0,32,22,8.0,0.0
86,45.0,2,22,8.0,0.0
87,70.0,1,30,7.0,0.0
88,82.0,0,30,7.0,0.0
89,43.0,3,22,8.0,0.0
90,46.0,30,22,8.0,0.0
91,86.0,3,55,7.0,0.0
92,70.0,1,55,7.0,0.0
93,81.0,1,55,7.0,0.0
94,43.0,27,22,8.0,0.0
95,41.0,29,22,8.0,0.0
96,82.0,2,115,7.0,0.0
97,91.0,0,115,7.0,0.0
98,79.0,1,115,7.0,0.0
99,39.0,29,22,8.0,0.0
100,51.0,30,22,8.0,0.0
101,38.0,29,22,8.0,0.0
102,50.0,28,22,8.0,0.0
103,94.0,2,30,7.0,0.0
104,82.0,2,30,7.0,0.0
105,91.0,24,30,7.0,0.0
106,37.0,2,22,8.0,0.0
107,52.0,30,22,8.0,0.0
108,93.0,2,30,7.0,0.0
109,89.0,0,30,7.0,0.0
110,81.0,25,30,7.0,0.0
111,38.0,4,22,8.0,0.0
112,53.0,30,22,8.0,0.0
113,91.0,0,30,7.0,0.0
114,88.0,2,30,7.0,0.0
115,79.0,24,30,7.0,0.0
116,40.0,3,22,8.0,0.0
117,55.0,32,22,8.0,0.0
118,89.0,2,30,7.0,0.0
119,86.0,1,30,7.0,0.0
120,77.0,25,30,7.0,0.0
121,41.0,1,22,8.0,0.0
122,57.0,30,22,8.0,0.0
123,88.0,2,30,7.0,0.0
124,85.0,1,30,7.0,0.0
125,76.0,24,30,7.0,0.0
126,43.0,2,22,8.0,0.0
127,58.0,16,22,8.0,0.0
128,86.0,7,11,7.0,0.0
129,77.0,24,60,7.0,0.0
130,44.0,5,22,8.0,0.0
131,88.0,7,11,7.0,0.0
132,86.0,15,11,7.0,0.0
133,85.0,12,15,7.0,0.0
134,59.0,2,22,8.0,0.0
135,86.0,2,15,7.0,0.0
136,85.0,2,60,7.0,0.0
137,76.0,21,60,7.0,0.0
138,45.0,32,22,8.0,0.0
139,61.0,1,22,8.0,0.0
140,57.0,4,20,7.0,0.0
141,45.0,15,20,8.0,0.0
142,61.0,3,20,7.0,0.0
143,49.0,18,20,8.0,0.0
144,64.0,3,20,7.0,0.0
145,52.0,17,20,8.0,0.0
146,69.0,6,22,7.0,0.0
147,57.0,21,30,10.0,0.0
148,57.0,3,22,8.0,0.0
149,57.0,5,60,13.0,0.0
150,45.0,8,60,14.0,0.0
151,67.0,6,22,7.0,0.0
152,55.0,11,22,8.0,0.0
153,65.0,6,22,7.0,0.0
154,62.0,7,105,10.0,0.0
155,53.0,24,22,8.0,0.0
156,55.0,5,60,13.0,0.0
157,43.0,10,60,14.0,0.0
158,64.0,5,22,7.0,0.0
159,52.0,12,22,8.0,0.0
160,65.0,3,22,7.0,0.0
161,69.0,5,60,11.0,0.0
162,53.0,19,22,8.0,0.0
163,57.0,1,60,12.0,0.0
164,53.0,5,60,13.0,0.0
165,41.0,2,60,14.0,0.0
166,69.0,4,22,7.0,0.0
167,57.0,6,22,8.0,0.0
168,67.0,2,22,7.0,0.0
169,65.0,0,8,10.0,0.0
170,67.0,5,60,11.0,0.0
171,55.0,5,22,8.0,0.0
172,55.0,1,60,12.0,0.0
173,64.0,6,8,10.0,0.0
174,52.0,5,60,13.0,0.0
175,40.0,10,60,14.0,0.0
176,65.0,2,8,10.0,0.0
177,64.0,15,8,10.0,0.0
178,64.0,6,22,7.0,0.0
179,62.0,6,15,10.0,0.0
180,52.0,3,22,8.0,0.0
181,64.0,2,15,10.0,0.0
182,65.0,21,30,10.0,0.0
183,62.0,2,22,7.0,0.0
184,65.0,5,60,11.0,0.0
185,50.0,5,22,8.0,0.0
186,53.0,1,60,12.0,0.0
187,50.0,5,60,13.0,0.0
188,38.0,9,60,14.0,0.0
189,65.0,6,22,7.0,0.0
190,53.0,5,22,8.0,0.0
191,64.0,3,22,7.0,0.0
192,69.0,21,30,10.0,0.0
193,64.0,5,60,11.0,0.0
194,52.0,5,22,8.0,0.0
195,52.0,1,60,12.0,0.0
196,48.0,5,60,13.0,0.0
197,36.0,10,60,14.0,0.0
198,60.0,4,22,7.0,0.0
199,48.0,7,22,8.0,0.0
200,74.0,7,75,10.0,0.0
201,58.0,2,22,7.0,0.0
202,62.0,5,60,11.0,0.0
203,46.0,27,22,8.0,0.0
204,50.0,1,60,12.0,0.0
205,46.0,5,60,13.0,0.0
206,34.0,2,60,14.0,0.0
207,62.0,4,22,7.0,0.0
208,50.0,6,22,8.0,0.0
209,57.0,5,22,7.0,0.0
210,45.0,18,22,8.0,0.0
211,45.0,5,60,13.0,0.0
212,33.0,9,60,14.0,0.0
213,74.0,2,15,10.0,0.0
214,62.0,3,22,7.0,0.0
215,65.0,6,15,11.0,0.0
216,50.0,12,22,8.0,0.0
217,55.0,3,22,7.0,0.0
218,73.0,2,30,10.0,0.0
219,64.0,2,30,11.0,0.0
220,43.0,5,22,8.0,0.0
221,62.0,0,30,4.0,0.0
222,50.0,18,30,4.0,0.0
223,50.0,0,60,12.0,0.0
224,43.0,5,60,13.0,0.0
225,31.0,2,60,14.0,0.0
226,62.0,3,22,7.0,0.0
227,74.0,1,25,10.0,0.0
228,65.0,10,25,11.0,0.0
229,50.0,1,22,8.0,0.0
230,76.0,2,15,10.0,0.0
231,53.0,3,22,7.0,0.0
232,67.0,5,15,11.0,0.0
233,41.0,9,22,8.0,0.0
234,50.0,0,30,4.0,0.0
235,62.0,11,30,4.0,0.0
236,62.0,1,0,12.0,0.0
237,50.0,1,60,12.0,0.0
238,41.0,5,60,13.0,0.0
239,29.0,10,60,14.0,0.0
240,62.0,3,22,7.0,0.0
241,77.0,2,15,10.0,0.0
242,69.0,5,15,11.0,0.0
243,50.0,12,22,8.0,0.0
244,73.0,2,30,10.0,0.0
245,57.0,3,22,7.0,0.0
246,64.0,2,30,11.0,0.0
247,57.0,17,30,4.0,0.0
248,45.0,0,30,4.0,0.0
249,45.0,4,22,8.0,0.0
250,57.0,1,60,12.0,0.0
251,45.0,5,60,13.0,0.0
252,33.0,8,60,14.0,0.0
253,69.0,5,22,7.0,0.0
254,57.0,11,22,8.0,0.0
255,70.0,4,22,7.0,0.0
256,58.0,20,22,8.0,0.0
257,69.0,4,22,7.0,0.0
258,74.0,2,15,10.0,0.0
259,65.0,5,15,11.0,0.0
260,57.0,25,22,8.0,0.0
261,57.0,5,22,7.0,0.0
262,73.0,2,30,10.0,0.0
263,64.0,2,30,11.0,0.0
264,69.0,17,30,4.0,0.0
265,57.0,0,30,4.0,0.0
266,45.0,4,22,8.0,0.0
267,69.0,1,60,12.0,0.0
268,53.0,5,60,13.0,0.0
269,41.0,2,60,14.0,0.0
270,69.0,4,22,7.0,0.0
271,74.0,2,25,10.0,0.0
272,65.0,10,25,11.0,0.0
273,57.0,0,22,8.0,0.0
274,76.0,2,15,10.0,0.0
275,57.0,2,22,7.0,0.0
276,67.0,6,15,11.0,0.0
277,45.0,9,22,8.0,0.0
278,57.0,11,30,4.0,0.0
279,69.0,0,30,4.0,0.0
280,69.0,1,60,12.0,0.0
281,50.0,5,60,13.0,0.0
282,38.0,4,60,14.0,0.0
283,77.0,2,15,10.0,0.0
284,69.0,4,22,7.0,0.0
285,69.0,6,15,11.0,0.0
286,57.0,10,22,8.0,0.0
287,57.0,6,22,7.0,0.0
288,73.0,4,30,10.0,0.0
289,64.0,4,15,11.0,0.0
290,57.0,0,30,4.0,0.0
291,45.0,18,30,4.0,0.0
292,45.0,3,22,8.0,0.0
293,57.0,1,60,12.0,0.0
294,57.0,5,60,13.0,0.0
295,45.0,9,60,14.0,0.0
296,69.0,4,22,7.0,0.0
297,57.0,11,22,8.0,0.0
298,67.0,5,22,7.0,0.0
299,55.0,13,22,8.0,0.0
300,57.0,10,10,10.0,0.0
301,64.0,4,22,7.0,0.0
302,52.0,4,22,8.0,0.0
303,59.0,2,10,10.0,0.0
304,61.0,22,10,10.0,0.0
305,62.0,1,30,10.0,0.0
306,62.0,4,22,7.0,0.0
307,74.0,3,30,0.0,0.0
308,50.0,4,22,8.0,0.0
309,74.0,19,30,1.0,0.0
310,62.0,5,60,13.0,0.0
311,50.0,9,60,14.0,0.0
312,60.0,2,22,7.0,0.0
313,48.0,13,22,8.0,0.0
314,58.0,4,22,7.0,0.0
315,67.0,1,105,10.0,0.0
316,79.0,3,105,0.0,0.0
317,46.0,26,22,8.0,0.0
318,79.0,0,105,1.0,0.0
319,67.0,3,105,1.0,0.0
320,60.0,5,60,13.0,0.0
321,48.0,8,60,14.0,0.0
322,57.0,5,22,7.0,0.0
323,45.0,11,22,8.0,0.0
324,58.0,5,22,7.0,0.0
325,74.0,5,60,11.0,0.0
326,46.0,16,22,8.0,0.0
327,62.0,1,60,12.0,0.0
328,58.0,0,60,13.0,0.0
329,58.0,3,30,3.0,0.0
330,62.0,0,30,3.0,0.0
331,46.0,2,60,14.0,0.0
332,62.0,5,22,7.0,0.0
333,50.0,5,22,8.0,0.0
334,60.0,2,22,7.0,0.0
335,70.0,1,8,10.0,0.0
336,82.0,3,8,0.0,0.0
337,72.0,2,60,11.0,0.0
338,70.0,1,8,1.0,0.0
339,48.0,0,22,8.0,0.0
340,60.0,1,60,12.0,0.0
341,69.0,1,8,10.0,0.0
342,81.0,3,8,0.0,0.0
343,57.0,5,60,13.0,0.0
344,69.0,2,8,1.0,0.0
345,57.0,0,30,3.0,0.0
346,60.0,3,30,3.0,0.0
347,45.0,9,60,14.0,0.0
348,70.0,1,8,10.0,0.0
349,82.0,3,8,0.0,0.0
350,70.0,3,8,1.0,0.0
351,69.0,1,8,10.0,0.0
352,81.0,3,8,0.0,0.0
353,69.0,8,8,1.0,0.0
354,57.0,4,22,7.0,0.0
355,67.0,1,15,10.0,0.0
356,79.0,3,15,0.0,0.0
357,45.0,4,22,8.0,0.0
358,67.0,3,15,1.0,0.0
359,69.0,1,15,10.0,0.0
360,81.0,1,15,0.0,0.0
361,69.0,3,15,1.0,0.0
362,70.0,1,30,10.0,0.0
363,55.0,4,22,7.0,0.0
364,82.0,3,30,0.0,0.0
365,70.0,5,60,11.0,0.0
366,70.0,8,30,1.0,0.0
367,43.0,4,22,8.0,0.0
368,58.0,1,60,12.0,0.0
369,55.0,5,60,13.0,0.0
370,58.0,10,30,3.0,0.0
371,55.0,0,30,3.0,0.0
372,43.0,10,60,14.0,0.0
373,58.0,4,22,7.0,0.0
374,46.0,6,22,8.0,0.0
375,74.0,1,30,10.0,0.0
376,57.0,3,22,7.0,0.0
377,86.0,3,30,0.0,0.0
378,69.0,5,60,11.0,0.0
379,74.0,8,30,1.0,0.0
380,45.0,4,22,8.0,0.0
381,57.0,1,60,12.0,0.0
382,53.0,5,60,13.0,0.0
383,53.0,0,30,3.0,0.0
384,57.0,10,30,3.0,0.0
385,41.0,10,60,14.0,0.0
386,53.0,5,22,7.0,0.0
387,41.0,5,22,8.0,0.0
388,79.0,1,105,10.0,0.0
389,91.0,3,105,0.0,0.0
390,55.0,2,22,7.0,0.0
391,67.0,5,60,11.0,0.0
392,39.0,17,22,8.0,0.0
393,79.0,4,105,1.0,0.0
394,55.0,1,60,12.0,0.0
395,51.0,5,60,13.0,0.0
396,51.0,0,30,3.0,0.0
397,55.0,10,30,3.0,0.0
398,39.0,10,60,14.0,0.0
399,67.0,5,22,7.0,0.0
400,51.0,5,22,8.0,0.0
401,53.0,3,22,7.0,0.0
402,65.0,5,60,11.0,0.0
403,38.0,16,22,8.0,0.0
404,53.0,1,60,12.0,0.0
405,50.0,5,60,13.0,0.0
406,50.0,0,30,3.0,0.0
407,53.0,3,30,3.0,0.0
408,38.0,10,60,14.0,0.0
409,65.0,3,22,7.0,0.0
410,50.0,6,22,8.0,0.0
411,82.0,1,30,10.0,0.0
412,94.0,3,30,0.0,0.0
413,91.0,0,30,0.0,0.0
414,52.0,3,22,7.0,0.0
415,64.0,5,60,11.0,0.0
416,82.0,0,30,1.0,0.0
417,79.0,8,30,1.0,0.0
418,37.0,4,22,8.0,0.0
419,52.0,1,60,12.0,0.0
420,49.0,5,60,13.0,0.0
421,49.0,9,30,3.0,0.0
422,52.0,0,30,3.0,0.0
423,37.0,8,60,14.0,0.0
424,64.0,5,22,7.0,0.0
425,49.0,6,22,8.0,0.0
426,53.0,6,22,7.0,0.0
427,81.0,1,30,10.0,0.0
428,89.0,0,30,0.0,0.0
429,93.0,3,30,0.0,0.0
430,65.0,5,60,11.0,0.0
431,77.0,8,30,1.0,0.0
432,81.0,0,30,1.0,0.0
433,38.0,3,22,8.0,0.0
434,53.0,1,60,12.0,0.0
435,50.0,5,60,13.0,0.0
436,50.0,0,30,3.0,0.0
437,53.0,9,30,3.0,0.0
438,38.0,10,60,14.0,0.0
439,65.0,5,22,7.0,0.0
440,50.0,6,22,8.0,0.0
441,79.0,1,30,10.0,0.0
442,91.0,0,30,0.0,0.0
443,88.0,3,30,0.0,0.0
444,55.0,2,22,7.0,0.0
445,67.0,5,60,11.0,0.0
446,40.0,5,22,8.0,0.0
447,76.0,0,30,1.0,0.0
448,79.0,8,30,1.0,0.0
449,55.0,1,60,12.0,0.0
450,52.0,5,60,13.0,0.0
451,52.0,9,30,3.0,0.0
452,55.0,0,30,3.0,0.0
453,40.0,8,60,14.0,0.0
454,67.0,4,22,7.0,0.0
455,52.0,7,22,8.0,0.0
456,57.0,5,22,7.0,0.0
457,77.0,1,30,10.0,0.0
458,89.0,0,30,0.0,0.0
459,86.0,3,30,0.0,0.0
460,69.0,5,60,11.0,0.0
461,74.0,8,30,1.0,0.0
462,77.0,0,30,1.0,0.0
463,41.0,4,22,8.0,0.0
464,57.0,1,60,12.0,0.0
465,53.0,5,60,13.0,0.0
466,57.0,0,30,3.0,0.0
467,53.0,10,30,3.0,0.0
468,41.0,9,60,14.0,0.0
469,69.0,4,22,7.0,0.0
470,53.0,6,22,8.0,0.0
471,58.0,5,22,7.0,0.0
472,76.0,1,30,10.0,0.0
473,85.0,0,30,0.0,0.0
474,88.0,3,30,0.0,0.0
475,70.0,5,60,11.0,0.0
476,76.0,8,30,1.0,0.0
477,73.0,0,30,1.0,0.0
478,43.0,3,22,8.0,0.0
479,58.0,1,60,12.0,0.0
480,55.0,0,60,13.0,0.0
481,55.0,10,30,3.0,0.0
482,58.0,0,30,3.0,0.0
483,43.0,2,60,14.0,0.0
484,70.0,4,22,7.0,0.0
485,55.0,6,22,8.0,0.0
486,76.0,5,8,10.0,0.0
487,59.0,1,22,7.0,0.0
488,82.0,0,60,0.0,0.0
489,71.0,2,60,11.0,0.0
490,70.0,3,60,1.0,0.0
491,44.0,3,22,8.0,0.0
492,74.0,1,8,10.0,0.0
493,59.0,1,60,12.0,0.0
494,56.0,5,60,13.0,0.0
495,86.0,3,8,0.0,0.0
496,74.0,3,8,1.0,0.0
497,56.0,3,30,3.0,0.0
498,59.0,0,30,3.0,0.0
499,44.0,10,60,14.0,0.0
500,76.0,1,8,10.0,0.0
501,88.0,3,8,0.0,0.0
502,76.0,0,8,1.0,0.0
503,74.0,1,8,10.0,0.0
504,86.0,3,8,0.0,0.0
505,74.0,8,8,1.0,0.0
506,71.0,4,22,7.0,0.0
507,73.0,1,15,10.0,0.0
508,85.0,3,15,0.0,0.0
509,56.0,5,22,8.0,0.0
510,73.0,2,15,1.0,0.0
511,74.0,1,15,10.0,0.0
512,86.0,1,15,0.0,0.0
513,74.0,0,15,1.0,0.0
514,73.0,1,60,10.0,0.0
515,81.0,0,60,0.0,0.0
516,85.0,1,60,0.0,0.0
517,61.0,3,22,7.0,0.0
518,69.0,2,60,11.0,0.0
519,73.0,3,60,1.0,0.0
520,69.0,0,60,1.0,0.0
521,45.0,16,22,8.0,0.0
522,57.0,1,60,12.0,0.0
523,57.0,5,60,13.0,0.0
524,57.0,11,30,3.0,0.0
525,61.0,0,30,3.0,0.0
526,45.0,1,60,14.0,0.0
527,73.0,4,22,7.0,0.0
528,57.0,3,22,8.0,0.0
529,69.0,8,8,7.0,0.0
530,70.0,9,8,7.0,0.0
531,69.0,14,8,7.0,0.0
532,68.0,14,15,7.0,0.0
533,69.0,28,15,7.0,0.0
534,82.0,1,30,7.0,0.0
535,79.0,27,30,7.0,0.0
536,49.0,1,22,8.0,0.0
537,57.0,31,22,8.0,0.0
538,81.0,4,30,7.0,0.0
539,77.0,26,30,7.0,0.0
540,50.0,0,22,8.0,0.0
541,57.0,29,22,8.0,0.0
542,79.0,2,30,7.0,0.0
543,76.0,27,30,7.0,0.0
544,52.0,2,22,8.0,0.0
545,57.0,29,22,8.0,0.0
546,77.0,2,30,7.0,0.0
547,74.0,27,30,7.0,0.0
548,53.0,2,22,8.0,0.0
549,57.0,28,22,8.0,0.0
550,76.0,1,30,7.0,0.0
551,73.0,27,30,7.0,0.0
552,55.0,4,22,8.0,0.0
553,57.0,19,22,8.0,0.0
554,69.0,27,120,7.0,0.0
555,53.0,5,22,8.0,0.0
556,74.0,8,8,7.0,0.0
557,76.0,1,8,7.0,0.0
558,74.0,15,8,7.0,0.0
559,73.0,10,15,7.0,0.0
560,57.0,6,22,8.0,0.0
561,74.0,24,15,7.0,0.0
562,73.0,4,55,7.0,0.0
563,52.0,27,22,8.0,0.0
564,64.0,4,22,8.0,0.0
565,76.0,17,120,7.0,0.0
566,57.0,30,22,8.0,0.0
567,61.0,15,60,3.0,0.0
568,64.0,15,22,8.0,0.0
569,56.0,30,22,8.0,0.0
570,59.0,14,120,3.0,0.0
571,64.0,0,22,8.0,0.0
572,52.0,4,22,8.0,0.0
573,74.0,8,8,7.0,0.0
574,76.0,3,8,7.0,0.0
575,74.0,17,8,7.0,0.0
576,73.0,10,15,7.0,0.0
577,64.0,5,22,8.0,0.0
578,74.0,11,15,7.0,0.0
579,73.0,5,55,7.0,0.0
580,57.0,26,22,8.0,0.0
581,61.0,14,60,3.0,0.0
582,64.0,15,22,8.0,0.0
583,76.0,13,120,7.0,0.0
584,55.0,29,22,8.0,0.0
585,59.0,13,60,3.0,0.0
586,64.0,17,22,8.0,0.0
587,54.0,32,22,8.0,0.0
588,58.0,2,60,3.0,0.0
589,64.0,2,22,8.0,0.0
590,59.0,5,22,8.0,0.0
591,74.0,9,8,7.0,0.0
592,59.0,14,60,3.0,0.0
593,76.0,2,8,7.0,0.0
594,74.0,16,8,7.0,0.0
595,73.0,10,15,7.0,0.0
596,64.0,4,22,8.0,0.0
597,76.0,12,15,7.0,0.0
598,73.0,3,55,7.0,0.0
599,58.0,28,22,8.0,0.0
600,61.0,15,120,3.0,0.0
601,64.0,29,22,8.0,0.0
602,76.0,17,120,7.0,0.0
603,55.0,31,22,8.0,0.0
604,67.0,15,22,8.0,0.0
605,56.0,29,22,8.0,0.0
606,66.0,15,120,3.0,0.0
607,68.0,1,22,8.0,0.0
608,60.0,3,22,8.0,0.0
609,75.0,8,8,7.0,0.0
610,76.0,5,8,7.0,0.0
611,75.0,15,8,7.0,0.0
612,73.0,10,15,7.0,0.0
613,68.0,4,22,8.0,0.0
614,75.0,13,15,7.0,0.0
615,73.0,2,55,7.0,0.0
616,61.0,27,22,8.0,0.0
617,64.0,11,480,3.0,0.0
618,68.0,30,22,8.0,0.0
619,76.0,5,85,7.0,0.0
620,56.0,31,22,8.0,0.0
621,68.0,25,22,8.0,0.0
622,61.0,30,22,8.0,0.0
623,73.0,28,30,7.0,0.0
624,68.0,2,22,8.0,0.0
625,76.0,1,85,7.0,0.0
626,56.0,29,22,8.0,0.0
627,68.0,28,22,8.0,0.0
628,61.0,30,22,8.0,0.0
629,73.0,29,30,7.0,0.0
630,68.0,3,22,8.0,0.0
631,76.0,5,85,7.0,0.0
632,56.0,28,22,8.0,0.0
633,68.0,27,22,8.0,0.0
634,61.0,29,22,8.0,0.0
635,73.0,30,30,7.0,0.0
636,68.0,1,22,8.0,0.0
637,76.0,7,85,7.0,0.0
638,56.0,45,22,8.0,0.0
639,68.0,29,55,8.0,0.0
640,73.0,4,30,7.0,0.0
641,61.0,19,30,8.0,0.0
642,76.0,5,22,7.0,0.0
643,64.0,32,22,8.0,0.0
644,73.0,4,30,7.0,0.0
645,61.0,20,30,8.0,0.0
646,76.0,2,22,7.0,0.0
647,64.0,34,22,8.0,0.0
648,68.0,4,30,7.0,0.0
649,56.0,20,30,8.0,0.0
650,73.0,4,22,7.0,0.0
651,61.0,32,22,8.0,0.0
652,68.0,6,30,7.0,0.0
653,56.0,17,30,8.0,0.0
654,73.0,5,22,7.0,0.0
655,61.0,33,22,8.0,0.0
656,64.0,3,30,7.0,0.0
657,52.0,20,30,8.0,0.0
658,68.0,2,22,7.0,0.0
659,56.0,35,22,8.0,0.0
660,64.0,5,30,7.0,0.0
661,52.0,18,30,8.0,0.0
662,68.0,4,22,7.0,0.0
663,56.0,32,22,8.0,0.0
664,61.0,4,30,7.0,0.0
665,49.0,19,30,8.0,0.0
666,64.0,3,22,7.0,0.0
667,52.0,35,22,8.0,0.0
668,61.0,4,30,7.0,0.0
669,49.0,18,30,8.0,0.0
670,64.0,5,22,7.0,0.0
671,52.0,34,22,8.0,0.0
672,56.0,3,30,7.0,0.0
673,44.0,18,30,8.0,0.0
674,61.0,4,22,7.0,0.0
675,49.0,33,22,8.0,0.0
676,57.0,6,30,7.0,0.0
677,45.0,17,30,8.0,0.0
678,61.0,5,22,7.0,0.0
679,49.0,33,22,8.0,0.0
680,56.0,3,30,7.0,0.0
681,44.0,18,30,8.0,0.0
682,61.0,4,22,7.0,0.0
683,49.0,34,22,8.0,0.0
684,55.0,6,30,7.0,0.0
685,43.0,16,30,8.0,0.0
686,61.0,6,22,7.0,0.0
687,49.0,34,22,8.0,0.0
688,56.0,3,30,7.0,0.0
689,44.0,19,30,8.0,0.0
690,61.0,4,22,7.0,0.0
691,49.0,34,22,8.0,0.0
692,57.0,2,30,7.0,0.0
693,45.0,19,30,8.0,0.0
694,61.0,4,22,7.0,0.0
695,49.0,33,22,8.0,0.0
696,56.0,6,30,7.0,0.0
697,44.0,18,30,8.0,0.0
698,61.0,2,22,7.0,0.0
699,49.0,34,22,8.0,0.0
700,55.0,5,30,7.0,0.0
701,43.0,18,30,8.0,0.0
702,61.0,3,22,7.0,0.0
703,49.0,34,22,8.0,0.0
704,56.0,4,30,7.0,0.0
705,44.0,20,30,8.0,0.0
706,61.0,3,22,7.0,0.0
707,49.0,33,22,8.0,0.0
708,57.0,6,30,7.0,0.0
709,45.0,18,30,8.0,0.0
710,61.0,2,22,7.0,0.0
711,49.0,34,22,8.0,0.0
712,61.0,6,30,7.0,0.0
713,49.0,17,30,8.0,0.0
714,64.0,4,22,7.0,0.0
715,52.0,33,22,8.0,0.0
716,64.0,6,30,7.0,0.0
717,52.0,16,30,8.0,0.0
718,67.0,5,22,7.0,0.0
719,55.0,35,22,8.0,0.0
720,67.0,4,30,7.0,0.0
721,55.0,18,30,8.0,0.0
722,73.0,2,22,7.0,0.0
723,61.0,34,22,8.0,0.0
724,73.0,5,30,7.0,0.0
725,61.0,17,30,8.0,0.0
726,76.0,4,22,7.0,0.0
727,64.0,36,22,8.0,0.0
728,76.0,3,30,7.0,0.0
729,64.0,17,30,8.0,0.0
730,79.0,4,22,7.0,0.0
731,67.0,34,22,8.0,0.0
732,79.0,4,30,7.0,0.0
733,67.0,18,30,8.0,0.0
734,85.0,4,22,7.0,0.0
735,73.0,34,22,8.0,0.0
736,85.0,6,30,7.0,0.0
737,73.0,16,30,8.0,0.0
738,88.0,4,22,7.0,0.0
739,76.0,34,22,8.0,0.0
740,88.0,5,30,7.0,0.0
741,76.0,15,30,8.0,0.0
742,91.0,5,20,7.0,0.0
743,79.0,17,20,8.0,0.0
744,89.0,4,20,7.0,0.0
745,77.0,14,20,8.0,0.0
746,88.0,4,20,7.0,0.0
747,76.0,17,20,8.0,0.0
748,86.0,5,20,7.0,0.0
749,74.0,16,20,8.0,0.0
750,85.0,4,20,7.0,0.0
751,73.0,16,20,8.0,0.0
752,82.0,4,20,7.0,0.0
753,70.0,14,20,8.0,0.0
754,81.0,6,20,7.0,0.0
755,69.0,15,20,8.0,0.0
756,79.0,3,20,7.0,0.0
757,67.0,18,20,8.0,0.0
758,77.0,2,20,7.0,0.0
759,65.0,17,20,8.0,0.0
760,76.0,5,20,7.0,0.0
761,64.0,14,20,8.0,0.0
762,74.0,6,20,7.0,0.0
763,62.0,15,20,8.0,0.0
764,73.0,5,20,7.0,0.0
765,61.0,12,20,8.0,0.0
766,70.0,3,16,7.0,0.0
767,58.0,11,16,8.0,0.0
768,69.0,6,16,7.0,0.0
769,57.0,11,16,8.0,0.0
770,67.0,4,16,7.0,0.0
771,55.0,11,16,8.0,0.0
772,65.0,4,16,7.0,0.0
773,53.0,13,16,8.0,0.0
774,64.0,4,16,7.0,0.0
775,52.0,13,16,8.0,0.0
776,62.0,3,16,7.0,0.0
777,50.0,13,16,8.0,0.0
778,61.0,4,16,7.0,0.0
779,49.0,12,16,8.0,0.0
780,58.0,4,16,7.0,0.0
781,46.0,12,16,8.0,0.0
782,57.0,4,16,7.0,0.0
783,45.0,13,16,8.0,0.0
784,55.0,3,16,7.0,0.0
785,43.0,13,16,8.0,0.0
786,53.0,3,16,7.0,0.0
787,41.0,12,16,8.0,0.0
788,52.0,5,16,7.0,0.0
789,40.0,12,16,8.0,0.0
790,50.0,4,16,7.0,0.0
791,38.0,12,16,8.0,0.0
792,49.0,4,16,7.0,0.0
793,37.0,11,16,8.0,0.0
794,46.0,4,16,7.0,0.0
795,34.0,22,16,8.0,0.0
796,57.0,4,30,7.0,0.0
797,45.0,26,30,7.0,0.0
798,33.0,0,22,8.0,0.0
799,57.0,1,60,12.0,0.0
800,45.0,5,60,13.0,0.0
801,33.0,13,60,14.0,0.0
802,55.0,10,22,8.0,0.0
803,62.0,8,120,7.0,0.0
804,53.0,30,22,8.0,0.0
805,52.0,30,22,8.0,0.0
806,57.0,23,30,4.0,0.0
807,53.0,8,22,8.0,0.0
808,57.0,1,60,12.0,0.0
809,53.0,5,60,13.0,0.0
810,41.0,3,60,14.0,0.0
811,57.0,2,22,8.0,0.0
812,57.0,12,30,4.0,0.0
813,55.0,3,22,8.0,0.0
814,55.0,1,60,12.0,0.0
815,64.0,7,8,7.0,0.0
816,52.0,5,60,13.0,0.0
817,40.0,13,60,14.0,0.0
818,65.0,4,8,7.0,0.0
819,64.0,4,8,7.0,0.0
820,62.0,10,15,7.0,0.0
821,52.0,5,22,8.0,0.0
822,64.0,6,15,7.0,0.0
823,65.0,7,30,7.0,0.0
824,57.0,22,30,4.0,0.0
825,50.0,1,22,8.0,0.0
826,53.0,1,60,12.0,0.0
827,50.0,5,60,13.0,0.0
828,38.0,14,60,14.0,0.0
829,53.0,11,22,8.0,0.0
830,69.0,1,30,7.0,0.0
831,64.0,4,30,7.0,0.0
832,57.0,23,30,4.0,0.0
833,52.0,2,22,8.0,0.0
834,52.0,1,60,12.0,0.0
835,48.0,5,60,13.0,0.0
836,36.0,13,60,14.0,0.0
837,48.0,10,22,8.0,0.0
838,74.0,2,85,7.0,0.0
839,65.0,3,85,7.0,0.0
840,62.0,21,30,4.0,0.0
841,46.0,8,22,8.0,0.0
842,50.0,1,60,12.0,0.0
843,46.0,5,60,13.0,0.0
844,34.0,9,60,14.0,0.0
845,50.0,12,22,8.0,0.0
846,45.0,26,22,8.0,0.0
847,45.0,5,60,13.0,0.0
848,33.0,14,60,14.0,0.0
849,74.0,2,25,7.0,0.0
850,65.0,12,25,7.0,0.0
851,50.0,1,22,8.0,0.0
852,73.0,0,30,7.0,0.0
853,64.0,5,30,7.0,0.0
854,50.0,18,30,4.0,0.0
855,62.0,0,30,4.0,0.0
856,43.0,2,22,8.0,0.0
857,62.0,1,60,12.0,0.0
858,43.0,4,60,13.0,0.0
859,31.0,3,60,14.0,0.0
860,74.0,2,25,7.0,0.0
861,65.0,1,25,7.0,0.0
862,50.0,12,22,8.0,0.0
863,76.0,1,15,7.0,0.0
864,67.0,11,15,7.0,0.0
865,50.0,10,30,4.0,0.0
866,62.0,0,30,4.0,0.0
867,41.0,7,22,8.0,0.0
868,62.0,1,60,12.0,0.0
869,41.0,5,60,13.0,0.0
870,29.0,12,60,14.0,0.0
871,77.0,1,15,7.0,0.0
872,69.0,10,15,7.0,0.0
873,50.0,12,22,8.0,0.0
874,73.0,2,60,7.0,0.0
875,64.0,8,60,7.0,0.0
876,45.0,9,22,8.0,0.0
877,57.0,0,30,4.0,0.0
878,45.0,21,30,4.0,0.0
879,57.0,1,60,12.0,0.0
880,45.0,5,60,13.0,0.0
881,33.0,12,60,14.0,0.0
882,57.0,2,22,8.0,0.0
883,58.0,31,22,8.0,0.0
884,74.0,3,30,7.0,0.0
885,65.0,24,30,7.0,0.0
886,57.0,2,22,8.0,0.0
887,73.0,1,30,7.0,0.0
888,64.0,4,30,7.0,0.0
889,41.0,4,22,8.0,0.0
890,69.0,18,30,4.0,0.0
891,57.0,0,30,4.0,0.0
892,41.0,4,60,13.0,0.0
893,29.0,1,60,14.0,0.0
894,74.0,2,25,7.0,0.0
895,65.0,2,25,7.0,0.0
896,53.0,11,22,8.0,0.0
897,76.0,1,15,7.0,0.0
898,67.0,12,15,7.0,0.0
899,40.0,8,22,8.0,0.0
900,69.0,9,30,4.0,0.0
901,57.0,0,30,4.0,0.0
902,69.0,1,0,12.0,0.0
903,38.0,5,60,13.0,0.0
904,26.0,13,60,14.0,0.0
905,77.0,2,15,7.0,0.0
906,69.0,11,15,7.0,0.0
907,52.0,11,22,8.0,0.0
908,73.0,2,60,7.0,0.0
909,64.0,7,60,7.0,0.0
910,45.0,22,30,4.0,0.0
911,57.0,0,30,4.0,0.0
912,45.0,8,22,8.0,0.0
913,45.0,5,60,13.0,0.0
914,33.0,14,60,14.0,0.0
915,57.0,2,22,8.0,0.0
916,55.0,13,22,8.0,0.0
917,69.0,5,60,12.0,0.0
918,57.0,1,0,12.0,0.0
919,57.0,1,10,10.0,0.0
920,69.0,1,10,0.0,0.0
921,57.0,2,10,11.0,0.0
922,69.0,2,10,1.0,0.0
923,52.0,3,22,8.0,0.0
924,69.0,4,10,2.0,0.0
925,59.0,1,10,10.0,0.0
926,71.0,1,10,0.0,0.0
927,59.0,2,10,11.0,0.0
928,57.0,0,10,3.0,0.0
929,71.0,2,10,1.0,0.0
930,71.0,1,10,2.0,0.0
931,61.0,1,10,10.0,0.0
932,73.0,1,10,0.0,0.0
933,59.0,2,10,3.0,0.0
934,61.0,0,10,11.0,0.0
935,73.0,2,10,1.0,0.0
936,73.0,1,10,2.0,0.0
937,62.0,1,30,10.0,0.0
938,74.0,1,30,0.0,0.0
939,62.0,0,30,11.0,0.0
940,61.0,16,10,3.0,0.0
941,62.0,0,60,6.0,0.0
942,74.0,0,60,6.0,0.0
943,74.0,2,30,1.0,0.0
944,50.0,24,360,4.0,0.0
945,62.0,0,360,4.0,0.0
946,50.0,2,60,8.0,0.0
947,74.0,22,30,2.0,0.0
948,57.0,8,60,12.0,0.0
949,68.0,0,60,12.0,0.0
950,62.0,2,20,13.0,0.0
951,62.0,1,20,3.0,0.0
952,50.0,1,20,14.0,0.0
953,50.0,13,60,15.0,0.0
954,60.0,4,20,13.0,0.0
955,60.0,1,20,3.0,0.0
956,48.0,2,20,14.0,0.0
957,67.0,0,105,10.0,0.0
958,79.0,1,105,0.0,0.0
959,67.0,2,105,11.0,0.0
960,67.0,0,105,1.0,0.0
961,79.0,2,105,1.0,0.0
962,67.0,7,105,2.0,0.0
963,74.0,0,105,2.0,0.0
964,58.0,0,80,12.0,0.0
965,62.0,1,80,12.0,0.0
966,58.0,4,20,13.0,0.0
967,58.0,1,20,3.0,0.0
968,46.0,25,20,14.0,0.0
969,57.0,4,20,13.0,0.0
970,57.0,1,20,3.0,0.0
971,45.0,24,20,14.0,0.0
972,74.0,0,30,6.0,0.0
973,62.0,0,30,6.0,0.0
974,58.0,4,20,13.0,0.0
975,58.0,1,20,3.0,0.0
976,46.0,12,20,14.0,0.0
977,50.0,1,30,15.0,0.0
978,50.0,1,30,12.0,0.0
979,62.0,4,20,13.0,0.0
980,62.0,1,20,3.0,0.0
981,50.0,4,20,14.0,0.0
982,70.0,1,8,10.0,0.0
983,82.0,1,8,0.0,0.0
984,70.0,2,8,11.0,0.0
985,62.0,0,30,6.0,0.0
986,74.0,1,30,6.0,0.0
987,82.0,2,8,1.0,0.0
988,70.0,0,8,1.0,0.0
989,70.0,1,8,2.0,0.0
990,79.0,0,8,2.0,0.0
991,69.0,1,8,10.0,0.0
992,62.0,7,30,12.0,0.0
993,81.0,1,8,0.0,0.0
994,60.0,1,20,13.0,0.0
995,69.0,2,8,11.0,0.0
996,81.0,0,8,1.0,0.0
997,69.0,2,8,1.0,0.0
998,60.0,1,20,3.0,0.0
999,48.0,0,20,14.0,0.0
1000,69.0,0,8,2.0,0.0
1001,78.0,2,8,2.0,0.0
1002,50.0,1,30,15.0,0.0
1003,70.0,1,8,10.0,0.0
1004,82.0,1,8,0.0,0.0
1005,70.0,2,8,11.0,0.0
1006,70.0,0,8,1.0,0.0
1007,82.0,1,8,1.0,0.0
1008,70.0,1,8,2.0,0.0
1009,79.0,0,8,2.0,0.0
1010,69.0,1,8,10.0,0.0
1011,81.0,1,8,0.0,0.0
1012,69.0,0,8,11.0,0.0
1013,69.0,2,8,1.0,0.0
1014,81.0,0,8,1.0,0.0
1015,78.0,1,8,2.0,0.0
1016,69.0,0,8,2.0,0.0
1017,67.0,0,15,10.0,0.0
1018,79.0,1,15,0.0,0.0
1019,67.0,2,15,11.0,0.0
1020,67.0,0,15,1.0,0.0
1021,79.0,2,15,1.0,0.0
1022,70.0,1,8,2.0,0.0
1023,79.0,0,8,2.0,0.0
1024,50.0,21,30,12.0,0.0
1025,57.0,1,20,13.0,0.0
1026,58.0,1,20,3.0,0.0
1027,78.0,0,8,2.0,0.0
1028,45.0,1,20,14.0,0.0
1029,69.0,7,8,2.0,0.0
1030,69.0,1,15,10.0,0.0
1031,81.0,1,15,0.0,0.0
1032,69.0,0,15,11.0,0.0
1033,81.0,0,15,1.0,0.0
1034,69.0,2,15,1.0,0.0
1035,70.0,0,8,2.0,0.0
1036,79.0,1,8,2.0,0.0
1037,69.0,0,8,2.0,0.0
1038,78.0,1,8,2.0,0.0
1039,70.0,1,30,10.0,0.0
1040,82.0,1,30,0.0,0.0
1041,70.0,0,30,11.0,0.0
1042,74.0,0,30,6.0,0.0
1043,62.0,0,30,6.0,0.0
1044,70.0,2,30,1.0,0.0
1045,82.0,0,30,1.0,0.0
1046,70.0,1,30,2.0,0.0
1047,79.0,0,30,2.0,0.0
1048,62.0,8,30,12.0,0.0
1049,55.0,2,20,13.0,0.0
1050,55.0,1,20,3.0,0.0
1051,43.0,1,20,14.0,0.0
1052,50.0,13,30,15.0,0.0
1053,58.0,4,20,13.0,0.0
1054,58.0,1,20,3.0,0.0
1055,46.0,25,20,14.0,0.0
1056,74.0,1,30,10.0,0.0
1057,86.0,1,30,0.0,0.0
1058,74.0,1,30,11.0,0.0
1059,62.0,0,30,6.0,0.0
1060,74.0,0,30,6.0,0.0
1061,74.0,2,30,1.0,0.0
1062,81.0,0,30,2.0,0.0
1063,74.0,1,30,2.0,0.0
1064,50.0,8,30,12.0,0.0
1065,57.0,2,20,13.0,0.0
1066,57.0,0,20,3.0,0.0
1067,45.0,1,20,14.0,0.0
1068,50.0,13,30,15.0,0.0
1069,53.0,4,20,13.0,0.0
1070,53.0,1,20,3.0,0.0
1071,41.0,1,20,14.0,0.0
1072,79.0,1,75,10.0,0.0
1073,91.0,3,75,0.0,0.0
1074,79.0,6,50,11.0,0.0
1075,79.0,12,30,6.0,0.0
1076,67.0,1,110,4.0,0.0
1077,79.0,0,75,1.0,0.0
1078,70.0,2,75,1.0,0.0
1079,70.0,7,75,2.0,0.0
1080,79.0,0,75,2.0,0.0
1081,51.0,4,20,13.0,0.0
1082,51.0,1,20,3.0,0.0
1083,39.0,0,20,14.0,0.0
1084,50.0,7,30,15.0,0.0
1085,51.0,8,30,12.0,0.0
1086,55.0,4,20,13.0,0.0
1087,55.0,1,20,3.0,0.0
1088,43.0,4,20,14.0,0.0
1089,55.0,17,30,12.0,0.0
1090,50.0,4,20,13.0,0.0
1091,50.0,1,20,3.0,0.0
1092,38.0,4,20,14.0,0.0
1093,77.0,1,25,10.0,0.0
1094,89.0,2,25,0.0,0.0
1095,65.0,1,30,11.0,0.0
1096,77.0,0,25,1.0,0.0
1097,70.0,2,25,1.0,0.0
1098,70.0,1,25,2.0,0.0
1099,77.0,0,25,2.0,0.0
1100,50.0,5,30,12.0,0.0
1101,55.0,1,20,13.0,0.0
1102,55.0,0,20,3.0,0.0
1103,43.0,4,20,14.0,0.0
1104,76.0,1,30,10.0,0.0
1105,82.0,3,87,0.0,0.0
1106,88.0,1,30,0.0,0.0
1107,64.0,5,10,11.0,0.0
1108,70.0,1,87,1.0,0.0
1109,76.0,2,30,1.0,0.0
1110,76.0,2,30,2.0,0.0
1111,70.0,5,87,2.0,0.0
1112,49.0,10,10,12.0,0.0
1113,49.0,4,30,13.0,0.0
1114,49.0,1,30,3.0,0.0
1115,37.0,4,30,14.0,0.0
1116,64.0,3,10,11.0,0.0
1117,49.0,2,10,12.0,0.0
1118,77.0,2,25,10.0,0.0
1119,89.0,3,27,0.0,0.0
1120,64.0,0,10,11.0,0.0
1121,77.0,1,27,1.0,0.0
1122,77.0,9,27,2.0,0.0
1123,49.0,8,10,12.0,0.0
1124,64.0,1,10,11.0,0.0
1125,49.0,1,10,12.0,0.0
1126,79.0,1,15,10.0,0.0
1127,91.0,1,15,0.0,0.0
1128,73.0,3,10,11.0,0.0
1129,79.0,2,15,1.0,0.0
1130,79.0,6,15,2.0,0.0
1131,61.0,2,10,12.0,0.0
1132,45.0,4,30,13.0,0.0
1133,64.0,0,30,3.0,0.0
1134,61.0,0,30,3.0,0.0
1135,33.0,2,30,14.0,0.0
1136,73.0,1,10,11.0,0.0
1137,61.0,1,10,12.0,0.0
1138,81.0,1,15,10.0,0.0
1139,93.0,0,15,0.0,0.0
1140,81.0,1,15,0.0,0.0
1141,73.0,1,10,11.0,0.0
1142,69.0,0,15,1.0,0.0
1143,81.0,2,15,1.0,0.0
1144,81.0,6,15,2.0,0.0
1145,69.0,0,15,2.0,0.0
1146,61.0,2,10,12.0,0.0
1147,73.0,5,10,11.0,0.0
1148,61.0,10,10,12.0,0.0
1149,74.0,2,30,10.0,0.0
1150,86.0,3,87,0.0,0.0
1151,74.0,5,10,11.0,0.0
1152,74.0,1,87,1.0,0.0
1153,74.0,5,87,2.0,0.0
1154,62.0,10,10,12.0,0.0
1155,46.0,4,30,13.0,0.0
1156,62.0,1,30,3.0,0.0
1157,34.0,4,30,14.0,0.0
1158,74.0,3,10,11.0,0.0
1159,62.0,6,10,12.0,0.0
1160,76.0,2,25,10.0,0.0
1161,88.0,3,27,0.0,0.0
1162,74.0,0,10,11.0,0.0
1163,76.0,1,27,1.0,0.0
1164,76.0,9,27,2.0,0.0
1165,62.0,8,10,12.0,0.0
1166,74.0,1,10,11.0,0.0
1167,62.0,1,10,12.0,0.0
1168,77.0,1,15,10.0,0.0
1169,89.0,1,15,0.0,0.0
1170,70.0,3,10,11.0,0.0
1171,77.0,2,15,1.0,0.0
1172,77.0,6,15,2.0,0.0
1173,58.0,2,10,12.0,0.0
1174,43.0,4,30,13.0,0.0
1175,58.0,0,30,3.0,0.0
1176,55.0,1,30,3.0,0.0
1177,31.0,2,30,14.0,0.0
1178,70.0,1,10,11.0,0.0
1179,58.0,1,10,12.0,0.0
1180,79.0,1,15,10.0,0.0
1181,91.0,1,15,0.0,0.0
1182,82.0,0,15,0.0,0.0
1183,70.0,0,10,11.0,0.0
1184,70.0,2,15,1.0,0.0
1185,79.0,0,15,1.0,0.0
1186,70.0,6,15,2.0,0.0
1187,79.0,0,15,2.0,0.0
1188,58.0,2,10,12.0,0.0
1189,70.0,5,10,11.0,0.0
1190,58.0,10,10,12.0,0.0
1191,72.0,2,30,10.0,0.0
1192,84.0,0,87,0.0,0.0
1193,64.0,5,10,11.0,0.0
1194,57.0,1,85,6.0,0.0
1195,69.0,0,85,6.0,0.0
1196,57.0,2,85,4.0,0.0
1197,64.0,0,85,4.0,0.0
1198,72.0,1,87,1.0,0.0
1199,72.0,4,87,2.0,0.0
1200,52.0,10,10,12.0,0.0
1201,45.0,0,85,13.0,0.0
1202,57.0,0,85,3.0,0.0
1203,64.0,1,85,3.0,0.0
1204,33.0,2,85,14.0,0.0
1205,45.0,2,85,15.0,0.0
1206,64.0,3,10,11.0,0.0
1207,52.0,10,10,12.0,0.0
1208,74.0,2,25,10.0,0.0
1209,86.0,3,27,0.0,0.0
1210,64.0,5,10,11.0,0.0
1211,74.0,1,27,1.0,0.0
1212,74.0,9,27,2.0,0.0
1213,52.0,8,10,12.0,0.0
1214,64.0,1,10,11.0,0.0
1215,52.0,1,10,12.0,0.0
1216,76.0,1,15,10.0,0.0
1217,88.0,1,15,0.0,0.0
1218,72.0,3,10,11.0,0.0
1219,76.0,2,15,1.0,0.0
1220,76.0,6,15,2.0,0.0
1221,60.0,2,10,12.0,0.0
1222,72.0,1,10,11.0,0.0
1223,60.0,1,10,12.0,0.0
1224,77.0,1,15,10.0,0.0
1225,89.0,0,15,0.0,0.0
1226,84.0,1,15,0.0,0.0
1227,72.0,3,10,11.0,0.0
1228,57.0,0,25,6.0,0.0
1229,69.0,1,25,6.0,0.0
1230,77.0,2,15,1.0,0.0
1231,57.0,3,25,4.0,0.0
1232,64.0,0,25,4.0,0.0
1233,72.0,0,15,1.0,0.0
1234,77.0,6,15,2.0,0.0
1235,72.0,0,15,2.0,0.0
1236,60.0,2,10,12.0,0.0
1237,45.0,4,25,13.0,0.0
1238,57.0,0,25,3.0,0.0
1239,60.0,1,25,3.0,0.0
1240,33.0,2,25,14.0,0.0
1241,45.0,2,25,15.0,0.0
1242,72.0,1,10,11.0,0.0
1243,60.0,1,10,12.0,0.0
1244,70.0,1,60,10.0,0.0
1245,86.0,0,60,0.0,0.0
1246,82.0,1,60,0.0,0.0
1247,62.0,5,10,11.0,0.0
1248,74.0,1,60,6.0,0.0
1249,62.0,0,60,6.0,0.0
1250,70.0,0,60,1.0,0.0
1251,74.0,2,60,1.0,0.0
1252,62.0,0,60,4.0,0.0
1253,74.0,0,60,2.0,0.0
1254,70.0,2,60,2.0,0.0
1255,50.0,10,10,12.0,0.0
1256,46.0,4,60,13.0,0.0
1257,58.0,0,60,3.0,0.0
1258,34.0,2,60,14.0,0.0
1259,50.0,2,60,15.0,0.0
1260,62.0,5,10,11.0,0.0
1261,50.0,10,10,12.0,0.0
1262,64.0,5,10,11.0,0.0
1263,52.0,10,10,12.0,0.0
1264,64.0,3,10,11.0,0.0
1265,52.0,1,10,12.0,0.0
1266,65.0,1,10,11.0,0.0
1267,53.0,10,10,12.0,0.0
1268,65.0,5,10,11.0,0.0
1269,53.0,10,10,12.0,0.0
1270,74.0,1,30,10.0,0.0
1271,86.0,1,30,0.0,0.0
1272,67.0,5,10,11.0,0.0
1273,70.0,0,30,1.0,0.0
1274,74.0,2,30,1.0,0.0
1275,70.0,6,30,2.0,0.0
1276,74.0,0,30,2.0,0.0
1277,55.0,10,10,12.0,0.0
1278,67.0,3,10,11.0,0.0
1279,55.0,2,10,12.0,0.0
1280,72.0,2,30,10.0,0.0
1281,84.0,3,87,0.0,0.0
1282,60.0,5,10,11.0,0.0
1283,72.0,1,87,1.0,0.0
1284,72.0,5,87,2.0,0.0
1285,52.0,10,10,12.0,0.0
1286,45.0,4,30,13.0,0.0
1287,45.0,1,30,3.0,0.0
1288,57.0,0,30,3.0,0.0
1289,33.0,4,30,14.0,0.0
1290,60.0,3,10,11.0,0.0
1291,52.0,6,10,12.0,0.0
1292,74.0,2,25,10.0,0.0
1293,86.0,3,27,0.0,0.0
1294,60.0,0,10,11.0,0.0
1295,74.0,1,27,1.0,0.0
1296,74.0,9,27,2.0,0.0
1297,52.0,8,10,12.0,0.0
1298,60.0,1,10,11.0,0.0
1299,52.0,1,10,12.0,0.0
1300,76.0,1,15,10.0,0.0
1301,88.0,1,15,0.0,0.0
1302,69.0,3,10,11.0,0.0
1303,76.0,2,15,1.0,0.0
1304,76.0,6,15,2.0,0.0
1305,57.0,2,10,12.0,0.0
1306,41.0,4,30,13.0,0.0
1307,57.0,0,30,3.0,0.0
1308,60.0,0,30,3.0,0.0
1309,29.0,2,30,14.0,0.0
1310,69.0,1,10,11.0,0.0
1311,57.0,1,10,12.0,0.0
1312,77.0,1,15,10.0,0.0
1313,81.0,0,15,0.0,0.0
1314,89.0,1,15,0.0,0.0
1315,69.0,1,10,11.0,0.0
1316,77.0,0,15,1.0,0.0
1317,69.0,2,15,1.0,0.0
1318,77.0,0,15,2.0,0.0
1319,69.0,6,15,2.0,0.0
1320,57.0,2,10,12.0,0.0
1321,69.0,5,10,11.0,0.0
1322,57.0,10,10,12.0,0.0
1323,70.0,2,30,10.0,0.0
1324,82.0,3,87,0.0,0.0
1325,70.0,5,10,11.0,0.0
1326,70.0,1,87,1.0,0.0
1327,70.0,5,87,2.0,0.0
1328,58.0,10,10,12.0,0.0
1329,43.0,4,30,13.0,0.0
1330,58.0,1,30,3.0,0.0
1331,55.0,0,30,3.0,0.0
1332,31.0,4,30,14.0,0.0
1333,70.0,3,10,11.0,0.0
1334,58.0,6,10,12.0,0.0
1335,72.0,2,25,10.0,0.0
1336,84.0,3,27,0.0,0.0
1337,70.0,0,10,11.0,0.0
1338,72.0,1,27,1.0,0.0
1339,72.0,9,27,2.0,0.0
1340,58.0,8,10,12.0,0.0
1341,70.0,1,10,11.0,0.0
1342,58.0,1,10,12.0,0.0
1343,74.0,1,15,10.0,0.0
1344,86.0,1,15,0.0,0.0
1345,67.0,3,10,11.0,0.0
1346,74.0,2,15,1.0,0.0
1347,74.0,6,15,2.0,0.0
1348,55.0,2,10,12.0,0.0
1349,40.0,4,30,13.0,0.0
1350,55.0,0,30,3.0,0.0
1351,28.0,2,30,14.0,0.0
1352,67.0,1,10,11.0,0.0
1353,55.0,1,10,12.0,0.0
1354,76.0,1,15,10.0,0.0
1355,88.0,1,15,0.0,0.0
1356,79.0,0,15,0.0,0.0
1357,67.0,1,10,11.0,0.0
1358,67.0,2,15,1.0,0.0
1359,76.0,0,15,1.0,0.0
1360,67.0,6,15,2.0,0.0
1361,76.0,0,15,2.0,0.0
1362,55.0,2,10,12.0,0.0
1363,67.0,5,10,11.0,0.0
1364,55.0,10,10,12.0,0.0
1365,69.0,2,30,10.0,0.0
1366,81.0,3,87,0.0,0.0
1367,60.0,5,10,11.0,0.0
1368,69.0,1,87,1.0,0.0
1369,69.0,4,87,2.0,0.0
1370,53.0,0,75,5.0,0.0
1371,60.0,6,75,5.0,0.0
1372,48.0,10,10,12.0,0.0
1373,41.0,0,85,13.0,0.0
1374,53.0,1,85,3.0,0.0
1375,60.0,0,85,3.0,0.0
1376,29.0,2,85,14.0,0.0
1377,45.0,2,85,15.0,0.0
1378,60.0,3,10,11.0,0.0
1379,48.0,10,10,12.0,0.0
1380,70.0,2,25,10.0,0.0
1381,82.0,3,27,0.0,0.0
1382,60.0,5,10,11.0,0.0
1383,70.0,1,27,1.0,0.0
1384,70.0,9,27,2.0,0.0
1385,48.0,8,10,12.0,0.0
1386,60.0,1,10,11.0,0.0
1387,48.0,1,10,12.0,0.0
1388,72.0,1,15,10.0,0.0
1389,84.0,1,15,0.0,0.0
1390,69.0,3,10,11.0,0.0
1391,72.0,2,15,1.0,0.0
1392,72.0,0,15,2.0,0.0
1393,57.0,2,10,12.0,0.0
1394,69.0,1,10,11.0,0.0
1395,57.0,1,10,12.0,0.0
1396,74.0,1,15,10.0,0.0
1397,86.0,0,15,0.0,0.0
1398,81.0,1,15,0.0,0.0
1399,69.0,3,10,11.0,0.0
1400,69.0,0,15,1.0,0.0
1401,74.0,2,15,1.0,0.0
1402,69.0,6,15,2.0,0.0
1403,53.0,0,25,5.0,0.0
1404,74.0,0,15,2.0,0.0
1405,60.0,1,25,5.0,0.0
1406,57.0,2,10,12.0,0.0
1407,41.0,4,25,13.0,0.0
1408,53.0,0,25,3.0,0.0
1409,57.0,0,25,3.0,0.0
1410,29.0,2,25,14.0,0.0
1411,45.0,2,25,15.0,0.0
1412,69.0,4,10,11.0,0.0
1413,57.0,1,10,12.0,0.0
1414,67.0,1,60,10.0,0.0
1415,82.0,1,60,0.0,0.0
1416,79.0,0,60,0.0,0.0
1417,58.0,1,5,11.0,0.0
1418,67.0,0,60,1.0,0.0
1419,70.0,2,60,1.0,0.0
1420,67.0,0,60,2.0,0.0
1421,58.0,0,60,5.0,0.0
1422,50.0,2,60,5.0,0.0
1423,70.0,0,60,2.0,0.0
1424,58.0,15,5,12.0,0.0
1425,43.0,4,60,13.0,0.0
1426,58.0,0,60,3.0,0.0
1427,55.0,0,60,3.0,0.0
1428,31.0,2,60,14.0,0.0
1429,50.0,2,60,15.0,0.0
1430,58.0,5,10,11.0,0.0
1431,58.0,10,10,12.0,0.0
1432,60.0,5,10,11.0,0.0
1433,60.0,10,10,12.0,0.0
1434,60.0,3,10,11.0,0.0
1435,60.0,2,10,12.0,0.0
1436,62.0,1,10,11.0,0.0
1437,62.0,10,10,12.0,0.0
1438,62.0,5,10,11.0,0.0
1439,62.0,10,10,12.0,0.0
1440,70.0,2,25,10.0,0.0
1441,64.0,5,10,11.0,0.0
1442,65.0,8,10,12.0,0.0
1443,62.0,5,25,13.0,0.0
1444,31.0,25,25,14.0,0.0
1445,64.0,5,10,11.0,0.0
1446,65.0,1,10,12.0,0.0
1447,70.0,2,90,10.0,0.0
1448,67.0,1,90,11.0,0.0
1449,64.0,23,90,12.0,0.0
1450,60.0,30,25,13.0,0.0
1451,36.0,17,60,14.0,0.0
1452,60.0,10,25,13.0,0.0
1453,60.0,4,25,13.0,0.0
1454,69.0,2,30,10.0,0.0
1455,69.0,1,30,11.0,0.0
1456,65.0,26,30,12.0,0.0
1457,60.0,4,25,13.0,0.0
1458,72.0,2,60,10.0,0.0
1459,67.0,1,60,11.0,0.0
1460,64.0,26,60,12.0,0.0
1461,60.0,27,25,13.0,0.0
1462,60.0,4,25,13.0,0.0
1463,60.0,27,25,13.0,0.0
1464,65.0,2,30,10.0,0.0
1465,65.0,1,30,11.0,0.0
1466,62.0,26,30,12.0,0.0
1467,60.0,4,25,13.0,0.0
1468,72.0,2,90,10.0,0.0
1469,67.0,1,90,11.0,0.0
1470,64.0,23,90,12.0,0.0
1471,60.0,30,25,13.0,0.0
1472,60.0,27,25,13.0,0.0
1473,60.0,4,25,13.0,0.0
1474,69.0,2,30,10.0,0.0
1475,69.0,1,30,11.0,0.0
1476,65.0,26,30,12.0,0.0
1477,60.0,4,25,13.0,0.0
1478,72.0,2,60,10.0,0.0
1479,67.0,1,60,11.0,0.0
1480,64.0,26,60,12.0,0.0
1481,60.0,27,25,13.0,0.0
1482,60.0,4,25,13.0,0.0
1483,60.0,27,25,13.0,0.0
1484,65.0,2,30,10.0,0.0
1485,65.0,1,30,11.0,0.0
1486,62.0,26,30,12.0,0.0
1487,60.0,4,25,13.0,0.0
1488,72.0,2,90,10.0,0.0
1489,67.0,1,90,11.0,0.0
1490,64.0,23,90,12.0,0.0
1491,60.0,30,25,13.0,0.0
1492,60.0,27,25,13.0,0.0
1493,60.0,4,25,13.0,0.0
1494,68.0,2,30,10.0,0.0
1495,65.0,1,30,11.0,0.0
1496,65.0,26,30,12.0,0.0
1497,60.0,4,25,13.0,0.0
1498,72.0,2,60,10.0,0.0
1499,67.0,1,60,11.0,0.0
1500,64.0,26,60,12.0,0.0
1501,60.0,27,25,13.0,0.0
1502,60.0,4,25,13.0,0.0
1503,60.0,27,25,13.0,0.0
1504,65.0,2,30,10.0,0.0
1505,65.0,1,30,11.0,0.0
1506,62.0,26,30,12.0,0.0
1507,60.0,4,25,13.0,0.0
1508,72.0,2,60,10.0,0.0
1509,67.0,1,60,11.0,0.0
1510,64.0,26,60,12.0,0.0
1511,60.0,27,25,13.0,0.0
1512,60.0,4,25,13.0,0.0
1513,60.0,27,25,13.0,0.0
1514,65.0,2,30,10.0,0.0
1515,65.0,1,30,11.0,0.0
1516,62.0,26,30,12.0,0.0
1517,60.0,4,25,13.0,0.0
1518,72.0,2,60,10.0,0.0
1519,67.0,1,60,11.0,0.0
1520,64.0,26,60,12.0,0.0
1521,60.0,27,25,13.0,0.0
1522,60.0,4,25,13.0,0.0
1523,60.0,27,25,13.0,0.0
1524,65.0,2,30,10.0,0.0
1525,65.0,1,30,11.0,0.0
1526,62.0,113,30,12.0,0.0
1527,60.0,4,25,13.0,0.0
1528,72.0,2,120,10.0,0.0
1529,67.0,5,120,11.0,0.0
1530,64.0,1,120,12.0,0.0
1531,60.0,18,120,13.0,0.0
1532,36.0,56,115,8.0,0.0
1533,48.0,2,85,8.0,0.0
1534,60.0,26,115,7.0,0.0
1535,72.0,0,85,7.0,0.0
1536,60.0,37,104,5.0,0.0
1537,36.0,58,115,8.0,0.0
1538,48.0,0,85,8.0,0.0
1539,60.0,1,115,7.0,0.0
1540,72.0,24,85,7.0,0.0
1541,60.0,37,104,5.0,0.0
1542,36.0,0,115,8.0,0.0
1543,48.0,58,85,8.0,0.0
1544,60.0,1,115,7.0,0.0
1545,72.0,26,240,10.0,0.0
1546,72.0,24,85,7.0,0.0
1547,60.0,37,104,5.0,0.0
1548,72.0,19,360,12.0,0.0
1549,36.0,57,115,8.0,0.0
1550,48.0,1,85,8.0,0.0
1551,60.0,1,115,7.0,0.0
1552,72.0,34,85,7.0,0.0
1553,72.0,2,600,1.0,0.0
1554,60.0,1,600,5.0,0.0
1555,36.0,58,115,8.0,0.0
1556,48.0,1,85,8.0,0.0
1557,61.0,1,115,7.0,0.0
1558,73.0,7,120,10.0,0.0
1559,73.0,34,85,7.0,0.0
1560,48.0,57,115,8.0,0.0
1561,60.0,1,85,8.0,0.0
1562,62.0,35,115,7.0,0.0
1563,74.0,1,85,7.0,0.0
1564,74.0,7,120,10.0,0.0
1565,70.0,20,120,12.0,0.0
1566,48.0,0,115,8.0,0.0
1567,60.0,58,85,8.0,0.0
1568,70.0,0,115,7.0,0.0
1569,82.0,35,85,7.0,0.0
1570,82.0,6,120,10.0,0.0
1571,70.0,1,120,2.0,0.0
1572,79.0,0,120,2.0,0.0
1573,64.0,20,120,12.0,0.0
1574,48.0,1,115,8.0,0.0
1575,60.0,56,85,8.0,0.0
1576,69.0,34,115,7.0,0.0
1577,81.0,2,85,7.0,0.0
1578,81.0,4,120,10.0,0.0
1579,69.0,0,120,2.0,0.0
1580,77.0,0,120,2.0,0.0
1581,65.0,20,120,12.0,0.0
1582,48.0,1,115,8.0,0.0
1583,60.0,57,85,8.0,0.0
1584,60.0,1,115,7.0,0.0
1585,72.0,24,85,7.0,0.0
1586,60.0,37,104,5.0,0.0
1587,36.0,1,115,8.0,0.0
1588,48.0,56,85,8.0,0.0
1589,60.0,0,115,7.0,0.0
1590,72.0,26,85,7.0,0.0
1591,60.0,38,104,5.0,0.0
1592,36.0,57,115,8.0,0.0
1593,48.0,0,85,8.0,0.0
1594,60.0,24,115,7.0,0.0
1595,72.0,26,240,10.0,0.0
1596,72.0,1,85,7.0,0.0
1597,60.0,36,104,5.0,0.0
1598,72.0,19,360,12.0,0.0
1599,36.0,58,115,8.0,0.0
1600,48.0,0,85,8.0,0.0
1601,60.0,34,115,7.0,0.0
1602,72.0,2,85,7.0,0.0
1603,72.0,2,595,1.0,0.0
1604,60.0,0,595,5.0,0.0
1605,36.0,2,115,8.0,0.0
1606,48.0,56,85,8.0,0.0
1607,60.0,34,115,7.0,0.0
1608,72.0,2,85,7.0,0.0
1609,72.0,7,120,10.0,0.0
1610,48.0,0,115,8.0,0.0
1611,60.0,58,85,8.0,0.0
1612,61.0,34,115,7.0,0.0
1613,73.0,2,85,7.0,0.0
1614,73.0,7,120,10.0,0.0
1615,70.0,20,120,12.0,0.0
1616,48.0,57,115,8.0,0.0
1617,60.0,0,85,8.0,0.0
1618,70.0,34,115,7.0,0.0
1619,82.0,2,85,7.0,0.0
1620,82.0,1,120,10.0,0.0
1621,79.0,6,120,0.0,0.0
1622,88.0,0,120,0.0,0.0
1623,67.0,20,120,12.0,0.0
1624,48.0,59,115,8.0,0.0
1625,60.0,0,85,8.0,0.0
1626,68.0,29,115,7.0,0.0
1627,80.0,4,115,10.0,0.0
1628,89.0,0,120,0.0,0.0
1629,80.0,6,120,0.0,0.0
1630,80.0,0,85,7.0,0.0
1631,65.0,19,120,12.0,0.0
1632,48.0,2,115,8.0,0.0
1633,60.0,56,85,8.0,0.0
1634,60.0,2,115,7.0,0.0
1635,72.0,22,85,7.0,0.0
1636,72.0,2,104,1.0,0.0
1637,60.0,38,104,5.0,0.0
1638,36.0,0,115,8.0,0.0
1639,48.0,57,85,8.0,0.0
1640,60.0,23,115,7.0,0.0
1641,72.0,0,85,7.0,0.0
1642,72.0,2,104,1.0,0.0
1643,60.0,36,104,5.0,0.0
1644,36.0,0,115,8.0,0.0
1645,48.0,59,85,8.0,0.0
1646,60.0,22,115,7.0,0.0
1647,72.0,1,85,7.0,0.0
1648,72.0,2,240,10.0,0.0
1649,60.0,2,240,11.0,0.0
1650,72.0,2,104,1.0,0.0
1651,60.0,37,104,5.0,0.0
1652,36.0,57,115,8.0,0.0
1653,48.0,1,85,8.0,0.0
1654,60.0,1,115,7.0,0.0
1655,72.0,34,85,7.0,0.0
1656,72.0,22,120,1.0,0.0
1657,60.0,1,240,5.0,0.0
1658,60.0,1,240,12.0,0.0
1659,48.0,18,240,13.0,0.0
1660,36.0,1,115,8.0,0.0
1661,48.0,58,85,8.0,0.0
1662,61.0,1,115,7.0,0.0
1663,73.0,2,120,10.0,0.0
1664,73.0,34,85,7.0,0.0
1665,61.0,4,120,11.0,0.0
1666,73.0,2,960,1.0,0.0
1667,48.0,0,115,8.0,0.0
1668,60.0,58,85,8.0,0.0
1669,65.0,34,115,7.0,0.0
1670,77.0,2,85,7.0,0.0
1671,77.0,2,120,10.0,0.0
1672,77.0,1,240,0.0,0.0
1673,65.0,5,120,11.0,0.0
1674,59.0,1,240,5.0,0.0
1675,59.0,1,120,12.0,0.0
1676,47.0,19,120,13.0,0.0
1677,47.0,57,115,8.0,0.0
1678,59.0,1,85,8.0,0.0
1679,73.0,34,115,7.0,0.0
1680,83.0,1,120,10.0,0.0
1681,85.0,1,85,7.0,0.0
1682,85.0,3,720,0.0,0.0
1683,71.0,1,120,11.0,0.0
1684,56.0,5,120,12.0,0.0
1685,44.0,3,115,13.0,0.0
1686,56.0,0,120,3.0,0.0
1687,59.0,15,120,3.0,0.0
1688,44.0,0,115,8.0,0.0
1689,60.0,57,85,8.0,0.0
1690,73.0,1,115,7.0,0.0
1691,85.0,35,85,7.0,0.0
1692,82.0,2,120,10.0,0.0
1693,78.0,5,240,0.0,0.0
1694,70.0,5,120,11.0,0.0
1695,58.0,2,240,5.0,0.0
1696,54.0,1,120,12.0,0.0
1697,42.0,19,120,13.0,0.0
1698,58.0,0,240,3.0,0.0
1699,54.0,14,240,3.0,0.0
1700,42.0,1,115,8.0,0.0
1701,58.0,57,85,8.0,0.0
1702,73.0,1,115,7.0,0.0
1703,85.0,35,85,7.0,0.0
1704,46.0,4,120,13.0,0.0
1705,42.0,58,115,8.0,0.0
1706,58.0,1,85,8.0,0.0
1707,73.0,1,115,7.0,0.0
1708,80.0,5,240,0.0,0.0
1709,85.0,42,85,7.0,0.0
1710,56.0,2,240,5.0,0.0
1711,49.0,18,120,13.0,0.0
1712,56.0,0,240,3.0,0.0
1713,53.0,15,240,3.0,0.0
1714,41.0,2,115,8.0,0.0
1715,56.0,56,85,8.0,0.0
1716,73.0,0,115,7.0,0.0
1717,85.0,37,85,7.0,0.0
1718,53.0,4,120,13.0,0.0
1719,41.0,56,115,8.0,0.0
1720,56.0,1,85,8.0,0.0
1721,73.0,37,115,7.0,0.0
1722,85.0,0,85,7.0,0.0
1723,82.0,0,120,0.0,0.0
1724,55.0,2,120,5.0,0.0
1725,55.0,4,120,13.0,0.0
1726,55.0,0,120,3.0,0.0
1727,52.0,15,120,3.0,0.0
1728,40.0,1,115,8.0,0.0
1729,55.0,57,85,8.0,0.0
1730,73.0,42,115,7.0,0.0
1731,85.0,1,85,7.0,0.0
1732,58.0,18,120,13.0,0.0
1733,40.0,58,115,8.0,0.0
1734,55.0,0,85,8.0,0.0
1735,73.0,0,115,7.0,0.0
1736,84.0,62,85,7.0,0.0
1737,61.0,19,720,13.0,0.0
1738,40.0,56,115,8.0,0.0
1739,55.0,2,85,8.0,0.0
1740,73.0,60,115,7.0,0.0
1741,82.0,2,85,7.0,0.0
1742,40.0,0,115,8.0,0.0
1743,55.0,58,85,8.0,0.0
1744,73.0,63,115,7.0,0.0
1745,80.0,1,85,7.0,0.0
1746,41.0,57,115,8.0,0.0
1747,56.0,0,85,8.0,0.0
1748,73.0,60,115,7.0,0.0
1749,78.0,1,85,7.0,0.0
1750,42.0,2,115,8.0,0.0
1751,58.0,57,85,8.0,0.0
1752,73.0,1,115,7.0,0.0
1753,77.0,60,85,7.0,0.0
1754,44.0,59,115,8.0,0.0
1755,61.0,0,85,8.0,0.0
1756,67.0,43,115,7.0,0.0
1757,76.0,0,85,7.0,0.0
1758,46.0,0,115,8.0,0.0
1759,61.0,58,85,8.0,0.0
1760,65.0,43,115,7.0,0.0
1761,77.0,0,85,7.0,0.0
1762,60.0,19,120,13.0,0.0
1763,44.0,56,115,8.0,0.0
1764,60.0,1,85,8.0,0.0
1765,65.0,40,115,7.0,0.0
1766,71.0,2,85,7.0,0.0
1767,53.0,0,120,5.0,0.0
1768,65.0,2,120,5.0,0.0
1769,53.0,18,120,13.0,0.0
1770,49.0,56,115,8.0,0.0
1771,61.0,2,85,8.0,0.0
1772,65.0,1,115,7.0,0.0
1773,72.0,43,85,7.0,0.0
1774,60.0,1,240,5.0,0.0
1775,48.0,18,120,13.0,0.0
1776,48.0,27,115,8.0,0.0
1777,60.0,1,85,8.0,0.0
1778,58.0,30,85,7.0,0.0
1779,64.0,32,85,7.0,0.0
1780,48.0,1,120,12.0,0.0
1781,36.0,12,120,13.0,0.0
1782,36.0,5,85,8.0,0.0
1783,57.0,4,60,7.0,0.0
1784,48.0,1,60,8.0,0.0
1785,65.0,9,120,7.0,0.0
1786,41.0,30,18,8.0,0.0
1787,53.0,1,120,5.0,0.0
1788,53.0,1,120,12.0,0.0
1789,41.0,12,120,13.0,0.0
1790,57.0,30,18,8.0,0.0
1791,53.0,30,18,8.0,0.0
1792,48.0,7,18,8.0,0.0
1793,67.0,3,60,7.0,0.0
1794,60.0,20,60,7.0,0.0
1795,45.0,30,18,8.0,0.0
1796,57.0,7,18,8.0,0.0
1797,69.0,3,45,7.0,0.0
1798,65.0,5,45,7.0,0.0
1799,53.0,22,18,8.0,0.0
1800,48.0,10,18,8.0,0.0
1801,60.0,20,15,7.0,0.0
1802,72.0,3,120,7.0,0.0
1803,40.0,30,18,8.0,0.0
1804,60.0,30,18,8.0,0.0
1805,55.0,30,18,8.0,0.0
1806,52.0,7,18,8.0,0.0
1807,67.0,20,3,7.0,0.0
1808,64.0,20,60,7.0,0.0
1809,48.0,30,18,8.0,0.0
1810,60.0,7,18,8.0,0.0
1811,72.0,3,60,7.0,0.0
1812,67.0,0,60,7.0,0.0
1813,64.0,20,60,7.0,0.0
1814,55.0,30,18,8.0,0.0
1815,52.0,7,18,8.0,0.0
1816,74.0,3,120,7.0,0.0
1817,69.0,20,120,7.0,0.0
1818,72.0,0,120,7.0,0.0
1819,38.0,30,18,8.0,0.0
1820,62.0,30,18,8.0,0.0
1821,57.0,30,18,8.0,0.0
1822,53.0,7,18,8.0,0.0
1823,74.0,3,34,7.0,0.0
1824,67.0,0,34,7.0,0.0
1825,71.0,0,34,7.0,0.0
1826,65.0,0,0,7.0,0.0
1827,43.0,11,18,8.0,0.0
1828,62.0,21,18,8.0,0.0
1829,76.0,3,34,7.0,0.0
1830,71.0,6,34,7.0,0.0
1831,65.0,0,34,7.0,0.0
1832,67.0,0,34,7.0,0.0
1833,59.0,30,18,8.0,0.0
1834,77.0,3,34,7.0,0.0
1835,65.0,0,34,7.0,0.0
1836,67.0,0,34,7.0,0.0
1837,71.0,26,34,7.0,0.0
1838,55.0,1,18,8.0,0.0
1839,77.0,3,120,7.0,0.0
1840,71.0,20,120,7.0,0.0
1841,67.0,0,120,7.0,0.0
1842,65.0,0,120,7.0,0.0
1843,36.0,30,18,8.0,0.0
1844,62.0,30,18,8.0,0.0
1845,59.0,30,18,8.0,0.0
1846,55.0,7,18,8.0,0.0
1847,76.0,3,60,7.0,0.0
1848,64.0,0,60,7.0,0.0
1849,72.0,20,60,7.0,0.0
1850,48.0,30,18,8.0,0.0
1851,60.0,7,18,8.0,0.0
1852,55.0,30,18,8.0,0.0
1853,52.0,30,18,8.0,0.0
1854,69.0,3,120,7.0,0.0
1855,62.0,8,120,7.0,0.0
1856,65.0,0,120,7.0,0.0
1857,38.0,30,18,8.0,0.0
1858,50.0,12,120,13.0,0.0
1859,57.0,30,18,8.0,0.0
1860,53.0,30,18,8.0,0.0
1861,50.0,7,18,8.0,0.0
1862,74.0,3,60,7.0,0.0
1863,65.0,0,60,7.0,0.0
1864,48.0,30,18,8.0,0.0
1865,48.0,12,120,13.0,0.0
1866,62.0,7,18,8.0,0.0
1867,77.0,3,60,7.0,0.0
1868,69.0,20,0,7.0,0.0
1869,74.0,8,60,7.0,0.0
1870,57.0,30,18,8.0,0.0
1871,53.0,7,18,8.0,0.0
1872,69.0,0,0,7.0,0.0
1873,74.0,8,120,7.0,0.0
1874,47.0,30,18,8.0,0.0
1875,47.0,12,120,13.0,0.0
1876,62.0,30,18,8.0,0.0
1877,57.0,30,18,8.0,0.0
1878,53.0,10,18,8.0,0.0
1879,72.0,0,120,7.0,0.0
1880,45.0,30,18,8.0,0.0
1881,45.0,12,120,13.0,0.0
1882,60.0,8,18,8.0,0.0
1883,81.0,2,0,7.0,0.0
1884,69.0,20,0,7.0,0.0
1885,77.0,0,0,7.0,0.0
1886,57.0,30,18,8.0,0.0
1887,53.0,8,18,8.0,0.0
1888,83.0,2,90,7.0,0.0
1889,71.0,12,90,7.0,0.0
1890,79.0,0,90,7.0,0.0
1891,43.0,30,18,8.0,0.0
1892,43.0,12,120,13.0,0.0
1893,59.0,30,18,8.0,0.0
1894,55.0,8,18,8.0,0.0
1895,84.0,8,15,7.0,0.0
1896,53.0,7,18,8.0,0.0
1897,83.0,11,15,7.0,0.0
1898,81.0,22,60,7.0,0.0
1899,41.0,30,18,8.0,0.0
1900,41.0,12,120,13.0,0.0
1901,62.0,8,18,8.0,0.0
1902,83.0,2,60,7.0,0.0
1903,71.0,8,60,7.0,0.0
1904,79.0,0,60,7.0,0.0
1905,55.0,30,18,8.0,0.0
1906,50.0,8,18,8.0,0.0
1907,84.0,2,60,7.0,0.0
1908,72.0,0,60,7.0,0.0
1909,40.0,30,18,8.0,0.0
1910,40.0,12,120,13.0,0.0
1911,64.0,8,18,8.0,0.0
1912,79.0,20,2,7.0,0.0
1913,72.0,8,60,7.0,0.0
1914,67.0,0,60,7.0,0.0
1915,60.0,30,18,8.0,0.0
1916,55.0,8,18,8.0,0.0
1917,82.0,2,180,7.0,0.0
1918,70.0,20,180,7.0,0.0
1919,73.0,8,120,7.0,0.0
1920,52.0,30,18,8.0,0.0
1921,40.0,12,120,13.0,0.0
1922,67.0,30,18,8.0,0.0
1923,61.0,30,18,8.0,0.0
1924,58.0,10,18,8.0,0.0
1925,72.0,8,120,7.0,0.0
1926,41.0,30,18,8.0,0.0
1927,41.0,12,120,13.0,0.0
1928,65.0,8,18,8.0,0.0
1929,81.0,3,60,7.0,0.0
1930,69.0,0,60,7.0,0.0
1931,60.0,30,18,8.0,0.0
1932,57.0,7,18,8.0,0.0
1933,76.0,3,180,7.0,0.0
1934,73.0,0,180,7.0,0.0
1935,70.0,0,180,7.0,0.0
1936,62.0,8,120,7.0,0.0
1937,43.0,30,18,8.0,0.0
1938,43.0,12,120,13.0,0.0
1939,61.0,30,18,8.0,0.0
1940,58.0,30,18,8.0,0.0
1941,55.0,10,18,8.0,0.0
1942,64.0,20,60,7.0,0.0
1943,44.0,30,18,8.0,0.0
1944,44.0,12,120,13.0,0.0
1945,60.0,7,18,8.0,0.0
1946,77.0,2,60,7.0,0.0
1947,72.0,8,60,7.0,0.0
1948,57.0,30,18,8.0,0.0
1949,53.0,8,18,8.0,0.0
1950,66.0,3,180,7.0,0.0
1951,46.0,30,18,8.0,0.0
1952,46.0,12,120,13.0,0.0
1953,61.0,30,18,8.0,0.0
1954,58.0,30,18,8.0,0.0
1955,53.0,18,18,8.0,0.0
1956,45.0,30,18,8.0,0.0
1957,45.0,12,120,13.0,0.0
1958,60.0,7,18,8.0,0.0
1959,77.0,2,60,7.0,0.0
1960,72.0,8,60,7.0,0.0
1961,65.0,20,0,7.0,0.0
1962,57.0,30,18,8.0,0.0
1963,53.0,8,18,8.0,0.0
1964,67.0,3,180,7.0,0.0
1965,46.0,30,18,8.0,0.0
1966,46.0,12,120,13.0,0.0
1967,62.0,30,18,8.0,0.0
1968,58.0,30,18,8.0,0.0
1969,53.0,18,18,8.0,0.0
1970,48.0,30,18,8.0,0.0
1971,48.0,12,120,13.0,0.0
1972,60.0,7,18,8.0,0.0
1973,69.0,8,45,7.0,0.0
1974,65.0,20,120,7.0,0.0
1975,57.0,22,18,8.0,0.0
1976,53.0,7,18,8.0,0.0
1977,72.0,11,15,7.0,0.0
1978,70.0,3,60,7.0,0.0
1979,48.0,30,18,8.0,0.0
1980,36.0,50,120,13.0,0.0
1981,60.0,7,18,8.0,0.0
1982,67.0,3,60,7.0,0.0
1983,64.0,8,60,7.0,0.0
1984,58.0,30,18,8.0,0.0
1985,55.0,7,18,8.0,0.0
1986,66.0,2,60,7.0,0.0
1987,57.0,2,60,7.0,0.0
1988,63.0,0,60,7.0,0.0
1989,48.0,2,60,8.0,0.0
1990,36.0,4,60,8.0,0.0
1991,36.0,50,60,13.0,0.0
1992,70.0,62,60,7.0,0.0
1993,75.0,2,120,7.0,0.0
1994,69.0,20,60,7.0,0.0
1995,48.0,6,120,8.0,0.0
1996,48.0,50,120,13.0,0.0
1997,57.0,38,40,8.0,0.0
1998,66.0,0,60,7.0,0.0
1999,54.0,2,40,8.0,0.0
2000,74.0,2,60,7.0,0.0
2001,67.0,20,60,7.0,0.0
2002,46.0,38,80,8.0,0.0
2003,46.0,32,120,13.0,0.0
2004,55.0,2,40,8.0,0.0
2005,82.0,1,120,7.0,0.0
2006,70.0,0,120,7.0,0.0
2007,62.0,2,40,8.0,0.0
2008,50.0,6,40,8.0,0.0
2009,55.0,19,40,8.0,0.0
2010,43.0,1,120,8.0,0.0
2011,43.0,55,115,13.0,0.0
2012,67.0,39,40,8.0,0.0
2013,83.0,1,60,7.0,0.0
2014,74.0,20,0,7.0,0.0
2015,71.0,2,60,7.0,0.0
2016,65.0,0,40,8.0,0.0
2017,84.0,2,60,7.0,0.0
2018,79.0,0,60,7.0,0.0
2019,52.0,6,120,8.0,0.0
2020,52.0,52,120,13.0,0.0
2021,64.0,40,40,8.0,0.0
2022,72.0,20,0,7.0,0.0
2023,60.0,0,40,8.0,0.0
2024,77.0,2,120,7.0,0.0
2025,71.0,20,60,7.0,0.0
2026,50.0,6,120,8.0,0.0
2027,50.0,50,120,13.0,0.0
2028,59.0,38,40,8.0,0.0
2029,68.0,2,60,7.0,0.0
2030,56.0,0,40,8.0,0.0
2031,76.0,2,60,7.0,0.0
2032,69.0,20,60,7.0,0.0
2033,48.0,38,80,8.0,0.0
2034,48.0,32,120,13.0,0.0
2035,57.0,2,40,8.0,0.0
2036,84.0,1,120,7.0,0.0
2037,72.0,20,120,7.0,0.0
2038,81.0,0,120,7.0,0.0
2039,64.0,8,40,8.0,0.0
2040,52.0,0,40,8.0,0.0
2041,53.0,19,40,8.0,0.0
2042,45.0,6,120,8.0,0.0
2043,45.0,42,120,13.0,0.0
2044,65.0,39,40,8.0,0.0
2045,89.0,1,60,7.0,0.0
2046,84.0,0,60,7.0,0.0
2047,63.0,2,40,8.0,0.0
2048,89.0,1,60,7.0,0.0
2049,77.0,0,0,7.0,0.0
2050,46.0,16,60,8.0,0.0
2051,46.0,17,115,13.0,0.0
2052,62.0,9,18,8.0,0.0
2053,82.0,0,1,7.0,0.0
2054,77.0,4,0,7.0,0.0
2055,70.0,3,60,7.0,0.0
2056,58.0,30,18,8.0,0.0
2057,53.0,9,18,8.0,0.0
2058,85.0,1,180,7.0,0.0
2059,76.0,0,180,7.0,0.0
2060,82.0,20,180,7.0,0.0
2061,73.0,0,180,7.0,0.0
2062,43.0,30,18,8.0,0.0
2063,43.0,12,120,13.0,0.0
2064,64.0,30,18,8.0,0.0
2065,58.0,30,18,8.0,0.0
2066,55.0,18,18,8.0,0.0
2067,44.0,30,18,8.0,0.0
2068,44.0,12,120,13.0,0.0
2069,65.0,9,18,8.0,0.0
2070,84.0,1,60,7.0,0.0
2071,80.0,0,60,7.0,0.0
2072,77.0,0,60,7.0,0.0
2073,72.0,8,60,7.0,0.0
2074,60.0,30,18,8.0,0.0
2075,56.0,9,18,8.0,0.0
2076,79.0,1,180,7.0,0.0
2077,70.0,20,180,7.0,0.0
2078,73.0,0,180,7.0,0.0
2079,40.0,30,18,8.0,0.0
2080,40.0,12,120,13.0,0.0
2081,67.0,30,18,8.0,0.0
2082,61.0,30,18,8.0,0.0
2083,58.0,18,18,8.0,0.0
2084,41.0,30,18,8.0,0.0
2085,41.0,12,120,13.0,0.0
2086,65.0,9,18,8.0,0.0
2087,80.0,1,60,7.0,0.0
2088,72.0,0,60,7.0,0.0
2089,60.0,30,18,8.0,0.0
2090,56.0,9,18,8.0,0.0
2091,71.0,1,180,7.0,0.0
2092,65.0,0,180,7.0,0.0
2093,68.0,8,0,7.0,0.0
2094,38.0,30,18,8.0,0.0
2095,38.0,12,120,13.0,0.0
2096,59.0,28,18,8.0,0.0
2097,56.0,32,18,8.0,0.0
2098,53.0,18,18,8.0,0.0
2099,36.0,30,18,8.0,0.0
2100,60.0,9,18,8.0,0.0
2101,72.0,10,60,7.0,0.0
2102,65.0,20,120,7.0,0.0
2103,55.0,30,18,8.0,0.0
2104,50.0,8,18,8.0,0.0
2105,70.0,2,60,7.0,0.0
2106,52.0,30,18,8.0,0.0
2107,36.0,12,0,13.0,0.0
2108,48.0,8,18,8.0,0.0
2109,67.0,0,2,7.0,0.0
2110,55.0,30,18,8.0,0.0
2111,48.0,8,18,8.0,0.0
2112,64.0,8,2,7.0,0.0
2113,60.0,2,60,7.0,0.0
2114,58.0,56,60,8.0,0.0
2115,48.0,32,120,13.0,0.0
2116,81.0,2,60,7.0,0.0
2117,69.0,8,60,7.0,0.0
2118,72.0,0,60,7.0,0.0
2119,79.0,4,60,7.0,0.0
2120,72.0,18,40,7.0,0.0
2121,46.0,18,60,8.0,0.0
2122,34.0,0,60,8.0,0.0
2123,46.0,54,120,13.0,0.0
2124,67.0,38,40,7.0,0.0
2125,76.0,2,60,7.0,0.0
2126,72.0,8,2,7.0,0.0
2127,33.0,0,60,8.0,0.0
2128,45.0,6,60,8.0,0.0
2129,45.0,10,60,13.0,0.0
2130,65.0,78,40,7.0,0.0
2131,53.0,6,120,8.0,0.0
2132,41.0,0,120,8.0,0.0
2133,53.0,12,120,13.0,0.0
2134,69.0,20,80,7.0,0.0
2135,74.0,4,60,7.0,0.0
2136,62.0,38,40,7.0,0.0
2137,72.0,2,60,7.0,0.0
2138,54.0,0,60,8.0,0.0
2139,42.0,6,60,8.0,0.0
2140,54.0,50,60,13.0,0.0
2141,69.0,2,40,7.0,0.0
2142,70.0,2,60,7.0,0.0
2143,67.0,2,60,7.0,0.0
2144,55.0,6,60,8.0,0.0
2145,43.0,0,60,8.0,0.0
2146,55.0,50,60,13.0,0.0
2147,82.0,42,60,7.0,0.0
2148,81.0,22,60,7.0,0.0
2149,74.0,18,40,7.0,0.0
2150,48.0,0,120,8.0,0.0
2151,36.0,6,120,8.0,0.0
2152,48.0,32,120,13.0,0.0
2153,69.0,38,40,7.0,0.0
2154,78.0,4,60,7.0,0.0
2155,74.0,22,80,7.0,0.0
2156,79.0,2,80,7.0,0.0
2157,46.0,0,60,8.0,0.0
2158,34.0,6,60,8.0,0.0
2159,46.0,10,60,13.0,0.0
2160,67.0,80,40,7.0,0.0
2161,43.0,6,120,8.0,0.0
2162,55.0,0,120,8.0,0.0
2163,55.0,10,120,13.0,0.0
2164,70.0,22,80,7.0,0.0
2165,76.0,2,80,7.0,0.0
2166,64.0,33,40,7.0,0.0
2167,56.0,6,60,8.0,0.0
2168,44.0,0,60,8.0,0.0
2169,56.0,52,60,13.0,0.0
2170,74.0,7,40,7.0,0.0
2171,71.0,2,40,7.0,0.0
2172,69.0,2,60,7.0,0.0
2173,57.0,6,60,8.0,0.0
2174,45.0,0,60,8.0,0.0
2175,57.0,12,60,13.0,0.0
2176,72.0,0,0,7.0,0.0
2177,41.0,0,18,8.0,0.0
2178,53.0,30,18,8.0,0.0
2179,41.0,0,115,5.0,0.0
2180,53.0,19,115,5.0,0.0
2181,53.0,1,112,12.0,0.0
2182,53.0,0,112,13.0,0.0
2183,57.0,30,18,8.0,0.0
2184,65.0,5,120,10.0,0.0
2185,65.0,30,18,8.0,0.0
2186,57.0,11,232,11.0,0.0
2187,65.0,8,120,3.0,0.0
2188,57.0,0,235,3.0,0.0
2189,41.0,1,112,14.0,0.0
2190,57.0,9,18,8.0,0.0
2191,72.0,1,0,7.0,0.0
2192,75.0,0,0,7.0,0.0
2193,84.0,0,0,7.0,0.0
2194,53.0,30,18,8.0,0.0
2195,41.0,0,18,8.0,0.0
2196,41.0,1,60,5.0,0.0
2197,53.0,1,60,12.0,0.0
2198,53.0,4,60,13.0,0.0
2199,57.0,10,18,8.0,0.0
2200,63.0,2,112,10.0,0.0
2201,65.0,30,18,8.0,0.0
2202,53.0,0,0,5.0,0.0
2203,65.0,0,55,5.0,0.0
2204,65.0,1,52,12.0,0.0
2205,65.0,1,52,13.0,0.0
2206,63.0,13,115,3.0,0.0
2207,41.0,2,112,14.0,0.0
2208,57.0,9,18,8.0,0.0
2209,75.0,0,0,7.0,0.0
2210,84.0,0,0,7.0,0.0
2211,72.0,0,120,7.0,0.0
2212,41.0,0,18,8.0,0.0
2213,53.0,30,18,8.0,0.0
2214,53.0,0,115,5.0,0.0
2215,41.0,19,115,5.0,0.0
2216,53.0,1,112,12.0,0.0
2217,53.0,0,112,13.0,0.0
2218,57.0,2,18,8.0,0.0
2219,63.0,0,120,10.0,0.0
2220,65.0,30,18,8.0,0.0
2221,57.0,3,120,11.0,0.0
2222,57.0,8,120,3.0,0.0
2223,63.0,0,120,3.0,0.0
2224,41.0,1,112,14.0,0.0
2225,57.0,9,18,8.0,0.0
2226,72.0,0,60,7.0,0.0
2227,84.0,1,0,7.0,0.0
2228,75.0,0,0,7.0,0.0
2229,41.0,0,18,8.0,0.0
2230,53.0,30,18,8.0,0.0
2231,53.0,1,60,5.0,0.0
2232,41.0,0,60,5.0,0.0
2233,53.0,1,60,12.0,0.0
2234,53.0,4,60,13.0,0.0
2235,57.0,10,18,8.0,0.0
2236,86.0,0,60,7.0,0.0
2237,62.0,2,112,10.0,0.0
2238,65.0,30,18,8.0,0.0
2239,58.0,6,112,11.0,0.0
2240,65.0,4,55,5.0,0.0
2241,53.0,0,55,5.0,0.0
2242,65.0,1,52,12.0,0.0
2243,65.0,1,52,13.0,0.0
2244,58.0,0,115,3.0,0.0
2245,62.0,1,115,3.0,0.0
2246,41.0,15,52,14.0,0.0
2247,58.0,9,18,8.0,0.0
2248,74.0,0,0,7.0,0.0
2249,82.0,0,120,7.0,0.0
2250,86.0,0,60,7.0,0.0
2251,53.0,30,18,8.0,0.0
2252,41.0,0,18,8.0,0.0
2253,41.0,0,60,5.0,0.0
2254,53.0,0,60,12.0,0.0
2255,53.0,12,60,13.0,0.0
2256,41.0,15,112,14.0,0.0
2257,58.0,2,18,8.0,0.0
2258,64.0,2,112,10.0,0.0
2259,55.0,6,112,11.0,0.0
2260,65.0,30,18,8.0,0.0
2261,53.0,1,0,5.0,0.0
2262,65.0,4,55,5.0,0.0
2263,65.0,1,52,12.0,0.0
2264,65.0,0,52,13.0,0.0
2265,55.0,1,115,3.0,0.0
2266,58.0,0,115,3.0,0.0
2267,55.0,9,18,8.0,0.0
2268,88.0,1,0,7.0,0.0
2269,76.0,0,0,7.0,0.0
2270,82.0,0,60,7.0,0.0
2271,41.0,0,18,8.0,0.0
2272,53.0,30,18,8.0,0.0
2273,41.0,1,60,5.0,0.0
2274,53.0,0,60,12.0,0.0
2275,53.0,12,60,13.0,0.0
2276,41.0,15,112,14.0,0.0
2277,55.0,2,18,8.0,0.0
2278,89.0,0,60,7.0,0.0
2279,81.0,0,60,7.0,0.0
2280,65.0,2,112,10.0,0.0
2281,60.0,6,112,11.0,0.0
2282,65.0,30,18,8.0,0.0
2283,53.0,0,0,5.0,0.0
2284,65.0,0,55,5.0,0.0
2285,65.0,1,52,12.0,0.0
2286,65.0,0,52,13.0,0.0
2287,53.0,1,115,3.0,0.0
2288,57.0,0,115,3.0,0.0
2289,53.0,9,18,8.0,0.0
2290,89.0,6,60,7.0,0.0
2291,81.0,0,60,7.0,0.0
2292,77.0,1,0,7.0,0.0
2293,41.0,30,18,8.0,0.0
2294,65.0,0,60,5.0,0.0
2295,53.0,1,60,5.0,0.0
2296,65.0,0,60,12.0,0.0
2297,53.0,5,60,13.0,0.0
2298,41.0,7,60,14.0,0.0
2299,53.0,2,18,8.0,0.0
2300,84.0,0,60,7.0,0.0
2301,67.0,2,112,10.0,0.0
2302,64.0,6,112,11.0,0.0
2303,65.0,30,18,8.0,0.0
2304,60.0,4,55,5.0,0.0
2305,64.0,1,52,12.0,0.0
2306,52.0,0,52,13.0,0.0
2307,52.0,1,115,3.0,0.0
2308,55.0,0,115,3.0,0.0
2309,40.0,15,52,14.0,0.0
2310,53.0,9,18,8.0,0.0
2311,79.0,0,0,7.0,0.0
2312,91.0,1,0,7.0,0.0
2313,84.0,0,60,7.0,0.0
2314,41.0,30,18,8.0,0.0
2315,60.0,6,55,5.0,0.0
2316,64.0,0,60,12.0,0.0
2317,52.0,5,60,13.0,0.0
2318,40.0,7,60,14.0,0.0
2319,53.0,2,18,8.0,0.0
2320,69.0,0,232,10.0,0.0
2321,65.0,2,232,10.0,0.0
2322,81.0,0,60,7.0,0.0
2323,65.0,30,18,8.0,0.0
2324,62.0,6,232,11.0,0.0
2325,65.0,6,235,5.0,0.0
2326,62.0,0,235,5.0,0.0
2327,62.0,1,52,12.0,0.0
2328,50.0,0,52,13.0,0.0
2329,53.0,0,115,3.0,0.0
2330,50.0,13,115,3.0,0.0
2331,38.0,15,52,14.0,0.0
2332,53.0,9,18,8.0,0.0
2333,89.0,5,0,7.0,0.0
2334,93.0,0,0,7.0,0.0
2335,41.0,30,18,8.0,0.0
2336,62.0,1,112,12.0,0.0
2337,50.0,5,112,13.0,0.0
2338,38.0,15,112,14.0,0.0
2339,53.0,17,18,8.0,0.0
2340,65.0,30,18,8.0,0.0
2341,38.0,0,120,3.0,0.0
2342,50.0,1,120,3.0,0.0
2343,53.0,9,18,8.0,0.0
2344,81.0,0,0,7.0,0.0
2345,89.0,0,0,7.0,0.0
2346,93.0,0,60,7.0,0.0
2347,41.0,30,18,8.0,0.0
2348,62.0,1,60,12.0,0.0
2349,50.0,4,60,13.0,0.0
2350,38.0,7,60,14.0,0.0
2351,53.0,2,18,8.0,0.0
2352,72.0,0,232,10.0,0.0
2353,64.0,2,232,10.0,0.0
2354,96.0,0,60,7.0,0.0
2355,84.0,0,60,7.0,0.0
2356,60.0,30,18,8.0,0.0
2357,60.0,5,232,11.0,0.0
2358,60.0,1,360,5.0,0.0
2359,60.0,8,112,12.0,0.0
2360,48.0,5,52,13.0,0.0
2361,48.0,0,115,3.0,0.0
2362,36.0,13,115,3.0,0.0
2363,36.0,15,52,14.0,0.0
2364,48.0,10,18,8.0,0.0
2365,88.0,0,0,7.0,0.0
2366,36.0,30,18,8.0,0.0
2367,48.0,0,112,13.0,0.0
2368,36.0,15,112,14.0,0.0
2369,48.0,9,18,8.0,0.0
2370,60.0,30,18,8.0,0.0
2371,60.0,5,112,12.0,0.0
2372,36.0,0,120,3.0,0.0
2373,48.0,10,18,8.0,0.0
2374,84.0,0,0,7.0,0.0
2375,88.0,5,0,7.0,0.0
2376,96.0,0,0,7.0,0.0
2377,36.0,30,18,8.0,0.0
2378,48.0,4,180,13.0,0.0
2379,36.0,17,180,14.0,0.0
2380,48.0,2,18,8.0,0.0
2381,64.0,0,120,10.0,0.0
2382,72.0,0,120,10.0,0.0
2383,60.0,2,120,11.0,0.0
2384,60.0,28,60,8.0,0.0
2385,64.0,8,0,4.0,0.0
2386,67.0,2,120,4.0,0.0
2387,48.0,0,120,12.0,0.0
2388,60.0,1,120,12.0,0.0
2389,36.0,0,532,13.0,0.0
2390,60.0,1,120,3.0,0.0
2391,48.0,18,0,3.0,0.0
2392,82.0,0,30,7.0,0.0
2393,94.0,2,30,7.0,0.0
2394,79.0,0,30,7.0,0.0
2395,91.0,30,30,7.0,0.0
2396,76.0,0,30,7.0,0.0
2397,88.0,2,30,7.0,0.0
2398,84.0,2,30,7.0,0.0
2399,72.0,28,30,8.0,0.0
2400,82.0,2,30,7.0,0.0
2401,70.0,28,30,8.0,0.0
2402,79.0,2,30,7.0,0.0
2403,67.0,28,30,8.0,0.0
2404,76.0,2,30,7.0,0.0
2405,64.0,28,30,8.0,0.0
2406,72.0,2,30,7.0,0.0
2407,60.0,28,30,8.0,0.0
2408,70.0,2,30,7.0,0.0
2409,58.0,28,30,8.0,0.0
2410,67.0,2,30,7.0,0.0
2411,55.0,28,30,8.0,0.0
2412,64.0,2,30,7.0,0.0
2413,52.0,28,30,8.0,0.0
2414,60.0,2,30,7.0,0.0
2415,48.0,28,30,8.0,0.0
2416,58.0,2,30,7.0,0.0
2417,46.0,28,30,8.0,0.0
2418,55.0,2,30,7.0,0.0
2419,43.0,28,30,8.0,0.0
2420,52.0,2,30,7.0,0.0
2421,40.0,58,30,8.0,0.0
2422,48.0,2,60,7.0,0.0
2423,36.0,110,60,8.0,0.0
2424,36.0,62,112,13.0,0.0
2425,69.0,2,52,10.0,0.0
2426,60.0,5,52,11.0,0.0
2427,53.0,1,52,12.0,0.0
2428,69.0,2,112,10.0,0.0
2429,60.0,50,60,11.0,0.0
2430,53.0,1,112,12.0,0.0
2431,36.0,62,112,13.0,0.0
2432,61.0,5,52,11.0,0.0
2433,69.0,2,112,10.0,0.0
2434,61.0,5,60,11.0,0.0
2435,53.0,45,60,12.0,0.0
2436,36.0,60,112,13.0,0.0
2437,62.0,5,52,11.0,0.0
2438,54.0,1,52,12.0,0.0
2439,69.0,6,60,10.0,0.0
2440,62.0,5,112,11.0,0.0
2441,69.0,1,60,2.0,0.0
2442,54.0,5,60,12.0,0.0
2443,36.0,6,112,13.0,0.0
2444,54.0,40,60,3.0,0.0
2445,60.0,0,60,3.0,0.0
2446,70.0,2,52,10.0,0.0
2447,70.0,6,60,2.0,0.0
2448,55.0,1,52,12.0,0.0
2449,55.0,48,60,3.0,0.0
2450,58.0,0,60,3.0,0.0
2451,70.0,2,60,10.0,0.0
2452,62.0,5,60,11.0,0.0
2453,55.0,45,60,12.0,0.0
2454,36.0,60,112,13.0,0.0
2455,71.0,2,52,10.0,0.0
2456,67.0,5,52,11.0,0.0
2457,53.0,1,52,12.0,0.0
2458,71.0,6,60,10.0,0.0
2459,71.0,1,60,2.0,0.0
2460,53.0,5,60,12.0,0.0
2461,36.0,2,112,13.0,0.0
2462,62.0,40,60,3.0,0.0
2463,53.0,0,60,3.0,0.0
2464,72.0,7,52,10.0,0.0
2465,72.0,6,60,2.0,0.0
2466,52.0,1,52,12.0,0.0
2467,52.0,0,60,3.0,0.0
2468,60.0,48,60,3.0,0.0
2469,72.0,2,60,10.0,0.0
2470,67.0,4,0,11.0,0.0
2471,52.0,45,60,12.0,0.0
2472,36.0,60,112,13.0,0.0
2473,70.0,2,52,10.0,0.0
2474,64.0,5,52,11.0,0.0
2475,55.0,1,52,12.0,0.0
2476,70.0,2,60,10.0,0.0
2477,64.0,4,60,11.0,0.0
2478,70.0,0,60,2.0,0.0
2479,64.0,1,60,2.0,0.0
2480,55.0,5,60,12.0,0.0
2481,36.0,6,112,13.0,0.0
2482,55.0,40,60,3.0,0.0
2483,58.0,0,60,3.0,0.0
2484,69.0,2,52,10.0,0.0
2485,60.0,5,52,11.0,0.0
2486,65.0,6,60,2.0,0.0
2487,69.0,0,60,2.0,0.0
2488,53.0,1,52,12.0,0.0
2489,53.0,48,60,3.0,0.0
2490,57.0,0,60,3.0,0.0
2491,69.0,2,60,10.0,0.0
2492,60.0,5,60,11.0,0.0
2493,53.0,45,60,12.0,0.0
2494,36.0,67,112,13.0,0.0
2495,77.0,2,52,10.0,0.0
2496,69.0,5,52,11.0,0.0
2497,60.0,1,52,12.0,0.0
2498,77.0,2,112,10.0,0.0
2499,69.0,5,112,11.0,0.0
2500,60.0,45,60,12.0,0.0
2501,36.0,60,112,13.0,0.0
2502,61.0,1,52,12.0,0.0
2503,77.0,2,60,10.0,0.0
2504,69.0,5,60,11.0,0.0
2505,61.0,45,60,12.0,0.0
2506,36.0,60,112,13.0,0.0
2507,78.0,2,52,10.0,0.0
2508,72.0,5,52,11.0,0.0
2509,62.0,1,52,12.0,0.0
2510,78.0,1,60,10.0,0.0
2511,78.0,1,60,0.0,0.0
2512,72.0,0,60,0.0,0.0
2513,72.0,2,60,11.0,0.0
2514,69.0,3,60,1.0,0.0
2515,62.0,45,60,12.0,0.0
2516,36.0,1,112,13.0,0.0
2517,79.0,2,52,10.0,0.0
2518,79.0,3,60,0.0,0.0
2519,71.0,0,60,0.0,0.0
2520,71.0,5,52,11.0,0.0
2521,74.0,56,60,1.0,0.0
2522,65.0,1,52,12.0,0.0
2523,79.0,2,60,10.0,0.0
2524,71.0,5,60,11.0,0.0
2525,65.0,45,60,12.0,0.0
2526,36.0,60,112,13.0,0.0
2527,72.0,2,52,10.0,0.0
2528,70.0,5,52,11.0,0.0
2529,64.0,1,52,12.0,0.0
2530,72.0,1,60,10.0,0.0
2531,67.0,0,60,0.0,0.0
2532,70.0,2,60,11.0,0.0
2533,70.0,3,60,1.0,0.0
2534,64.0,45,60,12.0,0.0
2535,36.0,1,112,13.0,0.0
2536,77.0,2,52,10.0,0.0
2537,72.0,1,0,0.0,0.0
2538,77.0,0,60,0.0,0.0
2539,69.0,5,52,11.0,0.0
2540,69.0,56,60,1.0,0.0
2541,63.0,1,52,12.0,0.0
2542,77.0,2,60,10.0,0.0
2543,69.0,5,60,11.0,0.0
2544,63.0,45,60,12.0,0.0
2545,36.0,60,112,13.0,0.0
2546,70.0,2,52,10.0,0.0
2547,65.0,5,52,11.0,0.0
2548,62.0,1,52,12.0,0.0
2549,70.0,6,60,10.0,0.0
2550,65.0,5,112,11.0,0.0
2551,65.0,6,120,2.0,0.0
2552,70.0,1,60,2.0,0.0
2553,62.0,5,60,12.0,0.0
2554,36.0,6,112,13.0,0.0
2555,62.0,40,60,3.0,0.0
2556,69.0,2,52,10.0,0.0
2557,69.0,0,60,2.0,0.0
2558,60.0,1,52,12.0,0.0
2559,60.0,48,60,3.0,0.0
2560,69.0,7,60,10.0,0.0
2561,65.0,5,112,11.0,0.0
2562,60.0,45,60,12.0,0.0
2563,36.0,60,112,13.0,0.0
2564,67.0,2,52,10.0,0.0
2565,59.0,1,52,12.0,0.0
2566,67.0,6,60,10.0,0.0
2567,65.0,5,112,11.0,0.0
2568,65.0,0,120,2.0,0.0
2569,67.0,1,60,2.0,0.0
2570,59.0,5,60,12.0,0.0
2571,36.0,6,112,13.0,0.0
2572,59.0,40,60,3.0,0.0
2573,74.0,2,52,10.0,0.0
2574,74.0,6,60,2.0,0.0
2575,58.0,1,52,12.0,0.0
2576,58.0,48,60,3.0,0.0
2577,74.0,2,60,10.0,0.0
2578,65.0,50,60,11.0,0.0
2579,58.0,1,112,12.0,0.0
2580,36.0,60,112,13.0,0.0
2581,72.0,2,52,10.0,0.0
2582,64.0,5,52,11.0,0.0
2583,55.0,0,52,12.0,0.0
2584,72.0,1,60,10.0,0.0
2585,72.0,0,60,0.0,0.0
2586,64.0,1,60,0.0,0.0
2587,64.0,5,60,11.0,0.0
2588,58.0,5,60,12.0,0.0
2589,55.0,0,60,12.0,0.0
2590,36.0,1,112,13.0,0.0
2591,58.0,40,60,3.0,0.0
2592,48.0,0,60,3.0,0.0
2593,65.0,2,52,10.0,0.0
2594,65.0,11,60,0.0,0.0
2595,65.0,5,52,11.0,0.0
2596,57.0,0,52,12.0,0.0
2597,53.0,1,52,12.0,0.0
2598,53.0,0,60,3.0,0.0
2599,57.0,48,60,3.0,0.0
2600,65.0,7,60,10.0,0.0
2601,57.0,5,112,11.0,0.0
2602,53.0,45,60,12.0,0.0
2603,36.0,60,112,13.0,0.0
2604,60.0,2,52,10.0,0.0
2605,51.0,1,52,12.0,0.0
2606,60.0,2,60,10.0,0.0
2607,57.0,5,60,11.0,0.0
2608,51.0,45,60,12.0,0.0
2609,36.0,60,112,13.0,0.0
2610,65.0,2,52,10.0,0.0
2611,58.0,5,52,11.0,0.0
2612,50.0,1,52,12.0,0.0
2613,65.0,2,60,10.0,0.0
2614,58.0,5,60,11.0,0.0
2615,50.0,45,60,12.0,0.0
2616,36.0,60,112,13.0,0.0
2617,60.0,2,52,10.0,0.0
2618,55.0,5,52,11.0,0.0
2619,52.0,1,52,12.0,0.0
2620,60.0,2,60,10.0,0.0
2621,55.0,4,60,11.0,0.0
2622,60.0,1,60,5.0,0.0
2623,52.0,5,60,12.0,0.0
2624,36.0,6,112,13.0,0.0
2625,52.0,40,60,3.0,0.0
2626,65.0,2,52,10.0,0.0
2627,57.0,5,52,11.0,0.0
2628,53.0,6,60,5.0,0.0
2629,53.0,1,52,12.0,0.0
2630,53.0,48,60,3.0,0.0
2631,65.0,7,60,10.0,0.0
2632,57.0,5,112,11.0,0.0
2633,53.0,45,60,12.0,0.0
2634,36.0,60,112,13.0,0.0
2635,60.0,2,52,10.0,0.0
2636,51.0,1,52,12.0,0.0
2637,60.0,2,60,10.0,0.0
2638,57.0,5,60,11.0,0.0
2639,51.0,45,60,12.0,0.0
2640,36.0,60,112,13.0,0.0
2641,65.0,2,52,10.0,0.0
2642,58.0,5,52,11.0,0.0
2643,50.0,1,52,12.0,0.0
2644,65.0,2,60,10.0,0.0
2645,58.0,5,60,11.0,0.0
2646,50.0,45,60,12.0,0.0
2647,36.0,62,112,13.0,0.0
2648,60.0,2,52,10.0,0.0
2649,55.0,5,52,11.0,0.0
2650,52.0,1,52,12.0,0.0
2651,60.0,2,112,10.0,0.0
2652,55.0,4,60,11.0,0.0
2653,60.0,1,60,2.0,0.0
2654,52.0,45,60,12.0,0.0
2655,36.0,6,112,13.0,0.0
2656,57.0,5,52,11.0,0.0
2657,53.0,56,60,2.0,0.0
2658,53.0,1,52,12.0,0.0
2659,60.0,2,112,10.0,0.0
2660,57.0,5,60,11.0,0.0
2661,53.0,45,60,12.0,0.0
2662,36.0,62,112,13.0,0.0
2663,55.0,5,52,11.0,0.0
2664,52.0,1,52,12.0,0.0
2665,60.0,2,112,10.0,0.0
2666,55.0,5,60,11.0,0.0
2667,52.0,45,60,12.0,0.0
2668,36.0,62,112,13.0,0.0
2669,57.0,5,52,11.0,0.0
2670,53.0,1,52,12.0,0.0
2671,60.0,2,112,10.0,0.0
2672,57.0,5,60,11.0,0.0
2673,53.0,45,60,12.0,0.0
2674,36.0,60,112,13.0,0.0
2675,55.0,5,52,11.0,0.0
2676,52.0,1,52,12.0,0.0
2677,55.0,5,60,11.0,0.0
2678,52.0,85,60,12.0,0.0
2679,36.0,2,52,13.0,0.0
2680,57.0,5,30,11.0,0.0
2681,53.0,1,30,12.0,0.0
2682,36.0,114,30,13.0,0.0
2683,55.0,5,30,11.0,0.0
2684,52.0,1,30,12.0,0.0
2685,36.0,114,30,13.0,0.0
2686,57.0,5,30,11.0,0.0
2687,53.0,1,30,12.0,0.0
2688,36.0,114,30,13.0,0.0
2689,55.0,5,30,11.0,0.0
2690,52.0,1,30,12.0,0.0
2691,36.0,119,30,13.0,0.0
2692,55.0,1,30,12.0,0.0
2693,50.0,5,30,13.0,0.0
2694,34.0,114,30,14.0,0.0
2695,53.0,1,30,12.0,0.0
2696,50.0,5,30,13.0,0.0
2697,34.0,114,30,14.0,0.0
2698,53.0,1,30,12.0,0.0
2699,48.0,5,30,13.0,0.0
2700,33.0,114,30,14.0,0.0
2701,52.0,1,30,12.0,0.0
2702,48.0,5,30,13.0,0.0
2703,33.0,35,30,14.0,0.0
2704,58.0,13,20,10.0,0.0
2705,52.0,1,30,12.0,0.0
2706,43.0,2,10,13.0,0.0
2707,31.0,2,25,14.0,0.0
2708,64.0,8,20,10.0,0.0
2709,43.0,4,10,13.0,0.0
2710,58.0,1,30,12.0,0.0
2711,43.0,12,10,13.0,0.0
2712,58.0,3,20,10.0,0.0
2713,31.0,10,25,14.0,0.0
2714,43.0,4,10,13.0,0.0
2715,64.0,13,20,10.0,0.0
2716,52.0,1,30,12.0,0.0
2717,43.0,2,10,13.0,0.0
2718,31.0,2,25,14.0,0.0
2719,58.0,8,20,10.0,0.0
2720,43.0,4,10,13.0,0.0
2721,58.0,1,30,12.0,0.0
2722,43.0,12,10,13.0,0.0
2723,64.0,3,20,10.0,0.0
2724,31.0,10,25,14.0,0.0
2725,43.0,4,10,13.0,0.0
2726,58.0,13,20,10.0,0.0
2727,52.0,1,30,12.0,0.0
2728,43.0,2,10,13.0,0.0
2729,31.0,2,25,14.0,0.0
2730,64.0,8,20,10.0,0.0
2731,43.0,4,10,13.0,0.0
2732,58.0,1,30,12.0,0.0
2733,43.0,12,10,13.0,0.0
2734,58.0,3,20,10.0,0.0
2735,31.0,10,25,14.0,0.0
2736,43.0,4,10,13.0,0.0
2737,64.0,13,20,10.0,0.0
2738,52.0,1,30,12.0,0.0
2739,43.0,2,10,13.0,0.0
2740,31.0,2,25,14.0,0.0
2741,58.0,8,20,10.0,0.0
2742,43.0,4,10,13.0,0.0
2743,58.0,1,25,12.0,0.0
2744,43.0,7,10,13.0,0.0
2745,64.0,7,15,10.0,0.0
2746,31.0,10,25,14.0,0.0
2747,43.0,5,10,13.0,0.0
2748,57.0,2,20,10.0,0.0
2749,64.0,2,20,11.0,0.0
2750,57.0,3,30,4.0,0.0
2751,52.0,1,30,12.0,0.0
2752,42.0,2,10,13.0,0.0
2753,30.0,1,25,14.0,0.0
2754,45.0,9,10,15.0,0.0
2755,69.0,2,20,10.0,0.0
2756,57.0,6,20,11.0,0.0
2757,42.0,1,10,13.0,0.0
2758,45.0,1,10,15.0,0.0
2759,57.0,1,30,12.0,0.0
2760,42.0,7,10,13.0,0.0
2761,57.0,2,20,10.0,0.0
2762,64.0,1,20,11.0,0.0
2763,30.0,2,25,14.0,0.0
2764,45.0,5,10,15.0,0.0
2765,42.0,4,10,13.0,0.0
2766,45.0,8,10,15.0,0.0
2767,69.0,2,20,10.0,0.0
2768,57.0,4,20,11.0,0.0
2769,62.0,2,110,4.0,0.0
2770,52.0,1,30,12.0,0.0
2771,42.0,2,10,13.0,0.0
2772,30.0,1,25,14.0,0.0
2773,45.0,7,10,15.0,0.0
2774,57.0,2,20,10.0,0.0
2775,64.0,6,20,11.0,0.0
2776,42.0,4,10,13.0,0.0
2777,45.0,1,10,15.0,0.0
2778,57.0,1,30,12.0,0.0
2779,42.0,8,10,13.0,0.0
2780,69.0,2,20,10.0,0.0
2781,57.0,1,20,11.0,0.0
2782,30.0,1,25,14.0,0.0
2783,45.0,4,10,15.0,0.0
2784,42.0,4,10,13.0,0.0
2785,45.0,9,10,15.0,0.0
2786,57.0,2,20,10.0,0.0
2787,64.0,2,20,11.0,0.0
2788,52.0,1,30,12.0,0.0
2789,42.0,2,10,13.0,0.0
2790,30.0,1,25,14.0,0.0
2791,45.0,9,10,15.0,0.0
2792,69.0,2,20,10.0,0.0
2793,57.0,6,20,11.0,0.0
2794,42.0,4,10,13.0,0.0
2795,45.0,1,10,15.0,0.0
2796,57.0,1,30,12.0,0.0
2797,42.0,6,10,13.0,0.0
2798,57.0,2,20,10.0,0.0
2799,64.0,1,20,11.0,0.0
2800,30.0,1,25,14.0,0.0
2801,45.0,4,10,15.0,0.0
2802,42.0,4,10,13.0,0.0
2803,45.0,9,10,15.0,0.0
2804,69.0,2,20,10.0,0.0
2805,57.0,2,20,11.0,0.0
2806,64.0,3,30,4.0,0.0
2807,52.0,1,30,12.0,0.0
2808,42.0,2,10,13.0,0.0
2809,30.0,2,25,14.0,0.0
2810,45.0,9,10,15.0,0.0
2811,57.0,2,20,10.0,0.0
2812,64.0,6,20,11.0,0.0
2813,42.0,1,10,13.0,0.0
2814,45.0,0,10,15.0,0.0
2815,57.0,1,25,12.0,0.0
2816,42.0,7,10,13.0,0.0
2817,69.0,2,15,10.0,0.0
2818,57.0,5,15,11.0,0.0
2819,30.0,1,25,14.0,0.0
2820,45.0,0,10,15.0,0.0
2821,42.0,5,10,13.0,0.0
2822,45.0,9,10,15.0,0.0
2823,62.0,2,20,10.0,0.0
2824,69.0,3,20,11.0,0.0
2825,69.0,4,240,4.0,0.0
2826,50.0,1,30,12.0,0.0
2827,41.0,2,10,13.0,0.0
2828,29.0,1,25,14.0,0.0
2829,45.0,8,10,15.0,0.0
2830,74.0,2,20,10.0,0.0
2831,62.0,6,20,11.0,0.0
2832,41.0,4,10,13.0,0.0
2833,45.0,1,10,15.0,0.0
2834,62.0,1,30,12.0,0.0
2835,41.0,8,10,13.0,0.0
2836,62.0,2,20,10.0,0.0
2837,69.0,1,20,11.0,0.0
2838,29.0,2,25,14.0,0.0
2839,45.0,4,10,15.0,0.0
2840,41.0,4,10,13.0,0.0
2841,74.0,2,20,10.0,0.0
2842,45.0,8,10,15.0,0.0
2843,62.0,4,20,11.0,0.0
2844,50.0,1,30,12.0,0.0
2845,41.0,2,10,13.0,0.0
2846,29.0,2,25,14.0,0.0
2847,45.0,7,10,15.0,0.0
2848,62.0,1,20,10.0,0.0
2849,69.0,6,20,11.0,0.0
2850,41.0,4,10,13.0,0.0
2851,45.0,1,10,15.0,0.0
2852,62.0,1,30,12.0,0.0
2853,41.0,7,10,13.0,0.0
2854,74.0,2,20,10.0,0.0
2855,62.0,1,20,11.0,0.0
2856,29.0,2,25,14.0,0.0
2857,45.0,5,10,15.0,0.0
2858,41.0,4,10,13.0,0.0
2859,62.0,2,20,10.0,0.0
2860,45.0,8,10,15.0,0.0
2861,69.0,4,20,11.0,0.0
2862,50.0,1,30,12.0,0.0
2863,41.0,2,10,13.0,0.0
2864,29.0,2,25,14.0,0.0
2865,45.0,7,10,15.0,0.0
2866,74.0,1,20,10.0,0.0
2867,62.0,6,20,11.0,0.0
2868,41.0,4,10,13.0,0.0
2869,45.0,1,10,15.0,0.0
2870,62.0,1,30,12.0,0.0
2871,41.0,8,10,13.0,0.0
2872,62.0,2,20,10.0,0.0
2873,69.0,1,20,11.0,0.0
2874,29.0,2,25,14.0,0.0
2875,45.0,4,10,15.0,0.0
2876,41.0,4,10,13.0,0.0
2877,45.0,8,10,15.0,0.0
2878,74.0,2,20,10.0,0.0
2879,62.0,2,20,11.0,0.0
2880,50.0,1,30,12.0,0.0
2881,41.0,2,10,13.0,0.0
2882,29.0,2,25,14.0,0.0
2883,45.0,9,10,15.0,0.0
2884,62.0,1,20,10.0,0.0
2885,69.0,6,20,11.0,0.0
2886,41.0,4,10,13.0,0.0
2887,45.0,1,10,15.0,0.0
2888,62.0,1,25,12.0,0.0
2889,41.0,7,10,13.0,0.0
2890,74.0,2,15,10.0,0.0
2891,62.0,5,15,11.0,0.0
2892,29.0,3,25,14.0,0.0
2893,45.0,0,10,15.0,0.0
2894,41.0,1,10,13.0,0.0
2895,69.0,2,20,10.0,0.0
2896,45.0,7,10,15.0,0.0
2897,74.0,2,20,11.0,0.0
2898,69.0,0,30,6.0,0.0
2899,57.0,1,30,12.0,0.0
2900,40.0,2,10,13.0,0.0
2901,28.0,1,25,14.0,0.0
2902,45.0,9,10,15.0,0.0
2903,81.0,2,20,10.0,0.0
2904,69.0,6,20,11.0,0.0
2905,40.0,4,10,13.0,0.0
2906,45.0,1,10,15.0,0.0
2907,62.0,1,30,12.0,0.0
2908,40.0,7,10,13.0,0.0
2909,69.0,2,20,10.0,0.0
2910,74.0,1,20,11.0,0.0
2911,28.0,3,25,14.0,0.0
2912,45.0,5,10,15.0,0.0
2913,40.0,4,10,13.0,0.0
2914,81.0,2,20,10.0,0.0
2915,45.0,7,10,15.0,0.0
2916,69.0,3,20,11.0,0.0
2917,74.0,2,110,6.0,0.0
2918,57.0,1,30,12.0,0.0
2919,40.0,2,10,13.0,0.0
2920,28.0,2,25,14.0,0.0
2921,45.0,8,10,15.0,0.0
2922,69.0,1,20,10.0,0.0
2923,74.0,6,20,11.0,0.0
2924,40.0,4,10,13.0,0.0
2925,45.0,1,10,15.0,0.0
2926,62.0,1,30,12.0,0.0
2927,40.0,7,10,13.0,0.0
2928,81.0,2,20,10.0,0.0
2929,69.0,1,20,11.0,0.0
2930,28.0,3,25,14.0,0.0
2931,45.0,5,10,15.0,0.0
2932,40.0,4,10,13.0,0.0
2933,69.0,2,20,10.0,0.0
2934,45.0,7,10,15.0,0.0
2935,74.0,3,20,11.0,0.0
2936,57.0,1,30,12.0,0.0
2937,40.0,2,10,13.0,0.0
2938,28.0,2,25,14.0,0.0
2939,45.0,8,10,15.0,0.0
2940,81.0,1,20,10.0,0.0
2941,69.0,6,20,11.0,0.0
2942,40.0,4,10,13.0,0.0
2943,45.0,1,10,15.0,0.0
2944,62.0,1,30,12.0,0.0
2945,40.0,5,10,13.0,0.0
2946,69.0,2,20,10.0,0.0
2947,74.0,1,20,11.0,0.0
2948,28.0,1,25,14.0,0.0
2949,45.0,5,10,15.0,0.0
2950,40.0,4,10,13.0,0.0
2951,45.0,9,10,15.0,0.0
2952,81.0,2,20,10.0,0.0
2953,69.0,3,20,11.0,0.0
2954,76.0,0,30,6.0,0.0
2955,57.0,1,30,12.0,0.0
2956,40.0,2,10,13.0,0.0
2957,28.0,2,25,14.0,0.0
2958,45.0,8,10,15.0,0.0
2959,69.0,0,20,10.0,0.0
2960,74.0,6,20,11.0,0.0
2961,40.0,4,10,13.0,0.0
2962,45.0,2,10,15.0,0.0
2963,62.0,1,25,12.0,0.0
2964,40.0,7,10,13.0,0.0
2965,81.0,1,15,10.0,0.0
2966,69.0,5,15,11.0,0.0
2967,28.0,1,25,14.0,0.0
2968,45.0,1,10,15.0,0.0
2969,40.0,5,10,13.0,0.0
2970,45.0,9,10,15.0,0.0
2971,69.0,2,20,10.0,0.0
2972,81.0,3,20,11.0,0.0
2973,81.0,0,240,6.0,0.0
2974,69.0,3,240,4.0,0.0
2975,57.0,3,30,12.0,0.0
2976,39.0,2,10,13.0,0.0
2977,39.0,5,240,14.0,0.0
2978,45.0,8,10,15.0,0.0
2979,81.0,1,20,10.0,0.0
2980,72.0,6,20,11.0,0.0
2981,39.0,4,10,13.0,0.0
2982,45.0,1,10,15.0,0.0
2983,66.0,2,30,12.0,0.0
2984,39.0,6,10,13.0,0.0
2985,69.0,2,20,10.0,0.0
2986,81.0,1,20,11.0,0.0
2987,45.0,6,10,15.0,0.0
2988,39.0,4,10,13.0,0.0
2989,45.0,9,10,15.0,0.0
2990,81.0,2,20,10.0,0.0
2991,72.0,4,20,11.0,0.0
2992,57.0,3,30,12.0,0.0
2993,39.0,2,10,13.0,0.0
2994,45.0,7,10,15.0,0.0
2995,69.0,0,20,10.0,0.0
2996,81.0,6,20,11.0,0.0
2997,39.0,4,10,13.0,0.0
2998,45.0,2,10,15.0,0.0
2999,66.0,2,30,12.0,0.0
3000,39.0,8,10,13.0,0.0
3001,81.0,2,20,10.0,0.0
3002,72.0,1,20,11.0,0.0
3003,45.0,4,10,15.0,0.0
3004,39.0,4,10,13.0,0.0
3005,45.0,9,10,15.0,0.0
3006,69.0,2,20,10.0,0.0
3007,51.0,2,60,8.0,0.0
3008,81.0,4,20,11.0,0.0
3009,57.0,3,60,8.0,0.0
3010,60.0,1,60,8.0,0.0
3011,69.0,0,60,8.0,0.0
3012,57.0,2,30,12.0,0.0
3013,39.0,2,10,13.0,0.0
3014,81.0,0,60,7.0,0.0
3015,93.0,0,60,7.0,0.0
3016,84.0,0,60,7.0,0.0
3017,45.0,7,10,15.0,0.0
3018,81.0,2,20,10.0,0.0
3019,72.0,6,20,11.0,0.0
3020,39.0,4,10,13.0,0.0
3021,45.0,1,10,15.0,0.0
3022,66.0,2,30,12.0,0.0
3023,39.0,8,10,13.0,0.0
3024,69.0,0,20,10.0,0.0
3025,81.0,1,20,11.0,0.0
3026,45.0,4,10,15.0,0.0
3027,39.0,0,10,13.0,0.0
3028,45.0,9,10,15.0,0.0
3029,81.0,2,20,10.0,0.0
3030,72.0,4,20,11.0,0.0
3031,57.0,2,30,12.0,0.0
3032,39.0,2,10,13.0,0.0
3033,45.0,7,10,15.0,0.0
3034,69.0,2,20,10.0,0.0
3035,81.0,6,20,11.0,0.0
3036,39.0,4,10,13.0,0.0
3037,45.0,1,10,15.0,0.0
3038,66.0,6,30,12.0,0.0
3039,39.0,8,10,13.0,0.0
3040,81.0,2,20,10.0,0.0
3041,72.0,1,20,11.0,0.0
3042,45.0,4,10,15.0,0.0
3043,39.0,1,10,13.0,0.0
3044,52.0,2,60,8.0,0.0
3045,76.0,2,20,10.0,0.0
3046,81.0,11,20,11.0,0.0
3047,57.0,1,60,8.0,0.0
3048,76.0,0,60,6.0,0.0
3049,64.0,2,60,4.0,0.0
3050,59.0,1,60,8.0,0.0
3051,59.0,3,30,12.0,0.0
3052,69.0,2,60,8.0,0.0
3053,40.0,2,10,13.0,0.0
3054,81.0,4,60,7.0,0.0
3055,93.0,0,60,7.0,0.0
3056,83.0,0,60,7.0,0.0
3057,40.0,2,60,14.0,0.0
3058,45.0,3,60,15.0,0.0
3059,83.0,2,20,10.0,0.0
3060,71.0,6,20,11.0,0.0
3061,40.0,4,10,13.0,0.0
3062,69.0,0,30,12.0,0.0
3063,40.0,12,10,13.0,0.0
3064,76.0,0,20,10.0,0.0
3065,81.0,1,20,11.0,0.0
3066,40.0,0,10,13.0,0.0
3067,83.0,2,20,10.0,0.0
3068,71.0,11,20,11.0,0.0
3069,59.0,3,30,12.0,0.0
3070,40.0,2,10,13.0,0.0
3071,76.0,2,20,10.0,0.0
3072,81.0,6,20,11.0,0.0
3073,40.0,4,10,13.0,0.0
3074,69.0,11,30,12.0,0.0
3075,40.0,12,10,13.0,0.0
3076,83.0,2,20,10.0,0.0
3077,71.0,1,20,11.0,0.0
3078,40.0,4,10,13.0,0.0
3079,76.0,2,20,10.0,0.0
3080,52.0,0,60,8.0,0.0
3081,80.0,11,20,11.0,0.0
3082,56.0,0,60,8.0,0.0
3083,76.0,0,60,6.0,0.0
3084,64.0,2,60,4.0,0.0
3085,59.0,1,60,8.0,0.0
3086,59.0,3,30,12.0,0.0
3087,68.0,0,60,8.0,0.0
3088,40.0,2,10,13.0,0.0
3089,80.0,0,60,7.0,0.0
3090,83.0,4,60,7.0,0.0
3091,92.0,0,60,7.0,0.0
3092,28.0,5,60,14.0,0.0
3093,83.0,2,20,10.0,0.0
3094,71.0,6,20,11.0,0.0
3095,40.0,4,10,13.0,0.0
3096,68.0,2,30,12.0,0.0
3097,40.0,12,10,13.0,0.0
3098,76.0,2,20,10.0,0.0
3099,80.0,1,20,11.0,0.0
3100,40.0,1,10,13.0,0.0
3101,83.0,2,20,10.0,0.0
3102,71.0,11,20,11.0,0.0
3103,59.0,3,30,12.0,0.0
3104,40.0,2,10,13.0,0.0
3105,76.0,2,20,10.0,0.0
3106,80.0,6,20,11.0,0.0
3107,40.0,4,10,13.0,0.0
3108,68.0,23,30,12.0,0.0
3109,40.0,12,10,13.0,0.0
3110,83.0,2,20,10.0,0.0
3111,71.0,1,20,11.0,0.0
3112,40.0,4,10,13.0,0.0
3113,81.0,0,30,10.0,0.0
3114,45.0,3,60,8.0,0.0
3115,73.0,2,30,10.0,0.0
3116,64.0,0,30,10.0,0.0
3117,81.0,1,30,11.0,0.0
3118,69.0,0,30,11.0,0.0
3119,69.0,1,30,6.0,0.0
3120,52.0,4,60,8.0,0.0
3121,69.0,0,30,4.0,0.0
3122,57.0,4,30,4.0,0.0
3123,57.0,0,120,12.0,0.0
3124,61.0,2,60,8.0,0.0
3125,69.0,13,120,12.0,0.0
3126,45.0,5,30,13.0,0.0
3127,85.0,6,60,7.0,0.0
3128,33.0,17,30,14.0,0.0
3129,45.0,5,60,15.0,0.0
3130,93.0,0,9,7.0,0.0
3131,69.0,20,20,8.0,0.0
3132,57.0,0,180,8.0,0.0
3133,81.0,0,9,7.0,0.0
3134,50.0,2,110,13.0,0.0
3135,38.0,12,110,14.0,0.0
3136,92.0,0,20,7.0,0.0
3137,68.0,20,20,8.0,0.0
3138,91.0,7,20,7.0,0.0
3139,67.0,0,20,8.0,0.0
3140,81.0,2,30,10.0,0.0
3141,65.0,0,30,10.0,0.0
3142,74.0,0,30,10.0,0.0
3143,66.0,10,20,8.0,0.0
3144,90.0,0,20,7.0,0.0
3145,65.0,0,30,11.0,0.0
3146,62.0,0,30,11.0,0.0
3147,69.0,1,30,11.0,0.0
3148,62.0,1,30,6.0,0.0
3149,69.0,0,30,6.0,0.0
3150,50.0,6,30,4.0,0.0
3151,62.0,0,30,4.0,0.0
3152,50.0,5,60,15.0,0.0
3153,89.0,18,20,7.0,0.0
3154,65.0,0,20,8.0,0.0
3155,64.0,0,20,8.0,0.0
3156,88.0,3,20,7.0,0.0
3157,87.0,18,20,7.0,0.0
3158,63.0,0,20,8.0,0.0
3159,53.0,2,30,13.0,0.0
3160,41.0,17,30,14.0,0.0
3161,62.0,0,20,8.0,0.0
3162,86.0,3,20,7.0,0.0
3163,61.0,20,20,8.0,0.0
3164,85.0,0,20,7.0,0.0
3165,60.0,10,20,8.0,0.0
3166,81.0,2,30,10.0,0.0
3167,84.0,0,20,7.0,0.0
3168,73.0,0,30,10.0,0.0
3169,64.0,0,30,10.0,0.0
3170,64.0,1,30,11.0,0.0
3171,57.0,0,30,11.0,0.0
3172,69.0,0,30,11.0,0.0
3173,57.0,0,30,6.0,0.0
3174,69.0,1,30,6.0,0.0
3175,64.0,0,30,4.0,0.0
3176,57.0,3,30,4.0,0.0
3177,57.0,1,30,12.0,0.0
3178,57.0,2,30,13.0,0.0
3179,45.0,17,110,14.0,0.0
3180,45.0,5,60,15.0,0.0
3181,83.0,0,20,7.0,0.0
3182,59.0,20,20,8.0,0.0
3183,58.0,0,20,8.0,0.0
3184,82.0,15,20,7.0,0.0
3185,57.0,20,20,8.0,0.0
3186,45.0,20,180,8.0,0.0
3187,81.0,0,20,7.0,0.0
3188,69.0,0,180,7.0,0.0
3189,62.0,1,110,12.0,0.0
3190,62.0,2,110,13.0,0.0
3191,56.0,20,20,8.0,0.0
3192,80.0,0,20,7.0,0.0
3193,79.0,0,20,7.0,0.0
3194,55.0,3,20,8.0,0.0
3195,81.0,2,30,10.0,0.0
3196,65.0,0,30,10.0,0.0
3197,78.0,0,20,7.0,0.0
3198,54.0,10,20,8.0,0.0
3199,74.0,0,30,10.0,0.0
3200,62.0,1,30,11.0,0.0
3201,65.0,0,30,11.0,0.0
3202,69.0,0,30,11.0,0.0
3203,69.0,0,30,6.0,0.0
3204,62.0,1,30,6.0,0.0
3205,62.0,6,30,4.0,0.0
3206,50.0,0,30,4.0,0.0
3207,33.0,17,230,14.0,0.0
3208,50.0,5,60,15.0,0.0
3209,77.0,17,20,7.0,0.0
3210,53.0,0,20,8.0,0.0
3211,52.0,15,20,8.0,0.0
3212,76.0,0,20,7.0,0.0
3213,51.0,17,20,8.0,0.0
3214,75.0,0,20,7.0,0.0
3215,65.0,1,30,12.0,0.0
3216,65.0,2,30,13.0,0.0
3217,50.0,20,20,8.0,0.0
3218,74.0,0,20,7.0,0.0
3219,73.0,0,20,7.0,0.0
3220,49.0,0,20,8.0,0.0
3221,64.0,0,30,10.0,0.0
3222,81.0,2,30,10.0,0.0
3223,73.0,0,30,10.0,0.0
3224,48.0,0,20,8.0,0.0
3225,72.0,10,20,7.0,0.0
3226,69.0,1,30,11.0,0.0
3227,57.0,0,30,6.0,0.0
3228,69.0,1,30,6.0,0.0
3229,57.0,0,30,4.0,0.0
3230,64.0,3,30,4.0,0.0
3231,57.0,3,30,12.0,0.0
3232,69.0,2,110,13.0,0.0
3233,45.0,5,60,15.0,0.0
3234,47.0,20,20,8.0,0.0
3235,71.0,0,20,7.0,0.0
3236,46.0,15,20,8.0,0.0
3237,70.0,0,20,7.0,0.0
3238,57.0,20,180,7.0,0.0
3239,69.0,20,20,7.0,0.0
3240,45.0,0,20,8.0,0.0
3241,33.0,0,180,8.0,0.0
3242,74.0,5,110,11.0,0.0
3243,62.0,3,110,12.0,0.0
3244,44.0,0,20,8.0,0.0
3245,68.0,18,20,7.0,0.0
3246,43.0,0,20,8.0,0.0
3247,67.0,3,20,7.0,0.0
3248,65.0,1,30,10.0,0.0
3249,74.0,0,30,10.0,0.0
3250,81.0,0,30,10.0,0.0
3251,66.0,0,20,7.0,0.0
3252,42.0,10,20,8.0,0.0
3253,86.0,2,30,0.0,0.0
3254,93.0,0,30,0.0,0.0
3255,62.0,0,30,6.0,0.0
3256,69.0,1,30,6.0,0.0
3257,77.0,2,30,1.0,0.0
3258,50.0,0,30,4.0,0.0
3259,81.0,0,30,1.0,0.0
3260,62.0,0,30,4.0,0.0
3261,65.0,0,30,2.0,0.0
3262,74.0,2,30,2.0,0.0
3263,62.0,0,30,13.0,0.0
3264,53.0,2,30,13.0,0.0
3265,62.0,1,30,3.0,0.0
3266,53.0,0,30,3.0,0.0
3267,45.0,9,30,14.0,0.0
3268,50.0,5,60,15.0,0.0
3269,65.0,0,20,7.0,0.0
3270,41.0,2,20,8.0,0.0
3271,40.0,15,20,8.0,0.0
3272,64.0,0,20,7.0,0.0
3273,39.0,12,20,8.0,0.0
3274,63.0,0,20,7.0,0.0
3275,77.0,5,30,11.0,0.0
3276,65.0,3,30,12.0,0.0
3277,62.0,0,20,7.0,0.0
3278,38.0,20,20,8.0,0.0
3279,61.0,0,20,7.0,0.0
3280,37.0,0,20,8.0,0.0
3281,64.0,1,30,10.0,0.0
3282,36.0,0,20,8.0,0.0
3283,60.0,10,20,7.0,0.0
3284,81.0,0,30,10.0,0.0
3285,73.0,0,30,10.0,0.0
3286,85.0,1,30,0.0,0.0
3287,93.0,0,30,0.0,0.0
3288,69.0,1,30,11.0,0.0
3289,81.0,0,30,11.0,0.0
3290,69.0,1,30,6.0,0.0
3291,57.0,0,30,6.0,0.0
3292,81.0,2,30,1.0,0.0
3293,57.0,0,30,4.0,0.0
3294,45.0,0,30,4.0,0.0
3295,76.0,0,30,1.0,0.0
3296,73.0,1,30,2.0,0.0
3297,64.0,0,30,2.0,0.0
3298,61.0,1,30,12.0,0.0
3299,69.0,0,30,12.0,0.0
3300,61.0,0,30,13.0,0.0
3301,52.0,2,30,13.0,0.0
3302,61.0,1,30,3.0,0.0
3303,52.0,0,30,3.0,0.0
3304,45.0,17,30,14.0,0.0
3305,45.0,5,60,15.0,0.0
3306,35.0,0,20,8.0,0.0
3307,59.0,2,20,7.0,0.0
3308,59.0,0,20,7.0,0.0
3309,35.0,15,20,8.0,0.0
3310,33.0,0,20,8.0,0.0
3311,33.0,20,20,8.0,0.0
3312,57.0,20,0,7.0,0.0
3313,56.0,20,20,7.0,0.0
3314,32.0,0,20,8.0,0.0
3315,33.0,10,20,8.0,0.0
3316,57.0,0,20,7.0,0.0
3317,64.0,1,30,10.0,0.0
3318,73.0,0,30,10.0,0.0
3319,81.0,0,30,10.0,0.0
3320,93.0,0,30,0.0,0.0
3321,85.0,1,30,0.0,0.0
3322,81.0,1,30,11.0,0.0
3323,69.0,0,30,11.0,0.0
3324,69.0,0,30,6.0,0.0
3325,57.0,1,30,6.0,0.0
3326,81.0,0,30,1.0,0.0
3327,76.0,0,30,1.0,0.0
3328,57.0,0,30,4.0,0.0
3329,45.0,2,30,4.0,0.0
3330,73.0,0,30,2.0,0.0
3331,64.0,1,30,2.0,0.0
3332,69.0,1,30,12.0,0.0
3333,61.0,0,30,12.0,0.0
3334,52.0,0,30,13.0,0.0
3335,61.0,2,30,13.0,0.0
3336,61.0,1,30,3.0,0.0
3337,52.0,0,30,3.0,0.0
3338,45.0,17,30,14.0,0.0
3339,45.0,5,60,15.0,0.0
3340,56.0,0,20,7.0,0.0
3341,32.0,2,20,8.0,0.0
3342,57.0,15,20,7.0,0.0
3343,33.0,0,20,8.0,0.0
3344,32.0,20,20,8.0,0.0
3345,56.0,0,20,7.0,0.0
3346,33.0,20,20,8.0,0.0
3347,57.0,0,20,7.0,0.0
3348,32.0,16,20,8.0,0.0
3349,56.0,0,20,7.0,0.0
3350,64.0,0,30,10.0,0.0
3351,33.0,15,60,8.0,0.0
3352,81.0,2,30,10.0,0.0
3353,73.0,0,30,10.0,0.0
3354,85.0,3,240,0.0,0.0
3355,93.0,0,240,0.0,0.0
3356,57.0,14,15,7.0,0.0
3357,81.0,0,30,11.0,0.0
3358,69.0,3,30,11.0,0.0
3359,57.0,1,1080,6.0,0.0
3360,69.0,0,1080,6.0,0.0
3361,57.0,0,240,4.0,0.0
3362,76.0,11,120,1.0,0.0
3363,81.0,2,240,1.0,0.0
3364,69.0,1,240,2.0,0.0
3365,73.0,0,240,2.0,0.0
3366,61.0,5,240,12.0,0.0
3367,57.0,0,240,12.0,0.0
3368,45.0,0,30,13.0,0.0
3369,52.0,0,30,13.0,0.0
3370,61.0,5,30,13.0,0.0
3371,45.0,0,240,3.0,0.0
3372,61.0,3,240,3.0,0.0
3373,33.0,11,30,14.0,0.0
3374,45.0,1,60,15.0,0.0
3375,56.0,3,15,7.0,0.0
3376,57.0,6,15,7.0,0.0
3377,56.0,20,15,7.0,0.0
3378,57.0,20,15,7.0,0.0
3379,56.0,8,15,7.0,0.0
3380,57.0,21,15,7.0,0.0
3381,56.0,19,15,7.0,0.0
3382,57.0,21,15,7.0,0.0
3383,56.0,19,15,7.0,0.0
3384,57.0,21,15,7.0,0.0
3385,56.0,5,15,7.0,0.0
3386,57.0,21,15,7.0,0.0
3387,92.0,0,240,0.0,0.0
3388,86.0,3,240,0.0,0.0
3389,80.0,0,240,1.0,0.0
3390,62.0,2,240,4.0,0.0
3391,74.0,0,240,2.0,0.0
3392,68.0,1,240,2.0,0.0
3393,59.0,0,240,12.0,0.0
3394,62.0,5,240,12.0,0.0
3395,47.0,4,240,3.0,0.0
3396,62.0,0,240,3.0,0.0
3397,56.0,21,15,7.0,0.0
3398,57.0,18,15,7.0,0.0
3399,56.0,21,15,7.0,0.0
3400,57.0,20,15,7.0,0.0
3401,56.0,20,15,7.0,0.0
3402,57.0,20,15,7.0,0.0
3403,56.0,20,15,7.0,0.0
3404,57.0,20,15,7.0,0.0
3405,56.0,20,15,7.0,0.0
3406,57.0,20,15,7.0,0.0
3407,56.0,5,15,7.0,0.0
3408,88.0,0,240,0.0,0.0
3409,57.0,21,15,7.0,0.0
3410,91.0,3,240,0.0,0.0
3411,79.0,0,240,1.0,0.0
3412,64.0,2,240,4.0,0.0
3413,76.0,0,240,2.0,0.0
3414,67.0,1,240,2.0,0.0
3415,64.0,0,240,12.0,0.0
3416,61.0,5,240,12.0,0.0
3417,49.0,0,240,3.0,0.0
3418,64.0,2,240,3.0,0.0
3419,56.0,18,15,7.0,0.0
3420,57.0,21,15,7.0,0.0
3421,56.0,20,15,7.0,0.0
3422,57.0,19,15,7.0,0.0
3423,56.0,20,15,7.0,0.0
3424,57.0,21,15,7.0,0.0
3425,56.0,21,15,7.0,0.0
3426,57.0,19,15,7.0,0.0
3427,56.0,21,15,7.0,0.0
3428,57.0,18,15,7.0,0.0
3429,56.0,6,15,7.0,0.0
3430,57.0,20,15,7.0,0.0
3431,86.0,3,240,0.0,0.0
3432,89.0,0,240,0.0,0.0
3433,69.0,2,360,4.0,0.0
3434,77.0,2,240,1.0,0.0
3435,77.0,0,240,2.0,0.0
3436,74.0,1,240,2.0,0.0
3437,62.0,0,240,12.0,0.0
3438,65.0,5,240,12.0,0.0
3439,50.0,0,240,3.0,0.0
3440,65.0,8,240,3.0,0.0
3441,56.0,20,15,7.0,0.0
3442,57.0,22,15,7.0,0.0
3443,56.0,20,15,7.0,0.0
3444,57.0,19,15,7.0,0.0
3445,56.0,19,15,7.0,0.0
3446,57.0,22,15,7.0,0.0
3447,56.0,19,15,7.0,0.0
3448,57.0,20,15,7.0,0.0
3449,56.0,20,15,7.0,0.0
3450,57.0,21,15,7.0,0.0
3451,56.0,5,15,7.0,0.0
3452,57.0,20,20,7.0,0.0
3453,88.0,0,120,0.0,0.0
3454,85.0,2,120,0.0,0.0
3455,76.0,0,120,1.0,0.0
3456,76.0,1,120,2.0,0.0
3457,73.0,0,120,2.0,0.0
3458,64.0,5,120,12.0,0.0
3459,61.0,0,120,12.0,0.0
3460,64.0,8,120,3.0,0.0
3461,57.0,0,120,3.0,0.0
3462,61.0,20,20,7.0,0.0
3463,64.0,20,20,7.0,0.0
3464,61.0,20,20,7.0,0.0
3465,64.0,20,20,7.0,0.0
3466,67.0,1,20,7.0,0.0
3467,64.0,20,20,7.0,0.0
3468,67.0,20,20,7.0,0.0
3469,70.0,20,20,7.0,0.0
3470,67.0,20,20,7.0,0.0
3471,70.0,20,20,7.0,0.0
3472,76.0,20,20,7.0,0.0
3473,70.0,20,20,7.0,0.0
3474,76.0,20,20,7.0,0.0
3475,79.0,20,20,7.0,0.0
3476,76.0,20,20,7.0,0.0
3477,79.0,20,20,7.0,0.0
3478,82.0,20,20,7.0,0.0
3479,81.0,20,20,7.0,0.0
3480,79.0,20,20,7.0,0.0
3481,77.0,20,20,7.0,0.0
3482,76.0,20,20,7.0,0.0
3483,79.0,20,20,7.0,0.0
3484,82.0,20,20,7.0,0.0
3485,81.0,20,20,7.0,0.0
3486,79.0,20,20,7.0,0.0
3487,77.0,20,20,7.0,0.0
3488,76.0,20,20,7.0,0.0
3489,79.0,20,20,7.0,0.0
3490,82.0,20,20,7.0,0.0
3491,79.0,20,20,7.0,0.0
3492,82.0,20,20,7.0,0.0
3493,88.0,20,20,7.0,0.0
3494,82.0,20,20,7.0,0.0
3495,88.0,20,20,7.0,0.0
3496,91.0,20,20,7.0,0.0
3497,88.0,20,20,7.0,0.0
3498,91.0,20,20,7.0,0.0
3499,94.0,20,20,7.0,0.0
3500,93.0,20,20,7.0,0.0
3501,91.0,20,20,7.0,0.0
3502,89.0,20,20,7.0,0.0
3503,88.0,20,20,7.0,0.0
3504,91.0,20,20,7.0,0.0
3505,94.0,20,20,7.0,0.0
3506,93.0,20,20,7.0,0.0
3507,91.0,20,20,7.0,0.0
3508,89.0,20,20,7.0,0.0
3509,79.0,20,60,8.0,0.0
3510,87.0,20,20,7.0,0.0
3511,94.0,20,20,7.0,0.0
3512,88.0,0,20,7.0,0.0
3513,84.0,20,20,7.0,0.0
3514,76.0,20,60,8.0,0.0
3515,91.0,20,20,7.0,0.0
3516,85.0,0,20,7.0,0.0
3517,81.0,20,20,7.0,0.0
3518,73.0,0,60,8.0,0.0
3519,88.0,20,20,7.0,0.0
3520,82.0,20,20,7.0,0.0
3521,70.0,0,60,8.0,0.0
3522,78.0,20,20,7.0,0.0
3523,85.0,20,20,7.0,0.0
3524,79.0,20,20,7.0,0.0
3525,67.0,0,60,8.0,0.0
3526,75.0,20,20,7.0,0.0
3527,82.0,20,20,7.0,0.0
3528,76.0,20,20,7.0,0.0
3529,64.0,0,60,8.0,0.0
3530,72.0,20,20,7.0,0.0
3531,79.0,20,20,7.0,0.0
3532,73.0,20,20,7.0,0.0
3533,61.0,0,60,8.0,0.0
3534,69.0,20,20,7.0,0.0
3535,76.0,20,20,7.0,0.0
3536,70.0,20,20,7.0,0.0
3537,58.0,20,60,8.0,0.0
3538,66.0,20,20,7.0,0.0
3539,73.0,20,20,7.0,0.0
3540,67.0,0,20,7.0,0.0
3541,63.0,20,20,7.0,0.0
3542,55.0,0,120,8.0,0.0
3543,70.0,20,20,7.0,0.0
3544,64.0,20,20,7.0,0.0
3545,63.0,20,20,7.0,0.0
3546,70.0,20,20,7.0,0.0
3547,64.0,20,20,7.0,0.0
3548,52.0,0,120,8.0,0.0
3549,60.0,20,20,7.0,0.0
3550,67.0,20,20,7.0,0.0
3551,61.0,20,20,7.0,0.0
3552,60.0,20,20,7.0,0.0
3553,67.0,20,20,7.0,0.0
3554,61.0,20,20,7.0,0.0
3555,57.0,20,20,7.0,0.0
3556,49.0,0,120,8.0,0.0
3557,64.0,20,20,7.0,0.0
3558,58.0,20,20,7.0,0.0
3559,57.0,20,20,7.0,0.0
3560,64.0,20,20,7.0,0.0
3561,58.0,20,20,7.0,0.0
3562,46.0,20,120,8.0,0.0
3563,54.0,20,20,7.0,0.0
3564,62.0,20,20,7.0,0.0
3565,55.0,20,20,7.0,0.0
3566,54.0,20,20,7.0,0.0
3567,62.0,20,20,7.0,0.0
3568,55.0,0,20,7.0,0.0
3569,54.0,20,20,7.0,0.0
3570,45.0,0,960,8.0,0.0
3571,61.0,20,20,7.0,0.0
3572,55.0,20,20,7.0,0.0
3573,54.0,20,20,7.0,0.0
3574,61.0,20,20,7.0,0.0
3575,55.0,20,20,7.0,0.0
3576,51.0,20,20,7.0,0.0
3577,33.0,0,840,8.0,0.0
3578,61.0,20,20,7.0,0.0
3579,52.0,20,20,7.0,0.0
3580,51.0,20,20,7.0,0.0
3581,61.0,20,20,7.0,0.0
3582,52.0,20,20,7.0,0.0
3583,51.0,20,20,7.0,0.0
3584,61.0,20,20,7.0,0.0
3585,52.0,20,20,7.0,0.0
3586,53.0,20,20,7.0,0.0
3587,61.0,20,20,7.0,0.0
3588,52.0,20,20,7.0,0.0
3589,55.0,20,20,7.0,0.0
3590,61.0,20,20,7.0,0.0
3591,53.0,20,20,7.0,0.0
3592,57.0,20,20,7.0,0.0
3593,61.0,20,20,7.0,0.0
3594,55.0,20,20,7.0,0.0
3595,58.0,20,20,7.0,0.0
3596,61.0,20,20,7.0,0.0
3597,57.0,20,20,7.0,0.0
3598,58.0,20,20,7.0,0.0
3599,61.0,20,20,7.0,0.0
3600,57.0,20,20,7.0,0.0
3601,58.0,20,20,7.0,0.0
3602,61.0,20,20,7.0,0.0
3603,57.0,20,20,7.0,0.0
3604,58.0,20,20,7.0,0.0
3605,61.0,20,20,7.0,0.0
3606,57.0,20,20,7.0,0.0
3607,58.0,20,20,7.0,0.0
3608,61.0,20,20,7.0,0.0
3609,56.0,20,20,7.0,0.0
3610,58.0,20,20,7.0,0.0
3611,61.0,20,20,7.0,0.0
3612,56.0,20,20,7.0,0.0
3613,58.0,20,20,7.0,0.0
3614,61.0,20,20,7.0,0.0
3615,56.0,20,20,7.0,0.0
3616,58.0,20,20,7.0,0.0
3617,61.0,20,20,7.0,0.0
3618,56.0,52,20,7.0,0.0
3619,57.0,5,55,7.0,0.0
3620,57.0,3,60,4.0,0.0
3621,45.0,0,60,4.0,0.0
3622,57.0,1,60,12.0,0.0
3623,45.0,18,60,13.0,0.0
3624,55.0,7,22,8.0,0.0
3625,62.0,3,115,7.0,0.0
3626,53.0,29,22,8.0,0.0
3627,52.0,32,22,8.0,0.0
3628,57.0,18,30,4.0,0.0
3629,53.0,7,22,8.0,0.0
3630,57.0,1,60,12.0,0.0
3631,53.0,7,60,13.0,0.0
3632,57.0,12,22,8.0,0.0
3633,55.0,4,22,8.0,0.0
3634,57.0,12,30,4.0,0.0
3635,55.0,1,60,12.0,0.0
3636,64.0,9,8,7.0,0.0
3637,52.0,17,60,13.0,0.0
3638,65.0,1,8,7.0,0.0
3639,64.0,5,8,7.0,0.0
3640,62.0,10,15,7.0,0.0
3641,52.0,3,22,8.0,0.0
3642,64.0,8,15,7.0,0.0
3643,65.0,7,30,7.0,0.0
3644,50.0,2,22,8.0,0.0
3645,57.0,23,30,4.0,0.0
3646,53.0,1,60,12.0,0.0
3647,50.0,18,60,13.0,0.0
3648,53.0,10,22,8.0,0.0
3649,69.0,4,30,7.0,0.0
3650,64.0,3,30,7.0,0.0
3651,52.0,1,22,8.0,0.0
3652,57.0,22,30,4.0,0.0
3653,52.0,1,60,12.0,0.0
3654,48.0,19,60,13.0,0.0
3655,48.0,11,22,8.0,0.0
3656,74.0,2,85,7.0,0.0
3657,65.0,3,85,7.0,0.0
3658,62.0,3,60,4.0,0.0
3659,46.0,29,22,8.0,0.0
3660,50.0,1,60,12.0,0.0
3661,46.0,14,60,13.0,0.0
3662,50.0,8,22,8.0,0.0
3663,45.0,16,22,8.0,0.0
3664,45.0,18,60,13.0,0.0
3665,74.0,2,15,7.0,0.0
3666,65.0,11,15,7.0,0.0
3667,50.0,12,22,8.0,0.0
3668,73.0,3,30,7.0,0.0
3669,64.0,4,30,7.0,0.0
3670,50.0,18,30,4.0,0.0
3671,62.0,0,30,4.0,0.0
3672,43.0,1,22,8.0,0.0
3673,50.0,1,60,12.0,0.0
3674,43.0,5,60,13.0,0.0
3675,74.0,4,25,7.0,0.0
3676,65.0,1,25,7.0,0.0
3677,50.0,10,22,8.0,0.0
3678,76.0,3,15,7.0,0.0
3679,67.0,9,15,7.0,0.0
3680,41.0,9,22,8.0,0.0
3681,62.0,10,30,4.0,0.0
3682,50.0,0,30,4.0,0.0
3683,50.0,1,60,12.0,0.0
3684,41.0,19,60,13.0,0.0
3685,77.0,1,15,7.0,0.0
3686,69.0,11,15,7.0,0.0
3687,50.0,11,22,8.0,0.0
3688,73.0,3,30,7.0,0.0
3689,64.0,3,30,7.0,0.0
3690,57.0,0,30,4.0,0.0
3691,45.0,23,30,4.0,0.0
3692,45.0,1,22,8.0,0.0
3693,57.0,1,60,12.0,0.0
3694,45.0,19,60,13.0,0.0
3695,57.0,10,22,8.0,0.0
3696,58.0,17,22,8.0,0.0
3697,74.0,2,15,7.0,0.0
3698,65.0,11,15,7.0,0.0
3699,57.0,29,22,8.0,0.0
3700,73.0,1,30,7.0,0.0
3701,64.0,5,30,7.0,0.0
3702,57.0,20,30,4.0,0.0
3703,69.0,0,30,4.0,0.0
3704,41.0,2,22,8.0,0.0
3705,53.0,1,60,12.0,0.0
3706,41.0,6,60,13.0,0.0
3707,74.0,1,25,7.0,0.0
3708,65.0,2,25,7.0,0.0
3709,53.0,10,22,8.0,0.0
3710,67.0,11,15,7.0,0.0
3711,76.0,0,15,7.0,0.0
3712,40.0,9,22,8.0,0.0
3713,57.0,0,30,4.0,0.0
3714,69.0,8,30,4.0,0.0
3715,50.0,1,60,12.0,0.0
3716,38.0,19,60,13.0,0.0
3717,77.0,3,15,7.0,0.0
3718,69.0,12,15,7.0,0.0
3719,52.0,10,22,8.0,0.0
3720,73.0,1,30,7.0,0.0
3721,64.0,26,30,7.0,0.0
3722,45.0,3,60,4.0,0.0
3723,57.0,0,60,4.0,0.0
3724,45.0,2,22,8.0,0.0
3725,57.0,1,60,12.0,0.0
3726,45.0,18,60,13.0,0.0
3727,57.0,8,22,8.0,0.0
3728,55.0,15,22,8.0,0.0
3729,69.0,9,10,7.0,0.0
3730,52.0,6,22,8.0,0.0
3731,71.0,5,10,7.0,0.0
3732,73.0,26,10,7.0,0.0
3733,74.0,3,30,7.0,0.0
3734,66.0,26,30,7.0,0.0
3735,50.0,0,360,4.0,0.0
3736,62.0,3,360,4.0,0.0
3737,50.0,1,22,8.0,0.0
3738,50.0,17,60,13.0,0.0
3739,48.0,11,22,8.0,0.0
3740,79.0,1,115,7.0,0.0
3741,74.0,1,115,7.0,0.0
3742,70.0,0,115,7.0,0.0
3743,67.0,1,115,7.0,0.0
3744,46.0,32,22,8.0,0.0
3745,48.0,17,60,13.0,0.0
3746,45.0,11,22,8.0,0.0
3747,46.0,28,22,8.0,0.0
3748,62.0,1,60,12.0,0.0
3749,46.0,17,60,13.0,0.0
3750,50.0,11,22,8.0,0.0
3751,81.0,0,60,7.0,0.0
3752,69.0,8,60,7.0,0.0
3753,74.0,25,90,7.0,0.0
3754,46.0,32,22,8.0,0.0
3755,60.0,1,60,12.0,0.0
3756,45.0,18,60,13.0,0.0
3757,45.0,2,22,8.0,0.0
3758,82.0,1,30,7.0,0.0
3759,70.0,0,30,7.0,0.0
3760,43.0,3,22,8.0,0.0
3761,58.0,1,60,12.0,0.0
3762,43.0,17,60,13.0,0.0
3763,46.0,12,22,8.0,0.0
3764,86.0,3,55,7.0,0.0
3765,70.0,1,55,7.0,0.0
3766,81.0,1,55,7.0,0.0
3767,43.0,27,22,8.0,0.0
3768,57.0,1,60,12.0,0.0
3769,41.0,18,60,13.0,0.0
3770,41.0,7,22,8.0,0.0
3771,91.0,2,115,7.0,0.0
3772,82.0,0,115,7.0,0.0
3773,79.0,1,115,7.0,0.0
3774,39.0,29,22,8.0,0.0
3775,67.0,3,120,4.0,0.0
3776,55.0,1,60,12.0,0.0
3777,39.0,17,60,13.0,0.0
3778,51.0,12,22,8.0,0.0
3779,38.0,29,22,8.0,0.0
3780,53.0,1,60,12.0,0.0
3781,38.0,17,60,13.0,0.0
3782,50.0,7,22,8.0,0.0
3783,94.0,2,30,7.0,0.0
3784,82.0,2,30,7.0,0.0
3785,91.0,3,30,7.0,0.0
3786,37.0,2,22,8.0,0.0
3787,67.0,21,30,4.0,0.0
3788,52.0,1,60,12.0,0.0
3789,37.0,17,60,13.0,0.0
3790,52.0,12,22,8.0,0.0
3791,93.0,2,30,7.0,0.0
3792,89.0,0,30,7.0,0.0
3793,81.0,3,30,7.0,0.0
3794,38.0,4,22,8.0,0.0
3795,65.0,22,30,4.0,0.0
3796,53.0,1,60,12.0,0.0
3797,38.0,18,60,13.0,0.0
3798,53.0,11,22,8.0,0.0
3799,91.0,2,30,7.0,0.0
3800,88.0,0,30,7.0,0.0
3801,79.0,3,30,7.0,0.0
3802,64.0,21,30,4.0,0.0
3803,40.0,3,22,8.0,0.0
3804,55.0,1,60,12.0,0.0
3805,40.0,19,60,13.0,0.0
3806,55.0,12,22,8.0,0.0
3807,89.0,2,30,7.0,0.0
3808,86.0,1,30,7.0,0.0
3809,77.0,3,30,7.0,0.0
3810,62.0,22,30,4.0,0.0
3811,41.0,1,22,8.0,0.0
3812,57.0,1,60,12.0,0.0
3813,41.0,18,60,13.0,0.0
3814,57.0,11,22,8.0,0.0
3815,88.0,2,30,7.0,0.0
3816,85.0,1,30,7.0,0.0
3817,76.0,3,30,7.0,0.0
3818,43.0,2,22,8.0,0.0
3819,64.0,21,30,4.0,0.0
3820,58.0,1,60,12.0,0.0
3821,43.0,7,60,13.0,0.0
3822,58.0,12,22,8.0,0.0
3823,77.0,7,60,7.0,0.0
3824,44.0,6,22,8.0,0.0
3825,65.0,11,30,4.0,0.0
3826,59.0,1,60,12.0,0.0
3827,86.0,7,8,7.0,0.0
3828,44.0,17,60,13.0,0.0
3829,88.0,3,8,7.0,0.0
3830,86.0,3,8,7.0,0.0
3831,85.0,12,15,7.0,0.0
3832,59.0,2,22,8.0,0.0
3833,86.0,1,15,7.0,0.0
3834,85.0,2,60,7.0,0.0
3835,76.0,7,60,7.0,0.0
3836,45.0,9,22,8.0,0.0
3837,64.0,23,30,4.0,0.0
3838,60.0,1,60,12.0,0.0
3839,45.0,2,60,13.0,0.0
3840,61.0,1,22,8.0,0.0
3841,69.0,10,10,7.0,0.0
3842,70.0,10,10,7.0,0.0
3843,69.0,10,10,7.0,0.0
3844,70.0,10,10,7.0,0.0
3845,69.0,10,10,7.0,0.0
3846,70.0,28,10,7.0,0.0
3847,82.0,1,30,7.0,0.0
3848,79.0,13,30,7.0,0.0
3849,49.0,1,22,8.0,0.0
3850,37.0,14,30,14.0,0.0
3851,57.0,31,22,8.0,0.0
3852,81.0,0,30,7.0,0.0
3853,77.0,11,30,7.0,0.0
3854,50.0,4,22,8.0,0.0
3855,38.0,15,30,14.0,0.0
3856,57.0,29,22,8.0,0.0
3857,79.0,2,30,7.0,0.0
3858,76.0,12,30,7.0,0.0
3859,52.0,2,22,8.0,0.0
3860,40.0,15,30,14.0,0.0
3861,57.0,29,22,8.0,0.0
3862,77.0,2,30,7.0,0.0
3863,74.0,12,30,7.0,0.0
3864,53.0,2,22,8.0,0.0
3865,41.0,15,30,14.0,0.0
3866,57.0,28,22,8.0,0.0
3867,76.0,1,30,7.0,0.0
3868,73.0,12,30,7.0,0.0
3869,55.0,4,22,8.0,0.0
3870,43.0,15,30,14.0,0.0
3871,57.0,19,22,8.0,0.0
3872,69.0,28,120,7.0,0.0
3873,53.0,5,22,8.0,0.0
3874,74.0,8,8,7.0,0.0
3875,41.0,3,30,14.0,0.0
3876,76.0,1,8,7.0,0.0
3877,74.0,12,8,7.0,0.0
3878,73.0,10,15,7.0,0.0
3879,57.0,6,22,8.0,0.0
3880,74.0,24,15,7.0,0.0
3881,73.0,4,55,7.0,0.0
3882,52.0,17,22,8.0,0.0
3883,40.0,10,30,14.0,0.0
3884,64.0,3,22,8.0,0.0
3885,76.0,10,120,7.0,0.0
3886,57.0,30,22,8.0,0.0
3887,73.0,0,60,2.0,0.0
3888,69.0,1,60,2.0,0.0
3889,61.0,1,60,12.0,0.0
3890,57.0,4,60,13.0,0.0
3891,57.0,16,60,3.0,0.0
3892,64.0,8,22,8.0,0.0
3893,64.0,2,180,4.0,0.0
3894,56.0,30,22,8.0,0.0
3895,64.0,1,120,2.0,0.0
3896,71.0,0,120,2.0,0.0
3897,59.0,1,120,12.0,0.0
3898,56.0,7,60,13.0,0.0
3899,56.0,15,120,3.0,0.0
3900,64.0,0,22,8.0,0.0
3901,52.0,4,22,8.0,0.0
3902,74.0,8,8,7.0,0.0
3903,52.0,4,60,13.0,0.0
3904,76.0,3,8,7.0,0.0
3905,74.0,17,8,7.0,0.0
3906,73.0,10,15,7.0,0.0
3907,64.0,5,22,8.0,0.0
3908,74.0,4,15,7.0,0.0
3909,73.0,5,55,7.0,0.0
3910,57.0,26,22,8.0,0.0
3911,69.0,0,60,2.0,0.0
3912,73.0,1,60,2.0,0.0
3913,57.0,1,60,12.0,0.0
3914,57.0,4,60,13.0,0.0
3915,57.0,15,60,3.0,0.0
3916,64.0,6,22,8.0,0.0
3917,76.0,13,120,7.0,0.0
3918,55.0,29,22,8.0,0.0
3919,43.0,13,60,14.0,0.0
3920,64.0,17,22,8.0,0.0
3921,64.0,9,180,4.0,0.0
3922,54.0,32,22,8.0,0.0
3923,42.0,2,60,14.0,0.0
3924,64.0,2,22,8.0,0.0
3925,59.0,5,22,8.0,0.0
3926,74.0,9,8,7.0,0.0
3927,47.0,14,60,14.0,0.0
3928,76.0,2,8,7.0,0.0
3929,74.0,16,8,7.0,0.0
3930,73.0,10,15,7.0,0.0
3931,64.0,4,22,8.0,0.0
3932,76.0,12,15,7.0,0.0
3933,73.0,3,55,7.0,0.0
3934,58.0,28,22,8.0,0.0
3935,46.0,14,60,14.0,0.0
3936,64.0,6,22,8.0,0.0
3937,76.0,3,120,7.0,0.0
3938,73.0,1,60,0.0,0.0
3939,61.0,5,60,11.0,0.0
3940,55.0,31,22,8.0,0.0
3941,61.0,1,60,12.0,0.0
3942,55.0,4,60,13.0,0.0
3943,55.0,16,60,3.0,0.0
3944,67.0,3,22,8.0,0.0
3945,72.0,1,60,0.0,0.0
3946,60.0,6,60,11.0,0.0
3947,66.0,3,120,4.0,0.0
3948,56.0,29,22,8.0,0.0
3949,66.0,1,120,12.0,0.0
3950,56.0,4,60,13.0,0.0
3951,56.0,3,60,3.0,0.0
3952,68.0,1,22,8.0,0.0
3953,75.0,1,60,0.0,0.0
3954,63.0,2,60,11.0,0.0
3955,60.0,3,22,8.0,0.0
3956,75.0,8,8,7.0,0.0
3957,60.0,4,60,13.0,0.0
3958,60.0,16,60,3.0,0.0
3959,76.0,5,8,7.0,0.0
3960,75.0,15,8,7.0,0.0
3961,73.0,10,15,7.0,0.0
3962,68.0,4,22,8.0,0.0
3963,75.0,1,15,7.0,0.0
3964,73.0,2,55,7.0,0.0
3965,68.0,1,60,0.0,0.0
3966,64.0,2,60,11.0,0.0
3967,64.0,3,60,4.0,0.0
3968,61.0,27,22,8.0,0.0
3969,64.0,1,60,12.0,0.0
3970,61.0,4,60,13.0,0.0
3971,61.0,15,60,3.0,0.0
3972,68.0,4,22,8.0,0.0
3973,76.0,5,85,7.0,0.0
3974,64.0,0,2460,4.0,0.0
3975,56.0,31,22,8.0,0.0
3976,44.0,10,60,14.0,0.0
3977,68.0,15,22,8.0,0.0
3978,61.0,30,22,8.0,0.0
3979,49.0,6,60,12.0,0.0
3980,49.0,15,60,14.0,0.0
3981,73.0,7,30,7.0,0.0
3982,68.0,2,22,8.0,0.0
3983,76.0,1,85,7.0,0.0
3984,56.0,29,22,8.0,0.0
3985,56.0,17,60,13.0,0.0
3986,68.0,11,22,8.0,0.0
3987,61.0,6,60,11.0,0.0
3988,61.0,30,22,8.0,0.0
3989,61.0,20,60,13.0,0.0
3990,73.0,3,30,7.0,0.0
3991,68.0,3,22,8.0,0.0
3992,76.0,5,85,7.0,0.0
3993,56.0,28,22,8.0,0.0
3994,44.0,10,60,14.0,0.0
3995,68.0,17,22,8.0,0.0
3996,61.0,29,22,8.0,0.0
3997,49.0,6,60,12.0,0.0
3998,49.0,15,60,14.0,0.0
3999,73.0,9,30,7.0,0.0
4000,68.0,1,22,8.0,0.0
4001,76.0,7,85,7.0,0.0
4002,56.0,40,22,8.0,0.0
4003,56.0,16,60,13.0,0.0
4004,68.0,29,55,8.0,0.0
4005,68.0,1,60,11.0,0.0
4006,56.0,2,60,11.0,0.0
4007,68.0,16,60,13.0,0.0
4008,73.0,1,30,7.0,0.0
4009,61.0,3,30,8.0,0.0
4010,76.0,5,22,7.0,0.0
4011,64.0,32,22,8.0,0.0
4012,73.0,4,30,7.0,0.0
4013,61.0,20,30,8.0,0.0
4014,76.0,2,22,7.0,0.0
4015,64.0,34,22,8.0,0.0
4016,68.0,4,30,7.0,0.0
4017,56.0,20,30,8.0,0.0
4018,73.0,4,22,7.0,0.0
4019,61.0,32,22,8.0,0.0
4020,68.0,6,30,7.0,0.0
4021,56.0,17,30,8.0,0.0
4022,73.0,5,22,7.0,0.0
4023,61.0,33,22,8.0,0.0
4024,64.0,3,30,7.0,0.0
4025,52.0,20,30,8.0,0.0
4026,68.0,2,22,7.0,0.0
4027,56.0,35,22,8.0,0.0
4028,64.0,5,30,7.0,0.0
4029,52.0,18,30,8.0,0.0
4030,68.0,4,22,7.0,0.0
4031,56.0,32,22,8.0,0.0
4032,61.0,4,30,7.0,0.0
4033,49.0,19,30,8.0,0.0
4034,64.0,3,22,7.0,0.0
4035,52.0,35,22,8.0,0.0
4036,61.0,4,30,7.0,0.0
4037,49.0,18,30,8.0,0.0
4038,64.0,5,22,7.0,0.0
4039,52.0,34,22,8.0,0.0
4040,56.0,3,30,7.0,0.0
4041,44.0,18,30,8.0,0.0
4042,61.0,4,22,7.0,0.0
4043,49.0,33,22,8.0,0.0
4044,57.0,6,30,7.0,0.0
4045,45.0,17,30,8.0,0.0
4046,61.0,5,22,7.0,0.0
4047,49.0,33,22,8.0,0.0
4048,56.0,3,30,7.0,0.0
4049,44.0,18,30,8.0,0.0
4050,61.0,4,22,7.0,0.0
4051,49.0,34,22,8.0,0.0
4052,55.0,6,30,7.0,0.0
4053,43.0,16,30,8.0,0.0
4054,61.0,6,22,7.0,0.0
4055,49.0,34,22,8.0,0.0
4056,56.0,3,30,7.0,0.0
4057,44.0,19,30,8.0,0.0
4058,61.0,4,22,7.0,0.0
4059,49.0,34,22,8.0,0.0
4060,57.0,2,30,7.0,0.0
4061,45.0,19,30,8.0,0.0
4062,61.0,4,22,7.0,0.0
4063,49.0,33,22,8.0,0.0
4064,56.0,6,30,7.0,0.0
4065,44.0,18,30,8.0,0.0
4066,61.0,2,22,7.0,0.0
4067,49.0,34,22,8.0,0.0
4068,55.0,5,30,7.0,0.0
4069,43.0,18,30,8.0,0.0
4070,61.0,3,22,7.0,0.0
4071,49.0,34,22,8.0,0.0
4072,56.0,4,30,7.0,0.0
4073,44.0,20,30,8.0,0.0
4074,61.0,3,22,7.0,0.0
4075,49.0,33,22,8.0,0.0
4076,57.0,6,30,7.0,0.0
4077,45.0,18,30,8.0,0.0
4078,61.0,2,22,7.0,0.0
4079,49.0,34,22,8.0,0.0
4080,57.0,2,960,4.0,0.0
4081,61.0,6,30,7.0,0.0
4082,49.0,17,30,8.0,0.0
4083,64.0,4,22,7.0,0.0
4084,52.0,33,22,8.0,0.0
4085,64.0,6,30,7.0,0.0
4086,52.0,16,30,8.0,0.0
4087,67.0,5,22,7.0,0.0
4088,55.0,35,22,8.0,0.0
4089,67.0,4,30,7.0,0.0
4090,55.0,18,30,8.0,0.0
4091,73.0,2,22,7.0,0.0
4092,61.0,34,22,8.0,0.0
4093,73.0,5,30,7.0,0.0
4094,61.0,17,30,8.0,0.0
4095,76.0,4,22,7.0,0.0
4096,64.0,36,22,8.0,0.0
4097,76.0,3,30,7.0,0.0
4098,64.0,17,30,8.0,0.0
4099,79.0,4,22,7.0,0.0
4100,67.0,34,22,8.0,0.0
4101,79.0,4,30,7.0,0.0
4102,67.0,18,30,8.0,0.0
4103,85.0,4,22,7.0,0.0
4104,73.0,34,22,8.0,0.0
4105,85.0,6,30,7.0,0.0
4106,73.0,16,30,8.0,0.0
4107,88.0,4,22,7.0,0.0
4108,76.0,34,22,8.0,0.0
4109,88.0,5,30,7.0,0.0
4110,76.0,15,30,8.0,0.0
4111,91.0,5,20,7.0,0.0
4112,79.0,17,20,8.0,0.0
4113,89.0,4,20,7.0,0.0
4114,77.0,14,20,8.0,0.0
4115,88.0,4,20,7.0,0.0
4116,76.0,17,20,8.0,0.0
4117,86.0,5,20,7.0,0.0
4118,74.0,16,20,8.0,0.0
4119,85.0,4,20,7.0,0.0
4120,73.0,16,20,8.0,0.0
4121,82.0,4,20,7.0,0.0
4122,70.0,14,20,8.0,0.0
4123,81.0,6,20,7.0,0.0
4124,69.0,15,20,8.0,0.0
4125,79.0,3,20,7.0,0.0
4126,67.0,18,20,8.0,0.0
4127,77.0,2,20,7.0,0.0
4128,65.0,17,20,8.0,0.0
4129,76.0,5,20,7.0,0.0
4130,64.0,14,20,8.0,0.0
4131,74.0,6,20,7.0,0.0
4132,62.0,15,20,8.0,0.0
4133,73.0,5,20,7.0,0.0
4134,61.0,12,20,8.0,0.0
4135,70.0,3,16,7.0,0.0
4136,58.0,11,16,8.0,0.0
4137,69.0,6,16,7.0,0.0
4138,57.0,11,16,8.0,0.0
4139,67.0,4,16,7.0,0.0
4140,55.0,11,16,8.0,0.0
4141,65.0,4,16,7.0,0.0
4142,53.0,13,16,8.0,0.0
4143,64.0,4,16,7.0,0.0
4144,52.0,13,16,8.0,0.0
4145,62.0,3,16,7.0,0.0
4146,50.0,13,16,8.0,0.0
4147,61.0,4,16,7.0,0.0
4148,49.0,12,16,8.0,0.0
4149,58.0,4,16,7.0,0.0
4150,46.0,12,16,8.0,0.0
4151,57.0,4,16,7.0,0.0
4152,45.0,13,16,8.0,0.0
4153,55.0,3,16,7.0,0.0
4154,43.0,13,16,8.0,0.0
4155,53.0,3,16,7.0,0.0
4156,41.0,12,16,8.0,0.0
4157,52.0,5,16,7.0,0.0
4158,40.0,12,16,8.0,0.0
4159,50.0,4,16,7.0,0.0
4160,38.0,12,16,8.0,0.0
4161,49.0,4,16,7.0,0.0
4162,37.0,11,16,8.0,0.0
4163,46.0,2,16,7.0,0.0
4164,34.0,21,16,8.0,0.0
4165,45.0,3,60,7.0,0.0
4166,57.0,2,30,10.0,0.0
4167,57.0,1,30,11.0,0.0
4168,33.0,1,60,8.0,0.0
4169,57.0,0,60,4.0,0.0
4170,45.0,23,60,4.0,0.0
4171,57.0,1,20,12.0,0.0
4172,57.0,2,20,13.0,0.0
4173,45.0,24,20,14.0,0.0
4174,55.0,1,20,12.0,0.0
4175,55.0,2,20,13.0,0.0
4176,43.0,0,20,14.0,0.0
4177,62.0,2,105,10.0,0.0
4178,62.0,10,105,11.0,0.0
4179,53.0,1,20,12.0,0.0
4180,53.0,5,20,13.0,0.0
4181,41.0,24,20,14.0,0.0
4182,52.0,1,20,12.0,0.0
4183,52.0,5,20,13.0,0.0
4184,40.0,24,20,14.0,0.0
4185,57.0,11,30,4.0,0.0
4186,53.0,1,20,12.0,0.0
4187,53.0,5,20,13.0,0.0
4188,41.0,1,20,14.0,0.0
4189,57.0,1,20,12.0,0.0
4190,57.0,5,20,13.0,0.0
4191,45.0,5,20,14.0,0.0
4192,65.0,2,8,10.0,0.0
4193,65.0,5,8,11.0,0.0
4194,57.0,11,30,4.0,0.0
4195,64.0,2,8,10.0,0.0
4196,55.0,1,20,12.0,0.0
4197,55.0,2,20,13.0,0.0
4198,64.0,6,8,11.0,0.0
4199,43.0,1,20,14.0,0.0
4200,65.0,2,8,10.0,0.0
4201,65.0,2,8,11.0,0.0
4202,64.0,2,8,10.0,0.0
4203,64.0,1,8,11.0,0.0
4204,62.0,2,15,10.0,0.0
4205,62.0,10,15,11.0,0.0
4206,52.0,1,20,12.0,0.0
4207,52.0,2,20,13.0,0.0
4208,40.0,24,20,14.0,0.0
4209,64.0,2,15,10.0,0.0
4210,64.0,1,15,11.0,0.0
4211,65.0,2,30,10.0,0.0
4212,65.0,1,30,11.0,0.0
4213,57.0,23,30,4.0,0.0
4214,50.0,1,20,12.0,0.0
4215,50.0,2,20,13.0,0.0
4216,38.0,1,20,14.0,0.0
4217,53.0,1,20,12.0,0.0
4218,53.0,5,20,13.0,0.0
4219,41.0,24,20,14.0,0.0
4220,69.0,2,30,10.0,0.0
4221,69.0,1,30,11.0,0.0
4222,57.0,23,30,4.0,0.0
4223,52.0,1,20,12.0,0.0
4224,52.0,2,20,13.0,0.0
4225,40.0,1,20,14.0,0.0
4226,48.0,1,20,12.0,0.0
4227,48.0,5,20,13.0,0.0
4228,36.0,24,20,14.0,0.0
4229,74.0,2,75,10.0,0.0
4230,74.0,10,75,11.0,0.0
4231,62.0,23,30,4.0,0.0
4232,58.0,1,20,12.0,0.0
4233,46.0,5,20,13.0,0.0
4234,34.0,1,20,14.0,0.0
4235,50.0,1,20,12.0,0.0
4236,50.0,5,20,13.0,0.0
4237,38.0,12,20,14.0,0.0
4238,57.0,1,20,12.0,0.0
4239,45.0,5,20,13.0,0.0
4240,33.0,12,20,14.0,0.0
4241,74.0,2,15,10.0,0.0
4242,74.0,10,15,11.0,0.0
4243,50.0,1,20,12.0,0.0
4244,50.0,5,20,13.0,0.0
4245,38.0,24,20,14.0,0.0
4246,73.0,2,30,10.0,0.0
4247,73.0,2,30,11.0,0.0
4248,62.0,21,30,4.0,0.0
4249,50.0,0,30,4.0,0.0
4250,55.0,1,20,12.0,0.0
4251,43.0,2,20,13.0,0.0
4252,31.0,12,50,14.0,0.0
4253,74.0,2,25,10.0,0.0
4254,74.0,1,25,11.0,0.0
4255,50.0,0,20,12.0,0.0
4256,50.0,5,20,13.0,0.0
4257,76.0,2,15,10.0,0.0
4258,76.0,10,15,11.0,0.0
4259,62.0,0,30,4.0,0.0
4260,50.0,11,30,4.0,0.0
4261,53.0,1,20,12.0,0.0
4262,41.0,6,20,13.0,0.0
4263,29.0,24,50,14.0,0.0
4264,77.0,2,15,10.0,0.0
4265,77.0,10,15,11.0,0.0
4266,50.0,1,20,12.0,0.0
4267,50.0,5,20,13.0,0.0
4268,73.0,2,30,10.0,0.0
4269,73.0,2,30,11.0,0.0
4270,57.0,23,30,4.0,0.0
4271,45.0,0,30,4.0,0.0
4272,57.0,1,20,12.0,0.0
4273,45.0,2,20,13.0,0.0
4274,33.0,24,50,14.0,0.0
4275,57.0,1,20,12.0,0.0
4276,57.0,5,20,13.0,0.0
4277,58.0,1,20,12.0,0.0
4278,58.0,17,20,13.0,0.0
4279,74.0,2,15,10.0,0.0
4280,74.0,10,15,11.0,0.0
4281,57.0,1,20,12.0,0.0
4282,57.0,29,20,13.0,0.0
4283,73.0,2,30,10.0,0.0
4284,73.0,2,30,11.0,0.0
4285,69.0,0,30,4.0,0.0
4286,57.0,21,30,4.0,0.0
4287,57.0,1,20,12.0,0.0
4288,41.0,2,20,13.0,0.0
4289,41.0,12,50,14.0,0.0
4290,74.0,2,25,10.0,0.0
4291,74.0,0,25,11.0,0.0
4292,53.0,1,20,12.0,0.0
4293,53.0,5,20,13.0,0.0
4294,76.0,2,15,10.0,0.0
4295,76.0,10,15,11.0,0.0
4296,57.0,0,30,4.0,0.0
4297,69.0,11,30,4.0,0.0
4298,57.0,1,20,12.0,0.0
4299,38.0,6,20,13.0,0.0
4300,38.0,24,50,14.0,0.0
4301,77.0,2,15,10.0,0.0
4302,77.0,10,15,11.0,0.0
4303,50.0,1,20,12.0,0.0
4304,50.0,5,20,13.0,0.0
4305,73.0,2,30,10.0,0.0
4306,73.0,2,30,11.0,0.0
4307,57.0,0,30,4.0,0.0
4308,45.0,24,30,4.0,0.0
4309,57.0,1,20,12.0,0.0
4310,45.0,2,20,13.0,0.0
4311,45.0,24,50,14.0,0.0
4312,57.0,5,20,13.0,0.0
4313,57.0,1,20,12.0,0.0
4314,55.0,12,20,13.0,0.0
4315,69.0,1,10,10.0,0.0
4316,69.0,1,10,0.0,0.0
4317,69.0,2,10,11.0,0.0
4318,69.0,6,10,1.0,0.0
4319,67.0,1,20,12.0,0.0
4320,52.0,2,20,13.0,0.0
4321,71.0,1,10,10.0,0.0
4322,71.0,1,10,0.0,0.0
4323,71.0,2,10,11.0,0.0
4324,71.0,3,10,1.0,0.0
4325,73.0,1,10,10.0,0.0
4326,73.0,1,10,0.0,0.0
4327,73.0,2,10,11.0,0.0
4328,73.0,24,10,1.0,0.0
4329,74.0,1,30,10.0,0.0
4330,74.0,1,30,0.0,0.0
4331,74.0,0,30,11.0,0.0
4332,50.0,23,360,4.0,0.0
4333,62.0,0,360,4.0,0.0
4334,74.0,2,30,1.0,0.0
4335,74.0,21,30,2.0,0.0
4336,62.0,22,60,5.0,0.0
4337,50.0,0,60,5.0,0.0
4338,66.0,0,50,12.0,0.0
4339,57.0,1,50,12.0,0.0
4340,62.0,2,20,13.0,0.0
4341,62.0,1,20,3.0,0.0
4342,50.0,1,20,14.0,0.0
4343,60.0,4,20,13.0,0.0
4344,60.0,1,20,3.0,0.0
4345,48.0,3,20,14.0,0.0
4346,79.0,1,105,10.0,0.0
4347,79.0,1,105,0.0,0.0
4348,67.0,2,105,11.0,0.0
4349,67.0,2,105,1.0,0.0
4350,79.0,6,105,2.0,0.0
4351,62.0,1,80,12.0,0.0
4352,58.0,0,80,12.0,0.0
4353,58.0,4,20,13.0,0.0
4354,58.0,1,20,3.0,0.0
4355,46.0,25,20,14.0,0.0
4356,57.0,4,20,13.0,0.0
4357,57.0,1,20,3.0,0.0
4358,45.0,24,20,14.0,0.0
4359,62.0,9,30,5.0,0.0
4360,50.0,0,30,5.0,0.0
4361,58.0,4,20,13.0,0.0
4362,58.0,1,20,3.0,0.0
4363,46.0,3,20,14.0,0.0
4364,50.0,1,20,12.0,0.0
4365,62.0,4,20,13.0,0.0
4366,62.0,1,20,3.0,0.0
4367,50.0,5,20,14.0,0.0
4368,82.0,1,8,10.0,0.0
4369,82.0,1,8,0.0,0.0
4370,67.0,2,8,11.0,0.0
4371,70.0,2,8,1.0,0.0
4372,70.0,1,8,2.0,0.0
4373,50.0,0,30,5.0,0.0
4374,62.0,9,30,5.0,0.0
4375,79.0,0,8,2.0,0.0
4376,62.0,1,20,12.0,0.0
4377,81.0,1,8,10.0,0.0
4378,81.0,1,8,0.0,0.0
4379,60.0,1,20,13.0,0.0
4380,66.0,2,8,11.0,0.0
4381,69.0,2,8,1.0,0.0
4382,60.0,1,20,3.0,0.0
4383,69.0,2,8,2.0,0.0
4384,78.0,0,8,2.0,0.0
4385,48.0,1,20,14.0,0.0
4386,82.0,1,8,10.0,0.0
4387,82.0,1,8,0.0,0.0
4388,67.0,2,8,11.0,0.0
4389,70.0,0,8,1.0,0.0
4390,79.0,0,8,2.0,0.0
4391,70.0,1,8,2.0,0.0
4392,81.0,1,8,10.0,0.0
4393,81.0,1,8,0.0,0.0
4394,66.0,0,8,11.0,0.0
4395,69.0,2,8,1.0,0.0
4396,78.0,0,8,2.0,0.0
4397,69.0,0,8,2.0,0.0
4398,79.0,1,15,10.0,0.0
4399,79.0,1,15,0.0,0.0
4400,64.0,2,15,11.0,0.0
4401,67.0,2,15,1.0,0.0
4402,67.0,0,15,2.0,0.0
4403,76.0,6,15,2.0,0.0
4404,50.0,1,20,12.0,0.0
4405,57.0,2,20,13.0,0.0
4406,57.0,0,20,3.0,0.0
4407,45.0,1,20,14.0,0.0
4408,81.0,1,15,10.0,0.0
4409,81.0,1,15,0.0,0.0
4410,66.0,1,15,11.0,0.0
4411,69.0,2,15,1.0,0.0
4412,69.0,0,15,2.0,0.0
4413,78.0,22,15,2.0,0.0
4414,82.0,1,30,10.0,0.0
4415,82.0,1,30,0.0,0.0
4416,67.0,1,30,11.0,0.0
4417,70.0,2,30,1.0,0.0
4418,70.0,0,30,2.0,0.0
4419,79.0,0,30,2.0,0.0
4420,62.0,0,30,5.0,0.0
4421,50.0,21,30,5.0,0.0
4422,62.0,1,50,12.0,0.0
4423,55.0,2,20,13.0,0.0
4424,55.0,0,20,3.0,0.0
4425,43.0,1,20,14.0,0.0
4426,58.0,4,20,13.0,0.0
4427,58.0,1,20,3.0,0.0
4428,46.0,25,20,14.0,0.0
4429,86.0,1,30,10.0,0.0
4430,81.0,0,30,0.0,0.0
4431,86.0,1,30,0.0,0.0
4432,69.0,1,30,11.0,0.0
4433,74.0,2,30,1.0,0.0
4434,74.0,0,30,2.0,0.0
4435,69.0,21,30,2.0,0.0
4436,62.0,0,30,5.0,0.0
4437,50.0,0,30,5.0,0.0
4438,50.0,1,50,12.0,0.0
4439,57.0,2,20,13.0,0.0
4440,57.0,0,20,3.0,0.0
4441,45.0,1,20,14.0,0.0
4442,53.0,4,20,13.0,0.0
4443,53.0,1,20,3.0,0.0
4444,41.0,1,20,14.0,0.0
4445,91.0,1,105,10.0,0.0
4446,82.0,0,105,0.0,0.0
4447,91.0,1,105,0.0,0.0
4448,70.0,2,105,11.0,0.0
4449,79.0,2,105,1.0,0.0
4450,67.0,23,120,4.0,0.0
4451,58.0,21,30,5.0,0.0
4452,70.0,6,105,2.0,0.0
4453,79.0,0,105,2.0,0.0
4454,55.0,1,20,12.0,0.0
4455,51.0,4,20,13.0,0.0
4456,51.0,1,20,3.0,0.0
4457,39.0,3,20,14.0,0.0
4458,51.0,1,20,12.0,0.0
4459,55.0,4,20,13.0,0.0
4460,55.0,1,20,3.0,0.0
4461,43.0,24,20,14.0,0.0
4462,58.0,1,20,12.0,0.0
4463,53.0,4,20,13.0,0.0
4464,53.0,1,20,3.0,0.0
4465,41.0,12,20,14.0,0.0
4466,53.0,1,20,12.0,0.0
4467,50.0,4,20,13.0,0.0
4468,50.0,1,20,3.0,0.0
4469,38.0,1,20,14.0,0.0
4470,82.0,1,30,10.0,0.0
4471,94.0,0,30,0.0,0.0
4472,91.0,1,30,0.0,0.0
4473,79.0,2,30,11.0,0.0
4474,82.0,2,30,1.0,0.0
4475,79.0,0,30,1.0,0.0
4476,76.0,0,30,2.0,0.0
4477,79.0,6,30,2.0,0.0
4478,52.0,1,20,12.0,0.0
4479,49.0,2,20,13.0,0.0
4480,52.0,0,30,3.0,0.0
4481,49.0,1,30,3.0,0.0
4482,37.0,14,30,14.0,0.0
4483,61.0,1,20,12.0,0.0
4484,52.0,29,20,13.0,0.0
4485,81.0,1,30,10.0,0.0
4486,93.0,0,30,0.0,0.0
4487,89.0,1,30,0.0,0.0
4488,77.0,2,30,11.0,0.0
4489,77.0,0,30,1.0,0.0
4490,81.0,2,30,1.0,0.0
4491,69.0,0,30,2.0,0.0
4492,77.0,6,30,2.0,0.0
4493,53.0,1,20,12.0,0.0
4494,50.0,2,20,13.0,0.0
4495,50.0,0,30,3.0,0.0
4496,53.0,1,30,3.0,0.0
4497,38.0,14,30,14.0,0.0
4498,62.0,1,20,12.0,0.0
4499,53.0,29,20,13.0,0.0
4500,79.0,1,30,10.0,0.0
4501,88.0,1,30,0.0,0.0
4502,91.0,0,30,0.0,0.0
4503,76.0,2,30,11.0,0.0
4504,79.0,2,30,1.0,0.0
4505,76.0,0,30,1.0,0.0
4506,69.0,0,30,2.0,0.0
4507,76.0,6,30,2.0,0.0
4508,55.0,1,20,12.0,0.0
4509,52.0,2,20,13.0,0.0
4510,55.0,0,30,3.0,0.0
4511,52.0,1,30,3.0,0.0
4512,40.0,14,30,14.0,0.0
4513,64.0,1,20,12.0,0.0
4514,55.0,29,20,13.0,0.0
4515,77.0,1,30,10.0,0.0
4516,89.0,1,30,0.0,0.0
4517,86.0,0,30,0.0,0.0
4518,74.0,2,30,11.0,0.0
4519,74.0,0,30,1.0,0.0
4520,77.0,2,30,1.0,0.0
4521,69.0,6,30,2.0,0.0
4522,74.0,0,30,2.0,0.0
4523,57.0,1,20,12.0,0.0
4524,53.0,2,20,13.0,0.0
4525,53.0,1,30,3.0,0.0
4526,57.0,0,30,3.0,0.0
4527,41.0,14,30,14.0,0.0
4528,65.0,1,20,12.0,0.0
4529,57.0,29,20,13.0,0.0
4530,76.0,1,30,10.0,0.0
4531,88.0,1,30,0.0,0.0
4532,70.0,2,30,11.0,0.0
4533,76.0,2,30,1.0,0.0
4534,67.0,6,30,2.0,0.0
4535,76.0,0,30,2.0,0.0
4536,58.0,1,20,12.0,0.0
4537,55.0,2,20,13.0,0.0
4538,55.0,0,30,3.0,0.0
4539,58.0,1,30,3.0,0.0
4540,43.0,14,30,14.0,0.0
4541,67.0,1,20,12.0,0.0
4542,58.0,10,20,13.0,0.0
4543,74.0,7,8,10.0,0.0
4544,64.0,2,30,11.0,0.0
4545,57.0,1,60,6.0,0.0
4546,69.0,0,60,6.0,0.0
4547,64.0,0,30,2.0,0.0
4548,76.0,6,30,2.0,0.0
4549,73.0,1,8,10.0,0.0
4550,57.0,0,20,12.0,0.0
4551,85.0,3,8,0.0,0.0
4552,57.0,2,20,13.0,0.0
4553,73.0,4,8,1.0,0.0
4554,57.0,1,30,3.0,0.0
4555,45.0,2,30,14.0,0.0
4556,74.0,1,8,10.0,0.0
4557,45.0,12,60,15.0,0.0
4558,86.0,3,8,0.0,0.0
4559,74.0,1,8,1.0,0.0
4560,73.0,1,8,10.0,0.0
4561,85.0,1,8,0.0,0.0
4562,73.0,2,8,1.0,0.0
4563,71.0,1,15,10.0,0.0
4564,83.0,3,15,0.0,0.0
4565,71.0,8,15,1.0,0.0
4566,64.0,1,20,12.0,0.0
4567,61.0,2,20,13.0,0.0
4568,73.0,1,15,10.0,0.0
4569,85.0,2,15,0.0,0.0
4570,73.0,11,15,1.0,0.0
4571,74.0,1,30,10.0,0.0
4572,86.0,1,30,0.0,0.0
4573,69.0,2,30,11.0,0.0
4574,62.0,0,60,6.0,0.0
4575,69.0,12,60,6.0,0.0
4576,74.0,2,30,1.0,0.0
4577,69.0,6,30,2.0,0.0
4578,74.0,0,30,2.0,0.0
4579,57.0,1,20,12.0,0.0
4580,53.0,2,20,13.0,0.0
4581,57.0,1,30,3.0,0.0
4582,53.0,0,30,3.0,0.0
4583,41.0,14,30,14.0,0.0
4584,50.0,1,60,15.0,0.0
4585,62.0,1,20,12.0,0.0
4586,62.0,5,20,13.0,0.0
4587,76.0,0,15,10.0,0.0
4588,88.0,1,15,0.0,0.0
4589,85.0,0,15,0.0,0.0
4590,73.0,2,15,11.0,0.0
4591,76.0,0,15,1.0,0.0
4592,73.0,8,15,1.0,0.0
4593,67.0,0,30,2.0,0.0
4594,55.0,1,20,12.0,0.0
4595,52.0,2,20,13.0,0.0
4596,52.0,0,20,3.0,0.0
4597,55.0,1,20,3.0,0.0
4598,40.0,1,20,14.0,0.0
4599,77.0,1,15,10.0,0.0
4600,89.0,0,15,0.0,0.0
4601,86.0,1,15,0.0,0.0
4602,74.0,0,15,11.0,0.0
4603,74.0,2,15,1.0,0.0
4604,77.0,0,15,1.0,0.0
4605,79.0,1,15,10.0,0.0
4606,88.0,1,15,0.0,0.0
4607,91.0,0,15,0.0,0.0
4608,76.0,2,15,11.0,0.0
4609,79.0,0,15,1.0,0.0
4610,76.0,8,15,1.0,0.0
4611,69.0,9,0,2.0,0.0
4612,65.0,0,30,2.0,0.0
4613,53.0,1,20,12.0,0.0
4614,50.0,2,20,13.0,0.0
4615,53.0,1,20,3.0,0.0
4616,50.0,0,20,3.0,0.0
4617,38.0,1,20,14.0,0.0
4618,81.0,1,15,10.0,0.0
4619,93.0,1,15,0.0,0.0
4620,89.0,0,15,0.0,0.0
4621,77.0,0,15,11.0,0.0
4622,77.0,0,15,1.0,0.0
4623,81.0,2,15,1.0,0.0
4624,82.0,1,30,10.0,0.0
4625,94.0,1,30,0.0,0.0
4626,91.0,0,30,0.0,0.0
4627,79.0,2,30,11.0,0.0
4628,79.0,2,30,1.0,0.0
4629,82.0,0,30,1.0,0.0
4630,79.0,6,30,2.0,0.0
4631,82.0,0,30,2.0,0.0
4632,52.0,1,20,12.0,0.0
4633,49.0,2,20,13.0,0.0
4634,49.0,0,30,3.0,0.0
4635,52.0,1,30,3.0,0.0
4636,37.0,14,30,14.0,0.0
4637,61.0,1,20,12.0,0.0
4638,52.0,29,20,13.0,0.0
4639,81.0,1,30,10.0,0.0
4640,89.0,0,30,0.0,0.0
4641,93.0,1,30,0.0,0.0
4642,77.0,2,30,11.0,0.0
4643,77.0,2,30,1.0,0.0
4644,81.0,0,30,1.0,0.0
4645,69.0,6,30,2.0,0.0
4646,77.0,0,30,2.0,0.0
4647,52.0,1,20,12.0,0.0
4648,50.0,2,20,13.0,0.0
4649,50.0,1,30,3.0,0.0
4650,53.0,0,30,3.0,0.0
4651,38.0,14,30,14.0,0.0
4652,62.0,1,20,12.0,0.0
4653,53.0,29,20,13.0,0.0
4654,79.0,1,30,10.0,0.0
4655,88.0,0,30,0.0,0.0
4656,91.0,1,30,0.0,0.0
4657,76.0,2,30,11.0,0.0
4658,79.0,2,30,1.0,0.0
4659,76.0,0,30,1.0,0.0
4660,76.0,0,30,2.0,0.0
4661,69.0,6,30,2.0,0.0
4662,55.0,1,20,12.0,0.0
4663,52.0,2,20,13.0,0.0
4664,55.0,0,30,3.0,0.0
4665,52.0,1,30,3.0,0.0
4666,40.0,14,30,14.0,0.0
4667,64.0,1,20,12.0,0.0
4668,55.0,29,20,13.0,0.0
4669,77.0,1,30,10.0,0.0
4670,86.0,0,30,0.0,0.0
4671,89.0,1,30,0.0,0.0
4672,74.0,2,30,11.0,0.0
4673,74.0,0,30,1.0,0.0
4674,77.0,2,30,1.0,0.0
4675,74.0,0,30,2.0,0.0
4676,69.0,6,30,2.0,0.0
4677,57.0,1,20,12.0,0.0
4678,53.0,2,20,13.0,0.0
4679,57.0,1,30,3.0,0.0
4680,53.0,0,30,3.0,0.0
4681,41.0,14,30,14.0,0.0
4682,65.0,1,20,12.0,0.0
4683,57.0,29,20,13.0,0.0
4684,76.0,1,30,10.0,0.0
4685,88.0,1,30,0.0,0.0
4686,74.0,0,30,11.0,0.0
4687,64.0,2,30,11.0,0.0
4688,76.0,2,30,1.0,0.0
4689,76.0,0,30,2.0,0.0
4690,67.0,6,30,2.0,0.0
4691,58.0,1,20,12.0,0.0
4692,55.0,2,20,13.0,0.0
4693,58.0,1,30,3.0,0.0
4694,55.0,0,30,3.0,0.0
4695,43.0,14,30,14.0,0.0
4696,67.0,1,20,12.0,0.0
4697,58.0,10,20,13.0,0.0
4698,74.0,7,8,10.0,0.0
4699,73.0,2,30,11.0,0.0
4700,64.0,0,30,11.0,0.0
4701,57.0,0,60,6.0,0.0
4702,64.0,6,30,2.0,0.0
4703,76.0,0,30,2.0,0.0
4704,73.0,1,8,10.0,0.0
4705,57.0,1,20,12.0,0.0
4706,57.0,2,20,13.0,0.0
4707,85.0,3,8,0.0,0.0
4708,73.0,4,8,1.0,0.0
4709,57.0,0,30,3.0,0.0
4710,55.0,1,30,3.0,0.0
4711,45.0,2,30,14.0,0.0
4712,45.0,12,60,15.0,0.0
4713,74.0,1,8,10.0,0.0
4714,86.0,3,8,0.0,0.0
4715,74.0,0,8,1.0,0.0
4716,73.0,1,8,10.0,0.0
4717,85.0,1,8,0.0,0.0
4718,73.0,2,8,1.0,0.0
4719,71.0,1,15,10.0,0.0
4720,83.0,3,15,0.0,0.0
4721,71.0,8,15,1.0,0.0
4722,64.0,1,20,12.0,0.0
4723,61.0,2,20,13.0,0.0
4724,73.0,1,15,10.0,0.0
4725,85.0,2,15,0.0,0.0
4726,73.0,11,15,1.0,0.0
4727,74.0,1,30,10.0,0.0
4728,86.0,1,30,0.0,0.0
4729,74.0,2,30,11.0,0.0
4730,62.0,0,30,11.0,0.0
4731,69.0,1,0,6.0,0.0
4732,74.0,2,30,1.0,0.0
4733,74.0,6,30,2.0,0.0
4734,69.0,0,30,2.0,0.0
4735,57.0,1,20,12.0,0.0
4736,54.0,2,20,13.0,0.0
4737,57.0,0,30,3.0,0.0
4738,54.0,1,30,3.0,0.0
4739,42.0,14,30,14.0,0.0
4740,50.0,1,60,15.0,0.0
4741,62.0,1,20,12.0,0.0
4742,62.0,5,20,13.0,0.0
4743,76.0,0,15,10.0,0.0
4744,88.0,1,15,0.0,0.0
4745,84.0,0,15,0.0,0.0
4746,72.0,2,15,11.0,0.0
4747,62.0,0,0,6.0,0.0
4748,74.0,1,30,6.0,0.0
4749,76.0,2,15,1.0,0.0
4750,72.0,0,15,2.0,0.0
4751,76.0,6,15,2.0,0.0
4752,69.0,1,20,12.0,0.0
4753,50.0,2,20,13.0,0.0
4754,50.0,1,20,3.0,0.0
4755,38.0,0,20,14.0,0.0
4756,78.0,1,15,10.0,0.0
4757,50.0,0,30,15.0,0.0
4758,86.0,0,15,0.0,0.0
4759,90.0,1,15,0.0,0.0
4760,74.0,0,15,11.0,0.0
4761,78.0,0,15,1.0,0.0
4762,74.0,9,15,2.0,0.0
4763,78.0,0,15,2.0,0.0
4764,79.0,1,15,10.0,0.0
4765,88.0,0,15,0.0,0.0
4766,91.0,1,15,0.0,0.0
4767,76.0,2,15,11.0,0.0
4768,62.0,0,30,6.0,0.0
4769,79.0,2,15,1.0,0.0
4770,62.0,2,0,4.0,0.0
4771,76.0,0,15,2.0,0.0
4772,79.0,6,15,2.0,0.0
4773,66.0,1,20,12.0,0.0
4774,48.0,2,20,13.0,0.0
4775,48.0,1,20,3.0,0.0
4776,36.0,0,20,14.0,0.0
4777,81.0,1,15,10.0,0.0
4778,90.0,0,15,0.0,0.0
4779,93.0,1,15,0.0,0.0
4780,78.0,0,15,11.0,0.0
4781,81.0,2,15,1.0,0.0
4782,81.0,0,15,2.0,0.0
4783,78.0,9,15,2.0,0.0
4784,86.0,1,30,10.0,0.0
4785,94.0,1,30,0.0,0.0
4786,86.0,0,30,0.0,0.0
4787,79.0,1,30,11.0,0.0
4788,74.0,1,0,6.0,0.0
4789,62.0,0,30,6.0,0.0
4790,86.0,2,30,1.0,0.0
4791,82.0,0,30,1.0,0.0
4792,67.0,26,300,4.0,0.0
4793,86.0,0,30,2.0,0.0
4794,79.0,1,30,2.0,0.0
4795,62.0,1,30,12.0,0.0
4796,46.0,4,30,13.0,0.0
4797,46.0,1,30,3.0,0.0
4798,34.0,2,30,14.0,0.0
4799,50.0,15,0,15.0,0.0
4800,82.0,1,30,10.0,0.0
4801,86.0,0,30,0.0,0.0
4802,94.0,1,30,0.0,0.0
4803,74.0,1,30,11.0,0.0
4804,62.0,1,30,6.0,0.0
4805,74.0,0,30,6.0,0.0
4806,79.0,2,30,1.0,0.0
4807,82.0,0,30,1.0,0.0
4808,82.0,0,30,2.0,0.0
4809,74.0,1,30,2.0,0.0
4810,67.0,1,30,12.0,0.0
4811,50.0,4,30,13.0,0.0
4812,50.0,1,30,3.0,0.0
4813,38.0,2,30,14.0,0.0
4814,50.0,45,30,15.0,0.0
4815,79.0,1,30,10.0,0.0
4816,91.0,0,30,0.0,0.0
4817,86.0,1,30,0.0,0.0
4818,70.0,1,30,11.0,0.0
4819,62.0,0,30,6.0,0.0
4820,74.0,1,30,6.0,0.0
4821,74.0,2,30,1.0,0.0
4822,79.0,0,30,1.0,0.0
4823,79.0,1,30,2.0,0.0
4824,70.0,0,30,2.0,0.0
4825,58.0,1,30,12.0,0.0
4826,43.0,4,30,13.0,0.0
4827,55.0,1,30,3.0,0.0
4828,43.0,0,30,3.0,0.0
4829,43.0,2,30,14.0,0.0
4830,50.0,45,30,15.0,0.0
4831,74.0,1,30,10.0,0.0
4832,86.0,1,30,0.0,0.0
4833,67.0,1,30,11.0,0.0
4834,74.0,1,30,6.0,0.0
4835,62.0,0,30,6.0,0.0
4836,70.0,0,30,1.0,0.0
4837,74.0,2,30,1.0,0.0
4838,67.0,1,30,2.0,0.0
4839,74.0,0,30,2.0,0.0
4840,62.0,1,30,12.0,0.0
4841,46.0,4,30,13.0,0.0
4842,46.0,0,30,3.0,0.0
4843,58.0,1,30,3.0,0.0
4844,46.0,2,30,14.0,0.0
4845,50.0,45,30,15.0,0.0
4846,82.0,1,30,10.0,0.0
4847,82.0,1,30,0.0,0.0
4848,67.0,1,30,11.0,0.0
4849,74.0,0,30,6.0,0.0
4850,62.0,1,30,6.0,0.0
4851,70.0,2,30,1.0,0.0
4852,67.0,0,30,1.0,0.0
4853,67.0,0,30,2.0,0.0
4854,70.0,1,30,2.0,0.0
4855,67.0,1,30,12.0,0.0
4856,50.0,4,30,13.0,0.0
4857,50.0,1,30,3.0,0.0
4858,62.0,0,30,3.0,0.0
4859,50.0,2,30,14.0,0.0
4860,50.0,19,30,15.0,0.0
4861,79.0,1,30,10.0,0.0
4862,79.0,1,30,0.0,0.0
4863,70.0,0,30,11.0,0.0
4864,62.0,1,30,11.0,0.0
4865,74.0,0,30,6.0,0.0
4866,62.0,1,30,6.0,0.0
4867,79.0,0,30,1.0,0.0
4868,67.0,2,30,4.0,0.0
4869,74.0,0,30,1.0,0.0
4870,70.0,1,30,2.0,0.0
4871,79.0,0,30,2.0,0.0
4872,70.0,1,30,12.0,0.0
4873,55.0,4,30,13.0,0.0
4874,55.0,1,30,3.0,0.0
4875,43.0,2,30,14.0,0.0
4876,50.0,45,30,15.0,0.0
4877,76.0,1,30,10.0,0.0
4878,76.0,1,30,0.0,0.0
4879,74.0,1,30,11.0,0.0
4880,64.0,0,30,11.0,0.0
4881,57.0,1,30,6.0,0.0
4882,69.0,0,30,6.0,0.0
4883,64.0,0,30,4.0,0.0
4884,76.0,0,30,1.0,0.0
4885,57.0,0,30,4.0,0.0
4886,74.0,2,30,1.0,0.0
4887,69.0,0,30,2.0,0.0
4888,76.0,1,30,2.0,0.0
4889,69.0,1,30,12.0,0.0
4890,57.0,4,30,13.0,0.0
4891,57.0,1,30,3.0,0.0
4892,45.0,2,30,14.0,0.0
4893,45.0,45,30,15.0,0.0
4894,81.0,1,30,10.0,0.0
4895,81.0,1,30,0.0,0.0
4896,73.0,0,30,11.0,0.0
4897,64.0,1,30,11.0,0.0
4898,76.0,0,30,6.0,0.0
4899,69.0,1,30,6.0,0.0
4900,57.0,0,30,4.0,0.0
4901,73.0,0,30,1.0,0.0
4902,81.0,2,30,1.0,0.0
4903,69.0,0,30,4.0,0.0
4904,69.0,0,30,2.0,0.0
4905,81.0,1,30,2.0,0.0
4906,64.0,1,30,12.0,0.0
4907,57.0,0,30,12.0,0.0
4908,45.0,4,30,13.0,0.0
4909,57.0,0,30,3.0,0.0
4910,45.0,1,30,3.0,0.0
4911,33.0,2,30,14.0,0.0
4912,45.0,49,30,15.0,0.0
4913,74.0,1,60,10.0,0.0
4914,74.0,1,60,0.0,0.0
4915,74.0,0,60,11.0,0.0
4916,62.0,1,60,11.0,0.0
4917,62.0,1,60,6.0,0.0
4918,74.0,0,60,6.0,0.0
4919,62.0,26,30,4.0,0.0
4920,50.0,0,30,4.0,0.0
4921,74.0,2,60,1.0,0.0
4922,65.0,0,60,2.0,0.0
4923,74.0,1,60,2.0,0.0
4924,65.0,1,60,12.0,0.0
4925,57.0,0,60,12.0,0.0
4926,50.0,4,60,13.0,0.0
4927,50.0,0,60,3.0,0.0
4928,53.0,1,60,3.0,0.0
4929,38.0,2,60,14.0,0.0
4930,50.0,79,60,15.0,0.0
4931,62.0,2,60,10.0,0.0
4932,62.0,1,60,11.0,0.0
4933,62.0,1,60,6.0,0.0
4934,50.0,26,30,4.0,0.0
4935,62.0,2,60,1.0,0.0
4936,62.0,1,60,2.0,0.0
4937,50.0,2,240,5.0,0.0
4938,57.0,8,60,12.0,0.0
4939,53.0,0,60,12.0,0.0
4940,50.0,4,240,13.0,0.0
4941,50.0,1,240,3.0,0.0
4942,38.0,113,240,14.0,0.0
4943,50.0,171,60,15.0,0.0
4944,53.0,4,120,13.0,0.0
4945,53.0,1,120,3.0,0.0
4946,41.0,47,120,14.0,0.0
4947,62.0,2,60,10.0,0.0
4948,62.0,58,60,11.0,0.0
4949,62.0,6,240,5.0,0.0
4950,53.0,2,0,5.0,0.0
4951,46.0,52,120,13.0,0.0
4952,46.0,1,240,3.0,0.0
4953,46.0,54,240,14.0,0.0
4954,65.0,2,60,10.0,0.0
4955,65.0,6,60,11.0,0.0
4956,70.0,2,60,10.0,0.0
4957,70.0,58,60,11.0,0.0
4958,74.0,2,60,10.0,0.0
4959,74.0,4,60,11.0,0.0
4960,77.0,2,175,10.0,0.0
4961,72.0,10,175,11.0,0.0
4962,60.0,1,240,5.0,0.0
4963,53.0,60,60,12.0,0.0
4964,45.0,1,240,3.0,0.0
4965,45.0,55,240,14.0,0.0
4966,57.0,48,60,12.0,0.0
4967,60.0,53,60,12.0,0.0
4968,72.0,2,60,10.0,0.0
4969,72.0,4,60,11.0,0.0
4970,65.0,5,60,12.0,0.0
4971,75.0,2,115,10.0,0.0
4972,75.0,11,115,11.0,0.0
4973,58.0,1,240,5.0,0.0
4974,70.0,6,175,12.0,0.0
4975,51.0,47,60,13.0,0.0
4976,43.0,1,240,3.0,0.0
4977,43.0,102,240,14.0,0.0
4978,55.0,47,60,13.0,0.0
4979,74.0,2,55,10.0,0.0
4980,74.0,5,55,11.0,0.0
4981,58.0,47,60,13.0,0.0
4982,72.0,2,55,10.0,0.0
4983,72.0,9,55,11.0,0.0
4984,58.0,1,60,12.0,0.0
4985,63.0,4,60,13.0,0.0
4986,70.0,2,115,10.0,0.0
4987,70.0,6,115,11.0,0.0
4988,67.0,1,120,5.0,0.0
4989,63.0,0,0,5.0,0.0
4990,63.0,59,120,12.0,0.0
4991,67.0,3,115,13.0,0.0
4992,41.0,1,240,3.0,0.0
4993,41.0,47,240,14.0,0.0
4994,69.0,2,180,10.0,0.0
4995,69.0,58,180,11.0,0.0
4996,62.0,1,60,5.0,0.0
4997,65.0,0,60,5.0,0.0
4998,62.0,1,60,12.0,0.0
4999,65.0,54,60,13.0,0.0
5000,63.0,0,60,5.0,0.0
5001,60.0,1,55,12.0,0.0
5002,63.0,3,55,13.0,0.0
5003,60.0,6,0,5.0,0.0
5004,63.0,1,120,5.0,0.0
5005,60.0,1,120,12.0,0.0
5006,63.0,52,120,13.0,0.0
5007,43.0,1,240,3.0,0.0
5008,55.0,0,240,3.0,0.0
5009,43.0,53,240,14.0,0.0
5010,70.0,2,60,10.0,0.0
5011,70.0,4,60,11.0,0.0
5012,74.0,2,60,10.0,0.0
5013,74.0,58,60,11.0,0.0
5014,62.0,2,360,4.0,0.0
5015,50.0,0,360,4.0,0.0
5016,58.0,0,540,5.0,0.0
5017,62.0,6,360,5.0,0.0
5018,55.0,1,180,2.0,0.0
5019,58.0,0,115,12.0,0.0
5020,62.0,9,115,13.0,0.0
5021,79.0,2,60,10.0,0.0
5022,79.0,1,60,11.0,0.0
5023,82.0,2,175,10.0,0.0
5024,82.0,9,175,11.0,0.0
5025,58.0,1,60,12.0,0.0
5026,55.0,58,60,13.0,0.0
5027,53.0,1,240,3.0,0.0
5028,41.0,0,240,3.0,0.0
5029,41.0,107,240,14.0,0.0
5030,58.0,0,0,2.0,0.0
5031,62.0,1,60,12.0,0.0
5032,58.0,47,60,13.0,0.0
5033,62.0,1,0,2.0,0.0
5034,67.0,1,60,2.0,0.0
5035,67.0,1,60,12.0,0.0
5036,62.0,52,60,13.0,0.0
5037,70.0,2,60,10.0,0.0
5038,70.0,0,60,11.0,0.0
5039,70.0,0,60,2.0,0.0
5040,67.0,0,60,2.0,0.0
5041,74.0,1,55,12.0,0.0
5042,67.0,1,55,13.0,0.0
5043,81.0,2,120,10.0,0.0
5044,81.0,5,120,11.0,0.0
5045,72.0,0,240,2.0,0.0
5046,70.0,1,180,2.0,0.0
5047,72.0,1,120,12.0,0.0
5048,70.0,52,120,13.0,0.0
5049,52.0,1,240,3.0,0.0
5050,40.0,0,240,3.0,0.0
5051,40.0,51,240,14.0,0.0
5052,79.0,2,60,10.0,0.0
5053,79.0,4,60,11.0,0.0
5054,70.0,48,60,12.0,0.0
5055,60.0,1,115,13.0,0.0
5056,77.0,2,55,10.0,0.0
5057,77.0,5,55,11.0,0.0
5058,69.0,6,60,2.0,0.0
5059,69.0,1,55,12.0,0.0
5060,77.0,2,120,10.0,0.0
5061,77.0,2,120,11.0,0.0
5062,60.0,2,0,4.0,0.0
5063,53.0,5,60,7.0,0.0
5064,57.0,0,120,4.0,0.0
5065,57.0,0,0,5.0,0.0
5066,60.0,0,0,5.0,0.0
5067,69.0,0,120,2.0,0.0
5068,72.0,0,120,2.0,0.0
5069,69.0,1,120,12.0,0.0
5070,60.0,4,120,13.0,0.0
5071,41.0,51,60,8.0,0.0
5072,41.0,1,120,3.0,0.0
5073,53.0,0,120,3.0,0.0
5074,41.0,47,120,14.0,0.0
5075,57.0,0,60,7.0,0.0
5076,45.0,1,60,8.0,0.0
5077,60.0,5,60,7.0,0.0
5078,48.0,55,60,8.0,0.0
5079,63.0,5,60,7.0,0.0
5080,53.0,63,60,8.0,0.0
5081,46.0,8,115,8.0,0.0
5082,50.0,52,60,13.0,0.0
5083,46.0,40,120,14.0,0.0
5084,74.0,5,115,7.0,0.0
5085,62.0,10,115,8.0,0.0
5086,53.0,5,60,13.0,0.0
5087,58.0,8,115,8.0,0.0
5088,58.0,52,60,13.0,0.0
5089,77.0,5,115,7.0,0.0
5090,65.0,9,115,8.0,0.0
5091,62.0,45,60,13.0,0.0
5092,57.0,7,115,8.0,0.0
5093,48.0,1,60,12.0,0.0
5094,65.0,52,60,13.0,0.0
5095,45.0,40,120,14.0,0.0
5096,72.0,5,115,7.0,0.0
5097,60.0,9,115,8.0,0.0
5098,53.0,6,60,12.0,0.0
5099,56.0,7,115,8.0,0.0
5100,56.0,53,60,12.0,0.0
5101,44.0,40,120,14.0,0.0
5102,77.0,5,115,7.0,0.0
5103,65.0,9,115,8.0,0.0
5104,60.0,6,60,12.0,0.0
5105,55.0,8,115,8.0,0.0
5106,63.0,1,60,12.0,0.0
5107,46.0,52,60,13.0,0.0
5108,43.0,40,120,14.0,0.0
5109,70.0,5,115,7.0,0.0
5110,58.0,10,115,8.0,0.0
5111,50.0,5,60,13.0,0.0
5112,54.0,8,115,8.0,0.0
5113,54.0,52,60,13.0,0.0
5114,42.0,40,120,14.0,0.0
5115,75.0,5,115,7.0,0.0
5116,63.0,9,115,8.0,0.0
5117,58.0,5,60,13.0,0.0
5118,53.0,7,235,8.0,0.0
5119,48.0,1,60,12.0,0.0
5120,57.0,59,60,13.0,0.0
5121,41.0,40,120,14.0,0.0
5122,74.0,5,115,7.0,0.0
5123,62.0,9,115,8.0,0.0
5124,53.0,6,60,12.0,0.0
5125,57.0,46,60,12.0,0.0
5126,72.0,5,55,7.0,0.0
5127,60.0,2,55,8.0,0.0
5128,63.0,60,60,12.0,0.0
5129,55.0,8,115,8.0,0.0
5130,58.0,1,720,5.0,0.0
5131,62.0,1,60,12.0,0.0
5132,50.0,52,60,13.0,0.0
5133,43.0,40,120,14.0,0.0
5134,70.0,5,115,7.0,0.0
5135,58.0,10,115,8.0,0.0
5136,55.0,5,60,13.0,0.0
5137,53.0,8,115,8.0,0.0
5138,58.0,52,60,13.0,0.0
5139,41.0,40,120,14.0,0.0
5140,82.0,2,115,7.0,0.0
5141,70.0,12,115,7.0,0.0
5142,62.0,5,60,13.0,0.0
5143,52.0,7,115,8.0,0.0
5144,52.0,1,60,12.0,0.0
5145,67.0,52,60,13.0,0.0
5146,40.0,40,120,14.0,0.0
5147,70.0,5,115,7.0,0.0
5148,58.0,9,115,8.0,0.0
5149,55.0,6,60,12.0,0.0
5150,50.0,7,115,8.0,0.0
5151,58.0,53,60,12.0,0.0
5152,38.0,40,120,14.0,0.0
5153,81.0,2,115,7.0,0.0
5154,69.0,12,115,7.0,0.0
5155,65.0,6,60,12.0,0.0
5156,48.0,6,235,8.0,0.0
5157,64.0,1,60,12.0,0.0
5158,48.0,60,60,13.0,0.0
5159,36.0,40,120,14.0,0.0
5160,70.0,5,115,7.0,0.0
5161,58.0,10,115,8.0,0.0
5162,55.0,5,60,13.0,0.0
5163,58.0,52,60,13.0,0.0
5164,48.0,54,120,14.0,0.0
5165,79.0,2,180,7.0,0.0
5166,67.0,1,180,7.0,0.0
5167,58.0,1,60,12.0,0.0
5168,64.0,5,60,13.0,0.0
5169,41.0,116,240,8.0,0.0
5170,57.0,7,120,5.0,0.0
5171,57.0,1,60,12.0,0.0
5172,60.0,50,60,13.0,0.0
5173,41.0,45,120,14.0,0.0
5174,45.0,5,60,8.0,0.0
5175,77.0,2,60,7.0,0.0
5176,65.0,1,60,7.0,0.0
5177,48.0,60,60,8.0,0.0
5178,52.0,4,60,8.0,0.0
5179,53.0,4,600,8.0,0.0
5180,41.0,53,600,8.0,0.0
5181,57.0,60,60,8.0,0.0
5182,75.0,1,240,7.0,0.0
5183,60.0,60,60,8.0,0.0
5184,64.0,60,60,8.0,0.0
5185,65.0,59,60,8.0,0.0
5186,57.0,60,60,8.0,0.0
5187,74.0,1,240,7.0,0.0
5188,58.0,60,60,8.0,0.0
5189,66.0,60,60,8.0,0.0
5190,67.0,59,60,8.0,0.0
5191,59.0,0,60,8.0,0.0
5192,60.0,62,60,7.0,0.0
5193,72.0,58,120,7.0,0.0
5194,51.0,2,240,8.0,0.0
5195,39.0,53,240,8.0,0.0
5196,70.0,60,120,7.0,0.0
5197,79.0,3,120,7.0,0.0
5198,69.0,2,60,7.0,0.0
5199,72.0,60,60,7.0,0.0
5200,77.0,3,240,7.0,0.0
5201,50.0,2,240,8.0,0.0
5202,38.0,53,240,8.0,0.0
5203,70.0,60,60,7.0,0.0
5204,69.0,60,60,7.0,0.0
5205,70.0,2,60,7.0,0.0
5206,67.0,2,60,7.0,0.0
5207,75.0,58,60,7.0,0.0
5208,51.0,2,240,8.0,0.0
5209,39.0,53,240,8.0,0.0
5210,63.0,2,60,7.0,0.0
5211,72.0,58,60,7.0,0.0
5212,60.0,60,60,7.0,0.0
5213,69.0,3,120,7.0,0.0
5214,65.0,2,60,7.0,0.0
5215,58.0,60,60,7.0,0.0
5216,70.0,3,120,7.0,0.0
5217,50.0,2,120,8.0,0.0
5218,38.0,56,120,8.0,0.0
5219,65.0,2,60,7.0,0.0
5220,72.0,3,120,7.0,0.0
5221,57.0,59,60,7.0,0.0
5222,48.0,2,120,8.0,0.0
5223,36.0,53,120,8.0,0.0
5224,65.0,62,120,7.0,0.0
5225,74.0,5,120,7.0,0.0
5226,34.0,56,120,8.0,0.0
5227,53.0,60,120,8.0,0.0
5228,82.0,1,240,7.0,0.0
5229,52.0,60,60,8.0,0.0
5230,50.0,59,60,8.0,0.0
5231,52.0,60,60,8.0,0.0
5232,81.0,1,120,7.0,0.0
5233,53.0,59,60,8.0,0.0
5234,41.0,58,120,8.0,0.0
5235,57.0,2,60,8.0,0.0
5236,60.0,60,60,8.0,0.0
5237,65.0,31,60,8.0,0.0
5238,68.0,0,60,10.0,0.0
5239,56.0,2,60,10.0,0.0
5240,80.0,6,240,0.0,0.0
5241,37.0,0,30,8.0,0.0
5242,52.0,22,30,8.0,0.0
5243,65.0,5,60,11.0,0.0
5244,61.0,0,60,11.0,0.0
5245,73.0,0,480,2.0,0.0
5246,65.0,1,480,2.0,0.0
5247,56.0,1,60,12.0,0.0
5248,56.0,20,60,13.0,0.0
5249,49.0,0,240,3.0,0.0
5250,53.0,20,240,3.0,0.0
5251,38.0,19,120,14.0,0.0
5252,53.0,6,22,8.0,0.0
5253,64.0,22,30,7.0,0.0
5254,61.0,1,60,12.0,0.0
5255,61.0,5,60,13.0,0.0
5256,65.0,17,22,7.0,0.0
5257,52.0,0,30,8.0,0.0
5258,37.0,22,30,8.0,0.0
5259,65.0,1,60,12.0,0.0
5260,65.0,20,60,13.0,0.0
5261,53.0,13,22,8.0,0.0
5262,64.0,22,30,7.0,0.0
5263,68.0,1,60,12.0,0.0
5264,68.0,4,60,13.0,0.0
5265,65.0,11,22,7.0,0.0
5266,70.0,0,60,10.0,0.0
5267,61.0,2,60,10.0,0.0
5268,65.0,0,60,11.0,0.0
5269,34.0,22,30,8.0,0.0
5270,52.0,0,30,8.0,0.0
5271,61.0,5,60,11.0,0.0
5272,70.0,1,60,12.0,0.0
5273,70.0,20,60,13.0,0.0
5274,46.0,20,240,3.0,0.0
5275,34.0,19,120,14.0,0.0
5276,53.0,6,22,8.0,0.0
5277,64.0,22,30,7.0,0.0
5278,58.0,1,120,12.0,0.0
5279,58.0,20,120,13.0,0.0
5280,65.0,23,22,7.0,0.0
5281,48.0,22,30,8.0,0.0
5282,34.0,0,30,8.0,0.0
5283,49.0,13,22,8.0,0.0
5284,60.0,22,30,7.0,0.0
5285,60.0,1,60,12.0,0.0
5286,60.0,4,60,13.0,0.0
5287,61.0,11,22,7.0,0.0
5288,66.0,0,60,10.0,0.0
5289,70.0,0,60,10.0,0.0
5290,58.0,2,60,10.0,0.0
5291,82.0,5,0,0.0,0.0
5292,73.0,0,0,0.0,0.0
5293,48.0,0,30,8.0,0.0
5294,61.0,5,60,11.0,0.0
5295,30.0,22,30,8.0,0.0
5296,70.0,0,540,2.0,0.0
5297,66.0,1,240,2.0,0.0
5298,61.0,21,60,12.0,0.0
5299,61.0,5,120,13.0,0.0
5300,58.0,0,0,3.0,0.0
5301,42.0,20,240,3.0,0.0
5302,30.0,19,120,14.0,0.0
5303,49.0,6,22,8.0,0.0
5304,60.0,22,30,7.0,0.0
5305,66.0,5,60,11.0,0.0
5306,66.0,1,60,12.0,0.0
5307,61.0,12,22,7.0,0.0
5308,30.0,22,30,8.0,0.0
5309,70.0,5,60,11.0,0.0
5310,45.0,0,30,8.0,0.0
5311,70.0,21,60,12.0,0.0
5312,46.0,8,22,8.0,0.0
5313,57.0,22,30,7.0,0.0
5314,73.0,4,60,11.0,0.0
5315,73.0,5,60,12.0,0.0
5316,58.0,11,22,7.0,0.0
5317,70.0,0,60,10.0,0.0
5318,58.0,2,60,10.0,0.0
5319,66.0,0,60,10.0,0.0
5320,75.0,1,180,0.0,0.0
5321,45.0,22,30,8.0,0.0
5322,30.0,0,30,8.0,0.0
5323,75.0,5,60,11.0,0.0
5324,63.0,1,180,2.0,0.0
5325,75.0,21,60,12.0,0.0
5326,54.0,1,180,3.0,0.0
5327,42.0,19,120,14.0,0.0
5328,46.0,6,22,8.0,0.0
5329,57.0,22,30,7.0,0.0
5330,63.0,4,120,11.0,0.0
5331,63.0,5,120,12.0,0.0
5332,58.0,23,22,7.0,0.0
5333,30.0,22,30,8.0,0.0
5334,42.0,15,60,14.0,0.0
5335,42.0,7,22,8.0,0.0
5336,57.0,4,30,7.0,0.0
5337,77.0,1,60,0.0,0.0
5338,29.0,18,30,8.0,0.0
5339,65.0,4,60,11.0,0.0
5340,65.0,1,60,2.0,0.0
5341,65.0,5,60,12.0,0.0
5342,53.0,1,60,3.0,0.0
5343,41.0,17,60,14.0,0.0
5344,58.0,4,22,7.0,0.0
5345,41.0,7,22,8.0,0.0
5346,66.0,0,60,10.0,0.0
5347,27.0,0,60,8.0,0.0
5348,58.0,1,60,10.0,0.0
5349,70.0,0,60,10.0,0.0
5350,62.0,22,30,7.0,0.0
5351,78.0,1,60,0.0,0.0
5352,66.0,4,60,11.0,0.0
5353,66.0,1,60,2.0,0.0
5354,66.0,5,60,12.0,0.0
5355,51.0,0,60,3.0,0.0
5356,39.0,17,60,14.0,0.0
5357,63.0,8,22,7.0,0.0
5358,54.0,0,60,8.0,0.0
5359,65.0,22,30,7.0,0.0
5360,39.0,30,60,8.0,0.0
5361,46.0,30,120,8.0,0.0
5362,66.0,8,22,7.0,0.0
5363,41.0,0,60,8.0,0.0
5364,53.0,0,60,8.0,0.0
5365,69.0,22,30,7.0,0.0
5366,70.0,8,22,7.0,0.0
5367,72.0,22,30,7.0,0.0
5368,77.0,11,60,0.0,0.0
5369,70.0,6,120,2.0,0.0
5370,65.0,18,60,3.0,0.0
5371,73.0,9,22,7.0,0.0
5372,74.0,22,30,7.0,0.0
5373,78.0,5,60,0.0,0.0
5374,63.0,18,60,3.0,0.0
5375,75.0,9,22,7.0,0.0
5376,77.0,22,30,7.0,0.0
5377,66.0,30,60,8.0,0.0
5378,58.0,0,120,8.0,0.0
5379,51.0,0,60,8.0,0.0
5380,78.0,8,22,7.0,0.0
5381,81.0,22,30,7.0,0.0
5382,65.0,0,60,8.0,0.0
5383,53.0,30,60,8.0,0.0
5384,82.0,8,22,7.0,0.0
5385,81.0,22,30,7.0,0.0
5386,77.0,5,60,0.0,0.0
5387,70.0,6,60,2.0,0.0
5388,65.0,2,60,3.0,0.0
5389,82.0,9,22,7.0,0.0
5390,82.0,12,14,7.0,0.0
5391,76.0,5,60,0.0,0.0
5392,66.0,2,1920,4.0,0.0
5393,73.0,4,60,2.0,0.0
5394,83.0,16,14,7.0,0.0
5395,66.0,13,60,3.0,0.0
5396,82.0,14,14,7.0,0.0
5397,83.0,5,14,7.0,0.0
5398,82.0,2,14,7.0,0.0
5399,64.0,0,60,8.0,0.0
5400,61.0,10,60,8.0,0.0
5401,54.0,6,120,8.0,0.0
5402,83.0,13,14,7.0,0.0
5403,82.0,15,14,7.0,0.0
5404,83.0,10,14,7.0,0.0
5405,83.0,14,14,7.0,0.0
5406,59.0,0,60,8.0,0.0
5407,63.0,0,60,8.0,0.0
5408,85.0,14,14,7.0,0.0
5409,83.0,16,14,7.0,0.0
5410,85.0,6,14,7.0,0.0
5411,83.0,14,14,7.0,0.0
5412,75.0,2,60,10.0,0.0
5413,71.0,5,60,11.0,0.0
5414,71.0,9,60,12.0,0.0
5415,85.0,15,14,7.0,0.0
5416,83.0,17,14,7.0,0.0
5417,85.0,5,17,7.0,0.0
5418,76.0,2,60,10.0,0.0
5419,85.0,14,15,7.0,0.0
5420,73.0,5,60,11.0,0.0
5421,73.0,7,60,12.0,0.0
5422,54.0,7,120,13.0,0.0
5423,87.0,12,15,7.0,0.0
5424,85.0,14,15,7.0,0.0
5425,87.0,4,15,7.0,0.0
5426,85.0,13,15,7.0,0.0
5427,64.0,5,60,8.0,0.0
5428,54.0,0,120,8.0,0.0
5429,58.0,0,60,8.0,0.0
5430,87.0,13,15,7.0,0.0
5431,85.0,16,15,7.0,0.0
5432,87.0,7,15,7.0,0.0
5433,87.0,14,15,7.0,0.0
5434,59.0,0,60,8.0,0.0
5435,63.0,10,60,8.0,0.0
5436,88.0,15,15,7.0,0.0
5437,87.0,15,15,7.0,0.0
5438,88.0,4,15,7.0,0.0
5439,87.0,13,15,7.0,0.0
5440,75.0,2,60,10.0,0.0
5441,71.0,5,60,11.0,0.0
5442,71.0,5,60,12.0,0.0
5443,88.0,14,15,7.0,0.0
5444,87.0,17,15,7.0,0.0
5445,88.0,3,15,7.0,0.0
5446,89.0,13,13,7.0,0.0
5447,74.0,1,960,10.0,0.0
5448,71.0,2,960,11.0,0.0
5449,68.0,7,960,12.0,0.0
5450,42.0,5,120,13.0,0.0
5451,90.0,16,13,7.0,0.0
5452,42.0,1,120,14.0,0.0
5453,89.0,10,13,7.0,0.0
5454,90.0,14,13,7.0,0.0
5455,89.0,13,13,7.0,0.0
5456,59.0,0,60,8.0,0.0
5457,54.0,5,60,8.0,0.0
5458,56.0,0,60,8.0,0.0
5459,62.0,0,60,8.0,0.0
5460,90.0,16,13,7.0,0.0
5461,89.0,13,13,7.0,0.0
5462,90.0,11,13,7.0,0.0
5463,89.0,5,13,7.0,0.0
5464,90.0,11,13,7.0,0.0
5465,42.0,3,60,8.0,0.0
5466,89.0,13,13,7.0,0.0
5467,90.0,14,13,7.0,0.0
5468,89.0,11,13,7.0,0.0
5469,90.0,14,13,7.0,0.0
5470,68.0,8,60,2.0,0.0
5471,89.0,12,13,7.0,0.0
5472,90.0,15,13,7.0,0.0
5473,89.0,11,13,7.0,0.0
5474,90.0,8,13,7.0,0.0
5475,92.0,10,13,7.0,0.0
5476,71.0,1,720,2.0,0.0
5477,42.0,4,120,13.0,0.0
5478,94.0,16,13,7.0,0.0
5479,42.0,11,120,14.0,0.0
5480,92.0,13,13,7.0,0.0
5481,94.0,12,13,7.0,0.0
5482,92.0,12,13,7.0,0.0
5483,62.0,0,60,8.0,0.0
5484,54.0,5,60,8.0,0.0
5485,59.0,0,60,8.0,0.0
5486,65.0,0,60,8.0,0.0
5487,94.0,14,13,7.0,0.0
5488,92.0,14,13,7.0,0.0
5489,94.0,12,13,7.0,0.0
5490,92.0,6,13,7.0,0.0
5491,94.0,1,13,7.0,0.0
5492,42.0,3,60,8.0,0.0
5493,92.0,16,13,7.0,0.0
5494,94.0,10,13,7.0,0.0
5495,92.0,13,13,7.0,0.0
5496,94.0,11,13,7.0,0.0
5497,92.0,15,13,7.0,0.0
5498,77.0,10,60,1.0,0.0
5499,94.0,13,13,7.0,0.0
5500,92.0,15,13,7.0,0.0
5501,94.0,4,13,7.0,0.0
5502,95.0,11,13,7.0,0.0
5503,80.0,2,480,1.0,0.0
5504,42.0,5,120,13.0,0.0
5505,97.0,11,13,7.0,0.0
5506,42.0,6,120,14.0,0.0
5507,95.0,14,13,7.0,0.0
5508,97.0,12,13,7.0,0.0
5509,95.0,12,13,7.0,0.0
5510,97.0,12,13,7.0,0.0
5511,65.0,0,60,8.0,0.0
5512,62.0,0,60,8.0,0.0
5513,59.0,0,60,8.0,0.0
5514,54.0,3,60,8.0,0.0
5515,95.0,13,13,7.0,0.0
5516,97.0,15,13,7.0,0.0
5517,95.0,9,13,7.0,0.0
5518,97.0,2,13,7.0,0.0
5519,42.0,3,60,8.0,0.0
5520,95.0,11,13,7.0,0.0
5521,97.0,11,13,7.0,0.0
5522,95.0,15,13,7.0,0.0
5523,97.0,7,13,7.0,0.0
5524,95.0,14,13,7.0,0.0
5525,74.0,13,60,0.0,0.0
5526,97.0,11,13,7.0,0.0
5527,95.0,15,13,7.0,0.0
5528,97.0,10,13,7.0,0.0
5529,95.0,5,13,7.0,0.0
5530,77.0,0,240,0.0,0.0
5531,95.0,13,13,7.0,0.0
5532,42.0,3,120,13.0,0.0
5533,42.0,11,120,14.0,0.0
5534,97.0,10,13,7.0,0.0
5535,95.0,14,13,7.0,0.0
5536,97.0,16,13,7.0,0.0
5537,95.0,10,13,7.0,0.0
5538,68.0,0,60,8.0,0.0
5539,65.0,0,60,8.0,0.0
5540,62.0,5,60,8.0,0.0
5541,54.0,0,60,8.0,0.0
5542,97.0,14,13,7.0,0.0
5543,95.0,13,13,7.0,0.0
5544,97.0,13,13,7.0,0.0
5545,95.0,6,13,7.0,0.0
5546,97.0,2,13,7.0,0.0
5547,42.0,5,60,8.0,0.0
5548,95.0,13,13,7.0,0.0
5549,97.0,16,13,7.0,0.0
5550,95.0,10,13,7.0,0.0
5551,97.0,17,16,7.0,0.0
5552,83.0,1,60,0.0,0.0
5553,95.0,18,16,7.0,0.0
5554,97.0,15,16,7.0,0.0
5555,95.0,2,16,7.0,0.0
5556,94.0,15,15,7.0,0.0
5557,73.0,6,600,10.0,0.0
5558,70.0,1,480,0.0,0.0
5559,85.0,2,120,0.0,0.0
5560,70.0,2,480,11.0,0.0
5561,54.0,3,960,4.0,0.0
5562,82.0,12,240,1.0,0.0
5563,76.0,11,360,2.0,0.0
5564,64.0,5,840,12.0,0.0
5565,42.0,5,120,13.0,0.0
5566,30.0,2,120,14.0,0.0
5567,95.0,14,15,7.0,0.0
5568,94.0,18,15,7.0,0.0
5569,95.0,18,18,7.0,0.0
5570,94.0,16,18,7.0,0.0
5571,54.0,0,60,8.0,0.0
5572,66.0,0,60,8.0,0.0
5573,61.0,5,60,8.0,0.0
5574,64.0,0,60,8.0,0.0
5575,95.0,18,18,7.0,0.0
5576,94.0,8,18,7.0,0.0
5577,88.0,13,15,7.0,0.0
5578,82.0,3,120,0.0,0.0
5579,42.0,17,60,8.0,0.0
5580,90.0,14,15,7.0,0.0
5581,88.0,20,15,7.0,0.0
5582,90.0,1,18,7.0,0.0
5583,88.0,15,18,7.0,0.0
5584,90.0,19,18,7.0,0.0
5585,88.0,7,18,7.0,0.0
5586,85.0,13,15,7.0,0.0
5587,76.0,5,120,0.0,0.0
5588,87.0,13,15,7.0,0.0
5589,85.0,13,15,7.0,0.0
5590,87.0,14,14,7.0,0.0
5591,85.0,14,14,7.0,0.0
5592,87.0,11,14,7.0,0.0
5593,85.0,13,14,7.0,0.0
5594,87.0,11,14,7.0,0.0
5595,85.0,3,14,7.0,0.0
5596,82.0,14,16,7.0,0.0
5597,73.0,9,120,2.0,0.0
5598,83.0,15,16,7.0,0.0
5599,82.0,16,16,7.0,0.0
5600,83.0,18,16,7.0,0.0
5601,82.0,18,16,7.0,0.0
5602,83.0,16,16,7.0,0.0
5603,82.0,7,16,7.0,0.0
5604,76.0,14,15,7.0,0.0
5605,70.0,2,120,2.0,0.0
5606,42.0,5,120,13.0,0.0
5607,30.0,3,120,14.0,0.0
5608,78.0,15,15,7.0,0.0
5609,76.0,14,15,7.0,0.0
5610,78.0,15,15,7.0,0.0
5611,76.0,11,14,7.0,0.0
5612,58.0,0,60,8.0,0.0
5613,61.0,0,60,8.0,0.0
5614,66.0,0,60,8.0,0.0
5615,64.0,0,60,8.0,0.0
5616,54.0,0,60,8.0,0.0
5617,78.0,12,14,7.0,0.0
5618,76.0,16,14,7.0,0.0
5619,78.0,7,15,7.0,0.0
5620,76.0,1,15,7.0,0.0
5621,42.0,11,60,8.0,0.0
5622,70.0,14,120,10.0,0.0
5623,73.0,13,15,7.0,0.0
5624,75.0,14,15,7.0,0.0
5625,73.0,16,15,7.0,0.0
5626,75.0,1,15,7.0,0.0
5627,73.0,14,14,7.0,0.0
5628,75.0,12,14,7.0,0.0
5629,73.0,13,14,7.0,0.0
5630,75.0,6,14,7.0,0.0
5631,73.0,4,14,7.0,0.0
5632,70.0,17,15,7.0,0.0
5633,64.0,7,120,10.0,0.0
5634,71.0,14,15,7.0,0.0
5635,70.0,12,15,7.0,0.0
5636,71.0,15,15,7.0,0.0
5637,70.0,12,14,7.0,0.0
5638,71.0,14,14,7.0,0.0
5639,70.0,12,14,7.0,0.0
5640,71.0,7,14,7.0,0.0
5641,70.0,3,14,7.0,0.0
5642,64.0,13,12,7.0,0.0
5643,61.0,17,120,12.0,0.0
5644,66.0,11,12,7.0,0.0
5645,64.0,12,12,7.0,0.0
5646,66.0,12,12,7.0,0.0
5647,64.0,12,12,7.0,0.0
5648,66.0,13,12,7.0,0.0
5649,64.0,20,12,7.0,0.0
5650,63.0,14,15,7.0,0.0
5651,64.0,5,15,7.0,0.0
5652,66.0,30,25,7.0,0.0
5653,58.0,19,120,12.0,0.0
5654,63.0,31,25,7.0,0.0
5655,64.0,30,25,7.0,0.0
5656,67.0,12,25,7.0,0.0
5657,63.0,28,25,7.0,0.0
5658,64.0,32,25,7.0,0.0
5659,66.0,28,25,7.0,0.0
5660,63.0,30,25,7.0,0.0
5661,64.0,30,25,7.0,0.0
5662,67.0,32,25,7.0,0.0
5663,66.0,28,25,7.0,0.0
5664,67.0,30,25,7.0,0.0
5665,69.0,31,25,7.0,0.0
5666,66.0,30,25,7.0,0.0
5667,67.0,29,25,7.0,0.0
5668,70.0,31,25,7.0,0.0
5669,69.0,29,25,7.0,0.0
5670,70.0,32,25,7.0,0.0
5671,72.0,29,25,7.0,0.0
5672,69.0,31,25,7.0,0.0
5673,70.0,30,25,7.0,0.0
5674,73.0,29,25,7.0,0.0
5675,69.0,30,25,7.0,0.0
5676,70.0,31,25,7.0,0.0
5677,73.0,30,25,7.0,0.0
5678,74.0,30,25,7.0,0.0
5679,69.0,29,25,7.0,0.0
5680,70.0,29,25,7.0,0.0
5681,73.0,32,25,7.0,0.0
5682,74.0,29,25,7.0,0.0
5683,69.0,31,25,7.0,0.0
5684,70.0,33,25,7.0,0.0
5685,73.0,6,30,7.0,0.0
5686,61.0,19,30,8.0,0.0
5687,41.0,2,360,5.0,0.0
5688,46.0,22,120,13.0,0.0
5689,41.0,16,960,14.0,0.0
5690,74.0,5,25,7.0,0.0
5691,62.0,31,25,8.0,0.0
5692,76.0,5,30,7.0,0.0
5693,64.0,21,30,8.0,0.0
5694,62.0,24,120,5.0,0.0
5695,77.0,4,25,7.0,0.0
5696,65.0,8,25,8.0,0.0
5697,81.0,5,30,7.0,0.0
5698,69.0,21,30,8.0,0.0
5699,58.0,22,120,13.0,0.0
5700,82.0,2,25,7.0,0.0
5701,70.0,8,25,8.0,0.0
5702,85.0,3,30,7.0,0.0
5703,73.0,23,30,8.0,0.0
5704,65.0,24,120,5.0,0.0
5705,86.0,2,25,7.0,0.0
5706,74.0,10,25,8.0,0.0
5707,91.0,5,30,7.0,0.0
5708,79.0,26,30,8.0,0.0
5709,57.0,22,120,13.0,0.0
5710,89.0,2,30,7.0,0.0
5711,77.0,3,30,8.0,0.0
5712,88.0,3,30,7.0,0.0
5713,76.0,26,30,8.0,0.0
5714,60.0,25,120,5.0,0.0
5715,89.0,5,30,7.0,0.0
5716,77.0,2,30,8.0,0.0
5717,84.0,4,30,7.0,0.0
5718,72.0,26,30,8.0,0.0
5719,56.0,22,120,13.0,0.0
5720,80.0,4,30,7.0,0.0
5721,68.0,2,30,8.0,0.0
5722,77.0,3,30,7.0,0.0
5723,65.0,20,30,8.0,0.0
5724,65.0,23,120,5.0,0.0
5725,72.0,4,25,7.0,0.0
5726,60.0,10,25,8.0,0.0
5727,89.0,5,30,7.0,0.0
5728,77.0,26,30,8.0,0.0
5729,55.0,23,120,13.0,0.0
5730,87.0,4,30,7.0,0.0
5731,75.0,1,30,8.0,0.0
5732,86.0,6,30,7.0,0.0
5733,74.0,24,30,8.0,0.0
5734,58.0,25,120,5.0,0.0
5735,87.0,4,30,7.0,0.0
5736,75.0,5,30,8.0,0.0
5737,82.0,2,30,7.0,0.0
5738,70.0,27,30,8.0,0.0
5739,54.0,23,120,13.0,0.0
5740,78.0,5,30,7.0,0.0
5741,66.0,1,30,8.0,0.0
5742,75.0,3,30,7.0,0.0
5743,63.0,20,30,8.0,0.0
5744,63.0,2,60,5.0,0.0
5745,74.0,4,25,7.0,0.0
5746,62.0,8,25,8.0,0.0
5747,87.0,3,30,7.0,0.0
5748,75.0,25,30,8.0,0.0
5749,62.0,2,120,5.0,0.0
5750,53.0,23,120,13.0,0.0
5751,86.0,4,30,7.0,0.0
5752,74.0,28,30,8.0,0.0
5753,85.0,2,30,7.0,0.0
5754,73.0,26,30,8.0,0.0
5755,86.0,6,30,7.0,0.0
5756,74.0,1,30,8.0,0.0
5757,84.0,3,30,7.0,0.0
5758,72.0,25,30,8.0,0.0
5759,60.0,25,60,5.0,0.0
5760,51.0,5,120,13.0,0.0
5761,81.0,5,30,7.0,0.0
5762,69.0,2,30,8.0,0.0
5763,77.0,3,30,7.0,0.0
5764,65.0,27,30,8.0,0.0
5765,72.0,3,30,7.0,0.0
5766,60.0,4,30,8.0,0.0
5767,69.0,6,30,7.0,0.0
5768,57.0,21,30,8.0,0.0
5769,50.0,6,120,12.0,0.0
5770,58.0,0,240,12.0,0.0
5771,50.0,5,240,13.0,0.0
5772,41.0,18,120,14.0,0.0
5773,70.0,3,25,7.0,0.0
5774,58.0,31,25,8.0,0.0
5775,76.0,3,30,7.0,0.0
5776,64.0,22,30,8.0,0.0
5777,62.0,24,120,5.0,0.0
5778,77.0,3,25,7.0,0.0
5779,65.0,9,25,8.0,0.0
5780,81.0,4,30,7.0,0.0
5781,69.0,20,30,8.0,0.0
5782,53.0,1,120,12.0,0.0
5783,38.0,17,120,14.0,0.0
5784,82.0,5,25,7.0,0.0
5785,70.0,6,25,8.0,0.0
5786,88.0,4,30,7.0,0.0
5787,76.0,22,30,8.0,0.0
5788,65.0,25,120,5.0,0.0
5789,89.0,3,25,7.0,0.0
5790,77.0,8,25,8.0,0.0
5791,94.0,5,30,7.0,0.0
5792,82.0,26,30,8.0,0.0
5793,56.0,0,240,12.0,0.0
5794,62.0,1,240,12.0,0.0
5795,46.0,5,240,13.0,0.0
5796,53.0,0,240,13.0,0.0
5797,34.0,17,240,14.0,0.0
5798,92.0,2,30,7.0,0.0
5799,80.0,3,30,8.0,0.0
5800,91.0,2,30,7.0,0.0
5801,79.0,26,30,8.0,0.0
5802,58.0,23,120,5.0,0.0
5803,92.0,6,30,7.0,0.0
5804,80.0,26,30,8.0,0.0
5805,91.0,2,30,7.0,0.0
5806,79.0,27,30,8.0,0.0
5807,89.0,3,30,7.0,0.0
5808,77.0,3,30,8.0,0.0
5809,88.0,4,30,7.0,0.0
5810,76.0,22,30,8.0,0.0
5811,70.0,24,120,5.0,0.0
5812,89.0,5,25,7.0,0.0
5813,77.0,7,25,8.0,0.0
5814,89.0,5,30,7.0,0.0
5815,77.0,26,30,8.0,0.0
5816,63.0,0,480,12.0,0.0
5817,55.0,1,240,12.0,0.0
5818,51.0,0,480,13.0,0.0
5819,39.0,5,240,13.0,0.0
5820,39.0,18,240,14.0,0.0
5821,87.0,2,30,7.0,0.0
5822,75.0,3,30,8.0,0.0
5823,86.0,5,30,7.0,0.0
5824,74.0,26,30,8.0,0.0
5825,67.0,23,120,5.0,0.0
5826,87.0,2,30,7.0,0.0
5827,75.0,26,30,8.0,0.0
5828,86.0,4,30,7.0,0.0
5829,74.0,26,30,8.0,0.0
5830,84.0,5,30,7.0,0.0
5831,72.0,2,30,8.0,0.0
5832,83.0,5,30,7.0,0.0
5833,71.0,20,30,8.0,0.0
5834,63.0,1,60,5.0,0.0
5835,84.0,6,25,7.0,0.0
5836,72.0,6,25,8.0,0.0
5837,87.0,3,30,7.0,0.0
5838,75.0,26,30,8.0,0.0
5839,60.0,25,120,5.0,0.0
5840,57.0,1,240,12.0,0.0
5841,41.0,5,240,13.0,0.0
5842,41.0,13,240,14.0,0.0
5843,84.0,5,30,7.0,0.0
5844,72.0,24,30,8.0,0.0
5845,81.0,4,30,7.0,0.0
5846,69.0,26,30,8.0,0.0
5847,79.0,5,30,7.0,0.0
5848,67.0,2,30,8.0,0.0
5849,77.0,2,30,7.0,0.0
5850,65.0,26,30,8.0,0.0
5851,53.0,1,120,5.0,0.0
5852,75.0,4,30,7.0,0.0
5853,63.0,27,30,8.0,0.0
5854,72.0,4,30,7.0,0.0
5855,60.0,20,30,8.0,0.0
5856,69.0,5,25,7.0,0.0
5857,57.0,7,25,8.0,0.0
5858,73.0,2,25,7.0,0.0
5859,61.0,27,25,8.0,0.0
5860,46.0,1,360,5.0,0.0
5861,58.0,1,360,12.0,0.0
5862,62.0,0,360,12.0,0.0
5863,46.0,5,360,13.0,0.0
5864,34.0,11,360,14.0,0.0
5865,74.0,5,25,7.0,0.0
5866,62.0,25,25,8.0,0.0
5867,70.0,3,25,7.0,0.0
5868,58.0,28,25,8.0,0.0
5869,65.0,4,25,7.0,0.0
5870,53.0,25,25,8.0,0.0
5871,69.0,5,25,7.0,0.0
5872,57.0,25,25,8.0,0.0
5873,70.0,4,25,7.0,0.0
5874,58.0,26,25,8.0,0.0
5875,65.0,3,25,7.0,0.0
5876,53.0,27,25,8.0,0.0
5877,62.0,3,25,7.0,0.0
5878,50.0,28,25,8.0,0.0
5879,69.0,3,25,7.0,0.0
5880,57.0,25,25,8.0,0.0
5881,70.0,4,25,7.0,0.0
5882,58.0,26,25,8.0,0.0
5883,65.0,5,25,7.0,0.0
5884,53.0,26,25,8.0,0.0
5885,62.0,3,25,7.0,0.0
5886,50.0,8,25,8.0,0.0
5887,64.0,6,25,7.0,0.0
5888,52.0,24,25,8.0,0.0
5889,65.0,4,25,7.0,0.0
5890,53.0,28,25,8.0,0.0
5891,62.0,4,25,7.0,0.0
5892,50.0,26,25,8.0,0.0
5893,58.0,2,25,7.0,0.0
5894,46.0,26,25,8.0,0.0
5895,61.0,5,25,7.0,0.0
5896,49.0,26,25,8.0,0.0
5897,62.0,4,25,7.0,0.0
5898,50.0,26,25,8.0,0.0
5899,58.0,30,25,7.0,0.0
5900,53.0,30,25,7.0,0.0
5901,57.0,5,25,7.0,0.0
5902,45.0,26,25,8.0,0.0
5903,58.0,3,25,7.0,0.0
5904,46.0,26,25,8.0,0.0
5905,53.0,30,25,7.0,0.0
5906,50.0,29,25,7.0,0.0
5907,52.0,6,25,7.0,0.0
5908,40.0,25,25,8.0,0.0
5909,53.0,3,25,7.0,0.0
5910,41.0,26,25,8.0,0.0
5911,50.0,31,25,7.0,0.0
5912,46.0,30,25,7.0,0.0
5913,52.0,4,25,7.0,0.0
5914,40.0,26,25,8.0,0.0
5915,53.0,4,25,7.0,0.0
5916,41.0,27,25,8.0,0.0
5917,46.0,29,25,7.0,0.0
5918,41.0,37,25,7.0,0.0
5919,61.0,60,30,11.0,0.0
5920,34.0,0,30,8.0,0.0
5921,65.0,60,30,11.0,0.0
5922,70.0,60,30,11.0,0.0
5923,73.0,60,30,11.0,0.0
5924,77.0,60,30,11.0,0.0
5925,70.0,60,30,11.0,0.0
5926,69.0,60,30,11.0,0.0
5927,75.0,90,30,11.0,0.0
5928,73.0,105,60,11.0,0.0
5929,73.0,30,15,11.0,0.0
5930,72.0,30,15,11.0,0.0
5931,68.0,30,15,11.0,0.0
5932,67.0,30,15,11.0,0.0
5933,70.0,30,15,11.0,0.0
5934,68.0,30,15,11.0,0.0
5935,65.0,30,15,11.0,0.0
5936,64.0,30,15,11.0,0.0
5937,67.0,30,15,11.0,0.0
5938,65.0,30,15,11.0,0.0
5939,61.0,45,15,11.0,0.0
5940,60.0,6,30,11.0,0.0
5941,44.0,60,30,13.0,0.0
5942,48.0,60,30,13.0,0.0
5943,53.0,54,30,13.0,0.0
5944,72.0,6,30,11.0,0.0
5945,56.0,60,30,13.0,0.0
5946,68.0,36,120,11.0,0.0
5947,60.0,60,30,13.0,0.0
5948,53.0,24,30,13.0,0.0
5949,67.0,38,52,11.0,0.0
5950,52.0,16,30,13.0,0.0
5951,72.0,6,30,11.0,0.0
5952,58.0,60,30,13.0,0.0
5953,66.0,51,120,11.0,0.0
5954,57.0,84,30,13.0,0.0
5955,65.0,29,52,11.0,0.0
5956,54.0,1,15,13.0,0.0
5957,70.0,0,81,11.0,0.0
5958,53.0,30,15,13.0,0.0
5959,49.0,30,15,13.0,0.0
5960,48.0,30,15,13.0,0.0
5961,68.0,30,51,11.0,0.0
5962,51.0,30,15,13.0,0.0
5963,49.0,0,15,13.0,0.0
5964,66.0,30,51,11.0,0.0
5965,46.0,30,15,13.0,0.0
5966,44.0,0,15,13.0,0.0
5967,65.0,30,51,11.0,0.0
5968,48.0,30,15,13.0,0.0
5969,46.0,0,15,13.0,0.0
5970,63.0,36,90,11.0,0.0
5971,43.0,45,15,13.0,0.0
5972,41.0,24,30,13.0,0.0
5973,65.0,35,60,11.0,0.0
5974,45.0,24,30,13.0,0.0
5975,48.0,1,30,12.0,0.0
5976,48.0,59,30,13.0,0.0
5977,78.0,14,82,11.0,0.0
5978,57.0,47,30,12.0,0.0
5979,58.0,18,52,12.0,0.0
5980,49.0,5,30,13.0,0.0
5981,37.0,4,30,14.0,0.0
5982,77.0,12,15,11.0,0.0
5983,75.0,21,15,11.0,0.0
5984,66.0,3,82,12.0,0.0
5985,53.0,5,30,13.0,0.0
5986,41.0,4,30,14.0,0.0
5987,72.0,42,15,11.0,0.0
5988,73.0,6,30,11.0,0.0
5989,58.0,5,30,13.0,0.0
5990,46.0,9,30,14.0,0.0
5991,65.0,30,15,12.0,0.0
5992,77.0,6,30,11.0,0.0
5993,61.0,10,15,12.0,0.0
5994,61.0,5,30,13.0,0.0
5995,49.0,9,30,14.0,0.0
5996,60.0,45,15,12.0,0.0
5997,73.0,35,120,11.0,0.0
5998,58.0,1,30,12.0,0.0
5999,65.0,5,30,13.0,0.0
6000,53.0,54,30,14.0,0.0
6001,61.0,1,30,12.0,0.0
6002,58.0,5,30,13.0,0.0
6003,46.0,19,30,14.0,0.0
6004,72.0,38,52,11.0,0.0
6005,65.0,1,30,12.0,0.0
6006,57.0,5,30,13.0,0.0
6007,45.0,11,30,14.0,0.0
6008,77.0,6,30,11.0,0.0
6009,63.0,5,30,13.0,0.0
6010,51.0,54,30,14.0,0.0
6011,72.0,51,120,11.0,0.0
6012,53.0,1,30,12.0,0.0
6013,61.0,5,30,13.0,0.0
6014,49.0,79,30,14.0,0.0
6015,58.0,18,112,12.0,0.0
6016,70.0,4,52,11.0,0.0
6017,61.0,1,15,13.0,0.0
6018,49.0,1,15,14.0,0.0
6019,68.0,5,30,11.0,0.0
6020,60.0,6,10,12.0,0.0
6021,60.0,4,15,13.0,0.0
6022,48.0,4,15,14.0,0.0
6023,61.0,1,10,12.0,0.0
6024,60.0,15,10,12.0,0.0
6025,77.0,0,51,11.0,0.0
6026,58.0,1,15,12.0,0.0
6027,56.0,5,15,13.0,0.0
6028,44.0,9,15,14.0,0.0
6029,60.0,16,15,12.0,0.0
6030,61.0,16,30,12.0,0.0
6031,55.0,5,15,13.0,0.0
6032,43.0,9,15,14.0,0.0
6033,75.0,5,51,11.0,0.0
6034,58.0,5,15,13.0,0.0
6035,46.0,25,15,14.0,0.0
6036,65.0,16,30,12.0,0.0
6037,56.0,0,15,13.0,0.0
6038,44.0,9,15,14.0,0.0
6039,73.0,0,51,11.0,0.0
6040,53.0,5,15,13.0,0.0
6041,41.0,25,15,14.0,0.0
6042,67.0,23,82,12.0,0.0
6043,51.0,5,15,13.0,0.0
6044,39.0,25,15,14.0,0.0
6045,72.0,0,51,11.0,0.0
6046,55.0,5,15,13.0,0.0
6047,43.0,25,15,14.0,0.0
6048,53.0,5,15,13.0,0.0
6049,41.0,1,15,14.0,0.0
6050,71.0,27,90,11.0,0.0
6051,65.0,1,15,12.0,0.0
6052,49.0,5,15,13.0,0.0
6053,37.0,40,15,14.0,0.0
6054,65.0,9,82,12.0,0.0
6055,48.0,5,30,13.0,0.0
6056,36.0,19,30,14.0,0.0
6057,72.0,35,60,11.0,0.0
6058,55.0,5,30,13.0,0.0
6059,43.0,16,30,14.0,0.0
6060,64.0,3,22,12.0,0.0
6061,67.0,1,30,12.0,0.0
6062,60.0,5,30,13.0,0.0
6063,48.0,24,30,14.0,0.0
6064,70.0,30,30,12.0,0.0
6065,72.0,13,75,11.0,0.0
6066,68.0,1,30,12.0,0.0
6067,64.0,5,30,13.0,0.0
6068,52.0,19,30,14.0,0.0
6069,67.0,15,25,12.0,0.0
6070,68.0,8,30,10.0,0.0
6071,68.0,10,60,12.0,0.0
6072,65.0,5,30,13.0,0.0
6073,53.0,4,30,14.0,0.0
6074,74.0,20,15,11.0,0.0
6075,72.0,8,30,10.0,0.0
6076,76.0,13,15,11.0,0.0
6077,56.0,9,30,13.0,0.0
6078,77.0,30,15,11.0,0.0
6079,77.0,8,30,10.0,0.0
6080,79.0,13,15,11.0,0.0
6081,60.0,9,30,13.0,0.0
6082,80.0,43,15,11.0,0.0
6083,80.0,8,30,10.0,0.0
6084,68.0,28,120,11.0,0.0
6085,53.0,52,30,13.0,0.0
6086,84.0,30,30,10.0,0.0
6087,52.0,2,52,13.0,0.0
6088,77.0,32,30,10.0,0.0
6089,67.0,28,60,11.0,0.0
6090,49.0,23,82,13.0,0.0
6091,76.0,0,30,10.0,0.0
6092,48.0,30,15,13.0,0.0
6093,82.0,23,30,10.0,0.0
6094,67.0,20,120,11.0,0.0
6095,52.0,7,15,13.0,0.0
6096,55.0,29,15,13.0,0.0
6097,80.0,8,30,10.0,0.0
6098,56.0,8,15,12.0,0.0
6099,56.0,5,30,13.0,0.0
6100,48.0,9,30,14.0,0.0
6101,60.0,10,15,12.0,0.0
6102,65.0,28,52,11.0,0.0
6103,65.0,30,15,12.0,0.0
6104,41.0,5,112,13.0,0.0
6105,41.0,10,112,14.0,0.0
6106,68.0,2,15,12.0,0.0
6107,68.0,13,30,11.0,0.0
6108,72.0,10,15,12.0,0.0
6109,80.0,7,15,10.0,0.0
6110,65.0,8,15,12.0,0.0
6111,79.0,3,15,10.0,0.0
6112,70.0,1,30,11.0,0.0
6113,64.0,1,15,12.0,0.0
6114,43.0,4,10,13.0,0.0
6115,43.0,5,10,14.0,0.0
6116,44.0,4,10,13.0,0.0
6117,44.0,5,10,14.0,0.0
6118,43.0,5,10,13.0,0.0
6119,73.0,7,15,10.0,0.0
6120,43.0,2,10,14.0,0.0
6121,70.0,1,15,12.0,0.0
6122,41.0,0,15,13.0,0.0
6123,44.0,10,10,14.0,0.0
6124,43.0,5,10,14.0,0.0
6125,43.0,5,15,13.0,0.0
6126,72.0,17,15,10.0,0.0
6127,72.0,6,30,11.0,0.0
6128,44.0,2,10,14.0,0.0
6129,68.0,16,52,12.0,0.0
6130,44.0,5,30,13.0,0.0
6131,44.0,2,30,14.0,0.0
6132,77.0,14,15,10.0,0.0
6133,73.0,17,15,10.0,0.0
6134,73.0,5,30,11.0,0.0
6135,55.0,1,30,12.0,0.0
6136,46.0,5,30,13.0,0.0
6137,46.0,2,30,14.0,0.0
6138,70.0,30,15,10.0,0.0
6139,68.0,17,15,10.0,0.0
6140,77.0,5,30,11.0,0.0
6141,56.0,8,30,12.0,0.0
6142,48.0,5,112,13.0,0.0
6143,48.0,12,112,14.0,0.0
6144,72.0,30,15,10.0,0.0
6145,70.0,17,15,10.0,0.0
6146,76.0,13,30,11.0,0.0
6147,60.0,18,112,12.0,0.0
6148,67.0,15,15,10.0,0.0
6149,65.0,6,30,10.0,0.0
6150,77.0,13,15,11.0,0.0
6151,41.0,0,30,5.0,0.0
6152,53.0,2,30,5.0,0.0
6153,45.0,5,30,13.0,0.0
6154,33.0,4,30,14.0,0.0
6155,75.0,12,15,11.0,0.0
6156,73.0,20,15,11.0,0.0
6157,41.0,0,112,5.0,0.0
6158,53.0,19,112,5.0,0.0
6159,61.0,1,30,12.0,0.0
6160,46.0,5,30,13.0,0.0
6161,34.0,4,30,14.0,0.0
6162,70.0,30,15,11.0,0.0
6163,69.0,20,15,11.0,0.0
6164,65.0,10,30,12.0,0.0
6165,48.0,5,112,13.0,0.0
6166,36.0,10,112,14.0,0.0
6167,72.0,11,15,11.0,0.0
6168,70.0,19,15,11.0,0.0
6169,53.0,0,30,5.0,0.0
6170,41.0,1,30,5.0,0.0
6171,64.0,10,30,12.0,0.0
6172,67.0,13,15,11.0,0.0
6173,77.0,17,15,10.0,0.0
6174,72.0,4,30,11.0,0.0
6175,53.0,1,30,5.0,0.0
6176,41.0,0,30,5.0,0.0
6177,65.0,1,30,12.0,0.0
6178,45.0,5,30,13.0,0.0
6179,33.0,2,30,14.0,0.0
6180,76.0,30,15,10.0,0.0
6181,77.0,17,15,10.0,0.0
6182,69.0,4,30,11.0,0.0
6183,41.0,1,30,5.0,0.0
6184,53.0,0,30,5.0,0.0
6185,53.0,1,30,12.0,0.0
6186,48.0,5,30,13.0,0.0
6187,36.0,2,30,14.0,0.0
6188,75.0,30,15,10.0,0.0
6189,73.0,17,15,10.0,0.0
6190,65.0,5,30,11.0,0.0
6191,53.0,0,112,5.0,0.0
6192,41.0,17,112,5.0,0.0
6193,57.0,1,30,12.0,0.0
6194,53.0,5,30,13.0,0.0
6195,41.0,2,30,14.0,0.0
6196,72.0,30,15,10.0,0.0
6197,73.0,17,15,10.0,0.0
6198,63.0,5,30,11.0,0.0
6199,65.0,1,30,12.0,0.0
6200,57.0,5,30,13.0,0.0
6201,45.0,2,30,14.0,0.0
6202,72.0,13,15,10.0,0.0
6203,78.0,17,15,10.0,0.0
6204,61.0,4,30,11.0,0.0
6205,53.0,0,30,5.0,0.0
6206,65.0,1,30,5.0,0.0
6207,58.0,1,30,12.0,0.0
6208,46.0,5,30,13.0,0.0
6209,34.0,2,30,14.0,0.0
6210,77.0,30,15,10.0,0.0
6211,75.0,2,15,10.0,0.0
6212,65.0,21,15,11.0,0.0
6213,53.0,17,112,5.0,0.0
6214,65.0,0,112,5.0,0.0
6215,58.0,5,30,13.0,0.0
6216,46.0,2,30,14.0,0.0
6217,73.0,2,15,10.0,0.0
6218,70.0,28,15,11.0,0.0
6219,81.0,17,15,10.0,0.0
6220,63.0,6,30,11.0,0.0
6221,48.0,5,30,13.0,0.0
6222,36.0,2,30,14.0,0.0
6223,78.0,13,15,10.0,0.0
6224,77.0,2,15,10.0,0.0
6225,69.0,19,15,11.0,0.0
6226,53.0,0,30,5.0,0.0
6227,65.0,2,30,5.0,0.0
6228,60.0,5,30,13.0,0.0
6229,48.0,2,30,14.0,0.0
6230,75.0,2,15,10.0,0.0
6231,72.0,28,15,11.0,0.0
6232,82.0,17,15,10.0,0.0
6233,70.0,5,30,11.0,0.0
6234,65.0,1,1020,5.0,0.0
6235,53.0,0,1020,5.0,0.0
6236,53.0,1,30,12.0,0.0
6237,49.0,5,30,13.0,0.0
6238,37.0,2,30,14.0,0.0
6239,77.0,30,15,10.0,0.0
6240,75.0,2,15,10.0,0.0
6241,69.0,28,15,11.0,0.0
6242,58.0,16,112,12.0,0.0
6243,73.0,2,15,10.0,0.0
6244,70.0,28,15,11.0,0.0
6245,73.0,23,15,10.0,0.0
6246,65.0,13,112,11.0,0.0
6247,53.0,5,30,13.0,0.0
6248,41.0,2,30,14.0,0.0
6249,72.0,14,15,10.0,0.0
6250,70.0,2,15,10.0,0.0
6251,60.0,10,10,12.0,0.0
6252,61.0,10,10,12.0,0.0
6253,60.0,8,10,12.0,0.0
6254,69.0,7,15,10.0,0.0
6255,58.0,2,15,12.0,0.0
6256,60.0,23,15,12.0,0.0
6257,70.0,7,30,10.0,0.0
6258,65.0,43,52,11.0,0.0
6259,61.0,1,30,12.0,0.0
6260,58.0,5,30,13.0,0.0
6261,46.0,11,30,14.0,0.0
6262,70.0,18,112,11.0,0.0
6263,65.0,61,30,12.0,0.0
6264,70.0,3,112,12.0,0.0
6265,61.0,5,30,13.0,0.0
6266,49.0,11,30,14.0,0.0
6267,72.0,10,10,11.0,0.0
6268,73.0,10,10,11.0,0.0
6269,72.0,15,10,11.0,0.0
6270,70.0,12,15,11.0,0.0
6271,72.0,30,15,11.0,0.0
6272,73.0,6,30,11.0,0.0
6273,65.0,5,30,13.0,0.0
6274,53.0,9,30,14.0,0.0
6275,70.0,30,15,12.0,0.0
6276,77.0,20,30,11.0,0.0
6277,68.0,10,15,12.0,0.0
6278,65.0,30,15,12.0,0.0
6279,82.0,28,82,11.0,0.0
6280,63.0,16,15,12.0,0.0
6281,58.0,5,30,13.0,0.0
6282,46.0,9,30,14.0,0.0
6283,66.0,30,15,12.0,0.0
6284,65.0,2,15,12.0,0.0
6285,77.0,23,22,11.0,0.0
6286,61.0,2,15,12.0,0.0
6287,75.0,5,15,11.0,0.0
6288,60.0,16,15,12.0,0.0
6289,57.0,5,30,13.0,0.0
6290,45.0,4,30,14.0,0.0
6291,78.0,5,15,11.0,0.0
6292,63.0,25,15,12.0,0.0
6293,77.0,5,15,11.0,0.0
6294,61.0,25,15,12.0,0.0
6295,75.0,5,15,11.0,0.0
6296,60.0,25,15,12.0,0.0
6297,73.0,5,15,11.0,0.0
6298,58.0,16,15,12.0,0.0
6299,63.0,5,30,13.0,0.0
6300,51.0,4,30,14.0,0.0
6301,72.0,5,15,11.0,0.0
6302,57.0,25,15,12.0,0.0
6303,73.0,5,15,11.0,0.0
6304,58.0,25,15,12.0,0.0
6305,75.0,5,15,11.0,0.0
6306,60.0,23,15,12.0,0.0
6307,61.0,23,15,10.0,0.0
6308,77.0,4,60,11.0,0.0
6309,58.0,8,60,12.0,0.0
6310,61.0,5,30,13.0,0.0
6311,49.0,2,30,14.0,0.0
6312,65.0,17,15,10.0,0.0
6313,70.0,30,15,10.0,0.0
6314,73.0,30,15,10.0,0.0
6315,77.0,30,15,10.0,0.0
6316,70.0,6,15,10.0,0.0
6317,70.0,6,15,2.0,0.0
6318,65.0,0,15,2.0,0.0
6319,61.0,18,15,3.0,0.0
6320,69.0,6,15,10.0,0.0
6321,69.0,6,15,2.0,0.0
6322,65.0,0,15,2.0,0.0
6323,60.0,18,15,3.0,0.0
6324,75.0,6,15,10.0,0.0
6325,72.0,0,15,2.0,0.0
6326,65.0,6,15,2.0,0.0
6327,57.0,26,15,3.0,0.0
6328,73.0,1,52,10.0,0.0
6329,65.0,0,52,2.0,0.0
6330,70.0,6,52,2.0,0.0
6331,49.0,29,15,13.0,0.0
6332,58.0,19,52,3.0,0.0
6333,53.0,5,15,13.0,0.0
6334,58.0,30,15,13.0,0.0
6335,61.0,30,15,13.0,0.0
6336,65.0,22,15,13.0,0.0
6337,73.0,2,15,10.0,0.0
6338,65.0,5,15,11.0,0.0
6339,65.0,1,15,12.0,0.0
6340,58.0,22,15,13.0,0.0
6341,72.0,2,15,10.0,0.0
6342,65.0,5,15,11.0,0.0
6343,63.0,1,15,12.0,0.0
6344,57.0,22,15,13.0,0.0
6345,69.0,2,15,10.0,0.0
6346,65.0,5,15,11.0,0.0
6347,60.0,1,15,12.0,0.0
6348,63.0,23,15,13.0,0.0
6349,70.0,2,52,10.0,0.0
6350,77.0,14,15,0.0,0.0
6351,65.0,5,52,11.0,0.0
6352,58.0,17,52,12.0,0.0
6353,62.0,16,22,13.0,0.0
6354,82.0,6,15,0.0,0.0
6355,86.0,30,15,0.0,0.0
6356,89.0,30,15,0.0,0.0
6357,92.0,30,15,0.0,0.0
6358,89.0,3,15,0.0,0.0
6359,70.0,0,15,1.0,0.0
6360,77.0,2,15,1.0,0.0
6361,70.0,25,15,2.0,0.0
6362,68.0,0,15,2.0,0.0
6363,87.0,3,15,0.0,0.0
6364,75.0,2,15,1.0,0.0
6365,70.0,0,15,1.0,0.0
6366,70.0,25,15,2.0,0.0
6367,66.0,0,15,2.0,0.0
6368,86.0,3,15,0.0,0.0
6369,70.0,0,15,1.0,0.0
6370,74.0,2,15,1.0,0.0
6371,65.0,0,15,2.0,0.0
6372,70.0,36,15,2.0,0.0
6373,87.0,3,52,0.0,0.0
6374,70.0,1,52,1.0,0.0
6375,75.0,0,52,1.0,0.0
6376,70.0,0,52,2.0,0.0
6377,66.0,29,52,2.0,0.0
6378,42.0,26,15,3.0,0.0
6379,46.0,1,15,3.0,0.0
6380,51.0,30,15,3.0,0.0
6381,54.0,30,15,3.0,0.0
6382,58.0,18,15,3.0,0.0
6383,72.0,2,15,10.0,0.0
6384,63.0,4,15,11.0,0.0
6385,58.0,1,15,5.0,0.0
6386,63.0,5,15,12.0,0.0
6387,54.0,18,15,3.0,0.0
6388,72.0,2,15,10.0,0.0
6389,65.0,4,15,11.0,0.0
6390,58.0,1,15,5.0,0.0
6391,61.0,5,15,12.0,0.0
6392,53.0,18,15,3.0,0.0
6393,72.0,2,15,10.0,0.0
6394,67.0,4,15,11.0,0.0
6395,58.0,1,15,5.0,0.0
6396,60.0,5,15,12.0,0.0
6397,52.0,19,15,3.0,0.0
6398,70.0,0,52,10.0,0.0
6399,60.0,2,52,10.0,0.0
6400,65.0,30,15,0.0,0.0
6401,65.0,4,52,11.0,0.0
6402,65.0,1,52,5.0,0.0
6403,60.0,5,52,12.0,0.0
6404,53.0,12,52,3.0,0.0
6405,70.0,6,15,0.0,0.0
6406,72.0,30,15,0.0,0.0
6407,77.0,59,15,0.0,0.0
6408,84.0,22,52,0.0,0.0
6409,60.0,0,15,10.0,0.0
6410,70.0,2,15,10.0,0.0
6411,65.0,4,15,11.0,0.0
6412,65.0,2,15,5.0,0.0
6413,60.0,2,15,10.0,0.0
6414,70.0,0,15,10.0,0.0
6415,65.0,4,15,11.0,0.0
6416,65.0,24,15,5.0,0.0
6417,60.0,0,15,10.0,0.0
6418,70.0,2,15,10.0,0.0
6419,65.0,4,15,11.0,0.0
6420,65.0,36,15,5.0,0.0
6421,60.0,0,52,10.0,0.0
6422,69.0,2,52,10.0,0.0
6423,65.0,3,52,11.0,0.0
6424,65.0,29,52,5.0,0.0
6425,48.0,25,15,3.0,0.0
6426,53.0,1,15,3.0,0.0
6427,57.0,30,15,3.0,0.0
6428,60.0,48,15,3.0,0.0
6429,65.0,11,52,3.0,0.0
6430,69.0,2,15,10.0,0.0
6431,60.0,0,15,10.0,0.0
6432,65.0,2,15,11.0,0.0
6433,60.0,15,15,4.0,0.0
6434,69.0,2,15,10.0,0.0
6435,60.0,0,15,10.0,0.0
6436,65.0,2,15,11.0,0.0
6437,60.0,26,15,4.0,0.0
6438,69.0,2,15,10.0,0.0
6439,60.0,0,15,10.0,0.0
6440,65.0,2,15,11.0,0.0
6441,60.0,30,15,4.0,0.0
6442,68.0,2,52,10.0,0.0
6443,60.0,0,52,10.0,0.0
6444,65.0,2,52,11.0,0.0
6445,60.0,23,52,4.0,0.0
6446,60.0,30,15,1.0,0.0
6447,65.0,3,15,1.0,0.0
6448,68.0,30,15,1.0,0.0
6449,72.0,56,15,1.0,0.0
6450,77.0,19,52,1.0,0.0
6451,68.0,2,15,10.0,0.0
6452,60.0,0,15,10.0,0.0
6453,65.0,2,15,11.0,0.0
6454,60.0,7,15,4.0,0.0
6455,60.0,0,15,10.0,0.0
6456,68.0,2,15,10.0,0.0
6457,65.0,2,15,11.0,0.0
6458,60.0,26,15,4.0,0.0
6459,60.0,2,15,10.0,0.0
6460,68.0,0,15,10.0,0.0
6461,65.0,2,15,11.0,0.0
6462,60.0,38,15,4.0,0.0
6463,67.0,2,52,10.0,0.0
6464,60.0,0,52,10.0,0.0
6465,65.0,2,52,11.0,0.0
6466,60.0,1,52,4.0,0.0
6467,48.0,25,15,3.0,0.0
6468,53.0,30,15,3.0,0.0
6469,55.0,30,15,3.0,0.0
6470,59.0,48,15,3.0,0.0
6471,60.0,11,52,3.0,0.0
6472,60.0,2,15,10.0,0.0
6473,67.0,0,15,10.0,0.0
6474,64.0,2,15,11.0,0.0
6475,60.0,15,15,4.0,0.0
6476,60.0,0,15,10.0,0.0
6477,67.0,2,15,10.0,0.0
6478,64.0,2,15,11.0,0.0
6479,60.0,26,15,4.0,0.0
6480,67.0,2,15,10.0,0.0
6481,60.0,0,15,10.0,0.0
6482,64.0,2,15,11.0,0.0
6483,60.0,32,15,4.0,0.0
6484,67.0,2,52,10.0,0.0
6485,60.0,0,52,10.0,0.0
6486,63.0,2,52,11.0,0.0
6487,60.0,11,52,4.0,0.0
6488,60.0,30,15,2.0,0.0
6489,55.0,1,60,12.0,0.0
6490,63.0,0,60,12.0,0.0
6491,43.0,5,60,13.0,0.0
6492,31.0,8,60,14.0,0.0
6493,63.0,1,15,2.0,0.0
6494,67.0,30,15,2.0,0.0
6495,72.0,54,15,2.0,0.0
6496,75.0,17,52,2.0,0.0
6497,60.0,0,15,10.0,0.0
6498,67.0,2,15,10.0,0.0
6499,63.0,2,15,11.0,0.0
6500,60.0,9,15,4.0,0.0
6501,67.0,2,15,10.0,0.0
6502,60.0,0,15,10.0,0.0
6503,63.0,2,15,11.0,0.0
6504,60.0,26,15,4.0,0.0
6505,60.0,2,15,10.0,0.0
6506,67.0,0,15,10.0,0.0
6507,63.0,2,15,11.0,0.0
6508,60.0,38,15,4.0,0.0
6509,60.0,2,52,10.0,0.0
6510,67.0,0,52,10.0,0.0
6511,62.0,2,52,11.0,0.0
6512,60.0,1,52,4.0,0.0
6513,55.0,0,60,12.0,0.0
6514,62.0,1,60,12.0,0.0
6515,43.0,5,60,13.0,0.0
6516,43.0,25,15,3.0,0.0
6517,31.0,14,60,14.0,0.0
6518,48.0,10,15,3.0,0.0
6519,50.0,30,15,3.0,0.0
6520,55.0,19,15,3.0,0.0
6521,59.0,2,52,10.0,0.0
6522,67.0,0,52,10.0,0.0
6523,67.0,30,15,0.0,0.0
6524,62.0,13,52,11.0,0.0
6525,62.0,0,60,12.0,0.0
6526,55.0,1,60,12.0,0.0
6527,43.0,5,60,13.0,0.0
6528,31.0,3,60,14.0,0.0
6529,71.0,6,15,0.0,0.0
6530,74.0,30,15,0.0,0.0
6531,79.0,37,15,0.0,0.0
6532,60.0,0,52,10.0,0.0
6533,67.0,1,52,10.0,0.0
6534,36.0,5,15,13.0,0.0
6535,36.0,24,15,14.0,0.0
6536,40.0,5,15,13.0,0.0
6537,40.0,25,15,14.0,0.0
6538,43.0,5,15,13.0,0.0
6539,43.0,25,15,14.0,0.0
6540,48.0,5,15,13.0,0.0
6541,48.0,24,15,14.0,0.0
6542,48.0,16,15,12.0,0.0
6543,52.0,5,30,13.0,0.0
6544,52.0,9,30,14.0,0.0
6545,52.0,30,15,12.0,0.0
6546,55.0,16,15,12.0,0.0
6547,48.0,5,30,13.0,0.0
6548,48.0,9,30,14.0,0.0
6549,60.0,31,15,12.0,0.0
6550,64.0,10,30,12.0,0.0
6551,48.0,14,15,13.0,0.0
6552,60.0,6,15,11.0,0.0
6553,52.0,22,15,13.0,0.0
6554,72.0,1,15,10.0,0.0
6555,72.0,1,15,0.0,0.0
6556,64.0,6,15,11.0,0.0
6557,60.0,8,30,12.0,0.0
6558,55.0,14,15,13.0,0.0
6559,76.0,1,15,10.0,0.0
6560,76.0,1,15,0.0,0.0
6561,67.0,6,15,11.0,0.0
6562,60.0,22,15,13.0,0.0
6563,79.0,1,15,10.0,0.0
6564,79.0,1,15,0.0,0.0
6565,72.0,21,15,11.0,0.0
6566,64.0,7,30,13.0,0.0
6567,84.0,1,15,10.0,0.0
6568,84.0,1,15,0.0,0.0
6569,76.0,43,15,11.0,0.0
6570,88.0,2,30,10.0,0.0
6571,88.0,27,60,0.0,0.0
6572,79.0,6,30,11.0,0.0
6573,60.0,23,30,13.0,0.0
6574,72.0,28,30,7.0,0.0
6575,60.0,2,25,8.0,0.0
6576,69.0,30,25,8.0,0.0
6577,77.0,6,112,7.0,0.0
6578,60.0,30,25,8.0,0.0
6579,53.0,30,25,8.0,0.0
6580,60.0,24,25,8.0,0.0
6581,70.0,22,25,8.0,0.0
6582,60.0,2,25,8.0,0.0
6583,79.0,8,10,7.0,0.0
6584,81.0,10,10,7.0,0.0
6585,79.0,10,10,7.0,0.0
6586,53.0,2,25,8.0,0.0
6587,81.0,8,10,7.0,0.0
6588,79.0,28,10,7.0,0.0
6589,81.0,28,30,7.0,0.0
6590,60.0,2,25,8.0,0.0
6591,72.0,30,25,8.0,0.0
6592,84.0,28,30,7.0,0.0
6593,60.0,2,25,8.0,0.0
6594,53.0,30,25,8.0,0.0
6595,89.0,6,112,7.0,0.0
6596,60.0,30,25,8.0,0.0
6597,69.0,30,25,8.0,0.0
6598,60.0,24,25,8.0,0.0
6599,53.0,30,25,8.0,0.0
6600,60.0,30,25,8.0,0.0
6601,89.0,28,30,7.0,0.0
6602,67.0,2,25,8.0,0.0
6603,88.0,28,30,7.0,0.0
6604,60.0,2,25,8.0,0.0
6605,84.0,28,30,7.0,0.0
6606,53.0,2,25,8.0,0.0
6607,82.0,28,30,7.0,0.0
6608,60.0,2,25,8.0,0.0
6609,86.0,28,30,7.0,0.0
6610,65.0,2,25,8.0,0.0
6611,82.0,28,30,7.0,0.0
6612,60.0,2,25,8.0,0.0
6613,79.0,28,30,7.0,0.0
6614,53.0,2,25,8.0,0.0
6615,81.0,28,30,7.0,0.0
6616,60.0,2,25,8.0,0.0
6617,84.0,28,30,7.0,0.0
6618,64.0,2,25,8.0,0.0
6619,82.0,28,30,7.0,0.0
6620,60.0,2,25,8.0,0.0
6621,79.0,28,30,7.0,0.0
6622,53.0,2,25,8.0,0.0
6623,81.0,28,30,7.0,0.0
6624,60.0,2,25,8.0,0.0
6625,84.0,28,30,7.0,0.0
6626,63.0,2,25,8.0,0.0
6627,81.0,28,30,7.0,0.0
6628,60.0,2,25,8.0,0.0
6629,77.0,28,60,7.0,0.0
6630,53.0,30,25,8.0,0.0
6631,62.0,2,25,8.0,0.0
6632,65.0,30,25,8.0,0.0
6633,82.0,6,112,7.0,0.0
6634,62.0,30,25,8.0,0.0
6635,50.0,30,25,8.0,0.0
6636,63.0,24,25,8.0,0.0
6637,69.0,22,25,8.0,0.0
6638,63.0,2,25,8.0,0.0
6639,84.0,8,10,7.0,0.0
6640,86.0,10,10,7.0,0.0
6641,84.0,10,10,7.0,0.0
6642,53.0,2,25,8.0,0.0
6643,86.0,8,10,7.0,0.0
6644,84.0,28,10,7.0,0.0
6645,86.0,28,60,7.0,0.0
6646,58.0,30,25,8.0,0.0
6647,70.0,2,25,8.0,0.0
6648,89.0,28,60,7.0,0.0
6649,58.0,30,25,8.0,0.0
6650,53.0,2,25,8.0,0.0
6651,76.0,6,120,7.0,0.0
6652,85.0,6,120,7.0,0.0
6653,61.0,30,25,8.0,0.0
6654,94.0,16,120,7.0,0.0
6655,67.0,30,25,8.0,0.0
6656,61.0,24,25,8.0,0.0
6657,53.0,2,25,8.0,0.0
6658,75.0,6,30,7.0,0.0
6659,84.0,7,30,7.0,0.0
6660,60.0,2,25,8.0,0.0
6661,87.0,18,30,7.0,0.0
6662,94.0,3,25,7.0,0.0
6663,65.0,27,25,8.0,0.0
6664,93.0,3,25,7.0,0.0
6665,60.0,27,25,8.0,0.0
6666,87.0,3,25,7.0,0.0
6667,53.0,27,25,8.0,0.0
6668,86.0,3,25,7.0,0.0
6669,59.0,27,25,8.0,0.0
6670,91.0,3,25,7.0,0.0
6671,65.0,27,25,8.0,0.0
6672,89.0,3,25,7.0,0.0
6673,59.0,27,25,8.0,0.0
6674,80.0,3,25,7.0,0.0
6675,53.0,27,25,8.0,0.0
6676,81.0,3,25,7.0,0.0
6677,60.0,27,25,8.0,0.0
6678,89.0,3,25,7.0,0.0
6679,65.0,27,25,8.0,0.0
6680,87.0,3,25,7.0,0.0
6681,60.0,27,25,8.0,0.0
6682,77.0,3,25,7.0,0.0
6683,53.0,27,25,8.0,0.0
6684,80.0,3,25,7.0,0.0
6685,59.0,27,25,8.0,0.0
6686,87.0,3,25,7.0,0.0
6687,65.0,27,25,8.0,0.0
6688,86.0,3,25,7.0,0.0
6689,59.0,27,25,8.0,0.0
6690,74.0,3,25,7.0,0.0
6691,53.0,10,25,8.0,0.0
6692,75.0,3,25,7.0,0.0
6693,77.0,11,60,0.0,0.0
6694,60.0,27,25,8.0,0.0
6695,41.0,5,0,13.0,0.0
6696,53.0,13,60,3.0,0.0
6697,29.0,12,0,14.0,0.0
6698,82.0,3,25,7.0,0.0
6699,65.0,3,25,8.0,0.0
6700,81.0,3,25,7.0,0.0
6701,81.0,7,60,0.0,0.0
6702,53.0,27,25,8.0,0.0
6703,57.0,1,60,3.0,0.0
6704,72.0,3,25,7.0,0.0
6705,65.0,3,25,8.0,0.0
6706,74.0,8,20,7.0,0.0
6707,84.0,11,60,0.0,0.0
6708,53.0,12,25,8.0,0.0
6709,45.0,4,120,13.0,0.0
6710,60.0,8,60,3.0,0.0
6711,33.0,7,120,14.0,0.0
6712,75.0,18,20,7.0,0.0
6713,65.0,2,25,8.0,0.0
6714,82.0,1,20,7.0,0.0
6715,81.0,8,20,7.0,0.0
6716,89.0,7,60,0.0,0.0
6717,53.0,12,25,8.0,0.0
6718,65.0,1,60,3.0,0.0
6719,75.0,15,20,7.0,0.0
6720,65.0,3,25,8.0,0.0
6721,72.0,3,15,7.0,0.0
6722,74.0,8,20,7.0,0.0
6723,93.0,11,60,0.0,0.0
6724,54.0,12,25,8.0,0.0
6725,48.0,4,120,13.0,0.0
6726,69.0,8,60,3.0,0.0
6727,36.0,7,120,14.0,0.0
6728,75.0,18,20,7.0,0.0
6729,66.0,2,25,8.0,0.0
6730,82.0,1,20,7.0,0.0
6731,81.0,8,20,7.0,0.0
6732,87.0,7,60,0.0,0.0
6733,54.0,12,25,8.0,0.0
6734,63.0,1,60,3.0,0.0
6735,75.0,15,20,7.0,0.0
6736,66.0,3,25,8.0,0.0
6737,72.0,3,15,7.0,0.0
6738,74.0,8,20,7.0,0.0
6739,86.0,11,60,0.0,0.0
6740,54.0,12,25,8.0,0.0
6741,54.0,4,120,13.0,0.0
6742,62.0,8,60,3.0,0.0
6743,42.0,2,120,14.0,0.0
6744,75.0,18,20,7.0,0.0
6745,66.0,2,25,8.0,0.0
6746,82.0,1,20,7.0,0.0
6747,81.0,8,20,7.0,0.0
6748,84.0,7,60,0.0,0.0
6749,54.0,12,25,8.0,0.0
6750,60.0,1,60,3.0,0.0
6751,75.0,15,20,7.0,0.0
6752,66.0,3,25,8.0,0.0
6753,72.0,3,15,7.0,0.0
6754,74.0,13,15,7.0,0.0
6755,82.0,1,120,0.0,0.0
6756,55.0,2,120,11.0,0.0
6757,55.0,7,25,8.0,0.0
6758,70.0,2,60,1.0,0.0
6759,58.0,9,60,2.0,0.0
6760,55.0,1,120,12.0,0.0
6761,43.0,4,120,13.0,0.0
6762,58.0,1,120,3.0,0.0
6763,43.0,2,120,14.0,0.0
6764,79.0,20,15,7.0,0.0
6765,67.0,6,25,8.0,0.0
6766,84.0,3,15,7.0,0.0
6767,82.0,13,15,7.0,0.0
6768,55.0,7,25,8.0,0.0
6769,74.0,2,60,1.0,0.0
6770,62.0,1,60,2.0,0.0
6771,79.0,20,15,7.0,0.0
6772,67.0,3,25,8.0,0.0
6773,75.0,3,15,7.0,0.0
6774,74.0,13,15,7.0,0.0
6775,58.0,2,120,11.0,0.0
6776,55.0,7,25,8.0,0.0
6777,79.0,2,60,1.0,0.0
6778,67.0,9,60,2.0,0.0
6779,46.0,4,120,13.0,0.0
6780,79.0,20,15,7.0,0.0
6781,67.0,6,25,8.0,0.0
6782,84.0,3,15,7.0,0.0
6783,82.0,13,15,7.0,0.0
6784,55.0,7,25,8.0,0.0
6785,82.0,2,60,1.0,0.0
6786,70.0,2,60,2.0,0.0
6787,79.0,20,15,7.0,0.0
6788,67.0,4,25,8.0,0.0
6789,74.0,3,15,7.0,0.0
6790,77.0,16,12,7.0,0.0
6791,62.0,2,120,11.0,0.0
6792,56.0,0,25,8.0,0.0
6793,83.0,2,60,1.0,0.0
6794,71.0,13,60,2.0,0.0
6795,56.0,1,120,12.0,0.0
6796,50.0,5,120,13.0,0.0
6797,44.0,8,120,14.0,0.0
6798,83.0,17,12,7.0,0.0
6799,68.0,4,25,8.0,0.0
6800,88.0,13,12,7.0,0.0
6801,86.0,2,12,7.0,0.0
6802,56.0,8,25,8.0,0.0
6803,77.0,2,60,1.0,0.0
6804,74.0,1,60,2.0,0.0
6805,83.0,9,12,7.0,0.0
6806,77.0,16,12,7.0,0.0
6807,68.0,4,25,8.0,0.0
6808,74.0,6,12,7.0,0.0
6809,77.0,0,8,7.0,0.0
6810,68.0,2,120,11.0,0.0
6811,56.0,6,25,8.0,0.0
6812,76.0,2,60,1.0,0.0
6813,73.0,9,60,2.0,0.0
6814,56.0,7,120,13.0,0.0
6815,83.0,7,8,7.0,0.0
6816,86.0,14,8,7.0,0.0
6817,68.0,3,25,8.0,0.0
6818,91.0,10,8,7.0,0.0
6819,89.0,3,8,7.0,0.0
6820,56.0,13,25,8.0,0.0
6821,74.0,2,60,1.0,0.0
6822,70.0,2,60,2.0,0.0
6823,86.0,13,8,7.0,0.0
6824,83.0,0,8,7.0,0.0
6825,77.0,14,8,7.0,0.0
6826,68.0,4,25,8.0,0.0
6827,74.0,3,8,7.0,0.0
6828,73.0,15,15,7.0,0.0
6829,61.0,0,120,10.0,0.0
6830,64.0,0,120,10.0,0.0
6831,69.0,2,120,11.0,0.0
6832,57.0,0,60,8.0,0.0
6833,69.0,12,60,8.0,0.0
6834,73.0,2,120,1.0,0.0
6835,69.0,1,120,2.0,0.0
6836,57.0,1,120,12.0,0.0
6837,57.0,5,120,13.0,0.0
6838,45.0,2,120,14.0,0.0
6839,76.0,15,15,7.0,0.0
6840,81.0,15,15,7.0,0.0
6841,86.0,3,15,7.0,0.0
6842,85.0,15,15,8.0,0.0
6843,81.0,15,15,8.0,0.0
6844,76.0,15,15,8.0,0.0
6845,73.0,2,15,8.0,0.0
6846,69.0,15,15,7.0,0.0
6847,73.0,15,15,7.0,0.0
6848,76.0,15,15,7.0,0.0
6849,82.0,15,15,7.0,0.0
6850,81.0,15,15,8.0,0.0
6851,76.0,15,15,8.0,0.0
6852,73.0,15,15,8.0,0.0
6853,69.0,15,15,8.0,0.0
6854,64.0,15,15,7.0,0.0
6855,69.0,15,15,7.0,0.0
6856,73.0,15,15,7.0,0.0
6857,77.0,15,15,7.0,0.0
6858,76.0,15,15,8.0,0.0
6859,73.0,15,15,8.0,0.0
6860,69.0,15,15,8.0,0.0
6861,64.0,15,15,8.0,0.0
6862,61.0,15,15,7.0,0.0
6863,64.0,15,15,7.0,0.0
6864,69.0,15,15,7.0,0.0
6865,74.0,15,15,7.0,0.0
6866,73.0,15,15,8.0,0.0
6867,69.0,15,15,8.0,0.0
6868,64.0,15,15,8.0,0.0
6869,61.0,15,15,8.0,0.0
6870,57.0,15,15,7.0,0.0
6871,61.0,15,15,7.0,0.0
6872,64.0,15,15,7.0,0.0
6873,70.0,15,15,7.0,0.0
6874,69.0,15,15,8.0,0.0
6875,64.0,15,15,8.0,0.0
6876,61.0,10,15,8.0,0.0
6877,57.0,20,10,8.0,0.0
6878,57.0,15,15,7.0,0.0
6879,61.0,15,15,7.0,0.0
6880,64.0,15,15,7.0,0.0
6881,69.0,15,15,7.0,0.0
6882,68.0,15,15,8.0,0.0
6883,64.0,15,15,8.0,0.0
6884,61.0,11,15,8.0,0.0
6885,57.0,19,11,8.0,0.0
6886,57.0,15,15,7.0,0.0
6887,61.0,15,15,7.0,0.0
6888,64.0,15,15,7.0,0.0
6889,68.0,15,15,7.0,0.0
6890,68.0,15,15,8.0,0.0
6891,64.0,15,15,8.0,0.0
6892,61.0,15,15,8.0,0.0
6893,57.0,15,15,8.0,0.0
6894,57.0,15,15,7.0,0.0
6895,60.0,15,15,7.0,0.0
6896,64.0,15,15,7.0,0.0
6897,67.0,20,15,7.0,0.0
6898,65.0,20,20,8.0,0.0
6899,61.0,20,20,8.0,0.0
6900,58.0,20,20,8.0,0.0
6901,57.0,20,20,7.0,0.0
6902,61.0,20,20,7.0,0.0
6903,65.0,20,20,7.0,0.0
6904,64.0,20,20,8.0,0.0
6905,61.0,20,20,8.0,0.0
6906,58.0,20,20,8.0,0.0
6907,57.0,20,20,7.0,0.0
6908,61.0,20,20,7.0,0.0
6909,65.0,20,20,7.0,0.0
6910,64.0,20,20,8.0,0.0
6911,61.0,20,20,8.0,0.0
6912,58.0,20,20,8.0,0.0
6913,57.0,20,20,7.0,0.0
6914,61.0,20,20,7.0,0.0
6915,65.0,20,20,7.0,0.0
6916,64.0,20,20,8.0,0.0
6917,61.0,20,20,8.0,0.0
6918,58.0,20,20,8.0,0.0
6919,57.0,20,20,7.0,0.0
6920,61.0,20,20,7.0,0.0
6921,65.0,20,20,7.0,0.0
6922,64.0,20,20,8.0,0.0
6923,61.0,20,20,8.0,0.0
6924,58.0,60,20,8.0,0.0
6925,57.0,30,60,7.0,0.0
6926,91.0,3,30,8.0,0.0
6927,79.0,7,30,8.0,0.0
6928,91.0,20,20,7.0,0.0
6929,103.0,30,20,7.0,0.0
6930,88.0,3,30,8.0,0.0
6931,76.0,7,30,8.0,0.0
6932,88.0,20,20,7.0,0.0
6933,100.0,30,20,7.0,0.0
6934,85.0,3,30,8.0,0.0
6935,73.0,7,30,8.0,0.0
6936,85.0,20,20,7.0,0.0
6937,97.0,30,20,7.0,0.0
6938,82.0,3,30,8.0,0.0
6939,70.0,7,30,8.0,0.0
6940,82.0,20,20,7.0,0.0
6941,94.0,30,20,7.0,0.0
6942,79.0,3,30,8.0,0.0
6943,67.0,7,30,8.0,0.0
6944,79.0,20,20,7.0,0.0
6945,91.0,30,20,7.0,0.0
6946,76.0,3,30,8.0,0.0
6947,64.0,7,30,8.0,0.0
6948,76.0,20,20,7.0,0.0
6949,88.0,30,20,7.0,0.0
6950,73.0,3,30,8.0,0.0
6951,61.0,7,30,8.0,0.0
6952,73.0,20,20,7.0,0.0
6953,85.0,30,20,7.0,0.0
6954,70.0,3,30,8.0,0.0
6955,58.0,7,30,8.0,0.0
6956,70.0,20,20,7.0,0.0
6957,82.0,30,20,7.0,0.0
6958,67.0,3,30,8.0,0.0
6959,55.0,7,30,8.0,0.0
6960,67.0,20,20,7.0,0.0
6961,79.0,30,20,7.0,0.0
6962,64.0,3,30,8.0,0.0
6963,52.0,7,30,8.0,0.0
6964,64.0,20,20,7.0,0.0
6965,76.0,30,20,7.0,0.0
6966,61.0,3,30,8.0,0.0
6967,49.0,7,30,8.0,0.0
6968,61.0,20,20,7.0,0.0
6969,73.0,30,20,7.0,0.0
6970,58.0,3,30,8.0,0.0
6971,46.0,7,30,8.0,0.0
6972,58.0,20,20,7.0,0.0
6973,70.0,30,20,7.0,0.0
6974,55.0,3,30,8.0,0.0
6975,43.0,7,30,8.0,0.0
6976,55.0,20,20,7.0,0.0
6977,67.0,30,20,7.0,0.0
6978,52.0,3,30,8.0,0.0
6979,40.0,7,30,8.0,0.0
6980,52.0,20,20,7.0,0.0
6981,64.0,30,20,7.0,0.0
6982,49.0,3,30,8.0,0.0
6983,37.0,7,30,8.0,0.0
6984,49.0,20,20,7.0,0.0
6985,61.0,30,20,7.0,0.0
6986,57.0,2,30,10.0,0.0
6987,57.0,1,30,11.0,0.0
6988,57.0,1,30,6.0,0.0
6989,69.0,0,30,6.0,0.0
6990,45.0,0,30,8.0,0.0
6991,57.0,0,30,4.0,0.0
6992,45.0,0,30,4.0,0.0
6993,69.0,2,30,1.0,0.0
6994,33.0,4,30,8.0,0.0
6995,57.0,1,60,12.0,0.0
6996,45.0,5,60,13.0,0.0
6997,33.0,2,60,14.0,0.0
6998,45.0,18,60,15.0,0.0
6999,45.0,20,20,7.0,0.0
7000,57.0,7,20,7.0,0.0
7001,62.0,2,105,10.0,0.0
7002,62.0,2,105,11.0,0.0
7003,55.0,3,30,8.0,0.0
7004,74.0,11,105,1.0,0.0
7005,43.0,4,30,8.0,0.0
7006,58.0,1,60,12.0,0.0
7007,55.0,5,60,13.0,0.0
7008,43.0,20,60,14.0,0.0
7009,55.0,20,20,7.0,0.0
7010,67.0,7,20,7.0,0.0
7011,53.0,3,30,8.0,0.0
7012,41.0,4,30,8.0,0.0
7013,57.0,1,60,12.0,0.0
7014,53.0,2,60,13.0,0.0
7015,41.0,2,60,14.0,0.0
7016,53.0,5,20,7.0,0.0
7017,65.0,7,20,7.0,0.0
7018,65.0,0,8,10.0,0.0
7019,65.0,2,8,11.0,0.0
7020,52.0,1,30,8.0,0.0
7021,77.0,1,8,1.0,0.0
7022,40.0,4,30,8.0,0.0
7023,64.0,2,8,10.0,0.0
7024,55.0,1,60,12.0,0.0
7025,52.0,5,60,13.0,0.0
7026,64.0,2,8,11.0,0.0
7027,76.0,4,8,1.0,0.0
7028,40.0,17,60,14.0,0.0
7029,65.0,2,8,10.0,0.0
7030,65.0,2,8,11.0,0.0
7031,77.0,3,8,1.0,0.0
7032,52.0,5,20,7.0,0.0
7033,64.0,2,8,10.0,0.0
7034,64.0,1,8,11.0,0.0
7035,76.0,2,8,1.0,0.0
7036,62.0,2,15,10.0,0.0
7037,62.0,2,15,11.0,0.0
7038,74.0,11,15,1.0,0.0
7039,64.0,2,20,7.0,0.0
7040,64.0,0,15,10.0,0.0
7041,64.0,2,15,11.0,0.0
7042,76.0,3,15,1.0,0.0
7043,65.0,2,30,10.0,0.0
7044,65.0,1,30,11.0,0.0
7045,50.0,1,30,8.0,0.0
7046,77.0,2,30,1.0,0.0
7047,38.0,4,30,8.0,0.0
7048,53.0,1,60,12.0,0.0
7049,50.0,5,60,13.0,0.0
7050,38.0,17,60,14.0,0.0
7051,50.0,20,20,7.0,0.0
7052,62.0,7,20,7.0,0.0
7053,69.0,2,30,10.0,0.0
7054,69.0,1,30,11.0,0.0
7055,48.0,1,30,8.0,0.0
7056,81.0,2,30,1.0,0.0
7057,36.0,4,30,8.0,0.0
7058,52.0,1,60,12.0,0.0
7059,48.0,5,60,13.0,0.0
7060,36.0,20,60,14.0,0.0
7061,48.0,20,20,7.0,0.0
7062,60.0,7,20,7.0,0.0
7063,74.0,2,75,10.0,0.0
7064,74.0,2,75,11.0,0.0
7065,46.0,3,30,8.0,0.0
7066,86.0,14,75,1.0,0.0
7067,34.0,4,30,8.0,0.0
7068,50.0,1,60,12.0,0.0
7069,46.0,5,60,13.0,0.0
7070,34.0,2,60,14.0,0.0
7071,46.0,20,20,7.0,0.0
7072,58.0,7,20,7.0,0.0
7073,62.0,3,30,8.0,0.0
7074,50.0,1,30,8.0,0.0
7075,74.0,1,30,12.0,0.0
7076,62.0,2,30,13.0,0.0
7077,50.0,2,30,14.0,0.0
7078,50.0,15,60,15.0,0.0
7079,62.0,3,20,7.0,0.0
7080,74.0,1,15,10.0,0.0
7081,86.0,0,15,0.0,0.0
7082,77.0,1,15,0.0,0.0
7083,74.0,2,15,11.0,0.0
7084,74.0,0,15,1.0,0.0
7085,65.0,11,15,1.0,0.0
7086,74.0,15,20,7.0,0.0
7087,73.0,1,30,10.0,0.0
7088,85.0,0,30,0.0,0.0
7089,76.0,1,30,0.0,0.0
7090,73.0,1,30,11.0,0.0
7091,57.0,1,30,8.0,0.0
7092,64.0,0,30,1.0,0.0
7093,73.0,2,30,1.0,0.0
7094,45.0,1,30,8.0,0.0
7095,69.0,1,30,12.0,0.0
7096,57.0,2,30,13.0,0.0
7097,45.0,12,30,14.0,0.0
7098,45.0,1,60,15.0,0.0
7099,57.0,3,20,7.0,0.0
7100,74.0,1,25,10.0,0.0
7101,77.0,1,25,0.0,0.0
7102,86.0,0,25,0.0,0.0
7103,74.0,2,25,11.0,0.0
7104,74.0,0,25,1.0,0.0
7105,65.0,1,25,1.0,0.0
7106,69.0,15,20,7.0,0.0
7107,76.0,0,15,10.0,0.0
7108,79.0,1,15,0.0,0.0
7109,88.0,0,15,0.0,0.0
7110,76.0,2,15,11.0,0.0
7111,50.0,1,30,8.0,0.0
7112,62.0,0,30,6.0,0.0
7113,74.0,0,30,6.0,0.0
7114,62.0,0,30,4.0,0.0
7115,76.0,14,15,1.0,0.0
7116,67.0,0,15,1.0,0.0
7117,50.0,2,30,4.0,0.0
7118,38.0,1,30,8.0,0.0
7119,62.0,1,30,12.0,0.0
7120,50.0,2,30,13.0,0.0
7121,38.0,2,30,14.0,0.0
7122,50.0,3,20,7.0,0.0
7123,77.0,1,15,10.0,0.0
7124,89.0,0,15,0.0,0.0
7125,81.0,1,15,0.0,0.0
7126,77.0,2,15,11.0,0.0
7127,69.0,0,15,1.0,0.0
7128,77.0,11,15,1.0,0.0
7129,62.0,30,20,7.0,0.0
7130,73.0,1,30,10.0,0.0
7131,76.0,0,30,0.0,0.0
7132,85.0,1,30,0.0,0.0
7133,73.0,1,30,11.0,0.0
7134,45.0,1,30,8.0,0.0
7135,57.0,0,30,6.0,0.0
7136,69.0,0,30,6.0,0.0
7137,64.0,0,30,1.0,0.0
7138,57.0,2,30,4.0,0.0
7139,73.0,0,30,1.0,0.0
7140,33.0,1,30,8.0,0.0
7141,57.0,1,30,12.0,0.0
7142,45.0,2,30,13.0,0.0
7143,33.0,17,30,14.0,0.0
7144,45.0,3,20,7.0,0.0
7145,57.0,33,20,7.0,0.0
7146,62.0,3,30,8.0,0.0
7147,50.0,1,30,8.0,0.0
7148,74.0,1,30,12.0,0.0
7149,62.0,2,30,13.0,0.0
7150,50.0,2,30,14.0,0.0
7151,50.0,15,60,15.0,0.0
7152,62.0,3,20,7.0,0.0
7153,74.0,1,15,10.0,0.0
7154,77.0,0,15,0.0,0.0
7155,86.0,1,15,0.0,0.0
7156,74.0,2,15,11.0,0.0
7157,65.0,0,15,1.0,0.0
7158,74.0,11,15,1.0,0.0
7159,74.0,15,20,7.0,0.0
7160,73.0,1,30,10.0,0.0
7161,85.0,1,30,0.0,0.0
7162,76.0,0,30,0.0,0.0
7163,73.0,1,30,11.0,0.0
7164,57.0,1,30,8.0,0.0
7165,64.0,2,30,1.0,0.0
7166,73.0,0,30,1.0,0.0
7167,45.0,1,30,8.0,0.0
7168,69.0,1,30,12.0,0.0
7169,57.0,2,30,13.0,0.0
7170,45.0,12,30,14.0,0.0
7171,45.0,0,60,15.0,0.0
7172,57.0,3,20,7.0,0.0
7173,74.0,1,25,10.0,0.0
7174,86.0,0,25,0.0,0.0
7175,77.0,1,25,0.0,0.0
7176,74.0,2,25,11.0,0.0
7177,74.0,0,25,1.0,0.0
7178,65.0,1,25,1.0,0.0
7179,69.0,15,20,7.0,0.0
7180,76.0,1,15,10.0,0.0
7181,88.0,0,15,0.0,0.0
7182,79.0,1,15,0.0,0.0
7183,76.0,2,15,11.0,0.0
7184,74.0,0,30,6.0,0.0
7185,62.0,1,30,6.0,0.0
7186,50.0,0,30,8.0,0.0
7187,50.0,2,30,4.0,0.0
7188,62.0,0,30,4.0,0.0
7189,76.0,14,15,1.0,0.0
7190,67.0,0,15,1.0,0.0
7191,38.0,1,30,8.0,0.0
7192,62.0,1,30,12.0,0.0
7193,50.0,2,30,13.0,0.0
7194,38.0,2,30,14.0,0.0
7195,50.0,3,20,7.0,0.0
7196,77.0,1,15,10.0,0.0
7197,81.0,0,15,0.0,0.0
7198,89.0,1,15,0.0,0.0
7199,77.0,2,15,11.0,0.0
7200,69.0,11,15,1.0,0.0
7201,77.0,0,15,1.0,0.0
7202,62.0,30,20,7.0,0.0
7203,73.0,1,30,10.0,0.0
7204,76.0,1,30,0.0,0.0
7205,85.0,0,30,0.0,0.0
7206,73.0,1,30,11.0,0.0
7207,45.0,0,30,8.0,0.0
7208,69.0,0,30,6.0,0.0
7209,57.0,1,30,6.0,0.0
7210,57.0,2,30,4.0,0.0
7211,64.0,0,30,1.0,0.0
7212,73.0,0,30,1.0,0.0
7213,33.0,1,30,8.0,0.0
7214,57.0,1,30,12.0,0.0
7215,45.0,2,30,13.0,0.0
7216,33.0,17,30,14.0,0.0
7217,45.0,3,20,7.0,0.0
7218,57.0,33,20,7.0,0.0
7219,57.0,3,30,8.0,0.0
7220,45.0,4,30,8.0,0.0
7221,57.0,1,60,12.0,0.0
7222,57.0,4,60,13.0,0.0
7223,45.0,2,60,14.0,0.0
7224,57.0,1,20,7.0,0.0
7225,69.0,0,10,10.0,0.0
7226,73.0,0,10,0.0,0.0
7227,69.0,1,10,0.0,0.0
7228,69.0,2,10,11.0,0.0
7229,69.0,1,10,1.0,0.0
7230,73.0,0,10,2.0,0.0
7231,69.0,4,10,2.0,0.0
7232,71.0,1,10,10.0,0.0
7233,69.0,0,20,7.0,0.0
7234,74.0,1,10,0.0,0.0
7235,71.0,0,10,0.0,0.0
7236,57.0,2,10,3.0,0.0
7237,61.0,0,10,3.0,0.0
7238,71.0,0,10,11.0,0.0
7239,71.0,2,10,1.0,0.0
7240,45.0,1,0,15.0,0.0
7241,71.0,0,10,2.0,0.0
7242,74.0,4,10,2.0,0.0
7243,73.0,1,10,10.0,0.0
7244,76.0,0,10,0.0,0.0
7245,73.0,1,10,0.0,0.0
7246,62.0,0,10,3.0,0.0
7247,73.0,2,10,11.0,0.0
7248,59.0,0,10,3.0,0.0
7249,73.0,2,10,1.0,0.0
7250,76.0,1,10,2.0,0.0
7251,73.0,0,10,2.0,0.0
7252,74.0,1,30,10.0,0.0
7253,78.0,0,30,0.0,0.0
7254,74.0,1,30,0.0,0.0
7255,61.0,1,10,3.0,0.0
7256,74.0,1,30,11.0,0.0
7257,64.0,0,10,3.0,0.0
7258,62.0,1,60,6.0,0.0
7259,62.0,1,30,8.0,0.0
7260,50.0,3,60,4.0,0.0
7261,74.0,2,30,1.0,0.0
7262,78.0,0,30,2.0,0.0
7263,50.0,0,30,8.0,0.0
7264,74.0,4,30,2.0,0.0
7265,66.0,1,60,12.0,0.0
7266,66.0,5,60,13.0,0.0
7267,62.0,0,30,3.0,0.0
7268,66.0,18,30,3.0,0.0
7269,50.0,2,60,14.0,0.0
7270,50.0,18,60,15.0,0.0
7271,62.0,2,20,7.0,0.0
7272,74.0,3,20,7.0,0.0
7273,79.0,1,105,10.0,0.0
7274,79.0,1,105,0.0,0.0
7275,79.0,2,105,11.0,0.0
7276,60.0,3,30,8.0,0.0
7277,67.0,11,105,1.0,0.0
7278,79.0,0,105,1.0,0.0
7279,75.0,0,30,2.0,0.0
7280,48.0,0,30,8.0,0.0
7281,72.0,4,30,2.0,0.0
7282,75.0,1,60,12.0,0.0
7283,63.0,5,60,13.0,0.0
7284,60.0,18,30,3.0,0.0
7285,63.0,0,30,3.0,0.0
7286,48.0,20,60,14.0,0.0
7287,60.0,2,20,7.0,0.0
7288,72.0,7,20,7.0,0.0
7289,58.0,3,30,8.0,0.0
7290,74.0,0,30,2.0,0.0
7291,70.0,0,30,2.0,0.0
7292,46.0,4,30,8.0,0.0
7293,74.0,1,60,12.0,0.0
7294,62.0,1,60,13.0,0.0
7295,58.0,0,30,3.0,0.0
7296,62.0,3,30,3.0,0.0
7297,46.0,2,60,14.0,0.0
7298,58.0,2,20,7.0,0.0
7299,70.0,7,20,7.0,0.0
7300,82.0,0,8,10.0,0.0
7301,79.0,0,8,0.0,0.0
7302,82.0,1,8,0.0,0.0
7303,79.0,2,8,11.0,0.0
7304,57.0,1,30,8.0,0.0
7305,79.0,1,8,1.0,0.0
7306,70.0,0,8,1.0,0.0
7307,45.0,0,30,8.0,0.0
7308,72.0,0,30,2.0,0.0
7309,69.0,4,30,2.0,0.0
7310,81.0,1,8,10.0,0.0
7311,72.0,1,60,12.0,0.0
7312,60.0,5,60,13.0,0.0
7313,78.0,0,8,0.0,0.0
7314,81.0,1,8,0.0,0.0
7315,78.0,2,8,11.0,0.0
7316,78.0,0,8,1.0,0.0
7317,69.0,4,8,1.0,0.0
7318,60.0,0,30,3.0,0.0
7319,57.0,3,30,3.0,0.0
7320,45.0,17,60,14.0,0.0
7321,82.0,1,8,10.0,0.0
7322,79.0,1,8,0.0,0.0
7323,82.0,0,8,0.0,0.0
7324,79.0,2,8,11.0,0.0
7325,79.0,0,8,1.0,0.0
7326,70.0,3,8,1.0,0.0
7327,57.0,2,20,7.0,0.0
7328,81.0,1,8,10.0,0.0
7329,81.0,0,8,0.0,0.0
7330,78.0,1,8,0.0,0.0
7331,78.0,1,8,11.0,0.0
7332,69.0,2,8,1.0,0.0
7333,78.0,0,8,1.0,0.0
7334,79.0,1,15,10.0,0.0
7335,79.0,1,15,0.0,0.0
7336,76.0,0,15,0.0,0.0
7337,76.0,2,15,11.0,0.0
7338,76.0,0,15,1.0,0.0
7339,67.0,11,15,1.0,0.0
7340,69.0,1,20,7.0,0.0
7341,81.0,0,15,10.0,0.0
7342,81.0,0,15,0.0,0.0
7343,78.0,1,15,0.0,0.0
7344,78.0,2,15,11.0,0.0
7345,78.0,0,15,1.0,0.0
7346,69.0,3,15,1.0,0.0
7347,82.0,1,30,10.0,0.0
7348,79.0,1,30,0.0,0.0
7349,82.0,0,30,0.0,0.0
7350,79.0,1,30,11.0,0.0
7351,55.0,1,30,8.0,0.0
7352,79.0,2,30,1.0,0.0
7353,70.0,0,30,1.0,0.0
7354,70.0,0,30,2.0,0.0
7355,67.0,4,30,2.0,0.0
7356,43.0,0,30,8.0,0.0
7357,70.0,1,60,12.0,0.0
7358,58.0,5,60,13.0,0.0
7359,58.0,18,30,3.0,0.0
7360,55.0,0,30,3.0,0.0
7361,43.0,17,60,14.0,0.0
7362,55.0,2,20,7.0,0.0
7363,67.0,7,20,7.0,0.0
7364,86.0,1,30,10.0,0.0
7365,86.0,0,30,0.0,0.0
7366,81.0,1,30,0.0,0.0
7367,81.0,1,30,11.0,0.0
7368,53.0,1,30,8.0,0.0
7369,81.0,2,30,1.0,0.0
7370,74.0,0,30,1.0,0.0
7371,41.0,0,30,8.0,0.0
7372,65.0,4,30,2.0,0.0
7373,69.0,0,30,2.0,0.0
7374,69.0,1,60,12.0,0.0
7375,57.0,5,60,13.0,0.0
7376,53.0,0,30,3.0,0.0
7377,57.0,18,30,3.0,0.0
7378,41.0,20,60,14.0,0.0
7379,53.0,2,20,7.0,0.0
7380,65.0,7,20,7.0,0.0
7381,91.0,1,85,10.0,0.0
7382,82.0,0,85,0.0,0.0
7383,91.0,1,85,0.0,0.0
7384,79.0,2,85,11.0,0.0
7385,51.0,3,30,8.0,0.0
7386,79.0,0,85,1.0,0.0
7387,82.0,4,85,1.0,0.0
7388,39.0,0,30,8.0,0.0
7389,67.0,4,30,2.0,0.0
7390,63.0,0,30,2.0,0.0
7391,55.0,5,60,13.0,0.0
7392,51.0,18,30,3.0,0.0
7393,55.0,0,30,3.0,0.0
7394,39.0,12,60,14.0,0.0
7395,51.0,2,20,7.0,0.0
7396,63.0,7,20,7.0,0.0
7397,50.0,3,30,8.0,0.0
7398,38.0,4,30,8.0,0.0
7399,67.0,0,30,2.0,0.0
7400,62.0,0,30,2.0,0.0
7401,67.0,1,0,12.0,0.0
7402,50.0,5,60,13.0,0.0
7403,50.0,13,30,3.0,0.0
7404,62.0,0,30,3.0,0.0
7405,38.0,2,60,14.0,0.0
7406,50.0,11,60,15.0,0.0
7407,50.0,2,20,7.0,0.0
7408,89.0,1,25,10.0,0.0
7409,89.0,0,25,0.0,0.0
7410,86.0,1,25,0.0,0.0
7411,77.0,2,25,11.0,0.0
7412,74.0,1,25,1.0,0.0
7413,62.0,7,20,7.0,0.0
7414,88.0,2,30,10.0,0.0
7415,79.0,0,25,0.0,0.0
7416,88.0,3,25,0.0,0.0
7417,76.0,1,30,11.0,0.0
7418,49.0,3,30,8.0,0.0
7419,76.0,1,55,1.0,0.0
7420,67.0,1,25,1.0,0.0
7421,67.0,4,30,2.0,0.0
7422,37.0,0,30,8.0,0.0
7423,64.0,0,30,2.0,0.0
7424,67.0,1,0,12.0,0.0
7425,57.0,0,60,12.0,0.0
7426,49.0,5,60,13.0,0.0
7427,64.0,12,30,3.0,0.0
7428,49.0,0,30,3.0,0.0
7429,37.0,2,60,14.0,0.0
7430,45.0,1,60,15.0,0.0
7431,49.0,2,20,7.0,0.0
7432,89.0,1,25,10.0,0.0
7433,89.0,1,25,0.0,0.0
7434,81.0,0,25,0.0,0.0
7435,77.0,2,25,11.0,0.0
7436,69.0,1,20,1.0,0.0
7437,61.0,7,20,7.0,0.0
7438,91.0,0,15,10.0,0.0
7439,83.0,1,15,0.0,0.0
7440,91.0,0,15,0.0,0.0
7441,79.0,2,15,11.0,0.0
7442,45.0,0,30,8.0,0.0
7443,69.0,0,30,6.0,0.0
7444,57.0,1,30,6.0,0.0
7445,79.0,0,15,1.0,0.0
7446,71.0,14,15,1.0,0.0
7447,57.0,2,30,4.0,0.0
7448,67.0,0,30,2.0,0.0
7449,33.0,0,30,8.0,0.0
7450,76.0,4,30,2.0,0.0
7451,69.0,0,60,12.0,0.0
7452,45.0,5,60,13.0,0.0
7453,45.0,3,30,3.0,0.0
7454,57.0,0,30,3.0,0.0
7455,33.0,2,60,14.0,0.0
7456,45.0,2,20,7.0,0.0
7457,93.0,1,15,10.0,0.0
7458,85.0,1,15,0.0,0.0
7459,93.0,0,15,0.0,0.0
7460,81.0,2,15,11.0,0.0
7461,73.0,0,15,1.0,0.0
7462,81.0,11,15,1.0,0.0
7463,57.0,7,20,7.0,0.0
7464,89.0,1,15,10.0,0.0
7465,89.0,0,15,0.0,0.0
7466,86.0,1,15,0.0,0.0
7467,77.0,2,15,11.0,0.0
7468,74.0,0,30,6.0,0.0
7469,62.0,0,30,6.0,0.0
7470,50.0,1,30,8.0,0.0
7471,77.0,14,15,1.0,0.0
7472,50.0,2,30,4.0,0.0
7473,74.0,0,15,1.0,0.0
7474,62.0,0,30,4.0,0.0
7475,38.0,4,30,8.0,0.0
7476,69.0,0,30,2.0,0.0
7477,65.0,0,30,2.0,0.0
7478,57.0,1,0,12.0,0.0
7479,50.0,5,60,13.0,0.0
7480,50.0,18,30,3.0,0.0
7481,65.0,0,30,3.0,0.0
7482,38.0,20,60,14.0,0.0
7483,50.0,2,20,7.0,0.0
7484,62.0,7,20,7.0,0.0
7485,53.0,3,30,8.0,0.0
7486,69.0,0,30,2.0,0.0
7487,74.0,0,30,2.0,0.0
7488,41.0,4,30,8.0,0.0
7489,69.0,0,0,12.0,0.0
7490,57.0,0,60,12.0,0.0
7491,53.0,5,60,13.0,0.0
7492,57.0,18,30,3.0,0.0
7493,53.0,0,30,3.0,0.0
7494,41.0,2,60,14.0,0.0
7495,53.0,2,20,7.0,0.0
7496,86.0,1,30,10.0,0.0
7497,86.0,1,30,0.0,0.0
7498,74.0,2,30,11.0,0.0
7499,74.0,3,30,1.0,0.0
7500,65.0,0,20,7.0,0.0
7501,52.0,1,30,8.0,0.0
7502,83.0,0,30,10.0,0.0
7503,76.0,1,30,0.0,0.0
7504,83.0,0,30,0.0,0.0
7505,71.0,1,30,11.0,0.0
7506,40.0,1,30,8.0,0.0
7507,71.0,2,30,1.0,0.0
7508,64.0,0,30,1.0,0.0
7509,69.0,4,30,2.0,0.0
7510,71.0,0,30,2.0,0.0
7511,59.0,0,60,12.0,0.0
7512,69.0,1,60,12.0,0.0
7513,52.0,5,60,13.0,0.0
7514,59.0,0,30,3.0,0.0
7515,52.0,13,30,3.0,0.0
7516,40.0,2,60,14.0,0.0
7517,50.0,15,0,15.0,0.0
7518,52.0,2,20,7.0,0.0
7519,85.0,1,25,10.0,0.0
7520,85.0,1,25,0.0,0.0
7521,81.0,0,25,0.0,0.0
7522,73.0,2,25,11.0,0.0
7523,69.0,1,25,1.0,0.0
7524,73.0,0,25,1.0,0.0
7525,64.0,7,20,7.0,0.0
7526,86.0,0,15,10.0,0.0
7527,40.0,3,30,8.0,0.0
7528,86.0,1,15,0.0,0.0
7529,83.0,0,15,0.0,0.0
7530,74.0,2,15,11.0,0.0
7531,28.0,1,30,8.0,0.0
7532,71.0,11,15,1.0,0.0
7533,64.0,2,30,4.0,0.0
7534,74.0,0,15,1.0,0.0
7535,71.0,4,30,2.0,0.0
7536,68.0,0,30,2.0,0.0
7537,59.0,1,60,12.0,0.0
7538,68.0,0,60,12.0,0.0
7539,40.0,5,60,13.0,0.0
7540,59.0,0,30,3.0,0.0
7541,52.0,3,30,3.0,0.0
7542,28.0,2,60,14.0,0.0
7543,52.0,2,20,7.0,0.0
7544,88.0,1,15,10.0,0.0
7545,88.0,1,15,0.0,0.0
7546,80.0,0,15,0.0,0.0
7547,76.0,2,15,11.0,0.0
7548,68.0,11,15,1.0,0.0
7549,76.0,0,15,1.0,0.0
7550,64.0,7,20,7.0,0.0
7551,57.0,7,60,7.0,0.0
7552,45.0,3,30,8.0,0.0
7553,85.0,1,15,10.0,0.0
7554,85.0,0,15,0.0,0.0
7555,81.0,1,15,0.0,0.0
7556,73.0,2,15,11.0,0.0
7557,33.0,0,30,8.0,0.0
7558,57.0,1,30,6.0,0.0
7559,69.0,0,30,6.0,0.0
7560,69.0,2,30,4.0,0.0
7561,73.0,11,15,1.0,0.0
7562,57.0,0,30,4.0,0.0
7563,69.0,0,15,1.0,0.0
7564,69.0,0,30,2.0,0.0
7565,73.0,6,30,2.0,0.0
7566,57.0,1,60,12.0,0.0
7567,69.0,0,60,12.0,0.0
7568,45.0,2,60,13.0,0.0
7569,61.0,18,30,3.0,0.0
7570,57.0,0,30,3.0,0.0
7571,33.0,2,60,14.0,0.0
7572,45.0,5,60,15.0,0.0
7573,69.0,3,10,7.0,0.0
7574,70.0,10,10,7.0,0.0
7575,69.0,10,10,7.0,0.0
7576,70.0,10,10,7.0,0.0
7577,69.0,10,10,7.0,0.0
7578,70.0,28,10,7.0,0.0
7579,82.0,1,30,7.0,0.0
7580,79.0,27,30,7.0,0.0
7581,49.0,1,22,8.0,0.0
7582,37.0,15,60,14.0,0.0
7583,57.0,16,22,8.0,0.0
7584,81.0,4,30,7.0,0.0
7585,77.0,26,30,7.0,0.0
7586,50.0,0,22,8.0,0.0
7587,38.0,14,60,14.0,0.0
7588,57.0,15,22,8.0,0.0
7589,79.0,2,30,7.0,0.0
7590,76.0,27,30,7.0,0.0
7591,52.0,2,22,8.0,0.0
7592,40.0,14,60,14.0,0.0
7593,57.0,15,22,8.0,0.0
7594,77.0,2,30,7.0,0.0
7595,74.0,27,30,7.0,0.0
7596,53.0,2,22,8.0,0.0
7597,41.0,13,60,14.0,0.0
7598,57.0,15,22,8.0,0.0
7599,76.0,1,30,7.0,0.0
7600,73.0,27,30,7.0,0.0
7601,55.0,4,22,8.0,0.0
7602,43.0,4,60,14.0,0.0
7603,57.0,15,22,8.0,0.0
7604,69.0,13,120,7.0,0.0
7605,53.0,5,22,8.0,0.0
7606,74.0,8,8,7.0,0.0
7607,41.0,13,60,14.0,0.0
7608,76.0,1,8,7.0,0.0
7609,74.0,15,8,7.0,0.0
7610,73.0,10,15,7.0,0.0
7611,57.0,6,22,8.0,0.0
7612,74.0,11,15,7.0,0.0
7613,73.0,4,55,7.0,0.0
7614,52.0,27,22,8.0,0.0
7615,40.0,15,60,14.0,0.0
7616,64.0,3,22,8.0,0.0
7617,76.0,0,120,7.0,0.0
7618,73.0,0,60,2.0,0.0
7619,57.0,30,22,8.0,0.0
7620,69.0,1,60,2.0,0.0
7621,61.0,1,60,12.0,0.0
7622,57.0,4,60,13.0,0.0
7623,57.0,16,60,3.0,0.0
7624,64.0,8,22,8.0,0.0
7625,64.0,2,180,4.0,0.0
7626,56.0,30,22,8.0,0.0
7627,71.0,0,120,2.0,0.0
7628,64.0,1,120,2.0,0.0
7629,59.0,1,120,12.0,0.0
7630,56.0,7,60,13.0,0.0
7631,56.0,15,120,3.0,0.0
7632,64.0,10,22,8.0,0.0
7633,52.0,4,22,8.0,0.0
7634,74.0,8,8,7.0,0.0
7635,52.0,4,60,13.0,0.0
7636,76.0,3,8,7.0,0.0
7637,74.0,17,8,7.0,0.0
7638,73.0,10,15,7.0,0.0
7639,64.0,5,22,8.0,0.0
7640,74.0,4,15,7.0,0.0
7641,73.0,5,55,7.0,0.0
7642,57.0,26,22,8.0,0.0
7643,73.0,0,60,2.0,0.0
7644,69.0,1,60,2.0,0.0
7645,57.0,1,60,12.0,0.0
7646,57.0,4,60,13.0,0.0
7647,57.0,15,60,3.0,0.0
7648,64.0,6,22,8.0,0.0
7649,76.0,13,120,7.0,0.0
7650,55.0,29,22,8.0,0.0
7651,43.0,13,60,14.0,0.0
7652,64.0,17,22,8.0,0.0
7653,54.0,32,22,8.0,0.0
7654,64.0,9,180,4.0,0.0
7655,42.0,2,60,14.0,0.0
7656,64.0,2,22,8.0,0.0
7657,59.0,5,22,8.0,0.0
7658,74.0,9,8,7.0,0.0
7659,47.0,14,60,14.0,0.0
7660,76.0,2,8,7.0,0.0
7661,74.0,16,8,7.0,0.0
7662,73.0,10,15,7.0,0.0
7663,64.0,4,22,8.0,0.0
7664,76.0,12,15,7.0,0.0
7665,73.0,3,55,7.0,0.0
7666,58.0,28,22,8.0,0.0
7667,46.0,14,60,14.0,0.0
7668,64.0,6,22,8.0,0.0
7669,76.0,3,120,7.0,0.0
7670,73.0,1,60,0.0,0.0
7671,61.0,5,60,11.0,0.0
7672,55.0,31,22,8.0,0.0
7673,61.0,1,60,12.0,0.0
7674,55.0,4,60,13.0,0.0
7675,55.0,16,60,3.0,0.0
7676,67.0,3,22,8.0,0.0
7677,72.0,1,60,0.0,0.0
7678,60.0,6,60,11.0,0.0
7679,65.0,3,120,4.0,0.0
7680,56.0,29,22,8.0,0.0
7681,66.0,1,120,12.0,0.0
7682,56.0,4,60,13.0,0.0
7683,56.0,3,60,3.0,0.0
7684,68.0,1,22,8.0,0.0
7685,75.0,1,60,0.0,0.0
7686,63.0,2,60,11.0,0.0
7687,60.0,3,22,8.0,0.0
7688,75.0,8,8,7.0,0.0
7689,60.0,4,60,13.0,0.0
7690,60.0,16,60,3.0,0.0
7691,76.0,5,8,7.0,0.0
7692,75.0,15,8,7.0,0.0
7693,73.0,10,15,7.0,0.0
7694,68.0,4,22,8.0,0.0
7695,75.0,1,15,7.0,0.0
7696,73.0,2,55,7.0,0.0
7697,68.0,1,60,0.0,0.0
7698,64.0,5,60,11.0,0.0
7699,64.0,2,55,4.0,0.0
7700,61.0,27,22,8.0,0.0
7701,64.0,1,60,12.0,0.0
7702,61.0,4,60,13.0,0.0
7703,61.0,15,60,3.0,0.0
7704,68.0,2,22,8.0,0.0
7705,76.0,5,85,7.0,0.0
7706,64.0,6,1500,4.0,0.0
7707,56.0,31,22,8.0,0.0
7708,44.0,10,60,14.0,0.0
7709,68.0,15,22,8.0,0.0
7710,61.0,30,22,8.0,0.0
7711,49.0,6,60,12.0,0.0
7712,49.0,15,60,14.0,0.0
7713,73.0,7,30,7.0,0.0
7714,68.0,2,22,8.0,0.0
7715,76.0,1,85,7.0,0.0
7716,56.0,29,22,8.0,0.0
7717,56.0,17,60,13.0,0.0
7718,68.0,11,22,8.0,0.0
7719,61.0,6,60,11.0,0.0
7720,61.0,30,22,8.0,0.0
7721,61.0,20,60,13.0,0.0
7722,73.0,3,30,7.0,0.0
7723,68.0,3,22,8.0,0.0
7724,76.0,5,85,7.0,0.0
7725,56.0,28,22,8.0,0.0
7726,44.0,10,60,14.0,0.0
7727,68.0,17,22,8.0,0.0
7728,61.0,29,22,8.0,0.0
7729,49.0,6,60,12.0,0.0
7730,49.0,15,60,14.0,0.0
7731,73.0,9,30,7.0,0.0
7732,68.0,1,22,8.0,0.0
7733,76.0,12,80,7.0,0.0
7734,56.0,40,22,8.0,0.0
7735,56.0,11,60,13.0,0.0
7736,68.0,6,55,8.0,0.0
7737,61.0,1,60,11.0,0.0
7738,68.0,10,60,13.0,0.0
7739,72.0,20,20,7.0,0.0
7740,61.0,0,30,8.0,0.0
7741,76.0,3,20,7.0,0.0
7742,88.0,12,12,7.0,0.0
7743,64.0,15,22,8.0,0.0
7744,72.0,22,20,7.0,0.0
7745,61.0,7,30,8.0,0.0
7746,76.0,2,20,7.0,0.0
7747,88.0,13,12,7.0,0.0
7748,64.0,17,22,8.0,0.0
7749,68.0,19,20,7.0,0.0
7750,56.0,7,30,8.0,0.0
7751,73.0,4,20,7.0,0.0
7752,85.0,14,12,7.0,0.0
7753,61.0,14,22,8.0,0.0
7754,68.0,23,20,7.0,0.0
7755,56.0,7,30,8.0,0.0
7756,73.0,2,20,7.0,0.0
7757,85.0,12,12,7.0,0.0
7758,61.0,16,22,8.0,0.0
7759,64.0,22,20,7.0,0.0
7760,52.0,11,30,8.0,0.0
7761,67.0,1,20,7.0,0.0
7762,56.0,16,22,8.0,0.0
7763,80.0,10,12,7.0,0.0
7764,64.0,21,20,7.0,0.0
7765,52.0,10,30,8.0,0.0
7766,67.0,1,20,7.0,0.0
7767,80.0,14,12,7.0,0.0
7768,56.0,17,22,8.0,0.0
7769,61.0,19,20,7.0,0.0
7770,49.0,11,30,8.0,0.0
7771,64.0,2,20,7.0,0.0
7772,52.0,18,22,8.0,0.0
7773,76.0,10,12,7.0,0.0
7774,61.0,19,20,7.0,0.0
7775,49.0,8,30,8.0,0.0
7776,64.0,3,20,7.0,0.0
7777,76.0,12,12,7.0,0.0
7778,52.0,18,22,8.0,0.0
7779,56.0,20,20,7.0,0.0
7780,44.0,10,30,8.0,0.0
7781,61.0,2,20,7.0,0.0
7782,73.0,11,12,7.0,0.0
7783,49.0,16,22,8.0,0.0
7784,57.0,19,20,7.0,0.0
7785,45.0,12,30,8.0,0.0
7786,61.0,2,20,7.0,0.0
7787,49.0,17,22,8.0,0.0
7788,73.0,9,12,7.0,0.0
7789,56.0,21,20,7.0,0.0
7790,44.0,0,30,8.0,0.0
7791,61.0,10,20,7.0,0.0
7792,73.0,14,12,7.0,0.0
7793,49.0,15,22,8.0,0.0
7794,55.0,21,20,7.0,0.0
7795,43.0,0,30,8.0,0.0
7796,61.0,13,20,7.0,0.0
7797,73.0,11,12,7.0,0.0
7798,49.0,15,22,8.0,0.0
7799,56.0,21,20,7.0,0.0
7800,44.0,0,30,8.0,0.0
7801,61.0,11,20,7.0,0.0
7802,73.0,14,12,7.0,0.0
7803,49.0,15,22,8.0,0.0
7804,57.0,20,20,7.0,0.0
7805,45.0,0,30,8.0,0.0
7806,61.0,12,20,7.0,0.0
7807,73.0,13,12,7.0,0.0
7808,49.0,15,22,8.0,0.0
7809,56.0,18,20,7.0,0.0
7810,44.0,11,30,8.0,0.0
7811,61.0,2,20,7.0,0.0
7812,73.0,12,12,7.0,0.0
7813,49.0,17,22,8.0,0.0
7814,55.0,21,20,7.0,0.0
7815,43.0,9,30,8.0,0.0
7816,61.0,0,20,7.0,0.0
7817,73.0,15,12,7.0,0.0
7818,49.0,14,22,8.0,0.0
7819,56.0,21,20,7.0,0.0
7820,44.0,8,30,8.0,0.0
7821,61.0,2,20,7.0,0.0
7822,73.0,14,12,7.0,0.0
7823,49.0,14,22,8.0,0.0
7824,57.0,22,20,7.0,0.0
7825,45.0,4,30,8.0,0.0
7826,61.0,1,20,7.0,0.0
7827,73.0,13,12,7.0,0.0
7828,49.0,17,22,8.0,0.0
7829,57.0,0,960,4.0,0.0
7830,64.0,0,960,4.0,0.0
7831,61.0,17,20,7.0,0.0
7832,49.0,12,30,8.0,0.0
7833,64.0,3,20,7.0,0.0
7834,76.0,11,12,7.0,0.0
7835,52.0,14,22,8.0,0.0
7836,64.0,23,20,7.0,0.0
7837,52.0,8,30,8.0,0.0
7838,67.0,1,20,7.0,0.0
7839,79.0,13,12,7.0,0.0
7840,55.0,17,22,8.0,0.0
7841,67.0,19,20,7.0,0.0
7842,55.0,12,30,8.0,0.0
7843,73.0,1,20,7.0,0.0
7844,85.0,12,12,7.0,0.0
7845,61.0,16,22,8.0,0.0
7846,73.0,18,20,7.0,0.0
7847,61.0,11,30,8.0,0.0
7848,76.0,4,20,7.0,0.0
7849,64.0,18,22,8.0,0.0
7850,88.0,9,12,7.0,0.0
7851,76.0,19,20,7.0,0.0
7852,64.0,13,30,8.0,0.0
7853,79.0,1,20,7.0,0.0
7854,67.0,18,22,8.0,0.0
7855,91.0,9,12,7.0,0.0
7856,79.0,19,20,7.0,0.0
7857,67.0,10,30,8.0,0.0
7858,85.0,4,20,7.0,0.0
7859,97.0,12,12,7.0,0.0
7860,73.0,14,22,8.0,0.0
7861,85.0,22,20,7.0,0.0
7862,73.0,10,30,8.0,0.0
7863,88.0,1,20,7.0,0.0
7864,100.0,12,12,7.0,0.0
7865,76.0,14,22,8.0,0.0
7866,88.0,22,20,7.0,0.0
7867,76.0,1,30,8.0,0.0
7868,91.0,19,20,7.0,0.0
7869,103.0,4,20,7.0,0.0
7870,79.0,14,20,8.0,0.0
7871,101.0,4,20,7.0,0.0
7872,77.0,18,20,8.0,0.0
7873,100.0,4,20,7.0,0.0
7874,76.0,16,20,8.0,0.0
7875,98.0,2,20,7.0,0.0
7876,74.0,19,20,8.0,0.0
7877,97.0,4,20,7.0,0.0
7878,73.0,15,20,8.0,0.0
7879,94.0,3,20,7.0,0.0
7880,70.0,18,20,8.0,0.0
7881,93.0,4,20,7.0,0.0
7882,69.0,13,20,8.0,0.0
7883,91.0,5,20,7.0,0.0
7884,67.0,16,20,8.0,0.0
7885,89.0,4,20,7.0,0.0
7886,65.0,16,20,8.0,0.0
7887,88.0,3,20,7.0,0.0
7888,64.0,16,20,8.0,0.0
7889,86.0,4,20,7.0,0.0
7890,62.0,19,20,8.0,0.0
7891,85.0,4,20,7.0,0.0
7892,61.0,13,20,8.0,0.0
7893,82.0,5,18,7.0,0.0
7894,58.0,11,18,8.0,0.0
7895,81.0,3,18,7.0,0.0
7896,57.0,14,18,8.0,0.0
7897,79.0,4,18,7.0,0.0
7898,55.0,17,18,8.0,0.0
7899,77.0,4,18,7.0,0.0
7900,53.0,11,18,8.0,0.0
7901,76.0,4,18,7.0,0.0
7902,52.0,16,18,8.0,0.0
7903,74.0,2,18,7.0,0.0
7904,50.0,13,18,8.0,0.0
7905,73.0,4,18,7.0,0.0
7906,49.0,10,18,8.0,0.0
7907,70.0,2,15,7.0,0.0
7908,46.0,12,15,8.0,0.0
7909,69.0,2,15,7.0,0.0
7910,45.0,12,15,8.0,0.0
7911,67.0,3,15,7.0,0.0
7912,43.0,13,15,8.0,0.0
7913,65.0,2,15,7.0,0.0
7914,41.0,12,15,8.0,0.0
7915,64.0,6,15,7.0,0.0
7916,40.0,10,15,8.0,0.0
7917,62.0,2,15,7.0,0.0
7918,38.0,13,15,8.0,0.0
7919,61.0,4,15,7.0,0.0
7920,37.0,11,15,8.0,0.0
7921,58.0,5,15,7.0,0.0
7922,34.0,23,15,8.0,0.0
7923,57.0,4,60,7.0,0.0
7924,57.0,2,30,10.0,0.0
7925,57.0,1,30,11.0,0.0
7926,57.0,0,30,6.0,0.0
7927,57.0,11,60,4.0,0.0
7928,45.0,0,60,4.0,0.0
7929,33.0,0,60,8.0,0.0
7930,57.0,1,20,12.0,0.0
7931,57.0,2,20,13.0,0.0
7932,45.0,24,20,14.0,0.0
7933,45.0,12,60,15.0,0.0
7934,55.0,1,20,12.0,0.0
7935,55.0,1,20,13.0,0.0
7936,43.0,1,20,14.0,0.0
7937,62.0,2,105,10.0,0.0
7938,62.0,10,105,11.0,0.0
7939,53.0,1,20,12.0,0.0
7940,53.0,5,20,13.0,0.0
7941,41.0,24,20,14.0,0.0
7942,52.0,1,20,12.0,0.0
7943,52.0,5,20,13.0,0.0
7944,40.0,24,20,14.0,0.0
7945,57.0,12,30,6.0,0.0
7946,53.0,1,20,12.0,0.0
7947,53.0,5,20,13.0,0.0
7948,41.0,0,20,14.0,0.0
7949,45.0,2,60,15.0,0.0
7950,57.0,1,20,12.0,0.0
7951,57.0,5,20,13.0,0.0
7952,45.0,5,20,14.0,0.0
7953,65.0,2,8,10.0,0.0
7954,65.0,5,8,11.0,0.0
7955,57.0,12,30,6.0,0.0
7956,55.0,1,20,12.0,0.0
7957,64.0,0,8,10.0,0.0
7958,55.0,2,20,13.0,0.0
7959,64.0,6,8,11.0,0.0
7960,43.0,0,20,14.0,0.0
7961,65.0,2,8,10.0,0.0
7962,45.0,12,60,15.0,0.0
7963,65.0,2,8,11.0,0.0
7964,64.0,2,8,10.0,0.0
7965,64.0,1,8,11.0,0.0
7966,62.0,2,15,10.0,0.0
7967,62.0,10,15,11.0,0.0
7968,52.0,1,20,12.0,0.0
7969,52.0,2,20,13.0,0.0
7970,40.0,12,20,14.0,0.0
7971,64.0,2,15,10.0,0.0
7972,64.0,1,15,11.0,0.0
7973,65.0,2,30,10.0,0.0
7974,65.0,1,30,11.0,0.0
7975,57.0,24,30,6.0,0.0
7976,50.0,1,20,12.0,0.0
7977,50.0,2,20,13.0,0.0
7978,38.0,0,20,14.0,0.0
7979,45.0,12,60,15.0,0.0
7980,53.0,1,20,12.0,0.0
7981,53.0,5,20,13.0,0.0
7982,41.0,12,20,14.0,0.0
7983,69.0,2,30,10.0,0.0
7984,69.0,1,30,11.0,0.0
7985,57.0,24,30,6.0,0.0
7986,52.0,1,20,12.0,0.0
7987,52.0,2,20,13.0,0.0
7988,40.0,0,20,14.0,0.0
7989,45.0,12,60,15.0,0.0
7990,48.0,1,20,12.0,0.0
7991,48.0,5,20,13.0,0.0
7992,36.0,12,20,14.0,0.0
7993,74.0,0,75,10.0,0.0
7994,74.0,10,75,11.0,0.0
7995,62.0,0,30,6.0,0.0
7996,58.0,1,20,12.0,0.0
7997,46.0,5,20,13.0,0.0
7998,34.0,24,20,14.0,0.0
7999,50.0,2,60,15.0,0.0
8000,50.0,1,20,12.0,0.0
8001,50.0,5,20,13.0,0.0
8002,38.0,12,20,14.0,0.0
8003,57.0,1,20,12.0,0.0
8004,45.0,5,20,13.0,0.0
8005,33.0,12,20,14.0,0.0
8006,74.0,2,15,10.0,0.0
8007,74.0,10,15,11.0,0.0
8008,50.0,1,20,12.0,0.0
8009,50.0,5,20,13.0,0.0
8010,38.0,24,20,14.0,0.0
8011,73.0,2,30,10.0,0.0
8012,73.0,1,30,11.0,0.0
8013,62.0,22,30,6.0,0.0
8014,55.0,1,20,12.0,0.0
8015,43.0,2,20,13.0,0.0
8016,31.0,12,50,14.0,0.0
8017,50.0,2,60,15.0,0.0
8018,74.0,2,25,10.0,0.0
8019,74.0,0,25,11.0,0.0
8020,50.0,1,20,12.0,0.0
8021,50.0,5,20,13.0,0.0
8022,76.0,0,15,10.0,0.0
8023,76.0,10,15,11.0,0.0
8024,62.0,12,30,6.0,0.0
8025,53.0,1,20,12.0,0.0
8026,41.0,5,20,13.0,0.0
8027,29.0,12,50,14.0,0.0
8028,50.0,12,60,15.0,0.0
8029,77.0,2,15,10.0,0.0
8030,77.0,10,15,11.0,0.0
8031,50.0,1,20,12.0,0.0
8032,50.0,5,20,13.0,0.0
8033,73.0,2,30,10.0,0.0
8034,73.0,1,30,11.0,0.0
8035,57.0,24,30,6.0,0.0
8036,57.0,1,20,12.0,0.0
8037,45.0,2,20,13.0,0.0
8038,33.0,12,50,14.0,0.0
8039,45.0,12,60,15.0,0.0
8040,57.0,1,20,12.0,0.0
8041,57.0,5,20,13.0,0.0
8042,58.0,1,20,12.0,0.0
8043,58.0,17,20,13.0,0.0
8044,74.0,2,15,10.0,0.0
8045,74.0,10,15,11.0,0.0
8046,57.0,1,20,12.0,0.0
8047,57.0,29,20,13.0,0.0
8048,73.0,2,30,10.0,0.0
8049,73.0,1,30,11.0,0.0
8050,57.0,0,30,6.0,0.0
8051,69.0,22,30,6.0,0.0
8052,57.0,1,20,12.0,0.0
8053,41.0,2,20,13.0,0.0
8054,41.0,12,50,14.0,0.0
8055,74.0,2,25,10.0,0.0
8056,74.0,1,25,11.0,0.0
8057,53.0,0,20,12.0,0.0
8058,53.0,5,20,13.0,0.0
8059,76.0,2,15,10.0,0.0
8060,76.0,10,15,11.0,0.0
8061,69.0,12,30,6.0,0.0
8062,57.0,0,30,6.0,0.0
8063,57.0,1,20,12.0,0.0
8064,38.0,5,20,13.0,0.0
8065,38.0,12,50,14.0,0.0
8066,50.0,0,0,15.0,0.0
8067,77.0,2,15,10.0,0.0
8068,77.0,10,15,11.0,0.0
8069,50.0,1,20,12.0,0.0
8070,50.0,5,20,13.0,0.0
8071,73.0,2,30,10.0,0.0
8072,73.0,1,30,11.0,0.0
8073,57.0,24,30,6.0,0.0
8074,57.0,1,20,12.0,0.0
8075,45.0,2,20,13.0,0.0
8076,45.0,12,50,14.0,0.0
8077,45.0,12,60,15.0,0.0
8078,57.0,1,20,12.0,0.0
8079,57.0,5,20,13.0,0.0
8080,67.0,1,20,12.0,0.0
8081,55.0,9,20,13.0,0.0
8082,69.0,4,10,7.0,0.0
8083,57.0,6,10,8.0,0.0
8084,71.0,6,10,7.0,0.0
8085,52.0,0,20,13.0,0.0
8086,59.0,5,10,8.0,0.0
8087,73.0,6,10,7.0,0.0
8088,61.0,13,10,8.0,0.0
8089,74.0,2,30,7.0,0.0
8090,66.0,5,30,7.0,0.0
8091,62.0,1,15,8.0,0.0
8092,74.0,0,60,6.0,0.0
8093,62.0,4,60,6.0,0.0
8094,50.0,9,15,8.0,0.0
8095,50.0,0,30,4.0,0.0
8096,62.0,13,30,4.0,0.0
8097,57.0,1,60,12.0,0.0
8098,66.0,0,60,12.0,0.0
8099,50.0,5,60,13.0,0.0
8100,38.0,2,60,14.0,0.0
8101,50.0,1,60,15.0,0.0
8102,48.0,2,15,8.0,0.0
8103,60.0,14,15,8.0,0.0
8104,74.0,1,120,7.0,0.0
8105,67.0,2,120,7.0,0.0
8106,79.0,0,120,7.0,0.0
8107,58.0,2,15,8.0,0.0
8108,70.0,15,120,7.0,0.0
8109,46.0,28,15,8.0,0.0
8110,57.0,2,15,8.0,0.0
8111,45.0,29,15,8.0,0.0
8112,58.0,1,15,8.0,0.0
8113,46.0,16,15,8.0,0.0
8114,50.0,0,30,4.0,0.0
8115,62.0,13,30,4.0,0.0
8116,62.0,1,15,8.0,0.0
8117,50.0,11,15,8.0,0.0
8118,81.0,1,60,7.0,0.0
8119,69.0,16,60,7.0,0.0
8120,74.0,16,120,7.0,0.0
8121,48.0,2,15,8.0,0.0
8122,62.0,12,30,4.0,0.0
8123,60.0,15,15,8.0,0.0
8124,50.0,0,30,4.0,0.0
8125,45.0,2,15,8.0,0.0
8126,57.0,11,15,8.0,0.0
8127,82.0,1,30,7.0,0.0
8128,70.0,3,30,7.0,0.0
8129,43.0,2,15,8.0,0.0
8130,55.0,12,15,8.0,0.0
8131,50.0,0,30,4.0,0.0
8132,62.0,13,30,4.0,0.0
8133,58.0,2,15,8.0,0.0
8134,46.0,12,15,8.0,0.0
8135,81.0,2,30,7.0,0.0
8136,86.0,0,30,7.0,0.0
8137,74.0,3,30,7.0,0.0
8138,57.0,1,15,8.0,0.0
8139,45.0,11,15,8.0,0.0
8140,50.0,13,30,4.0,0.0
8141,62.0,0,30,4.0,0.0
8142,41.0,2,15,8.0,0.0
8143,53.0,28,15,8.0,0.0
8144,91.0,4,90,7.0,0.0
8145,79.0,0,90,7.0,0.0
8146,82.0,15,90,7.0,0.0
8147,51.0,1,15,8.0,0.0
8148,39.0,16,15,8.0,0.0
8149,67.0,12,30,4.0,0.0
8150,55.0,2,15,8.0,0.0
8151,43.0,29,15,8.0,0.0
8152,50.0,1,15,8.0,0.0
8153,38.0,9,15,8.0,0.0
8154,89.0,3,30,7.0,0.0
8155,53.0,12,15,8.0,0.0
8156,41.0,0,15,8.0,0.0
8157,82.0,0,30,7.0,0.0
8158,77.0,17,30,7.0,0.0
8159,88.0,1,30,7.0,0.0
8160,82.0,1,30,7.0,0.0
8161,76.0,1,30,7.0,0.0
8162,49.0,12,15,8.0,0.0
8163,57.0,1,30,6.0,0.0
8164,69.0,0,30,6.0,0.0
8165,37.0,0,15,8.0,0.0
8166,57.0,12,30,4.0,0.0
8167,45.0,1,60,15.0,0.0
8168,89.0,2,25,7.0,0.0
8169,77.0,19,25,7.0,0.0
8170,52.0,8,15,8.0,0.0
8171,40.0,0,15,8.0,0.0
8172,91.0,2,30,7.0,0.0
8173,79.0,3,30,7.0,0.0
8174,33.0,1,15,8.0,0.0
8175,45.0,11,15,8.0,0.0
8176,69.0,1,30,6.0,0.0
8177,57.0,0,30,6.0,0.0
8178,57.0,12,30,4.0,0.0
8179,45.0,3,60,15.0,0.0
8180,93.0,5,30,7.0,0.0
8181,49.0,2,15,8.0,0.0
8182,37.0,9,15,8.0,0.0
8183,89.0,2,60,7.0,0.0
8184,77.0,2,60,7.0,0.0
8185,81.0,13,1,7.0,0.0
8186,62.0,0,30,6.0,0.0
8187,74.0,1,30,6.0,0.0
8188,38.0,15,15,8.0,0.0
8189,62.0,14,30,4.0,0.0
8190,50.0,1,60,15.0,0.0
8191,50.0,9,15,8.0,0.0
8192,41.0,30,15,8.0,0.0
8193,86.0,1,30,7.0,0.0
8194,81.0,17,30,7.0,0.0
8195,74.0,0,30,7.0,0.0
8196,53.0,13,15,8.0,0.0
8197,83.0,4,30,7.0,0.0
8198,80.0,1,30,7.0,0.0
8199,71.0,2,30,7.0,0.0
8200,64.0,5,60,11.0,0.0
8201,40.0,10,15,8.0,0.0
8202,64.0,14,30,4.0,0.0
8203,73.0,7,25,7.0,0.0
8204,85.0,0,25,7.0,0.0
8205,52.0,7,15,8.0,0.0
8206,86.0,5,30,7.0,0.0
8207,74.0,2,30,7.0,0.0
8208,64.0,5,60,11.0,0.0
8209,28.0,9,15,8.0,0.0
8210,64.0,13,30,4.0,0.0
8211,52.0,11,0,12.0,0.0
8212,88.0,3,30,7.0,0.0
8213,76.0,0,30,7.0,0.0
8214,40.0,12,15,8.0,0.0
8215,81.0,0,30,7.0,0.0
8216,73.0,0,30,7.0,0.0
8217,85.0,5,30,7.0,0.0
8218,33.0,1,60,8.0,0.0
8219,45.0,0,60,8.0,0.0
8220,69.0,0,60,11.0,0.0
8221,57.0,5,60,11.0,0.0
8222,69.0,0,30,4.0,0.0
8223,57.0,27,30,4.0,0.0
8224,57.0,26,60,12.0,0.0
8225,72.0,1,30,6.0,0.0
8226,60.0,3,30,4.0,0.0
8227,60.0,1,30,12.0,0.0
8228,48.0,4,30,13.0,0.0
8229,48.0,1,30,3.0,0.0
8230,60.0,0,30,3.0,0.0
8231,36.0,12,30,14.0,0.0
8232,76.0,1,25,10.0,0.0
8233,84.0,0,25,0.0,0.0
8234,88.0,1,25,0.0,0.0
8235,72.0,2,25,11.0,0.0
8236,76.0,0,25,1.0,0.0
8237,72.0,31,25,1.0,0.0
8238,74.0,1,30,10.0,0.0
8239,86.0,0,30,0.0,0.0
8240,83.0,1,30,0.0,0.0
8241,71.0,2,30,11.0,0.0
8242,76.0,1,180,6.0,0.0
8243,64.0,0,180,4.0,0.0
8244,74.0,0,30,1.0,0.0
8245,71.0,3,30,1.0,0.0
8246,64.0,1,30,12.0,0.0
8247,52.0,4,30,13.0,0.0
8248,52.0,0,30,3.0,0.0
8249,64.0,1,30,3.0,0.0
8250,40.0,12,30,14.0,0.0
8251,76.0,1,25,10.0,0.0
8252,84.0,1,25,0.0,0.0
8253,88.0,0,25,0.0,0.0
8254,72.0,2,25,11.0,0.0
8255,76.0,16,25,1.0,0.0
8256,72.0,0,25,1.0,0.0
8257,78.0,1,15,10.0,0.0
8258,90.0,1,15,0.0,0.0
8259,86.0,0,15,0.0,0.0
8260,74.0,2,15,11.0,0.0
8261,78.0,0,15,1.0,0.0
8262,74.0,18,15,1.0,0.0
8263,52.0,1,30,12.0,0.0
8264,40.0,4,30,13.0,0.0
8265,52.0,0,30,3.0,0.0
8266,40.0,1,30,3.0,0.0
8267,28.0,2,30,14.0,0.0
8268,80.0,1,15,10.0,0.0
8269,83.0,0,15,0.0,0.0
8270,92.0,1,15,0.0,0.0
8271,71.0,2,15,11.0,0.0
8272,71.0,0,15,1.0,0.0
8273,80.0,48,15,1.0,0.0
8274,81.0,1,60,10.0,0.0
8275,93.0,0,60,0.0,0.0
8276,84.0,1,60,0.0,0.0
8277,72.0,1,60,11.0,0.0
8278,72.0,29,60,1.0,0.0
8279,81.0,0,60,1.0,0.0
8280,57.0,1,30,12.0,0.0
8281,45.0,4,30,13.0,0.0
8282,45.0,1,30,3.0,0.0
8283,57.0,0,30,3.0,0.0
8284,33.0,17,30,14.0,0.0
8285,72.0,1,30,6.0,0.0
8286,60.0,3,30,4.0,0.0
8287,60.0,1,30,12.0,0.0
8288,48.0,4,30,13.0,0.0
8289,60.0,0,30,3.0,0.0
8290,48.0,1,30,3.0,0.0
8291,36.0,12,30,14.0,0.0
8292,76.0,1,25,10.0,0.0
8293,84.0,0,25,0.0,0.0
8294,88.0,1,25,0.0,0.0
8295,72.0,2,25,11.0,0.0
8296,72.0,31,25,1.0,0.0
8297,76.0,0,25,1.0,0.0
8298,74.0,1,30,10.0,0.0
8299,86.0,0,30,0.0,0.0
8300,83.0,1,30,0.0,0.0
8301,71.0,2,30,11.0,0.0
8302,76.0,1,180,6.0,0.0
8303,64.0,27,180,4.0,0.0
8304,74.0,0,30,1.0,0.0
8305,71.0,3,30,1.0,0.0
8306,64.0,1,30,12.0,0.0
8307,52.0,4,30,13.0,0.0
8308,64.0,1,30,3.0,0.0
8309,52.0,0,30,3.0,0.0
8310,40.0,12,30,14.0,0.0
8311,76.0,1,25,10.0,0.0
8312,84.0,1,25,0.0,0.0
8313,88.0,0,25,0.0,0.0
8314,72.0,2,25,11.0,0.0
8315,76.0,16,25,1.0,0.0
8316,72.0,0,25,1.0,0.0
8317,78.0,1,15,10.0,0.0
8318,86.0,1,15,0.0,0.0
8319,90.0,0,15,0.0,0.0
8320,74.0,2,15,11.0,0.0
8321,78.0,0,15,1.0,0.0
8322,74.0,18,15,1.0,0.0
8323,52.0,1,30,12.0,0.0
8324,40.0,4,30,13.0,0.0
8325,52.0,0,30,3.0,0.0
8326,40.0,1,30,3.0,0.0
8327,28.0,2,30,14.0,0.0
8328,80.0,1,15,10.0,0.0
8329,83.0,0,15,0.0,0.0
8330,92.0,1,15,0.0,0.0
8331,71.0,2,15,11.0,0.0
8332,71.0,0,15,1.0,0.0
8333,80.0,48,15,1.0,0.0
8334,81.0,1,60,10.0,0.0
8335,84.0,1,60,0.0,0.0
8336,93.0,0,60,0.0,0.0
8337,72.0,1,60,11.0,0.0
8338,72.0,0,60,1.0,0.0
8339,81.0,0,60,1.0,0.0
8340,57.0,1,30,12.0,0.0
8341,45.0,4,30,13.0,0.0
8342,57.0,1,30,3.0,0.0
8343,45.0,0,30,3.0,0.0
8344,33.0,17,30,14.0,0.0
8345,45.0,1,30,8.0,0.0
8346,57.0,2,30,8.0,0.0
8347,57.0,21,30,4.0,0.0
8348,81.0,1,25,7.0,0.0
8349,72.0,32,25,7.0,0.0
8350,79.0,2,30,7.0,0.0
8351,70.0,2,30,7.0,0.0
8352,48.0,22,30,8.0,0.0
8353,60.0,0,30,8.0,0.0
8354,60.0,27,180,4.0,0.0
8355,81.0,2,25,7.0,0.0
8356,72.0,18,25,7.0,0.0
8357,74.0,0,15,7.0,0.0
8358,82.0,18,15,7.0,0.0
8359,48.0,1,30,8.0,0.0
8360,36.0,9,30,8.0,0.0
8361,84.0,5,15,7.0,0.0
8362,76.0,46,15,7.0,0.0
8363,81.0,1,60,7.0,0.0
8364,77.0,4,60,7.0,0.0
8365,53.0,1,30,8.0,0.0
8366,41.0,25,30,8.0,0.0
8367,57.0,3,30,8.0,0.0
8368,57.0,20,30,4.0,0.0
8369,45.0,0,30,8.0,0.0
8370,81.0,3,25,7.0,0.0
8371,72.0,30,25,7.0,0.0
8372,79.0,2,30,7.0,0.0
8373,70.0,2,30,7.0,0.0
8374,60.0,1,30,8.0,0.0
8375,48.0,22,30,8.0,0.0
8376,60.0,33,180,4.0,0.0
8377,72.0,1,25,7.0,0.0
8378,81.0,17,25,7.0,0.0
8379,82.0,2,15,7.0,0.0
8380,74.0,17,15,7.0,0.0
8381,48.0,1,30,8.0,0.0
8382,36.0,13,30,8.0,0.0
8383,84.0,1,15,7.0,0.0
8384,76.0,46,15,7.0,0.0
8385,81.0,4,60,7.0,0.0
8386,77.0,3,60,7.0,0.0
8387,41.0,2,30,8.0,0.0
8388,53.0,23,30,8.0,0.0
8389,53.0,6,55,5.0,0.0
8390,65.0,1,30,12.0,0.0
8391,53.0,5,30,13.0,0.0
8392,41.0,12,30,14.0,0.0
8393,80.0,1,25,10.0,0.0
8394,84.0,1,25,0.0,0.0
8395,77.0,2,25,11.0,0.0
8396,68.0,2,25,1.0,0.0
8397,65.0,0,25,1.0,0.0
8398,72.0,0,25,2.0,0.0
8399,53.0,0,25,3.0,0.0
8400,56.0,23,25,3.0,0.0
8401,79.0,2,30,10.0,0.0
8402,84.0,1,85,0.0,0.0
8403,76.0,2,30,11.0,0.0
8404,67.0,0,30,1.0,0.0
8405,64.0,3,30,1.0,0.0
8406,60.0,6,175,5.0,0.0
8407,72.0,6,85,2.0,0.0
8408,72.0,1,30,12.0,0.0
8409,60.0,4,30,13.0,0.0
8410,55.0,0,30,3.0,0.0
8411,52.0,1,30,3.0,0.0
8412,48.0,12,30,14.0,0.0
8413,80.0,2,25,10.0,0.0
8414,77.0,2,25,11.0,0.0
8415,68.0,8,25,1.0,0.0
8416,65.0,0,25,1.0,0.0
8417,56.0,0,25,3.0,0.0
8418,53.0,8,25,3.0,0.0
8419,82.0,2,15,10.0,0.0
8420,79.0,2,15,11.0,0.0
8421,67.0,0,15,1.0,0.0
8422,70.0,7,15,1.0,0.0
8423,60.0,1,30,12.0,0.0
8424,48.0,5,30,13.0,0.0
8425,55.0,0,15,3.0,0.0
8426,58.0,4,15,3.0,0.0
8427,36.0,2,30,14.0,0.0
8428,79.0,2,15,10.0,0.0
8429,84.0,1,25,0.0,0.0
8430,76.0,2,15,11.0,0.0
8431,64.0,7,15,1.0,0.0
8432,67.0,0,15,1.0,0.0
8433,72.0,29,25,2.0,0.0
8434,55.0,4,15,3.0,0.0
8435,52.0,0,15,3.0,0.0
8436,80.0,2,30,10.0,0.0
8437,84.0,1,85,0.0,0.0
8438,77.0,2,30,11.0,0.0
8439,68.0,0,30,1.0,0.0
8440,65.0,3,30,1.0,0.0
8441,72.0,6,85,2.0,0.0
8442,77.0,1,30,12.0,0.0
8443,65.0,4,30,13.0,0.0
8444,56.0,1,30,3.0,0.0
8445,53.0,0,30,3.0,0.0
8446,53.0,12,30,14.0,0.0
8447,82.0,2,25,10.0,0.0
8448,79.0,2,25,11.0,0.0
8449,70.0,2,25,1.0,0.0
8450,67.0,0,25,1.0,0.0
8451,58.0,8,25,3.0,0.0
8452,55.0,0,25,3.0,0.0
8453,84.0,2,15,10.0,0.0
8454,80.0,2,15,11.0,0.0
8455,72.0,7,15,1.0,0.0
8456,68.0,0,15,1.0,0.0
8457,60.0,29,55,5.0,0.0
8458,65.0,1,30,12.0,0.0
8459,53.0,5,30,13.0,0.0
8460,56.0,4,15,3.0,0.0
8461,60.0,0,15,3.0,0.0
8462,41.0,2,30,14.0,0.0
8463,80.0,2,15,10.0,0.0
8464,84.0,1,25,0.0,0.0
8465,77.0,2,15,11.0,0.0
8466,68.0,7,15,1.0,0.0
8467,65.0,0,15,1.0,0.0
8468,72.0,0,25,2.0,0.0
8469,56.0,4,15,3.0,0.0
8470,53.0,0,15,3.0,0.0
8471,82.0,2,30,10.0,0.0
8472,87.0,1,85,0.0,0.0
8473,79.0,2,30,11.0,0.0
8474,70.0,0,30,1.0,0.0
8475,67.0,3,30,1.0,0.0
8476,75.0,6,85,2.0,0.0
8477,63.0,6,175,5.0,0.0
8478,75.0,1,30,12.0,0.0
8479,63.0,4,30,13.0,0.0
8480,55.0,1,30,3.0,0.0
8481,58.0,0,30,3.0,0.0
8482,51.0,12,30,14.0,0.0
8483,84.0,2,25,10.0,0.0
8484,80.0,2,25,11.0,0.0
8485,68.0,8,25,1.0,0.0
8486,72.0,0,25,1.0,0.0
8487,56.0,0,25,3.0,0.0
8488,60.0,8,25,3.0,0.0
8489,85.0,2,15,10.0,0.0
8490,82.0,2,15,11.0,0.0
8491,73.0,7,15,1.0,0.0
8492,70.0,0,15,1.0,0.0
8493,63.0,1,30,12.0,0.0
8494,51.0,5,30,13.0,0.0
8495,58.0,4,15,3.0,0.0
8496,61.0,0,15,3.0,0.0
8497,39.0,2,30,14.0,0.0
8498,82.0,2,15,10.0,0.0
8499,91.0,1,25,0.0,0.0
8500,79.0,2,15,11.0,0.0
8501,70.0,7,15,1.0,0.0
8502,67.0,0,15,1.0,0.0
8503,79.0,29,25,2.0,0.0
8504,58.0,4,15,3.0,0.0
8505,55.0,0,15,3.0,0.0
8506,84.0,2,30,10.0,0.0
8507,87.0,1,85,0.0,0.0
8508,80.0,2,30,11.0,0.0
8509,68.0,0,30,1.0,0.0
8510,72.0,3,30,1.0,0.0
8511,75.0,6,85,2.0,0.0
8512,68.0,1,30,12.0,0.0
8513,56.0,4,30,13.0,0.0
8514,60.0,0,30,3.0,0.0
8515,56.0,1,30,3.0,0.0
8516,44.0,12,30,14.0,0.0
8517,85.0,2,25,10.0,0.0
8518,82.0,2,25,11.0,0.0
8519,70.0,2,25,1.0,0.0
8520,73.0,0,25,1.0,0.0
8521,58.0,0,25,3.0,0.0
8522,61.0,8,25,3.0,0.0
8523,87.0,2,15,10.0,0.0
8524,84.0,2,15,11.0,0.0
8525,72.0,1,55,6.0,0.0
8526,60.0,2,55,4.0,0.0
8527,75.0,7,15,1.0,0.0
8528,72.0,0,15,1.0,0.0
8529,56.0,1,30,12.0,0.0
8530,44.0,5,30,13.0,0.0
8531,60.0,0,15,3.0,0.0
8532,63.0,4,15,3.0,0.0
8533,32.0,2,30,14.0,0.0
8534,84.0,2,15,10.0,0.0
8535,91.0,1,25,0.0,0.0
8536,80.0,2,15,11.0,0.0
8537,72.0,0,15,1.0,0.0
8538,68.0,7,15,1.0,0.0
8539,79.0,11,25,2.0,0.0
8540,56.0,0,15,3.0,0.0
8541,60.0,1,15,3.0,0.0
8542,91.0,2,25,10.0,0.0
8543,79.0,0,25,10.0,0.0
8544,83.0,1,30,0.0,0.0
8545,91.0,1,85,0.0,0.0
8546,71.0,5,10,11.0,0.0
8547,79.0,1,180,6.0,0.0
8548,71.0,0,30,1.0,0.0
8549,67.0,8,360,4.0,0.0
8550,67.0,4,30,1.0,0.0
8551,79.0,1,85,2.0,0.0
8552,67.0,8,10,12.0,0.0
8553,55.0,4,30,13.0,0.0
8554,59.0,1,30,3.0,0.0
8555,55.0,0,30,3.0,0.0
8556,43.0,4,30,14.0,0.0
8557,71.0,4,10,11.0,0.0
8558,67.0,2,10,12.0,0.0
8559,91.0,1,25,10.0,0.0
8560,79.0,0,25,10.0,0.0
8561,84.0,2,22,0.0,0.0
8562,72.0,0,10,11.0,0.0
8563,69.0,1,22,1.0,0.0
8564,72.0,0,22,1.0,0.0
8565,69.0,6,10,12.0,0.0
8566,60.0,8,22,3.0,0.0
8567,57.0,0,22,3.0,0.0
8568,72.0,5,10,11.0,0.0
8569,69.0,2,10,12.0,0.0
8570,91.0,1,25,10.0,0.0
8571,79.0,0,25,10.0,0.0
8572,86.0,1,15,0.0,0.0
8573,74.0,4,10,11.0,0.0
8574,74.0,6,15,1.0,0.0
8575,71.0,0,15,1.0,0.0
8576,71.0,2,10,12.0,0.0
8577,43.0,4,30,13.0,0.0
8578,62.0,0,15,3.0,0.0
8579,59.0,0,15,3.0,0.0
8580,31.0,3,30,14.0,0.0
8581,74.0,4,10,11.0,0.0
8582,71.0,6,10,12.0,0.0
8583,79.0,0,25,10.0,0.0
8584,91.0,1,25,10.0,0.0
8585,91.0,1,25,0.0,0.0
8586,89.0,1,15,0.0,0.0
8587,77.0,1,10,11.0,0.0
8588,77.0,0,15,1.0,0.0
8589,74.0,6,15,1.0,0.0
8590,79.0,1,25,2.0,0.0
8591,74.0,2,10,12.0,0.0
8592,65.0,4,15,3.0,0.0
8593,62.0,0,15,3.0,0.0
8594,77.0,0,10,11.0,0.0
8595,74.0,10,10,12.0,0.0
8596,91.0,0,25,10.0,0.0
8597,79.0,2,25,10.0,0.0
8598,91.0,1,85,0.0,0.0
8599,88.0,1,30,0.0,0.0
8600,76.0,5,10,11.0,0.0
8601,72.0,4,30,1.0,0.0
8602,76.0,0,30,1.0,0.0
8603,79.0,1,85,2.0,0.0
8604,72.0,8,10,12.0,0.0
8605,55.0,4,30,13.0,0.0
8606,60.0,1,30,3.0,0.0
8607,64.0,0,30,3.0,0.0
8608,43.0,4,30,14.0,0.0
8609,76.0,4,10,11.0,0.0
8610,72.0,2,10,12.0,0.0
8611,91.0,1,25,10.0,0.0
8612,79.0,0,25,10.0,0.0
8613,86.0,2,22,0.0,0.0
8614,74.0,0,10,11.0,0.0
8615,71.0,0,22,1.0,0.0
8616,74.0,1,22,1.0,0.0
8617,71.0,6,10,12.0,0.0
8618,59.0,0,22,3.0,0.0
8619,62.0,8,22,3.0,0.0
8620,74.0,5,10,11.0,0.0
8621,71.0,1,10,12.0,0.0
8622,79.0,1,25,10.0,0.0
8623,91.0,0,25,10.0,0.0
8624,84.0,1,15,0.0,0.0
8625,72.0,4,10,11.0,0.0
8626,69.0,0,15,1.0,0.0
8627,72.0,6,15,1.0,0.0
8628,69.0,2,10,12.0,0.0
8629,43.0,4,30,13.0,0.0
8630,60.0,0,15,3.0,0.0
8631,57.0,4,15,3.0,0.0
8632,31.0,3,30,14.0,0.0
8633,72.0,0,10,11.0,0.0
8634,69.0,6,10,12.0,0.0
8635,91.0,1,25,10.0,0.0
8636,79.0,0,25,10.0,0.0
8637,84.0,1,15,0.0,0.0
8638,91.0,1,25,0.0,0.0
8639,72.0,1,10,11.0,0.0
8640,69.0,0,15,1.0,0.0
8641,72.0,6,15,1.0,0.0
8642,79.0,1,25,2.0,0.0
8643,69.0,2,10,12.0,0.0
8644,57.0,4,15,3.0,0.0
8645,60.0,0,15,3.0,0.0
8646,72.0,0,10,11.0,0.0
8647,69.0,10,10,12.0,0.0
8648,91.0,0,25,10.0,0.0
8649,79.0,2,25,10.0,0.0
8650,91.0,1,85,0.0,0.0
8651,86.0,1,30,0.0,0.0
8652,74.0,5,10,11.0,0.0
8653,71.0,4,30,1.0,0.0
8654,74.0,0,30,1.0,0.0
8655,79.0,1,85,2.0,0.0
8656,71.0,8,10,12.0,0.0
8657,55.0,4,30,13.0,0.0
8658,59.0,0,30,3.0,0.0
8659,62.0,1,30,3.0,0.0
8660,43.0,4,30,14.0,0.0
8661,74.0,4,10,11.0,0.0
8662,71.0,2,10,12.0,0.0
8663,91.0,0,25,10.0,0.0
8664,79.0,1,25,10.0,0.0
8665,84.0,2,22,0.0,0.0
8666,72.0,0,10,11.0,0.0
8667,69.0,0,22,1.0,0.0
8668,72.0,1,22,1.0,0.0
8669,69.0,6,10,12.0,0.0
8670,60.0,8,22,3.0,0.0
8671,57.0,0,22,3.0,0.0
8672,72.0,5,10,11.0,0.0
8673,69.0,2,10,12.0,0.0
8674,91.0,1,25,10.0,0.0
8675,79.0,0,25,10.0,0.0
8676,83.0,1,15,0.0,0.0
8677,71.0,4,10,11.0,0.0
8678,71.0,0,15,1.0,0.0
8679,67.0,6,15,1.0,0.0
8680,67.0,2,10,12.0,0.0
8681,43.0,4,30,13.0,0.0
8682,55.0,0,15,3.0,0.0
8683,59.0,0,15,3.0,0.0
8684,31.0,3,30,14.0,0.0
8685,71.0,4,10,11.0,0.0
8686,67.0,6,10,12.0,0.0
8687,79.0,0,25,10.0,0.0
8688,91.0,1,25,10.0,0.0
8689,83.0,1,15,0.0,0.0
8690,91.0,1,25,0.0,0.0
8691,71.0,1,10,11.0,0.0
8692,67.0,6,15,1.0,0.0
8693,71.0,0,15,1.0,0.0
8694,79.0,1,25,2.0,0.0
8695,67.0,2,10,12.0,0.0
8696,55.0,4,15,3.0,0.0
8697,59.0,0,15,3.0,0.0
8698,71.0,0,10,11.0,0.0
8699,67.0,2,10,12.0,0.0
8700,90.0,2,25,10.0,0.0
8701,79.0,0,25,10.0,0.0
8702,84.0,1,30,0.0,0.0
8703,90.0,1,85,0.0,0.0
8704,72.0,5,10,11.0,0.0
8705,69.0,0,30,1.0,0.0
8706,72.0,4,30,1.0,0.0
8707,78.0,1,85,2.0,0.0
8708,69.0,8,10,12.0,0.0
8709,55.0,4,30,13.0,0.0
8710,57.0,0,30,3.0,0.0
8711,60.0,0,30,3.0,0.0
8712,43.0,4,30,14.0,0.0
8713,72.0,4,10,11.0,0.0
8714,69.0,2,10,12.0,0.0
8715,90.0,0,25,10.0,0.0
8716,79.0,1,25,10.0,0.0
8717,83.0,2,22,0.0,0.0
8718,71.0,1,10,11.0,0.0
8719,67.0,0,22,1.0,0.0
8720,71.0,1,22,1.0,0.0
8721,67.0,6,10,12.0,0.0
8722,59.0,8,22,3.0,0.0
8723,55.0,0,22,3.0,0.0
8724,71.0,5,10,11.0,0.0
8725,67.0,2,10,12.0,0.0
8726,90.0,0,25,10.0,0.0
8727,79.0,1,25,10.0,0.0
8728,84.0,1,15,0.0,0.0
8729,72.0,4,10,11.0,0.0
8730,72.0,1,55,6.0,0.0
8731,72.0,0,15,1.0,0.0
8732,60.0,2,55,4.0,0.0
8733,69.0,6,15,1.0,0.0
8734,69.0,2,10,12.0,0.0
8735,43.0,4,30,13.0,0.0
8736,60.0,0,15,3.0,0.0
8737,57.0,0,15,3.0,0.0
8738,31.0,3,30,14.0,0.0
8739,72.0,4,10,11.0,0.0
8740,69.0,6,10,12.0,0.0
8741,79.0,0,25,10.0,0.0
8742,90.0,1,25,10.0,0.0
8743,86.0,1,15,0.0,0.0
8744,90.0,1,25,0.0,0.0
8745,74.0,1,10,11.0,0.0
8746,69.0,0,15,1.0,0.0
8747,74.0,6,15,1.0,0.0
8748,78.0,1,25,2.0,0.0
8749,69.0,2,10,12.0,0.0
8750,57.0,0,15,3.0,0.0
8751,62.0,0,15,3.0,0.0
8752,74.0,1,10,11.0,0.0
8753,69.0,23,10,12.0,0.0
8754,91.0,2,25,10.0,0.0
8755,79.0,0,25,10.0,0.0
8756,91.0,0,112,0.0,0.0
8757,83.0,0,112,0.0,0.0
8758,71.0,5,25,11.0,0.0
8759,79.0,1,115,6.0,0.0
8760,67.0,2,112,1.0,0.0
8761,71.0,0,112,1.0,0.0
8762,67.0,1,115,4.0,0.0
8763,79.0,0,112,2.0,0.0
8764,67.0,6,25,12.0,0.0
8765,55.0,5,30,13.0,0.0
8766,59.0,8,112,3.0,0.0
8767,55.0,0,112,3.0,0.0
8768,43.0,2,30,14.0,0.0
8769,79.0,0,13,10.0,0.0
8770,67.0,5,13,11.0,0.0
8771,55.0,5,13,12.0,0.0
8772,81.0,2,13,10.0,0.0
8773,69.0,5,13,11.0,0.0
8774,57.0,6,13,12.0,0.0
8775,83.0,2,13,10.0,0.0
8776,71.0,5,13,11.0,0.0
8777,59.0,5,13,12.0,0.0
8778,84.0,2,13,10.0,0.0
8779,43.0,2,30,13.0,0.0
8780,72.0,5,13,11.0,0.0
8781,31.0,3,30,14.0,0.0
8782,60.0,6,13,12.0,0.0
8783,86.0,2,13,10.0,0.0
8784,74.0,3,13,11.0,0.0
8785,62.0,3,13,12.0,0.0
8786,88.0,2,13,10.0,0.0
8787,76.0,5,13,11.0,0.0
8788,64.0,2,13,12.0,0.0
8789,89.0,0,8,10.0,0.0
8790,77.0,1,8,11.0,0.0
8791,65.0,4,8,12.0,0.0
8792,79.0,0,25,10.0,0.0
8793,91.0,2,25,10.0,0.0
8794,89.0,1,30,0.0,0.0
8795,91.0,1,85,0.0,0.0
8796,74.0,0,10,11.0,0.0
8797,77.0,5,10,11.0,0.0
8798,79.0,1,85,6.0,0.0
8799,67.0,3,85,4.0,0.0
8800,86.0,2,30,1.0,0.0
8801,77.0,0,30,1.0,0.0
8802,74.0,0,30,2.0,0.0
8803,65.0,2,30,5.0,0.0
8804,62.0,0,30,5.0,0.0
8805,77.0,0,30,2.0,0.0
8806,62.0,8,10,12.0,0.0
8807,65.0,0,10,12.0,0.0
8808,55.0,4,30,13.0,0.0
8809,62.0,0,30,3.0,0.0
8810,65.0,0,30,3.0,0.0
8811,43.0,4,30,14.0,0.0
8812,50.0,0,20,15.0,0.0
8813,77.0,0,10,11.0,0.0
8814,74.0,4,10,11.0,0.0
8815,62.0,0,10,12.0,0.0
8816,65.0,2,10,12.0,0.0
8817,91.0,1,25,10.0,0.0
8818,79.0,0,25,10.0,0.0
8819,88.0,2,22,0.0,0.0
8820,72.0,1,10,11.0,0.0
8821,76.0,0,10,11.0,0.0
8822,76.0,0,22,1.0,0.0
8823,84.0,1,22,1.0,0.0
8824,72.0,3,22,2.0,0.0
8825,64.0,1,25,5.0,0.0
8826,60.0,0,25,5.0,0.0
8827,76.0,0,22,2.0,0.0
8828,50.0,0,20,15.0,0.0
8829,64.0,0,10,12.0,0.0
8830,60.0,6,10,12.0,0.0
8831,64.0,0,22,3.0,0.0
8832,60.0,8,22,3.0,0.0
8833,72.0,0,10,11.0,0.0
8834,76.0,1,10,11.0,0.0
8835,64.0,2,10,12.0,0.0
8836,60.0,0,10,12.0,0.0
8837,91.0,0,25,10.0,0.0
8838,79.0,1,25,10.0,0.0
8839,86.0,0,15,0.0,0.0
8840,74.0,0,10,11.0,0.0
8841,71.0,4,10,11.0,0.0
8842,74.0,0,15,1.0,0.0
8843,83.0,2,15,1.0,0.0
8844,50.0,0,15,5.0,0.0
8845,62.0,4,15,5.0,0.0
8846,74.0,0,15,2.0,0.0
8847,71.0,0,15,2.0,0.0
8848,62.0,2,10,12.0,0.0
8849,59.0,0,10,12.0,0.0
8850,43.0,4,30,13.0,0.0
8851,59.0,1,15,3.0,0.0
8852,62.0,0,15,3.0,0.0
8853,31.0,3,30,14.0,0.0
8854,50.0,1,1,15.0,0.0
8855,74.0,0,10,11.0,0.0
8856,71.0,0,10,11.0,0.0
8857,62.0,0,10,12.0,0.0
8858,59.0,3,10,12.0,0.0
8859,79.0,1,25,10.0,0.0
8860,91.0,0,25,10.0,0.0
8861,86.0,1,15,0.0,0.0
8862,91.0,1,25,0.0,0.0
8863,74.0,1,10,11.0,0.0
8864,71.0,0,10,11.0,0.0
8865,79.0,1,25,6.0,0.0
8866,67.0,3,25,4.0,0.0
8867,74.0,0,15,1.0,0.0
8868,83.0,2,15,1.0,0.0
8869,62.0,4,15,5.0,0.0
8870,74.0,0,15,2.0,0.0
8871,71.0,0,15,2.0,0.0
8872,50.0,0,15,5.0,0.0
8873,59.0,0,10,12.0,0.0
8874,62.0,2,10,12.0,0.0
8875,59.0,0,15,3.0,0.0
8876,62.0,0,15,3.0,0.0
8877,74.0,0,10,11.0,0.0
8878,71.0,1,10,11.0,0.0
8879,59.0,10,10,12.0,0.0
8880,62.0,0,10,12.0,0.0
8881,50.0,0,2,15.0,0.0
8882,79.0,2,25,10.0,0.0
8883,91.0,0,25,10.0,0.0
8884,91.0,1,85,0.0,0.0
8885,88.0,1,30,0.0,0.0
8886,76.0,2,10,11.0,0.0
8887,72.0,0,10,11.0,0.0
8888,79.0,1,85,6.0,0.0
8889,84.0,0,30,1.0,0.0
8890,67.0,3,85,4.0,0.0
8891,76.0,2,30,1.0,0.0
8892,60.0,0,30,5.0,0.0
8893,76.0,0,30,2.0,0.0
8894,72.0,0,30,2.0,0.0
8895,64.0,0,30,5.0,0.0
8896,60.0,8,10,12.0,0.0
8897,64.0,0,10,12.0,0.0
8898,55.0,4,30,13.0,0.0
8899,64.0,1,30,3.0,0.0
8900,60.0,0,30,3.0,0.0
8901,43.0,4,30,14.0,0.0
8902,72.0,0,10,11.0,0.0
8903,76.0,4,10,11.0,0.0
8904,64.0,0,10,12.0,0.0
8905,60.0,2,10,12.0,0.0
8906,79.0,1,25,10.0,0.0
8907,91.0,0,25,10.0,0.0
8908,86.0,2,22,0.0,0.0
8909,74.0,0,10,11.0,0.0
8910,71.0,0,10,11.0,0.0
8911,83.0,0,22,1.0,0.0
8912,74.0,0,22,1.0,0.0
8913,62.0,1,25,5.0,0.0
8914,71.0,3,22,2.0,0.0
8915,59.0,0,25,5.0,0.0
8916,50.0,2,0,15.0,0.0
8917,74.0,0,22,2.0,0.0
8918,59.0,6,10,12.0,0.0
8919,62.0,0,10,12.0,0.0
8920,62.0,0,22,3.0,0.0
8921,59.0,8,22,3.0,0.0
8922,71.0,0,10,11.0,0.0
8923,74.0,1,10,11.0,0.0
8924,59.0,2,10,12.0,0.0
8925,62.0,0,10,12.0,0.0
8926,50.0,1,1,15.0,0.0
8927,91.0,1,25,10.0,0.0
8928,79.0,0,25,10.0,0.0
8929,84.0,1,15,0.0,0.0
8930,72.0,0,10,11.0,0.0
8931,69.0,3,10,11.0,0.0
8932,81.0,0,15,1.0,0.0
8933,72.0,2,15,1.0,0.0
8934,60.0,4,15,5.0,0.0
8935,69.0,0,15,2.0,0.0
8936,72.0,0,15,2.0,0.0
8937,57.0,0,10,12.0,0.0
8938,60.0,2,10,12.0,0.0
8939,43.0,4,30,13.0,0.0
8940,57.0,1,15,3.0,0.0
8941,60.0,0,15,3.0,0.0
8942,31.0,3,30,14.0,0.0
8943,50.0,1,0,15.0,0.0
8944,69.0,0,10,11.0,0.0
8945,72.0,0,10,11.0,0.0
8946,60.0,0,10,12.0,0.0
8947,57.0,3,10,12.0,0.0
8948,79.0,1,25,10.0,0.0
8949,91.0,0,25,10.0,0.0
8950,91.0,1,25,0.0,0.0
8951,84.0,1,15,0.0,0.0
8952,69.0,1,10,11.0,0.0
8953,72.0,0,10,11.0,0.0
8954,79.0,1,25,6.0,0.0
8955,72.0,0,15,1.0,0.0
8956,81.0,2,15,1.0,0.0
8957,67.0,3,25,4.0,0.0
8958,50.0,3,1,15.0,0.0
8959,72.0,0,15,2.0,0.0
8960,60.0,0,15,5.0,0.0
8961,69.0,3,15,2.0,0.0
8962,57.0,2,10,12.0,0.0
8963,60.0,0,10,12.0,0.0
8964,57.0,1,15,3.0,0.0
8965,60.0,0,15,3.0,0.0
8966,69.0,0,10,11.0,0.0
8967,72.0,0,10,11.0,0.0
8968,60.0,0,10,12.0,0.0
8969,57.0,10,10,12.0,0.0
8970,79.0,2,25,10.0,0.0
8971,90.0,0,25,10.0,0.0
8972,90.0,1,85,0.0,0.0
8973,84.0,1,30,0.0,0.0
8974,72.0,4,10,11.0,0.0
8975,69.0,0,10,11.0,0.0
8976,78.0,1,85,6.0,0.0
8977,72.0,2,30,1.0,0.0
8978,66.0,3,85,4.0,0.0
8979,81.0,0,30,1.0,0.0
8980,69.0,0,30,2.0,0.0
8981,72.0,0,30,2.0,0.0
8982,60.0,2,30,5.0,0.0
8983,60.0,0,10,12.0,0.0
8984,57.0,8,10,12.0,0.0
8985,55.0,4,30,13.0,0.0
8986,57.0,0,30,3.0,0.0
8987,60.0,0,30,3.0,0.0
8988,43.0,4,30,14.0,0.0
8989,50.0,1,0,15.0,0.0
8990,72.0,4,10,11.0,0.0
8991,69.0,0,10,11.0,0.0
8992,57.0,2,10,12.0,0.0
8993,60.0,0,10,12.0,0.0
8994,79.0,0,25,10.0,0.0
8995,90.0,1,25,10.0,0.0
8996,83.0,1,22,0.0,0.0
8997,71.0,1,10,11.0,0.0
8998,67.0,0,10,11.0,0.0
8999,71.0,0,22,1.0,0.0
9000,79.0,1,22,1.0,0.0
9001,50.0,0,2,15.0,0.0
9002,71.0,3,22,2.0,0.0
9003,67.0,0,22,2.0,0.0
9004,59.0,1,25,5.0,0.0
9005,55.0,6,10,12.0,0.0
9006,59.0,0,10,12.0,0.0
9007,59.0,8,22,3.0,0.0
9008,55.0,0,22,3.0,0.0
9009,67.0,0,10,11.0,0.0
9010,71.0,1,10,11.0,0.0
9011,55.0,2,10,12.0,0.0
9012,59.0,0,10,12.0,0.0
9013,79.0,0,25,10.0,0.0
9014,90.0,1,25,10.0,0.0
9015,84.0,1,15,0.0,0.0
9016,69.0,4,10,11.0,0.0
9017,72.0,0,10,11.0,0.0
9018,81.0,2,15,1.0,0.0
9019,72.0,0,15,1.0,0.0
9020,72.0,4,15,2.0,0.0
9021,69.0,0,15,2.0,0.0
9022,60.0,0,15,5.0,0.0
9023,60.0,2,10,12.0,0.0
9024,57.0,0,10,12.0,0.0
9025,43.0,0,30,13.0,0.0
9026,57.0,0,15,3.0,0.0
9027,60.0,1,15,3.0,0.0
9028,31.0,3,30,14.0,0.0
9029,50.0,0,2,15.0,0.0
9030,69.0,0,10,11.0,0.0
9031,72.0,0,10,11.0,0.0
9032,60.0,2,10,12.0,0.0
9033,57.0,0,10,12.0,0.0
9034,74.0,3,10,7.0,0.0
9035,62.0,4,10,8.0,0.0
9036,79.0,0,25,10.0,0.0
9037,90.0,0,25,10.0,0.0
9038,86.0,1,15,0.0,0.0
9039,90.0,1,25,0.0,0.0
9040,74.0,1,10,11.0,0.0
9041,69.0,0,10,11.0,0.0
9042,78.0,1,25,6.0,0.0
9043,81.0,2,15,1.0,0.0
9044,66.0,3,25,4.0,0.0
9045,74.0,0,15,1.0,0.0
9046,74.0,4,15,2.0,0.0
9047,62.0,0,15,5.0,0.0
9048,76.0,0,10,7.0,0.0
9049,69.0,0,15,2.0,0.0
9050,62.0,1,10,12.0,0.0
9051,57.0,0,10,12.0,0.0
9052,64.0,1,10,8.0,0.0
9053,62.0,0,15,3.0,0.0
9054,57.0,0,15,3.0,0.0
9055,78.0,1,10,7.0,0.0
9056,66.0,1,10,8.0,0.0
9057,74.0,0,10,11.0,0.0
9058,69.0,0,10,11.0,0.0
9059,57.0,12,10,12.0,0.0
9060,62.0,0,10,12.0,0.0
9061,50.0,0,1,15.0,0.0
9062,71.0,1,172,7.0,0.0
9063,79.0,2,172,7.0,0.0
9064,59.0,1,172,8.0,0.0
9065,67.0,21,172,8.0,0.0
9066,91.0,1,60,10.0,0.0
9067,79.0,0,60,10.0,0.0
9068,83.0,0,60,0.0,0.0
9069,91.0,1,60,0.0,0.0
9070,71.0,1,60,11.0,0.0
9071,67.0,0,60,11.0,0.0
9072,79.0,1,60,6.0,0.0
9073,67.0,0,60,4.0,0.0
9074,79.0,0,60,1.0,0.0
9075,71.0,2,60,1.0,0.0
9076,71.0,0,60,2.0,0.0
9077,67.0,0,60,2.0,0.0
9078,62.0,1,60,5.0,0.0
9079,59.0,0,60,12.0,0.0
9080,55.0,5,60,12.0,0.0
9081,55.0,5,30,13.0,0.0
9082,59.0,3,60,3.0,0.0
9083,55.0,0,60,3.0,0.0
9084,43.0,17,30,14.0,0.0
9085,50.0,8,60,15.0,0.0
9086,50.0,5,15,13.0,0.0
9087,38.0,10,15,14.0,0.0
9088,48.0,5,15,13.0,0.0
9089,36.0,10,15,14.0,0.0
9090,47.0,5,15,13.0,0.0
9091,35.0,5,15,14.0,0.0
9092,45.0,5,10,13.0,0.0
9093,33.0,39,10,14.0,0.0
9094,43.0,5,120,13.0,0.0
9095,31.0,69,120,14.0,0.0
9096,74.0,3,12,7.0,0.0
9097,62.0,10,12,8.0,0.0
9098,76.0,3,12,7.0,0.0
9099,64.0,7,12,8.0,0.0
9100,78.0,5,12,7.0,0.0
9101,66.0,8,12,8.0,0.0
9102,79.0,3,12,7.0,0.0
9103,67.0,10,12,8.0,0.0
9104,81.0,2,12,7.0,0.0
9105,69.0,5,12,8.0,0.0
9106,79.0,0,172,7.0,0.0
9107,83.0,0,235,0.0,0.0
9108,83.0,2,172,7.0,0.0
9109,79.0,3,235,0.0,0.0
9110,74.0,0,172,7.0,0.0
9111,62.0,0,172,8.0,0.0
9112,67.0,1,172,8.0,0.0
9113,71.0,0,235,1.0,0.0
9114,71.0,13,172,8.0,0.0
9115,74.0,0,235,1.0,0.0
9116,67.0,1,235,4.0,0.0
9117,71.0,0,235,2.0,0.0
9118,62.0,3,235,2.0,0.0
9119,62.0,0,235,3.0,0.0
9120,55.0,0,235,3.0,0.0
9121,62.0,1,15,12.0,0.0
9122,50.0,5,15,13.0,0.0
9123,38.0,9,15,14.0,0.0
9124,60.0,1,15,12.0,0.0
9125,48.0,5,15,13.0,0.0
9126,36.0,9,15,14.0,0.0
9127,59.0,1,15,12.0,0.0
9128,47.0,5,15,13.0,0.0
9129,35.0,4,15,14.0,0.0
9130,57.0,1,10,12.0,0.0
9131,45.0,5,10,13.0,0.0
9132,33.0,45,10,14.0,0.0
9133,55.0,1,120,12.0,0.0
9134,43.0,5,120,13.0,0.0
9135,31.0,16,120,14.0,0.0
9136,74.0,2,9,7.0,0.0
9137,62.0,7,9,8.0,0.0
9138,76.0,3,9,7.0,0.0
9139,64.0,4,9,8.0,0.0
9140,78.0,4,9,7.0,0.0
9141,66.0,6,9,8.0,0.0
9142,79.0,2,9,7.0,0.0
9143,67.0,7,9,8.0,0.0
9144,81.0,2,9,7.0,0.0
9145,69.0,5,9,8.0,0.0
9146,83.0,3,9,7.0,0.0
9147,71.0,2,9,8.0,0.0
9148,84.0,1,9,7.0,0.0
9149,72.0,3,9,8.0,0.0
9150,86.0,4,30,7.0,0.0
9151,86.0,3,235,0.0,0.0
9152,83.0,0,235,0.0,0.0
9153,74.0,37,30,8.0,0.0
9154,79.0,0,235,1.0,0.0
9155,74.0,0,235,1.0,0.0
9156,67.0,2,235,4.0,0.0
9157,74.0,6,235,2.0,0.0
9158,71.0,0,235,2.0,0.0
9159,59.0,0,235,3.0,0.0
9160,55.0,80,235,3.0,0.0
9161,74.0,1,9,7.0,0.0
9162,62.0,7,9,8.0,0.0
9163,76.0,1,9,7.0,0.0
9164,64.0,6,9,8.0,0.0
9165,78.0,4,9,7.0,0.0
9166,66.0,6,9,8.0,0.0
9167,79.0,2,9,7.0,0.0
9168,67.0,5,9,8.0,0.0
9169,81.0,5,9,7.0,0.0
9170,69.0,4,9,8.0,0.0
9171,83.0,3,9,7.0,0.0
9172,71.0,5,9,8.0,0.0
9173,84.0,5,9,7.0,0.0
9174,72.0,27,9,8.0,0.0
9175,86.0,1,30,7.0,0.0
9176,74.0,37,30,8.0,0.0
9177,62.0,3,9,7.0,0.0
9178,50.0,4,9,8.0,0.0
9179,65.0,5,9,7.0,0.0
9180,53.0,4,9,8.0,0.0
9181,71.0,5,9,7.0,0.0
9182,59.0,5,9,8.0,0.0
9183,74.0,2,9,7.0,0.0
9184,62.0,19,9,8.0,0.0
9185,77.0,2,202,7.0,0.0
9186,65.0,1,202,8.0,0.0
9187,83.0,2,193,7.0,0.0
9188,71.0,1,193,8.0,0.0
9189,86.0,0,184,7.0,0.0
9190,74.0,1,184,8.0,0.0
9191,89.0,0,175,7.0,0.0
9192,62.0,3,180,4.0,0.0
9193,71.0,3,175,2.0,0.0
9194,74.0,0,175,2.0,0.0
9195,62.0,0,175,3.0,0.0
9196,59.0,20,175,3.0,0.0
9197,62.0,1,20,12.0,0.0
9198,50.0,5,20,13.0,0.0
9199,38.0,14,20,14.0,0.0
9200,59.0,1,20,12.0,0.0
9201,47.0,5,20,13.0,0.0
9202,35.0,14,20,14.0,0.0
9203,57.0,1,20,12.0,0.0
9204,45.0,5,20,13.0,0.0
9205,33.0,41,20,14.0,0.0
9206,56.0,1,175,12.0,0.0
9207,44.0,5,175,13.0,0.0
9208,32.0,10,175,14.0,0.0
9209,88.0,2,30,7.0,0.0
9210,85.0,4,30,7.0,0.0
9211,73.0,1,30,8.0,0.0
9212,76.0,2,30,8.0,0.0
9213,73.0,6,30,2.0,0.0
9214,76.0,0,30,2.0,0.0
9215,61.0,0,30,3.0,0.0
9216,64.0,45,30,3.0,0.0
9217,86.0,3,30,7.0,0.0
9218,83.0,2,30,7.0,0.0
9219,74.0,2,30,8.0,0.0
9220,71.0,2,30,8.0,0.0
9221,74.0,0,30,2.0,0.0
9222,77.0,6,30,2.0,0.0
9223,65.0,0,30,3.0,0.0
9224,62.0,20,30,3.0,0.0
9225,85.0,1,20,7.0,0.0
9226,81.0,3,20,7.0,0.0
9227,85.0,0,30,0.0,0.0
9228,88.0,3,30,0.0,0.0
9229,73.0,2,20,8.0,0.0
9230,69.0,7,20,8.0,0.0
9231,64.0,0,30,4.0,0.0
9232,76.0,2,30,1.0,0.0
9233,73.0,0,30,1.0,0.0
9234,76.0,3,30,2.0,0.0
9235,73.0,0,30,2.0,0.0
9236,57.0,1,60,12.0,0.0
9237,45.0,5,60,13.0,0.0
9238,64.0,16,30,3.0,0.0
9239,61.0,0,30,3.0,0.0
9240,33.0,74,60,14.0,0.0
9241,88.0,3,20,7.0,0.0
9242,76.0,0,20,8.0,0.0
9243,90.0,4,20,7.0,0.0
9244,78.0,5,20,8.0,0.0
9245,91.0,1,150,7.0,0.0
9246,88.0,4,150,7.0,0.0
9247,91.0,0,175,0.0,0.0
9248,85.0,3,175,0.0,0.0
9249,79.0,1,150,8.0,0.0
9250,73.0,0,175,1.0,0.0
9251,64.0,0,175,4.0,0.0
9252,67.0,0,175,4.0,0.0
9253,79.0,2,175,1.0,0.0
9254,76.0,22,150,8.0,0.0
9255,76.0,6,175,2.0,0.0
9256,73.0,0,175,2.0,0.0
9257,64.0,20,175,3.0,0.0
9258,61.0,0,175,3.0,0.0
9259,64.0,1,20,12.0,0.0
9260,52.0,5,20,13.0,0.0
9261,40.0,14,20,14.0,0.0
9262,61.0,1,20,12.0,0.0
9263,49.0,5,20,13.0,0.0
9264,37.0,14,20,14.0,0.0
9265,59.0,1,20,12.0,0.0
9266,47.0,5,20,13.0,0.0
9267,35.0,15,20,14.0,0.0
9268,58.0,1,175,12.0,0.0
9269,46.0,5,175,13.0,0.0
9270,34.0,11,175,14.0,0.0
9271,90.0,4,30,7.0,0.0
9272,87.0,3,30,7.0,0.0
9273,75.0,0,30,8.0,0.0
9274,78.0,2,30,8.0,0.0
9275,78.0,0,30,2.0,0.0
9276,75.0,6,30,2.0,0.0
9277,66.0,48,30,3.0,0.0
9278,63.0,0,30,3.0,0.0
9279,88.0,0,30,7.0,0.0
9280,76.0,1,30,8.0,0.0
9281,85.0,1,30,7.0,0.0
9282,73.0,4,30,8.0,0.0
9283,79.0,6,30,2.0,0.0
9284,76.0,0,30,2.0,0.0
9285,64.0,0,30,3.0,0.0
9286,67.0,20,30,3.0,0.0
9287,87.0,0,20,7.0,0.0
9288,83.0,4,20,7.0,0.0
9289,87.0,0,30,0.0,0.0
9290,90.0,3,30,0.0,0.0
9291,71.0,8,20,8.0,0.0
9292,75.0,0,20,8.0,0.0
9293,66.0,0,30,4.0,0.0
9294,78.0,2,30,1.0,0.0
9295,75.0,0,30,1.0,0.0
9296,75.0,2,30,2.0,0.0
9297,78.0,0,30,2.0,0.0
9298,59.0,1,60,12.0,0.0
9299,47.0,5,60,13.0,0.0
9300,66.0,0,30,3.0,0.0
9301,63.0,2,30,3.0,0.0
9302,35.0,16,60,14.0,0.0
9303,90.0,4,20,7.0,0.0
9304,78.0,15,20,8.0,0.0
9305,92.0,4,20,7.0,0.0
9306,80.0,4,20,8.0,0.0
9307,93.0,2,30,7.0,0.0
9308,87.0,0,30,0.0,0.0
9309,93.0,1,30,0.0,0.0
9310,90.0,0,30,7.0,0.0
9311,81.0,0,30,8.0,0.0
9312,69.0,2,30,8.0,0.0
9313,78.0,0,30,8.0,0.0
9314,66.0,0,30,4.0,0.0
9315,69.0,2,30,4.0,0.0
9316,81.0,0,30,1.0,0.0
9317,75.0,0,30,1.0,0.0
9318,78.0,6,30,2.0,0.0
9319,75.0,0,30,2.0,0.0
9320,63.0,0,30,3.0,0.0
9321,66.0,36,30,3.0,0.0
9322,87.0,4,20,7.0,0.0
9323,75.0,16,20,8.0,0.0
9324,59.0,1,60,12.0,0.0
9325,47.0,5,60,13.0,0.0
9326,35.0,14,60,14.0,0.0
9327,90.0,5,20,7.0,0.0
9328,78.0,15,20,8.0,0.0
9329,92.0,5,20,7.0,0.0
9330,80.0,4,20,8.0,0.0
9331,93.0,4,30,7.0,0.0
9332,93.0,0,30,0.0,0.0
9333,87.0,0,30,0.0,0.0
9334,90.0,2,30,7.0,0.0
9335,81.0,1,30,8.0,0.0
9336,69.0,2,30,4.0,0.0
9337,69.0,0,30,8.0,0.0
9338,81.0,0,30,1.0,0.0
9339,75.0,0,30,1.0,0.0
9340,66.0,0,30,4.0,0.0
9341,78.0,0,30,8.0,0.0
9342,78.0,0,30,2.0,0.0
9343,75.0,6,30,2.0,0.0
9344,60.0,1,50,12.0,0.0
9345,48.0,5,50,13.0,0.0
9346,63.0,0,30,3.0,0.0
9347,66.0,15,30,3.0,0.0
9348,36.0,14,50,14.0,0.0
9349,87.0,7,20,7.0,0.0
9350,75.0,15,20,8.0,0.0
9351,60.0,1,60,12.0,0.0
9352,48.0,5,60,13.0,0.0
9353,36.0,14,60,14.0,0.0
9354,90.0,4,20,7.0,0.0
9355,78.0,14,20,8.0,0.0
9356,92.0,7,20,7.0,0.0
9357,80.0,3,20,8.0,0.0
9358,93.0,2,30,7.0,0.0
9359,88.0,2,30,7.0,0.0
9360,93.0,0,30,0.0,0.0
9361,88.0,1,30,0.0,0.0
9362,76.0,2,30,8.0,0.0
9363,57.0,2,30,4.0,0.0
9364,81.0,0,30,8.0,0.0
9365,76.0,0,30,1.0,0.0
9366,81.0,0,30,1.0,0.0
9367,64.0,0,30,4.0,0.0
9368,79.0,0,30,2.0,0.0
9369,76.0,6,30,2.0,0.0
9370,61.0,1,50,12.0,0.0
9371,49.0,10,50,13.0,0.0
9372,67.0,0,30,3.0,0.0
9373,64.0,15,30,3.0,0.0
9374,37.0,20,55,14.0,0.0
9375,91.0,2,30,7.0,0.0
9376,88.0,1,30,7.0,0.0
9377,81.0,2,30,7.0,0.0
9378,69.0,1,30,8.0,0.0
9379,79.0,0,30,8.0,0.0
9380,76.0,2,30,8.0,0.0
9381,76.0,0,30,2.0,0.0
9382,69.0,1,30,2.0,0.0
9383,49.0,1,30,12.0,0.0
9384,37.0,4,30,13.0,0.0
9385,64.0,0,30,3.0,0.0
9386,57.0,45,30,3.0,0.0
9387,89.0,2,30,7.0,0.0
9388,81.0,1,30,7.0,0.0
9389,86.0,4,30,7.0,0.0
9390,77.0,0,30,8.0,0.0
9391,74.0,0,30,8.0,0.0
9392,69.0,2,30,8.0,0.0
9393,74.0,0,30,2.0,0.0
9394,77.0,1,30,2.0,0.0
9395,50.0,1,30,12.0,0.0
9396,38.0,4,30,13.0,0.0
9397,65.0,45,30,3.0,0.0
9398,62.0,0,30,3.0,0.0
9399,88.0,3,30,7.0,0.0
9400,85.0,0,30,7.0,0.0
9401,79.0,2,30,7.0,0.0
9402,76.0,1,30,8.0,0.0
9403,73.0,0,30,8.0,0.0
9404,67.0,3,30,8.0,0.0
9405,73.0,0,30,2.0,0.0
9406,67.0,1,30,2.0,0.0
9407,52.0,1,30,12.0,0.0
9408,40.0,4,30,13.0,0.0
9409,55.0,0,30,3.0,0.0
9410,61.0,45,30,3.0,0.0
9411,86.0,3,30,7.0,0.0
9412,77.0,0,30,7.0,0.0
9413,81.0,2,30,7.0,0.0
9414,69.0,2,30,8.0,0.0
9415,65.0,2,30,8.0,0.0
9416,74.0,0,30,8.0,0.0
9417,65.0,1,30,2.0,0.0
9418,74.0,0,30,2.0,0.0
9419,53.0,1,30,12.0,0.0
9420,41.0,4,30,13.0,0.0
9421,62.0,0,30,3.0,0.0
9422,53.0,47,30,3.0,0.0
9423,83.0,0,30,7.0,0.0
9424,88.0,2,30,7.0,0.0
9425,76.0,2,30,7.0,0.0
9426,71.0,1,30,8.0,0.0
9427,64.0,2,30,8.0,0.0
9428,64.0,1,30,2.0,0.0
9429,71.0,0,30,2.0,0.0
9430,56.0,1,30,12.0,0.0
9431,44.0,4,30,13.0,0.0
9432,59.0,0,30,3.0,0.0
9433,52.0,47,30,3.0,0.0
9434,85.0,1,30,7.0,0.0
9435,81.0,1,30,7.0,0.0
9436,76.0,1,30,7.0,0.0
9437,69.0,2,30,8.0,0.0
9438,73.0,2,30,8.0,0.0
9439,69.0,0,30,2.0,0.0
9440,73.0,1,30,2.0,0.0
9441,57.0,1,30,12.0,0.0
9442,45.0,4,30,13.0,0.0
9443,57.0,48,30,3.0,0.0
9444,61.0,0,30,3.0,0.0
9445,76.0,1,30,10.0,0.0
9446,88.0,0,30,0.0,0.0
9447,80.0,1,30,0.0,0.0
9448,68.0,2,30,11.0,0.0
9449,64.0,2,30,4.0,0.0
9450,68.0,0,30,1.0,0.0
9451,76.0,0,30,1.0,0.0
9452,71.0,1,30,2.0,0.0
9453,76.0,0,30,2.0,0.0
9454,64.0,1,30,12.0,0.0
9455,52.0,4,30,13.0,0.0
9456,64.0,0,30,3.0,0.0
9457,52.0,1,30,3.0,0.0
9458,40.0,47,30,14.0,0.0
9459,73.0,1,30,10.0,0.0
9460,81.0,1,30,0.0,0.0
9461,85.0,0,30,0.0,0.0
9462,69.0,1,30,11.0,0.0
9463,57.0,1,30,6.0,0.0
9464,69.0,0,30,6.0,0.0
9465,57.0,2,30,4.0,0.0
9466,64.0,0,30,4.0,0.0
9467,69.0,0,30,1.0,0.0
9468,76.0,0,30,1.0,0.0
9469,69.0,1,30,2.0,0.0
9470,73.0,0,30,2.0,0.0
9471,69.0,1,30,12.0,0.0
9472,57.0,4,30,13.0,0.0
9473,61.0,0,30,3.0,0.0
9474,57.0,1,30,3.0,0.0
9475,45.0,32,30,14.0,0.0
9476,45.0,15,60,15.0,0.0
9477,68.0,1,30,10.0,0.0
9478,76.0,0,30,0.0,0.0
9479,80.0,1,30,0.0,0.0
9480,64.0,2,30,11.0,0.0
9481,71.0,2,30,1.0,0.0
9482,80.0,0,30,1.0,0.0
9483,64.0,0,30,4.0,0.0
9484,68.0,1,30,2.0,0.0
9485,71.0,0,30,2.0,0.0
9486,64.0,1,30,12.0,0.0
9487,52.0,4,30,13.0,0.0
9488,52.0,0,30,3.0,0.0
9489,59.0,1,30,3.0,0.0
9490,40.0,47,30,14.0,0.0
9491,69.0,1,30,10.0,0.0
9492,81.0,1,30,0.0,0.0
9493,76.0,0,30,0.0,0.0
9494,64.0,1,30,11.0,0.0
9495,69.0,0,30,6.0,0.0
9496,57.0,1,30,6.0,0.0
9497,57.0,0,30,4.0,0.0
9498,64.0,0,30,4.0,0.0
9499,73.0,0,30,1.0,0.0
9500,81.0,2,30,1.0,0.0
9501,73.0,0,30,2.0,0.0
9502,69.0,1,30,2.0,0.0
9503,69.0,1,30,12.0,0.0
9504,57.0,4,30,13.0,0.0
9505,57.0,0,30,3.0,0.0
9506,45.0,1,30,3.0,0.0
9507,45.0,32,30,14.0,0.0
9508,45.0,21,60,15.0,0.0
9509,69.0,2,60,10.0,0.0
9510,57.0,5,60,11.0,0.0
9511,57.0,0,30,2.0,0.0
9512,69.0,6,30,2.0,0.0
9513,57.0,1,60,12.0,0.0
9514,45.0,5,60,13.0,0.0
9515,57.0,0,30,3.0,0.0
9516,45.0,18,30,3.0,0.0
9517,45.0,8,60,14.0,0.0
9518,62.0,21,120,7.0,0.0
9519,62.0,2,60,10.0,0.0
9520,53.0,0,120,7.0,0.0
9521,62.0,5,60,11.0,0.0
9522,38.0,15,18,8.0,0.0
9523,62.0,6,30,2.0,0.0
9524,50.0,1,60,12.0,0.0
9525,38.0,5,60,13.0,0.0
9526,50.0,9,30,3.0,0.0
9527,38.0,0,30,3.0,0.0
9528,38.0,8,60,14.0,0.0
9529,53.0,9,18,8.0,0.0
9530,50.0,30,18,8.0,0.0
9531,45.0,9,18,8.0,0.0
9532,64.0,0,60,7.0,0.0
9533,57.0,8,60,7.0,0.0
9534,41.0,30,18,8.0,0.0
9535,50.0,13,60,13.0,0.0
9536,53.0,9,18,8.0,0.0
9537,65.0,26,55,7.0,0.0
9538,62.0,0,55,7.0,0.0
9539,50.0,30,18,8.0,0.0
9540,45.0,4,18,8.0,0.0
9541,69.0,21,120,7.0,0.0
9542,36.0,30,18,8.0,0.0
9543,36.0,13,60,13.0,0.0
9544,57.0,17,18,8.0,0.0
9545,52.0,30,18,8.0,0.0
9546,48.0,9,18,8.0,0.0
9547,60.0,0,60,7.0,0.0
9548,64.0,0,0,7.0,0.0
9549,45.0,30,18,8.0,0.0
9550,48.0,13,60,13.0,0.0
9551,57.0,9,18,8.0,0.0
9552,60.0,0,60,7.0,0.0
9553,69.0,21,60,7.0,0.0
9554,64.0,0,60,7.0,0.0
9555,52.0,30,18,8.0,0.0
9556,48.0,9,18,8.0,0.0
9557,74.0,3,120,7.0,0.0
9558,69.0,0,120,7.0,0.0
9559,65.0,21,120,7.0,0.0
9560,35.0,30,18,8.0,0.0
9561,47.0,13,60,13.0,0.0
9562,62.0,17,18,8.0,0.0
9563,57.0,30,18,8.0,0.0
9564,53.0,6,18,8.0,0.0
9565,74.0,3,34,7.0,0.0
9566,68.0,0,34,7.0,0.0
9567,71.0,17,34,7.0,0.0
9568,40.0,10,18,8.0,0.0
9569,40.0,3,60,13.0,0.0
9570,62.0,17,18,8.0,0.0
9571,76.0,3,34,7.0,0.0
9572,68.0,7,34,7.0,0.0
9573,71.0,0,34,7.0,0.0
9574,56.0,30,18,8.0,0.0
9575,77.0,3,34,7.0,0.0
9576,68.0,27,34,7.0,0.0
9577,71.0,0,34,7.0,0.0
9578,52.0,0,18,8.0,0.0
9579,77.0,3,120,7.0,0.0
9580,74.0,8,120,7.0,0.0
9581,45.0,30,18,8.0,0.0
9582,45.0,13,60,13.0,0.0
9583,65.0,17,18,8.0,0.0
9584,57.0,30,18,8.0,0.0
9585,47.0,6,18,8.0,0.0
9586,47.0,13,30,13.0,0.0
9587,76.0,3,60,7.0,0.0
9588,69.0,0,0,7.0,0.0
9589,49.0,30,18,8.0,0.0
9590,49.0,13,60,13.0,0.0
9591,61.0,6,18,8.0,0.0
9592,57.0,30,18,8.0,0.0
9593,52.0,30,18,8.0,0.0
9594,65.0,0,120,7.0,0.0
9595,62.0,21,120,7.0,0.0
9596,50.0,30,18,8.0,0.0
9597,50.0,13,60,13.0,0.0
9598,62.0,17,18,8.0,0.0
9599,57.0,30,18,8.0,0.0
9600,53.0,9,18,8.0,0.0
9601,74.0,3,60,7.0,0.0
9602,69.0,0,60,7.0,0.0
9603,65.0,8,60,7.0,0.0
9604,48.0,30,18,8.0,0.0
9605,48.0,13,60,13.0,0.0
9606,65.0,6,18,8.0,0.0
9607,77.0,3,60,7.0,0.0
9608,74.0,0,60,7.0,0.0
9609,69.0,21,60,7.0,0.0
9610,62.0,30,18,8.0,0.0
9611,57.0,6,18,8.0,0.0
9612,74.0,21,120,7.0,0.0
9613,47.0,30,18,8.0,0.0
9614,47.0,13,60,13.0,0.0
9615,65.0,17,18,8.0,0.0
9616,62.0,30,18,8.0,0.0
9617,57.0,9,18,8.0,0.0
9618,72.0,0,120,7.0,0.0
9619,45.0,30,18,8.0,0.0
9620,45.0,13,60,13.0,0.0
9621,65.0,7,18,8.0,0.0
9622,81.0,2,0,7.0,0.0
9623,77.0,8,0,7.0,0.0
9624,69.0,0,0,7.0,0.0
9625,60.0,30,18,8.0,0.0
9626,57.0,7,18,8.0,0.0
9627,83.0,2,90,7.0,0.0
9628,79.0,12,90,7.0,0.0
9629,71.0,0,90,7.0,0.0
9630,44.0,30,18,8.0,0.0
9631,44.0,13,60,13.0,0.0
9632,64.0,17,18,8.0,0.0
9633,59.0,7,18,8.0,0.0
9634,84.0,9,15,7.0,0.0
9635,56.0,6,18,8.0,0.0
9636,83.0,24,15,7.0,0.0
9637,81.0,10,60,7.0,0.0
9638,64.0,21,120,10.0,0.0
9639,40.0,30,18,8.0,0.0
9640,40.0,13,60,13.0,0.0
9641,64.0,7,18,8.0,0.0
9642,83.0,2,60,7.0,0.0
9643,71.0,0,60,7.0,0.0
9644,76.0,0,60,7.0,0.0
9645,59.0,30,18,8.0,0.0
9646,55.0,7,18,8.0,0.0
9647,84.0,4,120,7.0,0.0
9648,72.0,0,120,7.0,0.0
9649,72.0,2,120,10.0,0.0
9650,81.0,0,120,7.0,0.0
9651,69.0,16,120,11.0,0.0
9652,33.0,27,18,8.0,0.0
9653,45.0,5,60,13.0,0.0
9654,33.0,5,60,14.0,0.0
9655,64.0,20,15,8.0,0.0
9656,60.0,30,15,8.0,0.0
9657,57.0,8,15,8.0,0.0
9658,82.0,2,120,7.0,0.0
9659,70.0,0,120,7.0,0.0
9660,76.0,0,0,7.0,0.0
9661,79.0,0,120,7.0,0.0
9662,70.0,0,120,10.0,0.0
9663,67.0,5,120,11.0,0.0
9664,33.0,30,15,8.0,0.0
9665,48.0,5,60,13.0,0.0
9666,36.0,5,60,14.0,0.0
9667,64.0,20,15,8.0,0.0
9668,60.0,30,15,8.0,0.0
9669,57.0,10,15,8.0,0.0
9670,81.0,2,120,7.0,0.0
9671,69.0,0,120,10.0,0.0
9672,77.0,0,120,7.0,0.0
9673,69.0,0,120,7.0,0.0
9674,72.0,2,120,7.0,0.0
9675,65.0,5,120,11.0,0.0
9676,41.0,30,15,8.0,0.0
9677,64.0,11,0,12.0,0.0
9678,53.0,5,60,13.0,0.0
9679,41.0,5,60,14.0,0.0
9680,65.0,20,15,8.0,0.0
9681,60.0,30,15,8.0,0.0
9682,57.0,10,15,8.0,0.0
9683,79.0,2,120,7.0,0.0
9684,73.0,0,120,7.0,0.0
9685,67.0,0,120,7.0,0.0
9686,67.0,0,120,10.0,0.0
9687,64.0,16,240,11.0,0.0
9688,45.0,30,15,8.0,0.0
9689,65.0,11,120,12.0,0.0
9690,57.0,5,60,13.0,0.0
9691,45.0,5,60,14.0,0.0
9692,64.0,20,15,8.0,0.0
9693,61.0,30,15,8.0,0.0
9694,57.0,10,15,8.0,0.0
9695,78.0,2,120,7.0,0.0
9696,69.0,0,0,7.0,0.0
9697,66.0,0,120,7.0,0.0
9698,76.0,7,0,7.0,0.0
9699,66.0,2,120,10.0,0.0
9700,38.0,30,15,8.0,0.0
9701,57.0,11,240,12.0,0.0
9702,50.0,5,60,13.0,0.0
9703,38.0,5,60,14.0,0.0
9704,64.0,20,15,8.0,0.0
9705,57.0,30,15,8.0,0.0
9706,54.0,10,15,8.0,0.0
9707,77.0,2,120,7.0,0.0
9708,69.0,0,0,7.0,0.0
9709,74.0,2,120,7.0,0.0
9710,65.0,0,120,7.0,0.0
9711,65.0,0,120,10.0,0.0
9712,62.0,5,120,11.0,0.0
9713,41.0,30,15,8.0,0.0
9714,41.0,5,60,13.0,0.0
9715,29.0,5,60,14.0,0.0
9716,62.0,20,15,8.0,0.0
9717,57.0,30,15,8.0,0.0
9718,53.0,10,15,8.0,0.0
9719,75.0,2,120,7.0,0.0
9720,63.0,2,120,7.0,0.0
9721,67.0,0,120,7.0,0.0
9722,70.0,0,120,7.0,0.0
9723,63.0,0,120,10.0,0.0
9724,58.0,5,120,11.0,0.0
9725,43.0,30,15,8.0,0.0
9726,55.0,11,120,12.0,0.0
9727,43.0,5,60,13.0,0.0
9728,31.0,5,60,14.0,0.0
9729,58.0,20,15,8.0,0.0
9730,55.0,30,15,8.0,0.0
9731,51.0,10,15,8.0,0.0
9732,74.0,2,120,7.0,0.0
9733,71.0,0,120,7.0,0.0
9734,65.0,0,120,7.0,0.0
9735,62.0,2,120,7.0,0.0
9736,62.0,0,120,10.0,0.0
9737,59.0,5,120,11.0,0.0
9738,44.0,30,15,8.0,0.0
9739,56.0,11,120,12.0,0.0
9740,44.0,5,60,13.0,0.0
9741,32.0,5,60,14.0,0.0
9742,59.0,20,15,8.0,0.0
9743,53.0,30,15,8.0,0.0
9744,50.0,10,15,8.0,0.0
9745,61.0,0,120,7.0,0.0
9746,64.0,0,120,7.0,0.0
9747,69.0,2,120,7.0,0.0
9748,73.0,0,120,7.0,0.0
9749,61.0,0,120,10.0,0.0
9750,57.0,5,120,11.0,0.0
9751,45.0,30,15,8.0,0.0
9752,57.0,48,120,12.0,0.0
9753,45.0,5,60,13.0,0.0
9754,33.0,5,60,14.0,0.0
9755,57.0,20,15,8.0,0.0
9756,52.0,30,15,8.0,0.0
9757,49.0,12,15,8.0,0.0
9758,45.0,35,52,8.0,0.0
9759,57.0,25,30,7.0,0.0
9760,45.0,5,52,8.0,0.0
9761,33.0,0,52,8.0,0.0
9762,69.0,30,30,7.0,0.0
9763,67.0,30,30,7.0,0.0
9764,67.0,0,120,10.0,0.0
9765,64.0,1,120,11.0,0.0
9766,55.0,27,60,8.0,0.0
9767,43.0,0,60,8.0,0.0
9768,61.0,1,120,12.0,0.0
9769,57.0,22,120,13.0,0.0
9770,79.0,3,30,7.0,0.0
9771,64.0,30,30,7.0,0.0
9772,40.0,4,60,8.0,0.0
9773,52.0,0,60,8.0,0.0
9774,76.0,2,30,7.0,0.0
9775,61.0,25,30,7.0,0.0
9776,37.0,0,52,8.0,0.0
9777,49.0,35,52,8.0,0.0
9778,73.0,0,25,7.0,0.0
9779,57.0,25,30,7.0,0.0
9780,45.0,0,52,8.0,0.0
9781,33.0,5,52,8.0,0.0
9782,69.0,30,30,7.0,0.0
9783,65.0,2,120,10.0,0.0
9784,69.0,30,30,7.0,0.0
9785,65.0,1,120,11.0,0.0
9786,57.0,0,60,8.0,0.0
9787,45.0,27,60,8.0,0.0
9788,62.0,1,120,12.0,0.0
9789,57.0,22,120,13.0,0.0
9790,81.0,3,30,7.0,0.0
9791,65.0,30,30,7.0,0.0
9792,53.0,4,60,8.0,0.0
9793,41.0,0,60,8.0,0.0
9794,77.0,0,30,7.0,0.0
9795,62.0,25,30,7.0,0.0
9796,38.0,0,52,8.0,0.0
9797,50.0,0,52,8.0,0.0
9798,74.0,35,25,7.0,0.0
9799,57.0,25,30,7.0,0.0
9800,33.0,0,52,8.0,0.0
9801,45.0,5,52,8.0,0.0
9802,69.0,30,30,7.0,0.0
9803,65.0,2,120,10.0,0.0
9804,71.0,30,30,7.0,0.0
9805,62.0,1,120,11.0,0.0
9806,47.0,0,60,8.0,0.0
9807,59.0,27,60,8.0,0.0
9808,62.0,1,120,12.0,0.0
9809,57.0,22,120,13.0,0.0
9810,83.0,3,30,7.0,0.0
9811,65.0,30,30,7.0,0.0
9812,53.0,0,60,8.0,0.0
9813,41.0,4,60,8.0,0.0
9814,77.0,0,30,7.0,0.0
9815,62.0,25,30,7.0,0.0
9816,50.0,0,52,8.0,0.0
9817,38.0,0,52,8.0,0.0
9818,74.0,35,25,7.0,0.0
9819,57.0,25,30,7.0,0.0
9820,45.0,5,52,8.0,0.0
9821,33.0,0,52,8.0,0.0
9822,69.0,30,30,7.0,0.0
9823,64.0,0,60,10.0,0.0
9824,73.0,25,30,7.0,0.0
9825,69.0,2,60,10.0,0.0
9826,64.0,5,60,11.0,0.0
9827,49.0,0,52,8.0,0.0
9828,61.0,5,52,8.0,0.0
9829,57.0,1,60,12.0,0.0
9830,57.0,22,60,13.0,0.0
9831,85.0,0,30,7.0,0.0
9832,57.0,25,30,7.0,0.0
9833,33.0,0,52,8.0,0.0
9834,45.0,5,52,8.0,0.0
9835,69.0,30,30,7.0,0.0
9836,76.0,2,60,10.0,0.0
9837,76.0,25,30,7.0,0.0
9838,73.0,5,60,11.0,0.0
9839,64.0,0,52,8.0,0.0
9840,52.0,5,52,8.0,0.0
9841,64.0,1,60,12.0,0.0
9842,45.0,22,60,13.0,0.0
9843,88.0,0,30,7.0,0.0
9844,57.0,25,30,7.0,0.0
9845,33.0,5,52,8.0,0.0
9846,45.0,0,52,8.0,0.0
9847,69.0,30,30,7.0,0.0
9848,79.0,25,30,7.0,0.0
9849,76.0,0,60,10.0,0.0
9850,73.0,5,60,11.0,0.0
9851,55.0,0,52,8.0,0.0
9852,67.0,5,52,8.0,0.0
9853,67.0,1,60,12.0,0.0
9854,45.0,22,60,13.0,0.0
9855,91.0,2,30,7.0,0.0
9856,57.0,25,30,7.0,0.0
9857,33.0,5,52,8.0,0.0
9858,45.0,0,52,8.0,0.0
9859,69.0,30,30,7.0,0.0
9860,80.0,25,30,7.0,0.0
9861,74.0,0,60,10.0,0.0
9862,71.0,5,60,11.0,0.0
9863,56.0,0,52,8.0,0.0
9864,68.0,5,52,8.0,0.0
9865,65.0,1,60,12.0,0.0
9866,45.0,22,60,13.0,0.0
9867,92.0,2,30,7.0,0.0
9868,57.0,25,30,7.0,0.0
9869,45.0,5,52,8.0,0.0
9870,33.0,0,52,8.0,0.0
9871,69.0,30,30,7.0,0.0
9872,81.0,25,30,7.0,0.0
9873,73.0,0,60,10.0,0.0
9874,69.0,5,60,11.0,0.0
9875,57.0,5,52,8.0,0.0
9876,69.0,0,52,8.0,0.0
9877,64.0,1,60,12.0,0.0
9878,45.0,22,60,13.0,0.0
9879,93.0,2,30,7.0,0.0
9880,57.0,3,30,7.0,0.0
9881,33.0,27,30,8.0,0.0
9882,69.0,3,30,7.0,0.0
9883,45.0,27,30,8.0,0.0
9884,82.0,3,30,7.0,0.0
9885,58.0,27,30,8.0,0.0
9886,94.0,3,30,7.0,0.0
9887,70.0,27,30,8.0,0.0
9888,79.0,3,30,7.0,0.0
9889,55.0,22,30,8.0,0.0
9890,91.0,3,25,7.0,0.0
9891,67.0,32,25,8.0,0.0
9892,76.0,3,30,7.0,0.0
9893,52.0,27,30,8.0,0.0
9894,88.0,3,30,7.0,0.0
9895,64.0,27,30,8.0,0.0
9896,73.0,3,30,7.0,0.0
9897,49.0,27,30,8.0,0.0
9898,85.0,3,30,7.0,0.0
9899,61.0,27,30,8.0,0.0
9900,70.0,3,30,7.0,0.0
9901,46.0,27,30,8.0,0.0
9902,82.0,3,30,7.0,0.0
9903,58.0,27,30,8.0,0.0
9904,67.0,3,30,7.0,0.0
9905,43.0,22,30,8.0,0.0
9906,79.0,3,25,7.0,0.0
9907,55.0,32,25,8.0,0.0
9908,65.0,3,30,7.0,0.0
9909,44.0,27,30,8.0,0.0
9910,77.0,3,30,7.0,0.0
9911,56.0,27,30,8.0,0.0
9912,62.0,3,30,7.0,0.0
9913,41.0,27,30,8.0,0.0
9914,74.0,3,30,7.0,0.0
9915,53.0,27,30,8.0,0.0
9916,59.0,3,30,7.0,0.0
9917,38.0,27,30,8.0,0.0
9918,71.0,3,30,7.0,0.0
9919,50.0,27,30,8.0,0.0
9920,56.0,3,30,7.0,0.0
9921,35.0,22,30,8.0,0.0
9922,68.0,3,25,7.0,0.0
9923,47.0,32,25,8.0,0.0
9924,57.0,3,30,7.0,0.0
9925,37.0,27,30,8.0,0.0
9926,69.0,3,30,7.0,0.0
9927,49.0,27,30,8.0,0.0
9928,52.0,3,30,7.0,0.0
9929,33.0,27,30,8.0,0.0
9930,64.0,3,30,7.0,0.0
9931,45.0,27,30,8.0,0.0
9932,49.0,3,30,7.0,0.0
9933,28.0,27,30,8.0,0.0
9934,61.0,3,30,7.0,0.0
9935,40.0,27,30,8.0,0.0
9936,45.0,3,30,7.0,0.0
9937,25.0,27,30,8.0,0.0
9938,57.0,3,30,7.0,0.0
9939,37.0,17,30,8.0,0.0
9940,63.0,15,20,10.0,0.0
9941,57.0,1,30,12.0,0.0
9942,69.0,3,20,10.0,0.0
9943,45.0,2,0,15.0,0.0
9944,51.0,1,30,12.0,0.0
9945,49.0,2,0,13.0,0.0
9946,63.0,7,20,10.0,0.0
9947,37.0,12,0,14.0,0.0
9948,69.0,15,20,10.0,0.0
9949,57.0,1,30,12.0,0.0
9950,45.0,5,0,15.0,0.0
9951,63.0,3,20,10.0,0.0
9952,45.0,5,20,15.0,0.0
9953,51.0,1,30,12.0,0.0
9954,49.0,2,0,13.0,0.0
9955,69.0,7,20,10.0,0.0
9956,37.0,12,0,14.0,0.0
9957,63.0,15,20,10.0,0.0
9958,57.0,1,30,12.0,0.0
9959,37.0,12,30,14.0,0.0
9960,45.0,5,0,15.0,0.0
9961,69.0,3,20,10.0,0.0
9962,45.0,5,20,15.0,0.0
9963,51.0,1,30,12.0,0.0
9964,49.0,2,0,13.0,0.0
9965,63.0,7,20,10.0,0.0
9966,37.0,2,30,14.0,0.0
9967,45.0,5,20,15.0,0.0
9968,69.0,15,20,10.0,0.0
9969,57.0,1,30,12.0,0.0
9970,49.0,5,0,13.0,0.0
9971,37.0,12,30,14.0,0.0
9972,63.0,3,20,10.0,0.0
9973,45.0,2,0,15.0,0.0
9974,51.0,6,25,12.0,0.0
9975,49.0,5,30,13.0,0.0
9976,69.0,0,15,10.0,0.0
9977,37.0,2,30,14.0,0.0
9978,45.0,7,0,15.0,0.0
9979,62.0,2,20,10.0,0.0
9980,69.0,13,20,11.0,0.0
9981,50.0,2,240,5.0,0.0
9982,50.0,1,30,12.0,0.0
9983,50.0,0,30,3.0,0.0
9984,36.0,12,30,14.0,0.0
9985,50.0,2,20,15.0,0.0
9986,74.0,2,20,10.0,0.0
9987,62.0,1,20,11.0,0.0
9988,50.0,5,20,15.0,0.0
9989,48.0,2,0,13.0,0.0
9990,62.0,2,20,10.0,0.0
9991,69.0,6,20,11.0,0.0
9992,36.0,2,30,14.0,0.0
9993,50.0,5,20,15.0,0.0
9994,74.0,2,20,10.0,0.0
9995,62.0,13,20,11.0,0.0
9996,55.0,3,110,12.0,0.0
9997,48.0,2,30,13.0,0.0
9998,55.0,0,110,3.0,0.0
9999,36.0,12,30,14.0,0.0
10000,50.0,3,20,15.0,0.0
10001,62.0,2,20,10.0,0.0
10002,69.0,1,20,11.0,0.0
10003,74.0,2,20,10.0,0.0
10004,62.0,6,20,11.0,0.0
10005,36.0,2,30,14.0,0.0
10006,50.0,5,0,15.0,0.0
10007,62.0,2,20,10.0,0.0
10008,69.0,13,20,11.0,0.0
10009,48.0,5,0,13.0,0.0
10010,50.0,5,0,15.0,0.0
10011,74.0,2,20,10.0,0.0
10012,62.0,1,20,11.0,0.0
10013,50.0,2,20,15.0,0.0
10014,48.0,2,0,13.0,0.0
10015,62.0,2,20,10.0,0.0
10016,69.0,6,20,11.0,0.0
10017,36.0,12,0,14.0,0.0
10018,50.0,5,20,15.0,0.0
10019,74.0,2,20,10.0,0.0
10020,62.0,13,20,11.0,0.0
10021,57.0,1,30,12.0,0.0
10022,57.0,0,30,3.0,0.0
10023,36.0,2,0,14.0,0.0
10024,62.0,2,20,10.0,0.0
10025,69.0,1,20,11.0,0.0
10026,50.0,2,0,15.0,0.0
10027,48.0,2,0,13.0,0.0
10028,74.0,0,15,10.0,0.0
10029,62.0,9,15,11.0,0.0
10030,36.0,12,0,14.0,0.0
10031,50.0,2,0,15.0,0.0
10032,74.0,2,20,10.0,0.0
10033,74.0,10,20,11.0,0.0
10034,62.0,2,240,5.0,0.0
10035,62.0,1,25,12.0,0.0
10036,50.0,0,25,12.0,0.0
10037,46.0,2,25,13.0,0.0
10038,62.0,3,480,3.0,0.0
10039,34.0,2,25,14.0,0.0
10040,50.0,3,20,15.0,0.0
10041,81.0,2,20,10.0,0.0
10042,69.0,13,20,11.0,0.0
10043,50.0,5,20,15.0,0.0
10044,62.0,0,25,12.0,0.0
10045,50.0,0,25,12.0,0.0
10046,46.0,5,25,13.0,0.0
10047,74.0,2,20,10.0,0.0
10048,74.0,1,20,11.0,0.0
10049,34.0,7,25,14.0,0.0
10050,81.0,2,20,10.0,0.0
10051,69.0,10,20,11.0,0.0
10052,62.0,0,25,12.0,0.0
10053,50.0,1,25,12.0,0.0
10054,46.0,2,25,13.0,0.0
10055,34.0,2,25,14.0,0.0
10056,50.0,5,0,15.0,0.0
10057,74.0,2,20,10.0,0.0
10058,74.0,13,20,11.0,0.0
10059,50.0,3,0,15.0,0.0
10060,62.0,0,25,12.0,0.0
10061,50.0,1,25,12.0,0.0
10062,46.0,5,25,13.0,0.0
10063,81.0,2,20,10.0,0.0
10064,69.0,0,20,11.0,0.0
10065,34.0,7,25,14.0,0.0
10066,50.0,5,20,15.0,0.0
10067,74.0,2,20,10.0,0.0
10068,74.0,10,20,11.0,0.0
10069,62.0,1,25,12.0,0.0
10070,50.0,0,25,12.0,0.0
10071,46.0,2,25,13.0,0.0
10072,34.0,2,25,14.0,0.0
10073,81.0,2,20,10.0,0.0
10074,69.0,13,20,11.0,0.0
10075,50.0,3,0,15.0,0.0
10076,62.0,0,25,12.0,0.0
10077,50.0,1,25,12.0,0.0
10078,46.0,5,25,13.0,0.0
10079,74.0,2,20,10.0,0.0
10080,74.0,0,20,11.0,0.0
10081,34.0,7,25,14.0,0.0
10082,50.0,5,0,15.0,0.0
10083,81.0,2,20,10.0,0.0
10084,69.0,10,20,11.0,0.0
10085,62.0,1,25,12.0,0.0
10086,50.0,0,25,12.0,0.0
10087,46.0,2,25,13.0,0.0
10088,34.0,2,25,14.0,0.0
10089,50.0,3,20,15.0,0.0
10090,74.0,2,20,10.0,0.0
10091,74.0,13,20,11.0,0.0
10092,50.0,0,20,15.0,0.0
10093,50.0,0,25,12.0,0.0
10094,62.0,1,25,12.0,0.0
10095,46.0,3,25,13.0,0.0
10096,81.0,2,15,10.0,0.0
10097,69.0,5,15,11.0,0.0
10098,34.0,7,25,14.0,0.0
10099,74.0,2,20,10.0,0.0
10100,74.0,2,30,0.0,0.0
10101,81.0,9,20,11.0,0.0
10102,74.0,0,30,1.0,0.0
10103,62.0,0,30,1.0,0.0
10104,62.0,1,30,4.0,0.0
10105,62.0,1,30,12.0,0.0
10106,45.0,1,25,13.0,0.0
10107,33.0,2,25,14.0,0.0
10108,50.0,5,0,15.0,0.0
10109,86.0,2,20,10.0,0.0
10110,74.0,13,20,11.0,0.0
10111,67.0,1,30,12.0,0.0
10112,45.0,4,25,13.0,0.0
10113,74.0,2,20,10.0,0.0
10114,81.0,1,20,11.0,0.0
10115,33.0,7,25,14.0,0.0
10116,50.0,5,0,15.0,0.0
10117,86.0,2,20,10.0,0.0
10118,79.0,3,110,0.0,0.0
10119,74.0,11,20,11.0,0.0
10120,67.0,0,110,1.0,0.0
10121,67.0,1,110,4.0,0.0
10122,79.0,0,110,1.0,0.0
10123,62.0,1,30,12.0,0.0
10124,45.0,2,25,13.0,0.0
10125,33.0,2,25,14.0,0.0
10126,50.0,5,0,15.0,0.0
10127,74.0,2,20,10.0,0.0
10128,81.0,13,20,11.0,0.0
10129,50.0,2,0,15.0,0.0
10130,67.0,1,30,12.0,0.0
10131,45.0,4,25,13.0,0.0
10132,86.0,2,20,10.0,0.0
10133,74.0,1,20,11.0,0.0
10134,33.0,7,25,14.0,0.0
10135,50.0,5,0,15.0,0.0
10136,74.0,2,20,10.0,0.0
10137,81.0,11,20,11.0,0.0
10138,62.0,1,30,12.0,0.0
10139,45.0,2,25,13.0,0.0
10140,33.0,2,25,14.0,0.0
10141,50.0,5,0,15.0,0.0
10142,86.0,2,20,10.0,0.0
10143,74.0,9,20,11.0,0.0
10144,50.0,5,20,15.0,0.0
10145,67.0,1,30,12.0,0.0
10146,45.0,4,25,13.0,0.0
10147,74.0,2,20,10.0,0.0
10148,81.0,1,20,11.0,0.0
10149,33.0,7,25,14.0,0.0
10150,50.0,5,20,15.0,0.0
10151,86.0,2,20,10.0,0.0
10152,81.0,2,30,0.0,0.0
10153,74.0,9,20,11.0,0.0
10154,69.0,0,30,4.0,0.0
10155,69.0,1,30,1.0,0.0
10156,81.0,0,30,1.0,0.0
10157,62.0,1,30,12.0,0.0
10158,45.0,1,25,13.0,0.0
10159,33.0,2,25,14.0,0.0
10160,50.0,2,20,15.0,0.0
10161,74.0,2,20,10.0,0.0
10162,81.0,13,20,11.0,0.0
10163,67.0,1,25,12.0,0.0
10164,45.0,0,25,13.0,0.0
10165,86.0,0,15,10.0,0.0
10166,74.0,5,15,11.0,0.0
10167,33.0,4,25,14.0,0.0
10168,50.0,2,0,15.0,0.0
10169,74.0,0,90,10.0,0.0
10170,86.0,1,90,10.0,0.0
10171,86.0,1,90,0.0,0.0
10172,74.0,2,90,11.0,0.0
10173,77.0,0,90,11.0,0.0
10174,62.0,3,0,6.0,0.0
10175,74.0,0,210,6.0,0.0
10176,62.0,0,210,4.0,0.0
10177,86.0,2,90,1.0,0.0
10178,74.0,0,90,1.0,0.0
10179,74.0,2,210,4.0,0.0
10180,74.0,2,0,2.0,0.0
10181,77.0,0,90,2.0,0.0
10182,65.0,0,90,12.0,0.0
10183,59.0,1,90,12.0,0.0
10184,44.0,4,90,13.0,0.0
10185,65.0,0,90,3.0,0.0
10186,62.0,1,90,3.0,0.0
10187,32.0,32,90,14.0,0.0
10188,50.0,75,0,15.0,0.0
10189,89.0,1,90,10.0,0.0
10190,77.0,0,90,10.0,0.0
10191,89.0,1,90,0.0,0.0
10192,77.0,0,90,11.0,0.0
10193,62.0,1,90,11.0,0.0
10194,71.0,0,90,11.0,0.0
10195,77.0,0,90,1.0,0.0
10196,74.0,0,90,1.0,0.0
10197,65.0,0,90,5.0,0.0
10198,74.0,0,90,2.0,0.0
10199,62.0,0,90,5.0,0.0
10200,71.0,1,90,2.0,0.0
10201,56.0,0,90,12.0,0.0
10202,65.0,5,90,12.0,0.0
10203,56.0,33,90,3.0,0.0
10204,44.0,0,90,3.0,0.0
10205,50.0,83,120,15.0,0.0
10206,47.0,5,90,13.0,0.0
10207,35.0,107,90,14.0,0.0
10208,80.0,0,90,10.0,0.0
10209,74.0,0,90,10.0,0.0
10210,62.0,1,90,10.0,0.0
10211,77.0,1,90,0.0,0.0
10212,80.0,0,90,0.0,0.0
10213,77.0,1,90,11.0,0.0
10214,74.0,0,90,11.0,0.0
10215,62.0,1,90,6.0,0.0
10216,74.0,0,90,6.0,0.0
10217,62.0,0,90,4.0,0.0
10218,80.0,0,90,1.0,0.0
10219,77.0,2,90,1.0,0.0
10220,68.0,0,90,2.0,0.0
10221,74.0,1,90,2.0,0.0
10222,65.0,0,90,5.0,0.0
10223,62.0,0,90,5.0,0.0
10224,65.0,0,90,12.0,0.0
10225,59.0,5,90,12.0,0.0
10226,47.0,0,90,3.0,0.0
10227,59.0,25,90,3.0,0.0
10228,50.0,0,120,15.0,0.0
10229,65.0,0,120,10.0,0.0
10230,74.0,0,120,10.0,0.0
10231,81.0,0,120,10.0,0.0
10232,77.0,0,120,0.0,0.0
10233,81.0,1,120,0.0,0.0
10234,62.0,0,120,11.0,0.0
10235,81.0,0,120,11.0,0.0
10236,69.0,1,120,11.0,0.0
10237,69.0,0,120,6.0,0.0
10238,57.0,1,120,6.0,0.0
10239,69.0,0,120,4.0,0.0
10240,81.0,0,120,1.0,0.0
10241,45.0,4,3,15.0,0.0
10242,77.0,2,120,1.0,0.0
10243,57.0,0,120,4.0,0.0
10244,74.0,1,120,2.0,0.0
10245,69.0,0,120,2.0,0.0
10246,62.0,0,120,5.0,0.0
10247,65.0,0,120,5.0,0.0
10248,57.0,1,120,12.0,0.0
10249,65.0,0,120,12.0,0.0
10250,45.0,4,120,13.0,0.0
10251,45.0,4,1,15.0,0.0
10252,57.0,0,120,3.0,0.0
10253,45.0,1,120,3.0,0.0
10254,33.0,127,120,14.0,0.0
10255,45.0,3,3,15.0,0.0
10256,45.0,3,0,15.0,0.0
10257,45.0,3,0,15.0,0.0
10258,45.0,3,0,15.0,0.0
10259,45.0,3,0,15.0,0.0
10260,45.0,3,0,15.0,0.0
10261,45.0,3,3,15.0,0.0
10262,45.0,3,0,15.0,0.0
10263,45.0,3,0,15.0,0.0
10264,45.0,3,0,15.0,0.0
10265,45.0,3,3,15.0,0.0
10266,45.0,4,3,15.0,0.0
10267,45.0,3,0,15.0,0.0
10268,45.0,3,0,15.0,0.0
10269,45.0,4,3,15.0,0.0
10270,45.0,3,3,15.0,0.0
10271,45.0,3,0,15.0,0.0
10272,45.0,3,0,15.0,0.0
10273,45.0,3,3,15.0,0.0
10274,45.0,3,3,15.0,0.0
10275,45.0,3,3,15.0,0.0
10276,45.0,4,3,15.0,0.0
10277,45.0,3,0,15.0,0.0
10278,45.0,3,0,15.0,0.0
10279,45.0,1,5,15.0,0.0
10280,33.0,1,240,8.0,0.0
10281,45.0,20,20,8.0,0.0
10282,50.0,20,20,8.0,0.0
10283,53.0,20,20,8.0,0.0
10284,50.0,20,20,8.0,0.0
10285,53.0,20,20,8.0,0.0
10286,57.0,20,20,8.0,0.0
10287,45.0,20,600,8.0,0.0
10288,53.0,20,20,8.0,0.0
10289,57.0,20,20,8.0,0.0
10290,62.0,20,20,8.0,0.0
10291,57.0,20,20,8.0,0.0
10292,62.0,19,20,8.0,0.0
10293,65.0,20,20,8.0,0.0
10294,62.0,20,20,7.0,0.0
10295,53.0,0,480,8.0,0.0
10296,65.0,20,20,7.0,0.0
10297,69.0,20,20,7.0,0.0
10298,65.0,20,20,7.0,0.0
10299,69.0,20,20,7.0,0.0
10300,74.0,20,20,7.0,0.0
10301,69.0,20,20,7.0,0.0
10302,74.0,20,20,7.0,0.0
10303,77.0,20,20,7.0,0.0
10304,74.0,20,20,7.0,0.0
10305,77.0,20,20,7.0,0.0
10306,81.0,20,20,7.0,0.0
10307,79.0,20,20,7.0,0.0
10308,77.0,20,20,7.0,0.0
10309,76.0,20,20,7.0,0.0
10310,74.0,20,20,7.0,0.0
10311,77.0,20,20,7.0,0.0
10312,81.0,20,20,7.0,0.0
10313,79.0,20,20,7.0,0.0
10314,77.0,20,20,7.0,0.0
10315,76.0,20,20,7.0,0.0
10316,74.0,20,20,7.0,0.0
10317,77.0,20,20,7.0,0.0
10318,81.0,0,20,7.0,0.0
10319,45.0,20,20,8.0,0.0
10320,33.0,18,240,8.0,0.0
10321,50.0,20,20,8.0,0.0
10322,53.0,20,20,8.0,0.0
10323,50.0,20,20,8.0,0.0
10324,53.0,20,20,8.0,0.0
10325,59.0,20,20,8.0,0.0
10326,53.0,20,20,8.0,0.0
10327,45.0,18,600,8.0,0.0
10328,59.0,20,20,8.0,0.0
10329,62.0,20,20,8.0,0.0
10330,59.0,20,20,8.0,0.0
10331,62.0,20,20,8.0,0.0
10332,65.0,2,20,8.0,0.0
10333,56.0,2,480,8.0,0.0
10334,62.0,20,20,7.0,0.0
10335,65.0,20,20,7.0,0.0
10336,71.0,20,20,7.0,0.0
10337,65.0,20,20,7.0,0.0
10338,71.0,20,20,7.0,0.0
10339,74.0,20,20,7.0,0.0
10340,71.0,20,20,7.0,0.0
10341,74.0,20,20,7.0,0.0
10342,77.0,20,20,7.0,0.0
10343,74.0,20,20,7.0,0.0
10344,77.0,20,20,7.0,0.0
10345,83.0,20,20,7.0,0.0
10346,79.0,20,20,7.0,0.0
10347,77.0,20,20,7.0,0.0
10348,76.0,20,20,7.0,0.0
10349,74.0,20,20,7.0,0.0
10350,77.0,20,20,7.0,0.0
10351,83.0,20,20,7.0,0.0
10352,79.0,20,20,7.0,0.0
10353,77.0,20,20,7.0,0.0
10354,76.0,20,20,7.0,0.0
10355,74.0,20,20,7.0,0.0
10356,77.0,20,20,7.0,0.0
10357,83.0,0,20,7.0,0.0
10358,49.0,20,20,8.0,0.0
10359,33.0,18,240,8.0,0.0
10360,52.0,20,20,8.0,0.0
10361,55.0,20,20,8.0,0.0
10362,52.0,20,20,8.0,0.0
10363,55.0,20,20,8.0,0.0
10364,61.0,20,20,8.0,0.0
10365,45.0,0,180,8.0,0.0
10366,55.0,20,20,8.0,0.0
10367,61.0,20,20,8.0,0.0
10368,64.0,20,20,8.0,0.0
10369,61.0,20,20,8.0,0.0
10370,64.0,20,20,8.0,0.0
10371,67.0,2,20,8.0,0.0
10372,64.0,20,20,7.0,0.0
10373,61.0,20,60,8.0,0.0
10374,67.0,20,20,7.0,0.0
10375,70.0,0,20,7.0,0.0
10376,67.0,20,20,7.0,0.0
10377,70.0,20,20,7.0,0.0
10378,76.0,20,20,7.0,0.0
10379,70.0,20,20,7.0,0.0
10380,57.0,28,1920,8.0,0.0
10381,76.0,20,20,7.0,0.0
10382,79.0,20,20,7.0,0.0
10383,76.0,20,20,7.0,0.0
10384,79.0,20,20,7.0,0.0
10385,82.0,20,20,7.0,0.0
10386,81.0,20,20,7.0,0.0
10387,73.0,28,240,8.0,0.0
10388,79.0,20,20,7.0,0.0
10389,77.0,20,20,7.0,0.0
10390,76.0,20,20,7.0,0.0
10391,79.0,20,20,7.0,0.0
10392,82.0,24,20,7.0,0.0
10393,81.0,24,24,7.0,0.0
10394,79.0,24,24,7.0,0.0
10395,77.0,24,24,7.0,0.0
10396,76.0,24,24,7.0,0.0
10397,79.0,2,24,7.0,0.0
10398,82.0,30,30,7.0,0.0
10399,72.0,28,240,8.0,0.0
10400,75.0,30,30,7.0,0.0
10401,78.0,30,30,7.0,0.0
10402,82.0,30,30,7.0,0.0
10403,75.0,30,30,7.0,0.0
10404,78.0,30,30,7.0,0.0
10405,82.0,30,30,7.0,0.0
10406,74.0,2,30,7.0,0.0
10407,78.0,30,30,7.0,0.0
10408,71.0,28,240,8.0,0.0
10409,82.0,30,30,7.0,0.0
10410,74.0,30,30,7.0,0.0
10411,78.0,30,30,7.0,0.0
10412,82.0,30,30,7.0,0.0
10413,74.0,30,30,7.0,0.0
10414,78.0,30,30,7.0,0.0
10415,79.0,2,30,7.0,0.0
10416,73.0,30,30,7.0,0.0
10417,70.0,28,120,8.0,0.0
10418,76.0,30,30,7.0,0.0
10419,79.0,30,30,7.0,0.0
10420,73.0,2,30,7.0,0.0
10421,74.0,30,30,7.0,0.0
10422,69.0,28,120,8.0,0.0
10423,78.0,30,30,7.0,0.0
10424,73.0,30,30,7.0,0.0
10425,74.0,2,30,7.0,0.0
10426,77.0,30,30,7.0,0.0
10427,68.0,28,120,8.0,0.0
10428,71.0,30,30,7.0,0.0
10429,74.0,30,30,7.0,0.0
10430,77.0,2,30,7.0,0.0
10431,70.0,30,30,7.0,0.0
10432,67.0,28,120,8.0,0.0
10433,73.0,30,30,7.0,0.0
10434,76.0,30,30,7.0,0.0
10435,69.0,2,30,7.0,0.0
10436,73.0,30,30,7.0,0.0
10437,66.0,28,120,8.0,0.0
10438,76.0,30,30,7.0,0.0
10439,69.0,30,30,7.0,0.0
10440,73.0,2,30,7.0,0.0
10441,74.0,30,30,7.0,0.0
10442,65.0,28,120,8.0,0.0
10443,68.0,30,30,7.0,0.0
10444,71.0,30,30,7.0,0.0
10445,74.0,2,30,7.0,0.0
10446,64.0,30,30,7.0,0.0
10447,69.0,30,30,7.0,0.0
10448,74.0,30,30,7.0,0.0
10449,73.0,30,30,7.0,0.0
10450,62.0,30,30,7.0,0.0
10451,68.0,30,30,7.0,0.0
10452,73.0,30,30,7.0,0.0
10453,71.0,30,30,7.0,0.0
10454,61.0,30,30,7.0,0.0
10455,64.0,30,30,7.0,0.0
10456,71.0,30,30,7.0,0.0
10457,69.0,2,30,7.0,0.0
10458,71.0,30,30,7.0,0.0
10459,69.0,30,30,7.0,0.0
10460,71.0,30,30,7.0,0.0
10461,69.0,20,30,7.0,0.0
10462,74.0,20,20,7.0,0.0
10463,73.0,20,20,7.0,0.0
10464,74.0,20,20,7.0,0.0
10465,73.0,20,20,7.0,0.0
10466,74.0,20,20,7.0,0.0
10467,73.0,15,20,7.0,0.0
10468,77.0,15,15,7.0,0.0
10469,76.0,15,15,7.0,0.0
10470,77.0,15,15,7.0,0.0
10471,76.0,15,15,7.0,0.0
10472,77.0,15,15,7.0,0.0
10473,76.0,15,15,7.0,0.0
10474,77.0,15,15,7.0,0.0
10475,76.0,15,15,7.0,0.0
10476,81.0,15,15,7.0,0.0
10477,79.0,15,15,7.0,0.0
10478,81.0,15,15,7.0,0.0
10479,79.0,15,15,7.0,0.0
10480,81.0,15,15,7.0,0.0
10481,79.0,15,15,7.0,0.0
10482,81.0,15,15,7.0,0.0
10483,79.0,15,15,7.0,0.0
10484,81.0,15,15,7.0,0.0
10485,80.0,15,15,7.0,0.0
10486,81.0,15,15,7.0,0.0
10487,80.0,15,15,7.0,0.0
10488,81.0,15,15,7.0,0.0
10489,80.0,15,15,7.0,0.0
10490,81.0,15,15,7.0,0.0
10491,80.0,15,15,7.0,0.0
10492,83.0,15,15,7.0,0.0
10493,33.0,15,30,8.0,0.0
10494,81.0,0,15,7.0,0.0
10495,45.0,15,30,8.0,0.0
10496,83.0,15,15,7.0,0.0
10497,81.0,0,15,7.0,0.0
10498,83.0,15,15,7.0,0.0
10499,49.0,0,30,8.0,0.0
10500,81.0,15,15,7.0,0.0
10501,83.0,15,15,7.0,0.0
10502,52.0,0,30,8.0,0.0
10503,81.0,15,15,7.0,0.0
10504,55.0,10,20,8.0,0.0
10505,83.0,5,15,7.0,0.0
10506,81.0,10,15,7.0,0.0
10507,61.0,5,20,8.0,0.0
10508,83.0,15,15,7.0,0.0
10509,64.0,15,20,8.0,0.0
10510,81.0,0,15,7.0,0.0
10511,83.0,5,15,7.0,0.0
10512,67.0,10,20,8.0,0.0
10513,81.0,10,15,7.0,0.0
10514,73.0,5,20,8.0,0.0
10515,83.0,15,15,7.0,0.0
10516,76.0,15,20,8.0,0.0
10517,81.0,0,15,7.0,0.0
10518,83.0,15,15,7.0,0.0
10519,79.0,0,60,8.0,0.0
10520,81.0,15,15,7.0,0.0
10521,83.0,15,15,7.0,0.0
10522,81.0,15,15,7.0,0.0
10523,83.0,15,15,7.0,0.0
10524,44.0,0,60,8.0,0.0
10525,56.0,0,60,8.0,0.0
10526,81.0,15,15,7.0,0.0
10527,83.0,15,15,7.0,0.0
10528,81.0,15,15,7.0,0.0
10529,57.0,15,60,8.0,0.0
10530,83.0,15,15,7.0,0.0
10531,81.0,15,15,7.0,0.0
10532,83.0,15,15,7.0,0.0
10533,81.0,0,15,7.0,0.0
10534,83.0,15,15,7.0,0.0
10535,48.0,0,60,8.0,0.0
10536,60.0,15,60,8.0,0.0
10537,81.0,15,15,7.0,0.0
10538,83.0,15,15,7.0,0.0
10539,81.0,0,15,7.0,0.0
10540,61.0,0,60,8.0,0.0
10541,83.0,15,15,7.0,0.0
10542,49.0,0,60,8.0,0.0
10543,81.0,15,15,7.0,0.0
10544,83.0,15,15,7.0,0.0
10545,81.0,15,15,7.0,0.0
10546,51.0,15,60,8.0,0.0
10547,83.0,15,15,7.0,0.0
10548,63.0,0,60,8.0,0.0
10549,81.0,15,15,7.0,0.0
10550,83.0,15,15,7.0,0.0
10551,81.0,0,15,7.0,0.0
10552,45.0,0,0,8.0,0.0
10553,79.0,15,15,7.0,0.0
10554,52.0,7,60,8.0,0.0
10555,64.0,1,60,8.0,0.0
10556,81.0,15,15,7.0,0.0
10557,79.0,15,15,7.0,0.0
10558,81.0,7,15,7.0,0.0
10559,56.0,15,60,8.0,0.0
10560,68.0,0,60,8.0,0.0
10561,79.0,15,15,7.0,0.0
10562,81.0,15,15,7.0,0.0
10563,79.0,15,15,7.0,0.0
10564,81.0,0,15,7.0,0.0
10565,57.0,0,60,8.0,0.0
10566,69.0,20,60,8.0,0.0
10567,79.0,15,15,7.0,0.0
10568,81.0,15,15,7.0,0.0
10569,79.0,15,15,7.0,0.0
10570,81.0,0,15,7.0,0.0
10571,79.0,19,20,7.0,0.0
10572,61.0,15,60,8.0,0.0
10573,49.0,0,60,8.0,0.0
10574,81.0,20,20,7.0,0.0
10575,79.0,1,20,7.0,0.0
10576,45.0,0,0,8.0,0.0
10577,78.0,15,15,7.0,0.0
10578,50.0,7,60,8.0,0.0
10579,62.0,1,60,8.0,0.0
10580,79.0,15,15,7.0,0.0
10581,78.0,15,15,7.0,0.0
10582,79.0,7,15,7.0,0.0
10583,78.0,15,15,7.0,0.0
10584,57.0,15,60,8.0,0.0
10585,69.0,0,60,8.0,0.0
10586,79.0,15,15,7.0,0.0
10587,78.0,15,15,7.0,0.0
10588,79.0,0,15,7.0,0.0
10589,78.0,15,15,7.0,0.0
10590,59.0,0,60,8.0,0.0
10591,71.0,20,60,8.0,0.0
10592,79.0,15,15,7.0,0.0
10593,78.0,15,15,7.0,0.0
10594,79.0,0,15,7.0,0.0
10595,63.0,0,60,8.0,0.0
10596,78.0,19,20,7.0,0.0
10597,51.0,0,60,8.0,0.0
10598,79.0,20,20,7.0,0.0
10599,78.0,1,20,7.0,0.0
10600,76.0,15,15,7.0,0.0
10601,43.0,15,120,8.0,0.0
10602,52.0,7,60,8.0,0.0
10603,64.0,6,60,8.0,0.0
10604,78.0,15,15,7.0,0.0
10605,76.0,15,15,7.0,0.0
10606,78.0,7,15,7.0,0.0
10607,76.0,20,20,7.0,0.0
10608,61.0,0,120,8.0,0.0
10609,78.0,20,20,7.0,0.0
10610,76.0,0,20,7.0,0.0
10611,83.0,15,15,7.0,0.0
10612,54.0,24,360,8.0,0.0
10613,42.0,0,360,8.0,0.0
10614,84.0,15,15,7.0,0.0
10615,83.0,15,15,7.0,0.0
10616,84.0,0,15,7.0,0.0
10617,83.0,19,20,7.0,0.0
10618,73.0,20,0,8.0,0.0
10619,61.0,15,60,8.0,0.0
10620,84.0,20,20,7.0,0.0
10621,83.0,1,20,7.0,0.0
10622,81.0,15,15,7.0,0.0
10623,76.0,15,60,8.0,0.0
10624,64.0,0,60,8.0,0.0
10625,83.0,15,15,7.0,0.0
10626,81.0,15,15,7.0,0.0
10627,83.0,0,15,7.0,0.0
10628,81.0,15,15,7.0,0.0
10629,74.0,0,60,8.0,0.0
10630,62.0,0,60,8.0,0.0
10631,83.0,15,15,7.0,0.0
10632,81.0,15,15,7.0,0.0
10633,83.0,15,15,7.0,0.0
10634,73.0,0,60,8.0,0.0
10635,61.0,0,60,8.0,0.0
10636,81.0,15,15,7.0,0.0
10637,83.0,15,15,7.0,0.0
10638,81.0,15,15,7.0,0.0
10639,83.0,20,15,7.0,0.0
10640,81.0,20,20,7.0,0.0
10641,62.0,0,60,8.0,0.0
10642,74.0,0,60,8.0,0.0
10643,83.0,20,20,7.0,0.0
10644,81.0,0,20,7.0,0.0
10645,79.0,24,24,7.0,0.0
10646,59.0,12,60,8.0,0.0
10647,71.0,0,60,8.0,0.0
10648,43.0,0,120,8.0,0.0
10649,78.0,12,24,7.0,0.0
10650,81.0,24,24,7.0,0.0
10651,67.0,0,60,8.0,0.0
10652,55.0,0,60,8.0,0.0
10653,79.0,24,24,7.0,0.0
10654,76.0,0,24,7.0,0.0
10655,45.0,6,480,8.0,0.0
10656,54.0,6,480,8.0,0.0
10657,57.0,6,480,8.0,0.0
10658,66.0,6,480,8.0,0.0
10659,74.0,37,20,7.0,0.0
10660,76.0,40,40,7.0,0.0
10661,73.0,40,40,7.0,0.0
10662,74.0,40,40,7.0,0.0
10663,76.0,40,40,7.0,0.0
10664,78.0,40,40,7.0,0.0
10665,79.0,40,40,7.0,0.0
10666,80.0,40,40,7.0,0.0
10667,81.0,40,40,7.0,0.0
10668,83.0,50,40,7.0,0.0
10669,80.0,25,50,7.0,0.0
10670,81.0,40,70,7.0,0.0
10671,45.0,6,480,8.0,0.0
10672,53.0,6,480,8.0,0.0
10673,57.0,6,480,8.0,0.0
10674,65.0,6,480,8.0,0.0
10675,69.0,21,0,8.0,0.0
10676,83.0,40,40,7.0,0.0
10677,85.0,40,40,7.0,0.0
10678,86.0,40,40,7.0,0.0
10679,88.0,40,40,7.0,0.0
10680,89.0,40,40,7.0,0.0
10681,91.0,40,40,7.0,0.0
10682,92.0,40,40,7.0,0.0
10683,93.0,35,40,7.0,0.0
10684,94.0,55,35,7.0,0.0
10685,92.0,25,50,7.0,0.0
10686,93.0,24,50,7.0,0.0
10687,45.0,0,240,8.0,0.0
10688,52.0,6,240,8.0,0.0
10689,57.0,6,240,8.0,0.0
10690,64.0,6,240,8.0,0.0
10691,90.0,36,25,7.0,0.0
10692,69.0,16,240,8.0,0.0
10693,91.0,40,40,7.0,0.0
10694,88.0,40,40,7.0,0.0
10695,85.0,40,40,7.0,0.0
10696,81.0,40,40,7.0,0.0
10697,79.0,6,40,7.0,0.0
10698,76.0,40,40,7.0,0.0
10699,73.0,40,40,7.0,0.0
10700,69.0,40,40,7.0,0.0
10701,67.0,40,40,7.0,0.0
10702,64.0,40,40,7.0,0.0
10703,61.0,60,40,7.0,0.0
10704,57.0,60,60,8.0,0.0
10705,55.0,60,60,8.0,0.0
10706,52.0,60,60,8.0,0.0
10707,49.0,80,60,8.0,0.0
10708,45.0,80,80,8.0,0.0
10709,43.0,80,80,8.0,0.0
10710,40.0,25,80,8.0,0.0
10711,38.0,4,120,8.0,0.0
10712,50.0,5,715,4.0,0.0
10713,54.0,1,60,4.0,0.0
10714,50.0,5,240,13.0,0.0
10715,38.0,3,240,14.0,0.0
10716,50.0,9,1,15.0,0.0
10717,50.0,10,0,15.0,0.0
10718,50.0,9,10,15.0,0.0
10719,57.0,12,60,4.0,0.0
10720,50.0,10,0,15.0,0.0
10721,50.0,9,1,15.0,0.0
10722,50.0,8,2,15.0,0.0
10723,50.0,10,0,15.0,0.0
10724,50.0,6,0,15.0,0.0
10725,62.0,1,60,4.0,0.0
10726,50.0,8,2,15.0,0.0
10727,50.0,11,10,15.0,0.0
10728,50.0,10,10,15.0,0.0
10729,50.0,9,10,15.0,0.0
10730,50.0,10,10,15.0,0.0
10731,66.0,2,60,4.0,0.0
10732,50.0,10,10,15.0,0.0
10733,50.0,11,10,15.0,0.0
10734,50.0,10,10,15.0,0.0
10735,50.0,10,10,15.0,0.0
10736,50.0,8,10,15.0,0.0
10737,54.0,6,60,2.0,0.0
10738,69.0,1,175,4.0,0.0
10739,50.0,2,0,15.0,0.0
10740,48.0,4,240,13.0,0.0
10741,54.0,3,60,3.0,0.0
10742,36.0,13,240,14.0,0.0
10743,50.0,10,10,15.0,0.0
10744,50.0,10,0,15.0,0.0
10745,50.0,3,1,15.0,0.0
10746,57.0,6,60,2.0,0.0
10747,50.0,6,1,15.0,0.0
10748,57.0,4,60,3.0,0.0
10749,50.0,9,1,15.0,0.0
10750,50.0,8,2,15.0,0.0
10751,50.0,6,10,15.0,0.0
10752,62.0,7,60,2.0,0.0
10753,50.0,11,10,15.0,0.0
10754,62.0,5,60,3.0,0.0
10755,50.0,9,1,15.0,0.0
10756,50.0,9,1,15.0,0.0
10757,50.0,5,10,15.0,0.0
10758,66.0,4,60,2.0,0.0
10759,62.0,3,60,4.0,0.0
10760,50.0,10,10,15.0,0.0
10761,66.0,1,60,3.0,0.0
10762,50.0,10,10,15.0,0.0
10763,50.0,9,1,15.0,0.0
10764,50.0,3,10,15.0,0.0
10765,50.0,1,10,15.0,0.0
10766,74.0,1,175,2.0,0.0
10767,67.0,7,115,4.0,0.0
10768,47.0,5,240,13.0,0.0
10769,69.0,10,175,3.0,0.0
10770,35.0,11,240,14.0,0.0
10771,50.0,10,10,15.0,0.0
10772,50.0,10,0,15.0,0.0
10773,50.0,9,1,15.0,0.0
10774,50.0,9,1,15.0,0.0
10775,50.0,9,1,15.0,0.0
10776,50.0,8,2,15.0,0.0
10777,66.0,8,55,4.0,0.0
10778,50.0,10,0,15.0,0.0
10779,50.0,9,1,15.0,0.0
10780,50.0,8,1,15.0,0.0
10781,50.0,0,10,15.0,0.0
10782,74.0,2,55,2.0,0.0
10783,74.0,3,60,1.0,0.0
10784,64.0,0,55,4.0,0.0
10785,50.0,10,10,15.0,0.0
10786,69.0,1,55,3.0,0.0
10787,50.0,10,10,15.0,0.0
10788,50.0,9,1,15.0,0.0
10789,50.0,2,0,15.0,0.0
10790,74.0,4,115,2.0,0.0
10791,64.0,0,115,2.0,0.0
10792,64.0,3,120,4.0,0.0
10793,57.0,7,475,4.0,0.0
10794,79.0,5,115,1.0,0.0
10795,45.0,5,120,13.0,0.0
10796,64.0,1,115,3.0,0.0
10797,33.0,2,120,14.0,0.0
10798,45.0,10,0,15.0,0.0
10799,45.0,9,1,15.0,0.0
10800,45.0,10,0,15.0,0.0
10801,45.0,9,1,15.0,0.0
10802,45.0,9,1,15.0,0.0
10803,45.0,0,1,15.0,0.0
10804,69.0,0,115,2.0,0.0
10805,73.0,1,115,2.0,0.0
10806,69.0,0,595,4.0,0.0
10807,78.0,2,60,1.0,0.0
10808,43.0,2,115,13.0,0.0
10809,57.0,1,115,3.0,0.0
10810,31.0,7,115,14.0,0.0
10811,45.0,9,1,15.0,0.0
10812,45.0,9,1,15.0,0.0
10813,45.0,8,10,15.0,0.0
10814,45.0,8,2,15.0,0.0
10815,76.0,4,55,1.0,0.0
10816,45.0,9,1,15.0,0.0
10817,45.0,10,10,15.0,0.0
10818,45.0,3,1,15.0,0.0
10819,69.0,1,355,2.0,0.0
10820,74.0,1,475,2.0,0.0
10821,69.0,4,60,0.0,0.0
10822,81.0,5,415,1.0,0.0
10823,45.0,11,10,15.0,0.0
10824,42.0,4,240,13.0,0.0
10825,54.0,1,240,3.0,0.0
10826,62.0,1,715,3.0,0.0
10827,30.0,4,240,14.0,0.0
10828,45.0,9,1,15.0,0.0
10829,45.0,10,10,15.0,0.0
10830,45.0,5,1,15.0,0.0
10831,74.0,6,60,0.0,0.0
10832,45.0,10,0,15.0,0.0
10833,45.0,9,1,15.0,0.0
10834,45.0,10,0,15.0,0.0
10835,78.0,5,60,0.0,0.0
10836,45.0,9,1,15.0,0.0
10837,45.0,8,2,15.0,0.0
10838,45.0,10,10,15.0,0.0
10839,45.0,6,10,15.0,0.0
10840,45.0,11,10,15.0,0.0
10841,81.0,1,55,0.0,0.0
10842,45.0,9,1,15.0,0.0
10843,45.0,10,0,15.0,0.0
10844,45.0,10,10,15.0,0.0
10845,45.0,2,1,15.0,0.0
10846,83.0,3,175,0.0,0.0
10847,62.0,2,240,4.0,0.0
10848,69.0,1,60,1.0,0.0
10849,41.0,4,240,13.0,0.0
10850,53.0,1,240,3.0,0.0
10851,29.0,4,240,14.0,0.0
10852,45.0,9,1,15.0,0.0
10853,45.0,9,1,15.0,0.0
10854,45.0,10,10,15.0,0.0
10855,45.0,8,1,15.0,0.0
10856,74.0,3,60,1.0,0.0
10857,45.0,10,10,15.0,0.0
10858,45.0,9,1,15.0,0.0
10859,45.0,9,0,15.0,0.0
10860,62.0,0,115,2.0,0.0
10861,77.0,2,60,1.0,0.0
10862,45.0,9,1,15.0,0.0
10863,45.0,8,2,15.0,0.0
10864,45.0,10,0,15.0,0.0
10865,45.0,10,0,15.0,0.0
10866,45.0,11,10,15.0,0.0
10867,83.0,1,55,0.0,0.0
10868,81.0,5,55,1.0,0.0
10869,45.0,9,1,15.0,0.0
10870,45.0,10,0,15.0,0.0
10871,45.0,2,1,15.0,0.0
10872,64.0,3,51,2.0,0.0
10873,74.0,4,235,2.0,0.0
10874,83.0,3,115,0.0,0.0
10875,62.0,5,115,4.0,0.0
10876,80.0,0,240,1.0,0.0
10877,45.0,7,10,15.0,0.0
10878,40.0,4,240,13.0,0.0
10879,52.0,1,240,3.0,0.0
10880,28.0,1,240,14.0,0.0
10881,50.0,11,10,15.0,0.0
10882,50.0,9,1,15.0,0.0
10883,50.0,11,10,15.0,0.0
10884,68.0,4,51,2.0,0.0
10885,50.0,9,1,15.0,0.0
10886,50.0,11,10,15.0,0.0
10887,50.0,10,10,15.0,0.0
10888,50.0,6,0,15.0,0.0
10889,50.0,1,1,15.0,0.0
10890,69.0,3,51,2.0,0.0
10891,85.0,4,60,0.0,0.0
10892,50.0,10,0,15.0,0.0
10893,64.0,0,115,4.0,0.0
10894,76.0,1,180,1.0,0.0
10895,50.0,11,10,15.0,0.0
10896,50.0,9,1,15.0,0.0
10897,50.0,7,0,15.0,0.0
10898,71.0,4,51,2.0,0.0
10899,86.0,3,60,0.0,0.0
10900,83.0,0,60,0.0,0.0
10901,50.0,9,1,15.0,0.0
10902,50.0,10,0,15.0,0.0
10903,50.0,10,10,15.0,0.0
10904,50.0,6,0,15.0,0.0
10905,50.0,0,1,15.0,0.0
10906,73.0,4,60,2.0,0.0
10907,69.0,1,235,2.0,0.0
10908,88.0,0,115,0.0,0.0
10909,81.0,1,235,0.0,0.0
10910,50.0,3,0,15.0,0.0
10911,79.0,1,115,1.0,0.0
10912,57.0,0,235,4.0,0.0
10913,64.0,4,235,4.0,0.0
10914,45.0,3,235,13.0,0.0
10915,61.0,1,235,3.0,0.0
10916,57.0,0,235,3.0,0.0
10917,33.0,9,235,14.0,0.0
10918,45.0,9,1,15.0,0.0
10919,45.0,10,10,15.0,0.0
10920,45.0,4,1,15.0,0.0
10921,76.0,7,60,2.0,0.0
10922,73.0,0,55,1.0,0.0
10923,45.0,10,10,15.0,0.0
10924,45.0,9,1,15.0,0.0
10925,45.0,10,10,15.0,0.0
10926,45.0,3,10,15.0,0.0
10927,78.0,1,51,2.0,0.0
10928,90.0,3,51,0.0,0.0
10929,78.0,0,51,1.0,0.0
10930,69.0,11,51,1.0,0.0
10931,45.0,9,1,15.0,0.0
10932,45.0,8,2,15.0,0.0
10933,45.0,6,10,15.0,0.0
10934,45.0,0,10,15.0,0.0
10935,45.0,11,10,15.0,0.0
10936,79.0,1,51,2.0,0.0
10937,91.0,3,51,0.0,0.0
10938,76.0,0,51,1.0,0.0
10939,67.0,0,51,1.0,0.0
10940,45.0,9,1,15.0,0.0
10941,45.0,10,10,15.0,0.0
10942,45.0,5,10,15.0,0.0
10943,45.0,2,1,15.0,0.0
10944,81.0,0,60,2.0,0.0
10945,66.0,3,60,2.0,0.0
10946,93.0,0,115,0.0,0.0
10947,81.0,3,115,0.0,0.0
10948,74.0,2,115,1.0,0.0
10949,50.0,0,480,4.0,0.0
10950,62.0,2,480,4.0,0.0
10951,66.0,0,115,1.0,0.0
10952,45.0,1,10,15.0,0.0
10953,48.0,7,10,13.0,0.0
10954,62.0,0,60,3.0,0.0
10955,50.0,3,60,3.0,0.0
10956,36.0,6,115,14.0,0.0
10957,48.0,2,10,13.0,0.0
10958,50.0,8,0,15.0,0.0
10959,50.0,10,0,15.0,0.0
10960,48.0,7,10,13.0,0.0
10961,50.0,3,0,15.0,0.0
10962,48.0,2,10,13.0,0.0
10963,50.0,7,0,15.0,0.0
10964,48.0,6,10,13.0,0.0
10965,50.0,3,1,15.0,0.0
10966,48.0,1,10,13.0,0.0
10967,50.0,9,0,15.0,0.0
10968,54.0,1,15,8.0,0.0
10969,50.0,10,0,15.0,0.0
10970,48.0,8,10,13.0,0.0
10971,62.0,2,15,8.0,0.0
10972,48.0,1,10,13.0,0.0
10973,50.0,0,2,15.0,0.0
10974,69.0,2,15,7.0,0.0
10975,78.0,3,595,0.0,0.0
10976,81.0,0,595,0.0,0.0
10977,81.0,3,595,1.0,0.0
10978,78.0,4,480,1.0,0.0
10979,50.0,4,0,15.0,0.0
10980,47.0,7,10,13.0,0.0
10981,35.0,8,55,14.0,0.0
10982,66.0,4,15,7.0,0.0
10983,50.0,4,10,15.0,0.0
10984,47.0,2,10,13.0,0.0
10985,74.0,1,15,7.0,0.0
10986,50.0,9,0,15.0,0.0
10987,47.0,7,10,13.0,0.0
10988,81.0,4,15,7.0,0.0
10989,50.0,4,10,15.0,0.0
10990,47.0,2,10,13.0,0.0
10991,50.0,3,10,15.0,0.0
10992,78.0,2,15,7.0,0.0
10993,45.0,8,10,13.0,0.0
10994,33.0,8,55,14.0,0.0
10995,50.0,0,0,15.0,0.0
10996,86.0,2,15,7.0,0.0
10997,45.0,3,10,13.0,0.0
10998,93.0,2,15,7.0,0.0
10999,50.0,9,1,15.0,0.0
11000,45.0,7,10,13.0,0.0
11001,50.0,1,0,15.0,0.0
11002,45.0,3,10,13.0,0.0
11003,50.0,2,0,15.0,0.0
11004,48.0,7,10,13.0,0.0
11005,36.0,6,115,14.0,0.0
11006,50.0,2,1,15.0,0.0
11007,48.0,3,10,13.0,0.0
11008,50.0,9,1,15.0,0.0
11009,48.0,7,10,13.0,0.0
11010,50.0,8,10,15.0,0.0
11011,48.0,4,10,13.0,0.0
11012,50.0,9,1,15.0,0.0
11013,48.0,6,10,13.0,0.0
11014,50.0,2,2,15.0,0.0
11015,48.0,1,10,13.0,0.0
11016,54.0,8,15,8.0,0.0
11017,50.0,10,0,15.0,0.0
11018,48.0,0,10,13.0,0.0
11019,62.0,2,15,8.0,0.0
11020,48.0,1,10,13.0,0.0
11021,50.0,5,2,15.0,0.0
11022,69.0,0,15,7.0,0.0
11023,50.0,4,0,15.0,0.0
11024,47.0,7,10,13.0,0.0
11025,35.0,6,55,14.0,0.0
11026,66.0,4,15,7.0,0.0
11027,50.0,4,10,15.0,0.0
11028,47.0,2,10,13.0,0.0
11029,50.0,10,10,15.0,0.0
11030,74.0,2,15,7.0,0.0
11031,47.0,7,10,13.0,0.0
11032,50.0,1,0,15.0,0.0
11033,81.0,2,15,7.0,0.0
11034,47.0,2,10,13.0,0.0
11035,50.0,6,0,15.0,0.0
11036,78.0,2,15,7.0,0.0
11037,45.0,8,10,13.0,0.0
11038,33.0,8,55,14.0,0.0
11039,86.0,4,15,7.0,0.0
11040,50.0,2,0,15.0,0.0
11041,45.0,3,10,13.0,0.0
11042,93.0,3,15,7.0,0.0
11043,50.0,9,1,15.0,0.0
11044,45.0,7,10,13.0,0.0
11045,50.0,8,10,15.0,0.0
11046,45.0,1,10,13.0,0.0
11047,50.0,2,10,15.0,0.0
11048,63.0,3,240,4.0,0.0
11049,50.0,1,10,15.0,0.0
11050,51.0,0,10,12.0,0.0
11051,63.0,1,10,12.0,0.0
11052,48.0,14,10,13.0,0.0
11053,51.0,1,235,3.0,0.0
11054,63.0,0,235,3.0,0.0
11055,36.0,8,115,14.0,0.0
11056,51.0,1,10,12.0,0.0
11057,63.0,0,10,12.0,0.0
11058,48.0,14,10,13.0,0.0
11059,63.0,1,10,12.0,0.0
11060,51.0,0,10,12.0,0.0
11061,48.0,14,10,13.0,0.0
11062,63.0,1,10,12.0,0.0
11063,51.0,0,10,12.0,0.0
11064,48.0,14,10,13.0,0.0
11065,51.0,0,10,12.0,0.0
11066,63.0,1,10,12.0,0.0
11067,48.0,14,10,13.0,0.0
11068,51.0,0,10,12.0,0.0
11069,63.0,1,10,12.0,0.0
11070,48.0,14,10,13.0,0.0
11071,54.0,1,15,8.0,0.0
11072,51.0,0,10,12.0,0.0
11073,63.0,0,10,12.0,0.0
11074,48.0,13,10,13.0,0.0
11075,63.0,1,15,8.0,0.0
11076,51.0,0,10,12.0,0.0
11077,63.0,1,10,12.0,0.0
11078,48.0,1,10,13.0,0.0
11079,69.0,1,15,7.0,0.0
11080,72.0,0,120,1.0,0.0
11081,51.0,1,10,12.0,0.0
11082,63.0,0,10,12.0,0.0
11083,47.0,12,10,13.0,0.0
11084,35.0,8,55,14.0,0.0
11085,66.0,2,15,7.0,0.0
11086,63.0,0,10,12.0,0.0
11087,51.0,1,10,12.0,0.0
11088,47.0,12,10,13.0,0.0
11089,75.0,2,15,7.0,0.0
11090,63.0,1,10,12.0,0.0
11091,51.0,0,10,12.0,0.0
11092,47.0,13,10,13.0,0.0
11093,81.0,1,15,7.0,0.0
11094,63.0,1,10,12.0,0.0
11095,51.0,0,10,12.0,0.0
11096,47.0,5,10,13.0,0.0
11097,78.0,1,15,7.0,0.0
11098,63.0,0,10,12.0,0.0
11099,51.0,1,10,12.0,0.0
11100,45.0,11,10,13.0,0.0
11101,33.0,9,55,14.0,0.0
11102,87.0,3,15,7.0,0.0
11103,63.0,1,10,12.0,0.0
11104,51.0,0,10,12.0,0.0
11105,45.0,11,10,13.0,0.0
11106,93.0,3,15,7.0,0.0
11107,51.0,1,10,12.0,0.0
11108,63.0,0,10,12.0,0.0
11109,45.0,8,10,13.0,0.0
11110,63.0,0,10,12.0,0.0
11111,51.0,1,10,12.0,0.0
11112,45.0,1,10,13.0,0.0
11113,83.0,3,235,0.0,0.0
11114,79.0,0,235,0.0,0.0
11115,71.0,3,120,1.0,0.0
11116,64.0,2,115,4.0,0.0
11117,83.0,1,235,1.0,0.0
11118,64.0,1,10,12.0,0.0
11119,52.0,0,10,12.0,0.0
11120,43.0,14,10,13.0,0.0
11121,52.0,0,115,3.0,0.0
11122,64.0,1,115,3.0,0.0
11123,31.0,8,115,14.0,0.0
11124,64.0,1,10,12.0,0.0
11125,52.0,0,10,12.0,0.0
11126,43.0,14,10,13.0,0.0
11127,64.0,1,10,12.0,0.0
11128,52.0,0,10,12.0,0.0
11129,43.0,14,10,13.0,0.0
11130,64.0,0,10,12.0,0.0
11131,52.0,1,10,12.0,0.0
11132,43.0,14,10,13.0,0.0
11133,64.0,0,10,12.0,0.0
11134,52.0,1,10,12.0,0.0
11135,43.0,14,10,13.0,0.0
11136,64.0,0,10,12.0,0.0
11137,52.0,1,10,12.0,0.0
11138,43.0,13,10,13.0,0.0
11139,55.0,1,15,8.0,0.0
11140,64.0,0,10,12.0,0.0
11141,52.0,1,10,12.0,0.0
11142,43.0,11,10,13.0,0.0
11143,64.0,1,15,8.0,0.0
11144,64.0,0,10,12.0,0.0
11145,52.0,1,10,12.0,0.0
11146,43.0,1,10,13.0,0.0
11147,71.0,2,120,2.0,0.0
11148,71.0,1,15,7.0,0.0
11149,66.0,2,55,4.0,0.0
11150,79.0,0,115,1.0,0.0
11151,66.0,0,10,12.0,0.0
11152,54.0,1,10,12.0,0.0
11153,42.0,13,10,13.0,0.0
11154,54.0,0,60,3.0,0.0
11155,66.0,2,60,3.0,0.0
11156,30.0,4,55,14.0,0.0
11157,67.0,1,15,7.0,0.0
11158,54.0,1,10,12.0,0.0
11159,66.0,0,10,12.0,0.0
11160,42.0,12,10,13.0,0.0
11161,79.0,2,15,7.0,0.0
11162,54.0,1,10,12.0,0.0
11163,66.0,0,10,12.0,0.0
11164,42.0,11,10,13.0,0.0
11165,83.0,1,15,7.0,0.0
11166,66.0,0,10,12.0,0.0
11167,54.0,1,10,12.0,0.0
11168,42.0,5,10,13.0,0.0
11169,79.0,3,15,7.0,0.0
11170,67.0,0,55,4.0,0.0
11171,55.0,0,10,12.0,0.0
11172,67.0,1,10,12.0,0.0
11173,40.0,12,10,13.0,0.0
11174,55.0,0,55,3.0,0.0
11175,67.0,1,55,3.0,0.0
11176,28.0,6,55,14.0,0.0
11177,91.0,2,15,7.0,0.0
11178,55.0,1,10,12.0,0.0
11179,67.0,0,10,12.0,0.0
11180,40.0,13,10,13.0,0.0
11181,95.0,1,15,7.0,0.0
11182,55.0,0,10,12.0,0.0
11183,67.0,1,10,12.0,0.0
11184,40.0,8,10,13.0,0.0
11185,67.0,1,10,12.0,0.0
11186,55.0,0,10,12.0,0.0
11187,40.0,4,10,13.0,0.0
11188,93.0,3,15,7.0,0.0
11189,69.0,1,120,2.0,0.0
11190,66.0,0,120,2.0,0.0
11191,57.0,1,60,8.0,0.0
11192,78.0,1,120,0.0,0.0
11193,81.0,0,120,0.0,0.0
11194,69.0,0,60,8.0,0.0
11195,62.0,0,120,6.0,0.0
11196,57.0,0,960,6.0,0.0
11197,81.0,0,120,1.0,0.0
11198,78.0,0,120,1.0,0.0
11199,69.0,0,480,4.0,0.0
11200,45.0,0,480,4.0,0.0
11201,69.0,0,10,12.0,0.0
11202,57.0,1,10,12.0,0.0
11203,45.0,7,10,13.0,0.0
11204,57.0,2,120,3.0,0.0
11205,69.0,0,120,3.0,0.0
11206,33.0,4,955,14.0,0.0
11207,45.0,5,10,15.0,0.0
11208,90.0,2,15,7.0,0.0
11209,57.0,1,10,12.0,0.0
11210,69.0,0,10,12.0,0.0
11211,45.0,2,10,13.0,0.0
11212,45.0,9,10,15.0,0.0
11213,81.0,1,15,7.0,0.0
11214,57.0,1,10,12.0,0.0
11215,69.0,0,10,12.0,0.0
11216,45.0,6,10,13.0,0.0
11217,90.0,2,15,7.0,0.0
11218,45.0,2,1,15.0,0.0
11219,57.0,1,10,12.0,0.0
11220,69.0,0,10,12.0,0.0
11221,45.0,1,10,13.0,0.0
11222,45.0,11,10,15.0,0.0
11223,81.0,0,15,8.0,0.0
11224,45.0,2,10,15.0,0.0
11225,69.0,0,10,12.0,0.0
11226,57.0,1,10,12.0,0.0
11227,45.0,7,10,13.0,0.0
11228,78.0,0,15,8.0,0.0
11229,57.0,0,10,12.0,0.0
11230,69.0,1,10,12.0,0.0
11231,45.0,2,10,13.0,0.0
11232,45.0,7,0,15.0,0.0
11233,69.0,1,15,8.0,0.0
11234,45.0,10,0,15.0,0.0
11235,69.0,1,10,12.0,0.0
11236,57.0,0,10,12.0,0.0
11237,45.0,8,10,13.0,0.0
11238,78.0,0,15,8.0,0.0
11239,57.0,0,10,12.0,0.0
11240,69.0,1,10,12.0,0.0
11241,45.0,1,10,13.0,0.0
11242,45.0,4,2,15.0,0.0
11243,92.0,2,15,7.0,0.0
11244,68.0,0,120,2.0,0.0
11245,65.0,1,120,2.0,0.0
11246,77.0,0,120,0.0,0.0
11247,80.0,1,120,0.0,0.0
11248,62.0,0,120,6.0,0.0
11249,45.0,8,0,15.0,0.0
11250,80.0,3,120,1.0,0.0
11251,77.0,0,120,1.0,0.0
11252,68.0,1,10,12.0,0.0
11253,65.0,0,10,12.0,0.0
11254,47.0,8,10,13.0,0.0
11255,59.0,3,120,3.0,0.0
11256,89.0,1,15,7.0,0.0
11257,68.0,1,10,12.0,0.0
11258,65.0,0,10,12.0,0.0
11259,47.0,1,10,13.0,0.0
11260,45.0,5,2,15.0,0.0
11261,81.0,1,15,7.0,0.0
11262,45.0,2,10,15.0,0.0
11263,68.0,1,10,12.0,0.0
11264,65.0,0,10,12.0,0.0
11265,47.0,7,10,13.0,0.0
11266,45.0,6,10,15.0,0.0
11267,89.0,1,15,7.0,0.0
11268,65.0,0,10,12.0,0.0
11269,68.0,1,10,12.0,0.0
11270,47.0,4,10,13.0,0.0
11271,45.0,10,10,15.0,0.0
11272,80.0,0,15,8.0,0.0
11273,65.0,1,10,12.0,0.0
11274,68.0,0,10,12.0,0.0
11275,47.0,8,10,13.0,0.0
11276,45.0,0,2,15.0,0.0
11277,77.0,0,15,8.0,0.0
11278,68.0,0,10,12.0,0.0
11279,65.0,1,10,12.0,0.0
11280,47.0,3,10,13.0,0.0
11281,45.0,11,10,15.0,0.0
11282,69.0,1,15,8.0,0.0
11283,68.0,0,10,12.0,0.0
11284,65.0,0,10,12.0,0.0
11285,47.0,8,10,13.0,0.0
11286,45.0,0,2,15.0,0.0
11287,77.0,0,15,8.0,0.0
11288,65.0,1,10,12.0,0.0
11289,68.0,0,10,12.0,0.0
11290,47.0,1,10,13.0,0.0
11291,45.0,5,10,15.0,0.0
11292,67.0,1,120,2.0,0.0
11293,64.0,0,120,2.0,0.0
11294,91.0,2,15,7.0,0.0
11295,79.0,1,120,0.0,0.0
11296,76.0,0,120,0.0,0.0
11297,69.0,1,720,6.0,0.0
11298,79.0,0,120,1.0,0.0
11299,76.0,0,120,1.0,0.0
11300,64.0,0,10,12.0,0.0
11301,67.0,1,10,12.0,0.0
11302,49.0,7,10,13.0,0.0
11303,64.0,2,120,3.0,0.0
11304,45.0,0,2,15.0,0.0
11305,88.0,1,15,7.0,0.0
11306,67.0,0,10,12.0,0.0
11307,64.0,1,10,12.0,0.0
11308,49.0,2,10,13.0,0.0
11309,45.0,6,0,15.0,0.0
11310,81.0,2,15,7.0,0.0
11311,45.0,10,0,15.0,0.0
11312,64.0,1,10,12.0,0.0
11313,67.0,0,10,12.0,0.0
11314,49.0,6,10,13.0,0.0
11315,45.0,0,1,15.0,0.0
11316,88.0,1,15,7.0,0.0
11317,67.0,0,10,12.0,0.0
11318,64.0,1,10,12.0,0.0
11319,49.0,1,10,13.0,0.0
11320,45.0,11,10,15.0,0.0
11321,79.0,1,15,8.0,0.0
11322,67.0,0,10,12.0,0.0
11323,64.0,1,10,12.0,0.0
11324,49.0,7,10,13.0,0.0
11325,45.0,1,0,15.0,0.0
11326,76.0,0,15,8.0,0.0
11327,64.0,0,10,12.0,0.0
11328,67.0,1,10,12.0,0.0
11329,49.0,2,10,13.0,0.0
11330,45.0,7,0,15.0,0.0
11331,69.0,1,15,8.0,0.0
11332,45.0,10,0,15.0,0.0
11333,64.0,0,10,12.0,0.0
11334,67.0,0,10,12.0,0.0
11335,49.0,8,10,13.0,0.0
11336,76.0,0,15,8.0,0.0
11337,64.0,0,10,12.0,0.0
11338,67.0,1,10,12.0,0.0
11339,49.0,1,10,13.0,0.0
11340,45.0,4,2,15.0,0.0
11341,90.0,3,15,7.0,0.0
11342,62.0,0,120,2.0,0.0
11343,66.0,1,120,2.0,0.0
11344,74.0,1,120,0.0,0.0
11345,78.0,0,120,0.0,0.0
11346,78.0,0,120,1.0,0.0
11347,74.0,3,120,1.0,0.0
11348,45.0,0,10,15.0,0.0
11349,62.0,0,10,12.0,0.0
11350,66.0,1,10,12.0,0.0
11351,50.0,8,10,13.0,0.0
11352,66.0,2,120,3.0,0.0
11353,86.0,2,15,7.0,0.0
11354,66.0,0,10,12.0,0.0
11355,62.0,1,10,12.0,0.0
11356,50.0,1,10,13.0,0.0
11357,45.0,4,2,15.0,0.0
11358,81.0,1,15,7.0,0.0
11359,66.0,1,10,12.0,0.0
11360,62.0,0,10,12.0,0.0
11361,50.0,7,10,13.0,0.0
11362,45.0,2,0,15.0,0.0
11363,86.0,2,15,7.0,0.0
11364,62.0,0,10,12.0,0.0
11365,66.0,1,10,12.0,0.0
11366,50.0,4,10,13.0,0.0
11367,45.0,10,10,15.0,0.0
11368,78.0,1,15,8.0,0.0
11369,66.0,0,10,12.0,0.0
11370,62.0,0,10,12.0,0.0
11371,50.0,0,10,13.0,0.0
11372,45.0,8,2,15.0,0.0
11373,74.0,1,15,8.0,0.0
11374,62.0,0,10,12.0,0.0
11375,66.0,0,10,12.0,0.0
11376,50.0,3,10,13.0,0.0
11377,45.0,6,0,15.0,0.0
11378,69.0,0,15,8.0,0.0
11379,62.0,0,10,12.0,0.0
11380,66.0,1,10,12.0,0.0
11381,50.0,0,10,13.0,0.0
11382,45.0,8,2,15.0,0.0
11383,74.0,1,15,8.0,0.0
11384,66.0,1,10,12.0,0.0
11385,62.0,0,10,12.0,0.0
11386,50.0,0,10,13.0,0.0
11387,45.0,5,10,15.0,0.0
11388,85.0,3,15,7.0,0.0
11389,64.0,1,120,2.0,0.0
11390,73.0,0,120,2.0,0.0
11391,85.0,0,120,0.0,0.0
11392,81.0,3,115,0.0,0.0
11393,73.0,0,120,1.0,0.0
11394,69.0,1,115,1.0,0.0
11395,61.0,1,10,12.0,0.0
11396,64.0,0,10,12.0,0.0
11397,55.0,7,10,13.0,0.0
11398,67.0,2,120,3.0,0.0
11399,81.0,3,15,7.0,0.0
11400,45.0,0,2,15.0,0.0
11401,64.0,1,10,12.0,0.0
11402,61.0,0,10,12.0,0.0
11403,55.0,2,10,13.0,0.0
11404,45.0,9,10,15.0,0.0
11405,76.0,1,15,7.0,0.0
11406,64.0,1,10,12.0,0.0
11407,61.0,0,10,12.0,0.0
11408,55.0,6,10,13.0,0.0
11409,45.0,2,1,15.0,0.0
11410,81.0,1,15,7.0,0.0
11411,61.0,0,10,12.0,0.0
11412,64.0,1,10,12.0,0.0
11413,55.0,1,10,13.0,0.0
11414,45.0,7,0,15.0,0.0
11415,73.0,7,15,8.0,0.0
11416,64.0,1,10,12.0,0.0
11417,61.0,0,10,12.0,0.0
11418,55.0,0,10,13.0,0.0
11419,45.0,2,0,15.0,0.0
11420,69.0,1,15,8.0,0.0
11421,64.0,0,10,12.0,0.0
11422,61.0,0,10,12.0,0.0
11423,55.0,2,10,13.0,0.0
11424,64.0,8,15,8.0,0.0
11425,45.0,10,0,15.0,0.0
11426,61.0,0,10,12.0,0.0
11427,64.0,1,10,12.0,0.0
11428,55.0,0,10,13.0,0.0
11429,69.0,1,15,8.0,0.0
11430,61.0,0,10,12.0,0.0
11431,64.0,1,10,12.0,0.0
11432,55.0,1,10,13.0,0.0
11433,45.0,0,2,15.0,0.0
11434,86.0,0,15,7.0,0.0
11435,74.0,0,240,2.0,0.0
11436,62.0,1,240,2.0,0.0
11437,86.0,3,115,0.0,0.0
11438,81.0,1,120,0.0,0.0
11439,69.0,3,120,1.0,0.0
11440,74.0,2,115,1.0,0.0
11441,45.0,8,0,15.0,0.0
11442,62.0,1,10,12.0,0.0
11443,54.0,8,10,13.0,0.0
11444,66.0,2,120,3.0,0.0
11445,81.0,2,15,7.0,0.0
11446,62.0,1,10,12.0,0.0
11447,54.0,1,10,13.0,0.0
11448,45.0,4,2,15.0,0.0
11449,74.0,0,15,7.0,0.0
11450,62.0,1,10,12.0,0.0
11451,54.0,7,10,13.0,0.0
11452,45.0,2,0,15.0,0.0
11453,81.0,1,15,7.0,0.0
11454,62.0,1,10,12.0,0.0
11455,54.0,4,10,13.0,0.0
11456,45.0,10,10,15.0,0.0
11457,74.0,0,15,8.0,0.0
11458,62.0,1,10,12.0,0.0
11459,54.0,0,10,13.0,0.0
11460,45.0,8,2,15.0,0.0
11461,69.0,1,15,8.0,0.0
11462,62.0,0,10,12.0,0.0
11463,54.0,3,10,13.0,0.0
11464,45.0,6,0,15.0,0.0
11465,62.0,1,15,8.0,0.0
11466,62.0,1,10,12.0,0.0
11467,54.0,8,10,13.0,0.0
11468,45.0,0,2,15.0,0.0
11469,69.0,0,15,8.0,0.0
11470,62.0,1,10,12.0,0.0
11471,54.0,1,10,13.0,0.0
11472,86.0,3,15,7.0,0.0
11473,86.0,1,120,0.0,0.0
11474,80.0,0,120,0.0,0.0
11475,68.0,0,120,1.0,0.0
11476,74.0,0,120,1.0,0.0
11477,62.0,0,10,12.0,0.0
11478,45.0,5,0,15.0,0.0
11479,56.0,0,10,12.0,0.0
11480,53.0,7,10,13.0,0.0
11481,65.0,2,120,3.0,0.0
11482,45.0,1,2,15.0,0.0
11483,80.0,1,15,7.0,0.0
11484,56.0,1,10,12.0,0.0
11485,62.0,0,10,12.0,0.0
11486,53.0,2,10,13.0,0.0
11487,45.0,6,0,15.0,0.0
11488,74.0,1,15,7.0,0.0
11489,45.0,10,0,15.0,0.0
11490,62.0,1,10,12.0,0.0
11491,56.0,0,10,12.0,0.0
11492,53.0,6,10,13.0,0.0
11493,45.0,1,1,15.0,0.0
11494,80.0,1,15,7.0,0.0
11495,56.0,0,10,12.0,0.0
11496,62.0,1,10,12.0,0.0
11497,53.0,1,10,13.0,0.0
11498,45.0,11,10,15.0,0.0
11499,74.0,0,15,8.0,0.0
11500,45.0,2,10,15.0,0.0
11501,56.0,0,10,12.0,0.0
11502,62.0,1,10,12.0,0.0
11503,53.0,7,10,13.0,0.0
11504,67.0,2,15,8.0,0.0
11505,62.0,0,10,12.0,0.0
11506,56.0,1,10,12.0,0.0
11507,53.0,0,10,13.0,0.0
11508,45.0,7,0,15.0,0.0
11509,62.0,8,15,8.0,0.0
11510,45.0,2,10,15.0,0.0
11511,62.0,1,10,12.0,0.0
11512,56.0,0,10,12.0,0.0
11513,53.0,0,10,13.0,0.0
11514,67.0,0,15,8.0,0.0
11515,56.0,1,10,12.0,0.0
11516,62.0,0,10,12.0,0.0
11517,53.0,1,10,13.0,0.0
11518,45.0,4,2,15.0,0.0
11519,73.0,0,120,2.0,0.0
11520,64.0,1,120,2.0,0.0
11521,85.0,1,120,0.0,0.0
11522,81.0,0,120,0.0,0.0
11523,85.0,1,15,7.0,0.0
11524,67.0,3,120,1.0,0.0
11525,73.0,0,120,1.0,0.0
11526,45.0,8,0,15.0,0.0
11527,55.0,0,10,12.0,0.0
11528,61.0,1,10,12.0,0.0
11529,52.0,8,10,13.0,0.0
11530,64.0,5,120,3.0,0.0
11531,79.0,3,15,7.0,0.0
11532,61.0,1,10,12.0,0.0
11533,55.0,0,10,12.0,0.0
11534,52.0,1,10,13.0,0.0
11535,45.0,3,2,15.0,0.0
11536,73.0,1,15,7.0,0.0
11537,45.0,2,10,15.0,0.0
11538,61.0,1,10,12.0,0.0
11539,55.0,0,10,12.0,0.0
11540,52.0,7,10,13.0,0.0
11541,45.0,6,10,15.0,0.0
11542,79.0,1,15,7.0,0.0
11543,55.0,0,10,12.0,0.0
11544,61.0,1,10,12.0,0.0
11545,52.0,4,10,13.0,0.0
11546,45.0,10,10,15.0,0.0
11547,73.0,0,15,8.0,0.0
11548,61.0,0,10,12.0,0.0
11549,55.0,1,10,12.0,0.0
11550,52.0,8,10,13.0,0.0
11551,45.0,0,2,15.0,0.0
11552,67.0,0,15,8.0,0.0
11553,61.0,1,10,12.0,0.0
11554,55.0,0,10,12.0,0.0
11555,52.0,3,10,13.0,0.0
11556,45.0,6,0,15.0,0.0
11557,61.0,0,15,8.0,0.0
11558,61.0,0,10,12.0,0.0
11559,55.0,1,10,12.0,0.0
11560,52.0,8,10,13.0,0.0
11561,45.0,0,2,15.0,0.0
11562,64.0,0,15,8.0,0.0
11563,61.0,0,10,12.0,0.0
11564,55.0,1,10,12.0,0.0
11565,52.0,0,10,13.0,0.0
11566,74.0,0,60,2.0,0.0
11567,66.0,0,60,2.0,0.0
11568,86.0,1,60,7.0,0.0
11569,74.0,1,60,7.0,0.0
11570,86.0,0,60,0.0,0.0
11571,78.0,0,60,7.0,0.0
11572,81.0,0,60,0.0,0.0
11573,69.0,0,60,8.0,0.0
11574,62.0,1,60,8.0,0.0
11575,54.0,8,60,4.0,0.0
11576,45.0,0,0,4.0,0.0
11577,66.0,0,60,1.0,0.0
11578,74.0,0,60,1.0,0.0
11579,62.0,0,10,12.0,0.0
11580,45.0,1,0,15.0,0.0
11581,50.0,7,10,13.0,0.0
11582,62.0,3,60,3.0,0.0
11583,33.0,1,840,14.0,0.0
11584,45.0,1,2,15.0,0.0
11585,62.0,1,10,12.0,0.0
11586,50.0,2,10,13.0,0.0
11587,45.0,10,0,15.0,0.0
11588,62.0,1,10,12.0,0.0
11589,50.0,6,10,13.0,0.0
11590,45.0,2,1,15.0,0.0
11591,62.0,0,10,12.0,0.0
11592,50.0,1,10,13.0,0.0
11593,45.0,0,10,15.0,0.0
11594,57.0,0,60,4.0,0.0
11595,45.0,2,10,15.0,0.0
11596,62.0,1,10,12.0,0.0
11597,50.0,7,10,13.0,0.0
11598,45.0,7,10,15.0,0.0
11599,62.0,1,10,12.0,0.0
11600,50.0,2,10,13.0,0.0
11601,45.0,10,0,15.0,0.0
11602,62.0,1,10,12.0,0.0
11603,50.0,8,10,13.0,0.0
11604,62.0,1,10,12.0,0.0
11605,50.0,1,10,13.0,0.0
11606,45.0,6,2,15.0,0.0
11607,62.0,3,60,4.0,0.0
11608,45.0,3,10,15.0,0.0
11609,62.0,1,10,12.0,0.0
11610,50.0,8,10,13.0,0.0
11611,62.0,1,10,12.0,0.0
11612,50.0,1,10,13.0,0.0
11613,45.0,6,2,15.0,0.0
11614,62.0,1,10,12.0,0.0
11615,50.0,7,10,13.0,0.0
11616,45.0,2,0,15.0,0.0
11617,62.0,1,10,12.0,0.0
11618,50.0,1,10,13.0,0.0
11619,45.0,10,10,15.0,0.0
11620,66.0,3,60,4.0,0.0
11621,62.0,1,10,12.0,0.0
11622,50.0,8,10,13.0,0.0
11623,45.0,0,2,15.0,0.0
11624,62.0,1,10,12.0,0.0
11625,50.0,3,10,13.0,0.0
11626,45.0,11,10,15.0,0.0
11627,62.0,1,10,12.0,0.0
11628,50.0,8,10,13.0,0.0
11629,45.0,0,2,15.0,0.0
11630,62.0,1,10,12.0,0.0
11631,50.0,1,10,13.0,0.0
11632,45.0,10,10,15.0,0.0
11633,54.0,2,60,2.0,0.0
11634,69.0,1,175,4.0,0.0
11635,60.0,0,10,12.0,0.0
11636,48.0,7,10,13.0,0.0
11637,54.0,3,60,3.0,0.0
11638,50.0,0,475,3.0,0.0
11639,45.0,1,2,15.0,0.0
11640,60.0,1,10,12.0,0.0
11641,48.0,2,10,13.0,0.0
11642,45.0,10,10,15.0,0.0
11643,60.0,1,10,12.0,0.0
11644,48.0,6,10,13.0,0.0
11645,45.0,2,1,15.0,0.0
11646,60.0,1,10,12.0,0.0
11647,48.0,1,10,13.0,0.0
11648,45.0,8,10,15.0,0.0
11649,57.0,2,60,2.0,0.0
11650,45.0,2,10,15.0,0.0
11651,60.0,1,10,12.0,0.0
11652,48.0,7,10,13.0,0.0
11653,57.0,2,60,3.0,0.0
11654,60.0,1,10,12.0,0.0
11655,48.0,2,10,13.0,0.0
11656,45.0,7,0,15.0,0.0
11657,45.0,2,10,15.0,0.0
11658,60.0,1,10,12.0,0.0
11659,48.0,8,10,13.0,0.0
11660,60.0,1,10,12.0,0.0
11661,48.0,1,10,13.0,0.0
11662,45.0,4,2,15.0,0.0
11663,62.0,2,60,2.0,0.0
11664,45.0,8,0,15.0,0.0
11665,60.0,1,10,12.0,0.0
11666,48.0,8,10,13.0,0.0
11667,62.0,5,60,3.0,0.0
11668,60.0,1,10,12.0,0.0
11669,48.0,1,10,13.0,0.0
11670,45.0,6,2,15.0,0.0
11671,60.0,1,10,12.0,0.0
11672,48.0,7,10,13.0,0.0
11673,45.0,2,0,15.0,0.0
11674,60.0,1,10,12.0,0.0
11675,48.0,4,10,13.0,0.0
11676,45.0,5,10,15.0,0.0
11677,66.0,2,60,2.0,0.0
11678,62.0,1,55,4.0,0.0
11679,60.0,1,10,12.0,0.0
11680,48.0,0,10,13.0,0.0
11681,66.0,5,60,3.0,0.0
11682,45.0,8,2,15.0,0.0
11683,60.0,1,10,12.0,0.0
11684,48.0,3,10,13.0,0.0
11685,45.0,6,0,15.0,0.0
11686,60.0,1,10,12.0,0.0
11687,48.0,0,10,13.0,0.0
11688,45.0,8,2,15.0,0.0
11689,60.0,1,10,12.0,0.0
11690,48.0,4,10,13.0,0.0
11691,45.0,5,10,15.0,0.0
11692,74.0,4,175,2.0,0.0
11693,67.0,3,115,4.0,0.0
11694,62.0,11,60,1.0,0.0
11695,59.0,1,10,12.0,0.0
11696,47.0,7,10,13.0,0.0
11697,69.0,10,175,3.0,0.0
11698,45.0,0,2,15.0,0.0
11699,59.0,1,10,12.0,0.0
11700,47.0,2,10,13.0,0.0
11701,45.0,7,0,15.0,0.0
11702,45.0,10,0,15.0,0.0
11703,59.0,1,10,12.0,0.0
11704,47.0,6,10,13.0,0.0
11705,45.0,2,1,15.0,0.0
11706,59.0,1,10,12.0,0.0
11707,47.0,1,10,13.0,0.0
11708,45.0,8,0,15.0,0.0
11709,67.0,0,60,1.0,0.0
11710,59.0,1,10,12.0,0.0
11711,47.0,7,10,13.0,0.0
11712,45.0,2,0,15.0,0.0
11713,59.0,1,10,12.0,0.0
11714,47.0,2,10,13.0,0.0
11715,45.0,7,0,15.0,0.0
11716,45.0,2,10,15.0,0.0
11717,59.0,1,10,12.0,0.0
11718,47.0,8,10,13.0,0.0
11719,59.0,1,10,12.0,0.0
11720,47.0,1,10,13.0,0.0
11721,45.0,3,2,15.0,0.0
11722,71.0,3,60,1.0,0.0
11723,66.0,3,55,4.0,0.0
11724,45.0,3,10,15.0,0.0
11725,59.0,1,10,12.0,0.0
11726,47.0,8,10,13.0,0.0
11727,59.0,1,10,12.0,0.0
11728,47.0,1,10,13.0,0.0
11729,45.0,6,2,15.0,0.0
11730,45.0,2,10,15.0,0.0
11731,59.0,1,10,12.0,0.0
11732,47.0,7,10,13.0,0.0
11733,45.0,0,10,15.0,0.0
11734,59.0,1,10,12.0,0.0
11735,47.0,1,10,13.0,0.0
11736,45.0,0,10,15.0,0.0
11737,74.0,1,55,2.0,0.0
11738,74.0,3,55,1.0,0.0
11739,64.0,0,55,4.0,0.0
11740,59.0,1,10,12.0,0.0
11741,47.0,8,10,13.0,0.0
11742,69.0,10,55,3.0,0.0
11743,45.0,0,2,15.0,0.0
11744,59.0,1,10,12.0,0.0
11745,47.0,3,10,13.0,0.0
11746,45.0,11,10,15.0,0.0
11747,59.0,1,10,12.0,0.0
11748,47.0,7,10,13.0,0.0
11749,45.0,0,2,15.0,0.0
11750,59.0,1,10,12.0,0.0
11751,47.0,4,10,13.0,0.0
11752,74.0,1,180,2.0,0.0
11753,64.0,2,60,2.0,0.0
11754,79.0,1,115,1.0,0.0
11755,64.0,8,120,4.0,0.0
11756,57.0,1,10,12.0,0.0
11757,45.0,0,0,15.0,0.0
11758,45.0,7,10,13.0,0.0
11759,67.0,1,120,3.0,0.0
11760,52.0,0,120,3.0,0.0
11761,45.0,0,2,15.0,0.0
11762,57.0,1,10,12.0,0.0
11763,45.0,2,10,13.0,0.0
11764,45.0,7,0,15.0,0.0
11765,57.0,1,10,12.0,0.0
11766,45.0,6,10,13.0,0.0
11767,45.0,2,1,15.0,0.0
11768,57.0,1,10,12.0,0.0
11769,45.0,1,10,13.0,0.0
11770,45.0,6,0,15.0,0.0
11771,67.0,2,60,2.0,0.0
11772,45.0,2,10,15.0,0.0
11773,57.0,1,10,12.0,0.0
11774,45.0,7,10,13.0,0.0
11775,45.0,7,10,15.0,0.0
11776,57.0,1,10,12.0,0.0
11777,45.0,2,10,13.0,0.0
11778,45.0,10,0,15.0,0.0
11779,57.0,1,10,12.0,0.0
11780,45.0,8,10,13.0,0.0
11781,57.0,1,10,12.0,0.0
11782,45.0,1,10,13.0,0.0
11783,45.0,3,2,15.0,0.0
11784,69.0,0,60,2.0,0.0
11785,73.0,1,60,10.0,0.0
11786,69.0,1,60,10.0,0.0
11787,78.0,0,60,1.0,0.0
11788,69.0,3,60,11.0,0.0
11789,45.0,3,10,15.0,0.0
11790,69.0,1,115,4.0,0.0
11791,57.0,1,10,12.0,0.0
11792,43.0,8,10,13.0,0.0
11793,43.0,0,115,3.0,0.0
11794,57.0,1,115,3.0,0.0
11795,31.0,9,115,14.0,0.0
11796,57.0,1,10,12.0,0.0
11797,43.0,1,10,13.0,0.0
11798,45.0,6,2,15.0,0.0
11799,57.0,1,10,12.0,0.0
11800,43.0,7,10,13.0,0.0
11801,45.0,2,0,15.0,0.0
11802,57.0,0,10,12.0,0.0
11803,43.0,1,10,13.0,0.0
11804,45.0,10,10,15.0,0.0
11805,73.0,2,60,2.0,0.0
11806,76.0,0,55,1.0,0.0
11807,57.0,1,10,12.0,0.0
11808,43.0,0,10,13.0,0.0
11809,45.0,8,2,15.0,0.0
11810,57.0,1,10,12.0,0.0
11811,43.0,3,10,13.0,0.0
11812,45.0,11,10,15.0,0.0
11813,57.0,1,10,12.0,0.0
11814,43.0,0,10,13.0,0.0
11815,45.0,8,2,15.0,0.0
11816,57.0,1,10,12.0,0.0
11817,43.0,4,10,13.0,0.0
11818,45.0,0,10,15.0,0.0
11819,74.0,1,120,2.0,0.0
11820,81.0,1,235,2.0,0.0
11821,69.0,1,60,10.0,0.0
11822,69.0,0,60,0.0,0.0
11823,81.0,1,60,10.0,0.0
11824,69.0,0,60,11.0,0.0
11825,81.0,0,60,11.0,0.0
11826,62.0,0,60,11.0,0.0
11827,74.0,3,180,1.0,0.0
11828,57.0,0,60,4.0,0.0
11829,57.0,1,10,12.0,0.0
11830,42.0,7,10,13.0,0.0
11831,62.0,0,720,3.0,0.0
11832,42.0,5,240,3.0,0.0
11833,30.0,4,235,14.0,0.0
11834,45.0,0,2,15.0,0.0
11835,57.0,1,10,12.0,0.0
11836,42.0,2,10,13.0,0.0
11837,45.0,10,0,15.0,0.0
11838,57.0,1,10,12.0,0.0
11839,42.0,6,10,13.0,0.0
11840,45.0,2,1,15.0,0.0
11841,57.0,1,10,12.0,0.0
11842,42.0,1,10,13.0,0.0
11843,45.0,11,10,15.0,0.0
11844,74.0,1,60,0.0,0.0
11845,62.0,10,60,4.0,0.0
11846,57.0,1,10,12.0,0.0
11847,42.0,7,10,13.0,0.0
11848,45.0,2,0,15.0,0.0
11849,57.0,1,10,12.0,0.0
11850,42.0,2,10,13.0,0.0
11851,45.0,10,0,15.0,0.0
11852,57.0,1,10,12.0,0.0
11853,42.0,8,10,13.0,0.0
11854,57.0,1,10,12.0,0.0
11855,42.0,1,10,13.0,0.0
11856,45.0,4,2,15.0,0.0
11857,69.0,2,240,2.0,0.0
11858,78.0,1,60,0.0,0.0
11859,45.0,0,0,15.0,0.0
11860,66.0,0,60,4.0,0.0
11861,57.0,1,10,12.0,0.0
11862,42.0,8,10,13.0,0.0
11863,57.0,1,10,12.0,0.0
11864,42.0,1,10,13.0,0.0
11865,45.0,6,2,15.0,0.0
11866,57.0,1,10,12.0,0.0
11867,42.0,7,10,13.0,0.0
11868,45.0,2,0,15.0,0.0
11869,57.0,1,10,12.0,0.0
11870,42.0,1,10,13.0,0.0
11871,45.0,10,10,15.0,0.0
11872,81.0,1,60,0.0,0.0
11873,69.0,2,55,4.0,0.0
11874,78.0,3,60,1.0,0.0
11875,57.0,1,10,12.0,0.0
11876,42.0,0,10,13.0,0.0
11877,45.0,8,2,15.0,0.0
11878,57.0,1,10,12.0,0.0
11879,42.0,3,10,13.0,0.0
11880,45.0,6,0,15.0,0.0
11881,57.0,1,10,12.0,0.0
11882,42.0,0,10,13.0,0.0
11883,45.0,7,2,15.0,0.0
11884,57.0,1,10,12.0,0.0
11885,42.0,1,10,13.0,0.0
11886,83.0,1,235,2.0,0.0
11887,62.0,0,60,11.0,0.0
11888,74.0,1,60,10.0,0.0
11889,83.0,0,60,10.0,0.0
11890,69.0,1,60,11.0,0.0
11891,83.0,3,175,0.0,0.0
11892,62.0,0,60,10.0,0.0
11893,69.0,0,120,4.0,0.0
11894,81.0,3,175,1.0,0.0
11895,69.0,0,60,1.0,0.0
11896,81.0,0,60,11.0,0.0
11897,45.0,1,0,15.0,0.0
11898,57.0,1,10,12.0,0.0
11899,41.0,7,10,13.0,0.0
11900,41.0,5,240,3.0,0.0
11901,29.0,4,235,14.0,0.0
11902,45.0,0,2,15.0,0.0
11903,57.0,1,10,12.0,0.0
11904,41.0,2,10,13.0,0.0
11905,45.0,10,10,15.0,0.0
11906,57.0,1,10,12.0,0.0
11907,41.0,6,10,13.0,0.0
11908,45.0,2,1,15.0,0.0
11909,57.0,1,10,12.0,0.0
11910,41.0,1,10,13.0,0.0
11911,45.0,6,0,15.0,0.0
11912,74.0,0,60,1.0,0.0
11913,57.0,1,10,12.0,0.0
11914,41.0,7,10,13.0,0.0
11915,45.0,2,0,15.0,0.0
11916,57.0,1,10,12.0,0.0
11917,41.0,2,10,13.0,0.0
11918,45.0,10,0,15.0,0.0
11919,57.0,1,10,12.0,0.0
11920,41.0,8,10,13.0,0.0
11921,57.0,1,10,12.0,0.0
11922,41.0,1,10,13.0,0.0
11923,45.0,4,2,15.0,0.0
11924,62.0,0,115,2.0,0.0
11925,77.0,3,60,1.0,0.0
11926,45.0,0,0,15.0,0.0
11927,50.0,3,115,4.0,0.0
11928,62.0,0,115,4.0,0.0
11929,57.0,1,10,12.0,0.0
11930,41.0,8,10,13.0,0.0
11931,57.0,1,10,12.0,0.0
11932,41.0,1,10,13.0,0.0
11933,45.0,6,2,15.0,0.0
11934,57.0,1,10,12.0,0.0
11935,41.0,7,10,13.0,0.0
11936,45.0,2,0,15.0,0.0
11937,57.0,1,10,12.0,0.0
11938,41.0,1,10,13.0,0.0
11939,45.0,10,10,15.0,0.0
11940,83.0,3,55,0.0,0.0
11941,81.0,0,55,1.0,0.0
11942,57.0,1,10,12.0,0.0
11943,41.0,8,10,13.0,0.0
11944,45.0,0,2,15.0,0.0
11945,57.0,1,10,12.0,0.0
11946,41.0,3,10,13.0,0.0
11947,45.0,11,10,15.0,0.0
11948,57.0,1,10,12.0,0.0
11949,41.0,7,10,13.0,0.0
11950,45.0,0,2,15.0,0.0
11951,57.0,1,10,12.0,0.0
11952,41.0,4,10,13.0,0.0
11953,45.0,1,10,15.0,0.0
11954,83.0,1,60,10.0,0.0
11955,80.0,0,60,11.0,0.0
11956,64.0,0,60,11.0,0.0
11957,64.0,1,60,2.0,0.0
11958,74.0,0,235,2.0,0.0
11959,83.0,4,115,0.0,0.0
11960,62.0,0,60,10.0,0.0
11961,74.0,1,60,10.0,0.0
11962,74.0,1,60,11.0,0.0
11963,80.0,0,235,1.0,0.0
11964,64.0,2,235,4.0,0.0
11965,45.0,0,10,15.0,0.0
11966,56.0,1,10,12.0,0.0
11967,40.0,7,10,13.0,0.0
11968,40.0,5,240,3.0,0.0
11969,28.0,4,235,14.0,0.0
11970,56.0,1,10,12.0,0.0
11971,40.0,2,10,13.0,0.0
11972,50.0,7,0,15.0,0.0
11973,56.0,1,10,12.0,0.0
11974,40.0,6,10,13.0,0.0
11975,50.0,2,1,15.0,0.0
11976,56.0,1,10,12.0,0.0
11977,40.0,0,10,13.0,0.0
11978,50.0,5,0,15.0,0.0
11979,68.0,2,60,2.0,0.0
11980,56.0,1,10,12.0,0.0
11981,40.0,7,10,13.0,0.0
11982,50.0,2,0,15.0,0.0
11983,56.0,1,10,12.0,0.0
11984,40.0,2,10,13.0,0.0
11985,50.0,10,10,15.0,0.0
11986,50.0,2,10,15.0,0.0
11987,56.0,1,10,12.0,0.0
11988,40.0,8,10,13.0,0.0
11989,56.0,1,10,12.0,0.0
11990,40.0,1,10,13.0,0.0
11991,50.0,0,2,15.0,0.0
11992,69.0,1,60,2.0,0.0
11993,85.0,1,60,0.0,0.0
11994,50.0,10,0,15.0,0.0
11995,76.0,1,175,1.0,0.0
11996,56.0,1,10,12.0,0.0
11997,40.0,8,10,13.0,0.0
11998,56.0,1,10,12.0,0.0
11999,40.0,1,10,13.0,0.0
12000,50.0,6,2,15.0,0.0
12001,50.0,2,10,15.0,0.0
12002,56.0,1,10,12.0,0.0
12003,40.0,7,10,13.0,0.0
12004,50.0,5,10,15.0,0.0
12005,56.0,1,10,12.0,0.0
12006,40.0,4,10,13.0,0.0
12007,50.0,10,10,15.0,0.0
12008,71.0,1,55,2.0,0.0
12009,86.0,1,60,0.0,0.0
12010,56.0,1,10,12.0,0.0
12011,40.0,0,10,13.0,0.0
12012,50.0,8,2,15.0,0.0
12013,56.0,1,10,12.0,0.0
12014,40.0,3,10,13.0,0.0
12015,50.0,11,10,15.0,0.0
12016,56.0,1,10,12.0,0.0
12017,40.0,7,10,13.0,0.0
12018,50.0,0,2,15.0,0.0
12019,56.0,1,10,12.0,0.0
12020,40.0,4,10,13.0,0.0
12021,50.0,1,10,15.0,0.0
12022,64.0,0,60,10.0,0.0
12023,69.0,1,235,2.0,0.0
12024,73.0,1,60,10.0,0.0
12025,73.0,0,60,2.0,0.0
12026,81.0,1,60,10.0,0.0
12027,88.0,3,115,0.0,0.0
12028,73.0,1,60,11.0,0.0
12029,81.0,0,60,11.0,0.0
12030,64.0,1,60,11.0,0.0
12031,79.0,0,115,1.0,0.0
12032,64.0,3,235,4.0,0.0
12033,57.0,0,235,4.0,0.0
12034,57.0,1,10,12.0,0.0
12035,50.0,0,10,15.0,0.0
12036,45.0,7,10,13.0,0.0
12037,61.0,0,240,3.0,0.0
12038,45.0,5,240,3.0,0.0
12039,33.0,4,235,14.0,0.0
12040,45.0,7,10,15.0,0.0
12041,57.0,1,10,12.0,0.0
12042,45.0,2,10,13.0,0.0
12043,45.0,10,0,15.0,0.0
12044,57.0,1,10,12.0,0.0
12045,45.0,6,10,13.0,0.0
12046,45.0,2,1,15.0,0.0
12047,57.0,0,10,12.0,0.0
12048,45.0,0,10,13.0,0.0
12049,45.0,11,10,15.0,0.0
12050,76.0,1,55,2.0,0.0
12051,73.0,3,55,1.0,0.0
12052,57.0,1,10,12.0,0.0
12053,45.0,7,10,13.0,0.0
12054,45.0,2,0,15.0,0.0
12055,57.0,1,10,12.0,0.0
12056,45.0,2,10,13.0,0.0
12057,45.0,10,10,15.0,0.0
12058,45.0,2,10,15.0,0.0
12059,57.0,1,10,12.0,0.0
12060,45.0,7,10,13.0,0.0
12061,57.0,1,10,12.0,0.0
12062,45.0,1,10,13.0,0.0
12063,45.0,0,2,15.0,0.0
12064,78.0,1,51,2.0,0.0
12065,90.0,3,51,0.0,0.0
12066,45.0,10,0,15.0,0.0
12067,78.0,0,51,1.0,0.0
12068,69.0,7,51,1.0,0.0
12069,57.0,1,10,12.0,0.0
12070,45.0,8,10,13.0,0.0
12071,57.0,1,10,12.0,0.0
12072,45.0,1,10,13.0,0.0
12073,45.0,6,2,15.0,0.0
12074,57.0,1,10,12.0,0.0
12075,45.0,3,10,13.0,0.0
12076,45.0,2,0,15.0,0.0
12077,57.0,1,10,12.0,0.0
12078,45.0,4,10,13.0,0.0
12079,45.0,10,10,15.0,0.0
12080,79.0,1,51,2.0,0.0
12081,91.0,3,51,0.0,0.0
12082,67.0,0,51,1.0,0.0
12083,76.0,0,51,1.0,0.0
12084,57.0,1,10,12.0,0.0
12085,45.0,8,10,13.0,0.0
12086,45.0,0,2,15.0,0.0
12087,57.0,1,10,12.0,0.0
12088,45.0,3,10,13.0,0.0
12089,45.0,11,10,15.0,0.0
12090,57.0,1,10,12.0,0.0
12091,45.0,3,10,13.0,0.0
12092,45.0,0,2,15.0,0.0
12093,57.0,1,10,12.0,0.0
12094,45.0,4,10,13.0,0.0
12095,66.0,2,60,10.0,0.0
12096,69.0,0,60,2.0,0.0
12097,81.0,1,60,2.0,0.0
12098,93.0,0,115,0.0,0.0
12099,74.0,1,60,10.0,0.0
12100,78.0,0,60,11.0,0.0
12101,81.0,1,60,10.0,0.0
12102,62.0,0,480,4.0,0.0
12103,62.0,8,60,11.0,0.0
12104,69.0,0,60,11.0,0.0
12105,66.0,2,115,1.0,0.0
12106,74.0,0,115,1.0,0.0
12107,50.0,3,480,4.0,0.0
12108,45.0,1,0,15.0,0.0
12109,48.0,7,10,13.0,0.0
12110,50.0,0,60,3.0,0.0
12111,62.0,3,60,3.0,0.0
12112,36.0,6,115,14.0,0.0
12113,50.0,8,10,15.0,0.0
12114,48.0,2,10,13.0,0.0
12115,50.0,10,10,15.0,0.0
12116,48.0,6,10,13.0,0.0
12117,50.0,3,1,15.0,0.0
12118,48.0,1,10,13.0,0.0
12119,50.0,4,0,15.0,0.0
12120,48.0,7,10,13.0,0.0
12121,50.0,3,0,15.0,0.0
12122,48.0,2,10,13.0,0.0
12123,54.0,0,15,8.0,0.0
12124,50.0,10,0,15.0,0.0
12125,48.0,8,10,13.0,0.0
12126,62.0,2,15,8.0,0.0
12127,48.0,1,10,13.0,0.0
12128,50.0,3,2,15.0,0.0
12129,81.0,1,60,10.0,0.0
12130,66.0,1,60,10.0,0.0
12131,74.0,1,60,10.0,0.0
12132,69.0,2,15,7.0,0.0
12133,78.0,0,600,0.0,0.0
12134,62.0,0,60,11.0,0.0
12135,81.0,2,600,0.0,0.0
12136,78.0,1,60,11.0,0.0
12137,69.0,0,60,11.0,0.0
12138,78.0,0,600,1.0,0.0
12139,81.0,0,600,1.0,0.0
12140,50.0,2,10,15.0,0.0
12141,48.0,0,60,12.0,0.0
12142,47.0,8,10,13.0,0.0
12143,60.0,5,60,12.0,0.0
12144,35.0,1,55,14.0,0.0
12145,66.0,3,15,7.0,0.0
12146,47.0,1,10,13.0,0.0
12147,50.0,4,2,15.0,0.0
12148,74.0,1,15,7.0,0.0
12149,47.0,7,10,13.0,0.0
12150,81.0,0,15,7.0,0.0
12151,50.0,3,0,15.0,0.0
12152,47.0,4,10,13.0,0.0
12153,50.0,1,10,15.0,0.0
12154,78.0,4,15,7.0,0.0
12155,45.0,0,10,13.0,0.0
12156,33.0,9,55,14.0,0.0
12157,86.0,3,15,7.0,0.0
12158,50.0,8,2,15.0,0.0
12159,45.0,3,10,13.0,0.0
12160,50.0,4,0,15.0,0.0
12161,93.0,3,15,7.0,0.0
12162,45.0,8,10,13.0,0.0
12163,50.0,0,2,15.0,0.0
12164,45.0,4,10,13.0,0.0
12165,50.0,1,0,15.0,0.0
12166,48.0,7,10,13.0,0.0
12167,36.0,6,115,14.0,0.0
12168,50.0,1,2,15.0,0.0
12169,48.0,2,10,13.0,0.0
12170,50.0,10,0,15.0,0.0
12171,48.0,6,10,13.0,0.0
12172,50.0,3,1,15.0,0.0
12173,48.0,1,10,13.0,0.0
12174,50.0,9,0,15.0,0.0
12175,48.0,7,10,13.0,0.0
12176,50.0,3,0,15.0,0.0
12177,48.0,2,10,13.0,0.0
12178,54.0,8,15,8.0,0.0
12179,50.0,10,0,15.0,0.0
12180,48.0,0,10,13.0,0.0
12181,62.0,1,15,8.0,0.0
12182,48.0,1,10,13.0,0.0
12183,50.0,6,2,15.0,0.0
12184,74.0,1,60,10.0,0.0
12185,69.0,3,15,7.0,0.0
12186,81.0,1,60,10.0,0.0
12187,69.0,0,60,11.0,0.0
12188,66.0,1,60,10.0,0.0
12189,62.0,0,60,11.0,0.0
12190,78.0,4,60,11.0,0.0
12191,50.0,1,10,15.0,0.0
12192,60.0,0,60,12.0,0.0
12193,48.0,0,60,12.0,0.0
12194,47.0,8,10,13.0,0.0
12195,35.0,7,55,14.0,0.0
12196,66.0,3,15,7.0,0.0
12197,47.0,1,10,13.0,0.0
12198,50.0,4,2,15.0,0.0
12199,74.0,1,15,7.0,0.0
12200,50.0,3,10,15.0,0.0
12201,47.0,7,10,13.0,0.0
12202,81.0,0,15,7.0,0.0
12203,50.0,5,10,15.0,0.0
12204,47.0,0,10,13.0,0.0
12205,50.0,1,10,15.0,0.0
12206,78.0,3,15,7.0,0.0
12207,45.0,0,10,13.0,0.0
12208,33.0,9,55,14.0,0.0
12209,86.0,3,15,7.0,0.0
12210,50.0,8,2,15.0,0.0
12211,45.0,3,10,13.0,0.0
12212,50.0,8,10,15.0,0.0
12213,93.0,4,15,7.0,0.0
12214,45.0,8,10,13.0,0.0
12215,50.0,0,2,15.0,0.0
12216,45.0,1,10,13.0,0.0
12217,63.0,4,240,4.0,0.0
12218,50.0,1,0,15.0,0.0
12219,48.0,15,10,13.0,0.0
12220,63.0,0,240,3.0,0.0
12221,51.0,6,240,3.0,0.0
12222,36.0,8,115,14.0,0.0
12223,48.0,15,10,13.0,0.0
12224,48.0,15,10,13.0,0.0
12225,48.0,15,10,13.0,0.0
12226,48.0,15,10,13.0,0.0
12227,48.0,14,10,13.0,0.0
12228,54.0,1,15,8.0,0.0
12229,48.0,13,10,13.0,0.0
12230,63.0,2,15,8.0,0.0
12231,48.0,5,10,13.0,0.0
12232,81.0,1,60,10.0,0.0
12233,75.0,1,60,10.0,0.0
12234,69.0,2,15,7.0,0.0
12235,66.0,1,60,10.0,0.0
12236,72.0,0,60,6.0,0.0
12237,78.0,0,60,11.0,0.0
12238,69.0,0,60,11.0,0.0
12239,63.0,4,60,11.0,0.0
12240,47.0,13,10,13.0,0.0
12241,48.0,0,60,12.0,0.0
12242,60.0,6,60,12.0,0.0
12243,35.0,1,55,14.0,0.0
12244,66.0,2,15,7.0,0.0
12245,47.0,12,10,13.0,0.0
12246,75.0,3,15,7.0,0.0
12247,47.0,10,10,13.0,0.0
12248,81.0,2,15,7.0,0.0
12249,47.0,1,10,13.0,0.0
12250,78.0,3,15,7.0,0.0
12251,45.0,13,10,13.0,0.0
12252,33.0,4,55,14.0,0.0
12253,87.0,2,15,7.0,0.0
12254,45.0,13,10,13.0,0.0
12255,93.0,2,15,7.0,0.0
12256,45.0,13,10,13.0,0.0
12257,45.0,1,10,13.0,0.0
12258,76.0,0,235,0.0,0.0
12259,79.0,3,235,0.0,0.0
12260,76.0,0,235,1.0,0.0
12261,79.0,0,235,1.0,0.0
12262,60.0,1,235,4.0,0.0
12263,64.0,0,235,4.0,0.0
12264,48.0,15,10,13.0,0.0
12265,52.0,0,240,3.0,0.0
12266,64.0,4,240,3.0,0.0
12267,36.0,10,55,14.0,0.0
12268,48.0,15,10,13.0,0.0
12269,48.0,15,10,13.0,0.0
12270,48.0,5,10,13.0,0.0
12271,43.0,15,10,13.0,0.0
12272,31.0,7,55,14.0,0.0
12273,43.0,15,10,13.0,0.0
12274,55.0,14,15,8.0,0.0
12275,43.0,0,10,13.0,0.0
12276,64.0,1,15,8.0,0.0
12277,43.0,5,10,13.0,0.0
12278,72.0,3,15,7.0,0.0
12279,64.0,1,60,11.0,0.0
12280,67.0,3,120,2.0,0.0
12281,72.0,0,60,11.0,0.0
12282,76.0,0,60,10.0,0.0
12283,67.0,0,60,10.0,0.0
12284,84.0,1,60,10.0,0.0
12285,72.0,0,60,6.0,0.0
12286,79.0,4,60,11.0,0.0
12287,48.0,1,60,12.0,0.0
12288,60.0,0,60,12.0,0.0
12289,42.0,12,10,13.0,0.0
12290,30.0,8,55,14.0,0.0
12291,67.0,3,15,7.0,0.0
12292,42.0,12,10,13.0,0.0
12293,79.0,3,15,7.0,0.0
12294,42.0,12,10,13.0,0.0
12295,84.0,1,15,7.0,0.0
12296,42.0,0,10,13.0,0.0
12297,79.0,2,15,7.0,0.0
12298,40.0,12,10,13.0,0.0
12299,28.0,4,55,14.0,0.0
12300,91.0,3,15,7.0,0.0
12301,40.0,11,10,13.0,0.0
12302,96.0,4,15,7.0,0.0
12303,40.0,8,10,13.0,0.0
12304,40.0,5,10,13.0,0.0
12305,74.0,0,60,10.0,0.0
12306,72.0,0,60,11.0,0.0
12307,81.0,2,60,11.0,0.0
12308,69.0,1,120,2.0,0.0
12309,72.0,0,120,2.0,0.0
12310,84.0,1,15,7.0,0.0
12311,81.0,0,120,0.0,0.0
12312,84.0,0,120,0.0,0.0
12313,38.0,1,60,8.0,0.0
12314,84.0,0,60,10.0,0.0
12315,62.0,10,60,6.0,0.0
12316,62.0,0,60,11.0,0.0
12317,50.0,0,480,4.0,0.0
12318,84.0,0,120,1.0,0.0
12319,81.0,0,120,1.0,0.0
12320,66.0,8,120,4.0,0.0
12321,54.0,1,10,12.0,0.0
12322,38.0,5,10,13.0,0.0
12323,54.0,4,120,3.0,0.0
12324,38.0,4,475,14.0,0.0
12325,78.0,3,15,7.0,0.0
12326,50.0,6,8,15.0,0.0
12327,54.0,1,10,12.0,0.0
12328,38.0,0,10,13.0,0.0
12329,50.0,10,8,15.0,0.0
12330,69.0,1,15,7.0,0.0
12331,50.0,3,8,15.0,0.0
12332,54.0,1,10,12.0,0.0
12333,38.0,4,10,13.0,0.0
12334,78.0,1,15,7.0,0.0
12335,50.0,7,8,15.0,0.0
12336,54.0,0,10,12.0,0.0
12337,38.0,0,10,13.0,0.0
12338,50.0,0,8,15.0,0.0
12339,72.0,0,15,8.0,0.0
12340,50.0,4,8,15.0,0.0
12341,54.0,1,10,12.0,0.0
12342,38.0,5,10,13.0,0.0
12343,50.0,8,8,15.0,0.0
12344,66.0,1,15,8.0,0.0
12345,54.0,1,10,12.0,0.0
12346,38.0,10,10,13.0,0.0
12347,50.0,0,8,15.0,0.0
12348,57.0,1,15,8.0,0.0
12349,50.0,3,8,15.0,0.0
12350,54.0,1,10,12.0,0.0
12351,38.0,6,10,13.0,0.0
12352,50.0,6,8,15.0,0.0
12353,66.0,1,15,8.0,0.0
12354,54.0,0,10,12.0,0.0
12355,38.0,1,10,13.0,0.0
12356,50.0,1,8,15.0,0.0
12357,67.0,1,120,2.0,0.0
12358,71.0,0,120,2.0,0.0
12359,74.0,1,60,10.0,0.0
12360,79.0,1,240,0.0,0.0
12361,71.0,1,60,11.0,0.0
12362,83.0,1,120,0.0,0.0
12363,83.0,1,15,7.0,0.0
12364,83.0,1,60,10.0,0.0
12365,62.0,2,60,11.0,0.0
12366,79.0,0,60,11.0,0.0
12367,67.0,1,120,4.0,0.0
12368,83.0,8,240,1.0,0.0
12369,79.0,0,240,1.0,0.0
12370,50.0,0,8,15.0,0.0
12371,55.0,1,10,12.0,0.0
12372,38.0,6,10,13.0,0.0
12373,55.0,2,120,3.0,0.0
12374,79.0,3,15,7.0,0.0
12375,50.0,5,8,15.0,0.0
12376,55.0,1,10,12.0,0.0
12377,38.0,10,10,13.0,0.0
12378,50.0,0,8,15.0,0.0
12379,71.0,3,15,7.0,0.0
12380,50.0,1,8,15.0,0.0
12381,55.0,1,10,12.0,0.0
12382,38.0,5,10,13.0,0.0
12383,79.0,1,15,7.0,0.0
12384,50.0,6,8,15.0,0.0
12385,55.0,0,10,12.0,0.0
12386,38.0,0,10,13.0,0.0
12387,50.0,11,8,15.0,0.0
12388,71.0,0,15,8.0,0.0
12389,55.0,1,10,12.0,0.0
12390,38.0,6,10,13.0,0.0
12391,50.0,1,8,15.0,0.0
12392,50.0,8,8,15.0,0.0
12393,67.0,1,15,8.0,0.0
12394,55.0,1,10,12.0,0.0
12395,38.0,0,10,13.0,0.0
12396,50.0,12,8,15.0,0.0
12397,59.0,1,15,8.0,0.0
12398,55.0,1,10,12.0,0.0
12399,50.0,0,8,15.0,0.0
12400,38.0,6,10,13.0,0.0
12401,67.0,0,15,8.0,0.0
12402,50.0,6,8,15.0,0.0
12403,55.0,1,10,12.0,0.0
12404,38.0,1,10,13.0,0.0
12405,50.0,7,8,15.0,0.0
12406,91.0,1,15,7.0,0.0
12407,79.0,1,120,2.0,0.0
12408,71.0,0,120,2.0,0.0
12409,91.0,0,120,0.0,0.0
12410,62.0,10,60,6.0,0.0
12411,59.0,0,120,4.0,0.0
12412,59.0,1,10,12.0,0.0
12413,38.0,5,10,13.0,0.0
12414,59.0,3,120,3.0,0.0
12415,50.0,2,0,15.0,0.0
12416,83.0,2,15,7.0,0.0
12417,50.0,0,8,15.0,0.0
12418,59.0,1,10,12.0,0.0
12419,38.0,0,10,13.0,0.0
12420,50.0,10,8,15.0,0.0
12421,79.0,3,15,7.0,0.0
12422,50.0,1,8,15.0,0.0
12423,59.0,1,10,12.0,0.0
12424,38.0,12,10,13.0,0.0
12425,83.0,2,15,7.0,0.0
12426,59.0,1,10,12.0,0.0
12427,38.0,0,10,13.0,0.0
12428,50.0,0,8,15.0,0.0
12429,74.0,1,15,8.0,0.0
12430,50.0,4,8,15.0,0.0
12431,59.0,0,10,12.0,0.0
12432,38.0,5,10,13.0,0.0
12433,50.0,9,8,15.0,0.0
12434,71.0,1,15,8.0,0.0
12435,59.0,0,10,12.0,0.0
12436,38.0,0,10,13.0,0.0
12437,50.0,10,8,15.0,0.0
12438,62.0,0,15,8.0,0.0
12439,50.0,4,8,15.0,0.0
12440,59.0,1,10,12.0,0.0
12441,38.0,6,10,13.0,0.0
12442,71.0,1,15,8.0,0.0
12443,59.0,0,10,12.0,0.0
12444,38.0,1,10,13.0,0.0
12445,50.0,6,0,15.0,0.0
12446,74.0,2,60,10.0,0.0
12447,90.0,2,15,7.0,0.0
12448,78.0,1,120,2.0,0.0
12449,69.0,0,120,2.0,0.0
12450,69.0,1,60,11.0,0.0
12451,81.0,1,120,0.0,0.0
12452,90.0,0,120,0.0,0.0
12453,81.0,1,60,10.0,0.0
12454,62.0,0,120,4.0,0.0
12455,78.0,1,60,11.0,0.0
12456,50.0,0,8,15.0,0.0
12457,78.0,0,120,1.0,0.0
12458,81.0,1,120,1.0,0.0
12459,62.0,0,60,11.0,0.0
12460,62.0,1,10,12.0,0.0
12461,38.0,6,10,13.0,0.0
12462,62.0,3,120,3.0,0.0
12463,81.0,2,15,7.0,0.0
12464,50.0,6,8,15.0,0.0
12465,62.0,1,10,12.0,0.0
12466,38.0,10,10,13.0,0.0
12467,50.0,0,8,15.0,0.0
12468,78.0,2,15,7.0,0.0
12469,50.0,2,8,15.0,0.0
12470,62.0,1,10,12.0,0.0
12471,38.0,5,10,13.0,0.0
12472,50.0,5,8,15.0,0.0
12473,81.0,1,15,7.0,0.0
12474,62.0,0,10,12.0,0.0
12475,38.0,1,10,13.0,0.0
12476,50.0,11,8,15.0,0.0
12477,74.0,1,15,8.0,0.0
12478,62.0,1,10,12.0,0.0
12479,38.0,6,10,13.0,0.0
12480,50.0,0,0,15.0,0.0
12481,69.0,0,15,8.0,0.0
12482,62.0,1,10,12.0,0.0
12483,38.0,1,10,13.0,0.0
12484,50.0,12,8,15.0,0.0
12485,62.0,6,15,8.0,0.0
12486,62.0,1,10,12.0,0.0
12487,50.0,1,8,15.0,0.0
12488,38.0,0,10,13.0,0.0
12489,50.0,6,8,15.0,0.0
12490,69.0,1,15,8.0,0.0
12491,62.0,1,10,12.0,0.0
12492,38.0,0,10,13.0,0.0
12493,50.0,3,8,15.0,0.0
12494,67.0,0,240,2.0,0.0
12495,76.0,1,120,2.0,0.0
12496,88.0,1,120,0.0,0.0
12497,88.0,1,15,7.0,0.0
12498,67.0,0,240,4.0,0.0
12499,79.0,8,120,1.0,0.0
12500,67.0,1,10,12.0,0.0
12501,50.0,1,8,15.0,0.0
12502,43.0,5,10,13.0,0.0
12503,67.0,2,240,3.0,0.0
12504,31.0,4,235,14.0,0.0
12505,50.0,0,8,15.0,0.0
12506,79.0,1,15,7.0,0.0
12507,67.0,1,10,12.0,0.0
12508,43.0,0,10,13.0,0.0
12509,50.0,10,8,15.0,0.0
12510,76.0,1,15,7.0,0.0
12511,50.0,3,8,15.0,0.0
12512,67.0,1,10,12.0,0.0
12513,43.0,13,10,13.0,0.0
12514,79.0,1,15,7.0,0.0
12515,67.0,0,10,12.0,0.0
12516,43.0,10,10,13.0,0.0
12517,50.0,1,8,15.0,0.0
12518,76.0,0,15,8.0,0.0
12519,50.0,4,8,15.0,0.0
12520,67.0,1,10,12.0,0.0
12521,43.0,5,10,13.0,0.0
12522,50.0,9,8,15.0,0.0
12523,67.0,0,15,8.0,0.0
12524,67.0,1,10,12.0,0.0
12525,43.0,10,10,13.0,0.0
12526,50.0,0,8,15.0,0.0
12527,64.0,1,15,8.0,0.0
12528,50.0,3,8,15.0,0.0
12529,67.0,1,10,12.0,0.0
12530,43.0,6,10,13.0,0.0
12531,50.0,6,8,15.0,0.0
12532,67.0,0,15,8.0,0.0
12533,67.0,1,10,12.0,0.0
12534,43.0,1,10,13.0,0.0
12535,50.0,0,8,15.0,0.0
12536,71.0,2,60,10.0,0.0
12537,64.0,0,60,11.0,0.0
12538,71.0,0,60,11.0,0.0
12539,71.0,1,120,2.0,0.0
12540,55.0,1,60,11.0,0.0
12541,83.0,1,15,7.0,0.0
12542,83.0,0,120,0.0,0.0
12543,79.0,0,60,10.0,0.0
12544,76.0,0,120,1.0,0.0
12545,50.0,4,8,15.0,0.0
12546,64.0,0,120,4.0,0.0
12547,67.0,1,10,12.0,0.0
12548,43.0,6,10,13.0,0.0
12549,50.0,7,8,15.0,0.0
12550,76.0,1,15,7.0,0.0
12551,67.0,0,10,12.0,0.0
12552,43.0,10,10,13.0,0.0
12553,50.0,1,8,15.0,0.0
12554,71.0,3,15,7.0,0.0
12555,50.0,1,8,15.0,0.0
12556,67.0,1,10,12.0,0.0
12557,43.0,5,10,13.0,0.0
12558,76.0,1,15,7.0,0.0
12559,50.0,5,8,15.0,0.0
12560,67.0,1,10,12.0,0.0
12561,43.0,2,10,13.0,0.0
12562,50.0,11,8,15.0,0.0
12563,67.0,1,15,8.0,0.0
12564,67.0,1,10,12.0,0.0
12565,50.0,0,8,15.0,0.0
12566,43.0,6,10,13.0,0.0
12567,50.0,8,8,15.0,0.0
12568,64.0,1,15,8.0,0.0
12569,67.0,0,10,12.0,0.0
12570,43.0,1,10,13.0,0.0
12571,50.0,12,8,15.0,0.0
12572,55.0,1,15,8.0,0.0
12573,67.0,1,10,12.0,0.0
12574,43.0,6,10,13.0,0.0
12575,50.0,0,0,15.0,0.0
12576,64.0,1,15,8.0,0.0
12577,67.0,0,10,12.0,0.0
12578,43.0,1,10,13.0,0.0
12579,50.0,3,8,15.0,0.0
12580,76.0,1,60,10.0,0.0
12581,69.0,0,60,10.0,0.0
12582,86.0,1,15,7.0,0.0
12583,66.0,1,120,2.0,0.0
12584,69.0,0,120,2.0,0.0
12585,86.0,1,120,0.0,0.0
12586,81.0,0,120,0.0,0.0
12587,57.0,0,60,11.0,0.0
12588,74.0,0,60,11.0,0.0
12589,66.0,0,120,4.0,0.0
12590,57.0,0,240,4.0,0.0
12591,66.0,0,60,11.0,0.0
12592,78.0,0,120,1.0,0.0
12593,74.0,0,120,1.0,0.0
12594,50.0,2,8,15.0,0.0
12595,66.0,6,10,12.0,0.0
12596,45.0,9,26,13.0,0.0
12597,66.0,0,120,3.0,0.0
12598,33.0,4,235,14.0,0.0
12599,45.0,7,8,15.0,0.0
12600,81.0,2,15,7.0,0.0
12601,66.0,1,10,12.0,0.0
12602,45.0,1,8,15.0,0.0
12603,74.0,3,15,7.0,0.0
12604,45.0,1,8,15.0,0.0
12605,66.0,5,10,12.0,0.0
12606,45.0,9,26,13.0,0.0
12607,45.0,6,8,15.0,0.0
12608,81.0,3,15,7.0,0.0
12609,66.0,0,10,12.0,0.0
12610,45.0,2,8,15.0,0.0
12611,69.0,1,15,8.0,0.0
12612,45.0,3,8,15.0,0.0
12613,66.0,6,10,12.0,0.0
12614,45.0,9,26,13.0,0.0
12615,45.0,9,8,15.0,0.0
12616,66.0,0,15,8.0,0.0
12617,66.0,1,10,12.0,0.0
12618,45.0,1,8,15.0,0.0
12619,57.0,7,15,8.0,0.0
12620,45.0,4,8,15.0,0.0
12621,66.0,0,10,12.0,0.0
12622,45.0,8,26,13.0,0.0
12623,66.0,1,15,8.0,0.0
12624,66.0,1,10,12.0,0.0
12625,45.0,6,0,15.0,0.0
12626,76.0,1,60,10.0,0.0
12627,67.0,0,120,2.0,0.0
12628,64.0,1,120,2.0,0.0
12629,67.0,0,60,10.0,0.0
12630,79.0,0,120,0.0,0.0
12631,64.0,1,60,11.0,0.0
12632,73.0,0,60,11.0,0.0
12633,85.0,1,15,7.0,0.0
12634,85.0,1,120,0.0,0.0
12635,57.0,0,60,11.0,0.0
12636,73.0,1,120,1.0,0.0
12637,79.0,0,120,1.0,0.0
12638,64.0,0,120,4.0,0.0
12639,45.0,4,8,15.0,0.0
12640,64.0,7,10,12.0,0.0
12641,45.0,9,26,13.0,0.0
12642,64.0,3,120,3.0,0.0
12643,81.0,2,15,7.0,0.0
12644,45.0,6,8,15.0,0.0
12645,64.0,2,10,12.0,0.0
12646,45.0,0,8,15.0,0.0
12647,73.0,1,15,7.0,0.0
12648,45.0,3,8,15.0,0.0
12649,64.0,6,10,12.0,0.0
12650,45.0,1,26,13.0,0.0
12651,45.0,7,8,15.0,0.0
12652,81.0,0,15,7.0,0.0
12653,64.0,2,10,12.0,0.0
12654,45.0,11,8,15.0,0.0
12655,69.0,6,15,8.0,0.0
12656,64.0,1,10,12.0,0.0
12657,45.0,12,26,13.0,0.0
12658,45.0,1,0,15.0,0.0
12659,64.0,1,15,8.0,0.0
12660,64.0,1,10,12.0,0.0
12661,45.0,0,8,15.0,0.0
12662,57.0,1,15,8.0,0.0
12663,64.0,7,10,12.0,0.0
12664,45.0,0,26,13.0,0.0
12665,45.0,0,0,15.0,0.0
12666,64.0,0,15,8.0,0.0
12667,64.0,2,10,12.0,0.0
12668,45.0,3,8,15.0,0.0
12669,81.0,1,120,7.0,0.0
12670,86.0,1,120,7.0,0.0
12671,74.0,0,120,7.0,0.0
12672,66.0,0,60,2.0,0.0
12673,66.0,0,60,11.0,0.0
12674,74.0,1,60,11.0,0.0
12675,62.0,0,60,2.0,0.0
12676,86.0,0,60,0.0,0.0
12677,78.0,1,60,0.0,0.0
12678,66.0,0,60,10.0,0.0
12679,66.0,0,120,8.0,0.0
12680,62.0,66,120,8.0,0.0
12681,74.0,2,60,10.0,0.0
12682,57.0,0,60,11.0,0.0
12683,78.0,0,60,1.0,0.0
12684,74.0,3,60,1.0,0.0
12685,45.0,27,8,15.0,0.0
12686,62.0,6,60,12.0,0.0
12687,45.0,0,102,13.0,0.0
12688,38.0,9,102,13.0,0.0
12689,45.0,18,30,3.0,0.0
12690,38.0,2,60,14.0,0.0
12691,50.0,35,60,15.0,0.0
12692,50.0,8,115,3.0,0.0
12693,45.0,7,102,13.0,0.0
12694,38.0,0,102,13.0,0.0
12695,50.0,7,60,15.0,0.0
12696,52.0,10,10,3.0,0.0
12697,54.0,10,10,3.0,0.0
12698,52.0,8,10,3.0,0.0
12699,50.0,15,15,3.0,0.0
12700,52.0,30,15,3.0,0.0
12701,38.0,85,102,13.0,0.0
12702,45.0,0,102,13.0,0.0
12703,54.0,33,30,3.0,0.0
12704,50.0,27,60,15.0,0.0
12705,57.0,8,30,3.0,0.0
12706,45.0,0,77,13.0,0.0
12707,38.0,34,77,13.0,0.0
12708,62.0,11,565,3.0,0.0
12709,50.0,10,60,15.0,0.0
12710,66.0,5,25,1.0,0.0
12711,74.0,0,25,1.0,0.0
12712,45.0,30,26,13.0,0.0
12713,38.0,0,26,13.0,0.0
12714,64.0,20,30,1.0,0.0
12715,73.0,0,30,1.0,0.0
12716,45.0,23,77,13.0,0.0
12717,38.0,0,77,13.0,0.0
12718,50.0,3,60,15.0,0.0
12719,74.0,0,20,1.0,0.0
12720,66.0,21,20,1.0,0.0
12721,67.0,7,14,1.0,0.0
12722,76.0,0,14,1.0,0.0
12723,69.0,0,14,1.0,0.0
12724,78.0,16,14,1.0,0.0
12725,38.0,30,26,13.0,0.0
12726,45.0,0,26,13.0,0.0
12727,79.0,0,30,1.0,0.0
12728,71.0,20,30,1.0,0.0
12729,38.0,23,77,13.0,0.0
12730,45.0,0,77,13.0,0.0
12731,50.0,3,60,15.0,0.0
12732,67.0,21,20,1.0,0.0
12733,76.0,0,20,1.0,0.0
12734,66.0,7,14,1.0,0.0
12735,74.0,0,14,1.0,0.0
12736,73.0,16,14,1.0,0.0
12737,64.0,0,14,1.0,0.0
12738,38.0,30,26,13.0,0.0
12739,45.0,0,26,13.0,0.0
12740,66.0,20,30,1.0,0.0
12741,74.0,0,30,1.0,0.0
12742,38.0,23,77,13.0,0.0
12743,45.0,0,77,13.0,0.0
12744,50.0,3,60,15.0,0.0
12745,69.0,21,20,1.0,0.0
12746,76.0,0,20,1.0,0.0
12747,78.0,0,14,1.0,0.0
12748,74.0,7,14,1.0,0.0
12749,79.0,16,14,1.0,0.0
12750,76.0,0,14,1.0,0.0
12751,38.0,30,26,13.0,0.0
12752,45.0,0,26,13.0,0.0
12753,81.0,0,30,1.0,0.0
12754,78.0,20,30,1.0,0.0
12755,38.0,12,77,13.0,0.0
12756,45.0,0,77,13.0,0.0
12757,50.0,3,60,15.0,0.0
12758,74.0,21,20,1.0,0.0
12759,78.0,0,20,1.0,0.0
12760,69.0,0,14,1.0,0.0
12761,76.0,7,14,1.0,0.0
12762,66.0,11,14,1.0,0.0
12763,74.0,0,14,1.0,0.0
12764,57.0,0,25,4.0,0.0
12765,62.0,5,25,4.0,0.0
12766,45.0,3,26,13.0,0.0
12767,38.0,0,26,13.0,0.0
12768,54.0,27,25,3.0,0.0
12769,81.0,25,390,1.0,0.0
12770,69.0,19,450,1.0,0.0
12771,57.0,2,85,4.0,0.0
12772,61.0,8,30,4.0,0.0
12773,45.0,0,77,13.0,0.0
12774,38.0,4,77,13.0,0.0
12775,52.0,17,30,3.0,0.0
12776,50.0,8,60,15.0,0.0
12777,62.0,8,25,4.0,0.0
12778,54.0,8,25,3.0,0.0
12779,64.0,2,19,4.0,0.0
12780,55.0,22,19,3.0,0.0
12781,66.0,0,19,4.0,0.0
12782,57.0,8,19,4.0,0.0
12783,38.0,30,26,13.0,0.0
12784,45.0,0,26,13.0,0.0
12785,57.0,3,19,3.0,0.0
12786,67.0,8,30,4.0,0.0
12787,57.0,2,85,4.0,0.0
12788,45.0,0,77,13.0,0.0
12789,38.0,4,77,13.0,0.0
12790,59.0,17,30,3.0,0.0
12791,50.0,8,60,15.0,0.0
12792,64.0,8,25,4.0,0.0
12793,55.0,8,25,3.0,0.0
12794,62.0,2,19,4.0,0.0
12795,54.0,22,19,3.0,0.0
12796,57.0,8,19,4.0,0.0
12797,61.0,0,19,4.0,0.0
12798,38.0,0,26,13.0,0.0
12799,45.0,30,26,13.0,0.0
12800,52.0,3,19,3.0,0.0
12801,62.0,0,30,4.0,0.0
12802,54.0,25,30,4.0,0.0
12803,38.0,0,77,13.0,0.0
12804,45.0,28,77,13.0,0.0
12805,57.0,4,240,3.0,0.0
12806,50.0,8,60,15.0,0.0
12807,57.0,0,25,4.0,0.0
12808,64.0,16,25,4.0,0.0
12809,66.0,2,19,4.0,0.0
12810,62.0,0,19,4.0,0.0
12811,67.0,0,19,4.0,0.0
12812,64.0,11,19,4.0,0.0
12813,38.0,30,26,13.0,0.0
12814,45.0,0,26,13.0,0.0
12815,69.0,0,30,4.0,0.0
12816,66.0,0,30,4.0,0.0
12817,38.0,0,77,13.0,0.0
12818,45.0,9,77,13.0,0.0
12819,50.0,8,60,15.0,0.0
12820,62.0,0,25,4.0,0.0
12821,66.0,16,25,4.0,0.0
12822,78.0,0,25,1.0,0.0
12823,76.0,0,30,1.0,0.0
12824,57.0,2,19,4.0,0.0
12825,64.0,0,19,4.0,0.0
12826,66.0,3,26,7.0,0.0
12827,74.0,0,26,7.0,0.0
12828,81.0,0,25,0.0,0.0
12829,54.0,0,26,8.0,0.0
12830,62.0,4,26,8.0,0.0
12831,69.0,0,30,1.0,0.0
12832,74.0,0,30,1.0,0.0
12833,54.0,0,19,4.0,0.0
12834,62.0,3,19,4.0,0.0
12835,57.0,0,26,12.0,0.0
12836,50.0,1,26,12.0,0.0
12837,45.0,0,26,13.0,0.0
12838,38.0,5,26,13.0,0.0
12839,73.0,1,30,7.0,0.0
12840,83.0,3,8,0.0,0.0
12841,64.0,0,30,7.0,0.0
12842,61.0,1,30,8.0,0.0
12843,64.0,5,180,4.0,0.0
12844,52.0,5,30,8.0,0.0
12845,57.0,0,180,4.0,0.0
12846,57.0,0,77,12.0,0.0
12847,50.0,0,77,12.0,0.0
12848,81.0,8,8,0.0,0.0
12849,38.0,1,77,13.0,0.0
12850,50.0,1,60,15.0,0.0
12851,83.0,6,8,0.0,0.0
12852,81.0,2,8,0.0,0.0
12853,76.0,1,30,7.0,0.0
12854,83.0,7,8,0.0,0.0
12855,67.0,0,30,7.0,0.0
12856,64.0,1,30,8.0,0.0
12857,55.0,5,30,8.0,0.0
12858,81.0,8,8,0.0,0.0
12859,83.0,6,8,0.0,0.0
12860,81.0,2,8,0.0,0.0
12861,78.0,1,26,7.0,0.0
12862,69.0,2,26,7.0,0.0
12863,83.0,6,8,0.0,0.0
12864,66.0,1,26,8.0,0.0
12865,57.0,1,26,8.0,0.0
12866,81.0,8,8,0.0,0.0
12867,83.0,1,8,0.0,0.0
12868,81.0,8,8,0.0,0.0
12869,79.0,0,26,7.0,0.0
12870,71.0,3,26,7.0,0.0
12871,83.0,7,8,0.0,0.0
12872,67.0,1,26,8.0,0.0
12873,59.0,1,26,8.0,0.0
12874,50.0,1,26,12.0,0.0
12875,57.0,0,26,12.0,0.0
12876,81.0,8,8,0.0,0.0
12877,38.0,5,26,13.0,0.0
12878,83.0,2,8,0.0,0.0
12879,81.0,2,8,0.0,0.0
12880,83.0,1,30,7.0,0.0
12881,83.0,7,8,0.0,0.0
12882,74.0,2,30,7.0,0.0
12883,71.0,1,30,8.0,0.0
12884,62.0,5,30,8.0,0.0
12885,50.0,0,77,12.0,0.0
12886,57.0,0,77,12.0,0.0
12887,38.0,1,77,13.0,0.0
12888,81.0,8,8,0.0,0.0
12889,50.0,1,60,15.0,0.0
12890,83.0,6,8,0.0,0.0
12891,81.0,0,8,0.0,0.0
12892,71.0,1,30,7.0,0.0
12893,79.0,3,30,7.0,0.0
12894,83.0,7,8,0.0,0.0
12895,59.0,0,30,8.0,0.0
12896,67.0,0,30,8.0,0.0
12897,81.0,8,8,0.0,0.0
12898,83.0,6,8,0.0,0.0
12899,81.0,0,8,0.0,0.0
12900,78.0,1,26,7.0,0.0
12901,69.0,2,26,7.0,0.0
12902,83.0,6,8,0.0,0.0
12903,57.0,1,26,8.0,0.0
12904,66.0,1,26,8.0,0.0
12905,81.0,8,8,0.0,0.0
12906,83.0,1,8,0.0,0.0
12907,81.0,8,8,0.0,0.0
12908,76.0,0,26,7.0,0.0
12909,67.0,3,26,7.0,0.0
12910,83.0,7,8,0.0,0.0
12911,64.0,1,26,8.0,0.0
12912,55.0,1,26,8.0,0.0
12913,57.0,1,26,12.0,0.0
12914,50.0,0,26,12.0,0.0
12915,81.0,8,8,0.0,0.0
12916,38.0,5,26,13.0,0.0
12917,83.0,2,8,0.0,0.0
12918,81.0,2,8,0.0,0.0
12919,74.0,0,30,7.0,0.0
12920,83.0,7,8,0.0,0.0
12921,66.0,0,30,7.0,0.0
12922,57.0,0,0,4.0,0.0
12923,62.0,5,30,8.0,0.0
12924,50.0,0,180,4.0,0.0
12925,54.0,0,30,8.0,0.0
12926,50.0,0,77,12.0,0.0
12927,57.0,0,77,12.0,0.0
12928,38.0,1,77,13.0,0.0
12929,81.0,8,8,0.0,0.0
12930,50.0,1,60,15.0,0.0
12931,83.0,7,8,0.0,0.0
12932,81.0,3,8,0.0,0.0
12933,76.0,2,30,7.0,0.0
12934,83.0,7,8,0.0,0.0
12935,69.0,0,30,7.0,0.0
12936,57.0,1,30,8.0,0.0
12937,64.0,5,30,8.0,0.0
12938,81.0,8,8,0.0,0.0
12939,83.0,7,8,0.0,0.0
12940,81.0,0,8,0.0,0.0
12941,78.0,1,26,7.0,0.0
12942,74.0,2,26,7.0,0.0
12943,83.0,6,8,0.0,0.0
12944,62.0,1,26,8.0,0.0
12945,66.0,1,26,8.0,0.0
12946,81.0,8,8,0.0,0.0
12947,83.0,1,8,0.0,0.0
12948,81.0,8,8,0.0,0.0
12949,81.0,0,26,7.0,0.0
12950,76.0,2,26,7.0,0.0
12951,83.0,7,8,0.0,0.0
12952,69.0,1,26,8.0,0.0
12953,64.0,1,26,8.0,0.0
12954,50.0,0,26,12.0,0.0
12955,57.0,1,26,12.0,0.0
12956,81.0,8,8,0.0,0.0
12957,38.0,5,26,13.0,0.0
12958,83.0,3,8,0.0,0.0
12959,81.0,2,8,0.0,0.0
12960,86.0,0,30,7.0,0.0
12961,83.0,7,8,0.0,0.0
12962,74.0,5,30,8.0,0.0
12963,50.0,0,77,12.0,0.0
12964,57.0,0,77,12.0,0.0
12965,81.0,8,8,0.0,0.0
12966,38.0,1,77,13.0,0.0
12967,50.0,1,60,15.0,0.0
12968,83.0,7,8,0.0,0.0
12969,81.0,3,8,0.0,0.0
12970,78.0,0,1,7.0,0.0
12971,81.0,0,30,7.0,0.0
12972,83.0,7,8,0.0,0.0
12973,66.0,0,1,8.0,0.0
12974,69.0,0,30,8.0,0.0
12975,81.0,8,8,0.0,0.0
12976,83.0,6,8,0.0,0.0
12977,81.0,2,8,0.0,0.0
12978,76.0,1,26,7.0,0.0
12979,83.0,6,8,0.0,0.0
12980,79.0,3,26,7.0,0.0
12981,64.0,1,26,8.0,0.0
12982,67.0,0,26,8.0,0.0
12983,81.0,8,8,0.0,0.0
12984,83.0,1,8,0.0,0.0
12985,81.0,8,8,0.0,0.0
12986,78.0,0,26,7.0,0.0
12987,74.0,4,26,7.0,0.0
12988,83.0,7,8,0.0,0.0
12989,66.0,0,26,8.0,0.0
12990,62.0,1,26,8.0,0.0
12991,50.0,1,26,12.0,0.0
12992,57.0,0,26,12.0,0.0
12993,81.0,8,8,0.0,0.0
12994,38.0,5,26,13.0,0.0
12995,83.0,2,8,0.0,0.0
12996,81.0,2,8,0.0,0.0
12997,68.0,0,30,7.0,0.0
12998,76.0,2,30,7.0,0.0
12999,88.0,7,8,0.0,0.0
13000,64.0,0,30,8.0,0.0
13001,56.0,6,30,8.0,0.0
13002,52.0,1,77,12.0,0.0
13003,47.0,1,77,13.0,0.0
13004,86.0,8,8,0.0,0.0
13005,40.0,0,77,13.0,0.0
13006,88.0,7,8,0.0,0.0
13007,86.0,0,8,0.0,0.0
13008,74.0,1,30,7.0,0.0
13009,88.0,7,8,0.0,0.0
13010,78.0,0,30,7.0,0.0
13011,66.0,6,30,8.0,0.0
13012,62.0,0,30,8.0,0.0
13013,86.0,8,8,0.0,0.0
13014,88.0,6,8,0.0,0.0
13015,86.0,2,8,0.0,0.0
13016,76.0,1,26,7.0,0.0
13017,80.0,3,26,7.0,0.0
13018,88.0,7,8,0.0,0.0
13019,68.0,0,26,8.0,0.0
13020,64.0,1,26,8.0,0.0
13021,86.0,8,8,0.0,0.0
13022,88.0,0,8,0.0,0.0
13023,86.0,8,8,0.0,0.0
13024,88.0,7,8,0.0,0.0
13025,78.0,0,26,7.0,0.0
13026,81.0,2,26,7.0,0.0
13027,69.0,2,26,8.0,0.0
13028,66.0,0,26,8.0,0.0
13029,52.0,1,26,12.0,0.0
13030,86.0,8,8,0.0,0.0
13031,40.0,5,26,13.0,0.0
13032,47.0,0,26,13.0,0.0
13033,88.0,3,8,0.0,0.0
13034,86.0,2,8,0.0,0.0
13035,83.0,1,26,7.0,0.0
13036,88.0,7,8,0.0,0.0
13037,80.0,2,26,7.0,0.0
13038,71.0,1,26,8.0,0.0
13039,68.0,1,26,8.0,0.0
13040,52.0,0,77,12.0,0.0
13041,86.0,8,8,0.0,0.0
13042,40.0,1,77,13.0,0.0
13043,47.0,0,77,13.0,0.0
13044,88.0,2,8,0.0,0.0
13045,86.0,8,8,0.0,0.0
13046,81.0,1,26,7.0,0.0
13047,88.0,7,8,0.0,0.0
13048,85.0,2,26,7.0,0.0
13049,73.0,1,26,8.0,0.0
13050,69.0,1,26,8.0,0.0
13051,86.0,8,8,0.0,0.0
13052,88.0,2,8,0.0,0.0
13053,86.0,8,8,0.0,0.0
13054,86.0,1,26,7.0,0.0
13055,83.0,3,26,7.0,0.0
13056,88.0,7,8,0.0,0.0
13057,71.0,0,26,8.0,0.0
13058,74.0,1,26,8.0,0.0
13059,86.0,8,8,0.0,0.0
13060,88.0,1,8,0.0,0.0
13061,86.0,8,8,0.0,0.0
13062,83.0,1,26,7.0,0.0
13063,88.0,7,8,0.0,0.0
13064,86.0,2,26,7.0,0.0
13065,71.0,1,26,8.0,0.0
13066,74.0,1,26,8.0,0.0
13067,52.0,1,26,12.0,0.0
13068,40.0,7,26,13.0,0.0
13069,86.0,8,8,0.0,0.0
13070,47.0,0,26,13.0,0.0
13071,88.0,2,8,0.0,0.0
13072,88.0,10,11,7.0,0.0
13073,83.0,1,60,7.0,0.0
13074,86.0,2,0,0.0,0.0
13075,56.0,11,30,3.0,0.0
13076,52.0,0,30,3.0,0.0
13077,71.0,3,60,8.0,0.0
13078,74.0,0,60,8.0,0.0
13079,52.0,6,120,12.0,0.0
13080,40.0,3,77,13.0,0.0
13081,86.0,11,11,7.0,0.0
13082,88.0,0,11,7.0,0.0
13083,57.0,0,25,3.0,0.0
13084,86.0,12,11,7.0,0.0
13085,54.0,3,25,3.0,0.0
13086,88.0,2,11,7.0,0.0
13087,86.0,11,11,7.0,0.0
13088,59.0,5,18,3.0,0.0
13089,56.0,0,18,3.0,0.0
13090,88.0,3,11,7.0,0.0
13091,86.0,12,11,7.0,0.0
13092,88.0,10,11,7.0,0.0
13093,57.0,0,18,3.0,0.0
13094,61.0,1,18,3.0,0.0
13095,52.0,0,120,8.0,0.0
13096,40.0,3,26,13.0,0.0
13097,86.0,11,11,7.0,0.0
13098,88.0,2,11,7.0,0.0
13099,86.0,12,11,7.0,0.0
13100,62.0,4,30,3.0,0.0
13101,59.0,0,30,3.0,0.0
13102,40.0,12,90,8.0,0.0
13103,40.0,5,77,13.0,0.0
13104,88.0,7,11,7.0,0.0
13105,86.0,11,11,7.0,0.0
13106,64.0,1,25,3.0,0.0
13107,61.0,0,25,3.0,0.0
13108,88.0,10,11,7.0,0.0
13109,86.0,13,11,7.0,0.0
13110,88.0,9,11,7.0,0.0
13111,66.0,0,18,3.0,0.0
13112,62.0,2,18,3.0,0.0
13113,86.0,3,11,7.0,0.0
13114,78.0,3,15,7.0,0.0
13115,80.0,5,15,7.0,0.0
13116,62.0,10,18,3.0,0.0
13117,66.0,0,18,3.0,0.0
13118,40.0,0,1230,8.0,0.0
13119,40.0,8,26,13.0,0.0
13120,78.0,4,15,7.0,0.0
13121,83.0,10,11,7.0,0.0
13122,28.0,6,1200,8.0,0.0
13123,40.0,0,1195,13.0,0.0
13124,85.0,11,11,7.0,0.0
13125,62.0,0,120,3.0,0.0
13126,66.0,11,120,3.0,0.0
13127,83.0,12,11,7.0,0.0
13128,85.0,11,11,7.0,0.0
13129,83.0,11,11,7.0,0.0
13130,85.0,11,11,7.0,0.0
13131,83.0,12,11,7.0,0.0
13132,76.0,15,15,7.0,0.0
13133,78.0,15,15,7.0,0.0
13134,76.0,11,15,7.0,0.0
13135,81.0,1,11,7.0,0.0
13136,61.0,0,120,3.0,0.0
13137,64.0,11,120,3.0,0.0
13138,83.0,9,11,7.0,0.0
13139,81.0,11,11,7.0,0.0
13140,83.0,13,11,7.0,0.0
13141,81.0,10,11,7.0,0.0
13142,83.0,12,11,7.0,0.0
13143,81.0,12,11,7.0,0.0
13144,74.0,15,15,7.0,0.0
13145,76.0,15,15,7.0,0.0
13146,74.0,10,15,7.0,0.0
13147,80.0,2,11,7.0,0.0
13148,59.0,11,120,3.0,0.0
13149,62.0,0,120,3.0,0.0
13150,81.0,11,11,7.0,0.0
13151,80.0,9,11,7.0,0.0
13152,81.0,13,11,7.0,0.0
13153,80.0,11,11,7.0,0.0
13154,81.0,11,11,7.0,0.0
13155,80.0,12,11,7.0,0.0
13156,73.0,15,15,7.0,0.0
13157,74.0,15,15,7.0,0.0
13158,73.0,11,15,7.0,0.0
13159,78.0,1,11,7.0,0.0
13160,80.0,10,11,7.0,0.0
13161,57.0,0,120,3.0,0.0
13162,61.0,10,120,3.0,0.0
13163,78.0,11,11,7.0,0.0
13164,80.0,11,11,7.0,0.0
13165,78.0,12,11,7.0,0.0
13166,80.0,10,11,7.0,0.0
13167,78.0,13,11,7.0,0.0
13168,71.0,15,15,7.0,0.0
13169,73.0,15,15,7.0,0.0
13170,71.0,11,15,7.0,0.0
13171,76.0,1,11,7.0,0.0
13172,78.0,11,11,7.0,0.0
13173,59.0,11,120,3.0,0.0
13174,56.0,0,120,3.0,0.0
13175,76.0,12,11,7.0,0.0
13176,78.0,11,11,7.0,0.0
13177,76.0,12,11,7.0,0.0
13178,78.0,10,11,7.0,0.0
13179,76.0,12,11,7.0,0.0
13180,69.0,15,15,7.0,0.0
13181,71.0,15,15,7.0,0.0
13182,69.0,12,15,7.0,0.0
13183,75.0,0,11,7.0,0.0
13184,76.0,11,11,7.0,0.0
13185,57.0,0,120,3.0,0.0
13186,54.0,2,120,3.0,0.0
13187,75.0,9,11,7.0,0.0
13188,76.0,12,11,7.0,0.0
13189,75.0,11,11,7.0,0.0
13190,76.0,13,11,7.0,0.0
13191,75.0,11,11,7.0,0.0
13192,69.0,15,15,7.0,0.0
13193,71.0,15,15,7.0,0.0
13194,69.0,7,15,7.0,0.0
13195,74.0,5,8,7.0,0.0
13196,76.0,9,8,7.0,0.0
13197,52.0,4,480,3.0,0.0
13198,56.0,0,480,3.0,0.0
13199,74.0,8,8,7.0,0.0
13200,76.0,9,8,7.0,0.0
13201,74.0,8,8,7.0,0.0
13202,76.0,7,8,7.0,0.0
13203,74.0,9,8,7.0,0.0
13204,76.0,7,8,7.0,0.0
13205,74.0,19,8,7.0,0.0
13206,64.0,15,15,7.0,0.0
13207,66.0,15,15,7.0,0.0
13208,64.0,9,15,7.0,0.0
13209,71.0,7,8,7.0,0.0
13210,73.0,8,8,7.0,0.0
13211,71.0,7,8,7.0,0.0
13212,73.0,8,8,7.0,0.0
13213,71.0,10,8,7.0,0.0
13214,73.0,7,8,7.0,0.0
13215,71.0,9,8,7.0,0.0
13216,73.0,7,8,7.0,0.0
13217,71.0,18,8,7.0,0.0
13218,64.0,15,15,7.0,0.0
13219,66.0,15,15,7.0,0.0
13220,64.0,8,15,7.0,0.0
13221,74.0,7,8,7.0,0.0
13222,76.0,8,8,7.0,0.0
13223,74.0,8,8,7.0,0.0
13224,76.0,8,8,7.0,0.0
13225,74.0,10,8,7.0,0.0
13226,76.0,7,8,7.0,0.0
13227,74.0,9,8,7.0,0.0
13228,76.0,7,8,7.0,0.0
13229,74.0,18,8,7.0,0.0
13230,64.0,15,15,7.0,0.0
13231,66.0,15,15,7.0,0.0
13232,64.0,8,15,7.0,0.0
13233,71.0,7,8,7.0,0.0
13234,73.0,8,8,7.0,0.0
13235,71.0,9,8,7.0,0.0
13236,73.0,8,8,7.0,0.0
13237,71.0,7,8,7.0,0.0
13238,73.0,8,8,7.0,0.0
13239,71.0,8,8,7.0,0.0
13240,73.0,8,8,7.0,0.0
13241,71.0,19,8,7.0,0.0
13242,64.0,15,15,7.0,0.0
13243,66.0,15,15,7.0,0.0
13244,64.0,3,15,7.0,0.0
13245,71.0,3,8,7.0,0.0
13246,45.0,0,450,8.0,0.0
13247,33.0,12,450,8.0,0.0
13248,45.0,3,480,13.0,0.0
13249,73.0,8,8,7.0,0.0
13250,52.0,9,480,3.0,0.0
13251,55.0,0,480,3.0,0.0
13252,71.0,8,8,7.0,0.0
13253,73.0,9,8,7.0,0.0
13254,71.0,6,8,7.0,0.0
13255,73.0,8,8,7.0,0.0
13256,71.0,8,8,7.0,0.0
13257,73.0,8,8,7.0,0.0
13258,71.0,19,8,7.0,0.0
13259,64.0,15,15,7.0,0.0
13260,66.0,15,15,7.0,0.0
13261,64.0,9,15,7.0,0.0
13262,69.0,6,8,7.0,0.0
13263,71.0,8,8,7.0,0.0
13264,69.0,8,8,7.0,0.0
13265,71.0,10,8,7.0,0.0
13266,69.0,8,8,7.0,0.0
13267,71.0,6,8,7.0,0.0
13268,69.0,10,8,7.0,0.0
13269,71.0,5,8,7.0,0.0
13270,69.0,20,8,7.0,0.0
13271,64.0,15,15,7.0,0.0
13272,66.0,15,15,7.0,0.0
13273,64.0,9,15,7.0,0.0
13274,71.0,6,8,7.0,0.0
13275,73.0,8,8,7.0,0.0
13276,71.0,9,8,7.0,0.0
13277,73.0,8,8,7.0,0.0
13278,71.0,9,8,7.0,0.0
13279,73.0,7,8,7.0,0.0
13280,71.0,9,8,7.0,0.0
13281,73.0,7,8,7.0,0.0
13282,71.0,18,8,7.0,0.0
13283,64.0,15,15,7.0,0.0
13284,66.0,15,15,7.0,0.0
13285,64.0,9,15,7.0,0.0
13286,69.0,6,8,7.0,0.0
13287,71.0,9,8,7.0,0.0
13288,69.0,7,8,7.0,0.0
13289,71.0,8,8,7.0,0.0
13290,69.0,9,8,7.0,0.0
13291,71.0,8,8,7.0,0.0
13292,69.0,8,8,7.0,0.0
13293,71.0,8,8,7.0,0.0
13294,69.0,18,8,7.0,0.0
13295,64.0,3,15,7.0,0.0
13296,66.0,15,15,7.0,0.0
13297,45.0,5,30,8.0,0.0
13298,64.0,3,15,7.0,0.0
13299,67.0,1,11,7.0,0.0
13300,55.0,5,90,8.0,0.0
13301,57.0,0,720,4.0,0.0
13302,45.0,6,720,4.0,0.0
13303,69.0,11,11,7.0,0.0
13304,67.0,11,11,7.0,0.0
13305,66.0,11,11,7.0,0.0
13306,67.0,11,11,7.0,0.0
13307,69.0,11,11,7.0,0.0
13308,71.0,11,11,7.0,0.0
13309,73.0,6,11,7.0,0.0
13310,74.0,11,11,7.0,0.0
13311,45.0,9,30,8.0,0.0
13312,76.0,11,11,7.0,0.0
13313,78.0,3,11,7.0,0.0
13314,79.0,12,12,7.0,0.0
13315,52.0,3,90,8.0,0.0
13316,78.0,12,12,7.0,0.0
13317,55.0,8,600,3.0,0.0
13318,52.0,0,600,3.0,0.0
13319,76.0,12,12,7.0,0.0
13320,74.0,12,12,7.0,0.0
13321,73.0,12,12,7.0,0.0
13322,71.0,12,12,7.0,0.0
13323,69.0,9,12,7.0,0.0
13324,67.0,12,12,7.0,0.0
13325,45.0,10,30,8.0,0.0
13326,69.0,12,12,7.0,0.0
13327,71.0,3,12,7.0,0.0
13328,61.0,0,480,2.0,0.0
13329,73.0,13,13,7.0,0.0
13330,64.0,0,480,2.0,0.0
13331,55.0,13,90,8.0,0.0
13332,74.0,13,13,7.0,0.0
13333,76.0,14,13,7.0,0.0
13334,78.0,13,13,7.0,0.0
13335,79.0,13,13,7.0,0.0
13336,81.0,14,13,7.0,0.0
13337,83.0,0,13,7.0,0.0
13338,85.0,13,13,7.0,0.0
13339,45.0,7,30,8.0,0.0
13340,86.0,4,13,7.0,0.0
13341,88.0,10,10,7.0,0.0
13342,69.0,0,600,0.0,0.0
13343,76.0,2,360,0.0,0.0
13344,52.0,7,90,8.0,0.0
13345,86.0,10,10,7.0,0.0
13346,85.0,10,10,7.0,0.0
13347,83.0,10,10,7.0,0.0
13348,81.0,10,10,7.0,0.0
13349,79.0,10,10,7.0,0.0
13350,78.0,10,10,7.0,0.0
13351,76.0,10,10,7.0,0.0
13352,78.0,3,10,7.0,0.0
13353,79.0,10,10,7.0,0.0
13354,45.0,8,30,8.0,0.0
13355,81.0,10,10,7.0,0.0
13356,83.0,3,10,7.0,0.0
13357,85.0,10,11,7.0,0.0
13358,57.0,5,90,8.0,0.0
13359,69.0,7,120,1.0,0.0
13360,73.0,0,120,1.0,0.0
13361,86.0,11,11,7.0,0.0
13362,88.0,11,11,7.0,0.0
13363,90.0,11,11,7.0,0.0
13364,91.0,11,11,7.0,0.0
13365,93.0,11,11,7.0,0.0
13366,95.0,11,11,7.0,0.0
13367,97.0,6,11,7.0,0.0
13368,98.0,11,11,7.0,0.0
13369,45.0,1,30,8.0,0.0
13370,100.0,11,11,7.0,0.0
13371,102.0,3,11,7.0,0.0
13372,103.0,10,11,7.0,0.0
13373,57.0,5,90,8.0,0.0
13374,76.0,0,120,1.0,0.0
13375,73.0,0,120,1.0,0.0
13376,102.0,11,11,7.0,0.0
13377,100.0,11,11,7.0,0.0
13378,98.0,11,11,7.0,0.0
13379,97.0,11,11,7.0,0.0
13380,95.0,11,11,7.0,0.0
13381,93.0,11,11,7.0,0.0
13382,91.0,6,11,7.0,0.0
13383,90.0,11,11,7.0,0.0
13384,33.0,1,30,8.0,0.0
13385,45.0,0,30,8.0,0.0
13386,88.0,11,11,7.0,0.0
13387,86.0,1,11,7.0,0.0
13388,67.0,1,240,2.0,0.0
13389,69.0,1,360,2.0,0.0
13390,85.0,2,10,7.0,0.0
13391,78.0,2,240,0.0,0.0
13392,57.0,7,90,8.0,0.0
13393,69.0,0,240,4.0,0.0
13394,76.0,0,120,1.0,0.0
13395,83.0,10,10,7.0,0.0
13396,45.0,0,240,3.0,0.0
13397,57.0,18,240,3.0,0.0
13398,81.0,10,10,7.0,0.0
13399,79.0,10,10,7.0,0.0
13400,78.0,10,10,7.0,0.0
13401,76.0,10,10,7.0,0.0
13402,74.0,10,10,7.0,0.0
13403,73.0,10,10,7.0,0.0
13404,71.0,3,10,7.0,0.0
13405,69.0,10,10,7.0,0.0
13406,45.0,0,0,8.0,0.0
13407,33.0,0,30,8.0,0.0
13408,67.0,10,10,7.0,0.0
13409,66.0,3,10,7.0,0.0
13410,64.0,10,10,7.0,0.0
13411,57.0,7,90,8.0,0.0
13412,45.0,1,0,8.0,0.0
13413,79.0,6,0,1.0,0.0
13414,85.0,8,120,1.0,0.0
13415,62.0,10,10,7.0,0.0
13416,61.0,10,10,7.0,0.0
13417,59.0,10,10,7.0,0.0
13418,57.0,10,10,7.0,0.0
13419,55.0,10,10,7.0,0.0
13420,54.0,10,10,7.0,0.0
13421,52.0,10,10,7.0,0.0
13422,50.0,3,10,7.0,0.0
13423,49.0,10,10,7.0,0.0
13424,45.0,0,0,8.0,0.0
13425,33.0,0,30,8.0,0.0
13426,47.0,10,10,7.0,0.0
13427,45.0,0,10,7.0,0.0
13428,57.0,2,30,7.0,0.0
13429,66.0,0,240,2.0,0.0
13430,74.0,3,120,0.0,0.0
13431,57.0,28,30,11.0,0.0
13432,57.0,0,0,4.0,0.0
13433,50.0,0,120,4.0,0.0
13434,78.0,0,120,1.0,0.0
13435,86.0,0,120,1.0,0.0
13436,38.0,0,480,8.0,0.0
13437,38.0,4,120,13.0,0.0
13438,50.0,18,120,3.0,0.0
13439,55.0,30,30,7.0,0.0
13440,54.0,30,30,7.0,0.0
13441,62.0,16,102,11.0,0.0
13442,52.0,0,30,7.0,0.0
13443,54.0,14,30,7.0,0.0
13444,57.0,22,30,7.0,0.0
13445,55.0,2,30,7.0,0.0
13446,64.0,8,10,11.0,0.0
13447,66.0,10,10,11.0,0.0
13448,52.0,2,30,7.0,0.0
13449,64.0,10,10,11.0,0.0
13450,62.0,8,10,11.0,0.0
13451,64.0,28,10,11.0,0.0
13452,50.0,17,30,7.0,0.0
13453,66.0,13,45,11.0,0.0
13454,54.0,30,30,7.0,0.0
13455,50.0,17,30,7.0,0.0
13456,69.0,13,45,11.0,0.0
13457,49.0,30,30,7.0,0.0
13458,47.0,17,30,7.0,0.0
13459,74.0,13,45,11.0,0.0
13460,50.0,30,30,7.0,0.0
13461,49.0,17,30,7.0,0.0
13462,74.0,13,45,11.0,0.0
13463,45.0,6,30,7.0,0.0
13464,62.0,0,30,10.0,0.0
13465,47.0,30,30,7.0,0.0
13466,74.0,13,285,11.0,0.0
13467,26.0,24,0,8.0,0.0
13468,38.0,22,120,13.0,0.0
13469,50.0,30,30,7.0,0.0
13470,67.0,8,112,10.0,0.0
13471,55.0,30,30,7.0,0.0
13472,57.0,8,30,7.0,0.0
13473,59.0,22,30,7.0,0.0
13474,62.0,15,30,7.0,0.0
13475,71.0,15,15,10.0,0.0
13476,61.0,0,30,7.0,0.0
13477,69.0,15,15,10.0,0.0
13478,71.0,15,15,10.0,0.0
13479,57.0,30,30,7.0,0.0
13480,69.0,0,15,10.0,0.0
13481,71.0,2,45,10.0,0.0
13482,55.0,15,30,7.0,0.0
13483,59.0,30,30,7.0,0.0
13484,74.0,2,45,10.0,0.0
13485,57.0,15,30,7.0,0.0
13486,74.0,13,45,11.0,0.0
13487,54.0,30,30,7.0,0.0
13488,79.0,2,45,10.0,0.0
13489,52.0,15,30,7.0,0.0
13490,73.0,13,45,11.0,0.0
13491,55.0,30,30,7.0,0.0
13492,79.0,2,45,10.0,0.0
13493,54.0,15,30,7.0,0.0
13494,71.0,13,45,11.0,0.0
13495,50.0,6,30,7.0,0.0
13496,49.0,2,30,7.0,0.0
13497,79.0,2,285,10.0,0.0
13498,69.0,28,30,11.0,0.0
13499,26.0,24,0,8.0,0.0
13500,38.0,0,0,8.0,0.0
13501,38.0,22,120,13.0,0.0
13502,52.0,30,30,7.0,0.0
13503,55.0,30,30,7.0,0.0
13504,73.0,16,102,11.0,0.0
13505,61.0,8,30,7.0,0.0
13506,64.0,14,30,7.0,0.0
13507,67.0,17,30,7.0,0.0
13508,66.0,2,30,7.0,0.0
13509,76.0,13,15,11.0,0.0
13510,74.0,15,15,11.0,0.0
13511,62.0,2,30,7.0,0.0
13512,76.0,13,15,11.0,0.0
13513,74.0,28,15,11.0,0.0
13514,61.0,15,30,7.0,0.0
13515,76.0,13,45,11.0,0.0
13516,64.0,30,30,7.0,0.0
13517,79.0,2,45,10.0,0.0
13518,62.0,15,30,7.0,0.0
13519,79.0,13,45,11.0,0.0
13520,59.0,30,30,7.0,0.0
13521,78.0,2,45,10.0,0.0
13522,57.0,15,30,7.0,0.0
13523,84.0,13,45,11.0,0.0
13524,60.0,30,30,7.0,0.0
13525,59.0,15,30,7.0,0.0
13526,76.0,2,45,10.0,0.0
13527,84.0,13,45,11.0,0.0
13528,55.0,6,30,7.0,0.0
13529,54.0,30,30,7.0,0.0
13530,74.0,0,30,10.0,0.0
13531,84.0,13,285,11.0,0.0
13532,38.0,24,0,8.0,0.0
13533,38.0,22,120,13.0,0.0
13534,57.0,30,30,7.0,0.0
13535,60.0,30,30,7.0,0.0
13536,79.0,18,102,10.0,0.0
13537,66.0,8,30,7.0,0.0
13538,69.0,12,30,7.0,0.0
13539,72.0,15,30,7.0,0.0
13540,71.0,0,30,7.0,0.0
13541,81.0,15,15,10.0,0.0
13542,79.0,15,15,10.0,0.0
13543,67.0,0,30,7.0,0.0
13544,81.0,15,15,10.0,0.0
13545,79.0,30,15,10.0,0.0
13546,81.0,2,45,10.0,0.0
13547,66.0,15,30,7.0,0.0
13548,69.0,30,30,7.0,0.0
13549,67.0,15,30,7.0,0.0
13550,84.0,2,45,10.0,0.0
13551,84.0,13,45,11.0,0.0
13552,64.0,30,30,7.0,0.0
13553,93.0,2,45,10.0,0.0
13554,62.0,15,30,7.0,0.0
13555,83.0,13,45,11.0,0.0
13556,62.0,18,600,3.0,0.0
13557,66.0,30,30,7.0,0.0
13558,64.0,15,30,7.0,0.0
13559,93.0,2,45,10.0,0.0
13560,81.0,13,45,11.0,0.0
13561,60.0,6,30,7.0,0.0
13562,93.0,2,60,10.0,0.0
13563,59.0,30,30,7.0,0.0
13564,81.0,28,60,11.0,0.0
13565,71.0,2,240,1.0,0.0
13566,26.0,24,0,8.0,0.0
13567,38.0,0,240,8.0,0.0
13568,50.0,22,120,13.0,0.0
13569,38.0,0,120,13.0,0.0
13570,59.0,18,240,3.0,0.0
13571,62.0,0,30,7.0,0.0
13572,71.0,30,30,7.0,0.0
13573,91.0,2,102,10.0,0.0
13574,79.0,16,102,11.0,0.0
13575,74.0,8,30,7.0,0.0
13576,86.0,12,30,7.0,0.0
13577,74.0,30,30,7.0,0.0
13578,71.0,12,30,7.0,0.0
13579,91.0,2,42,10.0,0.0
13580,79.0,16,42,11.0,0.0
13581,62.0,4,30,7.0,0.0
13582,91.0,2,60,10.0,0.0
13583,57.0,30,30,7.0,0.0
13584,79.0,28,60,11.0,0.0
13585,69.0,2,240,1.0,0.0
13586,26.0,6,0,8.0,0.0
13587,38.0,6,240,8.0,0.0
13588,50.0,22,120,13.0,0.0
13589,38.0,0,120,13.0,0.0
13590,57.0,0,240,3.0,0.0
13591,62.0,0,30,7.0,0.0
13592,90.0,2,102,10.0,0.0
13593,69.0,30,30,7.0,0.0
13594,78.0,16,102,11.0,0.0
13595,74.0,8,30,7.0,0.0
13596,86.0,12,30,7.0,0.0
13597,74.0,30,30,7.0,0.0
13598,69.0,12,30,7.0,0.0
13599,90.0,2,42,10.0,0.0
13600,78.0,16,42,11.0,0.0
13601,62.0,4,30,7.0,0.0
13602,56.0,30,30,7.0,0.0
13603,90.0,2,60,10.0,0.0
13604,78.0,28,60,11.0,0.0
13605,74.0,0,0,1.0,0.0
13606,83.0,2,240,1.0,0.0
13607,26.0,0,0,8.0,0.0
13608,38.0,0,240,8.0,0.0
13609,38.0,0,120,13.0,0.0
13610,50.0,22,120,13.0,0.0
13611,59.0,18,240,3.0,0.0
13612,56.0,0,240,3.0,0.0
13613,62.0,0,30,7.0,0.0
13614,68.0,30,30,7.0,0.0
13615,88.0,2,102,10.0,0.0
13616,76.0,16,102,11.0,0.0
13617,74.0,8,30,7.0,0.0
13618,86.0,12,30,7.0,0.0
13619,74.0,30,30,7.0,0.0
13620,88.0,2,42,10.0,0.0
13621,68.0,12,30,7.0,0.0
13622,76.0,16,42,11.0,0.0
13623,62.0,4,30,7.0,0.0
13624,90.0,2,60,10.0,0.0
13625,55.0,30,30,7.0,0.0
13626,78.0,28,60,11.0,0.0
13627,73.0,0,240,1.0,0.0
13628,26.0,6,0,8.0,0.0
13629,50.0,0,120,13.0,0.0
13630,38.0,22,120,13.0,0.0
13631,55.0,18,240,3.0,0.0
13632,64.0,0,240,3.0,0.0
13633,61.0,0,30,7.0,0.0
13634,67.0,30,30,7.0,0.0
13635,88.0,2,102,10.0,0.0
13636,76.0,16,102,11.0,0.0
13637,73.0,8,30,7.0,0.0
13638,85.0,12,30,7.0,0.0
13639,73.0,30,30,7.0,0.0
13640,67.0,12,30,7.0,0.0
13641,88.0,2,42,10.0,0.0
13642,76.0,16,42,11.0,0.0
13643,61.0,4,30,7.0,0.0
13644,54.0,0,30,7.0,0.0
13645,88.0,30,30,10.0,0.0
13646,69.0,6,120,11.0,0.0
13647,76.0,0,60,1.0,0.0
13648,81.0,2,0,1.0,0.0
13649,26.0,0,0,8.0,0.0
13650,38.0,6,0,8.0,0.0
13651,38.0,0,120,13.0,0.0
13652,54.0,18,60,3.0,0.0
13653,57.0,0,60,3.0,0.0
13654,57.0,4,30,7.0,0.0
13655,81.0,0,30,10.0,0.0
13656,66.0,30,30,7.0,0.0
13657,69.0,2,30,7.0,0.0
13658,86.0,30,30,10.0,0.0
13659,81.0,0,30,7.0,0.0
13660,81.0,0,60,1.0,0.0
13661,74.0,2,60,1.0,0.0
13662,65.0,0,60,8.0,0.0
13663,62.0,6,60,8.0,0.0
13664,53.0,0,60,8.0,0.0
13665,50.0,22,0,13.0,0.0
13666,38.0,22,120,13.0,0.0
13667,53.0,18,60,3.0,0.0
13668,62.0,0,60,3.0,0.0
13669,69.0,4,30,7.0,0.0
13670,81.0,0,30,10.0,0.0
13671,65.0,30,30,7.0,0.0
13672,57.0,8,30,7.0,0.0
13673,52.0,30,30,7.0,0.0
13674,86.0,0,30,10.0,0.0
13675,79.0,0,60,1.0,0.0
13676,74.0,2,60,1.0,0.0
13677,38.0,6,60,8.0,0.0
13678,26.0,0,60,8.0,0.0
13679,38.0,22,120,13.0,0.0
13680,50.0,0,120,13.0,0.0
13681,52.0,0,60,3.0,0.0
13682,64.0,18,60,3.0,0.0
13683,55.0,4,30,7.0,0.0
13684,64.0,30,30,7.0,0.0
13685,79.0,0,30,10.0,0.0
13686,67.0,8,30,7.0,0.0
13687,79.0,30,30,7.0,0.0
13688,85.0,0,30,10.0,0.0
13689,76.0,2,60,1.0,0.0
13690,73.0,0,60,1.0,0.0
13691,64.0,0,60,8.0,0.0
13692,61.0,6,60,8.0,0.0
13693,52.0,0,60,8.0,0.0
13694,55.0,0,60,3.0,0.0
13695,64.0,18,60,3.0,0.0
13696,73.0,4,30,7.0,0.0
13697,76.0,30,30,10.0,0.0
13698,67.0,0,30,7.0,0.0
13699,61.0,8,30,7.0,0.0
13700,54.0,30,30,7.0,0.0
13701,86.0,0,30,10.0,0.0
13702,78.0,2,60,1.0,0.0
13703,74.0,0,60,1.0,0.0
13704,26.0,6,60,8.0,0.0
13705,38.0,0,60,8.0,0.0
13706,50.0,22,0,13.0,0.0
13707,38.0,0,0,13.0,0.0
13708,54.0,18,60,3.0,0.0
13709,62.0,0,60,3.0,0.0
13710,57.0,4,30,7.0,0.0
13711,74.0,0,30,10.0,0.0
13712,66.0,30,30,7.0,0.0
13713,69.0,8,30,7.0,0.0
13714,83.0,0,30,10.0,0.0
13715,83.0,30,30,7.0,0.0
13716,71.0,0,60,1.0,0.0
13717,74.0,2,60,1.0,0.0
13718,59.0,0,60,8.0,0.0
13719,50.0,0,60,8.0,0.0
13720,43.0,6,60,8.0,0.0
13721,43.0,22,120,13.0,0.0
13722,55.0,18,60,3.0,0.0
13723,62.0,0,60,3.0,0.0
13724,74.0,4,30,7.0,0.0
13725,71.0,0,30,7.0,0.0
13726,74.0,30,30,10.0,0.0
13727,62.0,8,30,7.0,0.0
13728,81.0,0,30,10.0,0.0
13729,81.0,30,30,7.0,0.0
13730,69.0,2,60,1.0,0.0
13731,74.0,0,60,1.0,0.0
13732,57.0,0,60,8.0,0.0
13733,54.0,0,60,8.0,0.0
13734,45.0,6,60,8.0,0.0
13735,66.0,18,60,3.0,0.0
13736,57.0,0,60,3.0,0.0
13737,74.0,4,30,7.0,0.0
13738,69.0,0,30,10.0,0.0
13739,69.0,30,30,7.0,0.0
13740,62.0,8,30,7.0,0.0
13741,81.0,0,30,7.0,0.0
13742,81.0,30,30,10.0,0.0
13743,69.0,2,60,1.0,0.0
13744,73.0,0,60,1.0,0.0
13745,61.0,0,60,8.0,0.0
13746,52.0,6,60,8.0,0.0
13747,45.0,0,60,8.0,0.0
13748,45.0,22,0,13.0,0.0
13749,57.0,0,60,3.0,0.0
13750,64.0,18,60,3.0,0.0
13751,73.0,4,30,7.0,0.0
13752,73.0,30,30,10.0,0.0
13753,69.0,0,30,7.0,0.0
13754,61.0,8,30,7.0,0.0
13755,69.0,0,60,10.0,0.0
13756,57.0,2,30,7.0,0.0
13757,57.0,28,30,11.0,0.0
13758,38.0,24,300,8.0,0.0
13759,26.0,24,240,8.0,0.0
13760,50.0,5,120,13.0,0.0
13761,57.0,18,60,3.0,0.0
13762,38.0,17,120,14.0,0.0
13763,55.0,12,30,7.0,0.0
13764,54.0,30,30,7.0,0.0
13765,62.0,16,102,11.0,0.0
13766,52.0,8,30,7.0,0.0
13767,54.0,12,30,7.0,0.0
13768,57.0,2,30,3.0,0.0
13769,54.0,0,30,3.0,0.0
13770,57.0,17,30,7.0,0.0
13771,55.0,2,30,7.0,0.0
13772,66.0,13,15,11.0,0.0
13773,55.0,0,30,3.0,0.0
13774,52.0,5,30,3.0,0.0
13775,64.0,10,15,11.0,0.0
13776,52.0,2,30,7.0,0.0
13777,66.0,13,15,11.0,0.0
13778,64.0,4,15,11.0,0.0
13779,50.0,12,30,7.0,0.0
13780,66.0,13,45,11.0,0.0
13781,50.0,0,30,3.0,0.0
13782,54.0,5,30,3.0,0.0
13783,54.0,6,30,7.0,0.0
13784,52.0,12,30,7.0,0.0
13785,69.0,13,45,11.0,0.0
13786,36.0,2,60,8.0,0.0
13787,48.0,5,60,13.0,0.0
13788,48.0,5,30,3.0,0.0
13789,52.0,0,30,3.0,0.0
13790,36.0,17,60,14.0,0.0
13791,48.0,6,30,7.0,0.0
13792,47.0,12,30,7.0,0.0
13793,74.0,13,45,11.0,0.0
13794,35.0,2,60,8.0,0.0
13795,47.0,5,60,13.0,0.0
13796,47.0,5,30,3.0,0.0
13797,50.0,0,30,3.0,0.0
13798,35.0,17,60,14.0,0.0
13799,50.0,6,30,7.0,0.0
13800,45.0,12,30,7.0,0.0
13801,74.0,13,45,11.0,0.0
13802,33.0,2,60,8.0,0.0
13803,45.0,5,60,13.0,0.0
13804,45.0,0,30,3.0,0.0
13805,48.0,5,30,3.0,0.0
13806,33.0,17,60,14.0,0.0
13807,50.0,6,30,7.0,0.0
13808,47.0,0,30,7.0,0.0
13809,62.0,6,30,10.0,0.0
13810,74.0,13,285,11.0,0.0
13811,31.0,24,30,8.0,0.0
13812,43.0,5,120,13.0,0.0
13813,43.0,0,115,3.0,0.0
13814,47.0,1,115,3.0,0.0
13815,31.0,17,120,14.0,0.0
13816,50.0,6,30,7.0,0.0
13817,35.0,24,30,8.0,0.0
13818,55.0,6,30,7.0,0.0
13819,67.0,0,102,10.0,0.0
13820,38.0,24,30,8.0,0.0
13821,59.0,6,30,7.0,0.0
13822,43.0,1,30,8.0,0.0
13823,62.0,6,30,7.0,0.0
13824,47.0,6,30,8.0,0.0
13825,59.0,0,30,3.0,0.0
13826,62.0,18,30,3.0,0.0
13827,74.0,6,30,7.0,0.0
13828,59.0,9,30,8.0,0.0
13829,71.0,15,15,10.0,0.0
13830,72.0,0,30,7.0,0.0
13831,45.0,6,30,8.0,0.0
13832,57.0,3,30,3.0,0.0
13833,60.0,0,30,3.0,0.0
13834,69.0,6,15,10.0,0.0
13835,71.0,15,15,10.0,0.0
13836,60.0,6,30,7.0,0.0
13837,57.0,24,30,8.0,0.0
13838,69.0,0,15,10.0,0.0
13839,71.0,2,45,10.0,0.0
13840,59.0,6,30,7.0,0.0
13841,43.0,6,30,8.0,0.0
13842,55.0,3,30,3.0,0.0
13843,59.0,0,30,3.0,0.0
13844,71.0,6,30,7.0,0.0
13845,55.0,24,30,8.0,0.0
13846,69.0,6,30,7.0,0.0
13847,74.0,2,45,10.0,0.0
13848,74.0,13,45,11.0,0.0
13849,41.0,6,30,8.0,0.0
13850,53.0,5,60,13.0,0.0
13851,53.0,3,30,3.0,0.0
13852,57.0,0,30,3.0,0.0
13853,41.0,17,60,14.0,0.0
13854,57.0,6,30,7.0,0.0
13855,53.0,2,30,8.0,0.0
13856,55.0,6,30,7.0,0.0
13857,79.0,2,45,10.0,0.0
13858,72.0,13,45,11.0,0.0
13859,40.0,6,30,8.0,0.0
13860,52.0,5,60,13.0,0.0
13861,55.0,0,30,3.0,0.0
13862,52.0,3,30,3.0,0.0
13863,40.0,17,60,14.0,0.0
13864,67.0,6,30,7.0,0.0
13865,52.0,2,30,8.0,0.0
13866,79.0,2,45,10.0,0.0
13867,65.0,6,30,7.0,0.0
13868,71.0,13,45,11.0,0.0
13869,38.0,6,30,8.0,0.0
13870,50.0,5,60,13.0,0.0
13871,50.0,0,30,3.0,0.0
13872,53.0,3,30,3.0,0.0
13873,38.0,17,60,14.0,0.0
13874,53.0,6,30,7.0,0.0
13875,50.0,2,30,8.0,0.0
13876,52.0,2,30,7.0,0.0
13877,79.0,2,285,10.0,0.0
13878,69.0,4,30,11.0,0.0
13879,36.0,24,30,8.0,0.0
13880,48.0,5,120,13.0,0.0
13881,48.0,1,115,3.0,0.0
13882,52.0,0,115,3.0,0.0
13883,36.0,17,120,14.0,0.0
13884,55.0,6,30,7.0,0.0
13885,40.0,24,30,8.0,0.0
13886,60.0,6,30,7.0,0.0
13887,72.0,16,102,11.0,0.0
13888,43.0,24,30,8.0,0.0
13889,64.0,6,30,7.0,0.0
13890,48.0,1,30,8.0,0.0
13891,67.0,0,30,7.0,0.0
13892,76.0,6,30,2.0,0.0
13893,79.0,0,30,2.0,0.0
13894,52.0,6,30,8.0,0.0
13895,64.0,2,30,3.0,0.0
13896,67.0,0,30,3.0,0.0
13897,79.0,6,30,7.0,0.0
13898,64.0,11,30,8.0,0.0
13899,74.0,0,30,2.0,0.0
13900,77.0,2,30,2.0,0.0
13901,77.0,0,30,7.0,0.0
13902,76.0,13,15,11.0,0.0
13903,50.0,6,30,8.0,0.0
13904,65.0,5,30,3.0,0.0
13905,62.0,0,30,3.0,0.0
13906,74.0,4,15,11.0,0.0
13907,65.0,2,30,7.0,0.0
13908,76.0,13,15,11.0,0.0
13909,62.0,24,30,8.0,0.0
13910,74.0,4,15,11.0,0.0
13911,64.0,0,30,7.0,0.0
13912,76.0,6,30,2.0,0.0
13913,72.0,0,30,2.0,0.0
13914,76.0,13,45,11.0,0.0
13915,48.0,6,30,8.0,0.0
13916,60.0,0,30,3.0,0.0
13917,64.0,3,30,3.0,0.0
13918,76.0,6,30,7.0,0.0
13919,60.0,24,30,8.0,0.0
13920,74.0,0,30,7.0,0.0
13921,71.0,6,30,2.0,0.0
13922,79.0,2,45,10.0,0.0
13923,74.0,0,30,2.0,0.0
13924,79.0,13,45,11.0,0.0
13925,47.0,6,30,8.0,0.0
13926,59.0,5,60,13.0,0.0
13927,62.0,3,30,3.0,0.0
13928,59.0,0,30,3.0,0.0
13929,47.0,17,60,14.0,0.0
13930,62.0,6,30,7.0,0.0
13931,59.0,2,30,8.0,0.0
13932,69.0,0,30,2.0,0.0
13933,60.0,6,30,7.0,0.0
13934,84.0,2,45,10.0,0.0
13935,72.0,0,30,2.0,0.0
13936,81.0,13,45,11.0,0.0
13937,45.0,6,30,8.0,0.0
13938,57.0,5,60,13.0,0.0
13939,57.0,3,30,3.0,0.0
13940,60.0,0,30,3.0,0.0
13941,45.0,17,60,14.0,0.0
13942,72.0,6,30,7.0,0.0
13943,57.0,2,30,8.0,0.0
13944,71.0,0,30,2.0,0.0
13945,74.0,6,30,2.0,0.0
13946,74.0,0,30,7.0,0.0
13947,86.0,2,45,10.0,0.0
13948,83.0,13,45,11.0,0.0
13949,43.0,6,30,8.0,0.0
13950,55.0,5,60,13.0,0.0
13951,55.0,3,30,3.0,0.0
13952,62.0,0,30,3.0,0.0
13953,43.0,17,60,14.0,0.0
13954,62.0,6,30,7.0,0.0
13955,55.0,2,30,8.0,0.0
13956,72.0,0,115,2.0,0.0
13957,88.0,0,30,10.0,0.0
13958,76.0,5,115,2.0,0.0
13959,52.0,2,30,7.0,0.0
13960,84.0,4,30,11.0,0.0
13961,36.0,24,30,8.0,0.0
13962,48.0,5,120,13.0,0.0
13963,64.0,1,115,3.0,0.0
13964,48.0,0,115,3.0,0.0
13965,36.0,17,120,14.0,0.0
13966,55.0,6,30,7.0,0.0
13967,40.0,24,30,8.0,0.0
13968,60.0,6,30,7.0,0.0
13969,72.0,0,102,10.0,0.0
13970,72.0,16,102,11.0,0.0
13971,43.0,19,30,8.0,0.0
13972,64.0,6,30,7.0,0.0
13973,48.0,1,30,8.0,0.0
13974,72.0,0,30,2.0,0.0
13975,67.0,1,30,7.0,0.0
13976,79.0,0,30,2.0,0.0
13977,91.0,3,30,0.0,0.0
13978,79.0,2,30,1.0,0.0
13979,52.0,6,30,8.0,0.0
13980,52.0,3,55,13.0,0.0
13981,67.0,2,30,3.0,0.0
13982,64.0,0,30,3.0,0.0
13983,79.0,3,30,7.0,0.0
13984,64.0,9,30,8.0,0.0
13985,74.0,0,30,2.0,0.0
13986,76.0,2,15,10.0,0.0
13987,77.0,0,30,7.0,0.0
13988,77.0,0,30,2.0,0.0
13989,89.0,1,30,0.0,0.0
13990,72.0,13,15,11.0,0.0
13991,79.0,2,30,1.0,0.0
13992,50.0,6,30,8.0,0.0
13993,50.0,3,55,13.0,0.0
13994,65.0,3,30,3.0,0.0
13995,62.0,0,30,3.0,0.0
13996,74.0,1,15,10.0,0.0
13997,71.0,2,15,11.0,0.0
13998,65.0,0,30,7.0,0.0
13999,76.0,2,15,10.0,0.0
14000,72.0,13,15,11.0,0.0
14001,62.0,24,30,8.0,0.0
14002,74.0,2,15,10.0,0.0
14003,71.0,1,15,11.0,0.0
14004,76.0,0,30,2.0,0.0
14005,76.0,0,42,10.0,0.0
14006,67.0,1,30,2.0,0.0
14007,64.0,0,30,7.0,0.0
14008,88.0,3,30,0.0,0.0
14009,72.0,6,42,11.0,0.0
14010,79.0,2,30,1.0,0.0
14011,48.0,6,30,8.0,0.0
14012,48.0,10,42,13.0,0.0
14013,60.0,2,30,3.0,0.0
14014,64.0,0,30,3.0,0.0
14015,76.0,6,30,7.0,0.0
14016,60.0,24,30,8.0,0.0
14017,67.0,0,30,2.0,0.0
14018,74.0,0,30,2.0,0.0
14019,79.0,0,42,10.0,0.0
14020,74.0,1,30,7.0,0.0
14021,86.0,3,30,0.0,0.0
14022,74.0,5,42,11.0,0.0
14023,79.0,2,30,1.0,0.0
14024,47.0,6,30,8.0,0.0
14025,67.0,1,42,12.0,0.0
14026,47.0,5,42,13.0,0.0
14027,59.0,2,30,3.0,0.0
14028,62.0,0,30,3.0,0.0
14029,47.0,5,42,14.0,0.0
14030,62.0,6,30,7.0,0.0
14031,59.0,24,30,8.0,0.0
14032,72.0,1,30,2.0,0.0
14033,69.0,0,30,2.0,0.0
14034,84.0,0,42,10.0,0.0
14035,60.0,0,30,7.0,0.0
14036,84.0,3,30,0.0,0.0
14037,76.0,5,42,11.0,0.0
14038,79.0,2,30,1.0,0.0
14039,45.0,6,30,8.0,0.0
14040,72.0,1,42,12.0,0.0
14041,45.0,5,42,13.0,0.0
14042,57.0,0,30,3.0,0.0
14043,60.0,2,30,3.0,0.0
14044,45.0,5,42,14.0,0.0
14045,72.0,6,30,7.0,0.0
14046,57.0,24,30,8.0,0.0
14047,71.0,1,30,2.0,0.0
14048,74.0,0,30,2.0,0.0
14049,74.0,0,30,7.0,0.0
14050,86.0,2,42,10.0,0.0
14051,86.0,3,30,0.0,0.0
14052,79.0,5,42,11.0,0.0
14053,79.0,2,30,1.0,0.0
14054,43.0,6,30,8.0,0.0
14055,71.0,1,42,12.0,0.0
14056,43.0,5,42,13.0,0.0
14057,55.0,0,30,3.0,0.0
14058,62.0,0,30,3.0,0.0
14059,43.0,5,42,14.0,0.0
14060,62.0,6,30,7.0,0.0
14061,55.0,24,30,8.0,0.0
14062,76.0,0,30,2.0,0.0
14063,76.0,6,60,7.0,0.0
14064,72.0,0,60,7.0,0.0
14065,64.0,0,60,7.0,0.0
14066,72.0,0,30,2.0,0.0
14067,88.0,1,30,10.0,0.0
14068,88.0,1,30,0.0,0.0
14069,84.0,0,30,0.0,0.0
14070,84.0,2,30,11.0,0.0
14071,76.0,0,30,1.0,0.0
14072,72.0,3,30,1.0,0.0
14073,64.0,0,30,4.0,0.0
14074,48.0,0,60,8.0,0.0
14075,36.0,106,60,8.0,0.0
14076,64.0,1,30,12.0,0.0
14077,72.0,0,30,12.0,0.0
14078,36.0,0,30,13.0,0.0
14079,48.0,4,30,13.0,0.0
14080,60.0,0,30,3.0,0.0
14081,64.0,1,30,3.0,0.0
14082,36.0,17,30,14.0,0.0
14083,76.0,0,112,10.0,0.0
14084,88.0,2,112,10.0,0.0
14085,72.0,0,120,2.0,0.0
14086,64.0,0,120,2.0,0.0
14087,88.0,0,120,0.0,0.0
14088,84.0,0,112,11.0,0.0
14089,72.0,5,112,11.0,0.0
14090,64.0,0,120,4.0,0.0
14091,72.0,0,120,1.0,0.0
14092,72.0,0,112,12.0,0.0
14093,64.0,1,112,12.0,0.0
14094,48.0,1,112,13.0,0.0
14095,36.0,0,112,13.0,0.0
14096,48.0,0,120,3.0,0.0
14097,36.0,7,112,14.0,0.0
14098,64.0,0,30,2.0,0.0
14099,72.0,0,30,2.0,0.0
14100,76.0,1,30,10.0,0.0
14101,88.0,0,30,10.0,0.0
14102,84.0,3,0,0.0,0.0
14103,88.0,0,30,0.0,0.0
14104,72.0,0,30,11.0,0.0
14105,84.0,2,30,11.0,0.0
14106,76.0,1,0,1.0,0.0
14107,64.0,0,30,4.0,0.0
14108,72.0,0,30,1.0,0.0
14109,72.0,1,30,12.0,0.0
14110,64.0,0,30,12.0,0.0
14111,36.0,4,30,13.0,0.0
14112,48.0,0,30,13.0,0.0
14113,60.0,18,0,3.0,0.0
14114,48.0,0,30,3.0,0.0
14115,36.0,47,30,14.0,0.0
14116,88.0,1,30,10.0,0.0
14117,76.0,0,30,10.0,0.0
14118,72.0,0,30,2.0,0.0
14119,64.0,0,30,2.0,0.0
14120,88.0,0,30,0.0,0.0
14121,84.0,1,30,0.0,0.0
14122,72.0,2,30,11.0,0.0
14123,84.0,0,30,11.0,0.0
14124,64.0,3,30,4.0,0.0
14125,72.0,0,30,1.0,0.0
14126,76.0,0,30,1.0,0.0
14127,64.0,1,30,12.0,0.0
14128,72.0,0,30,12.0,0.0
14129,48.0,0,30,13.0,0.0
14130,36.0,4,30,13.0,0.0
14131,48.0,1,30,3.0,0.0
14132,60.0,0,30,3.0,0.0
14133,36.0,129,30,14.0,0.0
14134,88.0,0,112,10.0,0.0
14135,76.0,2,112,10.0,0.0
14136,88.0,0,120,0.0,0.0
14137,72.0,0,112,11.0,0.0
14138,84.0,5,112,11.0,0.0
14139,64.0,0,112,12.0,0.0
14140,72.0,1,112,12.0,0.0
14141,48.0,1,112,13.0,0.0
14142,36.0,0,112,13.0,0.0
14143,36.0,7,112,14.0,0.0
14144,72.0,0,0,2.0,0.0
14145,64.0,0,0,2.0,0.0
14146,88.0,0,30,10.0,0.0
14147,76.0,1,30,10.0,0.0
14148,84.0,3,0,0.0,0.0
14149,88.0,0,30,0.0,0.0
14150,72.0,2,30,11.0,0.0
14151,84.0,0,30,11.0,0.0
14152,64.0,0,0,4.0,0.0
14153,76.0,0,0,1.0,0.0
14154,72.0,1,0,1.0,0.0
14155,64.0,1,30,12.0,0.0
14156,72.0,0,30,12.0,0.0
14157,48.0,4,30,13.0,0.0
14158,36.0,0,30,13.0,0.0
14159,48.0,0,0,3.0,0.0
14160,60.0,18,0,3.0,0.0
14161,36.0,47,30,14.0,0.0
14162,64.0,1,270,2.0,0.0
14163,72.0,0,270,2.0,0.0
14164,76.0,0,30,10.0,0.0
14165,88.0,2,30,10.0,0.0
14166,88.0,0,270,0.0,0.0
14167,84.0,3,270,0.0,0.0
14168,72.0,0,30,11.0,0.0
14169,84.0,5,30,11.0,0.0
14170,72.0,17,60,6.0,0.0
14171,64.0,0,270,4.0,0.0
14172,72.0,8,270,1.0,0.0
14173,76.0,0,270,1.0,0.0
14174,72.0,1,30,12.0,0.0
14175,64.0,0,30,12.0,0.0
14176,36.0,5,30,13.0,0.0
14177,48.0,0,30,13.0,0.0
14178,48.0,0,270,3.0,0.0
14179,60.0,78,270,3.0,0.0
14180,36.0,20,30,14.0,0.0
14181,52.0,6,20,7.0,0.0
14182,36.0,14,20,8.0,0.0
14183,60.0,6,20,7.0,0.0
14184,40.0,14,20,8.0,0.0
14185,48.0,14,20,8.0,0.0
14186,64.0,6,0,7.0,0.0
14187,48.0,14,20,8.0,0.0
14188,72.0,6,20,7.0,0.0
14189,52.0,14,20,8.0,0.0
14190,76.0,6,20,7.0,0.0
14191,60.0,14,20,8.0,0.0
14192,76.0,6,20,7.0,0.0
14193,60.0,14,20,8.0,0.0
14194,84.0,6,20,7.0,0.0
14195,64.0,14,20,8.0,0.0
14196,88.0,6,20,7.0,0.0
14197,72.0,24,20,8.0,0.0
14198,84.0,6,120,7.0,0.0
14199,76.0,0,120,7.0,0.0
14200,88.0,0,120,7.0,0.0
14201,60.0,46,120,8.0,0.0
14202,72.0,0,120,8.0,0.0
14203,64.0,0,120,8.0,0.0
14204,76.0,0,112,10.0,0.0
14205,72.0,0,120,2.0,0.0
14206,88.0,2,112,10.0,0.0
14207,88.0,0,120,0.0,0.0
14208,72.0,0,112,11.0,0.0
14209,84.0,5,112,11.0,0.0
14210,76.0,0,120,1.0,0.0
14211,72.0,0,120,1.0,0.0
14212,64.0,1,112,12.0,0.0
14213,48.0,0,112,13.0,0.0
14214,36.0,7,112,14.0,0.0
14215,88.0,0,30,10.0,0.0
14216,76.0,0,30,10.0,0.0
14217,72.0,0,30,2.0,0.0
14218,64.0,1,0,2.0,0.0
14219,84.0,3,0,0.0,0.0
14220,88.0,1,30,0.0,0.0
14221,84.0,2,30,11.0,0.0
14222,72.0,0,30,11.0,0.0
14223,76.0,0,30,1.0,0.0
14224,72.0,0,30,1.0,0.0
14225,64.0,1,0,4.0,0.0
14226,64.0,1,30,12.0,0.0
14227,48.0,4,30,13.0,0.0
14228,60.0,18,0,3.0,0.0
14229,48.0,0,0,3.0,0.0
14230,36.0,47,30,14.0,0.0
14231,76.0,0,30,10.0,0.0
14232,88.0,2,30,10.0,0.0
14233,73.0,1,270,2.0,0.0
14234,64.0,0,270,2.0,0.0
14235,88.0,3,270,0.0,0.0
14236,85.0,0,270,0.0,0.0
14237,85.0,5,30,11.0,0.0
14238,73.0,0,30,11.0,0.0
14239,76.0,17,60,6.0,0.0
14240,69.0,0,60,6.0,0.0
14241,45.0,0,270,4.0,0.0
14242,73.0,8,270,1.0,0.0
14243,69.0,0,270,4.0,0.0
14244,76.0,0,270,1.0,0.0
14245,69.0,0,30,12.0,0.0
14246,57.0,1,30,12.0,0.0
14247,45.0,5,30,13.0,0.0
14248,45.0,0,270,3.0,0.0
14249,57.0,78,270,3.0,0.0
14250,33.0,20,30,14.0,0.0
14251,45.0,5,120,15.0,0.0
14252,52.0,6,20,7.0,0.0
14253,33.0,14,20,8.0,0.0
14254,61.0,6,20,7.0,0.0
14255,40.0,14,20,8.0,0.0
14256,64.0,6,20,7.0,0.0
14257,45.0,9,20,8.0,0.0
14258,64.0,6,20,7.0,0.0
14259,45.0,14,20,8.0,0.0
14260,73.0,6,20,7.0,0.0
14261,52.0,14,20,8.0,0.0
14262,57.0,14,20,8.0,0.0
14263,76.0,6,0,7.0,0.0
14264,57.0,14,20,8.0,0.0
14265,85.0,6,20,7.0,0.0
14266,64.0,14,20,8.0,0.0
14267,88.0,6,0,7.0,0.0
14268,85.0,0,120,7.0,0.0
14269,76.0,0,120,7.0,0.0
14270,64.0,0,120,8.0,0.0
14271,57.0,46,120,8.0,0.0
14272,69.0,24,0,8.0,0.0
14273,76.0,2,112,10.0,0.0
14274,88.0,0,112,10.0,0.0
14275,73.0,0,120,2.0,0.0
14276,64.0,0,120,2.0,0.0
14277,85.0,0,112,11.0,0.0
14278,73.0,5,112,11.0,0.0
14279,57.0,0,120,4.0,0.0
14280,69.0,0,120,4.0,0.0
14281,69.0,1,112,12.0,0.0
14282,45.0,1,112,13.0,0.0
14283,45.0,0,120,3.0,0.0
14284,57.0,18,120,3.0,0.0
14285,33.0,7,112,14.0,0.0
14286,64.0,0,30,2.0,0.0
14287,73.0,1,30,2.0,0.0
14288,88.0,0,30,10.0,0.0
14289,76.0,0,30,10.0,0.0
14290,85.0,0,0,0.0,0.0
14291,88.0,3,0,0.0,0.0
14292,73.0,2,30,11.0,0.0
14293,85.0,0,30,11.0,0.0
14294,57.0,3,30,4.0,0.0
14295,76.0,0,0,1.0,0.0
14296,69.0,1,0,1.0,0.0
14297,69.0,0,30,4.0,0.0
14298,69.0,1,30,12.0,0.0
14299,45.0,4,30,13.0,0.0
14300,57.0,1,30,3.0,0.0
14301,45.0,0,30,3.0,0.0
14302,33.0,47,30,14.0,0.0
14303,77.0,2,30,10.0,0.0
14304,89.0,0,30,10.0,0.0
14305,65.0,0,270,2.0,0.0
14306,72.0,1,270,2.0,0.0
14307,89.0,3,270,0.0,0.0
14308,84.0,0,270,0.0,0.0
14309,69.0,0,30,11.0,0.0
14310,81.0,5,30,11.0,0.0
14311,69.0,0,60,6.0,0.0
14312,72.0,17,60,6.0,0.0
14313,69.0,0,270,4.0,0.0
14314,77.0,0,270,1.0,0.0
14315,69.0,0,270,1.0,0.0
14316,57.0,8,270,4.0,0.0
14317,72.0,1,30,12.0,0.0
14318,60.0,0,30,12.0,0.0
14319,41.0,5,30,13.0,0.0
14320,41.0,78,270,3.0,0.0
14321,53.0,0,270,3.0,0.0
14322,29.0,20,30,14.0,0.0
14323,45.0,5,120,15.0,0.0
14324,53.0,6,20,7.0,0.0
14325,30.0,14,20,8.0,0.0
14326,57.0,6,20,7.0,0.0
14327,33.0,14,20,8.0,0.0
14328,65.0,6,0,7.0,0.0
14329,41.0,9,0,8.0,0.0
14330,69.0,6,20,7.0,0.0
14331,45.0,14,20,8.0,0.0
14332,77.0,6,0,7.0,0.0
14333,53.0,14,0,8.0,0.0
14334,81.0,6,20,7.0,0.0
14335,57.0,14,20,8.0,0.0
14336,65.0,24,20,8.0,0.0
14337,89.0,6,0,7.0,0.0
14338,77.0,0,120,7.0,0.0
14339,81.0,6,120,7.0,0.0
14340,65.0,0,120,8.0,0.0
14341,57.0,0,120,8.0,0.0
14342,53.0,54,120,8.0,0.0
14343,77.0,0,120,10.0,0.0
14344,89.0,0,120,10.0,0.0
14345,84.0,0,120,0.0,0.0
14346,89.0,1,120,0.0,0.0
14347,81.0,0,120,11.0,0.0
14348,69.0,2,120,11.0,0.0
14349,57.0,0,120,4.0,0.0
14350,77.0,3,120,1.0,0.0
14351,69.0,0,120,1.0,0.0
14352,69.0,0,120,4.0,0.0
14353,72.0,1,120,12.0,0.0
14354,53.0,4,120,13.0,0.0
14355,41.0,9,120,14.0,0.0
14356,72.0,0,0,2.0,0.0
14357,65.0,1,0,2.0,0.0
14358,77.0,0,22,10.0,0.0
14359,89.0,2,22,10.0,0.0
14360,84.0,0,30,0.0,0.0
14361,89.0,3,30,0.0,0.0
14362,81.0,0,22,11.0,0.0
14363,69.0,5,22,11.0,0.0
14364,57.0,0,30,4.0,0.0
14365,69.0,0,30,1.0,0.0
14366,77.0,1,30,1.0,0.0
14367,69.0,0,30,4.0,0.0
14368,72.0,1,22,12.0,0.0
14369,53.0,1,22,13.0,0.0
14370,53.0,1,0,3.0,0.0
14371,41.0,0,0,3.0,0.0
14372,41.0,7,22,14.0,0.0
14373,90.0,0,22,10.0,0.0
14374,78.0,2,22,10.0,0.0
14375,74.0,0,270,2.0,0.0
14376,66.0,1,270,2.0,0.0
14377,86.0,0,270,0.0,0.0
14378,90.0,3,270,0.0,0.0
14379,69.0,5,22,11.0,0.0
14380,81.0,0,22,11.0,0.0
14381,62.0,17,60,6.0,0.0
14382,74.0,0,60,6.0,0.0
14383,57.0,8,270,4.0,0.0
14384,62.0,0,270,4.0,0.0
14385,78.0,0,270,1.0,0.0
14386,69.0,0,270,1.0,0.0
14387,74.0,1,22,12.0,0.0
14388,62.0,0,22,12.0,0.0
14389,50.0,5,22,13.0,0.0
14390,38.0,0,270,3.0,0.0
14391,50.0,75,270,3.0,0.0
14392,38.0,28,22,14.0,0.0
14393,45.0,5,120,15.0,0.0
14394,57.0,6,20,7.0,0.0
14395,26.0,14,20,8.0,0.0
14396,66.0,6,20,7.0,0.0
14397,33.0,14,20,8.0,0.0
14398,69.0,6,20,7.0,0.0
14399,69.0,6,20,7.0,0.0
14400,38.0,9,0,8.0,0.0
14401,78.0,6,20,7.0,0.0
14402,45.0,14,20,8.0,0.0
14403,81.0,6,20,7.0,0.0
14404,50.0,14,20,8.0,0.0
14405,81.0,6,20,7.0,0.0
14406,50.0,14,20,8.0,0.0
14407,90.0,6,20,7.0,0.0
14408,57.0,14,20,8.0,0.0
14409,62.0,24,20,8.0,0.0
14410,93.0,6,3,7.0,0.0
14411,90.0,0,120,7.0,0.0
14412,81.0,6,120,7.0,0.0
14413,50.0,0,120,8.0,0.0
14414,62.0,0,120,8.0,0.0
14415,57.0,54,120,8.0,0.0
14416,74.0,0,120,2.0,0.0
14417,78.0,0,120,10.0,0.0
14418,86.0,0,120,0.0,0.0
14419,90.0,1,120,0.0,0.0
14420,74.0,0,120,11.0,0.0
14421,81.0,2,120,11.0,0.0
14422,62.0,0,120,4.0,0.0
14423,69.0,1,120,12.0,0.0
14424,50.0,4,120,13.0,0.0
14425,38.0,9,120,14.0,0.0
14426,78.0,0,22,10.0,0.0
14427,90.0,1,0,10.0,0.0
14428,66.0,0,0,2.0,0.0
14429,74.0,0,30,2.0,0.0
14430,90.0,3,30,0.0,0.0
14431,86.0,0,30,0.0,0.0
14432,81.0,0,22,11.0,0.0
14433,74.0,5,22,11.0,0.0
14434,62.0,0,30,4.0,0.0
14435,66.0,3,0,4.0,0.0
14436,69.0,0,0,1.0,0.0
14437,78.0,0,0,1.0,0.0
14438,62.0,0,0,12.0,0.0
14439,69.0,1,22,12.0,0.0
14440,50.0,0,22,13.0,0.0
14441,50.0,0,0,3.0,0.0
14442,38.0,1,0,3.0,0.0
14443,38.0,7,22,14.0,0.0
14444,79.0,2,22,10.0,0.0
14445,91.0,0,22,10.0,0.0
14446,67.0,1,30,2.0,0.0
14447,71.0,0,30,2.0,0.0
14448,86.0,0,30,0.0,0.0
14449,91.0,3,30,0.0,0.0
14450,83.0,5,22,11.0,0.0
14451,74.0,0,22,11.0,0.0
14452,74.0,0,60,6.0,0.0
14453,62.0,12,60,6.0,0.0
14454,71.0,0,30,1.0,0.0
14455,79.0,0,30,1.0,0.0
14456,62.0,0,30,4.0,0.0
14457,67.0,1,30,4.0,0.0
14458,71.0,0,22,12.0,0.0
14459,62.0,1,22,12.0,0.0
14460,43.0,0,22,13.0,0.0
14461,43.0,21,30,3.0,0.0
14462,55.0,0,30,3.0,0.0
14463,31.0,7,22,14.0,0.0
14464,50.0,42,60,15.0,0.0
14465,91.0,3,60,7.0,0.0
14466,86.0,0,60,7.0,0.0
14467,83.0,0,60,7.0,0.0
14468,79.0,6,60,7.0,0.0
14469,43.0,0,60,8.0,0.0
14470,38.0,0,60,8.0,0.0
14471,35.0,16,60,8.0,0.0
14472,31.0,0,60,8.0,0.0
14473,66.0,0,30,2.0,0.0
14474,90.0,0,22,10.0,0.0
14475,74.0,0,30,2.0,0.0
14476,78.0,2,22,10.0,0.0
14477,86.0,0,30,0.0,0.0
14478,90.0,3,30,0.0,0.0
14479,81.0,0,22,11.0,0.0
14480,74.0,5,22,11.0,0.0
14481,74.0,0,60,6.0,0.0
14482,62.0,12,60,6.0,0.0
14483,66.0,0,30,4.0,0.0
14484,78.0,0,30,1.0,0.0
14485,69.0,1,30,1.0,0.0
14486,50.0,0,30,4.0,0.0
14487,69.0,0,22,12.0,0.0
14488,62.0,1,22,12.0,0.0
14489,50.0,1,22,13.0,0.0
14490,38.0,0,30,3.0,0.0
14491,50.0,21,30,3.0,0.0
14492,38.0,7,22,14.0,0.0
14493,50.0,42,60,15.0,0.0
14494,90.0,3,60,7.0,0.0
14495,81.0,0,60,7.0,0.0
14496,78.0,6,60,7.0,0.0
14497,86.0,0,60,7.0,0.0
14498,45.0,0,60,8.0,0.0
14499,42.0,16,60,8.0,0.0
14500,38.0,0,60,8.0,0.0
14501,50.0,0,60,8.0,0.0
14502,91.0,0,22,10.0,0.0
14503,71.0,0,30,2.0,0.0
14504,79.0,2,22,10.0,0.0
14505,67.0,0,30,2.0,0.0
14506,86.0,0,30,0.0,0.0
14507,91.0,3,30,0.0,0.0
14508,83.0,0,22,11.0,0.0
14509,74.0,5,22,11.0,0.0
14510,62.0,12,60,6.0,0.0
14511,74.0,0,60,6.0,0.0
14512,62.0,0,30,4.0,0.0
14513,71.0,0,30,1.0,0.0
14514,79.0,0,30,1.0,0.0
14515,67.0,1,30,4.0,0.0
14516,62.0,1,22,12.0,0.0
14517,71.0,0,22,12.0,0.0
14518,43.0,1,22,13.0,0.0
14519,43.0,0,30,3.0,0.0
14520,55.0,21,30,3.0,0.0
14521,31.0,7,22,14.0,0.0
14522,50.0,42,60,15.0,0.0
14523,91.0,3,60,7.0,0.0
14524,79.0,0,60,7.0,0.0
14525,83.0,0,60,7.0,0.0
14526,86.0,6,60,7.0,0.0
14527,43.0,0,60,8.0,0.0
14528,38.0,16,60,8.0,0.0
14529,35.0,0,60,8.0,0.0
14530,31.0,0,60,8.0,0.0
14531,90.0,0,22,10.0,0.0
14532,78.0,2,22,10.0,0.0
14533,74.0,0,30,2.0,0.0
14534,66.0,0,30,2.0,0.0
14535,90.0,0,30,0.0,0.0
14536,86.0,3,30,0.0,0.0
14537,81.0,0,22,11.0,0.0
14538,74.0,5,22,11.0,0.0
14539,62.0,12,60,6.0,0.0
14540,74.0,0,60,6.0,0.0
14541,69.0,0,30,1.0,0.0
14542,78.0,0,30,1.0,0.0
14543,66.0,0,30,4.0,0.0
14544,50.0,1,30,4.0,0.0
14545,69.0,1,22,12.0,0.0
14546,62.0,0,22,12.0,0.0
14547,50.0,1,22,13.0,0.0
14548,38.0,0,30,3.0,0.0
14549,50.0,21,30,3.0,0.0
14550,38.0,7,22,14.0,0.0
14551,50.0,42,60,15.0,0.0
14552,90.0,3,60,7.0,0.0
14553,86.0,0,60,7.0,0.0
14554,81.0,0,60,7.0,0.0
14555,78.0,6,60,7.0,0.0
14556,42.0,0,60,8.0,0.0
14557,50.0,0,60,8.0,0.0
14558,38.0,16,60,8.0,0.0
14559,88.0,3,60,7.0,0.0
14560,76.0,2,22,10.0,0.0
14561,88.0,0,22,10.0,0.0
14562,85.0,3,60,7.0,0.0
14563,73.0,0,120,2.0,0.0
14564,64.0,1,120,2.0,0.0
14565,76.0,0,60,7.0,0.0
14566,81.0,0,60,7.0,0.0
14567,85.0,0,120,0.0,0.0
14568,88.0,2,120,0.0,0.0
14569,73.0,5,22,11.0,0.0
14570,81.0,0,22,11.0,0.0
14571,69.0,0,60,6.0,0.0
14572,37.0,0,60,8.0,0.0
14573,40.0,0,60,8.0,0.0
14574,45.0,0,3,8.0,0.0
14575,57.0,0,60,6.0,0.0
14576,76.0,0,120,1.0,0.0
14577,69.0,8,120,1.0,0.0
14578,64.0,0,120,4.0,0.0
14579,57.0,0,120,4.0,0.0
14580,69.0,1,22,12.0,0.0
14581,62.0,0,22,12.0,0.0
14582,45.0,5,22,13.0,0.0
14583,57.0,0,120,3.0,0.0
14584,45.0,18,120,3.0,0.0
14585,33.0,22,22,14.0,0.0
14586,45.0,15,60,15.0,0.0
14587,49.0,3,30,7.0,0.0
14588,33.0,0,0,8.0,0.0
14589,52.0,0,30,7.0,0.0
14590,37.0,1,30,8.0,0.0
14591,57.0,3,30,7.0,0.0
14592,40.0,27,30,8.0,0.0
14593,61.0,3,30,7.0,0.0
14594,45.0,27,30,8.0,0.0
14595,64.0,3,30,7.0,0.0
14596,49.0,27,30,8.0,0.0
14597,69.0,3,30,7.0,0.0
14598,52.0,57,30,8.0,0.0
14599,64.0,0,60,7.0,0.0
14600,73.0,3,60,7.0,0.0
14601,76.0,0,60,7.0,0.0
14602,57.0,27,60,8.0,0.0
14603,61.0,3,30,7.0,0.0
14604,45.0,0,0,8.0,0.0
14605,64.0,3,30,7.0,0.0
14606,49.0,27,30,8.0,0.0
14607,69.0,3,30,7.0,0.0
14608,52.0,27,30,8.0,0.0
14609,73.0,3,30,7.0,0.0
14610,57.0,27,30,8.0,0.0
14611,76.0,3,30,7.0,0.0
14612,61.0,27,30,8.0,0.0
14613,81.0,3,30,7.0,0.0
14614,64.0,57,30,8.0,0.0
14615,76.0,3,60,7.0,0.0
14616,88.0,0,60,7.0,0.0
14617,85.0,0,60,7.0,0.0
14618,69.0,0,60,8.0,0.0
14619,57.0,27,60,8.0,0.0
14620,52.0,3,30,7.0,0.0
14621,33.0,27,30,8.0,0.0
14622,55.0,3,30,7.0,0.0
14623,37.0,27,30,8.0,0.0
14624,61.0,3,30,7.0,0.0
14625,40.0,27,30,8.0,0.0
14626,64.0,3,30,7.0,0.0
14627,45.0,27,30,8.0,0.0
14628,67.0,3,30,7.0,0.0
14629,49.0,27,30,8.0,0.0
14630,73.0,3,30,7.0,0.0
14631,52.0,57,30,8.0,0.0
14632,76.0,0,60,7.0,0.0
14633,79.0,0,60,7.0,0.0
14634,67.0,3,60,7.0,0.0
14635,45.0,27,60,8.0,0.0
14636,57.0,0,60,8.0,0.0
14637,61.0,3,30,7.0,0.0
14638,57.0,27,30,8.0,0.0
14639,64.0,3,30,7.0,0.0
14640,52.0,27,30,8.0,0.0
14641,67.0,3,30,7.0,0.0
14642,49.0,27,30,8.0,0.0
14643,73.0,3,30,7.0,0.0
14644,45.0,27,30,8.0,0.0
14645,76.0,3,30,7.0,0.0
14646,40.0,27,30,8.0,0.0
14647,79.0,3,30,7.0,0.0
14648,37.0,55,30,8.0,0.0
14649,85.0,5,60,7.0,0.0
14650,91.0,0,60,7.0,0.0
14651,33.0,62,60,8.0,0.0
14652,85.0,1,120,7.0,0.0
14653,79.0,2,120,7.0,0.0
14654,91.0,2,120,7.0,0.0
14655,45.0,54,60,8.0,0.0
14656,35.0,1,60,8.0,0.0
14657,33.0,56,60,8.0,0.0
14658,78.0,1,120,7.0,0.0
14659,90.0,2,120,7.0,0.0
14660,86.0,1,120,7.0,0.0
14661,45.0,57,60,8.0,0.0
14662,33.0,59,60,8.0,0.0
14663,37.0,0,60,8.0,0.0
14664,76.0,4,120,7.0,0.0
14665,45.0,57,60,8.0,0.0
14666,88.0,2,120,7.0,0.0
14667,33.0,1,60,8.0,0.0
14668,38.0,57,60,8.0,0.0
14669,81.0,0,0,7.0,0.0
14670,74.0,2,120,7.0,0.0
14671,86.0,1,120,7.0,0.0
14672,45.0,56,60,8.0,0.0
14673,40.0,4,60,8.0,0.0
14674,33.0,53,60,8.0,0.0
14675,85.0,3,60,7.0,0.0
14676,73.0,1,60,7.0,0.0
14677,45.0,56,60,8.0,0.0
14678,80.0,2,60,7.0,0.0
14679,68.0,1,60,7.0,0.0
14680,33.0,2,60,8.0,0.0
14681,41.0,61,60,8.0,0.0
14682,83.0,1,120,7.0,0.0
14683,71.0,2,120,7.0,0.0
14684,45.0,56,60,8.0,0.0
14685,40.0,0,60,8.0,0.0
14686,33.0,59,60,8.0,0.0
14687,85.0,2,60,7.0,0.0
14688,73.0,0,60,7.0,0.0
14689,45.0,56,60,8.0,0.0
14690,68.0,0,60,7.0,0.0
14691,80.0,3,60,7.0,0.0
14692,41.0,61,60,8.0,0.0
14693,33.0,0,60,8.0,0.0
14694,83.0,1,120,7.0,0.0
14695,71.0,1,120,7.0,0.0
14696,45.0,57,60,8.0,0.0
14697,40.0,1,60,8.0,0.0
14698,33.0,57,60,8.0,0.0
14699,73.0,1,60,7.0,0.0
14700,45.0,0,60,8.0,0.0
14701,85.0,57,60,7.0,0.0
14702,68.0,2,60,7.0,0.0
14703,47.0,1,60,8.0,0.0
14704,80.0,61,60,7.0,0.0
14705,71.0,2,120,7.0,0.0
14706,83.0,0,120,7.0,0.0
14707,50.0,56,60,8.0,0.0
14708,45.0,57,60,8.0,0.0
14709,33.0,0,60,8.0,0.0
14710,69.0,1,60,7.0,0.0
14711,81.0,6,60,7.0,0.0
14712,48.0,55,60,8.0,0.0
14713,76.0,2,60,7.0,0.0
14714,64.0,3,60,7.0,0.0
14715,49.0,57,60,8.0,0.0
14716,67.0,1,120,7.0,0.0
14717,79.0,2,120,7.0,0.0
14718,52.0,58,60,8.0,0.0
14719,33.0,1,60,8.0,0.0
14720,45.0,56,60,8.0,0.0
14721,66.0,1,60,7.0,0.0
14722,78.0,2,60,7.0,0.0
14723,50.0,57,60,8.0,0.0
14724,73.0,1,60,7.0,0.0
14725,61.0,2,60,7.0,0.0
14726,52.0,62,60,8.0,0.0
14727,76.0,2,120,7.0,0.0
14728,64.0,3,120,7.0,0.0
14729,55.0,53,60,8.0,0.0
14730,45.0,1,60,8.0,0.0
14731,33.0,56,60,8.0,0.0
14732,62.0,1,60,7.0,0.0
14733,74.0,0,60,7.0,0.0
14734,53.0,60,60,8.0,0.0
14735,65.0,2,60,7.0,0.0
14736,56.0,59,60,8.0,0.0
14737,62.0,3,120,7.0,0.0
14738,59.0,56,60,8.0,0.0
14739,45.0,1,60,8.0,0.0
14740,33.0,54,60,8.0,0.0
14741,74.0,2,0,7.0,0.0
14742,62.0,2,60,7.0,0.0
14743,53.0,55,60,8.0,0.0
14744,65.0,6,60,7.0,0.0
14745,56.0,60,60,8.0,0.0
14746,62.0,1,120,7.0,0.0
14747,59.0,56,60,8.0,0.0
14748,45.0,2,60,8.0,0.0
14749,33.0,53,60,8.0,0.0
14750,74.0,2,3,7.0,0.0
14751,62.0,3,60,7.0,0.0
14752,53.0,57,60,8.0,0.0
14753,65.0,2,60,7.0,0.0
14754,56.0,54,60,8.0,0.0
14755,62.0,4,60,7.0,0.0
14756,74.0,2,60,7.0,0.0
14757,59.0,58,60,8.0,0.0
14758,33.0,56,60,8.0,0.0
14759,45.0,0,60,8.0,0.0
14760,62.0,1,60,7.0,0.0
14761,64.0,2,60,7.0,0.0
14762,50.0,0,60,8.0,0.0
14763,76.0,60,60,7.0,0.0
14764,69.0,4,60,7.0,0.0
14765,52.0,53,60,8.0,0.0
14766,64.0,3,60,7.0,0.0
14767,57.0,1,60,8.0,0.0
14768,76.0,0,60,7.0,0.0
14769,62.0,59,60,7.0,0.0
14770,33.0,3,60,8.0,0.0
14771,45.0,56,60,8.0,0.0
14772,62.0,2,60,7.0,0.0
14773,76.0,0,60,7.0,0.0
14774,64.0,1,60,7.0,0.0
14775,50.0,57,60,8.0,0.0
14776,69.0,3,60,7.0,0.0
14777,52.0,57,60,8.0,0.0
14778,76.0,2,60,7.0,0.0
14779,64.0,0,60,7.0,0.0
14780,62.0,1,60,7.0,0.0
14781,57.0,58,60,8.0,0.0
14782,33.0,3,60,8.0,0.0
14783,45.0,54,60,8.0,0.0
14784,64.0,3,60,7.0,0.0
14785,76.0,1,60,7.0,0.0
14786,62.0,3,60,7.0,0.0
14787,50.0,57,60,8.0,0.0
14788,69.0,3,60,7.0,0.0
14789,52.0,53,60,8.0,0.0
14790,62.0,2,60,7.0,0.0
14791,76.0,0,60,7.0,0.0
14792,64.0,2,60,7.0,0.0
14793,57.0,375,60,8.0,0.0
14794,33.0,0,15,8.0,0.0
14795,45.0,15,15,7.0,0.0
14796,50.0,15,15,7.0,0.0
14797,38.0,0,15,8.0,0.0
14798,40.0,0,15,8.0,0.0
14799,52.0,15,15,7.0,0.0
14800,57.0,15,15,7.0,0.0
14801,45.0,0,15,8.0,0.0
14802,62.0,15,15,7.0,0.0
14803,50.0,0,15,8.0,0.0
14804,52.0,15,15,8.0,0.0
14805,64.0,0,15,7.0,0.0
14806,69.0,0,15,7.0,0.0
14807,57.0,15,15,8.0,0.0
14808,62.0,15,15,8.0,0.0
14809,74.0,0,15,7.0,0.0
14810,76.0,1,15,7.0,0.0
14811,64.0,11,15,8.0,0.0
14812,78.0,6,15,7.0,0.0
14813,66.0,10,15,8.0,0.0
14814,76.0,5,15,7.0,0.0
14815,64.0,11,15,8.0,0.0
14816,78.0,4,15,7.0,0.0
14817,66.0,9,15,8.0,0.0
14818,76.0,4,15,7.0,0.0
14819,64.0,11,15,8.0,0.0
14820,78.0,4,15,7.0,0.0
14821,66.0,13,15,8.0,0.0
14822,76.0,3,15,7.0,0.0
14823,64.0,11,15,8.0,0.0
14824,78.0,5,15,7.0,0.0
14825,66.0,12,15,8.0,0.0
14826,76.0,3,15,7.0,0.0
14827,64.0,9,15,8.0,0.0
14828,78.0,5,15,7.0,0.0
14829,66.0,13,15,8.0,0.0
14830,76.0,1,15,7.0,0.0
14831,64.0,11,15,8.0,0.0
14832,78.0,4,15,7.0,0.0
14833,66.0,14,15,8.0,0.0
14834,76.0,2,15,7.0,0.0
14835,64.0,10,15,8.0,0.0
14836,78.0,4,15,7.0,0.0
14837,66.0,13,15,8.0,0.0
14838,76.0,3,15,7.0,0.0
14839,64.0,11,15,8.0,0.0
14840,78.0,4,15,7.0,0.0
14841,66.0,12,15,8.0,0.0
14842,76.0,4,15,7.0,0.0
14843,64.0,11,15,8.0,0.0
14844,78.0,3,15,7.0,0.0
14845,66.0,10,15,8.0,0.0
14846,76.0,7,15,7.0,0.0
14847,64.0,11,15,8.0,0.0
14848,78.0,3,15,7.0,0.0
14849,66.0,11,15,8.0,0.0
14850,76.0,2,15,7.0,0.0
14851,64.0,12,15,8.0,0.0
14852,78.0,6,15,7.0,0.0
14853,66.0,11,15,8.0,0.0
14854,76.0,2,15,7.0,0.0
14855,64.0,12,15,8.0,0.0
14856,78.0,2,15,7.0,0.0
14857,66.0,12,15,8.0,0.0
14858,76.0,4,15,7.0,0.0
14859,64.0,13,15,8.0,0.0
14860,78.0,1,15,7.0,0.0
14861,66.0,12,15,8.0,0.0
14862,76.0,6,15,7.0,0.0
14863,64.0,11,15,8.0,0.0
14864,78.0,2,15,7.0,0.0
14865,66.0,12,15,8.0,0.0
14866,76.0,4,15,7.0,0.0
14867,64.0,9,15,8.0,0.0
14868,78.0,7,15,7.0,0.0
14869,66.0,11,15,8.0,0.0
14870,76.0,3,15,7.0,0.0
14871,64.0,11,15,8.0,0.0
14872,78.0,5,15,7.0,0.0
14873,66.0,8,15,8.0,0.0
14874,76.0,6,15,7.0,0.0
14875,57.0,1,30,4.0,0.0
14876,64.0,11,15,8.0,0.0
14877,78.0,3,15,7.0,0.0
14878,66.0,11,15,8.0,0.0
14879,76.0,4,15,7.0,0.0
14880,64.0,12,15,8.0,0.0
14881,78.0,1,15,7.0,0.0
14882,66.0,13,15,8.0,0.0
14883,76.0,3,15,7.0,0.0
14884,64.0,13,15,8.0,0.0
14885,62.0,3,100,4.0,0.0
14886,78.0,4,15,7.0,0.0
14887,66.0,8,15,8.0,0.0
14888,76.0,7,15,7.0,0.0
14889,64.0,9,15,8.0,0.0
14890,78.0,5,15,7.0,0.0
14891,66.0,10,15,8.0,0.0
14892,76.0,6,15,7.0,0.0
14893,64.0,8,15,8.0,0.0
14894,78.0,6,15,7.0,0.0
14895,66.0,9,15,8.0,0.0
14896,76.0,4,15,7.0,0.0
14897,64.0,10,15,8.0,0.0
14898,78.0,2,15,7.0,0.0
14899,66.0,12,15,8.0,0.0
14900,76.0,6,15,7.0,0.0
14901,64.0,2,30,4.0,0.0
14902,64.0,8,15,8.0,0.0
14903,78.0,5,15,7.0,0.0
14904,66.0,11,15,8.0,0.0
14905,76.0,3,15,7.0,0.0
14906,64.0,9,15,8.0,0.0
14907,78.0,6,15,7.0,0.0
14908,66.0,11,15,8.0,0.0
14909,76.0,3,15,7.0,0.0
14910,64.0,10,15,8.0,0.0
14911,57.0,2,30,4.0,0.0
14912,78.0,5,15,7.0,0.0
14913,66.0,11,15,8.0,0.0
14914,76.0,3,15,7.0,0.0
14915,64.0,11,15,8.0,0.0
14916,78.0,2,15,7.0,0.0
14917,66.0,12,15,8.0,0.0
14918,76.0,6,15,7.0,0.0
14919,64.0,2,100,4.0,0.0
14920,64.0,10,15,8.0,0.0
14921,78.0,3,15,7.0,0.0
14922,66.0,11,15,8.0,0.0
14923,76.0,4,15,7.0,0.0
14924,64.0,12,15,8.0,0.0
14925,78.0,2,15,7.0,0.0
14926,66.0,13,15,8.0,0.0
14927,76.0,5,15,7.0,0.0
14928,64.0,10,15,8.0,0.0
14929,78.0,4,15,7.0,0.0
14930,66.0,9,15,8.0,0.0
14931,76.0,2,15,7.0,0.0
14932,64.0,11,15,8.0,0.0
14933,78.0,5,15,7.0,0.0
14934,66.0,10,15,8.0,0.0
14935,76.0,7,15,7.0,0.0
14936,69.0,10,30,4.0,0.0
14937,64.0,9,15,8.0,0.0
14938,78.0,4,15,7.0,0.0
14939,66.0,0,15,8.0,0.0
14940,76.0,4,15,7.0,0.0
14941,64.0,11,15,8.0,0.0
14942,78.0,4,15,7.0,0.0
14943,66.0,14,15,8.0,0.0
14944,76.0,4,15,7.0,0.0
14945,57.0,8,30,4.0,0.0
14946,64.0,11,15,8.0,0.0
14947,57.0,2,30,3.0,0.0
14948,78.0,1,15,7.0,0.0
14949,66.0,1,15,8.0,0.0
14950,76.0,4,15,7.0,0.0
14951,64.0,12,15,8.0,0.0
14952,78.0,3,15,7.0,0.0
14953,66.0,13,15,8.0,0.0
14954,76.0,4,15,7.0,0.0
14955,62.0,0,100,4.0,0.0
14956,64.0,10,15,8.0,0.0
14957,62.0,9,100,3.0,0.0
14958,78.0,4,15,7.0,0.0
14959,66.0,12,15,8.0,0.0
14960,76.0,2,15,7.0,0.0
14961,64.0,14,15,8.0,0.0
14962,78.0,3,15,7.0,0.0
14963,66.0,11,15,8.0,0.0
14964,76.0,4,15,7.0,0.0
14965,64.0,11,15,8.0,0.0
14966,78.0,4,15,7.0,0.0
14967,66.0,9,15,8.0,0.0
14968,76.0,4,15,7.0,0.0
14969,64.0,4,15,8.0,0.0
14970,78.0,3,15,7.0,0.0
14971,66.0,10,15,8.0,0.0
14972,76.0,7,15,7.0,0.0
14973,64.0,8,30,4.0,0.0
14974,64.0,10,15,8.0,0.0
14975,64.0,4,30,3.0,0.0
14976,78.0,2,15,7.0,0.0
14977,66.0,1,15,8.0,0.0
14978,76.0,4,15,7.0,0.0
14979,64.0,10,15,8.0,0.0
14980,78.0,6,15,7.0,0.0
14981,66.0,10,15,8.0,0.0
14982,76.0,3,15,7.0,0.0
14983,57.0,1,30,4.0,0.0
14984,64.0,12,15,8.0,0.0
14985,57.0,5,30,3.0,0.0
14986,45.0,0,30,3.0,0.0
14987,78.0,3,15,7.0,0.0
14988,66.0,7,15,8.0,0.0
14989,76.0,4,15,7.0,0.0
14990,64.0,10,15,8.0,0.0
14991,78.0,5,15,7.0,0.0
14992,66.0,11,15,8.0,0.0
14993,76.0,4,15,7.0,0.0
14994,64.0,3,100,4.0,0.0
14995,64.0,10,15,8.0,0.0
14996,52.0,7,100,3.0,0.0
14997,64.0,0,100,3.0,0.0
14998,78.0,3,15,7.0,0.0
14999,66.0,12,15,8.0,0.0
15000,76.0,3,15,7.0,0.0
15001,64.0,11,15,8.0,0.0
15002,78.0,4,15,7.0,0.0
15003,66.0,11,15,8.0,0.0
15004,76.0,3,15,7.0,0.0
15005,64.0,11,15,8.0,0.0
15006,78.0,7,15,7.0,0.0
15007,66.0,8,15,8.0,0.0
15008,76.0,1,15,7.0,0.0
15009,64.0,4,15,8.0,0.0
15010,78.0,6,15,7.0,0.0
15011,66.0,9,15,8.0,0.0
15012,76.0,4,15,7.0,0.0
15013,64.0,13,15,8.0,0.0
15014,69.0,8,30,4.0,0.0
15015,57.0,0,30,3.0,0.0
15016,69.0,4,30,3.0,0.0
15017,78.0,2,15,7.0,0.0
15018,66.0,1,15,8.0,0.0
15019,76.0,2,15,7.0,0.0
15020,64.0,12,15,8.0,0.0
15021,78.0,5,15,7.0,0.0
15022,66.0,9,15,8.0,0.0
15023,79.0,1,15,7.0,0.0
15024,76.0,4,15,7.0,0.0
15025,57.0,1,30,4.0,0.0
15026,64.0,2,15,8.0,0.0
15027,67.0,10,15,8.0,0.0
15028,57.0,1,30,12.0,0.0
15029,45.0,7,30,13.0,0.0
15030,57.0,4,960,3.0,0.0
15031,45.0,0,960,3.0,0.0
15032,33.0,1,60,14.0,0.0
15033,78.0,1,15,7.0,0.0
15034,81.0,1,15,7.0,0.0
15035,69.0,1,15,8.0,0.0
15036,66.0,2,15,8.0,0.0
15037,76.0,2,15,7.0,0.0
15038,79.0,1,15,7.0,0.0
15039,64.0,0,15,8.0,0.0
15040,67.0,11,15,8.0,0.0
15041,78.0,3,15,7.0,0.0
15042,81.0,2,15,7.0,0.0
15043,69.0,1,15,8.0,0.0
15044,66.0,8,15,8.0,0.0
15045,79.0,2,15,7.0,0.0
15046,76.0,3,15,7.0,0.0
15047,64.0,10,15,8.0,0.0
15048,67.0,0,15,8.0,0.0
15049,64.0,5,100,4.0,0.0
15050,64.0,1,112,12.0,0.0
15051,52.0,1,112,13.0,0.0
15052,81.0,2,15,7.0,0.0
15053,78.0,4,15,7.0,0.0
15054,66.0,1,15,8.0,0.0
15055,69.0,8,15,8.0,0.0
15056,79.0,3,15,7.0,0.0
15057,76.0,1,15,7.0,0.0
15058,67.0,2,15,8.0,0.0
15059,64.0,10,15,8.0,0.0
15060,78.0,1,15,7.0,0.0
15061,81.0,4,15,7.0,0.0
15062,69.0,1,15,8.0,0.0
15063,66.0,9,15,8.0,0.0
15064,79.0,1,15,7.0,0.0
15065,76.0,4,15,7.0,0.0
15066,64.0,0,15,8.0,0.0
15067,67.0,11,15,8.0,0.0
15068,78.0,0,15,7.0,0.0
15069,81.0,2,15,7.0,0.0
15070,69.0,2,15,8.0,0.0
15071,66.0,9,15,8.0,0.0
15072,79.0,0,15,7.0,0.0
15073,76.0,0,15,7.0,0.0
15074,67.0,1,15,8.0,0.0
15075,64.0,9,15,8.0,0.0
15076,81.0,1,15,7.0,0.0
15077,78.0,3,15,7.0,0.0
15078,66.0,1,15,8.0,0.0
15079,69.0,9,15,8.0,0.0
15080,79.0,1,15,7.0,0.0
15081,76.0,4,15,7.0,0.0
15082,69.0,1,30,4.0,0.0
15083,67.0,1,15,8.0,0.0
15084,64.0,8,15,8.0,0.0
15085,69.0,1,30,12.0,0.0
15086,57.0,6,30,13.0,0.0
15087,81.0,3,15,7.0,0.0
15088,78.0,2,15,7.0,0.0
15089,69.0,2,15,8.0,0.0
15090,66.0,0,15,8.0,0.0
15091,76.0,3,15,7.0,0.0
15092,79.0,2,15,7.0,0.0
15093,67.0,2,15,8.0,0.0
15094,64.0,8,15,8.0,0.0
15095,81.0,0,15,7.0,0.0
15096,78.0,5,15,7.0,0.0
15097,66.0,1,15,8.0,0.0
15098,69.0,9,15,8.0,0.0
15099,79.0,3,15,7.0,0.0
15100,57.0,0,480,2.0,0.0
15101,64.0,2,480,2.0,0.0
15102,76.0,3,15,7.0,0.0
15103,69.0,1,30,6.0,0.0
15104,69.0,0,30,1.0,0.0
15105,57.0,1,30,4.0,0.0
15106,64.0,9,15,8.0,0.0
15107,67.0,0,15,8.0,0.0
15108,57.0,1,30,12.0,0.0
15109,45.0,6,30,13.0,0.0
15110,33.0,2,60,14.0,0.0
15111,81.0,2,15,7.0,0.0
15112,78.0,2,15,7.0,0.0
15113,69.0,0,15,8.0,0.0
15114,66.0,2,15,8.0,0.0
15115,76.0,2,15,7.0,0.0
15116,79.0,4,15,7.0,0.0
15117,64.0,1,15,8.0,0.0
15118,67.0,8,15,8.0,0.0
15119,81.0,1,15,7.0,0.0
15120,78.0,3,15,7.0,0.0
15121,69.0,1,15,8.0,0.0
15122,66.0,9,15,8.0,0.0
15123,79.0,2,15,7.0,0.0
15124,76.0,2,15,7.0,0.0
15125,76.0,4,112,6.0,0.0
15126,64.0,1,100,4.0,0.0
15127,64.0,1,15,8.0,0.0
15128,76.0,0,100,1.0,0.0
15129,67.0,11,15,8.0,0.0
15130,64.0,1,112,12.0,0.0
15131,52.0,0,112,13.0,0.0
15132,81.0,1,15,7.0,0.0
15133,78.0,2,15,7.0,0.0
15134,66.0,1,15,8.0,0.0
15135,69.0,9,15,8.0,0.0
15136,79.0,1,15,7.0,0.0
15137,76.0,3,15,7.0,0.0
15138,67.0,3,15,8.0,0.0
15139,64.0,8,15,8.0,0.0
15140,78.0,0,15,7.0,0.0
15141,81.0,5,15,7.0,0.0
15142,69.0,2,15,8.0,0.0
15143,66.0,10,15,8.0,0.0
15144,79.0,4,15,7.0,0.0
15145,76.0,0,15,7.0,0.0
15146,67.0,1,15,8.0,0.0
15147,64.0,9,15,8.0,0.0
15148,78.0,2,15,7.0,0.0
15149,81.0,3,15,7.0,0.0
15150,69.0,1,15,8.0,0.0
15151,66.0,8,15,8.0,0.0
15152,76.0,2,15,7.0,0.0
15153,79.0,2,15,7.0,0.0
15154,67.0,2,15,8.0,0.0
15155,64.0,4,15,8.0,0.0
15156,81.0,1,15,7.0,0.0
15157,78.0,3,15,7.0,0.0
15158,69.0,2,15,8.0,0.0
15159,66.0,8,15,8.0,0.0
15160,79.0,0,15,7.0,0.0
15161,76.0,4,15,7.0,0.0
15162,67.0,3,15,8.0,0.0
15163,81.0,1,30,6.0,0.0
15164,81.0,0,30,1.0,0.0
15165,69.0,3,30,4.0,0.0
15166,64.0,8,15,8.0,0.0
15167,69.0,1,30,12.0,0.0
15168,57.0,6,30,13.0,0.0
15169,78.0,2,15,7.0,0.0
15170,81.0,2,15,7.0,0.0
15171,66.0,0,15,8.0,0.0
15172,69.0,0,15,8.0,0.0
15173,76.0,2,15,7.0,0.0
15174,79.0,2,15,7.0,0.0
15175,64.0,2,15,8.0,0.0
15176,67.0,9,15,8.0,0.0
15177,78.0,3,15,7.0,0.0
15178,81.0,3,15,7.0,0.0
15179,69.0,9,15,8.0,0.0
15180,66.0,0,15,8.0,0.0
15181,79.0,1,15,7.0,0.0
15182,85.0,2,15,7.0,0.0
15183,76.0,1,15,7.0,0.0
15184,64.0,3,15,8.0,0.0
15185,76.0,2,55,6.0,0.0
15186,69.0,0,55,6.0,0.0
15187,69.0,0,240,1.0,0.0
15188,76.0,2,240,1.0,0.0
15189,73.0,1,15,8.0,0.0
15190,67.0,0,15,8.0,0.0
15191,57.0,1,15,12.0,0.0
15192,45.0,2,15,13.0,0.0
15193,33.0,1,60,14.0,0.0
15194,78.0,1,15,7.0,0.0
15195,45.0,5,10,15.0,0.0
15196,86.0,1,15,7.0,0.0
15197,81.0,2,15,7.0,0.0
15198,69.0,1,15,8.0,0.0
15199,74.0,1,15,8.0,0.0
15200,66.0,9,15,8.0,0.0
15201,85.0,0,15,7.0,0.0
15202,79.0,2,15,7.0,0.0
15203,76.0,0,15,7.0,0.0
15204,67.0,0,15,8.0,0.0
15205,64.0,1,15,8.0,0.0
15206,73.0,3,15,8.0,0.0
15207,64.0,0,15,4.0,0.0
15208,45.0,0,1,15.0,0.0
15209,64.0,1,15,12.0,0.0
15210,52.0,3,15,13.0,0.0
15211,78.0,1,15,7.0,0.0
15212,81.0,2,15,7.0,0.0
15213,86.0,0,15,7.0,0.0
15214,69.0,1,15,8.0,0.0
15215,66.0,0,15,8.0,0.0
15216,74.0,7,15,8.0,0.0
15217,45.0,2,2,15.0,0.0
15218,79.0,1,15,7.0,0.0
15219,85.0,1,15,7.0,0.0
15220,76.0,3,15,7.0,0.0
15221,69.0,0,55,6.0,0.0
15222,76.0,1,55,6.0,0.0
15223,67.0,1,15,8.0,0.0
15224,64.0,0,15,4.0,0.0
15225,73.0,2,15,8.0,0.0
15226,64.0,0,15,8.0,0.0
15227,64.0,1,15,12.0,0.0
15228,52.0,1,15,13.0,0.0
15229,45.0,0,2,15.0,0.0
15230,86.0,0,15,7.0,0.0
15231,81.0,2,15,7.0,0.0
15232,78.0,3,15,7.0,0.0
15233,66.0,0,15,8.0,0.0
15234,74.0,8,15,8.0,0.0
15235,69.0,0,15,8.0,0.0
15236,45.0,2,10,15.0,0.0
15237,76.0,3,15,7.0,0.0
15238,79.0,0,15,7.0,0.0
15239,85.0,2,15,7.0,0.0
15240,73.0,1,15,8.0,0.0
15241,69.0,0,15,4.0,0.0
15242,45.0,0,10,15.0,0.0
15243,64.0,1,15,8.0,0.0
15244,67.0,1,15,8.0,0.0
15245,69.0,1,15,12.0,0.0
15246,57.0,2,15,13.0,0.0
15247,81.0,2,15,7.0,0.0
15248,45.0,3,10,15.0,0.0
15249,78.0,0,15,7.0,0.0
15250,86.0,4,15,7.0,0.0
15251,66.0,0,15,8.0,0.0
15252,74.0,1,15,8.0,0.0
15253,69.0,0,15,8.0,0.0
15254,85.0,2,15,7.0,0.0
15255,79.0,0,15,7.0,0.0
15256,76.0,3,15,7.0,0.0
15257,76.0,0,55,6.0,0.0
15258,69.0,1,55,6.0,0.0
15259,57.0,1,15,4.0,0.0
15260,67.0,1,15,8.0,0.0
15261,45.0,8,0,15.0,0.0
15262,64.0,1,15,8.0,0.0
15263,73.0,0,15,8.0,0.0
15264,57.0,1,15,12.0,0.0
15265,45.0,3,15,13.0,0.0
15266,33.0,1,60,14.0,0.0
15267,86.0,1,15,7.0,0.0
15268,78.0,2,15,7.0,0.0
15269,45.0,0,0,15.0,0.0
15270,81.0,1,15,7.0,0.0
15271,69.0,0,15,8.0,0.0
15272,66.0,1,15,8.0,0.0
15273,74.0,2,15,8.0,0.0
15274,85.0,0,15,7.0,0.0
15275,76.0,2,15,7.0,0.0
15276,79.0,1,15,7.0,0.0
15277,67.0,1,15,8.0,0.0
15278,45.0,8,2,15.0,0.0
15279,64.0,1,15,4.0,0.0
15280,64.0,1,15,8.0,0.0
15281,73.0,1,15,8.0,0.0
15282,64.0,1,15,12.0,0.0
15283,52.0,2,15,13.0,0.0
15284,78.0,3,15,7.0,0.0
15285,81.0,0,15,7.0,0.0
15286,45.0,3,10,15.0,0.0
15287,86.0,2,15,7.0,0.0
15288,74.0,1,15,8.0,0.0
15289,69.0,0,15,8.0,0.0
15290,66.0,7,15,8.0,0.0
15291,45.0,1,10,15.0,0.0
15292,85.0,0,15,7.0,0.0
15293,76.0,2,15,7.0,0.0
15294,79.0,1,15,7.0,0.0
15295,73.0,1,15,8.0,0.0
15296,76.0,0,55,6.0,0.0
15297,69.0,1,55,6.0,0.0
15298,64.0,2,15,8.0,0.0
15299,64.0,0,15,4.0,0.0
15300,67.0,1,15,8.0,0.0
15301,64.0,1,15,12.0,0.0
15302,52.0,2,15,13.0,0.0
15303,81.0,0,15,7.0,0.0
15304,78.0,3,15,7.0,0.0
15305,45.0,1,1,15.0,0.0
15306,86.0,1,15,7.0,0.0
15307,69.0,1,15,8.0,0.0
15308,74.0,0,15,8.0,0.0
15309,66.0,8,15,8.0,0.0
15310,45.0,4,1,15.0,0.0
15311,79.0,0,15,7.0,0.0
15312,76.0,0,15,7.0,0.0
15313,85.0,4,15,7.0,0.0
15314,69.0,2,15,4.0,0.0
15315,45.0,2,0,15.0,0.0
15316,73.0,0,15,8.0,0.0
15317,67.0,1,15,8.0,0.0
15318,64.0,0,15,8.0,0.0
15319,69.0,1,15,12.0,0.0
15320,57.0,3,15,13.0,0.0
15321,81.0,1,15,7.0,0.0
15322,78.0,0,15,7.0,0.0
15323,86.0,1,15,7.0,0.0
15324,69.0,1,15,8.0,0.0
15325,66.0,8,15,8.0,0.0
15326,74.0,0,15,8.0,0.0
15327,45.0,2,2,15.0,0.0
15328,76.0,1,15,7.0,0.0
15329,73.0,0,240,2.0,0.0
15330,67.0,0,240,2.0,0.0
15331,57.0,1,15,10.0,0.0
15332,85.0,0,240,0.0,0.0
15333,79.0,1,15,7.0,0.0
15334,81.0,3,240,0.0,0.0
15335,85.0,1,15,7.0,0.0
15336,57.0,0,15,11.0,0.0
15337,57.0,0,55,6.0,0.0
15338,69.0,1,55,6.0,0.0
15339,73.0,1,15,8.0,0.0
15340,67.0,0,15,8.0,0.0
15341,57.0,0,15,4.0,0.0
15342,79.0,0,240,1.0,0.0
15343,45.0,2,240,4.0,0.0
15344,64.0,3,15,8.0,0.0
15345,76.0,0,240,1.0,0.0
15346,45.0,0,10,15.0,0.0
15347,57.0,1,15,12.0,0.0
15348,45.0,2,15,13.0,0.0
15349,33.0,1,15,14.0,0.0
15350,78.0,2,15,7.0,0.0
15351,45.0,3,10,15.0,0.0
15352,86.0,1,15,7.0,0.0
15353,81.0,3,15,7.0,0.0
15354,69.0,1,15,8.0,0.0
15355,74.0,0,15,8.0,0.0
15356,66.0,0,15,8.0,0.0
15357,76.0,1,15,7.0,0.0
15358,64.0,0,15,10.0,0.0
15359,85.0,1,15,7.0,0.0
15360,64.0,0,15,11.0,0.0
15361,79.0,1,15,7.0,0.0
15362,73.0,1,15,8.0,0.0
15363,64.0,2,15,4.0,0.0
15364,45.0,9,1,15.0,0.0
15365,67.0,1,15,8.0,0.0
15366,64.0,0,15,8.0,0.0
15367,64.0,1,15,12.0,0.0
15368,52.0,3,15,13.0,0.0
15369,40.0,0,15,14.0,0.0
15370,86.0,1,15,7.0,0.0
15371,81.0,2,15,7.0,0.0
15372,78.0,2,15,7.0,0.0
15373,69.0,1,15,8.0,0.0
15374,66.0,1,15,8.0,0.0
15375,74.0,8,15,8.0,0.0
15376,45.0,2,0,15.0,0.0
15377,85.0,1,15,7.0,0.0
15378,64.0,1,15,10.0,0.0
15379,76.0,1,15,7.0,0.0
15380,79.0,0,15,7.0,0.0
15381,64.0,1,15,11.0,0.0
15382,57.0,0,55,6.0,0.0
15383,67.0,1,15,8.0,0.0
15384,69.0,1,55,6.0,0.0
15385,64.0,1,15,4.0,0.0
15386,73.0,0,15,8.0,0.0
15387,45.0,0,1,15.0,0.0
15388,64.0,2,15,8.0,0.0
15389,64.0,1,15,12.0,0.0
15390,52.0,3,15,13.0,0.0
15391,40.0,2,15,14.0,0.0
15392,81.0,0,15,7.0,0.0
15393,86.0,1,15,7.0,0.0
15394,78.0,2,15,7.0,0.0
15395,74.0,1,15,8.0,0.0
15396,69.0,0,15,8.0,0.0
15397,66.0,9,15,8.0,0.0
15398,45.0,2,2,15.0,0.0
15399,69.0,1,15,10.0,0.0
15400,85.0,0,15,7.0,0.0
15401,76.0,1,15,7.0,0.0
15402,69.0,1,15,11.0,0.0
15403,79.0,0,15,7.0,0.0
15404,67.0,0,15,8.0,0.0
15405,64.0,1,15,8.0,0.0
15406,73.0,0,15,8.0,0.0
15407,69.0,3,15,4.0,0.0
15408,69.0,1,15,12.0,0.0
15409,57.0,2,15,13.0,0.0
15410,45.0,0,15,14.0,0.0
15411,78.0,2,15,7.0,0.0
15412,45.0,0,1,15.0,0.0
15413,86.0,0,15,7.0,0.0
15414,81.0,2,15,7.0,0.0
15415,66.0,2,15,8.0,0.0
15416,69.0,1,15,8.0,0.0
15417,74.0,8,15,8.0,0.0
15418,45.0,3,0,15.0,0.0
15419,79.0,1,15,7.0,0.0
15420,76.0,1,15,7.0,0.0
15421,69.0,0,15,10.0,0.0
15422,57.0,0,15,11.0,0.0
15423,85.0,2,15,7.0,0.0
15424,69.0,0,55,6.0,0.0
15425,57.0,1,55,6.0,0.0
15426,57.0,1,15,4.0,0.0
15427,73.0,1,15,8.0,0.0
15428,67.0,1,15,8.0,0.0
15429,45.0,1,10,15.0,0.0
15430,64.0,0,15,8.0,0.0
15431,57.0,1,15,12.0,0.0
15432,45.0,3,15,13.0,0.0
15433,33.0,2,15,14.0,0.0
15434,78.0,1,15,7.0,0.0
15435,81.0,1,15,7.0,0.0
15436,86.0,1,15,7.0,0.0
15437,69.0,2,15,8.0,0.0
15438,66.0,1,15,8.0,0.0
15439,74.0,9,15,8.0,0.0
15440,45.0,2,0,15.0,0.0
15441,76.0,0,15,10.0,0.0
15442,85.0,0,15,7.0,0.0
15443,79.0,1,15,7.0,0.0
15444,76.0,0,15,7.0,0.0
15445,64.0,1,15,11.0,0.0
15446,67.0,1,15,8.0,0.0
15447,64.0,0,15,4.0,0.0
15448,73.0,3,15,8.0,0.0
15449,64.0,0,15,8.0,0.0
15450,64.0,1,15,12.0,0.0
15451,52.0,2,15,13.0,0.0
15452,40.0,0,15,14.0,0.0
15453,78.0,2,15,7.0,0.0
15454,45.0,1,1,15.0,0.0
15455,86.0,0,15,7.0,0.0
15456,81.0,2,15,7.0,0.0
15457,74.0,0,15,8.0,0.0
15458,69.0,1,15,8.0,0.0
15459,66.0,10,15,8.0,0.0
15460,45.0,3,1,15.0,0.0
15461,85.0,1,15,7.0,0.0
15462,79.0,0,15,7.0,0.0
15463,76.0,2,15,10.0,0.0
15464,76.0,0,15,7.0,0.0
15465,64.0,1,15,11.0,0.0
15466,73.0,1,15,8.0,0.0
15467,69.0,0,55,6.0,0.0
15468,57.0,0,55,6.0,0.0
15469,45.0,0,10,15.0,0.0
15470,64.0,1,15,4.0,0.0
15471,67.0,1,15,8.0,0.0
15472,64.0,1,15,8.0,0.0
15473,64.0,1,15,12.0,0.0
15474,52.0,3,15,13.0,0.0
15475,40.0,6,15,14.0,0.0
15476,78.0,0,20,7.0,0.0
15477,74.0,0,20,7.0,0.0
15478,83.0,3,20,7.0,0.0
15479,71.0,2,20,8.0,0.0
15480,62.0,0,20,8.0,0.0
15481,66.0,4,20,8.0,0.0
15482,45.0,2,2,15.0,0.0
15483,81.0,1,15,10.0,0.0
15484,69.0,2,15,11.0,0.0
15485,79.0,1,20,7.0,0.0
15486,76.0,0,20,7.0,0.0
15487,85.0,1,20,7.0,0.0
15488,69.0,3,15,4.0,0.0
15489,69.0,1,15,12.0,0.0
15490,57.0,0,15,13.0,0.0
15491,67.0,1,20,8.0,0.0
15492,73.0,1,20,8.0,0.0
15493,64.0,0,20,8.0,0.0
15494,45.0,1,15,14.0,0.0
15495,45.0,1,1,15.0,0.0
15496,45.0,6,10,15.0,0.0
15497,74.0,2,30,10.0,0.0
15498,86.0,0,60,7.0,0.0
15499,74.0,1,60,2.0,0.0
15500,78.0,0,60,7.0,0.0
15501,66.0,0,60,2.0,0.0
15502,86.0,2,60,0.0,0.0
15503,62.0,5,30,11.0,0.0
15504,62.0,1,60,6.0,0.0
15505,74.0,0,60,8.0,0.0
15506,66.0,8,60,8.0,0.0
15507,62.0,0,60,8.0,0.0
15508,74.0,0,60,1.0,0.0
15509,62.0,0,60,4.0,0.0
15510,69.0,0,60,8.0,0.0
15511,50.0,0,60,4.0,0.0
15512,78.0,0,60,1.0,0.0
15513,45.0,14,10,15.0,0.0
15514,62.0,1,30,12.0,0.0
15515,50.0,5,30,13.0,0.0
15516,50.0,2,60,3.0,0.0
15517,38.0,17,30,14.0,0.0
15518,50.0,1,60,15.0,0.0
15519,50.0,2,15,10.0,0.0
15520,50.0,5,15,11.0,0.0
15521,50.0,1,15,12.0,0.0
15522,50.0,4,15,13.0,0.0
15523,45.0,1,15,3.0,0.0
15524,38.0,3,15,14.0,0.0
15525,45.0,14,15,15.0,0.0
15526,54.0,2,15,10.0,0.0
15527,54.0,5,15,11.0,0.0
15528,54.0,1,15,12.0,0.0
15529,54.0,4,15,13.0,0.0
15530,50.0,1,15,3.0,0.0
15531,42.0,1,15,14.0,0.0
15532,50.0,16,15,15.0,0.0
15533,57.0,2,15,10.0,0.0
15534,57.0,5,15,11.0,0.0
15535,57.0,1,15,12.0,0.0
15536,57.0,4,15,13.0,0.0
15537,52.0,1,15,3.0,0.0
15538,45.0,1,15,14.0,0.0
15539,45.0,16,15,15.0,0.0
15540,62.0,2,15,10.0,0.0
15541,62.0,5,15,11.0,0.0
15542,62.0,1,15,12.0,0.0
15543,62.0,4,15,13.0,0.0
15544,54.0,1,15,3.0,0.0
15545,50.0,1,15,14.0,0.0
15546,50.0,14,15,15.0,0.0
15547,69.0,2,15,7.0,0.0
15548,62.0,4,15,7.0,0.0
15549,50.0,12,15,8.0,0.0
15550,57.0,0,15,8.0,0.0
15551,45.0,12,15,15.0,0.0
15552,74.0,2,15,7.0,0.0
15553,66.0,4,15,7.0,0.0
15554,62.0,12,15,8.0,0.0
15555,54.0,0,15,8.0,0.0
15556,50.0,12,15,15.0,0.0
15557,76.0,2,15,7.0,0.0
15558,69.0,4,15,7.0,0.0
15559,57.0,12,15,8.0,0.0
15560,64.0,0,15,8.0,0.0
15561,45.0,12,15,15.0,0.0
15562,78.0,2,15,7.0,0.0
15563,74.0,4,15,7.0,0.0
15564,66.0,10,15,8.0,0.0
15565,62.0,0,15,8.0,0.0
15566,50.0,14,15,15.0,0.0
15567,81.0,2,15,7.0,0.0
15568,76.0,4,15,7.0,0.0
15569,69.0,0,15,8.0,0.0
15570,64.0,10,15,8.0,0.0
15571,45.0,14,15,15.0,0.0
15572,86.0,2,15,7.0,0.0
15573,78.0,4,15,7.0,0.0
15574,74.0,0,15,8.0,0.0
15575,66.0,12,15,8.0,0.0
15576,50.0,12,15,15.0,0.0
15577,88.0,2,15,7.0,0.0
15578,81.0,4,15,7.0,0.0
15579,76.0,12,15,8.0,0.0
15580,69.0,0,15,8.0,0.0
15581,45.0,12,15,15.0,0.0
15582,90.0,2,15,7.0,0.0
15583,86.0,4,15,7.0,0.0
15584,74.0,10,15,8.0,0.0
15585,78.0,0,15,8.0,0.0
15586,50.0,29,15,15.0,0.0
15587,93.0,2,30,7.0,0.0
15588,64.0,0,45,2.0,0.0
15589,85.0,0,30,7.0,0.0
15590,88.0,0,30,7.0,0.0
15591,73.0,1,45,2.0,0.0
15592,81.0,4,30,7.0,0.0
15593,85.0,0,45,0.0,0.0
15594,76.0,3,45,0.0,0.0
15595,57.0,0,30,8.0,0.0
15596,61.0,0,30,8.0,0.0
15597,69.0,4,30,8.0,0.0
15598,64.0,0,30,8.0,0.0
15599,69.0,0,45,4.0,0.0
15600,57.0,0,45,4.0,0.0
15601,73.0,0,45,1.0,0.0
15602,81.0,8,45,1.0,0.0
15603,57.0,5,30,13.0,0.0
15604,45.0,17,45,3.0,0.0
15605,57.0,0,45,3.0,0.0
15606,45.0,2,30,14.0,0.0
15607,45.0,14,60,15.0,0.0
15608,90.0,2,30,7.0,0.0
15609,86.0,0,30,7.0,0.0
15610,66.0,1,45,2.0,0.0
15611,74.0,0,45,2.0,0.0
15612,78.0,4,30,7.0,0.0
15613,86.0,3,45,0.0,0.0
15614,78.0,0,45,0.0,0.0
15615,74.0,0,45,1.0,0.0
15616,78.0,8,45,1.0,0.0
15617,62.0,0,45,4.0,0.0
15618,66.0,0,45,4.0,0.0
15619,62.0,0,30,8.0,0.0
15620,66.0,4,30,8.0,0.0
15621,74.0,0,30,8.0,0.0
15622,69.0,0,30,8.0,0.0
15623,62.0,5,30,13.0,0.0
15624,50.0,18,45,3.0,0.0
15625,50.0,2,30,14.0,0.0
15626,50.0,0,30,15.0,0.0
15627,50.0,2,15,10.0,0.0
15628,50.0,5,15,11.0,0.0
15629,50.0,1,15,12.0,0.0
15630,50.0,4,15,13.0,0.0
15631,45.0,1,15,3.0,0.0
15632,38.0,3,15,14.0,0.0
15633,45.0,14,15,15.0,0.0
15634,54.0,2,15,10.0,0.0
15635,54.0,5,15,11.0,0.0
15636,54.0,1,15,12.0,0.0
15637,54.0,4,15,13.0,0.0
15638,50.0,1,15,3.0,0.0
15639,42.0,2,15,14.0,0.0
15640,50.0,15,15,15.0,0.0
15641,57.0,2,15,10.0,0.0
15642,57.0,5,15,11.0,0.0
15643,57.0,1,15,12.0,0.0
15644,57.0,4,15,13.0,0.0
15645,52.0,1,15,3.0,0.0
15646,45.0,2,15,14.0,0.0
15647,45.0,15,15,15.0,0.0
15648,62.0,2,15,10.0,0.0
15649,62.0,5,15,11.0,0.0
15650,62.0,1,15,12.0,0.0
15651,62.0,4,15,13.0,0.0
15652,54.0,1,15,3.0,0.0
15653,50.0,3,15,14.0,0.0
15654,50.0,12,15,15.0,0.0
15655,69.0,2,15,7.0,0.0
15656,62.0,4,15,7.0,0.0
15657,57.0,0,15,8.0,0.0
15658,50.0,12,15,8.0,0.0
15659,45.0,12,15,15.0,0.0
15660,74.0,2,15,7.0,0.0
15661,66.0,4,15,7.0,0.0
15662,62.0,10,15,8.0,0.0
15663,54.0,0,15,8.0,0.0
15664,50.0,14,15,15.0,0.0
15665,76.0,2,15,7.0,0.0
15666,69.0,4,15,7.0,0.0
15667,57.0,0,15,8.0,0.0
15668,64.0,10,15,8.0,0.0
15669,45.0,14,15,15.0,0.0
15670,78.0,2,15,7.0,0.0
15671,74.0,4,15,7.0,0.0
15672,62.0,12,15,8.0,0.0
15673,66.0,0,15,8.0,0.0
15674,50.0,12,15,15.0,0.0
15675,81.0,2,15,7.0,0.0
15676,76.0,4,15,7.0,0.0
15677,69.0,12,15,8.0,0.0
15678,64.0,0,15,8.0,0.0
15679,45.0,12,15,15.0,0.0
15680,86.0,2,15,7.0,0.0
15681,78.0,4,15,7.0,0.0
15682,66.0,11,15,8.0,0.0
15683,74.0,0,15,8.0,0.0
15684,50.0,13,15,15.0,0.0
15685,88.0,2,15,7.0,0.0
15686,81.0,4,15,7.0,0.0
15687,69.0,12,15,8.0,0.0
15688,76.0,0,15,8.0,0.0
15689,45.0,12,15,15.0,0.0
15690,90.0,2,15,7.0,0.0
15691,86.0,4,15,7.0,0.0
15692,74.0,0,15,8.0,0.0
15693,78.0,10,15,8.0,0.0
15694,50.0,29,15,15.0,0.0
15695,93.0,2,30,7.0,0.0
15696,81.0,4,30,7.0,0.0
15697,85.0,0,30,7.0,0.0
15698,88.0,0,30,7.0,0.0
15699,64.0,1,45,2.0,0.0
15700,73.0,0,45,2.0,0.0
15701,85.0,3,45,0.0,0.0
15702,76.0,0,45,0.0,0.0
15703,69.0,1,45,4.0,0.0
15704,81.0,0,45,1.0,0.0
15705,73.0,0,45,1.0,0.0
15706,57.0,11,30,8.0,0.0
15707,64.0,0,30,8.0,0.0
15708,57.0,0,45,4.0,0.0
15709,61.0,0,30,8.0,0.0
15710,69.0,0,30,8.0,0.0
15711,45.0,5,42,13.0,0.0
15712,57.0,0,45,3.0,0.0
15713,45.0,31,45,3.0,0.0
15714,33.0,2,42,14.0,0.0
15715,45.0,0,30,15.0,0.0
15716,90.0,2,30,7.0,0.0
15717,86.0,4,30,7.0,0.0
15718,66.0,0,45,2.0,0.0
15719,78.0,0,30,7.0,0.0
15720,74.0,1,45,2.0,0.0
15721,86.0,0,45,0.0,0.0
15722,78.0,3,45,0.0,0.0
15723,62.0,0,45,4.0,0.0
15724,78.0,0,45,1.0,0.0
15725,66.0,0,30,8.0,0.0
15726,74.0,0,45,1.0,0.0
15727,74.0,0,30,8.0,0.0
15728,62.0,11,30,8.0,0.0
15729,66.0,1,45,4.0,0.0
15730,69.0,0,30,8.0,0.0
15731,50.0,5,42,13.0,0.0
15732,62.0,0,45,3.0,0.0
15733,50.0,35,45,3.0,0.0
15734,38.0,2,42,14.0,0.0
15735,50.0,0,30,15.0,0.0
15736,69.0,1,45,2.0,0.0
15737,73.0,0,45,2.0,0.0
15738,69.0,2,37,10.0,0.0
15739,81.0,0,37,10.0,0.0
15740,81.0,3,45,0.0,0.0
15741,73.0,0,37,11.0,0.0
15742,64.0,5,37,11.0,0.0
15743,57.0,0,45,4.0,0.0
15744,64.0,0,45,1.0,0.0
15745,73.0,1,45,1.0,0.0
15746,69.0,5,25,12.0,0.0
15747,57.0,0,25,12.0,0.0
15748,57.0,5,42,13.0,0.0
15749,57.0,5,45,3.0,0.0
15750,45.0,0,45,3.0,0.0
15751,45.0,2,42,14.0,0.0
15752,45.0,1,30,15.0,0.0
15753,57.0,0,25,12.0,0.0
15754,69.0,30,25,12.0,0.0
15755,69.0,0,37,10.0,0.0
15756,74.0,0,45,2.0,0.0
15757,69.0,1,45,2.0,0.0
15758,78.0,2,37,10.0,0.0
15759,78.0,3,45,0.0,0.0
15760,74.0,0,37,11.0,0.0
15761,66.0,6,37,11.0,0.0
15762,74.0,0,45,1.0,0.0
15763,62.0,0,45,4.0,0.0
15764,50.0,1,45,4.0,0.0
15765,66.0,0,45,1.0,0.0
15766,50.0,4,45,5.0,0.0
15767,69.0,5,25,12.0,0.0
15768,57.0,0,25,12.0,0.0
15769,62.0,1,42,13.0,0.0
15770,50.0,5,45,3.0,0.0
15771,57.0,0,45,3.0,0.0
15772,50.0,2,42,14.0,0.0
15773,50.0,0,30,15.0,0.0
15774,69.0,0,25,12.0,0.0
15775,57.0,30,25,12.0,0.0
15776,69.0,0,37,10.0,0.0
15777,81.0,2,37,10.0,0.0
15778,69.0,0,45,2.0,0.0
15779,73.0,1,45,2.0,0.0
15780,81.0,3,45,0.0,0.0
15781,64.0,0,37,11.0,0.0
15782,73.0,5,37,11.0,0.0
15783,64.0,0,45,1.0,0.0
15784,73.0,1,45,1.0,0.0
15785,57.0,0,45,4.0,0.0
15786,69.0,0,25,12.0,0.0
15787,57.0,5,25,12.0,0.0
15788,57.0,5,42,13.0,0.0
15789,45.0,0,45,3.0,0.0
15790,57.0,5,45,3.0,0.0
15791,45.0,2,42,14.0,0.0
15792,45.0,1,30,15.0,0.0
15793,69.0,0,25,12.0,0.0
15794,57.0,30,25,12.0,0.0
15795,69.0,0,45,2.0,0.0
15796,69.0,2,37,10.0,0.0
15797,74.0,1,45,2.0,0.0
15798,78.0,0,37,10.0,0.0
15799,78.0,3,45,0.0,0.0
15800,66.0,5,37,11.0,0.0
15801,74.0,0,37,11.0,0.0
15802,50.0,1,45,4.0,0.0
15803,66.0,0,45,1.0,0.0
15804,74.0,0,45,1.0,0.0
15805,62.0,0,45,4.0,0.0
15806,50.0,4,45,5.0,0.0
15807,57.0,5,25,12.0,0.0
15808,69.0,0,25,12.0,0.0
15809,62.0,1,42,13.0,0.0
15810,50.0,0,45,3.0,0.0
15811,57.0,5,45,3.0,0.0
15812,50.0,2,42,14.0,0.0
15813,50.0,1,30,15.0,0.0
15814,57.0,0,25,12.0,0.0
15815,69.0,30,25,12.0,0.0
15816,69.0,2,37,10.0,0.0
15817,73.0,0,45,2.0,0.0
15818,69.0,1,45,2.0,0.0
15819,81.0,0,37,10.0,0.0
15820,81.0,3,45,0.0,0.0
15821,64.0,6,37,11.0,0.0
15822,73.0,0,37,11.0,0.0
15823,69.0,29,60,6.0,0.0
15824,64.0,0,45,1.0,0.0
15825,73.0,1,45,1.0,0.0
15826,57.0,0,45,4.0,0.0
15827,69.0,5,25,12.0,0.0
15828,57.0,0,25,12.0,0.0
15829,57.0,5,42,13.0,0.0
15830,45.0,5,45,3.0,0.0
15831,57.0,0,45,3.0,0.0
15832,45.0,2,42,14.0,0.0
15833,45.0,0,30,15.0,0.0
15834,57.0,1,25,12.0,0.0
15835,69.0,0,25,12.0,0.0
15836,86.0,2,37,10.0,0.0
15837,69.0,0,37,10.0,0.0
15838,69.0,1,45,2.0,0.0
15839,74.0,0,45,2.0,0.0
15840,86.0,0,45,0.0,0.0
15841,66.0,0,37,11.0,0.0
15842,74.0,6,37,11.0,0.0
15843,74.0,29,60,6.0,0.0
15844,66.0,0,60,6.0,0.0
15845,50.0,0,45,4.0,0.0
15846,66.0,1,45,1.0,0.0
15847,74.0,0,45,1.0,0.0
15848,62.0,0,45,4.0,0.0
15849,50.0,4,45,5.0,0.0
15850,57.0,0,25,12.0,0.0
15851,69.0,5,25,12.0,0.0
15852,62.0,1,42,13.0,0.0
15853,50.0,5,45,3.0,0.0
15854,57.0,0,45,3.0,0.0
15855,50.0,2,42,14.0,0.0
15856,50.0,3,30,15.0,0.0
15857,69.0,1,25,12.0,0.0
15858,57.0,0,25,12.0,0.0
15859,73.0,0,45,2.0,0.0
15860,69.0,1,45,2.0,0.0
15861,69.0,2,37,10.0,0.0
15862,88.0,0,37,10.0,0.0
15863,88.0,3,45,0.0,0.0
15864,73.0,0,37,11.0,0.0
15865,76.0,5,37,11.0,0.0
15866,76.0,0,60,6.0,0.0
15867,69.0,42,60,6.0,0.0
15868,57.0,0,45,4.0,0.0
15869,73.0,0,45,1.0,0.0
15870,76.0,0,45,1.0,0.0
15871,64.0,1,45,4.0,0.0
15872,69.0,0,25,12.0,0.0
15873,57.0,5,25,12.0,0.0
15874,57.0,5,42,13.0,0.0
15875,57.0,0,45,3.0,0.0
15876,45.0,5,45,3.0,0.0
15877,45.0,2,42,14.0,0.0
15878,45.0,1,30,15.0,0.0
15879,57.0,1,25,12.0,0.0
15880,69.0,0,25,12.0,0.0
15881,90.0,2,60,10.0,0.0
15882,69.0,0,60,10.0,0.0
15883,69.0,0,45,2.0,0.0
15884,74.0,1,45,2.0,0.0
15885,90.0,3,45,0.0,0.0
15886,74.0,1,60,11.0,0.0
15887,78.0,0,60,11.0,0.0
15888,74.0,4,60,6.0,0.0
15889,78.0,0,60,6.0,0.0
15890,74.0,0,45,1.0,0.0
15891,78.0,0,45,1.0,0.0
15892,62.0,0,45,4.0,0.0
15893,66.0,2,45,4.0,0.0
15894,50.0,6,45,5.0,0.0
15895,69.0,1,60,12.0,0.0
15896,57.0,0,60,12.0,0.0
15897,50.0,5,60,13.0,0.0
15898,50.0,0,45,3.0,0.0
15899,57.0,3,45,3.0,0.0
15900,38.0,3,60,14.0,0.0
15901,50.0,89,60,15.0,0.0
15902,73.0,0,45,2.0,0.0
15903,69.0,1,45,2.0,0.0
15904,69.0,0,60,10.0,0.0
15905,93.0,2,60,10.0,0.0
15906,93.0,3,45,0.0,0.0
15907,81.0,0,60,11.0,0.0
15908,73.0,1,60,11.0,0.0
15909,69.0,0,60,6.0,0.0
15910,81.0,4,60,6.0,0.0
15911,81.0,0,45,1.0,0.0
15912,73.0,8,45,1.0,0.0
15913,64.0,0,45,4.0,0.0
15914,57.0,0,45,4.0,0.0
15915,69.0,1,60,12.0,0.0
15916,57.0,0,60,12.0,0.0
15917,64.0,0,60,12.0,0.0
15918,45.0,5,60,13.0,0.0
15919,57.0,0,45,3.0,0.0
15920,45.0,3,45,3.0,0.0
15921,33.0,2,60,14.0,0.0
15922,45.0,90,60,15.0,0.0
15923,90.0,2,60,10.0,0.0
15924,69.0,1,45,2.0,0.0
15925,74.0,0,45,2.0,0.0
15926,69.0,0,60,10.0,0.0
15927,90.0,3,45,0.0,0.0
15928,74.0,0,60,11.0,0.0
15929,78.0,1,60,11.0,0.0
15930,74.0,0,60,6.0,0.0
15931,78.0,4,60,6.0,0.0
15932,74.0,0,45,1.0,0.0
15933,62.0,0,45,4.0,0.0
15934,66.0,2,45,4.0,0.0
15935,78.0,0,45,1.0,0.0
15936,50.0,6,45,5.0,0.0
15937,69.0,0,60,12.0,0.0
15938,62.0,1,60,12.0,0.0
15939,50.0,5,60,13.0,0.0
15940,50.0,3,45,3.0,0.0
15941,57.0,0,45,3.0,0.0
15942,38.0,3,60,14.0,0.0
15943,50.0,89,60,15.0,0.0
15944,73.0,1,45,2.0,0.0
15945,69.0,0,45,2.0,0.0
15946,93.0,0,60,10.0,0.0
15947,69.0,2,60,10.0,0.0
15948,93.0,3,45,0.0,0.0
15949,81.0,1,60,11.0,0.0
15950,73.0,0,60,11.0,0.0
15951,69.0,4,60,6.0,0.0
15952,81.0,0,60,6.0,0.0
15953,73.0,8,45,1.0,0.0
15954,81.0,0,45,1.0,0.0
15955,64.0,0,45,4.0,0.0
15956,57.0,0,45,4.0,0.0
15957,57.0,1,60,12.0,0.0
15958,69.0,0,60,12.0,0.0
15959,64.0,0,60,12.0,0.0
15960,45.0,5,60,13.0,0.0
15961,57.0,3,45,3.0,0.0
15962,45.0,0,45,3.0,0.0
15963,33.0,2,60,14.0,0.0
15964,45.0,55,60,15.0,0.0
15965,74.0,0,240,2.0,0.0
15966,74.0,1,240,10.0,0.0
15967,86.0,0,240,10.0,0.0
15968,69.0,0,240,2.0,0.0
15969,86.0,0,240,0.0,0.0
15970,78.0,1,240,11.0,0.0
15971,74.0,0,240,11.0,0.0
15972,66.0,1,240,6.0,0.0
15973,74.0,0,240,6.0,0.0
15974,50.0,0,240,4.0,0.0
15975,62.0,0,240,4.0,0.0
15976,74.0,0,240,1.0,0.0
15977,78.0,2,240,1.0,0.0
15978,50.0,5,5,15.0,0.0
15979,50.0,1,240,5.0,0.0
15980,62.0,0,240,5.0,0.0
15981,69.0,1,240,12.0,0.0
15982,62.0,0,240,12.0,0.0
15983,50.0,4,240,13.0,0.0
15984,50.0,5,5,15.0,0.0
15985,50.0,0,240,3.0,0.0
15986,38.0,1,240,3.0,0.0
15987,38.0,242,240,14.0,0.0
15988,50.0,6,5,15.0,0.0
15989,50.0,4,1,15.0,0.0
15990,50.0,4,1,15.0,0.0
15991,50.0,4,1,15.0,0.0
15992,50.0,5,0,15.0,0.0
15993,50.0,4,1,15.0,0.0
15994,50.0,6,5,15.0,0.0
15995,50.0,5,5,15.0,0.0
15996,50.0,4,1,15.0,0.0
15997,50.0,5,5,15.0,0.0
15998,50.0,6,5,15.0,0.0
15999,50.0,5,0,15.0,0.0
16000,50.0,5,0,15.0,0.0
16001,50.0,5,5,15.0,0.0
16002,50.0,4,1,15.0,0.0
16003,50.0,5,5,15.0,0.0
16004,50.0,5,0,15.0,0.0
16005,50.0,4,1,15.0,0.0
16006,50.0,4,1,15.0,0.0
16007,50.0,4,1,15.0,0.0
16008,50.0,5,0,15.0,0.0
16009,50.0,5,5,15.0,0.0
16010,50.0,4,1,15.0,0.0
16011,50.0,4,1,15.0,0.0
16012,50.0,5,0,15.0,0.0
16013,50.0,5,0,15.0,0.0
16014,50.0,5,0,15.0,0.0
16015,50.0,4,1,15.0,0.0
16016,50.0,5,0,15.0,0.0
16017,50.0,1,5,15.0,0.0
