,note,step,duration,channel,velocity
0,64.0,6,120,2.0,0.0
1,72.0,0,120,2.0,0.0
2,55.0,54,120,3.0,0.0
3,48.0,114,360,3.0,0.0
4,65.0,6,120,2.0,0.0
5,74.0,6,60,2.0,0.0
6,59.0,54,60,3.0,0.0
7,71.0,0,60,2.0,0.0
8,62.0,109,60,3.0,0.0
9,72.0,1,120,2.0,0.0
10,64.0,5,120,2.0,0.0
11,55.0,0,120,3.0,0.0
12,67.0,5,120,2.0,0.0
13,64.0,6,120,2.0,0.0
14,48.0,114,120,3.0,0.0
15,60.0,0,120,3.0,0.0
16,69.0,0,120,2.0,0.0
17,65.0,6,120,2.0,0.0
18,60.0,114,120,3.0,0.0
19,53.0,0,120,3.0,0.0
20,67.0,6,120,2.0,0.0
21,64.0,0,120,2.0,0.0
22,60.0,114,120,3.0,0.0
23,48.0,0,120,3.0,0.0
24,69.0,6,120,2.0,0.0
25,65.0,0,120,2.0,0.0
26,60.0,54,120,3.0,0.0
27,53.0,0,120,3.0,0.0
28,55.0,2,120,4.0,0.0
29,62.0,3,120,2.0,0.0
30,55.0,1,120,5.0,0.0
31,67.0,55,60,2.0,0.0
32,59.0,84,120,3.0,0.0
33,55.0,0,120,3.0,0.0
34,65.0,0,60,2.0,0.0
35,60.0,2,240,4.0,0.0
36,64.0,35,90,2.0,0.0
37,52.0,0,240,5.0,0.0
38,60.0,0,240,2.0,0.0
39,48.0,79,120,3.0,0.0
40,55.0,0,240,3.0,0.0
41,64.0,6,30,2.0,0.0
42,67.0,0,120,0.0,0.0
43,64.0,3,120,0.0,0.0
44,67.0,30,90,2.0,0.0
45,40.0,120,120,3.0,0.0
46,67.0,6,30,2.0,0.0
47,71.0,3,240,0.0,0.0
48,65.0,0,240,0.0,0.0
49,62.0,2,240,4.0,0.0
50,59.0,0,240,2.0,0.0
51,55.0,6,240,5.0,0.0
52,74.0,0,240,2.0,0.0
53,53.0,0,240,3.0,0.0
54,43.0,109,120,3.0,0.0
55,55.0,109,120,3.0,0.0
56,64.0,0,120,0.0,0.0
57,72.0,3,120,0.0,0.0
58,64.0,1,120,4.0,0.0
59,52.0,1,120,12.0,0.0
60,72.0,0,120,2.0,0.0
61,60.0,3,120,2.0,0.0
62,60.0,0,120,5.0,0.0
63,48.0,3,120,13.0,0.0
64,52.0,0,120,13.0,0.0
65,48.0,0,120,3.0,0.0
66,52.0,113,120,3.0,0.0
67,55.0,4,120,12.0,0.0
68,55.0,0,120,13.0,0.0
69,40.0,236,120,13.0,0.0
70,62.0,4,240,12.0,0.0
71,53.0,0,240,12.0,0.0
72,59.0,0,240,13.0,0.0
73,43.0,3,240,13.0,0.0
74,31.0,113,120,14.0,0.0
75,60.0,0,120,12.0,0.0
76,52.0,1,120,12.0,0.0
77,72.0,0,120,2.0,0.0
78,64.0,3,120,2.0,0.0
79,60.0,0,120,13.0,0.0
80,48.0,3,120,13.0,0.0
81,36.0,0,120,14.0,0.0
82,55.0,54,120,3.0,0.0
83,74.0,6,60,2.0,0.0
84,65.0,6,120,2.0,0.0
85,59.0,54,60,3.0,0.0
86,71.0,0,60,2.0,0.0
87,62.0,114,60,3.0,0.0
88,72.0,1,120,2.0,0.0
89,64.0,6,180,2.0,0.0
90,55.0,59,120,3.0,0.0
91,60.0,49,60,3.0,0.0
92,67.0,5,60,2.0,0.0
93,59.0,54,60,3.0,0.0
94,66.0,6,120,2.0,0.0
95,76.0,60,60,2.0,0.0
96,48.0,0,15,3.0,0.0
97,57.0,60,120,3.0,0.0
98,72.0,0,60,2.0,0.0
99,65.0,6,120,2.0,0.0
100,74.0,0,120,2.0,0.0
101,59.0,54,60,3.0,0.0
102,55.0,109,60,3.0,0.0
103,67.0,6,120,2.0,0.0
104,64.0,5,240,2.0,0.0
105,60.0,59,120,3.0,0.0
106,69.0,55,60,2.0,0.0
107,52.0,79,120,3.0,0.0
108,48.0,0,240,3.0,0.0
109,67.0,6,60,2.0,0.0
110,62.0,3,240,2.0,0.0
111,66.0,35,90,2.0,0.0
112,57.0,79,120,3.0,0.0
113,66.0,6,30,2.0,0.0
114,67.0,5,240,0.0,0.0
115,62.0,2,120,4.0,0.0
116,55.0,0,120,5.0,0.0
117,67.0,30,90,2.0,0.0
118,55.0,0,240,3.0,0.0
119,47.0,109,120,3.0,0.0
120,67.0,6,30,2.0,0.0
121,64.0,0,120,0.0,0.0
122,60.0,2,240,4.0,0.0
123,72.0,3,240,2.0,0.0
124,64.0,0,120,2.0,0.0
125,52.0,6,120,5.0,0.0
126,45.0,109,120,3.0,0.0
127,66.0,3,240,0.0,0.0
128,69.0,0,120,0.0,0.0
129,57.0,0,120,2.0,0.0
130,57.0,6,120,5.0,0.0
131,50.0,109,120,3.0,0.0
132,54.0,0,240,3.0,0.0
133,59.0,1,120,4.0,0.0
134,54.0,1,120,12.0,0.0
135,59.0,3,120,2.0,0.0
136,71.0,0,120,2.0,0.0
137,54.0,0,120,5.0,0.0
138,39.0,3,120,13.0,0.0
139,47.0,0,240,13.0,0.0
140,51.0,117,120,3.0,0.0
141,55.0,4,240,12.0,0.0
142,40.0,116,120,13.0,0.0
143,60.0,4,240,12.0,0.0
144,45.0,3,240,13.0,0.0
145,52.0,116,120,13.0,0.0
146,54.0,0,120,12.0,0.0
147,50.0,0,120,13.0,0.0
148,38.0,113,120,14.0,0.0
149,50.0,0,120,12.0,0.0
150,59.0,1,120,12.0,0.0
151,74.0,3,120,2.0,0.0
152,67.0,5,360,2.0,0.0
153,43.0,3,120,13.0,0.0
154,55.0,5,480,3.0,0.0
155,59.0,0,120,3.0,0.0
156,43.0,54,120,14.0,0.0
157,76.0,6,60,2.0,0.0
158,60.0,54,60,3.0,0.0
159,72.0,6,60,2.0,0.0
160,57.0,109,60,3.0,0.0
161,74.0,1,120,2.0,0.0
162,59.0,114,120,3.0,0.0
163,62.0,3,120,4.0,0.0
164,67.0,3,120,2.0,0.0
165,59.0,54,120,3.0,0.0
166,64.0,2,120,4.0,0.0
167,79.0,58,60,2.0,0.0
168,70.0,0,120,2.0,0.0
169,55.0,3,240,5.0,0.0
170,61.0,109,120,3.0,0.0
171,55.0,84,480,3.0,0.0
172,76.0,6,60,2.0,0.0
173,62.0,2,120,4.0,0.0
174,77.0,6,120,2.0,0.0
175,69.0,0,120,2.0,0.0
176,62.0,112,120,3.0,0.0
177,65.0,2,120,4.0,0.0
178,55.0,6,240,5.0,0.0
179,68.0,6,120,2.0,0.0
180,74.0,0,120,2.0,0.0
181,60.0,52,120,3.0,0.0
182,67.0,55,60,4.0,0.0
183,67.0,0,120,2.0,0.0
184,59.0,0,120,3.0,0.0
185,65.0,2,60,4.0,0.0
186,64.0,2,240,4.0,0.0
187,72.0,35,90,2.0,0.0
188,60.0,65,120,3.0,0.0
189,57.0,0,120,3.0,0.0
190,72.0,1,30,2.0,0.0
191,76.0,5,120,2.0,0.0
192,71.0,1,120,2.0,0.0
193,59.0,0,60,3.0,0.0
194,56.0,47,15,3.0,0.0
195,52.0,84,60,3.0,0.0
196,64.0,2,240,4.0,0.0
197,69.0,1,120,2.0,0.0
198,72.0,30,90,2.0,0.0
199,60.0,65,120,3.0,0.0
200,57.0,0,120,3.0,0.0
201,72.0,5,30,2.0,0.0
202,71.0,0,120,2.0,0.0
203,76.0,6,120,2.0,0.0
204,55.0,47,60,3.0,0.0
205,59.0,0,60,3.0,0.0
206,52.0,0,60,3.0,0.0
207,55.0,84,60,3.0,0.0
208,60.0,2,120,4.0,0.0
209,60.0,6,240,5.0,0.0
210,69.0,30,90,2.0,0.0
211,57.0,79,120,3.0,0.0
212,53.0,0,120,3.0,0.0
213,65.0,6,60,2.0,0.0
214,69.0,3,30,2.0,0.0
215,72.0,0,120,0.0,0.0
216,64.0,3,120,0.0,0.0
217,67.0,2,120,4.0,0.0
218,60.0,0,120,2.0,0.0
219,72.0,30,90,2.0,0.0
220,55.0,109,120,3.0,0.0
221,52.0,0,120,3.0,0.0
222,72.0,0,30,2.0,0.0
223,69.0,0,120,0.0,0.0
224,65.0,5,120,0.0,0.0
225,65.0,2,240,4.0,0.0
226,77.0,5,240,2.0,0.0
227,57.0,6,120,2.0,0.0
228,62.0,0,240,5.0,0.0
229,50.0,5,240,3.0,0.0
230,53.0,107,120,3.0,0.0
231,68.0,0,120,0.0,0.0
232,71.0,0,120,0.0,0.0
233,59.0,1,120,2.0,0.0
234,56.0,109,120,3.0,0.0
235,69.0,0,120,0.0,0.0
236,72.0,3,120,0.0,0.0
237,64.0,2,120,4.0,0.0
238,57.0,0,240,12.0,0.0
239,60.0,0,120,5.0,0.0
240,76.0,3,120,2.0,0.0
241,60.0,0,120,2.0,0.0
242,48.0,0,240,13.0,0.0
243,45.0,3,120,13.0,0.0
244,57.0,113,120,3.0,0.0
245,45.0,0,120,3.0,0.0
246,43.0,120,120,13.0,0.0
247,60.0,4,15,12.0,0.0
248,65.0,119,360,12.0,0.0
249,41.0,120,120,13.0,0.0
250,57.0,115,480,13.0,0.0
251,81.0,1,240,1.0,0.0
252,40.0,115,120,13.0,0.0
253,38.0,0,240,13.0,0.0
254,77.0,1,120,1.0,0.0
255,62.0,0,120,12.0,0.0
256,74.0,1,120,1.0,0.0
257,59.0,0,240,12.0,0.0
258,65.0,4,120,12.0,0.0
259,55.0,115,120,13.0,0.0
260,43.0,0,240,13.0,0.0
261,71.0,1,120,1.0,0.0
262,62.0,4,120,12.0,0.0
263,53.0,3,120,13.0,0.0
264,31.0,113,120,14.0,0.0
265,64.0,1,120,12.0,0.0
266,55.0,0,120,12.0,0.0
267,72.0,3,120,2.0,0.0
268,64.0,0,120,2.0,0.0
269,36.0,0,120,13.0,0.0
270,52.0,3,120,13.0,0.0
271,55.0,0,120,3.0,0.0
272,36.0,54,120,14.0,0.0
273,48.0,0,480,3.0,0.0
274,74.0,60,60,2.0,0.0
275,65.0,6,120,2.0,0.0
276,57.0,114,120,3.0,0.0
277,69.0,0,60,2.0,0.0
278,64.0,6,240,2.0,0.0
279,72.0,6,120,2.0,0.0
280,55.0,109,120,3.0,0.0
281,67.0,0,120,2.0,0.0
282,60.0,59,120,3.0,0.0
283,76.0,60,60,2.0,0.0
284,64.0,6,120,2.0,0.0
285,48.0,114,360,3.0,0.0
286,55.0,54,120,3.0,0.0
287,72.0,0,60,2.0,0.0
288,65.0,0,120,2.0,0.0
289,74.0,6,60,2.0,0.0
290,57.0,54,60,3.0,0.0
291,69.0,6,60,2.0,0.0
292,62.0,109,60,3.0,0.0
293,64.0,5,120,2.0,0.0
294,72.0,1,120,2.0,0.0
295,55.0,0,120,3.0,0.0
296,67.0,5,120,2.0,0.0
297,64.0,1,120,2.0,0.0
298,52.0,5,120,3.0,0.0
299,60.0,114,120,3.0,0.0
300,62.0,6,120,2.0,0.0
301,67.0,0,120,2.0,0.0
302,55.0,114,120,3.0,0.0
303,59.0,0,120,3.0,0.0
304,64.0,0,120,2.0,0.0
305,60.0,0,120,3.0,0.0
306,52.0,109,120,3.0,0.0
307,62.0,6,120,2.0,0.0
308,67.0,6,15,2.0,0.0
309,59.0,119,120,3.0,0.0
310,55.0,0,120,3.0,0.0
311,65.0,6,120,2.0,0.0
312,69.0,0,120,2.0,0.0
313,53.0,114,120,3.0,0.0
314,60.0,0,120,3.0,0.0
315,70.0,0,120,2.0,0.0
316,65.0,6,120,2.0,0.0
317,50.0,0,120,3.0,0.0
318,58.0,114,120,3.0,0.0
319,65.0,0,120,2.0,0.0
320,69.0,6,120,2.0,0.0
321,53.0,109,120,3.0,0.0
322,60.0,0,120,3.0,0.0
323,70.0,6,120,2.0,0.0
324,65.0,0,120,2.0,0.0
325,58.0,59,120,3.0,0.0
326,50.0,0,120,3.0,0.0
327,60.0,2,240,4.0,0.0
328,64.0,6,120,2.0,0.0
329,69.0,6,60,2.0,0.0
330,60.0,49,60,3.0,0.0
331,48.0,79,120,3.0,0.0
332,67.0,0,60,2.0,0.0
333,58.0,5,60,3.0,0.0
334,60.0,0,240,5.0,0.0
335,60.0,1,240,2.0,0.0
336,65.0,28,90,2.0,0.0
337,57.0,5,240,3.0,0.0
338,53.0,79,120,3.0,0.0
339,65.0,11,30,2.0,0.0
340,69.0,3,240,0.0,0.0
341,65.0,0,240,0.0,0.0
342,65.0,13,240,4.0,0.0
343,69.0,30,90,2.0,0.0
344,52.0,104,120,3.0,0.0
345,69.0,5,30,2.0,0.0
346,62.0,0,360,5.0,0.0
347,74.0,6,360,2.0,0.0
348,65.0,0,360,2.0,0.0
349,57.0,113,360,3.0,0.0
350,50.0,120,120,3.0,0.0
351,65.0,0,240,0.0,0.0
352,69.0,3,240,0.0,0.0
353,65.0,2,240,4.0,0.0
354,45.0,109,120,3.0,0.0
355,53.0,4,360,12.0,0.0
356,50.0,0,360,13.0,0.0
357,38.0,0,120,3.0,0.0
358,57.0,4,120,12.0,0.0
359,48.0,116,120,13.0,0.0
360,62.0,1,240,12.0,0.0
361,62.0,1,120,4.0,0.0
362,55.0,0,120,12.0,0.0
363,62.0,3,120,2.0,0.0
364,55.0,0,120,5.0,0.0
365,67.0,55,60,2.0,0.0
366,47.0,57,15,13.0,0.0
367,43.0,3,120,13.0,0.0
368,47.0,79,120,3.0,0.0
369,55.0,0,240,3.0,0.0
370,65.0,3,60,2.0,0.0
371,64.0,2,120,4.0,0.0
372,60.0,6,120,2.0,0.0
373,60.0,5,120,5.0,0.0
374,64.0,28,90,2.0,0.0
375,48.0,79,120,3.0,0.0
376,64.0,0,30,2.0,0.0
377,60.0,2,240,4.0,0.0
378,64.0,11,240,2.0,0.0
379,67.0,30,90,2.0,0.0
380,52.0,0,240,5.0,0.0
381,55.0,0,120,3.0,0.0
382,47.0,107,120,3.0,0.0
383,67.0,11,30,2.0,0.0
384,76.0,6,360,2.0,0.0
385,60.0,109,120,3.0,0.0
386,45.0,0,120,3.0,0.0
387,69.0,5,120,0.0,0.0
388,72.0,3,240,0.0,0.0
389,64.0,2,240,4.0,0.0
390,60.0,0,240,5.0,0.0
391,69.0,6,120,2.0,0.0
392,42.0,0,120,3.0,0.0
393,57.0,109,120,3.0,0.0
394,67.0,0,360,0.0,0.0
395,64.0,0,120,2.0,0.0
396,60.0,0,120,3.0,0.0
397,43.0,54,120,3.0,0.0
398,71.0,3,120,0.0,0.0
399,62.0,2,120,4.0,0.0
400,74.0,55,60,2.0,0.0
401,65.0,0,120,2.0,0.0
402,55.0,6,120,5.0,0.0
403,59.0,0,120,3.0,0.0
404,67.0,0,60,2.0,0.0
405,72.0,3,120,0.0,0.0
406,60.0,1,120,4.0,0.0
407,52.0,1,120,12.0,0.0
408,48.0,0,240,12.0,0.0
409,72.0,0,120,2.0,0.0
410,52.0,0,120,5.0,0.0
411,64.0,3,120,2.0,0.0
412,52.0,0,360,13.0,0.0
413,48.0,3,120,13.0,0.0
414,55.0,109,15,3.0,0.0
415,48.0,113,120,3.0,0.0
416,55.0,4,120,12.0,0.0
417,47.0,120,120,13.0,0.0
418,60.0,9,360,12.0,0.0
419,64.0,0,360,12.0,0.0
420,45.0,115,120,13.0,0.0
421,42.0,5,120,13.0,0.0
422,57.0,111,120,13.0,0.0
423,55.0,55,120,13.0,0.0
424,43.0,0,240,13.0,0.0
425,62.0,4,60,12.0,0.0
426,59.0,0,60,12.0,0.0
427,53.0,25,60,13.0,0.0
428,43.0,52,120,14.0,0.0
429,67.0,1,30,1.0,0.0
430,69.0,22,30,1.0,0.0
431,53.0,9,60,12.0,0.0
432,55.0,0,60,12.0,0.0
433,55.0,3,60,13.0,0.0
434,71.0,4,20,1.0,0.0
435,64.0,0,120,4.0,0.0
436,60.0,0,120,12.0,0.0
437,52.0,4,120,12.0,0.0
438,64.0,2,120,2.0,0.0
439,60.0,6,120,5.0,0.0
440,72.0,0,120,2.0,0.0
441,43.0,0,120,13.0,0.0
442,36.0,0,120,13.0,0.0
443,36.0,22,120,14.0,0.0
444,55.0,2,120,3.0,0.0
445,48.0,0,120,3.0,0.0
446,76.0,30,30,1.0,0.0
447,72.0,22,30,1.0,0.0
448,76.0,0,20,1.0,0.0
449,65.0,0,120,4.0,0.0
450,79.0,2,120,1.0,0.0
451,74.0,30,30,1.0,0.0
452,53.0,0,60,12.0,0.0
453,62.0,1,60,12.0,0.0
454,62.0,28,120,5.0,0.0
455,74.0,6,60,2.0,0.0
456,65.0,0,60,2.0,0.0
457,36.0,0,60,13.0,0.0
458,43.0,0,60,13.0,0.0
459,55.0,0,60,3.0,0.0
460,48.0,22,60,3.0,0.0
461,71.0,1,30,1.0,0.0
462,74.0,22,30,1.0,0.0
463,59.0,0,60,12.0,0.0
464,50.0,4,60,12.0,0.0
465,71.0,2,60,2.0,0.0
466,62.0,0,60,2.0,0.0
467,36.0,2,60,13.0,0.0
468,43.0,0,60,13.0,0.0
469,48.0,0,60,3.0,0.0
470,55.0,0,60,3.0,0.0
471,71.0,0,20,1.0,0.0
472,67.0,2,120,1.0,0.0
473,76.0,30,30,1.0,0.0
474,64.0,0,120,4.0,0.0
475,60.0,4,120,12.0,0.0
476,52.0,0,120,12.0,0.0
477,60.0,0,120,5.0,0.0
478,72.0,0,120,2.0,0.0
479,64.0,2,120,2.0,0.0
480,43.0,28,120,13.0,0.0
481,36.0,0,120,13.0,0.0
482,48.0,0,120,3.0,0.0
483,55.0,0,120,3.0,0.0
484,72.0,30,30,1.0,0.0
485,76.0,22,30,1.0,0.0
486,72.0,0,20,1.0,0.0
487,60.0,3,30,11.0,0.0
488,67.0,6,120,1.0,0.0
489,55.0,4,30,12.0,0.0
490,67.0,0,120,2.0,0.0
491,64.0,3,120,2.0,0.0
492,52.0,23,30,13.0,0.0
493,36.0,0,120,14.0,0.0
494,55.0,20,120,3.0,0.0
495,52.0,0,120,3.0,0.0
496,55.0,3,30,11.0,0.0
497,52.0,4,30,12.0,0.0
498,48.0,23,30,13.0,0.0
499,60.0,3,30,11.0,0.0
500,55.0,4,30,12.0,0.0
501,52.0,17,30,13.0,0.0
502,55.0,2,30,11.0,0.0
503,52.0,1,30,12.0,0.0
504,48.0,3,30,13.0,0.0
505,60.0,3,30,11.0,0.0
506,60.0,1,15,4.0,0.0
507,57.0,4,30,12.0,0.0
508,69.0,0,120,2.0,0.0
509,65.0,3,120,2.0,0.0
510,48.0,0,15,5.0,0.0
511,53.0,23,30,13.0,0.0
512,41.0,0,120,14.0,0.0
513,53.0,20,120,3.0,0.0
514,57.0,0,120,3.0,0.0
515,57.0,3,30,11.0,0.0
516,53.0,4,30,12.0,0.0
517,48.0,23,30,13.0,0.0
518,60.0,3,30,11.0,0.0
519,57.0,4,30,12.0,0.0
520,53.0,23,30,13.0,0.0
521,57.0,2,30,11.0,0.0
522,53.0,1,30,12.0,0.0
523,48.0,3,30,13.0,0.0
524,60.0,3,30,11.0,0.0
525,60.0,1,15,4.0,0.0
526,55.0,4,30,12.0,0.0
527,64.0,0,120,2.0,0.0
528,67.0,0,120,2.0,0.0
529,48.0,3,120,5.0,0.0
530,52.0,23,30,13.0,0.0
531,55.0,0,120,3.0,0.0
532,52.0,0,120,3.0,0.0
533,36.0,20,120,14.0,0.0
534,55.0,3,30,11.0,0.0
535,52.0,4,30,12.0,0.0
536,48.0,23,30,13.0,0.0
537,60.0,3,30,11.0,0.0
538,55.0,4,30,12.0,0.0
539,52.0,23,30,13.0,0.0
540,55.0,2,30,11.0,0.0
541,52.0,1,30,12.0,0.0
542,48.0,3,30,13.0,0.0
543,60.0,3,30,11.0,0.0
544,60.0,1,120,4.0,0.0
545,57.0,4,30,12.0,0.0
546,65.0,0,120,2.0,0.0
547,48.0,2,120,5.0,0.0
548,69.0,0,120,2.0,0.0
549,53.0,23,30,13.0,0.0
550,57.0,0,120,3.0,0.0
551,41.0,20,120,14.0,0.0
552,53.0,0,120,3.0,0.0
553,57.0,3,30,11.0,0.0
554,53.0,4,30,12.0,0.0
555,48.0,23,30,13.0,0.0
556,60.0,3,30,11.0,0.0
557,57.0,4,30,12.0,0.0
558,53.0,17,30,13.0,0.0
559,57.0,1,30,11.0,0.0
560,53.0,4,30,12.0,0.0
561,48.0,8,30,13.0,0.0
562,59.0,3,30,11.0,0.0
563,55.0,0,120,4.0,0.0
564,62.0,4,30,12.0,0.0
565,43.0,4,120,5.0,0.0
566,65.0,3,120,2.0,0.0
567,53.0,22,30,13.0,0.0
568,59.0,0,120,3.0,0.0
569,53.0,49,120,3.0,0.0
570,43.0,0,120,14.0,0.0
571,79.0,1,30,0.0,0.0
572,62.0,2,30,11.0,0.0
573,67.0,1,30,1.0,0.0
574,59.0,4,30,12.0,0.0
575,50.0,22,30,13.0,0.0
576,81.0,1,30,0.0,0.0
577,59.0,2,30,11.0,0.0
578,69.0,1,30,1.0,0.0
579,62.0,4,30,12.0,0.0
580,53.0,14,30,13.0,0.0
581,83.0,3,20,0.0,0.0
582,62.0,3,30,11.0,0.0
583,71.0,2,20,1.0,0.0
584,59.0,1,30,12.0,0.0
585,50.0,3,30,13.0,0.0
586,72.0,1,120,10.0,0.0
587,64.0,1,120,11.0,0.0
588,55.0,1,120,4.0,0.0
589,55.0,0,120,12.0,0.0
590,48.0,4,120,12.0,0.0
591,48.0,2,120,5.0,0.0
592,64.0,6,120,2.0,0.0
593,67.0,0,15,2.0,0.0
594,36.0,2,120,13.0,0.0
595,43.0,0,120,13.0,0.0
596,60.0,0,120,3.0,0.0
597,52.0,19,120,3.0,0.0
598,88.0,3,30,0.0,0.0
599,76.0,27,30,1.0,0.0
600,84.0,3,30,0.0,0.0
601,72.0,19,30,1.0,0.0
602,88.0,0,20,0.0,0.0
603,76.0,0,20,1.0,0.0
604,74.0,0,60,10.0,0.0
605,91.0,2,120,0.0,0.0
606,86.0,3,30,0.0,0.0
607,65.0,2,60,11.0,0.0
608,55.0,2,60,4.0,0.0
609,79.0,0,120,1.0,0.0
610,74.0,22,30,1.0,0.0
611,55.0,1,60,12.0,0.0
612,48.0,0,60,12.0,0.0
613,65.0,6,120,2.0,0.0
614,48.0,2,60,5.0,0.0
615,43.0,0,60,13.0,0.0
616,36.0,0,60,13.0,0.0
617,36.0,0,15,14.0,0.0
618,62.0,19,60,3.0,0.0
619,53.0,0,60,3.0,0.0
620,83.0,1,30,0.0,0.0
621,71.0,8,30,1.0,0.0
622,71.0,1,60,10.0,0.0
623,86.0,3,30,0.0,0.0
624,62.0,1,60,11.0,0.0
625,74.0,19,30,1.0,0.0
626,55.0,1,60,4.0,0.0
627,55.0,0,60,12.0,0.0
628,48.0,4,60,12.0,0.0
629,48.0,2,60,5.0,0.0
630,36.0,0,60,13.0,0.0
631,43.0,2,60,13.0,0.0
632,50.0,0,60,3.0,0.0
633,59.0,0,60,3.0,0.0
634,36.0,19,60,14.0,0.0
635,83.0,0,20,0.0,0.0
636,71.0,0,20,1.0,0.0
637,72.0,1,120,10.0,0.0
638,88.0,3,30,0.0,0.0
639,79.0,0,120,0.0,0.0
640,64.0,1,120,11.0,0.0
641,55.0,1,120,4.0,0.0
642,76.0,27,30,1.0,0.0
643,67.0,0,120,1.0,0.0
644,55.0,4,120,12.0,0.0
645,48.0,0,120,12.0,0.0
646,48.0,2,120,5.0,0.0
647,64.0,0,120,2.0,0.0
648,43.0,2,120,13.0,0.0
649,36.0,0,120,13.0,0.0
650,52.0,0,120,3.0,0.0
651,36.0,18,120,14.0,0.0
652,60.0,0,120,3.0,0.0
653,84.0,3,30,0.0,0.0
654,72.0,27,30,1.0,0.0
655,88.0,3,30,0.0,0.0
656,76.0,19,30,1.0,0.0
657,84.0,2,20,0.0,0.0
658,72.0,0,20,1.0,0.0
659,67.0,2,30,10.0,0.0
660,79.0,0,120,0.0,0.0
661,76.0,1,120,0.0,0.0
662,59.0,3,30,11.0,0.0
663,67.0,1,120,1.0,0.0
664,52.0,25,30,12.0,0.0
665,67.0,6,15,2.0,0.0
666,71.0,0,120,2.0,0.0
667,52.0,3,120,13.0,0.0
668,59.0,0,120,3.0,0.0
669,55.0,18,120,3.0,0.0
670,40.0,0,120,14.0,0.0
671,64.0,2,30,10.0,0.0
672,67.0,3,30,11.0,0.0
673,59.0,25,30,12.0,0.0
674,67.0,2,30,10.0,0.0
675,59.0,3,30,11.0,0.0
676,52.0,25,30,12.0,0.0
677,64.0,1,30,10.0,0.0
678,67.0,2,30,11.0,0.0
679,59.0,1,30,12.0,0.0
680,69.0,2,30,10.0,0.0
681,81.0,0,120,0.0,0.0
682,72.0,1,120,0.0,0.0
683,60.0,3,30,11.0,0.0
684,64.0,0,15,4.0,0.0
685,52.0,25,30,12.0,0.0
686,72.0,3,120,2.0,0.0
687,69.0,0,120,2.0,0.0
688,52.0,3,15,5.0,0.0
689,45.0,3,120,13.0,0.0
690,60.0,0,120,3.0,0.0
691,57.0,18,120,3.0,0.0
692,33.0,0,120,14.0,0.0
693,64.0,2,30,10.0,0.0
694,69.0,3,30,11.0,0.0
695,60.0,25,30,12.0,0.0
696,69.0,2,30,10.0,0.0
697,60.0,3,30,11.0,0.0
698,52.0,25,30,12.0,0.0
699,64.0,1,30,10.0,0.0
700,69.0,2,30,11.0,0.0
701,60.0,1,30,12.0,0.0
702,67.0,2,30,10.0,0.0
703,76.0,0,120,0.0,0.0
704,79.0,1,120,0.0,0.0
705,59.0,3,30,11.0,0.0
706,64.0,1,15,4.0,0.0
707,52.0,25,30,12.0,0.0
708,52.0,0,15,5.0,0.0
709,71.0,0,120,2.0,0.0
710,67.0,3,120,2.0,0.0
711,52.0,3,120,13.0,0.0
712,40.0,0,120,14.0,0.0
713,59.0,0,120,3.0,0.0
714,55.0,18,120,3.0,0.0
715,64.0,2,30,10.0,0.0
716,67.0,3,30,11.0,0.0
717,59.0,25,30,12.0,0.0
718,67.0,2,30,10.0,0.0
719,59.0,3,30,11.0,0.0
720,52.0,25,30,12.0,0.0
721,64.0,1,30,10.0,0.0
722,67.0,2,30,11.0,0.0
723,59.0,1,30,12.0,0.0
724,69.0,2,30,10.0,0.0
725,72.0,2,120,0.0,0.0
726,81.0,0,120,0.0,0.0
727,60.0,3,30,11.0,0.0
728,64.0,1,120,4.0,0.0
729,52.0,25,30,12.0,0.0
730,52.0,0,15,5.0,0.0
731,69.0,0,120,2.0,0.0
732,72.0,0,120,2.0,0.0
733,45.0,3,120,13.0,0.0
734,33.0,23,120,14.0,0.0
735,60.0,0,120,3.0,0.0
736,57.0,5,120,3.0,0.0
737,64.0,2,30,10.0,0.0
738,69.0,3,30,11.0,0.0
739,60.0,25,30,12.0,0.0
740,69.0,2,30,10.0,0.0
741,60.0,3,30,11.0,0.0
742,52.0,18,30,12.0,0.0
743,64.0,1,30,10.0,0.0
744,69.0,1,30,11.0,0.0
745,60.0,4,30,12.0,0.0
746,84.0,0,120,0.0,0.0
747,90.0,2,120,0.0,0.0
748,72.0,1,120,1.0,0.0
749,62.0,0,120,4.0,0.0
750,78.0,0,120,1.0,0.0
751,60.0,25,30,12.0,0.0
752,72.0,0,120,2.0,0.0
753,78.0,2,120,2.0,0.0
754,60.0,0,120,5.0,0.0
755,50.0,3,120,13.0,0.0
756,66.0,5,120,3.0,0.0
757,60.0,0,120,3.0,0.0
758,38.0,27,120,14.0,0.0
759,86.0,2,30,10.0,0.0
760,74.0,3,30,11.0,0.0
761,62.0,25,30,12.0,0.0
762,88.0,2,30,10.0,0.0
763,76.0,3,30,11.0,0.0
764,60.0,18,30,12.0,0.0
765,90.0,1,30,10.0,0.0
766,78.0,1,30,11.0,0.0
767,62.0,4,30,12.0,0.0
768,91.0,1,120,10.0,0.0
769,91.0,0,120,0.0,0.0
770,83.0,2,120,0.0,0.0
771,79.0,1,120,11.0,0.0
772,79.0,1,120,1.0,0.0
773,62.0,0,120,4.0,0.0
774,71.0,0,120,1.0,0.0
775,62.0,0,120,12.0,0.0
776,59.0,4,120,12.0,0.0
777,74.0,0,120,2.0,0.0
778,71.0,0,120,2.0,0.0
779,55.0,2,120,5.0,0.0
780,43.0,3,30,13.0,0.0
781,31.0,27,30,14.0,0.0
782,59.0,0,120,3.0,0.0
783,67.0,0,120,3.0,0.0
784,47.0,3,30,13.0,0.0
785,35.0,27,30,14.0,0.0
786,43.0,3,30,13.0,0.0
787,31.0,11,30,14.0,0.0
788,47.0,3,30,13.0,0.0
789,35.0,23,30,14.0,0.0
790,93.0,2,30,10.0,0.0
791,84.0,2,120,0.0,0.0
792,90.0,0,120,0.0,0.0
793,81.0,28,30,11.0,0.0
794,81.0,0,60,1.0,0.0
795,72.0,8,60,1.0,0.0
796,62.0,1,120,4.0,0.0
797,66.0,4,120,12.0,0.0
798,60.0,0,120,12.0,0.0
799,78.0,0,120,2.0,0.0
800,72.0,2,120,2.0,0.0
801,60.0,0,120,5.0,0.0
802,50.0,3,120,13.0,0.0
803,38.0,32,120,14.0,0.0
804,60.0,18,60,3.0,0.0
805,69.0,0,60,3.0,0.0
806,90.0,2,30,10.0,0.0
807,78.0,2,30,11.0,0.0
808,93.0,2,30,10.0,0.0
809,81.0,21,30,11.0,0.0
810,78.0,0,60,1.0,0.0
811,69.0,0,60,1.0,0.0
812,66.0,0,60,3.0,0.0
813,57.0,0,60,3.0,0.0
814,90.0,1,30,10.0,0.0
815,78.0,1,30,11.0,0.0
816,86.0,1,120,10.0,0.0
817,91.0,0,120,0.0,0.0
818,83.0,2,120,0.0,0.0
819,74.0,1,120,11.0,0.0
820,79.0,0,120,1.0,0.0
821,62.0,1,120,4.0,0.0
822,71.0,0,120,1.0,0.0
823,62.0,4,120,12.0,0.0
824,59.0,0,120,12.0,0.0
825,55.0,0,120,5.0,0.0
826,74.0,0,120,2.0,0.0
827,71.0,2,120,2.0,0.0
828,55.0,3,30,13.0,0.0
829,67.0,0,120,3.0,0.0
830,59.0,0,120,3.0,0.0
831,43.0,27,30,14.0,0.0
832,59.0,3,30,13.0,0.0
833,47.0,27,30,14.0,0.0
834,55.0,3,30,13.0,0.0
835,43.0,11,30,14.0,0.0
836,59.0,3,30,13.0,0.0
837,47.0,23,30,14.0,0.0
838,81.0,2,30,10.0,0.0
839,90.0,0,120,0.0,0.0
840,84.0,2,120,0.0,0.0
841,69.0,28,30,11.0,0.0
842,81.0,8,60,1.0,0.0
843,72.0,0,60,1.0,0.0
844,62.0,0,120,4.0,0.0
845,66.0,4,120,12.0,0.0
846,60.0,0,120,12.0,0.0
847,60.0,2,120,5.0,0.0
848,72.0,0,120,2.0,0.0
849,78.0,0,120,2.0,0.0
850,62.0,0,120,13.0,0.0
851,69.0,0,60,3.0,0.0
852,50.0,32,120,14.0,0.0
853,60.0,18,60,3.0,0.0
854,78.0,2,30,10.0,0.0
855,66.0,2,30,11.0,0.0
856,81.0,2,30,10.0,0.0
857,69.0,21,30,11.0,0.0
858,69.0,0,60,1.0,0.0
859,78.0,1,60,1.0,0.0
860,66.0,3,60,3.0,0.0
861,57.0,0,60,3.0,0.0
862,78.0,1,30,10.0,0.0
863,66.0,1,30,11.0,0.0
864,74.0,1,120,10.0,0.0
865,83.0,0,120,0.0,0.0
866,86.0,2,120,0.0,0.0
867,62.0,1,120,11.0,0.0
868,71.0,0,120,1.0,0.0
869,62.0,0,120,4.0,0.0
870,79.0,1,120,1.0,0.0
871,59.0,0,120,12.0,0.0
872,62.0,4,120,12.0,0.0
873,71.0,0,120,2.0,0.0
874,74.0,2,120,2.0,0.0
875,55.0,0,120,5.0,0.0
876,43.0,3,30,13.0,0.0
877,67.0,0,120,3.0,0.0
878,59.0,3,120,3.0,0.0
879,31.0,27,30,14.0,0.0
880,47.0,3,30,13.0,0.0
881,35.0,27,30,14.0,0.0
882,43.0,3,30,13.0,0.0
883,31.0,11,30,14.0,0.0
884,47.0,0,30,13.0,0.0
885,35.0,23,30,14.0,0.0
886,69.0,2,30,10.0,0.0
887,81.0,0,240,0.0,0.0
888,89.0,3,240,0.0,0.0
889,69.0,28,30,11.0,0.0
890,77.0,0,240,1.0,0.0
891,65.0,0,240,4.0,0.0
892,81.0,0,240,1.0,0.0
893,57.0,0,240,12.0,0.0
894,65.0,1,240,12.0,0.0
895,65.0,0,60,2.0,0.0
896,62.0,1,240,5.0,0.0
897,69.0,6,60,2.0,0.0
898,50.0,0,240,13.0,0.0
899,38.0,25,240,14.0,0.0
900,65.0,18,60,3.0,0.0
901,57.0,0,60,3.0,0.0
902,65.0,2,30,10.0,0.0
903,65.0,4,30,11.0,0.0
904,69.0,2,30,10.0,0.0
905,69.0,26,30,11.0,0.0
906,62.0,0,60,2.0,0.0
907,65.0,2,60,2.0,0.0
908,62.0,0,60,3.0,0.0
909,50.0,26,60,3.0,0.0
910,65.0,2,30,10.0,0.0
911,65.0,2,30,11.0,0.0
912,62.0,2,30,10.0,0.0
913,62.0,28,30,11.0,0.0
914,57.0,0,60,2.0,0.0
915,62.0,6,60,2.0,0.0
916,57.0,18,60,3.0,0.0
917,57.0,2,30,10.0,0.0
918,57.0,4,30,11.0,0.0
919,62.0,2,30,10.0,0.0
920,62.0,23,30,11.0,0.0
921,53.0,0,60,2.0,0.0
922,57.0,2,60,2.0,0.0
923,53.0,0,15,3.0,0.0
924,50.0,0,60,3.0,0.0
925,57.0,2,30,10.0,0.0
926,57.0,1,30,11.0,0.0
927,59.0,2,120,10.0,0.0
928,56.0,3,30,11.0,0.0
929,50.0,27,30,12.0,0.0
930,59.0,0,120,2.0,0.0
931,56.0,6,120,2.0,0.0
932,40.0,3,60,13.0,0.0
933,28.0,0,60,14.0,0.0
934,40.0,20,60,3.0,0.0
935,50.0,20,120,3.0,0.0
936,59.0,3,30,11.0,0.0
937,56.0,4,30,12.0,0.0
938,56.0,3,30,11.0,0.0
939,50.0,25,30,12.0,0.0
940,59.0,3,30,11.0,0.0
941,56.0,1,30,12.0,0.0
942,60.0,2,120,10.0,0.0
943,57.0,3,30,11.0,0.0
944,48.0,27,30,12.0,0.0
945,60.0,6,120,2.0,0.0
946,57.0,0,120,2.0,0.0
947,45.0,3,60,13.0,0.0
948,33.0,0,60,14.0,0.0
949,45.0,20,60,3.0,0.0
950,48.0,20,120,3.0,0.0
951,60.0,3,30,11.0,0.0
952,57.0,4,30,12.0,0.0
953,57.0,3,30,11.0,0.0
954,48.0,25,30,12.0,0.0
955,60.0,3,30,11.0,0.0
956,57.0,1,30,12.0,0.0
957,59.0,2,120,10.0,0.0
958,56.0,3,30,11.0,0.0
959,50.0,27,30,12.0,0.0
960,56.0,0,120,2.0,0.0
961,59.0,6,120,2.0,0.0
962,40.0,3,60,13.0,0.0
963,40.0,20,60,3.0,0.0
964,50.0,20,120,3.0,0.0
965,28.0,0,60,14.0,0.0
966,59.0,3,30,11.0,0.0
967,56.0,4,30,12.0,0.0
968,56.0,3,30,11.0,0.0
969,50.0,25,30,12.0,0.0
970,59.0,3,30,11.0,0.0
971,56.0,1,30,12.0,0.0
972,60.0,2,120,10.0,0.0
973,57.0,3,30,11.0,0.0
974,48.0,27,30,12.0,0.0
975,57.0,6,120,2.0,0.0
976,60.0,0,120,2.0,0.0
977,45.0,3,60,13.0,0.0
978,45.0,0,60,3.0,0.0
979,48.0,18,120,3.0,0.0
980,33.0,20,60,14.0,0.0
981,60.0,3,30,11.0,0.0
982,57.0,4,30,12.0,0.0
983,57.0,3,30,11.0,0.0
984,48.0,20,30,12.0,0.0
985,60.0,3,30,11.0,0.0
986,57.0,6,30,12.0,0.0
987,93.0,2,30,10.0,0.0
988,90.0,0,120,0.0,0.0
989,84.0,2,120,0.0,0.0
990,81.0,28,30,11.0,0.0
991,62.0,0,120,4.0,0.0
992,81.0,8,60,1.0,0.0
993,72.0,0,60,1.0,0.0
994,66.0,4,120,12.0,0.0
995,60.0,0,120,12.0,0.0
996,72.0,0,120,2.0,0.0
997,78.0,0,120,2.0,0.0
998,60.0,2,120,5.0,0.0
999,50.0,0,120,13.0,0.0
1000,60.0,0,60,3.0,0.0
1001,69.0,18,60,3.0,0.0
1002,38.0,32,120,14.0,0.0
1003,90.0,2,30,10.0,0.0
1004,78.0,2,30,11.0,0.0
1005,93.0,2,30,10.0,0.0
1006,81.0,21,30,11.0,0.0
1007,78.0,0,60,1.0,0.0
1008,69.0,1,60,1.0,0.0
1009,66.0,0,60,3.0,0.0
1010,57.0,3,60,3.0,0.0
1011,90.0,1,30,10.0,0.0
1012,78.0,1,30,11.0,0.0
1013,86.0,1,120,10.0,0.0
1014,83.0,0,120,0.0,0.0
1015,91.0,2,120,0.0,0.0
1016,74.0,1,120,11.0,0.0
1017,71.0,0,120,1.0,0.0
1018,62.0,0,120,4.0,0.0
1019,79.0,1,120,1.0,0.0
1020,59.0,0,120,12.0,0.0
1021,62.0,4,120,12.0,0.0
1022,74.0,2,120,2.0,0.0
1023,55.0,0,120,5.0,0.0
1024,71.0,0,120,2.0,0.0
1025,55.0,3,30,13.0,0.0
1026,59.0,0,120,3.0,0.0
1027,43.0,27,30,14.0,0.0
1028,67.0,3,120,3.0,0.0
1029,59.0,3,30,13.0,0.0
1030,47.0,27,30,14.0,0.0
1031,55.0,3,30,13.0,0.0
1032,43.0,11,30,14.0,0.0
1033,59.0,0,30,13.0,0.0
1034,47.0,23,30,14.0,0.0
1035,81.0,2,30,10.0,0.0
1036,90.0,2,120,0.0,0.0
1037,84.0,0,120,0.0,0.0
1038,69.0,28,30,11.0,0.0
1039,72.0,8,60,1.0,0.0
1040,81.0,0,60,1.0,0.0
1041,62.0,0,120,4.0,0.0
1042,66.0,4,120,12.0,0.0
1043,60.0,0,120,12.0,0.0
1044,72.0,0,120,2.0,0.0
1045,60.0,2,120,5.0,0.0
1046,78.0,0,120,2.0,0.0
1047,62.0,0,120,13.0,0.0
1048,69.0,0,60,3.0,0.0
1049,50.0,32,120,14.0,0.0
1050,60.0,18,60,3.0,0.0
1051,78.0,2,30,10.0,0.0
1052,66.0,2,30,11.0,0.0
1053,81.0,2,30,10.0,0.0
1054,69.0,21,30,11.0,0.0
1055,78.0,0,60,1.0,0.0
1056,69.0,1,60,1.0,0.0
1057,66.0,0,60,3.0,0.0
1058,57.0,3,60,3.0,0.0
1059,78.0,1,30,10.0,0.0
1060,66.0,1,30,11.0,0.0
1061,74.0,1,120,10.0,0.0
1062,83.0,0,120,0.0,0.0
1063,91.0,2,120,0.0,0.0
1064,62.0,1,120,11.0,0.0
1065,71.0,0,120,1.0,0.0
1066,79.0,1,120,1.0,0.0
1067,62.0,0,120,4.0,0.0
1068,59.0,0,120,12.0,0.0
1069,62.0,4,120,12.0,0.0
1070,55.0,0,120,5.0,0.0
1071,71.0,0,120,2.0,0.0
1072,74.0,2,120,2.0,0.0
1073,43.0,3,30,13.0,0.0
1074,67.0,0,120,3.0,0.0
1075,59.0,3,120,3.0,0.0
1076,31.0,27,30,14.0,0.0
1077,47.0,3,30,13.0,0.0
1078,35.0,27,30,14.0,0.0
1079,43.0,3,30,13.0,0.0
1080,31.0,11,30,14.0,0.0
1081,47.0,0,30,13.0,0.0
1082,35.0,23,30,14.0,0.0
1083,81.0,2,30,10.0,0.0
1084,77.0,0,240,0.0,0.0
1085,81.0,2,240,0.0,0.0
1086,69.0,28,30,11.0,0.0
1087,65.0,0,240,4.0,0.0
1088,77.0,26,60,1.0,0.0
1089,81.0,0,60,1.0,0.0
1090,65.0,4,240,12.0,0.0
1091,57.0,0,240,12.0,0.0
1092,69.0,0,240,2.0,0.0
1093,77.0,2,240,2.0,0.0
1094,57.0,0,240,5.0,0.0
1095,50.0,0,240,13.0,0.0
1096,38.0,23,240,14.0,0.0
1097,57.0,3,240,3.0,0.0
1098,65.0,0,240,3.0,0.0
1099,77.0,2,30,10.0,0.0
1100,65.0,2,30,11.0,0.0
1101,81.0,2,30,10.0,0.0
1102,69.0,24,30,11.0,0.0
1103,74.0,0,60,1.0,0.0
1104,77.0,4,60,1.0,0.0
1105,77.0,2,30,10.0,0.0
1106,65.0,28,30,11.0,0.0
1107,74.0,2,30,10.0,0.0
1108,62.0,28,30,11.0,0.0
1109,74.0,26,60,1.0,0.0
1110,69.0,0,60,1.0,0.0
1111,69.0,2,30,10.0,0.0
1112,57.0,2,30,11.0,0.0
1113,74.0,2,30,10.0,0.0
1114,62.0,21,30,11.0,0.0
1115,65.0,1,60,1.0,0.0
1116,69.0,0,60,1.0,0.0
1117,69.0,1,30,10.0,0.0
1118,57.0,1,30,11.0,0.0
1119,69.0,2,30,10.0,0.0
1120,76.0,0,240,0.0,0.0
1121,81.0,2,240,0.0,0.0
1122,69.0,28,30,11.0,0.0
1123,64.0,0,240,4.0,0.0
1124,69.0,1,240,1.0,0.0
1125,64.0,0,240,1.0,0.0
1126,64.0,0,240,12.0,0.0
1127,57.0,4,240,12.0,0.0
1128,81.0,0,60,2.0,0.0
1129,57.0,2,240,5.0,0.0
1130,48.0,3,240,13.0,0.0
1131,69.0,0,60,3.0,0.0
1132,36.0,53,240,14.0,0.0
1133,64.0,2,30,10.0,0.0
1134,64.0,4,30,11.0,0.0
1135,69.0,2,30,10.0,0.0
1136,69.0,26,30,11.0,0.0
1137,72.0,2,60,2.0,0.0
1138,76.0,6,15,2.0,0.0
1139,64.0,18,15,3.0,0.0
1140,60.0,26,60,3.0,0.0
1141,64.0,2,30,10.0,0.0
1142,64.0,2,30,11.0,0.0
1143,60.0,2,30,10.0,0.0
1144,60.0,28,30,11.0,0.0
1145,69.0,6,60,2.0,0.0
1146,72.0,0,60,2.0,0.0
1147,60.0,0,60,3.0,0.0
1148,57.0,18,60,3.0,0.0
1149,57.0,2,30,10.0,0.0
1150,57.0,4,30,11.0,0.0
1151,60.0,2,30,10.0,0.0
1152,60.0,21,30,11.0,0.0
1153,64.0,0,60,2.0,0.0
1154,69.0,0,60,2.0,0.0
1155,52.0,0,60,3.0,0.0
1156,57.0,0,60,3.0,0.0
1157,57.0,1,30,10.0,0.0
1158,57.0,1,30,11.0,0.0
1159,57.0,1,60,10.0,0.0
1160,75.0,1,60,0.0,0.0
1161,81.0,0,60,0.0,0.0
1162,57.0,2,60,11.0,0.0
1163,63.0,1,60,4.0,0.0
1164,63.0,0,60,1.0,0.0
1165,69.0,0,60,1.0,0.0
1166,54.0,0,60,12.0,0.0
1167,51.0,1,60,12.0,0.0
1168,69.0,0,60,2.0,0.0
1169,66.0,6,60,2.0,0.0
1170,57.0,0,60,5.0,0.0
1171,47.0,3,120,13.0,0.0
1172,54.0,57,60,3.0,0.0
1173,57.0,0,60,3.0,0.0
1174,35.0,117,120,14.0,0.0
1175,48.0,3,120,13.0,0.0
1176,36.0,50,120,14.0,0.0
1177,57.0,3,60,11.0,0.0
1178,54.0,0,60,12.0,0.0
1179,51.0,64,60,12.0,0.0
1180,47.0,3,120,13.0,0.0
1181,35.0,117,120,14.0,0.0
1182,48.0,3,120,13.0,0.0
1183,36.0,50,120,14.0,0.0
1184,66.0,9,120,10.0,0.0
1185,57.0,3,60,11.0,0.0
1186,54.0,0,60,12.0,0.0
1187,51.0,55,60,12.0,0.0
1188,47.0,3,120,13.0,0.0
1189,54.0,108,120,3.0,0.0
1190,35.0,0,120,14.0,0.0
1191,67.0,12,120,10.0,0.0
1192,55.0,50,120,3.0,0.0
1193,66.0,12,120,10.0,0.0
1194,62.0,3,60,11.0,0.0
1195,55.0,0,60,12.0,0.0
1196,50.0,4,60,12.0,0.0
1197,46.0,3,60,13.0,0.0
1198,34.0,48,60,14.0,0.0
1199,54.0,108,120,3.0,0.0
1200,67.0,12,120,10.0,0.0
1201,55.0,50,120,3.0,0.0
1202,64.0,3,60,11.0,0.0
1203,49.0,64,60,12.0,0.0
1204,55.0,0,60,12.0,0.0
1205,45.0,3,120,13.0,0.0
1206,33.0,117,120,14.0,0.0
1207,46.0,3,120,13.0,0.0
1208,34.0,50,120,14.0,0.0
1209,64.0,3,60,11.0,0.0
1210,61.0,64,60,12.0,0.0
1211,55.0,0,60,12.0,0.0
1212,45.0,3,120,13.0,0.0
1213,33.0,112,120,14.0,0.0
1214,46.0,3,120,13.0,0.0
1215,34.0,55,120,14.0,0.0
1216,64.0,12,120,10.0,0.0
1217,64.0,3,60,11.0,0.0
1218,61.0,0,60,12.0,0.0
1219,55.0,4,60,12.0,0.0
1220,45.0,3,60,13.0,0.0
1221,52.0,108,120,3.0,0.0
1222,33.0,48,60,14.0,0.0
1223,65.0,12,120,10.0,0.0
1224,53.0,50,120,3.0,0.0
1225,64.0,12,120,10.0,0.0
1226,59.0,3,60,11.0,0.0
1227,62.0,0,60,12.0,0.0
1228,53.0,4,60,12.0,0.0
1229,44.0,3,60,13.0,0.0
1230,52.0,103,120,3.0,0.0
1231,32.0,48,60,14.0,0.0
1232,65.0,17,120,10.0,0.0
1233,53.0,48,120,3.0,0.0
1234,62.0,2,60,10.0,0.0
1235,59.0,3,60,11.0,0.0
1236,53.0,64,60,12.0,0.0
1237,43.0,3,120,13.0,0.0
1238,31.0,168,120,14.0,0.0
1239,44.0,3,360,13.0,0.0
1240,32.0,53,360,14.0,0.0
1241,62.0,2,60,10.0,0.0
1242,59.0,3,60,11.0,0.0
1243,53.0,179,60,12.0,0.0
1244,60.0,2,60,10.0,0.0
1245,57.0,3,60,11.0,0.0
1246,54.0,64,60,12.0,0.0
1247,39.0,3,120,13.0,0.0
1248,39.0,168,120,14.0,0.0
1249,40.0,3,360,13.0,0.0
1250,40.0,53,360,14.0,0.0
1251,60.0,2,60,10.0,0.0
1252,57.0,3,60,11.0,0.0
1253,52.0,179,60,12.0,0.0
1254,59.0,2,60,10.0,0.0
1255,57.0,3,60,11.0,0.0
1256,52.0,235,60,12.0,0.0
1257,40.0,3,600,13.0,0.0
1258,40.0,168,600,14.0,0.0
1259,59.0,2,60,10.0,0.0
1260,56.0,3,60,11.0,0.0
1261,50.0,235,60,12.0,0.0
1262,61.0,2,60,10.0,0.0
1263,57.0,3,60,11.0,0.0
1264,49.0,64,60,12.0,0.0
1265,45.0,3,240,13.0,0.0
1266,33.0,168,240,14.0,0.0
1267,57.0,2,60,10.0,0.0
1268,57.0,3,60,11.0,0.0
1269,49.0,64,60,12.0,0.0
1270,57.0,2,60,10.0,0.0
1271,55.0,3,60,11.0,0.0
1272,49.0,53,60,12.0,0.0
1273,69.0,6,120,2.0,0.0
1274,57.0,226,120,3.0,0.0
1275,69.0,6,360,2.0,0.0
1276,57.0,34,360,3.0,0.0
1277,69.0,2,120,10.0,0.0
1278,60.0,0,120,10.0,0.0
1279,57.0,0,120,11.0,0.0
1280,66.0,3,120,11.0,0.0
1281,50.0,4,120,12.0,0.0
1282,54.0,0,120,12.0,0.0
1283,38.0,0,120,13.0,0.0
1284,48.0,3,120,13.0,0.0
1285,38.0,116,120,14.0,0.0
1286,60.0,0,240,10.0,0.0
1287,69.0,2,240,10.0,0.0
1288,66.0,3,240,11.0,0.0
1289,57.0,0,240,11.0,0.0
1290,54.0,0,240,12.0,0.0
1291,50.0,3,240,12.0,0.0
1292,48.0,0,240,13.0,0.0
1293,38.0,3,240,13.0,0.0
1294,38.0,2,240,14.0,0.0
1295,71.0,6,30,2.0,0.0
1296,59.0,34,30,3.0,0.0
1297,69.0,6,30,2.0,0.0
1298,57.0,26,30,3.0,0.0
1299,71.0,1,30,2.0,0.0
1300,59.0,114,30,3.0,0.0
1301,72.0,6,120,2.0,0.0
1302,60.0,50,120,3.0,0.0
1303,60.0,0,120,10.0,0.0
1304,69.0,2,120,10.0,0.0
1305,67.0,0,120,11.0,0.0
1306,57.0,2,120,11.0,0.0
1307,55.0,0,120,12.0,0.0
1308,48.0,4,120,12.0,0.0
1309,74.0,6,60,2.0,0.0
1310,39.0,1,120,13.0,0.0
1311,48.0,0,120,13.0,0.0
1312,62.0,50,60,3.0,0.0
1313,39.0,124,120,14.0,0.0
1314,72.0,1,60,2.0,0.0
1315,60.0,2,60,3.0,0.0
1316,69.0,0,240,10.0,0.0
1317,60.0,2,240,10.0,0.0
1318,57.0,3,240,11.0,0.0
1319,67.0,0,240,11.0,0.0
1320,48.0,0,240,12.0,0.0
1321,55.0,3,240,12.0,0.0
1322,71.0,6,120,2.0,0.0
1323,39.0,0,240,13.0,0.0
1324,48.0,3,240,13.0,0.0
1325,59.0,98,120,3.0,0.0
1326,39.0,2,240,14.0,0.0
1327,69.0,1,120,2.0,0.0
1328,57.0,226,120,3.0,0.0
1329,69.0,6,360,2.0,0.0
1330,57.0,26,360,3.0,0.0
1331,60.0,2,120,10.0,0.0
1332,69.0,0,120,10.0,0.0
1333,57.0,0,120,11.0,0.0
1334,66.0,3,120,11.0,0.0
1335,54.0,4,120,12.0,0.0
1336,50.0,0,120,12.0,0.0
1337,38.0,3,120,13.0,0.0
1338,48.0,0,120,13.0,0.0
1339,38.0,124,120,14.0,0.0
1340,69.0,2,240,10.0,0.0
1341,60.0,0,240,10.0,0.0
1342,57.0,3,240,11.0,0.0
1343,66.0,0,240,11.0,0.0
1344,50.0,0,240,12.0,0.0
1345,54.0,3,240,12.0,0.0
1346,38.0,0,240,13.0,0.0
1347,48.0,3,240,13.0,0.0
1348,38.0,2,240,14.0,0.0
1349,68.0,6,30,2.0,0.0
1350,56.0,34,30,3.0,0.0
1351,66.0,6,30,2.0,0.0
1352,54.0,26,30,3.0,0.0
1353,68.0,1,30,2.0,0.0
1354,56.0,114,30,3.0,0.0
1355,69.0,6,120,2.0,0.0
1356,57.0,34,120,3.0,0.0
1357,65.0,2,120,10.0,0.0
1358,56.0,3,120,11.0,0.0
1359,59.0,0,120,12.0,0.0
1360,53.0,3,120,12.0,0.0
1361,68.0,6,30,2.0,0.0
1362,50.0,0,120,13.0,0.0
1363,38.0,3,120,13.0,0.0
1364,56.0,34,30,3.0,0.0
1365,38.0,2,120,14.0,0.0
1366,66.0,6,30,2.0,0.0
1367,54.0,26,30,3.0,0.0
1368,68.0,1,30,2.0,0.0
1369,56.0,34,30,3.0,0.0
1370,64.0,2,120,10.0,0.0
1371,57.0,3,120,11.0,0.0
1372,60.0,3,120,12.0,0.0
1373,52.0,0,120,12.0,0.0
1374,69.0,6,30,2.0,0.0
1375,36.0,3,120,13.0,0.0
1376,48.0,0,120,13.0,0.0
1377,57.0,34,30,3.0,0.0
1378,36.0,2,120,14.0,0.0
1379,68.0,6,30,2.0,0.0
1380,56.0,26,30,3.0,0.0
1381,69.0,1,30,2.0,0.0
1382,57.0,50,30,3.0,0.0
1383,63.0,2,120,10.0,0.0
1384,60.0,2,120,11.0,0.0
1385,51.0,4,120,12.0,0.0
1386,55.0,0,120,12.0,0.0
1387,72.0,6,60,2.0,0.0
1388,45.0,1,120,13.0,0.0
1389,60.0,50,60,3.0,0.0
1390,33.0,238,120,14.0,0.0
1391,69.0,1,60,2.0,0.0
1392,57.0,2,60,3.0,0.0
1393,67.0,3,360,2.0,0.0
1394,55.0,98,360,3.0,0.0
1395,62.0,2,120,10.0,0.0
1396,59.0,3,120,11.0,0.0
1397,55.0,4,120,12.0,0.0
1398,38.0,1,240,13.0,0.0
1399,50.0,110,120,13.0,0.0
1400,38.0,0,240,14.0,0.0
1401,61.0,2,120,10.0,0.0
1402,58.0,3,120,11.0,0.0
1403,52.0,1,120,12.0,0.0
1404,43.0,3,120,13.0,0.0
1405,62.0,2,120,10.0,0.0
1406,57.0,3,120,11.0,0.0
1407,74.0,0,120,1.0,0.0
1408,62.0,3,120,4.0,0.0
1409,54.0,1,120,12.0,0.0
1410,66.0,6,120,2.0,0.0
1411,50.0,3,120,13.0,0.0
1412,38.0,0,120,13.0,0.0
1413,54.0,218,120,3.0,0.0
1414,38.0,4,120,14.0,0.0
1415,62.0,0,360,4.0,0.0
1416,74.0,40,360,1.0,0.0
1417,62.0,2,120,10.0,0.0
1418,65.0,1,120,0.0,0.0
1419,71.0,0,120,0.0,0.0
1420,59.0,3,120,11.0,0.0
1421,53.0,4,120,12.0,0.0
1422,43.0,2,120,13.0,0.0
1423,43.0,114,120,14.0,0.0
1424,62.0,2,240,10.0,0.0
1425,65.0,1,240,0.0,0.0
1426,71.0,0,240,0.0,0.0
1427,59.0,3,240,11.0,0.0
1428,53.0,1,240,12.0,0.0
1429,43.0,2,240,13.0,0.0
1430,43.0,114,240,14.0,0.0
1431,64.0,0,30,4.0,0.0
1432,76.0,40,30,1.0,0.0
1433,74.0,0,30,1.0,0.0
1434,62.0,34,30,4.0,0.0
1435,76.0,3,30,1.0,0.0
1436,64.0,0,30,4.0,0.0
1437,65.0,56,120,4.0,0.0
1438,77.0,0,120,1.0,0.0
1439,62.0,2,120,10.0,0.0
1440,72.0,0,120,0.0,0.0
1441,65.0,1,120,0.0,0.0
1442,60.0,3,120,11.0,0.0
1443,67.0,58,60,4.0,0.0
1444,79.0,0,60,1.0,0.0
1445,53.0,4,120,12.0,0.0
1446,44.0,2,120,13.0,0.0
1447,44.0,122,120,14.0,0.0
1448,77.0,0,60,1.0,0.0
1449,65.0,0,60,4.0,0.0
1450,62.0,2,240,10.0,0.0
1451,65.0,1,240,0.0,0.0
1452,72.0,0,240,0.0,0.0
1453,60.0,3,240,11.0,0.0
1454,76.0,106,120,1.0,0.0
1455,64.0,0,120,4.0,0.0
1456,53.0,1,240,12.0,0.0
1457,44.0,2,240,13.0,0.0
1458,44.0,228,240,14.0,0.0
1459,62.0,0,120,4.0,0.0
1460,74.0,3,120,1.0,0.0
1461,62.0,114,240,4.0,0.0
1462,74.0,0,240,1.0,0.0
1463,74.0,6,360,2.0,0.0
1464,62.0,34,360,3.0,0.0
1465,62.0,2,120,10.0,0.0
1466,59.0,3,120,11.0,0.0
1467,53.0,4,120,12.0,0.0
1468,43.0,2,120,13.0,0.0
1469,43.0,2,120,14.0,0.0
1470,62.0,2,240,10.0,0.0
1471,65.0,0,15,0.0,0.0
1472,71.0,1,15,0.0,0.0
1473,59.0,3,240,11.0,0.0
1474,53.0,3,240,12.0,0.0
1475,43.0,2,240,13.0,0.0
1476,43.0,2,240,14.0,0.0
1477,73.0,6,30,2.0,0.0
1478,61.0,34,30,3.0,0.0
1479,71.0,6,30,2.0,0.0
1480,59.0,26,30,3.0,0.0
1481,73.0,1,30,2.0,0.0
1482,61.0,114,30,3.0,0.0
1483,74.0,6,120,2.0,0.0
1484,62.0,34,120,3.0,0.0
1485,62.0,2,120,10.0,0.0
1486,71.0,0,120,0.0,0.0
1487,66.0,1,120,0.0,0.0
1488,59.0,3,120,11.0,0.0
1489,54.0,3,120,12.0,0.0
1490,73.0,6,30,2.0,0.0
1491,42.0,2,120,13.0,0.0
1492,50.0,106,120,3.0,0.0
1493,61.0,34,30,3.0,0.0
1494,42.0,2,120,14.0,0.0
1495,71.0,6,30,2.0,0.0
1496,59.0,26,30,3.0,0.0
1497,73.0,1,30,2.0,0.0
1498,61.0,8,30,3.0,0.0
1499,74.0,6,120,2.0,0.0
1500,62.0,50,120,3.0,0.0
1501,61.0,2,120,10.0,0.0
1502,66.0,0,120,0.0,0.0
1503,70.0,1,120,0.0,0.0
1504,58.0,2,120,11.0,0.0
1505,54.0,4,120,12.0,0.0
1506,73.0,6,60,2.0,0.0
1507,42.0,1,120,13.0,0.0
1508,42.0,10,120,14.0,0.0
1509,61.0,50,60,3.0,0.0
1510,52.0,229,120,3.0,0.0
1511,74.0,1,60,2.0,0.0
1512,62.0,1,60,3.0,0.0
1513,73.0,6,360,2.0,0.0
1514,61.0,48,360,3.0,0.0
1515,70.0,0,240,0.0,0.0
1516,64.0,8,120,0.0,0.0
1517,47.0,3,120,13.0,0.0
1518,35.0,109,120,14.0,0.0
1519,55.0,0,120,3.0,0.0
1520,67.0,5,120,0.0,0.0
1521,52.0,0,120,3.0,0.0
1522,71.0,5,60,10.0,0.0
1523,66.0,1,120,0.0,0.0
1524,71.0,0,120,0.0,0.0
1525,66.0,3,120,11.0,0.0
1526,62.0,55,60,12.0,0.0
1527,71.0,3,120,2.0,0.0
1528,50.0,3,120,13.0,0.0
1529,59.0,0,120,3.0,0.0
1530,50.0,48,120,3.0,0.0
1531,38.0,0,120,14.0,0.0
1532,69.0,1,60,10.0,0.0
1533,60.0,1,60,12.0,0.0
1534,74.0,5,60,10.0,0.0
1535,66.0,3,120,11.0,0.0
1536,59.0,55,60,12.0,0.0
1537,72.0,2,60,10.0,0.0
1538,57.0,4,60,12.0,0.0
1539,71.0,5,60,10.0,0.0
1540,66.0,7,120,11.0,0.0
1541,62.0,52,60,12.0,0.0
1542,50.0,51,15,13.0,0.0
1543,69.0,2,60,10.0,0.0
1544,60.0,3,60,12.0,0.0
1545,74.0,2,120,10.0,0.0
1546,67.0,11,120,11.0,0.0
1547,59.0,47,60,12.0,0.0
1548,50.0,51,120,13.0,0.0
1549,58.0,4,60,12.0,0.0
1550,67.0,5,60,10.0,0.0
1551,59.0,52,60,12.0,0.0
1552,50.0,1,120,13.0,0.0
1553,66.0,1,60,10.0,0.0
1554,57.0,3,60,12.0,0.0
1555,71.0,5,60,10.0,0.0
1556,62.0,58,15,11.0,0.0
1557,55.0,55,60,12.0,0.0
1558,69.0,2,60,10.0,0.0
1559,54.0,4,60,12.0,0.0
1560,67.0,5,60,10.0,0.0
1561,62.0,3,15,11.0,0.0
1562,59.0,47,60,12.0,0.0
1563,50.0,51,15,13.0,0.0
1564,66.0,5,60,10.0,0.0
1565,57.0,5,60,12.0,0.0
1566,64.0,23,15,10.0,0.0
1567,61.0,7,120,11.0,0.0
1568,55.0,25,60,12.0,0.0
1569,45.0,52,120,13.0,0.0
1570,66.0,25,20,10.0,0.0
1571,64.0,22,60,10.0,0.0
1572,57.0,5,60,12.0,0.0
1573,62.0,5,20,10.0,0.0
1574,62.0,1,120,10.0,0.0
1575,83.0,5,60,0.0,0.0
1576,62.0,6,120,11.0,0.0
1577,62.0,1,120,4.0,0.0
1578,54.0,1,120,12.0,0.0
1579,71.0,6,60,2.0,0.0
1580,38.0,3,120,13.0,0.0
1581,62.0,42,60,3.0,0.0
1582,50.0,0,120,3.0,0.0
1583,81.0,3,60,0.0,0.0
1584,69.0,3,60,2.0,0.0
1585,60.0,49,60,3.0,0.0
1586,78.0,0,15,0.0,0.0
1587,86.0,5,60,0.0,0.0
1588,66.0,0,15,2.0,0.0
1589,74.0,6,60,2.0,0.0
1590,62.0,0,15,5.0,0.0
1591,59.0,49,60,3.0,0.0
1592,50.0,49,120,3.0,0.0
1593,84.0,0,60,0.0,0.0
1594,72.0,0,60,2.0,0.0
1595,57.0,0,60,3.0,0.0
1596,83.0,5,60,0.0,0.0
1597,78.0,0,120,0.0,0.0
1598,62.0,2,15,4.0,0.0
1599,62.0,6,15,5.0,0.0
1600,71.0,6,60,2.0,0.0
1601,66.0,6,120,2.0,0.0
1602,62.0,49,60,3.0,0.0
1603,50.0,52,120,3.0,0.0
1604,81.0,3,60,0.0,0.0
1605,69.0,0,60,2.0,0.0
1606,60.0,0,60,3.0,0.0
1607,79.0,5,120,0.0,0.0
1608,86.0,0,120,0.0,0.0
1609,62.0,0,120,4.0,0.0
1610,62.0,6,120,5.0,0.0
1611,74.0,6,120,2.0,0.0
1612,67.0,0,120,2.0,0.0
1613,59.0,49,60,3.0,0.0
1614,50.0,2,120,3.0,0.0
1615,58.0,49,60,3.0,0.0
1616,79.0,5,60,0.0,0.0
1617,74.0,5,120,0.0,0.0
1618,62.0,3,120,2.0,0.0
1619,67.0,6,60,2.0,0.0
1620,59.0,41,60,3.0,0.0
1621,78.0,5,60,0.0,0.0
1622,66.0,6,60,2.0,0.0
1623,57.0,49,60,3.0,0.0
1624,83.0,5,60,0.0,0.0
1625,74.0,5,120,0.0,0.0
1626,62.0,3,120,2.0,0.0
1627,71.0,6,60,2.0,0.0
1628,50.0,0,15,3.0,0.0
1629,55.0,41,60,3.0,0.0
1630,81.0,5,60,0.0,0.0
1631,69.0,6,60,2.0,0.0
1632,54.0,0,60,3.0,0.0
1633,79.0,5,60,0.0,0.0
1634,74.0,5,120,0.0,0.0
1635,62.0,0,120,2.0,0.0
1636,67.0,6,60,2.0,0.0
1637,50.0,49,15,3.0,0.0
1638,59.0,41,60,3.0,0.0
1639,78.0,0,60,0.0,0.0
1640,66.0,6,60,2.0,0.0
1641,57.0,13,60,3.0,0.0
1642,76.0,5,15,0.0,0.0
1643,73.0,5,120,0.0,0.0
1644,61.0,6,120,2.0,0.0
1645,64.0,18,15,2.0,0.0
1646,55.0,19,60,3.0,0.0
1647,45.0,56,120,3.0,0.0
1648,78.0,5,20,0.0,0.0
1649,66.0,27,20,2.0,0.0
1650,76.0,5,60,0.0,0.0
1651,64.0,9,60,2.0,0.0
1652,57.0,0,60,3.0,0.0
1653,74.0,5,15,0.0,0.0
1654,62.0,3,15,2.0,0.0
1655,69.0,5,60,10.0,0.0
1656,74.0,1,120,0.0,0.0
1657,54.0,55,60,12.0,0.0
1658,62.0,3,120,2.0,0.0
1659,50.0,0,120,3.0,0.0
1660,54.0,48,120,3.0,0.0
1661,71.0,1,60,10.0,0.0
1662,55.0,1,60,12.0,0.0
1663,66.0,5,60,10.0,0.0
1664,62.0,3,15,11.0,0.0
1665,57.0,47,60,12.0,0.0
1666,50.0,3,15,13.0,0.0
1667,67.0,5,60,10.0,0.0
1668,59.0,5,60,12.0,0.0
1669,69.0,5,60,10.0,0.0
1670,62.0,7,120,11.0,0.0
1671,54.0,47,60,12.0,0.0
1672,50.0,51,15,13.0,0.0
1673,71.0,5,60,10.0,0.0
1674,55.0,5,60,12.0,0.0
1675,66.0,2,120,10.0,0.0
1676,62.0,7,120,11.0,0.0
1677,57.0,40,30,12.0,0.0
1678,50.0,52,120,13.0,0.0
1679,59.0,35,30,12.0,0.0
1680,60.0,7,90,12.0,0.0
1681,79.0,3,120,0.0,0.0
1682,84.0,3,60,0.0,0.0
1683,67.0,0,120,4.0,0.0
1684,72.0,1,60,1.0,0.0
1685,72.0,3,120,2.0,0.0
1686,52.0,46,60,3.0,0.0
1687,60.0,0,120,3.0,0.0
1688,88.0,0,60,0.0,0.0
1689,76.0,2,60,1.0,0.0
1690,48.0,49,60,3.0,0.0
1691,83.0,3,60,0.0,0.0
1692,71.0,2,60,1.0,0.0
1693,67.0,0,120,4.0,0.0
1694,74.0,6,60,2.0,0.0
1695,55.0,6,15,5.0,0.0
1696,62.0,0,60,3.0,0.0
1697,53.0,41,60,3.0,0.0
1698,84.0,3,60,0.0,0.0
1699,72.0,2,60,1.0,0.0
1700,72.0,3,60,2.0,0.0
1701,52.0,0,60,3.0,0.0
1702,60.0,2,60,3.0,0.0
1703,79.0,3,15,0.0,0.0
1704,86.0,3,60,0.0,0.0
1705,74.0,0,60,1.0,0.0
1706,55.0,55,15,5.0,0.0
1707,71.0,6,60,2.0,0.0
1708,50.0,2,60,3.0,0.0
1709,59.0,41,60,3.0,0.0
1710,88.0,3,60,0.0,0.0
1711,76.0,2,60,1.0,0.0
1712,72.0,3,60,2.0,0.0
1713,60.0,0,60,3.0,0.0
1714,48.0,0,60,3.0,0.0
1715,83.0,3,180,0.0,0.0
1716,79.0,0,180,0.0,0.0
1717,67.0,2,15,4.0,0.0
1718,71.0,2,180,1.0,0.0
1719,74.0,6,30,2.0,0.0
1720,55.0,0,180,5.0,0.0
1721,53.0,34,30,3.0,0.0
1722,62.0,0,30,3.0,0.0
1723,76.0,6,30,2.0,0.0
1724,52.0,0,30,3.0,0.0
1725,64.0,89,30,3.0,0.0
1726,77.0,6,90,2.0,0.0
1727,65.0,0,90,3.0,0.0
1728,50.0,40,90,3.0,0.0
1729,91.0,2,120,10.0,0.0
1730,79.0,3,120,11.0,0.0
1731,67.0,235,120,12.0,0.0
1732,91.0,2,240,10.0,0.0
1733,79.0,2,240,11.0,0.0
1734,67.0,5,240,12.0,0.0
1735,75.0,1,120,2.0,0.0
1736,63.0,235,120,3.0,0.0
1737,75.0,6,360,2.0,0.0
1738,63.0,102,360,3.0,0.0
1739,58.0,4,120,12.0,0.0
1740,48.0,0,120,13.0,0.0
1741,55.0,0,120,13.0,0.0
1742,36.0,3,120,13.0,0.0
1743,36.0,122,120,14.0,0.0
1744,58.0,4,240,12.0,0.0
1745,36.0,1,240,13.0,0.0
1746,55.0,0,240,13.0,0.0
1747,48.0,0,240,13.0,0.0
1748,36.0,227,240,14.0,0.0
1749,67.0,1,120,4.0,0.0
1750,79.0,2,120,1.0,0.0
1751,76.0,0,120,2.0,0.0
1752,64.0,2,120,3.0,0.0
1753,79.0,2,240,1.0,0.0
1754,67.0,6,240,4.0,0.0
1755,87.0,3,120,0.0,0.0
1756,75.0,0,120,2.0,0.0
1757,63.0,239,120,3.0,0.0
1758,87.0,5,360,0.0,0.0
1759,75.0,6,360,2.0,0.0
1760,63.0,110,360,3.0,0.0
1761,61.0,0,120,13.0,0.0
1762,45.0,0,120,13.0,0.0
1763,55.0,3,120,13.0,0.0
1764,33.0,107,120,14.0,0.0
1765,55.0,3,240,13.0,0.0
1766,45.0,0,240,13.0,0.0
1767,61.0,0,240,13.0,0.0
1768,33.0,228,240,14.0,0.0
1769,88.0,2,120,10.0,0.0
1770,76.0,3,120,11.0,0.0
1771,64.0,4,120,12.0,0.0
1772,88.0,2,240,10.0,0.0
1773,76.0,2,240,11.0,0.0
1774,64.0,5,240,12.0,0.0
1775,68.0,1,120,2.0,0.0
1776,56.0,235,120,3.0,0.0
1777,68.0,6,360,2.0,0.0
1778,56.0,102,360,3.0,0.0
1779,50.0,4,120,12.0,0.0
1780,60.0,0,120,12.0,0.0
1781,54.0,3,120,13.0,0.0
1782,38.0,0,120,13.0,0.0
1783,48.0,0,120,13.0,0.0
1784,38.0,122,120,14.0,0.0
1785,50.0,0,240,12.0,0.0
1786,60.0,2,240,12.0,0.0
1787,38.0,0,240,13.0,0.0
1788,54.0,1,240,13.0,0.0
1789,48.0,0,240,13.0,0.0
1790,38.0,227,240,14.0,0.0
1791,69.0,2,120,1.0,0.0
1792,57.0,2,120,4.0,0.0
1793,69.0,1,120,2.0,0.0
1794,57.0,2,120,3.0,0.0
1795,69.0,2,240,1.0,0.0
1796,57.0,3,240,4.0,0.0
1797,87.0,3,120,0.0,0.0
1798,75.0,3,120,2.0,0.0
1799,63.0,229,120,3.0,0.0
1800,87.0,5,240,0.0,0.0
1801,75.0,6,240,2.0,0.0
1802,63.0,119,240,3.0,0.0
1803,38.0,3,240,13.0,0.0
1804,54.0,0,240,13.0,0.0
1805,48.0,0,240,13.0,0.0
1806,38.0,36,240,14.0,0.0
1807,86.0,2,150,10.0,0.0
1808,74.0,3,150,11.0,0.0
1809,62.0,35,150,12.0,0.0
1810,38.0,0,120,13.0,0.0
1811,48.0,3,120,13.0,0.0
1812,54.0,0,120,13.0,0.0
1813,38.0,36,120,14.0,0.0
1814,88.0,2,30,10.0,0.0
1815,76.0,3,30,11.0,0.0
1816,64.0,32,30,12.0,0.0
1817,86.0,2,90,10.0,0.0
1818,74.0,38,90,11.0,0.0
1819,62.0,4,30,12.0,0.0
1820,55.0,4,120,12.0,0.0
1821,47.0,3,120,13.0,0.0
1822,55.0,0,120,13.0,0.0
1823,55.0,0,120,3.0,0.0
1824,31.0,28,120,14.0,0.0
1825,47.0,8,120,3.0,0.0
1826,85.0,2,30,10.0,0.0
1827,73.0,35,30,11.0,0.0
1828,86.0,2,90,10.0,0.0
1829,74.0,23,90,11.0,0.0
1830,57.0,4,60,12.0,0.0
1831,57.0,3,60,13.0,0.0
1832,48.0,0,60,13.0,0.0
1833,57.0,0,60,3.0,0.0
1834,48.0,8,60,3.0,0.0
1835,88.0,2,30,10.0,0.0
1836,76.0,35,30,11.0,0.0
1837,54.0,4,60,12.0,0.0
1838,54.0,3,60,13.0,0.0
1839,45.0,0,60,13.0,0.0
1840,45.0,0,60,3.0,0.0
1841,54.0,8,60,3.0,0.0
1842,86.0,2,90,10.0,0.0
1843,74.0,23,90,11.0,0.0
1844,55.0,4,60,12.0,0.0
1845,55.0,0,60,13.0,0.0
1846,47.0,3,60,13.0,0.0
1847,47.0,0,60,3.0,0.0
1848,31.0,28,15,14.0,0.0
1849,55.0,8,60,3.0,0.0
1850,85.0,2,30,10.0,0.0
1851,73.0,42,30,11.0,0.0
1852,50.0,4,60,12.0,0.0
1853,59.0,3,60,13.0,0.0
1854,59.0,0,60,3.0,0.0
1855,50.0,28,60,3.0,0.0
1856,86.0,2,90,10.0,0.0
1857,74.0,23,90,11.0,0.0
1858,57.0,4,60,12.0,0.0
1859,60.0,3,60,13.0,0.0
1860,60.0,8,60,3.0,0.0
1861,88.0,2,30,10.0,0.0
1862,76.0,35,30,11.0,0.0
1863,54.0,4,60,12.0,0.0
1864,57.0,3,60,13.0,0.0
1865,54.0,8,60,3.0,0.0
1866,57.0,0,15,3.0,0.0
1867,86.0,2,90,10.0,0.0
1868,74.0,23,90,11.0,0.0
1869,55.0,4,60,12.0,0.0
1870,59.0,3,60,13.0,0.0
1871,59.0,8,60,3.0,0.0
1872,55.0,0,60,3.0,0.0
1873,43.0,28,15,14.0,0.0
1874,85.0,2,30,10.0,0.0
1875,73.0,43,30,11.0,0.0
1876,59.0,4,60,12.0,0.0
1877,62.0,3,60,13.0,0.0
1878,59.0,28,60,3.0,0.0
1879,62.0,0,60,3.0,0.0
1880,86.0,2,90,10.0,0.0
1881,74.0,23,90,11.0,0.0
1882,60.0,4,60,12.0,0.0
1883,69.0,3,60,13.0,0.0
1884,43.0,0,15,14.0,0.0
1885,60.0,0,60,3.0,0.0
1886,69.0,8,60,3.0,0.0
1887,88.0,2,30,10.0,0.0
1888,76.0,35,30,11.0,0.0
1889,57.0,7,60,12.0,0.0
1890,66.0,3,60,13.0,0.0
1891,66.0,28,60,3.0,0.0
1892,57.0,5,60,3.0,0.0
1893,86.0,2,90,10.0,0.0
1894,74.0,27,90,11.0,0.0
1895,59.0,4,120,12.0,0.0
1896,67.0,3,60,13.0,0.0
1897,67.0,8,60,3.0,0.0
1898,59.0,0,120,3.0,0.0
1899,43.0,36,120,14.0,0.0
1900,85.0,2,30,10.0,0.0
1901,73.0,35,30,11.0,0.0
1902,62.0,3,60,13.0,0.0
1903,62.0,0,60,3.0,0.0
1904,86.0,2,90,10.0,0.0
1905,74.0,23,90,11.0,0.0
1906,55.0,2,240,4.0,0.0
1907,58.0,4,60,12.0,0.0
1908,43.0,3,240,5.0,0.0
1909,61.0,3,60,13.0,0.0
1910,58.0,8,60,3.0,0.0
1911,31.0,0,120,14.0,0.0
1912,61.0,0,60,3.0,0.0
1913,85.0,2,30,10.0,0.0
1914,73.0,35,30,11.0,0.0
1915,59.0,7,60,12.0,0.0
1916,62.0,3,60,13.0,0.0
1917,62.0,28,60,3.0,0.0
1918,59.0,5,60,3.0,0.0
1919,86.0,2,90,10.0,0.0
1920,74.0,23,90,11.0,0.0
1921,59.0,4,60,12.0,0.0
1922,63.0,3,60,13.0,0.0
1923,63.0,0,60,3.0,0.0
1924,59.0,8,60,3.0,0.0
1925,36.0,0,120,14.0,0.0
1926,87.0,2,30,10.0,0.0
1927,75.0,35,30,11.0,0.0
1928,60.0,2,60,12.0,0.0
1929,64.0,0,60,13.0,0.0
1930,64.0,0,60,3.0,0.0
1931,60.0,36,60,3.0,0.0
1932,88.0,2,90,10.0,0.0
1933,76.0,23,90,11.0,0.0
1934,55.0,2,240,4.0,0.0
1935,58.0,4,60,12.0,0.0
1936,43.0,0,240,5.0,0.0
1937,61.0,3,60,13.0,0.0
1938,31.0,28,120,14.0,0.0
1939,58.0,8,60,3.0,0.0
1940,61.0,0,60,3.0,0.0
1941,85.0,2,30,10.0,0.0
1942,73.0,35,30,11.0,0.0
1943,59.0,7,60,12.0,0.0
1944,62.0,3,60,13.0,0.0
1945,62.0,0,60,3.0,0.0
1946,59.0,5,60,3.0,0.0
1947,86.0,2,90,10.0,0.0
1948,74.0,23,90,11.0,0.0
1949,59.0,4,60,12.0,0.0
1950,63.0,3,60,13.0,0.0
1951,63.0,8,60,3.0,0.0
1952,59.0,0,60,3.0,0.0
1953,36.0,0,120,14.0,0.0
1954,87.0,2,30,10.0,0.0
1955,75.0,35,30,11.0,0.0
1956,60.0,2,60,12.0,0.0
1957,64.0,3,60,13.0,0.0
1958,64.0,0,60,3.0,0.0
1959,60.0,36,60,3.0,0.0
1960,88.0,2,90,10.0,0.0
1961,76.0,23,90,11.0,0.0
1962,54.0,0,120,4.0,0.0
1963,59.0,4,60,12.0,0.0
1964,42.0,34,120,5.0,0.0
1965,62.0,3,60,13.0,0.0
1966,59.0,8,60,3.0,0.0
1967,62.0,0,60,3.0,0.0
1968,38.0,0,120,14.0,0.0
1969,86.0,2,30,10.0,0.0
1970,74.0,35,30,11.0,0.0
1971,57.0,4,60,12.0,0.0
1972,60.0,3,60,13.0,0.0
1973,60.0,2,60,3.0,0.0
1974,57.0,0,60,3.0,0.0
1975,84.0,2,90,10.0,0.0
1976,72.0,23,90,11.0,0.0
1977,55.0,2,120,4.0,0.0
1978,54.0,4,60,12.0,0.0
1979,43.0,3,120,5.0,0.0
1980,58.0,3,60,13.0,0.0
1981,43.0,5,120,14.0,0.0
1982,58.0,0,60,3.0,0.0
1983,54.0,8,60,3.0,0.0
1984,82.0,2,30,10.0,0.0
1985,70.0,35,30,11.0,0.0
1986,55.0,2,60,12.0,0.0
1987,59.0,3,60,13.0,0.0
1988,59.0,28,60,3.0,0.0
1989,55.0,0,60,3.0,0.0
1990,83.0,2,90,10.0,0.0
1991,71.0,23,90,11.0,0.0
1992,55.0,0,120,4.0,0.0
1993,58.0,4,60,12.0,0.0
1994,55.0,34,120,5.0,0.0
1995,61.0,3,60,13.0,0.0
1996,35.0,2,120,14.0,0.0
1997,58.0,8,60,3.0,0.0
1998,61.0,0,60,3.0,0.0
1999,85.0,2,30,10.0,0.0
2000,73.0,35,30,11.0,0.0
2001,59.0,4,60,12.0,0.0
2002,62.0,3,60,13.0,0.0
2003,59.0,0,60,3.0,0.0
2004,62.0,0,60,3.0,0.0
2005,86.0,2,90,10.0,0.0
2006,74.0,27,90,11.0,0.0
2007,62.0,2,240,4.0,0.0
2008,60.0,2,240,12.0,0.0
2009,57.0,0,240,5.0,0.0
2010,69.0,3,60,13.0,0.0
2011,38.0,5,120,14.0,0.0
2012,69.0,8,60,3.0,0.0
2013,60.0,0,240,3.0,0.0
2014,93.0,2,30,10.0,0.0
2015,81.0,42,30,11.0,0.0
2016,64.0,3,60,13.0,0.0
2017,64.0,28,60,3.0,0.0
2018,88.0,2,90,10.0,0.0
2019,76.0,27,90,11.0,0.0
2020,67.0,3,60,13.0,0.0
2021,38.0,0,120,14.0,0.0
2022,67.0,8,60,3.0,0.0
2023,91.0,2,30,10.0,0.0
2024,79.0,35,30,11.0,0.0
2025,66.0,3,60,13.0,0.0
2026,66.0,36,60,3.0,0.0
2027,90.0,2,90,10.0,0.0
2028,78.0,23,90,11.0,0.0
2029,59.0,2,120,4.0,0.0
2030,59.0,4,60,12.0,0.0
2031,55.0,4,120,5.0,0.0
2032,67.0,3,60,13.0,0.0
2033,67.0,0,60,3.0,0.0
2034,59.0,8,60,3.0,0.0
2035,91.0,2,30,10.0,0.0
2036,79.0,37,30,11.0,0.0
2037,58.0,4,60,12.0,0.0
2038,61.0,3,60,13.0,0.0
2039,58.0,28,60,3.0,0.0
2040,61.0,0,60,3.0,0.0
2041,85.0,2,90,10.0,0.0
2042,73.0,23,90,11.0,0.0
2043,59.0,2,240,4.0,0.0
2044,59.0,4,60,12.0,0.0
2045,55.0,3,240,5.0,0.0
2046,62.0,3,60,13.0,0.0
2047,62.0,8,60,3.0,0.0
2048,31.0,0,15,14.0,0.0
2049,59.0,0,60,3.0,0.0
2050,86.0,2,30,10.0,0.0
2051,74.0,35,30,11.0,0.0
2052,54.0,7,60,12.0,0.0
2053,58.0,3,60,13.0,0.0
2054,54.0,5,60,3.0,0.0
2055,58.0,0,60,3.0,0.0
2056,82.0,2,90,10.0,0.0
2057,70.0,27,90,11.0,0.0
2058,55.0,2,120,12.0,0.0
2059,59.0,11,60,13.0,0.0
2060,59.0,28,120,3.0,0.0
2061,55.0,0,120,3.0,0.0
2062,31.0,8,120,14.0,0.0
2063,83.0,2,30,10.0,0.0
2064,71.0,35,30,11.0,0.0
2065,55.0,0,60,13.0,0.0
2066,79.0,2,90,10.0,0.0
2067,67.0,23,90,11.0,0.0
2068,55.0,2,240,4.0,0.0
2069,49.0,4,60,12.0,0.0
2070,59.0,3,120,2.0,0.0
2071,43.0,0,240,5.0,0.0
2072,49.0,11,60,13.0,0.0
2073,43.0,28,120,3.0,0.0
2074,47.0,0,120,3.0,0.0
2075,43.0,0,120,14.0,0.0
2076,73.0,2,30,10.0,0.0
2077,61.0,43,30,11.0,0.0
2078,50.0,1,60,12.0,0.0
2079,50.0,3,60,13.0,0.0
2080,74.0,2,90,10.0,0.0
2081,62.0,23,90,11.0,0.0
2082,51.0,4,60,12.0,0.0
2083,58.0,1,120,2.0,0.0
2084,51.0,11,60,13.0,0.0
2085,39.0,0,120,14.0,0.0
2086,39.0,36,120,3.0,0.0
2087,46.0,0,120,3.0,0.0
2088,75.0,2,30,10.0,0.0
2089,63.0,35,30,11.0,0.0
2090,50.0,1,60,12.0,0.0
2091,50.0,3,60,13.0,0.0
2092,74.0,2,90,10.0,0.0
2093,62.0,23,90,11.0,0.0
2094,55.0,2,240,4.0,0.0
2095,49.0,4,60,12.0,0.0
2096,43.0,3,240,5.0,0.0
2097,59.0,3,120,2.0,0.0
2098,49.0,11,60,13.0,0.0
2099,43.0,28,120,3.0,0.0
2100,47.0,0,120,3.0,0.0
2101,43.0,0,120,14.0,0.0
2102,73.0,2,30,10.0,0.0
2103,61.0,43,30,11.0,0.0
2104,50.0,1,60,12.0,0.0
2105,50.0,3,60,13.0,0.0
2106,74.0,2,90,10.0,0.0
2107,62.0,23,90,11.0,0.0
2108,51.0,4,60,12.0,0.0
2109,58.0,1,120,2.0,0.0
2110,51.0,11,60,13.0,0.0
2111,39.0,28,120,3.0,0.0
2112,39.0,8,120,14.0,0.0
2113,46.0,0,120,3.0,0.0
2114,75.0,2,30,10.0,0.0
2115,63.0,35,30,11.0,0.0
2116,55.0,1,60,12.0,0.0
2117,55.0,0,60,13.0,0.0
2118,79.0,2,90,10.0,0.0
2119,67.0,23,90,11.0,0.0
2120,58.0,2,120,4.0,0.0
2121,51.0,4,60,12.0,0.0
2122,55.0,5,240,5.0,0.0
2123,63.0,6,120,2.0,0.0
2124,58.0,0,120,2.0,0.0
2125,45.0,11,60,13.0,0.0
2126,43.0,28,120,14.0,0.0
2127,51.0,0,120,3.0,0.0
2128,69.0,2,30,10.0,0.0
2129,57.0,35,30,11.0,0.0
2130,55.0,2,60,12.0,0.0
2131,46.0,5,60,13.0,0.0
2132,58.0,23,90,11.0,0.0
2133,59.0,2,120,4.0,0.0
2134,55.0,4,60,12.0,0.0
2135,62.0,0,120,2.0,0.0
2136,59.0,3,120,2.0,0.0
2137,46.0,11,60,13.0,0.0
2138,50.0,28,120,3.0,0.0
2139,43.0,0,15,3.0,0.0
2140,38.0,0,120,14.0,0.0
2141,70.0,2,15,10.0,0.0
2142,58.0,35,30,11.0,0.0
2143,50.0,2,60,12.0,0.0
2144,47.0,3,60,13.0,0.0
2145,71.0,2,90,10.0,0.0
2146,59.0,23,90,11.0,0.0
2147,59.0,2,120,4.0,0.0
2148,55.0,4,60,12.0,0.0
2149,67.0,3,120,2.0,0.0
2150,62.0,0,120,2.0,0.0
2151,55.0,34,120,5.0,0.0
2152,49.0,11,60,13.0,0.0
2153,55.0,0,120,3.0,0.0
2154,35.0,0,120,14.0,0.0
2155,47.0,0,120,3.0,0.0
2156,73.0,2,30,10.0,0.0
2157,61.0,35,30,11.0,0.0
2158,59.0,1,60,12.0,0.0
2159,50.0,3,60,13.0,0.0
2160,74.0,2,90,10.0,0.0
2161,62.0,27,90,11.0,0.0
2162,60.0,2,240,4.0,0.0
2163,60.0,4,180,12.0,0.0
2164,48.0,3,240,5.0,0.0
2165,69.0,0,240,2.0,0.0
2166,57.0,11,60,13.0,0.0
2167,57.0,0,240,3.0,0.0
2168,50.0,0,240,3.0,0.0
2169,38.0,2,240,14.0,0.0
2170,81.0,2,30,10.0,0.0
2171,69.0,47,30,11.0,0.0
2172,52.0,31,60,13.0,0.0
2173,76.0,2,90,10.0,0.0
2174,64.0,23,90,11.0,0.0
2175,55.0,11,60,13.0,0.0
2176,79.0,2,30,10.0,0.0
2177,67.0,35,30,11.0,0.0
2178,57.0,2,60,12.0,0.0
2179,54.0,0,60,13.0,0.0
2180,78.0,2,90,10.0,0.0
2181,66.0,27,90,11.0,0.0
2182,60.0,0,240,4.0,0.0
2183,60.0,4,180,12.0,0.0
2184,57.0,0,120,2.0,0.0
2185,60.0,34,15,2.0,0.0
2186,48.0,36,240,5.0,0.0
2187,57.0,11,60,13.0,0.0
2188,50.0,2,240,3.0,0.0
2189,57.0,0,240,3.0,0.0
2190,38.0,0,240,14.0,0.0
2191,69.0,2,30,10.0,0.0
2192,69.0,44,30,11.0,0.0
2193,52.0,31,60,13.0,0.0
2194,64.0,2,90,10.0,0.0
2195,64.0,23,90,11.0,0.0
2196,55.0,11,60,13.0,0.0
2197,67.0,2,30,10.0,0.0
2198,67.0,35,30,11.0,0.0
2199,57.0,3,60,12.0,0.0
2200,54.0,3,60,13.0,0.0
2201,66.0,1,30,10.0,0.0
2202,66.0,27,90,11.0,0.0
2203,57.0,4,240,12.0,0.0
2204,57.0,13,60,13.0,0.0
2205,48.0,0,240,3.0,0.0
2206,57.0,0,240,3.0,0.0
2207,36.0,41,240,14.0,0.0
2208,69.0,47,30,11.0,0.0
2209,52.0,33,60,13.0,0.0
2210,64.0,27,90,11.0,0.0
2211,55.0,13,60,13.0,0.0
2212,67.0,35,30,11.0,0.0
2213,54.0,1,60,13.0,0.0
2214,66.0,2,30,11.0,0.0
2215,71.0,2,120,10.0,0.0
2216,63.0,10,120,11.0,0.0
2217,66.0,4,30,12.0,0.0
2218,54.0,36,30,13.0,0.0
2219,35.0,33,120,14.0,0.0
2220,54.0,0,120,3.0,0.0
2221,47.0,0,120,3.0,0.0
2222,65.0,4,30,12.0,0.0
2223,53.0,31,30,13.0,0.0
2224,66.0,4,90,12.0,0.0
2225,54.0,11,90,13.0,0.0
2226,73.0,2,60,10.0,0.0
2227,64.0,23,60,11.0,0.0
2228,67.0,4,30,12.0,0.0
2229,55.0,23,30,13.0,0.0
2230,70.0,2,60,10.0,0.0
2231,61.0,51,60,11.0,0.0
2232,66.0,4,90,12.0,0.0
2233,54.0,11,90,13.0,0.0
2234,71.0,2,60,10.0,0.0
2235,63.0,23,60,11.0,0.0
2236,65.0,4,30,12.0,0.0
2237,53.0,31,30,13.0,0.0
2238,75.0,2,60,10.0,0.0
2239,66.0,43,60,11.0,0.0
2240,66.0,4,90,12.0,0.0
2241,54.0,11,90,13.0,0.0
2242,76.0,2,60,10.0,0.0
2243,73.0,23,60,11.0,0.0
2244,67.0,4,30,12.0,0.0
2245,55.0,23,30,13.0,0.0
2246,73.0,2,60,10.0,0.0
2247,70.0,51,60,11.0,0.0
2248,66.0,4,90,12.0,0.0
2249,54.0,11,90,13.0,0.0
2250,75.0,2,60,10.0,0.0
2251,71.0,23,60,11.0,0.0
2252,65.0,4,30,12.0,0.0
2253,53.0,31,30,13.0,0.0
2254,78.0,2,60,10.0,0.0
2255,75.0,43,60,11.0,0.0
2256,85.0,2,60,10.0,0.0
2257,76.0,23,60,11.0,0.0
2258,66.0,4,15,12.0,0.0
2259,54.0,11,15,13.0,0.0
2260,82.0,5,60,10.0,0.0
2261,73.0,43,60,11.0,0.0
2262,64.0,4,30,12.0,0.0
2263,52.0,1,30,13.0,0.0
2264,83.0,2,120,10.0,0.0
2265,66.0,23,60,11.0,0.0
2266,63.0,4,30,12.0,0.0
2267,51.0,13,30,13.0,0.0
2268,66.0,4,30,12.0,0.0
2269,54.0,23,30,13.0,0.0
2270,75.0,51,60,11.0,0.0
2271,71.0,4,90,12.0,0.0
2272,59.0,36,90,13.0,0.0
2273,78.0,2,120,10.0,0.0
2274,75.0,10,120,11.0,0.0
2275,66.0,33,120,3.0,0.0
2276,63.0,0,120,3.0,0.0
2277,72.0,4,30,12.0,0.0
2278,60.0,31,30,13.0,0.0
2279,71.0,4,90,12.0,0.0
2280,59.0,36,90,13.0,0.0
2281,79.0,2,120,10.0,0.0
2282,76.0,10,120,11.0,0.0
2283,67.0,33,120,3.0,0.0
2284,64.0,0,120,3.0,0.0
2285,70.0,4,30,12.0,0.0
2286,58.0,31,30,13.0,0.0
2287,71.0,4,90,12.0,0.0
2288,59.0,36,90,13.0,0.0
2289,78.0,2,120,10.0,0.0
2290,75.0,10,120,11.0,0.0
2291,66.0,0,120,3.0,0.0
2292,63.0,33,120,3.0,0.0
2293,72.0,4,30,12.0,0.0
2294,60.0,31,30,13.0,0.0
2295,71.0,4,90,12.0,0.0
2296,59.0,36,90,13.0,0.0
2297,79.0,2,120,10.0,0.0
2298,76.0,11,120,11.0,0.0
2299,67.0,2,120,3.0,0.0
2300,64.0,0,120,3.0,0.0
2301,70.0,4,30,12.0,0.0
2302,58.0,23,30,13.0,0.0
2303,71.0,2,30,12.0,0.0
2304,59.0,31,30,13.0,0.0
2305,79.0,2,30,10.0,0.0
2306,83.0,3,120,0.0,0.0
2307,86.0,0,120,0.0,0.0
2308,67.0,38,30,11.0,0.0
2309,74.0,0,120,1.0,0.0
2310,62.0,2,120,4.0,0.0
2311,71.0,0,120,1.0,0.0
2312,55.0,4,120,12.0,0.0
2313,71.0,0,120,2.0,0.0
2314,74.0,6,120,2.0,0.0
2315,55.0,0,120,5.0,0.0
2316,43.0,2,120,13.0,0.0
2317,62.0,0,120,3.0,0.0
2318,59.0,28,120,3.0,0.0
2319,81.0,2,30,10.0,0.0
2320,69.0,33,30,11.0,0.0
2321,79.0,2,90,10.0,0.0
2322,67.0,38,90,11.0,0.0
2323,84.0,3,120,0.0,0.0
2324,88.0,0,120,0.0,0.0
2325,72.0,2,120,1.0,0.0
2326,76.0,0,120,1.0,0.0
2327,64.0,0,120,4.0,0.0
2328,60.0,4,120,12.0,0.0
2329,60.0,6,120,5.0,0.0
2330,76.0,0,120,2.0,0.0
2331,72.0,0,120,2.0,0.0
2332,48.0,2,120,13.0,0.0
2333,64.0,0,120,3.0,0.0
2334,60.0,28,120,3.0,0.0
2335,78.0,2,30,10.0,0.0
2336,66.0,33,30,11.0,0.0
2337,79.0,2,90,10.0,0.0
2338,67.0,38,90,11.0,0.0
2339,86.0,0,120,0.0,0.0
2340,83.0,3,120,0.0,0.0
2341,71.0,0,120,1.0,0.0
2342,62.0,2,120,4.0,0.0
2343,74.0,0,120,1.0,0.0
2344,55.0,4,120,12.0,0.0
2345,74.0,0,120,2.0,0.0
2346,71.0,6,120,2.0,0.0
2347,55.0,0,120,5.0,0.0
2348,43.0,2,120,13.0,0.0
2349,59.0,0,120,3.0,0.0
2350,62.0,28,120,3.0,0.0
2351,81.0,2,30,10.0,0.0
2352,69.0,33,30,11.0,0.0
2353,79.0,2,90,10.0,0.0
2354,67.0,38,90,11.0,0.0
2355,84.0,2,120,0.0,0.0
2356,88.0,0,120,0.0,0.0
2357,76.0,2,120,1.0,0.0
2358,72.0,0,120,1.0,0.0
2359,64.0,0,120,4.0,0.0
2360,60.0,1,120,12.0,0.0
2361,72.0,6,120,2.0,0.0
2362,60.0,1,120,5.0,0.0
2363,48.0,0,120,13.0,0.0
2364,60.0,38,120,3.0,0.0
2365,64.0,0,120,3.0,0.0
2366,78.0,2,30,10.0,0.0
2367,66.0,30,30,11.0,0.0
2368,79.0,2,30,10.0,0.0
2369,67.0,1,30,11.0,0.0
2370,81.0,2,120,10.0,0.0
2371,72.0,2,120,11.0,0.0
2372,65.0,0,120,4.0,0.0
2373,72.0,2,120,1.0,0.0
2374,81.0,0,120,1.0,0.0
2375,65.0,4,30,12.0,0.0
2376,76.0,39,120,2.0,0.0
2377,60.0,0,120,5.0,0.0
2378,53.0,36,30,13.0,0.0
2379,67.0,4,30,12.0,0.0
2380,55.0,31,30,13.0,0.0
2381,65.0,4,90,12.0,0.0
2382,53.0,36,90,13.0,0.0
2383,82.0,2,120,10.0,0.0
2384,74.0,2,120,11.0,0.0
2385,74.0,0,120,1.0,0.0
2386,82.0,0,120,1.0,0.0
2387,62.0,39,120,5.0,0.0
2388,64.0,4,30,12.0,0.0
2389,52.0,31,30,13.0,0.0
2390,65.0,4,90,12.0,0.0
2391,53.0,36,90,13.0,0.0
2392,81.0,2,120,10.0,0.0
2393,72.0,2,120,11.0,0.0
2394,81.0,0,120,1.0,0.0
2395,65.0,2,15,4.0,0.0
2396,72.0,0,120,1.0,0.0
2397,60.0,39,120,5.0,0.0
2398,67.0,4,30,12.0,0.0
2399,55.0,31,30,13.0,0.0
2400,65.0,4,90,12.0,0.0
2401,53.0,36,90,13.0,0.0
2402,82.0,2,120,10.0,0.0
2403,74.0,2,120,11.0,0.0
2404,74.0,2,120,1.0,0.0
2405,82.0,0,120,1.0,0.0
2406,65.0,2,15,4.0,0.0
2407,62.0,1,120,5.0,0.0
2408,64.0,4,30,12.0,0.0
2409,52.0,23,30,13.0,0.0
2410,65.0,1,30,12.0,0.0
2411,53.0,39,30,13.0,0.0
2412,89.0,2,30,10.0,0.0
2413,81.0,3,120,0.0,0.0
2414,84.0,0,120,0.0,0.0
2415,77.0,38,30,11.0,0.0
2416,65.0,1,120,4.0,0.0
2417,77.0,0,120,1.0,0.0
2418,84.0,2,120,1.0,0.0
2419,72.0,4,120,12.0,0.0
2420,69.0,0,120,12.0,0.0
2421,69.0,0,120,2.0,0.0
2422,72.0,6,120,2.0,0.0
2423,60.0,3,120,5.0,0.0
2424,53.0,2,120,13.0,0.0
2425,60.0,0,120,3.0,0.0
2426,41.0,1,120,14.0,0.0
2427,57.0,28,120,3.0,0.0
2428,91.0,2,30,10.0,0.0
2429,79.0,28,30,11.0,0.0
2430,89.0,2,90,10.0,0.0
2431,77.0,38,90,11.0,0.0
2432,85.0,0,120,0.0,0.0
2433,80.0,3,120,0.0,0.0
2434,85.0,0,120,1.0,0.0
2435,80.0,2,120,1.0,0.0
2436,65.0,1,120,4.0,0.0
2437,73.0,4,120,12.0,0.0
2438,68.0,0,120,12.0,0.0
2439,61.0,3,120,5.0,0.0
2440,68.0,6,120,2.0,0.0
2441,73.0,0,120,2.0,0.0
2442,49.0,2,120,13.0,0.0
2443,56.0,0,120,3.0,0.0
2444,61.0,28,120,3.0,0.0
2445,37.0,1,120,14.0,0.0
2446,88.0,2,30,10.0,0.0
2447,76.0,28,30,11.0,0.0
2448,89.0,2,90,10.0,0.0
2449,77.0,38,90,11.0,0.0
2450,81.0,0,120,0.0,0.0
2451,84.0,3,120,0.0,0.0
2452,84.0,2,120,1.0,0.0
2453,81.0,0,120,1.0,0.0
2454,65.0,1,120,4.0,0.0
2455,72.0,4,120,12.0,0.0
2456,69.0,0,120,12.0,0.0
2457,69.0,6,120,2.0,0.0
2458,72.0,0,120,2.0,0.0
2459,60.0,3,120,5.0,0.0
2460,53.0,2,120,13.0,0.0
2461,60.0,28,120,3.0,0.0
2462,41.0,1,120,14.0,0.0
2463,57.0,0,120,3.0,0.0
2464,91.0,2,30,10.0,0.0
2465,79.0,28,30,11.0,0.0
2466,89.0,2,90,10.0,0.0
2467,77.0,38,90,11.0,0.0
2468,85.0,1,120,0.0,0.0
2469,80.0,0,120,0.0,0.0
2470,65.0,0,120,4.0,0.0
2471,80.0,0,120,1.0,0.0
2472,85.0,2,120,1.0,0.0
2473,68.0,4,120,12.0,0.0
2474,73.0,0,120,12.0,0.0
2475,73.0,0,120,2.0,0.0
2476,68.0,6,120,2.0,0.0
2477,61.0,1,120,5.0,0.0
2478,49.0,2,120,13.0,0.0
2479,37.0,1,120,14.0,0.0
2480,61.0,33,120,3.0,0.0
2481,56.0,0,120,3.0,0.0
2482,88.0,2,30,10.0,0.0
2483,76.0,28,30,11.0,0.0
2484,89.0,2,90,10.0,0.0
2485,77.0,19,90,11.0,0.0
2486,80.0,3,60,0.0,0.0
2487,83.0,1,120,0.0,0.0
2488,80.0,8,60,1.0,0.0
2489,68.0,0,120,4.0,0.0
2490,83.0,0,120,1.0,0.0
2491,68.0,0,120,12.0,0.0
2492,71.0,2,120,12.0,0.0
2493,69.0,0,120,2.0,0.0
2494,65.0,1,120,5.0,0.0
2495,71.0,6,120,2.0,0.0
2496,41.0,2,120,13.0,0.0
2497,53.0,25,120,3.0,0.0
2498,29.0,1,120,14.0,0.0
2499,41.0,0,120,3.0,0.0
2500,92.0,2,30,10.0,0.0
2501,80.0,36,30,11.0,0.0
2502,77.0,0,60,0.0,0.0
2503,77.0,2,60,1.0,0.0
2504,89.0,2,30,10.0,0.0
2505,77.0,0,30,11.0,0.0
2506,96.0,1,120,10.0,0.0
2507,84.0,0,120,0.0,0.0
2508,76.0,1,120,0.0,0.0
2509,84.0,3,30,11.0,0.0
2510,67.0,0,120,4.0,0.0
2511,76.0,0,120,1.0,0.0
2512,84.0,1,120,1.0,0.0
2513,72.0,27,30,12.0,0.0
2514,64.0,0,120,5.0,0.0
2515,67.0,2,120,2.0,0.0
2516,72.0,0,120,2.0,0.0
2517,48.0,3,120,13.0,0.0
2518,36.0,0,120,14.0,0.0
2519,36.0,0,120,3.0,0.0
2520,48.0,26,120,3.0,0.0
2521,88.0,3,30,11.0,0.0
2522,76.0,27,30,12.0,0.0
2523,84.0,3,30,11.0,0.0
2524,72.0,18,30,12.0,0.0
2525,88.0,2,20,11.0,0.0
2526,76.0,1,20,12.0,0.0
2527,85.0,30,30,10.0,0.0
2528,77.0,0,60,0.0,0.0
2529,85.0,3,60,0.0,0.0
2530,91.0,2,120,11.0,0.0
2531,85.0,2,60,1.0,0.0
2532,77.0,0,60,1.0,0.0
2533,70.0,1,120,4.0,0.0
2534,79.0,1,120,12.0,0.0
2535,65.0,6,120,5.0,0.0
2536,77.0,0,60,2.0,0.0
2537,60.0,3,240,13.0,0.0
2538,48.0,26,240,14.0,0.0
2539,48.0,0,240,3.0,0.0
2540,58.0,28,120,3.0,0.0
2541,82.0,1,30,10.0,0.0
2542,85.0,22,30,10.0,0.0
2543,82.0,1,60,0.0,0.0
2544,73.0,0,60,0.0,0.0
2545,82.0,0,60,1.0,0.0
2546,73.0,0,60,1.0,0.0
2547,70.0,0,60,2.0,0.0
2548,73.0,24,15,2.0,0.0
2549,82.0,1,20,10.0,0.0
2550,79.0,1,120,10.0,0.0
2551,76.0,0,120,0.0,0.0
2552,79.0,1,120,0.0,0.0
2553,88.0,3,30,11.0,0.0
2554,67.0,1,120,4.0,0.0
2555,76.0,0,120,1.0,0.0
2556,79.0,0,120,1.0,0.0
2557,76.0,27,30,12.0,0.0
2558,72.0,0,120,2.0,0.0
2559,64.0,0,120,5.0,0.0
2560,76.0,3,120,2.0,0.0
2561,60.0,0,120,3.0,0.0
2562,84.0,3,30,11.0,0.0
2563,72.0,27,30,12.0,0.0
2564,88.0,3,30,11.0,0.0
2565,76.0,17,30,12.0,0.0
2566,84.0,2,20,11.0,0.0
2567,72.0,1,20,12.0,0.0
2568,77.0,30,30,10.0,0.0
2569,83.0,0,120,0.0,0.0
2570,74.0,1,120,0.0,0.0
2571,80.0,2,120,11.0,0.0
2572,74.0,0,120,1.0,0.0
2573,68.0,1,120,4.0,0.0
2574,83.0,0,120,1.0,0.0
2575,68.0,1,120,12.0,0.0
2576,74.0,0,120,2.0,0.0
2577,71.0,3,120,2.0,0.0
2578,65.0,0,120,5.0,0.0
2579,60.0,3,120,13.0,0.0
2580,48.0,0,120,3.0,0.0
2581,48.0,0,120,14.0,0.0
2582,53.0,35,120,3.0,0.0
2583,74.0,30,30,10.0,0.0
2584,77.0,22,30,10.0,0.0
2585,74.0,1,20,10.0,0.0
2586,76.0,1,120,10.0,0.0
2587,84.0,0,120,0.0,0.0
2588,76.0,1,120,0.0,0.0
2589,84.0,2,120,11.0,0.0
2590,76.0,0,120,1.0,0.0
2591,67.0,2,120,4.0,0.0
2592,84.0,0,120,1.0,0.0
2593,72.0,2,120,12.0,0.0
2594,64.0,0,120,12.0,0.0
2595,72.0,0,120,2.0,0.0
2596,64.0,0,120,5.0,0.0
2597,76.0,3,120,2.0,0.0
2598,48.0,3,30,13.0,0.0
2599,48.0,27,30,3.0,0.0
2600,36.0,0,30,14.0,0.0
2601,36.0,0,30,3.0,0.0
2602,52.0,3,30,13.0,0.0
2603,40.0,27,30,14.0,0.0
2604,40.0,0,30,3.0,0.0
2605,52.0,0,30,3.0,0.0
2606,48.0,3,30,13.0,0.0
2607,36.0,0,30,3.0,0.0
2608,48.0,0,30,3.0,0.0
2609,36.0,8,30,14.0,0.0
2610,52.0,3,20,13.0,0.0
2611,40.0,26,20,14.0,0.0
2612,40.0,0,20,3.0,0.0
2613,52.0,0,20,3.0,0.0
2614,85.0,2,30,10.0,0.0
2615,85.0,0,60,0.0,0.0
2616,77.0,1,60,0.0,0.0
2617,77.0,28,30,11.0,0.0
2618,77.0,2,60,1.0,0.0
2619,70.0,0,120,4.0,0.0
2620,85.0,0,60,1.0,0.0
2621,65.0,0,120,12.0,0.0
2622,73.0,2,120,12.0,0.0
2623,77.0,0,60,2.0,0.0
2624,65.0,0,120,5.0,0.0
2625,55.0,3,120,13.0,0.0
2626,43.0,0,120,3.0,0.0
2627,43.0,28,120,14.0,0.0
2628,55.0,0,120,3.0,0.0
2629,82.0,1,30,10.0,0.0
2630,73.0,2,30,11.0,0.0
2631,85.0,2,30,10.0,0.0
2632,82.0,1,60,0.0,0.0
2633,73.0,0,60,0.0,0.0
2634,77.0,18,30,11.0,0.0
2635,73.0,0,60,1.0,0.0
2636,82.0,2,60,1.0,0.0
2637,70.0,0,60,2.0,0.0
2638,73.0,24,15,2.0,0.0
2639,82.0,1,20,10.0,0.0
2640,73.0,2,20,11.0,0.0
2641,79.0,1,120,10.0,0.0
2642,79.0,1,120,0.0,0.0
2643,76.0,0,120,0.0,0.0
2644,76.0,7,30,11.0,0.0
2645,67.0,0,120,4.0,0.0
2646,79.0,2,120,1.0,0.0
2647,76.0,0,120,1.0,0.0
2648,72.0,2,120,12.0,0.0
2649,64.0,0,120,12.0,0.0
2650,76.0,0,120,2.0,0.0
2651,64.0,3,120,5.0,0.0
2652,67.0,0,120,2.0,0.0
2653,60.0,3,30,13.0,0.0
2654,48.0,0,30,14.0,0.0
2655,60.0,0,30,3.0,0.0
2656,48.0,20,30,3.0,0.0
2657,72.0,7,30,11.0,0.0
2658,64.0,3,30,13.0,0.0
2659,52.0,0,30,3.0,0.0
2660,52.0,20,30,14.0,0.0
2661,64.0,0,30,3.0,0.0
2662,76.0,7,30,11.0,0.0
2663,60.0,3,30,13.0,0.0
2664,48.0,0,30,14.0,0.0
2665,48.0,0,30,3.0,0.0
2666,60.0,8,30,3.0,0.0
2667,72.0,2,20,11.0,0.0
2668,64.0,3,20,13.0,0.0
2669,64.0,26,20,3.0,0.0
2670,52.0,0,20,3.0,0.0
2671,52.0,0,20,14.0,0.0
2672,80.0,30,30,10.0,0.0
2673,80.0,1,240,0.0,0.0
2674,83.0,0,240,0.0,0.0
2675,62.0,3,210,11.0,0.0
2676,71.0,0,210,11.0,0.0
2677,80.0,0,240,1.0,0.0
2678,71.0,2,240,1.0,0.0
2679,68.0,2,240,4.0,0.0
2680,68.0,2,210,12.0,0.0
2681,65.0,0,210,12.0,0.0
2682,62.0,1,240,5.0,0.0
2683,74.0,6,240,2.0,0.0
2684,68.0,0,240,2.0,0.0
2685,65.0,0,210,13.0,0.0
2686,65.0,26,240,3.0,0.0
2687,53.0,0,240,3.0,0.0
2688,53.0,2,210,14.0,0.0
2689,77.0,30,30,10.0,0.0
2690,80.0,30,30,10.0,0.0
2691,77.0,30,30,10.0,0.0
2692,74.0,30,30,10.0,0.0
2693,71.0,30,30,10.0,0.0
2694,74.0,14,30,10.0,0.0
2695,71.0,1,20,10.0,0.0
2696,80.0,30,30,10.0,0.0
2697,80.0,1,240,0.0,0.0
2698,83.0,0,240,0.0,0.0
2699,71.0,3,210,11.0,0.0
2700,62.0,0,210,11.0,0.0
2701,71.0,2,240,1.0,0.0
2702,68.0,2,240,4.0,0.0
2703,80.0,0,240,1.0,0.0
2704,68.0,0,210,12.0,0.0
2705,65.0,2,210,12.0,0.0
2706,74.0,0,240,2.0,0.0
2707,62.0,0,240,5.0,0.0
2708,68.0,6,240,2.0,0.0
2709,65.0,1,210,13.0,0.0
2710,53.0,2,210,14.0,0.0
2711,65.0,0,240,3.0,0.0
2712,53.0,26,240,3.0,0.0
2713,77.0,30,30,10.0,0.0
2714,80.0,30,30,10.0,0.0
2715,77.0,30,30,10.0,0.0
2716,74.0,30,30,10.0,0.0
2717,71.0,30,30,10.0,0.0
2718,74.0,14,30,10.0,0.0
2719,71.0,1,20,10.0,0.0
2720,68.0,30,30,10.0,0.0
2721,80.0,0,60,0.0,0.0
2722,83.0,1,60,0.0,0.0
2723,62.0,0,60,11.0,0.0
2724,71.0,2,60,11.0,0.0
2725,68.0,1,60,4.0,0.0
2726,74.0,0,60,1.0,0.0
2727,83.0,0,60,1.0,0.0
2728,65.0,0,60,12.0,0.0
2729,68.0,1,60,12.0,0.0
2730,74.0,0,60,2.0,0.0
2731,68.0,0,60,2.0,0.0
2732,62.0,3,60,5.0,0.0
2733,53.0,3,60,13.0,0.0
2734,41.0,0,60,3.0,0.0
2735,53.0,18,60,3.0,0.0
2736,41.0,0,60,14.0,0.0
2737,65.0,1,30,10.0,0.0
2738,68.0,22,30,10.0,0.0
2739,65.0,23,20,10.0,0.0
2740,84.0,2,15,10.0,0.0
2741,79.0,0,60,0.0,0.0
2742,84.0,3,60,0.0,0.0
2743,72.0,22,15,11.0,0.0
2744,64.0,0,15,11.0,0.0
2745,67.0,1,60,4.0,0.0
2746,76.0,0,60,1.0,0.0
2747,84.0,0,60,1.0,0.0
2748,67.0,1,60,12.0,0.0
2749,64.0,0,60,12.0,0.0
2750,67.0,0,60,2.0,0.0
2751,76.0,6,60,2.0,0.0
2752,64.0,0,60,5.0,0.0
2753,36.0,6,30,13.0,0.0
2754,36.0,3,60,3.0,0.0
2755,48.0,0,60,3.0,0.0
2756,36.0,0,60,14.0,0.0
2757,84.0,2,15,10.0,0.0
2758,72.0,14,15,11.0,0.0
2759,86.0,2,15,10.0,0.0
2760,74.0,22,15,11.0,0.0
2761,48.0,6,30,13.0,0.0
2762,83.0,2,15,10.0,0.0
2763,71.0,43,15,11.0,0.0
2764,84.0,2,30,10.0,0.0
2765,81.0,0,60,0.0,0.0
2766,84.0,3,60,0.0,0.0
2767,72.0,3,30,11.0,0.0
2768,75.0,0,60,1.0,0.0
2769,57.0,3,480,7.0,0.0
2770,48.0,2,2400,4.0,0.0
2771,84.0,2,60,1.0,0.0
2772,63.0,0,480,7.0,0.0
2773,63.0,0,30,12.0,0.0
2774,69.0,0,30,12.0,0.0
2775,60.0,4,30,12.0,0.0
2776,69.0,0,60,2.0,0.0
2777,75.0,3,60,2.0,0.0
2778,36.0,6,2400,5.0,0.0
2779,54.0,3,480,8.0,0.0
2780,42.0,22,30,13.0,0.0
2781,42.0,27,60,3.0,0.0
2782,36.0,2,2640,14.0,0.0
2783,45.0,3,30,13.0,0.0
2784,42.0,30,30,13.0,0.0
2785,45.0,26,30,13.0,0.0
2786,48.0,30,30,12.0,0.0
2787,48.0,26,60,13.0,0.0
2788,51.0,4,30,12.0,0.0
2789,48.0,30,30,12.0,0.0
2790,51.0,27,30,12.0,0.0
2791,57.0,30,30,11.0,0.0
2792,57.0,27,60,12.0,0.0
2793,72.0,3,240,2.0,0.0
2794,36.0,30,240,13.0,0.0
2795,60.0,3,30,11.0,0.0
2796,57.0,30,30,11.0,0.0
2797,60.0,28,30,11.0,0.0
2798,63.0,30,30,10.0,0.0
2799,63.0,28,60,11.0,0.0
2800,69.0,2,30,10.0,0.0
2801,63.0,24,30,10.0,0.0
2802,69.0,6,30,10.0,0.0
2803,72.0,6,60,10.0,0.0
2804,57.0,0,480,7.0,0.0
2805,63.0,3,480,7.0,0.0
2806,74.0,3,60,2.0,0.0
2807,53.0,3,480,8.0,0.0
2808,41.0,21,30,13.0,0.0
2809,45.0,30,30,13.0,0.0
2810,71.0,3,60,2.0,0.0
2811,41.0,27,30,13.0,0.0
2812,45.0,26,30,13.0,0.0
2813,48.0,30,30,12.0,0.0
2814,72.0,24,240,2.0,0.0
2815,48.0,26,60,13.0,0.0
2816,51.0,4,30,12.0,0.0
2817,48.0,30,30,12.0,0.0
2818,51.0,27,30,12.0,0.0
2819,84.0,8,240,0.0,0.0
2820,57.0,30,30,11.0,0.0
2821,57.0,27,60,12.0,0.0
2822,36.0,30,240,13.0,0.0
2823,60.0,3,30,11.0,0.0
2824,57.0,30,30,11.0,0.0
2825,60.0,4,30,11.0,0.0
2826,63.0,30,30,10.0,0.0
2827,63.0,28,60,11.0,0.0
2828,69.0,2,30,10.0,0.0
2829,63.0,24,30,10.0,0.0
2830,69.0,1,30,10.0,0.0
2831,72.0,1,60,10.0,0.0
2832,86.0,8,60,0.0,0.0
2833,64.0,0,480,7.0,0.0
2834,57.0,3,480,7.0,0.0
2835,52.0,3,480,8.0,0.0
2836,40.0,21,30,13.0,0.0
2837,45.0,30,30,13.0,0.0
2838,83.0,8,60,0.0,0.0
2839,40.0,22,30,13.0,0.0
2840,45.0,26,30,13.0,0.0
2841,84.0,1,240,0.0,0.0
2842,48.0,30,30,12.0,0.0
2843,48.0,26,60,13.0,0.0
2844,52.0,4,30,12.0,0.0
2845,48.0,30,30,12.0,0.0
2846,52.0,27,30,12.0,0.0
2847,57.0,30,30,11.0,0.0
2848,57.0,27,60,12.0,0.0
2849,36.0,3,240,13.0,0.0
2850,60.0,27,240,3.0,0.0
2851,60.0,3,30,11.0,0.0
2852,57.0,29,30,11.0,0.0
2853,60.0,28,30,11.0,0.0
2854,64.0,30,30,10.0,0.0
2855,64.0,28,60,11.0,0.0
2856,69.0,2,30,10.0,0.0
2857,64.0,24,30,10.0,0.0
2858,69.0,9,30,10.0,0.0
2859,72.0,9,60,10.0,0.0
2860,65.0,0,480,7.0,0.0
2861,57.0,3,480,7.0,0.0
2862,51.0,3,480,8.0,0.0
2863,39.0,21,30,13.0,0.0
2864,62.0,27,60,3.0,0.0
2865,45.0,3,30,13.0,0.0
2866,39.0,30,30,13.0,0.0
2867,59.0,23,60,3.0,0.0
2868,45.0,3,30,13.0,0.0
2869,48.0,30,30,12.0,0.0
2870,48.0,26,60,13.0,0.0
2871,60.0,5,360,3.0,0.0
2872,53.0,4,30,12.0,0.0
2873,48.0,30,30,12.0,0.0
2874,53.0,27,30,12.0,0.0
2875,57.0,30,30,11.0,0.0
2876,57.0,27,60,12.0,0.0
2877,36.0,30,240,13.0,0.0
2878,60.0,3,30,11.0,0.0
2879,57.0,30,30,11.0,0.0
2880,60.0,28,30,11.0,0.0
2881,65.0,30,30,10.0,0.0
2882,65.0,28,60,11.0,0.0
2883,69.0,2,30,10.0,0.0
2884,65.0,24,30,10.0,0.0
2885,69.0,4,30,10.0,0.0
2886,72.0,9,60,10.0,0.0
2887,57.0,0,480,7.0,0.0
2888,66.0,3,480,7.0,0.0
2889,50.0,3,480,8.0,0.0
2890,38.0,21,30,13.0,0.0
2891,62.0,23,120,3.0,0.0
2892,45.0,30,30,13.0,0.0
2893,38.0,30,30,13.0,0.0
2894,45.0,3,30,13.0,0.0
2895,48.0,30,30,12.0,0.0
2896,48.0,26,60,13.0,0.0
2897,59.0,20,120,3.0,0.0
2898,54.0,4,30,12.0,0.0
2899,48.0,30,30,12.0,0.0
2900,54.0,7,30,12.0,0.0
2901,84.0,1,120,0.0,0.0
2902,57.0,30,30,11.0,0.0
2903,72.0,8,120,1.0,0.0
2904,57.0,27,60,12.0,0.0
2905,60.0,18,120,3.0,0.0
2906,60.0,3,30,11.0,0.0
2907,57.0,29,30,11.0,0.0
2908,60.0,2,30,11.0,0.0
2909,66.0,30,30,10.0,0.0
2910,86.0,3,120,0.0,0.0
2911,66.0,28,60,11.0,0.0
2912,74.0,0,120,1.0,0.0
2913,62.0,20,120,3.0,0.0
2914,69.0,2,30,10.0,0.0
2915,66.0,24,30,10.0,0.0
2916,69.0,1,30,10.0,0.0
2917,83.0,1,120,0.0,0.0
2918,55.0,7,30,11.0,0.0
2919,55.0,2,240,7.0,0.0
2920,71.0,5,120,1.0,0.0
2921,67.0,0,240,7.0,0.0
2922,67.0,0,240,4.0,0.0
2923,60.0,1,240,5.0,0.0
2924,52.0,3,240,8.0,0.0
2925,40.0,23,30,13.0,0.0
2926,59.0,18,120,3.0,0.0
2927,60.0,7,30,11.0,0.0
2928,43.0,23,30,13.0,0.0
2929,55.0,7,30,11.0,0.0
2930,40.0,22,30,13.0,0.0
2931,60.0,2,30,11.0,0.0
2932,43.0,3,30,13.0,0.0
2933,67.0,5,30,10.0,0.0
2934,84.0,1,120,0.0,0.0
2935,64.0,3,60,11.0,0.0
2936,72.0,0,120,1.0,0.0
2937,52.0,25,30,12.0,0.0
2938,48.0,21,60,13.0,0.0
2939,60.0,1,120,3.0,0.0
2940,72.0,2,30,10.0,0.0
2941,55.0,4,30,12.0,0.0
2942,67.0,5,30,10.0,0.0
2943,52.0,18,30,12.0,0.0
2944,72.0,2,30,10.0,0.0
2945,55.0,27,30,12.0,0.0
2946,79.0,0,120,0.0,0.0
2947,76.0,1,120,0.0,0.0
2948,64.0,7,30,11.0,0.0
2949,55.0,0,120,7.0,0.0
2950,64.0,0,120,7.0,0.0
2951,67.0,0,120,1.0,0.0
2952,48.0,2,120,8.0,0.0
2953,48.0,23,30,13.0,0.0
2954,36.0,18,120,14.0,0.0
2955,55.0,0,120,3.0,0.0
2956,52.0,0,120,3.0,0.0
2957,67.0,7,30,11.0,0.0
2958,52.0,23,30,13.0,0.0
2959,64.0,7,30,11.0,0.0
2960,48.0,22,30,13.0,0.0
2961,67.0,2,30,11.0,0.0
2962,52.0,3,30,13.0,0.0
2963,72.0,5,30,10.0,0.0
2964,81.0,0,120,0.0,0.0
2965,72.0,3,120,0.0,0.0
2966,69.0,3,60,11.0,0.0
2967,57.0,0,120,7.0,0.0
2968,69.0,1,120,1.0,0.0
2969,65.0,0,120,7.0,0.0
2970,72.0,2,15,4.0,0.0
2971,57.0,25,30,12.0,0.0
2972,60.0,1,15,5.0,0.0
2973,53.0,5,120,8.0,0.0
2974,53.0,21,60,13.0,0.0
2975,57.0,0,120,3.0,0.0
2976,53.0,0,120,3.0,0.0
2977,29.0,20,120,14.0,0.0
2978,77.0,2,30,10.0,0.0
2979,60.0,4,30,12.0,0.0
2980,72.0,5,30,10.0,0.0
2981,57.0,25,30,12.0,0.0
2982,77.0,1,30,10.0,0.0
2983,60.0,1,30,12.0,0.0
2984,76.0,2,60,10.0,0.0
2985,76.0,0,120,0.0,0.0
2986,79.0,1,120,0.0,0.0
2987,67.0,7,30,11.0,0.0
2988,55.0,0,120,7.0,0.0
2989,64.0,2,120,7.0,0.0
2990,67.0,0,120,1.0,0.0
2991,72.0,0,120,4.0,0.0
2992,64.0,4,60,12.0,0.0
2993,60.0,1,15,5.0,0.0
2994,48.0,2,120,8.0,0.0
2995,48.0,21,30,13.0,0.0
2996,52.0,0,120,3.0,0.0
2997,55.0,0,120,3.0,0.0
2998,36.0,18,120,14.0,0.0
2999,71.0,3,30,11.0,0.0
3000,52.0,23,30,13.0,0.0
3001,67.0,7,30,11.0,0.0
3002,48.0,22,30,13.0,0.0
3003,71.0,2,30,11.0,0.0
3004,52.0,3,30,13.0,0.0
3005,72.0,5,30,10.0,0.0
3006,72.0,3,120,0.0,0.0
3007,81.0,3,120,0.0,0.0
3008,69.0,3,60,11.0,0.0
3009,69.0,4,120,1.0,0.0
3010,65.0,0,120,7.0,0.0
3011,57.0,0,120,7.0,0.0
3012,72.0,1,120,4.0,0.0
3013,57.0,25,30,12.0,0.0
3014,60.0,1,15,5.0,0.0
3015,53.0,5,120,8.0,0.0
3016,53.0,21,60,13.0,0.0
3017,29.0,20,120,14.0,0.0
3018,53.0,0,120,3.0,0.0
3019,57.0,0,120,3.0,0.0
3020,77.0,2,30,10.0,0.0
3021,60.0,4,30,12.0,0.0
3022,72.0,5,30,10.0,0.0
3023,57.0,18,30,12.0,0.0
3024,77.0,1,30,10.0,0.0
3025,60.0,1,30,12.0,0.0
3026,74.0,1,60,10.0,0.0
3027,79.0,1,60,0.0,0.0
3028,71.0,3,120,0.0,0.0
3029,71.0,7,30,11.0,0.0
3030,67.0,1,60,1.0,0.0
3031,62.0,0,120,7.0,0.0
3032,59.0,0,120,7.0,0.0
3033,67.0,0,120,4.0,0.0
3034,55.0,4,60,12.0,0.0
3035,59.0,1,120,2.0,0.0
3036,62.0,0,120,2.0,0.0
3037,55.0,0,120,5.0,0.0
3038,55.0,2,120,8.0,0.0
3039,55.0,21,30,13.0,0.0
3040,31.0,18,120,14.0,0.0
3041,55.0,2,120,3.0,0.0
3042,74.0,2,30,11.0,0.0
3043,59.0,23,30,13.0,0.0
3044,77.0,0,60,0.0,0.0
3045,71.0,7,30,11.0,0.0
3046,65.0,6,60,1.0,0.0
3047,55.0,14,30,13.0,0.0
3048,53.0,0,60,3.0,0.0
3049,74.0,2,30,11.0,0.0
3050,59.0,3,30,13.0,0.0
3051,76.0,5,30,10.0,0.0
3052,72.0,1,60,0.0,0.0
3053,67.0,3,60,11.0,0.0
3054,64.0,4,90,1.0,0.0
3055,60.0,0,120,7.0,0.0
3056,64.0,1,120,7.0,0.0
3057,60.0,25,30,12.0,0.0
3058,60.0,3,240,2.0,0.0
3059,64.0,0,240,2.0,0.0
3060,48.0,5,120,8.0,0.0
3061,60.0,14,60,13.0,0.0
3062,36.0,20,120,14.0,0.0
3063,52.0,1,90,3.0,0.0
3064,48.0,0,120,3.0,0.0
3065,72.0,1,30,10.0,0.0
3066,55.0,4,30,12.0,0.0
3067,76.0,4,30,10.0,0.0
3068,76.0,3,20,0.0,0.0
3069,60.0,18,30,12.0,0.0
3070,72.0,4,30,10.0,0.0
3071,76.0,3,20,0.0,0.0
3072,64.0,4,20,1.0,0.0
3073,55.0,2,30,12.0,0.0
3074,52.0,0,20,3.0,0.0
3075,67.0,1,60,10.0,0.0
3076,79.0,9,90,0.0,0.0
3077,67.0,7,30,11.0,0.0
3078,52.0,4,60,12.0,0.0
3079,48.0,21,30,13.0,0.0
3080,55.0,5,90,3.0,0.0
3081,28.0,18,120,14.0,0.0
3082,52.0,0,120,3.0,0.0
3083,72.0,3,30,11.0,0.0
3084,52.0,14,30,13.0,0.0
3085,72.0,0,60,0.0,0.0
3086,67.0,2,30,11.0,0.0
3087,48.0,14,30,13.0,0.0
3088,79.0,3,20,0.0,0.0
3089,72.0,2,30,11.0,0.0
3090,67.0,0,20,1.0,0.0
3091,52.0,3,30,13.0,0.0
3092,55.0,2,20,3.0,0.0
3093,74.0,5,30,10.0,0.0
3094,86.0,3,240,0.0,0.0
3095,77.0,0,240,0.0,0.0
3096,74.0,3,60,11.0,0.0
3097,74.0,2,240,1.0,0.0
3098,71.0,0,240,1.0,0.0
3099,59.0,25,30,12.0,0.0
3100,65.0,4,240,2.0,0.0
3101,59.0,0,240,2.0,0.0
3102,55.0,21,60,13.0,0.0
3103,62.0,2,240,3.0,0.0
3104,53.0,0,240,3.0,0.0
3105,31.0,20,120,14.0,0.0
3106,71.0,2,30,10.0,0.0
3107,55.0,4,30,12.0,0.0
3108,74.0,5,30,10.0,0.0
3109,59.0,25,30,12.0,0.0
3110,71.0,5,30,10.0,0.0
3111,55.0,7,30,12.0,0.0
3112,67.0,2,60,10.0,0.0
3113,67.0,7,30,11.0,0.0
3114,55.0,0,120,4.0,0.0
3115,62.0,4,60,12.0,0.0
3116,43.0,3,120,5.0,0.0
3117,53.0,21,30,13.0,0.0
3118,43.0,18,120,14.0,0.0
3119,71.0,3,30,11.0,0.0
3120,50.0,23,30,13.0,0.0
3121,67.0,7,30,11.0,0.0
3122,53.0,14,30,13.0,0.0
3123,71.0,2,30,11.0,0.0
3124,50.0,3,30,13.0,0.0
3125,64.0,5,30,10.0,0.0
3126,84.0,0,120,0.0,0.0
3127,76.0,3,120,0.0,0.0
3128,72.0,3,60,11.0,0.0
3129,72.0,1,120,1.0,0.0
3130,52.0,0,120,4.0,0.0
3131,60.0,25,30,12.0,0.0
3132,64.0,3,60,2.0,0.0
3133,48.0,0,120,5.0,0.0
3134,60.0,2,120,2.0,0.0
3135,48.0,21,60,13.0,0.0
3136,36.0,20,120,14.0,0.0
3137,60.0,0,120,3.0,0.0
3138,52.0,0,120,3.0,0.0
3139,60.0,2,30,10.0,0.0
3140,55.0,1,30,12.0,0.0
3141,64.0,5,30,10.0,0.0
3142,60.0,23,30,12.0,0.0
3143,65.0,6,60,2.0,0.0
3144,60.0,1,30,10.0,0.0
3145,55.0,1,30,12.0,0.0
3146,55.0,2,60,10.0,0.0
3147,55.0,7,30,11.0,0.0
3148,55.0,2,120,4.0,0.0
3149,52.0,1,60,12.0,0.0
3150,60.0,3,120,2.0,0.0
3151,66.0,3,60,2.0,0.0
3152,52.0,0,120,5.0,0.0
3153,48.0,21,30,13.0,0.0
3154,48.0,18,120,3.0,0.0
3155,40.0,0,120,3.0,0.0
3156,60.0,3,30,11.0,0.0
3157,52.0,23,30,13.0,0.0
3158,55.0,7,30,11.0,0.0
3159,67.0,0,60,2.0,0.0
3160,48.0,23,30,13.0,0.0
3161,60.0,2,30,11.0,0.0
3162,52.0,3,30,13.0,0.0
3163,62.0,5,30,10.0,0.0
3164,62.0,3,60,11.0,0.0
3165,62.0,2,240,4.0,0.0
3166,59.0,25,30,12.0,0.0
3167,55.0,2,240,5.0,0.0
3168,76.0,3,60,2.0,0.0
3169,59.0,4,240,2.0,0.0
3170,43.0,21,60,13.0,0.0
3171,43.0,0,240,3.0,0.0
3172,53.0,5,240,3.0,0.0
3173,59.0,2,30,10.0,0.0
3174,55.0,1,30,12.0,0.0
3175,62.0,5,30,10.0,0.0
3176,59.0,25,30,12.0,0.0
3177,74.0,26,60,2.0,0.0
3178,59.0,5,30,10.0,0.0
3179,55.0,1,30,12.0,0.0
3180,55.0,2,60,10.0,0.0
3181,67.0,7,30,11.0,0.0
3182,62.0,1,60,12.0,0.0
3183,67.0,3,60,2.0,0.0
3184,53.0,21,30,13.0,0.0
3185,31.0,18,120,14.0,0.0
3186,71.0,3,30,11.0,0.0
3187,50.0,23,30,13.0,0.0
3188,67.0,7,30,11.0,0.0
3189,74.0,0,60,2.0,0.0
3190,53.0,15,30,13.0,0.0
3191,71.0,2,30,11.0,0.0
3192,50.0,3,30,13.0,0.0
3193,72.0,5,30,10.0,0.0
3194,76.0,0,120,0.0,0.0
3195,84.0,3,120,0.0,0.0
3196,72.0,3,60,11.0,0.0
3197,60.0,1,120,4.0,0.0
3198,72.0,0,120,1.0,0.0
3199,64.0,0,120,1.0,0.0
3200,64.0,25,30,12.0,0.0
3201,52.0,6,120,5.0,0.0
3202,55.0,0,120,2.0,0.0
3203,67.0,0,120,2.0,0.0
3204,48.0,21,60,13.0,0.0
3205,52.0,0,120,3.0,0.0
3206,60.0,0,120,3.0,0.0
3207,76.0,2,30,10.0,0.0
3208,60.0,4,30,12.0,0.0
3209,72.0,5,30,10.0,0.0
3210,64.0,25,30,12.0,0.0
3211,76.0,1,30,10.0,0.0
3212,60.0,1,30,12.0,0.0
3213,79.0,1,60,10.0,0.0
3214,77.0,0,120,0.0,0.0
3215,86.0,1,60,0.0,0.0
3216,74.0,7,30,11.0,0.0
3217,74.0,1,60,1.0,0.0
3218,65.0,5,120,1.0,0.0
3219,65.0,1,60,12.0,0.0
3220,71.0,3,60,2.0,0.0
3221,59.0,0,60,2.0,0.0
3222,59.0,21,30,13.0,0.0
3223,36.0,20,15,14.0,0.0
3224,62.0,20,60,3.0,0.0
3225,53.0,0,120,3.0,0.0
3226,71.0,2,30,11.0,0.0
3227,62.0,3,30,13.0,0.0
3228,83.0,1,60,0.0,0.0
3229,74.0,7,30,11.0,0.0
3230,71.0,0,60,1.0,0.0
3231,74.0,8,60,2.0,0.0
3232,62.0,0,60,2.0,0.0
3233,59.0,14,30,13.0,0.0
3234,59.0,18,60,3.0,0.0
3235,71.0,2,30,11.0,0.0
3236,62.0,3,30,13.0,0.0
3237,76.0,5,30,10.0,0.0
3238,84.0,0,120,0.0,0.0
3239,76.0,1,180,0.0,0.0
3240,67.0,3,60,11.0,0.0
3241,64.0,1,180,1.0,0.0
3242,72.0,1,120,1.0,0.0
3243,67.0,25,30,12.0,0.0
3244,55.0,3,120,2.0,0.0
3245,67.0,0,120,2.0,0.0
3246,60.0,21,60,13.0,0.0
3247,52.0,20,180,3.0,0.0
3248,60.0,20,120,3.0,0.0
3249,72.0,2,30,10.0,0.0
3250,64.0,4,30,12.0,0.0
3251,76.0,5,30,10.0,0.0
3252,67.0,25,30,12.0,0.0
3253,72.0,1,30,10.0,0.0
3254,64.0,7,30,12.0,0.0
3255,67.0,1,60,10.0,0.0
3256,64.0,7,30,11.0,0.0
3257,67.0,1,60,12.0,0.0
3258,60.0,0,60,2.0,0.0
3259,72.0,3,60,2.0,0.0
3260,60.0,21,30,13.0,0.0
3261,36.0,18,120,14.0,0.0
3262,60.0,2,30,11.0,0.0
3263,55.0,3,30,13.0,0.0
3264,79.0,0,60,0.0,0.0
3265,64.0,7,30,11.0,0.0
3266,67.0,0,60,1.0,0.0
3267,71.0,1,60,2.0,0.0
3268,59.0,0,60,2.0,0.0
3269,60.0,17,30,13.0,0.0
3270,55.0,0,60,3.0,0.0
3271,60.0,4,30,11.0,0.0
3272,55.0,3,30,13.0,0.0
3273,76.0,5,30,10.0,0.0
3274,78.0,0,120,0.0,0.0
3275,88.0,1,60,0.0,0.0
3276,57.0,2,60,11.0,0.0
3277,76.0,1,60,1.0,0.0
3278,66.0,0,120,1.0,0.0
3279,66.0,25,30,12.0,0.0
3280,57.0,6,120,2.0,0.0
3281,69.0,0,120,2.0,0.0
3282,48.0,3,60,13.0,0.0
3283,64.0,18,60,3.0,0.0
3284,54.0,0,120,3.0,0.0
3285,36.0,20,120,14.0,0.0
3286,72.0,1,30,10.0,0.0
3287,69.0,4,30,12.0,0.0
3288,76.0,5,30,10.0,0.0
3289,84.0,3,60,0.0,0.0
3290,72.0,1,60,1.0,0.0
3291,66.0,25,30,12.0,0.0
3292,60.0,0,60,3.0,0.0
3293,72.0,1,30,10.0,0.0
3294,69.0,1,30,12.0,0.0
3295,74.0,2,60,10.0,0.0
3296,86.0,0,120,0.0,0.0
3297,77.0,1,120,0.0,0.0
3298,74.0,7,30,11.0,0.0
3299,74.0,2,120,1.0,0.0
3300,65.0,0,120,1.0,0.0
3301,65.0,1,60,12.0,0.0
3302,71.0,3,60,2.0,0.0
3303,59.0,0,60,2.0,0.0
3304,59.0,21,30,13.0,0.0
3305,53.0,0,120,3.0,0.0
3306,62.0,0,120,3.0,0.0
3307,36.0,18,120,14.0,0.0
3308,71.0,3,30,11.0,0.0
3309,62.0,23,30,13.0,0.0
3310,74.0,7,30,11.0,0.0
3311,55.0,0,60,2.0,0.0
3312,67.0,3,60,2.0,0.0
3313,59.0,22,30,13.0,0.0
3314,71.0,2,30,11.0,0.0
3315,62.0,3,30,13.0,0.0
3316,67.0,5,30,10.0,0.0
3317,79.0,3,120,0.0,0.0
3318,76.0,0,120,0.0,0.0
3319,67.0,3,60,11.0,0.0
3320,64.0,1,120,1.0,0.0
3321,67.0,0,120,1.0,0.0
3322,64.0,25,30,12.0,0.0
3323,60.0,1,120,2.0,0.0
3324,72.0,0,120,2.0,0.0
3325,60.0,21,60,13.0,0.0
3326,55.0,0,120,3.0,0.0
3327,52.0,25,120,3.0,0.0
3328,64.0,2,30,10.0,0.0
3329,60.0,4,30,12.0,0.0
3330,67.0,5,30,10.0,0.0
3331,64.0,21,30,12.0,0.0
3332,64.0,5,30,10.0,0.0
3333,60.0,1,30,12.0,0.0
3334,69.0,1,60,10.0,0.0
3335,81.0,1,60,0.0,0.0
3336,76.0,1,120,0.0,0.0
3337,64.0,7,30,11.0,0.0
3338,69.0,1,60,1.0,0.0
3339,64.0,5,120,1.0,0.0
3340,57.0,4,60,12.0,0.0
3341,60.0,21,30,13.0,0.0
3342,36.0,18,120,14.0,0.0
3343,57.0,20,60,3.0,0.0
3344,48.0,0,240,3.0,0.0
3345,60.0,2,30,11.0,0.0
3346,57.0,3,30,13.0,0.0
3347,79.0,3,60,0.0,0.0
3348,64.0,7,30,11.0,0.0
3349,67.0,8,60,1.0,0.0
3350,60.0,9,30,13.0,0.0
3351,55.0,2,60,3.0,0.0
3352,60.0,2,30,11.0,0.0
3353,57.0,3,30,13.0,0.0
3354,66.0,5,30,10.0,0.0
3355,78.0,3,90,0.0,0.0
3356,74.0,3,120,0.0,0.0
3357,62.0,3,60,11.0,0.0
3358,66.0,1,90,1.0,0.0
3359,62.0,0,120,1.0,0.0
3360,57.0,25,30,12.0,0.0
3361,50.0,17,60,13.0,0.0
3362,36.0,20,120,14.0,0.0
3363,54.0,0,120,3.0,0.0
3364,62.0,2,30,10.0,0.0
3365,54.0,4,30,12.0,0.0
3366,66.0,5,30,10.0,0.0
3367,57.0,21,30,12.0,0.0
3368,62.0,5,30,10.0,0.0
3369,78.0,0,30,0.0,0.0
3370,66.0,1,30,1.0,0.0
3371,54.0,7,30,12.0,0.0
3372,67.0,2,60,10.0,0.0
3373,79.0,3,90,0.0,0.0
3374,74.0,1,120,0.0,0.0
3375,67.0,7,30,11.0,0.0
3376,67.0,3,90,1.0,0.0
3377,62.0,5,120,1.0,0.0
3378,50.0,4,60,12.0,0.0
3379,59.0,21,30,13.0,0.0
3380,55.0,0,120,3.0,0.0
3381,47.0,0,120,3.0,0.0
3382,35.0,18,120,14.0,0.0
3383,62.0,3,30,11.0,0.0
3384,55.0,17,30,13.0,0.0
3385,67.0,7,30,11.0,0.0
3386,59.0,17,30,13.0,0.0
3387,79.0,3,30,0.0,0.0
3388,62.0,2,30,11.0,0.0
3389,67.0,2,30,1.0,0.0
3390,55.0,3,30,13.0,0.0
3391,72.0,5,30,10.0,0.0
3392,76.0,3,120,0.0,0.0
3393,84.0,3,240,0.0,0.0
3394,64.0,3,60,11.0,0.0
3395,72.0,3,240,1.0,0.0
3396,64.0,1,120,1.0,0.0
3397,57.0,25,30,12.0,0.0
3398,52.0,21,60,13.0,0.0
3399,45.0,0,120,3.0,0.0
3400,52.0,20,120,3.0,0.0
3401,33.0,0,120,14.0,0.0
3402,64.0,2,30,10.0,0.0
3403,60.0,4,30,12.0,0.0
3404,72.0,5,30,10.0,0.0
3405,57.0,25,30,12.0,0.0
3406,64.0,1,30,10.0,0.0
3407,60.0,7,30,12.0,0.0
3408,66.0,2,60,10.0,0.0
3409,78.0,3,240,0.0,0.0
3410,72.0,7,30,11.0,0.0
3411,66.0,0,240,1.0,0.0
3412,57.0,4,60,12.0,0.0
3413,57.0,21,30,13.0,0.0
3414,38.0,18,120,14.0,0.0
3415,38.0,2,120,3.0,0.0
3416,69.0,3,30,11.0,0.0
3417,54.0,23,30,13.0,0.0
3418,72.0,7,30,11.0,0.0
3419,57.0,17,30,13.0,0.0
3420,69.0,5,30,11.0,0.0
3421,54.0,3,30,13.0,0.0
3422,66.0,5,30,10.0,0.0
3423,83.0,0,120,0.0,0.0
3424,66.0,3,60,11.0,0.0
3425,71.0,0,120,1.0,0.0
3426,54.0,1,120,4.0,0.0
3427,51.0,25,30,12.0,0.0
3428,66.0,3,60,2.0,0.0
3429,54.0,0,120,5.0,0.0
3430,59.0,21,60,13.0,0.0
3431,47.0,0,240,3.0,0.0
3432,39.0,0,120,3.0,0.0
3433,39.0,20,120,14.0,0.0
3434,59.0,2,30,10.0,0.0
3435,59.0,1,30,12.0,0.0
3436,66.0,5,30,10.0,0.0
3437,51.0,25,30,12.0,0.0
3438,69.0,6,60,2.0,0.0
3439,59.0,1,30,10.0,0.0
3440,59.0,1,30,12.0,0.0
3441,67.0,2,60,10.0,0.0
3442,67.0,7,30,11.0,0.0
3443,55.0,2,120,4.0,0.0
3444,52.0,1,60,12.0,0.0
3445,55.0,6,240,5.0,0.0
3446,67.0,3,60,2.0,0.0
3447,52.0,21,30,13.0,0.0
3448,40.0,18,120,3.0,0.0
3449,59.0,3,30,11.0,0.0
3450,55.0,23,30,13.0,0.0
3451,67.0,7,30,11.0,0.0
3452,71.0,3,60,2.0,0.0
3453,52.0,23,30,13.0,0.0
3454,59.0,2,30,11.0,0.0
3455,55.0,3,30,13.0,0.0
3456,67.0,5,30,10.0,0.0
3457,64.0,3,60,11.0,0.0
3458,60.0,2,240,4.0,0.0
3459,48.0,25,30,12.0,0.0
3460,72.0,3,60,2.0,0.0
3461,45.0,21,60,13.0,0.0
3462,45.0,0,240,3.0,0.0
3463,52.0,20,120,3.0,0.0
3464,64.0,2,30,10.0,0.0
3465,57.0,1,30,12.0,0.0
3466,67.0,5,30,10.0,0.0
3467,48.0,25,30,12.0,0.0
3468,76.0,0,60,2.0,0.0
3469,64.0,5,30,10.0,0.0
3470,57.0,1,30,12.0,0.0
3471,66.0,2,60,10.0,0.0
3472,69.0,7,30,11.0,0.0
3473,50.0,1,60,12.0,0.0
3474,54.0,0,120,5.0,0.0
3475,74.0,3,60,2.0,0.0
3476,50.0,21,30,13.0,0.0
3477,38.0,18,120,14.0,0.0
3478,50.0,2,120,3.0,0.0
3479,66.0,3,30,11.0,0.0
3480,57.0,23,30,13.0,0.0
3481,69.0,7,30,11.0,0.0
3482,69.0,1,60,2.0,0.0
3483,50.0,20,30,13.0,0.0
3484,66.0,5,30,11.0,0.0
3485,57.0,3,30,13.0,0.0
3486,74.0,5,30,10.0,0.0
3487,86.0,0,120,0.0,0.0
3488,83.0,3,120,0.0,0.0
3489,67.0,3,60,11.0,0.0
3490,59.0,0,120,4.0,0.0
3491,74.0,1,120,1.0,0.0
3492,71.0,0,120,1.0,0.0
3493,59.0,25,30,12.0,0.0
3494,55.0,0,120,5.0,0.0
3495,71.0,6,120,2.0,0.0
3496,55.0,21,60,13.0,0.0
3497,59.0,0,120,3.0,0.0
3498,62.0,20,120,3.0,0.0
3499,31.0,0,120,14.0,0.0
3500,71.0,2,30,10.0,0.0
3501,62.0,4,30,12.0,0.0
3502,74.0,5,30,10.0,0.0
3503,59.0,25,30,12.0,0.0
3504,71.0,1,30,10.0,0.0
3505,62.0,1,30,12.0,0.0
3506,67.0,1,60,10.0,0.0
3507,84.0,1,60,0.0,0.0
3508,88.0,0,60,0.0,0.0
3509,76.0,7,30,11.0,0.0
3510,76.0,1,60,1.0,0.0
3511,55.0,4,60,12.0,0.0
3512,60.0,21,30,13.0,0.0
3513,64.0,0,60,3.0,0.0
3514,31.0,0,120,14.0,0.0
3515,72.0,2,30,11.0,0.0
3516,64.0,3,30,13.0,0.0
3517,81.0,1,60,0.0,0.0
3518,84.0,0,60,0.0,0.0
3519,76.0,7,30,11.0,0.0
3520,72.0,0,15,1.0,0.0
3521,69.0,0,60,1.0,0.0
3522,60.0,22,30,13.0,0.0
3523,60.0,20,15,3.0,0.0
3524,57.0,0,60,3.0,0.0
3525,72.0,2,30,11.0,0.0
3526,64.0,3,30,13.0,0.0
3527,74.0,5,30,10.0,0.0
3528,83.0,3,120,0.0,0.0
3529,86.0,0,120,0.0,0.0
3530,67.0,3,60,11.0,0.0
3531,74.0,0,120,1.0,0.0
3532,71.0,1,120,1.0,0.0
3533,59.0,25,30,12.0,0.0
3534,55.0,21,60,13.0,0.0
3535,59.0,20,120,3.0,0.0
3536,62.0,0,120,3.0,0.0
3537,71.0,2,30,10.0,0.0
3538,62.0,4,30,12.0,0.0
3539,74.0,5,30,10.0,0.0
3540,59.0,25,30,12.0,0.0
3541,71.0,1,30,10.0,0.0
3542,62.0,7,30,12.0,0.0
3543,67.0,2,60,10.0,0.0
3544,79.0,3,120,0.0,0.0
3545,67.0,7,30,11.0,0.0
3546,67.0,6,120,1.0,0.0
3547,62.0,2,120,4.0,0.0
3548,55.0,4,60,12.0,0.0
3549,71.0,0,120,2.0,0.0
3550,59.0,0,120,5.0,0.0
3551,74.0,3,120,2.0,0.0
3552,59.0,21,30,13.0,0.0
3553,55.0,0,120,3.0,0.0
3554,43.0,18,120,14.0,0.0
3555,71.0,3,30,11.0,0.0
3556,62.0,23,30,13.0,0.0
3557,67.0,7,30,11.0,0.0
3558,59.0,14,30,13.0,0.0
3559,71.0,2,30,11.0,0.0
3560,62.0,3,30,13.0,0.0
3561,73.0,5,30,10.0,0.0
3562,91.0,1,60,0.0,0.0
3563,82.0,0,120,0.0,0.0
3564,67.0,2,60,11.0,0.0
3565,79.0,1,60,1.0,0.0
3566,70.0,0,120,1.0,0.0
3567,64.0,1,120,4.0,0.0
3568,64.0,25,30,12.0,0.0
3569,76.0,6,120,2.0,0.0
3570,61.0,0,120,5.0,0.0
3571,73.0,0,120,2.0,0.0
3572,55.0,3,60,13.0,0.0
3573,67.0,18,60,3.0,0.0
3574,58.0,0,120,3.0,0.0
3575,70.0,1,30,10.0,0.0
3576,67.0,4,30,12.0,0.0
3577,73.0,5,30,10.0,0.0
3578,88.0,3,60,0.0,0.0
3579,76.0,0,60,1.0,0.0
3580,64.0,25,30,12.0,0.0
3581,64.0,0,60,3.0,0.0
3582,70.0,1,30,10.0,0.0
3583,67.0,1,30,12.0,0.0
3584,69.0,2,60,10.0,0.0
3585,81.0,1,120,0.0,0.0
3586,89.0,0,120,0.0,0.0
3587,74.0,7,30,11.0,0.0
3588,62.0,2,120,4.0,0.0
3589,77.0,0,120,1.0,0.0
3590,69.0,0,120,1.0,0.0
3591,55.0,4,60,12.0,0.0
3592,74.0,0,120,2.0,0.0
3593,62.0,3,120,5.0,0.0
3594,62.0,21,30,13.0,0.0
3595,57.0,0,120,3.0,0.0
3596,43.0,20,15,14.0,0.0
3597,65.0,0,120,3.0,0.0
3598,69.0,3,30,11.0,0.0
3599,65.0,23,30,13.0,0.0
3600,74.0,7,30,11.0,0.0
3601,62.0,22,30,13.0,0.0
3602,69.0,2,30,11.0,0.0
3603,65.0,3,30,13.0,0.0
3604,68.0,5,30,10.0,0.0
3605,86.0,0,120,0.0,0.0
3606,80.0,3,120,0.0,0.0
3607,65.0,3,60,11.0,0.0
3608,74.0,1,120,1.0,0.0
3609,65.0,0,120,4.0,0.0
3610,68.0,0,120,1.0,0.0
3611,60.0,25,30,12.0,0.0
3612,77.0,6,120,2.0,0.0
3613,72.0,0,120,2.0,0.0
3614,60.0,0,120,5.0,0.0
3615,55.0,21,60,13.0,0.0
3616,56.0,0,120,3.0,0.0
3617,62.0,20,120,3.0,0.0
3618,65.0,2,30,10.0,0.0
3619,62.0,4,30,12.0,0.0
3620,68.0,5,30,10.0,0.0
3621,60.0,25,30,12.0,0.0
3622,65.0,1,30,10.0,0.0
3623,62.0,1,30,12.0,0.0
3624,62.0,2,60,10.0,0.0
3625,79.0,3,120,0.0,0.0
3626,67.0,7,30,11.0,0.0
3627,67.0,2,120,1.0,0.0
3628,67.0,1,60,4.0,0.0
3629,55.0,1,60,12.0,0.0
3630,71.0,1,120,2.0,0.0
3631,79.0,3,60,2.0,0.0
3632,59.0,1,120,5.0,0.0
3633,59.0,21,30,13.0,0.0
3634,55.0,5,120,3.0,0.0
3635,71.0,2,30,11.0,0.0
3636,62.0,23,30,13.0,0.0
3637,67.0,7,30,11.0,0.0
3638,65.0,2,60,4.0,0.0
3639,77.0,0,60,2.0,0.0
3640,59.0,14,30,13.0,0.0
3641,71.0,2,30,11.0,0.0
3642,62.0,21,30,13.0,0.0
3643,72.0,5,30,10.0,0.0
3644,84.0,3,90,0.0,0.0
3645,72.0,3,60,11.0,0.0
3646,72.0,4,90,1.0,0.0
3647,64.0,2,240,4.0,0.0
3648,57.0,25,30,12.0,0.0
3649,60.0,6,120,5.0,0.0
3650,76.0,0,240,2.0,0.0
3651,72.0,2,120,2.0,0.0
3652,57.0,14,60,13.0,0.0
3653,60.0,1,120,3.0,0.0
3654,45.0,20,120,14.0,0.0
3655,57.0,0,120,3.0,0.0
3656,69.0,2,30,10.0,0.0
3657,60.0,4,30,12.0,0.0
3658,72.0,5,30,10.0,0.0
3659,57.0,18,30,12.0,0.0
3660,69.0,4,30,10.0,0.0
3661,84.0,3,20,0.0,0.0
3662,72.0,2,20,1.0,0.0
3663,60.0,1,30,12.0,0.0
3664,64.0,2,60,10.0,0.0
3665,88.0,3,120,0.0,0.0
3666,71.0,7,30,11.0,0.0
3667,76.0,2,120,1.0,0.0
3668,64.0,1,60,12.0,0.0
3669,71.0,3,60,2.0,0.0
3670,59.0,1,120,5.0,0.0
3671,56.0,21,30,13.0,0.0
3672,59.0,20,60,3.0,0.0
3673,56.0,0,60,3.0,0.0
3674,44.0,18,120,14.0,0.0
3675,68.0,3,30,11.0,0.0
3676,52.0,3,30,13.0,0.0
3677,71.0,7,30,11.0,0.0
3678,68.0,1,60,2.0,0.0
3679,56.0,14,30,13.0,0.0
3680,56.0,0,60,3.0,0.0
3681,52.0,5,60,3.0,0.0
3682,68.0,2,30,11.0,0.0
3683,52.0,3,30,13.0,0.0
3684,72.0,5,30,10.0,0.0
3685,84.0,3,90,0.0,0.0
3686,64.0,3,60,11.0,0.0
3687,72.0,4,90,1.0,0.0
3688,64.0,2,240,4.0,0.0
3689,57.0,25,30,12.0,0.0
3690,72.0,2,120,2.0,0.0
3691,76.0,0,240,2.0,0.0
3692,60.0,6,120,5.0,0.0
3693,57.0,14,60,13.0,0.0
3694,60.0,0,120,3.0,0.0
3695,45.0,20,120,14.0,0.0
3696,57.0,1,120,3.0,0.0
3697,69.0,2,30,10.0,0.0
3698,60.0,4,30,12.0,0.0
3699,72.0,5,30,10.0,0.0
3700,57.0,18,30,12.0,0.0
3701,69.0,4,30,10.0,0.0
3702,84.0,3,20,0.0,0.0
3703,72.0,2,20,1.0,0.0
3704,60.0,1,30,12.0,0.0
3705,64.0,2,60,10.0,0.0
3706,76.0,1,120,0.0,0.0
3707,88.0,3,120,0.0,0.0
3708,71.0,7,30,11.0,0.0
3709,64.0,0,120,1.0,0.0
3710,76.0,2,120,1.0,0.0
3711,64.0,1,60,12.0,0.0
3712,59.0,0,120,5.0,0.0
3713,71.0,3,60,2.0,0.0
3714,55.0,21,30,13.0,0.0
3715,55.0,0,60,3.0,0.0
3716,43.0,18,120,14.0,0.0
3717,59.0,20,60,3.0,0.0
3718,67.0,3,30,11.0,0.0
3719,52.0,3,30,13.0,0.0
3720,71.0,7,30,11.0,0.0
3721,67.0,1,60,2.0,0.0
3722,55.0,14,30,13.0,0.0
3723,52.0,5,60,3.0,0.0
3724,55.0,0,60,3.0,0.0
3725,67.0,2,30,11.0,0.0
3726,52.0,3,30,13.0,0.0
3727,69.0,5,30,10.0,0.0
3728,77.0,3,120,0.0,0.0
3729,81.0,3,90,0.0,0.0
3730,69.0,3,60,11.0,0.0
3731,65.0,1,120,1.0,0.0
3732,69.0,4,90,1.0,0.0
3733,60.0,25,30,12.0,0.0
3734,69.0,6,120,2.0,0.0
3735,53.0,14,60,13.0,0.0
3736,41.0,0,120,14.0,0.0
3737,53.0,20,120,3.0,0.0
3738,57.0,0,120,3.0,0.0
3739,65.0,2,30,10.0,0.0
3740,57.0,4,30,12.0,0.0
3741,69.0,5,30,10.0,0.0
3742,60.0,18,30,12.0,0.0
3743,65.0,1,30,10.0,0.0
3744,81.0,3,20,0.0,0.0
3745,69.0,4,20,1.0,0.0
3746,57.0,1,30,12.0,0.0
3747,67.0,2,60,10.0,0.0
3748,79.0,1,120,0.0,0.0
3749,84.0,3,90,0.0,0.0
3750,72.0,7,30,11.0,0.0
3751,67.0,2,120,1.0,0.0
3752,72.0,6,90,1.0,0.0
3753,60.0,4,60,12.0,0.0
3754,67.0,3,120,2.0,0.0
3755,52.0,21,30,13.0,0.0
3756,40.0,0,120,14.0,0.0
3757,55.0,0,120,3.0,0.0
3758,52.0,18,120,3.0,0.0
3759,67.0,3,30,11.0,0.0
3760,48.0,14,30,13.0,0.0
3761,72.0,7,30,11.0,0.0
3762,52.0,14,30,13.0,0.0
3763,84.0,3,20,0.0,0.0
3764,67.0,2,30,11.0,0.0
3765,72.0,5,20,1.0,0.0
3766,48.0,3,30,13.0,0.0
3767,69.0,5,30,10.0,0.0
3768,89.0,0,240,0.0,0.0
3769,81.0,3,120,0.0,0.0
3770,69.0,3,60,11.0,0.0
3771,77.0,0,240,1.0,0.0
3772,69.0,1,120,1.0,0.0
3773,65.0,25,30,12.0,0.0
3774,65.0,0,120,2.0,0.0
3775,69.0,6,120,2.0,0.0
3776,50.0,21,60,13.0,0.0
3777,53.0,0,120,3.0,0.0
3778,57.0,0,120,3.0,0.0
3779,65.0,2,30,10.0,0.0
3780,57.0,4,30,12.0,0.0
3781,69.0,5,30,10.0,0.0
3782,65.0,25,30,12.0,0.0
3783,65.0,1,30,10.0,0.0
3784,57.0,1,30,12.0,0.0
3785,68.0,2,60,10.0,0.0
3786,83.0,3,120,0.0,0.0
3787,71.0,7,30,11.0,0.0
3788,71.0,2,120,1.0,0.0
3789,59.0,4,60,12.0,0.0
3790,68.0,4,120,2.0,0.0
3791,71.0,0,120,2.0,0.0
3792,38.0,21,30,13.0,0.0
3793,56.0,0,120,3.0,0.0
3794,50.0,5,120,3.0,0.0
3795,38.0,20,15,14.0,0.0
3796,65.0,3,30,11.0,0.0
3797,44.0,23,30,13.0,0.0
3798,71.0,7,30,11.0,0.0
3799,38.0,14,30,13.0,0.0
3800,65.0,2,30,11.0,0.0
3801,44.0,3,30,13.0,0.0
3802,57.0,5,30,10.0,0.0
3803,88.0,3,120,0.0,0.0
3804,84.0,0,120,0.0,0.0
3805,64.0,3,60,11.0,0.0
3806,76.0,0,120,1.0,0.0
3807,72.0,0,120,1.0,0.0
3808,57.0,1,120,4.0,0.0
3809,52.0,25,30,12.0,0.0
3810,48.0,3,240,5.0,0.0
3811,72.0,6,120,2.0,0.0
3812,69.0,0,120,2.0,0.0
3813,45.0,21,60,13.0,0.0
3814,45.0,27,120,14.0,0.0
3815,45.0,0,120,3.0,0.0
3816,57.0,2,240,3.0,0.0
3817,60.0,2,30,10.0,0.0
3818,57.0,4,30,12.0,0.0
3819,57.0,5,30,10.0,0.0
3820,52.0,25,30,12.0,0.0
3821,60.0,1,30,10.0,0.0
3822,57.0,1,30,12.0,0.0
3823,60.0,5,120,4.0,0.0
3824,43.0,30,30,13.0,0.0
3825,43.0,18,120,3.0,0.0
3826,45.0,30,30,13.0,0.0
3827,43.0,20,30,13.0,0.0
3828,45.0,3,30,13.0,0.0
3829,60.0,2,30,10.0,0.0
3830,57.0,3,30,11.0,0.0
3831,65.0,2,420,4.0,0.0
3832,53.0,25,30,12.0,0.0
3833,60.0,3,480,5.0,0.0
3834,41.0,21,60,13.0,0.0
3835,57.0,26,480,3.0,0.0
3836,41.0,27,120,3.0,0.0
3837,65.0,2,30,10.0,0.0
3838,60.0,3,30,11.0,0.0
3839,57.0,4,30,12.0,0.0
3840,60.0,2,30,10.0,0.0
3841,57.0,3,30,11.0,0.0
3842,53.0,25,30,12.0,0.0
3843,65.0,2,30,10.0,0.0
3844,60.0,3,30,11.0,0.0
3845,57.0,7,30,12.0,0.0
3846,81.0,3,180,2.0,0.0
3847,40.0,30,30,13.0,0.0
3848,40.0,5,120,3.0,0.0
3849,41.0,30,30,13.0,0.0
3850,40.0,25,30,13.0,0.0
3851,41.0,21,30,13.0,0.0
3852,65.0,2,30,10.0,0.0
3853,60.0,3,30,11.0,0.0
3854,50.0,25,30,12.0,0.0
3855,38.0,21,60,13.0,0.0
3856,38.0,0,240,3.0,0.0
3857,69.0,2,30,10.0,0.0
3858,65.0,3,30,11.0,0.0
3859,60.0,1,30,12.0,0.0
3860,65.0,2,30,10.0,0.0
3861,60.0,3,30,11.0,0.0
3862,50.0,25,30,12.0,0.0
3863,77.0,58,60,2.0,0.0
3864,69.0,2,30,10.0,0.0
3865,65.0,3,30,11.0,0.0
3866,60.0,1,30,12.0,0.0
3867,74.0,52,60,2.0,0.0
3868,62.0,2,60,4.0,0.0
3869,69.0,1,60,2.0,0.0
3870,65.0,2,30,10.0,0.0
3871,62.0,3,30,11.0,0.0
3872,65.0,1,120,4.0,0.0
3873,55.0,25,30,12.0,0.0
3874,72.0,6,120,2.0,0.0
3875,62.0,0,120,5.0,0.0
3876,43.0,21,60,13.0,0.0
3877,43.0,0,240,3.0,0.0
3878,55.0,106,120,3.0,0.0
3879,67.0,2,30,10.0,0.0
3880,65.0,3,30,11.0,0.0
3881,62.0,4,30,12.0,0.0
3882,65.0,2,30,10.0,0.0
3883,62.0,3,30,11.0,0.0
3884,55.0,25,30,12.0,0.0
3885,67.0,2,30,10.0,0.0
3886,65.0,2,30,11.0,0.0
3887,62.0,1,30,12.0,0.0
3888,62.0,2,120,4.0,0.0
3889,55.0,3,120,5.0,0.0
3890,71.0,1,120,2.0,0.0
3891,53.0,8,120,3.0,0.0
3892,31.0,109,120,14.0,0.0
3893,84.0,3,120,0.0,0.0
3894,72.0,2,120,1.0,0.0
3895,48.0,1,480,4.0,0.0
3896,67.0,6,120,2.0,0.0
3897,64.0,0,120,2.0,0.0
3898,36.0,3,480,5.0,0.0
3899,52.0,0,120,3.0,0.0
3900,55.0,18,120,3.0,0.0
3901,65.0,5,30,10.0,0.0
3902,86.0,3,60,0.0,0.0
3903,74.0,1,60,1.0,0.0
3904,57.0,25,30,12.0,0.0
3905,69.0,6,120,2.0,0.0
3906,65.0,0,120,2.0,0.0
3907,36.0,0,15,14.0,0.0
3908,57.0,0,120,3.0,0.0
3909,53.0,0,120,3.0,0.0
3910,69.0,1,30,10.0,0.0
3911,53.0,25,30,12.0,0.0
3912,65.0,5,30,10.0,0.0
3913,81.0,3,60,0.0,0.0
3914,69.0,1,60,1.0,0.0
3915,57.0,25,30,12.0,0.0
3916,69.0,1,30,10.0,0.0
3917,53.0,1,30,12.0,0.0
3918,84.0,3,120,0.0,0.0
3919,72.0,2,120,1.0,0.0
3920,64.0,0,240,2.0,0.0
3921,67.0,6,120,2.0,0.0
3922,55.0,18,120,3.0,0.0
3923,52.0,1,240,3.0,0.0
3924,64.0,5,30,10.0,0.0
3925,79.0,3,120,0.0,0.0
3926,67.0,2,120,1.0,0.0
3927,55.0,25,30,12.0,0.0
3928,72.0,1,120,2.0,0.0
3929,36.0,49,120,14.0,0.0
3930,60.0,0,120,3.0,0.0
3931,67.0,5,30,10.0,0.0
3932,52.0,25,30,12.0,0.0
3933,64.0,5,30,10.0,0.0
3934,55.0,18,30,12.0,0.0
3935,67.0,1,30,10.0,0.0
3936,52.0,7,30,12.0,0.0
3937,88.0,3,60,0.0,0.0
3938,76.0,57,60,1.0,0.0
3939,48.0,2,360,4.0,0.0
3940,64.0,6,120,2.0,0.0
3941,36.0,3,360,5.0,0.0
3942,67.0,0,120,2.0,0.0
3943,55.0,18,120,3.0,0.0
3944,52.0,0,120,3.0,0.0
3945,36.0,0,120,14.0,0.0
3946,84.0,3,60,0.0,0.0
3947,72.0,2,60,1.0,0.0
3948,65.0,5,30,10.0,0.0
3949,86.0,3,60,0.0,0.0
3950,74.0,1,60,1.0,0.0
3951,57.0,25,30,12.0,0.0
3952,65.0,6,120,2.0,0.0
3953,69.0,6,60,2.0,0.0
3954,53.0,0,120,3.0,0.0
3955,57.0,18,60,3.0,0.0
3956,36.0,0,120,14.0,0.0
3957,69.0,1,30,10.0,0.0
3958,53.0,1,30,12.0,0.0
3959,65.0,5,30,10.0,0.0
3960,81.0,3,60,0.0,0.0
3961,69.0,4,60,1.0,0.0
3962,57.0,18,30,12.0,0.0
3963,74.0,0,60,2.0,0.0
3964,62.0,101,60,3.0,0.0
3965,69.0,5,30,10.0,0.0
3966,53.0,1,30,12.0,0.0
3967,84.0,3,120,0.0,0.0
3968,72.0,2,120,1.0,0.0
3969,64.0,1,120,2.0,0.0
3970,67.0,0,120,2.0,0.0
3971,52.0,36,120,3.0,0.0
3972,55.0,0,120,3.0,0.0
3973,67.0,5,30,10.0,0.0
3974,79.0,3,120,0.0,0.0
3975,67.0,0,120,1.0,0.0
3976,64.0,1,120,4.0,0.0
3977,52.0,35,30,12.0,0.0
3978,64.0,6,120,2.0,0.0
3979,52.0,0,120,5.0,0.0
3980,60.0,0,120,2.0,0.0
3981,52.0,30,120,3.0,0.0
3982,60.0,0,120,3.0,0.0
3983,64.0,5,30,10.0,0.0
3984,60.0,35,30,12.0,0.0
3985,67.0,1,30,10.0,0.0
3986,52.0,1,30,12.0,0.0
3987,62.0,5,60,10.0,0.0
3988,79.0,1,120,0.0,0.0
3989,67.0,7,30,11.0,0.0
3990,62.0,2,120,4.0,0.0
3991,55.0,17,60,12.0,0.0
3992,59.0,3,120,2.0,0.0
3993,55.0,0,120,5.0,0.0
3994,62.0,0,120,2.0,0.0
3995,59.0,11,30,13.0,0.0
3996,59.0,0,120,3.0,0.0
3997,55.0,28,120,3.0,0.0
3998,62.0,7,30,11.0,0.0
3999,55.0,32,30,13.0,0.0
4000,67.0,2,30,11.0,0.0
4001,59.0,3,30,13.0,0.0
4002,67.0,5,30,10.0,0.0
4003,64.0,7,60,11.0,0.0
4004,67.0,0,15,1.0,0.0
4005,64.0,0,120,4.0,0.0
4006,52.0,17,30,12.0,0.0
4007,52.0,0,120,5.0,0.0
4008,60.0,6,120,2.0,0.0
4009,64.0,0,120,2.0,0.0
4010,60.0,11,60,13.0,0.0
4011,52.0,30,120,3.0,0.0
4012,60.0,0,120,3.0,0.0
4013,64.0,5,30,10.0,0.0
4014,60.0,35,30,12.0,0.0
4015,67.0,1,30,10.0,0.0
4016,52.0,1,30,12.0,0.0
4017,62.0,5,60,10.0,0.0
4018,79.0,3,15,0.0,0.0
4019,67.0,7,30,11.0,0.0
4020,67.0,3,120,1.0,0.0
4021,62.0,2,120,4.0,0.0
4022,55.0,17,60,12.0,0.0
4023,55.0,1,120,5.0,0.0
4024,59.0,0,120,2.0,0.0
4025,62.0,3,120,2.0,0.0
4026,59.0,11,30,13.0,0.0
4027,59.0,2,120,3.0,0.0
4028,55.0,0,120,3.0,0.0
4029,62.0,7,30,11.0,0.0
4030,55.0,24,30,13.0,0.0
4031,67.0,2,30,11.0,0.0
4032,59.0,31,30,13.0,0.0
4033,69.0,5,30,10.0,0.0
4034,77.0,3,120,0.0,0.0
4035,81.0,0,120,0.0,0.0
4036,69.0,7,60,11.0,0.0
4037,65.0,1,120,4.0,0.0
4038,69.0,0,120,1.0,0.0
4039,53.0,17,30,12.0,0.0
4040,60.0,11,60,13.0,0.0
4041,60.0,0,120,3.0,0.0
4042,53.0,30,120,3.0,0.0
4043,65.0,5,30,10.0,0.0
4044,60.0,35,30,12.0,0.0
4045,69.0,1,30,10.0,0.0
4046,53.0,7,30,12.0,0.0
4047,70.0,5,60,10.0,0.0
4048,82.0,1,120,0.0,0.0
4049,70.0,7,30,11.0,0.0
4050,65.0,5,120,4.0,0.0
4051,70.0,0,120,1.0,0.0
4052,58.0,17,60,12.0,0.0
4053,50.0,11,30,13.0,0.0
4054,58.0,0,120,3.0,0.0
4055,50.0,28,120,3.0,0.0
4056,65.0,7,30,11.0,0.0
4057,58.0,32,30,13.0,0.0
4058,70.0,2,30,11.0,0.0
4059,50.0,3,30,13.0,0.0
4060,69.0,5,30,10.0,0.0
4061,81.0,3,120,0.0,0.0
4062,77.0,0,15,0.0,0.0
4063,69.0,7,60,11.0,0.0
4064,69.0,0,120,1.0,0.0
4065,65.0,1,120,4.0,0.0
4066,53.0,17,30,12.0,0.0
4067,53.0,11,60,13.0,0.0
4068,53.0,0,120,3.0,0.0
4069,60.0,30,120,3.0,0.0
4070,65.0,5,30,10.0,0.0
4071,60.0,35,30,12.0,0.0
4072,69.0,1,30,10.0,0.0
4073,53.0,7,30,12.0,0.0
4074,70.0,5,60,10.0,0.0
4075,82.0,0,120,0.0,0.0
4076,77.0,3,120,0.0,0.0
4077,70.0,7,30,11.0,0.0
4078,70.0,3,120,1.0,0.0
4079,65.0,3,120,4.0,0.0
4080,58.0,17,60,12.0,0.0
4081,50.0,11,30,13.0,0.0
4082,58.0,5,120,3.0,0.0
4083,50.0,0,120,3.0,0.0
4084,65.0,7,30,11.0,0.0
4085,58.0,24,30,13.0,0.0
4086,70.0,2,30,11.0,0.0
4087,50.0,52,30,13.0,0.0
4088,81.0,1,60,0.0,0.0
4089,76.0,3,120,0.0,0.0
4090,64.0,2,60,11.0,0.0
4091,69.0,5,60,1.0,0.0
4092,64.0,0,120,4.0,0.0
4093,60.0,3,360,2.0,0.0
4094,64.0,6,120,2.0,0.0
4095,48.0,44,60,13.0,0.0
4096,60.0,0,60,3.0,0.0
4097,48.0,2,120,3.0,0.0
4098,36.0,74,120,14.0,0.0
4099,79.0,0,60,0.0,0.0
4100,67.0,8,60,1.0,0.0
4101,58.0,0,60,3.0,0.0
4102,65.0,27,90,1.0,0.0
4103,60.0,5,120,4.0,0.0
4104,65.0,0,840,2.0,0.0
4105,53.0,3,120,13.0,0.0
4106,53.0,0,120,3.0,0.0
4107,57.0,1,240,3.0,0.0
4108,41.0,28,120,14.0,0.0
4109,77.0,3,20,0.0,0.0
4110,65.0,8,20,1.0,0.0
4111,69.0,5,30,10.0,0.0
4112,81.0,2,90,0.0,0.0
4113,69.0,27,90,1.0,0.0
4114,65.0,35,30,12.0,0.0
4115,52.0,3,120,13.0,0.0
4116,52.0,0,120,3.0,0.0
4117,40.0,117,120,14.0,0.0
4118,65.0,3,30,10.0,0.0
4119,57.0,1,30,12.0,0.0
4120,69.0,4,30,10.0,0.0
4121,65.0,1,30,12.0,0.0
4122,81.0,3,20,0.0,0.0
4123,69.0,4,20,1.0,0.0
4124,86.0,3,240,0.0,0.0
4125,74.0,4,240,1.0,0.0
4126,53.0,3,360,2.0,0.0
4127,50.0,3,120,13.0,0.0
4128,50.0,0,120,3.0,0.0
4129,57.0,33,360,3.0,0.0
4130,38.0,28,120,14.0,0.0
4131,74.0,5,30,10.0,0.0
4132,62.0,35,30,12.0,0.0
4133,45.0,3,120,13.0,0.0
4134,45.0,1,120,3.0,0.0
4135,33.0,112,120,14.0,0.0
4136,69.0,5,30,10.0,0.0
4137,65.0,28,30,12.0,0.0
4138,74.0,4,30,10.0,0.0
4139,62.0,4,30,12.0,0.0
4140,53.0,2,120,4.0,0.0
4141,53.0,0,120,5.0,0.0
4142,38.0,3,120,13.0,0.0
4143,38.0,0,120,3.0,0.0
4144,38.0,0,120,14.0,0.0
4145,57.0,1,120,4.0,0.0
4146,57.0,4,30,12.0,0.0
4147,57.0,6,240,5.0,0.0
4148,57.0,3,120,2.0,0.0
4149,53.0,36,30,13.0,0.0
4150,48.0,114,120,3.0,0.0
4151,50.0,0,240,3.0,0.0
4152,53.0,4,30,12.0,0.0
4153,50.0,35,30,13.0,0.0
4154,57.0,1,30,12.0,0.0
4155,53.0,3,30,13.0,0.0
4156,62.0,0,240,4.0,0.0
4157,47.0,33,120,3.0,0.0
4158,79.0,3,60,0.0,0.0
4159,74.0,3,120,0.0,0.0
4160,62.0,0,120,1.0,0.0
4161,67.0,21,60,1.0,0.0
4162,62.0,4,30,12.0,0.0
4163,55.0,6,120,5.0,0.0
4164,62.0,6,120,2.0,0.0
4165,47.0,12,30,13.0,0.0
4166,55.0,1,120,3.0,0.0
4167,43.0,0,120,3.0,0.0
4168,35.0,71,120,14.0,0.0
4169,55.0,4,30,12.0,0.0
4170,50.0,10,30,13.0,0.0
4171,77.0,0,60,0.0,0.0
4172,65.0,2,60,1.0,0.0
4173,62.0,1,30,12.0,0.0
4174,47.0,14,15,13.0,0.0
4175,72.0,3,120,0.0,0.0
4176,76.0,3,90,0.0,0.0
4177,60.0,5,120,1.0,0.0
4178,64.0,27,90,1.0,0.0
4179,60.0,0,600,2.0,0.0
4180,64.0,3,360,2.0,0.0
4181,48.0,3,120,13.0,0.0
4182,36.0,0,120,14.0,0.0
4183,48.0,30,120,3.0,0.0
4184,76.0,3,20,0.0,0.0
4185,64.0,5,20,1.0,0.0
4186,79.0,2,90,0.0,0.0
4187,76.0,1,120,0.0,0.0
4188,64.0,3,30,11.0,0.0
4189,64.0,1,120,1.0,0.0
4190,67.0,27,90,1.0,0.0
4191,60.0,37,30,12.0,0.0
4192,47.0,3,120,13.0,0.0
4193,55.0,0,120,3.0,0.0
4194,35.0,0,120,14.0,0.0
4195,52.0,0,15,3.0,0.0
4196,60.0,1,30,11.0,0.0
4197,52.0,1,30,12.0,0.0
4198,64.0,2,30,11.0,0.0
4199,60.0,4,30,12.0,0.0
4200,79.0,3,20,0.0,0.0
4201,67.0,5,20,1.0,0.0
4202,84.0,3,360,0.0,0.0
4203,88.0,0,360,0.0,0.0
4204,72.0,2,360,1.0,0.0
4205,76.0,0,360,1.0,0.0
4206,45.0,3,120,13.0,0.0
4207,60.0,30,120,3.0,0.0
4208,64.0,0,240,3.0,0.0
4209,33.0,0,120,14.0,0.0
4210,72.0,3,30,11.0,0.0
4211,64.0,37,30,12.0,0.0
4212,69.0,3,120,2.0,0.0
4213,42.0,3,120,13.0,0.0
4214,57.0,109,120,3.0,0.0
4215,30.0,0,120,14.0,0.0
4216,64.0,3,30,11.0,0.0
4217,60.0,37,30,12.0,0.0
4218,72.0,3,30,11.0,0.0
4219,64.0,1,30,12.0,0.0
4220,67.0,3,120,2.0,0.0
4221,43.0,3,120,13.0,0.0
4222,31.0,30,120,14.0,0.0
4223,64.0,0,120,3.0,0.0
4224,55.0,0,240,3.0,0.0
4225,86.0,3,60,0.0,0.0
4226,83.0,0,120,0.0,0.0
4227,67.0,3,30,11.0,0.0
4228,71.0,6,120,1.0,0.0
4229,74.0,18,60,1.0,0.0
4230,59.0,16,30,12.0,0.0
4231,65.0,3,120,2.0,0.0
4232,59.0,0,120,2.0,0.0
4233,55.0,3,120,13.0,0.0
4234,62.0,1,120,3.0,0.0
4235,43.0,109,120,14.0,0.0
4236,62.0,3,30,11.0,0.0
4237,65.0,28,30,12.0,0.0
4238,79.0,3,60,0.0,0.0
4239,67.0,0,60,1.0,0.0
4240,67.0,2,30,11.0,0.0
4241,59.0,1,30,12.0,0.0
4242,84.0,3,120,0.0,0.0
4243,72.0,0,120,1.0,0.0
4244,52.0,2,120,4.0,0.0
4245,64.0,0,120,2.0,0.0
4246,48.0,0,120,5.0,0.0
4247,60.0,3,120,2.0,0.0
4248,48.0,3,120,13.0,0.0
4249,48.0,0,360,3.0,0.0
4250,36.0,50,120,14.0,0.0
4251,64.0,3,60,11.0,0.0
4252,55.0,1,120,4.0,0.0
4253,60.0,57,60,12.0,0.0
4254,52.0,6,120,5.0,0.0
4255,47.0,120,120,3.0,0.0
4256,60.0,2,60,11.0,0.0
4257,52.0,1,60,12.0,0.0
4258,64.0,8,360,4.0,0.0
4259,45.0,50,120,3.0,0.0
4260,64.0,3,60,11.0,0.0
4261,60.0,57,60,12.0,0.0
4262,42.0,112,120,3.0,0.0
4263,57.0,0,120,3.0,0.0
4264,60.0,3,60,11.0,0.0
4265,52.0,7,60,12.0,0.0
4266,43.0,0,240,3.0,0.0
4267,55.0,50,120,3.0,0.0
4268,62.0,2,60,11.0,0.0
4269,62.0,1,60,4.0,0.0
4270,59.0,57,60,12.0,0.0
4271,53.0,1,120,3.0,0.0
4272,55.0,2,60,11.0,0.0
4273,55.0,0,60,4.0,0.0
4274,53.0,1,60,12.0,0.0
4275,84.0,2,360,10.0,0.0
4276,72.0,8,360,11.0,0.0
4277,60.0,1,120,4.0,0.0
4278,52.0,40,30,12.0,0.0
4279,67.0,6,240,2.0,0.0
4280,76.0,6,360,2.0,0.0
4281,60.0,39,15,5.0,0.0
4282,48.0,3,180,13.0,0.0
4283,36.0,13,180,14.0,0.0
4284,64.0,33,360,3.0,0.0
4285,55.0,33,240,3.0,0.0
4286,55.0,39,30,12.0,0.0
4287,60.0,1,30,12.0,0.0
4288,55.0,24,30,12.0,0.0
4289,60.0,32,30,12.0,0.0
4290,50.0,3,60,13.0,0.0
4291,38.0,2,60,14.0,0.0
4292,64.0,4,30,12.0,0.0
4293,56.0,40,30,12.0,0.0
4294,68.0,0,240,2.0,0.0
4295,52.0,0,240,13.0,0.0
4296,56.0,38,240,3.0,0.0
4297,40.0,3,240,14.0,0.0
4298,60.0,30,30,12.0,0.0
4299,64.0,1,30,12.0,0.0
4300,83.0,2,60,10.0,0.0
4301,71.0,23,60,11.0,0.0
4302,56.0,15,30,12.0,0.0
4303,74.0,3,120,2.0,0.0
4304,62.0,0,120,3.0,0.0
4305,59.0,30,30,12.0,0.0
4306,76.0,2,60,10.0,0.0
4307,64.0,0,60,11.0,0.0
4308,62.0,4,30,12.0,0.0
4309,81.0,2,360,10.0,0.0
4310,89.0,3,360,0.0,0.0
4311,69.0,4,360,11.0,0.0
4312,77.0,0,360,1.0,0.0
4313,65.0,1,360,4.0,0.0
4314,57.0,40,30,12.0,0.0
4315,72.0,6,240,2.0,0.0
4316,69.0,0,480,2.0,0.0
4317,53.0,3,180,13.0,0.0
4318,57.0,38,480,3.0,0.0
4319,41.0,13,180,14.0,0.0
4320,60.0,33,240,3.0,0.0
4321,48.0,0,30,12.0,0.0
4322,60.0,40,30,12.0,0.0
4323,65.0,40,30,12.0,0.0
4324,53.0,0,30,12.0,0.0
4325,61.0,24,30,12.0,0.0
4326,49.0,0,30,12.0,0.0
4327,53.0,0,30,12.0,0.0
4328,65.0,32,30,12.0,0.0
4329,55.0,3,60,13.0,0.0
4330,43.0,2,60,14.0,0.0
4331,69.0,4,30,12.0,0.0
4332,57.0,0,30,12.0,0.0
4333,49.0,0,30,12.0,0.0
4334,61.0,40,30,12.0,0.0
4335,73.0,3,240,2.0,0.0
4336,57.0,0,240,13.0,0.0
4337,45.0,3,240,14.0,0.0
4338,61.0,0,240,3.0,0.0
4339,65.0,30,30,12.0,0.0
4340,53.0,0,30,12.0,0.0
4341,69.0,0,30,12.0,0.0
4342,57.0,40,30,12.0,0.0
4343,79.0,2,60,10.0,0.0
4344,88.0,1,120,0.0,0.0
4345,67.0,23,60,11.0,0.0
4346,64.0,0,120,4.0,0.0
4347,76.0,2,120,1.0,0.0
4348,49.0,15,30,12.0,0.0
4349,61.0,0,30,12.0,0.0
4350,64.0,0,30,12.0,0.0
4351,52.0,30,30,12.0,0.0
4352,73.0,1,60,10.0,0.0
4353,61.0,2,60,11.0,0.0
4354,67.0,0,30,12.0,0.0
4355,55.0,0,30,12.0,0.0
4356,77.0,2,300,10.0,0.0
4357,86.0,3,120,0.0,0.0
4358,65.0,28,300,11.0,0.0
4359,62.0,0,120,4.0,0.0
4360,74.0,1,120,1.0,0.0
4361,50.0,0,30,12.0,0.0
4362,62.0,40,30,12.0,0.0
4363,70.0,6,180,2.0,0.0
4364,74.0,0,180,2.0,0.0
4365,50.0,0,240,13.0,0.0
4366,38.0,3,240,14.0,0.0
4367,62.0,0,180,3.0,0.0
4368,58.0,13,180,3.0,0.0
4369,53.0,0,30,12.0,0.0
4370,65.0,36,30,12.0,0.0
4371,58.0,0,30,12.0,0.0
4372,70.0,40,30,12.0,0.0
4373,50.0,0,30,12.0,0.0
4374,62.0,21,30,12.0,0.0
4375,53.0,0,30,12.0,0.0
4376,65.0,32,30,12.0,0.0
4377,69.0,0,60,2.0,0.0
4378,72.0,3,60,2.0,0.0
4379,57.0,38,60,3.0,0.0
4380,60.0,0,60,3.0,0.0
4381,69.0,0,30,12.0,0.0
4382,57.0,4,30,12.0,0.0
4383,50.0,0,30,12.0,0.0
4384,62.0,10,30,12.0,0.0
4385,71.0,0,240,2.0,0.0
4386,68.0,0,240,2.0,0.0
4387,52.0,1,240,13.0,0.0
4388,59.0,0,240,3.0,0.0
4389,40.0,3,240,14.0,0.0
4390,56.0,38,240,3.0,0.0
4391,52.0,35,30,12.0,0.0
4392,64.0,0,30,12.0,0.0
4393,75.0,2,60,10.0,0.0
4394,63.0,3,60,11.0,0.0
4395,68.0,0,30,12.0,0.0
4396,56.0,40,30,12.0,0.0
4397,76.0,2,60,10.0,0.0
4398,64.0,28,60,11.0,0.0
4399,50.0,10,30,12.0,0.0
4400,62.0,0,30,12.0,0.0
4401,52.0,0,30,12.0,0.0
4402,64.0,32,30,12.0,0.0
4403,83.0,1,60,10.0,0.0
4404,71.0,2,60,11.0,0.0
4405,68.0,0,30,12.0,0.0
4406,56.0,3,30,12.0,0.0
4407,86.0,2,120,10.0,0.0
4408,81.0,3,180,0.0,0.0
4409,74.0,8,120,11.0,0.0
4410,77.0,2,180,1.0,0.0
4411,81.0,0,180,1.0,0.0
4412,65.0,0,180,4.0,0.0
4413,60.0,0,30,12.0,0.0
4414,48.0,40,30,12.0,0.0
4415,77.0,0,180,2.0,0.0
4416,69.0,6,180,2.0,0.0
4417,45.0,0,240,13.0,0.0
4418,33.0,3,240,14.0,0.0
4419,53.0,0,180,3.0,0.0
4420,57.0,13,180,3.0,0.0
4421,53.0,0,30,12.0,0.0
4422,65.0,30,30,12.0,0.0
4423,57.0,0,30,12.0,0.0
4424,69.0,40,30,12.0,0.0
4425,84.0,2,180,10.0,0.0
4426,72.0,23,180,11.0,0.0
4427,60.0,16,30,12.0,0.0
4428,48.0,0,30,12.0,0.0
4429,51.0,0,30,12.0,0.0
4430,63.0,31,30,12.0,0.0
4431,79.0,1,60,0.0,0.0
4432,63.0,0,60,4.0,0.0
4433,75.0,2,60,1.0,0.0
4434,79.0,0,60,1.0,0.0
4435,75.0,0,60,2.0,0.0
4436,67.0,3,60,2.0,0.0
4437,55.0,0,60,3.0,0.0
4438,51.0,38,60,3.0,0.0
4439,55.0,2,30,12.0,0.0
4440,67.0,0,30,12.0,0.0
4441,78.0,1,240,0.0,0.0
4442,78.0,0,240,1.0,0.0
4443,74.0,1,240,1.0,0.0
4444,62.0,0,240,4.0,0.0
4445,60.0,0,30,12.0,0.0
4446,48.0,15,30,12.0,0.0
4447,74.0,0,240,2.0,0.0
4448,66.0,0,240,2.0,0.0
4449,50.0,1,240,13.0,0.0
4450,54.0,0,240,3.0,0.0
4451,50.0,38,240,3.0,0.0
4452,38.0,3,240,14.0,0.0
4453,50.0,0,30,12.0,0.0
4454,62.0,35,30,12.0,0.0
4455,80.0,2,60,10.0,0.0
4456,68.0,3,60,11.0,0.0
4457,66.0,40,30,12.0,0.0
4458,54.0,0,30,12.0,0.0
4459,81.0,2,60,10.0,0.0
4460,69.0,25,60,11.0,0.0
4461,48.0,0,30,12.0,0.0
4462,60.0,13,30,12.0,0.0
4463,50.0,0,30,12.0,0.0
4464,62.0,31,30,12.0,0.0
4465,84.0,1,60,10.0,0.0
4466,72.0,2,60,11.0,0.0
4467,54.0,0,30,12.0,0.0
4468,66.0,2,30,12.0,0.0
4469,93.0,2,60,10.0,0.0
4470,88.0,1,180,0.0,0.0
4471,81.0,23,60,11.0,0.0
4472,84.0,0,180,1.0,0.0
4473,76.0,0,180,1.0,0.0
4474,64.0,2,180,4.0,0.0
4475,60.0,0,30,12.0,0.0
4476,48.0,15,30,12.0,0.0
4477,60.0,0,180,5.0,0.0
4478,72.0,3,180,2.0,0.0
4479,76.0,0,180,2.0,0.0
4480,40.0,3,180,13.0,0.0
4481,60.0,13,180,3.0,0.0
4482,28.0,0,180,14.0,0.0
4483,64.0,0,30,12.0,0.0
4484,52.0,30,30,12.0,0.0
4485,91.0,2,60,10.0,0.0
4486,79.0,8,60,11.0,0.0
4487,67.0,40,30,12.0,0.0
4488,55.0,0,30,12.0,0.0
4489,91.0,1,60,10.0,0.0
4490,79.0,2,60,11.0,0.0
4491,60.0,15,30,12.0,0.0
4492,48.0,0,30,12.0,0.0
4493,64.0,30,30,12.0,0.0
4494,52.0,0,30,12.0,0.0
4495,93.0,1,60,10.0,0.0
4496,84.0,0,15,0.0,0.0
4497,76.0,1,60,0.0,0.0
4498,81.0,2,60,11.0,0.0
4499,72.0,2,60,1.0,0.0
4500,76.0,0,60,1.0,0.0
4501,60.0,0,60,4.0,0.0
4502,52.0,0,60,5.0,0.0
4503,64.0,0,60,2.0,0.0
4504,72.0,3,60,2.0,0.0
4505,42.0,0,60,13.0,0.0
4506,30.0,3,60,14.0,0.0
4507,52.0,0,60,3.0,0.0
4508,42.0,38,60,3.0,0.0
4509,60.0,0,30,12.0,0.0
4510,72.0,0,30,12.0,0.0
4511,93.0,2,60,10.0,0.0
4512,83.0,0,240,0.0,0.0
4513,89.0,1,240,0.0,0.0
4514,81.0,23,60,11.0,0.0
4515,59.0,0,240,7.0,0.0
4516,71.0,0,240,1.0,0.0
4517,65.0,2,240,4.0,0.0
4518,53.0,0,240,7.0,0.0
4519,77.0,0,240,1.0,0.0
4520,59.0,4,30,12.0,0.0
4521,65.0,0,240,2.0,0.0
4522,59.0,0,240,5.0,0.0
4523,74.0,1,240,2.0,0.0
4524,43.0,2,240,8.0,0.0
4525,50.0,11,30,13.0,0.0
4526,43.0,0,240,13.0,0.0
4527,50.0,38,240,3.0,0.0
4528,43.0,0,240,3.0,0.0
4529,31.0,3,240,14.0,0.0
4530,62.0,4,30,12.0,0.0
4531,53.0,26,30,13.0,0.0
4532,86.0,2,60,10.0,0.0
4533,74.0,8,60,11.0,0.0
4534,65.0,4,30,12.0,0.0
4535,59.0,36,30,13.0,0.0
4536,86.0,2,60,10.0,0.0
4537,74.0,23,60,11.0,0.0
4538,62.0,4,30,12.0,0.0
4539,53.0,11,30,13.0,0.0
4540,65.0,4,30,12.0,0.0
4541,59.0,26,30,13.0,0.0
4542,92.0,1,60,10.0,0.0
4543,80.0,2,60,11.0,0.0
4544,71.0,0,30,12.0,0.0
4545,62.0,0,30,13.0,0.0
4546,92.0,2,60,10.0,0.0
4547,83.0,0,240,0.0,0.0
4548,89.0,3,240,0.0,0.0
4549,80.0,23,60,11.0,0.0
4550,59.0,0,240,7.0,0.0
4551,77.0,0,240,1.0,0.0
4552,53.0,2,240,7.0,0.0
4553,65.0,0,240,4.0,0.0
4554,71.0,0,240,1.0,0.0
4555,53.0,4,30,12.0,0.0
4556,59.0,1,240,5.0,0.0
4557,62.0,0,240,2.0,0.0
4558,65.0,0,240,2.0,0.0
4559,43.0,5,240,8.0,0.0
4560,43.0,0,240,13.0,0.0
4561,47.0,11,30,13.0,0.0
4562,43.0,33,240,3.0,0.0
4563,50.0,0,240,3.0,0.0
4564,31.0,0,240,14.0,0.0
4565,59.0,4,30,12.0,0.0
4566,50.0,26,30,13.0,0.0
4567,90.0,2,60,10.0,0.0
4568,78.0,8,60,11.0,0.0
4569,62.0,4,30,12.0,0.0
4570,53.0,36,30,13.0,0.0
4571,90.0,2,60,10.0,0.0
4572,78.0,23,60,11.0,0.0
4573,59.0,4,30,12.0,0.0
4574,50.0,11,30,13.0,0.0
4575,62.0,4,30,12.0,0.0
4576,53.0,26,30,13.0,0.0
4577,91.0,2,60,10.0,0.0
4578,79.0,0,60,11.0,0.0
4579,65.0,4,30,12.0,0.0
4580,59.0,0,30,13.0,0.0
4581,91.0,2,60,10.0,0.0
4582,88.0,0,240,0.0,0.0
4583,79.0,1,240,0.0,0.0
4584,79.0,23,60,11.0,0.0
4585,72.0,2,240,1.0,0.0
4586,76.0,0,240,1.0,0.0
4587,52.0,0,240,7.0,0.0
4588,64.0,0,240,4.0,0.0
4589,60.0,0,240,7.0,0.0
4590,52.0,1,30,12.0,0.0
4591,52.0,3,30,2.0,0.0
4592,60.0,1,240,5.0,0.0
4593,48.0,2,240,8.0,0.0
4594,36.0,0,240,13.0,0.0
4595,46.0,3,30,13.0,0.0
4596,36.0,0,360,3.0,0.0
4597,46.0,8,30,3.0,0.0
4598,36.0,3,240,14.0,0.0
4599,55.0,1,30,12.0,0.0
4600,55.0,3,30,2.0,0.0
4601,52.0,3,30,13.0,0.0
4602,52.0,23,30,3.0,0.0
4603,82.0,2,60,10.0,0.0
4604,70.0,8,60,11.0,0.0
4605,58.0,1,30,12.0,0.0
4606,58.0,3,30,2.0,0.0
4607,55.0,3,30,13.0,0.0
4608,55.0,33,30,3.0,0.0
4609,82.0,2,60,10.0,0.0
4610,70.0,23,60,11.0,0.0
4611,55.0,1,30,12.0,0.0
4612,55.0,3,30,2.0,0.0
4613,52.0,3,30,13.0,0.0
4614,52.0,8,30,3.0,0.0
4615,58.0,1,30,12.0,0.0
4616,58.0,3,30,2.0,0.0
4617,55.0,3,30,13.0,0.0
4618,55.0,23,30,3.0,0.0
4619,88.0,1,60,10.0,0.0
4620,76.0,0,60,11.0,0.0
4621,64.0,2,30,12.0,0.0
4622,64.0,0,30,2.0,0.0
4623,58.0,0,30,13.0,0.0
4624,58.0,38,30,3.0,0.0
4625,88.0,2,60,10.0,0.0
4626,76.0,0,600,0.0,0.0
4627,79.0,3,600,0.0,0.0
4628,76.0,23,60,11.0,0.0
4629,58.0,0,360,7.0,0.0
4630,60.0,0,600,4.0,0.0
4631,55.0,2,360,7.0,0.0
4632,76.0,0,240,1.0,0.0
4633,72.0,1,240,1.0,0.0
4634,52.0,1,30,12.0,0.0
4635,58.0,6,600,5.0,0.0
4636,52.0,3,30,2.0,0.0
4637,48.0,5,360,8.0,0.0
4638,43.0,3,30,13.0,0.0
4639,36.0,0,600,13.0,0.0
4640,36.0,0,600,14.0,0.0
4641,43.0,8,30,3.0,0.0
4642,55.0,1,30,12.0,0.0
4643,55.0,3,30,2.0,0.0
4644,46.0,3,30,13.0,0.0
4645,46.0,23,30,3.0,0.0
4646,79.0,2,60,10.0,0.0
4647,67.0,8,60,11.0,0.0
4648,58.0,1,30,12.0,0.0
4649,58.0,3,30,2.0,0.0
4650,52.0,3,30,13.0,0.0
4651,52.0,33,30,3.0,0.0
4652,79.0,2,60,10.0,0.0
4653,67.0,23,60,11.0,0.0
4654,55.0,1,30,12.0,0.0
4655,55.0,3,30,2.0,0.0
4656,46.0,3,30,13.0,0.0
4657,46.0,8,30,3.0,0.0
4658,58.0,1,30,12.0,0.0
4659,58.0,3,30,2.0,0.0
4660,52.0,3,30,13.0,0.0
4661,52.0,23,30,3.0,0.0
4662,86.0,2,60,10.0,0.0
4663,74.0,4,60,11.0,0.0
4664,64.0,2,30,12.0,0.0
4665,64.0,3,30,2.0,0.0
4666,55.0,37,30,13.0,0.0
4667,55.0,2,30,3.0,0.0
4668,86.0,2,60,10.0,0.0
4669,74.0,24,60,11.0,0.0
4670,64.0,2,360,1.0,0.0
4671,67.0,0,360,1.0,0.0
4672,55.0,6,30,2.0,0.0
4673,46.0,8,30,3.0,0.0
4674,58.0,6,30,2.0,0.0
4675,52.0,23,30,3.0,0.0
4676,76.0,2,60,10.0,0.0
4677,76.0,7,60,11.0,0.0
4678,64.0,1,30,2.0,0.0
4679,55.0,34,30,3.0,0.0
4680,76.0,2,60,10.0,0.0
4681,76.0,24,60,11.0,0.0
4682,58.0,6,30,2.0,0.0
4683,52.0,8,30,3.0,0.0
4684,64.0,6,30,2.0,0.0
4685,55.0,23,30,3.0,0.0
4686,85.0,2,60,10.0,0.0
4687,85.0,4,60,11.0,0.0
4688,67.0,6,30,2.0,0.0
4689,58.0,39,30,3.0,0.0
4690,85.0,1,120,10.0,0.0
4691,85.0,108,360,11.0,0.0
4692,58.0,6,30,2.0,0.0
4693,52.0,34,30,3.0,0.0
4694,64.0,6,30,2.0,0.0
4695,55.0,28,30,3.0,0.0
4696,67.0,0,30,2.0,0.0
4697,58.0,34,30,3.0,0.0
4698,64.0,6,30,2.0,0.0
4699,55.0,34,30,3.0,0.0
4700,67.0,6,30,2.0,0.0
4701,58.0,29,30,3.0,0.0
4702,70.0,6,30,2.0,0.0
4703,64.0,115,30,3.0,0.0
4704,96.0,2,120,10.0,0.0
4705,84.0,3,120,11.0,0.0
4706,72.0,251,120,12.0,0.0
4707,96.0,2,360,10.0,0.0
4708,84.0,3,360,11.0,0.0
4709,72.0,124,360,12.0,0.0
4710,68.0,6,120,2.0,0.0
4711,68.0,6,360,2.0,0.0
4712,56.0,98,15,3.0,0.0
4713,51.0,0,120,13.0,0.0
4714,48.0,3,120,13.0,0.0
4715,41.0,0,120,13.0,0.0
4716,29.0,124,120,14.0,0.0
4717,41.0,0,240,13.0,0.0
4718,51.0,3,240,13.0,0.0
4719,48.0,0,240,13.0,0.0
4720,29.0,2,240,14.0,0.0
4721,72.0,2,120,1.0,0.0
4722,60.0,0,120,5.0,0.0
4723,69.0,6,120,2.0,0.0
4724,57.0,229,120,3.0,0.0
4725,72.0,0,240,1.0,0.0
4726,60.0,233,240,5.0,0.0
4727,80.0,0,120,1.0,0.0
4728,92.0,3,15,0.0,0.0
4729,68.0,2,15,4.0,0.0
4730,80.0,0,360,1.0,0.0
4731,38.0,0,120,13.0,0.0
4732,48.0,3,120,13.0,0.0
4733,54.0,0,120,13.0,0.0
4734,38.0,119,120,14.0,0.0
4735,38.0,3,240,13.0,0.0
4736,48.0,0,240,13.0,0.0
4737,54.0,0,240,13.0,0.0
4738,38.0,228,240,14.0,0.0
4739,93.0,2,120,10.0,0.0
4740,81.0,3,120,11.0,0.0
4741,69.0,4,120,12.0,0.0
4742,93.0,2,240,10.0,0.0
4743,81.0,3,240,11.0,0.0
4744,69.0,11,240,12.0,0.0
4745,73.0,6,120,2.0,0.0
4746,73.0,6,360,2.0,0.0
4747,61.0,227,15,3.0,0.0
4748,53.0,0,120,13.0,0.0
4749,43.0,0,120,13.0,0.0
4750,47.0,3,120,13.0,0.0
4751,31.0,124,120,14.0,0.0
4752,43.0,0,240,13.0,0.0
4753,47.0,0,240,13.0,0.0
4754,53.0,3,240,13.0,0.0
4755,31.0,2,240,14.0,0.0
4756,74.0,6,120,2.0,0.0
4757,62.0,229,120,3.0,0.0
4758,74.0,2,15,1.0,0.0
4759,62.0,0,15,5.0,0.0
4760,80.0,0,120,1.0,0.0
4761,92.0,3,15,0.0,0.0
4762,68.0,2,15,4.0,0.0
4763,80.0,3,360,1.0,0.0
4764,59.0,0,240,7.0,0.0
4765,53.0,0,240,7.0,0.0
4766,91.0,2,150,10.0,0.0
4767,79.0,3,150,11.0,0.0
4768,67.0,35,150,12.0,0.0
4769,59.0,3,120,7.0,0.0
4770,53.0,0,120,7.0,0.0
4771,43.0,33,15,8.0,0.0
4772,90.0,2,30,10.0,0.0
4773,78.0,3,30,11.0,0.0
4774,66.0,30,30,12.0,0.0
4775,91.0,2,30,10.0,0.0
4776,79.0,3,30,11.0,0.0
4777,67.0,4,30,12.0,0.0
4778,84.0,2,120,10.0,0.0
4779,72.0,2,120,11.0,0.0
4780,52.0,0,120,7.0,0.0
4781,60.0,1,120,7.0,0.0
4782,60.0,1,120,12.0,0.0
4783,72.0,1,120,2.0,0.0
4784,48.0,5,120,8.0,0.0
4785,36.0,3,2880,13.0,0.0
4786,36.0,108,15,14.0,0.0
4787,64.0,54,120,3.0,0.0
4788,55.0,0,120,3.0,0.0
4789,74.0,60,60,2.0,0.0
4790,56.0,120,120,3.0,0.0
4791,65.0,0,120,3.0,0.0
4792,71.0,6,60,2.0,0.0
4793,72.0,6,360,2.0,0.0
4794,48.0,0,15,14.0,0.0
4795,55.0,0,120,3.0,0.0
4796,64.0,0,120,3.0,0.0
4797,58.0,0,120,3.0,0.0
4798,67.0,114,120,3.0,0.0
4799,36.0,0,120,14.0,0.0
4800,57.0,0,120,3.0,0.0
4801,66.0,0,120,3.0,0.0
4802,36.0,54,120,14.0,0.0
4803,74.0,60,60,2.0,0.0
4804,65.0,0,120,3.0,0.0
4805,56.0,0,120,3.0,0.0
4806,48.0,114,120,14.0,0.0
4807,71.0,6,60,2.0,0.0
4808,72.0,6,120,2.0,0.0
4809,48.0,0,120,14.0,0.0
4810,64.0,115,120,3.0,0.0
4811,55.0,0,120,3.0,0.0
4812,67.0,6,240,2.0,0.0
4813,63.0,5,120,3.0,0.0
4814,54.0,0,120,3.0,0.0
4815,62.0,0,120,3.0,0.0
4816,53.0,54,120,3.0,0.0
4817,36.0,114,15,14.0,0.0
4818,69.0,60,60,2.0,0.0
4819,51.0,0,120,3.0,0.0
4820,60.0,0,120,3.0,0.0
4821,66.0,6,60,2.0,0.0
4822,67.0,6,360,2.0,0.0
4823,59.0,0,120,3.0,0.0
4824,50.0,0,120,3.0,0.0
4825,48.0,120,15,14.0,0.0
4826,62.0,0,120,3.0,0.0
4827,36.0,114,120,14.0,0.0
4828,53.0,0,120,3.0,0.0
4829,52.0,0,120,3.0,0.0
4830,36.0,0,120,14.0,0.0
4831,61.0,54,120,3.0,0.0
4832,69.0,60,60,2.0,0.0
4833,51.0,0,120,3.0,0.0
4834,60.0,0,120,3.0,0.0
4835,48.0,120,120,14.0,0.0
4836,66.0,6,60,2.0,0.0
4837,67.0,61,180,2.0,0.0
4838,59.0,0,120,3.0,0.0
4839,48.0,0,120,14.0,0.0
4840,50.0,54,120,3.0,0.0
4841,36.0,120,120,14.0,0.0
4842,49.0,5,120,3.0,0.0
4843,58.0,0,120,3.0,0.0
4844,60.0,66,240,2.0,0.0
4845,36.0,0,120,14.0,0.0
4846,57.0,0,120,3.0,0.0
4847,48.0,54,120,3.0,0.0
4848,48.0,0,120,14.0,0.0
4849,56.0,114,120,3.0,0.0
4850,47.0,0,120,3.0,0.0
4851,60.0,6,180,2.0,0.0
4852,46.0,114,240,3.0,0.0
4853,55.0,0,240,3.0,0.0
4854,36.0,120,120,14.0,0.0
4855,60.0,6,240,2.0,0.0
4856,48.0,0,120,14.0,0.0
4857,54.0,0,240,3.0,0.0
4858,36.0,120,120,14.0,0.0
4859,45.0,114,240,3.0,0.0
4860,62.0,6,240,2.0,0.0
4861,48.0,0,120,14.0,0.0
4862,36.0,109,120,14.0,0.0
4863,53.0,2,240,3.0,0.0
4864,44.0,0,240,3.0,0.0
4865,59.0,6,120,2.0,0.0
4866,48.0,120,120,14.0,0.0
4867,60.0,1,480,10.0,0.0
4868,60.0,0,480,11.0,0.0
4869,60.0,60,600,2.0,0.0
4870,43.0,107,120,3.0,0.0
4871,52.0,0,120,3.0,0.0
4872,60.0,2,120,4.0,0.0
4873,55.0,0,120,7.0,0.0
4874,52.0,0,120,7.0,0.0
4875,48.0,1,120,5.0,0.0
4876,48.0,7,120,8.0,0.0
4877,36.0,3,120,13.0,0.0
4878,36.0,107,120,14.0,0.0
4879,60.0,0,120,4.0,0.0
4880,53.0,0,120,7.0,0.0
4881,57.0,2,120,7.0,0.0
4882,48.0,1,120,5.0,0.0
4883,41.0,7,120,8.0,0.0
4884,41.0,3,120,13.0,0.0
4885,41.0,107,120,14.0,0.0
4886,60.0,1,120,4.0,0.0
4887,52.0,0,120,7.0,0.0
4888,55.0,0,120,7.0,0.0
4889,48.0,1,120,5.0,0.0
4890,48.0,7,120,8.0,0.0
4891,36.0,3,120,13.0,0.0
4892,36.0,114,120,14.0,0.0
4893,60.0,0,480,4.0,0.0
4894,53.0,2,480,7.0,0.0
4895,57.0,0,480,7.0,0.0
4896,48.0,1,480,5.0,0.0
4897,41.0,4,480,8.0,0.0
4898,41.0,3,480,13.0,0.0
4899,29.0,109,480,14.0,0.0
4900,57.0,60,60,2.0,0.0
4901,53.0,60,60,2.0,0.0
4902,57.0,60,60,2.0,0.0
4903,60.0,60,60,2.0,0.0
4904,65.0,53,60,2.0,0.0
4905,69.0,3,60,2.0,0.0
4906,72.0,1,480,10.0,0.0
4907,72.0,0,480,11.0,0.0
4908,72.0,60,600,1.0,0.0
4909,72.0,118,120,2.0,0.0
4910,55.0,2,120,7.0,0.0
4911,52.0,0,120,7.0,0.0
4912,67.0,0,120,4.0,0.0
4913,64.0,0,120,2.0,0.0
4914,67.0,0,120,2.0,0.0
4915,60.0,1,120,5.0,0.0
4916,48.0,5,120,8.0,0.0
4917,52.0,112,120,3.0,0.0
4918,48.0,0,120,3.0,0.0
4919,60.0,2,120,7.0,0.0
4920,68.0,0,120,4.0,0.0
4921,51.0,0,120,7.0,0.0
4922,60.0,0,120,5.0,0.0
4923,68.0,0,120,2.0,0.0
4924,63.0,1,120,2.0,0.0
4925,44.0,5,120,8.0,0.0
4926,51.0,0,120,3.0,0.0
4927,44.0,112,120,3.0,0.0
4928,52.0,0,120,7.0,0.0
4929,55.0,0,120,7.0,0.0
4930,67.0,1,120,4.0,0.0
4931,67.0,0,120,2.0,0.0
4932,64.0,0,120,2.0,0.0
4933,60.0,1,120,5.0,0.0
4934,48.0,5,120,8.0,0.0
4935,48.0,117,120,3.0,0.0
4936,52.0,0,120,3.0,0.0
4937,51.0,0,480,7.0,0.0
4938,68.0,2,480,4.0,0.0
4939,60.0,0,960,7.0,0.0
4940,63.0,0,480,2.0,0.0
4941,68.0,1,960,2.0,0.0
4942,60.0,1,480,5.0,0.0
4943,44.0,5,480,8.0,0.0
4944,51.0,108,480,3.0,0.0
4945,44.0,0,480,3.0,0.0
4946,68.0,60,60,1.0,0.0
4947,63.0,60,60,1.0,0.0
4948,84.0,1,360,10.0,0.0
4949,84.0,1,360,0.0,0.0
4950,72.0,2,360,11.0,0.0
4951,68.0,60,60,1.0,0.0
4952,72.0,60,60,1.0,0.0
4953,75.0,55,60,1.0,0.0
4954,80.0,5,60,1.0,0.0
4955,56.0,0,480,7.0,0.0
4956,84.0,57,120,1.0,0.0
4957,60.0,2,480,4.0,0.0
4958,65.0,0,480,2.0,0.0
4959,41.0,5,480,8.0,0.0
4960,41.0,0,480,3.0,0.0
4961,53.0,112,480,3.0,0.0
4962,80.0,3,60,0.0,0.0
4963,80.0,57,60,1.0,0.0
4964,77.0,3,60,0.0,0.0
4965,77.0,57,60,1.0,0.0
4966,80.0,3,60,0.0,0.0
4967,80.0,57,60,1.0,0.0
4968,84.0,3,60,0.0,0.0
4969,72.0,57,60,1.0,0.0
4970,89.0,3,60,0.0,0.0
4971,77.0,49,60,1.0,0.0
4972,92.0,3,60,0.0,0.0
4973,80.0,8,60,1.0,0.0
4974,84.0,1,960,10.0,0.0
4975,96.0,0,960,10.0,0.0
4976,91.0,1,960,0.0,0.0
4977,88.0,0,960,0.0,0.0
4978,84.0,0,960,11.0,0.0
4979,72.0,2,960,11.0,0.0
4980,55.0,0,120,7.0,0.0
4981,76.0,0,960,1.0,0.0
4982,64.0,0,120,7.0,0.0
4983,79.0,1,960,1.0,0.0
4984,60.0,2,120,4.0,0.0
4985,48.0,0,15,5.0,0.0
4986,67.0,0,120,2.0,0.0
4987,64.0,0,120,2.0,0.0
4988,48.0,5,120,8.0,0.0
4989,48.0,0,120,3.0,0.0
4990,36.0,232,120,3.0,0.0
4991,55.0,0,120,7.0,0.0
4992,64.0,0,120,4.0,0.0
4993,52.0,1,120,7.0,0.0
4994,52.0,1,120,12.0,0.0
4995,55.0,0,120,12.0,0.0
4996,55.0,1,120,5.0,0.0
4997,60.0,0,120,2.0,0.0
4998,64.0,0,120,2.0,0.0
4999,48.0,2,120,8.0,0.0
5000,36.0,3,120,13.0,0.0
5001,36.0,0,120,3.0,0.0
5002,48.0,0,120,3.0,0.0
5003,36.0,588,120,14.0,0.0
5004,64.0,0,480,4.0,0.0
5005,52.0,0,480,7.0,0.0
5006,55.0,0,480,7.0,0.0
5007,52.0,0,480,12.0,0.0
5008,55.0,1,480,12.0,0.0
5009,55.0,0,480,5.0,0.0
5010,64.0,1,480,2.0,0.0
5011,60.0,0,480,2.0,0.0
5012,48.0,2,480,8.0,0.0
5013,36.0,3,480,13.0,0.0
5014,48.0,0,480,3.0,0.0
5015,36.0,480,480,3.0,0.0
5016,36.0,0,480,14.0,0.0
