,note,step,duration,channel,velocity
0,29.0,0,240,5.0,0.0
1,41.0,0,240,5.0,0.0
2,53.0,600,240,1.0,0.0
3,68.0,0,360,1.0,0.0
4,60.0,0,480,4.0,0.0
5,65.0,0,480,4.0,0.0
6,53.0,60,360,5.0,0.0
7,80.0,0,360,1.0,0.0
8,72.0,0,360,2.0,0.0
9,79.0,60,60,1.0,0.0
10,55.0,0,60,5.0,0.0
11,56.0,0,60,5.0,0.0
12,77.0,480,60,1.0,0.0
13,73.0,0,480,1.0,0.0
14,85.0,0,480,1.0,0.0
15,61.0,0,480,4.0,0.0
16,67.0,0,480,4.0,0.0
17,79.0,0,480,2.0,0.0
18,58.0,240,480,5.0,0.0
19,52.0,0,240,1.0,0.0
20,28.0,600,240,5.0,0.0
21,40.0,0,240,5.0,0.0
22,58.0,0,360,5.0,0.0
23,85.0,60,360,1.0,0.0
24,73.0,0,360,1.0,0.0
25,67.0,480,480,4.0,0.0
26,63.0,0,480,4.0,0.0
27,79.0,0,360,2.0,0.0
28,84.0,60,60,1.0,0.0
29,60.0,0,60,5.0,0.0
30,61.0,0,60,5.0,0.0
31,82.0,0,60,1.0,0.0
32,60.0,0,480,5.0,0.0
33,78.0,0,480,1.0,0.0
34,91.0,0,480,1.0,0.0
35,69.0,0,480,4.0,0.0
36,66.0,240,480,4.0,0.0
37,84.0,0,480,2.0,0.0
38,51.0,600,240,1.0,0.0
39,27.0,0,240,5.0,0.0
40,39.0,0,240,5.0,0.0
41,63.0,0,360,5.0,0.0
42,90.0,7,360,1.0,0.0
43,72.0,53,367,4.0,0.0
44,78.0,0,360,1.0,0.0
45,69.0,0,480,4.0,0.0
46,84.0,0,360,2.0,0.0
47,65.0,60,60,5.0,0.0
48,89.0,0,60,1.0,0.0
49,87.0,0,60,1.0,0.0
50,66.0,480,60,5.0,0.0
51,70.0,0,480,4.0,0.0
52,89.0,240,480,2.0,0.0
53,94.0,0,480,1.0,0.0
54,77.0,0,480,5.0,0.0
55,65.0,0,480,5.0,0.0
56,82.0,0,480,1.0,0.0
57,26.0,0,240,5.0,0.0
58,38.0,720,240,5.0,0.0
59,50.0,0,240,1.0,0.0
60,77.0,0,480,5.0,0.0
61,65.0,0,480,5.0,0.0
62,70.0,0,480,4.0,0.0
63,101.0,405,480,1.0,0.0
64,89.0,0,480,1.0,0.0
65,94.0,0,480,2.0,0.0
66,37.0,7,405,5.0,0.0
67,25.0,1028,412,5.0,0.0
68,49.0,0,412,1.0,0.0
69,24.0,881,2207,5.0,0.0
70,36.0,5,2140,5.0,0.0
71,92.0,0,960,1.0,0.0
72,77.0,0,960,5.0,0.0
73,68.0,0,960,4.0,0.0
74,72.0,0,960,4.0,0.0
75,96.0,0,960,2.0,0.0
76,101.0,0,960,1.0,0.0
77,89.0,0,960,1.0,0.0
78,65.0,192,960,5.0,0.0
79,72.0,240,192,4.0,0.0
80,67.0,0,192,4.0,0.0
81,91.0,0,192,2.0,0.0
82,64.0,0,192,5.0,0.0
83,76.0,0,192,5.0,0.0
84,100.0,0,192,1.0,0.0
85,88.0,0,192,1.0,0.0
86,96.0,0,192,2.0,0.0
87,72.0,0,192,4.0,0.0
88,74.0,0,192,5.0,0.0
89,62.0,0,192,5.0,0.0
90,86.0,233,192,1.0,0.0
91,98.0,0,192,1.0,0.0
92,65.0,0,192,4.0,0.0
93,89.0,0,192,2.0,0.0
94,96.0,0,192,2.0,0.0
95,60.0,0,225,5.0,0.0
96,64.0,7,205,5.0,0.0
97,96.0,463,192,2.0,0.0
98,91.0,0,192,2.0,0.0
99,72.0,0,192,4.0,0.0
100,76.0,0,192,5.0,0.0
101,88.0,0,192,1.0,0.0
102,100.0,0,192,1.0,0.0
103,67.0,0,192,4.0,0.0
104,48.0,5,215,5.0,0.0
105,55.0,7,205,4.0,0.0
106,60.0,0,192,4.0,0.0
107,79.0,0,192,2.0,0.0
108,76.0,15,192,2.0,0.0
109,64.0,0,192,5.0,0.0
110,84.0,0,192,1.0,0.0
111,72.0,0,192,1.0,0.0
112,36.0,160,128,5.0,0.0
113,63.0,0,360,1.0,0.0
114,43.0,0,128,5.0,0.0
115,60.0,88,360,2.0,0.0
116,55.0,0,360,2.0,0.0
117,36.0,72,128,5.0,0.0
118,43.0,0,128,5.0,0.0
119,43.0,224,128,5.0,0.0
120,36.0,0,128,5.0,0.0
121,36.0,72,360,5.0,0.0
122,53.0,0,192,2.0,0.0
123,60.0,168,192,2.0,0.0
124,62.0,0,192,1.0,0.0
125,43.0,0,360,5.0,0.0
126,51.0,0,192,2.0,0.0
127,60.0,176,192,1.0,0.0
128,62.0,0,360,1.0,0.0
129,43.0,160,128,5.0,0.0
130,36.0,0,128,5.0,0.0
131,60.0,88,360,2.0,0.0
132,53.0,0,360,2.0,0.0
133,36.0,72,128,5.0,0.0
134,43.0,0,128,5.0,0.0
135,36.0,0,128,5.0,0.0
136,43.0,392,128,5.0,0.0
137,60.0,0,360,2.0,0.0
138,56.0,0,360,2.0,0.0
139,36.0,0,360,5.0,0.0
140,43.0,0,360,5.0,0.0
141,65.0,248,360,1.0,0.0
142,43.0,0,128,5.0,0.0
143,36.0,64,128,5.0,0.0
144,63.0,96,192,1.0,0.0
145,55.0,0,192,2.0,0.0
146,60.0,0,192,2.0,0.0
147,36.0,144,128,5.0,0.0
148,43.0,0,128,5.0,0.0
149,62.0,16,192,1.0,0.0
150,53.0,0,192,2.0,0.0
151,60.0,0,192,2.0,0.0
152,36.0,392,128,5.0,0.0
153,43.0,0,128,5.0,0.0
154,43.0,0,360,5.0,0.0
155,63.0,248,360,1.0,0.0
156,36.0,0,360,5.0,0.0
157,60.0,0,360,2.0,0.0
158,55.0,0,360,2.0,0.0
159,60.0,96,192,2.0,0.0
160,58.0,0,192,2.0,0.0
161,43.0,0,128,5.0,0.0
162,36.0,64,128,5.0,0.0
163,67.0,0,192,1.0,0.0
164,36.0,144,128,5.0,0.0
165,43.0,0,128,5.0,0.0
166,65.0,0,192,1.0,0.0
167,56.0,0,192,2.0,0.0
168,60.0,16,192,2.0,0.0
169,36.0,0,128,5.0,0.0
170,43.0,392,128,5.0,0.0
171,36.0,248,360,5.0,0.0
172,43.0,0,360,5.0,0.0
173,60.0,0,360,2.0,0.0
174,68.0,0,360,1.0,0.0
175,67.0,96,192,1.0,0.0
176,36.0,64,128,5.0,0.0
177,43.0,0,128,5.0,0.0
178,58.0,0,192,2.0,0.0
179,60.0,0,192,2.0,0.0
180,43.0,144,128,5.0,0.0
181,36.0,0,128,5.0,0.0
182,60.0,16,192,2.0,0.0
183,65.0,0,192,1.0,0.0
184,56.0,0,192,2.0,0.0
185,43.0,224,128,5.0,0.0
186,36.0,0,128,5.0,0.0
187,43.0,72,360,5.0,0.0
188,63.0,0,192,1.0,0.0
189,60.0,0,192,2.0,0.0
190,36.0,0,360,5.0,0.0
191,55.0,168,192,2.0,0.0
192,62.0,176,192,1.0,0.0
193,53.0,0,192,2.0,0.0
194,60.0,0,192,2.0,0.0
195,60.0,0,720,1.0,0.0
196,51.0,120,720,2.0,0.0
197,43.0,0,128,5.0,0.0
198,36.0,160,128,5.0,0.0
199,43.0,0,128,5.0,0.0
200,36.0,160,128,5.0,0.0
201,43.0,272,128,5.0,0.0
202,36.0,0,128,5.0,0.0
203,36.0,72,360,5.0,0.0
204,43.0,0,360,5.0,0.0
205,60.0,176,192,2.0,0.0
206,62.0,0,192,1.0,0.0
207,50.0,0,192,2.0,0.0
208,62.0,0,1440,1.0,0.0
209,31.0,0,128,5.0,0.0
210,55.0,0,1440,2.0,0.0
211,43.0,160,128,5.0,0.0
212,59.0,0,1440,2.0,0.0
213,50.0,360,1440,2.0,0.0
214,31.0,160,128,5.0,0.0
215,43.0,0,128,5.0,0.0
216,31.0,0,128,5.0,0.0
217,43.0,392,128,5.0,0.0
218,31.0,0,360,5.0,0.0
219,43.0,248,360,5.0,0.0
220,31.0,160,128,5.0,0.0
221,38.0,0,128,5.0,0.0
222,31.0,0,128,5.0,0.0
223,38.0,160,128,5.0,0.0
224,38.0,32,128,5.0,0.0
225,31.0,0,128,5.0,0.0
226,38.0,0,360,5.0,0.0
227,31.0,0,360,5.0,0.0
228,74.0,360,960,1.0,0.0
229,62.0,248,360,2.0,0.0
230,70.0,0,360,1.0,0.0
231,31.0,64,128,5.0,0.0
232,60.0,0,192,2.0,0.0
233,69.0,96,192,1.0,0.0
234,38.0,0,128,5.0,0.0
235,31.0,144,128,5.0,0.0
236,38.0,0,128,5.0,0.0
237,58.0,16,192,2.0,0.0
238,67.0,0,192,1.0,0.0
239,31.0,32,128,5.0,0.0
240,38.0,0,128,5.0,0.0
241,60.0,0,360,2.0,0.0
242,31.0,0,360,5.0,0.0
243,69.0,248,360,1.0,0.0
244,74.0,192,960,1.0,0.0
245,38.0,0,360,5.0,0.0
246,72.0,0,360,1.0,0.0
247,31.0,160,128,5.0,0.0
248,38.0,0,128,5.0,0.0
249,63.0,88,360,2.0,0.0
250,38.0,0,128,5.0,0.0
251,31.0,72,128,5.0,0.0
252,38.0,0,128,5.0,0.0
253,31.0,32,128,5.0,0.0
254,62.0,168,192,2.0,0.0
255,70.0,0,192,1.0,0.0
256,38.0,0,360,5.0,0.0
257,31.0,72,360,5.0,0.0
258,60.0,0,192,2.0,0.0
259,69.0,176,192,1.0,0.0
260,62.0,0,360,2.0,0.0
261,38.0,160,128,5.0,0.0
262,31.0,0,128,5.0,0.0
263,70.0,88,360,1.0,0.0
264,38.0,72,128,5.0,0.0
265,31.0,0,128,5.0,0.0
266,31.0,0,128,5.0,0.0
267,38.0,32,128,5.0,0.0
268,31.0,72,360,5.0,0.0
269,65.0,0,192,2.0,0.0
270,38.0,0,360,5.0,0.0
271,74.0,192,0,1.0,0.0
272,63.0,0,192,2.0,0.0
273,72.0,176,192,1.0,0.0
274,38.0,160,128,5.0,0.0
275,72.0,0,360,2.0,0.0
276,68.0,0,360,2.0,0.0
277,77.0,88,360,1.0,0.0
278,31.0,0,128,5.0,0.0
279,38.0,0,128,5.0,0.0
280,31.0,72,128,5.0,0.0
281,38.0,0,128,5.0,0.0
282,31.0,224,128,5.0,0.0
283,67.0,0,192,2.0,0.0
284,72.0,0,192,2.0,0.0
285,31.0,0,360,5.0,0.0
286,38.0,72,360,5.0,0.0
287,75.0,168,192,1.0,0.0
288,74.0,176,192,1.0,0.0
289,72.0,0,192,2.0,0.0
290,65.0,0,192,2.0,0.0
291,72.0,96,192,1.0,0.0
292,63.0,0,192,2.0,0.0
293,38.0,64,128,5.0,0.0
294,31.0,0,128,5.0,0.0
295,38.0,144,128,5.0,0.0
296,31.0,0,128,5.0,0.0
297,74.0,0,192,1.0,0.0
298,65.0,16,192,2.0,0.0
299,38.0,392,128,5.0,0.0
300,31.0,0,128,5.0,0.0
301,38.0,248,360,5.0,0.0
302,71.0,48,720,1.0,0.0
303,62.0,0,720,2.0,0.0
304,31.0,0,360,5.0,0.0
305,65.0,0,720,2.0,0.0
306,36.0,0,128,5.0,0.0
307,24.0,112,128,5.0,0.0
308,24.0,0,128,5.0,0.0
309,36.0,144,128,5.0,0.0
310,72.0,16,192,1.0,0.0
311,64.0,0,192,2.0,0.0
312,60.0,0,192,2.0,0.0
313,36.0,0,128,5.0,0.0
314,24.0,1952,128,5.0,0.0
315,60.0,0,1920,2.0,0.0
316,64.0,0,1920,2.0,0.0
317,72.0,0,1920,1.0,0.0
318,24.0,0,1920,5.0,0.0
319,36.0,318,1920,5.0,0.0
320,48.0,0,78,4.0,0.0
321,60.0,0,78,1.0,0.0
322,36.0,120,78,5.0,0.0
323,34.0,0,78,5.0,0.0
324,58.0,120,78,1.0,0.0
325,32.0,0,78,5.0,0.0
326,56.0,120,78,1.0,0.0
327,36.0,120,78,5.0,0.0
328,60.0,0,78,1.0,0.0
329,48.0,0,78,4.0,0.0
330,55.0,120,78,1.0,0.0
331,28.0,0,78,5.0,0.0
332,48.0,282,78,4.0,0.0
333,36.0,0,78,5.0,0.0
334,60.0,0,78,1.0,0.0
335,53.0,600,240,1.0,0.0
336,29.0,0,240,5.0,0.0
337,41.0,0,240,5.0,0.0
338,56.0,60,360,5.0,0.0
339,60.0,360,480,4.0,0.0
340,65.0,0,480,4.0,0.0
341,55.0,60,60,5.0,0.0
342,53.0,0,60,5.0,0.0
343,82.0,0,360,1.0,0.0
344,73.0,60,360,2.0,0.0
345,70.0,0,360,1.0,0.0
346,67.0,0,480,4.0,0.0
347,61.0,240,480,5.0,0.0
348,72.0,60,60,1.0,0.0
349,84.0,0,60,1.0,0.0
350,85.0,0,60,1.0,0.0
351,73.0,0,60,1.0,0.0
352,52.0,0,240,1.0,0.0
353,28.0,0,240,5.0,0.0
354,40.0,600,240,5.0,0.0
355,61.0,60,360,5.0,0.0
356,67.0,360,480,4.0,0.0
357,60.0,60,60,5.0,0.0
358,58.0,0,60,5.0,0.0
359,78.0,60,360,2.0,0.0
360,72.0,0,360,1.0,0.0
361,84.0,0,360,1.0,0.0
362,66.0,0,480,5.0,0.0
363,69.0,0,480,4.0,0.0
364,73.0,60,60,1.0,0.0
365,85.0,0,60,1.0,0.0
366,87.0,0,60,1.0,0.0
367,75.0,240,60,1.0,0.0
368,39.0,0,240,5.0,0.0
369,27.0,600,240,5.0,0.0
370,51.0,0,240,1.0,0.0
371,72.0,0,480,4.0,0.0
372,69.0,0,480,4.0,0.0
373,66.0,60,360,5.0,0.0
374,65.0,60,60,5.0,0.0
375,63.0,360,60,5.0,0.0
376,75.0,0,480,4.0,0.0
377,82.0,60,360,2.0,0.0
378,70.0,0,480,5.0,0.0
379,89.0,0,360,1.0,0.0
380,77.0,0,360,1.0,0.0
381,81.0,60,60,1.0,0.0
382,93.0,0,60,1.0,0.0
383,94.0,0,60,1.0,0.0
384,82.0,240,60,1.0,0.0
385,38.0,0,240,5.0,0.0
386,26.0,0,240,5.0,0.0
387,50.0,720,240,1.0,0.0
388,65.0,10,520,5.0,0.0
389,70.0,10,490,4.0,0.0
390,77.0,0,480,5.0,0.0
391,74.0,340,480,4.0,0.0
392,82.0,0,360,1.0,0.0
393,94.0,60,360,1.0,0.0
394,37.0,0,480,5.0,0.0
395,49.0,0,480,5.0,0.0
396,89.0,0,360,2.0,0.0
397,86.0,0,60,1.0,0.0
398,98.0,60,60,1.0,0.0
399,89.0,360,60,1.0,0.0
400,101.0,0,60,1.0,0.0
401,48.0,15,405,5.0,0.0
402,36.0,0,420,5.0,0.0
403,68.0,0,360,1.0,0.0
404,65.0,45,360,1.0,0.0
405,72.0,60,60,1.0,0.0
406,77.0,360,60,1.0,0.0
407,56.0,20,420,4.0,0.0
408,92.0,0,360,1.0,0.0
409,60.0,13,427,4.0,0.0
410,65.0,0,420,5.0,0.0
411,80.0,40,360,1.0,0.0
412,96.0,7,60,1.0,0.0
413,84.0,0,60,1.0,0.0
414,89.0,172,60,1.0,0.0
415,101.0,0,60,1.0,0.0
416,48.0,40,0,5.0,0.0
417,55.0,5,192,4.0,0.0
418,60.0,38,192,4.0,0.0
419,64.0,0,192,5.0,0.0
420,88.0,5,150,1.0,0.0
421,91.0,5,135,2.0,0.0
422,100.0,165,120,1.0,0.0
423,96.0,0,120,2.0,0.0
424,48.0,7,205,5.0,0.0
425,53.0,20,192,4.0,0.0
426,62.0,43,192,5.0,0.0
427,60.0,0,192,4.0,0.0
428,86.0,180,165,1.0,0.0
429,89.0,5,135,2.0,0.0
430,96.0,0,120,2.0,0.0
431,98.0,5,120,1.0,0.0
432,48.0,5,225,5.0,0.0
433,52.0,2,210,4.0,0.0
434,55.0,473,192,4.0,0.0
435,60.0,0,192,4.0,0.0
436,64.0,0,192,5.0,0.0
437,96.0,0,192,2.0,0.0
438,91.0,0,192,2.0,0.0
439,100.0,0,192,1.0,0.0
440,88.0,0,192,1.0,0.0
441,36.0,7,225,5.0,0.0
442,43.0,0,205,4.0,0.0
443,79.0,1404,192,2.0,0.0
444,72.0,0,192,1.0,0.0
445,84.0,0,192,1.0,0.0
446,76.0,0,192,2.0,0.0
447,48.0,0,192,4.0,0.0
448,52.0,0,192,5.0,0.0
449,60.0,0,960,2.0,0.0
450,72.0,0,960,1.0,0.0
451,68.0,0,960,2.0,0.0
452,63.0,240,960,2.0,0.0
453,36.0,162,156,5.0,0.0
454,34.0,120,78,5.0,0.0
455,32.0,42,78,5.0,0.0
456,58.0,0,480,2.0,0.0
457,39.0,240,240,5.0,0.0
458,67.0,0,480,2.0,0.0
459,63.0,636,480,2.0,0.0
460,70.0,0,480,1.0,0.0
461,68.0,749,1327,2.0,0.0
462,61.0,0,1320,2.0,0.0
463,73.0,0,1320,1.0,0.0
464,65.0,7,1320,2.0,0.0
465,41.0,162,156,5.0,0.0
466,39.0,120,78,5.0,0.0
467,37.0,282,78,5.0,0.0
468,49.0,120,240,5.0,0.0
469,65.0,0,960,2.0,0.0
470,61.0,0,960,2.0,0.0
471,73.0,0,960,1.0,0.0
472,70.0,240,960,2.0,0.0
473,37.0,162,156,5.0,0.0
474,36.0,120,78,5.0,0.0
475,34.0,42,78,5.0,0.0
476,41.0,240,240,5.0,0.0
477,72.0,636,480,1.0,0.0
478,65.0,0,480,2.0,0.0
479,68.0,0,480,2.0,0.0
480,60.0,0,480,2.0,0.0
481,75.0,0,1320,1.0,0.0
482,63.0,0,1320,2.0,0.0
483,66.0,312,1320,2.0,0.0
484,70.0,0,1320,2.0,0.0
485,42.0,162,156,5.0,0.0
486,41.0,120,78,5.0,0.0
487,39.0,234,78,5.0,0.0
488,51.0,168,192,5.0,0.0
489,75.0,0,192,1.0,0.0
490,72.0,240,192,2.0,0.0
491,66.0,0,192,2.0,0.0
492,70.0,0,192,2.0,0.0
493,70.0,0,192,2.0,0.0
494,65.0,0,192,2.0,0.0
495,73.0,366,192,1.0,0.0
496,72.0,0,720,2.0,0.0
497,70.0,0,720,2.0,0.0
498,78.0,192,720,1.0,0.0
499,30.0,120,78,5.0,0.0
500,29.0,234,78,5.0,0.0
501,41.0,48,192,5.0,0.0
502,72.0,0,192,2.0,0.0
503,68.0,0,192,2.0,0.0
504,77.0,240,192,1.0,0.0
505,75.0,0,192,1.0,0.0
506,70.0,240,192,2.0,0.0
507,66.0,0,192,2.0,0.0
508,73.0,0,192,1.0,0.0
509,68.0,0,192,2.0,0.0
510,65.0,366,192,2.0,0.0
511,70.0,0,720,1.0,0.0
512,64.0,0,720,2.0,0.0
513,61.0,0,720,2.0,0.0
514,31.0,120,78,5.0,0.0
515,29.0,234,78,5.0,0.0
516,41.0,48,192,5.0,0.0
517,60.0,0,192,2.0,0.0
518,67.0,192,0,2.0,0.0
519,64.0,684,192,2.0,0.0
520,72.0,0,192,1.0,0.0
521,69.0,0,2400,2.0,0.0
522,65.0,0,2400,2.0,0.0
523,72.0,1116,2400,1.0,0.0
524,60.0,0,2400,2.0,0.0
525,33.0,480,156,5.0,0.0
526,31.0,240,156,5.0,0.0
527,29.0,324,156,5.0,0.0
528,41.0,720,240,5.0,0.0
529,53.0,0,960,2.0,0.0
530,50.0,0,960,2.0,0.0
531,62.0,0,960,1.0,0.0
532,58.0,432,960,2.0,0.0
533,38.0,162,156,5.0,0.0
534,36.0,120,78,5.0,0.0
535,34.0,42,78,5.0,0.0
536,57.0,636,480,2.0,0.0
537,53.0,0,480,2.0,0.0
538,60.0,0,480,1.0,0.0
539,41.0,48,192,5.0,0.0
540,51.0,57,1335,2.0,0.0
541,58.0,7,1320,2.0,0.0
542,55.0,8,1327,2.0,0.0
543,63.0,0,1327,1.0,0.0
544,67.0,162,156,5.0,0.0
545,65.0,120,78,5.0,0.0
546,63.0,402,78,5.0,0.0
547,59.0,0,367,5.0,0.0
548,75.0,684,192,5.0,0.0
549,63.0,480,960,1.0,0.0
550,60.0,0,960,2.0,0.0
551,51.0,0,960,2.0,0.0
552,55.0,0,960,2.0,0.0
553,39.0,162,156,5.0,0.0
554,38.0,120,78,5.0,0.0
555,36.0,42,78,5.0,0.0
556,58.0,0,480,2.0,0.0
557,55.0,636,480,2.0,0.0
558,62.0,0,480,1.0,0.0
559,43.0,0,240,5.0,0.0
560,65.0,0,1327,1.0,0.0
561,58.0,15,1312,2.0,0.0
562,53.0,65,1327,2.0,0.0
563,60.0,0,1327,2.0,0.0
564,70.0,162,156,5.0,0.0
565,67.0,120,78,5.0,0.0
566,65.0,394,78,5.0,0.0
567,56.0,0,367,5.0,0.0
568,77.0,240,192,5.0,0.0
569,65.0,240,192,1.0,0.0
570,60.0,0,192,2.0,0.0
571,44.0,0,192,5.0,0.0
572,58.0,0,192,2.0,0.0
573,43.0,0,192,5.0,0.0
574,63.0,408,192,1.0,0.0
575,56.0,312,360,2.0,0.0
576,61.0,0,360,2.0,0.0
577,68.0,0,360,1.0,0.0
578,41.0,0,360,5.0,0.0
579,29.0,0,360,5.0,0.0
580,58.0,0,192,2.0,0.0
581,67.0,0,192,1.0,0.0
582,61.0,0,192,2.0,0.0
583,43.0,240,192,5.0,0.0
584,31.0,0,192,5.0,0.0
585,65.0,0,192,1.0,0.0
586,61.0,0,192,2.0,0.0
587,56.0,240,192,2.0,0.0
588,44.0,0,192,5.0,0.0
589,32.0,0,192,5.0,0.0
590,61.0,0,192,2.0,0.0
591,63.0,240,192,1.0,0.0
592,46.0,0,192,5.0,0.0
593,34.0,0,192,5.0,0.0
594,55.0,0,192,2.0,0.0
595,49.0,0,192,5.0,0.0
596,56.0,0,192,2.0,0.0
597,53.0,0,192,2.0,0.0
598,61.0,0,192,1.0,0.0
599,37.0,888,192,5.0,0.0
600,39.0,0,2400,5.0,0.0
601,51.0,192,2400,5.0,0.0
602,58.0,0,840,1.0,0.0
603,55.0,305,847,1.0,0.0
604,63.0,7,360,1.0,0.0
605,89.0,240,192,1.0,0.0
606,80.0,0,192,2.0,0.0
607,84.0,0,192,2.0,0.0
608,87.0,288,192,1.0,0.0
609,82.0,0,192,2.0,0.0
610,79.0,0,192,2.0,0.0
611,80.0,0,360,2.0,0.0
612,77.0,120,240,5.0,0.0
613,92.0,72,360,1.0,0.0
614,85.0,0,360,2.0,0.0
615,65.0,240,192,5.0,0.0
616,82.0,0,192,2.0,0.0
617,85.0,0,192,2.0,0.0
618,67.0,240,192,5.0,0.0
619,91.0,0,192,1.0,0.0
620,68.0,0,192,5.0,0.0
621,79.0,0,192,2.0,0.0
622,85.0,0,192,2.0,0.0
623,89.0,48,192,1.0,0.0
624,43.0,0,1320,5.0,0.0
625,70.0,240,192,5.0,0.0
626,85.0,0,192,2.0,0.0
627,79.0,0,192,2.0,0.0
628,87.0,0,192,1.0,0.0
629,73.0,528,192,5.0,0.0
630,77.0,0,192,2.0,0.0
631,80.0,0,192,2.0,0.0
632,85.0,0,192,1.0,0.0
633,75.0,355,480,5.0,0.0
634,82.0,5,835,1.0,0.0
635,79.0,0,840,1.0,0.0
636,73.0,0,360,5.0,0.0
637,87.0,600,360,1.0,0.0
638,68.0,8,1432,2.0,0.0
639,72.0,0,1440,1.0,0.0
640,51.0,465,240,3.0,0.0
641,63.0,15,465,4.0,0.0
642,51.0,465,240,3.0,0.0
643,63.0,7,465,4.0,0.0
644,51.0,0,240,3.0,0.0
645,70.0,480,1440,1.0,0.0
646,44.0,480,0,5.0,0.0
647,68.0,465,960,2.0,0.0
648,51.0,465,240,3.0,0.0
649,62.0,15,465,4.0,0.0
650,51.0,0,240,3.0,0.0
651,67.0,0,480,2.0,0.0
652,61.0,15,465,4.0,0.0
653,51.0,0,240,3.0,0.0
654,75.0,15,1905,1.0,0.0
655,63.0,3,2872,2.0,0.0
656,70.0,0,960,2.0,0.0
657,51.0,480,240,3.0,0.0
658,60.0,0,480,4.0,0.0
659,51.0,480,240,3.0,0.0
660,68.0,0,1915,2.0,0.0
661,60.0,465,480,4.0,0.0
662,51.0,0,240,3.0,0.0
663,44.0,0,0,5.0,0.0
664,51.0,480,240,3.0,0.0
665,75.0,470,480,1.0,0.0
666,59.0,0,480,4.0,0.0
667,51.0,0,240,3.0,0.0
668,76.0,5,475,1.0,0.0
669,59.0,0,480,4.0,0.0
670,51.0,2,230,3.0,0.0
671,42.0,465,1440,5.0,0.0
672,63.0,0,1440,2.0,0.0
673,71.0,0,1415,2.0,0.0
674,78.0,5,1395,1.0,0.0
675,51.0,480,240,3.0,0.0
676,51.0,475,240,3.0,0.0
677,59.0,0,0,4.0,0.0
678,51.0,0,240,3.0,0.0
679,61.0,0,1440,2.0,0.0
680,42.0,15,465,5.0,0.0
681,72.0,5,935,2.0,0.0
682,78.0,5,1395,1.0,0.0
683,49.0,475,240,3.0,0.0
684,54.0,475,480,4.0,0.0
685,42.0,0,240,3.0,0.0
686,52.0,480,480,4.0,0.0
687,70.0,0,480,2.0,0.0
688,42.0,0,240,3.0,0.0
689,73.0,475,945,2.0,0.0
690,78.0,5,1875,1.0,0.0
691,42.0,0,240,3.0,0.0
692,51.0,480,0,4.0,0.0
693,42.0,5,240,3.0,0.0
694,51.0,0,480,4.0,0.0
695,71.0,475,480,2.0,0.0
696,42.0,0,240,3.0,0.0
697,72.0,0,1440,2.0,0.0
698,50.0,0,480,4.0,0.0
699,42.0,480,240,3.0,0.0
700,78.0,0,480,1.0,0.0
701,42.0,480,240,3.0,0.0
702,50.0,0,0,4.0,0.0
703,80.0,0,480,1.0,0.0
704,42.0,0,240,3.0,0.0
705,49.0,0,480,4.0,0.0
706,66.0,480,0,2.0,0.0
707,73.0,5,1410,2.0,0.0
708,78.0,5,1395,2.0,0.0
709,82.0,0,1395,1.0,0.0
710,42.0,480,240,3.0,0.0
711,42.0,470,240,3.0,0.0
712,49.0,0,0,4.0,0.0
713,42.0,0,240,3.0,0.0
714,54.0,480,480,4.0,0.0
715,72.0,0,1440,2.0,0.0
716,75.0,0,1415,2.0,0.0
717,80.0,0,1395,2.0,0.0
718,84.0,5,1395,1.0,0.0
719,39.0,0,240,3.0,0.0
720,54.0,0,480,4.0,0.0
721,39.0,475,240,3.0,0.0
722,54.0,480,480,4.0,0.0
723,39.0,0,240,3.0,0.0
724,73.0,0,960,1.0,0.0
725,85.0,480,960,1.0,0.0
726,80.0,0,960,2.0,0.0
727,53.0,480,480,4.0,0.0
728,77.0,0,960,2.0,0.0
729,37.0,0,240,3.0,0.0
730,53.0,0,480,4.0,0.0
731,37.0,0,240,3.0,0.0
732,78.0,0,960,2.0,0.0
733,87.0,0,960,1.0,0.0
734,75.0,0,960,1.0,0.0
735,36.0,0,240,3.0,0.0
736,51.0,480,0,4.0,0.0
737,36.0,0,240,3.0,0.0
738,49.0,0,480,4.0,0.0
739,85.0,0,960,2.0,0.0
740,80.0,480,0,2.0,0.0
741,89.0,0,960,1.0,0.0
742,77.0,0,960,1.0,0.0
743,32.0,480,240,3.0,0.0
744,49.0,240,480,4.0,0.0
745,32.0,0,240,3.0,0.0
746,49.0,200,240,5.0,0.0
747,34.0,0,240,5.0,0.0
748,90.0,0,960,1.0,0.0
749,85.0,0,480,2.0,0.0
750,46.0,40,120,5.0,0.0
751,61.0,0,120,5.0,0.0
752,48.0,40,480,5.0,0.0
753,63.0,0,480,5.0,0.0
754,87.0,440,480,2.0,0.0
755,78.0,440,0,1.0,0.0
756,49.0,40,480,5.0,0.0
757,77.0,240,480,1.0,0.0
758,89.0,0,480,1.0,0.0
759,56.0,0,480,4.0,0.0
760,80.0,0,0,2.0,0.0
761,65.0,0,480,5.0,0.0
762,85.0,0,480,2.0,0.0
763,85.0,200,240,2.0,0.0
764,94.0,0,240,1.0,0.0
765,82.0,0,240,1.0,0.0
766,90.0,0,240,2.0,0.0
767,34.0,0,240,5.0,0.0
768,49.0,0,240,5.0,0.0
769,48.0,40,120,5.0,0.0
770,90.0,0,600,1.0,0.0
771,61.0,0,120,5.0,0.0
772,85.0,0,120,2.0,0.0
773,48.0,40,480,5.0,0.0
774,78.0,440,0,1.0,0.0
775,87.0,440,480,2.0,0.0
776,63.0,0,480,5.0,0.0
777,49.0,40,480,5.0,0.0
778,80.0,0,0,2.0,0.0
779,65.0,0,480,5.0,0.0
780,56.0,192,480,4.0,0.0
781,89.0,0,480,1.0,0.0
782,77.0,0,480,1.0,0.0
783,85.0,0,480,2.0,0.0
784,34.0,255,235,5.0,0.0
785,90.0,0,192,2.0,0.0
786,87.0,0,192,1.0,0.0
787,97.0,0,192,1.0,0.0
788,94.0,0,192,2.0,0.0
789,49.0,3,192,5.0,0.0
790,46.0,6,130,5.0,0.0
791,94.0,0,96,1.0,0.0
792,82.0,0,96,1.0,0.0
793,90.0,0,96,2.0,0.0
794,61.0,184,96,5.0,0.0
795,47.0,32,200,5.0,0.0
796,89.0,0,192,2.0,0.0
797,80.0,0,192,1.0,0.0
798,92.0,0,192,1.0,0.0
799,62.0,228,192,5.0,0.0
800,48.0,12,220,5.0,0.0
801,87.0,0,192,2.0,0.0
802,90.0,238,192,1.0,0.0
803,78.0,0,192,1.0,0.0
804,63.0,0,192,5.0,0.0
805,49.0,2,230,5.0,0.0
806,89.0,0,192,1.0,0.0
807,77.0,0,192,1.0,0.0
808,65.0,240,192,5.0,0.0
809,85.0,0,192,2.0,0.0
810,51.0,235,235,5.0,0.0
811,85.0,0,192,2.0,0.0
812,87.0,3,192,1.0,0.0
813,75.0,0,192,1.0,0.0
814,66.0,0,192,5.0,0.0
815,53.0,2,230,5.0,0.0
816,68.0,240,192,5.0,0.0
817,85.0,0,192,1.0,0.0
818,73.0,0,192,1.0,0.0
819,82.0,0,192,2.0,0.0
820,87.0,528,192,1.0,0.0
821,75.0,0,192,1.0,0.0
822,55.0,0,192,5.0,0.0
823,70.0,0,192,5.0,0.0
824,73.0,0,480,1.0,0.0
825,63.0,0,840,4.0,0.0
826,68.0,0,847,5.0,0.0
827,56.0,7,840,5.0,0.0
828,80.0,0,840,2.0,0.0
829,85.0,360,480,1.0,0.0
830,75.0,233,847,2.0,0.0
831,84.0,0,360,1.0,0.0
832,72.0,0,360,1.0,0.0
833,41.0,93,235,5.0,0.0
834,80.0,0,128,2.0,0.0
835,73.0,64,128,1.0,0.0
836,85.0,8,120,1.0,0.0
837,56.0,3,192,5.0,0.0
838,77.0,137,128,1.0,0.0
839,89.0,0,128,1.0,0.0
840,43.0,7,225,5.0,0.0
841,58.0,16,192,5.0,0.0
842,82.0,0,128,2.0,0.0
843,75.0,512,128,1.0,0.0
844,87.0,0,128,1.0,0.0
845,85.0,0,480,1.0,0.0
846,44.0,7,840,5.0,0.0
847,80.0,0,960,2.0,0.0
848,75.0,440,960,2.0,0.0
849,51.0,0,847,4.0,0.0
850,63.0,113,847,5.0,0.0
851,56.0,0,847,4.0,0.0
852,73.0,360,480,1.0,0.0
853,84.0,0,360,1.0,0.0
854,72.0,0,360,1.0,0.0
855,80.0,0,1440,1.0,0.0
856,72.0,40,440,4.0,0.0
857,75.0,440,1440,2.0,0.0
858,56.0,440,240,3.0,0.0
859,72.0,40,440,4.0,0.0
860,56.0,440,240,3.0,0.0
861,72.0,40,440,4.0,0.0
862,56.0,0,240,3.0,0.0
863,71.0,40,440,4.0,0.0
864,79.0,0,960,1.0,0.0
865,74.0,0,960,2.0,0.0
866,56.0,440,240,3.0,0.0
867,71.0,40,440,4.0,0.0
868,56.0,470,240,3.0,0.0
869,73.0,5,470,2.0,0.0
870,78.0,0,475,1.0,0.0
871,70.0,0,470,4.0,0.0
872,56.0,420,235,3.0,0.0
873,69.0,65,415,4.0,0.0
874,72.0,0,480,2.0,0.0
875,84.0,0,440,1.0,0.0
876,56.0,415,240,3.0,0.0
877,71.0,0,480,2.0,0.0
878,77.0,0,480,1.0,0.0
879,68.0,65,415,4.0,0.0
880,56.0,440,240,3.0,0.0
881,76.0,0,480,2.0,0.0
882,70.0,440,480,2.0,0.0
883,67.0,35,440,4.0,0.0
884,82.0,5,435,1.0,0.0
885,56.0,0,240,3.0,0.0
886,75.0,0,480,1.0,0.0
887,66.0,40,440,4.0,0.0
888,69.0,0,480,2.0,0.0
889,56.0,440,240,3.0,0.0
890,65.0,40,440,4.0,0.0
891,74.0,0,480,2.0,0.0
892,68.0,0,480,2.0,0.0
893,80.0,0,480,1.0,0.0
894,56.0,440,240,3.0,0.0
895,73.0,0,480,1.0,0.0
896,64.0,40,440,4.0,0.0
897,67.0,0,480,2.0,0.0
898,56.0,440,240,3.0,0.0
899,66.0,440,960,2.0,0.0
900,72.0,440,1440,2.0,0.0
901,63.0,40,440,4.0,0.0
902,78.0,0,1440,1.0,0.0
903,56.0,440,240,3.0,0.0
904,63.0,40,440,4.0,0.0
905,56.0,0,240,3.0,0.0
906,67.0,0,480,2.0,0.0
907,64.0,40,440,4.0,0.0
908,56.0,0,240,3.0,0.0
909,65.0,40,440,4.0,0.0
910,72.0,390,1440,1.0,0.0
911,68.0,0,960,2.0,0.0
912,56.0,440,240,3.0,0.0
913,65.0,40,440,4.0,0.0
914,56.0,440,240,3.0,0.0
915,66.0,0,480,2.0,0.0
916,63.0,40,440,4.0,0.0
917,56.0,0,240,3.0,0.0
918,63.0,390,1440,2.0,0.0
919,60.0,90,390,4.0,0.0
920,68.0,0,1440,1.0,0.0
921,44.0,390,240,3.0,0.0
922,60.0,90,390,4.0,0.0
923,44.0,390,240,3.0,0.0
924,60.0,90,390,4.0,0.0
925,44.0,0,240,3.0,0.0
926,59.0,90,390,4.0,0.0
927,67.0,0,960,1.0,0.0
928,62.0,0,960,2.0,0.0
929,44.0,390,240,3.0,0.0
930,59.0,90,390,4.0,0.0
931,44.0,440,240,3.0,0.0
932,61.0,440,480,2.0,0.0
933,66.0,0,480,1.0,0.0
934,58.0,40,440,4.0,0.0
935,44.0,0,240,3.0,0.0
936,57.0,40,440,4.0,0.0
937,60.0,0,480,2.0,0.0
938,72.0,0,440,1.0,0.0
939,44.0,465,240,3.0,0.0
940,56.0,15,465,4.0,0.0
941,58.0,0,480,2.0,0.0
942,65.0,465,480,1.0,0.0
943,44.0,0,240,3.0,0.0
944,55.0,15,465,4.0,0.0
945,64.0,0,480,2.0,0.0
946,58.0,5,480,2.0,0.0
947,70.0,460,445,1.0,0.0
948,44.0,0,240,3.0,0.0
949,57.0,0,480,2.0,0.0
950,54.0,15,465,4.0,0.0
951,63.0,415,480,1.0,0.0
952,44.0,0,240,3.0,0.0
953,53.0,60,415,4.0,0.0
954,56.0,0,480,2.0,0.0
955,62.0,0,480,2.0,0.0
956,68.0,5,435,1.0,0.0
957,44.0,415,240,3.0,0.0
958,55.0,0,480,2.0,0.0
959,52.0,65,415,4.0,0.0
960,61.0,0,480,1.0,0.0
961,44.0,415,240,3.0,0.0
962,54.0,0,960,2.0,0.0
963,60.0,0,1440,2.0,0.0
964,51.0,65,415,4.0,0.0
965,66.0,415,1440,1.0,0.0
966,44.0,415,240,3.0,0.0
967,51.0,65,415,4.0,0.0
968,44.0,415,240,3.0,0.0
969,52.0,65,415,4.0,0.0
970,55.0,0,480,2.0,0.0
971,44.0,0,240,3.0,0.0
972,56.0,0,960,2.0,0.0
973,53.0,65,415,4.0,0.0
974,60.0,0,1440,1.0,0.0
975,44.0,415,240,3.0,0.0
976,53.0,65,415,4.0,0.0
977,44.0,480,240,3.0,0.0
978,54.0,960,480,2.0,0.0
979,51.0,0,480,4.0,0.0
980,44.0,0,1200,3.0,0.0
981,65.0,1440,960,1.0,0.0
982,56.0,0,960,2.0,0.0
983,53.0,0,960,2.0,0.0
984,49.0,0,960,5.0,0.0
985,37.0,0,960,5.0,0.0
986,61.0,0,960,2.0,0.0
987,56.0,0,960,2.0,0.0
988,37.0,0,960,5.0,0.0
989,49.0,0,960,5.0,0.0
990,44.0,2400,960,3.0,0.0
991,65.0,0,960,1.0,0.0
992,53.0,0,960,2.0,0.0
993,61.0,0,960,2.0,0.0
994,65.0,0,1920,1.0,0.0
995,53.0,0,1920,2.0,0.0
996,56.0,336,1920,2.0,0.0
997,61.0,0,1920,2.0,0.0
998,44.0,0,1920,3.0,0.0
999,49.0,0,1920,5.0,0.0
1000,37.0,0,1920,5.0,0.0
1001,36.0,120,96,5.0,0.0
1002,60.0,0,96,1.0,0.0
1003,48.0,0,96,1.0,0.0
1004,34.0,0,96,5.0,0.0
1005,58.0,120,96,1.0,0.0
1006,56.0,120,96,1.0,0.0
1007,32.0,0,96,5.0,0.0
1008,60.0,0,96,1.0,0.0
1009,36.0,120,96,5.0,0.0
1010,48.0,0,96,1.0,0.0
1011,55.0,120,96,1.0,0.0
1012,31.0,0,96,5.0,0.0
1013,48.0,0,96,1.0,0.0
1014,36.0,264,96,5.0,0.0
1015,60.0,0,96,1.0,0.0
1016,41.0,600,240,5.0,0.0
1017,29.0,0,240,5.0,0.0
1018,53.0,0,240,1.0,0.0
1019,80.0,60,360,1.0,0.0
1020,68.0,0,360,1.0,0.0
1021,60.0,0,480,4.0,0.0
1022,65.0,480,480,4.0,0.0
1023,53.0,0,360,5.0,0.0
1024,72.0,0,360,2.0,0.0
1025,55.0,0,60,5.0,0.0
1026,79.0,60,60,1.0,0.0
1027,56.0,0,60,5.0,0.0
1028,77.0,0,60,1.0,0.0
1029,79.0,0,480,2.0,0.0
1030,73.0,0,480,1.0,0.0
1031,67.0,0,480,4.0,0.0
1032,61.0,240,480,4.0,0.0
1033,58.0,0,480,5.0,0.0
1034,85.0,0,480,1.0,0.0
1035,52.0,600,240,1.0,0.0
1036,28.0,0,240,5.0,0.0
1037,40.0,0,240,5.0,0.0
1038,79.0,0,360,2.0,0.0
1039,67.0,0,480,4.0,0.0
1040,85.0,0,360,1.0,0.0
1041,73.0,0,360,1.0,0.0
1042,58.0,60,360,5.0,0.0
1043,63.0,480,480,4.0,0.0
1044,84.0,0,60,1.0,0.0
1045,60.0,60,60,5.0,0.0
1046,82.0,0,60,1.0,0.0
1047,61.0,0,60,5.0,0.0
1048,84.0,0,480,2.0,0.0
1049,78.0,0,480,1.0,0.0
1050,91.0,240,480,1.0,0.0
1051,60.0,0,480,5.0,0.0
1052,69.0,0,480,4.0,0.0
1053,66.0,0,480,4.0,0.0
1054,51.0,0,240,1.0,0.0
1055,27.0,0,240,5.0,0.0
1056,39.0,600,240,5.0,0.0
1057,69.0,0,480,4.0,0.0
1058,84.0,0,360,2.0,0.0
1059,72.0,53,367,4.0,0.0
1060,78.0,0,360,1.0,0.0
1061,90.0,0,360,1.0,0.0
1062,63.0,7,360,5.0,0.0
1063,89.0,60,60,1.0,0.0
1064,65.0,0,60,5.0,0.0
1065,87.0,480,60,1.0,0.0
1066,66.0,0,60,5.0,0.0
1067,65.0,0,480,5.0,0.0
1068,89.0,0,480,2.0,0.0
1069,70.0,0,480,4.0,0.0
1070,77.0,0,480,5.0,0.0
1071,82.0,0,480,1.0,0.0
1072,94.0,240,480,1.0,0.0
1073,38.0,0,240,5.0,0.0
1074,26.0,720,240,5.0,0.0
1075,50.0,0,240,1.0,0.0
1076,94.0,405,480,2.0,0.0
1077,101.0,0,480,1.0,0.0
1078,70.0,0,480,4.0,0.0
1079,89.0,0,480,1.0,0.0
1080,65.0,0,480,5.0,0.0
1081,77.0,0,480,5.0,0.0
1082,37.0,7,405,5.0,0.0
1083,25.0,1028,412,5.0,0.0
1084,49.0,0,412,1.0,0.0
1085,24.0,881,2207,5.0,0.0
1086,36.0,5,2140,5.0,0.0
1087,68.0,0,960,4.0,0.0
1088,89.0,0,960,1.0,0.0
1089,92.0,0,960,1.0,0.0
1090,101.0,0,960,1.0,0.0
1091,77.0,0,960,5.0,0.0
1092,65.0,0,960,5.0,0.0
1093,96.0,192,960,2.0,0.0
1094,72.0,0,0,4.0,0.0
1095,67.0,0,192,4.0,0.0
1096,64.0,0,192,5.0,0.0
1097,100.0,0,192,1.0,0.0
1098,88.0,0,192,1.0,0.0
1099,76.0,0,192,5.0,0.0
1100,91.0,0,192,2.0,0.0
1101,96.0,240,192,2.0,0.0
1102,62.0,0,192,5.0,0.0
1103,74.0,0,192,5.0,0.0
1104,86.0,0,192,1.0,0.0
1105,98.0,233,192,1.0,0.0
1106,65.0,0,192,4.0,0.0
1107,89.0,0,192,2.0,0.0
1108,96.0,0,192,2.0,0.0
1109,72.0,0,192,4.0,0.0
1110,60.0,0,225,5.0,0.0
1111,64.0,7,205,5.0,0.0
1112,72.0,0,192,4.0,0.0
1113,67.0,0,192,4.0,0.0
1114,100.0,463,192,1.0,0.0
1115,88.0,0,192,1.0,0.0
1116,96.0,0,192,2.0,0.0
1117,91.0,0,192,2.0,0.0
1118,76.0,0,192,5.0,0.0
1119,48.0,5,215,5.0,0.0
1120,55.0,7,205,4.0,0.0
1121,60.0,15,192,4.0,0.0
1122,79.0,0,192,2.0,0.0
1123,64.0,0,192,5.0,0.0
1124,76.0,0,192,2.0,0.0
1125,72.0,0,192,1.0,0.0
1126,84.0,0,192,1.0,0.0
1127,60.0,88,360,2.0,0.0
1128,55.0,0,360,2.0,0.0
1129,63.0,0,360,1.0,0.0
1130,43.0,160,128,5.0,0.0
1131,36.0,0,128,5.0,0.0
1132,36.0,72,128,5.0,0.0
1133,43.0,0,128,5.0,0.0
1134,43.0,224,128,5.0,0.0
1135,36.0,0,128,5.0,0.0
1136,43.0,72,360,5.0,0.0
1137,60.0,168,192,2.0,0.0
1138,53.0,0,192,2.0,0.0
1139,36.0,0,360,5.0,0.0
1140,62.0,0,192,1.0,0.0
1141,51.0,0,192,2.0,0.0
1142,60.0,176,192,1.0,0.0
1143,36.0,160,128,5.0,0.0
1144,43.0,0,128,5.0,0.0
1145,53.0,0,360,2.0,0.0
1146,60.0,88,360,2.0,0.0
1147,62.0,0,360,1.0,0.0
1148,43.0,72,128,5.0,0.0
1149,36.0,0,128,5.0,0.0
1150,36.0,392,128,5.0,0.0
1151,43.0,0,128,5.0,0.0
1152,36.0,0,360,5.0,0.0
1153,65.0,0,360,1.0,0.0
1154,60.0,248,360,2.0,0.0
1155,56.0,0,360,2.0,0.0
1156,43.0,0,360,5.0,0.0
1157,43.0,0,128,5.0,0.0
1158,63.0,0,192,1.0,0.0
1159,36.0,64,128,5.0,0.0
1160,60.0,96,192,2.0,0.0
1161,55.0,0,192,2.0,0.0
1162,43.0,144,128,5.0,0.0
1163,36.0,0,128,5.0,0.0
1164,62.0,0,192,1.0,0.0
1165,60.0,16,192,2.0,0.0
1166,53.0,0,192,2.0,0.0
1167,36.0,392,128,5.0,0.0
1168,43.0,0,128,5.0,0.0
1169,63.0,0,360,1.0,0.0
1170,43.0,0,360,5.0,0.0
1171,36.0,0,360,5.0,0.0
1172,55.0,0,360,2.0,0.0
1173,60.0,248,360,2.0,0.0
1174,67.0,0,192,1.0,0.0
1175,58.0,96,192,2.0,0.0
1176,60.0,0,192,2.0,0.0
1177,36.0,64,128,5.0,0.0
1178,43.0,0,128,5.0,0.0
1179,43.0,144,128,5.0,0.0
1180,36.0,0,128,5.0,0.0
1181,60.0,0,192,2.0,0.0
1182,56.0,16,192,2.0,0.0
1183,65.0,0,192,1.0,0.0
1184,36.0,392,128,5.0,0.0
1185,43.0,0,128,5.0,0.0
1186,43.0,0,360,5.0,0.0
1187,36.0,0,360,5.0,0.0
1188,60.0,248,360,2.0,0.0
1189,68.0,0,360,1.0,0.0
1190,67.0,0,192,1.0,0.0
1191,58.0,0,192,2.0,0.0
1192,60.0,96,192,2.0,0.0
1193,43.0,64,128,5.0,0.0
1194,36.0,0,128,5.0,0.0
1195,43.0,144,128,5.0,0.0
1196,36.0,0,128,5.0,0.0
1197,65.0,16,192,1.0,0.0
1198,56.0,0,192,2.0,0.0
1199,60.0,0,192,2.0,0.0
1200,36.0,0,128,5.0,0.0
1201,43.0,224,128,5.0,0.0
1202,60.0,0,192,2.0,0.0
1203,36.0,0,360,5.0,0.0
1204,55.0,168,192,2.0,0.0
1205,63.0,0,192,1.0,0.0
1206,43.0,72,360,5.0,0.0
1207,62.0,0,192,1.0,0.0
1208,60.0,0,192,2.0,0.0
1209,53.0,176,192,2.0,0.0
1210,43.0,160,128,5.0,0.0
1211,36.0,0,128,5.0,0.0
1212,51.0,120,720,2.0,0.0
1213,60.0,0,720,1.0,0.0
1214,43.0,160,128,5.0,0.0
1215,36.0,0,128,5.0,0.0
1216,43.0,272,128,5.0,0.0
1217,36.0,0,128,5.0,0.0
1218,43.0,72,360,5.0,0.0
1219,36.0,0,360,5.0,0.0
1220,62.0,0,192,1.0,0.0
1221,50.0,0,192,2.0,0.0
1222,60.0,176,192,2.0,0.0
1223,43.0,0,128,5.0,0.0
1224,55.0,0,1440,2.0,0.0
1225,59.0,0,1440,2.0,0.0
1226,50.0,0,1440,2.0,0.0
1227,62.0,360,1440,1.0,0.0
1228,31.0,160,128,5.0,0.0
1229,43.0,0,128,5.0,0.0
1230,31.0,160,128,5.0,0.0
1231,43.0,392,128,5.0,0.0
1232,31.0,0,128,5.0,0.0
1233,43.0,0,360,5.0,0.0
1234,31.0,248,360,5.0,0.0
1235,31.0,160,128,5.0,0.0
1236,38.0,0,128,5.0,0.0
1237,31.0,160,128,5.0,0.0
1238,38.0,0,128,5.0,0.0
1239,38.0,32,128,5.0,0.0
1240,31.0,0,128,5.0,0.0
1241,70.0,0,360,1.0,0.0
1242,74.0,360,960,1.0,0.0
1243,38.0,0,360,5.0,0.0
1244,62.0,248,360,2.0,0.0
1245,31.0,0,360,5.0,0.0
1246,69.0,0,192,1.0,0.0
1247,31.0,64,128,5.0,0.0
1248,38.0,0,128,5.0,0.0
1249,60.0,96,192,2.0,0.0
1250,38.0,0,128,5.0,0.0
1251,31.0,144,128,5.0,0.0
1252,67.0,0,192,1.0,0.0
1253,58.0,16,192,2.0,0.0
1254,31.0,0,128,5.0,0.0
1255,38.0,32,128,5.0,0.0
1256,60.0,0,360,2.0,0.0
1257,69.0,0,360,1.0,0.0
1258,74.0,192,960,1.0,0.0
1259,38.0,0,360,5.0,0.0
1260,31.0,248,360,5.0,0.0
1261,72.0,0,360,1.0,0.0
1262,63.0,88,360,2.0,0.0
1263,31.0,160,128,5.0,0.0
1264,38.0,0,128,5.0,0.0
1265,38.0,72,128,5.0,0.0
1266,31.0,0,128,5.0,0.0
1267,31.0,0,128,5.0,0.0
1268,38.0,32,128,5.0,0.0
1269,62.0,0,192,2.0,0.0
1270,38.0,72,360,5.0,0.0
1271,31.0,0,360,5.0,0.0
1272,70.0,168,192,1.0,0.0
1273,74.0,192,960,1.0,0.0
1274,60.0,0,192,2.0,0.0
1275,69.0,176,192,1.0,0.0
1276,70.0,0,360,1.0,0.0
1277,31.0,160,128,5.0,0.0
1278,38.0,0,128,5.0,0.0
1279,62.0,88,360,2.0,0.0
1280,38.0,0,128,5.0,0.0
1281,31.0,72,128,5.0,0.0
1282,31.0,32,128,5.0,0.0
1283,38.0,0,128,5.0,0.0
1284,65.0,0,192,2.0,0.0
1285,38.0,72,360,5.0,0.0
1286,31.0,0,360,5.0,0.0
1287,74.0,168,192,1.0,0.0
1288,63.0,176,192,2.0,0.0
1289,72.0,0,192,1.0,0.0
1290,38.0,0,128,5.0,0.0
1291,31.0,160,128,5.0,0.0
1292,77.0,0,360,1.0,0.0
1293,68.0,88,360,2.0,0.0
1294,72.0,0,360,2.0,0.0
1295,38.0,0,128,5.0,0.0
1296,31.0,72,128,5.0,0.0
1297,31.0,224,128,5.0,0.0
1298,38.0,0,128,5.0,0.0
1299,67.0,0,192,2.0,0.0
1300,38.0,0,360,5.0,0.0
1301,31.0,72,360,5.0,0.0
1302,75.0,0,192,1.0,0.0
1303,72.0,168,192,2.0,0.0
1304,65.0,0,192,2.0,0.0
1305,74.0,176,192,1.0,0.0
1306,72.0,0,192,2.0,0.0
1307,38.0,64,128,5.0,0.0
1308,63.0,0,192,2.0,0.0
1309,31.0,0,128,5.0,0.0
1310,72.0,96,192,1.0,0.0
1311,31.0,144,128,5.0,0.0
1312,38.0,0,128,5.0,0.0
1313,74.0,16,192,1.0,0.0
1314,65.0,0,192,2.0,0.0
1315,31.0,0,128,5.0,0.0
1316,38.0,392,128,5.0,0.0
1317,31.0,0,360,5.0,0.0
1318,38.0,248,360,5.0,0.0
1319,62.0,0,720,2.0,0.0
1320,65.0,48,720,2.0,0.0
1321,71.0,0,720,1.0,0.0
1322,24.0,112,128,5.0,0.0
1323,36.0,0,128,5.0,0.0
1324,36.0,144,128,5.0,0.0
1325,24.0,0,128,5.0,0.0
1326,64.0,0,192,2.0,0.0
1327,60.0,0,192,2.0,0.0
1328,72.0,16,192,1.0,0.0
1329,36.0,0,128,5.0,0.0
1330,24.0,1952,128,5.0,0.0
1331,24.0,0,1920,5.0,0.0
1332,60.0,0,1920,2.0,0.0
1333,64.0,0,1920,2.0,0.0
1334,72.0,0,1920,1.0,0.0
1335,36.0,318,1920,5.0,0.0
1336,48.0,0,78,4.0,0.0
1337,60.0,120,78,1.0,0.0
1338,36.0,0,78,5.0,0.0
1339,58.0,120,78,1.0,0.0
1340,34.0,0,78,5.0,0.0
1341,32.0,0,78,5.0,0.0
1342,56.0,120,78,1.0,0.0
1343,36.0,120,78,5.0,0.0
1344,48.0,0,78,4.0,0.0
1345,60.0,0,78,1.0,0.0
1346,28.0,0,78,5.0,0.0
1347,55.0,120,78,1.0,0.0
1348,36.0,0,78,5.0,0.0
1349,48.0,282,78,4.0,0.0
1350,60.0,0,78,1.0,0.0
1351,53.0,600,240,1.0,0.0
1352,29.0,0,240,5.0,0.0
1353,41.0,0,240,5.0,0.0
1354,60.0,0,480,4.0,0.0
1355,56.0,60,360,5.0,0.0
1356,65.0,360,480,4.0,0.0
1357,55.0,60,60,5.0,0.0
1358,53.0,0,60,5.0,0.0
1359,73.0,60,360,2.0,0.0
1360,61.0,240,480,5.0,0.0
1361,70.0,0,360,1.0,0.0
1362,67.0,0,480,4.0,0.0
1363,82.0,0,360,1.0,0.0
1364,72.0,60,60,1.0,0.0
1365,84.0,0,60,1.0,0.0
1366,73.0,0,60,1.0,0.0
1367,85.0,0,60,1.0,0.0
1368,52.0,600,240,1.0,0.0
1369,40.0,0,240,5.0,0.0
1370,28.0,0,240,5.0,0.0
1371,67.0,360,480,4.0,0.0
1372,61.0,60,360,5.0,0.0
1373,60.0,60,60,5.0,0.0
1374,58.0,0,60,5.0,0.0
1375,72.0,0,360,1.0,0.0
1376,84.0,0,360,1.0,0.0
1377,78.0,60,360,2.0,0.0
1378,66.0,240,480,5.0,0.0
1379,69.0,0,480,4.0,0.0
1380,85.0,0,60,1.0,0.0
1381,73.0,60,60,1.0,0.0
1382,75.0,0,60,1.0,0.0
1383,87.0,0,60,1.0,0.0
1384,39.0,0,240,5.0,0.0
1385,27.0,0,240,5.0,0.0
1386,51.0,600,240,1.0,0.0
1387,66.0,60,360,5.0,0.0
1388,72.0,360,480,4.0,0.0
1389,69.0,0,480,4.0,0.0
1390,65.0,60,60,5.0,0.0
1391,63.0,0,60,5.0,0.0
1392,70.0,0,480,5.0,0.0
1393,82.0,60,360,2.0,0.0
1394,75.0,0,480,4.0,0.0
1395,89.0,0,360,1.0,0.0
1396,77.0,0,360,1.0,0.0
1397,93.0,0,60,1.0,0.0
1398,81.0,60,60,1.0,0.0
1399,82.0,240,60,1.0,0.0
1400,94.0,0,60,1.0,0.0
1401,50.0,720,240,1.0,0.0
1402,26.0,0,240,5.0,0.0
1403,38.0,0,240,5.0,0.0
1404,65.0,10,520,5.0,0.0
1405,70.0,10,490,4.0,0.0
1406,77.0,0,480,5.0,0.0
1407,74.0,340,480,4.0,0.0
1408,82.0,0,360,1.0,0.0
1409,37.0,360,480,5.0,0.0
1410,49.0,0,480,5.0,0.0
1411,89.0,60,360,2.0,0.0
1412,94.0,0,360,1.0,0.0
1413,98.0,0,60,1.0,0.0
1414,86.0,60,60,1.0,0.0
1415,89.0,0,60,1.0,0.0
1416,101.0,0,60,1.0,0.0
1417,65.0,45,360,1.0,0.0
1418,68.0,0,360,1.0,0.0
1419,48.0,15,405,5.0,0.0
1420,36.0,0,420,5.0,0.0
1421,72.0,60,60,1.0,0.0
1422,77.0,360,60,1.0,0.0
1423,56.0,20,420,4.0,0.0
1424,60.0,13,427,4.0,0.0
1425,92.0,0,360,1.0,0.0
1426,80.0,40,360,1.0,0.0
1427,65.0,0,420,5.0,0.0
1428,96.0,0,60,1.0,0.0
1429,84.0,7,60,1.0,0.0
1430,89.0,172,60,1.0,0.0
1431,101.0,0,60,1.0,0.0
1432,48.0,40,0,5.0,0.0
1433,55.0,5,192,4.0,0.0
1434,64.0,0,192,5.0,0.0
1435,60.0,38,192,4.0,0.0
1436,88.0,5,150,1.0,0.0
1437,91.0,5,135,2.0,0.0
1438,96.0,165,120,2.0,0.0
1439,100.0,0,120,1.0,0.0
1440,48.0,7,205,5.0,0.0
1441,53.0,20,192,4.0,0.0
1442,60.0,43,192,4.0,0.0
1443,62.0,0,192,5.0,0.0
1444,86.0,180,165,1.0,0.0
1445,89.0,5,135,2.0,0.0
1446,98.0,0,120,1.0,0.0
1447,48.0,5,225,5.0,0.0
1448,52.0,2,210,4.0,0.0
1449,55.0,0,192,4.0,0.0
1450,88.0,0,192,1.0,0.0
1451,100.0,0,192,1.0,0.0
1452,96.0,5,0,2.0,0.0
1453,91.0,473,192,2.0,0.0
1454,60.0,0,192,4.0,0.0
1455,64.0,0,192,5.0,0.0
1456,36.0,7,225,5.0,0.0
1457,43.0,0,205,4.0,0.0
1458,48.0,0,192,4.0,0.0
1459,52.0,1404,192,5.0,0.0
1460,76.0,0,192,2.0,0.0
1461,79.0,0,192,2.0,0.0
1462,72.0,0,192,1.0,0.0
1463,84.0,0,192,1.0,0.0
1464,72.0,0,960,1.0,0.0
1465,63.0,0,960,2.0,0.0
1466,68.0,240,960,2.0,0.0
1467,60.0,0,960,2.0,0.0
1468,36.0,162,156,5.0,0.0
1469,34.0,120,78,5.0,0.0
1470,32.0,42,78,5.0,0.0
1471,70.0,0,480,1.0,0.0
1472,39.0,240,240,5.0,0.0
1473,67.0,0,480,2.0,0.0
1474,63.0,0,480,2.0,0.0
1475,58.0,636,480,2.0,0.0
1476,65.0,0,1320,2.0,0.0
1477,61.0,0,1320,2.0,0.0
1478,68.0,749,1327,2.0,0.0
1479,73.0,7,1320,1.0,0.0
1480,41.0,162,156,5.0,0.0
1481,39.0,120,78,5.0,0.0
1482,37.0,282,78,5.0,0.0
1483,49.0,120,240,5.0,0.0
1484,65.0,240,960,2.0,0.0
1485,70.0,0,960,2.0,0.0
1486,73.0,0,960,1.0,0.0
1487,61.0,0,960,2.0,0.0
1488,37.0,162,156,5.0,0.0
1489,36.0,120,78,5.0,0.0
1490,34.0,42,78,5.0,0.0
1491,60.0,0,480,2.0,0.0
1492,72.0,0,480,1.0,0.0
1493,68.0,0,480,2.0,0.0
1494,41.0,240,240,5.0,0.0
1495,65.0,636,480,2.0,0.0
1496,66.0,0,1320,2.0,0.0
1497,70.0,312,1320,2.0,0.0
1498,75.0,0,1320,1.0,0.0
1499,63.0,0,1320,2.0,0.0
1500,42.0,162,156,5.0,0.0
1501,41.0,120,78,5.0,0.0
1502,39.0,234,78,5.0,0.0
1503,51.0,168,192,5.0,0.0
1504,72.0,0,192,2.0,0.0
1505,70.0,0,192,2.0,0.0
1506,66.0,0,192,2.0,0.0
1507,75.0,240,192,1.0,0.0
1508,65.0,0,192,2.0,0.0
1509,70.0,0,192,2.0,0.0
1510,73.0,366,192,1.0,0.0
1511,70.0,0,720,2.0,0.0
1512,78.0,0,720,1.0,0.0
1513,30.0,120,78,5.0,0.0
1514,29.0,234,78,5.0,0.0
1515,41.0,48,192,5.0,0.0
1516,77.0,0,192,1.0,0.0
1517,72.0,192,0,2.0,0.0
1518,68.0,0,192,2.0,0.0
1519,75.0,0,192,1.0,0.0
1520,66.0,0,192,2.0,0.0
1521,70.0,240,192,2.0,0.0
1522,73.0,0,192,1.0,0.0
1523,68.0,0,192,2.0,0.0
1524,65.0,366,192,2.0,0.0
1525,70.0,192,720,1.0,0.0
1526,61.0,0,720,2.0,0.0
1527,64.0,0,720,2.0,0.0
1528,67.0,0,720,2.0,0.0
1529,31.0,120,78,5.0,0.0
1530,29.0,234,78,5.0,0.0
1531,41.0,48,192,5.0,0.0
1532,60.0,0,192,2.0,0.0
1533,64.0,0,192,2.0,0.0
1534,67.0,0,192,2.0,0.0
1535,72.0,684,192,1.0,0.0
1536,72.0,0,2400,1.0,0.0
1537,60.0,1116,2400,2.0,0.0
1538,65.0,0,2400,2.0,0.0
1539,69.0,0,2400,2.0,0.0
1540,33.0,480,156,5.0,0.0
1541,31.0,240,156,5.0,0.0
1542,29.0,324,156,5.0,0.0
1543,41.0,720,240,5.0,0.0
1544,50.0,0,960,2.0,0.0
1545,62.0,432,960,1.0,0.0
1546,53.0,0,960,2.0,0.0
1547,58.0,0,960,2.0,0.0
1548,38.0,162,156,5.0,0.0
1549,36.0,120,78,5.0,0.0
1550,34.0,42,78,5.0,0.0
1551,57.0,0,480,2.0,0.0
1552,53.0,0,480,2.0,0.0
1553,60.0,636,480,1.0,0.0
1554,41.0,48,192,5.0,0.0
1555,58.0,7,1320,2.0,0.0
1556,63.0,8,1327,1.0,0.0
1557,51.0,57,1335,2.0,0.0
1558,55.0,0,1327,2.0,0.0
1559,67.0,162,156,5.0,0.0
1560,65.0,120,78,5.0,0.0
1561,63.0,402,78,5.0,0.0
1562,59.0,0,367,5.0,0.0
1563,75.0,684,192,5.0,0.0
1564,60.0,0,960,2.0,0.0
1565,51.0,0,960,2.0,0.0
1566,63.0,0,960,1.0,0.0
1567,39.0,162,156,5.0,0.0
1568,38.0,120,78,5.0,0.0
1569,36.0,42,78,5.0,0.0
1570,62.0,636,480,1.0,0.0
1571,55.0,480,0,2.0,0.0
1572,58.0,0,480,2.0,0.0
1573,43.0,0,240,5.0,0.0
1574,53.0,65,1327,2.0,0.0
1575,60.0,0,1327,2.0,0.0
1576,58.0,15,1312,2.0,0.0
1577,65.0,0,1327,1.0,0.0
1578,70.0,162,156,5.0,0.0
1579,67.0,120,78,5.0,0.0
1580,65.0,394,78,5.0,0.0
1581,56.0,0,367,5.0,0.0
1582,77.0,240,192,5.0,0.0
1583,60.0,0,192,2.0,0.0
1584,44.0,0,192,5.0,0.0
1585,65.0,240,192,1.0,0.0
1586,63.0,408,192,1.0,0.0
1587,43.0,0,192,5.0,0.0
1588,58.0,0,192,2.0,0.0
1589,29.0,0,360,5.0,0.0
1590,61.0,0,360,2.0,0.0
1591,56.0,0,360,2.0,0.0
1592,68.0,312,360,1.0,0.0
1593,41.0,0,360,5.0,0.0
1594,67.0,0,192,1.0,0.0
1595,61.0,0,192,2.0,0.0
1596,43.0,0,192,5.0,0.0
1597,31.0,0,192,5.0,0.0
1598,58.0,240,192,2.0,0.0
1599,65.0,240,192,1.0,0.0
1600,61.0,0,192,2.0,0.0
1601,56.0,0,192,2.0,0.0
1602,32.0,0,192,5.0,0.0
1603,44.0,0,192,5.0,0.0
1604,34.0,0,192,5.0,0.0
1605,46.0,0,192,5.0,0.0
1606,63.0,0,192,1.0,0.0
1607,61.0,240,192,2.0,0.0
1608,55.0,0,192,2.0,0.0
1609,61.0,0,192,1.0,0.0
1610,53.0,0,192,2.0,0.0
1611,56.0,0,192,2.0,0.0
1612,37.0,0,192,5.0,0.0
1613,49.0,888,192,5.0,0.0
1614,51.0,192,2400,5.0,0.0
1615,39.0,0,2400,5.0,0.0
1616,58.0,7,840,1.0,0.0
1617,55.0,305,847,1.0,0.0
1618,63.0,0,360,1.0,0.0
1619,84.0,0,192,2.0,0.0
1620,80.0,0,192,2.0,0.0
1621,89.0,240,192,1.0,0.0
1622,79.0,0,192,2.0,0.0
1623,82.0,0,192,2.0,0.0
1624,87.0,288,192,1.0,0.0
1625,92.0,0,360,1.0,0.0
1626,77.0,120,240,5.0,0.0
1627,85.0,72,360,2.0,0.0
1628,80.0,0,360,2.0,0.0
1629,65.0,240,192,5.0,0.0
1630,91.0,0,192,1.0,0.0
1631,82.0,0,192,2.0,0.0
1632,85.0,0,192,2.0,0.0
1633,67.0,240,192,5.0,0.0
1634,79.0,0,192,2.0,0.0
1635,89.0,48,192,1.0,0.0
1636,68.0,0,192,5.0,0.0
1637,85.0,0,192,2.0,0.0
1638,85.0,0,192,2.0,0.0
1639,79.0,0,192,2.0,0.0
1640,87.0,240,192,1.0,0.0
1641,70.0,0,192,5.0,0.0
1642,43.0,0,1320,5.0,0.0
1643,73.0,0,192,5.0,0.0
1644,80.0,0,192,2.0,0.0
1645,77.0,0,192,2.0,0.0
1646,85.0,528,192,1.0,0.0
1647,82.0,5,835,1.0,0.0
1648,79.0,600,840,1.0,0.0
1649,75.0,355,480,5.0,0.0
1650,73.0,0,360,5.0,0.0
1651,87.0,0,360,1.0,0.0
1652,72.0,480,1440,1.0,0.0
1653,44.0,0,1440,5.0,0.0
1654,68.0,8,1432,2.0,0.0
1655,51.0,465,240,3.0,0.0
1656,63.0,15,465,4.0,0.0
1657,51.0,465,240,3.0,0.0
1658,63.0,7,465,4.0,0.0
1659,51.0,0,240,3.0,0.0
1660,68.0,0,960,2.0,0.0
1661,70.0,0,1440,1.0,0.0
1662,51.0,465,240,3.0,0.0
1663,62.0,15,465,4.0,0.0
1664,51.0,465,240,3.0,0.0
1665,67.0,0,480,2.0,0.0
1666,61.0,15,465,4.0,0.0
1667,51.0,480,240,3.0,0.0
1668,44.0,0,0,5.0,0.0
1669,63.0,3,2872,2.0,0.0
1670,75.0,15,1905,1.0,0.0
1671,70.0,0,960,2.0,0.0
1672,51.0,480,240,3.0,0.0
1673,60.0,0,480,4.0,0.0
1674,51.0,480,240,3.0,0.0
1675,68.0,5,1915,2.0,0.0
1676,60.0,0,480,4.0,0.0
1677,51.0,0,240,3.0,0.0
1678,44.0,465,0,5.0,0.0
1679,51.0,480,240,3.0,0.0
1680,59.0,0,480,4.0,0.0
1681,75.0,0,480,1.0,0.0
1682,51.0,470,240,3.0,0.0
1683,76.0,0,475,1.0,0.0
1684,59.0,0,480,4.0,0.0
1685,51.0,2,230,3.0,0.0
1686,63.0,0,1440,2.0,0.0
1687,71.0,5,1415,2.0,0.0
1688,78.0,0,1395,1.0,0.0
1689,51.0,480,240,3.0,0.0
1690,59.0,0,480,4.0,0.0
1691,51.0,475,240,3.0,0.0
1692,59.0,0,480,4.0,0.0
1693,51.0,0,240,3.0,0.0
1694,61.0,0,1440,2.0,0.0
1695,42.0,465,0,5.0,0.0
1696,72.0,5,935,2.0,0.0
1697,78.0,5,1395,1.0,0.0
1698,49.0,475,240,3.0,0.0
1699,54.0,475,480,4.0,0.0
1700,42.0,0,240,3.0,0.0
1701,70.0,0,480,2.0,0.0
1702,52.0,0,480,4.0,0.0
1703,42.0,480,240,3.0,0.0
1704,51.0,480,480,4.0,0.0
1705,73.0,475,945,2.0,0.0
1706,78.0,5,1875,1.0,0.0
1707,42.0,0,240,3.0,0.0
1708,42.0,0,240,3.0,0.0
1709,51.0,5,0,4.0,0.0
1710,71.0,0,480,2.0,0.0
1711,42.0,0,240,3.0,0.0
1712,72.0,0,1440,2.0,0.0
1713,42.0,0,240,3.0,0.0
1714,78.0,0,480,1.0,0.0
1715,50.0,480,0,4.0,0.0
1716,42.0,0,240,3.0,0.0
1717,50.0,480,0,4.0,0.0
1718,80.0,0,480,1.0,0.0
1719,42.0,0,240,3.0,0.0
1720,66.0,0,0,2.0,0.0
1721,73.0,5,1410,2.0,0.0
1722,82.0,5,1395,1.0,0.0
1723,78.0,0,1395,2.0,0.0
1724,42.0,0,240,3.0,0.0
1725,49.0,480,0,4.0,0.0
1726,42.0,0,240,3.0,0.0
1727,49.0,480,480,4.0,0.0
1728,42.0,0,240,3.0,0.0
1729,54.0,0,480,4.0,0.0
1730,72.0,480,1440,2.0,0.0
1731,75.0,0,1415,2.0,0.0
1732,80.0,5,1395,2.0,0.0
1733,84.0,0,1395,1.0,0.0
1734,39.0,480,240,3.0,0.0
1735,54.0,0,480,4.0,0.0
1736,39.0,475,240,3.0,0.0
1737,54.0,0,480,4.0,0.0
1738,39.0,0,240,3.0,0.0
1739,53.0,0,480,4.0,0.0
1740,85.0,0,960,1.0,0.0
1741,73.0,0,960,1.0,0.0
1742,77.0,0,960,2.0,0.0
1743,80.0,0,960,2.0,0.0
1744,37.0,480,240,3.0,0.0
1745,53.0,0,480,4.0,0.0
1746,37.0,480,240,3.0,0.0
1747,75.0,0,960,1.0,0.0
1748,87.0,0,960,1.0,0.0
1749,78.0,0,960,2.0,0.0
1750,36.0,0,240,3.0,0.0
1751,51.0,480,0,4.0,0.0
1752,36.0,0,240,3.0,0.0
1753,80.0,480,0,2.0,0.0
1754,49.0,0,480,4.0,0.0
1755,77.0,0,960,1.0,0.0
1756,89.0,0,960,1.0,0.0
1757,32.0,480,240,3.0,0.0
1758,49.0,0,480,4.0,0.0
1759,32.0,0,240,3.0,0.0
1760,90.0,0,960,1.0,0.0
1761,78.0,0,480,1.0,0.0
1762,85.0,240,0,2.0,0.0
1763,49.0,200,240,5.0,0.0
1764,34.0,0,240,5.0,0.0
1765,46.0,40,120,5.0,0.0
1766,61.0,0,120,5.0,0.0
1767,48.0,40,480,5.0,0.0
1768,87.0,0,480,2.0,0.0
1769,63.0,440,480,5.0,0.0
1770,78.0,0,480,1.0,0.0
1771,49.0,40,480,5.0,0.0
1772,77.0,240,480,1.0,0.0
1773,89.0,0,480,1.0,0.0
1774,80.0,0,0,2.0,0.0
1775,56.0,0,480,4.0,0.0
1776,65.0,0,480,5.0,0.0
1777,34.0,200,240,5.0,0.0
1778,49.0,0,240,5.0,0.0
1779,85.0,0,0,2.0,0.0
1780,90.0,0,240,2.0,0.0
1781,94.0,0,240,1.0,0.0
1782,82.0,0,240,1.0,0.0
1783,48.0,40,120,5.0,0.0
1784,61.0,440,120,5.0,0.0
1785,78.0,0,120,1.0,0.0
1786,90.0,0,600,1.0,0.0
1787,85.0,0,120,2.0,0.0
1788,48.0,40,480,5.0,0.0
1789,78.0,0,480,1.0,0.0
1790,63.0,440,480,5.0,0.0
1791,87.0,0,480,2.0,0.0
1792,49.0,40,480,5.0,0.0
1793,85.0,192,480,2.0,0.0
1794,80.0,0,0,2.0,0.0
1795,89.0,0,480,1.0,0.0
1796,77.0,0,480,1.0,0.0
1797,56.0,0,480,4.0,0.0
1798,65.0,0,480,5.0,0.0
1799,34.0,255,235,5.0,0.0
1800,90.0,0,192,2.0,0.0
1801,94.0,3,192,2.0,0.0
1802,87.0,0,192,1.0,0.0
1803,97.0,0,192,1.0,0.0
1804,49.0,0,192,5.0,0.0
1805,46.0,6,130,5.0,0.0
1806,90.0,0,96,2.0,0.0
1807,82.0,0,96,1.0,0.0
1808,94.0,0,96,1.0,0.0
1809,61.0,184,96,5.0,0.0
1810,47.0,32,200,5.0,0.0
1811,62.0,0,192,5.0,0.0
1812,92.0,0,192,1.0,0.0
1813,80.0,228,192,1.0,0.0
1814,89.0,0,192,2.0,0.0
1815,48.0,12,220,5.0,0.0
1816,78.0,0,192,1.0,0.0
1817,87.0,0,192,2.0,0.0
1818,63.0,0,192,5.0,0.0
1819,90.0,238,192,1.0,0.0
1820,49.0,2,230,5.0,0.0
1821,65.0,240,192,5.0,0.0
1822,85.0,0,192,2.0,0.0
1823,89.0,0,192,1.0,0.0
1824,77.0,0,192,1.0,0.0
1825,51.0,235,235,5.0,0.0
1826,87.0,0,192,1.0,0.0
1827,75.0,3,192,1.0,0.0
1828,66.0,0,192,5.0,0.0
1829,85.0,0,192,2.0,0.0
1830,53.0,2,230,5.0,0.0
1831,85.0,240,192,1.0,0.0
1832,68.0,0,192,5.0,0.0
1833,73.0,0,192,1.0,0.0
1834,75.0,0,192,1.0,0.0
1835,70.0,528,192,5.0,0.0
1836,55.0,0,192,5.0,0.0
1837,82.0,0,192,2.0,0.0
1838,87.0,0,192,1.0,0.0
1839,75.0,0,847,2.0,0.0
1840,80.0,0,840,2.0,0.0
1841,68.0,233,847,5.0,0.0
1842,85.0,360,480,1.0,0.0
1843,73.0,0,480,1.0,0.0
1844,63.0,0,840,4.0,0.0
1845,56.0,0,840,5.0,0.0
1846,84.0,7,360,1.0,0.0
1847,72.0,0,360,1.0,0.0
1848,41.0,93,235,5.0,0.0
1849,80.0,0,128,2.0,0.0
1850,56.0,3,192,5.0,0.0
1851,85.0,8,120,1.0,0.0
1852,73.0,64,128,1.0,0.0
1853,89.0,137,128,1.0,0.0
1854,77.0,0,128,1.0,0.0
1855,43.0,7,225,5.0,0.0
1856,58.0,16,192,5.0,0.0
1857,75.0,512,128,1.0,0.0
1858,87.0,0,128,1.0,0.0
1859,82.0,0,128,2.0,0.0
1860,56.0,113,847,4.0,0.0
1861,51.0,0,847,4.0,0.0
1862,44.0,7,840,5.0,0.0
1863,63.0,0,847,5.0,0.0
1864,73.0,0,480,1.0,0.0
1865,85.0,360,480,1.0,0.0
1866,75.0,440,960,2.0,0.0
1867,80.0,0,960,2.0,0.0
1868,72.0,0,360,1.0,0.0
1869,84.0,0,360,1.0,0.0
1870,72.0,40,440,4.0,0.0
1871,80.0,440,1440,1.0,0.0
1872,75.0,0,1440,2.0,0.0
1873,56.0,440,240,3.0,0.0
1874,72.0,40,440,4.0,0.0
1875,56.0,440,240,3.0,0.0
1876,72.0,40,440,4.0,0.0
1877,56.0,0,240,3.0,0.0
1878,71.0,40,440,4.0,0.0
1879,74.0,0,960,2.0,0.0
1880,79.0,0,960,1.0,0.0
1881,56.0,440,240,3.0,0.0
1882,71.0,40,440,4.0,0.0
1883,56.0,470,240,3.0,0.0
1884,70.0,0,470,4.0,0.0
1885,73.0,5,470,2.0,0.0
1886,78.0,0,475,1.0,0.0
1887,56.0,420,235,3.0,0.0
1888,72.0,0,480,2.0,0.0
1889,69.0,65,415,4.0,0.0
1890,84.0,0,440,1.0,0.0
1891,56.0,415,240,3.0,0.0
1892,77.0,440,480,1.0,0.0
1893,71.0,0,480,2.0,0.0
1894,68.0,65,415,4.0,0.0
1895,56.0,0,240,3.0,0.0
1896,76.0,0,480,2.0,0.0
1897,67.0,35,440,4.0,0.0
1898,70.0,0,480,2.0,0.0
1899,82.0,5,435,1.0,0.0
1900,56.0,440,240,3.0,0.0
1901,66.0,40,440,4.0,0.0
1902,75.0,0,480,1.0,0.0
1903,69.0,440,480,2.0,0.0
1904,56.0,0,240,3.0,0.0
1905,74.0,0,480,2.0,0.0
1906,80.0,0,480,1.0,0.0
1907,68.0,0,480,2.0,0.0
1908,65.0,40,440,4.0,0.0
1909,56.0,440,240,3.0,0.0
1910,67.0,0,480,2.0,0.0
1911,64.0,40,440,4.0,0.0
1912,73.0,440,480,1.0,0.0
1913,56.0,0,240,3.0,0.0
1914,78.0,0,1440,1.0,0.0
1915,72.0,0,1440,2.0,0.0
1916,66.0,440,960,2.0,0.0
1917,63.0,40,440,4.0,0.0
1918,56.0,440,240,3.0,0.0
1919,63.0,40,440,4.0,0.0
1920,56.0,0,240,3.0,0.0
1921,64.0,40,440,4.0,0.0
1922,67.0,0,480,2.0,0.0
1923,56.0,440,240,3.0,0.0
1924,65.0,40,440,4.0,0.0
1925,68.0,440,960,2.0,0.0
1926,72.0,390,1440,1.0,0.0
1927,56.0,440,240,3.0,0.0
1928,65.0,40,440,4.0,0.0
1929,56.0,0,240,3.0,0.0
1930,66.0,0,480,2.0,0.0
1931,63.0,40,440,4.0,0.0
1932,56.0,0,240,3.0,0.0
1933,68.0,0,1440,1.0,0.0
1934,63.0,0,1440,2.0,0.0
1935,60.0,90,390,4.0,0.0
1936,44.0,390,240,3.0,0.0
1937,60.0,90,390,4.0,0.0
1938,44.0,390,240,3.0,0.0
1939,60.0,90,390,4.0,0.0
1940,44.0,390,240,3.0,0.0
1941,62.0,0,960,2.0,0.0
1942,67.0,440,960,1.0,0.0
1943,59.0,90,390,4.0,0.0
1944,44.0,390,240,3.0,0.0
1945,59.0,90,390,4.0,0.0
1946,44.0,0,240,3.0,0.0
1947,66.0,0,480,1.0,0.0
1948,61.0,440,480,2.0,0.0
1949,58.0,40,440,4.0,0.0
1950,44.0,0,240,3.0,0.0
1951,57.0,40,440,4.0,0.0
1952,60.0,0,480,2.0,0.0
1953,72.0,0,440,1.0,0.0
1954,44.0,465,240,3.0,0.0
1955,56.0,15,465,4.0,0.0
1956,65.0,0,480,1.0,0.0
1957,44.0,0,240,3.0,0.0
1958,58.0,465,0,2.0,0.0
1959,64.0,0,480,2.0,0.0
1960,55.0,15,465,4.0,0.0
1961,70.0,460,445,1.0,0.0
1962,44.0,0,240,3.0,0.0
1963,63.0,0,480,1.0,0.0
1964,57.0,415,480,2.0,0.0
1965,54.0,15,465,4.0,0.0
1966,44.0,0,240,3.0,0.0
1967,53.0,60,415,4.0,0.0
1968,56.0,0,480,2.0,0.0
1969,62.0,415,480,2.0,0.0
1970,68.0,5,435,1.0,0.0
1971,44.0,0,240,3.0,0.0
1972,55.0,0,480,2.0,0.0
1973,61.0,415,480,1.0,0.0
1974,52.0,65,415,4.0,0.0
1975,44.0,0,240,3.0,0.0
1976,51.0,65,415,4.0,0.0
1977,54.0,415,960,2.0,0.0
1978,66.0,0,1440,1.0,0.0
1979,60.0,415,1440,2.0,0.0
1980,44.0,415,240,3.0,0.0
1981,51.0,65,415,4.0,0.0
1982,44.0,0,240,3.0,0.0
1983,55.0,0,480,2.0,0.0
1984,52.0,65,415,4.0,0.0
1985,44.0,0,240,3.0,0.0
1986,56.0,480,960,2.0,0.0
1987,60.0,0,1440,1.0,0.0
1988,53.0,65,415,4.0,0.0
1989,44.0,415,240,3.0,0.0
1990,53.0,65,415,4.0,0.0
1991,44.0,0,240,3.0,0.0
1992,51.0,960,480,4.0,0.0
1993,54.0,0,480,2.0,0.0
1994,44.0,1440,1200,3.0,0.0
1995,65.0,0,960,1.0,0.0
1996,56.0,0,960,2.0,0.0
1997,61.0,0,960,2.0,0.0
1998,53.0,0,960,2.0,0.0
1999,49.0,0,960,5.0,0.0
2000,37.0,0,960,5.0,0.0
2001,56.0,0,960,2.0,0.0
2002,49.0,0,960,5.0,0.0
2003,44.0,0,960,3.0,0.0
2004,65.0,0,960,1.0,0.0
2005,53.0,2400,960,2.0,0.0
2006,37.0,0,960,5.0,0.0
2007,61.0,0,960,2.0,0.0
2008,44.0,0,1920,3.0,0.0
2009,65.0,0,1920,1.0,0.0
2010,37.0,0,1920,5.0,0.0
2011,56.0,0,1920,2.0,0.0
2012,61.0,0,1920,2.0,0.0
2013,49.0,336,1920,5.0,0.0
2014,53.0,0,1920,2.0,0.0
2015,48.0,120,96,5.0,0.0
2016,36.0,0,96,5.0,0.0
2017,34.0,120,96,5.0,0.0
2018,46.0,0,96,5.0,0.0
2019,32.0,120,96,5.0,0.0
2020,44.0,0,96,5.0,0.0
2021,48.0,120,96,5.0,0.0
2022,36.0,0,96,5.0,0.0
2023,43.0,0,96,5.0,0.0
2024,31.0,120,96,5.0,0.0
2025,36.0,216,96,5.0,0.0
2026,48.0,0,96,5.0,0.0
2027,30.0,144,192,5.0,0.0
2028,42.0,0,192,5.0,0.0
2029,93.0,120,96,1.0,0.0
2030,81.0,0,96,1.0,0.0
2031,92.0,120,96,1.0,0.0
2032,80.0,0,96,1.0,0.0
2033,54.0,40,192,5.0,0.0
2034,60.0,24,192,4.0,0.0
2035,69.0,0,192,4.0,0.0
2036,57.0,0,192,4.0,0.0
2037,78.0,56,96,1.0,0.0
2038,90.0,0,96,1.0,0.0
2039,63.0,0,192,4.0,0.0
2040,81.0,120,96,1.0,0.0
2041,93.0,0,96,1.0,0.0
2042,76.0,120,96,1.0,0.0
2043,88.0,0,96,1.0,0.0
2044,81.0,216,96,1.0,0.0
2045,93.0,0,96,1.0,0.0
2046,87.0,0,192,1.0,0.0
2047,75.0,144,192,1.0,0.0
2048,33.0,0,96,5.0,0.0
2049,45.0,120,96,5.0,0.0
2050,31.0,120,96,5.0,0.0
2051,43.0,0,96,5.0,0.0
2052,42.0,96,96,5.0,0.0
2053,30.0,0,96,5.0,0.0
2054,96.0,0,192,1.0,0.0
2055,87.0,24,192,2.0,0.0
2056,93.0,0,192,2.0,0.0
2057,84.0,0,192,1.0,0.0
2058,45.0,0,96,5.0,0.0
2059,33.0,120,96,5.0,0.0
2060,40.0,0,96,5.0,0.0
2061,28.0,120,96,5.0,0.0
2062,45.0,0,96,5.0,0.0
2063,33.0,216,96,5.0,0.0
2064,39.0,144,192,5.0,0.0
2065,27.0,0,192,5.0,0.0
2066,96.0,120,96,1.0,0.0
2067,84.0,0,96,1.0,0.0
2068,95.0,0,96,1.0,0.0
2069,83.0,120,96,1.0,0.0
2070,51.0,40,192,5.0,0.0
2071,66.0,24,192,4.0,0.0
2072,93.0,56,96,1.0,0.0
2073,81.0,0,96,1.0,0.0
2074,60.0,0,192,4.0,0.0
2075,57.0,0,192,4.0,0.0
2076,84.0,0,96,1.0,0.0
2077,96.0,120,96,1.0,0.0
2078,91.0,120,96,1.0,0.0
2079,79.0,0,96,1.0,0.0
2080,95.0,216,96,1.0,0.0
2081,83.0,0,96,1.0,0.0
2082,78.0,0,192,1.0,0.0
2083,90.0,144,192,1.0,0.0
2084,30.0,0,96,5.0,0.0
2085,42.0,120,96,5.0,0.0
2086,40.0,120,96,5.0,0.0
2087,28.0,0,96,5.0,0.0
2088,93.0,0,192,2.0,0.0
2089,99.0,24,192,2.0,0.0
2090,102.0,0,192,1.0,0.0
2091,90.0,0,192,1.0,0.0
2092,27.0,0,96,5.0,0.0
2093,39.0,96,96,5.0,0.0
2094,42.0,0,96,5.0,0.0
2095,30.0,120,96,5.0,0.0
2096,37.0,0,96,5.0,0.0
2097,25.0,120,96,5.0,0.0
2098,30.0,216,96,5.0,0.0
2099,42.0,0,96,5.0,0.0
2100,36.0,144,192,5.0,0.0
2101,24.0,0,192,5.0,0.0
2102,90.0,0,96,1.0,0.0
2103,102.0,120,96,1.0,0.0
2104,88.0,120,96,1.0,0.0
2105,100.0,0,96,1.0,0.0
2106,48.0,40,192,5.0,0.0
2107,51.0,24,192,4.0,0.0
2108,87.0,0,96,1.0,0.0
2109,99.0,56,96,1.0,0.0
2110,63.0,0,192,4.0,0.0
2111,57.0,0,192,4.0,0.0
2112,54.0,0,192,4.0,0.0
2113,90.0,0,96,1.0,0.0
2114,102.0,120,96,1.0,0.0
2115,97.0,120,96,1.0,0.0
2116,85.0,0,96,1.0,0.0
2117,90.0,120,96,1.0,0.0
2118,102.0,0,96,1.0,0.0
2119,84.0,96,96,1.0,0.0
2120,96.0,0,96,1.0,0.0
2121,32.0,0,192,5.0,0.0
2122,44.0,24,192,5.0,0.0
2123,90.0,0,96,1.0,0.0
2124,102.0,120,96,1.0,0.0
2125,93.0,120,96,1.0,0.0
2126,81.0,0,96,1.0,0.0
2127,90.0,120,96,1.0,0.0
2128,102.0,0,96,1.0,0.0
2129,56.0,40,192,5.0,0.0
2130,92.0,0,96,1.0,0.0
2131,80.0,56,96,1.0,0.0
2132,63.0,0,192,4.0,0.0
2133,72.0,0,192,4.0,0.0
2134,60.0,0,192,4.0,0.0
2135,66.0,24,192,4.0,0.0
2136,87.0,120,96,1.0,0.0
2137,99.0,0,96,1.0,0.0
2138,78.0,120,96,1.0,0.0
2139,90.0,0,96,1.0,0.0
2140,99.0,120,96,1.0,0.0
2141,87.0,0,96,1.0,0.0
2142,44.0,40,192,5.0,0.0
2143,76.0,0,96,1.0,0.0
2144,88.0,56,96,1.0,0.0
2145,56.0,0,192,4.0,0.0
2146,51.0,24,192,4.0,0.0
2147,54.0,0,192,4.0,0.0
2148,84.0,0,96,1.0,0.0
2149,96.0,120,96,1.0,0.0
2150,75.0,120,96,1.0,0.0
2151,87.0,0,96,1.0,0.0
2152,84.0,224,96,1.0,0.0
2153,96.0,0,96,1.0,0.0
2154,37.0,40,240,5.0,0.0
2155,52.0,600,240,1.0,0.0
2156,92.0,0,240,2.0,0.0
2157,85.0,0,240,1.0,0.0
2158,88.0,0,240,2.0,0.0
2159,97.0,0,240,1.0,0.0
2160,44.0,0,240,5.0,0.0
2161,61.0,0,360,5.0,0.0
2162,73.0,0,360,5.0,0.0
2163,80.0,0,360,2.0,0.0
2164,88.0,60,360,1.0,0.0
2165,76.0,0,360,1.0,0.0
2166,68.0,0,360,4.0,0.0
2167,63.0,60,60,5.0,0.0
2168,87.0,0,60,1.0,0.0
2169,85.0,480,60,1.0,0.0
2170,64.0,0,60,5.0,0.0
2171,73.0,0,480,4.0,0.0
2172,85.0,0,480,2.0,0.0
2173,77.0,480,480,5.0,0.0
2174,80.0,0,480,1.0,0.0
2175,92.0,0,480,1.0,0.0
2176,65.0,0,480,5.0,0.0
2177,68.0,0,480,4.0,0.0
2178,36.0,0,480,5.0,0.0
2179,60.0,0,480,1.0,0.0
2180,48.0,360,480,5.0,0.0
2181,85.0,0,360,2.0,0.0
2182,73.0,0,360,4.0,0.0
2183,92.0,0,360,1.0,0.0
2184,80.0,0,360,1.0,0.0
2185,77.0,0,360,5.0,0.0
2186,65.0,60,360,5.0,0.0
2187,66.0,60,60,5.0,0.0
2188,90.0,0,60,1.0,0.0
2189,89.0,0,60,1.0,0.0
2190,68.0,480,60,5.0,0.0
2191,89.0,0,480,2.0,0.0
2192,59.0,0,480,1.0,0.0
2193,85.0,0,480,1.0,0.0
2194,92.0,0,480,2.0,0.0
2195,97.0,0,480,1.0,0.0
2196,35.0,480,480,5.0,0.0
2197,47.0,0,480,5.0,0.0
2198,58.0,360,480,1.0,0.0
2199,34.0,0,480,5.0,0.0
2200,46.0,0,480,5.0,0.0
2201,85.0,0,360,1.0,0.0
2202,90.0,60,360,2.0,0.0
2203,73.0,0,360,4.0,0.0
2204,97.0,0,360,1.0,0.0
2205,66.0,0,360,5.0,0.0
2206,78.0,0,360,5.0,0.0
2207,95.0,60,60,1.0,0.0
2208,68.0,0,60,5.0,0.0
2209,70.0,480,60,5.0,0.0
2210,94.0,0,60,1.0,0.0
2211,90.0,0,480,1.0,0.0
2212,45.0,0,480,5.0,0.0
2213,97.0,0,480,2.0,0.0
2214,33.0,0,480,5.0,0.0
2215,56.0,0,480,1.0,0.0
2216,102.0,480,0,1.0,0.0
2217,44.0,0,480,5.0,0.0
2218,32.0,128,480,5.0,0.0
2219,90.0,0,1440,1.0,0.0
2220,99.0,0,1440,2.0,0.0
2221,96.0,0,1440,2.0,0.0
2222,56.0,160,128,5.0,0.0
2223,68.0,0,128,5.0,0.0
2224,68.0,0,128,5.0,0.0
2225,56.0,160,128,5.0,0.0
2226,68.0,512,128,5.0,0.0
2227,56.0,0,128,5.0,0.0
2228,68.0,128,480,5.0,0.0
2229,56.0,0,480,5.0,0.0
2230,61.0,128,960,1.0,0.0
2231,56.0,160,128,3.0,0.0
2232,68.0,0,128,3.0,0.0
2233,52.0,192,480,5.0,0.0
2234,40.0,0,480,5.0,0.0
2235,68.0,0,128,3.0,0.0
2236,56.0,160,128,3.0,0.0
2237,56.0,0,128,3.0,0.0
2238,68.0,32,128,3.0,0.0
2239,68.0,0,480,3.0,0.0
2240,56.0,0,480,3.0,0.0
2241,51.0,0,192,5.0,0.0
2242,39.0,240,192,5.0,0.0
2243,37.0,48,192,5.0,0.0
2244,49.0,0,192,5.0,0.0
2245,39.0,0,480,5.0,0.0
2246,51.0,480,480,5.0,0.0
2247,60.0,96,192,1.0,0.0
2248,56.0,64,128,3.0,0.0
2249,68.0,0,128,3.0,0.0
2250,56.0,144,128,3.0,0.0
2251,68.0,0,128,3.0,0.0
2252,58.0,16,192,1.0,0.0
2253,56.0,32,128,3.0,0.0
2254,68.0,0,128,3.0,0.0
2255,42.0,128,480,5.0,0.0
2256,54.0,0,480,5.0,0.0
2257,63.0,192,960,1.0,0.0
2258,68.0,0,0,3.0,0.0
2259,56.0,0,0,3.0,0.0
2260,40.0,0,192,5.0,0.0
2261,52.0,96,192,5.0,0.0
2262,68.0,144,128,3.0,0.0
2263,56.0,0,128,3.0,0.0
2264,39.0,0,192,5.0,0.0
2265,51.0,16,192,5.0,0.0
2266,68.0,32,128,3.0,0.0
2267,56.0,0,128,3.0,0.0
2268,52.0,128,480,5.0,0.0
2269,61.0,240,192,1.0,0.0
2270,40.0,0,480,5.0,0.0
2271,56.0,0,480,3.0,0.0
2272,60.0,48,192,1.0,0.0
2273,64.0,96,192,1.0,0.0
2274,44.0,0,192,5.0,0.0
2275,56.0,0,192,5.0,0.0
2276,68.0,0,0,3.0,0.0
2277,68.0,0,128,3.0,0.0
2278,56.0,144,128,3.0,0.0
2279,42.0,16,192,5.0,0.0
2280,54.0,0,192,5.0,0.0
2281,63.0,0,192,1.0,0.0
2282,68.0,512,128,3.0,0.0
2283,56.0,0,128,3.0,0.0
2284,56.0,0,480,3.0,0.0
2285,66.0,0,480,1.0,0.0
2286,45.0,0,480,5.0,0.0
2287,57.0,0,480,5.0,0.0
2288,68.0,128,0,3.0,0.0
2289,64.0,0,192,1.0,0.0
2290,56.0,0,192,5.0,0.0
2291,44.0,96,192,5.0,0.0
2292,68.0,0,128,3.0,0.0
2293,56.0,144,128,3.0,0.0
2294,42.0,0,192,5.0,0.0
2295,63.0,16,192,1.0,0.0
2296,54.0,0,192,5.0,0.0
2297,68.0,0,128,3.0,0.0
2298,56.0,224,128,3.0,0.0
2299,40.0,0,192,5.0,0.0
2300,52.0,0,192,5.0,0.0
2301,56.0,128,480,3.0,0.0
2302,61.0,240,192,1.0,0.0
2303,51.0,0,192,5.0,0.0
2304,60.0,48,192,1.0,0.0
2305,39.0,0,192,5.0,0.0
2306,68.0,0,0,3.0,0.0
2307,37.0,0,720,5.0,0.0
2308,58.0,0,720,1.0,0.0
2309,49.0,240,720,5.0,0.0
2310,56.0,160,128,3.0,0.0
2311,68.0,160,128,3.0,0.0
2312,56.0,0,128,3.0,0.0
2313,56.0,0,128,3.0,0.0
2314,68.0,272,128,3.0,0.0
2315,56.0,0,480,3.0,0.0
2316,68.0,128,480,3.0,0.0
2317,60.0,0,240,1.0,0.0
2318,44.0,0,240,5.0,0.0
2319,32.0,0,0,5.0,0.0
2320,56.0,160,128,3.0,0.0
2321,60.0,128,960,1.0,0.0
2322,68.0,0,128,3.0,0.0
2323,44.0,0,960,5.0,0.0
2324,68.0,0,128,3.0,0.0
2325,56.0,160,128,3.0,0.0
2326,56.0,512,128,3.0,0.0
2327,68.0,0,128,3.0,0.0
2328,68.0,0,480,3.0,0.0
2329,56.0,0,480,3.0,0.0
2330,63.0,0,128,3.0,0.0
2331,75.0,160,128,3.0,0.0
2332,75.0,160,128,3.0,0.0
2333,63.0,0,128,3.0,0.0
2334,75.0,0,128,3.0,0.0
2335,63.0,512,128,3.0,0.0
2336,59.0,0,480,5.0,0.0
2337,47.0,0,480,5.0,0.0
2338,75.0,128,480,3.0,0.0
2339,68.0,192,960,1.0,0.0
2340,63.0,0,480,3.0,0.0
2341,58.0,0,192,5.0,0.0
2342,46.0,96,192,5.0,0.0
2343,63.0,64,128,3.0,0.0
2344,75.0,0,128,3.0,0.0
2345,75.0,144,128,3.0,0.0
2346,63.0,0,128,3.0,0.0
2347,44.0,16,192,5.0,0.0
2348,56.0,0,192,5.0,0.0
2349,75.0,0,128,3.0,0.0
2350,63.0,32,128,3.0,0.0
2351,67.0,240,192,1.0,0.0
2352,75.0,0,480,3.0,0.0
2353,63.0,0,480,3.0,0.0
2354,46.0,128,480,5.0,0.0
2355,58.0,0,480,5.0,0.0
2356,65.0,48,192,1.0,0.0
2357,63.0,160,128,3.0,0.0
2358,70.0,128,960,1.0,0.0
2359,75.0,0,128,3.0,0.0
2360,49.0,192,480,5.0,0.0
2361,61.0,0,480,5.0,0.0
2362,63.0,0,128,3.0,0.0
2363,75.0,160,128,3.0,0.0
2364,63.0,0,128,3.0,0.0
2365,75.0,32,128,3.0,0.0
2366,59.0,240,192,5.0,0.0
2367,47.0,0,192,5.0,0.0
2368,58.0,0,192,5.0,0.0
2369,46.0,48,192,5.0,0.0
2370,75.0,0,0,3.0,0.0
2371,68.0,96,192,1.0,0.0
2372,63.0,0,0,3.0,0.0
2373,47.0,192,480,5.0,0.0
2374,59.0,0,480,5.0,0.0
2375,63.0,144,128,3.0,0.0
2376,75.0,0,128,3.0,0.0
2377,67.0,16,192,1.0,0.0
2378,63.0,32,128,3.0,0.0
2379,75.0,0,128,3.0,0.0
2380,75.0,128,480,3.0,0.0
2381,63.0,240,192,5.0,0.0
2382,51.0,0,192,5.0,0.0
2383,71.0,0,192,1.0,0.0
2384,49.0,0,192,5.0,0.0
2385,61.0,48,192,5.0,0.0
2386,70.0,0,192,1.0,0.0
2387,75.0,17,463,1.0,0.0
2388,54.0,0,480,5.0,0.0
2389,66.0,192,480,5.0,0.0
2390,63.0,160,128,3.0,0.0
2391,63.0,0,128,3.0,0.0
2392,75.0,160,128,3.0,0.0
2393,63.0,0,128,3.0,0.0
2394,75.0,15,128,3.0,0.0
2395,52.0,0,192,5.0,0.0
2396,63.0,48,432,3.0,0.0
2397,75.0,128,480,3.0,0.0
2398,64.0,0,192,5.0,0.0
2399,73.0,240,192,1.0,0.0
2400,71.0,0,192,1.0,0.0
2401,51.0,0,192,5.0,0.0
2402,63.0,0,192,5.0,0.0
2403,49.0,0,192,5.0,0.0
2404,70.0,96,192,1.0,0.0
2405,61.0,0,192,5.0,0.0
2406,63.0,0,128,3.0,0.0
2407,75.0,64,128,3.0,0.0
2408,63.0,144,128,3.0,0.0
2409,75.0,0,128,3.0,0.0
2410,68.0,0,192,1.0,0.0
2411,59.0,16,192,5.0,0.0
2412,47.0,0,192,5.0,0.0
2413,63.0,0,128,3.0,0.0
2414,75.0,512,128,3.0,0.0
2415,46.0,0,480,5.0,0.0
2416,58.0,480,480,5.0,0.0
2417,67.0,0,960,1.0,0.0
2418,51.0,0,480,5.0,0.0
2419,73.0,0,480,1.0,0.0
2420,39.0,0,480,5.0,0.0
2421,68.0,240,240,3.0,0.0
2422,63.0,0,0,3.0,0.0
2423,32.0,0,480,5.0,0.0
2424,44.0,240,480,5.0,0.0
2425,75.0,240,0,3.0,0.0
2426,72.0,0,4320,3.0,0.0
2427,68.0,480,480,3.0,0.0
2428,68.0,480,480,3.0,0.0
2429,68.0,480,480,3.0,0.0
2430,67.0,0,240,3.0,0.0
2431,68.0,0,480,3.0,0.0
2432,67.0,480,0,3.0,0.0
2433,67.0,240,240,3.0,0.0
2434,68.0,240,0,3.0,0.0
2435,66.0,0,240,3.0,0.0
2436,66.0,480,480,3.0,0.0
2437,68.0,0,480,3.0,0.0
2438,44.0,0,240,5.0,0.0
2439,66.0,0,0,3.0,0.0
2440,68.0,200,0,3.0,0.0
2441,48.0,30,210,5.0,0.0
2442,37.0,235,525,5.0,0.0
2443,54.0,5,480,5.0,0.0
2444,63.0,0,480,3.0,0.0
2445,68.0,240,480,3.0,0.0
2446,53.0,0,240,5.0,0.0
2447,51.0,240,240,5.0,0.0
2448,66.0,0,480,3.0,0.0
2449,53.0,240,960,5.0,0.0
2450,68.0,480,0,3.0,0.0
2451,65.0,240,480,3.0,0.0
2452,37.0,240,960,5.0,0.0
2453,68.0,0,0,3.0,0.0
2454,49.0,0,480,5.0,0.0
2455,68.0,240,0,3.0,0.0
2456,65.0,0,0,3.0,0.0
2457,47.0,240,1440,5.0,0.0
2458,38.0,240,480,5.0,0.0
2459,65.0,0,480,3.0,0.0
2460,68.0,240,0,3.0,0.0
2461,39.0,0,960,5.0,0.0
2462,66.0,0,480,3.0,0.0
2463,65.0,240,480,3.0,0.0
2464,66.0,0,480,3.0,0.0
2465,65.0,0,480,3.0,0.0
2466,46.0,210,240,5.0,0.0
2467,63.0,0,480,3.0,0.0
2468,51.0,270,210,5.0,0.0
2469,66.0,240,480,3.0,0.0
2470,39.0,0,520,5.0,0.0
2471,56.0,240,480,5.0,0.0
2472,70.0,0,480,3.0,0.0
2473,65.0,0,480,3.0,0.0
2474,54.0,240,240,5.0,0.0
2475,68.0,0,480,3.0,0.0
2476,53.0,240,240,5.0,0.0
2477,54.0,240,960,5.0,0.0
2478,70.0,480,0,3.0,0.0
2479,39.0,0,960,5.0,0.0
2480,66.0,240,0,3.0,0.0
2481,70.0,0,480,3.0,0.0
2482,51.0,240,480,5.0,0.0
2483,66.0,240,0,3.0,0.0
2484,49.0,240,1440,5.0,0.0
2485,40.0,240,480,5.0,0.0
2486,70.0,240,0,3.0,0.0
2487,41.0,0,960,5.0,0.0
2488,68.0,0,480,3.0,0.0
2489,67.0,480,0,3.0,0.0
2490,67.0,205,480,3.0,0.0
2491,48.0,0,240,5.0,0.0
2492,68.0,0,0,3.0,0.0
2493,65.0,240,480,3.0,0.0
2494,53.0,275,205,5.0,0.0
2495,41.0,235,525,5.0,0.0
2496,58.0,5,480,5.0,0.0
2497,65.0,0,480,3.0,0.0
2498,56.0,0,240,5.0,0.0
2499,72.0,240,0,3.0,0.0
2500,55.0,128,240,5.0,0.0
2501,65.0,48,480,3.0,0.0
2502,56.0,112,128,5.0,0.0
2503,60.0,160,128,5.0,0.0
2504,68.0,480,480,3.0,0.0
2505,63.0,272,128,5.0,0.0
2506,53.0,240,1440,5.0,0.0
2507,66.0,220,1935,5.0,0.0
2508,72.0,0,0,3.0,0.0
2509,72.0,480,0,3.0,0.0
2510,69.0,0,0,3.0,0.0
2511,75.0,0,480,3.0,0.0
2512,41.0,15,480,5.0,0.0
2513,69.0,0,0,3.0,0.0
2514,66.0,5,475,3.0,0.0
2515,72.0,0,0,3.0,0.0
2516,78.0,240,0,3.0,0.0
2517,65.0,240,480,5.0,0.0
2518,69.0,0,0,3.0,0.0
2519,78.0,0,480,3.0,0.0
2520,66.0,0,480,3.0,0.0
2521,63.0,240,480,5.0,0.0
2522,69.0,0,0,3.0,0.0
2523,66.0,0,480,3.0,0.0
2524,72.0,240,0,3.0,0.0
2525,54.0,240,960,5.0,0.0
2526,61.0,280,1400,5.0,0.0
2527,66.0,0,480,3.0,0.0
2528,70.0,0,480,3.0,0.0
2529,78.0,480,0,3.0,0.0
2530,73.0,240,0,3.0,0.0
2531,66.0,0,480,3.0,0.0
2532,78.0,195,480,3.0,0.0
2533,42.0,5,435,5.0,0.0
2534,65.0,0,480,3.0,0.0
2535,73.0,0,0,3.0,0.0
2536,70.0,0,0,3.0,0.0
2537,77.0,0,480,3.0,0.0
2538,43.0,5,1475,5.0,0.0
2539,60.0,240,960,5.0,0.0
2540,73.0,0,0,3.0,0.0
2541,64.0,0,480,3.0,0.0
2542,67.0,240,480,3.0,0.0
2543,76.0,0,480,3.0,0.0
2544,76.0,0,480,3.0,0.0
2545,67.0,0,480,3.0,0.0
2546,64.0,0,480,3.0,0.0
2547,58.0,240,480,5.0,0.0
2548,73.0,235,0,3.0,0.0
2549,67.0,240,480,3.0,0.0
2550,64.0,0,480,3.0,0.0
2551,76.0,0,480,3.0,0.0
2552,45.0,240,480,5.0,0.0
2553,57.0,0,480,5.0,0.0
2554,77.0,0,480,3.0,0.0
2555,72.0,0,480,3.0,0.0
2556,65.0,0,480,3.0,0.0
2557,53.0,240,240,5.0,0.0
2558,72.0,0,480,3.0,0.0
2559,65.0,0,480,3.0,0.0
2560,52.0,128,240,5.0,0.0
2561,53.0,112,128,5.0,0.0
2562,57.0,160,128,5.0,0.0
2563,81.0,0,480,3.0,0.0
2564,77.0,48,0,3.0,0.0
2565,69.0,0,480,3.0,0.0
2566,72.0,480,480,3.0,0.0
2567,60.0,272,128,5.0,0.0
2568,53.0,235,1005,5.0,0.0
2569,66.0,0,1920,5.0,0.0
2570,84.0,0,480,3.0,0.0
2571,90.0,0,480,3.0,0.0
2572,78.0,0,480,3.0,0.0
2573,81.0,245,0,3.0,0.0
2574,41.0,240,480,5.0,0.0
2575,90.0,0,0,3.0,0.0
2576,84.0,0,0,3.0,0.0
2577,78.0,240,0,3.0,0.0
2578,81.0,0,0,3.0,0.0
2579,53.0,240,480,5.0,0.0
2580,90.0,0,0,3.0,0.0
2581,81.0,0,480,3.0,0.0
2582,78.0,0,480,3.0,0.0
2583,65.0,240,480,5.0,0.0
2584,78.0,240,480,3.0,0.0
2585,84.0,240,0,3.0,0.0
2586,81.0,0,480,3.0,0.0
2587,90.0,0,480,3.0,0.0
2588,63.0,240,480,5.0,0.0
2589,84.0,0,0,3.0,0.0
2590,81.0,0,480,3.0,0.0
2591,54.0,240,960,5.0,0.0
2592,61.0,0,1400,5.0,0.0
2593,90.0,0,0,3.0,0.0
2594,78.0,480,0,3.0,0.0
2595,78.0,0,0,3.0,0.0
2596,90.0,0,0,3.0,0.0
2597,85.0,240,0,3.0,0.0
2598,82.0,0,0,3.0,0.0
2599,42.0,280,440,5.0,0.0
2600,77.0,480,480,3.0,0.0
2601,89.0,0,480,3.0,0.0
2602,85.0,0,480,3.0,0.0
2603,43.0,240,1480,5.0,0.0
2604,60.0,240,960,5.0,0.0
2605,82.0,0,0,3.0,0.0
2606,88.0,0,0,3.0,0.0
2607,85.0,240,0,3.0,0.0
2608,82.0,0,0,3.0,0.0
2609,76.0,0,0,3.0,0.0
2610,79.0,0,0,3.0,0.0
2611,58.0,0,480,5.0,0.0
2612,76.0,0,0,3.0,0.0
2613,79.0,0,480,3.0,0.0
2614,88.0,240,0,3.0,0.0
2615,85.0,0,480,3.0,0.0
2616,82.0,0,480,3.0,0.0
2617,44.0,240,1440,5.0,0.0
2618,56.0,240,960,5.0,0.0
2619,80.0,0,480,3.0,0.0
2620,85.0,0,480,3.0,0.0
2621,77.0,0,0,3.0,0.0
2622,89.0,240,0,3.0,0.0
2623,85.0,0,480,3.0,0.0
2624,49.0,0,480,5.0,0.0
2625,77.0,0,480,3.0,0.0
2626,80.0,0,0,3.0,0.0
2627,89.0,240,0,3.0,0.0
2628,85.0,480,480,3.0,0.0
2629,44.0,240,1440,5.0,0.0
2630,51.0,240,960,5.0,0.0
2631,78.0,0,480,3.0,0.0
2632,80.0,0,0,3.0,0.0
2633,84.0,0,0,3.0,0.0
2634,80.0,0,0,3.0,0.0
2635,90.0,240,0,3.0,0.0
2636,78.0,240,480,3.0,0.0
2637,53.0,0,480,5.0,0.0
2638,84.0,0,0,3.0,0.0
2639,90.0,0,0,3.0,0.0
2640,80.0,0,480,3.0,0.0
2641,78.0,480,480,3.0,0.0
2642,49.0,240,1440,5.0,0.0
2643,77.0,0,480,3.0,0.0
2644,85.0,0,0,3.0,0.0
2645,80.0,0,0,3.0,0.0
2646,89.0,480,0,3.0,0.0
2647,80.0,0,0,3.0,0.0
2648,77.0,240,0,3.0,0.0
2649,89.0,0,0,3.0,0.0
2650,85.0,0,480,3.0,0.0
2651,51.0,240,960,5.0,0.0
2652,37.0,0,0,5.0,0.0
2653,76.0,0,480,3.0,0.0
2654,79.0,0,480,3.0,0.0
2655,88.0,0,480,3.0,0.0
2656,76.0,240,480,3.0,0.0
2657,82.0,240,0,3.0,0.0
2658,79.0,0,480,3.0,0.0
2659,88.0,0,480,3.0,0.0
2660,52.0,0,480,5.0,0.0
2661,82.0,0,0,3.0,0.0
2662,76.0,0,480,3.0,0.0
2663,79.0,0,480,3.0,0.0
2664,88.0,480,480,3.0,0.0
2665,53.0,240,1440,5.0,0.0
2666,37.0,0,1440,5.0,0.0
2667,85.0,0,480,3.0,0.0
2668,89.0,0,480,3.0,0.0
2669,77.0,0,480,3.0,0.0
2670,85.0,0,480,3.0,0.0
2671,80.0,480,0,3.0,0.0
2672,89.0,240,480,3.0,0.0
2673,77.0,0,480,3.0,0.0
2674,89.0,0,480,3.0,0.0
2675,80.0,0,480,3.0,0.0
2676,77.0,0,480,3.0,0.0
2677,51.0,240,960,5.0,0.0
2678,37.0,240,1440,5.0,0.0
2679,85.0,480,0,3.0,0.0
2680,91.0,0,480,3.0,0.0
2681,85.0,240,0,3.0,0.0
2682,79.0,0,0,3.0,0.0
2683,82.0,0,0,3.0,0.0
2684,52.0,0,480,5.0,0.0
2685,91.0,0,0,3.0,0.0
2686,79.0,0,480,3.0,0.0
2687,82.0,480,480,3.0,0.0
2688,85.0,0,480,3.0,0.0
2689,37.0,0,1390,5.0,0.0
2690,49.0,290,1390,5.0,0.0
2691,92.0,0,480,3.0,0.0
2692,83.0,480,480,3.0,0.0
2693,80.0,0,480,3.0,0.0
2694,85.0,0,0,3.0,0.0
2695,83.0,0,480,3.0,0.0
2696,80.0,0,480,3.0,0.0
2697,83.0,480,480,3.0,0.0
2698,85.0,0,480,3.0,0.0
2699,92.0,190,0,3.0,0.0
2700,80.0,0,480,3.0,0.0
2701,37.0,280,1440,5.0,0.0
2702,43.0,0,1415,4.0,0.0
2703,51.0,240,960,5.0,0.0
2704,91.0,0,0,3.0,0.0
2705,94.0,0,0,3.0,0.0
2706,82.0,0,0,3.0,0.0
2707,85.0,240,0,3.0,0.0
2708,52.0,5,435,5.0,0.0
2709,91.0,195,0,3.0,0.0
2710,94.0,0,0,3.0,0.0
2711,82.0,0,0,3.0,0.0
2712,37.0,280,1440,5.0,0.0
2713,44.0,5,1415,4.0,0.0
2714,53.0,0,1400,5.0,0.0
2715,85.0,0,0,3.0,0.0
2716,89.0,0,480,3.0,0.0
2717,83.0,0,480,3.0,0.0
2718,95.0,0,0,3.0,0.0
2719,85.0,480,0,3.0,0.0
2720,85.0,480,480,3.0,0.0
2721,89.0,0,0,3.0,0.0
2722,83.0,0,0,3.0,0.0
2723,95.0,0,480,3.0,0.0
2724,37.0,0,1470,5.0,0.0
2725,42.0,10,1450,4.0,0.0
2726,51.0,0,1440,5.0,0.0
2727,93.0,480,480,3.0,0.0
2728,96.0,0,480,3.0,0.0
2729,87.0,0,480,3.0,0.0
2730,84.0,0,0,3.0,0.0
2731,96.0,0,480,3.0,0.0
2732,87.0,230,480,3.0,0.0
2733,84.0,0,0,3.0,0.0
2734,96.0,0,240,3.0,0.0
2735,93.0,0,0,3.0,0.0
2736,87.0,480,240,3.0,0.0
2737,92.0,0,480,1.0,0.0
2738,37.0,360,480,5.0,0.0
2739,95.0,0,480,1.0,0.0
2740,49.0,0,480,5.0,0.0
2741,99.0,0,480,1.0,0.0
2742,41.0,0,480,4.0,0.0
2743,83.0,0,360,1.0,0.0
2744,87.0,0,0,1.0,0.0
2745,80.0,0,360,1.0,0.0
2746,68.0,0,360,5.0,0.0
2747,75.0,465,360,5.0,0.0
2748,77.0,458,487,1.0,0.0
2749,65.0,15,465,5.0,0.0
2750,63.0,7,420,5.0,0.0
2751,75.0,0,427,1.0,0.0
2752,83.0,0,360,1.0,0.0
2753,80.0,0,360,1.0,0.0
2754,68.0,0,360,5.0,0.0
2755,59.0,7,465,5.0,0.0
2756,71.0,0,480,1.0,0.0
2757,68.0,0,420,1.0,0.0
2758,56.0,8,412,5.0,0.0
2759,75.0,0,360,1.0,0.0
2760,77.0,0,360,1.0,0.0
2761,63.0,412,360,5.0,0.0
2762,65.0,0,360,1.0,0.0
2763,65.0,0,420,1.0,0.0
2764,53.0,8,412,5.0,0.0
2765,51.0,7,360,5.0,0.0
2766,63.0,0,360,1.0,0.0
2767,56.0,0,307,5.0,0.0
2768,71.0,0,300,1.0,0.0
2769,68.0,0,307,1.0,0.0
2770,59.0,141,307,5.0,0.0
2771,37.0,0,128,5.0,0.0
2772,49.0,160,128,5.0,0.0
2773,61.0,0,128,1.0,0.0
2774,59.0,0,128,1.0,0.0
2775,37.0,0,128,5.0,0.0
2776,47.0,160,128,5.0,0.0
2777,35.0,0,128,5.0,0.0
2778,58.0,0,128,1.0,0.0
2779,46.0,160,128,5.0,0.0
2780,34.0,0,128,5.0,0.0
2781,44.0,0,128,5.0,0.0
2782,56.0,0,128,1.0,0.0
2783,32.0,512,128,5.0,0.0
2784,54.0,0,480,1.0,0.0
2785,42.0,360,480,5.0,0.0
2786,30.0,0,480,5.0,0.0
2787,73.0,0,360,2.0,0.0
2788,82.0,0,360,1.0,0.0
2789,70.0,60,360,1.0,0.0
2790,54.0,0,360,5.0,0.0
2791,61.0,0,360,4.0,0.0
2792,66.0,0,360,4.0,0.0
2793,56.0,0,60,5.0,0.0
2794,80.0,60,60,1.0,0.0
2795,78.0,0,60,1.0,0.0
2796,58.0,480,60,5.0,0.0
2797,66.0,0,480,4.0,0.0
2798,68.0,0,480,4.0,0.0
2799,78.0,192,480,2.0,0.0
2800,80.0,0,480,2.0,0.0
2801,75.0,0,480,1.0,0.0
2802,87.0,0,480,1.0,0.0
2803,59.0,0,480,5.0,0.0
2804,35.0,0,192,5.0,0.0
2805,47.0,240,192,5.0,0.0
2806,59.0,0,192,1.0,0.0
2807,68.0,0,192,4.0,0.0
2808,66.0,0,192,4.0,0.0
2809,78.0,0,192,2.0,0.0
2810,80.0,0,192,2.0,0.0
2811,59.0,0,192,5.0,0.0
2812,87.0,240,192,1.0,0.0
2813,75.0,0,192,1.0,0.0
2814,37.0,233,192,5.0,0.0
2815,61.0,0,192,4.0,0.0
2816,49.0,0,192,5.0,0.0
2817,56.0,7,225,5.0,0.0
2818,71.0,0,192,5.0,0.0
2819,75.0,228,192,1.0,0.0
2820,87.0,0,192,1.0,0.0
2821,65.0,0,192,4.0,0.0
2822,77.0,0,192,2.0,0.0
2823,80.0,0,192,2.0,0.0
2824,61.0,0,192,4.0,0.0
2825,56.0,12,220,5.0,0.0
2826,73.0,0,192,1.0,0.0
2827,71.0,238,192,5.0,0.0
2828,65.0,0,192,4.0,0.0
2829,85.0,0,192,1.0,0.0
2830,77.0,0,192,2.0,0.0
2831,80.0,0,192,2.0,0.0
2832,61.0,0,192,4.0,0.0
2833,56.0,2,230,5.0,0.0
2834,65.0,0,192,4.0,0.0
2835,61.0,0,192,4.0,0.0
2836,71.0,0,192,1.0,0.0
2837,73.0,0,192,2.0,0.0
2838,77.0,528,192,2.0,0.0
2839,83.0,0,192,1.0,0.0
2840,68.0,0,192,5.0,0.0
2841,54.0,0,480,1.0,0.0
2842,42.0,360,480,5.0,0.0
2843,30.0,0,480,5.0,0.0
2844,82.0,0,360,1.0,0.0
2845,73.0,0,360,2.0,0.0
2846,66.0,0,360,4.0,0.0
2847,61.0,0,360,4.0,0.0
2848,70.0,0,360,1.0,0.0
2849,54.0,60,360,5.0,0.0
2850,80.0,0,60,1.0,0.0
2851,56.0,60,60,5.0,0.0
2852,58.0,480,60,5.0,0.0
2853,78.0,0,60,1.0,0.0
2854,87.0,192,480,2.0,0.0
2855,80.0,0,480,2.0,0.0
2856,60.0,0,480,5.0,0.0
2857,66.0,0,480,4.0,0.0
2858,68.0,0,480,4.0,0.0
2859,90.0,0,480,1.0,0.0
2860,78.0,0,480,1.0,0.0
2861,32.0,0,192,5.0,0.0
2862,44.0,240,192,5.0,0.0
2863,56.0,0,192,1.0,0.0
2864,66.0,240,192,4.0,0.0
2865,60.0,0,192,5.0,0.0
2866,87.0,0,192,2.0,0.0
2867,80.0,0,192,2.0,0.0
2868,68.0,0,192,4.0,0.0
2869,78.0,0,192,1.0,0.0
2870,90.0,0,192,1.0,0.0
2871,61.0,228,192,4.0,0.0
2872,37.0,0,192,5.0,0.0
2873,49.0,0,192,5.0,0.0
2874,56.0,12,220,5.0,0.0
2875,61.0,0,192,4.0,0.0
2876,71.0,0,192,5.0,0.0
2877,77.0,228,192,1.0,0.0
2878,80.0,0,192,2.0,0.0
2879,83.0,0,192,2.0,0.0
2880,89.0,0,192,1.0,0.0
2881,65.0,0,192,4.0,0.0
2882,56.0,12,220,5.0,0.0
2883,65.0,0,192,4.0,0.0
2884,75.0,0,192,1.0,0.0
2885,61.0,0,192,4.0,0.0
2886,71.0,0,192,5.0,0.0
2887,87.0,0,192,1.0,0.0
2888,80.0,228,192,2.0,0.0
2889,83.0,0,192,2.0,0.0
2890,56.0,12,220,5.0,0.0
2891,73.0,0,192,1.0,0.0
2892,85.0,0,192,1.0,0.0
2893,80.0,0,192,2.0,0.0
2894,65.0,408,192,4.0,0.0
2895,61.0,0,192,4.0,0.0
2896,83.0,0,192,2.0,0.0
2897,71.0,0,192,5.0,0.0
2898,18.0,360,360,5.0,0.0
2899,82.0,120,480,3.0,0.0
2900,73.0,0,480,3.0,0.0
2901,78.0,0,480,3.0,0.0
2902,46.0,60,360,5.0,0.0
2903,70.0,0,0,3.0,0.0
2904,73.0,0,480,3.0,0.0
2905,44.0,300,60,5.0,0.0
2906,42.0,0,300,5.0,0.0
2907,70.0,0,0,3.0,0.0
2908,78.0,240,0,3.0,0.0
2909,73.0,0,240,3.0,0.0
2910,82.0,0,0,3.0,0.0
2911,25.0,360,360,5.0,0.0
2912,73.0,0,480,3.0,0.0
2913,44.0,60,360,5.0,0.0
2914,85.0,0,0,3.0,0.0
2915,77.0,0,0,3.0,0.0
2916,80.0,120,0,3.0,0.0
2917,42.0,300,60,5.0,0.0
2918,41.0,233,307,5.0,0.0
2919,85.0,7,0,3.0,0.0
2920,77.0,0,0,3.0,0.0
2921,73.0,0,0,3.0,0.0
2922,80.0,0,0,3.0,0.0
2923,22.0,360,360,5.0,0.0
2924,82.0,0,480,3.0,0.0
2925,49.0,60,360,5.0,0.0
2926,78.0,0,0,3.0,0.0
2927,90.0,120,0,3.0,0.0
2928,85.0,0,0,3.0,0.0
2929,47.0,300,60,5.0,0.0
2930,46.0,0,300,5.0,0.0
2931,82.0,240,0,3.0,0.0
2932,78.0,0,0,3.0,0.0
2933,90.0,0,240,3.0,0.0
2934,85.0,0,240,3.0,0.0
2935,24.0,360,360,5.0,0.0
2936,46.0,60,360,5.0,0.0
2937,88.0,120,0,3.0,0.0
2938,84.0,0,0,3.0,0.0
2939,76.0,0,0,3.0,0.0
2940,82.0,0,0,3.0,0.0
2941,44.0,300,60,5.0,0.0
2942,43.0,233,307,5.0,0.0
2943,88.0,0,0,3.0,0.0
2944,82.0,360,240,3.0,0.0
2945,76.0,0,240,3.0,0.0
2946,84.0,0,240,3.0,0.0
2947,35.0,360,360,5.0,0.0
2948,77.0,0,480,3.0,0.0
2949,56.0,60,360,5.0,0.0
2950,89.0,120,0,3.0,0.0
2951,85.0,0,0,3.0,0.0
2952,80.0,0,0,3.0,0.0
2953,54.0,300,60,5.0,0.0
2954,53.0,233,307,5.0,0.0
2955,68.0,0,240,5.0,0.0
2956,77.0,0,0,3.0,0.0
2957,80.0,360,240,3.0,0.0
2958,85.0,0,240,3.0,0.0
2959,89.0,0,240,3.0,0.0
2960,34.0,360,360,5.0,0.0
2961,58.0,60,360,5.0,0.0
2962,85.0,120,0,3.0,0.0
2963,90.0,0,0,3.0,0.0
2964,78.0,0,0,3.0,0.0
2965,56.0,300,60,5.0,0.0
2966,54.0,0,300,5.0,0.0
2967,70.0,0,240,5.0,0.0
2968,78.0,360,240,3.0,0.0
2969,85.0,0,240,3.0,0.0
2970,90.0,0,240,3.0,0.0
2971,30.0,360,360,5.0,0.0
2972,61.0,60,360,5.0,0.0
2973,85.0,0,0,3.0,0.0
2974,82.0,120,0,3.0,0.0
2975,90.0,0,0,3.0,0.0
2976,94.0,0,0,3.0,0.0
2977,59.0,300,60,5.0,0.0
2978,58.0,233,307,5.0,0.0
2979,73.0,0,240,5.0,0.0
2980,85.0,360,240,3.0,0.0
2981,94.0,0,240,3.0,0.0
2982,82.0,0,240,3.0,0.0
2983,90.0,0,240,3.0,0.0
2984,36.0,360,360,5.0,0.0
2985,76.0,0,480,3.0,0.0
2986,58.0,60,360,5.0,0.0
2987,84.0,0,0,3.0,0.0
2988,88.0,120,0,3.0,0.0
2989,82.0,0,0,3.0,0.0
2990,76.0,0,480,3.0,0.0
2991,56.0,300,60,5.0,0.0
2992,55.0,0,300,5.0,0.0
2993,72.0,0,240,5.0,0.0
2994,82.0,0,240,3.0,0.0
2995,76.0,0,240,3.0,0.0
2996,88.0,0,240,3.0,0.0
2997,41.0,0,360,5.0,0.0
2998,32.0,60,360,5.0,0.0
2999,80.0,0,128,3.0,0.0
3000,89.0,0,128,3.0,0.0
3001,77.0,0,128,3.0,0.0
3002,84.0,128,0,3.0,0.0
3003,80.0,0,128,3.0,0.0
3004,89.0,72,128,3.0,0.0
3005,84.0,0,128,3.0,0.0
3006,77.0,0,128,3.0,0.0
3007,80.0,0,128,3.0,0.0
3008,89.0,0,128,3.0,0.0
3009,77.0,32,128,3.0,0.0
3010,84.0,0,128,3.0,0.0
3011,31.0,28,60,5.0,0.0
3012,29.0,360,60,5.0,0.0
3013,44.0,0,360,5.0,0.0
3014,53.0,60,360,5.0,0.0
3015,43.0,60,60,5.0,0.0
3016,41.0,240,60,5.0,0.0
3017,53.0,192,240,5.0,0.0
3018,49.0,0,240,5.0,0.0
3019,89.0,176,192,3.0,0.0
3020,80.0,0,192,3.0,0.0
3021,77.0,0,192,3.0,0.0
3022,84.0,0,192,3.0,0.0
3023,31.0,60,360,5.0,0.0
3024,91.0,0,128,3.0,0.0
3025,40.0,0,360,5.0,0.0
3026,85.0,160,128,3.0,0.0
3027,79.0,0,128,3.0,0.0
3028,82.0,0,128,3.0,0.0
3029,85.0,72,128,3.0,0.0
3030,79.0,0,128,3.0,0.0
3031,91.0,0,128,3.0,0.0
3032,82.0,0,128,3.0,0.0
3033,85.0,32,128,3.0,0.0
3034,91.0,0,128,3.0,0.0
3035,82.0,0,128,3.0,0.0
3036,79.0,0,128,3.0,0.0
3037,29.0,28,60,5.0,0.0
3038,28.0,360,60,5.0,0.0
3039,52.0,0,360,5.0,0.0
3040,43.0,60,360,5.0,0.0
3041,41.0,60,60,5.0,0.0
3042,40.0,240,60,5.0,0.0
3043,49.0,192,240,5.0,0.0
3044,55.0,0,240,5.0,0.0
3045,85.0,0,192,3.0,0.0
3046,82.0,176,192,3.0,0.0
3047,91.0,0,192,3.0,0.0
3048,79.0,0,192,3.0,0.0
3049,39.0,0,360,5.0,0.0
3050,30.0,60,360,5.0,0.0
3051,84.0,0,128,3.0,0.0
3052,81.0,0,128,3.0,0.0
3053,93.0,0,128,3.0,0.0
3054,90.0,160,128,3.0,0.0
3055,90.0,0,128,3.0,0.0
3056,84.0,0,128,3.0,0.0
3057,93.0,0,128,3.0,0.0
3058,81.0,72,128,3.0,0.0
3059,90.0,0,128,3.0,0.0
3060,81.0,0,128,3.0,0.0
3061,84.0,0,128,3.0,0.0
3062,93.0,32,128,3.0,0.0
3063,29.0,28,60,5.0,0.0
3064,27.0,360,60,5.0,0.0
3065,51.0,0,360,5.0,0.0
3066,42.0,60,360,5.0,0.0
3067,41.0,60,60,5.0,0.0
3068,39.0,240,60,5.0,0.0
3069,51.0,192,240,5.0,0.0
3070,57.0,0,240,5.0,0.0
3071,90.0,0,192,3.0,0.0
3072,93.0,0,192,3.0,0.0
3073,81.0,0,192,3.0,0.0
3074,84.0,176,192,3.0,0.0
3075,89.0,160,128,3.0,0.0
3076,82.0,0,128,3.0,0.0
3077,38.0,60,360,5.0,0.0
3078,29.0,0,360,5.0,0.0
3079,94.0,0,128,3.0,0.0
3080,89.0,0,128,3.0,0.0
3081,82.0,72,128,3.0,0.0
3082,94.0,0,128,3.0,0.0
3083,94.0,0,128,3.0,0.0
3084,89.0,32,128,3.0,0.0
3085,82.0,0,128,3.0,0.0
3086,27.0,28,60,5.0,0.0
3087,25.0,360,60,5.0,0.0
3088,41.0,60,360,5.0,0.0
3089,50.0,0,360,5.0,0.0
3090,39.0,60,60,5.0,0.0
3091,37.0,128,60,5.0,0.0
3092,94.0,160,128,3.0,0.0
3093,101.0,0,128,3.0,0.0
3094,89.0,0,128,3.0,0.0
3095,49.0,0,360,5.0,0.0
3096,41.0,60,360,5.0,0.0
3097,89.0,0,128,3.0,0.0
3098,101.0,0,128,3.0,0.0
3099,94.0,72,128,3.0,0.0
3100,94.0,0,128,3.0,0.0
3101,101.0,0,128,3.0,0.0
3102,89.0,32,128,3.0,0.0
3103,39.0,28,60,5.0,0.0
3104,37.0,128,60,5.0,0.0
3105,89.0,0,128,1.0,0.0
3106,92.0,0,128,1.0,0.0
3107,101.0,160,128,1.0,0.0
3108,96.0,0,128,1.0,0.0
3109,29.0,0,360,5.0,0.0
3110,36.0,60,360,5.0,0.0
3111,101.0,0,128,1.0,0.0
3112,92.0,0,128,1.0,0.0
3113,96.0,0,128,1.0,0.0
3114,89.0,72,128,1.0,0.0
3115,89.0,32,128,1.0,0.0
3116,96.0,0,128,1.0,0.0
3117,92.0,0,128,1.0,0.0
3118,101.0,0,128,1.0,0.0
3119,27.0,28,60,5.0,0.0
3120,25.0,128,60,5.0,0.0
3121,43.0,60,360,5.0,0.0
3122,100.0,0,128,1.0,0.0
3123,48.0,0,360,5.0,0.0
3124,96.0,160,128,1.0,0.0
3125,91.0,0,128,1.0,0.0
3126,88.0,0,128,1.0,0.0
3127,96.0,0,128,1.0,0.0
3128,91.0,0,128,1.0,0.0
3129,100.0,72,128,1.0,0.0
3130,88.0,0,128,1.0,0.0
3131,96.0,32,128,1.0,0.0
3132,100.0,0,128,1.0,0.0
3133,91.0,0,128,1.0,0.0
3134,88.0,0,128,1.0,0.0
3135,40.0,28,60,5.0,0.0
3136,36.0,128,60,5.0,0.0
3137,60.0,60,360,5.0,0.0
3138,98.0,160,128,1.0,0.0
3139,92.0,0,128,1.0,0.0
3140,86.0,0,128,1.0,0.0
3141,95.0,0,128,1.0,0.0
3142,53.0,0,360,5.0,0.0
3143,98.0,0,128,1.0,0.0
3144,86.0,0,128,1.0,0.0
3145,95.0,72,128,1.0,0.0
3146,92.0,0,128,1.0,0.0
3147,92.0,0,128,1.0,0.0
3148,86.0,0,128,1.0,0.0
3149,95.0,0,128,1.0,0.0
3150,98.0,32,128,1.0,0.0
3151,50.0,28,60,5.0,0.0
3152,48.0,128,60,5.0,0.0
3153,88.0,0,128,1.0,0.0
3154,96.0,160,128,1.0,0.0
3155,91.0,0,128,1.0,0.0
3156,100.0,0,128,1.0,0.0
3157,67.0,60,360,5.0,0.0
3158,72.0,0,360,5.0,0.0
3159,100.0,0,128,1.0,0.0
3160,96.0,0,128,1.0,0.0
3161,88.0,72,128,1.0,0.0
3162,91.0,0,128,1.0,0.0
3163,96.0,32,128,1.0,0.0
3164,88.0,0,128,1.0,0.0
3165,91.0,0,128,1.0,0.0
3166,100.0,0,128,1.0,0.0
3167,64.0,28,60,5.0,0.0
3168,60.0,120,60,5.0,0.0
3169,80.0,8,120,1.0,0.0
3170,77.0,0,128,1.0,0.0
3171,53.0,0,360,5.0,0.0
3172,60.0,60,360,5.0,0.0
3173,83.0,0,128,1.0,0.0
3174,74.0,0,128,1.0,0.0
3175,72.0,160,128,1.0,0.0
3176,86.0,0,128,1.0,0.0
3177,77.0,0,128,1.0,0.0
3178,74.0,0,128,1.0,0.0
3179,86.0,0,128,1.0,0.0
3180,83.0,0,128,1.0,0.0
3181,80.0,0,128,1.0,0.0
3182,72.0,72,128,1.0,0.0
3183,77.0,0,128,1.0,0.0
3184,80.0,32,128,1.0,0.0
3185,74.0,0,128,1.0,0.0
3186,72.0,0,128,1.0,0.0
3187,86.0,0,128,1.0,0.0
3188,83.0,0,128,1.0,0.0
3189,50.0,28,60,5.0,0.0
3190,48.0,128,60,5.0,0.0
3191,77.0,160,128,1.0,0.0
3192,74.0,0,128,1.0,0.0
3193,72.0,0,128,1.0,0.0
3194,83.0,0,128,1.0,0.0
3195,86.0,0,128,1.0,0.0
3196,41.0,0,360,5.0,0.0
3197,80.0,0,128,1.0,0.0
3198,48.0,60,360,5.0,0.0
3199,80.0,0,128,1.0,0.0
3200,83.0,0,128,1.0,0.0
3201,72.0,72,128,1.0,0.0
3202,86.0,0,128,1.0,0.0
3203,77.0,0,128,1.0,0.0
3204,74.0,0,128,1.0,0.0
3205,74.0,0,128,1.0,0.0
3206,86.0,0,128,1.0,0.0
3207,80.0,0,128,1.0,0.0
3208,72.0,0,128,1.0,0.0
3209,83.0,0,128,1.0,0.0
3210,77.0,32,128,1.0,0.0
3211,38.0,28,60,5.0,0.0
3212,36.0,192,60,5.0,0.0
3213,43.0,0,192,5.0,0.0
3214,79.0,624,192,1.0,0.0
3215,84.0,0,192,1.0,0.0
3216,72.0,0,192,1.0,0.0
3217,48.0,0,192,5.0,0.0
3218,88.0,0,192,1.0,0.0
3219,36.0,0,96,5.0,0.0
3220,48.0,0,96,4.0,0.0
3221,60.0,120,96,1.0,0.0
3222,34.0,120,96,5.0,0.0
3223,58.0,0,96,1.0,0.0
3224,32.0,120,96,5.0,0.0
3225,56.0,0,96,1.0,0.0
3226,48.0,0,96,4.0,0.0
3227,60.0,0,96,1.0,0.0
3228,36.0,120,96,5.0,0.0
3229,55.0,0,96,1.0,0.0
3230,31.0,120,96,5.0,0.0
3231,36.0,264,96,5.0,0.0
3232,60.0,0,96,1.0,0.0
3233,48.0,0,96,4.0,0.0
3234,41.0,0,240,5.0,0.0
3235,29.0,475,240,5.0,0.0
3236,53.0,0,240,1.0,0.0
3237,53.0,5,275,5.0,0.0
3238,60.0,120,240,4.0,0.0
3239,65.0,0,240,4.0,0.0
3240,68.0,60,360,1.0,0.0
3241,80.0,0,360,1.0,0.0
3242,72.0,0,360,2.0,0.0
3243,79.0,60,60,1.0,0.0
3244,67.0,0,60,1.0,0.0
3245,77.0,0,60,1.0,0.0
3246,65.0,240,60,1.0,0.0
3247,46.0,0,360,5.0,0.0
3248,73.0,0,240,1.0,0.0
3249,85.0,0,240,1.0,0.0
3250,77.0,120,240,2.0,0.0
3251,79.0,0,240,2.0,0.0
3252,34.0,60,360,5.0,0.0
3253,48.0,60,60,5.0,0.0
3254,36.0,0,60,5.0,0.0
3255,49.0,0,60,5.0,0.0
3256,37.0,240,60,5.0,0.0
3257,40.0,480,240,5.0,0.0
3258,28.0,0,240,5.0,0.0
3259,52.0,120,280,5.0,0.0
3260,79.0,60,360,2.0,0.0
3261,58.0,0,240,4.0,0.0
3262,67.0,0,240,4.0,0.0
3263,61.0,0,240,4.0,0.0
3264,73.0,0,360,1.0,0.0
3265,85.0,0,360,1.0,0.0
3266,72.0,60,60,1.0,0.0
3267,84.0,0,60,1.0,0.0
3268,82.0,240,60,1.0,0.0
3269,70.0,0,60,1.0,0.0
3270,45.0,0,360,5.0,0.0
3271,33.0,60,360,5.0,0.0
3272,81.0,0,240,2.0,0.0
3273,78.0,0,240,1.0,0.0
3274,90.0,120,240,1.0,0.0
3275,84.0,0,240,2.0,0.0
3276,48.0,0,60,5.0,0.0
3277,36.0,60,60,5.0,0.0
3278,39.0,240,60,5.0,0.0
3279,51.0,0,60,5.0,0.0
3280,39.0,0,240,5.0,0.0
3281,27.0,475,240,5.0,0.0
3282,51.0,5,275,5.0,0.0
3283,90.0,60,360,1.0,0.0
3284,57.0,120,240,4.0,0.0
3285,66.0,0,240,4.0,0.0
3286,81.0,0,360,2.0,0.0
3287,84.0,0,360,2.0,0.0
3288,78.0,0,360,1.0,0.0
3289,60.0,0,240,4.0,0.0
3290,77.0,0,60,1.0,0.0
3291,89.0,60,60,1.0,0.0
3292,75.0,0,60,1.0,0.0
3293,87.0,240,60,1.0,0.0
3294,94.0,0,240,1.0,0.0
3295,46.0,60,360,5.0,0.0
3296,34.0,0,360,5.0,0.0
3297,82.0,120,240,1.0,0.0
3298,89.0,0,240,2.0,0.0
3299,38.0,0,60,5.0,0.0
3300,50.0,60,60,5.0,0.0
3301,41.0,240,60,5.0,0.0
3302,53.0,0,60,5.0,0.0
3303,26.0,470,240,5.0,0.0
3304,38.0,0,240,5.0,0.0
3305,50.0,10,270,5.0,0.0
3306,53.0,120,240,4.0,0.0
3307,58.0,0,240,4.0,0.0
3308,65.0,0,240,4.0,0.0
3309,98.0,0,360,1.0,0.0
3310,86.0,60,360,1.0,0.0
3311,84.0,60,60,1.0,0.0
3312,96.0,0,60,1.0,0.0
3313,82.0,0,60,1.0,0.0
3314,94.0,240,60,1.0,0.0
3315,25.0,0,360,5.0,0.0
3316,89.0,120,240,1.0,0.0
3317,101.0,0,240,1.0,0.0
3318,37.0,60,360,5.0,0.0
3319,41.0,60,60,5.0,0.0
3320,29.0,0,60,5.0,0.0
3321,34.0,240,60,5.0,0.0
3322,46.0,0,60,5.0,0.0
3323,36.0,0,360,5.0,0.0
3324,24.0,60,360,5.0,0.0
3325,89.0,0,480,1.0,0.0
3326,94.0,120,240,2.0,0.0
3327,101.0,0,480,1.0,0.0
3328,41.0,60,60,5.0,0.0
3329,29.0,0,60,5.0,0.0
3330,32.0,0,60,5.0,0.0
3331,44.0,360,60,5.0,0.0
3332,36.0,0,360,5.0,0.0
3333,96.0,0,480,2.0,0.0
3334,48.0,60,360,5.0,0.0
3335,92.0,0,480,2.0,0.0
3336,88.0,360,480,1.0,0.0
3337,100.0,0,480,1.0,0.0
3338,52.0,0,60,5.0,0.0
3339,40.0,60,60,5.0,0.0
3340,55.0,0,60,5.0,0.0
3341,43.0,0,60,5.0,0.0
3342,96.0,0,480,2.0,0.0
3343,91.0,0,480,2.0,0.0
3344,60.0,60,360,5.0,0.0
3345,86.0,0,480,1.0,0.0
3346,98.0,240,480,1.0,0.0
3347,48.0,0,360,5.0,0.0
3348,65.0,60,60,5.0,0.0
3349,53.0,0,60,5.0,0.0
3350,56.0,0,60,5.0,0.0
3351,68.0,0,60,5.0,0.0
3352,100.0,144,240,1.0,0.0
3353,88.0,0,240,1.0,0.0
3354,92.0,240,480,2.0,0.0
3355,95.0,0,480,2.0,0.0
3356,72.0,0,240,5.0,0.0
3357,60.0,0,240,5.0,0.0
3358,53.0,72,64,5.0,0.0
3359,41.0,0,64,5.0,0.0
3360,86.0,8,96,1.0,0.0
3361,74.0,0,96,1.0,0.0
3362,44.0,16,64,5.0,0.0
3363,56.0,0,64,5.0,0.0
3364,91.0,0,240,2.0,0.0
3365,96.0,144,240,2.0,0.0
3366,60.0,0,240,5.0,0.0
3367,88.0,0,240,1.0,0.0
3368,76.0,0,240,1.0,0.0
3369,72.0,0,240,5.0,0.0
3370,53.0,72,64,5.0,0.0
3371,41.0,0,64,5.0,0.0
3372,83.0,0,96,2.0,0.0
3373,80.0,0,96,2.0,0.0
3374,62.0,0,96,1.0,0.0
3375,74.0,8,96,1.0,0.0
3376,44.0,0,64,5.0,0.0
3377,56.0,256,64,5.0,0.0
3378,64.0,0,240,1.0,0.0
3379,76.0,0,240,1.0,0.0
3380,60.0,0,240,5.0,0.0
3381,79.0,0,240,2.0,0.0
3382,48.0,0,240,5.0,0.0
3383,84.0,144,240,2.0,0.0
3384,41.0,72,64,5.0,0.0
3385,29.0,0,64,5.0,0.0
3386,68.0,0,96,2.0,0.0
3387,71.0,0,96,2.0,0.0
3388,62.0,0,96,1.0,0.0
3389,59.0,8,96,2.0,0.0
3390,56.0,0,96,2.0,0.0
3391,32.0,256,64,5.0,0.0
3392,44.0,0,64,5.0,0.0
3393,72.0,0,240,2.0,0.0
3394,64.0,480,240,1.0,0.0
3395,36.0,0,240,5.0,0.0
3396,48.0,0,240,5.0,0.0
3397,67.0,0,240,2.0,0.0
3398,60.0,0,240,2.0,0.0
3399,55.0,0,240,2.0,0.0
3400,52.0,0,240,2.0,0.0
3401,24.0,0,240,5.0,0.0
3402,55.0,1356,240,2.0,0.0
3403,60.0,0,240,1.0,0.0
3404,36.0,0,240,5.0,0.0
3405,65.0,0,960,2.0,0.0
3406,57.0,240,960,2.0,0.0
3407,60.0,0,960,2.0,0.0
3408,69.0,0,960,1.0,0.0
3409,33.0,162,156,5.0,0.0
3410,31.0,120,78,5.0,0.0
3411,29.0,42,78,5.0,0.0
3412,67.0,636,480,1.0,0.0
3413,55.0,0,480,2.0,0.0
3414,36.0,240,240,5.0,0.0
3415,60.0,0,480,2.0,0.0
3416,64.0,0,480,2.0,0.0
3417,65.0,749,1327,2.0,0.0
3418,58.0,0,1320,2.0,0.0
3419,62.0,7,1320,2.0,0.0
3420,70.0,0,1320,1.0,0.0
3421,38.0,162,156,5.0,0.0
3422,36.0,120,78,5.0,0.0
3423,34.0,282,78,5.0,0.0
3424,46.0,120,240,5.0,0.0
3425,67.0,240,960,2.0,0.0
3426,70.0,0,960,1.0,0.0
3427,58.0,0,960,2.0,0.0
3428,34.0,162,156,5.0,0.0
3429,33.0,120,78,5.0,0.0
3430,31.0,42,78,5.0,0.0
3431,38.0,240,240,5.0,0.0
3432,62.0,0,0,2.0,0.0
3433,65.0,0,480,2.0,0.0
3434,57.0,636,480,2.0,0.0
3435,69.0,0,480,1.0,0.0
3436,72.0,0,1320,1.0,0.0
3437,60.0,0,1320,2.0,0.0
3438,63.0,312,1320,2.0,0.0
3439,67.0,0,1320,2.0,0.0
3440,39.0,162,156,5.0,0.0
3441,38.0,120,78,5.0,0.0
3442,36.0,234,78,5.0,0.0
3443,48.0,168,192,5.0,0.0
3444,67.0,0,192,2.0,0.0
3445,63.0,0,192,2.0,0.0
3446,72.0,240,192,1.0,0.0
3447,67.0,0,192,2.0,0.0
3448,62.0,0,192,2.0,0.0
3449,70.0,366,192,1.0,0.0
3450,67.0,192,720,2.0,0.0
3451,69.0,0,720,2.0,0.0
3452,75.0,0,720,1.0,0.0
3453,27.0,120,78,5.0,0.0
3454,26.0,234,78,5.0,0.0
3455,38.0,48,192,5.0,0.0
3456,74.0,240,192,1.0,0.0
3457,69.0,0,192,2.0,0.0
3458,65.0,0,192,2.0,0.0
3459,72.0,240,192,1.0,0.0
3460,67.0,0,192,2.0,0.0
3461,63.0,0,192,2.0,0.0
3462,62.0,0,192,2.0,0.0
3463,70.0,0,192,1.0,0.0
3464,65.0,366,192,2.0,0.0
3465,58.0,0,720,2.0,0.0
3466,64.0,681,915,2.0,0.0
3467,61.0,0,915,2.0,0.0
3468,67.0,192,720,1.0,0.0
3469,28.0,120,78,5.0,0.0
3470,26.0,234,78,5.0,0.0
3471,38.0,48,192,5.0,0.0
3472,57.0,3,192,2.0,0.0
3473,69.0,0,192,1.0,0.0
3474,62.0,0,2400,2.0,0.0
3475,69.0,0,2400,1.0,0.0
3476,66.0,0,2400,2.0,0.0
3477,57.0,1116,2400,2.0,0.0
3478,30.0,480,156,5.0,0.0
3479,28.0,240,156,5.0,0.0
3480,26.0,324,156,5.0,0.0
3481,38.0,720,240,5.0,0.0
3482,55.0,432,960,2.0,0.0
3483,47.0,0,960,2.0,0.0
3484,50.0,0,960,2.0,0.0
3485,59.0,0,960,1.0,0.0
3486,35.0,162,156,5.0,0.0
3487,33.0,120,78,5.0,0.0
3488,31.0,42,78,5.0,0.0
3489,57.0,0,480,1.0,0.0
3490,50.0,636,480,2.0,0.0
3491,54.0,0,480,2.0,0.0
3492,38.0,48,192,5.0,0.0
3493,60.0,57,1335,1.0,0.0
3494,55.0,0,1327,2.0,0.0
3495,52.0,0,1327,2.0,0.0
3496,48.0,0,1335,2.0,0.0
3497,64.0,162,156,5.0,0.0
3498,62.0,120,78,5.0,0.0
3499,60.0,409,78,5.0,0.0
3500,56.0,8,367,5.0,0.0
3501,72.0,684,192,5.0,0.0
3502,48.0,0,960,2.0,0.0
3503,57.0,0,960,2.0,0.0
3504,60.0,432,960,1.0,0.0
3505,36.0,162,156,5.0,0.0
3506,35.0,120,78,5.0,0.0
3507,33.0,42,78,5.0,0.0
3508,52.0,0,0,2.0,0.0
3509,55.0,0,480,2.0,0.0
3510,59.0,636,480,1.0,0.0
3511,60.0,48,192,5.0,0.0
3512,57.0,0,1327,2.0,0.0
3513,50.0,0,1327,2.0,0.0
3514,55.0,65,1327,2.0,0.0
3515,62.0,0,1327,1.0,0.0
3516,67.0,162,156,5.0,0.0
3517,64.0,120,78,5.0,0.0
3518,62.0,409,78,5.0,0.0
3519,53.0,0,367,5.0,0.0
3520,74.0,240,192,5.0,0.0
3521,41.0,0,192,5.0,0.0
3522,62.0,240,192,1.0,0.0
3523,57.0,0,192,2.0,0.0
3524,40.0,0,192,5.0,0.0
3525,55.0,0,192,2.0,0.0
3526,60.0,408,192,1.0,0.0
3527,65.0,0,360,1.0,0.0
3528,38.0,312,360,5.0,0.0
3529,53.0,0,360,2.0,0.0
3530,58.0,0,360,2.0,0.0
3531,26.0,0,360,5.0,0.0
3532,28.0,0,192,5.0,0.0
3533,40.0,0,192,5.0,0.0
3534,58.0,0,192,2.0,0.0
3535,55.0,240,192,2.0,0.0
3536,64.0,0,192,1.0,0.0
3537,53.0,0,192,2.0,0.0
3538,29.0,0,192,5.0,0.0
3539,41.0,0,192,5.0,0.0
3540,62.0,240,192,1.0,0.0
3541,58.0,0,192,2.0,0.0
3542,60.0,240,192,1.0,0.0
3543,52.0,0,192,2.0,0.0
3544,43.0,0,192,5.0,0.0
3545,31.0,0,192,5.0,0.0
3546,58.0,0,192,2.0,0.0
3547,46.0,0,192,5.0,0.0
3548,34.0,528,192,5.0,0.0
3549,58.0,0,192,1.0,0.0
3550,50.0,0,192,2.0,0.0
3551,53.0,0,192,2.0,0.0
3552,55.0,360,480,1.0,0.0
3553,52.0,305,847,2.0,0.0
3554,48.0,240,1440,5.0,0.0
3555,36.0,192,2400,5.0,0.0
3556,60.0,7,360,1.0,0.0
3557,81.0,240,192,2.0,0.0
3558,77.0,0,192,2.0,0.0
3559,86.0,0,192,1.0,0.0
3560,84.0,0,192,1.0,0.0
3561,79.0,48,192,2.0,0.0
3562,76.0,0,192,2.0,0.0
3563,77.0,0,360,2.0,0.0
3564,74.0,120,240,5.0,0.0
3565,82.0,0,360,2.0,0.0
3566,89.0,72,360,1.0,0.0
3567,62.0,240,192,5.0,0.0
3568,64.0,0,192,5.0,0.0
3569,79.0,0,192,2.0,0.0
3570,82.0,0,192,2.0,0.0
3571,88.0,240,192,1.0,0.0
3572,86.0,0,192,1.0,0.0
3573,76.0,48,192,2.0,0.0
3574,65.0,0,192,5.0,0.0
3575,82.0,0,192,2.0,0.0
3576,67.0,240,192,5.0,0.0
3577,40.0,600,1320,5.0,0.0
3578,76.0,0,192,2.0,0.0
3579,82.0,0,192,2.0,0.0
3580,84.0,0,192,1.0,0.0
3581,74.0,528,192,2.0,0.0
3582,82.0,0,192,1.0,0.0
3583,77.0,0,192,2.0,0.0
3584,70.0,0,192,5.0,0.0
3585,79.0,5,835,1.0,0.0
3586,76.0,5,830,2.0,0.0
3587,72.0,350,480,5.0,0.0
3588,70.0,0,360,5.0,0.0
3589,84.0,0,360,1.0,0.0
3590,41.0,10,1390,5.0,0.0
3591,69.0,480,1440,1.0,0.0
3592,65.0,5,1435,2.0,0.0
3593,48.0,440,240,3.0,0.0
3594,60.0,40,440,4.0,0.0
3595,48.0,430,240,3.0,0.0
3596,60.0,35,440,4.0,0.0
3597,48.0,0,240,3.0,0.0
3598,41.0,42,1390,5.0,0.0
3599,67.0,8,1432,1.0,0.0
3600,65.0,0,960,2.0,0.0
3601,48.0,440,240,3.0,0.0
3602,59.0,40,440,4.0,0.0
3603,48.0,415,240,3.0,0.0
3604,58.0,15,415,4.0,0.0
3605,64.0,0,480,2.0,0.0
3606,48.0,480,240,3.0,0.0
3607,41.0,50,1390,5.0,0.0
3608,67.0,415,960,2.0,0.0
3609,60.0,488,2872,2.0,0.0
3610,72.0,15,1905,1.0,0.0
3611,48.0,415,240,3.0,0.0
3612,57.0,65,415,4.0,0.0
3613,48.0,0,240,3.0,0.0
3614,65.0,5,1905,2.0,0.0
3615,57.0,15,415,4.0,0.0
3616,48.0,465,240,3.0,0.0
3617,41.0,0,1425,5.0,0.0
3618,48.0,415,240,3.0,0.0
3619,72.0,0,480,1.0,0.0
3620,56.0,65,415,4.0,0.0
3621,48.0,460,240,3.0,0.0
3622,73.0,0,465,1.0,0.0
3623,56.0,2,470,4.0,0.0
3624,48.0,5,220,3.0,0.0
3625,60.0,480,1440,2.0,0.0
3626,39.0,30,1390,5.0,0.0
3627,75.0,15,1380,1.0,0.0
3628,68.0,5,1395,2.0,0.0
3629,48.0,415,240,3.0,0.0
3630,56.0,65,415,4.0,0.0
3631,48.0,415,240,3.0,0.0
3632,56.0,15,415,4.0,0.0
3633,48.0,0,240,3.0,0.0
3634,58.0,0,1440,2.0,0.0
3635,39.0,330,565,5.0,0.0
3636,75.0,5,1395,1.0,0.0
3637,68.0,415,920,2.0,0.0
3638,46.0,85,240,3.0,0.0
3639,51.0,65,415,4.0,0.0
3640,39.0,0,240,3.0,0.0
3641,49.0,60,415,4.0,0.0
3642,67.0,415,480,2.0,0.0
3643,39.0,0,240,3.0,0.0
3644,48.0,65,415,4.0,0.0
3645,75.0,415,1920,1.0,0.0
3646,70.0,415,960,2.0,0.0
3647,39.0,415,240,3.0,0.0
3648,48.0,65,415,4.0,0.0
3649,39.0,0,240,3.0,0.0
3650,48.0,65,415,4.0,0.0
3651,68.0,0,480,2.0,0.0
3652,39.0,415,240,3.0,0.0
3653,47.0,65,415,4.0,0.0
3654,69.0,0,1440,2.0,0.0
3655,39.0,0,240,3.0,0.0
3656,47.0,65,415,4.0,0.0
3657,75.0,0,480,1.0,0.0
3658,39.0,415,240,3.0,0.0
3659,77.0,0,480,1.0,0.0
3660,47.0,65,415,4.0,0.0
3661,39.0,0,240,3.0,0.0
3662,46.0,65,415,4.0,0.0
3663,63.0,415,0,2.0,0.0
3664,79.0,10,1390,1.0,0.0
3665,75.0,0,1390,2.0,0.0
3666,70.0,5,1385,2.0,0.0
3667,39.0,415,240,3.0,0.0
3668,46.0,65,415,4.0,0.0
3669,39.0,415,240,3.0,0.0
3670,46.0,50,415,4.0,0.0
3671,39.0,0,240,3.0,0.0
3672,72.0,0,1440,2.0,0.0
3673,81.0,415,1440,1.0,0.0
3674,69.0,0,1440,1.0,0.0
3675,51.0,65,415,4.0,0.0
3676,77.0,0,1440,2.0,0.0
3677,36.0,415,240,3.0,0.0
3678,51.0,65,415,4.0,0.0
3679,36.0,415,240,3.0,0.0
3680,51.0,65,415,4.0,0.0
3681,36.0,0,240,3.0,0.0
3682,50.0,65,415,4.0,0.0
3683,82.0,0,960,1.0,0.0
3684,70.0,0,960,1.0,0.0
3685,74.0,0,960,2.0,0.0
3686,34.0,415,240,3.0,0.0
3687,50.0,65,415,4.0,0.0
3688,34.0,0,240,3.0,0.0
3689,48.0,65,415,4.0,0.0
3690,84.0,0,960,1.0,0.0
3691,72.0,415,960,1.0,0.0
3692,77.0,415,0,2.0,0.0
3693,75.0,0,960,2.0,0.0
3694,33.0,415,240,3.0,0.0
3695,48.0,65,415,4.0,0.0
3696,33.0,0,240,3.0,0.0
3697,82.0,0,925,2.0,0.0
3698,77.0,5,920,2.0,0.0
3699,74.0,5,925,1.0,0.0
3700,46.0,65,415,4.0,0.0
3701,86.0,240,960,1.0,0.0
3702,29.0,415,240,3.0,0.0
3703,46.0,25,415,4.0,0.0
3704,29.0,30,210,3.0,0.0
3705,31.0,210,280,5.0,0.0
3706,87.0,0,960,1.0,0.0
3707,82.0,440,480,2.0,0.0
3708,46.0,0,240,5.0,0.0
3709,43.0,30,130,5.0,0.0
3710,58.0,0,120,5.0,0.0
3711,45.0,40,480,5.0,0.0
3712,84.0,0,480,1.0,0.0
3713,60.0,0,480,5.0,0.0
3714,75.0,0,0,1.0,0.0
3715,46.0,0,480,5.0,0.0
3716,77.0,430,0,2.0,0.0
3717,74.0,40,440,1.0,0.0
3718,82.0,0,440,2.0,0.0
3719,62.0,5,430,5.0,0.0
3720,53.0,0,440,5.0,0.0
3721,86.0,235,480,1.0,0.0
3722,31.0,5,275,5.0,0.0
3723,79.0,0,240,1.0,0.0
3724,82.0,0,240,2.0,0.0
3725,91.0,0,240,1.0,0.0
3726,46.0,0,240,5.0,0.0
3727,87.0,200,240,2.0,0.0
3728,75.0,440,120,1.0,0.0
3729,87.0,0,600,1.0,0.0
3730,58.0,0,120,5.0,0.0
3731,82.0,0,120,2.0,0.0
3732,45.0,40,0,5.0,0.0
3733,84.0,0,480,2.0,0.0
3734,75.0,0,480,2.0,0.0
3735,77.0,0,480,2.0,0.0
3736,60.0,0,480,5.0,0.0
3737,72.0,440,480,1.0,0.0
3738,46.0,40,480,5.0,0.0
3739,62.0,0,480,5.0,0.0
3740,74.0,0,480,1.0,0.0
3741,53.0,0,480,4.0,0.0
3742,82.0,185,480,2.0,0.0
3743,77.0,0,480,2.0,0.0
3744,86.0,0,480,1.0,0.0
3745,31.0,7,225,5.0,0.0
3746,46.0,0,192,5.0,0.0
3747,94.0,248,192,1.0,0.0
3748,82.0,0,192,1.0,0.0
3749,91.0,0,192,2.0,0.0
3750,87.0,0,192,2.0,0.0
3751,43.0,16,120,5.0,0.0
3752,91.0,209,96,1.0,0.0
3753,79.0,0,96,1.0,0.0
3754,87.0,0,96,2.0,0.0
3755,58.0,0,96,5.0,0.0
3756,44.0,7,225,5.0,0.0
3757,89.0,0,192,1.0,0.0
3758,77.0,233,192,1.0,0.0
3759,86.0,0,192,2.0,0.0
3760,59.0,0,192,5.0,0.0
3761,45.0,7,225,5.0,0.0
3762,87.0,223,192,1.0,0.0
3763,75.0,0,192,1.0,0.0
3764,60.0,0,192,5.0,0.0
3765,84.0,0,192,2.0,0.0
3766,46.0,17,215,5.0,0.0
3767,74.0,0,192,1.0,0.0
3768,60.0,0,192,5.0,0.0
3769,62.0,0,192,5.0,0.0
3770,82.0,0,192,2.0,0.0
3771,86.0,223,192,1.0,0.0
3772,48.0,17,215,5.0,0.0
3773,84.0,0,192,1.0,0.0
3774,72.0,0,192,1.0,0.0
3775,63.0,228,192,5.0,0.0
3776,82.0,0,192,2.0,0.0
3777,50.0,12,220,5.0,0.0
3778,70.0,233,192,1.0,0.0
3779,82.0,0,192,1.0,0.0
3780,65.0,0,192,5.0,0.0
3781,52.0,7,225,5.0,0.0
3782,79.0,528,192,2.0,0.0
3783,84.0,0,192,1.0,0.0
3784,67.0,0,192,5.0,0.0
3785,72.0,0,192,1.0,0.0
3786,60.0,0,840,4.0,0.0
3787,53.0,0,840,5.0,0.0
3788,65.0,0,847,5.0,0.0
3789,77.0,0,840,2.0,0.0
3790,72.0,241,847,2.0,0.0
3791,70.0,360,480,1.0,0.0
3792,82.0,0,480,1.0,0.0
3793,69.0,0,360,1.0,0.0
3794,81.0,7,360,1.0,0.0
3795,38.0,93,235,5.0,0.0
3796,82.0,64,128,1.0,0.0
3797,70.0,0,128,1.0,0.0
3798,77.0,0,128,2.0,0.0
3799,53.0,3,192,5.0,0.0
3800,74.0,0,128,1.0,0.0
3801,86.0,132,128,1.0,0.0
3802,40.0,12,220,5.0,0.0
3803,55.0,16,192,5.0,0.0
3804,84.0,512,128,1.0,0.0
3805,72.0,0,128,1.0,0.0
3806,79.0,0,128,2.0,0.0
3807,77.0,7,840,2.0,0.0
3808,48.0,0,847,4.0,0.0
3809,41.0,0,840,5.0,0.0
3810,60.0,0,847,5.0,0.0
3811,70.0,0,480,1.0,0.0
3812,53.0,553,847,4.0,0.0
3813,82.0,360,480,1.0,0.0
3814,81.0,0,360,1.0,0.0
3815,69.0,0,360,1.0,0.0
3816,77.0,0,1440,1.0,0.0
3817,69.0,40,440,4.0,0.0
3818,72.0,440,1440,2.0,0.0
3819,53.0,440,240,3.0,0.0
3820,69.0,40,440,4.0,0.0
3821,53.0,440,240,3.0,0.0
3822,69.0,40,440,4.0,0.0
3823,53.0,0,240,3.0,0.0
3824,71.0,0,960,2.0,0.0
3825,68.0,40,440,4.0,0.0
3826,76.0,415,960,1.0,0.0
3827,53.0,440,240,3.0,0.0
3828,68.0,40,440,4.0,0.0
3829,53.0,0,240,3.0,0.0
3830,70.0,0,480,2.0,0.0
3831,67.0,65,415,4.0,0.0
3832,75.0,415,480,1.0,0.0
3833,53.0,0,240,3.0,0.0
3834,69.0,0,480,2.0,0.0
3835,66.0,60,415,4.0,0.0
3836,81.0,5,435,1.0,0.0
3837,53.0,415,240,3.0,0.0
3838,68.0,0,480,2.0,0.0
3839,65.0,65,415,4.0,0.0
3840,74.0,415,480,1.0,0.0
3841,53.0,0,240,3.0,0.0
3842,64.0,65,415,4.0,0.0
3843,67.0,0,480,2.0,0.0
3844,73.0,415,480,2.0,0.0
3845,79.0,0,440,1.0,0.0
3846,53.0,0,240,3.0,0.0
3847,72.0,0,480,1.0,0.0
3848,63.0,65,415,4.0,0.0
3849,66.0,440,480,2.0,0.0
3850,53.0,0,240,3.0,0.0
3851,71.0,0,480,2.0,0.0
3852,62.0,40,440,4.0,0.0
3853,65.0,0,480,2.0,0.0
3854,77.0,0,440,1.0,0.0
3855,53.0,440,240,3.0,0.0
3856,61.0,40,440,4.0,0.0
3857,70.0,440,480,1.0,0.0
3858,64.0,0,480,2.0,0.0
3859,53.0,0,240,3.0,0.0
3860,69.0,0,1440,2.0,0.0
3861,75.0,0,1440,1.0,0.0
3862,63.0,0,960,2.0,0.0
3863,60.0,40,440,4.0,0.0
3864,53.0,440,240,3.0,0.0
3865,60.0,40,440,4.0,0.0
3866,53.0,440,240,3.0,0.0
3867,61.0,40,440,4.0,0.0
3868,64.0,0,480,2.0,0.0
3869,53.0,440,240,3.0,0.0
3870,62.0,40,440,4.0,0.0
3871,65.0,0,960,2.0,0.0
3872,69.0,0,1440,1.0,0.0
3873,53.0,440,240,3.0,0.0
3874,62.0,40,440,4.0,0.0
3875,53.0,440,240,3.0,0.0
3876,63.0,465,480,2.0,0.0
3877,60.0,40,440,4.0,0.0
3878,53.0,0,240,3.0,0.0
3879,65.0,0,1440,1.0,0.0
3880,60.0,0,1440,2.0,0.0
3881,57.0,15,465,4.0,0.0
3882,41.0,440,240,3.0,0.0
3883,57.0,40,440,4.0,0.0
3884,41.0,440,240,3.0,0.0
3885,57.0,40,440,4.0,0.0
3886,41.0,440,240,3.0,0.0
3887,59.0,0,960,2.0,0.0
3888,64.0,465,960,1.0,0.0
3889,56.0,40,440,4.0,0.0
3890,41.0,440,240,3.0,0.0
3891,56.0,40,440,4.0,0.0
3892,41.0,0,240,3.0,0.0
3893,55.0,15,465,4.0,0.0
3894,63.0,0,480,1.0,0.0
3895,58.0,465,480,2.0,0.0
3896,41.0,0,240,3.0,0.0
3897,54.0,10,465,4.0,0.0
3898,57.0,440,480,2.0,0.0
3899,69.0,5,435,1.0,0.0
3900,41.0,0,240,3.0,0.0
3901,53.0,40,440,4.0,0.0
3902,62.0,0,480,1.0,0.0
3903,41.0,465,240,3.0,0.0
3904,55.0,0,0,2.0,0.0
3905,61.0,0,480,2.0,0.0
3906,52.0,15,465,4.0,0.0
3907,67.0,0,440,1.0,0.0
3908,41.0,0,240,3.0,0.0
3909,51.0,15,465,4.0,0.0
3910,54.0,0,480,2.0,0.0
3911,60.0,465,480,1.0,0.0
3912,41.0,0,240,3.0,0.0
3913,59.0,465,480,2.0,0.0
3914,53.0,0,480,2.0,0.0
3915,50.0,15,465,4.0,0.0
3916,65.0,0,440,1.0,0.0
3917,41.0,0,240,3.0,0.0
3918,58.0,0,480,1.0,0.0
3919,52.0,465,480,2.0,0.0
3920,49.0,15,465,4.0,0.0
3921,41.0,0,240,3.0,0.0
3922,63.0,0,1440,1.0,0.0
3923,48.0,15,465,4.0,0.0
3924,51.0,0,960,2.0,0.0
3925,57.0,465,1440,2.0,0.0
3926,41.0,465,240,3.0,0.0
3927,48.0,15,465,4.0,0.0
3928,41.0,465,240,3.0,0.0
3929,49.0,15,465,4.0,0.0
3930,52.0,0,480,2.0,0.0
3931,41.0,0,240,3.0,0.0
3932,53.0,0,960,2.0,0.0
3933,57.0,0,2400,1.0,0.0
3934,50.0,15,465,4.0,0.0
3935,41.0,465,240,3.0,0.0
3936,50.0,15,465,4.0,0.0
3937,41.0,465,240,3.0,0.0
3938,48.0,15,465,4.0,0.0
3939,51.0,0,1440,2.0,0.0
3940,41.0,465,240,3.0,0.0
3941,48.0,15,465,4.0,0.0
3942,42.0,465,240,3.0,0.0
3943,48.0,15,465,4.0,0.0
3944,42.0,465,240,3.0,0.0
3945,49.0,15,465,4.0,0.0
3946,52.0,0,480,2.0,0.0
3947,64.0,0,480,1.0,0.0
3948,42.0,465,240,3.0,0.0
3949,51.0,15,465,4.0,0.0
3950,58.0,0,2400,1.0,0.0
3951,54.0,0,960,2.0,0.0
3952,42.0,440,240,3.0,0.0
3953,51.0,40,440,4.0,0.0
3954,42.0,465,240,3.0,0.0
3955,49.0,15,465,4.0,0.0
3956,52.0,0,1440,2.0,0.0
3957,42.0,465,240,3.0,0.0
3958,49.0,15,465,4.0,0.0
3959,43.0,465,240,3.0,0.0
3960,49.0,15,465,4.0,0.0
3961,43.0,465,240,3.0,0.0
3962,50.0,15,465,4.0,0.0
3963,53.0,0,480,2.0,0.0
3964,65.0,0,480,1.0,0.0
3965,43.0,415,240,3.0,0.0
3966,55.0,465,960,2.0,0.0
3967,59.0,0,960,1.0,0.0
3968,52.0,65,415,4.0,0.0
3969,43.0,415,240,3.0,0.0
3970,52.0,65,415,4.0,0.0
3971,43.0,0,240,3.0,0.0
3972,53.0,440,480,2.0,0.0
3973,50.0,15,465,4.0,0.0
3974,65.0,0,480,1.0,0.0
3975,43.0,0,240,3.0,0.0
3976,59.0,0,960,1.0,0.0
3977,55.0,0,960,2.0,0.0
3978,52.0,40,440,4.0,0.0
3979,43.0,440,240,3.0,0.0
3980,52.0,40,440,4.0,0.0
3981,43.0,440,240,3.0,0.0
3982,57.0,440,480,2.0,0.0
3983,53.0,40,440,4.0,0.0
3984,69.0,0,480,1.0,0.0
3985,43.0,0,240,3.0,0.0
3986,59.0,0,960,2.0,0.0
3987,62.0,0,960,1.0,0.0
3988,55.0,40,440,4.0,0.0
3989,43.0,440,240,3.0,0.0
3990,55.0,40,440,4.0,0.0
3991,43.0,440,240,3.0,0.0
3992,60.0,0,480,2.0,0.0
3993,72.0,415,480,1.0,0.0
3994,57.0,40,440,4.0,0.0
3995,43.0,0,240,3.0,0.0
3996,65.0,0,960,1.0,0.0
3997,59.0,65,415,4.0,0.0
3998,62.0,415,960,2.0,0.0
3999,43.0,415,240,3.0,0.0
4000,59.0,65,415,4.0,0.0
4001,43.0,0,240,3.0,0.0
4002,76.0,0,480,1.0,0.0
4003,60.0,65,415,4.0,0.0
4004,64.0,0,480,2.0,0.0
4005,43.0,440,240,3.0,0.0
4006,62.0,40,440,4.0,0.0
4007,69.0,0,960,1.0,0.0
4008,43.0,440,240,3.0,0.0
4009,62.0,40,440,4.0,0.0
4010,43.0,0,240,3.0,0.0
4011,62.0,40,440,4.0,0.0
4012,65.0,440,0,2.0,0.0
4013,77.0,0,480,1.0,0.0
4014,69.0,0,480,2.0,0.0
4015,43.0,440,240,3.0,0.0
4016,77.0,0,1440,1.0,0.0
4017,65.0,440,1440,1.0,0.0
4018,55.0,0,440,4.0,0.0
4019,62.0,0,440,4.0,0.0
4020,53.0,40,440,5.0,0.0
4021,43.0,440,240,3.0,0.0
4022,62.0,0,440,4.0,0.0
4023,53.0,0,440,5.0,0.0
4024,55.0,40,440,4.0,0.0
4025,43.0,440,240,3.0,0.0
4026,53.0,0,440,5.0,0.0
4027,55.0,0,440,4.0,0.0
4028,62.0,40,440,4.0,0.0
4029,43.0,0,240,3.0,0.0
4030,79.0,0,1440,1.0,0.0
4031,55.0,0,440,4.0,0.0
4032,64.0,15,465,4.0,0.0
4033,60.0,0,440,4.0,0.0
4034,52.0,25,440,5.0,0.0
4035,67.0,192,1440,1.0,0.0
4036,76.0,0,1440,2.0,0.0
4037,70.0,0,1440,2.0,0.0
4038,36.0,0,240,3.0,0.0
4039,48.0,415,240,3.0,0.0
4040,55.0,0,440,4.0,0.0
4041,60.0,25,440,4.0,0.0
4042,64.0,25,415,4.0,0.0
4043,52.0,15,465,5.0,0.0
4044,48.0,415,240,3.0,0.0
4045,36.0,0,240,3.0,0.0
4046,55.0,0,440,4.0,0.0
4047,60.0,25,440,4.0,0.0
4048,64.0,25,415,4.0,0.0
4049,52.0,15,465,5.0,0.0
4050,48.0,0,240,3.0,0.0
4051,36.0,0,240,3.0,0.0
4052,29.0,480,192,5.0,0.0
4053,41.0,0,192,5.0,0.0
4054,69.0,60,360,1.0,0.0
4055,72.0,0,360,2.0,0.0
4056,53.0,168,192,5.0,0.0
4057,65.0,0,192,5.0,0.0
4058,60.0,0,192,4.0,0.0
4059,81.0,0,360,1.0,0.0
4060,79.0,75,60,1.0,0.0
4061,77.0,120,75,1.0,0.0
4062,79.0,168,192,2.0,0.0
4063,77.0,0,192,2.0,0.0
4064,86.0,15,135,1.0,0.0
4065,74.0,42,150,1.0,0.0
4066,46.0,60,360,5.0,0.0
4067,34.0,0,360,5.0,0.0
4068,45.0,60,60,5.0,0.0
4069,33.0,0,60,5.0,0.0
4070,43.0,0,60,5.0,0.0
4071,31.0,288,60,5.0,0.0
4072,43.0,144,288,5.0,0.0
4073,55.0,0,288,5.0,0.0
4074,74.0,0,192,1.0,0.0
4075,79.0,408,192,2.0,0.0
4076,77.0,0,192,2.0,0.0
4077,86.0,0,192,1.0,0.0
4078,51.0,60,360,5.0,0.0
4079,39.0,0,360,5.0,0.0
4080,76.0,0,192,2.0,0.0
4081,79.0,0,192,2.0,0.0
4082,74.0,0,192,1.0,0.0
4083,86.0,48,192,1.0,0.0
4084,82.0,0,192,2.0,0.0
4085,50.0,0,60,5.0,0.0
4086,38.0,12,60,5.0,0.0
4087,36.0,0,60,5.0,0.0
4088,60.0,144,288,5.0,0.0
4089,48.0,192,0,5.0,0.0
4090,72.0,96,192,1.0,0.0
4091,84.0,0,192,1.0,0.0
4092,79.0,0,192,2.0,0.0
4093,76.0,0,192,2.0,0.0
4094,79.0,408,192,2.0,0.0
4095,82.0,0,192,1.0,0.0
4096,70.0,0,192,1.0,0.0
4097,76.0,0,192,2.0,0.0
4098,41.0,60,360,5.0,0.0
4099,53.0,0,360,5.0,0.0
4100,51.0,60,60,5.0,0.0
4101,39.0,0,60,5.0,0.0
4102,49.0,0,60,5.0,0.0
4103,37.0,288,60,5.0,0.0
4104,68.0,60,360,1.0,0.0
4105,80.0,0,360,1.0,0.0
4106,49.0,0,288,5.0,0.0
4107,61.0,72,288,5.0,0.0
4108,78.0,0,60,1.0,0.0
4109,66.0,60,60,1.0,0.0
4110,65.0,360,60,1.0,0.0
4111,77.0,0,60,1.0,0.0
4112,78.0,0,480,1.0,0.0
4113,34.0,0,360,5.0,0.0
4114,90.0,0,480,1.0,0.0
4115,46.0,60,360,5.0,0.0
4116,32.0,60,60,5.0,0.0
4117,44.0,0,60,5.0,0.0
4118,42.0,288,60,5.0,0.0
4119,30.0,0,60,5.0,0.0
4120,53.0,144,288,5.0,0.0
4121,41.0,0,288,5.0,0.0
4122,82.0,168,192,1.0,0.0
4123,73.0,0,360,2.0,0.0
4124,94.0,0,192,1.0,0.0
4125,77.0,240,360,2.0,0.0
4126,52.0,0,360,5.0,0.0
4127,40.0,60,360,5.0,0.0
4128,85.0,48,192,2.0,0.0
4129,82.0,0,192,1.0,0.0
4130,94.0,0,192,1.0,0.0
4131,50.0,12,60,5.0,0.0
4132,38.0,0,60,5.0,0.0
4133,48.0,192,60,5.0,0.0
4134,36.0,0,60,5.0,0.0
4135,60.0,144,288,5.0,0.0
4136,81.0,96,192,1.0,0.0
4137,93.0,0,192,1.0,0.0
4138,48.0,0,288,5.0,0.0
4139,91.0,0,192,1.0,0.0
4140,79.0,240,192,1.0,0.0
4141,77.0,240,192,1.0,0.0
4142,81.0,0,192,2.0,0.0
4143,84.0,0,192,2.0,0.0
4144,89.0,0,192,1.0,0.0
4145,41.0,0,192,5.0,0.0
4146,29.0,0,192,5.0,0.0
4147,89.0,0,192,1.0,0.0
4148,77.0,0,192,1.0,0.0
4149,33.0,0,192,5.0,0.0
4150,45.0,0,192,5.0,0.0
4151,85.0,240,192,2.0,0.0
4152,82.0,0,192,2.0,0.0
4153,86.0,0,192,1.0,0.0
4154,34.0,240,192,5.0,0.0
4155,46.0,0,192,5.0,0.0
4156,74.0,0,192,1.0,0.0
4157,77.0,0,192,2.0,0.0
4158,78.0,0,192,2.0,0.0
4159,82.0,0,192,1.0,0.0
4160,70.0,240,192,1.0,0.0
4161,50.0,0,192,5.0,0.0
4162,38.0,0,192,5.0,0.0
4163,39.0,0,192,5.0,0.0
4164,51.0,0,192,5.0,0.0
4165,79.0,0,192,1.0,0.0
4166,70.0,240,192,2.0,0.0
4167,75.0,0,192,2.0,0.0
4168,67.0,0,192,1.0,0.0
4169,73.0,0,192,1.0,0.0
4170,67.0,0,192,2.0,0.0
4171,70.0,240,192,2.0,0.0
4172,52.0,0,192,5.0,0.0
4173,61.0,0,192,1.0,0.0
4174,40.0,0,192,5.0,0.0
4175,72.0,0,192,1.0,0.0
4176,60.0,0,192,1.0,0.0
4177,63.0,0,192,2.0,0.0
4178,69.0,0,192,2.0,0.0
4179,41.0,1728,192,5.0,0.0
4180,53.0,0,192,5.0,0.0
4181,34.0,0,1440,5.0,0.0
4182,86.0,0,1440,1.0,0.0
4183,74.0,360,1440,1.0,0.0
4184,77.0,0,1440,2.0,0.0
4185,82.0,0,1440,2.0,0.0
4186,46.0,0,1440,5.0,0.0
4187,41.0,0,1440,4.0,0.0
4188,70.0,0,360,2.0,0.0
4189,55.0,2520,360,4.0,0.0
4190,76.0,0,360,1.0,0.0
4191,64.0,0,360,1.0,0.0
4192,60.0,0,360,5.0,0.0
4193,48.0,0,360,5.0,0.0
4194,43.0,0,1440,5.0,0.0
4195,82.0,360,1440,2.0,0.0
4196,86.0,0,1440,2.0,0.0
4197,31.0,0,1440,5.0,0.0
4198,89.0,0,1440,1.0,0.0
4199,77.0,0,1440,1.0,0.0
4200,38.0,0,1440,4.0,0.0
4201,64.0,0,360,1.0,0.0
4202,48.0,0,360,5.0,0.0
4203,60.0,0,360,5.0,0.0
4204,76.0,2040,360,1.0,0.0
4205,55.0,0,360,4.0,0.0
4206,70.0,0,360,2.0,0.0
4207,89.0,0,960,2.0,0.0
4208,26.0,0,960,5.0,0.0
4209,38.0,0,960,5.0,0.0
4210,94.0,0,960,1.0,0.0
4211,82.0,960,0,1.0,0.0
4212,39.0,0,960,5.0,0.0
4213,27.0,0,960,5.0,0.0
4214,94.0,960,960,1.0,0.0
4215,91.0,0,960,2.0,0.0
4216,51.0,0,960,5.0,0.0
4217,63.0,0,960,5.0,0.0
4218,67.0,960,960,2.0,0.0
4219,58.0,0,960,4.0,0.0
4220,70.0,0,960,1.0,0.0
4221,94.0,0,960,1.0,0.0
4222,39.0,0,960,5.0,0.0
4223,27.0,0,960,5.0,0.0
4224,82.0,960,960,1.0,0.0
4225,91.0,0,960,2.0,0.0
4226,36.0,0,960,5.0,0.0
4227,24.0,0,960,5.0,0.0
4228,94.0,0,960,2.0,0.0
4229,91.0,960,960,2.0,0.0
4230,84.0,0,960,1.0,0.0
4231,96.0,0,960,1.0,0.0
4232,88.0,0,960,2.0,0.0
4233,72.0,0,960,1.0,0.0
4234,67.0,0,960,2.0,0.0
4235,64.0,0,960,2.0,0.0
4236,55.0,0,960,4.0,0.0
4237,48.0,0,960,5.0,0.0
4238,60.0,0,960,5.0,0.0
4239,70.0,960,960,2.0,0.0
4240,36.0,0,960,5.0,0.0
4241,48.0,0,960,5.0,0.0
4242,84.0,480,960,1.0,0.0
4243,94.0,0,960,2.0,0.0
4244,91.0,0,960,2.0,0.0
4245,88.0,0,960,2.0,0.0
4246,96.0,0,960,1.0,0.0
4247,41.0,0,480,5.0,0.0
4248,93.0,0,480,2.0,0.0
4249,29.0,0,480,5.0,0.0
4250,89.0,0,480,1.0,0.0
4251,101.0,480,480,1.0,0.0
4252,88.0,480,480,1.0,0.0
4253,45.0,0,480,5.0,0.0
4254,33.0,0,480,5.0,0.0
4255,100.0,0,480,1.0,0.0
4256,96.0,0,0,2.0,0.0
4257,91.0,0,480,2.0,0.0
4258,95.0,0,480,2.0,0.0
4259,89.0,0,480,2.0,0.0
4260,34.0,0,480,5.0,0.0
4261,46.0,0,480,5.0,0.0
4262,86.0,0,480,1.0,0.0
4263,98.0,480,480,1.0,0.0
4264,48.0,0,480,5.0,0.0
4265,91.0,0,480,2.0,0.0
4266,36.0,0,480,5.0,0.0
4267,96.0,0,480,1.0,0.0
4268,84.0,480,480,1.0,0.0
4269,37.0,0,480,5.0,0.0
4270,93.0,0,480,1.0,0.0
4271,49.0,0,480,5.0,0.0
4272,81.0,356,480,1.0,0.0
4273,88.0,0,0,2.0,0.0
4274,38.0,60,360,5.0,0.0
4275,81.0,0,356,2.0,0.0
4276,77.0,0,356,1.0,0.0
4277,50.0,4,356,5.0,0.0
4278,89.0,0,356,1.0,0.0
4279,86.0,0,356,2.0,0.0
4280,31.0,60,60,5.0,0.0
4281,43.0,960,60,5.0,0.0
4282,86.0,0,960,1.0,0.0
4283,62.0,0,960,4.0,0.0
4284,77.0,0,960,2.0,0.0
4285,74.0,0,960,1.0,0.0
4286,55.0,0,960,5.0,0.0
4287,82.0,0,960,2.0,0.0
4288,58.0,420,960,4.0,0.0
4289,65.0,0,960,4.0,0.0
4290,36.0,60,60,5.0,0.0
4291,48.0,960,60,5.0,0.0
4292,60.0,0,960,4.0,0.0
4293,55.0,0,960,5.0,0.0
4294,76.0,0,960,2.0,0.0
4295,82.0,0,960,2.0,0.0
4296,79.0,0,960,2.0,0.0
4297,64.0,0,960,4.0,0.0
4298,58.0,0,960,4.0,0.0
4299,72.0,0,960,1.0,0.0
4300,84.0,420,960,1.0,0.0
4301,29.0,60,60,5.0,0.0
4302,41.0,2400,60,5.0,0.0
4303,53.0,0,2400,5.0,0.0
4304,65.0,0,2400,4.0,0.0
4305,60.0,1320,2400,4.0,0.0
4306,81.0,0,2400,1.0,0.0
4307,93.0,0,2400,1.0,0.0
4308,57.0,0,2400,4.0,0.0
4309,84.0,0,2400,2.0,0.0
4310,89.0,0,2400,2.0,0.0
4311,29.0,40,960,5.0,0.0
4312,36.0,40,960,5.0,0.0
4313,41.0,40,960,5.0,0.0
4314,89.0,0,960,2.0,0.0
4315,84.0,0,960,2.0,0.0
4316,81.0,0,960,1.0,0.0
4317,93.0,0,960,1.0,0.0
4318,48.0,1320,960,5.0,0.0
4319,29.0,40,960,5.0,0.0
4320,36.0,40,960,5.0,0.0
4321,41.0,40,960,5.0,0.0
4322,93.0,0,1440,1.0,0.0
4323,81.0,0,1440,1.0,0.0
4324,48.0,120,960,5.0,0.0
4325,84.0,0,1440,2.0,0.0
4326,89.0,1440,1440,2.0,0.0
4327,29.0,120,120,5.0,0.0
4328,36.0,120,120,5.0,0.0
4329,41.0,120,120,5.0,0.0
4330,48.0,0,120,5.0,0.0
4331,53.0,40,1440,5.0,0.0
4332,57.0,40,1440,5.0,0.0
4333,60.0,40,1440,5.0,0.0
4334,65.0,40,1440,5.0,0.0
4335,81.0,1280,1440,1.0,0.0
4336,84.0,0,1440,2.0,0.0
4337,89.0,0,1440,2.0,0.0
4338,93.0,0,1440,1.0,0.0
4339,60.0,0,240,5.0,0.0
4340,75.0,0,240,1.0,0.0
4341,63.0,240,120,4.0,0.0
4342,56.0,0,240,5.0,0.0
4343,72.0,0,240,1.0,0.0
4344,60.0,240,120,4.0,0.0
4345,53.0,240,240,5.0,0.0
4346,68.0,0,240,1.0,0.0
4347,56.0,0,120,4.0,0.0
4348,49.0,240,240,5.0,0.0
4349,65.0,0,240,1.0,0.0
4350,53.0,0,120,4.0,0.0
4351,46.0,240,240,5.0,0.0
4352,61.0,0,240,1.0,0.0
4353,49.0,0,120,4.0,0.0
4354,58.0,0,240,1.0,0.0
4355,43.0,0,240,5.0,0.0
4356,46.0,40,120,4.0,0.0
4357,44.0,0,240,5.0,0.0
4358,60.0,40,40,1.0,0.0
4359,61.0,40,40,1.0,0.0
4360,60.0,60,40,1.0,0.0
4361,48.0,240,120,4.0,0.0
4362,58.0,60,60,1.0,0.0
4363,60.0,0,60,1.0,0.0
4364,46.0,240,240,5.0,0.0
4365,61.0,0,240,1.0,0.0
4366,49.0,0,120,4.0,0.0
4367,58.0,0,240,1.0,0.0
4368,43.0,0,240,5.0,0.0
4369,46.0,240,120,4.0,0.0
4370,60.0,0,240,1.0,0.0
4371,44.0,240,240,5.0,0.0
4372,48.0,0,120,4.0,0.0
4373,63.0,0,240,1.0,0.0
4374,43.0,240,240,5.0,0.0
4375,46.0,0,120,4.0,0.0
4376,68.0,0,240,1.0,0.0
4377,41.0,202,240,5.0,0.0
4378,44.0,0,120,4.0,0.0
4379,70.0,38,202,1.0,0.0
4380,40.0,240,240,5.0,0.0
4381,50.0,0,120,4.0,0.0
4382,67.0,233,767,1.0,0.0
4383,39.0,0,960,5.0,0.0
4384,51.0,120,120,4.0,0.0
4385,55.0,120,120,4.0,0.0
4386,58.0,240,120,4.0,0.0
4387,63.0,0,240,4.0,0.0
4388,67.0,0,120,4.0,0.0
4389,63.0,0,240,5.0,0.0
4390,75.0,7,0,1.0,0.0
4391,66.0,240,120,4.0,0.0
4392,59.0,30,240,5.0,0.0
4393,63.0,0,120,4.0,0.0
4394,71.0,0,240,1.0,0.0
4395,56.0,0,240,5.0,0.0
4396,59.0,240,120,4.0,0.0
4397,68.0,240,240,1.0,0.0
4398,52.0,0,240,5.0,0.0
4399,56.0,0,120,4.0,0.0
4400,49.0,240,240,5.0,0.0
4401,64.0,0,240,1.0,0.0
4402,52.0,0,120,4.0,0.0
4403,61.0,0,240,1.0,0.0
4404,46.0,0,240,5.0,0.0
4405,49.0,40,120,4.0,0.0
4406,47.0,0,240,5.0,0.0
4407,63.0,40,40,1.0,0.0
4408,64.0,40,40,1.0,0.0
4409,63.0,60,40,1.0,0.0
4410,61.0,60,60,1.0,0.0
4411,51.0,240,120,4.0,0.0
4412,63.0,0,60,1.0,0.0
4413,49.0,0,240,5.0,0.0
4414,64.0,0,240,1.0,0.0
4415,52.0,240,120,4.0,0.0
4416,46.0,0,240,5.0,0.0
4417,61.0,0,240,1.0,0.0
4418,49.0,240,120,4.0,0.0
4419,63.0,0,240,1.0,0.0
4420,47.0,0,240,5.0,0.0
4421,51.0,240,120,4.0,0.0
4422,67.0,0,240,1.0,0.0
4423,46.0,0,240,5.0,0.0
4424,49.0,96,120,4.0,0.0
4425,68.0,120,96,1.0,0.0
4426,44.0,0,240,5.0,0.0
4427,70.0,24,96,1.0,0.0
4428,47.0,96,120,4.0,0.0
4429,40.0,0,240,5.0,0.0
4430,71.0,110,96,1.0,0.0
4431,44.0,240,120,4.0,0.0
4432,73.0,34,86,1.0,0.0
4433,68.0,117,763,2.0,0.0
4434,39.0,15,945,5.0,0.0
4435,75.0,3,720,1.0,0.0
4436,48.0,120,120,4.0,0.0
4437,51.0,120,120,4.0,0.0
4438,60.0,120,120,4.0,0.0
4439,63.0,120,120,4.0,0.0
4440,60.0,0,120,4.0,0.0
4441,51.0,82,120,4.0,0.0
4442,72.0,23,202,1.0,0.0
4443,48.0,240,120,4.0,0.0
4444,69.0,117,763,2.0,0.0
4445,39.0,8,952,5.0,0.0
4446,75.0,3,720,1.0,0.0
4447,48.0,120,120,4.0,0.0
4448,51.0,120,120,4.0,0.0
4449,60.0,120,120,4.0,0.0
4450,63.0,120,120,4.0,0.0
4451,61.0,0,120,4.0,0.0
4452,70.0,240,240,1.0,0.0
4453,67.0,0,240,2.0,0.0
4454,51.0,112,120,4.0,0.0
4455,49.0,0,120,4.0,0.0
4456,44.0,98,862,5.0,0.0
4457,68.0,0,480,2.0,0.0
4458,72.0,0,480,1.0,0.0
4459,51.0,120,120,4.0,0.0
4460,56.0,120,120,4.0,0.0
4461,60.0,120,120,4.0,0.0
4462,63.0,240,120,4.0,0.0
4463,68.0,22,240,4.0,0.0
4464,75.0,0,240,1.0,0.0
4465,60.0,240,240,5.0,0.0
4466,63.0,0,120,4.0,0.0
4467,72.0,0,240,1.0,0.0
4468,56.0,0,240,5.0,0.0
4469,60.0,240,120,4.0,0.0
4470,68.0,240,240,1.0,0.0
4471,53.0,0,240,5.0,0.0
4472,56.0,0,120,4.0,0.0
4473,49.0,0,240,5.0,0.0
4474,65.0,0,240,1.0,0.0
4475,53.0,240,120,4.0,0.0
4476,46.0,0,240,5.0,0.0
4477,61.0,0,240,1.0,0.0
4478,49.0,240,120,4.0,0.0
4479,58.0,40,240,1.0,0.0
4480,43.0,0,240,5.0,0.0
4481,46.0,0,120,4.0,0.0
4482,44.0,0,240,5.0,0.0
4483,60.0,40,40,1.0,0.0
4484,61.0,40,40,1.0,0.0
4485,60.0,60,40,1.0,0.0
4486,58.0,60,60,1.0,0.0
4487,48.0,240,120,4.0,0.0
4488,60.0,0,60,1.0,0.0
4489,46.0,240,240,5.0,0.0
4490,61.0,0,240,1.0,0.0
4491,49.0,0,120,4.0,0.0
4492,58.0,0,240,1.0,0.0
4493,43.0,240,240,5.0,0.0
4494,46.0,0,120,4.0,0.0
4495,44.0,0,240,5.0,0.0
4496,60.0,240,240,1.0,0.0
4497,48.0,0,120,4.0,0.0
4498,43.0,240,240,5.0,0.0
4499,63.0,0,240,1.0,0.0
4500,46.0,0,120,4.0,0.0
4501,41.0,202,240,5.0,0.0
4502,68.0,0,240,1.0,0.0
4503,44.0,0,120,4.0,0.0
4504,70.0,38,202,1.0,0.0
4505,40.0,0,240,5.0,0.0
4506,50.0,240,120,4.0,0.0
4507,67.0,233,767,1.0,0.0
4508,39.0,0,960,5.0,0.0
4509,75.0,0,720,1.0,0.0
4510,51.0,120,120,4.0,0.0
4511,55.0,120,120,4.0,0.0
4512,58.0,240,120,4.0,0.0
4513,63.0,0,240,4.0,0.0
4514,67.0,7,120,4.0,0.0
4515,63.0,240,240,5.0,0.0
4516,75.0,210,510,1.0,0.0
4517,66.0,0,120,4.0,0.0
4518,59.0,30,240,5.0,0.0
4519,63.0,0,120,4.0,0.0
4520,71.0,240,240,1.0,0.0
4521,56.0,0,240,5.0,0.0
4522,59.0,0,120,4.0,0.0
4523,52.0,0,240,5.0,0.0
4524,68.0,240,240,1.0,0.0
4525,56.0,0,120,4.0,0.0
4526,49.0,0,240,5.0,0.0
4527,64.0,240,240,1.0,0.0
4528,52.0,0,120,4.0,0.0
4529,61.0,0,240,1.0,0.0
4530,46.0,40,240,5.0,0.0
4531,49.0,0,120,4.0,0.0
4532,47.0,0,240,5.0,0.0
4533,63.0,40,40,1.0,0.0
4534,64.0,40,40,1.0,0.0
4535,63.0,60,40,1.0,0.0
4536,61.0,60,60,1.0,0.0
4537,51.0,0,120,4.0,0.0
4538,63.0,240,60,1.0,0.0
4539,49.0,0,240,5.0,0.0
4540,64.0,0,240,1.0,0.0
4541,52.0,240,120,4.0,0.0
4542,61.0,240,240,1.0,0.0
4543,46.0,0,240,5.0,0.0
4544,49.0,0,120,4.0,0.0
4545,47.0,0,240,5.0,0.0
4546,63.0,0,240,1.0,0.0
4547,51.0,240,120,4.0,0.0
4548,46.0,0,240,5.0,0.0
4549,67.0,96,240,1.0,0.0
4550,49.0,0,120,4.0,0.0
4551,44.0,0,240,5.0,0.0
4552,68.0,120,96,1.0,0.0
4553,47.0,96,120,4.0,0.0
4554,70.0,24,96,1.0,0.0
4555,71.0,110,96,1.0,0.0
4556,40.0,0,240,5.0,0.0
4557,73.0,34,86,1.0,0.0
4558,44.0,240,120,4.0,0.0
4559,68.0,117,763,2.0,0.0
4560,39.0,15,945,5.0,0.0
4561,75.0,0,720,1.0,0.0
4562,48.0,120,120,4.0,0.0
4563,51.0,120,120,4.0,0.0
4564,60.0,120,120,4.0,0.0
4565,63.0,120,120,4.0,0.0
4566,60.0,3,120,4.0,0.0
4567,72.0,23,202,1.0,0.0
4568,51.0,82,120,4.0,0.0
4569,48.0,240,120,4.0,0.0
4570,69.0,117,763,2.0,0.0
4571,75.0,0,720,1.0,0.0
4572,39.0,8,952,5.0,0.0
4573,48.0,120,120,4.0,0.0
4574,51.0,120,120,4.0,0.0
4575,60.0,120,120,4.0,0.0
4576,63.0,120,120,4.0,0.0
4577,61.0,3,120,4.0,0.0
4578,51.0,112,120,4.0,0.0
4579,70.0,240,240,1.0,0.0
4580,67.0,0,240,2.0,0.0
4581,49.0,0,120,4.0,0.0
4582,72.0,120,480,1.0,0.0
4583,44.0,98,862,5.0,0.0
4584,68.0,0,480,2.0,0.0
4585,51.0,120,120,4.0,0.0
4586,56.0,120,120,4.0,0.0
4587,60.0,0,120,4.0,0.0
4588,63.0,240,120,4.0,0.0
4589,68.0,22,240,4.0,0.0
4590,75.0,6,330,3.0,0.0
4591,72.0,90,120,3.0,0.0
4592,72.0,120,96,3.0,0.0
4593,75.0,120,96,3.0,0.0
4594,72.0,0,96,3.0,0.0
4595,75.0,24,96,3.0,0.0
4596,72.0,0,96,3.0,0.0
4597,75.0,24,96,3.0,0.0
4598,72.0,0,96,3.0,0.0
4599,80.0,96,0,1.0,0.0
4600,72.0,0,96,3.0,0.0
4601,78.0,96,360,1.0,0.0
4602,70.0,0,96,3.0,0.0
4603,75.0,120,96,3.0,0.0
4604,70.0,0,96,3.0,0.0
4605,75.0,120,96,3.0,0.0
4606,72.0,0,96,3.0,0.0
4607,70.0,0,96,3.0,0.0
4608,72.0,24,96,3.0,0.0
4609,75.0,0,96,3.0,0.0
4610,70.0,24,96,3.0,0.0
4611,72.0,0,96,3.0,0.0
4612,75.0,0,96,3.0,0.0
4613,78.0,96,120,1.0,0.0
4614,77.0,96,720,1.0,0.0
4615,69.0,0,96,3.0,0.0
4616,75.0,120,96,3.0,0.0
4617,72.0,0,96,3.0,0.0
4618,75.0,120,96,3.0,0.0
4619,69.0,0,96,3.0,0.0
4620,72.0,0,96,3.0,0.0
4621,72.0,0,96,3.0,0.0
4622,69.0,0,96,3.0,0.0
4623,75.0,120,96,3.0,0.0
4624,69.0,0,96,3.0,0.0
4625,75.0,120,96,3.0,0.0
4626,72.0,0,96,3.0,0.0
4627,75.0,120,96,3.0,0.0
4628,67.0,0,96,3.0,0.0
4629,70.0,0,96,3.0,0.0
4630,75.0,24,96,3.0,0.0
4631,70.0,0,96,3.0,0.0
4632,67.0,0,96,3.0,0.0
4633,75.0,120,96,3.0,0.0
4634,70.0,0,96,3.0,0.0
4635,67.0,0,96,3.0,0.0
4636,77.0,96,240,1.0,0.0
4637,70.0,0,96,3.0,0.0
4638,75.0,24,96,3.0,0.0
4639,67.0,0,96,3.0,0.0
4640,75.0,0,96,3.0,0.0
4641,65.0,0,96,3.0,0.0
4642,69.0,120,96,3.0,0.0
4643,77.0,96,240,1.0,0.0
4644,65.0,0,96,3.0,0.0
4645,69.0,0,96,3.0,0.0
4646,75.0,24,96,3.0,0.0
4647,69.0,96,96,3.0,0.0
4648,87.0,24,192,1.0,0.0
4649,75.0,0,96,3.0,0.0
4650,65.0,0,96,3.0,0.0
4651,65.0,0,96,3.0,0.0
4652,69.0,0,96,3.0,0.0
4653,75.0,120,96,3.0,0.0
4654,86.0,96,240,1.0,0.0
4655,69.0,0,96,3.0,0.0
4656,75.0,0,96,3.0,0.0
4657,65.0,120,96,3.0,0.0
4658,75.0,24,96,3.0,0.0
4659,65.0,0,96,3.0,0.0
4660,69.0,0,96,3.0,0.0
4661,84.0,24,192,1.0,0.0
4662,65.0,96,96,3.0,0.0
4663,69.0,0,96,3.0,0.0
4664,75.0,0,96,3.0,0.0
4665,75.0,0,96,3.0,0.0
4666,65.0,0,96,3.0,0.0
4667,69.0,120,96,3.0,0.0
4668,75.0,120,96,3.0,0.0
4669,67.0,0,96,3.0,0.0
4670,70.0,0,96,3.0,0.0
4671,82.0,96,240,1.0,0.0
4672,75.0,0,96,3.0,0.0
4673,67.0,0,96,3.0,0.0
4674,70.0,24,96,3.0,0.0
4675,67.0,120,96,3.0,0.0
4676,79.0,96,240,1.0,0.0
4677,70.0,0,96,3.0,0.0
4678,75.0,0,96,3.0,0.0
4679,67.0,24,96,3.0,0.0
4680,75.0,0,96,3.0,0.0
4681,70.0,0,96,3.0,0.0
4682,75.0,120,96,3.0,0.0
4683,70.0,0,96,3.0,0.0
4684,77.0,96,240,1.0,0.0
4685,70.0,0,96,3.0,0.0
4686,75.0,24,96,3.0,0.0
4687,74.0,24,96,3.0,0.0
4688,70.0,0,96,3.0,0.0
4689,79.0,60,120,1.0,0.0
4690,74.0,3,60,3.0,0.0
4691,70.0,57,63,3.0,0.0
4692,80.0,0,60,1.0,0.0
4693,82.0,96,60,1.0,0.0
4694,75.0,119,937,5.0,0.0
4695,79.0,120,96,3.0,0.0
4696,79.0,120,96,3.0,0.0
4697,82.0,0,96,3.0,0.0
4698,82.0,24,96,3.0,0.0
4699,79.0,0,96,3.0,0.0
4700,87.0,96,0,1.0,0.0
4701,79.0,24,96,3.0,0.0
4702,82.0,0,96,3.0,0.0
4703,82.0,120,96,3.0,0.0
4704,79.0,0,96,3.0,0.0
4705,85.0,108,348,1.0,0.0
4706,79.0,120,96,3.0,0.0
4707,82.0,0,96,3.0,0.0
4708,79.0,12,96,3.0,0.0
4709,82.0,0,96,3.0,0.0
4710,82.0,0,96,3.0,0.0
4711,79.0,0,96,3.0,0.0
4712,85.0,1,96,1.0,0.0
4713,79.0,0,96,3.0,0.0
4714,82.0,120,96,3.0,0.0
4715,82.0,0,96,3.0,0.0
4716,79.0,120,96,3.0,0.0
4717,79.0,24,96,3.0,0.0
4718,82.0,0,96,3.0,0.0
4719,82.0,0,96,3.0,0.0
4720,79.0,24,96,3.0,0.0
4721,64.0,96,0,5.0,0.0
4722,82.0,0,96,3.0,0.0
4723,77.0,120,96,3.0,0.0
4724,77.0,24,96,3.0,0.0
4725,82.0,0,96,3.0,0.0
4726,84.0,96,0,1.0,0.0
4727,82.0,24,96,3.0,0.0
4728,77.0,0,96,3.0,0.0
4729,62.0,96,0,5.0,0.0
4730,77.0,0,96,3.0,0.0
4731,82.0,24,96,3.0,0.0
4732,60.0,24,192,5.0,0.0
4733,82.0,96,96,3.0,0.0
4734,76.0,0,96,3.0,0.0
4735,84.0,96,240,1.0,0.0
4736,82.0,24,96,3.0,0.0
4737,76.0,0,96,3.0,0.0
4738,76.0,1,96,3.0,0.0
4739,60.0,24,192,5.0,0.0
4740,82.0,95,77,3.0,0.0
4741,94.0,96,200,1.0,0.0
4742,82.0,0,96,3.0,0.0
4743,76.0,24,96,3.0,0.0
4744,93.0,96,240,1.0,0.0
4745,82.0,96,96,3.0,0.0
4746,77.0,0,96,3.0,0.0
4747,62.0,24,192,5.0,0.0
4748,82.0,0,96,3.0,0.0
4749,77.0,24,96,3.0,0.0
4750,82.0,0,96,3.0,0.0
4751,64.0,24,192,5.0,0.0
4752,79.0,96,96,3.0,0.0
4753,91.0,96,240,1.0,0.0
4754,82.0,24,96,3.0,0.0
4755,79.0,0,96,3.0,0.0
4756,77.0,120,96,3.0,0.0
4757,82.0,0,96,3.0,0.0
4758,89.0,96,240,1.0,0.0
4759,65.0,0,480,5.0,0.0
4760,77.0,24,96,3.0,0.0
4761,82.0,0,96,3.0,0.0
4762,70.0,0,240,5.0,0.0
4763,77.0,0,96,3.0,0.0
4764,82.0,120,96,3.0,0.0
4765,86.0,96,240,1.0,0.0
4766,82.0,0,96,3.0,0.0
4767,77.0,24,96,3.0,0.0
4768,77.0,0,96,3.0,0.0
4769,82.0,120,96,3.0,0.0
4770,75.0,26,310,5.0,0.0
4771,65.0,0,480,5.0,0.0
4772,84.0,70,240,1.0,0.0
4773,77.0,0,96,3.0,0.0
4774,82.0,24,96,3.0,0.0
4775,81.0,0,96,3.0,0.0
4776,77.0,24,96,3.0,0.0
4777,86.0,40,120,1.0,0.0
4778,74.0,56,80,5.0,0.0
4779,81.0,24,96,3.0,0.0
4780,77.0,0,96,3.0,0.0
4781,87.0,96,120,1.0,0.0
4782,72.0,0,80,5.0,0.0
4783,77.0,96,240,5.0,0.0
4784,82.0,120,96,3.0,0.0
4785,86.0,0,240,1.0,0.0
4786,65.0,0,480,5.0,0.0
4787,82.0,24,96,3.0,0.0
4788,77.0,96,96,3.0,0.0
4789,82.0,24,192,1.0,0.0
4790,74.0,96,240,5.0,0.0
4791,77.0,24,96,3.0,0.0
4792,72.0,80,240,5.0,0.0
4793,82.0,120,96,3.0,0.0
4794,87.0,16,320,1.0,0.0
4795,77.0,0,96,3.0,0.0
4796,82.0,0,96,3.0,0.0
4797,77.0,24,96,3.0,0.0
4798,74.0,40,120,5.0,0.0
4799,77.0,24,96,3.0,0.0
4800,81.0,0,96,3.0,0.0
4801,86.0,56,80,1.0,0.0
4802,75.0,0,120,5.0,0.0
4803,77.0,0,96,3.0,0.0
4804,81.0,24,96,3.0,0.0
4805,84.0,96,80,1.0,0.0
4806,77.0,0,96,3.0,0.0
4807,65.0,0,0,5.0,0.0
4808,73.0,96,240,5.0,0.0
4809,89.0,0,240,1.0,0.0
4810,82.0,120,96,3.0,0.0
4811,82.0,0,96,3.0,0.0
4812,77.0,24,96,3.0,0.0
4813,70.0,0,240,5.0,0.0
4814,85.0,96,240,1.0,0.0
4815,77.0,120,96,3.0,0.0
4816,82.0,0,96,3.0,0.0
4817,82.0,0,96,3.0,0.0
4818,77.0,24,96,3.0,0.0
4819,82.0,0,96,3.0,0.0
4820,77.0,120,96,3.0,0.0
4821,84.0,85,240,1.0,0.0
4822,75.0,11,325,5.0,0.0
4823,77.0,0,96,3.0,0.0
4824,82.0,24,96,3.0,0.0
4825,77.0,24,96,3.0,0.0
4826,85.0,40,120,1.0,0.0
4827,81.0,0,96,3.0,0.0
4828,73.0,56,80,5.0,0.0
4829,77.0,24,96,3.0,0.0
4830,81.0,0,96,3.0,0.0
4831,87.0,0,120,1.0,0.0
4832,72.0,0,80,5.0,0.0
4833,73.0,120,240,5.0,0.0
4834,77.0,0,96,3.0,0.0
4835,85.0,0,240,1.0,0.0
4836,65.0,96,0,5.0,0.0
4837,80.0,120,96,3.0,0.0
4838,77.0,24,96,3.0,0.0
4839,80.0,0,96,3.0,0.0
4840,73.0,120,120,3.0,0.0
4841,68.0,0,240,5.0,0.0
4842,84.0,0,120,1.0,0.0
4843,82.0,0,120,1.0,0.0
4844,73.0,120,120,3.0,0.0
4845,79.0,90,240,1.0,0.0
4846,63.0,0,480,5.0,0.0
4847,70.0,30,330,5.0,0.0
4848,73.0,120,120,3.0,0.0
4849,73.0,0,120,3.0,0.0
4850,73.0,40,120,3.0,0.0
4851,80.0,0,120,1.0,0.0
4852,68.0,80,80,5.0,0.0
4853,82.0,0,120,1.0,0.0
4854,73.0,0,120,3.0,0.0
4855,67.0,120,80,5.0,0.0
4856,68.0,0,240,5.0,0.0
4857,64.0,0,480,5.0,0.0
4858,85.0,120,240,1.0,0.0
4859,73.0,120,120,3.0,0.0
4860,73.0,0,0,3.0,0.0
4861,68.0,0,240,5.0,0.0
4862,80.0,0,240,1.0,0.0
4863,73.0,120,0,3.0,0.0
4864,70.0,35,325,5.0,0.0
4865,73.0,120,0,3.0,0.0
4866,79.0,85,240,1.0,0.0
4867,63.0,0,480,5.0,0.0
4868,73.0,0,120,3.0,0.0
4869,73.0,0,120,3.0,0.0
4870,80.0,40,120,1.0,0.0
4871,68.0,80,80,5.0,0.0
4872,82.0,0,120,1.0,0.0
4873,73.0,0,120,3.0,0.0
4874,67.0,120,80,5.0,0.0
4875,85.0,120,240,1.0,0.0
4876,73.0,120,120,3.0,0.0
4877,64.0,0,480,5.0,0.0
4878,68.0,0,240,5.0,0.0
4879,73.0,0,120,3.0,0.0
4880,80.0,120,240,1.0,0.0
4881,68.0,0,240,5.0,0.0
4882,73.0,120,120,3.0,0.0
4883,73.0,0,120,3.0,0.0
4884,70.0,35,325,5.0,0.0
4885,79.0,0,240,1.0,0.0
4886,63.0,0,480,5.0,0.0
4887,73.0,120,0,3.0,0.0
4888,80.0,40,120,1.0,0.0
4889,73.0,85,0,3.0,0.0
4890,68.0,80,80,5.0,0.0
4891,73.0,0,0,3.0,0.0
4892,82.0,0,120,1.0,0.0
4893,67.0,0,80,5.0,0.0
4894,85.0,120,240,1.0,0.0
4895,73.0,120,0,3.0,0.0
4896,64.0,0,480,5.0,0.0
4897,68.0,0,240,5.0,0.0
4898,73.0,120,0,3.0,0.0
4899,73.0,0,0,3.0,0.0
4900,68.0,0,240,5.0,0.0
4901,80.0,185,240,1.0,0.0
4902,73.0,120,0,3.0,0.0
4903,79.0,0,185,1.0,0.0
4904,63.0,0,185,5.0,0.0
4905,73.0,295,185,3.0,0.0
4906,70.0,0,185,5.0,0.0
4907,72.0,240,240,5.0,0.0
4908,87.0,0,240,1.0,0.0
4909,75.0,0,120,3.0,0.0
4910,84.0,240,240,1.0,0.0
4911,27.0,7,3600,5.0,0.0
4912,39.0,233,3607,5.0,0.0
4913,80.0,0,240,5.0,0.0
4914,76.0,0,120,3.0,0.0
4915,77.0,5,240,5.0,0.0
4916,80.0,235,245,1.0,0.0
4917,72.0,0,120,3.0,0.0
4918,73.0,0,240,5.0,0.0
4919,77.0,240,240,1.0,0.0
4920,70.0,0,120,3.0,0.0
4921,73.0,0,240,1.0,0.0
4922,70.0,0,240,5.0,0.0
4923,65.0,240,120,3.0,0.0
4924,70.0,40,240,1.0,0.0
4925,67.0,0,240,5.0,0.0
4926,63.0,0,120,3.0,0.0
4927,72.0,40,40,1.0,0.0
4928,68.0,0,240,5.0,0.0
4929,73.0,40,40,1.0,0.0
4930,72.0,60,40,1.0,0.0
4931,70.0,60,60,1.0,0.0
4932,63.0,0,120,3.0,0.0
4933,72.0,240,60,1.0,0.0
4934,73.0,0,240,1.0,0.0
4935,70.0,240,240,5.0,0.0
4936,63.0,0,120,3.0,0.0
4937,67.0,240,240,5.0,0.0
4938,70.0,0,240,1.0,0.0
4939,63.0,0,120,3.0,0.0
4940,72.0,0,240,1.0,0.0
4941,68.0,240,240,5.0,0.0
4942,70.0,0,120,3.0,0.0
4943,75.0,240,240,1.0,0.0
4944,67.0,0,240,5.0,0.0
4945,70.0,0,120,3.0,0.0
4946,80.0,202,240,1.0,0.0
4947,65.0,0,240,5.0,0.0
4948,73.0,0,120,3.0,0.0
4949,74.0,0,240,5.0,0.0
4950,82.0,38,202,1.0,0.0
4951,64.0,240,120,5.0,0.0
4952,63.0,5,695,5.0,0.0
4953,75.0,4,336,1.0,0.0
4954,87.0,5,660,1.0,0.0
4955,67.0,116,120,4.0,0.0
4956,70.0,120,120,4.0,0.0
4957,75.0,127,120,4.0,0.0
4958,79.0,88,127,4.0,0.0
4959,82.0,15,105,4.0,0.0
4960,47.0,7,2385,5.0,0.0
4961,35.0,8,2392,5.0,0.0
4962,87.0,0,480,1.0,0.0
4963,78.0,240,120,4.0,0.0
4964,75.0,0,0,5.0,0.0
4965,79.0,0,120,4.0,0.0
4966,83.0,0,240,1.0,0.0
4967,80.0,5,235,5.0,0.0
4968,75.0,240,120,4.0,0.0
4969,76.0,0,240,5.0,0.0
4970,80.0,0,240,1.0,0.0
4971,72.0,240,120,4.0,0.0
4972,73.0,0,240,5.0,0.0
4973,76.0,0,240,1.0,0.0
4974,68.0,240,120,4.0,0.0
4975,70.0,40,240,5.0,0.0
4976,73.0,0,240,1.0,0.0
4977,64.0,0,120,4.0,0.0
4978,75.0,40,40,1.0,0.0
4979,71.0,240,240,5.0,0.0
4980,76.0,40,40,1.0,0.0
4981,75.0,60,40,1.0,0.0
4982,73.0,60,60,1.0,0.0
4983,63.0,0,120,4.0,0.0
4984,75.0,0,60,1.0,0.0
4985,73.0,0,240,5.0,0.0
4986,76.0,240,240,1.0,0.0
4987,61.0,0,120,4.0,0.0
4988,70.0,0,240,5.0,0.0
4989,73.0,225,240,1.0,0.0
4990,65.0,0,120,4.0,0.0
4991,75.0,235,240,1.0,0.0
4992,71.0,0,240,5.0,0.0
4993,63.0,0,120,4.0,0.0
4994,79.0,0,240,1.0,0.0
4995,46.0,0,240,5.0,0.0
4996,34.0,0,240,5.0,0.0
4997,74.0,5,235,5.0,0.0
4998,76.0,96,120,4.0,0.0
4999,44.0,96,240,5.0,0.0
5000,71.0,74,142,2.0,0.0
5001,80.0,46,96,1.0,0.0
5002,32.0,0,240,5.0,0.0
5003,82.0,24,96,1.0,0.0
5004,75.0,0,120,2.0,0.0
5005,83.0,16,96,1.0,0.0
5006,28.0,240,240,5.0,0.0
5007,40.0,0,240,5.0,0.0
5008,80.0,94,112,2.0,0.0
5009,85.0,34,86,1.0,0.0
5010,71.0,0,120,4.0,0.0
5011,72.0,0,720,2.0,0.0
5012,80.0,0,0,2.0,0.0
5013,27.0,15,945,5.0,0.0
5014,87.0,0,680,1.0,0.0
5015,39.0,120,120,4.0,0.0
5016,51.0,120,120,4.0,0.0
5017,56.0,120,120,4.0,0.0
5018,63.0,120,120,4.0,0.0
5019,60.0,120,120,4.0,0.0
5020,80.0,0,0,2.0,0.0
5021,84.0,0,0,1.0,0.0
5022,51.0,105,120,4.0,0.0
5023,39.0,0,120,4.0,0.0
5024,27.0,5,955,5.0,0.0
5025,72.0,240,0,2.0,0.0
5026,81.0,0,720,2.0,0.0
5027,84.0,0,700,1.0,0.0
5028,87.0,4,676,1.0,0.0
5029,39.0,120,120,4.0,0.0
5030,51.0,120,120,4.0,0.0
5031,57.0,120,120,4.0,0.0
5032,63.0,116,120,4.0,0.0
5033,61.0,120,120,4.0,0.0
5034,82.0,240,240,1.0,0.0
5035,79.0,0,240,2.0,0.0
5036,70.0,0,240,2.0,0.0
5037,51.0,115,120,4.0,0.0
5038,39.0,0,120,4.0,0.0
5039,75.0,120,720,2.0,0.0
5040,68.0,0,720,2.0,0.0
5041,32.0,120,840,5.0,0.0
5042,80.0,4,696,2.0,0.0
5043,84.0,8,668,1.0,0.0
5044,39.0,120,120,4.0,0.0
5045,44.0,120,120,4.0,0.0
5046,48.0,120,120,4.0,0.0
5047,51.0,108,120,4.0,0.0
5048,56.0,0,120,4.0,0.0
5049,75.0,240,240,1.0,0.0
5050,60.0,0,120,4.0,0.0
5051,32.0,0,840,5.0,0.0
5052,75.0,0,720,2.0,0.0
5053,68.0,3,720,2.0,0.0
5054,80.0,117,703,2.0,0.0
5055,84.0,4,676,1.0,0.0
5056,39.0,120,120,4.0,0.0
5057,44.0,120,120,4.0,0.0
5058,48.0,120,120,4.0,0.0
5059,51.0,116,120,4.0,0.0
5060,56.0,0,120,4.0,0.0
5061,60.0,120,120,4.0,0.0
5062,75.0,240,240,1.0,0.0
5063,63.0,0,480,2.0,0.0
5064,32.0,0,840,5.0,0.0
5065,72.0,5,460,2.0,0.0
5066,80.0,115,445,1.0,0.0
5067,39.0,120,120,5.0,0.0
5068,44.0,120,120,5.0,0.0
5069,48.0,0,120,5.0,0.0
5070,51.0,96,120,5.0,0.0
5071,68.0,24,96,1.0,0.0
5072,56.0,96,120,5.0,0.0
5073,67.0,0,96,1.0,0.0
5074,60.0,96,120,5.0,0.0
5075,68.0,24,96,1.0,0.0
5076,66.0,0,96,1.0,0.0
5077,68.0,144,96,1.0,0.0
5078,65.0,0,120,2.0,0.0
5079,73.0,120,120,1.0,0.0
5080,37.0,0,240,5.0,0.0
5081,70.0,0,120,2.0,0.0
5082,78.0,120,120,1.0,0.0
5083,58.0,0,120,4.0,0.0
5084,66.0,120,120,5.0,0.0
5085,65.0,0,120,5.0,0.0
5086,56.0,120,120,4.0,0.0
5087,37.0,0,240,5.0,0.0
5088,68.0,0,120,2.0,0.0
5089,77.0,120,120,1.0,0.0
5090,75.0,0,120,1.0,0.0
5091,66.0,120,120,2.0,0.0
5092,63.0,120,120,5.0,0.0
5093,54.0,0,120,4.0,0.0
5094,65.0,120,120,5.0,0.0
5095,56.0,0,120,4.0,0.0
5096,37.0,120,240,5.0,0.0
5097,68.0,0,120,2.0,0.0
5098,77.0,120,120,1.0,0.0
5099,65.0,0,120,2.0,0.0
5100,73.0,0,120,1.0,0.0
5101,53.0,0,120,4.0,0.0
5102,61.0,120,120,5.0,0.0
5103,54.0,120,120,4.0,0.0
5104,63.0,0,120,5.0,0.0
5105,37.0,0,240,5.0,0.0
5106,75.0,0,120,1.0,0.0
5107,66.0,120,120,2.0,0.0
5108,68.0,0,120,1.0,0.0
5109,60.0,221,120,2.0,0.0
5110,56.0,0,221,4.0,0.0
5111,49.0,139,221,4.0,0.0
5112,37.0,120,240,5.0,0.0
5113,73.0,120,120,1.0,0.0
5114,65.0,0,120,2.0,0.0
5115,80.0,0,120,1.0,0.0
5116,71.0,0,120,2.0,0.0
5117,68.0,0,120,5.0,0.0
5118,59.0,120,120,4.0,0.0
5119,66.0,120,120,5.0,0.0
5120,58.0,0,120,4.0,0.0
5121,78.0,0,120,1.0,0.0
5122,37.0,120,240,5.0,0.0
5123,70.0,120,120,2.0,0.0
5124,75.0,0,120,1.0,0.0
5125,66.0,0,120,2.0,0.0
5126,54.0,0,120,4.0,0.0
5127,63.0,120,120,5.0,0.0
5128,56.0,0,120,4.0,0.0
5129,65.0,120,120,5.0,0.0
5130,77.0,0,120,1.0,0.0
5131,68.0,120,120,2.0,0.0
5132,37.0,0,240,5.0,0.0
5133,65.0,120,120,2.0,0.0
5134,73.0,0,120,1.0,0.0
5135,61.0,0,120,5.0,0.0
5136,53.0,120,120,4.0,0.0
5137,54.0,120,120,4.0,0.0
5138,63.0,0,120,5.0,0.0
5139,63.0,0,120,2.0,0.0
5140,72.0,120,120,1.0,0.0
5141,37.0,221,240,5.0,0.0
5142,65.0,0,120,2.0,0.0
5143,73.0,0,120,1.0,0.0
5144,53.0,0,221,4.0,0.0
5145,49.0,139,221,4.0,0.0
5146,56.0,0,201,4.0,0.0
5147,61.0,0,181,4.0,0.0
5148,65.0,120,120,2.0,0.0
5149,37.0,120,240,5.0,0.0
5150,73.0,0,100,1.0,0.0
5151,80.0,0,440,1.0,0.0
5152,70.0,0,120,2.0,0.0
5153,78.0,0,120,1.0,0.0
5154,58.0,120,120,4.0,0.0
5155,66.0,0,120,5.0,0.0
5156,65.0,0,120,5.0,0.0
5157,56.0,120,120,4.0,0.0
5158,37.0,120,240,5.0,0.0
5159,68.0,3,120,2.0,0.0
5160,77.0,117,103,1.0,0.0
5161,80.0,117,443,1.0,0.0
5162,66.0,0,120,2.0,0.0
5163,75.0,0,120,1.0,0.0
5164,63.0,120,120,5.0,0.0
5165,54.0,0,120,4.0,0.0
5166,56.0,3,120,4.0,0.0
5167,65.0,0,120,5.0,0.0
5168,37.0,120,240,5.0,0.0
5169,68.0,3,120,2.0,0.0
5170,77.0,117,103,1.0,0.0
5171,80.0,117,443,1.0,0.0
5172,73.0,0,120,1.0,0.0
5173,65.0,0,120,2.0,0.0
5174,61.0,120,120,5.0,0.0
5175,53.0,0,120,4.0,0.0
5176,63.0,0,120,5.0,0.0
5177,54.0,3,120,4.0,0.0
5178,37.0,0,240,5.0,0.0
5179,66.0,3,120,2.0,0.0
5180,75.0,117,103,1.0,0.0
5181,80.0,135,425,1.0,0.0
5182,60.0,221,120,2.0,0.0
5183,68.0,0,120,1.0,0.0
5184,49.0,4,221,4.0,0.0
5185,56.0,0,221,4.0,0.0
5186,37.0,0,240,5.0,0.0
5187,65.0,0,120,2.0,0.0
5188,73.0,120,120,1.0,0.0
5189,71.0,3,120,2.0,0.0
5190,80.0,117,103,1.0,0.0
5191,85.0,0,83,1.0,0.0
5192,59.0,120,120,4.0,0.0
5193,68.0,0,120,5.0,0.0
5194,58.0,120,120,4.0,0.0
5195,66.0,0,120,5.0,0.0
5196,37.0,0,240,5.0,0.0
5197,78.0,120,120,1.0,0.0
5198,70.0,0,120,2.0,0.0
5199,66.0,3,120,2.0,0.0
5200,75.0,0,103,1.0,0.0
5201,85.0,117,83,1.0,0.0
5202,63.0,0,120,5.0,0.0
5203,54.0,120,120,4.0,0.0
5204,65.0,120,120,5.0,0.0
5205,56.0,0,120,4.0,0.0
5206,68.0,0,120,2.0,0.0
5207,77.0,120,120,1.0,0.0
5208,37.0,0,240,5.0,0.0
5209,65.0,3,120,2.0,0.0
5210,73.0,117,103,1.0,0.0
5211,85.0,0,83,1.0,0.0
5212,53.0,0,120,4.0,0.0
5213,61.0,120,120,5.0,0.0
5214,54.0,0,120,4.0,0.0
5215,63.0,120,120,5.0,0.0
5216,63.0,7,120,2.0,0.0
5217,37.0,221,240,5.0,0.0
5218,72.0,113,107,1.0,0.0
5219,80.0,135,425,1.0,0.0
5220,73.0,0,120,1.0,0.0
5221,65.0,0,120,2.0,0.0
5222,49.0,0,221,4.0,0.0
5223,53.0,4,221,4.0,0.0
5224,56.0,0,201,4.0,0.0
5225,61.0,0,181,4.0,0.0
5226,70.0,0,120,1.0,0.0
5227,61.0,120,120,2.0,0.0
5228,34.0,0,240,5.0,0.0
5229,73.0,0,120,1.0,0.0
5230,65.0,120,120,2.0,0.0
5231,61.0,0,120,5.0,0.0
5232,53.0,120,120,4.0,0.0
5233,63.0,120,120,5.0,0.0
5234,58.0,0,120,4.0,0.0
5235,68.0,120,120,2.0,0.0
5236,77.0,0,120,1.0,0.0
5237,41.0,120,240,5.0,0.0
5238,65.0,0,120,2.0,0.0
5239,72.0,0,120,1.0,0.0
5240,56.0,0,120,4.0,0.0
5241,65.0,120,120,5.0,0.0
5242,53.0,0,120,4.0,0.0
5243,60.0,120,120,5.0,0.0
5244,42.0,0,240,5.0,0.0
5245,70.0,0,120,1.0,0.0
5246,61.0,120,120,2.0,0.0
5247,73.0,120,120,1.0,0.0
5248,66.0,0,120,2.0,0.0
5249,54.0,120,120,4.0,0.0
5250,61.0,0,120,5.0,0.0
5251,58.0,120,120,4.0,0.0
5252,63.0,0,120,5.0,0.0
5253,37.0,0,240,5.0,0.0
5254,68.0,0,120,2.0,0.0
5255,77.0,120,120,1.0,0.0
5256,73.0,0,120,1.0,0.0
5257,65.0,120,120,2.0,0.0
5258,56.0,0,120,4.0,0.0
5259,65.0,99,120,5.0,0.0
5260,53.0,141,99,4.0,0.0
5261,61.0,0,99,5.0,0.0
5262,64.0,0,120,2.0,0.0
5263,37.0,0,240,5.0,0.0
5264,73.0,120,120,1.0,0.0
5265,68.0,0,120,2.0,0.0
5266,76.0,120,120,1.0,0.0
5267,64.0,0,120,5.0,0.0
5268,56.0,120,120,4.0,0.0
5269,68.0,0,120,5.0,0.0
5270,61.0,120,120,4.0,0.0
5271,83.0,0,120,1.0,0.0
5272,75.0,120,120,2.0,0.0
5273,35.0,0,240,5.0,0.0
5274,47.0,120,240,5.0,0.0
5275,71.0,0,120,2.0,0.0
5276,78.0,0,120,1.0,0.0
5277,71.0,0,120,5.0,0.0
5278,63.0,120,120,4.0,0.0
5279,59.0,120,120,4.0,0.0
5280,66.0,0,120,5.0,0.0
5281,71.0,0,120,1.0,0.0
5282,64.0,120,120,2.0,0.0
5283,40.0,120,240,5.0,0.0
5284,52.0,0,240,5.0,0.0
5285,76.0,0,120,1.0,0.0
5286,68.0,0,120,2.0,0.0
5287,64.0,0,120,5.0,0.0
5288,56.0,120,120,4.0,0.0
5289,59.0,120,120,4.0,0.0
5290,68.0,0,120,5.0,0.0
5291,83.0,0,120,1.0,0.0
5292,35.0,0,240,5.0,0.0
5293,47.0,0,240,5.0,0.0
5294,75.0,120,120,2.0,0.0
5295,78.0,120,120,1.0,0.0
5296,71.0,0,120,2.0,0.0
5297,71.0,0,120,5.0,0.0
5298,63.0,102,120,4.0,0.0
5299,59.0,138,102,4.0,0.0
5300,66.0,0,102,5.0,0.0
5301,71.0,120,120,1.0,0.0
5302,40.0,0,240,5.0,0.0
5303,52.0,0,240,5.0,0.0
5304,64.0,0,120,2.0,0.0
5305,68.0,0,120,2.0,0.0
5306,76.0,120,120,1.0,0.0
5307,56.0,0,120,4.0,0.0
5308,64.0,120,120,5.0,0.0
5309,59.0,0,120,4.0,0.0
5310,68.0,120,120,5.0,0.0
5311,75.0,0,120,2.0,0.0
5312,47.0,0,240,5.0,0.0
5313,35.0,0,240,5.0,0.0
5314,83.0,120,120,1.0,0.0
5315,71.0,120,120,2.0,0.0
5316,78.0,0,120,1.0,0.0
5317,71.0,0,120,5.0,0.0
5318,63.0,120,120,4.0,0.0
5319,59.0,120,120,4.0,0.0
5320,66.0,0,120,5.0,0.0
5321,75.0,0,120,2.0,0.0
5322,47.0,0,240,5.0,0.0
5323,81.0,120,120,1.0,0.0
5324,35.0,0,240,5.0,0.0
5325,78.0,120,120,1.0,0.0
5326,69.0,0,120,2.0,0.0
5327,63.0,0,120,4.0,0.0
5328,69.0,120,120,5.0,0.0
5329,59.0,120,120,4.0,0.0
5330,66.0,0,120,5.0,0.0
5331,75.0,0,120,2.0,0.0
5332,48.0,0,240,5.0,0.0
5333,36.0,120,240,5.0,0.0
5334,81.0,120,120,1.0,0.0
5335,69.0,0,120,2.0,0.0
5336,78.0,0,120,1.0,0.0
5337,63.0,120,120,4.0,0.0
5338,69.0,0,120,5.0,0.0
5339,66.0,120,120,5.0,0.0
5340,60.0,0,120,4.0,0.0
5341,75.0,0,120,2.0,0.0
5342,80.0,120,120,1.0,0.0
5343,36.0,0,240,5.0,0.0
5344,48.0,120,240,5.0,0.0
5345,78.0,0,120,1.0,0.0
5346,68.0,0,120,2.0,0.0
5347,63.0,120,120,4.0,0.0
5348,68.0,0,120,5.0,0.0
5349,66.0,0,120,5.0,0.0
5350,56.0,127,120,4.0,0.0
5351,32.0,0,240,5.0,0.0
5352,44.0,0,240,5.0,0.0
5353,72.0,3,240,2.0,0.0
5354,75.0,117,223,1.0,0.0
5355,82.0,113,87,1.0,0.0
5356,80.0,0,120,1.0,0.0
5357,70.0,120,120,5.0,0.0
5358,78.0,0,120,1.0,0.0
5359,73.0,0,120,2.0,0.0
5360,68.0,0,120,5.0,0.0
5361,77.0,0,120,1.0,0.0
5362,72.0,120,0,2.0,0.0
5363,56.0,0,0,5.0,0.0
5364,65.0,0,120,5.0,0.0
5365,74.0,78,120,1.0,0.0
5366,75.0,0,78,1.0,0.0
5367,66.0,27,78,5.0,0.0
5368,73.0,8,27,1.0,0.0
5369,65.0,2,25,5.0,0.0
5370,75.0,8,27,1.0,0.0
5371,66.0,2,25,5.0,0.0
5372,68.0,355,25,5.0,0.0
5373,77.0,0,25,1.0,0.0
5374,75.0,3,360,1.0,0.0
5375,66.0,117,483,5.0,0.0
5376,65.0,0,120,2.0,0.0
5377,73.0,0,0,1.0,0.0
5378,49.0,80,80,3.0,0.0
5379,70.0,0,120,2.0,0.0
5380,51.0,80,80,3.0,0.0
5381,70.0,40,360,2.0,0.0
5382,78.0,0,0,1.0,0.0
5383,49.0,80,80,3.0,0.0
5384,61.0,80,80,3.0,0.0
5385,49.0,80,80,3.0,0.0
5386,51.0,40,80,3.0,0.0
5387,77.0,0,120,1.0,0.0
5388,49.0,80,0,3.0,0.0
5389,70.0,0,600,2.0,0.0
5390,68.0,0,0,2.0,0.0
5391,37.0,120,0,5.0,0.0
5392,77.0,0,120,1.0,0.0
5393,49.0,80,80,3.0,0.0
5394,51.0,0,80,3.0,0.0
5395,66.0,0,0,2.0,0.0
5396,49.0,80,80,3.0,0.0
5397,75.0,80,0,1.0,0.0
5398,61.0,80,80,3.0,0.0
5399,49.0,80,80,3.0,0.0
5400,51.0,40,80,3.0,0.0
5401,49.0,80,80,3.0,0.0
5402,75.0,0,0,1.0,0.0
5403,66.0,40,0,2.0,0.0
5404,49.0,0,80,3.0,0.0
5405,66.0,0,120,2.0,0.0
5406,75.0,40,120,1.0,0.0
5407,49.0,80,80,3.0,0.0
5408,82.0,0,120,1.0,0.0
5409,51.0,80,80,3.0,0.0
5410,49.0,80,80,3.0,0.0
5411,72.0,0,360,2.0,0.0
5412,66.0,3,360,2.0,0.0
5413,75.0,37,343,2.0,0.0
5414,82.0,0,323,1.0,0.0
5415,61.0,80,80,3.0,0.0
5416,49.0,80,80,3.0,0.0
5417,51.0,40,80,3.0,0.0
5418,49.0,80,80,3.0,0.0
5419,65.0,127,120,2.0,0.0
5420,73.0,0,100,2.0,0.0
5421,80.0,0,80,1.0,0.0
5422,49.0,0,80,3.0,0.0
5423,37.0,0,0,5.0,0.0
5424,73.0,77,223,2.0,0.0
5425,80.0,33,87,1.0,0.0
5426,49.0,80,80,3.0,0.0
5427,78.0,0,120,1.0,0.0
5428,51.0,0,80,3.0,0.0
5429,49.0,80,80,3.0,0.0
5430,65.0,0,0,2.0,0.0
5431,70.0,3,0,2.0,0.0
5432,73.0,0,460,2.0,0.0
5433,78.0,44,316,1.0,0.0
5434,61.0,80,80,3.0,0.0
5435,49.0,80,80,3.0,0.0
5436,51.0,36,80,3.0,0.0
5437,49.0,80,80,3.0,0.0
5438,78.0,0,120,1.0,0.0
5439,49.0,0,80,3.0,0.0
5440,70.0,0,240,2.0,0.0
5441,63.0,0,240,2.0,0.0
5442,73.0,77,223,2.0,0.0
5443,78.0,40,80,1.0,0.0
5444,49.0,0,80,3.0,0.0
5445,80.0,80,80,1.0,0.0
5446,51.0,0,80,3.0,0.0
5447,82.0,3,80,1.0,0.0
5448,49.0,80,80,3.0,0.0
5449,63.0,0,480,2.0,0.0
5450,68.0,4,456,2.0,0.0
5451,72.0,33,327,1.0,0.0
5452,61.0,80,80,3.0,0.0
5453,49.0,80,80,3.0,0.0
5454,51.0,47,80,3.0,0.0
5455,80.0,120,120,1.0,0.0
5456,49.0,76,0,3.0,0.0
5457,63.0,0,240,2.0,0.0
5458,70.0,0,240,2.0,0.0
5459,37.0,0,0,5.0,0.0
5460,73.0,73,227,2.0,0.0
5461,78.0,40,80,1.0,0.0
5462,49.0,80,80,3.0,0.0
5463,80.0,0,80,1.0,0.0
5464,82.0,7,80,1.0,0.0
5465,51.0,0,80,3.0,0.0
5466,49.0,80,80,3.0,0.0
5467,68.0,117,463,2.0,0.0
5468,72.0,37,323,1.0,0.0
5469,61.0,80,80,3.0,0.0
5470,49.0,80,80,3.0,0.0
5471,51.0,43,80,3.0,0.0
5472,80.0,0,120,1.0,0.0
5473,49.0,80,0,3.0,0.0
5474,37.0,0,720,5.0,0.0
5475,63.0,3,0,2.0,0.0
5476,70.0,3,240,2.0,0.0
5477,73.0,77,223,2.0,0.0
5478,78.0,40,80,1.0,0.0
5479,80.0,80,80,1.0,0.0
5480,49.0,0,80,3.0,0.0
5481,82.0,0,80,1.0,0.0
5482,51.0,0,80,3.0,0.0
5483,49.0,80,80,3.0,0.0
5484,63.0,160,480,2.0,0.0
5485,68.0,4,456,2.0,0.0
5486,72.0,76,360,1.0,0.0
5487,61.0,80,80,3.0,0.0
5488,49.0,80,80,3.0,0.0
5489,51.0,80,80,3.0,0.0
5490,49.0,0,80,3.0,0.0
5491,80.0,0,120,1.0,0.0
5492,49.0,0,80,3.0,0.0
5493,37.0,0,720,5.0,0.0
5494,66.0,0,240,2.0,0.0
5495,60.0,3,240,2.0,0.0
5496,68.0,3,217,2.0,0.0
5497,75.0,77,203,1.0,0.0
5498,49.0,77,80,3.0,0.0
5499,51.0,0,80,3.0,0.0
5500,61.0,141,96,3.0,0.0
5501,49.0,16,80,3.0,0.0
5502,68.0,3,237,2.0,0.0
5503,73.0,0,217,2.0,0.0
5504,77.0,77,203,1.0,0.0
5505,49.0,3,80,3.0,0.0
5506,51.0,80,80,3.0,0.0
5507,63.0,0,240,2.0,0.0
5508,72.0,0,220,2.0,0.0
5509,78.0,0,200,1.0,0.0
5510,49.0,80,0,3.0,0.0
5511,68.0,0,0,2.0,0.0
5512,37.0,65,655,5.0,0.0
5513,61.0,15,305,2.0,0.0
5514,73.0,75,465,2.0,0.0
5515,77.0,0,440,1.0,0.0
5516,49.0,80,80,3.0,0.0
5517,51.0,65,80,3.0,0.0
5518,49.0,80,80,3.0,0.0
5519,61.0,80,80,3.0,0.0
5520,49.0,0,80,3.0,0.0
5521,51.0,80,80,3.0,0.0
5522,49.0,15,0,3.0,0.0
5523,70.0,0,120,1.0,0.0
5524,61.0,120,120,2.0,0.0
5525,34.0,120,240,5.0,0.0
5526,73.0,0,120,1.0,0.0
5527,65.0,0,120,2.0,0.0
5528,53.0,120,120,4.0,0.0
5529,61.0,0,120,5.0,0.0
5530,63.0,0,120,5.0,0.0
5531,58.0,120,120,4.0,0.0
5532,41.0,120,240,5.0,0.0
5533,77.0,0,120,1.0,0.0
5534,68.0,120,120,2.0,0.0
5535,72.0,0,120,1.0,0.0
5536,65.0,0,120,2.0,0.0
5537,56.0,0,120,4.0,0.0
5538,65.0,120,120,5.0,0.0
5539,53.0,0,120,4.0,0.0
5540,60.0,120,120,5.0,0.0
5541,42.0,120,240,5.0,0.0
5542,61.0,120,120,2.0,0.0
5543,70.0,0,120,1.0,0.0
5544,73.0,0,120,1.0,0.0
5545,66.0,0,120,2.0,0.0
5546,61.0,120,120,5.0,0.0
5547,54.0,0,120,4.0,0.0
5548,58.0,0,120,4.0,0.0
5549,63.0,120,120,5.0,0.0
5550,68.0,120,120,2.0,0.0
5551,77.0,0,120,1.0,0.0
5552,37.0,0,240,5.0,0.0
5553,73.0,120,120,1.0,0.0
5554,65.0,0,120,2.0,0.0
5555,56.0,99,120,4.0,0.0
5556,65.0,0,120,5.0,0.0
5557,61.0,0,99,5.0,0.0
5558,53.0,141,99,4.0,0.0
5559,64.0,120,120,2.0,0.0
5560,73.0,0,120,1.0,0.0
5561,37.0,120,240,5.0,0.0
5562,76.0,0,120,1.0,0.0
5563,68.0,0,120,2.0,0.0
5564,64.0,0,120,5.0,0.0
5565,56.0,120,120,4.0,0.0
5566,61.0,120,120,4.0,0.0
5567,68.0,0,120,5.0,0.0
5568,47.0,120,240,5.0,0.0
5569,75.0,120,120,2.0,0.0
5570,35.0,0,240,5.0,0.0
5571,83.0,0,120,1.0,0.0
5572,78.0,0,120,1.0,0.0
5573,71.0,0,120,2.0,0.0
5574,71.0,0,120,5.0,0.0
5575,63.0,120,120,4.0,0.0
5576,66.0,120,120,5.0,0.0
5577,59.0,0,120,4.0,0.0
5578,71.0,0,120,1.0,0.0
5579,52.0,0,240,5.0,0.0
5580,64.0,120,120,2.0,0.0
5581,40.0,0,240,5.0,0.0
5582,68.0,120,120,2.0,0.0
5583,76.0,0,120,1.0,0.0
5584,56.0,120,120,4.0,0.0
5585,64.0,0,120,5.0,0.0
5586,68.0,120,120,5.0,0.0
5587,59.0,0,120,4.0,0.0
5588,83.0,120,120,1.0,0.0
5589,75.0,0,120,2.0,0.0
5590,35.0,120,240,5.0,0.0
5591,47.0,0,240,5.0,0.0
5592,71.0,0,120,2.0,0.0
5593,78.0,0,120,1.0,0.0
5594,71.0,102,120,5.0,0.0
5595,63.0,0,120,4.0,0.0
5596,66.0,138,102,5.0,0.0
5597,59.0,0,102,4.0,0.0
5598,40.0,0,240,5.0,0.0
5599,52.0,0,240,5.0,0.0
5600,71.0,120,120,1.0,0.0
5601,64.0,0,120,2.0,0.0
5602,68.0,120,120,2.0,0.0
5603,76.0,0,120,1.0,0.0
5604,56.0,120,120,4.0,0.0
5605,64.0,0,120,5.0,0.0
5606,68.0,0,120,5.0,0.0
5607,59.0,120,120,4.0,0.0
5608,35.0,0,240,5.0,0.0
5609,47.0,120,240,5.0,0.0
5610,83.0,120,120,1.0,0.0
5611,75.0,0,120,2.0,0.0
5612,78.0,0,120,1.0,0.0
5613,71.0,0,120,2.0,0.0
5614,71.0,120,120,5.0,0.0
5615,63.0,0,120,4.0,0.0
5616,66.0,120,120,5.0,0.0
5617,59.0,0,120,4.0,0.0
5618,35.0,0,240,5.0,0.0
5619,75.0,120,120,2.0,0.0
5620,47.0,120,240,5.0,0.0
5621,81.0,0,120,1.0,0.0
5622,78.0,0,120,1.0,0.0
5623,69.0,0,120,2.0,0.0
5624,69.0,0,120,5.0,0.0
5625,63.0,120,120,4.0,0.0
5626,59.0,0,120,4.0,0.0
5627,66.0,120,120,5.0,0.0
5628,81.0,0,120,1.0,0.0
5629,75.0,120,120,2.0,0.0
5630,48.0,0,240,5.0,0.0
5631,36.0,0,240,5.0,0.0
5632,78.0,0,120,1.0,0.0
5633,69.0,120,120,2.0,0.0
5634,63.0,120,120,4.0,0.0
5635,69.0,0,120,5.0,0.0
5636,66.0,120,120,5.0,0.0
5637,60.0,0,120,4.0,0.0
5638,75.0,120,120,2.0,0.0
5639,80.0,0,120,1.0,0.0
5640,48.0,0,240,5.0,0.0
5641,36.0,0,240,5.0,0.0
5642,78.0,120,120,1.0,0.0
5643,68.0,0,120,2.0,0.0
5644,68.0,120,120,5.0,0.0
5645,63.0,0,120,4.0,0.0
5646,66.0,123,120,5.0,0.0
5647,56.0,0,120,4.0,0.0
5648,32.0,0,240,5.0,0.0
5649,72.0,0,240,2.0,0.0
5650,44.0,0,240,5.0,0.0
5651,75.0,120,220,1.0,0.0
5652,82.0,117,83,1.0,0.0
5653,80.0,0,120,1.0,0.0
5654,73.0,0,120,2.0,0.0
5655,78.0,0,120,1.0,0.0
5656,70.0,120,120,5.0,0.0
5657,36.0,0,240,5.0,0.0
5658,72.0,0,120,2.0,0.0
5659,68.0,120,120,5.0,0.0
5660,77.0,0,120,1.0,0.0
5661,56.0,3,720,5.0,0.0
5662,74.0,78,120,1.0,0.0
5663,65.0,0,120,5.0,0.0
5664,72.0,117,603,2.0,0.0
5665,75.0,0,78,1.0,0.0
5666,66.0,29,78,5.0,0.0
5667,65.0,5,27,5.0,0.0
5668,73.0,3,32,1.0,0.0
5669,66.0,0,25,5.0,0.0
5670,75.0,10,25,1.0,0.0
5671,77.0,355,25,1.0,0.0
5672,68.0,0,25,5.0,0.0
5673,66.0,117,483,5.0,0.0
5674,75.0,3,360,1.0,0.0
5675,73.0,0,120,1.0,0.0
5676,65.0,0,120,2.0,0.0
5677,73.0,40,120,1.0,0.0
5678,37.0,0,720,5.0,0.0
5679,49.0,80,80,3.0,0.0
5680,70.0,0,120,2.0,0.0
5681,78.0,0,120,1.0,0.0
5682,51.0,80,80,3.0,0.0
5683,78.0,40,360,1.0,0.0
5684,49.0,80,80,3.0,0.0
5685,70.0,0,360,2.0,0.0
5686,61.0,80,80,3.0,0.0
5687,49.0,80,80,3.0,0.0
5688,51.0,40,80,3.0,0.0
5689,49.0,80,80,3.0,0.0
5690,77.0,120,120,1.0,0.0
5691,49.0,0,80,3.0,0.0
5692,37.0,120,720,5.0,0.0
5693,68.0,0,0,2.0,0.0
5694,77.0,40,120,1.0,0.0
5695,49.0,80,80,3.0,0.0
5696,75.0,0,120,1.0,0.0
5697,51.0,0,80,3.0,0.0
5698,66.0,0,0,2.0,0.0
5699,70.0,80,0,2.0,0.0
5700,49.0,80,80,3.0,0.0
5701,61.0,80,80,3.0,0.0
5702,49.0,80,80,3.0,0.0
5703,51.0,40,80,3.0,0.0
5704,75.0,0,0,1.0,0.0
5705,70.0,0,120,2.0,0.0
5706,66.0,0,120,2.0,0.0
5707,49.0,80,0,3.0,0.0
5708,72.0,0,120,2.0,0.0
5709,75.0,0,0,1.0,0.0
5710,66.0,40,120,2.0,0.0
5711,37.0,0,720,5.0,0.0
5712,49.0,77,80,3.0,0.0
5713,82.0,3,117,1.0,0.0
5714,51.0,80,80,3.0,0.0
5715,66.0,0,360,2.0,0.0
5716,72.0,0,360,2.0,0.0
5717,49.0,80,80,3.0,0.0
5718,75.0,6,334,2.0,0.0
5719,82.0,40,320,1.0,0.0
5720,61.0,80,80,3.0,0.0
5721,49.0,80,80,3.0,0.0
5722,51.0,34,80,3.0,0.0
5723,65.0,0,120,2.0,0.0
5724,73.0,0,100,2.0,0.0
5725,49.0,77,0,3.0,0.0
5726,80.0,3,77,1.0,0.0
5727,65.0,0,240,2.0,0.0
5728,37.0,0,720,5.0,0.0
5729,70.0,80,240,2.0,0.0
5730,73.0,3,217,2.0,0.0
5731,80.0,34,86,1.0,0.0
5732,49.0,77,80,3.0,0.0
5733,79.0,0,120,1.0,0.0
5734,51.0,0,80,3.0,0.0
5735,49.0,80,80,3.0,0.0
5736,65.0,0,480,2.0,0.0
5737,73.0,3,457,2.0,0.0
5738,79.0,43,317,1.0,0.0
5739,61.0,80,80,3.0,0.0
5740,49.0,80,80,3.0,0.0
5741,51.0,37,80,3.0,0.0
5742,49.0,77,80,3.0,0.0
5743,79.0,0,120,1.0,0.0
5744,49.0,120,80,3.0,0.0
5745,39.0,155,245,5.0,0.0
5746,63.0,0,240,2.0,0.0
5747,70.0,0,0,2.0,0.0
5748,73.0,0,220,2.0,0.0
5749,79.0,40,80,1.0,0.0
5750,51.0,0,80,3.0,0.0
5751,80.0,80,80,1.0,0.0
5752,53.0,5,80,3.0,0.0
5753,82.0,0,80,1.0,0.0
5754,44.0,5,475,5.0,0.0
5755,63.0,0,480,2.0,0.0
5756,68.0,0,460,2.0,0.0
5757,72.0,75,360,1.0,0.0
5758,51.0,80,80,3.0,0.0
5759,53.0,80,80,3.0,0.0
5760,51.0,80,80,3.0,0.0
5761,53.0,0,80,3.0,0.0
5762,80.0,0,120,1.0,0.0
5763,51.0,120,80,3.0,0.0
5764,39.0,155,245,5.0,0.0
5765,70.0,0,240,2.0,0.0
5766,73.0,2,223,2.0,0.0
5767,79.0,40,80,1.0,0.0
5768,80.0,0,80,1.0,0.0
5769,51.0,80,80,3.0,0.0
5770,82.0,0,80,1.0,0.0
5771,53.0,0,80,3.0,0.0
5772,63.0,3,0,2.0,0.0
5773,44.0,115,485,5.0,0.0
5774,68.0,0,460,2.0,0.0
5775,72.0,80,360,1.0,0.0
5776,51.0,80,80,3.0,0.0
5777,53.0,80,80,3.0,0.0
5778,51.0,80,80,3.0,0.0
5779,53.0,0,80,3.0,0.0
5780,80.0,5,120,1.0,0.0
5781,51.0,0,80,3.0,0.0
5782,70.0,0,240,2.0,0.0
5783,63.0,0,0,2.0,0.0
5784,39.0,155,245,5.0,0.0
5785,73.0,0,220,2.0,0.0
5786,79.0,40,80,1.0,0.0
5787,80.0,80,80,1.0,0.0
5788,51.0,0,80,3.0,0.0
5789,53.0,5,80,3.0,0.0
5790,82.0,0,80,1.0,0.0
5791,63.0,0,480,2.0,0.0
5792,44.0,0,480,5.0,0.0
5793,68.0,4,456,2.0,0.0
5794,72.0,76,360,1.0,0.0
5795,51.0,80,80,3.0,0.0
5796,53.0,80,80,3.0,0.0
5797,51.0,80,80,3.0,0.0
5798,53.0,0,80,3.0,0.0
5799,80.0,160,120,1.0,0.0
5800,51.0,0,80,3.0,0.0
5801,60.0,0,192,2.0,0.0
5802,66.0,3,192,2.0,0.0
5803,37.0,0,720,5.0,0.0
5804,68.0,45,175,2.0,0.0
5805,75.0,0,155,1.0,0.0
5806,49.0,32,80,3.0,0.0
5807,51.0,80,80,3.0,0.0
5808,61.0,2,205,2.0,0.0
5809,68.0,0,207,2.0,0.0
5810,49.0,80,80,3.0,0.0
5811,73.0,4,181,2.0,0.0
5812,77.0,33,167,1.0,0.0
5813,61.0,41,80,3.0,0.0
5814,49.0,80,80,3.0,0.0
5815,51.0,80,80,3.0,0.0
5816,68.0,0,192,2.0,0.0
5817,63.0,0,192,2.0,0.0
5818,72.0,48,172,2.0,0.0
5819,78.0,3,149,1.0,0.0
5820,49.0,29,80,3.0,0.0
5821,51.0,160,80,3.0,0.0
5822,68.0,0,480,2.0,0.0
5823,37.0,160,720,5.0,0.0
5824,61.0,2,475,2.0,0.0
5825,73.0,3,457,2.0,0.0
5826,77.0,77,443,1.0,0.0
5827,49.0,80,80,3.0,0.0
5828,51.0,80,80,3.0,0.0
5829,49.0,80,80,3.0,0.0
5830,61.0,75,80,3.0,0.0
5831,49.0,3,80,3.0,0.0
5832,51.0,80,80,3.0,0.0
5833,49.0,80,80,3.0,0.0
5834,51.0,0,80,3.0,0.0
5835,66.0,0,192,2.0,0.0
5836,60.0,0,192,2.0,0.0
5837,68.0,6,172,2.0,0.0
5838,75.0,42,158,1.0,0.0
5839,49.0,32,80,3.0,0.0
5840,51.0,80,80,3.0,0.0
5841,61.0,45,195,2.0,0.0
5842,68.0,0,192,2.0,0.0
5843,49.0,80,80,3.0,0.0
5844,73.0,3,172,2.0,0.0
5845,76.0,3,149,1.0,0.0
5846,61.0,29,80,3.0,0.0
5847,49.0,80,80,3.0,0.0
5848,68.0,0,192,2.0,0.0
5849,63.0,0,192,2.0,0.0
5850,51.0,80,80,3.0,0.0
5851,72.0,0,172,2.0,0.0
5852,78.0,48,152,1.0,0.0
5853,49.0,32,80,3.0,0.0
5854,51.0,0,80,3.0,0.0
5855,61.0,20,300,2.0,0.0
5856,37.0,160,0,5.0,0.0
5857,68.0,0,480,2.0,0.0
5858,73.0,3,457,2.0,0.0
5859,76.0,0,440,1.0,0.0
5860,49.0,80,80,3.0,0.0
5861,51.0,60,80,3.0,0.0
5862,49.0,80,80,3.0,0.0
5863,61.0,77,80,3.0,0.0
5864,49.0,80,80,3.0,0.0
5865,51.0,80,80,3.0,0.0
5866,49.0,80,80,3.0,0.0
5867,51.0,0,80,3.0,0.0
5868,68.0,0,192,2.0,0.0
5869,70.0,0,192,2.0,0.0
5870,64.0,48,192,2.0,0.0
5871,37.0,160,0,5.0,0.0
5872,73.0,3,149,1.0,0.0
5873,49.0,29,80,3.0,0.0
5874,51.0,80,80,3.0,0.0
5875,68.0,48,192,2.0,0.0
5876,63.0,0,192,2.0,0.0
5877,49.0,80,80,3.0,0.0
5878,72.0,0,172,2.0,0.0
5879,75.0,0,152,1.0,0.0
5880,61.0,32,80,3.0,0.0
5881,49.0,80,80,3.0,0.0
5882,68.0,48,192,2.0,0.0
5883,61.0,0,192,2.0,0.0
5884,51.0,80,80,3.0,0.0
5885,73.0,3,169,2.0,0.0
5886,76.0,0,149,1.0,0.0
5887,49.0,29,80,3.0,0.0
5888,51.0,160,80,3.0,0.0
5889,39.0,0,1920,5.0,0.0
5890,63.0,75,945,2.0,0.0
5891,68.0,70,1440,2.0,0.0
5892,70.0,0,1440,1.0,0.0
5893,51.0,80,80,3.0,0.0
5894,52.0,153,80,3.0,0.0
5895,51.0,77,153,3.0,0.0
5896,63.0,74,150,3.0,0.0
5897,51.0,81,144,3.0,0.0
5898,63.0,95,145,3.0,0.0
5899,51.0,75,160,3.0,0.0
5900,63.0,80,155,3.0,0.0
5901,51.0,70,155,4.0,0.0
5902,63.0,65,220,4.0,0.0
5903,51.0,110,205,4.0,0.0
5904,62.0,70,235,5.0,0.0
5905,63.0,90,225,4.0,0.0
5906,51.0,80,235,4.0,0.0
5907,61.0,5,235,5.0,0.0
5908,63.0,90,230,4.0,0.0
5909,51.0,80,240,4.0,0.0
5910,60.0,0,240,5.0,0.0
5911,75.0,75,240,1.0,0.0
5912,63.0,75,235,4.0,0.0
5913,51.0,90,230,4.0,0.0
5914,72.0,70,240,1.0,0.0
5915,56.0,0,240,5.0,0.0
5916,63.0,80,230,4.0,0.0
5917,51.0,90,230,4.0,0.0
5918,53.0,0,240,5.0,0.0
5919,68.0,75,240,1.0,0.0
5920,63.0,80,235,4.0,0.0
5921,51.0,80,235,4.0,0.0
5922,65.0,80,240,1.0,0.0
5923,49.0,5,235,5.0,0.0
5924,63.0,75,240,4.0,0.0
5925,51.0,80,235,4.0,0.0
5926,61.0,70,240,1.0,0.0
5927,46.0,5,235,5.0,0.0
5928,63.0,85,230,4.0,0.0
5929,51.0,80,235,4.0,0.0
5930,43.0,5,235,5.0,0.0
5931,58.0,40,240,1.0,0.0
5932,63.0,10,230,4.0,0.0
5933,51.0,25,235,4.0,0.0
5934,60.0,30,40,1.0,0.0
5935,44.0,5,235,5.0,0.0
5936,61.0,40,40,1.0,0.0
5937,63.0,95,225,4.0,0.0
5938,60.0,35,40,1.0,0.0
5939,58.0,55,60,1.0,0.0
5940,60.0,65,60,1.0,0.0
5941,46.0,10,230,5.0,0.0
5942,61.0,65,240,1.0,0.0
5943,63.0,90,225,4.0,0.0
5944,51.0,70,0,4.0,0.0
5945,58.0,70,240,1.0,0.0
5946,55.0,5,235,5.0,0.0
5947,63.0,85,230,4.0,0.0
5948,51.0,75,235,4.0,0.0
5949,60.0,67,240,1.0,0.0
5950,56.0,10,230,5.0,0.0
5951,63.0,88,227,4.0,0.0
5952,51.0,80,235,4.0,0.0
5953,63.0,75,240,1.0,0.0
5954,55.0,5,235,5.0,0.0
5955,63.0,80,235,4.0,0.0
5956,51.0,80,235,4.0,0.0
5957,53.0,5,235,5.0,0.0
5958,68.0,70,240,1.0,0.0
5959,63.0,85,230,4.0,0.0
5960,51.0,85,235,4.0,0.0
5961,70.0,0,240,1.0,0.0
5962,52.0,80,240,5.0,0.0
5963,67.0,70,285,2.0,0.0
5964,75.0,0,720,1.0,0.0
5965,63.0,0,0,4.0,0.0
5966,51.0,60,735,5.0,0.0
5967,51.0,75,0,4.0,0.0
5968,63.0,80,155,4.0,0.0
5969,51.0,85,155,4.0,0.0
5970,66.0,15,480,2.0,0.0
5971,51.0,85,155,4.0,0.0
5972,63.0,75,0,4.0,0.0
5973,51.0,5,155,4.0,0.0
5974,63.0,75,0,4.0,0.0
5975,47.0,47,433,5.0,0.0
5976,66.0,70,240,2.0,0.0
5977,75.0,80,480,1.0,0.0
5978,63.0,85,230,4.0,0.0
5979,51.0,38,235,4.0,0.0
5980,67.0,0,480,2.0,0.0
5981,51.0,85,235,4.0,0.0
5982,71.0,0,240,1.0,0.0
5983,47.0,80,240,5.0,0.0
5984,63.0,75,0,4.0,0.0
5985,51.0,80,240,4.0,0.0
5986,68.0,80,240,1.0,0.0
5987,47.0,0,240,5.0,0.0
5988,64.0,70,240,4.0,0.0
5989,52.0,90,230,4.0,0.0
5990,64.0,0,240,1.0,0.0
5991,61.0,90,235,4.0,0.0
5992,52.0,75,245,4.0,0.0
5993,47.0,75,0,5.0,0.0
5994,61.0,40,240,1.0,0.0
5995,58.0,40,240,4.0,0.0
5996,51.0,25,235,4.0,0.0
5997,63.0,40,40,1.0,0.0
5998,47.0,85,240,5.0,0.0
5999,64.0,0,40,1.0,0.0
6000,63.0,35,40,1.0,0.0
6001,59.0,75,245,4.0,0.0
6002,61.0,60,60,1.0,0.0
6003,51.0,80,240,4.0,0.0
6004,63.0,0,60,1.0,0.0
6005,64.0,85,240,1.0,0.0
6006,47.0,0,240,5.0,0.0
6007,61.0,75,245,4.0,0.0
6008,52.0,80,240,4.0,0.0
6009,61.0,80,240,1.0,0.0
6010,58.0,80,240,4.0,0.0
6011,49.0,80,240,4.0,0.0
6012,63.0,80,240,1.0,0.0
6013,47.0,0,0,5.0,0.0
6014,59.0,80,240,4.0,0.0
6015,51.0,80,240,4.0,0.0
6016,46.0,80,240,5.0,0.0
6017,67.0,0,240,1.0,0.0
6018,61.0,16,240,4.0,0.0
6019,52.0,56,240,4.0,0.0
6020,44.0,80,240,5.0,0.0
6021,68.0,64,96,1.0,0.0
6022,59.0,16,240,4.0,0.0
6023,70.0,24,96,1.0,0.0
6024,51.0,61,235,4.0,0.0
6025,40.0,160,240,5.0,0.0
6026,71.0,59,96,1.0,0.0
6027,56.0,5,155,4.0,0.0
6028,73.0,19,96,1.0,0.0
6029,52.0,0,80,4.0,0.0
6030,68.0,5,755,2.0,0.0
6031,39.0,20,940,5.0,0.0
6032,75.0,80,720,1.0,0.0
6033,51.0,80,80,4.0,0.0
6034,60.0,80,80,4.0,0.0
6035,63.0,80,80,4.0,0.0
6036,60.0,80,80,4.0,0.0
6037,51.0,80,80,4.0,0.0
6038,63.0,80,80,4.0,0.0
6039,60.0,75,80,4.0,0.0
6040,51.0,0,80,4.0,0.0
6041,72.0,10,210,1.0,0.0
6042,63.0,80,80,4.0,0.0
6043,60.0,50,80,4.0,0.0
6044,51.0,160,80,4.0,0.0
6045,69.0,10,750,2.0,0.0
6046,75.0,80,720,1.0,0.0
6047,39.0,10,950,5.0,0.0
6048,51.0,80,80,4.0,0.0
6049,60.0,80,80,4.0,0.0
6050,63.0,80,80,4.0,0.0
6051,60.0,80,80,4.0,0.0
6052,51.0,80,80,4.0,0.0
6053,63.0,80,80,4.0,0.0
6054,60.0,70,80,4.0,0.0
6055,51.0,0,80,4.0,0.0
6056,67.0,160,240,2.0,0.0
6057,63.0,80,80,4.0,0.0
6058,70.0,0,240,1.0,0.0
6059,61.0,70,80,4.0,0.0
6060,51.0,0,80,4.0,0.0
6061,32.0,5,835,5.0,0.0
6062,68.0,120,480,2.0,0.0
6063,72.0,0,480,1.0,0.0
6064,39.0,80,80,4.0,0.0
6065,44.0,80,80,4.0,0.0
6066,48.0,80,80,4.0,0.0
6067,51.0,80,80,4.0,0.0
6068,56.0,0,80,4.0,0.0
6069,60.0,120,120,4.0,0.0
6070,63.0,115,120,4.0,0.0
6071,68.0,120,120,4.0,0.0
6072,75.0,3,333,3.0,0.0
6073,72.0,93,120,4.0,0.0
6074,72.0,120,96,3.0,0.0
6075,75.0,120,96,3.0,0.0
6076,72.0,0,96,3.0,0.0
6077,72.0,24,96,3.0,0.0
6078,75.0,0,96,3.0,0.0
6079,75.0,0,96,3.0,0.0
6080,72.0,24,96,3.0,0.0
6081,80.0,96,0,1.0,0.0
6082,70.0,120,96,3.0,0.0
6083,75.0,0,96,3.0,0.0
6084,72.0,0,96,3.0,0.0
6085,78.0,96,360,1.0,0.0
6086,72.0,0,96,3.0,0.0
6087,70.0,0,96,3.0,0.0
6088,75.0,120,96,3.0,0.0
6089,70.0,0,96,3.0,0.0
6090,75.0,0,96,3.0,0.0
6091,72.0,24,96,3.0,0.0
6092,78.0,96,120,1.0,0.0
6093,70.0,24,96,3.0,0.0
6094,75.0,0,96,3.0,0.0
6095,72.0,0,96,3.0,0.0
6096,72.0,120,96,3.0,0.0
6097,77.0,96,720,1.0,0.0
6098,69.0,0,96,3.0,0.0
6099,75.0,0,96,3.0,0.0
6100,72.0,120,96,3.0,0.0
6101,69.0,0,96,3.0,0.0
6102,75.0,0,96,3.0,0.0
6103,69.0,0,96,3.0,0.0
6104,72.0,0,96,3.0,0.0
6105,75.0,120,96,3.0,0.0
6106,69.0,120,96,3.0,0.0
6107,72.0,0,96,3.0,0.0
6108,75.0,0,96,3.0,0.0
6109,75.0,0,96,3.0,0.0
6110,70.0,0,96,3.0,0.0
6111,67.0,120,96,3.0,0.0
6112,75.0,0,96,3.0,0.0
6113,70.0,24,96,3.0,0.0
6114,67.0,0,96,3.0,0.0
6115,75.0,0,96,3.0,0.0
6116,67.0,120,96,3.0,0.0
6117,70.0,0,96,3.0,0.0
6118,67.0,0,96,3.0,0.0
6119,75.0,0,96,3.0,0.0
6120,70.0,24,96,3.0,0.0
6121,65.0,0,96,3.0,0.0
6122,69.0,120,96,3.0,0.0
6123,75.0,0,96,3.0,0.0
6124,77.0,96,0,1.0,0.0
6125,65.0,0,96,3.0,0.0
6126,75.0,24,96,3.0,0.0
6127,69.0,0,96,3.0,0.0
6128,87.0,24,192,1.0,0.0
6129,69.0,96,96,3.0,0.0
6130,75.0,0,96,3.0,0.0
6131,65.0,0,96,3.0,0.0
6132,75.0,120,96,3.0,0.0
6133,65.0,0,96,3.0,0.0
6134,69.0,0,96,3.0,0.0
6135,65.0,120,96,3.0,0.0
6136,69.0,0,96,3.0,0.0
6137,75.0,0,96,3.0,0.0
6138,86.0,96,240,1.0,0.0
6139,65.0,0,96,3.0,0.0
6140,75.0,24,96,3.0,0.0
6141,69.0,0,96,3.0,0.0
6142,75.0,0,96,3.0,0.0
6143,84.0,24,192,1.0,0.0
6144,65.0,0,96,3.0,0.0
6145,69.0,96,96,3.0,0.0
6146,75.0,120,96,3.0,0.0
6147,65.0,0,96,3.0,0.0
6148,69.0,0,96,3.0,0.0
6149,82.0,96,240,1.0,0.0
6150,75.0,120,96,3.0,0.0
6151,67.0,0,96,3.0,0.0
6152,70.0,0,96,3.0,0.0
6153,70.0,24,96,3.0,0.0
6154,75.0,0,96,3.0,0.0
6155,67.0,0,96,3.0,0.0
6156,70.0,120,96,3.0,0.0
6157,67.0,0,96,3.0,0.0
6158,79.0,96,240,1.0,0.0
6159,75.0,0,96,3.0,0.0
6160,75.0,0,96,3.0,0.0
6161,70.0,24,96,3.0,0.0
6162,67.0,0,96,3.0,0.0
6163,75.0,120,96,3.0,0.0
6164,70.0,0,96,3.0,0.0
6165,77.0,96,240,1.0,0.0
6166,75.0,24,96,3.0,0.0
6167,70.0,0,96,3.0,0.0
6168,79.0,60,120,1.0,0.0
6169,74.0,24,96,3.0,0.0
6170,70.0,0,96,3.0,0.0
6171,80.0,0,60,1.0,0.0
6172,70.0,57,63,3.0,0.0
6173,74.0,3,60,3.0,0.0
6174,82.0,96,60,1.0,0.0
6175,75.0,96,960,5.0,0.0
6176,79.0,120,96,3.0,0.0
6177,87.0,96,360,1.0,0.0
6178,82.0,0,96,3.0,0.0
6179,79.0,120,96,3.0,0.0
6180,79.0,0,96,3.0,0.0
6181,82.0,24,96,3.0,0.0
6182,87.0,96,120,1.0,0.0
6183,82.0,0,96,3.0,0.0
6184,79.0,24,96,3.0,0.0
6185,85.0,48,288,1.0,0.0
6186,82.0,120,96,3.0,0.0
6187,79.0,0,96,3.0,0.0
6188,82.0,0,96,3.0,0.0
6189,79.0,72,96,3.0,0.0
6190,82.0,120,96,3.0,0.0
6191,79.0,0,96,3.0,0.0
6192,79.0,0,96,3.0,0.0
6193,85.0,24,96,1.0,0.0
6194,82.0,0,96,3.0,0.0
6195,79.0,0,96,3.0,0.0
6196,64.0,96,360,5.0,0.0
6197,82.0,120,96,3.0,0.0
6198,79.0,120,96,3.0,0.0
6199,82.0,0,96,3.0,0.0
6200,82.0,24,96,3.0,0.0
6201,79.0,0,96,3.0,0.0
6202,64.0,96,120,5.0,0.0
6203,79.0,24,96,3.0,0.0
6204,82.0,0,96,3.0,0.0
6205,82.0,0,96,3.0,0.0
6206,77.0,120,96,3.0,0.0
6207,82.0,0,96,3.0,0.0
6208,77.0,24,96,3.0,0.0
6209,84.0,96,0,1.0,0.0
6210,77.0,24,96,3.0,0.0
6211,82.0,0,96,3.0,0.0
6212,62.0,96,0,5.0,0.0
6213,77.0,24,96,3.0,0.0
6214,82.0,0,96,3.0,0.0
6215,82.0,0,96,3.0,0.0
6216,76.0,96,96,3.0,0.0
6217,60.0,24,192,5.0,0.0
6218,84.0,93,240,1.0,0.0
6219,76.0,24,96,3.0,0.0
6220,82.0,0,96,3.0,0.0
6221,60.0,24,192,5.0,0.0
6222,76.0,96,96,3.0,0.0
6223,82.0,3,73,3.0,0.0
6224,94.0,90,203,1.0,0.0
6225,82.0,27,96,3.0,0.0
6226,76.0,0,96,3.0,0.0
6227,77.0,96,96,3.0,0.0
6228,62.0,24,192,5.0,0.0
6229,82.0,3,73,3.0,0.0
6230,93.0,93,203,1.0,0.0
6231,77.0,27,96,3.0,0.0
6232,82.0,0,96,3.0,0.0
6233,91.0,96,240,1.0,0.0
6234,82.0,96,96,3.0,0.0
6235,79.0,0,96,3.0,0.0
6236,64.0,24,192,5.0,0.0
6237,82.0,24,96,3.0,0.0
6238,79.0,0,96,3.0,0.0
6239,89.0,96,240,1.0,0.0
6240,65.0,0,480,5.0,0.0
6241,77.0,0,96,3.0,0.0
6242,82.0,120,96,3.0,0.0
6243,82.0,0,96,3.0,0.0
6244,77.0,24,96,3.0,0.0
6245,86.0,0,240,1.0,0.0
6246,70.0,96,240,5.0,0.0
6247,77.0,120,96,3.0,0.0
6248,82.0,0,96,3.0,0.0
6249,77.0,24,96,3.0,0.0
6250,82.0,0,96,3.0,0.0
6251,77.0,120,96,3.0,0.0
6252,82.0,0,96,3.0,0.0
6253,75.0,26,310,5.0,0.0
6254,84.0,70,240,1.0,0.0
6255,77.0,24,96,3.0,0.0
6256,82.0,0,96,3.0,0.0
6257,86.0,40,120,1.0,0.0
6258,77.0,24,96,3.0,0.0
6259,81.0,0,96,3.0,0.0
6260,74.0,56,80,5.0,0.0
6261,87.0,0,120,1.0,0.0
6262,81.0,0,96,3.0,0.0
6263,77.0,24,96,3.0,0.0
6264,72.0,0,80,5.0,0.0
6265,77.0,0,240,5.0,0.0
6266,86.0,96,240,1.0,0.0
6267,65.0,96,0,5.0,0.0
6268,82.0,120,96,3.0,0.0
6269,82.0,24,96,3.0,0.0
6270,74.0,96,240,5.0,0.0
6271,77.0,96,96,3.0,0.0
6272,82.0,24,192,1.0,0.0
6273,77.0,24,96,3.0,0.0
6274,82.0,0,96,3.0,0.0
6275,77.0,120,96,3.0,0.0
6276,65.0,0,0,5.0,0.0
6277,72.0,80,240,5.0,0.0
6278,87.0,16,320,1.0,0.0
6279,77.0,24,96,3.0,0.0
6280,82.0,0,96,3.0,0.0
6281,77.0,0,96,3.0,0.0
6282,81.0,24,96,3.0,0.0
6283,74.0,40,120,5.0,0.0
6284,86.0,56,80,1.0,0.0
6285,75.0,0,120,5.0,0.0
6286,81.0,0,96,3.0,0.0
6287,77.0,24,96,3.0,0.0
6288,84.0,96,80,1.0,0.0
6289,73.0,0,240,5.0,0.0
6290,82.0,120,96,3.0,0.0
6291,77.0,0,96,3.0,0.0
6292,89.0,96,240,1.0,0.0
6293,82.0,0,96,3.0,0.0
6294,77.0,24,96,3.0,0.0
6295,70.0,0,240,5.0,0.0
6296,77.0,120,96,3.0,0.0
6297,82.0,0,96,3.0,0.0
6298,85.0,0,240,1.0,0.0
6299,77.0,0,96,3.0,0.0
6300,82.0,24,96,3.0,0.0
6301,65.0,96,0,5.0,0.0
6302,75.0,11,325,5.0,0.0
6303,77.0,120,96,3.0,0.0
6304,82.0,0,96,3.0,0.0
6305,84.0,85,240,1.0,0.0
6306,77.0,0,96,3.0,0.0
6307,82.0,24,96,3.0,0.0
6308,77.0,24,96,3.0,0.0
6309,81.0,0,96,3.0,0.0
6310,85.0,40,120,1.0,0.0
6311,73.0,56,80,5.0,0.0
6312,81.0,0,96,3.0,0.0
6313,77.0,24,96,3.0,0.0
6314,87.0,96,120,1.0,0.0
6315,72.0,0,80,5.0,0.0
6316,77.0,0,96,3.0,0.0
6317,80.0,120,96,3.0,0.0
6318,73.0,120,240,5.0,0.0
6319,85.0,0,240,1.0,0.0
6320,65.0,120,480,5.0,0.0
6321,80.0,24,96,3.0,0.0
6322,77.0,0,96,3.0,0.0
6323,73.0,0,120,3.0,0.0
6324,68.0,0,240,5.0,0.0
6325,84.0,120,120,1.0,0.0
6326,82.0,0,120,1.0,0.0
6327,73.0,0,0,3.0,0.0
6328,63.0,0,480,5.0,0.0
6329,70.0,30,330,5.0,0.0
6330,79.0,90,240,1.0,0.0
6331,73.0,120,0,3.0,0.0
6332,80.0,0,120,1.0,0.0
6333,73.0,0,0,3.0,0.0
6334,68.0,80,80,5.0,0.0
6335,82.0,0,120,1.0,0.0
6336,67.0,0,80,5.0,0.0
6337,73.0,120,0,3.0,0.0
6338,85.0,0,240,1.0,0.0
6339,64.0,0,480,5.0,0.0
6340,68.0,0,240,5.0,0.0
6341,73.0,120,0,3.0,0.0
6342,80.0,0,240,1.0,0.0
6343,68.0,0,240,5.0,0.0
6344,73.0,120,0,3.0,0.0
6345,63.0,0,480,5.0,0.0
6346,70.0,35,325,5.0,0.0
6347,79.0,85,240,1.0,0.0
6348,73.0,120,0,3.0,0.0
6349,73.0,0,120,3.0,0.0
6350,80.0,0,120,1.0,0.0
6351,68.0,80,80,5.0,0.0
6352,73.0,40,0,3.0,0.0
6353,82.0,0,120,1.0,0.0
6354,67.0,0,80,5.0,0.0
6355,85.0,0,240,1.0,0.0
6356,64.0,0,480,5.0,0.0
6357,73.0,120,0,3.0,0.0
6358,73.0,120,0,3.0,0.0
6359,80.0,120,240,1.0,0.0
6360,68.0,120,0,5.0,0.0
6361,73.0,120,120,3.0,0.0
6362,73.0,0,120,3.0,0.0
6363,79.0,0,240,1.0,0.0
6364,63.0,0,480,5.0,0.0
6365,70.0,35,325,5.0,0.0
6366,73.0,120,0,3.0,0.0
6367,80.0,0,120,1.0,0.0
6368,73.0,85,0,3.0,0.0
6369,68.0,80,80,5.0,0.0
6370,73.0,40,0,3.0,0.0
6371,82.0,120,120,1.0,0.0
6372,67.0,0,80,5.0,0.0
6373,85.0,0,240,1.0,0.0
6374,64.0,0,480,5.0,0.0
6375,73.0,120,0,3.0,0.0
6376,73.0,120,120,3.0,0.0
6377,80.0,0,240,1.0,0.0
6378,68.0,120,0,5.0,0.0
6379,79.0,4,198,1.0,0.0
6380,73.0,198,0,3.0,0.0
6381,70.0,214,202,5.0,0.0
6382,63.0,0,202,5.0,0.0
6383,87.0,5,240,1.0,0.0
6384,75.0,64,96,5.0,0.0
6385,79.0,235,85,4.0,0.0
6386,84.0,0,240,1.0,0.0
6387,27.0,263,3577,5.0,0.0
6388,80.0,0,240,5.0,0.0
6389,39.0,0,3577,5.0,0.0
6390,76.0,240,120,4.0,0.0
6391,77.0,5,240,5.0,0.0
6392,80.0,235,245,1.0,0.0
6393,72.0,0,120,4.0,0.0
6394,73.0,240,240,5.0,0.0
6395,77.0,0,240,1.0,0.0
6396,70.0,0,120,4.0,0.0
6397,70.0,0,240,5.0,0.0
6398,73.0,0,240,1.0,0.0
6399,65.0,240,120,4.0,0.0
6400,70.0,0,240,1.0,0.0
6401,67.0,0,240,5.0,0.0
6402,63.0,40,120,4.0,0.0
6403,68.0,240,240,5.0,0.0
6404,72.0,40,40,1.0,0.0
6405,73.0,40,40,1.0,0.0
6406,72.0,60,40,1.0,0.0
6407,70.0,60,60,1.0,0.0
6408,63.0,0,120,4.0,0.0
6409,72.0,0,60,1.0,0.0
6410,73.0,0,240,1.0,0.0
6411,70.0,240,240,5.0,0.0
6412,63.0,0,120,4.0,0.0
6413,70.0,0,240,1.0,0.0
6414,67.0,240,240,5.0,0.0
6415,63.0,0,120,4.0,0.0
6416,72.0,0,240,1.0,0.0
6417,68.0,0,240,5.0,0.0
6418,70.0,240,120,4.0,0.0
6419,75.0,240,240,1.0,0.0
6420,67.0,0,240,5.0,0.0
6421,70.0,0,120,4.0,0.0
6422,80.0,0,240,1.0,0.0
6423,65.0,0,240,5.0,0.0
6424,73.0,202,120,4.0,0.0
6425,82.0,4,202,1.0,0.0
6426,74.0,161,206,5.0,0.0
6427,64.0,0,86,5.0,0.0
6428,63.0,113,167,5.0,0.0
6429,75.0,8,372,5.0,0.0
6430,87.0,4,693,1.0,0.0
6431,67.0,112,120,4.0,0.0
6432,70.0,120,120,4.0,0.0
6433,75.0,127,120,4.0,0.0
6434,79.0,86,127,4.0,0.0
6435,82.0,0,93,4.0,0.0
6436,35.0,8,2392,5.0,0.0
6437,87.0,150,480,1.0,0.0
6438,47.0,7,2385,5.0,0.0
6439,75.0,0,240,5.0,0.0
6440,78.0,240,120,4.0,0.0
6441,75.0,0,240,5.0,0.0
6442,79.0,0,120,4.0,0.0
6443,83.0,240,240,1.0,0.0
6444,80.0,90,150,5.0,0.0
6445,75.0,0,120,4.0,0.0
6446,80.0,0,240,1.0,0.0
6447,76.0,0,240,5.0,0.0
6448,72.0,240,120,4.0,0.0
6449,73.0,240,240,5.0,0.0
6450,76.0,0,240,1.0,0.0
6451,68.0,0,120,4.0,0.0
6452,70.0,0,240,5.0,0.0
6453,73.0,0,240,1.0,0.0
6454,64.0,40,120,4.0,0.0
6455,75.0,40,40,1.0,0.0
6456,71.0,0,240,5.0,0.0
6457,76.0,40,40,1.0,0.0
6458,75.0,60,40,1.0,0.0
6459,63.0,240,120,4.0,0.0
6460,73.0,60,60,1.0,0.0
6461,75.0,0,60,1.0,0.0
6462,76.0,0,240,1.0,0.0
6463,73.0,0,240,5.0,0.0
6464,61.0,240,120,4.0,0.0
6465,73.0,225,240,1.0,0.0
6466,70.0,0,240,5.0,0.0
6467,65.0,0,120,4.0,0.0
6468,75.0,0,240,1.0,0.0
6469,71.0,0,240,5.0,0.0
6470,63.0,240,120,4.0,0.0
6471,79.0,0,240,1.0,0.0
6472,74.0,65,271,5.0,0.0
6473,34.0,31,240,5.0,0.0
6474,46.0,0,240,5.0,0.0
6475,76.0,0,120,4.0,0.0
6476,71.0,74,142,2.0,0.0
6477,80.0,46,96,1.0,0.0
6478,44.0,0,240,5.0,0.0
6479,32.0,96,240,5.0,0.0
6480,82.0,24,96,1.0,0.0
6481,75.0,0,120,2.0,0.0
6482,83.0,16,96,1.0,0.0
6483,80.0,94,112,2.0,0.0
6484,40.0,160,240,5.0,0.0
6485,28.0,0,240,5.0,0.0
6486,85.0,34,86,1.0,0.0
6487,71.0,0,120,4.0,0.0
6488,27.0,0,720,5.0,0.0
6489,80.0,0,0,2.0,0.0
6490,39.0,0,720,5.0,0.0
6491,84.0,4,696,2.0,0.0
6492,87.0,77,683,1.0,0.0
6493,51.0,80,80,4.0,0.0
6494,60.0,80,80,4.0,0.0
6495,63.0,80,80,4.0,0.0
6496,60.0,80,80,4.0,0.0
6497,51.0,80,80,4.0,0.0
6498,63.0,80,80,4.0,0.0
6499,60.0,76,80,4.0,0.0
6500,51.0,0,80,4.0,0.0
6501,51.0,80,80,4.0,0.0
6502,72.0,0,0,2.0,0.0
6503,80.0,3,0,2.0,0.0
6504,84.0,0,240,1.0,0.0
6505,48.0,80,80,4.0,0.0
6506,39.0,0,80,5.0,0.0
6507,81.0,0,720,2.0,0.0
6508,27.0,0,720,5.0,0.0
6509,72.0,0,0,2.0,0.0
6510,84.0,0,700,2.0,0.0
6511,87.0,0,680,1.0,0.0
6512,51.0,80,80,4.0,0.0
6513,60.0,80,80,4.0,0.0
6514,63.0,80,80,4.0,0.0
6515,60.0,80,80,4.0,0.0
6516,51.0,80,80,4.0,0.0
6517,63.0,80,80,4.0,0.0
6518,60.0,80,80,4.0,0.0
6519,51.0,0,80,4.0,0.0
6520,79.0,0,240,2.0,0.0
6521,70.0,0,240,2.0,0.0
6522,51.0,80,80,4.0,0.0
6523,82.0,64,240,1.0,0.0
6524,49.0,80,80,4.0,0.0
6525,39.0,0,80,5.0,0.0
6526,44.0,96,64,3.0,0.0
6527,68.0,0,720,2.0,0.0
6528,75.0,0,720,2.0,0.0
6529,80.0,77,703,2.0,0.0
6530,84.0,3,680,1.0,0.0
6531,43.0,64,80,5.0,0.0
6532,44.0,96,64,3.0,0.0
6533,43.0,64,80,5.0,0.0
6534,44.0,96,64,3.0,0.0
6535,43.0,64,80,5.0,0.0
6536,44.0,96,64,3.0,0.0
6537,43.0,64,80,5.0,0.0
6538,44.0,16,64,3.0,0.0
6539,72.0,64,240,2.0,0.0
6540,75.0,0,240,1.0,0.0
6541,43.0,64,80,5.0,0.0
6542,44.0,96,64,3.0,0.0
6543,43.0,0,80,5.0,0.0
6544,64.0,0,720,2.0,0.0
6545,68.0,0,720,2.0,0.0
6546,44.0,96,64,3.0,0.0
6547,73.0,3,700,2.0,0.0
6548,80.0,77,683,1.0,0.0
6549,43.0,64,80,5.0,0.0
6550,44.0,96,64,3.0,0.0
6551,43.0,64,80,5.0,0.0
6552,44.0,96,64,3.0,0.0
6553,43.0,64,80,5.0,0.0
6554,44.0,96,64,3.0,0.0
6555,43.0,64,80,5.0,0.0
6556,44.0,16,64,3.0,0.0
6557,70.0,0,240,1.0,0.0
6558,61.0,0,240,2.0,0.0
6559,64.0,0,240,2.0,0.0
6560,67.0,0,240,2.0,0.0
6561,43.0,64,80,5.0,0.0
6562,44.0,96,64,3.0,0.0
6563,43.0,64,80,5.0,0.0
6564,63.0,0,720,2.0,0.0
6565,44.0,96,64,3.0,0.0
6566,60.0,7,720,2.0,0.0
6567,68.0,60,720,2.0,0.0
6568,75.0,13,687,1.0,0.0
6569,43.0,64,80,5.0,0.0
6570,44.0,96,64,3.0,0.0
6571,43.0,64,80,5.0,0.0
6572,44.0,96,64,3.0,0.0
6573,43.0,64,80,5.0,0.0
6574,44.0,96,64,3.0,0.0
6575,43.0,64,80,5.0,0.0
6576,44.0,16,64,3.0,0.0
6577,60.0,0,240,2.0,0.0
6578,43.0,64,80,5.0,0.0
6579,63.0,64,240,1.0,0.0
6580,44.0,96,64,3.0,0.0
6581,43.0,0,80,5.0,0.0
6582,52.0,3,720,2.0,0.0
6583,44.0,96,64,3.0,0.0
6584,56.0,0,720,2.0,0.0
6585,61.0,0,700,2.0,0.0
6586,68.0,77,683,1.0,0.0
6587,43.0,64,80,5.0,0.0
6588,44.0,96,64,3.0,0.0
6589,43.0,64,80,5.0,0.0
6590,44.0,96,64,3.0,0.0
6591,43.0,64,80,5.0,0.0
6592,44.0,96,64,3.0,0.0
6593,43.0,64,80,5.0,0.0
6594,44.0,16,64,3.0,0.0
6595,43.0,64,80,5.0,0.0
6596,58.0,0,240,1.0,0.0
6597,54.0,0,240,2.0,0.0
6598,49.0,0,240,2.0,0.0
6599,52.0,0,240,2.0,0.0
6600,44.0,96,64,3.0,0.0
6601,43.0,64,80,5.0,0.0
6602,48.0,0,960,2.0,0.0
6603,54.0,3,960,2.0,0.0
6604,44.0,96,64,3.0,0.0
6605,56.0,429,943,2.0,0.0
6606,63.0,0,920,1.0,0.0
6607,43.0,64,80,5.0,0.0
6608,44.0,176,64,3.0,0.0
6609,43.0,64,80,5.0,0.0
6610,44.0,176,64,3.0,0.0
6611,43.0,64,80,5.0,0.0
6612,44.0,176,64,3.0,0.0
6613,43.0,64,80,5.0,0.0
6614,44.0,16,64,3.0,0.0
6615,44.0,240,192,3.0,0.0
6616,44.0,240,192,3.0,0.0
6617,44.0,0,192,3.0,0.0
6618,68.0,240,192,1.0,0.0
6619,56.0,0,192,2.0,0.0
6620,68.0,0,192,2.0,0.0
6621,61.0,0,192,2.0,0.0
6622,73.0,0,192,1.0,0.0
6623,44.0,240,192,3.0,0.0
6624,53.0,0,192,2.0,0.0
6625,73.0,0,192,2.0,0.0
6626,63.0,0,192,2.0,0.0
6627,54.0,0,192,2.0,0.0
6628,44.0,240,192,3.0,0.0
6629,75.0,0,192,1.0,0.0
6630,78.0,192,720,1.0,0.0
6631,73.0,0,720,2.0,0.0
6632,44.0,240,192,3.0,0.0
6633,66.0,0,720,2.0,0.0
6634,58.0,0,720,2.0,0.0
6635,44.0,240,192,3.0,0.0
6636,44.0,48,192,3.0,0.0
6637,56.0,240,192,2.0,0.0
6638,44.0,0,192,3.0,0.0
6639,73.0,0,192,2.0,0.0
6640,65.0,0,192,2.0,0.0
6641,77.0,0,192,1.0,0.0
6642,54.0,0,192,2.0,0.0
6643,75.0,0,192,1.0,0.0
6644,44.0,240,192,3.0,0.0
6645,63.0,0,192,2.0,0.0
6646,73.0,0,192,2.0,0.0
6647,77.0,0,192,1.0,0.0
6648,65.0,0,192,2.0,0.0
6649,56.0,0,192,2.0,0.0
6650,44.0,240,192,3.0,0.0
6651,73.0,0,192,2.0,0.0
6652,44.0,240,192,3.0,0.0
6653,68.0,0,720,2.0,0.0
6654,53.0,0,720,2.0,0.0
6655,61.0,192,720,2.0,0.0
6656,73.0,0,720,1.0,0.0
6657,44.0,240,192,3.0,0.0
6658,44.0,48,192,3.0,0.0
6659,68.0,0,192,1.0,0.0
6660,56.0,240,192,2.0,0.0
6661,44.0,0,192,3.0,0.0
6662,44.0,240,192,3.0,0.0
6663,73.0,0,192,1.0,0.0
6664,53.0,0,192,2.0,0.0
6665,61.0,0,192,2.0,0.0
6666,68.0,0,192,2.0,0.0
6667,65.0,0,192,2.0,0.0
6668,56.0,0,192,2.0,0.0
6669,77.0,0,192,1.0,0.0
6670,44.0,240,192,3.0,0.0
6671,73.0,0,192,2.0,0.0
6672,68.0,0,720,2.0,0.0
6673,44.0,240,192,3.0,0.0
6674,60.0,4,696,2.0,0.0
6675,80.0,189,683,1.0,0.0
6676,44.0,240,192,3.0,0.0
6677,44.0,44,192,3.0,0.0
6678,73.0,3,0,2.0,0.0
6679,58.0,0,192,2.0,0.0
6680,66.0,0,192,2.0,0.0
6681,44.0,0,192,3.0,0.0
6682,78.0,240,192,1.0,0.0
6683,73.0,0,192,2.0,0.0
6684,63.0,0,192,2.0,0.0
6685,54.0,0,192,2.0,0.0
6686,44.0,0,192,3.0,0.0
6687,75.0,240,192,1.0,0.0
6688,73.0,0,192,2.0,0.0
6689,65.0,0,192,2.0,0.0
6690,77.0,240,192,1.0,0.0
6691,44.0,0,192,3.0,0.0
6692,56.0,0,192,2.0,0.0
6693,61.0,0,960,2.0,0.0
6694,73.0,192,960,1.0,0.0
6695,44.0,240,192,3.0,0.0
6696,68.0,0,960,2.0,0.0
6697,53.0,0,960,2.0,0.0
6698,44.0,240,192,3.0,0.0
6699,44.0,240,192,3.0,0.0
6700,44.0,48,192,3.0,0.0
6701,65.0,192,480,2.0,0.0
6702,49.0,0,480,2.0,0.0
6703,73.0,0,480,2.0,0.0
6704,44.0,240,192,3.0,0.0
6705,77.0,0,480,1.0,0.0
6706,44.0,48,192,3.0,0.0
6707,82.0,0,480,1.0,0.0
6708,44.0,240,192,3.0,0.0
6709,54.0,0,480,2.0,0.0
6710,73.0,0,480,2.0,0.0
6711,70.0,192,480,2.0,0.0
6712,44.0,48,192,3.0,0.0
6713,44.0,240,192,3.0,0.0
6714,68.0,192,480,2.0,0.0
6715,53.0,0,480,2.0,0.0
6716,80.0,0,480,1.0,0.0
6717,73.0,0,480,2.0,0.0
6718,44.0,48,192,3.0,0.0
6719,44.0,240,192,3.0,0.0
6720,77.0,0,480,1.0,0.0
6721,65.0,0,480,2.0,0.0
6722,55.0,0,480,2.0,0.0
6723,73.0,192,480,2.0,0.0
6724,44.0,48,192,3.0,0.0
6725,72.0,0,480,2.0,0.0
6726,75.0,192,480,1.0,0.0
6727,63.0,0,480,2.0,0.0
6728,44.0,240,192,3.0,0.0
6729,56.0,0,480,2.0,0.0
6730,44.0,48,192,3.0,0.0
6731,44.0,240,192,3.0,0.0
6732,56.0,240,192,1.0,0.0
6733,44.0,0,192,3.0,0.0
6734,44.0,0,192,3.0,0.0
6735,61.0,240,192,1.0,0.0
6736,53.0,0,192,2.0,0.0
6737,44.0,0,192,3.0,0.0
6738,54.0,0,192,2.0,0.0
6739,61.0,240,192,2.0,0.0
6740,63.0,0,192,1.0,0.0
6741,37.0,192,1440,5.0,0.0
6742,44.0,240,192,3.0,0.0
6743,58.0,192,720,2.0,0.0
6744,66.0,0,720,1.0,0.0
6745,61.0,0,720,2.0,0.0
6746,44.0,240,192,3.0,0.0
6747,44.0,48,192,3.0,0.0
6748,65.0,0,192,1.0,0.0
6749,56.0,0,192,2.0,0.0
6750,61.0,0,192,2.0,0.0
6751,44.0,240,192,3.0,0.0
6752,61.0,0,192,2.0,0.0
6753,54.0,240,192,2.0,0.0
6754,63.0,0,192,1.0,0.0
6755,44.0,0,192,3.0,0.0
6756,65.0,0,192,1.0,0.0
6757,61.0,0,192,2.0,0.0
6758,56.0,0,192,2.0,0.0
6759,44.0,48,192,3.0,0.0
6760,37.0,192,1440,5.0,0.0
6761,61.0,192,720,1.0,0.0
6762,53.0,0,720,2.0,0.0
6763,44.0,240,192,3.0,0.0
6764,44.0,240,192,3.0,0.0
6765,44.0,48,192,3.0,0.0
6766,56.0,0,192,1.0,0.0
6767,44.0,240,192,3.0,0.0
6768,53.0,0,192,2.0,0.0
6769,44.0,240,192,3.0,0.0
6770,61.0,0,192,1.0,0.0
6771,56.0,0,192,2.0,0.0
6772,44.0,48,192,3.0,0.0
6773,61.0,0,192,2.0,0.0
6774,65.0,0,192,1.0,0.0
6775,68.0,0,720,1.0,0.0
6776,59.0,192,720,2.0,0.0
6777,38.0,192,960,5.0,0.0
6778,65.0,0,720,2.0,0.0
6779,44.0,240,192,3.0,0.0
6780,44.0,240,192,3.0,0.0
6781,44.0,48,192,3.0,0.0
6782,44.0,0,192,3.0,0.0
6783,66.0,0,192,1.0,0.0
6784,58.0,48,192,2.0,0.0
6785,39.0,192,480,5.0,0.0
6786,63.0,0,192,1.0,0.0
6787,54.0,240,192,2.0,0.0
6788,44.0,0,192,3.0,0.0
6789,54.0,0,192,2.0,0.0
6790,60.0,0,192,2.0,0.0
6791,44.0,0,192,3.0,0.0
6792,65.0,48,192,1.0,0.0
6793,41.0,192,480,5.0,0.0
6794,53.0,0,960,2.0,0.0
6795,44.0,240,192,3.0,0.0
6796,44.0,48,192,3.0,0.0
6797,37.0,192,480,5.0,0.0
6798,44.0,240,192,3.0,0.0
6799,44.0,48,192,3.0,0.0
6800,58.0,0,480,2.0,0.0
6801,44.0,240,192,3.0,0.0
6802,61.0,0,0,1.0,0.0
6803,34.0,192,480,5.0,0.0
6804,53.0,0,480,2.0,0.0
6805,44.0,48,192,3.0,0.0
6806,61.0,192,480,2.0,0.0
6807,32.0,0,1440,5.0,0.0
6808,44.0,240,192,3.0,0.0
6809,63.0,0,960,1.0,0.0
6810,44.0,48,192,3.0,0.0
6811,60.0,0,480,2.0,0.0
6812,44.0,240,192,3.0,0.0
6813,44.0,48,192,3.0,0.0
6814,65.0,192,480,1.0,0.0
6815,54.0,192,0,2.0,0.0
6816,44.0,240,192,3.0,0.0
6817,60.0,0,480,2.0,0.0
6818,44.0,48,192,3.0,0.0
6819,53.0,0,480,2.0,0.0
6820,37.0,192,960,5.0,0.0
6821,61.0,192,480,1.0,0.0
6822,44.0,240,192,3.0,0.0
6823,44.0,48,192,3.0,0.0
6824,44.0,240,192,3.0,0.0
6825,56.0,0,192,2.0,0.0
6826,44.0,0,192,3.0,0.0
6827,68.0,48,192,1.0,0.0
6828,39.0,0,192,5.0,0.0
6829,72.0,0,192,1.0,0.0
6830,60.0,0,192,2.0,0.0
6831,68.0,0,192,2.0,0.0
6832,44.0,240,192,3.0,0.0
6833,73.0,0,192,1.0,0.0
6834,37.0,0,192,5.0,0.0
6835,61.0,0,192,2.0,0.0
6836,68.0,0,192,2.0,0.0
6837,44.0,240,192,3.0,0.0
6838,63.0,192,720,2.0,0.0
6839,36.0,192,960,5.0,0.0
6840,44.0,240,192,3.0,0.0
6841,44.0,240,192,3.0,0.0
6842,44.0,48,192,3.0,0.0
6843,44.0,0,192,3.0,0.0
6844,75.0,0,0,1.0,0.0
6845,68.0,0,0,2.0,0.0
6846,63.0,0,192,2.0,0.0
6847,44.0,0,192,3.0,0.0
6848,65.0,0,192,2.0,0.0
6849,35.0,192,480,5.0,0.0
6850,74.0,0,192,2.0,0.0
6851,77.0,240,192,1.0,0.0
6852,68.0,0,192,2.0,0.0
6853,77.0,0,192,1.0,0.0
6854,44.0,0,192,3.0,0.0
6855,65.0,0,192,2.0,0.0
6856,68.0,0,192,2.0,0.0
6857,74.0,48,192,2.0,0.0
6858,46.0,240,192,3.0,0.0
6859,78.0,0,720,1.0,0.0
6860,66.0,192,720,2.0,0.0
6861,73.0,0,720,2.0,0.0
6862,46.0,240,192,3.0,0.0
6863,46.0,48,192,3.0,0.0
6864,46.0,240,192,3.0,0.0
6865,54.0,0,192,2.0,0.0
6866,66.0,0,192,1.0,0.0
6867,58.0,240,192,2.0,0.0
6868,70.0,0,192,1.0,0.0
6869,46.0,0,192,3.0,0.0
6870,46.0,48,192,3.0,0.0
6871,59.0,0,192,2.0,0.0
6872,71.0,0,192,1.0,0.0
6873,42.0,192,0,5.0,0.0
6874,34.0,0,0,5.0,0.0
6875,46.0,240,192,3.0,0.0
6876,61.0,192,720,2.0,0.0
6877,46.0,240,192,3.0,0.0
6878,46.0,48,192,3.0,0.0
6879,66.0,0,0,2.0,0.0
6880,73.0,0,0,1.0,0.0
6881,46.0,0,192,3.0,0.0
6882,61.0,0,192,2.0,0.0
6883,46.0,240,192,3.0,0.0
6884,75.0,0,192,1.0,0.0
6885,66.0,0,192,2.0,0.0
6886,73.0,0,192,2.0,0.0
6887,34.0,192,480,5.0,0.0
6888,42.0,0,480,5.0,0.0
6889,63.0,0,192,2.0,0.0
6890,75.0,0,192,1.0,0.0
6891,46.0,0,192,3.0,0.0
6892,63.0,48,192,2.0,0.0
6893,73.0,0,192,2.0,0.0
6894,66.0,0,192,2.0,0.0
6895,72.0,192,720,2.0,0.0
6896,41.0,192,1440,5.0,0.0
6897,45.0,240,192,3.0,0.0
6898,65.0,0,720,2.0,0.0
6899,77.0,0,720,1.0,0.0
6900,33.0,0,1440,5.0,0.0
6901,45.0,240,192,3.0,0.0
6902,45.0,48,192,3.0,0.0
6903,45.0,240,192,3.0,0.0
6904,72.0,0,192,1.0,0.0
6905,77.0,0,192,1.0,0.0
6906,69.0,240,192,2.0,0.0
6907,45.0,0,192,3.0,0.0
6908,72.0,0,192,2.0,0.0
6909,79.0,48,192,1.0,0.0
6910,45.0,0,192,3.0,0.0
6911,77.0,192,720,2.0,0.0
6912,45.0,240,192,3.0,0.0
6913,41.0,192,1440,5.0,0.0
6914,33.0,0,1440,5.0,0.0
6915,81.0,0,720,1.0,0.0
6916,45.0,240,192,3.0,0.0
6917,45.0,48,192,3.0,0.0
6918,65.0,0,192,2.0,0.0
6919,45.0,0,192,3.0,0.0
6920,69.0,240,192,1.0,0.0
6921,72.0,0,192,1.0,0.0
6922,45.0,240,192,3.0,0.0
6923,69.0,0,192,2.0,0.0
6924,45.0,0,192,3.0,0.0
6925,77.0,0,192,1.0,0.0
6926,72.0,48,192,2.0,0.0
6927,44.0,240,192,3.0,0.0
6928,72.0,192,720,2.0,0.0
6929,33.0,192,1440,5.0,0.0
6930,41.0,0,1440,5.0,0.0
6931,77.0,0,696,2.0,0.0
6932,84.0,4,676,1.0,0.0
6933,44.0,240,192,3.0,0.0
6934,44.0,44,192,3.0,0.0
6935,44.0,0,192,3.0,0.0
6936,68.0,0,192,1.0,0.0
6937,65.0,176,192,2.0,0.0
6938,72.0,0,128,1.0,0.0
6939,68.0,64,128,2.0,0.0
6940,44.0,96,192,3.0,0.0
6941,72.0,144,128,2.0,0.0
6942,77.0,0,128,1.0,0.0
6943,44.0,16,192,3.0,0.0
6944,80.0,0,128,1.0,0.0
6945,77.0,32,128,2.0,0.0
6946,80.0,0,720,2.0,0.0
6947,30.0,0,720,5.0,0.0
6948,72.0,0,720,2.0,0.0
6949,32.0,0,720,4.0,0.0
6950,42.0,240,192,5.0,0.0
6951,87.0,0,720,1.0,0.0
6952,84.0,192,720,1.0,0.0
6953,42.0,240,192,5.0,0.0
6954,42.0,48,192,5.0,0.0
6955,42.0,0,192,5.0,0.0
6956,30.0,0,192,5.0,0.0
6957,72.0,0,192,2.0,0.0
6958,68.0,176,192,1.0,0.0
6959,80.0,0,192,1.0,0.0
6960,75.0,0,192,2.0,0.0
6961,80.0,0,128,1.0,0.0
6962,68.0,160,128,1.0,0.0
6963,72.0,0,128,2.0,0.0
6964,75.0,0,128,2.0,0.0
6965,42.0,0,128,5.0,0.0
6966,30.0,0,128,5.0,0.0
6967,73.0,0,128,1.0,0.0
6968,85.0,0,128,1.0,0.0
6969,80.0,0,128,2.0,0.0
6970,41.0,160,128,5.0,0.0
6971,29.0,0,128,5.0,0.0
6972,75.0,0,128,1.0,0.0
6973,80.0,0,128,2.0,0.0
6974,87.0,0,128,1.0,0.0
6975,27.0,0,128,5.0,0.0
6976,39.0,0,128,5.0,0.0
6977,84.0,352,128,2.0,0.0
6978,25.0,0,1440,5.0,0.0
6979,90.0,0,720,1.0,0.0
6980,37.0,160,1440,5.0,0.0
6981,78.0,80,720,1.0,0.0
6982,82.0,0,720,2.0,0.0
6983,85.0,0,720,2.0,0.0
6984,49.0,160,0,3.0,0.0
6985,49.0,80,160,3.0,0.0
6986,49.0,112,160,3.0,0.0
6987,80.0,0,192,2.0,0.0
6988,85.0,0,192,2.0,0.0
6989,77.0,48,192,1.0,0.0
6990,89.0,0,192,1.0,0.0
6991,49.0,160,160,3.0,0.0
6992,78.0,0,192,2.0,0.0
6993,85.0,0,192,2.0,0.0
6994,75.0,128,192,1.0,0.0
6995,87.0,0,192,1.0,0.0
6996,49.0,32,160,3.0,0.0
6997,80.0,0,192,2.0,0.0
6998,85.0,48,192,2.0,0.0
6999,77.0,0,192,1.0,0.0
7000,89.0,0,192,1.0,0.0
7001,49.0,112,0,3.0,0.0
7002,54.0,0,720,5.0,0.0
7003,42.0,0,720,5.0,0.0
7004,85.0,0,1152,1.0,0.0
7005,73.0,5,1147,1.0,0.0
7006,82.0,80,720,2.0,0.0
7007,80.0,4,716,2.0,0.0
7008,49.0,160,0,3.0,0.0
7009,49.0,160,0,3.0,0.0
7010,49.0,76,0,3.0,0.0
7011,80.0,160,240,2.0,0.0
7012,53.0,0,240,5.0,0.0
7013,41.0,0,240,5.0,0.0
7014,78.0,128,192,2.0,0.0
7015,39.0,0,192,5.0,0.0
7016,51.0,0,192,5.0,0.0
7017,49.0,0,0,3.0,0.0
7018,41.0,0,192,5.0,0.0
7019,53.0,0,192,5.0,0.0
7020,80.0,0,192,2.0,0.0
7021,85.0,0,192,1.0,0.0
7022,73.0,48,192,1.0,0.0
7023,49.0,112,0,3.0,0.0
7024,80.0,0,720,1.0,0.0
7025,89.0,0,720,2.0,0.0
7026,83.0,80,720,2.0,0.0
7027,37.0,0,1440,5.0,0.0
7028,49.0,0,1440,5.0,0.0
7029,92.0,0,720,1.0,0.0
7030,49.0,160,0,3.0,0.0
7031,49.0,160,160,3.0,0.0
7032,49.0,80,160,3.0,0.0
7033,49.0,112,160,3.0,0.0
7034,78.0,0,192,1.0,0.0
7035,90.0,48,192,1.0,0.0
7036,85.0,0,192,2.0,0.0
7037,82.0,0,192,2.0,0.0
7038,49.0,160,0,3.0,0.0
7039,85.0,0,192,2.0,0.0
7040,78.0,128,192,2.0,0.0
7041,87.0,0,192,1.0,0.0
7042,75.0,0,192,1.0,0.0
7043,49.0,112,160,3.0,0.0
7044,85.0,0,192,2.0,0.0
7045,80.0,48,192,2.0,0.0
7046,77.0,0,192,1.0,0.0
7047,89.0,0,192,1.0,0.0
7048,47.0,0,720,5.0,0.0
7049,59.0,80,720,5.0,0.0
7050,85.0,0,1152,1.0,0.0
7051,80.0,48,1152,2.0,0.0
7052,49.0,160,0,3.0,0.0
7053,77.0,0,1152,2.0,0.0
7054,73.0,0,1152,1.0,0.0
7055,49.0,160,0,3.0,0.0
7056,49.0,160,0,3.0,0.0
7057,49.0,80,160,3.0,0.0
7058,58.0,160,240,5.0,0.0
7059,46.0,0,240,5.0,0.0
7060,49.0,160,0,3.0,0.0
7061,42.0,80,240,5.0,0.0
7062,54.0,0,240,5.0,0.0
7063,49.0,0,0,3.0,0.0
7064,49.0,32,0,3.0,0.0
7065,80.0,0,192,2.0,0.0
7066,77.0,48,192,2.0,0.0
7067,44.0,0,240,5.0,0.0
7068,56.0,0,240,5.0,0.0
7069,73.0,0,192,1.0,0.0
7070,85.0,0,192,1.0,0.0
7071,49.0,160,160,3.0,0.0
7072,85.0,160,480,2.0,0.0
7073,49.0,0,160,3.0,0.0
7074,83.0,0,480,1.0,0.0
7075,95.0,0,480,1.0,0.0
7076,92.0,0,480,2.0,0.0
7077,41.0,160,0,5.0,0.0
7078,53.0,0,0,5.0,0.0
7079,49.0,0,0,3.0,0.0
7080,41.0,160,0,5.0,0.0
7081,53.0,0,0,5.0,0.0
7082,94.0,0,480,1.0,0.0
7083,82.0,0,480,1.0,0.0
7084,52.0,160,960,5.0,0.0
7085,40.0,0,960,5.0,0.0
7086,92.0,0,480,2.0,0.0
7087,86.0,0,480,2.0,0.0
7088,49.0,160,160,3.0,0.0
7089,52.0,0,160,3.0,0.0
7090,64.0,160,160,3.0,0.0
7091,52.0,0,160,3.0,0.0
7092,82.0,0,480,2.0,0.0
7093,80.0,0,480,2.0,0.0
7094,86.0,0,480,1.0,0.0
7095,74.0,0,480,1.0,0.0
7096,64.0,160,0,3.0,0.0
7097,52.0,160,0,3.0,0.0
7098,52.0,0,160,3.0,0.0
7099,64.0,160,0,3.0,0.0
7100,75.0,0,960,1.0,0.0
7101,80.0,160,480,2.0,0.0
7102,82.0,0,960,2.0,0.0
7103,56.0,0,480,5.0,0.0
7104,44.0,0,480,5.0,0.0
7105,51.0,160,0,3.0,0.0
7106,63.0,0,0,3.0,0.0
7107,51.0,160,0,3.0,0.0
7108,63.0,0,0,3.0,0.0
7109,63.0,0,0,3.0,0.0
7110,51.0,160,160,3.0,0.0
7111,53.0,0,480,5.0,0.0
7112,41.0,0,480,5.0,0.0
7113,77.0,0,480,2.0,0.0
7114,63.0,0,0,3.0,0.0
7115,51.0,0,0,3.0,0.0
7116,63.0,0,160,3.0,0.0
7117,82.0,0,480,2.0,0.0
7118,79.0,0,480,2.0,0.0
7119,43.0,0,480,5.0,0.0
7120,55.0,0,480,5.0,0.0
7121,87.0,160,0,1.0,0.0
7122,75.0,0,480,1.0,0.0
7123,51.0,160,0,3.0,0.0
7124,63.0,0,0,3.0,0.0
7125,63.0,0,0,3.0,0.0
7126,51.0,0,160,3.0,0.0
7127,51.0,0,160,5.0,0.0
7128,93.0,0,480,1.0,0.0
7129,81.0,0,480,1.0,0.0
7130,39.0,0,0,5.0,0.0
7131,48.0,160,0,3.0,0.0
7132,51.0,160,0,5.0,0.0
7133,39.0,0,160,5.0,0.0
7134,48.0,0,160,3.0,0.0
7135,38.0,0,960,5.0,0.0
7136,50.0,0,960,5.0,0.0
7137,92.0,0,480,1.0,0.0
7138,80.0,160,480,1.0,0.0
7139,90.0,160,0,2.0,0.0
7140,84.0,0,0,2.0,0.0
7141,48.0,160,160,3.0,0.0
7142,62.0,160,160,3.0,0.0
7143,50.0,0,160,3.0,0.0
7144,62.0,0,160,3.0,0.0
7145,50.0,0,160,3.0,0.0
7146,62.0,0,160,3.0,0.0
7147,80.0,0,480,2.0,0.0
7148,72.0,0,480,1.0,0.0
7149,84.0,0,480,1.0,0.0
7150,50.0,160,0,3.0,0.0
7151,50.0,0,0,3.0,0.0
7152,62.0,160,0,3.0,0.0
7153,54.0,0,480,5.0,0.0
7154,42.0,0,480,5.0,0.0
7155,78.0,160,0,2.0,0.0
7156,61.0,0,0,3.0,0.0
7157,49.0,160,0,3.0,0.0
7158,61.0,160,0,3.0,0.0
7159,49.0,0,160,3.0,0.0
7160,61.0,0,0,3.0,0.0
7161,75.0,48,192,2.0,0.0
7162,39.0,0,480,5.0,0.0
7163,51.0,192,480,5.0,0.0
7164,49.0,32,0,3.0,0.0
7165,85.0,0,0,1.0,0.0
7166,80.0,0,0,2.0,0.0
7167,77.0,0,192,2.0,0.0
7168,73.0,80,0,1.0,0.0
7169,49.0,0,160,3.0,0.0
7170,61.0,112,0,3.0,0.0
7171,53.0,320,480,3.0,0.0
7172,41.0,0,480,3.0,0.0
7173,75.0,0,192,1.0,0.0
7174,36.0,5,315,5.0,0.0
7175,48.0,102,330,5.0,0.0
7176,78.0,0,192,2.0,0.0
7177,80.0,123,192,2.0,0.0
7178,87.0,0,192,1.0,0.0
7179,49.0,10,160,3.0,0.0
7180,61.0,0,160,3.0,0.0
7181,85.0,0,192,2.0,0.0
7182,80.0,0,192,2.0,0.0
7183,89.0,48,192,1.0,0.0
7184,77.0,0,192,1.0,0.0
7185,47.0,0,160,5.0,0.0
7186,35.0,0,160,5.0,0.0
7187,46.0,5,785,5.0,0.0
7188,34.0,10,790,5.0,0.0
7189,78.0,65,720,1.0,0.0
7190,90.0,0,720,1.0,0.0
7191,85.0,0,720,2.0,0.0
7192,49.0,0,160,3.0,0.0
7193,61.0,160,0,3.0,0.0
7194,49.0,160,0,3.0,0.0
7195,61.0,0,0,3.0,0.0
7196,61.0,80,0,3.0,0.0
7197,49.0,112,160,3.0,0.0
7198,73.0,48,192,1.0,0.0
7199,85.0,0,192,1.0,0.0
7200,78.0,0,192,2.0,0.0
7201,34.0,192,160,5.0,0.0
7202,46.0,0,160,5.0,0.0
7203,77.0,0,192,1.0,0.0
7204,80.0,123,192,2.0,0.0
7205,85.0,0,192,2.0,0.0
7206,89.0,0,192,1.0,0.0
7207,47.0,0,315,5.0,0.0
7208,35.0,5,315,5.0,0.0
7209,49.0,112,160,3.0,0.0
7210,61.0,0,160,3.0,0.0
7211,82.0,0,192,2.0,0.0
7212,90.0,0,192,1.0,0.0
7213,78.0,0,192,1.0,0.0
7214,85.0,48,192,2.0,0.0
7215,34.0,320,160,5.0,0.0
7216,46.0,0,160,5.0,0.0
7217,80.0,0,720,1.0,0.0
7218,85.0,70,720,2.0,0.0
7219,29.0,0,790,5.0,0.0
7220,92.0,0,720,1.0,0.0
7221,41.0,10,790,5.0,0.0
7222,49.0,0,160,3.0,0.0
7223,61.0,160,160,3.0,0.0
7224,61.0,160,160,3.0,0.0
7225,49.0,0,160,3.0,0.0
7226,61.0,0,160,3.0,0.0
7227,49.0,80,0,3.0,0.0
7228,61.0,112,160,3.0,0.0
7229,73.0,0,192,1.0,0.0
7230,85.0,48,192,1.0,0.0
7231,80.0,0,192,2.0,0.0
7232,29.0,128,160,5.0,0.0
7233,41.0,0,160,5.0,0.0
7234,78.0,0,128,2.0,0.0
7235,85.0,0,128,2.0,0.0
7236,30.0,123,325,5.0,0.0
7237,75.0,160,128,1.0,0.0
7238,82.0,0,128,2.0,0.0
7239,87.0,0,128,1.0,0.0
7240,42.0,5,320,5.0,0.0
7241,78.0,0,128,1.0,0.0
7242,61.0,0,160,3.0,0.0
7243,49.0,0,160,3.0,0.0
7244,90.0,32,128,1.0,0.0
7245,87.0,32,128,2.0,0.0
7246,39.0,0,160,5.0,0.0
7247,85.0,0,128,2.0,0.0
7248,27.0,192,160,5.0,0.0
7249,94.0,0,128,1.0,0.0
7250,82.0,0,128,1.0,0.0
7251,90.0,0,128,2.0,0.0
7252,90.0,0,192,2.0,0.0
7253,94.0,0,192,2.0,0.0
7254,25.0,8,2872,5.0,0.0
7255,37.0,7,2865,5.0,0.0
7256,85.0,0,192,1.0,0.0
7257,97.0,0,192,1.0,0.0
7258,87.0,48,192,2.0,0.0
7259,94.0,0,192,1.0,0.0
7260,51.0,0,0,3.0,0.0
7261,82.0,0,192,1.0,0.0
7262,49.0,0,0,3.0,0.0
7263,54.0,0,0,3.0,0.0
7264,63.0,120,0,3.0,0.0
7265,58.0,0,0,3.0,0.0
7266,90.0,48,192,2.0,0.0
7267,87.0,0,192,2.0,0.0
7268,51.0,0,0,3.0,0.0
7269,49.0,0,0,3.0,0.0
7270,54.0,72,0,3.0,0.0
7271,58.0,0,0,3.0,0.0
7272,51.0,0,0,3.0,0.0
7273,63.0,0,0,3.0,0.0
7274,54.0,120,0,3.0,0.0
7275,58.0,0,0,3.0,0.0
7276,87.0,0,360,2.0,0.0
7277,82.0,0,360,2.0,0.0
7278,78.0,0,360,1.0,0.0
7279,90.0,0,360,1.0,0.0
7280,85.0,0,360,2.0,0.0
7281,58.0,0,120,3.0,0.0
7282,49.0,120,0,3.0,0.0
7283,63.0,0,0,3.0,0.0
7284,54.0,0,0,3.0,0.0
7285,51.0,120,0,3.0,0.0
7286,49.0,0,0,3.0,0.0
7287,58.0,120,0,3.0,0.0
7288,63.0,120,120,3.0,0.0
7289,49.0,0,0,3.0,0.0
7290,54.0,0,0,3.0,0.0
7291,51.0,0,0,3.0,0.0
7292,75.0,0,360,1.0,0.0
7293,78.0,0,360,2.0,0.0
7294,85.0,0,360,2.0,0.0
7295,82.0,0,360,2.0,0.0
7296,63.0,0,120,3.0,0.0
7297,87.0,0,360,1.0,0.0
7298,54.0,0,120,3.0,0.0
7299,49.0,0,120,3.0,0.0
7300,58.0,120,0,3.0,0.0
7301,63.0,0,120,3.0,0.0
7302,58.0,0,0,3.0,0.0
7303,49.0,120,120,3.0,0.0
7304,51.0,120,0,3.0,0.0
7305,63.0,0,0,3.0,0.0
7306,58.0,0,0,3.0,0.0
7307,54.0,0,0,3.0,0.0
7308,51.0,0,0,3.0,0.0
7309,75.0,0,192,2.0,0.0
7310,78.0,0,192,2.0,0.0
7311,82.0,128,192,2.0,0.0
7312,58.0,160,0,3.0,0.0
7313,49.0,0,0,3.0,0.0
7314,63.0,0,0,3.0,0.0
7315,51.0,32,160,3.0,0.0
7316,54.0,0,160,3.0,0.0
7317,85.0,0,192,1.0,0.0
7318,73.0,0,192,1.0,0.0
7319,37.0,112,160,3.0,0.0
7320,49.0,0,160,3.0,0.0
7321,70.0,48,192,1.0,0.0
7322,82.0,0,192,1.0,0.0
7323,75.0,0,192,2.0,0.0
7324,78.0,0,192,2.0,0.0
7325,42.0,0,0,3.0,0.0
7326,49.0,0,160,3.0,0.0
7327,49.0,0,160,3.0,0.0
7328,37.0,160,0,3.0,0.0
7329,78.0,120,360,1.0,0.0
7330,66.0,0,360,1.0,0.0
7331,75.0,0,360,2.0,0.0
7332,70.0,0,360,2.0,0.0
7333,73.0,0,360,2.0,0.0
7334,37.0,0,0,3.0,0.0
7335,42.0,160,0,3.0,0.0
7336,49.0,0,160,3.0,0.0
7337,42.0,40,0,3.0,0.0
7338,49.0,0,160,3.0,0.0
7339,70.0,0,360,2.0,0.0
7340,75.0,0,360,1.0,0.0
7341,63.0,105,360,1.0,0.0
7342,37.0,160,0,3.0,0.0
7343,42.0,0,0,3.0,0.0
7344,73.0,0,360,2.0,0.0
7345,49.0,0,160,3.0,0.0
7346,66.0,0,360,2.0,0.0
7347,37.0,0,0,3.0,0.0
7348,49.0,40,0,3.0,0.0
7349,42.0,0,0,3.0,0.0
7350,49.0,0,0,3.0,0.0
7351,73.0,473,4327,1.0,0.0
7352,61.0,0,4320,1.0,0.0
7353,42.0,0,480,5.0,0.0
7354,70.0,160,480,1.0,0.0
7355,37.0,160,160,3.0,0.0
7356,49.0,160,160,3.0,0.0
7357,37.0,0,0,3.0,0.0
7358,49.0,0,160,3.0,0.0
7359,41.0,0,480,5.0,0.0
7360,68.0,0,480,1.0,0.0
7361,49.0,160,0,3.0,0.0
7362,37.0,0,0,3.0,0.0
7363,49.0,160,0,3.0,0.0
7364,39.0,0,480,5.0,0.0
7365,66.0,160,960,1.0,0.0
7366,49.0,0,0,3.0,0.0
7367,37.0,160,0,3.0,0.0
7368,49.0,160,0,3.0,0.0
7369,37.0,160,160,3.0,0.0
7370,37.0,0,160,3.0,0.0
7371,49.0,160,0,3.0,0.0
7372,37.0,160,160,3.0,0.0
7373,46.0,0,480,5.0,0.0
7374,49.0,0,0,3.0,0.0
7375,37.0,160,0,3.0,0.0
7376,37.0,160,160,3.0,0.0
7377,49.0,0,160,3.0,0.0
7378,44.0,0,480,5.0,0.0
7379,65.0,0,480,1.0,0.0
7380,37.0,0,160,3.0,0.0
7381,37.0,160,160,3.0,0.0
7382,49.0,160,0,3.0,0.0
7383,63.0,0,480,1.0,0.0
7384,42.0,0,480,5.0,0.0
7385,37.0,0,160,3.0,0.0
7386,49.0,160,160,3.0,0.0
7387,37.0,160,160,3.0,0.0
7388,49.0,0,160,3.0,0.0
7389,49.0,0,160,3.0,0.0
7390,65.0,0,1440,1.0,0.0
7391,37.0,240,0,3.0,0.0
7392,44.0,0,1440,5.0,0.0
7393,49.0,240,0,3.0,0.0
7394,37.0,0,240,3.0,0.0
7395,49.0,480,240,3.0,0.0
7396,37.0,0,240,3.0,0.0
7397,37.0,7,240,3.0,0.0
7398,49.0,0,240,3.0,0.0
7399,37.0,0,960,5.0,0.0
7400,49.0,480,480,5.0,0.0
7401,36.0,0,480,5.0,0.0
7402,48.0,480,480,5.0,0.0
7403,35.0,0,480,5.0,0.0
7404,49.0,0,480,5.0,0.0
7405,61.0,480,480,1.0,0.0
7406,49.0,0,480,1.0,0.0
7407,37.0,0,480,4.0,0.0
7408,66.0,0,960,1.0,0.0
7409,54.0,0,960,1.0,0.0
7410,46.0,0,480,5.0,0.0
7411,34.0,480,480,5.0,0.0
7412,37.0,0,480,4.0,0.0
7413,33.0,0,480,5.0,0.0
7414,45.0,0,480,5.0,0.0
7415,37.0,480,480,4.0,0.0
7416,44.0,0,480,5.0,0.0
7417,32.0,0,480,5.0,0.0
7418,65.0,480,480,1.0,0.0
7419,53.0,0,480,1.0,0.0
7420,61.0,0,0,2.0,0.0
7421,37.0,0,480,4.0,0.0
7422,31.0,0,480,5.0,0.0
7423,43.0,0,480,5.0,0.0
7424,58.0,480,480,2.0,0.0
7425,63.0,0,960,1.0,0.0
7426,51.0,0,960,1.0,0.0
7427,37.0,0,480,4.0,0.0
7428,42.0,480,480,5.0,0.0
7429,36.0,0,480,4.0,0.0
7430,57.0,0,480,2.0,0.0
7431,30.0,0,480,5.0,0.0
7432,36.0,0,480,4.0,0.0
7433,65.0,0,480,1.0,0.0
7434,53.0,0,480,1.0,0.0
7435,41.0,0,480,5.0,0.0
7436,29.0,0,480,5.0,0.0
7437,60.0,480,480,2.0,0.0
7438,58.0,0,480,2.0,0.0
7439,56.0,0,0,2.0,0.0
7440,28.0,960,480,5.0,0.0
7441,40.0,0,480,5.0,0.0
7442,49.0,0,480,1.0,0.0
7443,61.0,0,480,1.0,0.0
7444,27.0,0,960,5.0,0.0
7445,55.0,0,960,2.0,0.0
7446,34.0,0,0,4.0,0.0
7447,63.0,15,1935,1.0,0.0
7448,39.0,975,960,5.0,0.0
7449,61.0,0,960,2.0,0.0
7450,51.0,450,1950,1.0,0.0
7451,58.0,0,960,2.0,0.0
7452,44.0,0,1440,5.0,0.0
7453,60.0,15,2865,2.0,0.0
7454,54.0,0,2880,2.0,0.0
7455,32.0,0,1440,5.0,0.0
7456,49.0,1425,480,1.0,0.0
7457,61.0,0,480,1.0,0.0
7458,25.0,1440,1440,5.0,0.0
7459,61.0,0,4215,1.0,0.0
7460,37.0,0,1440,5.0,0.0
7461,49.0,105,4215,1.0,0.0
7462,30.0,0,1440,5.0,0.0
7463,54.0,0,1440,2.0,0.0
7464,42.0,15,1440,5.0,0.0
7465,58.0,1290,1455,2.0,0.0
7466,53.0,15,1320,2.0,0.0
7467,44.0,15,1305,4.0,0.0
7468,56.0,0,1305,2.0,0.0
7469,37.0,480,1440,5.0,0.0
7470,49.0,0,1440,5.0,0.0
7471,77.0,0,480,1.0,0.0
7472,61.0,480,480,5.0,0.0
7473,68.0,0,240,3.0,0.0
7474,73.0,0,480,1.0,0.0
7475,56.0,0,480,5.0,0.0
7476,65.0,480,240,3.0,0.0
7477,53.0,420,480,5.0,0.0
7478,68.0,0,480,1.0,0.0
7479,61.0,0,240,3.0,0.0
7480,49.0,0,420,5.0,0.0
7481,65.0,7,420,1.0,0.0
7482,56.0,533,187,3.0,0.0
7483,41.0,0,480,5.0,0.0
7484,80.0,0,480,1.0,0.0
7485,49.0,480,240,3.0,0.0
7486,77.0,480,480,1.0,0.0
7487,44.0,0,480,5.0,0.0
7488,53.0,0,240,3.0,0.0
7489,49.0,420,480,5.0,0.0
7490,73.0,0,480,1.0,0.0
7491,56.0,0,240,3.0,0.0
7492,53.0,493,427,5.0,0.0
7493,68.0,0,427,1.0,0.0
7494,61.0,7,180,3.0,0.0
7495,30.0,0,442,5.0,0.0
7496,70.0,0,442,1.0,0.0
7497,78.0,0,400,1.0,0.0
7498,34.0,0,402,5.0,0.0
7499,82.0,0,360,1.0,0.0
7500,37.0,2,360,5.0,0.0
7501,85.0,0,320,1.0,0.0
7502,42.0,478,322,5.0,0.0
7503,34.0,2,440,5.0,0.0
7504,66.0,0,442,1.0,0.0
7505,37.0,0,402,5.0,0.0
7506,73.0,0,400,1.0,0.0
7507,78.0,0,362,1.0,0.0
7508,42.0,0,360,5.0,0.0
7509,49.0,0,320,5.0,0.0
7510,82.0,478,322,1.0,0.0
7511,37.0,478,442,5.0,0.0
7512,61.0,0,440,1.0,0.0
7513,42.0,0,400,5.0,0.0
7514,70.0,0,400,1.0,0.0
7515,73.0,0,362,1.0,0.0
7516,46.0,0,362,5.0,0.0
7517,78.0,0,320,1.0,0.0
7518,54.0,2,320,5.0,0.0
7519,42.0,473,442,5.0,0.0
7520,58.0,0,442,5.0,0.0
7521,46.0,0,402,5.0,0.0
7522,61.0,0,400,1.0,0.0
7523,70.0,0,360,1.0,0.0
7524,49.0,0,360,5.0,0.0
7525,73.0,2,320,1.0,0.0
7526,66.0,2,435,1.0,0.0
7527,61.0,0,442,1.0,0.0
7528,42.0,2,440,5.0,0.0
7529,45.0,0,402,5.0,0.0
7530,69.0,0,400,1.0,0.0
7531,73.0,3,357,1.0,0.0
7532,49.0,0,360,5.0,0.0
7533,57.0,955,322,5.0,0.0
7534,75.0,0,322,1.0,0.0
7535,61.0,3,917,1.0,0.0
7536,37.0,120,922,5.0,0.0
7537,68.0,0,882,1.0,0.0
7538,41.0,0,882,5.0,0.0
7539,73.0,0,842,1.0,0.0
7540,44.0,0,842,5.0,0.0
7541,77.0,0,800,1.0,0.0
7542,56.0,398,922,5.0,0.0
7543,49.0,2,800,5.0,0.0
7544,37.0,0,480,5.0,0.0
7545,73.0,0,480,1.0,0.0
7546,56.0,0,480,5.0,0.0
7547,49.0,5,475,5.0,0.0
7548,61.0,40,0,1.0,0.0
7549,37.0,40,480,5.0,0.0
7550,41.0,0,0,5.0,0.0
7551,68.0,40,0,1.0,0.0
7552,44.0,35,0,5.0,0.0
7553,77.0,360,0,1.0,0.0
7554,56.0,0,480,5.0,0.0
7555,49.0,1780,480,5.0,0.0
7556,61.0,0,0,1.0,0.0
7557,37.0,1000,1920,5.0,0.0
7558,68.0,40,0,1.0,0.0
7559,41.0,5,1860,5.0,0.0
7560,44.0,0,0,5.0,0.0
7561,73.0,40,0,1.0,0.0
7562,56.0,5,1790,5.0,0.0
7563,49.0,5,1795,5.0,0.0
7564,77.0,0,1785,1.0,0.0
7565,52.0,40,40,1.0,0.0
7566,55.0,40,40,1.0,0.0
7567,58.0,40,40,1.0,0.0
7568,61.0,40,40,1.0,0.0
7569,64.0,40,40,1.0,0.0
7570,67.0,40,40,1.0,0.0
7571,70.0,40,40,1.0,0.0
7572,73.0,40,40,1.0,0.0
7573,76.0,40,40,1.0,0.0
7574,79.0,40,40,1.0,0.0
7575,82.0,280,40,1.0,0.0
7576,73.0,120,240,1.0,0.0
7577,28.0,0,360,5.0,0.0
7578,40.0,360,360,5.0,0.0
7579,85.0,0,240,1.0,0.0
7580,52.0,120,240,3.0,0.0
7581,58.0,0,240,3.0,0.0
7582,61.0,0,240,3.0,0.0
7583,72.0,0,120,1.0,0.0
7584,84.0,360,120,1.0,0.0
7585,67.0,0,240,1.0,0.0
7586,70.0,0,240,1.0,0.0
7587,82.0,600,240,1.0,0.0
7588,58.0,0,240,3.0,0.0
7589,61.0,0,240,3.0,0.0
7590,29.0,0,360,5.0,0.0
7591,41.0,0,360,5.0,0.0
7592,80.0,0,120,1.0,0.0
7593,68.0,360,120,1.0,0.0
7594,67.0,0,240,1.0,0.0
7595,79.0,0,240,1.0,0.0
7596,61.0,0,240,3.0,0.0
7597,56.0,0,240,3.0,0.0
7598,53.0,480,240,3.0,0.0
7599,61.0,480,240,3.0,0.0
7600,56.0,0,240,3.0,0.0
7601,77.0,0,240,1.0,0.0
7602,65.0,0,240,1.0,0.0
7603,31.0,360,360,5.0,0.0
7604,43.0,0,360,5.0,0.0
7605,76.0,0,240,1.0,0.0
7606,64.0,120,240,1.0,0.0
7607,70.0,0,240,2.0,0.0
7608,73.0,0,240,2.0,0.0
7609,77.0,0,240,1.0,0.0
7610,65.0,0,240,1.0,0.0
7611,55.0,432,240,3.0,0.0
7612,58.0,0,240,3.0,0.0
7613,61.0,0,240,3.0,0.0
7614,67.0,0,192,1.0,0.0
7615,79.0,48,192,1.0,0.0
7616,61.0,600,240,3.0,0.0
7617,58.0,0,240,3.0,0.0
7618,64.0,0,240,3.0,0.0
7619,44.0,360,360,5.0,0.0
7620,32.0,0,360,5.0,0.0
7621,65.0,73,1207,2.0,0.0
7622,60.0,225,960,1.0,0.0
7623,72.0,15,1185,1.0,0.0
7624,53.0,240,240,3.0,0.0
7625,56.0,0,240,3.0,0.0
7626,56.0,7,240,3.0,0.0
7627,60.0,0,240,3.0,0.0
7628,72.0,80,80,1.0,0.0
7629,74.0,80,80,1.0,0.0
7630,76.0,240,80,1.0,0.0
7631,65.0,120,240,1.0,0.0
7632,45.0,360,360,5.0,0.0
7633,33.0,0,360,5.0,0.0
7634,77.0,0,240,1.0,0.0
7635,53.0,120,240,3.0,0.0
7636,60.0,0,240,3.0,0.0
7637,64.0,360,120,1.0,0.0
7638,76.0,0,120,1.0,0.0
7639,63.0,0,240,3.0,0.0
7640,60.0,0,240,3.0,0.0
7641,65.0,600,240,1.0,0.0
7642,77.0,0,240,1.0,0.0
7643,34.0,0,360,5.0,0.0
7644,46.0,0,360,5.0,0.0
7645,80.0,0,120,1.0,0.0
7646,68.0,360,120,1.0,0.0
7647,77.0,0,240,1.0,0.0
7648,65.0,0,240,1.0,0.0
7649,53.0,0,240,3.0,0.0
7650,61.0,0,240,3.0,0.0
7651,58.0,480,240,3.0,0.0
7652,66.0,0,240,1.0,0.0
7653,61.0,0,240,3.0,0.0
7654,58.0,0,240,3.0,0.0
7655,78.0,600,240,1.0,0.0
7656,48.0,0,360,5.0,0.0
7657,36.0,360,360,5.0,0.0
7658,70.0,0,120,1.0,0.0
7659,82.0,0,120,1.0,0.0
7660,68.0,480,240,1.0,0.0
7661,80.0,0,240,1.0,0.0
7662,63.0,0,240,3.0,0.0
7663,53.0,0,240,3.0,0.0
7664,60.0,0,240,3.0,0.0
7665,69.0,0,240,1.0,0.0
7666,60.0,0,240,3.0,0.0
7667,63.0,480,240,3.0,0.0
7668,65.0,0,240,3.0,0.0
7669,81.0,0,240,1.0,0.0
7670,49.0,0,360,5.0,0.0
7671,72.0,0,240,1.0,0.0
7672,37.0,360,360,5.0,0.0
7673,84.0,120,240,1.0,0.0
7674,61.0,393,240,3.0,0.0
7675,82.0,39,641,1.0,0.0
7676,58.0,0,240,3.0,0.0
7677,53.0,0,240,3.0,0.0
7678,70.0,0,641,1.0,0.0
7679,65.0,0,161,3.0,0.0
7680,61.0,0,161,3.0,0.0
7681,58.0,8,153,3.0,0.0
7682,71.0,40,40,1.0,0.0
7683,74.0,40,40,1.0,0.0
7684,77.0,40,40,1.0,0.0
7685,80.0,40,40,1.0,0.0
7686,83.0,40,40,1.0,0.0
7687,86.0,40,40,1.0,0.0
7688,89.0,40,40,1.0,0.0
7689,92.0,240,40,1.0,0.0
7690,50.0,360,360,5.0,0.0
7691,38.0,0,360,5.0,0.0
7692,83.0,120,240,1.0,0.0
7693,95.0,0,240,1.0,0.0
7694,62.0,120,240,3.0,0.0
7695,59.0,0,240,3.0,0.0
7696,56.0,0,240,3.0,0.0
7697,53.0,0,240,3.0,0.0
7698,82.0,0,120,1.0,0.0
7699,94.0,360,120,1.0,0.0
7700,80.0,600,240,1.0,0.0
7701,59.0,0,240,3.0,0.0
7702,65.0,0,240,3.0,0.0
7703,92.0,0,240,1.0,0.0
7704,62.0,0,240,3.0,0.0
7705,51.0,0,360,5.0,0.0
7706,39.0,0,360,5.0,0.0
7707,90.0,0,120,1.0,0.0
7708,78.0,360,120,1.0,0.0
7709,77.0,480,240,1.0,0.0
7710,63.0,0,240,3.0,0.0
7711,54.0,0,240,3.0,0.0
7712,89.0,0,240,1.0,0.0
7713,58.0,0,240,3.0,0.0
7714,87.0,0,240,1.0,0.0
7715,66.0,0,240,3.0,0.0
7716,58.0,0,240,3.0,0.0
7717,63.0,480,240,3.0,0.0
7718,75.0,0,240,1.0,0.0
7719,80.0,0,240,2.0,0.0
7720,83.0,0,240,2.0,0.0
7721,53.0,360,360,5.0,0.0
7722,41.0,0,360,5.0,0.0
7723,86.0,120,240,1.0,0.0
7724,74.0,0,240,1.0,0.0
7725,56.0,0,240,3.0,0.0
7726,75.0,0,240,1.0,0.0
7727,87.0,0,240,1.0,0.0
7728,59.0,432,240,3.0,0.0
7729,62.0,0,240,3.0,0.0
7730,77.0,0,192,1.0,0.0
7731,89.0,48,192,1.0,0.0
7732,62.0,600,240,3.0,0.0
7733,68.0,0,240,3.0,0.0
7734,59.0,0,240,3.0,0.0
7735,82.0,7,1200,1.0,0.0
7736,75.0,73,1207,2.0,0.0
7737,42.0,360,360,5.0,0.0
7738,54.0,0,360,5.0,0.0
7739,70.0,0,1200,1.0,0.0
7740,63.0,480,240,3.0,0.0
7741,58.0,0,240,3.0,0.0
7742,54.0,0,240,3.0,0.0
7743,58.0,0,240,3.0,0.0
7744,66.0,0,240,3.0,0.0
7745,63.0,0,240,3.0,0.0
7746,81.0,80,80,1.0,0.0
7747,82.0,80,80,1.0,0.0
7748,84.0,240,80,1.0,0.0
7749,73.0,0,240,1.0,0.0
7750,43.0,360,360,5.0,0.0
7751,55.0,0,360,5.0,0.0
7752,85.0,120,240,1.0,0.0
7753,55.0,0,240,3.0,0.0
7754,58.0,120,240,3.0,0.0
7755,61.0,0,240,3.0,0.0
7756,81.0,0,120,1.0,0.0
7757,69.0,360,120,1.0,0.0
7758,70.0,0,240,1.0,0.0
7759,82.0,0,240,1.0,0.0
7760,64.0,600,240,3.0,0.0
7761,61.0,0,240,3.0,0.0
7762,58.0,0,240,3.0,0.0
7763,56.0,0,360,5.0,0.0
7764,44.0,360,360,5.0,0.0
7765,73.0,0,120,1.0,0.0
7766,85.0,0,120,1.0,0.0
7767,53.0,0,240,3.0,0.0
7768,61.0,480,240,3.0,0.0
7769,56.0,0,240,3.0,0.0
7770,79.0,0,240,1.0,0.0
7771,67.0,0,240,1.0,0.0
7772,68.0,600,240,1.0,0.0
7773,61.0,0,240,3.0,0.0
7774,56.0,0,240,3.0,0.0
7775,80.0,0,240,1.0,0.0
7776,65.0,0,240,3.0,0.0
7777,57.0,0,360,5.0,0.0
7778,45.0,0,360,5.0,0.0
7779,77.0,0,120,1.0,0.0
7780,89.0,360,120,1.0,0.0
7781,76.0,0,240,1.0,0.0
7782,53.0,0,240,4.0,0.0
7783,64.0,480,240,1.0,0.0
7784,60.0,0,240,4.0,0.0
7785,63.0,0,240,4.0,0.0
7786,60.0,0,240,4.0,0.0
7787,65.0,480,240,1.0,0.0
7788,77.0,0,240,1.0,0.0
7789,82.0,240,240,1.0,0.0
7790,46.0,473,1207,5.0,0.0
7791,61.0,2,1165,5.0,0.0
7792,53.0,0,1165,5.0,0.0
7793,94.0,0,200,1.0,0.0
7794,89.0,240,240,1.0,0.0
7795,85.0,240,240,1.0,0.0
7796,82.0,240,240,1.0,0.0
7797,70.0,5,240,1.0,0.0
7798,79.0,0,360,2.0,0.0
7799,73.0,0,360,2.0,0.0
7800,28.0,0,240,5.0,0.0
7801,40.0,120,240,5.0,0.0
7802,82.0,480,360,1.0,0.0
7803,70.0,0,360,1.0,0.0
7804,29.0,0,120,5.0,0.0
7805,41.0,360,120,5.0,0.0
7806,31.0,600,240,5.0,0.0
7807,43.0,0,240,5.0,0.0
7808,72.0,360,360,2.0,0.0
7809,77.0,0,360,2.0,0.0
7810,68.0,0,360,1.0,0.0
7811,80.0,0,360,1.0,0.0
7812,32.0,0,120,5.0,0.0
7813,44.0,0,120,5.0,0.0
7814,46.0,480,240,5.0,0.0
7815,34.0,0,240,5.0,0.0
7816,48.0,480,240,5.0,0.0
7817,36.0,0,240,5.0,0.0
7818,37.0,120,240,5.0,0.0
7819,49.0,0,240,5.0,0.0
7820,65.0,0,360,1.0,0.0
7821,77.0,0,360,1.0,0.0
7822,73.0,0,360,2.0,0.0
7823,70.0,360,360,2.0,0.0
7824,36.0,432,240,5.0,0.0
7825,48.0,0,240,5.0,0.0
7826,46.0,0,192,5.0,0.0
7827,34.0,1368,192,5.0,0.0
7828,60.0,0,1080,1.0,0.0
7829,72.0,0,1080,1.0,0.0
7830,68.0,720,1080,2.0,0.0
7831,53.0,0,1080,5.0,0.0
7832,65.0,0,1080,2.0,0.0
7833,41.0,0,1080,5.0,0.0
7834,71.0,360,1440,1.0,0.0
7835,42.0,360,120,5.0,0.0
7836,40.0,240,240,5.0,0.0
7837,61.0,240,480,3.0,0.0
7838,68.0,0,480,3.0,0.0
7839,41.0,240,240,5.0,0.0
7840,69.0,240,960,1.0,0.0
7841,44.0,360,120,5.0,0.0
7842,61.0,0,480,3.0,0.0
7843,41.0,240,240,5.0,0.0
7844,42.0,240,240,5.0,0.0
7845,66.0,0,480,3.0,0.0
7846,70.0,360,480,1.0,0.0
7847,73.0,0,960,1.0,0.0
7848,46.0,360,120,5.0,0.0
7849,44.0,240,240,5.0,0.0
7850,63.0,240,480,3.0,0.0
7851,65.0,0,480,3.0,0.0
7852,72.0,360,480,1.0,0.0
7853,45.0,240,240,5.0,0.0
7854,75.0,192,960,1.0,0.0
7855,48.0,360,120,5.0,0.0
7856,45.0,240,240,5.0,0.0
7857,65.0,0,480,3.0,0.0
7858,70.0,0,480,3.0,0.0
7859,74.0,240,480,1.0,0.0
7860,46.0,288,192,5.0,0.0
7861,38.0,0,240,5.0,0.0
7862,26.0,120,240,5.0,0.0
7863,80.0,480,360,1.0,0.0
7864,77.0,0,360,2.0,0.0
7865,71.0,0,360,2.0,0.0
7866,68.0,0,360,1.0,0.0
7867,39.0,0,120,5.0,0.0
7868,27.0,360,120,5.0,0.0
7869,41.0,600,240,5.0,0.0
7870,29.0,0,240,5.0,0.0
7871,70.0,0,360,2.0,0.0
7872,78.0,0,360,1.0,0.0
7873,66.0,0,360,1.0,0.0
7874,75.0,0,360,2.0,0.0
7875,42.0,360,120,5.0,0.0
7876,30.0,0,120,5.0,0.0
7877,44.0,480,240,5.0,0.0
7878,32.0,0,240,5.0,0.0
7879,34.0,480,240,5.0,0.0
7880,46.0,0,240,5.0,0.0
7881,75.0,0,360,1.0,0.0
7882,71.0,360,360,2.0,0.0
7883,63.0,0,360,1.0,0.0
7884,35.0,120,240,5.0,0.0
7885,47.0,0,240,5.0,0.0
7886,68.0,0,360,2.0,0.0
7887,46.0,0,240,5.0,0.0
7888,34.0,432,240,5.0,0.0
7889,32.0,1368,192,5.0,0.0
7890,44.0,0,192,5.0,0.0
7891,39.0,7,1080,5.0,0.0
7892,51.0,0,1080,5.0,0.0
7893,66.0,0,1080,2.0,0.0
7894,63.0,0,1080,2.0,0.0
7895,58.0,0,1080,1.0,0.0
7896,70.0,713,1087,1.0,0.0
7897,73.0,0,1440,1.0,0.0
7898,42.0,360,120,5.0,0.0
7899,61.0,240,480,3.0,0.0
7900,39.0,240,240,5.0,0.0
7901,40.0,240,240,5.0,0.0
7902,70.0,360,480,3.0,0.0
7903,66.0,0,480,3.0,0.0
7904,78.0,360,1440,1.0,0.0
7905,40.0,360,120,5.0,0.0
7906,38.0,240,240,5.0,0.0
7907,66.0,240,480,3.0,0.0
7908,75.0,0,480,3.0,0.0
7909,71.0,0,480,3.0,0.0
7910,39.0,240,240,5.0,0.0
7911,73.0,0,1440,1.0,0.0
7912,42.0,360,120,5.0,0.0
7913,39.0,240,240,5.0,0.0
7914,61.0,240,480,3.0,0.0
7915,66.0,360,480,3.0,0.0
7916,40.0,240,240,5.0,0.0
7917,70.0,0,480,3.0,0.0
7918,78.0,0,1440,1.0,0.0
7919,40.0,360,120,5.0,0.0
7920,38.0,240,240,5.0,0.0
7921,66.0,240,480,3.0,0.0
7922,71.0,0,480,3.0,0.0
7923,75.0,360,480,3.0,0.0
7924,39.0,240,240,5.0,0.0
7925,61.0,360,1440,1.0,0.0
7926,42.0,360,120,5.0,0.0
7927,39.0,240,240,5.0,0.0
7928,54.0,240,480,3.0,0.0
7929,58.0,0,480,3.0,0.0
7930,40.0,240,240,5.0,0.0
7931,66.0,0,1440,1.0,0.0
7932,40.0,360,120,5.0,0.0
7933,38.0,240,240,5.0,0.0
7934,54.0,240,480,3.0,0.0
7935,58.0,0,480,3.0,0.0
7936,60.0,360,480,3.0,0.0
7937,39.0,240,240,5.0,0.0
7938,65.0,0,1440,1.0,0.0
7939,42.0,360,120,5.0,0.0
7940,40.0,240,240,5.0,0.0
7941,51.0,240,480,3.0,0.0
7942,60.0,0,480,3.0,0.0
7943,41.0,240,240,5.0,0.0
7944,57.0,240,480,3.0,0.0
7945,34.0,240,480,5.0,0.0
7946,94.0,0,240,1.0,0.0
7947,82.0,240,240,2.0,0.0
7948,89.0,0,240,1.0,0.0
7949,85.0,240,240,1.0,0.0
7950,82.0,240,240,1.0,0.0
7951,70.0,1200,240,1.0,0.0
7952,46.0,0,960,5.0,0.0
7953,34.0,720,960,5.0,0.0
7954,35.0,960,1920,5.0,0.0
7955,80.0,240,240,2.0,0.0
7956,75.0,240,240,2.0,0.0
7957,71.0,240,240,2.0,0.0
7958,68.0,240,240,2.0,0.0
7959,56.0,240,240,2.0,0.0
7960,47.0,0,0,5.0,0.0
7961,35.0,720,960,5.0,0.0
7962,36.0,0,1920,5.0,0.0
7963,90.0,240,240,2.0,0.0
7964,87.0,240,240,2.0,0.0
7965,80.0,240,240,2.0,0.0
7966,78.0,240,240,2.0,0.0
7967,66.0,240,240,2.0,0.0
7968,48.0,960,0,5.0,0.0
7969,36.0,0,960,5.0,0.0
7970,49.0,0,1440,5.0,0.0
7971,37.0,240,1440,5.0,0.0
7972,89.0,240,240,2.0,0.0
7973,85.0,240,240,2.0,0.0
7974,80.0,240,240,2.0,0.0
7975,77.0,0,240,2.0,0.0
7976,41.0,360,360,5.0,0.0
7977,73.0,120,240,2.0,0.0
7978,53.0,0,360,5.0,0.0
7979,56.0,240,960,5.0,0.0
7980,44.0,0,960,5.0,0.0
7981,87.0,240,240,2.0,0.0
7982,84.0,240,240,2.0,0.0
7983,80.0,240,240,2.0,0.0
7984,75.0,0,240,2.0,0.0
7985,72.0,120,240,2.0,0.0
7986,48.0,360,360,5.0,0.0
7987,60.0,0,360,5.0,0.0
7988,90.0,240,240,2.0,0.0
7989,51.0,0,960,5.0,0.0
7990,39.0,240,960,5.0,0.0
7991,87.0,240,240,2.0,0.0
7992,82.0,240,240,2.0,0.0
7993,78.0,0,240,2.0,0.0
7994,42.0,0,360,5.0,0.0
7995,54.0,360,360,5.0,0.0
7996,75.0,120,240,2.0,0.0
7997,56.0,240,960,5.0,0.0
7998,44.0,0,960,5.0,0.0
7999,87.0,240,240,2.0,0.0
8000,83.0,240,240,2.0,0.0
8001,80.0,240,240,2.0,0.0
8002,75.0,0,240,2.0,0.0
8003,59.0,0,360,5.0,0.0
8004,71.0,120,240,2.0,0.0
8005,47.0,360,360,5.0,0.0
8006,92.0,240,240,2.0,0.0
8007,40.0,240,960,5.0,0.0
8008,52.0,0,960,5.0,0.0
8009,88.0,240,240,2.0,0.0
8010,83.0,240,240,2.0,0.0
8011,80.0,0,240,2.0,0.0
8012,44.0,0,360,5.0,0.0
8013,76.0,120,240,2.0,0.0
8014,56.0,360,360,5.0,0.0
8015,90.0,240,240,2.0,0.0
8016,59.0,240,960,5.0,0.0
8017,47.0,0,960,5.0,0.0
8018,87.0,240,240,2.0,0.0
8019,83.0,240,240,2.0,0.0
8020,78.0,0,240,2.0,0.0
8021,75.0,120,240,2.0,0.0
8022,63.0,0,360,5.0,0.0
8023,51.0,360,360,5.0,0.0
8024,42.0,0,960,5.0,0.0
8025,54.0,0,960,5.0,0.0
8026,93.0,240,240,2.0,0.0
8027,90.0,240,240,2.0,0.0
8028,85.0,240,240,2.0,0.0
8029,81.0,240,240,2.0,0.0
8030,78.0,120,240,2.0,0.0
8031,57.0,0,360,5.0,0.0
8032,45.0,360,360,5.0,0.0
8033,90.0,240,240,2.0,0.0
8034,59.0,0,960,5.0,0.0
8035,47.0,240,960,5.0,0.0
8036,86.0,240,240,2.0,0.0
8037,83.0,240,240,2.0,0.0
8038,78.0,0,240,2.0,0.0
8039,62.0,360,360,5.0,0.0
8040,50.0,0,360,5.0,0.0
8041,74.0,120,240,2.0,0.0
8042,43.0,0,960,5.0,0.0
8043,95.0,240,240,2.0,0.0
8044,55.0,0,960,5.0,0.0
8045,89.0,240,240,2.0,0.0
8046,86.0,240,240,2.0,0.0
8047,83.0,240,240,2.0,0.0
8048,59.0,0,360,5.0,0.0
8049,47.0,360,360,5.0,0.0
8050,77.0,120,240,2.0,0.0
8051,96.0,240,240,2.0,0.0
8052,55.0,0,960,5.0,0.0
8053,43.0,0,960,5.0,0.0
8054,91.0,240,240,2.0,0.0
8055,88.0,240,240,2.0,0.0
8056,84.0,240,240,2.0,0.0
8057,76.0,120,240,2.0,0.0
8058,48.0,360,360,5.0,0.0
8059,60.0,0,360,5.0,0.0
8060,55.0,0,960,5.0,0.0
8061,43.0,0,960,5.0,0.0
8062,97.0,240,240,2.0,0.0
8063,94.0,240,240,2.0,0.0
8064,87.0,240,240,2.0,0.0
8065,85.0,240,240,2.0,0.0
8066,49.0,0,360,5.0,0.0
8067,61.0,360,360,5.0,0.0
8068,75.0,120,240,2.0,0.0
8069,98.0,240,240,2.0,0.0
8070,55.0,0,960,5.0,0.0
8071,43.0,0,960,5.0,0.0
8072,95.0,240,240,2.0,0.0
8073,89.0,240,240,2.0,0.0
8074,86.0,240,240,2.0,0.0
8075,50.0,0,360,5.0,0.0
8076,74.0,120,240,2.0,0.0
8077,62.0,360,360,5.0,0.0
8078,101.0,120,240,2.0,0.0
8079,55.0,120,360,5.0,0.0
8080,43.0,0,360,5.0,0.0
8081,95.0,240,240,2.0,0.0
8082,92.0,240,240,2.0,0.0
8083,89.0,240,240,2.0,0.0
8084,83.0,480,240,2.0,0.0
8085,56.0,240,1440,5.0,0.0
8086,68.0,0,1440,5.0,0.0
8087,100.0,240,240,2.0,0.0
8088,96.0,240,240,2.0,0.0
8089,91.0,240,240,2.0,0.0
8090,88.0,0,240,2.0,0.0
8091,55.0,360,360,5.0,0.0
8092,67.0,0,360,5.0,0.0
8093,84.0,120,240,2.0,0.0
8094,55.0,120,360,5.0,0.0
8095,43.0,0,360,5.0,0.0
8096,99.0,120,240,2.0,0.0
8097,96.0,240,240,2.0,0.0
8098,93.0,240,240,2.0,0.0
8099,87.0,240,240,2.0,0.0
8100,81.0,480,240,2.0,0.0
8101,54.0,0,1440,5.0,0.0
8102,66.0,0,1440,5.0,0.0
8103,98.0,240,240,2.0,0.0
8104,95.0,240,240,2.0,0.0
8105,92.0,240,240,2.0,0.0
8106,86.0,240,240,2.0,0.0
8107,65.0,0,360,5.0,0.0
8108,53.0,360,360,5.0,0.0
8109,83.0,120,240,2.0,0.0
8110,43.0,120,360,5.0,0.0
8111,55.0,0,360,5.0,0.0
8112,96.0,120,240,2.0,0.0
8113,91.0,240,240,2.0,0.0
8114,88.0,240,240,2.0,0.0
8115,84.0,240,240,2.0,0.0
8116,79.0,480,240,2.0,0.0
8117,52.0,0,1440,5.0,0.0
8118,64.0,0,1440,5.0,0.0
8119,93.0,240,240,2.0,0.0
8120,90.0,240,240,2.0,0.0
8121,84.0,240,240,2.0,0.0
8122,81.0,240,240,2.0,0.0
8123,63.0,0,360,5.0,0.0
8124,51.0,360,360,5.0,0.0
8125,78.0,120,240,2.0,0.0
8126,55.0,0,360,5.0,0.0
8127,43.0,120,360,5.0,0.0
8128,90.0,120,240,2.0,0.0
8129,87.0,240,240,2.0,0.0
8130,81.0,240,240,2.0,0.0
8131,78.0,240,240,2.0,0.0
8132,60.0,240,1440,5.0,0.0
8133,75.0,480,240,2.0,0.0
8134,48.0,0,1440,5.0,0.0
8135,87.0,240,240,2.0,0.0
8136,84.0,240,240,2.0,0.0
8137,78.0,240,240,2.0,0.0
8138,75.0,0,240,2.0,0.0
8139,57.0,360,360,5.0,0.0
8140,72.0,120,240,2.0,0.0
8141,45.0,0,360,5.0,0.0
8142,55.0,120,360,5.0,0.0
8143,43.0,0,360,5.0,0.0
8144,83.0,120,240,2.0,0.0
8145,79.0,240,240,2.0,0.0
8146,74.0,240,240,2.0,0.0
8147,71.0,240,240,2.0,0.0
8148,67.0,480,240,2.0,0.0
8149,43.0,600,240,5.0,0.0
8150,44.0,360,120,5.0,0.0
8151,43.0,480,240,5.0,0.0
8152,71.0,240,240,2.0,0.0
8153,67.0,240,240,2.0,0.0
8154,62.0,240,240,2.0,0.0
8155,59.0,240,240,2.0,0.0
8156,55.0,480,240,2.0,0.0
8157,43.0,600,240,5.0,0.0
8158,44.0,360,120,5.0,0.0
8159,43.0,1080,240,5.0,0.0
8160,44.0,360,120,5.0,0.0
8161,56.0,0,120,5.0,0.0
8162,55.0,0,240,5.0,0.0
8163,43.0,1080,240,5.0,0.0
8164,44.0,360,120,5.0,0.0
8165,56.0,0,120,5.0,0.0
8166,55.0,0,240,5.0,0.0
8167,43.0,1080,240,5.0,0.0
8168,44.0,0,120,5.0,0.0
8169,56.0,360,120,5.0,0.0
8170,43.0,0,240,5.0,0.0
8171,55.0,480,240,5.0,0.0
8172,44.0,120,240,5.0,0.0
8173,68.0,360,120,1.0,0.0
8174,56.0,0,120,1.0,0.0
8175,43.0,120,240,5.0,0.0
8176,67.0,0,120,1.0,0.0
8177,55.0,360,120,1.0,0.0
8178,41.0,120,240,5.0,0.0
8179,53.0,360,120,1.0,0.0
8180,65.0,0,120,1.0,0.0
8181,85.0,0,240,1.0,0.0
8182,28.0,0,360,5.0,0.0
8183,40.0,360,360,5.0,0.0
8184,73.0,120,240,1.0,0.0
8185,58.0,0,240,3.0,0.0
8186,61.0,120,240,3.0,0.0
8187,52.0,0,240,3.0,0.0
8188,72.0,360,120,1.0,0.0
8189,84.0,0,120,1.0,0.0
8190,67.0,0,240,3.0,0.0
8191,58.0,0,240,3.0,0.0
8192,82.0,0,240,1.0,0.0
8193,70.0,600,240,1.0,0.0
8194,61.0,0,240,3.0,0.0
8195,41.0,0,360,5.0,0.0
8196,29.0,0,360,5.0,0.0
8197,80.0,360,120,1.0,0.0
8198,68.0,0,120,1.0,0.0
8199,53.0,0,240,3.0,0.0
8200,61.0,0,240,3.0,0.0
8201,56.0,0,240,3.0,0.0
8202,79.0,0,240,1.0,0.0
8203,67.0,480,240,1.0,0.0
8204,77.0,0,240,1.0,0.0
8205,65.0,0,240,1.0,0.0
8206,61.0,480,240,3.0,0.0
8207,56.0,0,240,3.0,0.0
8208,49.0,0,240,5.0,0.0
8209,76.0,0,240,1.0,0.0
8210,64.0,480,240,1.0,0.0
8211,61.0,0,240,5.0,0.0
8212,70.0,0,240,2.0,0.0
8213,73.0,0,240,2.0,0.0
8214,65.0,120,240,1.0,0.0
8215,77.0,0,240,1.0,0.0
8216,60.0,360,120,5.0,0.0
8217,48.0,0,120,5.0,0.0
8218,46.0,0,240,5.0,0.0
8219,58.0,0,240,5.0,0.0
8220,79.0,600,240,1.0,0.0
8221,67.0,0,240,1.0,0.0
8222,60.0,7,1185,1.0,0.0
8223,72.0,8,1192,1.0,0.0
8224,65.0,80,1200,2.0,0.0
8225,56.0,360,120,5.0,0.0
8226,44.0,0,120,5.0,0.0
8227,55.0,0,240,5.0,0.0
8228,43.0,465,240,5.0,0.0
8229,53.0,0,240,5.0,0.0
8230,41.0,0,240,5.0,0.0
8231,72.0,80,80,1.0,0.0
8232,74.0,80,80,1.0,0.0
8233,76.0,240,80,1.0,0.0
8234,39.0,0,360,5.0,0.0
8235,51.0,360,360,5.0,0.0
8236,65.0,120,240,1.0,0.0
8237,77.0,0,240,1.0,0.0
8238,57.0,120,240,3.0,0.0
8239,51.0,0,240,3.0,0.0
8240,53.0,0,240,3.0,0.0
8241,64.0,360,120,1.0,0.0
8242,76.0,0,120,1.0,0.0
8243,60.0,0,240,3.0,0.0
8244,57.0,600,240,3.0,0.0
8245,53.0,0,240,3.0,0.0
8246,65.0,0,240,1.0,0.0
8247,77.0,0,240,1.0,0.0
8248,49.0,360,360,5.0,0.0
8249,37.0,0,360,5.0,0.0
8250,68.0,0,120,1.0,0.0
8251,80.0,0,120,1.0,0.0
8252,77.0,480,240,1.0,0.0
8253,65.0,0,240,1.0,0.0
8254,58.0,0,240,3.0,0.0
8255,53.0,0,240,3.0,0.0
8256,58.0,0,240,3.0,0.0
8257,61.0,0,240,3.0,0.0
8258,66.0,0,240,1.0,0.0
8259,78.0,600,240,1.0,0.0
8260,36.0,360,360,5.0,0.0
8261,48.0,0,360,5.0,0.0
8262,82.0,0,120,1.0,0.0
8263,70.0,0,120,1.0,0.0
8264,80.0,0,240,1.0,0.0
8265,60.0,480,240,3.0,0.0
8266,63.0,0,240,3.0,0.0
8267,53.0,0,240,3.0,0.0
8268,68.0,0,240,1.0,0.0
8269,60.0,0,240,3.0,0.0
8270,81.0,0,240,1.0,0.0
8271,63.0,0,240,3.0,0.0
8272,69.0,0,240,1.0,0.0
8273,65.0,480,240,3.0,0.0
8274,72.0,120,240,1.0,0.0
8275,84.0,0,240,1.0,0.0
8276,46.0,360,360,5.0,0.0
8277,34.0,0,360,5.0,0.0
8278,58.0,0,240,3.0,0.0
8279,70.0,26,615,1.0,0.0
8280,82.0,39,641,1.0,0.0
8281,53.0,375,240,3.0,0.0
8282,61.0,0,240,3.0,0.0
8283,61.0,0,240,3.0,0.0
8284,58.0,0,240,3.0,0.0
8285,65.0,0,240,3.0,0.0
8286,71.0,40,40,1.0,0.0
8287,74.0,40,40,1.0,0.0
8288,77.0,40,40,1.0,0.0
8289,80.0,40,40,1.0,0.0
8290,83.0,40,40,1.0,0.0
8291,86.0,40,40,1.0,0.0
8292,89.0,40,40,1.0,0.0
8293,92.0,240,40,1.0,0.0
8294,38.0,0,240,5.0,0.0
8295,50.0,480,240,5.0,0.0
8296,83.0,0,240,1.0,0.0
8297,95.0,0,240,1.0,0.0
8298,39.0,120,240,5.0,0.0
8299,51.0,0,240,5.0,0.0
8300,94.0,360,120,1.0,0.0
8301,82.0,0,120,1.0,0.0
8302,41.0,0,240,5.0,0.0
8303,53.0,480,240,5.0,0.0
8304,80.0,0,240,1.0,0.0
8305,92.0,0,240,1.0,0.0
8306,46.0,120,240,5.0,0.0
8307,58.0,0,240,5.0,0.0
8308,90.0,360,120,1.0,0.0
8309,78.0,0,120,1.0,0.0
8310,44.0,0,240,5.0,0.0
8311,77.0,480,240,1.0,0.0
8312,89.0,0,240,1.0,0.0
8313,56.0,0,240,5.0,0.0
8314,87.0,0,240,1.0,0.0
8315,42.0,0,240,5.0,0.0
8316,54.0,0,240,5.0,0.0
8317,75.0,0,240,1.0,0.0
8318,73.0,40,40,1.0,0.0
8319,79.0,40,40,1.0,0.0
8320,82.0,40,40,1.0,0.0
8321,85.0,40,0,1.0,0.0
8322,91.0,40,40,1.0,0.0
8323,94.0,240,40,1.0,0.0
8324,97.0,480,240,1.0,0.0
8325,85.0,0,240,1.0,0.0
8326,52.0,0,240,5.0,0.0
8327,40.0,0,240,5.0,0.0
8328,41.0,0,240,5.0,0.0
8329,53.0,120,240,5.0,0.0
8330,84.0,360,120,1.0,0.0
8331,96.0,0,120,1.0,0.0
8332,55.0,0,240,5.0,0.0
8333,82.0,480,240,1.0,0.0
8334,43.0,0,240,5.0,0.0
8335,94.0,0,240,1.0,0.0
8336,60.0,0,240,5.0,0.0
8337,48.0,120,240,5.0,0.0
8338,92.0,360,120,1.0,0.0
8339,80.0,0,120,1.0,0.0
8340,91.0,480,240,1.0,0.0
8341,79.0,0,240,1.0,0.0
8342,58.0,0,240,5.0,0.0
8343,46.0,0,240,5.0,0.0
8344,44.0,0,240,5.0,0.0
8345,77.0,40,240,1.0,0.0
8346,89.0,0,240,1.0,0.0
8347,56.0,0,240,5.0,0.0
8348,78.0,0,40,1.0,0.0
8349,84.0,40,40,1.0,0.0
8350,87.0,40,40,1.0,0.0
8351,90.0,40,0,1.0,0.0
8352,96.0,40,40,1.0,0.0
8353,99.0,240,40,1.0,0.0
8354,45.0,0,280,5.0,0.0
8355,60.0,0,240,5.0,0.0
8356,51.0,0,240,5.0,0.0
8357,48.0,600,240,5.0,0.0
8358,54.0,0,240,5.0,0.0
8359,90.0,0,240,1.0,0.0
8360,102.0,0,240,1.0,0.0
8361,87.0,0,120,1.0,0.0
8362,75.0,0,120,5.0,0.0
8363,99.0,360,120,1.0,0.0
8364,72.0,0,240,5.0,0.0
8365,84.0,0,240,1.0,0.0
8366,96.0,480,240,1.0,0.0
8367,69.0,120,240,5.0,0.0
8368,81.0,360,120,1.0,0.0
8369,93.0,0,120,1.0,0.0
8370,66.0,120,240,5.0,0.0
8371,78.0,360,120,1.0,0.0
8372,90.0,0,120,1.0,0.0
8373,63.0,120,240,5.0,0.0
8374,87.0,0,120,1.0,0.0
8375,75.0,360,120,1.0,0.0
8376,60.0,120,240,5.0,0.0
8377,72.0,360,120,1.0,0.0
8378,84.0,0,120,1.0,0.0
8379,57.0,120,240,5.0,0.0
8380,81.0,0,120,1.0,0.0
8381,69.0,360,120,1.0,0.0
8382,54.0,120,240,5.0,0.0
8383,78.0,0,120,1.0,0.0
8384,66.0,360,120,1.0,0.0
8385,51.0,120,240,5.0,0.0
8386,75.0,360,120,1.0,0.0
8387,63.0,0,120,1.0,0.0
8388,48.0,120,240,5.0,0.0
8389,60.0,0,120,1.0,0.0
8390,72.0,360,120,1.0,0.0
8391,45.0,120,240,5.0,0.0
8392,57.0,0,120,1.0,0.0
8393,69.0,360,120,1.0,0.0
8394,42.0,120,240,5.0,0.0
8395,54.0,360,120,1.0,0.0
8396,66.0,0,120,1.0,0.0
8397,41.0,120,240,5.0,0.0
8398,53.0,360,120,1.0,0.0
8399,65.0,0,120,1.0,0.0
8400,39.0,120,240,5.0,0.0
8401,63.0,1080,120,1.0,0.0
8402,51.0,0,120,1.0,0.0
8403,50.0,0,960,5.0,0.0
8404,38.0,0,960,5.0,0.0
8405,62.0,240,960,1.0,0.0
8406,70.0,40,240,1.0,0.0
8407,49.0,0,240,5.0,0.0
8408,77.0,0,240,1.0,0.0
8409,53.0,40,240,5.0,0.0
8410,58.0,40,240,5.0,0.0
8411,65.0,1080,240,5.0,0.0
8412,82.0,0,240,1.0,0.0
8413,49.0,0,960,5.0,0.0
8414,37.0,0,960,5.0,0.0
8415,61.0,240,960,1.0,0.0
8416,49.0,0,240,5.0,0.0
8417,70.0,40,240,1.0,0.0
8418,53.0,40,240,5.0,0.0
8419,77.0,0,240,1.0,0.0
8420,58.0,40,240,5.0,0.0
8421,65.0,0,240,5.0,0.0
8422,82.0,1080,240,1.0,0.0
8423,36.0,0,960,5.0,0.0
8424,60.0,0,960,1.0,0.0
8425,48.0,240,0,5.0,0.0
8426,68.0,0,240,1.0,0.0
8427,53.0,40,240,5.0,0.0
8428,72.0,0,240,1.0,0.0
8429,56.0,0,240,5.0,0.0
8430,77.0,40,240,1.0,0.0
8431,80.0,0,240,1.0,0.0
8432,65.0,1080,240,5.0,0.0
8433,34.0,0,960,5.0,0.0
8434,46.0,0,960,5.0,0.0
8435,58.0,240,960,1.0,0.0
8436,67.0,0,240,1.0,0.0
8437,52.0,40,240,5.0,0.0
8438,72.0,0,240,1.0,0.0
8439,55.0,40,240,5.0,0.0
8440,76.0,0,240,1.0,0.0
8441,60.0,40,240,5.0,0.0
8442,64.0,1080,240,5.0,0.0
8443,79.0,0,240,1.0,0.0
8444,32.0,0,960,5.0,0.0
8445,56.0,240,960,1.0,0.0
8446,44.0,0,960,5.0,0.0
8447,53.0,40,240,5.0,0.0
8448,72.0,0,240,1.0,0.0
8449,77.0,40,240,1.0,0.0
8450,56.0,0,240,5.0,0.0
8451,80.0,40,240,1.0,0.0
8452,60.0,0,240,5.0,0.0
8453,65.0,0,240,5.0,0.0
8454,84.0,1080,240,1.0,0.0
8455,58.0,240,960,1.0,0.0
8456,46.0,0,960,5.0,0.0
8457,34.0,0,960,5.0,0.0
8458,70.0,40,240,1.0,0.0
8459,46.0,0,240,5.0,0.0
8460,49.0,40,240,5.0,0.0
8461,73.0,0,240,1.0,0.0
8462,78.0,40,240,1.0,0.0
8463,54.0,0,240,5.0,0.0
8464,82.0,0,240,1.0,0.0
8465,61.0,1080,240,5.0,0.0
8466,60.0,240,960,1.0,0.0
8467,36.0,0,960,5.0,0.0
8468,48.0,0,0,5.0,0.0
8469,68.0,40,240,1.0,0.0
8470,72.0,40,240,1.0,0.0
8471,53.0,0,240,5.0,0.0
8472,56.0,40,240,5.0,0.0
8473,77.0,0,240,1.0,0.0
8474,65.0,1080,240,5.0,0.0
8475,80.0,0,240,1.0,0.0
8476,48.0,0,960,5.0,0.0
8477,36.0,0,960,5.0,0.0
8478,60.0,240,960,1.0,0.0
8479,52.0,0,240,5.0,0.0
8480,67.0,40,240,1.0,0.0
8481,70.0,0,240,1.0,0.0
8482,55.0,40,240,5.0,0.0
8483,60.0,40,240,5.0,0.0
8484,76.0,0,240,1.0,0.0
8485,64.0,480,240,5.0,0.0
8486,79.0,0,240,1.0,0.0
8487,68.0,0,360,2.0,0.0
8488,56.0,0,360,5.0,0.0
8489,72.0,0,360,2.0,0.0
8490,77.0,0,360,1.0,0.0
8491,65.0,0,360,1.0,0.0
8492,48.0,840,360,5.0,0.0
8493,41.0,0,360,5.0,0.0
8494,70.0,0,240,2.0,0.0
8495,73.0,0,240,2.0,0.0
8496,53.0,0,240,5.0,0.0
8497,46.0,600,240,5.0,0.0
8498,77.0,0,240,1.0,0.0
8499,65.0,0,240,1.0,0.0
8500,72.0,0,360,2.0,0.0
8501,68.0,0,360,2.0,0.0
8502,41.0,0,360,5.0,0.0
8503,53.0,0,360,5.0,0.0
8504,77.0,840,360,1.0,0.0
8505,65.0,0,360,1.0,0.0
8506,53.0,600,240,1.0,0.0
8507,34.0,0,240,5.0,0.0
8508,58.0,0,240,2.0,0.0
8509,61.0,0,240,2.0,0.0
8510,41.0,0,240,5.0,0.0
8511,65.0,0,240,1.0,0.0
8512,65.0,1440,360,1.0,0.0
8513,53.0,0,360,1.0,0.0
8514,56.0,0,360,2.0,0.0
8515,29.0,0,360,5.0,0.0
8516,60.0,0,360,2.0,0.0
8517,41.0,0,360,5.0,0.0
8518,56.0,0,360,2.0,0.0
8519,41.0,0,360,5.0,0.0
8520,29.0,0,360,5.0,0.0
8521,65.0,5400,360,1.0,0.0
8522,53.0,0,360,1.0,0.0
8523,60.0,0,360,2.0,0.0
8524,65.0,0,1440,1.0,0.0
8525,49.0,2880,1440,5.0,0.0
8526,37.0,0,1440,5.0,0.0
8527,56.0,0,1440,2.0,0.0
8528,53.0,0,1440,2.0,0.0
8529,61.0,0,1440,2.0,0.0
8530,63.0,0,2880,2.0,0.0
8531,56.0,0,2880,2.0,0.0
8532,68.0,0,2880,1.0,0.0
8533,36.0,960,2880,5.0,0.0
8534,48.0,0,2880,5.0,0.0
8535,58.0,0,960,2.0,0.0
8536,66.0,0,960,2.0,0.0
8537,70.0,0,960,1.0,0.0
8538,34.0,480,960,5.0,0.0
8539,46.0,0,960,5.0,0.0
8540,72.0,0,480,1.0,0.0
8541,32.0,0,480,5.0,0.0
8542,68.0,960,480,2.0,0.0
8543,44.0,0,480,5.0,0.0
8544,60.0,0,480,2.0,0.0
8545,30.0,420,2400,5.0,0.0
8546,61.0,480,960,2.0,0.0
8547,70.0,0,960,2.0,0.0
8548,73.0,0,960,1.0,0.0
8549,42.0,0,2400,5.0,0.0
8550,70.0,960,480,1.0,0.0
8551,58.0,0,480,2.0,0.0
8552,66.0,0,480,2.0,0.0
8553,54.0,0,960,2.0,0.0
8554,66.0,0,960,1.0,0.0
8555,63.0,0,960,2.0,0.0
8556,65.0,1500,420,1.0,0.0
8557,43.0,0,420,5.0,0.0
8558,31.0,0,420,5.0,0.0
8559,61.0,0,420,2.0,0.0
8560,53.0,0,420,2.0,0.0
8561,44.0,0,2400,5.0,0.0
8562,32.0,1920,2400,5.0,0.0
8563,65.0,0,1440,1.0,0.0
8564,61.0,0,1440,2.0,0.0
8565,53.0,960,1440,2.0,0.0
8566,63.0,0,960,1.0,0.0
8567,60.0,0,960,2.0,0.0
8568,51.0,0,960,2.0,0.0
8569,49.0,0,1440,5.0,0.0
8570,61.0,0,1440,2.0,0.0
8571,53.0,0,1440,2.0,0.0
8572,65.0,0,1440,1.0,0.0
8573,37.0,2880,1440,5.0,0.0
8574,56.0,0,0,2.0,0.0
8575,63.0,0,2880,2.0,0.0
8576,36.0,0,2880,5.0,0.0
8577,68.0,960,2880,1.0,0.0
8578,48.0,0,2880,5.0,0.0
8579,34.0,0,960,5.0,0.0
8580,46.0,0,960,5.0,0.0
8581,73.0,480,960,1.0,0.0
8582,70.0,0,960,2.0,0.0
8583,61.0,0,960,2.0,0.0
8584,30.0,0,480,5.0,0.0
8585,42.0,0,480,5.0,0.0
8586,72.0,0,480,2.0,0.0
8587,70.0,0,480,2.0,0.0
8588,63.0,960,480,2.0,0.0
8589,75.0,0,480,1.0,0.0
8590,41.0,0,1440,5.0,0.0
8591,77.0,480,960,1.0,0.0
8592,65.0,0,960,2.0,0.0
8593,73.0,0,960,2.0,0.0
8594,29.0,960,1440,5.0,0.0
8595,68.0,0,1440,2.0,0.0
8596,61.0,0,480,2.0,0.0
8597,73.0,0,480,1.0,0.0
8598,30.0,5,1375,5.0,0.0
8599,42.0,5,1380,5.0,0.0
8600,70.0,0,960,1.0,0.0
8601,66.0,0,960,2.0,0.0
8602,58.0,415,960,2.0,0.0
8603,63.0,1495,425,2.0,0.0
8604,54.0,0,425,2.0,0.0
8605,66.0,0,420,1.0,0.0
8606,65.0,0,1440,1.0,0.0
8607,43.0,0,1440,5.0,0.0
8608,53.0,960,1440,2.0,0.0
8609,61.0,0,1440,2.0,0.0
8610,31.0,0,1440,5.0,0.0
8611,63.0,0,960,1.0,0.0
8612,32.0,0,960,5.0,0.0
8613,44.0,720,960,5.0,0.0
8614,51.0,0,960,2.0,0.0
8615,60.0,0,960,2.0,0.0
8616,63.0,0,1440,1.0,0.0
8617,27.0,0,240,5.0,0.0
8618,39.0,480,240,5.0,0.0
8619,58.0,0,1440,2.0,0.0
8620,54.0,1440,1440,2.0,0.0
8621,27.0,0,240,5.0,0.0
8622,39.0,480,240,5.0,0.0
8623,27.0,240,240,5.0,0.0
8624,39.0,0,240,5.0,0.0
8625,66.0,240,2400,1.0,0.0
8626,39.0,240,1440,5.0,0.0
8627,27.0,0,1440,5.0,0.0
8628,63.0,0,2400,2.0,0.0
8629,58.0,0,2400,2.0,0.0
8630,27.0,480,240,5.0,0.0
8631,39.0,0,240,5.0,0.0
8632,27.0,0,240,5.0,0.0
8633,39.0,240,240,5.0,0.0
8634,59.0,1013,427,2.0,0.0
8635,65.0,0,427,1.0,0.0
8636,39.0,180,240,5.0,0.0
8637,27.0,0,240,5.0,0.0
8638,56.0,0,427,2.0,0.0
8639,62.0,7,420,2.0,0.0
8640,62.0,0,960,2.0,0.0
8641,65.0,0,960,2.0,0.0
8642,59.0,0,960,2.0,0.0
8643,68.0,420,960,1.0,0.0
8644,39.0,0,1380,5.0,0.0
8645,27.0,0,1387,5.0,0.0
8646,58.0,0,427,2.0,0.0
8647,63.0,7,420,2.0,0.0
8648,66.0,293,427,1.0,0.0
8649,27.0,480,240,5.0,0.0
8650,65.0,0,1380,2.0,0.0
8651,62.0,7,1380,2.0,0.0
8652,71.0,240,960,1.0,0.0
8653,39.0,0,240,5.0,0.0
8654,68.0,1013,1387,2.0,0.0
8655,27.0,240,240,5.0,0.0
8656,39.0,0,240,5.0,0.0
8657,70.0,0,420,1.0,0.0
8658,27.0,0,240,5.0,0.0
8659,39.0,180,240,5.0,0.0
8660,77.0,420,960,1.0,0.0
8661,39.0,1440,1440,5.0,0.0
8662,27.0,0,1440,5.0,0.0
8663,74.0,0,960,2.0,0.0
8664,71.0,0,960,2.0,0.0
8665,68.0,0,960,2.0,0.0
8666,75.0,53,427,1.0,0.0
8667,70.0,7,420,2.0,0.0
8668,66.0,0,420,2.0,0.0
8669,73.0,0,1440,1.0,0.0
8670,61.0,0,2880,2.0,0.0
8671,67.0,0,2880,2.0,0.0
8672,70.0,0,2880,2.0,0.0
8673,27.0,0,1440,5.0,0.0
8674,39.0,480,1440,5.0,0.0
8675,28.0,0,1440,5.0,0.0
8676,40.0,1440,1440,5.0,0.0
8677,72.0,480,480,1.0,0.0
8678,73.0,480,480,1.0,0.0
8679,72.0,0,480,1.0,0.0
8680,71.0,480,1440,1.0,0.0
8681,61.0,1440,2880,2.0,0.0
8682,68.0,0,1440,2.0,0.0
8683,41.0,0,1440,5.0,0.0
8684,29.0,0,1440,5.0,0.0
8685,30.0,0,1440,5.0,0.0
8686,70.0,480,480,1.0,0.0
8687,66.0,0,1440,2.0,0.0
8688,42.0,0,1440,5.0,0.0
8689,71.0,480,480,1.0,0.0
8690,70.0,0,480,1.0,0.0
8691,31.0,0,1440,5.0,0.0
8692,43.0,0,1440,5.0,0.0
8693,69.0,0,1440,1.0,0.0
8694,64.0,0,1440,2.0,0.0
8695,68.0,480,480,1.0,0.0
8696,32.0,0,1440,5.0,0.0
8697,64.0,0,1440,2.0,0.0
8698,61.0,480,0,2.0,0.0
8699,44.0,0,1440,5.0,0.0
8700,69.0,480,480,1.0,0.0
8701,68.0,0,480,1.0,0.0
8702,33.0,0,1440,5.0,0.0
8703,45.0,2880,1440,5.0,0.0
8704,67.0,0,1440,1.0,0.0
8705,61.0,1440,0,2.0,0.0
8706,63.0,0,1440,2.0,0.0
8707,68.0,1312,2880,1.0,0.0
8708,61.0,0,0,2.0,0.0
8709,32.0,8,4192,5.0,0.0
8710,44.0,0,4207,5.0,0.0
8711,54.0,0,0,2.0,0.0
8712,63.0,1553,1327,1.0,0.0
8713,60.0,0,1320,2.0,0.0
8714,53.0,0,1440,2.0,0.0
8715,37.0,0,1440,5.0,0.0
8716,65.0,0,1440,1.0,0.0
8717,61.0,0,1440,2.0,0.0
8718,49.0,2880,1440,5.0,0.0
8719,68.0,0,2880,1.0,0.0
8720,48.0,0,2880,5.0,0.0
8721,63.0,0,2880,2.0,0.0
8722,56.0,0,0,2.0,0.0
8723,36.0,960,2880,5.0,0.0
8724,70.0,480,960,1.0,0.0
8725,58.0,0,960,2.0,0.0
8726,66.0,0,960,2.0,0.0
8727,34.0,0,960,5.0,0.0
8728,46.0,0,960,5.0,0.0
8729,60.0,960,480,2.0,0.0
8730,68.0,0,480,2.0,0.0
8731,32.0,0,480,5.0,0.0
8732,44.0,0,480,5.0,0.0
8733,72.0,0,480,1.0,0.0
8734,61.0,480,960,2.0,0.0
8735,70.0,0,960,2.0,0.0
8736,30.0,0,2400,5.0,0.0
8737,42.0,0,2400,5.0,0.0
8738,73.0,0,960,1.0,0.0
8739,66.0,960,480,2.0,0.0
8740,58.0,0,480,2.0,0.0
8741,70.0,0,480,1.0,0.0
8742,66.0,420,960,1.0,0.0
8743,63.0,0,960,2.0,0.0
8744,54.0,0,960,2.0,0.0
8745,53.0,0,420,2.0,0.0
8746,61.0,1500,420,2.0,0.0
8747,31.0,0,420,5.0,0.0
8748,65.0,0,420,1.0,0.0
8749,43.0,0,420,5.0,0.0
8750,61.0,0,1440,2.0,0.0
8751,53.0,0,1440,2.0,0.0
8752,44.0,0,2400,5.0,0.0
8753,32.0,1920,2400,5.0,0.0
8754,65.0,960,1440,1.0,0.0
8755,60.0,0,960,2.0,0.0
8756,51.0,0,960,2.0,0.0
8757,63.0,0,960,1.0,0.0
8758,49.0,0,1440,5.0,0.0
8759,37.0,0,1440,5.0,0.0
8760,65.0,0,1440,1.0,0.0
8761,61.0,2880,1440,2.0,0.0
8762,53.0,0,1440,2.0,0.0
8763,68.0,0,2880,1.0,0.0
8764,48.0,0,2880,5.0,0.0
8765,56.0,0,0,2.0,0.0
8766,63.0,960,2880,2.0,0.0
8767,36.0,0,2880,5.0,0.0
8768,46.0,480,960,5.0,0.0
8769,61.0,0,960,2.0,0.0
8770,73.0,0,960,1.0,0.0
8771,34.0,0,960,5.0,0.0
8772,63.0,0,480,2.0,0.0
8773,70.0,0,0,2.0,0.0
8774,72.0,0,480,2.0,0.0
8775,75.0,0,480,1.0,0.0
8776,30.0,960,480,5.0,0.0
8777,42.0,0,480,5.0,0.0
8778,77.0,0,960,1.0,0.0
8779,29.0,0,1440,5.0,0.0
8780,65.0,0,960,2.0,0.0
8781,73.0,480,960,2.0,0.0
8782,41.0,960,1440,5.0,0.0
8783,68.0,0,1440,2.0,0.0
8784,73.0,0,480,1.0,0.0
8785,61.0,0,480,2.0,0.0
8786,58.0,415,960,2.0,0.0
8787,66.0,0,960,2.0,0.0
8788,70.0,0,960,1.0,0.0
8789,42.0,0,1380,5.0,0.0
8790,30.0,5,1375,5.0,0.0
8791,66.0,5,420,1.0,0.0
8792,54.0,0,425,2.0,0.0
8793,63.0,1495,425,2.0,0.0
8794,61.0,960,1440,2.0,0.0
8795,53.0,0,1440,2.0,0.0
8796,65.0,0,1440,1.0,0.0
8797,31.0,0,1440,5.0,0.0
8798,43.0,0,1440,5.0,0.0
8799,32.0,0,960,5.0,0.0
8800,63.0,0,960,1.0,0.0
8801,44.0,0,960,5.0,0.0
8802,60.0,720,960,2.0,0.0
8803,51.0,0,960,2.0,0.0
8804,27.0,0,240,5.0,0.0
8805,63.0,0,1440,1.0,0.0
8806,54.0,0,1440,2.0,0.0
8807,39.0,480,240,5.0,0.0
8808,27.0,480,240,5.0,0.0
8809,39.0,0,240,5.0,0.0
8810,27.0,240,240,5.0,0.0
8811,39.0,0,240,5.0,0.0
8812,58.0,1440,0,2.0,0.0
8813,63.0,0,2400,2.0,0.0
8814,66.0,0,2400,1.0,0.0
8815,39.0,0,1440,5.0,0.0
8816,27.0,240,0,5.0,0.0
8817,39.0,480,240,5.0,0.0
8818,39.0,240,240,5.0,0.0
8819,27.0,0,240,5.0,0.0
8820,27.0,180,240,5.0,0.0
8821,65.0,0,427,1.0,0.0
8822,39.0,0,240,5.0,0.0
8823,59.0,0,427,2.0,0.0
8824,56.0,1013,427,2.0,0.0
8825,62.0,7,420,2.0,0.0
8826,68.0,0,960,1.0,0.0
8827,39.0,0,1380,5.0,0.0
8828,59.0,420,960,2.0,0.0
8829,62.0,0,960,2.0,0.0
8830,65.0,0,960,2.0,0.0
8831,27.0,0,1387,5.0,0.0
8832,66.0,293,427,1.0,0.0
8833,58.0,0,427,2.0,0.0
8834,63.0,7,420,2.0,0.0
8835,62.0,0,1380,2.0,0.0
8836,71.0,240,960,1.0,0.0
8837,65.0,0,1380,2.0,0.0
8838,68.0,1013,1387,2.0,0.0
8839,39.0,0,240,5.0,0.0
8840,27.0,480,240,5.0,0.0
8841,27.0,0,240,5.0,0.0
8842,39.0,240,240,5.0,0.0
8843,39.0,180,240,5.0,0.0
8844,70.0,7,420,1.0,0.0
8845,27.0,0,240,5.0,0.0
8846,27.0,1440,1440,5.0,0.0
8847,39.0,0,1440,5.0,0.0
8848,71.0,0,960,2.0,0.0
8849,68.0,0,960,2.0,0.0
8850,77.0,0,960,1.0,0.0
8851,74.0,420,960,2.0,0.0
8852,75.0,53,427,1.0,0.0
8853,70.0,7,420,2.0,0.0
8854,66.0,0,420,2.0,0.0
8855,61.0,0,2880,2.0,0.0
8856,70.0,1440,2880,2.0,0.0
8857,67.0,0,2880,2.0,0.0
8858,73.0,480,1440,1.0,0.0
8859,27.0,0,1440,5.0,0.0
8860,39.0,0,1440,5.0,0.0
8861,40.0,0,1440,5.0,0.0
8862,28.0,0,1440,5.0,0.0
8863,72.0,480,480,1.0,0.0
8864,73.0,480,480,1.0,0.0
8865,72.0,0,480,1.0,0.0
8866,61.0,0,2880,2.0,0.0
8867,68.0,0,1440,2.0,0.0
8868,71.0,480,1440,1.0,0.0
8869,29.0,0,1440,5.0,0.0
8870,41.0,0,1440,5.0,0.0
8871,30.0,0,1440,5.0,0.0
8872,66.0,0,1440,2.0,0.0
8873,70.0,480,480,1.0,0.0
8874,42.0,1440,1440,5.0,0.0
8875,71.0,480,480,1.0,0.0
8876,70.0,0,480,1.0,0.0
8877,64.0,0,1440,2.0,0.0
8878,69.0,0,1440,1.0,0.0
8879,31.0,0,1440,5.0,0.0
8880,43.0,480,1440,5.0,0.0
8881,61.0,0,1440,2.0,0.0
8882,44.0,0,1440,5.0,0.0
8883,32.0,0,1440,5.0,0.0
8884,68.0,480,480,1.0,0.0
8885,64.0,0,1440,2.0,0.0
8886,69.0,480,480,1.0,0.0
8887,68.0,0,480,1.0,0.0
8888,45.0,0,1440,5.0,0.0
8889,33.0,0,1440,5.0,0.0
8890,67.0,0,1440,1.0,0.0
8891,61.0,1440,0,2.0,0.0
8892,63.0,0,1440,2.0,0.0
8893,32.0,8,4192,5.0,0.0
8894,44.0,0,4207,5.0,0.0
8895,68.0,0,2880,1.0,0.0
8896,61.0,0,2880,2.0,0.0
8897,56.0,1312,0,2.0,0.0
8898,63.0,1553,1327,1.0,0.0
8899,60.0,7,1320,2.0,0.0
8900,66.0,0,1440,1.0,0.0
8901,39.0,0,1440,5.0,0.0
8902,63.0,2880,1440,2.0,0.0
8903,54.0,0,1440,2.0,0.0
8904,51.0,0,1440,5.0,0.0
8905,65.0,0,2880,2.0,0.0
8906,58.0,0,0,2.0,0.0
8907,70.0,0,2880,1.0,0.0
8908,37.0,0,2880,5.0,0.0
8909,49.0,960,2880,5.0,0.0
8910,63.0,480,960,2.0,0.0
8911,75.0,0,960,1.0,0.0
8912,68.0,0,960,2.0,0.0
8913,47.0,0,960,5.0,0.0
8914,35.0,0,960,5.0,0.0
8915,77.0,0,480,1.0,0.0
8916,65.0,960,480,2.0,0.0
8917,71.0,0,480,2.0,0.0
8918,44.0,0,480,5.0,0.0
8919,32.0,0,480,5.0,0.0
8920,39.0,0,960,5.0,0.0
8921,78.0,480,960,1.0,0.0
8922,75.0,0,0,2.0,0.0
8923,66.0,0,960,2.0,0.0
8924,27.0,0,960,5.0,0.0
8925,41.0,0,480,5.0,0.0
8926,29.0,960,480,5.0,0.0
8927,70.0,0,0,2.0,0.0
8928,74.0,0,480,2.0,0.0
8929,65.0,0,480,2.0,0.0
8930,77.0,0,480,1.0,0.0
8931,63.0,0,960,2.0,0.0
8932,70.0,0,0,2.0,0.0
8933,75.0,0,960,1.0,0.0
8934,30.0,0,960,5.0,0.0
8935,42.0,0,960,5.0,0.0
8936,70.0,420,0,2.0,0.0
8937,43.0,7,420,5.0,0.0
8938,31.0,0,420,5.0,0.0
8939,61.0,0,427,2.0,0.0
8940,73.0,0,427,1.0,0.0
8941,59.0,0,1440,2.0,0.0
8942,68.0,2880,1440,2.0,0.0
8943,71.0,0,1440,1.0,0.0
8944,44.0,0,1440,5.0,0.0
8945,32.0,0,1440,5.0,0.0
8946,42.0,960,2880,5.0,0.0
8947,30.0,0,2880,5.0,0.0
8948,63.0,0,0,2.0,0.0
8949,70.0,0,2880,2.0,0.0
8950,75.0,0,2880,1.0,0.0
8951,71.0,0,960,2.0,0.0
8952,68.0,0,960,2.0,0.0
8953,77.0,0,960,2.0,0.0
8954,41.0,0,960,5.0,0.0
8955,29.0,480,960,5.0,0.0
8956,80.0,0,960,1.0,0.0
8957,70.0,0,480,2.0,0.0
8958,78.0,960,480,2.0,0.0
8959,27.0,0,480,5.0,0.0
8960,82.0,0,480,1.0,0.0
8961,39.0,0,480,5.0,0.0
8962,26.0,0,960,5.0,0.0
8963,38.0,0,960,5.0,0.0
8964,71.0,0,960,2.0,0.0
8965,80.0,480,960,2.0,0.0
8966,83.0,0,960,1.0,0.0
8967,82.0,0,480,1.0,0.0
8968,27.0,960,480,5.0,0.0
8969,39.0,0,480,5.0,0.0
8970,78.0,0,480,2.0,0.0
8971,70.0,0,480,2.0,0.0
8972,29.0,0,960,5.0,0.0
8973,41.0,0,960,5.0,0.0
8974,77.0,0,960,1.0,0.0
8975,80.0,0,960,1.0,0.0
8976,68.0,480,960,2.0,0.0
8977,75.0,0,480,2.0,0.0
8978,42.0,0,480,5.0,0.0
8979,30.0,0,480,5.0,0.0
8980,66.0,960,480,2.0,0.0
8981,78.0,0,480,1.0,0.0
8982,77.0,0,960,1.0,0.0
8983,31.0,0,960,5.0,0.0
8984,43.0,0,960,5.0,0.0
8985,73.0,0,960,2.0,0.0
8986,65.0,420,960,2.0,0.0
8987,32.0,2453,427,5.0,0.0
8988,75.0,7,420,1.0,0.0
8989,44.0,0,427,5.0,0.0
8990,63.0,0,420,2.0,0.0
8991,72.0,0,420,2.0,0.0
8992,64.0,0,2400,2.0,0.0
8993,43.0,480,2400,5.0,0.0
8994,31.0,0,2400,5.0,0.0
8995,73.0,0,2400,2.0,0.0
8996,76.0,0,2400,1.0,0.0
8997,75.0,0,480,1.0,0.0
8998,32.0,0,480,5.0,0.0
8999,44.0,0,480,5.0,0.0
9000,72.0,0,480,2.0,0.0
9001,63.0,960,480,2.0,0.0
9002,76.0,0,960,1.0,0.0
9003,31.0,7,1380,5.0,0.0
9004,73.0,420,960,2.0,0.0
9005,64.0,0,960,2.0,0.0
9006,43.0,0,1387,5.0,0.0
9007,63.0,0,427,2.0,0.0
9008,72.0,0,427,2.0,0.0
9009,75.0,2933,427,1.0,0.0
9010,30.0,0,2880,5.0,0.0
9011,42.0,2880,2880,5.0,0.0
9012,76.0,0,5760,1.0,0.0
9013,73.0,0,5760,2.0,0.0
9014,64.0,0,5760,2.0,0.0
9015,31.0,0,2880,5.0,0.0
9016,43.0,960,2880,5.0,0.0
9017,75.0,1920,960,1.0,0.0
9018,44.0,0,960,5.0,0.0
9019,32.0,0,960,5.0,0.0
9020,63.0,0,960,2.0,0.0
9021,72.0,0,960,2.0,0.0
9022,49.0,0,1440,5.0,0.0
9023,37.0,0,1440,5.0,0.0
9024,77.0,2880,1440,1.0,0.0
9025,65.0,0,1440,2.0,0.0
9026,68.0,0,1440,2.0,0.0
9027,73.0,0,1440,2.0,0.0
9028,36.0,0,2880,5.0,0.0
9029,48.0,960,2880,5.0,0.0
9030,68.0,0,2880,2.0,0.0
9031,75.0,0,2880,2.0,0.0
9032,80.0,0,2880,1.0,0.0
9033,70.0,0,960,2.0,0.0
9034,78.0,480,960,2.0,0.0
9035,82.0,0,960,1.0,0.0
9036,34.0,0,960,5.0,0.0
9037,46.0,0,960,5.0,0.0
9038,32.0,0,480,5.0,0.0
9039,44.0,0,480,5.0,0.0
9040,80.0,0,480,2.0,0.0
9041,72.0,0,480,2.0,0.0
9042,84.0,960,480,1.0,0.0
9043,73.0,0,960,2.0,0.0
9044,85.0,480,960,1.0,0.0
9045,30.0,0,2400,5.0,0.0
9046,42.0,420,2400,5.0,0.0
9047,82.0,0,960,2.0,0.0
9048,70.0,960,480,2.0,0.0
9049,82.0,0,480,1.0,0.0
9050,78.0,0,480,2.0,0.0
9051,78.0,0,960,1.0,0.0
9052,66.0,0,960,2.0,0.0
9053,75.0,0,960,2.0,0.0
9054,43.0,7,420,5.0,0.0
9055,31.0,0,420,5.0,0.0
9056,65.0,0,420,2.0,0.0
9057,73.0,1493,427,2.0,0.0
9058,77.0,0,427,1.0,0.0
9059,77.0,0,1440,1.0,0.0
9060,32.0,0,2400,5.0,0.0
9061,44.0,1920,2400,5.0,0.0
9062,73.0,960,1440,2.0,0.0
9063,65.0,0,1440,2.0,0.0
9064,75.0,0,960,1.0,0.0
9065,63.0,0,960,2.0,0.0
9066,72.0,0,960,2.0,0.0
9067,49.0,0,1440,5.0,0.0
9068,76.0,0,1440,1.0,0.0
9069,68.0,0,1440,2.0,0.0
9070,73.0,2880,1440,2.0,0.0
9071,64.0,0,1440,2.0,0.0
9072,37.0,0,1440,5.0,0.0
9073,80.0,960,2880,1.0,0.0
9074,47.0,0,2880,5.0,0.0
9075,35.0,0,2880,5.0,0.0
9076,68.0,0,2880,2.0,0.0
9077,75.0,0,2880,2.0,0.0
9078,76.0,0,960,2.0,0.0
9079,73.0,0,960,2.0,0.0
9080,33.0,0,960,5.0,0.0
9081,45.0,0,960,5.0,0.0
9082,85.0,480,960,1.0,0.0
9083,42.0,1440,480,5.0,0.0
9084,75.0,0,480,2.0,0.0
9085,30.0,0,480,5.0,0.0
9086,81.0,0,480,2.0,0.0
9087,87.0,0,480,1.0,0.0
9088,80.0,0,1440,2.0,0.0
9089,88.0,0,1440,1.0,0.0
9090,76.0,2880,1440,2.0,0.0
9091,28.0,0,1440,5.0,0.0
9092,40.0,0,1440,5.0,0.0
9093,27.0,0,2880,5.0,0.0
9094,39.0,0,2880,5.0,0.0
9095,90.0,2880,2880,1.0,0.0
9096,83.0,0,2880,2.0,0.0
9097,78.0,0,2880,2.0,0.0
9098,88.0,0,2880,2.0,0.0
9099,25.0,0,2880,5.0,0.0
9100,37.0,0,2880,5.0,0.0
9101,92.0,1440,2880,1.0,0.0
9102,83.0,0,2880,2.0,0.0
9103,80.0,0,2880,2.0,0.0
9104,88.0,0,1440,2.0,0.0
9105,30.0,0,1440,5.0,0.0
9106,82.0,240,1440,2.0,0.0
9107,94.0,0,1440,1.0,0.0
9108,42.0,0,1440,5.0,0.0
9109,35.0,0,240,5.0,0.0
9110,47.0,600,240,5.0,0.0
9111,49.0,0,120,5.0,0.0
9112,37.0,1560,120,5.0,0.0
9113,47.0,0,1440,5.0,0.0
9114,35.0,0,1440,5.0,0.0
9115,59.0,5,360,5.0,0.0
9116,87.0,0,0,2.0,0.0
9117,83.0,0,0,2.0,0.0
9118,95.0,355,0,1.0,0.0
9119,63.0,0,320,5.0,0.0
9120,66.0,355,285,5.0,0.0
9121,69.0,5,235,5.0,0.0
9122,34.0,600,240,5.0,0.0
9123,46.0,0,240,5.0,0.0
9124,35.0,0,120,5.0,0.0
9125,47.0,1515,120,5.0,0.0
9126,46.0,0,1440,5.0,0.0
9127,34.0,360,1440,5.0,0.0
9128,95.0,15,2850,1.0,0.0
9129,59.0,0,360,5.0,0.0
9130,87.0,15,2865,2.0,0.0
9131,83.0,0,2865,2.0,0.0
9132,63.0,0,325,5.0,0.0
9133,66.0,355,285,5.0,0.0
9134,71.0,5,240,5.0,0.0
9135,33.0,600,240,5.0,0.0
9136,45.0,0,240,5.0,0.0
9137,46.0,1530,120,5.0,0.0
9138,34.0,0,120,5.0,0.0
9139,33.0,0,1440,5.0,0.0
9140,45.0,345,1440,5.0,0.0
9141,87.0,23,2827,2.0,0.0
9142,83.0,7,2820,2.0,0.0
9143,95.0,510,2850,1.0,0.0
9144,60.0,360,360,5.0,0.0
9145,63.0,0,320,5.0,0.0
9146,66.0,5,275,5.0,0.0
9147,72.0,10,225,5.0,0.0
9148,32.0,0,240,5.0,0.0
9149,44.0,600,240,5.0,0.0
9150,46.0,1500,120,5.0,0.0
9151,34.0,0,120,5.0,0.0
9152,44.0,0,1380,5.0,0.0
9153,32.0,0,1387,5.0,0.0
9154,42.0,960,480,5.0,0.0
9155,30.0,0,480,5.0,0.0
9156,75.0,0,480,2.0,0.0
9157,72.0,0,480,1.0,0.0
9158,84.0,0,480,1.0,0.0
9159,80.0,0,0,2.0,0.0
9160,73.0,0,960,1.0,0.0
9161,85.0,480,960,1.0,0.0
9162,29.0,0,1440,5.0,0.0
9163,41.0,960,1440,5.0,0.0
9164,80.0,0,480,1.0,0.0
9165,68.0,0,480,1.0,0.0
9166,78.0,0,960,1.0,0.0
9167,66.0,0,960,1.0,0.0
9168,42.0,0,1387,5.0,0.0
9169,75.0,420,960,2.0,0.0
9170,30.0,0,1380,5.0,0.0
9171,73.0,7,420,2.0,0.0
9172,65.0,0,427,1.0,0.0
9173,77.0,1493,427,1.0,0.0
9174,31.0,0,1440,5.0,0.0
9175,73.0,0,1440,2.0,0.0
9176,65.0,240,1440,1.0,0.0
9177,77.0,0,1440,1.0,0.0
9178,43.0,0,1440,5.0,0.0
9179,32.0,0,1440,5.0,0.0
9180,72.0,480,240,2.0,0.0
9181,44.0,960,1440,5.0,0.0
9182,63.0,0,240,1.0,0.0
9183,75.0,0,240,1.0,0.0
9184,80.0,480,240,1.0,0.0
9185,68.0,0,240,1.0,0.0
9186,87.0,240,240,1.0,0.0
9187,75.0,0,240,1.0,0.0
9188,89.0,0,960,1.0,0.0
9189,77.0,0,960,1.0,0.0
9190,41.0,0,1440,5.0,0.0
9191,80.0,480,960,2.0,0.0
9192,29.0,0,1440,5.0,0.0
9193,85.0,0,960,2.0,0.0
9194,85.0,0,480,1.0,0.0
9195,73.0,960,480,1.0,0.0
9196,30.0,0,1380,5.0,0.0
9197,42.0,0,1380,5.0,0.0
9198,82.0,0,960,1.0,0.0
9199,78.0,420,960,2.0,0.0
9200,70.0,0,960,1.0,0.0
9201,66.0,1493,427,1.0,0.0
9202,78.0,0,427,1.0,0.0
9203,75.0,7,420,2.0,0.0
9204,77.0,0,1440,1.0,0.0
9205,43.0,240,1440,5.0,0.0
9206,65.0,0,1440,1.0,0.0
9207,73.0,0,1440,2.0,0.0
9208,31.0,0,1440,5.0,0.0
9209,75.0,0,240,1.0,0.0
9210,63.0,480,240,1.0,0.0
9211,72.0,0,240,2.0,0.0
9212,44.0,0,1440,5.0,0.0
9213,32.0,360,1440,5.0,0.0
9214,68.0,480,240,1.0,0.0
9215,80.0,0,240,1.0,0.0
9216,75.0,240,240,1.0,0.0
9217,87.0,0,240,1.0,0.0
9218,85.0,0,360,2.0,0.0
9219,80.0,0,360,1.0,0.0
9220,29.0,0,360,5.0,0.0
9221,41.0,0,360,5.0,0.0
9222,37.0,480,360,5.0,0.0
9223,92.0,0,360,1.0,0.0
9224,89.0,0,120,1.0,0.0
9225,65.0,360,120,5.0,0.0
9226,77.0,0,120,1.0,0.0
9227,61.0,0,240,5.0,0.0
9228,73.0,480,240,1.0,0.0
9229,85.0,0,240,1.0,0.0
9230,56.0,120,240,5.0,0.0
9231,68.0,360,120,1.0,0.0
9232,80.0,0,120,1.0,0.0
9233,53.0,120,240,5.0,0.0
9234,65.0,0,120,1.0,0.0
9235,77.0,360,120,1.0,0.0
9236,49.0,120,240,5.0,0.0
9237,73.0,0,120,1.0,0.0
9238,61.0,360,120,1.0,0.0
9239,44.0,120,240,5.0,0.0
9240,68.0,0,120,1.0,0.0
9241,56.0,360,120,1.0,0.0
9242,41.0,120,240,5.0,0.0
9243,65.0,360,120,1.0,0.0
9244,53.0,0,120,1.0,0.0
9245,44.0,120,240,5.0,0.0
9246,68.0,0,120,1.0,0.0
9247,56.0,360,120,1.0,0.0
9248,49.0,120,240,5.0,0.0
9249,61.0,360,120,1.0,0.0
9250,73.0,0,120,1.0,0.0
9251,53.0,120,240,5.0,0.0
9252,65.0,360,120,1.0,0.0
9253,77.0,0,120,1.0,0.0
9254,56.0,120,240,5.0,0.0
9255,68.0,0,120,1.0,0.0
9256,80.0,1560,120,1.0,0.0
9257,77.0,0,1440,2.0,0.0
9258,73.0,0,1440,1.0,0.0
9259,85.0,0,1440,1.0,0.0
9260,61.0,480,1440,5.0,0.0
9261,68.0,0,1440,4.0,0.0
9262,78.0,0,1440,2.0,0.0
9263,80.0,0,1440,2.0,0.0
9264,75.0,0,1440,1.0,0.0
9265,87.0,1440,1440,1.0,0.0
9266,72.0,0,480,5.0,0.0
9267,60.0,480,480,5.0,0.0
9268,61.0,480,480,5.0,0.0
9269,73.0,0,480,5.0,0.0
9270,60.0,0,480,5.0,0.0
9271,72.0,0,480,5.0,0.0
9272,85.0,0,1440,2.0,0.0
9273,80.0,0,1440,2.0,0.0
9274,59.0,480,1440,5.0,0.0
9275,68.0,0,0,4.0,0.0
9276,71.0,0,1440,5.0,0.0
9277,89.0,0,1440,1.0,0.0
9278,77.0,0,1440,1.0,0.0
9279,61.0,0,0,4.0,0.0
9280,78.0,1440,1440,1.0,0.0
9281,90.0,0,1440,1.0,0.0
9282,66.0,0,1440,4.0,0.0
9283,70.0,480,480,5.0,0.0
9284,58.0,0,480,5.0,0.0
9285,71.0,480,480,5.0,0.0
9286,59.0,0,480,5.0,0.0
9287,70.0,0,480,5.0,0.0
9288,58.0,0,480,5.0,0.0
9289,85.0,0,0,2.0,0.0
9290,61.0,0,0,4.0,0.0
9291,69.0,0,1440,5.0,0.0
9292,57.0,0,1440,5.0,0.0
9293,91.0,0,1440,1.0,0.0
9294,79.0,0,1440,1.0,0.0
9295,87.0,480,1440,2.0,0.0
9296,61.0,0,0,4.0,0.0
9297,68.0,480,480,5.0,0.0
9298,56.0,0,480,5.0,0.0
9299,92.0,1440,1440,1.0,0.0
9300,80.0,0,1440,1.0,0.0
9301,63.0,0,0,4.0,0.0
9302,85.0,0,1440,2.0,0.0
9303,69.0,480,480,5.0,0.0
9304,57.0,0,480,5.0,0.0
9305,56.0,0,480,5.0,0.0
9306,68.0,0,480,5.0,0.0
9307,55.0,0,1440,5.0,0.0
9308,85.0,0,1440,2.0,0.0
9309,67.0,0,1440,5.0,0.0
9310,87.0,0,0,2.0,0.0
9311,63.0,1440,1440,4.0,0.0
9312,61.0,0,1440,4.0,0.0
9313,81.0,0,1440,1.0,0.0
9314,93.0,0,1440,1.0,0.0
9315,87.0,0,0,2.0,0.0
9316,82.0,0,2880,1.0,0.0
9317,94.0,0,2880,1.0,0.0
9318,66.0,0,1440,5.0,0.0
9319,63.0,0,1440,4.0,0.0
9320,85.0,1440,2880,2.0,0.0
9321,61.0,0,1440,4.0,0.0
9322,54.0,1440,1440,5.0,0.0
9323,44.0,0,1440,5.0,0.0
9324,32.0,0,1440,5.0,0.0
9325,80.0,1680,1440,1.0,0.0
9326,92.0,0,1440,1.0,0.0
9327,54.0,0,1440,4.0,0.0
9328,60.0,0,1440,4.0,0.0
9329,56.0,0,1440,4.0,0.0
9330,66.0,0,1440,4.0,0.0
9331,84.0,0,1440,2.0,0.0
9332,87.0,0,1440,2.0,0.0
9333,51.0,0,1440,5.0,0.0
9334,56.0,0,240,1.0,0.0
9335,44.0,240,240,5.0,0.0
9336,60.0,0,240,1.0,0.0
9337,48.0,240,240,5.0,0.0
9338,63.0,240,240,1.0,0.0
9339,51.0,0,240,5.0,0.0
9340,56.0,240,240,5.0,0.0
9341,68.0,0,240,1.0,0.0
9342,60.0,240,240,5.0,0.0
9343,72.0,0,240,1.0,0.0
9344,63.0,240,240,5.0,0.0
9345,75.0,0,240,1.0,0.0
9346,49.0,0,240,5.0,0.0
9347,80.0,0,240,1.0,0.0
9348,68.0,120,240,1.0,0.0
9349,72.0,0,240,2.0,0.0
9350,77.0,0,240,2.0,0.0
9351,37.0,360,360,5.0,0.0
9352,53.0,0,240,4.0,0.0
9353,56.0,120,240,4.0,0.0
9354,78.0,360,120,1.0,0.0
9355,66.0,0,120,1.0,0.0
9356,56.0,0,240,4.0,0.0
9357,77.0,600,240,1.0,0.0
9358,65.0,0,240,1.0,0.0
9359,61.0,0,240,4.0,0.0
9360,41.0,0,360,5.0,0.0
9361,73.0,360,120,1.0,0.0
9362,61.0,0,120,1.0,0.0
9363,72.0,0,240,1.0,0.0
9364,51.0,0,240,4.0,0.0
9365,54.0,0,240,4.0,0.0
9366,60.0,432,240,1.0,0.0
9367,73.0,0,192,1.0,0.0
9368,53.0,0,192,4.0,0.0
9369,61.0,0,192,1.0,0.0
9370,56.0,1668,192,4.0,0.0
9371,51.0,0,1380,4.0,0.0
9372,60.0,0,1380,2.0,0.0
9373,56.0,293,1387,1.0,0.0
9374,44.0,0,1380,5.0,0.0
9375,68.0,7,1380,1.0,0.0
9376,44.0,0,240,5.0,0.0
9377,56.0,240,240,1.0,0.0
9378,47.0,240,240,5.0,0.0
9379,59.0,0,240,1.0,0.0
9380,63.0,240,240,1.0,0.0
9381,51.0,0,240,5.0,0.0
9382,56.0,240,240,5.0,0.0
9383,68.0,0,240,1.0,0.0
9384,71.0,0,240,1.0,0.0
9385,59.0,240,240,5.0,0.0
9386,63.0,0,240,5.0,0.0
9387,75.0,240,240,1.0,0.0
9388,39.0,360,360,5.0,0.0
9389,70.0,0,240,1.0,0.0
9390,82.0,0,240,1.0,0.0
9391,51.0,0,240,4.0,0.0
9392,75.0,120,240,2.0,0.0
9393,78.0,0,240,2.0,0.0
9394,58.0,120,240,4.0,0.0
9395,54.0,0,240,4.0,0.0
9396,68.0,312,120,1.0,0.0
9397,80.0,0,120,1.0,0.0
9398,63.0,0,240,1.0,0.0
9399,78.0,0,192,1.0,0.0
9400,58.0,600,240,4.0,0.0
9401,66.0,48,192,1.0,0.0
9402,42.0,360,360,5.0,0.0
9403,63.0,0,120,1.0,0.0
9404,75.0,0,120,1.0,0.0
9405,51.0,0,240,4.0,0.0
9406,74.0,0,240,1.0,0.0
9407,54.0,432,240,4.0,0.0
9408,62.0,0,240,1.0,0.0
9409,54.0,1668,192,4.0,0.0
9410,63.0,0,192,1.0,0.0
9411,58.0,0,192,4.0,0.0
9412,75.0,0,192,1.0,0.0
9413,58.0,7,1380,1.0,0.0
9414,53.0,0,1387,4.0,0.0
9415,70.0,0,1380,1.0,0.0
9416,62.0,0,1380,2.0,0.0
9417,46.0,293,1387,5.0,0.0
9418,58.0,0,240,1.0,0.0
9419,46.0,240,240,5.0,0.0
9420,49.0,240,240,5.0,0.0
9421,61.0,0,240,1.0,0.0
9422,65.0,0,240,1.0,0.0
9423,53.0,240,240,5.0,0.0
9424,70.0,0,240,1.0,0.0
9425,58.0,240,240,5.0,0.0
9426,73.0,240,240,1.0,0.0
9427,61.0,0,240,5.0,0.0
9428,77.0,240,240,1.0,0.0
9429,65.0,0,240,5.0,0.0
9430,40.0,360,360,5.0,0.0
9431,28.0,0,360,5.0,0.0
9432,73.0,120,240,1.0,0.0
9433,85.0,0,240,1.0,0.0
9434,58.0,120,240,3.0,0.0
9435,61.0,0,240,3.0,0.0
9436,52.0,0,240,3.0,0.0
9437,72.0,360,120,1.0,0.0
9438,84.0,0,120,1.0,0.0
9439,61.0,0,240,3.0,0.0
9440,70.0,0,240,1.0,0.0
9441,58.0,0,240,3.0,0.0
9442,82.0,0,240,1.0,0.0
9443,67.0,600,240,1.0,0.0
9444,29.0,0,360,5.0,0.0
9445,41.0,0,360,5.0,0.0
9446,80.0,0,120,1.0,0.0
9447,68.0,360,120,1.0,0.0
9448,67.0,0,240,1.0,0.0
9449,61.0,0,240,3.0,0.0
9450,53.0,480,240,3.0,0.0
9451,56.0,0,240,3.0,0.0
9452,79.0,0,240,1.0,0.0
9453,77.0,480,240,1.0,0.0
9454,56.0,0,240,3.0,0.0
9455,61.0,0,240,3.0,0.0
9456,65.0,0,240,1.0,0.0
9457,73.0,0,240,2.0,0.0
9458,31.0,360,360,5.0,0.0
9459,43.0,0,360,5.0,0.0
9460,70.0,0,240,2.0,0.0
9461,76.0,120,240,1.0,0.0
9462,64.0,0,240,1.0,0.0
9463,65.0,0,240,1.0,0.0
9464,77.0,0,240,1.0,0.0
9465,55.0,0,240,3.0,0.0
9466,61.0,0,240,3.0,0.0
9467,58.0,432,240,3.0,0.0
9468,79.0,0,192,1.0,0.0
9469,67.0,48,192,1.0,0.0
9470,64.0,600,240,3.0,0.0
9471,58.0,0,240,3.0,0.0
9472,61.0,0,240,3.0,0.0
9473,60.0,225,960,1.0,0.0
9474,65.0,73,1207,2.0,0.0
9475,44.0,360,360,5.0,0.0
9476,72.0,15,1185,1.0,0.0
9477,32.0,0,360,5.0,0.0
9478,56.0,240,240,3.0,0.0
9479,53.0,0,240,3.0,0.0
9480,60.0,7,240,3.0,0.0
9481,56.0,0,240,3.0,0.0
9482,72.0,80,80,1.0,0.0
9483,74.0,80,80,1.0,0.0
9484,76.0,240,80,1.0,0.0
9485,33.0,360,360,5.0,0.0
9486,65.0,0,240,1.0,0.0
9487,45.0,0,360,5.0,0.0
9488,77.0,120,240,1.0,0.0
9489,53.0,120,240,3.0,0.0
9490,60.0,0,240,3.0,0.0
9491,76.0,360,120,1.0,0.0
9492,64.0,0,120,1.0,0.0
9493,60.0,0,240,3.0,0.0
9494,77.0,0,240,1.0,0.0
9495,65.0,0,240,1.0,0.0
9496,63.0,600,240,3.0,0.0
9497,34.0,0,360,5.0,0.0
9498,46.0,0,360,5.0,0.0
9499,68.0,360,120,1.0,0.0
9500,80.0,0,120,1.0,0.0
9501,58.0,0,240,3.0,0.0
9502,77.0,0,240,1.0,0.0
9503,65.0,0,240,1.0,0.0
9504,53.0,0,240,3.0,0.0
9505,61.0,480,240,3.0,0.0
9506,58.0,600,240,3.0,0.0
9507,61.0,0,240,3.0,0.0
9508,78.0,0,240,1.0,0.0
9509,66.0,0,240,1.0,0.0
9510,48.0,0,360,5.0,0.0
9511,36.0,0,360,5.0,0.0
9512,70.0,0,120,1.0,0.0
9513,82.0,360,120,1.0,0.0
9514,53.0,0,240,3.0,0.0
9515,63.0,0,240,3.0,0.0
9516,60.0,0,240,3.0,0.0
9517,68.0,480,240,1.0,0.0
9518,80.0,0,240,1.0,0.0
9519,60.0,0,240,3.0,0.0
9520,65.0,0,240,3.0,0.0
9521,63.0,0,240,3.0,0.0
9522,69.0,0,240,1.0,0.0
9523,81.0,480,240,1.0,0.0
9524,49.0,0,360,5.0,0.0
9525,37.0,360,360,5.0,0.0
9526,72.0,0,240,1.0,0.0
9527,84.0,120,240,1.0,0.0
9528,70.0,0,641,1.0,0.0
9529,82.0,39,641,1.0,0.0
9530,61.0,0,240,3.0,0.0
9531,58.0,393,240,3.0,0.0
9532,53.0,0,240,3.0,0.0
9533,65.0,0,161,3.0,0.0
9534,61.0,0,161,3.0,0.0
9535,58.0,8,153,3.0,0.0
9536,71.0,40,40,1.0,0.0
9537,74.0,40,40,1.0,0.0
9538,77.0,40,40,1.0,0.0
9539,80.0,40,40,1.0,0.0
9540,83.0,40,40,1.0,0.0
9541,86.0,40,40,1.0,0.0
9542,89.0,40,40,1.0,0.0
9543,92.0,240,40,1.0,0.0
9544,83.0,120,240,1.0,0.0
9545,38.0,360,360,5.0,0.0
9546,50.0,0,360,5.0,0.0
9547,95.0,0,240,1.0,0.0
9548,59.0,0,240,3.0,0.0
9549,56.0,0,240,3.0,0.0
9550,62.0,120,240,3.0,0.0
9551,53.0,0,240,3.0,0.0
9552,82.0,0,120,1.0,0.0
9553,94.0,360,120,1.0,0.0
9554,59.0,0,240,3.0,0.0
9555,92.0,0,240,1.0,0.0
9556,80.0,600,240,1.0,0.0
9557,62.0,0,240,3.0,0.0
9558,65.0,0,240,3.0,0.0
9559,39.0,0,360,5.0,0.0
9560,51.0,0,360,5.0,0.0
9561,78.0,360,120,1.0,0.0
9562,90.0,0,120,1.0,0.0
9563,58.0,0,240,3.0,0.0
9564,63.0,480,240,3.0,0.0
9565,89.0,0,240,1.0,0.0
9566,54.0,0,240,3.0,0.0
9567,77.0,0,240,1.0,0.0
9568,66.0,480,240,3.0,0.0
9569,63.0,0,240,3.0,0.0
9570,58.0,0,240,3.0,0.0
9571,87.0,0,240,1.0,0.0
9572,75.0,0,240,1.0,0.0
9573,86.0,0,240,1.0,0.0
9574,41.0,0,360,5.0,0.0
9575,53.0,360,360,5.0,0.0
9576,74.0,120,240,1.0,0.0
9577,80.0,0,240,2.0,0.0
9578,83.0,0,240,2.0,0.0
9579,56.0,0,240,3.0,0.0
9580,87.0,0,240,1.0,0.0
9581,59.0,0,240,3.0,0.0
9582,62.0,432,240,3.0,0.0
9583,75.0,0,240,1.0,0.0
9584,59.0,0,240,3.0,0.0
9585,68.0,0,240,3.0,0.0
9586,89.0,0,192,1.0,0.0
9587,77.0,48,192,1.0,0.0
9588,62.0,600,240,3.0,0.0
9589,75.0,73,1207,2.0,0.0
9590,82.0,0,1200,1.0,0.0
9591,54.0,0,360,5.0,0.0
9592,42.0,360,360,5.0,0.0
9593,70.0,0,1200,1.0,0.0
9594,54.0,480,240,3.0,0.0
9595,63.0,0,240,3.0,0.0
9596,58.0,0,240,3.0,0.0
9597,63.0,0,240,3.0,0.0
9598,58.0,0,240,3.0,0.0
9599,66.0,7,240,3.0,0.0
9600,81.0,80,80,1.0,0.0
9601,82.0,80,80,1.0,0.0
9602,84.0,240,80,1.0,0.0
9603,73.0,120,240,1.0,0.0
9604,55.0,0,360,5.0,0.0
9605,43.0,360,360,5.0,0.0
9606,85.0,0,240,1.0,0.0
9607,58.0,0,240,3.0,0.0
9608,61.0,120,240,3.0,0.0
9609,55.0,0,240,3.0,0.0
9610,81.0,0,120,1.0,0.0
9611,69.0,360,120,1.0,0.0
9612,58.0,600,240,3.0,0.0
9613,61.0,0,240,3.0,0.0
9614,64.0,0,240,3.0,0.0
9615,70.0,0,240,1.0,0.0
9616,82.0,0,240,1.0,0.0
9617,44.0,0,360,5.0,0.0
9618,56.0,360,360,5.0,0.0
9619,85.0,0,120,1.0,0.0
9620,73.0,0,120,1.0,0.0
9621,79.0,0,240,1.0,0.0
9622,56.0,0,240,3.0,0.0
9623,53.0,0,240,3.0,0.0
9624,61.0,480,240,3.0,0.0
9625,67.0,0,240,1.0,0.0
9626,65.0,0,240,3.0,0.0
9627,61.0,0,240,3.0,0.0
9628,56.0,600,240,3.0,0.0
9629,68.0,0,240,1.0,0.0
9630,80.0,0,240,1.0,0.0
9631,57.0,0,360,5.0,0.0
9632,45.0,360,360,5.0,0.0
9633,77.0,0,120,1.0,0.0
9634,89.0,0,120,1.0,0.0
9635,64.0,480,240,1.0,0.0
9636,53.0,0,240,4.0,0.0
9637,76.0,0,240,1.0,0.0
9638,60.0,0,240,4.0,0.0
9639,65.0,0,240,1.0,0.0
9640,77.0,0,240,1.0,0.0
9641,60.0,0,240,4.0,0.0
9642,63.0,480,240,4.0,0.0
9643,46.0,473,1207,5.0,0.0
9644,82.0,240,240,1.0,0.0
9645,94.0,0,200,1.0,0.0
9646,53.0,2,1165,5.0,0.0
9647,61.0,0,1165,5.0,0.0
9648,89.0,240,240,1.0,0.0
9649,85.0,240,240,1.0,0.0
9650,82.0,240,240,1.0,0.0
9651,70.0,5,240,1.0,0.0
9652,70.0,0,360,1.0,0.0
9653,28.0,120,240,5.0,0.0
9654,73.0,480,360,2.0,0.0
9655,79.0,0,360,2.0,0.0
9656,40.0,0,240,5.0,0.0
9657,82.0,0,360,1.0,0.0
9658,41.0,0,120,5.0,0.0
9659,29.0,360,120,5.0,0.0
9660,43.0,600,240,5.0,0.0
9661,31.0,0,240,5.0,0.0
9662,72.0,360,360,2.0,0.0
9663,77.0,0,360,2.0,0.0
9664,80.0,0,360,1.0,0.0
9665,68.0,0,360,1.0,0.0
9666,44.0,0,120,5.0,0.0
9667,32.0,0,120,5.0,0.0
9668,34.0,480,240,5.0,0.0
9669,46.0,0,240,5.0,0.0
9670,36.0,480,240,5.0,0.0
9671,48.0,0,240,5.0,0.0
9672,65.0,0,360,1.0,0.0
9673,77.0,0,360,1.0,0.0
9674,37.0,120,240,5.0,0.0
9675,49.0,0,240,5.0,0.0
9676,70.0,360,360,2.0,0.0
9677,73.0,0,360,2.0,0.0
9678,48.0,432,240,5.0,0.0
9679,36.0,0,240,5.0,0.0
9680,46.0,0,192,5.0,0.0
9681,34.0,1368,192,5.0,0.0
9682,65.0,0,1080,2.0,0.0
9683,68.0,0,1080,2.0,0.0
9684,60.0,0,1080,1.0,0.0
9685,72.0,0,1080,1.0,0.0
9686,53.0,0,1080,5.0,0.0
9687,41.0,720,1080,5.0,0.0
9688,71.0,360,1440,1.0,0.0
9689,42.0,360,120,5.0,0.0
9690,40.0,240,240,5.0,0.0
9691,61.0,240,480,3.0,0.0
9692,41.0,240,240,5.0,0.0
9693,68.0,0,480,3.0,0.0
9694,69.0,0,960,1.0,0.0
9695,44.0,360,120,5.0,0.0
9696,61.0,240,480,3.0,0.0
9697,41.0,240,240,5.0,0.0
9698,42.0,240,240,5.0,0.0
9699,70.0,0,480,1.0,0.0
9700,66.0,360,480,3.0,0.0
9701,73.0,240,960,1.0,0.0
9702,46.0,360,120,5.0,0.0
9703,63.0,0,480,3.0,0.0
9704,44.0,240,240,5.0,0.0
9705,65.0,360,480,3.0,0.0
9706,72.0,0,480,1.0,0.0
9707,45.0,240,240,5.0,0.0
9708,75.0,0,960,1.0,0.0
9709,48.0,360,120,5.0,0.0
9710,45.0,240,240,5.0,0.0
9711,65.0,192,480,3.0,0.0
9712,46.0,288,192,5.0,0.0
9713,74.0,0,480,1.0,0.0
9714,70.0,240,480,3.0,0.0
9715,26.0,120,240,5.0,0.0
9716,77.0,0,360,2.0,0.0
9717,71.0,0,360,2.0,0.0
9718,68.0,480,360,1.0,0.0
9719,80.0,0,360,1.0,0.0
9720,38.0,0,240,5.0,0.0
9721,27.0,360,120,5.0,0.0
9722,39.0,0,120,5.0,0.0
9723,41.0,0,240,5.0,0.0
9724,29.0,600,240,5.0,0.0
9725,78.0,0,360,1.0,0.0
9726,75.0,0,360,2.0,0.0
9727,66.0,0,360,1.0,0.0
9728,70.0,360,360,2.0,0.0
9729,30.0,0,120,5.0,0.0
9730,42.0,0,120,5.0,0.0
9731,32.0,480,240,5.0,0.0
9732,44.0,0,240,5.0,0.0
9733,34.0,480,240,5.0,0.0
9734,46.0,0,240,5.0,0.0
9735,71.0,360,360,2.0,0.0
9736,63.0,0,360,1.0,0.0
9737,75.0,0,360,1.0,0.0
9738,68.0,0,360,2.0,0.0
9739,47.0,120,240,5.0,0.0
9740,35.0,0,240,5.0,0.0
9741,46.0,432,240,5.0,0.0
9742,34.0,0,240,5.0,0.0
9743,44.0,1368,192,5.0,0.0
9744,32.0,0,192,5.0,0.0
9745,63.0,0,1080,2.0,0.0
9746,66.0,0,1080,2.0,0.0
9747,70.0,713,1087,1.0,0.0
9748,51.0,0,1080,5.0,0.0
9749,39.0,7,1080,5.0,0.0
9750,58.0,0,1080,1.0,0.0
9751,73.0,360,1440,1.0,0.0
9752,42.0,360,120,5.0,0.0
9753,39.0,240,240,5.0,0.0
9754,61.0,240,480,3.0,0.0
9755,70.0,0,480,3.0,0.0
9756,66.0,0,480,3.0,0.0
9757,40.0,240,240,5.0,0.0
9758,78.0,0,1440,1.0,0.0
9759,40.0,360,120,5.0,0.0
9760,66.0,240,480,3.0,0.0
9761,38.0,240,240,5.0,0.0
9762,71.0,360,480,3.0,0.0
9763,75.0,0,480,3.0,0.0
9764,39.0,240,240,5.0,0.0
9765,73.0,0,1440,1.0,0.0
9766,42.0,360,120,5.0,0.0
9767,61.0,240,480,3.0,0.0
9768,39.0,240,240,5.0,0.0
9769,40.0,240,240,5.0,0.0
9770,66.0,0,480,3.0,0.0
9771,70.0,360,480,3.0,0.0
9772,78.0,360,1440,1.0,0.0
9773,40.0,360,120,5.0,0.0
9774,38.0,240,240,5.0,0.0
9775,66.0,240,480,3.0,0.0
9776,39.0,240,240,5.0,0.0
9777,75.0,0,480,3.0,0.0
9778,71.0,0,480,3.0,0.0
9779,61.0,0,1440,1.0,0.0
9780,42.0,360,120,5.0,0.0
9781,39.0,240,240,5.0,0.0
9782,54.0,240,480,3.0,0.0
9783,40.0,240,240,5.0,0.0
9784,58.0,360,480,3.0,0.0
9785,66.0,0,1440,1.0,0.0
9786,40.0,360,120,5.0,0.0
9787,38.0,240,240,5.0,0.0
9788,54.0,240,480,3.0,0.0
9789,60.0,360,480,3.0,0.0
9790,58.0,0,480,3.0,0.0
9791,39.0,240,240,5.0,0.0
9792,65.0,0,1440,1.0,0.0
9793,42.0,360,120,5.0,0.0
9794,51.0,240,480,3.0,0.0
9795,40.0,240,240,5.0,0.0
9796,60.0,240,480,3.0,0.0
9797,41.0,240,240,5.0,0.0
9798,57.0,0,480,3.0,0.0
9799,94.0,240,240,1.0,0.0
9800,34.0,0,480,5.0,0.0
9801,82.0,0,240,2.0,0.0
9802,89.0,240,240,1.0,0.0
9803,85.0,240,240,1.0,0.0
9804,82.0,240,240,1.0,0.0
9805,70.0,1200,240,1.0,0.0
9806,34.0,720,960,5.0,0.0
9807,46.0,0,960,5.0,0.0
9808,35.0,960,1920,5.0,0.0
9809,47.0,0,1920,5.0,0.0
9810,80.0,240,240,2.0,0.0
9811,75.0,240,240,2.0,0.0
9812,71.0,240,240,2.0,0.0
9813,68.0,240,240,2.0,0.0
9814,56.0,240,240,2.0,0.0
9815,47.0,0,960,5.0,0.0
9816,35.0,720,960,5.0,0.0
9817,48.0,0,1920,5.0,0.0
9818,36.0,960,1920,5.0,0.0
9819,90.0,240,240,2.0,0.0
9820,87.0,240,240,2.0,0.0
9821,80.0,240,240,2.0,0.0
9822,78.0,240,240,2.0,0.0
9823,66.0,240,240,2.0,0.0
9824,36.0,0,960,5.0,0.0
9825,48.0,720,960,5.0,0.0
9826,37.0,0,1440,5.0,0.0
9827,49.0,240,1440,5.0,0.0
9828,89.0,240,240,2.0,0.0
9829,85.0,240,240,2.0,0.0
9830,80.0,240,240,2.0,0.0
9831,77.0,0,240,2.0,0.0
9832,53.0,0,360,5.0,0.0
9833,41.0,360,360,5.0,0.0
9834,73.0,120,240,2.0,0.0
9835,56.0,0,960,5.0,0.0
9836,87.0,240,240,2.0,0.0
9837,44.0,0,960,5.0,0.0
9838,84.0,240,240,2.0,0.0
9839,80.0,240,240,2.0,0.0
9840,75.0,240,240,2.0,0.0
9841,72.0,120,240,2.0,0.0
9842,60.0,360,360,5.0,0.0
9843,48.0,0,360,5.0,0.0
9844,90.0,240,240,2.0,0.0
9845,39.0,0,960,5.0,0.0
9846,51.0,0,960,5.0,0.0
9847,87.0,240,240,2.0,0.0
9848,82.0,240,240,2.0,0.0
9849,78.0,240,240,2.0,0.0
9850,54.0,0,360,5.0,0.0
9851,42.0,360,360,5.0,0.0
9852,75.0,120,240,2.0,0.0
9853,44.0,240,960,5.0,0.0
9854,87.0,240,240,2.0,0.0
9855,56.0,0,960,5.0,0.0
9856,83.0,240,240,2.0,0.0
9857,80.0,240,240,2.0,0.0
9858,75.0,0,240,2.0,0.0
9859,59.0,360,360,5.0,0.0
9860,47.0,0,360,5.0,0.0
9861,71.0,120,240,2.0,0.0
9862,52.0,0,960,5.0,0.0
9863,40.0,0,960,5.0,0.0
9864,92.0,240,240,2.0,0.0
9865,88.0,240,240,2.0,0.0
9866,83.0,240,240,2.0,0.0
9867,80.0,240,240,2.0,0.0
9868,44.0,0,360,5.0,0.0
9869,56.0,360,360,5.0,0.0
9870,76.0,120,240,2.0,0.0
9871,59.0,0,960,5.0,0.0
9872,47.0,0,960,5.0,0.0
9873,90.0,240,240,2.0,0.0
9874,87.0,240,240,2.0,0.0
9875,83.0,240,240,2.0,0.0
9876,78.0,240,240,2.0,0.0
9877,51.0,360,360,5.0,0.0
9878,63.0,0,360,5.0,0.0
9879,75.0,120,240,2.0,0.0
9880,42.0,0,960,5.0,0.0
9881,93.0,240,240,2.0,0.0
9882,54.0,240,960,5.0,0.0
9883,90.0,240,240,2.0,0.0
9884,85.0,240,240,2.0,0.0
9885,81.0,0,240,2.0,0.0
9886,78.0,120,240,2.0,0.0
9887,57.0,360,360,5.0,0.0
9888,45.0,0,360,5.0,0.0
9889,59.0,240,960,5.0,0.0
9890,90.0,240,240,2.0,0.0
9891,47.0,0,960,5.0,0.0
9892,86.0,240,240,2.0,0.0
9893,83.0,240,240,2.0,0.0
9894,78.0,0,240,2.0,0.0
9895,74.0,120,240,2.0,0.0
9896,62.0,360,360,5.0,0.0
9897,50.0,0,360,5.0,0.0
9898,43.0,0,960,5.0,0.0
9899,55.0,0,960,5.0,0.0
9900,95.0,240,240,2.0,0.0
9901,89.0,240,240,2.0,0.0
9902,86.0,240,240,2.0,0.0
9903,83.0,240,240,2.0,0.0
9904,47.0,360,360,5.0,0.0
9905,77.0,120,240,2.0,0.0
9906,59.0,0,360,5.0,0.0
9907,55.0,0,960,5.0,0.0
9908,43.0,240,960,5.0,0.0
9909,96.0,240,240,2.0,0.0
9910,91.0,240,240,2.0,0.0
9911,88.0,240,240,2.0,0.0
9912,84.0,0,240,2.0,0.0
9913,76.0,120,240,2.0,0.0
9914,60.0,360,360,5.0,0.0
9915,48.0,0,360,5.0,0.0
9916,55.0,0,960,5.0,0.0
9917,43.0,240,960,5.0,0.0
9918,97.0,240,240,2.0,0.0
9919,94.0,240,240,2.0,0.0
9920,87.0,240,240,2.0,0.0
9921,85.0,0,240,2.0,0.0
9922,75.0,120,240,2.0,0.0
9923,61.0,0,360,5.0,0.0
9924,49.0,360,360,5.0,0.0
9925,98.0,240,240,2.0,0.0
9926,43.0,0,960,5.0,0.0
9927,55.0,0,960,5.0,0.0
9928,95.0,240,240,2.0,0.0
9929,89.0,240,240,2.0,0.0
9930,86.0,240,240,2.0,0.0
9931,74.0,120,240,2.0,0.0
9932,50.0,0,360,5.0,0.0
9933,62.0,360,360,5.0,0.0
9934,55.0,120,360,5.0,0.0
9935,43.0,0,360,5.0,0.0
9936,101.0,120,240,2.0,0.0
9937,95.0,240,240,2.0,0.0
9938,92.0,240,240,2.0,0.0
9939,89.0,240,240,2.0,0.0
9940,83.0,480,240,2.0,0.0
9941,68.0,0,1440,5.0,0.0
9942,56.0,240,1440,5.0,0.0
9943,100.0,240,240,2.0,0.0
9944,96.0,240,240,2.0,0.0
9945,91.0,240,240,2.0,0.0
9946,88.0,0,240,2.0,0.0
9947,84.0,120,240,2.0,0.0
9948,55.0,0,360,5.0,0.0
9949,67.0,360,360,5.0,0.0
9950,55.0,120,360,5.0,0.0
9951,43.0,0,360,5.0,0.0
9952,99.0,120,240,2.0,0.0
9953,96.0,240,240,2.0,0.0
9954,93.0,240,240,2.0,0.0
9955,87.0,240,240,2.0,0.0
9956,66.0,0,1440,5.0,0.0
9957,81.0,480,240,2.0,0.0
9958,54.0,240,1440,5.0,0.0
9959,98.0,240,240,2.0,0.0
9960,95.0,240,240,2.0,0.0
9961,92.0,240,240,2.0,0.0
9962,86.0,0,240,2.0,0.0
9963,65.0,360,360,5.0,0.0
9964,53.0,0,360,5.0,0.0
9965,83.0,120,240,2.0,0.0
9966,96.0,120,240,2.0,0.0
9967,43.0,120,360,5.0,0.0
9968,55.0,0,360,5.0,0.0
9969,91.0,240,240,2.0,0.0
9970,88.0,240,240,2.0,0.0
9971,84.0,240,240,2.0,0.0
9972,79.0,480,240,2.0,0.0
9973,64.0,0,1440,5.0,0.0
9974,52.0,240,1440,5.0,0.0
9975,93.0,240,240,2.0,0.0
9976,90.0,240,240,2.0,0.0
9977,84.0,240,240,2.0,0.0
9978,81.0,0,240,2.0,0.0
9979,51.0,360,360,5.0,0.0
9980,63.0,0,360,5.0,0.0
9981,78.0,120,240,2.0,0.0
9982,55.0,120,360,5.0,0.0
9983,43.0,0,360,5.0,0.0
9984,90.0,120,240,2.0,0.0
9985,87.0,240,240,2.0,0.0
9986,81.0,240,240,2.0,0.0
9987,78.0,240,240,2.0,0.0
9988,60.0,0,1440,5.0,0.0
9989,48.0,240,1440,5.0,0.0
9990,75.0,480,240,2.0,0.0
9991,87.0,240,240,2.0,0.0
9992,84.0,240,240,2.0,0.0
9993,78.0,240,240,2.0,0.0
9994,75.0,0,240,2.0,0.0
9995,72.0,120,240,2.0,0.0
9996,57.0,360,360,5.0,0.0
9997,45.0,0,360,5.0,0.0
9998,43.0,0,360,5.0,0.0
9999,83.0,120,240,2.0,0.0
10000,55.0,120,360,5.0,0.0
10001,79.0,240,240,2.0,0.0
10002,74.0,240,240,2.0,0.0
10003,71.0,240,240,2.0,0.0
10004,67.0,480,240,2.0,0.0
10005,43.0,600,240,5.0,0.0
10006,44.0,360,120,5.0,0.0
10007,43.0,480,240,5.0,0.0
10008,71.0,240,240,2.0,0.0
10009,67.0,240,240,2.0,0.0
10010,62.0,240,240,2.0,0.0
10011,59.0,240,240,2.0,0.0
10012,55.0,480,240,2.0,0.0
10013,43.0,600,240,5.0,0.0
10014,44.0,360,120,5.0,0.0
10015,43.0,1080,240,5.0,0.0
10016,44.0,360,120,5.0,0.0
10017,56.0,0,120,5.0,0.0
10018,55.0,0,240,5.0,0.0
10019,43.0,1080,240,5.0,0.0
10020,56.0,360,120,5.0,0.0
10021,44.0,0,120,5.0,0.0
10022,43.0,0,240,5.0,0.0
10023,55.0,1080,240,5.0,0.0
10024,56.0,360,120,5.0,0.0
10025,44.0,0,120,5.0,0.0
10026,55.0,480,240,5.0,0.0
10027,43.0,0,240,5.0,0.0
10028,44.0,120,240,5.0,0.0
10029,68.0,360,120,1.0,0.0
10030,56.0,0,120,1.0,0.0
10031,43.0,120,240,5.0,0.0
10032,67.0,0,120,1.0,0.0
10033,55.0,360,120,1.0,0.0
10034,41.0,120,240,5.0,0.0
10035,65.0,360,120,1.0,0.0
10036,53.0,0,120,1.0,0.0
10037,28.0,0,360,5.0,0.0
10038,40.0,360,360,5.0,0.0
10039,85.0,120,240,1.0,0.0
10040,73.0,0,240,1.0,0.0
10041,52.0,120,240,3.0,0.0
10042,61.0,0,240,3.0,0.0
10043,58.0,0,240,3.0,0.0
10044,84.0,0,120,1.0,0.0
10045,72.0,360,120,1.0,0.0
10046,61.0,0,240,3.0,0.0
10047,67.0,600,240,3.0,0.0
10048,70.0,0,240,1.0,0.0
10049,58.0,0,240,3.0,0.0
10050,82.0,0,240,1.0,0.0
10051,29.0,0,360,5.0,0.0
10052,41.0,0,360,5.0,0.0
10053,68.0,360,120,1.0,0.0
10054,80.0,0,120,1.0,0.0
10055,79.0,480,240,1.0,0.0
10056,56.0,0,240,3.0,0.0
10057,61.0,0,240,3.0,0.0
10058,53.0,0,240,3.0,0.0
10059,67.0,0,240,1.0,0.0
10060,65.0,0,240,1.0,0.0
10061,77.0,480,240,1.0,0.0
10062,61.0,0,240,3.0,0.0
10063,56.0,0,240,3.0,0.0
10064,70.0,0,240,2.0,0.0
10065,73.0,0,240,2.0,0.0
10066,49.0,0,240,5.0,0.0
10067,76.0,480,240,1.0,0.0
10068,61.0,0,240,5.0,0.0
10069,64.0,0,240,1.0,0.0
10070,65.0,120,240,1.0,0.0
10071,77.0,0,240,1.0,0.0
10072,60.0,360,120,5.0,0.0
10073,48.0,0,120,5.0,0.0
10074,58.0,600,240,5.0,0.0
10075,67.0,0,240,1.0,0.0
10076,79.0,0,240,1.0,0.0
10077,46.0,0,240,5.0,0.0
10078,60.0,7,1185,1.0,0.0
10079,72.0,8,1192,1.0,0.0
10080,65.0,0,1200,2.0,0.0
10081,44.0,0,120,5.0,0.0
10082,56.0,360,120,5.0,0.0
10083,55.0,465,240,5.0,0.0
10084,43.0,0,240,5.0,0.0
10085,53.0,0,240,5.0,0.0
10086,41.0,80,240,5.0,0.0
10087,72.0,80,80,1.0,0.0
10088,74.0,80,80,1.0,0.0
10089,76.0,240,80,1.0,0.0
10090,39.0,360,360,5.0,0.0
10091,51.0,0,360,5.0,0.0
10092,77.0,0,240,1.0,0.0
10093,65.0,120,240,1.0,0.0
10094,57.0,0,240,3.0,0.0
10095,53.0,0,240,3.0,0.0
10096,51.0,120,240,3.0,0.0
10097,76.0,360,120,1.0,0.0
10098,64.0,0,120,1.0,0.0
10099,60.0,0,240,3.0,0.0
10100,53.0,0,240,3.0,0.0
10101,57.0,600,240,3.0,0.0
10102,77.0,0,240,1.0,0.0
10103,65.0,0,240,1.0,0.0
10104,37.0,0,360,5.0,0.0
10105,49.0,360,360,5.0,0.0
10106,80.0,0,120,1.0,0.0
10107,68.0,0,120,1.0,0.0
10108,65.0,0,240,1.0,0.0
10109,77.0,0,240,1.0,0.0
10110,58.0,480,240,3.0,0.0
10111,53.0,0,240,3.0,0.0
10112,66.0,600,240,1.0,0.0
10113,78.0,0,240,1.0,0.0
10114,61.0,0,240,3.0,0.0
10115,58.0,0,240,3.0,0.0
10116,36.0,360,360,5.0,0.0
10117,48.0,0,360,5.0,0.0
10118,70.0,0,120,1.0,0.0
10119,82.0,0,120,1.0,0.0
10120,80.0,0,240,1.0,0.0
10121,68.0,0,240,1.0,0.0
10122,63.0,480,240,3.0,0.0
10123,53.0,0,240,3.0,0.0
10124,60.0,0,240,3.0,0.0
10125,60.0,0,240,3.0,0.0
10126,69.0,0,240,1.0,0.0
10127,65.0,480,240,3.0,0.0
10128,81.0,0,240,1.0,0.0
10129,63.0,0,240,3.0,0.0
10130,72.0,0,240,1.0,0.0
10131,84.0,120,240,1.0,0.0
10132,34.0,360,360,5.0,0.0
10133,46.0,0,360,5.0,0.0
10134,82.0,39,641,1.0,0.0
10135,53.0,375,240,3.0,0.0
10136,58.0,0,240,3.0,0.0
10137,61.0,0,240,3.0,0.0
10138,70.0,26,615,1.0,0.0
10139,65.0,40,240,3.0,0.0
10140,58.0,0,240,3.0,0.0
10141,61.0,0,240,3.0,0.0
10142,71.0,40,40,1.0,0.0
10143,74.0,0,40,1.0,0.0
10144,77.0,40,40,1.0,0.0
10145,80.0,40,40,1.0,0.0
10146,83.0,40,40,1.0,0.0
10147,86.0,40,40,1.0,0.0
10148,89.0,40,40,1.0,0.0
10149,92.0,240,40,1.0,0.0
10150,50.0,0,240,5.0,0.0
10151,83.0,480,240,1.0,0.0
10152,38.0,0,240,5.0,0.0
10153,95.0,0,240,1.0,0.0
10154,39.0,120,240,5.0,0.0
10155,51.0,0,240,5.0,0.0
10156,82.0,0,120,1.0,0.0
10157,94.0,360,120,1.0,0.0
10158,41.0,0,240,5.0,0.0
10159,53.0,0,240,5.0,0.0
10160,80.0,480,240,1.0,0.0
10161,92.0,0,240,1.0,0.0
10162,58.0,0,240,5.0,0.0
10163,46.0,120,240,5.0,0.0
10164,78.0,360,120,1.0,0.0
10165,90.0,0,120,1.0,0.0
10166,44.0,0,240,5.0,0.0
10167,56.0,0,240,5.0,0.0
10168,77.0,0,240,1.0,0.0
10169,89.0,480,240,1.0,0.0
10170,42.0,0,240,5.0,0.0
10171,54.0,40,240,5.0,0.0
10172,87.0,0,240,1.0,0.0
10173,75.0,0,240,1.0,0.0
10174,73.0,0,40,1.0,0.0
10175,79.0,40,40,1.0,0.0
10176,82.0,40,40,1.0,0.0
10177,85.0,40,40,1.0,0.0
10178,85.0,40,40,1.0,0.0
10179,91.0,40,40,1.0,0.0
10180,94.0,240,40,1.0,0.0
10181,85.0,0,240,1.0,0.0
10182,52.0,480,240,5.0,0.0
10183,40.0,0,240,5.0,0.0
10184,97.0,0,240,1.0,0.0
10185,53.0,0,240,5.0,0.0
10186,41.0,120,240,5.0,0.0
10187,96.0,0,120,1.0,0.0
10188,84.0,360,120,1.0,0.0
10189,94.0,480,240,1.0,0.0
10190,82.0,0,240,1.0,0.0
10191,55.0,0,240,5.0,0.0
10192,43.0,0,240,5.0,0.0
10193,60.0,120,240,5.0,0.0
10194,48.0,0,240,5.0,0.0
10195,92.0,0,120,1.0,0.0
10196,80.0,360,120,1.0,0.0
10197,58.0,480,240,5.0,0.0
10198,46.0,0,240,5.0,0.0
10199,91.0,0,240,1.0,0.0
10200,79.0,0,240,1.0,0.0
10201,77.0,40,240,1.0,0.0
10202,89.0,0,240,1.0,0.0
10203,56.0,0,240,5.0,0.0
10204,44.0,0,240,5.0,0.0
10205,78.0,0,40,1.0,0.0
10206,84.0,40,40,1.0,0.0
10207,87.0,40,40,1.0,0.0
10208,90.0,40,0,1.0,0.0
10209,96.0,40,40,1.0,0.0
10210,45.0,0,280,5.0,0.0
10211,99.0,240,40,1.0,0.0
10212,90.0,0,240,1.0,0.0
10213,60.0,600,240,5.0,0.0
10214,51.0,0,240,5.0,0.0
10215,48.0,0,240,5.0,0.0
10216,54.0,0,240,5.0,0.0
10217,102.0,0,240,1.0,0.0
10218,87.0,0,120,1.0,0.0
10219,75.0,0,120,5.0,0.0
10220,99.0,360,120,1.0,0.0
10221,84.0,0,240,1.0,0.0
10222,96.0,0,240,1.0,0.0
10223,72.0,480,240,5.0,0.0
10224,69.0,120,240,5.0,0.0
10225,93.0,360,120,1.0,0.0
10226,81.0,0,120,1.0,0.0
10227,66.0,120,240,5.0,0.0
10228,78.0,360,120,1.0,0.0
10229,90.0,0,120,1.0,0.0
10230,63.0,120,240,5.0,0.0
10231,87.0,360,120,1.0,0.0
10232,75.0,0,120,1.0,0.0
10233,60.0,120,240,5.0,0.0
10234,84.0,0,120,1.0,0.0
10235,72.0,360,120,1.0,0.0
10236,57.0,120,240,5.0,0.0
10237,69.0,0,120,1.0,0.0
10238,81.0,360,120,1.0,0.0
10239,54.0,120,240,5.0,0.0
10240,78.0,360,120,1.0,0.0
10241,66.0,0,120,1.0,0.0
10242,51.0,120,240,5.0,0.0
10243,63.0,360,120,1.0,0.0
10244,75.0,0,120,1.0,0.0
10245,48.0,120,240,5.0,0.0
10246,60.0,360,120,1.0,0.0
10247,72.0,0,120,1.0,0.0
10248,45.0,120,240,5.0,0.0
10249,57.0,0,120,1.0,0.0
10250,69.0,360,120,1.0,0.0
10251,42.0,120,240,5.0,0.0
10252,54.0,360,120,1.0,0.0
10253,66.0,0,120,1.0,0.0
10254,41.0,120,240,5.0,0.0
10255,65.0,0,120,1.0,0.0
10256,53.0,360,120,1.0,0.0
10257,39.0,120,240,5.0,0.0
10258,63.0,1080,120,1.0,0.0
10259,51.0,0,120,1.0,0.0
10260,38.0,0,960,5.0,0.0
10261,50.0,0,960,5.0,0.0
10262,62.0,240,960,1.0,0.0
10263,49.0,0,240,5.0,0.0
10264,70.0,40,240,1.0,0.0
10265,77.0,0,240,1.0,0.0
10266,53.0,40,240,5.0,0.0
10267,58.0,40,240,5.0,0.0
10268,65.0,1080,240,5.0,0.0
10269,82.0,0,240,1.0,0.0
10270,49.0,240,960,5.0,0.0
10271,37.0,0,960,5.0,0.0
10272,61.0,0,960,1.0,0.0
10273,70.0,40,240,1.0,0.0
10274,49.0,0,240,5.0,0.0
10275,53.0,0,240,5.0,0.0
10276,77.0,40,240,1.0,0.0
10277,58.0,40,240,5.0,0.0
10278,82.0,0,240,1.0,0.0
10279,65.0,1080,240,5.0,0.0
10280,60.0,0,960,1.0,0.0
10281,36.0,0,960,5.0,0.0
10282,68.0,40,240,1.0,0.0
10283,48.0,240,0,5.0,0.0
10284,53.0,40,240,5.0,0.0
10285,72.0,0,240,1.0,0.0
10286,77.0,0,240,1.0,0.0
10287,56.0,40,240,5.0,0.0
10288,65.0,1080,240,5.0,0.0
10289,80.0,0,240,1.0,0.0
10290,58.0,0,960,1.0,0.0
10291,46.0,0,960,5.0,0.0
10292,34.0,240,960,5.0,0.0
10293,67.0,0,240,1.0,0.0
10294,52.0,40,240,5.0,0.0
10295,72.0,0,240,1.0,0.0
10296,55.0,40,240,5.0,0.0
10297,76.0,40,240,1.0,0.0
10298,60.0,0,240,5.0,0.0
10299,79.0,1080,240,1.0,0.0
10300,64.0,0,240,5.0,0.0
10301,56.0,0,960,1.0,0.0
10302,44.0,240,960,5.0,0.0
10303,32.0,0,960,5.0,0.0
10304,72.0,0,240,1.0,0.0
10305,53.0,40,240,5.0,0.0
10306,77.0,0,240,1.0,0.0
10307,56.0,40,240,5.0,0.0
10308,60.0,40,240,5.0,0.0
10309,80.0,0,240,1.0,0.0
10310,65.0,0,240,5.0,0.0
10311,84.0,1080,240,1.0,0.0
10312,58.0,240,960,1.0,0.0
10313,34.0,0,960,5.0,0.0
10314,70.0,0,240,1.0,0.0
10315,46.0,0,0,5.0,0.0
10316,73.0,40,240,1.0,0.0
10317,49.0,0,240,5.0,0.0
10318,54.0,0,240,5.0,0.0
10319,78.0,40,240,1.0,0.0
10320,61.0,0,240,5.0,0.0
10321,82.0,1080,240,1.0,0.0
10322,36.0,240,960,5.0,0.0
10323,60.0,0,960,1.0,0.0
10324,48.0,0,0,5.0,0.0
10325,68.0,0,240,1.0,0.0
10326,53.0,0,240,5.0,0.0
10327,72.0,40,240,1.0,0.0
10328,56.0,0,240,5.0,0.0
10329,77.0,40,240,1.0,0.0
10330,80.0,0,240,1.0,0.0
10331,65.0,1080,240,5.0,0.0
10332,48.0,0,960,5.0,0.0
10333,60.0,240,960,1.0,0.0
10334,36.0,0,960,5.0,0.0
10335,67.0,0,240,1.0,0.0
10336,52.0,40,240,5.0,0.0
10337,55.0,40,240,5.0,0.0
10338,70.0,0,240,1.0,0.0
10339,76.0,0,240,1.0,0.0
10340,60.0,40,240,5.0,0.0
10341,64.0,0,240,5.0,0.0
10342,79.0,480,240,1.0,0.0
10343,41.0,0,360,5.0,0.0
10344,72.0,0,360,2.0,0.0
10345,65.0,0,360,1.0,0.0
10346,77.0,0,360,1.0,0.0
10347,56.0,840,360,5.0,0.0
10348,48.0,0,360,5.0,0.0
10349,68.0,0,360,2.0,0.0
10350,73.0,600,240,2.0,0.0
10351,70.0,0,240,2.0,0.0
10352,77.0,0,240,1.0,0.0
10353,65.0,0,240,1.0,0.0
10354,53.0,0,240,5.0,0.0
10355,46.0,0,240,5.0,0.0
10356,72.0,0,360,2.0,0.0
10357,68.0,0,360,2.0,0.0
10358,41.0,0,360,5.0,0.0
10359,53.0,0,360,5.0,0.0
10360,65.0,840,360,1.0,0.0
10361,77.0,0,360,1.0,0.0
10362,34.0,0,240,5.0,0.0
10363,58.0,0,240,2.0,0.0
10364,61.0,600,240,2.0,0.0
10365,41.0,0,240,5.0,0.0
10366,65.0,0,240,1.0,0.0
10367,53.0,0,240,1.0,0.0
10368,29.0,1440,360,5.0,0.0
10369,41.0,0,360,5.0,0.0
10370,60.0,0,360,2.0,0.0
10371,56.0,0,360,2.0,0.0
10372,53.0,0,360,1.0,0.0
10373,65.0,0,360,1.0,0.0
10374,56.0,0,360,2.0,0.0
10375,53.0,0,360,1.0,0.0
10376,29.0,0,360,5.0,0.0
10377,41.0,0,360,5.0,0.0
10378,60.0,2040,360,2.0,0.0
10379,65.0,0,360,1.0,0.0
10380,73.0,0,240,2.0,0.0
10381,77.0,240,240,1.0,0.0
10382,70.0,240,240,2.0,0.0
10383,73.0,0,240,1.0,0.0
10384,70.0,0,240,1.0,0.0
10385,65.0,240,240,2.0,0.0
10386,65.0,0,240,1.0,0.0
10387,65.0,0,240,1.0,0.0
10388,61.0,160,0,2.0,0.0
10389,58.0,0,240,2.0,0.0
10390,41.0,40,40,5.0,0.0
10391,41.0,40,40,5.0,0.0
10392,41.0,240,40,5.0,0.0
10393,57.0,0,360,2.0,0.0
10394,65.0,0,360,1.0,0.0
10395,34.0,0,240,4.0,0.0
10396,46.0,120,240,5.0,0.0
10397,65.0,0,120,1.0,0.0
10398,63.0,0,120,2.0,0.0
10399,60.0,40,0,2.0,0.0
10400,41.0,40,0,5.0,0.0
10401,41.0,40,0,5.0,0.0
10402,61.0,288,192,2.0,0.0
10403,34.0,0,192,4.0,0.0
10404,46.0,0,192,5.0,0.0
10405,58.0,0,192,2.0,0.0
10406,65.0,0,192,1.0,0.0
10407,73.0,0,240,2.0,0.0
10408,77.0,240,240,1.0,0.0
10409,70.0,240,240,2.0,0.0
10410,73.0,0,240,1.0,0.0
10411,70.0,0,240,1.0,0.0
10412,65.0,240,240,2.0,0.0
10413,65.0,160,240,1.0,0.0
10414,63.0,240,240,1.0,0.0
10415,61.0,0,0,2.0,0.0
10416,39.0,40,0,5.0,0.0
10417,39.0,0,40,5.0,0.0
10418,32.0,120,240,4.0,0.0
10419,58.0,0,0,2.0,0.0
10420,55.0,0,360,2.0,0.0
10421,63.0,0,360,1.0,0.0
10422,44.0,0,240,5.0,0.0
10423,39.0,40,40,5.0,0.0
10424,58.0,40,0,2.0,0.0
10425,61.0,0,120,2.0,0.0
10426,39.0,40,40,5.0,0.0
10427,39.0,0,40,5.0,0.0
10428,32.0,0,192,4.0,0.0
10429,56.0,0,192,2.0,0.0
10430,44.0,0,192,5.0,0.0
10431,63.0,192,0,1.0,0.0
10432,60.0,168,192,2.0,0.0
10433,63.0,120,120,1.0,0.0
10434,60.0,240,240,2.0,0.0
10435,56.0,0,240,5.0,0.0
10436,65.0,0,120,1.0,0.0
10437,66.0,240,240,1.0,0.0
10438,51.0,0,240,5.0,0.0
10439,63.0,0,240,2.0,0.0
10440,65.0,0,240,2.0,0.0
10441,58.0,0,0,4.0,0.0
10442,70.0,0,240,1.0,0.0
10443,49.0,0,240,5.0,0.0
10444,75.0,0,240,1.0,0.0
10445,66.0,0,240,2.0,0.0
10446,58.0,240,0,4.0,0.0
10447,48.0,0,240,5.0,0.0
10448,47.0,0,240,5.0,0.0
10449,75.0,0,240,2.0,0.0
10450,57.0,0,240,4.0,0.0
10451,77.0,0,240,1.0,0.0
10452,46.0,120,240,5.0,0.0
10453,58.0,0,240,4.0,0.0
10454,77.0,40,360,1.0,0.0
10455,65.0,240,0,2.0,0.0
10456,74.0,0,360,2.0,0.0
10457,65.0,0,0,2.0,0.0
10458,74.0,192,120,1.0,0.0
10459,70.0,0,120,2.0,0.0
10460,34.0,40,0,5.0,0.0
10461,34.0,0,40,5.0,0.0
10462,70.0,0,192,1.0,0.0
10463,62.0,100,192,2.0,0.0
10464,46.0,0,192,5.0,0.0
10465,65.0,0,192,2.0,0.0
10466,70.0,0,52,1.0,0.0
10467,58.0,80,52,5.0,0.0
10468,70.0,0,52,2.0,0.0
10469,72.0,80,52,1.0,0.0
10470,57.0,0,52,5.0,0.0
10471,69.0,0,52,5.0,0.0
10472,68.0,184,52,5.0,0.0
10473,56.0,0,52,5.0,0.0
10474,70.0,0,52,2.0,0.0
10475,74.0,0,52,1.0,0.0
10476,70.0,0,156,2.0,0.0
10477,66.0,0,156,5.0,0.0
10478,54.0,240,156,5.0,0.0
10479,75.0,0,156,1.0,0.0
10480,78.0,240,156,1.0,0.0
10481,63.0,0,156,5.0,0.0
10482,51.0,0,156,5.0,0.0
10483,70.0,0,156,2.0,0.0
10484,75.0,0,156,2.0,0.0
10485,70.0,0,156,2.0,0.0
10486,82.0,0,156,1.0,0.0
10487,61.0,0,156,5.0,0.0
10488,77.0,240,156,2.0,0.0
10489,49.0,0,156,5.0,0.0
10490,60.0,0,156,5.0,0.0
10491,48.0,324,156,5.0,0.0
10492,84.0,0,156,1.0,0.0
10493,72.0,0,156,2.0,0.0
10494,79.0,0,156,2.0,0.0
10495,76.0,0,156,2.0,0.0
10496,82.0,0,156,2.0,0.0
10497,84.0,0,480,2.0,0.0
10498,41.0,160,240,5.0,0.0
10499,80.0,0,480,2.0,0.0
10500,77.0,0,480,2.0,0.0
10501,89.0,0,480,1.0,0.0
10502,53.0,0,240,5.0,0.0
10503,29.0,40,0,5.0,0.0
10504,29.0,40,0,5.0,0.0
10505,68.0,0,240,2.0,0.0
10506,65.0,0,240,2.0,0.0
10507,72.0,160,240,2.0,0.0
10508,77.0,0,240,1.0,0.0
10509,41.0,0,240,5.0,0.0
10510,77.0,40,0,1.0,0.0
10511,77.0,480,40,1.0,0.0
10512,80.0,0,480,2.0,0.0
10513,85.0,0,480,1.0,0.0
10514,68.0,0,480,4.0,0.0
10515,73.0,0,480,1.0,0.0
10516,65.0,0,480,4.0,0.0
10517,71.0,400,480,4.0,0.0
10518,77.0,0,480,2.0,0.0
10519,59.0,0,480,5.0,0.0
10520,84.0,0,480,1.0,0.0
10521,72.0,240,480,1.0,0.0
10522,67.0,10,450,4.0,0.0
10523,60.0,10,460,5.0,0.0
10524,70.0,10,470,4.0,0.0
10525,76.0,0,480,2.0,0.0
10526,29.0,40,40,5.0,0.0
10527,29.0,10,40,5.0,0.0
10528,29.0,0,40,5.0,0.0
10529,41.0,160,240,5.0,0.0
10530,77.0,0,480,2.0,0.0
10531,72.0,0,480,2.0,0.0
10532,68.0,240,480,1.0,0.0
10533,80.0,0,480,1.0,0.0
10534,29.0,40,0,5.0,0.0
10535,29.0,40,0,5.0,0.0
10536,41.0,160,240,5.0,0.0
10537,77.0,0,40,1.0,0.0
10538,65.0,40,40,5.0,0.0
10539,77.0,0,40,1.0,0.0
10540,65.0,40,0,5.0,0.0
10541,77.0,0,40,1.0,0.0
10542,58.0,400,480,5.0,0.0
10543,73.0,0,480,1.0,0.0
10544,85.0,0,480,1.0,0.0
10545,77.0,0,480,2.0,0.0
10546,61.0,0,480,4.0,0.0
10547,66.0,0,480,4.0,0.0
10548,76.0,0,480,2.0,0.0
10549,70.0,0,450,4.0,0.0
10550,67.0,0,450,4.0,0.0
10551,84.0,0,480,1.0,0.0
10552,72.0,0,480,1.0,0.0
10553,60.0,30,450,5.0,0.0
10554,29.0,40,40,5.0,0.0
10555,29.0,10,0,5.0,0.0
10556,81.0,0,480,2.0,0.0
10557,89.0,144,480,1.0,0.0
10558,77.0,0,480,1.0,0.0
10559,84.0,0,480,2.0,0.0
10560,41.0,160,240,5.0,0.0
10561,29.0,40,0,5.0,0.0
10562,29.0,40,0,5.0,0.0
10563,41.0,336,144,5.0,0.0
10564,63.0,240,240,2.0,0.0
10565,66.0,0,240,1.0,0.0
10566,60.0,0,240,2.0,0.0
10567,63.0,240,240,1.0,0.0
10568,60.0,240,240,1.0,0.0
10569,57.0,0,240,2.0,0.0
10570,57.0,160,240,1.0,0.0
10571,54.0,0,240,2.0,0.0
10572,51.0,8,192,2.0,0.0
10573,54.0,0,192,1.0,0.0
10574,29.0,32,40,5.0,0.0
10575,29.0,40,40,5.0,0.0
10576,29.0,240,40,5.0,0.0
10577,41.0,120,240,5.0,0.0
10578,54.0,0,360,1.0,0.0
10579,51.0,40,360,2.0,0.0
10580,53.0,192,120,1.0,0.0
10581,49.0,0,120,2.0,0.0
10582,65.0,40,0,5.0,0.0
10583,65.0,0,40,5.0,0.0
10584,65.0,15,1785,5.0,0.0
10585,48.0,288,192,2.0,0.0
10586,51.0,0,192,1.0,0.0
10587,66.0,240,240,2.0,0.0
10588,75.0,0,240,1.0,0.0
10589,72.0,240,240,1.0,0.0
10590,63.0,0,240,2.0,0.0
10591,60.0,240,240,2.0,0.0
10592,69.0,0,240,1.0,0.0
10593,66.0,0,240,1.0,0.0
10594,57.0,160,240,2.0,0.0
10595,65.0,0,240,1.0,0.0
10596,61.0,240,240,2.0,0.0
10597,29.0,40,0,5.0,0.0
10598,29.0,40,0,5.0,0.0
10599,63.0,0,360,1.0,0.0
10600,60.0,40,360,2.0,0.0
10601,41.0,105,240,5.0,0.0
10602,61.0,0,120,1.0,0.0
10603,58.0,192,120,2.0,0.0
10604,65.0,40,40,5.0,0.0
10605,65.0,40,40,5.0,0.0
10606,65.0,0,40,5.0,0.0
10607,60.0,0,192,1.0,0.0
10608,57.0,288,192,2.0,0.0
10609,65.0,55,825,5.0,0.0
10610,78.0,0,240,1.0,0.0
10611,69.0,192,240,2.0,0.0
10612,75.0,0,192,1.0,0.0
10613,66.0,153,192,2.0,0.0
10614,72.0,0,240,2.0,0.0
10615,81.0,192,240,1.0,0.0
10616,65.0,40,0,5.0,0.0
10617,65.0,40,0,5.0,0.0
10618,69.0,0,192,2.0,0.0
10619,78.0,288,192,1.0,0.0
10620,65.0,48,1312,5.0,0.0
10621,87.0,0,240,1.0,0.0
10622,78.0,240,240,2.0,0.0
10623,84.0,0,240,1.0,0.0
10624,75.0,240,240,2.0,0.0
10625,72.0,240,240,2.0,0.0
10626,81.0,0,240,1.0,0.0
10627,69.0,0,240,2.0,0.0
10628,78.0,112,240,1.0,0.0
10629,75.0,0,240,1.0,0.0
10630,72.0,360,240,2.0,0.0
10631,65.0,40,40,5.0,0.0
10632,65.0,40,40,5.0,0.0
10633,65.0,0,40,5.0,0.0
10634,73.0,120,360,1.0,0.0
10635,70.0,0,360,2.0,0.0
10636,66.0,0,720,5.0,0.0
10637,54.0,240,240,5.0,0.0
10638,61.0,0,240,5.0,0.0
10639,58.0,0,240,5.0,0.0
10640,64.0,0,240,5.0,0.0
10641,73.0,0,240,2.0,0.0
10642,80.0,240,240,1.0,0.0
10643,76.0,0,240,1.0,0.0
10644,70.0,0,240,2.0,0.0
10645,68.0,240,240,5.0,0.0
10646,61.0,0,240,5.0,0.0
10647,73.0,0,240,1.0,0.0
10648,66.0,240,240,2.0,0.0
10649,58.0,0,240,5.0,0.0
10650,64.0,0,240,5.0,0.0
10651,54.0,0,240,5.0,0.0
10652,68.0,0,240,2.0,0.0
10653,61.0,0,240,5.0,0.0
10654,76.0,240,240,1.0,0.0
10655,58.0,0,240,5.0,0.0
10656,73.0,0,240,2.0,0.0
10657,64.0,0,240,5.0,0.0
10658,80.0,240,240,1.0,0.0
10659,61.0,0,240,5.0,0.0
10660,70.0,160,240,2.0,0.0
10661,68.0,0,240,5.0,0.0
10662,76.0,0,240,1.0,0.0
10663,64.0,160,160,5.0,0.0
10664,73.0,0,160,1.0,0.0
10665,58.0,0,160,5.0,0.0
10666,66.0,0,160,2.0,0.0
10667,70.0,0,160,2.0,0.0
10668,54.0,160,160,5.0,0.0
10669,76.0,0,160,1.0,0.0
10670,58.0,0,160,5.0,0.0
10671,80.0,160,160,1.0,0.0
10672,58.0,0,160,5.0,0.0
10673,73.0,0,160,2.0,0.0
10674,64.0,0,160,5.0,0.0
10675,61.0,0,160,5.0,0.0
10676,68.0,160,160,5.0,0.0
10677,76.0,0,160,1.0,0.0
10678,70.0,0,160,2.0,0.0
10679,58.0,0,160,5.0,0.0
10680,66.0,160,160,2.0,0.0
10681,73.0,0,160,1.0,0.0
10682,64.0,0,160,5.0,0.0
10683,61.0,0,160,5.0,0.0
10684,54.0,160,160,5.0,0.0
10685,76.0,0,160,1.0,0.0
10686,70.0,0,160,2.0,0.0
10687,73.0,160,160,2.0,0.0
10688,80.0,0,160,1.0,0.0
10689,64.0,0,160,5.0,0.0
10690,58.0,0,160,5.0,0.0
10691,68.0,0,160,5.0,0.0
10692,76.0,160,160,1.0,0.0
10693,70.0,0,160,2.0,0.0
10694,61.0,0,160,5.0,0.0
10695,73.0,0,160,1.0,0.0
10696,58.0,160,160,5.0,0.0
10697,64.0,0,160,5.0,0.0
10698,66.0,0,160,2.0,0.0
10699,61.0,160,160,5.0,0.0
10700,54.0,0,160,5.0,0.0
10701,70.0,0,160,2.0,0.0
10702,76.0,0,160,1.0,0.0
10703,64.0,0,160,5.0,0.0
10704,58.0,0,160,5.0,0.0
10705,80.0,160,160,1.0,0.0
10706,73.0,0,160,2.0,0.0
10707,61.0,192,160,5.0,0.0
10708,68.0,0,160,5.0,0.0
10709,70.0,0,160,2.0,0.0
10710,76.0,0,160,1.0,0.0
10711,58.0,0,192,5.0,0.0
10712,64.0,0,192,5.0,0.0
10713,73.0,0,192,1.0,0.0
10714,66.0,240,192,2.0,0.0
10715,61.0,0,192,5.0,0.0
10716,54.0,0,192,5.0,0.0
10717,70.0,480,192,2.0,0.0
10718,76.0,0,192,1.0,0.0
10719,61.0,1128,192,5.0,0.0
10720,76.0,0,192,1.0,0.0
10721,54.0,0,192,5.0,0.0
10722,68.0,0,192,2.0,0.0
10723,29.0,60,120,5.0,0.0
10724,41.0,60,120,5.0,0.0
10725,41.0,60,120,5.0,0.0
10726,29.0,60,0,5.0,0.0
10727,41.0,60,120,5.0,0.0
10728,29.0,60,120,5.0,0.0
10729,41.0,60,120,5.0,0.0
10730,41.0,60,120,5.0,0.0
10731,29.0,60,0,5.0,0.0
10732,73.0,0,240,2.0,0.0
10733,77.0,0,240,1.0,0.0
10734,41.0,60,0,5.0,0.0
10735,29.0,60,0,5.0,0.0
10736,41.0,60,0,5.0,0.0
10737,70.0,0,240,2.0,0.0
10738,73.0,0,240,1.0,0.0
10739,29.0,60,0,5.0,0.0
10740,41.0,60,0,5.0,0.0
10741,70.0,0,240,1.0,0.0
10742,65.0,0,240,2.0,0.0
10743,29.0,60,0,5.0,0.0
10744,41.0,60,0,5.0,0.0
10745,29.0,60,0,5.0,0.0
10746,41.0,60,0,5.0,0.0
10747,29.0,60,120,5.0,0.0
10748,65.0,60,240,1.0,0.0
10749,29.0,0,120,5.0,0.0
10750,41.0,60,0,5.0,0.0
10751,58.0,0,240,2.0,0.0
10752,61.0,0,0,2.0,0.0
10753,29.0,60,120,5.0,0.0
10754,65.0,0,240,1.0,0.0
10755,41.0,60,0,5.0,0.0
10756,29.0,230,120,5.0,0.0
10757,41.0,0,60,5.0,0.0
10758,34.0,10,270,5.0,0.0
10759,60.0,0,360,2.0,0.0
10760,57.0,0,360,2.0,0.0
10761,46.0,120,240,5.0,0.0
10762,63.0,0,120,2.0,0.0
10763,27.0,24,39,5.0,0.0
10764,60.0,15,120,2.0,0.0
10765,65.0,39,0,1.0,0.0
10766,41.0,24,39,5.0,0.0
10767,27.0,24,39,5.0,0.0
10768,41.0,9,39,5.0,0.0
10769,34.0,177,39,5.0,0.0
10770,65.0,0,0,1.0,0.0
10771,58.0,0,192,2.0,0.0
10772,61.0,0,192,2.0,0.0
10773,46.0,240,240,5.0,0.0
10774,73.0,0,240,2.0,0.0
10775,77.0,240,240,1.0,0.0
10776,73.0,240,240,1.0,0.0
10777,70.0,0,240,2.0,0.0
10778,65.0,0,240,2.0,0.0
10779,70.0,240,240,1.0,0.0
10780,61.0,0,240,2.0,0.0
10781,65.0,159,240,1.0,0.0
10782,63.0,0,240,1.0,0.0
10783,61.0,0,240,2.0,0.0
10784,58.0,15,240,2.0,0.0
10785,27.0,24,39,5.0,0.0
10786,39.0,24,39,5.0,0.0
10787,27.0,24,39,5.0,0.0
10788,39.0,9,39,5.0,0.0
10789,32.0,225,39,5.0,0.0
10790,55.0,0,360,2.0,0.0
10791,58.0,0,360,2.0,0.0
10792,44.0,120,240,5.0,0.0
10793,27.0,24,39,5.0,0.0
10794,58.0,0,120,2.0,0.0
10795,63.0,39,0,1.0,0.0
10796,61.0,0,120,2.0,0.0
10797,39.0,24,39,5.0,0.0
10798,27.0,24,39,5.0,0.0
10799,39.0,9,39,5.0,0.0
10800,32.0,177,39,5.0,0.0
10801,44.0,120,240,5.0,0.0
10802,60.0,0,192,2.0,0.0
10803,56.0,48,192,2.0,0.0
10804,63.0,15,0,1.0,0.0
10805,63.0,120,120,1.0,0.0
10806,59.0,0,240,2.0,0.0
10807,56.0,240,240,5.0,0.0
10808,65.0,0,120,1.0,0.0
10809,51.0,240,240,5.0,0.0
10810,63.0,0,240,2.0,0.0
10811,66.0,0,240,1.0,0.0
10812,70.0,0,240,1.0,0.0
10813,58.0,0,0,4.0,0.0
10814,65.0,0,240,2.0,0.0
10815,49.0,240,240,5.0,0.0
10816,48.0,0,240,5.0,0.0
10817,58.0,0,0,4.0,0.0
10818,66.0,0,240,2.0,0.0
10819,75.0,240,240,1.0,0.0
10820,57.0,0,240,4.0,0.0
10821,75.0,0,240,2.0,0.0
10822,77.0,0,240,1.0,0.0
10823,47.0,240,240,5.0,0.0
10824,65.0,0,0,2.0,0.0
10825,46.0,0,240,5.0,0.0
10826,74.0,0,360,2.0,0.0
10827,58.0,120,240,4.0,0.0
10828,77.0,40,360,1.0,0.0
10829,65.0,0,0,2.0,0.0
10830,70.0,0,120,2.0,0.0
10831,74.0,0,120,1.0,0.0
10832,34.0,40,0,5.0,0.0
10833,34.0,40,0,5.0,0.0
10834,46.0,0,192,5.0,0.0
10835,65.0,0,192,2.0,0.0
10836,62.0,0,192,2.0,0.0
10837,70.0,100,192,1.0,0.0
10838,58.0,80,52,5.0,0.0
10839,70.0,0,52,1.0,0.0
10840,57.0,80,52,5.0,0.0
10841,70.0,0,52,2.0,0.0
10842,72.0,0,52,1.0,0.0
10843,69.0,0,52,2.0,0.0
10844,68.0,0,52,2.0,0.0
10845,74.0,0,52,1.0,0.0
10846,56.0,0,52,5.0,0.0
10847,70.0,184,52,2.0,0.0
10848,66.0,240,156,5.0,0.0
10849,54.0,0,156,5.0,0.0
10850,75.0,0,156,1.0,0.0
10851,70.0,0,156,2.0,0.0
10852,78.0,0,156,1.0,0.0
10853,63.0,0,156,5.0,0.0
10854,75.0,0,156,2.0,0.0
10855,70.0,0,156,2.0,0.0
10856,51.0,240,156,5.0,0.0
10857,77.0,0,156,2.0,0.0
10858,49.0,0,156,5.0,0.0
10859,61.0,0,156,5.0,0.0
10860,82.0,240,156,1.0,0.0
10861,70.0,0,156,2.0,0.0
10862,60.0,0,156,5.0,0.0
10863,48.0,0,156,5.0,0.0
10864,87.0,324,156,1.0,0.0
10865,82.0,0,156,2.0,0.0
10866,75.0,0,156,2.0,0.0
10867,78.0,0,156,2.0,0.0
10868,86.0,0,360,2.0,0.0
10869,77.0,40,360,2.0,0.0
10870,89.0,0,360,1.0,0.0
10871,46.0,120,240,5.0,0.0
10872,82.0,0,360,2.0,0.0
10873,58.0,0,240,5.0,0.0
10874,86.0,0,120,1.0,0.0
10875,82.0,0,120,2.0,0.0
10876,34.0,40,0,5.0,0.0
10877,34.0,40,0,5.0,0.0
10878,77.0,192,0,2.0,0.0
10879,46.0,0,192,5.0,0.0
10880,82.0,0,192,1.0,0.0
10881,70.0,0,192,2.0,0.0
10882,74.0,0,0,2.0,0.0
10883,82.0,40,40,1.0,0.0
10884,70.0,0,40,5.0,0.0
10885,82.0,0,40,1.0,0.0
10886,70.0,40,0,5.0,0.0
10887,82.0,480,40,1.0,0.0
10888,82.0,0,480,2.0,0.0
10889,63.0,0,480,5.0,0.0
10890,90.0,0,480,1.0,0.0
10891,78.0,0,480,1.0,0.0
10892,72.0,0,480,4.0,0.0
10893,70.0,0,480,4.0,0.0
10894,89.0,0,480,1.0,0.0
10895,81.0,0,480,2.0,0.0
10896,75.0,0,464,4.0,0.0
10897,84.0,400,0,2.0,0.0
10898,77.0,0,480,1.0,0.0
10899,65.0,0,464,5.0,0.0
10900,72.0,16,464,4.0,0.0
10901,41.0,40,0,5.0,0.0
10902,41.0,24,0,5.0,0.0
10903,86.0,0,480,1.0,0.0
10904,82.0,0,480,2.0,0.0
10905,77.0,0,480,2.0,0.0
10906,34.0,160,240,5.0,0.0
10907,74.0,0,480,1.0,0.0
10908,46.0,0,240,5.0,0.0
10909,41.0,40,0,5.0,0.0
10910,41.0,40,0,5.0,0.0
10911,46.0,0,240,5.0,0.0
10912,34.0,160,240,4.0,0.0
10913,70.0,0,40,5.0,0.0
10914,82.0,40,0,1.0,0.0
10915,70.0,40,0,5.0,0.0
10916,82.0,0,40,1.0,0.0
10917,78.0,0,480,1.0,0.0
10918,82.0,0,480,2.0,0.0
10919,63.0,0,480,5.0,0.0
10920,70.0,0,480,4.0,0.0
10921,72.0,0,480,4.0,0.0
10922,90.0,400,480,1.0,0.0
10923,69.0,0,464,4.0,0.0
10924,77.0,0,480,1.0,0.0
10925,89.0,240,480,1.0,0.0
10926,72.0,0,464,4.0,0.0
10927,81.0,0,480,2.0,0.0
10928,65.0,16,464,5.0,0.0
10929,41.0,40,0,5.0,0.0
10930,41.0,24,0,5.0,0.0
10931,46.0,160,240,5.0,0.0
10932,89.0,0,480,2.0,0.0
10933,34.0,0,240,4.0,0.0
10934,82.0,240,480,1.0,0.0
10935,94.0,0,480,1.0,0.0
10936,86.0,0,480,2.0,0.0
10937,41.0,40,40,5.0,0.0
10938,41.0,40,0,5.0,0.0
10939,46.0,160,240,5.0,0.0
10940,34.0,0,240,4.0,0.0
10941,41.0,40,40,5.0,0.0
10942,41.0,40,40,5.0,0.0
10943,41.0,240,40,5.0,0.0
10944,47.0,0,960,2.0,0.0
10945,59.0,240,960,1.0,0.0
10946,46.0,160,240,5.0,0.0
10947,34.0,0,240,4.0,0.0
10948,41.0,40,40,5.0,0.0
10949,41.0,40,40,5.0,0.0
10950,41.0,240,40,5.0,0.0
10951,46.0,160,240,5.0,0.0
10952,34.0,0,240,4.0,0.0
10953,41.0,40,40,5.0,0.0
10954,41.0,40,0,5.0,0.0
10955,51.0,0,480,2.0,0.0
10956,34.0,0,240,5.0,0.0
10957,46.0,160,240,5.0,0.0
10958,63.0,0,480,1.0,0.0
10959,41.0,40,0,5.0,0.0
10960,41.0,0,40,5.0,0.0
10961,53.0,240,480,2.0,0.0
10962,46.0,160,240,5.0,0.0
10963,34.0,0,240,5.0,0.0
10964,59.0,240,0,2.0,0.0
10965,63.0,0,480,2.0,0.0
10966,65.0,0,480,1.0,0.0
10967,41.0,40,40,5.0,0.0
10968,41.0,40,0,5.0,0.0
10969,68.0,240,480,1.0,0.0
10970,59.0,0,480,2.0,0.0
10971,65.0,0,480,2.0,0.0
10972,63.0,0,480,2.0,0.0
10973,34.0,0,240,5.0,0.0
10974,46.0,160,240,5.0,0.0
10975,41.0,40,0,5.0,0.0
10976,41.0,0,40,5.0,0.0
10977,58.0,0,480,2.0,0.0
10978,67.0,240,480,1.0,0.0
10979,46.0,160,240,5.0,0.0
10980,34.0,0,240,5.0,0.0
10981,41.0,40,40,5.0,0.0
10982,41.0,40,40,5.0,0.0
10983,41.0,0,40,5.0,0.0
10984,34.0,160,240,5.0,0.0
10985,57.0,0,480,2.0,0.0
10986,63.0,0,0,2.0,0.0
10987,66.0,0,480,1.0,0.0
10988,60.0,0,480,2.0,0.0
10989,46.0,0,240,5.0,0.0
10990,41.0,40,0,5.0,0.0
10991,41.0,240,40,5.0,0.0
10992,61.0,240,480,2.0,0.0
10993,34.0,0,240,5.0,0.0
10994,46.0,160,240,5.0,0.0
10995,65.0,0,480,1.0,0.0
10996,58.0,0,480,2.0,0.0
10997,41.0,40,40,5.0,0.0
10998,41.0,40,40,5.0,0.0
10999,41.0,0,40,5.0,0.0
11000,46.0,160,240,5.0,0.0
11001,34.0,0,240,5.0,0.0
11002,63.0,0,720,1.0,0.0
11003,59.0,0,720,2.0,0.0
11004,54.0,0,720,2.0,0.0
11005,41.0,40,0,5.0,0.0
11006,41.0,240,40,5.0,0.0
11007,46.0,160,240,5.0,0.0
11008,34.0,0,240,5.0,0.0
11009,41.0,40,0,5.0,0.0
11010,41.0,40,0,5.0,0.0
11011,54.0,35,480,2.0,0.0
11012,46.0,160,240,5.0,0.0
11013,34.0,0,240,5.0,0.0
11014,51.0,0,480,2.0,0.0
11015,57.0,0,480,1.0,0.0
11016,41.0,40,40,5.0,0.0
11017,41.0,40,40,5.0,0.0
11018,41.0,445,75,5.0,0.0
11019,85.0,0,240,2.0,0.0
11020,89.0,240,240,1.0,0.0
11021,85.0,0,240,1.0,0.0
11022,82.0,240,240,2.0,0.0
11023,82.0,0,240,1.0,0.0
11024,77.0,240,240,2.0,0.0
11025,73.0,0,240,2.0,0.0
11026,77.0,240,240,1.0,0.0
11027,73.0,0,240,1.0,0.0
11028,70.0,240,240,2.0,0.0
11029,70.0,0,240,1.0,0.0
11030,66.0,480,240,2.0,0.0
11031,70.0,0,240,1.0,0.0
11032,64.0,720,240,2.0,0.0
11033,65.0,480,480,1.0,0.0
11034,58.0,240,240,5.0,0.0
11035,53.0,240,240,5.0,0.0
11036,49.0,240,240,5.0,0.0
11037,46.0,240,240,5.0,0.0
11038,42.0,240,240,5.0,0.0
11039,41.0,480,240,5.0,0.0
11040,41.0,877,240,5.0,0.0
11041,34.0,243,637,5.0,0.0
11042,41.0,0,40,5.0,0.0
11043,53.0,40,0,1.0,0.0
11044,53.0,0,0,1.0,0.0
11045,41.0,40,0,5.0,0.0
11046,46.0,0,480,5.0,0.0
11047,58.0,0,480,1.0,0.0
11048,51.0,0,480,2.0,0.0
11049,54.0,400,480,2.0,0.0
11050,39.0,0,480,5.0,0.0
11051,53.0,0,40,1.0,0.0
11052,53.0,0,40,1.0,0.0
11053,41.0,40,0,5.0,0.0
11054,53.0,0,40,1.0,0.0
11055,41.0,40,0,5.0,0.0
11056,58.0,0,480,1.0,0.0
11057,51.0,0,480,2.0,0.0
11058,54.0,0,480,2.0,0.0
11059,46.0,512,480,5.0,0.0
11060,39.0,0,480,5.0,0.0
11061,53.0,40,32,1.0,0.0
11062,41.0,0,32,5.0,0.0
11063,41.0,0,32,5.0,0.0
11064,53.0,1368,32,1.0,0.0
11065,53.0,0,1375,1.0,0.0
11066,41.0,0,1375,5.0,0.0
11067,46.0,3261,1295,5.0,0.0
11068,58.0,15,1280,1.0,0.0
11069,49.0,0,1295,2.0,0.0
11070,34.0,0,1295,5.0,0.0
11071,48.0,240,156,1.0,0.0
11072,56.0,0,156,2.0,0.0
11073,53.0,0,156,2.0,0.0
11074,41.0,0,156,5.0,0.0
11075,60.0,480,156,1.0,0.0
11076,41.0,0,156,5.0,0.0
11077,53.0,0,156,2.0,0.0
11078,56.0,0,156,2.0,0.0
11079,60.0,240,156,1.0,0.0
11080,58.0,0,156,2.0,0.0
11081,53.0,0,156,2.0,0.0
11082,34.0,0,156,5.0,0.0
11083,61.0,480,156,1.0,0.0
11084,53.0,0,156,2.0,0.0
11085,58.0,240,156,2.0,0.0
11086,61.0,0,156,1.0,0.0
11087,34.0,0,156,5.0,0.0
11088,41.0,0,156,5.0,0.0
11089,56.0,0,156,1.0,0.0
11090,53.0,282,156,2.0,0.0
11091,58.0,0,78,1.0,0.0
11092,41.0,0,78,5.0,0.0
11093,55.0,198,78,2.0,0.0
11094,41.0,0,156,5.0,0.0
11095,60.0,0,156,1.0,0.0
11096,56.0,1164,156,2.0,0.0
11097,65.0,0,607,4.0,0.0
11098,58.0,0,607,5.0,0.0
11099,85.0,0,600,1.0,0.0
11100,73.0,7,600,2.0,0.0
11101,82.0,473,607,2.0,0.0
11102,66.0,0,367,4.0,0.0
11103,73.0,269,367,2.0,0.0
11104,82.0,0,367,2.0,0.0
11105,85.0,7,360,1.0,0.0
11106,54.0,0,360,5.0,0.0
11107,60.0,0,156,5.0,0.0
11108,76.0,240,156,2.0,0.0
11109,67.0,0,156,4.0,0.0
11110,84.0,0,156,1.0,0.0
11111,82.0,0,156,1.0,0.0
11112,67.0,0,156,4.0,0.0
11113,76.0,0,156,2.0,0.0
11114,60.0,240,156,5.0,0.0
11115,65.0,0,156,5.0,0.0
11116,77.0,282,156,2.0,0.0
11117,80.0,0,156,1.0,0.0
11118,68.0,0,156,4.0,0.0
11119,79.0,0,78,2.0,0.0
11120,65.0,198,78,5.0,0.0
11121,68.0,0,78,4.0,0.0
11122,82.0,0,78,1.0,0.0
11123,80.0,0,156,2.0,0.0
11124,84.0,0,156,1.0,0.0
11125,68.0,1284,156,4.0,0.0
11126,65.0,0,156,5.0,0.0
11127,56.0,0,720,1.0,0.0
11128,51.0,240,480,4.0,0.0
11129,53.0,0,720,2.0,0.0
11130,41.0,0,720,5.0,0.0
11131,58.0,0,240,1.0,0.0
11132,50.0,480,240,4.0,0.0
11133,51.0,0,480,2.0,0.0
11134,48.0,240,480,4.0,0.0
11135,43.0,0,720,5.0,0.0
11136,50.0,0,240,4.0,0.0
11137,53.0,0,240,2.0,0.0
11138,41.0,720,720,5.0,0.0
11139,56.0,0,720,2.0,0.0
11140,51.0,240,480,4.0,0.0
11141,60.0,480,0,1.0,0.0
11142,50.0,0,240,4.0,0.0
11143,62.0,0,240,1.0,0.0
11144,48.0,0,720,4.0,0.0
11145,64.0,840,720,1.0,0.0
11146,43.0,0,720,4.0,0.0
11147,60.0,0,720,2.0,0.0
11148,55.0,0,720,2.0,0.0
11149,36.0,0,720,5.0,0.0
11150,83.0,0,360,2.0,0.0
11151,89.0,0,360,2.0,0.0
11152,92.0,276,360,1.0,0.0
11153,80.0,0,360,2.0,0.0
11154,86.0,0,360,2.0,0.0
11155,36.0,0,360,5.0,0.0
11156,24.0,0,360,5.0,0.0
11157,36.0,0,156,5.0,0.0
11158,91.0,240,156,1.0,0.0
11159,86.0,0,156,2.0,0.0
11160,83.0,0,156,2.0,0.0
11161,79.0,0,156,2.0,0.0
11162,24.0,0,156,5.0,0.0
11163,36.0,0,156,5.0,0.0
11164,24.0,0,156,5.0,0.0
11165,89.0,0,156,1.0,0.0
11166,83.0,0,156,2.0,0.0
11167,77.0,0,156,2.0,0.0
11168,86.0,240,156,2.0,0.0
11169,36.0,0,156,5.0,0.0
11170,24.0,0,156,5.0,0.0
11171,88.0,0,156,1.0,0.0
11172,76.0,0,156,2.0,0.0
11173,84.0,282,156,2.0,0.0
11174,89.0,0,78,1.0,0.0
11175,77.0,0,78,2.0,0.0
11176,86.0,0,78,2.0,0.0
11177,36.0,198,78,5.0,0.0
11178,24.0,0,78,5.0,0.0
11179,24.0,0,156,5.0,0.0
11180,36.0,0,156,5.0,0.0
11181,79.0,1284,156,2.0,0.0
11182,91.0,0,156,1.0,0.0
11183,88.0,0,156,2.0,0.0
11184,76.0,240,720,1.0,0.0
11185,67.0,0,480,4.0,0.0
11186,60.0,0,720,5.0,0.0
11187,70.0,480,720,2.0,0.0
11188,66.0,0,240,4.0,0.0
11189,78.0,0,240,1.0,0.0
11190,64.0,240,480,4.0,0.0
11191,79.0,0,720,1.0,0.0
11192,71.0,480,720,2.0,0.0
11193,59.0,0,720,5.0,0.0
11194,66.0,0,240,4.0,0.0
11195,67.0,240,480,4.0,0.0
11196,76.0,0,480,1.0,0.0
11197,58.0,0,1200,5.0,0.0
11198,72.0,0,1200,2.0,0.0
11199,77.0,0,240,1.0,0.0
11200,65.0,480,240,4.0,0.0
11201,79.0,0,480,1.0,0.0
11202,64.0,240,480,4.0,0.0
11203,72.0,240,240,1.0,0.0
11204,56.0,195,283,5.0,0.0
11205,60.0,0,240,4.0,0.0
11206,65.0,0,240,4.0,0.0
11207,77.0,3,240,2.0,0.0
11208,68.0,0,240,4.0,0.0
11209,84.0,0,240,1.0,0.0
11210,79.0,198,78,2.0,0.0
11211,82.0,0,78,1.0,0.0
11212,49.0,235,401,5.0,0.0
11213,68.0,0,156,2.0,0.0
11214,80.0,240,156,1.0,0.0
11215,61.0,4,397,4.0,0.0
11216,77.0,0,156,2.0,0.0
11217,77.0,1,156,1.0,0.0
11218,68.0,0,156,1.0,0.0
11219,65.0,240,156,2.0,0.0
11220,48.0,0,156,5.0,0.0
11221,60.0,0,156,4.0,0.0
11222,65.0,240,156,1.0,0.0
11223,60.0,0,156,2.0,0.0
11224,56.0,0,156,5.0,0.0
11225,44.0,0,156,5.0,0.0
11226,63.0,282,156,2.0,0.0
11227,60.0,0,156,2.0,0.0
11228,55.0,0,156,4.0,0.0
11229,51.0,0,156,4.0,0.0
11230,43.0,0,156,5.0,0.0
11231,72.0,0,156,1.0,0.0
11232,65.0,0,78,5.0,0.0
11233,68.0,198,78,4.0,0.0
11234,67.0,234,156,4.0,0.0
11235,73.0,3,390,2.0,0.0
11236,63.0,0,156,5.0,0.0
11237,75.0,0,390,2.0,0.0
11238,85.0,3,393,1.0,0.0
11239,55.0,0,156,5.0,0.0
11240,63.0,240,156,4.0,0.0
11241,84.0,0,156,1.0,0.0
11242,55.0,0,156,4.0,0.0
11243,75.0,0,156,2.0,0.0
11244,72.0,240,156,2.0,0.0
11245,51.0,0,156,5.0,0.0
11246,51.0,240,156,4.0,0.0
11247,79.0,0,156,1.0,0.0
11248,48.0,0,156,5.0,0.0
11249,75.0,0,156,2.0,0.0
11250,67.0,0,156,2.0,0.0
11251,60.0,1200,1440,2.0,0.0
11252,55.0,0,156,4.0,0.0
11253,43.0,1044,156,5.0,0.0
11254,62.0,0,1440,1.0,0.0
11255,68.0,240,720,4.0,0.0
11256,56.0,0,720,5.0,0.0
11257,59.0,0,1440,2.0,0.0
11258,62.0,0,1440,1.0,0.0
11259,56.0,0,720,5.0,0.0
11260,68.0,240,720,4.0,0.0
11261,43.0,0,240,5.0,0.0
11262,67.0,156,240,1.0,0.0
11263,36.0,0,156,5.0,0.0
11264,48.0,0,156,4.0,0.0
11265,72.0,0,156,1.0,0.0
11266,60.0,714,156,2.0,0.0
11267,64.0,0,156,2.0,0.0
11268,73.0,0,393,1.0,0.0
11269,70.0,4,393,2.0,0.0
11270,58.0,3,390,5.0,0.0
11271,61.0,239,397,4.0,0.0
11272,56.0,0,156,5.0,0.0
11273,68.0,240,156,2.0,0.0
11274,60.0,0,156,4.0,0.0
11275,72.0,0,156,1.0,0.0
11276,70.0,0,156,1.0,0.0
11277,55.0,0,156,5.0,0.0
11278,67.0,0,156,2.0,0.0
11279,58.0,240,156,4.0,0.0
11280,56.0,0,156,4.0,0.0
11281,65.0,0,156,2.0,0.0
11282,68.0,0,156,1.0,0.0
11283,53.0,282,156,5.0,0.0
11284,58.0,0,78,4.0,0.0
11285,55.0,0,78,5.0,0.0
11286,67.0,0,78,2.0,0.0
11287,70.0,198,78,1.0,0.0
11288,56.0,0,156,5.0,0.0
11289,60.0,0,156,4.0,0.0
11290,72.0,0,156,1.0,0.0
11291,68.0,804,156,2.0,0.0
11292,48.0,156,240,1.0,0.0
11293,56.0,0,156,2.0,0.0
11294,32.0,0,156,5.0,0.0
11295,60.0,714,156,1.0,0.0
11296,51.0,0,156,2.0,0.0
11297,44.0,0,156,4.0,0.0
11298,61.0,0,397,1.0,0.0
11299,25.0,0,390,5.0,0.0
11300,56.0,7,390,2.0,0.0
11301,37.0,239,397,4.0,0.0
11302,53.0,0,390,2.0,0.0
11303,55.0,240,156,2.0,0.0
11304,49.0,0,156,2.0,0.0
11305,39.0,0,156,4.0,0.0
11306,27.0,0,156,5.0,0.0
11307,60.0,0,156,1.0,0.0
11308,55.0,0,156,2.0,0.0
11309,27.0,0,156,5.0,0.0
11310,49.0,0,156,2.0,0.0
11311,39.0,240,156,4.0,0.0
11312,58.0,0,156,1.0,0.0
11313,48.0,0,156,2.0,0.0
11314,32.0,0,156,5.0,0.0
11315,44.0,0,156,4.0,0.0
11316,56.0,282,156,1.0,0.0
11317,51.0,198,78,2.0,0.0
11318,58.0,0,78,1.0,0.0
11319,32.0,0,78,5.0,0.0
11320,60.0,0,156,1.0,0.0
11321,44.0,804,156,5.0,0.0
11322,56.0,0,156,2.0,0.0
11323,56.0,156,240,1.0,0.0
11324,66.0,564,156,1.0,0.0
11325,63.0,0,156,2.0,0.0
11326,44.0,0,720,5.0,0.0
11327,56.0,156,720,5.0,0.0
11328,68.0,240,396,1.0,0.0
11329,65.0,0,396,2.0,0.0
11330,45.0,156,720,5.0,0.0
11331,57.0,0,720,5.0,0.0
11332,63.0,0,156,2.0,0.0
11333,66.0,240,156,1.0,0.0
11334,63.0,84,156,1.0,0.0
11335,60.0,0,156,2.0,0.0
11336,58.0,0,720,5.0,0.0
11337,62.0,282,156,1.0,0.0
11338,46.0,720,720,5.0,0.0
11339,63.0,0,78,1.0,0.0
11340,60.0,198,78,2.0,0.0
11341,62.0,84,156,2.0,0.0
11342,65.0,0,156,1.0,0.0
11343,59.0,156,720,5.0,0.0
11344,47.0,0,720,5.0,0.0
11345,56.0,0,240,1.0,0.0
11346,48.0,0,720,5.0,0.0
11347,60.0,156,720,5.0,0.0
11348,65.0,0,156,2.0,0.0
11349,68.0,564,156,1.0,0.0
11350,67.0,0,396,2.0,0.0
11351,70.0,240,396,1.0,0.0
11352,61.0,156,720,5.0,0.0
11353,49.0,0,720,5.0,0.0
11354,66.0,240,156,2.0,0.0
11355,69.0,0,156,1.0,0.0
11356,64.0,84,156,2.0,0.0
11357,67.0,0,156,1.0,0.0
11358,66.0,282,156,1.0,0.0
11359,62.0,0,720,5.0,0.0
11360,50.0,720,720,5.0,0.0
11361,64.0,198,78,2.0,0.0
11362,67.0,0,78,1.0,0.0
11363,66.0,84,156,2.0,0.0
11364,69.0,0,156,1.0,0.0
11365,51.0,0,720,5.0,0.0
11366,63.0,156,720,5.0,0.0
11367,60.0,0,240,1.0,0.0
11368,69.0,282,156,2.0,0.0
11369,72.0,0,156,1.0,0.0
11370,64.0,438,720,5.0,0.0
11371,52.0,0,720,5.0,0.0
11372,74.0,198,78,1.0,0.0
11373,71.0,0,78,2.0,0.0
11374,76.0,0,156,1.0,0.0
11375,72.0,84,156,2.0,0.0
11376,57.0,0,720,4.0,0.0
11377,51.0,240,720,5.0,0.0
11378,63.0,0,720,5.0,0.0
11379,76.0,282,78,1.0,0.0
11380,69.0,0,480,2.0,0.0
11381,77.0,198,480,1.0,0.0
11382,72.0,0,480,2.0,0.0
11383,58.0,0,720,4.0,0.0
11384,53.0,0,720,4.0,0.0
11385,62.0,0,720,5.0,0.0
11386,50.0,240,720,5.0,0.0
11387,77.0,282,78,1.0,0.0
11388,77.0,0,480,2.0,0.0
11389,79.0,0,480,1.0,0.0
11390,70.0,0,480,2.0,0.0
11391,67.0,198,480,2.0,0.0
11392,53.0,282,678,4.0,0.0
11393,59.0,0,678,4.0,0.0
11394,61.0,11,667,5.0,0.0
11395,49.0,0,678,5.0,0.0
11396,79.0,198,78,1.0,0.0
11397,77.0,0,156,2.0,0.0
11398,68.0,0,156,2.0,0.0
11399,71.0,0,156,2.0,0.0
11400,80.0,31,156,1.0,0.0
11401,48.0,357,283,5.0,0.0
11402,56.0,0,240,4.0,0.0
11403,72.0,0,240,2.0,0.0
11404,77.0,0,240,2.0,0.0
11405,53.0,0,240,4.0,0.0
11406,84.0,0,240,1.0,0.0
11407,60.0,3,240,5.0,0.0
11408,80.0,0,240,2.0,0.0
11409,36.0,113,1447,5.0,0.0
11410,84.0,120,120,1.0,0.0
11411,92.0,120,120,1.0,0.0
11412,91.0,120,120,1.0,0.0
11413,48.0,0,1200,5.0,0.0
11414,82.0,120,120,1.0,0.0
11415,80.0,120,120,1.0,0.0
11416,89.0,120,120,1.0,0.0
11417,87.0,120,120,1.0,0.0
11418,79.0,120,120,1.0,0.0
11419,77.0,120,120,1.0,0.0
11420,85.0,120,120,1.0,0.0
11421,84.0,120,120,1.0,0.0
11422,75.0,7,120,1.0,0.0
11423,55.0,120,240,4.0,0.0
11424,52.0,0,240,5.0,0.0
11425,73.0,120,120,1.0,0.0
11426,82.0,0,120,1.0,0.0
11427,56.0,0,240,4.0,0.0
11428,53.0,120,240,5.0,0.0
11429,80.0,120,120,1.0,0.0
11430,72.0,0,120,1.0,0.0
11431,70.0,120,120,1.0,0.0
11432,55.0,120,240,5.0,0.0
11433,58.0,0,240,4.0,0.0
11434,79.0,0,120,1.0,0.0
11435,56.0,0,240,5.0,0.0
11436,60.0,0,240,4.0,0.0
11437,77.0,120,120,1.0,0.0
11438,68.0,156,120,1.0,0.0
11439,61.0,0,156,4.0,0.0
11440,58.0,0,156,5.0,0.0
11441,67.0,444,156,1.0,0.0
11442,76.0,0,156,1.0,0.0
11443,29.0,8,1432,5.0,0.0
11444,66.0,120,120,1.0,0.0
11445,75.0,120,120,1.0,0.0
11446,41.0,0,1200,5.0,0.0
11447,73.0,120,120,1.0,0.0
11448,65.0,120,120,1.0,0.0
11449,63.0,120,120,1.0,0.0
11450,72.0,120,120,1.0,0.0
11451,70.0,120,120,1.0,0.0
11452,61.0,120,120,1.0,0.0
11453,60.0,120,120,1.0,0.0
11454,68.0,120,120,1.0,0.0
11455,66.0,112,120,1.0,0.0
11456,58.0,120,120,1.0,0.0
11457,56.0,120,120,1.0,0.0
11458,65.0,120,120,1.0,0.0
11459,29.0,0,0,5.0,0.0
11460,41.0,0,0,5.0,0.0
11461,63.0,120,120,1.0,0.0
11462,54.0,0,120,1.0,0.0
11463,53.0,120,120,1.0,0.0
11464,43.0,0,240,5.0,0.0
11465,31.0,120,240,5.0,0.0
11466,61.0,0,120,1.0,0.0
11467,33.0,0,240,5.0,0.0
11468,60.0,120,120,1.0,0.0
11469,45.0,156,240,5.0,0.0
11470,51.0,0,120,1.0,0.0
11471,61.0,0,156,1.0,0.0
11472,34.0,444,156,5.0,0.0
11473,46.0,0,156,5.0,0.0
11474,53.0,0,156,1.0,0.0
11475,30.0,0,1440,5.0,0.0
11476,73.0,120,120,1.0,0.0
11477,82.0,120,120,1.0,0.0
11478,80.0,120,120,1.0,0.0
11479,72.0,120,120,1.0,0.0
11480,70.0,120,120,1.0,0.0
11481,78.0,120,120,1.0,0.0
11482,77.0,120,120,1.0,0.0
11483,68.0,120,120,1.0,0.0
11484,66.0,120,120,1.0,0.0
11485,75.0,120,120,1.0,0.0
11486,73.0,120,120,1.0,0.0
11487,65.0,120,120,1.0,0.0
11488,42.0,0,0,5.0,0.0
11489,63.0,120,120,1.0,0.0
11490,30.0,0,240,5.0,0.0
11491,72.0,120,120,1.0,0.0
11492,42.0,0,240,5.0,0.0
11493,30.0,0,240,5.0,0.0
11494,70.0,120,120,1.0,0.0
11495,61.0,120,120,1.0,0.0
11496,60.0,120,120,1.0,0.0
11497,32.0,0,240,5.0,0.0
11498,44.0,0,240,5.0,0.0
11499,68.0,120,120,1.0,0.0
11500,46.0,0,240,5.0,0.0
11501,34.0,120,240,5.0,0.0
11502,66.0,120,120,1.0,0.0
11503,58.0,0,120,1.0,0.0
11504,47.0,120,720,5.0,0.0
11505,35.0,0,720,5.0,0.0
11506,65.0,120,120,1.0,0.0
11507,56.0,120,120,1.0,0.0
11508,55.0,120,120,1.0,0.0
11509,64.0,120,120,1.0,0.0
11510,65.0,120,120,1.0,0.0
11511,56.0,0,120,1.0,0.0
11512,48.0,0,720,5.0,0.0
11513,36.0,0,720,5.0,0.0
11514,55.0,120,120,1.0,0.0
11515,64.0,120,120,1.0,0.0
11516,65.0,120,120,1.0,0.0
11517,56.0,120,120,1.0,0.0
11518,55.0,120,120,1.0,0.0
11519,64.0,180,120,1.0,0.0
11520,47.0,183,720,5.0,0.0
11521,35.0,0,720,5.0,0.0
11522,65.0,183,180,1.0,0.0
11523,56.0,183,183,1.0,0.0
11524,54.0,174,186,1.0,0.0
11525,64.0,0,200,1.0,0.0
11526,48.0,0,720,5.0,0.0
11527,36.0,0,720,5.0,0.0
11528,65.0,183,183,1.0,0.0
11529,56.0,177,186,1.0,0.0
11530,54.0,177,183,1.0,0.0
11531,64.0,240,200,1.0,0.0
11532,53.0,0,240,1.0,0.0
11533,41.0,636,240,5.0,0.0
11534,65.0,0,240,1.0,0.0
11535,42.0,84,396,5.0,0.0
11536,54.0,0,396,5.0,0.0
11537,53.0,156,240,1.0,0.0
11538,65.0,0,240,1.0,0.0
11539,41.0,240,156,5.0,0.0
11540,53.0,0,156,5.0,0.0
11541,39.0,240,156,5.0,0.0
11542,51.0,0,156,5.0,0.0
11543,50.0,84,156,5.0,0.0
11544,65.0,0,240,1.0,0.0
11545,53.0,198,240,1.0,0.0
11546,38.0,0,156,5.0,0.0
11547,36.0,0,78,5.0,0.0
11548,48.0,198,78,5.0,0.0
11549,34.0,0,156,5.0,0.0
11550,46.0,324,156,5.0,0.0
11551,53.0,636,240,1.0,0.0
11552,65.0,0,240,1.0,0.0
11553,65.0,0,240,1.0,0.0
11554,48.0,0,156,5.0,0.0
11555,36.0,84,156,5.0,0.0
11556,53.0,636,240,1.0,0.0
11557,37.0,0,396,5.0,0.0
11558,49.0,84,396,5.0,0.0
11559,65.0,0,240,1.0,0.0
11560,53.0,156,240,1.0,0.0
11561,36.0,240,156,5.0,0.0
11562,48.0,0,156,5.0,0.0
11563,46.0,240,156,5.0,0.0
11564,34.0,0,156,5.0,0.0
11565,53.0,198,240,1.0,0.0
11566,65.0,0,240,1.0,0.0
11567,45.0,84,156,5.0,0.0
11568,33.0,0,156,5.0,0.0
11569,31.0,198,78,5.0,0.0
11570,43.0,0,78,5.0,0.0
11571,29.0,0,156,5.0,0.0
11572,41.0,324,156,5.0,0.0
11573,65.0,636,240,1.0,0.0
11574,53.0,0,240,1.0,0.0
11575,33.0,84,156,5.0,0.0
11576,65.0,0,240,1.0,0.0
11577,45.0,0,156,5.0,0.0
11578,53.0,198,240,1.0,0.0
11579,43.0,198,78,5.0,0.0
11580,31.0,0,78,5.0,0.0
11581,41.0,0,156,5.0,0.0
11582,29.0,324,156,5.0,0.0
11583,53.0,720,240,1.0,0.0
11584,29.0,0,240,5.0,0.0
11585,41.0,720,240,5.0,0.0
11586,53.0,0,240,1.0,0.0
11587,53.0,720,240,1.0,0.0
11588,65.0,0,1440,1.0,0.0
11589,41.0,3,1440,5.0,0.0
11590,72.0,0,2840,2.0,0.0
11591,77.0,237,1403,1.0,0.0
11592,57.0,120,120,3.0,0.0
11593,60.0,120,120,3.0,0.0
11594,57.0,120,120,3.0,0.0
11595,60.0,120,120,3.0,0.0
11596,57.0,0,120,3.0,0.0
11597,60.0,120,120,3.0,0.0
11598,69.0,120,0,2.0,0.0
11599,57.0,120,120,3.0,0.0
11600,60.0,120,120,3.0,0.0
11601,57.0,120,120,3.0,0.0
11602,60.0,120,120,3.0,0.0
11603,57.0,0,120,3.0,0.0
11604,64.0,0,1440,1.0,0.0
11605,76.0,240,1440,1.0,0.0
11606,45.0,0,1440,5.0,0.0
11607,57.0,120,120,3.0,0.0
11608,60.0,120,120,3.0,0.0
11609,57.0,120,120,3.0,0.0
11610,60.0,120,120,3.0,0.0
11611,57.0,120,120,3.0,0.0
11612,60.0,120,120,3.0,0.0
11613,57.0,120,120,3.0,0.0
11614,60.0,120,120,3.0,0.0
11615,57.0,120,120,3.0,0.0
11616,60.0,105,120,3.0,0.0
11617,57.0,0,120,3.0,0.0
11618,62.0,0,1440,1.0,0.0
11619,69.0,15,2865,2.0,0.0
11620,38.0,240,1440,5.0,0.0
11621,65.0,6,694,2.0,0.0
11622,74.0,6,1394,1.0,0.0
11623,50.0,120,120,3.0,0.0
11624,53.0,120,120,3.0,0.0
11625,50.0,120,120,3.0,0.0
11626,53.0,114,120,3.0,0.0
11627,50.0,120,120,3.0,0.0
11628,65.0,0,1440,2.0,0.0
11629,53.0,120,120,3.0,0.0
11630,50.0,120,120,3.0,0.0
11631,53.0,120,120,3.0,0.0
11632,50.0,120,120,3.0,0.0
11633,53.0,114,120,3.0,0.0
11634,50.0,0,120,3.0,0.0
11635,60.0,0,1440,1.0,0.0
11636,72.0,0,1440,1.0,0.0
11637,41.0,240,1440,5.0,0.0
11638,53.0,120,120,3.0,0.0
11639,57.0,120,120,3.0,0.0
11640,53.0,120,120,3.0,0.0
11641,57.0,120,120,3.0,0.0
11642,53.0,120,120,3.0,0.0
11643,57.0,120,120,3.0,0.0
11644,53.0,120,120,3.0,0.0
11645,57.0,120,120,3.0,0.0
11646,53.0,120,120,3.0,0.0
11647,57.0,105,120,3.0,0.0
11648,53.0,0,120,3.0,0.0
11649,43.0,0,720,5.0,0.0
11650,55.0,120,120,3.0,0.0
11651,58.0,120,120,3.0,0.0
11652,55.0,120,120,3.0,0.0
11653,58.0,120,120,3.0,0.0
11654,55.0,0,120,3.0,0.0
11655,62.0,0,0,2.0,0.0
11656,65.0,0,0,2.0,0.0
11657,45.0,240,720,5.0,0.0
11658,70.0,240,0,1.0,0.0
11659,57.0,120,120,3.0,0.0
11660,60.0,120,120,3.0,0.0
11661,57.0,120,120,3.0,0.0
11662,69.0,0,240,1.0,0.0
11663,60.0,120,120,3.0,0.0
11664,57.0,0,120,3.0,0.0
11665,69.0,0,480,1.0,0.0
11666,65.0,0,720,2.0,0.0
11667,46.0,240,1440,5.0,0.0
11668,58.0,120,120,3.0,0.0
11669,62.0,120,120,3.0,0.0
11670,58.0,120,120,3.0,0.0
11671,62.0,78,120,3.0,0.0
11672,67.0,42,198,1.0,0.0
11673,58.0,120,120,3.0,0.0
11674,67.0,6,754,1.0,0.0
11675,79.0,0,480,1.0,0.0
11676,62.0,120,120,3.0,0.0
11677,58.0,120,120,3.0,0.0
11678,62.0,120,120,3.0,0.0
11679,58.0,120,120,3.0,0.0
11680,62.0,114,120,3.0,0.0
11681,77.0,0,240,1.0,0.0
11682,58.0,0,120,3.0,0.0
11683,74.0,0,720,1.0,0.0
11684,47.0,240,720,5.0,0.0
11685,67.0,0,2160,2.0,0.0
11686,77.0,0,1440,1.0,0.0
11687,59.0,120,120,3.0,0.0
11688,62.0,120,120,3.0,0.0
11689,59.0,120,120,3.0,0.0
11690,62.0,120,120,3.0,0.0
11691,59.0,0,120,3.0,0.0
11692,48.0,0,720,5.0,0.0
11693,60.0,120,120,3.0,0.0
11694,65.0,120,120,3.0,0.0
11695,60.0,0,120,3.0,0.0
11696,72.0,120,0,1.0,0.0
11697,65.0,120,120,3.0,0.0
11698,60.0,60,120,3.0,0.0
11699,50.0,240,1440,5.0,0.0
11700,72.0,60,60,1.0,0.0
11701,74.0,120,60,1.0,0.0
11702,72.0,120,360,1.0,0.0
11703,62.0,120,120,3.0,0.0
11704,65.0,120,120,3.0,0.0
11705,62.0,0,120,3.0,0.0
11706,65.0,70,120,3.0,0.0
11707,71.0,50,190,1.0,0.0
11708,62.0,120,120,3.0,0.0
11709,71.0,5,515,1.0,0.0
11710,65.0,120,120,3.0,0.0
11711,86.0,120,480,1.0,0.0
11712,62.0,120,120,3.0,0.0
11713,65.0,115,120,3.0,0.0
11714,62.0,0,120,3.0,0.0
11715,65.0,120,120,3.0,0.0
11716,84.0,0,240,1.0,0.0
11717,62.0,0,120,3.0,0.0
11718,52.0,0,720,5.0,0.0
11719,79.0,240,720,1.0,0.0
11720,84.0,0,1440,1.0,0.0
11721,64.0,120,120,3.0,0.0
11722,67.0,120,120,3.0,0.0
11723,64.0,120,120,3.0,0.0
11724,67.0,120,120,3.0,0.0
11725,64.0,0,120,3.0,0.0
11726,53.0,240,720,5.0,0.0
11727,62.0,120,120,3.0,0.0
11728,65.0,120,120,3.0,0.0
11729,62.0,0,120,3.0,0.0
11730,65.0,120,120,3.0,0.0
11731,77.0,120,0,1.0,0.0
11732,62.0,0,120,3.0,0.0
11733,70.0,0,0,2.0,0.0
11734,55.0,240,720,5.0,0.0
11735,77.0,120,480,1.0,0.0
11736,60.0,120,120,3.0,0.0
11737,64.0,120,120,3.0,0.0
11738,60.0,0,120,3.0,0.0
11739,64.0,120,120,3.0,0.0
11740,76.0,0,240,1.0,0.0
11741,60.0,0,120,3.0,0.0
11742,79.0,0,480,1.0,0.0
11743,53.0,0,720,5.0,0.0
11744,58.0,120,120,3.0,0.0
11745,62.0,120,120,3.0,0.0
11746,58.0,0,120,3.0,0.0
11747,62.0,120,120,3.0,0.0
11748,67.0,0,960,2.0,0.0
11749,70.0,0,960,2.0,0.0
11750,74.0,0,720,1.0,0.0
11751,58.0,240,120,3.0,0.0
11752,52.0,0,720,5.0,0.0
11753,58.0,120,120,3.0,0.0
11754,60.0,120,120,3.0,0.0
11755,58.0,120,120,3.0,0.0
11756,60.0,120,120,3.0,0.0
11757,72.0,0,240,1.0,0.0
11758,58.0,240,120,3.0,0.0
11759,50.0,0,720,5.0,0.0
11760,77.0,120,480,1.0,0.0
11761,58.0,120,120,3.0,0.0
11762,62.0,120,120,3.0,0.0
11763,58.0,0,120,3.0,0.0
11764,70.0,0,720,1.0,0.0
11765,62.0,120,120,3.0,0.0
11766,58.0,240,120,3.0,0.0
11767,48.0,0,720,5.0,0.0
11768,57.0,120,120,3.0,0.0
11769,60.0,120,120,3.0,0.0
11770,57.0,120,120,3.0,0.0
11771,60.0,120,120,3.0,0.0
11772,69.0,0,240,1.0,0.0
11773,57.0,0,120,3.0,0.0
11774,65.0,240,0,2.0,0.0
11775,67.0,5,1195,2.0,0.0
11776,74.0,0,1440,1.0,0.0
11777,55.0,120,120,3.0,0.0
11778,59.0,120,120,3.0,0.0
11779,55.0,120,120,3.0,0.0
11780,59.0,120,120,3.0,0.0
11781,55.0,240,120,3.0,0.0
11782,48.0,0,0,5.0,0.0
11783,55.0,120,120,3.0,0.0
11784,58.0,115,120,3.0,0.0
11785,55.0,120,120,3.0,0.0
11786,58.0,120,120,3.0,0.0
11787,67.0,15,945,2.0,0.0
11788,55.0,120,120,3.0,0.0
11789,64.0,0,720,2.0,0.0
11790,58.0,120,120,3.0,0.0
11791,72.0,0,720,1.0,0.0
11792,55.0,120,120,3.0,0.0
11793,58.0,120,120,3.0,0.0
11794,55.0,120,120,3.0,0.0
11795,58.0,105,120,3.0,0.0
11796,55.0,240,120,3.0,0.0
11797,65.0,0,1440,1.0,0.0
11798,41.0,0,1440,5.0,0.0
11799,69.0,3,697,2.0,0.0
11800,77.0,6,1394,1.0,0.0
11801,72.0,15,2825,2.0,0.0
11802,57.0,120,120,3.0,0.0
11803,60.0,120,120,3.0,0.0
11804,57.0,120,120,3.0,0.0
11805,60.0,117,120,3.0,0.0
11806,57.0,120,120,3.0,0.0
11807,60.0,120,120,3.0,0.0
11808,69.0,0,2160,2.0,0.0
11809,57.0,120,120,3.0,0.0
11810,60.0,120,120,3.0,0.0
11811,57.0,120,120,3.0,0.0
11812,60.0,114,120,3.0,0.0
11813,57.0,240,120,3.0,0.0
11814,76.0,0,1440,1.0,0.0
11815,45.0,0,1440,5.0,0.0
11816,64.0,0,1440,1.0,0.0
11817,57.0,120,120,3.0,0.0
11818,60.0,120,120,3.0,0.0
11819,57.0,120,120,3.0,0.0
11820,60.0,120,120,3.0,0.0
11821,57.0,120,120,3.0,0.0
11822,60.0,120,120,3.0,0.0
11823,57.0,120,120,3.0,0.0
11824,60.0,120,120,3.0,0.0
11825,57.0,120,120,3.0,0.0
11826,60.0,105,120,3.0,0.0
11827,57.0,240,120,3.0,0.0
11828,67.0,0,1440,1.0,0.0
11829,43.0,0,1440,5.0,0.0
11830,70.0,6,694,2.0,0.0
11831,74.0,0,2600,2.0,0.0
11832,79.0,6,1394,1.0,0.0
11833,58.0,120,120,3.0,0.0
11834,62.0,120,120,3.0,0.0
11835,58.0,120,120,3.0,0.0
11836,62.0,114,120,3.0,0.0
11837,58.0,120,120,3.0,0.0
11838,62.0,120,120,3.0,0.0
11839,70.0,0,1920,2.0,0.0
11840,58.0,120,120,3.0,0.0
11841,62.0,120,120,3.0,0.0
11842,58.0,120,120,3.0,0.0
11843,62.0,114,120,3.0,0.0
11844,58.0,240,120,3.0,0.0
11845,65.0,0,1200,1.0,0.0
11846,77.0,0,1200,1.0,0.0
11847,46.0,240,1440,5.0,0.0
11848,58.0,120,120,3.0,0.0
11849,62.0,120,120,3.0,0.0
11850,58.0,120,120,3.0,0.0
11851,62.0,120,120,3.0,0.0
11852,58.0,120,120,3.0,0.0
11853,62.0,120,120,3.0,0.0
11854,58.0,120,120,3.0,0.0
11855,62.0,120,120,3.0,0.0
11856,58.0,120,120,3.0,0.0
11857,70.0,0,1440,1.0,0.0
11858,62.0,120,120,3.0,0.0
11859,58.0,0,120,3.0,0.0
11860,79.0,5,715,2.0,0.0
11861,82.0,0,1200,1.0,0.0
11862,51.0,0,720,5.0,0.0
11863,63.0,120,120,3.0,0.0
11864,67.0,120,120,3.0,0.0
11865,63.0,120,120,3.0,0.0
11866,67.0,115,120,3.0,0.0
11867,63.0,240,120,3.0,0.0
11868,50.0,240,720,5.0,0.0
11869,79.0,0,480,2.0,0.0
11870,62.0,120,120,3.0,0.0
11871,67.0,120,120,3.0,0.0
11872,62.0,120,120,3.0,0.0
11873,71.0,10,950,1.0,0.0
11874,77.0,5,235,2.0,0.0
11875,83.0,0,960,1.0,0.0
11876,67.0,115,120,3.0,0.0
11877,62.0,0,120,3.0,0.0
11878,48.0,240,1440,5.0,0.0
11879,77.0,115,485,2.0,0.0
11880,60.0,120,120,3.0,0.0
11881,67.0,120,120,3.0,0.0
11882,60.0,5,120,3.0,0.0
11883,76.0,0,240,2.0,0.0
11884,67.0,110,120,3.0,0.0
11885,60.0,120,120,3.0,0.0
11886,72.0,5,480,1.0,0.0
11887,84.0,5,485,1.0,0.0
11888,67.0,120,120,3.0,0.0
11889,79.0,110,490,2.0,0.0
11890,60.0,120,120,3.0,0.0
11891,67.0,120,120,3.0,0.0
11892,60.0,0,120,3.0,0.0
11893,67.0,120,120,3.0,0.0
11894,60.0,0,120,3.0,0.0
11895,79.0,0,1200,1.0,0.0
11896,67.0,5,1195,1.0,0.0
11897,48.0,0,720,5.0,0.0
11898,60.0,120,120,3.0,0.0
11899,64.0,120,120,3.0,0.0
11900,60.0,120,120,3.0,0.0
11901,64.0,120,120,3.0,0.0
11902,60.0,240,120,3.0,0.0
11903,46.0,0,720,5.0,0.0
11904,76.0,0,0,2.0,0.0
11905,58.0,120,120,3.0,0.0
11906,64.0,115,120,3.0,0.0
11907,58.0,120,120,3.0,0.0
11908,74.0,0,240,2.0,0.0
11909,64.0,120,120,3.0,0.0
11910,68.0,0,960,1.0,0.0
11911,80.0,5,955,1.0,0.0
11912,58.0,240,120,3.0,0.0
11913,45.0,0,1440,5.0,0.0
11914,74.0,120,480,2.0,0.0
11915,57.0,120,120,3.0,0.0
11916,64.0,120,120,3.0,0.0
11917,57.0,0,120,3.0,0.0
11918,64.0,115,120,3.0,0.0
11919,72.0,120,240,2.0,0.0
11920,57.0,0,120,3.0,0.0
11921,76.0,120,480,2.0,0.0
11922,64.0,120,120,3.0,0.0
11923,81.0,0,480,1.0,0.0
11924,69.0,0,480,1.0,0.0
11925,57.0,120,120,3.0,0.0
11926,64.0,120,120,3.0,0.0
11927,57.0,0,120,3.0,0.0
11928,64.0,120,120,3.0,0.0
11929,57.0,240,120,3.0,0.0
11930,64.0,0,720,2.0,0.0
11931,73.0,120,1920,1.0,0.0
11932,52.0,120,120,3.0,0.0
11933,57.0,120,120,3.0,0.0
11934,52.0,120,120,3.0,0.0
11935,57.0,120,120,3.0,0.0
11936,52.0,0,120,3.0,0.0
11937,45.0,240,0,5.0,0.0
11938,63.0,0,720,2.0,0.0
11939,53.0,120,120,3.0,0.0
11940,57.0,120,120,3.0,0.0
11941,53.0,120,120,3.0,0.0
11942,57.0,120,120,3.0,0.0
11943,53.0,240,120,3.0,0.0
11944,62.0,0,1440,2.0,0.0
11945,46.0,0,1440,5.0,0.0
11946,53.0,120,120,3.0,0.0
11947,58.0,120,120,3.0,0.0
11948,53.0,0,120,3.0,0.0
11949,74.0,0,240,1.0,0.0
11950,58.0,120,120,3.0,0.0
11951,53.0,120,120,3.0,0.0
11952,58.0,120,120,3.0,0.0
11953,76.0,120,480,1.0,0.0
11954,53.0,120,120,3.0,0.0
11955,58.0,120,120,3.0,0.0
11956,53.0,0,120,3.0,0.0
11957,58.0,120,120,3.0,0.0
11958,77.0,240,240,1.0,0.0
11959,53.0,0,120,3.0,0.0
11960,67.0,0,480,1.0,0.0
11961,65.0,0,1440,2.0,0.0
11962,46.0,0,1440,5.0,0.0
11963,55.0,120,120,3.0,0.0
11964,58.0,120,120,3.0,0.0
11965,55.0,120,120,3.0,0.0
11966,58.0,120,120,3.0,0.0
11967,70.0,120,240,1.0,0.0
11968,55.0,0,120,3.0,0.0
11969,58.0,120,120,3.0,0.0
11970,72.0,0,480,1.0,0.0
11971,55.0,120,120,3.0,0.0
11972,58.0,120,120,3.0,0.0
11973,55.0,120,120,3.0,0.0
11974,74.0,480,240,1.0,0.0
11975,58.0,120,120,3.0,0.0
11976,55.0,0,600,3.0,0.0
11977,64.0,240,480,1.0,0.0
11978,57.0,1207,240,4.0,0.0
11979,65.0,0,240,1.0,0.0
11980,60.0,233,1207,4.0,0.0
11981,69.0,0,1207,1.0,0.0
11982,67.0,0,240,1.0,0.0
11983,58.0,480,240,4.0,0.0
11984,64.0,240,480,1.0,0.0
11985,55.0,0,480,4.0,0.0
11986,56.0,0,240,4.0,0.0
11987,65.0,0,240,1.0,0.0
11988,68.0,0,1200,1.0,0.0
11989,60.0,240,1200,4.0,0.0
11990,48.0,1200,0,5.0,0.0
11991,58.0,0,240,4.0,0.0
11992,58.0,0,480,4.0,0.0
11993,67.0,480,0,1.0,0.0
11994,75.0,0,2160,1.0,0.0
11995,60.0,0,240,4.0,0.0
11996,68.0,1200,240,1.0,0.0
11997,63.0,233,1207,4.0,0.0
11998,72.0,7,1200,1.0,0.0
11999,61.0,0,240,4.0,0.0
12000,70.0,480,240,1.0,0.0
12001,58.0,233,487,4.0,0.0
12002,75.0,0,3600,1.0,0.0
12003,67.0,7,480,1.0,0.0
12004,60.0,1440,240,4.0,0.0
12005,68.0,0,240,1.0,0.0
12006,69.0,720,1440,1.0,0.0
12007,73.0,0,1440,1.0,0.0
12008,65.0,0,1440,4.0,0.0
12009,51.0,0,0,5.0,0.0
12010,63.0,0,720,4.0,0.0
12011,72.0,0,720,1.0,0.0
12012,67.0,720,720,2.0,0.0
12013,51.0,0,1440,5.0,0.0
12014,65.0,0,720,2.0,0.0
12015,61.0,0,720,4.0,0.0
12016,70.0,1434,720,1.0,0.0
12017,48.0,0,1440,5.0,0.0
12018,64.0,600,1440,2.0,0.0
12019,60.0,0,1440,4.0,0.0
12020,55.0,0,1440,4.0,0.0
12021,70.0,3,1417,1.0,0.0
12022,76.0,3,1394,1.0,0.0
12023,83.0,120,120,1.0,0.0
12024,84.0,120,120,1.0,0.0
12025,85.0,120,120,1.0,0.0
12026,84.0,120,120,1.0,0.0
12027,82.0,120,120,1.0,0.0
12028,79.0,120,120,1.0,0.0
12029,75.0,120,120,1.0,0.0
12030,73.0,240,120,1.0,0.0
12031,36.0,480,240,5.0,0.0
12032,72.0,0,240,1.0,0.0
12033,48.0,0,240,5.0,0.0
12034,36.0,240,240,5.0,0.0
12035,48.0,0,240,5.0,0.0
12036,37.0,0,240,5.0,0.0
12037,49.0,1080,240,5.0,0.0
12038,71.0,120,120,1.0,0.0
12039,72.0,120,120,1.0,0.0
12040,73.0,120,120,1.0,0.0
12041,72.0,120,120,1.0,0.0
12042,70.0,120,120,1.0,0.0
12043,67.0,120,120,1.0,0.0
12044,63.0,120,120,1.0,0.0
12045,61.0,240,120,1.0,0.0
12046,60.0,0,240,1.0,0.0
12047,36.0,480,240,5.0,0.0
12048,48.0,0,240,5.0,0.0
12049,36.0,240,240,5.0,0.0
12050,48.0,0,240,5.0,0.0
12051,37.0,0,240,5.0,0.0
12052,49.0,480,240,5.0,0.0
12053,49.0,0,240,5.0,0.0
12054,37.0,240,240,5.0,0.0
12055,32.0,0,240,5.0,0.0
12056,44.0,0,240,5.0,0.0
12057,56.0,0,240,2.0,0.0
12058,51.0,0,240,2.0,0.0
12059,60.0,480,240,1.0,0.0
12060,51.0,0,240,2.0,0.0
12061,44.0,240,240,5.0,0.0
12062,32.0,0,240,5.0,0.0
12063,60.0,0,240,1.0,0.0
12064,56.0,0,240,2.0,0.0
12065,56.0,0,240,2.0,0.0
12066,61.0,0,240,1.0,0.0
12067,53.0,0,240,2.0,0.0
12068,49.0,480,240,5.0,0.0
12069,37.0,0,240,5.0,0.0
12070,56.0,240,240,2.0,0.0
12071,53.0,0,240,2.0,0.0
12072,61.0,0,240,1.0,0.0
12073,37.0,0,240,5.0,0.0
12074,49.0,0,240,5.0,0.0
12075,36.0,480,240,5.0,0.0
12076,48.0,0,240,5.0,0.0
12077,36.0,240,240,5.0,0.0
12078,48.0,0,240,5.0,0.0
12079,49.0,480,240,5.0,0.0
12080,37.0,0,240,5.0,0.0
12081,49.0,0,240,5.0,0.0
12082,37.0,240,240,5.0,0.0
12083,44.0,0,240,5.0,0.0
12084,51.0,480,240,2.0,0.0
12085,56.0,0,240,2.0,0.0
12086,32.0,0,240,5.0,0.0
12087,60.0,0,240,1.0,0.0
12088,60.0,0,240,1.0,0.0
12089,44.0,0,240,5.0,0.0
12090,32.0,0,240,5.0,0.0
12091,51.0,0,240,2.0,0.0
12092,61.0,0,240,1.0,0.0
12093,37.0,0,240,5.0,0.0
12094,49.0,156,3600,5.0,0.0
12095,56.0,240,0,2.0,0.0
12096,53.0,0,240,2.0,0.0
12097,85.0,156,240,1.0,0.0
12098,37.0,0,156,5.0,0.0
12099,73.0,0,156,2.0,0.0
12100,78.0,3,136,2.0,0.0
12101,87.0,0,116,1.0,0.0
12102,82.0,477,119,2.0,0.0
12103,78.0,0,156,2.0,0.0
12104,73.0,0,156,2.0,0.0
12105,82.0,0,156,2.0,0.0
12106,87.0,237,156,1.0,0.0
12107,75.0,477,156,2.0,0.0
12108,37.0,0,156,5.0,0.0
12109,82.0,3,133,2.0,0.0
12110,85.0,0,116,2.0,0.0
12111,90.0,0,116,1.0,0.0
12112,75.0,240,156,2.0,0.0
12113,82.0,3,133,2.0,0.0
12114,85.0,0,116,2.0,0.0
12115,90.0,0,116,1.0,0.0
12116,85.0,0,156,1.0,0.0
12117,77.0,282,156,2.0,0.0
12118,37.0,0,156,5.0,0.0
12119,87.0,198,78,1.0,0.0
12120,80.0,0,78,2.0,0.0
12121,85.0,240,156,2.0,0.0
12122,89.0,0,156,1.0,0.0
12123,37.0,480,156,5.0,0.0
12124,85.0,84,156,1.0,0.0
12125,37.0,0,156,5.0,0.0
12126,73.0,3,156,2.0,0.0
12127,49.0,156,2880,5.0,0.0
12128,78.0,0,142,2.0,0.0
12129,82.0,474,122,2.0,0.0
12130,87.0,3,119,1.0,0.0
12131,73.0,0,156,2.0,0.0
12132,78.0,0,136,2.0,0.0
12133,87.0,240,116,1.0,0.0
12134,82.0,0,116,2.0,0.0
12135,37.0,0,156,5.0,0.0
12136,75.0,3,156,2.0,0.0
12137,78.0,477,139,2.0,0.0
12138,82.0,0,119,1.0,0.0
12139,75.0,3,156,2.0,0.0
12140,78.0,237,139,2.0,0.0
12141,82.0,0,119,1.0,0.0
12142,85.0,0,156,1.0,0.0
12143,77.0,282,156,2.0,0.0
12144,37.0,0,156,5.0,0.0
12145,80.0,0,78,1.0,0.0
12146,75.0,198,78,2.0,0.0
12147,73.0,240,156,2.0,0.0
12148,77.0,0,156,1.0,0.0
12149,37.0,480,156,5.0,0.0
12150,80.0,84,156,1.0,0.0
12151,77.0,0,156,2.0,0.0
12152,73.0,0,156,2.0,0.0
12153,37.0,0,156,5.0,0.0
12154,49.0,156,2880,5.0,0.0
12155,80.0,0,156,1.0,0.0
12156,74.0,0,156,2.0,0.0
12157,77.0,480,156,2.0,0.0
12158,80.0,0,156,1.0,0.0
12159,77.0,240,156,2.0,0.0
12160,74.0,0,156,2.0,0.0
12161,80.0,0,156,1.0,0.0
12162,37.0,0,156,5.0,0.0
12163,77.0,0,156,2.0,0.0
12164,71.0,480,156,2.0,0.0
12165,71.0,0,156,2.0,0.0
12166,77.0,240,156,2.0,0.0
12167,80.0,0,156,1.0,0.0
12168,37.0,282,156,5.0,0.0
12169,78.0,0,156,1.0,0.0
12170,69.0,0,156,2.0,0.0
12171,80.0,0,78,1.0,0.0
12172,71.0,120,78,2.0,0.0
12173,73.0,0,78,2.0,0.0
12174,81.0,318,78,1.0,0.0
12175,37.0,480,156,5.0,0.0
12176,78.0,0,156,2.0,0.0
12177,73.0,84,156,2.0,0.0
12178,81.0,0,156,1.0,0.0
12179,76.0,0,156,2.0,0.0
12180,79.0,0,156,2.0,0.0
12181,81.0,480,156,1.0,0.0
12182,37.0,0,156,5.0,0.0
12183,81.0,0,156,1.0,0.0
12184,79.0,240,156,2.0,0.0
12185,76.0,0,156,2.0,0.0
12186,79.0,0,156,2.0,0.0
12187,69.0,480,156,2.0,0.0
12188,37.0,0,156,5.0,0.0
12189,81.0,0,156,1.0,0.0
12190,81.0,0,156,1.0,0.0
12191,79.0,240,156,2.0,0.0
12192,69.0,0,156,2.0,0.0
12193,79.0,0,156,2.0,0.0
12194,76.0,0,156,2.0,0.0
12195,81.0,480,156,1.0,0.0
12196,37.0,0,156,5.0,0.0
12197,76.0,0,156,2.0,0.0
12198,79.0,0,156,2.0,0.0
12199,81.0,240,156,1.0,0.0
12200,37.0,480,156,5.0,0.0
12201,69.0,0,156,2.0,0.0
12202,79.0,0,156,2.0,0.0
12203,81.0,0,156,1.0,0.0
12204,81.0,84,156,1.0,0.0
12205,79.0,0,156,2.0,0.0
12206,69.0,0,156,2.0,0.0
12207,37.0,0,156,5.0,0.0
12208,75.0,0,156,2.0,0.0
12209,49.0,156,0,5.0,0.0
12210,79.0,480,156,2.0,0.0
12211,81.0,0,156,1.0,0.0
12212,81.0,0,156,1.0,0.0
12213,79.0,240,156,2.0,0.0
12214,75.0,0,156,2.0,0.0
12215,37.0,0,156,5.0,0.0
12216,69.0,0,156,2.0,0.0
12217,79.0,0,156,2.0,0.0
12218,81.0,480,156,1.0,0.0
12219,81.0,0,156,1.0,0.0
12220,69.0,240,156,2.0,0.0
12221,79.0,0,156,2.0,0.0
12222,37.0,480,156,5.0,0.0
12223,81.0,0,156,1.0,0.0
12224,75.0,0,156,2.0,0.0
12225,79.0,0,156,2.0,0.0
12226,81.0,240,156,1.0,0.0
12227,75.0,0,156,2.0,0.0
12228,79.0,0,156,2.0,0.0
12229,37.0,0,156,5.0,0.0
12230,79.0,0,156,2.0,0.0
12231,69.0,0,156,2.0,0.0
12232,81.0,480,156,1.0,0.0
12233,69.0,0,156,2.0,0.0
12234,79.0,0,156,2.0,0.0
12235,81.0,84,156,1.0,0.0
12236,78.0,0,156,2.0,0.0
12237,75.0,0,156,2.0,0.0
12238,49.0,156,0,5.0,0.0
12239,37.0,0,156,5.0,0.0
12240,81.0,480,156,1.0,0.0
12241,78.0,240,156,2.0,0.0
12242,81.0,0,156,1.0,0.0
12243,75.0,0,156,2.0,0.0
12244,37.0,0,156,5.0,0.0
12245,81.0,0,156,1.0,0.0
12246,78.0,480,156,2.0,0.0
12247,69.0,0,156,2.0,0.0
12248,81.0,0,156,1.0,0.0
12249,78.0,240,156,2.0,0.0
12250,69.0,0,156,2.0,0.0
12251,37.0,0,156,5.0,0.0
12252,75.0,0,156,2.0,0.0
12253,78.0,0,156,2.0,0.0
12254,80.0,480,156,1.0,0.0
12255,78.0,0,156,2.0,0.0
12256,75.0,0,156,2.0,0.0
12257,80.0,240,156,1.0,0.0
12258,37.0,0,156,5.0,0.0
12259,68.0,480,156,2.0,0.0
12260,78.0,0,156,2.0,0.0
12261,80.0,0,156,1.0,0.0
12262,68.0,0,156,2.0,0.0
12263,78.0,0,156,2.0,0.0
12264,80.0,84,156,1.0,0.0
12265,80.0,480,156,1.0,0.0
12266,75.0,0,156,2.0,0.0
12267,71.0,171,2865,5.0,0.0
12268,77.0,0,156,2.0,0.0
12269,75.0,0,156,2.0,0.0
12270,77.0,0,156,2.0,0.0
12271,80.0,240,156,1.0,0.0
12272,77.0,0,156,2.0,0.0
12273,68.0,0,156,2.0,0.0
12274,37.0,396,240,5.0,0.0
12275,80.0,84,156,1.0,0.0
12276,77.0,0,156,2.0,0.0
12277,68.0,240,156,2.0,0.0
12278,80.0,0,156,1.0,0.0
12279,74.0,0,156,2.0,0.0
12280,77.0,0,156,2.0,0.0
12281,80.0,84,156,1.0,0.0
12282,37.0,396,240,5.0,0.0
12283,77.0,240,156,2.0,0.0
12284,74.0,0,156,2.0,0.0
12285,80.0,0,156,1.0,0.0
12286,68.0,0,156,2.0,0.0
12287,37.0,396,240,5.0,0.0
12288,77.0,0,156,2.0,0.0
12289,80.0,84,156,1.0,0.0
12290,68.0,0,156,2.0,0.0
12291,80.0,69,156,1.0,0.0
12292,77.0,0,156,2.0,0.0
12293,77.0,0,156,1.0,0.0
12294,73.0,0,156,2.0,0.0
12295,78.0,480,156,1.0,0.0
12296,70.0,156,2880,5.0,0.0
12297,73.0,240,156,2.0,0.0
12298,77.0,0,156,1.0,0.0
12299,78.0,0,156,1.0,0.0
12300,78.0,0,156,1.0,0.0
12301,77.0,0,156,1.0,0.0
12302,37.0,396,240,5.0,0.0
12303,66.0,84,156,2.0,0.0
12304,77.0,240,156,1.0,0.0
12305,78.0,0,156,1.0,0.0
12306,66.0,0,156,2.0,0.0
12307,78.0,84,156,1.0,0.0
12308,75.0,0,156,2.0,0.0
12309,37.0,396,240,5.0,0.0
12310,73.0,0,156,2.0,0.0
12311,73.0,240,156,2.0,0.0
12312,78.0,0,156,1.0,0.0
12313,75.0,0,156,2.0,0.0
12314,78.0,0,156,1.0,0.0
12315,37.0,396,240,5.0,0.0
12316,66.0,84,156,2.0,0.0
12317,75.0,0,156,2.0,0.0
12318,75.0,84,156,2.0,0.0
12319,66.0,0,156,2.0,0.0
12320,78.0,0,156,1.0,0.0
12321,78.0,0,156,1.0,0.0
12322,75.0,0,156,2.0,0.0
12323,73.0,480,156,2.0,0.0
12324,69.0,164,2872,5.0,0.0
12325,78.0,0,156,1.0,0.0
12326,73.0,240,156,2.0,0.0
12327,75.0,0,156,2.0,0.0
12328,37.0,396,240,5.0,0.0
12329,75.0,0,156,2.0,0.0
12330,66.0,0,156,2.0,0.0
12331,78.0,84,156,1.0,0.0
12332,75.0,0,156,2.0,0.0
12333,78.0,240,156,1.0,0.0
12334,66.0,0,156,2.0,0.0
12335,75.0,84,156,2.0,0.0
12336,72.0,0,156,2.0,0.0
12337,78.0,0,156,1.0,0.0
12338,37.0,396,240,5.0,0.0
12339,75.0,0,156,2.0,0.0
12340,78.0,240,156,1.0,0.0
12341,72.0,0,156,2.0,0.0
12342,37.0,396,240,5.0,0.0
12343,78.0,0,156,1.0,0.0
12344,66.0,0,156,2.0,0.0
12345,75.0,84,156,2.0,0.0
12346,66.0,0,156,2.0,0.0
12347,75.0,0,156,2.0,0.0
12348,78.0,76,156,1.0,0.0
12349,77.0,84,156,1.0,0.0
12350,49.0,156,5760,5.0,0.0
12351,37.0,396,240,5.0,0.0
12352,73.0,0,156,2.0,0.0
12353,73.0,0,156,2.0,0.0
12354,77.0,240,156,1.0,0.0
12355,65.0,480,156,2.0,0.0
12356,68.0,0,156,1.0,0.0
12357,68.0,0,156,1.0,0.0
12358,65.0,240,156,2.0,0.0
12359,77.0,0,156,1.0,0.0
12360,37.0,396,240,5.0,0.0
12361,73.0,84,156,2.0,0.0
12362,73.0,0,156,2.0,0.0
12363,77.0,240,156,1.0,0.0
12364,65.0,480,156,2.0,0.0
12365,68.0,0,156,1.0,0.0
12366,68.0,0,156,1.0,0.0
12367,65.0,240,156,2.0,0.0
12368,73.0,0,156,2.0,0.0
12369,77.0,84,156,1.0,0.0
12370,37.0,636,240,5.0,0.0
12371,68.0,0,156,1.0,0.0
12372,65.0,804,156,2.0,0.0
12373,37.0,636,240,5.0,0.0
12374,65.0,564,156,2.0,0.0
12375,68.0,0,156,1.0,0.0
12376,36.0,480,156,5.0,0.0
12377,48.0,0,156,5.0,0.0
12378,48.0,240,156,5.0,0.0
12379,36.0,0,156,5.0,0.0
12380,49.0,480,156,5.0,0.0
12381,37.0,0,156,5.0,0.0
12382,49.0,0,156,5.0,0.0
12383,37.0,240,156,5.0,0.0
12384,44.0,0,156,5.0,0.0
12385,32.0,282,156,5.0,0.0
12386,46.0,0,78,5.0,0.0
12387,34.0,198,78,5.0,0.0
12388,36.0,0,156,5.0,0.0
12389,48.0,720,156,5.0,0.0
12390,48.0,240,156,1.0,0.0
12391,32.0,0,156,5.0,0.0
12392,56.0,0,156,2.0,0.0
12393,51.0,480,156,2.0,0.0
12394,60.0,0,156,1.0,0.0
12395,44.0,0,156,5.0,0.0
12396,44.0,0,156,5.0,0.0
12397,32.0,0,156,5.0,0.0
12398,60.0,0,156,1.0,0.0
12399,51.0,0,156,2.0,0.0
12400,56.0,240,156,2.0,0.0
12401,37.0,0,156,5.0,0.0
12402,61.0,0,156,1.0,0.0
12403,49.0,0,156,5.0,0.0
12404,53.0,480,156,2.0,0.0
12405,58.0,0,156,2.0,0.0
12406,58.0,240,156,2.0,0.0
12407,53.0,0,156,2.0,0.0
12408,49.0,0,156,5.0,0.0
12409,37.0,0,156,5.0,0.0
12410,61.0,0,156,1.0,0.0
12411,36.0,0,156,5.0,0.0
12412,48.0,480,156,5.0,0.0
12413,48.0,240,156,5.0,0.0
12414,36.0,0,156,5.0,0.0
12415,37.0,480,156,5.0,0.0
12416,49.0,0,156,5.0,0.0
12417,49.0,240,156,5.0,0.0
12418,37.0,0,156,5.0,0.0
12419,41.0,0,156,5.0,0.0
12420,29.0,0,156,5.0,0.0
12421,56.0,0,156,2.0,0.0
12422,53.0,0,156,2.0,0.0
12423,60.0,480,156,1.0,0.0
12424,60.0,240,156,1.0,0.0
12425,29.0,0,156,5.0,0.0
12426,41.0,0,156,5.0,0.0
12427,53.0,0,156,2.0,0.0
12428,56.0,0,156,2.0,0.0
12429,53.0,0,156,2.0,0.0
12430,46.0,0,156,5.0,0.0
12431,34.0,480,156,5.0,0.0
12432,58.0,0,156,2.0,0.0
12433,61.0,0,156,1.0,0.0
12434,61.0,240,156,1.0,0.0
12435,58.0,0,156,2.0,0.0
12436,53.0,0,156,2.0,0.0
12437,34.0,0,156,5.0,0.0
12438,46.0,0,156,5.0,0.0
12439,29.0,0,156,5.0,0.0
12440,41.0,0,156,5.0,0.0
12441,53.0,0,156,2.0,0.0
12442,56.0,282,156,1.0,0.0
12443,29.0,198,78,5.0,0.0
12444,58.0,0,78,1.0,0.0
12445,55.0,0,78,2.0,0.0
12446,60.0,0,156,1.0,0.0
12447,41.0,0,156,5.0,0.0
12448,56.0,1284,156,2.0,0.0
12449,60.0,240,720,1.0,0.0
12450,56.0,720,720,2.0,0.0
12451,41.0,0,720,5.0,0.0
12452,51.0,0,480,4.0,0.0
12453,50.0,0,240,4.0,0.0
12454,62.0,0,240,1.0,0.0
12455,63.0,0,720,1.0,0.0
12456,43.0,0,720,5.0,0.0
12457,55.0,480,720,2.0,0.0
12458,56.0,0,720,2.0,0.0
12459,60.0,240,480,1.0,0.0
12460,51.0,0,480,4.0,0.0
12461,41.0,0,720,5.0,0.0
12462,50.0,720,240,4.0,0.0
12463,62.0,0,240,1.0,0.0
12464,64.0,0,720,1.0,0.0
12465,55.0,0,720,2.0,0.0
12466,60.0,840,720,2.0,0.0
12467,43.0,0,720,4.0,0.0
12468,48.0,0,720,4.0,0.0
12469,36.0,0,720,5.0,0.0
12470,83.0,276,360,2.0,0.0
12471,86.0,0,360,2.0,0.0
12472,80.0,0,360,2.0,0.0
12473,89.0,0,360,2.0,0.0
12474,92.0,0,360,1.0,0.0
12475,24.0,0,360,5.0,0.0
12476,36.0,0,360,5.0,0.0
12477,86.0,0,156,2.0,0.0
12478,91.0,0,156,1.0,0.0
12479,36.0,240,156,5.0,0.0
12480,24.0,0,156,5.0,0.0
12481,79.0,0,156,2.0,0.0
12482,83.0,0,156,2.0,0.0
12483,77.0,240,156,2.0,0.0
12484,83.0,0,156,2.0,0.0
12485,89.0,0,156,1.0,0.0
12486,36.0,0,156,5.0,0.0
12487,24.0,0,156,5.0,0.0
12488,86.0,0,156,2.0,0.0
12489,36.0,0,156,5.0,0.0
12490,24.0,0,156,5.0,0.0
12491,84.0,0,156,2.0,0.0
12492,76.0,0,156,2.0,0.0
12493,88.0,282,156,1.0,0.0
12494,24.0,0,78,5.0,0.0
12495,89.0,0,78,1.0,0.0
12496,77.0,198,78,2.0,0.0
12497,36.0,0,78,5.0,0.0
12498,86.0,0,78,2.0,0.0
12499,88.0,0,156,2.0,0.0
12500,24.0,0,156,5.0,0.0
12501,79.0,0,156,2.0,0.0
12502,36.0,0,156,5.0,0.0
12503,91.0,1284,156,1.0,0.0
12504,76.0,240,720,1.0,0.0
12505,60.0,0,720,5.0,0.0
12506,67.0,0,480,4.0,0.0
12507,70.0,0,720,2.0,0.0
12508,78.0,0,240,1.0,0.0
12509,66.0,480,240,4.0,0.0
12510,79.0,0,720,1.0,0.0
12511,59.0,480,720,5.0,0.0
12512,71.0,0,720,2.0,0.0
12513,64.0,240,480,4.0,0.0
12514,66.0,0,240,4.0,0.0
12515,67.0,240,480,4.0,0.0
12516,76.0,0,480,1.0,0.0
12517,72.0,0,1200,2.0,0.0
12518,58.0,240,1200,5.0,0.0
12519,65.0,0,240,4.0,0.0
12520,77.0,480,240,1.0,0.0
12521,64.0,0,480,4.0,0.0
12522,79.0,0,480,1.0,0.0
12523,72.0,237,240,1.0,0.0
12524,56.0,3,277,5.0,0.0
12525,77.0,0,240,2.0,0.0
12526,84.0,198,240,1.0,0.0
12527,60.0,0,240,4.0,0.0
12528,68.0,0,240,4.0,0.0
12529,65.0,0,240,4.0,0.0
12530,79.0,0,78,2.0,0.0
12531,82.0,198,78,1.0,0.0
12532,49.0,235,401,5.0,0.0
12533,61.0,4,397,4.0,0.0
12534,80.0,240,156,1.0,0.0
12535,77.0,0,156,2.0,0.0
12536,68.0,1,156,2.0,0.0
12537,77.0,0,156,1.0,0.0
12538,68.0,0,156,1.0,0.0
12539,48.0,0,156,5.0,0.0
12540,65.0,0,156,2.0,0.0
12541,60.0,240,156,4.0,0.0
12542,60.0,0,156,2.0,0.0
12543,65.0,0,156,1.0,0.0
12544,56.0,0,156,4.0,0.0
12545,44.0,237,156,5.0,0.0
12546,43.0,3,193,5.0,0.0
12547,63.0,0,156,2.0,0.0
12548,72.0,282,156,1.0,0.0
12549,60.0,0,156,2.0,0.0
12550,55.0,0,156,4.0,0.0
12551,51.0,0,156,4.0,0.0
12552,68.0,0,78,4.0,0.0
12553,65.0,198,78,5.0,0.0
12554,67.0,0,156,4.0,0.0
12555,75.0,0,390,2.0,0.0
12556,73.0,3,390,2.0,0.0
12557,63.0,234,156,5.0,0.0
12558,85.0,3,393,1.0,0.0
12559,55.0,240,156,5.0,0.0
12560,63.0,0,156,4.0,0.0
12561,84.0,0,156,1.0,0.0
12562,55.0,0,156,4.0,0.0
12563,51.0,0,156,5.0,0.0
12564,72.0,240,156,2.0,0.0
12565,75.0,0,156,2.0,0.0
12566,75.0,0,156,2.0,0.0
12567,67.0,0,156,2.0,0.0
12568,48.0,0,156,5.0,0.0
12569,79.0,0,156,1.0,0.0
12570,51.0,240,156,4.0,0.0
12571,60.0,1200,1440,2.0,0.0
12572,43.0,1044,156,5.0,0.0
12573,55.0,0,156,4.0,0.0
12574,68.0,0,720,4.0,0.0
12575,56.0,240,720,5.0,0.0
12576,59.0,156,1440,2.0,0.0
12577,62.0,0,0,1.0,0.0
12578,68.0,0,720,4.0,0.0
12579,56.0,240,720,5.0,0.0
12580,67.0,0,240,1.0,0.0
12581,43.0,0,240,5.0,0.0
12582,36.0,0,156,5.0,0.0
12583,72.0,0,156,1.0,0.0
12584,48.0,0,156,4.0,0.0
12585,60.0,714,156,2.0,0.0
12586,64.0,0,156,2.0,0.0
12587,61.0,239,397,4.0,0.0
12588,70.0,0,393,2.0,0.0
12589,58.0,3,390,5.0,0.0
12590,73.0,4,393,1.0,0.0
12591,60.0,0,156,4.0,0.0
12592,68.0,0,156,2.0,0.0
12593,56.0,0,156,5.0,0.0
12594,72.0,240,156,1.0,0.0
12595,58.0,0,156,4.0,0.0
12596,55.0,240,156,5.0,0.0
12597,70.0,0,156,1.0,0.0
12598,67.0,0,156,2.0,0.0
12599,56.0,282,156,4.0,0.0
12600,68.0,0,156,1.0,0.0
12601,65.0,0,156,2.0,0.0
12602,53.0,0,156,5.0,0.0
12603,55.0,0,78,5.0,0.0
12604,67.0,0,78,2.0,0.0
12605,58.0,0,78,4.0,0.0
12606,70.0,198,78,1.0,0.0
12607,68.0,0,156,2.0,0.0
12608,56.0,0,156,5.0,0.0
12609,60.0,804,156,4.0,0.0
12610,72.0,0,156,1.0,0.0
12611,48.0,156,240,1.0,0.0
12612,56.0,0,156,2.0,0.0
12613,44.0,0,156,5.0,0.0
12614,32.0,0,156,5.0,0.0
12615,60.0,714,156,1.0,0.0
12616,51.0,0,156,2.0,0.0
12617,53.0,7,390,2.0,0.0
12618,56.0,0,390,2.0,0.0
12619,37.0,239,397,5.0,0.0
12620,25.0,0,390,5.0,0.0
12621,61.0,0,397,1.0,0.0
12622,39.0,0,156,5.0,0.0
12623,27.0,240,156,5.0,0.0
12624,60.0,0,156,1.0,0.0
12625,55.0,0,156,2.0,0.0
12626,49.0,0,156,2.0,0.0
12627,27.0,0,156,5.0,0.0
12628,39.0,0,156,5.0,0.0
12629,55.0,240,156,2.0,0.0
12630,49.0,0,156,2.0,0.0
12631,58.0,0,156,1.0,0.0
12632,32.0,282,156,5.0,0.0
12633,44.0,0,156,5.0,0.0
12634,48.0,0,156,2.0,0.0
12635,56.0,0,156,1.0,0.0
12636,32.0,0,78,5.0,0.0
12637,58.0,198,78,1.0,0.0
12638,51.0,0,78,2.0,0.0
12639,60.0,0,156,1.0,0.0
12640,44.0,804,156,5.0,0.0
12641,56.0,0,156,2.0,0.0
12642,56.0,156,240,1.0,0.0
12643,66.0,564,156,1.0,0.0
12644,63.0,0,156,2.0,0.0
12645,44.0,0,720,5.0,0.0
12646,56.0,156,720,5.0,0.0
12647,65.0,0,396,2.0,0.0
12648,68.0,240,396,1.0,0.0
12649,57.0,0,720,5.0,0.0
12650,45.0,156,720,5.0,0.0
12651,63.0,0,156,2.0,0.0
12652,66.0,240,156,1.0,0.0
12653,63.0,84,156,1.0,0.0
12654,60.0,0,156,2.0,0.0
12655,62.0,282,156,1.0,0.0
12656,58.0,0,720,5.0,0.0
12657,46.0,720,720,5.0,0.0
12658,63.0,0,78,1.0,0.0
12659,60.0,198,78,2.0,0.0
12660,62.0,84,156,2.0,0.0
12661,65.0,0,156,1.0,0.0
12662,59.0,0,720,5.0,0.0
12663,47.0,0,720,5.0,0.0
12664,56.0,156,240,1.0,0.0
12665,60.0,0,720,5.0,0.0
12666,65.0,564,156,2.0,0.0
12667,48.0,156,720,5.0,0.0
12668,68.0,0,156,1.0,0.0
12669,70.0,240,396,1.0,0.0
12670,67.0,0,396,2.0,0.0
12671,49.0,156,720,5.0,0.0
12672,61.0,0,720,5.0,0.0
12673,66.0,240,156,2.0,0.0
12674,69.0,0,156,1.0,0.0
12675,67.0,0,156,1.0,0.0
12676,64.0,84,156,2.0,0.0
12677,50.0,720,720,5.0,0.0
12678,62.0,0,720,5.0,0.0
12679,66.0,282,156,1.0,0.0
12680,64.0,198,78,2.0,0.0
12681,67.0,0,78,1.0,0.0
12682,69.0,0,156,1.0,0.0
12683,66.0,84,156,2.0,0.0
12684,63.0,0,720,5.0,0.0
12685,51.0,0,720,5.0,0.0
12686,60.0,156,240,1.0,0.0
12687,69.0,0,156,2.0,0.0
12688,72.0,282,156,1.0,0.0
12689,52.0,438,720,5.0,0.0
12690,64.0,0,720,5.0,0.0
12691,74.0,0,78,1.0,0.0
12692,71.0,198,78,2.0,0.0
12693,72.0,84,156,2.0,0.0
12694,76.0,0,156,1.0,0.0
12695,57.0,0,720,4.0,0.0
12696,63.0,240,720,5.0,0.0
12697,51.0,0,720,5.0,0.0
12698,76.0,282,78,1.0,0.0
12699,72.0,0,480,2.0,0.0
12700,77.0,198,480,1.0,0.0
12701,69.0,0,480,2.0,0.0
12702,50.0,0,720,5.0,0.0
12703,62.0,240,720,5.0,0.0
12704,58.0,0,720,4.0,0.0
12705,77.0,282,78,1.0,0.0
12706,67.0,0,480,2.0,0.0
12707,79.0,0,480,1.0,0.0
12708,70.0,198,480,2.0,0.0
12709,77.0,0,480,2.0,0.0
12710,49.0,0,678,5.0,0.0
12711,59.0,3,675,4.0,0.0
12712,53.0,0,0,4.0,0.0
12713,61.0,3,672,5.0,0.0
12714,79.0,198,78,1.0,0.0
12715,80.0,0,156,1.0,0.0
12716,77.0,0,156,2.0,0.0
12717,71.0,0,156,2.0,0.0
12718,68.0,36,156,2.0,0.0
12719,48.0,360,280,5.0,0.0
12720,72.0,0,240,2.0,0.0
12721,53.0,0,240,4.0,0.0
12722,77.0,0,240,2.0,0.0
12723,60.0,0,240,5.0,0.0
12724,84.0,0,240,1.0,0.0
12725,80.0,0,240,2.0,0.0
12726,56.0,0,240,4.0,0.0
12727,36.0,113,1447,5.0,0.0
12728,84.0,120,120,1.0,0.0
12729,92.0,120,120,1.0,0.0
12730,91.0,120,120,1.0,0.0
12731,48.0,7,1200,5.0,0.0
12732,82.0,120,120,1.0,0.0
12733,80.0,120,120,1.0,0.0
12734,89.0,120,120,1.0,0.0
12735,87.0,120,120,1.0,0.0
12736,79.0,120,120,1.0,0.0
12737,77.0,120,120,1.0,0.0
12738,85.0,120,120,1.0,0.0
12739,84.0,120,120,1.0,0.0
12740,75.0,0,120,1.0,0.0
12741,55.0,120,240,4.0,0.0
12742,73.0,120,120,1.0,0.0
12743,52.0,0,240,5.0,0.0
12744,82.0,0,120,1.0,0.0
12745,53.0,120,240,5.0,0.0
12746,56.0,0,240,4.0,0.0
12747,80.0,120,120,1.0,0.0
12748,72.0,0,120,1.0,0.0
12749,70.0,120,120,1.0,0.0
12750,58.0,0,240,4.0,0.0
12751,55.0,120,240,5.0,0.0
12752,79.0,0,120,1.0,0.0
12753,56.0,0,240,5.0,0.0
12754,60.0,0,240,4.0,0.0
12755,77.0,120,120,1.0,0.0
12756,68.0,156,120,1.0,0.0
12757,67.0,444,156,1.0,0.0
12758,58.0,0,156,5.0,0.0
12759,76.0,0,156,1.0,0.0
12760,61.0,0,156,4.0,0.0
12761,29.0,8,1432,5.0,0.0
12762,66.0,120,120,1.0,0.0
12763,75.0,120,120,1.0,0.0
12764,73.0,120,120,1.0,0.0
12765,65.0,120,120,1.0,0.0
12766,63.0,120,120,1.0,0.0
12767,72.0,120,120,1.0,0.0
12768,70.0,120,120,1.0,0.0
12769,61.0,120,120,1.0,0.0
12770,60.0,120,120,1.0,0.0
12771,68.0,120,120,1.0,0.0
12772,66.0,112,120,1.0,0.0
12773,58.0,0,120,1.0,0.0
12774,56.0,120,120,1.0,0.0
12775,41.0,120,0,5.0,0.0
12776,29.0,120,240,5.0,0.0
12777,65.0,0,120,1.0,0.0
12778,63.0,120,120,1.0,0.0
12779,29.0,0,240,5.0,0.0
12780,41.0,0,240,5.0,0.0
12781,54.0,120,120,1.0,0.0
12782,43.0,0,240,5.0,0.0
12783,31.0,0,240,5.0,0.0
12784,53.0,120,120,1.0,0.0
12785,61.0,120,120,1.0,0.0
12786,33.0,156,240,5.0,0.0
12787,45.0,0,240,5.0,0.0
12788,60.0,120,120,1.0,0.0
12789,51.0,0,120,1.0,0.0
12790,53.0,444,156,1.0,0.0
12791,61.0,0,156,1.0,0.0
12792,34.0,0,156,5.0,0.0
12793,46.0,0,156,5.0,0.0
12794,30.0,120,1440,5.0,0.0
12795,73.0,120,120,1.0,0.0
12796,82.0,120,120,1.0,0.0
12797,80.0,120,120,1.0,0.0
12798,42.0,0,1200,5.0,0.0
12799,72.0,120,120,1.0,0.0
12800,70.0,120,120,1.0,0.0
12801,78.0,120,120,1.0,0.0
12802,77.0,120,120,1.0,0.0
12803,68.0,120,120,1.0,0.0
12804,66.0,120,120,1.0,0.0
12805,75.0,120,120,1.0,0.0
12806,73.0,120,120,1.0,0.0
12807,65.0,0,120,1.0,0.0
12808,63.0,120,120,1.0,0.0
12809,72.0,120,120,1.0,0.0
12810,70.0,120,120,1.0,0.0
12811,42.0,0,0,5.0,0.0
12812,30.0,0,0,5.0,0.0
12813,61.0,120,120,1.0,0.0
12814,60.0,120,120,1.0,0.0
12815,44.0,120,240,5.0,0.0
12816,32.0,0,240,5.0,0.0
12817,68.0,0,120,1.0,0.0
12818,46.0,0,240,5.0,0.0
12819,66.0,120,120,1.0,0.0
12820,34.0,0,240,5.0,0.0
12821,58.0,120,120,1.0,0.0
12822,35.0,0,720,5.0,0.0
12823,65.0,120,120,1.0,0.0
12824,47.0,120,720,5.0,0.0
12825,56.0,120,120,1.0,0.0
12826,55.0,120,120,1.0,0.0
12827,64.0,120,120,1.0,0.0
12828,65.0,120,120,1.0,0.0
12829,56.0,0,120,1.0,0.0
12830,36.0,202,720,5.0,0.0
12831,55.0,120,120,1.0,0.0
12832,48.0,0,720,5.0,0.0
12833,64.0,120,120,1.0,0.0
12834,65.0,120,120,1.0,0.0
12835,56.0,120,120,1.0,0.0
12836,55.0,120,120,1.0,0.0
12837,64.0,0,120,1.0,0.0
12838,65.0,161,202,1.0,0.0
12839,47.0,202,720,5.0,0.0
12840,35.0,0,720,5.0,0.0
12841,56.0,158,203,1.0,0.0
12842,54.0,199,201,1.0,0.0
12843,64.0,0,200,1.0,0.0
12844,65.0,161,202,1.0,0.0
12845,48.0,240,720,5.0,0.0
12846,36.0,0,720,5.0,0.0
12847,56.0,158,203,1.0,0.0
12848,54.0,199,201,1.0,0.0
12849,64.0,0,200,1.0,0.0
12850,53.0,636,240,1.0,0.0
12851,65.0,0,240,1.0,0.0
12852,41.0,0,240,5.0,0.0
12853,42.0,84,396,5.0,0.0
12854,54.0,0,396,5.0,0.0
12855,53.0,0,240,1.0,0.0
12856,65.0,156,240,1.0,0.0
12857,41.0,240,156,5.0,0.0
12858,53.0,0,156,5.0,0.0
12859,39.0,0,156,5.0,0.0
12860,51.0,240,156,5.0,0.0
12861,53.0,198,240,1.0,0.0
12862,65.0,0,240,1.0,0.0
12863,50.0,0,156,5.0,0.0
12864,38.0,84,156,5.0,0.0
12865,48.0,0,78,5.0,0.0
12866,36.0,198,78,5.0,0.0
12867,46.0,0,156,5.0,0.0
12868,34.0,324,156,5.0,0.0
12869,53.0,0,240,1.0,0.0
12870,65.0,636,240,1.0,0.0
12871,36.0,0,156,5.0,0.0
12872,48.0,84,156,5.0,0.0
12873,65.0,636,240,1.0,0.0
12874,53.0,0,240,1.0,0.0
12875,49.0,84,396,5.0,0.0
12876,37.0,0,396,5.0,0.0
12877,65.0,156,240,1.0,0.0
12878,53.0,0,240,1.0,0.0
12879,48.0,0,156,5.0,0.0
12880,36.0,240,156,5.0,0.0
12881,34.0,240,156,5.0,0.0
12882,46.0,0,156,5.0,0.0
12883,65.0,198,240,1.0,0.0
12884,53.0,0,240,1.0,0.0
12885,45.0,0,156,5.0,0.0
12886,33.0,84,156,5.0,0.0
12887,43.0,0,78,5.0,0.0
12888,31.0,198,78,5.0,0.0
12889,41.0,0,156,5.0,0.0
12890,29.0,324,156,5.0,0.0
12891,53.0,636,240,1.0,0.0
12892,65.0,0,240,1.0,0.0
12893,53.0,0,240,1.0,0.0
12894,45.0,0,156,5.0,0.0
12895,65.0,198,240,1.0,0.0
12896,33.0,84,156,5.0,0.0
12897,31.0,198,78,5.0,0.0
12898,43.0,0,78,5.0,0.0
12899,41.0,0,156,5.0,0.0
12900,29.0,324,156,5.0,0.0
12901,53.0,1200,240,1.0,0.0
12902,41.0,720,720,5.0,0.0
12903,29.0,0,720,5.0,0.0
12904,27.0,0,720,5.0,0.0
12905,39.0,720,720,5.0,0.0
12906,25.0,0,1440,5.0,0.0
12907,56.0,0,720,2.0,0.0
12908,61.0,720,720,2.0,0.0
12909,65.0,0,720,1.0,0.0
12910,60.0,0,720,2.0,0.0
12911,63.0,0,720,1.0,0.0
12912,54.0,720,720,2.0,0.0
12913,37.0,0,0,5.0,0.0
12914,25.0,0,1440,5.0,0.0
12915,56.0,0,720,2.0,0.0
12916,61.0,0,720,1.0,0.0
12917,49.0,0,636,2.0,0.0
12918,53.0,636,0,2.0,0.0
12919,56.0,0,636,1.0,0.0
12920,65.0,0,720,2.0,0.0
12921,37.0,720,0,5.0,0.0
12922,56.0,0,720,2.0,0.0
12923,68.0,720,720,1.0,0.0
12924,60.0,0,720,2.0,0.0
12925,63.0,720,720,2.0,0.0
12926,66.0,0,720,1.0,0.0
12927,65.0,636,720,1.0,0.0
12928,61.0,0,720,2.0,0.0
12929,25.0,0,0,5.0,0.0
12930,37.0,0,0,5.0,0.0
12931,56.0,0,636,2.0,0.0
12932,53.0,84,636,2.0,0.0
12933,61.0,0,636,1.0,0.0
12934,58.0,720,720,2.0,0.0
12935,30.0,0,720,5.0,0.0
12936,70.0,0,720,1.0,0.0
12937,17.0,0,720,5.0,0.0
12938,66.0,0,720,2.0,0.0
12939,68.0,720,720,1.0,0.0
12940,61.0,0,0,2.0,0.0
12941,25.0,0,720,5.0,0.0
12942,37.0,0,720,5.0,0.0
12943,65.0,0,720,2.0,0.0
12944,27.0,0,720,5.0,0.0
12945,66.0,0,720,1.0,0.0
12946,58.0,0,720,2.0,0.0
12947,63.0,0,720,2.0,0.0
12948,39.0,720,720,5.0,0.0
12949,65.0,720,720,1.0,0.0
12950,56.0,0,720,2.0,0.0
12951,60.0,0,720,2.0,0.0
12952,29.0,0,720,5.0,0.0
12953,41.0,0,720,5.0,0.0
12954,54.0,0,720,2.0,0.0
12955,58.0,0,720,2.0,0.0
12956,42.0,240,720,5.0,0.0
12957,30.0,0,720,5.0,0.0
12958,61.0,240,960,1.0,0.0
12959,58.0,0,720,2.0,0.0
12960,51.0,0,720,2.0,0.0
12961,43.0,0,720,5.0,0.0
12962,31.0,720,720,5.0,0.0
12963,63.0,240,240,1.0,0.0
12964,65.0,0,240,1.0,0.0
12965,56.0,0,720,2.0,0.0
12966,60.0,360,720,2.0,0.0
12967,63.0,0,720,1.0,0.0
12968,44.0,0,1080,5.0,0.0
12969,32.0,320,1080,5.0,0.0
12970,56.0,0,360,4.0,0.0
12971,51.0,0,360,4.0,0.0
12972,48.0,0,360,4.0,0.0
12973,25.0,40,40,5.0,0.0
12974,37.0,720,40,5.0,0.0
12975,61.0,0,720,4.0,0.0
12976,68.0,0,720,2.0,0.0
12977,77.0,0,720,1.0,0.0
12978,65.0,0,720,1.0,0.0
12979,56.0,0,720,5.0,0.0
12980,73.0,720,720,2.0,0.0
12981,63.0,0,720,1.0,0.0
12982,60.0,0,720,4.0,0.0
12983,75.0,0,720,1.0,0.0
12984,54.0,0,720,5.0,0.0
12985,72.0,0,720,2.0,0.0
12986,66.0,0,720,2.0,0.0
12987,53.0,480,720,5.0,0.0
12988,68.0,720,0,2.0,0.0
12989,73.0,0,720,1.0,0.0
12990,61.0,0,720,1.0,0.0
12991,56.0,0,0,4.0,0.0
12992,65.0,0,0,2.0,0.0
12993,49.0,0,480,5.0,0.0
12994,68.0,0,480,1.0,0.0
12995,56.0,0,480,1.0,0.0
12996,53.0,0,480,4.0,0.0
12997,61.0,960,480,2.0,0.0
12998,25.0,938,2742,5.0,0.0
12999,37.0,0,2680,5.0,0.0
13000,61.0,0,720,4.0,0.0
13001,65.0,720,720,4.0,0.0
13002,56.0,0,720,5.0,0.0
13003,73.0,0,720,2.0,0.0
13004,68.0,0,720,1.0,0.0
13005,80.0,0,720,1.0,0.0
13006,78.0,0,720,1.0,0.0
13007,72.0,0,720,2.0,0.0
13008,68.0,0,720,2.0,0.0
13009,66.0,0,720,1.0,0.0
13010,54.0,720,720,5.0,0.0
13011,63.0,0,720,4.0,0.0
13012,60.0,0,720,4.0,0.0
13013,56.0,0,720,4.0,0.0
13014,61.0,480,720,4.0,0.0
13015,65.0,0,720,1.0,0.0
13016,77.0,0,720,1.0,0.0
13017,73.0,0,720,2.0,0.0
13018,53.0,0,720,5.0,0.0
13019,49.0,0,480,5.0,0.0
13020,61.0,0,480,1.0,0.0
13021,73.0,0,480,1.0,0.0
13022,68.0,0,0,2.0,0.0
13023,53.0,22,480,4.0,0.0
13024,56.0,0,0,4.0,0.0
13025,65.0,0,480,2.0,0.0
13026,82.0,0,720,1.0,0.0
13027,70.0,0,720,1.0,0.0
13028,42.0,720,720,5.0,0.0
13029,30.0,0,720,5.0,0.0
13030,78.0,0,720,2.0,0.0
13031,80.0,0,720,1.0,0.0
13032,68.0,0,720,1.0,0.0
13033,37.0,720,720,5.0,0.0
13034,77.0,0,720,2.0,0.0
13035,73.0,0,0,2.0,0.0
13036,25.0,0,720,5.0,0.0
13037,70.0,0,720,2.0,0.0
13038,75.0,0,720,2.0,0.0
13039,66.0,0,720,1.0,0.0
13040,27.0,0,720,5.0,0.0
13041,39.0,0,720,5.0,0.0
13042,78.0,720,720,1.0,0.0
13043,72.0,0,720,2.0,0.0
13044,68.0,0,720,2.0,0.0
13045,41.0,0,720,5.0,0.0
13046,29.0,0,720,5.0,0.0
13047,77.0,720,720,1.0,0.0
13048,65.0,0,720,1.0,0.0
13049,65.0,0,720,2.0,0.0
13050,46.0,0,720,5.0,0.0
13051,34.0,185,720,5.0,0.0
13052,68.0,0,720,2.0,0.0
13053,61.0,10,905,1.0,0.0
13054,73.0,237,915,1.0,0.0
13055,39.0,0,720,5.0,0.0
13056,25.0,0,720,5.0,0.0
13057,67.0,0,720,2.0,0.0
13058,70.0,720,720,2.0,0.0
13059,63.0,0,192,1.0,0.0
13060,75.0,240,192,1.0,0.0
13061,77.0,48,192,1.0,0.0
13062,65.0,0,192,1.0,0.0
13063,63.0,360,720,1.0,0.0
13064,68.0,0,720,2.0,0.0
13065,75.0,0,720,1.0,0.0
13066,72.0,0,720,1.0,0.0
13067,32.0,7,1080,5.0,0.0
13068,44.0,0,1080,5.0,0.0
13069,51.0,0,360,4.0,0.0
13070,48.0,0,360,4.0,0.0
13071,68.0,0,360,1.0,0.0
13072,63.0,0,360,2.0,0.0
13073,60.0,0,367,2.0,0.0
13074,56.0,945,367,1.0,0.0
13075,32.0,48,2840,5.0,0.0
13076,44.0,0,2800,5.0,0.0
13077,51.0,93,603,5.0,0.0
13078,68.0,8,592,2.0,0.0
13079,56.0,3,600,4.0,0.0
13080,63.0,0,600,1.0,0.0
13081,72.0,0,600,1.0,0.0
13082,60.0,0,600,4.0,0.0
13083,73.0,312,96,1.0,0.0
13084,65.0,0,96,1.0,0.0
13085,68.0,0,96,2.0,0.0
13086,53.0,0,96,5.0,0.0
13087,61.0,0,96,4.0,0.0
13088,56.0,0,96,4.0,0.0
13089,63.0,360,288,4.0,0.0
13090,75.0,0,288,1.0,0.0
13091,54.0,0,288,5.0,0.0
13092,66.0,0,288,1.0,0.0
13093,68.0,0,288,2.0,0.0
13094,56.0,0,288,4.0,0.0
13095,53.0,0,288,5.0,0.0
13096,65.0,0,288,1.0,0.0
13097,61.0,0,288,4.0,0.0
13098,56.0,0,288,4.0,0.0
13099,73.0,360,288,1.0,0.0
13100,68.0,0,288,2.0,0.0
13101,72.0,0,288,2.0,0.0
13102,78.0,0,288,1.0,0.0
13103,70.0,0,288,1.0,0.0
13104,58.0,0,288,5.0,0.0
13105,66.0,360,288,4.0,0.0
13106,60.0,0,288,4.0,0.0
13107,56.0,0,288,5.0,0.0
13108,72.0,0,288,2.0,0.0
13109,60.0,0,288,4.0,0.0
13110,65.0,360,288,4.0,0.0
13111,68.0,0,288,1.0,0.0
13112,77.0,0,288,1.0,0.0
13113,75.0,0,288,1.0,0.0
13114,66.0,0,288,1.0,0.0
13115,68.0,0,288,2.0,0.0
13116,54.0,0,288,5.0,0.0
13117,56.0,240,288,4.0,0.0
13118,63.0,0,288,4.0,0.0
13119,54.0,72,288,4.0,0.0
13120,63.0,0,288,1.0,0.0
13121,72.0,0,288,1.0,0.0
13122,51.0,0,288,5.0,0.0
13123,60.0,0,288,4.0,0.0
13124,56.0,664,288,4.0,0.0
13125,66.0,0,288,2.0,0.0
13126,25.0,0,2840,5.0,0.0
13127,37.0,48,2800,5.0,0.0
13128,65.0,96,600,1.0,0.0
13129,56.0,4,592,4.0,0.0
13130,61.0,4,596,4.0,0.0
13131,53.0,0,600,5.0,0.0
13132,68.0,0,592,2.0,0.0
13133,73.0,0,600,1.0,0.0
13134,73.0,0,96,2.0,0.0
13135,61.0,0,96,4.0,0.0
13136,63.0,0,96,4.0,0.0
13137,54.0,0,96,5.0,0.0
13138,66.0,0,96,1.0,0.0
13139,75.0,312,96,1.0,0.0
13140,56.0,360,288,5.0,0.0
13141,61.0,0,288,4.0,0.0
13142,77.0,0,288,1.0,0.0
13143,68.0,0,288,1.0,0.0
13144,73.0,0,288,2.0,0.0
13145,65.0,0,288,4.0,0.0
13146,78.0,312,288,1.0,0.0
13147,70.0,0,288,1.0,0.0
13148,58.0,0,288,5.0,0.0
13149,73.0,0,288,2.0,0.0
13150,63.0,0,288,4.0,0.0
13151,66.0,0,288,4.0,0.0
13152,59.0,360,288,5.0,0.0
13153,73.0,0,288,2.0,0.0
13154,71.0,0,288,1.0,0.0
13155,70.0,48,240,4.0,0.0
13156,82.0,0,288,1.0,0.0
13157,61.0,0,288,4.0,0.0
13158,73.0,0,288,2.0,0.0
13159,80.0,0,288,1.0,0.0
13160,71.0,0,288,1.0,0.0
13161,59.0,0,288,5.0,0.0
13162,68.0,360,288,4.0,0.0
13163,61.0,0,288,4.0,0.0
13164,61.0,312,288,4.0,0.0
13165,59.0,0,288,4.0,0.0
13166,65.0,0,288,4.0,0.0
13167,71.0,0,288,2.0,0.0
13168,77.0,0,288,1.0,0.0
13169,73.0,0,288,2.0,0.0
13170,68.0,0,288,1.0,0.0
13171,56.0,0,288,5.0,0.0
13172,61.0,0,288,4.0,0.0
13173,73.0,0,288,1.0,0.0
13174,59.0,0,288,4.0,0.0
13175,71.0,0,288,2.0,0.0
13176,65.0,0,288,1.0,0.0
13177,53.0,0,288,5.0,0.0
13178,56.0,792,288,4.0,0.0
13179,68.0,0,288,2.0,0.0
13180,42.0,720,720,5.0,0.0
13181,73.0,0,720,1.0,0.0
13182,85.0,0,720,1.0,0.0
13183,78.0,0,720,2.0,0.0
13184,82.0,0,720,2.0,0.0
13185,30.0,0,720,5.0,0.0
13186,70.0,0,720,1.0,0.0
13187,77.0,0,720,2.0,0.0
13188,73.0,720,720,2.0,0.0
13189,82.0,0,720,1.0,0.0
13190,46.0,0,720,5.0,0.0
13191,34.0,0,720,5.0,0.0
13192,78.0,660,720,1.0,0.0
13193,66.0,0,720,1.0,0.0
13194,39.0,0,720,5.0,0.0
13195,70.0,0,720,2.0,0.0
13196,75.0,0,720,2.0,0.0
13197,51.0,0,720,5.0,0.0
13198,41.0,1403,667,5.0,0.0
13199,68.0,0,660,2.0,0.0
13200,72.0,3,660,2.0,0.0
13201,77.0,0,660,1.0,0.0
13202,65.0,0,667,1.0,0.0
13203,53.0,4,663,5.0,0.0
13204,32.0,15,1430,5.0,0.0
13205,44.0,75,1405,5.0,0.0
13206,68.0,0,1440,2.0,0.0
13207,73.0,0,1440,2.0,0.0
13208,56.0,0,1440,4.0,0.0
13209,61.0,720,1440,4.0,0.0
13210,51.0,0,1440,5.0,0.0
13211,75.0,0,1440,1.0,0.0
13212,32.0,0,1435,5.0,0.0
13213,44.0,85,1395,5.0,0.0
13214,72.0,0,1440,2.0,0.0
13215,63.0,0,0,1.0,0.0
13216,51.0,0,1440,5.0,0.0
13217,75.0,0,720,1.0,0.0
13218,60.0,0,1440,4.0,0.0
13219,56.0,0,1440,4.0,0.0
13220,54.0,0,1440,4.0,0.0
13221,65.0,0,720,1.0,0.0
13222,77.0,0,720,1.0,0.0
13223,25.0,715,805,5.0,0.0
13224,37.0,0,765,5.0,0.0
13225,73.0,0,720,1.0,0.0
13226,61.0,0,720,1.0,0.0
13227,68.0,720,0,2.0,0.0
13228,41.0,0,720,5.0,0.0
13229,53.0,0,720,5.0,0.0
13230,65.0,5,720,2.0,0.0
13231,39.0,720,720,5.0,0.0
13232,51.0,0,720,5.0,0.0
13233,61.0,0,720,2.0,0.0
13234,65.0,0,720,1.0,0.0
13235,37.0,720,720,5.0,0.0
13236,49.0,0,720,5.0,0.0
13237,56.0,0,720,2.0,0.0
13238,60.0,0,720,2.0,0.0
13239,32.0,720,720,5.0,0.0
13240,63.0,0,720,1.0,0.0
13241,54.0,0,720,2.0,0.0
13242,53.0,0,720,2.0,0.0
13243,61.0,0,720,1.0,0.0
13244,44.0,0,0,5.0,0.0
13245,56.0,0,720,5.0,0.0
13246,42.0,0,720,5.0,0.0
13247,54.0,0,720,5.0,0.0
13248,56.0,720,720,1.0,0.0
13249,53.0,0,720,5.0,0.0
13250,68.0,720,720,1.0,0.0
13251,61.0,0,720,2.0,0.0
13252,56.0,0,720,2.0,0.0
13253,41.0,0,720,5.0,0.0
13254,49.0,0,720,5.0,0.0
13255,37.0,0,720,5.0,0.0
13256,66.0,0,720,1.0,0.0
13257,58.0,0,720,2.0,0.0
13258,53.0,0,720,2.0,0.0
13259,58.0,0,720,5.0,0.0
13260,46.0,0,720,5.0,0.0
13261,61.0,720,0,2.0,0.0
13262,65.0,720,720,1.0,0.0
13263,61.0,720,720,1.0,0.0
13264,44.0,0,720,5.0,0.0
13265,56.0,0,720,5.0,0.0
13266,58.0,0,720,2.0,0.0
13267,61.0,0,720,2.0,0.0
13268,54.0,0,720,5.0,0.0
13269,58.0,0,720,2.0,0.0
13270,42.0,720,720,5.0,0.0
13271,70.0,0,720,1.0,0.0
13272,68.0,720,720,1.0,0.0
13273,56.0,0,720,2.0,0.0
13274,53.0,0,720,5.0,0.0
13275,41.0,0,720,5.0,0.0
13276,37.0,0,960,5.0,0.0
13277,49.0,192,960,5.0,0.0
13278,58.0,0,720,2.0,0.0
13279,61.0,0,0,2.0,0.0
13280,66.0,240,720,1.0,0.0
13281,61.0,0,0,2.0,0.0
13282,65.0,0,720,1.0,0.0
13283,39.0,240,192,5.0,0.0
13284,51.0,0,192,5.0,0.0
13285,53.0,48,192,5.0,0.0
13286,41.0,0,192,5.0,0.0
13287,51.0,0,720,5.0,0.0
13288,61.0,0,720,1.0,0.0
13289,56.0,720,0,2.0,0.0
13290,58.0,0,720,2.0,0.0
13291,55.0,0,720,2.0,0.0
13292,58.0,600,720,2.0,0.0
13293,39.0,240,0,5.0,0.0
13294,27.0,0,240,5.0,0.0
13295,63.0,240,192,1.0,0.0
13296,65.0,48,192,1.0,0.0
13297,63.0,0,720,1.0,0.0
13298,44.0,117,603,5.0,0.0
13299,32.0,3,600,5.0,0.0
13300,56.0,0,720,2.0,0.0
13301,60.0,0,720,2.0,0.0
13302,34.0,240,120,5.0,0.0
13303,46.0,0,120,5.0,0.0
13304,51.0,48,240,2.0,0.0
13305,56.0,0,240,1.0,0.0
13306,36.0,360,288,5.0,0.0
13307,48.0,0,288,5.0,0.0
13308,32.0,0,288,5.0,0.0
13309,44.0,664,288,5.0,0.0
13310,63.0,8,592,2.0,0.0
13311,72.0,117,603,1.0,0.0
13312,68.0,3,600,2.0,0.0
13313,56.0,0,1440,5.0,0.0
13314,64.0,0,120,2.0,0.0
13315,73.0,0,120,1.0,0.0
13316,68.0,288,0,2.0,0.0
13317,75.0,360,288,1.0,0.0
13318,66.0,0,288,2.0,0.0
13319,68.0,0,288,2.0,0.0
13320,64.0,0,288,2.0,0.0
13321,73.0,72,288,1.0,0.0
13322,32.0,168,480,5.0,0.0
13323,44.0,288,0,5.0,0.0
13324,72.0,0,288,2.0,0.0
13325,69.0,192,288,2.0,0.0
13326,78.0,0,288,1.0,0.0
13327,68.0,0,288,2.0,0.0
13328,76.0,72,288,1.0,0.0
13329,72.0,0,288,2.0,0.0
13330,44.0,240,240,5.0,0.0
13331,32.0,0,240,5.0,0.0
13332,32.0,48,240,5.0,0.0
13333,44.0,0,240,5.0,0.0
13334,66.0,0,288,2.0,0.0
13335,68.0,192,288,2.0,0.0
13336,75.0,0,288,1.0,0.0
13337,33.0,168,240,5.0,0.0
13338,45.0,0,240,5.0,0.0
13339,68.0,72,288,2.0,0.0
13340,72.0,0,288,1.0,0.0
13341,63.0,0,288,2.0,0.0
13342,32.0,0,240,5.0,0.0
13343,44.0,600,240,5.0,0.0
13344,64.0,120,600,2.0,0.0
13345,69.0,0,600,2.0,0.0
13346,73.0,0,600,1.0,0.0
13347,75.0,0,120,1.0,0.0
13348,72.0,240,120,2.0,0.0
13349,69.0,0,0,2.0,0.0
13350,73.0,0,288,2.0,0.0
13351,76.0,0,288,1.0,0.0
13352,57.0,48,240,5.0,0.0
13353,59.0,168,240,5.0,0.0
13354,78.0,72,288,1.0,0.0
13355,69.0,0,288,2.0,0.0
13356,73.0,0,288,2.0,0.0
13357,57.0,288,240,5.0,0.0
13358,81.0,0,288,1.0,0.0
13359,57.0,0,480,5.0,0.0
13360,69.0,0,288,2.0,0.0
13361,73.0,192,288,2.0,0.0
13362,73.0,0,288,2.0,0.0
13363,69.0,0,288,2.0,0.0
13364,79.0,72,288,1.0,0.0
13365,31.0,0,0,5.0,0.0
13366,43.0,168,0,5.0,0.0
13367,73.0,0,288,2.0,0.0
13368,69.0,0,288,2.0,0.0
13369,43.0,0,240,5.0,0.0
13370,31.0,48,240,5.0,0.0
13371,76.0,192,288,1.0,0.0
13372,33.0,0,240,5.0,0.0
13373,45.0,168,240,5.0,0.0
13374,69.0,0,288,2.0,0.0
13375,64.0,72,288,2.0,0.0
13376,73.0,0,288,1.0,0.0
13377,43.0,0,240,5.0,0.0
13378,31.0,480,240,5.0,0.0
13379,30.0,240,480,5.0,0.0
13380,42.0,0,480,5.0,0.0
13381,76.0,0,360,2.0,0.0
13382,73.0,0,360,2.0,0.0
13383,82.0,240,360,1.0,0.0
13384,42.0,240,240,5.0,0.0
13385,44.0,240,240,5.0,0.0
13386,73.0,0,360,2.0,0.0
13387,76.0,0,360,1.0,0.0
13388,70.0,480,360,2.0,0.0
13389,42.0,0,240,5.0,0.0
13390,42.0,240,480,5.0,0.0
13391,73.0,240,360,1.0,0.0
13392,70.0,0,360,2.0,0.0
13393,64.0,0,360,2.0,0.0
13394,42.0,240,240,5.0,0.0
13395,44.0,240,240,5.0,0.0
13396,70.0,480,360,1.0,0.0
13397,64.0,0,360,2.0,0.0
13398,61.0,0,360,2.0,0.0
13399,42.0,0,0,5.0,0.0
13400,88.0,0,360,1.0,0.0
13401,85.0,0,360,2.0,0.0
13402,82.0,240,360,2.0,0.0
13403,42.0,240,240,5.0,0.0
13404,44.0,240,240,5.0,0.0
13405,85.0,0,360,1.0,0.0
13406,76.0,0,360,2.0,0.0
13407,82.0,0,360,2.0,0.0
13408,42.0,480,0,5.0,0.0
13409,82.0,0,360,1.0,0.0
13410,73.0,240,360,2.0,0.0
13411,76.0,0,360,2.0,0.0
13412,42.0,240,240,5.0,0.0
13413,44.0,240,240,5.0,0.0
13414,76.0,480,360,1.0,0.0
13415,73.0,0,360,2.0,0.0
13416,70.0,0,360,2.0,0.0
13417,42.0,0,240,5.0,0.0
13418,43.0,240,480,5.0,0.0
13419,70.0,0,360,2.0,0.0
13420,75.0,240,360,1.0,0.0
13421,73.0,0,360,2.0,0.0
13422,43.0,240,240,5.0,0.0
13423,44.0,240,240,5.0,0.0
13424,75.0,0,360,1.0,0.0
13425,70.0,0,360,2.0,0.0
13426,73.0,0,360,2.0,0.0
13427,43.0,480,240,5.0,0.0
13428,44.0,240,480,5.0,0.0
13429,68.0,0,360,2.0,0.0
13430,73.0,240,360,2.0,0.0
13431,75.0,0,360,1.0,0.0
13432,44.0,240,240,5.0,0.0
13433,46.0,240,240,5.0,0.0
13434,75.0,480,360,1.0,0.0
13435,73.0,0,360,2.0,0.0
13436,68.0,0,360,2.0,0.0
13437,44.0,0,240,5.0,0.0
13438,45.0,240,480,5.0,0.0
13439,73.0,240,360,2.0,0.0
13440,75.0,0,360,1.0,0.0
13441,67.0,0,360,2.0,0.0
13442,45.0,240,240,5.0,0.0
13443,46.0,240,240,5.0,0.0
13444,75.0,480,360,1.0,0.0
13445,67.0,0,360,2.0,0.0
13446,73.0,0,360,2.0,0.0
13447,45.0,0,240,5.0,0.0
13448,44.0,240,480,5.0,0.0
13449,75.0,0,360,1.0,0.0
13450,72.0,240,360,2.0,0.0
13451,66.0,0,360,2.0,0.0
13452,44.0,240,240,5.0,0.0
13453,46.0,240,240,5.0,0.0
13454,75.0,360,360,1.0,0.0
13455,72.0,0,360,2.0,0.0
13456,66.0,0,360,2.0,0.0
13457,44.0,0,240,5.0,0.0
13458,73.0,0,360,2.0,0.0
13459,65.0,0,360,5.0,0.0
13460,37.0,360,360,5.0,0.0
13461,77.0,353,1087,1.0,0.0
13462,63.0,360,360,5.0,0.0
13463,61.0,7,360,5.0,0.0
13464,75.0,0,360,1.0,0.0
13465,56.0,360,360,5.0,0.0
13466,73.0,360,360,1.0,0.0
13467,65.0,0,360,5.0,0.0
13468,63.0,0,360,5.0,0.0
13469,68.0,360,360,1.0,0.0
13470,61.0,360,360,5.0,0.0
13471,53.0,0,360,1.0,0.0
13472,51.0,360,360,1.0,0.0
13473,56.0,0,360,5.0,0.0
13474,49.0,0,360,1.0,0.0
13475,65.0,360,360,5.0,0.0
13476,63.0,0,360,5.0,0.0
13477,44.0,360,360,1.0,0.0
13478,61.0,360,360,5.0,0.0
13479,77.0,0,360,1.0,0.0
13480,75.0,0,360,1.0,0.0
13481,56.0,360,360,5.0,0.0
13482,73.0,0,360,1.0,0.0
13483,65.0,360,360,5.0,0.0
13484,68.0,360,360,1.0,0.0
13485,63.0,0,360,5.0,0.0
13486,61.0,360,360,5.0,0.0
13487,49.0,0,360,1.0,0.0
13488,48.0,360,360,1.0,0.0
13489,56.0,0,360,5.0,0.0
13490,47.0,0,360,1.0,0.0
13491,68.0,360,360,5.0,0.0
13492,37.0,0,360,1.0,0.0
13493,66.0,360,360,5.0,0.0
13494,80.0,0,360,1.0,0.0
13495,65.0,360,360,5.0,0.0
13496,61.0,360,360,5.0,0.0
13497,78.0,0,360,1.0,0.0
13498,68.0,0,360,5.0,0.0
13499,77.0,360,360,1.0,0.0
13500,66.0,0,360,5.0,0.0
13501,73.0,360,360,1.0,0.0
13502,49.0,0,360,1.0,0.0
13503,65.0,360,360,5.0,0.0
13504,48.0,0,360,1.0,0.0
13505,61.0,360,360,5.0,0.0
13506,68.0,360,360,5.0,0.0
13507,47.0,0,360,1.0,0.0
13508,37.0,0,360,1.0,0.0
13509,66.0,360,360,5.0,0.0
13510,65.0,0,360,5.0,0.0
13511,80.0,360,360,1.0,0.0
13512,61.0,0,360,5.0,0.0
13513,78.0,360,360,1.0,0.0
13514,68.0,0,360,5.0,0.0
13515,77.0,360,360,1.0,0.0
13516,66.0,360,360,5.0,0.0
13517,73.0,0,360,1.0,0.0
13518,56.0,0,360,1.0,0.0
13519,65.0,360,360,5.0,0.0
13520,54.0,360,360,1.0,0.0
13521,61.0,0,360,5.0,0.0
13522,53.0,360,360,1.0,0.0
13523,44.0,0,720,5.0,0.0
13524,49.0,720,360,1.0,0.0
13525,42.0,720,720,5.0,0.0
13526,41.0,720,720,5.0,0.0
13527,37.0,156,720,5.0,0.0
13528,60.0,0,156,1.0,0.0
13529,53.0,480,156,2.0,0.0
13530,44.0,0,720,5.0,0.0
13531,32.0,156,720,5.0,0.0
13532,60.0,84,156,1.0,0.0
13533,53.0,0,156,2.0,0.0
13534,31.0,0,720,5.0,0.0
13535,43.0,156,720,5.0,0.0
13536,61.0,0,156,1.0,0.0
13537,53.0,0,156,2.0,0.0
13538,58.0,480,156,2.0,0.0
13539,53.0,84,156,2.0,0.0
13540,61.0,0,156,1.0,0.0
13541,58.0,0,156,2.0,0.0
13542,29.0,0,720,5.0,0.0
13543,56.0,0,156,1.0,0.0
13544,41.0,720,720,5.0,0.0
13545,53.0,282,156,2.0,0.0
13546,55.0,0,78,2.0,0.0
13547,58.0,198,78,1.0,0.0
13548,56.0,84,156,2.0,0.0
13549,60.0,0,156,1.0,0.0
13550,36.0,0,720,5.0,0.0
13551,24.0,480,720,5.0,0.0
13552,60.0,240,720,1.0,0.0
13553,44.0,0,720,5.0,0.0
13554,54.0,480,720,2.0,0.0
13555,32.0,0,720,5.0,0.0
13556,62.0,0,240,1.0,0.0
13557,63.0,240,480,1.0,0.0
13558,55.0,0,720,2.0,0.0
13559,31.0,0,720,5.0,0.0
13560,43.0,480,720,5.0,0.0
13561,62.0,0,240,1.0,0.0
13562,42.0,0,720,5.0,0.0
13563,30.0,0,720,5.0,0.0
13564,56.0,0,720,2.0,0.0
13565,60.0,240,480,1.0,0.0
13566,62.0,1920,240,1.0,0.0
13567,24.0,600,1920,5.0,0.0
13568,36.0,0,1920,5.0,0.0
13569,60.0,0,1920,2.0,0.0
13570,55.0,0,1920,2.0,0.0
13571,64.0,0,1920,1.0,0.0
13572,67.0,360,360,5.0,0.0
13573,65.0,360,360,5.0,0.0
13574,79.0,0,360,1.0,0.0
13575,64.0,360,360,5.0,0.0
13576,60.0,0,360,5.0,0.0
13577,77.0,0,360,1.0,0.0
13578,58.0,360,0,5.0,0.0
13579,76.0,0,360,1.0,0.0
13580,67.0,360,360,5.0,0.0
13581,72.0,360,360,1.0,0.0
13582,65.0,0,360,5.0,0.0
13583,64.0,0,360,5.0,0.0
13584,55.0,360,360,1.0,0.0
13585,60.0,0,360,5.0,0.0
13586,53.0,360,360,1.0,0.0
13587,70.0,0,360,5.0,0.0
13588,52.0,360,360,1.0,0.0
13589,61.0,0,1440,5.0,0.0
13590,68.0,0,360,5.0,0.0
13591,48.0,360,360,1.0,0.0
13592,82.0,360,360,1.0,0.0
13593,67.0,0,360,5.0,0.0
13594,64.0,0,360,5.0,0.0
13595,80.0,360,360,1.0,0.0
13596,70.0,360,360,5.0,0.0
13597,61.0,0,1440,5.0,0.0
13598,79.0,0,360,1.0,0.0
13599,76.0,360,360,1.0,0.0
13600,68.0,0,360,5.0,0.0
13601,67.0,0,360,5.0,0.0
13602,58.0,360,360,1.0,0.0
13603,56.0,0,360,1.0,0.0
13604,55.0,0,360,1.0,0.0
13605,64.0,360,0,5.0,0.0
13606,73.0,360,360,5.0,0.0
13607,52.0,360,360,1.0,0.0
13608,72.0,0,360,5.0,0.0
13609,70.0,0,360,5.0,0.0
13610,85.0,360,360,1.0,0.0
13611,84.0,360,360,1.0,0.0
13612,67.0,0,360,5.0,0.0
13613,73.0,360,360,5.0,0.0
13614,64.0,360,1440,5.0,0.0
13615,82.0,0,360,1.0,0.0
13616,79.0,0,360,1.0,0.0
13617,72.0,360,360,5.0,0.0
13618,61.0,0,360,1.0,0.0
13619,70.0,360,360,5.0,0.0
13620,67.0,0,360,5.0,0.0
13621,60.0,0,360,1.0,0.0
13622,73.0,0,360,5.0,0.0
13623,58.0,360,360,1.0,0.0
13624,72.0,360,360,5.0,0.0
13625,55.0,0,360,1.0,0.0
13626,70.0,360,360,5.0,0.0
13627,85.0,0,360,1.0,0.0
13628,84.0,0,360,1.0,0.0
13629,67.0,0,360,5.0,0.0
13630,73.0,360,360,5.0,0.0
13631,63.0,360,0,5.0,0.0
13632,82.0,0,360,1.0,0.0
13633,79.0,360,360,1.0,0.0
13634,72.0,0,360,5.0,0.0
13635,70.0,360,360,5.0,0.0
13636,61.0,0,360,1.0,0.0
13637,67.0,0,360,5.0,0.0
13638,60.0,0,360,1.0,0.0
13639,58.0,360,360,1.0,0.0
13640,49.0,720,720,1.0,0.0
13641,55.0,0,360,1.0,0.0
13642,48.0,720,720,1.0,0.0
13643,46.0,636,720,1.0,0.0
13644,43.0,156,720,1.0,0.0
13645,51.0,84,156,1.0,0.0
13646,63.0,0,156,1.0,0.0
13647,56.0,480,156,2.0,0.0
13648,48.0,0,720,5.0,0.0
13649,36.0,156,720,5.0,0.0
13650,63.0,84,156,1.0,0.0
13651,56.0,0,156,2.0,0.0
13652,56.0,0,156,2.0,0.0
13653,46.0,156,720,5.0,0.0
13654,61.0,0,156,2.0,0.0
13655,65.0,480,156,1.0,0.0
13656,34.0,0,720,5.0,0.0
13657,56.0,0,156,2.0,0.0
13658,61.0,0,156,2.0,0.0
13659,65.0,84,156,1.0,0.0
13660,56.0,0,156,2.0,0.0
13661,60.0,282,156,1.0,0.0
13662,32.0,720,720,5.0,0.0
13663,44.0,0,720,5.0,0.0
13664,58.0,0,78,2.0,0.0
13665,61.0,198,78,1.0,0.0
13666,60.0,84,156,2.0,0.0
13667,63.0,0,156,1.0,0.0
13668,39.0,480,720,5.0,0.0
13669,27.0,0,720,5.0,0.0
13670,63.0,240,720,1.0,0.0
13671,47.0,480,720,5.0,0.0
13672,35.0,0,720,5.0,0.0
13673,57.0,0,720,2.0,0.0
13674,65.0,0,240,1.0,0.0
13675,66.0,240,480,1.0,0.0
13676,58.0,480,720,2.0,0.0
13677,34.0,0,720,5.0,0.0
13678,46.0,0,720,5.0,0.0
13679,65.0,0,240,1.0,0.0
13680,33.0,0,720,5.0,0.0
13681,59.0,0,720,2.0,0.0
13682,63.0,240,480,1.0,0.0
13683,45.0,360,720,5.0,0.0
13684,65.0,0,240,1.0,0.0
13685,67.0,0,360,1.0,0.0
13686,44.0,360,360,5.0,0.0
13687,32.0,0,360,5.0,0.0
13688,60.0,0,360,2.0,0.0
13689,60.0,156,240,1.0,0.0
13690,31.0,0,240,5.0,0.0
13691,43.0,0,240,5.0,0.0
13692,72.0,0,156,1.0,0.0
13693,51.0,0,156,5.0,0.0
13694,39.0,240,156,5.0,0.0
13695,63.0,0,156,2.0,0.0
13696,38.0,42,156,5.0,0.0
13697,50.0,0,156,5.0,0.0
13698,67.0,198,78,1.0,0.0
13699,60.0,0,78,2.0,0.0
13700,63.0,0,156,1.0,0.0
13701,55.0,0,156,2.0,0.0
13702,36.0,276,156,5.0,0.0
13703,48.0,0,156,5.0,0.0
13704,51.0,240,192,2.0,0.0
13705,31.0,0,192,5.0,0.0
13706,43.0,0,192,5.0,0.0
13707,60.0,0,192,1.0,0.0
13708,39.0,0,192,5.0,0.0
13709,55.0,0,192,1.0,0.0
13710,48.0,0,192,2.0,0.0
13711,27.0,240,192,5.0,0.0
13712,51.0,0,192,1.0,0.0
13713,48.0,0,192,2.0,0.0
13714,29.0,0,192,5.0,0.0
13715,41.0,768,192,5.0,0.0
13716,31.0,0,1440,5.0,0.0
13717,50.0,0,1440,1.0,0.0
13718,48.0,720,720,2.0,0.0
13719,47.0,0,720,2.0,0.0
13720,36.0,0,1920,5.0,0.0
13721,43.0,1920,0,5.0,0.0
13722,52.0,2040,1920,1.0,0.0
13723,48.0,0,1920,2.0,0.0
13724,48.0,0,60,5.0,0.0
13725,60.0,60,60,1.0,0.0
13726,62.0,0,60,1.0,0.0
13727,50.0,60,60,5.0,0.0
13728,64.0,60,60,1.0,0.0
13729,52.0,0,60,5.0,0.0
13730,53.0,60,60,5.0,0.0
13731,65.0,0,60,1.0,0.0
13732,67.0,0,60,1.0,0.0
13733,55.0,60,60,5.0,0.0
13734,69.0,0,60,1.0,0.0
13735,57.0,60,60,5.0,0.0
13736,71.0,0,60,1.0,0.0
13737,59.0,156,60,5.0,0.0
13738,72.0,720,156,1.0,0.0
13739,60.0,0,156,5.0,0.0
13740,70.0,240,396,2.0,0.0
13741,73.0,0,396,1.0,0.0
13742,58.0,0,396,5.0,0.0
13743,61.0,0,396,4.0,0.0
13744,60.0,0,156,4.0,0.0
13745,68.0,240,156,2.0,0.0
13746,72.0,0,156,1.0,0.0
13747,56.0,0,156,5.0,0.0
13748,58.0,0,156,4.0,0.0
13749,70.0,0,156,1.0,0.0
13750,55.0,0,156,5.0,0.0
13751,67.0,240,156,2.0,0.0
13752,56.0,282,156,5.0,0.0
13753,53.0,0,156,5.0,0.0
13754,65.0,0,156,2.0,0.0
13755,68.0,0,156,1.0,0.0
13756,70.0,0,78,2.0,0.0
13757,55.0,0,78,5.0,0.0
13758,67.0,0,78,1.0,0.0
13759,58.0,198,78,4.0,0.0
13760,56.0,0,156,5.0,0.0
13761,60.0,0,156,4.0,0.0
13762,72.0,0,156,1.0,0.0
13763,68.0,804,156,2.0,0.0
13764,48.0,156,240,1.0,0.0
13765,44.0,0,156,5.0,0.0
13766,56.0,714,156,2.0,0.0
13767,51.0,0,156,2.0,0.0
13768,32.0,0,156,5.0,0.0
13769,60.0,0,156,1.0,0.0
13770,53.0,0,390,2.0,0.0
13771,56.0,7,390,2.0,0.0
13772,25.0,0,390,5.0,0.0
13773,37.0,0,397,5.0,0.0
13774,61.0,239,397,1.0,0.0
13775,39.0,0,156,5.0,0.0
13776,27.0,0,156,5.0,0.0
13777,49.0,0,156,2.0,0.0
13778,60.0,0,156,1.0,0.0
13779,55.0,240,156,2.0,0.0
13780,27.0,0,156,5.0,0.0
13781,55.0,0,156,2.0,0.0
13782,39.0,0,156,5.0,0.0
13783,49.0,240,156,2.0,0.0
13784,58.0,0,156,1.0,0.0
13785,48.0,0,156,2.0,0.0
13786,32.0,0,156,5.0,0.0
13787,44.0,0,156,5.0,0.0
13788,56.0,282,156,1.0,0.0
13789,51.0,198,78,2.0,0.0
13790,32.0,0,78,5.0,0.0
13791,58.0,0,78,1.0,0.0
13792,56.0,0,156,2.0,0.0
13793,60.0,0,156,1.0,0.0
13794,44.0,804,156,5.0,0.0
13795,56.0,156,240,1.0,0.0
13796,61.0,0,156,2.0,0.0
13797,42.0,0,720,5.0,0.0
13798,66.0,564,156,1.0,0.0
13799,30.0,0,720,5.0,0.0
13800,58.0,0,156,2.0,0.0
13801,70.0,0,240,1.0,0.0
13802,58.0,0,240,2.0,0.0
13803,66.0,396,240,2.0,0.0
13804,44.0,0,720,5.0,0.0
13805,32.0,156,720,5.0,0.0
13806,65.0,0,156,2.0,0.0
13807,68.0,0,156,1.0,0.0
13808,56.0,240,156,2.0,0.0
13809,54.0,0,156,2.0,0.0
13810,63.0,84,156,2.0,0.0
13811,66.0,0,156,1.0,0.0
13812,65.0,0,156,1.0,0.0
13813,46.0,0,720,5.0,0.0
13814,34.0,720,720,5.0,0.0
13815,53.0,0,156,2.0,0.0
13816,61.0,282,156,2.0,0.0
13817,51.0,0,78,2.0,0.0
13818,60.0,0,78,2.0,0.0
13819,63.0,198,78,1.0,0.0
13820,49.0,0,156,2.0,0.0
13821,58.0,0,156,2.0,0.0
13822,61.0,84,156,1.0,0.0
13823,36.0,0,720,5.0,0.0
13824,48.0,156,720,5.0,0.0
13825,56.0,0,240,2.0,0.0
13826,51.0,0,240,2.0,0.0
13827,63.0,0,240,1.0,0.0
13828,65.0,564,156,1.0,0.0
13829,53.0,0,156,2.0,0.0
13830,61.0,0,156,2.0,0.0
13831,49.0,0,720,5.0,0.0
13832,37.0,156,720,5.0,0.0
13833,77.0,240,396,1.0,0.0
13834,73.0,0,396,2.0,0.0
13835,65.0,0,396,2.0,0.0
13836,39.0,156,720,5.0,0.0
13837,51.0,0,720,5.0,0.0
13838,75.0,240,156,1.0,0.0
13839,72.0,0,156,2.0,0.0
13840,63.0,0,156,2.0,0.0
13841,61.0,84,156,2.0,0.0
13842,70.0,0,156,2.0,0.0
13843,73.0,0,156,1.0,0.0
13844,53.0,0,720,5.0,0.0
13845,41.0,720,720,5.0,0.0
13846,68.0,0,156,2.0,0.0
13847,60.0,0,156,2.0,0.0
13848,72.0,282,156,1.0,0.0
13849,58.0,0,78,2.0,0.0
13850,70.0,198,78,1.0,0.0
13851,67.0,0,78,2.0,0.0
13852,56.0,84,156,2.0,0.0
13853,65.0,0,156,2.0,0.0
13854,68.0,0,156,1.0,0.0
13855,55.0,156,720,5.0,0.0
13856,43.0,0,720,5.0,0.0
13857,58.0,0,240,2.0,0.0
13858,70.0,0,240,1.0,0.0
13859,63.0,0,240,2.0,0.0
13860,56.0,156,720,5.0,0.0
13861,72.0,564,156,1.0,0.0
13862,44.0,0,720,5.0,0.0
13863,68.0,0,156,2.0,0.0
13864,60.0,0,156,2.0,0.0
13865,80.0,0,396,2.0,0.0
13866,72.0,240,396,2.0,0.0
13867,84.0,0,396,1.0,0.0
13868,57.0,0,720,5.0,0.0
13869,45.0,156,720,5.0,0.0
13870,68.0,0,156,2.0,0.0
13871,80.0,0,156,1.0,0.0
13872,77.0,240,156,2.0,0.0
13873,78.0,0,156,1.0,0.0
13874,66.0,0,156,2.0,0.0
13875,75.0,84,156,2.0,0.0
13876,77.0,564,156,1.0,0.0
13877,46.0,480,720,5.0,0.0
13878,58.0,0,720,5.0,0.0
13879,73.0,0,156,2.0,0.0
13880,65.0,0,156,2.0,0.0
13881,77.0,0,720,2.0,0.0
13882,85.0,156,720,2.0,0.0
13883,89.0,0,720,1.0,0.0
13884,47.0,285,672,5.0,0.0
13885,59.0,3,669,5.0,0.0
13886,85.0,0,156,1.0,0.0
13887,73.0,0,156,2.0,0.0
13888,77.0,0,156,2.0,0.0
13889,80.0,33,156,2.0,0.0
13890,48.0,3,277,5.0,0.0
13891,80.0,0,240,2.0,0.0
13892,77.0,0,240,2.0,0.0
13893,84.0,0,240,1.0,0.0
13894,72.0,0,240,2.0,0.0
13895,56.0,0,240,5.0,0.0
13896,53.0,360,240,5.0,0.0
13897,60.0,0,240,5.0,0.0
13898,36.0,113,1447,5.0,0.0
13899,84.0,120,120,1.0,0.0
13900,96.0,0,120,1.0,0.0
13901,92.0,120,120,2.0,0.0
13902,94.0,120,120,1.0,0.0
13903,48.0,7,1200,5.0,0.0
13904,91.0,0,120,2.0,0.0
13905,82.0,120,120,1.0,0.0
13906,80.0,120,120,1.0,0.0
13907,92.0,0,120,1.0,0.0
13908,89.0,120,120,2.0,0.0
13909,91.0,120,120,1.0,0.0
13910,87.0,0,120,2.0,0.0
13911,79.0,120,120,1.0,0.0
13912,77.0,120,120,1.0,0.0
13913,85.0,0,120,2.0,0.0
13914,89.0,120,120,1.0,0.0
13915,87.0,0,120,1.0,0.0
13916,84.0,120,120,2.0,0.0
13917,75.0,0,120,1.0,0.0
13918,73.0,120,120,1.0,0.0
13919,52.0,0,240,5.0,0.0
13920,55.0,0,240,5.0,0.0
13921,85.0,0,120,1.0,0.0
13922,82.0,120,120,2.0,0.0
13923,80.0,0,120,2.0,0.0
13924,56.0,0,240,5.0,0.0
13925,53.0,120,240,5.0,0.0
13926,84.0,120,120,1.0,0.0
13927,72.0,0,120,1.0,0.0
13928,58.0,0,240,5.0,0.0
13929,55.0,0,240,5.0,0.0
13930,70.0,120,120,1.0,0.0
13931,79.0,120,120,2.0,0.0
13932,82.0,0,120,1.0,0.0
13933,60.0,240,240,5.0,0.0
13934,80.0,0,120,1.0,0.0
13935,56.0,0,240,5.0,0.0
13936,77.0,120,120,2.0,0.0
13937,68.0,0,120,1.0,0.0
13938,67.0,360,240,1.0,0.0
13939,79.0,0,240,1.0,0.0
13940,76.0,0,240,2.0,0.0
13941,58.0,0,240,5.0,0.0
13942,61.0,0,240,5.0,0.0
13943,33.0,120,240,5.0,0.0
13944,66.0,120,120,1.0,0.0
13945,45.0,0,240,5.0,0.0
13946,75.0,0,120,2.0,0.0
13947,78.0,0,120,1.0,0.0
13948,77.0,120,120,1.0,0.0
13949,46.0,0,240,5.0,0.0
13950,73.0,0,120,2.0,0.0
13951,34.0,120,240,5.0,0.0
13952,65.0,0,120,1.0,0.0
13953,36.0,0,240,5.0,0.0
13954,48.0,0,240,5.0,0.0
13955,63.0,120,120,1.0,0.0
13956,72.0,0,120,2.0,0.0
13957,75.0,120,120,1.0,0.0
13958,73.0,120,120,1.0,0.0
13959,49.0,0,240,5.0,0.0
13960,37.0,0,240,5.0,0.0
13961,70.0,0,120,2.0,0.0
13962,61.0,120,120,1.0,0.0
13963,60.0,120,120,1.0,0.0
13964,39.0,0,240,5.0,0.0
13965,51.0,0,240,5.0,0.0
13966,72.0,120,120,1.0,0.0
13967,68.0,0,120,2.0,0.0
13968,66.0,120,120,2.0,0.0
13969,70.0,0,120,1.0,0.0
13970,58.0,120,120,1.0,0.0
13971,72.0,0,240,5.0,0.0
13972,56.0,120,120,1.0,0.0
13973,65.0,120,120,2.0,0.0
13974,68.0,0,120,1.0,0.0
13975,75.0,0,240,5.0,0.0
13976,63.0,120,120,2.0,0.0
13977,66.0,0,120,1.0,0.0
13978,54.0,120,120,1.0,0.0
13979,53.0,120,120,1.0,0.0
13980,73.0,0,240,5.0,0.0
13981,77.0,120,240,5.0,0.0
13982,61.0,0,120,2.0,0.0
13983,65.0,0,120,1.0,0.0
13984,63.0,120,120,1.0,0.0
13985,75.0,0,240,5.0,0.0
13986,60.0,0,120,2.0,0.0
13987,78.0,0,240,5.0,0.0
13988,57.0,240,120,1.0,0.0
13989,77.0,0,240,5.0,0.0
13990,73.0,0,240,5.0,0.0
13991,58.0,360,240,1.0,0.0
13992,61.0,0,240,1.0,0.0
13993,30.0,0,240,5.0,0.0
13994,42.0,120,240,5.0,0.0
13995,73.0,120,120,1.0,0.0
13996,85.0,0,120,1.0,0.0
13997,82.0,0,120,2.0,0.0
13998,84.0,0,120,1.0,0.0
13999,80.0,120,120,2.0,0.0
14000,32.0,0,240,5.0,0.0
14001,44.0,0,240,5.0,0.0
14002,72.0,120,120,1.0,0.0
14003,48.0,120,240,5.0,0.0
14004,36.0,0,240,5.0,0.0
14005,70.0,120,120,1.0,0.0
14006,78.0,0,120,2.0,0.0
14007,82.0,0,120,1.0,0.0
14008,80.0,120,120,1.0,0.0
14009,49.0,0,240,5.0,0.0
14010,37.0,120,240,5.0,0.0
14011,77.0,0,120,2.0,0.0
14012,68.0,0,120,1.0,0.0
14013,66.0,120,120,1.0,0.0
14014,51.0,0,240,5.0,0.0
14015,39.0,0,240,5.0,0.0
14016,75.0,0,120,2.0,0.0
14017,78.0,120,120,1.0,0.0
14018,73.0,120,120,2.0,0.0
14019,77.0,0,120,1.0,0.0
14020,65.0,120,120,1.0,0.0
14021,63.0,120,120,1.0,0.0
14022,78.0,0,240,5.0,0.0
14023,75.0,120,120,1.0,0.0
14024,72.0,0,120,2.0,0.0
14025,82.0,120,240,5.0,0.0
14026,70.0,0,120,2.0,0.0
14027,73.0,120,120,1.0,0.0
14028,61.0,0,120,1.0,0.0
14029,80.0,0,240,5.0,0.0
14030,60.0,120,120,1.0,0.0
14031,84.0,0,240,5.0,0.0
14032,68.0,120,120,2.0,0.0
14033,72.0,0,120,1.0,0.0
14034,85.0,0,240,5.0,0.0
14035,82.0,0,240,5.0,0.0
14036,67.0,120,120,2.0,0.0
14037,70.0,0,120,1.0,0.0
14038,58.0,120,120,1.0,0.0
14039,83.0,0,240,5.0,0.0
14040,86.0,0,240,5.0,0.0
14041,56.0,120,120,1.0,0.0
14042,68.0,0,120,1.0,0.0
14043,65.0,120,120,2.0,0.0
14044,67.0,0,120,1.0,0.0
14045,64.0,120,120,2.0,0.0
14046,84.0,120,240,5.0,0.0
14047,88.0,0,240,5.0,0.0
14048,55.0,0,120,1.0,0.0
14049,56.0,120,120,1.0,0.0
14050,83.0,0,240,5.0,0.0
14051,86.0,0,240,5.0,0.0
14052,68.0,120,120,1.0,0.0
14053,65.0,0,120,2.0,0.0
14054,67.0,0,120,1.0,0.0
14055,88.0,0,240,5.0,0.0
14056,84.0,120,240,5.0,0.0
14057,64.0,120,120,2.0,0.0
14058,55.0,0,120,1.0,0.0
14059,56.0,120,120,1.0,0.0
14060,83.0,120,240,5.0,0.0
14061,86.0,0,240,5.0,0.0
14062,65.0,0,120,2.0,0.0
14063,68.0,0,120,1.0,0.0
14064,84.0,183,240,5.0,0.0
14065,64.0,120,120,2.0,0.0
14066,67.0,0,120,1.0,0.0
14067,88.0,0,240,5.0,0.0
14068,55.0,0,120,1.0,0.0
14069,56.0,177,183,1.0,0.0
14070,71.0,0,360,5.0,0.0
14071,74.0,3,360,5.0,0.0
14072,65.0,183,183,1.0,0.0
14073,64.0,174,186,1.0,0.0
14074,72.0,0,360,5.0,0.0
14075,76.0,0,360,5.0,0.0
14076,55.0,183,180,1.0,0.0
14077,56.0,177,183,1.0,0.0
14078,74.0,0,360,5.0,0.0
14079,71.0,3,360,5.0,0.0
14080,65.0,183,183,1.0,0.0
14081,64.0,174,186,1.0,0.0
14082,72.0,183,360,5.0,0.0
14083,76.0,0,360,5.0,0.0
14084,55.0,0,180,1.0,0.0
14085,56.0,177,183,1.0,0.0
14086,47.0,3,360,5.0,0.0
14087,65.0,183,183,1.0,0.0
14088,48.0,183,360,5.0,0.0
14089,64.0,174,186,1.0,0.0
14090,55.0,0,180,1.0,0.0
14091,47.0,3,360,5.0,0.0
14092,56.0,177,183,1.0,0.0
14093,65.0,183,183,1.0,0.0
14094,64.0,174,186,1.0,0.0
14095,48.0,240,360,5.0,0.0
14096,55.0,0,180,1.0,0.0
14097,56.0,240,240,1.0,0.0
14098,35.0,0,1440,5.0,0.0
14099,49.0,0,1440,5.0,0.0
14100,65.0,240,240,1.0,0.0
14101,64.0,240,240,1.0,0.0
14102,55.0,240,240,1.0,0.0
14103,56.0,240,240,1.0,0.0
14104,65.0,360,240,1.0,0.0
14105,55.0,0,360,1.0,0.0
14106,64.0,360,360,1.0,0.0
14107,36.0,0,720,5.0,0.0
14108,48.0,0,720,5.0,0.0
14109,62.0,360,360,1.0,0.0
14110,76.0,0,360,5.0,0.0
14111,60.0,360,360,1.0,0.0
14112,74.0,360,360,5.0,0.0
14113,55.0,0,360,1.0,0.0
14114,64.0,0,360,1.0,0.0
14115,72.0,360,360,5.0,0.0
14116,62.0,360,360,1.0,0.0
14117,67.0,0,360,5.0,0.0
14118,48.0,0,360,5.0,0.0
14119,60.0,360,360,1.0,0.0
14120,55.0,0,360,1.0,0.0
14121,47.0,360,360,5.0,0.0
14122,67.0,360,360,1.0,0.0
14123,46.0,0,360,5.0,0.0
14124,34.0,360,360,5.0,0.0
14125,65.0,0,360,1.0,0.0
14126,79.0,360,360,5.0,0.0
14127,64.0,0,360,1.0,0.0
14128,60.0,360,360,1.0,0.0
14129,77.0,0,360,5.0,0.0
14130,76.0,0,360,5.0,0.0
14131,67.0,360,360,1.0,0.0
14132,72.0,0,360,5.0,0.0
14133,65.0,360,360,1.0,0.0
14134,46.0,360,360,5.0,0.0
14135,64.0,0,360,1.0,0.0
14136,60.0,0,360,1.0,0.0
14137,45.0,360,360,5.0,0.0
14138,70.0,360,360,1.0,0.0
14139,61.0,360,1440,1.0,0.0
14140,43.0,0,360,5.0,0.0
14141,69.0,0,360,1.0,0.0
14142,31.0,360,360,5.0,0.0
14143,67.0,360,360,1.0,0.0
14144,82.0,0,360,5.0,0.0
14145,81.0,0,360,5.0,0.0
14146,64.0,0,360,1.0,0.0
14147,70.0,360,360,1.0,0.0
14148,61.0,240,1440,1.0,0.0
14149,79.0,0,360,5.0,0.0
14150,76.0,360,360,5.0,0.0
14151,69.0,0,360,1.0,0.0
14152,33.0,0,360,5.0,0.0
14153,45.0,360,360,5.0,0.0
14154,67.0,0,360,1.0,0.0
14155,31.0,0,360,5.0,0.0
14156,43.0,0,360,5.0,0.0
14157,64.0,0,360,1.0,0.0
14158,41.0,0,240,5.0,0.0
14159,29.0,240,240,5.0,0.0
14160,73.0,0,240,1.0,0.0
14161,69.0,240,240,1.0,0.0
14162,85.0,0,240,5.0,0.0
14163,65.0,240,240,1.0,0.0
14164,62.0,0,240,1.0,0.0
14165,86.0,240,240,5.0,0.0
14166,74.0,240,240,1.0,0.0
14167,28.0,0,240,5.0,0.0
14168,69.0,0,240,1.0,0.0
14169,40.0,240,240,5.0,0.0
14170,76.0,0,240,1.0,0.0
14171,26.0,240,240,5.0,0.0
14172,38.0,0,240,5.0,0.0
14173,73.0,240,240,1.0,0.0
14174,69.0,0,240,1.0,0.0
14175,88.0,240,240,5.0,0.0
14176,89.0,0,240,5.0,0.0
14177,65.0,240,240,1.0,0.0
14178,77.0,240,240,1.0,0.0
14179,38.0,0,240,5.0,0.0
14180,26.0,0,240,5.0,0.0
14181,74.0,240,240,1.0,0.0
14182,24.0,0,720,5.0,0.0
14183,36.0,0,720,5.0,0.0
14184,79.0,240,240,1.0,0.0
14185,76.0,240,240,1.0,0.0
14186,72.0,240,240,1.0,0.0
14187,70.0,240,240,1.0,0.0
14188,81.0,240,240,1.0,0.0
14189,60.0,0,240,5.0,0.0
14190,79.0,240,240,1.0,0.0
14191,67.0,0,240,5.0,0.0
14192,82.0,240,240,1.0,0.0
14193,79.0,240,240,1.0,0.0
14194,76.0,240,240,1.0,0.0
14195,72.0,240,240,1.0,0.0
14196,84.0,240,240,1.0,0.0
14197,82.0,240,240,1.0,0.0
14198,64.0,0,240,5.0,0.0
14199,72.0,240,240,5.0,0.0
14200,88.0,0,240,1.0,0.0
14201,84.0,240,240,1.0,0.0
14202,70.0,0,240,5.0,0.0
14203,91.0,240,240,1.0,0.0
14204,88.0,0,240,1.0,0.0
14205,79.0,240,240,5.0,0.0
14206,96.0,240,240,1.0,0.0
14207,72.0,240,240,5.0,0.0
14208,94.0,0,240,1.0,0.0
14209,91.0,0,240,1.0,0.0
14210,82.0,240,240,5.0,0.0
14211,88.0,240,240,1.0,0.0
14212,84.0,240,240,1.0,0.0
14213,82.0,240,240,1.0,0.0
14214,79.0,240,240,1.0,0.0
14215,76.0,240,240,1.0,0.0
14216,72.0,240,240,1.0,0.0
14217,70.0,240,240,1.0,0.0
14218,67.0,240,240,1.0,0.0
14219,64.0,240,240,1.0,0.0
14220,60.0,192,240,1.0,0.0
14221,58.0,285,192,1.0,0.0
14222,41.0,3,277,5.0,0.0
14223,57.0,240,240,5.0,0.0
14224,55.0,240,240,5.0,0.0
14225,53.0,240,240,5.0,0.0
14226,48.0,240,240,5.0,0.0
14227,60.0,240,240,5.0,0.0
14228,58.0,240,240,5.0,0.0
14229,57.0,240,240,5.0,0.0
14230,53.0,240,240,5.0,0.0
14231,62.0,240,240,5.0,0.0
14232,60.0,240,240,5.0,0.0
14233,58.0,240,240,5.0,0.0
14234,57.0,240,240,5.0,0.0
14235,53.0,240,240,5.0,0.0
14236,52.0,240,240,5.0,0.0
14237,53.0,240,240,5.0,0.0
14238,55.0,240,240,5.0,0.0
14239,57.0,240,240,5.0,0.0
14240,53.0,240,240,5.0,0.0
14241,52.0,240,240,5.0,0.0
14242,48.0,240,240,5.0,0.0
14243,50.0,240,240,5.0,0.0
14244,52.0,240,240,5.0,0.0
14245,53.0,240,240,5.0,0.0
14246,55.0,240,240,5.0,0.0
14247,57.0,240,240,5.0,0.0
14248,69.0,240,720,1.0,0.0
14249,55.0,240,240,5.0,0.0
14250,53.0,0,240,5.0,0.0
14251,48.0,240,240,5.0,0.0
14252,67.0,240,720,1.0,0.0
14253,60.0,240,240,5.0,0.0
14254,58.0,0,240,5.0,0.0
14255,57.0,240,240,5.0,0.0
14256,65.0,480,720,1.0,0.0
14257,53.0,240,240,5.0,0.0
14258,62.0,0,240,5.0,0.0
14259,60.0,0,720,1.0,0.0
14260,58.0,240,240,5.0,0.0
14261,57.0,240,240,5.0,0.0
14262,72.0,0,720,1.0,0.0
14263,54.0,240,240,5.0,0.0
14264,55.0,240,240,5.0,0.0
14265,57.0,240,240,5.0,0.0
14266,55.0,240,240,5.0,0.0
14267,70.0,240,720,1.0,0.0
14268,52.0,240,240,5.0,0.0
14269,60.0,0,240,5.0,0.0
14270,61.0,240,240,5.0,0.0
14271,69.0,240,720,1.0,0.0
14272,62.0,240,240,5.0,0.0
14273,64.0,0,240,5.0,0.0
14274,62.0,240,240,5.0,0.0
14275,65.0,0,720,1.0,0.0
14276,57.0,240,240,5.0,0.0
14277,64.0,240,240,5.0,0.0
14278,74.0,240,720,1.0,0.0
14279,58.0,240,240,5.0,0.0
14280,62.0,240,240,5.0,0.0
14281,64.0,0,240,5.0,0.0
14282,57.0,240,240,5.0,0.0
14283,65.0,0,240,2.0,0.0
14284,72.0,0,720,1.0,0.0
14285,60.0,240,240,5.0,0.0
14286,64.0,240,240,5.0,0.0
14287,55.0,0,240,5.0,0.0
14288,65.0,240,240,2.0,0.0
14289,70.0,0,720,1.0,0.0
14290,58.0,240,240,5.0,0.0
14291,64.0,240,240,5.0,0.0
14292,53.0,0,240,5.0,0.0
14293,69.0,0,480,1.0,0.0
14294,65.0,240,240,2.0,0.0
14295,57.0,240,240,5.0,0.0
14296,64.0,240,240,5.0,0.0
14297,65.0,240,960,1.0,0.0
14298,59.0,240,240,5.0,0.0
14299,60.0,240,240,5.0,0.0
14300,62.0,240,240,5.0,0.0
14301,58.0,0,240,5.0,0.0
14302,57.0,240,240,5.0,0.0
14303,67.0,0,240,1.0,0.0
14304,55.0,240,240,5.0,0.0
14305,69.0,0,240,1.0,0.0
14306,67.0,0,720,1.0,0.0
14307,60.0,240,240,5.0,0.0
14308,52.0,0,240,5.0,0.0
14309,53.0,240,240,5.0,0.0
14310,55.0,240,240,5.0,0.0
14311,60.0,0,240,1.0,0.0
14312,53.0,240,240,5.0,0.0
14313,52.0,240,240,5.0,0.0
14314,50.0,240,240,5.0,0.0
14315,46.0,0,1440,5.0,0.0
14316,48.0,240,240,5.0,0.0
14317,64.0,234,1206,1.0,0.0
14318,50.0,240,240,5.0,0.0
14319,52.0,240,240,5.0,0.0
14320,53.0,240,240,5.0,0.0
14321,55.0,6,240,5.0,0.0
14322,57.0,240,240,5.0,0.0
14323,65.0,0,240,1.0,0.0
14324,60.0,240,240,5.0,0.0
14325,58.0,480,720,5.0,0.0
14326,67.0,0,720,1.0,0.0
14327,62.0,240,240,5.0,0.0
14328,64.0,0,240,5.0,0.0
14329,65.0,240,720,1.0,0.0
14330,57.0,0,720,5.0,0.0
14331,67.0,240,240,2.0,0.0
14332,69.0,0,240,2.0,0.0
14333,72.0,240,240,2.0,0.0
14334,58.0,0,2880,5.0,0.0
14335,69.0,0,720,1.0,0.0
14336,74.0,240,240,2.0,0.0
14337,77.0,240,240,2.0,0.0
14338,67.0,0,720,1.0,0.0
14339,76.0,240,240,2.0,0.0
14340,84.0,240,240,2.0,0.0
14341,82.0,240,240,2.0,0.0
14342,79.0,240,240,2.0,0.0
14343,64.0,240,720,1.0,0.0
14344,76.0,240,240,2.0,0.0
14345,72.0,0,240,2.0,0.0
14346,70.0,240,240,2.0,0.0
14347,60.0,240,720,1.0,0.0
14348,67.0,240,240,2.0,0.0
14349,64.0,0,240,2.0,0.0
14350,45.0,240,240,5.0,0.0
14351,39.0,240,1440,5.0,0.0
14352,65.0,235,1205,1.0,0.0
14353,46.0,240,240,5.0,0.0
14354,50.0,240,240,5.0,0.0
14355,48.0,240,240,5.0,0.0
14356,53.0,5,240,5.0,0.0
14357,52.0,0,240,5.0,0.0
14358,67.0,0,240,1.0,0.0
14359,69.0,0,720,1.0,0.0
14360,51.0,240,720,5.0,0.0
14361,53.0,240,240,5.0,0.0
14362,57.0,240,240,5.0,0.0
14363,60.0,0,240,5.0,0.0
14364,70.0,278,682,1.0,0.0
14365,62.0,240,240,5.0,0.0
14366,63.0,198,240,5.0,0.0
14367,64.0,4,198,5.0,0.0
14368,63.0,40,2880,5.0,0.0
14369,74.0,0,720,1.0,0.0
14370,77.0,240,240,2.0,0.0
14371,79.0,240,240,2.0,0.0
14372,82.0,240,240,2.0,0.0
14373,81.0,240,240,2.0,0.0
14374,72.0,240,720,1.0,0.0
14375,89.0,240,240,2.0,0.0
14376,87.0,0,240,2.0,0.0
14377,84.0,240,240,2.0,0.0
14378,69.0,0,720,1.0,0.0
14379,81.0,240,240,2.0,0.0
14380,77.0,240,240,2.0,0.0
14381,65.0,0,720,1.0,0.0
14382,75.0,240,240,2.0,0.0
14383,72.0,200,240,2.0,0.0
14384,69.0,240,240,2.0,0.0
14385,74.0,0,1440,2.0,0.0
14386,46.0,240,240,5.0,0.0
14387,77.0,240,1440,1.0,0.0
14388,48.0,240,240,5.0,0.0
14389,51.0,240,240,5.0,0.0
14390,50.0,240,240,5.0,0.0
14391,62.0,240,240,5.0,0.0
14392,58.0,0,240,5.0,0.0
14393,50.0,240,240,5.0,0.0
14394,69.0,0,1440,2.0,0.0
14395,65.0,0,0,2.0,0.0
14396,74.0,0,1440,1.0,0.0
14397,52.0,240,240,5.0,0.0
14398,55.0,240,240,5.0,0.0
14399,53.0,240,240,5.0,0.0
14400,65.0,240,240,5.0,0.0
14401,62.0,0,240,5.0,0.0
14402,55.0,240,240,5.0,0.0
14403,70.0,0,1440,1.0,0.0
14404,67.0,240,1440,2.0,0.0
14405,57.0,240,240,5.0,0.0
14406,60.0,240,240,5.0,0.0
14407,58.0,240,240,5.0,0.0
14408,67.0,240,240,5.0,0.0
14409,64.0,0,240,5.0,0.0
14410,69.0,0,1440,1.0,0.0
14411,65.0,240,240,5.0,0.0
14412,62.0,240,240,5.0,0.0
14413,57.0,240,240,5.0,0.0
14414,53.0,240,240,5.0,0.0
14415,50.0,240,240,5.0,0.0
14416,48.0,240,240,5.0,0.0
14417,46.0,240,720,5.0,0.0
14418,65.0,240,240,5.0,0.0
14419,67.0,45,2115,1.0,0.0
14420,62.0,240,240,5.0,0.0
14421,58.0,0,240,5.0,0.0
14422,55.0,240,240,5.0,0.0
14423,53.0,240,240,5.0,0.0
14424,50.0,240,240,5.0,0.0
14425,46.0,240,240,5.0,0.0
14426,43.0,195,240,5.0,0.0
14427,41.0,240,240,5.0,0.0
14428,58.0,4,756,2.0,0.0
14429,67.0,16,720,2.0,0.0
14430,72.0,240,720,1.0,0.0
14431,40.0,240,240,5.0,0.0
14432,38.0,220,240,5.0,0.0
14433,36.0,0,240,5.0,0.0
14434,48.0,156,1920,5.0,0.0
14435,73.0,240,240,1.0,0.0
14436,64.0,0,240,2.0,0.0
14437,70.0,240,240,2.0,0.0
14438,58.0,0,396,4.0,0.0
14439,68.0,156,240,2.0,0.0
14440,61.0,84,396,5.0,0.0
14441,67.0,156,240,2.0,0.0
14442,56.0,0,156,4.0,0.0
14443,68.0,156,240,2.0,0.0
14444,60.0,84,156,5.0,0.0
14445,58.0,84,156,5.0,0.0
14446,70.0,156,240,2.0,0.0
14447,55.0,0,156,4.0,0.0
14448,72.0,198,240,2.0,0.0
14449,56.0,0,156,5.0,0.0
14450,53.0,84,156,4.0,0.0
14451,68.0,0,240,2.0,0.0
14452,55.0,0,78,5.0,0.0
14453,58.0,42,78,4.0,0.0
14454,56.0,84,156,4.0,0.0
14455,67.0,240,240,2.0,0.0
14456,60.0,0,156,5.0,0.0
14457,65.0,240,240,2.0,0.0
14458,68.0,240,240,2.0,0.0
14459,72.0,240,240,2.0,0.0
14460,73.0,240,240,2.0,0.0
14461,36.0,156,1920,5.0,0.0
14462,70.0,240,240,2.0,0.0
14463,68.0,156,240,2.0,0.0
14464,58.0,84,396,4.0,0.0
14465,61.0,0,396,5.0,0.0
14466,67.0,156,240,2.0,0.0
14467,79.0,156,240,2.0,0.0
14468,60.0,0,156,5.0,0.0
14469,56.0,84,156,4.0,0.0
14470,58.0,84,156,5.0,0.0
14471,55.0,0,156,4.0,0.0
14472,75.0,156,240,2.0,0.0
14473,73.0,198,240,2.0,0.0
14474,56.0,0,156,5.0,0.0
14475,53.0,84,156,4.0,0.0
14476,72.0,0,240,2.0,0.0
14477,58.0,42,78,4.0,0.0
14478,55.0,0,78,5.0,0.0
14479,84.0,240,240,2.0,0.0
14480,60.0,84,156,5.0,0.0
14481,56.0,0,156,4.0,0.0
14482,80.0,240,240,2.0,0.0
14483,77.0,240,240,2.0,0.0
14484,72.0,240,240,2.0,0.0
14485,41.0,0,1920,5.0,0.0
14486,78.0,240,240,2.0,0.0
14487,75.0,240,240,2.0,0.0
14488,66.0,0,396,5.0,0.0
14489,63.0,84,396,4.0,0.0
14490,73.0,156,240,2.0,0.0
14491,72.0,156,240,2.0,0.0
14492,65.0,0,156,5.0,0.0
14493,73.0,156,240,2.0,0.0
14494,61.0,84,156,4.0,0.0
14495,63.0,84,156,5.0,0.0
14496,60.0,0,156,4.0,0.0
14497,75.0,156,240,2.0,0.0
14498,77.0,198,240,2.0,0.0
14499,61.0,84,156,5.0,0.0
14500,58.0,0,156,4.0,0.0
14501,73.0,156,240,2.0,0.0
14502,63.0,42,78,4.0,0.0
14503,60.0,0,78,5.0,0.0
14504,61.0,84,156,4.0,0.0
14505,72.0,240,240,2.0,0.0
14506,65.0,0,156,5.0,0.0
14507,70.0,240,240,2.0,0.0
14508,73.0,240,240,2.0,0.0
14509,77.0,240,240,2.0,0.0
14510,82.0,240,240,2.0,0.0
14511,44.0,14,2062,5.0,0.0
14512,78.0,240,240,2.0,0.0
14513,66.0,0,396,4.0,0.0
14514,77.0,156,240,2.0,0.0
14515,70.0,84,396,5.0,0.0
14516,75.0,156,240,2.0,0.0
14517,87.0,156,240,2.0,0.0
14518,65.0,0,156,4.0,0.0
14519,68.0,84,156,5.0,0.0
14520,84.0,156,240,2.0,0.0
14521,66.0,84,156,5.0,0.0
14522,63.0,0,156,4.0,0.0
14523,65.0,0,156,5.0,0.0
14524,82.0,198,240,2.0,0.0
14525,61.0,84,156,4.0,0.0
14526,80.0,142,240,2.0,0.0
14527,63.0,42,78,4.0,0.0
14528,66.0,0,78,5.0,0.0
14529,92.0,240,240,2.0,0.0
14530,65.0,84,156,4.0,0.0
14531,68.0,0,156,5.0,0.0
14532,89.0,240,240,2.0,0.0
14533,85.0,240,240,2.0,0.0
14534,80.0,240,240,2.0,0.0
14535,36.0,225,5535,5.0,0.0
14536,48.0,7,5520,5.0,0.0
14537,84.0,240,240,2.0,0.0
14538,79.0,240,240,2.0,0.0
14539,77.0,240,240,2.0,0.0
14540,67.0,0,1440,1.0,0.0
14541,65.0,0,1440,1.0,0.0
14542,77.0,240,240,2.0,0.0
14543,89.0,240,240,2.0,0.0
14544,84.0,240,240,2.0,0.0
14545,79.0,240,0,2.0,0.0
14546,91.0,240,240,2.0,0.0
14547,72.0,0,0,5.0,0.0
14548,60.0,0,0,5.0,0.0
14549,67.0,0,360,1.0,0.0
14550,88.0,120,240,2.0,0.0
14551,64.0,0,360,1.0,0.0
14552,84.0,240,240,2.0,0.0
14553,65.0,0,360,1.0,0.0
14554,72.0,0,0,5.0,0.0
14555,60.0,120,0,5.0,0.0
14556,62.0,0,360,1.0,0.0
14557,96.0,240,240,2.0,0.0
14558,67.0,0,720,1.0,0.0
14559,64.0,0,720,1.0,0.0
14560,60.0,0,0,5.0,0.0
14561,94.0,240,240,2.0,0.0
14562,91.0,240,240,2.0,0.0
14563,88.0,0,240,2.0,0.0
14564,86.0,240,240,2.0,0.0
14565,72.0,240,0,5.0,0.0
14566,60.0,0,0,5.0,0.0
14567,69.0,0,720,1.0,0.0
14568,65.0,0,720,1.0,0.0
14569,84.0,240,240,2.0,0.0
14570,83.0,240,240,2.0,0.0
14571,67.0,0,1200,1.0,0.0
14572,60.0,0,0,5.0,0.0
14573,72.0,8,1207,5.0,0.0
14574,70.0,0,1200,1.0,0.0
14575,82.0,240,240,2.0,0.0
14576,79.0,240,240,2.0,0.0
14577,76.0,240,240,2.0,0.0
14578,72.0,240,240,2.0,0.0
14579,70.0,0,240,2.0,0.0
14580,67.0,240,240,2.0,0.0
14581,82.0,240,240,2.0,0.0
14582,48.0,0,720,5.0,0.0
14583,60.0,0,720,5.0,0.0
14584,52.0,0,720,1.0,0.0
14585,55.0,0,720,1.0,0.0
14586,79.0,240,240,2.0,0.0
14587,76.0,240,240,2.0,0.0
14588,57.0,240,720,1.0,0.0
14589,53.0,0,720,1.0,0.0
14590,48.0,0,720,5.0,0.0
14591,74.0,240,240,2.0,0.0
14592,72.0,240,240,2.0,0.0
14593,71.0,0,240,2.0,0.0
14594,60.0,0,0,5.0,0.0
14595,70.0,240,240,2.0,0.0
14596,58.0,0,1440,1.0,0.0
14597,55.0,240,1440,1.0,0.0
14598,48.0,0,1440,5.0,0.0
14599,67.0,240,240,2.0,0.0
14600,64.0,240,240,2.0,0.0
14601,60.0,240,240,2.0,0.0
14602,58.0,232,240,2.0,0.0
14603,55.0,8,232,2.0,0.0
14604,36.0,35,725,5.0,0.0
14605,43.0,5,675,1.0,0.0
14606,52.0,5,680,1.0,0.0
14607,96.0,240,240,2.0,0.0
14608,94.0,195,240,2.0,0.0
14609,91.0,240,240,2.0,0.0
14610,38.0,0,720,5.0,0.0
14611,89.0,240,240,2.0,0.0
14612,48.0,40,680,1.0,0.0
14613,53.0,5,675,1.0,0.0
14614,88.0,195,240,2.0,0.0
14615,86.0,240,240,2.0,0.0
14616,40.0,40,1920,5.0,0.0
14617,48.0,240,1920,1.0,0.0
14618,84.0,240,240,2.0,0.0
14619,55.0,0,1920,1.0,0.0
14620,82.0,240,240,2.0,0.0
14621,79.0,240,240,2.0,0.0
14622,76.0,240,240,2.0,0.0
14623,72.0,240,240,2.0,0.0
14624,70.0,240,240,2.0,0.0
14625,67.0,200,240,2.0,0.0
14626,64.0,0,240,2.0,0.0
14627,60.0,240,240,2.0,0.0
14628,58.0,240,240,2.0,0.0
14629,55.0,240,240,2.0,0.0
14630,52.0,240,240,2.0,0.0
14631,48.0,240,240,2.0,0.0
14632,46.0,240,240,2.0,0.0
14633,43.0,240,240,2.0,0.0
14634,40.0,240,240,2.0,0.0
14635,36.0,1360,240,2.0,0.0
14636,72.0,80,80,1.0,0.0
14637,74.0,80,80,1.0,0.0
14638,76.0,80,80,1.0,0.0
14639,77.0,80,80,1.0,0.0
14640,79.0,240,80,1.0,0.0
14641,41.0,20,240,5.0,0.0
14642,81.0,0,240,1.0,0.0
14643,48.0,20,240,5.0,0.0
14644,57.0,200,240,5.0,0.0
14645,79.0,240,240,1.0,0.0
14646,77.0,240,240,1.0,0.0
14647,72.0,20,240,1.0,0.0
14648,43.0,0,240,5.0,0.0
14649,48.0,20,240,5.0,0.0
14650,58.0,200,240,5.0,0.0
14651,84.0,240,240,1.0,0.0
14652,82.0,240,240,1.0,0.0
14653,81.0,20,240,1.0,0.0
14654,45.0,0,240,5.0,0.0
14655,48.0,20,240,5.0,0.0
14656,60.0,200,240,5.0,0.0
14657,77.0,240,240,1.0,0.0
14658,86.0,240,240,1.0,0.0
14659,46.0,20,240,5.0,0.0
14660,82.0,0,240,1.0,0.0
14661,53.0,20,240,5.0,0.0
14662,62.0,200,240,5.0,0.0
14663,81.0,240,240,1.0,0.0
14664,79.0,240,240,1.0,0.0
14665,47.0,20,240,5.0,0.0
14666,77.0,0,240,1.0,0.0
14667,53.0,20,240,5.0,0.0
14668,62.0,200,240,5.0,0.0
14669,76.0,240,240,1.0,0.0
14670,77.0,240,240,1.0,0.0
14671,43.0,0,240,5.0,0.0
14672,79.0,20,240,1.0,0.0
14673,50.0,20,240,5.0,0.0
14674,59.0,200,240,5.0,0.0
14675,81.0,240,240,1.0,0.0
14676,77.0,240,240,1.0,0.0
14677,48.0,0,240,5.0,0.0
14678,76.0,20,240,1.0,0.0
14679,52.0,20,240,5.0,0.0
14680,60.0,200,240,5.0,0.0
14681,72.0,240,240,1.0,0.0
14682,74.0,240,240,1.0,0.0
14683,76.0,240,240,1.0,0.0
14684,77.0,240,240,1.0,0.0
14685,79.0,240,240,1.0,0.0
14686,41.0,20,240,5.0,0.0
14687,81.0,0,240,1.0,0.0
14688,48.0,20,240,5.0,0.0
14689,57.0,200,240,5.0,0.0
14690,79.0,240,240,1.0,0.0
14691,77.0,240,240,1.0,0.0
14692,75.0,0,240,2.0,0.0
14693,42.0,0,240,5.0,0.0
14694,84.0,20,240,1.0,0.0
14695,48.0,20,240,5.0,0.0
14696,57.0,200,240,5.0,0.0
14697,82.0,240,240,1.0,0.0
14698,81.0,240,240,1.0,0.0
14699,79.0,0,240,1.0,0.0
14700,74.0,20,240,2.0,0.0
14701,43.0,0,240,5.0,0.0
14702,46.0,20,240,5.0,0.0
14703,58.0,200,240,5.0,0.0
14704,82.0,240,240,1.0,0.0
14705,84.0,240,240,1.0,0.0
14706,47.0,0,240,5.0,0.0
14707,80.0,20,240,2.0,0.0
14708,86.0,0,240,1.0,0.0
14709,53.0,20,240,5.0,0.0
14710,62.0,200,240,5.0,0.0
14711,88.0,240,240,1.0,0.0
14712,89.0,240,240,1.0,0.0
14713,84.0,0,240,1.0,0.0
14714,77.0,20,240,2.0,0.0
14715,48.0,0,240,5.0,0.0
14716,53.0,20,240,5.0,0.0
14717,57.0,200,240,5.0,0.0
14718,60.0,0,240,5.0,0.0
14719,81.0,240,240,1.0,0.0
14720,82.0,240,240,1.0,0.0
14721,48.0,0,240,5.0,0.0
14722,86.0,40,240,1.0,0.0
14723,64.0,200,240,5.0,0.0
14724,84.0,240,240,1.0,0.0
14725,82.0,240,240,1.0,0.0
14726,50.0,40,240,5.0,0.0
14727,86.0,0,240,1.0,0.0
14728,65.0,200,240,5.0,0.0
14729,84.0,240,240,1.0,0.0
14730,82.0,240,240,1.0,0.0
14731,86.0,0,240,1.0,0.0
14732,52.0,40,240,5.0,0.0
14733,67.0,200,240,5.0,0.0
14734,84.0,240,240,1.0,0.0
14735,82.0,240,240,1.0,0.0
14736,81.0,0,240,1.0,0.0
14737,53.0,40,240,5.0,0.0
14738,69.0,200,240,5.0,0.0
14739,80.0,240,240,1.0,0.0
14740,81.0,240,240,1.0,0.0
14741,82.0,40,240,1.0,0.0
14742,45.0,0,240,5.0,0.0
14743,61.0,200,240,5.0,0.0
14744,81.0,240,240,1.0,0.0
14745,79.0,240,240,1.0,0.0
14746,82.0,0,240,1.0,0.0
14747,47.0,40,240,5.0,0.0
14748,62.0,200,240,5.0,0.0
14749,81.0,240,240,1.0,0.0
14750,79.0,240,240,1.0,0.0
14751,82.0,40,240,1.0,0.0
14752,49.0,0,240,5.0,0.0
14753,64.0,200,240,5.0,0.0
14754,81.0,240,240,1.0,0.0
14755,79.0,240,240,1.0,0.0
14756,77.0,40,240,1.0,0.0
14757,50.0,0,240,5.0,0.0
14758,65.0,200,240,5.0,0.0
14759,76.0,240,240,1.0,0.0
14760,77.0,240,240,1.0,0.0
14761,79.0,0,240,1.0,0.0
14762,41.0,40,240,5.0,0.0
14763,57.0,200,240,5.0,0.0
14764,77.0,240,240,1.0,0.0
14765,75.0,240,240,1.0,0.0
14766,79.0,240,240,1.0,0.0
14767,77.0,240,240,1.0,0.0
14768,75.0,240,240,1.0,0.0
14769,79.0,0,240,1.0,0.0
14770,41.0,40,240,5.0,0.0
14771,57.0,200,240,5.0,0.0
14772,77.0,240,240,1.0,0.0
14773,75.0,240,240,1.0,0.0
14774,81.0,240,240,1.0,0.0
14775,69.0,0,240,1.0,0.0
14776,67.0,0,240,1.0,0.0
14777,79.0,240,240,1.0,0.0
14778,77.0,0,240,1.0,0.0
14779,65.0,240,240,1.0,0.0
14780,81.0,0,240,1.0,0.0
14781,69.0,240,240,1.0,0.0
14782,79.0,0,240,1.0,0.0
14783,67.0,240,240,1.0,0.0
14784,65.0,240,240,1.0,0.0
14785,77.0,0,240,1.0,0.0
14786,84.0,240,240,1.0,0.0
14787,72.0,0,240,1.0,0.0
14788,82.0,0,240,1.0,0.0
14789,70.0,240,240,1.0,0.0
14790,69.0,0,240,1.0,0.0
14791,81.0,240,240,1.0,0.0
14792,84.0,240,240,1.0,0.0
14793,72.0,0,240,1.0,0.0
14794,70.0,240,240,1.0,0.0
14795,82.0,0,240,1.0,0.0
14796,81.0,360,240,1.0,0.0
14797,69.0,0,240,1.0,0.0
14798,87.0,0,0,1.0,0.0
14799,75.0,720,0,1.0,0.0
14800,75.0,720,0,1.0,0.0
14801,87.0,0,0,1.0,0.0
14802,75.0,720,0,1.0,0.0
14803,87.0,0,0,1.0,0.0
14804,75.0,0,227,1.0,0.0
14805,87.0,373,227,1.0,0.0
14806,42.0,20,2160,5.0,0.0
14807,47.0,20,2160,4.0,0.0
14808,87.0,0,240,1.0,0.0
14809,54.0,13,2107,5.0,0.0
14810,51.0,0,2160,4.0,0.0
14811,59.0,0,2160,4.0,0.0
14812,75.0,240,240,1.0,0.0
14813,85.0,240,240,1.0,0.0
14814,83.0,240,240,1.0,0.0
14815,78.0,240,240,1.0,0.0
14816,90.0,240,240,1.0,0.0
14817,88.0,240,240,1.0,0.0
14818,87.0,240,240,1.0,0.0
14819,83.0,187,240,1.0,0.0
14820,95.0,240,240,1.0,0.0
14821,30.0,240,720,5.0,0.0
14822,42.0,0,720,5.0,0.0
14823,90.0,240,240,1.0,0.0
14824,88.0,240,240,1.0,0.0
14825,87.0,0,240,1.0,0.0
14826,63.0,0,2160,4.0,0.0
14827,59.0,233,2167,4.0,0.0
14828,66.0,0,2160,5.0,0.0
14829,54.0,0,2160,5.0,0.0
14830,99.0,240,240,1.0,0.0
14831,97.0,240,240,1.0,0.0
14832,95.0,240,240,1.0,0.0
14833,90.0,240,240,1.0,0.0
14834,102.0,240,240,1.0,0.0
14835,99.0,240,240,1.0,0.0
14836,95.0,240,240,1.0,0.0
14837,90.0,240,240,1.0,0.0
14838,102.0,7,240,1.0,0.0
14839,99.0,0,240,1.0,0.0
14840,40.0,240,240,5.0,0.0
14841,28.0,0,240,5.0,0.0
14842,95.0,240,240,1.0,0.0
14843,92.0,240,240,1.0,0.0
14844,104.0,240,240,1.0,0.0
14845,59.0,240,720,5.0,0.0
14846,71.0,0,720,5.0,0.0
14847,97.0,240,240,1.0,0.0
14848,95.0,0,240,1.0,0.0
14849,56.0,0,720,5.0,0.0
14850,92.0,240,240,1.0,0.0
14851,68.0,240,720,5.0,0.0
14852,85.0,240,240,1.0,0.0
14853,83.0,0,240,1.0,0.0
14854,92.0,240,240,1.0,0.0
14855,66.0,0,720,5.0,0.0
14856,54.0,0,720,5.0,0.0
14857,85.0,240,240,1.0,0.0
14858,83.0,240,240,1.0,0.0
14859,64.0,240,720,5.0,0.0
14860,80.0,240,240,1.0,0.0
14861,52.0,0,720,5.0,0.0
14862,73.0,240,240,1.0,0.0
14863,71.0,0,240,1.0,0.0
14864,80.0,240,240,1.0,0.0
14865,47.0,0,720,5.0,0.0
14866,59.0,240,720,5.0,0.0
14867,73.0,240,240,1.0,0.0
14868,71.0,0,240,1.0,0.0
14869,44.0,0,720,5.0,0.0
14870,56.0,240,720,5.0,0.0
14871,68.0,240,240,1.0,0.0
14872,61.0,240,240,1.0,0.0
14873,59.0,0,240,1.0,0.0
14874,68.0,240,240,1.0,0.0
14875,53.0,0,720,5.0,0.0
14876,61.0,240,240,1.0,0.0
14877,59.0,0,240,1.0,0.0
14878,29.0,0,720,5.0,0.0
14879,41.0,240,0,5.0,0.0
14880,56.0,240,240,1.0,0.0
14881,49.0,240,240,1.0,0.0
14882,47.0,240,240,1.0,0.0
14883,30.0,0,240,5.0,0.0
14884,42.0,960,240,5.0,0.0
14885,51.0,0,240,1.0,0.0
14886,54.0,0,240,1.0,0.0
14887,54.0,0,1440,5.0,0.0
14888,75.0,480,720,1.0,0.0
14889,63.0,0,1440,5.0,0.0
14890,71.0,240,240,2.0,0.0
14891,66.0,0,240,2.0,0.0
14892,78.0,0,720,1.0,0.0
14893,75.0,240,240,2.0,0.0
14894,71.0,480,240,2.0,0.0
14895,54.0,0,720,5.0,0.0
14896,87.0,0,720,1.0,0.0
14897,59.0,0,0,5.0,0.0
14898,63.0,0,720,5.0,0.0
14899,78.0,240,240,2.0,0.0
14900,75.0,0,240,2.0,0.0
14901,61.0,0,480,5.0,0.0
14902,58.0,240,480,5.0,0.0
14903,54.0,0,480,5.0,0.0
14904,64.0,0,480,5.0,0.0
14905,66.0,480,0,5.0,0.0
14906,85.0,480,720,1.0,0.0
14907,76.0,0,240,2.0,0.0
14908,73.0,0,240,2.0,0.0
14909,54.0,0,1185,5.0,0.0
14910,61.0,7,1185,5.0,0.0
14911,64.0,240,1200,5.0,0.0
14912,66.0,0,1192,5.0,0.0
14913,82.0,465,720,1.0,0.0
14914,58.0,8,1192,5.0,0.0
14915,73.0,240,240,2.0,0.0
14916,70.0,0,240,2.0,0.0
14917,78.0,480,720,1.0,0.0
14918,70.0,0,240,2.0,0.0
14919,66.0,0,240,2.0,0.0
14920,30.0,240,480,5.0,0.0
14921,42.0,0,480,5.0,0.0
14922,76.0,480,720,1.0,0.0
14923,70.0,0,240,2.0,0.0
14924,66.0,0,240,2.0,0.0
14925,75.0,0,720,1.0,0.0
14926,30.0,0,480,5.0,0.0
14927,42.0,0,480,5.0,0.0
14928,71.0,240,240,2.0,0.0
14929,66.0,480,240,2.0,0.0
14930,78.0,480,720,1.0,0.0
14931,66.0,0,1200,5.0,0.0
14932,59.0,0,1200,5.0,0.0
14933,63.0,0,1200,5.0,0.0
14934,54.0,240,1200,5.0,0.0
14935,75.0,240,240,2.0,0.0
14936,71.0,0,240,2.0,0.0
14937,83.0,0,720,1.0,0.0
14938,78.0,0,240,2.0,0.0
14939,75.0,480,240,2.0,0.0
14940,87.0,480,720,1.0,0.0
14941,59.0,0,720,5.0,0.0
14942,63.0,0,720,5.0,0.0
14943,78.0,240,240,2.0,0.0
14944,75.0,0,240,2.0,0.0
14945,54.0,0,0,5.0,0.0
14946,58.0,0,480,5.0,0.0
14947,66.0,0,0,5.0,0.0
14948,61.0,0,480,5.0,0.0
14949,85.0,480,720,1.0,0.0
14950,64.0,240,480,5.0,0.0
14951,76.0,0,240,2.0,0.0
14952,73.0,0,240,2.0,0.0
14953,66.0,0,1200,5.0,0.0
14954,64.0,0,1200,5.0,0.0
14955,58.0,0,1200,5.0,0.0
14956,82.0,480,720,1.0,0.0
14957,54.0,240,1200,5.0,0.0
14958,61.0,0,1200,5.0,0.0
14959,73.0,240,240,2.0,0.0
14960,70.0,0,240,2.0,0.0
14961,78.0,480,720,1.0,0.0
14962,70.0,0,240,2.0,0.0
14963,66.0,0,240,2.0,0.0
14964,42.0,0,480,5.0,0.0
14965,76.0,480,720,1.0,0.0
14966,30.0,0,480,5.0,0.0
14967,70.0,240,240,2.0,0.0
14968,66.0,0,240,2.0,0.0
14969,75.0,480,720,1.0,0.0
14970,51.0,0,720,5.0,0.0
14971,63.0,0,720,5.0,0.0
14972,71.0,240,240,2.0,0.0
14973,66.0,0,240,2.0,0.0
14974,78.0,0,720,1.0,0.0
14975,61.0,0,720,5.0,0.0
14976,49.0,480,720,5.0,0.0
14977,75.0,240,240,2.0,0.0
14978,71.0,0,240,2.0,0.0
14979,47.0,0,720,5.0,0.0
14980,59.0,0,720,5.0,0.0
14981,83.0,0,720,1.0,0.0
14982,78.0,240,240,2.0,0.0
14983,75.0,480,240,2.0,0.0
14984,30.0,0,635,5.0,0.0
14985,42.0,45,635,5.0,0.0
14986,87.0,0,480,1.0,0.0
14987,78.0,155,240,2.0,0.0
14988,75.0,0,155,2.0,0.0
14989,31.0,40,40,5.0,0.0
14990,43.0,720,40,5.0,0.0
14991,63.0,480,720,5.0,0.0
14992,51.0,0,720,5.0,0.0
14993,75.0,0,720,1.0,0.0
14994,49.0,480,720,5.0,0.0
14995,61.0,0,720,5.0,0.0
14996,71.0,240,240,2.0,0.0
14997,67.0,0,240,2.0,0.0
14998,79.0,0,720,1.0,0.0
14999,59.0,0,720,5.0,0.0
15000,47.0,400,720,5.0,0.0
15001,75.0,240,240,2.0,0.0
15002,71.0,0,240,2.0,0.0
15003,87.0,80,480,1.0,0.0
15004,30.0,40,640,5.0,0.0
15005,42.0,5,635,5.0,0.0
15006,78.0,155,240,2.0,0.0
15007,75.0,720,240,2.0,0.0
15008,32.0,40,40,5.0,0.0
15009,44.0,0,40,5.0,0.0
15010,63.0,0,720,5.0,0.0
15011,51.0,480,720,5.0,0.0
15012,49.0,0,720,5.0,0.0
15013,61.0,0,720,5.0,0.0
15014,75.0,0,720,1.0,0.0
15015,71.0,240,240,2.0,0.0
15016,68.0,480,240,2.0,0.0
15017,80.0,0,720,1.0,0.0
15018,47.0,0,720,5.0,0.0
15019,59.0,400,720,5.0,0.0
15020,75.0,240,240,2.0,0.0
15021,71.0,0,240,2.0,0.0
15022,87.0,80,480,1.0,0.0
15023,32.0,0,625,5.0,0.0
15024,44.0,55,625,5.0,0.0
15025,83.0,145,240,2.0,0.0
15026,75.0,720,240,2.0,0.0
15027,33.0,40,40,5.0,0.0
15028,45.0,0,40,5.0,0.0
15029,51.0,480,720,5.0,0.0
15030,63.0,0,720,5.0,0.0
15031,49.0,480,720,5.0,0.0
15032,61.0,0,720,5.0,0.0
15033,75.0,0,720,1.0,0.0
15034,72.0,240,240,2.0,0.0
15035,69.0,0,240,2.0,0.0
15036,60.0,0,720,5.0,0.0
15037,48.0,0,720,5.0,0.0
15038,81.0,480,720,1.0,0.0
15039,75.0,240,240,2.0,0.0
15040,72.0,0,240,2.0,0.0
15041,87.0,0,480,1.0,0.0
15042,44.0,240,720,5.0,0.0
15043,32.0,0,720,5.0,0.0
15044,84.0,240,240,2.0,0.0
15045,75.0,0,240,2.0,0.0
15046,75.0,720,2160,1.0,0.0
15047,34.0,240,240,5.0,0.0
15048,77.0,4,2132,2.0,0.0
15049,82.0,0,2116,2.0,0.0
15050,87.0,4,2116,1.0,0.0
15051,41.0,240,240,5.0,0.0
15052,46.0,240,240,5.0,0.0
15053,50.0,240,240,5.0,0.0
15054,53.0,240,240,5.0,0.0
15055,58.0,240,240,5.0,0.0
15056,62.0,472,240,5.0,0.0
15057,82.0,0,720,2.0,0.0
15058,86.0,240,720,1.0,0.0
15059,74.0,0,720,1.0,0.0
15060,77.0,0,720,2.0,0.0
15061,72.0,720,2160,1.0,0.0
15062,31.0,240,240,5.0,0.0
15063,74.0,10,2130,2.0,0.0
15064,79.0,5,2105,2.0,0.0
15065,84.0,0,2105,1.0,0.0
15066,43.0,240,240,3.0,0.0
15067,46.0,240,240,3.0,0.0
15068,50.0,240,240,3.0,0.0
15069,55.0,240,240,3.0,0.0
15070,58.0,240,240,3.0,0.0
15071,62.0,465,240,3.0,0.0
15072,74.0,0,720,2.0,0.0
15073,82.0,0,720,1.0,0.0
15074,70.0,0,720,1.0,0.0
15075,77.0,240,720,2.0,0.0
15076,68.0,240,1440,1.0,0.0
15077,29.0,240,240,5.0,0.0
15078,71.0,5,1410,2.0,0.0
15079,80.0,5,1395,1.0,0.0
15080,74.0,5,1385,2.0,0.0
15081,41.0,240,240,3.0,0.0
15082,47.0,240,240,3.0,0.0
15083,50.0,240,240,3.0,0.0
15084,53.0,225,240,3.0,0.0
15085,59.0,0,240,3.0,0.0
15086,79.0,0,720,1.0,0.0
15087,67.0,715,720,1.0,0.0
15088,62.0,480,240,3.0,0.0
15089,71.0,0,720,2.0,0.0
15090,74.0,0,0,2.0,0.0
15091,68.0,0,720,2.0,0.0
15092,77.0,5,715,1.0,0.0
15093,65.0,0,720,1.0,0.0
15094,35.0,240,240,5.0,0.0
15095,65.0,240,1440,1.0,0.0
15096,68.0,5,1415,2.0,0.0
15097,74.0,5,1390,2.0,0.0
15098,77.0,0,1390,1.0,0.0
15099,38.0,240,240,3.0,0.0
15100,44.0,240,240,3.0,0.0
15101,47.0,240,240,3.0,0.0
15102,50.0,230,240,3.0,0.0
15103,56.0,0,240,3.0,0.0
15104,76.0,670,720,2.0,0.0
15105,59.0,480,240,3.0,0.0
15106,65.0,0,720,2.0,0.0
15107,64.0,0,720,1.0,0.0
15108,68.0,0,720,2.0,0.0
15109,62.0,5,670,1.0,0.0
15110,65.0,0,650,2.0,0.0
15111,74.0,0,630,1.0,0.0
15112,68.0,275,635,2.0,0.0
15113,36.0,5,275,5.0,0.0
15114,41.0,5,250,5.0,0.0
15115,48.0,0,240,5.0,0.0
15116,45.0,0,240,5.0,0.0
15117,72.0,0,240,1.0,0.0
15118,60.0,0,240,1.0,0.0
15119,69.0,240,240,2.0,0.0
15120,67.0,240,240,1.0,0.0
15121,65.0,240,240,1.0,0.0
15122,60.0,240,240,1.0,0.0
15123,57.0,0,240,5.0,0.0
15124,72.0,240,240,1.0,0.0
15125,55.0,0,240,5.0,0.0
15126,53.0,240,240,5.0,0.0
15127,69.0,0,240,1.0,0.0
15128,48.0,240,240,5.0,0.0
15129,67.0,0,240,1.0,0.0
15130,65.0,0,240,1.0,0.0
15131,60.0,240,240,5.0,0.0
15132,77.0,0,240,1.0,0.0
15133,57.0,240,240,5.0,0.0
15134,55.0,0,240,5.0,0.0
15135,72.0,240,240,1.0,0.0
15136,53.0,240,240,5.0,0.0
15137,69.0,0,240,1.0,0.0
15138,81.0,240,240,1.0,0.0
15139,65.0,0,240,5.0,0.0
15140,79.0,0,240,1.0,0.0
15141,60.0,240,240,5.0,0.0
15142,77.0,0,240,1.0,0.0
15143,57.0,240,240,5.0,0.0
15144,72.0,240,240,1.0,0.0
15145,69.0,0,240,5.0,0.0
15146,84.0,240,240,1.0,0.0
15147,67.0,0,240,5.0,0.0
15148,81.0,0,240,1.0,0.0
15149,65.0,240,240,5.0,0.0
15150,60.0,0,240,5.0,0.0
15151,79.0,240,240,1.0,0.0
15152,72.0,0,240,5.0,0.0
15153,77.0,240,240,1.0,0.0
15154,89.0,240,240,1.0,0.0
15155,69.0,0,240,5.0,0.0
15156,67.0,0,240,5.0,0.0
15157,84.0,240,240,1.0,0.0
15158,65.0,240,240,5.0,0.0
15159,81.0,0,240,1.0,0.0
15160,89.0,0,240,1.0,0.0
15161,60.0,202,240,5.0,0.0
15162,93.0,240,240,1.0,0.0
15163,57.0,38,202,5.0,0.0
15164,36.0,4,283,5.0,0.0
15165,41.0,233,267,5.0,0.0
15166,48.0,0,240,5.0,0.0
15167,45.0,0,240,5.0,0.0
15168,96.0,3,240,1.0,0.0
15169,84.0,0,240,1.0,0.0
15170,93.0,240,240,1.0,0.0
15171,89.0,240,240,1.0,0.0
15172,84.0,240,240,1.0,0.0
15173,81.0,240,240,1.0,0.0
15174,77.0,160,240,1.0,0.0
15175,72.0,160,160,1.0,0.0
15176,77.0,160,160,1.0,0.0
15177,81.0,160,160,1.0,0.0
15178,84.0,160,160,1.0,0.0
15179,89.0,160,160,1.0,0.0
15180,93.0,240,160,1.0,0.0
15181,96.0,480,240,1.0,0.0
15182,48.0,0,280,5.0,0.0
15183,52.0,237,263,5.0,0.0
15184,100.0,0,240,1.0,0.0
15185,88.0,3,240,1.0,0.0
15186,55.0,0,240,5.0,0.0
15187,58.0,0,240,5.0,0.0
15188,60.0,0,240,5.0,0.0
15189,96.0,240,240,1.0,0.0
15190,94.0,240,240,1.0,0.0
15191,88.0,240,240,1.0,0.0
15192,84.0,240,240,1.0,0.0
15193,82.0,160,240,1.0,0.0
15194,76.0,160,160,1.0,0.0
15195,82.0,160,160,1.0,0.0
15196,84.0,160,160,1.0,0.0
15197,88.0,160,160,1.0,0.0
15198,94.0,160,160,1.0,0.0
15199,96.0,240,160,1.0,0.0
15200,100.0,440,240,1.0,0.0
15201,77.0,20,240,1.0,0.0
15202,41.0,633,283,5.0,0.0
15203,48.0,0,260,4.0,0.0
15204,81.0,20,240,2.0,0.0
15205,57.0,3,240,5.0,0.0
15206,84.0,0,240,2.0,0.0
15207,89.0,0,240,1.0,0.0
15208,53.0,0,240,4.0,0.0
15209,81.0,0,396,2.0,0.0
15210,87.0,0,396,2.0,0.0
15211,91.0,0,396,1.0,0.0
15212,79.0,240,396,1.0,0.0
15213,63.0,0,396,4.0,0.0
15214,57.0,0,396,4.0,0.0
15215,53.0,0,396,5.0,0.0
15216,67.0,0,396,5.0,0.0
15217,87.0,0,156,1.0,0.0
15218,60.0,0,156,4.0,0.0
15219,63.0,0,156,5.0,0.0
15220,53.0,240,156,5.0,0.0
15221,84.0,0,156,2.0,0.0
15222,75.0,0,156,1.0,0.0
15223,58.0,240,156,4.0,0.0
15224,82.0,0,156,2.0,0.0
15225,86.0,0,156,1.0,0.0
15226,74.0,0,156,1.0,0.0
15227,53.0,0,156,5.0,0.0
15228,62.0,0,156,5.0,0.0
15229,57.0,0,156,4.0,0.0
15230,84.0,0,156,1.0,0.0
15231,72.0,0,156,1.0,0.0
15232,53.0,0,156,5.0,0.0
15233,60.0,0,156,5.0,0.0
15234,81.0,282,156,2.0,0.0
15235,86.0,0,78,1.0,0.0
15236,74.0,0,78,1.0,0.0
15237,58.0,198,78,4.0,0.0
15238,82.0,0,78,2.0,0.0
15239,62.0,0,78,5.0,0.0
15240,53.0,0,78,5.0,0.0
15241,60.0,832,240,4.0,0.0
15242,84.0,0,156,2.0,0.0
15243,63.0,84,156,5.0,0.0
15244,53.0,0,156,5.0,0.0
15245,87.0,0,156,1.0,0.0
15246,75.0,0,156,1.0,0.0
15247,67.0,29,367,5.0,0.0
15248,91.0,0,396,1.0,0.0
15249,53.0,0,367,5.0,0.0
15250,57.0,7,360,4.0,0.0
15251,81.0,0,396,2.0,0.0
15252,87.0,0,396,2.0,0.0
15253,79.0,219,396,1.0,0.0
15254,63.0,8,352,4.0,0.0
15255,60.0,0,156,4.0,0.0
15256,84.0,0,156,2.0,0.0
15257,53.0,0,156,5.0,0.0
15258,63.0,21,135,5.0,0.0
15259,87.0,0,156,1.0,0.0
15260,75.0,240,156,1.0,0.0
15261,62.0,0,156,5.0,0.0
15262,58.0,240,156,4.0,0.0
15263,53.0,0,156,5.0,0.0
15264,82.0,0,156,2.0,0.0
15265,74.0,0,156,1.0,0.0
15266,86.0,0,156,1.0,0.0
15267,72.0,0,156,1.0,0.0
15268,81.0,0,156,2.0,0.0
15269,84.0,0,156,1.0,0.0
15270,57.0,0,156,4.0,0.0
15271,60.0,0,156,5.0,0.0
15272,53.0,282,156,5.0,0.0
15273,53.0,0,78,5.0,0.0
15274,62.0,0,78,5.0,0.0
15275,82.0,0,78,2.0,0.0
15276,74.0,0,78,1.0,0.0
15277,86.0,0,78,1.0,0.0
15278,58.0,198,78,4.0,0.0
15279,75.0,0,156,1.0,0.0
15280,87.0,0,156,1.0,0.0
15281,84.0,0,156,2.0,0.0
15282,63.0,0,156,5.0,0.0
15283,53.0,0,156,5.0,0.0
15284,60.0,804,156,4.0,0.0
15285,53.0,0,520,5.0,0.0
15286,57.0,0,500,4.0,0.0
15287,81.0,0,480,2.0,0.0
15288,91.0,0,480,1.0,0.0
15289,65.0,0,480,5.0,0.0
15290,79.0,0,480,1.0,0.0
15291,87.0,0,480,2.0,0.0
15292,67.0,715,480,4.0,0.0
15293,51.0,5,515,5.0,0.0
15294,58.0,0,500,4.0,0.0
15295,79.0,0,480,1.0,0.0
15296,91.0,0,480,1.0,0.0
15297,82.0,0,480,2.0,0.0
15298,87.0,0,480,2.0,0.0
15299,67.0,0,480,4.0,0.0
15300,63.0,680,480,5.0,0.0
15301,49.0,20,480,5.0,0.0
15302,55.0,20,480,4.0,0.0
15303,89.0,0,480,2.0,0.0
15304,58.0,0,480,4.0,0.0
15305,65.0,680,480,4.0,0.0
15306,79.0,0,480,1.0,0.0
15307,91.0,0,480,1.0,0.0
15308,61.0,0,480,5.0,0.0
15309,82.0,0,480,2.0,0.0
15310,67.0,0,480,4.0,0.0
15311,48.0,20,480,5.0,0.0
15312,55.0,20,480,4.0,0.0
15313,91.0,1440,480,1.0,0.0
15314,79.0,0,480,1.0,0.0
15315,58.0,0,480,4.0,0.0
15316,67.0,0,480,4.0,0.0
15317,60.0,0,480,5.0,0.0
15318,64.0,0,480,4.0,0.0
15319,82.0,0,480,2.0,0.0
15320,88.0,0,480,2.0,0.0
15321,36.0,0,1440,5.0,0.0
15322,48.0,0,1440,5.0,0.0
15323,60.0,0,720,4.0,0.0
15324,64.0,0,720,4.0,0.0
15325,68.0,0,720,5.0,0.0
15326,58.0,0,720,5.0,0.0
15327,80.0,0,720,1.0,0.0
15328,82.0,0,720,2.0,0.0
15329,88.0,1345,720,2.0,0.0
15330,92.0,0,720,1.0,0.0
15331,41.0,3,1350,5.0,0.0
15332,29.0,0,1357,5.0,0.0
15333,53.0,0,665,5.0,0.0
15334,57.0,0,645,4.0,0.0
15335,93.0,0,633,1.0,0.0
15336,81.0,799,641,1.0,0.0
15337,89.0,4,637,2.0,0.0
15338,87.0,4,633,2.0,0.0
15339,84.0,0,641,2.0,0.0
15340,60.0,5,625,4.0,0.0
15341,69.0,0,630,5.0,0.0
15342,34.0,720,800,5.0,0.0
15343,46.0,0,760,5.0,0.0
15344,62.0,0,720,5.0,0.0
15345,94.0,0,720,2.0,0.0
15346,89.0,0,720,1.0,0.0
15347,98.0,0,720,2.0,0.0
15348,65.0,0,720,4.0,0.0
15349,70.0,0,720,4.0,0.0
15350,74.0,0,720,5.0,0.0
15351,101.0,0,720,1.0,0.0
15352,93.0,0,720,2.0,0.0
15353,89.0,0,720,2.0,0.0
15354,86.0,720,720,1.0,0.0
15355,38.0,0,720,5.0,0.0
15356,53.0,0,720,5.0,0.0
15357,98.0,0,720,1.0,0.0
15358,45.0,0,720,4.0,0.0
15359,55.0,0,720,5.0,0.0
15360,82.0,0,720,1.0,0.0
15361,86.0,0,720,2.0,0.0
15362,91.0,0,720,2.0,0.0
15363,43.0,1,720,5.0,0.0
15364,46.0,0,720,5.0,0.0
15365,94.0,0,720,1.0,0.0
15366,84.0,0,637,2.0,0.0
15367,88.0,7,630,2.0,0.0
15368,81.0,0,630,1.0,0.0
15369,52.0,0,630,4.0,0.0
15370,93.0,0,637,1.0,0.0
15371,57.0,629,1,5.0,0.0
15372,60.0,0,630,4.0,0.0
15373,45.0,1418,637,5.0,0.0
15374,34.0,11,1415,5.0,0.0
15375,46.0,0,1397,5.0,0.0
15376,55.0,795,1365,5.0,0.0
15377,86.0,0,1357,2.0,0.0
15378,79.0,0,1357,1.0,0.0
15379,91.0,4,1346,1.0,0.0
15380,89.0,4,1357,2.0,0.0
15381,58.0,4,1361,4.0,0.0
15382,62.0,3,1350,4.0,0.0
15383,65.0,4,1353,4.0,0.0
15384,36.0,15,1430,5.0,0.0
15385,48.0,10,1405,5.0,0.0
15386,55.0,5,1375,5.0,0.0
15387,60.0,50,1390,4.0,0.0
15388,82.0,5,1385,2.0,0.0
15389,79.0,630,720,1.0,0.0
15390,58.0,5,1380,4.0,0.0
15391,64.0,0,1390,4.0,0.0
15392,88.0,0,1375,2.0,0.0
15393,91.0,0,720,1.0,0.0
15394,81.0,0,665,1.0,0.0
15395,93.0,1390,720,1.0,0.0
15396,41.0,0,1440,5.0,0.0
15397,77.0,15,1400,1.0,0.0
15398,89.0,0,1395,1.0,0.0
15399,57.0,0,1395,4.0,0.0
15400,65.0,0,1395,4.0,0.0
15401,48.0,1420,1415,4.0,0.0
15402,84.0,0,1400,2.0,0.0
15403,53.0,5,1390,5.0,0.0
15404,81.0,5,1395,2.0,0.0
15405,46.0,10,1440,5.0,0.0
15406,53.0,1405,1425,4.0,0.0
15407,77.0,0,1395,1.0,0.0
15408,89.0,0,1395,1.0,0.0
15409,82.0,0,1395,2.0,0.0
15410,86.0,5,1395,2.0,0.0
15411,58.0,0,1400,5.0,0.0
15412,62.0,15,1390,4.0,0.0
15413,41.0,10,1440,5.0,0.0
15414,48.0,25,1415,4.0,0.0
15415,53.0,5,1395,5.0,0.0
15416,89.0,0,1440,1.0,0.0
15417,77.0,5,1390,1.0,0.0
15418,84.0,1385,1440,2.0,0.0
15419,81.0,0,1395,2.0,0.0
15420,60.0,5,1390,4.0,0.0
15421,34.0,40,1440,5.0,0.0
15422,41.0,0,1415,4.0,0.0
15423,50.0,5,1385,4.0,0.0
15424,77.0,0,1395,1.0,0.0
15425,70.0,1920,1440,2.0,0.0
15426,46.0,0,1395,5.0,0.0
15427,74.0,5,1395,2.0,0.0
15428,65.0,5,1390,1.0,0.0
15429,29.0,0,1960,5.0,0.0
15430,36.0,0,1940,4.0,0.0
15431,48.0,0,1920,4.0,0.0
15432,41.0,0,1920,5.0,0.0
15433,77.0,0,1920,1.0,0.0
15434,65.0,0,1920,1.0,0.0
15435,72.0,0,1920,2.0,0.0
15436,69.0,0,1920,2.0,0.0
