,note,step,duration,channel,velocity
0,58.0,0,40,1.0,0.0
1,63.0,0,40,1.0,0.0
2,66.0,40,40,1.0,0.0
3,63.0,0,40,1.0,0.0
4,66.0,40,40,1.0,0.0
5,58.0,0,40,1.0,0.0
6,66.0,40,40,1.0,0.0
7,63.0,0,40,1.0,0.0
8,58.0,0,40,1.0,0.0
9,63.0,0,40,1.0,0.0
10,58.0,0,40,1.0,0.0
11,66.0,40,40,1.0,0.0
12,63.0,0,40,1.0,0.0
13,66.0,40,40,1.0,0.0
14,58.0,0,40,1.0,0.0
15,66.0,40,40,1.0,0.0
16,63.0,0,40,1.0,0.0
17,58.0,0,40,1.0,0.0
18,58.0,0,40,1.0,0.0
19,66.0,0,40,1.0,0.0
20,38.0,20,60,2.0,0.0
21,63.0,20,40,1.0,0.0
22,58.0,0,40,1.0,0.0
23,66.0,0,40,1.0,0.0
24,63.0,40,40,1.0,0.0
25,39.0,0,60,2.0,0.0
26,63.0,0,40,1.0,0.0
27,58.0,40,40,1.0,0.0
28,66.0,0,40,1.0,0.0
29,66.0,0,40,1.0,0.0
30,58.0,20,40,1.0,0.0
31,63.0,0,40,1.0,0.0
32,65.0,20,60,0.0,0.0
33,42.0,40,120,2.0,0.0
34,58.0,40,40,1.0,0.0
35,63.0,0,40,1.0,0.0
36,66.0,0,40,1.0,0.0
37,66.0,0,60,0.0,0.0
38,66.0,0,40,1.0,0.0
39,63.0,0,40,1.0,0.0
40,58.0,0,40,1.0,0.0
41,70.0,0,120,0.0,0.0
42,66.0,20,40,1.0,0.0
43,63.0,0,40,1.0,0.0
44,58.0,0,40,1.0,0.0
45,38.0,20,60,2.0,0.0
46,58.0,40,40,1.0,0.0
47,66.0,0,40,1.0,0.0
48,63.0,0,40,1.0,0.0
49,39.0,0,60,2.0,0.0
50,63.0,0,40,1.0,0.0
51,58.0,0,40,1.0,0.0
52,66.0,40,40,1.0,0.0
53,65.0,20,60,0.0,0.0
54,42.0,40,120,2.0,0.0
55,58.0,20,40,1.0,0.0
56,66.0,0,40,1.0,0.0
57,63.0,0,40,1.0,0.0
58,63.0,0,40,1.0,0.0
59,58.0,0,40,1.0,0.0
60,66.0,40,40,1.0,0.0
61,66.0,0,60,0.0,0.0
62,63.0,0,40,1.0,0.0
63,66.0,0,40,1.0,0.0
64,58.0,0,40,1.0,0.0
65,63.0,0,40,1.0,0.0
66,58.0,20,40,1.0,0.0
67,66.0,0,40,1.0,0.0
68,38.0,20,60,2.0,0.0
69,70.0,0,120,0.0,0.0
70,58.0,0,40,1.0,0.0
71,66.0,40,40,1.0,0.0
72,63.0,0,40,1.0,0.0
73,39.0,0,60,2.0,0.0
74,66.0,0,40,1.0,0.0
75,63.0,40,40,1.0,0.0
76,58.0,0,40,1.0,0.0
77,69.0,20,60,0.0,0.0
78,42.0,0,120,2.0,0.0
79,63.0,20,40,1.0,0.0
80,66.0,0,40,1.0,0.0
81,58.0,0,40,1.0,0.0
82,58.0,0,40,1.0,0.0
83,63.0,40,40,1.0,0.0
84,66.0,0,40,1.0,0.0
85,70.0,0,60,0.0,0.0
86,63.0,40,40,1.0,0.0
87,58.0,0,40,1.0,0.0
88,66.0,0,40,1.0,0.0
89,33.0,20,60,2.0,0.0
90,66.0,0,40,1.0,0.0
91,58.0,0,40,1.0,0.0
92,78.0,0,120,0.0,0.0
93,63.0,20,40,1.0,0.0
94,58.0,40,40,1.0,0.0
95,66.0,0,40,1.0,0.0
96,63.0,0,40,1.0,0.0
97,34.0,0,60,2.0,0.0
98,66.0,0,40,1.0,0.0
99,58.0,40,40,1.0,0.0
100,63.0,0,40,1.0,0.0
101,77.0,20,60,0.0,0.0
102,58.0,20,40,1.0,0.0
103,66.0,0,40,1.0,0.0
104,63.0,0,40,1.0,0.0
105,42.0,0,120,2.0,0.0
106,63.0,0,40,1.0,0.0
107,58.0,40,40,1.0,0.0
108,66.0,0,40,1.0,0.0
109,75.0,40,60,0.0,0.0
110,66.0,0,40,1.0,0.0
111,63.0,0,40,1.0,0.0
112,58.0,0,40,1.0,0.0
113,71.0,40,120,0.0,0.0
114,31.0,20,60,2.0,0.0
115,63.0,20,40,1.0,0.0
116,65.0,0,40,1.0,0.0
117,59.0,0,40,1.0,0.0
118,59.0,0,40,1.0,0.0
119,65.0,0,40,1.0,0.0
120,63.0,40,40,1.0,0.0
121,32.0,0,60,2.0,0.0
122,59.0,0,40,1.0,0.0
123,65.0,0,40,1.0,0.0
124,63.0,0,40,1.0,0.0
125,44.0,0,120,2.0,0.0
126,70.0,20,60,0.0,0.0
127,65.0,20,40,1.0,0.0
128,63.0,0,40,1.0,0.0
129,59.0,0,40,1.0,0.0
130,59.0,0,40,1.0,0.0
131,65.0,40,40,1.0,0.0
132,63.0,0,40,1.0,0.0
133,71.0,0,60,0.0,0.0
134,63.0,40,40,1.0,0.0
135,59.0,0,40,1.0,0.0
136,65.0,0,40,1.0,0.0
137,63.0,20,40,1.0,0.0
138,65.0,0,40,1.0,0.0
139,59.0,0,40,1.0,0.0
140,75.0,0,120,0.0,0.0
141,31.0,20,60,2.0,0.0
142,59.0,0,40,1.0,0.0
143,63.0,0,40,1.0,0.0
144,65.0,40,40,1.0,0.0
145,32.0,0,60,2.0,0.0
146,65.0,0,40,1.0,0.0
147,63.0,0,40,1.0,0.0
148,59.0,40,40,1.0,0.0
149,59.0,20,40,1.0,0.0
150,65.0,0,40,1.0,0.0
151,63.0,0,40,1.0,0.0
152,44.0,0,120,2.0,0.0
153,73.0,20,60,0.0,0.0
154,59.0,0,40,1.0,0.0
155,63.0,0,40,1.0,0.0
156,65.0,40,40,1.0,0.0
157,71.0,0,60,0.0,0.0
158,63.0,0,40,1.0,0.0
159,59.0,0,40,1.0,0.0
160,65.0,40,40,1.0,0.0
161,68.0,0,120,0.0,0.0
162,32.0,20,60,2.0,0.0
163,60.0,0,40,1.0,0.0
164,63.0,20,40,1.0,0.0
165,60.0,40,40,1.0,0.0
166,63.0,0,40,1.0,0.0
167,33.0,0,60,2.0,0.0
168,60.0,0,40,1.0,0.0
169,63.0,40,40,1.0,0.0
170,66.0,40,120,0.0,0.0
171,63.0,40,40,1.0,0.0
172,60.0,0,40,1.0,0.0
173,45.0,0,120,2.0,0.0
174,60.0,40,40,1.0,0.0
175,63.0,0,40,1.0,0.0
176,63.0,0,40,1.0,0.0
177,60.0,0,40,1.0,0.0
178,33.0,20,60,2.0,0.0
179,62.0,0,40,1.0,0.0
180,65.0,20,40,1.0,0.0
181,65.0,0,240,0.0,0.0
182,65.0,0,40,1.0,0.0
183,62.0,40,40,1.0,0.0
184,34.0,0,60,2.0,0.0
185,65.0,40,40,1.0,0.0
186,62.0,0,40,1.0,0.0
187,65.0,0,40,1.0,0.0
188,70.0,0,40,1.0,0.0
189,62.0,40,40,1.0,0.0
190,46.0,0,120,2.0,0.0
191,62.0,40,40,1.0,0.0
192,70.0,0,40,1.0,0.0
193,65.0,0,40,1.0,0.0
194,70.0,40,40,1.0,0.0
195,62.0,0,40,1.0,0.0
196,65.0,0,40,1.0,0.0
197,65.0,0,40,1.0,0.0
198,74.0,0,40,1.0,0.0
199,70.0,40,40,1.0,0.0
200,65.0,0,40,1.0,0.0
201,74.0,0,40,1.0,0.0
202,70.0,40,40,1.0,0.0
203,74.0,0,40,1.0,0.0
204,65.0,40,40,1.0,0.0
205,70.0,0,40,1.0,0.0
206,74.0,40,40,1.0,0.0
207,70.0,0,40,1.0,0.0
208,77.0,0,40,1.0,0.0
209,74.0,0,40,1.0,0.0
210,70.0,0,40,1.0,0.0
211,77.0,40,40,1.0,0.0
212,70.0,0,60,0.0,0.0
213,74.0,0,40,1.0,0.0
214,77.0,0,40,1.0,0.0
215,70.0,40,40,1.0,0.0
216,71.0,40,120,0.0,0.0
217,80.0,40,40,1.0,0.0
218,75.0,0,40,1.0,0.0
219,71.0,0,180,2.0,0.0
220,80.0,0,40,1.0,0.0
221,75.0,40,40,1.0,0.0
222,75.0,0,40,1.0,0.0
223,80.0,0,40,1.0,0.0
224,78.0,0,40,1.0,0.0
225,75.0,20,40,1.0,0.0
226,71.0,20,60,0.0,0.0
227,78.0,0,40,1.0,0.0
228,75.0,40,40,1.0,0.0
229,70.0,0,60,2.0,0.0
230,70.0,0,60,0.0,0.0
231,75.0,40,40,1.0,0.0
232,78.0,0,40,1.0,0.0
233,75.0,40,40,1.0,0.0
234,77.0,0,40,1.0,0.0
235,68.0,40,120,2.0,0.0
236,68.0,0,120,0.0,0.0
237,75.0,0,40,1.0,0.0
238,77.0,40,40,1.0,0.0
239,77.0,0,40,1.0,0.0
240,75.0,0,40,1.0,0.0
241,71.0,20,60,2.0,0.0
242,80.0,20,40,1.0,0.0
243,77.0,0,40,1.0,0.0
244,71.0,0,60,0.0,0.0
245,80.0,0,40,1.0,0.0
246,77.0,40,40,1.0,0.0
247,75.0,0,60,2.0,0.0
248,75.0,0,60,0.0,0.0
249,77.0,40,40,1.0,0.0
250,80.0,0,40,1.0,0.0
251,77.0,40,40,1.0,0.0
252,80.0,0,40,1.0,0.0
253,73.0,0,180,2.0,0.0
254,73.0,20,180,0.0,0.0
255,77.0,40,40,1.0,0.0
256,80.0,0,40,1.0,0.0
257,77.0,0,40,1.0,0.0
258,80.0,40,40,1.0,0.0
259,80.0,0,40,1.0,0.0
260,77.0,20,40,1.0,0.0
261,80.0,0,40,1.0,0.0
262,77.0,40,40,1.0,0.0
263,71.0,40,60,0.0,0.0
264,71.0,0,60,2.0,0.0
265,80.0,0,40,1.0,0.0
266,77.0,0,40,1.0,0.0
267,70.0,40,120,0.0,0.0
268,70.0,0,120,2.0,0.0
269,73.0,40,40,1.0,0.0
270,78.0,0,40,1.0,0.0
271,82.0,0,40,1.0,0.0
272,82.0,0,40,1.0,0.0
273,73.0,0,40,1.0,0.0
274,78.0,40,40,1.0,0.0
275,78.0,0,40,1.0,0.0
276,82.0,0,40,1.0,0.0
277,73.0,0,40,1.0,0.0
278,73.0,0,120,2.0,0.0
279,82.0,20,40,1.0,0.0
280,78.0,0,40,1.0,0.0
281,73.0,20,60,0.0,0.0
282,82.0,0,40,1.0,0.0
283,78.0,40,40,1.0,0.0
284,73.0,40,60,0.0,0.0
285,78.0,0,40,1.0,0.0
286,82.0,0,40,1.0,0.0
287,78.0,0,360,0.0,0.0
288,66.0,0,240,2.0,0.0
289,78.0,40,40,1.0,0.0
290,85.0,0,40,1.0,0.0
291,82.0,0,40,1.0,0.0
292,76.0,0,120,2.0,0.0
293,85.0,0,40,1.0,0.0
294,78.0,0,40,1.0,0.0
295,82.0,40,40,1.0,0.0
296,78.0,40,40,1.0,0.0
297,82.0,0,40,1.0,0.0
298,85.0,0,40,1.0,0.0
299,75.0,0,120,2.0,0.0
300,81.0,40,40,1.0,0.0
301,78.0,0,40,1.0,0.0
302,84.0,0,40,1.0,0.0
303,78.0,40,40,1.0,0.0
304,81.0,0,40,1.0,0.0
305,84.0,0,40,1.0,0.0
306,81.0,40,40,1.0,0.0
307,84.0,0,40,1.0,0.0
308,78.0,0,40,1.0,0.0
309,66.0,0,240,2.0,0.0
310,76.0,40,120,2.0,0.0
311,85.0,40,40,1.0,0.0
312,78.0,0,40,1.0,0.0
313,82.0,0,40,1.0,0.0
314,85.0,0,40,1.0,0.0
315,82.0,0,40,1.0,0.0
316,78.0,40,40,1.0,0.0
317,78.0,0,40,1.0,0.0
318,82.0,0,40,1.0,0.0
319,85.0,0,40,1.0,0.0
320,84.0,0,40,1.0,0.0
321,75.0,0,120,2.0,0.0
322,72.0,0,120,0.0,0.0
323,81.0,0,40,1.0,0.0
324,78.0,40,40,1.0,0.0
325,84.0,0,40,1.0,0.0
326,78.0,0,40,1.0,0.0
327,81.0,40,40,1.0,0.0
328,81.0,0,40,1.0,0.0
329,84.0,0,40,1.0,0.0
330,78.0,40,40,1.0,0.0
331,73.0,0,240,0.0,0.0
332,78.0,40,40,1.0,0.0
333,85.0,0,40,1.0,0.0
334,82.0,0,40,1.0,0.0
335,66.0,40,360,2.0,0.0
336,76.0,0,120,2.0,0.0
337,78.0,0,40,1.0,0.0
338,82.0,0,40,1.0,0.0
339,85.0,40,40,1.0,0.0
340,82.0,0,40,1.0,0.0
341,85.0,40,40,1.0,0.0
342,78.0,0,40,1.0,0.0
343,78.0,40,40,1.0,0.0
344,73.0,0,120,2.0,0.0
345,82.0,0,40,1.0,0.0
346,85.0,0,40,1.0,0.0
347,78.0,0,40,1.0,0.0
348,85.0,40,40,1.0,0.0
349,82.0,0,40,1.0,0.0
350,85.0,40,40,1.0,0.0
351,82.0,0,40,1.0,0.0
352,78.0,0,40,1.0,0.0
353,74.0,20,180,0.0,0.0
354,70.0,0,120,2.0,0.0
355,82.0,0,40,1.0,0.0
356,76.0,0,40,1.0,0.0
357,86.0,40,40,1.0,0.0
358,78.0,0,40,1.0,0.0
359,78.0,40,40,1.0,0.0
360,82.0,0,40,1.0,0.0
361,76.0,0,40,1.0,0.0
362,86.0,0,40,1.0,0.0
363,78.0,0,40,1.0,0.0
364,76.0,0,40,1.0,0.0
365,82.0,0,40,1.0,0.0
366,86.0,0,40,1.0,0.0
367,66.0,0,120,2.0,0.0
368,86.0,0,40,1.0,0.0
369,76.0,0,40,1.0,0.0
370,78.0,0,40,1.0,0.0
371,82.0,20,40,1.0,0.0
372,78.0,0,40,1.0,0.0
373,82.0,0,40,1.0,0.0
374,76.0,40,40,1.0,0.0
375,86.0,0,40,1.0,0.0
376,74.0,0,60,0.0,0.0
377,82.0,0,40,1.0,0.0
378,76.0,0,40,1.0,0.0
379,86.0,0,40,1.0,0.0
380,78.0,40,40,1.0,0.0
381,87.0,40,40,1.0,0.0
382,83.0,0,40,1.0,0.0
383,66.0,0,360,2.0,0.0
384,59.0,0,360,2.0,0.0
385,75.0,0,40,1.0,0.0
386,75.0,40,360,0.0,0.0
387,78.0,0,40,1.0,0.0
388,75.0,0,40,1.0,0.0
389,87.0,0,40,1.0,0.0
390,78.0,40,40,1.0,0.0
391,83.0,0,40,1.0,0.0
392,87.0,0,40,1.0,0.0
393,83.0,0,40,1.0,0.0
394,78.0,40,40,1.0,0.0
395,75.0,0,40,1.0,0.0
396,83.0,40,40,1.0,0.0
397,75.0,0,40,1.0,0.0
398,78.0,0,40,1.0,0.0
399,78.0,0,40,1.0,0.0
400,83.0,40,40,1.0,0.0
401,75.0,0,40,1.0,0.0
402,83.0,40,40,1.0,0.0
403,78.0,0,40,1.0,0.0
404,75.0,0,40,1.0,0.0
405,78.0,40,40,1.0,0.0
406,75.0,0,40,1.0,0.0
407,71.0,0,40,1.0,0.0
408,71.0,40,40,1.0,0.0
409,75.0,0,40,1.0,0.0
410,78.0,0,40,1.0,0.0
411,71.0,0,40,1.0,0.0
412,78.0,0,40,1.0,0.0
413,75.0,0,40,1.0,0.0
414,75.0,0,40,1.0,0.0
415,71.0,40,40,1.0,0.0
416,66.0,0,40,1.0,0.0
417,66.0,40,40,1.0,0.0
418,75.0,0,40,1.0,0.0
419,71.0,0,40,1.0,0.0
420,66.0,0,40,1.0,0.0
421,75.0,0,40,1.0,0.0
422,71.0,40,40,1.0,0.0
423,71.0,40,40,1.0,0.0
424,66.0,0,40,1.0,0.0
425,63.0,0,40,1.0,0.0
426,71.0,40,40,1.0,0.0
427,63.0,0,40,1.0,0.0
428,66.0,0,40,1.0,0.0
429,63.0,0,40,1.0,0.0
430,66.0,0,40,1.0,0.0
431,71.0,40,40,1.0,0.0
432,63.0,0,40,1.0,0.0
433,59.0,0,40,1.0,0.0
434,66.0,40,40,1.0,0.0
435,63.0,0,40,1.0,0.0
436,59.0,40,40,1.0,0.0
437,66.0,0,40,1.0,0.0
438,59.0,40,40,1.0,0.0
439,66.0,0,40,1.0,0.0
440,63.0,0,40,1.0,0.0
441,66.0,0,40,1.0,0.0
442,58.0,20,40,1.0,0.0
443,63.0,0,40,1.0,0.0
444,26.0,20,60,2.0,0.0
445,58.0,40,40,1.0,0.0
446,66.0,0,40,1.0,0.0
447,63.0,0,40,1.0,0.0
448,27.0,0,60,2.0,0.0
449,58.0,0,40,1.0,0.0
450,66.0,0,40,1.0,0.0
451,63.0,40,40,1.0,0.0
452,63.0,0,40,1.0,0.0
453,65.0,20,60,0.0,0.0
454,58.0,0,40,1.0,0.0
455,66.0,20,40,1.0,0.0
456,30.0,0,120,2.0,0.0
457,66.0,40,40,1.0,0.0
458,63.0,0,40,1.0,0.0
459,58.0,0,40,1.0,0.0
460,66.0,40,60,0.0,0.0
461,58.0,0,40,1.0,0.0
462,66.0,0,40,1.0,0.0
463,63.0,0,40,1.0,0.0
464,26.0,20,60,2.0,0.0
465,66.0,20,40,1.0,0.0
466,63.0,0,40,1.0,0.0
467,58.0,0,40,1.0,0.0
468,70.0,0,120,0.0,0.0
469,66.0,40,40,1.0,0.0
470,63.0,0,40,1.0,0.0
471,58.0,0,40,1.0,0.0
472,27.0,0,60,2.0,0.0
473,58.0,0,40,1.0,0.0
474,63.0,40,40,1.0,0.0
475,66.0,0,40,1.0,0.0
476,63.0,20,40,1.0,0.0
477,66.0,0,40,1.0,0.0
478,58.0,0,40,1.0,0.0
479,65.0,20,60,0.0,0.0
480,30.0,0,120,2.0,0.0
481,66.0,40,40,1.0,0.0
482,58.0,0,40,1.0,0.0
483,63.0,0,40,1.0,0.0
484,66.0,0,60,0.0,0.0
485,66.0,0,40,1.0,0.0
486,63.0,0,40,1.0,0.0
487,58.0,40,40,1.0,0.0
488,70.0,40,120,0.0,0.0
489,26.0,20,60,2.0,0.0
490,66.0,0,40,1.0,0.0
491,58.0,0,40,1.0,0.0
492,63.0,20,40,1.0,0.0
493,66.0,0,40,1.0,0.0
494,63.0,40,40,1.0,0.0
495,58.0,0,40,1.0,0.0
496,27.0,0,60,2.0,0.0
497,58.0,0,40,1.0,0.0
498,66.0,0,40,1.0,0.0
499,63.0,0,40,1.0,0.0
500,69.0,20,60,0.0,0.0
501,63.0,0,40,1.0,0.0
502,58.0,20,40,1.0,0.0
503,66.0,0,40,1.0,0.0
504,30.0,0,120,2.0,0.0
505,66.0,40,40,1.0,0.0
506,58.0,0,40,1.0,0.0
507,63.0,0,40,1.0,0.0
508,70.0,40,60,0.0,0.0
509,58.0,0,40,1.0,0.0
510,66.0,0,40,1.0,0.0
511,63.0,0,40,1.0,0.0
512,78.0,0,120,0.0,0.0
513,33.0,20,60,2.0,0.0
514,66.0,0,40,1.0,0.0
515,63.0,20,40,1.0,0.0
516,58.0,0,40,1.0,0.0
517,63.0,0,40,1.0,0.0
518,66.0,0,40,1.0,0.0
519,58.0,40,40,1.0,0.0
520,34.0,0,60,2.0,0.0
521,58.0,0,40,1.0,0.0
522,66.0,0,40,1.0,0.0
523,63.0,40,40,1.0,0.0
524,66.0,20,40,1.0,0.0
525,63.0,0,40,1.0,0.0
526,77.0,20,60,0.0,0.0
527,58.0,0,40,1.0,0.0
528,46.0,40,120,2.0,0.0
529,63.0,0,40,1.0,0.0
530,66.0,40,40,1.0,0.0
531,58.0,0,40,1.0,0.0
532,75.0,0,60,0.0,0.0
533,58.0,0,40,1.0,0.0
534,66.0,0,40,1.0,0.0
535,63.0,0,40,1.0,0.0
536,31.0,20,60,2.0,0.0
537,59.0,0,40,1.0,0.0
538,65.0,0,40,1.0,0.0
539,63.0,20,40,1.0,0.0
540,71.0,0,120,0.0,0.0
541,63.0,0,40,1.0,0.0
542,65.0,0,40,1.0,0.0
543,59.0,40,40,1.0,0.0
544,32.0,0,60,2.0,0.0
545,59.0,0,40,1.0,0.0
546,63.0,0,40,1.0,0.0
547,65.0,40,40,1.0,0.0
548,59.0,20,40,1.0,0.0
549,65.0,0,40,1.0,0.0
550,63.0,0,40,1.0,0.0
551,44.0,0,120,2.0,0.0
552,70.0,20,60,0.0,0.0
553,59.0,40,40,1.0,0.0
554,65.0,0,40,1.0,0.0
555,63.0,0,40,1.0,0.0
556,71.0,40,60,0.0,0.0
557,59.0,0,40,1.0,0.0
558,63.0,0,40,1.0,0.0
559,65.0,0,40,1.0,0.0
560,75.0,0,120,0.0,0.0
561,31.0,20,60,2.0,0.0
562,65.0,20,40,1.0,0.0
563,63.0,0,40,1.0,0.0
564,59.0,0,40,1.0,0.0
565,63.0,0,40,1.0,0.0
566,59.0,40,40,1.0,0.0
567,65.0,0,40,1.0,0.0
568,32.0,0,60,2.0,0.0
569,59.0,0,40,1.0,0.0
570,65.0,0,40,1.0,0.0
571,63.0,40,40,1.0,0.0
572,59.0,0,40,1.0,0.0
573,65.0,20,40,1.0,0.0
574,63.0,0,40,1.0,0.0
575,44.0,0,120,2.0,0.0
576,73.0,20,60,0.0,0.0
577,65.0,0,40,1.0,0.0
578,59.0,40,40,1.0,0.0
579,63.0,0,40,1.0,0.0
580,71.0,0,60,0.0,0.0
581,63.0,0,40,1.0,0.0
582,59.0,40,40,1.0,0.0
583,65.0,0,40,1.0,0.0
584,32.0,20,60,2.0,0.0
585,68.0,0,120,0.0,0.0
586,60.0,0,40,1.0,0.0
587,63.0,20,40,1.0,0.0
588,60.0,0,40,1.0,0.0
589,63.0,40,40,1.0,0.0
590,33.0,0,60,2.0,0.0
591,60.0,0,40,1.0,0.0
592,63.0,40,40,1.0,0.0
593,45.0,40,120,2.0,0.0
594,60.0,0,40,1.0,0.0
595,63.0,40,40,1.0,0.0
596,66.0,0,120,0.0,0.0
597,63.0,0,40,1.0,0.0
598,60.0,40,40,1.0,0.0
599,63.0,0,40,1.0,0.0
600,60.0,0,40,1.0,0.0
601,62.0,20,40,1.0,0.0
602,65.0,0,40,1.0,0.0
603,65.0,40,240,0.0,0.0
604,33.0,20,60,2.0,0.0
605,65.0,40,40,1.0,0.0
606,62.0,0,40,1.0,0.0
607,34.0,40,60,2.0,0.0
608,65.0,0,40,1.0,0.0
609,62.0,0,40,1.0,0.0
610,62.0,0,40,1.0,0.0
611,46.0,0,120,2.0,0.0
612,70.0,40,40,1.0,0.0
613,65.0,0,40,1.0,0.0
614,62.0,40,40,1.0,0.0
615,70.0,0,40,1.0,0.0
616,65.0,0,40,1.0,0.0
617,65.0,0,40,1.0,0.0
618,70.0,0,40,1.0,0.0
619,62.0,0,40,1.0,0.0
620,74.0,0,40,1.0,0.0
621,70.0,40,40,1.0,0.0
622,65.0,0,40,1.0,0.0
623,74.0,0,40,1.0,0.0
624,65.0,0,40,1.0,0.0
625,70.0,40,40,1.0,0.0
626,70.0,0,40,1.0,0.0
627,74.0,40,40,1.0,0.0
628,65.0,0,40,1.0,0.0
629,74.0,0,40,1.0,0.0
630,70.0,20,60,0.0,0.0
631,77.0,0,40,1.0,0.0
632,70.0,20,40,1.0,0.0
633,74.0,0,40,1.0,0.0
634,70.0,0,40,1.0,0.0
635,77.0,40,40,1.0,0.0
636,70.0,0,60,0.0,0.0
637,77.0,0,40,1.0,0.0
638,70.0,0,40,1.0,0.0
639,74.0,40,40,1.0,0.0
640,71.0,0,180,2.0,0.0
641,71.0,20,180,0.0,0.0
642,75.0,40,40,1.0,0.0
643,80.0,0,40,1.0,0.0
644,75.0,40,40,1.0,0.0
645,80.0,0,40,1.0,0.0
646,80.0,40,40,1.0,0.0
647,75.0,0,40,1.0,0.0
648,78.0,0,40,1.0,0.0
649,75.0,20,40,1.0,0.0
650,75.0,40,40,1.0,0.0
651,78.0,0,40,1.0,0.0
652,70.0,0,60,2.0,0.0
653,70.0,40,60,0.0,0.0
654,75.0,0,40,1.0,0.0
655,78.0,0,40,1.0,0.0
656,68.0,0,120,0.0,0.0
657,77.0,0,40,1.0,0.0
658,75.0,40,40,1.0,0.0
659,68.0,0,120,2.0,0.0
660,75.0,40,40,1.0,0.0
661,77.0,0,40,1.0,0.0
662,77.0,0,40,1.0,0.0
663,75.0,40,40,1.0,0.0
664,71.0,0,60,2.0,0.0
665,75.0,0,40,1.0,0.0
666,80.0,20,40,1.0,0.0
667,71.0,20,60,0.0,0.0
668,75.0,0,40,1.0,0.0
669,80.0,40,40,1.0,0.0
670,75.0,40,60,2.0,0.0
671,75.0,0,60,0.0,0.0
672,80.0,0,40,1.0,0.0
673,75.0,0,40,1.0,0.0
674,77.0,40,40,1.0,0.0
675,73.0,0,180,2.0,0.0
676,73.0,20,180,0.0,0.0
677,80.0,0,40,1.0,0.0
678,80.0,40,40,1.0,0.0
679,77.0,0,40,1.0,0.0
680,80.0,40,40,1.0,0.0
681,77.0,0,40,1.0,0.0
682,80.0,20,40,1.0,0.0
683,77.0,0,40,1.0,0.0
684,80.0,0,40,1.0,0.0
685,77.0,40,40,1.0,0.0
686,71.0,0,60,0.0,0.0
687,71.0,40,60,2.0,0.0
688,77.0,0,40,1.0,0.0
689,80.0,0,40,1.0,0.0
690,78.0,0,40,1.0,0.0
691,73.0,0,40,1.0,0.0
692,82.0,40,40,1.0,0.0
693,70.0,0,120,0.0,0.0
694,70.0,40,120,2.0,0.0
695,82.0,0,40,1.0,0.0
696,73.0,0,40,1.0,0.0
697,78.0,40,40,1.0,0.0
698,82.0,0,40,1.0,0.0
699,78.0,0,40,1.0,0.0
700,73.0,0,40,1.0,0.0
701,73.0,40,120,2.0,0.0
702,78.0,0,40,1.0,0.0
703,82.0,20,40,1.0,0.0
704,73.0,20,60,0.0,0.0
705,78.0,40,40,1.0,0.0
706,82.0,0,40,1.0,0.0
707,73.0,0,60,0.0,0.0
708,78.0,0,40,1.0,0.0
709,82.0,0,40,1.0,0.0
710,78.0,0,40,1.0,0.0
711,82.0,40,40,1.0,0.0
712,76.0,40,120,2.0,0.0
713,78.0,0,360,0.0,0.0
714,66.0,40,240,2.0,0.0
715,85.0,0,40,1.0,0.0
716,78.0,0,40,1.0,0.0
717,82.0,40,40,1.0,0.0
718,85.0,0,40,1.0,0.0
719,82.0,0,40,1.0,0.0
720,78.0,0,40,1.0,0.0
721,85.0,0,40,1.0,0.0
722,75.0,0,120,2.0,0.0
723,78.0,0,40,1.0,0.0
724,84.0,40,40,1.0,0.0
725,81.0,0,40,1.0,0.0
726,78.0,0,40,1.0,0.0
727,81.0,40,40,1.0,0.0
728,84.0,0,40,1.0,0.0
729,78.0,0,40,1.0,0.0
730,81.0,0,40,1.0,0.0
731,84.0,0,40,1.0,0.0
732,76.0,0,120,2.0,0.0
733,66.0,0,240,2.0,0.0
734,78.0,40,40,1.0,0.0
735,82.0,0,40,1.0,0.0
736,85.0,0,40,1.0,0.0
737,82.0,0,40,1.0,0.0
738,78.0,40,40,1.0,0.0
739,85.0,0,40,1.0,0.0
740,82.0,0,40,1.0,0.0
741,85.0,40,40,1.0,0.0
742,78.0,0,40,1.0,0.0
743,72.0,0,120,0.0,0.0
744,81.0,40,40,1.0,0.0
745,84.0,0,40,1.0,0.0
746,78.0,0,40,1.0,0.0
747,75.0,0,120,2.0,0.0
748,81.0,40,40,1.0,0.0
749,84.0,0,40,1.0,0.0
750,78.0,0,40,1.0,0.0
751,78.0,40,40,1.0,0.0
752,84.0,0,40,1.0,0.0
753,81.0,0,40,1.0,0.0
754,66.0,0,360,2.0,0.0
755,73.0,0,360,0.0,0.0
756,85.0,40,40,1.0,0.0
757,78.0,0,40,1.0,0.0
758,82.0,0,40,1.0,0.0
759,76.0,0,120,2.0,0.0
760,78.0,40,40,1.0,0.0
761,85.0,0,40,1.0,0.0
762,82.0,0,40,1.0,0.0
763,78.0,40,40,1.0,0.0
764,85.0,0,40,1.0,0.0
765,82.0,0,40,1.0,0.0
766,73.0,40,120,2.0,0.0
767,78.0,0,40,1.0,0.0
768,85.0,0,40,1.0,0.0
769,82.0,40,40,1.0,0.0
770,85.0,0,40,1.0,0.0
771,78.0,40,40,1.0,0.0
772,82.0,0,40,1.0,0.0
773,78.0,0,40,1.0,0.0
774,85.0,0,40,1.0,0.0
775,82.0,0,40,1.0,0.0
776,82.0,40,40,1.0,0.0
777,78.0,0,40,1.0,0.0
778,70.0,0,120,2.0,0.0
779,85.0,0,40,1.0,0.0
780,85.0,40,40,1.0,0.0
781,78.0,0,40,1.0,0.0
782,82.0,0,40,1.0,0.0
783,82.0,40,40,1.0,0.0
784,78.0,0,40,1.0,0.0
785,85.0,0,40,1.0,0.0
786,78.0,0,40,1.0,0.0
787,74.0,0,120,0.0,0.0
788,66.0,0,120,2.0,0.0
789,76.0,0,40,1.0,0.0
790,82.0,40,40,1.0,0.0
791,86.0,0,40,1.0,0.0
792,78.0,0,40,1.0,0.0
793,76.0,0,40,1.0,0.0
794,86.0,40,40,1.0,0.0
795,82.0,0,40,1.0,0.0
796,78.0,0,40,1.0,0.0
797,76.0,40,40,1.0,0.0
798,86.0,0,40,1.0,0.0
799,82.0,0,40,1.0,0.0
800,87.0,0,40,1.0,0.0
801,75.0,0,360,0.0,0.0
802,83.0,40,40,1.0,0.0
803,75.0,0,40,1.0,0.0
804,78.0,0,40,1.0,0.0
805,66.0,0,360,2.0,0.0
806,59.0,40,360,2.0,0.0
807,75.0,0,40,1.0,0.0
808,78.0,0,40,1.0,0.0
809,87.0,40,40,1.0,0.0
810,83.0,0,40,1.0,0.0
811,75.0,0,40,1.0,0.0
812,83.0,0,40,1.0,0.0
813,87.0,0,40,1.0,0.0
814,78.0,40,40,1.0,0.0
815,83.0,40,40,1.0,0.0
816,78.0,0,40,1.0,0.0
817,75.0,0,40,1.0,0.0
818,83.0,0,40,1.0,0.0
819,78.0,0,40,1.0,0.0
820,75.0,40,40,1.0,0.0
821,83.0,0,40,1.0,0.0
822,78.0,40,40,1.0,0.0
823,75.0,0,40,1.0,0.0
824,75.0,40,40,1.0,0.0
825,78.0,0,40,1.0,0.0
826,71.0,0,40,1.0,0.0
827,71.0,0,40,1.0,0.0
828,75.0,40,40,1.0,0.0
829,78.0,0,40,1.0,0.0
830,71.0,0,40,1.0,0.0
831,78.0,0,40,1.0,0.0
832,75.0,0,40,1.0,0.0
833,71.0,40,40,1.0,0.0
834,75.0,0,40,1.0,0.0
835,66.0,0,40,1.0,0.0
836,71.0,0,40,1.0,0.0
837,75.0,40,40,1.0,0.0
838,66.0,0,40,1.0,0.0
839,71.0,0,40,1.0,0.0
840,75.0,40,40,1.0,0.0
841,66.0,0,40,1.0,0.0
842,66.0,40,40,1.0,0.0
843,63.0,0,40,1.0,0.0
844,71.0,0,40,1.0,0.0
845,71.0,0,40,1.0,0.0
846,66.0,0,40,1.0,0.0
847,63.0,40,40,1.0,0.0
848,66.0,40,40,1.0,0.0
849,63.0,0,40,1.0,0.0
850,71.0,0,40,1.0,0.0
851,63.0,0,40,1.0,0.0
852,66.0,0,40,1.0,0.0
853,59.0,40,40,1.0,0.0
854,59.0,0,40,1.0,0.0
855,66.0,0,40,1.0,0.0
856,63.0,40,40,1.0,0.0
857,59.0,40,40,1.0,0.0
858,66.0,0,40,1.0,0.0
859,63.0,0,40,1.0,0.0
860,38.0,20,60,2.0,0.0
861,58.0,0,40,1.0,0.0
862,66.0,20,40,1.0,0.0
863,63.0,0,40,1.0,0.0
864,63.0,0,40,1.0,0.0
865,66.0,0,40,1.0,0.0
866,58.0,40,40,1.0,0.0
867,39.0,40,60,2.0,0.0
868,58.0,0,40,1.0,0.0
869,66.0,0,40,1.0,0.0
870,63.0,0,40,1.0,0.0
871,66.0,20,40,1.0,0.0
872,63.0,0,40,1.0,0.0
873,65.0,20,60,0.0,0.0
874,42.0,0,120,2.0,0.0
875,58.0,0,40,1.0,0.0
876,63.0,0,40,1.0,0.0
877,66.0,40,40,1.0,0.0
878,58.0,0,40,1.0,0.0
879,66.0,0,60,0.0,0.0
880,66.0,0,40,1.0,0.0
881,58.0,40,40,1.0,0.0
882,63.0,0,40,1.0,0.0
883,70.0,40,120,0.0,0.0
884,66.0,20,40,1.0,0.0
885,63.0,0,40,1.0,0.0
886,38.0,20,60,2.0,0.0
887,58.0,0,40,1.0,0.0
888,63.0,40,40,1.0,0.0
889,58.0,0,40,1.0,0.0
890,66.0,0,40,1.0,0.0
891,39.0,0,60,2.0,0.0
892,66.0,0,40,1.0,0.0
893,63.0,0,40,1.0,0.0
894,58.0,0,40,1.0,0.0
895,42.0,0,120,2.0,0.0
896,63.0,0,40,1.0,0.0
897,58.0,0,40,1.0,0.0
898,65.0,20,60,0.0,0.0
899,66.0,20,40,1.0,0.0
900,63.0,0,40,1.0,0.0
901,58.0,0,40,1.0,0.0
902,66.0,40,40,1.0,0.0
903,66.0,40,60,0.0,0.0
904,63.0,0,40,1.0,0.0
905,66.0,0,40,1.0,0.0
906,58.0,0,40,1.0,0.0
907,66.0,20,40,1.0,0.0
908,63.0,0,40,1.0,0.0
909,58.0,0,40,1.0,0.0
910,38.0,20,60,2.0,0.0
911,70.0,0,120,0.0,0.0
912,63.0,0,40,1.0,0.0
913,58.0,40,40,1.0,0.0
914,66.0,0,40,1.0,0.0
915,39.0,0,60,2.0,0.0
916,63.0,0,40,1.0,0.0
917,58.0,40,40,1.0,0.0
918,66.0,0,40,1.0,0.0
919,66.0,20,40,1.0,0.0
920,63.0,0,40,1.0,0.0
921,58.0,0,40,1.0,0.0
922,69.0,20,60,0.0,0.0
923,42.0,0,120,2.0,0.0
924,58.0,0,40,1.0,0.0
925,66.0,40,40,1.0,0.0
926,63.0,0,40,1.0,0.0
927,70.0,40,60,0.0,0.0
928,66.0,0,40,1.0,0.0
929,58.0,0,40,1.0,0.0
930,63.0,0,40,1.0,0.0
931,66.0,0,40,1.0,0.0
932,63.0,0,40,1.0,0.0
933,58.0,20,40,1.0,0.0
934,33.0,20,60,2.0,0.0
935,78.0,0,120,0.0,0.0
936,63.0,0,40,1.0,0.0
937,66.0,0,40,1.0,0.0
938,58.0,40,40,1.0,0.0
939,34.0,0,60,2.0,0.0
940,66.0,40,40,1.0,0.0
941,58.0,0,40,1.0,0.0
942,63.0,0,40,1.0,0.0
943,63.0,0,40,1.0,0.0
944,66.0,20,40,1.0,0.0
945,58.0,0,40,1.0,0.0
946,42.0,0,120,2.0,0.0
947,77.0,20,60,0.0,0.0
948,66.0,0,40,1.0,0.0
949,58.0,40,40,1.0,0.0
950,63.0,0,40,1.0,0.0
951,75.0,0,60,0.0,0.0
952,58.0,0,40,1.0,0.0
953,63.0,40,40,1.0,0.0
954,66.0,0,40,1.0,0.0
955,71.0,40,120,0.0,0.0
956,63.0,0,40,1.0,0.0
957,65.0,20,40,1.0,0.0
958,59.0,0,40,1.0,0.0
959,31.0,20,60,2.0,0.0
960,59.0,40,40,1.0,0.0
961,63.0,0,40,1.0,0.0
962,65.0,0,40,1.0,0.0
963,32.0,0,60,2.0,0.0
964,63.0,0,40,1.0,0.0
965,59.0,0,40,1.0,0.0
966,65.0,0,40,1.0,0.0
967,70.0,20,60,0.0,0.0
968,44.0,40,120,2.0,0.0
969,65.0,0,40,1.0,0.0
970,63.0,20,40,1.0,0.0
971,59.0,0,40,1.0,0.0
972,59.0,0,40,1.0,0.0
973,63.0,40,40,1.0,0.0
974,65.0,0,40,1.0,0.0
975,71.0,0,60,0.0,0.0
976,59.0,0,40,1.0,0.0
977,65.0,0,40,1.0,0.0
978,63.0,0,40,1.0,0.0
979,31.0,20,60,2.0,0.0
980,65.0,20,40,1.0,0.0
981,75.0,0,120,0.0,0.0
982,59.0,0,40,1.0,0.0
983,63.0,0,40,1.0,0.0
984,65.0,0,40,1.0,0.0
985,59.0,40,40,1.0,0.0
986,63.0,0,40,1.0,0.0
987,32.0,40,60,2.0,0.0
988,59.0,0,40,1.0,0.0
989,65.0,0,40,1.0,0.0
990,63.0,0,40,1.0,0.0
991,63.0,0,40,1.0,0.0
992,65.0,20,40,1.0,0.0
993,59.0,0,40,1.0,0.0
994,44.0,0,120,2.0,0.0
995,73.0,20,60,0.0,0.0
996,63.0,40,40,1.0,0.0
997,59.0,0,40,1.0,0.0
998,65.0,0,40,1.0,0.0
999,71.0,40,60,0.0,0.0
1000,65.0,0,40,1.0,0.0
1001,63.0,0,40,1.0,0.0
1002,59.0,0,40,1.0,0.0
1003,32.0,20,60,2.0,0.0
1004,68.0,0,120,0.0,0.0
1005,63.0,20,40,1.0,0.0
1006,60.0,0,40,1.0,0.0
1007,63.0,0,40,1.0,0.0
1008,60.0,40,40,1.0,0.0
1009,33.0,0,60,2.0,0.0
1010,63.0,40,40,1.0,0.0
1011,60.0,0,40,1.0,0.0
1012,60.0,0,40,1.0,0.0
1013,45.0,0,120,2.0,0.0
1014,66.0,0,120,0.0,0.0
1015,63.0,40,40,1.0,0.0
1016,60.0,0,40,1.0,0.0
1017,63.0,40,40,1.0,0.0
1018,63.0,0,40,1.0,0.0
1019,60.0,40,40,1.0,0.0
1020,65.0,20,40,1.0,0.0
1021,33.0,20,60,2.0,0.0
1022,62.0,0,40,1.0,0.0
1023,65.0,0,240,0.0,0.0
1024,65.0,40,40,1.0,0.0
1025,62.0,0,40,1.0,0.0
1026,34.0,40,60,2.0,0.0
1027,65.0,0,40,1.0,0.0
1028,62.0,0,40,1.0,0.0
1029,62.0,0,40,1.0,0.0
1030,70.0,40,40,1.0,0.0
1031,65.0,0,40,1.0,0.0
1032,46.0,40,120,2.0,0.0
1033,70.0,0,40,1.0,0.0
1034,65.0,40,40,1.0,0.0
1035,62.0,0,40,1.0,0.0
1036,62.0,0,40,1.0,0.0
1037,70.0,0,40,1.0,0.0
1038,65.0,0,40,1.0,0.0
1039,65.0,0,40,1.0,0.0
1040,45.0,20,60,2.0,0.0
1041,74.0,0,40,1.0,0.0
1042,70.0,20,40,1.0,0.0
1043,74.0,40,40,1.0,0.0
1044,70.0,0,40,1.0,0.0
1045,65.0,0,40,1.0,0.0
1046,46.0,40,60,2.0,0.0
1047,74.0,0,40,1.0,0.0
1048,65.0,0,40,1.0,0.0
1049,70.0,0,40,1.0,0.0
1050,68.0,0,40,1.0,0.0
1051,77.0,40,40,1.0,0.0
1052,74.0,0,40,1.0,0.0
1053,70.0,0,40,1.0,0.0
1054,58.0,40,120,2.0,0.0
1055,77.0,0,40,1.0,0.0
1056,70.0,0,40,1.0,0.0
1057,68.0,0,40,1.0,0.0
1058,74.0,40,40,1.0,0.0
1059,70.0,0,60,0.0,0.0
1060,77.0,0,40,1.0,0.0
1061,68.0,0,40,1.0,0.0
1062,70.0,0,40,1.0,0.0
1063,74.0,0,40,1.0,0.0
1064,75.0,0,40,1.0,0.0
1065,70.0,0,40,1.0,0.0
1066,79.0,0,40,1.0,0.0
1067,67.0,20,40,1.0,0.0
1068,33.0,20,60,2.0,0.0
1069,70.0,0,120,0.0,0.0
1070,67.0,40,40,1.0,0.0
1071,70.0,0,40,1.0,0.0
1072,79.0,0,40,1.0,0.0
1073,75.0,0,40,1.0,0.0
1074,34.0,0,60,2.0,0.0
1075,67.0,40,40,1.0,0.0
1076,79.0,0,40,1.0,0.0
1077,75.0,0,40,1.0,0.0
1078,70.0,0,40,1.0,0.0
1079,66.0,20,60,0.0,0.0
1080,70.0,0,40,1.0,0.0
1081,67.0,0,40,1.0,0.0
1082,75.0,20,40,1.0,0.0
1083,79.0,0,40,1.0,0.0
1084,46.0,0,120,2.0,0.0
1085,67.0,0,40,1.0,0.0
1086,70.0,0,40,1.0,0.0
1087,75.0,40,40,1.0,0.0
1088,79.0,0,40,1.0,0.0
1089,67.0,0,60,0.0,0.0
1090,79.0,0,40,1.0,0.0
1091,67.0,0,40,1.0,0.0
1092,70.0,40,40,1.0,0.0
1093,75.0,0,40,1.0,0.0
1094,45.0,20,60,2.0,0.0
1095,67.0,20,40,1.0,0.0
1096,70.0,0,120,0.0,0.0
1097,79.0,0,40,1.0,0.0
1098,75.0,0,40,1.0,0.0
1099,70.0,0,40,1.0,0.0
1100,70.0,0,40,1.0,0.0
1101,79.0,0,40,1.0,0.0
1102,75.0,40,40,1.0,0.0
1103,67.0,0,40,1.0,0.0
1104,46.0,0,60,2.0,0.0
1105,79.0,0,40,1.0,0.0
1106,67.0,0,40,1.0,0.0
1107,70.0,0,40,1.0,0.0
1108,75.0,40,40,1.0,0.0
1109,69.0,20,60,0.0,0.0
1110,79.0,0,40,1.0,0.0
1111,75.0,0,40,1.0,0.0
1112,70.0,0,40,1.0,0.0
1113,58.0,0,120,2.0,0.0
1114,67.0,20,40,1.0,0.0
1115,79.0,0,40,1.0,0.0
1116,70.0,40,40,1.0,0.0
1117,67.0,0,40,1.0,0.0
1118,75.0,0,40,1.0,0.0
1119,70.0,0,60,0.0,0.0
1120,67.0,40,40,1.0,0.0
1121,75.0,0,40,1.0,0.0
1122,70.0,0,40,1.0,0.0
1123,79.0,0,40,1.0,0.0
1124,30.0,20,60,2.0,0.0
1125,75.0,0,40,1.0,0.0
1126,79.0,0,40,1.0,0.0
1127,67.0,20,40,1.0,0.0
1128,79.0,0,120,0.0,0.0
1129,70.0,0,40,1.0,0.0
1130,70.0,0,40,1.0,0.0
1131,67.0,0,40,1.0,0.0
1132,79.0,0,40,1.0,0.0
1133,75.0,40,40,1.0,0.0
1134,31.0,0,60,2.0,0.0
1135,70.0,0,40,1.0,0.0
1136,67.0,0,40,1.0,0.0
1137,75.0,40,40,1.0,0.0
1138,79.0,0,40,1.0,0.0
1139,77.0,20,60,0.0,0.0
1140,43.0,0,120,2.0,0.0
1141,67.0,0,40,1.0,0.0
1142,77.0,20,40,1.0,0.0
1143,70.0,0,40,1.0,0.0
1144,77.0,0,40,1.0,0.0
1145,70.0,0,40,1.0,0.0
1146,67.0,40,40,1.0,0.0
1147,75.0,0,60,0.0,0.0
1148,67.0,0,40,1.0,0.0
1149,75.0,40,40,1.0,0.0
1150,70.0,0,40,1.0,0.0
1151,63.0,0,40,1.0,0.0
1152,72.0,0,120,0.0,0.0
1153,43.0,20,60,2.0,0.0
1154,72.0,20,40,1.0,0.0
1155,65.0,0,40,1.0,0.0
1156,63.0,0,40,1.0,0.0
1157,65.0,40,40,1.0,0.0
1158,72.0,0,40,1.0,0.0
1159,44.0,0,60,2.0,0.0
1160,63.0,40,40,1.0,0.0
1161,65.0,0,40,1.0,0.0
1162,72.0,0,40,1.0,0.0
1163,56.0,40,120,2.0,0.0
1164,72.0,0,40,1.0,0.0
1165,72.0,20,60,0.0,0.0
1166,63.0,20,40,1.0,0.0
1167,65.0,0,40,1.0,0.0
1168,72.0,40,40,1.0,0.0
1169,63.0,0,40,1.0,0.0
1170,65.0,0,40,1.0,0.0
1171,77.0,0,60,0.0,0.0
1172,68.0,0,40,1.0,0.0
1173,77.0,0,40,1.0,0.0
1174,72.0,0,40,1.0,0.0
1175,28.0,20,60,2.0,0.0
1176,75.0,0,40,1.0,0.0
1177,68.0,20,40,1.0,0.0
1178,80.0,0,40,1.0,0.0
1179,72.0,0,40,1.0,0.0
1180,80.0,0,120,0.0,0.0
1181,72.0,0,40,1.0,0.0
1182,68.0,0,40,1.0,0.0
1183,75.0,40,40,1.0,0.0
1184,80.0,0,40,1.0,0.0
1185,29.0,40,60,2.0,0.0
1186,68.0,0,40,1.0,0.0
1187,72.0,0,40,1.0,0.0
1188,75.0,0,40,1.0,0.0
1189,80.0,0,40,1.0,0.0
1190,79.0,0,40,1.0,0.0
1191,72.0,20,40,1.0,0.0
1192,75.0,0,40,1.0,0.0
1193,68.0,0,40,1.0,0.0
1194,41.0,0,120,2.0,0.0
1195,79.0,20,60,0.0,0.0
1196,79.0,0,40,1.0,0.0
1197,72.0,0,40,1.0,0.0
1198,68.0,0,40,1.0,0.0
1199,75.0,40,40,1.0,0.0
1200,77.0,0,60,0.0,0.0
1201,75.0,40,40,1.0,0.0
1202,68.0,0,40,1.0,0.0
1203,72.0,0,40,1.0,0.0
1204,77.0,0,40,1.0,0.0
1205,68.0,0,40,1.0,0.0
1206,65.0,20,40,1.0,0.0
1207,75.0,0,40,1.0,0.0
1208,31.0,20,60,2.0,0.0
1209,75.0,40,120,0.0,0.0
1210,71.0,0,40,1.0,0.0
1211,68.0,0,40,1.0,0.0
1212,75.0,40,40,1.0,0.0
1213,65.0,0,40,1.0,0.0
1214,71.0,0,40,1.0,0.0
1215,32.0,0,60,2.0,0.0
1216,65.0,0,40,1.0,0.0
1217,75.0,0,40,1.0,0.0
1218,71.0,0,40,1.0,0.0
1219,68.0,0,40,1.0,0.0
1220,44.0,0,120,2.0,0.0
1221,71.0,0,120,0.0,0.0
1222,71.0,40,40,1.0,0.0
1223,68.0,0,40,1.0,0.0
1224,63.0,0,40,1.0,0.0
1225,65.0,0,40,1.0,0.0
1226,68.0,0,40,1.0,0.0
1227,65.0,40,40,1.0,0.0
1228,71.0,0,40,1.0,0.0
1229,63.0,0,40,1.0,0.0
1230,68.0,0,40,1.0,0.0
1231,65.0,40,40,1.0,0.0
1232,63.0,0,40,1.0,0.0
1233,71.0,0,40,1.0,0.0
1234,33.0,20,60,2.0,0.0
1235,70.0,0,240,0.0,0.0
1236,70.0,0,40,1.0,0.0
1237,68.0,0,40,1.0,0.0
1238,62.0,0,40,1.0,0.0
1239,65.0,20,40,1.0,0.0
1240,65.0,40,40,1.0,0.0
1241,62.0,0,40,1.0,0.0
1242,70.0,0,40,1.0,0.0
1243,68.0,0,40,1.0,0.0
1244,34.0,20,240,2.0,0.0
1245,65.0,0,40,1.0,0.0
1246,62.0,40,40,1.0,0.0
1247,68.0,0,40,1.0,0.0
1248,70.0,0,40,1.0,0.0
1249,70.0,0,40,1.0,0.0
1250,68.0,0,40,1.0,0.0
1251,65.0,40,40,1.0,0.0
1252,62.0,0,40,1.0,0.0
1253,46.0,0,180,2.0,0.0
1254,70.0,40,40,1.0,0.0
1255,65.0,0,40,1.0,0.0
1256,68.0,0,40,1.0,0.0
1257,62.0,0,40,1.0,0.0
1258,68.0,0,40,1.0,0.0
1259,62.0,0,40,1.0,0.0
1260,65.0,0,40,1.0,0.0
1261,70.0,40,40,1.0,0.0
1262,68.0,20,40,1.0,0.0
1263,62.0,0,40,1.0,0.0
1264,65.0,0,40,1.0,0.0
1265,65.0,0,40,1.0,0.0
1266,68.0,0,40,1.0,0.0
1267,62.0,40,40,1.0,0.0
1268,35.0,20,240,2.0,0.0
1269,68.0,0,40,1.0,0.0
1270,62.0,40,40,1.0,0.0
1271,65.0,0,40,1.0,0.0
1272,68.0,0,40,1.0,0.0
1273,62.0,40,40,1.0,0.0
1274,65.0,0,40,1.0,0.0
1275,47.0,0,180,2.0,0.0
1276,65.0,0,40,1.0,0.0
1277,68.0,0,40,1.0,0.0
1278,62.0,40,40,1.0,0.0
1279,68.0,0,40,1.0,0.0
1280,62.0,40,40,1.0,0.0
1281,65.0,0,40,1.0,0.0
1282,65.0,20,40,1.0,0.0
1283,68.0,0,40,1.0,0.0
1284,60.0,0,40,1.0,0.0
1285,60.0,0,40,1.0,0.0
1286,65.0,40,40,1.0,0.0
1287,68.0,0,40,1.0,0.0
1288,36.0,20,240,2.0,0.0
1289,65.0,40,40,1.0,0.0
1290,68.0,0,40,1.0,0.0
1291,60.0,0,40,1.0,0.0
1292,68.0,0,40,1.0,0.0
1293,60.0,0,40,1.0,0.0
1294,65.0,40,40,1.0,0.0
1295,48.0,0,180,2.0,0.0
1296,68.0,0,40,1.0,0.0
1297,60.0,40,40,1.0,0.0
1298,65.0,0,40,1.0,0.0
1299,68.0,40,40,1.0,0.0
1300,60.0,0,40,1.0,0.0
1301,65.0,0,40,1.0,0.0
1302,68.0,0,40,1.0,0.0
1303,59.0,0,40,1.0,0.0
1304,65.0,20,40,1.0,0.0
1305,59.0,40,40,1.0,0.0
1306,68.0,0,40,1.0,0.0
1307,65.0,0,40,1.0,0.0
1308,37.0,20,240,2.0,0.0
1309,59.0,0,40,1.0,0.0
1310,65.0,40,40,1.0,0.0
1311,68.0,0,40,1.0,0.0
1312,59.0,0,40,1.0,0.0
1313,68.0,0,40,1.0,0.0
1314,49.0,0,180,2.0,0.0
1315,71.0,40,120,0.0,0.0
1316,65.0,40,40,1.0,0.0
1317,59.0,40,40,1.0,0.0
1318,65.0,0,40,1.0,0.0
1319,68.0,0,40,1.0,0.0
1320,65.0,0,40,1.0,0.0
1321,68.0,0,40,1.0,0.0
1322,59.0,0,40,1.0,0.0
1323,61.0,20,40,1.0,0.0
1324,66.0,0,40,1.0,0.0
1325,58.0,0,40,1.0,0.0
1326,70.0,0,240,0.0,0.0
1327,66.0,0,40,1.0,0.0
1328,58.0,40,40,1.0,0.0
1329,61.0,0,40,1.0,0.0
1330,37.0,20,240,2.0,0.0
1331,61.0,0,40,1.0,0.0
1332,66.0,0,40,1.0,0.0
1333,58.0,40,40,1.0,0.0
1334,66.0,0,40,1.0,0.0
1335,58.0,40,40,1.0,0.0
1336,61.0,0,40,1.0,0.0
1337,49.0,0,180,2.0,0.0
1338,66.0,40,40,1.0,0.0
1339,58.0,0,40,1.0,0.0
1340,61.0,0,40,1.0,0.0
1341,61.0,0,40,1.0,0.0
1342,58.0,0,40,1.0,0.0
1343,66.0,40,40,1.0,0.0
1344,59.0,0,40,1.0,0.0
1345,56.0,0,40,1.0,0.0
1346,65.0,20,40,1.0,0.0
1347,56.0,0,40,1.0,0.0
1348,65.0,0,40,1.0,0.0
1349,59.0,40,40,1.0,0.0
1350,32.0,0,240,2.0,0.0
1351,56.0,0,40,1.0,0.0
1352,65.0,0,40,1.0,0.0
1353,59.0,40,40,1.0,0.0
1354,68.0,0,120,0.0,0.0
1355,59.0,0,40,1.0,0.0
1356,65.0,0,40,1.0,0.0
1357,56.0,40,40,1.0,0.0
1358,44.0,20,180,2.0,0.0
1359,56.0,40,40,1.0,0.0
1360,65.0,0,40,1.0,0.0
1361,59.0,0,40,1.0,0.0
1362,65.0,0,40,1.0,0.0
1363,59.0,40,40,1.0,0.0
1364,56.0,0,40,1.0,0.0
1365,63.0,20,40,1.0,0.0
1366,66.0,0,240,0.0,0.0
1367,58.0,0,40,1.0,0.0
1368,54.0,0,40,1.0,0.0
1369,54.0,0,40,1.0,0.0
1370,63.0,40,40,1.0,0.0
1371,58.0,0,40,1.0,0.0
1372,34.0,20,240,2.0,0.0
1373,54.0,40,40,1.0,0.0
1374,63.0,0,40,1.0,0.0
1375,58.0,0,40,1.0,0.0
1376,46.0,0,180,2.0,0.0
1377,63.0,0,40,1.0,0.0
1378,58.0,40,40,1.0,0.0
1379,54.0,0,40,1.0,0.0
1380,63.0,0,40,1.0,0.0
1381,54.0,40,40,1.0,0.0
1382,58.0,0,40,1.0,0.0
1383,63.0,0,40,1.0,0.0
1384,54.0,0,40,1.0,0.0
1385,58.0,40,40,1.0,0.0
1386,53.0,20,40,1.0,0.0
1387,58.0,0,40,1.0,0.0
1388,63.0,0,40,1.0,0.0
1389,58.0,0,40,1.0,0.0
1390,53.0,40,40,1.0,0.0
1391,63.0,0,40,1.0,0.0
1392,34.0,0,180,2.0,0.0
1393,58.0,0,40,1.0,0.0
1394,53.0,40,40,1.0,0.0
1395,63.0,0,40,1.0,0.0
1396,46.0,0,120,2.0,0.0
1397,58.0,0,40,1.0,0.0
1398,65.0,40,120,0.0,0.0
1399,62.0,0,40,1.0,0.0
1400,53.0,40,40,1.0,0.0
1401,62.0,0,40,1.0,0.0
1402,58.0,0,40,1.0,0.0
1403,53.0,40,40,1.0,0.0
1404,58.0,0,40,1.0,0.0
1405,62.0,0,40,1.0,0.0
1406,53.0,0,40,1.0,0.0
1407,38.0,20,60,2.0,0.0
1408,58.0,0,40,1.0,0.0
1409,54.0,0,40,1.0,0.0
1410,63.0,20,40,1.0,0.0
1411,63.0,0,360,0.0,0.0
1412,63.0,0,40,1.0,0.0
1413,58.0,0,40,1.0,0.0
1414,54.0,40,40,1.0,0.0
1415,39.0,0,60,2.0,0.0
1416,63.0,0,40,1.0,0.0
1417,54.0,40,40,1.0,0.0
1418,58.0,0,40,1.0,0.0
1419,42.0,0,240,2.0,0.0
1420,54.0,40,40,1.0,0.0
1421,63.0,0,40,1.0,0.0
1422,58.0,0,40,1.0,0.0
1423,58.0,40,40,1.0,0.0
1424,54.0,0,40,1.0,0.0
1425,63.0,0,40,1.0,0.0
1426,54.0,0,40,1.0,0.0
1427,63.0,40,40,1.0,0.0
1428,58.0,0,40,1.0,0.0
1429,58.0,0,40,1.0,0.0
1430,63.0,40,40,1.0,0.0
1431,54.0,0,40,1.0,0.0
1432,54.0,0,40,1.0,0.0
1433,63.0,40,40,1.0,0.0
1434,58.0,0,40,1.0,0.0
1435,63.0,0,40,1.0,0.0
1436,58.0,40,40,1.0,0.0
1437,54.0,0,40,1.0,0.0
1438,54.0,20,40,1.0,0.0
1439,58.0,0,40,1.0,0.0
1440,63.0,0,40,1.0,0.0
1441,33.0,20,60,2.0,0.0
1442,63.0,0,40,1.0,0.0
1443,54.0,0,40,1.0,0.0
1444,58.0,40,40,1.0,0.0
1445,34.0,0,60,2.0,0.0
1446,63.0,40,40,1.0,0.0
1447,58.0,0,40,1.0,0.0
1448,54.0,0,40,1.0,0.0
1449,58.0,0,40,1.0,0.0
1450,54.0,0,40,1.0,0.0
1451,39.0,0,240,2.0,0.0
1452,63.0,40,40,1.0,0.0
1453,63.0,0,40,1.0,0.0
1454,54.0,40,40,1.0,0.0
1455,58.0,0,40,1.0,0.0
1456,63.0,0,40,1.0,0.0
1457,58.0,40,40,1.0,0.0
1458,54.0,0,40,1.0,0.0
1459,54.0,40,40,1.0,0.0
1460,58.0,0,40,1.0,0.0
1461,63.0,0,40,1.0,0.0
1462,58.0,40,40,1.0,0.0
1463,54.0,0,40,1.0,0.0
1464,63.0,0,40,1.0,0.0
1465,54.0,0,40,1.0,0.0
1466,58.0,40,40,1.0,0.0
1467,63.0,0,40,1.0,0.0
1468,58.0,0,40,1.0,0.0
1469,63.0,40,40,1.0,0.0
1470,29.0,0,120,2.0,0.0
1471,54.0,0,40,1.0,0.0
1472,63.0,0,40,1.0,0.0
1473,58.0,40,40,1.0,0.0
1474,54.0,0,40,1.0,0.0
1475,54.0,40,40,1.0,0.0
1476,58.0,0,40,1.0,0.0
1477,63.0,0,40,1.0,0.0
1478,30.0,0,120,2.0,0.0
1479,58.0,0,40,1.0,0.0
1480,63.0,40,40,1.0,0.0
1481,54.0,0,40,1.0,0.0
1482,54.0,0,40,1.0,0.0
1483,58.0,40,40,1.0,0.0
1484,63.0,0,40,1.0,0.0
1485,58.0,0,40,1.0,0.0
1486,63.0,0,40,1.0,0.0
1487,54.0,480,40,1.0,0.0
1488,27.0,0,480,2.0,0.0
1489,63.0,0,480,1.0,0.0
1490,54.0,0,480,1.0,0.0
1491,58.0,0,480,1.0,0.0
