,note,step,duration,channel,velocity
0,78.0,232,180,0.0,0.0
1,83.0,235,180,0.0,0.0
2,85.0,487,180,0.0,0.0
3,47.0,0,420,0.0,0.0
4,75.0,0,420,0.0,0.0
5,35.0,0,420,0.0,0.0
6,87.0,240,420,0.0,0.0
7,78.0,0,180,0.0,0.0
8,59.0,0,180,0.0,0.0
9,54.0,0,180,0.0,0.0
10,63.0,508,180,0.0,0.0
11,75.0,0,210,0.0,0.0
12,87.0,0,210,0.0,0.0
13,47.0,692,210,0.0,0.0
14,47.0,0,420,0.0,0.0
15,73.0,0,420,0.0,0.0
16,85.0,240,420,0.0,0.0
17,61.0,0,180,0.0,0.0
18,52.0,0,180,0.0,0.0
19,76.0,0,180,0.0,0.0
20,56.0,0,180,0.0,0.0
21,80.0,508,180,0.0,0.0
22,73.0,0,210,0.0,0.0
23,85.0,0,210,0.0,0.0
24,47.0,380,210,0.0,0.0
25,47.0,168,420,0.0,0.0
26,83.0,240,120,0.0,0.0
27,82.0,72,120,0.0,0.0
28,80.0,72,120,0.0,0.0
29,61.0,0,180,0.0,0.0
30,54.0,0,180,0.0,0.0
31,64.0,168,180,0.0,0.0
32,78.0,240,120,0.0,0.0
33,47.0,180,210,0.0,0.0
34,80.0,100,120,0.0,0.0
35,82.0,512,150,0.0,0.0
36,47.0,0,420,0.0,0.0
37,85.0,240,420,0.0,0.0
38,71.0,0,180,0.0,0.0
39,59.0,0,180,0.0,0.0
40,83.0,0,180,0.0,0.0
41,63.0,0,180,0.0,0.0
42,54.0,508,180,0.0,0.0
43,82.0,0,210,0.0,0.0
44,51.0,0,210,0.0,0.0
45,75.0,0,210,0.0,0.0
46,78.0,0,210,0.0,0.0
47,70.0,200,210,0.0,0.0
48,44.0,0,420,0.0,0.0
49,68.0,0,420,0.0,0.0
50,80.0,240,420,0.0,0.0
51,56.0,0,180,0.0,0.0
52,75.0,0,180,0.0,0.0
53,59.0,0,180,0.0,0.0
54,51.0,0,180,0.0,0.0
55,71.0,508,180,0.0,0.0
56,44.0,0,210,0.0,0.0
57,68.0,0,210,0.0,0.0
58,80.0,692,210,0.0,0.0
59,46.0,0,420,0.0,0.0
60,66.0,0,420,0.0,0.0
61,78.0,240,420,0.0,0.0
62,54.0,0,180,0.0,0.0
63,51.0,0,180,0.0,0.0
64,58.0,0,180,0.0,0.0
65,70.0,508,180,0.0,0.0
66,46.0,0,210,0.0,0.0
67,66.0,0,210,0.0,0.0
68,78.0,400,210,0.0,0.0
69,44.0,188,420,0.0,0.0
70,77.0,240,150,0.0,0.0
71,75.0,52,150,0.0,0.0
72,53.0,0,180,0.0,0.0
73,58.0,188,180,0.0,0.0
74,74.0,52,150,0.0,0.0
75,75.0,240,150,0.0,0.0
76,44.0,160,210,0.0,0.0
77,77.0,80,150,0.0,0.0
78,78.0,240,150,0.0,0.0
79,42.0,188,420,0.0,0.0
80,77.0,240,150,0.0,0.0
81,75.0,52,150,0.0,0.0
82,74.0,52,150,0.0,0.0
83,54.0,0,180,0.0,0.0
84,58.0,188,180,0.0,0.0
85,75.0,240,150,0.0,0.0
86,51.0,0,210,0.0,0.0
87,77.0,80,150,0.0,0.0
88,39.0,160,210,0.0,0.0
89,78.0,10,150,0.0,0.0
90,47.0,0,420,0.0,0.0
91,75.0,0,420,0.0,0.0
92,35.0,0,420,0.0,0.0
93,87.0,240,420,0.0,0.0
94,78.0,0,180,0.0,0.0
95,59.0,0,180,0.0,0.0
96,54.0,0,180,0.0,0.0
97,63.0,528,180,0.0,0.0
98,75.0,0,240,0.0,0.0
99,87.0,0,240,0.0,0.0
100,47.0,672,240,0.0,0.0
101,47.0,0,420,0.0,0.0
102,73.0,0,420,0.0,0.0
103,85.0,240,420,0.0,0.0
104,52.0,0,180,0.0,0.0
105,76.0,0,180,0.0,0.0
106,56.0,0,180,0.0,0.0
107,80.0,0,180,0.0,0.0
108,61.0,528,180,0.0,0.0
109,73.0,0,240,0.0,0.0
110,85.0,0,240,0.0,0.0
111,47.0,360,240,0.0,0.0
112,47.0,168,420,0.0,0.0
113,83.0,240,120,0.0,0.0
114,82.0,72,120,0.0,0.0
115,80.0,72,120,0.0,0.0
116,61.0,0,180,0.0,0.0
117,54.0,0,180,0.0,0.0
118,64.0,168,180,0.0,0.0
119,78.0,240,120,0.0,0.0
120,47.0,160,240,0.0,0.0
121,80.0,120,120,0.0,0.0
122,82.0,512,150,0.0,0.0
123,47.0,0,420,0.0,0.0
124,85.0,240,420,0.0,0.0
125,71.0,0,180,0.0,0.0
126,59.0,0,180,0.0,0.0
127,83.0,0,180,0.0,0.0
128,63.0,0,180,0.0,0.0
129,54.0,528,180,0.0,0.0
130,82.0,0,240,0.0,0.0
131,51.0,0,240,0.0,0.0
132,75.0,0,240,0.0,0.0
133,78.0,0,240,0.0,0.0
134,70.0,180,240,0.0,0.0
135,68.0,0,420,0.0,0.0
136,80.0,0,420,0.0,0.0
137,44.0,240,420,0.0,0.0
138,56.0,0,180,0.0,0.0
139,75.0,0,180,0.0,0.0
140,59.0,0,180,0.0,0.0
141,51.0,0,180,0.0,0.0
142,71.0,528,180,0.0,0.0
143,44.0,0,240,0.0,0.0
144,68.0,0,240,0.0,0.0
145,80.0,672,240,0.0,0.0
146,46.0,0,420,0.0,0.0
147,66.0,0,420,0.0,0.0
148,78.0,240,420,0.0,0.0
149,54.0,0,180,0.0,0.0
150,51.0,0,180,0.0,0.0
151,58.0,0,180,0.0,0.0
152,70.0,528,180,0.0,0.0
153,46.0,0,240,0.0,0.0
154,66.0,0,240,0.0,0.0
155,78.0,380,240,0.0,0.0
156,44.0,188,420,0.0,0.0
157,77.0,240,150,0.0,0.0
158,75.0,52,150,0.0,0.0
159,53.0,0,180,0.0,0.0
160,58.0,188,180,0.0,0.0
161,74.0,52,150,0.0,0.0
162,75.0,240,150,0.0,0.0
163,44.0,140,240,0.0,0.0
164,77.0,100,150,0.0,0.0
165,78.0,240,150,0.0,0.0
166,42.0,188,420,0.0,0.0
167,77.0,240,150,0.0,0.0
168,75.0,52,150,0.0,0.0
169,74.0,52,150,0.0,0.0
170,54.0,0,180,0.0,0.0
171,58.0,188,180,0.0,0.0
172,75.0,240,150,0.0,0.0
173,51.0,0,240,0.0,0.0
174,77.0,100,150,0.0,0.0
175,39.0,140,240,0.0,0.0
176,78.0,340,150,0.0,0.0
177,76.0,192,240,0.0,0.0
178,42.0,48,420,0.0,0.0
179,66.0,144,1290,0.0,0.0
180,75.0,192,240,0.0,0.0
181,73.0,240,240,0.0,0.0
182,54.0,0,180,0.0,0.0
183,58.0,48,180,0.0,0.0
184,75.0,240,240,0.0,0.0
185,44.0,0,240,0.0,0.0
186,76.0,96,240,0.0,0.0
187,78.0,240,240,0.0,0.0
188,54.0,0,420,0.0,0.0
189,66.0,0,1440,0.0,0.0
190,59.0,48,420,0.0,0.0
191,76.0,192,240,0.0,0.0
192,75.0,192,240,0.0,0.0
193,46.0,48,180,0.0,0.0
194,73.0,240,240,0.0,0.0
195,75.0,240,240,0.0,0.0
196,76.0,0,240,0.0,0.0
197,54.0,0,240,0.0,0.0
198,61.0,240,240,0.0,0.0
199,78.0,240,240,0.0,0.0
200,76.0,192,240,0.0,0.0
201,47.0,0,420,0.0,0.0
202,66.0,48,420,0.0,0.0
203,75.0,192,240,0.0,0.0
204,73.0,240,240,0.0,0.0
205,56.0,0,180,0.0,0.0
206,52.0,48,180,0.0,0.0
207,75.0,240,240,0.0,0.0
208,46.0,0,240,0.0,0.0
209,76.0,168,240,0.0,0.0
210,80.0,224,210,0.0,0.0
211,80.0,280,210,0.0,0.0
212,73.0,0,960,0.0,0.0
213,52.0,0,420,0.0,0.0
214,85.0,240,960,0.0,0.0
215,54.0,240,420,0.0,0.0
216,42.0,288,180,0.0,0.0
217,73.0,288,420,0.0,0.0
218,54.0,0,240,0.0,0.0
219,58.0,192,240,0.0,0.0
220,81.0,192,240,0.0,0.0
221,71.0,144,1290,0.0,0.0
222,47.0,48,420,0.0,0.0
223,80.0,192,240,0.0,0.0
224,78.0,240,240,0.0,0.0
225,63.0,0,180,0.0,0.0
226,59.0,48,180,0.0,0.0
227,80.0,240,240,0.0,0.0
228,49.0,0,240,0.0,0.0
229,81.0,96,240,0.0,0.0
230,83.0,240,240,0.0,0.0
231,64.0,0,420,0.0,0.0
232,59.0,48,420,0.0,0.0
233,71.0,0,1440,0.0,0.0
234,81.0,192,240,0.0,0.0
235,80.0,192,240,0.0,0.0
236,51.0,48,180,0.0,0.0
237,78.0,240,240,0.0,0.0
238,80.0,240,240,0.0,0.0
239,81.0,0,240,0.0,0.0
240,66.0,0,240,0.0,0.0
241,59.0,240,240,0.0,0.0
242,83.0,240,240,0.0,0.0
243,81.0,192,240,0.0,0.0
244,71.0,0,420,0.0,0.0
245,52.0,48,420,0.0,0.0
246,80.0,192,240,0.0,0.0
247,78.0,240,240,0.0,0.0
248,61.0,0,180,0.0,0.0
249,57.0,48,180,0.0,0.0
250,80.0,240,240,0.0,0.0
251,51.0,0,240,0.0,0.0
252,81.0,192,240,0.0,0.0
253,85.0,180,180,0.0,0.0
254,85.0,300,180,0.0,0.0
255,57.0,0,420,0.0,0.0
256,78.0,0,960,0.0,0.0
257,59.0,240,420,0.0,0.0
258,90.0,240,960,0.0,0.0
259,47.0,288,180,0.0,0.0
260,78.0,480,420,0.0,0.0
261,63.0,0,240,0.0,0.0
262,59.0,192,240,0.0,0.0
263,52.0,0,420,0.0,0.0
264,80.0,0,420,0.0,0.0
265,40.0,0,420,0.0,0.0
266,92.0,240,420,0.0,0.0
267,59.0,0,180,0.0,0.0
268,56.0,0,180,0.0,0.0
269,64.0,0,180,0.0,0.0
270,83.0,528,180,0.0,0.0
271,92.0,0,240,0.0,0.0
272,52.0,0,240,0.0,0.0
273,80.0,672,240,0.0,0.0
274,90.0,0,420,0.0,0.0
275,45.0,0,420,0.0,0.0
276,78.0,240,420,0.0,0.0
277,85.0,0,180,0.0,0.0
278,61.0,0,180,0.0,0.0
279,57.0,528,180,0.0,0.0
280,90.0,0,240,0.0,0.0
281,45.0,0,240,0.0,0.0
282,78.0,380,240,0.0,0.0
283,47.0,188,420,0.0,0.0
284,88.0,240,150,0.0,0.0
285,87.0,52,150,0.0,0.0
286,57.0,0,180,0.0,0.0
287,59.0,0,180,0.0,0.0
288,54.0,188,180,0.0,0.0
289,85.0,52,150,0.0,0.0
290,83.0,240,150,0.0,0.0
291,47.0,140,240,0.0,0.0
292,85.0,100,150,0.0,0.0
293,87.0,40,150,0.0,0.0
294,90.0,0,420,0.0,0.0
295,40.0,0,420,0.0,0.0
296,78.0,240,420,0.0,0.0
297,56.0,0,180,0.0,0.0
298,76.0,0,180,0.0,0.0
299,52.0,0,180,0.0,0.0
300,88.0,528,180,0.0,0.0
301,80.0,0,240,0.0,0.0
302,87.0,0,240,0.0,0.0
303,56.0,0,240,0.0,0.0
304,84.0,0,240,0.0,0.0
305,44.0,0,240,0.0,0.0
306,75.0,672,240,0.0,0.0
307,85.0,0,420,0.0,0.0
308,49.0,0,420,0.0,0.0
309,73.0,240,420,0.0,0.0
310,76.0,0,180,0.0,0.0
311,56.0,0,180,0.0,0.0
312,80.0,0,180,0.0,0.0
313,52.0,0,180,0.0,0.0
314,61.0,528,180,0.0,0.0
315,85.0,0,240,0.0,0.0
316,49.0,0,240,0.0,0.0
317,73.0,672,240,0.0,0.0
318,83.0,0,420,0.0,0.0
319,51.0,0,420,0.0,0.0
320,71.0,240,420,0.0,0.0
321,59.0,0,180,0.0,0.0
322,75.0,0,180,0.0,0.0
323,54.0,0,180,0.0,0.0
324,78.0,528,180,0.0,0.0
325,83.0,0,240,0.0,0.0
326,51.0,0,240,0.0,0.0
327,71.0,480,240,0.0,0.0
328,42.0,48,420,0.0,0.0
329,82.0,192,240,0.0,0.0
330,80.0,240,240,0.0,0.0
331,80.0,192,240,0.0,0.0
332,54.0,0,420,0.0,0.0
333,58.0,48,420,0.0,0.0
334,78.0,240,240,0.0,0.0
335,42.0,48,420,0.0,0.0
336,76.0,192,240,0.0,0.0
337,73.0,432,240,0.0,0.0
338,47.0,402,420,0.0,0.0
339,71.0,445,960,0.0,0.0
340,51.0,78,360,0.0,0.0
341,59.0,35,420,0.0,0.0
342,66.0,0,420,0.0,0.0
343,78.0,288,420,0.0,0.0
344,76.0,192,240,0.0,0.0
345,42.0,48,420,0.0,0.0
346,66.0,144,1290,0.0,0.0
347,75.0,192,240,0.0,0.0
348,73.0,240,240,0.0,0.0
349,54.0,0,180,0.0,0.0
350,58.0,48,180,0.0,0.0
351,75.0,240,240,0.0,0.0
352,44.0,0,240,0.0,0.0
353,76.0,96,240,0.0,0.0
354,78.0,240,240,0.0,0.0
355,54.0,0,420,0.0,0.0
356,66.0,0,1440,0.0,0.0
357,59.0,48,420,0.0,0.0
358,76.0,192,240,0.0,0.0
359,75.0,192,240,0.0,0.0
360,46.0,48,180,0.0,0.0
361,73.0,240,240,0.0,0.0
362,75.0,240,240,0.0,0.0
363,76.0,0,240,0.0,0.0
364,54.0,0,240,0.0,0.0
365,61.0,240,240,0.0,0.0
366,78.0,240,240,0.0,0.0
367,76.0,192,240,0.0,0.0
368,47.0,0,420,0.0,0.0
369,66.0,48,420,0.0,0.0
370,75.0,192,240,0.0,0.0
371,73.0,240,240,0.0,0.0
372,56.0,0,180,0.0,0.0
373,52.0,48,180,0.0,0.0
374,75.0,240,240,0.0,0.0
375,46.0,0,240,0.0,0.0
376,76.0,198,240,0.0,0.0
377,80.0,200,240,0.0,0.0
378,80.0,274,210,0.0,0.0
379,73.0,0,960,0.0,0.0
380,52.0,0,420,0.0,0.0
381,85.0,240,960,0.0,0.0
382,54.0,240,420,0.0,0.0
383,42.0,288,180,0.0,0.0
384,73.0,306,420,0.0,0.0
385,54.0,0,240,0.0,0.0
386,58.0,120,240,0.0,0.0
387,81.0,192,240,0.0,0.0
388,71.0,144,1290,0.0,0.0
389,47.0,48,420,0.0,0.0
390,80.0,192,240,0.0,0.0
391,78.0,240,240,0.0,0.0
392,63.0,0,180,0.0,0.0
393,59.0,48,180,0.0,0.0
394,80.0,240,240,0.0,0.0
395,49.0,0,240,0.0,0.0
396,81.0,96,240,0.0,0.0
397,83.0,240,240,0.0,0.0
398,64.0,0,420,0.0,0.0
399,59.0,48,420,0.0,0.0
400,71.0,0,1440,0.0,0.0
401,81.0,192,240,0.0,0.0
402,80.0,192,240,0.0,0.0
403,51.0,48,180,0.0,0.0
404,78.0,240,240,0.0,0.0
405,80.0,240,240,0.0,0.0
406,81.0,0,240,0.0,0.0
407,66.0,0,240,0.0,0.0
408,59.0,240,240,0.0,0.0
409,83.0,240,240,0.0,0.0
410,81.0,192,240,0.0,0.0
411,71.0,0,420,0.0,0.0
412,52.0,48,420,0.0,0.0
413,80.0,192,240,0.0,0.0
414,78.0,240,240,0.0,0.0
415,61.0,0,180,0.0,0.0
416,57.0,48,180,0.0,0.0
417,80.0,240,240,0.0,0.0
418,51.0,0,240,0.0,0.0
419,81.0,194,240,0.0,0.0
420,85.0,180,180,0.0,0.0
421,85.0,298,180,0.0,0.0
422,57.0,0,420,0.0,0.0
423,78.0,0,960,0.0,0.0
424,59.0,240,420,0.0,0.0
425,90.0,240,960,0.0,0.0
426,47.0,288,180,0.0,0.0
427,78.0,480,420,0.0,0.0
428,63.0,0,240,0.0,0.0
429,59.0,192,240,0.0,0.0
430,52.0,0,420,0.0,0.0
431,80.0,0,420,0.0,0.0
432,40.0,0,420,0.0,0.0
433,92.0,240,420,0.0,0.0
434,59.0,0,180,0.0,0.0
435,56.0,0,180,0.0,0.0
436,64.0,0,180,0.0,0.0
437,83.0,528,180,0.0,0.0
438,92.0,0,240,0.0,0.0
439,52.0,0,240,0.0,0.0
440,80.0,672,240,0.0,0.0
441,90.0,0,420,0.0,0.0
442,45.0,0,420,0.0,0.0
443,78.0,240,420,0.0,0.0
444,85.0,0,180,0.0,0.0
445,61.0,0,180,0.0,0.0
446,57.0,528,180,0.0,0.0
447,90.0,0,240,0.0,0.0
448,45.0,0,240,0.0,0.0
449,78.0,380,240,0.0,0.0
450,47.0,188,420,0.0,0.0
451,88.0,240,150,0.0,0.0
452,87.0,52,150,0.0,0.0
453,57.0,0,180,0.0,0.0
454,59.0,0,180,0.0,0.0
455,54.0,188,180,0.0,0.0
456,85.0,52,150,0.0,0.0
457,83.0,240,150,0.0,0.0
458,47.0,140,240,0.0,0.0
459,85.0,100,150,0.0,0.0
460,87.0,532,150,0.0,0.0
461,90.0,0,420,0.0,0.0
462,40.0,0,420,0.0,0.0
463,78.0,240,420,0.0,0.0
464,56.0,0,180,0.0,0.0
465,76.0,0,180,0.0,0.0
466,52.0,0,180,0.0,0.0
467,88.0,528,180,0.0,0.0
468,80.0,0,240,0.0,0.0
469,87.0,0,240,0.0,0.0
470,56.0,0,240,0.0,0.0
471,84.0,0,240,0.0,0.0
472,44.0,0,240,0.0,0.0
473,75.0,672,240,0.0,0.0
474,85.0,0,420,0.0,0.0
475,49.0,0,420,0.0,0.0
476,73.0,240,420,0.0,0.0
477,76.0,0,180,0.0,0.0
478,56.0,0,180,0.0,0.0
479,80.0,0,180,0.0,0.0
480,52.0,0,180,0.0,0.0
481,61.0,528,180,0.0,0.0
482,85.0,0,240,0.0,0.0
483,49.0,0,240,0.0,0.0
484,73.0,672,240,0.0,0.0
485,83.0,0,420,0.0,0.0
486,51.0,0,420,0.0,0.0
487,71.0,240,420,0.0,0.0
488,59.0,0,180,0.0,0.0
489,75.0,0,180,0.0,0.0
490,54.0,0,180,0.0,0.0
491,78.0,528,180,0.0,0.0
492,83.0,0,240,0.0,0.0
493,51.0,0,240,0.0,0.0
494,71.0,480,240,0.0,0.0
495,42.0,48,420,0.0,0.0
496,82.0,192,240,0.0,0.0
497,80.0,240,240,0.0,0.0
498,80.0,192,240,0.0,0.0
499,54.0,0,420,0.0,0.0
500,58.0,48,420,0.0,0.0
501,78.0,240,240,0.0,0.0
502,42.0,48,420,0.0,0.0
503,76.0,192,240,0.0,0.0
504,73.0,432,240,0.0,0.0
505,47.0,328,420,0.0,0.0
506,71.0,0,960,0.0,0.0
507,59.0,0,270,0.0,0.0
508,51.0,200,270,0.0,0.0
