,note,step,duration,channel,velocity
0,70.0,16,180,2.0,0.0
1,58.0,0,150,14.0,0.0
2,62.0,32,150,13.0,0.0
3,65.0,0,150,13.0,0.0
4,74.0,16,15,2.0,0.0
5,60.0,0,150,13.0,0.0
6,57.0,16,150,14.0,0.0
7,65.0,0,150,13.0,0.0
8,72.0,16,15,2.0,0.0
9,74.0,16,15,2.0,0.0
10,72.0,16,15,2.0,0.0
11,74.0,16,15,2.0,0.0
12,72.0,16,15,2.0,0.0
13,74.0,16,15,2.0,0.0
14,72.0,16,15,2.0,0.0
15,74.0,16,15,2.0,0.0
16,72.0,0,15,2.0,0.0
17,70.0,16,15,2.0,0.0
18,72.0,48,15,2.0,0.0
19,62.0,32,150,13.0,0.0
20,65.0,0,150,13.0,0.0
21,58.0,0,150,14.0,0.0
22,74.0,48,40,2.0,0.0
23,72.0,48,40,2.0,0.0
24,70.0,16,40,2.0,0.0
25,72.0,96,40,2.0,0.0
26,74.0,94,90,2.0,0.0
27,75.0,160,90,2.0,0.0
28,58.0,0,90,13.0,0.0
29,55.0,2,90,14.0,0.0
30,58.0,32,150,13.0,0.0
31,74.0,16,180,2.0,0.0
32,53.0,0,150,14.0,0.0
33,74.0,16,15,2.0,0.0
34,53.0,16,150,14.0,0.0
35,57.0,0,150,13.0,0.0
36,72.0,16,15,2.0,0.0
37,74.0,16,15,2.0,0.0
38,72.0,16,15,2.0,0.0
39,74.0,16,15,2.0,0.0
40,72.0,16,15,2.0,0.0
41,74.0,16,15,2.0,0.0
42,72.0,16,15,2.0,0.0
43,74.0,16,15,2.0,0.0
44,72.0,0,15,2.0,0.0
45,70.0,16,15,2.0,0.0
46,72.0,48,15,2.0,0.0
47,74.0,48,40,2.0,0.0
48,46.0,32,150,14.0,0.0
49,58.0,0,150,13.0,0.0
50,72.0,48,40,2.0,0.0
51,70.0,16,40,2.0,0.0
52,72.0,96,40,2.0,0.0
53,74.0,94,90,2.0,0.0
54,57.0,2,90,13.0,0.0
55,75.0,160,90,2.0,0.0
56,53.0,0,90,14.0,0.0
57,58.0,32,150,13.0,0.0
58,46.0,0,150,14.0,0.0
59,74.0,16,180,2.0,0.0
60,77.0,16,15,2.0,0.0
61,60.0,0,150,14.0,0.0
62,63.0,0,150,13.0,0.0
63,69.0,0,150,13.0,0.0
64,75.0,16,15,2.0,0.0
65,77.0,16,15,2.0,0.0
66,75.0,16,15,2.0,0.0
67,77.0,16,15,2.0,0.0
68,75.0,16,15,2.0,0.0
69,77.0,16,15,2.0,0.0
70,75.0,16,15,2.0,0.0
71,77.0,16,15,2.0,0.0
72,75.0,16,15,2.0,0.0
73,74.0,16,15,2.0,0.0
74,75.0,48,15,2.0,0.0
75,62.0,0,150,14.0,0.0
76,70.0,32,150,13.0,0.0
77,65.0,0,150,13.0,0.0
78,77.0,48,40,2.0,0.0
79,75.0,48,40,2.0,0.0
80,74.0,16,40,2.0,0.0
81,75.0,96,40,2.0,0.0
82,77.0,94,90,2.0,0.0
83,69.0,2,90,13.0,0.0
84,63.0,0,90,14.0,0.0
85,79.0,160,90,2.0,0.0
86,62.0,32,150,14.0,0.0
87,77.0,16,180,2.0,0.0
88,70.0,0,150,13.0,0.0
89,75.0,16,15,2.0,0.0
90,65.0,0,150,13.0,0.0
91,58.0,32,150,14.0,0.0
92,62.0,0,150,13.0,0.0
93,74.0,16,15,2.0,0.0
94,75.0,16,15,2.0,0.0
95,74.0,16,15,2.0,0.0
96,75.0,16,15,2.0,0.0
97,74.0,24,15,2.0,0.0
98,72.0,24,20,2.0,0.0
99,74.0,16,20,2.0,0.0
100,75.0,16,40,2.0,0.0
101,53.0,32,150,14.0,0.0
102,57.0,0,150,13.0,0.0
103,74.0,16,15,2.0,0.0
104,60.0,0,150,13.0,0.0
105,72.0,16,15,2.0,0.0
106,74.0,112,15,2.0,0.0
107,72.0,48,150,2.0,0.0
108,65.0,24,20,2.0,0.0
109,67.0,24,20,2.0,0.0
110,69.0,24,20,2.0,0.0
111,69.0,24,20,2.0,0.0
112,67.0,24,20,2.0,0.0
113,69.0,24,20,2.0,0.0
114,70.0,160,20,2.0,0.0
115,62.0,32,150,13.0,0.0
116,58.0,0,150,14.0,0.0
117,65.0,0,150,13.0,0.0
118,70.0,16,180,2.0,0.0
119,57.0,0,150,14.0,0.0
120,65.0,16,150,13.0,0.0
121,60.0,0,150,13.0,0.0
122,74.0,16,15,2.0,0.0
123,72.0,16,15,2.0,0.0
124,74.0,16,15,2.0,0.0
125,72.0,16,15,2.0,0.0
126,74.0,16,15,2.0,0.0
127,72.0,16,15,2.0,0.0
128,74.0,16,15,2.0,0.0
129,72.0,16,15,2.0,0.0
130,74.0,16,15,2.0,0.0
131,72.0,0,15,2.0,0.0
132,70.0,16,15,2.0,0.0
133,72.0,48,15,2.0,0.0
134,74.0,48,40,2.0,0.0
135,62.0,0,150,13.0,0.0
136,58.0,0,150,14.0,0.0
137,65.0,32,150,13.0,0.0
138,72.0,48,40,2.0,0.0
139,70.0,16,40,2.0,0.0
140,72.0,96,40,2.0,0.0
141,74.0,94,90,2.0,0.0
142,58.0,2,90,13.0,0.0
143,75.0,160,90,2.0,0.0
144,55.0,0,90,14.0,0.0
145,74.0,16,180,2.0,0.0
146,58.0,0,150,13.0,0.0
147,53.0,32,150,14.0,0.0
148,53.0,16,150,14.0,0.0
149,57.0,0,150,13.0,0.0
150,74.0,16,15,2.0,0.0
151,72.0,16,15,2.0,0.0
152,74.0,16,15,2.0,0.0
153,72.0,16,15,2.0,0.0
154,74.0,16,15,2.0,0.0
155,72.0,16,15,2.0,0.0
156,74.0,16,15,2.0,0.0
157,72.0,16,15,2.0,0.0
158,74.0,16,15,2.0,0.0
159,72.0,0,15,2.0,0.0
160,70.0,16,15,2.0,0.0
161,72.0,48,15,2.0,0.0
162,74.0,48,40,2.0,0.0
163,46.0,0,150,14.0,0.0
164,58.0,32,150,13.0,0.0
165,72.0,48,40,2.0,0.0
166,70.0,16,40,2.0,0.0
167,72.0,96,40,2.0,0.0
168,74.0,94,90,2.0,0.0
169,57.0,2,90,13.0,0.0
170,53.0,0,90,14.0,0.0
171,75.0,160,90,2.0,0.0
172,58.0,32,150,13.0,0.0
173,46.0,0,150,14.0,0.0
174,74.0,16,180,2.0,0.0
175,69.0,0,150,13.0,0.0
176,63.0,0,150,13.0,0.0
177,77.0,16,15,2.0,0.0
178,60.0,0,150,14.0,0.0
179,75.0,16,15,2.0,0.0
180,77.0,16,15,2.0,0.0
181,75.0,16,15,2.0,0.0
182,77.0,16,15,2.0,0.0
183,75.0,16,15,2.0,0.0
184,77.0,16,15,2.0,0.0
185,75.0,16,15,2.0,0.0
186,77.0,16,15,2.0,0.0
187,75.0,16,15,2.0,0.0
188,74.0,16,15,2.0,0.0
189,75.0,48,15,2.0,0.0
190,77.0,48,40,2.0,0.0
191,62.0,0,150,14.0,0.0
192,70.0,32,150,13.0,0.0
193,65.0,0,150,13.0,0.0
194,75.0,48,40,2.0,0.0
195,74.0,16,40,2.0,0.0
196,75.0,96,40,2.0,0.0
197,77.0,94,90,2.0,0.0
198,63.0,2,90,14.0,0.0
199,69.0,0,90,13.0,0.0
200,79.0,160,90,2.0,0.0
201,77.0,16,180,2.0,0.0
202,62.0,0,150,14.0,0.0
203,70.0,32,150,13.0,0.0
204,75.0,16,15,2.0,0.0
205,58.0,0,150,14.0,0.0
206,62.0,32,150,13.0,0.0
207,65.0,0,150,13.0,0.0
208,74.0,16,15,2.0,0.0
209,75.0,16,15,2.0,0.0
210,74.0,16,15,2.0,0.0
211,75.0,16,15,2.0,0.0
212,74.0,24,15,2.0,0.0
213,72.0,24,20,2.0,0.0
214,74.0,16,20,2.0,0.0
215,75.0,16,40,2.0,0.0
216,74.0,16,15,2.0,0.0
217,53.0,0,150,14.0,0.0
218,57.0,32,150,13.0,0.0
219,60.0,0,150,13.0,0.0
220,72.0,16,15,2.0,0.0
221,74.0,112,15,2.0,0.0
222,72.0,48,150,2.0,0.0
223,65.0,24,20,2.0,0.0
224,67.0,24,20,2.0,0.0
225,69.0,24,20,2.0,0.0
226,69.0,24,20,2.0,0.0
227,67.0,24,20,2.0,0.0
228,69.0,24,20,2.0,0.0
229,70.0,160,20,2.0,0.0
230,60.0,0,150,13.0,0.0
231,72.0,96,180,2.0,0.0
232,53.0,32,150,14.0,0.0
233,57.0,0,150,13.0,0.0
234,58.0,0,150,13.0,0.0
235,46.0,32,150,14.0,0.0
236,74.0,48,90,2.0,0.0
237,72.0,16,40,2.0,0.0
238,70.0,48,40,2.0,0.0
239,60.0,0,150,13.0,0.0
240,69.0,48,40,2.0,0.0
241,53.0,32,150,14.0,0.0
242,67.0,48,40,2.0,0.0
243,65.0,16,40,2.0,0.0
244,67.0,96,40,2.0,0.0
245,69.0,94,90,2.0,0.0
246,53.0,0,90,13.0,0.0
247,70.0,96,90,2.0,0.0
248,50.0,2,90,14.0,0.0
249,51.0,0,150,14.0,0.0
250,72.0,64,90,2.0,0.0
251,55.0,32,150,13.0,0.0
252,74.0,16,90,2.0,0.0
253,57.0,0,150,13.0,0.0
254,75.0,16,15,2.0,0.0
255,53.0,0,150,14.0,0.0
256,74.0,16,15,2.0,0.0
257,75.0,16,15,2.0,0.0
258,74.0,16,15,2.0,0.0
259,75.0,16,15,2.0,0.0
260,74.0,16,15,2.0,0.0
261,75.0,16,15,2.0,0.0
262,74.0,16,15,2.0,0.0
263,75.0,16,15,2.0,0.0
264,74.0,16,15,2.0,0.0
265,72.0,16,15,2.0,0.0
266,74.0,48,15,2.0,0.0
267,55.0,32,150,14.0,0.0
268,58.0,0,150,13.0,0.0
269,75.0,48,40,2.0,0.0
270,74.0,48,40,2.0,0.0
271,72.0,16,40,2.0,0.0
272,74.0,96,40,2.0,0.0
273,75.0,94,90,2.0,0.0
274,57.0,0,90,14.0,0.0
275,60.0,2,90,13.0,0.0
276,77.0,160,90,2.0,0.0
277,74.0,16,180,2.0,0.0
278,58.0,0,150,14.0,0.0
279,65.0,32,150,13.0,0.0
280,65.0,0,150,13.0,0.0
281,74.0,16,15,2.0,0.0
282,57.0,0,150,14.0,0.0
283,72.0,16,15,2.0,0.0
284,74.0,16,15,2.0,0.0
285,72.0,16,15,2.0,0.0
286,74.0,16,15,2.0,0.0
287,72.0,16,15,2.0,0.0
288,74.0,16,15,2.0,0.0
289,72.0,16,15,2.0,0.0
290,74.0,16,15,2.0,0.0
291,72.0,16,15,2.0,0.0
292,70.0,16,15,2.0,0.0
293,72.0,48,15,2.0,0.0
294,65.0,0,150,13.0,0.0
295,58.0,32,150,14.0,0.0
296,74.0,48,40,2.0,0.0
297,72.0,48,40,2.0,0.0
298,70.0,16,40,2.0,0.0
299,72.0,96,40,2.0,0.0
300,74.0,94,90,2.0,0.0
301,75.0,160,90,2.0,0.0
302,58.0,0,90,13.0,0.0
303,55.0,2,90,14.0,0.0
304,63.0,0,150,13.0,0.0
305,51.0,32,150,14.0,0.0
306,72.0,16,180,2.0,0.0
307,53.0,16,150,14.0,0.0
308,60.0,0,150,13.0,0.0
309,70.0,16,15,2.0,0.0
310,69.0,16,15,2.0,0.0
311,70.0,16,15,2.0,0.0
312,69.0,16,15,2.0,0.0
313,70.0,16,15,2.0,0.0
314,69.0,16,15,2.0,0.0
315,70.0,16,15,2.0,0.0
316,69.0,16,15,2.0,0.0
317,70.0,16,15,2.0,0.0
318,69.0,0,15,2.0,0.0
319,67.0,16,15,2.0,0.0
320,69.0,160,15,2.0,0.0
321,70.0,60,180,2.0,0.0
322,46.0,32,150,14.0,0.0
323,58.0,0,150,13.0,0.0
324,72.0,12,15,2.0,0.0
325,70.0,12,15,2.0,0.0
326,69.0,12,15,2.0,0.0
327,70.0,16,15,2.0,0.0
328,72.0,16,15,2.0,0.0
329,70.0,16,15,2.0,0.0
330,72.0,16,15,2.0,0.0
331,70.0,16,15,2.0,0.0
332,69.0,16,15,2.0,0.0
333,70.0,160,15,2.0,0.0
334,53.0,0,150,14.0,0.0
335,57.0,0,150,13.0,0.0
336,60.0,32,150,13.0,0.0
337,72.0,96,180,2.0,0.0
338,46.0,0,150,14.0,0.0
339,58.0,32,150,13.0,0.0
340,74.0,48,90,2.0,0.0
341,72.0,16,40,2.0,0.0
342,70.0,48,40,2.0,0.0
343,69.0,48,40,2.0,0.0
344,53.0,32,150,14.0,0.0
345,60.0,0,150,13.0,0.0
346,67.0,48,40,2.0,0.0
347,65.0,16,40,2.0,0.0
348,67.0,96,40,2.0,0.0
349,69.0,94,90,2.0,0.0
350,70.0,96,90,2.0,0.0
351,50.0,0,90,14.0,0.0
352,53.0,2,90,13.0,0.0
353,51.0,32,150,14.0,0.0
354,55.0,0,150,13.0,0.0
355,72.0,64,90,2.0,0.0
356,74.0,16,90,2.0,0.0
357,57.0,0,150,13.0,0.0
358,53.0,16,150,14.0,0.0
359,75.0,16,15,2.0,0.0
360,74.0,16,15,2.0,0.0
361,75.0,16,15,2.0,0.0
362,74.0,16,15,2.0,0.0
363,75.0,16,15,2.0,0.0
364,74.0,16,15,2.0,0.0
365,75.0,16,15,2.0,0.0
366,74.0,16,15,2.0,0.0
367,75.0,16,15,2.0,0.0
368,74.0,0,15,2.0,0.0
369,72.0,16,15,2.0,0.0
370,74.0,48,15,2.0,0.0
371,75.0,48,40,2.0,0.0
372,58.0,32,150,13.0,0.0
373,55.0,0,150,14.0,0.0
374,74.0,48,40,2.0,0.0
375,72.0,16,40,2.0,0.0
376,74.0,96,40,2.0,0.0
377,75.0,94,90,2.0,0.0
378,77.0,160,90,2.0,0.0
379,60.0,0,90,13.0,0.0
380,57.0,2,90,14.0,0.0
381,58.0,32,150,14.0,0.0
382,65.0,0,150,13.0,0.0
383,74.0,16,180,2.0,0.0
384,57.0,0,150,14.0,0.0
385,65.0,16,150,13.0,0.0
386,74.0,16,15,2.0,0.0
387,72.0,16,15,2.0,0.0
388,74.0,16,15,2.0,0.0
389,72.0,16,15,2.0,0.0
390,74.0,16,15,2.0,0.0
391,72.0,16,15,2.0,0.0
392,74.0,16,15,2.0,0.0
393,72.0,16,15,2.0,0.0
394,74.0,16,15,2.0,0.0
395,72.0,0,15,2.0,0.0
396,70.0,16,15,2.0,0.0
397,72.0,48,15,2.0,0.0
398,74.0,48,40,2.0,0.0
399,65.0,32,150,13.0,0.0
400,58.0,0,150,14.0,0.0
401,72.0,48,40,2.0,0.0
402,70.0,16,40,2.0,0.0
403,72.0,96,40,2.0,0.0
404,74.0,94,90,2.0,0.0
405,75.0,160,90,2.0,0.0
406,55.0,0,90,14.0,0.0
407,58.0,2,90,13.0,0.0
408,51.0,32,150,14.0,0.0
409,72.0,16,180,2.0,0.0
410,63.0,0,150,13.0,0.0
411,53.0,0,150,14.0,0.0
412,60.0,16,150,13.0,0.0
413,70.0,16,15,2.0,0.0
414,69.0,16,15,2.0,0.0
415,70.0,16,15,2.0,0.0
416,69.0,16,15,2.0,0.0
417,70.0,16,15,2.0,0.0
418,69.0,16,15,2.0,0.0
419,70.0,16,15,2.0,0.0
420,69.0,16,15,2.0,0.0
421,70.0,16,15,2.0,0.0
422,69.0,0,15,2.0,0.0
423,67.0,16,15,2.0,0.0
424,69.0,160,15,2.0,0.0
425,58.0,0,150,13.0,0.0
426,46.0,32,150,14.0,0.0
427,70.0,120,180,2.0,0.0
428,65.0,24,20,1.0,0.0
429,64.0,24,20,1.0,0.0
430,65.0,24,20,1.0,0.0
431,67.0,24,20,1.0,0.0
432,69.0,32,20,1.0,0.0
433,82.0,0,30,0.0,0.0
434,46.0,48,90,15.0,0.0
435,70.0,0,30,1.0,0.0
436,69.0,0,30,1.0,0.0
437,81.0,0,30,0.0,0.0
438,70.0,0,90,1.0,0.0
439,62.0,0,90,12.0,0.0
440,65.0,0,90,11.0,0.0
441,58.0,48,40,14.0,0.0
442,82.0,0,90,0.0,0.0
443,53.0,0,40,14.0,0.0
444,72.0,48,30,1.0,0.0
445,84.0,0,30,0.0,0.0
446,41.0,48,90,15.0,0.0
447,70.0,0,30,1.0,0.0
448,82.0,0,30,0.0,0.0
449,65.0,0,90,12.0,0.0
450,84.0,0,90,0.0,0.0
451,69.0,34,90,11.0,0.0
452,72.0,0,90,1.0,0.0
453,57.0,48,40,14.0,0.0
454,53.0,0,40,14.0,0.0
455,74.0,0,30,1.0,0.0
456,46.0,48,90,15.0,0.0
457,86.0,0,30,0.0,0.0
458,72.0,0,30,1.0,0.0
459,84.0,0,30,0.0,0.0
460,74.0,0,150,1.0,0.0
461,70.0,0,90,11.0,0.0
462,65.0,0,90,12.0,0.0
463,86.0,0,150,0.0,0.0
464,58.0,48,40,14.0,0.0
465,53.0,48,40,14.0,0.0
466,46.0,34,90,15.0,0.0
467,89.0,0,30,0.0,0.0
468,77.0,0,30,1.0,0.0
469,63.0,0,90,11.0,0.0
470,43.0,34,90,15.0,0.0
471,63.0,0,90,12.0,0.0
472,75.0,0,30,1.0,0.0
473,87.0,0,30,0.0,0.0
474,70.0,0,30,1.0,0.0
475,82.0,0,30,0.0,0.0
476,41.0,48,90,15.0,0.0
477,86.0,0,30,0.0,0.0
478,74.0,0,30,1.0,0.0
479,84.0,0,30,0.0,0.0
480,72.0,0,30,1.0,0.0
481,74.0,0,90,1.0,0.0
482,70.0,0,90,11.0,0.0
483,58.0,48,40,14.0,0.0
484,86.0,0,90,0.0,0.0
485,65.0,0,90,12.0,0.0
486,53.0,0,40,14.0,0.0
487,41.0,48,90,15.0,0.0
488,72.0,48,30,1.0,0.0
489,84.0,0,30,0.0,0.0
490,70.0,0,30,1.0,0.0
491,82.0,0,30,0.0,0.0
492,57.0,48,40,14.0,0.0
493,84.0,0,90,0.0,0.0
494,69.0,34,90,11.0,0.0
495,72.0,0,90,1.0,0.0
496,65.0,0,90,12.0,0.0
497,53.0,0,40,14.0,0.0
498,46.0,48,90,15.0,0.0
499,86.0,0,30,0.0,0.0
500,74.0,0,30,1.0,0.0
501,72.0,0,30,1.0,0.0
502,84.0,0,30,0.0,0.0
503,65.0,48,90,12.0,0.0
504,70.0,0,90,11.0,0.0
505,58.0,48,40,14.0,0.0
506,86.0,0,150,0.0,0.0
507,74.0,34,150,1.0,0.0
508,53.0,0,40,14.0,0.0
509,46.0,34,90,15.0,0.0
510,77.0,0,30,1.0,0.0
511,89.0,0,30,0.0,0.0
512,69.0,34,90,11.0,0.0
513,87.0,0,30,0.0,0.0
514,75.0,48,30,1.0,0.0
515,41.0,0,90,15.0,0.0
516,65.0,0,90,12.0,0.0
517,72.0,0,30,1.0,0.0
518,84.0,0,30,0.0,0.0
519,86.0,0,30,0.0,0.0
520,46.0,48,90,15.0,0.0
521,74.0,0,30,1.0,0.0
522,72.0,0,30,1.0,0.0
523,84.0,0,30,0.0,0.0
524,70.0,0,90,11.0,0.0
525,74.0,0,90,1.0,0.0
526,65.0,34,90,12.0,0.0
527,86.0,0,90,0.0,0.0
528,58.0,48,40,14.0,0.0
529,53.0,0,40,14.0,0.0
530,48.0,48,90,15.0,0.0
531,87.0,0,30,0.0,0.0
532,75.0,0,30,1.0,0.0
533,86.0,0,30,0.0,0.0
534,74.0,14,30,1.0,0.0
535,69.0,0,90,11.0,0.0
536,75.0,0,90,1.0,0.0
537,60.0,48,40,14.0,0.0
538,65.0,0,90,12.0,0.0
539,87.0,0,90,0.0,0.0
540,53.0,0,40,14.0,0.0
541,50.0,48,90,15.0,0.0
542,89.0,0,30,0.0,0.0
543,77.0,48,30,1.0,0.0
544,87.0,0,30,0.0,0.0
545,75.0,14,30,1.0,0.0
546,65.0,0,90,12.0,0.0
547,70.0,0,90,11.0,0.0
548,77.0,0,150,1.0,0.0
549,89.0,0,150,0.0,0.0
550,62.0,48,40,14.0,0.0
551,58.0,48,40,14.0,0.0
552,50.0,34,90,15.0,0.0
553,82.0,14,30,1.0,0.0
554,94.0,0,30,0.0,0.0
555,79.0,0,30,1.0,0.0
556,91.0,48,30,0.0,0.0
557,70.0,34,90,11.0,0.0
558,70.0,0,90,12.0,0.0
559,51.0,0,90,15.0,0.0
560,75.0,14,30,1.0,0.0
561,87.0,0,30,0.0,0.0
562,77.0,0,30,1.0,0.0
563,50.0,48,90,15.0,0.0
564,89.0,0,30,0.0,0.0
565,75.0,0,30,1.0,0.0
566,87.0,0,30,0.0,0.0
567,65.0,48,90,12.0,0.0
568,89.0,0,150,0.0,0.0
569,77.0,0,150,1.0,0.0
570,70.0,0,90,11.0,0.0
571,58.0,48,40,14.0,0.0
572,53.0,0,40,14.0,0.0
573,46.0,34,90,15.0,0.0
574,94.0,0,30,0.0,0.0
575,82.0,14,30,1.0,0.0
576,77.0,14,30,1.0,0.0
577,62.0,34,40,14.0,0.0
578,89.0,0,30,0.0,0.0
579,65.0,96,90,12.0,0.0
580,70.0,0,90,11.0,0.0
581,58.0,0,40,14.0,0.0
582,86.0,0,30,0.0,0.0
583,74.0,14,30,1.0,0.0
584,84.0,0,150,0.0,0.0
585,69.0,8,150,11.0,0.0
586,72.0,18,150,1.0,0.0
587,41.0,48,90,15.0,0.0
588,65.0,0,150,12.0,0.0
589,60.0,0,40,14.0,0.0
590,86.0,22,20,0.0,0.0
591,57.0,2,40,14.0,0.0
592,87.0,24,20,0.0,0.0
593,89.0,24,20,0.0,0.0
594,41.0,2,90,15.0,0.0
595,91.0,24,20,0.0,0.0
596,93.0,22,20,0.0,0.0
597,94.0,24,20,0.0,0.0
598,96.0,24,20,0.0,0.0
599,94.0,24,20,0.0,0.0
600,93.0,24,20,0.0,0.0
601,91.0,24,20,0.0,0.0
602,89.0,24,20,0.0,0.0
603,87.0,24,20,0.0,0.0
604,86.0,22,20,0.0,0.0
605,84.0,34,20,0.0,0.0
606,46.0,48,90,15.0,0.0
607,70.0,0,30,1.0,0.0
608,82.0,0,30,0.0,0.0
609,69.0,0,30,1.0,0.0
610,81.0,0,30,0.0,0.0
611,65.0,0,90,11.0,0.0
612,58.0,48,40,14.0,0.0
613,82.0,0,90,0.0,0.0
614,70.0,0,90,1.0,0.0
615,62.0,34,90,12.0,0.0
616,53.0,0,40,14.0,0.0
617,41.0,48,90,15.0,0.0
618,72.0,0,30,1.0,0.0
619,84.0,0,30,0.0,0.0
620,70.0,0,30,1.0,0.0
621,82.0,0,30,0.0,0.0
622,72.0,0,90,1.0,0.0
623,84.0,0,90,0.0,0.0
624,69.0,0,90,11.0,0.0
625,57.0,48,40,14.0,0.0
626,65.0,0,90,12.0,0.0
627,53.0,34,40,14.0,0.0
628,46.0,48,90,15.0,0.0
629,86.0,0,30,0.0,0.0
630,74.0,0,30,1.0,0.0
631,72.0,14,30,1.0,0.0
632,84.0,0,30,0.0,0.0
633,65.0,0,90,12.0,0.0
634,74.0,0,150,1.0,0.0
635,70.0,48,90,11.0,0.0
636,86.0,0,150,0.0,0.0
637,58.0,48,40,14.0,0.0
638,53.0,0,40,14.0,0.0
639,46.0,34,90,15.0,0.0
640,77.0,0,30,1.0,0.0
641,89.0,0,30,0.0,0.0
642,63.0,34,90,12.0,0.0
643,43.0,0,90,15.0,0.0
644,63.0,0,90,11.0,0.0
645,75.0,48,30,1.0,0.0
646,87.0,0,30,0.0,0.0
647,70.0,14,30,1.0,0.0
648,82.0,0,30,0.0,0.0
649,41.0,48,90,15.0,0.0
650,74.0,0,30,1.0,0.0
651,86.0,0,30,0.0,0.0
652,84.0,0,30,0.0,0.0
653,72.0,0,30,1.0,0.0
654,70.0,0,90,11.0,0.0
655,58.0,48,40,14.0,0.0
656,74.0,34,90,1.0,0.0
657,65.0,0,90,12.0,0.0
658,86.0,0,90,0.0,0.0
659,53.0,0,40,14.0,0.0
660,41.0,48,90,15.0,0.0
661,84.0,0,30,0.0,0.0
662,72.0,0,30,1.0,0.0
663,70.0,0,30,1.0,0.0
664,82.0,0,30,0.0,0.0
665,84.0,0,90,0.0,0.0
666,65.0,0,90,12.0,0.0
667,69.0,34,90,11.0,0.0
668,72.0,0,90,1.0,0.0
669,57.0,48,40,14.0,0.0
670,53.0,0,40,14.0,0.0
671,74.0,48,30,1.0,0.0
672,86.0,0,30,0.0,0.0
673,46.0,48,90,15.0,0.0
674,72.0,0,30,1.0,0.0
675,84.0,0,30,0.0,0.0
676,70.0,0,90,11.0,0.0
677,74.0,0,150,1.0,0.0
678,86.0,0,150,0.0,0.0
679,65.0,0,90,12.0,0.0
680,58.0,48,40,14.0,0.0
681,53.0,48,40,14.0,0.0
682,46.0,34,90,15.0,0.0
683,89.0,0,30,0.0,0.0
684,77.0,0,30,1.0,0.0
685,41.0,0,90,15.0,0.0
686,87.0,0,30,0.0,0.0
687,69.0,0,90,11.0,0.0
688,65.0,34,90,12.0,0.0
689,75.0,0,30,1.0,0.0
690,72.0,14,30,1.0,0.0
691,84.0,0,30,0.0,0.0
692,74.0,0,30,1.0,0.0
693,86.0,0,30,0.0,0.0
694,46.0,48,90,15.0,0.0
695,84.0,0,30,0.0,0.0
696,72.0,14,30,1.0,0.0
697,65.0,0,90,12.0,0.0
698,58.0,48,40,14.0,0.0
699,70.0,0,90,11.0,0.0
700,86.0,0,90,0.0,0.0
701,74.0,0,90,1.0,0.0
702,53.0,0,40,14.0,0.0
703,75.0,0,30,1.0,0.0
704,48.0,48,90,15.0,0.0
705,87.0,0,30,0.0,0.0
706,74.0,0,30,1.0,0.0
707,86.0,0,30,0.0,0.0
708,69.0,34,90,11.0,0.0
709,75.0,0,90,1.0,0.0
710,60.0,48,40,14.0,0.0
711,87.0,0,90,0.0,0.0
712,65.0,0,90,12.0,0.0
713,53.0,0,40,14.0,0.0
714,50.0,48,90,15.0,0.0
715,77.0,0,30,1.0,0.0
716,89.0,0,30,0.0,0.0
717,75.0,0,30,1.0,0.0
718,87.0,0,30,0.0,0.0
719,77.0,34,150,1.0,0.0
720,89.0,0,150,0.0,0.0
721,70.0,0,90,11.0,0.0
722,65.0,48,90,12.0,0.0
723,62.0,48,40,14.0,0.0
724,58.0,0,40,14.0,0.0
725,50.0,34,90,15.0,0.0
726,94.0,0,30,0.0,0.0
727,82.0,14,30,1.0,0.0
728,70.0,34,90,11.0,0.0
729,70.0,0,90,12.0,0.0
730,91.0,48,30,0.0,0.0
731,79.0,0,30,1.0,0.0
732,51.0,0,90,15.0,0.0
733,75.0,0,30,1.0,0.0
734,87.0,14,30,0.0,0.0
735,77.0,48,30,1.0,0.0
736,50.0,48,90,15.0,0.0
737,89.0,0,30,0.0,0.0
738,75.0,0,30,1.0,0.0
739,87.0,0,30,0.0,0.0
740,77.0,34,150,1.0,0.0
741,70.0,48,90,11.0,0.0
742,65.0,0,90,12.0,0.0
743,89.0,0,150,0.0,0.0
744,58.0,48,40,14.0,0.0
745,53.0,0,40,14.0,0.0
746,46.0,34,90,15.0,0.0
747,94.0,14,30,0.0,0.0
748,82.0,0,30,1.0,0.0
749,65.0,0,90,12.0,0.0
750,62.0,34,40,14.0,0.0
751,77.0,0,30,1.0,0.0
752,70.0,0,90,11.0,0.0
753,89.0,14,30,0.0,0.0
754,74.0,14,30,1.0,0.0
755,86.0,0,30,0.0,0.0
756,58.0,96,40,14.0,0.0
757,41.0,48,90,15.0,0.0
758,69.0,0,150,11.0,0.0
759,72.0,0,150,1.0,0.0
760,65.0,8,150,12.0,0.0
761,84.0,0,150,0.0,0.0
762,60.0,2,40,14.0,0.0
763,86.0,22,20,0.0,0.0
764,57.0,2,40,14.0,0.0
765,87.0,24,20,0.0,0.0
766,89.0,24,20,0.0,0.0
767,41.0,2,90,15.0,0.0
768,91.0,24,20,0.0,0.0
769,93.0,22,20,0.0,0.0
770,94.0,24,20,0.0,0.0
771,96.0,24,20,0.0,0.0
772,94.0,24,20,0.0,0.0
773,93.0,24,20,0.0,0.0
774,91.0,24,20,0.0,0.0
775,89.0,24,20,0.0,0.0
776,87.0,22,20,0.0,0.0
777,86.0,34,20,0.0,0.0
778,84.0,0,30,0.0,0.0
779,72.0,48,30,1.0,0.0
780,41.0,48,90,15.0,0.0
781,82.0,0,30,0.0,0.0
782,70.0,0,30,1.0,0.0
783,57.0,48,40,14.0,0.0
784,72.0,32,150,1.0,0.0
785,69.0,0,90,12.0,0.0
786,84.0,0,150,0.0,0.0
787,65.0,50,90,13.0,0.0
788,53.0,0,40,14.0,0.0
789,41.0,34,90,15.0,0.0
790,75.0,0,30,1.0,0.0
791,87.0,0,30,0.0,0.0
792,74.0,48,30,1.0,0.0
793,46.0,0,90,15.0,0.0
794,65.0,34,90,12.0,0.0
795,65.0,0,90,13.0,0.0
796,86.0,0,30,0.0,0.0
797,70.0,0,30,1.0,0.0
798,82.0,0,30,0.0,0.0
799,69.0,48,30,1.0,0.0
800,41.0,48,90,15.0,0.0
801,81.0,0,30,0.0,0.0
802,67.0,14,30,1.0,0.0
803,79.0,0,30,0.0,0.0
804,57.0,48,40,14.0,0.0
805,69.0,0,150,1.0,0.0
806,81.0,0,150,0.0,0.0
807,60.0,0,90,13.0,0.0
808,65.0,48,90,12.0,0.0
809,53.0,0,40,14.0,0.0
810,41.0,34,90,15.0,0.0
811,72.0,14,30,1.0,0.0
812,84.0,0,30,0.0,0.0
813,82.0,48,30,0.0,0.0
814,50.0,0,90,14.0,0.0
815,70.0,0,30,1.0,0.0
816,38.0,0,90,15.0,0.0
817,74.0,0,40,1.0,0.0
818,65.0,14,30,1.0,0.0
819,86.0,34,40,0.0,0.0
820,77.0,0,30,0.0,0.0
821,84.0,14,30,0.0,0.0
822,51.0,0,90,14.0,0.0
823,39.0,34,90,15.0,0.0
824,72.0,0,30,1.0,0.0
825,67.0,0,40,1.0,0.0
826,75.0,0,30,1.0,0.0
827,87.0,14,30,0.0,0.0
828,79.0,0,30,0.0,0.0
829,41.0,34,90,15.0,0.0
830,86.0,14,30,0.0,0.0
831,74.0,0,30,1.0,0.0
832,53.0,0,90,14.0,0.0
833,69.0,0,40,1.0,0.0
834,77.0,14,30,1.0,0.0
835,89.0,0,30,0.0,0.0
836,81.0,0,30,0.0,0.0
837,87.0,14,30,0.0,0.0
838,43.0,0,90,15.0,0.0
839,75.0,0,30,1.0,0.0
840,55.0,34,90,14.0,0.0
841,79.0,0,30,1.0,0.0
842,70.0,0,30,1.0,0.0
843,82.0,14,30,0.0,0.0
844,91.0,0,30,0.0,0.0
845,89.0,14,30,0.0,0.0
846,77.0,0,30,1.0,0.0
847,57.0,0,90,14.0,0.0
848,45.0,50,90,15.0,0.0
849,84.0,0,30,0.0,0.0
850,72.0,14,30,1.0,0.0
851,43.0,2,90,15.0,0.0
852,99.0,24,20,0.0,0.0
853,98.0,22,20,0.0,0.0
854,96.0,24,20,0.0,0.0
855,94.0,22,20,0.0,0.0
856,63.0,2,40,14.0,0.0
857,93.0,24,20,0.0,0.0
858,91.0,22,20,0.0,0.0
859,58.0,34,40,14.0,0.0
860,89.0,0,20,0.0,0.0
861,87.0,0,30,0.0,0.0
862,75.0,48,30,1.0,0.0
863,43.0,34,90,15.0,0.0
864,82.0,0,30,0.0,0.0
865,70.0,0,30,1.0,0.0
866,79.0,14,30,1.0,0.0
867,77.0,48,30,1.0,0.0
868,45.0,34,90,15.0,0.0
869,72.0,14,30,1.0,0.0
870,74.0,0,30,1.0,0.0
871,86.0,0,30,0.0,0.0
872,46.0,48,90,15.0,0.0
873,84.0,0,30,0.0,0.0
874,72.0,14,30,1.0,0.0
875,70.0,0,90,12.0,0.0
876,74.0,0,90,1.0,0.0
877,65.0,0,90,13.0,0.0
878,58.0,48,40,14.0,0.0
879,86.0,0,90,0.0,0.0
880,53.0,0,40,14.0,0.0
881,41.0,48,90,15.0,0.0
882,72.0,48,30,1.0,0.0
883,84.0,0,30,0.0,0.0
884,70.0,14,30,1.0,0.0
885,82.0,0,30,0.0,0.0
886,72.0,0,90,1.0,0.0
887,65.0,0,90,13.0,0.0
888,57.0,48,40,14.0,0.0
889,84.0,0,90,0.0,0.0
890,69.0,0,90,12.0,0.0
891,53.0,0,40,14.0,0.0
892,74.0,0,30,1.0,0.0
893,46.0,48,90,15.0,0.0
894,86.0,0,30,0.0,0.0
895,72.0,0,30,1.0,0.0
896,84.0,0,30,0.0,0.0
897,70.0,74,90,12.0,0.0
898,65.0,0,90,13.0,0.0
899,86.0,0,90,0.0,0.0
900,58.0,48,40,14.0,0.0
901,74.0,0,90,1.0,0.0
902,53.0,0,40,14.0,0.0
903,46.0,2,90,15.0,0.0
904,94.0,22,20,0.0,0.0
905,93.0,24,20,0.0,0.0
906,91.0,24,20,0.0,0.0
907,89.0,24,20,0.0,0.0
908,87.0,22,20,0.0,0.0
909,43.0,0,40,15.0,0.0
910,86.0,34,20,0.0,0.0
911,72.0,48,30,1.0,0.0
912,84.0,0,30,0.0,0.0
913,39.0,48,90,15.0,0.0
914,82.0,0,30,0.0,0.0
915,70.0,14,30,1.0,0.0
916,72.0,0,90,1.0,0.0
917,63.0,0,90,13.0,0.0
918,55.0,48,40,14.0,0.0
919,84.0,0,90,0.0,0.0
920,63.0,0,90,12.0,0.0
921,51.0,0,40,14.0,0.0
922,69.0,0,30,1.0,0.0
923,81.0,0,30,0.0,0.0
924,41.0,48,90,15.0,0.0
925,67.0,14,30,1.0,0.0
926,79.0,0,30,0.0,0.0
927,69.0,0,90,1.0,0.0
928,60.0,0,90,13.0,0.0
929,57.0,48,40,14.0,0.0
930,60.0,0,90,12.0,0.0
931,81.0,0,90,0.0,0.0
932,53.0,0,40,14.0,0.0
933,70.0,0,150,1.0,0.0
934,62.0,0,90,12.0,0.0
935,82.0,0,150,0.0,0.0
936,62.0,0,90,13.0,0.0
937,46.0,48,90,15.0,0.0
938,58.0,24,40,14.0,0.0
939,53.0,0,40,14.0,0.0
940,84.0,24,20,0.0,0.0
941,86.0,26,20,0.0,0.0
942,87.0,24,20,0.0,0.0
943,34.0,2,90,15.0,0.0
944,89.0,24,20,0.0,0.0
945,91.0,22,20,0.0,0.0
946,93.0,24,20,0.0,0.0
947,94.0,24,20,0.0,0.0
948,93.0,24,20,0.0,0.0
949,91.0,24,20,0.0,0.0
950,89.0,24,20,0.0,0.0
951,87.0,22,20,0.0,0.0
952,86.0,34,20,0.0,0.0
953,84.0,0,30,0.0,0.0
954,41.0,48,90,15.0,0.0
955,72.0,0,30,1.0,0.0
956,82.0,0,30,0.0,0.0
957,70.0,0,30,1.0,0.0
958,65.0,0,90,13.0,0.0
959,69.0,0,90,12.0,0.0
960,57.0,48,40,14.0,0.0
961,72.0,0,150,1.0,0.0
962,84.0,0,150,0.0,0.0
963,53.0,50,40,14.0,0.0
964,41.0,34,90,15.0,0.0
965,75.0,0,30,1.0,0.0
966,87.0,0,30,0.0,0.0
967,46.0,0,90,15.0,0.0
968,65.0,0,90,13.0,0.0
969,65.0,34,90,12.0,0.0
970,74.0,0,30,1.0,0.0
971,86.0,0,30,0.0,0.0
972,70.0,0,30,1.0,0.0
973,82.0,0,30,0.0,0.0
974,41.0,48,90,15.0,0.0
975,69.0,0,30,1.0,0.0
976,81.0,0,30,0.0,0.0
977,79.0,0,30,0.0,0.0
978,67.0,14,30,1.0,0.0
979,81.0,0,150,0.0,0.0
980,57.0,48,40,14.0,0.0
981,60.0,0,90,13.0,0.0
982,65.0,48,90,12.0,0.0
983,69.0,0,150,1.0,0.0
984,53.0,0,40,14.0,0.0
985,41.0,34,90,15.0,0.0
986,72.0,14,30,1.0,0.0
987,84.0,0,30,0.0,0.0
988,70.0,48,30,1.0,0.0
989,50.0,0,90,14.0,0.0
990,38.0,0,90,15.0,0.0
991,82.0,0,30,0.0,0.0
992,77.0,14,30,0.0,0.0
993,86.0,34,40,0.0,0.0
994,74.0,0,40,1.0,0.0
995,65.0,0,30,1.0,0.0
996,39.0,0,90,15.0,0.0
997,51.0,0,90,14.0,0.0
998,84.0,14,30,0.0,0.0
999,72.0,0,30,1.0,0.0
1000,79.0,0,30,0.0,0.0
1001,67.0,34,40,1.0,0.0
1002,75.0,14,30,1.0,0.0
1003,87.0,0,30,0.0,0.0
1004,41.0,34,90,15.0,0.0
1005,86.0,0,30,0.0,0.0
1006,74.0,14,30,1.0,0.0
1007,53.0,0,90,14.0,0.0
1008,89.0,0,30,0.0,0.0
1009,81.0,0,30,0.0,0.0
1010,77.0,14,30,1.0,0.0
1011,69.0,0,40,1.0,0.0
1012,43.0,0,90,15.0,0.0
1013,87.0,0,30,0.0,0.0
1014,75.0,14,30,1.0,0.0
1015,55.0,34,90,14.0,0.0
1016,70.0,0,30,1.0,0.0
1017,79.0,14,30,1.0,0.0
1018,82.0,0,30,0.0,0.0
1019,91.0,0,30,0.0,0.0
1020,45.0,50,90,15.0,0.0
1021,57.0,0,90,14.0,0.0
1022,77.0,14,30,1.0,0.0
1023,89.0,0,30,0.0,0.0
1024,84.0,0,30,0.0,0.0
1025,72.0,14,30,1.0,0.0
1026,43.0,2,90,15.0,0.0
1027,99.0,24,20,0.0,0.0
1028,98.0,22,20,0.0,0.0
1029,96.0,24,20,0.0,0.0
1030,63.0,2,40,14.0,0.0
1031,94.0,22,20,0.0,0.0
1032,93.0,24,20,0.0,0.0
1033,58.0,34,40,14.0,0.0
1034,91.0,22,20,0.0,0.0
1035,89.0,0,20,0.0,0.0
1036,87.0,0,30,0.0,0.0
1037,43.0,34,90,15.0,0.0
1038,75.0,48,30,1.0,0.0
1039,79.0,0,30,1.0,0.0
1040,82.0,0,30,0.0,0.0
1041,70.0,14,30,1.0,0.0
1042,77.0,48,30,1.0,0.0
1043,45.0,34,90,15.0,0.0
1044,72.0,14,30,1.0,0.0
1045,46.0,48,90,15.0,0.0
1046,74.0,0,30,1.0,0.0
1047,86.0,0,30,0.0,0.0
1048,72.0,14,30,1.0,0.0
1049,84.0,0,30,0.0,0.0
1050,74.0,34,90,1.0,0.0
1051,58.0,48,40,14.0,0.0
1052,70.0,0,90,12.0,0.0
1053,65.0,0,90,13.0,0.0
1054,86.0,0,90,0.0,0.0
1055,53.0,0,40,14.0,0.0
1056,72.0,0,30,1.0,0.0
1057,41.0,48,90,15.0,0.0
1058,84.0,0,30,0.0,0.0
1059,70.0,14,30,1.0,0.0
1060,82.0,0,30,0.0,0.0
1061,57.0,48,40,14.0,0.0
1062,65.0,0,90,13.0,0.0
1063,84.0,0,90,0.0,0.0
1064,69.0,34,90,12.0,0.0
1065,72.0,0,90,1.0,0.0
1066,53.0,0,40,14.0,0.0
1067,46.0,48,90,15.0,0.0
1068,86.0,0,30,0.0,0.0
1069,74.0,48,30,1.0,0.0
1070,84.0,0,30,0.0,0.0
1071,72.0,0,30,1.0,0.0
1072,70.0,0,90,12.0,0.0
1073,65.0,0,90,13.0,0.0
1074,86.0,0,90,0.0,0.0
1075,58.0,48,40,14.0,0.0
1076,74.0,0,90,1.0,0.0
1077,53.0,74,40,14.0,0.0
1078,46.0,2,90,15.0,0.0
1079,94.0,22,20,0.0,0.0
1080,93.0,24,20,0.0,0.0
1081,91.0,24,20,0.0,0.0
1082,89.0,24,20,0.0,0.0
1083,43.0,0,40,15.0,0.0
1084,87.0,22,20,0.0,0.0
1085,86.0,34,20,0.0,0.0
1086,39.0,48,90,15.0,0.0
1087,72.0,0,30,1.0,0.0
1088,84.0,0,30,0.0,0.0
1089,70.0,0,30,1.0,0.0
1090,82.0,0,30,0.0,0.0
1091,63.0,0,90,12.0,0.0
1092,72.0,0,90,1.0,0.0
1093,84.0,0,90,0.0,0.0
1094,63.0,0,90,13.0,0.0
1095,55.0,48,40,14.0,0.0
1096,51.0,34,40,14.0,0.0
1097,81.0,0,30,0.0,0.0
1098,69.0,48,30,1.0,0.0
1099,41.0,48,90,15.0,0.0
1100,67.0,0,30,1.0,0.0
1101,79.0,0,30,0.0,0.0
1102,69.0,0,90,1.0,0.0
1103,81.0,0,90,0.0,0.0
1104,60.0,0,90,12.0,0.0
1105,60.0,0,90,13.0,0.0
1106,57.0,48,40,14.0,0.0
1107,53.0,0,40,14.0,0.0
1108,82.0,30,150,0.0,0.0
1109,70.0,0,150,1.0,0.0
1110,46.0,48,90,15.0,0.0
1111,65.0,0,150,12.0,0.0
1112,62.0,0,150,12.0,0.0
1113,58.0,18,40,14.0,0.0
1114,53.0,96,40,14.0,0.0
1115,34.0,162,90,15.0,0.0
1116,58.0,0,180,14.0,0.0
1117,65.0,64,180,12.0,0.0
1118,70.0,32,60,11.0,0.0
1119,62.0,32,90,13.0,0.0
1120,69.0,64,60,11.0,0.0
1121,61.0,0,90,13.0,0.0
1122,70.0,0,60,11.0,0.0
1123,72.0,32,60,11.0,0.0
1124,57.0,32,90,14.0,0.0
1125,60.0,32,300,13.0,0.0
1126,65.0,64,330,12.0,0.0
1127,71.0,64,60,11.0,0.0
1128,56.0,64,90,14.0,0.0
1129,72.0,0,60,11.0,0.0
1130,74.0,32,60,11.0,0.0
1131,55.0,0,90,14.0,0.0
1132,73.0,0,60,11.0,0.0
1133,59.0,64,150,13.0,0.0
1134,53.0,0,90,14.0,0.0
1135,74.0,0,60,11.0,0.0
1136,68.0,64,60,12.0,0.0
1137,51.0,0,180,14.0,0.0
1138,67.0,64,330,12.0,0.0
1139,79.0,0,60,11.0,0.0
1140,75.0,0,60,11.0,0.0
1141,55.0,64,60,13.0,0.0
1142,60.0,0,150,13.0,0.0
1143,72.0,64,60,11.0,0.0
1144,55.0,32,90,14.0,0.0
1145,74.0,32,60,11.0,0.0
1146,73.0,0,60,11.0,0.0
1147,59.0,64,150,13.0,0.0
1148,53.0,0,90,14.0,0.0
1149,68.0,0,60,12.0,0.0
1150,74.0,64,60,11.0,0.0
1151,79.0,0,60,11.0,0.0
1152,51.0,0,180,14.0,0.0
1153,67.0,0,180,12.0,0.0
1154,55.0,0,60,13.0,0.0
1155,75.0,64,60,11.0,0.0
1156,60.0,64,60,13.0,0.0
1157,72.0,0,60,11.0,0.0
1158,53.0,0,180,14.0,0.0
1159,65.0,64,180,12.0,0.0
1160,63.0,32,90,13.0,0.0
1161,70.0,32,60,11.0,0.0
1162,69.0,64,60,11.0,0.0
1163,60.0,0,90,13.0,0.0
1164,70.0,0,60,11.0,0.0
1165,71.0,32,60,11.0,0.0
1166,57.0,32,90,13.0,0.0
1167,72.0,64,60,11.0,0.0
1168,53.0,64,90,13.0,0.0
1169,69.0,0,60,12.0,0.0
1170,73.0,0,60,11.0,0.0
1171,58.0,0,180,14.0,0.0
1172,70.0,0,180,12.0,0.0
1173,58.0,32,90,13.0,0.0
1174,74.0,32,60,11.0,0.0
1175,72.0,64,60,11.0,0.0
1176,68.0,0,90,13.0,0.0
1177,74.0,64,60,11.0,0.0
1178,70.0,0,390,12.0,0.0
1179,67.0,32,90,13.0,0.0
1180,63.0,64,180,14.0,0.0
1181,75.0,32,60,11.0,0.0
1182,74.0,64,60,11.0,0.0
1183,66.0,0,90,13.0,0.0
1184,75.0,0,60,11.0,0.0
1185,62.0,32,90,14.0,0.0
1186,65.0,0,270,13.0,0.0
1187,77.0,32,60,11.0,0.0
1188,76.0,64,60,11.0,0.0
1189,61.0,64,90,14.0,0.0
1190,77.0,0,60,11.0,0.0
1191,60.0,0,180,14.0,0.0
1192,82.0,64,60,11.0,0.0
1193,79.0,0,60,11.0,0.0
1194,64.0,64,60,13.0,0.0
1195,76.0,0,60,11.0,0.0
1196,67.0,64,60,13.0,0.0
1197,62.0,32,90,14.0,0.0
1198,65.0,32,660,13.0,0.0
1199,77.0,32,60,11.0,0.0
1200,76.0,64,60,11.0,0.0
1201,61.0,0,90,14.0,0.0
1202,77.0,0,60,11.0,0.0
1203,70.0,64,15,12.0,0.0
1204,60.0,32,90,14.0,0.0
1205,82.0,32,60,11.0,0.0
1206,77.0,64,60,11.0,0.0
1207,58.0,64,90,14.0,0.0
1208,73.0,0,60,11.0,0.0
1209,72.0,32,60,11.0,0.0
1210,69.0,64,180,12.0,0.0
1211,63.0,32,90,14.0,0.0
1212,76.0,64,60,11.0,0.0
1213,60.0,0,90,14.0,0.0
1214,77.0,0,60,11.0,0.0
1215,57.0,0,90,14.0,0.0
1216,75.0,32,60,11.0,0.0
1217,72.0,64,60,11.0,0.0
1218,63.0,0,90,13.0,0.0
1219,53.0,64,90,14.0,0.0
1220,69.0,0,60,11.0,0.0
1221,62.0,32,90,13.0,0.0
1222,65.0,0,180,12.0,0.0
1223,58.0,0,180,14.0,0.0
1224,70.0,32,60,11.0,0.0
1225,69.0,64,60,11.0,0.0
1226,61.0,0,90,13.0,0.0
1227,70.0,64,60,11.0,0.0
1228,57.0,32,90,14.0,0.0
1229,72.0,32,60,11.0,0.0
1230,65.0,64,330,12.0,0.0
1231,60.0,0,300,13.0,0.0
1232,71.0,64,60,11.0,0.0
1233,56.0,64,90,14.0,0.0
1234,72.0,0,60,11.0,0.0
1235,74.0,32,60,11.0,0.0
1236,55.0,32,90,14.0,0.0
1237,73.0,0,60,11.0,0.0
1238,53.0,64,90,14.0,0.0
1239,59.0,64,150,13.0,0.0
1240,68.0,0,60,12.0,0.0
1241,74.0,0,60,11.0,0.0
1242,67.0,64,330,12.0,0.0
1243,79.0,0,60,11.0,0.0
1244,51.0,0,180,14.0,0.0
1245,75.0,64,60,11.0,0.0
1246,55.0,0,60,13.0,0.0
1247,72.0,64,60,11.0,0.0
1248,60.0,0,150,13.0,0.0
1249,74.0,32,60,11.0,0.0
1250,55.0,32,90,14.0,0.0
1251,73.0,0,60,11.0,0.0
1252,53.0,0,90,14.0,0.0
1253,59.0,64,150,13.0,0.0
1254,74.0,0,60,11.0,0.0
1255,68.0,64,60,12.0,0.0
1256,79.0,0,60,11.0,0.0
1257,51.0,0,180,14.0,0.0
1258,67.0,0,180,12.0,0.0
1259,75.0,0,60,11.0,0.0
1260,55.0,64,60,13.0,0.0
1261,72.0,64,60,11.0,0.0
1262,60.0,0,60,13.0,0.0
1263,63.0,32,90,13.0,0.0
1264,53.0,0,180,14.0,0.0
1265,70.0,32,60,11.0,0.0
1266,65.0,0,180,12.0,0.0
1267,69.0,64,60,11.0,0.0
1268,60.0,0,90,13.0,0.0
1269,70.0,64,60,11.0,0.0
1270,57.0,32,90,13.0,0.0
1271,71.0,32,60,11.0,0.0
1272,72.0,64,60,11.0,0.0
1273,53.0,0,90,13.0,0.0
1274,73.0,0,60,11.0,0.0
1275,69.0,64,60,12.0,0.0
1276,58.0,32,90,13.0,0.0
1277,74.0,32,60,11.0,0.0
1278,70.0,0,180,12.0,0.0
1279,58.0,0,180,14.0,0.0
1280,72.0,64,60,11.0,0.0
1281,68.0,0,90,13.0,0.0
1282,74.0,64,60,11.0,0.0
1283,63.0,0,180,14.0,0.0
1284,67.0,32,90,13.0,0.0
1285,75.0,32,60,11.0,0.0
1286,74.0,64,60,11.0,0.0
1287,66.0,64,90,13.0,0.0
1288,75.0,0,60,11.0,0.0
1289,65.0,0,270,13.0,0.0
1290,62.0,32,90,14.0,0.0
1291,77.0,32,60,11.0,0.0
1292,76.0,64,60,11.0,0.0
1293,61.0,0,90,14.0,0.0
1294,77.0,64,60,11.0,0.0
1295,60.0,0,180,14.0,0.0
1296,70.0,0,15,12.0,0.0
1297,82.0,64,60,11.0,0.0
1298,64.0,64,60,13.0,0.0
1299,79.0,0,60,11.0,0.0
1300,67.0,64,60,13.0,0.0
1301,76.0,0,60,11.0,0.0
1302,62.0,32,90,14.0,0.0
1303,77.0,32,60,11.0,0.0
1304,65.0,32,660,13.0,0.0
1305,76.0,64,60,11.0,0.0
1306,61.0,0,90,14.0,0.0
1307,77.0,0,60,11.0,0.0
1308,82.0,32,60,11.0,0.0
1309,70.0,64,180,12.0,0.0
1310,60.0,32,90,14.0,0.0
1311,77.0,64,60,11.0,0.0
1312,58.0,0,90,14.0,0.0
1313,73.0,0,60,11.0,0.0
1314,63.0,32,90,14.0,0.0
1315,72.0,32,60,11.0,0.0
1316,69.0,0,180,12.0,0.0
1317,76.0,64,60,11.0,0.0
1318,60.0,64,90,14.0,0.0
1319,77.0,0,60,11.0,0.0
1320,75.0,32,60,11.0,0.0
1321,57.0,0,90,14.0,0.0
1322,72.0,64,60,11.0,0.0
1323,53.0,0,90,14.0,0.0
1324,69.0,16,60,11.0,0.0
1325,65.0,0,450,12.0,0.0
1326,72.0,16,15,11.0,0.0
1327,57.0,32,90,14.0,0.0
1328,74.0,32,15,11.0,0.0
1329,72.0,32,30,11.0,0.0
1330,71.0,64,60,11.0,0.0
1331,53.0,64,90,14.0,0.0
1332,72.0,0,60,11.0,0.0
1333,73.0,32,60,11.0,0.0
1334,58.0,32,90,14.0,0.0
1335,72.0,64,60,11.0,0.0
1336,46.0,64,90,14.0,0.0
1337,70.0,0,60,11.0,0.0
1338,53.0,32,90,14.0,0.0
1339,69.0,32,60,11.0,0.0
1340,67.0,64,60,11.0,0.0
1341,60.0,64,90,14.0,0.0
1342,69.0,0,60,11.0,0.0
1343,65.0,64,180,12.0,0.0
1344,65.0,32,60,11.0,0.0
1345,62.0,32,90,14.0,0.0
1346,69.0,64,60,11.0,0.0
1347,50.0,0,90,14.0,0.0
1348,70.0,0,60,11.0,0.0
1349,67.0,32,60,11.0,0.0
1350,51.0,32,90,14.0,0.0
1351,67.0,0,180,12.0,0.0
1352,71.0,64,60,11.0,0.0
1353,63.0,0,90,14.0,0.0
1354,72.0,64,60,11.0,0.0
1355,65.0,32,90,14.0,0.0
1356,69.0,32,60,11.0,0.0
1357,69.0,64,180,12.0,0.0
1358,73.0,64,60,11.0,0.0
1359,53.0,0,90,14.0,0.0
1360,74.0,0,60,11.0,0.0
1361,70.0,32,60,11.0,0.0
1362,70.0,0,180,12.0,0.0
1363,55.0,32,90,14.0,0.0
1364,74.0,64,60,11.0,0.0
1365,67.0,0,90,14.0,0.0
1366,75.0,64,60,11.0,0.0
1367,69.0,32,90,14.0,0.0
1368,72.0,0,180,12.0,0.0
1369,72.0,32,60,11.0,0.0
1370,76.0,64,60,11.0,0.0
1371,57.0,64,90,14.0,0.0
1372,77.0,0,60,11.0,0.0
1373,58.0,32,90,13.0,0.0
1374,58.0,0,390,14.0,0.0
1375,70.0,64,180,12.0,0.0
1376,74.0,32,60,11.0,0.0
1377,72.0,64,60,11.0,0.0
1378,68.0,0,90,13.0,0.0
1379,74.0,0,60,11.0,0.0
1380,75.0,32,60,11.0,0.0
1381,70.0,64,180,12.0,0.0
1382,67.0,32,90,13.0,0.0
1383,74.0,64,60,11.0,0.0
1384,66.0,0,90,13.0,0.0
1385,75.0,0,60,11.0,0.0
1386,77.0,32,60,11.0,0.0
1387,74.0,32,90,12.0,0.0
1388,65.0,64,180,13.0,0.0
1389,76.0,64,60,11.0,0.0
1390,73.0,0,90,12.0,0.0
1391,77.0,0,60,11.0,0.0
1392,72.0,32,90,12.0,0.0
1393,79.0,32,60,11.0,0.0
1394,64.0,0,180,13.0,0.0
1395,78.0,64,60,11.0,0.0
1396,70.0,64,90,12.0,0.0
1397,79.0,0,60,11.0,0.0
1398,58.0,0,15,14.0,0.0
1399,63.0,0,390,13.0,0.0
1400,84.0,32,60,11.0,0.0
1401,69.0,32,90,12.0,0.0
1402,83.0,64,60,11.0,0.0
1403,68.0,0,90,12.0,0.0
1404,84.0,64,60,11.0,0.0
1405,87.0,32,60,11.0,0.0
1406,67.0,32,90,12.0,0.0
1407,84.0,64,60,11.0,0.0
1408,66.0,64,90,12.0,0.0
1409,81.0,0,60,11.0,0.0
1410,82.0,32,60,11.0,0.0
1411,62.0,0,180,13.0,0.0
1412,65.0,32,90,12.0,0.0
1413,81.0,64,60,11.0,0.0
1414,63.0,0,90,12.0,0.0
1415,79.0,0,60,11.0,0.0
1416,62.0,32,90,12.0,0.0
1417,77.0,32,60,11.0,0.0
1418,75.0,64,60,11.0,0.0
1419,58.0,0,90,12.0,0.0
1420,74.0,16,60,11.0,0.0
1421,65.0,0,450,12.0,0.0
1422,72.0,16,15,11.0,0.0
1423,57.0,32,90,14.0,0.0
1424,74.0,32,15,11.0,0.0
1425,72.0,32,30,11.0,0.0
1426,71.0,64,60,11.0,0.0
1427,53.0,64,90,14.0,0.0
1428,72.0,0,60,11.0,0.0
1429,58.0,32,90,14.0,0.0
1430,73.0,32,60,11.0,0.0
1431,72.0,64,60,11.0,0.0
1432,46.0,0,90,14.0,0.0
1433,70.0,64,60,11.0,0.0
1434,69.0,32,60,11.0,0.0
1435,53.0,32,90,14.0,0.0
1436,67.0,64,60,11.0,0.0
1437,60.0,64,90,14.0,0.0
1438,69.0,0,60,11.0,0.0
1439,62.0,32,90,14.0,0.0
1440,65.0,64,180,12.0,0.0
1441,65.0,32,60,11.0,0.0
1442,69.0,64,60,11.0,0.0
1443,50.0,0,90,14.0,0.0
1444,70.0,0,60,11.0,0.0
1445,51.0,32,90,14.0,0.0
1446,67.0,32,60,11.0,0.0
1447,67.0,0,180,12.0,0.0
1448,71.0,64,60,11.0,0.0
1449,63.0,0,90,14.0,0.0
1450,72.0,64,60,11.0,0.0
1451,69.0,32,60,11.0,0.0
1452,65.0,32,90,14.0,0.0
1453,69.0,64,180,12.0,0.0
1454,73.0,64,60,11.0,0.0
1455,53.0,0,90,14.0,0.0
1456,74.0,0,60,11.0,0.0
1457,55.0,32,90,14.0,0.0
1458,70.0,32,60,11.0,0.0
1459,70.0,64,180,12.0,0.0
1460,74.0,64,60,11.0,0.0
1461,67.0,0,90,14.0,0.0
1462,75.0,0,60,11.0,0.0
1463,69.0,32,90,14.0,0.0
1464,72.0,32,60,11.0,0.0
1465,72.0,64,180,12.0,0.0
1466,76.0,64,60,11.0,0.0
1467,57.0,0,90,14.0,0.0
1468,77.0,0,60,11.0,0.0
1469,70.0,0,180,12.0,0.0
1470,74.0,32,60,11.0,0.0
1471,58.0,32,90,13.0,0.0
1472,72.0,64,60,11.0,0.0
1473,68.0,64,90,13.0,0.0
1474,74.0,0,60,11.0,0.0
1475,75.0,32,60,11.0,0.0
1476,70.0,0,180,12.0,0.0
1477,67.0,32,90,13.0,0.0
1478,74.0,64,60,11.0,0.0
1479,66.0,0,90,13.0,0.0
1480,75.0,64,60,11.0,0.0
1481,58.0,0,15,14.0,0.0
1482,65.0,0,180,13.0,0.0
1483,74.0,32,90,12.0,0.0
1484,77.0,32,60,11.0,0.0
1485,76.0,64,60,11.0,0.0
1486,73.0,64,90,12.0,0.0
1487,77.0,0,60,11.0,0.0
1488,79.0,32,60,11.0,0.0
1489,72.0,32,90,12.0,0.0
1490,64.0,0,180,13.0,0.0
1491,78.0,64,60,11.0,0.0
1492,70.0,64,90,12.0,0.0
1493,79.0,0,60,11.0,0.0
1494,69.0,32,90,12.0,0.0
1495,84.0,32,60,11.0,0.0
1496,63.0,0,390,13.0,0.0
1497,58.0,0,570,14.0,0.0
1498,83.0,64,60,11.0,0.0
1499,68.0,0,90,12.0,0.0
1500,84.0,64,60,11.0,0.0
1501,67.0,32,90,12.0,0.0
1502,87.0,32,60,11.0,0.0
1503,84.0,64,60,11.0,0.0
1504,66.0,64,90,12.0,0.0
1505,81.0,0,60,11.0,0.0
1506,82.0,32,60,11.0,0.0
1507,62.0,0,180,13.0,0.0
1508,65.0,32,90,12.0,0.0
1509,81.0,64,60,11.0,0.0
1510,63.0,0,90,12.0,0.0
1511,79.0,64,60,11.0,0.0
1512,77.0,32,60,11.0,0.0
1513,62.0,32,90,12.0,0.0
1514,75.0,64,60,11.0,0.0
1515,58.0,94,90,12.0,0.0
1516,74.0,0,60,11.0,0.0
1517,60.0,0,90,4.0,0.0
1518,72.0,32,90,12.0,0.0
1519,81.0,2,90,9.0,0.0
1520,65.0,0,90,1.0,0.0
1521,46.0,96,90,14.0,0.0
1522,62.0,0,90,1.0,0.0
1523,46.0,0,90,7.0,0.0
1524,70.0,0,90,12.0,0.0
1525,46.0,62,30,3.0,0.0
1526,34.0,2,90,15.0,0.0
1527,58.0,0,90,4.0,0.0
1528,62.0,32,90,13.0,0.0
1529,65.0,62,30,11.0,0.0
1530,69.0,0,30,11.0,0.0
1531,60.0,0,90,13.0,0.0
1532,53.0,2,90,2.0,0.0
1533,69.0,0,30,0.0,0.0
1534,72.0,0,30,0.0,0.0
1535,60.0,0,90,2.0,0.0
1536,57.0,96,90,2.0,0.0
1537,75.0,0,90,12.0,0.0
1538,63.0,32,90,4.0,0.0
1539,74.0,96,90,12.0,0.0
1540,46.0,0,90,14.0,0.0
1541,62.0,0,90,4.0,0.0
1542,65.0,0,90,1.0,0.0
1543,46.0,0,90,7.0,0.0
1544,34.0,2,90,15.0,0.0
1545,70.0,0,90,1.0,0.0
1546,46.0,62,30,3.0,0.0
1547,65.0,32,90,13.0,0.0
1548,82.0,62,30,0.0,0.0
1549,63.0,94,90,13.0,0.0
1550,82.0,0,30,11.0,0.0
1551,55.0,2,90,2.0,0.0
1552,58.0,0,90,2.0,0.0
1553,63.0,0,90,2.0,0.0
1554,75.0,0,90,12.0,0.0
1555,63.0,32,90,4.0,0.0
1556,81.0,2,90,9.0,0.0
1557,29.0,2,90,15.0,0.0
1558,41.0,62,30,3.0,0.0
1559,41.0,0,90,7.0,0.0
1560,65.0,0,90,1.0,0.0
1561,70.0,0,90,1.0,0.0
1562,62.0,0,90,4.0,0.0
1563,41.0,96,90,14.0,0.0
1564,74.0,0,90,12.0,0.0
1565,65.0,32,90,13.0,0.0
1566,69.0,0,60,0.0,0.0
1567,69.0,0,60,11.0,0.0
1568,60.0,96,90,13.0,0.0
1569,77.0,0,30,11.0,0.0
1570,77.0,62,30,0.0,0.0
1571,53.0,2,90,2.0,0.0
1572,60.0,0,90,2.0,0.0
1573,72.0,32,90,12.0,0.0
1574,60.0,0,90,4.0,0.0
1575,62.0,0,90,4.0,0.0
1576,65.0,0,90,1.0,0.0
1577,34.0,0,90,15.0,0.0
1578,46.0,0,90,7.0,0.0
1579,46.0,96,90,14.0,0.0
1580,70.0,2,90,1.0,0.0
1581,46.0,62,30,3.0,0.0
1582,74.0,0,90,12.0,0.0
1583,50.0,32,90,2.0,0.0
1584,58.0,0,90,2.0,0.0
1585,58.0,0,90,13.0,0.0
1586,60.0,0,90,2.0,0.0
1587,69.0,0,30,11.0,0.0
1588,75.0,62,30,0.0,0.0
1589,53.0,2,90,2.0,0.0
1590,60.0,94,90,13.0,0.0
1591,65.0,0,30,11.0,0.0
1592,69.0,0,30,0.0,0.0
1593,81.0,2,90,9.0,0.0
1594,73.0,32,90,12.0,0.0
1595,61.0,0,90,4.0,0.0
1596,46.0,62,30,3.0,0.0
1597,62.0,0,90,4.0,0.0
1598,65.0,0,90,1.0,0.0
1599,74.0,0,90,12.0,0.0
1600,46.0,0,90,7.0,0.0
1601,70.0,0,90,1.0,0.0
1602,34.0,2,90,15.0,0.0
1603,46.0,96,90,14.0,0.0
1604,62.0,32,90,13.0,0.0
1605,63.0,96,90,2.0,0.0
1606,58.0,0,90,2.0,0.0
1607,63.0,0,90,13.0,0.0
1608,55.0,2,90,2.0,0.0
1609,70.0,0,30,0.0,0.0
1610,75.0,0,30,0.0,0.0
1611,75.0,62,30,11.0,0.0
1612,67.0,0,30,11.0,0.0
1613,76.0,32,90,12.0,0.0
1614,64.0,0,90,4.0,0.0
1615,65.0,0,90,4.0,0.0
1616,68.0,2,90,1.0,0.0
1617,74.0,0,90,1.0,0.0
1618,46.0,0,90,14.0,0.0
1619,77.0,96,90,12.0,0.0
1620,46.0,62,30,3.0,0.0
1621,46.0,0,90,7.0,0.0
1622,34.0,0,90,15.0,0.0
1623,65.0,32,90,13.0,0.0
1624,68.0,62,60,11.0,0.0
1625,74.0,0,60,0.0,0.0
1626,82.0,0,30,0.0,0.0
1627,74.0,0,90,11.0,0.0
1628,62.0,0,90,2.0,0.0
1629,66.0,0,90,13.0,0.0
1630,66.0,94,90,2.0,0.0
1631,58.0,2,90,2.0,0.0
1632,78.0,32,90,12.0,0.0
1633,81.0,2,90,9.0,0.0
1634,66.0,0,90,4.0,0.0
1635,75.0,0,90,1.0,0.0
1636,79.0,0,90,12.0,0.0
1637,67.0,0,90,4.0,0.0
1638,51.0,0,90,7.0,0.0
1639,51.0,62,30,3.0,0.0
1640,70.0,2,90,1.0,0.0
1641,39.0,0,90,15.0,0.0
1642,51.0,96,90,14.0,0.0
1643,67.0,32,90,13.0,0.0
1644,75.0,0,30,0.0,0.0
1645,75.0,0,30,11.0,0.0
1646,63.0,96,90,13.0,0.0
1647,70.0,62,30,11.0,0.0
1648,70.0,0,30,0.0,0.0
1649,63.0,0,90,2.0,0.0
1650,55.0,2,90,2.0,0.0
1651,59.0,32,90,4.0,0.0
1652,71.0,0,90,12.0,0.0
1653,41.0,62,30,3.0,0.0
1654,72.0,96,90,12.0,0.0
1655,41.0,0,90,7.0,0.0
1656,41.0,0,90,14.0,0.0
1657,29.0,0,90,15.0,0.0
1658,60.0,0,90,4.0,0.0
1659,63.0,2,90,1.0,0.0
1660,69.0,0,90,1.0,0.0
1661,65.0,32,90,13.0,0.0
1662,60.0,0,90,2.0,0.0
1663,77.0,0,30,0.0,0.0
1664,63.0,0,30,11.0,0.0
1665,69.0,0,30,0.0,0.0
1666,60.0,0,90,13.0,0.0
1667,69.0,62,30,11.0,0.0
1668,53.0,2,90,2.0,0.0
1669,72.0,0,90,12.0,0.0
1670,81.0,2,90,9.0,0.0
1671,60.0,32,90,4.0,0.0
1672,62.0,0,90,1.0,0.0
1673,46.0,96,90,14.0,0.0
1674,70.0,0,90,12.0,0.0
1675,46.0,62,30,3.0,0.0
1676,58.0,0,90,4.0,0.0
1677,65.0,2,90,1.0,0.0
1678,46.0,0,90,7.0,0.0
1679,34.0,0,90,15.0,0.0
1680,62.0,32,90,13.0,0.0
1681,60.0,0,90,13.0,0.0
1682,69.0,0,30,0.0,0.0
1683,57.0,96,90,2.0,0.0
1684,72.0,0,30,0.0,0.0
1685,53.0,2,90,2.0,0.0
1686,60.0,0,90,2.0,0.0
1687,69.0,0,30,11.0,0.0
1688,65.0,62,30,11.0,0.0
1689,63.0,32,90,4.0,0.0
1690,75.0,0,90,12.0,0.0
1691,74.0,0,90,12.0,0.0
1692,65.0,0,90,1.0,0.0
1693,70.0,0,90,1.0,0.0
1694,62.0,2,90,4.0,0.0
1695,46.0,0,90,7.0,0.0
1696,34.0,0,90,15.0,0.0
1697,46.0,62,30,3.0,0.0
1698,46.0,96,90,14.0,0.0
1699,65.0,32,90,13.0,0.0
1700,58.0,94,90,2.0,0.0
1701,82.0,0,30,0.0,0.0
1702,55.0,2,90,2.0,0.0
1703,63.0,0,90,13.0,0.0
1704,82.0,62,30,11.0,0.0
1705,63.0,0,90,2.0,0.0
1706,81.0,2,90,9.0,0.0
1707,63.0,0,90,4.0,0.0
1708,75.0,32,90,12.0,0.0
1709,41.0,0,90,14.0,0.0
1710,29.0,0,90,15.0,0.0
1711,62.0,0,90,4.0,0.0
1712,41.0,62,30,3.0,0.0
1713,74.0,96,90,12.0,0.0
1714,65.0,0,90,1.0,0.0
1715,70.0,0,90,1.0,0.0
1716,41.0,2,90,7.0,0.0
1717,65.0,32,90,13.0,0.0
1718,69.0,0,60,11.0,0.0
1719,69.0,62,60,0.0,0.0
1720,60.0,0,90,2.0,0.0
1721,77.0,0,30,11.0,0.0
1722,60.0,0,90,13.0,0.0
1723,53.0,2,90,2.0,0.0
1724,77.0,0,30,0.0,0.0
1725,72.0,32,90,12.0,0.0
1726,60.0,0,90,4.0,0.0
1727,74.0,0,90,12.0,0.0
1728,65.0,0,90,1.0,0.0
1729,62.0,0,90,4.0,0.0
1730,46.0,96,90,14.0,0.0
1731,70.0,0,90,1.0,0.0
1732,34.0,2,90,15.0,0.0
1733,46.0,0,90,7.0,0.0
1734,46.0,62,30,3.0,0.0
1735,50.0,0,90,2.0,0.0
1736,58.0,0,90,2.0,0.0
1737,58.0,32,90,13.0,0.0
1738,65.0,0,30,11.0,0.0
1739,53.0,2,90,2.0,0.0
1740,69.0,0,30,11.0,0.0
1741,69.0,62,30,0.0,0.0
1742,60.0,94,90,2.0,0.0
1743,60.0,0,90,13.0,0.0
1744,75.0,0,30,0.0,0.0
1745,73.0,0,90,12.0,0.0
1746,81.0,2,90,9.0,0.0
1747,61.0,32,90,4.0,0.0
1748,46.0,62,30,3.0,0.0
1749,62.0,2,90,4.0,0.0
1750,34.0,0,90,15.0,0.0
1751,74.0,96,90,12.0,0.0
1752,46.0,0,90,14.0,0.0
1753,65.0,0,90,1.0,0.0
1754,70.0,0,90,1.0,0.0
1755,46.0,0,90,7.0,0.0
1756,62.0,32,90,13.0,0.0
1757,63.0,0,90,2.0,0.0
1758,58.0,96,90,2.0,0.0
1759,55.0,2,90,2.0,0.0
1760,75.0,0,30,11.0,0.0
1761,67.0,62,30,11.0,0.0
1762,63.0,0,90,13.0,0.0
1763,75.0,0,30,0.0,0.0
1764,70.0,0,30,0.0,0.0
1765,64.0,0,90,4.0,0.0
1766,76.0,32,90,12.0,0.0
1767,46.0,96,90,14.0,0.0
1768,65.0,0,90,4.0,0.0
1769,77.0,0,90,12.0,0.0
1770,34.0,0,90,15.0,0.0
1771,74.0,0,90,1.0,0.0
1772,68.0,0,90,1.0,0.0
1773,46.0,2,90,7.0,0.0
1774,46.0,62,30,3.0,0.0
1775,65.0,32,90,13.0,0.0
1776,74.0,0,60,0.0,0.0
1777,68.0,62,60,11.0,0.0
1778,66.0,94,90,2.0,0.0
1779,62.0,0,90,2.0,0.0
1780,82.0,0,30,0.0,0.0
1781,66.0,0,90,13.0,0.0
1782,58.0,2,90,2.0,0.0
1783,74.0,0,90,11.0,0.0
1784,78.0,32,90,12.0,0.0
1785,81.0,2,90,9.0,0.0
1786,66.0,0,90,4.0,0.0
1787,70.0,0,90,1.0,0.0
1788,51.0,62,30,3.0,0.0
1789,79.0,96,90,12.0,0.0
1790,51.0,0,90,14.0,0.0
1791,39.0,0,90,15.0,0.0
1792,51.0,0,90,7.0,0.0
1793,75.0,0,90,1.0,0.0
1794,67.0,2,90,4.0,0.0
1795,67.0,32,90,13.0,0.0
1796,70.0,0,30,11.0,0.0
1797,75.0,62,30,11.0,0.0
1798,63.0,96,90,2.0,0.0
1799,63.0,0,90,13.0,0.0
1800,55.0,2,90,2.0,0.0
1801,70.0,0,30,0.0,0.0
1802,75.0,0,30,0.0,0.0
1803,71.0,32,90,12.0,0.0
1804,59.0,0,90,4.0,0.0
1805,29.0,0,90,15.0,0.0
1806,69.0,0,90,1.0,0.0
1807,41.0,96,90,14.0,0.0
1808,72.0,0,90,12.0,0.0
1809,60.0,0,90,4.0,0.0
1810,41.0,62,30,3.0,0.0
1811,63.0,2,90,1.0,0.0
1812,41.0,0,90,7.0,0.0
1813,65.0,32,90,13.0,0.0
1814,60.0,94,90,2.0,0.0
1815,63.0,0,30,11.0,0.0
1816,69.0,0,30,11.0,0.0
1817,69.0,0,30,0.0,0.0
1818,60.0,0,90,13.0,0.0
1819,53.0,2,90,2.0,0.0
1820,77.0,62,30,0.0,0.0
1821,81.0,2,90,9.0,0.0
1822,59.0,32,90,4.0,0.0
1823,71.0,0,90,12.0,0.0
1824,69.0,0,90,1.0,0.0
1825,63.0,2,90,1.0,0.0
1826,29.0,0,90,15.0,0.0
1827,41.0,62,30,3.0,0.0
1828,41.0,0,90,14.0,0.0
1829,60.0,0,90,4.0,0.0
1830,41.0,0,90,7.0,0.0
1831,72.0,96,90,12.0,0.0
1832,63.0,32,90,13.0,0.0
1833,70.0,0,30,0.0,0.0
1834,61.0,0,90,2.0,0.0
1835,65.0,62,30,11.0,0.0
1836,73.0,0,30,0.0,0.0
1837,58.0,96,90,2.0,0.0
1838,53.0,2,90,2.0,0.0
1839,73.0,0,30,11.0,0.0
1840,61.0,0,90,13.0,0.0
1841,71.0,0,90,12.0,0.0
1842,59.0,32,90,4.0,0.0
1843,72.0,96,90,12.0,0.0
1844,29.0,0,90,15.0,0.0
1845,41.0,62,30,3.0,0.0
1846,60.0,0,90,4.0,0.0
1847,63.0,0,90,1.0,0.0
1848,69.0,2,90,1.0,0.0
1849,41.0,0,90,7.0,0.0
1850,41.0,0,90,14.0,0.0
1851,63.0,32,90,13.0,0.0
1852,56.0,0,90,2.0,0.0
1853,61.0,0,90,2.0,0.0
1854,73.0,0,30,0.0,0.0
1855,61.0,94,90,13.0,0.0
1856,65.0,62,30,11.0,0.0
1857,53.0,2,90,2.0,0.0
1858,68.0,0,30,0.0,0.0
1859,73.0,0,30,11.0,0.0
1860,74.0,32,90,12.0,0.0
1861,81.0,2,90,9.0,0.0
1862,62.0,0,90,4.0,0.0
1863,63.0,0,90,4.0,0.0
1864,42.0,62,30,3.0,0.0
1865,75.0,96,90,12.0,0.0
1866,42.0,0,90,7.0,0.0
1867,42.0,0,90,14.0,0.0
1868,70.0,0,90,1.0,0.0
1869,30.0,2,90,15.0,0.0
1870,70.0,32,90,13.0,0.0
1871,76.0,62,30,11.0,0.0
1872,70.0,0,30,11.0,0.0
1873,58.0,0,90,2.0,0.0
1874,76.0,0,30,0.0,0.0
1875,58.0,0,90,13.0,0.0
1876,70.0,0,30,0.0,0.0
1877,54.0,2,90,2.0,0.0
1878,67.0,0,90,4.0,0.0
1879,79.0,32,90,12.0,0.0
1880,65.0,0,90,4.0,0.0
1881,77.0,0,90,12.0,0.0
1882,29.0,0,90,15.0,0.0
1883,69.0,0,90,1.0,0.0
1884,41.0,62,30,3.0,0.0
1885,41.0,96,90,14.0,0.0
1886,41.0,2,90,7.0,0.0
1887,72.0,0,90,1.0,0.0
1888,67.0,32,90,13.0,0.0
1889,69.0,62,30,11.0,0.0
1890,77.0,0,30,11.0,0.0
1891,63.0,0,90,2.0,0.0
1892,77.0,0,30,0.0,0.0
1893,60.0,2,90,2.0,0.0
1894,65.0,94,90,13.0,0.0
1895,72.0,0,30,0.0,0.0
1896,65.0,0,90,2.0,0.0
1897,84.0,32,90,12.0,0.0
1898,81.0,2,90,9.0,0.0
1899,72.0,0,90,4.0,0.0
1900,74.0,0,90,1.0,0.0
1901,77.0,2,90,1.0,0.0
1902,80.0,0,90,1.0,0.0
1903,82.0,96,90,12.0,0.0
1904,46.0,0,90,14.0,0.0
1905,46.0,0,90,7.0,0.0
1906,70.0,0,90,4.0,0.0
1907,34.0,0,90,15.0,0.0
1908,46.0,62,30,3.0,0.0
1909,72.0,32,90,13.0,0.0
1910,65.0,0,90,2.0,0.0
1911,70.0,0,90,13.0,0.0
1912,62.0,2,90,2.0,0.0
1913,82.0,62,30,0.0,0.0
1914,74.0,0,30,0.0,0.0
1915,77.0,0,30,11.0,0.0
1916,68.0,96,90,2.0,0.0
1917,80.0,0,30,11.0,0.0
1918,72.0,32,90,4.0,0.0
1919,84.0,0,90,12.0,0.0
1920,82.0,0,90,12.0,0.0
1921,39.0,0,90,15.0,0.0
1922,51.0,62,30,3.0,0.0
1923,51.0,96,90,14.0,0.0
1924,51.0,0,90,7.0,0.0
1925,75.0,0,90,1.0,0.0
1926,79.0,0,90,1.0,0.0
1927,70.0,2,90,4.0,0.0
1928,72.0,32,90,13.0,0.0
1929,75.0,0,30,0.0,0.0
1930,82.0,0,30,0.0,0.0
1931,63.0,2,90,2.0,0.0
1932,70.0,94,90,2.0,0.0
1933,67.0,0,90,2.0,0.0
1934,70.0,0,90,13.0,0.0
1935,75.0,0,30,11.0,0.0
1936,82.0,62,30,11.0,0.0
1937,81.0,2,90,9.0,0.0
1938,69.0,32,90,4.0,0.0
1939,81.0,0,90,12.0,0.0
1940,51.0,0,90,14.0,0.0
1941,70.0,2,90,1.0,0.0
1942,75.0,0,90,1.0,0.0
1943,51.0,0,90,7.0,0.0
1944,79.0,96,90,12.0,0.0
1945,67.0,0,90,4.0,0.0
1946,51.0,62,30,3.0,0.0
1947,39.0,0,90,15.0,0.0
1948,67.0,32,90,13.0,0.0
1949,69.0,0,60,0.0,0.0
1950,65.0,0,60,11.0,0.0
1951,53.0,2,90,2.0,0.0
1952,69.0,62,30,11.0,0.0
1953,63.0,0,90,2.0,0.0
1954,60.0,0,90,2.0,0.0
1955,63.0,96,90,13.0,0.0
1956,77.0,0,30,0.0,0.0
1957,75.0,32,90,12.0,0.0
1958,63.0,0,90,4.0,0.0
1959,34.0,0,90,15.0,0.0
1960,70.0,0,90,1.0,0.0
1961,46.0,0,90,14.0,0.0
1962,65.0,0,90,1.0,0.0
1963,62.0,0,90,4.0,0.0
1964,74.0,96,90,12.0,0.0
1965,46.0,62,30,3.0,0.0
1966,46.0,2,90,7.0,0.0
1967,65.0,32,90,13.0,0.0
1968,77.0,0,30,0.0,0.0
1969,69.0,0,30,0.0,0.0
1970,60.0,0,90,13.0,0.0
1971,69.0,62,30,11.0,0.0
1972,63.0,0,30,11.0,0.0
1973,53.0,2,90,2.0,0.0
1974,59.0,32,90,4.0,0.0
1975,71.0,0,90,12.0,0.0
1976,81.0,2,90,9.0,0.0
1977,72.0,96,90,12.0,0.0
1978,41.0,0,90,7.0,0.0
1979,60.0,2,90,4.0,0.0
1980,69.0,0,90,1.0,0.0
1981,63.0,0,90,1.0,0.0
1982,29.0,0,90,15.0,0.0
1983,41.0,62,30,3.0,0.0
1984,41.0,0,90,14.0,0.0
1985,63.0,32,90,13.0,0.0
1986,73.0,0,30,11.0,0.0
1987,61.0,96,90,2.0,0.0
1988,58.0,0,90,2.0,0.0
1989,53.0,2,90,2.0,0.0
1990,65.0,62,30,11.0,0.0
1991,70.0,0,30,0.0,0.0
1992,73.0,0,30,0.0,0.0
1993,61.0,0,90,13.0,0.0
1994,59.0,32,90,4.0,0.0
1995,71.0,0,90,12.0,0.0
1996,72.0,96,90,12.0,0.0
1997,41.0,2,90,7.0,0.0
1998,29.0,0,90,15.0,0.0
1999,41.0,62,30,3.0,0.0
2000,41.0,0,90,14.0,0.0
2001,69.0,0,90,1.0,0.0
2002,63.0,0,90,1.0,0.0
2003,60.0,0,90,4.0,0.0
2004,63.0,32,90,13.0,0.0
2005,61.0,0,90,13.0,0.0
2006,65.0,0,30,11.0,0.0
2007,73.0,0,30,11.0,0.0
2008,61.0,0,90,2.0,0.0
2009,56.0,94,90,2.0,0.0
2010,68.0,62,30,0.0,0.0
2011,53.0,2,90,2.0,0.0
2012,73.0,0,30,0.0,0.0
2013,81.0,2,90,9.0,0.0
2014,62.0,0,90,4.0,0.0
2015,74.0,32,90,12.0,0.0
2016,70.0,0,90,1.0,0.0
2017,42.0,96,90,14.0,0.0
2018,63.0,0,90,4.0,0.0
2019,42.0,2,90,7.0,0.0
2020,30.0,0,90,15.0,0.0
2021,75.0,0,90,12.0,0.0
2022,42.0,62,30,3.0,0.0
2023,70.0,32,90,13.0,0.0
2024,76.0,0,30,0.0,0.0
2025,70.0,0,30,0.0,0.0
2026,76.0,0,30,11.0,0.0
2027,58.0,96,90,2.0,0.0
2028,54.0,2,90,2.0,0.0
2029,70.0,62,30,11.0,0.0
2030,58.0,0,90,13.0,0.0
2031,67.0,32,90,4.0,0.0
2032,79.0,0,90,12.0,0.0
2033,41.0,0,90,14.0,0.0
2034,29.0,0,90,15.0,0.0
2035,69.0,0,90,1.0,0.0
2036,72.0,0,90,1.0,0.0
2037,41.0,0,90,7.0,0.0
2038,77.0,96,90,12.0,0.0
2039,65.0,2,90,4.0,0.0
2040,41.0,62,30,3.0,0.0
2041,67.0,32,90,13.0,0.0
2042,63.0,0,90,2.0,0.0
2043,65.0,0,90,2.0,0.0
2044,69.0,0,30,11.0,0.0
2045,77.0,0,30,11.0,0.0
2046,60.0,2,90,2.0,0.0
2047,77.0,62,30,0.0,0.0
2048,72.0,0,30,0.0,0.0
2049,65.0,94,90,13.0,0.0
2050,84.0,0,90,12.0,0.0
2051,81.0,2,90,9.0,0.0
2052,72.0,32,90,4.0,0.0
2053,70.0,0,90,4.0,0.0
2054,46.0,0,90,14.0,0.0
2055,46.0,0,90,7.0,0.0
2056,46.0,62,30,3.0,0.0
2057,82.0,96,90,12.0,0.0
2058,80.0,0,90,1.0,0.0
2059,77.0,0,90,1.0,0.0
2060,74.0,0,90,1.0,0.0
2061,34.0,2,90,15.0,0.0
2062,72.0,32,90,13.0,0.0
2063,80.0,62,30,11.0,0.0
2064,74.0,0,30,0.0,0.0
2065,70.0,0,90,13.0,0.0
2066,65.0,0,90,2.0,0.0
2067,62.0,2,90,2.0,0.0
2068,82.0,0,30,0.0,0.0
2069,68.0,96,90,2.0,0.0
2070,77.0,0,30,11.0,0.0
2071,72.0,32,90,4.0,0.0
2072,84.0,0,90,12.0,0.0
2073,75.0,0,90,1.0,0.0
2074,79.0,0,90,1.0,0.0
2075,51.0,0,90,7.0,0.0
2076,51.0,62,30,3.0,0.0
2077,82.0,96,90,12.0,0.0
2078,39.0,0,90,15.0,0.0
2079,51.0,0,90,14.0,0.0
2080,70.0,2,90,4.0,0.0
2081,72.0,32,90,13.0,0.0
2082,75.0,0,30,0.0,0.0
2083,82.0,0,30,11.0,0.0
2084,75.0,62,30,11.0,0.0
2085,67.0,0,90,2.0,0.0
2086,70.0,94,90,2.0,0.0
2087,70.0,0,90,13.0,0.0
2088,63.0,2,90,2.0,0.0
2089,82.0,0,30,0.0,0.0
2090,81.0,2,90,9.0,0.0
2091,81.0,32,90,12.0,0.0
2092,69.0,0,90,4.0,0.0
2093,79.0,96,90,12.0,0.0
2094,51.0,62,30,3.0,0.0
2095,70.0,0,90,1.0,0.0
2096,75.0,0,90,1.0,0.0
2097,39.0,0,90,15.0,0.0
2098,67.0,0,90,4.0,0.0
2099,51.0,0,90,14.0,0.0
2100,51.0,2,90,7.0,0.0
2101,67.0,32,90,13.0,0.0
2102,65.0,0,60,11.0,0.0
2103,69.0,62,60,0.0,0.0
2104,60.0,0,90,2.0,0.0
2105,63.0,0,90,2.0,0.0
2106,77.0,0,30,0.0,0.0
2107,53.0,2,90,2.0,0.0
2108,63.0,96,90,13.0,0.0
2109,69.0,0,30,11.0,0.0
2110,75.0,0,90,12.0,0.0
2111,63.0,32,90,4.0,0.0
2112,74.0,0,90,12.0,0.0
2113,62.0,0,90,4.0,0.0
2114,70.0,0,90,1.0,0.0
2115,46.0,0,90,7.0,0.0
2116,34.0,0,90,15.0,0.0
2117,46.0,62,30,3.0,0.0
2118,46.0,94,90,14.0,0.0
2119,65.0,2,90,1.0,0.0
2120,53.0,2,90,2.0,0.0
2121,62.0,0,90,13.0,0.0
2122,58.0,94,90,2.0,0.0
2123,62.0,0,90,2.0,0.0
2124,41.0,32,40,15.0,0.0
2125,53.0,0,40,14.0,0.0
2126,41.0,2,40,8.0,0.0
2127,46.0,0,30,7.0,0.0
2128,46.0,0,30,14.0,0.0
2129,62.0,0,30,5.0,0.0
2130,46.0,34,90,8.0,0.0
2131,58.0,0,30,12.0,0.0
2132,62.0,48,30,0.0,0.0
2133,62.0,0,30,11.0,0.0
2134,34.0,0,30,15.0,0.0
2135,58.0,0,30,1.0,0.0
2136,46.0,0,30,6.0,0.0
2137,50.0,0,30,13.0,0.0
2138,63.0,0,30,11.0,0.0
2139,51.0,14,30,13.0,0.0
2140,63.0,0,30,5.0,0.0
2141,63.0,0,30,0.0,0.0
2142,53.0,0,30,13.0,0.0
2143,65.0,0,30,5.0,0.0
2144,65.0,0,30,11.0,0.0
2145,65.0,48,30,0.0,0.0
2146,48.0,0,30,6.0,0.0
2147,69.0,0,30,0.0,0.0
2148,57.0,0,30,13.0,0.0
2149,69.0,0,30,11.0,0.0
2150,60.0,0,30,1.0,0.0
2151,63.0,0,30,12.0,0.0
2152,48.0,0,30,7.0,0.0
2153,48.0,0,30,14.0,0.0
2154,57.0,0,30,5.0,0.0
2155,69.0,0,30,5.0,0.0
2156,36.0,0,30,15.0,0.0
2157,69.0,48,30,12.0,0.0
2158,46.0,34,90,8.0,0.0
2159,50.0,0,30,14.0,0.0
2160,62.0,0,30,12.0,0.0
2161,70.0,0,30,0.0,0.0
2162,38.0,48,30,15.0,0.0
2163,50.0,0,30,7.0,0.0
2164,58.0,0,30,13.0,0.0
2165,58.0,0,30,5.0,0.0
2166,70.0,0,30,5.0,0.0
2167,70.0,0,30,11.0,0.0
2168,50.0,0,30,6.0,0.0
2169,62.0,0,30,1.0,0.0
2170,72.0,14,30,5.0,0.0
2171,72.0,0,30,11.0,0.0
2172,60.0,0,30,5.0,0.0
2173,60.0,0,30,13.0,0.0
2174,72.0,0,30,0.0,0.0
2175,74.0,0,30,0.0,0.0
2176,62.0,48,30,5.0,0.0
2177,74.0,0,30,5.0,0.0
2178,74.0,0,30,11.0,0.0
2179,62.0,0,30,13.0,0.0
2180,55.0,0,30,7.0,0.0
2181,75.0,0,30,11.0,0.0
2182,55.0,0,30,6.0,0.0
2183,58.0,0,30,13.0,0.0
2184,75.0,34,40,0.0,0.0
2185,43.0,0,30,15.0,0.0
2186,75.0,0,30,5.0,0.0
2187,67.0,14,30,1.0,0.0
2188,63.0,0,30,5.0,0.0
2189,55.0,0,30,14.0,0.0
2190,58.0,0,30,1.0,0.0
2191,70.0,0,30,12.0,0.0
2192,74.0,0,30,11.0,0.0
2193,62.0,0,30,13.0,0.0
2194,74.0,0,30,5.0,0.0
2195,53.0,0,30,6.0,0.0
2196,41.0,0,30,15.0,0.0
2197,65.0,0,30,1.0,0.0
2198,62.0,0,30,5.0,0.0
2199,53.0,0,30,7.0,0.0
2200,46.0,0,90,8.0,0.0
2201,53.0,0,30,14.0,0.0
2202,65.0,14,30,12.0,0.0
2203,74.0,34,40,0.0,0.0
2204,75.0,34,40,0.0,0.0
2205,63.0,0,30,5.0,0.0
2206,75.0,0,30,5.0,0.0
2207,63.0,0,30,13.0,0.0
2208,70.0,0,30,5.0,0.0
2209,75.0,14,30,11.0,0.0
2210,29.0,0,30,15.0,0.0
2211,72.0,0,30,5.0,0.0
2212,60.0,0,30,5.0,0.0
2213,63.0,0,30,5.0,0.0
2214,60.0,0,30,13.0,0.0
2215,41.0,0,30,7.0,0.0
2216,69.0,0,30,12.0,0.0
2217,41.0,0,30,14.0,0.0
2218,72.0,14,30,11.0,0.0
2219,41.0,34,90,8.0,0.0
2220,41.0,0,30,6.0,0.0
2221,72.0,34,40,0.0,0.0
2222,74.0,0,40,0.0,0.0
2223,62.0,0,30,5.0,0.0
2224,74.0,0,30,5.0,0.0
2225,62.0,0,30,13.0,0.0
2226,74.0,14,30,11.0,0.0
2227,58.0,0,30,1.0,0.0
2228,46.0,0,30,7.0,0.0
2229,34.0,0,30,15.0,0.0
2230,46.0,0,30,6.0,0.0
2231,46.0,0,30,14.0,0.0
2232,70.0,0,30,11.0,0.0
2233,70.0,0,30,5.0,0.0
2234,58.0,0,30,13.0,0.0
2235,46.0,0,90,8.0,0.0
2236,58.0,0,30,5.0,0.0
2237,70.0,34,40,0.0,0.0
2238,62.0,14,30,5.0,0.0
2239,65.0,0,30,12.0,0.0
2240,72.0,0,30,11.0,0.0
2241,60.0,0,30,5.0,0.0
2242,60.0,0,30,13.0,0.0
2243,72.0,14,30,5.0,0.0
2244,72.0,34,40,0.0,0.0
2245,74.0,0,30,5.0,0.0
2246,62.0,0,30,13.0,0.0
2247,74.0,0,30,11.0,0.0
2248,62.0,14,30,5.0,0.0
2249,74.0,34,40,0.0,0.0
2250,70.0,0,30,5.0,0.0
2251,63.0,0,30,5.0,0.0
2252,75.0,34,40,0.0,0.0
2253,43.0,0,30,15.0,0.0
2254,75.0,0,30,5.0,0.0
2255,75.0,0,30,11.0,0.0
2256,70.0,0,30,12.0,0.0
2257,55.0,0,30,6.0,0.0
2258,55.0,0,30,14.0,0.0
2259,41.0,0,40,8.0,0.0
2260,67.0,0,30,1.0,0.0
2261,63.0,0,30,13.0,0.0
2262,55.0,14,30,7.0,0.0
2263,53.0,14,30,14.0,0.0
2264,74.0,0,30,11.0,0.0
2265,62.0,34,40,1.0,0.0
2266,41.0,0,30,15.0,0.0
2267,74.0,0,30,5.0,0.0
2268,62.0,0,30,5.0,0.0
2269,53.0,0,30,6.0,0.0
2270,46.0,0,90,8.0,0.0
2271,65.0,0,30,12.0,0.0
2272,74.0,0,40,0.0,0.0
2273,53.0,0,30,7.0,0.0
2274,62.0,0,30,13.0,0.0
2275,75.0,0,30,11.0,0.0
2276,63.0,14,30,13.0,0.0
2277,75.0,34,40,0.0,0.0
2278,75.0,0,30,5.0,0.0
2279,63.0,0,30,5.0,0.0
2280,63.0,0,40,1.0,0.0
2281,69.0,0,30,5.0,0.0
2282,60.0,0,30,5.0,0.0
2283,41.0,14,30,6.0,0.0
2284,41.0,0,30,14.0,0.0
2285,72.0,0,40,0.0,0.0
2286,41.0,0,90,8.0,0.0
2287,29.0,0,30,15.0,0.0
2288,60.0,0,40,1.0,0.0
2289,63.0,34,40,1.0,0.0
2290,72.0,0,30,11.0,0.0
2291,60.0,0,30,13.0,0.0
2292,69.0,0,30,12.0,0.0
2293,72.0,0,30,5.0,0.0
2294,41.0,0,30,7.0,0.0
2295,74.0,0,30,5.0,0.0
2296,62.0,0,40,1.0,0.0
2297,74.0,34,40,0.0,0.0
2298,62.0,0,30,5.0,0.0
2299,74.0,14,30,11.0,0.0
2300,62.0,0,30,13.0,0.0
2301,46.0,34,90,8.0,0.0
2302,46.0,0,30,14.0,0.0
2303,58.0,34,40,1.0,0.0
2304,62.0,0,40,1.0,0.0
2305,70.0,0,30,11.0,0.0
2306,58.0,0,30,13.0,0.0
2307,46.0,0,30,7.0,0.0
2308,34.0,0,30,15.0,0.0
2309,65.0,0,30,12.0,0.0
2310,70.0,0,40,0.0,0.0
2311,46.0,0,30,6.0,0.0
2312,58.0,0,30,5.0,0.0
2313,62.0,0,30,5.0,0.0
2314,70.0,14,30,5.0,0.0
2315,60.0,0,40,1.0,0.0
2316,60.0,0,30,13.0,0.0
2317,60.0,0,30,5.0,0.0
2318,72.0,0,40,0.0,0.0
2319,72.0,0,30,11.0,0.0
2320,72.0,14,30,5.0,0.0
2321,74.0,0,30,5.0,0.0
2322,74.0,0,40,0.0,0.0
2323,62.0,34,40,1.0,0.0
2324,62.0,0,30,5.0,0.0
2325,74.0,14,30,11.0,0.0
2326,62.0,0,30,13.0,0.0
2327,45.0,0,30,14.0,0.0
2328,69.0,0,40,0.0,0.0
2329,45.0,0,30,6.0,0.0
2330,33.0,0,30,15.0,0.0
2331,45.0,14,30,7.0,0.0
2332,69.0,34,40,1.0,0.0
2333,57.0,0,30,5.0,0.0
2334,57.0,0,30,13.0,0.0
2335,69.0,0,30,11.0,0.0
2336,69.0,0,30,5.0,0.0
2337,62.0,0,30,5.0,0.0
2338,50.0,0,30,14.0,0.0
2339,50.0,14,30,7.0,0.0
2340,74.0,0,30,5.0,0.0
2341,62.0,0,30,13.0,0.0
2342,74.0,0,30,11.0,0.0
2343,38.0,0,30,15.0,0.0
2344,74.0,0,40,1.0,0.0
2345,74.0,34,40,0.0,0.0
2346,50.0,0,30,6.0,0.0
2347,76.0,0,30,5.0,0.0
2348,64.0,14,30,13.0,0.0
2349,76.0,0,40,1.0,0.0
2350,64.0,0,30,5.0,0.0
2351,76.0,0,30,11.0,0.0
2352,76.0,34,40,0.0,0.0
2353,77.0,0,30,11.0,0.0
2354,77.0,0,30,5.0,0.0
2355,65.0,0,30,5.0,0.0
2356,65.0,14,30,13.0,0.0
2357,77.0,34,40,0.0,0.0
2358,77.0,0,40,1.0,0.0
2359,48.0,14,30,6.0,0.0
2360,72.0,34,40,1.0,0.0
2361,60.0,0,30,13.0,0.0
2362,72.0,0,30,11.0,0.0
2363,72.0,0,30,5.0,0.0
2364,72.0,0,40,0.0,0.0
2365,48.0,0,30,7.0,0.0
2366,36.0,0,30,15.0,0.0
2367,48.0,0,30,14.0,0.0
2368,60.0,0,30,5.0,0.0
2369,65.0,0,30,5.0,0.0
2370,77.0,0,30,11.0,0.0
2371,53.0,0,30,7.0,0.0
2372,77.0,0,40,1.0,0.0
2373,53.0,14,30,6.0,0.0
2374,77.0,34,40,0.0,0.0
2375,77.0,0,30,5.0,0.0
2376,53.0,0,30,14.0,0.0
2377,41.0,0,30,15.0,0.0
2378,65.0,0,30,13.0,0.0
2379,79.0,0,30,5.0,0.0
2380,67.0,0,30,5.0,0.0
2381,79.0,34,40,0.0,0.0
2382,79.0,0,40,1.0,0.0
2383,79.0,0,30,11.0,0.0
2384,67.0,14,30,13.0,0.0
2385,81.0,34,40,1.0,0.0
2386,81.0,0,30,11.0,0.0
2387,81.0,14,30,5.0,0.0
2388,81.0,0,40,0.0,0.0
2389,69.0,0,30,13.0,0.0
2390,69.0,0,30,5.0,0.0
2391,74.0,34,40,1.0,0.0
2392,62.0,0,30,5.0,0.0
2393,66.0,0,30,5.0,0.0
2394,38.0,0,30,15.0,0.0
2395,74.0,0,40,0.0,0.0
2396,50.0,0,30,7.0,0.0
2397,62.0,0,30,13.0,0.0
2398,66.0,0,30,12.0,0.0
2399,74.0,14,30,11.0,0.0
2400,74.0,0,30,5.0,0.0
2401,50.0,0,30,6.0,0.0
2402,50.0,0,30,14.0,0.0
2403,55.0,14,30,7.0,0.0
2404,55.0,0,30,6.0,0.0
2405,79.0,0,30,11.0,0.0
2406,79.0,0,30,5.0,0.0
2407,67.0,0,30,12.0,0.0
2408,79.0,0,40,1.0,0.0
2409,67.0,0,30,5.0,0.0
2410,55.0,0,30,14.0,0.0
2411,79.0,34,40,0.0,0.0
2412,67.0,0,30,13.0,0.0
2413,43.0,0,30,15.0,0.0
2414,81.0,0,40,1.0,0.0
2415,69.0,0,30,12.0,0.0
2416,81.0,34,40,5.0,0.0
2417,81.0,0,40,0.0,0.0
2418,69.0,0,40,5.0,0.0
2419,69.0,14,30,13.0,0.0
2420,81.0,0,30,11.0,0.0
2421,70.0,0,40,5.0,0.0
2422,82.0,0,40,5.0,0.0
2423,70.0,14,30,13.0,0.0
2424,70.0,0,30,12.0,0.0
2425,82.0,0,40,0.0,0.0
2426,82.0,34,40,1.0,0.0
2427,82.0,0,30,11.0,0.0
2428,74.0,0,30,12.0,0.0
2429,86.0,0,40,0.0,0.0
2430,86.0,0,30,11.0,0.0
2431,57.0,0,30,7.0,0.0
2432,84.0,34,40,1.0,0.0
2433,57.0,0,30,6.0,0.0
2434,45.0,0,30,15.0,0.0
2435,57.0,0,30,14.0,0.0
2436,78.0,0,40,1.0,0.0
2437,74.0,14,30,13.0,0.0
2438,79.0,0,40,1.0,0.0
2439,58.0,14,30,14.0,0.0
2440,79.0,0,30,12.0,0.0
2441,91.0,34,40,0.0,0.0
2442,46.0,0,30,15.0,0.0
2443,58.0,0,30,6.0,0.0
2444,91.0,0,30,11.0,0.0
2445,58.0,0,30,7.0,0.0
2446,81.0,0,30,12.0,0.0
2447,81.0,0,40,1.0,0.0
2448,93.0,34,40,0.0,0.0
2449,93.0,14,30,11.0,0.0
2450,82.0,34,40,1.0,0.0
2451,94.0,14,30,11.0,0.0
2452,94.0,0,40,0.0,0.0
2453,82.0,0,30,12.0,0.0
2454,63.0,14,30,6.0,0.0
2455,51.0,0,30,15.0,0.0
2456,63.0,0,30,7.0,0.0
2457,63.0,0,30,14.0,0.0
2458,79.0,0,30,12.0,0.0
2459,79.0,34,40,1.0,0.0
2460,91.0,0,30,11.0,0.0
2461,41.0,0,40,8.0,0.0
2462,91.0,0,40,0.0,0.0
2463,50.0,14,30,15.0,0.0
2464,77.0,0,30,12.0,0.0
2465,77.0,0,40,1.0,0.0
2466,62.0,0,30,7.0,0.0
2467,46.0,0,90,8.0,0.0
2468,89.0,34,40,0.0,0.0
2469,62.0,0,30,14.0,0.0
2470,89.0,0,30,11.0,0.0
2471,62.0,0,30,6.0,0.0
2472,79.0,0,40,1.0,0.0
2473,91.0,14,30,11.0,0.0
2474,91.0,34,40,0.0,0.0
2475,79.0,0,30,12.0,0.0
2476,60.0,0,30,14.0,0.0
2477,60.0,0,30,7.0,0.0
2478,75.0,34,40,1.0,0.0
2479,87.0,0,40,0.0,0.0
2480,87.0,14,30,11.0,0.0
2481,48.0,0,30,15.0,0.0
2482,75.0,0,30,12.0,0.0
2483,60.0,0,30,6.0,0.0
2484,77.0,0,30,12.0,0.0
2485,89.0,14,30,11.0,0.0
2486,89.0,34,40,0.0,0.0
2487,77.0,0,40,1.0,0.0
2488,86.0,34,40,0.0,0.0
2489,74.0,0,40,1.0,0.0
2490,46.0,0,90,8.0,0.0
2491,58.0,0,150,6.0,0.0
2492,58.0,0,150,14.0,0.0
2493,74.0,0,30,12.0,0.0
2494,58.0,0,150,7.0,0.0
2495,86.0,14,30,11.0,0.0
2496,46.0,34,150,15.0,0.0
2497,72.0,0,30,12.0,0.0
2498,84.0,14,30,11.0,0.0
2499,84.0,34,40,0.0,0.0
2500,72.0,0,40,1.0,0.0
2501,82.0,0,40,0.0,0.0
2502,70.0,0,30,12.0,0.0
2503,82.0,14,30,11.0,0.0
2504,70.0,0,40,1.0,0.0
2505,79.0,0,30,5.0,0.0
2506,79.0,0,30,11.0,0.0
2507,79.0,34,40,0.0,0.0
2508,67.0,0,30,12.0,0.0
2509,39.0,0,30,15.0,0.0
2510,51.0,0,30,7.0,0.0
2511,67.0,0,30,13.0,0.0
2512,51.0,0,30,14.0,0.0
2513,41.0,0,40,8.0,0.0
2514,70.0,0,40,1.0,0.0
2515,67.0,0,40,1.0,0.0
2516,70.0,0,30,5.0,0.0
2517,67.0,0,30,5.0,0.0
2518,51.0,14,30,6.0,0.0
2519,38.0,0,30,15.0,0.0
2520,50.0,0,30,14.0,0.0
2521,65.0,0,30,12.0,0.0
2522,50.0,0,30,7.0,0.0
2523,65.0,0,40,1.0,0.0
2524,65.0,14,30,5.0,0.0
2525,77.0,34,40,0.0,0.0
2526,46.0,0,90,8.0,0.0
2527,77.0,0,30,5.0,0.0
2528,65.0,0,30,13.0,0.0
2529,77.0,0,30,11.0,0.0
2530,50.0,0,30,6.0,0.0
2531,79.0,14,30,11.0,0.0
2532,79.0,0,40,0.0,0.0
2533,67.0,0,30,12.0,0.0
2534,79.0,0,30,5.0,0.0
2535,67.0,0,30,13.0,0.0
2536,67.0,0,30,5.0,0.0
2537,67.0,34,40,1.0,0.0
2538,63.0,0,30,5.0,0.0
2539,69.0,0,30,5.0,0.0
2540,41.0,34,90,8.0,0.0
2541,48.0,0,30,7.0,0.0
2542,63.0,0,30,13.0,0.0
2543,75.0,34,40,0.0,0.0
2544,75.0,0,30,5.0,0.0
2545,48.0,0,30,14.0,0.0
2546,63.0,0,40,1.0,0.0
2547,69.0,0,30,12.0,0.0
2548,36.0,0,30,15.0,0.0
2549,48.0,14,30,6.0,0.0
2550,75.0,0,30,11.0,0.0
2551,65.0,14,30,13.0,0.0
2552,77.0,0,40,0.0,0.0
2553,77.0,0,30,11.0,0.0
2554,65.0,0,40,1.0,0.0
2555,77.0,0,30,5.0,0.0
2556,65.0,0,30,5.0,0.0
2557,70.0,0,30,12.0,0.0
2558,46.0,0,150,6.0,0.0
2559,34.0,0,150,15.0,0.0
2560,62.0,0,40,1.0,0.0
2561,74.0,34,40,0.0,0.0
2562,74.0,0,30,5.0,0.0
2563,46.0,0,90,8.0,0.0
2564,46.0,0,150,7.0,0.0
2565,46.0,0,150,14.0,0.0
2566,74.0,0,30,11.0,0.0
2567,70.0,0,30,5.0,0.0
2568,62.0,14,30,13.0,0.0
2569,62.0,0,30,5.0,0.0
2570,72.0,14,30,11.0,0.0
2571,60.0,24,40,1.0,0.0
2572,60.0,0,30,5.0,0.0
2573,72.0,0,40,0.0,0.0
2574,60.0,0,30,13.0,0.0
2575,72.0,0,30,5.0,0.0
2576,58.0,0,30,5.0,0.0
2577,70.0,0,30,5.0,0.0
2578,46.0,10,20,8.0,0.0
2579,70.0,0,40,0.0,0.0
2580,58.0,24,40,1.0,0.0
2581,58.0,14,30,13.0,0.0
2582,70.0,0,30,11.0,0.0
2583,46.0,0,20,8.0,0.0
2584,74.0,0,30,11.0,0.0
2585,46.0,10,20,8.0,0.0
2586,70.0,14,30,5.0,0.0
2587,38.0,0,30,6.0,0.0
2588,62.0,0,40,1.0,0.0
2589,38.0,0,30,7.0,0.0
2590,26.0,0,30,15.0,0.0
2591,74.0,96,40,0.0,0.0
2592,62.0,0,30,5.0,0.0
2593,74.0,0,30,5.0,0.0
2594,38.0,0,30,14.0,0.0
2595,62.0,0,30,13.0,0.0
2596,70.0,0,30,12.0,0.0
2597,46.0,0,20,8.0,0.0
2598,41.0,0,150,14.0,0.0
2599,46.0,66,90,8.0,0.0
2600,29.0,0,150,15.0,0.0
2601,41.0,0,150,7.0,0.0
2602,72.0,0,150,5.0,0.0
2603,60.0,0,150,13.0,0.0
2604,60.0,0,150,5.0,0.0
2605,72.0,0,150,11.0,0.0
2606,69.0,174,150,12.0,0.0
2607,72.0,0,150,12.0,0.0
2608,41.0,0,150,6.0,0.0
2609,69.0,0,150,5.0,0.0
2610,60.0,0,150,1.0,0.0
2611,72.0,0,150,0.0,0.0
2612,53.0,32,40,14.0,0.0
2613,41.0,2,40,8.0,0.0
2614,41.0,0,40,15.0,0.0
2615,62.0,0,30,11.0,0.0
2616,58.0,48,30,12.0,0.0
2617,34.0,0,30,15.0,0.0
2618,46.0,0,30,14.0,0.0
2619,50.0,0,30,13.0,0.0
2620,46.0,0,30,6.0,0.0
2621,46.0,0,30,7.0,0.0
2622,62.0,0,30,0.0,0.0
2623,58.0,0,30,1.0,0.0
2624,62.0,0,30,5.0,0.0
2625,46.0,34,90,8.0,0.0
2626,63.0,0,30,0.0,0.0
2627,63.0,0,30,11.0,0.0
2628,63.0,0,30,5.0,0.0
2629,51.0,14,30,13.0,0.0
2630,65.0,0,30,5.0,0.0
2631,65.0,0,30,11.0,0.0
2632,65.0,48,30,0.0,0.0
2633,53.0,0,30,13.0,0.0
2634,69.0,0,30,0.0,0.0
2635,48.0,0,30,14.0,0.0
2636,69.0,0,30,12.0,0.0
2637,48.0,0,30,7.0,0.0
2638,57.0,0,30,13.0,0.0
2639,63.0,0,30,12.0,0.0
2640,69.0,48,30,11.0,0.0
2641,60.0,0,30,1.0,0.0
2642,69.0,0,30,5.0,0.0
2643,48.0,0,30,6.0,0.0
2644,57.0,0,30,5.0,0.0
2645,36.0,0,30,15.0,0.0
2646,58.0,0,30,5.0,0.0
2647,50.0,0,30,6.0,0.0
2648,50.0,0,30,14.0,0.0
2649,62.0,0,30,12.0,0.0
2650,50.0,0,30,7.0,0.0
2651,38.0,0,30,15.0,0.0
2652,70.0,0,30,0.0,0.0
2653,70.0,0,30,5.0,0.0
2654,58.0,0,30,13.0,0.0
2655,70.0,48,30,11.0,0.0
2656,62.0,0,30,1.0,0.0
2657,46.0,34,90,8.0,0.0
2658,60.0,0,30,13.0,0.0
2659,72.0,14,30,0.0,0.0
2660,72.0,0,30,11.0,0.0
2661,60.0,0,30,5.0,0.0
2662,72.0,0,30,5.0,0.0
2663,62.0,0,30,13.0,0.0
2664,62.0,0,30,5.0,0.0
2665,74.0,0,30,5.0,0.0
2666,74.0,0,30,0.0,0.0
2667,74.0,48,30,11.0,0.0
2668,63.0,0,30,5.0,0.0
2669,55.0,0,30,14.0,0.0
2670,67.0,0,30,1.0,0.0
2671,75.0,0,30,11.0,0.0
2672,55.0,0,30,6.0,0.0
2673,75.0,0,30,5.0,0.0
2674,70.0,14,30,12.0,0.0
2675,43.0,0,30,15.0,0.0
2676,58.0,0,30,13.0,0.0
2677,55.0,0,30,7.0,0.0
2678,58.0,0,30,1.0,0.0
2679,75.0,34,40,0.0,0.0
2680,74.0,34,40,0.0,0.0
2681,53.0,0,30,6.0,0.0
2682,62.0,14,30,5.0,0.0
2683,65.0,0,30,12.0,0.0
2684,74.0,0,30,5.0,0.0
2685,46.0,0,90,8.0,0.0
2686,41.0,0,30,15.0,0.0
2687,53.0,0,30,7.0,0.0
2688,65.0,0,30,1.0,0.0
2689,62.0,0,30,13.0,0.0
2690,53.0,0,30,14.0,0.0
2691,74.0,0,30,11.0,0.0
2692,63.0,0,30,5.0,0.0
2693,75.0,0,30,5.0,0.0
2694,75.0,34,40,0.0,0.0
2695,70.0,14,30,5.0,0.0
2696,63.0,0,30,13.0,0.0
2697,75.0,0,30,11.0,0.0
2698,41.0,0,90,8.0,0.0
2699,72.0,0,30,5.0,0.0
2700,63.0,0,30,5.0,0.0
2701,60.0,0,30,13.0,0.0
2702,60.0,14,30,5.0,0.0
2703,41.0,0,30,6.0,0.0
2704,72.0,34,40,0.0,0.0
2705,69.0,0,30,12.0,0.0
2706,72.0,0,30,11.0,0.0
2707,41.0,0,30,14.0,0.0
2708,41.0,0,30,7.0,0.0
2709,29.0,0,30,15.0,0.0
2710,74.0,0,30,11.0,0.0
2711,74.0,0,30,5.0,0.0
2712,74.0,34,40,0.0,0.0
2713,62.0,14,30,13.0,0.0
2714,62.0,0,30,5.0,0.0
2715,46.0,0,30,6.0,0.0
2716,70.0,0,30,11.0,0.0
2717,70.0,34,40,0.0,0.0
2718,58.0,0,30,1.0,0.0
2719,65.0,0,30,12.0,0.0
2720,58.0,0,30,13.0,0.0
2721,62.0,0,30,5.0,0.0
2722,58.0,0,30,5.0,0.0
2723,46.0,0,30,14.0,0.0
2724,34.0,14,30,15.0,0.0
2725,46.0,0,30,7.0,0.0
2726,46.0,34,90,8.0,0.0
2727,70.0,0,30,5.0,0.0
2728,72.0,0,40,0.0,0.0
2729,60.0,0,30,13.0,0.0
2730,72.0,0,30,11.0,0.0
2731,60.0,14,30,5.0,0.0
2732,72.0,0,30,5.0,0.0
2733,74.0,14,30,11.0,0.0
2734,62.0,0,30,13.0,0.0
2735,74.0,34,40,0.0,0.0
2736,62.0,0,30,5.0,0.0
2737,74.0,0,30,5.0,0.0
2738,70.0,0,30,5.0,0.0
2739,63.0,0,30,5.0,0.0
2740,43.0,14,30,15.0,0.0
2741,70.0,0,30,12.0,0.0
2742,67.0,0,30,1.0,0.0
2743,41.0,34,40,8.0,0.0
2744,75.0,0,30,11.0,0.0
2745,55.0,0,30,14.0,0.0
2746,75.0,0,30,5.0,0.0
2747,75.0,0,40,0.0,0.0
2748,55.0,0,30,6.0,0.0
2749,63.0,0,30,13.0,0.0
2750,55.0,0,30,7.0,0.0
2751,62.0,0,30,5.0,0.0
2752,65.0,0,30,12.0,0.0
2753,62.0,14,30,13.0,0.0
2754,46.0,0,90,8.0,0.0
2755,53.0,0,30,14.0,0.0
2756,41.0,0,30,15.0,0.0
2757,53.0,0,30,7.0,0.0
2758,74.0,0,30,5.0,0.0
2759,74.0,0,30,11.0,0.0
2760,62.0,0,40,1.0,0.0
2761,74.0,34,40,0.0,0.0
2762,53.0,0,30,6.0,0.0
2763,63.0,0,40,1.0,0.0
2764,63.0,0,30,5.0,0.0
2765,75.0,34,40,0.0,0.0
2766,63.0,0,30,13.0,0.0
2767,75.0,0,30,5.0,0.0
2768,75.0,14,30,11.0,0.0
2769,72.0,0,30,11.0,0.0
2770,41.0,0,90,8.0,0.0
2771,41.0,0,30,7.0,0.0
2772,69.0,0,30,12.0,0.0
2773,41.0,0,30,6.0,0.0
2774,69.0,0,30,5.0,0.0
2775,60.0,0,30,5.0,0.0
2776,60.0,0,40,1.0,0.0
2777,63.0,0,40,1.0,0.0
2778,41.0,14,30,14.0,0.0
2779,72.0,0,30,5.0,0.0
2780,60.0,0,30,13.0,0.0
2781,72.0,34,40,0.0,0.0
2782,29.0,0,30,15.0,0.0
2783,74.0,0,30,5.0,0.0
2784,62.0,0,40,1.0,0.0
2785,62.0,0,30,5.0,0.0
2786,62.0,14,30,13.0,0.0
2787,74.0,34,40,0.0,0.0
2788,74.0,0,30,11.0,0.0
2789,46.0,0,30,14.0,0.0
2790,58.0,0,30,13.0,0.0
2791,46.0,0,30,6.0,0.0
2792,70.0,0,40,0.0,0.0
2793,70.0,0,30,11.0,0.0
2794,62.0,0,30,5.0,0.0
2795,70.0,14,30,5.0,0.0
2796,46.0,0,30,7.0,0.0
2797,46.0,34,90,8.0,0.0
2798,62.0,34,40,1.0,0.0
2799,58.0,0,40,1.0,0.0
2800,65.0,0,30,12.0,0.0
2801,58.0,0,30,5.0,0.0
2802,34.0,0,30,15.0,0.0
2803,60.0,14,30,13.0,0.0
2804,60.0,0,40,1.0,0.0
2805,72.0,0,40,0.0,0.0
2806,72.0,0,30,11.0,0.0
2807,60.0,0,30,5.0,0.0
2808,72.0,0,30,5.0,0.0
2809,62.0,0,30,5.0,0.0
2810,62.0,0,30,13.0,0.0
2811,74.0,34,40,0.0,0.0
2812,74.0,0,30,5.0,0.0
2813,74.0,14,30,11.0,0.0
2814,62.0,0,40,1.0,0.0
2815,69.0,0,40,1.0,0.0
2816,69.0,0,30,5.0,0.0
2817,69.0,0,30,11.0,0.0
2818,69.0,34,40,0.0,0.0
2819,33.0,14,30,15.0,0.0
2820,57.0,0,30,5.0,0.0
2821,45.0,0,30,6.0,0.0
2822,45.0,0,30,14.0,0.0
2823,45.0,0,30,7.0,0.0
2824,57.0,0,30,13.0,0.0
2825,62.0,14,30,13.0,0.0
2826,50.0,0,30,14.0,0.0
2827,74.0,0,30,5.0,0.0
2828,74.0,34,40,1.0,0.0
2829,38.0,0,30,15.0,0.0
2830,74.0,0,30,11.0,0.0
2831,50.0,0,30,6.0,0.0
2832,62.0,0,30,5.0,0.0
2833,74.0,0,40,0.0,0.0
2834,50.0,0,30,7.0,0.0
2835,76.0,0,30,5.0,0.0
2836,64.0,0,30,13.0,0.0
2837,76.0,0,40,0.0,0.0
2838,76.0,0,30,11.0,0.0
2839,76.0,34,40,1.0,0.0
2840,64.0,14,30,5.0,0.0
2841,65.0,0,30,5.0,0.0
2842,77.0,34,40,1.0,0.0
2843,77.0,14,30,5.0,0.0
2844,77.0,0,30,11.0,0.0
2845,77.0,0,40,0.0,0.0
2846,65.0,0,30,13.0,0.0
2847,72.0,14,30,11.0,0.0
2848,72.0,0,30,5.0,0.0
2849,48.0,0,30,7.0,0.0
2850,60.0,0,30,13.0,0.0
2851,48.0,0,30,14.0,0.0
2852,48.0,0,30,6.0,0.0
2853,60.0,0,30,5.0,0.0
2854,36.0,0,30,15.0,0.0
2855,72.0,0,40,0.0,0.0
2856,72.0,34,40,1.0,0.0
2857,77.0,0,30,11.0,0.0
2858,53.0,0,30,6.0,0.0
2859,53.0,0,30,14.0,0.0
2860,77.0,34,40,0.0,0.0
2861,53.0,0,30,7.0,0.0
2862,77.0,0,30,5.0,0.0
2863,65.0,0,30,13.0,0.0
2864,65.0,0,30,5.0,0.0
2865,41.0,14,30,15.0,0.0
2866,77.0,0,40,1.0,0.0
2867,79.0,34,40,1.0,0.0
2868,67.0,0,30,13.0,0.0
2869,79.0,0,30,11.0,0.0
2870,79.0,0,40,0.0,0.0
2871,67.0,14,30,5.0,0.0
2872,79.0,0,30,5.0,0.0
2873,69.0,0,30,13.0,0.0
2874,81.0,34,40,0.0,0.0
2875,81.0,0,40,1.0,0.0
2876,69.0,0,30,5.0,0.0
2877,81.0,14,30,5.0,0.0
2878,81.0,0,30,11.0,0.0
2879,74.0,0,30,5.0,0.0
2880,50.0,0,30,7.0,0.0
2881,38.0,0,30,15.0,0.0
2882,74.0,0,30,11.0,0.0
2883,74.0,34,40,0.0,0.0
2884,66.0,0,30,12.0,0.0
2885,50.0,14,30,6.0,0.0
2886,62.0,0,30,5.0,0.0
2887,66.0,0,30,5.0,0.0
2888,62.0,0,30,13.0,0.0
2889,50.0,0,30,14.0,0.0
2890,74.0,0,40,1.0,0.0
2891,55.0,0,30,14.0,0.0
2892,79.0,34,40,0.0,0.0
2893,79.0,14,30,11.0,0.0
2894,43.0,0,30,15.0,0.0
2895,67.0,0,30,13.0,0.0
2896,67.0,0,30,12.0,0.0
2897,79.0,0,40,1.0,0.0
2898,67.0,0,30,5.0,0.0
2899,79.0,0,30,5.0,0.0
2900,55.0,0,30,6.0,0.0
2901,55.0,0,30,7.0,0.0
2902,81.0,0,40,5.0,0.0
2903,69.0,0,30,13.0,0.0
2904,69.0,34,40,5.0,0.0
2905,81.0,0,40,1.0,0.0
2906,81.0,0,40,0.0,0.0
2907,69.0,0,30,12.0,0.0
2908,81.0,14,30,11.0,0.0
2909,82.0,0,40,0.0,0.0
2910,82.0,34,40,5.0,0.0
2911,70.0,0,30,13.0,0.0
2912,70.0,0,30,12.0,0.0
2913,82.0,0,40,1.0,0.0
2914,82.0,14,30,11.0,0.0
2915,70.0,0,40,5.0,0.0
2916,74.0,0,30,13.0,0.0
2917,57.0,0,30,6.0,0.0
2918,86.0,34,40,0.0,0.0
2919,57.0,0,30,14.0,0.0
2920,57.0,0,30,7.0,0.0
2921,78.0,0,40,1.0,0.0
2922,84.0,0,40,1.0,0.0
2923,45.0,0,30,15.0,0.0
2924,86.0,0,30,11.0,0.0
2925,74.0,14,30,12.0,0.0
2926,58.0,0,30,7.0,0.0
2927,58.0,0,30,14.0,0.0
2928,58.0,0,30,6.0,0.0
2929,79.0,0,30,12.0,0.0
2930,91.0,34,40,0.0,0.0
2931,46.0,0,30,15.0,0.0
2932,79.0,0,40,1.0,0.0
2933,91.0,14,30,11.0,0.0
2934,81.0,14,30,12.0,0.0
2935,93.0,0,40,0.0,0.0
2936,81.0,34,40,1.0,0.0
2937,93.0,0,30,11.0,0.0
2938,94.0,14,30,11.0,0.0
2939,94.0,0,40,0.0,0.0
2940,82.0,0,30,12.0,0.0
2941,82.0,34,40,1.0,0.0
2942,63.0,0,30,14.0,0.0
2943,41.0,0,40,8.0,0.0
2944,79.0,0,40,1.0,0.0
2945,63.0,14,30,7.0,0.0
2946,91.0,34,40,0.0,0.0
2947,91.0,0,30,11.0,0.0
2948,79.0,0,30,12.0,0.0
2949,51.0,0,30,15.0,0.0
2950,63.0,0,30,6.0,0.0
2951,46.0,0,90,8.0,0.0
2952,77.0,0,40,1.0,0.0
2953,89.0,0,30,11.0,0.0
2954,62.0,0,30,7.0,0.0
2955,50.0,0,30,15.0,0.0
2956,62.0,14,30,14.0,0.0
2957,62.0,0,30,6.0,0.0
2958,77.0,0,30,12.0,0.0
2959,89.0,34,40,0.0,0.0
2960,91.0,34,40,0.0,0.0
2961,79.0,0,40,1.0,0.0
2962,91.0,0,30,11.0,0.0
2963,79.0,14,30,12.0,0.0
2964,60.0,0,30,6.0,0.0
2965,87.0,34,40,0.0,0.0
2966,75.0,0,40,1.0,0.0
2967,60.0,0,30,7.0,0.0
2968,60.0,0,30,14.0,0.0
2969,75.0,0,30,12.0,0.0
2970,87.0,0,30,11.0,0.0
2971,48.0,14,30,15.0,0.0
2972,77.0,0,30,12.0,0.0
2973,89.0,0,40,0.0,0.0
2974,77.0,34,40,1.0,0.0
2975,89.0,14,30,11.0,0.0
2976,74.0,0,30,12.0,0.0
2977,86.0,14,30,11.0,0.0
2978,86.0,0,40,0.0,0.0
2979,46.0,0,90,8.0,0.0
2980,58.0,0,150,6.0,0.0
2981,58.0,0,150,7.0,0.0
2982,58.0,0,150,14.0,0.0
2983,74.0,34,40,1.0,0.0
2984,46.0,0,150,15.0,0.0
2985,84.0,14,30,11.0,0.0
2986,84.0,0,40,0.0,0.0
2987,72.0,0,30,12.0,0.0
2988,72.0,34,40,1.0,0.0
2989,82.0,34,40,0.0,0.0
2990,82.0,14,30,11.0,0.0
2991,70.0,0,40,1.0,0.0
2992,70.0,0,30,12.0,0.0
2993,67.0,0,30,5.0,0.0
2994,70.0,0,30,5.0,0.0
2995,51.0,0,30,14.0,0.0
2996,79.0,0,30,11.0,0.0
2997,51.0,14,30,6.0,0.0
2998,51.0,0,30,7.0,0.0
2999,67.0,0,40,1.0,0.0
3000,39.0,0,30,15.0,0.0
3001,70.0,0,40,1.0,0.0
3002,41.0,0,40,8.0,0.0
3003,67.0,0,30,12.0,0.0
3004,79.0,34,40,0.0,0.0
3005,67.0,0,30,13.0,0.0
3006,79.0,0,30,5.0,0.0
3007,77.0,0,40,0.0,0.0
3008,65.0,0,30,5.0,0.0
3009,50.0,0,30,7.0,0.0
3010,77.0,14,30,11.0,0.0
3011,65.0,34,40,1.0,0.0
3012,50.0,0,30,14.0,0.0
3013,50.0,0,30,6.0,0.0
3014,38.0,0,30,15.0,0.0
3015,65.0,0,30,13.0,0.0
3016,65.0,0,30,12.0,0.0
3017,46.0,0,90,8.0,0.0
3018,77.0,0,30,5.0,0.0
3019,67.0,0,30,5.0,0.0
3020,67.0,0,30,12.0,0.0
3021,67.0,14,30,13.0,0.0
3022,79.0,34,40,0.0,0.0
3023,79.0,0,30,5.0,0.0
3024,67.0,0,40,1.0,0.0
3025,79.0,0,30,11.0,0.0
3026,63.0,0,30,13.0,0.0
3027,63.0,0,40,1.0,0.0
3028,69.0,0,30,5.0,0.0
3029,63.0,14,30,5.0,0.0
3030,69.0,0,30,12.0,0.0
3031,41.0,0,90,8.0,0.0
3032,48.0,0,30,7.0,0.0
3033,48.0,0,30,6.0,0.0
3034,75.0,34,40,0.0,0.0
3035,75.0,0,30,11.0,0.0
3036,75.0,0,30,5.0,0.0
3037,36.0,0,30,15.0,0.0
3038,48.0,0,30,14.0,0.0
3039,77.0,0,30,5.0,0.0
3040,77.0,0,30,11.0,0.0
3041,65.0,0,40,1.0,0.0
3042,65.0,0,30,13.0,0.0
3043,77.0,34,40,0.0,0.0
3044,65.0,14,30,5.0,0.0
3045,62.0,0,40,1.0,0.0
3046,46.0,0,150,14.0,0.0
3047,46.0,24,90,8.0,0.0
3048,62.0,0,30,13.0,0.0
3049,46.0,0,150,6.0,0.0
3050,74.0,0,30,5.0,0.0
3051,46.0,0,150,7.0,0.0
3052,62.0,0,30,5.0,0.0
3053,74.0,0,30,11.0,0.0
3054,70.0,0,30,12.0,0.0
3055,70.0,14,30,5.0,0.0
3056,34.0,0,150,15.0,0.0
3057,74.0,34,40,0.0,0.0
3058,72.0,0,40,0.0,0.0
3059,72.0,0,30,5.0,0.0
3060,60.0,0,30,13.0,0.0
3061,60.0,14,30,5.0,0.0
3062,60.0,0,40,1.0,0.0
3063,72.0,0,30,11.0,0.0
3064,70.0,0,40,0.0,0.0
3065,58.0,24,40,1.0,0.0
3066,46.0,10,20,8.0,0.0
3067,58.0,0,30,5.0,0.0
3068,58.0,0,30,13.0,0.0
3069,70.0,14,30,5.0,0.0
3070,70.0,0,30,11.0,0.0
3071,46.0,0,20,8.0,0.0
3072,38.0,0,30,14.0,0.0
3073,74.0,0,30,5.0,0.0
3074,46.0,10,20,8.0,0.0
3075,26.0,0,30,15.0,0.0
3076,38.0,0,30,6.0,0.0
3077,70.0,0,30,12.0,0.0
3078,74.0,0,30,11.0,0.0
3079,62.0,14,30,5.0,0.0
3080,62.0,0,40,1.0,0.0
3081,74.0,0,40,0.0,0.0
3082,38.0,0,30,7.0,0.0
3083,62.0,0,30,13.0,0.0
3084,70.0,0,30,5.0,0.0
3085,46.0,96,20,8.0,0.0
3086,60.0,0,150,5.0,0.0
3087,41.0,0,150,14.0,0.0
3088,41.0,0,150,7.0,0.0
3089,72.0,0,150,11.0,0.0
3090,69.0,160,150,5.0,0.0
3091,41.0,0,150,6.0,0.0
3092,72.0,0,150,5.0,0.0
3093,46.0,66,90,8.0,0.0
3094,60.0,0,150,1.0,0.0
3095,29.0,0,150,15.0,0.0
3096,60.0,0,150,13.0,0.0
3097,72.0,0,150,0.0,0.0
3098,72.0,0,150,12.0,0.0
3099,69.0,0,150,12.0,0.0
3100,53.0,34,40,13.0,0.0
3101,65.0,0,40,0.0,0.0
3102,53.0,0,30,5.0,0.0
3103,65.0,0,30,5.0,0.0
3104,65.0,14,30,11.0,0.0
3105,53.0,0,150,14.0,0.0
3106,57.0,34,40,13.0,0.0
3107,69.0,0,30,11.0,0.0
3108,57.0,0,30,5.0,0.0
3109,69.0,14,30,5.0,0.0
3110,41.0,0,150,15.0,0.0
3111,69.0,0,40,0.0,0.0
3112,53.0,34,150,7.0,0.0
3113,53.0,0,150,6.0,0.0
3114,58.0,34,40,13.0,0.0
3115,70.0,14,30,11.0,0.0
3116,70.0,0,40,0.0,0.0
3117,70.0,0,30,5.0,0.0
3118,58.0,0,30,5.0,0.0
3119,60.0,0,30,5.0,0.0
3120,72.0,0,30,5.0,0.0
3121,72.0,14,30,11.0,0.0
3122,72.0,0,40,0.0,0.0
3123,60.0,0,40,13.0,0.0
3124,65.0,34,40,13.0,0.0
3125,65.0,0,30,5.0,0.0
3126,77.0,0,30,11.0,0.0
3127,41.0,0,30,14.0,0.0
3128,41.0,0,30,7.0,0.0
3129,77.0,0,30,5.0,0.0
3130,77.0,0,40,0.0,0.0
3131,29.0,0,30,15.0,0.0
3132,41.0,14,30,6.0,0.0
3133,73.0,34,150,0.0,0.0
3134,65.0,0,150,5.0,0.0
3135,61.0,0,150,1.0,0.0
3136,61.0,0,150,5.0,0.0
3137,46.0,34,40,7.0,0.0
3138,73.0,0,150,11.0,0.0
3139,46.0,14,30,6.0,0.0
3140,46.0,0,30,14.0,0.0
3141,65.0,0,150,12.0,0.0
3142,61.0,34,90,13.0,0.0
3143,70.0,0,150,12.0,0.0
3144,73.0,0,150,5.0,0.0
3145,34.0,0,30,15.0,0.0
3146,48.0,14,30,14.0,0.0
3147,36.0,0,30,15.0,0.0
3148,48.0,0,40,7.0,0.0
3149,48.0,0,30,6.0,0.0
3150,37.0,0,30,15.0,0.0
3151,49.0,0,30,6.0,0.0
3152,49.0,0,40,7.0,0.0
3153,49.0,14,30,14.0,0.0
3154,53.0,0,30,6.0,0.0
3155,53.0,0,30,14.0,0.0
3156,65.0,14,30,5.0,0.0
3157,41.0,0,30,15.0,0.0
3158,65.0,0,30,11.0,0.0
3159,53.0,0,40,7.0,0.0
3160,65.0,0,40,0.0,0.0
3161,53.0,34,40,13.0,0.0
3162,53.0,0,30,5.0,0.0
3163,29.0,0,150,15.0,0.0
3164,69.0,14,30,5.0,0.0
3165,69.0,0,30,11.0,0.0
3166,41.0,0,150,7.0,0.0
3167,57.0,0,30,5.0,0.0
3168,69.0,0,40,0.0,0.0
3169,57.0,34,40,13.0,0.0
3170,41.0,0,150,6.0,0.0
3171,41.0,0,150,14.0,0.0
3172,58.0,0,30,5.0,0.0
3173,70.0,14,30,5.0,0.0
3174,70.0,0,30,11.0,0.0
3175,58.0,0,40,13.0,0.0
3176,70.0,34,40,0.0,0.0
3177,72.0,0,30,5.0,0.0
3178,60.0,0,30,5.0,0.0
3179,72.0,34,40,0.0,0.0
3180,72.0,14,30,11.0,0.0
3181,60.0,0,40,13.0,0.0
3182,77.0,34,40,0.0,0.0
3183,65.0,0,40,13.0,0.0
3184,77.0,0,30,11.0,0.0
3185,41.0,0,30,14.0,0.0
3186,41.0,0,30,7.0,0.0
3187,41.0,14,30,6.0,0.0
3188,65.0,0,30,5.0,0.0
3189,77.0,0,30,5.0,0.0
3190,29.0,0,30,15.0,0.0
3191,46.0,0,30,6.0,0.0
3192,73.0,0,150,5.0,0.0
3193,73.0,34,150,0.0,0.0
3194,61.0,34,90,13.0,0.0
3195,73.0,0,150,11.0,0.0
3196,65.0,0,150,5.0,0.0
3197,70.0,0,150,12.0,0.0
3198,61.0,0,150,1.0,0.0
3199,61.0,0,150,5.0,0.0
3200,46.0,0,30,7.0,0.0
3201,65.0,0,150,12.0,0.0
3202,46.0,48,30,14.0,0.0
3203,34.0,0,30,15.0,0.0
3204,48.0,14,30,14.0,0.0
3205,48.0,0,30,7.0,0.0
3206,36.0,0,30,15.0,0.0
3207,48.0,0,30,6.0,0.0
3208,49.0,0,30,14.0,0.0
3209,37.0,0,30,15.0,0.0
3210,49.0,14,30,6.0,0.0
3211,49.0,0,30,7.0,0.0
3212,78.0,0,40,0.0,0.0
3213,78.0,0,40,5.0,0.0
3214,78.0,0,30,11.0,0.0
3215,42.0,0,30,7.0,0.0
3216,42.0,0,30,14.0,0.0
3217,30.0,14,30,15.0,0.0
3218,66.0,0,30,5.0,0.0
3219,66.0,34,40,13.0,0.0
3220,42.0,0,30,6.0,0.0
3221,63.0,34,150,1.0,0.0
3222,48.0,0,30,7.0,0.0
3223,48.0,0,30,6.0,0.0
3224,36.0,48,30,15.0,0.0
3225,75.0,0,150,11.0,0.0
3226,48.0,0,30,14.0,0.0
3227,63.0,34,90,13.0,0.0
3228,75.0,0,150,0.0,0.0
3229,63.0,0,150,5.0,0.0
3230,66.0,0,150,12.0,0.0
3231,66.0,0,150,5.0,0.0
3232,75.0,0,150,5.0,0.0
3233,72.0,0,150,12.0,0.0
3234,49.0,0,30,14.0,0.0
3235,37.0,14,30,15.0,0.0
3236,49.0,0,30,6.0,0.0
3237,49.0,0,30,7.0,0.0
3238,51.0,0,30,7.0,0.0
3239,51.0,14,30,14.0,0.0
3240,39.0,0,30,15.0,0.0
3241,51.0,0,30,6.0,0.0
3242,44.0,0,30,14.0,0.0
3243,44.0,0,30,7.0,0.0
3244,80.0,0,40,5.0,0.0
3245,80.0,14,30,11.0,0.0
3246,68.0,0,30,5.0,0.0
3247,68.0,0,40,13.0,0.0
3248,32.0,0,30,15.0,0.0
3249,44.0,0,30,6.0,0.0
3250,80.0,34,40,0.0,0.0
3251,77.0,0,150,11.0,0.0
3252,68.0,0,150,5.0,0.0
3253,65.0,0,150,5.0,0.0
3254,49.0,0,30,14.0,0.0
3255,77.0,0,150,5.0,0.0
3256,49.0,0,30,6.0,0.0
3257,65.0,0,150,1.0,0.0
3258,77.0,0,150,0.0,0.0
3259,68.0,34,150,12.0,0.0
3260,65.0,34,90,13.0,0.0
3261,37.0,48,30,15.0,0.0
3262,49.0,0,30,7.0,0.0
3263,73.0,0,150,12.0,0.0
3264,39.0,0,30,15.0,0.0
3265,51.0,14,30,6.0,0.0
3266,51.0,0,30,7.0,0.0
3267,51.0,0,30,14.0,0.0
3268,53.0,14,30,6.0,0.0
3269,53.0,0,30,7.0,0.0
3270,53.0,0,30,14.0,0.0
3271,41.0,0,30,15.0,0.0
3272,46.0,0,30,6.0,0.0
3273,82.0,0,40,0.0,0.0
3274,34.0,0,30,15.0,0.0
3275,82.0,0,30,11.0,0.0
3276,46.0,0,30,7.0,0.0
3277,70.0,0,30,5.0,0.0
3278,70.0,34,40,13.0,0.0
3279,46.0,14,30,14.0,0.0
3280,78.0,0,150,11.0,0.0
3281,39.0,48,30,15.0,0.0
3282,78.0,0,150,5.0,0.0
3283,51.0,0,30,7.0,0.0
3284,78.0,34,150,0.0,0.0
3285,51.0,0,30,6.0,0.0
3286,66.0,34,90,13.0,0.0
3287,70.0,0,150,5.0,0.0
3288,78.0,0,150,12.0,0.0
3289,66.0,0,150,5.0,0.0
3290,51.0,0,30,14.0,0.0
3291,41.0,0,30,15.0,0.0
3292,53.0,0,30,7.0,0.0
3293,53.0,14,30,6.0,0.0
3294,53.0,0,30,14.0,0.0
3295,54.0,0,30,7.0,0.0
3296,42.0,0,30,15.0,0.0
3297,54.0,14,30,6.0,0.0
3298,54.0,0,30,14.0,0.0
3299,87.0,0,40,0.0,0.0
3300,75.0,34,40,13.0,0.0
3301,39.0,0,30,15.0,0.0
3302,51.0,14,30,7.0,0.0
3303,51.0,0,30,6.0,0.0
3304,87.0,0,30,11.0,0.0
3305,51.0,0,30,14.0,0.0
3306,77.0,0,150,12.0,0.0
3307,53.0,0,30,7.0,0.0
3308,72.0,0,150,1.0,0.0
3309,41.0,0,30,15.0,0.0
3310,81.0,34,150,12.0,0.0
3311,53.0,0,30,14.0,0.0
3312,84.0,0,150,0.0,0.0
3313,84.0,0,150,11.0,0.0
3314,72.0,34,90,13.0,0.0
3315,53.0,48,30,6.0,0.0
3316,33.0,14,30,15.0,0.0
3317,45.0,0,30,14.0,0.0
3318,36.0,0,30,15.0,0.0
3319,48.0,14,30,14.0,0.0
3320,77.0,0,40,13.0,0.0
3321,89.0,14,30,11.0,0.0
3322,29.0,0,30,15.0,0.0
3323,41.0,0,30,14.0,0.0
3324,41.0,0,30,6.0,0.0
3325,41.0,0,30,7.0,0.0
3326,41.0,0,40,8.0,0.0
3327,89.0,34,40,0.0,0.0
3328,62.0,0,30,13.0,0.0
3329,70.0,0,30,12.0,0.0
3330,70.0,0,40,1.0,0.0
3331,65.0,0,40,1.0,0.0
3332,65.0,0,30,12.0,0.0
3333,74.0,34,40,0.0,0.0
3334,41.0,0,30,6.0,0.0
3335,34.0,0,30,7.0,0.0
3336,46.0,0,30,14.0,0.0
3337,46.0,0,90,8.0,0.0
3338,34.0,0,30,15.0,0.0
3339,74.0,14,30,11.0,0.0
3340,63.0,0,30,13.0,0.0
3341,75.0,34,40,0.0,0.0
3342,75.0,14,30,11.0,0.0
3343,65.0,14,30,13.0,0.0
3344,77.0,34,40,0.0,0.0
3345,77.0,0,30,11.0,0.0
3346,81.0,0,40,0.0,0.0
3347,77.0,0,40,1.0,0.0
3348,69.0,34,40,1.0,0.0
3349,69.0,14,30,12.0,0.0
3350,48.0,0,30,14.0,0.0
3351,77.0,0,30,12.0,0.0
3352,81.0,0,30,11.0,0.0
3353,36.0,0,30,15.0,0.0
3354,69.0,0,30,13.0,0.0
3355,41.0,0,30,6.0,0.0
3356,36.0,0,30,7.0,0.0
3357,46.0,0,90,8.0,0.0
3358,82.0,0,30,11.0,0.0
3359,70.0,0,30,12.0,0.0
3360,38.0,0,30,7.0,0.0
3361,38.0,0,30,15.0,0.0
3362,70.0,0,30,13.0,0.0
3363,70.0,34,40,1.0,0.0
3364,41.0,14,30,6.0,0.0
3365,82.0,0,40,0.0,0.0
3366,50.0,0,30,14.0,0.0
3367,84.0,34,40,0.0,0.0
3368,72.0,0,30,13.0,0.0
3369,84.0,14,30,11.0,0.0
3370,86.0,34,40,0.0,0.0
3371,86.0,14,30,11.0,0.0
3372,74.0,0,30,13.0,0.0
3373,82.0,34,40,1.0,0.0
3374,51.0,0,30,15.0,0.0
3375,51.0,0,30,7.0,0.0
3376,63.0,0,30,14.0,0.0
3377,79.0,0,30,12.0,0.0
3378,41.0,0,40,8.0,0.0
3379,91.0,14,30,11.0,0.0
3380,82.0,0,30,12.0,0.0
3381,79.0,0,30,13.0,0.0
3382,91.0,0,40,0.0,0.0
3383,58.0,0,30,6.0,0.0
3384,79.0,0,40,1.0,0.0
3385,46.0,34,90,8.0,0.0
3386,58.0,0,30,6.0,0.0
3387,77.0,34,40,1.0,0.0
3388,77.0,14,30,12.0,0.0
3389,89.0,0,40,0.0,0.0
3390,62.0,0,30,14.0,0.0
3391,50.0,0,30,7.0,0.0
3392,77.0,0,30,13.0,0.0
3393,89.0,0,30,11.0,0.0
3394,50.0,0,30,15.0,0.0
3395,91.0,14,30,11.0,0.0
3396,91.0,0,40,0.0,0.0
3397,79.0,0,30,13.0,0.0
3398,60.0,0,30,14.0,0.0
3399,48.0,0,30,7.0,0.0
3400,53.0,0,30,6.0,0.0
3401,48.0,0,30,15.0,0.0
3402,75.0,14,30,13.0,0.0
3403,87.0,34,40,0.0,0.0
3404,87.0,0,30,11.0,0.0
3405,86.0,0,30,11.0,0.0
3406,86.0,34,40,0.0,0.0
3407,74.0,0,40,1.0,0.0
3408,46.0,0,30,15.0,0.0
3409,58.0,0,30,14.0,0.0
3410,46.0,0,30,7.0,0.0
3411,74.0,0,30,12.0,0.0
3412,74.0,0,30,13.0,0.0
3413,53.0,14,30,6.0,0.0
3414,84.0,14,30,11.0,0.0
3415,45.0,0,30,15.0,0.0
3416,45.0,0,30,7.0,0.0
3417,72.0,0,30,12.0,0.0
3418,72.0,0,30,13.0,0.0
3419,53.0,0,30,6.0,0.0
3420,46.0,34,90,8.0,0.0
3421,57.0,0,30,14.0,0.0
3422,72.0,0,40,1.0,0.0
3423,84.0,34,40,0.0,0.0
3424,74.0,14,30,13.0,0.0
3425,86.0,0,30,11.0,0.0
3426,86.0,0,40,0.0,0.0
3427,82.0,0,30,11.0,0.0
3428,43.0,0,30,7.0,0.0
3429,70.0,0,30,13.0,0.0
3430,55.0,0,30,6.0,0.0
3431,55.0,14,30,14.0,0.0
3432,82.0,34,40,0.0,0.0
3433,43.0,0,30,15.0,0.0
3434,81.0,0,40,0.0,0.0
3435,69.0,0,40,1.0,0.0
3436,69.0,0,30,5.0,0.0
3437,69.0,0,30,13.0,0.0
3438,41.0,0,30,7.0,0.0
3439,81.0,0,30,5.0,0.0
3440,81.0,14,30,11.0,0.0
3441,69.0,0,30,12.0,0.0
3442,53.0,0,30,14.0,0.0
3443,41.0,0,30,15.0,0.0
3444,41.0,34,40,8.0,0.0
3445,53.0,0,30,6.0,0.0
3446,67.0,0,30,13.0,0.0
3447,67.0,0,30,5.0,0.0
3448,79.0,14,30,11.0,0.0
3449,51.0,0,90,14.0,0.0
3450,39.0,0,90,7.0,0.0
3451,51.0,0,90,6.0,0.0
3452,67.0,0,30,12.0,0.0
3453,46.0,0,90,8.0,0.0
3454,79.0,34,40,0.0,0.0
3455,67.0,0,40,1.0,0.0
3456,39.0,34,90,15.0,0.0
3457,79.0,0,30,5.0,0.0
3458,81.0,0,30,11.0,0.0
3459,69.0,0,30,12.0,0.0
3460,69.0,0,40,1.0,0.0
3461,69.0,0,30,13.0,0.0
3462,81.0,0,40,0.0,0.0
3463,81.0,0,30,5.0,0.0
3464,69.0,14,30,5.0,0.0
3465,65.0,0,30,12.0,0.0
3466,38.0,0,90,7.0,0.0
3467,65.0,0,40,1.0,0.0
3468,77.0,0,30,5.0,0.0
3469,77.0,34,40,0.0,0.0
3470,65.0,0,30,5.0,0.0
3471,38.0,0,90,15.0,0.0
3472,41.0,0,90,8.0,0.0
3473,77.0,14,30,11.0,0.0
3474,50.0,0,90,14.0,0.0
3475,65.0,0,30,13.0,0.0
3476,50.0,0,90,6.0,0.0
3477,67.0,0,30,13.0,0.0
3478,79.0,0,30,11.0,0.0
3479,67.0,34,40,1.0,0.0
3480,67.0,0,30,5.0,0.0
3481,79.0,0,40,0.0,0.0
3482,79.0,0,30,5.0,0.0
3483,67.0,14,30,12.0,0.0
3484,48.0,0,150,14.0,0.0
3485,48.0,0,150,6.0,0.0
3486,36.0,0,150,15.0,0.0
3487,75.0,0,30,11.0,0.0
3488,36.0,24,150,7.0,0.0
3489,63.0,0,40,1.0,0.0
3490,75.0,34,40,0.0,0.0
3491,63.0,14,30,13.0,0.0
3492,46.0,24,90,8.0,0.0
3493,75.0,0,30,5.0,0.0
3494,63.0,0,30,12.0,0.0
3495,63.0,0,30,5.0,0.0
3496,74.0,14,30,11.0,0.0
3497,62.0,0,30,12.0,0.0
3498,74.0,0,30,5.0,0.0
3499,62.0,0,30,5.0,0.0
3500,62.0,0,40,1.0,0.0
3501,62.0,0,30,13.0,0.0
3502,74.0,0,40,0.0,0.0
3503,72.0,0,40,0.0,0.0
3504,60.0,0,40,1.0,0.0
3505,60.0,14,30,13.0,0.0
3506,72.0,0,30,11.0,0.0
3507,60.0,0,30,12.0,0.0
3508,72.0,0,30,5.0,0.0
3509,60.0,0,30,5.0,0.0
3510,46.0,10,20,8.0,0.0
3511,46.0,0,20,8.0,0.0
3512,41.0,0,40,7.0,0.0
3513,65.0,96,40,13.0,0.0
3514,65.0,0,30,5.0,0.0
3515,72.0,0,40,1.0,0.0
3516,46.0,10,20,8.0,0.0
3517,41.0,0,40,6.0,0.0
3518,69.0,0,30,5.0,0.0
3519,77.0,0,30,11.0,0.0
3520,69.0,0,40,1.0,0.0
3521,29.0,0,40,15.0,0.0
3522,41.0,0,40,14.0,0.0
3523,72.0,0,30,12.0,0.0
3524,77.0,0,40,0.0,0.0
3525,77.0,14,30,5.0,0.0
3526,69.0,0,30,12.0,0.0
3527,46.0,0,20,8.0,0.0
3528,62.0,0,150,5.0,0.0
3529,74.0,0,150,11.0,0.0
3530,46.0,0,150,14.0,0.0
3531,46.0,66,90,8.0,0.0
3532,62.0,0,150,12.0,0.0
3533,41.0,0,150,6.0,0.0
3534,74.0,0,150,5.0,0.0
3535,65.0,0,150,5.0,0.0
3536,62.0,0,150,1.0,0.0
3537,70.0,0,150,1.0,0.0
3538,74.0,0,150,0.0,0.0
3539,34.0,208,150,15.0,0.0
3540,34.0,0,150,7.0,0.0
3541,41.0,0,150,7.0,0.0
3542,62.0,0,150,13.0,0.0
3543,70.0,0,150,12.0,0.0
3544,53.0,0,40,13.0,0.0
3545,65.0,0,30,11.0,0.0
3546,65.0,34,40,0.0,0.0
3547,65.0,14,30,5.0,0.0
3548,53.0,0,30,5.0,0.0
3549,69.0,0,40,0.0,0.0
3550,57.0,34,40,13.0,0.0
3551,69.0,0,30,5.0,0.0
3552,69.0,14,30,11.0,0.0
3553,53.0,0,150,7.0,0.0
3554,53.0,0,150,14.0,0.0
3555,57.0,0,30,5.0,0.0
3556,53.0,0,150,6.0,0.0
3557,41.0,0,150,15.0,0.0
3558,70.0,0,30,5.0,0.0
3559,58.0,34,40,13.0,0.0
3560,58.0,0,30,5.0,0.0
3561,70.0,0,40,0.0,0.0
3562,70.0,14,30,11.0,0.0
3563,72.0,0,30,11.0,0.0
3564,72.0,0,40,0.0,0.0
3565,72.0,14,30,5.0,0.0
3566,60.0,0,30,5.0,0.0
3567,60.0,34,40,13.0,0.0
3568,41.0,14,30,6.0,0.0
3569,29.0,0,30,15.0,0.0
3570,77.0,0,30,5.0,0.0
3571,65.0,0,40,13.0,0.0
3572,77.0,0,40,0.0,0.0
3573,41.0,0,30,7.0,0.0
3574,41.0,0,30,14.0,0.0
3575,77.0,0,30,11.0,0.0
3576,65.0,0,30,5.0,0.0
3577,34.0,14,30,15.0,0.0
3578,46.0,34,40,7.0,0.0
3579,61.0,0,90,13.0,0.0
3580,65.0,0,150,12.0,0.0
3581,70.0,0,150,12.0,0.0
3582,46.0,0,30,6.0,0.0
3583,73.0,34,150,11.0,0.0
3584,65.0,0,150,5.0,0.0
3585,61.0,0,150,1.0,0.0
3586,46.0,0,30,14.0,0.0
3587,73.0,0,150,0.0,0.0
3588,73.0,0,150,5.0,0.0
3589,61.0,0,150,5.0,0.0
3590,48.0,0,30,6.0,0.0
3591,36.0,14,30,15.0,0.0
3592,48.0,0,30,14.0,0.0
3593,48.0,34,40,7.0,0.0
3594,49.0,0,40,7.0,0.0
3595,49.0,0,30,14.0,0.0
3596,37.0,0,30,15.0,0.0
3597,49.0,14,30,6.0,0.0
3598,53.0,0,30,6.0,0.0
3599,53.0,0,40,13.0,0.0
3600,65.0,0,30,5.0,0.0
3601,65.0,0,40,0.0,0.0
3602,53.0,14,30,5.0,0.0
3603,53.0,34,40,7.0,0.0
3604,41.0,0,30,15.0,0.0
3605,65.0,0,30,11.0,0.0
3606,53.0,0,30,14.0,0.0
3607,57.0,0,30,5.0,0.0
3608,69.0,14,30,11.0,0.0
3609,29.0,0,150,15.0,0.0
3610,41.0,0,150,14.0,0.0
3611,69.0,0,40,0.0,0.0
3612,41.0,34,150,7.0,0.0
3613,41.0,0,150,6.0,0.0
3614,69.0,0,30,5.0,0.0
3615,57.0,34,40,13.0,0.0
3616,70.0,14,30,5.0,0.0
3617,70.0,0,30,11.0,0.0
3618,58.0,0,30,5.0,0.0
3619,58.0,34,40,13.0,0.0
3620,70.0,0,40,0.0,0.0
3621,72.0,0,30,5.0,0.0
3622,72.0,0,40,0.0,0.0
3623,72.0,0,30,11.0,0.0
3624,60.0,0,40,13.0,0.0
3625,60.0,14,30,5.0,0.0
3626,41.0,0,30,7.0,0.0
3627,41.0,0,30,6.0,0.0
3628,65.0,0,40,13.0,0.0
3629,77.0,0,40,0.0,0.0
3630,41.0,0,30,14.0,0.0
3631,77.0,14,30,11.0,0.0
3632,29.0,0,30,15.0,0.0
3633,77.0,0,30,5.0,0.0
3634,65.0,0,30,5.0,0.0
3635,61.0,0,150,5.0,0.0
3636,46.0,0,30,14.0,0.0
3637,46.0,48,30,6.0,0.0
3638,46.0,0,30,7.0,0.0
3639,73.0,0,150,0.0,0.0
3640,61.0,0,150,1.0,0.0
3641,65.0,0,150,5.0,0.0
3642,61.0,34,90,13.0,0.0
3643,70.0,0,150,12.0,0.0
3644,65.0,0,150,12.0,0.0
3645,73.0,0,150,11.0,0.0
3646,73.0,34,150,5.0,0.0
3647,34.0,0,30,15.0,0.0
3648,48.0,0,30,14.0,0.0
3649,36.0,0,30,15.0,0.0
3650,48.0,0,30,7.0,0.0
3651,48.0,14,30,6.0,0.0
3652,49.0,0,30,14.0,0.0
3653,49.0,0,30,7.0,0.0
3654,49.0,0,30,6.0,0.0
3655,37.0,14,30,15.0,0.0
3656,78.0,34,40,5.0,0.0
3657,66.0,0,30,5.0,0.0
3658,42.0,0,30,14.0,0.0
3659,66.0,0,40,13.0,0.0
3660,78.0,0,40,0.0,0.0
3661,42.0,0,30,6.0,0.0
3662,30.0,14,30,15.0,0.0
3663,78.0,0,30,11.0,0.0
3664,42.0,0,30,7.0,0.0
3665,72.0,34,150,12.0,0.0
3666,48.0,0,30,7.0,0.0
3667,63.0,34,90,13.0,0.0
3668,48.0,0,30,14.0,0.0
3669,63.0,0,150,5.0,0.0
3670,63.0,0,150,1.0,0.0
3671,48.0,48,30,6.0,0.0
3672,75.0,0,150,11.0,0.0
3673,36.0,0,30,15.0,0.0
3674,66.0,0,150,12.0,0.0
3675,75.0,0,150,0.0,0.0
3676,66.0,0,150,5.0,0.0
3677,75.0,0,150,5.0,0.0
3678,49.0,14,30,6.0,0.0
3679,37.0,0,30,15.0,0.0
3680,49.0,0,30,14.0,0.0
3681,49.0,0,30,7.0,0.0
3682,51.0,14,30,14.0,0.0
3683,51.0,0,30,6.0,0.0
3684,51.0,0,30,7.0,0.0
3685,39.0,0,30,15.0,0.0
3686,80.0,34,40,0.0,0.0
3687,44.0,14,30,6.0,0.0
3688,44.0,0,30,7.0,0.0
3689,68.0,0,30,5.0,0.0
3690,68.0,0,40,13.0,0.0
3691,44.0,0,30,14.0,0.0
3692,80.0,0,40,5.0,0.0
3693,80.0,0,30,11.0,0.0
3694,32.0,0,30,15.0,0.0
3695,49.0,0,30,14.0,0.0
3696,73.0,0,150,12.0,0.0
3697,68.0,0,150,12.0,0.0
3698,49.0,48,30,7.0,0.0
3699,77.0,0,150,5.0,0.0
3700,49.0,0,30,6.0,0.0
3701,65.0,0,150,1.0,0.0
3702,65.0,34,90,13.0,0.0
3703,65.0,0,150,5.0,0.0
3704,68.0,0,150,5.0,0.0
3705,37.0,0,30,15.0,0.0
3706,77.0,34,150,0.0,0.0
3707,77.0,0,150,11.0,0.0
3708,51.0,0,30,14.0,0.0
3709,39.0,0,30,15.0,0.0
3710,51.0,14,30,7.0,0.0
3711,51.0,0,30,6.0,0.0
3712,53.0,0,30,14.0,0.0
3713,41.0,0,30,15.0,0.0
3714,53.0,14,30,6.0,0.0
3715,53.0,0,30,7.0,0.0
3716,70.0,0,40,13.0,0.0
3717,46.0,0,30,7.0,0.0
3718,46.0,0,30,14.0,0.0
3719,70.0,0,30,5.0,0.0
3720,82.0,34,40,0.0,0.0
3721,46.0,0,30,6.0,0.0
3722,34.0,0,30,15.0,0.0
3723,82.0,14,30,11.0,0.0
3724,51.0,0,30,7.0,0.0
3725,78.0,0,150,0.0,0.0
3726,51.0,0,30,6.0,0.0
3727,66.0,0,150,5.0,0.0
3728,70.0,0,150,5.0,0.0
3729,39.0,0,30,15.0,0.0
3730,66.0,34,90,13.0,0.0
3731,78.0,34,150,5.0,0.0
3732,78.0,0,150,12.0,0.0
3733,51.0,48,30,14.0,0.0
3734,78.0,0,150,11.0,0.0
3735,53.0,14,30,6.0,0.0
3736,41.0,0,30,15.0,0.0
3737,53.0,0,30,14.0,0.0
3738,53.0,0,30,7.0,0.0
3739,54.0,14,30,14.0,0.0
3740,54.0,0,30,7.0,0.0
3741,42.0,0,30,15.0,0.0
3742,54.0,0,30,6.0,0.0
3743,87.0,0,30,11.0,0.0
3744,51.0,0,30,6.0,0.0
3745,75.0,0,40,13.0,0.0
3746,87.0,34,40,0.0,0.0
3747,39.0,0,30,15.0,0.0
3748,51.0,0,30,14.0,0.0
3749,51.0,14,30,7.0,0.0
3750,41.0,48,30,15.0,0.0
3751,53.0,0,30,14.0,0.0
3752,53.0,0,30,6.0,0.0
3753,84.0,0,150,11.0,0.0
3754,81.0,0,150,12.0,0.0
3755,77.0,0,150,12.0,0.0
3756,84.0,0,150,0.0,0.0
3757,72.0,34,90,13.0,0.0
3758,53.0,0,30,7.0,0.0
3759,72.0,34,150,1.0,0.0
3760,45.0,0,30,14.0,0.0
3761,33.0,14,30,15.0,0.0
3762,48.0,0,30,14.0,0.0
3763,36.0,14,30,15.0,0.0
3764,77.0,0,40,13.0,0.0
3765,89.0,14,30,11.0,0.0
3766,41.0,0,30,7.0,0.0
3767,29.0,0,30,15.0,0.0
3768,41.0,0,30,6.0,0.0
3769,41.0,0,40,8.0,0.0
3770,41.0,0,30,14.0,0.0
3771,89.0,34,40,0.0,0.0
3772,62.0,0,30,13.0,0.0
3773,34.0,0,30,15.0,0.0
3774,46.0,0,90,8.0,0.0
3775,41.0,0,30,6.0,0.0
3776,65.0,14,30,12.0,0.0
3777,46.0,0,30,14.0,0.0
3778,34.0,0,30,7.0,0.0
3779,74.0,0,30,11.0,0.0
3780,74.0,0,40,0.0,0.0
3781,70.0,0,30,12.0,0.0
3782,65.0,34,40,1.0,0.0
3783,70.0,0,40,1.0,0.0
3784,75.0,34,40,0.0,0.0
3785,63.0,14,30,13.0,0.0
3786,75.0,0,30,11.0,0.0
3787,77.0,34,40,0.0,0.0
3788,77.0,14,30,11.0,0.0
3789,65.0,0,30,13.0,0.0
3790,81.0,0,30,11.0,0.0
3791,69.0,0,40,1.0,0.0
3792,77.0,0,40,1.0,0.0
3793,48.0,0,30,14.0,0.0
3794,36.0,0,30,7.0,0.0
3795,41.0,14,30,6.0,0.0
3796,69.0,0,30,13.0,0.0
3797,36.0,0,30,15.0,0.0
3798,81.0,34,40,0.0,0.0
3799,77.0,0,30,12.0,0.0
3800,69.0,0,30,12.0,0.0
3801,70.0,0,30,13.0,0.0
3802,46.0,34,90,8.0,0.0
3803,70.0,0,40,1.0,0.0
3804,38.0,0,30,15.0,0.0
3805,70.0,0,30,12.0,0.0
3806,50.0,14,30,14.0,0.0
3807,82.0,0,30,11.0,0.0
3808,38.0,0,30,7.0,0.0
3809,41.0,0,30,6.0,0.0
3810,82.0,34,40,0.0,0.0
3811,72.0,14,30,13.0,0.0
3812,84.0,0,30,11.0,0.0
3813,84.0,0,40,0.0,0.0
3814,86.0,34,40,0.0,0.0
3815,86.0,14,30,11.0,0.0
3816,74.0,0,30,13.0,0.0
3817,51.0,14,30,7.0,0.0
3818,91.0,0,30,11.0,0.0
3819,82.0,0,30,12.0,0.0
3820,58.0,0,30,6.0,0.0
3821,91.0,0,40,0.0,0.0
3822,79.0,0,40,1.0,0.0
3823,79.0,0,30,13.0,0.0
3824,51.0,0,30,15.0,0.0
3825,82.0,0,40,1.0,0.0
3826,79.0,0,30,12.0,0.0
3827,41.0,34,40,8.0,0.0
3828,63.0,0,30,14.0,0.0
3829,46.0,0,90,8.0,0.0
3830,62.0,0,30,14.0,0.0
3831,50.0,0,30,15.0,0.0
3832,77.0,0,30,13.0,0.0
3833,50.0,0,30,7.0,0.0
3834,89.0,14,30,11.0,0.0
3835,89.0,0,40,0.0,0.0
3836,77.0,0,30,12.0,0.0
3837,58.0,0,30,6.0,0.0
3838,77.0,34,40,1.0,0.0
3839,91.0,0,30,11.0,0.0
3840,79.0,14,30,13.0,0.0
3841,91.0,34,40,0.0,0.0
3842,60.0,0,30,14.0,0.0
3843,48.0,14,30,15.0,0.0
3844,75.0,0,30,13.0,0.0
3845,87.0,34,40,0.0,0.0
3846,48.0,0,30,7.0,0.0
3847,87.0,0,30,11.0,0.0
3848,53.0,0,30,6.0,0.0
3849,86.0,0,30,11.0,0.0
3850,86.0,34,40,0.0,0.0
3851,74.0,0,30,12.0,0.0
3852,74.0,14,30,13.0,0.0
3853,46.0,0,30,15.0,0.0
3854,46.0,0,30,7.0,0.0
3855,53.0,0,30,6.0,0.0
3856,58.0,0,30,14.0,0.0
3857,74.0,0,40,1.0,0.0
3858,84.0,0,30,11.0,0.0
3859,57.0,0,30,14.0,0.0
3860,45.0,0,30,7.0,0.0
3861,53.0,0,30,6.0,0.0
3862,45.0,0,30,15.0,0.0
3863,46.0,0,90,8.0,0.0
3864,84.0,0,40,0.0,0.0
3865,72.0,34,40,1.0,0.0
3866,72.0,0,30,12.0,0.0
3867,72.0,14,30,13.0,0.0
3868,86.0,0,30,11.0,0.0
3869,86.0,34,40,0.0,0.0
3870,74.0,14,30,13.0,0.0
3871,55.0,0,30,14.0,0.0
3872,43.0,14,30,7.0,0.0
3873,70.0,0,30,13.0,0.0
3874,55.0,0,30,6.0,0.0
3875,82.0,0,30,11.0,0.0
3876,82.0,34,40,0.0,0.0
3877,43.0,0,30,15.0,0.0
3878,81.0,0,40,0.0,0.0
3879,41.0,34,40,8.0,0.0
3880,69.0,0,30,5.0,0.0
3881,81.0,0,30,11.0,0.0
3882,53.0,0,30,6.0,0.0
3883,41.0,14,30,7.0,0.0
3884,69.0,0,30,12.0,0.0
3885,69.0,0,40,1.0,0.0
3886,69.0,0,30,13.0,0.0
3887,41.0,0,30,15.0,0.0
3888,81.0,0,30,5.0,0.0
3889,53.0,0,30,14.0,0.0
3890,67.0,0,30,13.0,0.0
3891,39.0,0,90,7.0,0.0
3892,39.0,34,90,15.0,0.0
3893,67.0,0,30,12.0,0.0
3894,79.0,0,40,0.0,0.0
3895,46.0,0,90,8.0,0.0
3896,51.0,0,90,6.0,0.0
3897,67.0,34,40,1.0,0.0
3898,67.0,0,30,5.0,0.0
3899,51.0,0,90,14.0,0.0
3900,79.0,0,30,5.0,0.0
3901,79.0,14,30,11.0,0.0
3902,81.0,14,30,5.0,0.0
3903,81.0,0,40,0.0,0.0
3904,69.0,0,30,12.0,0.0
3905,69.0,0,30,5.0,0.0
3906,69.0,0,30,13.0,0.0
3907,81.0,0,30,11.0,0.0
3908,69.0,0,40,1.0,0.0
3909,41.0,0,90,8.0,0.0
3910,65.0,0,30,13.0,0.0
3911,50.0,34,90,6.0,0.0
3912,65.0,0,30,5.0,0.0
3913,77.0,34,40,0.0,0.0
3914,38.0,0,90,15.0,0.0
3915,50.0,0,90,14.0,0.0
3916,77.0,0,30,11.0,0.0
3917,65.0,0,40,1.0,0.0
3918,38.0,0,90,7.0,0.0
3919,77.0,14,30,5.0,0.0
3920,65.0,0,30,12.0,0.0
3921,79.0,0,40,0.0,0.0
3922,67.0,0,40,1.0,0.0
3923,67.0,0,30,5.0,0.0
3924,79.0,14,30,11.0,0.0
3925,67.0,0,30,13.0,0.0
3926,79.0,0,30,5.0,0.0
3927,67.0,0,30,12.0,0.0
3928,75.0,14,30,5.0,0.0
3929,36.0,24,150,15.0,0.0
3930,36.0,0,150,7.0,0.0
3931,63.0,0,30,13.0,0.0
3932,75.0,0,30,11.0,0.0
3933,46.0,0,90,8.0,0.0
3934,63.0,0,30,5.0,0.0
3935,48.0,0,150,14.0,0.0
3936,63.0,0,30,12.0,0.0
3937,48.0,0,150,6.0,0.0
3938,75.0,34,40,0.0,0.0
3939,63.0,0,40,1.0,0.0
3940,74.0,0,30,5.0,0.0
3941,74.0,0,30,11.0,0.0
3942,62.0,0,30,13.0,0.0
3943,62.0,14,30,5.0,0.0
3944,62.0,0,30,12.0,0.0
3945,74.0,0,40,0.0,0.0
3946,62.0,24,40,1.0,0.0
3947,46.0,10,20,8.0,0.0
3948,60.0,0,30,13.0,0.0
3949,60.0,14,30,5.0,0.0
3950,60.0,0,30,12.0,0.0
3951,72.0,0,40,0.0,0.0
3952,72.0,0,30,11.0,0.0
3953,72.0,0,30,5.0,0.0
3954,60.0,0,40,1.0,0.0
3955,46.0,0,20,8.0,0.0
3956,46.0,10,20,8.0,0.0
3957,41.0,0,40,14.0,0.0
3958,41.0,0,40,7.0,0.0
3959,65.0,0,40,13.0,0.0
3960,65.0,0,30,5.0,0.0
3961,77.0,0,30,5.0,0.0
3962,69.0,0,30,12.0,0.0
3963,29.0,0,40,15.0,0.0
3964,72.0,0,40,1.0,0.0
3965,69.0,0,40,1.0,0.0
3966,77.0,96,40,0.0,0.0
3967,72.0,14,30,12.0,0.0
3968,69.0,0,30,5.0,0.0
3969,41.0,0,40,6.0,0.0
3970,77.0,0,30,11.0,0.0
3971,46.0,0,20,8.0,0.0
3972,65.0,0,150,5.0,0.0
3973,62.0,0,150,5.0,0.0
3974,41.0,0,150,6.0,0.0
3975,74.0,0,150,11.0,0.0
3976,41.0,0,150,7.0,0.0
3977,34.0,0,150,7.0,0.0
3978,62.0,0,150,13.0,0.0
3979,46.0,224,150,14.0,0.0
3980,46.0,66,90,8.0,0.0
3981,74.0,0,150,5.0,0.0
3982,34.0,0,150,15.0,0.0
3983,70.0,0,150,12.0,0.0
3984,62.0,0,150,12.0,0.0
3985,70.0,0,150,1.0,0.0
3986,62.0,0,150,1.0,0.0
3987,74.0,0,150,0.0,0.0
3988,65.0,96,90,11.0,0.0
3989,34.0,48,330,15.0,0.0
3990,61.0,0,90,11.0,0.0
3991,60.0,48,40,14.0,0.0
3992,58.0,48,40,14.0,0.0
3993,65.0,0,90,11.0,0.0
3994,56.0,48,40,14.0,0.0
3995,70.0,0,90,11.0,0.0
3996,54.0,48,40,14.0,0.0
3997,53.0,48,40,14.0,0.0
3998,72.0,0,90,11.0,0.0
3999,54.0,0,40,14.0,0.0
4000,51.0,48,40,14.0,0.0
4001,46.0,48,40,14.0,0.0
4002,73.0,48,90,11.0,0.0
4003,70.0,0,180,13.0,0.0
4004,65.0,0,180,13.0,0.0
4005,34.0,48,330,15.0,0.0
4006,53.0,0,40,14.0,0.0
4007,58.0,48,40,14.0,0.0
4008,72.0,0,40,11.0,0.0
4009,70.0,48,40,11.0,0.0
4010,61.0,48,90,14.0,0.0
4011,73.0,0,90,11.0,0.0
4012,58.0,48,40,14.0,0.0
4013,66.0,0,90,13.0,0.0
4014,54.0,0,40,14.0,0.0
4015,75.0,48,90,11.0,0.0
4016,51.0,0,40,14.0,0.0
4017,70.0,0,15,13.0,0.0
4018,65.0,0,180,13.0,0.0
4019,46.0,48,40,14.0,0.0
4020,34.0,48,330,15.0,0.0
4021,73.0,48,90,11.0,0.0
4022,53.0,0,40,14.0,0.0
4023,72.0,0,40,11.0,0.0
4024,58.0,48,40,14.0,0.0
4025,61.0,48,90,14.0,0.0
4026,70.0,0,40,11.0,0.0
4027,73.0,48,90,11.0,0.0
4028,58.0,0,40,14.0,0.0
4029,66.0,48,90,13.0,0.0
4030,54.0,0,40,14.0,0.0
4031,70.0,0,90,13.0,0.0
4032,75.0,0,90,11.0,0.0
4033,51.0,0,40,14.0,0.0
4034,46.0,48,40,14.0,0.0
4035,34.0,48,330,15.0,0.0
4036,73.0,48,90,11.0,0.0
4037,65.0,0,150,13.0,0.0
4038,70.0,0,90,13.0,0.0
4039,53.0,0,40,14.0,0.0
4040,72.0,48,40,11.0,0.0
4041,57.0,0,40,14.0,0.0
4042,72.0,0,40,12.0,0.0
4043,53.0,48,40,14.0,0.0
4044,61.0,48,40,14.0,0.0
4045,65.0,0,40,12.0,0.0
4046,70.0,0,40,12.0,0.0
4047,60.0,48,40,14.0,0.0
4048,73.0,0,40,12.0,0.0
4049,58.0,0,40,14.0,0.0
4050,75.0,0,40,12.0,0.0
4051,54.0,48,40,14.0,0.0
4052,73.0,0,180,13.0,0.0
4053,77.0,48,90,12.0,0.0
4054,68.0,48,180,13.0,0.0
4055,37.0,0,330,15.0,0.0
4056,49.0,48,40,14.0,0.0
4057,56.0,0,40,14.0,0.0
4058,61.0,0,40,14.0,0.0
4059,75.0,48,40,12.0,0.0
4060,65.0,48,90,14.0,0.0
4061,73.0,0,40,12.0,0.0
4062,77.0,48,90,12.0,0.0
4063,61.0,0,40,14.0,0.0
4064,70.0,0,90,13.0,0.0
4065,78.0,48,90,12.0,0.0
4066,73.0,0,90,13.0,0.0
4067,58.0,48,40,14.0,0.0
4068,54.0,0,40,14.0,0.0
4069,37.0,0,330,15.0,0.0
4070,77.0,0,90,12.0,0.0
4071,49.0,48,40,14.0,0.0
4072,73.0,0,180,13.0,0.0
4073,68.0,48,180,13.0,0.0
4074,56.0,48,40,14.0,0.0
4075,75.0,0,40,12.0,0.0
4076,61.0,48,40,14.0,0.0
4077,65.0,48,90,14.0,0.0
4078,73.0,0,40,12.0,0.0
4079,77.0,48,90,12.0,0.0
4080,61.0,0,40,14.0,0.0
4081,58.0,48,40,14.0,0.0
4082,78.0,48,90,12.0,0.0
4083,70.0,0,90,13.0,0.0
4084,54.0,0,40,14.0,0.0
4085,49.0,48,40,14.0,0.0
4086,73.0,0,15,13.0,0.0
4087,68.0,0,90,13.0,0.0
4088,37.0,32,150,15.0,0.0
4089,77.0,48,90,12.0,0.0
4090,53.0,0,40,14.0,0.0
4091,75.0,0,40,12.0,0.0
4092,56.0,16,40,14.0,0.0
4093,65.0,48,40,13.0,0.0
4094,73.0,0,150,12.0,0.0
4095,61.0,0,40,14.0,0.0
4096,34.0,32,150,15.0,0.0
4097,46.0,48,40,14.0,0.0
4098,77.0,0,90,13.0,0.0
4099,53.0,48,40,14.0,0.0
4100,75.0,16,40,13.0,0.0
4101,58.0,0,40,14.0,0.0
4102,72.0,0,40,12.0,0.0
4103,61.0,48,40,14.0,0.0
4104,70.0,0,40,12.0,0.0
4105,73.0,0,40,13.0,0.0
4106,72.0,0,180,13.0,0.0
4107,69.0,0,180,12.0,0.0
4108,29.0,32,150,15.0,0.0
4109,41.0,48,40,14.0,0.0
4110,48.0,48,40,14.0,0.0
4111,57.0,16,40,14.0,0.0
4112,60.0,96,40,14.0,0.0
4113,65.0,96,90,14.0,0.0
4114,65.0,96,90,11.0,0.0
4115,61.0,48,90,11.0,0.0
4116,34.0,0,330,15.0,0.0
4117,60.0,0,40,14.0,0.0
4118,58.0,48,40,14.0,0.0
4119,65.0,48,90,11.0,0.0
4120,56.0,0,40,14.0,0.0
4121,54.0,48,40,14.0,0.0
4122,70.0,0,90,11.0,0.0
4123,53.0,48,40,14.0,0.0
4124,54.0,48,40,14.0,0.0
4125,72.0,48,90,11.0,0.0
4126,51.0,0,40,14.0,0.0
4127,65.0,0,180,13.0,0.0
4128,46.0,48,40,14.0,0.0
4129,70.0,48,180,13.0,0.0
4130,34.0,0,330,15.0,0.0
4131,73.0,48,90,11.0,0.0
4132,53.0,0,40,14.0,0.0
4133,72.0,48,40,11.0,0.0
4134,58.0,0,40,14.0,0.0
4135,61.0,48,90,14.0,0.0
4136,70.0,0,40,11.0,0.0
4137,73.0,48,90,11.0,0.0
4138,58.0,0,40,14.0,0.0
4139,75.0,0,90,11.0,0.0
4140,70.0,0,90,13.0,0.0
4141,66.0,48,90,13.0,0.0
4142,54.0,48,40,14.0,0.0
4143,51.0,0,40,14.0,0.0
4144,34.0,48,330,15.0,0.0
4145,73.0,48,90,11.0,0.0
4146,46.0,48,40,14.0,0.0
4147,65.0,48,180,13.0,0.0
4148,70.0,0,180,13.0,0.0
4149,53.0,0,40,14.0,0.0
4150,58.0,48,40,14.0,0.0
4151,72.0,0,40,11.0,0.0
4152,70.0,0,40,11.0,0.0
4153,61.0,48,90,14.0,0.0
4154,73.0,0,90,11.0,0.0
4155,58.0,48,40,14.0,0.0
4156,75.0,48,90,11.0,0.0
4157,54.0,0,40,14.0,0.0
4158,66.0,0,90,13.0,0.0
4159,51.0,0,40,14.0,0.0
4160,70.0,0,15,13.0,0.0
4161,65.0,48,150,13.0,0.0
4162,34.0,0,330,15.0,0.0
4163,46.0,48,40,14.0,0.0
4164,73.0,0,90,11.0,0.0
4165,53.0,0,40,14.0,0.0
4166,57.0,0,40,14.0,0.0
4167,72.0,0,40,11.0,0.0
4168,53.0,0,40,14.0,0.0
4169,72.0,48,40,12.0,0.0
4170,65.0,48,40,12.0,0.0
4171,61.0,0,40,14.0,0.0
4172,60.0,0,40,14.0,0.0
4173,70.0,48,40,12.0,0.0
4174,58.0,0,40,14.0,0.0
4175,73.0,48,40,12.0,0.0
4176,75.0,48,40,12.0,0.0
4177,54.0,0,40,14.0,0.0
4178,68.0,0,180,13.0,0.0
4179,73.0,48,180,13.0,0.0
4180,77.0,48,90,12.0,0.0
4181,49.0,48,40,14.0,0.0
4182,37.0,0,330,15.0,0.0
4183,56.0,0,40,14.0,0.0
4184,61.0,0,40,14.0,0.0
4185,75.0,48,40,12.0,0.0
4186,65.0,48,90,14.0,0.0
4187,73.0,0,40,12.0,0.0
4188,77.0,48,90,12.0,0.0
4189,61.0,0,40,14.0,0.0
4190,58.0,48,40,14.0,0.0
4191,78.0,48,90,12.0,0.0
4192,70.0,0,90,13.0,0.0
4193,54.0,0,40,14.0,0.0
4194,73.0,0,15,13.0,0.0
4195,68.0,48,180,13.0,0.0
4196,49.0,48,40,14.0,0.0
4197,77.0,48,90,12.0,0.0
4198,37.0,0,330,15.0,0.0
4199,56.0,0,40,14.0,0.0
4200,75.0,0,40,12.0,0.0
4201,61.0,48,40,14.0,0.0
4202,73.0,0,40,12.0,0.0
4203,65.0,48,90,14.0,0.0
4204,77.0,48,90,12.0,0.0
4205,61.0,0,40,14.0,0.0
4206,78.0,48,90,12.0,0.0
4207,58.0,48,40,14.0,0.0
4208,70.0,0,90,13.0,0.0
4209,54.0,0,40,14.0,0.0
4210,73.0,0,15,13.0,0.0
4211,37.0,32,150,15.0,0.0
4212,68.0,0,90,13.0,0.0
4213,77.0,0,90,12.0,0.0
4214,49.0,48,40,14.0,0.0
4215,53.0,0,40,14.0,0.0
4216,75.0,16,40,12.0,0.0
4217,56.0,0,40,14.0,0.0
4218,73.0,0,150,12.0,0.0
4219,61.0,0,40,14.0,0.0
4220,65.0,48,40,13.0,0.0
4221,34.0,32,150,15.0,0.0
4222,77.0,0,90,13.0,0.0
4223,46.0,48,40,14.0,0.0
4224,53.0,48,40,14.0,0.0
4225,72.0,0,40,12.0,0.0
4226,75.0,0,40,13.0,0.0
4227,58.0,16,40,14.0,0.0
4228,70.0,0,40,12.0,0.0
4229,61.0,48,40,14.0,0.0
4230,73.0,0,40,13.0,0.0
4231,72.0,0,180,13.0,0.0
4232,69.0,0,180,12.0,0.0
4233,41.0,48,40,14.0,0.0
4234,29.0,32,150,15.0,0.0
4235,48.0,48,40,14.0,0.0
4236,57.0,16,40,14.0,0.0
4237,60.0,96,40,14.0,0.0
4238,65.0,96,90,14.0,0.0
4239,72.0,96,90,11.0,0.0
4240,29.0,0,330,15.0,0.0
4241,68.0,48,180,12.0,0.0
4242,68.0,0,90,11.0,0.0
4243,67.0,48,40,13.0,0.0
4244,72.0,0,90,11.0,0.0
4245,65.0,48,40,13.0,0.0
4246,63.0,0,40,13.0,0.0
4247,77.0,0,90,11.0,0.0
4248,70.0,0,180,12.0,0.0
4249,61.0,48,40,13.0,0.0
4250,60.0,48,40,13.0,0.0
4251,79.0,48,90,11.0,0.0
4252,61.0,48,40,13.0,0.0
4253,58.0,0,40,13.0,0.0
4254,72.0,48,180,12.0,0.0
4255,29.0,48,330,15.0,0.0
4256,53.0,48,40,13.0,0.0
4257,80.0,0,90,11.0,0.0
4258,60.0,48,40,13.0,0.0
4259,79.0,0,40,11.0,0.0
4260,65.0,48,40,13.0,0.0
4261,77.0,0,40,11.0,0.0
4262,68.0,0,40,13.0,0.0
4263,80.0,0,90,11.0,0.0
4264,72.0,48,40,13.0,0.0
4265,65.0,48,40,13.0,0.0
4266,82.0,0,90,11.0,0.0
4267,73.0,0,40,13.0,0.0
4268,77.0,48,90,12.0,0.0
4269,61.0,0,40,13.0,0.0
4270,35.0,48,330,15.0,0.0
4271,78.0,0,300,12.0,0.0
4272,83.0,48,90,11.0,0.0
4273,63.0,48,40,13.0,0.0
4274,59.0,0,40,13.0,0.0
4275,82.0,0,40,11.0,0.0
4276,54.0,48,40,13.0,0.0
4277,80.0,48,40,11.0,0.0
4278,51.0,0,40,13.0,0.0
4279,63.0,48,40,13.0,0.0
4280,83.0,0,90,11.0,0.0
4281,59.0,48,40,13.0,0.0
4282,80.0,0,90,12.0,0.0
4283,85.0,0,90,11.0,0.0
4284,65.0,0,40,13.0,0.0
4285,53.0,48,40,13.0,0.0
4286,82.0,48,300,12.0,0.0
4287,39.0,0,330,15.0,0.0
4288,66.0,48,40,13.0,0.0
4289,87.0,48,90,11.0,0.0
4290,63.0,0,40,13.0,0.0
4291,58.0,48,40,13.0,0.0
4292,85.0,0,40,11.0,0.0
4293,54.0,48,40,13.0,0.0
4294,83.0,0,40,11.0,0.0
4295,66.0,48,40,13.0,0.0
4296,87.0,0,90,11.0,0.0
4297,63.0,0,40,13.0,0.0
4298,84.0,0,90,12.0,0.0
4299,89.0,48,90,11.0,0.0
4300,77.0,0,180,11.0,0.0
4301,69.0,48,40,13.0,0.0
4302,57.0,0,40,13.0,0.0
4303,85.0,48,90,11.0,0.0
4304,70.0,48,40,13.0,0.0
4305,85.0,0,90,12.0,0.0
4306,46.0,48,330,15.0,0.0
4307,65.0,0,40,13.0,0.0
4308,61.0,48,40,13.0,0.0
4309,65.0,0,90,12.0,0.0
4310,58.0,48,40,13.0,0.0
4311,54.0,48,40,13.0,0.0
4312,70.0,0,90,12.0,0.0
4313,53.0,48,40,14.0,0.0
4314,54.0,0,40,14.0,0.0
4315,72.0,0,90,12.0,0.0
4316,51.0,48,40,14.0,0.0
4317,73.0,0,90,12.0,0.0
4318,65.0,0,180,11.0,0.0
4319,46.0,48,40,14.0,0.0
4320,70.0,0,180,11.0,0.0
4321,34.0,48,330,15.0,0.0
4322,53.0,48,40,14.0,0.0
4323,72.0,0,40,12.0,0.0
4324,58.0,48,40,14.0,0.0
4325,70.0,48,40,12.0,0.0
4326,61.0,48,90,14.0,0.0
4327,73.0,0,90,12.0,0.0
4328,58.0,48,40,14.0,0.0
4329,66.0,0,300,11.0,0.0
4330,54.0,0,40,14.0,0.0
4331,75.0,48,180,12.0,0.0
4332,51.0,48,40,14.0,0.0
4333,27.0,0,330,15.0,0.0
4334,47.0,48,40,14.0,0.0
4335,54.0,0,40,14.0,0.0
4336,59.0,0,40,14.0,0.0
4337,73.0,48,40,12.0,0.0
4338,63.0,48,90,14.0,0.0
4339,71.0,48,40,12.0,0.0
4340,75.0,48,90,12.0,0.0
4341,60.0,0,40,14.0,0.0
4342,65.0,0,390,12.0,0.0
4343,72.0,48,180,11.0,0.0
4344,57.0,48,40,14.0,0.0
4345,77.0,0,390,12.0,0.0
4346,53.0,48,40,14.0,0.0
4347,34.0,32,150,15.0,0.0
4348,46.0,48,40,14.0,0.0
4349,53.0,0,40,14.0,0.0
4350,58.0,16,40,14.0,0.0
4351,73.0,0,40,11.0,0.0
4352,60.0,96,40,14.0,0.0
4353,72.0,0,40,11.0,0.0
4354,70.0,96,90,11.0,0.0
4355,61.0,0,90,14.0,0.0
4356,72.0,96,90,11.0,0.0
4357,68.0,0,180,12.0,0.0
4358,68.0,0,90,11.0,0.0
4359,29.0,48,330,15.0,0.0
4360,67.0,48,40,13.0,0.0
4361,72.0,48,90,11.0,0.0
4362,65.0,48,40,13.0,0.0
4363,63.0,0,40,13.0,0.0
4364,77.0,48,90,11.0,0.0
4365,70.0,0,180,12.0,0.0
4366,61.0,48,40,13.0,0.0
4367,60.0,0,40,13.0,0.0
4368,61.0,0,40,13.0,0.0
4369,79.0,0,90,11.0,0.0
4370,58.0,48,40,13.0,0.0
4371,80.0,0,90,11.0,0.0
4372,53.0,48,40,13.0,0.0
4373,72.0,48,180,12.0,0.0
4374,29.0,48,330,15.0,0.0
4375,60.0,48,40,13.0,0.0
4376,65.0,48,40,13.0,0.0
4377,79.0,0,40,11.0,0.0
4378,68.0,0,40,13.0,0.0
4379,77.0,0,40,11.0,0.0
4380,72.0,48,40,13.0,0.0
4381,80.0,48,90,11.0,0.0
4382,65.0,0,40,13.0,0.0
4383,82.0,0,90,11.0,0.0
4384,77.0,0,90,12.0,0.0
4385,73.0,0,40,13.0,0.0
4386,61.0,48,40,13.0,0.0
4387,83.0,48,90,11.0,0.0
4388,35.0,48,330,15.0,0.0
4389,78.0,48,300,12.0,0.0
4390,63.0,48,40,13.0,0.0
4391,59.0,0,40,13.0,0.0
4392,54.0,0,40,13.0,0.0
4393,82.0,48,40,11.0,0.0
4394,51.0,48,40,13.0,0.0
4395,80.0,0,40,11.0,0.0
4396,83.0,0,90,11.0,0.0
4397,63.0,48,40,13.0,0.0
4398,59.0,0,40,13.0,0.0
4399,65.0,0,40,13.0,0.0
4400,85.0,48,90,11.0,0.0
4401,80.0,0,90,12.0,0.0
4402,53.0,0,40,13.0,0.0
4403,82.0,48,300,12.0,0.0
4404,66.0,48,40,13.0,0.0
4405,87.0,48,90,11.0,0.0
4406,39.0,0,330,15.0,0.0
4407,63.0,0,40,13.0,0.0
4408,85.0,0,40,11.0,0.0
4409,58.0,48,40,13.0,0.0
4410,54.0,0,40,13.0,0.0
4411,83.0,48,40,11.0,0.0
4412,66.0,48,40,13.0,0.0
4413,87.0,0,90,11.0,0.0
4414,63.0,0,40,13.0,0.0
4415,69.0,48,40,13.0,0.0
4416,84.0,0,90,12.0,0.0
4417,89.0,0,90,11.0,0.0
4418,77.0,0,180,11.0,0.0
4419,57.0,48,40,13.0,0.0
4420,85.0,0,90,12.0,0.0
4421,85.0,0,90,11.0,0.0
4422,46.0,0,330,15.0,0.0
4423,70.0,48,40,13.0,0.0
4424,65.0,48,40,13.0,0.0
4425,65.0,48,90,12.0,0.0
4426,61.0,48,40,13.0,0.0
4427,58.0,0,40,13.0,0.0
4428,70.0,0,90,12.0,0.0
4429,54.0,48,40,13.0,0.0
4430,53.0,48,40,14.0,0.0
4431,72.0,0,90,12.0,0.0
4432,54.0,48,40,14.0,0.0
4433,51.0,48,40,14.0,0.0
4434,34.0,0,330,15.0,0.0
4435,46.0,48,40,14.0,0.0
4436,70.0,0,180,11.0,0.0
4437,65.0,48,180,11.0,0.0
4438,73.0,48,90,12.0,0.0
4439,53.0,0,40,14.0,0.0
4440,58.0,48,40,14.0,0.0
4441,72.0,0,40,12.0,0.0
4442,70.0,0,40,12.0,0.0
4443,61.0,48,90,14.0,0.0
4444,73.0,0,90,12.0,0.0
4445,58.0,48,40,14.0,0.0
4446,66.0,0,300,11.0,0.0
4447,75.0,48,180,12.0,0.0
4448,54.0,48,40,14.0,0.0
4449,51.0,48,40,14.0,0.0
4450,27.0,48,330,15.0,0.0
4451,47.0,48,40,14.0,0.0
4452,54.0,0,40,14.0,0.0
4453,73.0,0,40,12.0,0.0
4454,59.0,48,40,14.0,0.0
4455,71.0,48,40,12.0,0.0
4456,63.0,48,90,14.0,0.0
4457,75.0,48,90,12.0,0.0
4458,60.0,0,40,14.0,0.0
4459,72.0,0,180,11.0,0.0
4460,57.0,0,40,14.0,0.0
4461,77.0,0,390,12.0,0.0
4462,65.0,0,390,12.0,0.0
4463,53.0,48,40,14.0,0.0
4464,34.0,32,150,15.0,0.0
4465,46.0,48,40,14.0,0.0
4466,53.0,48,40,14.0,0.0
4467,73.0,0,40,11.0,0.0
4468,58.0,16,40,14.0,0.0
4469,72.0,0,40,11.0,0.0
4470,60.0,96,40,14.0,0.0
4471,61.0,96,90,14.0,0.0
4472,70.0,0,90,11.0,0.0
4473,65.0,96,90,2.0,0.0
4474,77.0,0,90,1.0,0.0
4475,70.0,0,90,1.0,0.0
4476,58.0,94,90,2.0,0.0
4477,60.0,94,90,2.0,0.0
4478,53.0,0,90,2.0,0.0
4479,72.0,0,90,1.0,0.0
4480,41.0,0,90,3.0,0.0
4481,41.0,2,90,15.0,0.0
4482,34.0,2,90,15.0,0.0
4483,34.0,0,90,3.0,0.0
4484,46.0,94,90,2.0,0.0
4485,61.0,0,90,2.0,0.0
4486,73.0,0,90,1.0,0.0
4487,36.0,2,90,15.0,0.0
4488,65.0,0,90,2.0,0.0
4489,48.0,0,90,2.0,0.0
4490,77.0,94,90,1.0,0.0
4491,36.0,0,90,3.0,0.0
4492,70.0,0,90,2.0,0.0
4493,49.0,0,90,2.0,0.0
4494,37.0,0,90,3.0,0.0
4495,82.0,94,90,1.0,0.0
4496,37.0,2,90,15.0,0.0
4497,65.0,0,90,2.0,0.0
4498,41.0,2,90,15.0,0.0
4499,53.0,0,90,2.0,0.0
4500,77.0,48,90,1.0,0.0
4501,41.0,0,90,3.0,0.0
4502,46.0,2,90,15.0,0.0
4503,46.0,48,90,3.0,0.0
4504,61.0,0,40,2.0,0.0
4505,58.0,0,90,2.0,0.0
4506,73.0,46,40,1.0,0.0
4507,60.0,0,40,2.0,0.0
4508,72.0,0,40,1.0,0.0
4509,70.0,46,40,1.0,0.0
4510,53.0,0,90,2.0,0.0
4511,58.0,0,40,2.0,0.0
4512,41.0,2,90,15.0,0.0
4513,41.0,46,90,3.0,0.0
4514,72.0,0,40,1.0,0.0
4515,60.0,0,40,2.0,0.0
4516,61.0,0,90,2.0,0.0
4517,73.0,0,90,1.0,0.0
4518,49.0,46,40,2.0,0.0
4519,37.0,2,40,15.0,0.0
4520,37.0,0,40,3.0,0.0
4521,36.0,2,40,15.0,0.0
4522,36.0,46,40,3.0,0.0
4523,48.0,0,40,2.0,0.0
4524,77.0,0,90,1.0,0.0
4525,65.0,0,90,2.0,0.0
4526,34.0,2,40,15.0,0.0
4527,46.0,0,40,2.0,0.0
4528,34.0,46,40,3.0,0.0
4529,48.0,94,40,2.0,0.0
4530,36.0,0,40,3.0,0.0
4531,36.0,2,40,15.0,0.0
4532,70.0,0,90,2.0,0.0
4533,82.0,0,90,1.0,0.0
4534,37.0,2,90,15.0,0.0
4535,49.0,94,90,2.0,0.0
4536,37.0,0,90,3.0,0.0
4537,77.0,0,90,1.0,0.0
4538,65.0,0,90,2.0,0.0
4539,41.0,0,90,3.0,0.0
4540,53.0,48,90,2.0,0.0
4541,41.0,2,90,15.0,0.0
4542,46.0,48,90,3.0,0.0
4543,46.0,2,90,15.0,0.0
4544,61.0,0,40,2.0,0.0
4545,73.0,46,40,1.0,0.0
4546,58.0,0,90,2.0,0.0
4547,60.0,0,40,2.0,0.0
4548,72.0,0,40,1.0,0.0
4549,53.0,0,90,2.0,0.0
4550,70.0,0,40,1.0,0.0
4551,58.0,46,40,2.0,0.0
4552,41.0,0,90,3.0,0.0
4553,41.0,2,90,15.0,0.0
4554,72.0,0,40,1.0,0.0
4555,60.0,46,40,2.0,0.0
4556,49.0,46,40,2.0,0.0
4557,73.0,0,90,1.0,0.0
4558,37.0,2,40,15.0,0.0
4559,61.0,0,90,2.0,0.0
4560,37.0,0,40,3.0,0.0
4561,36.0,2,40,15.0,0.0
4562,36.0,0,40,3.0,0.0
4563,48.0,46,40,2.0,0.0
4564,34.0,46,40,3.0,0.0
4565,65.0,0,150,2.0,0.0
4566,77.0,46,150,1.0,0.0
4567,46.0,0,40,2.0,0.0
4568,34.0,2,40,15.0,0.0
4569,48.0,0,40,2.0,0.0
4570,36.0,2,40,15.0,0.0
4571,36.0,48,40,3.0,0.0
4572,49.0,0,90,2.0,0.0
4573,37.0,2,90,15.0,0.0
4574,37.0,48,90,3.0,0.0
4575,63.0,0,40,2.0,0.0
4576,75.0,0,40,1.0,0.0
4577,61.0,0,40,2.0,0.0
4578,41.0,2,150,15.0,0.0
4579,41.0,0,150,3.0,0.0
4580,73.0,48,40,1.0,0.0
4581,53.0,46,150,2.0,0.0
4582,63.0,46,40,2.0,0.0
4583,75.0,0,40,1.0,0.0
4584,65.0,0,90,2.0,0.0
4585,77.0,0,90,1.0,0.0
4586,39.0,46,40,3.0,0.0
4587,51.0,0,40,2.0,0.0
4588,39.0,2,40,15.0,0.0
4589,80.0,0,90,1.0,0.0
4590,68.0,0,90,2.0,0.0
4591,49.0,46,40,2.0,0.0
4592,37.0,2,40,15.0,0.0
4593,37.0,0,40,3.0,0.0
4594,39.0,2,40,15.0,0.0
4595,39.0,0,40,3.0,0.0
4596,51.0,94,40,2.0,0.0
4597,73.0,0,90,2.0,0.0
4598,85.0,0,90,1.0,0.0
4599,41.0,0,90,3.0,0.0
4600,53.0,94,90,2.0,0.0
4601,41.0,2,90,15.0,0.0
4602,56.0,0,90,2.0,0.0
4603,68.0,48,90,2.0,0.0
4604,44.0,2,90,15.0,0.0
4605,80.0,0,90,1.0,0.0
4606,44.0,0,90,3.0,0.0
4607,61.0,0,90,2.0,0.0
4608,65.0,46,40,2.0,0.0
4609,49.0,0,90,3.0,0.0
4610,77.0,0,40,1.0,0.0
4611,49.0,2,90,15.0,0.0
4612,75.0,0,40,1.0,0.0
4613,63.0,48,40,2.0,0.0
4614,73.0,0,40,1.0,0.0
4615,44.0,2,90,15.0,0.0
4616,56.0,0,90,2.0,0.0
4617,44.0,46,90,3.0,0.0
4618,61.0,46,40,2.0,0.0
4619,75.0,0,40,1.0,0.0
4620,63.0,0,40,2.0,0.0
4621,53.0,0,40,2.0,0.0
4622,41.0,2,40,15.0,0.0
4623,65.0,46,90,2.0,0.0
4624,41.0,46,40,3.0,0.0
4625,77.0,0,90,1.0,0.0
4626,39.0,2,40,15.0,0.0
4627,39.0,0,40,3.0,0.0
4628,51.0,0,40,2.0,0.0
4629,80.0,0,90,1.0,0.0
4630,37.0,0,40,3.0,0.0
4631,68.0,0,90,2.0,0.0
4632,37.0,2,40,15.0,0.0
4633,49.0,46,40,2.0,0.0
4634,39.0,94,40,3.0,0.0
4635,39.0,2,40,15.0,0.0
4636,51.0,0,40,2.0,0.0
4637,85.0,94,90,1.0,0.0
4638,53.0,0,90,2.0,0.0
4639,41.0,0,90,3.0,0.0
4640,41.0,2,90,15.0,0.0
4641,73.0,0,90,2.0,0.0
4642,56.0,94,90,2.0,0.0
4643,44.0,2,90,15.0,0.0
4644,84.0,0,90,1.0,0.0
4645,44.0,0,90,3.0,0.0
4646,72.0,0,90,2.0,0.0
4647,82.0,0,90,1.0,0.0
4648,49.0,2,90,15.0,0.0
4649,49.0,0,90,3.0,0.0
4650,61.0,0,90,2.0,0.0
4651,70.0,94,90,2.0,0.0
4652,48.0,0,90,3.0,0.0
4653,60.0,94,90,2.0,0.0
4654,48.0,2,90,15.0,0.0
4655,46.0,2,90,15.0,0.0
4656,58.0,0,90,2.0,0.0
4657,46.0,0,90,3.0,0.0
4658,65.0,94,15,2.0,0.0
4659,77.0,0,15,1.0,0.0
4660,53.0,0,90,2.0,0.0
4661,41.0,0,90,3.0,0.0
4662,41.0,2,90,15.0,0.0
4663,70.0,0,90,1.0,0.0
4664,58.0,94,90,2.0,0.0
4665,41.0,94,90,3.0,0.0
4666,53.0,0,90,2.0,0.0
4667,41.0,2,90,15.0,0.0
4668,60.0,0,90,2.0,0.0
4669,72.0,0,90,1.0,0.0
4670,34.0,2,90,15.0,0.0
4671,61.0,94,90,2.0,0.0
4672,46.0,0,90,2.0,0.0
4673,73.0,0,90,1.0,0.0
4674,34.0,0,90,3.0,0.0
4675,48.0,0,90,2.0,0.0
4676,77.0,0,90,1.0,0.0
4677,36.0,2,90,15.0,0.0
4678,65.0,94,90,2.0,0.0
4679,36.0,0,90,3.0,0.0
4680,37.0,2,90,15.0,0.0
4681,82.0,94,90,1.0,0.0
4682,37.0,0,90,3.0,0.0
4683,49.0,0,90,2.0,0.0
4684,70.0,0,90,2.0,0.0
4685,53.0,0,90,2.0,0.0
4686,41.0,48,90,3.0,0.0
4687,41.0,2,90,15.0,0.0
4688,65.0,0,90,2.0,0.0
4689,77.0,0,90,1.0,0.0
4690,46.0,2,90,15.0,0.0
4691,58.0,0,90,2.0,0.0
4692,61.0,46,40,2.0,0.0
4693,73.0,0,40,1.0,0.0
4694,46.0,0,90,3.0,0.0
4695,72.0,0,40,1.0,0.0
4696,60.0,48,40,2.0,0.0
4697,70.0,0,40,1.0,0.0
4698,53.0,0,90,2.0,0.0
4699,41.0,0,90,3.0,0.0
4700,41.0,2,90,15.0,0.0
4701,58.0,46,40,2.0,0.0
4702,72.0,0,40,1.0,0.0
4703,60.0,46,40,2.0,0.0
4704,37.0,46,40,3.0,0.0
4705,73.0,46,90,1.0,0.0
4706,49.0,0,40,2.0,0.0
4707,61.0,0,90,2.0,0.0
4708,37.0,2,40,15.0,0.0
4709,36.0,0,40,3.0,0.0
4710,36.0,2,40,15.0,0.0
4711,48.0,0,40,2.0,0.0
4712,46.0,0,40,2.0,0.0
4713,77.0,0,90,1.0,0.0
4714,34.0,46,40,3.0,0.0
4715,65.0,0,90,2.0,0.0
4716,34.0,2,40,15.0,0.0
4717,48.0,94,40,2.0,0.0
4718,36.0,0,40,3.0,0.0
4719,36.0,2,40,15.0,0.0
4720,49.0,0,90,2.0,0.0
4721,70.0,94,90,2.0,0.0
4722,37.0,0,90,3.0,0.0
4723,82.0,0,90,1.0,0.0
4724,37.0,2,90,15.0,0.0
4725,41.0,0,90,3.0,0.0
4726,77.0,0,90,1.0,0.0
4727,41.0,2,90,15.0,0.0
4728,53.0,48,90,2.0,0.0
4729,65.0,0,90,2.0,0.0
4730,46.0,48,90,3.0,0.0
4731,61.0,46,40,2.0,0.0
4732,73.0,0,40,1.0,0.0
4733,46.0,2,90,15.0,0.0
4734,60.0,0,40,2.0,0.0
4735,72.0,0,40,1.0,0.0
4736,58.0,0,15,2.0,0.0
4737,70.0,0,40,1.0,0.0
4738,41.0,0,90,3.0,0.0
4739,41.0,2,90,15.0,0.0
4740,53.0,46,90,2.0,0.0
4741,72.0,0,40,1.0,0.0
4742,60.0,0,40,2.0,0.0
4743,37.0,46,40,3.0,0.0
4744,37.0,2,40,15.0,0.0
4745,61.0,0,90,2.0,0.0
4746,49.0,0,40,2.0,0.0
4747,73.0,0,90,1.0,0.0
4748,36.0,2,40,15.0,0.0
4749,48.0,0,40,2.0,0.0
4750,36.0,46,40,3.0,0.0
4751,65.0,46,150,2.0,0.0
4752,77.0,0,150,1.0,0.0
4753,34.0,46,40,3.0,0.0
4754,34.0,2,40,15.0,0.0
4755,46.0,0,40,2.0,0.0
4756,48.0,48,40,2.0,0.0
4757,36.0,2,40,15.0,0.0
4758,36.0,0,40,3.0,0.0
4759,49.0,0,90,2.0,0.0
4760,37.0,2,90,15.0,0.0
4761,37.0,0,90,3.0,0.0
4762,75.0,48,40,1.0,0.0
4763,63.0,0,40,2.0,0.0
4764,61.0,48,40,2.0,0.0
4765,53.0,0,150,2.0,0.0
4766,41.0,2,150,15.0,0.0
4767,73.0,0,40,1.0,0.0
4768,41.0,46,150,3.0,0.0
4769,75.0,46,40,1.0,0.0
4770,63.0,0,40,2.0,0.0
4771,77.0,0,90,1.0,0.0
4772,65.0,0,90,2.0,0.0
4773,39.0,2,40,15.0,0.0
4774,51.0,46,40,2.0,0.0
4775,39.0,0,40,3.0,0.0
4776,49.0,46,40,2.0,0.0
4777,68.0,0,90,2.0,0.0
4778,80.0,94,90,1.0,0.0
4779,37.0,0,40,3.0,0.0
4780,37.0,2,40,15.0,0.0
4781,51.0,0,40,2.0,0.0
4782,39.0,0,40,3.0,0.0
4783,39.0,2,40,15.0,0.0
4784,41.0,94,90,3.0,0.0
4785,73.0,0,90,2.0,0.0
4786,41.0,2,90,15.0,0.0
4787,53.0,0,90,2.0,0.0
4788,85.0,0,90,1.0,0.0
4789,44.0,2,90,15.0,0.0
4790,44.0,48,90,3.0,0.0
4791,56.0,0,90,2.0,0.0
4792,80.0,0,90,1.0,0.0
4793,68.0,0,90,2.0,0.0
4794,49.0,2,90,15.0,0.0
4795,65.0,46,40,2.0,0.0
4796,77.0,0,40,1.0,0.0
4797,49.0,48,90,3.0,0.0
4798,75.0,0,40,1.0,0.0
4799,63.0,0,40,2.0,0.0
4800,44.0,46,90,3.0,0.0
4801,73.0,0,40,1.0,0.0
4802,61.0,0,15,2.0,0.0
4803,56.0,0,90,2.0,0.0
4804,44.0,2,90,15.0,0.0
4805,75.0,0,40,1.0,0.0
4806,63.0,0,40,2.0,0.0
4807,65.0,0,90,2.0,0.0
4808,41.0,2,40,15.0,0.0
4809,77.0,0,90,1.0,0.0
4810,53.0,0,40,2.0,0.0
4811,41.0,46,40,3.0,0.0
4812,39.0,0,40,3.0,0.0
4813,51.0,46,40,2.0,0.0
4814,39.0,2,40,15.0,0.0
4815,37.0,2,40,15.0,0.0
4816,37.0,0,40,3.0,0.0
4817,68.0,0,90,2.0,0.0
4818,49.0,46,40,2.0,0.0
4819,80.0,0,90,1.0,0.0
4820,39.0,0,40,3.0,0.0
4821,39.0,2,40,15.0,0.0
4822,51.0,94,40,2.0,0.0
4823,41.0,0,90,3.0,0.0
4824,73.0,0,90,2.0,0.0
4825,41.0,2,90,15.0,0.0
4826,85.0,94,90,1.0,0.0
4827,53.0,0,90,2.0,0.0
4828,72.0,94,90,2.0,0.0
4829,56.0,0,90,2.0,0.0
4830,44.0,0,90,3.0,0.0
4831,84.0,0,90,1.0,0.0
4832,44.0,2,90,15.0,0.0
4833,82.0,0,90,1.0,0.0
4834,61.0,94,90,2.0,0.0
4835,49.0,0,90,3.0,0.0
4836,49.0,2,90,15.0,0.0
4837,70.0,0,90,2.0,0.0
4838,48.0,2,90,15.0,0.0
4839,48.0,94,90,3.0,0.0
4840,65.0,0,180,2.0,0.0
4841,77.0,0,180,1.0,0.0
4842,60.0,0,90,2.0,0.0
4843,46.0,2,90,15.0,0.0
4844,58.0,0,90,2.0,0.0
4845,46.0,94,90,3.0,0.0
4846,41.0,2,90,15.0,0.0
4847,53.0,94,90,2.0,0.0
4848,41.0,0,15,3.0,0.0
4849,81.0,30,150,9.0,0.0
4850,41.0,2,90,15.0,0.0
4851,53.0,0,90,2.0,0.0
4852,55.0,0,90,2.0,0.0
4853,43.0,2,90,15.0,0.0
4854,43.0,94,90,3.0,0.0
4855,89.0,0,90,0.0,0.0
4856,57.0,0,90,2.0,0.0
4857,77.0,0,90,0.0,0.0
4858,45.0,94,90,3.0,0.0
4859,45.0,2,90,15.0,0.0
4860,60.0,0,90,2.0,0.0
4861,75.0,0,90,0.0,0.0
4862,87.0,94,90,0.0,0.0
4863,48.0,0,90,3.0,0.0
4864,48.0,2,90,15.0,0.0
4865,85.0,0,90,0.0,0.0
4866,65.0,0,90,2.0,0.0
4867,73.0,94,90,0.0,0.0
4868,53.0,0,90,3.0,0.0
4869,53.0,2,90,15.0,0.0
4870,61.0,0,90,2.0,0.0
4871,82.0,0,90,0.0,0.0
4872,49.0,2,90,15.0,0.0
4873,49.0,0,90,3.0,0.0
4874,70.0,46,90,0.0,0.0
4875,65.0,0,90,0.0,0.0
4876,44.0,2,40,15.0,0.0
4877,56.0,0,40,2.0,0.0
4878,44.0,46,40,3.0,0.0
4879,77.0,46,90,0.0,0.0
4880,46.0,2,40,15.0,0.0
4881,58.0,0,40,2.0,0.0
4882,46.0,0,40,3.0,0.0
4883,48.0,2,40,15.0,0.0
4884,48.0,46,40,3.0,0.0
4885,80.0,48,90,0.0,0.0
4886,60.0,0,40,2.0,0.0
4887,68.0,0,90,0.0,0.0
4888,56.0,0,40,2.0,0.0
4889,44.0,2,40,15.0,0.0
4890,44.0,0,40,3.0,0.0
4891,73.0,46,40,0.0,0.0
4892,85.0,0,40,0.0,0.0
4893,46.0,48,90,3.0,0.0
4894,46.0,2,90,15.0,0.0
4895,58.0,0,90,2.0,0.0
4896,72.0,0,40,0.0,0.0
4897,84.0,0,40,0.0,0.0
4898,70.0,46,40,0.0,0.0
4899,54.0,46,90,2.0,0.0
4900,42.0,2,90,15.0,0.0
4901,82.0,0,40,0.0,0.0
4902,42.0,0,90,3.0,0.0
4903,85.0,0,40,0.0,0.0
4904,73.0,0,40,0.0,0.0
4905,84.0,0,90,0.0,0.0
4906,39.0,46,40,3.0,0.0
4907,39.0,2,40,15.0,0.0
4908,72.0,0,90,0.0,0.0
4909,51.0,0,40,2.0,0.0
4910,53.0,0,40,2.0,0.0
4911,41.0,46,40,3.0,0.0
4912,41.0,2,40,15.0,0.0
4913,54.0,46,40,2.0,0.0
4914,42.0,0,40,3.0,0.0
4915,87.0,0,90,0.0,0.0
4916,42.0,2,40,15.0,0.0
4917,75.0,0,90,0.0,0.0
4918,51.0,48,40,2.0,0.0
4919,39.0,0,40,3.0,0.0
4920,39.0,2,40,15.0,0.0
4921,36.0,0,90,3.0,0.0
4922,36.0,2,90,15.0,0.0
4923,90.0,0,40,0.0,0.0
4924,78.0,46,40,0.0,0.0
4925,48.0,48,90,2.0,0.0
4926,89.0,0,40,0.0,0.0
4927,77.0,0,40,0.0,0.0
4928,39.0,2,90,15.0,0.0
4929,39.0,0,90,3.0,0.0
4930,87.0,0,40,0.0,0.0
4931,75.0,46,40,0.0,0.0
4932,51.0,0,90,2.0,0.0
4933,78.0,96,40,0.0,0.0
4934,90.0,0,40,0.0,0.0
4935,49.0,0,150,2.0,0.0
4936,37.0,2,150,15.0,0.0
4937,37.0,46,150,3.0,0.0
4938,82.0,0,90,0.0,0.0
4939,94.0,46,90,0.0,0.0
4940,85.0,0,90,0.0,0.0
4941,97.0,0,90,0.0,0.0
4942,36.0,2,40,15.0,0.0
4943,36.0,0,40,3.0,0.0
4944,48.0,94,40,2.0,0.0
4945,34.0,0,90,3.0,0.0
4946,81.0,30,150,9.0,0.0
4947,46.0,64,90,2.0,0.0
4948,34.0,2,90,15.0,0.0
4949,48.0,0,90,2.0,0.0
4950,36.0,2,90,15.0,0.0
4951,36.0,94,90,3.0,0.0
4952,58.0,94,90,0.0,0.0
4953,49.0,0,90,2.0,0.0
4954,70.0,0,90,0.0,0.0
4955,37.0,2,90,15.0,0.0
4956,37.0,0,90,3.0,0.0
4957,72.0,0,90,0.0,0.0
4958,41.0,94,90,3.0,0.0
4959,60.0,0,90,0.0,0.0
4960,41.0,2,90,15.0,0.0
4961,53.0,0,90,2.0,0.0
4962,46.0,2,90,15.0,0.0
4963,58.0,0,90,2.0,0.0
4964,61.0,94,90,0.0,0.0
4965,46.0,0,90,3.0,0.0
4966,73.0,0,90,0.0,0.0
4967,44.0,46,90,3.0,0.0
4968,65.0,0,90,0.0,0.0
4969,56.0,0,90,2.0,0.0
4970,44.0,2,90,15.0,0.0
4971,77.0,0,90,0.0,0.0
4972,82.0,0,90,0.0,0.0
4973,42.0,2,40,15.0,0.0
4974,70.0,0,90,0.0,0.0
4975,54.0,46,40,2.0,0.0
4976,42.0,0,40,3.0,0.0
4977,39.0,2,40,15.0,0.0
4978,51.0,46,40,2.0,0.0
4979,39.0,0,40,3.0,0.0
4980,41.0,2,40,15.0,0.0
4981,68.0,48,90,0.0,0.0
4982,53.0,0,40,2.0,0.0
4983,41.0,46,40,3.0,0.0
4984,80.0,0,90,0.0,0.0
4985,58.0,0,40,2.0,0.0
4986,46.0,2,40,15.0,0.0
4987,46.0,0,40,3.0,0.0
4988,78.0,0,40,0.0,0.0
4989,51.0,0,90,3.0,0.0
4990,63.0,0,90,2.0,0.0
4991,51.0,2,90,15.0,0.0
4992,66.0,46,40,0.0,0.0
4993,75.0,0,40,0.0,0.0
4994,63.0,48,40,0.0,0.0
4995,61.0,0,90,2.0,0.0
4996,49.0,2,90,15.0,0.0
4997,65.0,0,40,0.0,0.0
4998,77.0,46,40,0.0,0.0
4999,49.0,0,90,3.0,0.0
5000,70.0,46,40,0.0,0.0
5001,82.0,0,40,0.0,0.0
5002,47.0,46,40,3.0,0.0
5003,59.0,0,40,2.0,0.0
5004,87.0,0,90,0.0,0.0
5005,47.0,2,40,15.0,0.0
5006,75.0,0,90,0.0,0.0
5007,44.0,46,40,3.0,0.0
5008,44.0,2,40,15.0,0.0
5009,56.0,0,40,2.0,0.0
5010,73.0,0,90,0.0,0.0
5011,46.0,2,40,15.0,0.0
5012,46.0,0,40,3.0,0.0
5013,85.0,0,90,0.0,0.0
5014,58.0,46,40,2.0,0.0
5015,63.0,0,40,2.0,0.0
5016,51.0,2,40,15.0,0.0
5017,51.0,48,40,3.0,0.0
5018,83.0,0,40,0.0,0.0
5019,71.0,46,40,0.0,0.0
5020,56.0,2,90,15.0,0.0
5021,68.0,0,90,2.0,0.0
5022,56.0,0,90,3.0,0.0
5023,68.0,48,40,0.0,0.0
5024,80.0,0,40,0.0,0.0
5025,82.0,0,40,0.0,0.0
5026,54.0,94,90,3.0,0.0
5027,70.0,46,40,0.0,0.0
5028,54.0,2,90,15.0,0.0
5029,66.0,0,90,2.0,0.0
5030,87.0,0,40,0.0,0.0
5031,75.0,0,40,0.0,0.0
5032,60.0,0,90,3.0,0.0
5033,53.0,2,90,15.0,0.0
5034,81.0,0,90,0.0,0.0
5035,93.0,0,90,0.0,0.0
5036,87.0,0,90,0.0,0.0
5037,65.0,0,90,2.0,0.0
5038,53.0,94,90,3.0,0.0
5039,58.0,0,90,2.0,0.0
5040,46.0,2,90,15.0,0.0
5041,46.0,94,90,3.0,0.0
5042,82.0,0,90,0.0,0.0
5043,94.0,0,90,0.0,0.0
5044,85.0,0,90,0.0,0.0
5045,41.0,2,90,15.0,0.0
5046,53.0,0,90,2.0,0.0
5047,41.0,64,90,3.0,0.0
5048,81.0,30,150,9.0,0.0
5049,55.0,94,90,2.0,0.0
5050,43.0,0,90,3.0,0.0
5051,43.0,2,90,15.0,0.0
5052,45.0,2,90,15.0,0.0
5053,45.0,0,90,3.0,0.0
5054,77.0,0,90,0.0,0.0
5055,89.0,94,90,0.0,0.0
5056,57.0,0,90,2.0,0.0
5057,75.0,0,90,0.0,0.0
5058,60.0,0,90,2.0,0.0
5059,48.0,2,90,15.0,0.0
5060,48.0,0,90,3.0,0.0
5061,87.0,94,90,0.0,0.0
5062,65.0,94,90,2.0,0.0
5063,85.0,0,90,0.0,0.0
5064,53.0,0,90,3.0,0.0
5065,73.0,0,90,0.0,0.0
5066,53.0,2,90,15.0,0.0
5067,61.0,0,90,2.0,0.0
5068,82.0,46,90,0.0,0.0
5069,70.0,0,90,0.0,0.0
5070,49.0,2,90,15.0,0.0
5071,49.0,0,90,3.0,0.0
5072,44.0,46,40,3.0,0.0
5073,77.0,46,90,0.0,0.0
5074,44.0,2,40,15.0,0.0
5075,65.0,0,90,0.0,0.0
5076,56.0,0,40,2.0,0.0
5077,46.0,2,40,15.0,0.0
5078,58.0,0,40,2.0,0.0
5079,46.0,0,40,3.0,0.0
5080,68.0,48,90,0.0,0.0
5081,48.0,46,40,3.0,0.0
5082,48.0,2,40,15.0,0.0
5083,60.0,0,40,2.0,0.0
5084,80.0,0,90,0.0,0.0
5085,44.0,0,40,3.0,0.0
5086,56.0,0,40,2.0,0.0
5087,44.0,2,40,15.0,0.0
5088,46.0,0,90,3.0,0.0
5089,58.0,0,90,2.0,0.0
5090,85.0,0,40,0.0,0.0
5091,46.0,2,90,15.0,0.0
5092,73.0,46,40,0.0,0.0
5093,72.0,0,40,0.0,0.0
5094,84.0,48,40,0.0,0.0
5095,70.0,46,40,0.0,0.0
5096,42.0,0,90,3.0,0.0
5097,82.0,0,40,0.0,0.0
5098,42.0,2,90,15.0,0.0
5099,54.0,46,90,2.0,0.0
5100,73.0,0,40,0.0,0.0
5101,85.0,0,40,0.0,0.0
5102,39.0,46,40,3.0,0.0
5103,51.0,0,40,2.0,0.0
5104,72.0,0,90,0.0,0.0
5105,39.0,2,40,15.0,0.0
5106,84.0,46,90,0.0,0.0
5107,53.0,0,40,2.0,0.0
5108,41.0,0,40,3.0,0.0
5109,41.0,2,40,15.0,0.0
5110,42.0,2,40,15.0,0.0
5111,54.0,0,40,2.0,0.0
5112,42.0,46,40,3.0,0.0
5113,75.0,0,90,0.0,0.0
5114,87.0,0,90,0.0,0.0
5115,39.0,0,40,3.0,0.0
5116,51.0,48,40,2.0,0.0
5117,39.0,2,40,15.0,0.0
5118,90.0,0,40,0.0,0.0
5119,36.0,48,90,3.0,0.0
5120,36.0,2,90,15.0,0.0
5121,48.0,0,90,2.0,0.0
5122,78.0,46,40,0.0,0.0
5123,77.0,0,40,0.0,0.0
5124,89.0,0,40,0.0,0.0
5125,75.0,46,40,0.0,0.0
5126,51.0,96,90,2.0,0.0
5127,39.0,2,90,15.0,0.0
5128,87.0,0,40,0.0,0.0
5129,39.0,0,90,3.0,0.0
5130,90.0,0,40,0.0,0.0
5131,78.0,0,40,0.0,0.0
5132,37.0,0,150,3.0,0.0
5133,94.0,0,90,0.0,0.0
5134,37.0,2,150,15.0,0.0
5135,82.0,46,90,0.0,0.0
5136,49.0,46,150,2.0,0.0
5137,97.0,94,90,0.0,0.0
5138,85.0,0,90,0.0,0.0
5139,48.0,0,40,2.0,0.0
5140,36.0,0,40,3.0,0.0
5141,36.0,2,40,15.0,0.0
5142,34.0,64,90,3.0,0.0
5143,46.0,0,90,2.0,0.0
5144,81.0,30,150,9.0,0.0
5145,34.0,2,90,15.0,0.0
5146,36.0,2,90,15.0,0.0
5147,48.0,0,90,2.0,0.0
5148,36.0,94,90,3.0,0.0
5149,49.0,94,90,2.0,0.0
5150,58.0,0,90,0.0,0.0
5151,37.0,2,90,15.0,0.0
5152,37.0,0,90,3.0,0.0
5153,70.0,0,90,0.0,0.0
5154,53.0,0,90,2.0,0.0
5155,41.0,2,90,15.0,0.0
5156,60.0,0,90,0.0,0.0
5157,41.0,0,90,3.0,0.0
5158,72.0,94,90,0.0,0.0
5159,73.0,94,90,0.0,0.0
5160,46.0,2,90,15.0,0.0
5161,46.0,0,90,3.0,0.0
5162,58.0,0,90,2.0,0.0
5163,61.0,0,90,0.0,0.0
5164,44.0,0,90,3.0,0.0
5165,56.0,0,90,2.0,0.0
5166,65.0,0,90,0.0,0.0
5167,77.0,46,90,0.0,0.0
5168,44.0,2,90,15.0,0.0
5169,54.0,0,40,2.0,0.0
5170,42.0,46,40,3.0,0.0
5171,70.0,0,90,0.0,0.0
5172,82.0,46,90,0.0,0.0
5173,42.0,2,40,15.0,0.0
5174,39.0,2,40,15.0,0.0
5175,51.0,0,40,2.0,0.0
5176,39.0,0,40,3.0,0.0
5177,68.0,0,90,0.0,0.0
5178,41.0,46,40,3.0,0.0
5179,41.0,2,40,15.0,0.0
5180,53.0,0,40,2.0,0.0
5181,80.0,48,90,0.0,0.0
5182,46.0,2,40,15.0,0.0
5183,58.0,0,40,2.0,0.0
5184,46.0,0,40,3.0,0.0
5185,51.0,2,90,15.0,0.0
5186,51.0,0,90,3.0,0.0
5187,63.0,0,90,2.0,0.0
5188,66.0,0,40,0.0,0.0
5189,78.0,46,40,0.0,0.0
5190,63.0,48,40,0.0,0.0
5191,75.0,0,40,0.0,0.0
5192,49.0,0,90,3.0,0.0
5193,65.0,0,40,0.0,0.0
5194,77.0,46,40,0.0,0.0
5195,61.0,46,90,2.0,0.0
5196,49.0,2,90,15.0,0.0
5197,70.0,0,40,0.0,0.0
5198,82.0,0,40,0.0,0.0
5199,47.0,2,40,15.0,0.0
5200,47.0,46,40,3.0,0.0
5201,87.0,0,90,0.0,0.0
5202,75.0,0,90,0.0,0.0
5203,59.0,0,40,2.0,0.0
5204,56.0,0,40,2.0,0.0
5205,44.0,2,40,15.0,0.0
5206,44.0,46,40,3.0,0.0
5207,46.0,2,40,15.0,0.0
5208,85.0,0,90,0.0,0.0
5209,73.0,0,90,0.0,0.0
5210,46.0,0,40,3.0,0.0
5211,58.0,46,40,2.0,0.0
5212,51.0,48,40,3.0,0.0
5213,51.0,2,40,15.0,0.0
5214,63.0,0,40,2.0,0.0
5215,83.0,46,40,0.0,0.0
5216,68.0,48,90,2.0,0.0
5217,71.0,0,40,0.0,0.0
5218,56.0,0,90,3.0,0.0
5219,56.0,2,90,15.0,0.0
5220,68.0,0,40,0.0,0.0
5221,80.0,0,40,0.0,0.0
5222,54.0,0,90,3.0,0.0
5223,70.0,0,40,0.0,0.0
5224,82.0,46,40,0.0,0.0
5225,54.0,2,90,15.0,0.0
5226,66.0,0,90,2.0,0.0
5227,75.0,0,40,0.0,0.0
5228,53.0,0,90,3.0,0.0
5229,60.0,0,90,3.0,0.0
5230,87.0,94,15,0.0,0.0
5231,53.0,2,90,15.0,0.0
5232,81.0,0,90,0.0,0.0
5233,93.0,0,90,0.0,0.0
5234,65.0,0,90,2.0,0.0
5235,46.0,2,90,15.0,0.0
5236,94.0,0,90,0.0,0.0
5237,46.0,0,90,3.0,0.0
5238,82.0,32,90,0.0,0.0
5239,85.0,0,90,0.0,0.0
5240,58.0,0,90,2.0,0.0
5241,58.0,0,30,14.0,0.0
5242,38.0,34,90,9.0,0.0
5243,58.0,0,30,4.0,0.0
5244,65.0,0,30,11.0,0.0
5245,62.0,0,30,4.0,0.0
5246,62.0,62,30,12.0,0.0
5247,62.0,0,30,5.0,0.0
5248,65.0,0,30,5.0,0.0
5249,65.0,0,30,11.0,0.0
5250,60.0,0,30,12.0,0.0
5251,65.0,14,30,5.0,0.0
5252,53.0,0,30,4.0,0.0
5253,60.0,0,30,5.0,0.0
5254,53.0,0,30,14.0,0.0
5255,60.0,0,30,4.0,0.0
5256,38.0,34,40,9.0,0.0
5257,38.0,34,40,9.0,0.0
5258,58.0,14,30,14.0,0.0
5259,62.0,0,30,4.0,0.0
5260,65.0,0,30,5.0,0.0
5261,62.0,0,30,5.0,0.0
5262,62.0,0,30,12.0,0.0
5263,58.0,0,30,4.0,0.0
5264,65.0,0,30,11.0,0.0
5265,63.0,0,30,12.0,0.0
5266,38.0,34,90,9.0,0.0
5267,65.0,0,30,11.0,0.0
5268,60.0,0,30,4.0,0.0
5269,65.0,0,30,5.0,0.0
5270,63.0,0,30,5.0,0.0
5271,60.0,0,30,14.0,0.0
5272,63.0,62,30,4.0,0.0
5273,62.0,14,30,4.0,0.0
5274,58.0,0,30,14.0,0.0
5275,65.0,0,30,11.0,0.0
5276,62.0,0,30,12.0,0.0
5277,62.0,0,30,5.0,0.0
5278,65.0,0,30,5.0,0.0
5279,38.0,34,40,9.0,0.0
5280,58.0,0,30,4.0,0.0
5281,65.0,0,30,5.0,0.0
5282,60.0,0,30,4.0,0.0
5283,65.0,0,30,11.0,0.0
5284,60.0,0,30,5.0,0.0
5285,60.0,0,30,12.0,0.0
5286,38.0,34,40,9.0,0.0
5287,53.0,14,30,4.0,0.0
5288,53.0,0,30,14.0,0.0
5289,62.0,0,30,5.0,0.0
5290,65.0,0,30,11.0,0.0
5291,38.0,34,90,9.0,0.0
5292,62.0,0,30,12.0,0.0
5293,58.0,48,30,4.0,0.0
5294,58.0,0,30,14.0,0.0
5295,62.0,0,30,4.0,0.0
5296,65.0,0,30,5.0,0.0
5297,53.0,14,30,14.0,0.0
5298,53.0,0,30,4.0,0.0
5299,65.0,0,30,5.0,0.0
5300,60.0,0,30,5.0,0.0
5301,65.0,0,30,11.0,0.0
5302,60.0,0,30,4.0,0.0
5303,60.0,0,30,12.0,0.0
5304,50.0,0,30,4.0,0.0
5305,58.0,0,30,4.0,0.0
5306,65.0,0,30,5.0,0.0
5307,50.0,0,30,14.0,0.0
5308,65.0,48,30,11.0,0.0
5309,58.0,0,30,12.0,0.0
5310,58.0,0,30,5.0,0.0
5311,53.0,0,30,14.0,0.0
5312,60.0,48,30,4.0,0.0
5313,53.0,0,30,4.0,0.0
5314,60.0,0,30,5.0,0.0
5315,65.0,0,30,11.0,0.0
5316,60.0,0,30,12.0,0.0
5317,65.0,0,30,5.0,0.0
5318,58.0,0,30,14.0,0.0
5319,58.0,0,30,4.0,0.0
5320,62.0,0,30,5.0,0.0
5321,65.0,96,30,5.0,0.0
5322,65.0,0,30,11.0,0.0
5323,62.0,0,30,4.0,0.0
5324,62.0,0,30,12.0,0.0
5325,70.0,0,30,11.0,0.0
5326,38.0,34,90,9.0,0.0
5327,55.0,0,30,4.0,0.0
5328,63.0,0,30,12.0,0.0
5329,55.0,0,30,14.0,0.0
5330,70.0,0,30,5.0,0.0
5331,63.0,0,30,5.0,0.0
5332,63.0,62,30,4.0,0.0
5333,58.0,0,30,14.0,0.0
5334,62.0,0,30,5.0,0.0
5335,58.0,0,30,4.0,0.0
5336,62.0,62,30,4.0,0.0
5337,38.0,34,90,9.0,0.0
5338,65.0,0,30,11.0,0.0
5339,65.0,0,30,5.0,0.0
5340,62.0,0,30,12.0,0.0
5341,65.0,0,30,11.0,0.0
5342,60.0,0,30,5.0,0.0
5343,53.0,14,30,14.0,0.0
5344,65.0,0,30,5.0,0.0
5345,60.0,0,30,12.0,0.0
5346,38.0,34,40,9.0,0.0
5347,60.0,0,30,4.0,0.0
5348,53.0,0,30,4.0,0.0
5349,65.0,0,30,5.0,0.0
5350,58.0,14,30,4.0,0.0
5351,58.0,0,30,14.0,0.0
5352,38.0,34,40,9.0,0.0
5353,65.0,0,30,11.0,0.0
5354,62.0,0,30,4.0,0.0
5355,62.0,0,30,5.0,0.0
5356,62.0,0,30,12.0,0.0
5357,63.0,62,30,4.0,0.0
5358,60.0,0,30,14.0,0.0
5359,63.0,0,30,5.0,0.0
5360,60.0,0,30,4.0,0.0
5361,38.0,34,90,9.0,0.0
5362,65.0,0,30,11.0,0.0
5363,65.0,0,30,5.0,0.0
5364,63.0,0,30,12.0,0.0
5365,58.0,0,30,14.0,0.0
5366,58.0,0,30,4.0,0.0
5367,62.0,0,30,12.0,0.0
5368,65.0,0,30,5.0,0.0
5369,38.0,34,40,9.0,0.0
5370,65.0,0,30,11.0,0.0
5371,62.0,14,30,5.0,0.0
5372,62.0,0,30,4.0,0.0
5373,53.0,0,30,4.0,0.0
5374,38.0,34,40,9.0,0.0
5375,60.0,0,30,4.0,0.0
5376,65.0,0,30,5.0,0.0
5377,60.0,0,30,5.0,0.0
5378,65.0,0,30,11.0,0.0
5379,60.0,0,30,12.0,0.0
5380,53.0,14,30,14.0,0.0
5381,38.0,34,90,9.0,0.0
5382,65.0,0,30,5.0,0.0
5383,62.0,0,30,5.0,0.0
5384,58.0,48,30,4.0,0.0
5385,62.0,0,30,4.0,0.0
5386,62.0,0,30,12.0,0.0
5387,65.0,0,30,11.0,0.0
5388,58.0,0,30,14.0,0.0
5389,53.0,0,30,14.0,0.0
5390,60.0,0,30,4.0,0.0
5391,53.0,0,30,4.0,0.0
5392,60.0,0,30,5.0,0.0
5393,65.0,0,30,11.0,0.0
5394,60.0,14,30,12.0,0.0
5395,65.0,0,30,5.0,0.0
5396,50.0,0,30,4.0,0.0
5397,58.0,0,30,4.0,0.0
5398,58.0,0,30,12.0,0.0
5399,65.0,48,30,5.0,0.0
5400,65.0,0,30,11.0,0.0
5401,50.0,0,30,14.0,0.0
5402,58.0,0,30,5.0,0.0
5403,65.0,0,30,11.0,0.0
5404,53.0,0,30,14.0,0.0
5405,65.0,0,30,5.0,0.0
5406,53.0,0,30,4.0,0.0
5407,60.0,0,30,5.0,0.0
5408,60.0,48,30,4.0,0.0
5409,60.0,0,30,12.0,0.0
5410,62.0,0,30,4.0,0.0
5411,58.0,96,30,14.0,0.0
5412,65.0,0,30,5.0,0.0
5413,62.0,0,30,12.0,0.0
5414,62.0,0,30,5.0,0.0
5415,58.0,0,30,4.0,0.0
5416,65.0,0,30,11.0,0.0
5417,64.0,0,30,12.0,0.0
5418,57.0,0,30,4.0,0.0
5419,64.0,0,30,5.0,0.0
5420,69.0,62,30,5.0,0.0
5421,38.0,34,90,9.0,0.0
5422,69.0,0,30,11.0,0.0
5423,64.0,0,30,4.0,0.0
5424,57.0,0,30,14.0,0.0
5425,65.0,0,30,5.0,0.0
5426,69.0,0,30,11.0,0.0
5427,69.0,0,30,5.0,0.0
5428,62.0,0,30,14.0,0.0
5429,38.0,34,90,9.0,0.0
5430,62.0,0,30,4.0,0.0
5431,65.0,0,30,4.0,0.0
5432,65.0,62,30,12.0,0.0
5433,64.0,0,30,4.0,0.0
5434,57.0,0,30,4.0,0.0
5435,69.0,14,30,5.0,0.0
5436,64.0,0,30,12.0,0.0
5437,38.0,34,40,9.0,0.0
5438,69.0,0,30,11.0,0.0
5439,64.0,0,30,5.0,0.0
5440,57.0,0,30,14.0,0.0
5441,62.0,0,30,4.0,0.0
5442,65.0,0,30,12.0,0.0
5443,62.0,0,30,14.0,0.0
5444,65.0,0,30,4.0,0.0
5445,38.0,34,40,9.0,0.0
5446,65.0,0,30,5.0,0.0
5447,69.0,0,30,5.0,0.0
5448,69.0,14,30,11.0,0.0
5449,38.0,34,90,9.0,0.0
5450,69.0,62,30,5.0,0.0
5451,64.0,0,30,4.0,0.0
5452,69.0,0,30,11.0,0.0
5453,67.0,0,30,12.0,0.0
5454,64.0,0,30,14.0,0.0
5455,67.0,0,30,4.0,0.0
5456,67.0,0,30,5.0,0.0
5457,65.0,0,30,5.0,0.0
5458,38.0,34,40,9.0,0.0
5459,65.0,0,30,4.0,0.0
5460,69.0,0,30,11.0,0.0
5461,65.0,14,30,12.0,0.0
5462,62.0,0,30,4.0,0.0
5463,62.0,0,30,14.0,0.0
5464,69.0,0,30,5.0,0.0
5465,64.0,0,30,12.0,0.0
5466,64.0,0,30,5.0,0.0
5467,57.0,0,30,14.0,0.0
5468,57.0,0,30,4.0,0.0
5469,38.0,34,40,9.0,0.0
5470,69.0,0,30,11.0,0.0
5471,64.0,0,30,4.0,0.0
5472,69.0,14,30,5.0,0.0
5473,65.0,0,30,12.0,0.0
5474,69.0,0,30,11.0,0.0
5475,65.0,0,30,4.0,0.0
5476,38.0,34,90,9.0,0.0
5477,62.0,0,30,4.0,0.0
5478,62.0,48,30,14.0,0.0
5479,65.0,0,30,5.0,0.0
5480,69.0,0,30,5.0,0.0
5481,64.0,14,30,12.0,0.0
5482,69.0,0,30,5.0,0.0
5483,64.0,0,30,4.0,0.0
5484,57.0,0,30,4.0,0.0
5485,64.0,0,30,5.0,0.0
5486,57.0,0,30,14.0,0.0
5487,69.0,0,30,11.0,0.0
5488,53.0,0,30,4.0,0.0
5489,62.0,0,30,4.0,0.0
5490,69.0,0,30,5.0,0.0
5491,62.0,0,30,12.0,0.0
5492,69.0,0,30,11.0,0.0
5493,53.0,0,30,14.0,0.0
5494,62.0,48,30,5.0,0.0
5495,64.0,0,30,5.0,0.0
5496,64.0,48,30,12.0,0.0
5497,69.0,0,30,11.0,0.0
5498,69.0,0,30,5.0,0.0
5499,57.0,0,30,14.0,0.0
5500,57.0,0,30,4.0,0.0
5501,64.0,0,30,4.0,0.0
5502,65.0,0,30,12.0,0.0
5503,62.0,0,30,14.0,0.0
5504,65.0,0,30,5.0,0.0
5505,65.0,0,30,4.0,0.0
5506,69.0,96,30,5.0,0.0
5507,62.0,0,30,4.0,0.0
5508,69.0,0,30,11.0,0.0
5509,74.0,0,30,11.0,0.0
5510,74.0,0,30,5.0,0.0
5511,67.0,0,30,4.0,0.0
5512,58.0,0,30,14.0,0.0
5513,38.0,34,90,9.0,0.0
5514,67.0,0,30,12.0,0.0
5515,67.0,0,30,5.0,0.0
5516,58.0,62,30,4.0,0.0
5517,62.0,62,30,14.0,0.0
5518,65.0,0,30,5.0,0.0
5519,38.0,34,90,9.0,0.0
5520,69.0,0,30,5.0,0.0
5521,65.0,0,30,12.0,0.0
5522,62.0,0,30,4.0,0.0
5523,65.0,0,30,4.0,0.0
5524,69.0,0,30,11.0,0.0
5525,69.0,0,30,5.0,0.0
5526,57.0,14,30,14.0,0.0
5527,64.0,0,30,12.0,0.0
5528,64.0,0,30,5.0,0.0
5529,38.0,34,40,9.0,0.0
5530,64.0,0,30,4.0,0.0
5531,69.0,0,30,11.0,0.0
5532,57.0,0,30,4.0,0.0
5533,38.0,34,40,9.0,0.0
5534,65.0,0,30,5.0,0.0
5535,62.0,0,30,14.0,0.0
5536,69.0,0,30,11.0,0.0
5537,65.0,14,30,4.0,0.0
5538,65.0,0,30,12.0,0.0
5539,69.0,0,30,5.0,0.0
5540,62.0,0,30,4.0,0.0
5541,72.0,0,30,11.0,0.0
5542,60.0,0,30,14.0,0.0
5543,72.0,0,30,5.0,0.0
5544,67.0,0,30,5.0,0.0
5545,64.0,0,30,5.0,0.0
5546,60.0,0,30,4.0,0.0
5547,64.0,0,30,12.0,0.0
5548,38.0,34,90,9.0,0.0
5549,64.0,0,30,4.0,0.0
5550,67.0,0,30,4.0,0.0
5551,67.0,62,30,12.0,0.0
5552,62.0,0,30,12.0,0.0
5553,60.0,0,30,14.0,0.0
5554,38.0,34,40,9.0,0.0
5555,62.0,0,30,5.0,0.0
5556,65.0,14,30,5.0,0.0
5557,72.0,0,30,11.0,0.0
5558,72.0,0,30,5.0,0.0
5559,65.0,0,30,4.0,0.0
5560,65.0,0,30,12.0,0.0
5561,62.0,0,30,4.0,0.0
5562,60.0,0,30,4.0,0.0
5563,60.0,0,30,14.0,0.0
5564,72.0,0,30,5.0,0.0
5565,38.0,34,40,9.0,0.0
5566,67.0,0,30,4.0,0.0
5567,64.0,0,30,4.0,0.0
5568,60.0,0,30,4.0,0.0
5569,72.0,0,30,11.0,0.0
5570,67.0,0,30,12.0,0.0
5571,64.0,14,30,12.0,0.0
5572,64.0,0,30,5.0,0.0
5573,67.0,0,30,5.0,0.0
5574,65.0,0,30,12.0,0.0
5575,69.0,0,30,5.0,0.0
5576,65.0,62,30,5.0,0.0
5577,57.0,0,30,4.0,0.0
5578,72.0,0,30,11.0,0.0
5579,69.0,0,30,12.0,0.0
5580,72.0,0,30,5.0,0.0
5581,38.0,34,90,9.0,0.0
5582,53.0,0,30,14.0,0.0
5583,65.0,0,30,4.0,0.0
5584,69.0,0,30,4.0,0.0
5585,41.0,0,30,14.0,0.0
5586,77.0,48,30,11.0,0.0
5587,45.0,48,30,14.0,0.0
5588,75.0,0,30,11.0,0.0
5589,48.0,0,30,14.0,0.0
5590,72.0,48,30,11.0,0.0
5591,69.0,48,30,11.0,0.0
5592,53.0,0,30,14.0,0.0
5593,65.0,48,30,11.0,0.0
5594,57.0,0,30,14.0,0.0
5595,63.0,0,30,11.0,0.0
5596,60.0,48,30,14.0,0.0
5597,58.0,0,30,4.0,0.0
5598,62.0,0,30,4.0,0.0
5599,38.0,34,90,9.0,0.0
5600,62.0,0,30,5.0,0.0
5601,62.0,0,30,12.0,0.0
5602,58.0,0,30,14.0,0.0
5603,65.0,62,30,11.0,0.0
5604,65.0,0,30,5.0,0.0
5605,60.0,0,30,5.0,0.0
5606,60.0,0,30,4.0,0.0
5607,65.0,14,30,11.0,0.0
5608,38.0,34,40,9.0,0.0
5609,53.0,0,30,4.0,0.0
5610,65.0,0,30,5.0,0.0
5611,53.0,0,30,14.0,0.0
5612,60.0,0,30,12.0,0.0
5613,38.0,34,40,9.0,0.0
5614,62.0,0,30,5.0,0.0
5615,62.0,14,30,4.0,0.0
5616,65.0,0,30,11.0,0.0
5617,62.0,0,30,12.0,0.0
5618,65.0,0,30,5.0,0.0
5619,58.0,0,30,14.0,0.0
5620,58.0,0,30,4.0,0.0
5621,65.0,62,30,11.0,0.0
5622,65.0,0,30,5.0,0.0
5623,60.0,0,30,4.0,0.0
5624,63.0,0,30,5.0,0.0
5625,38.0,34,90,9.0,0.0
5626,63.0,0,30,12.0,0.0
5627,60.0,0,30,14.0,0.0
5628,63.0,0,30,4.0,0.0
5629,62.0,0,30,12.0,0.0
5630,58.0,0,30,4.0,0.0
5631,62.0,14,30,4.0,0.0
5632,65.0,0,30,5.0,0.0
5633,62.0,0,30,5.0,0.0
5634,65.0,0,30,11.0,0.0
5635,58.0,0,30,14.0,0.0
5636,38.0,34,40,9.0,0.0
5637,60.0,0,30,12.0,0.0
5638,38.0,34,40,9.0,0.0
5639,60.0,0,30,4.0,0.0
5640,65.0,0,30,11.0,0.0
5641,65.0,14,30,5.0,0.0
5642,60.0,0,30,5.0,0.0
5643,53.0,0,30,14.0,0.0
5644,53.0,0,30,4.0,0.0
5645,58.0,48,30,4.0,0.0
5646,62.0,0,30,4.0,0.0
5647,38.0,34,90,9.0,0.0
5648,62.0,0,30,12.0,0.0
5649,65.0,0,30,11.0,0.0
5650,58.0,0,30,14.0,0.0
5651,62.0,0,30,5.0,0.0
5652,65.0,0,30,5.0,0.0
5653,53.0,0,30,14.0,0.0
5654,65.0,0,30,5.0,0.0
5655,60.0,14,30,5.0,0.0
5656,60.0,0,30,4.0,0.0
5657,53.0,0,30,4.0,0.0
5658,60.0,0,30,12.0,0.0
5659,65.0,0,30,11.0,0.0
5660,58.0,0,30,12.0,0.0
5661,50.0,0,30,4.0,0.0
5662,65.0,0,30,5.0,0.0
5663,58.0,48,30,5.0,0.0
5664,58.0,0,30,4.0,0.0
5665,50.0,0,30,14.0,0.0
5666,65.0,0,30,11.0,0.0
5667,60.0,0,30,12.0,0.0
5668,53.0,0,30,4.0,0.0
5669,53.0,0,30,14.0,0.0
5670,60.0,0,30,5.0,0.0
5671,65.0,0,30,11.0,0.0
5672,65.0,48,30,5.0,0.0
5673,60.0,0,30,4.0,0.0
5674,65.0,0,30,11.0,0.0
5675,58.0,0,30,14.0,0.0
5676,62.0,96,30,5.0,0.0
5677,62.0,0,30,12.0,0.0
5678,58.0,0,30,4.0,0.0
5679,62.0,0,30,4.0,0.0
5680,65.0,0,30,5.0,0.0
5681,70.0,0,30,11.0,0.0
5682,55.0,0,30,14.0,0.0
5683,55.0,0,30,4.0,0.0
5684,63.0,0,30,5.0,0.0
5685,70.0,0,30,5.0,0.0
5686,63.0,0,30,4.0,0.0
5687,63.0,0,30,12.0,0.0
5688,38.0,34,90,9.0,0.0
5689,62.0,0,30,4.0,0.0
5690,58.0,0,30,4.0,0.0
5691,62.0,62,30,5.0,0.0
5692,58.0,0,30,14.0,0.0
5693,38.0,34,90,9.0,0.0
5694,62.0,0,30,12.0,0.0
5695,65.0,0,30,5.0,0.0
5696,65.0,0,30,11.0,0.0
5697,53.0,0,30,4.0,0.0
5698,65.0,0,30,5.0,0.0
5699,60.0,0,30,5.0,0.0
5700,38.0,34,40,9.0,0.0
5701,65.0,0,30,11.0,0.0
5702,60.0,0,30,4.0,0.0
5703,53.0,0,30,14.0,0.0
5704,60.0,14,30,12.0,0.0
5705,62.0,0,30,12.0,0.0
5706,65.0,0,30,5.0,0.0
5707,58.0,14,30,4.0,0.0
5708,62.0,0,30,4.0,0.0
5709,58.0,0,30,14.0,0.0
5710,38.0,34,40,9.0,0.0
5711,65.0,0,30,11.0,0.0
5712,62.0,0,30,5.0,0.0
5713,63.0,0,30,4.0,0.0
5714,63.0,0,30,12.0,0.0
5715,65.0,0,30,5.0,0.0
5716,60.0,62,30,14.0,0.0
5717,60.0,0,30,4.0,0.0
5718,63.0,0,30,5.0,0.0
5719,65.0,0,30,11.0,0.0
5720,38.0,34,90,9.0,0.0
5721,58.0,0,30,4.0,0.0
5722,65.0,0,30,5.0,0.0
5723,62.0,0,30,4.0,0.0
5724,58.0,0,30,14.0,0.0
5725,65.0,0,30,11.0,0.0
5726,62.0,0,30,12.0,0.0
5727,38.0,34,40,9.0,0.0
5728,62.0,14,30,5.0,0.0
5729,60.0,0,30,4.0,0.0
5730,60.0,0,30,12.0,0.0
5731,65.0,0,30,11.0,0.0
5732,53.0,0,30,4.0,0.0
5733,53.0,0,30,14.0,0.0
5734,38.0,34,40,9.0,0.0
5735,60.0,0,30,5.0,0.0
5736,65.0,14,30,5.0,0.0
5737,58.0,0,30,4.0,0.0
5738,62.0,0,30,5.0,0.0
5739,62.0,0,30,4.0,0.0
5740,65.0,48,30,11.0,0.0
5741,65.0,0,30,5.0,0.0
5742,38.0,34,90,9.0,0.0
5743,62.0,0,30,12.0,0.0
5744,58.0,0,30,14.0,0.0
5745,60.0,0,30,12.0,0.0
5746,60.0,14,30,4.0,0.0
5747,60.0,0,30,5.0,0.0
5748,53.0,0,30,4.0,0.0
5749,65.0,0,30,5.0,0.0
5750,65.0,0,30,11.0,0.0
5751,53.0,0,30,14.0,0.0
5752,65.0,0,30,5.0,0.0
5753,58.0,0,30,12.0,0.0
5754,50.0,0,30,14.0,0.0
5755,58.0,0,30,4.0,0.0
5756,65.0,0,30,11.0,0.0
5757,50.0,0,30,4.0,0.0
5758,58.0,48,30,5.0,0.0
5759,60.0,0,30,4.0,0.0
5760,65.0,48,30,11.0,0.0
5761,53.0,0,30,4.0,0.0
5762,60.0,0,30,5.0,0.0
5763,53.0,0,30,14.0,0.0
5764,60.0,0,30,12.0,0.0
5765,65.0,0,30,5.0,0.0
5766,62.0,0,30,12.0,0.0
5767,65.0,0,30,5.0,0.0
5768,62.0,0,30,4.0,0.0
5769,58.0,0,30,14.0,0.0
5770,62.0,96,30,5.0,0.0
5771,65.0,0,30,11.0,0.0
5772,58.0,0,30,4.0,0.0
5773,57.0,0,30,4.0,0.0
5774,69.0,0,30,11.0,0.0
5775,64.0,0,30,12.0,0.0
5776,38.0,34,90,9.0,0.0
5777,64.0,0,30,5.0,0.0
5778,64.0,0,30,4.0,0.0
5779,57.0,0,30,14.0,0.0
5780,69.0,0,30,5.0,0.0
5781,69.0,0,30,5.0,0.0
5782,62.0,0,30,14.0,0.0
5783,65.0,62,30,4.0,0.0
5784,65.0,0,30,5.0,0.0
5785,69.0,0,30,11.0,0.0
5786,38.0,34,90,9.0,0.0
5787,65.0,0,30,12.0,0.0
5788,62.0,0,30,4.0,0.0
5789,64.0,0,30,12.0,0.0
5790,69.0,0,30,5.0,0.0
5791,57.0,0,30,14.0,0.0
5792,57.0,0,30,4.0,0.0
5793,69.0,0,30,11.0,0.0
5794,38.0,34,40,9.0,0.0
5795,64.0,0,30,5.0,0.0
5796,64.0,14,30,4.0,0.0
5797,65.0,0,30,12.0,0.0
5798,65.0,0,30,5.0,0.0
5799,62.0,0,30,4.0,0.0
5800,69.0,0,30,11.0,0.0
5801,65.0,0,30,4.0,0.0
5802,69.0,0,30,5.0,0.0
5803,38.0,34,40,9.0,0.0
5804,62.0,14,30,14.0,0.0
5805,67.0,0,30,5.0,0.0
5806,69.0,0,30,11.0,0.0
5807,64.0,62,30,14.0,0.0
5808,38.0,34,90,9.0,0.0
5809,64.0,0,30,4.0,0.0
5810,69.0,0,30,5.0,0.0
5811,67.0,0,30,4.0,0.0
5812,67.0,0,30,12.0,0.0
5813,62.0,0,30,14.0,0.0
5814,65.0,0,30,4.0,0.0
5815,65.0,0,30,5.0,0.0
5816,38.0,34,40,9.0,0.0
5817,65.0,0,30,12.0,0.0
5818,62.0,0,30,4.0,0.0
5819,69.0,14,30,5.0,0.0
5820,69.0,0,30,11.0,0.0
5821,38.0,34,40,9.0,0.0
5822,64.0,0,30,5.0,0.0
5823,57.0,14,30,4.0,0.0
5824,57.0,0,30,14.0,0.0
5825,69.0,0,30,11.0,0.0
5826,69.0,0,30,5.0,0.0
5827,64.0,0,30,12.0,0.0
5828,64.0,0,30,4.0,0.0
5829,65.0,0,30,5.0,0.0
5830,69.0,0,30,11.0,0.0
5831,65.0,48,30,12.0,0.0
5832,62.0,0,30,14.0,0.0
5833,62.0,0,30,4.0,0.0
5834,65.0,0,30,4.0,0.0
5835,38.0,34,90,9.0,0.0
5836,69.0,0,30,5.0,0.0
5837,69.0,0,30,11.0,0.0
5838,64.0,0,30,12.0,0.0
5839,57.0,14,30,4.0,0.0
5840,69.0,0,30,5.0,0.0
5841,64.0,0,30,4.0,0.0
5842,57.0,0,30,14.0,0.0
5843,64.0,0,30,5.0,0.0
5844,62.0,48,30,4.0,0.0
5845,53.0,0,30,14.0,0.0
5846,69.0,0,30,11.0,0.0
5847,69.0,0,30,5.0,0.0
5848,62.0,0,30,5.0,0.0
5849,62.0,0,30,12.0,0.0
5850,53.0,0,30,4.0,0.0
5851,64.0,0,30,12.0,0.0
5852,69.0,0,30,11.0,0.0
5853,57.0,0,30,14.0,0.0
5854,64.0,0,30,5.0,0.0
5855,69.0,0,30,5.0,0.0
5856,64.0,0,30,4.0,0.0
5857,57.0,48,30,4.0,0.0
5858,62.0,0,30,4.0,0.0
5859,65.0,0,30,12.0,0.0
5860,69.0,0,30,5.0,0.0
5861,65.0,0,30,5.0,0.0
5862,69.0,96,30,11.0,0.0
5863,65.0,0,30,4.0,0.0
5864,62.0,0,30,14.0,0.0
5865,74.0,0,30,11.0,0.0
5866,67.0,62,30,12.0,0.0
5867,67.0,0,30,5.0,0.0
5868,58.0,0,30,14.0,0.0
5869,38.0,34,90,9.0,0.0
5870,67.0,0,30,4.0,0.0
5871,58.0,0,30,4.0,0.0
5872,74.0,0,30,5.0,0.0
5873,69.0,0,30,5.0,0.0
5874,65.0,0,30,5.0,0.0
5875,62.0,0,30,4.0,0.0
5876,38.0,34,90,9.0,0.0
5877,65.0,0,30,12.0,0.0
5878,69.0,62,30,11.0,0.0
5879,65.0,0,30,4.0,0.0
5880,62.0,0,30,14.0,0.0
5881,57.0,0,30,14.0,0.0
5882,69.0,0,30,5.0,0.0
5883,64.0,0,30,4.0,0.0
5884,64.0,14,30,12.0,0.0
5885,69.0,0,30,11.0,0.0
5886,57.0,0,30,4.0,0.0
5887,38.0,34,40,9.0,0.0
5888,64.0,0,30,5.0,0.0
5889,62.0,0,30,4.0,0.0
5890,69.0,0,30,5.0,0.0
5891,62.0,0,30,14.0,0.0
5892,38.0,34,40,9.0,0.0
5893,65.0,0,30,12.0,0.0
5894,65.0,0,30,5.0,0.0
5895,65.0,0,30,4.0,0.0
5896,69.0,14,30,11.0,0.0
5897,67.0,0,30,5.0,0.0
5898,64.0,0,30,5.0,0.0
5899,72.0,0,30,11.0,0.0
5900,38.0,34,90,9.0,0.0
5901,60.0,0,30,14.0,0.0
5902,67.0,0,30,4.0,0.0
5903,72.0,0,30,5.0,0.0
5904,60.0,0,30,4.0,0.0
5905,67.0,0,30,12.0,0.0
5906,64.0,62,30,12.0,0.0
5907,64.0,0,30,4.0,0.0
5908,60.0,0,30,14.0,0.0
5909,65.0,0,30,5.0,0.0
5910,62.0,0,30,5.0,0.0
5911,38.0,34,40,9.0,0.0
5912,65.0,0,30,12.0,0.0
5913,72.0,0,30,11.0,0.0
5914,62.0,0,30,12.0,0.0
5915,65.0,0,30,4.0,0.0
5916,62.0,14,30,4.0,0.0
5917,60.0,0,30,4.0,0.0
5918,72.0,0,30,5.0,0.0
5919,64.0,0,30,4.0,0.0
5920,60.0,0,30,4.0,0.0
5921,72.0,0,30,5.0,0.0
5922,72.0,0,30,11.0,0.0
5923,38.0,34,40,9.0,0.0
5924,67.0,0,30,4.0,0.0
5925,64.0,0,30,5.0,0.0
5926,67.0,0,30,5.0,0.0
5927,67.0,0,30,12.0,0.0
5928,64.0,0,30,12.0,0.0
5929,60.0,14,30,14.0,0.0
5930,38.0,34,90,9.0,0.0
5931,69.0,0,30,12.0,0.0
5932,69.0,0,30,5.0,0.0
5933,65.0,0,30,12.0,0.0
5934,53.0,0,30,14.0,0.0
5935,72.0,0,30,5.0,0.0
5936,65.0,62,30,4.0,0.0
5937,72.0,0,30,11.0,0.0
5938,65.0,0,30,5.0,0.0
5939,57.0,0,30,4.0,0.0
5940,69.0,0,30,4.0,0.0
5941,41.0,0,30,14.0,0.0
5942,77.0,48,30,11.0,0.0
5943,75.0,48,30,11.0,0.0
5944,45.0,0,30,14.0,0.0
5945,48.0,48,30,14.0,0.0
5946,72.0,0,30,11.0,0.0
5947,69.0,48,30,11.0,0.0
5948,53.0,0,30,14.0,0.0
5949,65.0,0,30,11.0,0.0
5950,57.0,48,30,14.0,0.0
5951,60.0,0,30,14.0,0.0
5952,63.0,48,30,11.0,0.0
5953,53.0,62,30,14.0,0.0
5954,65.0,0,30,11.0,0.0
5955,38.0,34,90,9.0,0.0
5956,60.0,0,30,4.0,0.0
5957,60.0,0,30,12.0,0.0
5958,53.0,0,30,4.0,0.0
5959,65.0,0,30,11.0,0.0
5960,50.0,0,30,4.0,0.0
5961,58.0,48,30,12.0,0.0
5962,58.0,0,30,4.0,0.0
5963,50.0,0,30,14.0,0.0
5964,60.0,0,30,4.0,0.0
5965,65.0,48,30,11.0,0.0
5966,53.0,0,30,14.0,0.0
5967,53.0,0,30,4.0,0.0
5968,60.0,0,30,12.0,0.0
5969,65.0,0,30,11.0,0.0
5970,38.0,34,90,9.0,0.0
5971,62.0,62,30,4.0,0.0
5972,62.0,0,30,12.0,0.0
5973,58.0,0,30,14.0,0.0
5974,58.0,0,30,4.0,0.0
5975,60.0,0,30,4.0,0.0
5976,53.0,0,30,4.0,0.0
5977,53.0,48,30,14.0,0.0
5978,65.0,0,30,11.0,0.0
5979,60.0,0,30,12.0,0.0
5980,50.0,0,30,14.0,0.0
5981,65.0,0,30,11.0,0.0
5982,58.0,0,30,12.0,0.0
5983,50.0,48,30,4.0,0.0
5984,58.0,0,30,4.0,0.0
5985,38.0,2,90,9.0,0.0
5986,53.0,0,90,4.0,0.0
5987,60.0,32,90,4.0,0.0
5988,65.0,62,30,11.0,0.0
5989,53.0,0,30,14.0,0.0
5990,60.0,0,30,12.0,0.0
5991,69.0,0,30,11.0,0.0
5992,45.0,0,30,14.0,0.0
5993,57.0,14,30,13.0,0.0
5994,38.0,34,40,9.0,0.0
5995,69.0,0,30,5.0,0.0
5996,45.0,0,30,14.0,0.0
5997,57.0,14,30,13.0,0.0
5998,69.0,0,30,5.0,0.0
5999,69.0,0,30,11.0,0.0
6000,38.0,96,40,9.0,0.0
6001,45.0,0,90,14.0,0.0
6002,57.0,32,90,13.0,0.0
6003,38.0,2,90,9.0,0.0
6004,69.0,0,90,11.0,0.0
6005,69.0,0,90,5.0,0.0
6006,70.0,0,30,5.0,0.0
6007,46.0,0,30,14.0,0.0
6008,62.0,0,30,5.0,0.0
6009,65.0,0,30,12.0,0.0
6010,38.0,34,90,9.0,0.0
6011,62.0,0,30,4.0,0.0
6012,70.0,62,30,11.0,0.0
6013,65.0,0,30,4.0,0.0
6014,58.0,0,30,13.0,0.0
6015,62.0,0,30,12.0,0.0
6016,65.0,0,30,5.0,0.0
6017,67.0,62,30,12.0,0.0
6018,63.0,0,30,4.0,0.0
6019,70.0,0,30,11.0,0.0
6020,63.0,0,30,14.0,0.0
6021,38.0,34,90,9.0,0.0
6022,67.0,0,30,4.0,0.0
6023,65.0,48,30,4.0,0.0
6024,70.0,0,30,11.0,0.0
6025,65.0,0,30,12.0,0.0
6026,58.0,0,30,14.0,0.0
6027,58.0,0,30,4.0,0.0
6028,63.0,0,30,14.0,0.0
6029,63.0,0,30,4.0,0.0
6030,67.0,48,30,12.0,0.0
6031,70.0,0,30,11.0,0.0
6032,67.0,0,30,4.0,0.0
6033,38.0,34,90,9.0,0.0
6034,70.0,0,30,11.0,0.0
6035,68.0,0,30,4.0,0.0
6036,65.0,0,30,14.0,0.0
6037,68.0,0,30,12.0,0.0
6038,65.0,62,30,4.0,0.0
6039,63.0,0,30,14.0,0.0
6040,67.0,0,30,12.0,0.0
6041,67.0,0,30,4.0,0.0
6042,70.0,0,30,11.0,0.0
6043,63.0,48,30,4.0,0.0
6044,65.0,0,30,4.0,0.0
6045,65.0,0,30,12.0,0.0
6046,58.0,0,30,4.0,0.0
6047,70.0,48,30,11.0,0.0
6048,58.0,0,30,14.0,0.0
6049,38.0,2,90,9.0,0.0
6050,67.0,62,30,12.0,0.0
6051,63.0,32,90,4.0,0.0
6052,67.0,0,90,4.0,0.0
6053,63.0,0,30,14.0,0.0
6054,70.0,0,30,11.0,0.0
6055,38.0,34,40,9.0,0.0
6056,62.0,0,30,13.0,0.0
6057,74.0,0,30,11.0,0.0
6058,62.0,0,30,14.0,0.0
6059,74.0,0,30,5.0,0.0
6060,62.0,0,30,14.0,0.0
6061,38.0,96,40,9.0,0.0
6062,74.0,0,30,11.0,0.0
6063,62.0,14,30,13.0,0.0
6064,74.0,0,30,5.0,0.0
6065,62.0,0,90,13.0,0.0
6066,38.0,2,90,9.0,0.0
6067,74.0,32,90,11.0,0.0
6068,62.0,0,90,14.0,0.0
6069,74.0,0,90,5.0,0.0
6070,72.0,0,30,5.0,0.0
6071,77.0,0,30,5.0,0.0
6072,65.0,0,30,4.0,0.0
6073,72.0,0,30,12.0,0.0
6074,65.0,0,30,14.0,0.0
6075,77.0,0,30,11.0,0.0
6076,69.0,62,30,12.0,0.0
6077,38.0,34,90,9.0,0.0
6078,69.0,0,30,5.0,0.0
6079,60.0,0,30,4.0,0.0
6080,65.0,0,30,13.0,0.0
6081,57.0,0,30,4.0,0.0
6082,70.0,0,30,13.0,0.0
6083,77.0,0,30,11.0,0.0
6084,70.0,62,30,5.0,0.0
6085,74.0,0,30,12.0,0.0
6086,62.0,0,30,4.0,0.0
6087,38.0,34,90,9.0,0.0
6088,77.0,0,30,5.0,0.0
6089,74.0,0,30,5.0,0.0
6090,58.0,0,30,4.0,0.0
6091,54.0,0,30,9.0,0.0
6092,77.0,0,30,11.0,0.0
6093,72.0,0,30,5.0,0.0
6094,72.0,0,30,12.0,0.0
6095,77.0,0,30,5.0,0.0
6096,65.0,0,30,5.0,0.0
6097,65.0,0,30,13.0,0.0
6098,38.0,34,40,9.0,0.0
6099,53.0,14,30,4.0,0.0
6100,60.0,0,30,4.0,0.0
6101,58.0,0,30,4.0,0.0
6102,77.0,0,30,11.0,0.0
6103,74.0,0,30,5.0,0.0
6104,74.0,0,30,12.0,0.0
6105,70.0,0,30,13.0,0.0
6106,38.0,34,40,9.0,0.0
6107,70.0,0,30,5.0,0.0
6108,77.0,14,30,5.0,0.0
6109,62.0,0,30,4.0,0.0
6110,75.0,0,30,12.0,0.0
6111,77.0,0,30,11.0,0.0
6112,38.0,34,90,9.0,0.0
6113,72.0,62,30,13.0,0.0
6114,75.0,0,30,5.0,0.0
6115,72.0,0,30,5.0,0.0
6116,54.0,0,30,9.0,0.0
6117,77.0,0,30,5.0,0.0
6118,60.0,0,30,4.0,0.0
6119,63.0,0,30,4.0,0.0
6120,38.0,34,40,9.0,0.0
6121,62.0,0,30,4.0,0.0
6122,58.0,0,30,4.0,0.0
6123,82.0,0,30,11.0,0.0
6124,74.0,0,30,12.0,0.0
6125,70.0,0,30,12.0,0.0
6126,70.0,0,30,5.0,0.0
6127,74.0,0,30,5.0,0.0
6128,82.0,0,30,5.0,0.0
6129,58.0,0,30,13.0,0.0
6130,38.0,34,40,9.0,0.0
6131,75.0,14,30,12.0,0.0
6132,72.0,0,30,12.0,0.0
6133,82.0,0,30,5.0,0.0
6134,72.0,0,30,5.0,0.0
6135,75.0,0,30,5.0,0.0
6136,82.0,0,30,11.0,0.0
6137,65.0,0,30,13.0,0.0
6138,60.0,0,30,4.0,0.0
6139,63.0,0,30,4.0,0.0
6140,74.0,0,30,5.0,0.0
6141,82.0,62,30,11.0,0.0
6142,74.0,0,30,12.0,0.0
6143,77.0,0,30,12.0,0.0
6144,38.0,24,90,9.0,0.0
6145,54.0,0,30,9.0,0.0
6146,65.0,0,30,4.0,0.0
6147,62.0,0,30,4.0,0.0
6148,82.0,0,30,5.0,0.0
6149,77.0,0,30,5.0,0.0
6150,70.0,0,30,13.0,0.0
6151,75.0,0,30,5.0,0.0
6152,67.0,0,30,5.0,0.0
6153,82.0,0,30,5.0,0.0
6154,55.0,0,30,14.0,0.0
6155,67.0,0,30,13.0,0.0
6156,82.0,14,30,11.0,0.0
6157,54.0,8,20,9.0,0.0
6158,55.0,0,30,4.0,0.0
6159,63.0,0,30,4.0,0.0
6160,38.0,2,30,9.0,0.0
6161,75.0,0,30,12.0,0.0
6162,54.0,16,20,9.0,0.0
6163,38.0,8,30,9.0,0.0
6164,70.0,14,30,5.0,0.0
6165,58.0,0,30,4.0,0.0
6166,77.0,0,30,5.0,0.0
6167,54.0,10,20,9.0,0.0
6168,77.0,0,30,12.0,0.0
6169,82.0,0,30,11.0,0.0
6170,70.0,0,30,13.0,0.0
6171,58.0,0,30,14.0,0.0
6172,65.0,0,30,4.0,0.0
6173,82.0,0,30,5.0,0.0
6174,38.0,34,30,9.0,0.0
6175,54.0,0,20,9.0,0.0
6176,38.0,32,90,9.0,0.0
6177,82.0,62,30,5.0,0.0
6178,63.0,0,30,4.0,0.0
6179,67.0,0,30,4.0,0.0
6180,75.0,0,30,5.0,0.0
6181,79.0,0,30,5.0,0.0
6182,63.0,0,30,14.0,0.0
6183,54.0,0,30,9.0,0.0
6184,79.0,0,30,12.0,0.0
6185,82.0,0,30,11.0,0.0
6186,75.0,0,30,13.0,0.0
6187,60.0,0,30,5.0,0.0
6188,75.0,0,30,12.0,0.0
6189,84.0,0,30,12.0,0.0
6190,87.0,0,30,11.0,0.0
6191,48.0,0,30,14.0,0.0
6192,54.0,0,30,9.0,0.0
6193,72.0,0,30,4.0,0.0
6194,75.0,0,30,5.0,0.0
6195,60.0,30,30,13.0,0.0
6196,63.0,0,30,4.0,0.0
6197,48.0,0,30,4.0,0.0
6198,38.0,2,30,9.0,0.0
6199,38.0,18,30,9.0,0.0
6200,55.0,0,30,14.0,0.0
6201,55.0,0,30,4.0,0.0
6202,87.0,0,30,11.0,0.0
6203,84.0,0,30,12.0,0.0
6204,67.0,0,30,5.0,0.0
6205,63.0,0,30,4.0,0.0
6206,72.0,0,30,4.0,0.0
6207,67.0,0,30,13.0,0.0
6208,75.0,0,30,5.0,0.0
6209,75.0,0,30,12.0,0.0
6210,38.0,34,30,9.0,0.0
6211,72.0,0,30,13.0,0.0
6212,72.0,0,30,4.0,0.0
6213,84.0,0,30,12.0,0.0
6214,60.0,0,30,4.0,0.0
6215,54.0,0,30,9.0,0.0
6216,75.0,0,30,12.0,0.0
6217,75.0,0,30,5.0,0.0
6218,72.0,62,30,5.0,0.0
6219,60.0,0,30,14.0,0.0
6220,63.0,0,30,4.0,0.0
6221,87.0,0,30,11.0,0.0
6222,38.0,24,90,9.0,0.0
6223,72.0,0,30,5.0,0.0
6224,84.0,0,30,11.0,0.0
6225,69.0,0,30,5.0,0.0
6226,53.0,0,30,13.0,0.0
6227,60.0,0,30,4.0,0.0
6228,69.0,0,30,4.0,0.0
6229,81.0,14,30,12.0,0.0
6230,41.0,0,30,14.0,0.0
6231,72.0,0,30,12.0,0.0
6232,81.0,0,30,5.0,0.0
6233,38.0,2,30,9.0,0.0
6234,54.0,8,20,9.0,0.0
6235,54.0,16,20,9.0,0.0
6236,38.0,8,30,9.0,0.0
6237,60.0,0,30,13.0,0.0
6238,48.0,0,30,14.0,0.0
6239,81.0,0,30,5.0,0.0
6240,69.0,0,30,4.0,0.0
6241,81.0,14,30,12.0,0.0
6242,60.0,0,30,4.0,0.0
6243,54.0,10,20,9.0,0.0
6244,84.0,0,30,11.0,0.0
6245,69.0,0,30,5.0,0.0
6246,72.0,0,30,5.0,0.0
6247,72.0,0,30,12.0,0.0
6248,38.0,0,30,9.0,0.0
6249,54.0,34,20,9.0,0.0
6250,81.0,0,30,12.0,0.0
6251,53.0,0,30,14.0,0.0
6252,60.0,0,30,4.0,0.0
6253,69.0,62,30,4.0,0.0
6254,72.0,0,30,12.0,0.0
6255,81.0,0,30,5.0,0.0
6256,65.0,0,30,13.0,0.0
6257,84.0,0,30,11.0,0.0
6258,54.0,0,30,9.0,0.0
6259,72.0,0,30,5.0,0.0
6260,38.0,24,90,9.0,0.0
6261,54.0,8,20,9.0,0.0
6262,86.0,0,30,11.0,0.0
6263,74.0,0,30,12.0,0.0
6264,38.0,2,30,9.0,0.0
6265,58.0,0,30,13.0,0.0
6266,82.0,0,30,12.0,0.0
6267,82.0,0,30,5.0,0.0
6268,74.0,0,30,5.0,0.0
6269,34.0,0,30,14.0,0.0
6270,62.0,0,30,4.0,0.0
6271,70.0,0,30,4.0,0.0
6272,70.0,0,30,5.0,0.0
6273,54.0,16,20,9.0,0.0
6274,38.0,8,30,9.0,0.0
6275,82.0,14,30,12.0,0.0
6276,86.0,0,30,11.0,0.0
6277,74.0,0,30,12.0,0.0
6278,70.0,0,30,4.0,0.0
6279,62.0,0,30,4.0,0.0
6280,74.0,0,30,5.0,0.0
6281,70.0,0,30,5.0,0.0
6282,54.0,10,20,9.0,0.0
6283,82.0,0,30,5.0,0.0
6284,41.0,0,30,14.0,0.0
6285,65.0,0,30,13.0,0.0
6286,38.0,34,30,9.0,0.0
6287,54.0,0,20,9.0,0.0
6288,86.0,0,30,11.0,0.0
6289,62.0,0,30,4.0,0.0
6290,70.0,0,30,4.0,0.0
6291,49.0,32,330,9.0,0.0
6292,46.0,0,30,14.0,0.0
6293,54.0,0,30,9.0,0.0
6294,70.0,0,30,13.0,0.0
6295,70.0,0,30,5.0,0.0
6296,82.0,0,30,12.0,0.0
6297,74.0,0,30,12.0,0.0
6298,38.0,34,90,9.0,0.0
6299,74.0,0,30,5.0,0.0
6300,82.0,0,30,5.0,0.0
6301,82.0,0,30,11.0,0.0
6302,38.0,48,30,14.0,0.0
6303,77.0,48,30,11.0,0.0
6304,41.0,0,30,14.0,0.0
6305,74.0,0,30,11.0,0.0
6306,46.0,48,30,14.0,0.0
6307,50.0,0,30,14.0,0.0
6308,70.0,48,30,11.0,0.0
6309,53.0,0,30,14.0,0.0
6310,65.0,16,30,11.0,0.0
6311,62.0,0,30,11.0,0.0
6312,58.0,48,30,14.0,0.0
6313,53.0,0,30,14.0,0.0
6314,65.0,0,30,11.0,0.0
6315,60.0,62,30,4.0,0.0
6316,60.0,0,30,12.0,0.0
6317,38.0,34,90,9.0,0.0
6318,53.0,0,30,4.0,0.0
6319,50.0,0,30,14.0,0.0
6320,65.0,0,30,11.0,0.0
6321,58.0,48,30,12.0,0.0
6322,50.0,0,30,4.0,0.0
6323,58.0,0,30,4.0,0.0
6324,60.0,0,30,4.0,0.0
6325,60.0,0,30,12.0,0.0
6326,53.0,0,30,4.0,0.0
6327,65.0,0,30,11.0,0.0
6328,53.0,48,30,14.0,0.0
6329,38.0,34,90,9.0,0.0
6330,62.0,62,30,12.0,0.0
6331,65.0,0,30,11.0,0.0
6332,58.0,0,30,14.0,0.0
6333,58.0,0,30,4.0,0.0
6334,62.0,0,30,4.0,0.0
6335,60.0,0,30,12.0,0.0
6336,53.0,0,30,14.0,0.0
6337,65.0,0,30,11.0,0.0
6338,60.0,48,30,4.0,0.0
6339,53.0,0,30,4.0,0.0
6340,58.0,0,30,12.0,0.0
6341,65.0,0,30,11.0,0.0
6342,50.0,0,30,4.0,0.0
6343,50.0,48,30,14.0,0.0
6344,58.0,0,30,4.0,0.0
6345,53.0,32,90,4.0,0.0
6346,53.0,0,30,14.0,0.0
6347,38.0,2,90,9.0,0.0
6348,60.0,0,30,12.0,0.0
6349,60.0,0,90,4.0,0.0
6350,65.0,62,30,11.0,0.0
6351,69.0,14,30,11.0,0.0
6352,45.0,0,30,14.0,0.0
6353,69.0,0,30,5.0,0.0
6354,38.0,34,40,9.0,0.0
6355,57.0,0,30,13.0,0.0
6356,57.0,14,30,13.0,0.0
6357,45.0,0,30,14.0,0.0
6358,69.0,0,30,5.0,0.0
6359,69.0,0,30,11.0,0.0
6360,38.0,96,40,9.0,0.0
6361,69.0,0,90,11.0,0.0
6362,38.0,2,90,9.0,0.0
6363,57.0,0,90,13.0,0.0
6364,69.0,0,90,5.0,0.0
6365,45.0,0,90,14.0,0.0
6366,65.0,0,30,5.0,0.0
6367,62.0,0,30,12.0,0.0
6368,65.0,0,30,12.0,0.0
6369,70.0,0,30,5.0,0.0
6370,58.0,0,30,13.0,0.0
6371,62.0,0,30,4.0,0.0
6372,70.0,0,30,11.0,0.0
6373,46.0,0,30,14.0,0.0
6374,38.0,34,90,9.0,0.0
6375,62.0,0,30,5.0,0.0
6376,65.0,0,30,4.0,0.0
6377,63.0,0,30,4.0,0.0
6378,67.0,0,30,12.0,0.0
6379,67.0,0,30,4.0,0.0
6380,63.0,0,30,14.0,0.0
6381,70.0,62,30,11.0,0.0
6382,38.0,34,90,9.0,0.0
6383,70.0,0,30,11.0,0.0
6384,65.0,48,30,12.0,0.0
6385,58.0,0,30,14.0,0.0
6386,58.0,0,30,4.0,0.0
6387,65.0,0,30,4.0,0.0
6388,63.0,0,30,14.0,0.0
6389,63.0,0,30,4.0,0.0
6390,67.0,0,30,4.0,0.0
6391,67.0,0,30,12.0,0.0
6392,70.0,48,30,11.0,0.0
6393,68.0,62,30,12.0,0.0
6394,38.0,34,90,9.0,0.0
6395,65.0,0,30,14.0,0.0
6396,68.0,0,30,4.0,0.0
6397,70.0,0,30,11.0,0.0
6398,65.0,0,30,4.0,0.0
6399,63.0,0,30,4.0,0.0
6400,63.0,0,30,14.0,0.0
6401,70.0,48,30,11.0,0.0
6402,67.0,0,30,4.0,0.0
6403,67.0,0,30,12.0,0.0
6404,58.0,0,30,4.0,0.0
6405,58.0,48,30,14.0,0.0
6406,65.0,0,30,12.0,0.0
6407,65.0,0,30,4.0,0.0
6408,70.0,0,30,11.0,0.0
6409,38.0,2,90,9.0,0.0
6410,67.0,0,90,4.0,0.0
6411,63.0,32,90,4.0,0.0
6412,70.0,62,30,11.0,0.0
6413,63.0,0,30,14.0,0.0
6414,67.0,0,30,12.0,0.0
6415,38.0,34,40,9.0,0.0
6416,62.0,0,30,14.0,0.0
6417,74.0,0,30,11.0,0.0
6418,74.0,0,30,5.0,0.0
6419,62.0,14,30,13.0,0.0
6420,62.0,0,30,14.0,0.0
6421,38.0,96,40,9.0,0.0
6422,74.0,0,30,5.0,0.0
6423,62.0,0,30,13.0,0.0
6424,74.0,0,30,11.0,0.0
6425,38.0,2,90,9.0,0.0
6426,62.0,0,90,14.0,0.0
6427,74.0,0,90,11.0,0.0
6428,62.0,32,90,13.0,0.0
6429,74.0,0,90,5.0,0.0
6430,60.0,0,30,4.0,0.0
6431,57.0,0,30,4.0,0.0
6432,77.0,0,30,5.0,0.0
6433,72.0,0,30,5.0,0.0
6434,69.0,0,30,5.0,0.0
6435,65.0,0,30,14.0,0.0
6436,38.0,34,90,9.0,0.0
6437,77.0,0,30,11.0,0.0
6438,65.0,0,30,13.0,0.0
6439,72.0,0,30,12.0,0.0
6440,65.0,62,30,4.0,0.0
6441,69.0,0,30,12.0,0.0
6442,70.0,0,30,13.0,0.0
6443,77.0,0,30,5.0,0.0
6444,74.0,0,30,12.0,0.0
6445,74.0,0,30,5.0,0.0
6446,70.0,0,30,5.0,0.0
6447,77.0,0,30,11.0,0.0
6448,62.0,0,30,4.0,0.0
6449,54.0,0,30,9.0,0.0
6450,58.0,0,30,4.0,0.0
6451,38.0,34,90,9.0,0.0
6452,65.0,0,30,5.0,0.0
6453,72.0,14,30,5.0,0.0
6454,72.0,0,30,12.0,0.0
6455,60.0,0,30,4.0,0.0
6456,77.0,0,30,5.0,0.0
6457,65.0,0,30,13.0,0.0
6458,38.0,34,40,9.0,0.0
6459,77.0,0,30,11.0,0.0
6460,53.0,0,30,4.0,0.0
6461,77.0,0,30,5.0,0.0
6462,38.0,34,40,9.0,0.0
6463,74.0,0,30,5.0,0.0
6464,70.0,0,30,13.0,0.0
6465,70.0,0,30,5.0,0.0
6466,77.0,0,30,11.0,0.0
6467,62.0,0,30,4.0,0.0
6468,58.0,0,30,4.0,0.0
6469,74.0,14,30,12.0,0.0
6470,75.0,0,30,12.0,0.0
6471,72.0,0,30,13.0,0.0
6472,77.0,0,30,11.0,0.0
6473,60.0,0,30,4.0,0.0
6474,38.0,34,90,9.0,0.0
6475,63.0,0,30,4.0,0.0
6476,75.0,0,30,5.0,0.0
6477,54.0,0,30,9.0,0.0
6478,77.0,62,30,5.0,0.0
6479,72.0,0,30,5.0,0.0
6480,70.0,0,30,5.0,0.0
6481,58.0,0,30,13.0,0.0
6482,82.0,0,30,5.0,0.0
6483,58.0,0,30,4.0,0.0
6484,38.0,34,40,9.0,0.0
6485,82.0,0,30,11.0,0.0
6486,74.0,0,30,5.0,0.0
6487,70.0,0,30,12.0,0.0
6488,74.0,14,30,12.0,0.0
6489,62.0,0,30,4.0,0.0
6490,82.0,0,30,11.0,0.0
6491,75.0,0,30,12.0,0.0
6492,63.0,0,30,4.0,0.0
6493,60.0,0,30,4.0,0.0
6494,65.0,0,30,13.0,0.0
6495,82.0,14,30,5.0,0.0
6496,72.0,0,30,12.0,0.0
6497,75.0,0,30,5.0,0.0
6498,72.0,0,30,5.0,0.0
6499,38.0,34,40,9.0,0.0
6500,82.0,0,30,5.0,0.0
6501,77.0,0,30,12.0,0.0
6502,38.0,24,90,9.0,0.0
6503,54.0,62,30,9.0,0.0
6504,82.0,0,30,11.0,0.0
6505,77.0,0,30,5.0,0.0
6506,74.0,0,30,5.0,0.0
6507,62.0,0,30,4.0,0.0
6508,74.0,0,30,12.0,0.0
6509,65.0,0,30,4.0,0.0
6510,70.0,0,30,13.0,0.0
6511,82.0,0,30,11.0,0.0
6512,38.0,2,30,9.0,0.0
6513,63.0,0,30,4.0,0.0
6514,75.0,0,30,12.0,0.0
6515,82.0,0,30,5.0,0.0
6516,75.0,14,30,5.0,0.0
6517,67.0,0,30,13.0,0.0
6518,67.0,0,30,5.0,0.0
6519,55.0,0,30,4.0,0.0
6520,54.0,8,20,9.0,0.0
6521,55.0,0,30,14.0,0.0
6522,54.0,16,20,9.0,0.0
6523,38.0,8,30,9.0,0.0
6524,54.0,10,20,9.0,0.0
6525,58.0,0,30,4.0,0.0
6526,58.0,0,30,14.0,0.0
6527,70.0,0,30,13.0,0.0
6528,70.0,0,30,5.0,0.0
6529,77.0,14,30,12.0,0.0
6530,77.0,0,30,5.0,0.0
6531,65.0,0,30,4.0,0.0
6532,82.0,0,30,5.0,0.0
6533,82.0,0,30,11.0,0.0
6534,38.0,34,30,9.0,0.0
6535,54.0,0,20,9.0,0.0
6536,82.0,62,30,5.0,0.0
6537,63.0,0,30,14.0,0.0
6538,38.0,32,90,9.0,0.0
6539,79.0,0,30,5.0,0.0
6540,75.0,0,30,5.0,0.0
6541,79.0,0,30,12.0,0.0
6542,63.0,0,30,4.0,0.0
6543,82.0,0,30,11.0,0.0
6544,67.0,0,30,4.0,0.0
6545,54.0,0,30,9.0,0.0
6546,75.0,0,30,13.0,0.0
6547,60.0,0,30,5.0,0.0
6548,87.0,0,30,11.0,0.0
6549,38.0,2,30,9.0,0.0
6550,60.0,0,30,13.0,0.0
6551,48.0,0,30,4.0,0.0
6552,75.0,0,30,12.0,0.0
6553,75.0,0,30,5.0,0.0
6554,48.0,0,30,14.0,0.0
6555,72.0,0,30,4.0,0.0
6556,54.0,0,30,9.0,0.0
6557,84.0,30,30,12.0,0.0
6558,63.0,0,30,4.0,0.0
6559,38.0,18,30,9.0,0.0
6560,72.0,0,30,4.0,0.0
6561,67.0,0,30,13.0,0.0
6562,87.0,0,30,11.0,0.0
6563,55.0,0,30,14.0,0.0
6564,84.0,0,30,12.0,0.0
6565,55.0,0,30,4.0,0.0
6566,63.0,0,30,4.0,0.0
6567,67.0,14,30,5.0,0.0
6568,75.0,0,30,12.0,0.0
6569,75.0,0,30,5.0,0.0
6570,38.0,34,30,9.0,0.0
6571,38.0,24,90,9.0,0.0
6572,54.0,0,30,9.0,0.0
6573,72.0,0,30,5.0,0.0
6574,84.0,0,30,12.0,0.0
6575,72.0,0,30,4.0,0.0
6576,87.0,0,30,11.0,0.0
6577,60.0,0,30,14.0,0.0
6578,75.0,0,30,5.0,0.0
6579,63.0,0,30,4.0,0.0
6580,60.0,0,30,4.0,0.0
6581,75.0,62,30,12.0,0.0
6582,72.0,0,30,13.0,0.0
6583,38.0,2,30,9.0,0.0
6584,41.0,0,30,14.0,0.0
6585,84.0,0,30,11.0,0.0
6586,53.0,0,30,13.0,0.0
6587,81.0,0,30,12.0,0.0
6588,72.0,0,30,5.0,0.0
6589,69.0,14,30,5.0,0.0
6590,60.0,0,30,4.0,0.0
6591,72.0,0,30,12.0,0.0
6592,54.0,8,20,9.0,0.0
6593,81.0,0,30,5.0,0.0
6594,69.0,0,30,4.0,0.0
6595,54.0,16,20,9.0,0.0
6596,38.0,8,30,9.0,0.0
6597,48.0,0,30,14.0,0.0
6598,81.0,0,30,12.0,0.0
6599,72.0,0,30,12.0,0.0
6600,54.0,10,20,9.0,0.0
6601,84.0,0,30,11.0,0.0
6602,81.0,14,30,5.0,0.0
6603,60.0,0,30,4.0,0.0
6604,69.0,0,30,4.0,0.0
6605,72.0,0,30,5.0,0.0
6606,69.0,0,30,5.0,0.0
6607,60.0,0,30,13.0,0.0
6608,38.0,34,30,9.0,0.0
6609,54.0,0,20,9.0,0.0
6610,54.0,0,30,9.0,0.0
6611,81.0,0,30,12.0,0.0
6612,72.0,0,30,12.0,0.0
6613,53.0,0,30,14.0,0.0
6614,69.0,0,30,4.0,0.0
6615,65.0,62,30,13.0,0.0
6616,72.0,0,30,5.0,0.0
6617,84.0,0,30,11.0,0.0
6618,81.0,0,30,5.0,0.0
6619,60.0,0,30,4.0,0.0
6620,38.0,24,90,9.0,0.0
6621,74.0,0,30,12.0,0.0
6622,70.0,0,30,5.0,0.0
6623,38.0,2,30,9.0,0.0
6624,58.0,0,30,13.0,0.0
6625,82.0,0,30,12.0,0.0
6626,34.0,0,30,14.0,0.0
6627,74.0,14,30,5.0,0.0
6628,70.0,0,30,4.0,0.0
6629,82.0,0,30,5.0,0.0
6630,86.0,0,30,11.0,0.0
6631,54.0,8,20,9.0,0.0
6632,62.0,0,30,4.0,0.0
6633,54.0,16,20,9.0,0.0
6634,38.0,8,30,9.0,0.0
6635,82.0,0,30,12.0,0.0
6636,54.0,10,20,9.0,0.0
6637,41.0,0,30,14.0,0.0
6638,65.0,0,30,13.0,0.0
6639,70.0,0,30,4.0,0.0
6640,70.0,0,30,5.0,0.0
6641,74.0,0,30,5.0,0.0
6642,82.0,0,30,5.0,0.0
6643,62.0,0,30,4.0,0.0
6644,74.0,0,30,12.0,0.0
6645,86.0,14,30,11.0,0.0
6646,38.0,34,30,9.0,0.0
6647,54.0,0,20,9.0,0.0
6648,70.0,0,30,5.0,0.0
6649,49.0,32,330,9.0,0.0
6650,70.0,0,30,13.0,0.0
6651,38.0,34,90,9.0,0.0
6652,86.0,0,30,11.0,0.0
6653,82.0,0,30,5.0,0.0
6654,74.0,0,30,5.0,0.0
6655,62.0,0,30,4.0,0.0
6656,70.0,0,30,4.0,0.0
6657,82.0,0,30,12.0,0.0
6658,46.0,0,30,14.0,0.0
6659,54.0,0,30,9.0,0.0
6660,74.0,62,30,12.0,0.0
6661,38.0,48,30,14.0,0.0
6662,82.0,0,30,11.0,0.0
6663,77.0,0,30,11.0,0.0
6664,41.0,48,30,14.0,0.0
6665,74.0,48,30,11.0,0.0
6666,46.0,0,30,14.0,0.0
6667,50.0,0,30,14.0,0.0
6668,70.0,48,30,11.0,0.0
6669,53.0,0,30,14.0,0.0
6670,65.0,16,30,11.0,0.0
6671,58.0,110,30,14.0,0.0
6672,62.0,0,30,11.0,0.0
6673,58.0,0,90,14.0,0.0
6674,38.0,2,90,9.0,0.0
6675,58.0,0,90,11.0,0.0
6676,70.0,34,90,0.0,0.0
6677,62.0,34,40,1.0,0.0
6678,38.0,0,30,9.0,0.0
6679,58.0,32,15,13.0,0.0
6680,65.0,0,40,1.0,0.0
6681,38.0,14,30,9.0,0.0
6682,58.0,0,30,13.0,0.0
6683,58.0,14,30,13.0,0.0
6684,72.0,16,150,0.0,0.0
6685,69.0,48,40,1.0,0.0
6686,38.0,0,30,9.0,0.0
6687,67.0,34,40,1.0,0.0
6688,38.0,0,30,9.0,0.0
6689,58.0,14,30,13.0,0.0
6690,65.0,18,40,1.0,0.0
6691,63.0,34,40,1.0,0.0
6692,38.0,0,30,9.0,0.0
6693,58.0,14,30,13.0,0.0
6694,58.0,0,30,13.0,0.0
6695,38.0,14,30,9.0,0.0
6696,62.0,48,40,1.0,0.0
6697,65.0,34,40,1.0,0.0
6698,58.0,0,30,13.0,0.0
6699,38.0,14,30,9.0,0.0
6700,74.0,34,90,0.0,0.0
6701,70.0,34,40,1.0,0.0
6702,38.0,0,30,9.0,0.0
6703,58.0,14,30,13.0,0.0
6704,70.0,0,40,1.0,0.0
6705,58.0,0,30,13.0,0.0
6706,38.0,14,30,9.0,0.0
6707,79.0,16,150,0.0,0.0
6708,75.0,48,40,1.0,0.0
6709,74.0,34,40,1.0,0.0
6710,58.0,0,30,13.0,0.0
6711,38.0,14,30,9.0,0.0
6712,72.0,18,40,1.0,0.0
6713,70.0,34,40,1.0,0.0
6714,38.0,14,30,9.0,0.0
6715,58.0,0,30,13.0,0.0
6716,38.0,0,30,9.0,0.0
6717,58.0,14,30,13.0,0.0
6718,69.0,48,40,1.0,0.0
6719,72.0,34,40,1.0,0.0
6720,38.0,0,30,9.0,0.0
6721,58.0,14,30,13.0,0.0
6722,77.0,34,90,0.0,0.0
6723,75.0,34,40,1.0,0.0
6724,75.0,0,40,1.0,0.0
6725,58.0,14,30,13.0,0.0
6726,38.0,0,30,9.0,0.0
6727,38.0,0,30,9.0,0.0
6728,84.0,16,150,0.0,0.0
6729,58.0,14,30,13.0,0.0
6730,81.0,48,40,1.0,0.0
6731,79.0,34,40,1.0,0.0
6732,77.0,18,40,1.0,0.0
6733,58.0,14,30,13.0,0.0
6734,38.0,0,30,9.0,0.0
6735,75.0,34,40,1.0,0.0
6736,58.0,0,30,13.0,0.0
6737,38.0,14,30,9.0,0.0
6738,58.0,14,30,13.0,0.0
6739,74.0,0,40,1.0,0.0
6740,38.0,0,30,9.0,0.0
6741,82.0,48,40,0.0,0.0
6742,75.0,0,40,1.0,0.0
6743,79.0,34,40,0.0,0.0
6744,38.0,14,30,9.0,0.0
6745,72.0,0,40,1.0,0.0
6746,81.0,34,40,0.0,0.0
6747,58.0,0,30,13.0,0.0
6748,74.0,0,40,1.0,0.0
6749,58.0,14,30,13.0,0.0
6750,77.0,34,40,0.0,0.0
6751,38.0,0,30,9.0,0.0
6752,70.0,0,40,1.0,0.0
6753,38.0,14,30,9.0,0.0
6754,58.0,0,30,13.0,0.0
6755,79.0,48,40,0.0,0.0
6756,72.0,34,40,1.0,0.0
6757,75.0,0,40,0.0,0.0
6758,58.0,0,30,13.0,0.0
6759,69.0,34,90,1.0,0.0
6760,77.0,34,40,0.0,0.0
6761,38.0,14,30,9.0,0.0
6762,72.0,0,40,0.0,0.0
6763,38.0,14,30,9.0,0.0
6764,58.0,0,30,13.0,0.0
6765,38.0,96,30,9.0,0.0
6766,58.0,0,30,13.0,0.0
6767,70.0,0,90,2.0,0.0
6768,38.0,0,30,9.0,0.0
6769,58.0,14,30,13.0,0.0
6770,74.0,34,40,0.0,0.0
6771,77.0,34,40,0.0,0.0
6772,38.0,0,30,9.0,0.0
6773,58.0,14,30,13.0,0.0
6774,81.0,48,40,0.0,0.0
6775,72.0,16,150,2.0,0.0
6776,38.0,0,30,9.0,0.0
6777,58.0,14,30,13.0,0.0
6778,79.0,34,40,0.0,0.0
6779,38.0,14,30,9.0,0.0
6780,58.0,0,30,13.0,0.0
6781,77.0,18,40,0.0,0.0
6782,75.0,34,40,0.0,0.0
6783,58.0,14,30,13.0,0.0
6784,38.0,0,30,9.0,0.0
6785,74.0,48,40,0.0,0.0
6786,38.0,14,30,9.0,0.0
6787,58.0,0,30,13.0,0.0
6788,77.0,34,40,0.0,0.0
6789,82.0,34,40,0.0,0.0
6790,38.0,14,30,9.0,0.0
6791,58.0,0,30,13.0,0.0
6792,74.0,34,90,2.0,0.0
6793,38.0,0,30,9.0,0.0
6794,82.0,0,40,0.0,0.0
6795,58.0,14,30,13.0,0.0
6796,79.0,16,150,2.0,0.0
6797,38.0,0,30,9.0,0.0
6798,58.0,14,30,13.0,0.0
6799,87.0,48,40,0.0,0.0
6800,86.0,34,40,0.0,0.0
6801,38.0,0,30,9.0,0.0
6802,58.0,14,30,13.0,0.0
6803,84.0,18,40,0.0,0.0
6804,58.0,0,30,13.0,0.0
6805,38.0,14,30,9.0,0.0
6806,82.0,34,40,0.0,0.0
6807,81.0,48,40,0.0,0.0
6808,58.0,0,30,13.0,0.0
6809,38.0,14,30,9.0,0.0
6810,84.0,34,40,0.0,0.0
6811,77.0,0,90,2.0,0.0
6812,87.0,34,40,0.0,0.0
6813,58.0,0,30,13.0,0.0
6814,38.0,14,30,9.0,0.0
6815,87.0,34,40,0.0,0.0
6816,38.0,14,30,9.0,0.0
6817,58.0,0,30,13.0,0.0
6818,58.0,0,30,13.0,0.0
6819,38.0,14,30,9.0,0.0
6820,84.0,16,150,2.0,0.0
6821,93.0,48,40,0.0,0.0
6822,91.0,34,40,0.0,0.0
6823,89.0,18,40,0.0,0.0
6824,38.0,0,30,9.0,0.0
6825,58.0,14,30,13.0,0.0
6826,38.0,14,30,9.0,0.0
6827,87.0,34,40,0.0,0.0
6828,58.0,0,30,13.0,0.0
6829,58.0,0,30,13.0,0.0
6830,82.0,0,40,2.0,0.0
6831,86.0,48,40,0.0,0.0
6832,38.0,14,30,9.0,0.0
6833,79.0,0,40,2.0,0.0
6834,87.0,34,40,0.0,0.0
6835,81.0,34,40,2.0,0.0
6836,84.0,0,40,0.0,0.0
6837,38.0,0,30,9.0,0.0
6838,58.0,14,30,13.0,0.0
6839,38.0,0,30,9.0,0.0
6840,77.0,34,40,2.0,0.0
6841,86.0,0,40,0.0,0.0
6842,58.0,14,30,13.0,0.0
6843,38.0,0,30,9.0,0.0
6844,82.0,0,40,0.0,0.0
6845,58.0,14,30,13.0,0.0
6846,79.0,48,40,2.0,0.0
6847,76.0,0,40,2.0,0.0
6848,84.0,34,40,0.0,0.0
6849,77.0,34,90,2.0,0.0
6850,38.0,48,30,9.0,0.0
6851,77.0,0,90,0.0,0.0
6852,53.0,0,30,13.0,0.0
6853,53.0,0,30,13.0,0.0
6854,38.0,14,30,9.0,0.0
6855,53.0,0,30,13.0,0.0
6856,38.0,96,30,9.0,0.0
6857,58.0,14,30,13.0,0.0
6858,70.0,34,90,0.0,0.0
6859,38.0,0,30,9.0,0.0
6860,62.0,34,40,1.0,0.0
6861,38.0,0,30,9.0,0.0
6862,58.0,14,30,13.0,0.0
6863,65.0,0,40,1.0,0.0
6864,58.0,0,30,13.0,0.0
6865,69.0,48,40,1.0,0.0
6866,38.0,14,30,9.0,0.0
6867,72.0,16,150,0.0,0.0
6868,67.0,34,40,1.0,0.0
6869,58.0,0,30,13.0,0.0
6870,65.0,18,40,1.0,0.0
6871,38.0,14,30,9.0,0.0
6872,58.0,14,30,13.0,0.0
6873,38.0,0,30,9.0,0.0
6874,63.0,34,40,1.0,0.0
6875,62.0,48,40,1.0,0.0
6876,58.0,0,30,13.0,0.0
6877,38.0,14,30,9.0,0.0
6878,65.0,34,40,1.0,0.0
6879,38.0,14,30,9.0,0.0
6880,74.0,34,90,0.0,0.0
6881,70.0,34,40,1.0,0.0
6882,58.0,0,30,13.0,0.0
6883,58.0,0,30,13.0,0.0
6884,38.0,14,30,9.0,0.0
6885,70.0,0,40,1.0,0.0
6886,79.0,16,150,0.0,0.0
6887,58.0,0,30,13.0,0.0
6888,38.0,14,30,9.0,0.0
6889,75.0,48,40,1.0,0.0
6890,74.0,34,40,1.0,0.0
6891,58.0,14,30,13.0,0.0
6892,38.0,0,30,9.0,0.0
6893,72.0,18,40,1.0,0.0
6894,38.0,0,30,9.0,0.0
6895,70.0,34,40,1.0,0.0
6896,58.0,14,30,13.0,0.0
6897,69.0,48,40,1.0,0.0
6898,58.0,14,30,13.0,0.0
6899,38.0,0,30,9.0,0.0
6900,72.0,34,40,1.0,0.0
6901,58.0,0,30,13.0,0.0
6902,75.0,34,40,1.0,0.0
6903,77.0,0,90,0.0,0.0
6904,38.0,14,30,9.0,0.0
6905,75.0,34,40,1.0,0.0
6906,58.0,0,30,13.0,0.0
6907,38.0,14,30,9.0,0.0
6908,81.0,48,40,1.0,0.0
6909,58.0,0,30,13.0,0.0
6910,84.0,16,150,0.0,0.0
6911,38.0,14,30,9.0,0.0
6912,79.0,34,40,1.0,0.0
6913,58.0,14,30,13.0,0.0
6914,77.0,18,40,1.0,0.0
6915,38.0,0,30,9.0,0.0
6916,58.0,14,30,13.0,0.0
6917,38.0,0,30,9.0,0.0
6918,75.0,34,40,1.0,0.0
6919,38.0,0,30,9.0,0.0
6920,58.0,14,30,13.0,0.0
6921,82.0,0,40,0.0,0.0
6922,74.0,48,40,1.0,0.0
6923,79.0,34,40,0.0,0.0
6924,75.0,0,40,1.0,0.0
6925,58.0,14,30,13.0,0.0
6926,81.0,34,40,0.0,0.0
6927,38.0,0,30,9.0,0.0
6928,72.0,0,40,1.0,0.0
6929,74.0,34,40,1.0,0.0
6930,38.0,14,30,9.0,0.0
6931,58.0,0,30,13.0,0.0
6932,77.0,0,40,0.0,0.0
6933,70.0,0,40,1.0,0.0
6934,58.0,0,30,13.0,0.0
6935,38.0,14,30,9.0,0.0
6936,79.0,48,40,0.0,0.0
6937,75.0,0,40,0.0,0.0
6938,72.0,34,40,1.0,0.0
6939,38.0,14,30,9.0,0.0
6940,69.0,0,90,1.0,0.0
6941,58.0,0,30,13.0,0.0
6942,77.0,34,40,0.0,0.0
6943,38.0,14,30,9.0,0.0
6944,58.0,0,30,13.0,0.0
6945,72.0,34,40,0.0,0.0
6946,58.0,0,30,13.0,0.0
6947,38.0,96,30,9.0,0.0
6948,70.0,34,90,2.0,0.0
6949,38.0,0,30,9.0,0.0
6950,58.0,14,30,13.0,0.0
6951,74.0,34,40,0.0,0.0
6952,77.0,0,40,0.0,0.0
6953,38.0,14,30,9.0,0.0
6954,58.0,0,30,13.0,0.0
6955,58.0,0,30,13.0,0.0
6956,38.0,14,30,9.0,0.0
6957,72.0,16,150,2.0,0.0
6958,81.0,48,40,0.0,0.0
6959,79.0,34,40,0.0,0.0
6960,58.0,14,30,13.0,0.0
6961,38.0,0,30,9.0,0.0
6962,77.0,18,40,0.0,0.0
6963,75.0,34,40,0.0,0.0
6964,58.0,0,30,13.0,0.0
6965,38.0,14,30,9.0,0.0
6966,38.0,0,30,9.0,0.0
6967,58.0,14,30,13.0,0.0
6968,74.0,48,40,0.0,0.0
6969,77.0,34,40,0.0,0.0
6970,58.0,0,30,13.0,0.0
6971,74.0,0,90,2.0,0.0
6972,38.0,14,30,9.0,0.0
6973,82.0,34,40,0.0,0.0
6974,58.0,14,30,13.0,0.0
6975,38.0,0,30,9.0,0.0
6976,82.0,34,40,0.0,0.0
6977,38.0,0,30,9.0,0.0
6978,87.0,48,40,0.0,0.0
6979,79.0,16,150,2.0,0.0
6980,58.0,14,30,13.0,0.0
6981,86.0,34,40,0.0,0.0
6982,58.0,14,30,13.0,0.0
6983,84.0,18,40,0.0,0.0
6984,38.0,0,30,9.0,0.0
6985,82.0,34,40,0.0,0.0
6986,58.0,14,30,13.0,0.0
6987,38.0,0,30,9.0,0.0
6988,81.0,48,40,0.0,0.0
6989,38.0,14,30,9.0,0.0
6990,58.0,0,30,13.0,0.0
6991,84.0,34,40,0.0,0.0
6992,58.0,0,30,13.0,0.0
6993,77.0,0,90,2.0,0.0
6994,87.0,34,40,0.0,0.0
6995,38.0,14,30,9.0,0.0
6996,87.0,34,40,0.0,0.0
6997,58.0,0,30,13.0,0.0
6998,38.0,14,30,9.0,0.0
6999,38.0,0,30,9.0,0.0
7000,58.0,14,30,13.0,0.0
7001,84.0,16,150,2.0,0.0
7002,93.0,48,40,0.0,0.0
7003,91.0,34,40,0.0,0.0
7004,89.0,18,40,0.0,0.0
7005,38.0,0,30,9.0,0.0
7006,58.0,14,30,13.0,0.0
7007,87.0,34,40,0.0,0.0
7008,38.0,14,30,9.0,0.0
7009,58.0,0,30,13.0,0.0
7010,82.0,0,40,2.0,0.0
7011,38.0,0,30,9.0,0.0
7012,58.0,14,30,13.0,0.0
7013,86.0,48,40,0.0,0.0
7014,87.0,0,40,0.0,0.0
7015,79.0,34,40,2.0,0.0
7016,84.0,34,40,0.0,0.0
7017,38.0,14,30,9.0,0.0
7018,81.0,0,40,2.0,0.0
7019,58.0,0,30,13.0,0.0
7020,77.0,0,40,2.0,0.0
7021,58.0,14,30,13.0,0.0
7022,86.0,34,40,0.0,0.0
7023,38.0,0,30,9.0,0.0
7024,79.0,0,40,2.0,0.0
7025,58.0,14,30,13.0,0.0
7026,82.0,48,40,0.0,0.0
7027,38.0,0,30,9.0,0.0
7028,84.0,0,40,0.0,0.0
7029,76.0,34,40,2.0,0.0
7030,77.0,0,90,0.0,0.0
7031,53.0,0,30,13.0,0.0
7032,77.0,34,90,2.0,0.0
7033,38.0,48,30,9.0,0.0
7034,53.0,0,30,13.0,0.0
7035,38.0,14,30,9.0,0.0
7036,53.0,0,30,13.0,0.0
7037,38.0,96,30,9.0,0.0
7038,72.0,34,90,2.0,0.0
7039,65.0,34,40,2.0,0.0
7040,53.0,0,30,13.0,0.0
7041,38.0,14,30,9.0,0.0
7042,53.0,14,30,13.0,0.0
7043,69.0,0,40,2.0,0.0
7044,38.0,0,30,9.0,0.0
7045,38.0,0,30,9.0,0.0
7046,53.0,14,30,13.0,0.0
7047,73.0,30,270,2.0,0.0
7048,70.0,48,40,2.0,0.0
7049,69.0,34,40,2.0,0.0
7050,70.0,34,40,2.0,0.0
7051,53.0,0,30,13.0,0.0
7052,38.0,14,30,9.0,0.0
7053,38.0,14,30,9.0,0.0
7054,68.0,34,40,2.0,0.0
7055,53.0,0,30,13.0,0.0
7056,66.0,18,40,2.0,0.0
7057,53.0,0,30,13.0,0.0
7058,38.0,14,30,9.0,0.0
7059,65.0,34,40,2.0,0.0
7060,38.0,14,30,9.0,0.0
7061,53.0,0,30,13.0,0.0
7062,70.0,34,90,2.0,0.0
7063,66.0,34,40,2.0,0.0
7064,38.0,14,30,9.0,0.0
7065,65.0,0,40,2.0,0.0
7066,53.0,0,30,13.0,0.0
7067,63.0,48,40,2.0,0.0
7068,53.0,0,30,13.0,0.0
7069,72.0,0,90,2.0,0.0
7070,38.0,14,30,9.0,0.0
7071,66.0,34,40,2.0,0.0
7072,60.0,34,40,2.0,0.0
7073,38.0,0,30,9.0,0.0
7074,53.0,14,30,13.0,0.0
7075,69.0,34,90,2.0,0.0
7076,63.0,0,40,2.0,0.0
7077,38.0,0,30,9.0,0.0
7078,53.0,14,30,13.0,0.0
7079,38.0,0,30,9.0,0.0
7080,70.0,0,90,2.0,0.0
7081,61.0,48,40,2.0,0.0
7082,53.0,14,30,13.0,0.0
7083,65.0,34,40,2.0,0.0
7084,73.0,34,90,2.0,0.0
7085,70.0,34,40,2.0,0.0
7086,53.0,0,30,13.0,0.0
7087,38.0,14,30,9.0,0.0
7088,53.0,14,30,13.0,0.0
7089,38.0,0,30,9.0,0.0
7090,70.0,0,40,2.0,0.0
7091,75.0,0,90,2.0,0.0
7092,72.0,48,40,2.0,0.0
7093,38.0,14,30,9.0,0.0
7094,53.0,0,30,13.0,0.0
7095,68.0,34,40,2.0,0.0
7096,53.0,14,30,13.0,0.0
7097,73.0,34,40,2.0,0.0
7098,77.0,30,150,2.0,0.0
7099,38.0,0,30,9.0,0.0
7100,72.0,34,40,2.0,0.0
7101,53.0,0,30,13.0,0.0
7102,38.0,14,30,9.0,0.0
7103,70.0,18,40,2.0,0.0
7104,38.0,0,30,9.0,0.0
7105,53.0,14,30,13.0,0.0
7106,69.0,34,40,2.0,0.0
7107,38.0,0,30,9.0,0.0
7108,73.0,34,90,2.0,0.0
7109,53.0,14,30,13.0,0.0
7110,70.0,34,40,2.0,0.0
7111,68.0,0,40,2.0,0.0
7112,38.0,0,30,9.0,0.0
7113,53.0,14,30,13.0,0.0
7114,66.0,48,40,2.0,0.0
7115,75.0,0,90,2.0,0.0
7116,38.0,0,30,9.0,0.0
7117,53.0,14,30,13.0,0.0
7118,70.0,34,40,2.0,0.0
7119,63.0,34,40,2.0,0.0
7120,53.0,0,30,13.0,0.0
7121,38.0,14,30,9.0,0.0
7122,72.0,0,90,2.0,0.0
7123,53.0,14,30,13.0,0.0
7124,66.0,34,40,2.0,0.0
7125,38.0,0,30,9.0,0.0
7126,53.0,62,30,13.0,0.0
7127,60.0,0,90,2.0,0.0
7128,38.0,0,30,9.0,0.0
7129,69.0,34,90,2.0,0.0
7130,62.0,34,40,2.0,0.0
7131,70.0,34,90,2.0,0.0
7132,58.0,14,30,13.0,0.0
7133,38.0,0,30,9.0,0.0
7134,38.0,0,30,9.0,0.0
7135,65.0,0,40,2.0,0.0
7136,58.0,14,30,13.0,0.0
7137,38.0,14,30,9.0,0.0
7138,58.0,0,30,13.0,0.0
7139,69.0,48,40,2.0,0.0
7140,72.0,16,150,2.0,0.0
7141,67.0,34,40,2.0,0.0
7142,65.0,18,40,2.0,0.0
7143,58.0,0,30,13.0,0.0
7144,38.0,14,30,9.0,0.0
7145,58.0,0,30,13.0,0.0
7146,63.0,34,40,2.0,0.0
7147,38.0,14,30,9.0,0.0
7148,62.0,48,40,2.0,0.0
7149,58.0,14,30,13.0,0.0
7150,38.0,0,30,9.0,0.0
7151,65.0,34,40,2.0,0.0
7152,74.0,34,90,1.0,0.0
7153,70.0,34,40,2.0,0.0
7154,58.0,0,30,13.0,0.0
7155,38.0,14,30,9.0,0.0
7156,58.0,0,30,13.0,0.0
7157,38.0,14,30,9.0,0.0
7158,70.0,0,40,2.0,0.0
7159,38.0,0,30,9.0,0.0
7160,80.0,16,150,1.0,0.0
7161,58.0,14,30,13.0,0.0
7162,77.0,48,40,2.0,0.0
7163,75.0,34,40,2.0,0.0
7164,38.0,0,30,9.0,0.0
7165,74.0,18,40,2.0,0.0
7166,58.0,14,30,13.0,0.0
7167,38.0,14,30,9.0,0.0
7168,58.0,0,30,13.0,0.0
7169,72.0,34,40,2.0,0.0
7170,58.0,0,30,13.0,0.0
7171,38.0,14,30,9.0,0.0
7172,70.0,48,40,2.0,0.0
7173,74.0,34,40,2.0,0.0
7174,75.0,34,40,2.0,0.0
7175,79.0,34,90,0.0,0.0
7176,58.0,0,30,13.0,0.0
7177,38.0,14,30,9.0,0.0
7178,75.0,0,40,2.0,0.0
7179,58.0,14,30,13.0,0.0
7180,38.0,0,30,9.0,0.0
7181,38.0,14,30,9.0,0.0
7182,87.0,16,150,0.0,0.0
7183,58.0,0,30,13.0,0.0
7184,84.0,48,40,2.0,0.0
7185,82.0,34,40,2.0,0.0
7186,81.0,18,40,2.0,0.0
7187,58.0,14,30,13.0,0.0
7188,38.0,0,30,9.0,0.0
7189,58.0,0,30,13.0,0.0
7190,38.0,14,30,9.0,0.0
7191,79.0,34,40,2.0,0.0
7192,78.0,0,90,2.0,0.0
7193,38.0,0,30,9.0,0.0
7194,58.0,62,30,13.0,0.0
7195,84.0,34,40,0.0,0.0
7196,77.0,34,40,2.0,0.0
7197,86.0,0,40,0.0,0.0
7198,38.0,0,30,9.0,0.0
7199,58.0,14,30,13.0,0.0
7200,38.0,14,30,9.0,0.0
7201,58.0,0,30,13.0,0.0
7202,79.0,34,40,2.0,0.0
7203,82.0,0,40,0.0,0.0
7204,38.0,0,30,9.0,0.0
7205,84.0,48,40,0.0,0.0
7206,58.0,14,30,13.0,0.0
7207,75.0,0,40,2.0,0.0
7208,77.0,0,40,2.0,0.0
7209,81.0,34,40,0.0,0.0
7210,58.0,48,30,13.0,0.0
7211,74.0,34,90,2.0,0.0
7212,38.0,0,30,9.0,0.0
7213,82.0,0,90,0.0,0.0
7214,58.0,0,30,13.0,0.0
7215,38.0,14,30,9.0,0.0
7216,58.0,96,30,13.0,0.0
7217,38.0,0,30,9.0,0.0
7218,60.0,32,90,2.0,0.0
7219,38.0,14,30,9.0,0.0
7220,65.0,34,40,1.0,0.0
7221,53.0,0,30,13.0,0.0
7222,53.0,14,30,13.0,0.0
7223,38.0,0,30,9.0,0.0
7224,69.0,2,40,1.0,0.0
7225,53.0,0,30,13.0,0.0
7226,38.0,14,30,9.0,0.0
7227,70.0,48,40,1.0,0.0
7228,61.0,32,300,2.0,0.0
7229,69.0,34,40,1.0,0.0
7230,53.0,14,30,13.0,0.0
7231,70.0,34,40,1.0,0.0
7232,38.0,0,30,9.0,0.0
7233,53.0,0,30,13.0,0.0
7234,38.0,14,30,9.0,0.0
7235,68.0,34,40,1.0,0.0
7236,38.0,14,30,9.0,0.0
7237,66.0,48,40,1.0,0.0
7238,53.0,0,30,13.0,0.0
7239,65.0,2,40,1.0,0.0
7240,53.0,0,30,13.0,0.0
7241,58.0,32,90,2.0,0.0
7242,66.0,34,40,1.0,0.0
7243,38.0,14,30,9.0,0.0
7244,65.0,2,40,1.0,0.0
7245,53.0,14,30,13.0,0.0
7246,38.0,0,30,9.0,0.0
7247,38.0,0,30,9.0,0.0
7248,63.0,48,40,1.0,0.0
7249,53.0,14,30,13.0,0.0
7250,60.0,32,90,2.0,0.0
7251,66.0,2,40,1.0,0.0
7252,57.0,32,90,2.0,0.0
7253,60.0,34,40,1.0,0.0
7254,38.0,0,30,9.0,0.0
7255,53.0,14,30,13.0,0.0
7256,53.0,0,30,13.0,0.0
7257,63.0,2,40,1.0,0.0
7258,38.0,14,30,9.0,0.0
7259,58.0,32,90,2.0,0.0
7260,61.0,48,40,1.0,0.0
7261,38.0,14,30,9.0,0.0
7262,53.0,0,30,13.0,0.0
7263,65.0,2,40,1.0,0.0
7264,53.0,0,30,13.0,0.0
7265,70.0,34,40,1.0,0.0
7266,38.0,14,30,9.0,0.0
7267,61.0,32,90,2.0,0.0
7268,38.0,0,30,9.0,0.0
7269,70.0,2,40,1.0,0.0
7270,53.0,14,30,13.0,0.0
7271,38.0,14,30,9.0,0.0
7272,72.0,48,40,1.0,0.0
7273,53.0,0,30,13.0,0.0
7274,63.0,32,90,2.0,0.0
7275,68.0,2,40,1.0,0.0
7276,73.0,34,40,1.0,0.0
7277,53.0,14,30,13.0,0.0
7278,65.0,32,180,2.0,0.0
7279,38.0,0,30,9.0,0.0
7280,53.0,0,30,13.0,0.0
7281,38.0,14,30,9.0,0.0
7282,72.0,34,40,1.0,0.0
7283,38.0,0,30,9.0,0.0
7284,70.0,48,40,1.0,0.0
7285,53.0,14,30,13.0,0.0
7286,69.0,2,40,1.0,0.0
7287,38.0,0,30,9.0,0.0
7288,70.0,34,40,1.0,0.0
7289,53.0,14,30,13.0,0.0
7290,61.0,32,90,2.0,0.0
7291,38.0,14,30,9.0,0.0
7292,53.0,0,30,13.0,0.0
7293,68.0,2,40,1.0,0.0
7294,53.0,0,30,13.0,0.0
7295,63.0,32,90,2.0,0.0
7296,66.0,48,40,1.0,0.0
7297,38.0,14,30,9.0,0.0
7298,70.0,2,40,1.0,0.0
7299,60.0,32,90,2.0,0.0
7300,53.0,14,30,13.0,0.0
7301,63.0,34,40,1.0,0.0
7302,38.0,0,30,9.0,0.0
7303,53.0,14,30,13.0,0.0
7304,38.0,0,30,9.0,0.0
7305,66.0,2,40,1.0,0.0
7306,60.0,2,90,1.0,0.0
7307,53.0,0,30,13.0,0.0
7308,57.0,32,90,2.0,0.0
7309,38.0,62,30,9.0,0.0
7310,38.0,0,30,9.0,0.0
7311,70.0,32,90,2.0,0.0
7312,74.0,34,40,0.0,0.0
7313,58.0,14,30,13.0,0.0
7314,38.0,0,30,9.0,0.0
7315,58.0,14,30,13.0,0.0
7316,77.0,2,40,0.0,0.0
7317,81.0,48,40,0.0,0.0
7318,72.0,32,180,2.0,0.0
7319,38.0,14,30,9.0,0.0
7320,58.0,0,30,13.0,0.0
7321,79.0,34,40,0.0,0.0
7322,38.0,0,30,9.0,0.0
7323,58.0,14,30,13.0,0.0
7324,77.0,34,40,0.0,0.0
7325,75.0,2,40,0.0,0.0
7326,38.0,0,30,9.0,0.0
7327,58.0,14,30,13.0,0.0
7328,74.0,48,40,0.0,0.0
7329,58.0,0,30,13.0,0.0
7330,38.0,14,30,9.0,0.0
7331,77.0,34,40,0.0,0.0
7332,70.0,34,40,0.0,0.0
7333,82.0,0,40,0.0,0.0
7334,74.0,0,90,0.0,0.0
7335,38.0,14,30,9.0,0.0
7336,74.0,34,90,1.0,0.0
7337,82.0,0,40,0.0,0.0
7338,38.0,14,30,9.0,0.0
7339,70.0,0,40,0.0,0.0
7340,80.0,0,150,0.0,0.0
7341,38.0,14,30,9.0,0.0
7342,70.0,34,90,0.0,0.0
7343,81.0,16,150,9.0,0.0
7344,80.0,0,150,1.0,0.0
7345,89.0,48,40,0.0,0.0
7346,87.0,0,40,0.0,0.0
7347,38.0,14,30,9.0,0.0
7348,70.0,18,40,0.0,0.0
7349,86.0,0,40,0.0,0.0
7350,38.0,14,30,9.0,0.0
7351,70.0,34,40,0.0,0.0
7352,84.0,0,40,0.0,0.0
7353,82.0,48,40,0.0,0.0
7354,38.0,14,30,9.0,0.0
7355,70.0,34,90,0.0,0.0
7356,86.0,0,40,0.0,0.0
7357,87.0,34,40,0.0,0.0
7358,38.0,14,30,9.0,0.0
7359,82.0,0,40,0.0,0.0
7360,79.0,0,90,0.0,0.0
7361,82.0,0,40,0.0,0.0
7362,38.0,14,30,9.0,0.0
7363,87.0,34,40,0.0,0.0
7364,87.0,0,150,0.0,0.0
7365,96.0,48,40,0.0,0.0
7366,81.0,16,150,9.0,0.0
7367,38.0,14,30,9.0,0.0
7368,82.0,34,90,0.0,0.0
7369,94.0,0,40,0.0,0.0
7370,93.0,18,40,0.0,0.0
7371,38.0,14,30,9.0,0.0
7372,70.0,0,40,0.0,0.0
7373,70.0,0,40,0.0,0.0
7374,91.0,34,40,0.0,0.0
7375,38.0,14,30,9.0,0.0
7376,90.0,48,90,0.0,0.0
7377,70.0,0,90,0.0,0.0
7378,38.0,62,30,9.0,0.0
7379,84.0,0,40,0.0,0.0
7380,89.0,48,40,0.0,0.0
7381,86.0,0,40,0.0,0.0
7382,70.0,0,40,0.0,0.0
7383,91.0,0,40,0.0,0.0
7384,82.0,48,40,0.0,0.0
7385,58.0,0,90,0.0,0.0
7386,84.0,48,40,0.0,0.0
7387,87.0,0,40,0.0,0.0
7388,89.0,0,40,0.0,0.0
7389,81.0,48,40,0.0,0.0
7390,82.0,0,40,0.0,0.0
7391,86.0,290,40,0.0,0.0
7392,34.0,0,1290,15.0,0.0
7393,46.0,62,1230,14.0,0.0
7394,46.0,0,1290,15.0,0.0
7395,58.0,0,180,13.0,0.0
7396,82.0,0,870,0.0,0.0
7397,70.0,160,15,12.0,0.0
7398,82.0,0,15,11.0,0.0
7399,46.0,0,180,2.0,0.0
7400,34.0,0,390,3.0,0.0
7401,58.0,32,150,2.0,0.0
7402,60.0,0,180,2.0,0.0
7403,48.0,0,180,2.0,0.0
7404,81.0,0,180,11.0,0.0
7405,60.0,0,180,13.0,0.0
7406,69.0,192,180,12.0,0.0
7407,80.0,0,180,11.0,0.0
7408,68.0,64,180,12.0,0.0
7409,50.0,0,180,2.0,0.0
7410,62.0,0,180,13.0,0.0
7411,62.0,0,180,2.0,0.0
7412,63.0,0,180,13.0,0.0
7413,51.0,0,180,2.0,0.0
7414,67.0,0,60,12.0,0.0
7415,79.0,64,60,11.0,0.0
7416,63.0,0,180,2.0,0.0
7417,70.0,0,60,12.0,0.0
7418,82.0,64,60,11.0,0.0
7419,66.0,94,60,12.0,0.0
7420,78.0,0,60,11.0,0.0
7421,62.0,96,90,13.0,0.0
7422,34.0,0,15,3.0,0.0
7423,50.0,0,90,2.0,0.0
7424,77.0,0,180,11.0,0.0
7425,62.0,0,90,2.0,0.0
7426,65.0,0,180,12.0,0.0
7427,49.0,0,90,2.0,0.0
7428,61.0,0,90,13.0,0.0
7429,61.0,0,90,2.0,0.0
7430,48.0,32,90,2.0,0.0
7431,60.0,0,90,13.0,0.0
7432,76.0,32,60,11.0,0.0
7433,64.0,0,60,12.0,0.0
7434,60.0,0,90,2.0,0.0
7435,34.0,64,15,3.0,0.0
7436,70.0,64,60,12.0,0.0
7437,82.0,0,60,11.0,0.0
7438,59.0,0,90,2.0,0.0
7439,59.0,32,90,13.0,0.0
7440,47.0,0,90,2.0,0.0
7441,75.0,0,60,11.0,0.0
7442,63.0,0,60,12.0,0.0
7443,58.0,0,180,2.0,0.0
7444,62.0,48,180,12.0,0.0
7445,74.0,0,330,11.0,0.0
7446,58.0,0,180,13.0,0.0
7447,34.0,0,180,3.0,0.0
7448,46.0,0,180,2.0,0.0
7449,76.0,0,150,11.0,0.0
7450,43.0,2,150,15.0,0.0
7451,43.0,94,40,14.0,0.0
7452,55.0,0,150,2.0,0.0
7453,55.0,48,150,13.0,0.0
7454,43.0,0,150,2.0,0.0
7455,70.0,0,150,12.0,0.0
7456,64.0,0,150,12.0,0.0
7457,86.0,0,40,11.0,0.0
7458,50.0,160,40,13.0,0.0
7459,50.0,0,1290,15.0,0.0
7460,74.0,0,40,12.0,0.0
7461,50.0,62,1230,14.0,0.0
7462,38.0,0,1290,15.0,0.0
7463,86.0,0,180,11.0,0.0
7464,38.0,0,390,3.0,0.0
7465,50.0,144,180,2.0,0.0
7466,74.0,0,180,12.0,0.0
7467,78.0,0,180,12.0,0.0
7468,62.0,32,150,2.0,0.0
7469,62.0,0,180,13.0,0.0
7470,86.0,0,870,0.0,0.0
7471,52.0,0,180,2.0,0.0
7472,85.0,0,180,11.0,0.0
7473,73.0,192,180,12.0,0.0
7474,79.0,0,180,12.0,0.0
7475,64.0,0,180,13.0,0.0
7476,64.0,0,180,2.0,0.0
7477,54.0,0,180,2.0,0.0
7478,38.0,0,390,3.0,0.0
7479,81.0,0,180,12.0,0.0
7480,66.0,0,180,13.0,0.0
7481,72.0,0,180,12.0,0.0
7482,66.0,0,180,2.0,0.0
7483,84.0,64,180,11.0,0.0
7484,71.0,64,60,12.0,0.0
7485,55.0,0,180,2.0,0.0
7486,67.0,0,180,13.0,0.0
7487,67.0,0,180,2.0,0.0
7488,83.0,0,60,11.0,0.0
7489,86.0,0,60,11.0,0.0
7490,74.0,64,60,12.0,0.0
7491,82.0,0,60,11.0,0.0
7492,70.0,94,60,12.0,0.0
7493,66.0,96,90,2.0,0.0
7494,54.0,0,90,2.0,0.0
7495,69.0,0,180,12.0,0.0
7496,81.0,64,180,11.0,0.0
7497,38.0,0,180,3.0,0.0
7498,66.0,0,90,13.0,0.0
7499,65.0,0,90,13.0,0.0
7500,65.0,0,90,2.0,0.0
7501,53.0,0,90,2.0,0.0
7502,80.0,32,60,11.0,0.0
7503,68.0,0,60,12.0,0.0
7504,64.0,0,90,2.0,0.0
7505,64.0,0,90,13.0,0.0
7506,52.0,32,90,2.0,0.0
7507,74.0,64,60,12.0,0.0
7508,86.0,0,60,11.0,0.0
7509,63.0,32,90,13.0,0.0
7510,63.0,0,90,2.0,0.0
7511,51.0,0,90,2.0,0.0
7512,79.0,0,60,11.0,0.0
7513,67.0,0,60,12.0,0.0
7514,62.0,0,180,2.0,0.0
7515,62.0,0,180,13.0,0.0
7516,78.0,48,180,11.0,0.0
7517,66.0,0,180,12.0,0.0
7518,50.0,0,180,2.0,0.0
7519,38.0,0,15,3.0,0.0
7520,65.0,0,150,12.0,0.0
7521,53.0,0,150,2.0,0.0
7522,77.0,0,150,11.0,0.0
7523,57.0,0,150,13.0,0.0
7524,53.0,94,40,14.0,0.0
7525,60.0,0,150,13.0,0.0
7526,53.0,2,150,15.0,0.0
7527,57.0,0,150,2.0,0.0
7528,60.0,48,150,2.0,0.0
7529,82.0,0,40,11.0,0.0
7530,70.0,160,40,12.0,0.0
7531,46.0,62,1230,14.0,0.0
7532,46.0,98,1290,15.0,0.0
7533,34.0,0,1290,15.0,0.0
7534,82.0,144,180,11.0,0.0
7535,58.0,0,180,13.0,0.0
7536,58.0,32,150,2.0,0.0
7537,70.0,0,180,12.0,0.0
7538,82.0,0,870,0.0,0.0
7539,46.0,0,180,2.0,0.0
7540,69.0,192,180,12.0,0.0
7541,60.0,0,180,2.0,0.0
7542,60.0,0,180,13.0,0.0
7543,81.0,0,180,11.0,0.0
7544,48.0,0,180,2.0,0.0
7545,50.0,0,180,2.0,0.0
7546,80.0,64,180,11.0,0.0
7547,62.0,0,180,2.0,0.0
7548,68.0,0,180,12.0,0.0
7549,34.0,0,15,3.0,0.0
7550,62.0,0,180,13.0,0.0
7551,67.0,64,60,12.0,0.0
7552,63.0,0,180,2.0,0.0
7553,79.0,0,60,11.0,0.0
7554,63.0,0,180,13.0,0.0
7555,51.0,0,180,2.0,0.0
7556,70.0,64,60,12.0,0.0
7557,82.0,0,60,11.0,0.0
7558,66.0,0,60,12.0,0.0
7559,78.0,94,60,11.0,0.0
7560,65.0,0,180,12.0,0.0
7561,50.0,96,90,2.0,0.0
7562,62.0,0,90,2.0,0.0
7563,62.0,0,90,13.0,0.0
7564,77.0,0,180,11.0,0.0
7565,61.0,0,90,13.0,0.0
7566,61.0,0,90,2.0,0.0
7567,49.0,0,90,2.0,0.0
7568,76.0,0,60,11.0,0.0
7569,48.0,32,90,2.0,0.0
7570,64.0,32,60,12.0,0.0
7571,60.0,0,90,13.0,0.0
7572,60.0,0,90,2.0,0.0
7573,34.0,64,15,3.0,0.0
7574,82.0,64,60,11.0,0.0
7575,70.0,0,60,12.0,0.0
7576,59.0,0,90,13.0,0.0
7577,59.0,0,90,2.0,0.0
7578,47.0,32,90,2.0,0.0
7579,63.0,0,60,12.0,0.0
7580,75.0,0,60,11.0,0.0
7581,34.0,0,15,3.0,0.0
7582,58.0,48,180,13.0,0.0
7583,74.0,0,330,11.0,0.0
7584,62.0,0,180,12.0,0.0
7585,58.0,0,180,2.0,0.0
7586,46.0,0,180,2.0,0.0
7587,70.0,0,150,12.0,0.0
7588,43.0,94,40,14.0,0.0
7589,55.0,0,150,2.0,0.0
7590,64.0,0,150,12.0,0.0
7591,43.0,48,150,2.0,0.0
7592,43.0,2,150,15.0,0.0
7593,76.0,0,150,11.0,0.0
7594,55.0,0,150,13.0,0.0
7595,50.0,0,40,13.0,0.0
7596,50.0,62,1230,14.0,0.0
7597,50.0,98,1290,15.0,0.0
7598,38.0,0,1290,15.0,0.0
7599,74.0,0,40,12.0,0.0
7600,38.0,0,390,3.0,0.0
7601,62.0,0,180,13.0,0.0
7602,86.0,160,15,11.0,0.0
7603,86.0,0,870,0.0,0.0
7604,62.0,32,150,2.0,0.0
7605,50.0,144,180,2.0,0.0
7606,74.0,0,180,12.0,0.0
7607,78.0,0,180,12.0,0.0
7608,79.0,0,180,12.0,0.0
7609,85.0,192,180,11.0,0.0
7610,64.0,0,180,13.0,0.0
7611,73.0,0,180,12.0,0.0
7612,52.0,0,180,2.0,0.0
7613,64.0,0,180,2.0,0.0
7614,81.0,0,180,12.0,0.0
7615,72.0,0,180,12.0,0.0
7616,54.0,0,180,2.0,0.0
7617,66.0,64,180,2.0,0.0
7618,38.0,0,390,3.0,0.0
7619,84.0,0,180,11.0,0.0
7620,66.0,0,180,13.0,0.0
7621,55.0,0,180,2.0,0.0
7622,71.0,0,60,12.0,0.0
7623,83.0,64,60,11.0,0.0
7624,67.0,94,180,13.0,0.0
7625,67.0,0,180,2.0,0.0
7626,74.0,64,60,12.0,0.0
7627,86.0,0,60,11.0,0.0
7628,82.0,0,60,11.0,0.0
7629,70.0,0,60,12.0,0.0
7630,54.0,96,90,2.0,0.0
7631,81.0,0,180,11.0,0.0
7632,69.0,0,180,12.0,0.0
7633,66.0,0,90,2.0,0.0
7634,66.0,0,90,13.0,0.0
7635,65.0,0,90,13.0,0.0
7636,53.0,0,90,2.0,0.0
7637,65.0,64,90,2.0,0.0
7638,80.0,0,60,11.0,0.0
7639,68.0,32,60,12.0,0.0
7640,38.0,0,15,3.0,0.0
7641,64.0,32,90,2.0,0.0
7642,52.0,0,90,2.0,0.0
7643,64.0,0,90,13.0,0.0
7644,74.0,0,60,12.0,0.0
7645,86.0,64,60,11.0,0.0
7646,63.0,0,90,2.0,0.0
7647,63.0,0,90,13.0,0.0
7648,51.0,32,90,2.0,0.0
7649,79.0,0,60,11.0,0.0
7650,67.0,0,60,12.0,0.0
7651,78.0,0,180,11.0,0.0
7652,38.0,0,15,3.0,0.0
7653,62.0,0,180,13.0,0.0
7654,66.0,0,180,12.0,0.0
7655,50.0,48,180,2.0,0.0
7656,62.0,0,180,2.0,0.0
7657,77.0,0,150,11.0,0.0
7658,57.0,0,150,2.0,0.0
7659,60.0,0,150,13.0,0.0
7660,57.0,0,150,13.0,0.0
7661,53.0,2,150,15.0,0.0
7662,53.0,0,150,2.0,0.0
7663,65.0,0,150,12.0,0.0
7664,60.0,48,150,2.0,0.0
7665,53.0,94,40,14.0,0.0
7666,41.0,32,1230,14.0,0.0
7667,41.0,2,1290,15.0,0.0
7668,29.0,0,1290,15.0,0.0
7669,53.0,0,390,2.0,0.0
7670,65.0,32,150,2.0,0.0
7671,77.0,0,870,0.0,0.0
7672,89.0,0,870,0.0,0.0
7673,53.0,0,180,13.0,0.0
7674,89.0,0,15,11.0,0.0
7675,77.0,160,15,12.0,0.0
7676,41.0,0,390,3.0,0.0
7677,67.0,0,180,2.0,0.0
7678,88.0,192,180,11.0,0.0
7679,55.0,0,180,13.0,0.0
7680,76.0,0,180,12.0,0.0
7681,69.0,64,180,2.0,0.0
7682,75.0,0,180,12.0,0.0
7683,57.0,0,180,13.0,0.0
7684,87.0,0,180,11.0,0.0
7685,53.0,0,390,2.0,0.0
7686,70.0,0,180,2.0,0.0
7687,74.0,0,60,12.0,0.0
7688,58.0,0,180,13.0,0.0
7689,86.0,64,60,11.0,0.0
7690,77.0,0,60,12.0,0.0
7691,89.0,64,60,11.0,0.0
7692,73.0,0,60,12.0,0.0
7693,85.0,0,60,11.0,0.0
7694,84.0,0,180,11.0,0.0
7695,72.0,0,180,12.0,0.0
7696,57.0,0,90,13.0,0.0
7697,41.0,0,15,3.0,0.0
7698,53.0,0,180,2.0,0.0
7699,65.0,94,15,2.0,0.0
7700,69.0,96,90,2.0,0.0
7701,68.0,0,90,2.0,0.0
7702,56.0,64,90,13.0,0.0
7703,55.0,0,90,13.0,0.0
7704,71.0,32,60,12.0,0.0
7705,83.0,0,60,11.0,0.0
7706,41.0,32,180,3.0,0.0
7707,67.0,32,90,2.0,0.0
7708,77.0,0,60,12.0,0.0
7709,89.0,64,60,11.0,0.0
7710,54.0,0,90,13.0,0.0
7711,66.0,0,90,2.0,0.0
7712,70.0,0,60,12.0,0.0
7713,82.0,0,60,11.0,0.0
7714,69.0,30,60,12.0,0.0
7715,53.0,0,15,2.0,0.0
7716,65.0,0,15,2.0,0.0
7717,81.0,48,330,11.0,0.0
7718,53.0,142,180,13.0,0.0
7719,84.0,0,270,12.0,0.0
7720,72.0,0,270,12.0,0.0
7721,41.0,64,30,14.0,0.0
7722,41.0,0,30,15.0,0.0
7723,29.0,0,150,15.0,0.0
7724,46.0,0,1290,15.0,0.0
7725,34.0,0,1290,15.0,0.0
7726,46.0,32,1230,14.0,0.0
7727,82.0,0,40,12.0,0.0
7728,58.0,144,180,13.0,0.0
7729,82.0,0,180,12.0,0.0
7730,58.0,0,390,2.0,0.0
7731,82.0,2,870,0.0,0.0
7732,46.0,0,390,3.0,0.0
7733,94.0,160,15,11.0,0.0
7734,94.0,0,870,0.0,0.0
7735,70.0,32,150,2.0,0.0
7736,93.0,0,180,11.0,0.0
7737,72.0,0,180,2.0,0.0
7738,60.0,0,180,13.0,0.0
7739,81.0,192,180,12.0,0.0
7740,80.0,0,180,12.0,0.0
7741,92.0,0,180,11.0,0.0
7742,62.0,0,180,13.0,0.0
7743,70.0,0,390,2.0,0.0
7744,74.0,64,180,2.0,0.0
7745,46.0,0,390,3.0,0.0
7746,63.0,0,180,13.0,0.0
7747,91.0,64,60,11.0,0.0
7748,79.0,0,60,12.0,0.0
7749,75.0,0,180,2.0,0.0
7750,82.0,64,60,12.0,0.0
7751,94.0,0,60,11.0,0.0
7752,90.0,0,60,11.0,0.0
7753,78.0,0,60,12.0,0.0
7754,62.0,96,90,13.0,0.0
7755,46.0,64,180,3.0,0.0
7756,74.0,0,90,2.0,0.0
7757,89.0,0,180,11.0,0.0
7758,70.0,0,180,2.0,0.0
7759,77.0,0,180,12.0,0.0
7760,58.0,94,15,2.0,0.0
7761,73.0,0,90,2.0,0.0
7762,61.0,0,90,13.0,0.0
7763,60.0,0,90,13.0,0.0
7764,76.0,32,60,12.0,0.0
7765,88.0,0,60,11.0,0.0
7766,58.0,0,180,2.0,0.0
7767,72.0,32,90,2.0,0.0
7768,46.0,0,180,3.0,0.0
7769,94.0,64,60,11.0,0.0
7770,82.0,0,60,12.0,0.0
7771,59.0,0,90,13.0,0.0
7772,71.0,0,90,2.0,0.0
7773,87.0,32,60,11.0,0.0
7774,75.0,0,60,12.0,0.0
7775,70.0,0,15,2.0,0.0
7776,74.0,30,60,12.0,0.0
7777,58.0,96,180,13.0,0.0
7778,86.0,0,330,11.0,0.0
7779,89.0,0,120,12.0,0.0
7780,77.0,48,270,12.0,0.0
7781,46.0,0,30,15.0,0.0
7782,46.0,64,30,14.0,0.0
7783,89.0,0,150,12.0,0.0
7784,34.0,0,150,15.0,0.0
7785,30.0,0,1290,15.0,0.0
7786,42.0,0,1290,15.0,0.0
7787,42.0,32,1230,14.0,0.0
7788,78.0,0,40,12.0,0.0
7789,66.0,32,150,2.0,0.0
7790,78.0,144,180,12.0,0.0
7791,78.0,2,870,0.0,0.0
7792,90.0,160,15,11.0,0.0
7793,90.0,0,870,0.0,0.0
7794,54.0,0,180,13.0,0.0
7795,56.0,0,180,13.0,0.0
7796,89.0,0,180,11.0,0.0
7797,68.0,0,180,2.0,0.0
7798,77.0,0,180,12.0,0.0
7799,76.0,0,180,12.0,0.0
7800,58.0,64,180,13.0,0.0
7801,88.0,0,180,11.0,0.0
7802,66.0,0,390,2.0,0.0
7803,70.0,0,180,2.0,0.0
7804,54.0,0,15,2.0,0.0
7805,42.0,192,15,3.0,0.0
7806,75.0,0,60,12.0,0.0
7807,87.0,64,60,11.0,0.0
7808,59.0,0,180,13.0,0.0
7809,71.0,0,180,2.0,0.0
7810,78.0,64,60,12.0,0.0
7811,90.0,0,60,11.0,0.0
7812,74.0,0,60,12.0,0.0
7813,86.0,0,60,11.0,0.0
7814,85.0,0,180,11.0,0.0
7815,73.0,0,180,12.0,0.0
7816,58.0,0,90,13.0,0.0
7817,54.0,94,15,2.0,0.0
7818,70.0,96,90,2.0,0.0
7819,57.0,0,90,13.0,0.0
7820,69.0,0,90,2.0,0.0
7821,78.0,0,60,12.0,0.0
7822,72.0,0,60,12.0,0.0
7823,42.0,0,15,3.0,0.0
7824,54.0,0,180,2.0,0.0
7825,56.0,32,90,13.0,0.0
7826,68.0,0,90,2.0,0.0
7827,66.0,64,15,2.0,0.0
7828,84.0,32,60,11.0,0.0
7829,90.0,0,60,11.0,0.0
7830,78.0,64,60,12.0,0.0
7831,67.0,0,90,2.0,0.0
7832,55.0,32,90,13.0,0.0
7833,77.0,0,60,12.0,0.0
7834,71.0,0,60,12.0,0.0
7835,83.0,0,60,11.0,0.0
7836,78.0,30,60,12.0,0.0
7837,70.0,0,60,12.0,0.0
7838,82.0,48,330,11.0,0.0
7839,54.0,0,300,13.0,0.0
7840,66.0,46,300,2.0,0.0
7841,73.0,0,270,12.0,0.0
7842,85.0,0,270,12.0,0.0
7843,42.0,0,30,15.0,0.0
7844,42.0,160,30,14.0,0.0
7845,30.0,0,150,15.0,0.0
7846,46.0,32,1230,14.0,0.0
7847,46.0,0,1290,15.0,0.0
7848,82.0,0,40,12.0,0.0
7849,34.0,0,1290,15.0,0.0
7850,82.0,0,870,0.0,0.0
7851,70.0,32,150,2.0,0.0
7852,94.0,160,15,11.0,0.0
7853,82.0,0,180,12.0,0.0
7854,58.0,0,390,2.0,0.0
7855,94.0,0,870,0.0,0.0
7856,58.0,0,180,13.0,0.0
7857,93.0,0,180,11.0,0.0
7858,72.0,192,180,2.0,0.0
7859,60.0,0,180,13.0,0.0
7860,81.0,0,180,12.0,0.0
7861,46.0,0,15,3.0,0.0
7862,92.0,0,180,11.0,0.0
7863,80.0,64,180,12.0,0.0
7864,74.0,0,180,2.0,0.0
7865,62.0,0,180,13.0,0.0
7866,75.0,0,90,2.0,0.0
7867,91.0,0,60,11.0,0.0
7868,79.0,32,60,12.0,0.0
7869,63.0,32,90,13.0,0.0
7870,94.0,64,60,11.0,0.0
7871,82.0,0,60,12.0,0.0
7872,64.0,0,90,13.0,0.0
7873,76.0,0,90,2.0,0.0
7874,78.0,0,60,12.0,0.0
7875,90.0,94,60,11.0,0.0
7876,89.0,0,180,11.0,0.0
7877,46.0,0,390,3.0,0.0
7878,77.0,96,90,2.0,0.0
7879,70.0,0,15,2.0,0.0
7880,58.0,0,15,2.0,0.0
7881,77.0,0,180,12.0,0.0
7882,65.0,0,90,13.0,0.0
7883,78.0,0,90,2.0,0.0
7884,66.0,64,90,13.0,0.0
7885,79.0,32,90,2.0,0.0
7886,88.0,0,60,11.0,0.0
7887,76.0,32,60,12.0,0.0
7888,67.0,0,90,13.0,0.0
7889,82.0,64,60,12.0,0.0
7890,94.0,0,60,11.0,0.0
7891,81.0,0,90,2.0,0.0
7892,69.0,0,90,13.0,0.0
7893,87.0,0,60,11.0,0.0
7894,75.0,32,60,12.0,0.0
7895,70.0,46,300,13.0,0.0
7896,86.0,72,330,11.0,0.0
7897,82.0,32,90,2.0,0.0
7898,74.0,30,60,12.0,0.0
7899,89.0,0,270,12.0,0.0
7900,77.0,0,270,12.0,0.0
7901,58.0,160,30,14.0,0.0
7902,34.0,2,150,15.0,0.0
7903,77.0,24,20,11.0,0.0
7904,76.0,16,20,11.0,0.0
7905,77.0,16,15,11.0,0.0
7906,89.0,0,40,0.0,0.0
7907,79.0,16,15,11.0,0.0
7908,81.0,42,15,11.0,0.0
7909,94.0,0,40,0.0,0.0
7910,81.0,2,90,9.0,0.0
7911,74.0,6,40,12.0,0.0
7912,58.0,32,40,14.0,0.0
7913,82.0,0,40,11.0,0.0
7914,62.0,14,30,14.0,0.0
7915,62.0,10,40,13.0,0.0
7916,74.0,38,40,12.0,0.0
7917,82.0,0,40,11.0,0.0
7918,94.0,0,40,0.0,0.0
7919,65.0,26,40,13.0,0.0
7920,94.0,0,40,0.0,0.0
7921,82.0,0,40,11.0,0.0
7922,74.0,22,40,12.0,0.0
7923,70.0,32,40,13.0,0.0
7924,72.0,0,40,1.0,0.0
7925,77.0,0,30,12.0,0.0
7926,96.0,0,30,0.0,0.0
7927,84.0,10,30,11.0,0.0
7928,53.0,32,40,14.0,0.0
7929,72.0,6,40,0.0,0.0
7930,60.0,16,30,14.0,0.0
7931,60.0,10,40,13.0,0.0
7932,65.0,0,40,0.0,0.0
7933,72.0,0,40,0.0,0.0
7934,65.0,0,40,1.0,0.0
7935,72.0,38,40,1.0,0.0
7936,65.0,26,40,13.0,0.0
7937,65.0,0,40,0.0,0.0
7938,72.0,0,40,0.0,0.0
7939,72.0,22,40,1.0,0.0
7940,65.0,0,40,1.0,0.0
7941,69.0,32,40,13.0,0.0
7942,46.0,32,40,14.0,0.0
7943,74.0,0,30,1.0,0.0
7944,58.0,0,40,2.0,0.0
7945,62.0,6,40,2.0,0.0
7946,70.0,0,30,0.0,0.0
7947,70.0,0,30,1.0,0.0
7948,74.0,10,30,0.0,0.0
7949,53.0,16,30,14.0,0.0
7950,53.0,10,40,13.0,0.0
7951,62.0,0,40,2.0,0.0
7952,58.0,38,40,2.0,0.0
7953,58.0,26,40,13.0,0.0
7954,58.0,22,40,2.0,0.0
7955,62.0,0,40,2.0,0.0
7956,62.0,32,40,13.0,0.0
7957,63.0,10,30,2.0,0.0
7958,58.0,0,30,2.0,0.0
7959,51.0,0,40,3.0,0.0
7960,39.0,46,40,15.0,0.0
7961,51.0,6,40,2.0,0.0
7962,42.0,10,40,14.0,0.0
7963,42.0,2,40,15.0,0.0
7964,51.0,0,40,3.0,0.0
7965,51.0,38,40,2.0,0.0
7966,46.0,26,40,14.0,0.0
7967,51.0,0,40,2.0,0.0
7968,51.0,6,40,3.0,0.0
7969,51.0,48,30,14.0,0.0
7970,46.0,0,30,3.0,0.0
7971,29.0,64,40,15.0,0.0
7972,49.0,10,30,2.0,0.0
7973,49.0,0,30,3.0,0.0
7974,37.0,0,40,3.0,0.0
7975,37.0,0,40,15.0,0.0
7976,37.0,64,40,3.0,0.0
7977,37.0,54,40,15.0,0.0
7978,37.0,0,40,3.0,0.0
7979,48.0,0,30,2.0,0.0
7980,41.0,10,30,3.0,0.0
7981,48.0,0,30,3.0,0.0
7982,29.0,64,40,15.0,0.0
7983,45.0,0,30,3.0,0.0
7984,29.0,64,40,15.0,0.0
7985,29.0,54,40,15.0,0.0
7986,46.0,0,30,3.0,0.0
7987,41.0,0,30,3.0,0.0
7988,34.0,64,40,15.0,0.0
7989,46.0,0,30,2.0,0.0
7990,34.0,64,40,15.0,0.0
7991,34.0,54,40,15.0,0.0
7992,34.0,124,30,15.0,0.0
7993,77.0,12,15,11.0,0.0
7994,89.0,0,40,0.0,0.0
7995,79.0,8,15,11.0,0.0
7996,81.0,8,15,11.0,0.0
7997,82.0,8,15,11.0,0.0
7998,84.0,42,15,11.0,0.0
7999,81.0,10,150,9.0,0.0
8000,86.0,0,40,11.0,0.0
8001,58.0,32,40,14.0,0.0
8002,77.0,0,40,12.0,0.0
8003,82.0,0,40,12.0,0.0
8004,98.0,6,40,0.0,0.0
8005,62.0,16,30,14.0,0.0
8006,62.0,10,40,13.0,0.0
8007,98.0,38,40,0.0,0.0
8008,77.0,0,40,12.0,0.0
8009,86.0,0,40,11.0,0.0
8010,82.0,0,40,12.0,0.0
8011,65.0,16,40,13.0,0.0
8012,86.0,0,40,11.0,0.0
8013,77.0,22,40,12.0,0.0
8014,98.0,0,40,0.0,0.0
8015,82.0,0,40,12.0,0.0
8016,70.0,32,40,13.0,0.0
8017,82.0,0,30,12.0,0.0
8018,87.0,10,30,11.0,0.0
8019,63.0,14,40,14.0,0.0
8020,75.0,18,60,0.0,0.0
8021,75.0,6,40,1.0,0.0
8022,99.0,0,30,0.0,0.0
8023,79.0,0,30,12.0,0.0
8024,67.0,16,30,14.0,0.0
8025,67.0,10,40,13.0,0.0
8026,70.0,38,40,1.0,0.0
8027,75.0,0,40,0.0,0.0
8028,67.0,0,40,1.0,0.0
8029,70.0,26,40,13.0,0.0
8030,70.0,0,40,1.0,0.0
8031,75.0,22,40,0.0,0.0
8032,67.0,0,40,1.0,0.0
8033,75.0,32,40,13.0,0.0
8034,77.0,10,30,0.0,0.0
8035,70.0,0,30,1.0,0.0
8036,65.0,0,40,2.0,0.0
8037,58.0,0,40,2.0,0.0
8038,46.0,32,40,14.0,0.0
8039,53.0,16,30,14.0,0.0
8040,53.0,10,40,13.0,0.0
8041,65.0,38,40,2.0,0.0
8042,58.0,0,40,2.0,0.0
8043,58.0,26,40,13.0,0.0
8044,65.0,0,40,2.0,0.0
8045,58.0,0,40,2.0,0.0
8046,62.0,32,40,13.0,0.0
8047,66.0,10,30,2.0,0.0
8048,54.0,6,40,3.0,0.0
8049,39.0,32,40,15.0,0.0
8050,63.0,0,30,2.0,0.0
8051,58.0,0,30,2.0,0.0
8052,46.0,0,40,14.0,0.0
8053,54.0,14,30,14.0,0.0
8054,46.0,12,40,15.0,0.0
8055,54.0,0,40,3.0,0.0
8056,51.0,64,40,3.0,0.0
8057,51.0,0,40,3.0,0.0
8058,54.0,54,40,3.0,0.0
8059,41.0,52,40,14.0,0.0
8060,53.0,0,30,3.0,0.0
8061,34.0,12,90,15.0,0.0
8062,49.0,10,30,3.0,0.0
8063,41.0,64,40,14.0,0.0
8064,41.0,54,40,14.0,0.0
8065,49.0,0,30,3.0,0.0
8066,41.0,10,30,14.0,0.0
8067,34.0,64,40,3.0,0.0
8068,46.0,0,30,3.0,0.0
8069,34.0,0,40,15.0,0.0
8070,34.0,0,40,15.0,0.0
8071,34.0,64,40,3.0,0.0
8072,34.0,0,40,3.0,0.0
8073,34.0,54,40,15.0,0.0
8074,29.0,64,40,15.0,0.0
8075,41.0,10,30,14.0,0.0
8076,48.0,0,30,3.0,0.0
8077,45.0,0,30,3.0,0.0
8078,41.0,0,30,3.0,0.0
8079,29.0,64,40,15.0,0.0
8080,29.0,54,40,15.0,0.0
8081,29.0,88,30,15.0,0.0
8082,77.0,24,20,11.0,0.0
8083,76.0,16,20,11.0,0.0
8084,77.0,16,15,11.0,0.0
8085,89.0,0,40,0.0,0.0
8086,79.0,16,15,11.0,0.0
8087,81.0,42,15,11.0,0.0
8088,94.0,0,40,0.0,0.0
8089,58.0,32,40,14.0,0.0
8090,81.0,2,90,9.0,0.0
8091,74.0,6,40,12.0,0.0
8092,82.0,0,40,11.0,0.0
8093,62.0,10,40,13.0,0.0
8094,62.0,14,30,14.0,0.0
8095,82.0,38,40,11.0,0.0
8096,74.0,0,40,12.0,0.0
8097,94.0,0,40,0.0,0.0
8098,65.0,26,40,13.0,0.0
8099,94.0,22,40,0.0,0.0
8100,74.0,0,40,12.0,0.0
8101,82.0,0,40,11.0,0.0
8102,70.0,32,40,13.0,0.0
8103,96.0,0,30,0.0,0.0
8104,72.0,0,40,0.0,0.0
8105,77.0,10,30,12.0,0.0
8106,72.0,6,40,1.0,0.0
8107,53.0,32,40,14.0,0.0
8108,84.0,0,30,11.0,0.0
8109,60.0,10,40,13.0,0.0
8110,60.0,16,30,14.0,0.0
8111,72.0,38,40,0.0,0.0
8112,72.0,0,40,1.0,0.0
8113,65.0,0,40,1.0,0.0
8114,65.0,0,40,0.0,0.0
8115,65.0,26,40,13.0,0.0
8116,72.0,0,40,1.0,0.0
8117,65.0,0,40,1.0,0.0
8118,65.0,0,40,0.0,0.0
8119,72.0,22,40,0.0,0.0
8120,69.0,32,40,13.0,0.0
8121,74.0,0,30,0.0,0.0
8122,58.0,0,40,2.0,0.0
8123,62.0,6,40,2.0,0.0
8124,74.0,10,30,1.0,0.0
8125,70.0,0,30,0.0,0.0
8126,46.0,32,40,14.0,0.0
8127,70.0,0,30,1.0,0.0
8128,53.0,10,40,13.0,0.0
8129,53.0,16,30,14.0,0.0
8130,62.0,0,40,2.0,0.0
8131,58.0,38,40,2.0,0.0
8132,58.0,26,40,13.0,0.0
8133,62.0,0,40,2.0,0.0
8134,58.0,22,40,2.0,0.0
8135,62.0,32,40,13.0,0.0
8136,39.0,46,40,15.0,0.0
8137,51.0,6,40,2.0,0.0
8138,51.0,0,40,3.0,0.0
8139,63.0,0,30,2.0,0.0
8140,58.0,10,30,2.0,0.0
8141,42.0,10,40,14.0,0.0
8142,42.0,2,40,15.0,0.0
8143,51.0,38,40,2.0,0.0
8144,51.0,0,40,3.0,0.0
8145,46.0,26,40,14.0,0.0
8146,51.0,6,40,3.0,0.0
8147,51.0,0,40,2.0,0.0
8148,51.0,48,30,14.0,0.0
8149,49.0,0,30,2.0,0.0
8150,29.0,0,40,15.0,0.0
8151,37.0,64,40,3.0,0.0
8152,49.0,0,30,3.0,0.0
8153,46.0,10,30,3.0,0.0
8154,37.0,0,40,15.0,0.0
8155,37.0,64,40,3.0,0.0
8156,37.0,0,40,3.0,0.0
8157,37.0,54,40,15.0,0.0
8158,48.0,10,30,2.0,0.0
8159,29.0,64,40,15.0,0.0
8160,41.0,0,30,3.0,0.0
8161,48.0,0,30,3.0,0.0
8162,45.0,0,30,3.0,0.0
8163,29.0,64,40,15.0,0.0
8164,29.0,54,40,15.0,0.0
8165,46.0,0,30,2.0,0.0
8166,34.0,64,40,15.0,0.0
8167,41.0,0,30,3.0,0.0
8168,46.0,10,30,3.0,0.0
8169,34.0,64,40,15.0,0.0
8170,34.0,54,40,15.0,0.0
8171,34.0,124,30,15.0,0.0
8172,89.0,42,40,0.0,0.0
8173,77.0,12,15,11.0,0.0
8174,79.0,8,15,11.0,0.0
8175,81.0,8,15,11.0,0.0
8176,82.0,8,15,11.0,0.0
8177,84.0,0,15,11.0,0.0
8178,86.0,0,40,11.0,0.0
8179,82.0,6,40,12.0,0.0
8180,98.0,0,40,0.0,0.0
8181,58.0,32,40,14.0,0.0
8182,81.0,10,150,9.0,0.0
8183,77.0,0,40,12.0,0.0
8184,62.0,16,30,14.0,0.0
8185,62.0,10,40,13.0,0.0
8186,82.0,0,40,12.0,0.0
8187,77.0,38,40,12.0,0.0
8188,86.0,0,40,11.0,0.0
8189,98.0,0,40,0.0,0.0
8190,65.0,16,40,13.0,0.0
8191,98.0,22,40,0.0,0.0
8192,82.0,0,40,12.0,0.0
8193,77.0,0,40,12.0,0.0
8194,86.0,0,40,11.0,0.0
8195,70.0,32,40,13.0,0.0
8196,63.0,14,40,14.0,0.0
8197,75.0,6,40,1.0,0.0
8198,87.0,10,30,11.0,0.0
8199,75.0,18,60,0.0,0.0
8200,79.0,0,30,12.0,0.0
8201,99.0,0,30,0.0,0.0
8202,82.0,0,30,12.0,0.0
8203,67.0,16,30,14.0,0.0
8204,67.0,10,40,13.0,0.0
8205,70.0,38,40,1.0,0.0
8206,75.0,0,40,0.0,0.0
8207,67.0,0,40,1.0,0.0
8208,70.0,26,40,13.0,0.0
8209,67.0,0,40,1.0,0.0
8210,70.0,22,40,1.0,0.0
8211,75.0,0,40,0.0,0.0
8212,75.0,32,40,13.0,0.0
8213,65.0,0,40,2.0,0.0
8214,77.0,10,30,0.0,0.0
8215,70.0,0,30,1.0,0.0
8216,58.0,0,40,2.0,0.0
8217,46.0,32,40,14.0,0.0
8218,53.0,16,30,14.0,0.0
8219,53.0,10,40,13.0,0.0
8220,58.0,0,40,2.0,0.0
8221,65.0,0,40,2.0,0.0
8222,58.0,26,40,13.0,0.0
8223,65.0,22,40,2.0,0.0
8224,58.0,0,40,2.0,0.0
8225,62.0,32,40,13.0,0.0
8226,58.0,10,30,2.0,0.0
8227,54.0,6,40,3.0,0.0
8228,63.0,0,30,2.0,0.0
8229,46.0,0,40,14.0,0.0
8230,66.0,0,30,2.0,0.0
8231,39.0,32,40,15.0,0.0
8232,54.0,14,30,14.0,0.0
8233,46.0,12,40,15.0,0.0
8234,51.0,64,40,3.0,0.0
8235,54.0,0,40,3.0,0.0
8236,51.0,0,40,3.0,0.0
8237,54.0,54,40,3.0,0.0
8238,49.0,10,30,3.0,0.0
8239,53.0,0,30,3.0,0.0
8240,34.0,12,90,15.0,0.0
8241,41.0,52,40,14.0,0.0
8242,41.0,64,40,14.0,0.0
8243,41.0,54,40,14.0,0.0
8244,41.0,0,30,14.0,0.0
8245,46.0,10,30,3.0,0.0
8246,34.0,64,40,3.0,0.0
8247,49.0,0,30,3.0,0.0
8248,34.0,0,40,15.0,0.0
8249,34.0,64,40,3.0,0.0
8250,34.0,0,40,15.0,0.0
8251,34.0,0,40,15.0,0.0
8252,34.0,54,40,3.0,0.0
8253,29.0,64,40,15.0,0.0
8254,45.0,0,30,3.0,0.0
8255,41.0,10,30,3.0,0.0
8256,41.0,0,30,14.0,0.0
8257,48.0,0,30,3.0,0.0
8258,29.0,64,40,15.0,0.0
8259,29.0,54,40,15.0,0.0
8260,29.0,88,30,15.0,0.0
8261,77.0,24,20,11.0,0.0
8262,79.0,16,20,11.0,0.0
8263,89.0,0,40,0.0,0.0
8264,81.0,16,15,11.0,0.0
8265,77.0,0,90,12.0,0.0
8266,82.0,16,15,11.0,0.0
8267,84.0,42,15,11.0,0.0
8268,96.0,0,40,0.0,0.0
8269,53.0,32,40,14.0,0.0
8270,81.0,10,150,9.0,0.0
8271,60.0,10,40,13.0,0.0
8272,60.0,16,30,14.0,0.0
8273,77.0,0,40,12.0,0.0
8274,96.0,38,40,0.0,0.0
8275,84.0,0,40,11.0,0.0
8276,65.0,16,40,13.0,0.0
8277,84.0,0,40,11.0,0.0
8278,96.0,0,40,0.0,0.0
8279,77.0,22,40,12.0,0.0
8280,69.0,32,40,13.0,0.0
8281,61.0,0,40,1.0,0.0
8282,97.0,10,30,0.0,0.0
8283,73.0,0,30,12.0,0.0
8284,58.0,32,40,14.0,0.0
8285,70.0,6,40,0.0,0.0
8286,85.0,0,30,11.0,0.0
8287,61.0,10,40,13.0,0.0
8288,61.0,16,30,14.0,0.0
8289,70.0,38,40,0.0,0.0
8290,61.0,0,40,1.0,0.0
8291,65.0,26,40,13.0,0.0
8292,61.0,0,40,1.0,0.0
8293,70.0,22,40,0.0,0.0
8294,70.0,32,40,13.0,0.0
8295,53.0,0,40,13.0,0.0
8296,65.0,10,30,1.0,0.0
8297,72.0,0,30,0.0,0.0
8298,41.0,32,40,14.0,0.0
8299,60.0,0,40,2.0,0.0
8300,53.0,0,40,2.0,0.0
8301,48.0,26,30,14.0,0.0
8302,53.0,0,40,13.0,0.0
8303,60.0,64,40,2.0,0.0
8304,53.0,0,40,2.0,0.0
8305,60.0,54,40,2.0,0.0
8306,53.0,0,40,13.0,0.0
8307,53.0,0,40,2.0,0.0
8308,61.0,0,30,2.0,0.0
8309,58.0,0,30,13.0,0.0
8310,41.0,32,40,14.0,0.0
8311,41.0,0,40,3.0,0.0
8312,49.0,6,40,3.0,0.0
8313,37.0,0,40,3.0,0.0
8314,58.0,0,30,2.0,0.0
8315,34.0,0,40,15.0,0.0
8316,49.0,14,30,14.0,0.0
8317,41.0,12,40,15.0,0.0
8318,49.0,0,40,3.0,0.0
8319,37.0,54,40,3.0,0.0
8320,37.0,0,40,3.0,0.0
8321,49.0,6,40,3.0,0.0
8322,37.0,10,15,14.0,0.0
8323,39.0,16,15,14.0,0.0
8324,41.0,32,15,14.0,0.0
8325,42.0,10,30,3.0,0.0
8326,54.0,0,30,3.0,0.0
8327,42.0,64,40,14.0,0.0
8328,42.0,54,40,14.0,0.0
8329,42.0,6,40,14.0,0.0
8330,49.0,10,15,13.0,0.0
8331,51.0,16,15,13.0,0.0
8332,53.0,32,15,13.0,0.0
8333,46.0,10,30,14.0,0.0
8334,54.0,64,40,13.0,0.0
8335,54.0,54,40,13.0,0.0
8336,54.0,6,40,13.0,0.0
8337,61.0,10,15,12.0,0.0
8338,63.0,16,15,12.0,0.0
8339,65.0,32,15,12.0,0.0
8340,66.0,64,40,12.0,0.0
8341,58.0,10,30,13.0,0.0
8342,66.0,54,40,12.0,0.0
8343,66.0,6,40,12.0,0.0
8344,73.0,10,15,11.0,0.0
8345,75.0,16,15,11.0,0.0
8346,77.0,32,15,11.0,0.0
8347,78.0,64,40,11.0,0.0
8348,70.0,10,30,12.0,0.0
8349,78.0,54,40,11.0,0.0
8350,78.0,6,40,11.0,0.0
8351,41.0,10,15,14.0,0.0
8352,42.0,16,15,14.0,0.0
8353,45.0,32,15,14.0,0.0
8354,46.0,0,40,3.0,0.0
8355,82.0,10,30,11.0,0.0
8356,46.0,64,40,14.0,0.0
8357,46.0,50,40,3.0,0.0
8358,46.0,0,40,14.0,0.0
8359,46.0,0,40,14.0,0.0
8360,46.0,10,40,3.0,0.0
8361,53.0,12,15,13.0,0.0
8362,54.0,2,15,13.0,0.0
8363,57.0,12,15,13.0,0.0
8364,58.0,32,15,13.0,0.0
8365,48.0,10,30,14.0,0.0
8366,53.0,0,40,3.0,0.0
8367,60.0,0,40,3.0,0.0
8368,41.0,0,30,15.0,0.0
8369,48.0,0,30,3.0,0.0
8370,60.0,64,40,13.0,0.0
8371,60.0,0,40,3.0,0.0
8372,60.0,50,40,13.0,0.0
8373,53.0,0,40,3.0,0.0
8374,53.0,0,40,3.0,0.0
8375,60.0,0,40,3.0,0.0
8376,60.0,10,40,13.0,0.0
8377,65.0,12,15,12.0,0.0
8378,69.0,2,15,12.0,0.0
8379,70.0,12,15,12.0,0.0
8380,72.0,32,15,12.0,0.0
8381,61.0,0,30,3.0,0.0
8382,58.0,10,30,3.0,0.0
8383,61.0,0,30,13.0,0.0
8384,65.0,0,40,2.0,0.0
8385,73.0,0,40,12.0,0.0
8386,70.0,0,40,2.0,0.0
8387,65.0,0,40,2.0,0.0
8388,73.0,0,40,12.0,0.0
8389,73.0,0,40,12.0,0.0
8390,65.0,0,40,2.0,0.0
8391,70.0,6,40,2.0,0.0
8392,85.0,0,15,11.0,0.0
8393,73.0,0,15,0.0,0.0
8394,73.0,10,15,1.0,0.0
8395,85.0,0,15,0.0,0.0
8396,75.0,0,15,1.0,0.0
8397,75.0,0,15,0.0,0.0
8398,87.0,0,15,0.0,0.0
8399,87.0,0,15,11.0,0.0
8400,77.0,32,15,0.0,0.0
8401,77.0,0,15,1.0,0.0
8402,89.0,0,15,11.0,0.0
8403,89.0,0,15,0.0,0.0
8404,70.0,0,30,2.0,0.0
8405,90.0,0,40,11.0,0.0
8406,90.0,0,40,0.0,0.0
8407,78.0,0,40,0.0,0.0
8408,78.0,0,40,1.0,0.0
8409,82.0,64,40,12.0,0.0
8410,66.0,0,30,2.0,0.0
8411,75.0,10,30,2.0,0.0
8412,78.0,0,40,0.0,0.0
8413,78.0,0,40,1.0,0.0
8414,82.0,0,40,1.0,0.0
8415,90.0,0,40,0.0,0.0
8416,82.0,0,40,12.0,0.0
8417,90.0,0,40,11.0,0.0
8418,78.0,0,40,0.0,0.0
8419,90.0,0,40,0.0,0.0
8420,82.0,0,40,1.0,0.0
8421,90.0,54,40,11.0,0.0
8422,82.0,0,40,12.0,0.0
8423,78.0,0,40,1.0,0.0
8424,82.0,0,30,1.0,0.0
8425,77.0,0,30,1.0,0.0
8426,81.0,10,150,9.0,0.0
8427,85.0,10,30,0.0,0.0
8428,82.0,0,30,12.0,0.0
8429,85.0,0,30,12.0,0.0
8430,89.0,0,30,11.0,0.0
8431,89.0,0,30,0.0,0.0
8432,53.0,32,40,14.0,0.0
8433,65.0,0,40,2.0,0.0
8434,58.0,10,40,13.0,0.0
8435,58.0,16,30,14.0,0.0
8436,77.0,0,40,2.0,0.0
8437,65.0,0,40,2.0,0.0
8438,61.0,16,40,13.0,0.0
8439,77.0,22,40,2.0,0.0
8440,65.0,0,40,2.0,0.0
8441,65.0,32,40,13.0,0.0
8442,41.0,32,40,14.0,0.0
8443,65.0,6,40,2.0,0.0
8444,53.0,0,40,3.0,0.0
8445,72.0,0,30,2.0,0.0
8446,77.0,10,30,2.0,0.0
8447,48.0,16,30,14.0,0.0
8448,48.0,10,40,13.0,0.0
8449,41.0,0,40,3.0,0.0
8450,65.0,38,40,2.0,0.0
8451,53.0,0,40,3.0,0.0
8452,53.0,26,40,13.0,0.0
8453,41.0,0,40,3.0,0.0
8454,65.0,0,40,2.0,0.0
8455,53.0,22,40,3.0,0.0
8456,57.0,32,40,13.0,0.0
8457,65.0,6,40,2.0,0.0
8458,41.0,32,40,14.0,0.0
8459,46.0,0,40,3.0,0.0
8460,53.0,0,30,3.0,0.0
8461,58.0,10,30,3.0,0.0
8462,34.0,0,40,15.0,0.0
8463,46.0,26,30,14.0,0.0
8464,46.0,64,40,3.0,0.0
8465,46.0,0,40,15.0,0.0
8466,46.0,54,40,3.0,0.0
8467,46.0,0,40,15.0,0.0
8468,46.0,0,30,15.0,0.0
8469,46.0,88,30,3.0,0.0
8470,77.0,24,20,11.0,0.0
8471,79.0,16,20,11.0,0.0
8472,89.0,42,40,0.0,0.0
8473,77.0,6,90,12.0,0.0
8474,81.0,16,15,11.0,0.0
8475,82.0,16,15,11.0,0.0
8476,84.0,0,15,11.0,0.0
8477,96.0,0,40,0.0,0.0
8478,53.0,32,40,14.0,0.0
8479,84.0,0,40,11.0,0.0
8480,81.0,10,150,9.0,0.0
8481,60.0,16,30,14.0,0.0
8482,60.0,10,40,13.0,0.0
8483,96.0,0,40,0.0,0.0
8484,84.0,0,40,11.0,0.0
8485,77.0,38,40,12.0,0.0
8486,65.0,16,40,13.0,0.0
8487,96.0,0,40,0.0,0.0
8488,77.0,22,40,12.0,0.0
8489,84.0,0,40,11.0,0.0
8490,69.0,32,40,13.0,0.0
8491,73.0,0,30,12.0,0.0
8492,85.0,0,30,11.0,0.0
8493,61.0,0,40,1.0,0.0
8494,70.0,6,40,0.0,0.0
8495,97.0,10,30,0.0,0.0
8496,58.0,32,40,14.0,0.0
8497,61.0,10,40,13.0,0.0
8498,61.0,16,30,14.0,0.0
8499,61.0,38,40,1.0,0.0
8500,70.0,0,40,0.0,0.0
8501,65.0,26,40,13.0,0.0
8502,70.0,0,40,0.0,0.0
8503,61.0,22,40,1.0,0.0
8504,70.0,32,40,13.0,0.0
8505,41.0,32,40,14.0,0.0
8506,60.0,0,40,2.0,0.0
8507,53.0,0,40,2.0,0.0
8508,72.0,0,30,0.0,0.0
8509,53.0,0,40,13.0,0.0
8510,65.0,10,30,1.0,0.0
8511,48.0,26,30,14.0,0.0
8512,53.0,0,40,13.0,0.0
8513,60.0,0,40,2.0,0.0
8514,53.0,0,40,2.0,0.0
8515,60.0,0,40,2.0,0.0
8516,53.0,0,40,13.0,0.0
8517,53.0,0,40,2.0,0.0
8518,61.0,0,30,2.0,0.0
8519,58.0,10,30,13.0,0.0
8520,58.0,0,30,2.0,0.0
8521,34.0,32,40,15.0,0.0
8522,37.0,0,40,3.0,0.0
8523,41.0,0,40,14.0,0.0
8524,49.0,6,40,3.0,0.0
8525,41.0,0,40,3.0,0.0
8526,49.0,14,30,14.0,0.0
8527,41.0,12,40,15.0,0.0
8528,37.0,0,40,3.0,0.0
8529,49.0,54,40,3.0,0.0
8530,37.0,0,40,3.0,0.0
8531,49.0,6,40,3.0,0.0
8532,37.0,10,15,14.0,0.0
8533,39.0,16,15,14.0,0.0
8534,41.0,32,15,14.0,0.0
8535,42.0,10,30,3.0,0.0
8536,54.0,0,30,3.0,0.0
8537,42.0,64,40,14.0,0.0
8538,42.0,54,40,14.0,0.0
8539,42.0,6,40,14.0,0.0
8540,49.0,10,15,13.0,0.0
8541,51.0,16,15,13.0,0.0
8542,53.0,32,15,13.0,0.0
8543,46.0,10,30,14.0,0.0
8544,54.0,64,40,13.0,0.0
8545,54.0,54,40,13.0,0.0
8546,54.0,6,40,13.0,0.0
8547,61.0,10,15,12.0,0.0
8548,63.0,16,15,12.0,0.0
8549,65.0,32,15,12.0,0.0
8550,66.0,64,40,12.0,0.0
8551,58.0,10,30,13.0,0.0
8552,66.0,54,40,12.0,0.0
8553,66.0,6,40,12.0,0.0
8554,73.0,10,15,11.0,0.0
8555,75.0,16,15,11.0,0.0
8556,77.0,32,15,11.0,0.0
8557,70.0,10,30,12.0,0.0
8558,78.0,64,40,11.0,0.0
8559,78.0,54,40,11.0,0.0
8560,78.0,6,40,11.0,0.0
8561,41.0,10,15,14.0,0.0
8562,42.0,16,15,14.0,0.0
8563,45.0,32,15,14.0,0.0
8564,46.0,64,40,3.0,0.0
8565,46.0,0,40,14.0,0.0
8566,82.0,10,30,11.0,0.0
8567,46.0,0,40,14.0,0.0
8568,46.0,50,40,3.0,0.0
8569,46.0,10,40,14.0,0.0
8570,46.0,0,40,3.0,0.0
8571,53.0,12,15,13.0,0.0
8572,54.0,2,15,13.0,0.0
8573,57.0,12,15,13.0,0.0
8574,58.0,32,15,13.0,0.0
8575,53.0,64,40,3.0,0.0
8576,48.0,0,30,14.0,0.0
8577,60.0,0,40,13.0,0.0
8578,48.0,0,30,3.0,0.0
8579,41.0,10,30,15.0,0.0
8580,60.0,0,40,3.0,0.0
8581,53.0,0,40,3.0,0.0
8582,60.0,0,40,13.0,0.0
8583,60.0,50,40,3.0,0.0
8584,60.0,10,40,13.0,0.0
8585,53.0,0,40,3.0,0.0
8586,60.0,0,40,3.0,0.0
8587,65.0,12,15,12.0,0.0
8588,69.0,2,15,12.0,0.0
8589,70.0,12,15,12.0,0.0
8590,72.0,32,15,12.0,0.0
8591,73.0,0,40,12.0,0.0
8592,61.0,0,30,13.0,0.0
8593,65.0,0,40,2.0,0.0
8594,58.0,0,30,3.0,0.0
8595,61.0,10,30,3.0,0.0
8596,65.0,0,40,2.0,0.0
8597,73.0,54,40,12.0,0.0
8598,70.0,0,40,2.0,0.0
8599,70.0,0,40,2.0,0.0
8600,73.0,6,40,12.0,0.0
8601,65.0,0,40,2.0,0.0
8602,73.0,10,15,0.0,0.0
8603,85.0,0,15,11.0,0.0
8604,73.0,0,15,1.0,0.0
8605,85.0,0,15,0.0,0.0
8606,75.0,0,15,1.0,0.0
8607,75.0,0,15,0.0,0.0
8608,87.0,16,15,11.0,0.0
8609,87.0,0,15,0.0,0.0
8610,77.0,0,15,0.0,0.0
8611,89.0,0,15,0.0,0.0
8612,89.0,0,15,11.0,0.0
8613,77.0,32,15,1.0,0.0
8614,70.0,0,30,2.0,0.0
8615,75.0,10,30,2.0,0.0
8616,82.0,64,40,12.0,0.0
8617,78.0,0,40,1.0,0.0
8618,78.0,0,40,0.0,0.0
8619,66.0,0,30,2.0,0.0
8620,90.0,0,40,0.0,0.0
8621,90.0,0,40,11.0,0.0
8622,82.0,0,40,12.0,0.0
8623,78.0,0,40,1.0,0.0
8624,90.0,0,40,11.0,0.0
8625,82.0,64,40,1.0,0.0
8626,90.0,0,40,0.0,0.0
8627,78.0,0,40,0.0,0.0
8628,82.0,0,40,12.0,0.0
8629,78.0,0,40,1.0,0.0
8630,82.0,0,40,1.0,0.0
8631,78.0,0,40,0.0,0.0
8632,90.0,0,40,0.0,0.0
8633,90.0,0,40,11.0,0.0
8634,82.0,0,30,12.0,0.0
8635,85.0,0,30,12.0,0.0
8636,85.0,0,30,0.0,0.0
8637,53.0,32,40,14.0,0.0
8638,89.0,0,30,0.0,0.0
8639,82.0,0,30,1.0,0.0
8640,77.0,0,30,1.0,0.0
8641,81.0,10,150,9.0,0.0
8642,89.0,0,30,11.0,0.0
8643,65.0,0,40,2.0,0.0
8644,58.0,16,30,14.0,0.0
8645,58.0,10,40,13.0,0.0
8646,77.0,0,40,2.0,0.0
8647,65.0,0,40,2.0,0.0
8648,61.0,16,40,13.0,0.0
8649,77.0,0,40,2.0,0.0
8650,65.0,0,40,2.0,0.0
8651,65.0,32,40,13.0,0.0
8652,77.0,10,30,2.0,0.0
8653,72.0,0,30,2.0,0.0
8654,53.0,6,40,3.0,0.0
8655,41.0,32,40,14.0,0.0
8656,65.0,0,40,2.0,0.0
8657,48.0,16,30,14.0,0.0
8658,48.0,10,40,13.0,0.0
8659,41.0,0,40,3.0,0.0
8660,53.0,38,40,3.0,0.0
8661,65.0,0,40,2.0,0.0
8662,53.0,26,40,13.0,0.0
8663,53.0,0,40,3.0,0.0
8664,65.0,22,40,2.0,0.0
8665,41.0,0,40,3.0,0.0
8666,57.0,32,40,13.0,0.0
8667,41.0,32,40,14.0,0.0
8668,46.0,6,40,3.0,0.0
8669,65.0,0,40,2.0,0.0
8670,53.0,0,30,3.0,0.0
8671,58.0,10,30,3.0,0.0
8672,34.0,0,40,15.0,0.0
8673,46.0,26,30,14.0,0.0
8674,46.0,0,40,3.0,0.0
8675,46.0,64,40,15.0,0.0
8676,46.0,0,40,3.0,0.0
8677,46.0,54,40,15.0,0.0
8678,46.0,160,30,15.0,0.0
8679,46.0,0,30,3.0,0.0
8680,70.0,48,20,11.0,0.0
8681,62.0,48,40,14.0,0.0
8682,82.0,48,90,11.0,0.0
8683,65.0,0,40,14.0,0.0
8684,77.0,48,90,11.0,0.0
8685,62.0,48,40,14.0,0.0
8686,65.0,0,40,14.0,0.0
8687,57.0,48,40,14.0,0.0
8688,75.0,48,90,11.0,0.0
8689,65.0,0,40,14.0,0.0
8690,57.0,48,40,14.0,0.0
8691,72.0,0,90,11.0,0.0
8692,65.0,48,40,14.0,0.0
8693,74.0,0,90,11.0,0.0
8694,58.0,48,40,14.0,0.0
8695,65.0,48,40,14.0,0.0
8696,70.0,48,90,11.0,0.0
8697,58.0,48,40,14.0,0.0
8698,65.0,0,40,14.0,0.0
8699,55.0,48,40,14.0,0.0
8700,63.0,0,180,12.0,0.0
8701,75.0,48,90,11.0,0.0
8702,58.0,0,40,14.0,0.0
8703,72.0,0,90,11.0,0.0
8704,55.0,48,40,14.0,0.0
8705,58.0,48,40,14.0,0.0
8706,53.0,48,40,14.0,0.0
8707,74.0,48,90,11.0,0.0
8708,65.0,0,180,12.0,0.0
8709,58.0,0,40,14.0,0.0
8710,53.0,48,40,14.0,0.0
8711,70.0,0,90,11.0,0.0
8712,58.0,48,40,14.0,0.0
8713,75.0,0,90,11.0,0.0
8714,51.0,48,40,14.0,0.0
8715,66.0,48,180,12.0,0.0
8716,58.0,48,40,14.0,0.0
8717,72.0,0,90,11.0,0.0
8718,51.0,48,40,14.0,0.0
8719,58.0,0,40,14.0,0.0
8720,65.0,0,180,12.0,0.0
8721,46.0,48,40,14.0,0.0
8722,74.0,0,90,11.0,0.0
8723,58.0,48,40,14.0,0.0
8724,70.0,48,90,11.0,0.0
8725,46.0,48,40,14.0,0.0
8726,58.0,0,40,14.0,0.0
8727,41.0,48,40,14.0,0.0
8728,72.0,48,90,11.0,0.0
8729,48.0,0,40,14.0,0.0
8730,53.0,24,40,14.0,0.0
8731,65.0,24,60,11.0,0.0
8732,57.0,48,40,14.0,0.0
8733,74.0,0,20,11.0,0.0
8734,86.0,48,90,11.0,0.0
8735,65.0,48,40,14.0,0.0
8736,69.0,0,40,14.0,0.0
8737,81.0,0,90,11.0,0.0
8738,65.0,48,40,14.0,0.0
8739,69.0,48,40,14.0,0.0
8740,61.0,48,40,14.0,0.0
8741,69.0,0,390,12.0,0.0
8742,79.0,48,90,11.0,0.0
8743,64.0,0,40,14.0,0.0
8744,61.0,48,40,14.0,0.0
8745,76.0,0,90,11.0,0.0
8746,64.0,48,40,14.0,0.0
8747,77.0,48,90,11.0,0.0
8748,62.0,48,40,14.0,0.0
8749,65.0,0,40,14.0,0.0
8750,74.0,0,90,11.0,0.0
8751,62.0,48,40,14.0,0.0
8752,65.0,48,40,14.0,0.0
8753,79.0,0,90,11.0,0.0
8754,67.0,0,180,12.0,0.0
8755,58.0,48,40,14.0,0.0
8756,62.0,48,40,14.0,0.0
8757,76.0,0,90,11.0,0.0
8758,58.0,48,40,14.0,0.0
8759,62.0,48,40,14.0,0.0
8760,69.0,48,180,12.0,0.0
8761,77.0,0,90,11.0,0.0
8762,57.0,48,40,14.0,0.0
8763,62.0,48,40,14.0,0.0
8764,57.0,48,40,14.0,0.0
8765,74.0,0,90,11.0,0.0
8766,62.0,0,40,14.0,0.0
8767,77.0,48,90,11.0,0.0
8768,56.0,48,40,14.0,0.0
8769,71.0,0,180,12.0,0.0
8770,62.0,0,40,14.0,0.0
8771,56.0,48,40,14.0,0.0
8772,74.0,48,90,11.0,0.0
8773,65.0,0,40,14.0,0.0
8774,73.0,0,180,11.0,0.0
8775,57.0,48,40,14.0,0.0
8776,64.0,48,40,14.0,0.0
8777,57.0,48,40,14.0,0.0
8778,64.0,48,40,14.0,0.0
8779,69.0,0,15,12.0,0.0
8780,65.0,0,90,12.0,0.0
8781,41.0,48,40,14.0,0.0
8782,74.0,0,90,11.0,0.0
8783,48.0,48,40,14.0,0.0
8784,63.0,0,90,12.0,0.0
8785,72.0,24,60,11.0,0.0
8786,53.0,24,40,14.0,0.0
8787,57.0,0,40,14.0,0.0
8788,70.0,48,20,11.0,0.0
8789,62.0,48,40,14.0,0.0
8790,82.0,0,90,11.0,0.0
8791,65.0,48,40,14.0,0.0
8792,77.0,48,90,11.0,0.0
8793,62.0,48,40,14.0,0.0
8794,65.0,0,40,14.0,0.0
8795,57.0,48,40,14.0,0.0
8796,75.0,0,90,11.0,0.0
8797,65.0,48,40,14.0,0.0
8798,57.0,48,40,14.0,0.0
8799,72.0,48,90,11.0,0.0
8800,65.0,0,40,14.0,0.0
8801,74.0,48,90,11.0,0.0
8802,58.0,48,40,14.0,0.0
8803,65.0,0,40,14.0,0.0
8804,70.0,0,90,11.0,0.0
8805,58.0,48,40,14.0,0.0
8806,65.0,48,40,14.0,0.0
8807,55.0,48,40,14.0,0.0
8808,75.0,48,90,11.0,0.0
8809,63.0,0,180,12.0,0.0
8810,58.0,0,40,14.0,0.0
8811,55.0,48,40,14.0,0.0
8812,72.0,48,90,11.0,0.0
8813,58.0,0,40,14.0,0.0
8814,53.0,48,40,14.0,0.0
8815,74.0,0,90,11.0,0.0
8816,65.0,0,180,12.0,0.0
8817,58.0,48,40,14.0,0.0
8818,53.0,48,40,14.0,0.0
8819,70.0,0,90,11.0,0.0
8820,58.0,48,40,14.0,0.0
8821,66.0,0,180,12.0,0.0
8822,75.0,48,90,11.0,0.0
8823,51.0,48,40,14.0,0.0
8824,58.0,0,40,14.0,0.0
8825,51.0,48,40,14.0,0.0
8826,72.0,0,90,11.0,0.0
8827,58.0,48,40,14.0,0.0
8828,65.0,0,180,12.0,0.0
8829,74.0,0,90,11.0,0.0
8830,46.0,48,40,14.0,0.0
8831,58.0,48,40,14.0,0.0
8832,70.0,48,90,11.0,0.0
8833,46.0,48,40,14.0,0.0
8834,58.0,0,40,14.0,0.0
8835,72.0,48,90,11.0,0.0
8836,41.0,48,40,14.0,0.0
8837,48.0,0,40,14.0,0.0
8838,53.0,24,40,14.0,0.0
8839,65.0,24,60,11.0,0.0
8840,57.0,48,40,14.0,0.0
8841,74.0,0,20,11.0,0.0
8842,86.0,0,90,11.0,0.0
8843,65.0,48,40,14.0,0.0
8844,69.0,48,40,14.0,0.0
8845,81.0,48,90,11.0,0.0
8846,65.0,48,40,14.0,0.0
8847,69.0,0,40,14.0,0.0
8848,61.0,48,40,14.0,0.0
8849,79.0,0,90,11.0,0.0
8850,69.0,0,390,12.0,0.0
8851,64.0,48,40,14.0,0.0
8852,76.0,48,90,11.0,0.0
8853,61.0,48,40,14.0,0.0
8854,64.0,0,40,14.0,0.0
8855,77.0,48,90,11.0,0.0
8856,62.0,48,40,14.0,0.0
8857,65.0,0,40,14.0,0.0
8858,62.0,48,40,14.0,0.0
8859,74.0,0,90,11.0,0.0
8860,65.0,48,40,14.0,0.0
8861,58.0,48,40,14.0,0.0
8862,79.0,48,90,11.0,0.0
8863,67.0,48,180,12.0,0.0
8864,62.0,0,40,14.0,0.0
8865,76.0,0,90,11.0,0.0
8866,58.0,48,40,14.0,0.0
8867,62.0,0,40,14.0,0.0
8868,57.0,48,40,14.0,0.0
8869,77.0,48,90,11.0,0.0
8870,69.0,0,180,12.0,0.0
8871,62.0,0,40,14.0,0.0
8872,57.0,48,40,14.0,0.0
8873,74.0,0,90,11.0,0.0
8874,62.0,48,40,14.0,0.0
8875,77.0,48,90,11.0,0.0
8876,56.0,48,40,14.0,0.0
8877,71.0,0,180,12.0,0.0
8878,62.0,0,40,14.0,0.0
8879,56.0,48,40,14.0,0.0
8880,74.0,48,90,11.0,0.0
8881,65.0,0,40,14.0,0.0
8882,69.0,0,180,12.0,0.0
8883,57.0,48,40,14.0,0.0
8884,73.0,0,180,11.0,0.0
8885,64.0,48,40,14.0,0.0
8886,57.0,48,40,14.0,0.0
8887,64.0,48,40,14.0,0.0
8888,65.0,0,90,12.0,0.0
8889,74.0,0,90,11.0,0.0
8890,41.0,48,40,14.0,0.0
8891,48.0,48,40,14.0,0.0
8892,53.0,48,40,14.0,0.0
8893,72.0,0,90,11.0,0.0
8894,63.0,0,90,12.0,0.0
8895,57.0,0,40,14.0,0.0
8896,77.0,0,570,11.0,0.0
8897,69.0,48,15,12.0,0.0
8898,63.0,48,90,14.0,0.0
8899,65.0,0,40,12.0,0.0
8900,60.0,0,90,14.0,0.0
8901,69.0,48,40,12.0,0.0
8902,65.0,48,40,12.0,0.0
8903,57.0,48,90,14.0,0.0
8904,72.0,48,40,12.0,0.0
8905,65.0,0,40,12.0,0.0
8906,69.0,48,40,12.0,0.0
8907,51.0,0,90,14.0,0.0
8908,65.0,48,40,12.0,0.0
8909,50.0,0,90,14.0,0.0
8910,70.0,48,40,12.0,0.0
8911,65.0,48,40,12.0,0.0
8912,53.0,0,90,14.0,0.0
8913,74.0,48,40,12.0,0.0
8914,65.0,48,40,12.0,0.0
8915,58.0,48,90,14.0,0.0
8916,82.0,0,90,11.0,0.0
8917,82.0,48,40,12.0,0.0
8918,70.0,0,40,12.0,0.0
8919,80.0,48,40,12.0,0.0
8920,62.0,0,90,14.0,0.0
8921,80.0,48,90,11.0,0.0
8922,70.0,0,40,12.0,0.0
8923,51.0,0,180,13.0,0.0
8924,63.0,48,90,14.0,0.0
8925,79.0,48,40,12.0,0.0
8926,79.0,0,90,11.0,0.0
8927,67.0,0,40,12.0,0.0
8928,70.0,48,40,12.0,0.0
8929,61.0,0,90,14.0,0.0
8930,70.0,0,90,11.0,0.0
8931,67.0,48,40,12.0,0.0
8932,84.0,0,90,11.0,0.0
8933,52.0,48,180,13.0,0.0
8934,84.0,48,40,12.0,0.0
8935,60.0,0,90,14.0,0.0
8936,72.0,48,40,12.0,0.0
8937,82.0,48,40,12.0,0.0
8938,55.0,0,90,14.0,0.0
8939,82.0,0,90,11.0,0.0
8940,72.0,0,40,12.0,0.0
8941,81.0,0,90,11.0,0.0
8942,65.0,0,90,14.0,0.0
8943,81.0,48,40,12.0,0.0
8944,53.0,0,180,13.0,0.0
8945,69.0,48,40,12.0,0.0
8946,63.0,0,90,14.0,0.0
8947,72.0,0,90,11.0,0.0
8948,72.0,48,40,12.0,0.0
8949,69.0,48,40,12.0,0.0
8950,62.0,48,90,14.0,0.0
8951,86.0,0,90,11.0,0.0
8952,86.0,48,40,12.0,0.0
8953,54.0,0,180,13.0,0.0
8954,74.0,0,40,12.0,0.0
8955,84.0,48,40,12.0,0.0
8956,57.0,48,90,14.0,0.0
8957,84.0,0,90,11.0,0.0
8958,74.0,0,40,12.0,0.0
8959,70.0,0,180,12.0,0.0
8960,55.0,48,180,13.0,0.0
8961,67.0,48,90,14.0,0.0
8962,82.0,48,40,11.0,0.0
8963,79.0,0,40,11.0,0.0
8964,62.0,0,90,14.0,0.0
8965,82.0,48,40,11.0,0.0
8966,79.0,0,40,11.0,0.0
8967,77.0,48,40,11.0,0.0
8968,57.0,48,180,13.0,0.0
8969,60.0,48,90,14.0,0.0
8970,72.0,0,40,11.0,0.0
8971,77.0,48,40,11.0,0.0
8972,63.0,0,90,14.0,0.0
8973,72.0,0,40,11.0,0.0
8974,65.0,0,15,12.0,0.0
8975,62.0,48,180,14.0,0.0
8976,74.0,48,90,11.0,0.0
8977,58.0,48,40,13.0,0.0
8978,56.0,0,40,13.0,0.0
8979,58.0,48,40,13.0,0.0
8980,70.0,0,90,11.0,0.0
8981,56.0,0,40,13.0,0.0
8982,55.0,0,90,13.0,0.0
8983,63.0,0,180,12.0,0.0
8984,75.0,48,40,11.0,0.0
8985,72.0,48,40,11.0,0.0
8986,75.0,48,40,11.0,0.0
8987,54.0,0,90,13.0,0.0
8988,72.0,0,40,11.0,0.0
8989,58.0,48,15,14.0,0.0
8990,53.0,0,180,13.0,0.0
8991,62.0,0,180,12.0,0.0
8992,74.0,0,90,11.0,0.0
8993,56.0,48,40,14.0,0.0
8994,70.0,48,90,11.0,0.0
8995,58.0,48,40,14.0,0.0
8996,56.0,0,40,14.0,0.0
8997,55.0,0,90,14.0,0.0
8998,51.0,96,180,13.0,0.0
8999,63.0,0,180,12.0,0.0
9000,75.0,48,40,11.0,0.0
9001,70.0,48,40,11.0,0.0
9002,54.0,0,90,14.0,0.0
9003,75.0,48,40,11.0,0.0
9004,70.0,0,40,11.0,0.0
9005,53.0,0,180,13.0,0.0
9006,46.0,48,150,14.0,0.0
9007,62.0,0,180,12.0,0.0
9008,74.0,48,90,11.0,0.0
9009,70.0,48,90,11.0,0.0
9010,48.0,0,40,14.0,0.0
9011,50.0,48,40,14.0,0.0
9012,53.0,48,40,14.0,0.0
9013,58.0,48,40,14.0,0.0
9014,62.0,48,40,14.0,0.0
9015,69.0,48,40,12.0,0.0
9016,63.0,0,90,14.0,0.0
9017,77.0,48,570,11.0,0.0
9018,65.0,48,40,12.0,0.0
9019,60.0,0,90,14.0,0.0
9020,69.0,48,40,12.0,0.0
9021,65.0,48,40,12.0,0.0
9022,57.0,0,90,14.0,0.0
9023,72.0,48,40,12.0,0.0
9024,65.0,48,40,12.0,0.0
9025,51.0,0,90,14.0,0.0
9026,69.0,48,40,12.0,0.0
9027,65.0,48,40,12.0,0.0
9028,50.0,48,90,14.0,0.0
9029,70.0,48,40,12.0,0.0
9030,65.0,0,40,12.0,0.0
9031,74.0,48,40,12.0,0.0
9032,53.0,0,90,14.0,0.0
9033,65.0,0,40,12.0,0.0
9034,82.0,48,40,12.0,0.0
9035,58.0,0,90,14.0,0.0
9036,82.0,0,90,11.0,0.0
9037,70.0,48,40,12.0,0.0
9038,62.0,0,90,14.0,0.0
9039,80.0,0,90,11.0,0.0
9040,80.0,48,40,12.0,0.0
9041,70.0,48,40,12.0,0.0
9042,79.0,48,40,12.0,0.0
9043,63.0,48,90,14.0,0.0
9044,79.0,0,90,11.0,0.0
9045,51.0,0,180,13.0,0.0
9046,67.0,0,40,12.0,0.0
9047,70.0,48,40,12.0,0.0
9048,70.0,0,90,11.0,0.0
9049,61.0,48,90,14.0,0.0
9050,67.0,0,40,12.0,0.0
9051,84.0,0,90,11.0,0.0
9052,84.0,48,40,12.0,0.0
9053,52.0,0,180,13.0,0.0
9054,60.0,0,90,14.0,0.0
9055,72.0,48,40,12.0,0.0
9056,55.0,0,90,14.0,0.0
9057,82.0,0,90,11.0,0.0
9058,82.0,48,40,12.0,0.0
9059,72.0,48,40,12.0,0.0
9060,65.0,0,90,14.0,0.0
9061,81.0,48,90,11.0,0.0
9062,81.0,48,40,12.0,0.0
9063,53.0,0,180,13.0,0.0
9064,69.0,0,40,12.0,0.0
9065,72.0,48,90,11.0,0.0
9066,63.0,0,90,14.0,0.0
9067,72.0,48,40,12.0,0.0
9068,69.0,0,40,12.0,0.0
9069,86.0,48,90,11.0,0.0
9070,54.0,0,180,13.0,0.0
9071,86.0,48,40,12.0,0.0
9072,62.0,0,90,14.0,0.0
9073,74.0,0,40,12.0,0.0
9074,57.0,0,90,14.0,0.0
9075,84.0,48,40,12.0,0.0
9076,84.0,48,90,11.0,0.0
9077,74.0,0,40,12.0,0.0
9078,82.0,48,40,11.0,0.0
9079,67.0,0,90,14.0,0.0
9080,55.0,0,180,13.0,0.0
9081,70.0,0,180,12.0,0.0
9082,79.0,48,40,11.0,0.0
9083,62.0,0,90,14.0,0.0
9084,82.0,48,40,11.0,0.0
9085,79.0,48,40,11.0,0.0
9086,65.0,0,180,12.0,0.0
9087,60.0,48,90,14.0,0.0
9088,57.0,48,180,13.0,0.0
9089,77.0,48,40,11.0,0.0
9090,72.0,0,40,11.0,0.0
9091,77.0,48,40,11.0,0.0
9092,63.0,0,90,14.0,0.0
9093,72.0,0,40,11.0,0.0
9094,65.0,0,180,12.0,0.0
9095,62.0,0,180,14.0,0.0
9096,74.0,48,90,11.0,0.0
9097,58.0,48,40,13.0,0.0
9098,56.0,0,40,13.0,0.0
9099,58.0,48,40,13.0,0.0
9100,70.0,0,90,11.0,0.0
9101,56.0,48,40,13.0,0.0
9102,75.0,48,40,11.0,0.0
9103,55.0,48,90,13.0,0.0
9104,63.0,0,180,12.0,0.0
9105,72.0,0,40,11.0,0.0
9106,75.0,48,40,11.0,0.0
9107,54.0,48,90,13.0,0.0
9108,72.0,0,40,11.0,0.0
9109,58.0,0,15,14.0,0.0
9110,62.0,0,180,12.0,0.0
9111,53.0,0,180,13.0,0.0
9112,74.0,0,90,11.0,0.0
9113,56.0,48,40,14.0,0.0
9114,70.0,0,90,11.0,0.0
9115,58.0,48,40,14.0,0.0
9116,56.0,48,40,14.0,0.0
9117,63.0,0,180,12.0,0.0
9118,75.0,48,40,11.0,0.0
9119,55.0,48,90,14.0,0.0
9120,51.0,0,180,13.0,0.0
9121,70.0,0,40,11.0,0.0
9122,75.0,48,40,11.0,0.0
9123,54.0,96,90,14.0,0.0
9124,70.0,0,40,11.0,0.0
9125,62.0,0,180,12.0,0.0
9126,53.0,48,180,13.0,0.0
9127,74.0,48,90,11.0,0.0
9128,46.0,48,150,14.0,0.0
9129,70.0,0,90,11.0,0.0
9130,38.0,0,40,14.0,0.0
9131,41.0,48,40,14.0,0.0
9132,46.0,48,40,14.0,0.0
9133,50.0,48,40,14.0,0.0
9134,53.0,96,40,14.0,0.0
9135,50.0,0,180,14.0,0.0
9136,58.0,0,180,13.0,0.0
9137,79.0,96,40,1.0,0.0
9138,77.0,96,90,1.0,0.0
9139,60.0,0,180,13.0,0.0
9140,53.0,96,180,14.0,0.0
9141,79.0,96,40,1.0,0.0
9142,77.0,0,90,1.0,0.0
9143,62.0,48,180,13.0,0.0
9144,58.0,0,180,14.0,0.0
9145,79.0,48,40,1.0,0.0
9146,77.0,48,40,1.0,0.0
9147,75.0,0,40,1.0,0.0
9148,74.0,48,40,1.0,0.0
9149,72.0,48,40,1.0,0.0
9150,55.0,0,90,14.0,0.0
9151,70.0,48,40,1.0,0.0
9152,58.0,48,90,13.0,0.0
9153,75.0,0,40,1.0,0.0
9154,73.0,48,40,1.0,0.0
9155,58.0,48,180,13.0,0.0
9156,74.0,48,40,1.0,0.0
9157,65.0,48,40,1.0,0.0
9158,74.0,0,40,1.0,0.0
9159,71.0,48,40,1.0,0.0
9160,53.0,0,15,14.0,0.0
9161,57.0,48,180,13.0,0.0
9162,72.0,48,40,1.0,0.0
9163,65.0,48,40,1.0,0.0
9164,72.0,0,40,1.0,0.0
9165,46.0,48,180,14.0,0.0
9166,58.0,0,180,13.0,0.0
9167,69.0,48,40,1.0,0.0
9168,70.0,48,40,1.0,0.0
9169,62.0,48,40,1.0,0.0
9170,65.0,0,40,1.0,0.0
9171,70.0,48,40,1.0,0.0
9172,74.0,48,40,1.0,0.0
9173,53.0,0,90,14.0,0.0
9174,60.0,0,90,13.0,0.0
9175,77.0,48,40,1.0,0.0
9176,81.0,96,40,1.0,0.0
9177,58.0,96,180,14.0,0.0
9178,62.0,0,180,13.0,0.0
9179,84.0,96,40,1.0,0.0
9180,82.0,0,90,1.0,0.0
9181,63.0,0,180,13.0,0.0
9182,60.0,96,180,14.0,0.0
9183,84.0,96,40,1.0,0.0
9184,82.0,0,90,1.0,0.0
9185,62.0,48,180,14.0,0.0
9186,65.0,0,180,13.0,0.0
9187,84.0,48,40,1.0,0.0
9188,82.0,48,40,1.0,0.0
9189,81.0,0,40,1.0,0.0
9190,80.0,48,40,1.0,0.0
9191,79.0,48,40,1.0,0.0
9192,78.0,48,40,1.0,0.0
9193,70.0,0,90,13.0,0.0
9194,63.0,48,90,14.0,0.0
9195,82.0,0,40,1.0,0.0
9196,62.0,48,90,14.0,0.0
9197,70.0,48,180,13.0,0.0
9198,78.0,48,40,1.0,0.0
9199,77.0,0,40,1.0,0.0
9200,76.0,48,40,1.0,0.0
9201,61.0,0,90,14.0,0.0
9202,82.0,0,40,1.0,0.0
9203,60.0,48,90,14.0,0.0
9204,75.0,48,40,1.0,0.0
9205,74.0,0,40,1.0,0.0
9206,73.0,48,40,1.0,0.0
9207,58.0,0,90,14.0,0.0
9208,82.0,0,40,1.0,0.0
9209,73.0,48,40,1.0,0.0
9210,57.0,0,90,14.0,0.0
9211,65.0,48,15,13.0,0.0
9212,71.0,48,40,1.0,0.0
9213,72.0,48,40,1.0,0.0
9214,53.0,48,90,14.0,0.0
9215,77.0,0,40,1.0,0.0
9216,75.0,48,40,1.0,0.0
9217,72.0,48,40,1.0,0.0
9218,69.0,48,40,1.0,0.0
9219,65.0,96,40,1.0,0.0
9220,58.0,0,180,13.0,0.0
9221,50.0,96,180,14.0,0.0
9222,79.0,96,40,1.0,0.0
9223,77.0,0,90,1.0,0.0
9224,53.0,96,180,14.0,0.0
9225,60.0,0,180,13.0,0.0
9226,79.0,96,40,1.0,0.0
9227,77.0,0,90,1.0,0.0
9228,62.0,48,180,13.0,0.0
9229,58.0,0,180,14.0,0.0
9230,79.0,48,40,1.0,0.0
9231,77.0,48,40,1.0,0.0
9232,75.0,0,40,1.0,0.0
9233,74.0,48,40,1.0,0.0
9234,72.0,48,40,1.0,0.0
9235,58.0,0,90,13.0,0.0
9236,70.0,48,40,1.0,0.0
9237,55.0,0,90,14.0,0.0
9238,75.0,48,40,1.0,0.0
9239,73.0,48,40,1.0,0.0
9240,58.0,0,180,13.0,0.0
9241,74.0,48,40,1.0,0.0
9242,65.0,48,40,1.0,0.0
9243,74.0,0,40,1.0,0.0
9244,53.0,48,15,14.0,0.0
9245,57.0,48,180,13.0,0.0
9246,71.0,48,40,1.0,0.0
9247,72.0,48,40,1.0,0.0
9248,65.0,48,40,1.0,0.0
9249,72.0,0,40,1.0,0.0
9250,58.0,48,180,13.0,0.0
9251,46.0,0,180,14.0,0.0
9252,69.0,48,40,1.0,0.0
9253,70.0,48,40,1.0,0.0
9254,62.0,48,40,1.0,0.0
9255,65.0,0,40,1.0,0.0
9256,70.0,48,40,1.0,0.0
9257,74.0,48,40,1.0,0.0
9258,60.0,96,90,13.0,0.0
9259,53.0,0,90,14.0,0.0
9260,77.0,48,40,1.0,0.0
9261,81.0,0,40,1.0,0.0
9262,58.0,0,180,14.0,0.0
9263,62.0,96,180,13.0,0.0
9264,84.0,96,40,1.0,0.0
9265,82.0,0,90,1.0,0.0
9266,63.0,0,180,13.0,0.0
9267,60.0,0,180,14.0,0.0
9268,84.0,96,40,1.0,0.0
9269,82.0,96,90,1.0,0.0
9270,62.0,0,180,14.0,0.0
9271,65.0,0,180,13.0,0.0
9272,84.0,48,40,1.0,0.0
9273,82.0,48,40,1.0,0.0
9274,81.0,48,40,1.0,0.0
9275,80.0,48,40,1.0,0.0
9276,79.0,48,40,1.0,0.0
9277,78.0,48,40,1.0,0.0
9278,63.0,48,90,14.0,0.0
9279,82.0,0,40,1.0,0.0
9280,70.0,0,15,13.0,0.0
9281,62.0,48,90,14.0,0.0
9282,78.0,48,40,1.0,0.0
9283,77.0,0,40,1.0,0.0
9284,76.0,48,40,1.0,0.0
9285,61.0,48,90,14.0,0.0
9286,82.0,0,40,1.0,0.0
9287,65.0,48,180,13.0,0.0
9288,60.0,0,90,14.0,0.0
9289,75.0,48,40,1.0,0.0
9290,74.0,48,40,1.0,0.0
9291,58.0,0,90,14.0,0.0
9292,73.0,48,40,1.0,0.0
9293,82.0,0,40,1.0,0.0
9294,73.0,48,40,1.0,0.0
9295,57.0,48,90,14.0,0.0
9296,65.0,0,180,13.0,0.0
9297,71.0,0,40,1.0,0.0
9298,53.0,0,90,14.0,0.0
9299,72.0,48,40,1.0,0.0
9300,77.0,48,40,1.0,0.0
9301,75.0,48,40,1.0,0.0
9302,72.0,48,40,1.0,0.0
9303,69.0,48,40,1.0,0.0
9304,65.0,96,40,1.0,0.0
9305,53.0,96,180,14.0,0.0
9306,60.0,0,180,13.0,0.0
9307,78.0,96,40,1.0,0.0
9308,77.0,0,90,1.0,0.0
9309,61.0,0,180,13.0,0.0
9310,58.0,96,180,14.0,0.0
9311,78.0,96,40,1.0,0.0
9312,77.0,0,90,1.0,0.0
9313,60.0,0,180,13.0,0.0
9314,53.0,0,180,14.0,0.0
9315,78.0,48,40,1.0,0.0
9316,77.0,48,40,1.0,0.0
9317,76.0,48,40,1.0,0.0
9318,75.0,48,40,1.0,0.0
9319,74.0,48,40,1.0,0.0
9320,73.0,48,40,1.0,0.0
9321,46.0,0,90,14.0,0.0
9322,53.0,0,90,13.0,0.0
9323,72.0,48,40,1.0,0.0
9324,70.0,48,40,1.0,0.0
9325,51.0,0,180,14.0,0.0
9326,54.0,48,180,13.0,0.0
9327,71.0,48,40,1.0,0.0
9328,75.0,48,40,1.0,0.0
9329,71.0,0,40,1.0,0.0
9330,73.0,48,40,1.0,0.0
9331,56.0,0,180,13.0,0.0
9332,53.0,0,180,14.0,0.0
9333,74.0,48,40,1.0,0.0
9334,77.0,48,40,1.0,0.0
9335,58.0,0,180,13.0,0.0
9336,54.0,0,180,14.0,0.0
9337,74.0,48,15,1.0,0.0
9338,75.0,48,40,1.0,0.0
9339,78.0,48,40,1.0,0.0
9340,75.0,48,40,1.0,0.0
9341,78.0,48,40,1.0,0.0
9342,76.0,48,40,1.0,0.0
9343,60.0,0,90,13.0,0.0
9344,57.0,0,90,14.0,0.0
9345,78.0,48,40,1.0,0.0
9346,77.0,48,40,1.0,0.0
9347,62.0,0,180,13.0,0.0
9348,79.0,48,40,1.0,0.0
9349,58.0,48,180,14.0,0.0
9350,77.0,48,40,1.0,0.0
9351,79.0,48,40,1.0,0.0
9352,77.0,0,40,1.0,0.0
9353,57.0,0,180,14.0,0.0
9354,60.0,0,180,13.0,0.0
9355,63.0,48,180,13.0,0.0
9356,79.0,48,40,1.0,0.0
9357,77.0,48,40,1.0,0.0
9358,79.0,48,40,1.0,0.0
9359,77.0,0,40,1.0,0.0
9360,56.0,48,180,14.0,0.0
9361,84.0,48,40,1.0,0.0
9362,65.0,0,180,13.0,0.0
9363,58.0,0,180,14.0,0.0
9364,62.0,0,180,13.0,0.0
9365,82.0,48,40,1.0,0.0
9366,84.0,48,40,1.0,0.0
9367,82.0,0,40,1.0,0.0
9368,84.0,48,40,1.0,0.0
9369,55.0,48,150,14.0,0.0
9370,58.0,0,150,14.0,0.0
9371,82.0,48,40,1.0,0.0
9372,84.0,48,40,1.0,0.0
9373,63.0,0,90,13.0,0.0
9374,67.0,0,90,13.0,0.0
9375,82.0,0,40,1.0,0.0
9376,51.0,0,180,14.0,0.0
9377,81.0,48,40,1.0,0.0
9378,60.0,48,180,13.0,0.0
9379,80.0,48,40,1.0,0.0
9380,79.0,48,40,1.0,0.0
9381,78.0,0,40,1.0,0.0
9382,57.0,48,180,13.0,0.0
9383,53.0,0,180,14.0,0.0
9384,77.0,48,40,1.0,0.0
9385,76.0,48,40,1.0,0.0
9386,75.0,48,40,1.0,0.0
9387,72.0,0,40,1.0,0.0
9388,58.0,0,180,14.0,0.0
9389,46.0,0,180,14.0,0.0
9390,69.0,48,40,1.0,0.0
9391,58.0,0,180,13.0,0.0
9392,70.0,48,40,1.0,0.0
9393,65.0,48,40,1.0,0.0
9394,62.0,48,40,1.0,0.0
9395,58.0,48,40,1.0,0.0
9396,62.0,48,40,1.0,0.0
9397,65.0,48,40,1.0,0.0
9398,70.0,96,40,1.0,0.0
9399,53.0,0,180,14.0,0.0
9400,60.0,0,180,13.0,0.0
9401,78.0,96,40,1.0,0.0
9402,77.0,96,90,1.0,0.0
9403,58.0,96,180,14.0,0.0
9404,61.0,0,180,13.0,0.0
9405,78.0,96,40,1.0,0.0
9406,77.0,0,90,1.0,0.0
9407,60.0,0,180,13.0,0.0
9408,53.0,48,180,14.0,0.0
9409,78.0,48,40,1.0,0.0
9410,77.0,48,40,1.0,0.0
9411,76.0,0,40,1.0,0.0
9412,75.0,48,40,1.0,0.0
9413,74.0,48,40,1.0,0.0
9414,73.0,48,40,1.0,0.0
9415,46.0,48,90,14.0,0.0
9416,53.0,0,90,13.0,0.0
9417,72.0,0,40,1.0,0.0
9418,54.0,48,180,13.0,0.0
9419,51.0,0,180,14.0,0.0
9420,70.0,48,40,1.0,0.0
9421,71.0,48,40,1.0,0.0
9422,75.0,48,40,1.0,0.0
9423,71.0,0,40,1.0,0.0
9424,73.0,48,40,1.0,0.0
9425,56.0,48,180,13.0,0.0
9426,53.0,0,180,14.0,0.0
9427,74.0,48,40,1.0,0.0
9428,77.0,48,40,1.0,0.0
9429,74.0,0,15,1.0,0.0
9430,54.0,48,180,14.0,0.0
9431,58.0,0,180,13.0,0.0
9432,75.0,48,40,1.0,0.0
9433,78.0,48,40,1.0,0.0
9434,75.0,0,40,1.0,0.0
9435,78.0,48,40,1.0,0.0
9436,76.0,48,40,1.0,0.0
9437,78.0,48,40,1.0,0.0
9438,57.0,0,90,14.0,0.0
9439,60.0,0,90,13.0,0.0
9440,77.0,48,40,1.0,0.0
9441,62.0,0,180,13.0,0.0
9442,58.0,48,180,14.0,0.0
9443,79.0,48,40,1.0,0.0
9444,77.0,48,40,1.0,0.0
9445,79.0,48,40,1.0,0.0
9446,77.0,0,40,1.0,0.0
9447,79.0,48,40,1.0,0.0
9448,57.0,0,180,14.0,0.0
9449,63.0,0,180,13.0,0.0
9450,60.0,48,180,13.0,0.0
9451,77.0,48,40,1.0,0.0
9452,79.0,48,40,1.0,0.0
9453,77.0,0,40,1.0,0.0
9454,62.0,0,180,13.0,0.0
9455,58.0,0,180,14.0,0.0
9456,56.0,0,180,14.0,0.0
9457,84.0,48,40,1.0,0.0
9458,65.0,0,180,13.0,0.0
9459,82.0,48,40,1.0,0.0
9460,84.0,48,40,1.0,0.0
9461,82.0,48,40,1.0,0.0
9462,84.0,48,40,1.0,0.0
9463,58.0,0,150,14.0,0.0
9464,82.0,48,40,1.0,0.0
9465,55.0,0,150,14.0,0.0
9466,63.0,0,90,13.0,0.0
9467,84.0,48,40,1.0,0.0
9468,67.0,0,90,13.0,0.0
9469,82.0,48,40,1.0,0.0
9470,51.0,0,180,14.0,0.0
9471,60.0,48,180,13.0,0.0
9472,81.0,48,40,1.0,0.0
9473,80.0,48,40,1.0,0.0
9474,79.0,48,40,1.0,0.0
9475,78.0,0,40,1.0,0.0
9476,77.0,48,40,1.0,0.0
9477,53.0,0,180,14.0,0.0
9478,57.0,0,180,13.0,0.0
9479,76.0,48,40,1.0,0.0
9480,75.0,48,40,1.0,0.0
9481,72.0,48,40,1.0,0.0
9482,58.0,96,180,13.0,0.0
9483,58.0,0,180,14.0,0.0
9484,46.0,0,180,14.0,0.0
9485,69.0,48,40,1.0,0.0
9486,70.0,48,40,1.0,0.0
9487,65.0,48,40,1.0,0.0
9488,62.0,0,40,1.0,0.0
9489,58.0,180,90,1.0,0.0
9490,49.0,0,180,13.0,0.0
9491,49.0,0,180,2.0,0.0
9492,58.0,0,180,11.0,0.0
9493,58.0,0,180,12.0,0.0
9494,58.0,0,180,2.0,0.0
9495,70.0,32,150,10.0,0.0
9496,58.0,16,330,10.0,0.0
9497,46.0,0,120,14.0,0.0
9498,46.0,12,15,8.0,0.0
9499,34.0,0,120,3.0,0.0
9500,34.0,0,120,15.0,0.0
9501,46.0,64,15,8.0,0.0
9502,49.0,0,90,4.0,0.0
9503,58.0,0,90,4.0,0.0
9504,46.0,0,90,7.0,0.0
9505,46.0,0,90,4.0,0.0
9506,53.0,0,90,4.0,0.0
9507,46.0,0,90,3.0,0.0
9508,49.0,84,90,3.0,0.0
9509,70.0,32,150,10.0,0.0
9510,53.0,0,90,13.0,0.0
9511,61.0,0,90,12.0,0.0
9512,61.0,48,90,11.0,0.0
9513,61.0,0,90,2.0,0.0
9514,53.0,0,90,2.0,0.0
9515,29.0,0,120,15.0,0.0
9516,29.0,0,120,3.0,0.0
9517,41.0,0,120,14.0,0.0
9518,41.0,12,15,8.0,0.0
9519,48.0,0,90,3.0,0.0
9520,41.0,0,90,3.0,0.0
9521,41.0,0,90,7.0,0.0
9522,60.0,0,90,2.0,0.0
9523,51.0,0,90,13.0,0.0
9524,57.0,0,90,4.0,0.0
9525,60.0,0,90,12.0,0.0
9526,51.0,0,90,2.0,0.0
9527,48.0,0,90,4.0,0.0
9528,41.0,0,90,8.0,0.0
9529,53.0,0,90,4.0,0.0
9530,60.0,0,15,11.0,0.0
9531,60.0,96,90,2.0,0.0
9532,60.0,0,90,12.0,0.0
9533,51.0,0,90,2.0,0.0
9534,65.0,16,330,10.0,0.0
9535,51.0,0,90,13.0,0.0
9536,58.0,0,330,10.0,0.0
9537,34.0,0,120,3.0,0.0
9538,34.0,0,120,15.0,0.0
9539,46.0,0,120,14.0,0.0
9540,46.0,12,15,8.0,0.0
9541,49.0,0,90,13.0,0.0
9542,58.0,0,90,12.0,0.0
9543,58.0,0,90,11.0,0.0
9544,49.0,0,90,2.0,0.0
9545,53.0,48,90,4.0,0.0
9546,46.0,0,90,4.0,0.0
9547,46.0,0,15,8.0,0.0
9548,46.0,0,90,7.0,0.0
9549,46.0,0,90,3.0,0.0
9550,49.0,0,90,3.0,0.0
9551,49.0,0,90,4.0,0.0
9552,58.0,0,90,4.0,0.0
9553,58.0,0,90,2.0,0.0
9554,60.0,36,40,11.0,0.0
9555,51.0,0,40,2.0,0.0
9556,60.0,0,40,2.0,0.0
9557,60.0,0,40,12.0,0.0
9558,51.0,0,40,13.0,0.0
9559,61.0,0,40,2.0,0.0
9560,53.0,0,40,13.0,0.0
9561,61.0,0,40,12.0,0.0
9562,61.0,0,40,11.0,0.0
9563,53.0,32,40,2.0,0.0
9564,46.0,0,120,14.0,0.0
9565,27.0,0,120,15.0,0.0
9566,27.0,0,120,3.0,0.0
9567,46.0,12,15,8.0,0.0
9568,63.0,0,30,12.0,0.0
9569,46.0,0,90,3.0,0.0
9570,46.0,0,90,4.0,0.0
9571,63.0,0,30,11.0,0.0
9572,54.0,0,30,2.0,0.0
9573,63.0,16,30,2.0,0.0
9574,46.0,0,90,8.0,0.0
9575,54.0,0,30,13.0,0.0
9576,51.0,0,90,4.0,0.0
9577,39.0,84,90,7.0,0.0
9578,39.0,0,90,3.0,0.0
9579,61.0,0,30,12.0,0.0
9580,61.0,0,30,11.0,0.0
9581,53.0,0,30,13.0,0.0
9582,61.0,0,30,2.0,0.0
9583,53.0,32,30,2.0,0.0
9584,51.0,0,30,13.0,0.0
9585,51.0,0,30,2.0,0.0
9586,60.0,0,30,12.0,0.0
9587,60.0,0,15,11.0,0.0
9588,60.0,0,15,2.0,0.0
9589,51.0,0,90,2.0,0.0
9590,60.0,24,90,12.0,0.0
9591,51.0,0,90,13.0,0.0
9592,46.0,0,120,14.0,0.0
9593,41.0,12,15,8.0,0.0
9594,29.0,0,120,15.0,0.0
9595,29.0,0,120,3.0,0.0
9596,41.0,0,15,8.0,0.0
9597,41.0,0,90,7.0,0.0
9598,58.0,24,20,11.0,0.0
9599,49.0,0,90,13.0,0.0
9600,58.0,0,20,2.0,0.0
9601,46.0,0,90,3.0,0.0
9602,41.0,0,90,8.0,0.0
9603,49.0,0,90,2.0,0.0
9604,53.0,0,90,4.0,0.0
9605,41.0,24,90,3.0,0.0
9606,46.0,0,90,4.0,0.0
9607,58.0,0,20,12.0,0.0
9608,60.0,0,20,12.0,0.0
9609,60.0,24,20,11.0,0.0
9610,60.0,0,20,2.0,0.0
9611,58.0,0,20,12.0,0.0
9612,58.0,0,20,2.0,0.0
9613,58.0,24,20,11.0,0.0
9614,57.0,0,20,2.0,0.0
9615,57.0,0,20,11.0,0.0
9616,57.0,0,20,12.0,0.0
9617,58.0,84,20,11.0,0.0
9618,58.0,0,20,12.0,0.0
9619,58.0,0,20,2.0,0.0
9620,51.0,0,90,13.0,0.0
9621,60.0,0,90,12.0,0.0
9622,60.0,0,90,11.0,0.0
9623,60.0,0,90,2.0,0.0
9624,51.0,0,90,2.0,0.0
9625,48.0,0,120,14.0,0.0
9626,29.0,0,120,3.0,0.0
9627,41.0,12,15,8.0,0.0
9628,29.0,0,120,15.0,0.0
9629,48.0,0,90,4.0,0.0
9630,57.0,0,90,12.0,0.0
9631,48.0,0,90,2.0,0.0
9632,41.0,0,90,3.0,0.0
9633,41.0,96,15,8.0,0.0
9634,48.0,0,90,13.0,0.0
9635,53.0,0,90,4.0,0.0
9636,48.0,0,90,3.0,0.0
9637,57.0,0,90,11.0,0.0
9638,41.0,0,90,7.0,0.0
9639,57.0,0,90,2.0,0.0
9640,58.0,0,180,2.0,0.0
9641,49.0,0,180,2.0,0.0
9642,49.0,0,180,13.0,0.0
9643,58.0,0,180,12.0,0.0
9644,58.0,84,180,11.0,0.0
9645,46.0,12,15,8.0,0.0
9646,46.0,0,120,14.0,0.0
9647,34.0,0,120,15.0,0.0
9648,58.0,0,90,4.0,0.0
9649,46.0,96,15,8.0,0.0
9650,34.0,0,90,3.0,0.0
9651,46.0,0,90,7.0,0.0
9652,46.0,0,90,4.0,0.0
9653,46.0,0,90,3.0,0.0
9654,54.0,0,180,12.0,0.0
9655,51.0,0,180,13.0,0.0
9656,60.0,84,180,2.0,0.0
9657,54.0,0,180,2.0,0.0
9658,60.0,0,180,11.0,0.0
9659,44.0,0,120,14.0,0.0
9660,32.0,0,120,3.0,0.0
9661,48.0,12,15,8.0,0.0
9662,32.0,0,120,15.0,0.0
9663,48.0,96,15,8.0,0.0
9664,44.0,0,90,7.0,0.0
9665,44.0,0,90,4.0,0.0
9666,48.0,0,90,8.0,0.0
9667,56.0,0,90,4.0,0.0
9668,44.0,0,90,3.0,0.0
9669,56.0,0,180,2.0,0.0
9670,61.0,0,180,11.0,0.0
9671,53.0,84,180,13.0,0.0
9672,61.0,0,180,2.0,0.0
9673,56.0,0,180,12.0,0.0
9674,37.0,0,120,3.0,0.0
9675,37.0,0,120,15.0,0.0
9676,49.0,0,120,14.0,0.0
9677,41.0,12,15,8.0,0.0
9678,41.0,96,15,8.0,0.0
9679,41.0,0,90,8.0,0.0
9680,44.0,0,90,3.0,0.0
9681,49.0,0,90,4.0,0.0
9682,49.0,0,90,7.0,0.0
9683,56.0,0,90,4.0,0.0
9684,61.0,0,90,4.0,0.0
9685,53.0,0,90,4.0,0.0
9686,49.0,0,90,3.0,0.0
9687,65.0,0,90,11.0,0.0
9688,65.0,96,90,12.0,0.0
9689,56.0,0,90,2.0,0.0
9690,65.0,0,90,2.0,0.0
9691,56.0,0,90,13.0,0.0
9692,44.0,0,120,14.0,0.0
9693,48.0,12,15,8.0,0.0
9694,32.0,0,120,15.0,0.0
9695,32.0,0,120,3.0,0.0
9696,56.0,0,90,4.0,0.0
9697,44.0,0,90,3.0,0.0
9698,48.0,0,15,8.0,0.0
9699,44.0,84,90,7.0,0.0
9700,44.0,0,90,4.0,0.0
9701,63.0,0,15,12.0,0.0
9702,63.0,0,15,11.0,0.0
9703,63.0,0,15,2.0,0.0
9704,54.0,0,15,13.0,0.0
9705,54.0,0,15,2.0,0.0
9706,37.0,0,120,15.0,0.0
9707,49.0,0,120,14.0,0.0
9708,41.0,12,15,8.0,0.0
9709,37.0,0,120,3.0,0.0
9710,41.0,0,15,8.0,0.0
9711,53.0,64,90,13.0,0.0
9712,44.0,0,90,3.0,0.0
9713,49.0,0,90,3.0,0.0
9714,61.0,0,90,12.0,0.0
9715,61.0,0,90,11.0,0.0
9716,49.0,0,90,7.0,0.0
9717,41.0,0,90,8.0,0.0
9718,61.0,0,90,2.0,0.0
9719,61.0,0,90,4.0,0.0
9720,53.0,0,90,2.0,0.0
9721,49.0,0,90,4.0,0.0
9722,56.0,0,90,4.0,0.0
9723,58.0,0,60,13.0,0.0
9724,66.0,44,60,2.0,0.0
9725,66.0,0,60,11.0,0.0
9726,66.0,0,60,12.0,0.0
9727,58.0,0,60,2.0,0.0
9728,56.0,0,60,13.0,0.0
9729,65.0,0,60,2.0,0.0
9730,65.0,64,60,11.0,0.0
9731,65.0,0,60,12.0,0.0
9732,56.0,0,60,2.0,0.0
9733,30.0,0,120,3.0,0.0
9734,30.0,0,120,15.0,0.0
9735,42.0,0,120,14.0,0.0
9736,42.0,0,90,3.0,0.0
9737,54.0,0,90,4.0,0.0
9738,42.0,0,90,7.0,0.0
9739,46.0,12,15,8.0,0.0
9740,46.0,8,15,8.0,0.0
9741,46.0,84,60,8.0,0.0
9742,63.0,0,60,12.0,0.0
9743,54.0,0,60,13.0,0.0
9744,63.0,0,60,11.0,0.0
9745,63.0,0,60,2.0,0.0
9746,54.0,0,60,2.0,0.0
9747,66.0,0,90,11.0,0.0
9748,66.0,0,90,2.0,0.0
9749,66.0,0,90,12.0,0.0
9750,58.0,0,90,2.0,0.0
9751,58.0,0,90,13.0,0.0
9752,49.0,0,120,14.0,0.0
9753,37.0,0,120,15.0,0.0
9754,48.0,12,15,8.0,0.0
9755,65.0,0,90,11.0,0.0
9756,49.0,0,90,4.0,0.0
9757,65.0,0,90,12.0,0.0
9758,56.0,0,90,2.0,0.0
9759,65.0,0,90,2.0,0.0
9760,37.0,0,90,3.0,0.0
9761,61.0,0,90,4.0,0.0
9762,49.0,0,90,3.0,0.0
9763,56.0,0,90,13.0,0.0
9764,48.0,0,90,8.0,0.0
9765,49.0,0,90,7.0,0.0
9766,63.0,0,90,2.0,0.0
9767,63.0,0,90,12.0,0.0
9768,60.0,0,90,13.0,0.0
9769,63.0,0,90,11.0,0.0
9770,60.0,0,90,2.0,0.0
9771,34.0,0,120,15.0,0.0
9772,34.0,0,120,3.0,0.0
9773,46.0,0,120,14.0,0.0
9774,41.0,12,15,8.0,0.0
9775,61.0,0,90,12.0,0.0
9776,46.0,0,90,4.0,0.0
9777,41.0,0,90,3.0,0.0
9778,58.0,0,90,13.0,0.0
9779,41.0,96,15,8.0,0.0
9780,58.0,0,90,2.0,0.0
9781,46.0,0,90,7.0,0.0
9782,61.0,0,90,2.0,0.0
9783,46.0,0,90,3.0,0.0
9784,61.0,0,90,11.0,0.0
9785,53.0,0,90,4.0,0.0
9786,58.0,0,90,4.0,0.0
9787,60.0,0,180,2.0,0.0
9788,60.0,0,240,12.0,0.0
9789,57.0,0,180,2.0,0.0
9790,57.0,36,240,13.0,0.0
9791,60.0,0,240,11.0,0.0
9792,53.0,0,120,14.0,0.0
9793,41.0,0,120,3.0,0.0
9794,41.0,48,120,15.0,0.0
9795,48.0,12,15,8.0,0.0
9796,53.0,0,90,3.0,0.0
9797,48.0,0,90,3.0,0.0
9798,53.0,0,90,7.0,0.0
9799,60.0,0,90,4.0,0.0
9800,57.0,0,90,4.0,0.0
9801,65.0,0,90,4.0,0.0
9802,53.0,0,90,4.0,0.0
9803,48.0,96,15,8.0,0.0
9804,29.0,0,120,15.0,0.0
9805,41.0,0,120,14.0,0.0
9806,29.0,0,120,3.0,0.0
9807,41.0,12,15,8.0,0.0
9808,60.0,0,90,4.0,0.0
9809,41.0,0,90,7.0,0.0
9810,53.0,0,90,4.0,0.0
9811,57.0,0,90,4.0,0.0
9812,41.0,24,15,8.0,0.0
9813,65.0,0,90,4.0,0.0
9814,41.0,0,90,3.0,0.0
9815,36.0,24,90,3.0,0.0
9816,65.0,24,20,11.0,0.0
9817,64.0,24,20,11.0,0.0
9818,65.0,24,20,11.0,0.0
9819,66.0,0,20,11.0,0.0
9820,69.0,84,20,11.0,0.0
9821,61.0,0,180,12.0,0.0
9822,70.0,0,180,11.0,0.0
9823,70.0,0,180,2.0,0.0
9824,70.0,32,150,10.0,0.0
9825,61.0,0,180,2.0,0.0
9826,70.0,0,180,1.0,0.0
9827,61.0,84,180,1.0,0.0
9828,58.0,16,330,10.0,0.0
9829,49.0,0,120,3.0,0.0
9830,46.0,0,120,3.0,0.0
9831,53.0,0,120,3.0,0.0
9832,58.0,0,120,14.0,0.0
9833,46.0,0,120,15.0,0.0
9834,46.0,12,15,8.0,0.0
9835,61.0,0,90,6.0,0.0
9836,46.0,64,15,8.0,0.0
9837,58.0,0,90,2.0,0.0
9838,58.0,0,90,6.0,0.0
9839,53.0,0,90,6.0,0.0
9840,58.0,0,90,7.0,0.0
9841,65.0,0,90,12.0,0.0
9842,73.0,0,90,11.0,0.0
9843,70.0,32,150,10.0,0.0
9844,65.0,0,90,1.0,0.0
9845,73.0,0,90,1.0,0.0
9846,73.0,0,90,2.0,0.0
9847,65.0,0,90,2.0,0.0
9848,41.0,0,120,15.0,0.0
9849,41.0,0,120,3.0,0.0
9850,53.0,84,120,14.0,0.0
9851,53.0,0,120,3.0,0.0
9852,48.0,0,120,3.0,0.0
9853,41.0,12,15,8.0,0.0
9854,72.0,0,90,1.0,0.0
9855,53.0,0,90,6.0,0.0
9856,53.0,0,90,7.0,0.0
9857,57.0,0,90,2.0,0.0
9858,41.0,48,15,8.0,0.0
9859,72.0,0,90,11.0,0.0
9860,60.0,0,90,6.0,0.0
9861,63.0,0,90,2.0,0.0
9862,63.0,0,90,12.0,0.0
9863,57.0,0,90,6.0,0.0
9864,63.0,0,15,1.0,0.0
9865,72.0,0,90,1.0,0.0
9866,72.0,0,90,11.0,0.0
9867,63.0,0,90,12.0,0.0
9868,58.0,16,330,10.0,0.0
9869,65.0,0,330,10.0,0.0
9870,72.0,0,15,2.0,0.0
9871,63.0,0,90,2.0,0.0
9872,58.0,0,120,14.0,0.0
9873,46.0,0,120,15.0,0.0
9874,46.0,12,15,8.0,0.0
9875,49.0,0,120,3.0,0.0
9876,53.0,0,120,3.0,0.0
9877,46.0,0,120,3.0,0.0
9878,46.0,0,15,8.0,0.0
9879,61.0,0,90,12.0,0.0
9880,46.0,0,90,8.0,0.0
9881,70.0,0,90,11.0,0.0
9882,58.0,0,90,6.0,0.0
9883,70.0,0,90,2.0,0.0
9884,58.0,0,90,2.0,0.0
9885,61.0,0,90,2.0,0.0
9886,58.0,0,90,7.0,0.0
9887,70.0,0,90,1.0,0.0
9888,61.0,0,90,1.0,0.0
9889,53.0,48,90,6.0,0.0
9890,63.0,0,40,12.0,0.0
9891,63.0,0,40,1.0,0.0
9892,72.0,36,40,2.0,0.0
9893,63.0,0,40,2.0,0.0
9894,72.0,0,40,1.0,0.0
9895,72.0,0,40,11.0,0.0
9896,73.0,0,40,11.0,0.0
9897,73.0,0,40,2.0,0.0
9898,65.0,0,40,1.0,0.0
9899,73.0,0,40,1.0,0.0
9900,65.0,0,40,12.0,0.0
9901,65.0,32,40,2.0,0.0
9902,46.0,12,15,8.0,0.0
9903,39.0,0,120,3.0,0.0
9904,51.0,0,120,14.0,0.0
9905,39.0,0,120,15.0,0.0
9906,46.0,84,120,3.0,0.0
9907,42.0,0,120,3.0,0.0
9908,51.0,0,90,7.0,0.0
9909,66.0,0,30,12.0,0.0
9910,75.0,0,30,11.0,0.0
9911,66.0,0,30,1.0,0.0
9912,75.0,0,30,1.0,0.0
9913,46.0,0,15,8.0,0.0
9914,75.0,0,30,2.0,0.0
9915,66.0,16,30,2.0,0.0
9916,51.0,0,90,6.0,0.0
9917,42.0,0,90,6.0,0.0
9918,51.0,0,90,2.0,0.0
9919,65.0,0,30,12.0,0.0
9920,65.0,0,30,1.0,0.0
9921,73.0,0,30,11.0,0.0
9922,73.0,32,30,1.0,0.0
9923,65.0,0,30,2.0,0.0
9924,73.0,0,30,2.0,0.0
9925,63.0,0,30,2.0,0.0
9926,72.0,0,30,2.0,0.0
9927,63.0,0,15,12.0,0.0
9928,72.0,0,15,1.0,0.0
9929,63.0,0,15,1.0,0.0
9930,63.0,0,90,2.0,0.0
9931,72.0,0,90,2.0,0.0
9932,72.0,0,15,11.0,0.0
9933,46.0,0,120,3.0,0.0
9934,49.0,0,120,3.0,0.0
9935,41.0,24,120,3.0,0.0
9936,53.0,0,120,14.0,0.0
9937,41.0,0,120,15.0,0.0
9938,41.0,12,15,8.0,0.0
9939,70.0,0,20,11.0,0.0
9940,53.0,0,90,6.0,0.0
9941,61.0,0,90,2.0,0.0
9942,53.0,0,90,2.0,0.0
9943,41.0,0,90,8.0,0.0
9944,49.0,0,90,6.0,0.0
9945,70.0,0,20,2.0,0.0
9946,58.0,0,90,6.0,0.0
9947,53.0,0,90,7.0,0.0
9948,61.0,0,90,12.0,0.0
9949,70.0,24,20,1.0,0.0
9950,61.0,0,90,1.0,0.0
9951,72.0,0,20,2.0,0.0
9952,72.0,0,20,1.0,0.0
9953,72.0,24,20,11.0,0.0
9954,70.0,0,20,1.0,0.0
9955,70.0,0,20,11.0,0.0
9956,70.0,24,20,2.0,0.0
9957,69.0,0,20,1.0,0.0
9958,69.0,0,20,11.0,0.0
9959,69.0,0,20,2.0,0.0
9960,70.0,84,20,2.0,0.0
9961,70.0,0,20,11.0,0.0
9962,70.0,0,20,1.0,0.0
9963,72.0,0,90,11.0,0.0
9964,63.0,0,90,12.0,0.0
9965,63.0,0,90,1.0,0.0
9966,72.0,96,90,1.0,0.0
9967,72.0,0,90,2.0,0.0
9968,63.0,0,90,2.0,0.0
9969,29.0,0,120,3.0,0.0
9970,36.0,0,120,14.0,0.0
9971,29.0,0,120,15.0,0.0
9972,41.0,0,120,3.0,0.0
9973,36.0,0,120,3.0,0.0
9974,41.0,12,15,8.0,0.0
9975,41.0,0,90,2.0,0.0
9976,60.0,0,90,12.0,0.0
9977,69.0,0,90,11.0,0.0
9978,41.0,0,90,8.0,0.0
9979,53.0,0,90,6.0,0.0
9980,48.0,0,90,6.0,0.0
9981,60.0,0,90,2.0,0.0
9982,69.0,84,90,2.0,0.0
9983,41.0,0,90,7.0,0.0
9984,69.0,0,90,1.0,0.0
9985,60.0,0,90,1.0,0.0
9986,70.0,0,180,2.0,0.0
9987,70.0,0,180,1.0,0.0
9988,61.0,0,180,1.0,0.0
9989,61.0,0,180,12.0,0.0
9990,61.0,0,180,2.0,0.0
9991,70.0,0,180,11.0,0.0
9992,46.0,12,15,8.0,0.0
9993,34.0,0,120,3.0,0.0
9994,34.0,0,120,15.0,0.0
9995,41.0,0,120,3.0,0.0
9996,37.0,84,120,3.0,0.0
9997,46.0,0,120,14.0,0.0
9998,46.0,96,15,8.0,0.0
9999,46.0,0,90,6.0,0.0
10000,46.0,0,90,7.0,0.0
10001,46.0,0,90,2.0,0.0
10002,49.0,0,90,6.0,0.0
10003,72.0,0,180,11.0,0.0
10004,72.0,0,180,2.0,0.0
10005,72.0,0,180,1.0,0.0
10006,63.0,0,180,2.0,0.0
10007,63.0,0,180,12.0,0.0
10008,66.0,84,180,12.0,0.0
10009,63.0,0,180,1.0,0.0
10010,39.0,0,120,3.0,0.0
10011,32.0,0,120,15.0,0.0
10012,39.0,0,120,14.0,0.0
10013,32.0,0,120,3.0,0.0
10014,48.0,12,15,8.0,0.0
10015,44.0,0,120,3.0,0.0
10016,44.0,0,90,6.0,0.0
10017,48.0,96,15,8.0,0.0
10018,44.0,0,90,7.0,0.0
10019,44.0,0,90,2.0,0.0
10020,65.0,0,180,2.0,0.0
10021,73.0,0,180,1.0,0.0
10022,65.0,0,180,1.0,0.0
10023,73.0,84,180,11.0,0.0
10024,73.0,0,180,2.0,0.0
10025,65.0,0,180,12.0,0.0
10026,44.0,0,120,3.0,0.0
10027,49.0,0,120,14.0,0.0
10028,41.0,12,15,8.0,0.0
10029,37.0,0,120,3.0,0.0
10030,37.0,0,120,15.0,0.0
10031,41.0,0,120,3.0,0.0
10032,41.0,96,15,8.0,0.0
10033,41.0,0,90,8.0,0.0
10034,53.0,0,90,6.0,0.0
10035,49.0,0,90,2.0,0.0
10036,44.0,0,90,6.0,0.0
10037,49.0,0,90,6.0,0.0
10038,49.0,0,90,7.0,0.0
10039,68.0,0,15,12.0,0.0
10040,68.0,0,90,1.0,0.0
10041,77.0,0,90,1.0,0.0
10042,68.0,0,90,2.0,0.0
10043,77.0,0,90,2.0,0.0
10044,77.0,96,90,11.0,0.0
10045,32.0,84,120,15.0,0.0
10046,48.0,12,15,8.0,0.0
10047,32.0,0,120,3.0,0.0
10048,44.0,0,120,3.0,0.0
10049,44.0,0,120,14.0,0.0
10050,44.0,0,90,7.0,0.0
10051,75.0,0,90,2.0,0.0
10052,44.0,0,90,6.0,0.0
10053,48.0,0,15,8.0,0.0
10054,44.0,0,90,2.0,0.0
10055,66.0,0,15,2.0,0.0
10056,75.0,0,15,11.0,0.0
10057,75.0,96,90,2.0,0.0
10058,66.0,0,15,12.0,0.0
10059,75.0,0,15,1.0,0.0
10060,66.0,0,15,1.0,0.0
10061,44.0,0,120,14.0,0.0
10062,37.0,0,120,3.0,0.0
10063,37.0,0,120,15.0,0.0
10064,44.0,0,120,3.0,0.0
10065,41.0,12,15,8.0,0.0
10066,41.0,0,15,8.0,0.0
10067,73.0,0,90,2.0,0.0
10068,49.0,0,90,7.0,0.0
10069,49.0,0,90,6.0,0.0
10070,73.0,0,90,11.0,0.0
10071,73.0,0,90,1.0,0.0
10072,65.0,0,90,1.0,0.0
10073,65.0,0,90,2.0,0.0
10074,65.0,0,90,12.0,0.0
10075,49.0,0,90,2.0,0.0
10076,44.0,0,90,6.0,0.0
10077,70.0,0,60,12.0,0.0
10078,78.0,20,60,11.0,0.0
10079,70.0,0,60,2.0,0.0
10080,78.0,0,60,2.0,0.0
10081,70.0,0,60,1.0,0.0
10082,78.0,0,60,1.0,0.0
10083,68.0,0,60,1.0,0.0
10084,77.0,64,60,2.0,0.0
10085,77.0,0,60,1.0,0.0
10086,68.0,0,60,12.0,0.0
10087,77.0,0,60,11.0,0.0
10088,68.0,0,60,2.0,0.0
10089,46.0,12,15,8.0,0.0
10090,30.0,0,120,15.0,0.0
10091,30.0,0,120,3.0,0.0
10092,34.0,0,120,3.0,0.0
10093,42.0,0,120,14.0,0.0
10094,42.0,0,120,3.0,0.0
10095,42.0,0,90,2.0,0.0
10096,42.0,0,90,6.0,0.0
10097,46.0,32,15,8.0,0.0
10098,42.0,0,90,7.0,0.0
10099,46.0,0,90,6.0,0.0
10100,75.0,0,60,2.0,0.0
10101,66.0,84,60,2.0,0.0
10102,66.0,0,60,12.0,0.0
10103,75.0,0,60,1.0,0.0
10104,66.0,0,60,1.0,0.0
10105,75.0,0,60,11.0,0.0
10106,70.0,0,90,12.0,0.0
10107,78.0,96,90,11.0,0.0
10108,78.0,0,90,2.0,0.0
10109,70.0,0,90,2.0,0.0
10110,78.0,0,90,1.0,0.0
10111,70.0,0,90,1.0,0.0
10112,44.0,0,120,3.0,0.0
10113,44.0,0,120,14.0,0.0
10114,37.0,0,120,15.0,0.0
10115,37.0,0,120,3.0,0.0
10116,41.0,12,15,8.0,0.0
10117,49.0,0,90,7.0,0.0
10118,44.0,0,90,6.0,0.0
10119,68.0,0,90,1.0,0.0
10120,77.0,0,90,1.0,0.0
10121,68.0,0,90,12.0,0.0
10122,41.0,0,90,8.0,0.0
10123,49.0,0,90,2.0,0.0
10124,68.0,0,90,2.0,0.0
10125,77.0,0,90,2.0,0.0
10126,77.0,0,90,11.0,0.0
10127,49.0,0,90,6.0,0.0
10128,72.0,0,90,12.0,0.0
10129,75.0,0,90,2.0,0.0
10130,72.0,96,90,2.0,0.0
10131,72.0,0,90,1.0,0.0
10132,75.0,0,90,11.0,0.0
10133,75.0,0,90,1.0,0.0
10134,49.0,0,120,14.0,0.0
10135,34.0,84,120,15.0,0.0
10136,34.0,0,120,3.0,0.0
10137,41.0,0,120,3.0,0.0
10138,46.0,12,15,8.0,0.0
10139,70.0,0,90,1.0,0.0
10140,46.0,0,90,6.0,0.0
10141,73.0,0,90,1.0,0.0
10142,73.0,0,90,2.0,0.0
10143,70.0,0,90,12.0,0.0
10144,73.0,0,90,11.0,0.0
10145,49.0,0,90,2.0,0.0
10146,70.0,0,90,2.0,0.0
10147,46.0,0,15,8.0,0.0
10148,49.0,0,90,6.0,0.0
10149,46.0,0,90,7.0,0.0
10150,69.0,0,300,1.0,0.0
10151,72.0,0,300,1.0,0.0
10152,72.0,0,300,2.0,0.0
10153,72.0,0,300,11.0,0.0
10154,70.0,32,150,10.0,0.0
10155,65.0,0,300,12.0,0.0
10156,58.0,16,330,10.0,0.0
10157,65.0,0,300,2.0,0.0
10158,69.0,0,300,12.0,0.0
10159,41.0,0,120,15.0,0.0
10160,41.0,12,15,8.0,0.0
10161,53.0,0,120,14.0,0.0
10162,45.0,0,120,3.0,0.0
10163,48.0,0,120,3.0,0.0
10164,41.0,0,120,3.0,0.0
10165,41.0,64,15,8.0,0.0
10166,53.0,0,90,6.0,0.0
10167,48.0,72,90,6.0,0.0
10168,53.0,0,90,7.0,0.0
10169,57.0,0,90,6.0,0.0
10170,53.0,0,90,2.0,0.0
10171,41.0,0,90,8.0,0.0
10172,70.0,8,150,10.0,0.0
10173,53.0,12,20,13.0,0.0
10174,41.0,0,120,14.0,0.0
10175,29.0,84,120,3.0,0.0
10176,52.0,24,20,13.0,0.0
10177,41.0,0,120,3.0,0.0
10178,29.0,0,120,15.0,0.0
10179,36.0,0,120,3.0,0.0
10180,41.0,12,15,8.0,0.0
10181,41.0,0,90,2.0,0.0
10182,45.0,0,90,6.0,0.0
10183,41.0,0,90,8.0,0.0
10184,53.0,24,20,13.0,0.0
10185,41.0,0,90,7.0,0.0
10186,54.0,0,20,13.0,0.0
10187,57.0,24,20,13.0,0.0
10188,58.0,0,20,13.0,0.0
10189,60.0,0,180,2.0,0.0
10190,58.0,48,330,10.0,0.0
10191,65.0,0,330,10.0,0.0
10192,57.0,0,180,2.0,0.0
10193,60.0,0,180,12.0,0.0
10194,57.0,0,180,13.0,0.0
10195,41.0,0,120,3.0,0.0
10196,53.0,0,120,14.0,0.0
10197,41.0,0,120,15.0,0.0
10198,45.0,0,120,3.0,0.0
10199,48.0,0,120,3.0,0.0
10200,41.0,12,15,8.0,0.0
10201,41.0,0,90,8.0,0.0
10202,57.0,0,90,6.0,0.0
10203,57.0,96,90,4.0,0.0
10204,60.0,0,90,4.0,0.0
10205,65.0,0,90,4.0,0.0
10206,53.0,0,90,4.0,0.0
10207,53.0,0,90,7.0,0.0
10208,53.0,0,180,2.0,0.0
10209,61.0,48,90,2.0,0.0
10210,61.0,0,90,12.0,0.0
10211,53.0,0,15,13.0,0.0
10212,53.0,0,90,4.0,0.0
10213,58.0,0,90,12.0,0.0
10214,58.0,0,90,4.0,0.0
10215,49.0,0,90,4.0,0.0
10216,58.0,0,90,2.0,0.0
10217,34.0,144,90,3.0,0.0
10218,49.0,0,90,6.0,0.0
10219,46.0,0,90,8.0,0.0
10220,41.0,0,90,3.0,0.0
10221,37.0,0,90,3.0,0.0
10222,46.0,0,90,4.0,0.0
10223,46.0,0,90,14.0,0.0
10224,46.0,0,90,7.0,0.0
10225,34.0,0,90,15.0,0.0
10226,60.0,0,150,12.0,0.0
10227,57.0,0,150,13.0,0.0
10228,57.0,0,150,2.0,0.0
10229,60.0,0,150,2.0,0.0
10230,29.0,0,90,15.0,0.0
10231,45.0,0,90,6.0,0.0
10232,48.0,0,90,4.0,0.0
10233,41.0,96,90,7.0,0.0
10234,41.0,0,90,14.0,0.0
10235,29.0,0,90,3.0,0.0
10236,41.0,0,90,3.0,0.0
10237,41.0,0,90,8.0,0.0
10238,36.0,0,90,3.0,0.0
10239,45.0,0,90,4.0,0.0
10240,53.0,0,90,4.0,0.0
10241,65.0,0,40,12.0,0.0
10242,53.0,24,15,13.0,0.0
10243,53.0,0,40,2.0,0.0
10244,53.0,24,20,13.0,0.0
10245,65.0,0,40,2.0,0.0
10246,65.0,0,20,13.0,0.0
10247,58.0,0,180,13.0,0.0
10248,61.0,0,180,2.0,0.0
10249,61.0,0,180,12.0,0.0
10250,58.0,0,180,2.0,0.0
10251,34.0,192,90,3.0,0.0
10252,41.0,0,90,3.0,0.0
10253,37.0,0,90,3.0,0.0
10254,46.0,0,90,14.0,0.0
10255,49.0,0,90,4.0,0.0
10256,58.0,0,90,4.0,0.0
10257,46.0,0,90,4.0,0.0
10258,53.0,0,90,4.0,0.0
10259,34.0,0,90,15.0,0.0
10260,46.0,0,90,8.0,0.0
10261,49.0,0,90,6.0,0.0
10262,46.0,0,90,7.0,0.0
10263,63.0,0,180,2.0,0.0
10264,60.0,0,180,2.0,0.0
10265,63.0,0,180,12.0,0.0
10266,60.0,0,180,13.0,0.0
10267,36.0,0,90,3.0,0.0
10268,44.0,0,90,14.0,0.0
10269,39.0,0,90,3.0,0.0
10270,51.0,0,90,4.0,0.0
10271,44.0,0,90,4.0,0.0
10272,56.0,0,90,4.0,0.0
10273,48.0,0,90,8.0,0.0
10274,48.0,0,90,4.0,0.0
10275,48.0,0,90,6.0,0.0
10276,44.0,0,90,7.0,0.0
10277,32.0,0,90,15.0,0.0
10278,32.0,0,90,3.0,0.0
10279,56.0,0,180,2.0,0.0
10280,65.0,0,90,12.0,0.0
10281,65.0,96,90,2.0,0.0
10282,56.0,96,15,13.0,0.0
10283,37.0,0,90,3.0,0.0
10284,53.0,0,90,4.0,0.0
10285,61.0,144,90,12.0,0.0
10286,41.0,0,90,8.0,0.0
10287,61.0,0,90,4.0,0.0
10288,49.0,0,90,14.0,0.0
10289,56.0,0,90,4.0,0.0
10290,44.0,0,90,3.0,0.0
10291,41.0,0,90,3.0,0.0
10292,61.0,0,90,2.0,0.0
10293,49.0,0,90,7.0,0.0
10294,53.0,0,90,6.0,0.0
10295,49.0,0,90,4.0,0.0
10296,37.0,0,90,15.0,0.0
10297,60.0,0,150,2.0,0.0
10298,60.0,24,150,13.0,0.0
10299,63.0,0,150,2.0,0.0
10300,63.0,0,150,12.0,0.0
10301,56.0,0,150,13.0,0.0
10302,44.0,0,90,7.0,0.0
10303,48.0,0,90,4.0,0.0
10304,51.0,0,90,4.0,0.0
10305,44.0,0,90,4.0,0.0
10306,56.0,0,90,4.0,0.0
10307,46.0,0,90,8.0,0.0
10308,44.0,0,90,14.0,0.0
10309,48.0,0,90,6.0,0.0
10310,32.0,0,90,15.0,0.0
10311,32.0,0,90,3.0,0.0
10312,39.0,0,90,3.0,0.0
10313,36.0,0,90,3.0,0.0
10314,68.0,0,40,2.0,0.0
10315,68.0,0,40,12.0,0.0
10316,56.0,0,40,2.0,0.0
10317,56.0,24,20,13.0,0.0
10318,68.0,144,20,13.0,0.0
10319,61.0,0,150,2.0,0.0
10320,61.0,24,150,13.0,0.0
10321,56.0,0,150,13.0,0.0
10322,65.0,0,150,12.0,0.0
10323,65.0,0,150,2.0,0.0
10324,44.0,0,90,3.0,0.0
10325,49.0,0,90,7.0,0.0
10326,49.0,0,90,14.0,0.0
10327,37.0,0,90,15.0,0.0
10328,41.0,0,90,8.0,0.0
10329,37.0,192,90,3.0,0.0
10330,61.0,0,90,6.0,0.0
10331,61.0,0,90,4.0,0.0
10332,53.0,0,90,4.0,0.0
10333,41.0,0,90,3.0,0.0
10334,49.0,0,90,4.0,0.0
10335,56.0,0,90,4.0,0.0
10336,70.0,0,40,12.0,0.0
10337,70.0,0,40,2.0,0.0
10338,58.0,24,20,13.0,0.0
10339,58.0,0,40,2.0,0.0
10340,70.0,0,20,13.0,0.0
10341,58.0,0,15,13.0,0.0
10342,63.0,0,180,13.0,0.0
10343,66.0,96,180,2.0,0.0
10344,63.0,0,180,2.0,0.0
10345,66.0,0,180,12.0,0.0
10346,39.0,0,90,3.0,0.0
10347,39.0,0,90,14.0,0.0
10348,46.0,0,90,8.0,0.0
10349,51.0,0,90,4.0,0.0
10350,39.0,0,90,7.0,0.0
10351,27.0,0,90,15.0,0.0
10352,39.0,0,90,6.0,0.0
10353,27.0,0,90,3.0,0.0
10354,56.0,0,90,2.0,0.0
10355,56.0,0,90,13.0,0.0
10356,65.0,96,90,12.0,0.0
10357,65.0,0,90,2.0,0.0
10358,30.0,0,90,3.0,0.0
10359,42.0,0,90,14.0,0.0
10360,54.0,0,90,13.0,0.0
10361,54.0,0,90,4.0,0.0
10362,54.0,0,90,2.0,0.0
10363,42.0,0,90,3.0,0.0
10364,63.0,0,90,2.0,0.0
10365,42.0,0,90,7.0,0.0
10366,30.0,0,90,15.0,0.0
10367,63.0,0,90,12.0,0.0
10368,46.0,0,90,8.0,0.0
10369,42.0,0,90,6.0,0.0
10370,53.0,0,90,13.0,0.0
10371,61.0,96,90,2.0,0.0
10372,61.0,0,90,12.0,0.0
10373,53.0,0,90,2.0,0.0
10374,44.0,0,90,6.0,0.0
10375,32.0,0,90,15.0,0.0
10376,44.0,0,90,7.0,0.0
10377,44.0,96,90,3.0,0.0
10378,60.0,0,90,12.0,0.0
10379,44.0,0,90,4.0,0.0
10380,60.0,0,90,2.0,0.0
10381,51.0,0,90,2.0,0.0
10382,51.0,0,90,13.0,0.0
10383,44.0,0,90,14.0,0.0
10384,41.0,0,90,8.0,0.0
10385,32.0,0,90,3.0,0.0
10386,56.0,0,90,4.0,0.0
10387,66.0,96,90,2.0,0.0
10388,58.0,0,90,2.0,0.0
10389,66.0,0,90,12.0,0.0
10390,58.0,0,90,13.0,0.0
10391,46.0,96,90,8.0,0.0
10392,56.0,0,90,2.0,0.0
10393,37.0,0,90,14.0,0.0
10394,25.0,0,90,3.0,0.0
10395,25.0,0,90,15.0,0.0
10396,37.0,0,90,3.0,0.0
10397,37.0,0,90,7.0,0.0
10398,37.0,0,90,6.0,0.0
10399,65.0,0,90,12.0,0.0
10400,65.0,0,90,2.0,0.0
10401,49.0,0,90,4.0,0.0
10402,56.0,0,90,13.0,0.0
10403,63.0,96,90,12.0,0.0
10404,54.0,0,90,13.0,0.0
10405,54.0,0,90,2.0,0.0
10406,63.0,0,90,2.0,0.0
10407,27.0,0,90,15.0,0.0
10408,53.0,0,90,2.0,0.0
10409,39.0,0,90,3.0,0.0
10410,39.0,0,90,14.0,0.0
10411,48.0,0,90,8.0,0.0
10412,39.0,0,90,6.0,0.0
10413,51.0,0,90,4.0,0.0
10414,39.0,0,90,7.0,0.0
10415,53.0,0,90,13.0,0.0
10416,61.0,0,90,2.0,0.0
10417,27.0,0,90,3.0,0.0
10418,61.0,0,90,12.0,0.0
10419,60.0,0,90,2.0,0.0
10420,60.0,0,90,12.0,0.0
10421,51.0,24,90,13.0,0.0
10422,51.0,0,90,2.0,0.0
10423,41.0,0,90,14.0,0.0
10424,57.0,24,20,12.0,0.0
10425,29.0,0,90,3.0,0.0
10426,41.0,0,90,7.0,0.0
10427,48.0,0,90,2.0,0.0
10428,41.0,0,90,3.0,0.0
10429,48.0,0,90,13.0,0.0
10430,53.0,0,90,4.0,0.0
10431,41.0,0,90,8.0,0.0
10432,57.0,0,20,2.0,0.0
10433,41.0,0,90,6.0,0.0
10434,29.0,0,90,15.0,0.0
10435,58.0,0,20,12.0,0.0
10436,58.0,24,20,2.0,0.0
10437,57.0,24,20,12.0,0.0
10438,57.0,0,20,2.0,0.0
10439,55.0,0,20,2.0,0.0
10440,55.0,0,20,12.0,0.0
10441,57.0,0,180,2.0,0.0
10442,57.0,16,180,12.0,0.0
10443,60.0,0,150,2.0,0.0
10444,58.0,12,330,10.0,0.0
10445,70.0,32,150,10.0,0.0
10446,51.0,0,150,2.0,0.0
10447,60.0,0,150,13.0,0.0
10448,51.0,0,150,13.0,0.0
10449,41.0,96,90,14.0,0.0
10450,34.0,0,90,15.0,0.0
10451,46.0,0,90,7.0,0.0
10452,41.0,0,90,3.0,0.0
10453,34.0,0,90,3.0,0.0
10454,46.0,0,90,8.0,0.0
10455,46.0,0,90,4.0,0.0
10456,46.0,0,90,6.0,0.0
10457,58.0,0,90,4.0,0.0
10458,53.0,0,90,4.0,0.0
10459,58.0,0,40,12.0,0.0
10460,58.0,0,40,13.0,0.0
10461,49.0,0,40,2.0,0.0
10462,49.0,0,90,2.0,0.0
10463,58.0,0,15,2.0,0.0
10464,49.0,0,15,13.0,0.0
10465,58.0,0,90,13.0,0.0
10466,58.0,0,90,12.0,0.0
10467,70.0,8,150,10.0,0.0
10468,70.0,0,90,4.0,0.0
10469,61.0,0,90,4.0,0.0
10470,46.0,0,90,8.0,0.0
10471,58.0,84,90,7.0,0.0
10472,49.0,0,90,3.0,0.0
10473,53.0,0,90,3.0,0.0
10474,61.0,0,90,6.0,0.0
10475,46.0,0,90,3.0,0.0
10476,58.0,0,90,14.0,0.0
10477,46.0,0,90,15.0,0.0
10478,58.0,0,90,4.0,0.0
10479,65.0,0,90,4.0,0.0
10480,65.0,12,15,11.0,0.0
10481,64.0,0,15,11.0,0.0
10482,65.0,4,15,11.0,0.0
10483,66.0,12,15,11.0,0.0
10484,69.0,12,15,11.0,0.0
10485,70.0,0,15,11.0,0.0
10486,69.0,0,180,5.0,0.0
10487,69.0,0,180,1.0,0.0
10488,72.0,0,180,5.0,0.0
10489,72.0,0,180,11.0,0.0
10490,69.0,0,180,12.0,0.0
10491,69.0,0,180,2.0,0.0
10492,72.0,0,180,1.0,0.0
10493,72.0,0,180,2.0,0.0
10494,65.0,0,180,13.0,0.0
10495,49.0,48,330,9.0,0.0
10496,58.0,0,330,10.0,0.0
10497,65.0,0,330,10.0,0.0
10498,48.0,0,120,3.0,0.0
10499,53.0,0,120,3.0,0.0
10500,53.0,0,120,14.0,0.0
10501,41.0,0,120,3.0,0.0
10502,41.0,0,120,15.0,0.0
10503,41.0,12,15,8.0,0.0
10504,53.0,0,90,4.0,0.0
10505,57.0,96,90,2.0,0.0
10506,41.0,0,90,8.0,0.0
10507,53.0,0,90,7.0,0.0
10508,69.0,0,90,4.0,0.0
10509,60.0,0,90,4.0,0.0
10510,57.0,0,90,6.0,0.0
10511,53.0,0,90,6.0,0.0
10512,60.0,0,90,6.0,0.0
10513,65.0,0,90,4.0,0.0
10514,65.0,0,15,5.0,0.0
10515,61.0,0,180,5.0,0.0
10516,61.0,0,180,13.0,0.0
10517,73.0,0,90,5.0,0.0
10518,73.0,0,90,1.0,0.0
10519,73.0,0,90,2.0,0.0
10520,65.0,0,180,2.0,0.0
10521,73.0,12,90,11.0,0.0
10522,58.0,0,120,14.0,0.0
10523,53.0,0,120,3.0,0.0
10524,46.0,0,120,3.0,0.0
10525,49.0,0,120,3.0,0.0
10526,46.0,0,120,15.0,0.0
10527,65.0,0,90,4.0,0.0
10528,58.0,0,90,4.0,0.0
10529,58.0,0,90,7.0,0.0
10530,70.0,0,90,2.0,0.0
10531,58.0,0,90,2.0,0.0
10532,70.0,0,90,1.0,0.0
10533,70.0,144,90,11.0,0.0
10534,61.0,0,90,6.0,0.0
10535,53.0,0,90,6.0,0.0
10536,70.0,0,90,4.0,0.0
10537,61.0,0,90,4.0,0.0
10538,58.0,0,90,6.0,0.0
10539,70.0,0,90,5.0,0.0
10540,46.0,12,15,8.0,0.0
10541,46.0,24,15,8.0,0.0
10542,65.0,0,390,5.0,0.0
10543,65.0,0,15,12.0,0.0
10544,72.0,0,150,2.0,0.0
10545,69.0,0,150,13.0,0.0
10546,72.0,0,180,5.0,0.0
10547,69.0,0,180,5.0,0.0
10548,72.0,0,150,1.0,0.0
10549,65.0,0,15,1.0,0.0
10550,65.0,0,150,2.0,0.0
10551,72.0,0,150,11.0,0.0
10552,57.0,0,90,14.0,0.0
10553,65.0,0,90,4.0,0.0
10554,57.0,0,90,2.0,0.0
10555,53.0,0,90,7.0,0.0
10556,53.0,0,90,3.0,0.0
10557,57.0,0,90,6.0,0.0
10558,53.0,0,90,6.0,0.0
10559,48.0,0,90,3.0,0.0
10560,60.0,0,90,6.0,0.0
10561,53.0,0,90,4.0,0.0
10562,60.0,0,90,4.0,0.0
10563,41.0,192,90,3.0,0.0
10564,48.0,0,90,8.0,0.0
10565,69.0,0,90,4.0,0.0
10566,41.0,0,90,15.0,0.0
10567,65.0,0,240,13.0,0.0
10568,65.0,0,240,1.0,0.0
10569,65.0,0,240,2.0,0.0
10570,65.0,24,20,11.0,0.0
10571,65.0,24,15,12.0,0.0
10572,77.0,0,20,11.0,0.0
10573,73.0,0,180,2.0,0.0
10574,70.0,0,180,5.0,0.0
10575,73.0,0,180,1.0,0.0
10576,73.0,0,180,11.0,0.0
10577,73.0,0,180,5.0,0.0
10578,46.0,0,90,3.0,0.0
10579,58.0,0,90,7.0,0.0
10580,70.0,0,90,4.0,0.0
10581,61.0,0,90,6.0,0.0
10582,53.0,0,90,3.0,0.0
10583,65.0,0,90,4.0,0.0
10584,58.0,0,90,6.0,0.0
10585,49.0,0,90,3.0,0.0
10586,58.0,192,90,2.0,0.0
10587,53.0,0,90,6.0,0.0
10588,61.0,0,90,4.0,0.0
10589,46.0,0,90,15.0,0.0
10590,58.0,0,90,4.0,0.0
10591,46.0,0,90,8.0,0.0
10592,58.0,0,90,14.0,0.0
10593,75.0,0,180,2.0,0.0
10594,68.0,0,180,13.0,0.0
10595,75.0,0,180,11.0,0.0
10596,72.0,0,180,12.0,0.0
10597,72.0,0,180,2.0,0.0
10598,75.0,0,180,5.0,0.0
10599,72.0,0,180,1.0,0.0
10600,75.0,0,180,1.0,0.0
10601,72.0,0,180,5.0,0.0
10602,68.0,0,180,5.0,0.0
10603,51.0,0,90,3.0,0.0
10604,60.0,0,90,6.0,0.0
10605,63.0,0,90,6.0,0.0
10606,72.0,0,90,4.0,0.0
10607,48.0,0,90,8.0,0.0
10608,44.0,0,90,15.0,0.0
10609,56.0,0,90,6.0,0.0
10610,63.0,0,90,4.0,0.0
10611,56.0,0,90,3.0,0.0
10612,60.0,0,90,14.0,0.0
10613,68.0,0,90,4.0,0.0
10614,56.0,0,90,4.0,0.0
10615,56.0,96,90,7.0,0.0
10616,44.0,0,90,3.0,0.0
10617,60.0,0,90,2.0,0.0
10618,77.0,0,90,11.0,0.0
10619,65.0,0,180,13.0,0.0
10620,77.0,0,90,5.0,0.0
10621,77.0,96,90,2.0,0.0
10622,68.0,0,180,1.0,0.0
10623,65.0,144,180,5.0,0.0
10624,77.0,0,90,1.0,0.0
10625,73.0,0,90,11.0,0.0
10626,61.0,0,90,7.0,0.0
10627,61.0,0,90,2.0,0.0
10628,65.0,0,90,6.0,0.0
10629,73.0,0,90,1.0,0.0
10630,56.0,0,90,3.0,0.0
10631,61.0,0,90,14.0,0.0
10632,41.0,0,90,8.0,0.0
10633,61.0,0,90,6.0,0.0
10634,49.0,0,90,15.0,0.0
10635,68.0,0,90,4.0,0.0
10636,53.0,0,90,3.0,0.0
10637,61.0,0,90,4.0,0.0
10638,73.0,0,90,5.0,0.0
10639,73.0,0,90,4.0,0.0
10640,65.0,0,90,4.0,0.0
10641,56.0,0,90,6.0,0.0
10642,73.0,0,90,2.0,0.0
10643,49.0,0,90,3.0,0.0
10644,72.0,0,150,13.0,0.0
10645,75.0,0,180,5.0,0.0
10646,75.0,0,150,11.0,0.0
10647,68.0,24,150,1.0,0.0
10648,75.0,0,150,1.0,0.0
10649,68.0,0,15,2.0,0.0
10650,75.0,0,150,2.0,0.0
10651,68.0,0,15,12.0,0.0
10652,72.0,0,180,5.0,0.0
10653,68.0,0,15,5.0,0.0
10654,72.0,0,90,4.0,0.0
10655,44.0,0,90,3.0,0.0
10656,51.0,0,90,3.0,0.0
10657,44.0,0,90,15.0,0.0
10658,48.0,0,90,8.0,0.0
10659,56.0,0,90,7.0,0.0
10660,56.0,144,90,6.0,0.0
10661,60.0,0,90,6.0,0.0
10662,63.0,0,90,6.0,0.0
10663,63.0,0,90,4.0,0.0
10664,56.0,0,90,3.0,0.0
10665,56.0,0,90,4.0,0.0
10666,68.0,0,90,4.0,0.0
10667,60.0,0,90,14.0,0.0
10668,60.0,0,90,2.0,0.0
10669,68.0,0,180,13.0,0.0
10670,68.0,0,180,2.0,0.0
10671,68.0,0,15,12.0,0.0
10672,68.0,0,180,1.0,0.0
10673,68.0,24,20,11.0,0.0
10674,80.0,0,20,11.0,0.0
10675,77.0,0,150,2.0,0.0
10676,77.0,0,150,1.0,0.0
10677,77.0,24,150,11.0,0.0
10678,73.0,0,180,5.0,0.0
10679,77.0,0,180,5.0,0.0
10680,41.0,0,90,8.0,0.0
10681,65.0,0,90,4.0,0.0
10682,73.0,0,90,4.0,0.0
10683,61.0,0,90,7.0,0.0
10684,61.0,0,90,6.0,0.0
10685,49.0,0,90,3.0,0.0
10686,61.0,0,90,4.0,0.0
10687,56.0,0,90,6.0,0.0
10688,68.0,0,90,4.0,0.0
10689,61.0,0,90,2.0,0.0
10690,61.0,0,90,14.0,0.0
10691,56.0,0,90,3.0,0.0
10692,53.0,0,90,3.0,0.0
10693,49.0,0,90,15.0,0.0
10694,65.0,0,90,6.0,0.0
10695,70.0,0,40,1.0,0.0
10696,70.0,0,240,13.0,0.0
10697,70.0,0,40,12.0,0.0
10698,70.0,24,20,11.0,0.0
10699,70.0,0,40,2.0,0.0
10700,82.0,0,20,11.0,0.0
10701,78.0,0,180,5.0,0.0
10702,78.0,0,180,11.0,0.0
10703,75.0,0,180,12.0,0.0
10704,75.0,0,180,2.0,0.0
10705,78.0,0,180,2.0,0.0
10706,70.0,0,180,5.0,0.0
10707,75.0,0,180,5.0,0.0
10708,78.0,0,180,1.0,0.0
10709,75.0,0,180,1.0,0.0
10710,51.0,0,90,14.0,0.0
10711,39.0,0,90,3.0,0.0
10712,51.0,96,90,4.0,0.0
10713,58.0,0,90,4.0,0.0
10714,63.0,0,90,4.0,0.0
10715,54.0,0,90,6.0,0.0
10716,51.0,0,90,7.0,0.0
10717,46.0,0,90,6.0,0.0
10718,46.0,0,90,8.0,0.0
10719,39.0,0,90,15.0,0.0
10720,42.0,0,90,3.0,0.0
10721,54.0,0,90,4.0,0.0
10722,51.0,0,90,2.0,0.0
10723,46.0,0,90,3.0,0.0
10724,51.0,0,90,6.0,0.0
10725,77.0,96,90,5.0,0.0
10726,77.0,0,90,11.0,0.0
10727,65.0,0,90,5.0,0.0
10728,77.0,0,90,1.0,0.0
10729,68.0,0,90,2.0,0.0
10730,68.0,0,90,12.0,0.0
10731,68.0,0,90,1.0,0.0
10732,68.0,0,90,5.0,0.0
10733,77.0,0,90,2.0,0.0
10734,66.0,0,90,2.0,0.0
10735,75.0,0,90,11.0,0.0
10736,42.0,0,90,3.0,0.0
10737,54.0,0,90,2.0,0.0
10738,66.0,0,90,5.0,0.0
10739,63.0,0,90,5.0,0.0
10740,54.0,0,90,6.0,0.0
10741,54.0,0,90,14.0,0.0
10742,51.0,0,90,6.0,0.0
10743,66.0,0,90,4.0,0.0
10744,58.0,0,90,4.0,0.0
10745,58.0,0,90,6.0,0.0
10746,66.0,0,90,1.0,0.0
10747,75.0,0,90,1.0,0.0
10748,63.0,0,90,4.0,0.0
10749,75.0,0,90,2.0,0.0
10750,46.0,0,90,8.0,0.0
10751,66.0,0,90,12.0,0.0
10752,42.0,0,90,15.0,0.0
10753,54.0,0,90,4.0,0.0
10754,46.0,0,90,3.0,0.0
10755,51.0,0,90,3.0,0.0
10756,75.0,96,90,5.0,0.0
10757,54.0,0,90,7.0,0.0
10758,65.0,0,90,5.0,0.0
10759,61.0,0,90,5.0,0.0
10760,73.0,96,90,5.0,0.0
10761,73.0,0,90,1.0,0.0
10762,65.0,0,90,1.0,0.0
10763,73.0,0,90,2.0,0.0
10764,73.0,0,90,11.0,0.0
10765,65.0,0,90,2.0,0.0
10766,65.0,0,90,12.0,0.0
10767,60.0,0,90,5.0,0.0
10768,68.0,0,90,4.0,0.0
10769,63.0,0,90,5.0,0.0
10770,63.0,0,90,12.0,0.0
10771,63.0,96,90,2.0,0.0
10772,72.0,0,90,2.0,0.0
10773,60.0,0,90,4.0,0.0
10774,63.0,0,90,1.0,0.0
10775,44.0,0,90,15.0,0.0
10776,72.0,0,90,1.0,0.0
10777,72.0,0,90,11.0,0.0
10778,56.0,0,90,14.0,0.0
10779,48.0,0,90,3.0,0.0
10780,44.0,0,90,3.0,0.0
10781,56.0,0,90,6.0,0.0
10782,51.0,0,90,6.0,0.0
10783,56.0,0,90,4.0,0.0
10784,60.0,0,90,6.0,0.0
10785,63.0,0,90,4.0,0.0
10786,56.0,0,90,2.0,0.0
10787,72.0,0,90,5.0,0.0
10788,56.0,0,90,7.0,0.0
10789,48.0,0,90,8.0,0.0
10790,78.0,0,90,5.0,0.0
10791,70.0,0,90,12.0,0.0
10792,66.0,0,90,5.0,0.0
10793,70.0,96,90,5.0,0.0
10794,78.0,0,90,2.0,0.0
10795,70.0,0,90,2.0,0.0
10796,70.0,0,90,1.0,0.0
10797,78.0,0,90,11.0,0.0
10798,78.0,0,90,1.0,0.0
10799,48.0,0,90,8.0,0.0
10800,49.0,0,90,2.0,0.0
10801,49.0,0,90,4.0,0.0
10802,68.0,0,90,2.0,0.0
10803,37.0,0,90,15.0,0.0
10804,77.0,0,90,2.0,0.0
10805,68.0,0,90,12.0,0.0
10806,37.0,0,90,3.0,0.0
10807,44.0,0,90,6.0,0.0
10808,44.0,0,90,3.0,0.0
10809,49.0,0,90,3.0,0.0
10810,49.0,0,90,7.0,0.0
10811,44.0,0,90,14.0,0.0
10812,77.0,0,90,11.0,0.0
10813,56.0,0,90,4.0,0.0
10814,77.0,0,90,1.0,0.0
10815,68.0,96,90,1.0,0.0
10816,61.0,0,90,4.0,0.0
10817,77.0,0,90,5.0,0.0
10818,49.0,0,90,6.0,0.0
10819,68.0,0,90,5.0,0.0
10820,65.0,0,90,5.0,0.0
10821,75.0,0,90,11.0,0.0
10822,66.0,0,90,5.0,0.0
10823,63.0,0,90,5.0,0.0
10824,66.0,0,90,2.0,0.0
10825,75.0,0,90,2.0,0.0
10826,66.0,96,90,12.0,0.0
10827,75.0,0,90,5.0,0.0
10828,66.0,0,90,1.0,0.0
10829,75.0,0,90,1.0,0.0
10830,51.0,0,90,7.0,0.0
10831,51.0,0,90,6.0,0.0
10832,65.0,0,90,1.0,0.0
10833,46.0,0,90,3.0,0.0
10834,46.0,0,90,6.0,0.0
10835,73.0,96,90,11.0,0.0
10836,54.0,0,90,3.0,0.0
10837,54.0,0,90,2.0,0.0
10838,46.0,0,90,14.0,0.0
10839,54.0,0,90,6.0,0.0
10840,61.0,0,90,5.0,0.0
10841,65.0,0,90,5.0,0.0
10842,46.0,0,90,8.0,0.0
10843,51.0,0,90,4.0,0.0
10844,66.0,0,90,4.0,0.0
10845,73.0,0,90,5.0,0.0
10846,39.0,0,90,3.0,0.0
10847,39.0,0,90,15.0,0.0
10848,65.0,0,90,2.0,0.0
10849,73.0,0,90,2.0,0.0
10850,65.0,0,90,12.0,0.0
10851,73.0,0,90,1.0,0.0
10852,58.0,0,90,4.0,0.0
10853,58.0,24,330,10.0,0.0
10854,70.0,8,150,10.0,0.0
10855,72.0,0,90,5.0,0.0
10856,63.0,0,90,1.0,0.0
10857,72.0,0,90,11.0,0.0
10858,63.0,0,90,12.0,0.0
10859,60.0,0,90,5.0,0.0
10860,63.0,0,90,5.0,0.0
10861,63.0,24,90,2.0,0.0
10862,72.0,0,90,1.0,0.0
10863,72.0,0,90,2.0,0.0
10864,53.0,0,90,2.0,0.0
10865,60.0,0,90,12.0,0.0
10866,41.0,0,90,3.0,0.0
10867,53.0,0,90,4.0,0.0
10868,57.0,0,90,5.0,0.0
10869,60.0,0,90,5.0,0.0
10870,57.0,0,90,6.0,0.0
10871,60.0,0,90,4.0,0.0
10872,57.0,0,90,4.0,0.0
10873,69.0,0,20,5.0,0.0
10874,53.0,0,90,7.0,0.0
10875,69.0,0,20,11.0,0.0
10876,41.0,0,90,15.0,0.0
10877,53.0,0,90,6.0,0.0
10878,48.0,0,90,6.0,0.0
10879,65.0,0,90,4.0,0.0
10880,41.0,0,90,8.0,0.0
10881,60.0,0,90,2.0,0.0
10882,60.0,0,90,1.0,0.0
10883,69.0,24,20,1.0,0.0
10884,53.0,0,90,14.0,0.0
10885,45.0,0,90,3.0,0.0
10886,48.0,0,90,3.0,0.0
10887,69.0,0,20,2.0,0.0
10888,70.0,0,20,1.0,0.0
10889,70.0,0,20,5.0,0.0
10890,70.0,0,20,11.0,0.0
10891,70.0,16,20,2.0,0.0
10892,69.0,0,20,2.0,0.0
10893,69.0,0,20,11.0,0.0
10894,69.0,0,20,1.0,0.0
10895,69.0,24,20,5.0,0.0
10896,67.0,0,20,2.0,0.0
10897,67.0,0,20,11.0,0.0
10898,67.0,0,20,5.0,0.0
10899,67.0,108,20,1.0,0.0
10900,69.0,0,180,1.0,0.0
10901,69.0,0,180,11.0,0.0
10902,69.0,0,180,2.0,0.0
10903,69.0,0,180,5.0,0.0
10904,72.0,0,150,1.0,0.0
10905,63.0,0,150,5.0,0.0
10906,63.0,0,150,13.0,0.0
10907,60.0,0,150,5.0,0.0
10908,72.0,0,150,2.0,0.0
10909,70.0,32,150,10.0,0.0
10910,72.0,16,150,12.0,0.0
10911,34.0,0,90,3.0,0.0
10912,34.0,0,90,15.0,0.0
10913,41.0,12,15,8.0,0.0
10914,41.0,0,120,3.0,0.0
10915,41.0,0,120,14.0,0.0
10916,41.0,24,15,8.0,0.0
10917,46.0,0,90,2.0,0.0
10918,41.0,0,90,8.0,0.0
10919,46.0,0,150,4.0,0.0
10920,46.0,0,90,7.0,0.0
10921,53.0,0,150,4.0,0.0
10922,46.0,0,150,3.0,0.0
10923,46.0,0,240,15.0,0.0
10924,46.0,0,40,6.0,0.0
10925,70.0,12,40,12.0,0.0
10926,61.0,0,15,13.0,0.0
10927,61.0,0,15,5.0,0.0
10928,70.0,0,15,11.0,0.0
10929,58.0,0,15,5.0,0.0
10930,65.0,0,150,10.0,0.0
10931,58.0,32,150,10.0,0.0
10932,70.0,0,15,5.0,0.0
10933,49.0,216,180,3.0,0.0
10934,58.0,0,180,14.0,0.0
10935,70.0,0,15,1.0,0.0
10936,61.0,0,15,1.0,0.0
10937,70.0,0,15,2.0,0.0
10938,61.0,0,15,2.0,0.0
10939,58.0,0,180,7.0,0.0
10940,53.0,0,40,6.0,0.0
10941,70.0,0,180,12.0,0.0
10942,46.0,12,15,8.0,0.0
10943,46.0,40,90,8.0,0.0
10944,58.0,0,150,4.0,0.0
10945,65.0,0,150,4.0,0.0
10946,58.0,0,150,6.0,0.0
10947,61.0,0,150,6.0,0.0
10948,58.0,0,90,2.0,0.0
10949,53.0,0,90,3.0,0.0
10950,61.0,0,90,4.0,0.0
10951,82.0,0,20,11.0,0.0
10952,82.0,0,20,12.0,0.0
10953,34.0,2,90,3.0,0.0
10954,82.0,8,20,0.0,0.0
10955,46.0,16,30,2.0,0.0
10956,34.0,32,90,15.0,0.0
10957,46.0,0,30,14.0,0.0
10958,74.0,0,180,13.0,0.0
10959,46.0,0,30,3.0,0.0
10960,94.0,0,20,0.0,0.0
10961,84.0,0,20,11.0,0.0
10962,84.0,24,20,12.0,0.0
10963,96.0,0,20,0.0,0.0
10964,84.0,0,20,0.0,0.0
10965,82.0,0,20,12.0,0.0
10966,94.0,0,20,0.0,0.0
10967,58.0,0,30,3.0,0.0
10968,58.0,14,30,14.0,0.0
10969,82.0,0,20,0.0,0.0
10970,82.0,8,20,11.0,0.0
10971,96.0,0,20,0.0,0.0
10972,84.0,0,20,12.0,0.0
10973,84.0,0,20,0.0,0.0
10974,84.0,0,20,11.0,0.0
10975,38.0,0,30,14.0,0.0
10976,50.0,32,30,2.0,0.0
10977,94.0,0,30,0.0,0.0
10978,38.0,32,90,15.0,0.0
10979,82.0,0,30,0.0,0.0
10980,38.0,0,30,3.0,0.0
10981,82.0,0,30,12.0,0.0
10982,82.0,0,30,11.0,0.0
10983,81.0,0,30,12.0,0.0
10984,93.0,0,30,0.0,0.0
10985,81.0,0,30,11.0,0.0
10986,81.0,16,30,0.0,0.0
10987,50.0,14,30,3.0,0.0
10988,50.0,0,30,14.0,0.0
10989,82.0,0,30,0.0,0.0
10990,94.0,0,30,0.0,0.0
10991,82.0,0,30,11.0,0.0
10992,82.0,0,30,12.0,0.0
10993,41.0,0,30,14.0,0.0
10994,81.0,0,30,11.0,0.0
10995,41.0,32,90,15.0,0.0
10996,93.0,0,30,0.0,0.0
10997,81.0,0,30,0.0,0.0
10998,81.0,0,30,12.0,0.0
10999,53.0,0,30,2.0,0.0
11000,41.0,48,30,3.0,0.0
11001,72.0,0,30,13.0,0.0
11002,53.0,0,30,14.0,0.0
11003,79.0,0,30,12.0,0.0
11004,53.0,0,30,3.0,0.0
11005,79.0,0,30,11.0,0.0
11006,91.0,14,30,0.0,0.0
11007,79.0,0,30,0.0,0.0
11008,70.0,0,30,13.0,0.0
11009,77.0,48,30,0.0,0.0
11010,57.0,0,30,2.0,0.0
11011,69.0,0,30,13.0,0.0
11012,45.0,0,30,14.0,0.0
11013,77.0,0,30,12.0,0.0
11014,45.0,0,30,3.0,0.0
11015,77.0,0,30,11.0,0.0
11016,89.0,0,30,0.0,0.0
11017,45.0,32,90,15.0,0.0
11018,75.0,0,30,0.0,0.0
11019,75.0,0,30,11.0,0.0
11020,57.0,0,30,14.0,0.0
11021,57.0,0,30,3.0,0.0
11022,75.0,14,30,12.0,0.0
11023,67.0,0,30,13.0,0.0
11024,87.0,0,30,0.0,0.0
11025,46.0,0,30,14.0,0.0
11026,74.0,0,30,11.0,0.0
11027,74.0,0,30,12.0,0.0
11028,46.0,0,30,3.0,0.0
11029,58.0,0,30,2.0,0.0
11030,46.0,32,90,15.0,0.0
11031,65.0,48,30,13.0,0.0
11032,74.0,0,30,0.0,0.0
11033,86.0,0,30,0.0,0.0
11034,63.0,0,30,13.0,0.0
11035,72.0,0,30,12.0,0.0
11036,72.0,0,30,11.0,0.0
11037,84.0,0,30,0.0,0.0
11038,72.0,0,30,0.0,0.0
11039,53.0,14,30,3.0,0.0
11040,53.0,0,30,14.0,0.0
11041,70.0,0,30,0.0,0.0
11042,70.0,0,30,12.0,0.0
11043,82.0,48,30,0.0,0.0
11044,58.0,0,30,3.0,0.0
11045,58.0,32,90,15.0,0.0
11046,62.0,0,30,13.0,0.0
11047,70.0,0,30,11.0,0.0
11048,58.0,0,30,14.0,0.0
11049,53.0,0,30,3.0,0.0
11050,72.0,0,30,0.0,0.0
11051,72.0,0,30,12.0,0.0
11052,53.0,0,30,14.0,0.0
11053,63.0,0,30,13.0,0.0
11054,84.0,0,30,0.0,0.0
11055,72.0,16,30,11.0,0.0
11056,74.0,0,30,12.0,0.0
11057,46.0,0,30,14.0,0.0
11058,46.0,0,30,3.0,0.0
11059,74.0,0,30,11.0,0.0
11060,65.0,0,30,13.0,0.0
11061,86.0,0,30,0.0,0.0
11062,74.0,48,30,0.0,0.0
11063,46.0,32,90,15.0,0.0
11064,58.0,0,30,14.0,0.0
11065,58.0,16,30,3.0,0.0
11066,75.0,0,90,0.0,0.0
11067,87.0,0,90,0.0,0.0
11068,51.0,48,30,2.0,0.0
11069,39.0,0,30,14.0,0.0
11070,75.0,32,90,11.0,0.0
11071,75.0,0,90,12.0,0.0
11072,67.0,0,90,13.0,0.0
11073,39.0,0,30,3.0,0.0
11074,39.0,0,90,15.0,0.0
11075,51.0,14,30,14.0,0.0
11076,51.0,0,30,3.0,0.0
11077,58.0,48,30,2.0,0.0
11078,65.0,0,90,13.0,0.0
11079,86.0,2,90,0.0,0.0
11080,46.0,0,30,3.0,0.0
11081,70.0,0,90,12.0,0.0
11082,74.0,0,90,0.0,0.0
11083,46.0,32,90,15.0,0.0
11084,46.0,0,30,14.0,0.0
11085,74.0,0,90,11.0,0.0
11086,58.0,14,30,3.0,0.0
11087,58.0,0,30,14.0,0.0
11088,34.0,2,90,3.0,0.0
11089,34.0,32,90,15.0,0.0
11090,63.0,0,30,13.0,0.0
11091,46.0,0,30,14.0,0.0
11092,72.0,0,30,12.0,0.0
11093,46.0,48,30,2.0,0.0
11094,72.0,0,30,11.0,0.0
11095,46.0,0,30,3.0,0.0
11096,70.0,14,30,12.0,0.0
11097,58.0,0,30,14.0,0.0
11098,62.0,0,30,13.0,0.0
11099,58.0,0,30,3.0,0.0
11100,70.0,0,30,11.0,0.0
11101,60.0,0,30,13.0,0.0
11102,69.0,0,30,12.0,0.0
11103,53.0,0,30,2.0,0.0
11104,41.0,32,90,15.0,0.0
11105,69.0,0,30,11.0,0.0
11106,41.0,48,30,14.0,0.0
11107,41.0,0,30,3.0,0.0
11108,53.0,0,30,14.0,0.0
11109,67.0,0,30,12.0,0.0
11110,67.0,0,30,11.0,0.0
11111,53.0,0,30,3.0,0.0
11112,58.0,14,30,13.0,0.0
11113,29.0,32,90,15.0,0.0
11114,65.0,0,30,12.0,0.0
11115,41.0,0,30,14.0,0.0
11116,29.0,2,90,3.0,0.0
11117,41.0,0,30,3.0,0.0
11118,41.0,0,30,2.0,0.0
11119,65.0,48,30,11.0,0.0
11120,57.0,0,30,13.0,0.0
11121,63.0,0,30,11.0,0.0
11122,55.0,0,30,13.0,0.0
11123,53.0,0,30,3.0,0.0
11124,53.0,0,30,14.0,0.0
11125,63.0,14,30,12.0,0.0
11126,62.0,0,30,11.0,0.0
11127,53.0,0,30,13.0,0.0
11128,62.0,0,30,12.0,0.0
11129,34.0,32,90,15.0,0.0
11130,46.0,48,30,3.0,0.0
11131,46.0,0,30,14.0,0.0
11132,46.0,0,30,2.0,0.0
11133,34.0,2,90,3.0,0.0
11134,51.0,0,30,13.0,0.0
11135,60.0,0,30,12.0,0.0
11136,41.0,14,30,14.0,0.0
11137,60.0,0,30,11.0,0.0
11138,41.0,0,30,3.0,0.0
11139,58.0,0,30,2.0,0.0
11140,58.0,0,30,12.0,0.0
11141,58.0,0,30,11.0,0.0
11142,46.0,0,30,14.0,0.0
11143,50.0,48,30,13.0,0.0
11144,46.0,32,90,15.0,0.0
11145,46.0,0,30,3.0,0.0
11146,53.0,0,30,14.0,0.0
11147,53.0,0,30,3.0,0.0
11148,60.0,14,30,11.0,0.0
11149,60.0,0,30,12.0,0.0
11150,51.0,0,30,13.0,0.0
11151,53.0,32,90,13.0,0.0
11152,46.0,0,30,2.0,0.0
11153,62.0,0,90,12.0,0.0
11154,46.0,48,30,14.0,0.0
11155,34.0,0,90,15.0,0.0
11156,34.0,2,90,3.0,0.0
11157,62.0,0,90,11.0,0.0
11158,58.0,14,30,14.0,0.0
11159,33.0,2,90,3.0,0.0
11160,61.0,0,30,12.0,0.0
11161,45.0,0,30,14.0,0.0
11162,45.0,48,30,2.0,0.0
11163,64.0,0,30,11.0,0.0
11164,57.0,0,30,13.0,0.0
11165,33.0,24,90,15.0,0.0
11166,57.0,14,30,14.0,0.0
11167,86.0,8,20,12.0,0.0
11168,98.0,0,20,0.0,0.0
11169,50.0,0,30,2.0,0.0
11170,38.0,16,30,14.0,0.0
11171,77.0,0,180,13.0,0.0
11172,86.0,0,20,11.0,0.0
11173,86.0,0,20,0.0,0.0
11174,38.0,0,30,3.0,0.0
11175,38.0,0,90,15.0,0.0
11176,88.0,0,20,0.0,0.0
11177,88.0,24,20,11.0,0.0
11178,100.0,0,20,0.0,0.0
11179,88.0,0,20,12.0,0.0
11180,50.0,0,30,14.0,0.0
11181,50.0,14,30,3.0,0.0
11182,86.0,0,20,11.0,0.0
11183,86.0,8,20,0.0,0.0
11184,86.0,0,20,12.0,0.0
11185,98.0,0,20,0.0,0.0
11186,88.0,0,20,0.0,0.0
11187,88.0,32,20,11.0,0.0
11188,100.0,0,20,0.0,0.0
11189,88.0,0,20,12.0,0.0
11190,41.0,0,90,15.0,0.0
11191,98.0,0,30,0.0,0.0
11192,41.0,0,30,14.0,0.0
11193,86.0,32,30,11.0,0.0
11194,41.0,0,30,3.0,0.0
11195,53.0,0,30,2.0,0.0
11196,86.0,0,30,12.0,0.0
11197,86.0,0,30,0.0,0.0
11198,85.0,0,30,12.0,0.0
11199,85.0,0,30,11.0,0.0
11200,85.0,0,30,0.0,0.0
11201,97.0,16,30,0.0,0.0
11202,53.0,14,30,14.0,0.0
11203,53.0,0,30,3.0,0.0
11204,86.0,32,30,12.0,0.0
11205,86.0,0,30,0.0,0.0
11206,86.0,0,30,11.0,0.0
11207,98.0,0,30,0.0,0.0
11208,55.0,0,30,2.0,0.0
11209,43.0,0,30,14.0,0.0
11210,85.0,0,30,0.0,0.0
11211,76.0,48,30,13.0,0.0
11212,97.0,0,30,0.0,0.0
11213,43.0,0,30,3.0,0.0
11214,85.0,0,30,11.0,0.0
11215,43.0,32,90,15.0,0.0
11216,85.0,0,30,12.0,0.0
11217,82.0,0,30,0.0,0.0
11218,55.0,0,30,3.0,0.0
11219,82.0,14,30,12.0,0.0
11220,82.0,0,30,11.0,0.0
11221,55.0,0,30,14.0,0.0
11222,74.0,0,30,13.0,0.0
11223,94.0,0,30,0.0,0.0
11224,81.0,0,30,12.0,0.0
11225,81.0,0,30,11.0,0.0
11226,46.0,48,30,3.0,0.0
11227,58.0,0,30,2.0,0.0
11228,93.0,0,30,0.0,0.0
11229,46.0,32,90,15.0,0.0
11230,73.0,0,30,13.0,0.0
11231,81.0,0,30,0.0,0.0
11232,46.0,0,30,14.0,0.0
11233,79.0,0,30,12.0,0.0
11234,58.0,0,30,3.0,0.0
11235,70.0,14,30,13.0,0.0
11236,58.0,0,30,14.0,0.0
11237,79.0,0,30,11.0,0.0
11238,91.0,0,30,0.0,0.0
11239,79.0,0,30,0.0,0.0
11240,77.0,0,30,11.0,0.0
11241,50.0,32,90,15.0,0.0
11242,50.0,0,30,3.0,0.0
11243,50.0,48,30,14.0,0.0
11244,77.0,0,30,12.0,0.0
11245,89.0,0,30,0.0,0.0
11246,77.0,0,30,0.0,0.0
11247,62.0,0,30,2.0,0.0
11248,69.0,0,30,13.0,0.0
11249,57.0,14,30,14.0,0.0
11250,57.0,0,30,3.0,0.0
11251,76.0,0,30,12.0,0.0
11252,76.0,0,30,11.0,0.0
11253,76.0,0,30,0.0,0.0
11254,88.0,0,30,0.0,0.0
11255,67.0,0,30,13.0,0.0
11256,62.0,32,90,15.0,0.0
11257,74.0,0,30,0.0,0.0
11258,74.0,0,30,12.0,0.0
11259,74.0,0,30,11.0,0.0
11260,62.0,0,30,3.0,0.0
11261,86.0,0,30,0.0,0.0
11262,62.0,0,30,14.0,0.0
11263,65.0,48,30,13.0,0.0
11264,88.0,0,30,0.0,0.0
11265,76.0,0,30,0.0,0.0
11266,76.0,16,30,12.0,0.0
11267,67.0,0,30,13.0,0.0
11268,57.0,0,30,14.0,0.0
11269,57.0,0,30,3.0,0.0
11270,76.0,0,30,11.0,0.0
11271,89.0,0,30,0.0,0.0
11272,50.0,32,90,15.0,0.0
11273,77.0,0,30,11.0,0.0
11274,77.0,0,30,0.0,0.0
11275,50.0,0,30,14.0,0.0
11276,50.0,48,30,3.0,0.0
11277,69.0,0,30,13.0,0.0
11278,77.0,0,30,12.0,0.0
11279,62.0,0,30,14.0,0.0
11280,62.0,16,30,3.0,0.0
11281,55.0,0,30,2.0,0.0
11282,43.0,48,30,14.0,0.0
11283,79.0,0,90,0.0,0.0
11284,79.0,32,90,11.0,0.0
11285,79.0,0,90,12.0,0.0
11286,91.0,0,90,0.0,0.0
11287,70.0,0,90,13.0,0.0
11288,43.0,0,90,15.0,0.0
11289,43.0,0,30,3.0,0.0
11290,55.0,0,30,3.0,0.0
11291,55.0,14,30,14.0,0.0
11292,50.0,0,90,15.0,0.0
11293,50.0,0,30,3.0,0.0
11294,89.0,2,90,0.0,0.0
11295,74.0,0,90,12.0,0.0
11296,50.0,0,30,14.0,0.0
11297,77.0,0,90,0.0,0.0
11298,69.0,32,90,13.0,0.0
11299,62.0,48,30,2.0,0.0
11300,77.0,0,90,11.0,0.0
11301,62.0,0,30,3.0,0.0
11302,62.0,14,30,14.0,0.0
11303,50.0,0,30,2.0,0.0
11304,76.0,0,30,11.0,0.0
11305,76.0,32,40,12.0,0.0
11306,38.0,32,90,15.0,0.0
11307,38.0,0,30,14.0,0.0
11308,38.0,0,30,3.0,0.0
11309,67.0,16,30,13.0,0.0
11310,50.0,0,30,14.0,0.0
11311,65.0,0,30,13.0,0.0
11312,50.0,0,30,3.0,0.0
11313,74.0,0,30,12.0,0.0
11314,74.0,14,30,11.0,0.0
11315,43.0,32,90,15.0,0.0
11316,55.0,0,30,2.0,0.0
11317,64.0,0,30,13.0,0.0
11318,43.0,0,30,3.0,0.0
11319,43.0,48,30,14.0,0.0
11320,72.0,0,30,11.0,0.0
11321,72.0,0,30,12.0,0.0
11322,70.0,0,30,11.0,0.0
11323,70.0,14,30,12.0,0.0
11324,55.0,0,30,14.0,0.0
11325,55.0,0,30,3.0,0.0
11326,62.0,0,30,13.0,0.0
11327,31.0,2,90,3.0,0.0
11328,31.0,32,90,15.0,0.0
11329,60.0,0,30,13.0,0.0
11330,69.0,0,30,11.0,0.0
11331,43.0,0,30,2.0,0.0
11332,43.0,48,30,14.0,0.0
11333,69.0,0,30,12.0,0.0
11334,43.0,0,30,3.0,0.0
11335,58.0,14,30,13.0,0.0
11336,55.0,0,30,14.0,0.0
11337,55.0,0,30,3.0,0.0
11338,67.0,0,30,12.0,0.0
11339,67.0,0,30,11.0,0.0
11340,38.0,32,90,15.0,0.0
11341,57.0,0,30,13.0,0.0
11342,65.0,0,30,12.0,0.0
11343,50.0,0,30,2.0,0.0
11344,38.0,0,30,3.0,0.0
11345,38.0,0,30,14.0,0.0
11346,65.0,48,30,11.0,0.0
11347,55.0,14,30,13.0,0.0
11348,45.0,0,30,14.0,0.0
11349,45.0,0,30,3.0,0.0
11350,64.0,0,30,12.0,0.0
11351,64.0,0,30,11.0,0.0
11352,62.0,0,30,11.0,0.0
11353,62.0,0,30,12.0,0.0
11354,50.0,68,90,15.0,0.0
11355,50.0,0,30,14.0,0.0
11356,53.0,0,30,13.0,0.0
11357,50.0,0,30,3.0,0.0
11358,62.0,48,30,2.0,0.0
11359,64.0,14,30,12.0,0.0
11360,64.0,0,30,11.0,0.0
11361,55.0,0,30,13.0,0.0
11362,45.0,0,30,3.0,0.0
11363,45.0,0,30,14.0,0.0
11364,65.0,0,90,12.0,0.0
11365,38.0,28,60,14.0,0.0
11366,38.0,0,60,3.0,0.0
11367,38.0,0,90,15.0,0.0
11368,50.0,0,90,2.0,0.0
11369,57.0,0,90,13.0,0.0
11370,65.0,0,90,11.0,0.0
11371,41.0,2,90,3.0,0.0
11372,53.0,0,90,2.0,0.0
11373,41.0,0,30,15.0,0.0
11374,53.0,0,30,13.0,0.0
11375,63.0,0,30,11.0,0.0
11376,57.0,0,30,12.0,0.0
11377,48.0,62,30,3.0,0.0
11378,48.0,0,30,14.0,0.0
11379,82.0,0,20,12.0,0.0
11380,82.0,8,20,0.0,0.0
11381,34.0,2,90,3.0,0.0
11382,94.0,0,20,0.0,0.0
11383,34.0,0,90,15.0,0.0
11384,46.0,16,30,2.0,0.0
11385,46.0,0,30,3.0,0.0
11386,82.0,0,20,11.0,0.0
11387,74.0,0,180,13.0,0.0
11388,46.0,0,30,14.0,0.0
11389,96.0,0,20,0.0,0.0
11390,84.0,24,20,11.0,0.0
11391,84.0,0,20,0.0,0.0
11392,84.0,0,20,12.0,0.0
11393,82.0,0,20,0.0,0.0
11394,82.0,8,20,12.0,0.0
11395,58.0,0,30,3.0,0.0
11396,94.0,0,20,0.0,0.0
11397,82.0,0,20,11.0,0.0
11398,58.0,14,30,14.0,0.0
11399,96.0,0,20,0.0,0.0
11400,84.0,0,20,11.0,0.0
11401,84.0,32,20,12.0,0.0
11402,84.0,0,20,0.0,0.0
11403,82.0,0,30,11.0,0.0
11404,82.0,32,30,0.0,0.0
11405,82.0,0,30,12.0,0.0
11406,94.0,0,30,0.0,0.0
11407,38.0,0,30,14.0,0.0
11408,38.0,0,90,15.0,0.0
11409,50.0,0,30,2.0,0.0
11410,38.0,0,30,3.0,0.0
11411,81.0,16,30,12.0,0.0
11412,81.0,0,30,0.0,0.0
11413,93.0,0,30,0.0,0.0
11414,81.0,0,30,11.0,0.0
11415,50.0,0,30,14.0,0.0
11416,50.0,14,30,3.0,0.0
11417,82.0,0,30,0.0,0.0
11418,82.0,0,30,11.0,0.0
11419,94.0,0,30,0.0,0.0
11420,82.0,32,30,12.0,0.0
11421,93.0,0,30,0.0,0.0
11422,81.0,0,30,11.0,0.0
11423,53.0,0,30,2.0,0.0
11424,81.0,0,30,0.0,0.0
11425,41.0,0,30,14.0,0.0
11426,72.0,0,30,13.0,0.0
11427,41.0,48,30,3.0,0.0
11428,81.0,0,30,12.0,0.0
11429,41.0,32,90,15.0,0.0
11430,79.0,14,30,12.0,0.0
11431,91.0,0,30,0.0,0.0
11432,79.0,0,30,0.0,0.0
11433,53.0,0,30,3.0,0.0
11434,79.0,0,30,11.0,0.0
11435,53.0,0,30,14.0,0.0
11436,70.0,0,30,13.0,0.0
11437,57.0,0,30,2.0,0.0
11438,89.0,0,30,0.0,0.0
11439,69.0,0,30,13.0,0.0
11440,77.0,0,30,12.0,0.0
11441,77.0,0,30,0.0,0.0
11442,45.0,32,90,15.0,0.0
11443,45.0,0,30,3.0,0.0
11444,45.0,48,30,14.0,0.0
11445,77.0,0,30,11.0,0.0
11446,75.0,0,30,0.0,0.0
11447,67.0,0,30,13.0,0.0
11448,57.0,0,30,14.0,0.0
11449,87.0,14,30,0.0,0.0
11450,75.0,0,30,11.0,0.0
11451,57.0,0,30,3.0,0.0
11452,75.0,0,30,12.0,0.0
11453,74.0,0,30,11.0,0.0
11454,74.0,0,30,12.0,0.0
11455,46.0,0,30,14.0,0.0
11456,58.0,48,30,2.0,0.0
11457,74.0,0,30,0.0,0.0
11458,46.0,32,90,15.0,0.0
11459,65.0,0,30,13.0,0.0
11460,46.0,0,30,3.0,0.0
11461,86.0,0,30,0.0,0.0
11462,72.0,0,30,12.0,0.0
11463,53.0,0,30,3.0,0.0
11464,72.0,0,30,0.0,0.0
11465,53.0,14,30,14.0,0.0
11466,84.0,0,30,0.0,0.0
11467,63.0,0,30,13.0,0.0
11468,72.0,0,30,11.0,0.0
11469,70.0,48,30,12.0,0.0
11470,70.0,0,30,11.0,0.0
11471,70.0,0,30,0.0,0.0
11472,62.0,0,30,13.0,0.0
11473,58.0,0,30,14.0,0.0
11474,82.0,0,30,0.0,0.0
11475,58.0,0,30,3.0,0.0
11476,58.0,32,90,15.0,0.0
11477,84.0,0,30,0.0,0.0
11478,53.0,0,30,14.0,0.0
11479,63.0,0,30,13.0,0.0
11480,72.0,0,30,11.0,0.0
11481,72.0,0,30,12.0,0.0
11482,53.0,0,30,3.0,0.0
11483,72.0,16,30,0.0,0.0
11484,74.0,48,30,0.0,0.0
11485,74.0,0,30,12.0,0.0
11486,86.0,0,30,0.0,0.0
11487,46.0,0,30,14.0,0.0
11488,65.0,0,30,13.0,0.0
11489,74.0,0,30,11.0,0.0
11490,46.0,0,30,3.0,0.0
11491,46.0,32,90,15.0,0.0
11492,58.0,0,30,3.0,0.0
11493,58.0,16,30,14.0,0.0
11494,67.0,32,90,13.0,0.0
11495,75.0,0,90,11.0,0.0
11496,75.0,0,90,0.0,0.0
11497,75.0,0,90,12.0,0.0
11498,39.0,0,30,3.0,0.0
11499,87.0,0,90,0.0,0.0
11500,51.0,48,30,2.0,0.0
11501,39.0,0,30,14.0,0.0
11502,39.0,0,90,15.0,0.0
11503,51.0,0,30,14.0,0.0
11504,51.0,14,30,3.0,0.0
11505,46.0,0,90,15.0,0.0
11506,70.0,0,90,12.0,0.0
11507,46.0,0,30,14.0,0.0
11508,74.0,0,90,0.0,0.0
11509,58.0,48,30,2.0,0.0
11510,74.0,0,90,11.0,0.0
11511,65.0,32,90,13.0,0.0
11512,46.0,0,30,3.0,0.0
11513,86.0,0,90,0.0,0.0
11514,58.0,14,30,14.0,0.0
11515,58.0,0,30,3.0,0.0
11516,46.0,0,30,2.0,0.0
11517,34.0,32,90,15.0,0.0
11518,63.0,48,30,13.0,0.0
11519,46.0,0,30,14.0,0.0
11520,72.0,0,30,11.0,0.0
11521,34.0,2,90,3.0,0.0
11522,46.0,0,30,3.0,0.0
11523,72.0,0,30,12.0,0.0
11524,62.0,0,30,13.0,0.0
11525,58.0,0,30,14.0,0.0
11526,58.0,14,30,3.0,0.0
11527,70.0,0,30,12.0,0.0
11528,70.0,0,30,11.0,0.0
11529,69.0,0,30,12.0,0.0
11530,41.0,32,90,15.0,0.0
11531,41.0,0,30,3.0,0.0
11532,41.0,0,30,14.0,0.0
11533,53.0,0,30,2.0,0.0
11534,69.0,0,30,11.0,0.0
11535,60.0,48,30,13.0,0.0
11536,58.0,0,30,13.0,0.0
11537,53.0,0,30,3.0,0.0
11538,67.0,14,30,12.0,0.0
11539,67.0,0,30,11.0,0.0
11540,53.0,0,30,14.0,0.0
11541,65.0,0,30,12.0,0.0
11542,41.0,0,30,3.0,0.0
11543,29.0,32,90,15.0,0.0
11544,65.0,0,30,11.0,0.0
11545,41.0,0,30,14.0,0.0
11546,41.0,48,30,2.0,0.0
11547,29.0,2,90,3.0,0.0
11548,57.0,0,30,13.0,0.0
11549,53.0,14,30,3.0,0.0
11550,55.0,0,30,13.0,0.0
11551,63.0,0,30,11.0,0.0
11552,53.0,0,30,14.0,0.0
11553,63.0,0,30,12.0,0.0
11554,62.0,0,30,12.0,0.0
11555,46.0,48,30,14.0,0.0
11556,34.0,32,90,15.0,0.0
11557,46.0,0,30,3.0,0.0
11558,46.0,0,30,2.0,0.0
11559,62.0,0,30,11.0,0.0
11560,53.0,0,30,13.0,0.0
11561,34.0,2,90,3.0,0.0
11562,60.0,0,30,11.0,0.0
11563,41.0,14,30,14.0,0.0
11564,41.0,0,30,3.0,0.0
11565,51.0,0,30,13.0,0.0
11566,60.0,0,30,12.0,0.0
11567,46.0,0,30,3.0,0.0
11568,58.0,0,30,2.0,0.0
11569,46.0,0,30,14.0,0.0
11570,58.0,48,30,11.0,0.0
11571,46.0,32,90,15.0,0.0
11572,50.0,0,30,13.0,0.0
11573,58.0,0,30,12.0,0.0
11574,60.0,14,30,11.0,0.0
11575,53.0,0,30,3.0,0.0
11576,51.0,0,30,13.0,0.0
11577,53.0,0,30,14.0,0.0
11578,60.0,0,30,12.0,0.0
11579,46.0,48,30,14.0,0.0
11580,62.0,32,90,12.0,0.0
11581,53.0,0,90,13.0,0.0
11582,34.0,2,90,3.0,0.0
11583,62.0,0,90,11.0,0.0
11584,34.0,0,90,15.0,0.0
11585,46.0,0,30,2.0,0.0
11586,58.0,14,30,14.0,0.0
11587,33.0,2,90,3.0,0.0
11588,45.0,0,30,14.0,0.0
11589,57.0,0,30,13.0,0.0
11590,45.0,0,30,2.0,0.0
11591,61.0,48,30,12.0,0.0
11592,33.0,24,90,15.0,0.0
11593,64.0,0,30,11.0,0.0
11594,57.0,14,30,14.0,0.0
11595,38.0,0,90,15.0,0.0
11596,77.0,0,180,13.0,0.0
11597,38.0,0,30,3.0,0.0
11598,86.0,8,20,0.0,0.0
11599,38.0,0,30,14.0,0.0
11600,86.0,0,20,11.0,0.0
11601,50.0,16,30,2.0,0.0
11602,86.0,0,20,12.0,0.0
11603,98.0,0,20,0.0,0.0
11604,88.0,24,20,0.0,0.0
11605,88.0,0,20,12.0,0.0
11606,100.0,0,20,0.0,0.0
11607,88.0,0,20,11.0,0.0
11608,86.0,0,20,12.0,0.0
11609,50.0,14,30,3.0,0.0
11610,86.0,0,20,11.0,0.0
11611,98.0,8,20,0.0,0.0
11612,86.0,0,20,0.0,0.0
11613,50.0,0,30,14.0,0.0
11614,100.0,0,20,0.0,0.0
11615,88.0,0,20,11.0,0.0
11616,88.0,0,20,12.0,0.0
11617,88.0,32,20,0.0,0.0
11618,53.0,0,30,2.0,0.0
11619,41.0,0,30,14.0,0.0
11620,86.0,0,30,11.0,0.0
11621,86.0,0,30,12.0,0.0
11622,86.0,32,30,0.0,0.0
11623,41.0,0,30,3.0,0.0
11624,98.0,0,30,0.0,0.0
11625,41.0,0,90,15.0,0.0
11626,85.0,16,30,11.0,0.0
11627,85.0,0,30,12.0,0.0
11628,97.0,0,30,0.0,0.0
11629,85.0,0,30,0.0,0.0
11630,53.0,0,30,14.0,0.0
11631,53.0,14,30,3.0,0.0
11632,98.0,0,30,0.0,0.0
11633,86.0,32,30,12.0,0.0
11634,86.0,0,30,11.0,0.0
11635,86.0,0,30,0.0,0.0
11636,85.0,0,30,0.0,0.0
11637,43.0,0,30,14.0,0.0
11638,76.0,0,30,13.0,0.0
11639,85.0,0,30,11.0,0.0
11640,55.0,0,30,2.0,0.0
11641,43.0,48,30,3.0,0.0
11642,97.0,0,30,0.0,0.0
11643,43.0,32,90,15.0,0.0
11644,85.0,0,30,12.0,0.0
11645,94.0,0,30,0.0,0.0
11646,74.0,0,30,13.0,0.0
11647,55.0,0,30,14.0,0.0
11648,82.0,0,30,11.0,0.0
11649,82.0,0,30,0.0,0.0
11650,55.0,0,30,3.0,0.0
11651,82.0,14,30,12.0,0.0
11652,46.0,32,90,15.0,0.0
11653,46.0,48,30,14.0,0.0
11654,46.0,0,30,3.0,0.0
11655,93.0,0,30,0.0,0.0
11656,81.0,0,30,12.0,0.0
11657,73.0,0,30,13.0,0.0
11658,81.0,0,30,11.0,0.0
11659,58.0,0,30,2.0,0.0
11660,81.0,0,30,0.0,0.0
11661,58.0,0,30,3.0,0.0
11662,79.0,0,30,0.0,0.0
11663,79.0,0,30,11.0,0.0
11664,70.0,0,30,13.0,0.0
11665,91.0,0,30,0.0,0.0
11666,58.0,0,30,14.0,0.0
11667,79.0,14,30,12.0,0.0
11668,77.0,0,30,0.0,0.0
11669,50.0,32,90,15.0,0.0
11670,69.0,0,30,13.0,0.0
11671,77.0,0,30,11.0,0.0
11672,50.0,0,30,14.0,0.0
11673,62.0,0,30,2.0,0.0
11674,50.0,0,30,3.0,0.0
11675,89.0,48,30,0.0,0.0
11676,77.0,0,30,12.0,0.0
11677,57.0,0,30,14.0,0.0
11678,67.0,0,30,13.0,0.0
11679,76.0,0,30,12.0,0.0
11680,76.0,0,30,0.0,0.0
11681,88.0,0,30,0.0,0.0
11682,57.0,0,30,3.0,0.0
11683,76.0,14,30,11.0,0.0
11684,74.0,0,30,11.0,0.0
11685,86.0,0,30,0.0,0.0
11686,74.0,0,30,0.0,0.0
11687,74.0,0,30,12.0,0.0
11688,62.0,32,90,15.0,0.0
11689,62.0,0,30,14.0,0.0
11690,62.0,0,30,3.0,0.0
11691,65.0,48,30,13.0,0.0
11692,57.0,0,30,3.0,0.0
11693,88.0,0,30,0.0,0.0
11694,67.0,0,30,13.0,0.0
11695,76.0,0,30,0.0,0.0
11696,76.0,0,30,11.0,0.0
11697,76.0,0,30,12.0,0.0
11698,57.0,16,30,14.0,0.0
11699,77.0,48,30,11.0,0.0
11700,69.0,0,30,13.0,0.0
11701,77.0,0,30,0.0,0.0
11702,50.0,0,30,14.0,0.0
11703,77.0,0,30,12.0,0.0
11704,89.0,0,30,0.0,0.0
11705,50.0,32,90,15.0,0.0
11706,50.0,0,30,3.0,0.0
11707,62.0,0,30,14.0,0.0
11708,62.0,16,30,3.0,0.0
11709,43.0,48,30,14.0,0.0
11710,79.0,0,90,12.0,0.0
11711,55.0,0,30,2.0,0.0
11712,79.0,0,90,11.0,0.0
11713,91.0,0,90,0.0,0.0
11714,70.0,32,90,13.0,0.0
11715,43.0,0,90,15.0,0.0
11716,79.0,0,90,0.0,0.0
11717,43.0,0,30,3.0,0.0
11718,55.0,0,30,3.0,0.0
11719,55.0,14,30,14.0,0.0
11720,74.0,0,90,12.0,0.0
11721,77.0,0,90,11.0,0.0
11722,62.0,0,30,2.0,0.0
11723,50.0,0,90,15.0,0.0
11724,50.0,0,30,3.0,0.0
11725,89.0,0,90,0.0,0.0
11726,77.0,2,90,0.0,0.0
11727,69.0,32,90,13.0,0.0
11728,50.0,48,30,14.0,0.0
11729,62.0,14,30,14.0,0.0
11730,62.0,0,30,3.0,0.0
11731,38.0,0,30,14.0,0.0
11732,76.0,0,30,11.0,0.0
11733,50.0,0,30,2.0,0.0
11734,76.0,32,40,12.0,0.0
11735,67.0,16,30,13.0,0.0
11736,38.0,0,30,3.0,0.0
11737,38.0,32,90,15.0,0.0
11738,50.0,0,30,3.0,0.0
11739,50.0,0,30,14.0,0.0
11740,74.0,0,30,11.0,0.0
11741,74.0,0,30,12.0,0.0
11742,65.0,14,30,13.0,0.0
11743,64.0,48,30,13.0,0.0
11744,55.0,0,30,2.0,0.0
11745,72.0,0,30,12.0,0.0
11746,43.0,0,30,3.0,0.0
11747,43.0,0,30,14.0,0.0
11748,72.0,0,30,11.0,0.0
11749,43.0,32,90,15.0,0.0
11750,55.0,0,30,3.0,0.0
11751,62.0,14,30,13.0,0.0
11752,70.0,0,30,11.0,0.0
11753,55.0,0,30,14.0,0.0
11754,70.0,0,30,12.0,0.0
11755,31.0,32,90,15.0,0.0
11756,43.0,0,30,14.0,0.0
11757,69.0,0,30,12.0,0.0
11758,43.0,0,30,2.0,0.0
11759,60.0,0,30,13.0,0.0
11760,31.0,2,90,3.0,0.0
11761,43.0,0,30,3.0,0.0
11762,69.0,48,30,11.0,0.0
11763,55.0,0,30,14.0,0.0
11764,55.0,0,30,3.0,0.0
11765,67.0,14,30,12.0,0.0
11766,67.0,0,30,11.0,0.0
11767,58.0,0,30,13.0,0.0
11768,38.0,0,30,14.0,0.0
11769,57.0,0,30,13.0,0.0
11770,65.0,0,30,11.0,0.0
11771,38.0,32,90,15.0,0.0
11772,65.0,0,30,12.0,0.0
11773,50.0,0,30,2.0,0.0
11774,38.0,48,30,3.0,0.0
11775,45.0,0,30,14.0,0.0
11776,64.0,0,30,12.0,0.0
11777,64.0,0,30,11.0,0.0
11778,55.0,14,30,13.0,0.0
11779,45.0,0,30,3.0,0.0
11780,62.0,0,30,11.0,0.0
11781,62.0,0,30,2.0,0.0
11782,53.0,0,30,13.0,0.0
11783,50.0,48,30,14.0,0.0
11784,50.0,68,90,15.0,0.0
11785,62.0,0,30,12.0,0.0
11786,50.0,0,30,3.0,0.0
11787,64.0,0,30,12.0,0.0
11788,55.0,14,30,13.0,0.0
11789,45.0,0,30,3.0,0.0
11790,45.0,0,30,14.0,0.0
11791,64.0,0,30,11.0,0.0
11792,50.0,0,90,2.0,0.0
11793,38.0,0,60,3.0,0.0
11794,65.0,0,90,12.0,0.0
11795,38.0,0,90,15.0,0.0
11796,65.0,0,90,11.0,0.0
11797,57.0,0,90,13.0,0.0
11798,38.0,28,60,14.0,0.0
11799,57.0,0,30,12.0,0.0
11800,41.0,2,90,3.0,0.0
11801,63.0,0,30,11.0,0.0
11802,48.0,0,30,14.0,0.0
11803,53.0,0,90,2.0,0.0
11804,53.0,62,30,13.0,0.0
11805,41.0,0,30,15.0,0.0
11806,48.0,0,30,3.0,0.0
11807,96.0,0,20,0.0,0.0
11808,41.0,0,30,14.0,0.0
11809,84.0,0,20,0.0,0.0
11810,84.0,0,20,11.0,0.0
11811,29.0,2,90,3.0,0.0
11812,41.0,0,30,2.0,0.0
11813,84.0,8,20,12.0,0.0
11814,29.0,0,90,15.0,0.0
11815,41.0,16,30,3.0,0.0
11816,86.0,0,20,12.0,0.0
11817,86.0,24,20,0.0,0.0
11818,98.0,0,20,0.0,0.0
11819,86.0,0,20,11.0,0.0
11820,96.0,0,20,0.0,0.0
11821,84.0,8,20,11.0,0.0
11822,84.0,0,20,12.0,0.0
11823,53.0,14,30,3.0,0.0
11824,84.0,0,20,0.0,0.0
11825,53.0,0,30,14.0,0.0
11826,86.0,0,20,12.0,0.0
11827,86.0,32,20,0.0,0.0
11828,86.0,0,20,11.0,0.0
11829,98.0,0,20,0.0,0.0
11830,96.0,0,30,0.0,0.0
11831,45.0,32,30,14.0,0.0
11832,45.0,0,30,2.0,0.0
11833,45.0,0,30,3.0,0.0
11834,33.0,0,90,15.0,0.0
11835,84.0,0,30,12.0,0.0
11836,33.0,2,90,3.0,0.0
11837,84.0,0,30,11.0,0.0
11838,84.0,0,30,0.0,0.0
11839,83.0,16,30,12.0,0.0
11840,83.0,0,30,11.0,0.0
11841,83.0,0,30,0.0,0.0
11842,95.0,0,30,0.0,0.0
11843,57.0,14,30,3.0,0.0
11844,57.0,0,30,14.0,0.0
11845,84.0,32,30,0.0,0.0
11846,84.0,0,30,11.0,0.0
11847,84.0,0,30,12.0,0.0
11848,96.0,0,30,0.0,0.0
11849,77.0,0,15,13.0,0.0
11850,98.0,0,90,0.0,0.0
11851,34.0,2,90,3.0,0.0
11852,34.0,0,90,15.0,0.0
11853,46.0,48,30,2.0,0.0
11854,86.0,32,90,12.0,0.0
11855,46.0,0,30,14.0,0.0
11856,46.0,0,30,3.0,0.0
11857,86.0,0,90,11.0,0.0
11858,86.0,0,90,0.0,0.0
11859,58.0,0,30,3.0,0.0
11860,58.0,14,30,14.0,0.0
11861,96.0,0,30,0.0,0.0
11862,38.0,0,30,3.0,0.0
11863,84.0,48,30,12.0,0.0
11864,84.0,0,30,11.0,0.0
11865,38.0,32,90,15.0,0.0
11866,50.0,0,30,2.0,0.0
11867,38.0,0,30,14.0,0.0
11868,84.0,0,30,0.0,0.0
11869,75.0,0,30,13.0,0.0
11870,50.0,0,30,14.0,0.0
11871,82.0,0,30,12.0,0.0
11872,82.0,0,30,11.0,0.0
11873,74.0,0,30,13.0,0.0
11874,94.0,0,30,0.0,0.0
11875,50.0,0,30,3.0,0.0
11876,82.0,14,30,0.0,0.0
11877,81.0,0,30,12.0,0.0
11878,93.0,0,30,0.0,0.0
11879,41.0,32,90,15.0,0.0
11880,72.0,0,30,13.0,0.0
11881,41.0,0,30,14.0,0.0
11882,81.0,48,30,0.0,0.0
11883,41.0,0,30,3.0,0.0
11884,53.0,0,30,2.0,0.0
11885,81.0,0,30,11.0,0.0
11886,79.0,0,30,11.0,0.0
11887,48.0,0,30,14.0,0.0
11888,70.0,0,30,13.0,0.0
11889,91.0,0,30,0.0,0.0
11890,48.0,14,30,3.0,0.0
11891,79.0,0,30,12.0,0.0
11892,79.0,0,30,0.0,0.0
11893,89.0,0,30,0.0,0.0
11894,77.0,0,30,0.0,0.0
11895,53.0,48,30,14.0,0.0
11896,77.0,0,30,12.0,0.0
11897,53.0,0,30,3.0,0.0
11898,69.0,0,30,13.0,0.0
11899,65.0,0,30,2.0,0.0
11900,77.0,0,30,11.0,0.0
11901,53.0,32,90,15.0,0.0
11902,70.0,0,30,13.0,0.0
11903,79.0,0,30,11.0,0.0
11904,48.0,0,30,3.0,0.0
11905,79.0,0,30,12.0,0.0
11906,79.0,0,30,0.0,0.0
11907,48.0,0,30,14.0,0.0
11908,91.0,14,30,0.0,0.0
11909,72.0,0,90,13.0,0.0
11910,81.0,0,90,0.0,0.0
11911,93.0,32,90,0.0,0.0
11912,81.0,0,90,12.0,0.0
11913,41.0,0,30,14.0,0.0
11914,41.0,0,90,15.0,0.0
11915,53.0,0,30,2.0,0.0
11916,81.0,0,90,11.0,0.0
11917,41.0,48,30,3.0,0.0
11918,53.0,0,30,14.0,0.0
11919,53.0,14,30,3.0,0.0
11920,82.0,0,90,0.0,0.0
11921,50.0,0,30,2.0,0.0
11922,77.0,0,90,12.0,0.0
11923,94.0,0,90,0.0,0.0
11924,70.0,24,90,13.0,0.0
11925,38.0,0,90,15.0,0.0
11926,82.0,0,90,11.0,0.0
11927,38.0,48,30,14.0,0.0
11928,38.0,0,30,3.0,0.0
11929,50.0,0,30,3.0,0.0
11930,50.0,14,30,14.0,0.0
11931,39.0,16,30,14.0,0.0
11932,39.0,0,30,15.0,0.0
11933,72.0,8,20,11.0,0.0
11934,67.0,0,180,12.0,0.0
11935,74.0,24,20,11.0,0.0
11936,48.0,16,30,14.0,0.0
11937,72.0,8,20,11.0,0.0
11938,74.0,32,20,11.0,0.0
11939,51.0,0,30,15.0,0.0
11940,51.0,0,30,14.0,0.0
11941,72.0,32,30,11.0,0.0
11942,71.0,32,30,11.0,0.0
11943,72.0,24,30,11.0,0.0
11944,53.0,24,180,15.0,0.0
11945,53.0,0,180,2.0,0.0
11946,69.0,0,180,12.0,0.0
11947,65.0,24,40,13.0,0.0
11948,57.0,0,180,3.0,0.0
11949,53.0,0,180,14.0,0.0
11950,53.0,0,150,3.0,0.0
11951,74.0,24,20,11.0,0.0
11952,57.0,0,180,14.0,0.0
11953,75.0,0,20,11.0,0.0
11954,74.0,24,20,11.0,0.0
11955,63.0,0,40,13.0,0.0
11956,75.0,32,20,11.0,0.0
11957,62.0,16,40,13.0,0.0
11958,74.0,16,30,11.0,0.0
11959,72.0,32,30,11.0,0.0
11960,60.0,0,40,13.0,0.0
11961,74.0,0,30,11.0,0.0
11962,67.0,24,40,13.0,0.0
11963,58.0,0,180,3.0,0.0
11964,55.0,0,180,14.0,0.0
11965,58.0,0,180,14.0,0.0
11966,55.0,0,180,2.0,0.0
11967,70.0,16,180,12.0,0.0
11968,75.0,24,20,11.0,0.0
11969,55.0,0,180,15.0,0.0
11970,55.0,32,150,3.0,0.0
11971,77.0,0,20,11.0,0.0
11972,75.0,24,20,11.0,0.0
11973,63.0,0,40,13.0,0.0
11974,77.0,32,20,11.0,0.0
11975,62.0,16,40,13.0,0.0
11976,75.0,16,30,11.0,0.0
11977,74.0,0,30,11.0,0.0
11978,63.0,0,40,13.0,0.0
11979,75.0,0,30,11.0,0.0
11980,77.0,16,15,11.0,0.0
11981,57.0,0,180,15.0,0.0
11982,57.0,0,180,2.0,0.0
11983,57.0,24,180,14.0,0.0
11984,60.0,0,180,14.0,0.0
11985,69.0,16,40,13.0,0.0
11986,60.0,0,180,3.0,0.0
11987,57.0,32,150,3.0,0.0
11988,72.0,0,180,12.0,0.0
11989,79.0,16,15,11.0,0.0
11990,77.0,0,15,11.0,0.0
11991,67.0,0,40,13.0,0.0
11992,79.0,16,15,11.0,0.0
11993,77.0,16,15,11.0,0.0
11994,79.0,32,15,11.0,0.0
11995,77.0,16,30,11.0,0.0
11996,65.0,16,40,13.0,0.0
11997,76.0,0,30,11.0,0.0
11998,63.0,0,40,13.0,0.0
11999,77.0,0,30,11.0,0.0
12000,46.0,16,30,3.0,0.0
12001,82.0,0,20,11.0,0.0
12002,34.0,0,90,15.0,0.0
12003,46.0,0,30,2.0,0.0
12004,82.0,0,20,0.0,0.0
12005,74.0,0,180,13.0,0.0
12006,82.0,0,20,12.0,0.0
12007,34.0,2,90,3.0,0.0
12008,94.0,8,20,0.0,0.0
12009,46.0,0,30,14.0,0.0
12010,84.0,24,20,0.0,0.0
12011,84.0,0,20,12.0,0.0
12012,84.0,0,20,11.0,0.0
12013,96.0,0,20,0.0,0.0
12014,58.0,0,30,3.0,0.0
12015,58.0,14,30,14.0,0.0
12016,94.0,8,20,0.0,0.0
12017,82.0,0,20,0.0,0.0
12018,82.0,0,20,11.0,0.0
12019,82.0,0,20,12.0,0.0
12020,84.0,0,20,0.0,0.0
12021,96.0,0,20,0.0,0.0
12022,84.0,32,20,11.0,0.0
12023,84.0,0,20,12.0,0.0
12024,82.0,0,30,0.0,0.0
12025,82.0,0,30,12.0,0.0
12026,38.0,0,90,15.0,0.0
12027,94.0,0,30,0.0,0.0
12028,38.0,0,30,3.0,0.0
12029,50.0,0,30,2.0,0.0
12030,38.0,0,30,14.0,0.0
12031,82.0,32,30,11.0,0.0
12032,93.0,0,30,0.0,0.0
12033,81.0,16,30,0.0,0.0
12034,81.0,0,30,11.0,0.0
12035,81.0,0,30,12.0,0.0
12036,50.0,14,30,14.0,0.0
12037,50.0,0,30,3.0,0.0
12038,82.0,0,30,12.0,0.0
12039,94.0,32,30,0.0,0.0
12040,82.0,0,30,11.0,0.0
12041,82.0,0,30,0.0,0.0
12042,53.0,0,30,2.0,0.0
12043,41.0,32,90,15.0,0.0
12044,81.0,0,40,0.0,0.0
12045,93.0,2,40,0.0,0.0
12046,81.0,32,40,11.0,0.0
12047,41.0,0,30,14.0,0.0
12048,41.0,14,30,3.0,0.0
12049,72.0,0,30,13.0,0.0
12050,81.0,0,30,12.0,0.0
12051,53.0,0,30,3.0,0.0
12052,70.0,0,30,13.0,0.0
12053,79.0,14,30,0.0,0.0
12054,79.0,0,30,11.0,0.0
12055,91.0,0,30,0.0,0.0
12056,53.0,0,30,14.0,0.0
12057,79.0,0,30,12.0,0.0
12058,77.0,0,30,0.0,0.0
12059,69.0,0,30,13.0,0.0
12060,45.0,48,30,14.0,0.0
12061,45.0,32,90,15.0,0.0
12062,57.0,0,30,2.0,0.0
12063,77.0,0,30,12.0,0.0
12064,45.0,0,30,3.0,0.0
12065,89.0,0,30,0.0,0.0
12066,77.0,0,30,11.0,0.0
12067,67.0,0,30,13.0,0.0
12068,75.0,0,30,12.0,0.0
12069,87.0,0,30,0.0,0.0
12070,75.0,0,30,0.0,0.0
12071,57.0,0,30,3.0,0.0
12072,57.0,14,30,14.0,0.0
12073,75.0,0,30,11.0,0.0
12074,74.0,0,30,0.0,0.0
12075,58.0,0,30,2.0,0.0
12076,86.0,0,30,0.0,0.0
12077,46.0,0,30,14.0,0.0
12078,65.0,48,30,13.0,0.0
12079,46.0,0,30,3.0,0.0
12080,74.0,0,30,12.0,0.0
12081,74.0,0,30,11.0,0.0
12082,46.0,32,90,15.0,0.0
12083,53.0,14,30,3.0,0.0
12084,72.0,0,30,12.0,0.0
12085,84.0,0,30,0.0,0.0
12086,72.0,0,30,11.0,0.0
12087,63.0,0,30,13.0,0.0
12088,53.0,0,30,14.0,0.0
12089,72.0,0,30,0.0,0.0
12090,70.0,0,30,12.0,0.0
12091,70.0,0,30,11.0,0.0
12092,70.0,0,30,0.0,0.0
12093,58.0,48,30,14.0,0.0
12094,62.0,0,30,13.0,0.0
12095,70.0,0,30,2.0,0.0
12096,58.0,32,90,15.0,0.0
12097,82.0,0,30,0.0,0.0
12098,58.0,0,30,3.0,0.0
12099,53.0,0,30,14.0,0.0
12100,84.0,0,30,0.0,0.0
12101,72.0,14,30,12.0,0.0
12102,63.0,0,30,13.0,0.0
12103,53.0,0,30,3.0,0.0
12104,72.0,0,30,0.0,0.0
12105,72.0,0,30,11.0,0.0
12106,74.0,0,30,0.0,0.0
12107,65.0,0,30,13.0,0.0
12108,74.0,0,30,11.0,0.0
12109,46.0,0,30,14.0,0.0
12110,46.0,32,90,15.0,0.0
12111,86.0,0,30,0.0,0.0
12112,74.0,48,30,12.0,0.0
12113,58.0,16,30,14.0,0.0
12114,74.0,0,90,12.0,0.0
12115,91.0,32,90,0.0,0.0
12116,43.0,0,90,15.0,0.0
12117,67.0,0,90,13.0,0.0
12118,79.0,0,90,0.0,0.0
12119,43.0,48,30,14.0,0.0
12120,79.0,0,90,11.0,0.0
12121,70.0,0,90,12.0,0.0
12122,55.0,16,30,14.0,0.0
12123,72.0,0,40,0.0,0.0
12124,36.0,32,90,15.0,0.0
12125,72.0,0,40,11.0,0.0
12126,48.0,0,30,14.0,0.0
12127,48.0,14,30,2.0,0.0
12128,63.0,0,40,13.0,0.0
12129,72.0,32,40,12.0,0.0
12130,48.0,0,30,3.0,0.0
12131,84.0,2,40,0.0,0.0
12132,36.0,2,90,3.0,0.0
12133,43.0,0,30,14.0,0.0
12134,67.0,0,30,11.0,0.0
12135,79.0,0,30,0.0,0.0
12136,43.0,0,30,3.0,0.0
12137,62.0,0,30,13.0,0.0
12138,67.0,0,30,12.0,0.0
12139,67.0,14,30,0.0,0.0
12140,60.0,0,30,2.0,0.0
12141,75.0,0,30,0.0,0.0
12142,63.0,0,30,0.0,0.0
12143,48.0,48,30,14.0,0.0
12144,60.0,0,30,13.0,0.0
12145,63.0,0,30,12.0,0.0
12146,48.0,32,90,15.0,0.0
12147,48.0,0,30,3.0,0.0
12148,63.0,0,30,11.0,0.0
12149,43.0,0,30,14.0,0.0
12150,43.0,0,30,3.0,0.0
12151,67.0,0,30,11.0,0.0
12152,62.0,0,30,13.0,0.0
12153,67.0,14,30,12.0,0.0
12154,67.0,0,30,0.0,0.0
12155,79.0,0,30,0.0,0.0
12156,63.0,0,30,13.0,0.0
12157,48.0,0,30,14.0,0.0
12158,72.0,0,30,0.0,0.0
12159,72.0,0,30,12.0,0.0
12160,84.0,48,30,0.0,0.0
12161,72.0,0,30,11.0,0.0
12162,36.0,2,90,3.0,0.0
12163,36.0,32,90,15.0,0.0
12164,48.0,0,30,3.0,0.0
12165,48.0,0,30,2.0,0.0
12166,60.0,0,30,14.0,0.0
12167,60.0,14,30,3.0,0.0
12168,29.0,0,90,3.0,0.0
12169,41.0,0,30,2.0,0.0
12170,65.0,0,90,13.0,0.0
12171,72.0,32,90,12.0,0.0
12172,69.0,0,90,12.0,0.0
12173,89.0,0,90,0.0,0.0
12174,77.0,0,90,11.0,0.0
12175,29.0,0,90,15.0,0.0
12176,41.0,48,30,14.0,0.0
12177,41.0,0,30,3.0,0.0
12178,77.0,2,90,0.0,0.0
12179,53.0,0,30,3.0,0.0
12180,53.0,14,30,14.0,0.0
12181,46.0,0,30,2.0,0.0
12182,62.0,0,30,13.0,0.0
12183,46.0,0,30,3.0,0.0
12184,34.0,32,90,15.0,0.0
12185,82.0,0,30,0.0,0.0
12186,70.0,0,30,0.0,0.0
12187,70.0,0,30,11.0,0.0
12188,46.0,0,30,14.0,0.0
12189,34.0,2,90,3.0,0.0
12190,70.0,48,30,12.0,0.0
12191,65.0,0,30,11.0,0.0
12192,41.0,0,30,14.0,0.0
12193,65.0,0,30,0.0,0.0
12194,65.0,14,30,12.0,0.0
12195,41.0,0,30,3.0,0.0
12196,65.0,0,30,13.0,0.0
12197,77.0,0,30,0.0,0.0
12198,62.0,0,30,12.0,0.0
12199,58.0,0,30,2.0,0.0
12200,46.0,0,30,14.0,0.0
12201,62.0,0,30,0.0,0.0
12202,74.0,0,30,0.0,0.0
12203,46.0,0,30,3.0,0.0
12204,62.0,48,30,11.0,0.0
12205,62.0,0,30,13.0,0.0
12206,46.0,96,90,15.0,0.0
12207,53.0,0,30,3.0,0.0
12208,65.0,0,30,0.0,0.0
12209,65.0,0,30,12.0,0.0
12210,65.0,0,30,11.0,0.0
12211,77.0,0,30,0.0,0.0
12212,53.0,0,30,14.0,0.0
12213,65.0,14,30,13.0,0.0
12214,70.0,0,90,11.0,0.0
12215,70.0,0,90,0.0,0.0
12216,46.0,0,90,2.0,0.0
12217,46.0,32,90,14.0,0.0
12218,34.0,0,90,3.0,0.0
12219,70.0,0,90,12.0,0.0
12220,34.0,0,90,15.0,0.0
12221,82.0,0,90,0.0,0.0
12222,62.0,0,90,13.0,0.0
12223,46.0,0,15,3.0,0.0
12224,65.0,0,30,11.0,0.0
12225,58.0,0,30,14.0,0.0
12226,58.0,0,30,2.0,0.0
12227,77.0,0,30,0.0,0.0
12228,46.0,0,30,15.0,0.0
12229,62.0,0,30,13.0,0.0
12230,58.0,0,30,3.0,0.0
12231,65.0,0,30,12.0,0.0
12232,65.0,64,30,0.0,0.0
12233,84.0,0,20,0.0,0.0
12234,41.0,16,30,14.0,0.0
12235,29.0,2,90,3.0,0.0
12236,96.0,0,20,0.0,0.0
12237,77.0,0,180,13.0,0.0
12238,41.0,0,30,3.0,0.0
12239,41.0,0,30,2.0,0.0
12240,84.0,8,20,11.0,0.0
12241,29.0,0,90,15.0,0.0
12242,84.0,0,20,12.0,0.0
12243,86.0,24,20,12.0,0.0
12244,98.0,0,20,0.0,0.0
12245,86.0,0,20,0.0,0.0
12246,86.0,0,20,11.0,0.0
12247,84.0,0,20,0.0,0.0
12248,53.0,14,30,14.0,0.0
12249,84.0,0,20,11.0,0.0
12250,53.0,0,30,3.0,0.0
12251,96.0,0,20,0.0,0.0
12252,84.0,8,20,12.0,0.0
12253,86.0,0,20,0.0,0.0
12254,86.0,32,20,12.0,0.0
12255,86.0,0,20,11.0,0.0
12256,98.0,0,20,0.0,0.0
12257,33.0,0,90,15.0,0.0
12258,45.0,0,30,2.0,0.0
12259,33.0,2,90,3.0,0.0
12260,45.0,0,30,14.0,0.0
12261,84.0,0,30,12.0,0.0
12262,84.0,0,30,11.0,0.0
12263,84.0,0,30,0.0,0.0
12264,45.0,0,30,3.0,0.0
12265,96.0,32,30,0.0,0.0
12266,83.0,0,30,11.0,0.0
12267,83.0,16,30,12.0,0.0
12268,95.0,0,30,0.0,0.0
12269,83.0,0,30,0.0,0.0
12270,57.0,14,30,14.0,0.0
12271,57.0,0,30,3.0,0.0
12272,84.0,0,30,0.0,0.0
12273,84.0,32,30,12.0,0.0
12274,96.0,0,30,0.0,0.0
12275,84.0,0,30,11.0,0.0
12276,86.0,2,90,0.0,0.0
12277,46.0,48,30,14.0,0.0
12278,98.0,0,90,0.0,0.0
12279,86.0,0,90,11.0,0.0
12280,77.0,0,90,13.0,0.0
12281,34.0,0,90,3.0,0.0
12282,46.0,0,30,2.0,0.0
12283,86.0,0,90,12.0,0.0
12284,34.0,32,90,15.0,0.0
12285,46.0,0,30,3.0,0.0
12286,58.0,0,30,14.0,0.0
12287,58.0,14,30,3.0,0.0
12288,84.0,0,30,11.0,0.0
12289,38.0,48,30,14.0,0.0
12290,75.0,0,30,13.0,0.0
12291,38.0,0,30,3.0,0.0
12292,84.0,0,30,0.0,0.0
12293,38.0,32,90,15.0,0.0
12294,96.0,0,30,0.0,0.0
12295,84.0,0,30,12.0,0.0
12296,50.0,0,30,2.0,0.0
12297,82.0,0,30,0.0,0.0
12298,82.0,14,30,12.0,0.0
12299,94.0,0,30,0.0,0.0
12300,82.0,0,30,11.0,0.0
12301,74.0,0,30,13.0,0.0
12302,50.0,0,30,14.0,0.0
12303,50.0,0,30,3.0,0.0
12304,81.0,0,30,12.0,0.0
12305,41.0,32,90,15.0,0.0
12306,81.0,0,30,0.0,0.0
12307,81.0,0,30,11.0,0.0
12308,41.0,0,30,14.0,0.0
12309,93.0,0,30,0.0,0.0
12310,72.0,0,30,13.0,0.0
12311,53.0,48,30,2.0,0.0
12312,41.0,0,30,3.0,0.0
12313,48.0,0,30,14.0,0.0
12314,48.0,0,30,3.0,0.0
12315,70.0,0,30,13.0,0.0
12316,79.0,14,30,12.0,0.0
12317,79.0,0,30,0.0,0.0
12318,79.0,0,30,11.0,0.0
12319,91.0,0,30,0.0,0.0
12320,53.0,32,90,15.0,0.0
12321,77.0,0,30,11.0,0.0
12322,53.0,0,30,14.0,0.0
12323,77.0,0,30,0.0,0.0
12324,89.0,0,30,0.0,0.0
12325,65.0,0,30,2.0,0.0
12326,69.0,0,30,13.0,0.0
12327,77.0,0,30,12.0,0.0
12328,53.0,48,30,3.0,0.0
12329,79.0,0,30,11.0,0.0
12330,70.0,0,30,13.0,0.0
12331,79.0,0,30,0.0,0.0
12332,48.0,0,30,14.0,0.0
12333,91.0,14,30,0.0,0.0
12334,79.0,0,30,12.0,0.0
12335,48.0,0,30,3.0,0.0
12336,81.0,0,90,0.0,0.0
12337,81.0,0,90,11.0,0.0
12338,41.0,0,90,15.0,0.0
12339,41.0,48,30,14.0,0.0
12340,53.0,0,30,2.0,0.0
12341,72.0,32,90,13.0,0.0
12342,41.0,0,30,3.0,0.0
12343,81.0,0,90,12.0,0.0
12344,93.0,0,90,0.0,0.0
12345,53.0,14,30,14.0,0.0
12346,53.0,0,30,3.0,0.0
12347,94.0,2,90,0.0,0.0
12348,82.0,24,90,11.0,0.0
12349,38.0,48,30,14.0,0.0
12350,70.0,0,90,13.0,0.0
12351,77.0,0,90,12.0,0.0
12352,50.0,0,30,2.0,0.0
12353,82.0,0,90,0.0,0.0
12354,38.0,0,90,15.0,0.0
12355,38.0,0,30,3.0,0.0
12356,50.0,0,30,3.0,0.0
12357,50.0,14,30,14.0,0.0
12358,72.0,8,20,11.0,0.0
12359,39.0,0,30,15.0,0.0
12360,67.0,0,180,12.0,0.0
12361,39.0,16,30,14.0,0.0
12362,74.0,24,20,11.0,0.0
12363,72.0,8,20,11.0,0.0
12364,48.0,16,30,14.0,0.0
12365,74.0,32,20,11.0,0.0
12366,72.0,0,30,11.0,0.0
12367,51.0,0,30,14.0,0.0
12368,51.0,32,30,15.0,0.0
12369,71.0,32,30,11.0,0.0
12370,72.0,24,30,11.0,0.0
12371,69.0,0,180,12.0,0.0
12372,57.0,0,180,3.0,0.0
12373,57.0,24,180,14.0,0.0
12374,65.0,24,40,13.0,0.0
12375,53.0,32,150,3.0,0.0
12376,53.0,0,180,2.0,0.0
12377,53.0,0,180,14.0,0.0
12378,53.0,0,180,15.0,0.0
12379,74.0,24,20,11.0,0.0
12380,75.0,0,20,11.0,0.0
12381,74.0,24,20,11.0,0.0
12382,63.0,32,40,13.0,0.0
12383,75.0,0,20,11.0,0.0
12384,74.0,16,30,11.0,0.0
12385,62.0,16,40,13.0,0.0
12386,72.0,0,30,11.0,0.0
12387,60.0,0,40,13.0,0.0
12388,74.0,0,30,11.0,0.0
12389,75.0,24,20,11.0,0.0
12390,70.0,16,180,12.0,0.0
12391,58.0,0,180,3.0,0.0
12392,55.0,0,150,3.0,0.0
12393,58.0,0,180,14.0,0.0
12394,55.0,0,180,14.0,0.0
12395,55.0,0,180,2.0,0.0
12396,55.0,0,180,15.0,0.0
12397,67.0,24,40,13.0,0.0
12398,77.0,0,20,11.0,0.0
12399,75.0,24,20,11.0,0.0
12400,63.0,0,40,13.0,0.0
12401,77.0,32,20,11.0,0.0
12402,75.0,16,30,11.0,0.0
12403,62.0,16,40,13.0,0.0
12404,74.0,32,30,11.0,0.0
12405,63.0,0,40,13.0,0.0
12406,75.0,0,30,11.0,0.0
12407,60.0,0,180,3.0,0.0
12408,77.0,16,15,11.0,0.0
12409,57.0,0,180,14.0,0.0
12410,57.0,32,150,3.0,0.0
12411,69.0,0,40,13.0,0.0
12412,60.0,0,180,14.0,0.0
12413,57.0,0,180,2.0,0.0
12414,72.0,0,180,12.0,0.0
12415,57.0,24,180,15.0,0.0
12416,79.0,16,15,11.0,0.0
12417,77.0,16,15,11.0,0.0
12418,67.0,32,40,13.0,0.0
12419,79.0,16,15,11.0,0.0
12420,77.0,16,15,11.0,0.0
12421,79.0,0,15,11.0,0.0
12422,77.0,16,30,11.0,0.0
12423,65.0,16,40,13.0,0.0
12424,76.0,0,30,11.0,0.0
12425,63.0,0,40,13.0,0.0
12426,77.0,0,30,11.0,0.0
12427,46.0,0,30,2.0,0.0
12428,46.0,16,30,3.0,0.0
12429,82.0,0,20,11.0,0.0
12430,46.0,0,30,14.0,0.0
12431,82.0,8,20,12.0,0.0
12432,94.0,0,20,0.0,0.0
12433,74.0,0,180,13.0,0.0
12434,34.0,0,90,15.0,0.0
12435,34.0,2,90,3.0,0.0
12436,82.0,0,20,0.0,0.0
12437,84.0,0,20,0.0,0.0
12438,96.0,0,20,0.0,0.0
12439,84.0,0,20,12.0,0.0
12440,84.0,24,20,11.0,0.0
12441,82.0,8,20,12.0,0.0
12442,94.0,0,20,0.0,0.0
12443,58.0,14,30,14.0,0.0
12444,82.0,0,20,0.0,0.0
12445,82.0,0,20,11.0,0.0
12446,58.0,0,30,3.0,0.0
12447,84.0,0,20,11.0,0.0
12448,96.0,0,20,0.0,0.0
12449,84.0,0,20,0.0,0.0
12450,84.0,32,20,12.0,0.0
12451,82.0,0,30,0.0,0.0
12452,38.0,0,30,14.0,0.0
12453,94.0,32,30,0.0,0.0
12454,50.0,0,30,2.0,0.0
12455,82.0,0,30,11.0,0.0
12456,38.0,0,90,15.0,0.0
12457,38.0,0,30,3.0,0.0
12458,82.0,0,30,12.0,0.0
12459,81.0,0,30,12.0,0.0
12460,81.0,0,30,0.0,0.0
12461,81.0,16,30,11.0,0.0
12462,93.0,0,30,0.0,0.0
12463,50.0,0,30,14.0,0.0
12464,50.0,14,30,3.0,0.0
12465,94.0,32,30,0.0,0.0
12466,82.0,0,30,0.0,0.0
12467,82.0,0,30,12.0,0.0
12468,82.0,0,30,11.0,0.0
12469,41.0,32,90,15.0,0.0
12470,81.0,0,30,12.0,0.0
12471,81.0,0,40,0.0,0.0
12472,41.0,14,30,3.0,0.0
12473,81.0,32,40,11.0,0.0
12474,41.0,0,30,14.0,0.0
12475,72.0,0,30,13.0,0.0
12476,53.0,0,30,2.0,0.0
12477,93.0,2,40,0.0,0.0
12478,70.0,0,30,13.0,0.0
12479,79.0,0,30,12.0,0.0
12480,53.0,0,30,3.0,0.0
12481,79.0,0,30,11.0,0.0
12482,91.0,0,30,0.0,0.0
12483,79.0,0,30,0.0,0.0
12484,53.0,14,30,14.0,0.0
12485,69.0,0,30,13.0,0.0
12486,77.0,0,30,11.0,0.0
12487,77.0,0,30,0.0,0.0
12488,45.0,0,30,14.0,0.0
12489,57.0,0,30,2.0,0.0
12490,77.0,0,30,12.0,0.0
12491,45.0,32,90,15.0,0.0
12492,45.0,0,30,3.0,0.0
12493,89.0,48,30,0.0,0.0
12494,75.0,0,30,0.0,0.0
12495,57.0,14,30,14.0,0.0
12496,75.0,0,30,12.0,0.0
12497,75.0,0,30,11.0,0.0
12498,57.0,0,30,3.0,0.0
12499,67.0,0,30,13.0,0.0
12500,87.0,0,30,0.0,0.0
12501,74.0,0,30,0.0,0.0
12502,46.0,32,90,15.0,0.0
12503,86.0,48,30,0.0,0.0
12504,74.0,0,30,12.0,0.0
12505,74.0,0,30,11.0,0.0
12506,46.0,0,30,14.0,0.0
12507,65.0,0,30,13.0,0.0
12508,58.0,0,30,2.0,0.0
12509,46.0,0,30,3.0,0.0
12510,53.0,0,30,14.0,0.0
12511,72.0,0,30,0.0,0.0
12512,63.0,0,30,13.0,0.0
12513,72.0,0,30,12.0,0.0
12514,84.0,14,30,0.0,0.0
12515,72.0,0,30,11.0,0.0
12516,53.0,0,30,3.0,0.0
12517,70.0,0,30,12.0,0.0
12518,62.0,48,30,13.0,0.0
12519,82.0,0,30,0.0,0.0
12520,70.0,0,30,0.0,0.0
12521,70.0,0,30,2.0,0.0
12522,58.0,32,90,15.0,0.0
12523,58.0,0,30,14.0,0.0
12524,70.0,0,30,11.0,0.0
12525,58.0,0,30,3.0,0.0
12526,72.0,0,30,11.0,0.0
12527,63.0,0,30,13.0,0.0
12528,84.0,0,30,0.0,0.0
12529,53.0,14,30,14.0,0.0
12530,53.0,0,30,3.0,0.0
12531,72.0,0,30,0.0,0.0
12532,72.0,0,30,12.0,0.0
12533,74.0,0,30,0.0,0.0
12534,46.0,32,90,15.0,0.0
12535,74.0,0,30,11.0,0.0
12536,65.0,0,30,13.0,0.0
12537,74.0,48,30,12.0,0.0
12538,86.0,0,30,0.0,0.0
12539,46.0,0,30,14.0,0.0
12540,58.0,16,30,14.0,0.0
12541,79.0,0,90,11.0,0.0
12542,91.0,0,90,0.0,0.0
12543,79.0,32,90,0.0,0.0
12544,70.0,0,90,12.0,0.0
12545,74.0,0,90,12.0,0.0
12546,43.0,48,30,14.0,0.0
12547,43.0,0,90,15.0,0.0
12548,67.0,0,90,13.0,0.0
12549,55.0,16,30,14.0,0.0
12550,84.0,0,40,0.0,0.0
12551,63.0,0,40,13.0,0.0
12552,48.0,0,30,14.0,0.0
12553,72.0,32,40,11.0,0.0
12554,72.0,2,40,0.0,0.0
12555,48.0,14,30,3.0,0.0
12556,48.0,0,30,2.0,0.0
12557,36.0,32,90,15.0,0.0
12558,36.0,2,90,3.0,0.0
12559,72.0,0,40,12.0,0.0
12560,43.0,0,30,14.0,0.0
12561,67.0,0,30,0.0,0.0
12562,62.0,0,30,13.0,0.0
12563,67.0,0,30,11.0,0.0
12564,43.0,14,30,3.0,0.0
12565,67.0,0,30,12.0,0.0
12566,79.0,0,30,0.0,0.0
12567,60.0,0,30,13.0,0.0
12568,75.0,0,30,0.0,0.0
12569,60.0,0,30,2.0,0.0
12570,63.0,0,30,12.0,0.0
12571,48.0,32,90,15.0,0.0
12572,63.0,0,30,11.0,0.0
12573,48.0,0,30,14.0,0.0
12574,48.0,0,30,3.0,0.0
12575,63.0,48,30,0.0,0.0
12576,43.0,0,30,14.0,0.0
12577,43.0,0,30,3.0,0.0
12578,67.0,14,30,11.0,0.0
12579,67.0,0,30,12.0,0.0
12580,79.0,0,30,0.0,0.0
12581,67.0,0,30,0.0,0.0
12582,62.0,0,30,13.0,0.0
12583,63.0,0,30,13.0,0.0
12584,48.0,0,30,3.0,0.0
12585,72.0,0,30,11.0,0.0
12586,36.0,32,90,15.0,0.0
12587,36.0,2,90,3.0,0.0
12588,72.0,0,30,12.0,0.0
12589,48.0,0,30,14.0,0.0
12590,84.0,48,30,0.0,0.0
12591,48.0,0,30,2.0,0.0
12592,72.0,0,30,0.0,0.0
12593,60.0,0,30,3.0,0.0
12594,60.0,14,30,14.0,0.0
12595,41.0,48,30,2.0,0.0
12596,41.0,0,30,14.0,0.0
12597,29.0,0,90,15.0,0.0
12598,29.0,0,90,3.0,0.0
12599,65.0,0,90,13.0,0.0
12600,77.0,32,90,11.0,0.0
12601,77.0,0,90,0.0,0.0
12602,72.0,0,90,12.0,0.0
12603,69.0,0,90,12.0,0.0
12604,41.0,0,30,3.0,0.0
12605,89.0,2,90,0.0,0.0
12606,53.0,14,30,3.0,0.0
12607,53.0,0,30,14.0,0.0
12608,34.0,2,90,3.0,0.0
12609,34.0,32,90,15.0,0.0
12610,46.0,0,30,3.0,0.0
12611,82.0,0,30,0.0,0.0
12612,70.0,0,30,12.0,0.0
12613,46.0,48,30,2.0,0.0
12614,70.0,0,30,0.0,0.0
12615,62.0,0,30,13.0,0.0
12616,70.0,0,30,11.0,0.0
12617,46.0,0,30,14.0,0.0
12618,65.0,0,30,12.0,0.0
12619,65.0,0,30,0.0,0.0
12620,65.0,0,30,13.0,0.0
12621,41.0,0,30,14.0,0.0
12622,41.0,0,30,3.0,0.0
12623,77.0,0,30,0.0,0.0
12624,65.0,14,30,11.0,0.0
12625,46.0,0,30,14.0,0.0
12626,62.0,0,30,12.0,0.0
12627,62.0,48,30,11.0,0.0
12628,62.0,0,30,0.0,0.0
12629,58.0,0,30,2.0,0.0
12630,46.0,94,90,15.0,0.0
12631,74.0,0,30,0.0,0.0
12632,62.0,0,30,13.0,0.0
12633,46.0,0,30,3.0,0.0
12634,53.0,0,30,3.0,0.0
12635,65.0,0,30,11.0,0.0
12636,77.0,0,30,0.0,0.0
12637,65.0,0,30,13.0,0.0
12638,65.0,0,30,12.0,0.0
12639,65.0,0,30,0.0,0.0
12640,53.0,14,30,14.0,0.0
12641,70.0,2,90,0.0,0.0
12642,46.0,0,90,3.0,0.0
12643,34.0,22,90,15.0,0.0
12644,46.0,0,90,14.0,0.0
12645,70.0,0,90,12.0,0.0
12646,34.0,0,90,3.0,0.0
12647,70.0,0,90,11.0,0.0
12648,46.0,0,90,2.0,0.0
12649,82.0,0,90,0.0,0.0
12650,62.0,0,90,13.0,0.0
12651,41.0,0,90,6.0,0.0
12652,65.0,0,90,6.0,0.0
12653,77.0,0,90,11.0,0.0
12654,54.0,24,20,9.0,0.0
12655,77.0,0,90,12.0,0.0
12656,65.0,0,90,5.0,0.0
12657,41.0,0,90,8.0,0.0
12658,53.0,0,90,7.0,0.0
12659,41.0,0,90,14.0,0.0
12660,77.0,0,90,0.0,0.0
12661,89.0,0,90,0.0,0.0
12662,65.0,32,90,13.0,0.0
12663,41.0,0,90,3.0,0.0
12664,41.0,0,90,15.0,0.0
12665,54.0,24,20,9.0,0.0
12666,54.0,24,20,9.0,0.0
12667,54.0,2,20,9.0,0.0
12668,34.0,0,30,15.0,0.0
12669,74.0,0,30,12.0,0.0
12670,70.0,62,30,5.0,0.0
12671,94.0,0,90,0.0,0.0
12672,46.0,48,90,8.0,0.0
12673,46.0,0,90,3.0,0.0
12674,34.0,0,30,3.0,0.0
12675,58.0,0,30,5.0,0.0
12676,82.0,2,90,0.0,0.0
12677,46.0,0,30,7.0,0.0
12678,62.0,0,30,5.0,0.0
12679,46.0,0,30,6.0,0.0
12680,54.0,0,90,9.0,0.0
12681,46.0,0,30,14.0,0.0
12682,70.0,0,30,6.0,0.0
12683,70.0,0,30,13.0,0.0
12684,82.0,0,30,11.0,0.0
12685,74.0,0,40,2.0,0.0
12686,58.0,0,40,2.0,0.0
12687,74.0,0,40,1.0,0.0
12688,62.0,0,40,4.0,0.0
12689,58.0,48,40,4.0,0.0
12690,70.0,0,40,1.0,0.0
12691,70.0,0,40,2.0,0.0
12692,72.0,0,40,1.0,0.0
12693,75.0,0,40,1.0,0.0
12694,60.0,48,40,2.0,0.0
12695,63.0,0,40,4.0,0.0
12696,75.0,0,40,2.0,0.0
12697,60.0,0,40,4.0,0.0
12698,72.0,0,40,2.0,0.0
12699,58.0,0,40,2.0,0.0
12700,62.0,0,40,4.0,0.0
12701,74.0,0,40,1.0,0.0
12702,70.0,0,40,1.0,0.0
12703,74.0,0,40,2.0,0.0
12704,70.0,0,40,2.0,0.0
12705,58.0,48,40,4.0,0.0
12706,60.0,0,40,4.0,0.0
12707,65.0,0,40,2.0,0.0
12708,72.0,0,40,1.0,0.0
12709,72.0,48,40,2.0,0.0
12710,65.0,0,40,1.0,0.0
12711,53.0,0,40,2.0,0.0
12712,53.0,0,40,4.0,0.0
12713,58.0,0,40,4.0,0.0
12714,50.0,48,40,2.0,0.0
12715,70.0,0,40,2.0,0.0
12716,50.0,0,40,4.0,0.0
12717,62.0,0,40,2.0,0.0
12718,62.0,0,40,1.0,0.0
12719,70.0,0,40,1.0,0.0
12720,72.0,0,40,2.0,0.0
12721,65.0,96,40,2.0,0.0
12722,65.0,0,40,1.0,0.0
12723,60.0,0,40,4.0,0.0
12724,53.0,0,40,4.0,0.0
12725,53.0,0,40,2.0,0.0
12726,72.0,0,40,1.0,0.0
12727,58.0,0,90,4.0,0.0
12728,74.0,0,90,1.0,0.0
12729,62.0,0,90,4.0,0.0
12730,70.0,0,90,1.0,0.0
12731,58.0,0,90,2.0,0.0
12732,74.0,22,90,2.0,0.0
12733,70.0,0,90,2.0,0.0
12734,46.0,0,90,14.0,0.0
12735,46.0,0,90,6.0,0.0
12736,46.0,0,90,7.0,0.0
12737,58.0,0,90,6.0,0.0
12738,70.0,0,90,13.0,0.0
12739,34.0,0,90,15.0,0.0
12740,46.0,0,90,3.0,0.0
12741,58.0,0,90,5.0,0.0
12742,70.0,0,90,12.0,0.0
12743,94.0,0,90,0.0,0.0
12744,82.0,94,90,0.0,0.0
12745,46.0,0,90,8.0,0.0
12746,54.0,24,20,9.0,0.0
12747,70.0,0,90,5.0,0.0
12748,82.0,0,90,11.0,0.0
12749,34.0,0,90,3.0,0.0
12750,54.0,24,20,9.0,0.0
12751,54.0,24,20,9.0,0.0
12752,54.0,2,20,9.0,0.0
12753,51.0,0,90,6.0,0.0
12754,63.0,0,90,5.0,0.0
12755,51.0,22,90,7.0,0.0
12756,39.0,0,90,15.0,0.0
12757,41.0,0,90,8.0,0.0
12758,54.0,0,90,9.0,0.0
12759,67.0,0,90,5.0,0.0
12760,75.0,0,90,12.0,0.0
12761,51.0,0,90,14.0,0.0
12762,79.0,0,90,0.0,0.0
12763,79.0,0,90,11.0,0.0
12764,67.0,0,90,13.0,0.0
12765,39.0,0,90,3.0,0.0
12766,51.0,0,90,3.0,0.0
12767,91.0,2,90,0.0,0.0
12768,63.0,0,90,6.0,0.0
12769,58.0,0,90,5.0,0.0
12770,46.0,0,90,6.0,0.0
12771,46.0,0,90,3.0,0.0
12772,34.0,0,90,3.0,0.0
12773,70.0,0,90,5.0,0.0
12774,70.0,0,90,12.0,0.0
12775,82.0,0,90,0.0,0.0
12776,46.0,94,90,14.0,0.0
12777,94.0,0,90,0.0,0.0
12778,34.0,0,90,15.0,0.0
12779,46.0,0,90,8.0,0.0
12780,54.0,24,20,9.0,0.0
12781,70.0,0,90,13.0,0.0
12782,82.0,0,90,11.0,0.0
12783,46.0,0,90,7.0,0.0
12784,54.0,24,20,9.0,0.0
12785,54.0,24,20,9.0,0.0
12786,54.0,2,20,9.0,0.0
12787,46.0,0,90,15.0,0.0
12788,89.0,0,90,0.0,0.0
12789,58.0,0,90,3.0,0.0
12790,65.0,0,90,13.0,0.0
12791,54.0,2,90,9.0,0.0
12792,74.0,48,90,12.0,0.0
12793,58.0,0,15,6.0,0.0
12794,58.0,0,90,7.0,0.0
12795,62.0,0,90,6.0,0.0
12796,65.0,0,90,5.0,0.0
12797,46.0,0,90,8.0,0.0
12798,46.0,0,90,3.0,0.0
12799,58.0,0,90,14.0,0.0
12800,77.0,0,90,11.0,0.0
12801,77.0,0,90,0.0,0.0
12802,62.0,0,90,5.0,0.0
12803,70.0,0,40,2.0,0.0
12804,74.0,48,40,2.0,0.0
12805,70.0,0,40,1.0,0.0
12806,58.0,0,40,2.0,0.0
12807,62.0,0,40,4.0,0.0
12808,58.0,0,40,4.0,0.0
12809,74.0,0,40,1.0,0.0
12810,60.0,0,40,2.0,0.0
12811,72.0,0,40,1.0,0.0
12812,60.0,0,40,4.0,0.0
12813,75.0,0,40,1.0,0.0
12814,72.0,48,40,2.0,0.0
12815,75.0,0,40,2.0,0.0
12816,63.0,0,40,4.0,0.0
12817,74.0,0,40,2.0,0.0
12818,70.0,0,40,1.0,0.0
12819,58.0,0,40,2.0,0.0
12820,58.0,0,40,4.0,0.0
12821,62.0,0,40,4.0,0.0
12822,74.0,0,40,1.0,0.0
12823,70.0,48,40,2.0,0.0
12824,65.0,0,40,2.0,0.0
12825,53.0,0,40,2.0,0.0
12826,65.0,0,40,1.0,0.0
12827,72.0,48,40,1.0,0.0
12828,60.0,0,40,4.0,0.0
12829,53.0,0,40,4.0,0.0
12830,72.0,0,40,2.0,0.0
12831,70.0,0,40,2.0,0.0
12832,62.0,0,40,2.0,0.0
12833,70.0,0,40,1.0,0.0
12834,58.0,48,40,4.0,0.0
12835,50.0,0,40,2.0,0.0
12836,62.0,0,40,1.0,0.0
12837,50.0,0,40,4.0,0.0
12838,65.0,0,40,2.0,0.0
12839,53.0,0,40,2.0,0.0
12840,72.0,0,40,1.0,0.0
12841,65.0,0,40,1.0,0.0
12842,72.0,48,40,2.0,0.0
12843,53.0,0,40,4.0,0.0
12844,60.0,0,40,4.0,0.0
12845,70.0,0,40,1.0,0.0
12846,74.0,0,40,2.0,0.0
12847,62.0,0,40,4.0,0.0
12848,58.0,0,40,4.0,0.0
12849,70.0,48,40,2.0,0.0
12850,74.0,0,40,1.0,0.0
12851,58.0,0,40,2.0,0.0
12852,65.0,48,40,2.0,0.0
12853,53.0,0,40,2.0,0.0
12854,53.0,0,40,4.0,0.0
12855,72.0,0,40,2.0,0.0
12856,60.0,0,40,4.0,0.0
12857,65.0,0,40,1.0,0.0
12858,72.0,0,40,1.0,0.0
12859,62.0,0,40,4.0,0.0
12860,58.0,0,40,2.0,0.0
12861,74.0,0,40,1.0,0.0
12862,58.0,48,40,4.0,0.0
12863,74.0,0,40,2.0,0.0
12864,70.0,0,40,2.0,0.0
12865,70.0,0,40,1.0,0.0
12866,75.0,96,40,2.0,0.0
12867,60.0,0,40,2.0,0.0
12868,72.0,0,40,2.0,0.0
12869,60.0,0,40,4.0,0.0
12870,63.0,0,40,4.0,0.0
12871,72.0,0,40,1.0,0.0
12872,75.0,0,40,1.0,0.0
12873,62.0,0,90,4.0,0.0
12874,65.0,22,90,4.0,0.0
12875,77.0,0,90,1.0,0.0
12876,74.0,0,90,1.0,0.0
12877,74.0,0,90,2.0,0.0
12878,77.0,0,90,2.0,0.0
12879,62.0,0,90,2.0,0.0
12880,84.0,0,30,11.0,0.0
12881,29.0,0,30,15.0,0.0
12882,72.0,0,30,13.0,0.0
12883,60.0,0,30,5.0,0.0
12884,69.0,0,30,5.0,0.0
12885,84.0,0,30,0.0,0.0
12886,41.0,0,30,3.0,0.0
12887,81.0,0,30,12.0,0.0
12888,96.0,0,30,0.0,0.0
12889,41.0,0,30,8.0,0.0
12890,41.0,0,30,6.0,0.0
12891,41.0,0,30,7.0,0.0
12892,72.0,0,30,5.0,0.0
12893,60.0,14,30,6.0,0.0
12894,29.0,0,30,3.0,0.0
12895,54.0,10,20,9.0,0.0
12896,41.0,0,30,14.0,0.0
12897,54.0,24,20,9.0,0.0
12898,54.0,24,20,9.0,0.0
12899,54.0,34,20,9.0,0.0
12900,34.0,0,30,3.0,0.0
12901,74.0,0,30,13.0,0.0
12902,46.0,0,30,8.0,0.0
12903,98.0,0,30,0.0,0.0
12904,46.0,0,30,7.0,0.0
12905,62.0,0,30,5.0,0.0
12906,62.0,0,30,6.0,0.0
12907,70.0,0,30,5.0,0.0
12908,86.0,0,30,0.0,0.0
12909,46.0,0,30,6.0,0.0
12910,54.0,50,90,9.0,0.0
12911,34.0,0,30,15.0,0.0
12912,46.0,0,30,14.0,0.0
12913,82.0,0,30,12.0,0.0
12914,46.0,0,30,3.0,0.0
12915,86.0,62,30,11.0,0.0
12916,74.0,0,30,5.0,0.0
12917,62.0,0,40,2.0,0.0
12918,74.0,0,40,2.0,0.0
12919,77.0,0,40,2.0,0.0
12920,62.0,0,40,4.0,0.0
12921,65.0,0,40,4.0,0.0
12922,77.0,48,40,1.0,0.0
12923,74.0,0,40,1.0,0.0
12924,79.0,0,40,2.0,0.0
12925,63.0,0,40,4.0,0.0
12926,63.0,48,40,2.0,0.0
12927,75.0,0,40,2.0,0.0
12928,75.0,0,40,1.0,0.0
12929,79.0,0,40,1.0,0.0
12930,67.0,0,40,4.0,0.0
12931,77.0,0,40,1.0,0.0
12932,74.0,48,40,1.0,0.0
12933,77.0,0,40,2.0,0.0
12934,62.0,0,40,2.0,0.0
12935,65.0,0,40,4.0,0.0
12936,74.0,0,40,2.0,0.0
12937,62.0,0,40,4.0,0.0
12938,60.0,0,40,2.0,0.0
12939,60.0,48,40,4.0,0.0
12940,75.0,0,40,2.0,0.0
12941,72.0,0,40,2.0,0.0
12942,63.0,0,40,4.0,0.0
12943,75.0,0,40,1.0,0.0
12944,72.0,0,40,1.0,0.0
12945,70.0,0,40,2.0,0.0
12946,74.0,48,40,1.0,0.0
12947,70.0,0,40,1.0,0.0
12948,58.0,0,40,2.0,0.0
12949,58.0,0,40,4.0,0.0
12950,62.0,0,40,4.0,0.0
12951,74.0,0,40,2.0,0.0
12952,60.0,0,40,4.0,0.0
12953,63.0,0,40,4.0,0.0
12954,60.0,0,40,2.0,0.0
12955,72.0,0,40,1.0,0.0
12956,72.0,0,40,2.0,0.0
12957,75.0,96,40,2.0,0.0
12958,75.0,0,40,1.0,0.0
12959,62.0,22,90,4.0,0.0
12960,74.0,0,90,1.0,0.0
12961,62.0,0,90,2.0,0.0
12962,74.0,0,90,2.0,0.0
12963,77.0,0,90,2.0,0.0
12964,77.0,0,90,1.0,0.0
12965,65.0,0,90,4.0,0.0
12966,50.0,0,90,6.0,0.0
12967,98.0,0,90,0.0,0.0
12968,86.0,0,90,0.0,0.0
12969,74.0,0,90,12.0,0.0
12970,54.0,10,20,9.0,0.0
12971,46.0,0,90,14.0,0.0
12972,46.0,0,90,6.0,0.0
12973,86.0,0,90,11.0,0.0
12974,74.0,0,90,5.0,0.0
12975,34.0,0,90,15.0,0.0
12976,46.0,0,90,3.0,0.0
12977,41.0,14,30,8.0,0.0
12978,62.0,94,90,5.0,0.0
12979,74.0,0,90,13.0,0.0
12980,46.0,0,90,7.0,0.0
12981,34.0,0,90,3.0,0.0
12982,54.0,24,20,9.0,0.0
12983,54.0,24,20,9.0,0.0
12984,54.0,2,20,9.0,0.0
12985,46.0,0,90,8.0,0.0
12986,70.0,0,90,5.0,0.0
12987,70.0,0,90,13.0,0.0
12988,39.0,0,90,15.0,0.0
12989,82.0,0,90,11.0,0.0
12990,51.0,22,90,3.0,0.0
12991,39.0,0,90,3.0,0.0
12992,51.0,0,90,7.0,0.0
12993,51.0,0,90,6.0,0.0
12994,79.0,0,90,12.0,0.0
12995,94.0,0,90,0.0,0.0
12996,67.0,0,90,5.0,0.0
12997,51.0,0,90,14.0,0.0
12998,54.0,0,90,9.0,0.0
12999,55.0,0,90,6.0,0.0
13000,82.0,2,90,0.0,0.0
13001,46.0,0,90,7.0,0.0
13002,74.0,0,90,13.0,0.0
13003,74.0,0,90,5.0,0.0
13004,41.0,0,90,8.0,0.0
13005,46.0,0,90,6.0,0.0
13006,86.0,0,90,11.0,0.0
13007,46.0,0,90,14.0,0.0
13008,86.0,0,90,0.0,0.0
13009,98.0,0,90,0.0,0.0
13010,34.0,0,90,15.0,0.0
13011,65.0,94,90,12.0,0.0
13012,34.0,0,90,3.0,0.0
13013,54.0,24,20,9.0,0.0
13014,46.0,0,90,3.0,0.0
13015,54.0,24,20,9.0,0.0
13016,54.0,24,20,9.0,0.0
13017,54.0,2,20,9.0,0.0
13018,65.0,0,90,5.0,0.0
13019,65.0,0,90,13.0,0.0
13020,58.0,0,90,7.0,0.0
13021,62.0,0,15,5.0,0.0
13022,58.0,48,90,6.0,0.0
13023,77.0,0,90,11.0,0.0
13024,50.0,0,15,6.0,0.0
13025,77.0,0,90,0.0,0.0
13026,46.0,0,90,8.0,0.0
13027,89.0,2,90,0.0,0.0
13028,54.0,0,90,9.0,0.0
13029,46.0,0,90,15.0,0.0
13030,58.0,0,90,14.0,0.0
13031,58.0,0,90,3.0,0.0
13032,46.0,0,90,3.0,0.0
13033,74.0,0,90,12.0,0.0
13034,74.0,48,40,1.0,0.0
13035,77.0,0,40,1.0,0.0
13036,62.0,0,40,4.0,0.0
13037,74.0,0,40,2.0,0.0
13038,62.0,0,40,2.0,0.0
13039,77.0,0,40,2.0,0.0
13040,65.0,0,40,4.0,0.0
13041,67.0,48,40,4.0,0.0
13042,63.0,0,40,4.0,0.0
13043,79.0,0,40,1.0,0.0
13044,75.0,0,40,1.0,0.0
13045,75.0,0,40,2.0,0.0
13046,79.0,0,40,2.0,0.0
13047,63.0,0,40,2.0,0.0
13048,74.0,48,40,1.0,0.0
13049,74.0,0,40,2.0,0.0
13050,62.0,0,40,4.0,0.0
13051,65.0,0,40,4.0,0.0
13052,77.0,0,40,2.0,0.0
13053,77.0,0,40,1.0,0.0
13054,62.0,0,40,2.0,0.0
13055,60.0,0,40,4.0,0.0
13056,63.0,0,40,4.0,0.0
13057,60.0,0,40,2.0,0.0
13058,75.0,48,40,2.0,0.0
13059,72.0,0,40,2.0,0.0
13060,75.0,0,40,1.0,0.0
13061,72.0,0,40,1.0,0.0
13062,70.0,0,40,1.0,0.0
13063,74.0,0,40,1.0,0.0
13064,74.0,48,40,2.0,0.0
13065,58.0,0,40,4.0,0.0
13066,62.0,0,40,4.0,0.0
13067,70.0,0,40,2.0,0.0
13068,58.0,0,40,2.0,0.0
13069,60.0,0,40,2.0,0.0
13070,63.0,0,40,4.0,0.0
13071,72.0,0,40,2.0,0.0
13072,75.0,48,40,2.0,0.0
13073,75.0,0,40,1.0,0.0
13074,72.0,0,40,1.0,0.0
13075,60.0,0,40,4.0,0.0
13076,58.0,0,40,2.0,0.0
13077,62.0,0,40,4.0,0.0
13078,74.0,0,40,1.0,0.0
13079,58.0,0,40,4.0,0.0
13080,74.0,0,40,2.0,0.0
13081,70.0,0,40,2.0,0.0
13082,70.0,48,40,1.0,0.0
13083,53.0,0,40,4.0,0.0
13084,60.0,48,40,4.0,0.0
13085,65.0,0,40,1.0,0.0
13086,72.0,0,40,1.0,0.0
13087,65.0,0,40,2.0,0.0
13088,53.0,0,40,2.0,0.0
13089,72.0,0,40,2.0,0.0
13090,70.0,0,40,2.0,0.0
13091,50.0,48,40,2.0,0.0
13092,58.0,0,40,4.0,0.0
13093,70.0,0,40,1.0,0.0
13094,72.0,96,40,2.0,0.0
13095,72.0,0,40,1.0,0.0
13096,60.0,0,40,4.0,0.0
13097,52.0,0,40,2.0,0.0
13098,65.0,22,90,1.0,0.0
13099,53.0,0,90,2.0,0.0
13100,53.0,0,90,4.0,0.0
13101,65.0,0,90,2.0,0.0
13102,65.0,0,90,13.0,0.0
13103,41.0,0,90,8.0,0.0
13104,41.0,0,90,6.0,0.0
13105,54.0,24,20,9.0,0.0
13106,53.0,0,90,7.0,0.0
13107,89.0,0,90,0.0,0.0
13108,41.0,0,90,15.0,0.0
13109,65.0,0,90,5.0,0.0
13110,41.0,0,90,3.0,0.0
13111,77.0,32,90,12.0,0.0
13112,65.0,0,90,6.0,0.0
13113,77.0,0,90,11.0,0.0
13114,77.0,0,90,0.0,0.0
13115,41.0,0,90,14.0,0.0
13116,54.0,24,20,9.0,0.0
13117,54.0,24,20,9.0,0.0
13118,54.0,2,20,9.0,0.0
13119,70.0,0,30,13.0,0.0
13120,54.0,2,90,9.0,0.0
13121,94.0,0,90,0.0,0.0
13122,82.0,0,90,0.0,0.0
13123,46.0,0,30,7.0,0.0
13124,70.0,0,30,5.0,0.0
13125,82.0,0,30,11.0,0.0
13126,46.0,0,90,3.0,0.0
13127,34.0,62,30,15.0,0.0
13128,74.0,0,30,12.0,0.0
13129,46.0,0,30,6.0,0.0
13130,46.0,48,90,8.0,0.0
13131,34.0,0,30,3.0,0.0
13132,58.0,0,30,5.0,0.0
13133,62.0,0,30,5.0,0.0
13134,46.0,0,30,14.0,0.0
13135,70.0,0,30,6.0,0.0
13136,70.0,0,40,2.0,0.0
13137,70.0,0,40,1.0,0.0
13138,74.0,0,40,1.0,0.0
13139,58.0,48,40,2.0,0.0
13140,74.0,0,40,2.0,0.0
13141,62.0,0,40,4.0,0.0
13142,58.0,0,40,4.0,0.0
13143,63.0,0,40,4.0,0.0
13144,75.0,0,40,1.0,0.0
13145,60.0,0,40,2.0,0.0
13146,75.0,0,40,2.0,0.0
13147,72.0,48,40,2.0,0.0
13148,72.0,0,40,1.0,0.0
13149,60.0,0,40,4.0,0.0
13150,62.0,0,40,4.0,0.0
13151,58.0,0,40,4.0,0.0
13152,58.0,0,40,2.0,0.0
13153,74.0,0,40,1.0,0.0
13154,70.0,0,40,1.0,0.0
13155,74.0,48,40,2.0,0.0
13156,70.0,0,40,2.0,0.0
13157,53.0,0,40,2.0,0.0
13158,65.0,0,40,1.0,0.0
13159,53.0,0,40,4.0,0.0
13160,60.0,0,40,4.0,0.0
13161,72.0,48,40,2.0,0.0
13162,65.0,0,40,2.0,0.0
13163,72.0,0,40,1.0,0.0
13164,70.0,0,40,1.0,0.0
13165,62.0,0,40,1.0,0.0
13166,70.0,0,40,2.0,0.0
13167,62.0,48,40,2.0,0.0
13168,50.0,0,40,2.0,0.0
13169,58.0,0,40,4.0,0.0
13170,50.0,0,40,4.0,0.0
13171,65.0,0,40,1.0,0.0
13172,72.0,0,40,1.0,0.0
13173,60.0,96,40,4.0,0.0
13174,53.0,0,40,4.0,0.0
13175,72.0,0,40,2.0,0.0
13176,65.0,0,40,2.0,0.0
13177,53.0,0,40,2.0,0.0
13178,74.0,0,90,2.0,0.0
13179,70.0,0,90,2.0,0.0
13180,58.0,22,90,2.0,0.0
13181,58.0,0,90,4.0,0.0
13182,62.0,0,90,4.0,0.0
13183,70.0,0,90,1.0,0.0
13184,74.0,0,90,1.0,0.0
13185,58.0,0,90,5.0,0.0
13186,46.0,94,90,7.0,0.0
13187,46.0,0,90,3.0,0.0
13188,70.0,0,90,5.0,0.0
13189,34.0,0,90,15.0,0.0
13190,94.0,0,90,0.0,0.0
13191,70.0,0,90,13.0,0.0
13192,34.0,0,90,3.0,0.0
13193,46.0,0,90,6.0,0.0
13194,46.0,0,90,8.0,0.0
13195,46.0,0,90,14.0,0.0
13196,82.0,0,90,11.0,0.0
13197,82.0,0,90,0.0,0.0
13198,70.0,0,90,12.0,0.0
13199,58.0,0,90,6.0,0.0
13200,54.0,24,20,9.0,0.0
13201,54.0,24,20,9.0,0.0
13202,54.0,24,20,9.0,0.0
13203,54.0,2,20,9.0,0.0
13204,51.0,0,90,14.0,0.0
13205,63.0,0,90,5.0,0.0
13206,39.0,0,90,15.0,0.0
13207,91.0,0,90,0.0,0.0
13208,67.0,0,90,13.0,0.0
13209,63.0,0,90,6.0,0.0
13210,67.0,0,90,5.0,0.0
13211,51.0,0,90,6.0,0.0
13212,41.0,0,90,8.0,0.0
13213,79.0,2,90,0.0,0.0
13214,54.0,0,90,9.0,0.0
13215,51.0,22,90,3.0,0.0
13216,51.0,0,90,7.0,0.0
13217,75.0,0,90,12.0,0.0
13218,79.0,0,90,11.0,0.0
13219,39.0,0,90,3.0,0.0
13220,46.0,0,90,6.0,0.0
13221,58.0,0,90,6.0,0.0
13222,70.0,0,90,5.0,0.0
13223,46.0,0,90,8.0,0.0
13224,82.0,0,90,11.0,0.0
13225,58.0,0,90,5.0,0.0
13226,70.0,0,90,13.0,0.0
13227,46.0,0,90,7.0,0.0
13228,82.0,0,90,0.0,0.0
13229,70.0,0,90,12.0,0.0
13230,34.0,0,90,3.0,0.0
13231,34.0,0,90,15.0,0.0
13232,54.0,24,20,9.0,0.0
13233,94.0,94,90,0.0,0.0
13234,46.0,0,90,14.0,0.0
13235,54.0,24,20,9.0,0.0
13236,54.0,24,20,9.0,0.0
13237,54.0,2,20,9.0,0.0
13238,46.0,0,90,8.0,0.0
13239,77.0,0,90,0.0,0.0
13240,58.0,0,90,14.0,0.0
13241,62.0,0,90,5.0,0.0
13242,62.0,0,90,6.0,0.0
13243,46.0,0,15,3.0,0.0
13244,74.0,0,90,12.0,0.0
13245,46.0,0,90,3.0,0.0
13246,58.0,0,90,3.0,0.0
13247,89.0,0,90,0.0,0.0
13248,58.0,48,90,7.0,0.0
13249,46.0,0,90,15.0,0.0
13250,54.0,2,90,9.0,0.0
13251,65.0,0,90,13.0,0.0
13252,58.0,0,90,6.0,0.0
13253,77.0,0,90,11.0,0.0
13254,65.0,0,90,5.0,0.0
13255,74.0,0,40,1.0,0.0
13256,74.0,0,40,2.0,0.0
13257,70.0,0,40,2.0,0.0
13258,62.0,0,40,4.0,0.0
13259,70.0,0,40,1.0,0.0
13260,58.0,0,40,2.0,0.0
13261,58.0,48,40,4.0,0.0
13262,72.0,48,40,1.0,0.0
13263,75.0,0,40,1.0,0.0
13264,60.0,0,40,4.0,0.0
13265,75.0,0,40,2.0,0.0
13266,63.0,0,40,4.0,0.0
13267,60.0,0,40,2.0,0.0
13268,72.0,0,40,2.0,0.0
13269,58.0,0,40,2.0,0.0
13270,58.0,48,40,4.0,0.0
13271,74.0,0,40,2.0,0.0
13272,70.0,0,40,2.0,0.0
13273,62.0,0,40,4.0,0.0
13274,74.0,0,40,1.0,0.0
13275,70.0,0,40,1.0,0.0
13276,72.0,0,40,2.0,0.0
13277,65.0,0,40,1.0,0.0
13278,72.0,0,40,1.0,0.0
13279,65.0,0,40,2.0,0.0
13280,53.0,0,40,2.0,0.0
13281,53.0,48,40,4.0,0.0
13282,60.0,0,40,4.0,0.0
13283,62.0,0,40,1.0,0.0
13284,70.0,0,40,2.0,0.0
13285,62.0,0,40,2.0,0.0
13286,70.0,0,40,1.0,0.0
13287,58.0,48,40,4.0,0.0
13288,50.0,0,40,4.0,0.0
13289,50.0,0,40,2.0,0.0
13290,60.0,0,40,4.0,0.0
13291,65.0,48,40,2.0,0.0
13292,53.0,0,40,2.0,0.0
13293,72.0,0,40,2.0,0.0
13294,53.0,0,40,4.0,0.0
13295,72.0,0,40,1.0,0.0
13296,65.0,0,40,1.0,0.0
13297,58.0,48,40,4.0,0.0
13298,74.0,0,40,2.0,0.0
13299,70.0,0,40,2.0,0.0
13300,70.0,0,40,1.0,0.0
13301,62.0,0,40,4.0,0.0
13302,58.0,0,40,2.0,0.0
13303,74.0,0,40,1.0,0.0
13304,72.0,48,40,2.0,0.0
13305,65.0,0,40,2.0,0.0
13306,60.0,0,40,4.0,0.0
13307,53.0,0,40,2.0,0.0
13308,72.0,0,40,1.0,0.0
13309,65.0,0,40,1.0,0.0
13310,53.0,0,40,4.0,0.0
13311,70.0,0,40,1.0,0.0
13312,74.0,0,40,1.0,0.0
13313,62.0,0,40,4.0,0.0
13314,58.0,0,40,4.0,0.0
13315,58.0,0,40,2.0,0.0
13316,70.0,48,40,2.0,0.0
13317,74.0,0,40,2.0,0.0
13318,63.0,0,40,4.0,0.0
13319,60.0,0,40,2.0,0.0
13320,60.0,0,40,4.0,0.0
13321,72.0,0,40,1.0,0.0
13322,75.0,96,40,1.0,0.0
13323,75.0,0,40,2.0,0.0
13324,72.0,0,40,2.0,0.0
13325,77.0,0,90,2.0,0.0
13326,74.0,0,90,2.0,0.0
13327,62.0,22,90,4.0,0.0
13328,65.0,0,90,4.0,0.0
13329,74.0,0,90,1.0,0.0
13330,62.0,0,90,2.0,0.0
13331,77.0,0,90,1.0,0.0
13332,72.0,0,30,5.0,0.0
13333,54.0,10,20,9.0,0.0
13334,60.0,0,30,6.0,0.0
13335,84.0,0,30,0.0,0.0
13336,41.0,0,30,6.0,0.0
13337,41.0,0,30,3.0,0.0
13338,72.0,0,30,13.0,0.0
13339,41.0,0,30,7.0,0.0
13340,29.0,0,30,15.0,0.0
13341,81.0,0,30,12.0,0.0
13342,41.0,0,30,14.0,0.0
13343,69.0,0,30,5.0,0.0
13344,60.0,0,30,5.0,0.0
13345,29.0,14,30,3.0,0.0
13346,84.0,0,30,11.0,0.0
13347,41.0,0,30,8.0,0.0
13348,96.0,0,30,0.0,0.0
13349,54.0,24,20,9.0,0.0
13350,54.0,24,20,9.0,0.0
13351,54.0,34,20,9.0,0.0
13352,82.0,62,30,12.0,0.0
13353,86.0,0,30,11.0,0.0
13354,46.0,0,30,3.0,0.0
13355,54.0,50,90,9.0,0.0
13356,74.0,0,30,5.0,0.0
13357,46.0,0,30,7.0,0.0
13358,62.0,0,30,6.0,0.0
13359,46.0,0,30,6.0,0.0
13360,86.0,0,30,0.0,0.0
13361,46.0,0,30,8.0,0.0
13362,46.0,0,30,14.0,0.0
13363,62.0,0,30,5.0,0.0
13364,34.0,0,30,3.0,0.0
13365,98.0,0,30,0.0,0.0
13366,74.0,0,30,13.0,0.0
13367,34.0,0,30,15.0,0.0
13368,70.0,0,30,5.0,0.0
13369,74.0,0,40,1.0,0.0
13370,77.0,0,40,1.0,0.0
13371,74.0,0,40,2.0,0.0
13372,65.0,0,40,4.0,0.0
13373,62.0,0,40,4.0,0.0
13374,77.0,48,40,2.0,0.0
13375,62.0,0,40,2.0,0.0
13376,75.0,0,40,1.0,0.0
13377,79.0,0,40,1.0,0.0
13378,63.0,0,40,4.0,0.0
13379,67.0,0,40,4.0,0.0
13380,75.0,0,40,2.0,0.0
13381,63.0,48,40,2.0,0.0
13382,79.0,0,40,2.0,0.0
13383,74.0,0,40,1.0,0.0
13384,65.0,0,40,4.0,0.0
13385,77.0,0,40,1.0,0.0
13386,74.0,0,40,2.0,0.0
13387,62.0,0,40,2.0,0.0
13388,77.0,0,40,2.0,0.0
13389,62.0,48,40,4.0,0.0
13390,72.0,0,40,1.0,0.0
13391,63.0,0,40,4.0,0.0
13392,75.0,0,40,1.0,0.0
13393,72.0,48,40,2.0,0.0
13394,60.0,0,40,4.0,0.0
13395,60.0,0,40,2.0,0.0
13396,75.0,0,40,2.0,0.0
13397,62.0,0,40,4.0,0.0
13398,58.0,0,40,2.0,0.0
13399,70.0,48,40,1.0,0.0
13400,70.0,0,40,2.0,0.0
13401,74.0,0,40,2.0,0.0
13402,58.0,0,40,4.0,0.0
13403,74.0,0,40,1.0,0.0
13404,75.0,0,40,2.0,0.0
13405,72.0,96,40,2.0,0.0
13406,63.0,0,40,4.0,0.0
13407,75.0,0,40,1.0,0.0
13408,60.0,0,40,4.0,0.0
13409,60.0,0,40,2.0,0.0
13410,72.0,0,40,1.0,0.0
13411,65.0,0,90,4.0,0.0
13412,74.0,0,90,1.0,0.0
13413,77.0,0,90,1.0,0.0
13414,62.0,0,90,4.0,0.0
13415,74.0,22,90,2.0,0.0
13416,77.0,0,90,2.0,0.0
13417,62.0,0,90,2.0,0.0
13418,50.0,0,90,6.0,0.0
13419,74.0,0,90,12.0,0.0
13420,62.0,0,90,5.0,0.0
13421,74.0,94,90,5.0,0.0
13422,98.0,0,90,0.0,0.0
13423,34.0,0,90,15.0,0.0
13424,86.0,0,90,11.0,0.0
13425,86.0,0,90,0.0,0.0
13426,46.0,0,90,7.0,0.0
13427,74.0,0,90,13.0,0.0
13428,34.0,0,90,3.0,0.0
13429,46.0,0,90,3.0,0.0
13430,41.0,14,30,8.0,0.0
13431,54.0,10,20,9.0,0.0
13432,46.0,0,90,14.0,0.0
13433,46.0,0,90,6.0,0.0
13434,54.0,24,20,9.0,0.0
13435,54.0,24,20,9.0,0.0
13436,54.0,2,20,9.0,0.0
13437,54.0,0,90,9.0,0.0
13438,82.0,0,90,11.0,0.0
13439,79.0,0,90,12.0,0.0
13440,70.0,22,90,13.0,0.0
13441,94.0,0,90,0.0,0.0
13442,55.0,0,90,6.0,0.0
13443,46.0,0,90,8.0,0.0
13444,39.0,0,90,15.0,0.0
13445,51.0,0,90,3.0,0.0
13446,51.0,0,90,14.0,0.0
13447,51.0,0,90,7.0,0.0
13448,67.0,0,90,5.0,0.0
13449,39.0,2,90,3.0,0.0
13450,82.0,0,90,0.0,0.0
13451,70.0,0,90,5.0,0.0
13452,51.0,0,90,6.0,0.0
13453,98.0,0,90,0.0,0.0
13454,50.0,0,90,6.0,0.0
13455,46.0,0,90,6.0,0.0
13456,46.0,94,90,14.0,0.0
13457,86.0,0,90,11.0,0.0
13458,86.0,0,90,0.0,0.0
13459,74.0,0,90,5.0,0.0
13460,46.0,0,90,7.0,0.0
13461,41.0,0,90,8.0,0.0
13462,34.0,0,90,15.0,0.0
13463,54.0,24,20,9.0,0.0
13464,74.0,0,90,13.0,0.0
13465,34.0,0,90,3.0,0.0
13466,65.0,0,90,12.0,0.0
13467,54.0,24,20,9.0,0.0
13468,54.0,24,20,9.0,0.0
13469,54.0,2,20,9.0,0.0
13470,89.0,0,90,0.0,0.0
13471,58.0,0,90,3.0,0.0
13472,58.0,0,90,7.0,0.0
13473,46.0,0,15,3.0,0.0
13474,65.0,0,90,5.0,0.0
13475,46.0,0,90,8.0,0.0
13476,62.0,0,15,5.0,0.0
13477,77.0,0,90,0.0,0.0
13478,74.0,48,90,12.0,0.0
13479,50.0,0,90,6.0,0.0
13480,65.0,0,90,13.0,0.0
13481,46.0,0,90,15.0,0.0
13482,58.0,0,90,6.0,0.0
13483,77.0,0,90,11.0,0.0
13484,54.0,0,90,9.0,0.0
13485,58.0,0,90,14.0,0.0
13486,77.0,0,40,1.0,0.0
13487,62.0,48,40,2.0,0.0
13488,65.0,0,40,4.0,0.0
13489,74.0,0,40,2.0,0.0
13490,74.0,0,40,1.0,0.0
13491,77.0,0,40,2.0,0.0
13492,62.0,0,40,4.0,0.0
13493,79.0,0,40,2.0,0.0
13494,67.0,0,40,4.0,0.0
13495,79.0,0,40,1.0,0.0
13496,75.0,0,40,1.0,0.0
13497,63.0,0,40,4.0,0.0
13498,63.0,48,40,2.0,0.0
13499,75.0,0,40,2.0,0.0
13500,62.0,0,40,4.0,0.0
13501,74.0,48,40,2.0,0.0
13502,74.0,0,40,1.0,0.0
13503,62.0,0,40,2.0,0.0
13504,77.0,0,40,1.0,0.0
13505,77.0,0,40,2.0,0.0
13506,65.0,0,40,4.0,0.0
13507,60.0,0,40,4.0,0.0
13508,60.0,0,40,2.0,0.0
13509,75.0,0,40,2.0,0.0
13510,63.0,0,40,4.0,0.0
13511,75.0,0,40,1.0,0.0
13512,72.0,0,40,1.0,0.0
13513,72.0,48,40,2.0,0.0
13514,70.0,0,40,1.0,0.0
13515,58.0,0,40,4.0,0.0
13516,74.0,0,40,1.0,0.0
13517,70.0,0,40,2.0,0.0
13518,74.0,48,40,2.0,0.0
13519,58.0,0,40,2.0,0.0
13520,62.0,0,40,4.0,0.0
13521,63.0,0,40,4.0,0.0
13522,72.0,48,40,1.0,0.0
13523,75.0,0,40,1.0,0.0
13524,60.0,0,40,4.0,0.0
13525,60.0,0,40,2.0,0.0
13526,75.0,0,40,2.0,0.0
13527,72.0,0,40,2.0,0.0
13528,74.0,0,40,2.0,0.0
13529,58.0,48,40,4.0,0.0
13530,70.0,0,40,1.0,0.0
13531,74.0,0,40,1.0,0.0
13532,70.0,0,40,2.0,0.0
13533,58.0,0,40,2.0,0.0
13534,62.0,0,40,4.0,0.0
13535,72.0,48,40,2.0,0.0
13536,53.0,0,40,2.0,0.0
13537,65.0,0,40,2.0,0.0
13538,72.0,0,40,1.0,0.0
13539,65.0,0,40,1.0,0.0
13540,60.0,0,40,4.0,0.0
13541,53.0,0,40,4.0,0.0
13542,50.0,48,40,2.0,0.0
13543,70.0,0,40,2.0,0.0
13544,58.0,0,40,4.0,0.0
13545,70.0,0,40,1.0,0.0
13546,72.0,0,40,1.0,0.0
13547,60.0,0,40,4.0,0.0
13548,52.0,96,40,2.0,0.0
13549,72.0,0,40,2.0,0.0
13550,53.0,0,90,2.0,0.0
13551,65.0,0,90,2.0,0.0
13552,65.0,0,90,1.0,0.0
13553,53.0,0,90,4.0,0.0
13554,77.0,0,90,12.0,0.0
13555,65.0,0,90,13.0,0.0
13556,89.0,0,90,0.0,0.0
13557,65.0,0,90,5.0,0.0
13558,89.0,94,90,11.0,0.0
13559,77.0,0,90,5.0,0.0
13560,78.0,0,90,5.0,0.0
13561,66.0,48,90,5.0,0.0
13562,90.0,0,90,11.0,0.0
13563,90.0,0,90,0.0,0.0
13564,66.0,0,90,13.0,0.0
13565,78.0,0,90,12.0,0.0
13566,63.0,0,40,13.0,0.0
13567,72.0,48,40,1.0,0.0
13568,75.0,0,40,1.0,0.0
13569,63.0,0,40,4.0,0.0
13570,60.0,0,40,4.0,0.0
13571,72.0,0,40,2.0,0.0
13572,75.0,0,40,2.0,0.0
13573,60.0,0,40,14.0,0.0
13574,61.0,0,40,4.0,0.0
13575,65.0,0,40,13.0,0.0
13576,65.0,48,40,4.0,0.0
13577,61.0,0,40,14.0,0.0
13578,77.0,0,40,2.0,0.0
13579,73.0,0,40,1.0,0.0
13580,77.0,0,40,1.0,0.0
13581,73.0,0,40,2.0,0.0
13582,72.0,0,40,2.0,0.0
13583,75.0,0,40,2.0,0.0
13584,63.0,0,40,13.0,0.0
13585,60.0,0,40,4.0,0.0
13586,75.0,0,40,1.0,0.0
13587,72.0,0,40,1.0,0.0
13588,60.0,0,40,14.0,0.0
13589,63.0,48,40,4.0,0.0
13590,61.0,0,40,13.0,0.0
13591,58.0,0,40,4.0,0.0
13592,73.0,0,40,1.0,0.0
13593,70.0,0,40,1.0,0.0
13594,73.0,0,40,2.0,0.0
13595,70.0,0,40,2.0,0.0
13596,61.0,48,40,4.0,0.0
13597,58.0,0,40,14.0,0.0
13598,57.0,0,40,4.0,0.0
13599,69.0,0,40,2.0,0.0
13600,72.0,48,40,2.0,0.0
13601,69.0,0,40,1.0,0.0
13602,57.0,0,40,14.0,0.0
13603,60.0,0,40,13.0,0.0
13604,72.0,0,40,1.0,0.0
13605,60.0,0,40,4.0,0.0
13606,61.0,0,40,4.0,0.0
13607,58.0,0,40,14.0,0.0
13608,61.0,0,40,13.0,0.0
13609,58.0,96,40,4.0,0.0
13610,70.0,0,40,1.0,0.0
13611,70.0,0,40,2.0,0.0
13612,73.0,0,40,2.0,0.0
13613,73.0,0,40,1.0,0.0
13614,63.0,0,90,4.0,0.0
13615,72.0,0,90,1.0,0.0
13616,75.0,0,90,1.0,0.0
13617,72.0,0,90,2.0,0.0
13618,63.0,0,90,13.0,0.0
13619,60.0,96,90,14.0,0.0
13620,60.0,0,90,4.0,0.0
13621,75.0,0,90,2.0,0.0
13622,89.0,0,90,11.0,0.0
13623,77.0,0,90,12.0,0.0
13624,65.0,0,90,5.0,0.0
13625,89.0,0,90,0.0,0.0
13626,65.0,0,90,13.0,0.0
13627,77.0,94,90,5.0,0.0
13628,78.0,0,90,12.0,0.0
13629,90.0,0,90,11.0,0.0
13630,78.0,0,90,5.0,0.0
13631,66.0,96,90,5.0,0.0
13632,90.0,0,90,0.0,0.0
13633,66.0,0,90,13.0,0.0
13634,91.0,94,90,11.0,0.0
13635,91.0,0,90,0.0,0.0
13636,79.0,0,90,12.0,0.0
13637,67.0,0,90,13.0,0.0
13638,79.0,0,90,5.0,0.0
13639,67.0,0,90,5.0,0.0
13640,80.0,0,90,5.0,0.0
13641,80.0,48,90,12.0,0.0
13642,68.0,0,90,5.0,0.0
13643,68.0,0,90,13.0,0.0
13644,92.0,0,90,11.0,0.0
13645,92.0,0,90,0.0,0.0
13646,63.0,0,40,4.0,0.0
13647,75.0,0,40,2.0,0.0
13648,66.0,0,40,2.0,0.0
13649,54.0,0,40,14.0,0.0
13650,66.0,0,40,1.0,0.0
13651,75.0,48,40,1.0,0.0
13652,63.0,0,40,13.0,0.0
13653,54.0,0,40,4.0,0.0
13654,68.0,0,40,2.0,0.0
13655,56.0,0,40,14.0,0.0
13656,65.0,0,40,4.0,0.0
13657,65.0,0,40,13.0,0.0
13658,77.0,0,40,2.0,0.0
13659,56.0,0,40,4.0,0.0
13660,68.0,48,40,1.0,0.0
13661,77.0,0,40,1.0,0.0
13662,75.0,0,40,2.0,0.0
13663,66.0,48,40,2.0,0.0
13664,63.0,0,40,4.0,0.0
13665,54.0,0,40,14.0,0.0
13666,63.0,0,40,13.0,0.0
13667,66.0,0,40,1.0,0.0
13668,75.0,0,40,1.0,0.0
13669,54.0,0,40,4.0,0.0
13670,61.0,0,40,4.0,0.0
13671,65.0,48,40,1.0,0.0
13672,61.0,0,40,13.0,0.0
13673,73.0,0,40,2.0,0.0
13674,73.0,0,40,1.0,0.0
13675,53.0,0,40,14.0,0.0
13676,53.0,0,40,4.0,0.0
13677,65.0,0,40,2.0,0.0
13678,51.0,0,40,4.0,0.0
13679,51.0,0,40,14.0,0.0
13680,72.0,0,40,1.0,0.0
13681,63.0,0,40,1.0,0.0
13682,60.0,48,40,4.0,0.0
13683,63.0,0,40,2.0,0.0
13684,72.0,0,40,2.0,0.0
13685,60.0,0,40,13.0,0.0
13686,53.0,0,40,4.0,0.0
13687,65.0,0,40,2.0,0.0
13688,53.0,0,40,14.0,0.0
13689,73.0,0,40,2.0,0.0
13690,65.0,0,40,1.0,0.0
13691,61.0,96,40,4.0,0.0
13692,61.0,0,40,13.0,0.0
13693,73.0,0,40,1.0,0.0
13694,66.0,0,90,2.0,0.0
13695,75.0,0,90,2.0,0.0
13696,63.0,0,90,13.0,0.0
13697,75.0,0,90,1.0,0.0
13698,63.0,0,90,4.0,0.0
13699,54.0,0,90,4.0,0.0
13700,54.0,96,90,14.0,0.0
13701,66.0,0,90,1.0,0.0
13702,67.0,0,90,13.0,0.0
13703,79.0,0,90,5.0,0.0
13704,91.0,0,90,11.0,0.0
13705,79.0,0,90,12.0,0.0
13706,67.0,0,90,5.0,0.0
13707,91.0,0,90,0.0,0.0
13708,80.0,96,90,5.0,0.0
13709,92.0,0,90,0.0,0.0
13710,68.0,0,90,5.0,0.0
13711,92.0,0,90,11.0,0.0
13712,80.0,0,15,12.0,0.0
13713,68.0,0,90,5.0,0.0
13714,68.0,0,15,13.0,0.0
13715,80.0,0,90,5.0,0.0
13716,92.0,0,90,0.0,0.0
13717,92.0,0,90,11.0,0.0
13718,69.0,0,90,5.0,0.0
13719,93.0,48,90,11.0,0.0
13720,93.0,0,90,0.0,0.0
13721,81.0,0,90,12.0,0.0
13722,69.0,0,90,13.0,0.0
13723,81.0,0,90,5.0,0.0
13724,75.0,0,40,1.0,0.0
13725,63.0,0,40,11.0,0.0
13726,63.0,0,40,2.0,0.0
13727,63.0,48,40,4.0,0.0
13728,63.0,0,40,13.0,0.0
13729,63.0,0,40,12.0,0.0
13730,54.0,0,40,3.0,0.0
13731,54.0,0,40,2.0,0.0
13732,54.0,0,40,4.0,0.0
13733,54.0,0,40,14.0,0.0
13734,56.0,0,40,14.0,0.0
13735,56.0,0,40,4.0,0.0
13736,65.0,0,40,12.0,0.0
13737,56.0,0,40,2.0,0.0
13738,65.0,0,40,2.0,0.0
13739,65.0,0,40,13.0,0.0
13740,56.0,0,40,3.0,0.0
13741,65.0,0,40,11.0,0.0
13742,77.0,0,40,1.0,0.0
13743,65.0,48,40,4.0,0.0
13744,54.0,0,40,4.0,0.0
13745,63.0,0,40,12.0,0.0
13746,54.0,0,40,2.0,0.0
13747,54.0,0,40,14.0,0.0
13748,63.0,0,40,4.0,0.0
13749,75.0,48,40,1.0,0.0
13750,63.0,0,40,13.0,0.0
13751,63.0,0,40,2.0,0.0
13752,54.0,0,40,3.0,0.0
13753,63.0,0,40,11.0,0.0
13754,61.0,0,40,13.0,0.0
13755,53.0,0,40,2.0,0.0
13756,53.0,0,40,3.0,0.0
13757,61.0,48,40,11.0,0.0
13758,61.0,0,40,12.0,0.0
13759,53.0,0,40,14.0,0.0
13760,61.0,0,40,4.0,0.0
13761,61.0,0,40,2.0,0.0
13762,53.0,0,40,4.0,0.0
13763,73.0,0,40,1.0,0.0
13764,60.0,0,40,2.0,0.0
13765,51.0,0,40,4.0,0.0
13766,51.0,0,40,14.0,0.0
13767,60.0,0,40,12.0,0.0
13768,60.0,48,40,13.0,0.0
13769,51.0,0,40,3.0,0.0
13770,60.0,0,40,11.0,0.0
13771,51.0,0,40,2.0,0.0
13772,72.0,0,40,1.0,0.0
13773,60.0,0,40,4.0,0.0
13774,53.0,0,40,14.0,0.0
13775,61.0,0,40,11.0,0.0
13776,61.0,0,40,2.0,0.0
13777,61.0,0,40,12.0,0.0
13778,73.0,0,40,1.0,0.0
13779,61.0,0,40,4.0,0.0
13780,53.0,0,40,4.0,0.0
13781,53.0,0,40,2.0,0.0
13782,61.0,48,40,13.0,0.0
13783,53.0,0,40,3.0,0.0
13784,60.0,0,40,11.0,0.0
13785,51.0,0,40,3.0,0.0
13786,60.0,0,40,2.0,0.0
13787,60.0,0,40,12.0,0.0
13788,51.0,0,40,4.0,0.0
13789,60.0,0,40,13.0,0.0
13790,72.0,0,40,1.0,0.0
13791,51.0,48,40,14.0,0.0
13792,60.0,0,40,4.0,0.0
13793,51.0,0,40,2.0,0.0
13794,49.0,0,40,3.0,0.0
13795,58.0,0,40,12.0,0.0
13796,49.0,0,40,2.0,0.0
13797,58.0,0,40,13.0,0.0
13798,58.0,0,40,2.0,0.0
13799,49.0,48,40,4.0,0.0
13800,58.0,0,40,11.0,0.0
13801,49.0,0,40,14.0,0.0
13802,70.0,0,40,1.0,0.0
13803,58.0,0,40,4.0,0.0
13804,48.0,0,40,14.0,0.0
13805,69.0,0,40,1.0,0.0
13806,57.0,0,40,2.0,0.0
13807,57.0,0,40,4.0,0.0
13808,48.0,0,40,3.0,0.0
13809,57.0,48,40,13.0,0.0
13810,48.0,0,40,2.0,0.0
13811,57.0,0,40,12.0,0.0
13812,57.0,0,40,11.0,0.0
13813,48.0,0,40,4.0,0.0
13814,58.0,48,40,11.0,0.0
13815,58.0,0,40,12.0,0.0
13816,49.0,0,40,4.0,0.0
13817,49.0,0,40,14.0,0.0
13818,70.0,0,40,1.0,0.0
13819,49.0,0,40,2.0,0.0
13820,58.0,0,40,4.0,0.0
13821,58.0,0,40,2.0,0.0
13822,49.0,0,40,3.0,0.0
13823,58.0,0,40,13.0,0.0
13824,48.0,48,40,4.0,0.0
13825,57.0,0,40,13.0,0.0
13826,57.0,0,40,2.0,0.0
13827,57.0,0,40,11.0,0.0
13828,48.0,0,40,3.0,0.0
13829,57.0,0,40,4.0,0.0
13830,69.0,0,40,1.0,0.0
13831,48.0,0,40,14.0,0.0
13832,57.0,0,40,12.0,0.0
13833,48.0,0,40,2.0,0.0
13834,46.0,0,40,14.0,0.0
13835,46.0,0,40,2.0,0.0
13836,54.0,0,40,4.0,0.0
13837,54.0,0,40,11.0,0.0
13838,46.0,0,40,4.0,0.0
13839,54.0,48,40,12.0,0.0
13840,66.0,0,40,1.0,0.0
13841,46.0,0,40,3.0,0.0
13842,54.0,0,40,13.0,0.0
13843,54.0,0,40,2.0,0.0
13844,45.0,0,40,3.0,0.0
13845,45.0,0,40,2.0,0.0
13846,53.0,48,40,4.0,0.0
13847,53.0,0,40,11.0,0.0
13848,53.0,0,40,13.0,0.0
13849,65.0,0,40,1.0,0.0
13850,53.0,0,40,12.0,0.0
13851,45.0,0,40,4.0,0.0
13852,53.0,0,40,2.0,0.0
13853,45.0,0,40,14.0,0.0
13854,65.0,0,40,13.0,0.0
13855,65.0,0,40,12.0,0.0
13856,41.0,0,40,4.0,0.0
13857,41.0,0,40,3.0,0.0
13858,41.0,0,40,2.0,0.0
13859,65.0,0,40,11.0,0.0
13860,77.0,0,40,1.0,0.0
13861,41.0,0,40,14.0,0.0
13862,65.0,94,40,4.0,0.0
13863,65.0,0,40,2.0,0.0
13864,62.0,0,90,11.0,0.0
13865,58.0,0,90,6.0,0.0
13866,62.0,0,90,13.0,0.0
13867,46.0,0,90,4.0,0.0
13868,46.0,48,90,6.0,0.0
13869,58.0,0,90,12.0,0.0
13870,46.0,0,90,2.0,0.0
13871,46.0,0,90,7.0,0.0
13872,46.0,0,90,3.0,0.0
13873,34.0,0,90,15.0,0.0
13874,34.0,2,90,3.0,0.0
13875,62.0,0,90,2.0,0.0
13876,46.0,0,90,8.0,0.0
13877,62.0,0,90,4.0,0.0
13878,46.0,0,90,14.0,0.0
13879,70.0,0,40,12.0,0.0
13880,58.0,0,15,4.0,0.0
13881,74.0,0,15,1.0,0.0
13882,62.0,0,40,4.0,0.0
13883,58.0,0,40,14.0,0.0
13884,74.0,0,40,2.0,0.0
13885,62.0,0,40,13.0,0.0
13886,58.0,0,40,2.0,0.0
13887,74.0,0,40,11.0,0.0
13888,58.0,48,40,3.0,0.0
13889,60.0,0,40,2.0,0.0
13890,72.0,48,40,12.0,0.0
13891,75.0,0,40,1.0,0.0
13892,60.0,0,40,14.0,0.0
13893,63.0,0,40,13.0,0.0
13894,60.0,0,40,3.0,0.0
13895,63.0,0,40,4.0,0.0
13896,75.0,0,40,2.0,0.0
13897,75.0,0,40,11.0,0.0
13898,60.0,0,40,4.0,0.0
13899,62.0,0,40,4.0,0.0
13900,74.0,0,40,11.0,0.0
13901,58.0,0,40,14.0,0.0
13902,58.0,0,40,3.0,0.0
13903,62.0,48,40,13.0,0.0
13904,58.0,0,40,4.0,0.0
13905,74.0,0,40,2.0,0.0
13906,74.0,0,40,1.0,0.0
13907,58.0,0,40,2.0,0.0
13908,70.0,0,40,12.0,0.0
13909,72.0,48,40,2.0,0.0
13910,53.0,0,40,2.0,0.0
13911,53.0,0,40,14.0,0.0
13912,60.0,0,40,4.0,0.0
13913,53.0,0,40,4.0,0.0
13914,72.0,0,40,1.0,0.0
13915,53.0,0,40,3.0,0.0
13916,65.0,0,40,12.0,0.0
13917,60.0,0,40,13.0,0.0
13918,72.0,0,40,11.0,0.0
13919,50.0,0,40,2.0,0.0
13920,50.0,0,40,14.0,0.0
13921,50.0,0,40,3.0,0.0
13922,70.0,0,40,1.0,0.0
13923,50.0,0,40,4.0,0.0
13924,58.0,0,40,4.0,0.0
13925,70.0,0,40,11.0,0.0
13926,70.0,48,40,2.0,0.0
13927,62.0,0,40,12.0,0.0
13928,58.0,0,40,13.0,0.0
13929,60.0,0,40,4.0,0.0
13930,53.0,0,40,2.0,0.0
13931,60.0,48,40,13.0,0.0
13932,72.0,0,40,1.0,0.0
13933,65.0,0,40,12.0,0.0
13934,53.0,0,40,4.0,0.0
13935,53.0,0,40,3.0,0.0
13936,72.0,0,40,11.0,0.0
13937,53.0,0,40,14.0,0.0
13938,72.0,0,40,2.0,0.0
13939,58.0,0,40,4.0,0.0
13940,62.0,0,40,4.0,0.0
13941,70.0,48,40,12.0,0.0
13942,58.0,0,40,2.0,0.0
13943,58.0,0,40,3.0,0.0
13944,62.0,0,40,13.0,0.0
13945,74.0,0,40,11.0,0.0
13946,74.0,0,40,1.0,0.0
13947,58.0,0,40,14.0,0.0
13948,74.0,0,40,2.0,0.0
13949,60.0,0,40,4.0,0.0
13950,72.0,0,40,1.0,0.0
13951,53.0,0,40,2.0,0.0
13952,53.0,0,40,4.0,0.0
13953,60.0,48,40,13.0,0.0
13954,72.0,0,40,2.0,0.0
13955,53.0,0,40,3.0,0.0
13956,72.0,0,40,11.0,0.0
13957,53.0,0,40,14.0,0.0
13958,65.0,0,40,12.0,0.0
13959,58.0,0,40,2.0,0.0
13960,70.0,0,40,12.0,0.0
13961,74.0,0,40,2.0,0.0
13962,74.0,0,40,1.0,0.0
13963,58.0,0,40,14.0,0.0
13964,74.0,0,40,11.0,0.0
13965,58.0,0,40,4.0,0.0
13966,58.0,0,40,3.0,0.0
13967,62.0,0,40,13.0,0.0
13968,62.0,48,40,4.0,0.0
13969,60.0,0,40,2.0,0.0
13970,60.0,0,40,14.0,0.0
13971,75.0,0,40,1.0,0.0
13972,60.0,0,40,3.0,0.0
13973,75.0,0,40,11.0,0.0
13974,63.0,0,40,13.0,0.0
13975,75.0,0,40,2.0,0.0
13976,72.0,0,40,12.0,0.0
13977,60.0,0,40,4.0,0.0
13978,63.0,96,40,4.0,0.0
13979,62.0,0,90,14.0,0.0
13980,62.0,0,90,4.0,0.0
13981,62.0,0,90,3.0,0.0
13982,65.0,0,90,13.0,0.0
13983,77.0,0,90,1.0,0.0
13984,65.0,0,90,4.0,0.0
13985,62.0,0,90,2.0,0.0
13986,77.0,0,90,2.0,0.0
13987,74.0,22,90,12.0,0.0
13988,58.0,0,90,3.0,0.0
13989,70.0,0,90,13.0,0.0
13990,70.0,0,90,6.0,0.0
13991,58.0,0,90,4.0,0.0
13992,46.0,0,90,8.0,0.0
13993,70.0,0,90,5.0,0.0
13994,58.0,0,90,6.0,0.0
13995,94.0,0,90,0.0,0.0
13996,70.0,0,90,4.0,0.0
13997,46.0,0,90,3.0,0.0
13998,58.0,0,90,5.0,0.0
13999,58.0,0,90,14.0,0.0
14000,82.0,0,90,2.0,0.0
14001,58.0,94,90,7.0,0.0
14002,46.0,0,90,15.0,0.0
14003,54.0,24,20,9.0,0.0
14004,70.0,0,90,12.0,0.0
14005,58.0,0,90,2.0,0.0
14006,82.0,0,90,0.0,0.0
14007,82.0,0,90,1.0,0.0
14008,82.0,0,90,11.0,0.0
14009,54.0,24,20,9.0,0.0
14010,54.0,24,20,9.0,0.0
14011,54.0,2,20,9.0,0.0
14012,67.0,0,90,13.0,0.0
14013,54.0,0,90,9.0,0.0
14014,51.0,0,90,6.0,0.0
14015,51.0,2,90,3.0,0.0
14016,46.0,0,90,8.0,0.0
14017,51.0,0,90,14.0,0.0
14018,79.0,0,90,11.0,0.0
14019,67.0,0,90,4.0,0.0
14020,51.0,0,90,2.0,0.0
14021,63.0,0,90,4.0,0.0
14022,75.0,0,90,12.0,0.0
14023,63.0,22,90,6.0,0.0
14024,91.0,0,90,0.0,0.0
14025,63.0,0,90,7.0,0.0
14026,79.0,0,90,0.0,0.0
14027,63.0,0,90,5.0,0.0
14028,51.0,0,90,15.0,0.0
14029,55.0,0,90,3.0,0.0
14030,55.0,0,90,2.0,0.0
14031,43.0,0,90,15.0,0.0
14032,79.0,0,15,1.0,0.0
14033,79.0,0,15,2.0,0.0
14034,91.0,0,90,11.0,0.0
14035,55.0,0,90,7.0,0.0
14036,91.0,0,90,0.0,0.0
14037,79.0,0,90,12.0,0.0
14038,67.0,0,15,5.0,0.0
14039,79.0,0,90,13.0,0.0
14040,54.0,24,20,9.0,0.0
14041,67.0,0,90,4.0,0.0
14042,55.0,0,90,6.0,0.0
14043,103.0,0,90,0.0,0.0
14044,55.0,94,90,4.0,0.0
14045,79.0,0,90,5.0,0.0
14046,43.0,0,90,3.0,0.0
14047,55.0,0,90,14.0,0.0
14048,67.0,0,90,6.0,0.0
14049,54.0,24,20,9.0,0.0
14050,54.0,24,20,9.0,0.0
14051,54.0,2,20,9.0,0.0
14052,54.0,0,90,9.0,0.0
14053,48.0,0,90,2.0,0.0
14054,84.0,0,90,12.0,0.0
14055,75.0,0,90,1.0,0.0
14056,87.0,0,90,0.0,0.0
14057,63.0,0,90,4.0,0.0
14058,99.0,0,90,0.0,0.0
14059,75.0,0,90,2.0,0.0
14060,48.0,0,90,14.0,0.0
14061,41.0,0,90,8.0,0.0
14062,48.0,0,90,15.0,0.0
14063,60.0,22,90,7.0,0.0
14064,75.0,0,90,5.0,0.0
14065,48.0,0,90,6.0,0.0
14066,48.0,2,90,3.0,0.0
14067,72.0,0,90,5.0,0.0
14068,87.0,0,90,11.0,0.0
14069,75.0,0,90,13.0,0.0
14070,60.0,0,90,5.0,0.0
14071,84.0,0,90,11.0,0.0
14072,60.0,0,15,6.0,0.0
14073,60.0,0,15,4.0,0.0
14074,72.0,0,90,12.0,0.0
14075,84.0,0,90,0.0,0.0
14076,72.0,0,90,13.0,0.0
14077,72.0,0,90,1.0,0.0
14078,48.0,0,90,2.0,0.0
14079,36.0,0,90,15.0,0.0
14080,72.0,94,90,2.0,0.0
14081,96.0,0,90,0.0,0.0
14082,36.0,0,90,3.0,0.0
14083,54.0,24,20,9.0,0.0
14084,48.0,0,90,3.0,0.0
14085,72.0,0,90,5.0,0.0
14086,48.0,0,90,6.0,0.0
14087,48.0,0,90,4.0,0.0
14088,48.0,0,90,14.0,0.0
14089,48.0,0,90,7.0,0.0
14090,54.0,24,20,9.0,0.0
14091,54.0,24,20,9.0,0.0
14092,54.0,2,20,9.0,0.0
14093,69.0,0,90,13.0,0.0
14094,54.0,0,90,9.0,0.0
14095,81.0,0,90,0.0,0.0
14096,69.0,0,90,2.0,0.0
14097,41.0,0,90,15.0,0.0
14098,65.0,0,90,5.0,0.0
14099,53.0,0,90,7.0,0.0
14100,81.0,0,90,11.0,0.0
14101,41.0,0,90,8.0,0.0
14102,41.0,0,90,14.0,0.0
14103,69.0,0,90,5.0,0.0
14104,41.0,0,90,6.0,0.0
14105,93.0,2,90,0.0,0.0
14106,77.0,0,90,12.0,0.0
14107,69.0,22,90,1.0,0.0
14108,41.0,0,90,3.0,0.0
14109,57.0,0,90,4.0,0.0
14110,77.0,0,90,13.0,0.0
14111,41.0,0,90,7.0,0.0
14112,89.0,0,90,11.0,0.0
14113,77.0,0,90,2.0,0.0
14114,65.0,0,90,5.0,0.0
14115,29.0,0,90,3.0,0.0
14116,65.0,0,90,4.0,0.0
14117,53.0,0,15,6.0,0.0
14118,53.0,0,15,4.0,0.0
14119,41.0,0,90,14.0,0.0
14120,101.0,0,90,0.0,0.0
14121,41.0,0,15,3.0,0.0
14122,41.0,0,15,2.0,0.0
14123,54.0,24,20,9.0,0.0
14124,77.0,0,90,12.0,0.0
14125,29.0,94,90,15.0,0.0
14126,89.0,0,90,0.0,0.0
14127,77.0,0,90,5.0,0.0
14128,41.0,0,90,6.0,0.0
14129,77.0,0,90,1.0,0.0
14130,54.0,24,20,9.0,0.0
14131,54.0,24,20,9.0,0.0
14132,54.0,2,20,9.0,0.0
14133,46.0,0,90,8.0,0.0
14134,58.0,0,90,4.0,0.0
14135,70.0,0,90,5.0,0.0
14136,54.0,0,90,9.0,0.0
14137,49.0,0,90,9.0,0.0
14138,46.0,0,90,14.0,0.0
14139,74.0,0,90,5.0,0.0
14140,46.0,0,90,2.0,0.0
14141,86.0,0,90,11.0,0.0
14142,34.0,0,90,3.0,0.0
14143,46.0,0,90,3.0,0.0
14144,46.0,0,90,6.0,0.0
14145,46.0,0,90,7.0,0.0
14146,74.0,0,90,13.0,0.0
14147,98.0,2,90,0.0,0.0
14148,58.0,0,90,6.0,0.0
14149,74.0,0,90,1.0,0.0
14150,62.0,0,90,4.0,0.0
14151,82.0,0,90,12.0,0.0
14152,86.0,0,90,0.0,0.0
14153,74.0,0,90,2.0,0.0
14154,34.0,96,90,15.0,0.0
14155,89.0,0,90,0.0,0.0
14156,89.0,0,90,11.0,0.0
14157,77.0,0,90,5.0,0.0
14158,77.0,94,90,12.0,0.0
14159,65.0,0,90,13.0,0.0
14160,65.0,0,90,5.0,0.0
14161,78.0,0,90,5.0,0.0
14162,66.0,0,90,13.0,0.0
14163,78.0,0,90,12.0,0.0
14164,90.0,0,90,0.0,0.0
14165,90.0,48,90,11.0,0.0
14166,66.0,0,90,5.0,0.0
14167,60.0,0,40,14.0,0.0
14168,63.0,0,40,13.0,0.0
14169,63.0,0,40,4.0,0.0
14170,75.0,0,40,2.0,0.0
14171,72.0,0,40,2.0,0.0
14172,75.0,0,40,1.0,0.0
14173,72.0,48,40,1.0,0.0
14174,60.0,0,40,4.0,0.0
14175,65.0,0,40,4.0,0.0
14176,61.0,0,40,14.0,0.0
14177,61.0,0,40,4.0,0.0
14178,73.0,0,40,2.0,0.0
14179,65.0,48,40,13.0,0.0
14180,77.0,0,40,2.0,0.0
14181,73.0,0,40,1.0,0.0
14182,77.0,0,40,1.0,0.0
14183,60.0,0,40,14.0,0.0
14184,60.0,0,40,4.0,0.0
14185,75.0,0,40,1.0,0.0
14186,72.0,0,40,1.0,0.0
14187,72.0,0,40,2.0,0.0
14188,75.0,0,40,2.0,0.0
14189,63.0,48,40,13.0,0.0
14190,63.0,0,40,4.0,0.0
14191,58.0,0,40,4.0,0.0
14192,73.0,0,40,2.0,0.0
14193,70.0,0,40,1.0,0.0
14194,73.0,48,40,1.0,0.0
14195,61.0,0,40,13.0,0.0
14196,61.0,0,40,4.0,0.0
14197,70.0,0,40,2.0,0.0
14198,58.0,0,40,14.0,0.0
14199,72.0,0,40,2.0,0.0
14200,69.0,0,40,2.0,0.0
14201,60.0,0,40,13.0,0.0
14202,57.0,0,40,4.0,0.0
14203,60.0,0,40,4.0,0.0
14204,57.0,0,40,14.0,0.0
14205,69.0,48,40,1.0,0.0
14206,72.0,0,40,1.0,0.0
14207,61.0,0,40,13.0,0.0
14208,73.0,96,40,1.0,0.0
14209,70.0,0,40,2.0,0.0
14210,73.0,0,40,2.0,0.0
14211,58.0,0,40,14.0,0.0
14212,58.0,0,40,4.0,0.0
14213,61.0,0,40,4.0,0.0
14214,70.0,0,40,1.0,0.0
14215,63.0,96,90,13.0,0.0
14216,63.0,0,90,4.0,0.0
14217,60.0,0,90,4.0,0.0
14218,72.0,0,90,2.0,0.0
14219,75.0,0,90,2.0,0.0
14220,60.0,0,90,14.0,0.0
14221,75.0,0,90,1.0,0.0
14222,72.0,0,90,1.0,0.0
14223,77.0,0,90,5.0,0.0
14224,77.0,0,90,12.0,0.0
14225,65.0,0,90,5.0,0.0
14226,89.0,0,90,11.0,0.0
14227,89.0,0,90,0.0,0.0
14228,65.0,0,90,13.0,0.0
14229,78.0,0,90,12.0,0.0
14230,66.0,0,90,13.0,0.0
14231,78.0,96,90,5.0,0.0
14232,66.0,0,90,5.0,0.0
14233,90.0,0,90,11.0,0.0
14234,90.0,0,90,0.0,0.0
14235,67.0,0,90,5.0,0.0
14236,91.0,0,90,11.0,0.0
14237,67.0,94,90,13.0,0.0
14238,91.0,0,90,0.0,0.0
14239,79.0,0,90,12.0,0.0
14240,79.0,0,90,5.0,0.0
14241,68.0,0,90,5.0,0.0
14242,68.0,0,90,13.0,0.0
14243,92.0,0,90,11.0,0.0
14244,80.0,48,90,12.0,0.0
14245,80.0,0,90,5.0,0.0
14246,92.0,0,90,0.0,0.0
14247,66.0,0,40,2.0,0.0
14248,66.0,0,40,1.0,0.0
14249,75.0,0,40,1.0,0.0
14250,63.0,0,40,4.0,0.0
14251,75.0,0,40,2.0,0.0
14252,63.0,0,40,13.0,0.0
14253,54.0,0,40,14.0,0.0
14254,54.0,48,40,4.0,0.0
14255,68.0,48,40,2.0,0.0
14256,77.0,0,40,2.0,0.0
14257,56.0,0,40,14.0,0.0
14258,65.0,0,40,13.0,0.0
14259,65.0,0,40,4.0,0.0
14260,56.0,0,40,4.0,0.0
14261,68.0,0,40,1.0,0.0
14262,77.0,0,40,1.0,0.0
14263,54.0,0,40,4.0,0.0
14264,63.0,0,40,4.0,0.0
14265,63.0,0,40,13.0,0.0
14266,75.0,0,40,2.0,0.0
14267,54.0,0,40,14.0,0.0
14268,66.0,0,40,1.0,0.0
14269,75.0,48,40,1.0,0.0
14270,66.0,0,40,2.0,0.0
14271,61.0,0,40,4.0,0.0
14272,53.0,0,40,4.0,0.0
14273,65.0,0,40,2.0,0.0
14274,61.0,0,40,13.0,0.0
14275,73.0,0,40,2.0,0.0
14276,65.0,48,40,1.0,0.0
14277,73.0,0,40,1.0,0.0
14278,53.0,0,40,14.0,0.0
14279,63.0,0,40,2.0,0.0
14280,72.0,0,40,2.0,0.0
14281,60.0,0,40,13.0,0.0
14282,63.0,0,40,1.0,0.0
14283,60.0,0,40,4.0,0.0
14284,51.0,48,40,14.0,0.0
14285,51.0,0,40,4.0,0.0
14286,72.0,0,40,1.0,0.0
14287,73.0,0,40,1.0,0.0
14288,61.0,96,40,13.0,0.0
14289,53.0,0,40,4.0,0.0
14290,65.0,0,40,2.0,0.0
14291,73.0,0,40,2.0,0.0
14292,65.0,0,40,1.0,0.0
14293,61.0,0,40,4.0,0.0
14294,53.0,0,40,14.0,0.0
14295,66.0,0,90,2.0,0.0
14296,75.0,96,90,2.0,0.0
14297,54.0,0,90,4.0,0.0
14298,63.0,0,90,4.0,0.0
14299,66.0,0,90,1.0,0.0
14300,54.0,0,90,14.0,0.0
14301,63.0,0,90,13.0,0.0
14302,75.0,0,90,1.0,0.0
14303,67.0,0,90,5.0,0.0
14304,79.0,0,90,12.0,0.0
14305,91.0,0,90,0.0,0.0
14306,79.0,0,90,5.0,0.0
14307,67.0,0,90,13.0,0.0
14308,91.0,0,90,11.0,0.0
14309,68.0,0,90,13.0,0.0
14310,68.0,0,90,5.0,0.0
14311,80.0,96,90,12.0,0.0
14312,92.0,0,90,0.0,0.0
14313,92.0,0,90,11.0,0.0
14314,92.0,0,90,11.0,0.0
14315,68.0,0,90,13.0,0.0
14316,80.0,0,15,5.0,0.0
14317,80.0,94,90,12.0,0.0
14318,68.0,0,90,5.0,0.0
14319,92.0,0,90,0.0,0.0
14320,69.0,48,90,5.0,0.0
14321,81.0,0,90,5.0,0.0
14322,93.0,0,90,0.0,0.0
14323,69.0,0,90,13.0,0.0
14324,93.0,0,90,11.0,0.0
14325,81.0,0,90,12.0,0.0
14326,75.0,0,40,1.0,0.0
14327,54.0,0,40,14.0,0.0
14328,63.0,0,40,4.0,0.0
14329,54.0,0,40,2.0,0.0
14330,63.0,0,40,11.0,0.0
14331,63.0,0,40,12.0,0.0
14332,54.0,48,40,3.0,0.0
14333,54.0,0,40,4.0,0.0
14334,63.0,0,40,2.0,0.0
14335,63.0,0,40,13.0,0.0
14336,65.0,0,40,4.0,0.0
14337,65.0,0,40,13.0,0.0
14338,65.0,0,40,12.0,0.0
14339,65.0,0,40,2.0,0.0
14340,56.0,0,40,14.0,0.0
14341,56.0,0,40,2.0,0.0
14342,56.0,48,40,4.0,0.0
14343,56.0,0,40,3.0,0.0
14344,77.0,0,40,1.0,0.0
14345,65.0,0,40,11.0,0.0
14346,63.0,0,40,12.0,0.0
14347,54.0,0,40,2.0,0.0
14348,63.0,0,40,13.0,0.0
14349,63.0,0,40,4.0,0.0
14350,63.0,0,40,2.0,0.0
14351,54.0,0,40,3.0,0.0
14352,54.0,0,40,14.0,0.0
14353,54.0,0,40,4.0,0.0
14354,63.0,48,40,11.0,0.0
14355,75.0,0,40,1.0,0.0
14356,73.0,0,40,1.0,0.0
14357,61.0,0,40,12.0,0.0
14358,61.0,0,40,13.0,0.0
14359,53.0,0,40,4.0,0.0
14360,53.0,48,40,3.0,0.0
14361,53.0,0,40,2.0,0.0
14362,61.0,0,40,4.0,0.0
14363,61.0,0,40,2.0,0.0
14364,53.0,0,40,14.0,0.0
14365,61.0,0,40,11.0,0.0
14366,51.0,0,40,4.0,0.0
14367,60.0,0,40,11.0,0.0
14368,51.0,0,40,2.0,0.0
14369,72.0,48,40,1.0,0.0
14370,60.0,0,40,4.0,0.0
14371,51.0,0,40,14.0,0.0
14372,60.0,0,40,12.0,0.0
14373,60.0,0,40,13.0,0.0
14374,51.0,0,40,3.0,0.0
14375,60.0,0,40,2.0,0.0
14376,61.0,0,40,2.0,0.0
14377,53.0,0,40,3.0,0.0
14378,53.0,0,40,14.0,0.0
14379,53.0,0,40,4.0,0.0
14380,73.0,0,40,1.0,0.0
14381,61.0,48,40,4.0,0.0
14382,53.0,0,40,2.0,0.0
14383,61.0,0,40,12.0,0.0
14384,61.0,0,40,13.0,0.0
14385,61.0,0,40,11.0,0.0
14386,51.0,0,40,4.0,0.0
14387,60.0,0,40,13.0,0.0
14388,51.0,0,40,14.0,0.0
14389,60.0,48,40,11.0,0.0
14390,51.0,0,40,3.0,0.0
14391,72.0,0,40,1.0,0.0
14392,60.0,0,40,12.0,0.0
14393,60.0,0,40,2.0,0.0
14394,51.0,0,40,2.0,0.0
14395,60.0,0,40,4.0,0.0
14396,58.0,0,40,11.0,0.0
14397,49.0,0,40,4.0,0.0
14398,58.0,0,40,12.0,0.0
14399,58.0,0,40,4.0,0.0
14400,49.0,48,40,2.0,0.0
14401,49.0,0,40,14.0,0.0
14402,49.0,0,40,3.0,0.0
14403,70.0,0,40,1.0,0.0
14404,58.0,0,40,2.0,0.0
14405,58.0,0,40,13.0,0.0
14406,57.0,0,40,2.0,0.0
14407,57.0,0,40,4.0,0.0
14408,48.0,0,40,14.0,0.0
14409,57.0,0,40,12.0,0.0
14410,57.0,48,40,13.0,0.0
14411,69.0,0,40,1.0,0.0
14412,48.0,0,40,3.0,0.0
14413,48.0,0,40,2.0,0.0
14414,57.0,0,40,11.0,0.0
14415,48.0,0,40,4.0,0.0
14416,49.0,0,40,3.0,0.0
14417,49.0,0,40,14.0,0.0
14418,58.0,0,40,2.0,0.0
14419,49.0,0,40,2.0,0.0
14420,58.0,0,40,4.0,0.0
14421,58.0,0,40,12.0,0.0
14422,49.0,0,40,4.0,0.0
14423,58.0,0,40,13.0,0.0
14424,58.0,0,40,11.0,0.0
14425,70.0,48,40,1.0,0.0
14426,57.0,0,40,13.0,0.0
14427,57.0,0,40,2.0,0.0
14428,57.0,0,40,11.0,0.0
14429,48.0,0,40,2.0,0.0
14430,48.0,0,40,14.0,0.0
14431,57.0,0,40,12.0,0.0
14432,48.0,0,40,4.0,0.0
14433,57.0,0,40,4.0,0.0
14434,69.0,48,40,1.0,0.0
14435,48.0,0,40,3.0,0.0
14436,54.0,0,40,2.0,0.0
14437,54.0,0,40,11.0,0.0
14438,46.0,0,40,4.0,0.0
14439,46.0,0,40,2.0,0.0
14440,54.0,48,40,4.0,0.0
14441,46.0,0,40,3.0,0.0
14442,54.0,0,40,13.0,0.0
14443,46.0,0,40,14.0,0.0
14444,66.0,0,40,1.0,0.0
14445,54.0,0,40,12.0,0.0
14446,45.0,48,40,4.0,0.0
14447,53.0,0,40,12.0,0.0
14448,53.0,0,40,2.0,0.0
14449,45.0,0,40,3.0,0.0
14450,65.0,0,40,1.0,0.0
14451,45.0,0,40,2.0,0.0
14452,53.0,0,40,4.0,0.0
14453,53.0,0,40,11.0,0.0
14454,45.0,0,40,14.0,0.0
14455,53.0,0,40,13.0,0.0
14456,65.0,0,40,12.0,0.0
14457,65.0,0,40,11.0,0.0
14458,41.0,0,40,3.0,0.0
14459,65.0,0,40,13.0,0.0
14460,65.0,94,40,2.0,0.0
14461,77.0,0,40,1.0,0.0
14462,41.0,0,40,14.0,0.0
14463,41.0,0,40,2.0,0.0
14464,41.0,0,40,4.0,0.0
14465,65.0,0,40,4.0,0.0
14466,62.0,0,90,11.0,0.0
14467,34.0,0,90,15.0,0.0
14468,46.0,0,90,2.0,0.0
14469,58.0,0,90,6.0,0.0
14470,62.0,0,90,13.0,0.0
14471,34.0,2,90,3.0,0.0
14472,46.0,0,90,8.0,0.0
14473,46.0,0,90,4.0,0.0
14474,46.0,0,90,3.0,0.0
14475,46.0,0,90,14.0,0.0
14476,58.0,0,90,12.0,0.0
14477,46.0,0,90,6.0,0.0
14478,62.0,0,90,4.0,0.0
14479,46.0,0,90,7.0,0.0
14480,62.0,48,90,2.0,0.0
14481,58.0,0,40,3.0,0.0
14482,74.0,0,40,11.0,0.0
14483,58.0,0,40,2.0,0.0
14484,58.0,0,15,4.0,0.0
14485,74.0,0,15,1.0,0.0
14486,58.0,0,40,14.0,0.0
14487,62.0,0,40,13.0,0.0
14488,70.0,0,40,12.0,0.0
14489,62.0,0,40,4.0,0.0
14490,74.0,48,40,2.0,0.0
14491,60.0,0,40,4.0,0.0
14492,72.0,0,40,12.0,0.0
14493,63.0,0,40,4.0,0.0
14494,63.0,0,40,13.0,0.0
14495,60.0,0,40,3.0,0.0
14496,75.0,0,40,1.0,0.0
14497,60.0,0,40,2.0,0.0
14498,60.0,48,40,14.0,0.0
14499,75.0,0,40,2.0,0.0
14500,75.0,0,40,11.0,0.0
14501,74.0,0,40,11.0,0.0
14502,62.0,0,40,13.0,0.0
14503,62.0,0,40,4.0,0.0
14504,58.0,0,40,2.0,0.0
14505,70.0,48,40,12.0,0.0
14506,58.0,0,40,3.0,0.0
14507,74.0,0,40,2.0,0.0
14508,58.0,0,40,4.0,0.0
14509,58.0,0,40,14.0,0.0
14510,74.0,0,40,1.0,0.0
14511,72.0,0,40,2.0,0.0
14512,60.0,48,40,4.0,0.0
14513,72.0,0,40,1.0,0.0
14514,53.0,0,40,2.0,0.0
14515,72.0,0,40,11.0,0.0
14516,53.0,0,40,14.0,0.0
14517,53.0,0,40,3.0,0.0
14518,53.0,0,40,4.0,0.0
14519,60.0,0,40,13.0,0.0
14520,65.0,0,40,12.0,0.0
14521,50.0,0,40,14.0,0.0
14522,58.0,0,40,4.0,0.0
14523,70.0,0,40,2.0,0.0
14524,50.0,0,40,4.0,0.0
14525,70.0,0,40,11.0,0.0
14526,50.0,0,40,3.0,0.0
14527,70.0,48,40,1.0,0.0
14528,58.0,0,40,13.0,0.0
14529,62.0,0,40,12.0,0.0
14530,50.0,0,40,2.0,0.0
14531,72.0,48,40,1.0,0.0
14532,53.0,0,40,14.0,0.0
14533,65.0,0,40,12.0,0.0
14534,72.0,0,40,11.0,0.0
14535,60.0,0,40,4.0,0.0
14536,53.0,0,40,2.0,0.0
14537,53.0,0,40,4.0,0.0
14538,72.0,0,40,2.0,0.0
14539,60.0,0,40,13.0,0.0
14540,53.0,0,40,3.0,0.0
14541,62.0,0,40,4.0,0.0
14542,58.0,0,40,14.0,0.0
14543,58.0,0,40,4.0,0.0
14544,62.0,0,40,13.0,0.0
14545,74.0,0,40,2.0,0.0
14546,70.0,0,40,12.0,0.0
14547,74.0,48,40,11.0,0.0
14548,58.0,0,40,3.0,0.0
14549,58.0,0,40,2.0,0.0
14550,74.0,0,40,1.0,0.0
14551,72.0,0,40,2.0,0.0
14552,60.0,0,40,13.0,0.0
14553,65.0,0,40,12.0,0.0
14554,53.0,0,40,14.0,0.0
14555,72.0,48,40,1.0,0.0
14556,53.0,0,40,4.0,0.0
14557,60.0,0,40,4.0,0.0
14558,53.0,0,40,3.0,0.0
14559,72.0,0,40,11.0,0.0
14560,53.0,0,40,2.0,0.0
14561,58.0,0,40,4.0,0.0
14562,70.0,0,40,12.0,0.0
14563,58.0,0,40,3.0,0.0
14564,62.0,0,40,4.0,0.0
14565,58.0,0,40,2.0,0.0
14566,74.0,0,40,2.0,0.0
14567,74.0,0,40,1.0,0.0
14568,62.0,0,40,13.0,0.0
14569,58.0,0,40,14.0,0.0
14570,74.0,48,40,11.0,0.0
14571,63.0,0,40,4.0,0.0
14572,75.0,0,40,2.0,0.0
14573,72.0,0,40,12.0,0.0
14574,60.0,0,40,2.0,0.0
14575,60.0,0,40,14.0,0.0
14576,75.0,96,40,1.0,0.0
14577,63.0,0,40,13.0,0.0
14578,60.0,0,40,4.0,0.0
14579,75.0,0,40,11.0,0.0
14580,60.0,0,40,3.0,0.0
14581,77.0,0,90,2.0,0.0
14582,62.0,0,90,2.0,0.0
14583,65.0,0,90,4.0,0.0
14584,74.0,0,90,12.0,0.0
14585,62.0,22,90,14.0,0.0
14586,77.0,0,90,1.0,0.0
14587,62.0,0,90,4.0,0.0
14588,62.0,0,90,3.0,0.0
14589,65.0,0,90,13.0,0.0
14590,82.0,0,90,11.0,0.0
14591,82.0,0,90,2.0,0.0
14592,94.0,0,90,0.0,0.0
14593,46.0,0,90,3.0,0.0
14594,58.0,0,90,3.0,0.0
14595,82.0,0,90,1.0,0.0
14596,70.0,0,90,5.0,0.0
14597,82.0,0,90,0.0,0.0
14598,58.0,0,90,7.0,0.0
14599,58.0,0,90,4.0,0.0
14600,58.0,0,90,6.0,0.0
14601,70.0,0,90,13.0,0.0
14602,70.0,0,90,4.0,0.0
14603,58.0,0,90,2.0,0.0
14604,46.0,0,90,15.0,0.0
14605,70.0,0,90,6.0,0.0
14606,58.0,0,90,5.0,0.0
14607,70.0,0,90,12.0,0.0
14608,54.0,24,20,9.0,0.0
14609,58.0,94,90,14.0,0.0
14610,54.0,24,20,9.0,0.0
14611,54.0,24,20,9.0,0.0
14612,54.0,2,20,9.0,0.0
14613,51.0,0,90,15.0,0.0
14614,79.0,22,90,11.0,0.0
14615,63.0,0,90,5.0,0.0
14616,67.0,0,90,13.0,0.0
14617,67.0,0,90,5.0,0.0
14618,63.0,0,90,7.0,0.0
14619,63.0,0,90,4.0,0.0
14620,54.0,0,90,9.0,0.0
14621,79.0,0,90,2.0,0.0
14622,51.0,0,90,3.0,0.0
14623,75.0,0,90,12.0,0.0
14624,79.0,0,90,0.0,0.0
14625,79.0,0,90,1.0,0.0
14626,63.0,0,90,6.0,0.0
14627,91.0,2,90,0.0,0.0
14628,46.0,0,15,8.0,0.0
14629,51.0,0,90,6.0,0.0
14630,51.0,0,90,2.0,0.0
14631,51.0,0,90,14.0,0.0
14632,79.0,0,90,12.0,0.0
14633,103.0,0,90,0.0,0.0
14634,43.0,0,90,15.0,0.0
14635,67.0,0,90,6.0,0.0
14636,55.0,0,90,14.0,0.0
14637,55.0,0,90,6.0,0.0
14638,55.0,0,90,3.0,0.0
14639,67.0,0,15,4.0,0.0
14640,79.0,0,90,5.0,0.0
14641,54.0,24,20,9.0,0.0
14642,55.0,0,90,4.0,0.0
14643,55.0,0,90,7.0,0.0
14644,79.0,94,90,2.0,0.0
14645,91.0,0,90,0.0,0.0
14646,91.0,0,90,11.0,0.0
14647,43.0,0,90,3.0,0.0
14648,67.0,0,90,5.0,0.0
14649,79.0,0,90,13.0,0.0
14650,55.0,0,90,2.0,0.0
14651,79.0,0,90,1.0,0.0
14652,54.0,24,20,9.0,0.0
14653,54.0,24,20,9.0,0.0
14654,54.0,2,20,9.0,0.0
14655,54.0,0,90,9.0,0.0
14656,87.0,0,90,0.0,0.0
14657,87.0,0,90,11.0,0.0
14658,48.0,0,90,15.0,0.0
14659,48.0,0,90,14.0,0.0
14660,63.0,0,90,4.0,0.0
14661,75.0,0,90,5.0,0.0
14662,60.0,0,90,7.0,0.0
14663,48.0,0,90,6.0,0.0
14664,72.0,0,90,5.0,0.0
14665,75.0,0,90,13.0,0.0
14666,84.0,0,90,12.0,0.0
14667,75.0,0,90,1.0,0.0
14668,99.0,2,90,0.0,0.0
14669,41.0,0,90,8.0,0.0
14670,75.0,0,90,2.0,0.0
14671,48.0,0,90,3.0,0.0
14672,48.0,0,90,7.0,0.0
14673,60.0,0,90,5.0,0.0
14674,72.0,0,90,13.0,0.0
14675,60.0,0,15,6.0,0.0
14676,96.0,0,90,0.0,0.0
14677,84.0,0,90,11.0,0.0
14678,48.0,0,90,14.0,0.0
14679,48.0,0,15,2.0,0.0
14680,48.0,0,90,6.0,0.0
14681,36.0,0,90,15.0,0.0
14682,72.0,0,90,5.0,0.0
14683,48.0,0,15,3.0,0.0
14684,60.0,22,15,4.0,0.0
14685,72.0,94,90,1.0,0.0
14686,84.0,0,90,0.0,0.0
14687,72.0,0,90,12.0,0.0
14688,72.0,0,90,2.0,0.0
14689,48.0,0,90,4.0,0.0
14690,36.0,0,90,3.0,0.0
14691,54.0,24,20,9.0,0.0
14692,54.0,24,20,9.0,0.0
14693,54.0,24,20,9.0,0.0
14694,54.0,2,20,9.0,0.0
14695,69.0,0,90,13.0,0.0
14696,81.0,0,90,0.0,0.0
14697,81.0,0,90,11.0,0.0
14698,41.0,0,90,14.0,0.0
14699,53.0,0,90,4.0,0.0
14700,53.0,0,90,7.0,0.0
14701,69.0,0,90,1.0,0.0
14702,69.0,0,90,2.0,0.0
14703,41.0,0,90,8.0,0.0
14704,57.0,0,90,4.0,0.0
14705,41.0,0,90,3.0,0.0
14706,93.0,2,90,0.0,0.0
14707,69.0,0,90,5.0,0.0
14708,54.0,0,90,9.0,0.0
14709,41.0,0,90,15.0,0.0
14710,41.0,0,15,3.0,0.0
14711,41.0,0,15,2.0,0.0
14712,41.0,0,90,14.0,0.0
14713,29.0,0,90,3.0,0.0
14714,53.0,0,15,6.0,0.0
14715,65.0,0,90,4.0,0.0
14716,101.0,0,90,0.0,0.0
14717,77.0,0,15,12.0,0.0
14718,54.0,24,20,9.0,0.0
14719,29.0,0,90,15.0,0.0
14720,41.0,22,15,6.0,0.0
14721,77.0,0,90,2.0,0.0
14722,41.0,0,90,7.0,0.0
14723,77.0,0,90,1.0,0.0
14724,89.0,0,90,11.0,0.0
14725,65.0,0,15,5.0,0.0
14726,53.0,0,90,4.0,0.0
14727,89.0,0,90,0.0,0.0
14728,77.0,0,90,5.0,0.0
14729,77.0,0,90,13.0,0.0
14730,54.0,24,20,9.0,0.0
14731,54.0,24,20,9.0,0.0
14732,54.0,2,20,9.0,0.0
14733,58.0,0,90,6.0,0.0
14734,74.0,0,90,13.0,0.0
14735,34.0,0,90,15.0,0.0
14736,49.0,0,90,9.0,0.0
14737,62.0,0,90,4.0,0.0
14738,74.0,0,90,5.0,0.0
14739,74.0,0,90,2.0,0.0
14740,86.0,0,90,11.0,0.0
14741,86.0,2,90,0.0,0.0
14742,74.0,0,90,1.0,0.0
14743,46.0,0,90,8.0,0.0
14744,46.0,0,90,2.0,0.0
14745,46.0,0,90,14.0,0.0
14746,98.0,0,90,0.0,0.0
14747,70.0,128,90,5.0,0.0
14748,46.0,0,90,7.0,0.0
14749,46.0,0,90,3.0,0.0
14750,58.0,0,90,4.0,0.0
14751,82.0,0,90,12.0,0.0
14752,54.0,0,90,9.0,0.0
14753,34.0,0,90,3.0,0.0
14754,46.0,0,90,6.0,0.0
14755,41.0,32,90,15.0,0.0
14756,53.0,64,30,3.0,0.0
14757,34.0,0,90,15.0,0.0
14758,46.0,64,30,3.0,0.0
14759,74.0,32,90,1.0,0.0
14760,82.0,0,90,1.0,0.0
14761,62.0,48,40,13.0,0.0
14762,89.0,16,30,0.0,0.0
14763,63.0,32,40,13.0,0.0
14764,94.0,16,30,0.0,0.0
14765,62.0,48,40,13.0,0.0
14766,81.0,32,150,9.0,0.0
14767,60.0,32,40,13.0,0.0
14768,58.0,16,40,13.0,0.0
14769,77.0,16,30,1.0,0.0
14770,74.0,0,40,11.0,0.0
14771,75.0,0,40,11.0,0.0
14772,60.0,32,40,13.0,0.0
14773,82.0,16,30,1.0,0.0
14774,74.0,0,40,11.0,0.0
14775,58.0,48,40,13.0,0.0
14776,72.0,32,40,11.0,0.0
14777,53.0,0,40,13.0,0.0
14778,50.0,48,40,13.0,0.0
14779,65.0,16,30,2.0,0.0
14780,70.0,0,40,11.0,0.0
14781,53.0,0,40,13.0,0.0
14782,72.0,32,40,11.0,0.0
14783,70.0,16,30,2.0,0.0
14784,70.0,48,40,11.0,0.0
14785,58.0,32,90,13.0,0.0
14786,65.0,0,40,11.0,0.0
14787,34.0,32,90,15.0,0.0
14788,46.0,16,30,3.0,0.0
14789,62.0,48,40,11.0,0.0
14790,64.0,0,40,11.0,0.0
14791,41.0,64,30,3.0,0.0
14792,65.0,0,90,11.0,0.0
14793,29.0,32,90,15.0,0.0
14794,84.0,16,30,0.0,0.0
14795,57.0,48,40,14.0,0.0
14796,58.0,32,40,14.0,0.0
14797,57.0,48,40,14.0,0.0
14798,81.0,32,150,9.0,0.0
14799,89.0,16,30,0.0,0.0
14800,55.0,32,40,14.0,0.0
14801,53.0,16,40,14.0,0.0
14802,69.0,0,40,11.0,0.0
14803,72.0,16,30,1.0,0.0
14804,70.0,32,40,11.0,0.0
14805,55.0,0,40,14.0,0.0
14806,77.0,16,30,1.0,0.0
14807,53.0,0,40,14.0,0.0
14808,69.0,48,40,11.0,0.0
14809,67.0,32,40,11.0,0.0
14810,48.0,0,40,14.0,0.0
14811,60.0,16,30,2.0,0.0
14812,45.0,0,40,14.0,0.0
14813,65.0,48,40,11.0,0.0
14814,48.0,32,40,14.0,0.0
14815,67.0,0,40,11.0,0.0
14816,53.0,0,90,14.0,0.0
14817,65.0,48,40,11.0,0.0
14818,65.0,16,30,2.0,0.0
14819,63.0,32,40,11.0,0.0
14820,41.0,32,90,15.0,0.0
14821,53.0,16,30,3.0,0.0
14822,62.0,48,40,11.0,0.0
14823,65.0,0,40,11.0,0.0
14824,70.0,32,90,11.0,0.0
14825,46.0,64,30,3.0,0.0
14826,34.0,0,90,15.0,0.0
14827,86.0,16,30,0.0,0.0
14828,70.0,48,40,12.0,0.0
14829,72.0,32,40,12.0,0.0
14830,94.0,16,30,0.0,0.0
14831,81.0,32,150,9.0,0.0
14832,70.0,48,40,12.0,0.0
14833,69.0,32,40,12.0,0.0
14834,67.0,0,40,12.0,0.0
14835,82.0,16,40,11.0,0.0
14836,74.0,16,30,1.0,0.0
14837,84.0,0,40,11.0,0.0
14838,69.0,32,40,12.0,0.0
14839,82.0,0,40,11.0,0.0
14840,67.0,48,40,12.0,0.0
14841,82.0,16,30,1.0,0.0
14842,65.0,0,40,12.0,0.0
14843,81.0,32,40,11.0,0.0
14844,62.0,16,30,2.0,0.0
14845,64.0,0,40,12.0,0.0
14846,79.0,48,40,11.0,0.0
14847,67.0,0,40,12.0,0.0
14848,81.0,32,40,11.0,0.0
14849,72.0,0,90,12.0,0.0
14850,79.0,48,40,11.0,0.0
14851,70.0,16,30,2.0,0.0
14852,77.0,32,40,11.0,0.0
14853,48.0,0,30,3.0,0.0
14854,76.0,48,40,11.0,0.0
14855,60.0,16,30,3.0,0.0
14856,48.0,32,90,15.0,0.0
14857,48.0,0,90,14.0,0.0
14858,79.0,0,40,11.0,0.0
14859,45.0,0,90,14.0,0.0
14860,45.0,0,30,3.0,0.0
14861,45.0,0,90,15.0,0.0
14862,84.0,32,90,11.0,0.0
14863,57.0,64,30,3.0,0.0
14864,89.0,16,30,0.0,0.0
14865,60.0,48,40,2.0,0.0
14866,64.0,32,40,2.0,0.0
14867,65.0,32,90,2.0,0.0
14868,77.0,64,30,0.0,0.0
14869,74.0,48,40,1.0,0.0
14870,58.0,16,30,3.0,0.0
14871,46.0,32,90,15.0,0.0
14872,46.0,0,90,14.0,0.0
14873,79.0,0,40,1.0,0.0
14874,76.0,32,90,1.0,0.0
14875,48.0,0,90,15.0,0.0
14876,48.0,0,90,14.0,0.0
14877,60.0,64,30,3.0,0.0
14878,77.0,0,30,0.0,0.0
14879,46.0,48,40,2.0,0.0
14880,48.0,16,30,3.0,0.0
14881,64.0,32,40,2.0,0.0
14882,55.0,0,15,2.0,0.0
14883,65.0,64,30,0.0,0.0
14884,57.0,32,90,2.0,0.0
14885,65.0,0,90,2.0,0.0
14886,41.0,0,30,3.0,0.0
14887,41.0,0,90,15.0,0.0
14888,53.0,16,30,3.0,0.0
14889,75.0,48,40,1.0,0.0
14890,72.0,0,40,1.0,0.0
14891,81.0,32,40,1.0,0.0
14892,74.0,32,90,1.0,0.0
14893,82.0,0,90,1.0,0.0
14894,46.0,64,30,3.0,0.0
14895,34.0,0,90,15.0,0.0
14896,89.0,16,30,0.0,0.0
14897,62.0,48,40,13.0,0.0
14898,63.0,32,40,13.0,0.0
14899,94.0,16,30,0.0,0.0
14900,81.0,32,150,9.0,0.0
14901,62.0,48,40,13.0,0.0
14902,60.0,32,40,13.0,0.0
14903,74.0,16,40,11.0,0.0
14904,58.0,0,40,13.0,0.0
14905,77.0,16,30,1.0,0.0
14906,60.0,32,40,13.0,0.0
14907,75.0,0,40,11.0,0.0
14908,58.0,48,40,13.0,0.0
14909,82.0,16,30,1.0,0.0
14910,74.0,0,40,11.0,0.0
14911,72.0,0,40,11.0,0.0
14912,53.0,32,40,13.0,0.0
14913,65.0,16,30,2.0,0.0
14914,70.0,48,40,11.0,0.0
14915,50.0,0,40,13.0,0.0
14916,53.0,32,40,13.0,0.0
14917,72.0,0,40,11.0,0.0
14918,70.0,48,40,11.0,0.0
14919,70.0,16,30,2.0,0.0
14920,58.0,0,90,13.0,0.0
14921,65.0,32,40,11.0,0.0
14922,62.0,48,40,11.0,0.0
14923,34.0,0,90,15.0,0.0
14924,46.0,16,30,3.0,0.0
14925,64.0,32,40,11.0,0.0
14926,41.0,64,30,3.0,0.0
14927,65.0,0,90,11.0,0.0
14928,29.0,32,90,15.0,0.0
14929,84.0,16,30,0.0,0.0
14930,57.0,48,40,14.0,0.0
14931,58.0,32,40,14.0,0.0
14932,81.0,32,150,9.0,0.0
14933,89.0,16,30,0.0,0.0
14934,57.0,48,40,14.0,0.0
14935,55.0,32,40,14.0,0.0
14936,53.0,0,40,14.0,0.0
14937,69.0,16,40,11.0,0.0
14938,72.0,16,30,1.0,0.0
14939,55.0,32,40,14.0,0.0
14940,70.0,0,40,11.0,0.0
14941,77.0,16,30,1.0,0.0
14942,69.0,0,40,11.0,0.0
14943,53.0,48,40,14.0,0.0
14944,67.0,0,40,11.0,0.0
14945,48.0,32,40,14.0,0.0
14946,65.0,48,40,11.0,0.0
14947,45.0,0,40,14.0,0.0
14948,60.0,16,30,2.0,0.0
14949,67.0,0,40,11.0,0.0
14950,48.0,32,40,14.0,0.0
14951,65.0,48,40,11.0,0.0
14952,53.0,0,90,14.0,0.0
14953,65.0,16,30,2.0,0.0
14954,63.0,32,40,11.0,0.0
14955,53.0,16,30,3.0,0.0
14956,62.0,48,40,11.0,0.0
14957,41.0,32,90,15.0,0.0
14958,65.0,0,40,11.0,0.0
14959,70.0,0,90,11.0,0.0
14960,34.0,32,90,15.0,0.0
14961,46.0,64,30,3.0,0.0
14962,86.0,16,30,0.0,0.0
14963,70.0,48,40,12.0,0.0
14964,72.0,32,40,12.0,0.0
14965,94.0,16,30,0.0,0.0
14966,70.0,48,40,12.0,0.0
14967,81.0,32,150,9.0,0.0
14968,69.0,32,40,12.0,0.0
14969,82.0,16,40,11.0,0.0
14970,74.0,16,30,1.0,0.0
14971,67.0,0,40,12.0,0.0
14972,69.0,32,40,12.0,0.0
14973,84.0,0,40,11.0,0.0
14974,82.0,48,40,11.0,0.0
14975,82.0,16,30,1.0,0.0
14976,67.0,0,40,12.0,0.0
14977,65.0,32,40,12.0,0.0
14978,81.0,0,40,11.0,0.0
14979,64.0,0,40,12.0,0.0
14980,79.0,48,40,11.0,0.0
14981,62.0,16,30,2.0,0.0
14982,67.0,32,40,12.0,0.0
14983,81.0,0,40,11.0,0.0
14984,79.0,48,40,11.0,0.0
14985,70.0,16,30,2.0,0.0
14986,72.0,0,90,12.0,0.0
14987,77.0,32,40,11.0,0.0
14988,60.0,0,30,3.0,0.0
14989,48.0,32,90,14.0,0.0
14990,48.0,0,90,15.0,0.0
14991,76.0,48,40,11.0,0.0
14992,48.0,16,30,3.0,0.0
14993,79.0,0,40,11.0,0.0
14994,45.0,0,90,15.0,0.0
14995,45.0,32,90,14.0,0.0
14996,45.0,0,30,3.0,0.0
14997,57.0,64,30,3.0,0.0
14998,84.0,0,90,11.0,0.0
14999,60.0,48,40,2.0,0.0
15000,89.0,16,30,0.0,0.0
15001,64.0,32,40,2.0,0.0
15002,77.0,64,30,0.0,0.0
15003,65.0,32,90,2.0,0.0
15004,46.0,32,90,15.0,0.0
15005,46.0,0,90,14.0,0.0
15006,74.0,48,40,1.0,0.0
15007,58.0,16,30,3.0,0.0
15008,79.0,0,40,1.0,0.0
15009,48.0,0,90,15.0,0.0
15010,76.0,0,90,1.0,0.0
15011,60.0,64,30,3.0,0.0
15012,48.0,32,90,14.0,0.0
15013,77.0,16,30,0.0,0.0
15014,46.0,0,40,2.0,0.0
15015,48.0,0,30,3.0,0.0
15016,55.0,48,40,2.0,0.0
15017,64.0,0,40,2.0,0.0
15018,55.0,32,40,2.0,0.0
15019,41.0,0,30,3.0,0.0
15020,65.0,64,30,0.0,0.0
15021,65.0,0,90,2.0,0.0
15022,57.0,32,90,2.0,0.0
15023,41.0,0,90,15.0,0.0
15024,72.0,48,40,1.0,0.0
15025,53.0,16,30,3.0,0.0
15026,75.0,0,40,1.0,0.0
15027,81.0,32,40,1.0,0.0
15028,75.0,32,90,1.0,0.0
15029,84.0,0,90,1.0,0.0
15030,30.0,0,90,15.0,0.0
15031,42.0,64,30,3.0,0.0
15032,90.0,16,30,0.0,0.0
15033,63.0,48,40,13.0,0.0
15034,65.0,32,40,13.0,0.0
15035,63.0,48,40,13.0,0.0
15036,81.0,32,150,9.0,0.0
15037,78.0,16,30,0.0,0.0
15038,61.0,32,40,13.0,0.0
15039,60.0,0,40,13.0,0.0
15040,78.0,16,30,1.0,0.0
15041,75.0,16,40,11.0,0.0
15042,77.0,0,40,11.0,0.0
15043,61.0,32,40,13.0,0.0
15044,66.0,16,30,1.0,0.0
15045,75.0,0,40,11.0,0.0
15046,60.0,48,40,13.0,0.0
15047,73.0,32,40,11.0,0.0
15048,58.0,0,40,13.0,0.0
15049,57.0,0,40,13.0,0.0
15050,72.0,48,40,11.0,0.0
15051,66.0,16,30,2.0,0.0
15052,73.0,32,40,11.0,0.0
15053,60.0,0,40,13.0,0.0
15054,63.0,0,90,13.0,0.0
15055,72.0,48,40,11.0,0.0
15056,54.0,16,30,2.0,0.0
15057,70.0,32,40,11.0,0.0
15058,41.0,32,90,15.0,0.0
15059,53.0,16,30,3.0,0.0
15060,69.0,48,40,11.0,0.0
15061,72.0,0,40,11.0,0.0
15062,75.0,0,90,11.0,0.0
15063,41.0,64,30,3.0,0.0
15064,29.0,32,90,15.0,0.0
15065,89.0,16,30,0.0,0.0
15066,63.0,48,40,13.0,0.0
15067,65.0,32,40,13.0,0.0
15068,63.0,48,40,13.0,0.0
15069,77.0,16,30,0.0,0.0
15070,81.0,32,150,9.0,0.0
15071,62.0,32,40,13.0,0.0
15072,60.0,16,40,13.0,0.0
15073,69.0,0,40,11.0,0.0
15074,77.0,16,30,1.0,0.0
15075,70.0,0,40,11.0,0.0
15076,62.0,32,40,13.0,0.0
15077,60.0,48,40,13.0,0.0
15078,65.0,16,30,1.0,0.0
15079,69.0,0,40,11.0,0.0
15080,67.0,32,40,11.0,0.0
15081,58.0,0,40,13.0,0.0
15082,65.0,16,30,2.0,0.0
15083,65.0,48,40,11.0,0.0
15084,57.0,0,40,13.0,0.0
15085,67.0,0,40,11.0,0.0
15086,60.0,32,40,13.0,0.0
15087,65.0,32,90,13.0,0.0
15088,53.0,16,30,2.0,0.0
15089,65.0,48,40,11.0,0.0
15090,63.0,0,40,11.0,0.0
15091,53.0,16,30,3.0,0.0
15092,62.0,48,40,11.0,0.0
15093,41.0,32,90,15.0,0.0
15094,65.0,0,40,11.0,0.0
15095,46.0,64,30,3.0,0.0
15096,34.0,32,90,15.0,0.0
15097,70.0,0,90,11.0,0.0
15098,68.0,48,40,13.0,0.0
15099,94.0,16,30,0.0,0.0
15100,70.0,32,40,13.0,0.0
15101,81.0,32,150,9.0,0.0
15102,82.0,16,30,0.0,0.0
15103,68.0,48,40,13.0,0.0
15104,67.0,32,40,13.0,0.0
15105,65.0,0,40,13.0,0.0
15106,82.0,16,30,1.0,0.0
15107,74.0,16,40,11.0,0.0
15108,75.0,32,40,11.0,0.0
15109,67.0,0,40,13.0,0.0
15110,74.0,0,40,11.0,0.0
15111,70.0,16,30,1.0,0.0
15112,65.0,48,40,13.0,0.0
15113,63.0,0,40,13.0,0.0
15114,72.0,32,40,11.0,0.0
15115,62.0,48,40,13.0,0.0
15116,70.0,16,30,2.0,0.0
15117,70.0,0,40,11.0,0.0
15118,72.0,32,40,11.0,0.0
15119,65.0,0,40,13.0,0.0
15120,70.0,32,90,13.0,0.0
15121,58.0,16,30,2.0,0.0
15122,70.0,48,40,11.0,0.0
15123,68.0,0,40,11.0,0.0
15124,46.0,32,90,15.0,0.0
15125,67.0,48,40,11.0,0.0
15126,58.0,0,90,14.0,0.0
15127,58.0,16,30,3.0,0.0
15128,46.0,0,30,3.0,0.0
15129,70.0,0,40,11.0,0.0
15130,51.0,0,90,14.0,0.0
15131,51.0,0,30,3.0,0.0
15132,75.0,0,90,11.0,0.0
15133,39.0,64,30,3.0,0.0
15134,39.0,32,90,15.0,0.0
15135,63.0,48,40,2.0,0.0
15136,91.0,16,30,0.0,0.0
15137,67.0,32,40,2.0,0.0
15138,84.0,64,30,0.0,0.0
15139,72.0,32,90,2.0,0.0
15140,60.0,16,30,3.0,0.0
15141,60.0,0,90,14.0,0.0
15142,69.0,46,40,1.0,0.0
15143,48.0,2,90,3.0,0.0
15144,48.0,0,90,15.0,0.0
15145,72.0,32,40,1.0,0.0
15146,53.0,32,90,14.0,0.0
15147,77.0,0,90,1.0,0.0
15148,41.0,2,90,3.0,0.0
15149,53.0,62,30,3.0,0.0
15150,41.0,0,90,15.0,0.0
15151,93.0,16,30,0.0,0.0
15152,65.0,0,40,2.0,0.0
15153,53.0,48,40,2.0,0.0
15154,69.0,0,40,2.0,0.0
15155,57.0,32,40,2.0,0.0
15156,74.0,0,90,2.0,0.0
15157,62.0,32,90,2.0,0.0
15158,86.0,64,30,0.0,0.0
15159,75.0,46,40,1.0,0.0
15160,72.0,0,40,1.0,0.0
15161,41.0,0,90,15.0,0.0
15162,53.0,16,30,3.0,0.0
15163,41.0,2,90,3.0,0.0
15164,53.0,32,90,14.0,0.0
15165,81.0,0,40,1.0,0.0
15166,84.0,0,90,1.0,0.0
15167,75.0,32,90,1.0,0.0
15168,42.0,64,30,3.0,0.0
15169,30.0,0,90,15.0,0.0
15170,90.0,16,30,0.0,0.0
15171,63.0,48,40,13.0,0.0
15172,65.0,32,40,13.0,0.0
15173,78.0,16,30,0.0,0.0
15174,81.0,32,150,9.0,0.0
15175,63.0,48,40,13.0,0.0
15176,61.0,32,40,13.0,0.0
15177,75.0,16,40,11.0,0.0
15178,78.0,16,30,1.0,0.0
15179,60.0,0,40,13.0,0.0
15180,61.0,0,40,13.0,0.0
15181,77.0,32,40,11.0,0.0
15182,60.0,0,40,13.0,0.0
15183,66.0,16,30,1.0,0.0
15184,75.0,48,40,11.0,0.0
15185,58.0,0,40,13.0,0.0
15186,73.0,32,40,11.0,0.0
15187,72.0,48,40,11.0,0.0
15188,57.0,0,40,13.0,0.0
15189,66.0,16,30,2.0,0.0
15190,60.0,0,40,13.0,0.0
15191,73.0,32,40,11.0,0.0
15192,72.0,48,40,11.0,0.0
15193,54.0,16,30,2.0,0.0
15194,63.0,32,90,13.0,0.0
15195,70.0,0,40,11.0,0.0
15196,53.0,16,30,3.0,0.0
15197,41.0,32,90,15.0,0.0
15198,69.0,48,40,11.0,0.0
15199,72.0,0,40,11.0,0.0
15200,29.0,0,90,15.0,0.0
15201,75.0,32,90,11.0,0.0
15202,41.0,64,30,3.0,0.0
15203,63.0,48,40,13.0,0.0
15204,89.0,16,30,0.0,0.0
15205,65.0,32,40,13.0,0.0
15206,63.0,48,40,13.0,0.0
15207,81.0,32,150,9.0,0.0
15208,77.0,16,30,0.0,0.0
15209,62.0,32,40,13.0,0.0
15210,69.0,0,40,11.0,0.0
15211,60.0,16,40,13.0,0.0
15212,77.0,16,30,1.0,0.0
15213,62.0,0,40,13.0,0.0
15214,70.0,32,40,11.0,0.0
15215,60.0,48,40,13.0,0.0
15216,65.0,16,30,1.0,0.0
15217,69.0,0,40,11.0,0.0
15218,67.0,0,40,11.0,0.0
15219,58.0,32,40,13.0,0.0
15220,65.0,48,40,11.0,0.0
15221,65.0,16,30,2.0,0.0
15222,57.0,0,40,13.0,0.0
15223,60.0,0,40,13.0,0.0
15224,67.0,32,40,11.0,0.0
15225,65.0,0,90,13.0,0.0
15226,53.0,16,30,2.0,0.0
15227,65.0,48,40,11.0,0.0
15228,63.0,32,40,11.0,0.0
15229,53.0,16,30,3.0,0.0
15230,62.0,48,40,11.0,0.0
15231,41.0,32,90,15.0,0.0
15232,65.0,0,40,11.0,0.0
15233,46.0,64,30,3.0,0.0
15234,34.0,0,90,15.0,0.0
15235,70.0,32,90,11.0,0.0
15236,68.0,48,40,13.0,0.0
15237,94.0,16,30,0.0,0.0
15238,70.0,32,40,13.0,0.0
15239,81.0,32,150,9.0,0.0
15240,68.0,48,40,13.0,0.0
15241,82.0,16,30,0.0,0.0
15242,67.0,32,40,13.0,0.0
15243,82.0,16,30,1.0,0.0
15244,74.0,0,40,11.0,0.0
15245,65.0,16,40,13.0,0.0
15246,67.0,32,40,13.0,0.0
15247,75.0,0,40,11.0,0.0
15248,65.0,48,40,13.0,0.0
15249,70.0,16,30,1.0,0.0
15250,74.0,0,40,11.0,0.0
15251,72.0,32,40,11.0,0.0
15252,63.0,0,40,13.0,0.0
15253,62.0,0,40,13.0,0.0
15254,70.0,48,40,11.0,0.0
15255,70.0,16,30,2.0,0.0
15256,65.0,0,40,13.0,0.0
15257,72.0,32,40,11.0,0.0
15258,58.0,16,30,2.0,0.0
15259,70.0,32,90,13.0,0.0
15260,70.0,48,40,11.0,0.0
15261,68.0,0,40,11.0,0.0
15262,58.0,16,30,3.0,0.0
15263,67.0,48,40,11.0,0.0
15264,46.0,0,30,3.0,0.0
15265,46.0,0,90,15.0,0.0
15266,58.0,32,90,14.0,0.0
15267,70.0,0,40,11.0,0.0
15268,39.0,64,30,3.0,0.0
15269,39.0,32,90,15.0,0.0
15270,75.0,0,90,11.0,0.0
15271,51.0,0,30,3.0,0.0
15272,51.0,0,90,14.0,0.0
15273,91.0,16,30,0.0,0.0
15274,63.0,48,40,2.0,0.0
15275,67.0,32,40,2.0,0.0
15276,72.0,32,90,2.0,0.0
15277,84.0,64,30,0.0,0.0
15278,69.0,46,40,1.0,0.0
15279,48.0,0,90,15.0,0.0
15280,60.0,16,30,3.0,0.0
15281,48.0,2,90,3.0,0.0
15282,60.0,32,90,14.0,0.0
15283,72.0,0,40,1.0,0.0
15284,41.0,32,90,15.0,0.0
15285,77.0,0,90,1.0,0.0
15286,53.0,0,90,14.0,0.0
15287,41.0,62,30,3.0,0.0
15288,53.0,48,40,2.0,0.0
15289,65.0,0,40,2.0,0.0
15290,93.0,16,30,0.0,0.0
15291,57.0,0,40,2.0,0.0
15292,69.0,32,40,2.0,0.0
15293,86.0,64,30,0.0,0.0
15294,62.0,0,90,2.0,0.0
15295,74.0,48,90,2.0,0.0
15296,72.0,48,40,1.0,0.0
15297,53.0,0,90,14.0,0.0
15298,41.0,0,90,15.0,0.0
15299,75.0,0,40,1.0,0.0
15300,81.0,32,40,1.0,0.0
15301,34.0,32,90,15.0,0.0
15302,82.0,64,30,0.0,0.0
15303,74.0,0,30,0.0,0.0
15304,74.0,0,30,0.0,0.0
15305,82.0,96,30,0.0,0.0
15306,60.0,32,180,13.0,0.0
15307,77.0,96,30,0.0,0.0
15308,53.0,0,180,14.0,0.0
15309,77.0,64,30,0.0,0.0
15310,62.0,32,180,13.0,0.0
15311,70.0,96,30,0.0,0.0
15312,58.0,0,180,14.0,0.0
15313,70.0,64,30,0.0,0.0
15314,65.0,64,30,0.0,0.0
15315,60.0,0,90,14.0,0.0
15316,63.0,96,90,13.0,0.0
15317,41.0,96,90,15.0,0.0
15318,34.0,32,90,15.0,0.0
15319,89.0,96,30,0.0,0.0
15320,62.0,0,180,13.0,0.0
15321,53.0,32,180,14.0,0.0
15322,82.0,96,30,0.0,0.0
15323,82.0,64,30,0.0,0.0
15324,60.0,32,180,14.0,0.0
15325,63.0,0,180,13.0,0.0
15326,77.0,96,30,0.0,0.0
15327,77.0,64,30,0.0,0.0
15328,65.0,0,90,13.0,0.0
15329,62.0,96,90,14.0,0.0
15330,70.0,64,30,0.0,0.0
15331,46.0,96,90,15.0,0.0
15332,39.0,32,90,15.0,0.0
15333,94.0,96,30,0.0,0.0
15334,87.0,96,30,0.0,0.0
15335,67.0,0,180,11.0,0.0
15336,58.0,32,180,12.0,0.0
15337,87.0,64,30,0.0,0.0
15338,65.0,0,180,12.0,0.0
15339,68.0,32,180,11.0,0.0
15340,82.0,96,30,0.0,0.0
15341,82.0,64,30,0.0,0.0
15342,75.0,64,30,0.0,0.0
15343,70.0,96,90,11.0,0.0
15344,67.0,0,90,12.0,0.0
15345,39.0,96,90,15.0,0.0
15346,41.0,32,90,15.0,0.0
15347,89.0,96,30,0.0,0.0
15348,82.0,96,30,0.0,0.0
15349,65.0,0,180,13.0,0.0
15350,53.0,0,180,14.0,0.0
15351,62.0,32,180,14.0,0.0
15352,82.0,64,30,0.0,0.0
15353,62.0,0,180,13.0,0.0
15354,58.0,32,180,14.0,0.0
15355,77.0,96,30,0.0,0.0
15356,77.0,64,30,0.0,0.0
15357,53.0,0,90,14.0,0.0
15358,65.0,64,30,0.0,0.0
15359,60.0,96,90,13.0,0.0
15360,41.0,96,90,15.0,0.0
15361,34.0,32,90,15.0,0.0
15362,82.0,96,30,0.0,0.0
15363,60.0,32,180,13.0,0.0
15364,53.0,0,180,14.0,0.0
15365,77.0,96,30,0.0,0.0
15366,77.0,64,30,0.0,0.0
15367,62.0,0,180,13.0,0.0
15368,70.0,96,30,0.0,0.0
15369,58.0,32,180,14.0,0.0
15370,70.0,64,30,0.0,0.0
15371,60.0,0,90,14.0,0.0
15372,65.0,64,30,0.0,0.0
15373,63.0,96,90,13.0,0.0
15374,41.0,96,90,15.0,0.0
15375,34.0,32,90,15.0,0.0
15376,89.0,96,30,0.0,0.0
15377,82.0,96,30,0.0,0.0
15378,62.0,0,180,13.0,0.0
15379,53.0,32,180,14.0,0.0
15380,82.0,64,30,0.0,0.0
15381,77.0,96,30,0.0,0.0
15382,60.0,32,180,14.0,0.0
15383,63.0,0,180,13.0,0.0
15384,77.0,64,30,0.0,0.0
15385,65.0,0,90,13.0,0.0
15386,65.0,64,30,0.0,0.0
15387,62.0,96,90,14.0,0.0
15388,46.0,96,90,15.0,0.0
15389,39.0,32,90,15.0,0.0
15390,94.0,96,30,0.0,0.0
15391,87.0,96,30,0.0,0.0
15392,58.0,32,180,12.0,0.0
15393,67.0,0,180,11.0,0.0
15394,87.0,64,30,0.0,0.0
15395,65.0,0,180,12.0,0.0
15396,68.0,32,180,11.0,0.0
15397,82.0,96,30,0.0,0.0
15398,82.0,64,30,0.0,0.0
15399,75.0,64,30,0.0,0.0
15400,67.0,0,90,12.0,0.0
15401,70.0,96,90,11.0,0.0
15402,39.0,96,90,15.0,0.0
15403,41.0,32,90,15.0,0.0
15404,89.0,96,30,0.0,0.0
15405,82.0,96,30,0.0,0.0
15406,65.0,32,180,13.0,0.0
15407,62.0,0,180,14.0,0.0
15408,53.0,0,180,14.0,0.0
15409,82.0,64,30,0.0,0.0
15410,58.0,0,180,14.0,0.0
15411,77.0,96,30,0.0,0.0
15412,62.0,32,180,13.0,0.0
15413,77.0,64,30,0.0,0.0
15414,53.0,96,90,14.0,0.0
15415,60.0,0,90,13.0,0.0
15416,65.0,64,30,0.0,0.0
15417,29.0,96,90,15.0,0.0
15418,41.0,32,90,15.0,0.0
15419,87.0,96,30,0.0,0.0
15420,60.0,0,180,13.0,0.0
15421,84.0,96,30,0.0,0.0
15422,53.0,32,180,14.0,0.0
15423,84.0,64,30,0.0,0.0
15424,61.0,0,180,13.0,0.0
15425,78.0,96,30,0.0,0.0
15426,58.0,32,180,14.0,0.0
15427,78.0,64,30,0.0,0.0
15428,77.0,64,30,0.0,0.0
15429,53.0,96,90,14.0,0.0
15430,60.0,0,90,13.0,0.0
15431,29.0,96,90,15.0,0.0
15432,44.0,32,90,14.0,0.0
15433,32.0,0,90,15.0,0.0
15434,87.0,96,30,0.0,0.0
15435,84.0,96,30,0.0,0.0
15436,60.0,32,390,13.0,0.0
15437,56.0,32,180,14.0,0.0
15438,84.0,64,30,0.0,0.0
15439,63.0,0,180,14.0,0.0
15440,78.0,96,30,0.0,0.0
15441,78.0,64,30,0.0,0.0
15442,77.0,64,30,0.0,0.0
15443,61.0,96,90,14.0,0.0
15444,56.0,0,90,13.0,0.0
15445,32.0,96,90,15.0,0.0
15446,34.0,0,90,15.0,0.0
15447,46.0,32,90,14.0,0.0
15448,92.0,96,30,0.0,0.0
15449,62.0,32,180,12.0,0.0
15450,89.0,96,30,0.0,0.0
15451,58.0,32,390,14.0,0.0
15452,89.0,64,30,0.0,0.0
15453,68.0,0,180,12.0,0.0
15454,83.0,96,30,0.0,0.0
15455,83.0,64,30,0.0,0.0
15456,82.0,96,30,0.0,0.0
15457,67.0,0,390,12.0,0.0
15458,94.0,96,30,0.0,0.0
15459,87.0,96,30,0.0,0.0
15460,75.0,32,180,11.0,0.0
15461,87.0,64,30,0.0,0.0
15462,82.0,96,30,0.0,0.0
15463,65.0,0,180,12.0,0.0
15464,70.0,0,15,12.0,0.0
15465,74.0,0,180,11.0,0.0
15466,82.0,64,30,0.0,0.0
15467,77.0,96,30,0.0,0.0
15468,72.0,32,180,11.0,0.0
15469,69.0,0,180,12.0,0.0
15470,63.0,0,180,12.0,0.0
15471,77.0,64,30,0.0,0.0
15472,70.0,64,30,0.0,0.0
15473,62.0,96,90,12.0,0.0
15474,65.0,0,90,11.0,0.0
15475,29.0,96,90,15.0,0.0
15476,41.0,32,90,15.0,0.0
15477,87.0,96,30,0.0,0.0
15478,84.0,96,30,0.0,0.0
15479,53.0,0,180,14.0,0.0
15480,60.0,32,180,13.0,0.0
15481,84.0,64,30,0.0,0.0
15482,58.0,32,180,14.0,0.0
15483,61.0,0,180,13.0,0.0
15484,78.0,96,30,0.0,0.0
15485,78.0,64,30,0.0,0.0
15486,60.0,0,90,13.0,0.0
15487,77.0,64,30,0.0,0.0
15488,53.0,96,90,14.0,0.0
15489,29.0,96,90,15.0,0.0
15490,44.0,0,90,14.0,0.0
15491,32.0,32,90,15.0,0.0
15492,87.0,96,30,0.0,0.0
15493,84.0,96,30,0.0,0.0
15494,56.0,32,180,14.0,0.0
15495,60.0,0,390,13.0,0.0
15496,84.0,64,30,0.0,0.0
15497,78.0,96,30,0.0,0.0
15498,63.0,32,180,14.0,0.0
15499,78.0,64,30,0.0,0.0
15500,61.0,0,90,14.0,0.0
15501,56.0,96,90,13.0,0.0
15502,77.0,64,30,0.0,0.0
15503,32.0,96,90,15.0,0.0
15504,46.0,0,90,14.0,0.0
15505,34.0,32,90,15.0,0.0
15506,92.0,96,30,0.0,0.0
15507,62.0,32,180,12.0,0.0
15508,89.0,96,30,0.0,0.0
15509,58.0,0,390,14.0,0.0
15510,89.0,64,30,0.0,0.0
15511,83.0,96,30,0.0,0.0
15512,68.0,32,180,12.0,0.0
15513,83.0,64,30,0.0,0.0
15514,67.0,0,390,12.0,0.0
15515,82.0,96,30,0.0,0.0
15516,94.0,96,30,0.0,0.0
15517,87.0,96,30,0.0,0.0
15518,75.0,32,180,11.0,0.0
15519,87.0,64,30,0.0,0.0
15520,70.0,0,15,12.0,0.0
15521,65.0,0,180,12.0,0.0
15522,74.0,0,180,11.0,0.0
15523,82.0,96,30,0.0,0.0
15524,82.0,64,30,0.0,0.0
15525,77.0,96,30,0.0,0.0
15526,72.0,32,180,11.0,0.0
15527,69.0,0,180,12.0,0.0
15528,63.0,0,180,12.0,0.0
15529,77.0,64,30,0.0,0.0
15530,62.0,0,90,12.0,0.0
15531,70.0,64,30,0.0,0.0
15532,65.0,480,90,11.0,0.0
15533,46.0,0,90,14.0,0.0
15534,82.0,0,40,0.0,0.0
15535,82.0,48,40,11.0,0.0
15536,50.0,0,180,14.0,0.0
15537,58.0,0,180,12.0,0.0
15538,94.0,0,40,0.0,0.0
15539,94.0,48,40,11.0,0.0
15540,89.0,48,40,0.0,0.0
15541,89.0,0,40,11.0,0.0
15542,86.0,0,40,11.0,0.0
15543,86.0,48,40,0.0,0.0
15544,82.0,48,40,11.0,0.0
15545,82.0,0,40,0.0,0.0
15546,81.0,48,40,11.0,0.0
15547,81.0,0,40,0.0,0.0
15548,60.0,48,150,12.0,0.0
15549,53.0,0,150,14.0,0.0
15550,77.0,48,40,0.0,0.0
15551,77.0,0,40,11.0,0.0
15552,75.0,0,40,11.0,0.0
15553,75.0,0,40,0.0,0.0
15554,72.0,48,40,0.0,0.0
15555,72.0,0,40,11.0,0.0
15556,70.0,0,40,11.0,0.0
15557,58.0,0,180,14.0,0.0
15558,70.0,0,40,13.0,0.0
15559,70.0,48,40,0.0,0.0
15560,62.0,0,180,12.0,0.0
15561,65.0,48,40,11.0,0.0
15562,65.0,0,40,13.0,0.0
15563,65.0,0,40,0.0,0.0
15564,62.0,48,40,11.0,0.0
15565,62.0,0,40,13.0,0.0
15566,62.0,0,40,0.0,0.0
15567,58.0,0,40,13.0,0.0
15568,58.0,48,40,0.0,0.0
15569,58.0,0,40,11.0,0.0
15570,55.0,48,40,13.0,0.0
15571,63.0,48,90,12.0,0.0
15572,51.0,0,90,14.0,0.0
15573,55.0,0,40,11.0,0.0
15574,55.0,0,40,2.0,0.0
15575,58.0,0,40,13.0,0.0
15576,58.0,0,40,11.0,0.0
15577,58.0,0,40,2.0,0.0
15578,41.0,0,40,14.0,0.0
15579,41.0,48,40,2.0,0.0
15580,53.0,0,40,14.0,0.0
15581,53.0,48,40,2.0,0.0
15582,70.0,0,180,12.0,0.0
15583,74.0,48,180,0.0,0.0
15584,74.0,0,180,11.0,0.0
15585,65.0,48,40,14.0,0.0
15586,65.0,0,40,2.0,0.0
15587,62.0,48,40,14.0,0.0
15588,62.0,0,40,2.0,0.0
15589,58.0,0,40,2.0,0.0
15590,58.0,48,40,14.0,0.0
15591,53.0,0,40,14.0,0.0
15592,53.0,0,40,2.0,0.0
15593,72.0,0,150,0.0,0.0
15594,51.0,0,40,14.0,0.0
15595,72.0,0,150,11.0,0.0
15596,69.0,48,150,12.0,0.0
15597,51.0,48,40,2.0,0.0
15598,48.0,48,40,14.0,0.0
15599,48.0,0,40,2.0,0.0
15600,45.0,0,40,2.0,0.0
15601,45.0,0,40,15.0,0.0
15602,41.0,0,40,15.0,0.0
15603,41.0,48,40,2.0,0.0
15604,74.0,0,180,11.0,0.0
15605,74.0,48,180,0.0,0.0
15606,29.0,48,40,15.0,0.0
15607,70.0,0,180,12.0,0.0
15608,41.0,48,40,15.0,0.0
15609,46.0,0,40,14.0,0.0
15610,46.0,48,40,2.0,0.0
15611,50.0,0,40,14.0,0.0
15612,50.0,0,40,2.0,0.0
15613,53.0,48,40,14.0,0.0
15614,53.0,0,40,2.0,0.0
15615,72.0,0,90,12.0,0.0
15616,75.0,0,90,11.0,0.0
15617,75.0,0,90,0.0,0.0
15618,57.0,96,40,2.0,0.0
15619,57.0,0,40,14.0,0.0
15620,46.0,0,90,15.0,0.0
15621,86.0,48,40,0.0,0.0
15622,86.0,0,40,11.0,0.0
15623,58.0,0,180,14.0,0.0
15624,98.0,48,40,11.0,0.0
15625,62.0,0,180,12.0,0.0
15626,98.0,0,40,0.0,0.0
15627,94.0,0,40,11.0,0.0
15628,94.0,48,40,0.0,0.0
15629,89.0,0,40,0.0,0.0
15630,89.0,48,40,11.0,0.0
15631,86.0,0,40,0.0,0.0
15632,86.0,48,40,11.0,0.0
15633,57.0,0,150,14.0,0.0
15634,84.0,0,40,0.0,0.0
15635,63.0,0,150,12.0,0.0
15636,84.0,48,40,11.0,0.0
15637,81.0,48,40,0.0,0.0
15638,81.0,0,40,11.0,0.0
15639,77.0,48,40,11.0,0.0
15640,77.0,0,40,0.0,0.0
15641,75.0,48,40,0.0,0.0
15642,75.0,0,40,11.0,0.0
15643,74.0,0,40,0.0,0.0
15644,74.0,48,40,11.0,0.0
15645,56.0,0,180,14.0,0.0
15646,65.0,48,180,12.0,0.0
15647,70.0,48,40,11.0,0.0
15648,70.0,0,40,0.0,0.0
15649,65.0,48,40,0.0,0.0
15650,65.0,0,40,11.0,0.0
15651,62.0,0,40,11.0,0.0
15652,62.0,0,40,0.0,0.0
15653,55.0,48,90,14.0,0.0
15654,58.0,48,40,11.0,0.0
15655,58.0,0,40,2.0,0.0
15656,67.0,0,90,12.0,0.0
15657,63.0,0,40,2.0,0.0
15658,63.0,0,40,11.0,0.0
15659,53.0,0,40,2.0,0.0
15660,53.0,48,40,13.0,0.0
15661,58.0,48,40,2.0,0.0
15662,58.0,0,40,13.0,0.0
15663,70.0,48,40,13.0,0.0
15664,74.0,0,180,0.0,0.0
15665,77.0,0,180,0.0,0.0
15666,77.0,0,180,11.0,0.0
15667,70.0,0,40,2.0,0.0
15668,74.0,0,180,12.0,0.0
15669,65.0,0,40,2.0,0.0
15670,65.0,48,40,13.0,0.0
15671,62.0,0,40,2.0,0.0
15672,62.0,48,40,13.0,0.0
15673,58.0,48,40,2.0,0.0
15674,58.0,0,40,13.0,0.0
15675,74.0,0,150,0.0,0.0
15676,70.0,0,150,0.0,0.0
15677,70.0,0,150,12.0,0.0
15678,53.0,48,40,13.0,0.0
15679,53.0,0,40,14.0,0.0
15680,74.0,0,150,11.0,0.0
15681,53.0,0,40,2.0,0.0
15682,50.0,0,40,14.0,0.0
15683,50.0,48,40,2.0,0.0
15684,46.0,0,40,14.0,0.0
15685,46.0,48,40,2.0,0.0
15686,41.0,0,40,14.0,0.0
15687,41.0,48,40,2.0,0.0
15688,69.0,0,180,0.0,0.0
15689,72.0,0,180,11.0,0.0
15690,29.0,48,40,15.0,0.0
15691,69.0,0,180,12.0,0.0
15692,72.0,48,180,0.0,0.0
15693,41.0,48,40,15.0,0.0
15694,45.0,0,40,2.0,0.0
15695,45.0,48,40,14.0,0.0
15696,48.0,0,40,2.0,0.0
15697,48.0,0,40,14.0,0.0
15698,53.0,0,40,2.0,0.0
15699,63.0,0,90,12.0,0.0
15700,53.0,48,40,14.0,0.0
15701,63.0,0,90,0.0,0.0
15702,77.0,0,90,0.0,0.0
15703,77.0,0,90,11.0,0.0
15704,57.0,96,40,14.0,0.0
15705,57.0,0,40,2.0,0.0
15706,46.0,0,90,15.0,0.0
15707,82.0,0,40,11.0,0.0
15708,82.0,48,40,0.0,0.0
15709,94.0,0,40,11.0,0.0
15710,58.0,0,180,12.0,0.0
15711,50.0,0,180,14.0,0.0
15712,94.0,48,40,0.0,0.0
15713,89.0,48,40,11.0,0.0
15714,89.0,0,40,0.0,0.0
15715,86.0,48,40,0.0,0.0
15716,86.0,0,40,11.0,0.0
15717,82.0,48,40,0.0,0.0
15718,82.0,0,40,11.0,0.0
15719,81.0,0,40,11.0,0.0
15720,60.0,0,150,12.0,0.0
15721,53.0,48,150,14.0,0.0
15722,81.0,48,40,0.0,0.0
15723,77.0,0,40,0.0,0.0
15724,77.0,48,40,11.0,0.0
15725,75.0,0,40,11.0,0.0
15726,75.0,0,40,0.0,0.0
15727,72.0,48,40,0.0,0.0
15728,72.0,0,40,11.0,0.0
15729,62.0,0,180,12.0,0.0
15730,70.0,0,40,11.0,0.0
15731,58.0,48,180,14.0,0.0
15732,70.0,0,40,13.0,0.0
15733,70.0,48,40,0.0,0.0
15734,65.0,0,40,11.0,0.0
15735,65.0,48,40,13.0,0.0
15736,65.0,0,40,0.0,0.0
15737,62.0,0,40,11.0,0.0
15738,62.0,48,40,13.0,0.0
15739,62.0,0,40,0.0,0.0
15740,58.0,0,40,11.0,0.0
15741,58.0,0,40,13.0,0.0
15742,58.0,0,40,0.0,0.0
15743,55.0,0,40,13.0,0.0
15744,51.0,0,90,14.0,0.0
15745,55.0,0,40,2.0,0.0
15746,63.0,48,90,12.0,0.0
15747,55.0,48,40,11.0,0.0
15748,58.0,0,40,2.0,0.0
15749,58.0,0,40,11.0,0.0
15750,58.0,0,40,13.0,0.0
15751,41.0,48,40,2.0,0.0
15752,41.0,0,40,14.0,0.0
15753,53.0,0,40,14.0,0.0
15754,53.0,48,40,2.0,0.0
15755,65.0,0,40,14.0,0.0
15756,74.0,0,180,11.0,0.0
15757,70.0,0,180,12.0,0.0
15758,65.0,48,40,2.0,0.0
15759,74.0,0,180,0.0,0.0
15760,62.0,48,40,14.0,0.0
15761,62.0,0,40,2.0,0.0
15762,58.0,0,40,14.0,0.0
15763,58.0,48,40,2.0,0.0
15764,53.0,48,40,14.0,0.0
15765,53.0,0,40,2.0,0.0
15766,72.0,0,150,0.0,0.0
15767,72.0,48,150,11.0,0.0
15768,51.0,48,40,2.0,0.0
15769,69.0,0,150,12.0,0.0
15770,51.0,0,40,14.0,0.0
15771,48.0,0,40,14.0,0.0
15772,48.0,48,40,2.0,0.0
15773,45.0,0,40,15.0,0.0
15774,45.0,0,40,2.0,0.0
15775,41.0,48,40,15.0,0.0
15776,41.0,0,40,2.0,0.0
15777,29.0,48,40,15.0,0.0
15778,74.0,0,180,0.0,0.0
15779,70.0,0,180,12.0,0.0
15780,74.0,48,180,11.0,0.0
15781,41.0,48,40,15.0,0.0
15782,46.0,0,40,14.0,0.0
15783,46.0,48,40,2.0,0.0
15784,50.0,0,40,14.0,0.0
15785,50.0,0,40,2.0,0.0
15786,72.0,0,90,12.0,0.0
15787,53.0,0,40,2.0,0.0
15788,53.0,48,40,14.0,0.0
15789,75.0,96,90,11.0,0.0
15790,75.0,0,90,0.0,0.0
15791,57.0,0,40,2.0,0.0
15792,57.0,0,40,14.0,0.0
15793,46.0,0,90,15.0,0.0
15794,86.0,0,40,0.0,0.0
15795,86.0,48,40,11.0,0.0
15796,98.0,0,40,11.0,0.0
15797,58.0,0,180,14.0,0.0
15798,62.0,0,180,12.0,0.0
15799,98.0,48,40,0.0,0.0
15800,94.0,0,40,11.0,0.0
15801,94.0,48,40,0.0,0.0
15802,89.0,48,40,11.0,0.0
15803,89.0,0,40,0.0,0.0
15804,86.0,48,40,0.0,0.0
15805,86.0,0,40,11.0,0.0
15806,84.0,48,40,11.0,0.0
15807,57.0,0,150,14.0,0.0
15808,84.0,0,40,0.0,0.0
15809,63.0,0,150,12.0,0.0
15810,81.0,0,40,0.0,0.0
15811,81.0,48,40,11.0,0.0
15812,77.0,0,40,0.0,0.0
15813,77.0,48,40,11.0,0.0
15814,75.0,0,40,0.0,0.0
15815,75.0,48,40,11.0,0.0
15816,74.0,48,40,11.0,0.0
15817,56.0,48,180,14.0,0.0
15818,74.0,0,40,0.0,0.0
15819,65.0,0,180,12.0,0.0
15820,70.0,0,40,11.0,0.0
15821,70.0,48,40,0.0,0.0
15822,65.0,48,40,11.0,0.0
15823,65.0,0,40,0.0,0.0
15824,62.0,0,40,11.0,0.0
15825,62.0,0,40,0.0,0.0
15826,58.0,48,40,2.0,0.0
15827,55.0,0,90,14.0,0.0
15828,67.0,0,90,12.0,0.0
15829,58.0,0,40,11.0,0.0
15830,63.0,48,40,11.0,0.0
15831,63.0,0,40,2.0,0.0
15832,53.0,48,40,2.0,0.0
15833,53.0,0,40,13.0,0.0
15834,58.0,48,40,13.0,0.0
15835,58.0,0,40,2.0,0.0
15836,77.0,0,180,11.0,0.0
15837,74.0,48,180,12.0,0.0
15838,74.0,0,180,0.0,0.0
15839,77.0,0,180,0.0,0.0
15840,70.0,0,40,2.0,0.0
15841,70.0,48,40,13.0,0.0
15842,65.0,48,40,2.0,0.0
15843,65.0,0,40,13.0,0.0
15844,62.0,48,40,13.0,0.0
15845,62.0,0,40,2.0,0.0
15846,58.0,0,40,2.0,0.0
15847,58.0,0,40,13.0,0.0
15848,53.0,0,40,13.0,0.0
15849,53.0,0,40,14.0,0.0
15850,70.0,0,150,0.0,0.0
15851,53.0,0,40,2.0,0.0
15852,74.0,48,150,11.0,0.0
15853,70.0,0,150,12.0,0.0
15854,74.0,0,150,0.0,0.0
15855,50.0,0,40,14.0,0.0
15856,50.0,48,40,2.0,0.0
15857,46.0,0,40,2.0,0.0
15858,46.0,0,40,14.0,0.0
15859,41.0,0,40,2.0,0.0
15860,41.0,48,40,14.0,0.0
15861,69.0,0,180,12.0,0.0
15862,72.0,0,180,0.0,0.0
15863,72.0,48,180,11.0,0.0
15864,29.0,48,40,15.0,0.0
15865,69.0,0,180,0.0,0.0
15866,41.0,48,40,15.0,0.0
15867,45.0,0,40,2.0,0.0
15868,45.0,48,40,14.0,0.0
15869,48.0,0,40,2.0,0.0
15870,48.0,0,40,14.0,0.0
15871,63.0,0,90,12.0,0.0
15872,53.0,48,40,14.0,0.0
15873,77.0,0,90,0.0,0.0
15874,77.0,96,90,11.0,0.0
15875,57.0,0,40,14.0,0.0
15876,41.0,0,90,15.0,0.0
15877,77.0,0,40,0.0,0.0
15878,77.0,48,40,11.0,0.0
15879,89.0,0,40,0.0,0.0
15880,89.0,48,40,11.0,0.0
15881,60.0,0,180,12.0,0.0
15882,53.0,0,180,14.0,0.0
15883,87.0,0,40,0.0,0.0
15884,87.0,48,40,11.0,0.0
15885,81.0,48,40,0.0,0.0
15886,81.0,0,40,11.0,0.0
15887,77.0,0,40,11.0,0.0
15888,77.0,48,40,0.0,0.0
15889,61.0,48,150,12.0,0.0
15890,73.0,48,40,11.0,0.0
15891,58.0,0,150,14.0,0.0
15892,73.0,0,40,0.0,0.0
15893,70.0,48,40,0.0,0.0
15894,70.0,0,40,11.0,0.0
15895,65.0,0,40,11.0,0.0
15896,65.0,0,40,0.0,0.0
15897,61.0,0,40,11.0,0.0
15898,61.0,48,40,0.0,0.0
15899,61.0,0,180,13.0,0.0
15900,65.0,0,180,12.0,0.0
15901,58.0,48,40,2.0,0.0
15902,58.0,0,40,14.0,0.0
15903,53.0,48,40,14.0,0.0
15904,53.0,0,40,2.0,0.0
15905,49.0,48,40,14.0,0.0
15906,49.0,0,40,2.0,0.0
15907,46.0,48,40,2.0,0.0
15908,46.0,0,40,14.0,0.0
15909,60.0,0,90,13.0,0.0
15910,45.0,0,40,14.0,0.0
15911,45.0,48,40,2.0,0.0
15912,63.0,0,90,12.0,0.0
15913,53.0,0,40,2.0,0.0
15914,53.0,48,40,14.0,0.0
15915,44.0,0,40,2.0,0.0
15916,44.0,48,40,14.0,0.0
15917,56.0,0,40,14.0,0.0
15918,56.0,48,40,2.0,0.0
15919,68.0,0,40,13.0,0.0
15920,84.0,48,180,11.0,0.0
15921,75.0,0,180,12.0,0.0
15922,68.0,48,40,2.0,0.0
15923,84.0,0,180,0.0,0.0
15924,66.0,48,40,13.0,0.0
15925,66.0,0,40,2.0,0.0
15926,63.0,0,40,2.0,0.0
15927,63.0,48,40,13.0,0.0
15928,60.0,0,40,13.0,0.0
15929,60.0,0,40,2.0,0.0
15930,56.0,0,40,13.0,0.0
15931,56.0,48,40,2.0,0.0
15932,85.0,0,150,0.0,0.0
15933,77.0,0,390,12.0,0.0
15934,85.0,0,150,11.0,0.0
15935,53.0,0,40,2.0,0.0
15936,53.0,48,40,13.0,0.0
15937,49.0,48,40,2.0,0.0
15938,49.0,0,40,14.0,0.0
15939,44.0,0,40,14.0,0.0
15940,45.0,48,40,2.0,0.0
15941,89.0,48,180,11.0,0.0
15942,82.0,96,300,12.0,0.0
15943,89.0,0,180,0.0,0.0
15944,42.0,48,40,14.0,0.0
15945,42.0,0,40,2.0,0.0
15946,54.0,48,40,14.0,0.0
15947,54.0,0,40,2.0,0.0
15948,54.0,0,40,13.0,0.0
15949,58.0,0,40,13.0,0.0
15950,58.0,48,40,2.0,0.0
15951,61.0,0,40,13.0,0.0
15952,61.0,0,40,2.0,0.0
15953,88.0,0,90,0.0,0.0
15954,88.0,0,90,11.0,0.0
15955,60.0,48,40,2.0,0.0
15956,76.0,0,90,12.0,0.0
15957,60.0,0,40,13.0,0.0
15958,48.0,0,40,2.0,0.0
15959,48.0,0,40,13.0,0.0
15960,41.0,0,90,14.0,0.0
15961,89.0,0,40,0.0,0.0
15962,89.0,48,40,11.0,0.0
15963,53.0,0,180,14.0,0.0
15964,62.0,0,180,13.0,0.0
15965,101.0,48,40,11.0,0.0
15966,101.0,0,40,0.0,0.0
15967,65.0,0,180,12.0,0.0
15968,98.0,48,40,11.0,0.0
15969,98.0,0,40,0.0,0.0
15970,94.0,0,40,11.0,0.0
15971,94.0,48,40,0.0,0.0
15972,89.0,48,40,11.0,0.0
15973,89.0,0,40,0.0,0.0
15974,88.0,48,40,11.0,0.0
15975,88.0,0,40,0.0,0.0
15976,67.0,0,150,12.0,0.0
15977,61.0,0,150,14.0,0.0
15978,82.0,48,40,0.0,0.0
15979,82.0,0,40,11.0,0.0
15980,79.0,48,40,0.0,0.0
15981,79.0,0,40,11.0,0.0
15982,76.0,0,40,11.0,0.0
15983,76.0,48,40,0.0,0.0
15984,75.0,48,40,11.0,0.0
15985,75.0,0,40,0.0,0.0
15986,69.0,0,180,12.0,0.0
15987,60.0,48,180,14.0,0.0
15988,72.0,0,40,0.0,0.0
15989,72.0,48,40,11.0,0.0
15990,66.0,48,40,11.0,0.0
15991,66.0,0,40,0.0,0.0
15992,63.0,0,40,0.0,0.0
15993,63.0,0,40,11.0,0.0
15994,62.0,48,40,11.0,0.0
15995,70.0,0,90,12.0,0.0
15996,62.0,0,40,0.0,0.0
15997,58.0,48,90,14.0,0.0
15998,65.0,0,40,11.0,0.0
15999,65.0,0,40,0.0,0.0
16000,39.0,48,40,2.0,0.0
16001,51.0,0,40,13.0,0.0
16002,58.0,48,40,13.0,0.0
16003,46.0,0,40,2.0,0.0
16004,91.0,0,180,0.0,0.0
16005,58.0,48,40,2.0,0.0
16006,70.0,0,40,13.0,0.0
16007,91.0,0,180,11.0,0.0
16008,79.0,0,180,12.0,0.0
16009,82.0,0,180,12.0,0.0
16010,55.0,0,40,2.0,0.0
16011,67.0,48,40,13.0,0.0
16012,63.0,48,40,13.0,0.0
16013,51.0,0,40,2.0,0.0
16014,48.0,48,40,2.0,0.0
16015,60.0,0,40,13.0,0.0
16016,87.0,0,150,11.0,0.0
16017,55.0,0,40,14.0,0.0
16018,87.0,0,150,0.0,0.0
16019,67.0,0,40,2.0,0.0
16020,79.0,48,150,12.0,0.0
16021,55.0,48,40,2.0,0.0
16022,51.0,0,40,14.0,0.0
16023,51.0,0,40,2.0,0.0
16024,63.0,48,40,2.0,0.0
16025,60.0,0,40,2.0,0.0
16026,48.0,0,40,14.0,0.0
16027,48.0,0,40,2.0,0.0
16028,41.0,48,40,14.0,0.0
16029,53.0,0,40,2.0,0.0
16030,41.0,0,40,2.0,0.0
16031,81.0,0,180,0.0,0.0
16032,81.0,0,180,11.0,0.0
16033,34.0,48,40,15.0,0.0
16034,75.0,48,180,12.0,0.0
16035,46.0,48,40,15.0,0.0
16036,50.0,0,40,14.0,0.0
16037,62.0,48,40,2.0,0.0
16038,50.0,0,40,2.0,0.0
16039,53.0,0,40,14.0,0.0
16040,53.0,0,40,2.0,0.0
16041,65.0,0,40,2.0,0.0
16042,58.0,0,40,2.0,0.0
16043,70.0,48,40,2.0,0.0
16044,58.0,0,40,14.0,0.0
16045,82.0,0,90,0.0,0.0
16046,82.0,0,90,11.0,0.0
16047,74.0,0,90,12.0,0.0
16048,74.0,0,40,2.0,0.0
16049,62.0,96,40,14.0,0.0
16050,62.0,0,40,2.0,0.0
16051,41.0,48,90,15.0,0.0
16052,77.0,0,40,11.0,0.0
16053,77.0,0,40,0.0,0.0
16054,60.0,0,180,12.0,0.0
16055,89.0,0,40,0.0,0.0
16056,53.0,48,180,14.0,0.0
16057,89.0,48,40,11.0,0.0
16058,87.0,48,40,0.0,0.0
16059,87.0,0,40,11.0,0.0
16060,81.0,0,40,11.0,0.0
16061,81.0,48,40,0.0,0.0
16062,77.0,0,40,11.0,0.0
16063,77.0,0,40,0.0,0.0
16064,73.0,48,40,0.0,0.0
16065,73.0,0,40,11.0,0.0
16066,58.0,0,150,14.0,0.0
16067,61.0,0,150,12.0,0.0
16068,70.0,48,40,0.0,0.0
16069,70.0,0,40,11.0,0.0
16070,65.0,48,40,11.0,0.0
16071,65.0,0,40,0.0,0.0
16072,61.0,0,40,0.0,0.0
16073,61.0,48,40,11.0,0.0
16074,61.0,0,180,13.0,0.0
16075,58.0,0,40,14.0,0.0
16076,58.0,48,40,2.0,0.0
16077,65.0,0,180,12.0,0.0
16078,53.0,0,40,14.0,0.0
16079,53.0,48,40,2.0,0.0
16080,49.0,0,40,2.0,0.0
16081,49.0,48,40,14.0,0.0
16082,46.0,48,40,14.0,0.0
16083,46.0,0,40,2.0,0.0
16084,63.0,0,90,12.0,0.0
16085,45.0,48,40,2.0,0.0
16086,60.0,0,90,13.0,0.0
16087,45.0,0,40,14.0,0.0
16088,53.0,0,40,14.0,0.0
16089,53.0,48,40,2.0,0.0
16090,44.0,48,40,14.0,0.0
16091,44.0,0,40,2.0,0.0
16092,56.0,48,40,2.0,0.0
16093,56.0,0,40,14.0,0.0
16094,68.0,0,40,13.0,0.0
16095,75.0,48,180,12.0,0.0
16096,68.0,48,40,2.0,0.0
16097,84.0,0,180,11.0,0.0
16098,84.0,0,180,0.0,0.0
16099,66.0,0,40,13.0,0.0
16100,66.0,48,40,2.0,0.0
16101,63.0,0,40,2.0,0.0
16102,63.0,48,40,13.0,0.0
16103,60.0,0,40,2.0,0.0
16104,60.0,0,40,13.0,0.0
16105,56.0,0,40,13.0,0.0
16106,56.0,48,40,2.0,0.0
16107,85.0,0,150,11.0,0.0
16108,85.0,0,150,0.0,0.0
16109,77.0,0,390,12.0,0.0
16110,53.0,0,40,13.0,0.0
16111,53.0,48,40,2.0,0.0
16112,49.0,48,40,2.0,0.0
16113,49.0,0,40,14.0,0.0
16114,45.0,0,40,2.0,0.0
16115,44.0,48,40,14.0,0.0
16116,42.0,0,40,14.0,0.0
16117,42.0,48,40,2.0,0.0
16118,82.0,0,300,12.0,0.0
16119,89.0,0,180,0.0,0.0
16120,89.0,0,180,11.0,0.0
16121,54.0,0,40,2.0,0.0
16122,54.0,0,40,14.0,0.0
16123,54.0,48,40,13.0,0.0
16124,58.0,0,40,2.0,0.0
16125,58.0,48,40,13.0,0.0
16126,61.0,0,40,13.0,0.0
16127,61.0,48,40,2.0,0.0
16128,60.0,0,40,13.0,0.0
16129,88.0,96,90,0.0,0.0
16130,76.0,0,90,12.0,0.0
16131,88.0,0,90,11.0,0.0
16132,60.0,48,40,2.0,0.0
16133,48.0,0,40,13.0,0.0
16134,48.0,0,40,2.0,0.0
16135,41.0,0,90,14.0,0.0
16136,89.0,0,40,0.0,0.0
16137,89.0,48,40,11.0,0.0
16138,53.0,0,180,14.0,0.0
16139,101.0,0,40,0.0,0.0
16140,62.0,0,180,13.0,0.0
16141,65.0,0,180,12.0,0.0
16142,101.0,48,40,11.0,0.0
16143,98.0,0,40,0.0,0.0
16144,98.0,48,40,11.0,0.0
16145,94.0,48,40,0.0,0.0
16146,94.0,0,40,11.0,0.0
16147,89.0,0,40,11.0,0.0
16148,89.0,48,40,0.0,0.0
16149,67.0,48,150,12.0,0.0
16150,88.0,48,40,11.0,0.0
16151,61.0,0,150,14.0,0.0
16152,88.0,0,40,0.0,0.0
16153,82.0,0,40,0.0,0.0
16154,82.0,48,40,11.0,0.0
16155,79.0,0,40,11.0,0.0
16156,79.0,0,40,0.0,0.0
16157,76.0,0,40,0.0,0.0
16158,76.0,48,40,11.0,0.0
16159,75.0,0,40,11.0,0.0
16160,60.0,0,180,14.0,0.0
16161,69.0,0,180,12.0,0.0
16162,75.0,48,40,0.0,0.0
16163,72.0,48,40,11.0,0.0
16164,72.0,0,40,0.0,0.0
16165,66.0,0,40,11.0,0.0
16166,66.0,48,40,0.0,0.0
16167,63.0,0,40,11.0,0.0
16168,63.0,48,40,0.0,0.0
16169,62.0,0,40,0.0,0.0
16170,62.0,48,40,11.0,0.0
16171,58.0,0,90,14.0,0.0
16172,70.0,0,90,12.0,0.0
16173,65.0,48,40,11.0,0.0
16174,65.0,0,40,0.0,0.0
16175,39.0,0,40,2.0,0.0
16176,51.0,48,40,13.0,0.0
16177,46.0,0,40,2.0,0.0
16178,58.0,48,40,13.0,0.0
16179,82.0,0,180,12.0,0.0
16180,91.0,0,180,0.0,0.0
16181,58.0,0,40,2.0,0.0
16182,70.0,48,40,13.0,0.0
16183,91.0,0,180,11.0,0.0
16184,55.0,0,40,2.0,0.0
16185,67.0,48,40,13.0,0.0
16186,51.0,48,40,2.0,0.0
16187,63.0,0,40,13.0,0.0
16188,48.0,0,40,2.0,0.0
16189,60.0,0,40,13.0,0.0
16190,87.0,0,150,11.0,0.0
16191,55.0,0,40,2.0,0.0
16192,87.0,0,150,0.0,0.0
16193,67.0,48,40,2.0,0.0
16194,79.0,48,15,12.0,0.0
16195,55.0,0,40,14.0,0.0
16196,51.0,0,40,14.0,0.0
16197,63.0,0,40,2.0,0.0
16198,51.0,48,40,2.0,0.0
16199,60.0,0,40,2.0,0.0
16200,48.0,0,40,14.0,0.0
16201,48.0,48,40,2.0,0.0
16202,41.0,48,40,2.0,0.0
16203,41.0,0,40,14.0,0.0
16204,53.0,0,40,2.0,0.0
16205,34.0,48,40,15.0,0.0
16206,75.0,0,180,12.0,0.0
16207,81.0,0,180,0.0,0.0
16208,81.0,0,180,11.0,0.0
16209,46.0,48,40,15.0,0.0
16210,50.0,0,40,2.0,0.0
16211,50.0,0,40,14.0,0.0
16212,62.0,48,40,2.0,0.0
16213,53.0,48,40,2.0,0.0
16214,65.0,0,40,2.0,0.0
16215,53.0,0,40,14.0,0.0
16216,82.0,0,90,11.0,0.0
16217,74.0,120,90,12.0,0.0
16218,82.0,0,90,0.0,0.0
16219,70.0,0,40,2.0,0.0
16220,58.0,48,40,14.0,0.0
16221,58.0,0,40,2.0,0.0
16222,62.0,0,40,2.0,0.0
16223,62.0,0,40,14.0,0.0
16224,74.0,0,40,2.0,0.0
16225,41.0,0,180,3.0,0.0
16226,53.0,0,180,3.0,0.0
16227,34.0,96,180,3.0,0.0
16228,62.0,0,20,12.0,0.0
16229,53.0,0,180,13.0,0.0
16230,62.0,24,20,2.0,0.0
16231,50.0,0,20,2.0,0.0
16232,63.0,96,20,2.0,0.0
16233,51.0,0,20,2.0,0.0
16234,63.0,0,20,12.0,0.0
16235,50.0,0,90,2.0,0.0
16236,62.0,0,90,12.0,0.0
16237,62.0,48,90,2.0,0.0
16238,48.0,0,40,2.0,0.0
16239,60.0,0,40,12.0,0.0
16240,60.0,0,40,2.0,0.0
16241,65.0,0,15,11.0,0.0
16242,53.0,0,90,13.0,0.0
16243,62.0,0,90,2.0,0.0
16244,50.0,0,90,2.0,0.0
16245,62.0,192,90,12.0,0.0
16246,41.0,0,90,3.0,0.0
16247,46.0,0,15,14.0,0.0
16248,34.0,0,90,3.0,0.0
16249,57.0,0,180,12.0,0.0
16250,48.0,0,180,14.0,0.0
16251,51.0,0,180,13.0,0.0
16252,53.0,0,15,3.0,0.0
16253,36.0,96,180,3.0,0.0
16254,57.0,0,180,2.0,0.0
16255,39.0,0,180,3.0,0.0
16256,45.0,0,15,2.0,0.0
16257,48.0,0,90,14.0,0.0
16258,57.0,0,90,2.0,0.0
16259,57.0,0,90,12.0,0.0
16260,53.0,0,15,3.0,0.0
16261,65.0,0,15,11.0,0.0
16262,39.0,0,90,3.0,0.0
16263,51.0,0,90,13.0,0.0
16264,36.0,0,90,3.0,0.0
16265,53.0,0,15,3.0,0.0
16266,58.0,24,20,2.0,0.0
16267,50.0,0,180,14.0,0.0
16268,58.0,0,20,12.0,0.0
16269,41.0,0,180,3.0,0.0
16270,46.0,0,20,2.0,0.0
16271,48.0,96,20,2.0,0.0
16272,60.0,0,20,12.0,0.0
16273,60.0,0,20,2.0,0.0
16274,46.0,0,90,2.0,0.0
16275,58.0,48,90,12.0,0.0
16276,58.0,0,90,2.0,0.0
16277,57.0,0,40,2.0,0.0
16278,45.0,0,40,2.0,0.0
16279,57.0,0,40,12.0,0.0
16280,46.0,0,90,2.0,0.0
16281,41.0,0,90,3.0,0.0
16282,53.0,0,90,3.0,0.0
16283,38.0,0,15,3.0,0.0
16284,53.0,0,15,13.0,0.0
16285,58.0,0,90,12.0,0.0
16286,50.0,0,90,14.0,0.0
16287,58.0,0,90,2.0,0.0
16288,65.0,96,15,11.0,0.0
16289,55.0,0,180,3.0,0.0
16290,62.0,0,180,12.0,0.0
16291,31.0,0,180,3.0,0.0
16292,67.0,0,15,11.0,0.0
16293,31.0,0,90,3.0,0.0
16294,46.0,0,15,3.0,0.0
16295,43.0,0,15,14.0,0.0
16296,62.0,0,90,12.0,0.0
16297,62.0,0,15,2.0,0.0
16298,58.0,0,15,13.0,0.0
16299,55.0,24,90,3.0,0.0
16300,50.0,96,15,2.0,0.0
16301,53.0,0,180,3.0,0.0
16302,46.0,0,180,14.0,0.0
16303,58.0,0,20,2.0,0.0
16304,58.0,0,20,12.0,0.0
16305,46.0,24,20,2.0,0.0
16306,38.0,0,180,3.0,0.0
16307,65.0,96,180,11.0,0.0
16308,60.0,0,20,12.0,0.0
16309,60.0,96,20,2.0,0.0
16310,48.0,0,20,2.0,0.0
16311,46.0,0,90,2.0,0.0
16312,58.0,48,90,12.0,0.0
16313,58.0,0,90,2.0,0.0
16314,45.0,0,40,2.0,0.0
16315,57.0,0,40,12.0,0.0
16316,57.0,0,40,2.0,0.0
16317,50.0,0,15,13.0,0.0
16318,58.0,0,90,12.0,0.0
16319,46.0,0,90,14.0,0.0
16320,34.0,0,15,3.0,0.0
16321,58.0,0,90,2.0,0.0
16322,46.0,0,90,2.0,0.0
16323,38.0,0,90,3.0,0.0
16324,53.0,0,90,3.0,0.0
16325,65.0,0,15,11.0,0.0
16326,29.0,0,180,3.0,0.0
16327,53.0,0,180,3.0,0.0
16328,41.0,0,180,14.0,0.0
16329,60.0,0,180,2.0,0.0
16330,48.0,96,180,2.0,0.0
16331,57.0,0,180,13.0,0.0
16332,57.0,0,90,13.0,0.0
16333,60.0,0,90,2.0,0.0
16334,53.0,0,90,14.0,0.0
16335,41.0,24,90,3.0,0.0
16336,65.0,0,15,11.0,0.0
16337,45.0,0,15,3.0,0.0
16338,60.0,0,15,12.0,0.0
16339,48.0,0,90,2.0,0.0
16340,46.0,0,150,3.0,0.0
16341,53.0,0,15,3.0,0.0
16342,50.0,24,20,2.0,0.0
16343,62.0,0,20,12.0,0.0
16344,46.0,0,180,14.0,0.0
16345,65.0,0,15,11.0,0.0
16346,62.0,0,20,2.0,0.0
16347,58.0,0,150,13.0,0.0
16348,63.0,0,20,12.0,0.0
16349,63.0,96,20,2.0,0.0
16350,51.0,0,20,2.0,0.0
16351,62.0,0,90,12.0,0.0
16352,50.0,0,90,2.0,0.0
16353,62.0,48,90,2.0,0.0
16354,48.0,0,40,2.0,0.0
16355,60.0,0,40,12.0,0.0
16356,53.0,0,40,13.0,0.0
16357,41.0,0,40,3.0,0.0
16358,60.0,0,40,2.0,0.0
16359,46.0,0,90,2.0,0.0
16360,65.0,0,15,11.0,0.0
16361,34.0,0,15,3.0,0.0
16362,50.0,0,90,13.0,0.0
16363,46.0,0,90,14.0,0.0
16364,58.0,0,90,12.0,0.0
16365,53.0,96,15,3.0,0.0
16366,38.0,0,90,3.0,0.0
16367,58.0,0,90,2.0,0.0
16368,60.0,0,180,12.0,0.0
16369,29.0,0,180,3.0,0.0
16370,65.0,0,15,11.0,0.0
16371,45.0,0,180,3.0,0.0
16372,53.0,192,15,3.0,0.0
16373,48.0,96,15,2.0,0.0
16374,60.0,0,15,2.0,0.0
16375,65.0,0,90,11.0,0.0
16376,60.0,0,90,12.0,0.0
16377,53.0,0,15,3.0,0.0
16378,41.0,0,15,14.0,0.0
16379,29.0,24,90,3.0,0.0
16380,57.0,0,15,13.0,0.0
16381,45.0,0,15,3.0,0.0
16382,65.0,0,20,2.0,0.0
16383,57.0,0,180,13.0,0.0
16384,38.0,0,180,3.0,0.0
16385,65.0,24,20,12.0,0.0
16386,53.0,0,20,2.0,0.0
16387,55.0,0,20,2.0,0.0
16388,67.0,0,20,2.0,0.0
16389,67.0,96,20,12.0,0.0
16390,53.0,48,90,2.0,0.0
16391,65.0,0,90,12.0,0.0
16392,65.0,0,90,2.0,0.0
16393,64.0,0,40,2.0,0.0
16394,64.0,0,40,12.0,0.0
16395,52.0,0,40,2.0,0.0
16396,53.0,0,90,2.0,0.0
16397,38.0,0,90,3.0,0.0
16398,65.0,0,90,2.0,0.0
16399,50.0,0,15,14.0,0.0
16400,45.0,0,15,3.0,0.0
16401,69.0,0,15,11.0,0.0
16402,65.0,0,90,12.0,0.0
16403,57.0,0,90,13.0,0.0
16404,57.0,96,15,3.0,0.0
16405,61.0,0,180,12.0,0.0
16406,55.0,0,180,13.0,0.0
16407,69.0,0,180,11.0,0.0
16408,52.0,0,180,14.0,0.0
16409,43.0,0,180,3.0,0.0
16410,61.0,0,180,2.0,0.0
16411,40.0,96,15,3.0,0.0
16412,55.0,0,90,13.0,0.0
16413,61.0,0,90,2.0,0.0
16414,61.0,0,90,12.0,0.0
16415,57.0,0,15,3.0,0.0
16416,49.0,0,15,2.0,0.0
16417,43.0,0,90,3.0,0.0
16418,52.0,0,90,14.0,0.0
16419,69.0,0,15,11.0,0.0
16420,62.0,24,20,2.0,0.0
16421,57.0,0,15,3.0,0.0
16422,62.0,0,20,12.0,0.0
16423,50.0,0,20,2.0,0.0
16424,64.0,0,20,12.0,0.0
16425,52.0,96,20,2.0,0.0
16426,64.0,0,20,2.0,0.0
16427,50.0,48,90,2.0,0.0
16428,62.0,0,90,12.0,0.0
16429,62.0,0,90,2.0,0.0
16430,61.0,96,40,2.0,0.0
16431,49.0,0,40,2.0,0.0
16432,61.0,0,40,12.0,0.0
16433,57.0,0,15,13.0,0.0
16434,53.0,0,15,14.0,0.0
16435,57.0,0,15,3.0,0.0
16436,45.0,0,15,3.0,0.0
16437,41.0,0,15,3.0,0.0
16438,50.0,0,90,2.0,0.0
16439,62.0,0,90,12.0,0.0
16440,69.0,0,15,11.0,0.0
16441,62.0,0,90,2.0,0.0
16442,70.0,0,180,11.0,0.0
16443,58.0,0,180,3.0,0.0
16444,62.0,0,180,13.0,0.0
16445,65.0,0,180,2.0,0.0
16446,34.0,0,15,3.0,0.0
16447,46.0,0,15,14.0,0.0
16448,53.0,0,15,2.0,0.0
16449,65.0,0,15,12.0,0.0
16450,50.0,96,15,3.0,0.0
16451,58.0,0,90,3.0,0.0
16452,62.0,0,90,13.0,0.0
16453,70.0,0,90,11.0,0.0
16454,65.0,24,90,2.0,0.0
16455,62.0,24,20,2.0,0.0
16456,62.0,0,20,12.0,0.0
16457,50.0,0,20,2.0,0.0
16458,69.0,0,180,11.0,0.0
16459,41.0,0,180,3.0,0.0
16460,53.0,0,180,13.0,0.0
16461,63.0,0,20,12.0,0.0
16462,51.0,0,20,2.0,0.0
16463,63.0,96,20,2.0,0.0
16464,62.0,0,90,2.0,0.0
16465,50.0,48,90,2.0,0.0
16466,62.0,0,90,12.0,0.0
16467,61.0,0,40,2.0,0.0
16468,61.0,0,40,12.0,0.0
16469,39.0,0,40,2.0,0.0
16470,50.0,0,90,2.0,0.0
16471,62.0,0,90,2.0,0.0
16472,50.0,0,15,14.0,0.0
16473,38.0,0,15,3.0,0.0
16474,53.0,0,90,13.0,0.0
16475,57.0,96,15,3.0,0.0
16476,62.0,0,90,12.0,0.0
16477,41.0,0,90,3.0,0.0
16478,65.0,0,180,2.0,0.0
16479,60.0,0,180,13.0,0.0
16480,69.0,192,15,11.0,0.0
16481,53.0,0,180,2.0,0.0
16482,65.0,0,15,12.0,0.0
16483,41.0,0,15,14.0,0.0
16484,69.0,0,90,11.0,0.0
16485,60.0,24,90,13.0,0.0
16486,57.0,0,15,3.0,0.0
16487,48.0,0,15,3.0,0.0
16488,29.0,96,15,3.0,0.0
16489,53.0,0,90,2.0,0.0
16490,65.0,0,90,2.0,0.0
16491,55.0,24,20,2.0,0.0
16492,36.0,0,180,3.0,0.0
16493,72.0,0,180,11.0,0.0
16494,67.0,0,20,2.0,0.0
16495,67.0,0,20,12.0,0.0
16496,64.0,0,180,13.0,0.0
16497,69.0,96,20,12.0,0.0
16498,57.0,0,20,2.0,0.0
16499,69.0,0,20,2.0,0.0
16500,55.0,0,90,2.0,0.0
16501,67.0,0,90,2.0,0.0
16502,67.0,48,90,12.0,0.0
16503,65.0,0,40,12.0,0.0
16504,65.0,0,40,2.0,0.0
16505,53.0,96,40,2.0,0.0
16506,67.0,0,90,2.0,0.0
16507,67.0,0,90,12.0,0.0
16508,60.0,0,15,3.0,0.0
16509,52.0,0,15,3.0,0.0
16510,48.0,0,15,14.0,0.0
16511,64.0,0,90,13.0,0.0
16512,55.0,0,90,2.0,0.0
16513,36.0,0,90,3.0,0.0
16514,41.0,0,300,3.0,0.0
16515,69.0,0,180,12.0,0.0
16516,57.0,0,180,2.0,0.0
16517,69.0,0,180,2.0,0.0
16518,53.0,0,180,3.0,0.0
16519,60.0,0,180,3.0,0.0
16520,53.0,0,300,14.0,0.0
16521,72.0,192,15,11.0,0.0
16522,65.0,96,15,13.0,0.0
16523,65.0,0,90,0.0,0.0
16524,77.0,0,90,11.0,0.0
16525,65.0,0,90,1.0,0.0
16526,65.0,24,90,12.0,0.0
16527,65.0,0,90,2.0,0.0
16528,65.0,0,15,13.0,0.0
16529,74.0,0,180,1.0,0.0
16530,58.0,96,180,14.0,0.0
16531,77.0,24,20,11.0,0.0
16532,74.0,0,180,2.0,0.0
16533,79.0,96,20,11.0,0.0
16534,77.0,48,90,11.0,0.0
16535,76.0,0,40,11.0,0.0
16536,74.0,0,15,12.0,0.0
16537,77.0,0,90,11.0,0.0
16538,74.0,0,15,0.0,0.0
16539,74.0,0,90,2.0,0.0
16540,74.0,192,90,1.0,0.0
16541,65.0,0,90,13.0,0.0
16542,58.0,0,90,14.0,0.0
16543,77.0,0,180,11.0,0.0
16544,69.0,0,180,0.0,0.0
16545,69.0,0,180,1.0,0.0
16546,63.0,0,180,13.0,0.0
16547,60.0,0,15,14.0,0.0
16548,69.0,0,90,0.0,0.0
16549,69.0,0,15,2.0,0.0
16550,69.0,0,90,1.0,0.0
16551,63.0,0,90,13.0,0.0
16552,69.0,96,15,12.0,0.0
16553,70.0,0,180,12.0,0.0
16554,70.0,0,180,2.0,0.0
16555,70.0,0,180,1.0,0.0
16556,77.0,0,15,11.0,0.0
16557,79.0,96,20,11.0,0.0
16558,77.0,48,90,11.0,0.0
16559,76.0,0,40,11.0,0.0
16560,77.0,0,90,11.0,0.0
16561,70.0,0,90,1.0,0.0
16562,65.0,0,15,13.0,0.0
16563,70.0,0,15,0.0,0.0
16564,70.0,0,90,2.0,0.0
16565,70.0,0,90,12.0,0.0
16566,62.0,96,15,14.0,0.0
16567,79.0,0,180,11.0,0.0
16568,74.0,0,180,12.0,0.0
16569,70.0,0,180,13.0,0.0
16570,74.0,0,180,1.0,0.0
16571,55.0,0,180,14.0,0.0
16572,74.0,0,15,2.0,0.0
16573,55.0,0,90,14.0,0.0
16574,74.0,96,15,0.0,0.0
16575,74.0,0,90,1.0,0.0
16576,79.0,0,90,11.0,0.0
16577,74.0,0,90,12.0,0.0
16578,77.0,24,20,11.0,0.0
16579,70.0,0,180,2.0,0.0
16580,70.0,0,15,13.0,0.0
16581,79.0,96,20,11.0,0.0
16582,77.0,48,90,11.0,0.0
16583,76.0,0,40,11.0,0.0
16584,70.0,0,15,12.0,0.0
16585,70.0,0,15,13.0,0.0
16586,70.0,0,15,0.0,0.0
16587,70.0,96,15,1.0,0.0
16588,58.0,0,15,14.0,0.0
16589,70.0,0,90,2.0,0.0
16590,77.0,0,15,11.0,0.0
16591,53.0,0,180,14.0,0.0
16592,72.0,0,180,2.0,0.0
16593,72.0,0,180,12.0,0.0
16594,65.0,0,90,14.0,0.0
16595,72.0,0,90,12.0,0.0
16596,72.0,0,15,1.0,0.0
16597,69.0,96,15,13.0,0.0
16598,72.0,0,15,0.0,0.0
16599,72.0,0,90,2.0,0.0
16600,74.0,0,150,2.0,0.0
16601,74.0,0,150,12.0,0.0
16602,74.0,48,150,1.0,0.0
16603,58.0,0,180,14.0,0.0
16604,77.0,0,15,11.0,0.0
16605,70.0,0,150,13.0,0.0
16606,74.0,0,150,0.0,0.0
16607,79.0,96,20,11.0,0.0
16608,77.0,0,150,11.0,0.0
16609,72.0,0,40,0.0,0.0
16610,72.0,96,40,1.0,0.0
16611,72.0,0,40,12.0,0.0
16612,65.0,0,40,13.0,0.0
16613,72.0,0,40,2.0,0.0
16614,77.0,0,90,11.0,0.0
16615,70.0,192,90,12.0,0.0
16616,70.0,0,90,0.0,0.0
16617,58.0,0,90,14.0,0.0
16618,62.0,0,90,13.0,0.0
16619,70.0,0,90,1.0,0.0
16620,70.0,0,90,2.0,0.0
16621,72.0,0,180,1.0,0.0
16622,72.0,0,180,12.0,0.0
16623,69.0,0,180,13.0,0.0
16624,53.0,0,15,14.0,0.0
16625,72.0,0,90,1.0,0.0
16626,72.0,0,15,0.0,0.0
16627,72.0,0,15,2.0,0.0
16628,72.0,0,90,12.0,0.0
16629,69.0,0,90,13.0,0.0
16630,77.0,96,15,11.0,0.0
16631,81.0,24,20,11.0,0.0
16632,77.0,0,180,0.0,0.0
16633,77.0,0,180,12.0,0.0
16634,82.0,96,20,11.0,0.0
16635,81.0,48,90,11.0,0.0
16636,80.0,0,40,11.0,0.0
16637,77.0,0,15,2.0,0.0
16638,69.0,0,15,13.0,0.0
16639,81.0,0,90,11.0,0.0
16640,77.0,96,15,1.0,0.0
16641,77.0,0,90,0.0,0.0
16642,77.0,0,90,12.0,0.0
16643,62.0,0,15,14.0,0.0
16644,64.0,0,180,14.0,0.0
16645,73.0,0,180,0.0,0.0
16646,73.0,0,180,1.0,0.0
16647,73.0,0,15,12.0,0.0
16648,73.0,0,90,0.0,0.0
16649,64.0,0,90,14.0,0.0
16650,73.0,0,90,1.0,0.0
16651,73.0,0,15,2.0,0.0
16652,81.0,96,15,11.0,0.0
16653,67.0,0,15,13.0,0.0
16654,69.0,0,180,13.0,0.0
16655,74.0,0,180,2.0,0.0
16656,81.0,0,15,11.0,0.0
16657,65.0,0,180,14.0,0.0
16658,74.0,96,180,12.0,0.0
16659,82.0,96,20,11.0,0.0
16660,81.0,48,90,11.0,0.0
16661,80.0,0,40,11.0,0.0
16662,74.0,0,15,0.0,0.0
16663,65.0,0,90,14.0,0.0
16664,74.0,0,15,1.0,0.0
16665,69.0,0,90,13.0,0.0
16666,74.0,192,90,2.0,0.0
16667,81.0,0,90,11.0,0.0
16668,74.0,0,90,12.0,0.0
16669,77.0,0,180,12.0,0.0
16670,74.0,0,180,13.0,0.0
16671,58.0,0,180,14.0,0.0
16672,77.0,0,180,1.0,0.0
16673,77.0,0,180,2.0,0.0
16674,77.0,0,180,0.0,0.0
16675,58.0,0,90,14.0,0.0
16676,77.0,0,90,0.0,0.0
16677,77.0,0,90,12.0,0.0
16678,74.0,24,90,13.0,0.0
16679,77.0,0,90,2.0,0.0
16680,82.0,96,15,11.0,0.0
16681,77.0,0,90,1.0,0.0
16682,74.0,0,180,12.0,0.0
16683,81.0,24,20,11.0,0.0
16684,82.0,96,20,11.0,0.0
16685,81.0,48,90,11.0,0.0
16686,80.0,0,40,11.0,0.0
16687,74.0,0,90,12.0,0.0
16688,74.0,0,15,2.0,0.0
16689,74.0,0,15,0.0,0.0
16690,62.0,0,15,14.0,0.0
16691,65.0,0,15,13.0,0.0
16692,74.0,96,15,1.0,0.0
16693,53.0,0,180,14.0,0.0
16694,81.0,0,15,11.0,0.0
16695,72.0,0,180,13.0,0.0
16696,77.0,96,15,2.0,0.0
16697,77.0,0,15,1.0,0.0
16698,81.0,0,15,11.0,0.0
16699,77.0,0,15,0.0,0.0
16700,77.0,0,15,12.0,0.0
16701,53.0,0,90,14.0,0.0
16702,72.0,0,90,13.0,0.0
16703,79.0,0,150,12.0,0.0
16704,79.0,0,150,1.0,0.0
16705,84.0,24,20,11.0,0.0
16706,76.0,0,150,13.0,0.0
16707,79.0,48,150,2.0,0.0
16708,60.0,0,180,14.0,0.0
16709,79.0,0,150,0.0,0.0
16710,86.0,96,20,11.0,0.0
16711,84.0,0,150,11.0,0.0
16712,77.0,0,40,12.0,0.0
16713,77.0,0,40,1.0,0.0
16714,77.0,0,40,13.0,0.0
16715,77.0,0,40,0.0,0.0
16716,77.0,96,40,2.0,0.0
16717,79.0,0,90,0.0,0.0
16718,79.0,0,90,1.0,0.0
16719,79.0,192,90,12.0,0.0
16720,60.0,0,90,14.0,0.0
16721,79.0,0,90,2.0,0.0
16722,84.0,0,90,11.0,0.0
16723,76.0,0,90,13.0,0.0
16724,81.0,0,180,2.0,0.0
16725,77.0,0,180,13.0,0.0
16726,81.0,0,180,1.0,0.0
16727,65.0,0,180,14.0,0.0
16728,81.0,0,180,0.0,0.0
16729,81.0,0,180,12.0,0.0
16730,84.0,96,180,11.0,0.0
16731,60.0,0,90,13.0,0.0
16732,48.0,24,90,3.0,0.0
16733,60.0,0,20,2.0,0.0
16734,57.0,0,180,13.0,0.0
16735,48.0,24,20,2.0,0.0
16736,60.0,0,20,12.0,0.0
16737,45.0,0,180,3.0,0.0
16738,53.0,0,180,3.0,0.0
16739,41.0,96,180,3.0,0.0
16740,62.0,96,20,2.0,0.0
16741,62.0,0,20,12.0,0.0
16742,50.0,0,20,2.0,0.0
16743,48.0,0,90,2.0,0.0
16744,60.0,48,90,2.0,0.0
16745,60.0,0,90,12.0,0.0
16746,58.0,0,40,2.0,0.0
16747,46.0,0,40,2.0,0.0
16748,58.0,0,40,12.0,0.0
16749,48.0,0,90,2.0,0.0
16750,41.0,0,15,14.0,0.0
16751,60.0,0,90,12.0,0.0
16752,65.0,0,15,11.0,0.0
16753,57.0,0,90,13.0,0.0
16754,60.0,0,90,2.0,0.0
16755,45.0,192,90,3.0,0.0
16756,41.0,0,90,3.0,0.0
16757,53.0,0,15,3.0,0.0
16758,50.0,0,180,2.0,0.0
16759,58.0,0,180,13.0,0.0
16760,62.0,0,180,2.0,0.0
16761,65.0,0,15,11.0,0.0
16762,46.0,0,15,14.0,0.0
16763,46.0,0,15,3.0,0.0
16764,62.0,0,15,12.0,0.0
16765,58.0,0,90,13.0,0.0
16766,62.0,0,90,2.0,0.0
16767,50.0,24,90,2.0,0.0
16768,53.0,0,15,3.0,0.0
16769,46.0,96,15,3.0,0.0
16770,65.0,0,15,11.0,0.0
16771,45.0,0,180,3.0,0.0
16772,53.0,0,15,3.0,0.0
16773,60.0,24,20,2.0,0.0
16774,60.0,0,20,12.0,0.0
16775,48.0,0,20,2.0,0.0
16776,65.0,0,180,11.0,0.0
16777,50.0,0,20,2.0,0.0
16778,62.0,0,20,12.0,0.0
16779,62.0,96,20,2.0,0.0
16780,60.0,0,90,12.0,0.0
16781,48.0,0,90,2.0,0.0
16782,60.0,48,90,2.0,0.0
16783,58.0,0,40,2.0,0.0
16784,46.0,0,40,2.0,0.0
16785,58.0,0,40,12.0,0.0
16786,60.0,288,90,2.0,0.0
16787,57.0,0,15,13.0,0.0
16788,60.0,0,90,12.0,0.0
16789,41.0,96,15,14.0,0.0
16790,41.0,0,15,3.0,0.0
16791,53.0,0,90,3.0,0.0
16792,48.0,0,90,2.0,0.0
16793,45.0,0,90,3.0,0.0
16794,65.0,0,90,11.0,0.0
16795,57.0,0,300,13.0,0.0
16796,45.0,0,300,3.0,0.0
16797,62.0,0,300,12.0,0.0
16798,53.0,0,300,3.0,0.0
16799,65.0,0,300,11.0,0.0
16800,38.0,0,300,14.0,0.0
16801,38.0,0,300,3.0,0.0
16802,50.0,24,300,2.0,0.0
16803,55.0,0,180,3.0,0.0
16804,46.0,0,180,3.0,0.0
16805,43.0,0,180,14.0,0.0
16806,62.0,0,20,12.0,0.0
16807,67.0,0,180,11.0,0.0
16808,62.0,0,15,2.0,0.0
16809,43.0,0,180,3.0,0.0
16810,50.0,24,20,2.0,0.0
16811,63.0,0,20,2.0,0.0
16812,63.0,0,20,12.0,0.0
16813,51.0,96,20,2.0,0.0
16814,62.0,0,90,12.0,0.0
16815,50.0,0,90,2.0,0.0
16816,62.0,48,90,2.0,0.0
16817,48.0,0,40,2.0,0.0
16818,60.0,0,40,12.0,0.0
16819,60.0,0,40,2.0,0.0
16820,50.0,192,90,2.0,0.0
16821,67.0,0,90,11.0,0.0
16822,43.0,0,90,14.0,0.0
16823,62.0,0,90,2.0,0.0
16824,43.0,0,90,3.0,0.0
16825,62.0,0,90,12.0,0.0
16826,58.0,96,15,13.0,0.0
16827,46.0,0,90,3.0,0.0
16828,36.0,0,180,14.0,0.0
16829,55.0,0,15,3.0,0.0
16830,36.0,0,15,3.0,0.0
16831,60.0,0,15,13.0,0.0
16832,51.0,0,15,2.0,0.0
16833,67.0,0,15,11.0,0.0
16834,55.0,0,15,3.0,0.0
16835,36.0,0,90,14.0,0.0
16836,48.0,0,15,3.0,0.0
16837,63.0,0,15,2.0,0.0
16838,63.0,96,15,12.0,0.0
16839,50.0,0,20,2.0,0.0
16840,62.0,24,20,12.0,0.0
16841,67.0,0,180,11.0,0.0
16842,62.0,0,20,2.0,0.0
16843,43.0,0,180,14.0,0.0
16844,63.0,96,20,2.0,0.0
16845,51.0,0,20,2.0,0.0
16846,63.0,0,20,12.0,0.0
16847,50.0,0,90,2.0,0.0
16848,62.0,48,90,12.0,0.0
16849,62.0,0,90,2.0,0.0
16850,60.0,0,40,2.0,0.0
16851,48.0,96,40,2.0,0.0
16852,60.0,0,40,12.0,0.0
16853,58.0,0,15,13.0,0.0
16854,55.0,0,15,3.0,0.0
16855,43.0,0,15,3.0,0.0
16856,46.0,0,15,3.0,0.0
16857,62.0,0,90,12.0,0.0
16858,67.0,0,90,11.0,0.0
16859,62.0,192,90,2.0,0.0
16860,50.0,0,90,2.0,0.0
16861,43.0,0,90,14.0,0.0
16862,53.0,0,180,2.0,0.0
16863,69.0,0,180,11.0,0.0
16864,65.0,0,180,12.0,0.0
16865,41.0,0,300,3.0,0.0
16866,57.0,0,180,3.0,0.0
16867,48.0,96,180,3.0,0.0
16868,60.0,0,180,13.0,0.0
16869,41.0,0,300,14.0,0.0
16870,65.0,0,180,2.0,0.0
16871,65.0,0,90,0.0,0.0
16872,65.0,0,90,1.0,0.0
16873,65.0,24,90,2.0,0.0
16874,65.0,0,90,13.0,0.0
16875,74.0,0,20,12.0,0.0
16876,58.0,0,180,14.0,0.0
16877,74.0,24,20,1.0,0.0
16878,77.0,0,15,11.0,0.0
16879,74.0,0,20,0.0,0.0
16880,74.0,0,20,2.0,0.0
16881,75.0,0,20,1.0,0.0
16882,75.0,96,20,0.0,0.0
16883,75.0,0,20,12.0,0.0
16884,75.0,0,20,2.0,0.0
16885,74.0,0,90,12.0,0.0
16886,74.0,0,90,0.0,0.0
16887,74.0,48,90,1.0,0.0
16888,74.0,0,90,2.0,0.0
16889,72.0,0,40,12.0,0.0
16890,72.0,96,40,0.0,0.0
16891,72.0,0,40,2.0,0.0
16892,72.0,0,40,1.0,0.0
16893,74.0,0,90,2.0,0.0
16894,65.0,0,15,13.0,0.0
16895,74.0,0,90,1.0,0.0
16896,74.0,192,90,0.0,0.0
16897,58.0,0,90,14.0,0.0
16898,74.0,0,90,12.0,0.0
16899,77.0,0,15,11.0,0.0
16900,69.0,0,15,12.0,0.0
16901,69.0,0,15,1.0,0.0
16902,60.0,0,15,14.0,0.0
16903,69.0,0,15,0.0,0.0
16904,63.0,0,15,13.0,0.0
16905,69.0,96,15,2.0,0.0
16906,65.0,0,180,13.0,0.0
16907,77.0,0,15,11.0,0.0
16908,70.0,0,20,2.0,0.0
16909,70.0,0,20,12.0,0.0
16910,70.0,0,20,0.0,0.0
16911,70.0,24,20,1.0,0.0
16912,62.0,0,180,14.0,0.0
16913,72.0,96,20,0.0,0.0
16914,72.0,0,20,12.0,0.0
16915,72.0,0,20,1.0,0.0
16916,72.0,0,20,2.0,0.0
16917,70.0,0,90,12.0,0.0
16918,70.0,0,90,0.0,0.0
16919,70.0,48,90,1.0,0.0
16920,70.0,0,90,2.0,0.0
16921,69.0,0,40,2.0,0.0
16922,69.0,0,40,1.0,0.0
16923,69.0,96,40,12.0,0.0
16924,69.0,0,40,0.0,0.0
16925,62.0,0,90,14.0,0.0
16926,65.0,0,90,13.0,0.0
16927,70.0,0,90,12.0,0.0
16928,70.0,0,90,2.0,0.0
16929,77.0,0,15,11.0,0.0
16930,70.0,192,90,1.0,0.0
16931,70.0,0,90,0.0,0.0
16932,70.0,0,180,13.0,0.0
16933,79.0,0,180,11.0,0.0
16934,55.0,96,180,14.0,0.0
16935,74.0,0,15,0.0,0.0
16936,74.0,0,15,2.0,0.0
16937,74.0,0,15,1.0,0.0
16938,74.0,0,15,12.0,0.0
16939,70.0,0,90,13.0,0.0
16940,55.0,0,90,14.0,0.0
16941,72.0,0,20,12.0,0.0
16942,72.0,24,20,2.0,0.0
16943,72.0,0,20,0.0,0.0
16944,72.0,0,20,1.0,0.0
16945,79.0,0,15,11.0,0.0
16946,74.0,96,20,12.0,0.0
16947,74.0,0,20,1.0,0.0
16948,74.0,0,20,0.0,0.0
16949,74.0,0,20,2.0,0.0
16950,72.0,0,90,2.0,0.0
16951,72.0,0,90,0.0,0.0
16952,72.0,48,90,12.0,0.0
16953,72.0,0,90,1.0,0.0
16954,71.0,0,40,2.0,0.0
16955,71.0,0,40,12.0,0.0
16956,71.0,96,40,1.0,0.0
16957,71.0,0,40,0.0,0.0
16958,72.0,0,90,2.0,0.0
16959,72.0,0,90,12.0,0.0
16960,79.0,0,15,11.0,0.0
16961,63.0,0,15,13.0,0.0
16962,72.0,0,90,1.0,0.0
16963,60.0,0,15,14.0,0.0
16964,72.0,0,90,0.0,0.0
16965,77.0,0,180,0.0,0.0
16966,77.0,0,180,2.0,0.0
16967,77.0,0,180,1.0,0.0
16968,81.0,0,180,11.0,0.0
16969,77.0,0,15,12.0,0.0
16970,77.0,0,90,2.0,0.0
16971,53.0,0,15,14.0,0.0
16972,81.0,0,90,11.0,0.0
16973,72.0,96,15,13.0,0.0
16974,77.0,24,90,1.0,0.0
16975,77.0,0,90,0.0,0.0
16976,74.0,0,20,12.0,0.0
16977,74.0,0,20,0.0,0.0
16978,65.0,0,180,13.0,0.0
16979,74.0,0,20,1.0,0.0
16980,82.0,48,150,11.0,0.0
16981,58.0,0,180,14.0,0.0
16982,74.0,24,20,2.0,0.0
16983,75.0,0,20,12.0,0.0
16984,75.0,96,20,0.0,0.0
16985,75.0,0,20,2.0,0.0
16986,75.0,0,20,1.0,0.0
16987,74.0,0,150,2.0,0.0
16988,74.0,96,150,1.0,0.0
16989,74.0,0,150,0.0,0.0
16990,74.0,0,150,12.0,0.0
16991,81.0,0,40,11.0,0.0
16992,58.0,0,90,14.0,0.0
16993,70.0,0,90,2.0,0.0
16994,70.0,0,90,0.0,0.0
16995,70.0,192,90,12.0,0.0
16996,62.0,0,90,13.0,0.0
16997,82.0,0,90,11.0,0.0
16998,70.0,0,90,1.0,0.0
16999,70.0,0,180,1.0,0.0
17000,82.0,0,180,11.0,0.0
17001,70.0,0,180,2.0,0.0
17002,62.0,0,180,13.0,0.0
17003,58.0,96,180,14.0,0.0
17004,70.0,0,180,12.0,0.0
17005,70.0,0,180,0.0,0.0
17006,65.0,0,90,11.0,0.0
17007,53.0,24,15,3.0,0.0
17008,45.0,0,180,3.0,0.0
17009,60.0,0,180,12.0,0.0
17010,65.0,0,20,11.0,0.0
17011,41.0,0,180,3.0,0.0
17012,41.0,0,180,14.0,0.0
17013,67.0,96,20,11.0,0.0
17014,55.0,0,20,3.0,0.0
17015,65.0,48,90,11.0,0.0
17016,53.0,0,90,3.0,0.0
17017,64.0,0,40,11.0,0.0
17018,52.0,0,40,3.0,0.0
17019,45.0,0,90,3.0,0.0
17020,53.0,0,90,3.0,0.0
17021,41.0,0,90,3.0,0.0
17022,60.0,0,15,2.0,0.0
17023,60.0,0,90,12.0,0.0
17024,65.0,0,90,11.0,0.0
17025,57.0,0,15,13.0,0.0
17026,48.0,96,15,2.0,0.0
17027,41.0,192,90,14.0,0.0
17028,53.0,0,180,3.0,0.0
17029,46.0,0,180,3.0,0.0
17030,46.0,0,180,14.0,0.0
17031,65.0,0,15,11.0,0.0
17032,46.0,0,90,14.0,0.0
17033,50.0,0,15,2.0,0.0
17034,62.0,0,15,2.0,0.0
17035,53.0,0,90,3.0,0.0
17036,62.0,0,15,12.0,0.0
17037,58.0,96,15,13.0,0.0
17038,46.0,0,90,3.0,0.0
17039,57.0,0,180,13.0,0.0
17040,65.0,0,20,11.0,0.0
17041,53.0,24,20,3.0,0.0
17042,67.0,0,20,11.0,0.0
17043,55.0,96,20,3.0,0.0
17044,65.0,0,90,11.0,0.0
17045,53.0,48,90,3.0,0.0
17046,64.0,0,40,11.0,0.0
17047,52.0,0,40,3.0,0.0
17048,45.0,0,15,3.0,0.0
17049,60.0,0,15,12.0,0.0
17050,53.0,0,90,3.0,0.0
17051,48.0,0,15,2.0,0.0
17052,41.0,0,15,3.0,0.0
17053,57.0,0,90,13.0,0.0
17054,41.0,0,15,14.0,0.0
17055,60.0,96,15,2.0,0.0
17056,65.0,0,15,11.0,0.0
17057,45.0,0,300,3.0,0.0
17058,53.0,0,300,3.0,0.0
17059,38.0,0,300,14.0,0.0
17060,38.0,0,300,3.0,0.0
17061,57.0,24,300,13.0,0.0
17062,67.0,0,20,11.0,0.0
17063,62.0,0,15,12.0,0.0
17064,50.0,0,15,2.0,0.0
17065,62.0,0,15,2.0,0.0
17066,43.0,96,180,14.0,0.0
17067,55.0,24,20,3.0,0.0
17068,57.0,0,20,3.0,0.0
17069,69.0,96,20,11.0,0.0
17070,55.0,48,90,3.0,0.0
17071,67.0,0,90,11.0,0.0
17072,54.0,0,40,3.0,0.0
17073,66.0,0,40,11.0,0.0
17074,43.0,0,15,3.0,0.0
17075,50.0,192,90,2.0,0.0
17076,62.0,0,90,12.0,0.0
17077,58.0,0,15,13.0,0.0
17078,46.0,0,15,3.0,0.0
17079,62.0,0,90,2.0,0.0
17080,43.0,0,90,14.0,0.0
17081,48.0,0,180,3.0,0.0
17082,55.0,0,15,3.0,0.0
17083,67.0,0,15,11.0,0.0
17084,63.0,0,180,12.0,0.0
17085,60.0,0,180,13.0,0.0
17086,51.0,0,180,2.0,0.0
17087,36.0,0,15,14.0,0.0
17088,63.0,0,90,12.0,0.0
17089,48.0,0,90,3.0,0.0
17090,36.0,96,15,3.0,0.0
17091,67.0,0,90,11.0,0.0
17092,55.0,0,90,3.0,0.0
17093,63.0,0,15,2.0,0.0
17094,60.0,0,90,13.0,0.0
17095,51.0,0,90,2.0,0.0
17096,46.0,0,180,3.0,0.0
17097,55.0,24,20,3.0,0.0
17098,43.0,0,180,14.0,0.0
17099,58.0,0,180,13.0,0.0
17100,67.0,0,20,11.0,0.0
17101,43.0,0,180,3.0,0.0
17102,69.0,96,20,11.0,0.0
17103,57.0,0,20,3.0,0.0
17104,67.0,48,90,11.0,0.0
17105,55.0,0,90,3.0,0.0
17106,66.0,0,40,11.0,0.0
17107,54.0,0,40,3.0,0.0
17108,67.0,0,90,11.0,0.0
17109,62.0,0,15,2.0,0.0
17110,50.0,0,15,2.0,0.0
17111,43.0,0,90,3.0,0.0
17112,43.0,0,90,14.0,0.0
17113,58.0,0,90,13.0,0.0
17114,62.0,96,15,12.0,0.0
17115,55.0,0,90,3.0,0.0
17116,46.0,192,90,3.0,0.0
17117,48.0,0,180,3.0,0.0
17118,53.0,0,180,2.0,0.0
17119,41.0,0,300,3.0,0.0
17120,57.0,0,180,3.0,0.0
17121,69.0,0,180,11.0,0.0
17122,41.0,0,300,14.0,0.0
17123,60.0,0,180,13.0,0.0
17124,65.0,96,15,2.0,0.0
17125,65.0,0,15,12.0,0.0
17126,65.0,0,90,1.0,0.0
17127,65.0,24,90,0.0,0.0
17128,65.0,0,15,13.0,0.0
17129,77.0,0,15,11.0,0.0
17130,74.0,0,180,2.0,0.0
17131,74.0,0,180,12.0,0.0
17132,58.0,96,180,14.0,0.0
17133,79.0,96,20,11.0,0.0
17134,77.0,48,90,11.0,0.0
17135,76.0,0,40,11.0,0.0
17136,74.0,0,90,2.0,0.0
17137,74.0,0,15,0.0,0.0
17138,74.0,0,90,12.0,0.0
17139,74.0,0,15,1.0,0.0
17140,58.0,192,90,14.0,0.0
17141,65.0,0,90,13.0,0.0
17142,77.0,0,15,11.0,0.0
17143,63.0,0,180,13.0,0.0
17144,60.0,0,180,14.0,0.0
17145,69.0,0,180,0.0,0.0
17146,69.0,0,15,1.0,0.0
17147,69.0,96,15,2.0,0.0
17148,63.0,0,90,13.0,0.0
17149,60.0,24,90,14.0,0.0
17150,69.0,0,15,12.0,0.0
17151,77.0,0,90,11.0,0.0
17152,69.0,0,90,0.0,0.0
17153,70.0,0,180,0.0,0.0
17154,70.0,0,180,12.0,0.0
17155,77.0,24,20,11.0,0.0
17156,62.0,0,180,14.0,0.0
17157,79.0,96,20,11.0,0.0
17158,77.0,48,90,11.0,0.0
17159,76.0,0,40,11.0,0.0
17160,77.0,0,90,11.0,0.0
17161,70.0,0,90,12.0,0.0
17162,70.0,0,15,2.0,0.0
17163,70.0,0,90,0.0,0.0
17164,62.0,0,90,14.0,0.0
17165,65.0,0,15,13.0,0.0
17166,70.0,96,15,1.0,0.0
17167,74.0,0,180,12.0,0.0
17168,74.0,0,180,1.0,0.0
17169,55.0,0,180,14.0,0.0
17170,74.0,0,180,0.0,0.0
17171,70.0,0,15,13.0,0.0
17172,74.0,0,90,1.0,0.0
17173,79.0,96,15,11.0,0.0
17174,74.0,0,90,0.0,0.0
17175,74.0,0,90,12.0,0.0
17176,55.0,0,90,14.0,0.0
17177,74.0,0,15,2.0,0.0
17178,79.0,24,20,11.0,0.0
17179,72.0,0,180,12.0,0.0
17180,63.0,0,180,13.0,0.0
17181,72.0,0,180,0.0,0.0
17182,72.0,0,180,2.0,0.0
17183,81.0,96,20,11.0,0.0
17184,79.0,48,90,11.0,0.0
17185,78.0,96,40,11.0,0.0
17186,63.0,0,90,13.0,0.0
17187,60.0,0,15,14.0,0.0
17188,72.0,0,90,2.0,0.0
17189,72.0,0,15,1.0,0.0
17190,72.0,192,90,12.0,0.0
17191,72.0,0,90,0.0,0.0
17192,79.0,0,90,11.0,0.0
17193,72.0,0,180,13.0,0.0
17194,77.0,0,180,12.0,0.0
17195,77.0,0,15,1.0,0.0
17196,77.0,0,15,0.0,0.0
17197,81.0,0,15,11.0,0.0
17198,53.0,0,15,14.0,0.0
17199,72.0,0,90,13.0,0.0
17200,77.0,0,90,12.0,0.0
17201,77.0,96,15,2.0,0.0
17202,65.0,0,180,13.0,0.0
17203,74.0,0,180,1.0,0.0
17204,74.0,0,180,12.0,0.0
17205,58.0,0,180,14.0,0.0
17206,74.0,0,180,0.0,0.0
17207,82.0,24,20,11.0,0.0
17208,74.0,96,180,2.0,0.0
17209,84.0,96,20,11.0,0.0
17210,82.0,48,90,11.0,0.0
17211,81.0,0,40,11.0,0.0
17212,58.0,0,90,14.0,0.0
17213,70.0,0,90,0.0,0.0
17214,82.0,0,90,11.0,0.0
17215,70.0,0,90,12.0,0.0
17216,70.0,0,90,2.0,0.0
17217,62.0,192,15,13.0,0.0
17218,70.0,0,180,12.0,0.0
17219,82.0,0,180,11.0,0.0
17220,70.0,0,180,2.0,0.0
17221,58.0,0,180,14.0,0.0
17222,70.0,0,15,1.0,0.0
17223,70.0,192,180,0.0,0.0
17224,57.0,96,90,6.0,0.0
17225,57.0,0,90,4.0,0.0
17226,53.0,0,90,4.0,0.0
17227,49.0,0,90,4.0,0.0
17228,46.0,0,180,6.0,0.0
17229,58.0,0,90,6.0,0.0
17230,50.0,0,90,4.0,0.0
17231,58.0,0,90,4.0,0.0
17232,59.0,0,90,6.0,0.0
17233,53.0,96,15,4.0,0.0
17234,50.0,96,90,4.0,0.0
17235,59.0,0,90,4.0,0.0
17236,54.0,0,90,4.0,0.0
17237,60.0,96,90,4.0,0.0
17238,45.0,0,180,6.0,0.0
17239,51.0,0,90,4.0,0.0
17240,60.0,0,90,6.0,0.0
17241,61.0,0,90,6.0,0.0
17242,52.0,96,90,4.0,0.0
17243,61.0,0,90,4.0,0.0
17244,55.0,0,90,4.0,0.0
17245,44.0,0,180,6.0,0.0
17246,62.0,0,90,6.0,0.0
17247,53.0,0,15,4.0,0.0
17248,62.0,0,15,4.0,0.0
17249,58.0,96,15,4.0,0.0
17250,62.0,0,90,6.0,0.0
17251,43.0,0,180,6.0,0.0
17252,63.0,0,90,6.0,0.0
17253,63.0,96,90,4.0,0.0
17254,51.0,0,90,4.0,0.0
17255,61.0,0,90,4.0,0.0
17256,52.0,0,90,4.0,0.0
17257,58.0,0,15,4.0,0.0
17258,61.0,0,90,6.0,0.0
17259,50.0,0,90,4.0,0.0
17260,62.0,0,90,6.0,0.0
17261,42.0,0,180,6.0,0.0
17262,57.0,96,15,4.0,0.0
17263,62.0,0,15,4.0,0.0
17264,50.0,0,90,4.0,0.0
17265,62.0,96,90,6.0,0.0
17266,57.0,0,15,4.0,0.0
17267,41.0,0,180,6.0,0.0
17268,48.0,96,90,4.0,0.0
17269,63.0,0,90,4.0,0.0
17270,63.0,0,90,6.0,0.0
17271,57.0,0,15,4.0,0.0
17272,61.0,0,90,6.0,0.0
17273,51.0,0,90,4.0,0.0
17274,61.0,96,90,4.0,0.0
17275,46.0,0,180,6.0,0.0
17276,62.0,0,90,6.0,0.0
17277,50.0,0,90,4.0,0.0
17278,58.0,0,90,4.0,0.0
17279,62.0,96,15,4.0,0.0
17280,53.0,96,90,4.0,0.0
17281,62.0,0,90,6.0,0.0
17282,59.0,0,90,4.0,0.0
17283,63.0,0,90,6.0,0.0
17284,60.0,0,90,4.0,0.0
17285,63.0,0,90,4.0,0.0
17286,45.0,0,180,6.0,0.0
17287,54.0,96,90,4.0,0.0
17288,64.0,0,90,6.0,0.0
17289,64.0,0,90,4.0,0.0
17290,55.0,96,90,4.0,0.0
17291,61.0,0,15,4.0,0.0
17292,65.0,0,90,4.0,0.0
17293,44.0,0,180,6.0,0.0
17294,65.0,0,90,6.0,0.0
17295,65.0,96,90,6.0,0.0
17296,61.0,0,90,4.0,0.0
17297,56.0,96,15,4.0,0.0
17298,65.0,0,90,4.0,0.0
17299,66.0,0,90,4.0,0.0
17300,66.0,96,90,6.0,0.0
17301,45.0,0,180,6.0,0.0
17302,54.0,0,15,4.0,0.0
17303,64.0,0,90,4.0,0.0
17304,60.0,0,15,4.0,0.0
17305,64.0,0,90,6.0,0.0
17306,44.0,0,180,6.0,0.0
17307,65.0,96,90,6.0,0.0
17308,53.0,0,90,4.0,0.0
17309,61.0,0,90,4.0,0.0
17310,65.0,0,15,4.0,0.0
17311,56.0,0,90,4.0,0.0
17312,61.0,0,90,4.0,0.0
17313,65.0,96,90,6.0,0.0
17314,45.0,96,180,6.0,0.0
17315,66.0,96,90,6.0,0.0
17316,54.0,0,90,4.0,0.0
17317,66.0,0,90,4.0,0.0
17318,64.0,0,90,4.0,0.0
17319,60.0,0,15,4.0,0.0
17320,54.0,0,90,4.0,0.0
17321,64.0,0,90,6.0,0.0
17322,44.0,0,180,6.0,0.0
17323,61.0,0,90,4.0,0.0
17324,65.0,96,90,4.0,0.0
17325,53.0,0,90,4.0,0.0
17326,65.0,0,15,6.0,0.0
17327,61.0,96,90,4.0,0.0
17328,65.0,0,90,4.0,0.0
17329,53.0,0,15,4.0,0.0
17330,45.0,0,180,6.0,0.0
17331,64.0,0,90,4.0,0.0
17332,64.0,0,90,6.0,0.0
17333,63.0,0,90,6.0,0.0
17334,60.0,0,15,4.0,0.0
17335,63.0,0,90,4.0,0.0
17336,53.0,96,15,4.0,0.0
17337,53.0,0,15,4.0,0.0
17338,62.0,0,90,6.0,0.0
17339,62.0,0,90,4.0,0.0
17340,46.0,0,180,6.0,0.0
17341,53.0,0,15,4.0,0.0
17342,61.0,96,90,4.0,0.0
17343,58.0,96,15,4.0,0.0
17344,61.0,0,90,6.0,0.0
17345,41.0,0,180,6.0,0.0
17346,60.0,0,90,6.0,0.0
17347,57.0,0,90,4.0,0.0
17348,60.0,0,90,4.0,0.0
17349,53.0,96,15,4.0,0.0
17350,49.0,0,90,4.0,0.0
17351,61.0,96,90,5.0,0.0
17352,69.0,0,90,5.0,0.0
17353,57.0,0,90,6.0,0.0
17354,70.0,96,90,5.0,0.0
17355,46.0,0,180,7.0,0.0
17356,53.0,0,15,4.0,0.0
17357,58.0,0,90,6.0,0.0
17358,65.0,0,15,5.0,0.0
17359,65.0,0,15,5.0,0.0
17360,53.0,0,15,4.0,0.0
17361,50.0,0,15,4.0,0.0
17362,62.0,0,15,5.0,0.0
17363,71.0,0,90,5.0,0.0
17364,59.0,96,90,6.0,0.0
17365,51.0,0,90,4.0,0.0
17366,63.0,0,90,5.0,0.0
17367,54.0,96,90,4.0,0.0
17368,66.0,0,90,5.0,0.0
17369,72.0,0,90,5.0,0.0
17370,60.0,0,90,6.0,0.0
17371,45.0,0,180,7.0,0.0
17372,55.0,0,90,4.0,0.0
17373,52.0,0,90,4.0,0.0
17374,67.0,96,90,5.0,0.0
17375,64.0,0,90,5.0,0.0
17376,61.0,0,90,6.0,0.0
17377,73.0,0,90,5.0,0.0
17378,44.0,0,180,7.0,0.0
17379,62.0,0,90,6.0,0.0
17380,58.0,0,90,4.0,0.0
17381,65.0,0,90,5.0,0.0
17382,70.0,0,90,5.0,0.0
17383,53.0,0,15,4.0,0.0
17384,65.0,0,90,5.0,0.0
17385,70.0,0,90,5.0,0.0
17386,62.0,0,90,6.0,0.0
17387,74.0,96,15,5.0,0.0
17388,75.0,0,90,5.0,0.0
17389,63.0,0,90,6.0,0.0
17390,51.0,0,90,4.0,0.0
17391,58.0,96,15,4.0,0.0
17392,63.0,0,90,5.0,0.0
17393,43.0,0,180,7.0,0.0
17394,43.0,96,180,6.0,0.0
17395,61.0,0,90,6.0,0.0
17396,52.0,0,90,4.0,0.0
17397,58.0,0,90,4.0,0.0
17398,70.0,96,15,5.0,0.0
17399,73.0,0,90,5.0,0.0
17400,64.0,0,90,5.0,0.0
17401,69.0,0,90,5.0,0.0
17402,62.0,0,90,5.0,0.0
17403,57.0,96,90,4.0,0.0
17404,42.0,0,180,6.0,0.0
17405,50.0,0,90,4.0,0.0
17406,42.0,0,180,7.0,0.0
17407,62.0,0,15,6.0,0.0
17408,74.0,0,15,5.0,0.0
17409,62.0,0,90,5.0,0.0
17410,50.0,96,90,4.0,0.0
17411,41.0,0,180,7.0,0.0
17412,41.0,0,180,6.0,0.0
17413,69.0,0,15,5.0,0.0
17414,60.0,0,90,5.0,0.0
17415,63.0,0,90,6.0,0.0
17416,57.0,0,15,4.0,0.0
17417,48.0,0,90,4.0,0.0
17418,75.0,96,90,5.0,0.0
17419,61.0,96,90,6.0,0.0
17420,73.0,0,90,5.0,0.0
17421,69.0,0,15,5.0,0.0
17422,51.0,0,90,4.0,0.0
17423,63.0,0,90,5.0,0.0
17424,57.0,0,90,4.0,0.0
17425,62.0,96,90,5.0,0.0
17426,46.0,96,180,7.0,0.0
17427,50.0,0,90,4.0,0.0
17428,58.0,0,90,4.0,0.0
17429,70.0,0,90,5.0,0.0
17430,46.0,0,180,6.0,0.0
17431,62.0,0,90,6.0,0.0
17432,74.0,0,15,5.0,0.0
17433,65.0,0,90,5.0,0.0
17434,71.0,0,90,5.0,0.0
17435,59.0,0,90,4.0,0.0
17436,62.0,0,90,6.0,0.0
17437,53.0,0,90,4.0,0.0
17438,45.0,96,180,7.0,0.0
17439,60.0,0,90,4.0,0.0
17440,66.0,0,90,5.0,0.0
17441,72.0,96,90,5.0,0.0
17442,45.0,0,180,6.0,0.0
17443,75.0,0,90,5.0,0.0
17444,54.0,0,90,4.0,0.0
17445,63.0,0,90,6.0,0.0
17446,55.0,0,90,4.0,0.0
17447,76.0,0,90,5.0,0.0
17448,67.0,0,90,5.0,0.0
17449,64.0,0,90,6.0,0.0
17450,73.0,0,15,5.0,0.0
17451,65.0,0,90,6.0,0.0
17452,56.0,0,90,4.0,0.0
17453,44.0,0,180,6.0,0.0
17454,61.0,0,15,4.0,0.0
17455,44.0,0,180,7.0,0.0
17456,73.0,0,15,5.0,0.0
17457,77.0,0,15,5.0,0.0
17458,68.0,0,15,5.0,0.0
17459,65.0,96,90,6.0,0.0
17460,56.0,0,90,4.0,0.0
17461,61.0,0,90,4.0,0.0
17462,60.0,0,90,4.0,0.0
17463,72.0,0,90,5.0,0.0
17464,78.0,0,90,5.0,0.0
17465,54.0,0,90,4.0,0.0
17466,45.0,0,180,6.0,0.0
17467,45.0,0,180,7.0,0.0
17468,66.0,96,90,6.0,0.0
17469,66.0,0,15,5.0,0.0
17470,72.0,0,90,5.0,0.0
17471,64.0,96,90,6.0,0.0
17472,76.0,0,90,5.0,0.0
17473,54.0,0,90,4.0,0.0
17474,65.0,0,90,5.0,0.0
17475,73.0,0,90,5.0,0.0
17476,65.0,0,90,6.0,0.0
17477,77.0,96,90,5.0,0.0
17478,53.0,0,90,4.0,0.0
17479,44.0,0,180,7.0,0.0
17480,65.0,0,90,6.0,0.0
17481,77.0,0,90,5.0,0.0
17482,73.0,0,90,5.0,0.0
17483,68.0,0,90,5.0,0.0
17484,56.0,96,90,4.0,0.0
17485,78.0,0,90,5.0,0.0
17486,66.0,0,90,5.0,0.0
17487,72.0,0,90,5.0,0.0
17488,66.0,0,90,6.0,0.0
17489,45.0,0,180,7.0,0.0
17490,76.0,96,90,5.0,0.0
17491,54.0,96,15,4.0,0.0
17492,66.0,0,90,5.0,0.0
17493,64.0,0,90,6.0,0.0
17494,72.0,0,90,5.0,0.0
17495,65.0,0,90,6.0,0.0
17496,44.0,0,180,7.0,0.0
17497,65.0,0,90,5.0,0.0
17498,73.0,0,90,5.0,0.0
17499,77.0,0,90,5.0,0.0
17500,53.0,96,15,4.0,0.0
17501,73.0,0,90,5.0,0.0
17502,65.0,96,90,6.0,0.0
17503,77.0,0,90,5.0,0.0
17504,65.0,0,90,5.0,0.0
17505,45.0,0,180,7.0,0.0
17506,64.0,0,90,6.0,0.0
17507,76.0,0,90,5.0,0.0
17508,65.0,0,15,5.0,0.0
17509,63.0,0,90,6.0,0.0
17510,53.0,0,15,4.0,0.0
17511,72.0,96,15,5.0,0.0
17512,75.0,0,90,5.0,0.0
17513,65.0,96,15,5.0,0.0
17514,74.0,0,90,5.0,0.0
17515,62.0,0,90,6.0,0.0
17516,46.0,0,180,7.0,0.0
17517,70.0,96,15,5.0,0.0
17518,65.0,0,15,5.0,0.0
17519,53.0,0,15,4.0,0.0
17520,61.0,0,90,6.0,0.0
17521,73.0,0,90,5.0,0.0
17522,41.0,0,180,7.0,0.0
17523,72.0,96,90,5.0,0.0
17524,53.0,96,15,4.0,0.0
17525,69.0,0,90,5.0,0.0
17526,65.0,0,90,5.0,0.0
17527,60.0,0,90,6.0,0.0
17528,59.0,0,90,4.0,0.0
17529,56.0,0,90,4.0,0.0
17530,47.0,96,90,6.0,0.0
17531,53.0,0,15,4.0,0.0
17532,57.0,0,90,4.0,0.0
17533,60.0,96,90,4.0,0.0
17534,41.0,0,180,6.0,0.0
17535,48.0,0,90,6.0,0.0
17536,49.0,0,90,6.0,0.0
17537,51.0,0,90,4.0,0.0
17538,57.0,0,90,4.0,0.0
17539,61.0,96,90,4.0,0.0
17540,58.0,0,90,4.0,0.0
17541,62.0,0,90,4.0,0.0
17542,50.0,0,90,4.0,0.0
17543,46.0,96,180,6.0,0.0
17544,50.0,96,90,6.0,0.0
17545,62.0,0,90,4.0,0.0
17546,50.0,0,90,6.0,0.0
17547,59.0,0,90,4.0,0.0
17548,56.0,0,90,4.0,0.0
17549,41.0,0,180,6.0,0.0
17550,63.0,0,90,4.0,0.0
17551,57.0,0,90,4.0,0.0
17552,60.0,0,90,4.0,0.0
17553,51.0,96,90,6.0,0.0
17554,52.0,0,90,6.0,0.0
17555,61.0,96,90,4.0,0.0
17556,64.0,0,90,4.0,0.0
17557,55.0,0,90,4.0,0.0
17558,65.0,0,90,4.0,0.0
17559,46.0,0,180,6.0,0.0
17560,53.0,0,90,6.0,0.0
17561,53.0,0,90,4.0,0.0
17562,66.0,96,90,4.0,0.0
17563,54.0,0,90,6.0,0.0
17564,62.0,96,15,4.0,0.0
17565,56.0,0,90,4.0,0.0
17566,63.0,96,90,4.0,0.0
17567,55.0,0,90,6.0,0.0
17568,55.0,0,90,4.0,0.0
17569,51.0,0,90,6.0,0.0
17570,67.0,0,90,4.0,0.0
17571,70.0,0,90,4.0,0.0
17572,58.0,0,90,6.0,0.0
17573,52.0,96,90,6.0,0.0
17574,67.0,0,90,4.0,0.0
17575,61.0,0,90,4.0,0.0
17576,60.0,0,90,4.0,0.0
17577,57.0,0,90,6.0,0.0
17578,65.0,0,90,4.0,0.0
17579,53.0,96,90,6.0,0.0
17580,72.0,0,90,4.0,0.0
17581,63.0,0,90,4.0,0.0
17582,69.0,0,15,4.0,0.0
17583,60.0,96,90,6.0,0.0
17584,54.0,0,90,6.0,0.0
17585,67.0,0,90,4.0,0.0
17586,62.0,0,90,4.0,0.0
17587,71.0,0,90,4.0,0.0
17588,55.0,0,90,6.0,0.0
17589,59.0,96,90,6.0,0.0
17590,71.0,0,90,4.0,0.0
17591,65.0,0,90,4.0,0.0
17592,74.0,0,90,4.0,0.0
17593,56.0,96,90,6.0,0.0
17594,62.0,0,90,6.0,0.0
17595,64.0,0,90,4.0,0.0
17596,69.0,0,90,4.0,0.0
17597,73.0,0,90,4.0,0.0
17598,61.0,96,90,6.0,0.0
17599,57.0,0,90,6.0,0.0
17600,56.0,0,90,6.0,0.0
17601,74.0,96,90,4.0,0.0
17602,62.0,0,90,6.0,0.0
17603,65.0,0,90,4.0,0.0
17604,71.0,0,90,4.0,0.0
17605,64.0,0,90,4.0,0.0
17606,69.0,0,90,4.0,0.0
17607,61.0,96,90,6.0,0.0
17608,73.0,0,90,4.0,0.0
17609,57.0,0,90,6.0,0.0
17610,45.0,0,180,7.0,0.0
17611,49.0,96,90,4.0,0.0
17612,57.0,0,90,4.0,0.0
17613,57.0,0,90,6.0,0.0
17614,49.0,0,90,6.0,0.0
17615,50.0,0,90,4.0,0.0
17616,59.0,96,90,4.0,0.0
17617,50.0,0,90,6.0,0.0
17618,59.0,0,90,6.0,0.0
17619,44.0,0,90,6.0,0.0
17620,52.0,0,90,6.0,0.0
17621,61.0,0,90,6.0,0.0
17622,43.0,0,90,7.0,0.0
17623,45.0,96,180,6.0,0.0
17624,52.0,96,90,4.0,0.0
17625,61.0,0,90,4.0,0.0
17626,57.0,0,90,6.0,0.0
17627,57.0,0,90,4.0,0.0
17628,62.0,0,90,6.0,0.0
17629,42.0,0,90,7.0,0.0
17630,41.0,0,90,7.0,0.0
17631,62.0,0,15,4.0,0.0
17632,56.0,0,90,4.0,0.0
17633,56.0,0,90,6.0,0.0
17634,46.0,0,180,6.0,0.0
17635,62.0,0,90,6.0,0.0
17636,55.0,0,90,6.0,0.0
17637,39.0,0,180,7.0,0.0
17638,55.0,0,90,4.0,0.0
17639,63.0,96,90,4.0,0.0
17640,63.0,0,90,6.0,0.0
17641,58.0,0,90,6.0,0.0
17642,51.0,0,90,4.0,0.0
17643,51.0,96,90,6.0,0.0
17644,43.0,0,90,6.0,0.0
17645,58.0,0,90,4.0,0.0
17646,54.0,0,90,6.0,0.0
17647,54.0,0,90,4.0,0.0
17648,42.0,0,90,6.0,0.0
17649,39.0,96,90,7.0,0.0
17650,53.0,96,90,4.0,0.0
17651,53.0,0,90,6.0,0.0
17652,59.0,0,15,6.0,0.0
17653,59.0,0,15,4.0,0.0
17654,43.0,0,180,6.0,0.0
17655,38.0,0,90,7.0,0.0
17656,52.0,0,180,6.0,0.0
17657,52.0,96,180,4.0,0.0
17658,60.0,0,90,4.0,0.0
17659,60.0,96,90,6.0,0.0
17660,40.0,0,90,6.0,0.0
17661,55.0,0,90,6.0,0.0
17662,55.0,0,90,4.0,0.0
17663,58.0,0,90,6.0,0.0
17664,36.0,0,15,7.0,0.0
17665,58.0,0,90,4.0,0.0
17666,42.0,96,90,6.0,0.0
17667,51.0,0,180,6.0,0.0
17668,51.0,0,180,4.0,0.0
17669,39.0,0,90,6.0,0.0
17670,57.0,0,90,4.0,0.0
17671,57.0,96,90,6.0,0.0
17672,41.0,0,90,6.0,0.0
17673,58.0,0,90,4.0,0.0
17674,34.0,0,90,7.0,0.0
17675,50.0,0,90,4.0,0.0
17676,50.0,96,90,6.0,0.0
17677,58.0,0,90,6.0,0.0
17678,56.0,0,90,4.0,0.0
17679,59.0,0,90,6.0,0.0
17680,59.0,0,90,5.0,0.0
17681,50.0,96,90,4.0,0.0
17682,56.0,0,90,5.0,0.0
17683,60.0,0,90,6.0,0.0
17684,57.0,0,90,4.0,0.0
17685,60.0,0,90,5.0,0.0
17686,57.0,0,90,5.0,0.0
17687,41.0,96,180,7.0,0.0
17688,53.0,96,90,4.0,0.0
17689,61.0,0,90,6.0,0.0
17690,61.0,0,90,5.0,0.0
17691,57.0,0,90,5.0,0.0
17692,57.0,0,90,4.0,0.0
17693,51.0,0,90,4.0,0.0
17694,62.0,0,90,5.0,0.0
17695,58.0,0,90,5.0,0.0
17696,62.0,0,90,6.0,0.0
17697,46.0,96,180,7.0,0.0
17698,58.0,0,90,4.0,0.0
17699,50.0,96,90,4.0,0.0
17700,46.0,0,180,6.0,0.0
17701,62.0,0,90,6.0,0.0
17702,59.0,0,90,4.0,0.0
17703,59.0,0,90,5.0,0.0
17704,56.0,0,90,5.0,0.0
17705,56.0,0,90,4.0,0.0
17706,62.0,0,90,5.0,0.0
17707,41.0,0,180,6.0,0.0
17708,63.0,0,90,6.0,0.0
17709,57.0,0,90,5.0,0.0
17710,60.0,0,90,5.0,0.0
17711,63.0,0,90,5.0,0.0
17712,60.0,96,90,4.0,0.0
17713,57.0,0,90,4.0,0.0
17714,41.0,0,180,7.0,0.0
17715,64.0,0,90,5.0,0.0
17716,55.0,0,90,5.0,0.0
17717,61.0,0,90,5.0,0.0
17718,55.0,0,90,4.0,0.0
17719,64.0,0,90,6.0,0.0
17720,61.0,96,90,4.0,0.0
17721,65.0,0,90,5.0,0.0
17722,65.0,0,90,6.0,0.0
17723,53.0,0,90,4.0,0.0
17724,46.0,0,180,6.0,0.0
17725,53.0,0,90,5.0,0.0
17726,62.0,0,90,4.0,0.0
17727,56.0,96,90,4.0,0.0
17728,66.0,0,90,5.0,0.0
17729,62.0,0,90,4.0,0.0
17730,62.0,96,15,5.0,0.0
17731,66.0,0,90,6.0,0.0
17732,56.0,0,90,5.0,0.0
17733,63.0,96,90,4.0,0.0
17734,67.0,0,90,6.0,0.0
17735,39.0,0,90,6.0,0.0
17736,55.0,0,90,5.0,0.0
17737,39.0,0,90,7.0,0.0
17738,55.0,0,90,4.0,0.0
17739,63.0,0,90,5.0,0.0
17740,40.0,96,90,6.0,0.0
17741,67.0,0,15,5.0,0.0
17742,40.0,0,90,7.0,0.0
17743,67.0,0,90,4.0,0.0
17744,61.0,0,90,4.0,0.0
17745,70.0,0,90,6.0,0.0
17746,70.0,0,90,5.0,0.0
17747,61.0,0,90,5.0,0.0
17748,69.0,96,90,6.0,0.0
17749,41.0,0,90,7.0,0.0
17750,60.0,0,90,4.0,0.0
17751,69.0,0,90,5.0,0.0
17752,41.0,0,90,6.0,0.0
17753,60.0,0,90,5.0,0.0
17754,65.0,0,90,4.0,0.0
17755,65.0,0,90,5.0,0.0
17756,69.0,0,90,5.0,0.0
17757,63.0,0,90,5.0,0.0
17758,69.0,0,90,4.0,0.0
17759,63.0,96,90,4.0,0.0
17760,72.0,0,90,5.0,0.0
17761,42.0,0,90,6.0,0.0
17762,72.0,0,90,6.0,0.0
17763,42.0,0,90,7.0,0.0
17764,71.0,0,90,5.0,0.0
17765,67.0,96,90,4.0,0.0
17766,43.0,0,90,7.0,0.0
17767,71.0,0,90,6.0,0.0
17768,62.0,0,90,5.0,0.0
17769,67.0,0,90,5.0,0.0
17770,43.0,0,90,6.0,0.0
17771,62.0,0,90,4.0,0.0
17772,74.0,0,90,5.0,0.0
17773,74.0,0,90,6.0,0.0
17774,65.0,0,90,4.0,0.0
17775,44.0,0,90,6.0,0.0
17776,65.0,0,90,5.0,0.0
17777,71.0,96,90,4.0,0.0
17778,71.0,0,90,5.0,0.0
17779,44.0,0,90,7.0,0.0
17780,73.0,0,90,5.0,0.0
17781,73.0,0,90,6.0,0.0
17782,45.0,0,90,7.0,0.0
17783,64.0,0,90,4.0,0.0
17784,45.0,96,90,6.0,0.0
17785,69.0,0,90,5.0,0.0
17786,64.0,0,90,5.0,0.0
17787,69.0,0,90,4.0,0.0
17788,44.0,0,90,7.0,0.0
17789,65.0,0,90,4.0,0.0
17790,74.0,0,90,6.0,0.0
17791,71.0,0,90,5.0,0.0
17792,65.0,0,90,5.0,0.0
17793,71.0,96,90,4.0,0.0
17794,74.0,0,90,5.0,0.0
17795,44.0,0,90,6.0,0.0
17796,64.0,0,90,5.0,0.0
17797,45.0,0,90,6.0,0.0
17798,45.0,96,90,7.0,0.0
17799,73.0,0,90,5.0,0.0
17800,69.0,0,90,5.0,0.0
17801,64.0,0,90,4.0,0.0
17802,73.0,0,90,6.0,0.0
17803,69.0,0,90,4.0,0.0
17804,61.0,0,90,5.0,0.0
17805,57.0,0,90,6.0,0.0
17806,57.0,0,90,4.0,0.0
17807,49.0,0,90,4.0,0.0
17808,45.0,0,90,7.0,0.0
17809,44.0,0,90,7.0,0.0
17810,62.0,0,90,5.0,0.0
17811,59.0,0,90,4.0,0.0
17812,59.0,0,90,6.0,0.0
17813,50.0,0,90,4.0,0.0
17814,61.0,96,90,6.0,0.0
17815,57.0,0,15,5.0,0.0
17816,45.0,0,15,6.0,0.0
17817,64.0,0,90,5.0,0.0
17818,57.0,0,15,4.0,0.0
17819,61.0,0,90,4.0,0.0
17820,43.0,0,90,7.0,0.0
17821,52.0,0,90,4.0,0.0
17822,50.0,0,90,4.0,0.0
17823,42.0,0,90,7.0,0.0
17824,62.0,0,90,5.0,0.0
17825,62.0,0,90,5.0,0.0
17826,46.0,0,180,6.0,0.0
17827,62.0,0,15,4.0,0.0
17828,56.0,0,90,4.0,0.0
17829,56.0,0,90,5.0,0.0
17830,58.0,0,180,5.0,0.0
17831,41.0,96,90,7.0,0.0
17832,50.0,0,90,4.0,0.0
17833,62.0,0,90,4.0,0.0
17834,62.0,96,15,6.0,0.0
17835,56.0,0,90,6.0,0.0
17836,55.0,0,180,6.0,0.0
17837,51.0,0,180,4.0,0.0
17838,55.0,0,180,4.0,0.0
17839,63.0,0,90,4.0,0.0
17840,63.0,0,90,6.0,0.0
17841,39.0,0,180,7.0,0.0
17842,43.0,0,90,6.0,0.0
17843,58.0,0,90,6.0,0.0
17844,55.0,0,90,5.0,0.0
17845,58.0,0,90,4.0,0.0
17846,47.0,0,90,4.0,0.0
17847,54.0,0,90,6.0,0.0
17848,54.0,96,90,5.0,0.0
17849,63.0,0,15,5.0,0.0
17850,59.0,0,90,4.0,0.0
17851,42.0,0,90,6.0,0.0
17852,54.0,0,90,4.0,0.0
17853,39.0,0,90,7.0,0.0
17854,59.0,0,15,6.0,0.0
17855,53.0,0,90,6.0,0.0
17856,38.0,96,90,7.0,0.0
17857,53.0,0,90,4.0,0.0
17858,59.0,0,15,5.0,0.0
17859,62.0,0,90,5.0,0.0
17860,43.0,0,180,6.0,0.0
17861,55.0,0,180,5.0,0.0
17862,47.0,0,90,4.0,0.0
17863,59.0,0,90,4.0,0.0
17864,52.0,0,180,6.0,0.0
17865,60.0,0,90,6.0,0.0
17866,48.0,0,180,4.0,0.0
17867,52.0,0,180,4.0,0.0
17868,60.0,0,390,5.0,0.0
17869,60.0,0,90,4.0,0.0
17870,36.0,0,300,7.0,0.0
17871,40.0,0,90,6.0,0.0
17872,55.0,0,90,4.0,0.0
17873,55.0,0,90,6.0,0.0
17874,51.0,0,180,4.0,0.0
17875,51.0,0,180,6.0,0.0
17876,54.0,0,180,5.0,0.0
17877,58.0,0,90,6.0,0.0
17878,58.0,0,90,4.0,0.0
17879,48.0,192,180,4.0,0.0
17880,42.0,0,90,6.0,0.0
17881,57.0,0,90,6.0,0.0
17882,39.0,0,90,6.0,0.0
17883,57.0,0,90,4.0,0.0
17884,50.0,0,180,6.0,0.0
17885,34.0,0,180,7.0,0.0
17886,58.0,0,180,6.0,0.0
17887,53.0,0,180,5.0,0.0
17888,53.0,0,180,4.0,0.0
17889,58.0,0,180,4.0,0.0
17890,41.0,0,180,6.0,0.0
17891,50.0,48,180,4.0,0.0
17892,62.0,0,180,5.0,0.0
17893,58.0,0,180,5.0,0.0
17894,43.0,48,40,14.0,0.0
17895,58.0,0,150,13.0,0.0
17896,31.0,0,390,15.0,0.0
17897,55.0,0,300,12.0,0.0
17898,55.0,48,40,14.0,0.0
17899,58.0,48,40,14.0,0.0
17900,60.0,0,40,13.0,0.0
17901,62.0,48,40,14.0,0.0
17902,67.0,0,180,2.0,0.0
17903,67.0,16,40,14.0,0.0
17904,67.0,32,60,13.0,0.0
17905,63.0,32,40,14.0,0.0
17906,63.0,16,60,13.0,0.0
17907,60.0,16,40,14.0,0.0
17908,60.0,32,30,13.0,0.0
17909,55.0,48,40,14.0,0.0
17910,62.0,0,30,13.0,0.0
17911,67.0,32,60,13.0,0.0
17912,67.0,16,40,14.0,0.0
17913,31.0,48,390,15.0,0.0
17914,67.0,0,180,2.0,0.0
17915,62.0,32,40,14.0,0.0
17916,62.0,16,60,13.0,0.0
17917,58.0,16,40,14.0,0.0
17918,58.0,32,30,13.0,0.0
17919,55.0,0,40,14.0,0.0
17920,63.0,48,30,13.0,0.0
17921,69.0,0,180,2.0,0.0
17922,66.0,16,40,14.0,0.0
17923,69.0,32,60,13.0,0.0
17924,63.0,32,40,14.0,0.0
17925,63.0,16,60,13.0,0.0
17926,60.0,16,40,14.0,0.0
17927,60.0,32,30,13.0,0.0
17928,55.0,0,40,14.0,0.0
17929,62.0,0,30,13.0,0.0
17930,70.0,0,180,2.0,0.0
17931,67.0,16,40,14.0,0.0
17932,43.0,0,390,15.0,0.0
17933,70.0,32,60,13.0,0.0
17934,62.0,32,40,14.0,0.0
17935,67.0,16,60,13.0,0.0
17936,58.0,16,40,14.0,0.0
17937,62.0,32,30,13.0,0.0
17938,55.0,48,40,14.0,0.0
17939,60.0,0,30,13.0,0.0
17940,69.0,48,180,2.0,0.0
17941,69.0,32,60,13.0,0.0
17942,66.0,16,40,14.0,0.0
17943,63.0,32,40,14.0,0.0
17944,63.0,16,60,13.0,0.0
17945,60.0,16,40,14.0,0.0
17946,60.0,32,30,13.0,0.0
17947,55.0,0,40,14.0,0.0
17948,58.0,0,330,13.0,0.0
17949,67.0,48,40,14.0,0.0
17950,62.0,0,300,2.0,0.0
17951,58.0,24,300,12.0,0.0
17952,62.0,48,40,14.0,0.0
17953,58.0,48,40,14.0,0.0
17954,55.0,48,40,14.0,0.0
17955,60.0,48,40,14.0,0.0
17956,55.0,0,40,14.0,0.0
17957,63.0,0,90,13.0,0.0
17958,51.0,16,40,14.0,0.0
17959,63.0,24,20,2.0,0.0
17960,60.0,0,90,12.0,0.0
17961,65.0,0,20,2.0,0.0
17962,63.0,16,15,2.0,0.0
17963,48.0,0,40,14.0,0.0
17964,65.0,16,15,2.0,0.0
17965,63.0,0,15,2.0,0.0
17966,43.0,48,40,14.0,0.0
17967,62.0,0,150,13.0,0.0
17968,62.0,48,90,2.0,0.0
17969,31.0,48,15,15.0,0.0
17970,59.0,16,240,12.0,0.0
17971,55.0,0,40,14.0,0.0
17972,59.0,48,40,14.0,0.0
17973,63.0,48,40,13.0,0.0
17974,62.0,0,40,14.0,0.0
17975,72.0,48,180,2.0,0.0
17976,67.0,0,40,14.0,0.0
17977,72.0,32,60,13.0,0.0
17978,63.0,32,40,14.0,0.0
17979,67.0,16,60,13.0,0.0
17980,60.0,16,40,14.0,0.0
17981,63.0,32,30,13.0,0.0
17982,55.0,0,40,14.0,0.0
17983,65.0,0,30,13.0,0.0
17984,74.0,32,60,13.0,0.0
17985,74.0,0,180,2.0,0.0
17986,67.0,16,40,14.0,0.0
17987,31.0,0,390,15.0,0.0
17988,62.0,32,40,14.0,0.0
17989,71.0,16,60,13.0,0.0
17990,59.0,16,40,14.0,0.0
17991,65.0,32,30,13.0,0.0
17992,55.0,48,40,14.0,0.0
17993,67.0,0,30,13.0,0.0
17994,67.0,16,40,14.0,0.0
17995,75.0,48,180,2.0,0.0
17996,75.0,32,60,13.0,0.0
17997,63.0,32,40,14.0,0.0
17998,72.0,16,60,13.0,0.0
17999,60.0,16,40,14.0,0.0
18000,67.0,32,30,13.0,0.0
18001,55.0,0,40,14.0,0.0
18002,65.0,0,30,13.0,0.0
18003,74.0,32,60,13.0,0.0
18004,43.0,48,390,15.0,0.0
18005,67.0,16,40,14.0,0.0
18006,74.0,0,180,2.0,0.0
18007,62.0,32,40,14.0,0.0
18008,71.0,16,60,13.0,0.0
18009,59.0,16,40,14.0,0.0
18010,65.0,32,30,13.0,0.0
18011,55.0,0,40,14.0,0.0
18012,62.0,48,30,13.0,0.0
18013,71.0,0,180,2.0,0.0
18014,67.0,16,40,14.0,0.0
18015,71.0,32,60,13.0,0.0
18016,62.0,32,40,14.0,0.0
18017,65.0,16,60,13.0,0.0
18018,59.0,16,40,14.0,0.0
18019,62.0,32,30,13.0,0.0
18020,55.0,0,40,14.0,0.0
18021,60.0,0,30,13.0,0.0
18022,63.0,16,40,14.0,0.0
18023,67.0,0,180,2.0,0.0
18024,67.0,32,60,13.0,0.0
18025,39.0,48,390,15.0,0.0
18026,60.0,32,40,14.0,0.0
18027,63.0,16,60,13.0,0.0
18028,55.0,16,40,14.0,0.0
18029,60.0,32,30,13.0,0.0
18030,51.0,0,40,14.0,0.0
18031,54.0,48,30,13.0,0.0
18032,62.0,16,40,14.0,0.0
18033,57.0,32,60,13.0,0.0
18034,57.0,32,40,14.0,0.0
18035,62.0,16,60,13.0,0.0
18036,54.0,48,40,14.0,0.0
18037,60.0,0,60,13.0,0.0
18038,50.0,0,40,14.0,0.0
18039,58.0,48,150,13.0,0.0
18040,43.0,48,40,14.0,0.0
18041,55.0,0,300,12.0,0.0
18042,31.0,0,390,15.0,0.0
18043,55.0,48,40,14.0,0.0
18044,58.0,0,40,14.0,0.0
18045,62.0,0,40,14.0,0.0
18046,60.0,48,40,13.0,0.0
18047,67.0,32,60,13.0,0.0
18048,67.0,16,40,14.0,0.0
18049,63.0,32,40,14.0,0.0
18050,63.0,16,60,13.0,0.0
18051,60.0,16,40,14.0,0.0
18052,60.0,32,30,13.0,0.0
18053,55.0,48,40,14.0,0.0
18054,62.0,0,30,13.0,0.0
18055,67.0,0,15,2.0,0.0
18056,67.0,16,40,14.0,0.0
18057,67.0,32,60,13.0,0.0
18058,31.0,0,390,15.0,0.0
18059,62.0,32,40,14.0,0.0
18060,62.0,16,60,13.0,0.0
18061,58.0,16,40,14.0,0.0
18062,58.0,32,30,13.0,0.0
18063,55.0,0,40,14.0,0.0
18064,63.0,0,30,13.0,0.0
18065,69.0,32,60,13.0,0.0
18066,69.0,48,180,2.0,0.0
18067,66.0,16,40,14.0,0.0
18068,63.0,32,40,14.0,0.0
18069,63.0,16,60,13.0,0.0
18070,60.0,16,40,14.0,0.0
18071,60.0,32,30,13.0,0.0
18072,55.0,0,40,14.0,0.0
18073,62.0,0,30,13.0,0.0
18074,43.0,0,390,15.0,0.0
18075,70.0,0,180,2.0,0.0
18076,67.0,16,40,14.0,0.0
18077,70.0,32,60,13.0,0.0
18078,62.0,32,40,14.0,0.0
18079,67.0,16,60,13.0,0.0
18080,58.0,16,40,14.0,0.0
18081,62.0,32,30,13.0,0.0
18082,55.0,48,40,14.0,0.0
18083,60.0,0,30,13.0,0.0
18084,69.0,48,180,2.0,0.0
18085,69.0,32,60,13.0,0.0
18086,66.0,16,40,14.0,0.0
18087,63.0,32,40,14.0,0.0
18088,63.0,16,60,13.0,0.0
18089,60.0,16,40,14.0,0.0
18090,60.0,32,30,13.0,0.0
18091,55.0,0,40,14.0,0.0
18092,58.0,0,330,13.0,0.0
18093,58.0,0,300,12.0,0.0
18094,62.0,24,300,2.0,0.0
18095,67.0,48,40,14.0,0.0
18096,31.0,48,390,15.0,0.0
18097,62.0,48,40,14.0,0.0
18098,58.0,48,40,14.0,0.0
18099,55.0,48,40,14.0,0.0
18100,60.0,48,40,14.0,0.0
18101,55.0,0,40,14.0,0.0
18102,63.0,24,20,2.0,0.0
18103,60.0,0,90,12.0,0.0
18104,51.0,16,40,14.0,0.0
18105,63.0,0,90,13.0,0.0
18106,65.0,0,20,2.0,0.0
18107,63.0,16,15,2.0,0.0
18108,48.0,0,40,14.0,0.0
18109,65.0,16,15,2.0,0.0
18110,63.0,0,15,2.0,0.0
18111,62.0,48,90,2.0,0.0
18112,59.0,16,240,12.0,0.0
18113,62.0,48,150,13.0,0.0
18114,43.0,48,40,14.0,0.0
18115,31.0,0,390,15.0,0.0
18116,55.0,0,40,14.0,0.0
18117,59.0,0,40,14.0,0.0
18118,62.0,0,40,14.0,0.0
18119,63.0,48,40,13.0,0.0
18120,72.0,0,180,2.0,0.0
18121,67.0,0,40,14.0,0.0
18122,72.0,32,60,13.0,0.0
18123,63.0,32,40,14.0,0.0
18124,67.0,16,60,13.0,0.0
18125,60.0,16,40,14.0,0.0
18126,63.0,32,30,13.0,0.0
18127,55.0,0,40,14.0,0.0
18128,65.0,48,30,13.0,0.0
18129,74.0,0,180,2.0,0.0
18130,67.0,16,40,14.0,0.0
18131,31.0,48,390,15.0,0.0
18132,74.0,32,60,13.0,0.0
18133,62.0,32,40,14.0,0.0
18134,71.0,16,60,13.0,0.0
18135,59.0,16,40,14.0,0.0
18136,65.0,32,30,13.0,0.0
18137,55.0,0,40,14.0,0.0
18138,67.0,48,30,13.0,0.0
18139,75.0,0,180,2.0,0.0
18140,67.0,16,40,14.0,0.0
18141,75.0,32,60,13.0,0.0
18142,63.0,32,40,14.0,0.0
18143,72.0,16,60,13.0,0.0
18144,60.0,16,40,14.0,0.0
18145,67.0,32,30,13.0,0.0
18146,55.0,0,40,14.0,0.0
18147,65.0,0,30,13.0,0.0
18148,67.0,16,40,14.0,0.0
18149,74.0,0,180,2.0,0.0
18150,74.0,32,60,13.0,0.0
18151,43.0,0,390,15.0,0.0
18152,62.0,32,40,14.0,0.0
18153,71.0,16,60,13.0,0.0
18154,59.0,16,40,14.0,0.0
18155,65.0,32,30,13.0,0.0
18156,55.0,48,40,14.0,0.0
18157,62.0,0,30,13.0,0.0
18158,71.0,0,180,2.0,0.0
18159,71.0,32,60,13.0,0.0
18160,67.0,16,40,14.0,0.0
18161,62.0,32,40,14.0,0.0
18162,65.0,16,60,13.0,0.0
18163,59.0,16,40,14.0,0.0
18164,62.0,32,30,13.0,0.0
18165,55.0,48,40,14.0,0.0
18166,60.0,0,30,13.0,0.0
18167,39.0,0,390,15.0,0.0
18168,63.0,16,40,14.0,0.0
18169,67.0,32,60,13.0,0.0
18170,67.0,48,180,2.0,0.0
18171,60.0,32,40,14.0,0.0
18172,63.0,16,60,13.0,0.0
18173,55.0,16,40,14.0,0.0
18174,60.0,32,30,13.0,0.0
18175,51.0,0,40,14.0,0.0
18176,54.0,0,30,13.0,0.0
18177,57.0,32,60,13.0,0.0
18178,62.0,16,40,14.0,0.0
18179,57.0,32,40,14.0,0.0
18180,62.0,16,60,13.0,0.0
18181,54.0,16,40,14.0,0.0
18182,60.0,32,30,13.0,0.0
18183,50.0,0,40,14.0,0.0
18184,57.0,48,30,13.0,0.0
18185,38.0,48,40,14.0,0.0
18186,60.0,48,180,2.0,0.0
18187,60.0,0,150,13.0,0.0
18188,50.0,48,40,14.0,0.0
18189,54.0,48,40,14.0,0.0
18190,62.0,0,40,13.0,0.0
18191,57.0,0,40,14.0,0.0
18192,70.0,0,60,13.0,0.0
18193,62.0,16,40,14.0,0.0
18194,70.0,32,60,2.0,0.0
18195,58.0,32,40,14.0,0.0
18196,67.0,16,60,13.0,0.0
18197,67.0,0,60,2.0,0.0
18198,55.0,16,40,14.0,0.0
18199,58.0,0,60,2.0,0.0
18200,58.0,32,30,13.0,0.0
18201,50.0,48,40,14.0,0.0
18202,57.0,0,30,13.0,0.0
18203,60.0,48,180,2.0,0.0
18204,38.0,0,15,15.0,0.0
18205,60.0,0,150,13.0,0.0
18206,38.0,48,40,14.0,0.0
18207,50.0,48,40,14.0,0.0
18208,54.0,48,40,14.0,0.0
18209,62.0,0,40,13.0,0.0
18210,57.0,0,40,14.0,0.0
18211,70.0,0,60,13.0,0.0
18212,62.0,16,40,14.0,0.0
18213,70.0,32,60,2.0,0.0
18214,58.0,32,40,14.0,0.0
18215,66.0,0,60,13.0,0.0
18216,66.0,16,60,2.0,0.0
18217,55.0,16,40,14.0,0.0
18218,58.0,32,30,13.0,0.0
18219,58.0,0,60,2.0,0.0
18220,50.0,0,40,14.0,0.0
18221,55.0,48,30,13.0,0.0
18222,60.0,48,150,13.0,0.0
18223,39.0,0,390,15.0,0.0
18224,60.0,0,180,2.0,0.0
18225,39.0,48,40,14.0,0.0
18226,51.0,48,40,14.0,0.0
18227,55.0,0,40,14.0,0.0
18228,58.0,0,40,14.0,0.0
18229,62.0,48,40,13.0,0.0
18230,70.0,32,60,2.0,0.0
18231,65.0,16,40,14.0,0.0
18232,70.0,0,60,13.0,0.0
18233,62.0,32,40,14.0,0.0
18234,68.0,16,60,2.0,0.0
18235,68.0,0,60,13.0,0.0
18236,58.0,16,40,14.0,0.0
18237,62.0,32,30,13.0,0.0
18238,62.0,48,60,2.0,0.0
18239,53.0,0,40,14.0,0.0
18240,58.0,0,30,13.0,0.0
18241,63.0,48,150,13.0,0.0
18242,43.0,48,40,14.0,0.0
18243,43.0,0,390,15.0,0.0
18244,63.0,0,180,2.0,0.0
18245,55.0,48,40,14.0,0.0
18246,58.0,0,40,14.0,0.0
18247,63.0,0,40,14.0,0.0
18248,65.0,48,40,13.0,0.0
18249,72.0,32,60,2.0,0.0
18250,69.0,16,40,14.0,0.0
18251,72.0,0,60,13.0,0.0
18252,65.0,32,40,14.0,0.0
18253,65.0,16,60,13.0,0.0
18254,65.0,0,60,2.0,0.0
18255,60.0,16,40,14.0,0.0
18256,63.0,32,30,13.0,0.0
18257,63.0,48,60,2.0,0.0
18258,57.0,0,40,14.0,0.0
18259,62.0,0,30,13.0,0.0
18260,46.0,48,40,14.0,0.0
18261,65.0,0,150,13.0,0.0
18262,34.0,0,180,15.0,0.0
18263,65.0,0,180,2.0,0.0
18264,58.0,48,40,14.0,0.0
18265,62.0,48,40,14.0,0.0
18266,60.0,48,40,13.0,0.0
18267,65.0,0,40,14.0,0.0
18268,69.0,16,40,14.0,0.0
18269,66.0,0,180,2.0,0.0
18270,29.0,48,180,15.0,0.0
18271,66.0,32,60,13.0,0.0
18272,66.0,32,40,14.0,0.0
18273,63.0,16,60,13.0,0.0
18274,60.0,16,40,14.0,0.0
18275,60.0,32,30,13.0,0.0
18276,58.0,0,40,14.0,0.0
18277,62.0,0,30,13.0,0.0
18278,70.0,16,40,14.0,0.0
18279,65.0,0,180,2.0,0.0
18280,65.0,32,60,13.0,0.0
18281,38.0,0,390,15.0,0.0
18282,65.0,32,40,14.0,0.0
18283,62.0,16,60,13.0,0.0
18284,62.0,16,40,14.0,0.0
18285,58.0,32,30,13.0,0.0
18286,58.0,48,40,14.0,0.0
18287,63.0,0,30,13.0,0.0
18288,67.0,16,40,14.0,0.0
18289,70.0,32,60,13.0,0.0
18290,70.0,0,180,2.0,0.0
18291,63.0,32,40,14.0,0.0
18292,67.0,16,60,13.0,0.0
18293,58.0,16,40,14.0,0.0
18294,63.0,32,30,13.0,0.0
18295,55.0,0,40,14.0,0.0
18296,60.0,48,30,13.0,0.0
18297,68.0,32,60,13.0,0.0
18298,60.0,16,40,14.0,0.0
18299,68.0,0,180,2.0,0.0
18300,36.0,0,180,15.0,0.0
18301,56.0,32,40,14.0,0.0
18302,63.0,16,60,13.0,0.0
18303,51.0,16,40,14.0,0.0
18304,60.0,32,30,13.0,0.0
18305,48.0,48,40,14.0,0.0
18306,57.0,0,30,13.0,0.0
18307,66.0,32,60,13.0,0.0
18308,66.0,0,180,2.0,0.0
18309,38.0,0,180,15.0,0.0
18310,62.0,16,40,14.0,0.0
18311,57.0,32,40,14.0,0.0
18312,60.0,16,60,13.0,0.0
18313,54.0,16,40,14.0,0.0
18314,57.0,32,30,13.0,0.0
18315,50.0,48,40,14.0,0.0
18316,58.0,0,30,13.0,0.0
18317,67.0,0,300,2.0,0.0
18318,67.0,32,60,13.0,0.0
18319,31.0,0,180,15.0,0.0
18320,62.0,16,40,14.0,0.0
18321,58.0,32,40,14.0,0.0
18322,62.0,16,60,13.0,0.0
18323,55.0,48,40,14.0,0.0
18324,60.0,32,60,13.0,0.0
18325,50.0,0,40,14.0,0.0
18326,55.0,16,40,14.0,0.0
18327,58.0,16,30,13.0,0.0
18328,60.0,32,30,13.0,0.0
18329,50.0,0,40,14.0,0.0
18330,58.0,48,30,13.0,0.0
18331,46.0,48,40,14.0,0.0
18332,57.0,0,40,13.0,0.0
18333,43.0,48,40,14.0,0.0
18334,58.0,0,40,13.0,0.0
18335,38.0,0,390,15.0,0.0
18336,60.0,0,180,2.0,0.0
18337,38.0,48,40,14.0,0.0
18338,60.0,48,150,13.0,0.0
18339,50.0,48,40,14.0,0.0
18340,54.0,0,40,14.0,0.0
18341,62.0,0,40,13.0,0.0
18342,57.0,48,40,14.0,0.0
18343,62.0,16,40,14.0,0.0
18344,70.0,0,60,2.0,0.0
18345,70.0,32,60,13.0,0.0
18346,58.0,32,40,14.0,0.0
18347,67.0,16,60,13.0,0.0
18348,67.0,0,60,2.0,0.0
18349,55.0,16,40,14.0,0.0
18350,58.0,48,60,2.0,0.0
18351,58.0,32,30,13.0,0.0
18352,50.0,0,40,14.0,0.0
18353,57.0,0,30,13.0,0.0
18354,60.0,48,150,13.0,0.0
18355,38.0,0,390,15.0,0.0
18356,60.0,0,180,2.0,0.0
18357,38.0,48,40,14.0,0.0
18358,50.0,48,40,14.0,0.0
18359,54.0,0,40,14.0,0.0
18360,62.0,0,40,13.0,0.0
18361,57.0,48,40,14.0,0.0
18362,70.0,32,60,13.0,0.0
18363,62.0,16,40,14.0,0.0
18364,70.0,0,60,2.0,0.0
18365,58.0,32,40,14.0,0.0
18366,66.0,16,60,13.0,0.0
18367,66.0,0,60,2.0,0.0
18368,55.0,16,40,14.0,0.0
18369,58.0,32,30,13.0,0.0
18370,58.0,0,60,2.0,0.0
18371,50.0,0,40,14.0,0.0
18372,55.0,48,30,13.0,0.0
18373,39.0,48,40,14.0,0.0
18374,60.0,0,180,2.0,0.0
18375,39.0,0,390,15.0,0.0
18376,60.0,0,150,13.0,0.0
18377,51.0,48,40,14.0,0.0
18378,55.0,48,40,14.0,0.0
18379,62.0,0,40,13.0,0.0
18380,58.0,48,40,14.0,0.0
18381,70.0,0,60,2.0,0.0
18382,65.0,16,40,14.0,0.0
18383,70.0,32,60,13.0,0.0
18384,62.0,32,40,14.0,0.0
18385,68.0,16,60,2.0,0.0
18386,68.0,0,60,13.0,0.0
18387,58.0,16,40,14.0,0.0
18388,62.0,32,30,13.0,0.0
18389,62.0,0,60,2.0,0.0
18390,53.0,48,40,14.0,0.0
18391,58.0,0,30,13.0,0.0
18392,43.0,0,390,15.0,0.0
18393,63.0,0,180,2.0,0.0
18394,43.0,48,40,14.0,0.0
18395,63.0,0,150,13.0,0.0
18396,55.0,48,40,14.0,0.0
18397,58.0,48,40,14.0,0.0
18398,65.0,0,40,13.0,0.0
18399,63.0,48,40,14.0,0.0
18400,72.0,0,60,13.0,0.0
18401,69.0,16,40,14.0,0.0
18402,72.0,32,60,2.0,0.0
18403,65.0,32,40,14.0,0.0
18404,65.0,0,60,13.0,0.0
18405,65.0,16,60,2.0,0.0
18406,60.0,16,40,14.0,0.0
18407,63.0,32,30,13.0,0.0
18408,63.0,0,60,2.0,0.0
18409,57.0,0,40,14.0,0.0
18410,62.0,48,30,13.0,0.0
18411,46.0,48,40,14.0,0.0
18412,65.0,0,150,13.0,0.0
18413,65.0,0,180,2.0,0.0
18414,34.0,48,180,15.0,0.0
18415,58.0,48,40,14.0,0.0
18416,62.0,48,40,14.0,0.0
18417,65.0,0,40,14.0,0.0
18418,60.0,0,40,13.0,0.0
18419,66.0,48,180,2.0,0.0
18420,66.0,32,60,13.0,0.0
18421,29.0,0,180,15.0,0.0
18422,69.0,16,40,14.0,0.0
18423,66.0,32,40,14.0,0.0
18424,63.0,16,60,13.0,0.0
18425,60.0,16,40,14.0,0.0
18426,60.0,32,30,13.0,0.0
18427,58.0,0,40,14.0,0.0
18428,62.0,0,30,13.0,0.0
18429,70.0,16,40,14.0,0.0
18430,65.0,32,60,13.0,0.0
18431,38.0,0,390,15.0,0.0
18432,65.0,0,180,2.0,0.0
18433,65.0,32,40,14.0,0.0
18434,62.0,16,60,13.0,0.0
18435,62.0,16,40,14.0,0.0
18436,58.0,32,30,13.0,0.0
18437,58.0,48,40,14.0,0.0
18438,63.0,0,30,13.0,0.0
18439,67.0,16,40,14.0,0.0
18440,70.0,32,60,13.0,0.0
18441,70.0,0,180,2.0,0.0
18442,63.0,32,40,14.0,0.0
18443,67.0,16,60,13.0,0.0
18444,58.0,16,40,14.0,0.0
18445,63.0,32,30,13.0,0.0
18446,55.0,0,40,14.0,0.0
18447,60.0,48,30,13.0,0.0
18448,60.0,16,40,14.0,0.0
18449,36.0,48,180,15.0,0.0
18450,68.0,0,180,2.0,0.0
18451,68.0,32,60,13.0,0.0
18452,56.0,32,40,14.0,0.0
18453,63.0,16,60,13.0,0.0
18454,51.0,16,40,14.0,0.0
18455,60.0,32,30,13.0,0.0
18456,48.0,0,40,14.0,0.0
18457,57.0,0,30,13.0,0.0
18458,66.0,0,180,2.0,0.0
18459,62.0,16,40,14.0,0.0
18460,38.0,0,180,15.0,0.0
18461,66.0,32,60,13.0,0.0
18462,57.0,32,40,14.0,0.0
18463,60.0,16,60,13.0,0.0
18464,54.0,16,40,14.0,0.0
18465,57.0,32,30,13.0,0.0
18466,50.0,48,40,14.0,0.0
18467,58.0,0,30,13.0,0.0
18468,67.0,32,300,2.0,0.0
18469,67.0,32,60,13.0,0.0
18470,31.0,0,180,15.0,0.0
18471,62.0,16,40,14.0,0.0
18472,58.0,32,40,14.0,0.0
18473,62.0,16,60,13.0,0.0
18474,55.0,48,40,14.0,0.0
18475,60.0,32,60,13.0,0.0
18476,50.0,0,40,14.0,0.0
18477,55.0,32,60,14.0,0.0
18478,58.0,32,30,13.0,0.0
18479,60.0,0,30,13.0,0.0
18480,58.0,0,120,13.0,0.0
18481,50.0,64,60,14.0,0.0
18482,43.0,240,60,14.0,0.0
18483,70.0,48,40,2.0,0.0
18484,94.0,0,180,0.0,0.0
18485,58.0,48,90,3.0,0.0
18486,65.0,0,40,2.0,0.0
18487,62.0,0,15,1.0,0.0
18488,77.0,0,15,0.0,0.0
18489,70.0,48,40,2.0,0.0
18490,58.0,0,90,3.0,0.0
18491,65.0,48,40,2.0,0.0
18492,69.0,24,40,2.0,0.0
18493,96.0,24,60,0.0,0.0
18494,77.0,0,90,0.0,0.0
18495,65.0,0,40,2.0,0.0
18496,98.0,0,20,0.0,0.0
18497,58.0,0,15,3.0,0.0
18498,77.0,48,90,0.0,0.0
18499,96.0,24,60,0.0,0.0
18500,63.0,48,15,1.0,0.0
18501,69.0,24,40,2.0,0.0
18502,65.0,0,40,2.0,0.0
18503,99.0,0,20,0.0,0.0
18504,70.0,48,40,2.0,0.0
18505,58.0,0,15,3.0,0.0
18506,98.0,0,90,0.0,0.0
18507,62.0,0,90,1.0,0.0
18508,65.0,48,40,2.0,0.0
18509,58.0,0,15,3.0,0.0
18510,62.0,0,90,1.0,0.0
18511,94.0,0,90,0.0,0.0
18512,77.0,0,15,0.0,0.0
18513,70.0,48,40,2.0,0.0
18514,65.0,0,40,2.0,0.0
18515,75.0,0,90,0.0,0.0
18516,70.0,48,40,2.0,0.0
18517,58.0,0,15,3.0,0.0
18518,96.0,0,90,0.0,0.0
18519,67.0,0,40,2.0,0.0
18520,58.0,0,15,3.0,0.0
18521,70.0,48,40,2.0,0.0
18522,75.0,0,90,0.0,0.0
18523,63.0,48,15,1.0,0.0
18524,91.0,0,90,0.0,0.0
18525,67.0,0,40,2.0,0.0
18526,70.0,48,40,2.0,0.0
18527,94.0,0,180,0.0,0.0
18528,58.0,0,90,3.0,0.0
18529,65.0,48,40,2.0,0.0
18530,77.0,0,15,0.0,0.0
18531,62.0,0,15,1.0,0.0
18532,70.0,48,40,2.0,0.0
18533,65.0,0,40,2.0,0.0
18534,58.0,0,15,3.0,0.0
18535,96.0,24,60,0.0,0.0
18536,69.0,24,40,2.0,0.0
18537,63.0,0,90,1.0,0.0
18538,65.0,48,40,2.0,0.0
18539,98.0,0,20,0.0,0.0
18540,58.0,0,15,3.0,0.0
18541,96.0,24,60,0.0,0.0
18542,77.0,0,15,0.0,0.0
18543,69.0,24,40,2.0,0.0
18544,63.0,0,90,1.0,0.0
18545,65.0,48,40,2.0,0.0
18546,99.0,0,20,0.0,0.0
18547,70.0,48,40,2.0,0.0
18548,98.0,0,90,0.0,0.0
18549,77.0,0,15,0.0,0.0
18550,65.0,48,40,2.0,0.0
18551,77.0,0,90,0.0,0.0
18552,58.0,0,15,3.0,0.0
18553,62.0,0,15,1.0,0.0
18554,94.0,0,90,0.0,0.0
18555,70.0,48,40,2.0,0.0
18556,65.0,0,40,2.0,0.0
18557,99.0,0,90,0.0,0.0
18558,58.0,48,15,3.0,0.0
18559,69.0,48,40,2.0,0.0
18560,65.0,0,40,2.0,0.0
18561,77.0,24,15,0.0,0.0
18562,58.0,0,15,3.0,0.0
18563,96.0,0,90,0.0,0.0
18564,69.0,24,40,2.0,0.0
18565,63.0,0,15,1.0,0.0
18566,79.0,0,20,0.0,0.0
18567,65.0,48,40,2.0,0.0
18568,81.0,24,20,0.0,0.0
18569,79.0,0,20,0.0,0.0
18570,70.0,48,40,2.0,0.0
18571,101.0,0,180,0.0,0.0
18572,58.0,0,15,3.0,0.0
18573,65.0,0,40,2.0,0.0
18574,62.0,0,15,1.0,0.0
18575,70.0,48,40,2.0,0.0
18576,58.0,0,15,3.0,0.0
18577,77.0,48,15,0.0,0.0
18578,65.0,0,40,2.0,0.0
18579,77.0,0,15,0.0,0.0
18580,69.0,24,40,2.0,0.0
18581,63.0,0,90,1.0,0.0
18582,58.0,0,90,3.0,0.0
18583,99.0,24,60,0.0,0.0
18584,65.0,0,40,2.0,0.0
18585,101.0,48,20,0.0,0.0
18586,69.0,24,40,2.0,0.0
18587,77.0,0,15,0.0,0.0
18588,99.0,24,60,0.0,0.0
18589,63.0,48,90,1.0,0.0
18590,58.0,0,90,3.0,0.0
18591,65.0,0,40,2.0,0.0
18592,103.0,0,20,0.0,0.0
18593,70.0,48,40,2.0,0.0
18594,77.0,0,15,0.0,0.0
18595,101.0,0,90,0.0,0.0
18596,65.0,0,40,2.0,0.0
18597,62.0,0,15,1.0,0.0
18598,70.0,48,40,2.0,0.0
18599,77.0,48,15,0.0,0.0
18600,58.0,0,15,3.0,0.0
18601,98.0,48,90,0.0,0.0
18602,65.0,0,40,2.0,0.0
18603,63.0,0,90,1.0,0.0
18604,99.0,0,90,0.0,0.0
18605,70.0,48,40,2.0,0.0
18606,67.0,0,40,2.0,0.0
18607,70.0,48,40,2.0,0.0
18608,63.0,0,90,1.0,0.0
18609,58.0,0,15,3.0,0.0
18610,75.0,48,15,0.0,0.0
18611,96.0,0,90,0.0,0.0
18612,67.0,0,40,2.0,0.0
18613,101.0,0,180,0.0,0.0
18614,70.0,48,40,2.0,0.0
18615,65.0,0,40,2.0,0.0
18616,58.0,0,15,3.0,0.0
18617,62.0,0,15,1.0,0.0
18618,70.0,48,40,2.0,0.0
18619,77.0,48,15,0.0,0.0
18620,65.0,0,40,2.0,0.0
18621,69.0,24,40,2.0,0.0
18622,63.0,0,90,1.0,0.0
18623,99.0,24,60,0.0,0.0
18624,58.0,0,90,3.0,0.0
18625,65.0,0,40,2.0,0.0
18626,101.0,0,20,0.0,0.0
18627,69.0,24,40,2.0,0.0
18628,63.0,48,90,1.0,0.0
18629,99.0,24,60,0.0,0.0
18630,77.0,48,15,0.0,0.0
18631,65.0,0,40,2.0,0.0
18632,103.0,0,20,0.0,0.0
18633,101.0,0,90,0.0,0.0
18634,58.0,0,15,3.0,0.0
18635,70.0,48,40,2.0,0.0
18636,77.0,0,15,0.0,0.0
18637,65.0,0,40,2.0,0.0
18638,58.0,0,15,3.0,0.0
18639,77.0,0,15,0.0,0.0
18640,98.0,0,90,0.0,0.0
18641,62.0,48,15,1.0,0.0
18642,70.0,48,40,2.0,0.0
18643,65.0,0,40,2.0,0.0
18644,58.0,0,15,3.0,0.0
18645,77.0,0,15,0.0,0.0
18646,96.0,0,90,0.0,0.0
18647,69.0,48,40,2.0,0.0
18648,65.0,0,40,2.0,0.0
18649,77.0,24,20,0.0,0.0
18650,89.0,0,90,0.0,0.0
18651,69.0,0,40,2.0,0.0
18652,63.0,24,15,1.0,0.0
18653,79.0,24,20,0.0,0.0
18654,65.0,0,40,2.0,0.0
18655,81.0,24,20,0.0,0.0
18656,79.0,0,20,0.0,0.0
18657,70.0,48,40,2.0,0.0
18658,94.0,0,180,0.0,0.0
18659,58.0,48,15,3.0,0.0
18660,65.0,0,40,2.0,0.0
18661,77.0,0,15,0.0,0.0
18662,62.0,0,15,1.0,0.0
18663,70.0,48,40,2.0,0.0
18664,58.0,48,15,3.0,0.0
18665,65.0,0,40,2.0,0.0
18666,77.0,0,15,0.0,0.0
18667,69.0,24,40,2.0,0.0
18668,96.0,24,60,0.0,0.0
18669,65.0,48,40,2.0,0.0
18670,98.0,0,20,0.0,0.0
18671,96.0,24,60,0.0,0.0
18672,58.0,0,15,3.0,0.0
18673,63.0,0,15,1.0,0.0
18674,77.0,0,90,0.0,0.0
18675,69.0,24,40,2.0,0.0
18676,65.0,0,40,2.0,0.0
18677,99.0,0,20,0.0,0.0
18678,58.0,48,15,3.0,0.0
18679,70.0,48,40,2.0,0.0
18680,98.0,0,90,0.0,0.0
18681,65.0,0,40,2.0,0.0
18682,62.0,0,15,1.0,0.0
18683,77.0,0,15,0.0,0.0
18684,58.0,48,15,3.0,0.0
18685,70.0,48,40,2.0,0.0
18686,94.0,0,90,0.0,0.0
18687,65.0,0,40,2.0,0.0
18688,70.0,48,40,2.0,0.0
18689,96.0,48,90,0.0,0.0
18690,58.0,0,90,3.0,0.0
18691,67.0,0,40,2.0,0.0
18692,63.0,0,15,1.0,0.0
18693,70.0,48,40,2.0,0.0
18694,75.0,0,15,0.0,0.0
18695,58.0,48,90,3.0,0.0
18696,91.0,0,90,0.0,0.0
18697,67.0,0,40,2.0,0.0
18698,62.0,0,90,1.0,0.0
18699,94.0,0,180,0.0,0.0
18700,77.0,48,90,0.0,0.0
18701,70.0,48,40,2.0,0.0
18702,65.0,0,40,2.0,0.0
18703,58.0,0,15,3.0,0.0
18704,70.0,48,40,2.0,0.0
18705,62.0,0,90,1.0,0.0
18706,77.0,48,90,0.0,0.0
18707,65.0,0,40,2.0,0.0
18708,69.0,24,40,2.0,0.0
18709,96.0,24,60,0.0,0.0
18710,58.0,0,90,3.0,0.0
18711,63.0,0,90,1.0,0.0
18712,65.0,48,40,2.0,0.0
18713,98.0,0,20,0.0,0.0
18714,96.0,24,60,0.0,0.0
18715,77.0,0,15,0.0,0.0
18716,69.0,24,40,2.0,0.0
18717,58.0,0,90,3.0,0.0
18718,63.0,0,90,1.0,0.0
18719,65.0,48,40,2.0,0.0
18720,99.0,0,20,0.0,0.0
18721,98.0,0,90,0.0,0.0
18722,77.0,0,15,0.0,0.0
18723,70.0,48,40,2.0,0.0
18724,65.0,0,40,2.0,0.0
18725,62.0,0,15,1.0,0.0
18726,77.0,0,15,0.0,0.0
18727,70.0,48,40,2.0,0.0
18728,94.0,48,90,0.0,0.0
18729,58.0,48,15,3.0,0.0
18730,65.0,0,40,2.0,0.0
18731,69.0,48,40,2.0,0.0
18732,58.0,0,90,3.0,0.0
18733,77.0,0,15,0.0,0.0
18734,99.0,0,90,0.0,0.0
18735,65.0,0,40,2.0,0.0
18736,69.0,24,40,2.0,0.0
18737,63.0,0,15,1.0,0.0
18738,96.0,0,90,0.0,0.0
18739,77.0,24,20,0.0,0.0
18740,79.0,0,20,0.0,0.0
18741,81.0,24,20,0.0,0.0
18742,65.0,0,40,2.0,0.0
18743,79.0,0,20,0.0,0.0
18744,101.0,0,180,0.0,0.0
18745,58.0,0,15,3.0,0.0
18746,70.0,48,40,2.0,0.0
18747,65.0,0,40,2.0,0.0
18748,77.0,0,15,0.0,0.0
18749,70.0,48,40,2.0,0.0
18750,62.0,0,15,1.0,0.0
18751,65.0,0,40,2.0,0.0
18752,58.0,48,15,3.0,0.0
18753,69.0,24,40,2.0,0.0
18754,77.0,0,15,0.0,0.0
18755,99.0,24,60,0.0,0.0
18756,65.0,0,40,2.0,0.0
18757,101.0,0,20,0.0,0.0
18758,77.0,0,15,0.0,0.0
18759,99.0,24,60,0.0,0.0
18760,63.0,48,15,1.0,0.0
18761,69.0,24,40,2.0,0.0
18762,65.0,0,40,2.0,0.0
18763,103.0,0,20,0.0,0.0
18764,62.0,0,90,1.0,0.0
18765,58.0,0,15,3.0,0.0
18766,70.0,48,40,2.0,0.0
18767,101.0,0,90,0.0,0.0
18768,77.0,0,90,0.0,0.0
18769,65.0,48,40,2.0,0.0
18770,58.0,0,15,3.0,0.0
18771,98.0,48,90,0.0,0.0
18772,77.0,0,90,0.0,0.0
18773,62.0,0,90,1.0,0.0
18774,70.0,48,40,2.0,0.0
18775,65.0,0,40,2.0,0.0
18776,99.0,48,90,0.0,0.0
18777,58.0,0,15,3.0,0.0
18778,75.0,0,90,0.0,0.0
18779,70.0,48,40,2.0,0.0
18780,67.0,0,40,2.0,0.0
18781,58.0,0,15,3.0,0.0
18782,75.0,0,90,0.0,0.0
18783,70.0,48,40,2.0,0.0
18784,63.0,0,15,1.0,0.0
18785,96.0,0,90,0.0,0.0
18786,67.0,0,40,2.0,0.0
18787,58.0,0,15,3.0,0.0
18788,70.0,48,40,2.0,0.0
18789,101.0,0,180,0.0,0.0
18790,65.0,48,40,2.0,0.0
18791,58.0,0,15,3.0,0.0
18792,77.0,0,15,0.0,0.0
18793,62.0,0,15,1.0,0.0
18794,70.0,48,40,2.0,0.0
18795,65.0,0,40,2.0,0.0
18796,77.0,0,90,0.0,0.0
18797,69.0,24,40,2.0,0.0
18798,99.0,24,60,0.0,0.0
18799,58.0,0,90,3.0,0.0
18800,63.0,0,90,1.0,0.0
18801,65.0,0,40,2.0,0.0
18802,101.0,48,20,0.0,0.0
18803,69.0,24,40,2.0,0.0
18804,99.0,24,60,0.0,0.0
18805,63.0,0,90,1.0,0.0
18806,77.0,0,90,0.0,0.0
18807,58.0,0,90,3.0,0.0
18808,65.0,0,40,2.0,0.0
18809,103.0,48,20,0.0,0.0
18810,77.0,0,90,0.0,0.0
18811,101.0,0,90,0.0,0.0
18812,62.0,0,90,1.0,0.0
18813,70.0,48,40,2.0,0.0
18814,65.0,0,40,2.0,0.0
18815,70.0,48,40,2.0,0.0
18816,62.0,0,90,1.0,0.0
18817,58.0,48,15,3.0,0.0
18818,98.0,0,90,0.0,0.0
18819,65.0,0,40,2.0,0.0
18820,69.0,48,40,2.0,0.0
18821,77.0,48,15,0.0,0.0
18822,96.0,24,90,0.0,0.0
18823,58.0,0,90,3.0,0.0
18824,65.0,0,40,2.0,0.0
18825,63.0,0,15,1.0,0.0
18826,58.0,0,90,3.0,0.0
18827,77.0,0,15,0.0,0.0
18828,69.0,24,40,2.0,0.0
18829,89.0,48,90,0.0,0.0
18830,79.0,0,20,0.0,0.0
18831,65.0,0,40,2.0,0.0
18832,81.0,24,20,0.0,0.0
18833,79.0,0,20,0.0,0.0
18834,58.0,0,90,3.0,0.0
18835,69.0,48,40,2.0,0.0
18836,96.0,0,180,0.0,0.0
18837,65.0,0,40,2.0,0.0
18838,77.0,0,15,0.0,0.0
18839,63.0,48,15,1.0,0.0
18840,69.0,48,40,2.0,0.0
18841,65.0,0,40,2.0,0.0
18842,98.0,24,60,0.0,0.0
18843,58.0,0,15,3.0,0.0
18844,77.0,48,15,0.0,0.0
18845,70.0,24,40,2.0,0.0
18846,65.0,0,40,2.0,0.0
18847,96.0,0,20,0.0,0.0
18848,62.0,0,15,1.0,0.0
18849,58.0,48,15,3.0,0.0
18850,94.0,24,60,0.0,0.0
18851,70.0,24,40,2.0,0.0
18852,65.0,0,40,2.0,0.0
18853,98.0,0,20,0.0,0.0
18854,96.0,0,90,0.0,0.0
18855,77.0,0,15,0.0,0.0
18856,69.0,48,40,2.0,0.0
18857,65.0,0,40,2.0,0.0
18858,101.0,0,180,0.0,0.0
18859,69.0,24,40,2.0,0.0
18860,77.0,24,15,0.0,0.0
18861,58.0,0,15,3.0,0.0
18862,63.0,0,15,1.0,0.0
18863,79.0,0,20,0.0,0.0
18864,81.0,24,20,0.0,0.0
18865,65.0,48,40,2.0,0.0
18866,79.0,0,20,0.0,0.0
18867,63.0,0,15,1.0,0.0
18868,69.0,48,40,2.0,0.0
18869,77.0,0,90,0.0,0.0
18870,65.0,48,40,2.0,0.0
18871,62.0,48,90,1.0,0.0
18872,58.0,0,15,3.0,0.0
18873,70.0,48,40,2.0,0.0
18874,98.0,0,90,0.0,0.0
18875,77.0,0,90,0.0,0.0
18876,65.0,0,40,2.0,0.0
18877,58.0,0,15,3.0,0.0
18878,70.0,48,40,2.0,0.0
18879,96.0,0,90,0.0,0.0
18880,67.0,0,40,2.0,0.0
18881,70.0,24,40,2.0,0.0
18882,79.0,24,15,0.0,0.0
18883,63.0,0,15,1.0,0.0
18884,103.0,0,180,0.0,0.0
18885,81.0,0,20,0.0,0.0
18886,82.0,24,20,0.0,0.0
18887,67.0,48,40,2.0,0.0
18888,81.0,0,20,0.0,0.0
18889,79.0,0,90,0.0,0.0
18890,58.0,0,15,3.0,0.0
18891,70.0,48,40,2.0,0.0
18892,67.0,48,40,2.0,0.0
18893,99.0,0,90,0.0,0.0
18894,63.0,0,15,1.0,0.0
18895,79.0,0,90,0.0,0.0
18896,58.0,0,15,3.0,0.0
18897,70.0,48,40,2.0,0.0
18898,67.0,0,40,2.0,0.0
18899,69.0,48,40,2.0,0.0
18900,65.0,0,90,1.0,0.0
18901,98.0,0,90,0.0,0.0
18902,58.0,48,15,3.0,0.0
18903,81.0,0,90,0.0,0.0
18904,65.0,0,40,2.0,0.0
18905,62.0,0,90,1.0,0.0
18906,69.0,24,40,2.0,0.0
18907,105.0,0,180,0.0,0.0
18908,58.0,24,15,3.0,0.0
18909,81.0,24,20,0.0,0.0
18910,85.0,0,20,0.0,0.0
18911,86.0,24,20,0.0,0.0
18912,65.0,0,40,2.0,0.0
18913,85.0,48,20,0.0,0.0
18914,69.0,48,40,2.0,0.0
18915,58.0,0,90,3.0,0.0
18916,62.0,0,90,1.0,0.0
18917,86.0,0,90,0.0,0.0
18918,65.0,24,40,2.0,0.0
18919,101.0,0,90,0.0,0.0
18920,84.0,24,20,0.0,0.0
18921,58.0,0,90,3.0,0.0
18922,63.0,0,90,1.0,0.0
18923,69.0,0,40,2.0,0.0
18924,86.0,24,20,0.0,0.0
18925,87.0,24,20,0.0,0.0
18926,65.0,0,40,2.0,0.0
18927,84.0,48,20,0.0,0.0
18928,94.0,0,180,0.0,0.0
18929,70.0,48,40,2.0,0.0
18930,62.0,0,90,1.0,0.0
18931,77.0,0,90,0.0,0.0
18932,65.0,0,40,2.0,0.0
18933,70.0,48,40,2.0,0.0
18934,58.0,48,15,3.0,0.0
18935,62.0,0,90,1.0,0.0
18936,65.0,0,40,2.0,0.0
18937,58.0,48,15,3.0,0.0
18938,69.0,24,40,2.0,0.0
18939,96.0,24,60,0.0,0.0
18940,77.0,0,15,0.0,0.0
18941,65.0,0,40,2.0,0.0
18942,98.0,0,20,0.0,0.0
18943,96.0,24,60,0.0,0.0
18944,69.0,24,40,2.0,0.0
18945,58.0,0,15,3.0,0.0
18946,63.0,48,15,1.0,0.0
18947,77.0,0,90,0.0,0.0
18948,65.0,48,40,2.0,0.0
18949,99.0,0,20,0.0,0.0
18950,98.0,0,90,0.0,0.0
18951,77.0,0,90,0.0,0.0
18952,70.0,48,40,2.0,0.0
18953,65.0,0,40,2.0,0.0
18954,94.0,0,90,0.0,0.0
18955,70.0,48,40,2.0,0.0
18956,58.0,0,15,3.0,0.0
18957,62.0,48,15,1.0,0.0
18958,77.0,0,90,0.0,0.0
18959,65.0,0,40,2.0,0.0
18960,79.0,0,90,0.0,0.0
18961,98.0,24,60,0.0,0.0
18962,70.0,24,40,2.0,0.0
18963,62.0,48,15,1.0,0.0
18964,67.0,0,40,2.0,0.0
18965,99.0,0,20,0.0,0.0
18966,98.0,24,60,0.0,0.0
18967,58.0,48,15,3.0,0.0
18968,70.0,24,40,2.0,0.0
18969,67.0,0,40,2.0,0.0
18970,103.0,0,20,0.0,0.0
18971,58.0,0,15,3.0,0.0
18972,79.0,0,15,0.0,0.0
18973,70.0,48,40,2.0,0.0
18974,98.0,0,90,0.0,0.0
18975,62.0,48,15,1.0,0.0
18976,67.0,0,40,2.0,0.0
18977,62.0,48,90,1.0,0.0
18978,79.0,0,15,0.0,0.0
18979,94.0,0,90,0.0,0.0
18980,58.0,48,15,3.0,0.0
18981,70.0,48,40,2.0,0.0
18982,67.0,0,40,2.0,0.0
18983,96.0,0,90,0.0,0.0
18984,63.0,0,90,1.0,0.0
18985,69.0,48,40,2.0,0.0
18986,77.0,0,90,0.0,0.0
18987,65.0,0,40,2.0,0.0
18988,77.0,24,20,0.0,0.0
18989,89.0,0,90,0.0,0.0
18990,58.0,24,15,3.0,0.0
18991,63.0,0,90,1.0,0.0
18992,69.0,0,40,2.0,0.0
18993,79.0,24,20,0.0,0.0
18994,65.0,0,40,2.0,0.0
18995,81.0,24,20,0.0,0.0
18996,79.0,0,20,0.0,0.0
18997,58.0,48,15,3.0,0.0
18998,94.0,0,300,0.0,0.0
18999,70.0,48,40,2.0,0.0
19000,65.0,0,40,2.0,0.0
19001,70.0,48,40,2.0,0.0
19002,77.0,0,15,0.0,0.0
19003,58.0,0,15,3.0,0.0
19004,62.0,48,15,1.0,0.0
19005,65.0,48,40,2.0,0.0
19006,58.0,0,15,3.0,0.0
19007,62.0,0,90,1.0,0.0
19008,70.0,48,40,2.0,0.0
19009,77.0,0,90,0.0,0.0
19010,65.0,0,40,2.0,0.0
19011,70.0,0,40,2.0,0.0
19012,62.0,0,90,1.0,0.0
19013,77.0,24,20,0.0,0.0
19014,58.0,0,90,3.0,0.0
19015,79.0,24,20,0.0,0.0
19016,81.0,24,20,0.0,0.0
19017,65.0,0,40,2.0,0.0
19018,79.0,48,20,0.0,0.0
19019,58.0,0,90,3.0,0.0
19020,69.0,48,40,2.0,0.0
19021,63.0,48,90,1.0,0.0
19022,96.0,0,180,0.0,0.0
19023,77.0,0,90,0.0,0.0
19024,65.0,0,40,2.0,0.0
19025,77.0,0,90,0.0,0.0
19026,69.0,48,40,2.0,0.0
19027,63.0,0,90,1.0,0.0
19028,65.0,0,40,2.0,0.0
19029,70.0,24,40,2.0,0.0
19030,62.0,0,90,1.0,0.0
19031,58.0,48,15,3.0,0.0
19032,98.0,24,60,0.0,0.0
19033,65.0,0,40,2.0,0.0
19034,96.0,48,20,0.0,0.0
19035,77.0,0,15,0.0,0.0
19036,70.0,24,40,2.0,0.0
19037,62.0,0,90,1.0,0.0
19038,94.0,24,60,0.0,0.0
19039,65.0,0,40,2.0,0.0
19040,98.0,0,20,0.0,0.0
19041,69.0,48,40,2.0,0.0
19042,96.0,0,90,0.0,0.0
19043,58.0,0,15,3.0,0.0
19044,77.0,48,15,0.0,0.0
19045,65.0,0,40,2.0,0.0
19046,77.0,0,15,0.0,0.0
19047,63.0,24,15,1.0,0.0
19048,69.0,0,40,2.0,0.0
19049,101.0,48,180,0.0,0.0
19050,79.0,24,20,0.0,0.0
19051,65.0,0,40,2.0,0.0
19052,81.0,24,20,0.0,0.0
19053,79.0,0,20,0.0,0.0
19054,69.0,48,40,2.0,0.0
19055,77.0,0,90,0.0,0.0
19056,58.0,0,15,3.0,0.0
19057,63.0,0,90,1.0,0.0
19058,65.0,0,40,2.0,0.0
19059,62.0,0,90,1.0,0.0
19060,77.0,0,90,0.0,0.0
19061,70.0,48,40,2.0,0.0
19062,98.0,48,90,0.0,0.0
19063,65.0,0,40,2.0,0.0
19064,70.0,48,40,2.0,0.0
19065,96.0,24,90,0.0,0.0
19066,58.0,0,15,3.0,0.0
19067,67.0,0,40,2.0,0.0
19068,70.0,24,40,2.0,0.0
19069,79.0,0,15,0.0,0.0
19070,63.0,0,15,1.0,0.0
19071,103.0,0,180,0.0,0.0
19072,81.0,0,20,0.0,0.0
19073,82.0,24,20,0.0,0.0
19074,67.0,0,40,2.0,0.0
19075,81.0,0,20,0.0,0.0
19076,58.0,48,15,3.0,0.0
19077,70.0,48,40,2.0,0.0
19078,79.0,0,90,0.0,0.0
19079,67.0,0,40,2.0,0.0
19080,99.0,0,90,0.0,0.0
19081,63.0,48,15,1.0,0.0
19082,70.0,48,40,2.0,0.0
19083,79.0,0,90,0.0,0.0
19084,58.0,48,90,3.0,0.0
19085,67.0,0,40,2.0,0.0
19086,69.0,48,40,2.0,0.0
19087,98.0,0,90,0.0,0.0
19088,65.0,24,90,1.0,0.0
19089,81.0,0,90,0.0,0.0
19090,65.0,0,40,2.0,0.0
19091,58.0,0,15,3.0,0.0
19092,105.0,0,180,0.0,0.0
19093,81.0,24,20,0.0,0.0
19094,69.0,24,40,2.0,0.0
19095,85.0,0,20,0.0,0.0
19096,86.0,24,20,0.0,0.0
19097,65.0,0,40,2.0,0.0
19098,85.0,0,20,0.0,0.0
19099,86.0,0,90,0.0,0.0
19100,69.0,48,40,2.0,0.0
19101,62.0,48,15,1.0,0.0
19102,65.0,0,40,2.0,0.0
19103,69.0,0,40,2.0,0.0
19104,84.0,24,20,0.0,0.0
19105,63.0,0,90,1.0,0.0
19106,58.0,0,15,3.0,0.0
19107,101.0,0,90,0.0,0.0
19108,86.0,24,20,0.0,0.0
19109,65.0,0,40,2.0,0.0
19110,87.0,24,20,0.0,0.0
19111,84.0,48,20,0.0,0.0
19112,62.0,0,90,1.0,0.0
19113,70.0,48,40,2.0,0.0
19114,58.0,0,15,3.0,0.0
19115,94.0,0,180,0.0,0.0
19116,65.0,0,40,2.0,0.0
19117,70.0,48,40,2.0,0.0
19118,77.0,48,15,0.0,0.0
19119,58.0,0,15,3.0,0.0
19120,62.0,0,90,1.0,0.0
19121,65.0,48,40,2.0,0.0
19122,58.0,0,15,3.0,0.0
19123,77.0,0,15,0.0,0.0
19124,96.0,24,60,0.0,0.0
19125,63.0,0,90,1.0,0.0
19126,69.0,24,40,2.0,0.0
19127,65.0,0,40,2.0,0.0
19128,98.0,0,20,0.0,0.0
19129,96.0,24,60,0.0,0.0
19130,63.0,0,90,1.0,0.0
19131,69.0,24,40,2.0,0.0
19132,77.0,48,15,0.0,0.0
19133,58.0,48,90,3.0,0.0
19134,65.0,0,40,2.0,0.0
19135,99.0,0,20,0.0,0.0
19136,98.0,0,90,0.0,0.0
19137,58.0,0,90,3.0,0.0
19138,70.0,48,40,2.0,0.0
19139,65.0,48,40,2.0,0.0
19140,62.0,0,15,1.0,0.0
19141,77.0,0,15,0.0,0.0
19142,70.0,48,40,2.0,0.0
19143,94.0,0,90,0.0,0.0
19144,58.0,0,90,3.0,0.0
19145,65.0,0,40,2.0,0.0
19146,98.0,24,60,0.0,0.0
19147,70.0,24,40,2.0,0.0
19148,62.0,0,90,1.0,0.0
19149,67.0,0,40,2.0,0.0
19150,99.0,0,20,0.0,0.0
19151,79.0,0,15,0.0,0.0
19152,70.0,24,40,2.0,0.0
19153,58.0,48,15,3.0,0.0
19154,98.0,24,60,0.0,0.0
19155,67.0,0,40,2.0,0.0
19156,103.0,0,20,0.0,0.0
19157,98.0,48,90,0.0,0.0
19158,70.0,48,40,2.0,0.0
19159,79.0,0,15,0.0,0.0
19160,62.0,0,15,1.0,0.0
19161,58.0,48,15,3.0,0.0
19162,67.0,0,40,2.0,0.0
19163,62.0,0,15,1.0,0.0
19164,58.0,0,15,3.0,0.0
19165,79.0,0,15,0.0,0.0
19166,70.0,48,40,2.0,0.0
19167,94.0,48,90,0.0,0.0
19168,67.0,0,40,2.0,0.0
19169,69.0,48,40,2.0,0.0
19170,96.0,0,90,0.0,0.0
19171,65.0,0,40,2.0,0.0
19172,58.0,0,15,3.0,0.0
19173,69.0,0,40,2.0,0.0
19174,89.0,0,90,0.0,0.0
19175,63.0,24,15,1.0,0.0
19176,77.0,0,15,0.0,0.0
19177,79.0,24,20,0.0,0.0
19178,81.0,24,20,0.0,0.0
19179,65.0,0,40,2.0,0.0
19180,79.0,48,20,0.0,0.0
19181,70.0,48,40,2.0,0.0
19182,94.0,0,300,0.0,0.0
19183,58.0,0,90,3.0,0.0
19184,65.0,0,40,2.0,0.0
19185,77.0,0,15,0.0,0.0
19186,70.0,48,40,2.0,0.0
19187,62.0,48,15,1.0,0.0
19188,58.0,96,90,3.0,0.0
19189,65.0,0,40,2.0,0.0
19190,62.0,0,15,1.0,0.0
19191,77.0,0,15,0.0,0.0
19192,70.0,0,90,2.0,0.0
19193,58.0,384,90,3.0,0.0
19194,34.0,96,90,15.0,0.0
19195,46.0,0,90,14.0,0.0
19196,50.0,96,90,14.0,0.0
19197,53.0,96,90,13.0,0.0
19198,54.0,0,90,13.0,0.0
19199,51.0,0,90,14.0,0.0
19200,34.0,96,90,15.0,0.0
19201,39.0,96,90,10.0,0.0
19202,42.0,96,90,10.0,0.0
19203,51.0,0,90,14.0,0.0
19204,54.0,0,90,13.0,0.0
19205,50.0,0,90,14.0,0.0
19206,34.0,96,90,15.0,0.0
19207,53.0,96,90,10.0,0.0
19208,58.0,96,90,10.0,0.0
19209,57.0,0,90,12.0,0.0
19210,34.0,0,90,15.0,0.0
19211,51.0,0,90,14.0,0.0
19212,60.0,96,90,11.0,0.0
19213,39.0,96,90,10.0,0.0
19214,60.0,0,90,11.0,0.0
19215,57.0,0,90,12.0,0.0
19216,42.0,96,90,10.0,0.0
19217,51.0,0,90,14.0,0.0
19218,53.0,96,90,13.0,0.0
19219,34.0,0,90,15.0,0.0
19220,58.0,96,90,11.0,0.0
19221,62.0,96,90,11.0,0.0
19222,34.0,96,90,15.0,0.0
19223,54.0,0,90,13.0,0.0
19224,63.0,0,90,11.0,0.0
19225,39.0,96,90,10.0,0.0
19226,60.0,0,90,12.0,0.0
19227,42.0,96,90,10.0,0.0
19228,57.0,0,90,12.0,0.0
19229,62.0,0,90,11.0,0.0
19230,62.0,96,90,12.0,0.0
19231,53.0,0,90,13.0,0.0
19232,34.0,0,90,15.0,0.0
19233,38.0,96,90,14.0,0.0
19234,58.0,0,90,11.0,0.0
19235,53.0,0,90,13.0,0.0
19236,41.0,96,90,14.0,0.0
19237,34.0,0,90,15.0,0.0
19238,63.0,96,90,11.0,0.0
19239,54.0,0,90,13.0,0.0
19240,63.0,0,90,12.0,0.0
19241,39.0,0,90,10.0,0.0
19242,60.0,96,90,11.0,0.0
19243,42.0,0,90,10.0,0.0
19244,57.0,96,90,12.0,0.0
19245,50.0,0,90,14.0,0.0
19246,34.0,96,90,15.0,0.0
19247,53.0,96,90,14.0,0.0
19248,58.0,96,90,12.0,0.0
19249,51.0,96,90,13.0,0.0
19250,34.0,0,90,15.0,0.0
19251,60.0,0,90,11.0,0.0
19252,57.0,0,90,12.0,0.0
19253,39.0,96,90,10.0,0.0
19254,60.0,0,90,11.0,0.0
19255,42.0,0,90,10.0,0.0
19256,51.0,0,90,14.0,0.0
19257,57.0,96,90,12.0,0.0
19258,34.0,96,90,15.0,0.0
19259,53.0,0,90,14.0,0.0
19260,58.0,96,90,11.0,0.0
19261,62.0,96,90,11.0,0.0
19262,57.0,96,90,14.0,0.0
19263,63.0,0,90,11.0,0.0
19264,34.0,0,90,15.0,0.0
19265,60.0,0,90,12.0,0.0
19266,39.0,96,90,10.0,0.0
19267,42.0,0,90,10.0,0.0
19268,57.0,96,90,14.0,0.0
19269,60.0,0,90,12.0,0.0
19270,63.0,0,90,13.0,0.0
19271,34.0,0,90,15.0,0.0
19272,58.0,96,90,13.0,0.0
19273,62.0,96,90,11.0,0.0
19274,65.0,96,90,11.0,0.0
19275,34.0,96,90,15.0,0.0
19276,70.0,0,90,12.0,0.0
19277,62.0,0,90,11.0,0.0
19278,38.0,96,90,10.0,0.0
19279,65.0,0,90,12.0,0.0
19280,62.0,0,90,13.0,0.0
19281,41.0,96,90,10.0,0.0
19282,69.0,0,90,12.0,0.0
19283,60.0,0,90,13.0,0.0
19284,34.0,0,90,15.0,0.0
19285,69.0,96,90,11.0,0.0
19286,63.0,0,90,11.0,0.0
19287,39.0,96,90,14.0,0.0
19288,60.0,96,90,11.0,0.0
19289,42.0,0,90,14.0,0.0
19290,34.0,0,90,15.0,0.0
19291,57.0,96,90,13.0,0.0
19292,39.0,96,90,10.0,0.0
19293,51.0,0,90,13.0,0.0
19294,42.0,0,90,10.0,0.0
19295,48.0,96,90,13.0,0.0
19296,46.0,0,90,14.0,0.0
19297,34.0,96,90,15.0,0.0
19298,50.0,96,90,14.0,0.0
19299,53.0,96,90,13.0,0.0
19300,54.0,0,90,13.0,0.0
19301,51.0,0,90,14.0,0.0
19302,34.0,96,90,15.0,0.0
19303,39.0,96,90,10.0,0.0
19304,54.0,0,90,13.0,0.0
19305,42.0,96,90,10.0,0.0
19306,51.0,0,90,14.0,0.0
19307,50.0,0,90,14.0,0.0
19308,34.0,96,90,15.0,0.0
19309,53.0,96,90,10.0,0.0
19310,58.0,96,90,10.0,0.0
19311,51.0,0,90,14.0,0.0
19312,57.0,0,90,12.0,0.0
19313,34.0,0,90,15.0,0.0
19314,60.0,96,90,11.0,0.0
19315,39.0,96,90,10.0,0.0
19316,60.0,0,90,11.0,0.0
19317,51.0,96,90,14.0,0.0
19318,42.0,0,90,10.0,0.0
19319,57.0,0,90,12.0,0.0
19320,34.0,0,90,15.0,0.0
19321,53.0,96,90,13.0,0.0
19322,58.0,96,90,11.0,0.0
19323,62.0,96,90,11.0,0.0
19324,63.0,0,90,11.0,0.0
19325,54.0,0,90,13.0,0.0
19326,34.0,96,90,15.0,0.0
19327,60.0,0,90,12.0,0.0
19328,39.0,96,90,10.0,0.0
19329,42.0,96,90,10.0,0.0
19330,57.0,0,90,12.0,0.0
19331,62.0,96,90,12.0,0.0
19332,53.0,0,90,13.0,0.0
19333,34.0,0,90,15.0,0.0
19334,62.0,0,90,11.0,0.0
19335,58.0,0,90,11.0,0.0
19336,38.0,96,90,14.0,0.0
19337,41.0,96,90,14.0,0.0
19338,53.0,0,90,13.0,0.0
19339,34.0,0,90,15.0,0.0
19340,63.0,0,90,11.0,0.0
19341,63.0,0,90,12.0,0.0
19342,54.0,96,90,13.0,0.0
19343,39.0,0,90,10.0,0.0
19344,60.0,96,90,11.0,0.0
19345,57.0,0,90,12.0,0.0
19346,42.0,96,90,10.0,0.0
19347,50.0,0,90,14.0,0.0
19348,34.0,96,90,15.0,0.0
19349,53.0,96,90,14.0,0.0
19350,58.0,96,90,12.0,0.0
19351,34.0,0,90,15.0,0.0
19352,57.0,96,90,12.0,0.0
19353,51.0,0,90,13.0,0.0
19354,60.0,0,90,11.0,0.0
19355,39.0,96,90,10.0,0.0
19356,42.0,0,90,10.0,0.0
19357,57.0,96,90,12.0,0.0
19358,51.0,0,90,14.0,0.0
19359,60.0,0,90,11.0,0.0
19360,53.0,0,90,14.0,0.0
19361,34.0,96,90,15.0,0.0
19362,58.0,96,90,11.0,0.0
19363,62.0,96,90,11.0,0.0
19364,63.0,0,90,11.0,0.0
19365,34.0,0,90,15.0,0.0
19366,60.0,0,90,12.0,0.0
19367,57.0,96,90,14.0,0.0
19368,39.0,96,90,10.0,0.0
19369,42.0,0,90,10.0,0.0
19370,60.0,0,90,12.0,0.0
19371,57.0,0,90,14.0,0.0
19372,63.0,96,90,13.0,0.0
19373,58.0,0,90,13.0,0.0
19374,34.0,96,90,15.0,0.0
19375,62.0,96,90,11.0,0.0
19376,65.0,96,90,11.0,0.0
19377,62.0,96,90,11.0,0.0
19378,70.0,0,90,12.0,0.0
19379,34.0,0,90,15.0,0.0
19380,38.0,96,90,10.0,0.0
19381,65.0,0,90,12.0,0.0
19382,41.0,96,90,10.0,0.0
19383,62.0,0,90,13.0,0.0
19384,69.0,0,90,12.0,0.0
19385,34.0,0,90,15.0,0.0
19386,69.0,0,90,11.0,0.0
19387,60.0,96,90,13.0,0.0
19388,39.0,0,90,14.0,0.0
19389,63.0,96,90,11.0,0.0
19390,42.0,0,90,14.0,0.0
19391,60.0,96,90,11.0,0.0
19392,57.0,0,90,13.0,0.0
19393,34.0,96,90,15.0,0.0
19394,51.0,96,90,13.0,0.0
19395,39.0,0,90,10.0,0.0
19396,42.0,0,90,10.0,0.0
19397,48.0,96,90,13.0,0.0
19398,53.0,0,90,14.0,0.0
19399,41.0,96,90,10.0,0.0
19400,29.0,0,90,15.0,0.0
19401,57.0,96,90,14.0,0.0
19402,30.0,0,90,15.0,0.0
19403,42.0,0,90,10.0,0.0
19404,60.0,96,15,13.0,0.0
19405,63.0,96,90,12.0,0.0
19406,48.0,96,90,10.0,0.0
19407,60.0,96,90,13.0,0.0
19408,63.0,0,90,12.0,0.0
19409,29.0,96,90,15.0,0.0
19410,53.0,0,90,14.0,0.0
19411,41.0,0,90,10.0,0.0
19412,57.0,96,90,14.0,0.0
19413,60.0,96,90,13.0,0.0
19414,30.0,0,90,15.0,0.0
19415,42.0,0,90,10.0,0.0
19416,60.0,96,90,13.0,0.0
19417,63.0,0,90,12.0,0.0
19418,48.0,96,90,10.0,0.0
19419,63.0,0,90,12.0,0.0
19420,51.0,96,90,14.0,0.0
19421,60.0,0,90,13.0,0.0
19422,43.0,0,90,10.0,0.0
19423,31.0,0,90,15.0,0.0
19424,43.0,96,90,14.0,0.0
19425,55.0,0,90,11.0,0.0
19426,59.0,0,90,13.0,0.0
19427,59.0,96,90,11.0,0.0
19428,62.0,96,90,13.0,0.0
19429,62.0,0,90,12.0,0.0
19430,32.0,0,90,15.0,0.0
19431,65.0,0,90,12.0,0.0
19432,44.0,0,90,10.0,0.0
19433,62.0,96,90,11.0,0.0
19434,50.0,96,90,14.0,0.0
19435,62.0,0,90,11.0,0.0
19436,53.0,0,90,14.0,0.0
19437,65.0,96,90,12.0,0.0
19438,45.0,0,90,10.0,0.0
19439,33.0,96,90,15.0,0.0
19440,57.0,0,90,13.0,0.0
19441,61.0,96,90,13.0,0.0
19442,67.0,96,90,11.0,0.0
19443,64.0,96,15,12.0,0.0
19444,34.0,0,90,15.0,0.0
19445,46.0,0,90,10.0,0.0
19446,52.0,96,90,14.0,0.0
19447,55.0,0,90,14.0,0.0
19448,64.0,96,90,12.0,0.0
19449,67.0,0,90,11.0,0.0
19450,29.0,0,90,15.0,0.0
19451,41.0,96,90,14.0,0.0
19452,62.0,0,90,11.0,0.0
19453,41.0,0,90,10.0,0.0
19454,62.0,0,90,12.0,0.0
19455,65.0,96,90,13.0,0.0
19456,70.0,96,90,13.0,0.0
19457,66.0,0,90,12.0,0.0
19458,72.0,0,90,12.0,0.0
19459,46.0,0,90,10.0,0.0
19460,34.0,0,90,15.0,0.0
19461,75.0,96,90,11.0,0.0
19462,69.0,0,90,11.0,0.0
19463,51.0,96,90,14.0,0.0
19464,75.0,96,90,11.0,0.0
19465,69.0,0,90,11.0,0.0
19466,54.0,0,90,14.0,0.0
19467,72.0,0,90,12.0,0.0
19468,66.0,0,90,12.0,0.0
19469,65.0,0,90,13.0,0.0
19470,41.0,0,90,10.0,0.0
19471,29.0,96,90,15.0,0.0
19472,70.0,96,90,13.0,0.0
19473,74.0,96,90,11.0,0.0
19474,34.0,0,90,15.0,0.0
19475,75.0,0,90,11.0,0.0
19476,81.0,0,90,11.0,0.0
19477,78.0,0,90,12.0,0.0
19478,46.0,96,90,10.0,0.0
19479,72.0,0,90,12.0,0.0
19480,51.0,96,90,14.0,0.0
19481,54.0,96,90,14.0,0.0
19482,72.0,0,90,12.0,0.0
19483,78.0,0,90,12.0,0.0
19484,75.0,0,90,11.0,0.0
19485,81.0,0,90,11.0,0.0
19486,27.0,96,90,15.0,0.0
19487,39.0,0,90,10.0,0.0
19488,66.0,0,90,13.0,0.0
19489,70.0,96,90,13.0,0.0
19490,75.0,96,90,12.0,0.0
19491,90.0,0,90,11.0,0.0
19492,34.0,0,90,15.0,0.0
19493,46.0,0,90,14.0,0.0
19494,78.0,96,90,12.0,0.0
19495,51.0,96,90,14.0,0.0
19496,87.0,0,90,11.0,0.0
19497,54.0,96,90,10.0,0.0
19498,81.0,0,90,12.0,0.0
19499,77.0,0,90,11.0,0.0
19500,46.0,0,90,10.0,0.0
19501,34.0,0,90,15.0,0.0
19502,89.0,96,90,12.0,0.0
19503,62.0,0,90,13.0,0.0
19504,86.0,96,90,11.0,0.0
19505,58.0,96,90,13.0,0.0
19506,82.0,0,90,12.0,0.0
19507,77.0,0,90,11.0,0.0
19508,53.0,96,90,14.0,0.0
19509,74.0,96,90,11.0,0.0
19510,50.0,0,90,10.0,0.0
19511,70.0,96,90,11.0,0.0
19512,46.0,0,90,10.0,0.0
19513,29.0,0,90,15.0,0.0
19514,41.0,96,90,10.0,0.0
19515,53.0,0,90,14.0,0.0
19516,57.0,96,90,14.0,0.0
19517,63.0,0,90,12.0,0.0
19518,42.0,0,90,10.0,0.0
19519,60.0,96,15,13.0,0.0
19520,30.0,0,90,15.0,0.0
19521,48.0,96,90,10.0,0.0
19522,60.0,0,90,13.0,0.0
19523,63.0,96,90,12.0,0.0
19524,29.0,96,90,15.0,0.0
19525,41.0,0,90,10.0,0.0
19526,53.0,0,90,14.0,0.0
19527,57.0,96,90,14.0,0.0
19528,60.0,96,90,13.0,0.0
19529,63.0,0,90,12.0,0.0
19530,42.0,0,90,10.0,0.0
19531,60.0,96,90,13.0,0.0
19532,30.0,0,90,15.0,0.0
19533,48.0,96,90,10.0,0.0
19534,63.0,96,90,12.0,0.0
19535,60.0,0,90,13.0,0.0
19536,51.0,0,90,14.0,0.0
19537,43.0,96,90,10.0,0.0
19538,43.0,0,90,14.0,0.0
19539,31.0,0,90,15.0,0.0
19540,55.0,0,90,11.0,0.0
19541,59.0,96,90,13.0,0.0
19542,59.0,0,90,11.0,0.0
19543,62.0,0,90,12.0,0.0
19544,62.0,96,90,13.0,0.0
19545,62.0,0,90,11.0,0.0
19546,44.0,0,90,10.0,0.0
19547,65.0,0,90,12.0,0.0
19548,32.0,96,90,15.0,0.0
19549,50.0,96,90,14.0,0.0
19550,65.0,96,90,12.0,0.0
19551,62.0,0,90,11.0,0.0
19552,53.0,0,90,14.0,0.0
19553,33.0,0,90,15.0,0.0
19554,57.0,0,90,13.0,0.0
19555,45.0,96,90,10.0,0.0
19556,61.0,96,90,13.0,0.0
19557,64.0,96,90,12.0,0.0
19558,64.0,0,90,12.0,0.0
19559,67.0,0,90,11.0,0.0
19560,34.0,0,90,15.0,0.0
19561,46.0,96,90,10.0,0.0
19562,52.0,96,90,14.0,0.0
19563,67.0,0,90,11.0,0.0
19564,55.0,0,90,14.0,0.0
19565,64.0,96,90,12.0,0.0
19566,41.0,0,90,14.0,0.0
19567,29.0,0,90,15.0,0.0
19568,62.0,0,90,11.0,0.0
19569,62.0,96,90,12.0,0.0
19570,41.0,0,90,10.0,0.0
19571,65.0,96,90,13.0,0.0
19572,70.0,96,90,13.0,0.0
19573,66.0,0,90,12.0,0.0
19574,72.0,0,90,12.0,0.0
19575,69.0,96,90,11.0,0.0
19576,75.0,0,90,11.0,0.0
19577,46.0,0,90,10.0,0.0
19578,34.0,0,90,15.0,0.0
19579,51.0,96,90,14.0,0.0
19580,66.0,0,90,12.0,0.0
19581,72.0,0,90,12.0,0.0
19582,75.0,96,90,11.0,0.0
19583,69.0,0,90,11.0,0.0
19584,54.0,0,90,14.0,0.0
19585,41.0,96,90,10.0,0.0
19586,29.0,0,90,15.0,0.0
19587,65.0,0,90,13.0,0.0
19588,70.0,96,90,13.0,0.0
19589,74.0,96,90,11.0,0.0
19590,34.0,0,90,15.0,0.0
19591,78.0,0,90,12.0,0.0
19592,72.0,0,90,12.0,0.0
19593,81.0,0,90,11.0,0.0
19594,75.0,96,90,11.0,0.0
19595,46.0,0,90,10.0,0.0
19596,51.0,96,90,14.0,0.0
19597,72.0,0,90,12.0,0.0
19598,78.0,0,90,12.0,0.0
19599,54.0,96,90,14.0,0.0
19600,81.0,0,90,11.0,0.0
19601,75.0,0,90,11.0,0.0
19602,39.0,0,90,10.0,0.0
19603,66.0,0,90,13.0,0.0
19604,27.0,96,90,15.0,0.0
19605,70.0,96,90,13.0,0.0
19606,75.0,96,90,12.0,0.0
19607,46.0,0,90,14.0,0.0
19608,90.0,0,90,11.0,0.0
19609,78.0,96,90,12.0,0.0
19610,34.0,0,90,15.0,0.0
19611,51.0,0,90,14.0,0.0
19612,87.0,96,90,11.0,0.0
19613,54.0,0,90,10.0,0.0
19614,81.0,96,90,12.0,0.0
19615,46.0,0,90,10.0,0.0
19616,89.0,0,90,12.0,0.0
19617,77.0,96,90,11.0,0.0
19618,34.0,0,90,15.0,0.0
19619,86.0,0,90,11.0,0.0
19620,62.0,96,90,13.0,0.0
19621,82.0,0,90,12.0,0.0
19622,58.0,96,90,13.0,0.0
19623,77.0,0,90,11.0,0.0
19624,53.0,96,90,14.0,0.0
19625,74.0,0,90,11.0,0.0
19626,50.0,96,90,10.0,0.0
19627,46.0,48,90,10.0,0.0
19628,70.0,0,90,11.0,0.0
19629,50.0,48,40,2.0,0.0
19630,41.0,0,90,3.0,0.0
19631,34.0,0,90,15.0,0.0
19632,34.0,0,90,7.0,0.0
19633,50.0,0,40,13.0,0.0
19634,29.0,0,90,3.0,0.0
19635,51.0,48,40,13.0,0.0
19636,51.0,0,40,2.0,0.0
19637,53.0,0,40,13.0,0.0
19638,53.0,48,40,2.0,0.0
19639,54.0,48,40,13.0,0.0
19640,54.0,0,40,2.0,0.0
19641,57.0,48,40,2.0,0.0
19642,57.0,0,40,13.0,0.0
19643,58.0,0,40,2.0,0.0
19644,58.0,32,40,13.0,0.0
19645,57.0,16,30,13.0,0.0
19646,34.0,48,90,15.0,0.0
19647,45.0,0,30,6.0,0.0
19648,48.0,0,30,6.0,0.0
19649,34.0,48,40,3.0,0.0
19650,60.0,0,30,2.0,0.0
19651,57.0,0,30,2.0,0.0
19652,51.0,0,30,6.0,0.0
19653,36.0,0,40,3.0,0.0
19654,36.0,0,40,14.0,0.0
19655,38.0,48,40,14.0,0.0
19656,38.0,0,40,3.0,0.0
19657,39.0,32,40,3.0,0.0
19658,39.0,0,40,14.0,0.0
19659,48.0,0,30,6.0,0.0
19660,57.0,16,30,2.0,0.0
19661,60.0,0,30,2.0,0.0
19662,41.0,48,40,14.0,0.0
19663,51.0,0,30,6.0,0.0
19664,45.0,0,30,6.0,0.0
19665,41.0,0,40,3.0,0.0
19666,42.0,48,40,14.0,0.0
19667,42.0,0,40,3.0,0.0
19668,34.0,0,90,15.0,0.0
19669,53.0,0,40,13.0,0.0
19670,29.0,0,90,3.0,0.0
19671,41.0,0,90,3.0,0.0
19672,41.0,0,90,14.0,0.0
19673,53.0,48,40,2.0,0.0
19674,34.0,0,90,7.0,0.0
19675,54.0,48,40,2.0,0.0
19676,54.0,0,40,13.0,0.0
19677,57.0,0,40,13.0,0.0
19678,57.0,48,40,2.0,0.0
19679,58.0,0,40,2.0,0.0
19680,58.0,48,40,13.0,0.0
19681,60.0,48,40,2.0,0.0
19682,60.0,0,40,13.0,0.0
19683,62.0,0,40,2.0,0.0
19684,62.0,32,40,13.0,0.0
19685,63.0,0,30,2.0,0.0
19686,60.0,0,30,2.0,0.0
19687,34.0,48,40,3.0,0.0
19688,51.0,0,30,6.0,0.0
19689,48.0,0,30,6.0,0.0
19690,60.0,0,30,13.0,0.0
19691,34.0,0,90,15.0,0.0
19692,57.0,0,30,6.0,0.0
19693,36.0,0,40,14.0,0.0
19694,36.0,48,40,3.0,0.0
19695,38.0,0,40,14.0,0.0
19696,38.0,48,40,3.0,0.0
19697,39.0,32,40,14.0,0.0
19698,39.0,0,40,3.0,0.0
19699,48.0,0,30,6.0,0.0
19700,41.0,48,40,3.0,0.0
19701,51.0,16,30,6.0,0.0
19702,60.0,0,30,2.0,0.0
19703,41.0,0,40,14.0,0.0
19704,57.0,0,30,6.0,0.0
19705,63.0,0,30,2.0,0.0
19706,42.0,48,40,14.0,0.0
19707,42.0,0,40,3.0,0.0
19708,41.0,0,90,3.0,0.0
19709,41.0,0,90,15.0,0.0
19710,41.0,0,90,14.0,0.0
19711,34.0,0,90,7.0,0.0
19712,57.0,0,40,13.0,0.0
19713,29.0,0,90,3.0,0.0
19714,57.0,0,40,2.0,0.0
19715,58.0,0,40,2.0,0.0
19716,58.0,0,40,13.0,0.0
19717,60.0,0,40,13.0,0.0
19718,60.0,0,40,2.0,0.0
19719,62.0,0,40,2.0,0.0
19720,62.0,0,40,13.0,0.0
19721,63.0,0,40,13.0,0.0
19722,63.0,0,40,2.0,0.0
19723,65.0,48,40,13.0,0.0
19724,65.0,0,40,2.0,0.0
19725,34.0,0,40,3.0,0.0
19726,66.0,0,40,11.0,0.0
19727,66.0,0,40,2.0,0.0
19728,66.0,48,40,13.0,0.0
19729,36.0,48,40,14.0,0.0
19730,63.0,0,40,2.0,0.0
19731,63.0,0,40,11.0,0.0
19732,36.0,0,40,3.0,0.0
19733,62.0,48,40,2.0,0.0
19734,38.0,0,40,3.0,0.0
19735,62.0,0,40,11.0,0.0
19736,38.0,0,40,14.0,0.0
19737,60.0,0,40,2.0,0.0
19738,60.0,0,40,11.0,0.0
19739,39.0,0,40,14.0,0.0
19740,39.0,48,40,3.0,0.0
19741,58.0,0,40,2.0,0.0
19742,41.0,48,40,3.0,0.0
19743,41.0,0,40,14.0,0.0
19744,58.0,0,40,11.0,0.0
19745,42.0,48,40,14.0,0.0
19746,57.0,0,40,2.0,0.0
19747,57.0,0,40,11.0,0.0
19748,42.0,0,40,3.0,0.0
19749,41.0,0,90,14.0,0.0
19750,65.0,46,40,2.0,0.0
19751,53.0,2,90,2.0,0.0
19752,65.0,0,40,12.0,0.0
19753,41.0,0,90,3.0,0.0
19754,34.0,0,40,15.0,0.0
19755,62.0,0,40,12.0,0.0
19756,62.0,0,40,2.0,0.0
19757,36.0,48,40,15.0,0.0
19758,60.0,0,40,12.0,0.0
19759,38.0,0,40,15.0,0.0
19760,60.0,48,40,2.0,0.0
19761,58.0,0,40,12.0,0.0
19762,39.0,48,40,15.0,0.0
19763,58.0,0,40,2.0,0.0
19764,57.0,0,40,2.0,0.0
19765,57.0,0,40,12.0,0.0
19766,41.0,48,40,15.0,0.0
19767,58.0,48,40,12.0,0.0
19768,42.0,0,40,15.0,0.0
19769,58.0,0,40,2.0,0.0
19770,66.0,0,40,2.0,0.0
19771,34.0,0,40,3.0,0.0
19772,34.0,0,40,2.0,0.0
19773,66.0,48,40,11.0,0.0
19774,54.0,48,90,2.0,0.0
19775,36.0,0,40,3.0,0.0
19776,36.0,0,40,14.0,0.0
19777,36.0,0,40,2.0,0.0
19778,63.0,0,40,11.0,0.0
19779,63.0,0,40,2.0,0.0
19780,38.0,0,40,14.0,0.0
19781,38.0,0,40,3.0,0.0
19782,62.0,0,40,2.0,0.0
19783,62.0,48,40,11.0,0.0
19784,38.0,0,40,2.0,0.0
19785,39.0,0,40,3.0,0.0
19786,39.0,0,40,14.0,0.0
19787,60.0,0,40,2.0,0.0
19788,60.0,48,40,11.0,0.0
19789,39.0,0,40,2.0,0.0
19790,41.0,0,40,2.0,0.0
19791,41.0,0,40,14.0,0.0
19792,58.0,0,40,2.0,0.0
19793,41.0,0,40,3.0,0.0
19794,58.0,48,40,11.0,0.0
19795,57.0,0,40,2.0,0.0
19796,57.0,48,40,11.0,0.0
19797,42.0,0,40,14.0,0.0
19798,42.0,0,40,3.0,0.0
19799,42.0,0,40,2.0,0.0
19800,34.0,0,90,7.0,0.0
19801,62.0,46,40,12.0,0.0
19802,41.0,0,90,14.0,0.0
19803,41.0,48,90,3.0,0.0
19804,53.0,2,90,2.0,0.0
19805,62.0,0,40,2.0,0.0
19806,41.0,0,90,2.0,0.0
19807,29.0,0,90,3.0,0.0
19808,41.0,0,90,15.0,0.0
19809,63.0,0,40,2.0,0.0
19810,63.0,0,40,12.0,0.0
19811,65.0,48,40,2.0,0.0
19812,65.0,0,40,12.0,0.0
19813,66.0,0,40,12.0,0.0
19814,66.0,48,40,2.0,0.0
19815,69.0,0,40,2.0,0.0
19816,69.0,48,40,12.0,0.0
19817,70.0,32,40,2.0,0.0
19818,70.0,0,40,12.0,0.0
19819,69.0,16,30,12.0,0.0
19820,60.0,0,30,4.0,0.0
19821,66.0,0,30,5.0,0.0
19822,34.0,0,40,2.0,0.0
19823,75.0,0,30,5.0,0.0
19824,66.0,0,30,1.0,0.0
19825,75.0,0,30,1.0,0.0
19826,34.0,48,40,15.0,0.0
19827,63.0,0,30,4.0,0.0
19828,57.0,0,30,4.0,0.0
19829,69.0,0,30,2.0,0.0
19830,72.0,0,30,5.0,0.0
19831,54.0,0,30,4.0,0.0
19832,72.0,0,30,2.0,0.0
19833,36.0,48,40,2.0,0.0
19834,36.0,0,40,15.0,0.0
19835,38.0,48,40,2.0,0.0
19836,38.0,0,40,15.0,0.0
19837,39.0,0,40,15.0,0.0
19838,39.0,32,40,2.0,0.0
19839,54.0,0,30,4.0,0.0
19840,41.0,0,40,15.0,0.0
19841,66.0,0,30,1.0,0.0
19842,75.0,0,30,5.0,0.0
19843,63.0,0,30,4.0,0.0
19844,57.0,0,30,4.0,0.0
19845,60.0,0,30,4.0,0.0
19846,41.0,48,40,2.0,0.0
19847,75.0,0,30,1.0,0.0
19848,72.0,0,30,2.0,0.0
19849,72.0,0,30,5.0,0.0
19850,66.0,16,30,5.0,0.0
19851,42.0,0,40,15.0,0.0
19852,42.0,48,40,2.0,0.0
19853,41.0,48,90,15.0,0.0
19854,65.0,48,40,2.0,0.0
19855,65.0,0,40,12.0,0.0
19856,34.0,0,90,7.0,0.0
19857,34.0,0,90,15.0,0.0
19858,29.0,0,90,3.0,0.0
19859,41.0,0,90,2.0,0.0
19860,66.0,0,40,2.0,0.0
19861,66.0,0,40,12.0,0.0
19862,69.0,48,40,12.0,0.0
19863,69.0,0,40,2.0,0.0
19864,70.0,0,40,12.0,0.0
19865,70.0,48,40,2.0,0.0
19866,72.0,0,40,2.0,0.0
19867,72.0,48,40,12.0,0.0
19868,74.0,0,40,2.0,0.0
19869,74.0,32,40,12.0,0.0
19870,60.0,16,30,4.0,0.0
19871,78.0,0,30,1.0,0.0
19872,75.0,0,30,1.0,0.0
19873,78.0,0,30,5.0,0.0
19874,57.0,0,30,4.0,0.0
19875,63.0,0,30,4.0,0.0
19876,75.0,0,30,5.0,0.0
19877,69.0,0,30,2.0,0.0
19878,72.0,0,30,12.0,0.0
19879,66.0,0,30,4.0,0.0
19880,72.0,0,30,2.0,0.0
19881,34.0,48,40,15.0,0.0
19882,69.0,0,30,5.0,0.0
19883,36.0,48,40,15.0,0.0
19884,38.0,48,40,15.0,0.0
19885,39.0,32,40,15.0,0.0
19886,41.0,48,40,15.0,0.0
19887,78.0,0,30,5.0,0.0
19888,69.0,0,30,5.0,0.0
19889,75.0,0,30,5.0,0.0
19890,60.0,0,30,4.0,0.0
19891,66.0,0,30,4.0,0.0
19892,57.0,0,30,4.0,0.0
19893,69.0,0,30,2.0,0.0
19894,78.0,0,30,1.0,0.0
19895,63.0,0,30,4.0,0.0
19896,72.0,0,30,2.0,0.0
19897,75.0,16,30,1.0,0.0
19898,42.0,48,40,15.0,0.0
19899,69.0,48,40,11.0,0.0
19900,41.0,0,90,15.0,0.0
19901,29.0,0,90,3.0,0.0
19902,34.0,48,90,7.0,0.0
19903,70.0,0,40,11.0,0.0
19904,72.0,48,40,11.0,0.0
19905,74.0,48,40,11.0,0.0
19906,75.0,48,40,11.0,0.0
19907,77.0,48,40,11.0,0.0
19908,78.0,48,40,11.0,0.0
19909,82.0,0,40,12.0,0.0
19910,82.0,0,40,11.0,0.0
19911,58.0,0,40,2.0,0.0
19912,34.0,48,40,3.0,0.0
19913,78.0,48,40,12.0,0.0
19914,36.0,0,40,14.0,0.0
19915,60.0,0,40,2.0,0.0
19916,36.0,0,40,3.0,0.0
19917,38.0,0,40,14.0,0.0
19918,38.0,0,40,3.0,0.0
19919,77.0,48,40,12.0,0.0
19920,62.0,0,40,2.0,0.0
19921,39.0,0,40,3.0,0.0
19922,39.0,0,40,14.0,0.0
19923,75.0,48,40,12.0,0.0
19924,63.0,0,40,2.0,0.0
19925,65.0,48,40,2.0,0.0
19926,41.0,0,40,14.0,0.0
19927,74.0,0,40,12.0,0.0
19928,41.0,0,40,3.0,0.0
19929,42.0,0,40,14.0,0.0
19930,75.0,0,40,12.0,0.0
19931,66.0,48,40,2.0,0.0
19932,42.0,0,40,3.0,0.0
19933,46.0,0,40,3.0,0.0
19934,41.0,0,90,14.0,0.0
19935,34.0,0,40,3.0,0.0
19936,58.0,48,40,2.0,0.0
19937,69.0,0,40,2.0,0.0
19938,70.0,0,40,12.0,0.0
19939,34.0,0,40,2.0,0.0
19940,81.0,0,40,11.0,0.0
19941,34.0,0,40,15.0,0.0
19942,36.0,48,40,3.0,0.0
19943,36.0,0,40,2.0,0.0
19944,60.0,0,40,2.0,0.0
19945,36.0,0,40,15.0,0.0
19946,78.0,0,40,11.0,0.0
19947,38.0,0,40,15.0,0.0
19948,62.0,0,40,2.0,0.0
19949,75.0,0,40,11.0,0.0
19950,38.0,0,40,3.0,0.0
19951,38.0,48,40,2.0,0.0
19952,63.0,48,40,2.0,0.0
19953,39.0,0,40,3.0,0.0
19954,72.0,0,40,11.0,0.0
19955,39.0,0,40,15.0,0.0
19956,39.0,0,40,2.0,0.0
19957,65.0,0,40,2.0,0.0
19958,41.0,0,40,2.0,0.0
19959,69.0,0,40,11.0,0.0
19960,41.0,48,40,15.0,0.0
19961,41.0,0,40,3.0,0.0
19962,42.0,0,40,3.0,0.0
19963,42.0,48,40,2.0,0.0
19964,66.0,0,40,2.0,0.0
19965,66.0,0,40,11.0,0.0
19966,42.0,0,40,15.0,0.0
19967,63.0,48,90,2.0,0.0
19968,63.0,0,40,13.0,0.0
19969,46.0,0,40,2.0,0.0
19970,46.0,0,40,3.0,0.0
19971,63.0,48,40,11.0,0.0
19972,34.0,0,40,3.0,0.0
19973,36.0,0,40,3.0,0.0
19974,36.0,0,40,14.0,0.0
19975,60.0,0,40,13.0,0.0
19976,57.0,0,40,13.0,0.0
19977,38.0,0,40,14.0,0.0
19978,38.0,48,40,3.0,0.0
19979,39.0,48,40,14.0,0.0
19980,39.0,0,40,3.0,0.0
19981,54.0,0,40,13.0,0.0
19982,51.0,48,40,13.0,0.0
19983,41.0,0,40,3.0,0.0
19984,41.0,0,40,14.0,0.0
19985,42.0,48,40,3.0,0.0
19986,42.0,0,40,14.0,0.0
19987,48.0,0,40,13.0,0.0
19988,50.0,48,40,2.0,0.0
19989,34.0,0,90,7.0,0.0
19990,29.0,48,90,3.0,0.0
19991,34.0,0,90,15.0,0.0
19992,50.0,0,40,13.0,0.0
19993,41.0,0,90,3.0,0.0
19994,51.0,0,40,13.0,0.0
19995,51.0,0,40,2.0,0.0
19996,53.0,0,40,2.0,0.0
19997,53.0,48,40,13.0,0.0
19998,54.0,48,40,2.0,0.0
19999,54.0,0,40,13.0,0.0
20000,57.0,48,40,13.0,0.0
20001,57.0,0,40,2.0,0.0
20002,58.0,32,40,2.0,0.0
20003,58.0,0,40,13.0,0.0
20004,45.0,0,30,6.0,0.0
20005,48.0,16,30,6.0,0.0
20006,34.0,48,40,3.0,0.0
20007,34.0,0,90,15.0,0.0
20008,57.0,0,30,13.0,0.0
20009,60.0,0,30,2.0,0.0
20010,57.0,0,30,2.0,0.0
20011,51.0,0,30,6.0,0.0
20012,36.0,0,40,3.0,0.0
20013,36.0,48,40,14.0,0.0
20014,38.0,48,40,3.0,0.0
20015,38.0,0,40,14.0,0.0
20016,39.0,32,40,14.0,0.0
20017,39.0,0,40,3.0,0.0
20018,41.0,0,40,3.0,0.0
20019,51.0,16,30,6.0,0.0
20020,48.0,0,30,6.0,0.0
20021,60.0,0,30,2.0,0.0
20022,45.0,0,30,6.0,0.0
20023,57.0,0,30,2.0,0.0
20024,41.0,48,40,14.0,0.0
20025,42.0,0,40,14.0,0.0
20026,42.0,48,40,3.0,0.0
20027,34.0,0,90,15.0,0.0
20028,29.0,0,90,3.0,0.0
20029,41.0,0,90,3.0,0.0
20030,53.0,0,40,13.0,0.0
20031,34.0,0,90,7.0,0.0
20032,53.0,48,40,2.0,0.0
20033,41.0,0,90,14.0,0.0
20034,54.0,0,40,13.0,0.0
20035,54.0,48,40,2.0,0.0
20036,57.0,48,40,13.0,0.0
20037,57.0,0,40,2.0,0.0
20038,58.0,48,40,13.0,0.0
20039,58.0,0,40,2.0,0.0
20040,60.0,48,40,13.0,0.0
20041,60.0,0,40,2.0,0.0
20042,62.0,0,40,2.0,0.0
20043,62.0,32,40,13.0,0.0
20044,51.0,0,30,6.0,0.0
20045,48.0,0,30,6.0,0.0
20046,63.0,0,30,2.0,0.0
20047,34.0,0,90,15.0,0.0
20048,60.0,0,30,2.0,0.0
20049,34.0,48,40,3.0,0.0
20050,60.0,0,30,13.0,0.0
20051,57.0,16,30,6.0,0.0
20052,36.0,0,40,14.0,0.0
20053,36.0,48,40,3.0,0.0
20054,38.0,0,40,14.0,0.0
20055,38.0,48,40,3.0,0.0
20056,39.0,0,40,14.0,0.0
20057,39.0,32,40,3.0,0.0
20058,60.0,0,30,2.0,0.0
20059,63.0,0,30,2.0,0.0
20060,41.0,48,40,14.0,0.0
20061,41.0,0,40,3.0,0.0
20062,57.0,0,30,6.0,0.0
20063,51.0,16,30,6.0,0.0
20064,48.0,0,30,6.0,0.0
20065,42.0,48,40,3.0,0.0
20066,42.0,0,40,14.0,0.0
20067,57.0,48,40,13.0,0.0
20068,41.0,0,90,15.0,0.0
20069,57.0,0,40,2.0,0.0
20070,41.0,0,90,14.0,0.0
20071,34.0,0,90,7.0,0.0
20072,29.0,0,90,3.0,0.0
20073,41.0,48,90,3.0,0.0
20074,58.0,0,40,13.0,0.0
20075,58.0,0,40,2.0,0.0
20076,60.0,0,40,13.0,0.0
20077,60.0,0,40,2.0,0.0
20078,62.0,0,40,2.0,0.0
20079,62.0,0,40,13.0,0.0
20080,63.0,0,40,13.0,0.0
20081,63.0,0,40,2.0,0.0
20082,65.0,0,40,2.0,0.0
20083,65.0,48,40,13.0,0.0
20084,66.0,0,40,13.0,0.0
20085,66.0,48,40,11.0,0.0
20086,34.0,0,40,3.0,0.0
20087,66.0,0,40,2.0,0.0
20088,36.0,0,40,14.0,0.0
20089,36.0,0,40,3.0,0.0
20090,63.0,0,40,2.0,0.0
20091,63.0,48,40,11.0,0.0
20092,62.0,0,40,11.0,0.0
20093,62.0,0,40,2.0,0.0
20094,38.0,48,40,3.0,0.0
20095,38.0,0,40,14.0,0.0
20096,60.0,0,40,2.0,0.0
20097,39.0,0,40,3.0,0.0
20098,39.0,0,40,14.0,0.0
20099,60.0,48,40,11.0,0.0
20100,41.0,48,40,14.0,0.0
20101,58.0,0,40,2.0,0.0
20102,58.0,0,40,11.0,0.0
20103,41.0,0,40,3.0,0.0
20104,42.0,0,40,14.0,0.0
20105,57.0,0,40,2.0,0.0
20106,57.0,0,40,11.0,0.0
20107,42.0,48,40,3.0,0.0
20108,41.0,0,90,14.0,0.0
20109,34.0,46,40,15.0,0.0
20110,65.0,0,40,12.0,0.0
20111,41.0,0,90,3.0,0.0
20112,65.0,0,40,2.0,0.0
20113,53.0,2,90,2.0,0.0
20114,36.0,0,40,15.0,0.0
20115,62.0,0,40,12.0,0.0
20116,62.0,48,40,2.0,0.0
20117,38.0,48,40,15.0,0.0
20118,60.0,0,40,2.0,0.0
20119,60.0,0,40,12.0,0.0
20120,58.0,0,40,2.0,0.0
20121,39.0,0,40,15.0,0.0
20122,58.0,48,40,12.0,0.0
20123,57.0,0,40,12.0,0.0
20124,41.0,0,40,15.0,0.0
20125,57.0,48,40,2.0,0.0
20126,58.0,48,40,12.0,0.0
20127,42.0,0,40,15.0,0.0
20128,58.0,0,40,2.0,0.0
20129,34.0,0,40,2.0,0.0
20130,34.0,48,40,3.0,0.0
20131,66.0,0,40,2.0,0.0
20132,54.0,0,90,2.0,0.0
20133,66.0,0,40,11.0,0.0
20134,63.0,48,40,11.0,0.0
20135,36.0,0,40,2.0,0.0
20136,63.0,0,40,2.0,0.0
20137,36.0,0,40,14.0,0.0
20138,36.0,0,40,3.0,0.0
20139,38.0,48,40,2.0,0.0
20140,62.0,0,40,11.0,0.0
20141,38.0,0,40,3.0,0.0
20142,62.0,0,40,2.0,0.0
20143,38.0,0,40,14.0,0.0
20144,39.0,0,40,14.0,0.0
20145,39.0,0,40,3.0,0.0
20146,39.0,0,40,2.0,0.0
20147,60.0,0,40,2.0,0.0
20148,60.0,48,40,11.0,0.0
20149,58.0,0,40,2.0,0.0
20150,41.0,0,40,14.0,0.0
20151,41.0,0,40,2.0,0.0
20152,58.0,0,40,11.0,0.0
20153,41.0,48,40,3.0,0.0
20154,42.0,0,40,14.0,0.0
20155,57.0,48,40,11.0,0.0
20156,57.0,0,40,2.0,0.0
20157,42.0,0,40,3.0,0.0
20158,42.0,0,40,2.0,0.0
20159,53.0,2,90,2.0,0.0
20160,41.0,0,90,15.0,0.0
20161,62.0,0,40,2.0,0.0
20162,41.0,0,90,3.0,0.0
20163,29.0,48,90,3.0,0.0
20164,41.0,0,90,2.0,0.0
20165,34.0,0,90,7.0,0.0
20166,62.0,46,40,12.0,0.0
20167,41.0,0,90,14.0,0.0
20168,63.0,0,40,12.0,0.0
20169,63.0,0,40,2.0,0.0
20170,65.0,0,40,12.0,0.0
20171,65.0,48,40,2.0,0.0
20172,66.0,0,40,2.0,0.0
20173,66.0,48,40,12.0,0.0
20174,69.0,0,40,12.0,0.0
20175,69.0,48,40,2.0,0.0
20176,70.0,0,40,2.0,0.0
20177,70.0,32,40,12.0,0.0
20178,72.0,0,30,5.0,0.0
20179,54.0,0,30,4.0,0.0
20180,75.0,0,30,5.0,0.0
20181,63.0,0,30,4.0,0.0
20182,57.0,0,30,4.0,0.0
20183,66.0,0,30,1.0,0.0
20184,72.0,0,30,2.0,0.0
20185,34.0,0,40,15.0,0.0
20186,69.0,16,30,2.0,0.0
20187,60.0,0,30,4.0,0.0
20188,34.0,48,40,2.0,0.0
20189,69.0,0,30,12.0,0.0
20190,75.0,0,30,1.0,0.0
20191,66.0,0,30,5.0,0.0
20192,36.0,0,40,2.0,0.0
20193,36.0,48,40,15.0,0.0
20194,38.0,48,40,2.0,0.0
20195,38.0,0,40,15.0,0.0
20196,39.0,0,40,2.0,0.0
20197,39.0,32,40,15.0,0.0
20198,57.0,0,30,4.0,0.0
20199,63.0,0,30,4.0,0.0
20200,54.0,0,30,4.0,0.0
20201,72.0,0,30,2.0,0.0
20202,60.0,0,30,4.0,0.0
20203,75.0,0,30,1.0,0.0
20204,66.0,0,30,1.0,0.0
20205,41.0,0,40,2.0,0.0
20206,72.0,16,30,5.0,0.0
20207,66.0,0,30,5.0,0.0
20208,41.0,48,40,15.0,0.0
20209,75.0,0,30,5.0,0.0
20210,42.0,48,40,15.0,0.0
20211,42.0,0,40,2.0,0.0
20212,41.0,0,90,2.0,0.0
20213,65.0,0,40,12.0,0.0
20214,65.0,48,40,2.0,0.0
20215,34.0,48,90,7.0,0.0
20216,41.0,0,90,15.0,0.0
20217,34.0,0,90,15.0,0.0
20218,29.0,0,90,3.0,0.0
20219,66.0,0,40,2.0,0.0
20220,66.0,0,40,12.0,0.0
20221,69.0,0,40,2.0,0.0
20222,69.0,48,40,12.0,0.0
20223,70.0,48,40,2.0,0.0
20224,70.0,0,40,12.0,0.0
20225,72.0,48,40,12.0,0.0
20226,72.0,0,40,2.0,0.0
20227,74.0,0,40,2.0,0.0
20228,74.0,32,40,12.0,0.0
20229,69.0,0,30,5.0,0.0
20230,75.0,0,30,5.0,0.0
20231,78.0,0,30,1.0,0.0
20232,78.0,0,30,5.0,0.0
20233,66.0,0,30,4.0,0.0
20234,60.0,0,30,4.0,0.0
20235,72.0,0,30,2.0,0.0
20236,75.0,0,30,1.0,0.0
20237,69.0,0,30,2.0,0.0
20238,63.0,0,30,4.0,0.0
20239,57.0,16,30,4.0,0.0
20240,34.0,48,40,15.0,0.0
20241,72.0,0,30,12.0,0.0
20242,36.0,48,40,15.0,0.0
20243,38.0,48,40,15.0,0.0
20244,39.0,32,40,15.0,0.0
20245,69.0,0,30,2.0,0.0
20246,72.0,0,30,2.0,0.0
20247,63.0,0,30,4.0,0.0
20248,57.0,0,30,4.0,0.0
20249,78.0,16,30,1.0,0.0
20250,75.0,0,30,5.0,0.0
20251,69.0,0,30,5.0,0.0
20252,41.0,48,40,15.0,0.0
20253,78.0,0,30,5.0,0.0
20254,60.0,0,30,4.0,0.0
20255,66.0,0,30,4.0,0.0
20256,75.0,0,30,1.0,0.0
20257,42.0,48,40,15.0,0.0
20258,29.0,0,90,3.0,0.0
20259,41.0,0,90,15.0,0.0
20260,34.0,0,90,7.0,0.0
20261,69.0,48,40,11.0,0.0
20262,70.0,48,40,11.0,0.0
20263,72.0,48,40,11.0,0.0
20264,74.0,48,40,11.0,0.0
20265,75.0,48,40,11.0,0.0
20266,77.0,48,40,11.0,0.0
20267,78.0,48,40,11.0,0.0
20268,34.0,0,40,3.0,0.0
20269,82.0,0,40,12.0,0.0
20270,82.0,0,40,11.0,0.0
20271,58.0,48,40,2.0,0.0
20272,36.0,0,40,3.0,0.0
20273,78.0,0,40,12.0,0.0
20274,36.0,48,40,14.0,0.0
20275,60.0,0,40,2.0,0.0
20276,62.0,0,40,2.0,0.0
20277,38.0,48,40,14.0,0.0
20278,38.0,0,40,3.0,0.0
20279,77.0,0,40,12.0,0.0
20280,75.0,0,40,12.0,0.0
20281,39.0,0,40,14.0,0.0
20282,39.0,0,40,3.0,0.0
20283,63.0,48,40,2.0,0.0
20284,41.0,0,40,14.0,0.0
20285,41.0,0,40,3.0,0.0
20286,74.0,48,40,12.0,0.0
20287,65.0,0,40,2.0,0.0
20288,42.0,0,40,3.0,0.0
20289,66.0,0,40,2.0,0.0
20290,42.0,0,40,14.0,0.0
20291,75.0,48,40,12.0,0.0
20292,81.0,0,40,11.0,0.0
20293,34.0,0,40,3.0,0.0
20294,46.0,0,40,3.0,0.0
20295,34.0,48,40,2.0,0.0
20296,70.0,0,40,12.0,0.0
20297,69.0,0,40,2.0,0.0
20298,41.0,48,90,14.0,0.0
20299,58.0,0,40,2.0,0.0
20300,34.0,0,40,15.0,0.0
20301,36.0,0,40,15.0,0.0
20302,36.0,0,40,3.0,0.0
20303,78.0,0,40,11.0,0.0
20304,60.0,0,40,2.0,0.0
20305,36.0,0,40,2.0,0.0
20306,38.0,0,40,15.0,0.0
20307,38.0,48,40,3.0,0.0
20308,75.0,0,40,11.0,0.0
20309,38.0,0,40,2.0,0.0
20310,62.0,0,40,2.0,0.0
20311,63.0,0,40,2.0,0.0
20312,72.0,0,40,11.0,0.0
20313,39.0,0,40,2.0,0.0
20314,39.0,48,40,15.0,0.0
20315,39.0,0,40,3.0,0.0
20316,41.0,48,40,2.0,0.0
20317,69.0,0,40,11.0,0.0
20318,41.0,0,40,3.0,0.0
20319,65.0,0,40,2.0,0.0
20320,41.0,0,40,15.0,0.0
20321,42.0,0,40,2.0,0.0
20322,66.0,0,40,11.0,0.0
20323,42.0,48,40,15.0,0.0
20324,42.0,0,40,3.0,0.0
20325,66.0,0,40,2.0,0.0
20326,63.0,0,40,11.0,0.0
20327,46.0,0,40,2.0,0.0
20328,46.0,0,40,3.0,0.0
20329,63.0,0,90,2.0,0.0
20330,63.0,48,40,13.0,0.0
20331,34.0,0,40,3.0,0.0
20332,36.0,0,40,3.0,0.0
20333,60.0,48,40,13.0,0.0
20334,36.0,0,40,14.0,0.0
20335,38.0,48,40,14.0,0.0
20336,38.0,0,40,3.0,0.0
20337,57.0,0,40,13.0,0.0
20338,39.0,0,40,3.0,0.0
20339,54.0,48,40,13.0,0.0
20340,39.0,0,40,14.0,0.0
20341,41.0,0,40,14.0,0.0
20342,41.0,48,40,3.0,0.0
20343,51.0,0,40,13.0,0.0
20344,42.0,0,40,14.0,0.0
20345,48.0,32,40,13.0,0.0
20346,42.0,0,40,3.0,0.0
20347,41.0,16,30,7.0,0.0
20348,29.0,0,30,15.0,0.0
20349,53.0,48,40,2.0,0.0
20350,53.0,0,40,13.0,0.0
20351,41.0,0,30,3.0,0.0
20352,54.0,48,40,13.0,0.0
20353,54.0,0,40,2.0,0.0
20354,57.0,0,40,13.0,0.0
20355,57.0,48,40,2.0,0.0
20356,58.0,48,40,13.0,0.0
20357,58.0,0,40,2.0,0.0
20358,60.0,48,40,13.0,0.0
20359,60.0,0,40,2.0,0.0
20360,62.0,0,40,2.0,0.0
20361,62.0,32,40,13.0,0.0
20362,48.0,0,30,3.0,0.0
20363,51.0,0,30,3.0,0.0
20364,63.0,0,30,1.0,0.0
20365,63.0,0,30,2.0,0.0
20366,41.0,0,30,7.0,0.0
20367,48.0,64,30,6.0,0.0
20368,51.0,0,30,6.0,0.0
20369,60.0,0,30,2.0,0.0
20370,60.0,0,30,1.0,0.0
20371,41.0,0,30,3.0,0.0
20372,42.0,0,30,6.0,0.0
20373,29.0,0,30,15.0,0.0
20374,60.0,0,30,13.0,0.0
20375,41.0,48,40,14.0,0.0
20376,41.0,0,40,2.0,0.0
20377,42.0,48,40,2.0,0.0
20378,42.0,0,40,14.0,0.0
20379,48.0,0,40,2.0,0.0
20380,48.0,32,40,14.0,0.0
20381,42.0,0,30,6.0,0.0
20382,48.0,0,30,6.0,0.0
20383,63.0,0,30,2.0,0.0
20384,51.0,48,40,2.0,0.0
20385,63.0,16,30,1.0,0.0
20386,60.0,0,30,1.0,0.0
20387,51.0,0,40,14.0,0.0
20388,48.0,0,30,3.0,0.0
20389,51.0,0,30,6.0,0.0
20390,51.0,0,30,3.0,0.0
20391,54.0,32,40,14.0,0.0
20392,54.0,0,40,2.0,0.0
20393,53.0,0,40,13.0,0.0
20394,53.0,48,90,14.0,0.0
20395,41.0,0,30,3.0,0.0
20396,29.0,0,30,15.0,0.0
20397,41.0,16,30,7.0,0.0
20398,53.0,48,40,2.0,0.0
20399,54.0,0,40,2.0,0.0
20400,54.0,0,40,13.0,0.0
20401,57.0,48,40,13.0,0.0
20402,57.0,0,40,2.0,0.0
20403,58.0,48,40,13.0,0.0
20404,58.0,0,40,2.0,0.0
20405,60.0,48,40,2.0,0.0
20406,60.0,0,40,13.0,0.0
20407,62.0,0,40,2.0,0.0
20408,62.0,32,40,13.0,0.0
20409,48.0,0,30,6.0,0.0
20410,51.0,0,30,6.0,0.0
20411,60.0,0,30,2.0,0.0
20412,63.0,0,30,2.0,0.0
20413,41.0,64,30,7.0,0.0
20414,29.0,0,30,15.0,0.0
20415,63.0,0,30,1.0,0.0
20416,48.0,0,30,3.0,0.0
20417,60.0,0,30,1.0,0.0
20418,51.0,0,30,3.0,0.0
20419,42.0,0,30,6.0,0.0
20420,41.0,0,30,3.0,0.0
20421,60.0,0,30,13.0,0.0
20422,41.0,48,40,14.0,0.0
20423,41.0,0,40,2.0,0.0
20424,42.0,0,40,2.0,0.0
20425,42.0,48,40,14.0,0.0
20426,48.0,32,40,2.0,0.0
20427,48.0,0,40,14.0,0.0
20428,51.0,48,40,2.0,0.0
20429,63.0,0,30,1.0,0.0
20430,60.0,0,30,1.0,0.0
20431,42.0,0,30,6.0,0.0
20432,51.0,0,30,6.0,0.0
20433,51.0,0,40,14.0,0.0
20434,48.0,0,30,6.0,0.0
20435,51.0,0,30,3.0,0.0
20436,63.0,16,30,2.0,0.0
20437,48.0,0,30,3.0,0.0
20438,54.0,0,40,14.0,0.0
20439,54.0,32,40,2.0,0.0
20440,31.0,16,30,15.0,0.0
20441,43.0,0,30,3.0,0.0
20442,43.0,0,30,7.0,0.0
20443,55.0,48,90,14.0,0.0
20444,55.0,0,40,2.0,0.0
20445,55.0,48,40,13.0,0.0
20446,56.0,0,40,13.0,0.0
20447,56.0,0,40,2.0,0.0
20448,59.0,0,40,2.0,0.0
20449,59.0,48,40,13.0,0.0
20450,60.0,48,40,2.0,0.0
20451,60.0,0,40,13.0,0.0
20452,62.0,0,40,13.0,0.0
20453,62.0,48,40,2.0,0.0
20454,63.0,32,40,13.0,0.0
20455,63.0,0,40,2.0,0.0
20456,53.0,0,30,6.0,0.0
20457,62.0,0,30,2.0,0.0
20458,53.0,0,30,3.0,0.0
20459,50.0,0,30,3.0,0.0
20460,43.0,0,30,6.0,0.0
20461,62.0,0,30,13.0,0.0
20462,31.0,0,30,15.0,0.0
20463,62.0,0,30,1.0,0.0
20464,65.0,64,30,1.0,0.0
20465,65.0,0,30,2.0,0.0
20466,50.0,0,30,6.0,0.0
20467,43.0,0,30,7.0,0.0
20468,43.0,0,40,14.0,0.0
20469,43.0,48,40,2.0,0.0
20470,44.0,48,40,14.0,0.0
20471,44.0,0,40,2.0,0.0
20472,50.0,32,40,2.0,0.0
20473,50.0,0,40,14.0,0.0
20474,53.0,0,30,6.0,0.0
20475,50.0,0,30,6.0,0.0
20476,62.0,0,30,1.0,0.0
20477,65.0,0,30,1.0,0.0
20478,65.0,0,30,2.0,0.0
20479,53.0,0,40,14.0,0.0
20480,43.0,0,30,6.0,0.0
20481,53.0,48,40,2.0,0.0
20482,50.0,0,30,3.0,0.0
20483,53.0,16,30,3.0,0.0
20484,56.0,0,40,14.0,0.0
20485,56.0,32,40,2.0,0.0
20486,45.0,0,30,7.0,0.0
20487,57.0,48,40,11.0,0.0
20488,45.0,0,30,3.0,0.0
20489,33.0,16,30,15.0,0.0
20490,57.0,0,90,14.0,0.0
20491,57.0,0,40,2.0,0.0
20492,58.0,0,40,2.0,0.0
20493,58.0,0,40,11.0,0.0
20494,61.0,48,40,2.0,0.0
20495,61.0,0,40,11.0,0.0
20496,62.0,48,40,11.0,0.0
20497,62.0,0,40,2.0,0.0
20498,64.0,0,40,2.0,0.0
20499,64.0,48,40,11.0,0.0
20500,65.0,0,40,2.0,0.0
20501,65.0,32,40,11.0,0.0
20502,64.0,0,30,2.0,0.0
20503,67.0,0,30,2.0,0.0
20504,45.0,0,30,6.0,0.0
20505,62.0,0,30,1.0,0.0
20506,65.0,64,30,1.0,0.0
20507,53.0,0,30,3.0,0.0
20508,52.0,0,30,6.0,0.0
20509,55.0,0,30,6.0,0.0
20510,50.0,0,30,3.0,0.0
20511,33.0,0,30,15.0,0.0
20512,45.0,0,30,7.0,0.0
20513,64.0,0,30,11.0,0.0
20514,45.0,0,40,14.0,0.0
20515,45.0,48,40,2.0,0.0
20516,46.0,0,40,14.0,0.0
20517,46.0,48,40,2.0,0.0
20518,52.0,0,40,14.0,0.0
20519,52.0,32,40,2.0,0.0
20520,45.0,16,30,6.0,0.0
20521,55.0,48,40,2.0,0.0
20522,52.0,0,30,6.0,0.0
20523,55.0,0,30,6.0,0.0
20524,65.0,0,30,1.0,0.0
20525,50.0,0,30,3.0,0.0
20526,62.0,0,30,1.0,0.0
20527,53.0,0,30,3.0,0.0
20528,67.0,0,30,2.0,0.0
20529,64.0,0,30,2.0,0.0
20530,55.0,0,40,14.0,0.0
20531,58.0,32,40,2.0,0.0
20532,58.0,0,40,14.0,0.0
20533,62.0,48,40,11.0,0.0
20534,53.0,0,90,14.0,0.0
20535,41.0,16,30,3.0,0.0
20536,29.0,0,30,15.0,0.0
20537,41.0,0,30,7.0,0.0
20538,53.0,48,90,2.0,0.0
20539,63.0,0,40,11.0,0.0
20540,65.0,48,40,11.0,0.0
20541,66.0,48,40,11.0,0.0
20542,69.0,48,40,11.0,0.0
20543,70.0,32,40,11.0,0.0
20544,34.0,0,30,15.0,0.0
20545,66.0,0,30,5.0,0.0
20546,72.0,16,30,5.0,0.0
20547,75.0,0,30,5.0,0.0
20548,72.0,0,30,1.0,0.0
20549,75.0,0,30,1.0,0.0
20550,57.0,0,30,4.0,0.0
20551,51.0,0,30,4.0,0.0
20552,46.0,0,40,2.0,0.0
20553,54.0,0,30,4.0,0.0
20554,62.0,0,30,6.0,0.0
20555,65.0,0,30,6.0,0.0
20556,60.0,0,30,4.0,0.0
20557,46.0,0,30,7.0,0.0
20558,60.0,0,30,3.0,0.0
20559,63.0,0,30,3.0,0.0
20560,54.0,0,30,6.0,0.0
20561,69.0,0,30,2.0,0.0
20562,46.0,48,40,14.0,0.0
20563,66.0,0,30,2.0,0.0
20564,69.0,0,30,11.0,0.0
20565,48.0,0,40,2.0,0.0
20566,48.0,48,40,14.0,0.0
20567,50.0,0,40,2.0,0.0
20568,50.0,48,40,14.0,0.0
20569,51.0,32,40,14.0,0.0
20570,51.0,0,40,2.0,0.0
20571,53.0,0,40,2.0,0.0
20572,63.0,0,30,6.0,0.0
20573,60.0,0,30,4.0,0.0
20574,60.0,0,30,6.0,0.0
20575,75.0,0,30,1.0,0.0
20576,72.0,0,30,1.0,0.0
20577,66.0,0,30,5.0,0.0
20578,63.0,0,30,3.0,0.0
20579,60.0,0,30,3.0,0.0
20580,66.0,0,30,2.0,0.0
20581,69.0,0,30,2.0,0.0
20582,54.0,0,30,6.0,0.0
20583,72.0,0,30,5.0,0.0
20584,54.0,0,30,4.0,0.0
20585,51.0,0,30,4.0,0.0
20586,53.0,48,40,14.0,0.0
20587,75.0,16,30,5.0,0.0
20588,54.0,0,40,2.0,0.0
20589,54.0,32,40,14.0,0.0
20590,53.0,0,90,2.0,0.0
20591,41.0,0,30,3.0,0.0
20592,53.0,0,90,14.0,0.0
20593,29.0,0,30,15.0,0.0
20594,65.0,48,40,11.0,0.0
20595,41.0,16,30,7.0,0.0
20596,66.0,48,40,11.0,0.0
20597,69.0,48,40,11.0,0.0
20598,70.0,48,40,11.0,0.0
20599,72.0,48,40,11.0,0.0
20600,74.0,32,40,11.0,0.0
20601,57.0,0,30,4.0,0.0
20602,63.0,0,30,3.0,0.0
20603,60.0,0,30,3.0,0.0
20604,72.0,0,30,1.0,0.0
20605,72.0,0,30,2.0,0.0
20606,81.0,0,30,5.0,0.0
20607,34.0,0,30,15.0,0.0
20608,69.0,0,30,2.0,0.0
20609,75.0,0,30,1.0,0.0
20610,60.0,0,30,6.0,0.0
20611,66.0,16,30,6.0,0.0
20612,78.0,0,30,5.0,0.0
20613,72.0,0,30,11.0,0.0
20614,46.0,48,40,2.0,0.0
20615,46.0,0,40,14.0,0.0
20616,46.0,0,30,7.0,0.0
20617,60.0,0,30,4.0,0.0
20618,63.0,0,30,4.0,0.0
20619,72.0,0,30,5.0,0.0
20620,63.0,0,30,6.0,0.0
20621,48.0,0,40,2.0,0.0
20622,48.0,48,40,14.0,0.0
20623,50.0,48,40,14.0,0.0
20624,50.0,0,40,2.0,0.0
20625,51.0,32,40,2.0,0.0
20626,51.0,0,40,14.0,0.0
20627,78.0,0,30,5.0,0.0
20628,72.0,0,30,5.0,0.0
20629,72.0,0,30,1.0,0.0
20630,63.0,0,30,6.0,0.0
20631,66.0,0,30,6.0,0.0
20632,69.0,0,30,2.0,0.0
20633,72.0,0,30,2.0,0.0
20634,81.0,0,30,5.0,0.0
20635,60.0,0,30,3.0,0.0
20636,63.0,0,30,4.0,0.0
20637,53.0,0,40,14.0,0.0
20638,53.0,48,40,2.0,0.0
20639,60.0,0,30,4.0,0.0
20640,60.0,0,30,6.0,0.0
20641,63.0,0,30,3.0,0.0
20642,57.0,16,30,4.0,0.0
20643,75.0,0,30,1.0,0.0
20644,54.0,0,40,14.0,0.0
20645,54.0,32,40,2.0,0.0
20646,66.0,0,40,0.0,0.0
20647,51.0,0,90,14.0,0.0
20648,39.0,0,30,3.0,0.0
20649,39.0,0,30,7.0,0.0
20650,66.0,0,40,12.0,0.0
20651,51.0,0,90,2.0,0.0
20652,27.0,0,30,15.0,0.0
20653,72.0,0,30,1.0,0.0
20654,66.0,48,40,2.0,0.0
20655,70.0,0,40,0.0,0.0
20656,70.0,0,40,12.0,0.0
20657,70.0,48,40,2.0,0.0
20658,75.0,0,40,2.0,0.0
20659,75.0,0,40,0.0,0.0
20660,75.0,48,40,12.0,0.0
20661,78.0,48,40,2.0,0.0
20662,78.0,0,40,0.0,0.0
20663,78.0,0,40,12.0,0.0
20664,82.0,0,40,12.0,0.0
20665,82.0,0,40,0.0,0.0
20666,82.0,48,40,2.0,0.0
20667,87.0,0,40,12.0,0.0
20668,87.0,32,40,0.0,0.0
20669,87.0,0,40,2.0,0.0
20670,78.0,0,30,1.0,0.0
20671,46.0,0,30,7.0,0.0
20672,46.0,0,40,2.0,0.0
20673,78.0,0,40,2.0,0.0
20674,90.0,0,40,2.0,0.0
20675,90.0,0,40,12.0,0.0
20676,78.0,0,40,13.0,0.0
20677,90.0,0,40,0.0,0.0
20678,34.0,16,30,15.0,0.0
20679,46.0,0,40,3.0,0.0
20680,46.0,0,40,14.0,0.0
20681,90.0,0,40,11.0,0.0
20682,48.0,0,40,3.0,0.0
20683,48.0,0,40,14.0,0.0
20684,87.0,0,40,2.0,0.0
20685,48.0,0,40,2.0,0.0
20686,87.0,48,40,11.0,0.0
20687,87.0,0,40,0.0,0.0
20688,50.0,0,40,2.0,0.0
20689,86.0,0,40,2.0,0.0
20690,50.0,48,40,3.0,0.0
20691,86.0,0,40,0.0,0.0
20692,86.0,0,40,11.0,0.0
20693,50.0,0,40,14.0,0.0
20694,84.0,0,40,0.0,0.0
20695,51.0,0,40,14.0,0.0
20696,51.0,0,40,2.0,0.0
20697,84.0,0,40,2.0,0.0
20698,51.0,0,40,3.0,0.0
20699,84.0,48,40,11.0,0.0
20700,82.0,48,40,2.0,0.0
20701,82.0,0,40,0.0,0.0
20702,53.0,0,40,14.0,0.0
20703,82.0,0,40,11.0,0.0
20704,53.0,0,40,3.0,0.0
20705,53.0,0,40,2.0,0.0
20706,81.0,32,40,11.0,0.0
20707,81.0,0,40,2.0,0.0
20708,54.0,0,40,3.0,0.0
20709,81.0,0,40,0.0,0.0
20710,54.0,0,40,2.0,0.0
20711,54.0,0,40,14.0,0.0
20712,89.0,0,40,0.0,0.0
20713,77.0,0,40,0.0,0.0
20714,89.0,0,40,12.0,0.0
20715,46.0,0,40,15.0,0.0
20716,53.0,0,40,3.0,0.0
20717,89.0,0,40,2.0,0.0
20718,77.0,2,40,2.0,0.0
20719,46.0,14,30,7.0,0.0
20720,77.0,0,40,11.0,0.0
20721,77.0,0,30,1.0,0.0
20722,53.0,0,40,2.0,0.0
20723,46.0,0,40,3.0,0.0
20724,86.0,0,40,2.0,0.0
20725,86.0,0,40,0.0,0.0
20726,86.0,0,40,12.0,0.0
20727,48.0,0,40,3.0,0.0
20728,48.0,48,40,15.0,0.0
20729,82.0,48,40,2.0,0.0
20730,82.0,0,40,12.0,0.0
20731,50.0,0,40,3.0,0.0
20732,50.0,0,40,15.0,0.0
20733,82.0,0,40,0.0,0.0
20734,51.0,0,40,3.0,0.0
20735,77.0,0,40,0.0,0.0
20736,51.0,0,40,15.0,0.0
20737,77.0,48,40,12.0,0.0
20738,77.0,0,40,2.0,0.0
20739,74.0,0,40,0.0,0.0
20740,74.0,0,40,12.0,0.0
20741,74.0,0,40,2.0,0.0
20742,53.0,0,40,3.0,0.0
20743,53.0,0,40,15.0,0.0
20744,54.0,48,40,15.0,0.0
20745,70.0,0,40,2.0,0.0
20746,54.0,0,40,3.0,0.0
20747,70.0,0,40,0.0,0.0
20748,70.0,0,40,12.0,0.0
20749,58.0,48,40,3.0,0.0
20750,46.0,0,40,14.0,0.0
20751,77.0,0,40,11.0,0.0
20752,77.0,0,40,2.0,0.0
20753,65.0,0,40,2.0,0.0
20754,65.0,0,40,0.0,0.0
20755,65.0,0,40,12.0,0.0
20756,46.0,0,40,2.0,0.0
20757,74.0,0,40,2.0,0.0
20758,48.0,48,40,14.0,0.0
20759,74.0,0,40,11.0,0.0
20760,48.0,0,40,2.0,0.0
20761,50.0,0,40,2.0,0.0
20762,70.0,48,40,11.0,0.0
20763,50.0,0,40,14.0,0.0
20764,70.0,0,40,2.0,0.0
20765,65.0,48,40,2.0,0.0
20766,51.0,0,40,14.0,0.0
20767,65.0,0,40,11.0,0.0
20768,51.0,0,40,2.0,0.0
20769,53.0,0,40,14.0,0.0
20770,62.0,46,40,2.0,0.0
20771,53.0,0,40,2.0,0.0
20772,62.0,0,40,11.0,0.0
20773,54.0,0,40,2.0,0.0
20774,58.0,2,40,2.0,0.0
20775,54.0,0,40,14.0,0.0
20776,58.0,32,40,11.0,0.0
20777,53.0,0,40,2.0,0.0
20778,53.0,48,40,13.0,0.0
20779,41.0,0,30,7.0,0.0
20780,41.0,16,30,3.0,0.0
20781,29.0,0,30,15.0,0.0
20782,54.0,48,40,13.0,0.0
20783,54.0,0,40,2.0,0.0
20784,57.0,48,40,2.0,0.0
20785,57.0,0,40,13.0,0.0
20786,58.0,48,40,13.0,0.0
20787,58.0,0,40,2.0,0.0
20788,60.0,0,40,2.0,0.0
20789,60.0,48,40,13.0,0.0
20790,62.0,0,40,13.0,0.0
20791,62.0,32,40,2.0,0.0
20792,60.0,0,30,13.0,0.0
20793,51.0,0,30,3.0,0.0
20794,63.0,0,30,1.0,0.0
20795,60.0,64,30,1.0,0.0
20796,60.0,0,30,2.0,0.0
20797,63.0,0,30,2.0,0.0
20798,41.0,0,30,7.0,0.0
20799,41.0,0,30,3.0,0.0
20800,42.0,0,30,6.0,0.0
20801,48.0,0,30,6.0,0.0
20802,51.0,0,30,6.0,0.0
20803,29.0,0,30,15.0,0.0
20804,48.0,0,30,3.0,0.0
20805,41.0,0,40,14.0,0.0
20806,41.0,48,40,2.0,0.0
20807,42.0,48,40,14.0,0.0
20808,42.0,0,40,2.0,0.0
20809,48.0,0,40,14.0,0.0
20810,48.0,32,40,2.0,0.0
20811,48.0,0,30,6.0,0.0
20812,51.0,0,30,6.0,0.0
20813,51.0,0,40,14.0,0.0
20814,42.0,0,30,6.0,0.0
20815,51.0,48,40,2.0,0.0
20816,63.0,0,30,2.0,0.0
20817,60.0,0,30,1.0,0.0
20818,63.0,16,30,1.0,0.0
20819,51.0,0,30,3.0,0.0
20820,48.0,0,30,3.0,0.0
20821,54.0,32,40,14.0,0.0
20822,54.0,0,40,2.0,0.0
20823,53.0,0,40,13.0,0.0
20824,53.0,0,90,14.0,0.0
20825,41.0,0,30,3.0,0.0
20826,41.0,16,30,7.0,0.0
20827,29.0,0,30,15.0,0.0
20828,53.0,48,40,2.0,0.0
20829,54.0,48,40,13.0,0.0
20830,54.0,0,40,2.0,0.0
20831,57.0,48,40,13.0,0.0
20832,57.0,0,40,2.0,0.0
20833,58.0,0,40,13.0,0.0
20834,58.0,48,40,2.0,0.0
20835,60.0,48,40,2.0,0.0
20836,60.0,0,40,13.0,0.0
20837,62.0,32,40,2.0,0.0
20838,62.0,0,40,13.0,0.0
20839,41.0,0,30,7.0,0.0
20840,41.0,0,30,3.0,0.0
20841,29.0,0,30,15.0,0.0
20842,60.0,0,30,1.0,0.0
20843,63.0,0,30,1.0,0.0
20844,48.0,0,30,3.0,0.0
20845,51.0,0,30,3.0,0.0
20846,48.0,0,30,6.0,0.0
20847,60.0,64,30,13.0,0.0
20848,42.0,0,30,6.0,0.0
20849,60.0,0,30,2.0,0.0
20850,63.0,0,30,2.0,0.0
20851,51.0,0,30,6.0,0.0
20852,41.0,0,40,14.0,0.0
20853,41.0,48,40,2.0,0.0
20854,42.0,0,40,14.0,0.0
20855,42.0,48,40,2.0,0.0
20856,48.0,32,40,14.0,0.0
20857,48.0,0,40,2.0,0.0
20858,48.0,0,30,6.0,0.0
20859,42.0,0,30,6.0,0.0
20860,63.0,0,30,1.0,0.0
20861,51.0,0,30,6.0,0.0
20862,51.0,48,40,2.0,0.0
20863,51.0,0,40,14.0,0.0
20864,48.0,0,30,3.0,0.0
20865,63.0,16,30,2.0,0.0
20866,51.0,0,30,3.0,0.0
20867,60.0,0,30,1.0,0.0
20868,54.0,0,40,2.0,0.0
20869,54.0,32,40,14.0,0.0
20870,31.0,0,30,15.0,0.0
20871,55.0,48,40,13.0,0.0
20872,43.0,16,30,3.0,0.0
20873,43.0,0,30,7.0,0.0
20874,55.0,0,90,14.0,0.0
20875,55.0,0,40,2.0,0.0
20876,56.0,0,40,2.0,0.0
20877,56.0,0,40,13.0,0.0
20878,59.0,0,40,2.0,0.0
20879,59.0,48,40,13.0,0.0
20880,60.0,0,40,2.0,0.0
20881,60.0,48,40,13.0,0.0
20882,62.0,48,40,2.0,0.0
20883,62.0,0,40,13.0,0.0
20884,63.0,32,40,2.0,0.0
20885,63.0,0,40,13.0,0.0
20886,62.0,0,30,1.0,0.0
20887,65.0,0,30,1.0,0.0
20888,50.0,0,30,6.0,0.0
20889,62.0,0,30,2.0,0.0
20890,53.0,0,30,3.0,0.0
20891,65.0,0,30,2.0,0.0
20892,43.0,0,30,7.0,0.0
20893,62.0,0,30,13.0,0.0
20894,43.0,0,30,6.0,0.0
20895,31.0,0,30,15.0,0.0
20896,53.0,0,30,6.0,0.0
20897,50.0,0,30,3.0,0.0
20898,43.0,48,40,14.0,0.0
20899,43.0,0,40,2.0,0.0
20900,44.0,48,40,14.0,0.0
20901,44.0,0,40,2.0,0.0
20902,50.0,32,40,2.0,0.0
20903,50.0,0,40,14.0,0.0
20904,50.0,0,30,6.0,0.0
20905,43.0,0,30,6.0,0.0
20906,53.0,16,30,3.0,0.0
20907,50.0,0,30,3.0,0.0
20908,65.0,0,30,2.0,0.0
20909,65.0,0,30,1.0,0.0
20910,62.0,0,30,1.0,0.0
20911,53.0,0,40,14.0,0.0
20912,53.0,0,30,6.0,0.0
20913,53.0,48,40,2.0,0.0
20914,56.0,32,40,14.0,0.0
20915,56.0,0,40,2.0,0.0
20916,57.0,0,90,14.0,0.0
20917,33.0,0,30,15.0,0.0
20918,57.0,48,40,2.0,0.0
20919,45.0,16,30,3.0,0.0
20920,57.0,0,40,11.0,0.0
20921,45.0,0,30,7.0,0.0
20922,58.0,0,40,11.0,0.0
20923,58.0,0,40,2.0,0.0
20924,61.0,48,40,11.0,0.0
20925,61.0,0,40,2.0,0.0
20926,62.0,0,40,2.0,0.0
20927,62.0,48,40,11.0,0.0
20928,64.0,48,40,2.0,0.0
20929,64.0,0,40,11.0,0.0
20930,65.0,32,40,11.0,0.0
20931,65.0,0,40,2.0,0.0
20932,64.0,0,30,11.0,0.0
20933,55.0,0,30,6.0,0.0
20934,52.0,0,30,6.0,0.0
20935,33.0,0,30,15.0,0.0
20936,65.0,0,30,1.0,0.0
20937,62.0,0,30,1.0,0.0
20938,53.0,0,30,3.0,0.0
20939,50.0,0,30,3.0,0.0
20940,67.0,0,30,2.0,0.0
20941,64.0,64,30,2.0,0.0
20942,45.0,0,30,7.0,0.0
20943,45.0,0,30,6.0,0.0
20944,45.0,48,40,2.0,0.0
20945,45.0,0,40,14.0,0.0
20946,46.0,48,40,14.0,0.0
20947,46.0,0,40,2.0,0.0
20948,52.0,0,40,2.0,0.0
20949,52.0,32,40,14.0,0.0
20950,64.0,16,30,2.0,0.0
20951,55.0,0,40,2.0,0.0
20952,53.0,0,30,3.0,0.0
20953,50.0,0,30,3.0,0.0
20954,45.0,0,30,6.0,0.0
20955,67.0,0,30,2.0,0.0
20956,55.0,48,40,14.0,0.0
20957,65.0,0,30,1.0,0.0
20958,62.0,0,30,1.0,0.0
20959,55.0,0,30,6.0,0.0
20960,52.0,0,30,6.0,0.0
20961,58.0,0,40,14.0,0.0
20962,58.0,32,40,2.0,0.0
20963,53.0,48,90,2.0,0.0
20964,41.0,16,30,7.0,0.0
20965,29.0,0,30,15.0,0.0
20966,62.0,48,40,11.0,0.0
20967,41.0,0,30,3.0,0.0
20968,53.0,0,90,14.0,0.0
20969,63.0,0,40,11.0,0.0
20970,65.0,48,40,11.0,0.0
20971,66.0,48,40,11.0,0.0
20972,69.0,48,40,11.0,0.0
20973,70.0,32,40,11.0,0.0
20974,46.0,0,40,14.0,0.0
20975,46.0,0,30,7.0,0.0
20976,75.0,0,30,5.0,0.0
20977,69.0,16,30,11.0,0.0
20978,57.0,0,30,4.0,0.0
20979,63.0,0,30,3.0,0.0
20980,66.0,0,30,5.0,0.0
20981,75.0,0,30,1.0,0.0
20982,60.0,0,30,3.0,0.0
20983,46.0,48,40,2.0,0.0
20984,72.0,0,30,1.0,0.0
20985,60.0,0,30,4.0,0.0
20986,54.0,0,30,4.0,0.0
20987,72.0,0,30,5.0,0.0
20988,54.0,0,30,6.0,0.0
20989,66.0,0,30,2.0,0.0
20990,69.0,0,30,2.0,0.0
20991,65.0,0,30,6.0,0.0
20992,51.0,0,30,4.0,0.0
20993,62.0,0,30,6.0,0.0
20994,34.0,0,30,15.0,0.0
20995,48.0,0,40,2.0,0.0
20996,48.0,48,40,14.0,0.0
20997,50.0,0,40,2.0,0.0
20998,50.0,48,40,14.0,0.0
20999,51.0,0,40,14.0,0.0
21000,51.0,32,40,2.0,0.0
21001,75.0,0,30,5.0,0.0
21002,72.0,16,30,1.0,0.0
21003,75.0,0,30,1.0,0.0
21004,72.0,0,30,5.0,0.0
21005,53.0,48,40,14.0,0.0
21006,51.0,0,30,4.0,0.0
21007,60.0,0,30,3.0,0.0
21008,63.0,0,30,3.0,0.0
21009,54.0,0,30,4.0,0.0
21010,66.0,0,30,2.0,0.0
21011,60.0,0,30,6.0,0.0
21012,53.0,0,40,2.0,0.0
21013,63.0,0,30,6.0,0.0
21014,54.0,0,30,6.0,0.0
21015,69.0,0,30,2.0,0.0
21016,66.0,0,30,5.0,0.0
21017,60.0,0,30,4.0,0.0
21018,54.0,32,40,2.0,0.0
21019,54.0,0,40,14.0,0.0
21020,41.0,0,30,3.0,0.0
21021,41.0,16,30,7.0,0.0
21022,65.0,48,40,11.0,0.0
21023,29.0,0,30,15.0,0.0
21024,53.0,48,90,2.0,0.0
21025,53.0,0,90,14.0,0.0
21026,66.0,0,40,11.0,0.0
21027,69.0,48,40,11.0,0.0
21028,70.0,48,40,11.0,0.0
21029,72.0,48,40,11.0,0.0
21030,74.0,32,40,11.0,0.0
21031,78.0,0,30,5.0,0.0
21032,72.0,0,30,5.0,0.0
21033,63.0,0,30,6.0,0.0
21034,66.0,16,30,6.0,0.0
21035,75.0,0,30,1.0,0.0
21036,63.0,0,30,4.0,0.0
21037,46.0,0,40,2.0,0.0
21038,72.0,0,30,2.0,0.0
21039,34.0,0,30,15.0,0.0
21040,72.0,0,30,1.0,0.0
21041,69.0,0,30,2.0,0.0
21042,60.0,0,30,4.0,0.0
21043,63.0,0,30,3.0,0.0
21044,60.0,0,30,3.0,0.0
21045,57.0,0,30,4.0,0.0
21046,46.0,0,30,7.0,0.0
21047,60.0,0,30,6.0,0.0
21048,72.0,0,30,11.0,0.0
21049,46.0,48,40,14.0,0.0
21050,81.0,0,30,5.0,0.0
21051,48.0,0,40,2.0,0.0
21052,48.0,48,40,14.0,0.0
21053,50.0,48,40,2.0,0.0
21054,50.0,0,40,14.0,0.0
21055,51.0,0,40,14.0,0.0
21056,51.0,32,40,2.0,0.0
21057,53.0,0,40,14.0,0.0
21058,63.0,0,30,4.0,0.0
21059,72.0,0,30,5.0,0.0
21060,72.0,16,30,1.0,0.0
21061,57.0,0,30,4.0,0.0
21062,81.0,0,30,5.0,0.0
21063,60.0,0,30,4.0,0.0
21064,78.0,0,30,5.0,0.0
21065,60.0,0,30,6.0,0.0
21066,63.0,0,30,6.0,0.0
21067,66.0,0,30,6.0,0.0
21068,53.0,48,40,2.0,0.0
21069,69.0,0,30,2.0,0.0
21070,72.0,0,30,2.0,0.0
21071,60.0,0,30,3.0,0.0
21072,63.0,0,30,3.0,0.0
21073,75.0,0,30,1.0,0.0
21074,54.0,32,40,2.0,0.0
21075,54.0,0,40,14.0,0.0
21076,66.0,0,40,12.0,0.0
21077,39.0,0,30,3.0,0.0
21078,27.0,0,30,15.0,0.0
21079,51.0,48,90,14.0,0.0
21080,66.0,48,40,0.0,0.0
21081,66.0,0,40,2.0,0.0
21082,51.0,0,90,2.0,0.0
21083,72.0,0,30,1.0,0.0
21084,39.0,0,30,7.0,0.0
21085,70.0,0,40,12.0,0.0
21086,70.0,0,40,2.0,0.0
21087,70.0,0,40,0.0,0.0
21088,75.0,0,40,0.0,0.0
21089,75.0,0,40,2.0,0.0
21090,75.0,48,40,12.0,0.0
21091,78.0,0,40,0.0,0.0
21092,78.0,0,40,12.0,0.0
21093,78.0,48,40,2.0,0.0
21094,82.0,0,40,2.0,0.0
21095,82.0,48,40,12.0,0.0
21096,82.0,0,40,0.0,0.0
21097,87.0,32,40,2.0,0.0
21098,87.0,0,40,0.0,0.0
21099,87.0,0,40,12.0,0.0
21100,46.0,16,30,7.0,0.0
21101,78.0,0,30,1.0,0.0
21102,78.0,0,40,13.0,0.0
21103,90.0,0,40,0.0,0.0
21104,90.0,0,40,12.0,0.0
21105,46.0,0,40,2.0,0.0
21106,90.0,0,40,2.0,0.0
21107,78.0,0,40,2.0,0.0
21108,46.0,48,40,3.0,0.0
21109,34.0,0,30,15.0,0.0
21110,90.0,0,40,11.0,0.0
21111,46.0,0,40,14.0,0.0
21112,87.0,48,40,2.0,0.0
21113,48.0,0,40,2.0,0.0
21114,87.0,0,40,0.0,0.0
21115,48.0,0,40,3.0,0.0
21116,48.0,0,40,14.0,0.0
21117,87.0,0,40,11.0,0.0
21118,86.0,0,40,0.0,0.0
21119,50.0,0,40,14.0,0.0
21120,86.0,48,40,2.0,0.0
21121,86.0,0,40,11.0,0.0
21122,50.0,0,40,2.0,0.0
21123,50.0,0,40,3.0,0.0
21124,84.0,0,40,2.0,0.0
21125,51.0,0,40,3.0,0.0
21126,84.0,0,40,11.0,0.0
21127,51.0,48,40,2.0,0.0
21128,84.0,0,40,0.0,0.0
21129,51.0,0,40,14.0,0.0
21130,53.0,0,40,3.0,0.0
21131,53.0,0,40,14.0,0.0
21132,82.0,0,40,11.0,0.0
21133,82.0,0,40,0.0,0.0
21134,82.0,48,40,2.0,0.0
21135,53.0,0,40,2.0,0.0
21136,81.0,0,40,2.0,0.0
21137,81.0,0,40,11.0,0.0
21138,54.0,0,40,14.0,0.0
21139,81.0,0,40,0.0,0.0
21140,54.0,0,40,3.0,0.0
21141,54.0,32,40,2.0,0.0
21142,77.0,0,40,0.0,0.0
21143,77.0,0,30,1.0,0.0
21144,46.0,0,40,3.0,0.0
21145,89.0,48,40,2.0,0.0
21146,53.0,0,40,3.0,0.0
21147,89.0,0,40,12.0,0.0
21148,89.0,0,40,0.0,0.0
21149,77.0,0,40,11.0,0.0
21150,77.0,2,40,2.0,0.0
21151,46.0,14,30,7.0,0.0
21152,53.0,0,40,2.0,0.0
21153,46.0,0,40,15.0,0.0
21154,86.0,0,40,0.0,0.0
21155,48.0,48,40,15.0,0.0
21156,48.0,0,40,3.0,0.0
21157,86.0,0,40,2.0,0.0
21158,86.0,0,40,12.0,0.0
21159,82.0,0,40,2.0,0.0
21160,50.0,0,40,15.0,0.0
21161,50.0,0,40,3.0,0.0
21162,82.0,0,40,12.0,0.0
21163,82.0,48,40,0.0,0.0
21164,77.0,0,40,12.0,0.0
21165,51.0,0,40,3.0,0.0
21166,77.0,0,40,0.0,0.0
21167,51.0,0,40,15.0,0.0
21168,77.0,0,40,2.0,0.0
21169,74.0,0,40,0.0,0.0
21170,53.0,0,40,15.0,0.0
21171,74.0,0,40,2.0,0.0
21172,74.0,0,40,12.0,0.0
21173,53.0,0,40,3.0,0.0
21174,70.0,0,40,2.0,0.0
21175,70.0,0,40,0.0,0.0
21176,54.0,48,40,15.0,0.0
21177,54.0,0,40,3.0,0.0
21178,70.0,0,40,12.0,0.0
21179,65.0,0,40,2.0,0.0
21180,77.0,0,40,2.0,0.0
21181,77.0,0,40,11.0,0.0
21182,46.0,0,40,14.0,0.0
21183,46.0,0,40,2.0,0.0
21184,65.0,48,40,0.0,0.0
21185,65.0,0,40,12.0,0.0
21186,58.0,0,40,3.0,0.0
21187,74.0,0,40,11.0,0.0
21188,74.0,0,40,2.0,0.0
21189,48.0,0,40,14.0,0.0
21190,48.0,48,40,2.0,0.0
21191,50.0,0,40,14.0,0.0
21192,70.0,48,40,11.0,0.0
21193,50.0,0,40,2.0,0.0
21194,70.0,0,40,2.0,0.0
21195,51.0,0,40,14.0,0.0
21196,65.0,0,40,2.0,0.0
21197,65.0,0,40,11.0,0.0
21198,51.0,48,40,2.0,0.0
21199,62.0,0,40,11.0,0.0
21200,53.0,0,40,14.0,0.0
21201,53.0,46,40,2.0,0.0
21202,62.0,0,40,2.0,0.0
21203,54.0,0,40,2.0,0.0
21204,58.0,2,40,2.0,0.0
21205,58.0,224,40,11.0,0.0
21206,54.0,0,40,14.0,0.0
21207,70.0,48,30,13.0,0.0
21208,82.0,0,30,0.0,0.0
21209,62.0,0,30,5.0,0.0
21210,74.0,0,30,12.0,0.0
21211,54.0,2,90,9.0,0.0
21212,70.0,0,30,5.0,0.0
21213,74.0,0,30,1.0,0.0
21214,46.0,32,180,8.0,0.0
21215,82.0,0,30,1.0,0.0
21216,74.0,0,30,2.0,0.0
21217,70.0,0,30,2.0,0.0
21218,82.0,0,30,11.0,0.0
21219,34.0,32,40,15.0,0.0
21220,58.0,0,30,4.0,0.0
21221,34.0,0,40,3.0,0.0
21222,46.0,0,30,3.0,0.0
21223,46.0,14,30,14.0,0.0
21224,50.0,0,30,2.0,0.0
21225,53.0,0,30,3.0,0.0
21226,46.0,0,30,7.0,0.0
21227,46.0,0,30,6.0,0.0
21228,65.0,0,30,4.0,0.0
21229,62.0,0,30,4.0,0.0
21230,53.0,48,30,14.0,0.0
21231,50.0,0,30,3.0,0.0
21232,50.0,0,30,6.0,0.0
21233,53.0,0,30,6.0,0.0
21234,82.0,0,30,11.0,0.0
21235,74.0,16,30,12.0,0.0
21236,70.0,0,30,2.0,0.0
21237,70.0,0,30,13.0,0.0
21238,70.0,0,30,5.0,0.0
21239,82.0,0,30,1.0,0.0
21240,74.0,0,30,1.0,0.0
21241,82.0,0,30,0.0,0.0
21242,62.0,0,30,5.0,0.0
21243,74.0,0,30,2.0,0.0
21244,65.0,0,30,13.0,0.0
21245,60.0,0,30,5.0,0.0
21246,72.0,0,30,2.0,0.0
21247,77.0,0,30,1.0,0.0
21248,72.0,0,30,1.0,0.0
21249,77.0,0,30,0.0,0.0
21250,77.0,48,30,11.0,0.0
21251,72.0,0,30,12.0,0.0
21252,65.0,0,30,2.0,0.0
21253,65.0,0,30,5.0,0.0
21254,33.0,0,40,3.0,0.0
21255,33.0,32,40,15.0,0.0
21256,45.0,0,30,3.0,0.0
21257,57.0,0,30,4.0,0.0
21258,45.0,16,30,14.0,0.0
21259,48.0,0,30,3.0,0.0
21260,65.0,0,30,4.0,0.0
21261,60.0,0,30,4.0,0.0
21262,53.0,0,30,14.0,0.0
21263,48.0,0,30,2.0,0.0
21264,45.0,48,30,6.0,0.0
21265,53.0,0,30,6.0,0.0
21266,53.0,0,30,3.0,0.0
21267,48.0,0,30,6.0,0.0
21268,45.0,0,30,7.0,0.0
21269,65.0,0,30,2.0,0.0
21270,60.0,0,30,5.0,0.0
21271,72.0,0,30,2.0,0.0
21272,77.0,0,30,0.0,0.0
21273,77.0,0,30,11.0,0.0
21274,65.0,0,30,13.0,0.0
21275,65.0,0,30,5.0,0.0
21276,77.0,64,30,1.0,0.0
21277,72.0,0,30,1.0,0.0
21278,72.0,0,30,12.0,0.0
21279,58.0,32,40,5.0,0.0
21280,74.0,0,150,11.0,0.0
21281,74.0,0,150,1.0,0.0
21282,70.0,0,150,1.0,0.0
21283,62.0,0,150,2.0,0.0
21284,74.0,0,150,0.0,0.0
21285,62.0,0,40,5.0,0.0
21286,34.0,0,40,3.0,0.0
21287,34.0,32,40,15.0,0.0
21288,46.0,0,30,3.0,0.0
21289,58.0,0,30,4.0,0.0
21290,46.0,16,30,14.0,0.0
21291,62.0,0,30,4.0,0.0
21292,50.0,0,30,6.0,0.0
21293,53.0,0,30,6.0,0.0
21294,53.0,0,30,14.0,0.0
21295,46.0,0,30,7.0,0.0
21296,65.0,0,30,4.0,0.0
21297,46.0,0,30,6.0,0.0
21298,50.0,0,30,2.0,0.0
21299,50.0,16,30,3.0,0.0
21300,53.0,0,30,3.0,0.0
21301,70.0,0,15,12.0,0.0
21302,74.0,0,30,11.0,0.0
21303,70.0,48,30,1.0,0.0
21304,74.0,0,30,0.0,0.0
21305,70.0,0,15,2.0,0.0
21306,58.0,0,30,5.0,0.0
21307,62.0,0,30,5.0,0.0
21308,62.0,0,30,2.0,0.0
21309,62.0,32,15,13.0,0.0
21310,74.0,0,30,1.0,0.0
21311,63.0,0,30,2.0,0.0
21312,63.0,0,30,1.0,0.0
21313,58.0,0,30,2.0,0.0
21314,70.0,0,30,1.0,0.0
21315,63.0,0,30,12.0,0.0
21316,63.0,0,30,5.0,0.0
21317,70.0,0,30,11.0,0.0
21318,58.0,0,30,13.0,0.0
21319,58.0,0,30,5.0,0.0
21320,70.0,0,30,0.0,0.0
21321,31.0,32,40,3.0,0.0
21322,43.0,16,30,14.0,0.0
21323,43.0,0,30,3.0,0.0
21324,55.0,0,30,4.0,0.0
21325,31.0,0,40,15.0,0.0
21326,51.0,0,30,6.0,0.0
21327,51.0,0,30,3.0,0.0
21328,46.0,0,30,3.0,0.0
21329,43.0,0,30,7.0,0.0
21330,51.0,0,30,14.0,0.0
21331,46.0,48,30,2.0,0.0
21332,58.0,0,30,4.0,0.0
21333,63.0,0,30,4.0,0.0
21334,43.0,0,30,6.0,0.0
21335,46.0,0,30,6.0,0.0
21336,58.0,0,30,13.0,0.0
21337,63.0,0,30,5.0,0.0
21338,58.0,0,30,5.0,0.0
21339,70.0,0,30,0.0,0.0
21340,58.0,0,30,2.0,0.0
21341,70.0,0,30,11.0,0.0
21342,63.0,0,30,1.0,0.0
21343,70.0,0,30,1.0,0.0
21344,63.0,48,30,2.0,0.0
21345,63.0,0,30,12.0,0.0
21346,62.0,0,30,13.0,0.0
21347,62.0,0,30,2.0,0.0
21348,70.0,0,30,2.0,0.0
21349,70.0,48,30,1.0,0.0
21350,74.0,0,30,1.0,0.0
21351,74.0,0,30,11.0,0.0
21352,58.0,0,30,5.0,0.0
21353,74.0,0,30,0.0,0.0
21354,70.0,0,30,12.0,0.0
21355,62.0,0,30,5.0,0.0
21356,41.0,0,30,14.0,0.0
21357,29.0,32,40,3.0,0.0
21358,53.0,16,30,4.0,0.0
21359,29.0,0,40,15.0,0.0
21360,41.0,0,30,3.0,0.0
21361,46.0,0,30,2.0,0.0
21362,41.0,48,30,7.0,0.0
21363,46.0,0,30,6.0,0.0
21364,53.0,0,30,6.0,0.0
21365,46.0,0,30,3.0,0.0
21366,53.0,0,30,3.0,0.0
21367,65.0,0,30,4.0,0.0
21368,53.0,0,30,14.0,0.0
21369,58.0,0,30,4.0,0.0
21370,41.0,0,30,6.0,0.0
21371,74.0,0,30,1.0,0.0
21372,62.0,0,30,2.0,0.0
21373,58.0,0,30,5.0,0.0
21374,70.0,0,30,1.0,0.0
21375,62.0,0,30,5.0,0.0
21376,70.0,0,30,12.0,0.0
21377,74.0,0,30,0.0,0.0
21378,62.0,0,30,13.0,0.0
21379,74.0,0,30,11.0,0.0
21380,70.0,0,30,2.0,0.0
21381,72.0,0,30,1.0,0.0
21382,60.0,0,30,13.0,0.0
21383,72.0,48,30,0.0,0.0
21384,57.0,0,30,5.0,0.0
21385,69.0,0,30,1.0,0.0
21386,60.0,0,30,5.0,0.0
21387,69.0,0,30,12.0,0.0
21388,72.0,0,30,11.0,0.0
21389,60.0,0,30,2.0,0.0
21390,69.0,0,30,2.0,0.0
21391,29.0,0,40,3.0,0.0
21392,41.0,16,30,14.0,0.0
21393,53.0,0,30,4.0,0.0
21394,29.0,32,40,15.0,0.0
21395,41.0,0,30,3.0,0.0
21396,65.0,0,30,4.0,0.0
21397,41.0,0,30,7.0,0.0
21398,48.0,48,30,6.0,0.0
21399,53.0,0,30,14.0,0.0
21400,41.0,0,30,6.0,0.0
21401,53.0,0,30,3.0,0.0
21402,48.0,0,30,2.0,0.0
21403,48.0,0,30,3.0,0.0
21404,60.0,0,30,4.0,0.0
21405,53.0,0,30,6.0,0.0
21406,72.0,0,30,0.0,0.0
21407,57.0,0,30,5.0,0.0
21408,69.0,0,30,1.0,0.0
21409,69.0,64,30,12.0,0.0
21410,60.0,0,30,5.0,0.0
21411,72.0,0,30,1.0,0.0
21412,60.0,0,30,2.0,0.0
21413,60.0,0,30,13.0,0.0
21414,72.0,0,30,11.0,0.0
21415,69.0,0,30,2.0,0.0
21416,62.0,0,150,13.0,0.0
21417,58.0,32,40,5.0,0.0
21418,74.0,0,150,0.0,0.0
21419,70.0,0,150,2.0,0.0
21420,62.0,0,150,2.0,0.0
21421,62.0,0,40,5.0,0.0
21422,70.0,32,150,12.0,0.0
21423,74.0,0,150,1.0,0.0
21424,46.0,0,30,3.0,0.0
21425,58.0,0,30,4.0,0.0
21426,34.0,0,40,15.0,0.0
21427,34.0,32,40,3.0,0.0
21428,46.0,16,30,14.0,0.0
21429,62.0,0,30,4.0,0.0
21430,50.0,0,30,6.0,0.0
21431,53.0,0,30,6.0,0.0
21432,65.0,0,30,4.0,0.0
21433,46.0,0,30,6.0,0.0
21434,53.0,0,30,3.0,0.0
21435,46.0,0,30,7.0,0.0
21436,53.0,0,30,14.0,0.0
21437,50.0,0,30,2.0,0.0
21438,50.0,16,30,3.0,0.0
21439,74.0,0,15,11.0,0.0
21440,74.0,0,30,1.0,0.0
21441,62.0,0,30,2.0,0.0
21442,70.0,0,30,2.0,0.0
21443,70.0,0,15,1.0,0.0
21444,74.0,0,30,0.0,0.0
21445,58.0,0,30,5.0,0.0
21446,62.0,0,30,5.0,0.0
21447,70.0,0,30,12.0,0.0
21448,62.0,0,30,13.0,0.0
21449,70.0,0,30,1.0,0.0
21450,65.0,48,30,1.0,0.0
21451,65.0,0,30,2.0,0.0
21452,58.0,0,30,2.0,0.0
21453,58.0,0,30,5.0,0.0
21454,53.0,0,30,5.0,0.0
21455,65.0,0,30,12.0,0.0
21456,70.0,0,30,0.0,0.0
21457,70.0,0,30,11.0,0.0
21458,58.0,0,30,13.0,0.0
21459,38.0,10,40,3.0,0.0
21460,50.0,0,30,3.0,0.0
21461,49.0,0,150,9.0,0.0
21462,38.0,0,40,15.0,0.0
21463,50.0,16,30,14.0,0.0
21464,62.0,0,30,4.0,0.0
21465,53.0,0,30,3.0,0.0
21466,50.0,0,30,7.0,0.0
21467,58.0,0,30,3.0,0.0
21468,38.0,6,15,9.0,0.0
21469,50.0,2,30,6.0,0.0
21470,54.0,6,15,9.0,0.0
21471,58.0,0,30,6.0,0.0
21472,53.0,0,30,6.0,0.0
21473,70.0,0,30,4.0,0.0
21474,58.0,0,30,14.0,0.0
21475,65.0,0,30,4.0,0.0
21476,53.0,0,30,2.0,0.0
21477,54.0,10,15,9.0,0.0
21478,77.0,0,15,11.0,0.0
21479,77.0,0,15,0.0,0.0
21480,38.0,6,15,9.0,0.0
21481,54.0,6,15,9.0,0.0
21482,79.0,10,15,11.0,0.0
21483,79.0,0,15,0.0,0.0
21484,54.0,2,15,9.0,0.0
21485,81.0,0,15,11.0,0.0
21486,81.0,6,15,0.0,0.0
21487,54.0,6,15,9.0,0.0
21488,41.0,0,15,8.0,0.0
21489,38.0,0,15,9.0,0.0
21490,54.0,10,15,9.0,0.0
21491,82.0,2,15,11.0,0.0
21492,82.0,0,15,0.0,0.0
21493,54.0,6,15,9.0,0.0
21494,38.0,6,15,9.0,0.0
21495,84.0,0,15,11.0,0.0
21496,84.0,32,15,0.0,0.0
21497,54.0,2,15,9.0,0.0
21498,86.0,0,30,11.0,0.0
21499,46.0,32,180,8.0,0.0
21500,74.0,0,30,2.0,0.0
21501,82.0,0,30,12.0,0.0
21502,82.0,0,30,1.0,0.0
21503,86.0,0,30,1.0,0.0
21504,86.0,0,30,0.0,0.0
21505,54.0,2,90,9.0,0.0
21506,82.0,0,30,0.0,0.0
21507,38.0,0,30,9.0,0.0
21508,74.0,48,30,13.0,0.0
21509,70.0,0,30,5.0,0.0
21510,74.0,0,30,5.0,0.0
21511,58.0,0,30,4.0,0.0
21512,34.0,0,40,3.0,0.0
21513,34.0,32,40,15.0,0.0
21514,46.0,0,30,3.0,0.0
21515,46.0,14,30,14.0,0.0
21516,62.0,0,30,6.0,0.0
21517,46.0,0,30,6.0,0.0
21518,46.0,0,30,7.0,0.0
21519,58.0,0,30,6.0,0.0
21520,70.0,0,30,4.0,0.0
21521,58.0,0,30,14.0,0.0
21522,53.0,48,30,3.0,0.0
21523,58.0,0,30,3.0,0.0
21524,65.0,0,30,4.0,0.0
21525,53.0,0,30,2.0,0.0
21526,82.0,0,30,1.0,0.0
21527,86.0,0,30,1.0,0.0
21528,82.0,0,30,12.0,0.0
21529,74.0,0,30,13.0,0.0
21530,70.0,0,30,5.0,0.0
21531,86.0,0,30,11.0,0.0
21532,86.0,0,30,0.0,0.0
21533,82.0,16,30,0.0,0.0
21534,74.0,0,30,2.0,0.0
21535,74.0,0,30,5.0,0.0
21536,72.0,0,30,2.0,0.0
21537,75.0,0,30,2.0,0.0
21538,72.0,0,30,13.0,0.0
21539,84.0,0,30,1.0,0.0
21540,81.0,0,30,1.0,0.0
21541,69.0,0,30,5.0,0.0
21542,81.0,0,30,12.0,0.0
21543,84.0,0,30,11.0,0.0
21544,84.0,48,30,0.0,0.0
21545,81.0,0,30,0.0,0.0
21546,72.0,0,30,5.0,0.0
21547,48.0,16,30,14.0,0.0
21548,48.0,0,30,3.0,0.0
21549,36.0,0,40,3.0,0.0
21550,36.0,32,40,15.0,0.0
21551,60.0,0,30,4.0,0.0
21552,48.0,0,30,7.0,0.0
21553,51.0,0,30,2.0,0.0
21554,57.0,0,30,3.0,0.0
21555,51.0,0,30,3.0,0.0
21556,51.0,0,30,6.0,0.0
21557,57.0,0,30,6.0,0.0
21558,48.0,48,30,6.0,0.0
21559,63.0,0,30,4.0,0.0
21560,69.0,0,30,4.0,0.0
21561,57.0,0,30,14.0,0.0
21562,81.0,0,30,12.0,0.0
21563,69.0,0,30,5.0,0.0
21564,84.0,0,30,11.0,0.0
21565,84.0,0,30,1.0,0.0
21566,72.0,0,30,13.0,0.0
21567,81.0,0,30,0.0,0.0
21568,81.0,64,30,1.0,0.0
21569,84.0,0,30,0.0,0.0
21570,75.0,0,30,2.0,0.0
21571,72.0,0,30,2.0,0.0
21572,72.0,0,30,5.0,0.0
21573,65.0,0,40,5.0,0.0
21574,82.0,0,150,1.0,0.0
21575,77.0,0,150,1.0,0.0
21576,82.0,0,150,11.0,0.0
21577,70.0,0,150,13.0,0.0
21578,70.0,0,40,5.0,0.0
21579,70.0,0,150,2.0,0.0
21580,62.0,0,30,4.0,0.0
21581,50.0,16,30,3.0,0.0
21582,34.0,32,40,15.0,0.0
21583,46.0,0,30,14.0,0.0
21584,34.0,0,40,3.0,0.0
21585,50.0,16,30,7.0,0.0
21586,58.0,0,30,3.0,0.0
21587,53.0,0,30,3.0,0.0
21588,53.0,0,30,2.0,0.0
21589,50.0,0,30,6.0,0.0
21590,58.0,0,30,6.0,0.0
21591,53.0,0,30,6.0,0.0
21592,58.0,0,30,14.0,0.0
21593,70.0,0,30,4.0,0.0
21594,65.0,0,30,4.0,0.0
21595,82.0,0,15,0.0,0.0
21596,77.0,0,30,1.0,0.0
21597,82.0,0,30,1.0,0.0
21598,70.0,0,30,13.0,0.0
21599,77.0,32,15,2.0,0.0
21600,77.0,0,15,12.0,0.0
21601,65.0,0,30,5.0,0.0
21602,70.0,0,30,5.0,0.0
21603,70.0,48,30,2.0,0.0
21604,82.0,0,30,11.0,0.0
21605,79.0,0,30,0.0,0.0
21606,67.0,0,30,13.0,0.0
21607,67.0,0,30,5.0,0.0
21608,75.0,48,30,1.0,0.0
21609,79.0,0,30,11.0,0.0
21610,75.0,0,30,2.0,0.0
21611,75.0,0,30,0.0,0.0
21612,63.0,0,30,5.0,0.0
21613,75.0,0,30,12.0,0.0
21614,79.0,0,30,1.0,0.0
21615,67.0,0,30,2.0,0.0
21616,63.0,0,30,4.0,0.0
21617,39.0,0,40,3.0,0.0
21618,51.0,0,30,3.0,0.0
21619,51.0,16,30,14.0,0.0
21620,39.0,32,40,15.0,0.0
21621,51.0,0,30,7.0,0.0
21622,58.0,0,30,14.0,0.0
21623,58.0,0,30,3.0,0.0
21624,55.0,48,30,3.0,0.0
21625,55.0,0,30,2.0,0.0
21626,70.0,0,30,4.0,0.0
21627,67.0,0,30,4.0,0.0
21628,58.0,0,30,6.0,0.0
21629,55.0,0,30,6.0,0.0
21630,51.0,0,30,6.0,0.0
21631,75.0,0,30,2.0,0.0
21632,67.0,0,30,2.0,0.0
21633,63.0,0,30,5.0,0.0
21634,67.0,0,30,13.0,0.0
21635,75.0,48,30,1.0,0.0
21636,79.0,0,30,0.0,0.0
21637,75.0,0,30,0.0,0.0
21638,79.0,0,30,1.0,0.0
21639,75.0,0,30,12.0,0.0
21640,67.0,0,30,5.0,0.0
21641,79.0,0,30,11.0,0.0
21642,77.0,0,30,1.0,0.0
21643,65.0,0,30,13.0,0.0
21644,77.0,0,30,0.0,0.0
21645,70.0,0,30,12.0,0.0
21646,65.0,0,30,2.0,0.0
21647,77.0,0,30,2.0,0.0
21648,77.0,0,30,11.0,0.0
21649,65.0,0,30,1.0,0.0
21650,58.0,0,30,5.0,0.0
21651,65.0,0,30,5.0,0.0
21652,38.0,0,40,15.0,0.0
21653,50.0,0,30,14.0,0.0
21654,38.0,32,40,3.0,0.0
21655,62.0,0,30,4.0,0.0
21656,50.0,16,30,3.0,0.0
21657,70.0,0,30,4.0,0.0
21658,65.0,0,30,4.0,0.0
21659,53.0,0,30,2.0,0.0
21660,58.0,0,30,6.0,0.0
21661,58.0,0,30,14.0,0.0
21662,53.0,0,30,6.0,0.0
21663,50.0,0,30,7.0,0.0
21664,58.0,48,30,3.0,0.0
21665,50.0,0,30,6.0,0.0
21666,53.0,0,30,3.0,0.0
21667,58.0,0,30,5.0,0.0
21668,65.0,0,30,13.0,0.0
21669,77.0,0,30,11.0,0.0
21670,70.0,0,30,12.0,0.0
21671,77.0,0,30,2.0,0.0
21672,65.0,0,30,2.0,0.0
21673,65.0,48,30,1.0,0.0
21674,77.0,0,30,1.0,0.0
21675,65.0,0,30,5.0,0.0
21676,77.0,0,30,0.0,0.0
21677,82.0,0,30,0.0,0.0
21678,62.0,0,30,5.0,0.0
21679,74.0,0,30,1.0,0.0
21680,70.0,0,30,13.0,0.0
21681,74.0,0,30,2.0,0.0
21682,74.0,0,30,12.0,0.0
21683,70.0,0,30,1.0,0.0
21684,70.0,0,30,5.0,0.0
21685,82.0,48,30,11.0,0.0
21686,70.0,0,30,2.0,0.0
21687,34.0,32,40,15.0,0.0
21688,46.0,16,30,3.0,0.0
21689,34.0,0,40,3.0,0.0
21690,58.0,0,30,4.0,0.0
21691,46.0,0,30,14.0,0.0
21692,46.0,0,30,6.0,0.0
21693,70.0,0,30,4.0,0.0
21694,65.0,0,30,4.0,0.0
21695,58.0,0,30,3.0,0.0
21696,46.0,0,30,7.0,0.0
21697,53.0,0,30,3.0,0.0
21698,58.0,0,30,14.0,0.0
21699,58.0,0,30,6.0,0.0
21700,62.0,0,30,6.0,0.0
21701,53.0,48,30,2.0,0.0
21702,82.0,64,30,0.0,0.0
21703,74.0,0,30,12.0,0.0
21704,70.0,0,30,13.0,0.0
21705,62.0,0,30,5.0,0.0
21706,70.0,0,30,1.0,0.0
21707,74.0,0,30,1.0,0.0
21708,70.0,0,30,5.0,0.0
21709,70.0,0,30,2.0,0.0
21710,74.0,0,30,2.0,0.0
21711,82.0,0,30,11.0,0.0
21712,69.0,0,40,5.0,0.0
21713,84.0,0,150,0.0,0.0
21714,81.0,0,150,0.0,0.0
21715,84.0,0,150,11.0,0.0
21716,72.0,0,150,13.0,0.0
21717,81.0,0,150,12.0,0.0
21718,72.0,0,40,5.0,0.0
21719,29.0,32,40,15.0,0.0
21720,65.0,16,30,4.0,0.0
21721,41.0,0,30,14.0,0.0
21722,41.0,0,30,3.0,0.0
21723,29.0,0,40,3.0,0.0
21724,53.0,0,30,2.0,0.0
21725,41.0,16,30,6.0,0.0
21726,57.0,0,30,14.0,0.0
21727,65.0,0,30,4.0,0.0
21728,69.0,0,30,4.0,0.0
21729,53.0,0,30,3.0,0.0
21730,57.0,0,30,3.0,0.0
21731,57.0,0,30,6.0,0.0
21732,60.0,0,30,6.0,0.0
21733,41.0,0,30,7.0,0.0
21734,72.0,0,15,1.0,0.0
21735,77.0,0,15,1.0,0.0
21736,69.0,48,30,5.0,0.0
21737,77.0,0,15,13.0,0.0
21738,72.0,0,30,13.0,0.0
21739,84.0,0,30,11.0,0.0
21740,81.0,0,30,12.0,0.0
21741,72.0,0,30,5.0,0.0
21742,77.0,0,15,2.0,0.0
21743,72.0,32,15,2.0,0.0
21744,84.0,0,30,0.0,0.0
21745,81.0,0,30,0.0,0.0
21746,41.0,0,150,8.0,0.0
21747,89.0,0,30,11.0,0.0
21748,81.0,0,30,1.0,0.0
21749,77.0,0,30,1.0,0.0
21750,81.0,0,30,2.0,0.0
21751,77.0,0,30,2.0,0.0
21752,69.0,0,30,5.0,0.0
21753,89.0,0,30,0.0,0.0
21754,77.0,48,30,13.0,0.0
21755,81.0,0,30,12.0,0.0
21756,65.0,0,30,5.0,0.0
21757,77.0,0,30,5.0,0.0
21758,41.0,10,40,15.0,0.0
21759,53.0,16,30,14.0,0.0
21760,49.0,2,150,9.0,0.0
21761,54.0,6,15,9.0,0.0
21762,38.0,6,15,9.0,0.0
21763,60.0,2,30,14.0,0.0
21764,57.0,0,30,2.0,0.0
21765,54.0,10,15,9.0,0.0
21766,77.0,0,15,11.0,0.0
21767,77.0,0,15,0.0,0.0
21768,54.0,6,15,9.0,0.0
21769,38.0,6,15,9.0,0.0
21770,76.0,0,15,0.0,0.0
21771,76.0,10,15,11.0,0.0
21772,54.0,2,15,9.0,0.0
21773,77.0,0,15,0.0,0.0
21774,77.0,6,15,11.0,0.0
21775,41.0,32,40,8.0,0.0
21776,38.0,0,15,9.0,0.0
21777,54.0,6,15,9.0,0.0
21778,54.0,10,15,9.0,0.0
21779,79.0,0,15,0.0,0.0
21780,79.0,2,15,11.0,0.0
21781,54.0,6,15,9.0,0.0
21782,38.0,6,15,9.0,0.0
21783,81.0,0,15,0.0,0.0
21784,81.0,0,15,11.0,0.0
21785,54.0,0,15,9.0,0.0
21786,82.0,0,30,11.0,0.0
21787,74.0,0,30,12.0,0.0
21788,46.0,32,180,8.0,0.0
21789,54.0,2,90,9.0,0.0
21790,82.0,0,30,1.0,0.0
21791,82.0,48,30,0.0,0.0
21792,74.0,0,30,1.0,0.0
21793,70.0,0,30,13.0,0.0
21794,70.0,0,30,5.0,0.0
21795,70.0,0,30,2.0,0.0
21796,74.0,0,30,2.0,0.0
21797,62.0,0,30,5.0,0.0
21798,46.0,14,30,14.0,0.0
21799,46.0,0,30,3.0,0.0
21800,58.0,0,30,4.0,0.0
21801,34.0,0,40,15.0,0.0
21802,34.0,32,40,3.0,0.0
21803,50.0,0,30,6.0,0.0
21804,46.0,0,30,7.0,0.0
21805,53.0,0,30,6.0,0.0
21806,65.0,0,30,4.0,0.0
21807,62.0,0,30,4.0,0.0
21808,53.0,0,30,3.0,0.0
21809,53.0,0,30,14.0,0.0
21810,46.0,48,30,6.0,0.0
21811,50.0,0,30,2.0,0.0
21812,50.0,0,30,3.0,0.0
21813,70.0,0,30,13.0,0.0
21814,74.0,0,30,12.0,0.0
21815,82.0,0,30,1.0,0.0
21816,74.0,16,30,2.0,0.0
21817,70.0,0,30,2.0,0.0
21818,62.0,0,30,5.0,0.0
21819,82.0,0,30,0.0,0.0
21820,82.0,0,30,11.0,0.0
21821,70.0,0,30,5.0,0.0
21822,74.0,0,30,1.0,0.0
21823,65.0,0,30,2.0,0.0
21824,65.0,0,30,13.0,0.0
21825,72.0,48,30,2.0,0.0
21826,77.0,0,30,0.0,0.0
21827,72.0,0,30,12.0,0.0
21828,72.0,0,30,1.0,0.0
21829,60.0,0,30,5.0,0.0
21830,65.0,0,30,5.0,0.0
21831,77.0,0,30,1.0,0.0
21832,77.0,0,30,11.0,0.0
21833,33.0,0,40,15.0,0.0
21834,57.0,0,30,4.0,0.0
21835,33.0,32,40,3.0,0.0
21836,45.0,0,30,14.0,0.0
21837,45.0,16,30,3.0,0.0
21838,53.0,0,30,14.0,0.0
21839,48.0,48,30,3.0,0.0
21840,48.0,0,30,6.0,0.0
21841,53.0,0,30,3.0,0.0
21842,53.0,0,30,6.0,0.0
21843,45.0,0,30,7.0,0.0
21844,48.0,0,30,2.0,0.0
21845,60.0,0,30,4.0,0.0
21846,45.0,0,30,6.0,0.0
21847,65.0,0,30,4.0,0.0
21848,60.0,0,30,5.0,0.0
21849,72.0,0,30,2.0,0.0
21850,77.0,0,30,11.0,0.0
21851,72.0,0,30,12.0,0.0
21852,65.0,0,30,13.0,0.0
21853,77.0,0,30,1.0,0.0
21854,72.0,0,30,1.0,0.0
21855,77.0,0,30,0.0,0.0
21856,65.0,64,30,2.0,0.0
21857,65.0,0,30,5.0,0.0
21858,70.0,0,150,2.0,0.0
21859,74.0,0,150,11.0,0.0
21860,58.0,0,40,5.0,0.0
21861,62.0,0,40,5.0,0.0
21862,74.0,0,150,0.0,0.0
21863,58.0,16,30,4.0,0.0
21864,46.0,0,30,3.0,0.0
21865,34.0,0,40,15.0,0.0
21866,46.0,0,30,14.0,0.0
21867,34.0,32,40,3.0,0.0
21868,62.0,0,30,4.0,0.0
21869,53.0,0,30,14.0,0.0
21870,50.0,0,30,6.0,0.0
21871,50.0,0,30,2.0,0.0
21872,46.0,0,30,7.0,0.0
21873,46.0,0,30,6.0,0.0
21874,53.0,16,30,6.0,0.0
21875,50.0,0,30,3.0,0.0
21876,53.0,0,30,3.0,0.0
21877,65.0,0,30,4.0,0.0
21878,70.0,0,15,1.0,0.0
21879,74.0,0,15,1.0,0.0
21880,74.0,0,30,0.0,0.0
21881,62.0,32,15,2.0,0.0
21882,70.0,48,30,2.0,0.0
21883,70.0,0,15,12.0,0.0
21884,62.0,0,15,13.0,0.0
21885,74.0,0,30,11.0,0.0
21886,62.0,0,30,5.0,0.0
21887,58.0,0,30,5.0,0.0
21888,58.0,0,30,2.0,0.0
21889,70.0,48,30,1.0,0.0
21890,63.0,0,30,1.0,0.0
21891,58.0,0,30,13.0,0.0
21892,63.0,0,30,12.0,0.0
21893,58.0,0,30,5.0,0.0
21894,63.0,0,30,5.0,0.0
21895,70.0,0,30,11.0,0.0
21896,70.0,0,30,0.0,0.0
21897,63.0,0,30,2.0,0.0
21898,31.0,0,40,3.0,0.0
21899,43.0,16,30,14.0,0.0
21900,55.0,0,30,4.0,0.0
21901,31.0,32,40,15.0,0.0
21902,43.0,0,30,3.0,0.0
21903,43.0,0,30,6.0,0.0
21904,51.0,48,30,14.0,0.0
21905,51.0,0,30,6.0,0.0
21906,43.0,0,30,7.0,0.0
21907,46.0,0,30,2.0,0.0
21908,51.0,0,30,3.0,0.0
21909,46.0,0,30,6.0,0.0
21910,58.0,0,30,4.0,0.0
21911,46.0,0,30,3.0,0.0
21912,63.0,0,30,4.0,0.0
21913,63.0,0,30,2.0,0.0
21914,58.0,0,30,2.0,0.0
21915,70.0,0,30,11.0,0.0
21916,58.0,0,30,13.0,0.0
21917,70.0,0,30,0.0,0.0
21918,70.0,0,30,1.0,0.0
21919,63.0,0,30,1.0,0.0
21920,58.0,0,30,5.0,0.0
21921,63.0,48,30,5.0,0.0
21922,63.0,0,30,12.0,0.0
21923,74.0,48,30,11.0,0.0
21924,70.0,0,30,12.0,0.0
21925,70.0,0,30,2.0,0.0
21926,58.0,0,30,5.0,0.0
21927,62.0,0,30,2.0,0.0
21928,74.0,0,30,1.0,0.0
21929,62.0,0,30,5.0,0.0
21930,70.0,0,30,1.0,0.0
21931,74.0,0,30,0.0,0.0
21932,62.0,0,30,13.0,0.0
21933,41.0,0,30,14.0,0.0
21934,29.0,32,40,15.0,0.0
21935,29.0,0,40,3.0,0.0
21936,53.0,0,30,4.0,0.0
21937,41.0,16,30,3.0,0.0
21938,41.0,0,30,6.0,0.0
21939,65.0,0,30,4.0,0.0
21940,46.0,0,30,6.0,0.0
21941,46.0,0,30,2.0,0.0
21942,53.0,0,30,6.0,0.0
21943,41.0,48,30,7.0,0.0
21944,58.0,0,30,4.0,0.0
21945,53.0,0,30,3.0,0.0
21946,53.0,0,30,14.0,0.0
21947,46.0,0,30,3.0,0.0
21948,74.0,48,30,0.0,0.0
21949,58.0,0,30,5.0,0.0
21950,70.0,0,30,12.0,0.0
21951,70.0,0,30,1.0,0.0
21952,70.0,0,30,2.0,0.0
21953,62.0,0,30,2.0,0.0
21954,62.0,0,30,13.0,0.0
21955,74.0,0,30,11.0,0.0
21956,62.0,0,30,5.0,0.0
21957,74.0,0,30,1.0,0.0
21958,57.0,0,30,5.0,0.0
21959,69.0,0,30,12.0,0.0
21960,69.0,0,30,1.0,0.0
21961,72.0,48,30,1.0,0.0
21962,60.0,0,30,13.0,0.0
21963,72.0,0,30,11.0,0.0
21964,72.0,0,30,0.0,0.0
21965,60.0,0,30,2.0,0.0
21966,69.0,0,30,2.0,0.0
21967,60.0,0,30,5.0,0.0
21968,41.0,16,30,3.0,0.0
21969,29.0,32,40,15.0,0.0
21970,53.0,0,30,4.0,0.0
21971,29.0,0,40,3.0,0.0
21972,41.0,0,30,14.0,0.0
21973,41.0,0,30,7.0,0.0
21974,53.0,0,30,3.0,0.0
21975,48.0,48,30,3.0,0.0
21976,41.0,0,30,6.0,0.0
21977,53.0,0,30,14.0,0.0
21978,53.0,0,30,6.0,0.0
21979,60.0,0,30,4.0,0.0
21980,65.0,0,30,4.0,0.0
21981,48.0,0,30,6.0,0.0
21982,48.0,0,30,2.0,0.0
21983,60.0,0,30,13.0,0.0
21984,57.0,64,30,5.0,0.0
21985,60.0,0,30,5.0,0.0
21986,72.0,0,30,0.0,0.0
21987,60.0,0,30,2.0,0.0
21988,69.0,0,30,12.0,0.0
21989,72.0,0,30,11.0,0.0
21990,69.0,0,30,1.0,0.0
21991,72.0,0,30,1.0,0.0
21992,69.0,0,30,2.0,0.0
21993,62.0,0,150,2.0,0.0
21994,74.0,32,150,11.0,0.0
21995,58.0,0,40,5.0,0.0
21996,70.0,0,150,2.0,0.0
21997,62.0,0,40,5.0,0.0
21998,46.0,0,30,3.0,0.0
21999,58.0,0,30,4.0,0.0
22000,34.0,32,40,15.0,0.0
22001,34.0,0,40,3.0,0.0
22002,46.0,16,30,14.0,0.0
22003,53.0,0,30,6.0,0.0
22004,53.0,0,30,3.0,0.0
22005,50.0,0,30,2.0,0.0
22006,46.0,0,30,7.0,0.0
22007,65.0,0,30,4.0,0.0
22008,62.0,0,30,4.0,0.0
22009,53.0,0,30,14.0,0.0
22010,50.0,0,30,3.0,0.0
22011,46.0,0,30,6.0,0.0
22012,50.0,16,30,6.0,0.0
22013,70.0,0,15,12.0,0.0
22014,62.0,0,15,13.0,0.0
22015,62.0,0,30,5.0,0.0
22016,74.0,0,15,1.0,0.0
22017,70.0,0,15,1.0,0.0
22018,74.0,0,15,0.0,0.0
22019,58.0,0,30,5.0,0.0
22020,62.0,0,30,2.0,0.0
22021,70.0,0,30,2.0,0.0
22022,74.0,0,30,11.0,0.0
22023,65.0,0,30,12.0,0.0
22024,53.0,0,30,5.0,0.0
22025,70.0,0,30,0.0,0.0
22026,58.0,0,30,5.0,0.0
22027,70.0,0,30,11.0,0.0
22028,58.0,0,30,2.0,0.0
22029,41.0,0,150,8.0,0.0
22030,58.0,48,30,13.0,0.0
22031,65.0,0,30,2.0,0.0
22032,65.0,0,30,1.0,0.0
22033,70.0,0,30,1.0,0.0
22034,50.0,0,30,14.0,0.0
22035,49.0,2,150,9.0,0.0
22036,38.0,0,40,15.0,0.0
22037,50.0,16,30,3.0,0.0
22038,62.0,0,30,4.0,0.0
22039,38.0,10,40,3.0,0.0
22040,50.0,0,30,6.0,0.0
22041,58.0,0,30,3.0,0.0
22042,50.0,2,30,7.0,0.0
22043,53.0,0,30,3.0,0.0
22044,53.0,0,30,6.0,0.0
22045,54.0,6,15,9.0,0.0
22046,53.0,0,30,2.0,0.0
22047,70.0,0,30,4.0,0.0
22048,58.0,0,30,14.0,0.0
22049,65.0,0,30,4.0,0.0
22050,58.0,0,30,6.0,0.0
22051,38.0,6,15,9.0,0.0
22052,54.0,10,15,9.0,0.0
22053,77.0,0,15,11.0,0.0
22054,77.0,0,15,0.0,0.0
22055,54.0,6,15,9.0,0.0
22056,38.0,6,15,9.0,0.0
22057,79.0,0,15,0.0,0.0
22058,79.0,10,15,11.0,0.0
22059,54.0,2,15,9.0,0.0
22060,38.0,0,15,9.0,0.0
22061,41.0,32,40,8.0,0.0
22062,81.0,0,15,11.0,0.0
22063,81.0,6,15,0.0,0.0
22064,54.0,6,15,9.0,0.0
22065,54.0,10,15,9.0,0.0
22066,82.0,2,15,11.0,0.0
22067,82.0,0,15,0.0,0.0
22068,38.0,6,15,9.0,0.0
22069,54.0,6,15,9.0,0.0
22070,84.0,0,15,0.0,0.0
22071,84.0,0,15,11.0,0.0
22072,54.0,0,15,9.0,0.0
22073,82.0,0,30,0.0,0.0
22074,74.0,0,30,13.0,0.0
22075,70.0,0,30,5.0,0.0
22076,74.0,0,30,5.0,0.0
22077,86.0,0,30,1.0,0.0
22078,38.0,0,30,9.0,0.0
22079,82.0,0,30,12.0,0.0
22080,82.0,0,30,1.0,0.0
22081,86.0,0,30,11.0,0.0
22082,74.0,0,30,2.0,0.0
22083,54.0,2,90,9.0,0.0
22084,86.0,48,30,0.0,0.0
22085,46.0,32,180,8.0,0.0
22086,46.0,0,30,14.0,0.0
22087,58.0,0,30,4.0,0.0
22088,34.0,32,40,3.0,0.0
22089,46.0,14,30,3.0,0.0
22090,34.0,0,40,15.0,0.0
22091,53.0,0,30,2.0,0.0
22092,58.0,0,30,14.0,0.0
22093,46.0,48,30,7.0,0.0
22094,53.0,0,30,3.0,0.0
22095,58.0,0,30,3.0,0.0
22096,58.0,0,30,6.0,0.0
22097,62.0,0,30,6.0,0.0
22098,46.0,0,30,6.0,0.0
22099,65.0,0,30,4.0,0.0
22100,70.0,0,30,4.0,0.0
22101,74.0,0,30,2.0,0.0
22102,86.0,16,30,0.0,0.0
22103,82.0,0,30,0.0,0.0
22104,82.0,0,30,1.0,0.0
22105,74.0,0,30,5.0,0.0
22106,70.0,0,30,5.0,0.0
22107,86.0,0,30,11.0,0.0
22108,74.0,0,30,13.0,0.0
22109,82.0,0,30,12.0,0.0
22110,86.0,0,30,1.0,0.0
22111,81.0,0,30,0.0,0.0
22112,84.0,0,30,0.0,0.0
22113,75.0,0,30,2.0,0.0
22114,81.0,0,30,12.0,0.0
22115,81.0,0,30,1.0,0.0
22116,84.0,48,30,11.0,0.0
22117,72.0,0,30,5.0,0.0
22118,69.0,0,30,5.0,0.0
22119,72.0,0,30,13.0,0.0
22120,72.0,0,30,2.0,0.0
22121,84.0,0,30,1.0,0.0
22122,36.0,32,40,3.0,0.0
22123,48.0,0,30,3.0,0.0
22124,48.0,16,30,14.0,0.0
22125,36.0,0,40,15.0,0.0
22126,60.0,0,30,4.0,0.0
22127,48.0,0,30,7.0,0.0
22128,51.0,0,30,2.0,0.0
22129,51.0,0,30,6.0,0.0
22130,57.0,0,30,6.0,0.0
22131,57.0,0,30,3.0,0.0
22132,51.0,0,30,3.0,0.0
22133,48.0,48,30,6.0,0.0
22134,69.0,0,30,4.0,0.0
22135,63.0,0,30,4.0,0.0
22136,57.0,0,30,14.0,0.0
22137,69.0,0,30,5.0,0.0
22138,81.0,0,30,12.0,0.0
22139,84.0,0,30,0.0,0.0
22140,72.0,0,30,5.0,0.0
22141,72.0,0,30,13.0,0.0
22142,84.0,64,30,11.0,0.0
22143,81.0,0,30,0.0,0.0
22144,75.0,0,30,2.0,0.0
22145,84.0,0,30,1.0,0.0
22146,81.0,0,30,1.0,0.0
22147,72.0,0,30,2.0,0.0
22148,82.0,32,150,11.0,0.0
22149,70.0,0,150,13.0,0.0
22150,65.0,0,40,5.0,0.0
22151,82.0,0,150,1.0,0.0
22152,77.0,0,150,1.0,0.0
22153,82.0,0,150,0.0,0.0
22154,70.0,0,40,5.0,0.0
22155,62.0,16,30,4.0,0.0
22156,50.0,0,30,3.0,0.0
22157,34.0,0,40,15.0,0.0
22158,46.0,0,30,14.0,0.0
22159,34.0,32,40,3.0,0.0
22160,53.0,0,30,3.0,0.0
22161,58.0,0,30,3.0,0.0
22162,58.0,0,30,14.0,0.0
22163,50.0,0,30,7.0,0.0
22164,58.0,0,30,6.0,0.0
22165,53.0,0,30,6.0,0.0
22166,70.0,0,30,4.0,0.0
22167,65.0,0,30,4.0,0.0
22168,53.0,16,30,2.0,0.0
22169,50.0,0,30,6.0,0.0
22170,77.0,0,15,2.0,0.0
22171,70.0,0,15,2.0,0.0
22172,70.0,48,30,13.0,0.0
22173,77.0,0,15,12.0,0.0
22174,82.0,0,30,11.0,0.0
22175,77.0,0,30,1.0,0.0
22176,82.0,0,30,1.0,0.0
22177,82.0,0,30,0.0,0.0
22178,65.0,0,30,5.0,0.0
22179,70.0,0,30,5.0,0.0
22180,67.0,0,30,13.0,0.0
22181,79.0,0,30,0.0,0.0
22182,75.0,0,30,12.0,0.0
22183,75.0,0,30,0.0,0.0
22184,75.0,0,30,2.0,0.0
22185,63.0,0,30,5.0,0.0
22186,75.0,0,30,1.0,0.0
22187,79.0,0,30,11.0,0.0
22188,79.0,0,30,1.0,0.0
22189,67.0,0,30,2.0,0.0
22190,67.0,0,30,5.0,0.0
22191,51.0,0,30,3.0,0.0
22192,39.0,32,40,15.0,0.0
22193,39.0,0,40,3.0,0.0
22194,51.0,0,30,14.0,0.0
22195,63.0,16,30,4.0,0.0
22196,51.0,0,30,7.0,0.0
22197,70.0,0,30,4.0,0.0
22198,67.0,0,30,4.0,0.0
22199,51.0,0,30,6.0,0.0
22200,58.0,0,30,14.0,0.0
22201,55.0,0,30,3.0,0.0
22202,58.0,0,30,6.0,0.0
22203,58.0,0,30,3.0,0.0
22204,55.0,0,30,6.0,0.0
22205,55.0,48,30,2.0,0.0
22206,67.0,0,30,13.0,0.0
22207,79.0,0,30,11.0,0.0
22208,63.0,0,30,5.0,0.0
22209,75.0,0,30,0.0,0.0
22210,79.0,0,30,0.0,0.0
22211,75.0,0,30,12.0,0.0
22212,75.0,0,30,1.0,0.0
22213,79.0,48,30,1.0,0.0
22214,75.0,0,30,2.0,0.0
22215,67.0,0,30,5.0,0.0
22216,67.0,0,30,2.0,0.0
22217,77.0,0,30,11.0,0.0
22218,77.0,0,30,2.0,0.0
22219,65.0,0,30,2.0,0.0
22220,58.0,0,30,5.0,0.0
22221,65.0,0,30,13.0,0.0
22222,77.0,0,30,0.0,0.0
22223,77.0,0,30,1.0,0.0
22224,65.0,0,30,5.0,0.0
22225,70.0,0,30,12.0,0.0
22226,65.0,0,30,1.0,0.0
22227,38.0,32,40,3.0,0.0
22228,38.0,0,40,15.0,0.0
22229,50.0,0,30,3.0,0.0
22230,50.0,0,30,14.0,0.0
22231,62.0,16,30,4.0,0.0
22232,58.0,0,30,3.0,0.0
22233,70.0,0,30,4.0,0.0
22234,50.0,0,30,7.0,0.0
22235,65.0,0,30,4.0,0.0
22236,58.0,0,30,14.0,0.0
22237,53.0,0,30,6.0,0.0
22238,53.0,0,30,2.0,0.0
22239,58.0,0,30,6.0,0.0
22240,50.0,48,30,6.0,0.0
22241,53.0,0,30,3.0,0.0
22242,65.0,0,30,13.0,0.0
22243,77.0,0,30,1.0,0.0
22244,65.0,0,30,1.0,0.0
22245,77.0,0,30,11.0,0.0
22246,58.0,0,30,5.0,0.0
22247,65.0,0,30,5.0,0.0
22248,70.0,0,30,12.0,0.0
22249,77.0,0,30,0.0,0.0
22250,65.0,0,30,2.0,0.0
22251,77.0,0,30,2.0,0.0
22252,62.0,0,30,5.0,0.0
22253,74.0,48,30,1.0,0.0
22254,82.0,0,30,0.0,0.0
22255,70.0,0,30,1.0,0.0
22256,70.0,0,30,13.0,0.0
22257,70.0,0,30,2.0,0.0
22258,74.0,0,30,2.0,0.0
22259,70.0,0,30,5.0,0.0
22260,82.0,0,30,11.0,0.0
22261,74.0,0,30,12.0,0.0
22262,58.0,0,30,4.0,0.0
22263,34.0,32,40,15.0,0.0
22264,34.0,0,40,3.0,0.0
22265,46.0,16,30,3.0,0.0
22266,46.0,0,30,14.0,0.0
22267,58.0,0,30,14.0,0.0
22268,58.0,0,30,6.0,0.0
22269,53.0,0,30,2.0,0.0
22270,62.0,0,30,6.0,0.0
22271,46.0,0,30,7.0,0.0
22272,53.0,0,30,3.0,0.0
22273,46.0,0,30,6.0,0.0
22274,58.0,48,30,3.0,0.0
22275,65.0,0,30,4.0,0.0
22276,70.0,0,30,4.0,0.0
22277,82.0,0,30,0.0,0.0
22278,74.0,0,30,2.0,0.0
22279,74.0,0,30,1.0,0.0
22280,70.0,0,30,1.0,0.0
22281,82.0,0,30,11.0,0.0
22282,62.0,0,30,5.0,0.0
22283,70.0,0,30,5.0,0.0
22284,74.0,64,30,12.0,0.0
22285,70.0,0,30,13.0,0.0
22286,70.0,0,30,2.0,0.0
22287,69.0,0,40,5.0,0.0
22288,81.0,0,150,12.0,0.0
22289,84.0,0,150,0.0,0.0
22290,81.0,0,150,0.0,0.0
22291,77.0,0,150,13.0,0.0
22292,72.0,0,150,13.0,0.0
22293,72.0,0,40,5.0,0.0
22294,29.0,0,40,3.0,0.0
22295,65.0,16,30,4.0,0.0
22296,41.0,0,30,3.0,0.0
22297,41.0,0,30,14.0,0.0
22298,29.0,32,40,15.0,0.0
22299,57.0,0,30,14.0,0.0
22300,57.0,0,30,6.0,0.0
22301,41.0,0,30,7.0,0.0
22302,41.0,0,30,6.0,0.0
22303,65.0,0,30,4.0,0.0
22304,69.0,0,30,4.0,0.0
22305,53.0,16,30,2.0,0.0
22306,53.0,0,30,3.0,0.0
22307,57.0,0,30,3.0,0.0
22308,60.0,0,30,6.0,0.0
22309,72.0,0,30,5.0,0.0
22310,84.0,0,15,11.0,0.0
22311,69.0,0,30,5.0,0.0
22312,81.0,0,30,12.0,0.0
22313,72.0,32,15,1.0,0.0
22314,77.0,0,15,1.0,0.0
22315,72.0,0,30,13.0,0.0
22316,77.0,0,15,2.0,0.0
22317,72.0,0,15,2.0,0.0
22318,81.0,0,30,0.0,0.0
22319,84.0,0,30,0.0,0.0
22320,77.0,0,30,13.0,0.0
22321,77.0,0,30,5.0,0.0
22322,69.0,0,30,5.0,0.0
22323,89.0,0,30,0.0,0.0
22324,81.0,0,30,12.0,0.0
22325,65.0,0,30,5.0,0.0
22326,77.0,48,30,13.0,0.0
22327,89.0,0,30,11.0,0.0
22328,49.0,0,150,9.0,0.0
22329,41.0,10,40,15.0,0.0
22330,53.0,16,30,14.0,0.0
22331,60.0,0,30,14.0,0.0
22332,38.0,6,15,9.0,0.0
22333,57.0,2,30,2.0,0.0
22334,77.0,8,20,0.0,0.0
22335,54.0,6,15,9.0,0.0
22336,54.0,2,15,9.0,0.0
22337,38.0,6,15,9.0,0.0
22338,54.0,6,15,9.0,0.0
22339,79.0,0,20,0.0,0.0
22340,77.0,0,15,11.0,0.0
22341,54.0,2,15,9.0,0.0
22342,81.0,8,20,0.0,0.0
22343,38.0,6,15,9.0,0.0
22344,79.0,0,15,11.0,0.0
22345,41.0,10,15,8.0,0.0
22346,54.0,6,15,9.0,0.0
22347,54.0,2,15,9.0,0.0
22348,81.0,2,15,11.0,0.0
22349,38.0,0,15,9.0,0.0
22350,54.0,6,15,9.0,0.0
22351,82.0,2,15,0.0,0.0
22352,82.0,4,15,11.0,0.0
22353,54.0,2,15,9.0,0.0
22354,72.0,0,30,2.0,0.0
22355,84.0,0,30,0.0,0.0
22356,72.0,0,30,5.0,0.0
22357,46.0,32,180,8.0,0.0
22358,38.0,0,30,9.0,0.0
22359,72.0,0,30,13.0,0.0
22360,65.0,0,30,5.0,0.0
22361,77.0,0,30,2.0,0.0
22362,54.0,2,90,9.0,0.0
22363,84.0,0,30,1.0,0.0
22364,77.0,0,30,12.0,0.0
22365,84.0,0,30,11.0,0.0
22366,77.0,0,30,1.0,0.0
22367,29.0,0,40,3.0,0.0
22368,29.0,32,40,15.0,0.0
22369,41.0,0,30,3.0,0.0
22370,41.0,14,30,14.0,0.0
22371,65.0,0,30,4.0,0.0
22372,53.0,0,30,3.0,0.0
22373,53.0,0,30,14.0,0.0
22374,57.0,0,30,3.0,0.0
22375,65.0,48,30,4.0,0.0
22376,53.0,0,30,6.0,0.0
22377,69.0,0,30,4.0,0.0
22378,57.0,0,30,6.0,0.0
22379,41.0,0,30,6.0,0.0
22380,41.0,0,30,7.0,0.0
22381,53.0,0,30,2.0,0.0
22382,77.0,0,30,2.0,0.0
22383,72.0,0,30,5.0,0.0
22384,77.0,0,30,12.0,0.0
22385,72.0,0,30,2.0,0.0
22386,72.0,16,30,13.0,0.0
22387,84.0,0,30,11.0,0.0
22388,77.0,0,30,1.0,0.0
22389,84.0,0,30,0.0,0.0
22390,84.0,0,30,1.0,0.0
22391,65.0,0,30,5.0,0.0
22392,77.0,0,30,12.0,0.0
22393,86.0,0,30,11.0,0.0
22394,74.0,48,30,13.0,0.0
22395,77.0,0,30,1.0,0.0
22396,74.0,0,30,5.0,0.0
22397,86.0,0,30,1.0,0.0
22398,86.0,0,30,0.0,0.0
22399,74.0,0,30,2.0,0.0
22400,77.0,0,30,2.0,0.0
22401,65.0,0,30,5.0,0.0
22402,46.0,0,30,14.0,0.0
22403,46.0,0,30,3.0,0.0
22404,34.0,32,40,15.0,0.0
22405,58.0,16,30,4.0,0.0
22406,34.0,0,40,3.0,0.0
22407,53.0,0,30,3.0,0.0
22408,53.0,0,30,2.0,0.0
22409,53.0,0,30,6.0,0.0
22410,58.0,0,30,6.0,0.0
22411,53.0,0,30,14.0,0.0
22412,46.0,0,30,7.0,0.0
22413,46.0,48,30,6.0,0.0
22414,58.0,0,30,3.0,0.0
22415,65.0,0,30,4.0,0.0
22416,70.0,0,30,4.0,0.0
22417,82.0,0,30,11.0,0.0
22418,70.0,0,30,13.0,0.0
22419,82.0,0,30,0.0,0.0
22420,65.0,0,30,5.0,0.0
22421,82.0,0,30,1.0,0.0
22422,77.0,0,30,1.0,0.0
22423,70.0,0,30,5.0,0.0
22424,77.0,0,30,12.0,0.0
22425,70.0,0,30,2.0,0.0
22426,77.0,0,30,2.0,0.0
22427,69.0,0,150,13.0,0.0
22428,77.0,32,90,12.0,0.0
22429,77.0,0,150,1.0,0.0
22430,81.0,0,150,0.0,0.0
22431,65.0,0,40,5.0,0.0
22432,81.0,0,150,1.0,0.0
22433,77.0,0,150,2.0,0.0
22434,69.0,0,40,5.0,0.0
22435,81.0,32,150,11.0,0.0
22436,69.0,0,150,2.0,0.0
22437,53.0,0,30,14.0,0.0
22438,41.0,0,40,15.0,0.0
22439,65.0,0,30,4.0,0.0
22440,41.0,0,40,3.0,0.0
22441,53.0,16,30,3.0,0.0
22442,57.0,0,30,6.0,0.0
22443,60.0,0,30,6.0,0.0
22444,57.0,0,30,14.0,0.0
22445,41.0,0,30,7.0,0.0
22446,69.0,0,30,4.0,0.0
22447,41.0,0,30,6.0,0.0
22448,72.0,0,30,4.0,0.0
22449,57.0,0,30,3.0,0.0
22450,57.0,16,30,2.0,0.0
22451,60.0,0,30,3.0,0.0
22452,79.0,0,30,1.0,0.0
22453,67.0,0,30,5.0,0.0
22454,79.0,0,30,0.0,0.0
22455,79.0,48,30,11.0,0.0
22456,67.0,0,30,2.0,0.0
22457,67.0,0,30,13.0,0.0
22458,79.0,0,30,2.0,0.0
22459,65.0,0,30,5.0,0.0
22460,77.0,0,30,1.0,0.0
22461,77.0,0,30,11.0,0.0
22462,65.0,0,30,2.0,0.0
22463,77.0,48,30,2.0,0.0
22464,77.0,0,30,0.0,0.0
22465,65.0,0,30,13.0,0.0
22466,38.0,32,40,3.0,0.0
22467,38.0,0,40,15.0,0.0
22468,50.0,0,30,14.0,0.0
22469,50.0,16,30,3.0,0.0
22470,62.0,0,30,4.0,0.0
22471,53.0,0,30,2.0,0.0
22472,58.0,48,30,6.0,0.0
22473,53.0,0,30,6.0,0.0
22474,50.0,0,30,6.0,0.0
22475,70.0,0,30,4.0,0.0
22476,58.0,0,30,3.0,0.0
22477,53.0,0,30,3.0,0.0
22478,50.0,0,30,7.0,0.0
22479,65.0,0,30,4.0,0.0
22480,53.0,0,30,14.0,0.0
22481,89.0,0,30,11.0,0.0
22482,89.0,0,30,0.0,0.0
22483,77.0,48,30,13.0,0.0
22484,79.0,0,30,11.0,0.0
22485,67.0,48,30,2.0,0.0
22486,79.0,0,30,1.0,0.0
22487,79.0,0,30,0.0,0.0
22488,67.0,0,30,1.0,0.0
22489,67.0,0,30,13.0,0.0
22490,39.0,32,40,15.0,0.0
22491,51.0,0,30,3.0,0.0
22492,51.0,0,30,14.0,0.0
22493,39.0,0,40,3.0,0.0
22494,63.0,16,30,4.0,0.0
22495,55.0,0,30,14.0,0.0
22496,55.0,0,30,6.0,0.0
22497,60.0,0,30,6.0,0.0
22498,55.0,48,30,2.0,0.0
22499,60.0,0,30,3.0,0.0
22500,51.0,0,30,7.0,0.0
22501,67.0,0,30,4.0,0.0
22502,72.0,0,30,4.0,0.0
22503,55.0,0,30,3.0,0.0
22504,51.0,0,30,6.0,0.0
22505,79.0,0,30,13.0,0.0
22506,91.0,0,30,0.0,0.0
22507,91.0,48,30,11.0,0.0
22508,81.0,0,30,0.0,0.0
22509,69.0,0,30,13.0,0.0
22510,69.0,0,30,2.0,0.0
22511,69.0,0,30,1.0,0.0
22512,81.0,0,30,11.0,0.0
22513,81.0,48,30,1.0,0.0
22514,41.0,0,40,15.0,0.0
22515,41.0,32,40,3.0,0.0
22516,53.0,0,30,14.0,0.0
22517,65.0,16,30,4.0,0.0
22518,53.0,0,30,3.0,0.0
22519,57.0,0,30,2.0,0.0
22520,74.0,0,30,4.0,0.0
22521,69.0,0,30,4.0,0.0
22522,53.0,0,30,7.0,0.0
22523,62.0,0,30,6.0,0.0
22524,57.0,0,30,3.0,0.0
22525,57.0,48,30,14.0,0.0
22526,62.0,0,30,3.0,0.0
22527,53.0,0,30,6.0,0.0
22528,57.0,0,30,6.0,0.0
22529,81.0,0,30,13.0,0.0
22530,93.0,48,30,11.0,0.0
22531,93.0,0,30,0.0,0.0
22532,70.0,0,30,13.0,0.0
22533,70.0,0,30,1.0,0.0
22534,70.0,0,30,2.0,0.0
22535,82.0,48,30,1.0,0.0
22536,82.0,0,30,0.0,0.0
22537,82.0,0,30,11.0,0.0
22538,43.0,32,40,3.0,0.0
22539,55.0,0,30,14.0,0.0
22540,67.0,0,30,4.0,0.0
22541,55.0,16,30,3.0,0.0
22542,43.0,0,40,15.0,0.0
22543,55.0,0,30,6.0,0.0
22544,75.0,0,30,4.0,0.0
22545,58.0,0,30,14.0,0.0
22546,70.0,0,30,4.0,0.0
22547,58.0,0,30,6.0,0.0
22548,58.0,0,30,3.0,0.0
22549,63.0,48,30,3.0,0.0
22550,58.0,0,30,2.0,0.0
22551,63.0,0,30,6.0,0.0
22552,55.0,0,30,7.0,0.0
22553,94.0,0,30,11.0,0.0
22554,82.0,48,30,13.0,0.0
22555,94.0,0,30,0.0,0.0
22556,72.0,0,30,13.0,0.0
22557,84.0,0,30,11.0,0.0
22558,84.0,0,30,0.0,0.0
22559,84.0,48,30,1.0,0.0
22560,72.0,0,30,1.0,0.0
22561,72.0,0,30,2.0,0.0
22562,57.0,16,30,3.0,0.0
22563,69.0,0,30,4.0,0.0
22564,45.0,32,40,15.0,0.0
22565,45.0,0,40,3.0,0.0
22566,57.0,0,30,14.0,0.0
22567,60.0,0,30,3.0,0.0
22568,57.0,0,30,6.0,0.0
22569,57.0,0,30,7.0,0.0
22570,65.0,0,30,6.0,0.0
22571,65.0,0,30,3.0,0.0
22572,72.0,0,30,4.0,0.0
22573,77.0,0,30,4.0,0.0
22574,60.0,0,30,6.0,0.0
22575,60.0,0,30,2.0,0.0
22576,60.0,48,30,14.0,0.0
22577,96.0,0,30,11.0,0.0
22578,84.0,48,30,13.0,0.0
22579,96.0,0,30,0.0,0.0
22580,82.0,48,30,12.0,0.0
22581,70.0,0,30,5.0,0.0
22582,86.0,0,30,0.0,0.0
22583,86.0,0,30,11.0,0.0
22584,82.0,0,30,1.0,0.0
22585,82.0,0,30,0.0,0.0
22586,86.0,0,30,1.0,0.0
22587,74.0,0,30,5.0,0.0
22588,74.0,0,30,2.0,0.0
22589,74.0,0,30,13.0,0.0
22590,70.0,16,30,4.0,0.0
22591,46.0,32,40,3.0,0.0
22592,46.0,0,40,15.0,0.0
22593,58.0,0,30,14.0,0.0
22594,58.0,0,30,3.0,0.0
22595,62.0,0,30,3.0,0.0
22596,62.0,0,30,2.0,0.0
22597,62.0,0,30,6.0,0.0
22598,65.0,0,30,3.0,0.0
22599,62.0,0,30,14.0,0.0
22600,65.0,0,30,6.0,0.0
22601,74.0,0,30,4.0,0.0
22602,77.0,0,30,4.0,0.0
22603,58.0,48,30,6.0,0.0
22604,58.0,0,30,7.0,0.0
22605,82.0,0,30,0.0,0.0
22606,86.0,0,30,0.0,0.0
22607,82.0,0,30,1.0,0.0
22608,86.0,0,30,1.0,0.0
22609,74.0,0,30,2.0,0.0
22610,86.0,0,30,11.0,0.0
22611,74.0,0,30,13.0,0.0
22612,82.0,48,30,12.0,0.0
22613,70.0,0,30,5.0,0.0
22614,74.0,0,30,5.0,0.0
22615,84.0,0,30,0.0,0.0
22616,72.0,0,30,2.0,0.0
22617,84.0,0,30,11.0,0.0
22618,84.0,0,30,1.0,0.0
22619,81.0,0,30,1.0,0.0
22620,81.0,0,30,12.0,0.0
22621,75.0,0,30,2.0,0.0
22622,72.0,0,30,13.0,0.0
22623,69.0,48,30,5.0,0.0
22624,81.0,0,30,0.0,0.0
22625,75.0,0,30,13.0,0.0
22626,72.0,0,30,5.0,0.0
22627,60.0,0,30,14.0,0.0
22628,72.0,0,30,4.0,0.0
22629,48.0,32,40,3.0,0.0
22630,48.0,0,40,15.0,0.0
22631,60.0,16,30,3.0,0.0
22632,69.0,48,30,6.0,0.0
22633,63.0,0,30,2.0,0.0
22634,63.0,0,30,14.0,0.0
22635,60.0,0,30,6.0,0.0
22636,69.0,0,30,3.0,0.0
22637,63.0,0,30,6.0,0.0
22638,63.0,0,30,3.0,0.0
22639,60.0,0,30,7.0,0.0
22640,81.0,0,30,4.0,0.0
22641,75.0,0,30,4.0,0.0
22642,81.0,0,30,12.0,0.0
22643,84.0,64,30,0.0,0.0
22644,75.0,0,30,13.0,0.0
22645,81.0,0,30,1.0,0.0
22646,81.0,0,30,0.0,0.0
22647,72.0,0,30,2.0,0.0
22648,84.0,0,30,1.0,0.0
22649,84.0,0,30,11.0,0.0
22650,72.0,0,30,5.0,0.0
22651,69.0,0,30,5.0,0.0
22652,72.0,0,30,13.0,0.0
22653,75.0,0,30,2.0,0.0
22654,70.0,0,150,13.0,0.0
22655,70.0,0,40,5.0,0.0
22656,65.0,32,40,5.0,0.0
22657,70.0,0,150,2.0,0.0
22658,50.0,32,40,3.0,0.0
22659,62.0,0,30,14.0,0.0
22660,62.0,16,30,3.0,0.0
22661,74.0,0,30,4.0,0.0
22662,50.0,0,40,15.0,0.0
22663,65.0,0,30,3.0,0.0
22664,65.0,0,30,6.0,0.0
22665,70.0,0,30,6.0,0.0
22666,62.0,16,30,7.0,0.0
22667,77.0,0,30,4.0,0.0
22668,82.0,0,30,4.0,0.0
22669,65.0,0,30,14.0,0.0
22670,70.0,0,30,3.0,0.0
22671,62.0,0,30,6.0,0.0
22672,65.0,0,30,2.0,0.0
22673,77.0,0,15,12.0,0.0
22674,77.0,0,15,2.0,0.0
22675,82.0,0,15,0.0,0.0
22676,65.0,0,30,5.0,0.0
22677,70.0,0,30,5.0,0.0
22678,70.0,0,30,2.0,0.0
22679,70.0,0,30,13.0,0.0
22680,82.0,0,15,11.0,0.0
22681,82.0,32,15,1.0,0.0
22682,70.0,0,30,12.0,0.0
22683,70.0,0,30,1.0,0.0
22684,74.0,0,30,2.0,0.0
22685,70.0,0,30,0.0,0.0
22686,62.0,0,30,2.0,0.0
22687,74.0,0,30,1.0,0.0
22688,74.0,48,30,11.0,0.0
22689,62.0,0,30,5.0,0.0
22690,74.0,0,30,0.0,0.0
22691,62.0,0,30,13.0,0.0
22692,58.0,0,30,5.0,0.0
22693,67.0,0,30,4.0,0.0
22694,55.0,16,30,3.0,0.0
22695,43.0,0,40,3.0,0.0
22696,55.0,0,30,14.0,0.0
22697,43.0,32,40,15.0,0.0
22698,70.0,48,30,4.0,0.0
22699,58.0,0,30,2.0,0.0
22700,58.0,0,30,14.0,0.0
22701,62.0,0,30,6.0,0.0
22702,58.0,0,30,6.0,0.0
22703,55.0,0,30,6.0,0.0
22704,58.0,0,30,3.0,0.0
22705,62.0,0,30,3.0,0.0
22706,55.0,0,30,7.0,0.0
22707,74.0,0,30,4.0,0.0
22708,70.0,48,30,1.0,0.0
22709,74.0,0,30,1.0,0.0
22710,74.0,0,30,2.0,0.0
22711,62.0,0,30,2.0,0.0
22712,70.0,0,30,0.0,0.0
22713,62.0,0,30,13.0,0.0
22714,70.0,0,30,12.0,0.0
22715,74.0,0,30,11.0,0.0
22716,58.0,0,30,5.0,0.0
22717,74.0,0,30,0.0,0.0
22718,62.0,0,30,5.0,0.0
22719,58.0,0,30,5.0,0.0
22720,79.0,0,30,11.0,0.0
22721,67.0,0,30,2.0,0.0
22722,67.0,0,30,13.0,0.0
22723,79.0,0,30,1.0,0.0
22724,70.0,0,30,1.0,0.0
22725,70.0,0,30,2.0,0.0
22726,79.0,48,30,0.0,0.0
22727,67.0,0,30,5.0,0.0
22728,70.0,0,30,12.0,0.0
22729,39.0,0,40,15.0,0.0
22730,51.0,0,30,3.0,0.0
22731,51.0,0,30,14.0,0.0
22732,39.0,32,40,3.0,0.0
22733,63.0,16,30,4.0,0.0
22734,55.0,48,30,2.0,0.0
22735,55.0,0,30,14.0,0.0
22736,67.0,0,30,4.0,0.0
22737,70.0,0,30,4.0,0.0
22738,58.0,0,30,14.0,0.0
22739,58.0,0,30,3.0,0.0
22740,51.0,0,30,7.0,0.0
22741,58.0,0,30,6.0,0.0
22742,63.0,0,30,6.0,0.0
22743,51.0,0,30,6.0,0.0
22744,55.0,0,30,3.0,0.0
22745,79.0,0,30,0.0,0.0
22746,70.0,0,30,12.0,0.0
22747,58.0,0,30,5.0,0.0
22748,67.0,0,30,13.0,0.0
22749,67.0,0,30,2.0,0.0
22750,67.0,0,30,5.0,0.0
22751,70.0,0,30,2.0,0.0
22752,70.0,0,30,1.0,0.0
22753,79.0,48,30,1.0,0.0
22754,79.0,0,30,11.0,0.0
22755,57.0,0,30,13.0,0.0
22756,69.0,0,30,11.0,0.0
22757,69.0,0,30,0.0,0.0
22758,57.0,0,30,5.0,0.0
22759,63.0,0,30,5.0,0.0
22760,63.0,0,30,2.0,0.0
22761,57.0,0,30,2.0,0.0
22762,69.0,0,30,1.0,0.0
22763,63.0,0,30,1.0,0.0
22764,63.0,0,30,12.0,0.0
22765,65.0,0,30,4.0,0.0
22766,41.0,0,40,15.0,0.0
22767,41.0,32,40,3.0,0.0
22768,53.0,16,30,3.0,0.0
22769,53.0,0,30,14.0,0.0
22770,60.0,0,30,14.0,0.0
22771,53.0,48,30,3.0,0.0
22772,60.0,0,30,3.0,0.0
22773,60.0,0,30,6.0,0.0
22774,53.0,0,30,2.0,0.0
22775,53.0,0,30,6.0,0.0
22776,53.0,0,30,7.0,0.0
22777,65.0,0,30,4.0,0.0
22778,72.0,0,30,4.0,0.0
22779,63.0,0,30,1.0,0.0
22780,69.0,0,30,1.0,0.0
22781,63.0,0,30,5.0,0.0
22782,57.0,0,30,5.0,0.0
22783,69.0,0,30,0.0,0.0
22784,63.0,0,30,12.0,0.0
22785,63.0,64,30,2.0,0.0
22786,69.0,0,30,11.0,0.0
22787,57.0,0,30,13.0,0.0
22788,57.0,0,30,2.0,0.0
22789,58.0,32,150,13.0,0.0
22790,70.0,0,150,0.0,0.0
22791,62.0,0,40,12.0,0.0
22792,62.0,0,150,2.0,0.0
22793,58.0,0,150,2.0,0.0
22794,62.0,32,40,5.0,0.0
22795,70.0,0,150,11.0,0.0
22796,58.0,0,40,5.0,0.0
22797,46.0,0,30,3.0,0.0
22798,34.0,32,40,15.0,0.0
22799,46.0,0,30,14.0,0.0
22800,34.0,0,40,3.0,0.0
22801,58.0,16,30,4.0,0.0
22802,53.0,0,30,6.0,0.0
22803,50.0,0,30,2.0,0.0
22804,53.0,0,30,14.0,0.0
22805,46.0,0,30,7.0,0.0
22806,50.0,0,30,6.0,0.0
22807,53.0,16,30,3.0,0.0
22808,62.0,0,30,4.0,0.0
22809,50.0,0,30,3.0,0.0
22810,65.0,0,30,4.0,0.0
22811,46.0,0,30,6.0,0.0
22812,70.0,0,15,1.0,0.0
22813,62.0,0,30,12.0,0.0
22814,62.0,0,15,1.0,0.0
22815,70.0,0,30,11.0,0.0
22816,58.0,0,30,2.0,0.0
22817,62.0,0,30,2.0,0.0
22818,70.0,0,30,0.0,0.0
22819,62.0,0,30,5.0,0.0
22820,58.0,0,30,5.0,0.0
22821,58.0,0,30,13.0,0.0
22822,70.0,48,30,2.0,0.0
22823,82.0,0,30,11.0,0.0
22824,62.0,0,30,5.0,0.0
22825,82.0,0,30,0.0,0.0
22826,70.0,0,30,5.0,0.0
22827,74.0,0,30,12.0,0.0
22828,41.0,10,150,8.0,0.0
22829,74.0,0,30,2.0,0.0
22830,70.0,0,30,13.0,0.0
22831,74.0,0,30,1.0,0.0
22832,82.0,0,30,1.0,0.0
22833,58.0,0,30,5.0,0.0
22834,34.0,0,40,3.0,0.0
22835,49.0,0,150,9.0,0.0
22836,34.0,10,40,15.0,0.0
22837,58.0,0,30,4.0,0.0
22838,46.0,16,30,14.0,0.0
22839,53.0,0,30,2.0,0.0
22840,65.0,0,30,4.0,0.0
22841,38.0,6,15,9.0,0.0
22842,46.0,2,30,7.0,0.0
22843,53.0,0,30,14.0,0.0
22844,58.0,0,30,6.0,0.0
22845,46.0,0,30,6.0,0.0
22846,62.0,0,30,6.0,0.0
22847,54.0,6,15,9.0,0.0
22848,58.0,0,30,14.0,0.0
22849,54.0,10,15,9.0,0.0
22850,54.0,6,15,9.0,0.0
22851,38.0,6,15,9.0,0.0
22852,54.0,2,15,9.0,0.0
22853,38.0,6,15,9.0,0.0
22854,77.0,0,15,11.0,0.0
22855,54.0,2,15,9.0,0.0
22856,41.0,0,40,8.0,0.0
22857,77.0,4,15,0.0,0.0
22858,79.0,10,15,0.0,0.0
22859,54.0,2,15,9.0,0.0
22860,79.0,0,15,11.0,0.0
22861,81.0,0,15,11.0,0.0
22862,81.0,4,15,0.0,0.0
22863,54.0,2,15,9.0,0.0
22864,38.0,6,15,9.0,0.0
22865,54.0,2,15,9.0,0.0
22866,82.0,32,15,0.0,0.0
22867,82.0,0,15,11.0,0.0
22868,77.0,0,30,1.0,0.0
22869,84.0,0,30,1.0,0.0
22870,65.0,0,30,5.0,0.0
22871,77.0,0,30,2.0,0.0
22872,72.0,0,30,2.0,0.0
22873,46.0,32,180,8.0,0.0
22874,54.0,2,90,9.0,0.0
22875,38.0,48,30,9.0,0.0
22876,72.0,0,30,5.0,0.0
22877,77.0,0,30,12.0,0.0
22878,72.0,0,30,13.0,0.0
22879,84.0,0,30,0.0,0.0
22880,84.0,0,30,11.0,0.0
22881,65.0,0,30,4.0,0.0
22882,41.0,0,30,3.0,0.0
22883,41.0,14,30,14.0,0.0
22884,29.0,32,40,15.0,0.0
22885,29.0,0,40,3.0,0.0
22886,53.0,0,30,6.0,0.0
22887,57.0,0,30,3.0,0.0
22888,53.0,0,30,3.0,0.0
22889,41.0,48,30,7.0,0.0
22890,69.0,0,30,4.0,0.0
22891,57.0,0,30,6.0,0.0
22892,41.0,0,30,6.0,0.0
22893,65.0,0,30,4.0,0.0
22894,53.0,0,30,14.0,0.0
22895,53.0,0,30,2.0,0.0
22896,84.0,0,30,11.0,0.0
22897,72.0,0,30,13.0,0.0
22898,65.0,0,30,5.0,0.0
22899,77.0,0,30,2.0,0.0
22900,72.0,0,30,2.0,0.0
22901,72.0,0,30,5.0,0.0
22902,84.0,0,30,0.0,0.0
22903,77.0,0,30,12.0,0.0
22904,77.0,0,30,1.0,0.0
22905,84.0,16,30,1.0,0.0
22906,77.0,0,30,1.0,0.0
22907,86.0,0,30,11.0,0.0
22908,86.0,0,30,1.0,0.0
22909,77.0,0,30,2.0,0.0
22910,74.0,0,30,2.0,0.0
22911,77.0,0,30,12.0,0.0
22912,86.0,48,30,0.0,0.0
22913,74.0,0,30,5.0,0.0
22914,65.0,0,30,5.0,0.0
22915,74.0,0,30,13.0,0.0
22916,58.0,0,30,4.0,0.0
22917,34.0,0,40,3.0,0.0
22918,46.0,0,30,14.0,0.0
22919,34.0,32,40,15.0,0.0
22920,46.0,16,30,3.0,0.0
22921,70.0,0,30,4.0,0.0
22922,58.0,0,30,6.0,0.0
22923,53.0,0,30,6.0,0.0
22924,46.0,0,30,7.0,0.0
22925,53.0,0,30,14.0,0.0
22926,53.0,0,30,2.0,0.0
22927,65.0,0,30,4.0,0.0
22928,53.0,0,30,3.0,0.0
22929,58.0,0,30,3.0,0.0
22930,46.0,48,30,6.0,0.0
22931,82.0,0,30,1.0,0.0
22932,77.0,0,30,1.0,0.0
22933,65.0,0,30,5.0,0.0
22934,77.0,0,30,12.0,0.0
22935,82.0,64,30,0.0,0.0
22936,70.0,0,30,13.0,0.0
22937,77.0,0,30,2.0,0.0
22938,70.0,0,30,2.0,0.0
22939,70.0,0,30,5.0,0.0
22940,82.0,0,30,11.0,0.0
22941,77.0,0,150,1.0,0.0
22942,81.0,0,150,1.0,0.0
22943,81.0,0,150,11.0,0.0
22944,69.0,0,150,13.0,0.0
22945,81.0,0,150,0.0,0.0
22946,65.0,32,40,5.0,0.0
22947,77.0,0,150,2.0,0.0
22948,69.0,0,40,5.0,0.0
22949,69.0,32,150,2.0,0.0
22950,77.0,0,90,12.0,0.0
22951,41.0,0,40,3.0,0.0
22952,65.0,16,30,4.0,0.0
22953,53.0,0,30,14.0,0.0
22954,53.0,0,30,3.0,0.0
22955,41.0,32,40,15.0,0.0
22956,57.0,16,30,3.0,0.0
22957,69.0,0,30,4.0,0.0
22958,57.0,0,30,14.0,0.0
22959,60.0,0,30,6.0,0.0
22960,57.0,0,30,6.0,0.0
22961,60.0,0,30,3.0,0.0
22962,41.0,0,30,6.0,0.0
22963,72.0,0,30,4.0,0.0
22964,57.0,0,30,2.0,0.0
22965,41.0,0,30,7.0,0.0
22966,79.0,0,30,0.0,0.0
22967,67.0,0,30,13.0,0.0
22968,79.0,0,30,11.0,0.0
22969,79.0,0,30,2.0,0.0
22970,67.0,0,30,2.0,0.0
22971,79.0,0,30,1.0,0.0
22972,67.0,0,30,5.0,0.0
22973,77.0,0,30,0.0,0.0
22974,65.0,0,30,13.0,0.0
22975,77.0,0,30,2.0,0.0
22976,65.0,0,30,2.0,0.0
22977,65.0,0,30,5.0,0.0
22978,77.0,0,30,1.0,0.0
22979,77.0,0,30,11.0,0.0
22980,38.0,32,40,15.0,0.0
22981,50.0,16,30,3.0,0.0
22982,62.0,0,30,4.0,0.0
22983,50.0,0,30,14.0,0.0
22984,38.0,0,40,3.0,0.0
22985,50.0,0,30,6.0,0.0
22986,53.0,0,30,14.0,0.0
22987,53.0,48,30,2.0,0.0
22988,53.0,0,30,3.0,0.0
22989,58.0,0,30,3.0,0.0
22990,70.0,0,30,4.0,0.0
22991,65.0,0,30,4.0,0.0
22992,50.0,0,30,7.0,0.0
22993,58.0,0,30,6.0,0.0
22994,53.0,0,30,6.0,0.0
22995,77.0,48,30,13.0,0.0
22996,89.0,0,30,0.0,0.0
22997,89.0,0,30,11.0,0.0
22998,79.0,0,30,0.0,0.0
22999,67.0,0,30,2.0,0.0
23000,67.0,0,30,1.0,0.0
23001,79.0,48,30,11.0,0.0
23002,79.0,0,30,1.0,0.0
23003,67.0,0,30,13.0,0.0
23004,51.0,0,30,3.0,0.0
23005,39.0,32,40,3.0,0.0
23006,63.0,0,30,4.0,0.0
23007,51.0,16,30,14.0,0.0
23008,39.0,0,40,15.0,0.0
23009,51.0,0,30,6.0,0.0
23010,60.0,0,30,6.0,0.0
23011,55.0,0,30,3.0,0.0
23012,55.0,48,30,6.0,0.0
23013,67.0,0,30,4.0,0.0
23014,51.0,0,30,7.0,0.0
23015,72.0,0,30,4.0,0.0
23016,55.0,0,30,2.0,0.0
23017,55.0,0,30,14.0,0.0
23018,60.0,0,30,3.0,0.0
23019,91.0,0,30,0.0,0.0
23020,79.0,0,30,13.0,0.0
23021,91.0,48,30,11.0,0.0
23022,81.0,0,30,0.0,0.0
23023,69.0,0,30,1.0,0.0
23024,81.0,0,30,1.0,0.0
23025,69.0,48,30,2.0,0.0
23026,69.0,0,30,13.0,0.0
23027,81.0,0,30,11.0,0.0
23028,41.0,32,40,3.0,0.0
23029,65.0,0,30,4.0,0.0
23030,53.0,0,30,14.0,0.0
23031,53.0,16,30,3.0,0.0
23032,41.0,0,40,15.0,0.0
23033,57.0,0,30,2.0,0.0
23034,74.0,0,30,4.0,0.0
23035,69.0,0,30,4.0,0.0
23036,53.0,0,30,7.0,0.0
23037,57.0,0,30,6.0,0.0
23038,62.0,0,30,6.0,0.0
23039,57.0,0,30,3.0,0.0
23040,53.0,0,30,6.0,0.0
23041,62.0,0,30,3.0,0.0
23042,57.0,48,30,14.0,0.0
23043,81.0,0,30,13.0,0.0
23044,93.0,48,30,0.0,0.0
23045,93.0,0,30,11.0,0.0
23046,82.0,0,30,0.0,0.0
23047,70.0,0,30,2.0,0.0
23048,82.0,0,30,1.0,0.0
23049,70.0,0,30,13.0,0.0
23050,70.0,48,30,1.0,0.0
23051,82.0,0,30,11.0,0.0
23052,43.0,32,40,15.0,0.0
23053,43.0,0,40,3.0,0.0
23054,55.0,0,30,3.0,0.0
23055,55.0,0,30,14.0,0.0
23056,67.0,16,30,4.0,0.0
23057,55.0,0,30,7.0,0.0
23058,58.0,0,30,14.0,0.0
23059,70.0,48,30,4.0,0.0
23060,75.0,0,30,4.0,0.0
23061,58.0,0,30,2.0,0.0
23062,58.0,0,30,3.0,0.0
23063,63.0,0,30,3.0,0.0
23064,55.0,0,30,6.0,0.0
23065,63.0,0,30,6.0,0.0
23066,58.0,0,30,6.0,0.0
23067,94.0,0,30,11.0,0.0
23068,94.0,0,30,0.0,0.0
23069,82.0,48,30,13.0,0.0
23070,72.0,0,30,2.0,0.0
23071,84.0,48,30,11.0,0.0
23072,84.0,0,30,0.0,0.0
23073,72.0,0,30,1.0,0.0
23074,72.0,0,30,13.0,0.0
23075,84.0,0,30,1.0,0.0
23076,45.0,0,40,15.0,0.0
23077,57.0,0,30,3.0,0.0
23078,45.0,32,40,3.0,0.0
23079,57.0,0,30,14.0,0.0
23080,69.0,16,30,4.0,0.0
23081,57.0,0,30,7.0,0.0
23082,72.0,0,30,4.0,0.0
23083,77.0,0,30,4.0,0.0
23084,60.0,0,30,6.0,0.0
23085,65.0,0,30,6.0,0.0
23086,60.0,48,30,3.0,0.0
23087,57.0,0,30,6.0,0.0
23088,60.0,0,30,14.0,0.0
23089,60.0,0,30,2.0,0.0
23090,65.0,0,30,3.0,0.0
23091,96.0,48,30,11.0,0.0
23092,96.0,0,30,0.0,0.0
23093,84.0,0,30,13.0,0.0
23094,74.0,0,30,2.0,0.0
23095,82.0,0,30,12.0,0.0
23096,86.0,0,30,1.0,0.0
23097,86.0,0,30,11.0,0.0
23098,70.0,0,30,5.0,0.0
23099,82.0,0,30,0.0,0.0
23100,82.0,0,30,1.0,0.0
23101,74.0,48,30,13.0,0.0
23102,86.0,0,30,0.0,0.0
23103,74.0,0,30,5.0,0.0
23104,58.0,0,30,3.0,0.0
23105,46.0,0,40,15.0,0.0
23106,70.0,0,30,4.0,0.0
23107,46.0,32,40,3.0,0.0
23108,58.0,16,30,14.0,0.0
23109,74.0,0,30,4.0,0.0
23110,65.0,0,30,6.0,0.0
23111,65.0,0,30,3.0,0.0
23112,58.0,0,30,7.0,0.0
23113,77.0,0,30,4.0,0.0
23114,62.0,0,30,14.0,0.0
23115,58.0,48,30,6.0,0.0
23116,62.0,0,30,2.0,0.0
23117,62.0,0,30,6.0,0.0
23118,62.0,0,30,3.0,0.0
23119,86.0,0,30,11.0,0.0
23120,86.0,0,30,0.0,0.0
23121,82.0,0,30,0.0,0.0
23122,74.0,0,30,2.0,0.0
23123,74.0,0,30,13.0,0.0
23124,86.0,0,30,1.0,0.0
23125,74.0,0,30,5.0,0.0
23126,70.0,48,30,5.0,0.0
23127,82.0,0,30,1.0,0.0
23128,82.0,0,30,12.0,0.0
23129,81.0,0,30,1.0,0.0
23130,75.0,0,30,2.0,0.0
23131,72.0,0,30,2.0,0.0
23132,81.0,0,30,12.0,0.0
23133,72.0,0,30,5.0,0.0
23134,72.0,0,30,13.0,0.0
23135,69.0,0,30,5.0,0.0
23136,84.0,0,30,11.0,0.0
23137,84.0,0,30,1.0,0.0
23138,75.0,0,30,13.0,0.0
23139,81.0,0,30,0.0,0.0
23140,84.0,48,30,0.0,0.0
23141,48.0,0,40,15.0,0.0
23142,60.0,0,30,14.0,0.0
23143,60.0,0,30,3.0,0.0
23144,48.0,32,40,3.0,0.0
23145,72.0,16,30,4.0,0.0
23146,63.0,0,30,3.0,0.0
23147,63.0,0,30,6.0,0.0
23148,81.0,0,30,4.0,0.0
23149,69.0,0,30,3.0,0.0
23150,60.0,48,30,7.0,0.0
23151,75.0,0,30,4.0,0.0
23152,63.0,0,30,2.0,0.0
23153,63.0,0,30,14.0,0.0
23154,60.0,0,30,6.0,0.0
23155,69.0,0,30,6.0,0.0
23156,72.0,0,30,13.0,0.0
23157,69.0,0,30,5.0,0.0
23158,81.0,0,30,1.0,0.0
23159,84.0,0,30,1.0,0.0
23160,81.0,0,30,12.0,0.0
23161,84.0,64,30,0.0,0.0
23162,81.0,0,30,0.0,0.0
23163,72.0,0,30,2.0,0.0
23164,75.0,0,30,2.0,0.0
23165,75.0,0,30,13.0,0.0
23166,84.0,0,30,11.0,0.0
23167,72.0,0,30,5.0,0.0
23168,70.0,0,150,13.0,0.0
23169,70.0,0,150,2.0,0.0
23170,82.0,0,150,1.0,0.0
23171,82.0,0,150,0.0,0.0
23172,70.0,0,40,5.0,0.0
23173,65.0,32,40,5.0,0.0
23174,62.0,16,30,14.0,0.0
23175,50.0,32,40,3.0,0.0
23176,74.0,0,30,4.0,0.0
23177,62.0,0,30,3.0,0.0
23178,50.0,0,40,15.0,0.0
23179,65.0,0,30,6.0,0.0
23180,65.0,0,30,2.0,0.0
23181,65.0,0,30,14.0,0.0
23182,62.0,0,30,6.0,0.0
23183,77.0,0,30,4.0,0.0
23184,82.0,0,30,4.0,0.0
23185,62.0,0,30,7.0,0.0
23186,70.0,0,30,3.0,0.0
23187,70.0,0,30,6.0,0.0
23188,65.0,16,30,3.0,0.0
23189,82.0,0,30,0.0,0.0
23190,77.0,0,15,12.0,0.0
23191,70.0,0,30,5.0,0.0
23192,77.0,32,15,2.0,0.0
23193,70.0,0,30,13.0,0.0
23194,82.0,0,30,1.0,0.0
23195,82.0,0,15,11.0,0.0
23196,70.0,0,30,2.0,0.0
23197,65.0,48,30,5.0,0.0
23198,74.0,0,30,11.0,0.0
23199,62.0,0,30,13.0,0.0
23200,70.0,0,30,0.0,0.0
23201,74.0,0,30,0.0,0.0
23202,74.0,0,30,1.0,0.0
23203,70.0,0,30,1.0,0.0
23204,62.0,0,30,5.0,0.0
23205,70.0,0,30,12.0,0.0
23206,58.0,0,30,5.0,0.0
23207,62.0,48,30,2.0,0.0
23208,74.0,0,30,2.0,0.0
23209,55.0,16,30,14.0,0.0
23210,67.0,0,30,4.0,0.0
23211,55.0,0,30,3.0,0.0
23212,43.0,32,40,3.0,0.0
23213,43.0,0,40,15.0,0.0
23214,58.0,0,30,14.0,0.0
23215,62.0,0,30,6.0,0.0
23216,58.0,0,30,6.0,0.0
23217,55.0,0,30,6.0,0.0
23218,55.0,48,30,7.0,0.0
23219,70.0,0,30,4.0,0.0
23220,58.0,0,30,2.0,0.0
23221,62.0,0,30,3.0,0.0
23222,58.0,0,30,3.0,0.0
23223,74.0,0,30,4.0,0.0
23224,58.0,48,30,5.0,0.0
23225,62.0,0,30,5.0,0.0
23226,74.0,0,30,0.0,0.0
23227,70.0,0,30,12.0,0.0
23228,74.0,0,30,11.0,0.0
23229,70.0,0,30,0.0,0.0
23230,62.0,0,30,13.0,0.0
23231,70.0,0,30,1.0,0.0
23232,74.0,0,30,1.0,0.0
23233,74.0,0,30,2.0,0.0
23234,62.0,0,30,2.0,0.0
23235,67.0,48,30,2.0,0.0
23236,79.0,0,30,11.0,0.0
23237,70.0,0,30,12.0,0.0
23238,79.0,0,30,1.0,0.0
23239,70.0,0,30,2.0,0.0
23240,70.0,0,30,1.0,0.0
23241,67.0,0,30,13.0,0.0
23242,79.0,0,30,0.0,0.0
23243,58.0,0,30,5.0,0.0
23244,67.0,0,30,5.0,0.0
23245,39.0,32,40,3.0,0.0
23246,63.0,0,30,4.0,0.0
23247,51.0,0,30,3.0,0.0
23248,39.0,0,40,15.0,0.0
23249,51.0,16,30,14.0,0.0
23250,63.0,0,30,6.0,0.0
23251,58.0,0,30,6.0,0.0
23252,51.0,0,30,7.0,0.0
23253,55.0,0,30,2.0,0.0
23254,55.0,0,30,3.0,0.0
23255,58.0,0,30,3.0,0.0
23256,70.0,0,30,4.0,0.0
23257,67.0,0,30,4.0,0.0
23258,58.0,0,30,14.0,0.0
23259,55.0,0,30,14.0,0.0
23260,51.0,48,30,6.0,0.0
23261,79.0,0,30,0.0,0.0
23262,67.0,0,30,13.0,0.0
23263,79.0,48,30,11.0,0.0
23264,70.0,0,30,2.0,0.0
23265,67.0,0,30,2.0,0.0
23266,58.0,0,30,5.0,0.0
23267,70.0,0,30,1.0,0.0
23268,79.0,0,30,1.0,0.0
23269,70.0,0,30,12.0,0.0
23270,67.0,0,30,5.0,0.0
23271,63.0,0,30,12.0,0.0
23272,63.0,0,30,2.0,0.0
23273,63.0,0,30,5.0,0.0
23274,69.0,0,30,11.0,0.0
23275,57.0,0,30,5.0,0.0
23276,57.0,0,30,2.0,0.0
23277,69.0,0,30,1.0,0.0
23278,63.0,48,30,1.0,0.0
23279,57.0,0,30,13.0,0.0
23280,69.0,0,30,0.0,0.0
23281,41.0,32,40,15.0,0.0
23282,41.0,0,40,3.0,0.0
23283,53.0,0,30,14.0,0.0
23284,53.0,0,30,3.0,0.0
23285,65.0,16,30,4.0,0.0
23286,60.0,0,30,3.0,0.0
23287,53.0,0,30,3.0,0.0
23288,60.0,0,30,6.0,0.0
23289,60.0,0,30,14.0,0.0
23290,53.0,0,30,2.0,0.0
23291,65.0,48,30,4.0,0.0
23292,72.0,0,30,4.0,0.0
23293,53.0,0,30,6.0,0.0
23294,53.0,0,30,7.0,0.0
23295,63.0,64,30,2.0,0.0
23296,57.0,0,30,13.0,0.0
23297,57.0,0,30,2.0,0.0
23298,63.0,0,30,1.0,0.0
23299,69.0,0,30,1.0,0.0
23300,63.0,0,30,5.0,0.0
23301,63.0,0,30,12.0,0.0
23302,57.0,0,30,5.0,0.0
23303,69.0,0,30,0.0,0.0
23304,69.0,0,30,11.0,0.0
23305,58.0,0,40,1.0,0.0
23306,62.0,0,40,12.0,0.0
23307,58.0,0,40,13.0,0.0
23308,70.0,32,40,11.0,0.0
23309,58.0,0,40,5.0,0.0
23310,62.0,0,40,5.0,0.0
23311,58.0,0,40,2.0,0.0
23312,70.0,0,40,0.0,0.0
23313,62.0,0,40,1.0,0.0
23314,62.0,0,40,2.0,0.0
23315,46.0,0,30,14.0,0.0
23316,34.0,32,40,15.0,0.0
23317,34.0,0,40,3.0,0.0
23318,46.0,16,30,3.0,0.0
23319,58.0,0,30,4.0,0.0
23320,46.0,0,30,6.0,0.0
23321,53.0,0,30,6.0,0.0
23322,50.0,0,30,6.0,0.0
23323,50.0,0,30,3.0,0.0
23324,50.0,0,30,2.0,0.0
23325,62.0,48,30,4.0,0.0
23326,53.0,0,30,14.0,0.0
23327,46.0,0,30,7.0,0.0
23328,65.0,0,30,4.0,0.0
23329,70.0,0,30,0.0,0.0
23330,58.0,0,30,2.0,0.0
23331,70.0,96,30,11.0,0.0
23332,62.0,0,30,2.0,0.0
23333,58.0,0,30,13.0,0.0
23334,62.0,0,30,12.0,0.0
23335,58.0,0,30,5.0,0.0
23336,62.0,0,30,5.0,0.0
23337,58.0,0,30,1.0,0.0
23338,62.0,0,30,1.0,0.0
23339,70.0,0,180,5.0,0.0
23340,74.0,0,90,12.0,0.0
23341,62.0,0,180,5.0,0.0
23342,46.0,160,180,8.0,0.0
23343,70.0,0,90,13.0,0.0
23344,70.0,0,90,2.0,0.0
23345,65.0,0,180,5.0,0.0
23346,74.0,0,90,1.0,0.0
23347,70.0,0,90,1.0,0.0
23348,74.0,0,90,2.0,0.0
23349,82.0,0,90,11.0,0.0
23350,82.0,32,90,0.0,0.0
23351,49.0,2,150,9.0,0.0
23352,46.0,0,30,14.0,0.0
23353,34.0,0,30,3.0,0.0
23354,34.0,0,30,15.0,0.0
23355,58.0,0,30,4.0,0.0
23356,53.0,0,30,14.0,0.0
23357,58.0,0,30,14.0,0.0
23358,58.0,0,90,6.0,0.0
23359,65.0,0,90,4.0,0.0
23360,70.0,0,90,4.0,0.0
23361,62.0,0,90,6.0,0.0
23362,62.0,0,90,4.0,0.0
23363,58.0,0,90,4.0,0.0
23364,46.0,0,30,7.0,0.0
23365,46.0,48,30,6.0,0.0
23366,53.0,0,30,2.0,0.0
23367,53.0,0,30,7.0,0.0
23368,53.0,14,30,6.0,0.0
23369,67.0,128,150,15.0,0.0
23370,58.0,48,40,12.0,0.0
23371,60.0,48,40,12.0,0.0
23372,58.0,192,40,12.0,0.0
23373,60.0,96,180,12.0,0.0
23374,62.0,48,40,12.0,0.0
23375,63.0,48,40,12.0,0.0
23376,62.0,192,40,12.0,0.0
23377,63.0,96,180,12.0,0.0
23378,63.0,48,40,12.0,0.0
23379,62.0,48,40,12.0,0.0
23380,65.0,48,40,12.0,0.0
23381,62.0,48,40,12.0,0.0
23382,60.0,48,40,12.0,0.0
23383,58.0,48,40,12.0,0.0
23384,60.0,48,40,12.0,0.0
23385,62.0,48,40,12.0,0.0
23386,63.0,48,40,12.0,0.0
23387,62.0,48,40,12.0,0.0
23388,65.0,48,40,12.0,0.0
23389,62.0,48,40,12.0,0.0
23390,60.0,48,40,12.0,0.0
23391,58.0,46,40,12.0,0.0
23392,60.0,96,40,12.0,0.0
23393,62.0,2,90,12.0,0.0
23394,65.0,48,40,11.0,0.0
23395,67.0,48,40,11.0,0.0
23396,57.0,0,40,12.0,0.0
23397,65.0,48,40,11.0,0.0
23398,67.0,94,180,11.0,0.0
23399,58.0,48,40,12.0,0.0
23400,60.0,48,40,12.0,0.0
23401,62.0,48,40,12.0,0.0
23402,64.0,0,40,12.0,0.0
23403,65.0,2,90,12.0,0.0
23404,69.0,48,40,11.0,0.0
23405,70.0,48,40,11.0,0.0
23406,69.0,0,40,11.0,0.0
23407,60.0,48,40,12.0,0.0
23408,70.0,0,180,11.0,0.0
23409,62.0,48,40,12.0,0.0
23410,64.0,48,40,12.0,0.0
23411,65.0,48,40,12.0,0.0
23412,66.0,46,40,12.0,0.0
23413,67.0,34,40,12.0,0.0
23414,70.0,32,40,11.0,0.0
23415,64.0,16,30,12.0,0.0
23416,69.0,48,40,11.0,0.0
23417,65.0,16,30,12.0,0.0
23418,72.0,48,40,11.0,0.0
23419,69.0,32,40,11.0,0.0
23420,60.0,16,30,13.0,0.0
23421,67.0,32,40,11.0,0.0
23422,53.0,16,30,13.0,0.0
23423,65.0,48,40,11.0,0.0
23424,67.0,48,40,11.0,0.0
23425,69.0,32,40,11.0,0.0
23426,64.0,16,30,12.0,0.0
23427,70.0,32,40,11.0,0.0
23428,69.0,48,40,11.0,0.0
23429,65.0,16,30,12.0,0.0
23430,72.0,48,40,11.0,0.0
23431,69.0,48,40,11.0,0.0
23432,60.0,0,40,13.0,0.0
23433,67.0,48,40,11.0,0.0
23434,53.0,46,40,13.0,0.0
23435,65.0,0,40,11.0,0.0
23436,69.0,0,40,11.0,0.0
23437,63.0,96,40,13.0,0.0
23438,70.0,0,90,11.0,0.0
23439,62.0,2,90,13.0,0.0
23440,46.0,48,40,14.0,0.0
23441,48.0,46,40,14.0,0.0
23442,46.0,0,40,14.0,0.0
23443,62.0,48,40,12.0,0.0
23444,70.0,2,40,11.0,0.0
23445,69.0,2,90,11.0,0.0
23446,63.0,46,40,12.0,0.0
23447,48.0,0,180,14.0,0.0
23448,65.0,48,40,12.0,0.0
23449,67.0,46,40,12.0,0.0
23450,75.0,2,40,11.0,0.0
23451,69.0,94,40,12.0,0.0
23452,70.0,2,90,12.0,0.0
23453,74.0,0,90,11.0,0.0
23454,50.0,48,40,14.0,0.0
23455,51.0,46,40,14.0,0.0
23456,71.0,2,40,11.0,0.0
23457,65.0,0,40,12.0,0.0
23458,50.0,48,40,14.0,0.0
23459,67.0,46,40,12.0,0.0
23460,72.0,2,90,11.0,0.0
23461,51.0,46,180,14.0,0.0
23462,69.0,48,40,12.0,0.0
23463,70.0,46,40,12.0,0.0
23464,71.0,0,40,12.0,0.0
23465,79.0,2,40,11.0,0.0
23466,75.0,0,40,11.0,0.0
23467,72.0,48,40,12.0,0.0
23468,72.0,2,40,11.0,0.0
23469,69.0,0,40,12.0,0.0
23470,51.0,48,40,14.0,0.0
23471,70.0,2,90,12.0,0.0
23472,50.0,46,40,14.0,0.0
23473,77.0,0,90,11.0,0.0
23474,53.0,48,40,14.0,0.0
23475,50.0,46,40,14.0,0.0
23476,48.0,48,40,14.0,0.0
23477,63.0,2,40,12.0,0.0
23478,69.0,0,40,11.0,0.0
23479,62.0,2,90,12.0,0.0
23480,46.0,46,40,14.0,0.0
23481,70.0,0,90,11.0,0.0
23482,48.0,48,40,14.0,0.0
23483,50.0,46,40,14.0,0.0
23484,69.0,0,40,12.0,0.0
23485,51.0,48,40,14.0,0.0
23486,72.0,2,40,11.0,0.0
23487,50.0,46,40,14.0,0.0
23488,77.0,0,90,11.0,0.0
23489,70.0,2,90,12.0,0.0
23490,53.0,48,40,14.0,0.0
23491,50.0,46,40,14.0,0.0
23492,69.0,2,40,11.0,0.0
23493,48.0,48,40,14.0,0.0
23494,63.0,0,40,12.0,0.0
23495,70.0,96,90,11.0,0.0
23496,46.0,46,40,14.0,0.0
23497,62.0,0,90,12.0,0.0
23498,48.0,0,40,14.0,0.0
23499,50.0,2,90,14.0,0.0
23500,53.0,48,40,13.0,0.0
23501,55.0,46,40,13.0,0.0
23502,50.0,2,40,14.0,0.0
23503,70.0,0,40,12.0,0.0
23504,77.0,0,40,11.0,0.0
23505,53.0,48,40,13.0,0.0
23506,55.0,0,180,13.0,0.0
23507,76.0,46,40,11.0,0.0
23508,72.0,0,40,12.0,0.0
23509,48.0,2,90,14.0,0.0
23510,74.0,48,40,11.0,0.0
23511,70.0,0,40,12.0,0.0
23512,72.0,0,40,11.0,0.0
23513,52.0,2,90,14.0,0.0
23514,69.0,46,40,12.0,0.0
23515,67.0,0,40,12.0,0.0
23516,70.0,94,40,11.0,0.0
23517,65.0,2,90,12.0,0.0
23518,53.0,0,90,14.0,0.0
23519,69.0,0,90,11.0,0.0
23520,57.0,48,40,13.0,0.0
23521,58.0,46,40,13.0,0.0
23522,75.0,0,40,11.0,0.0
23523,72.0,48,40,12.0,0.0
23524,53.0,2,40,14.0,0.0
23525,57.0,0,40,13.0,0.0
23526,74.0,46,40,11.0,0.0
23527,58.0,46,180,13.0,0.0
23528,46.0,2,90,14.0,0.0
23529,70.0,0,40,12.0,0.0
23530,72.0,0,40,11.0,0.0
23531,68.0,48,40,12.0,0.0
23532,70.0,46,40,11.0,0.0
23533,50.0,2,90,14.0,0.0
23534,67.0,0,40,12.0,0.0
23535,65.0,0,40,12.0,0.0
23536,68.0,0,40,11.0,0.0
23537,67.0,0,40,11.0,0.0
23538,51.0,0,40,14.0,0.0
23539,63.0,34,40,12.0,0.0
23540,73.0,14,30,11.0,0.0
23541,67.0,0,30,12.0,0.0
23542,52.0,34,40,14.0,0.0
23543,58.0,0,40,13.0,0.0
23544,53.0,48,90,14.0,0.0
23545,72.0,0,30,11.0,0.0
23546,69.0,14,30,12.0,0.0
23547,57.0,48,40,13.0,0.0
23548,60.0,0,40,13.0,0.0
23549,57.0,34,40,13.0,0.0
23550,48.0,34,40,14.0,0.0
23551,38.0,0,30,9.0,0.0
23552,64.0,14,30,11.0,0.0
23553,55.0,0,40,13.0,0.0
23554,58.0,0,30,12.0,0.0
23555,57.0,0,30,12.0,0.0
23556,53.0,48,40,13.0,0.0
23557,65.0,0,30,11.0,0.0
23558,38.0,14,30,9.0,0.0
23559,53.0,48,90,14.0,0.0
23560,55.0,0,40,13.0,0.0
23561,57.0,34,40,13.0,0.0
23562,52.0,0,40,14.0,0.0
23563,38.0,0,30,9.0,0.0
23564,73.0,0,30,11.0,0.0
23565,67.0,14,30,12.0,0.0
23566,58.0,34,40,13.0,0.0
23567,69.0,0,30,12.0,0.0
23568,72.0,0,30,11.0,0.0
23569,38.0,14,30,9.0,0.0
23570,57.0,48,40,13.0,0.0
23571,53.0,48,90,14.0,0.0
23572,60.0,0,40,13.0,0.0
23573,57.0,34,40,13.0,0.0
23574,58.0,0,30,12.0,0.0
23575,38.0,0,30,9.0,0.0
23576,55.0,34,40,13.0,0.0
23577,48.0,0,40,14.0,0.0
23578,64.0,14,30,11.0,0.0
23579,38.0,0,30,9.0,0.0
23580,57.0,14,30,12.0,0.0
23581,53.0,48,90,14.0,0.0
23582,53.0,48,40,13.0,0.0
23583,65.0,0,30,11.0,0.0
23584,55.0,0,40,13.0,0.0
23585,57.0,34,40,13.0,0.0
23586,69.0,14,30,12.0,0.0
23587,54.0,34,40,14.0,0.0
23588,38.0,0,30,9.0,0.0
23589,60.0,0,40,13.0,0.0
23590,75.0,0,30,11.0,0.0
23591,38.0,14,30,9.0,0.0
23592,70.0,0,30,12.0,0.0
23593,74.0,0,30,11.0,0.0
23594,58.0,48,40,13.0,0.0
23595,55.0,48,90,14.0,0.0
23596,62.0,0,40,13.0,0.0
23597,58.0,34,40,13.0,0.0
23598,38.0,0,30,9.0,0.0
23599,50.0,34,40,14.0,0.0
23600,60.0,0,30,12.0,0.0
23601,66.0,14,30,11.0,0.0
23602,57.0,0,40,13.0,0.0
23603,55.0,0,90,14.0,0.0
23604,38.0,0,30,9.0,0.0
23605,55.0,48,40,13.0,0.0
23606,67.0,0,30,11.0,0.0
23607,58.0,14,30,12.0,0.0
23608,57.0,48,40,13.0,0.0
23609,58.0,34,40,13.0,0.0
23610,70.0,0,30,12.0,0.0
23611,55.0,0,40,14.0,0.0
23612,38.0,14,30,9.0,0.0
23613,61.0,34,40,13.0,0.0
23614,77.0,0,30,11.0,0.0
23615,56.0,48,90,14.0,0.0
23616,75.0,0,30,11.0,0.0
23617,60.0,48,40,13.0,0.0
23618,72.0,0,30,12.0,0.0
23619,38.0,14,30,9.0,0.0
23620,63.0,0,40,13.0,0.0
23621,60.0,34,40,13.0,0.0
23622,58.0,34,40,13.0,0.0
23623,67.0,0,30,11.0,0.0
23624,38.0,0,30,9.0,0.0
23625,51.0,0,40,14.0,0.0
23626,61.0,14,30,12.0,0.0
23627,56.0,0,90,14.0,0.0
23628,60.0,14,30,12.0,0.0
23629,38.0,0,30,9.0,0.0
23630,68.0,0,30,11.0,0.0
23631,56.0,48,40,13.0,0.0
23632,58.0,48,40,13.0,0.0
23633,60.0,34,40,13.0,0.0
23634,38.0,14,30,9.0,0.0
23635,78.0,0,30,11.0,0.0
23636,63.0,34,40,13.0,0.0
23637,57.0,0,40,14.0,0.0
23638,72.0,0,30,12.0,0.0
23639,74.0,0,30,12.0,0.0
23640,77.0,14,30,11.0,0.0
23641,58.0,48,90,14.0,0.0
23642,38.0,0,30,9.0,0.0
23643,62.0,48,40,13.0,0.0
23644,65.0,0,40,13.0,0.0
23645,62.0,34,40,13.0,0.0
23646,38.0,0,30,9.0,0.0
23647,80.0,14,30,11.0,0.0
23648,65.0,34,40,13.0,0.0
23649,74.0,0,30,12.0,0.0
23650,63.0,48,40,13.0,0.0
23651,75.0,0,30,12.0,0.0
23652,38.0,0,30,9.0,0.0
23653,58.0,0,90,14.0,0.0
23654,78.0,14,30,11.0,0.0
23655,66.0,48,40,13.0,0.0
23656,58.0,30,150,14.0,0.0
23657,65.0,34,40,13.0,0.0
23658,70.0,34,40,13.0,0.0
23659,82.0,0,30,11.0,0.0
23660,74.0,14,30,12.0,0.0
23661,38.0,0,30,9.0,0.0
23662,84.0,0,30,11.0,0.0
23663,38.0,0,30,9.0,0.0
23664,66.0,18,40,13.0,0.0
23665,75.0,14,30,12.0,0.0
23666,69.0,48,40,13.0,0.0
23667,65.0,34,40,13.0,0.0
23668,58.0,30,150,14.0,0.0
23669,38.0,0,30,9.0,0.0
23670,74.0,0,30,12.0,0.0
23671,70.0,34,40,13.0,0.0
23672,82.0,14,30,11.0,0.0
23673,84.0,0,30,11.0,0.0
23674,75.0,0,30,12.0,0.0
23675,38.0,14,30,9.0,0.0
23676,66.0,18,40,13.0,0.0
23677,69.0,48,40,13.0,0.0
23678,65.0,48,40,13.0,0.0
23679,58.0,2,90,14.0,0.0
23680,62.0,0,40,5.0,0.0
23681,82.0,0,40,0.0,0.0
23682,74.0,46,40,0.0,0.0
23683,70.0,0,40,5.0,0.0
23684,70.0,2,90,13.0,0.0
23685,72.0,46,40,5.0,0.0
23686,75.0,0,40,0.0,0.0
23687,84.0,0,40,0.0,0.0
23688,63.0,0,40,5.0,0.0
23689,62.0,0,40,5.0,0.0
23690,70.0,48,40,13.0,0.0
23691,74.0,0,40,0.0,0.0
23692,82.0,0,40,0.0,0.0
23693,70.0,0,40,5.0,0.0
23694,69.0,48,40,13.0,0.0
23695,75.0,0,150,0.0,0.0
23696,84.0,30,150,0.0,0.0
23697,72.0,0,150,5.0,0.0
23698,63.0,0,150,5.0,0.0
23699,67.0,48,40,13.0,0.0
23700,65.0,18,40,13.0,0.0
23701,63.0,48,40,13.0,0.0
23702,62.0,50,40,13.0,0.0
23703,74.0,0,40,5.0,0.0
23704,77.0,46,40,0.0,0.0
23705,86.0,0,40,0.0,0.0
23706,65.0,2,90,14.0,0.0
23707,65.0,0,40,5.0,0.0
23708,68.0,0,90,13.0,0.0
23709,79.0,0,40,0.0,0.0
23710,67.0,0,40,5.0,0.0
23711,75.0,0,40,5.0,0.0
23712,87.0,46,40,0.0,0.0
23713,74.0,46,40,5.0,0.0
23714,65.0,0,40,5.0,0.0
23715,68.0,2,40,13.0,0.0
23716,77.0,0,40,0.0,0.0
23717,86.0,0,40,0.0,0.0
23718,65.0,0,40,14.0,0.0
23719,87.0,0,150,0.0,0.0
23720,75.0,0,150,5.0,0.0
23721,67.0,30,150,5.0,0.0
23722,79.0,0,150,0.0,0.0
23723,67.0,48,40,13.0,0.0
23724,63.0,0,40,14.0,0.0
23725,62.0,48,40,14.0,0.0
23726,65.0,0,40,13.0,0.0
23727,60.0,0,40,14.0,0.0
23728,63.0,18,40,13.0,0.0
23729,58.0,0,40,14.0,0.0
23730,62.0,48,40,13.0,0.0
23731,60.0,48,40,13.0,0.0
23732,57.0,0,40,14.0,0.0
23733,78.0,48,40,0.0,0.0
23734,69.0,0,40,14.0,0.0
23735,75.0,0,40,5.0,0.0
23736,72.0,0,40,13.0,0.0
23737,87.0,0,40,0.0,0.0
23738,66.0,0,40,5.0,0.0
23739,54.0,2,40,9.0,0.0
23740,74.0,46,40,5.0,0.0
23741,65.0,0,40,5.0,0.0
23742,70.0,0,90,14.0,0.0
23743,54.0,2,90,9.0,0.0
23744,86.0,0,40,0.0,0.0
23745,77.0,0,40,0.0,0.0
23746,74.0,0,90,13.0,0.0
23747,68.0,0,40,5.0,0.0
23748,89.0,0,40,0.0,0.0
23749,80.0,0,40,0.0,0.0
23750,77.0,48,40,5.0,0.0
23751,77.0,46,40,0.0,0.0
23752,65.0,0,40,5.0,0.0
23753,86.0,0,40,0.0,0.0
23754,74.0,0,40,5.0,0.0
23755,63.0,0,40,5.0,0.0
23756,57.0,0,40,14.0,0.0
23757,72.0,0,40,5.0,0.0
23758,54.0,2,40,9.0,0.0
23759,60.0,0,40,13.0,0.0
23760,75.0,0,40,0.0,0.0
23761,84.0,48,40,0.0,0.0
23762,70.0,0,40,5.0,0.0
23763,62.0,46,40,5.0,0.0
23764,58.0,0,90,14.0,0.0
23765,65.0,2,90,13.0,0.0
23766,54.0,0,90,9.0,0.0
23767,74.0,0,40,0.0,0.0
23768,82.0,0,40,0.0,0.0
23769,72.0,0,40,5.0,0.0
23770,84.0,48,40,0.0,0.0
23771,63.0,0,40,5.0,0.0
23772,75.0,0,40,0.0,0.0
23773,74.0,0,40,5.0,0.0
23774,65.0,0,40,5.0,0.0
23775,77.0,0,40,0.0,0.0
23776,86.0,46,40,0.0,0.0
23777,66.0,48,40,5.0,0.0
23778,69.0,0,40,14.0,0.0
23779,78.0,0,40,0.0,0.0
23780,87.0,0,40,0.0,0.0
23781,75.0,0,40,5.0,0.0
23782,72.0,0,40,13.0,0.0
23783,54.0,2,40,9.0,0.0
23784,86.0,46,40,0.0,0.0
23785,77.0,0,40,0.0,0.0
23786,74.0,0,90,13.0,0.0
23787,74.0,0,40,5.0,0.0
23788,65.0,0,40,5.0,0.0
23789,70.0,0,90,14.0,0.0
23790,54.0,2,90,9.0,0.0
23791,68.0,0,40,5.0,0.0
23792,80.0,0,40,0.0,0.0
23793,77.0,0,40,5.0,0.0
23794,89.0,48,40,0.0,0.0
23795,65.0,0,40,5.0,0.0
23796,86.0,46,40,0.0,0.0
23797,77.0,0,40,0.0,0.0
23798,74.0,0,40,5.0,0.0
23799,60.0,2,40,13.0,0.0
23800,72.0,0,40,5.0,0.0
23801,57.0,0,40,14.0,0.0
23802,75.0,48,40,0.0,0.0
23803,84.0,0,40,0.0,0.0
23804,54.0,0,40,9.0,0.0
23805,63.0,0,40,5.0,0.0
23806,54.0,0,90,9.0,0.0
23807,62.0,46,40,5.0,0.0
23808,65.0,2,90,13.0,0.0
23809,82.0,0,40,0.0,0.0
23810,70.0,0,40,5.0,0.0
23811,74.0,0,40,0.0,0.0
23812,58.0,0,90,14.0,0.0
23813,72.0,0,40,5.0,0.0
23814,63.0,0,40,5.0,0.0
23815,75.0,0,40,0.0,0.0
23816,84.0,94,40,0.0,0.0
23817,86.0,0,90,0.0,0.0
23818,65.0,0,90,5.0,0.0
23819,74.0,2,90,5.0,0.0
23820,77.0,0,90,0.0,0.0
23821,81.0,32,150,9.0,0.0
23822,75.0,0,40,12.0,0.0
23823,66.0,48,40,13.0,0.0
23824,58.0,0,150,14.0,0.0
23825,74.0,0,40,12.0,0.0
23826,65.0,0,40,13.0,0.0
23827,54.0,32,150,9.0,0.0
23828,82.0,16,40,0.0,0.0
23829,70.0,0,40,0.0,0.0
23830,77.0,48,40,12.0,0.0
23831,68.0,0,40,13.0,0.0
23832,74.0,16,40,12.0,0.0
23833,65.0,0,40,13.0,0.0
23834,63.0,0,40,13.0,0.0
23835,72.0,32,40,12.0,0.0
23836,58.0,2,90,14.0,0.0
23837,54.0,0,90,9.0,0.0
23838,62.0,0,40,13.0,0.0
23839,82.0,16,30,0.0,0.0
23840,70.0,46,40,12.0,0.0
23841,70.0,0,30,0.0,0.0
23842,72.0,32,40,12.0,0.0
23843,63.0,0,40,13.0,0.0
23844,58.0,2,90,14.0,0.0
23845,74.0,46,40,12.0,0.0
23846,65.0,0,40,13.0,0.0
23847,70.0,16,30,0.0,0.0
23848,54.0,0,90,9.0,0.0
23849,82.0,0,30,0.0,0.0
23850,66.0,0,40,13.0,0.0
23851,75.0,48,40,12.0,0.0
23852,54.0,0,150,9.0,0.0
23853,70.0,0,40,0.0,0.0
23854,65.0,0,40,13.0,0.0
23855,74.0,0,40,12.0,0.0
23856,58.0,32,150,14.0,0.0
23857,82.0,48,40,0.0,0.0
23858,68.0,0,40,13.0,0.0
23859,77.0,48,40,12.0,0.0
23860,65.0,0,40,13.0,0.0
23861,74.0,16,40,12.0,0.0
23862,72.0,32,40,12.0,0.0
23863,63.0,0,40,13.0,0.0
23864,62.0,0,40,13.0,0.0
23865,54.0,0,90,9.0,0.0
23866,58.0,2,90,14.0,0.0
23867,65.0,0,30,0.0,0.0
23868,77.0,16,30,0.0,0.0
23869,70.0,46,40,12.0,0.0
23870,72.0,32,40,12.0,0.0
23871,63.0,0,40,13.0,0.0
23872,65.0,48,40,13.0,0.0
23873,54.0,0,90,9.0,0.0
23874,58.0,0,40,14.0,0.0
23875,77.0,14,30,0.0,0.0
23876,81.0,30,150,9.0,0.0
23877,74.0,0,40,12.0,0.0
23878,65.0,0,30,0.0,0.0
23879,62.0,48,40,13.0,0.0
23880,70.0,0,40,12.0,0.0
23881,65.0,0,40,0.0,0.0
23882,77.0,16,40,0.0,0.0
23883,69.0,0,40,12.0,0.0
23884,60.0,2,40,13.0,0.0
23885,53.0,30,150,14.0,0.0
23886,54.0,0,150,9.0,0.0
23887,65.0,0,40,13.0,0.0
23888,72.0,48,40,12.0,0.0
23889,69.0,18,40,12.0,0.0
23890,60.0,0,40,13.0,0.0
23891,58.0,0,40,13.0,0.0
23892,67.0,34,40,12.0,0.0
23893,53.0,34,90,14.0,0.0
23894,65.0,0,30,0.0,0.0
23895,77.0,14,30,0.0,0.0
23896,54.0,0,90,9.0,0.0
23897,65.0,0,40,12.0,0.0
23898,57.0,48,40,13.0,0.0
23899,67.0,0,40,12.0,0.0
23900,58.0,0,40,13.0,0.0
23901,53.0,48,90,14.0,0.0
23902,54.0,0,90,9.0,0.0
23903,60.0,0,40,13.0,0.0
23904,65.0,0,30,0.0,0.0
23905,77.0,14,30,0.0,0.0
23906,69.0,48,40,12.0,0.0
23907,70.0,0,40,12.0,0.0
23908,62.0,0,40,13.0,0.0
23909,69.0,2,40,12.0,0.0
23910,54.0,30,150,9.0,0.0
23911,65.0,0,40,0.0,0.0
23912,77.0,46,40,0.0,0.0
23913,60.0,0,40,13.0,0.0
23914,53.0,0,150,14.0,0.0
23915,65.0,48,40,13.0,0.0
23916,72.0,0,40,12.0,0.0
23917,69.0,0,40,12.0,0.0
23918,60.0,18,40,13.0,0.0
23919,67.0,34,40,12.0,0.0
23920,58.0,0,40,13.0,0.0
23921,65.0,14,30,0.0,0.0
23922,54.0,0,90,9.0,0.0
23923,77.0,0,30,0.0,0.0
23924,57.0,0,40,13.0,0.0
23925,53.0,34,90,14.0,0.0
23926,65.0,48,40,12.0,0.0
23927,58.0,0,40,13.0,0.0
23928,67.0,0,40,12.0,0.0
23929,77.0,0,30,0.0,0.0
23930,53.0,0,90,14.0,0.0
23931,65.0,14,30,0.0,0.0
23932,60.0,48,40,13.0,0.0
23933,81.0,30,150,9.0,0.0
23934,54.0,0,90,9.0,0.0
23935,68.0,0,40,12.0,0.0
23936,70.0,48,40,12.0,0.0
23937,61.0,0,40,13.0,0.0
23938,65.0,0,40,0.0,0.0
23939,54.0,0,150,9.0,0.0
23940,68.0,2,40,12.0,0.0
23941,77.0,16,40,0.0,0.0
23942,60.0,0,40,13.0,0.0
23943,53.0,30,150,14.0,0.0
23944,65.0,48,40,13.0,0.0
23945,72.0,0,40,12.0,0.0
23946,68.0,18,40,12.0,0.0
23947,60.0,0,40,13.0,0.0
23948,58.0,34,40,13.0,0.0
23949,67.0,0,40,12.0,0.0
23950,65.0,48,40,12.0,0.0
23951,53.0,0,90,14.0,0.0
23952,65.0,0,30,0.0,0.0
23953,77.0,14,30,0.0,0.0
23954,56.0,0,40,13.0,0.0
23955,54.0,34,90,9.0,0.0
23956,58.0,0,40,13.0,0.0
23957,67.0,0,40,12.0,0.0
23958,68.0,48,40,12.0,0.0
23959,53.0,0,90,14.0,0.0
23960,54.0,48,90,9.0,0.0
23961,77.0,14,30,0.0,0.0
23962,65.0,0,30,0.0,0.0
23963,60.0,0,40,13.0,0.0
23964,61.0,0,40,13.0,0.0
23965,70.0,0,40,12.0,0.0
23966,68.0,2,40,12.0,0.0
23967,53.0,30,150,14.0,0.0
23968,60.0,0,40,13.0,0.0
23969,54.0,0,150,9.0,0.0
23970,65.0,0,40,0.0,0.0
23971,77.0,46,40,0.0,0.0
23972,65.0,0,40,13.0,0.0
23973,72.0,48,40,12.0,0.0
23974,68.0,0,40,12.0,0.0
23975,60.0,18,40,13.0,0.0
23976,58.0,0,40,13.0,0.0
23977,67.0,34,40,12.0,0.0
23978,54.0,34,90,9.0,0.0
23979,65.0,48,40,12.0,0.0
23980,53.0,0,90,14.0,0.0
23981,56.0,0,40,13.0,0.0
23982,65.0,0,30,0.0,0.0
23983,77.0,14,30,0.0,0.0
23984,68.0,0,40,12.0,0.0
23985,60.0,0,40,13.0,0.0
23986,53.0,48,90,14.0,0.0
23987,81.0,30,150,9.0,0.0
23988,67.0,0,40,12.0,0.0
23989,65.0,14,30,0.0,0.0
23990,77.0,0,30,0.0,0.0
23991,59.0,48,40,13.0,0.0
23992,54.0,0,90,9.0,0.0
23993,68.0,0,40,12.0,0.0
23994,60.0,0,40,13.0,0.0
23995,67.0,0,40,12.0,0.0
23996,53.0,30,150,14.0,0.0
23997,77.0,0,40,0.0,0.0
23998,54.0,0,150,9.0,0.0
23999,65.0,16,40,0.0,0.0
24000,59.0,2,40,13.0,0.0
24001,65.0,48,40,13.0,0.0
24002,74.0,0,40,12.0,0.0
24003,62.0,0,40,13.0,0.0
24004,71.0,18,40,12.0,0.0
24005,60.0,0,40,13.0,0.0
24006,68.0,34,40,12.0,0.0
24007,77.0,14,30,0.0,0.0
24008,65.0,0,30,0.0,0.0
24009,53.0,0,90,14.0,0.0
24010,54.0,0,90,9.0,0.0
24011,67.0,48,40,12.0,0.0
24012,59.0,0,40,13.0,0.0
24013,68.0,0,40,12.0,0.0
24014,60.0,34,40,13.0,0.0
24015,54.0,0,90,9.0,0.0
24016,65.0,0,30,0.0,0.0
24017,77.0,14,30,0.0,0.0
24018,59.0,0,40,13.0,0.0
24019,67.0,48,40,12.0,0.0
24020,53.0,48,90,14.0,0.0
24021,60.0,0,40,13.0,0.0
24022,68.0,0,40,12.0,0.0
24023,54.0,0,150,9.0,0.0
24024,53.0,30,150,14.0,0.0
24025,65.0,0,40,0.0,0.0
24026,77.0,46,40,0.0,0.0
24027,67.0,0,40,12.0,0.0
24028,59.0,2,40,13.0,0.0
24029,74.0,0,40,12.0,0.0
24030,65.0,48,40,13.0,0.0
24031,62.0,18,40,13.0,0.0
24032,71.0,0,40,12.0,0.0
24033,68.0,0,40,12.0,0.0
24034,60.0,34,40,13.0,0.0
24035,54.0,0,90,9.0,0.0
24036,67.0,48,40,12.0,0.0
24037,53.0,0,90,14.0,0.0
24038,59.0,34,90,13.0,0.0
24039,77.0,14,30,0.0,0.0
24040,65.0,0,30,0.0,0.0
24041,68.0,0,40,12.0,0.0
24042,81.0,30,150,9.0,0.0
24043,53.0,0,90,14.0,0.0
24044,60.0,48,40,13.0,0.0
24045,67.0,0,40,12.0,0.0
24046,63.0,0,30,0.0,0.0
24047,54.0,48,90,9.0,0.0
24048,75.0,14,30,0.0,0.0
24049,68.0,0,40,12.0,0.0
24050,59.0,0,40,13.0,0.0
24051,53.0,0,150,14.0,0.0
24052,67.0,0,40,12.0,0.0
24053,60.0,2,40,13.0,0.0
24054,63.0,16,40,0.0,0.0
24055,54.0,30,150,9.0,0.0
24056,75.0,0,40,0.0,0.0
24057,72.0,0,40,12.0,0.0
24058,62.0,48,40,13.0,0.0
24059,67.0,18,40,12.0,0.0
24060,63.0,0,40,13.0,0.0
24061,62.0,34,40,13.0,0.0
24062,65.0,0,40,12.0,0.0
24063,54.0,0,90,9.0,0.0
24064,63.0,0,30,0.0,0.0
24065,75.0,14,30,0.0,0.0
24066,53.0,34,90,14.0,0.0
24067,63.0,48,40,12.0,0.0
24068,60.0,0,40,13.0,0.0
24069,62.0,0,40,13.0,0.0
24070,65.0,0,40,12.0,0.0
24071,67.0,48,40,12.0,0.0
24072,54.0,0,90,9.0,0.0
24073,53.0,0,90,14.0,0.0
24074,60.0,0,40,13.0,0.0
24075,75.0,14,30,0.0,0.0
24076,63.0,0,30,0.0,0.0
24077,68.0,48,40,12.0,0.0
24078,59.0,0,40,13.0,0.0
24079,54.0,30,150,9.0,0.0
24080,53.0,0,150,14.0,0.0
24081,63.0,46,40,0.0,0.0
24082,75.0,0,40,0.0,0.0
24083,60.0,2,40,13.0,0.0
24084,67.0,0,40,12.0,0.0
24085,72.0,0,40,12.0,0.0
24086,62.0,48,40,13.0,0.0
24087,67.0,0,40,12.0,0.0
24088,63.0,18,40,13.0,0.0
24089,62.0,0,40,13.0,0.0
24090,65.0,34,40,12.0,0.0
24091,54.0,0,90,9.0,0.0
24092,60.0,0,40,13.0,0.0
24093,63.0,0,30,0.0,0.0
24094,63.0,48,40,12.0,0.0
24095,75.0,14,30,0.0,0.0
24096,53.0,26,90,14.0,0.0
24097,58.0,0,40,13.0,0.0
24098,62.0,0,40,12.0,0.0
24099,60.0,0,40,11.0,0.0
24100,54.0,2,90,9.0,0.0
24101,60.0,2,40,12.0,0.0
24102,53.0,0,40,14.0,0.0
24103,57.0,0,40,13.0,0.0
24104,41.0,22,20,8.0,0.0
24105,81.0,32,150,9.0,0.0
24106,41.0,24,20,8.0,0.0
24107,53.0,32,40,13.0,0.0
24108,61.0,0,40,11.0,0.0
24109,41.0,22,20,8.0,0.0
24110,41.0,0,20,8.0,0.0
24111,41.0,0,40,8.0,0.0
24112,60.0,0,40,11.0,0.0
24113,51.0,16,40,13.0,0.0
24114,41.0,16,30,14.0,0.0
24115,63.0,0,40,11.0,0.0
24116,54.0,0,40,13.0,0.0
24117,51.0,0,40,13.0,0.0
24118,60.0,24,40,11.0,0.0
24119,41.0,24,15,8.0,0.0
24120,41.0,24,15,8.0,0.0
24121,49.0,0,40,13.0,0.0
24122,40.0,0,30,3.0,0.0
24123,58.0,0,40,11.0,0.0
24124,28.0,16,30,15.0,0.0
24125,41.0,8,20,8.0,0.0
24126,41.0,32,20,8.0,0.0
24127,29.0,16,30,15.0,0.0
24128,48.0,0,40,13.0,0.0
24129,41.0,0,30,3.0,0.0
24130,57.0,48,40,11.0,0.0
24131,58.0,0,40,11.0,0.0
24132,41.0,0,15,8.0,0.0
24133,49.0,0,40,13.0,0.0
24134,41.0,24,15,8.0,0.0
24135,60.0,0,40,11.0,0.0
24136,51.0,24,40,13.0,0.0
24137,41.0,0,20,8.0,0.0
24138,53.0,0,40,13.0,0.0
24139,40.0,0,30,3.0,0.0
24140,40.0,16,30,14.0,0.0
24141,61.0,32,40,11.0,0.0
24142,41.0,8,15,8.0,0.0
24143,51.0,0,40,13.0,0.0
24144,41.0,16,30,3.0,0.0
24145,60.0,48,40,11.0,0.0
24146,41.0,0,30,14.0,0.0
24147,41.0,0,15,8.0,0.0
24148,54.0,0,40,13.0,0.0
24149,63.0,0,40,11.0,0.0
24150,51.0,0,40,13.0,0.0
24151,60.0,24,40,11.0,0.0
24152,41.0,24,15,8.0,0.0
24153,41.0,24,15,8.0,0.0
24154,41.0,8,20,8.0,0.0
24155,40.0,0,30,3.0,0.0
24156,28.0,16,30,15.0,0.0
24157,49.0,0,40,13.0,0.0
24158,58.0,32,40,11.0,0.0
24159,41.0,0,15,8.0,0.0
24160,41.0,16,30,3.0,0.0
24161,48.0,0,40,13.0,0.0
24162,29.0,0,30,15.0,0.0
24163,57.0,46,40,11.0,0.0
24164,49.0,0,40,13.0,0.0
24165,58.0,2,40,11.0,0.0
24166,41.0,24,40,8.0,0.0
24167,60.0,24,40,11.0,0.0
24168,51.0,0,40,13.0,0.0
24169,41.0,24,15,8.0,0.0
24170,54.0,0,40,13.0,0.0
24171,41.0,0,15,8.0,0.0
24172,45.0,16,30,14.0,0.0
24173,63.0,0,40,11.0,0.0
24174,45.0,0,30,3.0,0.0
24175,62.0,48,40,11.0,0.0
24176,46.0,0,30,14.0,0.0
24177,46.0,16,30,3.0,0.0
24178,53.0,0,40,13.0,0.0
24179,41.0,32,15,8.0,0.0
24180,56.0,0,40,13.0,0.0
24181,65.0,0,40,11.0,0.0
24182,41.0,24,40,8.0,0.0
24183,53.0,0,40,13.0,0.0
24184,41.0,24,20,8.0,0.0
24185,62.0,0,40,11.0,0.0
24186,33.0,0,30,15.0,0.0
24187,51.0,0,40,13.0,0.0
24188,41.0,24,15,8.0,0.0
24189,45.0,16,30,3.0,0.0
24190,60.0,32,40,11.0,0.0
24191,41.0,8,15,8.0,0.0
24192,50.0,0,40,13.0,0.0
24193,46.0,0,30,3.0,0.0
24194,41.0,0,40,8.0,0.0
24195,34.0,16,30,15.0,0.0
24196,58.0,48,40,11.0,0.0
24197,60.0,0,40,11.0,0.0
24198,51.0,24,40,13.0,0.0
24199,41.0,0,40,8.0,0.0
24200,62.0,0,40,11.0,0.0
24201,53.0,24,40,13.0,0.0
24202,41.0,24,15,8.0,0.0
24203,45.0,16,30,3.0,0.0
24204,63.0,0,40,11.0,0.0
24205,41.0,0,15,8.0,0.0
24206,45.0,0,30,14.0,0.0
24207,54.0,32,40,13.0,0.0
24208,41.0,8,15,8.0,0.0
24209,46.0,0,30,3.0,0.0
24210,53.0,48,40,13.0,0.0
24211,62.0,0,40,11.0,0.0
24212,41.0,0,15,8.0,0.0
24213,46.0,16,30,14.0,0.0
24214,65.0,0,40,11.0,0.0
24215,56.0,24,40,13.0,0.0
24216,41.0,0,15,8.0,0.0
24217,62.0,24,40,11.0,0.0
24218,41.0,24,20,8.0,0.0
24219,53.0,0,40,13.0,0.0
24220,41.0,0,20,8.0,0.0
24221,41.0,8,20,8.0,0.0
24222,33.0,16,30,15.0,0.0
24223,51.0,32,40,13.0,0.0
24224,60.0,0,40,11.0,0.0
24225,45.0,0,30,3.0,0.0
24226,41.0,0,20,8.0,0.0
24227,58.0,46,40,11.0,0.0
24228,41.0,0,40,8.0,0.0
24229,34.0,16,30,15.0,0.0
24230,50.0,0,40,13.0,0.0
24231,46.0,0,30,3.0,0.0
24232,62.0,0,40,13.0,0.0
24233,41.0,48,40,8.0,0.0
24234,68.0,2,40,11.0,0.0
24235,63.0,2,90,13.0,0.0
24236,67.0,0,90,11.0,0.0
24237,51.0,0,40,3.0,0.0
24238,39.0,0,40,2.0,0.0
24239,41.0,46,15,8.0,0.0
24240,39.0,0,40,3.0,0.0
24241,41.0,0,15,8.0,0.0
24242,41.0,0,40,2.0,0.0
24243,41.0,0,40,3.0,0.0
24244,53.0,0,40,3.0,0.0
24245,79.0,0,40,11.0,0.0
24246,41.0,0,15,8.0,0.0
24247,75.0,0,40,12.0,0.0
24248,39.0,0,40,2.0,0.0
24249,39.0,0,40,3.0,0.0
24250,51.0,0,40,3.0,0.0
24251,74.0,0,40,12.0,0.0
24252,41.0,0,150,2.0,0.0
24253,77.0,48,40,11.0,0.0
24254,41.0,48,15,8.0,0.0
24255,41.0,0,150,3.0,0.0
24256,53.0,0,150,3.0,0.0
24257,72.0,0,40,12.0,0.0
24258,75.0,48,40,11.0,0.0
24259,74.0,0,40,11.0,0.0
24260,70.0,16,40,12.0,0.0
24261,72.0,0,40,11.0,0.0
24262,68.0,94,40,12.0,0.0
24263,67.0,0,90,12.0,0.0
24264,70.0,2,90,11.0,0.0
24265,43.0,0,40,2.0,0.0
24266,55.0,0,40,3.0,0.0
24267,43.0,0,40,3.0,0.0
24268,56.0,0,40,3.0,0.0
24269,44.0,48,40,2.0,0.0
24270,44.0,0,40,3.0,0.0
24271,55.0,0,40,3.0,0.0
24272,43.0,0,40,3.0,0.0
24273,43.0,48,40,2.0,0.0
24274,70.0,0,40,12.0,0.0
24275,73.0,0,40,11.0,0.0
24276,72.0,0,40,11.0,0.0
24277,68.0,48,40,12.0,0.0
24278,44.0,0,150,3.0,0.0
24279,56.0,32,150,3.0,0.0
24280,44.0,0,150,2.0,0.0
24281,67.0,48,40,12.0,0.0
24282,70.0,0,40,11.0,0.0
24283,68.0,16,40,11.0,0.0
24284,65.0,0,40,12.0,0.0
24285,63.0,94,40,12.0,0.0
24286,67.0,0,40,11.0,0.0
24287,62.0,2,90,12.0,0.0
24288,65.0,0,90,11.0,0.0
24289,57.0,0,40,3.0,0.0
24290,45.0,0,40,2.0,0.0
24291,45.0,0,40,3.0,0.0
24292,58.0,0,40,3.0,0.0
24293,46.0,0,40,2.0,0.0
24294,46.0,0,40,3.0,0.0
24295,45.0,0,40,2.0,0.0
24296,71.0,0,40,11.0,0.0
24297,57.0,48,40,3.0,0.0
24298,45.0,0,40,3.0,0.0
24299,68.0,0,40,12.0,0.0
24300,58.0,0,150,3.0,0.0
24301,66.0,48,40,12.0,0.0
24302,70.0,0,40,11.0,0.0
24303,46.0,0,150,3.0,0.0
24304,46.0,32,150,2.0,0.0
24305,68.0,48,40,11.0,0.0
24306,65.0,0,40,12.0,0.0
24307,63.0,0,40,12.0,0.0
24308,66.0,16,40,11.0,0.0
24309,65.0,94,40,11.0,0.0
24310,62.0,0,40,12.0,0.0
24311,63.0,0,90,12.0,0.0
24312,66.0,2,90,11.0,0.0
24313,69.0,0,40,2.0,0.0
24314,57.0,48,40,2.0,0.0
24315,70.0,0,40,2.0,0.0
24316,58.0,48,40,2.0,0.0
24317,57.0,0,40,2.0,0.0
24318,68.0,48,40,12.0,0.0
24319,71.0,0,40,11.0,0.0
24320,69.0,0,40,2.0,0.0
24321,66.0,48,40,12.0,0.0
24322,58.0,0,150,2.0,0.0
24323,70.0,0,40,11.0,0.0
24324,70.0,32,150,2.0,0.0
24325,65.0,0,40,12.0,0.0
24326,68.0,48,40,11.0,0.0
24327,63.0,0,40,12.0,0.0
24328,66.0,16,40,11.0,0.0
24329,62.0,94,40,12.0,0.0
24330,65.0,0,40,11.0,0.0
24331,65.0,2,90,12.0,0.0
24332,68.0,0,90,11.0,0.0
24333,59.0,0,40,3.0,0.0
24334,59.0,0,40,2.0,0.0
24335,47.0,0,40,3.0,0.0
24336,47.0,48,40,2.0,0.0
24337,60.0,0,40,2.0,0.0
24338,48.0,0,40,3.0,0.0
24339,60.0,0,40,3.0,0.0
24340,48.0,0,40,2.0,0.0
24341,73.0,0,40,11.0,0.0
24342,70.0,0,40,12.0,0.0
24343,59.0,0,40,3.0,0.0
24344,59.0,0,40,2.0,0.0
24345,47.0,0,40,2.0,0.0
24346,47.0,0,40,3.0,0.0
24347,68.0,0,40,12.0,0.0
24348,48.0,0,150,2.0,0.0
24349,60.0,32,150,2.0,0.0
24350,48.0,0,150,3.0,0.0
24351,60.0,0,150,3.0,0.0
24352,72.0,48,40,11.0,0.0
24353,67.0,0,40,12.0,0.0
24354,70.0,48,40,11.0,0.0
24355,65.0,0,40,12.0,0.0
24356,68.0,16,40,11.0,0.0
24357,64.0,0,40,12.0,0.0
24358,67.0,94,40,11.0,0.0
24359,68.0,0,90,11.0,0.0
24360,65.0,2,90,12.0,0.0
24361,59.0,0,40,2.0,0.0
24362,71.0,48,40,2.0,0.0
24363,60.0,0,40,2.0,0.0
24364,72.0,48,40,2.0,0.0
24365,59.0,0,40,2.0,0.0
24366,70.0,48,40,12.0,0.0
24367,71.0,0,40,2.0,0.0
24368,73.0,0,40,11.0,0.0
24369,72.0,0,150,2.0,0.0
24370,72.0,0,40,11.0,0.0
24371,60.0,30,150,2.0,0.0
24372,68.0,48,40,12.0,0.0
24373,67.0,0,40,12.0,0.0
24374,70.0,48,40,11.0,0.0
24375,68.0,16,40,11.0,0.0
24376,65.0,0,40,12.0,0.0
24377,67.0,96,40,11.0,0.0
24378,64.0,0,40,12.0,0.0
24379,67.0,0,90,12.0,0.0
24380,70.0,2,90,11.0,0.0
24381,73.0,48,40,2.0,0.0
24382,61.0,0,40,2.0,0.0
24383,62.0,48,40,2.0,0.0
24384,74.0,0,40,2.0,0.0
24385,72.0,0,40,12.0,0.0
24386,61.0,48,40,2.0,0.0
24387,73.0,0,40,2.0,0.0
24388,75.0,0,40,11.0,0.0
24389,70.0,0,40,12.0,0.0
24390,62.0,30,150,2.0,0.0
24391,74.0,0,150,2.0,0.0
24392,74.0,48,40,11.0,0.0
24393,69.0,48,40,12.0,0.0
24394,72.0,0,40,11.0,0.0
24395,70.0,0,40,11.0,0.0
24396,67.0,16,40,12.0,0.0
24397,66.0,0,40,12.0,0.0
24398,69.0,96,40,11.0,0.0
24399,72.0,0,90,11.0,0.0
24400,69.0,2,90,12.0,0.0
24401,62.0,48,40,2.0,0.0
24402,74.0,0,40,2.0,0.0
24403,75.0,0,40,2.0,0.0
24404,63.0,48,40,2.0,0.0
24405,76.0,0,40,2.0,0.0
24406,64.0,0,40,2.0,0.0
24407,75.0,0,40,12.0,0.0
24408,78.0,48,40,11.0,0.0
24409,73.0,48,40,12.0,0.0
24410,77.0,0,150,2.0,0.0
24411,65.0,30,150,2.0,0.0
24412,77.0,0,40,11.0,0.0
24413,72.0,48,40,12.0,0.0
24414,75.0,0,40,11.0,0.0
24415,73.0,0,40,11.0,0.0
24416,70.0,16,40,12.0,0.0
24417,72.0,0,40,11.0,0.0
24418,69.0,96,40,12.0,0.0
24419,75.0,2,90,11.0,0.0
24420,72.0,0,90,12.0,0.0
24421,64.0,48,40,14.0,0.0
24422,76.0,0,40,2.0,0.0
24423,64.0,0,40,2.0,0.0
24424,65.0,0,40,14.0,0.0
24425,77.0,0,40,2.0,0.0
24426,65.0,48,40,2.0,0.0
24427,73.0,48,40,12.0,0.0
24428,64.0,0,40,14.0,0.0
24429,76.0,0,40,2.0,0.0
24430,82.0,0,40,0.0,0.0
24431,73.0,0,40,1.0,0.0
24432,82.0,0,40,1.0,0.0
24433,82.0,0,40,11.0,0.0
24434,64.0,0,40,2.0,0.0
24435,73.0,0,40,0.0,0.0
24436,81.0,0,40,1.0,0.0
24437,72.0,0,40,1.0,0.0
24438,72.0,0,40,0.0,0.0
24439,65.0,0,90,14.0,0.0
24440,72.0,46,40,12.0,0.0
24441,77.0,2,90,2.0,0.0
24442,81.0,0,40,11.0,0.0
24443,65.0,0,90,2.0,0.0
24444,81.0,0,40,0.0,0.0
24445,73.0,0,40,0.0,0.0
24446,54.0,0,40,9.0,0.0
24447,82.0,0,40,0.0,0.0
24448,82.0,48,40,11.0,0.0
24449,73.0,0,40,12.0,0.0
24450,82.0,0,40,1.0,0.0
24451,73.0,0,40,1.0,0.0
24452,72.0,0,40,0.0,0.0
24453,54.0,0,90,9.0,0.0
24454,81.0,0,40,0.0,0.0
24455,72.0,0,40,1.0,0.0
24456,72.0,16,40,12.0,0.0
24457,81.0,0,40,1.0,0.0
24458,81.0,0,40,11.0,0.0
24459,82.0,0,40,11.0,0.0
24460,76.0,0,40,2.0,0.0
24461,82.0,0,40,1.0,0.0
24462,73.0,32,40,12.0,0.0
24463,73.0,0,40,1.0,0.0
24464,52.0,0,40,14.0,0.0
24465,52.0,0,40,3.0,0.0
24466,73.0,0,40,0.0,0.0
24467,82.0,0,40,0.0,0.0
24468,38.0,24,15,9.0,0.0
24469,52.0,2,40,2.0,0.0
24470,38.0,6,15,9.0,0.0
24471,38.0,16,30,9.0,0.0
24472,53.0,2,90,2.0,0.0
24473,77.0,0,90,2.0,0.0
24474,53.0,0,90,14.0,0.0
24475,81.0,0,40,1.0,0.0
24476,72.0,32,40,1.0,0.0
24477,81.0,0,40,11.0,0.0
24478,53.0,0,90,3.0,0.0
24479,72.0,0,40,12.0,0.0
24480,72.0,0,40,0.0,0.0
24481,81.0,0,40,0.0,0.0
24482,73.0,32,40,0.0,0.0
24483,82.0,0,40,0.0,0.0
24484,82.0,0,40,1.0,0.0
24485,73.0,0,40,1.0,0.0
24486,82.0,0,40,11.0,0.0
24487,73.0,0,40,12.0,0.0
24488,38.0,14,30,9.0,0.0
24489,38.0,16,30,9.0,0.0
24490,72.0,0,40,1.0,0.0
24491,72.0,0,40,12.0,0.0
24492,72.0,16,40,0.0,0.0
24493,81.0,0,40,0.0,0.0
24494,81.0,0,40,11.0,0.0
24495,81.0,0,40,1.0,0.0
24496,38.0,24,15,9.0,0.0
24497,73.0,32,40,12.0,0.0
24498,64.0,0,40,2.0,0.0
24499,82.0,0,40,11.0,0.0
24500,40.0,0,40,2.0,0.0
24501,73.0,0,40,1.0,0.0
24502,82.0,0,40,1.0,0.0
24503,40.0,2,40,14.0,0.0
24504,40.0,0,40,3.0,0.0
24505,73.0,0,40,0.0,0.0
24506,82.0,0,40,0.0,0.0
24507,38.0,6,15,9.0,0.0
24508,72.0,0,40,12.0,0.0
24509,41.0,0,90,2.0,0.0
24510,81.0,32,40,11.0,0.0
24511,41.0,2,90,14.0,0.0
24512,41.0,0,90,3.0,0.0
24513,81.0,0,40,1.0,0.0
24514,72.0,0,40,1.0,0.0
24515,65.0,0,90,2.0,0.0
24516,72.0,0,40,0.0,0.0
24517,81.0,0,40,0.0,0.0
24518,38.0,16,30,9.0,0.0
24519,70.0,0,40,1.0,0.0
24520,78.0,0,40,1.0,0.0
24521,38.0,14,30,9.0,0.0
24522,78.0,0,40,11.0,0.0
24523,70.0,32,40,12.0,0.0
24524,54.0,0,40,9.0,0.0
24525,78.0,0,40,0.0,0.0
24526,70.0,0,40,0.0,0.0
24527,38.0,16,30,9.0,0.0
24528,69.0,0,40,1.0,0.0
24529,77.0,0,40,1.0,0.0
24530,77.0,16,40,11.0,0.0
24531,69.0,0,40,0.0,0.0
24532,54.0,0,90,9.0,0.0
24533,69.0,0,40,12.0,0.0
24534,77.0,0,40,0.0,0.0
24535,75.0,34,40,0.0,0.0
24536,72.0,0,40,0.0,0.0
24537,72.0,0,40,1.0,0.0
24538,75.0,0,40,1.0,0.0
24539,67.0,0,40,12.0,0.0
24540,38.0,24,15,9.0,0.0
24541,75.0,0,40,11.0,0.0
24542,38.0,6,15,9.0,0.0
24543,73.0,0,90,11.0,0.0
24544,70.0,0,90,0.0,0.0
24545,73.0,2,90,1.0,0.0
24546,70.0,0,90,1.0,0.0
24547,38.0,62,30,9.0,0.0
24548,73.0,0,90,0.0,0.0
24549,70.0,0,90,12.0,0.0
24550,46.0,0,40,14.0,0.0
24551,46.0,0,40,3.0,0.0
24552,46.0,0,40,2.0,0.0
24553,58.0,0,40,4.0,0.0
24554,34.0,0,40,3.0,0.0
24555,70.0,48,40,2.0,0.0
24556,48.0,0,40,2.0,0.0
24557,48.0,0,40,14.0,0.0
24558,60.0,0,40,4.0,0.0
24559,36.0,0,40,3.0,0.0
24560,48.0,0,40,3.0,0.0
24561,72.0,0,40,2.0,0.0
24562,70.0,0,40,0.0,0.0
24563,61.0,0,40,0.0,0.0
24564,34.0,0,40,3.0,0.0
24565,70.0,2,40,1.0,0.0
24566,46.0,0,40,14.0,0.0
24567,46.0,0,40,3.0,0.0
24568,61.0,0,40,1.0,0.0
24569,70.0,0,40,2.0,0.0
24570,38.0,14,30,9.0,0.0
24571,58.0,0,40,4.0,0.0
24572,61.0,0,30,12.0,0.0
24573,70.0,0,40,11.0,0.0
24574,46.0,32,40,2.0,0.0
24575,48.0,0,90,14.0,0.0
24576,38.0,0,30,9.0,0.0
24577,63.0,0,90,0.0,0.0
24578,69.0,0,40,11.0,0.0
24579,60.0,0,90,4.0,0.0
24580,48.0,0,90,3.0,0.0
24581,63.0,0,90,1.0,0.0
24582,72.0,0,90,2.0,0.0
24583,69.0,0,40,0.0,0.0
24584,48.0,0,90,2.0,0.0
24585,63.0,14,30,12.0,0.0
24586,69.0,48,40,1.0,0.0
24587,72.0,0,40,11.0,0.0
24588,54.0,0,40,9.0,0.0
24589,72.0,2,40,1.0,0.0
24590,72.0,0,40,0.0,0.0
24591,60.0,34,90,2.0,0.0
24592,36.0,46,15,3.0,0.0
24593,36.0,0,90,2.0,0.0
24594,75.0,0,40,0.0,0.0
24595,75.0,0,40,11.0,0.0
24596,75.0,34,40,1.0,0.0
24597,24.0,0,90,3.0,0.0
24598,54.0,0,90,9.0,0.0
24599,36.0,0,90,14.0,0.0
24600,78.0,0,40,11.0,0.0
24601,38.0,14,30,9.0,0.0
24602,78.0,0,40,1.0,0.0
24603,69.0,0,40,1.0,0.0
24604,78.0,0,40,0.0,0.0
24605,69.0,0,40,0.0,0.0
24606,69.0,0,30,12.0,0.0
24607,26.0,0,40,3.0,0.0
24608,38.0,16,30,9.0,0.0
24609,68.0,0,30,12.0,0.0
24610,62.0,0,40,2.0,0.0
24611,77.0,0,90,1.0,0.0
24612,38.0,0,40,14.0,0.0
24613,38.0,0,40,2.0,0.0
24614,68.0,0,90,0.0,0.0
24615,77.0,2,90,11.0,0.0
24616,68.0,0,90,1.0,0.0
24617,77.0,0,90,0.0,0.0
24618,38.0,46,15,3.0,0.0
24619,50.0,0,40,3.0,0.0
24620,74.0,48,40,2.0,0.0
24621,54.0,0,40,9.0,0.0
24622,50.0,0,40,2.0,0.0
24623,62.0,0,40,4.0,0.0
24624,50.0,0,40,14.0,0.0
24625,51.0,0,40,3.0,0.0
24626,54.0,0,90,9.0,0.0
24627,51.0,0,40,14.0,0.0
24628,63.0,0,40,4.0,0.0
24629,51.0,32,40,2.0,0.0
24630,39.0,0,40,3.0,0.0
24631,75.0,0,40,2.0,0.0
24632,65.0,0,30,12.0,0.0
24633,71.0,0,40,0.0,0.0
24634,65.0,0,40,1.0,0.0
24635,50.0,0,40,14.0,0.0
24636,38.0,0,40,3.0,0.0
24637,71.0,0,40,1.0,0.0
24638,71.0,2,40,11.0,0.0
24639,50.0,0,40,3.0,0.0
24640,62.0,0,40,4.0,0.0
24641,65.0,0,40,0.0,0.0
24642,50.0,0,40,2.0,0.0
24643,74.0,32,40,2.0,0.0
24644,38.0,14,30,9.0,0.0
24645,51.0,0,90,2.0,0.0
24646,51.0,46,90,14.0,0.0
24647,66.0,0,90,1.0,0.0
24648,70.0,0,40,1.0,0.0
24649,70.0,0,40,0.0,0.0
24650,70.0,48,40,11.0,0.0
24651,66.0,14,30,12.0,0.0
24652,75.0,0,90,2.0,0.0
24653,38.0,0,30,9.0,0.0
24654,63.0,0,90,4.0,0.0
24655,51.0,0,90,3.0,0.0
24656,66.0,0,90,0.0,0.0
24657,54.0,0,40,9.0,0.0
24658,75.0,0,40,0.0,0.0
24659,75.0,2,40,11.0,0.0
24660,75.0,0,40,1.0,0.0
24661,39.0,0,90,2.0,0.0
24662,78.0,0,40,0.0,0.0
24663,27.0,34,90,3.0,0.0
24664,39.0,0,15,3.0,0.0
24665,78.0,34,40,1.0,0.0
24666,63.0,0,90,2.0,0.0
24667,54.0,0,90,9.0,0.0
24668,39.0,0,90,14.0,0.0
24669,78.0,0,40,11.0,0.0
24670,78.0,0,40,1.0,0.0
24671,78.0,0,30,12.0,0.0
24672,38.0,14,30,9.0,0.0
24673,82.0,0,40,11.0,0.0
24674,78.0,0,40,0.0,0.0
24675,82.0,0,40,0.0,0.0
24676,82.0,0,40,1.0,0.0
24677,29.0,0,90,3.0,0.0
24678,41.0,0,90,3.0,0.0
24679,38.0,14,30,9.0,0.0
24680,65.0,0,90,2.0,0.0
24681,81.0,0,90,1.0,0.0
24682,81.0,0,90,11.0,0.0
24683,77.0,0,30,12.0,0.0
24684,81.0,0,90,0.0,0.0
24685,77.0,0,90,0.0,0.0
24686,77.0,0,90,1.0,0.0
24687,41.0,48,40,14.0,0.0
24688,65.0,0,90,4.0,0.0
24689,41.0,0,90,2.0,0.0
24690,53.0,48,40,14.0,0.0
24691,54.0,0,40,9.0,0.0
24692,51.0,34,40,14.0,0.0
24693,54.0,0,90,9.0,0.0
24694,72.0,0,30,11.0,0.0
24695,53.0,34,40,14.0,0.0
24696,38.0,14,30,9.0,0.0
24697,69.0,0,30,12.0,0.0
24698,38.0,0,30,9.0,0.0
24699,49.0,48,40,14.0,0.0
24700,70.0,14,30,12.0,0.0
24701,77.0,0,30,11.0,0.0
24702,54.0,48,40,9.0,0.0
24703,48.0,0,40,14.0,0.0
24704,54.0,34,90,9.0,0.0
24705,46.0,34,40,14.0,0.0
24706,57.0,0,30,12.0,0.0
24707,48.0,0,40,14.0,0.0
24708,63.0,14,30,11.0,0.0
24709,38.0,0,30,9.0,0.0
24710,61.0,14,30,11.0,0.0
24711,38.0,0,30,9.0,0.0
24712,58.0,0,30,12.0,0.0
24713,49.0,48,40,14.0,0.0
24714,51.0,0,40,14.0,0.0
24715,54.0,48,40,9.0,0.0
24716,54.0,34,90,9.0,0.0
24717,49.0,34,40,14.0,0.0
24718,53.0,0,40,14.0,0.0
24719,69.0,0,30,12.0,0.0
24720,72.0,0,30,11.0,0.0
24721,38.0,14,30,9.0,0.0
24722,49.0,48,40,14.0,0.0
24723,77.0,0,30,11.0,0.0
24724,38.0,0,30,9.0,0.0
24725,70.0,14,30,12.0,0.0
24726,48.0,48,40,14.0,0.0
24727,54.0,0,40,9.0,0.0
24728,54.0,0,90,9.0,0.0
24729,46.0,34,40,14.0,0.0
24730,57.0,0,40,13.0,0.0
24731,48.0,0,40,14.0,0.0
24732,38.0,14,30,9.0,0.0
24733,63.0,34,40,13.0,0.0
24734,38.0,14,30,9.0,0.0
24735,61.0,0,40,13.0,0.0
24736,49.0,48,40,14.0,0.0
24737,58.0,0,40,13.0,0.0
24738,77.0,0,40,5.0,0.0
24739,65.0,0,40,1.0,0.0
24740,65.0,0,40,2.0,0.0
24741,77.0,0,40,2.0,0.0
24742,60.0,0,40,13.0,0.0
24743,56.0,2,40,14.0,0.0
24744,77.0,0,40,1.0,0.0
24745,65.0,0,40,4.0,0.0
24746,65.0,0,40,5.0,0.0
24747,65.0,0,40,12.0,0.0
24748,53.0,46,40,4.0,0.0
24749,53.0,0,40,2.0,0.0
24750,77.0,0,40,11.0,0.0
24751,55.0,2,40,14.0,0.0
24752,67.0,0,40,1.0,0.0
24753,79.0,0,40,1.0,0.0
24754,79.0,46,40,5.0,0.0
24755,67.0,0,40,4.0,0.0
24756,58.0,0,40,13.0,0.0
24757,67.0,0,40,12.0,0.0
24758,67.0,0,40,5.0,0.0
24759,79.0,0,40,11.0,0.0
24760,55.0,0,40,4.0,0.0
24761,55.0,0,40,2.0,0.0
24762,79.0,0,40,2.0,0.0
24763,67.0,0,40,2.0,0.0
24764,65.0,0,40,1.0,0.0
24765,53.0,0,40,2.0,0.0
24766,56.0,2,40,13.0,0.0
24767,65.0,46,40,4.0,0.0
24768,53.0,0,40,4.0,0.0
24769,53.0,0,40,14.0,0.0
24770,65.0,0,40,12.0,0.0
24771,65.0,0,40,2.0,0.0
24772,77.0,0,40,2.0,0.0
24773,77.0,0,40,11.0,0.0
24774,77.0,0,40,1.0,0.0
24775,65.0,0,40,5.0,0.0
24776,77.0,0,40,5.0,0.0
24777,79.0,0,150,11.0,0.0
24778,52.0,48,40,13.0,0.0
24779,79.0,0,150,1.0,0.0
24780,67.0,0,150,1.0,0.0
24781,79.0,0,150,5.0,0.0
24782,55.0,0,150,2.0,0.0
24783,55.0,0,150,4.0,0.0
24784,67.0,0,150,2.0,0.0
24785,67.0,0,150,5.0,0.0
24786,52.0,48,90,14.0,0.0
24787,67.0,0,150,12.0,0.0
24788,67.0,0,150,4.0,0.0
24789,79.0,30,150,2.0,0.0
24790,55.0,0,40,13.0,0.0
24791,58.0,18,40,13.0,0.0
24792,61.0,48,40,13.0,0.0
24793,60.0,48,40,13.0,0.0
24794,53.0,0,40,14.0,0.0
24795,63.0,0,40,14.0,0.0
24796,81.0,0,40,1.0,0.0
24797,69.0,0,40,1.0,0.0
24798,81.0,0,40,11.0,0.0
24799,57.0,0,40,2.0,0.0
24800,69.0,0,40,12.0,0.0
24801,57.0,0,40,4.0,0.0
24802,69.0,0,40,5.0,0.0
24803,69.0,0,40,4.0,0.0
24804,69.0,0,40,2.0,0.0
24805,66.0,2,40,13.0,0.0
24806,81.0,46,40,5.0,0.0
24807,81.0,0,40,2.0,0.0
24808,82.0,0,40,11.0,0.0
24809,58.0,0,40,2.0,0.0
24810,82.0,0,40,2.0,0.0
24811,70.0,0,40,4.0,0.0
24812,58.0,46,40,4.0,0.0
24813,61.0,0,40,14.0,0.0
24814,70.0,0,40,2.0,0.0
24815,65.0,2,40,13.0,0.0
24816,70.0,0,40,5.0,0.0
24817,82.0,0,40,1.0,0.0
24818,82.0,0,40,5.0,0.0
24819,70.0,0,40,1.0,0.0
24820,70.0,0,40,12.0,0.0
24821,69.0,0,40,12.0,0.0
24822,63.0,2,40,13.0,0.0
24823,69.0,0,40,4.0,0.0
24824,69.0,0,40,5.0,0.0
24825,60.0,0,40,14.0,0.0
24826,81.0,46,40,11.0,0.0
24827,57.0,0,40,2.0,0.0
24828,81.0,0,40,1.0,0.0
24829,81.0,0,40,2.0,0.0
24830,69.0,0,40,2.0,0.0
24831,57.0,0,40,4.0,0.0
24832,69.0,0,40,1.0,0.0
24833,81.0,0,40,5.0,0.0
24834,82.0,0,150,1.0,0.0
24835,82.0,0,150,2.0,0.0
24836,82.0,0,150,11.0,0.0
24837,70.0,0,150,1.0,0.0
24838,70.0,0,150,2.0,0.0
24839,70.0,0,150,12.0,0.0
24840,82.0,30,150,5.0,0.0
24841,61.0,48,40,13.0,0.0
24842,70.0,0,150,4.0,0.0
24843,70.0,0,150,5.0,0.0
24844,58.0,0,150,4.0,0.0
24845,58.0,0,90,14.0,0.0
24846,58.0,0,150,2.0,0.0
24847,65.0,48,40,13.0,0.0
24848,70.0,18,40,13.0,0.0
24849,73.0,96,40,13.0,0.0
24850,70.0,0,90,13.0,0.0
24851,67.0,2,90,14.0,0.0
24852,76.0,0,90,12.0,0.0
24853,84.0,48,40,0.0,0.0
24854,84.0,0,40,11.0,0.0
24855,82.0,32,40,11.0,0.0
24856,82.0,0,40,0.0,0.0
24857,60.0,16,30,13.0,0.0
24858,64.0,0,30,12.0,0.0
24859,84.0,32,40,0.0,0.0
24860,84.0,0,40,11.0,0.0
24861,65.0,0,30,12.0,0.0
24862,80.0,48,40,11.0,0.0
24863,53.0,16,30,13.0,0.0
24864,80.0,0,40,0.0,0.0
24865,79.0,48,40,11.0,0.0
24866,79.0,0,40,0.0,0.0
24867,77.0,0,40,0.0,0.0
24868,77.0,32,40,11.0,0.0
24869,79.0,0,40,0.0,0.0
24870,79.0,32,40,11.0,0.0
24871,72.0,0,30,13.0,0.0
24872,76.0,16,30,12.0,0.0
24873,80.0,48,40,0.0,0.0
24874,65.0,16,30,13.0,0.0
24875,77.0,0,30,12.0,0.0
24876,80.0,0,40,11.0,0.0
24877,82.0,0,40,11.0,0.0
24878,82.0,48,40,0.0,0.0
24879,80.0,0,40,0.0,0.0
24880,80.0,32,40,11.0,0.0
24881,84.0,0,40,11.0,0.0
24882,84.0,32,40,0.0,0.0
24883,60.0,0,30,13.0,0.0
24884,64.0,16,30,12.0,0.0
24885,80.0,48,40,0.0,0.0
24886,65.0,16,30,12.0,0.0
24887,53.0,0,30,13.0,0.0
24888,80.0,0,40,11.0,0.0
24889,79.0,0,40,11.0,0.0
24890,79.0,48,40,0.0,0.0
24891,77.0,0,40,0.0,0.0
24892,77.0,32,40,11.0,0.0
24893,76.0,14,30,12.0,0.0
24894,79.0,50,40,0.0,0.0
24895,79.0,0,40,11.0,0.0
24896,72.0,32,210,13.0,0.0
24897,80.0,48,40,0.0,0.0
24898,80.0,0,40,11.0,0.0
24899,65.0,0,150,14.0,0.0
24900,77.0,0,150,12.0,0.0
24901,82.0,0,40,11.0,0.0
24902,82.0,48,40,0.0,0.0
24903,80.0,16,40,0.0,0.0
24904,80.0,0,40,11.0,0.0
24905,84.0,0,40,11.0,0.0
24906,84.0,48,40,0.0,0.0
24907,75.0,32,150,12.0,0.0
24908,78.0,0,40,0.0,0.0
24909,78.0,48,40,11.0,0.0
24910,66.0,0,150,14.0,0.0
24911,70.0,0,150,13.0,0.0
24912,80.0,0,40,0.0,0.0
24913,80.0,48,40,11.0,0.0
24914,78.0,0,40,0.0,0.0
24915,78.0,16,40,11.0,0.0
24916,82.0,48,40,0.0,0.0
24917,82.0,0,40,11.0,0.0
24918,73.0,32,150,12.0,0.0
24919,77.0,48,40,0.0,0.0
24920,77.0,0,40,11.0,0.0
24921,68.0,0,150,13.0,0.0
24922,78.0,0,40,0.0,0.0
24923,78.0,48,40,11.0,0.0
24924,77.0,16,40,0.0,0.0
24925,77.0,0,40,11.0,0.0
24926,80.0,0,40,0.0,0.0
24927,80.0,48,40,11.0,0.0
24928,69.0,0,150,13.0,0.0
24929,72.0,30,150,12.0,0.0
24930,75.0,48,40,11.0,0.0
24931,75.0,0,40,0.0,0.0
24932,77.0,0,40,0.0,0.0
24933,77.0,48,40,11.0,0.0
24934,75.0,16,40,11.0,0.0
24935,75.0,0,40,0.0,0.0
24936,78.0,0,40,0.0,0.0
24937,78.0,50,40,11.0,0.0
24938,70.0,32,150,12.0,0.0
24939,73.0,0,40,0.0,0.0
24940,73.0,48,40,11.0,0.0
24941,75.0,0,40,11.0,0.0
24942,75.0,48,40,0.0,0.0
24943,73.0,0,40,11.0,0.0
24944,73.0,16,40,0.0,0.0
24945,77.0,48,40,11.0,0.0
24946,77.0,0,40,0.0,0.0
24947,73.0,48,40,0.0,0.0
24948,73.0,0,40,11.0,0.0
24949,69.0,32,150,12.0,0.0
24950,75.0,48,40,0.0,0.0
24951,75.0,0,40,11.0,0.0
24952,73.0,0,40,0.0,0.0
24953,73.0,16,40,11.0,0.0
24954,78.0,0,40,0.0,0.0
24955,78.0,48,40,11.0,0.0
24956,73.0,0,40,0.0,0.0
24957,73.0,48,40,11.0,0.0
24958,68.0,32,150,12.0,0.0
24959,75.0,48,40,0.0,0.0
24960,75.0,0,40,11.0,0.0
24961,73.0,16,40,11.0,0.0
24962,73.0,0,40,0.0,0.0
24963,77.0,0,40,0.0,0.0
24964,77.0,48,40,11.0,0.0
24965,73.0,0,40,0.0,0.0
24966,66.0,0,150,12.0,0.0
24967,58.0,30,150,13.0,0.0
24968,73.0,48,40,11.0,0.0
24969,75.0,0,40,11.0,0.0
24970,75.0,48,40,0.0,0.0
24971,73.0,0,40,0.0,0.0
24972,73.0,16,40,11.0,0.0
24973,78.0,0,40,0.0,0.0
24974,78.0,50,40,11.0,0.0
24975,61.0,0,720,13.0,0.0
24976,65.0,32,150,12.0,0.0
24977,73.0,48,40,0.0,0.0
24978,73.0,0,40,11.0,0.0
24979,75.0,0,40,11.0,0.0
24980,75.0,0,40,0.0,0.0
24981,49.0,48,40,14.0,0.0
24982,73.0,16,40,11.0,0.0
24983,73.0,0,40,0.0,0.0
24984,51.0,0,40,14.0,0.0
24985,49.0,48,40,14.0,0.0
24986,77.0,0,40,11.0,0.0
24987,77.0,0,40,0.0,0.0
24988,51.0,0,150,14.0,0.0
24989,72.0,48,40,0.0,0.0
24990,66.0,32,150,12.0,0.0
24991,72.0,0,40,11.0,0.0
24992,73.0,0,40,11.0,0.0
24993,73.0,48,40,0.0,0.0
24994,72.0,0,40,0.0,0.0
24995,72.0,16,40,11.0,0.0
24996,75.0,48,40,0.0,0.0
24997,75.0,0,40,11.0,0.0
24998,68.0,32,150,12.0,0.0
24999,71.0,48,40,11.0,0.0
25000,71.0,0,40,0.0,0.0
25001,53.0,0,40,14.0,0.0
25002,73.0,0,40,0.0,0.0
25003,73.0,48,40,11.0,0.0
25004,71.0,16,40,0.0,0.0
25005,54.0,0,40,14.0,0.0
25006,71.0,0,40,11.0,0.0
25007,74.0,0,40,11.0,0.0
25008,74.0,48,40,0.0,0.0
25009,53.0,0,40,14.0,0.0
25010,66.0,0,150,12.0,0.0
25011,54.0,30,150,14.0,0.0
25012,70.0,0,40,11.0,0.0
25013,70.0,48,40,0.0,0.0
25014,71.0,0,40,0.0,0.0
25015,71.0,48,40,11.0,0.0
25016,70.0,16,40,11.0,0.0
25017,70.0,0,40,0.0,0.0
25018,73.0,0,40,0.0,0.0
25019,73.0,50,40,11.0,0.0
25020,69.0,0,40,11.0,0.0
25021,61.0,30,150,12.0,0.0
25022,69.0,46,40,0.0,0.0
25023,54.0,2,40,14.0,0.0
25024,71.0,0,40,11.0,0.0
25025,71.0,46,40,0.0,0.0
25026,68.0,46,150,11.0,0.0
25027,53.0,18,40,14.0,0.0
25028,68.0,0,150,0.0,0.0
25029,56.0,48,40,14.0,0.0
25030,53.0,2,40,14.0,0.0
25031,60.0,0,150,13.0,0.0
25032,66.0,30,150,12.0,0.0
25033,69.0,46,40,11.0,0.0
25034,51.0,2,40,14.0,0.0
25035,68.0,46,150,11.0,0.0
25036,44.0,18,40,14.0,0.0
25037,51.0,48,40,14.0,0.0
25038,65.0,0,150,12.0,0.0
25039,61.0,30,150,13.0,0.0
25040,53.0,2,40,14.0,0.0
25041,54.0,2,40,14.0,0.0
25042,70.0,46,40,11.0,0.0
25043,68.0,46,150,11.0,0.0
25044,53.0,18,40,14.0,0.0
25045,56.0,48,40,14.0,0.0
25046,66.0,30,150,12.0,0.0
25047,60.0,0,150,13.0,0.0
25048,53.0,2,40,14.0,0.0
25049,51.0,2,40,14.0,0.0
25050,69.0,46,40,11.0,0.0
25051,44.0,18,40,14.0,0.0
25052,68.0,48,90,11.0,0.0
25053,51.0,0,40,14.0,0.0
25054,53.0,48,40,14.0,0.0
25055,61.0,0,150,13.0,0.0
25056,65.0,30,150,12.0,0.0
25057,49.0,2,40,14.0,0.0
25058,68.0,46,40,2.0,0.0
25059,44.0,2,40,14.0,0.0
25060,66.0,16,40,2.0,0.0
25061,68.0,46,40,2.0,0.0
25062,49.0,2,40,14.0,0.0
25063,66.0,0,150,2.0,0.0
25064,61.0,30,360,12.0,0.0
25065,54.0,48,40,14.0,0.0
25066,58.0,30,150,13.0,0.0
25067,49.0,48,40,14.0,0.0
25068,46.0,18,40,14.0,0.0
25069,49.0,48,40,14.0,0.0
25070,56.0,48,40,14.0,0.0
25071,49.0,2,40,14.0,0.0
25072,65.0,46,40,2.0,0.0
25073,63.0,16,40,2.0,0.0
25074,44.0,2,40,14.0,0.0
25075,65.0,46,40,2.0,0.0
25076,49.0,2,40,14.0,0.0
25077,58.0,48,40,14.0,0.0
25078,61.0,2,330,12.0,0.0
25079,63.0,30,150,2.0,0.0
25080,49.0,48,40,14.0,0.0
25081,42.0,18,40,14.0,0.0
25082,49.0,48,40,14.0,0.0
25083,56.0,48,40,14.0,0.0
25084,63.0,46,40,2.0,0.0
25085,49.0,2,40,14.0,0.0
25086,44.0,0,40,14.0,0.0
25087,65.0,46,40,2.0,0.0
25088,61.0,46,40,2.0,0.0
25089,61.0,2,390,12.0,0.0
25090,49.0,2,40,14.0,0.0
25091,58.0,2,40,14.0,0.0
25092,65.0,46,40,2.0,0.0
25093,49.0,2,40,14.0,0.0
25094,66.0,46,40,2.0,0.0
25095,68.0,46,40,2.0,0.0
25096,42.0,2,40,14.0,0.0
25097,49.0,2,40,14.0,0.0
25098,66.0,46,40,2.0,0.0
25099,65.0,46,40,2.0,0.0
25100,56.0,2,40,14.0,0.0
25101,63.0,46,40,2.0,0.0
25102,49.0,2,40,14.0,0.0
25103,44.0,0,40,14.0,0.0
25104,65.0,46,40,2.0,0.0
25105,49.0,2,40,14.0,0.0
25106,61.0,46,40,2.0,0.0
25107,61.0,30,210,12.0,0.0
25108,65.0,46,40,2.0,0.0
25109,58.0,2,40,14.0,0.0
25110,49.0,2,40,14.0,0.0
25111,66.0,46,40,2.0,0.0
25112,68.0,16,40,2.0,0.0
25113,42.0,2,40,14.0,0.0
25114,66.0,48,40,2.0,0.0
25115,49.0,0,40,14.0,0.0
25116,65.0,0,150,12.0,0.0
25117,56.0,48,40,14.0,0.0
25118,65.0,0,150,2.0,0.0
25119,61.0,30,150,2.0,0.0
25120,61.0,0,150,13.0,0.0
25121,49.0,2,40,14.0,0.0
25122,73.0,46,40,1.0,0.0
25123,44.0,2,40,14.0,0.0
25124,71.0,16,40,1.0,0.0
25125,49.0,2,40,14.0,0.0
25126,73.0,46,40,1.0,0.0
25127,61.0,0,150,2.0,0.0
25128,56.0,48,40,14.0,0.0
25129,65.0,30,150,12.0,0.0
25130,65.0,0,150,2.0,0.0
25131,61.0,0,150,13.0,0.0
25132,71.0,0,150,1.0,0.0
25133,49.0,48,40,14.0,0.0
25134,44.0,18,40,14.0,0.0
25135,49.0,48,40,14.0,0.0
25136,61.0,30,150,2.0,0.0
25137,58.0,48,40,14.0,0.0
25138,66.0,0,150,12.0,0.0
25139,61.0,0,150,13.0,0.0
25140,66.0,0,150,2.0,0.0
25141,70.0,46,40,1.0,0.0
25142,49.0,2,40,14.0,0.0
25143,68.0,16,40,1.0,0.0
25144,42.0,2,40,14.0,0.0
25145,49.0,2,40,14.0,0.0
25146,70.0,46,40,1.0,0.0
25147,68.0,0,150,1.0,0.0
25148,59.0,48,40,14.0,0.0
25149,61.0,0,360,12.0,0.0
25150,61.0,30,150,2.0,0.0
25151,49.0,48,40,14.0,0.0
25152,41.0,18,40,14.0,0.0
25153,49.0,48,40,14.0,0.0
25154,58.0,48,40,14.0,0.0
25155,49.0,2,40,14.0,0.0
25156,68.0,46,40,1.0,0.0
25157,70.0,16,40,1.0,0.0
25158,42.0,2,40,14.0,0.0
25159,66.0,46,40,1.0,0.0
25160,49.0,2,40,14.0,0.0
25161,56.0,2,40,14.0,0.0
25162,61.0,0,330,2.0,0.0
25163,70.0,46,40,1.0,0.0
25164,61.0,0,330,12.0,0.0
25165,71.0,46,40,1.0,0.0
25166,49.0,2,40,14.0,0.0
25167,73.0,46,40,1.0,0.0
25168,41.0,2,40,14.0,0.0
25169,71.0,46,40,1.0,0.0
25170,49.0,2,40,14.0,0.0
25171,58.0,2,40,14.0,0.0
25172,70.0,46,40,1.0,0.0
25173,49.0,2,40,14.0,0.0
25174,68.0,46,40,1.0,0.0
25175,42.0,2,40,14.0,0.0
25176,70.0,0,40,1.0,0.0
25177,66.0,46,40,1.0,0.0
25178,49.0,2,40,14.0,0.0
25179,61.0,0,150,12.0,0.0
25180,56.0,2,40,14.0,0.0
25181,61.0,0,150,2.0,0.0
25182,70.0,46,40,1.0,0.0
25183,49.0,2,40,14.0,0.0
25184,71.0,46,40,1.0,0.0
25185,41.0,2,40,14.0,0.0
25186,73.0,16,40,1.0,0.0
25187,49.0,48,40,14.0,0.0
25188,71.0,0,40,1.0,0.0
25189,66.0,0,150,2.0,0.0
25190,70.0,0,90,1.0,0.0
25191,66.0,0,150,12.0,0.0
25192,58.0,48,40,14.0,0.0
25193,66.0,30,150,13.0,0.0
25194,49.0,2,40,14.0,0.0
25195,78.0,46,40,2.0,0.0
25196,76.0,16,40,2.0,0.0
25197,42.0,2,40,14.0,0.0
25198,49.0,2,40,14.0,0.0
25199,78.0,46,40,2.0,0.0
25200,71.0,0,150,1.0,0.0
25201,71.0,0,150,12.0,0.0
25202,59.0,30,150,1.0,0.0
25203,66.0,0,150,2.0,0.0
25204,66.0,0,150,13.0,0.0
25205,76.0,0,150,2.0,0.0
25206,59.0,48,40,14.0,0.0
25207,54.0,48,40,14.0,0.0
25208,44.0,18,40,14.0,0.0
25209,54.0,48,40,14.0,0.0
25210,66.0,0,150,2.0,0.0
25211,61.0,0,150,1.0,0.0
25212,73.0,0,150,12.0,0.0
25213,61.0,48,40,14.0,0.0
25214,66.0,0,150,13.0,0.0
25215,73.0,30,150,1.0,0.0
25216,54.0,2,40,14.0,0.0
25217,78.0,46,40,2.0,0.0
25218,46.0,2,40,14.0,0.0
25219,76.0,16,40,2.0,0.0
25220,78.0,46,40,2.0,0.0
25221,54.0,2,40,14.0,0.0
25222,75.0,0,150,2.0,0.0
25223,71.0,0,150,1.0,0.0
25224,59.0,30,150,1.0,0.0
25225,66.0,0,150,2.0,0.0
25226,59.0,48,40,14.0,0.0
25227,71.0,0,150,12.0,0.0
25228,66.0,0,150,13.0,0.0
25229,54.0,48,40,14.0,0.0
25230,47.0,18,40,14.0,0.0
25231,54.0,48,40,14.0,0.0
25232,71.0,0,150,12.0,0.0
25233,71.0,0,150,13.0,0.0
25234,59.0,30,150,2.0,0.0
25235,71.0,0,150,4.0,0.0
25236,63.0,48,40,14.0,0.0
25237,71.0,0,150,2.0,0.0
25238,83.0,0,40,2.0,0.0
25239,54.0,2,40,14.0,0.0
25240,83.0,46,40,1.0,0.0
25241,81.0,16,40,1.0,0.0
25242,47.0,2,40,14.0,0.0
25243,81.0,0,40,2.0,0.0
25244,83.0,0,40,1.0,0.0
25245,54.0,2,40,14.0,0.0
25246,83.0,46,40,2.0,0.0
25247,59.0,0,150,2.0,0.0
25248,71.0,0,150,13.0,0.0
25249,76.0,0,150,4.0,0.0
25250,64.0,48,40,14.0,0.0
25251,76.0,0,150,2.0,0.0
25252,81.0,0,150,2.0,0.0
25253,71.0,0,150,4.0,0.0
25254,81.0,0,150,1.0,0.0
25255,76.0,30,150,12.0,0.0
25256,59.0,48,40,14.0,0.0
25257,49.0,18,40,14.0,0.0
25258,59.0,48,40,14.0,0.0
25259,66.0,48,40,14.0,0.0
25260,71.0,0,150,4.0,0.0
25261,78.0,30,150,2.0,0.0
25262,78.0,0,150,4.0,0.0
25263,71.0,0,150,13.0,0.0
25264,78.0,0,150,12.0,0.0
25265,59.0,0,150,2.0,0.0
25266,83.0,0,40,2.0,0.0
25267,83.0,46,40,1.0,0.0
25268,59.0,2,40,14.0,0.0
25269,81.0,16,40,1.0,0.0
25270,81.0,0,40,2.0,0.0
25271,51.0,2,40,14.0,0.0
25272,83.0,46,40,2.0,0.0
25273,59.0,2,40,14.0,0.0
25274,83.0,0,40,1.0,0.0
25275,80.0,0,150,2.0,0.0
25276,76.0,0,150,2.0,0.0
25277,59.0,30,150,2.0,0.0
25278,71.0,0,150,4.0,0.0
25279,80.0,0,150,1.0,0.0
25280,71.0,0,150,13.0,0.0
25281,76.0,0,150,12.0,0.0
25282,76.0,0,150,4.0,0.0
25283,64.0,48,40,14.0,0.0
25284,59.0,48,40,14.0,0.0
25285,52.0,18,40,14.0,0.0
25286,59.0,96,40,14.0,0.0
25287,68.0,0,90,13.0,0.0
25288,68.0,0,90,14.0,0.0
25289,88.0,46,40,11.0,0.0
25290,76.0,2,40,12.0,0.0
25291,88.0,0,40,0.0,0.0
25292,76.0,0,40,0.0,0.0
25293,83.0,2,40,12.0,0.0
25294,86.0,0,40,0.0,0.0
25295,83.0,0,40,0.0,0.0
25296,86.0,46,40,11.0,0.0
25297,88.0,0,40,0.0,0.0
25298,88.0,96,40,11.0,0.0
25299,76.0,0,40,0.0,0.0
25300,76.0,2,40,12.0,0.0
25301,86.0,0,150,0.0,0.0
25302,86.0,32,150,11.0,0.0
25303,83.0,0,150,12.0,0.0
25304,83.0,0,150,0.0,0.0
25305,52.0,0,40,14.0,0.0
25306,52.0,48,40,2.0,0.0
25307,40.0,0,40,3.0,0.0
25308,28.0,0,40,15.0,0.0
25309,64.0,0,40,4.0,0.0
25310,29.0,0,40,15.0,0.0
25311,41.0,0,40,3.0,0.0
25312,65.0,0,40,4.0,0.0
25313,53.0,0,40,14.0,0.0
25314,53.0,16,40,2.0,0.0
25315,28.0,0,40,15.0,0.0
25316,52.0,0,40,14.0,0.0
25317,64.0,0,40,4.0,0.0
25318,52.0,96,40,2.0,0.0
25319,40.0,0,40,3.0,0.0
25320,44.0,0,150,3.0,0.0
25321,56.0,0,150,2.0,0.0
25322,56.0,0,150,14.0,0.0
25323,32.0,32,150,15.0,0.0
25324,68.0,0,150,4.0,0.0
25325,74.0,0,40,13.0,0.0
25326,86.0,0,40,11.0,0.0
25327,83.0,0,40,12.0,0.0
25328,86.0,0,40,0.0,0.0
25329,83.0,48,40,0.0,0.0
25330,81.0,0,40,12.0,0.0
25331,72.0,0,40,13.0,0.0
25332,81.0,0,40,0.0,0.0
25333,84.0,16,40,11.0,0.0
25334,84.0,0,40,0.0,0.0
25335,74.0,0,40,13.0,0.0
25336,83.0,0,40,12.0,0.0
25337,86.0,0,40,0.0,0.0
25338,83.0,0,40,0.0,0.0
25339,86.0,96,40,11.0,0.0
25340,72.0,32,150,13.0,0.0
25341,84.0,0,150,11.0,0.0
25342,84.0,0,150,0.0,0.0
25343,81.0,0,150,12.0,0.0
25344,81.0,0,150,0.0,0.0
25345,40.0,0,40,3.0,0.0
25346,28.0,0,40,15.0,0.0
25347,52.0,48,40,14.0,0.0
25348,52.0,0,40,2.0,0.0
25349,64.0,0,40,4.0,0.0
25350,44.0,0,40,3.0,0.0
25351,56.0,0,40,2.0,0.0
25352,68.0,0,40,4.0,0.0
25353,32.0,0,40,15.0,0.0
25354,56.0,0,40,14.0,0.0
25355,40.0,94,40,3.0,0.0
25356,52.0,0,40,14.0,0.0
25357,52.0,0,40,2.0,0.0
25358,64.0,0,40,4.0,0.0
25359,28.0,0,40,15.0,0.0
25360,57.0,30,150,14.0,0.0
25361,57.0,0,150,2.0,0.0
25362,69.0,0,150,4.0,0.0
25363,45.0,0,150,3.0,0.0
25364,33.0,0,150,15.0,0.0
25365,71.0,0,40,13.0,0.0
25366,83.0,48,40,0.0,0.0
25367,80.0,0,40,12.0,0.0
25368,83.0,0,40,11.0,0.0
25369,80.0,0,40,0.0,0.0
25370,84.0,0,40,0.0,0.0
25371,84.0,0,40,11.0,0.0
25372,81.0,0,40,0.0,0.0
25373,81.0,0,40,12.0,0.0
25374,72.0,18,40,13.0,0.0
25375,78.0,0,40,0.0,0.0
25376,81.0,0,40,11.0,0.0
25377,69.0,0,40,13.0,0.0
25378,78.0,48,40,12.0,0.0
25379,81.0,0,40,0.0,0.0
25380,81.0,0,40,12.0,0.0
25381,84.0,0,40,0.0,0.0
25382,81.0,48,40,0.0,0.0
25383,84.0,0,40,11.0,0.0
25384,72.0,0,40,13.0,0.0
25385,86.0,0,40,0.0,0.0
25386,83.0,0,40,0.0,0.0
25387,28.0,0,40,15.0,0.0
25388,74.0,0,40,13.0,0.0
25389,52.0,0,40,14.0,0.0
25390,52.0,0,40,2.0,0.0
25391,40.0,46,40,3.0,0.0
25392,83.0,2,40,12.0,0.0
25393,86.0,0,40,11.0,0.0
25394,64.0,0,40,4.0,0.0
25395,84.0,2,40,12.0,0.0
25396,56.0,0,40,14.0,0.0
25397,88.0,0,40,11.0,0.0
25398,32.0,0,40,15.0,0.0
25399,56.0,0,40,2.0,0.0
25400,68.0,0,40,4.0,0.0
25401,88.0,0,40,0.0,0.0
25402,84.0,0,40,0.0,0.0
25403,44.0,0,40,3.0,0.0
25404,76.0,0,40,13.0,0.0
25405,28.0,0,40,15.0,0.0
25406,74.0,0,40,13.0,0.0
25407,83.0,2,40,0.0,0.0
25408,86.0,0,40,0.0,0.0
25409,83.0,0,40,12.0,0.0
25410,86.0,0,40,11.0,0.0
25411,64.0,0,40,4.0,0.0
25412,40.0,0,40,3.0,0.0
25413,52.0,0,40,14.0,0.0
25414,52.0,46,40,2.0,0.0
25415,81.0,0,40,12.0,0.0
25416,81.0,0,40,0.0,0.0
25417,84.0,0,40,0.0,0.0
25418,72.0,48,40,13.0,0.0
25419,45.0,0,150,3.0,0.0
25420,69.0,0,150,4.0,0.0
25421,33.0,30,150,15.0,0.0
25422,57.0,0,150,2.0,0.0
25423,84.0,0,40,11.0,0.0
25424,57.0,0,150,14.0,0.0
25425,71.0,0,40,13.0,0.0
25426,80.0,0,40,0.0,0.0
25427,83.0,0,40,0.0,0.0
25428,83.0,48,40,11.0,0.0
25429,80.0,0,40,12.0,0.0
25430,81.0,0,40,0.0,0.0
25431,84.0,0,40,0.0,0.0
25432,81.0,0,40,12.0,0.0
25433,84.0,18,40,11.0,0.0
25434,72.0,0,40,13.0,0.0
25435,81.0,48,40,0.0,0.0
25436,78.0,0,40,0.0,0.0
25437,81.0,0,40,11.0,0.0
25438,69.0,0,40,13.0,0.0
25439,78.0,0,40,12.0,0.0
25440,84.0,0,40,0.0,0.0
25441,81.0,0,40,12.0,0.0
25442,81.0,0,40,0.0,0.0
25443,84.0,0,40,11.0,0.0
25444,72.0,48,40,13.0,0.0
25445,86.0,2,40,11.0,0.0
25446,64.0,0,40,4.0,0.0
25447,52.0,46,40,2.0,0.0
25448,52.0,0,40,14.0,0.0
25449,86.0,0,40,0.0,0.0
25450,83.0,0,40,0.0,0.0
25451,83.0,0,40,12.0,0.0
25452,28.0,0,40,15.0,0.0
25453,74.0,0,40,13.0,0.0
25454,40.0,0,40,3.0,0.0
25455,84.0,0,40,12.0,0.0
25456,88.0,0,40,11.0,0.0
25457,56.0,0,40,14.0,0.0
25458,44.0,46,40,3.0,0.0
25459,68.0,0,40,4.0,0.0
25460,56.0,0,40,2.0,0.0
25461,88.0,0,40,0.0,0.0
25462,84.0,2,40,0.0,0.0
25463,32.0,0,40,15.0,0.0
25464,76.0,0,40,13.0,0.0
25465,83.0,0,40,12.0,0.0
25466,40.0,0,40,3.0,0.0
25467,52.0,0,40,14.0,0.0
25468,86.0,0,40,11.0,0.0
25469,74.0,0,40,13.0,0.0
25470,28.0,0,40,15.0,0.0
25471,83.0,0,40,0.0,0.0
25472,86.0,48,40,0.0,0.0
25473,52.0,0,40,2.0,0.0
25474,64.0,0,40,4.0,0.0
25475,45.0,0,40,3.0,0.0
25476,41.0,0,40,8.0,0.0
25477,33.0,0,40,15.0,0.0
25478,81.0,0,40,12.0,0.0
25479,69.0,0,40,4.0,0.0
25480,57.0,0,40,2.0,0.0
25481,84.0,0,40,0.0,0.0
25482,81.0,0,40,0.0,0.0
25483,33.0,46,40,3.0,0.0
25484,72.0,0,40,13.0,0.0
25485,84.0,2,40,11.0,0.0
25486,57.0,0,40,14.0,0.0
25487,77.0,0,40,2.0,0.0
25488,65.0,0,40,2.0,0.0
25489,89.0,0,40,0.0,0.0
25490,29.0,0,40,15.0,0.0
25491,54.0,0,40,9.0,0.0
25492,89.0,0,40,11.0,0.0
25493,53.0,2,40,2.0,0.0
25494,53.0,0,40,14.0,0.0
25495,41.0,0,40,8.0,0.0
25496,77.0,0,40,12.0,0.0
25497,41.0,0,40,3.0,0.0
25498,77.0,0,40,0.0,0.0
25499,29.0,0,40,3.0,0.0
25500,65.0,0,40,1.0,0.0
25501,65.0,0,40,4.0,0.0
25502,77.0,46,40,1.0,0.0
25503,84.0,0,40,0.0,0.0
25504,87.0,46,40,0.0,0.0
25505,72.0,0,40,1.0,0.0
25506,84.0,0,40,12.0,0.0
25507,87.0,0,40,11.0,0.0
25508,75.0,0,40,1.0,0.0
25509,72.0,0,40,2.0,0.0
25510,75.0,0,40,2.0,0.0
25511,54.0,2,40,9.0,0.0
25512,77.0,0,40,1.0,0.0
25513,54.0,2,40,9.0,0.0
25514,65.0,0,40,1.0,0.0
25515,89.0,0,40,11.0,0.0
25516,77.0,0,40,2.0,0.0
25517,65.0,0,40,2.0,0.0
25518,77.0,0,40,12.0,0.0
25519,77.0,80,40,0.0,0.0
25520,89.0,0,40,0.0,0.0
25521,75.0,0,150,1.0,0.0
25522,75.0,0,150,2.0,0.0
25523,72.0,16,150,2.0,0.0
25524,84.0,0,150,12.0,0.0
25525,72.0,0,150,1.0,0.0
25526,54.0,0,150,9.0,0.0
25527,87.0,0,150,0.0,0.0
25528,84.0,0,150,0.0,0.0
25529,87.0,0,150,11.0,0.0
25530,41.0,0,40,8.0,0.0
25531,29.0,0,40,3.0,0.0
25532,38.0,16,30,9.0,0.0
25533,53.0,0,40,2.0,0.0
25534,29.0,0,40,15.0,0.0
25535,41.0,0,40,3.0,0.0
25536,65.0,0,40,4.0,0.0
25537,53.0,0,40,14.0,0.0
25538,54.0,0,40,14.0,0.0
25539,30.0,0,40,3.0,0.0
25540,41.0,0,40,8.0,0.0
25541,54.0,0,40,2.0,0.0
25542,42.0,0,40,3.0,0.0
25543,38.0,16,30,9.0,0.0
25544,66.0,0,40,4.0,0.0
25545,30.0,0,40,15.0,0.0
25546,38.0,16,30,9.0,0.0
25547,29.0,0,40,3.0,0.0
25548,53.0,0,40,14.0,0.0
25549,41.0,48,40,3.0,0.0
25550,29.0,0,40,15.0,0.0
25551,65.0,0,40,4.0,0.0
25552,53.0,0,40,2.0,0.0
25553,69.0,0,150,4.0,0.0
25554,38.0,46,40,9.0,0.0
25555,33.0,30,150,3.0,0.0
25556,33.0,0,150,15.0,0.0
25557,45.0,0,150,3.0,0.0
25558,57.0,0,150,14.0,0.0
25559,41.0,0,15,8.0,0.0
25560,57.0,0,150,2.0,0.0
25561,41.0,0,15,8.0,0.0
25562,89.0,0,40,11.0,0.0
25563,89.0,0,40,0.0,0.0
25564,77.0,0,40,0.0,0.0
25565,65.0,0,40,2.0,0.0
25566,65.0,0,40,1.0,0.0
25567,54.0,2,40,9.0,0.0
25568,77.0,46,40,12.0,0.0
25569,77.0,0,40,1.0,0.0
25570,77.0,0,40,2.0,0.0
25571,75.0,0,40,2.0,0.0
25572,72.0,0,40,1.0,0.0
25573,75.0,0,40,1.0,0.0
25574,54.0,2,40,9.0,0.0
25575,87.0,0,40,11.0,0.0
25576,72.0,0,40,2.0,0.0
25577,84.0,0,40,0.0,0.0
25578,87.0,16,40,0.0,0.0
25579,84.0,0,40,12.0,0.0
25580,77.0,0,40,12.0,0.0
25581,65.0,0,40,2.0,0.0
25582,77.0,0,40,2.0,0.0
25583,77.0,80,40,1.0,0.0
25584,65.0,0,40,1.0,0.0
25585,77.0,0,40,0.0,0.0
25586,54.0,2,40,9.0,0.0
25587,89.0,0,40,0.0,0.0
25588,89.0,0,40,11.0,0.0
25589,54.0,0,150,9.0,0.0
25590,70.0,0,150,2.0,0.0
25591,73.0,0,150,2.0,0.0
25592,82.0,0,150,12.0,0.0
25593,85.0,0,150,11.0,0.0
25594,73.0,0,150,1.0,0.0
25595,82.0,0,150,0.0,0.0
25596,85.0,16,150,0.0,0.0
25597,70.0,0,150,1.0,0.0
25598,41.0,0,40,3.0,0.0
25599,53.0,0,40,14.0,0.0
25600,38.0,16,30,9.0,0.0
25601,65.0,0,40,4.0,0.0
25602,29.0,0,40,15.0,0.0
25603,29.0,0,40,3.0,0.0
25604,53.0,32,40,2.0,0.0
25605,41.0,0,40,8.0,0.0
25606,57.0,0,40,14.0,0.0
25607,45.0,0,40,3.0,0.0
25608,69.0,0,40,4.0,0.0
25609,41.0,0,40,8.0,0.0
25610,33.0,0,40,3.0,0.0
25611,33.0,0,40,15.0,0.0
25612,57.0,16,40,2.0,0.0
25613,38.0,16,30,9.0,0.0
25614,66.0,0,40,4.0,0.0
25615,30.0,0,40,15.0,0.0
25616,30.0,0,40,3.0,0.0
25617,38.0,16,30,9.0,0.0
25618,54.0,0,40,14.0,0.0
25619,54.0,0,40,2.0,0.0
25620,42.0,0,40,3.0,0.0
25621,34.0,2,90,3.0,0.0
25622,46.0,0,90,3.0,0.0
25623,41.0,46,15,8.0,0.0
25624,58.0,2,40,14.0,0.0
25625,58.0,0,90,2.0,0.0
25626,70.0,0,90,4.0,0.0
25627,34.0,0,40,15.0,0.0
25628,38.0,46,40,9.0,0.0
25629,54.0,0,40,14.0,0.0
25630,41.0,0,40,8.0,0.0
25631,66.0,48,40,13.0,0.0
25632,42.0,0,40,15.0,0.0
25633,49.0,0,40,15.0,0.0
25634,61.0,0,40,14.0,0.0
25635,64.0,48,40,13.0,0.0
25636,54.0,0,40,14.0,0.0
25637,42.0,0,40,15.0,0.0
25638,66.0,94,40,13.0,0.0
25639,49.0,30,150,15.0,0.0
25640,61.0,0,150,14.0,0.0
25641,64.0,0,150,13.0,0.0
25642,66.0,46,40,2.0,0.0
25643,78.0,0,40,0.0,0.0
25644,66.0,0,40,1.0,0.0
25645,78.0,0,40,11.0,0.0
25646,66.0,2,40,12.0,0.0
25647,67.0,0,40,1.0,0.0
25648,79.0,0,40,11.0,0.0
25649,79.0,16,40,0.0,0.0
25650,67.0,0,40,2.0,0.0
25651,67.0,2,40,12.0,0.0
25652,78.0,96,40,0.0,0.0
25653,78.0,0,40,11.0,0.0
25654,66.0,0,40,2.0,0.0
25655,66.0,0,40,1.0,0.0
25656,66.0,2,40,12.0,0.0
25657,82.0,32,150,11.0,0.0
25658,70.0,0,150,2.0,0.0
25659,70.0,0,150,0.0,0.0
25660,70.0,0,150,12.0,0.0
25661,70.0,0,150,1.0,0.0
25662,58.0,0,150,1.0,0.0
25663,58.0,0,150,2.0,0.0
25664,82.0,0,150,0.0,0.0
25665,54.0,0,40,3.0,0.0
25666,66.0,0,40,13.0,0.0
25667,54.0,0,40,14.0,0.0
25668,42.0,0,40,15.0,0.0
25669,42.0,48,40,3.0,0.0
25670,54.0,0,40,2.0,0.0
25671,61.0,0,40,14.0,0.0
25672,61.0,16,40,2.0,0.0
25673,49.0,0,40,15.0,0.0
25674,61.0,0,40,3.0,0.0
25675,64.0,0,40,13.0,0.0
25676,49.0,0,40,3.0,0.0
25677,54.0,0,40,2.0,0.0
25678,66.0,0,40,13.0,0.0
25679,42.0,0,40,15.0,0.0
25680,54.0,0,40,3.0,0.0
25681,42.0,94,40,3.0,0.0
25682,54.0,0,40,14.0,0.0
25683,62.0,0,150,13.0,0.0
25684,59.0,0,150,3.0,0.0
25685,47.0,30,150,15.0,0.0
25686,47.0,0,150,3.0,0.0
25687,59.0,0,150,2.0,0.0
25688,59.0,0,150,14.0,0.0
25689,66.0,46,40,1.0,0.0
25690,78.0,0,40,0.0,0.0
25691,66.0,0,40,2.0,0.0
25692,66.0,2,40,12.0,0.0
25693,78.0,0,40,11.0,0.0
25694,82.0,0,40,11.0,0.0
25695,82.0,16,40,0.0,0.0
25696,70.0,0,40,0.0,0.0
25697,70.0,2,40,12.0,0.0
25698,70.0,0,40,2.0,0.0
25699,58.0,0,40,2.0,0.0
25700,58.0,0,40,1.0,0.0
25701,70.0,0,40,1.0,0.0
25702,66.0,0,40,2.0,0.0
25703,66.0,2,40,12.0,0.0
25704,78.0,96,40,0.0,0.0
25705,78.0,0,40,11.0,0.0
25706,66.0,0,40,1.0,0.0
25707,71.0,0,150,12.0,0.0
25708,71.0,0,150,1.0,0.0
25709,59.0,0,150,1.0,0.0
25710,83.0,0,150,11.0,0.0
25711,71.0,0,150,0.0,0.0
25712,83.0,0,150,0.0,0.0
25713,59.0,0,150,2.0,0.0
25714,71.0,32,150,2.0,0.0
25715,58.0,48,40,14.0,0.0
25716,61.0,0,40,13.0,0.0
25717,59.0,16,40,14.0,0.0
25718,62.0,0,40,13.0,0.0
25719,54.0,0,40,13.0,0.0
25720,54.0,48,40,14.0,0.0
25721,62.0,48,40,13.0,0.0
25722,59.0,0,40,14.0,0.0
25723,61.0,0,40,14.0,0.0
25724,66.0,0,40,2.0,0.0
25725,78.0,0,40,0.0,0.0
25726,78.0,0,40,11.0,0.0
25727,64.0,0,40,13.0,0.0
25728,66.0,0,40,12.0,0.0
25729,66.0,48,40,1.0,0.0
25730,70.0,48,40,0.0,0.0
25731,82.0,0,40,0.0,0.0
25732,58.0,0,40,2.0,0.0
25733,70.0,0,40,2.0,0.0
25734,70.0,0,40,12.0,0.0
25735,62.0,0,40,14.0,0.0
25736,66.0,0,40,13.0,0.0
25737,70.0,0,40,1.0,0.0
25738,58.0,0,40,1.0,0.0
25739,82.0,0,40,11.0,0.0
25740,66.0,48,40,1.0,0.0
25741,64.0,0,40,13.0,0.0
25742,66.0,0,40,2.0,0.0
25743,78.0,0,40,11.0,0.0
25744,66.0,0,40,12.0,0.0
25745,61.0,0,40,14.0,0.0
25746,78.0,0,40,0.0,0.0
25747,71.0,0,150,12.0,0.0
25748,71.0,0,150,2.0,0.0
25749,59.0,0,150,2.0,0.0
25750,59.0,48,40,14.0,0.0
25751,83.0,0,150,11.0,0.0
25752,59.0,0,150,1.0,0.0
25753,71.0,32,150,1.0,0.0
25754,83.0,0,150,0.0,0.0
25755,71.0,0,150,0.0,0.0
25756,62.0,0,40,13.0,0.0
25757,58.0,48,40,14.0,0.0
25758,61.0,0,40,13.0,0.0
25759,59.0,16,40,14.0,0.0
25760,62.0,0,40,13.0,0.0
25761,54.0,48,40,14.0,0.0
25762,54.0,0,40,13.0,0.0
25763,62.0,48,40,13.0,0.0
25764,59.0,0,40,14.0,0.0
25765,78.0,48,40,11.0,0.0
25766,66.0,0,40,12.0,0.0
25767,61.0,0,40,14.0,0.0
25768,66.0,0,40,2.0,0.0
25769,66.0,0,40,1.0,0.0
25770,64.0,0,40,13.0,0.0
25771,78.0,0,40,0.0,0.0
25772,70.0,0,40,12.0,0.0
25773,62.0,0,40,14.0,0.0
25774,58.0,0,40,1.0,0.0
25775,70.0,0,40,1.0,0.0
25776,70.0,0,40,0.0,0.0
25777,66.0,0,40,13.0,0.0
25778,58.0,0,40,2.0,0.0
25779,82.0,0,40,11.0,0.0
25780,70.0,46,40,2.0,0.0
25781,82.0,0,40,0.0,0.0
25782,64.0,2,40,13.0,0.0
25783,78.0,0,40,11.0,0.0
25784,61.0,0,40,14.0,0.0
25785,66.0,0,40,2.0,0.0
25786,78.0,46,40,0.0,0.0
25787,66.0,0,40,12.0,0.0
25788,66.0,0,40,1.0,0.0
25789,62.0,0,40,13.0,0.0
25790,83.0,0,40,11.0,0.0
25791,71.0,0,40,1.0,0.0
25792,59.0,0,40,2.0,0.0
25793,59.0,46,40,14.0,0.0
25794,83.0,0,40,0.0,0.0
25795,71.0,2,40,12.0,0.0
25796,71.0,0,40,0.0,0.0
25797,59.0,0,40,1.0,0.0
25798,71.0,0,40,2.0,0.0
25799,55.0,0,40,13.0,0.0
25800,79.0,0,40,12.0,0.0
25801,67.0,0,40,1.0,0.0
25802,91.0,0,40,11.0,0.0
25803,79.0,48,40,0.0,0.0
25804,67.0,0,40,2.0,0.0
25805,79.0,0,40,1.0,0.0
25806,79.0,0,40,2.0,0.0
25807,91.0,0,40,0.0,0.0
25808,55.0,2,40,14.0,0.0
25809,89.0,0,40,11.0,0.0
25810,86.0,0,40,12.0,0.0
25811,86.0,0,40,0.0,0.0
25812,77.0,0,40,1.0,0.0
25813,74.0,48,40,1.0,0.0
25814,89.0,0,40,0.0,0.0
25815,74.0,0,40,2.0,0.0
25816,77.0,0,40,2.0,0.0
25817,79.0,0,40,2.0,0.0
25818,79.0,0,40,1.0,0.0
25819,91.0,0,40,0.0,0.0
25820,79.0,0,40,0.0,0.0
25821,91.0,0,40,11.0,0.0
25822,67.0,0,40,1.0,0.0
25823,79.0,0,40,12.0,0.0
25824,67.0,96,40,2.0,0.0
25825,89.0,0,150,0.0,0.0
25826,89.0,0,150,11.0,0.0
25827,77.0,0,150,1.0,0.0
25828,74.0,32,150,1.0,0.0
25829,86.0,0,150,12.0,0.0
25830,86.0,0,150,0.0,0.0
25831,77.0,0,150,2.0,0.0
25832,74.0,0,150,2.0,0.0
25833,43.0,0,40,2.0,0.0
25834,43.0,0,40,14.0,0.0
25835,55.0,0,40,4.0,0.0
25836,67.0,0,40,4.0,0.0
25837,43.0,0,40,3.0,0.0
25838,55.0,48,40,13.0,0.0
25839,31.0,0,40,3.0,0.0
25840,33.0,0,40,3.0,0.0
25841,69.0,0,40,4.0,0.0
25842,45.0,0,40,3.0,0.0
25843,45.0,0,40,14.0,0.0
25844,57.0,0,40,4.0,0.0
25845,57.0,0,40,13.0,0.0
25846,45.0,16,40,2.0,0.0
25847,43.0,0,40,2.0,0.0
25848,55.0,0,40,13.0,0.0
25849,31.0,0,40,3.0,0.0
25850,43.0,0,40,3.0,0.0
25851,43.0,96,40,14.0,0.0
25852,55.0,0,40,4.0,0.0
25853,67.0,0,40,4.0,0.0
25854,71.0,32,150,4.0,0.0
25855,59.0,0,150,4.0,0.0
25856,47.0,0,150,2.0,0.0
25857,59.0,0,150,13.0,0.0
25858,35.0,0,150,3.0,0.0
25859,47.0,0,150,14.0,0.0
25860,47.0,0,150,3.0,0.0
25861,67.0,0,40,2.0,0.0
25862,91.0,0,40,0.0,0.0
25863,67.0,0,40,1.0,0.0
25864,79.0,48,40,1.0,0.0
25865,91.0,0,40,11.0,0.0
25866,79.0,0,40,12.0,0.0
25867,79.0,0,40,0.0,0.0
25868,79.0,0,40,2.0,0.0
25869,86.0,16,40,0.0,0.0
25870,77.0,0,40,2.0,0.0
25871,74.0,0,40,2.0,0.0
25872,86.0,0,40,12.0,0.0
25873,89.0,0,40,11.0,0.0
25874,89.0,0,40,0.0,0.0
25875,74.0,0,40,1.0,0.0
25876,77.0,0,40,1.0,0.0
25877,79.0,0,40,0.0,0.0
25878,79.0,0,40,2.0,0.0
25879,67.0,96,40,2.0,0.0
25880,67.0,0,40,1.0,0.0
25881,79.0,0,40,12.0,0.0
25882,79.0,0,40,1.0,0.0
25883,91.0,0,40,11.0,0.0
25884,91.0,0,40,0.0,0.0
25885,72.0,0,150,1.0,0.0
25886,88.0,32,150,11.0,0.0
25887,84.0,0,150,0.0,0.0
25888,88.0,0,150,0.0,0.0
25889,76.0,0,150,1.0,0.0
25890,84.0,0,150,12.0,0.0
25891,76.0,0,150,2.0,0.0
25892,72.0,0,150,2.0,0.0
25893,43.0,0,40,14.0,0.0
25894,55.0,0,40,4.0,0.0
25895,67.0,0,40,4.0,0.0
25896,43.0,0,40,2.0,0.0
25897,31.0,0,40,3.0,0.0
25898,55.0,48,40,13.0,0.0
25899,43.0,0,40,3.0,0.0
25900,47.0,0,40,14.0,0.0
25901,71.0,0,40,4.0,0.0
25902,59.0,16,40,4.0,0.0
25903,35.0,0,40,3.0,0.0
25904,47.0,0,40,2.0,0.0
25905,59.0,0,40,13.0,0.0
25906,47.0,0,40,3.0,0.0
25907,55.0,0,40,13.0,0.0
25908,43.0,0,40,2.0,0.0
25909,43.0,0,40,14.0,0.0
25910,67.0,0,40,4.0,0.0
25911,55.0,0,40,4.0,0.0
25912,43.0,0,40,3.0,0.0
25913,31.0,94,40,3.0,0.0
25914,60.0,0,90,13.0,0.0
25915,48.0,0,90,3.0,0.0
25916,36.0,0,90,3.0,0.0
25917,48.0,0,90,14.0,0.0
25918,60.0,2,90,4.0,0.0
25919,48.0,0,90,2.0,0.0
25920,72.0,0,90,4.0,0.0
25921,84.0,48,40,11.0,0.0
25922,72.0,0,40,12.0,0.0
25923,79.0,0,40,12.0,0.0
25924,82.0,48,40,11.0,0.0
25925,48.0,0,40,14.0,0.0
25926,60.0,48,40,13.0,0.0
25927,72.0,0,40,12.0,0.0
25928,84.0,0,40,11.0,0.0
25929,62.0,46,40,13.0,0.0
25930,82.0,2,90,11.0,0.0
25931,79.0,0,90,12.0,0.0
25932,50.0,0,40,14.0,0.0
25933,48.0,94,40,14.0,0.0
25934,60.0,0,40,13.0,0.0
25935,52.0,0,90,14.0,0.0
25936,64.0,2,90,13.0,0.0
25937,72.0,0,40,12.0,0.0
25938,84.0,48,40,11.0,0.0
25939,79.0,0,40,12.0,0.0
25940,82.0,48,40,11.0,0.0
25941,48.0,0,40,14.0,0.0
25942,72.0,0,40,12.0,0.0
25943,84.0,48,40,11.0,0.0
25944,60.0,0,40,13.0,0.0
25945,77.0,0,90,12.0,0.0
25946,52.0,0,40,14.0,0.0
25947,64.0,46,40,13.0,0.0
25948,81.0,2,90,11.0,0.0
25949,60.0,0,40,13.0,0.0
25950,48.0,94,40,14.0,0.0
25951,65.0,2,90,13.0,0.0
25952,53.0,0,90,14.0,0.0
25953,65.0,0,40,1.0,0.0
25954,89.0,46,40,0.0,0.0
25955,77.0,0,40,12.0,0.0
25956,77.0,0,40,0.0,0.0
25957,89.0,0,40,11.0,0.0
25958,77.0,0,40,1.0,0.0
25959,84.0,0,40,12.0,0.0
25960,84.0,0,40,0.0,0.0
25961,87.0,0,40,11.0,0.0
25962,72.0,0,40,1.0,0.0
25963,75.0,50,40,1.0,0.0
25964,87.0,0,40,0.0,0.0
25965,65.0,0,40,13.0,0.0
25966,53.0,46,40,14.0,0.0
25967,65.0,0,40,2.0,0.0
25968,57.0,48,40,14.0,0.0
25969,69.0,0,40,13.0,0.0
25970,69.0,0,40,2.0,0.0
25971,89.0,46,40,11.0,0.0
25972,77.0,0,40,12.0,0.0
25973,77.0,0,40,0.0,0.0
25974,77.0,0,40,1.0,0.0
25975,65.0,0,40,1.0,0.0
25976,54.0,2,40,9.0,0.0
25977,89.0,0,40,0.0,0.0
25978,86.0,0,40,0.0,0.0
25979,82.0,0,40,0.0,0.0
25980,54.0,50,40,9.0,0.0
25981,82.0,0,40,12.0,0.0
25982,70.0,0,40,1.0,0.0
25983,74.0,0,40,1.0,0.0
25984,86.0,0,40,11.0,0.0
25985,65.0,0,40,13.0,0.0
25986,53.0,0,40,14.0,0.0
25987,65.0,46,40,2.0,0.0
25988,70.0,0,40,13.0,0.0
25989,70.0,0,40,2.0,0.0
25990,58.0,34,40,14.0,0.0
25991,65.0,0,40,13.0,0.0
25992,77.0,0,40,0.0,0.0
25993,89.0,0,40,0.0,0.0
25994,89.0,0,40,11.0,0.0
25995,54.0,2,40,9.0,0.0
25996,77.0,0,40,1.0,0.0
25997,53.0,32,40,14.0,0.0
25998,65.0,0,40,1.0,0.0
25999,38.0,14,30,9.0,0.0
26000,77.0,0,40,12.0,0.0
26001,65.0,0,40,2.0,0.0
26002,69.0,0,40,2.0,0.0
26003,72.0,48,40,2.0,0.0
26004,84.0,0,40,12.0,0.0
26005,54.0,0,40,9.0,0.0
26006,87.0,0,40,0.0,0.0
26007,84.0,0,40,0.0,0.0
26008,60.0,0,40,13.0,0.0
26009,75.0,0,40,1.0,0.0
26010,72.0,0,40,1.0,0.0
26011,87.0,0,40,11.0,0.0
26012,38.0,14,30,9.0,0.0
26013,57.0,0,40,14.0,0.0
26014,65.0,32,40,2.0,0.0
26015,77.0,0,40,0.0,0.0
26016,89.0,0,40,0.0,0.0
26017,65.0,0,40,13.0,0.0
26018,89.0,0,40,11.0,0.0
26019,77.0,0,40,1.0,0.0
26020,53.0,0,40,14.0,0.0
26021,54.0,2,40,9.0,0.0
26022,65.0,0,40,1.0,0.0
26023,77.0,0,40,12.0,0.0
26024,70.0,0,40,2.0,0.0
26025,74.0,0,40,2.0,0.0
26026,54.0,0,40,9.0,0.0
26027,86.0,0,40,11.0,0.0
26028,38.0,14,30,9.0,0.0
26029,86.0,0,40,0.0,0.0
26030,82.0,0,40,0.0,0.0
26031,46.0,0,15,8.0,0.0
26032,82.0,0,40,12.0,0.0
26033,70.0,0,40,1.0,0.0
26034,62.0,0,40,13.0,0.0
26035,58.0,34,40,14.0,0.0
26036,74.0,0,40,1.0,0.0
26037,79.0,0,40,0.0,0.0
26038,91.0,0,40,0.0,0.0
26039,91.0,0,40,11.0,0.0
26040,38.0,16,30,9.0,0.0
26041,79.0,0,40,1.0,0.0
26042,55.0,46,40,14.0,0.0
26043,67.0,0,40,13.0,0.0
26044,67.0,0,40,2.0,0.0
26045,67.0,0,40,1.0,0.0
26046,79.0,0,40,12.0,0.0
26047,62.0,0,40,13.0,0.0
26048,54.0,0,40,9.0,0.0
26049,89.0,0,40,0.0,0.0
26050,86.0,0,40,0.0,0.0
26051,74.0,0,40,2.0,0.0
26052,89.0,0,40,11.0,0.0
26053,59.0,0,40,14.0,0.0
26054,86.0,34,40,12.0,0.0
26055,77.0,0,40,1.0,0.0
26056,71.0,0,40,2.0,0.0
26057,74.0,0,40,1.0,0.0
26058,67.0,0,40,1.0,0.0
26059,79.0,0,40,12.0,0.0
26060,91.0,32,40,11.0,0.0
26061,46.0,0,40,8.0,0.0
26062,55.0,0,40,14.0,0.0
26063,38.0,14,30,9.0,0.0
26064,91.0,0,40,0.0,0.0
26065,67.0,0,40,13.0,0.0
26066,79.0,0,40,0.0,0.0
26067,67.0,0,40,2.0,0.0
26068,54.0,2,40,9.0,0.0
26069,79.0,0,40,1.0,0.0
26070,63.0,0,40,13.0,0.0
26071,60.0,0,40,14.0,0.0
26072,46.0,46,40,8.0,0.0
26073,87.0,0,40,11.0,0.0
26074,75.0,0,40,1.0,0.0
26075,38.0,14,30,9.0,0.0
26076,72.0,0,40,2.0,0.0
26077,87.0,0,40,0.0,0.0
26078,72.0,0,40,1.0,0.0
26079,84.0,2,40,12.0,0.0
26080,84.0,0,40,0.0,0.0
26081,75.0,0,40,2.0,0.0
26082,94.0,32,40,0.0,0.0
26083,70.0,0,40,13.0,0.0
26084,54.0,2,40,9.0,0.0
26085,58.0,0,40,14.0,0.0
26086,70.0,0,40,1.0,0.0
26087,94.0,0,40,11.0,0.0
26088,70.0,0,40,2.0,0.0
26089,82.0,0,40,0.0,0.0
26090,82.0,0,40,1.0,0.0
26091,82.0,0,40,12.0,0.0
26092,62.0,0,40,14.0,0.0
26093,89.0,0,40,12.0,0.0
26094,77.0,0,40,1.0,0.0
26095,92.0,0,40,11.0,0.0
26096,80.0,0,40,1.0,0.0
26097,74.0,2,40,2.0,0.0
26098,77.0,0,40,2.0,0.0
26099,89.0,0,40,0.0,0.0
26100,38.0,14,30,9.0,0.0
26101,46.0,32,40,8.0,0.0
26102,54.0,0,40,9.0,0.0
26103,65.0,0,40,13.0,0.0
26104,92.0,0,40,0.0,0.0
26105,70.0,46,40,13.0,0.0
26106,38.0,16,30,9.0,0.0
26107,70.0,0,40,1.0,0.0
26108,82.0,0,40,1.0,0.0
26109,94.0,0,40,11.0,0.0
26110,82.0,0,40,0.0,0.0
26111,58.0,0,40,14.0,0.0
26112,82.0,0,40,12.0,0.0
26113,70.0,0,40,2.0,0.0
26114,94.0,0,40,0.0,0.0
26115,46.0,46,40,8.0,0.0
26116,75.0,0,40,2.0,0.0
26117,87.0,0,40,0.0,0.0
26118,91.0,0,40,0.0,0.0
26119,87.0,0,40,12.0,0.0
26120,79.0,0,40,2.0,0.0
26121,91.0,0,40,11.0,0.0
26122,75.0,0,40,1.0,0.0
26123,63.0,2,40,14.0,0.0
26124,79.0,0,40,1.0,0.0
26125,67.0,0,40,13.0,0.0
26126,54.0,2,40,9.0,0.0
26127,70.0,0,40,13.0,0.0
26128,46.0,0,40,14.0,0.0
26129,70.0,32,40,12.0,0.0
26130,46.0,0,40,8.0,0.0
26131,82.0,0,40,11.0,0.0
26132,34.0,0,40,15.0,0.0
26133,50.0,0,40,14.0,0.0
26134,80.0,0,40,11.0,0.0
26135,54.0,2,40,9.0,0.0
26136,38.0,32,40,15.0,0.0
26137,58.0,0,40,13.0,0.0
26138,77.0,0,40,12.0,0.0
26139,38.0,14,30,9.0,0.0
26140,70.0,46,40,12.0,0.0
26141,46.0,0,40,8.0,0.0
26142,34.0,0,40,15.0,0.0
26143,70.0,0,40,13.0,0.0
26144,82.0,0,40,11.0,0.0
26145,46.0,0,40,14.0,0.0
26146,38.0,16,30,9.0,0.0
26147,54.0,2,40,9.0,0.0
26148,78.0,0,40,11.0,0.0
26149,58.0,0,40,13.0,0.0
26150,51.0,0,40,14.0,0.0
26151,46.0,32,40,8.0,0.0
26152,75.0,0,40,12.0,0.0
26153,39.0,0,40,15.0,0.0
26154,70.0,0,40,13.0,0.0
26155,70.0,0,40,12.0,0.0
26156,34.0,32,40,15.0,0.0
26157,54.0,2,40,9.0,0.0
26158,82.0,0,40,11.0,0.0
26159,46.0,0,40,14.0,0.0
26160,38.0,14,30,9.0,0.0
26161,53.0,0,40,14.0,0.0
26162,58.0,0,40,13.0,0.0
26163,41.0,46,40,15.0,0.0
26164,74.0,0,40,12.0,0.0
26165,46.0,0,40,8.0,0.0
26166,38.0,16,30,9.0,0.0
26167,77.0,0,40,11.0,0.0
26168,70.0,0,40,12.0,0.0
26169,70.0,0,40,13.0,0.0
26170,54.0,2,40,9.0,0.0
26171,46.0,0,40,14.0,0.0
26172,82.0,32,40,11.0,0.0
26173,46.0,0,40,8.0,0.0
26174,34.0,0,40,15.0,0.0
26175,54.0,2,40,9.0,0.0
26176,58.0,0,40,13.0,0.0
26177,54.0,0,40,14.0,0.0
26178,42.0,0,40,15.0,0.0
26179,75.0,32,40,12.0,0.0
26180,38.0,14,30,9.0,0.0
26181,75.0,0,40,11.0,0.0
26182,34.0,0,40,15.0,0.0
26183,38.0,16,30,9.0,0.0
26184,70.0,0,40,13.0,0.0
26185,46.0,0,40,14.0,0.0
26186,70.0,0,40,12.0,0.0
26187,82.0,0,40,11.0,0.0
26188,58.0,0,40,13.0,0.0
26189,74.0,0,40,12.0,0.0
26190,41.0,32,40,15.0,0.0
26191,54.0,2,40,9.0,0.0
26192,77.0,0,40,11.0,0.0
26193,53.0,0,40,14.0,0.0
26194,46.0,46,15,8.0,0.0
26195,70.0,0,40,13.0,0.0
26196,38.0,14,30,9.0,0.0
26197,54.0,2,40,9.0,0.0
26198,46.0,0,40,14.0,0.0
26199,34.0,32,40,15.0,0.0
26200,70.0,0,40,12.0,0.0
26201,82.0,0,40,11.0,0.0
26202,75.0,0,40,12.0,0.0
26203,58.0,0,40,13.0,0.0
26204,38.0,16,30,9.0,0.0
26205,51.0,0,40,14.0,0.0
26206,78.0,0,40,11.0,0.0
26207,39.0,0,40,15.0,0.0
26208,70.0,0,40,12.0,0.0
26209,70.0,0,40,13.0,0.0
26210,82.0,32,40,11.0,0.0
26211,54.0,2,40,9.0,0.0
26212,46.0,46,15,8.0,0.0
26213,34.0,0,40,15.0,0.0
26214,46.0,0,40,14.0,0.0
26215,75.0,32,40,12.0,0.0
26216,48.0,0,40,14.0,0.0
26217,36.0,0,40,15.0,0.0
26218,58.0,0,40,13.0,0.0
26219,38.0,16,30,9.0,0.0
26220,81.0,0,40,11.0,0.0
26221,38.0,14,30,9.0,0.0
26222,54.0,2,40,9.0,0.0
26223,34.0,24,40,15.0,0.0
26224,46.0,0,40,8.0,0.0
26225,46.0,0,40,14.0,0.0
26226,69.0,0,40,13.0,0.0
26227,82.0,0,15,11.0,0.0
26228,70.0,0,15,12.0,0.0
26229,74.0,0,40,12.0,0.0
26230,50.0,2,40,14.0,0.0
26231,70.0,0,40,13.0,0.0
26232,38.0,0,40,15.0,0.0
26233,46.0,22,15,8.0,0.0
26234,82.0,0,40,11.0,0.0
26235,34.0,0,40,15.0,0.0
26236,70.0,0,40,12.0,0.0
26237,46.0,0,40,14.0,0.0
26238,54.0,2,40,9.0,0.0
26239,38.0,14,30,9.0,0.0
26240,80.0,0,40,11.0,0.0
26241,38.0,0,40,15.0,0.0
26242,50.0,0,40,14.0,0.0
26243,58.0,0,40,13.0,0.0
26244,46.0,32,15,8.0,0.0
26245,77.0,32,40,12.0,0.0
26246,54.0,2,40,9.0,0.0
26247,46.0,0,40,8.0,0.0
26248,82.0,0,40,11.0,0.0
26249,46.0,0,40,14.0,0.0
26250,34.0,0,40,15.0,0.0
26251,70.0,0,40,12.0,0.0
26252,38.0,16,30,9.0,0.0
26253,70.0,24,40,13.0,0.0
26254,58.0,0,40,13.0,0.0
26255,54.0,2,40,9.0,0.0
26256,75.0,32,40,12.0,0.0
26257,78.0,0,40,11.0,0.0
26258,39.0,0,40,15.0,0.0
26259,51.0,0,40,14.0,0.0
26260,46.0,22,15,8.0,0.0
26261,70.0,0,40,13.0,0.0
26262,46.0,0,15,8.0,0.0
26263,46.0,0,40,14.0,0.0
26264,38.0,14,30,9.0,0.0
26265,54.0,2,40,9.0,0.0
26266,82.0,0,40,11.0,0.0
26267,34.0,32,40,15.0,0.0
26268,70.0,0,40,12.0,0.0
26269,58.0,0,40,13.0,0.0
26270,74.0,0,40,12.0,0.0
26271,46.0,0,15,8.0,0.0
26272,77.0,46,40,11.0,0.0
26273,53.0,0,40,14.0,0.0
26274,41.0,0,40,15.0,0.0
26275,38.0,16,30,9.0,0.0
26276,54.0,2,40,9.0,0.0
26277,82.0,0,40,11.0,0.0
26278,34.0,24,40,15.0,0.0
26279,70.0,0,40,12.0,0.0
26280,70.0,0,40,13.0,0.0
26281,46.0,0,40,14.0,0.0
26282,46.0,0,40,8.0,0.0
26283,75.0,0,40,12.0,0.0
26284,54.0,32,40,14.0,0.0
26285,54.0,2,40,9.0,0.0
26286,38.0,14,30,9.0,0.0
26287,75.0,0,40,11.0,0.0
26288,46.0,8,20,8.0,0.0
26289,42.0,0,40,15.0,0.0
26290,58.0,0,40,13.0,0.0
26291,70.0,46,40,13.0,0.0
26292,38.0,16,30,9.0,0.0
26293,34.0,0,40,15.0,0.0
26294,70.0,0,40,12.0,0.0
26295,46.0,0,15,8.0,0.0
26296,46.0,0,40,14.0,0.0
26297,82.0,0,40,11.0,0.0
26298,53.0,0,40,14.0,0.0
26299,58.0,16,40,13.0,0.0
26300,74.0,0,40,12.0,0.0
26301,54.0,2,40,9.0,0.0
26302,41.0,0,40,15.0,0.0
26303,77.0,0,40,11.0,0.0
26304,54.0,2,40,9.0,0.0
26305,82.0,0,40,11.0,0.0
26306,70.0,0,40,12.0,0.0
26307,46.0,0,15,8.0,0.0
26308,34.0,0,40,15.0,0.0
26309,38.0,24,15,9.0,0.0
26310,46.0,0,40,14.0,0.0
26311,70.0,0,40,13.0,0.0
26312,38.0,6,15,9.0,0.0
26313,58.0,0,40,13.0,0.0
26314,75.0,0,40,12.0,0.0
26315,38.0,8,15,9.0,0.0
26316,51.0,0,40,14.0,0.0
26317,39.0,0,40,15.0,0.0
26318,78.0,16,40,11.0,0.0
26319,38.0,8,15,9.0,0.0
26320,46.0,16,15,8.0,0.0
26321,46.0,0,15,8.0,0.0
26322,46.0,0,40,14.0,0.0
26323,34.0,0,40,15.0,0.0
26324,54.0,18,20,9.0,0.0
26325,82.0,0,40,11.0,0.0
26326,70.0,0,40,13.0,0.0
26327,70.0,0,40,12.0,0.0
26328,38.0,6,15,9.0,0.0
26329,38.0,6,15,9.0,0.0
26330,54.0,2,20,9.0,0.0
26331,54.0,18,20,9.0,0.0
26332,36.0,16,40,15.0,0.0
26333,81.0,0,40,11.0,0.0
26334,58.0,0,40,13.0,0.0
26335,46.0,16,15,8.0,0.0
26336,38.0,6,15,9.0,0.0
26337,48.0,0,40,14.0,0.0
26338,75.0,0,40,12.0,0.0
26339,54.0,2,20,9.0,0.0
26340,38.0,6,15,9.0,0.0
26341,38.0,6,15,9.0,0.0
26342,46.0,0,15,8.0,0.0
26343,82.0,0,40,11.0,0.0
26344,70.0,0,40,12.0,0.0
26345,34.0,0,40,15.0,0.0
26346,54.0,18,20,9.0,0.0
26347,46.0,0,40,14.0,0.0
26348,38.0,6,15,9.0,0.0
26349,54.0,2,20,9.0,0.0
26350,58.0,0,40,14.0,0.0
26351,70.0,0,15,13.0,0.0
26352,38.0,14,30,9.0,0.0
26353,74.0,0,40,12.0,0.0
26354,38.0,0,40,15.0,0.0
26355,54.0,2,90,9.0,0.0
26356,46.0,0,180,8.0,0.0
26357,82.0,0,40,11.0,0.0
26358,49.0,0,330,9.0,0.0
26359,74.0,32,40,11.0,0.0
26360,75.0,0,40,11.0,0.0
26361,46.0,0,30,7.0,0.0
26362,66.0,0,40,13.0,0.0
26363,46.0,0,30,6.0,0.0
26364,34.0,0,30,3.0,0.0
26365,34.0,16,30,15.0,0.0
26366,46.0,0,30,14.0,0.0
26367,46.0,0,30,3.0,0.0
26368,70.0,48,40,12.0,0.0
26369,58.0,0,30,6.0,0.0
26370,46.0,0,30,2.0,0.0
26371,74.0,32,40,11.0,0.0
26372,62.0,0,40,13.0,0.0
26373,74.0,0,40,12.0,0.0
26374,60.0,0,30,6.0,0.0
26375,36.0,0,30,3.0,0.0
26376,36.0,0,30,15.0,0.0
26377,48.0,14,30,6.0,0.0
26378,48.0,0,30,14.0,0.0
26379,48.0,0,30,3.0,0.0
26380,69.0,50,40,12.0,0.0
26381,66.0,0,40,13.0,0.0
26382,48.0,0,30,7.0,0.0
26383,48.0,0,30,2.0,0.0
26384,75.0,0,40,11.0,0.0
26385,62.0,32,40,11.0,0.0
26386,54.0,0,40,13.0,0.0
26387,46.0,0,30,3.0,0.0
26388,46.0,0,30,6.0,0.0
26389,46.0,0,30,2.0,0.0
26390,34.0,0,30,3.0,0.0
26391,34.0,0,30,15.0,0.0
26392,46.0,16,30,7.0,0.0
26393,58.0,0,30,6.0,0.0
26394,63.0,48,40,11.0,0.0
26395,46.0,0,30,14.0,0.0
26396,58.0,0,40,12.0,0.0
26397,62.0,0,40,11.0,0.0
26398,62.0,0,40,12.0,0.0
26399,62.0,46,40,13.0,0.0
26400,36.0,0,330,3.0,0.0
26401,60.0,0,390,6.0,0.0
26402,63.0,50,40,11.0,0.0
26403,54.0,0,40,13.0,0.0
26404,48.0,0,330,14.0,0.0
26405,36.0,46,330,15.0,0.0
26406,48.0,0,330,2.0,0.0
26407,57.0,0,40,12.0,0.0
26408,48.0,46,390,6.0,0.0
26409,48.0,0,390,7.0,0.0
26410,48.0,0,330,3.0,0.0
26411,78.0,48,40,11.0,0.0
26412,77.0,48,40,11.0,0.0
26413,75.0,0,40,11.0,0.0
26414,66.0,48,40,13.0,0.0
26415,73.0,48,40,11.0,0.0
26416,65.0,0,40,13.0,0.0
26417,63.0,0,40,13.0,0.0
26418,72.0,48,40,11.0,0.0
26419,61.0,0,40,13.0,0.0
26420,70.0,0,40,11.0,0.0
26421,69.0,0,40,11.0,0.0
26422,60.0,2,40,13.0,0.0
26423,68.0,0,40,11.0,0.0
26424,65.0,0,40,12.0,0.0
26425,59.0,50,40,13.0,0.0
26426,77.0,32,40,11.0,0.0
26427,50.0,0,30,3.0,0.0
26428,38.0,0,30,3.0,0.0
26429,50.0,16,30,7.0,0.0
26430,38.0,0,30,15.0,0.0
26431,71.0,0,40,12.0,0.0
26432,50.0,0,30,2.0,0.0
26433,50.0,0,30,6.0,0.0
26434,62.0,0,30,6.0,0.0
26435,50.0,0,30,14.0,0.0
26436,78.0,0,40,11.0,0.0
26437,68.0,48,40,13.0,0.0
26438,77.0,32,40,12.0,0.0
26439,65.0,0,40,13.0,0.0
26440,77.0,0,40,11.0,0.0
26441,63.0,0,30,6.0,0.0
26442,51.0,0,30,3.0,0.0
26443,66.0,50,40,13.0,0.0
26444,39.0,0,30,15.0,0.0
26445,78.0,0,40,11.0,0.0
26446,51.0,0,30,7.0,0.0
26447,51.0,14,30,6.0,0.0
26448,70.0,0,40,12.0,0.0
26449,51.0,0,30,14.0,0.0
26450,51.0,0,30,2.0,0.0
26451,39.0,0,30,3.0,0.0
26452,65.0,32,40,11.0,0.0
26453,50.0,0,30,7.0,0.0
26454,66.0,48,40,11.0,0.0
26455,38.0,0,30,3.0,0.0
26456,38.0,0,30,15.0,0.0
26457,50.0,16,30,14.0,0.0
26458,62.0,0,30,6.0,0.0
26459,54.0,0,40,13.0,0.0
26460,50.0,0,30,6.0,0.0
26461,50.0,0,30,3.0,0.0
26462,50.0,0,30,2.0,0.0
26463,59.0,0,40,12.0,0.0
26464,62.0,0,40,13.0,0.0
26465,65.0,0,40,12.0,0.0
26466,65.0,46,40,11.0,0.0
26467,51.0,24,390,7.0,0.0
26468,39.0,0,330,3.0,0.0
26469,51.0,0,390,6.0,0.0
26470,39.0,0,330,15.0,0.0
26471,51.0,0,330,2.0,0.0
26472,51.0,0,330,14.0,0.0
26473,66.0,0,40,11.0,0.0
26474,51.0,0,330,3.0,0.0
26475,54.0,0,40,13.0,0.0
26476,58.0,48,40,12.0,0.0
26477,63.0,0,390,6.0,0.0
26478,82.0,48,40,11.0,0.0
26479,80.0,50,40,11.0,0.0
26480,78.0,0,40,11.0,0.0
26481,70.0,48,40,13.0,0.0
26482,77.0,0,40,11.0,0.0
26483,68.0,48,40,13.0,0.0
26484,75.0,48,40,11.0,0.0
26485,66.0,0,40,13.0,0.0
26486,64.0,46,40,13.0,0.0
26487,73.0,0,40,11.0,0.0
26488,72.0,0,40,11.0,0.0
26489,63.0,2,40,13.0,0.0
26490,61.0,2,40,13.0,0.0
26491,70.0,46,40,11.0,0.0
26492,46.0,22,15,8.0,0.0
26493,46.0,48,40,8.0,0.0
26494,60.0,2,40,13.0,0.0
26495,69.0,0,40,11.0,0.0
26496,51.0,0,90,2.0,0.0
26497,46.0,48,40,8.0,0.0
26498,39.0,0,90,15.0,0.0
26499,51.0,0,90,14.0,0.0
26500,51.0,0,90,3.0,0.0
26501,63.0,0,90,6.0,0.0
26502,39.0,0,90,3.0,0.0
26503,63.0,24,90,4.0,0.0
26504,51.0,0,90,6.0,0.0
26505,51.0,0,90,7.0,0.0
26506,63.0,0,90,5.0,0.0
26507,51.0,0,90,4.0,0.0
26508,57.0,0,90,12.0,0.0
26509,65.0,48,90,11.0,0.0
26510,57.0,0,90,13.0,0.0
26511,49.0,0,90,7.0,0.0
26512,49.0,0,90,2.0,0.0
26513,37.0,0,90,3.0,0.0
26514,49.0,0,90,4.0,0.0
26515,61.0,0,90,5.0,0.0
26516,49.0,0,90,6.0,0.0
26517,37.0,0,90,15.0,0.0
26518,49.0,0,90,3.0,0.0
26519,46.0,0,15,8.0,0.0
26520,49.0,0,90,14.0,0.0
26521,61.0,0,90,6.0,0.0
26522,61.0,0,90,4.0,0.0
26523,46.0,24,15,8.0,0.0
26524,46.0,0,15,8.0,0.0
26525,58.0,0,90,13.0,0.0
26526,58.0,48,90,12.0,0.0
26527,67.0,0,90,11.0,0.0
26528,53.0,0,90,6.0,0.0
26529,65.0,0,90,4.0,0.0
26530,53.0,0,90,7.0,0.0
26531,53.0,0,90,3.0,0.0
26532,41.0,0,90,3.0,0.0
26533,46.0,0,15,8.0,0.0
26534,41.0,0,90,15.0,0.0
26535,53.0,0,90,4.0,0.0
26536,53.0,0,90,2.0,0.0
26537,65.0,0,90,5.0,0.0
26538,65.0,24,90,6.0,0.0
26539,53.0,0,90,14.0,0.0
26540,60.0,0,90,12.0,0.0
26541,46.0,0,15,8.0,0.0
26542,60.0,0,90,13.0,0.0
26543,69.0,0,90,11.0,0.0
26544,49.0,0,90,14.0,0.0
26545,37.0,0,90,3.0,0.0
26546,46.0,0,15,8.0,0.0
26547,49.0,48,90,3.0,0.0
26548,49.0,0,90,7.0,0.0
26549,49.0,0,90,6.0,0.0
26550,49.0,0,90,2.0,0.0
26551,49.0,0,90,4.0,0.0
26552,61.0,0,90,4.0,0.0
26553,37.0,0,90,15.0,0.0
26554,61.0,0,90,5.0,0.0
26555,61.0,0,90,6.0,0.0
26556,46.0,48,20,8.0,0.0
26557,61.0,0,90,13.0,0.0
26558,61.0,0,90,12.0,0.0
26559,46.0,0,40,8.0,0.0
26560,70.0,0,90,11.0,0.0
26561,36.0,0,90,15.0,0.0
26562,48.0,24,90,6.0,0.0
26563,60.0,0,90,6.0,0.0
26564,36.0,0,90,3.0,0.0
26565,48.0,0,90,14.0,0.0
26566,60.0,0,90,5.0,0.0
26567,48.0,0,90,4.0,0.0
26568,48.0,0,90,7.0,0.0
26569,60.0,0,90,4.0,0.0
26570,48.0,0,90,2.0,0.0
26571,48.0,0,90,3.0,0.0
26572,46.0,48,15,8.0,0.0
26573,63.0,0,90,13.0,0.0
26574,72.0,48,90,11.0,0.0
26575,63.0,0,90,12.0,0.0
26576,46.0,0,90,6.0,0.0
26577,46.0,48,90,4.0,0.0
26578,58.0,0,90,4.0,0.0
26579,58.0,0,90,5.0,0.0
26580,46.0,0,90,14.0,0.0
26581,34.0,0,90,3.0,0.0
26582,46.0,0,15,8.0,0.0
26583,46.0,0,90,7.0,0.0
26584,46.0,0,90,2.0,0.0
26585,34.0,0,90,15.0,0.0
26586,46.0,0,90,3.0,0.0
26587,58.0,0,90,6.0,0.0
26588,46.0,24,15,8.0,0.0
26589,70.0,0,90,12.0,0.0
26590,65.0,0,90,13.0,0.0
26591,73.0,0,90,11.0,0.0
26592,48.0,0,90,2.0,0.0
26593,60.0,0,90,6.0,0.0
26594,48.0,0,90,6.0,0.0
26595,48.0,0,90,14.0,0.0
26596,36.0,0,90,15.0,0.0
26597,46.0,0,15,8.0,0.0
26598,48.0,0,90,4.0,0.0
26599,48.0,0,90,3.0,0.0
26600,60.0,0,90,5.0,0.0
26601,60.0,0,90,4.0,0.0
26602,36.0,0,90,3.0,0.0
26603,48.0,0,90,7.0,0.0
26604,65.0,0,40,13.0,0.0
26605,46.0,48,15,8.0,0.0
26606,75.0,0,40,11.0,0.0
26607,77.0,0,40,11.0,0.0
26608,69.0,0,40,12.0,0.0
26609,77.0,0,90,12.0,0.0
26610,37.0,0,90,15.0,0.0
26611,49.0,0,90,4.0,0.0
26612,61.0,0,90,4.0,0.0
26613,49.0,0,90,7.0,0.0
26614,61.0,2,90,6.0,0.0
26615,49.0,0,90,14.0,0.0
26616,37.0,0,90,3.0,0.0
26617,49.0,0,90,3.0,0.0
26618,61.0,0,90,5.0,0.0
26619,82.0,0,90,11.0,0.0
26620,49.0,0,90,2.0,0.0
26621,49.0,0,330,9.0,0.0
26622,49.0,0,90,6.0,0.0
26623,70.0,0,90,13.0,0.0
26624,46.0,24,15,8.0,0.0
26625,46.0,24,15,8.0,0.0
26626,46.0,46,15,8.0,0.0
26627,51.0,0,90,3.0,0.0
26628,39.0,0,90,15.0,0.0
26629,51.0,0,90,14.0,0.0
26630,39.0,24,90,3.0,0.0
26631,51.0,0,90,2.0,0.0
26632,63.0,0,90,6.0,0.0
26633,46.0,48,40,8.0,0.0
26634,51.0,0,90,6.0,0.0
26635,51.0,0,90,7.0,0.0
26636,75.0,0,90,2.0,0.0
26637,63.0,0,90,4.0,0.0
26638,51.0,0,90,4.0,0.0
26639,63.0,0,90,5.0,0.0
26640,77.0,0,90,11.0,0.0
26641,65.0,0,90,13.0,0.0
26642,69.0,0,90,12.0,0.0
26643,46.0,0,40,8.0,0.0
26644,49.0,0,90,14.0,0.0
26645,49.0,0,90,7.0,0.0
26646,49.0,0,90,3.0,0.0
26647,49.0,0,90,6.0,0.0
26648,49.0,0,90,2.0,0.0
26649,61.0,0,90,4.0,0.0
26650,37.0,0,90,3.0,0.0
26651,61.0,0,90,5.0,0.0
26652,61.0,0,90,6.0,0.0
26653,73.0,48,90,2.0,0.0
26654,49.0,0,90,4.0,0.0
26655,37.0,0,90,15.0,0.0
26656,46.0,24,20,8.0,0.0
26657,67.0,0,90,13.0,0.0
26658,46.0,48,15,8.0,0.0
26659,70.0,0,90,12.0,0.0
26660,77.0,0,90,11.0,0.0
26661,53.0,0,90,6.0,0.0
26662,41.0,24,90,15.0,0.0
26663,46.0,48,40,8.0,0.0
26664,65.0,0,90,6.0,0.0
26665,53.0,0,90,14.0,0.0
26666,53.0,0,90,7.0,0.0
26667,41.0,0,90,3.0,0.0
26668,53.0,0,90,3.0,0.0
26669,53.0,0,90,4.0,0.0
26670,65.0,0,90,4.0,0.0
26671,53.0,0,90,2.0,0.0
26672,65.0,0,90,5.0,0.0
26673,77.0,0,90,2.0,0.0
26674,72.0,48,90,12.0,0.0
26675,69.0,0,90,13.0,0.0
26676,77.0,0,90,11.0,0.0
26677,73.0,0,90,2.0,0.0
26678,49.0,48,90,4.0,0.0
26679,61.0,0,90,6.0,0.0
26680,49.0,0,90,3.0,0.0
26681,49.0,0,90,2.0,0.0
26682,49.0,0,90,7.0,0.0
26683,46.0,0,15,8.0,0.0
26684,61.0,0,90,4.0,0.0
26685,61.0,0,90,5.0,0.0
26686,49.0,0,90,14.0,0.0
26687,37.0,0,90,3.0,0.0
26688,49.0,0,90,6.0,0.0
26689,37.0,0,90,15.0,0.0
26690,49.0,32,150,9.0,0.0
26691,46.0,0,20,8.0,0.0
26692,70.0,0,90,13.0,0.0
26693,73.0,0,90,12.0,0.0
26694,77.0,0,90,11.0,0.0
26695,48.0,0,90,14.0,0.0
26696,60.0,0,90,4.0,0.0
26697,48.0,0,90,2.0,0.0
26698,46.0,0,15,8.0,0.0
26699,60.0,0,90,5.0,0.0
26700,48.0,0,90,3.0,0.0
26701,48.0,0,90,7.0,0.0
26702,36.0,0,90,15.0,0.0
26703,60.0,0,90,6.0,0.0
26704,72.0,0,90,2.0,0.0
26705,48.0,24,90,4.0,0.0
26706,48.0,0,90,6.0,0.0
26707,36.0,0,90,3.0,0.0
26708,72.0,0,90,13.0,0.0
26709,81.0,48,90,12.0,0.0
26710,46.0,16,15,8.0,0.0
26711,84.0,0,90,11.0,0.0
26712,46.0,0,90,6.0,0.0
26713,46.0,46,90,3.0,0.0
26714,58.0,0,90,4.0,0.0
26715,46.0,0,90,2.0,0.0
26716,49.0,30,150,9.0,0.0
26717,58.0,0,90,5.0,0.0
26718,34.0,0,90,15.0,0.0
26719,34.0,0,90,3.0,0.0
26720,58.0,0,90,6.0,0.0
26721,46.0,0,90,7.0,0.0
26722,46.0,0,90,4.0,0.0
26723,70.0,0,90,2.0,0.0
26724,46.0,24,20,8.0,0.0
26725,46.0,0,90,14.0,0.0
26726,46.0,0,20,8.0,0.0
26727,85.0,16,90,11.0,0.0
26728,82.0,0,90,12.0,0.0
26729,73.0,2,90,13.0,0.0
26730,72.0,0,90,2.0,0.0
26731,60.0,0,90,4.0,0.0
26732,48.0,0,90,3.0,0.0
26733,48.0,0,90,14.0,0.0
26734,48.0,0,90,4.0,0.0
26735,48.0,0,90,2.0,0.0
26736,36.0,0,90,3.0,0.0
26737,46.0,0,15,8.0,0.0
26738,36.0,0,90,15.0,0.0
26739,60.0,0,90,5.0,0.0
26740,48.0,0,90,6.0,0.0
26741,60.0,0,90,6.0,0.0
26742,48.0,0,90,7.0,0.0
26743,46.0,0,15,8.0,0.0
26744,89.0,2,40,11.0,0.0
26745,87.0,0,40,11.0,0.0
26746,77.0,94,40,12.0,0.0
26747,81.0,0,40,12.0,0.0
26748,49.0,0,90,14.0,0.0
26749,49.0,0,90,3.0,0.0
26750,49.0,0,90,2.0,0.0
26751,61.0,0,90,4.0,0.0
26752,94.0,2,90,11.0,0.0
26753,82.0,0,90,12.0,0.0
26754,49.0,0,90,6.0,0.0
26755,49.0,0,90,4.0,0.0
26756,89.0,0,90,12.0,0.0
26757,46.0,48,180,8.0,0.0
26758,73.0,0,90,2.0,0.0
26759,49.0,0,330,9.0,0.0
26760,37.0,0,90,3.0,0.0
26761,61.0,0,90,5.0,0.0
26762,61.0,0,90,6.0,0.0
26763,37.0,0,90,15.0,0.0
26764,49.0,0,90,7.0,0.0
26765,53.0,48,40,13.0,0.0
26766,55.0,46,40,13.0,0.0
26767,65.0,2,40,11.0,0.0
26768,65.0,0,40,2.0,0.0
26769,53.0,0,40,13.0,0.0
26770,64.0,46,40,2.0,0.0
26771,55.0,30,150,13.0,0.0
26772,64.0,0,40,11.0,0.0
26773,48.0,2,90,14.0,0.0
26774,67.0,48,40,11.0,0.0
26775,67.0,0,40,2.0,0.0
26776,52.0,0,90,14.0,0.0
26777,70.0,16,40,11.0,0.0
26778,70.0,0,40,2.0,0.0
26779,73.0,0,40,1.0,0.0
26780,73.0,34,40,2.0,0.0
26781,73.0,0,40,11.0,0.0
26782,53.0,2,90,14.0,0.0
26783,69.0,0,40,1.0,0.0
26784,69.0,16,30,2.0,0.0
26785,69.0,46,40,11.0,0.0
26786,72.0,0,40,1.0,0.0
26787,57.0,0,40,13.0,0.0
26788,72.0,48,40,11.0,0.0
26789,75.0,0,40,11.0,0.0
26790,75.0,46,40,1.0,0.0
26791,58.0,0,40,13.0,0.0
26792,57.0,32,40,13.0,0.0
26793,78.0,0,40,1.0,0.0
26794,78.0,2,40,0.0,0.0
26795,78.0,0,40,11.0,0.0
26796,77.0,16,30,1.0,0.0
26797,77.0,46,40,0.0,0.0
26798,77.0,0,40,11.0,0.0
26799,58.0,30,150,13.0,0.0
26800,49.0,2,90,14.0,0.0
26801,82.0,0,40,0.0,0.0
26802,82.0,48,40,11.0,0.0
26803,85.0,16,40,0.0,0.0
26804,85.0,0,40,11.0,0.0
26805,46.0,34,90,14.0,0.0
26806,89.0,0,40,11.0,0.0
26807,89.0,0,40,0.0,0.0
26808,79.0,0,90,1.0,0.0
26809,49.0,0,330,9.0,0.0
26810,38.0,62,30,9.0,0.0
26811,48.0,0,90,14.0,0.0
26812,79.0,2,90,12.0,0.0
26813,88.0,0,90,11.0,0.0
26814,88.0,0,90,0.0,0.0
26815,60.0,48,40,13.0,0.0
26816,58.0,32,40,13.0,0.0
26817,60.0,32,40,13.0,0.0
26818,48.0,16,30,14.0,0.0
26819,88.0,0,30,11.0,0.0
26820,38.0,0,30,9.0,0.0
26821,84.0,0,30,1.0,0.0
26822,84.0,0,30,12.0,0.0
26823,84.0,0,30,0.0,0.0
26824,88.0,0,30,0.0,0.0
26825,89.0,0,30,0.0,0.0
26826,77.0,16,30,0.0,0.0
26827,77.0,0,30,12.0,0.0
26828,89.0,0,30,11.0,0.0
26829,38.0,0,30,9.0,0.0
26830,53.0,0,30,14.0,0.0
26831,77.0,0,30,1.0,0.0
26832,56.0,48,40,13.0,0.0
26833,55.0,48,40,13.0,0.0
26834,53.0,32,40,13.0,0.0
26835,64.0,0,30,12.0,0.0
26836,38.0,0,30,9.0,0.0
26837,64.0,0,30,2.0,0.0
26838,55.0,34,40,13.0,0.0
26839,48.0,14,30,14.0,0.0
26840,72.0,0,30,11.0,0.0
26841,64.0,0,30,1.0,0.0
26842,72.0,0,30,1.0,0.0
26843,65.0,16,30,12.0,0.0
26844,38.0,0,30,9.0,0.0
26845,68.0,0,30,11.0,0.0
26846,65.0,0,30,1.0,0.0
26847,56.0,48,40,13.0,0.0
26848,53.0,0,30,14.0,0.0
26849,65.0,0,30,2.0,0.0
26850,68.0,0,30,1.0,0.0
26851,58.0,48,40,13.0,0.0
26852,56.0,32,40,13.0,0.0
26853,84.0,0,30,0.0,0.0
26854,88.0,0,30,11.0,0.0
26855,48.0,0,30,14.0,0.0
26856,84.0,0,30,12.0,0.0
26857,38.0,16,30,9.0,0.0
26858,60.0,32,40,13.0,0.0
26859,84.0,0,30,1.0,0.0
26860,88.0,0,30,0.0,0.0
26861,53.0,16,30,14.0,0.0
26862,38.0,0,30,9.0,0.0
26863,77.0,0,30,12.0,0.0
26864,77.0,0,30,0.0,0.0
26865,89.0,0,30,0.0,0.0
26866,89.0,0,30,11.0,0.0
26867,77.0,0,30,1.0,0.0
26868,56.0,48,40,13.0,0.0
26869,55.0,48,40,13.0,0.0
26870,53.0,32,40,13.0,0.0
26871,48.0,0,30,14.0,0.0
26872,64.0,0,30,1.0,0.0
26873,72.0,0,30,11.0,0.0
26874,64.0,0,30,2.0,0.0
26875,72.0,0,30,0.0,0.0
26876,64.0,14,30,12.0,0.0
26877,64.0,0,30,0.0,0.0
26878,55.0,34,40,13.0,0.0
26879,38.0,0,30,9.0,0.0
26880,72.0,18,90,1.0,0.0
26881,53.0,0,30,14.0,0.0
26882,65.0,2,90,0.0,0.0
26883,68.0,0,30,11.0,0.0
26884,68.0,0,30,0.0,0.0
26885,65.0,0,30,12.0,0.0
26886,38.0,14,30,9.0,0.0
26887,56.0,0,30,13.0,0.0
26888,68.0,0,30,2.0,0.0
26889,65.0,0,30,1.0,0.0
26890,68.0,0,30,1.0,0.0
26891,69.0,0,40,1.0,0.0
26892,69.0,32,40,5.0,0.0
26893,69.0,0,40,12.0,0.0
26894,57.0,0,40,4.0,0.0
26895,38.0,24,15,9.0,0.0
26896,38.0,6,15,9.0,0.0
26897,77.0,0,30,11.0,0.0
26898,65.0,0,30,4.0,0.0
26899,53.0,0,30,4.0,0.0
26900,49.0,0,30,3.0,0.0
26901,70.0,2,40,12.0,0.0
26902,58.0,0,40,4.0,0.0
26903,65.0,0,30,3.0,0.0
26904,61.0,0,30,3.0,0.0
26905,77.0,0,30,5.0,0.0
26906,65.0,2,30,6.0,0.0
26907,61.0,0,30,14.0,0.0
26908,38.0,0,30,9.0,0.0
26909,77.0,0,30,0.0,0.0
26910,65.0,0,30,13.0,0.0
26911,61.0,0,30,6.0,0.0
26912,77.0,0,30,2.0,0.0
26913,65.0,0,30,5.0,0.0
26914,70.0,12,30,5.0,0.0
26915,70.0,32,40,1.0,0.0
26916,65.0,0,30,2.0,0.0
26917,69.0,0,40,1.0,0.0
26918,57.0,32,40,4.0,0.0
26919,69.0,0,40,5.0,0.0
26920,69.0,2,40,12.0,0.0
26921,38.0,14,30,9.0,0.0
26922,60.0,0,30,6.0,0.0
26923,70.0,2,40,12.0,0.0
26924,64.0,0,30,2.0,0.0
26925,64.0,0,30,13.0,0.0
26926,38.0,0,30,9.0,0.0
26927,60.0,0,30,14.0,0.0
26928,79.0,0,30,0.0,0.0
26929,64.0,0,30,6.0,0.0
26930,48.0,0,30,3.0,0.0
26931,55.0,0,30,4.0,0.0
26932,70.0,16,40,1.0,0.0
26933,64.0,0,30,3.0,0.0
26934,60.0,0,30,3.0,0.0
26935,67.0,0,30,4.0,0.0
26936,70.0,12,30,5.0,0.0
26937,79.0,0,30,11.0,0.0
26938,58.0,0,40,4.0,0.0
26939,79.0,2,30,5.0,0.0
26940,67.0,0,30,5.0,0.0
26941,79.0,0,30,2.0,0.0
26942,69.0,0,40,5.0,0.0
26943,57.0,32,40,4.0,0.0
26944,69.0,2,40,12.0,0.0
26945,69.0,0,40,1.0,0.0
26946,38.0,24,15,9.0,0.0
26947,38.0,6,15,9.0,0.0
26948,77.0,0,30,0.0,0.0
26949,49.0,0,30,3.0,0.0
26950,53.0,0,30,3.0,0.0
26951,53.0,0,30,2.0,0.0
26952,49.0,2,30,14.0,0.0
26953,65.0,0,30,5.0,0.0
26954,70.0,12,30,5.0,0.0
26955,58.0,0,40,4.0,0.0
26956,38.0,0,30,9.0,0.0
26957,49.0,0,30,7.0,0.0
26958,49.0,0,30,6.0,0.0
26959,77.0,0,30,2.0,0.0
26960,37.0,0,30,3.0,0.0
26961,53.0,0,30,13.0,0.0
26962,70.0,2,40,12.0,0.0
26963,53.0,0,30,6.0,0.0
26964,65.0,0,30,4.0,0.0
26965,53.0,0,30,4.0,0.0
26966,70.0,32,40,1.0,0.0
26967,77.0,0,30,11.0,0.0
26968,77.0,0,30,5.0,0.0
26969,69.0,0,40,1.0,0.0
26970,69.0,0,40,5.0,0.0
26971,57.0,32,40,4.0,0.0
26972,69.0,2,40,12.0,0.0
26973,38.0,14,30,9.0,0.0
26974,52.0,0,150,6.0,0.0
26975,79.0,0,150,2.0,0.0
26976,70.0,0,150,1.0,0.0
26977,67.0,0,150,4.0,0.0
26978,55.0,0,150,4.0,0.0
26979,79.0,0,150,11.0,0.0
26980,52.0,0,150,2.0,0.0
26981,52.0,0,40,13.0,0.0
26982,70.0,0,120,5.0,0.0
26983,79.0,0,150,0.0,0.0
26984,48.0,0,150,7.0,0.0
26985,58.0,0,150,4.0,0.0
26986,67.0,14,120,5.0,0.0
26987,48.0,0,150,6.0,0.0
26988,70.0,2,150,12.0,0.0
26989,38.0,14,30,9.0,0.0
26990,52.0,50,40,3.0,0.0
26991,48.0,0,40,3.0,0.0
26992,79.0,32,150,5.0,0.0
26993,48.0,0,40,14.0,0.0
26994,36.0,0,40,14.0,0.0
26995,36.0,32,40,3.0,0.0
26996,48.0,0,40,13.0,0.0
26997,50.0,0,40,13.0,0.0
26998,38.0,0,40,3.0,0.0
26999,38.0,16,40,14.0,0.0
27000,60.0,0,40,5.0,0.0
27001,60.0,0,40,11.0,0.0
27002,60.0,48,40,1.0,0.0
27003,40.0,0,40,3.0,0.0
27004,60.0,0,40,4.0,0.0
27005,60.0,0,40,12.0,0.0
27006,52.0,0,40,13.0,0.0
27007,40.0,0,40,14.0,0.0
27008,62.0,0,40,11.0,0.0
27009,62.0,0,40,12.0,0.0
27010,41.0,0,40,14.0,0.0
27011,41.0,0,40,3.0,0.0
27012,62.0,0,40,5.0,0.0
27013,62.0,0,40,4.0,0.0
27014,62.0,0,40,1.0,0.0
27015,53.0,0,40,13.0,0.0
27016,64.0,0,40,12.0,0.0
27017,64.0,0,40,11.0,0.0
27018,64.0,0,40,5.0,0.0
27019,43.0,0,40,3.0,0.0
27020,64.0,0,40,1.0,0.0
27021,43.0,48,40,14.0,0.0
27022,55.0,0,40,13.0,0.0
27023,64.0,0,40,4.0,0.0
27024,56.0,0,40,13.0,0.0
27025,65.0,0,40,11.0,0.0
27026,44.0,46,40,3.0,0.0
27027,65.0,0,40,5.0,0.0
27028,44.0,0,40,14.0,0.0
27029,65.0,0,40,1.0,0.0
27030,65.0,0,40,4.0,0.0
27031,65.0,0,40,12.0,0.0
27032,46.0,0,40,14.0,0.0
27033,58.0,0,40,13.0,0.0
27034,67.0,2,40,11.0,0.0
27035,67.0,0,40,4.0,0.0
27036,67.0,0,40,1.0,0.0
27037,67.0,32,40,5.0,0.0
27038,46.0,0,40,3.0,0.0
27039,67.0,0,40,12.0,0.0
27040,60.0,0,30,13.0,0.0
27041,41.0,0,30,14.0,0.0
27042,65.0,0,40,1.0,0.0
27043,48.0,0,30,3.0,0.0
27044,69.0,14,30,5.0,0.0
27045,38.0,0,30,9.0,0.0
27046,69.0,0,40,11.0,0.0
27047,65.0,0,30,4.0,0.0
27048,41.0,0,30,3.0,0.0
27049,65.0,0,40,12.0,0.0
27050,69.0,0,30,4.0,0.0
27051,38.0,24,15,9.0,0.0
27052,72.0,0,40,12.0,0.0
27053,72.0,2,40,1.0,0.0
27054,60.0,0,40,4.0,0.0
27055,72.0,32,40,5.0,0.0
27056,38.0,6,15,9.0,0.0
27057,63.0,0,30,3.0,0.0
27058,81.0,0,30,2.0,0.0
27059,81.0,0,30,11.0,0.0
27060,51.0,0,30,3.0,0.0
27061,63.0,0,30,14.0,0.0
27062,61.0,32,40,4.0,0.0
27063,69.0,0,30,4.0,0.0
27064,81.0,0,30,5.0,0.0
27065,57.0,0,30,4.0,0.0
27066,73.0,0,40,12.0,0.0
27067,73.0,2,40,1.0,0.0
27068,66.0,0,30,13.0,0.0
27069,63.0,0,30,6.0,0.0
27070,66.0,0,30,6.0,0.0
27071,69.0,0,30,5.0,0.0
27072,73.0,12,30,5.0,0.0
27073,66.0,0,30,2.0,0.0
27074,81.0,0,30,0.0,0.0
27075,38.0,0,30,9.0,0.0
27076,66.0,2,30,3.0,0.0
27077,72.0,0,40,12.0,0.0
27078,38.0,14,30,9.0,0.0
27079,72.0,0,40,5.0,0.0
27080,72.0,2,40,1.0,0.0
27081,60.0,32,40,4.0,0.0
27082,65.0,0,30,2.0,0.0
27083,61.0,0,30,6.0,0.0
27084,65.0,0,30,3.0,0.0
27085,38.0,2,30,9.0,0.0
27086,65.0,0,30,13.0,0.0
27087,61.0,0,30,14.0,0.0
27088,61.0,0,30,3.0,0.0
27089,82.0,0,30,0.0,0.0
27090,73.0,12,30,5.0,0.0
27091,70.0,0,30,5.0,0.0
27092,65.0,0,30,6.0,0.0
27093,58.0,0,30,4.0,0.0
27094,73.0,0,40,1.0,0.0
27095,82.0,0,30,2.0,0.0
27096,73.0,2,40,12.0,0.0
27097,61.0,16,40,4.0,0.0
27098,70.0,0,30,4.0,0.0
27099,49.0,0,30,3.0,0.0
27100,82.0,0,30,5.0,0.0
27101,82.0,0,30,11.0,0.0
27102,38.0,24,15,9.0,0.0
27103,72.0,2,40,1.0,0.0
27104,60.0,0,40,4.0,0.0
27105,72.0,0,40,12.0,0.0
27106,72.0,32,40,5.0,0.0
27107,38.0,6,15,9.0,0.0
27108,54.0,2,30,13.0,0.0
27109,54.0,0,30,3.0,0.0
27110,73.0,0,40,12.0,0.0
27111,61.0,32,40,4.0,0.0
27112,54.0,0,30,2.0,0.0
27113,81.0,0,30,5.0,0.0
27114,51.0,0,30,7.0,0.0
27115,73.0,2,40,1.0,0.0
27116,81.0,0,30,2.0,0.0
27117,51.0,0,30,14.0,0.0
27118,81.0,0,30,0.0,0.0
27119,69.0,0,30,5.0,0.0
27120,73.0,12,30,5.0,0.0
27121,81.0,0,30,11.0,0.0
27122,51.0,0,30,6.0,0.0
27123,39.0,0,30,3.0,0.0
27124,54.0,0,30,6.0,0.0
27125,51.0,0,30,3.0,0.0
27126,69.0,0,30,4.0,0.0
27127,57.0,0,30,4.0,0.0
27128,38.0,0,30,9.0,0.0
27129,72.0,0,40,5.0,0.0
27130,72.0,2,40,1.0,0.0
27131,72.0,0,40,12.0,0.0
27132,60.0,32,40,4.0,0.0
27133,38.0,14,30,9.0,0.0
27134,53.0,0,40,3.0,0.0
27135,82.0,2,300,5.0,0.0
27136,70.0,32,150,4.0,0.0
27137,49.0,50,40,3.0,0.0
27138,73.0,0,150,1.0,0.0
27139,58.0,0,150,4.0,0.0
27140,61.0,0,150,4.0,0.0
27141,82.0,0,150,11.0,0.0
27142,49.0,0,30,14.0,0.0
27143,38.0,14,30,9.0,0.0
27144,53.0,0,150,6.0,0.0
27145,49.0,0,150,7.0,0.0
27146,82.0,0,150,0.0,0.0
27147,70.0,0,210,5.0,0.0
27148,49.0,0,150,6.0,0.0
27149,73.0,16,210,5.0,0.0
27150,82.0,0,150,2.0,0.0
27151,37.0,0,150,3.0,0.0
27152,65.0,0,30,13.0,0.0
27153,53.0,0,150,2.0,0.0
27154,73.0,2,150,12.0,0.0
27155,53.0,46,40,13.0,0.0
27156,41.0,0,40,3.0,0.0
27157,41.0,0,40,14.0,0.0
27158,43.0,0,40,14.0,0.0
27159,43.0,16,40,3.0,0.0
27160,55.0,0,40,13.0,0.0
27161,65.0,0,40,1.0,0.0
27162,65.0,0,40,12.0,0.0
27163,45.0,0,40,3.0,0.0
27164,45.0,0,40,14.0,0.0
27165,57.0,0,40,13.0,0.0
27166,65.0,32,40,11.0,0.0
27167,67.0,0,40,1.0,0.0
27168,46.0,46,40,3.0,0.0
27169,58.0,0,40,13.0,0.0
27170,46.0,0,40,14.0,0.0
27171,67.0,0,40,12.0,0.0
27172,67.0,0,40,11.0,0.0
27173,48.0,0,40,14.0,0.0
27174,69.0,0,40,12.0,0.0
27175,69.0,0,40,1.0,0.0
27176,69.0,48,40,11.0,0.0
27177,60.0,0,40,13.0,0.0
27178,48.0,0,40,3.0,0.0
27179,70.0,0,40,1.0,0.0
27180,49.0,0,40,14.0,0.0
27181,61.0,0,40,13.0,0.0
27182,70.0,0,40,12.0,0.0
27183,49.0,0,40,3.0,0.0
27184,70.0,46,40,11.0,0.0
27185,51.0,0,40,14.0,0.0
27186,51.0,0,40,3.0,0.0
27187,72.0,0,40,1.0,0.0
27188,63.0,0,40,13.0,0.0
27189,72.0,96,40,11.0,0.0
27190,72.0,0,40,12.0,0.0
27191,70.0,0,90,12.0,0.0
27192,53.0,0,90,3.0,0.0
27193,46.0,0,90,3.0,0.0
27194,46.0,34,90,14.0,0.0
27195,73.0,0,90,11.0,0.0
27196,70.0,0,90,1.0,0.0
27197,65.0,0,90,13.0,0.0
27198,38.0,48,30,9.0,0.0
27199,70.0,0,90,12.0,0.0
27200,82.0,0,90,2.0,0.0
27201,82.0,0,90,11.0,0.0
27202,70.0,16,90,2.0,0.0
27203,38.0,16,30,9.0,0.0
27204,40.0,32,90,14.0,0.0
27205,36.0,0,90,15.0,0.0
27206,48.0,0,90,13.0,0.0
27207,38.0,24,15,9.0,0.0
27208,80.0,0,90,2.0,0.0
27209,80.0,32,90,11.0,0.0
27210,68.0,0,90,12.0,0.0
27211,68.0,0,90,2.0,0.0
27212,38.0,8,15,9.0,0.0
27213,50.0,0,90,13.0,0.0
27214,38.0,32,90,15.0,0.0
27215,41.0,0,90,14.0,0.0
27216,38.0,16,30,9.0,0.0
27217,84.0,16,90,11.0,0.0
27218,72.0,0,90,12.0,0.0
27219,38.0,16,30,9.0,0.0
27220,72.0,0,90,2.0,0.0
27221,84.0,0,90,2.0,0.0
27222,43.0,0,90,14.0,0.0
27223,38.0,16,30,9.0,0.0
27224,52.0,32,90,13.0,0.0
27225,40.0,0,90,15.0,0.0
27226,68.0,0,90,12.0,0.0
27227,80.0,0,90,2.0,0.0
27228,68.0,0,90,2.0,0.0
27229,80.0,32,90,11.0,0.0
27230,38.0,24,15,9.0,0.0
27231,38.0,8,15,9.0,0.0
27232,41.0,0,90,15.0,0.0
27233,38.0,16,30,9.0,0.0
27234,44.0,32,90,14.0,0.0
27235,53.0,0,90,13.0,0.0
27236,38.0,16,30,9.0,0.0
27237,79.0,16,90,2.0,0.0
27238,67.0,0,90,12.0,0.0
27239,67.0,0,90,2.0,0.0
27240,79.0,0,90,11.0,0.0
27241,55.0,0,90,13.0,0.0
27242,38.0,16,30,9.0,0.0
27243,43.0,32,90,15.0,0.0
27244,46.0,0,90,14.0,0.0
27245,65.0,0,90,12.0,0.0
27246,77.0,0,90,11.0,0.0
27247,38.0,24,15,9.0,0.0
27248,77.0,0,90,2.0,0.0
27249,65.0,32,90,2.0,0.0
27250,38.0,8,15,9.0,0.0
27251,38.0,16,30,9.0,0.0
27252,48.0,0,90,14.0,0.0
27253,56.0,32,90,13.0,0.0
27254,44.0,0,90,15.0,0.0
27255,67.0,0,90,12.0,0.0
27256,79.0,0,90,2.0,0.0
27257,67.0,0,90,2.0,0.0
27258,38.0,16,30,9.0,0.0
27259,79.0,50,90,11.0,0.0
27260,48.0,0,90,15.0,0.0
27261,52.0,0,90,14.0,0.0
27262,38.0,14,30,9.0,0.0
27263,48.0,48,90,13.0,0.0
27264,80.0,0,90,2.0,0.0
27265,68.0,46,90,12.0,0.0
27266,68.0,0,90,2.0,0.0
27267,80.0,0,90,11.0,0.0
27268,53.0,0,90,13.0,0.0
27269,41.0,0,90,15.0,0.0
27270,53.0,48,90,14.0,0.0
27271,70.0,22,90,2.0,0.0
27272,82.0,0,90,2.0,0.0
27273,54.0,0,40,9.0,0.0
27274,70.0,0,90,12.0,0.0
27275,82.0,0,90,11.0,0.0
27276,52.0,46,90,14.0,0.0
27277,36.0,0,90,15.0,0.0
27278,60.0,2,90,13.0,0.0
27279,54.0,2,40,9.0,0.0
27280,80.0,0,90,2.0,0.0
27281,68.0,46,90,2.0,0.0
27282,80.0,0,90,11.0,0.0
27283,68.0,0,90,12.0,0.0
27284,54.0,24,20,9.0,0.0
27285,54.0,0,20,9.0,0.0
27286,54.0,2,40,9.0,0.0
27287,38.0,46,90,15.0,0.0
27288,53.0,0,90,14.0,0.0
27289,60.0,2,90,13.0,0.0
27290,72.0,22,90,12.0,0.0
27291,54.0,0,40,9.0,0.0
27292,84.0,0,90,2.0,0.0
27293,72.0,0,90,2.0,0.0
27294,84.0,0,90,11.0,0.0
27295,55.0,0,90,14.0,0.0
27296,54.0,2,40,9.0,0.0
27297,40.0,46,90,15.0,0.0
27298,60.0,0,90,13.0,0.0
27299,80.0,46,90,11.0,0.0
27300,68.0,0,90,2.0,0.0
27301,80.0,0,90,2.0,0.0
27302,54.0,24,20,9.0,0.0
27303,68.0,0,90,12.0,0.0
27304,54.0,2,20,9.0,0.0
27305,56.0,0,90,14.0,0.0
27306,41.0,46,90,15.0,0.0
27307,60.0,2,90,13.0,0.0
27308,54.0,2,40,9.0,0.0
27309,79.0,0,90,2.0,0.0
27310,67.0,0,90,2.0,0.0
27311,79.0,46,90,11.0,0.0
27312,67.0,0,90,12.0,0.0
27313,54.0,0,40,9.0,0.0
27314,58.0,0,90,14.0,0.0
27315,60.0,0,90,13.0,0.0
27316,43.0,48,90,15.0,0.0
27317,54.0,2,40,9.0,0.0
27318,77.0,46,90,11.0,0.0
27319,65.0,0,90,12.0,0.0
27320,77.0,0,90,2.0,0.0
27321,65.0,0,90,2.0,0.0
27322,54.0,2,40,9.0,0.0
27323,60.0,0,90,14.0,0.0
27324,44.0,48,90,15.0,0.0
27325,60.0,0,90,13.0,0.0
27326,68.0,98,90,12.0,0.0
27327,68.0,0,90,2.0,0.0
27328,80.0,0,90,2.0,0.0
27329,80.0,0,90,11.0,0.0
27330,60.0,0,40,13.0,0.0
27331,41.0,0,40,15.0,0.0
27332,56.0,0,40,14.0,0.0
27333,77.0,46,90,0.0,0.0
27334,77.0,0,90,12.0,0.0
27335,89.0,0,90,0.0,0.0
27336,89.0,0,90,11.0,0.0
27337,37.0,0,90,15.0,0.0
27338,53.0,0,90,14.0,0.0
27339,61.0,48,90,13.0,0.0
27340,75.0,0,90,12.0,0.0
27341,87.0,0,90,11.0,0.0
27342,54.0,0,40,9.0,0.0
27343,87.0,22,90,0.0,0.0
27344,75.0,0,90,0.0,0.0
27345,61.0,48,90,13.0,0.0
27346,54.0,0,90,14.0,0.0
27347,54.0,2,40,9.0,0.0
27348,39.0,0,90,15.0,0.0
27349,85.0,0,90,11.0,0.0
27350,85.0,0,90,0.0,0.0
27351,73.0,0,90,0.0,0.0
27352,73.0,46,90,12.0,0.0
27353,54.0,24,20,9.0,0.0
27354,54.0,0,20,9.0,0.0
27355,61.0,0,90,13.0,0.0
27356,41.0,48,90,15.0,0.0
27357,56.0,0,90,14.0,0.0
27358,54.0,2,40,9.0,0.0
27359,89.0,98,90,11.0,0.0
27360,54.0,0,40,9.0,0.0
27361,89.0,0,90,0.0,0.0
27362,77.0,0,90,0.0,0.0
27363,77.0,0,90,12.0,0.0
27364,53.0,0,40,14.0,0.0
27365,37.0,0,40,15.0,0.0
27366,54.0,0,40,9.0,0.0
27367,61.0,0,40,13.0,0.0
27368,70.0,0,90,1.0,0.0
27369,82.0,0,90,1.0,0.0
27370,82.0,0,90,11.0,0.0
27371,70.0,32,90,12.0,0.0
27372,58.0,34,90,14.0,0.0
27373,42.0,0,90,15.0,0.0
27374,61.0,0,90,13.0,0.0
27375,80.0,16,90,1.0,0.0
27376,68.0,0,90,1.0,0.0
27377,68.0,0,90,12.0,0.0
27378,80.0,0,90,11.0,0.0
27379,38.0,14,30,9.0,0.0
27380,61.0,0,90,13.0,0.0
27381,38.0,16,30,9.0,0.0
27382,59.0,0,90,14.0,0.0
27383,44.0,34,90,15.0,0.0
27384,78.0,0,90,11.0,0.0
27385,38.0,24,15,9.0,0.0
27386,66.0,0,90,1.0,0.0
27387,66.0,32,90,12.0,0.0
27388,78.0,0,90,1.0,0.0
27389,38.0,6,15,9.0,0.0
27390,61.0,34,90,14.0,0.0
27391,46.0,0,90,15.0,0.0
27392,61.0,0,90,13.0,0.0
27393,38.0,16,30,9.0,0.0
27394,82.0,98,90,11.0,0.0
27395,70.0,0,90,12.0,0.0
27396,70.0,0,90,1.0,0.0
27397,82.0,0,90,1.0,0.0
27398,38.0,14,30,9.0,0.0
27399,58.0,0,40,14.0,0.0
27400,42.0,0,40,15.0,0.0
27401,38.0,14,30,9.0,0.0
27402,61.0,0,40,13.0,0.0
27403,90.0,0,90,0.0,0.0
27404,78.0,46,90,0.0,0.0
27405,78.0,0,90,12.0,0.0
27406,90.0,0,90,11.0,0.0
27407,39.0,50,90,15.0,0.0
27408,54.0,0,90,14.0,0.0
27409,63.0,0,90,13.0,0.0
27410,89.0,0,90,11.0,0.0
27411,77.0,0,90,0.0,0.0
27412,89.0,46,90,0.0,0.0
27413,77.0,0,90,12.0,0.0
27414,41.0,0,90,15.0,0.0
27415,63.0,50,90,13.0,0.0
27416,56.0,0,90,14.0,0.0
27417,87.0,0,90,11.0,0.0
27418,75.0,46,90,12.0,0.0
27419,75.0,0,90,0.0,0.0
27420,87.0,0,90,0.0,0.0
27421,42.0,0,90,15.0,0.0
27422,58.0,0,90,14.0,0.0
27423,63.0,48,90,13.0,0.0
27424,90.0,0,90,11.0,0.0
27425,78.0,0,90,0.0,0.0
27426,90.0,98,90,0.0,0.0
27427,78.0,0,90,12.0,0.0
27428,39.0,0,40,15.0,0.0
27429,54.0,0,40,14.0,0.0
27430,63.0,0,40,13.0,0.0
27431,72.0,0,90,1.0,0.0
27432,84.0,32,90,11.0,0.0
27433,84.0,0,90,1.0,0.0
27434,72.0,0,90,12.0,0.0
27435,63.0,0,90,13.0,0.0
27436,44.0,0,90,15.0,0.0
27437,60.0,34,90,14.0,0.0
27438,70.0,0,90,12.0,0.0
27439,82.0,0,90,11.0,0.0
27440,70.0,0,90,1.0,0.0
27441,38.0,14,30,9.0,0.0
27442,82.0,16,90,1.0,0.0
27443,46.0,0,90,15.0,0.0
27444,38.0,16,30,9.0,0.0
27445,63.0,34,90,13.0,0.0
27446,61.0,0,90,14.0,0.0
27447,68.0,0,90,1.0,0.0
27448,80.0,32,90,1.0,0.0
27449,38.0,24,15,9.0,0.0
27450,68.0,0,90,12.0,0.0
27451,80.0,0,90,11.0,0.0
27452,38.0,6,15,9.0,0.0
27453,38.0,16,30,9.0,0.0
27454,48.0,0,90,15.0,0.0
27455,63.0,0,90,14.0,0.0
27456,63.0,34,90,13.0,0.0
27457,72.0,0,90,1.0,0.0
27458,84.0,0,90,1.0,0.0
27459,84.0,98,90,11.0,0.0
27460,38.0,14,30,9.0,0.0
27461,72.0,0,90,12.0,0.0
27462,38.0,14,30,9.0,0.0
27463,63.0,0,40,13.0,0.0
27464,44.0,0,40,15.0,0.0
27465,60.0,0,40,14.0,0.0
27466,80.0,0,90,12.0,0.0
27467,92.0,0,90,0.0,0.0
27468,80.0,0,90,0.0,0.0
27469,92.0,0,90,11.0,0.0
27470,80.0,0,90,1.0,0.0
27471,68.0,48,90,1.0,0.0
27472,41.0,0,90,15.0,0.0
27473,56.0,0,90,14.0,0.0
27474,90.0,0,90,0.0,0.0
27475,90.0,0,90,11.0,0.0
27476,78.0,48,90,12.0,0.0
27477,78.0,0,90,0.0,0.0
27478,66.0,0,90,1.0,0.0
27479,78.0,0,90,1.0,0.0
27480,58.0,0,90,14.0,0.0
27481,42.0,0,90,15.0,0.0
27482,65.0,48,15,13.0,0.0
27483,89.0,0,90,11.0,0.0
27484,77.0,0,90,0.0,0.0
27485,89.0,48,90,0.0,0.0
27486,65.0,0,90,1.0,0.0
27487,77.0,0,90,1.0,0.0
27488,77.0,0,90,12.0,0.0
27489,60.0,0,90,14.0,0.0
27490,44.0,0,90,15.0,0.0
27491,68.0,0,90,1.0,0.0
27492,80.0,0,90,12.0,0.0
27493,92.0,48,90,11.0,0.0
27494,80.0,0,90,1.0,0.0
27495,92.0,0,90,0.0,0.0
27496,80.0,0,90,0.0,0.0
27497,41.0,48,90,15.0,0.0
27498,65.0,48,15,13.0,0.0
27499,56.0,0,90,14.0,0.0
27500,78.0,0,90,12.0,0.0
27501,66.0,0,90,1.0,0.0
27502,78.0,48,90,1.0,0.0
27503,90.0,0,90,11.0,0.0
27504,78.0,0,90,0.0,0.0
27505,90.0,0,90,0.0,0.0
27506,46.0,0,90,15.0,0.0
27507,61.0,0,90,14.0,0.0
27508,89.0,0,90,0.0,0.0
27509,77.0,0,90,12.0,0.0
27510,65.0,0,90,1.0,0.0
27511,89.0,0,90,11.0,0.0
27512,77.0,48,90,0.0,0.0
27513,77.0,0,90,1.0,0.0
27514,60.0,0,90,14.0,0.0
27515,65.0,48,15,13.0,0.0
27516,44.0,48,90,15.0,0.0
27517,87.0,0,90,11.0,0.0
27518,87.0,48,90,0.0,0.0
27519,75.0,0,90,1.0,0.0
27520,75.0,0,90,0.0,0.0
27521,75.0,0,90,12.0,0.0
27522,63.0,0,90,1.0,0.0
27523,42.0,46,90,15.0,0.0
27524,58.0,0,90,14.0,0.0
27525,63.0,0,90,13.0,0.0
27526,85.0,0,90,0.0,0.0
27527,85.0,0,90,11.0,0.0
27528,73.0,0,90,12.0,0.0
27529,73.0,0,90,1.0,0.0
27530,73.0,0,90,0.0,0.0
27531,61.0,0,90,1.0,0.0
27532,61.0,96,40,13.0,0.0
27533,41.0,0,40,15.0,0.0
27534,56.0,0,40,14.0,0.0
27535,72.0,0,90,1.0,0.0
27536,60.0,0,90,1.0,0.0
27537,49.0,32,330,9.0,0.0
27538,39.0,0,90,15.0,0.0
27539,60.0,0,90,13.0,0.0
27540,84.0,0,90,0.0,0.0
27541,72.0,0,90,0.0,0.0
27542,54.0,0,90,14.0,0.0
27543,72.0,0,90,12.0,0.0
27544,84.0,34,90,11.0,0.0
27545,51.0,16,90,14.0,0.0
27546,39.0,0,90,15.0,0.0
27547,38.0,48,30,9.0,0.0
27548,53.0,0,90,13.0,0.0
27549,57.0,32,90,12.0,0.0
27550,38.0,16,30,9.0,0.0
27551,37.0,32,90,15.0,0.0
27552,49.0,0,90,14.0,0.0
27553,38.0,24,15,9.0,0.0
27554,38.0,8,15,9.0,0.0
27555,55.0,0,90,13.0,0.0
27556,58.0,0,90,12.0,0.0
27557,65.0,0,15,11.0,0.0
27558,38.0,16,30,9.0,0.0
27559,53.0,16,90,14.0,0.0
27560,41.0,0,90,15.0,0.0
27561,38.0,16,30,9.0,0.0
27562,38.0,16,30,9.0,0.0
27563,65.0,0,90,11.0,0.0
27564,60.0,32,90,12.0,0.0
27565,57.0,0,90,13.0,0.0
27566,37.0,0,90,15.0,0.0
27567,49.0,32,90,14.0,0.0
27568,38.0,24,15,9.0,0.0
27569,38.0,8,15,9.0,0.0
27570,38.0,16,30,9.0,0.0
27571,61.0,32,90,12.0,0.0
27572,58.0,0,90,13.0,0.0
27573,36.0,16,90,15.0,0.0
27574,38.0,16,30,9.0,0.0
27575,48.0,0,90,14.0,0.0
27576,38.0,16,30,9.0,0.0
27577,60.0,0,90,13.0,0.0
27578,65.0,0,15,11.0,0.0
27579,63.0,0,90,12.0,0.0
27580,46.0,0,90,14.0,0.0
27581,34.0,32,90,15.0,0.0
27582,38.0,24,15,9.0,0.0
27583,38.0,8,15,9.0,0.0
27584,65.0,0,90,12.0,0.0
27585,65.0,32,15,11.0,0.0
27586,61.0,0,90,13.0,0.0
27587,38.0,16,30,9.0,0.0
27588,49.0,0,90,14.0,0.0
27589,37.0,0,90,15.0,0.0
27590,38.0,16,30,9.0,0.0
27591,58.0,0,40,13.0,0.0
27592,61.0,98,40,12.0,0.0
27593,65.0,0,40,11.0,0.0
27594,38.0,14,30,9.0,0.0
27595,70.0,0,90,2.0,0.0
27596,58.0,0,90,2.0,0.0
27597,46.0,0,90,15.0,0.0
27598,58.0,48,90,14.0,0.0
27599,66.0,0,90,13.0,0.0
27600,70.0,48,90,12.0,0.0
27601,44.0,48,90,15.0,0.0
27602,56.0,0,90,2.0,0.0
27603,68.0,0,90,2.0,0.0
27604,56.0,0,90,14.0,0.0
27605,78.0,0,15,11.0,0.0
27606,71.0,48,90,12.0,0.0
27607,68.0,0,90,13.0,0.0
27608,66.0,0,90,2.0,0.0
27609,54.0,0,90,14.0,0.0
27610,54.0,48,90,2.0,0.0
27611,42.0,0,90,15.0,0.0
27612,78.0,0,15,11.0,0.0
27613,73.0,0,90,12.0,0.0
27614,70.0,46,90,13.0,0.0
27615,46.0,0,90,15.0,0.0
27616,70.0,0,90,2.0,0.0
27617,58.0,98,90,2.0,0.0
27618,58.0,0,90,14.0,0.0
27619,66.0,0,40,13.0,0.0
27620,70.0,0,40,12.0,0.0
27621,78.0,0,40,11.0,0.0
27622,51.0,0,90,14.0,0.0
27623,39.0,0,90,15.0,0.0
27624,63.0,0,90,4.0,0.0
27625,51.0,48,90,4.0,0.0
27626,51.0,0,90,3.0,0.0
27627,39.0,0,90,3.0,0.0
27628,54.0,0,90,13.0,0.0
27629,59.0,48,90,12.0,0.0
27630,37.0,0,90,3.0,0.0
27631,49.0,0,90,14.0,0.0
27632,49.0,48,90,3.0,0.0
27633,61.0,0,90,4.0,0.0
27634,37.0,0,90,15.0,0.0
27635,49.0,0,90,4.0,0.0
27636,61.0,0,90,12.0,0.0
27637,66.0,0,15,11.0,0.0
27638,58.0,48,90,13.0,0.0
27639,47.0,48,90,14.0,0.0
27640,47.0,0,90,3.0,0.0
27641,47.0,0,90,4.0,0.0
27642,59.0,0,90,4.0,0.0
27643,35.0,0,90,3.0,0.0
27644,35.0,0,90,15.0,0.0
27645,59.0,0,90,13.0,0.0
27646,63.0,46,90,12.0,0.0
27647,51.0,0,90,4.0,0.0
27648,39.0,0,90,15.0,0.0
27649,51.0,0,90,14.0,0.0
27650,39.0,98,90,3.0,0.0
27651,51.0,0,90,3.0,0.0
27652,63.0,0,90,4.0,0.0
27653,66.0,0,15,11.0,0.0
27654,54.0,0,40,13.0,0.0
27655,59.0,0,40,12.0,0.0
27656,71.0,32,90,2.0,0.0
27657,59.0,0,90,14.0,0.0
27658,59.0,0,90,2.0,0.0
27659,47.0,0,90,15.0,0.0
27660,68.0,2,90,13.0,0.0
27661,71.0,0,90,12.0,0.0
27662,58.0,16,90,2.0,0.0
27663,70.0,0,90,2.0,0.0
27664,46.0,0,90,15.0,0.0
27665,58.0,0,90,14.0,0.0
27666,38.0,14,30,9.0,0.0
27667,38.0,16,30,9.0,0.0
27668,80.0,32,15,11.0,0.0
27669,73.0,0,90,12.0,0.0
27670,70.0,2,90,13.0,0.0
27671,56.0,32,90,2.0,0.0
27672,68.0,0,90,2.0,0.0
27673,38.0,24,15,9.0,0.0
27674,56.0,0,90,14.0,0.0
27675,44.0,0,90,15.0,0.0
27676,38.0,6,15,9.0,0.0
27677,80.0,32,15,11.0,0.0
27678,71.0,2,90,13.0,0.0
27679,75.0,0,90,12.0,0.0
27680,38.0,16,30,9.0,0.0
27681,71.0,0,90,2.0,0.0
27682,59.0,0,90,2.0,0.0
27683,47.0,98,90,15.0,0.0
27684,38.0,14,30,9.0,0.0
27685,59.0,0,90,14.0,0.0
27686,68.0,0,40,13.0,0.0
27687,80.0,32,15,11.0,0.0
27688,71.0,0,40,12.0,0.0
27689,38.0,14,30,9.0,0.0
27690,53.0,0,90,3.0,0.0
27691,53.0,48,90,4.0,0.0
27692,41.0,0,90,15.0,0.0
27693,65.0,0,90,4.0,0.0
27694,53.0,0,90,14.0,0.0
27695,41.0,0,90,3.0,0.0
27696,56.0,48,90,13.0,0.0
27697,61.0,0,90,12.0,0.0
27698,63.0,0,90,4.0,0.0
27699,39.0,0,90,3.0,0.0
27700,51.0,0,90,3.0,0.0
27701,51.0,0,90,14.0,0.0
27702,51.0,0,90,4.0,0.0
27703,39.0,48,90,15.0,0.0
27704,68.0,0,15,11.0,0.0
27705,63.0,48,90,12.0,0.0
27706,60.0,0,90,13.0,0.0
27707,49.0,0,90,14.0,0.0
27708,37.0,48,90,3.0,0.0
27709,49.0,0,90,4.0,0.0
27710,61.0,0,90,4.0,0.0
27711,49.0,0,90,3.0,0.0
27712,37.0,0,90,15.0,0.0
27713,61.0,0,90,13.0,0.0
27714,65.0,0,90,12.0,0.0
27715,41.0,0,90,15.0,0.0
27716,53.0,98,90,3.0,0.0
27717,65.0,0,90,4.0,0.0
27718,53.0,0,90,14.0,0.0
27719,53.0,0,90,4.0,0.0
27720,41.0,0,90,3.0,0.0
27721,61.0,0,40,12.0,0.0
27722,56.0,0,40,13.0,0.0
27723,68.0,46,15,11.0,0.0
27724,49.0,0,90,15.0,0.0
27725,73.0,48,90,4.0,0.0
27726,73.0,0,90,2.0,0.0
27727,49.0,0,90,3.0,0.0
27728,61.0,0,90,2.0,0.0
27729,61.0,0,90,4.0,0.0
27730,61.0,0,90,14.0,0.0
27731,61.0,0,90,3.0,0.0
27732,82.0,0,90,11.0,0.0
27733,70.0,48,90,13.0,0.0
27734,73.0,0,90,12.0,0.0
27735,71.0,48,90,2.0,0.0
27736,59.0,0,90,4.0,0.0
27737,59.0,0,90,14.0,0.0
27738,47.0,0,90,15.0,0.0
27739,59.0,0,90,3.0,0.0
27740,59.0,0,90,2.0,0.0
27741,71.0,0,90,4.0,0.0
27742,47.0,0,90,3.0,0.0
27743,82.0,0,90,11.0,0.0
27744,75.0,48,90,12.0,0.0
27745,71.0,0,90,13.0,0.0
27746,46.0,0,90,15.0,0.0
27747,46.0,0,90,3.0,0.0
27748,58.0,0,90,2.0,0.0
27749,58.0,0,90,14.0,0.0
27750,58.0,0,90,3.0,0.0
27751,70.0,0,90,2.0,0.0
27752,70.0,0,90,4.0,0.0
27753,58.0,48,90,4.0,0.0
27754,73.0,46,90,13.0,0.0
27755,77.0,0,90,12.0,0.0
27756,73.0,0,90,4.0,0.0
27757,49.0,0,90,3.0,0.0
27758,49.0,0,90,15.0,0.0
27759,61.0,0,90,3.0,0.0
27760,61.0,0,90,4.0,0.0
27761,73.0,0,90,2.0,0.0
27762,61.0,82,90,14.0,0.0
27763,61.0,0,90,2.0,0.0
27764,82.0,0,15,11.0,0.0
27765,73.0,0,40,12.0,0.0
27766,70.0,0,40,13.0,0.0
27767,71.0,0,90,4.0,0.0
27768,47.0,32,90,3.0,0.0
27769,59.0,0,90,14.0,0.0
27770,59.0,0,90,2.0,0.0
27771,47.0,0,90,15.0,0.0
27772,71.0,0,90,2.0,0.0
27773,59.0,0,90,3.0,0.0
27774,59.0,0,90,4.0,0.0
27775,63.0,32,90,12.0,0.0
27776,38.0,16,30,9.0,0.0
27777,63.0,0,90,13.0,0.0
27778,58.0,0,90,2.0,0.0
27779,58.0,0,90,14.0,0.0
27780,58.0,0,90,3.0,0.0
27781,70.0,0,90,2.0,0.0
27782,46.0,0,90,15.0,0.0
27783,58.0,0,90,4.0,0.0
27784,70.0,0,90,4.0,0.0
27785,38.0,16,30,9.0,0.0
27786,46.0,48,90,3.0,0.0
27787,38.0,16,30,9.0,0.0
27788,68.0,0,15,11.0,0.0
27789,61.0,0,90,13.0,0.0
27790,66.0,48,90,12.0,0.0
27791,68.0,0,90,2.0,0.0
27792,56.0,48,90,2.0,0.0
27793,38.0,0,40,9.0,0.0
27794,56.0,0,90,14.0,0.0
27795,68.0,0,90,4.0,0.0
27796,56.0,0,90,4.0,0.0
27797,44.0,0,90,3.0,0.0
27798,56.0,0,90,3.0,0.0
27799,44.0,0,90,15.0,0.0
27800,59.0,0,90,13.0,0.0
27801,65.0,0,90,12.0,0.0
27802,54.0,0,90,4.0,0.0
27803,54.0,0,90,14.0,0.0
27804,54.0,0,90,3.0,0.0
27805,66.0,0,90,4.0,0.0
27806,42.0,0,90,3.0,0.0
27807,42.0,82,90,15.0,0.0
27808,66.0,0,90,2.0,0.0
27809,54.0,0,90,2.0,0.0
27810,58.0,0,40,13.0,0.0
27811,68.0,46,15,11.0,0.0
27812,63.0,0,40,12.0,0.0
27813,41.0,32,90,3.0,0.0
27814,65.0,0,90,4.0,0.0
27815,53.0,0,90,2.0,0.0
27816,53.0,0,90,4.0,0.0
27817,53.0,0,90,3.0,0.0
27818,53.0,0,90,14.0,0.0
27819,65.0,0,90,2.0,0.0
27820,41.0,0,90,15.0,0.0
27821,65.0,0,90,13.0,0.0
27822,38.0,16,30,9.0,0.0
27823,68.0,32,90,12.0,0.0
27824,73.0,0,90,12.0,0.0
27825,80.0,0,90,11.0,0.0
27826,51.0,0,90,3.0,0.0
27827,51.0,0,90,2.0,0.0
27828,63.0,0,90,4.0,0.0
27829,63.0,48,90,2.0,0.0
27830,39.0,0,90,15.0,0.0
27831,38.0,16,30,9.0,0.0
27832,63.0,0,90,13.0,0.0
27833,51.0,0,90,14.0,0.0
27834,39.0,0,90,3.0,0.0
27835,51.0,0,90,4.0,0.0
27836,38.0,16,30,9.0,0.0
27837,66.0,0,90,12.0,0.0
27838,73.0,48,90,11.0,0.0
27839,71.0,0,90,12.0,0.0
27840,49.0,0,90,3.0,0.0
27841,49.0,0,90,4.0,0.0
27842,49.0,48,90,2.0,0.0
27843,37.0,0,90,3.0,0.0
27844,37.0,0,90,15.0,0.0
27845,49.0,0,90,14.0,0.0
27846,61.0,0,90,4.0,0.0
27847,38.0,0,40,9.0,0.0
27848,61.0,0,90,13.0,0.0
27849,61.0,0,90,2.0,0.0
27850,70.0,0,90,12.0,0.0
27851,65.0,46,90,12.0,0.0
27852,35.0,0,90,3.0,0.0
27853,35.0,0,90,15.0,0.0
27854,59.0,0,90,2.0,0.0
27855,59.0,0,90,13.0,0.0
27856,47.0,0,90,4.0,0.0
27857,47.0,48,90,14.0,0.0
27858,47.0,0,90,2.0,0.0
27859,59.0,0,90,4.0,0.0
27860,47.0,0,90,3.0,0.0
27861,73.0,0,15,11.0,0.0
27862,68.0,0,40,12.0,0.0
27863,63.0,0,40,12.0,0.0
27864,61.0,0,40,12.0,0.0
27865,34.0,0,90,15.0,0.0
27866,46.0,2,90,2.0,0.0
27867,66.0,0,40,12.0,0.0
27868,46.0,0,90,4.0,0.0
27869,46.0,0,90,14.0,0.0
27870,34.0,0,90,3.0,0.0
27871,58.0,0,90,13.0,0.0
27872,58.0,0,90,4.0,0.0
27873,73.0,34,40,11.0,0.0
27874,58.0,0,90,2.0,0.0
27875,46.0,0,90,3.0,0.0
27876,38.0,14,30,9.0,0.0
27877,77.0,32,40,11.0,0.0
27878,38.0,16,30,9.0,0.0
27879,78.0,32,40,11.0,0.0
27880,77.0,48,40,11.0,0.0
27881,38.0,16,30,9.0,0.0
27882,78.0,32,150,11.0,0.0
27883,38.0,48,40,9.0,0.0
27884,66.0,48,40,13.0,0.0
27885,70.0,0,40,12.0,0.0
27886,71.0,16,40,12.0,0.0
27887,68.0,0,40,13.0,0.0
27888,66.0,0,40,13.0,0.0
27889,70.0,80,40,12.0,0.0
27890,68.0,16,150,13.0,0.0
27891,71.0,0,150,12.0,0.0
27892,77.0,32,40,11.0,0.0
27893,38.0,16,30,9.0,0.0
27894,38.0,16,30,9.0,0.0
27895,78.0,16,40,11.0,0.0
27896,38.0,16,30,9.0,0.0
27897,77.0,48,40,11.0,0.0
27898,78.0,32,150,11.0,0.0
27899,38.0,48,40,9.0,0.0
27900,70.0,0,40,12.0,0.0
27901,66.0,48,40,13.0,0.0
27902,71.0,16,40,12.0,0.0
27903,68.0,0,40,13.0,0.0
27904,73.0,80,40,12.0,0.0
27905,70.0,0,40,13.0,0.0
27906,70.0,16,150,12.0,0.0
27907,66.0,0,150,13.0,0.0
27908,38.0,16,30,9.0,0.0
27909,77.0,32,40,11.0,0.0
27910,78.0,16,40,11.0,0.0
27911,38.0,16,30,9.0,0.0
27912,38.0,16,30,9.0,0.0
27913,77.0,48,40,11.0,0.0
27914,38.0,48,40,9.0,0.0
27915,78.0,32,150,11.0,0.0
27916,66.0,48,40,13.0,0.0
27917,70.0,0,40,12.0,0.0
27918,71.0,0,40,12.0,0.0
27919,68.0,16,40,13.0,0.0
27920,66.0,80,40,13.0,0.0
27921,70.0,0,40,12.0,0.0
27922,71.0,0,150,12.0,0.0
27923,68.0,16,150,13.0,0.0
27924,77.0,32,40,11.0,0.0
27925,38.0,16,30,9.0,0.0
27926,78.0,16,40,11.0,0.0
27927,38.0,16,30,9.0,0.0
27928,38.0,16,30,9.0,0.0
27929,77.0,48,40,11.0,0.0
27930,78.0,32,150,11.0,0.0
27931,38.0,48,40,9.0,0.0
27932,66.0,0,40,13.0,0.0
27933,70.0,48,40,12.0,0.0
27934,71.0,0,40,12.0,0.0
27935,68.0,16,40,13.0,0.0
27936,73.0,80,40,12.0,0.0
27937,70.0,0,40,13.0,0.0
27938,66.0,0,150,13.0,0.0
27939,70.0,16,150,12.0,0.0
27940,38.0,16,30,9.0,0.0
27941,77.0,32,40,11.0,0.0
27942,38.0,16,30,9.0,0.0
27943,78.0,16,40,11.0,0.0
27944,38.0,16,30,9.0,0.0
27945,77.0,48,40,11.0,0.0
27946,78.0,32,150,11.0,0.0
27947,38.0,48,40,9.0,0.0
27948,66.0,0,40,13.0,0.0
27949,70.0,48,40,12.0,0.0
27950,71.0,0,40,12.0,0.0
27951,68.0,16,40,13.0,0.0
27952,71.0,0,40,12.0,0.0
27953,68.0,80,40,13.0,0.0
27954,70.0,0,150,13.0,0.0
27955,73.0,16,150,12.0,0.0
27956,77.0,32,40,11.0,0.0
27957,38.0,16,30,9.0,0.0
27958,38.0,16,30,9.0,0.0
27959,78.0,16,40,11.0,0.0
27960,77.0,48,40,11.0,0.0
27961,38.0,16,30,9.0,0.0
27962,78.0,32,150,11.0,0.0
27963,38.0,48,40,9.0,0.0
27964,72.0,0,40,12.0,0.0
27965,68.0,48,40,13.0,0.0
27966,73.0,16,40,12.0,0.0
27967,70.0,0,40,13.0,0.0
27968,75.0,80,40,12.0,0.0
27969,72.0,0,40,13.0,0.0
27970,68.0,16,150,13.0,0.0
27971,72.0,0,150,12.0,0.0
27972,38.0,16,30,9.0,0.0
27973,77.0,32,40,11.0,0.0
27974,78.0,16,40,11.0,0.0
27975,38.0,16,30,9.0,0.0
27976,38.0,16,30,9.0,0.0
27977,77.0,48,40,11.0,0.0
27978,78.0,32,150,11.0,0.0
27979,38.0,48,40,9.0,0.0
27980,72.0,0,40,12.0,0.0
27981,68.0,48,40,13.0,0.0
27982,70.0,16,40,13.0,0.0
27983,73.0,0,40,12.0,0.0
27984,72.0,96,40,12.0,0.0
27985,68.0,0,40,13.0,0.0
27986,70.0,16,150,13.0,0.0
27987,73.0,0,150,12.0,0.0
27988,77.0,48,40,11.0,0.0
27989,78.0,16,40,11.0,0.0
27990,38.0,16,30,9.0,0.0
27991,77.0,48,40,11.0,0.0
27992,78.0,32,150,11.0,0.0
27993,38.0,48,40,9.0,0.0
27994,68.0,0,40,13.0,0.0
27995,72.0,48,40,12.0,0.0
27996,73.0,16,40,12.0,0.0
27997,70.0,0,40,13.0,0.0
27998,72.0,96,40,13.0,0.0
27999,75.0,0,40,12.0,0.0
28000,72.0,16,150,12.0,0.0
28001,68.0,0,150,13.0,0.0
28002,77.0,48,40,11.0,0.0
28003,78.0,16,40,11.0,0.0
28004,77.0,48,40,11.0,0.0
28005,38.0,16,30,9.0,0.0
28006,78.0,32,150,11.0,0.0
28007,38.0,48,40,9.0,0.0
28008,68.0,48,40,13.0,0.0
28009,72.0,0,40,12.0,0.0
28010,73.0,0,40,12.0,0.0
28011,70.0,16,40,13.0,0.0
28012,68.0,96,40,13.0,0.0
28013,72.0,0,40,12.0,0.0
28014,73.0,0,150,12.0,0.0
28015,70.0,16,150,13.0,0.0
28016,77.0,48,40,11.0,0.0
28017,78.0,16,40,11.0,0.0
28018,38.0,16,30,9.0,0.0
28019,77.0,48,40,11.0,0.0
28020,38.0,48,40,9.0,0.0
28021,78.0,32,150,11.0,0.0
28022,68.0,48,40,13.0,0.0
28023,72.0,0,40,12.0,0.0
28024,73.0,0,40,12.0,0.0
28025,70.0,16,40,13.0,0.0
28026,72.0,96,40,12.0,0.0
28027,68.0,0,40,13.0,0.0
28028,73.0,0,150,12.0,0.0
28029,70.0,16,150,13.0,0.0
28030,77.0,48,40,11.0,0.0
28031,78.0,16,40,11.0,0.0
28032,38.0,16,30,9.0,0.0
28033,77.0,48,40,11.0,0.0
28034,78.0,32,150,11.0,0.0
28035,38.0,48,40,9.0,0.0
28036,72.0,48,40,12.0,0.0
28037,69.0,0,40,13.0,0.0
28038,70.0,0,40,13.0,0.0
28039,73.0,16,40,12.0,0.0
28040,72.0,0,40,12.0,0.0
28041,69.0,94,40,13.0,0.0
28042,73.0,2,90,12.0,0.0
28043,70.0,0,90,13.0,0.0
28044,77.0,48,40,11.0,0.0
28045,78.0,32,40,11.0,0.0
28046,60.0,0,40,12.0,0.0
28047,77.0,2,40,11.0,0.0
28048,38.0,14,30,9.0,0.0
28049,57.0,46,40,13.0,0.0
28050,61.0,0,40,12.0,0.0
28051,58.0,2,40,13.0,0.0
28052,38.0,48,40,9.0,0.0
28053,77.0,48,40,11.0,0.0
28054,78.0,46,40,11.0,0.0
28055,73.0,0,40,12.0,0.0
28056,79.0,2,40,11.0,0.0
28057,70.0,46,40,13.0,0.0
28058,72.0,0,40,13.0,0.0
28059,75.0,50,40,12.0,0.0
28060,79.0,48,40,11.0,0.0
28061,80.0,46,40,11.0,0.0
28062,79.0,2,40,11.0,0.0
28063,61.0,46,40,12.0,0.0
28064,58.0,0,40,13.0,0.0
28065,60.0,0,40,13.0,0.0
28066,63.0,50,40,12.0,0.0
28067,79.0,48,40,11.0,0.0
28068,80.0,46,40,11.0,0.0
28069,72.0,46,40,13.0,0.0
28070,81.0,2,40,11.0,0.0
28071,75.0,0,40,12.0,0.0
28072,73.0,0,40,13.0,0.0
28073,77.0,50,40,12.0,0.0
28074,81.0,48,40,11.0,0.0
28075,82.0,46,40,11.0,0.0
28076,60.0,46,40,13.0,0.0
28077,63.0,0,40,12.0,0.0
28078,81.0,2,40,11.0,0.0
28079,65.0,0,40,12.0,0.0
28080,61.0,50,40,13.0,0.0
28081,81.0,48,40,11.0,0.0
28082,82.0,46,40,11.0,0.0
28083,77.0,46,40,12.0,0.0
28084,74.0,0,40,13.0,0.0
28085,83.0,2,40,11.0,0.0
28086,78.0,50,40,12.0,0.0
28087,75.0,0,40,13.0,0.0
28088,82.0,48,40,11.0,0.0
28089,83.0,46,40,11.0,0.0
28090,65.0,0,40,12.0,0.0
28091,82.0,2,40,11.0,0.0
28092,62.0,46,40,13.0,0.0
28093,63.0,0,40,13.0,0.0
28094,66.0,50,40,12.0,0.0
28095,82.0,48,40,11.0,0.0
28096,83.0,46,40,11.0,0.0
28097,77.0,0,40,12.0,0.0
28098,82.0,2,40,11.0,0.0
28099,74.0,46,40,13.0,0.0
28100,75.0,50,40,13.0,0.0
28101,78.0,0,40,12.0,0.0
28102,82.0,48,40,11.0,0.0
28103,83.0,46,40,11.0,0.0
28104,65.0,46,40,12.0,0.0
28105,82.0,2,40,11.0,0.0
28106,62.0,0,40,13.0,0.0
28107,63.0,0,40,13.0,0.0
28108,66.0,50,40,12.0,0.0
28109,70.0,48,40,11.0,0.0
28110,71.0,46,40,11.0,0.0
28111,70.0,2,40,11.0,0.0
28112,53.0,0,40,13.0,0.0
28113,50.0,46,40,14.0,0.0
28114,54.0,0,40,13.0,0.0
28115,51.0,50,40,14.0,0.0
28116,70.0,46,40,11.0,0.0
28117,71.0,50,40,11.0,0.0
28118,53.0,0,40,13.0,0.0
28119,50.0,46,40,14.0,0.0
28120,54.0,50,40,13.0,0.0
28121,51.0,0,40,14.0,0.0
28122,70.0,46,40,11.0,0.0
28123,71.0,50,40,11.0,0.0
28124,53.0,46,40,13.0,0.0
28125,50.0,0,40,14.0,0.0
28126,51.0,0,40,14.0,0.0
28127,54.0,50,40,13.0,0.0
28128,53.0,0,40,13.0,0.0
28129,70.0,0,40,11.0,0.0
28130,50.0,48,40,14.0,0.0
28131,62.0,0,40,12.0,0.0
28132,51.0,0,40,13.0,0.0
28133,72.0,0,40,11.0,0.0
28134,63.0,48,40,12.0,0.0
28135,48.0,0,40,14.0,0.0
28136,70.0,0,40,11.0,0.0
28137,50.0,160,40,14.0,0.0
28138,53.0,0,40,13.0,0.0
28139,62.0,0,40,12.0,0.0
28140,63.0,0,150,12.0,0.0
28141,48.0,0,150,14.0,0.0
28142,51.0,126,150,13.0,0.0
28143,72.0,0,150,11.0,0.0
28144,65.0,0,40,12.0,0.0
28145,46.0,2,40,14.0,0.0
28146,74.0,0,40,11.0,0.0
28147,50.0,46,40,13.0,0.0
28148,45.0,2,40,14.0,0.0
28149,48.0,0,40,13.0,0.0
28150,75.0,0,40,11.0,0.0
28151,66.0,46,40,12.0,0.0
28152,50.0,0,40,13.0,0.0
28153,46.0,2,40,14.0,0.0
28154,74.0,160,40,11.0,0.0
28155,65.0,0,40,12.0,0.0
28156,48.0,126,150,13.0,0.0
28157,45.0,0,150,14.0,0.0
28158,66.0,0,150,12.0,0.0
28159,75.0,0,150,11.0,0.0
28160,66.0,0,40,12.0,0.0
28161,75.0,0,40,11.0,0.0
28162,48.0,46,40,13.0,0.0
28163,45.0,2,40,14.0,0.0
28164,50.0,46,40,13.0,0.0
28165,65.0,0,40,12.0,0.0
28166,74.0,0,40,11.0,0.0
28167,46.0,2,40,14.0,0.0
28168,68.0,0,40,12.0,0.0
28169,77.0,46,40,11.0,0.0
28170,50.0,2,40,14.0,0.0
28171,53.0,0,40,13.0,0.0
28172,74.0,0,40,11.0,0.0
28173,50.0,46,40,13.0,0.0
28174,65.0,0,40,12.0,0.0
28175,46.0,2,40,14.0,0.0
28176,72.0,0,40,11.0,0.0
28177,63.0,46,40,12.0,0.0
28178,51.0,0,40,13.0,0.0
28179,48.0,2,40,14.0,0.0
28180,70.0,0,40,11.0,0.0
28181,53.0,0,40,13.0,0.0
28182,50.0,2,40,14.0,0.0
28183,62.0,46,40,12.0,0.0
28184,72.0,0,40,11.0,0.0
28185,63.0,0,40,12.0,0.0
28186,51.0,46,40,13.0,0.0
28187,48.0,2,40,14.0,0.0
28188,50.0,0,40,13.0,0.0
28189,65.0,46,40,12.0,0.0
28190,46.0,2,40,14.0,0.0
28191,74.0,0,40,11.0,0.0
28192,45.0,2,40,14.0,0.0
28193,48.0,46,40,13.0,0.0
28194,75.0,0,40,11.0,0.0
28195,66.0,0,40,12.0,0.0
28196,65.0,46,40,12.0,0.0
28197,46.0,2,40,14.0,0.0
28198,74.0,0,40,11.0,0.0
28199,50.0,0,40,13.0,0.0
28200,68.0,0,40,12.0,0.0
28201,53.0,0,40,13.0,0.0
28202,77.0,46,40,11.0,0.0
28203,50.0,2,40,14.0,0.0
28204,46.0,2,40,14.0,0.0
28205,65.0,0,40,12.0,0.0
28206,50.0,0,40,13.0,0.0
28207,74.0,46,40,11.0,0.0
28208,72.0,46,40,11.0,0.0
28209,51.0,0,40,13.0,0.0
28210,48.0,2,40,14.0,0.0
28211,63.0,0,40,12.0,0.0
28212,50.0,2,40,14.0,0.0
28213,62.0,0,40,12.0,0.0
28214,53.0,0,40,13.0,0.0
28215,70.0,46,40,11.0,0.0
28216,63.0,0,40,12.0,0.0
28217,48.0,0,40,14.0,0.0
28218,51.0,48,40,13.0,0.0
28219,72.0,0,40,11.0,0.0
28220,65.0,0,40,12.0,0.0
28221,41.0,0,180,8.0,0.0
28222,29.0,0,90,3.0,0.0
28223,74.0,0,40,11.0,0.0
28224,50.0,0,40,13.0,0.0
28225,53.0,0,90,4.0,0.0
28226,41.0,0,90,3.0,0.0
28227,41.0,2,90,15.0,0.0
28228,47.0,48,40,14.0,0.0
28229,71.0,0,40,11.0,0.0
28230,56.0,48,40,13.0,0.0
28231,53.0,0,40,14.0,0.0
28232,62.0,0,40,12.0,0.0
28233,72.0,0,40,11.0,0.0
28234,51.0,0,40,14.0,0.0
28235,63.0,0,40,12.0,0.0
28236,55.0,48,40,13.0,0.0
28237,56.0,0,40,13.0,0.0
28238,71.0,0,40,11.0,0.0
28239,62.0,160,40,12.0,0.0
28240,53.0,0,40,14.0,0.0
28241,72.0,128,150,11.0,0.0
28242,63.0,0,150,12.0,0.0
28243,55.0,0,150,13.0,0.0
28244,51.0,0,150,14.0,0.0
28245,53.0,0,40,13.0,0.0
28246,65.0,0,40,12.0,0.0
28247,50.0,48,40,14.0,0.0
28248,74.0,0,40,11.0,0.0
28249,51.0,0,40,13.0,0.0
28250,75.0,0,40,11.0,0.0
28251,48.0,0,40,14.0,0.0
28252,67.0,48,40,12.0,0.0
28253,53.0,0,40,13.0,0.0
28254,50.0,0,40,14.0,0.0
28255,74.0,0,40,11.0,0.0
28256,65.0,160,40,12.0,0.0
28257,41.0,0,180,15.0,0.0
28258,41.0,0,180,3.0,0.0
28259,75.0,32,150,11.0,0.0
28260,48.0,0,150,14.0,0.0
28261,51.0,0,150,13.0,0.0
28262,29.0,0,180,3.0,0.0
28263,41.0,0,180,8.0,0.0
28264,53.0,0,180,4.0,0.0
28265,67.0,0,150,12.0,0.0
28266,47.0,0,40,15.0,0.0
28267,47.0,0,40,14.0,0.0
28268,77.0,48,40,11.0,0.0
28269,68.0,0,40,12.0,0.0
28270,50.0,0,40,13.0,0.0
28271,75.0,0,40,11.0,0.0
28272,48.0,0,40,15.0,0.0
28273,51.0,0,40,13.0,0.0
28274,48.0,48,40,14.0,0.0
28275,67.0,0,40,12.0,0.0
28276,41.0,0,40,15.0,0.0
28277,53.0,24,40,13.0,0.0
28278,79.0,0,40,12.0,0.0
28279,41.0,0,40,14.0,0.0
28280,79.0,0,40,11.0,0.0
28281,48.0,0,40,15.0,0.0
28282,48.0,0,40,14.0,0.0
28283,67.0,0,40,12.0,0.0
28284,75.0,0,40,11.0,0.0
28285,51.0,0,40,13.0,0.0
28286,41.0,24,15,8.0,0.0
28287,65.0,0,40,12.0,0.0
28288,53.0,0,40,13.0,0.0
28289,50.0,24,40,15.0,0.0
28290,74.0,0,40,11.0,0.0
28291,50.0,0,40,14.0,0.0
28292,41.0,24,20,8.0,0.0
28293,41.0,0,20,8.0,0.0
28294,72.0,0,40,11.0,0.0
28295,51.0,0,40,14.0,0.0
28296,51.0,0,40,15.0,0.0
28297,55.0,0,40,13.0,0.0
28298,63.0,24,40,12.0,0.0
28299,41.0,24,15,8.0,0.0
28300,41.0,0,15,8.0,0.0
28301,74.0,2,40,11.0,0.0
28302,53.0,0,40,13.0,0.0
28303,65.0,0,40,12.0,0.0
28304,50.0,0,40,14.0,0.0
28305,50.0,0,40,15.0,0.0
28306,41.0,24,20,8.0,0.0
28307,48.0,24,40,15.0,0.0
28308,67.0,0,40,12.0,0.0
28309,75.0,0,40,11.0,0.0
28310,48.0,0,40,14.0,0.0
28311,51.0,0,40,13.0,0.0
28312,41.0,24,20,8.0,0.0
28313,41.0,0,20,8.0,0.0
28314,77.0,0,40,11.0,0.0
28315,68.0,0,40,12.0,0.0
28316,47.0,24,40,14.0,0.0
28317,50.0,0,40,13.0,0.0
28318,41.0,24,20,8.0,0.0
28319,47.0,0,40,15.0,0.0
28320,41.0,0,20,8.0,0.0
28321,67.0,0,40,12.0,0.0
28322,51.0,24,40,13.0,0.0
28323,75.0,0,40,11.0,0.0
28324,48.0,0,40,15.0,0.0
28325,48.0,0,40,14.0,0.0
28326,41.0,24,15,8.0,0.0
28327,41.0,24,20,8.0,0.0
28328,41.0,0,40,14.0,0.0
28329,79.0,0,40,11.0,0.0
28330,79.0,0,40,12.0,0.0
28331,41.0,0,40,15.0,0.0
28332,53.0,24,40,13.0,0.0
28333,48.0,0,40,14.0,0.0
28334,48.0,0,40,15.0,0.0
28335,41.0,0,15,8.0,0.0
28336,67.0,0,40,12.0,0.0
28337,75.0,0,40,11.0,0.0
28338,51.0,24,40,13.0,0.0
28339,41.0,0,20,8.0,0.0
28340,50.0,0,40,14.0,0.0
28341,65.0,24,40,12.0,0.0
28342,50.0,0,40,15.0,0.0
28343,74.0,0,40,11.0,0.0
28344,53.0,0,40,13.0,0.0
28345,41.0,24,20,8.0,0.0
28346,72.0,0,40,11.0,0.0
28347,41.0,0,15,8.0,0.0
28348,55.0,0,40,13.0,0.0
28349,51.0,0,40,14.0,0.0
28350,51.0,0,40,15.0,0.0
28351,63.0,24,40,12.0,0.0
28352,41.0,0,20,8.0,0.0
28353,53.0,0,40,13.0,0.0
28354,50.0,0,40,14.0,0.0
28355,65.0,0,40,12.0,0.0
28356,41.0,22,20,8.0,0.0
28357,50.0,2,40,15.0,0.0
28358,74.0,0,40,11.0,0.0
28359,41.0,24,20,8.0,0.0
28360,49.0,0,40,14.0,0.0
28361,49.0,24,40,15.0,0.0
28362,41.0,24,20,8.0,0.0
28363,67.0,0,40,12.0,0.0
28364,76.0,0,40,11.0,0.0
28365,52.0,0,40,13.0,0.0
28366,41.0,0,20,8.0,0.0
28367,47.0,0,40,14.0,0.0
28368,77.0,0,40,11.0,0.0
28369,50.0,0,40,13.0,0.0
28370,47.0,0,40,15.0,0.0
28371,69.0,24,40,12.0,0.0
28372,41.0,24,15,8.0,0.0
28373,76.0,0,40,11.0,0.0
28374,49.0,24,40,14.0,0.0
28375,41.0,0,15,8.0,0.0
28376,67.0,0,40,12.0,0.0
28377,52.0,0,40,13.0,0.0
28378,49.0,0,40,15.0,0.0
28379,41.0,0,20,8.0,0.0
28380,41.0,0,40,15.0,0.0
28381,41.0,0,40,14.0,0.0
28382,53.0,0,40,13.0,0.0
28383,81.0,24,40,12.0,0.0
28384,81.0,0,40,11.0,0.0
28385,41.0,24,15,8.0,0.0
28386,41.0,0,15,8.0,0.0
28387,76.0,24,40,11.0,0.0
28388,49.0,0,40,15.0,0.0
28389,52.0,0,40,13.0,0.0
28390,49.0,0,40,14.0,0.0
28391,67.0,0,40,12.0,0.0
28392,41.0,24,15,8.0,0.0
28393,41.0,0,15,8.0,0.0
28394,53.0,0,40,13.0,0.0
28395,74.0,0,40,11.0,0.0
28396,50.0,0,40,14.0,0.0
28397,50.0,0,40,15.0,0.0
28398,65.0,24,40,12.0,0.0
28399,41.0,0,20,8.0,0.0
28400,55.0,0,90,13.0,0.0
28401,73.0,24,40,11.0,0.0
28402,52.0,0,90,14.0,0.0
28403,64.0,0,40,12.0,0.0
28404,52.0,0,90,15.0,0.0
28405,41.0,24,20,8.0,0.0
28406,67.0,2,40,12.0,0.0
28407,76.0,0,40,11.0,0.0
28408,41.0,0,15,8.0,0.0
28409,41.0,22,15,8.0,0.0
28410,69.0,0,40,12.0,0.0
28411,50.0,0,40,14.0,0.0
28412,50.0,0,40,15.0,0.0
28413,77.0,0,40,11.0,0.0
28414,41.0,24,20,8.0,0.0
28415,53.0,0,40,13.0,0.0
28416,41.0,24,20,8.0,0.0
28417,52.0,0,40,13.0,0.0
28418,49.0,0,40,14.0,0.0
28419,49.0,24,40,15.0,0.0
28420,70.0,0,40,12.0,0.0
28421,79.0,0,40,11.0,0.0
28422,41.0,24,15,8.0,0.0
28423,50.0,24,40,14.0,0.0
28424,77.0,0,40,11.0,0.0
28425,69.0,0,40,12.0,0.0
28426,50.0,0,40,15.0,0.0
28427,41.0,24,20,8.0,0.0
28428,41.0,0,20,8.0,0.0
28429,53.0,0,15,13.0,0.0
28430,81.0,0,40,11.0,0.0
28431,41.0,0,40,14.0,0.0
28432,41.0,24,20,8.0,0.0
28433,41.0,24,40,15.0,0.0
28434,81.0,0,40,12.0,0.0
28435,41.0,0,20,8.0,0.0
28436,41.0,24,20,8.0,0.0
28437,69.0,0,40,12.0,0.0
28438,53.0,24,40,13.0,0.0
28439,77.0,0,40,11.0,0.0
28440,50.0,0,40,15.0,0.0
28441,50.0,0,40,14.0,0.0
28442,41.0,0,20,8.0,0.0
28443,52.0,0,40,15.0,0.0
28444,76.0,0,40,11.0,0.0
28445,52.0,0,40,14.0,0.0
28446,55.0,0,40,13.0,0.0
28447,67.0,0,40,12.0,0.0
28448,41.0,24,15,8.0,0.0
28449,74.0,0,40,11.0,0.0
28450,53.0,24,40,15.0,0.0
28451,53.0,0,40,14.0,0.0
28452,57.0,0,40,13.0,0.0
28453,65.0,0,40,12.0,0.0
28454,41.0,24,15,8.0,0.0
28455,41.0,0,20,8.0,0.0
28456,52.0,0,40,15.0,0.0
28457,52.0,0,40,14.0,0.0
28458,76.0,0,40,11.0,0.0
28459,55.0,0,40,13.0,0.0
28460,67.0,2,40,12.0,0.0
28461,41.0,22,15,8.0,0.0
28462,77.0,0,40,11.0,0.0
28463,50.0,0,40,15.0,0.0
28464,68.0,0,40,12.0,0.0
28465,53.0,0,40,13.0,0.0
28466,50.0,0,40,14.0,0.0
28467,41.0,24,15,8.0,0.0
28468,48.0,0,40,15.0,0.0
28469,41.0,24,15,8.0,0.0
28470,48.0,0,40,14.0,0.0
28471,79.0,24,40,11.0,0.0
28472,79.0,0,40,12.0,0.0
28473,51.0,0,40,13.0,0.0
28474,41.0,24,15,8.0,0.0
28475,41.0,0,15,8.0,0.0
28476,50.0,0,40,14.0,0.0
28477,68.0,24,40,12.0,0.0
28478,50.0,0,40,15.0,0.0
28479,53.0,0,40,13.0,0.0
28480,77.0,0,40,11.0,0.0
28481,41.0,24,15,8.0,0.0
28482,65.0,0,40,13.0,0.0
28483,41.0,0,15,8.0,0.0
28484,41.0,24,40,15.0,0.0
28485,82.0,2,40,11.0,0.0
28486,41.0,0,40,14.0,0.0
28487,82.0,0,40,12.0,0.0
28488,41.0,22,15,8.0,0.0
28489,55.0,0,40,13.0,0.0
28490,41.0,0,15,8.0,0.0
28491,79.0,0,40,11.0,0.0
28492,51.0,0,40,15.0,0.0
28493,70.0,0,40,12.0,0.0
28494,51.0,24,40,14.0,0.0
28495,50.0,24,40,15.0,0.0
28496,80.0,0,40,11.0,0.0
28497,41.0,0,15,8.0,0.0
28498,53.0,0,40,13.0,0.0
28499,80.0,0,40,12.0,0.0
28500,50.0,0,40,14.0,0.0
28501,55.0,0,40,13.0,0.0
28502,41.0,0,15,8.0,0.0
28503,51.0,0,40,14.0,0.0
28504,79.0,0,40,11.0,0.0
28505,70.0,24,40,12.0,0.0
28506,51.0,0,40,15.0,0.0
28507,41.0,0,20,8.0,0.0
28508,41.0,2,40,15.0,0.0
28509,53.0,0,40,13.0,0.0
28510,41.0,0,40,14.0,0.0
28511,82.0,0,40,11.0,0.0
28512,82.0,0,40,12.0,0.0
28513,41.0,22,15,8.0,0.0
28514,79.0,0,40,11.0,0.0
28515,70.0,0,40,12.0,0.0
28516,52.0,0,40,15.0,0.0
28517,41.0,24,15,8.0,0.0
28518,55.0,0,40,13.0,0.0
28519,52.0,24,40,14.0,0.0
28520,41.0,24,15,8.0,0.0
28521,81.0,0,40,11.0,0.0
28522,53.0,0,40,13.0,0.0
28523,50.0,0,40,15.0,0.0
28524,50.0,24,40,14.0,0.0
28525,81.0,0,40,12.0,0.0
28526,41.0,24,15,8.0,0.0
28527,55.0,24,40,13.0,0.0
28528,52.0,0,40,14.0,0.0
28529,41.0,24,20,8.0,0.0
28530,79.0,0,40,11.0,0.0
28531,52.0,0,40,15.0,0.0
28532,70.0,0,40,12.0,0.0
28533,84.0,0,40,12.0,0.0
28534,41.0,24,40,15.0,0.0
28535,41.0,0,15,8.0,0.0
28536,41.0,0,40,14.0,0.0
28537,84.0,2,40,11.0,0.0
28538,53.0,0,40,13.0,0.0
28539,41.0,0,20,8.0,0.0
28540,81.0,0,40,11.0,0.0
28541,72.0,0,40,12.0,0.0
28542,53.0,0,40,15.0,0.0
28543,57.0,24,40,13.0,0.0
28544,53.0,0,40,14.0,0.0
28545,41.0,24,15,8.0,0.0
28546,82.0,0,40,12.0,0.0
28547,82.0,0,40,11.0,0.0
28548,52.0,0,40,14.0,0.0
28549,52.0,24,40,15.0,0.0
28550,41.0,24,20,8.0,0.0
28551,55.0,0,40,13.0,0.0
28552,41.0,0,20,8.0,0.0
28553,81.0,0,40,11.0,0.0
28554,72.0,24,40,12.0,0.0
28555,57.0,0,40,13.0,0.0
28556,53.0,0,40,15.0,0.0
28557,53.0,0,40,14.0,0.0
28558,41.0,24,15,8.0,0.0
28559,41.0,0,15,8.0,0.0
28560,53.0,0,40,13.0,0.0
28561,41.0,2,40,15.0,0.0
28562,84.0,0,40,11.0,0.0
28563,84.0,0,40,12.0,0.0
28564,41.0,0,40,14.0,0.0
28565,41.0,22,15,8.0,0.0
28566,82.0,0,40,11.0,0.0
28567,74.0,0,40,12.0,0.0
28568,53.0,0,40,14.0,0.0
28569,53.0,0,40,15.0,0.0
28570,58.0,24,40,13.0,0.0
28571,41.0,24,15,8.0,0.0
28572,84.0,24,40,11.0,0.0
28573,52.0,0,40,15.0,0.0
28574,41.0,24,20,8.0,0.0
28575,52.0,0,40,13.0,0.0
28576,84.0,0,40,12.0,0.0
28577,52.0,0,40,14.0,0.0
28578,41.0,0,20,8.0,0.0
28579,53.0,24,40,15.0,0.0
28580,53.0,0,40,14.0,0.0
28581,58.0,0,40,13.0,0.0
28582,82.0,0,40,11.0,0.0
28583,41.0,24,20,8.0,0.0
28584,74.0,0,40,12.0,0.0
28585,41.0,0,20,8.0,0.0
28586,41.0,0,40,14.0,0.0
28587,41.0,0,40,15.0,0.0
28588,53.0,0,40,13.0,0.0
28589,86.0,0,40,12.0,0.0
28590,41.0,22,20,8.0,0.0
28591,86.0,2,40,11.0,0.0
28592,41.0,24,20,8.0,0.0
28593,53.0,0,40,14.0,0.0
28594,82.0,24,40,11.0,0.0
28595,41.0,24,20,8.0,0.0
28596,56.0,0,40,13.0,0.0
28597,74.0,0,40,12.0,0.0
28598,53.0,0,40,15.0,0.0
28599,41.0,0,20,8.0,0.0
28600,52.0,0,40,14.0,0.0
28601,52.0,0,40,13.0,0.0
28602,84.0,0,40,12.0,0.0
28603,52.0,0,40,15.0,0.0
28604,84.0,0,40,11.0,0.0
28605,41.0,24,15,8.0,0.0
28606,82.0,0,40,11.0,0.0
28607,56.0,0,40,13.0,0.0
28608,74.0,24,40,12.0,0.0
28609,53.0,0,40,14.0,0.0
28610,41.0,24,15,8.0,0.0
28611,53.0,0,40,15.0,0.0
28612,41.0,0,20,8.0,0.0
28613,41.0,22,20,8.0,0.0
28614,41.0,0,40,14.0,0.0
28615,53.0,0,40,13.0,0.0
28616,41.0,2,40,15.0,0.0
28617,86.0,0,40,11.0,0.0
28618,86.0,0,40,12.0,0.0
28619,41.0,24,20,8.0,0.0
28620,51.0,0,40,15.0,0.0
28621,75.0,0,40,12.0,0.0
28622,51.0,0,40,14.0,0.0
28623,55.0,0,40,13.0,0.0
28624,82.0,24,40,11.0,0.0
28625,41.0,24,15,8.0,0.0
28626,41.0,24,20,8.0,0.0
28627,50.0,0,40,13.0,0.0
28628,50.0,0,40,14.0,0.0
28629,84.0,0,40,12.0,0.0
28630,84.0,0,40,11.0,0.0
28631,50.0,0,40,15.0,0.0
28632,41.0,24,20,8.0,0.0
28633,51.0,0,40,14.0,0.0
28634,75.0,0,40,12.0,0.0
28635,82.0,0,40,11.0,0.0
28636,51.0,0,40,15.0,0.0
28637,55.0,24,40,13.0,0.0
28638,41.0,24,20,8.0,0.0
28639,41.0,0,20,8.0,0.0
28640,41.0,0,40,15.0,0.0
28641,41.0,0,40,14.0,0.0
28642,87.0,0,40,12.0,0.0
28643,41.0,22,20,8.0,0.0
28644,53.0,2,40,13.0,0.0
28645,87.0,0,40,11.0,0.0
28646,54.0,0,40,13.0,0.0
28647,49.0,24,40,14.0,0.0
28648,41.0,24,15,8.0,0.0
28649,76.0,0,40,12.0,0.0
28650,49.0,0,40,15.0,0.0
28651,82.0,0,40,11.0,0.0
28652,41.0,24,15,8.0,0.0
28653,84.0,0,40,11.0,0.0
28654,48.0,0,40,15.0,0.0
28655,84.0,0,40,12.0,0.0
28656,48.0,0,40,13.0,0.0
28657,48.0,24,40,14.0,0.0
28658,41.0,24,20,8.0,0.0
28659,41.0,0,20,8.0,0.0
28660,76.0,0,40,12.0,0.0
28661,54.0,0,40,13.0,0.0
28662,49.0,0,40,15.0,0.0
28663,82.0,24,40,11.0,0.0
28664,49.0,0,40,14.0,0.0
28665,41.0,24,15,8.0,0.0
28666,41.0,0,150,14.0,0.0
28667,41.0,0,15,8.0,0.0
28668,53.0,0,40,13.0,0.0
28669,41.0,34,150,15.0,0.0
28670,88.0,0,40,11.0,0.0
28671,88.0,2,40,12.0,0.0
28672,41.0,16,20,8.0,0.0
28673,48.0,0,90,13.0,0.0
28674,57.0,0,90,13.0,0.0
28675,84.0,0,90,12.0,0.0
28676,77.0,0,90,12.0,0.0
28677,89.0,0,150,0.0,0.0
28678,65.0,0,150,4.0,0.0
28679,89.0,0,150,11.0,0.0
28680,65.0,0,150,6.0,0.0
28681,49.0,0,330,9.0,0.0
28682,81.0,16,150,11.0,0.0
28683,41.0,16,180,8.0,0.0
28684,65.0,0,330,10.0,0.0
28685,77.0,16,330,10.0,0.0
28686,77.0,0,150,5.0,0.0
28687,38.0,24,15,9.0,0.0
28688,38.0,40,15,9.0,0.0
28689,38.0,14,30,9.0,0.0
28690,38.0,32,30,9.0,0.0
28691,38.0,16,30,9.0,0.0
28692,65.0,16,150,5.0,0.0
28693,53.0,0,150,4.0,0.0
28694,38.0,24,15,9.0,0.0
28695,53.0,0,150,6.0,0.0
28696,53.0,0,150,7.0,0.0
28697,38.0,40,15,9.0,0.0
28698,38.0,48,30,9.0,0.0
28699,38.0,16,30,9.0,0.0
28700,38.0,32,30,9.0,0.0
28701,89.0,0,150,11.0,0.0
28702,77.0,0,150,5.0,0.0
28703,77.0,0,150,12.0,0.0
28704,38.0,24,15,9.0,0.0
28705,77.0,0,330,10.0,0.0
28706,65.0,16,330,10.0,0.0
28707,65.0,16,150,4.0,0.0
28708,89.0,0,150,0.0,0.0
28709,65.0,0,150,6.0,0.0
28710,38.0,40,15,9.0,0.0
28711,38.0,48,30,9.0,0.0
28712,38.0,32,30,9.0,0.0
28713,38.0,32,30,9.0,0.0
28714,53.0,0,150,4.0,0.0
28715,38.0,24,15,9.0,0.0
28716,65.0,0,150,5.0,0.0
28717,53.0,16,150,7.0,0.0
28718,53.0,0,150,6.0,0.0
28719,38.0,40,15,9.0,0.0
28720,38.0,48,30,9.0,0.0
28721,38.0,16,30,9.0,0.0
28722,38.0,32,30,9.0,0.0
28723,65.0,0,330,6.0,0.0
28724,77.0,16,150,12.0,0.0
28725,77.0,0,330,5.0,0.0
28726,65.0,0,330,4.0,0.0
28727,77.0,16,330,1.0,0.0
28728,65.0,0,330,10.0,0.0
28729,89.0,0,330,0.0,0.0
28730,77.0,0,330,10.0,0.0
28731,38.0,24,15,9.0,0.0
28732,89.0,0,330,11.0,0.0
28733,38.0,40,15,9.0,0.0
28734,38.0,16,30,9.0,0.0
28735,77.0,32,40,13.0,0.0
28736,57.0,0,40,14.0,0.0
28737,45.0,0,40,3.0,0.0
28738,53.0,0,40,2.0,0.0
28739,57.0,0,40,3.0,0.0
28740,43.0,0,40,3.0,0.0
28741,51.0,0,40,2.0,0.0
28742,38.0,16,30,9.0,0.0
28743,55.0,0,40,3.0,0.0
28744,55.0,0,40,14.0,0.0
28745,75.0,16,40,13.0,0.0
28746,53.0,0,40,14.0,0.0
28747,38.0,14,30,9.0,0.0
28748,53.0,0,40,3.0,0.0
28749,77.0,16,40,13.0,0.0
28750,41.0,0,40,3.0,0.0
28751,53.0,2,40,2.0,0.0
28752,53.0,0,330,7.0,0.0
28753,38.0,24,15,9.0,0.0
28754,53.0,16,330,4.0,0.0
28755,65.0,0,330,2.0,0.0
28756,53.0,0,330,6.0,0.0
28757,77.0,0,330,12.0,0.0
28758,51.0,0,150,2.0,0.0
28759,55.0,0,40,3.0,0.0
28760,55.0,0,40,14.0,0.0
28761,75.0,16,150,13.0,0.0
28762,43.0,32,40,3.0,0.0
28763,65.0,0,330,5.0,0.0
28764,38.0,8,15,9.0,0.0
28765,38.0,16,30,9.0,0.0
28766,53.0,0,40,14.0,0.0
28767,41.0,0,40,3.0,0.0
28768,53.0,32,40,3.0,0.0
28769,51.0,0,40,3.0,0.0
28770,38.0,16,30,9.0,0.0
28771,39.0,0,40,3.0,0.0
28772,51.0,0,40,14.0,0.0
28773,50.0,16,40,14.0,0.0
28774,50.0,0,40,3.0,0.0
28775,38.0,0,40,3.0,0.0
28776,38.0,16,30,9.0,0.0
28777,89.0,0,330,11.0,0.0
28778,89.0,16,330,0.0,0.0
28779,36.0,0,40,3.0,0.0
28780,65.0,0,330,10.0,0.0
28781,77.0,0,330,5.0,0.0
28782,77.0,0,330,10.0,0.0
28783,48.0,0,40,14.0,0.0
28784,38.0,24,15,9.0,0.0
28785,65.0,0,330,4.0,0.0
28786,65.0,0,330,6.0,0.0
28787,48.0,32,40,3.0,0.0
28788,77.0,0,330,1.0,0.0
28789,38.0,8,15,9.0,0.0
28790,46.0,0,40,14.0,0.0
28791,46.0,0,40,3.0,0.0
28792,38.0,16,30,9.0,0.0
28793,34.0,0,40,3.0,0.0
28794,50.0,32,40,2.0,0.0
28795,74.0,0,40,13.0,0.0
28796,45.0,0,40,3.0,0.0
28797,72.0,0,40,13.0,0.0
28798,48.0,0,40,2.0,0.0
28799,33.0,0,40,3.0,0.0
28800,38.0,16,30,9.0,0.0
28801,45.0,0,40,14.0,0.0
28802,43.0,0,40,3.0,0.0
28803,46.0,0,40,3.0,0.0
28804,74.0,16,40,13.0,0.0
28805,46.0,0,40,14.0,0.0
28806,38.0,14,30,9.0,0.0
28807,50.0,2,40,2.0,0.0
28808,72.0,16,150,13.0,0.0
28809,53.0,0,360,7.0,0.0
28810,48.0,0,150,2.0,0.0
28811,53.0,0,360,6.0,0.0
28812,77.0,0,360,12.0,0.0
28813,65.0,16,360,2.0,0.0
28814,53.0,0,360,4.0,0.0
28815,48.0,32,40,14.0,0.0
28816,48.0,0,40,3.0,0.0
28817,65.0,0,360,5.0,0.0
28818,38.0,24,15,9.0,0.0
28819,45.0,0,40,3.0,0.0
28820,38.0,8,15,9.0,0.0
28821,50.0,0,40,3.0,0.0
28822,50.0,0,40,14.0,0.0
28823,38.0,16,30,9.0,0.0
28824,46.0,32,40,3.0,0.0
28825,51.0,0,40,3.0,0.0
28826,51.0,0,40,14.0,0.0
28827,38.0,16,30,9.0,0.0
28828,48.0,0,40,3.0,0.0
28829,38.0,16,30,9.0,0.0
28830,53.0,16,40,3.0,0.0
28831,50.0,0,40,3.0,0.0
28832,53.0,0,40,14.0,0.0
28833,65.0,0,330,10.0,0.0
28834,77.0,0,330,10.0,0.0
28835,55.0,0,40,14.0,0.0
28836,89.0,0,330,11.0,0.0
28837,77.0,0,330,5.0,0.0
28838,55.0,0,40,3.0,0.0
28839,38.0,24,15,9.0,0.0
28840,65.0,0,330,6.0,0.0
28841,65.0,0,330,4.0,0.0
28842,89.0,0,330,0.0,0.0
28843,51.0,34,40,3.0,0.0
28844,77.0,16,330,1.0,0.0
28845,38.0,6,15,9.0,0.0
28846,55.0,0,40,15.0,0.0
28847,51.0,0,40,2.0,0.0
28848,75.0,0,40,13.0,0.0
28849,55.0,0,40,3.0,0.0
28850,67.0,0,40,14.0,0.0
28851,67.0,32,40,3.0,0.0
28852,38.0,16,30,9.0,0.0
28853,65.0,16,40,14.0,0.0
28854,38.0,16,30,9.0,0.0
28855,50.0,0,40,2.0,0.0
28856,65.0,0,40,3.0,0.0
28857,74.0,0,40,13.0,0.0
28858,53.0,0,40,3.0,0.0
28859,53.0,0,40,15.0,0.0
28860,63.0,0,40,14.0,0.0
28861,51.0,0,40,15.0,0.0
28862,75.0,0,40,13.0,0.0
28863,51.0,2,40,2.0,0.0
28864,38.0,14,30,9.0,0.0
28865,63.0,16,40,3.0,0.0
28866,51.0,0,40,3.0,0.0
28867,77.0,0,330,12.0,0.0
28868,74.0,16,150,13.0,0.0
28869,65.0,0,40,3.0,0.0
28870,53.0,0,330,4.0,0.0
28871,53.0,0,330,7.0,0.0
28872,53.0,0,40,3.0,0.0
28873,65.0,0,40,14.0,0.0
28874,53.0,0,330,6.0,0.0
28875,65.0,32,330,2.0,0.0
28876,38.0,24,15,9.0,0.0
28877,53.0,32,40,15.0,0.0
28878,50.0,0,150,2.0,0.0
28879,38.0,8,15,9.0,0.0
28880,38.0,16,30,9.0,0.0
28881,63.0,0,40,3.0,0.0
28882,63.0,0,40,14.0,0.0
28883,51.0,0,40,3.0,0.0
28884,51.0,32,40,15.0,0.0
28885,62.0,0,40,14.0,0.0
28886,50.0,0,40,3.0,0.0
28887,50.0,0,40,15.0,0.0
28888,62.0,0,40,3.0,0.0
28889,38.0,16,30,9.0,0.0
28890,38.0,16,30,9.0,0.0
28891,48.0,16,40,15.0,0.0
28892,48.0,0,40,3.0,0.0
28893,60.0,0,40,14.0,0.0
28894,60.0,0,40,3.0,0.0
28895,65.0,0,330,6.0,0.0
28896,65.0,0,330,4.0,0.0
28897,46.0,0,40,3.0,0.0
28898,89.0,0,330,0.0,0.0
28899,58.0,32,40,14.0,0.0
28900,38.0,24,15,9.0,0.0
28901,77.0,0,330,5.0,0.0
28902,77.0,16,330,10.0,0.0
28903,46.0,0,40,15.0,0.0
28904,58.0,0,40,3.0,0.0
28905,65.0,0,330,10.0,0.0
28906,89.0,0,330,11.0,0.0
28907,77.0,0,330,1.0,0.0
28908,38.0,8,15,9.0,0.0
28909,72.0,0,40,13.0,0.0
28910,38.0,16,30,9.0,0.0
28911,57.0,0,40,14.0,0.0
28912,45.0,0,40,15.0,0.0
28913,45.0,0,40,3.0,0.0
28914,48.0,0,40,2.0,0.0
28915,57.0,32,40,3.0,0.0
28916,43.0,0,40,15.0,0.0
28917,55.0,0,40,3.0,0.0
28918,70.0,0,40,13.0,0.0
28919,38.0,16,30,9.0,0.0
28920,43.0,0,40,3.0,0.0
28921,55.0,0,40,14.0,0.0
28922,46.0,0,40,2.0,0.0
28923,38.0,14,30,9.0,0.0
28924,41.0,0,40,3.0,0.0
28925,41.0,16,40,15.0,0.0
28926,48.0,2,40,2.0,0.0
28927,72.0,0,40,13.0,0.0
28928,53.0,0,40,14.0,0.0
28929,57.0,0,40,14.0,0.0
28930,53.0,0,40,3.0,0.0
28931,57.0,0,40,3.0,0.0
28932,55.0,0,40,14.0,0.0
28933,58.0,0,40,14.0,0.0
28934,70.0,0,150,13.0,0.0
28935,43.0,0,40,3.0,0.0
28936,38.0,24,15,9.0,0.0
28937,65.0,16,360,5.0,0.0
28938,65.0,0,360,2.0,0.0
28939,53.0,0,360,6.0,0.0
28940,53.0,0,360,4.0,0.0
28941,53.0,0,360,7.0,0.0
28942,77.0,0,360,12.0,0.0
28943,55.0,0,40,3.0,0.0
28944,58.0,32,40,3.0,0.0
28945,46.0,16,150,2.0,0.0
28946,43.0,0,40,15.0,0.0
28947,38.0,8,15,9.0,0.0
28948,57.0,0,40,3.0,0.0
28949,45.0,0,40,3.0,0.0
28950,57.0,0,40,14.0,0.0
28951,45.0,32,40,15.0,0.0
28952,38.0,16,30,9.0,0.0
28953,60.0,0,40,3.0,0.0
28954,60.0,0,40,14.0,0.0
28955,46.0,0,40,3.0,0.0
28956,58.0,0,40,3.0,0.0
28957,62.0,0,40,3.0,0.0
28958,46.0,0,40,15.0,0.0
28959,62.0,0,40,14.0,0.0
28960,38.0,16,30,9.0,0.0
28961,58.0,0,40,14.0,0.0
28962,48.0,0,40,3.0,0.0
28963,48.0,0,40,15.0,0.0
28964,63.0,0,40,14.0,0.0
28965,60.0,16,40,14.0,0.0
28966,63.0,0,40,3.0,0.0
28967,60.0,0,40,3.0,0.0
28968,38.0,16,30,9.0,0.0
28969,77.0,0,330,1.0,0.0
28970,77.0,0,330,10.0,0.0
28971,65.0,0,330,10.0,0.0
28972,62.0,0,40,14.0,0.0
28973,50.0,34,40,15.0,0.0
28974,89.0,0,330,11.0,0.0
28975,77.0,16,330,5.0,0.0
28976,50.0,0,40,3.0,0.0
28977,65.0,0,330,6.0,0.0
28978,38.0,24,15,9.0,0.0
28979,62.0,0,40,3.0,0.0
28980,89.0,0,330,0.0,0.0
28981,65.0,0,330,4.0,0.0
28982,38.0,6,15,9.0,0.0
28983,53.0,0,40,3.0,0.0
28984,41.0,0,40,3.0,0.0
28985,41.0,0,40,15.0,0.0
28986,53.0,0,40,14.0,0.0
28987,74.0,0,40,13.0,0.0
28988,50.0,32,40,2.0,0.0
28989,38.0,16,30,9.0,0.0
28990,39.0,16,40,15.0,0.0
28991,51.0,0,40,14.0,0.0
28992,39.0,0,40,3.0,0.0
28993,51.0,0,40,3.0,0.0
28994,72.0,0,40,13.0,0.0
28995,38.0,16,30,9.0,0.0
28996,48.0,0,40,2.0,0.0
28997,50.0,2,40,2.0,0.0
28998,50.0,0,40,14.0,0.0
28999,38.0,14,30,9.0,0.0
29000,50.0,0,40,3.0,0.0
29001,38.0,0,40,3.0,0.0
29002,38.0,16,40,15.0,0.0
29003,74.0,0,40,13.0,0.0
29004,48.0,16,150,2.0,0.0
29005,53.0,0,330,4.0,0.0
29006,53.0,0,330,6.0,0.0
29007,39.0,0,40,3.0,0.0
29008,51.0,0,40,3.0,0.0
29009,39.0,0,40,15.0,0.0
29010,77.0,0,330,12.0,0.0
29011,51.0,32,40,14.0,0.0
29012,53.0,0,330,7.0,0.0
29013,72.0,0,150,13.0,0.0
29014,65.0,32,330,2.0,0.0
29015,38.0,24,15,9.0,0.0
29016,38.0,8,15,9.0,0.0
29017,38.0,0,40,15.0,0.0
29018,50.0,32,40,3.0,0.0
29019,38.0,0,40,3.0,0.0
29020,38.0,16,30,9.0,0.0
29021,50.0,0,40,14.0,0.0
29022,38.0,16,30,9.0,0.0
29023,48.0,0,40,14.0,0.0
29024,36.0,0,40,3.0,0.0
29025,36.0,0,40,15.0,0.0
29026,48.0,0,40,3.0,0.0
29027,34.0,0,40,3.0,0.0
29028,34.0,0,40,15.0,0.0
29029,46.0,0,40,14.0,0.0
29030,46.0,16,40,3.0,0.0
29031,38.0,16,30,9.0,0.0
29032,33.0,0,40,3.0,0.0
29033,65.0,16,330,6.0,0.0
29034,45.0,0,40,14.0,0.0
29035,89.0,0,330,0.0,0.0
29036,89.0,0,330,11.0,0.0
29037,77.0,0,330,1.0,0.0
29038,77.0,0,330,5.0,0.0
29039,65.0,0,330,10.0,0.0
29040,77.0,0,330,10.0,0.0
29041,65.0,0,330,4.0,0.0
29042,38.0,24,15,9.0,0.0
29043,33.0,32,40,15.0,0.0
29044,45.0,0,40,3.0,0.0
29045,38.0,8,15,9.0,0.0
29046,38.0,16,30,9.0,0.0
29047,31.0,0,40,15.0,0.0
29048,43.0,0,40,3.0,0.0
29049,31.0,32,40,3.0,0.0
29050,43.0,0,40,14.0,0.0
29051,46.0,0,40,2.0,0.0
29052,70.0,0,40,13.0,0.0
29053,29.0,0,40,15.0,0.0
29054,41.0,0,40,14.0,0.0
29055,69.0,0,40,13.0,0.0
29056,38.0,16,30,9.0,0.0
29057,41.0,0,40,3.0,0.0
29058,29.0,0,40,3.0,0.0
29059,45.0,0,40,2.0,0.0
29060,28.0,0,40,15.0,0.0
29061,31.0,16,40,15.0,0.0
29062,46.0,2,40,2.0,0.0
29063,40.0,0,40,14.0,0.0
29064,40.0,0,40,3.0,0.0
29065,43.0,0,40,3.0,0.0
29066,43.0,0,40,14.0,0.0
29067,70.0,0,40,13.0,0.0
29068,28.0,0,40,3.0,0.0
29069,38.0,14,30,9.0,0.0
29070,45.0,0,40,3.0,0.0
29071,41.0,0,40,14.0,0.0
29072,69.0,16,150,13.0,0.0
29073,45.0,32,40,14.0,0.0
29074,53.0,0,360,6.0,0.0
29075,41.0,0,40,3.0,0.0
29076,65.0,0,540,5.0,0.0
29077,53.0,0,360,7.0,0.0
29078,77.0,0,360,12.0,0.0
29079,53.0,0,360,4.0,0.0
29080,38.0,24,15,9.0,0.0
29081,29.0,0,40,3.0,0.0
29082,45.0,0,150,2.0,0.0
29083,33.0,0,40,15.0,0.0
29084,29.0,0,40,15.0,0.0
29085,65.0,16,360,2.0,0.0
29086,38.0,8,15,9.0,0.0
29087,31.0,32,40,3.0,0.0
29088,46.0,0,40,3.0,0.0
29089,43.0,0,40,3.0,0.0
29090,34.0,0,40,15.0,0.0
29091,31.0,0,40,15.0,0.0
29092,38.0,16,30,9.0,0.0
29093,43.0,0,40,14.0,0.0
29094,46.0,0,40,14.0,0.0
29095,45.0,0,40,14.0,0.0
29096,36.0,0,40,15.0,0.0
29097,45.0,0,40,3.0,0.0
29098,48.0,0,40,3.0,0.0
29099,38.0,16,30,9.0,0.0
29100,48.0,0,40,14.0,0.0
29101,33.0,0,40,15.0,0.0
29102,33.0,0,40,3.0,0.0
29103,46.0,0,40,3.0,0.0
29104,50.0,0,40,3.0,0.0
29105,38.0,0,40,15.0,0.0
29106,34.0,16,40,3.0,0.0
29107,34.0,0,40,15.0,0.0
29108,38.0,16,30,9.0,0.0
29109,50.0,0,40,14.0,0.0
29110,46.0,0,40,14.0,0.0
29111,65.0,16,330,6.0,0.0
29112,48.0,0,40,3.0,0.0
29113,38.0,24,15,9.0,0.0
29114,89.0,0,330,11.0,0.0
29115,40.0,0,40,15.0,0.0
29116,36.0,0,40,15.0,0.0
29117,89.0,0,330,0.0,0.0
29118,48.0,0,40,14.0,0.0
29119,77.0,0,330,1.0,0.0
29120,52.0,0,40,3.0,0.0
29121,77.0,0,330,5.0,0.0
29122,65.0,0,330,4.0,0.0
29123,36.0,0,40,3.0,0.0
29124,52.0,16,40,14.0,0.0
29125,65.0,0,330,10.0,0.0
29126,77.0,0,330,10.0,0.0
29127,38.0,8,15,9.0,0.0
29128,38.0,0,40,15.0,0.0
29129,41.0,32,40,15.0,0.0
29130,48.0,0,40,2.0,0.0
29131,50.0,0,40,3.0,0.0
29132,38.0,0,40,3.0,0.0
29133,53.0,0,40,3.0,0.0
29134,53.0,0,40,14.0,0.0
29135,38.0,24,15,9.0,0.0
29136,72.0,0,40,13.0,0.0
29137,50.0,0,40,14.0,0.0
29138,38.0,8,15,9.0,0.0
29139,52.0,0,40,3.0,0.0
29140,55.0,0,40,3.0,0.0
29141,43.0,0,40,15.0,0.0
29142,40.0,0,40,15.0,0.0
29143,46.0,0,40,2.0,0.0
29144,70.0,16,40,13.0,0.0
29145,55.0,0,40,14.0,0.0
29146,40.0,0,40,3.0,0.0
29147,38.0,16,30,9.0,0.0
29148,52.0,0,40,14.0,0.0
29149,57.0,0,40,14.0,0.0
29150,53.0,0,40,3.0,0.0
29151,57.0,0,40,3.0,0.0
29152,53.0,0,40,14.0,0.0
29153,45.0,0,40,15.0,0.0
29154,41.0,16,40,15.0,0.0
29155,41.0,0,40,3.0,0.0
29156,48.0,2,40,2.0,0.0
29157,72.0,0,40,13.0,0.0
29158,38.0,14,30,9.0,0.0
29159,53.0,0,330,4.0,0.0
29160,53.0,0,330,6.0,0.0
29161,77.0,0,330,12.0,0.0
29162,43.0,0,40,3.0,0.0
29163,46.0,0,40,15.0,0.0
29164,43.0,0,40,15.0,0.0
29165,65.0,0,330,2.0,0.0
29166,70.0,16,150,13.0,0.0
29167,55.0,0,40,14.0,0.0
29168,58.0,0,40,3.0,0.0
29169,55.0,16,40,3.0,0.0
29170,38.0,24,15,9.0,0.0
29171,46.0,0,150,2.0,0.0
29172,53.0,0,330,7.0,0.0
29173,58.0,0,40,14.0,0.0
29174,38.0,8,15,9.0,0.0
29175,45.0,0,40,3.0,0.0
29176,60.0,0,40,14.0,0.0
29177,57.0,0,40,14.0,0.0
29178,57.0,32,40,3.0,0.0
29179,45.0,0,40,15.0,0.0
29180,48.0,0,40,15.0,0.0
29181,38.0,24,15,9.0,0.0
29182,60.0,0,40,3.0,0.0
29183,38.0,8,15,9.0,0.0
29184,58.0,0,40,14.0,0.0
29185,62.0,0,40,14.0,0.0
29186,38.0,16,30,9.0,0.0
29187,58.0,0,40,3.0,0.0
29188,46.0,0,40,3.0,0.0
29189,62.0,0,40,3.0,0.0
29190,46.0,0,40,15.0,0.0
29191,50.0,0,40,15.0,0.0
29192,48.0,16,40,3.0,0.0
29193,52.0,0,40,15.0,0.0
29194,48.0,0,40,15.0,0.0
29195,38.0,16,30,9.0,0.0
29196,60.0,0,40,14.0,0.0
29197,64.0,0,40,14.0,0.0
29198,64.0,0,40,3.0,0.0
29199,60.0,0,40,3.0,0.0
29200,38.0,24,15,9.0,0.0
29201,89.0,0,330,0.0,0.0
29202,89.0,16,150,11.0,0.0
29203,77.0,0,330,1.0,0.0
29204,65.0,0,40,3.0,0.0
29205,65.0,0,330,10.0,0.0
29206,50.0,0,40,15.0,0.0
29207,53.0,0,40,15.0,0.0
29208,62.0,0,40,3.0,0.0
29209,77.0,0,330,10.0,0.0
29210,50.0,16,40,3.0,0.0
29211,77.0,0,330,5.0,0.0
29212,65.0,0,40,14.0,0.0
29213,62.0,0,40,14.0,0.0
29214,65.0,0,330,4.0,0.0
29215,38.0,8,15,9.0,0.0
29216,48.0,0,40,15.0,0.0
29217,45.0,0,40,2.0,0.0
29218,64.0,0,40,3.0,0.0
29219,60.0,32,40,14.0,0.0
29220,64.0,0,40,14.0,0.0
29221,48.0,0,40,3.0,0.0
29222,69.0,0,40,13.0,0.0
29223,38.0,24,15,9.0,0.0
29224,52.0,0,40,15.0,0.0
29225,60.0,0,40,3.0,0.0
29226,38.0,8,15,9.0,0.0
29227,62.0,0,40,3.0,0.0
29228,38.0,16,30,9.0,0.0
29229,43.0,0,40,2.0,0.0
29230,46.0,0,40,15.0,0.0
29231,46.0,0,40,3.0,0.0
29232,62.0,0,40,14.0,0.0
29233,67.0,16,40,13.0,0.0
29234,58.0,0,40,3.0,0.0
29235,58.0,0,40,14.0,0.0
29236,50.0,0,40,15.0,0.0
29237,45.0,2,40,2.0,0.0
29238,57.0,0,40,3.0,0.0
29239,60.0,0,40,3.0,0.0
29240,69.0,0,40,13.0,0.0
29241,45.0,0,40,3.0,0.0
29242,45.0,0,40,15.0,0.0
29243,48.0,0,40,15.0,0.0
29244,57.0,0,40,14.0,0.0
29245,60.0,16,40,14.0,0.0
29246,38.0,14,30,9.0,0.0
29247,58.0,0,40,3.0,0.0
29248,46.0,0,40,3.0,0.0
29249,67.0,16,150,13.0,0.0
29250,49.0,0,40,15.0,0.0
29251,46.0,0,40,15.0,0.0
29252,61.0,0,40,3.0,0.0
29253,38.0,24,15,9.0,0.0
29254,58.0,16,40,14.0,0.0
29255,65.0,0,360,5.0,0.0
29256,53.0,0,360,7.0,0.0
29257,53.0,0,360,4.0,0.0
29258,43.0,0,150,2.0,0.0
29259,53.0,16,360,6.0,0.0
29260,61.0,0,40,14.0,0.0
29261,38.0,8,15,9.0,0.0
29262,51.0,0,40,15.0,0.0
29263,63.0,0,40,14.0,0.0
29264,38.0,24,15,9.0,0.0
29265,63.0,0,40,3.0,0.0
29266,51.0,32,40,3.0,0.0
29267,38.0,8,15,9.0,0.0
29268,61.0,0,40,3.0,0.0
29269,58.0,0,40,3.0,0.0
29270,58.0,0,40,14.0,0.0
29271,46.0,16,40,15.0,0.0
29272,61.0,0,40,14.0,0.0
29273,38.0,16,30,9.0,0.0
29274,46.0,0,40,3.0,0.0
29275,52.0,0,40,3.0,0.0
29276,38.0,16,30,9.0,0.0
29277,52.0,16,40,15.0,0.0
29278,64.0,0,40,14.0,0.0
29279,64.0,0,40,3.0,0.0
29280,41.0,0,150,3.0,0.0
29281,65.0,0,40,13.0,0.0
29282,65.0,0,330,4.0,0.0
29283,65.0,16,330,10.0,0.0
29284,77.0,0,330,10.0,0.0
29285,53.0,0,150,3.0,0.0
29286,38.0,24,15,9.0,0.0
29287,57.0,0,40,12.0,0.0
29288,41.0,0,150,14.0,0.0
29289,49.0,0,330,9.0,0.0
29290,65.0,18,40,11.0,0.0
29291,60.0,0,40,11.0,0.0
29292,29.0,0,150,15.0,0.0
29293,38.0,6,15,9.0,0.0
29294,53.0,0,40,13.0,0.0
29295,74.0,0,40,11.0,0.0
29296,38.0,24,15,9.0,0.0
29297,74.0,0,40,12.0,0.0
29298,41.0,0,40,2.0,0.0
29299,74.0,0,40,0.0,0.0
29300,65.0,32,40,2.0,0.0
29301,38.0,8,15,9.0,0.0
29302,75.0,0,40,11.0,0.0
29303,75.0,0,40,12.0,0.0
29304,38.0,16,30,9.0,0.0
29305,75.0,0,40,0.0,0.0
29306,67.0,16,40,2.0,0.0
29307,43.0,0,40,2.0,0.0
29308,55.0,0,40,13.0,0.0
29309,77.0,0,40,0.0,0.0
29310,65.0,0,40,2.0,0.0
29311,38.0,14,30,9.0,0.0
29312,41.0,2,40,2.0,0.0
29313,77.0,0,40,11.0,0.0
29314,77.0,16,40,12.0,0.0
29315,53.0,0,40,13.0,0.0
29316,65.0,0,150,6.0,0.0
29317,65.0,16,150,3.0,0.0
29318,43.0,0,150,2.0,0.0
29319,65.0,0,150,14.0,0.0
29320,55.0,0,150,13.0,0.0
29321,75.0,0,40,11.0,0.0
29322,38.0,24,15,9.0,0.0
29323,75.0,16,40,12.0,0.0
29324,53.0,0,330,7.0,0.0
29325,55.0,0,150,6.0,0.0
29326,53.0,0,330,6.0,0.0
29327,53.0,0,330,4.0,0.0
29328,75.0,0,40,0.0,0.0
29329,53.0,0,150,15.0,0.0
29330,67.0,0,150,2.0,0.0
29331,65.0,0,330,5.0,0.0
29332,38.0,8,15,9.0,0.0
29333,77.0,0,40,11.0,0.0
29334,77.0,32,40,0.0,0.0
29335,38.0,24,15,9.0,0.0
29336,77.0,0,40,12.0,0.0
29337,38.0,8,15,9.0,0.0
29338,38.0,16,30,9.0,0.0
29339,79.0,0,40,11.0,0.0
29340,79.0,0,40,12.0,0.0
29341,79.0,0,40,0.0,0.0
29342,81.0,16,40,12.0,0.0
29343,81.0,0,40,0.0,0.0
29344,81.0,0,40,11.0,0.0
29345,38.0,16,30,9.0,0.0
29346,38.0,24,15,9.0,0.0
29347,82.0,0,40,11.0,0.0
29348,65.0,0,330,10.0,0.0
29349,77.0,0,330,10.0,0.0
29350,41.0,16,150,3.0,0.0
29351,41.0,0,150,14.0,0.0
29352,82.0,16,40,0.0,0.0
29353,29.0,0,150,15.0,0.0
29354,29.0,0,150,3.0,0.0
29355,82.0,0,40,12.0,0.0
29356,38.0,8,15,9.0,0.0
29357,84.0,0,40,11.0,0.0
29358,84.0,32,40,12.0,0.0
29359,57.0,0,40,13.0,0.0
29360,84.0,0,40,0.0,0.0
29361,69.0,0,40,2.0,0.0
29362,38.0,24,15,9.0,0.0
29363,45.0,0,40,2.0,0.0
29364,38.0,8,15,9.0,0.0
29365,58.0,0,40,13.0,0.0
29366,86.0,0,40,12.0,0.0
29367,38.0,16,30,9.0,0.0
29368,46.0,0,40,2.0,0.0
29369,86.0,0,40,11.0,0.0
29370,86.0,0,40,0.0,0.0
29371,70.0,16,40,2.0,0.0
29372,87.0,0,40,0.0,0.0
29373,57.0,0,40,13.0,0.0
29374,45.0,2,40,2.0,0.0
29375,69.0,0,40,2.0,0.0
29376,84.0,0,40,12.0,0.0
29377,38.0,14,30,9.0,0.0
29378,87.0,0,40,11.0,0.0
29379,84.0,16,40,0.0,0.0
29380,65.0,16,150,14.0,0.0
29381,58.0,0,150,13.0,0.0
29382,86.0,0,40,11.0,0.0
29383,38.0,24,15,9.0,0.0
29384,65.0,0,150,3.0,0.0
29385,58.0,0,150,6.0,0.0
29386,70.0,0,150,2.0,0.0
29387,53.0,0,150,15.0,0.0
29388,82.0,16,40,12.0,0.0
29389,65.0,0,150,6.0,0.0
29390,86.0,0,40,0.0,0.0
29391,46.0,0,150,2.0,0.0
29392,53.0,0,360,4.0,0.0
29393,82.0,0,40,0.0,0.0
29394,38.0,8,15,9.0,0.0
29395,84.0,32,40,11.0,0.0
29396,38.0,24,15,9.0,0.0
29397,84.0,0,40,0.0,0.0
29398,81.0,0,40,0.0,0.0
29399,81.0,0,40,12.0,0.0
29400,38.0,8,15,9.0,0.0
29401,79.0,0,40,12.0,0.0
29402,38.0,16,30,9.0,0.0
29403,82.0,0,40,11.0,0.0
29404,82.0,0,40,0.0,0.0
29405,79.0,16,40,0.0,0.0
29406,77.0,0,40,12.0,0.0
29407,81.0,16,40,11.0,0.0
29408,38.0,16,30,9.0,0.0
29409,81.0,0,40,0.0,0.0
29410,77.0,0,40,0.0,0.0
29411,75.0,0,40,12.0,0.0
29412,41.0,0,150,3.0,0.0
29413,49.0,0,330,9.0,0.0
29414,29.0,0,150,15.0,0.0
29415,29.0,0,150,3.0,0.0
29416,41.0,16,150,14.0,0.0
29417,75.0,0,40,0.0,0.0
29418,38.0,24,15,9.0,0.0
29419,79.0,18,40,0.0,0.0
29420,65.0,16,330,10.0,0.0
29421,77.0,0,330,10.0,0.0
29422,79.0,0,40,11.0,0.0
29423,38.0,6,15,9.0,0.0
29424,63.0,0,40,12.0,0.0
29425,63.0,0,40,1.0,0.0
29426,43.0,0,40,2.0,0.0
29427,63.0,0,40,0.0,0.0
29428,67.0,0,40,2.0,0.0
29429,38.0,24,15,9.0,0.0
29430,55.0,0,40,13.0,0.0
29431,63.0,32,40,11.0,0.0
29432,38.0,8,15,9.0,0.0
29433,65.0,0,40,11.0,0.0
29434,69.0,16,40,2.0,0.0
29435,45.0,0,40,2.0,0.0
29436,57.0,0,40,13.0,0.0
29437,65.0,0,40,12.0,0.0
29438,65.0,0,40,1.0,0.0
29439,38.0,16,30,9.0,0.0
29440,65.0,0,40,0.0,0.0
29441,55.0,0,40,13.0,0.0
29442,67.0,16,40,1.0,0.0
29443,67.0,0,40,0.0,0.0
29444,67.0,0,40,11.0,0.0
29445,67.0,0,40,12.0,0.0
29446,67.0,0,40,2.0,0.0
29447,38.0,14,30,9.0,0.0
29448,43.0,2,40,2.0,0.0
29449,38.0,24,15,9.0,0.0
29450,57.0,16,150,13.0,0.0
29451,65.0,0,40,0.0,0.0
29452,65.0,0,150,14.0,0.0
29453,65.0,0,40,12.0,0.0
29454,53.0,0,330,4.0,0.0
29455,69.0,0,150,2.0,0.0
29456,57.0,0,150,6.0,0.0
29457,45.0,0,150,2.0,0.0
29458,53.0,0,150,15.0,0.0
29459,65.0,0,150,3.0,0.0
29460,65.0,0,40,1.0,0.0
29461,65.0,16,40,11.0,0.0
29462,65.0,0,150,6.0,0.0
29463,38.0,8,15,9.0,0.0
29464,67.0,32,40,0.0,0.0
29465,67.0,0,40,12.0,0.0
29466,38.0,24,15,9.0,0.0
29467,67.0,0,40,11.0,0.0
29468,67.0,0,40,1.0,0.0
29469,38.0,8,15,9.0,0.0
29470,69.0,0,40,12.0,0.0
29471,69.0,0,40,1.0,0.0
29472,69.0,0,40,0.0,0.0
29473,69.0,0,40,11.0,0.0
29474,38.0,16,30,9.0,0.0
29475,70.0,0,40,0.0,0.0
29476,70.0,16,40,12.0,0.0
29477,70.0,0,40,11.0,0.0
29478,38.0,16,30,9.0,0.0
29479,70.0,0,40,1.0,0.0
29480,72.0,0,40,1.0,0.0
29481,29.0,0,150,15.0,0.0
29482,29.0,16,150,3.0,0.0
29483,41.0,0,150,3.0,0.0
29484,72.0,16,40,11.0,0.0
29485,72.0,0,40,0.0,0.0
29486,65.0,0,330,10.0,0.0
29487,72.0,0,40,12.0,0.0
29488,77.0,0,330,10.0,0.0
29489,41.0,0,150,14.0,0.0
29490,38.0,24,15,9.0,0.0
29491,38.0,8,15,9.0,0.0
29492,38.0,24,15,9.0,0.0
29493,46.0,0,40,2.0,0.0
29494,74.0,32,40,11.0,0.0
29495,74.0,0,40,12.0,0.0
29496,74.0,0,40,1.0,0.0
29497,58.0,0,40,13.0,0.0
29498,74.0,0,40,0.0,0.0
29499,70.0,0,40,2.0,0.0
29500,38.0,8,15,9.0,0.0
29501,48.0,0,40,2.0,0.0
29502,38.0,16,30,9.0,0.0
29503,60.0,0,40,13.0,0.0
29504,75.0,0,40,0.0,0.0
29505,72.0,0,40,2.0,0.0
29506,75.0,0,40,12.0,0.0
29507,75.0,16,40,11.0,0.0
29508,75.0,0,40,1.0,0.0
29509,74.0,0,40,0.0,0.0
29510,77.0,0,40,0.0,0.0
29511,58.0,0,40,13.0,0.0
29512,46.0,0,40,2.0,0.0
29513,74.0,0,40,1.0,0.0
29514,74.0,0,40,12.0,0.0
29515,38.0,14,30,9.0,0.0
29516,70.0,2,40,2.0,0.0
29517,77.0,0,40,11.0,0.0
29518,77.0,16,40,1.0,0.0
29519,75.0,0,40,11.0,0.0
29520,60.0,0,150,6.0,0.0
29521,72.0,16,150,2.0,0.0
29522,65.0,0,150,14.0,0.0
29523,65.0,0,150,6.0,0.0
29524,53.0,0,150,15.0,0.0
29525,65.0,0,150,3.0,0.0
29526,72.0,0,40,0.0,0.0
29527,60.0,0,150,13.0,0.0
29528,38.0,24,15,9.0,0.0
29529,75.0,0,40,0.0,0.0
29530,72.0,0,40,12.0,0.0
29531,48.0,0,150,2.0,0.0
29532,75.0,16,40,1.0,0.0
29533,53.0,0,360,4.0,0.0
29534,72.0,0,40,1.0,0.0
29535,38.0,8,15,9.0,0.0
29536,74.0,0,40,11.0,0.0
29537,74.0,0,40,0.0,0.0
29538,70.0,0,40,1.0,0.0
29539,70.0,32,40,12.0,0.0
29540,74.0,0,40,1.0,0.0
29541,38.0,24,15,9.0,0.0
29542,70.0,0,40,0.0,0.0
29543,38.0,8,15,9.0,0.0
29544,72.0,0,40,11.0,0.0
29545,72.0,0,40,0.0,0.0
29546,69.0,0,40,0.0,0.0
29547,69.0,0,40,1.0,0.0
29548,69.0,16,40,12.0,0.0
29549,72.0,0,40,1.0,0.0
29550,38.0,16,30,9.0,0.0
29551,67.0,0,40,1.0,0.0
29552,67.0,0,40,12.0,0.0
29553,67.0,0,40,0.0,0.0
29554,70.0,0,40,11.0,0.0
29555,38.0,16,30,9.0,0.0
29556,70.0,16,40,1.0,0.0
29557,70.0,0,40,0.0,0.0
29558,41.0,0,150,3.0,0.0
29559,38.0,24,15,9.0,0.0
29560,29.0,0,150,15.0,0.0
29561,69.0,0,40,0.0,0.0
29562,65.0,0,40,0.0,0.0
29563,77.0,0,330,10.0,0.0
29564,65.0,0,330,10.0,0.0
29565,69.0,18,40,11.0,0.0
29566,65.0,0,40,12.0,0.0
29567,49.0,0,330,9.0,0.0
29568,65.0,0,40,1.0,0.0
29569,69.0,0,40,1.0,0.0
29570,41.0,0,150,14.0,0.0
29571,29.0,16,150,3.0,0.0
29572,38.0,6,15,9.0,0.0
29573,69.0,0,40,2.0,0.0
29574,77.0,0,40,0.0,0.0
29575,65.0,0,40,1.0,0.0
29576,38.0,24,15,9.0,0.0
29577,77.0,0,40,11.0,0.0
29578,45.0,0,40,2.0,0.0
29579,57.0,32,40,13.0,0.0
29580,77.0,0,40,12.0,0.0
29581,38.0,8,15,9.0,0.0
29582,79.0,16,40,12.0,0.0
29583,79.0,0,40,11.0,0.0
29584,67.0,0,40,1.0,0.0
29585,79.0,0,40,0.0,0.0
29586,38.0,16,30,9.0,0.0
29587,70.0,0,40,2.0,0.0
29588,58.0,0,40,13.0,0.0
29589,46.0,0,40,2.0,0.0
29590,38.0,14,30,9.0,0.0
29591,57.0,0,40,13.0,0.0
29592,45.0,0,40,2.0,0.0
29593,81.0,0,40,0.0,0.0
29594,69.0,0,40,1.0,0.0
29595,81.0,0,40,12.0,0.0
29596,69.0,2,40,2.0,0.0
29597,81.0,16,40,11.0,0.0
29598,53.0,0,150,15.0,0.0
29599,79.0,0,40,12.0,0.0
29600,70.0,0,150,2.0,0.0
29601,67.0,0,40,1.0,0.0
29602,58.0,0,150,13.0,0.0
29603,38.0,24,15,9.0,0.0
29604,79.0,0,40,11.0,0.0
29605,53.0,0,330,4.0,0.0
29606,65.0,0,150,3.0,0.0
29607,58.0,0,150,6.0,0.0
29608,65.0,0,150,6.0,0.0
29609,46.0,16,150,2.0,0.0
29610,65.0,0,150,14.0,0.0
29611,79.0,16,40,0.0,0.0
29612,38.0,8,15,9.0,0.0
29613,81.0,0,40,12.0,0.0
29614,69.0,32,40,1.0,0.0
29615,81.0,0,40,11.0,0.0
29616,81.0,0,40,0.0,0.0
29617,38.0,24,15,9.0,0.0
29618,38.0,8,15,9.0,0.0
29619,70.0,16,40,1.0,0.0
29620,82.0,0,40,12.0,0.0
29621,38.0,16,30,9.0,0.0
29622,82.0,0,40,0.0,0.0
29623,82.0,0,40,11.0,0.0
29624,84.0,0,40,12.0,0.0
29625,84.0,0,40,0.0,0.0
29626,84.0,16,40,11.0,0.0
29627,72.0,0,40,1.0,0.0
29628,38.0,16,30,9.0,0.0
29629,41.0,16,150,3.0,0.0
29630,29.0,0,150,15.0,0.0
29631,74.0,0,40,1.0,0.0
29632,86.0,0,40,12.0,0.0
29633,86.0,0,40,0.0,0.0
29634,86.0,16,40,11.0,0.0
29635,38.0,24,15,9.0,0.0
29636,29.0,0,150,3.0,0.0
29637,41.0,0,150,14.0,0.0
29638,77.0,0,330,10.0,0.0
29639,65.0,0,330,10.0,0.0
29640,38.0,8,15,9.0,0.0
29641,72.0,0,40,2.0,0.0
29642,48.0,0,40,2.0,0.0
29643,60.0,32,40,13.0,0.0
29644,87.0,0,40,12.0,0.0
29645,75.0,0,40,1.0,0.0
29646,87.0,0,40,0.0,0.0
29647,87.0,0,40,11.0,0.0
29648,38.0,24,15,9.0,0.0
29649,38.0,8,15,9.0,0.0
29650,89.0,0,40,12.0,0.0
29651,50.0,0,40,2.0,0.0
29652,77.0,0,40,1.0,0.0
29653,89.0,0,40,11.0,0.0
29654,38.0,16,30,9.0,0.0
29655,62.0,0,40,13.0,0.0
29656,89.0,0,40,0.0,0.0
29657,74.0,0,40,2.0,0.0
29658,79.0,0,40,1.0,0.0
29659,87.0,0,40,12.0,0.0
29660,91.0,0,40,11.0,0.0
29661,48.0,0,40,2.0,0.0
29662,75.0,0,40,1.0,0.0
29663,72.0,2,40,2.0,0.0
29664,60.0,0,40,13.0,0.0
29665,38.0,14,30,9.0,0.0
29666,87.0,16,40,0.0,0.0
29667,91.0,0,40,0.0,0.0
29668,77.0,0,40,1.0,0.0
29669,62.0,0,150,13.0,0.0
29670,86.0,0,40,12.0,0.0
29671,65.0,0,150,14.0,0.0
29672,53.0,0,540,4.0,0.0
29673,74.0,0,150,2.0,0.0
29674,89.0,0,40,11.0,0.0
29675,74.0,16,40,1.0,0.0
29676,50.0,0,150,2.0,0.0
29677,65.0,0,150,3.0,0.0
29678,86.0,0,40,0.0,0.0
29679,89.0,0,40,0.0,0.0
29680,53.0,0,150,15.0,0.0
29681,65.0,0,150,6.0,0.0
29682,62.0,24,150,6.0,0.0
29683,38.0,24,15,9.0,0.0
29684,38.0,8,15,9.0,0.0
29685,72.0,0,40,1.0,0.0
29686,84.0,0,40,0.0,0.0
29687,87.0,0,40,0.0,0.0
29688,75.0,16,40,1.0,0.0
29689,84.0,0,40,12.0,0.0
29690,87.0,0,40,11.0,0.0
29691,38.0,24,15,9.0,0.0
29692,38.0,8,15,9.0,0.0
29693,86.0,16,40,11.0,0.0
29694,82.0,0,40,12.0,0.0
29695,82.0,0,40,0.0,0.0
29696,38.0,24,15,9.0,0.0
29697,70.0,0,40,1.0,0.0
29698,74.0,0,40,1.0,0.0
29699,86.0,0,40,0.0,0.0
29700,38.0,8,15,9.0,0.0
29701,84.0,0,40,0.0,0.0
29702,80.0,0,40,0.0,0.0
29703,68.0,0,40,1.0,0.0
29704,38.0,0,15,9.0,0.0
29705,80.0,2,40,12.0,0.0
29706,84.0,16,40,11.0,0.0
29707,72.0,0,40,1.0,0.0
29708,38.0,6,15,9.0,0.0
29709,49.0,16,330,9.0,0.0
29710,29.0,24,150,15.0,0.0
29711,71.0,0,40,1.0,0.0
29712,83.0,0,40,11.0,0.0
29713,38.0,24,15,9.0,0.0
29714,67.0,0,40,1.0,0.0
29715,77.0,0,330,10.0,0.0
29716,65.0,0,330,10.0,0.0
29717,79.0,18,40,12.0,0.0
29718,41.0,0,150,14.0,0.0
29719,79.0,0,40,0.0,0.0
29720,41.0,0,150,3.0,0.0
29721,83.0,0,40,0.0,0.0
29722,29.0,0,150,3.0,0.0
29723,38.0,6,15,9.0,0.0
29724,38.0,24,15,9.0,0.0
29725,59.0,0,40,13.0,0.0
29726,71.0,0,40,2.0,0.0
29727,77.0,0,40,1.0,0.0
29728,80.0,0,40,1.0,0.0
29729,89.0,2,40,12.0,0.0
29730,92.0,0,40,0.0,0.0
29731,47.0,0,40,2.0,0.0
29732,89.0,16,40,0.0,0.0
29733,92.0,0,40,11.0,0.0
29734,38.0,6,15,9.0,0.0
29735,48.0,0,40,2.0,0.0
29736,60.0,0,40,13.0,0.0
29737,87.0,2,40,12.0,0.0
29738,75.0,16,40,1.0,0.0
29739,72.0,0,40,2.0,0.0
29740,91.0,0,40,11.0,0.0
29741,38.0,24,15,9.0,0.0
29742,91.0,0,40,0.0,0.0
29743,87.0,0,40,0.0,0.0
29744,79.0,0,40,1.0,0.0
29745,38.0,6,15,9.0,0.0
29746,89.0,0,40,11.0,0.0
29747,59.0,0,40,13.0,0.0
29748,86.0,16,40,0.0,0.0
29749,86.0,0,40,12.0,0.0
29750,89.0,0,40,0.0,0.0
29751,47.0,0,40,2.0,0.0
29752,77.0,0,40,1.0,0.0
29753,74.0,0,40,1.0,0.0
29754,71.0,2,40,2.0,0.0
29755,38.0,0,15,9.0,0.0
29756,38.0,6,15,9.0,0.0
29757,65.0,0,150,14.0,0.0
29758,72.0,0,40,1.0,0.0
29759,84.0,2,40,12.0,0.0
29760,48.0,0,150,2.0,0.0
29761,75.0,0,40,1.0,0.0
29762,72.0,0,150,2.0,0.0
29763,84.0,0,40,0.0,0.0
29764,87.0,0,40,0.0,0.0
29765,38.0,24,15,9.0,0.0
29766,60.0,24,150,6.0,0.0
29767,65.0,0,150,6.0,0.0
29768,65.0,0,150,3.0,0.0
29769,53.0,0,150,15.0,0.0
29770,60.0,0,150,13.0,0.0
29771,87.0,16,40,11.0,0.0
29772,38.0,6,15,9.0,0.0
29773,86.0,0,40,0.0,0.0
29774,83.0,0,40,0.0,0.0
29775,38.0,24,15,9.0,0.0
29776,74.0,0,40,1.0,0.0
29777,71.0,0,40,1.0,0.0
29778,86.0,16,40,11.0,0.0
29779,82.0,2,40,12.0,0.0
29780,38.0,6,15,9.0,0.0
29781,68.0,0,40,1.0,0.0
29782,72.0,0,40,1.0,0.0
29783,84.0,0,40,11.0,0.0
29784,80.0,2,40,12.0,0.0
29785,84.0,0,40,0.0,0.0
29786,38.0,24,15,9.0,0.0
29787,80.0,0,40,0.0,0.0
29788,38.0,6,15,9.0,0.0
29789,83.0,16,40,11.0,0.0
29790,79.0,0,40,0.0,0.0
29791,38.0,0,15,9.0,0.0
29792,79.0,2,40,12.0,0.0
29793,67.0,0,40,1.0,0.0
29794,83.0,0,40,0.0,0.0
29795,71.0,0,40,1.0,0.0
29796,38.0,6,15,9.0,0.0
29797,77.0,0,40,0.0,0.0
29798,80.0,16,40,1.0,0.0
29799,77.0,0,40,1.0,0.0
29800,29.0,0,150,3.0,0.0
29801,41.0,0,150,3.0,0.0
29802,77.0,2,40,12.0,0.0
29803,80.0,0,40,0.0,0.0
29804,38.0,24,15,9.0,0.0
29805,29.0,24,150,15.0,0.0
29806,49.0,0,150,9.0,0.0
29807,65.0,0,330,10.0,0.0
29808,77.0,0,330,10.0,0.0
29809,80.0,0,40,11.0,0.0
29810,41.0,0,150,14.0,0.0
29811,38.0,6,15,9.0,0.0
29812,79.0,0,40,11.0,0.0
29813,75.0,0,40,1.0,0.0
29814,50.0,0,40,2.0,0.0
29815,75.0,2,40,12.0,0.0
29816,62.0,0,40,13.0,0.0
29817,75.0,0,40,0.0,0.0
29818,79.0,0,40,0.0,0.0
29819,38.0,24,15,9.0,0.0
29820,74.0,16,40,2.0,0.0
29821,79.0,0,40,1.0,0.0
29822,38.0,6,15,9.0,0.0
29823,74.0,0,40,1.0,0.0
29824,77.0,0,40,1.0,0.0
29825,77.0,0,40,11.0,0.0
29826,38.0,24,15,9.0,0.0
29827,63.0,0,40,13.0,0.0
29828,51.0,0,40,2.0,0.0
29829,74.0,0,40,0.0,0.0
29830,77.0,16,40,0.0,0.0
29831,74.0,2,40,12.0,0.0
29832,75.0,0,40,2.0,0.0
29833,38.0,6,15,9.0,0.0
29834,62.0,0,40,13.0,0.0
29835,75.0,0,40,11.0,0.0
29836,50.0,2,40,2.0,0.0
29837,72.0,16,40,1.0,0.0
29838,75.0,0,40,1.0,0.0
29839,74.0,0,40,2.0,0.0
29840,72.0,0,40,0.0,0.0
29841,72.0,0,40,12.0,0.0
29842,75.0,0,40,0.0,0.0
29843,38.0,0,15,9.0,0.0
29844,38.0,6,15,9.0,0.0
29845,73.0,0,40,0.0,0.0
29846,41.0,0,90,15.0,0.0
29847,38.0,24,15,9.0,0.0
29848,73.0,0,40,11.0,0.0
29849,63.0,0,90,13.0,0.0
29850,70.0,0,40,1.0,0.0
29851,73.0,0,40,1.0,0.0
29852,70.0,16,40,0.0,0.0
29853,63.0,2,90,4.0,0.0
29854,75.0,0,90,2.0,0.0
29855,53.0,0,90,14.0,0.0
29856,63.0,0,90,6.0,0.0
29857,70.0,2,40,12.0,0.0
29858,53.0,0,90,4.0,0.0
29859,29.0,0,90,3.0,0.0
29860,51.0,0,90,2.0,0.0
29861,49.0,0,150,9.0,0.0
29862,53.0,0,90,3.0,0.0
29863,53.0,0,90,6.0,0.0
29864,38.0,6,15,9.0,0.0
29865,69.0,0,40,1.0,0.0
29866,69.0,0,40,12.0,0.0
29867,72.0,0,40,1.0,0.0
29868,72.0,0,40,0.0,0.0
29869,38.0,24,15,9.0,0.0
29870,72.0,16,40,11.0,0.0
29871,69.0,0,40,0.0,0.0
29872,38.0,6,15,9.0,0.0
29873,64.0,0,90,6.0,0.0
29874,53.0,0,90,4.0,0.0
29875,29.0,0,90,3.0,0.0
29876,41.0,0,90,15.0,0.0
29877,64.0,0,90,13.0,0.0
29878,53.0,0,90,3.0,0.0
29879,53.0,0,90,6.0,0.0
29880,70.0,2,40,12.0,0.0
29881,73.0,16,40,1.0,0.0
29882,70.0,0,40,1.0,0.0
29883,53.0,2,90,14.0,0.0
29884,52.0,0,90,2.0,0.0
29885,38.0,24,15,9.0,0.0
29886,73.0,0,40,0.0,0.0
29887,70.0,0,40,0.0,0.0
29888,73.0,0,40,11.0,0.0
29889,76.0,0,90,2.0,0.0
29890,64.0,0,90,4.0,0.0
29891,38.0,6,15,9.0,0.0
29892,70.0,0,40,11.0,0.0
29893,67.0,0,40,0.0,0.0
29894,70.0,0,40,0.0,0.0
29895,38.0,24,15,9.0,0.0
29896,67.0,46,40,1.0,0.0
29897,70.0,0,40,1.0,0.0
29898,67.0,0,40,12.0,0.0
29899,38.0,6,15,9.0,0.0
29900,65.0,0,330,10.0,0.0
29901,77.0,0,330,10.0,0.0
29902,53.0,2,90,2.0,0.0
29903,49.0,16,330,9.0,0.0
29904,29.0,30,150,15.0,0.0
29905,41.0,0,150,15.0,0.0
29906,77.0,0,90,2.0,0.0
29907,38.0,46,40,9.0,0.0
29908,53.0,0,90,6.0,0.0
29909,69.0,2,40,1.0,0.0
29910,72.0,0,40,11.0,0.0
29911,53.0,0,150,4.0,0.0
29912,77.0,0,40,11.0,0.0
29913,65.0,0,40,13.0,0.0
29914,72.0,0,40,12.0,0.0
29915,77.0,0,40,0.0,0.0
29916,69.0,0,40,12.0,0.0
29917,65.0,0,40,0.0,0.0
29918,65.0,0,150,4.0,0.0
29919,72.0,0,40,1.0,0.0
29920,29.0,0,150,3.0,0.0
29921,41.0,0,150,3.0,0.0
29922,53.0,0,150,3.0,0.0
29923,65.0,0,90,6.0,0.0
29924,81.0,0,40,12.0,0.0
29925,81.0,46,40,11.0,0.0
29926,53.0,0,40,14.0,0.0
29927,51.0,16,40,14.0,0.0
29928,79.0,2,40,12.0,0.0
29929,79.0,0,40,11.0,0.0
29930,77.0,2,40,12.0,0.0
29931,77.0,46,40,11.0,0.0
29932,53.0,0,40,14.0,0.0
29933,53.0,0,150,3.0,0.0
29934,41.0,0,150,15.0,0.0
29935,29.0,0,150,3.0,0.0
29936,79.0,0,40,12.0,0.0
29937,51.0,30,150,13.0,0.0
29938,51.0,2,40,14.0,0.0
29939,79.0,46,40,11.0,0.0
29940,77.0,2,40,12.0,0.0
29941,53.0,46,40,14.0,0.0
29942,77.0,0,40,11.0,0.0
29943,75.0,2,40,12.0,0.0
29944,75.0,0,40,11.0,0.0
29945,55.0,0,40,14.0,0.0
29946,53.0,0,40,14.0,0.0
29947,74.0,46,40,11.0,0.0
29948,74.0,2,40,12.0,0.0
29949,72.0,46,40,11.0,0.0
29950,65.0,30,150,13.0,0.0
29951,55.0,2,40,14.0,0.0
29952,72.0,0,40,12.0,0.0
29953,70.0,2,40,12.0,0.0
29954,70.0,0,40,11.0,0.0
29955,50.0,46,40,14.0,0.0
29956,48.0,16,40,14.0,0.0
29957,69.0,2,40,12.0,0.0
29958,69.0,0,40,11.0,0.0
29959,70.0,0,40,11.0,0.0
29960,70.0,2,40,12.0,0.0
29961,50.0,46,40,14.0,0.0
29962,69.0,46,40,11.0,0.0
29963,41.0,0,150,15.0,0.0
29964,48.0,0,150,13.0,0.0
29965,48.0,2,40,14.0,0.0
29966,69.0,0,40,12.0,0.0
29967,53.0,0,150,3.0,0.0
29968,29.0,32,150,3.0,0.0
29969,57.0,0,40,14.0,0.0
29970,67.0,46,40,11.0,0.0
29971,67.0,2,40,12.0,0.0
29972,65.0,2,40,11.0,0.0
29973,58.0,16,40,14.0,0.0
29974,65.0,0,40,12.0,0.0
29975,57.0,94,40,14.0,0.0
29976,65.0,0,150,3.0,0.0
29977,65.0,30,150,14.0,0.0
29978,58.0,0,150,14.0,0.0
29979,53.0,0,150,15.0,0.0
29980,79.0,2,40,12.0,0.0
29981,51.0,0,40,13.0,0.0
29982,79.0,46,40,11.0,0.0
29983,77.0,2,40,12.0,0.0
29984,77.0,0,40,11.0,0.0
29985,50.0,16,40,13.0,0.0
29986,75.0,46,40,11.0,0.0
29987,75.0,2,40,12.0,0.0
29988,51.0,0,40,13.0,0.0
29989,29.0,30,150,3.0,0.0
29990,77.0,2,40,12.0,0.0
29991,41.0,0,150,15.0,0.0
29992,50.0,0,40,13.0,0.0
29993,77.0,46,40,11.0,0.0
29994,50.0,0,150,14.0,0.0
29995,53.0,0,150,3.0,0.0
29996,55.0,0,40,13.0,0.0
29997,75.0,2,40,12.0,0.0
29998,75.0,46,40,11.0,0.0
29999,57.0,0,40,13.0,0.0
30000,74.0,2,40,12.0,0.0
30001,74.0,16,40,11.0,0.0
30002,72.0,2,40,12.0,0.0
30003,72.0,46,40,11.0,0.0
30004,55.0,0,40,13.0,0.0
30005,53.0,0,150,15.0,0.0
30006,70.0,2,40,12.0,0.0
30007,57.0,30,150,13.0,0.0
30008,65.0,0,150,3.0,0.0
30009,70.0,46,40,11.0,0.0
30010,69.0,2,40,12.0,0.0
30011,69.0,0,40,11.0,0.0
30012,48.0,46,40,14.0,0.0
30013,67.0,16,40,11.0,0.0
30014,46.0,0,40,14.0,0.0
30015,67.0,2,40,12.0,0.0
30016,69.0,0,40,11.0,0.0
30017,48.0,46,40,14.0,0.0
30018,69.0,2,40,12.0,0.0
30019,67.0,2,40,12.0,0.0
30020,53.0,0,150,3.0,0.0
30021,41.0,0,150,15.0,0.0
30022,67.0,46,40,11.0,0.0
30023,46.0,32,150,14.0,0.0
30024,29.0,0,150,3.0,0.0
30025,58.0,0,40,13.0,0.0
30026,65.0,2,40,12.0,0.0
30027,65.0,46,40,11.0,0.0
30028,64.0,0,40,12.0,0.0
30029,60.0,16,40,13.0,0.0
30030,64.0,2,40,11.0,0.0
30031,58.0,96,40,13.0,0.0
30032,53.0,0,150,15.0,0.0
30033,60.0,32,150,13.0,0.0
30034,65.0,0,150,13.0,0.0
30035,77.0,0,40,11.0,0.0
30036,50.0,0,40,14.0,0.0
30037,77.0,48,40,12.0,0.0
30038,76.0,16,40,11.0,0.0
30039,48.0,0,40,14.0,0.0
30040,76.0,0,40,12.0,0.0
30041,50.0,0,40,14.0,0.0
30042,74.0,48,40,12.0,0.0
30043,74.0,0,40,11.0,0.0
30044,76.0,48,40,11.0,0.0
30045,41.0,30,150,15.0,0.0
30046,76.0,0,40,12.0,0.0
30047,48.0,0,150,14.0,0.0
30048,74.0,0,40,12.0,0.0
30049,74.0,0,40,11.0,0.0
30050,58.0,48,40,13.0,0.0
30051,72.0,16,40,12.0,0.0
30052,72.0,0,40,11.0,0.0
30053,57.0,0,40,13.0,0.0
30054,70.0,48,40,12.0,0.0
30055,58.0,0,40,13.0,0.0
30056,70.0,0,40,11.0,0.0
30057,57.0,2,40,13.0,0.0
30058,57.0,30,150,14.0,0.0
30059,69.0,0,40,12.0,0.0
30060,72.0,48,40,11.0,0.0
30061,53.0,0,150,15.0,0.0
30062,67.0,48,40,13.0,0.0
30063,70.0,0,40,11.0,0.0
30064,67.0,0,40,12.0,0.0
30065,65.0,0,40,13.0,0.0
30066,69.0,16,40,11.0,0.0
30067,65.0,0,40,12.0,0.0
30068,67.0,0,40,13.0,0.0
30069,67.0,50,40,12.0,0.0
30070,67.0,0,40,11.0,0.0
30071,65.0,30,150,13.0,0.0
30072,69.0,48,40,11.0,0.0
30073,65.0,0,40,12.0,0.0
30074,63.0,48,40,12.0,0.0
30075,67.0,0,40,11.0,0.0
30076,62.0,16,40,12.0,0.0
30077,65.0,0,40,11.0,0.0
30078,63.0,50,40,11.0,0.0
30079,60.0,0,40,12.0,0.0
30080,68.0,0,240,13.0,0.0
30081,62.0,48,40,11.0,0.0
30082,68.0,0,240,4.0,0.0
30083,65.0,0,240,14.0,0.0
30084,65.0,2,240,4.0,0.0
30085,58.0,0,40,12.0,0.0
30086,60.0,0,40,11.0,0.0
30087,57.0,48,40,12.0,0.0
30088,62.0,0,40,11.0,0.0
30089,58.0,48,40,12.0,0.0
30090,60.0,46,40,12.0,0.0
30091,63.0,0,40,11.0,0.0
30092,62.0,46,40,12.0,0.0
30093,65.0,0,40,11.0,0.0
30094,67.0,0,40,11.0,0.0
30095,63.0,2,40,4.0,0.0
30096,67.0,0,40,4.0,0.0
30097,67.0,0,40,13.0,0.0
30098,63.0,0,40,14.0,0.0
30099,63.0,46,40,12.0,0.0
30100,65.0,46,40,12.0,0.0
30101,65.0,0,40,4.0,0.0
30102,62.0,0,40,14.0,0.0
30103,65.0,2,40,13.0,0.0
30104,62.0,0,40,4.0,0.0
30105,68.0,0,40,11.0,0.0
30106,60.0,0,40,4.0,0.0
30107,70.0,46,40,11.0,0.0
30108,67.0,0,40,12.0,0.0
30109,63.0,2,40,13.0,0.0
30110,60.0,0,40,14.0,0.0
30111,63.0,0,40,4.0,0.0
30112,58.0,2,40,14.0,0.0
30113,62.0,0,40,13.0,0.0
30114,62.0,0,40,4.0,0.0
30115,68.0,0,40,12.0,0.0
30116,72.0,46,40,11.0,0.0
30117,58.0,0,40,4.0,0.0
30118,74.0,46,40,11.0,0.0
30119,60.0,2,40,4.0,0.0
30120,60.0,0,40,13.0,0.0
30121,56.0,0,40,4.0,0.0
30122,56.0,0,40,14.0,0.0
30123,70.0,0,40,12.0,0.0
30124,55.0,0,40,14.0,0.0
30125,72.0,0,40,12.0,0.0
30126,58.0,0,40,4.0,0.0
30127,75.0,46,40,11.0,0.0
30128,55.0,2,40,4.0,0.0
30129,58.0,0,40,13.0,0.0
30130,56.0,0,40,13.0,0.0
30131,53.0,0,40,14.0,0.0
30132,74.0,162,40,12.0,0.0
30133,56.0,0,40,4.0,0.0
30134,77.0,0,40,11.0,0.0
30135,53.0,0,40,4.0,0.0
30136,79.0,0,150,11.0,0.0
30137,51.0,0,150,14.0,0.0
30138,67.0,0,150,13.0,0.0
30139,51.0,0,150,4.0,0.0
30140,55.0,0,150,4.0,0.0
30141,75.0,384,150,12.0,0.0
30142,55.0,0,150,13.0,0.0
30143,38.0,0,150,3.0,0.0
30144,50.0,0,150,3.0,0.0
30145,53.0,0,150,3.0,0.0
30146,53.0,0,150,14.0,0.0
30147,82.0,0,150,1.0,0.0
30148,70.0,0,150,12.0,0.0
30149,58.0,0,150,14.0,0.0
30150,89.0,0,150,0.0,0.0
30151,50.0,0,150,15.0,0.0
30152,50.0,0,150,2.0,0.0
30153,62.0,0,150,4.0,0.0
30154,58.0,0,150,4.0,0.0
30155,77.0,0,150,1.0,0.0
30156,77.0,0,150,12.0,0.0
30157,62.0,56,150,13.0,0.0
30158,70.0,0,150,2.0,0.0
30159,94.0,0,150,0.0,0.0
30160,65.0,0,150,5.0,0.0
30161,70.0,0,150,5.0,0.0
30162,82.0,0,150,11.0,0.0
30163,74.0,0,150,2.0,0.0
30164,48.0,24,15,8.0,0.0
30165,48.0,24,15,8.0,0.0
30166,48.0,24,20,8.0,0.0
30167,48.0,24,20,8.0,0.0
30168,48.0,24,15,8.0,0.0
30169,48.0,24,15,8.0,0.0
30170,67.0,0,150,5.0,0.0
30171,36.0,0,150,3.0,0.0
30172,76.0,0,150,1.0,0.0
30173,70.0,0,150,5.0,0.0
30174,60.0,0,150,4.0,0.0
30175,67.0,0,150,2.0,0.0
30176,76.0,0,150,12.0,0.0
30177,72.0,0,150,12.0,0.0
30178,49.0,0,150,9.0,0.0
30179,91.0,0,150,0.0,0.0
30180,72.0,0,150,2.0,0.0
30181,48.0,0,150,2.0,0.0
30182,58.0,0,150,4.0,0.0
30183,52.0,0,150,3.0,0.0
30184,48.0,0,150,3.0,0.0
30185,60.0,0,150,13.0,0.0
30186,84.0,0,150,11.0,0.0
30187,48.0,0,150,15.0,0.0
30188,82.0,0,150,1.0,0.0
30189,79.0,0,150,11.0,0.0
30190,55.0,0,150,14.0,0.0
30191,52.0,32,150,14.0,0.0
30192,72.0,0,150,5.0,0.0
30193,96.0,0,150,0.0,0.0
30194,48.0,94,180,8.0,0.0
30195,46.0,0,40,6.0,0.0
30196,34.0,0,40,3.0,0.0
30197,46.0,0,40,14.0,0.0
30198,48.0,46,40,8.0,0.0
30199,46.0,0,40,7.0,0.0
30200,46.0,0,40,3.0,0.0
30201,58.0,0,40,4.0,0.0
30202,34.0,0,40,15.0,0.0
30203,48.0,0,40,3.0,0.0
30204,48.0,0,40,6.0,0.0
30205,36.0,2,40,3.0,0.0
30206,36.0,0,40,15.0,0.0
30207,60.0,0,40,4.0,0.0
30208,48.0,0,40,7.0,0.0
30209,48.0,0,40,14.0,0.0
30210,34.0,0,40,15.0,0.0
30211,34.0,0,40,3.0,0.0
30212,46.0,0,40,14.0,0.0
30213,46.0,0,40,6.0,0.0
30214,58.0,0,40,4.0,0.0
30215,48.0,46,15,8.0,0.0
30216,46.0,0,40,3.0,0.0
30217,46.0,0,40,7.0,0.0
30218,76.0,0,150,12.0,0.0
30219,48.0,0,150,14.0,0.0
30220,48.0,94,180,8.0,0.0
30221,82.0,0,150,1.0,0.0
30222,60.0,0,150,2.0,0.0
30223,76.0,0,150,1.0,0.0
30224,84.0,0,150,11.0,0.0
30225,79.0,0,150,11.0,0.0
30226,60.0,0,150,13.0,0.0
30227,72.0,0,150,12.0,0.0
30228,48.0,0,150,6.0,0.0
30229,48.0,0,150,3.0,0.0
30230,60.0,0,150,4.0,0.0
30231,36.0,0,150,15.0,0.0
30232,48.0,0,150,7.0,0.0
30233,96.0,0,150,0.0,0.0
30234,36.0,0,150,3.0,0.0
30235,91.0,0,150,0.0,0.0
30236,67.0,0,150,2.0,0.0
30237,72.0,0,150,2.0,0.0
30238,82.0,0,150,11.0,0.0
30239,70.0,0,150,2.0,0.0
30240,74.0,0,150,2.0,0.0
30241,58.0,0,150,13.0,0.0
30242,77.0,0,150,12.0,0.0
30243,77.0,0,150,5.0,0.0
30244,70.0,0,150,5.0,0.0
30245,94.0,0,150,0.0,0.0
30246,89.0,0,150,0.0,0.0
30247,82.0,0,150,1.0,0.0
30248,77.0,0,150,1.0,0.0
30249,58.0,0,150,2.0,0.0
30250,50.0,0,40,14.0,0.0
30251,48.0,46,40,8.0,0.0
30252,38.0,0,40,15.0,0.0
30253,50.0,0,40,7.0,0.0
30254,50.0,0,40,3.0,0.0
30255,50.0,0,40,6.0,0.0
30256,62.0,0,40,4.0,0.0
30257,38.0,0,40,3.0,0.0
30258,51.0,0,40,14.0,0.0
30259,51.0,0,40,3.0,0.0
30260,51.0,0,40,7.0,0.0
30261,51.0,0,40,6.0,0.0
30262,39.0,0,40,15.0,0.0
30263,63.0,0,40,4.0,0.0
30264,39.0,0,40,3.0,0.0
30265,50.0,0,40,14.0,0.0
30266,38.0,0,40,3.0,0.0
30267,38.0,0,40,15.0,0.0
30268,50.0,0,40,6.0,0.0
30269,48.0,16,15,8.0,0.0
30270,50.0,2,40,7.0,0.0
30271,62.0,0,40,4.0,0.0
30272,50.0,0,40,3.0,0.0
30273,87.0,0,150,0.0,0.0
30274,79.0,0,150,1.0,0.0
30275,39.0,0,150,3.0,0.0
30276,51.0,0,150,14.0,0.0
30277,75.0,0,150,1.0,0.0
30278,55.0,0,150,2.0,0.0
30279,39.0,32,150,15.0,0.0
30280,51.0,0,150,6.0,0.0
30281,70.0,0,150,12.0,0.0
30282,79.0,0,150,5.0,0.0
30283,70.0,0,150,5.0,0.0
30284,75.0,0,150,5.0,0.0
30285,79.0,0,150,11.0,0.0
30286,91.0,0,150,0.0,0.0
30287,51.0,0,150,7.0,0.0
30288,63.0,0,150,4.0,0.0
30289,70.0,0,150,2.0,0.0
30290,55.0,0,150,13.0,0.0
30291,48.0,94,180,8.0,0.0
30292,67.0,0,150,2.0,0.0
30293,51.0,0,150,3.0,0.0
30294,75.0,0,150,11.0,0.0
30295,72.0,0,150,5.0,0.0
30296,77.0,0,150,1.0,0.0
30297,65.0,0,150,5.0,0.0
30298,77.0,0,150,11.0,0.0
30299,72.0,0,150,1.0,0.0
30300,72.0,0,150,11.0,0.0
30301,53.0,0,150,13.0,0.0
30302,69.0,0,150,12.0,0.0
30303,53.0,30,150,2.0,0.0
30304,89.0,0,150,0.0,0.0
30305,69.0,0,150,2.0,0.0
30306,65.0,0,150,2.0,0.0
30307,84.0,0,150,0.0,0.0
30308,77.0,0,150,5.0,0.0
30309,65.0,0,150,12.0,0.0
30310,53.0,0,40,6.0,0.0
30311,41.0,0,40,3.0,0.0
30312,41.0,0,40,15.0,0.0
30313,53.0,0,40,3.0,0.0
30314,46.0,46,40,8.0,0.0
30315,53.0,0,40,7.0,0.0
30316,53.0,0,40,14.0,0.0
30317,65.0,0,40,4.0,0.0
30318,55.0,2,40,3.0,0.0
30319,46.0,16,40,8.0,0.0
30320,43.0,0,40,3.0,0.0
30321,55.0,0,40,6.0,0.0
30322,55.0,0,40,7.0,0.0
30323,67.0,0,40,4.0,0.0
30324,55.0,0,40,14.0,0.0
30325,43.0,0,40,15.0,0.0
30326,53.0,0,40,7.0,0.0
30327,41.0,0,40,15.0,0.0
30328,53.0,0,40,6.0,0.0
30329,53.0,2,40,14.0,0.0
30330,65.0,0,40,4.0,0.0
30331,41.0,0,40,3.0,0.0
30332,53.0,0,40,3.0,0.0
30333,62.0,0,150,13.0,0.0
30334,58.0,0,150,3.0,0.0
30335,58.0,0,150,14.0,0.0
30336,70.0,0,150,11.0,0.0
30337,62.0,0,150,5.0,0.0
30338,74.0,32,150,11.0,0.0
30339,65.0,0,150,5.0,0.0
30340,46.0,160,15,8.0,0.0
30341,70.0,0,150,1.0,0.0
30342,74.0,0,150,5.0,0.0
30343,65.0,0,150,2.0,0.0
30344,50.0,0,150,2.0,0.0
30345,58.0,0,150,7.0,0.0
30346,86.0,0,150,0.0,0.0
30347,82.0,0,150,0.0,0.0
30348,70.0,0,150,4.0,0.0
30349,62.0,0,150,2.0,0.0
30350,65.0,0,150,12.0,0.0
30351,74.0,0,150,1.0,0.0
30352,46.0,0,150,15.0,0.0
30353,46.0,0,150,3.0,0.0
30354,58.0,0,150,6.0,0.0
30355,79.0,0,150,0.0,0.0
30356,76.0,0,150,1.0,0.0
30357,82.0,0,150,1.0,0.0
30358,48.0,0,150,2.0,0.0
30359,64.0,0,150,5.0,0.0
30360,60.0,0,150,5.0,0.0
30361,60.0,0,150,13.0,0.0
30362,72.0,30,150,11.0,0.0
30363,84.0,0,150,0.0,0.0
30364,64.0,0,150,2.0,0.0
30365,60.0,0,150,2.0,0.0
30366,72.0,0,150,5.0,0.0
30367,67.0,0,150,12.0,0.0
30368,64.0,0,150,12.0,0.0
30369,48.0,0,40,3.0,0.0
30370,48.0,0,40,15.0,0.0
30371,60.0,2,40,14.0,0.0
30372,60.0,0,40,7.0,0.0
30373,72.0,0,40,4.0,0.0
30374,60.0,0,40,3.0,0.0
30375,60.0,0,40,6.0,0.0
30376,62.0,0,40,7.0,0.0
30377,62.0,0,40,3.0,0.0
30378,46.0,46,15,8.0,0.0
30379,62.0,0,40,14.0,0.0
30380,62.0,0,40,6.0,0.0
30381,50.0,0,40,15.0,0.0
30382,50.0,0,40,3.0,0.0
30383,74.0,0,40,4.0,0.0
30384,48.0,0,40,15.0,0.0
30385,60.0,0,40,7.0,0.0
30386,72.0,0,40,4.0,0.0
30387,46.0,160,40,8.0,0.0
30388,60.0,0,40,3.0,0.0
30389,60.0,0,40,6.0,0.0
30390,48.0,2,40,3.0,0.0
30391,60.0,0,40,14.0,0.0
30392,62.0,0,150,14.0,0.0
30393,65.0,32,150,5.0,0.0
30394,58.0,0,150,5.0,0.0
30395,62.0,0,150,7.0,0.0
30396,62.0,0,150,3.0,0.0
30397,50.0,0,150,15.0,0.0
30398,65.0,0,150,2.0,0.0
30399,58.0,0,150,2.0,0.0
30400,77.0,0,150,0.0,0.0
30401,62.0,0,150,6.0,0.0
30402,70.0,0,150,5.0,0.0
30403,50.0,0,150,3.0,0.0
30404,65.0,0,150,12.0,0.0
30405,46.0,0,150,2.0,0.0
30406,77.0,0,150,1.0,0.0
30407,82.0,0,150,1.0,0.0
30408,70.0,0,150,11.0,0.0
30409,58.0,0,150,13.0,0.0
30410,46.0,94,180,8.0,0.0
30411,74.0,0,150,4.0,0.0
30412,82.0,0,150,0.0,0.0
30413,50.0,0,150,2.0,0.0
30414,74.0,0,150,5.0,0.0
30415,65.0,30,150,12.0,0.0
30416,65.0,0,150,5.0,0.0
30417,74.0,0,150,2.0,0.0
30418,77.0,0,150,2.0,0.0
30419,70.0,0,150,1.0,0.0
30420,74.0,0,150,1.0,0.0
30421,70.0,0,150,11.0,0.0
30422,74.0,0,150,11.0,0.0
30423,62.0,0,150,13.0,0.0
30424,82.0,0,150,0.0,0.0
30425,86.0,0,150,0.0,0.0
30426,62.0,0,150,5.0,0.0
30427,34.0,2,40,3.0,0.0
30428,46.0,0,40,3.0,0.0
30429,48.0,46,40,8.0,0.0
30430,58.0,0,40,4.0,0.0
30431,46.0,0,40,7.0,0.0
30432,46.0,0,40,14.0,0.0
30433,34.0,0,40,15.0,0.0
30434,46.0,0,40,6.0,0.0
30435,36.0,0,40,3.0,0.0
30436,48.0,0,40,7.0,0.0
30437,36.0,2,40,15.0,0.0
30438,48.0,0,40,14.0,0.0
30439,60.0,0,40,4.0,0.0
30440,48.0,0,40,3.0,0.0
30441,48.0,0,40,6.0,0.0
30442,48.0,16,15,8.0,0.0
30443,34.0,0,40,15.0,0.0
30444,46.0,0,40,3.0,0.0
30445,46.0,2,40,7.0,0.0
30446,58.0,0,40,4.0,0.0
30447,34.0,0,40,3.0,0.0
30448,46.0,0,40,14.0,0.0
30449,46.0,0,40,6.0,0.0
30450,75.0,0,150,1.0,0.0
30451,72.0,0,150,1.0,0.0
30452,48.0,0,150,14.0,0.0
30453,48.0,0,150,2.0,0.0
30454,48.0,0,150,3.0,0.0
30455,48.0,94,180,8.0,0.0
30456,36.0,0,150,3.0,0.0
30457,81.0,0,150,0.0,0.0
30458,72.0,0,150,5.0,0.0
30459,60.0,0,150,13.0,0.0
30460,48.0,0,150,6.0,0.0
30461,84.0,0,150,0.0,0.0
30462,60.0,0,150,4.0,0.0
30463,63.0,0,150,5.0,0.0
30464,75.0,0,150,2.0,0.0
30465,72.0,0,150,2.0,0.0
30466,69.0,0,150,11.0,0.0
30467,36.0,0,150,15.0,0.0
30468,63.0,0,150,12.0,0.0
30469,48.0,0,150,7.0,0.0
30470,72.0,0,150,11.0,0.0
30471,60.0,0,150,5.0,0.0
30472,77.0,0,150,1.0,0.0
30473,82.0,0,150,1.0,0.0
30474,65.0,0,150,12.0,0.0
30475,46.0,0,150,2.0,0.0
30476,77.0,0,150,0.0,0.0
30477,65.0,0,150,5.0,0.0
30478,58.0,0,150,5.0,0.0
30479,77.0,0,150,2.0,0.0
30480,70.0,0,150,2.0,0.0
30481,70.0,30,150,11.0,0.0
30482,70.0,0,150,5.0,0.0
30483,58.0,0,150,13.0,0.0
30484,82.0,0,150,0.0,0.0
30485,38.0,0,40,15.0,0.0
30486,50.0,2,40,7.0,0.0
30487,38.0,0,40,3.0,0.0
30488,62.0,0,40,4.0,0.0
30489,50.0,0,40,14.0,0.0
30490,50.0,0,40,6.0,0.0
30491,50.0,0,40,3.0,0.0
30492,39.0,0,40,3.0,0.0
30493,63.0,0,40,4.0,0.0
30494,48.0,46,15,8.0,0.0
30495,51.0,0,40,14.0,0.0
30496,39.0,0,40,15.0,0.0
30497,51.0,0,40,6.0,0.0
30498,51.0,0,40,3.0,0.0
30499,51.0,2,40,7.0,0.0
30500,50.0,0,40,7.0,0.0
30501,50.0,0,40,3.0,0.0
30502,38.0,0,40,3.0,0.0
30503,50.0,0,40,6.0,0.0
30504,62.0,0,40,4.0,0.0
30505,38.0,0,40,15.0,0.0
30506,50.0,0,40,14.0,0.0
30507,51.0,0,150,7.0,0.0
30508,79.0,0,150,0.0,0.0
30509,43.0,0,150,2.0,0.0
30510,51.0,0,150,6.0,0.0
30511,79.0,0,150,11.0,0.0
30512,63.0,0,150,4.0,0.0
30513,39.0,0,150,15.0,0.0
30514,51.0,0,150,14.0,0.0
30515,67.0,0,150,2.0,0.0
30516,70.0,32,150,2.0,0.0
30517,51.0,0,150,3.0,0.0
30518,55.0,0,150,13.0,0.0
30519,75.0,0,150,0.0,0.0
30520,79.0,0,150,5.0,0.0
30521,39.0,0,150,3.0,0.0
30522,70.0,0,150,5.0,0.0
30523,79.0,0,150,1.0,0.0
30524,67.0,0,150,5.0,0.0
30525,48.0,160,15,8.0,0.0
30526,91.0,0,150,0.0,0.0
30527,70.0,0,150,12.0,0.0
30528,75.0,0,150,1.0,0.0
30529,75.0,0,150,11.0,0.0
30530,87.0,0,150,0.0,0.0
30531,79.0,0,150,1.0,0.0
30532,75.0,0,150,1.0,0.0
30533,51.0,0,150,2.0,0.0
30534,75.0,0,150,5.0,0.0
30535,75.0,0,150,2.0,0.0
30536,79.0,0,150,2.0,0.0
30537,87.0,0,150,11.0,0.0
30538,84.0,0,150,11.0,0.0
30539,79.0,0,150,12.0,0.0
30540,99.0,30,150,0.0,0.0
30541,72.0,0,150,5.0,0.0
30542,67.0,0,150,5.0,0.0
30543,84.0,0,150,0.0,0.0
30544,63.0,0,150,13.0,0.0
30545,48.0,0,40,14.0,0.0
30546,48.0,2,40,3.0,0.0
30547,60.0,0,40,4.0,0.0
30548,36.0,0,40,15.0,0.0
30549,36.0,0,40,3.0,0.0
30550,48.0,0,40,7.0,0.0
30551,48.0,0,40,6.0,0.0
30552,38.0,2,40,15.0,0.0
30553,50.0,0,40,14.0,0.0
30554,62.0,0,40,4.0,0.0
30555,48.0,46,15,8.0,0.0
30556,50.0,0,40,3.0,0.0
30557,38.0,0,40,3.0,0.0
30558,50.0,0,40,7.0,0.0
30559,50.0,0,40,6.0,0.0
30560,48.0,2,40,14.0,0.0
30561,48.0,16,15,8.0,0.0
30562,60.0,0,40,4.0,0.0
30563,48.0,0,40,7.0,0.0
30564,48.0,0,40,6.0,0.0
30565,36.0,0,40,3.0,0.0
30566,36.0,0,40,15.0,0.0
30567,48.0,0,40,3.0,0.0
30568,77.0,0,150,1.0,0.0
30569,86.0,0,150,0.0,0.0
30570,65.0,0,150,5.0,0.0
30571,71.0,32,150,5.0,0.0
30572,83.0,0,150,0.0,0.0
30573,50.0,0,150,14.0,0.0
30574,74.0,0,150,1.0,0.0
30575,38.0,0,150,15.0,0.0
30576,74.0,0,150,2.0,0.0
30577,62.0,0,150,13.0,0.0
30578,77.0,0,150,2.0,0.0
30579,98.0,0,150,0.0,0.0
30580,50.0,0,150,6.0,0.0
30581,50.0,0,150,3.0,0.0
30582,50.0,0,150,2.0,0.0
30583,83.0,0,150,11.0,0.0
30584,48.0,160,15,8.0,0.0
30585,77.0,0,150,12.0,0.0
30586,74.0,0,150,5.0,0.0
30587,38.0,0,150,3.0,0.0
30588,86.0,0,150,11.0,0.0
30589,50.0,0,150,7.0,0.0
30590,62.0,0,150,4.0,0.0
30591,72.0,0,150,1.0,0.0
30592,75.0,0,150,1.0,0.0
30593,75.0,0,150,12.0,0.0
30594,72.0,0,150,5.0,0.0
30595,63.0,30,150,5.0,0.0
30596,84.0,0,150,11.0,0.0
30597,60.0,0,150,13.0,0.0
30598,48.0,0,150,2.0,0.0
30599,72.0,0,150,2.0,0.0
30600,75.0,0,150,2.0,0.0
30601,96.0,0,150,0.0,0.0
30602,79.0,0,150,11.0,0.0
30603,84.0,0,150,0.0,0.0
30604,79.0,0,150,0.0,0.0
30605,67.0,0,150,5.0,0.0
30606,51.0,0,40,14.0,0.0
30607,39.0,0,40,15.0,0.0
30608,51.0,0,40,3.0,0.0
30609,51.0,0,40,6.0,0.0
30610,51.0,0,40,7.0,0.0
30611,39.0,0,40,3.0,0.0
30612,63.0,0,40,4.0,0.0
30613,41.0,46,15,8.0,0.0
30614,53.0,0,40,7.0,0.0
30615,53.0,0,40,14.0,0.0
30616,53.0,0,40,3.0,0.0
30617,53.0,0,40,6.0,0.0
30618,41.0,0,40,15.0,0.0
30619,41.0,0,40,3.0,0.0
30620,65.0,0,40,4.0,0.0
30621,39.0,0,40,3.0,0.0
30622,51.0,2,40,7.0,0.0
30623,51.0,0,40,3.0,0.0
30624,51.0,0,40,14.0,0.0
30625,41.0,16,15,8.0,0.0
30626,39.0,0,40,15.0,0.0
30627,63.0,0,40,4.0,0.0
30628,51.0,0,40,6.0,0.0
30629,72.0,0,150,2.0,0.0
30630,41.0,0,150,3.0,0.0
30631,69.0,0,150,2.0,0.0
30632,93.0,0,150,0.0,0.0
30633,72.0,0,150,12.0,0.0
30634,69.0,0,150,5.0,0.0
30635,60.0,0,150,5.0,0.0
30636,81.0,0,150,0.0,0.0
30637,77.0,0,150,0.0,0.0
30638,72.0,0,150,1.0,0.0
30639,69.0,0,150,1.0,0.0
30640,41.0,0,150,15.0,0.0
30641,53.0,0,150,3.0,0.0
30642,45.0,0,150,2.0,0.0
30643,53.0,0,150,6.0,0.0
30644,57.0,0,150,13.0,0.0
30645,53.0,0,150,7.0,0.0
30646,65.0,32,150,5.0,0.0
30647,65.0,0,150,4.0,0.0
30648,77.0,0,150,11.0,0.0
30649,81.0,0,150,11.0,0.0
30650,41.0,160,15,8.0,0.0
30651,53.0,0,150,14.0,0.0
30652,77.0,0,150,2.0,0.0
30653,81.0,0,150,2.0,0.0
30654,89.0,0,150,11.0,0.0
30655,86.0,30,150,11.0,0.0
30656,77.0,0,150,5.0,0.0
30657,81.0,0,150,12.0,0.0
30658,69.0,0,150,5.0,0.0
30659,53.0,0,150,2.0,0.0
30660,86.0,0,150,0.0,0.0
30661,74.0,0,150,5.0,0.0
30662,101.0,0,150,0.0,0.0
30663,89.0,0,150,0.0,0.0
30664,77.0,0,150,1.0,0.0
30665,81.0,0,150,1.0,0.0
30666,65.0,0,150,13.0,0.0
30667,50.0,0,40,6.0,0.0
30668,38.0,0,40,14.0,0.0
30669,41.0,46,40,8.0,0.0
30670,38.0,0,40,3.0,0.0
30671,26.0,2,40,15.0,0.0
30672,26.0,0,40,3.0,0.0
30673,38.0,0,40,7.0,0.0
30674,38.0,0,40,6.0,0.0
30675,39.0,0,40,3.0,0.0
30676,41.0,16,40,8.0,0.0
30677,39.0,0,40,7.0,0.0
30678,39.0,0,40,6.0,0.0
30679,27.0,0,40,15.0,0.0
30680,27.0,2,40,3.0,0.0
30681,39.0,0,40,14.0,0.0
30682,51.0,0,40,6.0,0.0
30683,38.0,0,40,6.0,0.0
30684,50.0,2,40,6.0,0.0
30685,26.0,0,40,15.0,0.0
30686,38.0,0,40,3.0,0.0
30687,38.0,0,40,7.0,0.0
30688,38.0,0,40,14.0,0.0
30689,26.0,0,40,3.0,0.0
30690,41.0,0,150,14.0,0.0
30691,81.0,0,150,1.0,0.0
30692,29.0,32,150,15.0,0.0
30693,75.0,0,150,2.0,0.0
30694,81.0,0,150,2.0,0.0
30695,75.0,0,150,1.0,0.0
30696,63.0,0,150,13.0,0.0
30697,69.0,0,150,5.0,0.0
30698,51.0,0,150,2.0,0.0
30699,75.0,0,150,5.0,0.0
30700,53.0,0,150,6.0,0.0
30701,84.0,0,150,11.0,0.0
30702,87.0,0,150,11.0,0.0
30703,72.0,0,150,5.0,0.0
30704,84.0,0,150,0.0,0.0
30705,87.0,0,150,0.0,0.0
30706,99.0,0,150,0.0,0.0
30707,41.0,0,150,6.0,0.0
30708,81.0,0,150,12.0,0.0
30709,41.0,0,150,3.0,0.0
30710,29.0,0,150,3.0,0.0
30711,41.0,160,15,8.0,0.0
30712,41.0,0,150,7.0,0.0
30713,74.0,0,150,5.0,0.0
30714,77.0,0,150,1.0,0.0
30715,62.0,0,150,13.0,0.0
30716,74.0,0,150,2.0,0.0
30717,77.0,0,150,2.0,0.0
30718,86.0,0,150,0.0,0.0
30719,82.0,0,150,11.0,0.0
30720,98.0,0,150,0.0,0.0
30721,70.0,0,150,5.0,0.0
30722,65.0,0,150,5.0,0.0
30723,82.0,30,150,0.0,0.0
30724,77.0,0,150,12.0,0.0
30725,86.0,0,150,11.0,0.0
30726,74.0,0,150,1.0,0.0
30727,50.0,0,150,2.0,0.0
30728,46.0,46,40,8.0,0.0
30729,34.0,0,40,3.0,0.0
30730,46.0,0,40,6.0,0.0
30731,34.0,0,40,15.0,0.0
30732,46.0,2,40,3.0,0.0
30733,46.0,0,40,7.0,0.0
30734,58.0,0,40,6.0,0.0
30735,46.0,0,40,14.0,0.0
30736,48.0,0,40,3.0,0.0
30737,48.0,0,40,6.0,0.0
30738,48.0,2,40,14.0,0.0
30739,36.0,0,40,3.0,0.0
30740,60.0,0,40,6.0,0.0
30741,48.0,0,40,7.0,0.0
30742,46.0,16,40,8.0,0.0
30743,36.0,0,40,15.0,0.0
30744,34.0,0,40,15.0,0.0
30745,34.0,0,40,3.0,0.0
30746,46.0,0,40,14.0,0.0
30747,58.0,2,40,6.0,0.0
30748,46.0,0,40,3.0,0.0
30749,46.0,0,40,7.0,0.0
30750,46.0,0,40,6.0,0.0
30751,96.0,0,150,0.0,0.0
30752,81.0,0,150,0.0,0.0
30753,62.0,0,150,6.0,0.0
30754,46.0,160,15,8.0,0.0
30755,50.0,0,150,7.0,0.0
30756,60.0,0,150,13.0,0.0
30757,72.0,0,150,1.0,0.0
30758,50.0,0,150,14.0,0.0
30759,50.0,0,150,3.0,0.0
30760,72.0,0,150,5.0,0.0
30761,38.0,0,150,15.0,0.0
30762,69.0,0,150,1.0,0.0
30763,84.0,0,150,0.0,0.0
30764,81.0,0,150,11.0,0.0
30765,48.0,0,150,2.0,0.0
30766,69.0,0,150,5.0,0.0
30767,50.0,0,150,6.0,0.0
30768,66.0,0,150,5.0,0.0
30769,78.0,32,150,12.0,0.0
30770,78.0,0,150,2.0,0.0
30771,38.0,0,150,3.0,0.0
30772,84.0,0,150,11.0,0.0
30773,72.0,0,150,2.0,0.0
30774,82.0,0,150,0.0,0.0
30775,62.0,0,150,5.0,0.0
30776,79.0,0,150,0.0,0.0
30777,70.0,0,150,1.0,0.0
30778,58.0,0,150,13.0,0.0
30779,82.0,0,150,11.0,0.0
30780,67.0,0,150,1.0,0.0
30781,46.0,30,150,2.0,0.0
30782,67.0,0,150,5.0,0.0
30783,70.0,0,150,5.0,0.0
30784,74.0,0,150,12.0,0.0
30785,70.0,0,150,2.0,0.0
30786,74.0,0,150,2.0,0.0
30787,79.0,0,150,11.0,0.0
30788,94.0,0,150,0.0,0.0
30789,55.0,0,40,14.0,0.0
30790,55.0,2,40,6.0,0.0
30791,43.0,0,40,15.0,0.0
30792,55.0,0,40,3.0,0.0
30793,55.0,0,40,7.0,0.0
30794,67.0,0,40,6.0,0.0
30795,43.0,0,40,3.0,0.0
30796,68.0,0,40,6.0,0.0
30797,46.0,46,15,8.0,0.0
30798,44.0,0,40,3.0,0.0
30799,56.0,0,40,7.0,0.0
30800,44.0,2,40,15.0,0.0
30801,56.0,0,40,3.0,0.0
30802,56.0,0,40,6.0,0.0
30803,56.0,0,40,14.0,0.0
30804,55.0,0,40,7.0,0.0
30805,67.0,0,40,6.0,0.0
30806,55.0,0,40,14.0,0.0
30807,43.0,0,40,3.0,0.0
30808,55.0,2,40,6.0,0.0
30809,55.0,0,40,3.0,0.0
30810,43.0,0,40,15.0,0.0
30811,46.0,160,15,8.0,0.0
30812,80.0,0,150,11.0,0.0
30813,65.0,0,150,5.0,0.0
30814,74.0,0,150,2.0,0.0
30815,46.0,0,150,15.0,0.0
30816,70.0,32,150,6.0,0.0
30817,68.0,0,150,2.0,0.0
30818,62.0,0,150,5.0,0.0
30819,44.0,0,150,2.0,0.0
30820,56.0,0,150,13.0,0.0
30821,77.0,0,150,11.0,0.0
30822,68.0,0,150,5.0,0.0
30823,65.0,0,150,1.0,0.0
30824,68.0,0,150,1.0,0.0
30825,58.0,0,150,7.0,0.0
30826,58.0,0,150,3.0,0.0
30827,46.0,0,150,3.0,0.0
30828,58.0,0,150,14.0,0.0
30829,58.0,0,150,6.0,0.0
30830,77.0,0,150,0.0,0.0
30831,80.0,0,150,0.0,0.0
30832,92.0,0,150,0.0,0.0
30833,74.0,0,150,12.0,0.0
30834,79.0,0,150,0.0,0.0
30835,67.0,0,150,5.0,0.0
30836,75.0,0,150,0.0,0.0
30837,91.0,30,150,0.0,0.0
30838,70.0,0,150,12.0,0.0
30839,79.0,0,150,11.0,0.0
30840,43.0,0,150,2.0,0.0
30841,67.0,0,150,1.0,0.0
30842,67.0,0,150,2.0,0.0
30843,75.0,0,150,11.0,0.0
30844,63.0,0,150,5.0,0.0
30845,58.0,0,150,5.0,0.0
30846,55.0,0,150,13.0,0.0
30847,70.0,0,150,2.0,0.0
30848,63.0,0,150,1.0,0.0
30849,63.0,0,40,14.0,0.0
30850,51.0,48,40,3.0,0.0
30851,51.0,0,40,15.0,0.0
30852,63.0,0,40,3.0,0.0
30853,65.0,18,40,3.0,0.0
30854,65.0,0,40,14.0,0.0
30855,53.0,0,40,15.0,0.0
30856,53.0,0,40,3.0,0.0
30857,63.0,0,40,14.0,0.0
30858,51.0,162,40,15.0,0.0
30859,63.0,0,40,3.0,0.0
30860,51.0,0,40,3.0,0.0
30861,62.0,0,150,5.0,0.0
30862,59.0,126,150,5.0,0.0
30863,67.0,0,150,3.0,0.0
30864,89.0,0,150,0.0,0.0
30865,53.0,0,150,13.0,0.0
30866,62.0,0,150,1.0,0.0
30867,65.0,0,150,2.0,0.0
30868,77.0,0,150,11.0,0.0
30869,67.0,0,150,14.0,0.0
30870,71.0,0,150,12.0,0.0
30871,65.0,0,150,5.0,0.0
30872,55.0,0,150,15.0,0.0
30873,55.0,0,150,3.0,0.0
30874,74.0,0,150,0.0,0.0
30875,74.0,0,150,11.0,0.0
30876,41.0,0,150,2.0,0.0
30877,77.0,0,150,0.0,0.0
30878,65.0,0,150,1.0,0.0
30879,71.0,0,150,2.0,0.0
30880,72.0,0,150,0.0,0.0
30881,75.0,0,150,0.0,0.0
30882,60.0,0,150,5.0,0.0
30883,60.0,0,150,1.0,0.0
30884,72.0,0,150,11.0,0.0
30885,63.0,0,150,5.0,0.0
30886,87.0,0,150,0.0,0.0
30887,63.0,0,150,12.0,0.0
30888,67.0,0,150,12.0,0.0
30889,75.0,0,150,11.0,0.0
30890,63.0,30,150,1.0,0.0
30891,60.0,48,40,13.0,0.0
30892,60.0,0,40,2.0,0.0
30893,61.0,0,40,13.0,0.0
30894,61.0,18,40,2.0,0.0
30895,60.0,162,40,13.0,0.0
30896,60.0,0,40,2.0,0.0
30897,73.0,0,150,11.0,0.0
30898,70.0,0,150,11.0,0.0
30899,85.0,0,150,0.0,0.0
30900,75.0,0,150,5.0,0.0
30901,75.0,0,150,13.0,0.0
30902,75.0,0,150,2.0,0.0
30903,73.0,0,150,0.0,0.0
30904,70.0,0,150,0.0,0.0
30905,61.0,0,150,1.0,0.0
30906,67.0,0,150,1.0,0.0
30907,67.0,0,150,12.0,0.0
30908,61.0,0,150,12.0,0.0
30909,60.0,32,150,6.0,0.0
30910,63.0,0,150,6.0,0.0
30911,68.0,0,150,5.0,0.0
30912,63.0,0,150,5.0,0.0
30913,72.0,0,150,12.0,0.0
30914,68.0,0,150,12.0,0.0
30915,68.0,0,150,1.0,0.0
30916,60.0,0,150,14.0,0.0
30917,72.0,0,150,5.0,0.0
30918,60.0,0,150,2.0,0.0
30919,63.0,0,150,2.0,0.0
30920,63.0,0,150,13.0,0.0
30921,72.0,0,150,1.0,0.0
30922,80.0,0,40,0.0,0.0
30923,80.0,48,40,11.0,0.0
30924,92.0,0,40,0.0,0.0
30925,82.0,16,40,0.0,0.0
30926,94.0,0,40,0.0,0.0
30927,82.0,0,40,11.0,0.0
30928,92.0,0,40,0.0,0.0
30929,80.0,0,40,11.0,0.0
30930,80.0,160,40,0.0,0.0
30931,64.0,0,150,2.0,0.0
30932,58.0,0,150,2.0,0.0
30933,67.0,0,150,1.0,0.0
30934,96.0,0,150,0.0,0.0
30935,64.0,128,150,13.0,0.0
30936,70.0,0,150,1.0,0.0
30937,84.0,0,150,11.0,0.0
30938,84.0,0,150,0.0,0.0
30939,70.0,0,150,12.0,0.0
30940,67.0,0,150,12.0,0.0
30941,70.0,0,150,5.0,0.0
30942,67.0,0,150,5.0,0.0
30943,64.0,0,150,5.0,0.0
30944,58.0,0,150,14.0,0.0
30945,64.0,0,150,6.0,0.0
30946,58.0,0,150,6.0,0.0
30947,65.0,0,150,5.0,0.0
30948,57.0,0,150,6.0,0.0
30949,60.0,0,150,6.0,0.0
30950,60.0,0,150,14.0,0.0
30951,57.0,0,150,14.0,0.0
30952,69.0,0,150,1.0,0.0
30953,65.0,32,150,13.0,0.0
30954,69.0,0,150,13.0,0.0
30955,65.0,0,150,1.0,0.0
30956,57.0,0,150,2.0,0.0
30957,60.0,0,150,2.0,0.0
30958,69.0,0,150,5.0,0.0
30959,88.0,0,40,11.0,0.0
30960,88.0,48,40,0.0,0.0
30961,76.0,0,40,12.0,0.0
30962,100.0,0,40,0.0,0.0
30963,89.0,0,40,11.0,0.0
30964,89.0,16,40,0.0,0.0
30965,101.0,0,40,0.0,0.0
30966,77.0,0,40,12.0,0.0
30967,100.0,0,40,0.0,0.0
30968,88.0,160,40,11.0,0.0
30969,88.0,0,40,0.0,0.0
30970,76.0,0,40,12.0,0.0
30971,101.0,0,150,0.0,0.0
30972,64.0,0,150,1.0,0.0
30973,67.0,128,150,1.0,0.0
30974,58.0,0,150,14.0,0.0
30975,67.0,0,150,5.0,0.0
30976,77.0,0,150,12.0,0.0
30977,58.0,0,150,2.0,0.0
30978,55.0,0,150,2.0,0.0
30979,67.0,0,150,13.0,0.0
30980,58.0,0,150,6.0,0.0
30981,64.0,0,150,13.0,0.0
30982,89.0,0,150,0.0,0.0
30983,89.0,0,150,11.0,0.0
30984,55.0,0,150,14.0,0.0
30985,64.0,0,150,5.0,0.0
30986,55.0,0,150,6.0,0.0
30987,53.0,0,150,14.0,0.0
30988,63.0,0,150,13.0,0.0
30989,65.0,0,150,13.0,0.0
30990,57.0,0,150,2.0,0.0
30991,53.0,0,150,2.0,0.0
30992,63.0,0,150,1.0,0.0
30993,63.0,0,150,5.0,0.0
30994,65.0,0,150,5.0,0.0
30995,53.0,0,150,6.0,0.0
30996,57.0,0,150,6.0,0.0
30997,65.0,0,150,1.0,0.0
30998,57.0,0,150,14.0,0.0
30999,100.0,0,40,0.0,0.0
31000,76.0,0,40,12.0,0.0
31001,88.0,0,40,0.0,0.0
31002,88.0,48,40,11.0,0.0
31003,89.0,16,40,0.0,0.0
31004,101.0,0,40,0.0,0.0
31005,77.0,0,40,12.0,0.0
31006,89.0,0,40,11.0,0.0
31007,100.0,0,40,0.0,0.0
31008,76.0,160,40,12.0,0.0
31009,88.0,0,40,0.0,0.0
31010,88.0,0,40,11.0,0.0
31011,53.0,0,150,14.0,0.0
31012,60.0,0,150,14.0,0.0
31013,101.0,0,180,0.0,0.0
31014,53.0,0,150,6.0,0.0
31015,60.0,0,150,6.0,0.0
31016,63.0,32,150,13.0,0.0
31017,69.0,0,150,13.0,0.0
31018,69.0,0,150,5.0,0.0
31019,63.0,0,150,5.0,0.0
31020,69.0,0,150,1.0,0.0
31021,89.0,0,180,11.0,0.0
31022,60.0,0,150,2.0,0.0
31023,77.0,0,150,12.0,0.0
31024,89.0,96,180,0.0,0.0
31025,63.0,0,150,1.0,0.0
31026,53.0,0,150,2.0,0.0
31027,65.0,0,150,13.0,0.0
31028,86.0,8,150,11.0,0.0
31029,82.0,0,150,11.0,0.0
31030,98.0,0,150,0.0,0.0
31031,62.0,0,150,2.0,0.0
31032,58.0,0,150,2.0,0.0
31033,65.0,0,150,5.0,0.0
31034,74.0,0,150,12.0,0.0
31035,82.0,0,150,0.0,0.0
31036,70.0,0,150,13.0,0.0
31037,58.0,0,150,3.0,0.0
31038,62.0,0,150,3.0,0.0
31039,86.0,0,150,0.0,0.0
31040,70.0,0,150,5.0,0.0
31041,70.0,0,150,1.0,0.0
31042,49.0,0,330,9.0,0.0
31043,58.0,0,150,6.0,0.0
31044,58.0,0,150,14.0,0.0
31045,62.0,0,150,6.0,0.0
31046,65.0,0,150,1.0,0.0
31047,62.0,0,150,14.0,0.0
31048,46.0,48,40,8.0,0.0
31049,46.0,16,15,8.0,0.0
31050,46.0,24,15,8.0,0.0
31051,46.0,46,15,8.0,0.0
31052,46.0,0,150,6.0,0.0
31053,46.0,0,150,3.0,0.0
31054,52.0,0,150,14.0,0.0
31055,43.0,0,150,3.0,0.0
31056,43.0,0,150,15.0,0.0
31057,55.0,0,150,4.0,0.0
31058,58.0,0,150,4.0,0.0
31059,55.0,0,150,6.0,0.0
31060,64.0,0,150,4.0,0.0
31061,81.0,48,40,9.0,0.0
31062,55.0,0,150,2.0,0.0
31063,31.0,0,150,3.0,0.0
31064,52.0,30,150,6.0,0.0
31065,67.0,0,150,4.0,0.0
31066,43.0,0,150,7.0,0.0
31067,55.0,0,150,14.0,0.0
31068,81.0,2,40,9.0,0.0
31069,82.0,46,40,12.0,0.0
31070,70.0,0,40,0.0,0.0
31071,76.0,0,40,0.0,0.0
31072,88.0,0,40,0.0,0.0
31073,70.0,0,40,2.0,0.0
31074,88.0,0,40,11.0,0.0
31075,69.0,0,40,2.0,0.0
31076,89.0,0,40,11.0,0.0
31077,81.0,2,40,9.0,0.0
31078,77.0,0,40,0.0,0.0
31079,89.0,16,40,0.0,0.0
31080,81.0,0,40,12.0,0.0
31081,69.0,0,40,0.0,0.0
31082,70.0,0,40,0.0,0.0
31083,88.0,0,40,11.0,0.0
31084,82.0,46,40,12.0,0.0
31085,70.0,0,40,2.0,0.0
31086,76.0,0,40,0.0,0.0
31087,81.0,2,40,9.0,0.0
31088,88.0,0,40,0.0,0.0
31089,89.0,0,150,11.0,0.0
31090,89.0,0,150,0.0,0.0
31091,60.0,0,150,4.0,0.0
31092,65.0,0,330,10.0,0.0
31093,77.0,0,150,0.0,0.0
31094,69.0,0,150,0.0,0.0
31095,77.0,0,330,10.0,0.0
31096,65.0,0,150,4.0,0.0
31097,53.0,0,150,4.0,0.0
31098,63.0,0,150,4.0,0.0
31099,69.0,0,150,2.0,0.0
31100,53.0,8,150,6.0,0.0
31101,81.0,0,150,12.0,0.0
31102,53.0,0,150,2.0,0.0
31103,29.0,0,150,3.0,0.0
31104,81.0,48,40,9.0,0.0
31105,48.0,0,150,14.0,0.0
31106,51.0,0,150,6.0,0.0
31107,48.0,0,150,3.0,0.0
31108,41.0,0,150,7.0,0.0
31109,41.0,0,150,3.0,0.0
31110,48.0,0,150,6.0,0.0
31111,41.0,0,150,15.0,0.0
31112,81.0,2,40,9.0,0.0
31113,41.0,46,15,8.0,0.0
31114,81.0,2,40,9.0,0.0
31115,41.0,22,20,8.0,0.0
31116,81.0,2,40,9.0,0.0
31117,63.0,0,150,6.0,0.0
31118,77.0,0,150,5.0,0.0
31119,77.0,0,150,1.0,0.0
31120,53.0,0,150,3.0,0.0
31121,41.0,46,15,8.0,0.0
31122,72.0,0,150,1.0,0.0
31123,60.0,0,150,14.0,0.0
31124,81.0,48,40,9.0,0.0
31125,65.0,0,150,6.0,0.0
31126,60.0,0,150,3.0,0.0
31127,60.0,0,150,6.0,0.0
31128,53.0,0,150,15.0,0.0
31129,41.0,0,150,3.0,0.0
31130,72.0,0,150,5.0,0.0
31131,75.0,0,150,5.0,0.0
31132,53.0,30,150,7.0,0.0
31133,63.0,0,150,2.0,0.0
31134,63.0,0,150,13.0,0.0
31135,65.0,0,150,13.0,0.0
31136,70.0,0,40,12.0,0.0
31137,88.0,0,40,0.0,0.0
31138,76.0,46,40,0.0,0.0
31139,70.0,0,40,2.0,0.0
31140,70.0,0,40,0.0,0.0
31141,76.0,0,40,11.0,0.0
31142,81.0,2,40,9.0,0.0
31143,77.0,0,40,11.0,0.0
31144,69.0,0,40,2.0,0.0
31145,81.0,2,40,9.0,0.0
31146,89.0,16,40,0.0,0.0
31147,69.0,0,40,0.0,0.0
31148,77.0,0,40,0.0,0.0
31149,69.0,0,40,12.0,0.0
31150,81.0,2,40,9.0,0.0
31151,81.0,0,40,11.0,0.0
31152,93.0,0,40,0.0,0.0
31153,75.0,0,40,2.0,0.0
31154,81.0,0,40,0.0,0.0
31155,75.0,0,40,12.0,0.0
31156,75.0,46,40,0.0,0.0
31157,74.0,0,150,12.0,0.0
31158,58.0,0,150,3.0,0.0
31159,82.0,0,150,11.0,0.0
31160,62.0,0,150,3.0,0.0
31161,46.0,0,150,15.0,0.0
31162,65.0,0,150,5.0,0.0
31163,70.0,0,150,5.0,0.0
31164,74.0,0,150,5.0,0.0
31165,34.0,8,150,3.0,0.0
31166,62.0,0,150,13.0,0.0
31167,62.0,0,150,6.0,0.0
31168,58.0,0,150,6.0,0.0
31169,46.0,0,150,7.0,0.0
31170,49.0,0,330,9.0,0.0
31171,53.0,0,150,6.0,0.0
31172,53.0,0,150,14.0,0.0
31173,81.0,48,40,9.0,0.0
31174,82.0,0,150,0.0,0.0
31175,58.0,0,150,13.0,0.0
31176,94.0,0,150,0.0,0.0
31177,74.0,0,150,1.0,0.0
31178,70.0,0,150,1.0,0.0
31179,74.0,0,150,2.0,0.0
31180,74.0,0,150,0.0,0.0
31181,58.0,0,150,2.0,0.0
31182,81.0,2,40,9.0,0.0
31183,81.0,2,40,9.0,0.0
31184,46.0,46,15,8.0,0.0
31185,81.0,2,40,9.0,0.0
31186,46.0,16,15,8.0,0.0
31187,46.0,22,15,8.0,0.0
31188,48.0,30,150,4.0,0.0
31189,81.0,48,40,9.0,0.0
31190,48.0,0,150,14.0,0.0
31191,60.0,0,150,4.0,0.0
31192,48.0,46,180,8.0,0.0
31193,55.0,0,150,6.0,0.0
31194,60.0,0,150,6.0,0.0
31195,43.0,0,150,14.0,0.0
31196,48.0,0,150,7.0,0.0
31197,24.0,0,150,3.0,0.0
31198,43.0,0,150,6.0,0.0
31199,48.0,0,150,3.0,0.0
31200,55.0,0,150,4.0,0.0
31201,48.0,0,150,2.0,0.0
31202,36.0,0,150,15.0,0.0
31203,70.0,0,40,2.0,0.0
31204,88.0,0,40,11.0,0.0
31205,76.0,0,40,0.0,0.0
31206,70.0,0,40,0.0,0.0
31207,81.0,2,40,9.0,0.0
31208,82.0,0,40,12.0,0.0
31209,69.0,16,40,0.0,0.0
31210,81.0,0,40,12.0,0.0
31211,89.0,0,40,11.0,0.0
31212,69.0,0,40,2.0,0.0
31213,81.0,2,40,9.0,0.0
31214,77.0,0,40,0.0,0.0
31215,88.0,0,40,11.0,0.0
31216,70.0,0,40,2.0,0.0
31217,82.0,0,40,12.0,0.0
31218,81.0,2,40,9.0,0.0
31219,76.0,0,40,0.0,0.0
31220,70.0,0,40,0.0,0.0
31221,77.0,0,330,10.0,0.0
31222,89.0,0,150,11.0,0.0
31223,41.0,0,150,7.0,0.0
31224,69.0,0,150,2.0,0.0
31225,29.0,0,150,3.0,0.0
31226,69.0,0,150,0.0,0.0
31227,41.0,0,150,2.0,0.0
31228,41.0,0,150,6.0,0.0
31229,81.0,0,150,12.0,0.0
31230,65.0,0,330,10.0,0.0
31231,41.0,0,150,3.0,0.0
31232,53.0,0,150,4.0,0.0
31233,77.0,0,150,0.0,0.0
31234,29.0,0,150,15.0,0.0
31235,41.0,0,150,14.0,0.0
31236,81.0,48,40,9.0,0.0
31237,81.0,2,40,9.0,0.0
31238,41.0,46,15,8.0,0.0
31239,81.0,2,40,9.0,0.0
31240,81.0,2,40,9.0,0.0
31241,41.0,16,15,8.0,0.0
31242,41.0,22,15,8.0,0.0
31243,60.0,30,150,2.0,0.0
31244,48.0,0,150,7.0,0.0
31245,67.0,0,150,6.0,0.0
31246,55.0,0,150,6.0,0.0
31247,36.0,0,150,3.0,0.0
31248,48.0,0,150,15.0,0.0
31249,60.0,0,150,13.0,0.0
31250,48.0,0,180,8.0,0.0
31251,72.0,0,150,1.0,0.0
31252,60.0,0,150,3.0,0.0
31253,55.0,0,150,14.0,0.0
31254,81.0,48,40,9.0,0.0
31255,72.0,0,150,6.0,0.0
31256,67.0,0,150,1.0,0.0
31257,81.0,2,40,9.0,0.0
31258,88.0,0,40,11.0,0.0
31259,82.0,46,40,0.0,0.0
31260,82.0,0,40,2.0,0.0
31261,88.0,0,40,0.0,0.0
31262,82.0,0,40,12.0,0.0
31263,81.0,0,40,0.0,0.0
31264,81.0,0,40,2.0,0.0
31265,89.0,0,40,0.0,0.0
31266,89.0,16,40,11.0,0.0
31267,81.0,2,40,9.0,0.0
31268,81.0,0,40,12.0,0.0
31269,81.0,2,40,9.0,0.0
31270,82.0,0,40,12.0,0.0
31271,82.0,0,40,2.0,0.0
31272,88.0,0,40,11.0,0.0
31273,88.0,0,40,0.0,0.0
31274,82.0,0,40,0.0,0.0
31275,41.0,0,150,3.0,0.0
31276,65.0,0,150,6.0,0.0
31277,57.0,0,150,6.0,0.0
31278,53.0,0,150,14.0,0.0
31279,41.0,0,150,2.0,0.0
31280,53.0,0,150,6.0,0.0
31281,81.0,48,40,9.0,0.0
31282,65.0,0,150,1.0,0.0
31283,29.0,0,150,3.0,0.0
31284,41.0,0,150,15.0,0.0
31285,77.0,8,150,1.0,0.0
31286,89.0,0,150,11.0,0.0
31287,49.0,0,330,9.0,0.0
31288,81.0,0,150,2.0,0.0
31289,53.0,0,150,13.0,0.0
31290,41.0,0,150,7.0,0.0
31291,89.0,0,150,0.0,0.0
31292,81.0,0,150,12.0,0.0
31293,81.0,0,150,0.0,0.0
31294,81.0,2,40,9.0,0.0
31295,81.0,2,40,9.0,0.0
31296,48.0,46,15,8.0,0.0
31297,81.0,2,40,9.0,0.0
31298,48.0,22,20,8.0,0.0
31299,48.0,46,20,8.0,0.0
31300,67.0,0,150,1.0,0.0
31301,41.0,46,40,8.0,0.0
31302,72.0,0,150,1.0,0.0
31303,60.0,0,150,2.0,0.0
31304,60.0,0,150,14.0,0.0
31305,72.0,0,150,13.0,0.0
31306,48.0,0,150,15.0,0.0
31307,60.0,8,150,6.0,0.0
31308,55.0,0,150,6.0,0.0
31309,81.0,2,40,9.0,0.0
31310,72.0,0,150,4.0,0.0
31311,60.0,0,150,4.0,0.0
31312,67.0,0,150,4.0,0.0
31313,67.0,0,150,13.0,0.0
31314,48.0,0,40,8.0,0.0
31315,81.0,2,40,9.0,0.0
31316,88.0,46,40,0.0,0.0
31317,82.0,0,40,12.0,0.0
31318,82.0,0,40,0.0,0.0
31319,100.0,0,40,0.0,0.0
31320,88.0,0,40,11.0,0.0
31321,82.0,0,40,2.0,0.0
31322,81.0,0,40,12.0,0.0
31323,89.0,0,40,0.0,0.0
31324,89.0,0,40,11.0,0.0
31325,101.0,0,40,0.0,0.0
31326,81.0,16,40,0.0,0.0
31327,81.0,0,40,2.0,0.0
31328,81.0,2,40,9.0,0.0
31329,82.0,0,40,12.0,0.0
31330,82.0,0,40,2.0,0.0
31331,88.0,0,40,0.0,0.0
31332,100.0,0,40,0.0,0.0
31333,38.0,14,30,9.0,0.0
31334,81.0,2,40,9.0,0.0
31335,88.0,0,40,11.0,0.0
31336,48.0,0,15,8.0,0.0
31337,82.0,32,40,0.0,0.0
31338,48.0,8,15,8.0,0.0
31339,101.0,46,40,0.0,0.0
31340,53.0,0,30,2.0,0.0
31341,65.0,0,330,10.0,0.0
31342,41.0,0,40,8.0,0.0
31343,89.0,0,40,11.0,0.0
31344,41.0,0,30,15.0,0.0
31345,81.0,0,40,12.0,0.0
31346,81.0,2,40,9.0,0.0
31347,65.0,0,30,4.0,0.0
31348,89.0,0,40,0.0,0.0
31349,81.0,0,40,0.0,0.0
31350,53.0,0,30,14.0,0.0
31351,38.0,0,30,9.0,0.0
31352,65.0,0,30,13.0,0.0
31353,53.0,0,30,6.0,0.0
31354,81.0,0,40,2.0,0.0
31355,77.0,0,330,10.0,0.0
31356,53.0,0,30,4.0,0.0
31357,53.0,0,30,7.0,0.0
31358,65.0,0,30,1.0,0.0
31359,82.0,0,40,12.0,0.0
31360,82.0,0,40,2.0,0.0
31361,81.0,0,40,9.0,0.0
31362,48.0,0,40,8.0,0.0
31363,100.0,46,40,0.0,0.0
31364,88.0,0,40,0.0,0.0
31365,82.0,0,40,0.0,0.0
31366,88.0,0,40,11.0,0.0
31367,81.0,0,40,2.0,0.0
31368,48.0,0,40,8.0,0.0
31369,81.0,0,40,12.0,0.0
31370,89.0,0,40,11.0,0.0
31371,81.0,0,40,0.0,0.0
31372,101.0,0,40,0.0,0.0
31373,89.0,24,40,0.0,0.0
31374,81.0,2,40,9.0,0.0
31375,48.0,0,30,15.0,0.0
31376,67.0,0,30,1.0,0.0
31377,88.0,32,40,11.0,0.0
31378,60.0,0,30,14.0,0.0
31379,100.0,0,40,0.0,0.0
31380,38.0,0,30,9.0,0.0
31381,81.0,2,40,9.0,0.0
31382,60.0,0,30,2.0,0.0
31383,82.0,0,40,2.0,0.0
31384,72.0,0,30,1.0,0.0
31385,88.0,0,40,0.0,0.0
31386,67.0,0,30,13.0,0.0
31387,72.0,0,30,13.0,0.0
31388,82.0,0,40,0.0,0.0
31389,72.0,0,30,4.0,0.0
31390,60.0,0,30,4.0,0.0
31391,82.0,0,40,12.0,0.0
31392,67.0,0,30,4.0,0.0
31393,48.0,8,15,8.0,0.0
31394,65.0,0,30,1.0,0.0
31395,53.0,0,30,2.0,0.0
31396,81.0,0,40,12.0,0.0
31397,81.0,0,40,2.0,0.0
31398,101.0,0,40,0.0,0.0
31399,53.0,0,30,4.0,0.0
31400,65.0,0,30,4.0,0.0
31401,65.0,0,30,13.0,0.0
31402,81.0,2,40,9.0,0.0
31403,89.0,0,40,0.0,0.0
31404,41.0,14,30,15.0,0.0
31405,53.0,0,30,14.0,0.0
31406,38.0,0,30,9.0,0.0
31407,89.0,46,40,11.0,0.0
31408,41.0,0,40,8.0,0.0
31409,81.0,0,40,0.0,0.0
31410,88.0,0,40,11.0,0.0
31411,100.0,46,40,0.0,0.0
31412,81.0,0,40,9.0,0.0
31413,82.0,0,40,2.0,0.0
31414,82.0,0,40,0.0,0.0
31415,88.0,0,40,0.0,0.0
31416,82.0,0,40,12.0,0.0
31417,81.0,2,40,0.0,0.0
31418,41.0,0,15,8.0,0.0
31419,81.0,0,40,12.0,0.0
31420,89.0,0,40,0.0,0.0
31421,81.0,0,40,9.0,0.0
31422,101.0,0,40,0.0,0.0
31423,89.0,0,40,11.0,0.0
31424,81.0,0,40,2.0,0.0
31425,75.0,0,40,2.0,0.0
31426,77.0,0,30,5.0,0.0
31427,72.0,0,30,5.0,0.0
31428,38.0,0,30,9.0,0.0
31429,60.0,0,30,6.0,0.0
31430,65.0,0,30,6.0,0.0
31431,53.0,0,30,2.0,0.0
31432,75.0,0,40,0.0,0.0
31433,81.0,32,40,0.0,0.0
31434,65.0,0,30,5.0,0.0
31435,93.0,0,40,0.0,0.0
31436,81.0,0,40,9.0,0.0
31437,72.0,14,30,13.0,0.0
31438,77.0,0,30,13.0,0.0
31439,65.0,0,30,14.0,0.0
31440,84.0,0,30,1.0,0.0
31441,41.0,8,20,8.0,0.0
31442,81.0,0,40,11.0,0.0
31443,65.0,0,30,4.0,0.0
31444,53.0,0,30,15.0,0.0
31445,75.0,0,40,12.0,0.0
31446,72.0,0,30,4.0,0.0
31447,41.0,0,20,8.0,0.0
31448,74.0,0,40,12.0,0.0
31449,38.0,0,30,9.0,0.0
31450,46.0,0,30,15.0,0.0
31451,46.0,0,90,8.0,0.0
31452,74.0,46,40,2.0,0.0
31453,82.0,14,30,1.0,0.0
31454,58.0,0,30,6.0,0.0
31455,49.0,24,330,9.0,0.0
31456,70.0,0,30,13.0,0.0
31457,46.0,0,30,2.0,0.0
31458,58.0,0,30,4.0,0.0
31459,70.0,0,30,4.0,0.0
31460,82.0,0,40,11.0,0.0
31461,58.0,0,30,5.0,0.0
31462,74.0,0,40,0.0,0.0
31463,46.0,0,30,7.0,0.0
31464,58.0,0,30,14.0,0.0
31465,94.0,0,40,0.0,0.0
31466,82.0,0,40,0.0,0.0
31467,70.0,0,30,5.0,0.0
31468,81.0,2,40,9.0,0.0
31469,46.0,0,30,6.0,0.0
31470,81.0,0,40,9.0,0.0
31471,81.0,0,40,0.0,0.0
31472,75.0,0,40,0.0,0.0
31473,93.0,0,40,0.0,0.0
31474,75.0,0,40,2.0,0.0
31475,75.0,0,40,12.0,0.0
31476,81.0,46,40,11.0,0.0
31477,94.0,0,40,0.0,0.0
31478,74.0,0,40,0.0,0.0
31479,74.0,0,40,12.0,0.0
31480,82.0,0,40,0.0,0.0
31481,74.0,0,40,2.0,0.0
31482,81.0,26,40,9.0,0.0
31483,82.0,0,40,11.0,0.0
31484,60.0,0,30,3.0,0.0
31485,69.0,0,40,11.0,0.0
31486,60.0,0,30,6.0,0.0
31487,65.0,0,30,6.0,0.0
31488,60.0,0,40,4.0,0.0
31489,38.0,0,30,9.0,0.0
31490,77.0,0,30,5.0,0.0
31491,75.0,0,40,2.0,0.0
31492,53.0,0,30,15.0,0.0
31493,69.0,0,40,0.0,0.0
31494,81.0,0,40,0.0,0.0
31495,60.0,0,30,14.0,0.0
31496,65.0,0,30,13.0,0.0
31497,65.0,0,30,3.0,0.0
31498,81.0,0,40,9.0,0.0
31499,65.0,2,40,4.0,0.0
31500,65.0,0,30,2.0,0.0
31501,72.0,0,30,1.0,0.0
31502,75.0,0,40,12.0,0.0
31503,72.0,14,30,5.0,0.0
31504,65.0,0,30,5.0,0.0
31505,53.0,0,30,3.0,0.0
31506,77.0,0,30,1.0,0.0
31507,41.0,8,15,8.0,0.0
31508,46.0,0,30,3.0,0.0
31509,58.0,0,30,14.0,0.0
31510,58.0,14,30,13.0,0.0
31511,82.0,0,40,0.0,0.0
31512,46.0,0,30,6.0,0.0
31513,46.0,0,30,7.0,0.0
31514,58.0,0,30,5.0,0.0
31515,70.0,46,40,11.0,0.0
31516,81.0,2,40,9.0,0.0
31517,70.0,0,30,1.0,0.0
31518,58.0,0,30,3.0,0.0
31519,74.0,0,40,2.0,0.0
31520,70.0,0,40,0.0,0.0
31521,70.0,0,30,5.0,0.0
31522,38.0,0,30,9.0,0.0
31523,46.0,0,30,15.0,0.0
31524,58.0,0,30,2.0,0.0
31525,74.0,0,40,12.0,0.0
31526,58.0,0,30,4.0,0.0
31527,46.0,0,90,8.0,0.0
31528,58.0,0,30,6.0,0.0
31529,81.0,0,40,9.0,0.0
31530,69.0,0,40,11.0,0.0
31531,75.0,0,40,12.0,0.0
31532,81.0,46,40,0.0,0.0
31533,75.0,0,40,2.0,0.0
31534,69.0,0,40,0.0,0.0
31535,74.0,0,40,2.0,0.0
31536,70.0,0,40,11.0,0.0
31537,82.0,0,40,0.0,0.0
31538,70.0,2,40,0.0,0.0
31539,81.0,0,40,9.0,0.0
31540,74.0,0,40,12.0,0.0
31541,77.0,0,30,5.0,0.0
31542,53.0,0,30,2.0,0.0
31543,69.0,0,40,0.0,0.0
31544,81.0,0,40,0.0,0.0
31545,41.0,8,20,8.0,0.0
31546,65.0,0,30,6.0,0.0
31547,60.0,0,30,6.0,0.0
31548,69.0,0,40,11.0,0.0
31549,48.0,0,30,14.0,0.0
31550,53.0,0,30,3.0,0.0
31551,48.0,0,30,3.0,0.0
31552,81.0,0,40,9.0,0.0
31553,77.0,0,30,1.0,0.0
31554,72.0,0,30,1.0,0.0
31555,65.0,0,30,13.0,0.0
31556,72.0,14,30,5.0,0.0
31557,65.0,0,40,4.0,0.0
31558,38.0,0,30,9.0,0.0
31559,63.0,0,40,2.0,0.0
31560,60.0,2,40,4.0,0.0
31561,41.0,0,30,3.0,0.0
31562,41.0,0,30,15.0,0.0
31563,63.0,32,40,12.0,0.0
31564,65.0,0,30,5.0,0.0
31565,41.0,0,20,8.0,0.0
31566,46.0,0,30,7.0,0.0
31567,46.0,0,30,3.0,0.0
31568,62.0,0,40,2.0,0.0
31569,58.0,0,30,13.0,0.0
31570,46.0,0,30,14.0,0.0
31571,58.0,0,30,5.0,0.0
31572,70.0,0,30,5.0,0.0
31573,38.0,0,30,9.0,0.0
31574,70.0,0,40,0.0,0.0
31575,81.0,2,40,9.0,0.0
31576,46.0,0,90,8.0,0.0
31577,58.0,0,30,6.0,0.0
31578,34.0,0,30,15.0,0.0
31579,46.0,0,30,6.0,0.0
31580,82.0,16,40,0.0,0.0
31581,62.0,0,40,12.0,0.0
31582,34.0,0,30,3.0,0.0
31583,46.0,0,30,2.0,0.0
31584,70.0,0,30,1.0,0.0
31585,58.0,0,30,4.0,0.0
31586,70.0,0,40,11.0,0.0
31587,38.0,24,15,9.0,0.0
31588,69.0,0,40,0.0,0.0
31589,69.0,0,40,11.0,0.0
31590,81.0,0,40,9.0,0.0
31591,63.0,0,40,12.0,0.0
31592,63.0,32,40,2.0,0.0
31593,81.0,0,40,0.0,0.0
31594,38.0,6,15,9.0,0.0
31595,38.0,14,30,9.0,0.0
31596,62.0,0,40,12.0,0.0
31597,82.0,0,40,0.0,0.0
31598,70.0,0,40,0.0,0.0
31599,62.0,0,40,2.0,0.0
31600,70.0,24,40,11.0,0.0
31601,81.0,2,40,9.0,0.0
31602,48.0,0,30,14.0,0.0
31603,38.0,14,30,9.0,0.0
31604,65.0,0,30,5.0,0.0
31605,65.0,0,30,6.0,0.0
31606,60.0,0,30,6.0,0.0
31607,60.0,2,40,4.0,0.0
31608,41.0,8,20,8.0,0.0
31609,63.0,0,40,12.0,0.0
31610,65.0,0,40,4.0,0.0
31611,77.0,0,30,5.0,0.0
31612,69.0,0,40,0.0,0.0
31613,41.0,0,30,15.0,0.0
31614,72.0,0,30,1.0,0.0
31615,53.0,0,30,2.0,0.0
31616,72.0,0,30,5.0,0.0
31617,48.0,0,30,3.0,0.0
31618,77.0,0,30,1.0,0.0
31619,41.0,0,30,3.0,0.0
31620,81.0,0,40,0.0,0.0
31621,63.0,32,40,2.0,0.0
31622,65.0,0,30,13.0,0.0
31623,81.0,0,40,9.0,0.0
31624,69.0,0,40,11.0,0.0
31625,53.0,0,30,3.0,0.0
31626,41.0,0,20,8.0,0.0
31627,34.0,14,30,3.0,0.0
31628,58.0,0,30,5.0,0.0
31629,81.0,2,40,9.0,0.0
31630,70.0,0,30,1.0,0.0
31631,46.0,0,30,2.0,0.0
31632,34.0,0,30,15.0,0.0
31633,70.0,0,40,0.0,0.0
31634,70.0,0,40,11.0,0.0
31635,46.0,0,30,6.0,0.0
31636,46.0,0,30,14.0,0.0
31637,46.0,0,30,3.0,0.0
31638,58.0,0,30,13.0,0.0
31639,38.0,0,30,9.0,0.0
31640,62.0,0,40,12.0,0.0
31641,58.0,0,30,6.0,0.0
31642,82.0,0,40,0.0,0.0
31643,46.0,0,90,8.0,0.0
31644,62.0,16,40,2.0,0.0
31645,70.0,0,30,5.0,0.0
31646,58.0,0,30,4.0,0.0
31647,46.0,0,30,7.0,0.0
31648,38.0,24,15,9.0,0.0
31649,81.0,32,40,0.0,0.0
31650,81.0,0,40,9.0,0.0
31651,69.0,0,40,11.0,0.0
31652,69.0,0,40,0.0,0.0
31653,63.0,0,40,2.0,0.0
31654,63.0,0,40,12.0,0.0
31655,38.0,6,15,9.0,0.0
31656,62.0,0,40,2.0,0.0
31657,70.0,0,40,11.0,0.0
31658,62.0,0,40,12.0,0.0
31659,82.0,0,40,0.0,0.0
31660,70.0,24,40,0.0,0.0
31661,81.0,2,40,9.0,0.0
31662,38.0,14,30,9.0,0.0
31663,81.0,0,40,9.0,0.0
31664,63.0,0,40,2.0,0.0
31665,81.0,0,40,0.0,0.0
31666,72.0,0,30,5.0,0.0
31667,53.0,0,30,2.0,0.0
31668,41.0,0,30,3.0,0.0
31669,65.0,0,40,5.0,0.0
31670,65.0,0,30,13.0,0.0
31671,48.0,0,30,14.0,0.0
31672,41.0,0,30,15.0,0.0
31673,63.0,32,40,12.0,0.0
31674,60.0,0,40,4.0,0.0
31675,65.0,0,40,4.0,0.0
31676,69.0,0,40,0.0,0.0
31677,48.0,0,30,3.0,0.0
31678,77.0,0,30,5.0,0.0
31679,69.0,2,40,11.0,0.0
31680,38.0,0,30,9.0,0.0
31681,60.0,0,30,6.0,0.0
31682,65.0,0,30,6.0,0.0
31683,72.0,0,30,1.0,0.0
31684,53.0,0,30,3.0,0.0
31685,77.0,14,30,1.0,0.0
31686,41.0,8,15,8.0,0.0
31687,49.0,208,330,9.0,0.0
31688,38.0,16,30,9.0,0.0
31689,62.0,0,150,2.0,0.0
31690,46.0,0,150,14.0,0.0
31691,34.0,0,150,15.0,0.0
31692,58.0,0,150,4.0,0.0
31693,58.0,0,150,13.0,0.0
31694,46.0,144,180,8.0,0.0
31695,46.0,0,150,6.0,0.0
31696,62.0,0,150,12.0,0.0
31697,46.0,0,150,7.0,0.0
31698,46.0,0,150,3.0,0.0
31699,70.0,0,150,11.0,0.0
31700,70.0,0,150,0.0,0.0
31701,70.0,0,150,1.0,0.0
31702,82.0,0,150,0.0,0.0
31703,58.0,0,150,5.0,0.0
31704,58.0,112,40,6.0,0.0
31705,46.0,0,150,2.0,0.0
31706,81.0,0,150,9.0,0.0
31707,34.0,0,150,3.0,0.0
31708,70.0,0,150,5.0,0.0
31709,70.0,0,150,5.0,0.0
31710,74.0,0,150,1.0,0.0
31711,53.0,0,150,6.0,0.0
31712,62.0,0,150,4.0,0.0
31713,58.0,0,150,4.0,0.0
31714,77.0,0,150,5.0,0.0
31715,94.0,0,150,0.0,0.0
31716,70.0,0,150,2.0,0.0
31717,53.0,0,150,2.0,0.0
31718,53.0,0,150,7.0,0.0
31719,74.0,0,150,12.0,0.0
31720,53.0,0,150,3.0,0.0
31721,70.0,32,150,12.0,0.0
31722,74.0,0,150,5.0,0.0
31723,74.0,0,150,2.0,0.0
31724,82.0,0,150,11.0,0.0
31725,65.0,0,150,13.0,0.0
31726,62.0,0,150,13.0,0.0
31727,82.0,0,150,0.0,0.0
31728,53.0,0,150,15.0,0.0
31729,62.0,0,150,3.0,0.0
31730,58.0,0,150,3.0,0.0
31731,65.0,0,150,6.0,0.0
31732,77.0,0,150,0.0,0.0
31733,77.0,0,150,11.0,0.0
31734,70.0,0,150,4.0,0.0
31735,65.0,0,150,4.0,0.0
31736,62.0,0,150,6.0,0.0
31737,58.0,0,150,14.0,0.0
31738,77.0,0,150,1.0,0.0
31739,46.0,168,180,8.0,0.0
31740,46.0,0,780,14.0,0.0
31741,46.0,24,20,8.0,0.0
31742,34.0,0,780,15.0,0.0
31743,82.0,0,720,11.0,0.0
31744,62.0,0,720,6.0,0.0
31745,58.0,0,720,6.0,0.0
31746,70.0,0,720,2.0,0.0
31747,46.0,0,720,7.0,0.0
31748,58.0,0,720,13.0,0.0
31749,74.0,0,720,1.0,0.0
31750,77.0,0,720,1.0,0.0
31751,77.0,0,720,11.0,0.0
31752,74.0,0,720,2.0,0.0
31753,70.0,0,720,4.0,0.0
31754,65.0,0,720,4.0,0.0
31755,46.0,0,720,3.0,0.0
31756,82.0,0,720,0.0,0.0
31757,77.0,0,720,0.0,0.0
31758,53.0,0,720,3.0,0.0
31759,53.0,0,720,14.0,0.0
31760,46.0,384,15,8.0,0.0
31761,34.0,0,720,3.0,0.0
31762,62.0,0,720,13.0,0.0
31763,50.0,0,720,2.0,0.0
31764,49.0,0,720,9.0,0.0
31765,82.0,0,720,5.0,0.0
31766,74.0,0,720,5.0,0.0
31767,70.0,0,720,5.0,0.0
31768,62.0,0,720,4.0,0.0
31769,53.0,0,720,6.0,0.0
31770,58.0,0,720,4.0,0.0
31771,94.0,208,720,0.0,0.0
31772,74.0,0,720,12.0,0.0
31773,70.0,0,720,12.0,0.0
31774,72.0,192,150,15.0,0.0
31775,72.0,192,150,15.0,0.0
31776,72.0,0,150,15.0,0.0
