,note,step,duration,channel,velocity
0,71.0,0,480,11.0,0.0
1,83.0,240,480,10.0,0.0
2,40.0,0,780,14.0,0.0
3,67.0,0,780,11.0,0.0
4,79.0,96,780,10.0,0.0
5,64.0,0,3750,4.0,0.0
6,52.0,0,8070,4.0,0.0
7,40.0,240,240,13.0,0.0
8,47.0,240,240,13.0,0.0
9,71.0,0,390,2.0,0.0
10,67.0,0,390,2.0,0.0
11,55.0,96,390,3.0,0.0
12,55.0,48,240,13.0,0.0
13,79.0,0,390,0.0,0.0
14,83.0,0,390,0.0,0.0
15,59.0,0,390,3.0,0.0
16,59.0,240,240,13.0,0.0
17,55.0,0,240,12.0,0.0
18,52.0,96,390,13.0,0.0
19,59.0,144,15,12.0,0.0
20,64.0,240,240,12.0,0.0
21,64.0,0,480,11.0,0.0
22,67.0,0,390,2.0,0.0
23,64.0,0,390,2.0,0.0
24,76.0,96,390,0.0,0.0
25,76.0,0,480,10.0,0.0
26,55.0,0,390,3.0,0.0
27,64.0,144,240,12.0,0.0
28,52.0,0,390,3.0,0.0
29,79.0,0,390,0.0,0.0
30,67.0,0,15,12.0,0.0
31,71.0,240,240,12.0,0.0
32,84.0,96,780,10.0,0.0
33,40.0,144,240,13.0,0.0
34,40.0,0,780,14.0,0.0
35,72.0,0,780,11.0,0.0
36,57.0,96,390,12.0,0.0
37,64.0,0,390,12.0,0.0
38,48.0,240,240,13.0,0.0
39,72.0,0,390,0.0,0.0
40,57.0,48,240,13.0,0.0
41,52.0,0,390,3.0,0.0
42,64.0,96,390,2.0,0.0
43,76.0,0,390,0.0,0.0
44,48.0,0,390,3.0,0.0
45,60.0,0,390,2.0,0.0
46,60.0,240,240,13.0,0.0
47,57.0,0,240,12.0,0.0
48,52.0,96,390,13.0,0.0
49,60.0,144,15,12.0,0.0
50,72.0,0,390,2.0,0.0
51,69.0,0,390,2.0,0.0
52,64.0,0,15,12.0,0.0
53,57.0,96,390,3.0,0.0
54,60.0,0,390,3.0,0.0
55,84.0,0,390,0.0,0.0
56,81.0,0,390,0.0,0.0
57,69.0,0,240,12.0,0.0
58,69.0,0,480,11.0,0.0
59,81.0,0,480,10.0,0.0
60,69.0,240,240,12.0,0.0
61,72.0,0,240,12.0,0.0
62,63.0,0,390,12.0,0.0
63,59.0,96,1830,4.0,0.0
64,57.0,96,390,12.0,0.0
65,40.0,144,240,13.0,0.0
66,40.0,96,780,14.0,0.0
67,66.0,0,780,11.0,0.0
68,78.0,0,780,10.0,0.0
69,47.0,240,240,13.0,0.0
70,57.0,0,390,3.0,0.0
71,54.0,48,240,13.0,0.0
72,81.0,0,390,0.0,0.0
73,78.0,96,390,0.0,0.0
74,54.0,0,390,3.0,0.0
75,66.0,0,390,2.0,0.0
76,69.0,0,390,2.0,0.0
77,57.0,240,240,13.0,0.0
78,47.0,96,390,13.0,0.0
79,54.0,0,240,12.0,0.0
80,59.0,144,240,12.0,0.0
81,63.0,0,240,12.0,0.0
82,57.0,240,240,12.0,0.0
83,63.0,0,480,11.0,0.0
84,63.0,0,390,2.0,0.0
85,66.0,0,390,2.0,0.0
86,66.0,144,240,12.0,0.0
87,63.0,0,240,12.0,0.0
88,78.0,0,390,0.0,0.0
89,75.0,0,390,0.0,0.0
90,75.0,0,480,10.0,0.0
91,51.0,0,390,3.0,0.0
92,54.0,0,390,3.0,0.0
93,69.0,240,240,12.0,0.0
94,66.0,0,240,12.0,0.0
95,83.0,96,780,10.0,0.0
96,71.0,0,780,11.0,0.0
97,40.0,0,780,14.0,0.0
98,59.0,96,390,12.0,0.0
99,55.0,0,390,12.0,0.0
100,40.0,144,240,13.0,0.0
101,55.0,96,2310,4.0,0.0
102,47.0,240,240,13.0,0.0
103,63.0,0,390,2.0,0.0
104,71.0,0,390,0.0,0.0
105,47.0,96,390,3.0,0.0
106,51.0,0,390,3.0,0.0
107,75.0,0,390,0.0,0.0
108,55.0,48,240,13.0,0.0
109,59.0,0,390,2.0,0.0
110,59.0,240,240,13.0,0.0
111,52.0,96,390,13.0,0.0
112,52.0,0,240,12.0,0.0
113,55.0,144,15,12.0,0.0
114,71.0,0,390,2.0,0.0
115,67.0,0,390,2.0,0.0
116,88.0,240,480,10.0,0.0
117,83.0,96,390,0.0,0.0
118,59.0,240,15,12.0,0.0
119,64.0,0,240,12.0,0.0
120,79.0,0,390,0.0,0.0
121,55.0,0,390,3.0,0.0
122,59.0,0,390,3.0,0.0
123,76.0,0,480,11.0,0.0
124,67.0,0,240,12.0,0.0
125,64.0,0,15,12.0,0.0
126,64.0,96,780,11.0,0.0
127,72.0,0,390,12.0,0.0
128,36.0,144,240,13.0,0.0
129,36.0,0,780,14.0,0.0
130,64.0,0,1920,5.0,0.0
131,60.0,0,1920,5.0,0.0
132,76.0,0,780,10.0,0.0
133,43.0,240,240,13.0,0.0
134,84.0,0,390,0.0,0.0
135,88.0,0,390,0.0,0.0
136,72.0,96,390,2.0,0.0
137,76.0,0,390,2.0,0.0
138,60.0,0,390,3.0,0.0
139,64.0,0,390,3.0,0.0
140,52.0,48,240,13.0,0.0
141,55.0,240,240,13.0,0.0
142,60.0,144,240,12.0,0.0
143,48.0,96,390,13.0,0.0
144,52.0,0,240,12.0,0.0
145,55.0,240,240,12.0,0.0
146,64.0,0,240,12.0,0.0
147,60.0,96,390,2.0,0.0
148,64.0,0,390,2.0,0.0
149,79.0,0,480,10.0,0.0
150,67.0,0,480,11.0,0.0
151,76.0,0,390,0.0,0.0
152,72.0,0,390,0.0,0.0
153,67.0,144,240,12.0,0.0
154,60.0,0,240,12.0,0.0
155,52.0,0,390,3.0,0.0
156,48.0,0,390,3.0,0.0
157,64.0,0,240,12.0,0.0
158,72.0,240,240,12.0,0.0
159,31.0,0,780,14.0,0.0
160,71.0,96,390,12.0,0.0
161,55.0,0,1830,5.0,0.0
162,62.0,0,1830,5.0,0.0
163,71.0,0,780,11.0,0.0
164,83.0,96,780,10.0,0.0
165,43.0,144,240,13.0,0.0
166,62.0,0,390,12.0,0.0
167,50.0,240,240,13.0,0.0
168,50.0,0,390,3.0,0.0
169,62.0,0,390,2.0,0.0
170,55.0,48,240,13.0,0.0
171,71.0,0,390,0.0,0.0
172,74.0,96,390,0.0,0.0
173,47.0,0,390,3.0,0.0
174,59.0,0,390,2.0,0.0
175,59.0,240,240,13.0,0.0
176,50.0,96,390,13.0,0.0
177,55.0,144,240,12.0,0.0
178,59.0,0,15,12.0,0.0
179,62.0,0,15,12.0,0.0
180,83.0,0,390,0.0,0.0
181,79.0,0,390,0.0,0.0
182,67.0,0,240,12.0,0.0
183,71.0,0,390,2.0,0.0
184,86.0,0,480,10.0,0.0
185,74.0,0,480,11.0,0.0
186,67.0,0,390,2.0,0.0
187,55.0,0,390,3.0,0.0
188,59.0,96,390,3.0,0.0
189,71.0,240,240,12.0,0.0
190,67.0,0,240,12.0,0.0
191,62.0,0,1920,5.0,0.0
192,65.0,0,1920,5.0,0.0
193,74.0,0,780,10.0,0.0
194,62.0,0,780,11.0,0.0
195,38.0,144,240,13.0,0.0
196,65.0,96,390,12.0,0.0
197,74.0,0,390,12.0,0.0
198,38.0,96,780,14.0,0.0
199,45.0,240,240,13.0,0.0
200,86.0,0,390,0.0,0.0
201,62.0,0,390,3.0,0.0
202,53.0,0,390,3.0,0.0
203,77.0,96,390,0.0,0.0
204,53.0,48,240,13.0,0.0
205,65.0,0,390,2.0,0.0
206,74.0,0,390,2.0,0.0
207,57.0,240,240,13.0,0.0
208,50.0,96,390,13.0,0.0
209,62.0,144,240,12.0,0.0
210,53.0,0,240,12.0,0.0
211,65.0,0,240,12.0,0.0
212,57.0,240,240,12.0,0.0
213,77.0,0,480,10.0,0.0
214,53.0,0,390,3.0,0.0
215,50.0,0,390,3.0,0.0
216,77.0,0,390,0.0,0.0
217,62.0,0,390,2.0,0.0
218,65.0,0,390,2.0,0.0
219,69.0,0,240,12.0,0.0
220,74.0,96,390,0.0,0.0
221,62.0,144,240,12.0,0.0
222,65.0,240,480,11.0,0.0
223,74.0,0,240,12.0,0.0
224,65.0,0,240,12.0,0.0
225,72.0,0,390,12.0,0.0
226,81.0,0,780,10.0,0.0
227,64.0,96,390,12.0,0.0
228,64.0,0,1830,5.0,0.0
229,69.0,0,780,11.0,0.0
230,60.0,0,1830,5.0,0.0
231,45.0,144,240,13.0,0.0
232,33.0,96,780,14.0,0.0
233,52.0,240,240,13.0,0.0
234,52.0,0,390,3.0,0.0
235,45.0,0,390,3.0,0.0
236,64.0,0,390,2.0,0.0
237,60.0,0,390,2.0,0.0
238,57.0,48,240,13.0,0.0
239,76.0,0,390,0.0,0.0
240,72.0,96,390,0.0,0.0
241,60.0,240,240,13.0,0.0
242,52.0,96,390,13.0,0.0
243,57.0,0,240,12.0,0.0
244,60.0,144,240,12.0,0.0
245,60.0,0,240,12.0,0.0
246,60.0,0,390,3.0,0.0
247,72.0,0,480,11.0,0.0
248,69.0,0,240,12.0,0.0
249,64.0,240,15,12.0,0.0
250,60.0,0,390,2.0,0.0
251,57.0,0,390,3.0,0.0
252,69.0,96,390,2.0,0.0
253,84.0,0,480,10.0,0.0
254,81.0,0,390,0.0,0.0
255,72.0,0,390,0.0,0.0
256,72.0,0,240,12.0,0.0
257,69.0,240,240,12.0,0.0
258,72.0,0,1200,10.0,0.0
259,39.0,48,1140,14.0,0.0
260,39.0,144,240,13.0,0.0
261,66.0,0,390,12.0,0.0
262,57.0,96,390,12.0,0.0
263,60.0,0,1200,11.0,0.0
264,48.0,240,240,13.0,0.0
265,69.0,0,780,2.0,0.0
266,66.0,0,780,2.0,0.0
267,78.0,0,780,0.0,0.0
268,81.0,96,780,0.0,0.0
269,48.0,0,780,5.0,0.0
270,54.0,240,240,13.0,0.0
271,57.0,0,780,3.0,0.0
272,51.0,0,780,3.0,0.0
273,60.0,0,780,5.0,0.0
274,57.0,192,240,13.0,0.0
275,54.0,0,240,12.0,0.0
276,48.0,96,390,13.0,0.0
277,57.0,48,240,12.0,0.0
278,59.0,0,240,11.0,0.0
279,71.0,0,240,10.0,0.0
280,57.0,240,240,12.0,0.0
281,51.0,0,390,3.0,0.0
282,57.0,0,390,3.0,0.0
283,72.0,0,240,10.0,0.0
284,60.0,0,15,12.0,0.0
285,39.0,0,390,14.0,0.0
286,48.0,0,390,5.0,0.0
287,60.0,0,240,11.0,0.0
288,69.0,96,390,2.0,0.0
289,78.0,0,390,0.0,0.0
290,66.0,0,390,2.0,0.0
291,60.0,0,390,5.0,0.0
292,81.0,0,390,0.0,0.0
293,69.0,0,240,12.0,0.0
294,66.0,0,15,12.0,0.0
295,57.0,0,240,11.0,0.0
296,69.0,192,240,10.0,0.0
297,40.0,48,1140,14.0,0.0
298,57.0,0,390,12.0,0.0
299,60.0,96,390,12.0,0.0
300,84.0,0,1200,10.0,0.0
301,40.0,192,180,13.0,0.0
302,72.0,0,1200,11.0,0.0
303,48.0,240,240,13.0,0.0
304,81.0,96,780,0.0,0.0
305,52.0,240,240,13.0,0.0
306,60.0,0,780,5.0,0.0
307,64.0,0,780,2.0,0.0
308,69.0,0,780,2.0,0.0
309,57.0,0,780,3.0,0.0
310,52.0,0,780,3.0,0.0
311,48.0,0,780,5.0,0.0
312,76.0,0,780,0.0,0.0
313,57.0,192,240,13.0,0.0
314,48.0,96,390,13.0,0.0
315,52.0,48,240,12.0,0.0
316,69.0,0,240,11.0,0.0
317,81.0,0,240,10.0,0.0
318,57.0,0,15,12.0,0.0
319,60.0,0,390,2.0,0.0
320,76.0,0,240,10.0,0.0
321,57.0,0,390,3.0,0.0
322,52.0,0,390,3.0,0.0
323,48.0,0,390,5.0,0.0
324,60.0,0,390,5.0,0.0
325,69.0,0,390,2.0,0.0
326,64.0,0,240,11.0,0.0
327,81.0,96,390,0.0,0.0
328,40.0,0,390,14.0,0.0
329,72.0,0,390,0.0,0.0
330,60.0,240,15,12.0,0.0
331,69.0,0,240,12.0,0.0
332,64.0,144,15,12.0,0.0
333,62.0,240,240,11.0,0.0
334,74.0,0,240,10.0,0.0
335,41.0,144,240,13.0,0.0
336,57.0,0,390,12.0,0.0
337,60.0,0,1200,11.0,0.0
338,72.0,0,1200,10.0,0.0
339,41.0,48,1140,14.0,0.0
340,60.0,96,390,12.0,0.0
341,48.0,240,240,13.0,0.0
342,69.0,0,780,2.0,0.0
343,63.0,0,780,2.0,0.0
344,53.0,240,240,13.0,0.0
345,75.0,0,780,0.0,0.0
346,81.0,0,780,0.0,0.0
347,48.0,96,780,5.0,0.0
348,60.0,0,780,5.0,0.0
349,57.0,0,780,3.0,0.0
350,53.0,0,780,3.0,0.0
351,57.0,192,240,13.0,0.0
352,51.0,0,240,12.0,0.0
353,48.0,96,390,13.0,0.0
354,57.0,48,15,12.0,0.0
355,60.0,0,240,12.0,0.0
356,71.0,0,240,10.0,0.0
357,59.0,0,240,11.0,0.0
358,60.0,144,240,11.0,0.0
359,53.0,0,390,3.0,0.0
360,63.0,96,390,2.0,0.0
361,69.0,0,390,2.0,0.0
362,72.0,0,240,10.0,0.0
363,57.0,0,390,3.0,0.0
364,41.0,0,390,14.0,0.0
365,75.0,0,390,0.0,0.0
366,81.0,0,390,0.0,0.0
367,60.0,0,240,12.0,0.0
368,63.0,0,240,12.0,0.0
369,60.0,0,390,5.0,0.0
370,48.0,0,390,5.0,0.0
371,69.0,0,240,10.0,0.0
372,69.0,0,240,12.0,0.0
373,57.0,240,240,11.0,0.0
374,63.0,0,240,12.0,0.0
375,42.0,48,1140,14.0,0.0
376,57.0,96,390,12.0,0.0
377,60.0,0,390,12.0,0.0
378,84.0,48,1200,10.0,0.0
379,72.0,0,1200,11.0,0.0
380,42.0,144,240,13.0,0.0
381,48.0,240,240,13.0,0.0
382,54.0,0,780,3.0,0.0
383,60.0,0,780,5.0,0.0
384,81.0,0,780,0.0,0.0
385,57.0,96,780,3.0,0.0
386,75.0,0,780,0.0,0.0
387,48.0,0,780,5.0,0.0
388,51.0,240,240,13.0,0.0
389,69.0,0,780,2.0,0.0
390,63.0,0,780,2.0,0.0
391,57.0,192,240,13.0,0.0
392,48.0,96,390,13.0,0.0
393,51.0,0,240,12.0,0.0
394,60.0,0,240,12.0,0.0
395,57.0,0,15,12.0,0.0
396,81.0,240,240,10.0,0.0
397,69.0,0,240,11.0,0.0
398,63.0,0,390,11.0,0.0
399,63.0,0,240,12.0,0.0
400,60.0,0,240,12.0,0.0
401,75.0,144,240,10.0,0.0
402,84.0,0,390,0.0,0.0
403,48.0,0,390,5.0,0.0
404,60.0,0,390,5.0,0.0
405,54.0,0,390,3.0,0.0
406,57.0,0,390,3.0,0.0
407,42.0,96,390,14.0,0.0
408,72.0,0,390,2.0,0.0
409,63.0,0,390,2.0,0.0
410,75.0,0,390,0.0,0.0
411,69.0,0,240,12.0,0.0
412,63.0,0,240,12.0,0.0
413,74.0,240,240,10.0,0.0
414,64.0,0,390,12.0,0.0
415,60.0,0,390,12.0,0.0
416,43.0,0,390,14.0,0.0
417,72.0,0,390,10.0,0.0
418,43.0,144,240,13.0,0.0
419,64.0,96,390,11.0,0.0
420,52.0,240,240,13.0,0.0
421,72.0,0,390,2.0,0.0
422,67.0,0,240,12.0,0.0
423,76.0,0,390,0.0,0.0
424,84.0,0,390,0.0,0.0
425,76.0,0,390,2.0,0.0
426,55.0,48,390,3.0,0.0
427,64.0,144,240,12.0,0.0
428,64.0,0,390,5.0,0.0
429,67.0,0,390,5.0,0.0
430,60.0,0,240,13.0,0.0
431,72.0,240,240,11.0,0.0
432,55.0,48,180,12.0,0.0
433,64.0,0,180,12.0,0.0
434,76.0,0,240,10.0,0.0
435,71.0,96,390,10.0,0.0
436,44.0,144,240,13.0,0.0
437,62.0,0,390,12.0,0.0
438,65.0,0,390,12.0,0.0
439,65.0,0,390,11.0,0.0
440,44.0,0,390,14.0,0.0
441,53.0,240,240,13.0,0.0
442,59.0,144,240,13.0,0.0
443,65.0,0,390,5.0,0.0
444,74.0,0,390,0.0,0.0
445,83.0,0,390,0.0,0.0
446,77.0,0,390,2.0,0.0
447,56.0,96,390,3.0,0.0
448,62.0,0,390,5.0,0.0
449,71.0,0,390,2.0,0.0
450,74.0,0,240,10.0,0.0
451,71.0,240,240,11.0,0.0
452,53.0,0,240,12.0,0.0
453,59.0,0,240,12.0,0.0
454,60.0,0,390,12.0,0.0
455,69.0,0,390,10.0,0.0
456,64.0,0,390,12.0,0.0
457,64.0,0,390,11.0,0.0
458,45.0,96,390,14.0,0.0
459,45.0,144,240,13.0,0.0
460,52.0,240,240,13.0,0.0
461,72.0,96,390,0.0,0.0
462,60.0,144,240,13.0,0.0
463,72.0,0,390,2.0,0.0
464,69.0,0,390,2.0,0.0
465,81.0,0,390,0.0,0.0
466,64.0,0,390,5.0,0.0
467,60.0,0,390,5.0,0.0
468,57.0,0,390,3.0,0.0
469,52.0,0,240,12.0,0.0
470,57.0,0,240,12.0,0.0
471,72.0,240,240,10.0,0.0
472,69.0,0,240,11.0,0.0
473,35.0,0,390,14.0,0.0
474,47.0,144,240,13.0,0.0
475,62.0,96,390,11.0,0.0
476,59.0,0,390,12.0,0.0
477,68.0,0,390,10.0,0.0
478,62.0,0,390,12.0,0.0
479,50.0,240,240,13.0,0.0
480,56.0,144,240,13.0,0.0
481,56.0,0,390,3.0,0.0
482,74.0,0,390,0.0,0.0
483,80.0,0,390,0.0,0.0
484,47.0,48,390,3.0,0.0
485,68.0,0,390,2.0,0.0
486,74.0,0,390,2.0,0.0
487,59.0,0,390,5.0,0.0
488,62.0,0,390,5.0,0.0
489,50.0,48,180,12.0,0.0
490,71.0,240,240,10.0,0.0
491,68.0,0,240,11.0,0.0
492,48.0,0,1140,13.0,0.0
493,52.0,240,240,12.0,0.0
494,81.0,0,960,0.0,0.0
495,57.0,0,960,3.0,0.0
496,48.0,0,1920,3.0,0.0
497,36.0,288,1140,14.0,0.0
498,76.0,24,3780,0.0,0.0
499,64.0,0,3750,4.0,0.0
500,52.0,48,3750,4.0,0.0
501,64.0,0,960,11.0,0.0
502,69.0,240,480,10.0,0.0
503,64.0,0,3780,2.0,0.0
504,69.0,0,960,2.0,0.0
505,48.0,0,240,12.0,0.0
506,52.0,192,240,12.0,0.0
507,67.0,192,480,10.0,0.0
508,57.0,48,180,12.0,0.0
509,66.0,288,480,10.0,0.0
510,58.0,20,930,11.0,0.0
511,82.0,0,1920,0.0,0.0
512,58.0,240,960,3.0,0.0
513,58.0,0,780,12.0,0.0
514,70.0,0,1920,2.0,0.0
515,52.0,96,780,12.0,0.0
516,36.0,72,390,14.0,0.0
517,48.0,0,390,13.0,0.0
518,64.0,4,450,10.0,0.0
519,70.0,0,480,10.0,0.0
520,30.0,0,1140,14.0,0.0
521,61.0,0,960,3.0,0.0
522,42.0,240,1920,3.0,0.0
523,42.0,288,1140,13.0,0.0
524,52.0,240,240,12.0,0.0
525,61.0,192,960,11.0,0.0
526,49.0,240,240,12.0,0.0
527,67.0,0,480,10.0,0.0
528,52.0,240,240,12.0,0.0
529,58.0,0,240,12.0,0.0
530,66.0,288,480,10.0,0.0
531,52.0,96,780,12.0,0.0
532,85.0,0,900,0.0,0.0
533,58.0,0,960,3.0,0.0
534,61.0,0,780,12.0,0.0
535,73.0,0,900,2.0,0.0
536,58.0,20,930,11.0,0.0
537,42.0,0,390,13.0,0.0
538,64.0,4,450,10.0,0.0
539,30.0,0,390,14.0,0.0
540,55.0,0,240,12.0,0.0
541,76.0,0,1920,0.0,0.0
542,79.0,384,1920,0.0,0.0
543,59.0,240,240,11.0,0.0
544,64.0,0,1920,3.0,0.0
545,35.0,36,900,14.0,0.0
546,55.0,0,1920,3.0,0.0
547,64.0,0,1920,5.0,0.0
548,67.0,0,1920,5.0,0.0
549,47.0,0,900,13.0,0.0
550,59.0,192,720,10.0,0.0
551,47.0,0,3840,4.0,0.0
552,59.0,0,3840,4.0,0.0
553,71.0,0,1920,2.0,0.0
554,67.0,0,1920,2.0,0.0
555,52.0,240,240,12.0,0.0
556,55.0,0,240,11.0,0.0
557,59.0,0,240,11.0,0.0
558,55.0,0,240,12.0,0.0
559,64.0,0,180,11.0,0.0
560,59.0,0,180,12.0,0.0
561,71.0,252,240,10.0,0.0
562,71.0,384,1410,10.0,0.0
563,47.0,0,900,13.0,0.0
564,67.0,0,240,11.0,0.0
565,64.0,240,240,12.0,0.0
566,35.0,0,900,14.0,0.0
567,71.0,0,720,1.0,0.0
568,64.0,240,240,11.0,0.0
569,59.0,0,240,12.0,0.0
570,67.0,192,240,11.0,0.0
571,64.0,0,240,12.0,0.0
572,83.0,48,180,1.0,0.0
573,67.0,0,180,12.0,0.0
574,71.0,0,180,11.0,0.0
575,63.0,0,390,11.0,0.0
576,84.0,0,1440,1.0,0.0
577,66.0,480,960,3.0,0.0
578,59.0,0,390,13.0,0.0
579,63.0,0,390,5.0,0.0
580,66.0,0,390,5.0,0.0
581,47.0,72,390,14.0,0.0
582,59.0,0,1920,3.0,0.0
583,66.0,0,390,12.0,0.0
584,75.0,0,1920,0.0,0.0
585,69.0,0,390,2.0,0.0
586,75.0,0,390,2.0,0.0
587,69.0,0,1920,0.0,0.0
588,69.0,60,360,10.0,0.0
589,71.0,48,60,10.0,0.0
590,69.0,12,40,10.0,0.0
591,67.0,240,480,10.0,0.0
592,63.0,0,960,3.0,0.0
593,83.0,240,240,11.0,0.0
594,71.0,0,720,12.0,0.0
595,66.0,240,480,10.0,0.0
596,75.0,0,480,1.0,0.0
597,71.0,0,240,11.0,0.0
598,67.0,0,1920,4.0,0.0
599,64.0,0,3840,4.0,0.0
600,79.0,144,240,11.0,0.0
601,67.0,0,390,0.0,0.0
602,52.0,0,390,3.0,0.0
603,76.0,12,390,1.0,0.0
604,76.0,0,390,0.0,0.0
605,59.0,0,390,3.0,0.0
606,64.0,0,390,10.0,0.0
607,69.0,240,240,12.0,0.0
608,67.0,84,150,11.0,0.0
609,52.0,0,390,13.0,0.0
610,67.0,144,240,12.0,0.0
611,40.0,96,390,14.0,0.0
612,66.0,240,240,12.0,0.0
613,67.0,240,240,12.0,0.0
614,66.0,240,240,12.0,0.0
615,76.0,144,720,2.0,0.0
616,64.0,0,240,12.0,0.0
617,64.0,0,720,3.0,0.0
618,48.0,0,390,13.0,0.0
619,36.0,96,390,14.0,0.0
620,64.0,144,240,10.0,0.0
621,63.0,240,240,12.0,0.0
622,76.0,0,240,10.0,0.0
623,64.0,48,390,12.0,0.0
624,66.0,0,960,4.0,0.0
625,72.0,0,240,10.0,0.0
626,84.0,48,180,10.0,0.0
627,62.0,0,240,3.0,0.0
628,74.0,240,240,2.0,0.0
629,60.0,144,240,3.0,0.0
630,45.0,0,390,13.0,0.0
631,33.0,96,390,14.0,0.0
632,72.0,0,240,2.0,0.0
633,71.0,0,240,2.0,0.0
634,59.0,240,240,3.0,0.0
635,60.0,0,240,3.0,0.0
636,69.0,0,1920,4.0,0.0
637,72.0,240,240,2.0,0.0
638,59.0,0,240,3.0,0.0
639,71.0,240,240,2.0,0.0
640,69.0,0,240,2.0,0.0
641,42.0,96,390,14.0,0.0
642,54.0,0,390,13.0,0.0
643,69.0,0,720,12.0,0.0
644,81.0,144,240,11.0,0.0
645,81.0,144,720,1.0,0.0
646,57.0,0,240,3.0,0.0
647,67.0,0,240,2.0,0.0
648,55.0,0,240,3.0,0.0
649,69.0,240,240,11.0,0.0
650,69.0,48,390,2.0,0.0
651,57.0,0,390,3.0,0.0
652,78.0,0,240,11.0,0.0
653,66.0,48,180,11.0,0.0
654,67.0,0,240,12.0,0.0
655,79.0,240,240,1.0,0.0
656,66.0,144,240,12.0,0.0
657,39.0,0,390,14.0,0.0
658,51.0,96,390,13.0,0.0
659,78.0,0,240,1.0,0.0
660,64.0,0,240,12.0,0.0
661,76.0,240,240,1.0,0.0
662,66.0,0,15,4.0,0.0
663,63.0,0,1920,4.0,0.0
664,66.0,240,240,12.0,0.0
665,78.0,0,240,1.0,0.0
666,64.0,0,240,12.0,0.0
667,76.0,240,240,1.0,0.0
668,87.0,48,660,0.0,0.0
669,35.0,0,390,14.0,0.0
670,63.0,144,240,10.0,0.0
671,47.0,96,390,13.0,0.0
672,63.0,0,660,3.0,0.0
673,75.0,0,240,1.0,0.0
674,75.0,0,660,2.0,0.0
675,63.0,0,240,12.0,0.0
676,61.0,0,240,12.0,0.0
677,73.0,0,240,1.0,0.0
678,75.0,192,240,10.0,0.0
679,75.0,48,390,1.0,0.0
680,63.0,0,390,12.0,0.0
681,71.0,144,240,10.0,0.0
682,73.0,0,240,2.0,0.0
683,85.0,240,240,0.0,0.0
684,61.0,0,240,3.0,0.0
685,83.0,48,180,10.0,0.0
686,31.0,96,390,14.0,0.0
687,59.0,144,240,3.0,0.0
688,83.0,0,240,0.0,0.0
689,71.0,0,240,2.0,0.0
690,43.0,0,390,13.0,0.0
691,81.0,0,240,0.0,0.0
692,69.0,0,240,2.0,0.0
693,57.0,240,240,3.0,0.0
694,71.0,0,240,2.0,0.0
695,59.0,240,240,3.0,0.0
696,83.0,0,240,0.0,0.0
697,67.0,96,780,4.0,0.0
698,64.0,0,780,4.0,0.0
699,67.0,0,4710,5.0,0.0
700,55.0,0,4710,5.0,0.0
701,81.0,0,240,0.0,0.0
702,69.0,240,240,2.0,0.0
703,57.0,0,240,3.0,0.0
704,52.0,96,390,13.0,0.0
705,79.0,0,240,0.0,0.0
706,55.0,0,240,3.0,0.0
707,67.0,0,240,2.0,0.0
708,88.0,48,240,10.0,0.0
709,40.0,0,390,14.0,0.0
710,66.0,0,240,2.0,0.0
711,78.0,0,240,0.0,0.0
712,75.0,240,240,10.0,0.0
713,54.0,0,240,3.0,0.0
714,76.0,0,240,10.0,0.0
715,79.0,0,390,0.0,0.0
716,76.0,0,240,1.0,0.0
717,72.0,0,240,1.0,0.0
718,67.0,48,390,2.0,0.0
719,60.0,144,240,12.0,0.0
720,64.0,0,240,12.0,0.0
721,55.0,0,390,3.0,0.0
722,67.0,0,240,1.0,0.0
723,74.0,0,240,1.0,0.0
724,64.0,48,180,10.0,0.0
725,55.0,0,240,12.0,0.0
726,62.0,240,240,12.0,0.0
727,60.0,0,240,12.0,0.0
728,52.0,0,240,12.0,0.0
729,48.0,0,390,14.0,0.0
730,64.0,144,240,1.0,0.0
731,72.0,0,240,1.0,0.0
732,60.0,96,390,13.0,0.0
733,74.0,0,240,1.0,0.0
734,62.0,0,240,12.0,0.0
735,67.0,240,240,1.0,0.0
736,55.0,0,240,12.0,0.0
737,60.0,0,390,12.0,0.0
738,76.0,0,240,0.0,0.0
739,76.0,96,390,1.0,0.0
740,72.0,0,240,0.0,0.0
741,64.0,0,390,12.0,0.0
742,72.0,0,390,1.0,0.0
743,60.0,0,240,2.0,0.0
744,64.0,0,240,2.0,0.0
745,48.0,144,240,3.0,0.0
746,52.0,0,240,3.0,0.0
747,74.0,0,240,0.0,0.0
748,79.0,0,240,0.0,0.0
749,50.0,0,240,3.0,0.0
750,55.0,240,240,3.0,0.0
751,62.0,0,240,2.0,0.0
752,67.0,0,240,2.0,0.0
753,36.0,0,390,14.0,0.0
754,75.0,0,240,0.0,0.0
755,84.0,0,240,0.0,0.0
756,48.0,96,390,13.0,0.0
757,51.0,0,240,3.0,0.0
758,60.0,0,240,3.0,0.0
759,67.0,0,240,11.0,0.0
760,72.0,144,240,2.0,0.0
761,63.0,0,240,2.0,0.0
762,81.0,0,240,0.0,0.0
763,66.0,0,240,2.0,0.0
764,69.0,240,240,2.0,0.0
765,78.0,0,240,0.0,0.0
766,79.0,0,240,11.0,0.0
767,57.0,0,240,3.0,0.0
768,54.0,0,240,3.0,0.0
769,59.0,0,390,3.0,0.0
770,83.0,48,390,0.0,0.0
771,79.0,0,390,0.0,0.0
772,59.0,0,240,12.0,0.0
773,74.0,0,240,1.0,0.0
774,71.0,0,240,1.0,0.0
775,71.0,144,240,11.0,0.0
776,62.0,0,240,12.0,0.0
777,55.0,0,390,3.0,0.0
778,71.0,0,390,2.0,0.0
779,67.0,0,390,2.0,0.0
780,57.0,240,240,12.0,0.0
781,69.0,0,240,1.0,0.0
782,60.0,0,240,12.0,0.0
783,72.0,0,240,1.0,0.0
784,83.0,48,180,11.0,0.0
785,71.0,0,240,1.0,0.0
786,67.0,0,240,1.0,0.0
787,43.0,96,390,13.0,0.0
788,31.0,0,390,14.0,0.0
789,55.0,144,240,12.0,0.0
790,59.0,0,240,12.0,0.0
791,72.0,0,240,1.0,0.0
792,69.0,240,240,1.0,0.0
793,60.0,0,240,12.0,0.0
794,57.0,0,240,12.0,0.0
795,58.0,0,240,3.0,0.0
796,62.0,0,390,12.0,0.0
797,58.0,0,390,12.0,0.0
798,86.0,144,240,0.0,0.0
799,82.0,0,240,0.0,0.0
800,74.0,0,240,2.0,0.0
801,74.0,0,390,1.0,0.0
802,70.0,96,390,1.0,0.0
803,62.0,0,240,3.0,0.0
804,70.0,0,240,2.0,0.0
805,57.0,240,240,3.0,0.0
806,60.0,0,240,3.0,0.0
807,84.0,0,240,0.0,0.0
808,72.0,0,240,2.0,0.0
809,69.0,0,240,2.0,0.0
810,81.0,0,240,0.0,0.0
811,43.0,0,390,14.0,0.0
812,79.0,0,240,0.0,0.0
813,82.0,144,240,0.0,0.0
814,67.0,0,240,2.0,0.0
815,58.0,0,240,3.0,0.0
816,55.0,0,240,3.0,0.0
817,86.0,0,240,10.0,0.0
818,55.0,96,390,13.0,0.0
819,70.0,0,240,2.0,0.0
820,73.0,0,240,10.0,0.0
821,76.0,0,240,0.0,0.0
822,67.0,240,240,2.0,0.0
823,64.0,0,240,2.0,0.0
824,52.0,0,240,3.0,0.0
825,55.0,0,240,3.0,0.0
826,79.0,0,240,0.0,0.0
827,66.0,0,240,12.0,0.0
828,74.0,144,240,1.0,0.0
829,54.0,0,390,3.0,0.0
830,66.0,0,1440,5.0,0.0
831,74.0,0,240,10.0,0.0
832,57.0,0,390,3.0,0.0
833,78.0,0,240,1.0,0.0
834,62.0,0,240,12.0,0.0
835,69.0,0,390,2.0,0.0
836,81.0,0,390,0.0,0.0
837,78.0,0,390,0.0,0.0
838,66.0,48,390,2.0,0.0
839,69.0,0,240,1.0,0.0
840,57.0,0,240,12.0,0.0
841,64.0,240,240,12.0,0.0
842,62.0,48,180,10.0,0.0
843,76.0,0,240,1.0,0.0
844,66.0,0,240,1.0,0.0
845,74.0,144,240,1.0,0.0
846,50.0,0,390,14.0,0.0
847,62.0,96,390,13.0,0.0
848,62.0,0,240,12.0,0.0
849,54.0,0,240,12.0,0.0
850,57.0,240,240,12.0,0.0
851,69.0,0,240,1.0,0.0
852,64.0,0,240,12.0,0.0
853,76.0,0,240,1.0,0.0
854,50.0,0,240,3.0,0.0
855,74.0,0,240,0.0,0.0
856,66.0,0,240,2.0,0.0
857,54.0,0,240,3.0,0.0
858,62.0,144,240,2.0,0.0
859,66.0,0,390,12.0,0.0
860,74.0,0,390,1.0,0.0
861,78.0,0,240,0.0,0.0
862,78.0,96,390,1.0,0.0
863,62.0,0,390,12.0,0.0
864,69.0,240,240,2.0,0.0
865,52.0,0,240,3.0,0.0
866,57.0,0,240,3.0,0.0
867,64.0,0,240,2.0,0.0
868,76.0,0,240,0.0,0.0
869,81.0,0,240,0.0,0.0
870,65.0,0,240,11.0,0.0
871,38.0,0,390,14.0,0.0
872,86.0,0,240,0.0,0.0
873,77.0,0,240,0.0,0.0
874,50.0,96,390,13.0,0.0
875,53.0,144,240,3.0,0.0
876,65.0,0,480,5.0,0.0
877,62.0,0,15,5.0,0.0
878,65.0,0,240,2.0,0.0
879,62.0,0,240,3.0,0.0
880,74.0,0,240,2.0,0.0
881,83.0,0,240,0.0,0.0
882,80.0,0,240,0.0,0.0
883,71.0,0,240,2.0,0.0
884,68.0,240,240,2.0,0.0
885,77.0,0,240,11.0,0.0
886,59.0,0,240,3.0,0.0
887,56.0,0,240,3.0,0.0
888,85.0,0,390,0.0,0.0
889,81.0,48,390,0.0,0.0
890,69.0,0,240,11.0,0.0
891,64.0,144,240,12.0,0.0
892,61.0,0,960,5.0,0.0
893,61.0,0,240,12.0,0.0
894,61.0,0,390,3.0,0.0
895,69.0,0,390,2.0,0.0
896,57.0,0,390,3.0,0.0
897,73.0,0,390,2.0,0.0
898,76.0,0,240,1.0,0.0
899,73.0,0,240,1.0,0.0
900,74.0,0,240,1.0,0.0
901,71.0,240,240,1.0,0.0
902,59.0,0,240,12.0,0.0
903,62.0,0,240,12.0,0.0
904,81.0,48,180,11.0,0.0
905,45.0,96,390,13.0,0.0
906,73.0,0,240,1.0,0.0
907,69.0,0,240,1.0,0.0
908,33.0,0,390,14.0,0.0
909,61.0,144,240,12.0,0.0
910,57.0,0,240,12.0,0.0
911,62.0,0,240,12.0,0.0
912,59.0,0,240,12.0,0.0
913,71.0,0,240,1.0,0.0
914,74.0,0,240,1.0,0.0
915,64.0,96,390,12.0,0.0
916,60.0,0,390,12.0,0.0
917,88.0,0,240,0.0,0.0
918,76.0,0,240,2.0,0.0
919,72.0,0,390,1.0,0.0
920,76.0,0,390,1.0,0.0
921,60.0,48,900,5.0,0.0
922,64.0,240,15,5.0,0.0
923,84.0,0,240,0.0,0.0
924,64.0,144,240,3.0,0.0
925,60.0,0,240,3.0,0.0
926,72.0,0,240,2.0,0.0
927,62.0,0,240,3.0,0.0
928,59.0,240,240,3.0,0.0
929,83.0,0,240,0.0,0.0
930,86.0,0,240,0.0,0.0
931,74.0,0,240,2.0,0.0
932,71.0,0,240,2.0,0.0
933,60.0,0,300,12.0,0.0
934,57.0,96,300,13.0,0.0
935,84.0,0,300,10.0,0.0
936,72.0,0,300,11.0,0.0
937,72.0,0,240,2.0,0.0
938,69.0,0,240,2.0,0.0
939,45.0,48,390,14.0,0.0
940,57.0,0,300,12.0,0.0
941,60.0,0,240,3.0,0.0
942,84.0,48,240,0.0,0.0
943,81.0,0,240,0.0,0.0
944,57.0,0,240,3.0,0.0
945,67.0,0,240,2.0,0.0
946,71.0,240,240,2.0,0.0
947,55.0,0,240,3.0,0.0
948,59.0,0,240,3.0,0.0
949,83.0,0,240,0.0,0.0
950,79.0,0,240,0.0,0.0
951,81.0,0,390,0.0,0.0
952,57.0,144,780,12.0,0.0
953,78.0,0,390,0.0,0.0
954,54.0,0,780,12.0,0.0
955,69.0,0,390,2.0,0.0
956,66.0,0,390,2.0,0.0
957,72.0,0,1200,10.0,0.0
958,60.0,48,1200,11.0,0.0
959,39.0,144,240,13.0,0.0
960,54.0,96,390,3.0,0.0
961,39.0,48,1140,14.0,0.0
962,57.0,0,390,3.0,0.0
963,45.0,240,240,13.0,0.0
964,72.0,0,780,1.0,0.0
965,54.0,48,240,13.0,0.0
966,66.0,0,780,4.0,0.0
967,69.0,0,780,4.0,0.0
968,78.0,0,780,0.0,0.0
969,69.0,0,780,1.0,0.0
970,57.0,0,780,3.0,0.0
971,51.0,0,780,3.0,0.0
972,81.0,192,780,0.0,0.0
973,60.0,0,780,5.0,0.0
974,57.0,240,180,13.0,0.0
975,57.0,0,240,12.0,0.0
976,54.0,0,240,12.0,0.0
977,51.0,96,780,13.0,0.0
978,57.0,240,240,12.0,0.0
979,71.0,0,240,10.0,0.0
980,59.0,0,240,11.0,0.0
981,60.0,0,240,12.0,0.0
982,72.0,0,240,10.0,0.0
983,60.0,48,240,11.0,0.0
984,72.0,0,390,1.0,0.0
985,60.0,0,390,5.0,0.0
986,69.0,0,390,1.0,0.0
987,78.0,0,390,0.0,0.0
988,81.0,0,390,0.0,0.0
989,39.0,0,390,14.0,0.0
990,66.0,0,240,12.0,0.0
991,66.0,0,390,4.0,0.0
992,69.0,0,390,4.0,0.0
993,57.0,48,390,3.0,0.0
994,51.0,0,390,3.0,0.0
995,60.0,0,240,12.0,0.0
996,57.0,0,180,11.0,0.0
997,69.0,0,180,12.0,0.0
998,66.0,288,180,12.0,0.0
999,69.0,0,180,10.0,0.0
1000,54.0,144,780,12.0,0.0
1001,57.0,0,780,12.0,0.0
1002,38.0,240,240,13.0,0.0
1003,72.0,0,1200,11.0,0.0
1004,84.0,0,1200,10.0,0.0
1005,38.0,48,1140,14.0,0.0
1006,45.0,240,240,13.0,0.0
1007,81.0,0,780,0.0,0.0
1008,84.0,0,780,0.0,0.0
1009,78.0,0,780,1.0,0.0
1010,69.0,192,780,1.0,0.0
1011,69.0,0,780,4.0,0.0
1012,60.0,0,780,5.0,0.0
1013,66.0,0,780,4.0,0.0
1014,50.0,0,780,3.0,0.0
1015,57.0,0,780,3.0,0.0
1016,54.0,48,240,13.0,0.0
1017,57.0,240,180,13.0,0.0
1018,54.0,48,240,12.0,0.0
1019,50.0,96,780,13.0,0.0
1020,69.0,0,240,11.0,0.0
1021,81.0,240,240,10.0,0.0
1022,57.0,0,15,12.0,0.0
1023,81.0,0,390,0.0,0.0
1024,66.0,0,240,11.0,0.0
1025,60.0,0,15,12.0,0.0
1026,57.0,0,390,3.0,0.0
1027,84.0,48,390,0.0,0.0
1028,78.0,0,390,1.0,0.0
1029,69.0,0,390,1.0,0.0
1030,60.0,0,390,5.0,0.0
1031,50.0,0,390,3.0,0.0
1032,78.0,0,240,10.0,0.0
1033,69.0,0,390,4.0,0.0
1034,38.0,0,390,14.0,0.0
1035,66.0,0,390,4.0,0.0
1036,72.0,288,180,10.0,0.0
1037,69.0,0,180,12.0,0.0
1038,66.0,48,15,12.0,0.0
1039,60.0,0,180,11.0,0.0
1040,73.0,0,1200,10.0,0.0
1041,37.0,48,1140,14.0,0.0
1042,61.0,0,1200,11.0,0.0
1043,54.0,0,780,12.0,0.0
1044,57.0,144,780,12.0,0.0
1045,37.0,240,240,13.0,0.0
1046,45.0,240,240,13.0,0.0
1047,61.0,0,780,5.0,0.0
1048,69.0,0,780,4.0,0.0
1049,66.0,0,780,4.0,0.0
1050,49.0,0,780,3.0,0.0
1051,57.0,0,780,3.0,0.0
1052,69.0,0,780,1.0,0.0
1053,85.0,0,780,0.0,0.0
1054,81.0,0,780,0.0,0.0
1055,54.0,48,240,13.0,0.0
1056,66.0,192,780,1.0,0.0
1057,57.0,240,180,13.0,0.0
1058,54.0,48,240,12.0,0.0
1059,49.0,96,780,13.0,0.0
1060,72.0,240,240,10.0,0.0
1061,57.0,0,15,12.0,0.0
1062,61.0,0,240,12.0,0.0
1063,60.0,0,240,11.0,0.0
1064,37.0,0,390,14.0,0.0
1065,66.0,0,390,1.0,0.0
1066,61.0,0,240,12.0,0.0
1067,66.0,0,240,12.0,0.0
1068,69.0,0,390,1.0,0.0
1069,61.0,0,390,5.0,0.0
1070,73.0,48,240,10.0,0.0
1071,69.0,48,390,4.0,0.0
1072,66.0,0,390,4.0,0.0
1073,85.0,0,390,0.0,0.0
1074,81.0,0,390,0.0,0.0
1075,57.0,0,390,3.0,0.0
1076,49.0,0,390,3.0,0.0
1077,61.0,0,240,11.0,0.0
1078,57.0,0,180,11.0,0.0
1079,69.0,0,180,12.0,0.0
1080,69.0,288,180,10.0,0.0
1081,66.0,0,180,12.0,0.0
1082,36.0,240,240,13.0,0.0
1083,86.0,0,1200,10.0,0.0
1084,74.0,0,1200,11.0,0.0
1085,57.0,0,780,12.0,0.0
1086,36.0,48,1140,14.0,0.0
1087,54.0,144,780,12.0,0.0
1088,45.0,240,240,13.0,0.0
1089,86.0,0,780,0.0,0.0
1090,81.0,0,780,0.0,0.0
1091,69.0,0,780,1.0,0.0
1092,78.0,0,780,1.0,0.0
1093,48.0,192,780,3.0,0.0
1094,57.0,0,780,3.0,0.0
1095,62.0,0,780,5.0,0.0
1096,54.0,48,240,13.0,0.0
1097,66.0,0,780,4.0,0.0
1098,69.0,0,780,4.0,0.0
1099,57.0,240,180,13.0,0.0
1100,54.0,48,240,12.0,0.0
1101,57.0,0,240,12.0,0.0
1102,48.0,96,780,13.0,0.0
1103,81.0,0,240,10.0,0.0
1104,69.0,240,240,11.0,0.0
1105,57.0,0,240,12.0,0.0
1106,62.0,0,240,12.0,0.0
1107,78.0,0,240,10.0,0.0
1108,36.0,48,390,14.0,0.0
1109,69.0,0,390,1.0,0.0
1110,78.0,0,390,1.0,0.0
1111,69.0,0,390,4.0,0.0
1112,66.0,0,390,4.0,0.0
1113,81.0,0,390,0.0,0.0
1114,86.0,0,390,0.0,0.0
1115,62.0,0,240,12.0,0.0
1116,66.0,48,240,11.0,0.0
1117,62.0,0,390,5.0,0.0
1118,57.0,0,390,3.0,0.0
1119,48.0,0,390,3.0,0.0
1120,66.0,0,15,12.0,0.0
1121,69.0,0,180,12.0,0.0
1122,62.0,0,180,11.0,0.0
1123,74.0,432,180,10.0,0.0
1124,69.0,0,390,4.0,0.0
1125,75.0,0,390,10.0,0.0
1126,69.0,0,390,1.0,0.0
1127,87.0,0,390,0.0,0.0
1128,66.0,0,390,4.0,0.0
1129,75.0,0,390,1.0,0.0
1130,35.0,0,780,14.0,0.0
1131,54.0,0,390,12.0,0.0
1132,57.0,0,390,12.0,0.0
1133,47.0,0,390,3.0,0.0
1134,54.0,336,390,3.0,0.0
1135,63.0,0,390,11.0,0.0
1136,63.0,0,390,5.0,0.0
1137,81.0,0,390,0.0,0.0
1138,47.0,144,780,13.0,0.0
1139,52.0,0,480,3.0,0.0
1140,64.0,0,900,4.0,0.0
1141,83.0,0,900,0.0,0.0
1142,79.0,0,900,0.0,0.0
1143,67.0,0,900,2.0,0.0
1144,67.0,0,900,4.0,0.0
1145,59.0,48,240,11.0,0.0
1146,71.0,48,900,2.0,0.0
1147,55.0,0,240,12.0,0.0
1148,64.0,48,180,11.0,0.0
1149,59.0,0,180,12.0,0.0
1150,79.0,0,240,10.0,0.0
1151,64.0,144,240,12.0,0.0
1152,67.0,0,240,11.0,0.0
1153,72.0,48,390,10.0,0.0
1154,59.0,0,390,3.0,0.0
1155,55.0,240,15,3.0,0.0
1156,59.0,0,1740,13.0,0.0
1157,47.0,144,1740,14.0,0.0
1158,71.0,240,240,11.0,0.0
1159,67.0,0,240,12.0,0.0
1160,81.0,0,930,0.0,0.0
1161,60.0,240,480,3.0,0.0
1162,66.0,0,960,4.0,0.0
1163,66.0,24,930,2.0,0.0
1164,69.0,0,930,2.0,0.0
1165,78.0,0,930,0.0,0.0
1166,69.0,0,240,11.0,0.0
1167,66.0,192,240,12.0,0.0
1168,72.0,0,180,11.0,0.0
1169,69.0,48,180,12.0,0.0
1170,78.0,0,240,10.0,0.0
1171,57.0,0,15,3.0,0.0
1172,54.0,0,390,3.0,0.0
1173,66.0,0,240,11.0,0.0
1174,63.0,144,240,12.0,0.0
1175,63.0,0,480,4.0,0.0
1176,71.0,72,390,10.0,0.0
1177,69.0,0,240,11.0,0.0
1178,66.0,240,240,12.0,0.0
1179,64.0,0,960,4.0,0.0
1180,67.0,0,900,2.0,0.0
1181,64.0,0,900,2.0,0.0
1182,59.0,0,480,3.0,0.0
1183,55.0,0,480,3.0,0.0
1184,67.0,48,240,11.0,0.0
1185,76.0,0,900,0.0,0.0
1186,79.0,0,900,0.0,0.0
1187,79.0,0,900,1.0,0.0
1188,64.0,0,240,12.0,0.0
1189,83.0,48,900,1.0,0.0
1190,76.0,240,240,10.0,0.0
1191,71.0,48,180,11.0,0.0
1192,67.0,0,180,12.0,0.0
1193,35.0,0,780,14.0,0.0
1194,61.0,240,480,4.0,0.0
1195,52.0,0,390,3.0,0.0
1196,55.0,48,390,3.0,0.0
1197,64.0,144,240,11.0,0.0
1198,47.0,96,780,13.0,0.0
1199,61.0,0,240,12.0,0.0
1200,69.0,0,390,10.0,0.0
1201,64.0,0,240,12.0,0.0
1202,67.0,0,240,11.0,0.0
1203,63.0,0,240,12.0,0.0
1204,66.0,0,450,2.0,0.0
1205,66.0,48,240,11.0,0.0
1206,79.0,0,450,1.0,0.0
1207,76.0,0,450,1.0,0.0
1208,57.0,0,390,3.0,0.0
1209,78.0,0,450,0.0,0.0
1210,63.0,48,390,4.0,0.0
1211,54.0,0,390,3.0,0.0
1212,75.0,0,450,0.0,0.0
1213,63.0,24,450,2.0,0.0
1214,69.0,24,180,11.0,0.0
1215,66.0,0,180,12.0,0.0
1216,75.0,192,240,10.0,0.0
1217,55.0,0,300,3.0,0.0
1218,71.0,0,300,10.0,0.0
1219,64.0,0,300,2.0,0.0
1220,52.0,0,300,3.0,0.0
1221,64.0,48,390,12.0,0.0
1222,67.0,0,300,11.0,0.0
1223,64.0,0,300,4.0,0.0
1224,59.0,96,300,4.0,0.0
1225,76.0,0,300,0.0,0.0
1226,43.0,48,1140,14.0,0.0
1227,43.0,96,180,13.0,0.0
1228,52.0,240,180,13.0,0.0
1229,55.0,240,180,13.0,0.0
1230,79.0,0,780,1.0,0.0
1231,83.0,0,780,1.0,0.0
1232,83.0,0,720,10.0,0.0
1233,71.0,96,780,4.0,0.0
1234,67.0,0,780,4.0,0.0
1235,79.0,0,720,11.0,0.0
1236,59.0,240,180,13.0,0.0
1237,52.0,96,390,13.0,0.0
1238,55.0,48,240,12.0,0.0
1239,59.0,0,240,12.0,0.0
1240,82.0,0,240,10.0,0.0
1241,64.0,240,240,12.0,0.0
1242,59.0,0,240,12.0,0.0
1243,78.0,0,240,11.0,0.0
1244,79.0,0,240,11.0,0.0
1245,43.0,0,390,14.0,0.0
1246,83.0,0,240,10.0,0.0
1247,64.0,0,390,4.0,0.0
1248,67.0,0,390,4.0,0.0
1249,79.0,48,390,1.0,0.0
1250,76.0,0,390,1.0,0.0
1251,64.0,0,240,12.0,0.0
1252,43.0,0,390,13.0,0.0
1253,71.0,0,240,12.0,0.0
1254,76.0,0,180,11.0,0.0
1255,67.0,144,15,12.0,0.0
1256,79.0,48,180,10.0,0.0
1257,64.0,48,390,12.0,0.0
1258,45.0,192,180,13.0,0.0
1259,61.0,0,390,12.0,0.0
1260,45.0,48,1140,14.0,0.0
1261,52.0,240,180,13.0,0.0
1262,79.0,0,780,0.0,0.0
1263,73.0,96,780,2.0,0.0
1264,67.0,0,780,2.0,0.0
1265,57.0,240,180,13.0,0.0
1266,85.0,0,780,0.0,0.0
1267,91.0,0,720,10.0,0.0
1268,64.0,0,780,3.0,0.0
1269,88.0,48,720,11.0,0.0
1270,57.0,0,780,3.0,0.0
1271,61.0,240,180,13.0,0.0
1272,52.0,96,390,13.0,0.0
1273,61.0,0,240,12.0,0.0
1274,57.0,0,240,12.0,0.0
1275,61.0,0,240,12.0,0.0
1276,88.0,0,240,10.0,0.0
1277,85.0,0,240,11.0,0.0
1278,45.0,48,390,13.0,0.0
1279,64.0,0,390,2.0,0.0
1280,73.0,0,390,2.0,0.0
1281,85.0,0,240,10.0,0.0
1282,64.0,240,15,12.0,0.0
1283,79.0,0,240,11.0,0.0
1284,85.0,0,390,0.0,0.0
1285,67.0,0,390,3.0,0.0
1286,57.0,0,390,3.0,0.0
1287,45.0,0,390,14.0,0.0
1288,79.0,0,390,0.0,0.0
1289,79.0,48,180,10.0,0.0
1290,67.0,144,15,12.0,0.0
1291,76.0,0,180,11.0,0.0
1292,73.0,192,240,12.0,0.0
1293,46.0,192,180,13.0,0.0
1294,64.0,48,390,12.0,0.0
1295,61.0,0,390,12.0,0.0
1296,46.0,48,1140,14.0,0.0
1297,52.0,240,180,13.0,0.0
1298,64.0,0,780,4.0,0.0
1299,76.0,48,720,11.0,0.0
1300,67.0,0,780,4.0,0.0
1301,79.0,0,720,10.0,0.0
1302,55.0,240,180,13.0,0.0
1303,79.0,0,780,1.0,0.0
1304,76.0,96,780,1.0,0.0
1305,61.0,240,180,13.0,0.0
1306,52.0,96,390,13.0,0.0
1307,55.0,0,240,12.0,0.0
1308,52.0,0,240,12.0,0.0
1309,61.0,0,240,12.0,0.0
1310,78.0,240,240,10.0,0.0
1311,75.0,0,240,11.0,0.0
1312,55.0,0,240,12.0,0.0
1313,73.0,0,390,1.0,0.0
1314,76.0,48,390,1.0,0.0
1315,46.0,0,390,14.0,0.0
1316,61.0,0,390,4.0,0.0
1317,46.0,0,390,13.0,0.0
1318,76.0,0,240,11.0,0.0
1319,64.0,0,390,4.0,0.0
1320,61.0,0,240,12.0,0.0
1321,79.0,144,240,10.0,0.0
1322,64.0,0,15,12.0,0.0
1323,67.0,240,240,12.0,0.0
1324,76.0,48,180,10.0,0.0
1325,73.0,0,180,11.0,0.0
1326,42.0,144,240,13.0,0.0
1327,58.0,96,390,12.0,0.0
1328,61.0,0,390,12.0,0.0
1329,42.0,48,1140,14.0,0.0
1330,52.0,240,240,13.0,0.0
1331,64.0,96,780,2.0,0.0
1332,58.0,192,240,13.0,0.0
1333,76.0,0,780,0.0,0.0
1334,82.0,0,780,0.0,0.0
1335,54.0,0,780,3.0,0.0
1336,61.0,0,780,3.0,0.0
1337,70.0,0,780,2.0,0.0
1338,85.0,48,720,11.0,0.0
1339,88.0,0,720,10.0,0.0
1340,61.0,240,180,13.0,0.0
1341,52.0,96,390,13.0,0.0
1342,54.0,0,240,12.0,0.0
1343,85.0,240,240,10.0,0.0
1344,82.0,0,240,11.0,0.0
1345,58.0,0,15,12.0,0.0
1346,61.0,0,240,12.0,0.0
1347,73.0,48,390,0.0,0.0
1348,82.0,0,390,0.0,0.0
1349,76.0,0,240,11.0,0.0
1350,64.0,0,240,12.0,0.0
1351,64.0,0,390,3.0,0.0
1352,61.0,0,240,12.0,0.0
1353,82.0,144,240,10.0,0.0
1354,70.0,0,390,2.0,0.0
1355,42.0,0,390,13.0,0.0
1356,30.0,0,390,14.0,0.0
1357,61.0,0,390,2.0,0.0
1358,54.0,0,390,3.0,0.0
1359,70.0,0,240,12.0,0.0
1360,64.0,384,240,12.0,0.0
1361,76.0,0,180,10.0,0.0
1362,73.0,48,180,11.0,0.0
1363,66.0,0,390,11.0,0.0
1364,75.0,0,390,10.0,0.0
1365,47.0,0,390,13.0,0.0
1366,59.0,0,390,3.0,0.0
1367,35.0,0,390,14.0,0.0
1368,81.0,0,390,0.0,0.0
1369,63.0,0,390,3.0,0.0
1370,63.0,0,390,2.0,0.0
1371,71.0,0,390,2.0,0.0
1372,75.0,480,390,0.0,0.0
1373,63.0,0,390,12.0,0.0
1374,71.0,0,390,12.0,0.0
1375,59.0,0,900,13.0,0.0
1376,71.0,0,390,1.0,0.0
1377,83.0,0,390,1.0,0.0
1378,67.0,0,390,4.0,0.0
1379,55.0,0,390,3.0,0.0
1380,47.0,0,900,14.0,0.0
1381,71.0,0,900,2.0,0.0
1382,59.0,96,390,3.0,0.0
1383,83.0,0,900,0.0,0.0
1384,79.0,0,900,0.0,0.0
1385,67.0,48,900,2.0,0.0
1386,67.0,0,570,12.0,0.0
1387,71.0,0,390,4.0,0.0
1388,71.0,288,570,11.0,0.0
1389,79.0,96,240,10.0,0.0
1390,52.0,0,480,3.0,0.0
1391,72.0,48,390,10.0,0.0
1392,72.0,0,780,1.0,0.0
1393,55.0,0,480,3.0,0.0
1394,84.0,96,780,1.0,0.0
1395,64.0,0,480,4.0,0.0
1396,67.0,0,480,4.0,0.0
1397,67.0,288,240,11.0,0.0
1398,64.0,0,240,12.0,0.0
1399,54.0,96,390,3.0,0.0
1400,57.0,0,390,3.0,0.0
1401,78.0,24,930,0.0,0.0
1402,69.0,0,390,4.0,0.0
1403,69.0,0,660,11.0,0.0
1404,47.0,0,930,14.0,0.0
1405,81.0,0,930,0.0,0.0
1406,59.0,0,930,13.0,0.0
1407,66.0,0,390,4.0,0.0
1408,69.0,0,930,2.0,0.0
1409,66.0,0,930,2.0,0.0
1410,66.0,192,660,12.0,0.0
1411,78.0,192,240,10.0,0.0
1412,54.0,0,480,3.0,0.0
1413,51.0,0,480,3.0,0.0
1414,71.0,0,780,1.0,0.0
1415,83.0,96,780,1.0,0.0
1416,66.0,0,480,4.0,0.0
1417,63.0,0,480,4.0,0.0
1418,71.0,72,390,10.0,0.0
1419,63.0,288,240,12.0,0.0
1420,66.0,0,240,11.0,0.0
1421,67.0,0,900,2.0,0.0
1422,67.0,288,570,11.0,0.0
1423,55.0,96,390,3.0,0.0
1424,52.0,0,390,3.0,0.0
1425,64.0,0,900,2.0,0.0
1426,79.0,0,900,0.0,0.0
1427,76.0,0,900,0.0,0.0
1428,64.0,0,570,12.0,0.0
1429,67.0,0,390,4.0,0.0
1430,64.0,0,390,4.0,0.0
1431,59.0,48,900,13.0,0.0
1432,47.0,0,900,14.0,0.0
1433,76.0,96,240,10.0,0.0
1434,61.0,0,480,4.0,0.0
1435,64.0,0,480,4.0,0.0
1436,69.0,48,390,1.0,0.0
1437,69.0,0,390,10.0,0.0
1438,52.0,264,480,3.0,0.0
1439,81.0,0,390,1.0,0.0
1440,49.0,0,480,3.0,0.0
1441,61.0,0,240,12.0,0.0
1442,64.0,0,240,11.0,0.0
1443,78.0,96,300,0.0,0.0
1444,75.0,0,300,1.0,0.0
1445,78.0,0,300,1.0,0.0
1446,63.0,0,390,4.0,0.0
1447,75.0,0,300,0.0,0.0
1448,63.0,0,660,12.0,0.0
1449,66.0,0,390,4.0,0.0
1450,54.0,0,390,3.0,0.0
1451,59.0,0,270,6.0,0.0
1452,71.0,24,270,6.0,0.0
1453,63.0,0,300,2.0,0.0
1454,66.0,0,300,2.0,0.0
1455,51.0,96,390,3.0,0.0
1456,45.0,0,270,13.0,0.0
1457,33.0,0,270,14.0,0.0
1458,66.0,72,660,11.0,0.0
1459,75.0,192,240,10.0,0.0
1460,83.0,0,300,1.0,0.0
1461,75.0,0,300,1.0,0.0
1462,83.0,0,300,0.0,0.0
1463,75.0,0,300,0.0,0.0
1464,31.0,0,270,14.0,0.0
1465,43.0,0,300,3.0,0.0
1466,55.0,96,300,3.0,0.0
1467,83.0,96,390,10.0,0.0
1468,64.0,24,270,6.0,0.0
1469,71.0,0,300,2.0,0.0
1470,76.0,0,270,6.0,0.0
1471,43.0,0,270,13.0,0.0
1472,63.0,0,300,4.0,0.0
1473,63.0,0,300,2.0,0.0
1474,66.0,0,300,4.0,0.0
1475,66.0,0,240,12.0,0.0
1476,75.0,480,240,11.0,0.0
1477,67.0,0,720,2.0,0.0
1478,71.0,0,720,2.0,0.0
1479,88.0,0,900,10.0,0.0
1480,88.0,96,780,1.0,0.0
1481,71.0,0,720,4.0,0.0
1482,67.0,0,720,4.0,0.0
1483,76.0,0,780,1.0,0.0
1484,67.0,144,570,12.0,0.0
1485,71.0,0,570,11.0,0.0
1486,79.0,0,720,0.0,0.0
1487,83.0,48,720,0.0,0.0
1488,60.0,0,240,13.0,0.0
1489,48.0,0,240,14.0,0.0
1490,48.0,0,240,3.0,0.0
1491,60.0,96,240,3.0,0.0
1492,54.0,0,390,13.0,0.0
1493,42.0,0,390,14.0,0.0
1494,42.0,0,390,3.0,0.0
1495,54.0,48,390,3.0,0.0
1496,72.0,480,240,11.0,0.0
1497,69.0,0,180,2.0,0.0
1498,66.0,0,180,4.0,0.0
1499,69.0,0,180,4.0,0.0
1500,69.0,0,240,12.0,0.0
1501,81.0,0,180,0.0,0.0
1502,84.0,48,180,0.0,0.0
1503,72.0,0,180,2.0,0.0
1504,66.0,0,660,12.0,0.0
1505,86.0,0,870,1.0,0.0
1506,69.0,0,720,2.0,0.0
1507,78.0,0,720,0.0,0.0
1508,74.0,0,870,1.0,0.0
1509,86.0,24,930,10.0,0.0
1510,66.0,0,720,2.0,0.0
1511,81.0,144,720,0.0,0.0
1512,66.0,0,720,4.0,0.0
1513,69.0,0,720,4.0,0.0
1514,69.0,48,660,11.0,0.0
1515,47.0,192,240,14.0,0.0
1516,59.0,0,240,3.0,0.0
1517,47.0,0,240,3.0,0.0
1518,59.0,0,240,13.0,0.0
1519,40.0,0,390,3.0,0.0
1520,52.0,48,390,3.0,0.0
1521,40.0,0,390,14.0,0.0
1522,52.0,0,390,13.0,0.0
1523,71.0,0,240,11.0,0.0
1524,71.0,0,180,2.0,0.0
1525,64.0,0,180,4.0,0.0
1526,67.0,24,180,4.0,0.0
1527,67.0,0,180,2.0,0.0
1528,67.0,480,240,12.0,0.0
1529,79.0,0,180,0.0,0.0
1530,83.0,0,180,0.0,0.0
1531,76.0,0,720,0.0,0.0
1532,79.0,0,720,0.0,0.0
1533,67.0,0,720,4.0,0.0
1534,64.0,48,720,4.0,0.0
1535,67.0,0,720,2.0,0.0
1536,64.0,0,570,12.0,0.0
1537,84.0,48,900,10.0,0.0
1538,67.0,144,570,11.0,0.0
1539,84.0,96,780,1.0,0.0
1540,72.0,0,780,1.0,0.0
1541,64.0,0,720,2.0,0.0
1542,45.0,0,240,14.0,0.0
1543,57.0,0,240,13.0,0.0
1544,45.0,96,240,3.0,0.0
1545,57.0,0,240,3.0,0.0
1546,50.0,0,390,13.0,0.0
1547,38.0,0,390,14.0,0.0
1548,38.0,0,390,3.0,0.0
1549,50.0,0,390,3.0,0.0
1550,69.0,0,150,2.0,0.0
1551,78.0,0,150,0.0,0.0
1552,81.0,0,150,0.0,0.0
1553,62.0,48,150,4.0,0.0
1554,66.0,0,150,4.0,0.0
1555,69.0,0,240,11.0,0.0
1556,66.0,0,150,2.0,0.0
1557,66.0,288,240,12.0,0.0
1558,66.0,0,300,4.0,0.0
1559,71.0,0,300,1.0,0.0
1560,83.0,0,300,1.0,0.0
1561,66.0,0,300,2.0,0.0
1562,62.0,0,300,2.0,0.0
1563,83.0,0,660,10.0,0.0
1564,62.0,96,390,12.0,0.0
1565,59.0,0,300,6.0,0.0
1566,62.0,0,300,4.0,0.0
1567,78.0,96,300,0.0,0.0
1568,66.0,0,390,11.0,0.0
1569,71.0,0,300,6.0,0.0
1570,74.0,0,300,0.0,0.0
1571,55.0,0,240,3.0,0.0
1572,55.0,0,240,13.0,0.0
1573,43.0,0,240,14.0,0.0
1574,43.0,192,240,3.0,0.0
1575,64.0,0,300,2.0,0.0
1576,67.0,0,300,2.0,0.0
1577,37.0,0,390,14.0,0.0
1578,64.0,0,300,4.0,0.0
1579,52.0,0,300,4.0,0.0
1580,49.0,48,390,13.0,0.0
1581,79.0,0,300,0.0,0.0
1582,64.0,0,300,6.0,0.0
1583,76.0,96,300,6.0,0.0
1584,49.0,0,300,3.0,0.0
1585,37.0,0,300,3.0,0.0
1586,76.0,0,300,0.0,0.0
1587,64.0,0,180,11.0,0.0
1588,76.0,0,300,1.0,0.0
1589,79.0,0,300,1.0,0.0
1590,67.0,96,180,12.0,0.0
1591,82.0,0,180,10.0,0.0
1592,67.0,0,180,12.0,0.0
1593,76.0,240,180,11.0,0.0
1594,64.0,0,180,12.0,0.0
1595,79.0,0,180,11.0,0.0
1596,64.0,0,240,12.0,0.0
1597,76.0,0,240,11.0,0.0
1598,79.0,0,240,11.0,0.0
1599,54.0,0,780,13.0,0.0
1600,64.0,0,240,3.0,0.0
1601,67.0,0,240,3.0,0.0
1602,76.0,0,240,2.0,0.0
1603,79.0,192,240,2.0,0.0
1604,82.0,48,180,10.0,0.0
1605,67.0,0,240,12.0,0.0
1606,42.0,96,780,14.0,0.0
1607,62.0,48,180,3.0,0.0
1608,66.0,0,180,3.0,0.0
1609,86.0,288,240,10.0,0.0
1610,74.0,0,180,11.0,0.0
1611,78.0,0,180,2.0,0.0
1612,62.0,0,180,12.0,0.0
1613,66.0,0,180,12.0,0.0
1614,74.0,0,180,2.0,0.0
1615,78.0,0,180,11.0,0.0
1616,67.0,0,900,4.0,0.0
1617,79.0,48,390,10.0,0.0
1618,71.0,0,900,4.0,0.0
1619,74.0,0,720,2.0,0.0
1620,78.0,192,720,2.0,0.0
1621,62.0,0,720,3.0,0.0
1622,66.0,0,720,3.0,0.0
1623,62.0,0,180,12.0,0.0
1624,66.0,0,180,12.0,0.0
1625,74.0,0,180,11.0,0.0
1626,78.0,288,180,11.0,0.0
1627,66.0,0,240,12.0,0.0
1628,62.0,0,240,12.0,0.0
1629,30.0,0,870,14.0,0.0
1630,42.0,0,870,13.0,0.0
1631,78.0,0,240,11.0,0.0
1632,74.0,0,240,11.0,0.0
1633,76.0,0,180,11.0,0.0
1634,73.0,48,180,11.0,0.0
1635,85.0,384,240,10.0,0.0
1636,64.0,0,180,12.0,0.0
1637,61.0,0,180,12.0,0.0
1638,64.0,0,180,3.0,0.0
1639,61.0,0,180,3.0,0.0
1640,73.0,0,180,2.0,0.0
1641,76.0,0,180,2.0,0.0
1642,73.0,0,720,2.0,0.0
1643,78.0,48,390,10.0,0.0
1644,61.0,0,720,3.0,0.0
1645,76.0,0,720,2.0,0.0
1646,66.0,0,900,4.0,0.0
1647,69.0,0,900,4.0,0.0
1648,64.0,0,720,3.0,0.0
1649,61.0,0,180,12.0,0.0
1650,64.0,0,180,12.0,0.0
1651,73.0,288,180,11.0,0.0
1652,76.0,0,180,11.0,0.0
1653,42.0,0,390,14.0,0.0
1654,76.0,144,240,11.0,0.0
1655,73.0,0,240,11.0,0.0
1656,54.0,48,390,13.0,0.0
1657,61.0,0,240,12.0,0.0
1658,64.0,0,240,12.0,0.0
1659,62.0,0,180,12.0,0.0
1660,59.0,0,180,3.0,0.0
1661,62.0,0,180,3.0,0.0
1662,83.0,0,240,10.0,0.0
1663,74.0,0,180,2.0,0.0
1664,71.0,0,240,1.0,0.0
1665,74.0,48,180,11.0,0.0
1666,71.0,0,180,11.0,0.0
1667,83.0,192,240,0.0,0.0
1668,71.0,0,180,2.0,0.0
1669,59.0,0,180,12.0,0.0
1670,76.0,48,180,10.0,0.0
1671,42.0,0,390,13.0,0.0
1672,74.0,0,240,11.0,0.0
1673,67.0,0,480,2.0,0.0
1674,76.0,0,480,2.0,0.0
1675,55.0,0,480,3.0,0.0
1676,71.0,0,240,11.0,0.0
1677,64.0,0,480,3.0,0.0
1678,79.0,0,480,0.0,0.0
1679,67.0,0,480,4.0,0.0
1680,88.0,192,480,0.0,0.0
1681,64.0,0,480,4.0,0.0
1682,62.0,144,240,12.0,0.0
1683,79.0,0,480,1.0,0.0
1684,59.0,0,240,12.0,0.0
1685,30.0,48,390,14.0,0.0
1686,76.0,0,480,1.0,0.0
1687,81.0,0,240,10.0,0.0
1688,57.0,0,180,12.0,0.0
1689,61.0,0,180,12.0,0.0
1690,73.0,48,180,11.0,0.0
1691,69.0,0,180,11.0,0.0
1692,62.0,0,390,4.0,0.0
1693,74.0,0,390,1.0,0.0
1694,73.0,0,240,11.0,0.0
1695,78.0,0,390,1.0,0.0
1696,69.0,0,240,11.0,0.0
1697,66.0,0,390,4.0,0.0
1698,62.0,0,390,3.0,0.0
1699,86.0,0,390,0.0,0.0
1700,74.0,48,180,10.0,0.0
1701,42.0,48,390,14.0,0.0
1702,57.0,144,240,12.0,0.0
1703,61.0,0,240,12.0,0.0
1704,78.0,0,390,0.0,0.0
1705,54.0,0,390,3.0,0.0
1706,54.0,0,390,13.0,0.0
1707,66.0,0,390,2.0,0.0
1708,74.0,0,390,2.0,0.0
1709,71.0,48,180,11.0,0.0
1710,67.0,0,180,11.0,0.0
1711,59.0,0,180,12.0,0.0
1712,55.0,0,180,12.0,0.0
1713,79.0,192,240,10.0,0.0
1714,30.0,0,390,14.0,0.0
1715,42.0,48,390,13.0,0.0
1716,61.0,0,480,3.0,0.0
1717,52.0,0,480,3.0,0.0
1718,64.0,0,480,2.0,0.0
1719,73.0,0,480,2.0,0.0
1720,64.0,192,480,4.0,0.0
1721,59.0,0,240,12.0,0.0
1722,61.0,0,480,4.0,0.0
1723,73.0,48,180,10.0,0.0
1724,67.0,0,240,11.0,0.0
1725,85.0,0,480,0.0,0.0
1726,88.0,0,480,0.0,0.0
1727,73.0,0,480,1.0,0.0
1728,76.0,0,480,1.0,0.0
1729,55.0,0,240,12.0,0.0
1730,71.0,144,240,11.0,0.0
1731,66.0,48,180,11.0,0.0
1732,69.0,0,180,11.0,0.0
1733,78.0,0,240,10.0,0.0
1734,54.0,0,180,12.0,0.0
1735,57.0,0,180,12.0,0.0
1736,71.0,0,390,1.0,0.0
1737,74.0,0,390,1.0,0.0
1738,50.0,0,390,3.0,0.0
1739,83.0,0,390,0.0,0.0
1740,86.0,0,390,0.0,0.0
1741,59.0,0,390,3.0,0.0
1742,54.0,0,240,12.0,0.0
1743,71.0,0,390,2.0,0.0
1744,62.0,0,390,2.0,0.0
1745,54.0,48,390,13.0,0.0
1746,57.0,0,240,12.0,0.0
1747,42.0,0,390,14.0,0.0
1748,71.0,48,180,10.0,0.0
1749,62.0,0,390,4.0,0.0
1750,59.0,0,390,4.0,0.0
1751,66.0,0,240,11.0,0.0
1752,69.0,144,240,11.0,0.0
1753,67.0,0,180,11.0,0.0
1754,55.0,48,180,12.0,0.0
1755,52.0,0,180,12.0,0.0
1756,76.0,240,240,10.0,0.0
1757,64.0,0,180,11.0,0.0
1758,61.0,240,960,2.0,0.0
1759,42.0,0,390,13.0,0.0
1760,55.0,0,240,12.0,0.0
1761,52.0,144,240,12.0,0.0
1762,64.0,0,240,11.0,0.0
1763,70.0,0,960,2.0,0.0
1764,61.0,0,390,4.0,0.0
1765,70.0,144,570,10.0,0.0
1766,82.0,0,960,0.0,0.0
1767,85.0,0,960,0.0,0.0
1768,70.0,0,960,1.0,0.0
1769,30.0,48,390,14.0,0.0
1770,73.0,0,960,1.0,0.0
1771,58.0,48,870,3.0,0.0
1772,49.0,0,390,3.0,0.0
1773,67.0,0,240,11.0,0.0
1774,58.0,0,870,4.0,0.0
1775,50.0,0,180,12.0,0.0
1776,54.0,0,180,12.0,0.0
1777,66.0,144,180,11.0,0.0
1778,62.0,0,180,11.0,0.0
1779,62.0,0,240,11.0,0.0
1780,66.0,0,390,4.0,0.0
1781,42.0,0,390,3.0,0.0
1782,66.0,0,240,11.0,0.0
1783,50.0,144,240,12.0,0.0
1784,42.0,0,390,14.0,0.0
1785,54.0,0,390,13.0,0.0
1786,54.0,0,240,12.0,0.0
1787,52.0,0,180,12.0,0.0
1788,49.0,0,180,12.0,0.0
1789,64.0,48,180,11.0,0.0
1790,70.0,0,180,10.0,0.0
1791,61.0,0,180,11.0,0.0
1792,49.0,0,240,12.0,0.0
1793,59.0,0,300,2.0,0.0
1794,43.0,288,420,14.0,0.0
1795,71.0,96,300,10.0,0.0
1796,71.0,0,300,2.0,0.0
1797,83.0,0,300,0.0,0.0
1798,71.0,0,300,1.0,0.0
1799,43.0,0,300,3.0,0.0
1800,59.0,0,300,3.0,0.0
1801,61.0,0,240,11.0,0.0
1802,52.0,0,240,12.0,0.0
1803,59.0,48,390,4.0,0.0
1804,55.0,0,420,13.0,0.0
1805,64.0,48,240,11.0,0.0
1806,59.0,0,180,11.0,0.0
1807,50.0,0,180,12.0,0.0
1808,47.0,0,180,12.0,0.0
1809,62.0,0,180,11.0,0.0
1810,52.0,192,240,3.0,0.0
1811,47.0,0,420,13.0,0.0
1812,67.0,0,240,2.0,0.0
1813,64.0,0,240,2.0,0.0
1814,74.0,0,480,10.0,0.0
1815,67.0,0,240,11.0,0.0
1816,55.0,0,240,12.0,0.0
1817,52.0,0,240,12.0,0.0
1818,59.0,0,480,4.0,0.0
1819,83.0,0,480,0.0,0.0
1820,86.0,0,480,0.0,0.0
1821,64.0,0,240,11.0,0.0
1822,71.0,432,480,1.0,0.0
1823,74.0,0,480,1.0,0.0
1824,55.0,0,240,3.0,0.0
1825,35.0,0,420,14.0,0.0
1826,62.0,0,180,11.0,0.0
1827,66.0,0,180,11.0,0.0
1828,50.0,0,180,12.0,0.0
1829,54.0,0,180,12.0,0.0
1830,62.0,0,180,2.0,0.0
1831,66.0,0,180,2.0,0.0
1832,54.0,0,180,3.0,0.0
1833,50.0,48,180,3.0,0.0
1834,70.0,336,570,10.0,0.0
1835,82.0,0,960,0.0,0.0
1836,38.0,0,420,14.0,0.0
1837,62.0,0,480,2.0,0.0
1838,62.0,0,480,11.0,0.0
1839,66.0,0,480,11.0,0.0
1840,62.0,0,900,4.0,0.0
1841,54.0,0,480,12.0,0.0
1842,50.0,0,480,12.0,0.0
1843,66.0,96,480,2.0,0.0
1844,50.0,48,420,13.0,0.0
1845,70.0,0,960,1.0,0.0
1846,54.0,0,480,3.0,0.0
1847,50.0,0,480,3.0,0.0
1848,66.0,0,480,1.0,0.0
1849,78.0,0,480,0.0,0.0
1850,48.0,0,480,3.0,0.0
1851,26.0,0,420,14.0,0.0
1852,38.0,0,420,14.0,0.0
1853,48.0,0,480,12.0,0.0
1854,76.0,0,480,0.0,0.0
1855,60.0,0,480,11.0,0.0
1856,64.0,288,480,11.0,0.0
1857,52.0,0,480,12.0,0.0
1858,60.0,0,480,2.0,0.0
1859,64.0,0,480,1.0,0.0
1860,38.0,0,420,13.0,0.0
1861,64.0,0,480,2.0,0.0
1862,52.0,0,480,3.0,0.0
1863,70.0,48,180,10.0,0.0
1864,31.0,0,300,14.0,0.0
1865,71.0,0,300,10.0,0.0
1866,71.0,0,390,1.0,0.0
1867,59.0,0,300,2.0,0.0
1868,62.0,0,300,2.0,0.0
1869,62.0,0,300,4.0,0.0
1870,43.0,0,300,13.0,0.0
1871,83.0,576,390,0.0,0.0
1872,47.0,96,300,3.0,0.0
1873,50.0,0,300,12.0,0.0
1874,50.0,0,300,3.0,0.0
1875,62.0,0,300,11.0,0.0
1876,59.0,0,300,11.0,0.0
1877,59.0,0,900,12.0,0.0
1878,86.0,0,480,10.0,0.0
1879,74.0,432,480,11.0,0.0
1880,55.0,48,900,13.0,0.0
1881,73.0,480,480,11.0,0.0
1882,85.0,0,480,10.0,0.0
1883,61.0,0,930,12.0,0.0
1884,57.0,24,930,13.0,0.0
1885,71.0,456,480,11.0,0.0
1886,83.0,0,480,10.0,0.0
1887,81.0,0,480,10.0,0.0
1888,69.0,456,480,11.0,0.0
1889,79.0,0,450,10.0,0.0
1890,59.0,0,480,12.0,0.0
1891,62.0,480,480,13.0,0.0
1892,67.0,24,450,11.0,0.0
1893,61.0,480,480,13.0,0.0
1894,57.0,0,480,12.0,0.0
1895,74.0,0,1410,10.0,0.0
1896,62.0,24,1410,11.0,0.0
1897,59.0,0,480,13.0,0.0
1898,55.0,456,480,12.0,0.0
1899,57.0,0,480,13.0,0.0
1900,54.0,384,480,12.0,0.0
1901,52.0,96,390,12.0,0.0
1902,55.0,0,390,13.0,0.0
1903,61.0,144,480,11.0,0.0
1904,73.0,0,480,10.0,0.0
1905,38.0,96,1740,14.0,0.0
1906,70.0,48,720,10.0,0.0
1907,66.0,96,780,2.0,0.0
1908,54.0,0,150,12.0,0.0
1909,62.0,0,780,2.0,0.0
1910,58.0,0,720,11.0,0.0
1911,54.0,0,780,3.0,0.0
1912,50.0,0,780,3.0,0.0
1913,38.0,336,150,13.0,0.0
1914,50.0,0,240,12.0,0.0
1915,38.0,240,240,13.0,0.0
1916,54.0,336,630,12.0,0.0
1917,50.0,84,390,13.0,0.0
1918,59.0,156,240,11.0,0.0
1919,71.0,0,240,10.0,0.0
1920,62.0,48,720,11.0,0.0
1921,38.0,0,150,13.0,0.0
1922,54.0,0,480,3.0,0.0
1923,62.0,0,480,2.0,0.0
1924,71.0,0,480,2.0,0.0
1925,74.0,0,720,10.0,0.0
1926,50.0,0,240,13.0,0.0
1927,54.0,0,240,12.0,0.0
1928,71.0,0,390,2.0,0.0
1929,62.0,0,390,3.0,0.0
1930,59.0,240,15,3.0,0.0
1931,59.0,96,570,12.0,0.0
1932,54.0,84,390,13.0,0.0
1933,74.0,0,390,2.0,0.0
1934,66.0,108,240,11.0,0.0
1935,78.0,0,240,10.0,0.0
1936,50.0,288,180,13.0,0.0
1937,71.0,0,720,11.0,0.0
1938,78.0,0,480,2.0,0.0
1939,83.0,0,720,10.0,0.0
1940,66.0,0,480,3.0,0.0
1941,50.0,0,1260,14.0,0.0
1942,62.0,0,480,3.0,0.0
1943,62.0,0,240,12.0,0.0
1944,59.0,0,240,13.0,0.0
1945,62.0,0,240,13.0,0.0
1946,74.0,240,15,2.0,0.0
1947,66.0,144,240,12.0,0.0
1948,59.0,84,390,3.0,0.0
1949,62.0,0,390,3.0,0.0
1950,71.0,0,390,2.0,0.0
1951,66.0,0,240,13.0,0.0
1952,74.0,12,240,11.0,0.0
1953,71.0,288,240,12.0,0.0
1954,86.0,0,240,10.0,0.0
1955,66.0,0,300,2.0,0.0
1956,71.0,0,300,2.0,0.0
1957,50.0,0,300,13.0,0.0
1958,59.0,0,300,13.0,0.0
1959,59.0,0,300,3.0,0.0
1960,90.0,432,300,10.0,0.0
1961,74.0,0,300,12.0,0.0
1962,78.0,0,300,11.0,0.0
1963,50.0,0,300,3.0,0.0
1964,91.0,240,480,10.0,0.0
1965,91.0,0,480,0.0,0.0
1966,88.0,0,480,0.0,0.0
1967,36.0,0,780,14.0,0.0
1968,36.0,240,240,13.0,0.0
1969,76.0,0,480,11.0,0.0
1970,52.0,0,240,12.0,0.0
1971,72.0,0,780,2.0,0.0
1972,64.0,144,780,2.0,0.0
1973,52.0,0,780,3.0,0.0
1974,36.0,0,780,3.0,0.0
1975,55.0,0,240,12.0,0.0
1976,43.0,0,240,13.0,0.0
1977,74.0,0,480,11.0,0.0
1978,52.0,48,240,13.0,0.0
1979,60.0,0,240,12.0,0.0
1980,90.0,0,480,0.0,0.0
1981,90.0,0,480,10.0,0.0
1982,86.0,240,480,0.0,0.0
1983,64.0,48,180,12.0,0.0
1984,55.0,0,180,13.0,0.0
1985,54.0,240,240,12.0,0.0
1986,88.0,0,480,10.0,0.0
1987,50.0,0,240,13.0,0.0
1988,38.0,0,870,14.0,0.0
1989,54.0,48,870,3.0,0.0
1990,69.0,0,870,2.0,0.0
1991,38.0,0,870,3.0,0.0
1992,66.0,0,870,2.0,0.0
1993,72.0,0,480,11.0,0.0
1994,88.0,0,480,0.0,0.0
1995,54.0,0,240,13.0,0.0
1996,57.0,240,240,12.0,0.0
1997,84.0,0,15,0.0,0.0
1998,86.0,0,480,0.0,0.0
1999,57.0,144,240,13.0,0.0
2000,86.0,0,480,10.0,0.0
2001,71.0,0,480,11.0,0.0
2002,60.0,0,240,12.0,0.0
2003,62.0,0,180,13.0,0.0
2004,66.0,48,180,12.0,0.0
2005,72.0,0,450,11.0,0.0
2006,84.0,24,450,10.0,0.0
2007,40.0,0,1830,3.0,0.0
2008,55.0,0,1830,3.0,0.0
2009,67.0,0,480,5.0,0.0
2010,64.0,0,480,5.0,0.0
2011,55.0,0,240,12.0,0.0
2012,52.0,216,240,13.0,0.0
2013,40.0,48,1830,14.0,0.0
2014,76.0,0,480,1.0,0.0
2015,76.0,0,480,2.0,0.0
2016,79.0,0,480,2.0,0.0
2017,79.0,0,480,1.0,0.0
2018,84.0,240,15,0.0,0.0
2019,55.0,0,240,13.0,0.0
2020,60.0,240,240,12.0,0.0
2021,78.0,0,480,2.0,0.0
2022,74.0,0,480,2.0,0.0
2023,67.0,240,1440,11.0,0.0
2024,79.0,0,1440,10.0,0.0
2025,79.0,96,1740,0.0,0.0
2026,60.0,0,240,13.0,0.0
2027,62.0,240,480,5.0,0.0
2028,66.0,0,480,5.0,0.0
2029,74.0,0,480,1.0,0.0
2030,78.0,0,480,1.0,0.0
2031,64.0,192,240,12.0,0.0
2032,64.0,48,180,13.0,0.0
2033,67.0,0,180,12.0,0.0
2034,55.0,192,240,13.0,0.0
2035,60.0,0,240,12.0,0.0
2036,76.0,0,480,2.0,0.0
2037,60.0,0,480,5.0,0.0
2038,64.0,240,480,5.0,0.0
2039,76.0,0,480,1.0,0.0
2040,72.0,0,480,2.0,0.0
2041,72.0,0,480,1.0,0.0
2042,60.0,48,180,13.0,0.0
2043,64.0,0,180,12.0,0.0
2044,55.0,144,240,12.0,0.0
2045,74.0,0,480,2.0,0.0
2046,74.0,0,480,1.0,0.0
2047,71.0,0,480,1.0,0.0
2048,62.0,0,480,5.0,0.0
2049,59.0,0,480,5.0,0.0
2050,52.0,0,240,13.0,0.0
2051,71.0,0,480,2.0,0.0
2052,55.0,48,180,13.0,0.0
2053,60.0,0,180,12.0,0.0
2054,72.0,0,480,1.0,0.0
2055,60.0,0,390,5.0,0.0
2056,51.0,48,240,13.0,0.0
2057,39.0,48,390,14.0,0.0
2058,55.0,0,240,12.0,0.0
2059,81.0,240,480,10.0,0.0
2060,69.0,0,480,11.0,0.0
2061,40.0,0,390,3.0,0.0
2062,50.0,0,390,3.0,0.0
2063,72.0,0,480,2.0,0.0
2064,60.0,0,180,12.0,0.0
2065,55.0,48,180,13.0,0.0
2066,67.0,0,780,1.0,0.0
2067,43.0,0,780,5.0,0.0
2068,55.0,144,780,5.0,0.0
2069,50.0,192,240,13.0,0.0
2070,74.0,0,780,6.0,0.0
2071,67.0,0,780,6.0,0.0
2072,55.0,0,240,12.0,0.0
2073,72.0,0,720,11.0,0.0
2074,67.0,0,780,2.0,0.0
2075,50.0,0,780,3.0,0.0
2076,38.0,0,780,3.0,0.0
2077,79.0,0,780,0.0,0.0
2078,38.0,0,780,14.0,0.0
2079,55.0,0,780,4.0,0.0
2080,84.0,0,720,10.0,0.0
2081,55.0,0,180,13.0,0.0
2082,62.0,288,180,12.0,0.0
2083,55.0,0,240,12.0,0.0
2084,50.0,48,240,13.0,0.0
2085,83.0,252,240,10.0,0.0
2086,71.0,36,180,11.0,0.0
2087,55.0,0,180,13.0,0.0
2088,62.0,0,180,12.0,0.0
2089,79.0,0,720,10.0,0.0
2090,55.0,0,480,5.0,0.0
2091,55.0,0,480,4.0,0.0
2092,35.0,0,780,14.0,0.0
2093,67.0,0,780,1.0,0.0
2094,67.0,0,780,6.0,0.0
2095,47.0,192,240,13.0,0.0
2096,74.0,0,780,6.0,0.0
2097,79.0,0,780,0.0,0.0
2098,47.0,96,780,3.0,0.0
2099,67.0,0,780,2.0,0.0
2100,67.0,48,720,11.0,0.0
2101,50.0,0,240,12.0,0.0
2102,50.0,48,180,13.0,0.0
2103,55.0,0,180,12.0,0.0
2104,59.0,0,15,5.0,0.0
2105,50.0,0,240,12.0,0.0
2106,62.0,0,390,4.0,0.0
2107,59.0,240,15,4.0,0.0
2108,47.0,0,240,13.0,0.0
2109,62.0,0,390,5.0,0.0
2110,50.0,0,180,13.0,0.0
2111,55.0,0,180,12.0,0.0
2112,62.0,36,180,11.0,0.0
2113,74.0,252,240,10.0,0.0
2114,53.0,0,780,3.0,0.0
2115,67.0,0,780,2.0,0.0
2116,79.0,96,780,0.0,0.0
2117,74.0,0,780,6.0,0.0
2118,55.0,192,240,12.0,0.0
2119,59.0,0,240,11.0,0.0
2120,71.0,0,720,10.0,0.0
2121,41.0,0,780,3.0,0.0
2122,71.0,0,780,6.0,0.0
2123,67.0,0,780,1.0,0.0
2124,67.0,240,480,5.0,0.0
2125,62.0,0,480,4.0,0.0
2126,67.0,0,480,4.0,0.0
2127,41.0,0,780,13.0,0.0
2128,29.0,0,780,14.0,0.0
2129,62.0,0,180,11.0,0.0
2130,59.0,48,180,12.0,0.0
2131,62.0,0,15,5.0,0.0
2132,59.0,0,390,5.0,0.0
2133,59.0,0,390,4.0,0.0
2134,55.0,48,240,12.0,0.0
2135,62.0,48,390,4.0,0.0
2136,59.0,0,240,11.0,0.0
2137,67.0,396,240,10.0,0.0
2138,60.0,36,180,11.0,0.0
2139,59.0,0,180,12.0,0.0
2140,78.0,0,390,6.0,0.0
2141,61.0,0,390,5.0,0.0
2142,54.0,0,390,5.0,0.0
2143,61.0,0,390,12.0,0.0
2144,30.0,0,390,14.0,0.0
2145,66.0,0,570,1.0,0.0
2146,54.0,264,570,3.0,0.0
2147,66.0,0,390,4.0,0.0
2148,42.0,192,390,13.0,0.0
2149,42.0,0,570,3.0,0.0
2150,78.0,0,570,0.0,0.0
2151,66.0,0,570,2.0,0.0
2152,58.0,0,390,11.0,0.0
2153,66.0,0,390,10.0,0.0
2154,54.0,0,120,3.0,0.0
2155,66.0,0,120,2.0,0.0
2156,66.0,120,120,1.0,0.0
2157,70.0,192,120,1.0,0.0
2158,58.0,0,120,3.0,0.0
2159,70.0,0,120,2.0,0.0
2160,73.0,0,180,2.0,0.0
2161,73.0,0,180,1.0,0.0
2162,61.0,64,180,3.0,0.0
2163,61.0,256,270,5.0,0.0
2164,70.0,0,180,2.0,0.0
2165,58.0,0,180,3.0,0.0
2166,58.0,256,270,5.0,0.0
2167,70.0,64,180,1.0,0.0
2168,62.0,640,270,5.0,0.0
2169,74.0,0,180,1.0,0.0
2170,62.0,0,180,3.0,0.0
2171,74.0,64,180,2.0,0.0
2172,73.0,0,570,1.0,0.0
2173,73.0,0,570,2.0,0.0
2174,61.0,288,570,5.0,0.0
2175,61.0,0,570,3.0,0.0
2176,70.0,0,150,1.0,0.0
2177,70.0,0,150,2.0,0.0
2178,58.0,0,150,3.0,0.0
2179,58.0,384,150,5.0,0.0
2180,66.0,0,300,1.0,0.0
2181,66.0,480,300,2.0,0.0
2182,54.0,0,300,3.0,0.0
2183,54.0,0,300,5.0,0.0
2184,78.0,0,300,1.0,0.0
2185,66.0,0,300,5.0,0.0
2186,66.0,0,300,3.0,0.0
2187,78.0,768,300,2.0,0.0
2188,74.0,288,570,1.0,0.0
2189,62.0,0,570,5.0,0.0
2190,62.0,0,570,3.0,0.0
2191,74.0,0,570,2.0,0.0
2192,61.0,0,150,3.0,0.0
2193,73.0,0,150,2.0,0.0
2194,61.0,0,150,5.0,0.0
2195,73.0,384,150,1.0,0.0
2196,61.0,0,300,5.0,0.0
2197,73.0,0,300,2.0,0.0
2198,61.0,480,300,3.0,0.0
2199,73.0,0,300,1.0,0.0
2200,93.0,0,390,0.0,0.0
2201,42.0,0,300,13.0,0.0
2202,66.0,0,300,11.0,0.0
2203,78.0,0,300,11.0,0.0
2204,58.0,0,300,5.0,0.0
2205,66.0,0,300,4.0,0.0
2206,82.0,480,390,0.0,0.0
2207,73.0,96,300,12.0,0.0
2208,70.0,0,300,12.0,0.0
2209,42.0,0,300,3.0,0.0
2210,30.0,0,300,14.0,0.0
2211,70.0,0,300,1.0,0.0
2212,90.0,0,300,10.0,0.0
2213,70.0,0,300,2.0,0.0
2214,58.0,0,300,3.0,0.0
2215,78.0,288,570,0.0,0.0
2216,86.0,0,570,0.0,0.0
2217,66.0,192,390,2.0,0.0
2218,59.0,0,570,4.0,0.0
2219,66.0,0,570,4.0,0.0
2220,66.0,0,390,1.0,0.0
2221,86.0,0,570,10.0,0.0
2222,35.0,0,570,14.0,0.0
2223,54.0,0,570,5.0,0.0
2224,74.0,0,570,12.0,0.0
2225,71.0,0,570,12.0,0.0
2226,47.0,0,570,13.0,0.0
2227,66.0,0,570,11.0,0.0
2228,74.0,0,570,11.0,0.0
2229,54.0,0,390,3.0,0.0
2230,47.0,0,390,3.0,0.0
2231,65.0,0,150,12.0,0.0
2232,65.0,0,150,4.0,0.0
2233,68.0,384,150,12.0,0.0
2234,61.0,0,150,5.0,0.0
2235,49.0,0,150,13.0,0.0
2236,37.0,0,150,14.0,0.0
2237,56.0,0,150,4.0,0.0
2238,73.0,0,150,11.0,0.0
2239,77.0,0,150,0.0,0.0
2240,65.0,0,150,11.0,0.0
2241,85.0,0,150,0.0,0.0
2242,85.0,0,150,10.0,0.0
2243,56.0,0,300,4.0,0.0
2244,68.0,0,300,12.0,0.0
2245,65.0,0,300,4.0,0.0
2246,65.0,0,300,12.0,0.0
2247,85.0,480,300,10.0,0.0
2248,85.0,0,300,0.0,0.0
2249,49.0,0,300,13.0,0.0
2250,37.0,0,300,14.0,0.0
2251,73.0,0,300,11.0,0.0
2252,65.0,0,300,11.0,0.0
2253,77.0,0,300,0.0,0.0
2254,61.0,0,300,5.0,0.0
2255,82.0,0,300,0.0,0.0
2256,78.0,0,300,0.0,0.0
2257,42.0,384,390,3.0,0.0
2258,82.0,0,300,10.0,0.0
2259,42.0,0,300,13.0,0.0
2260,66.0,0,300,11.0,0.0
2261,70.0,0,300,12.0,0.0
2262,30.0,0,300,14.0,0.0
2263,66.0,0,300,2.0,0.0
2264,70.0,0,300,11.0,0.0
2265,70.0,0,300,1.0,0.0
2266,70.0,0,300,2.0,0.0
2267,66.0,0,300,1.0,0.0
2268,58.0,0,300,4.0,0.0
2269,61.0,0,300,5.0,0.0
2270,61.0,0,300,12.0,0.0
2271,66.0,96,300,4.0,0.0
2272,58.0,0,300,5.0,0.0
2273,42.0,0,300,14.0,0.0
2274,73.0,0,300,2.0,0.0
2275,70.0,0,300,1.0,0.0
2276,66.0,0,300,1.0,0.0
2277,66.0,576,300,11.0,0.0
2278,70.0,0,300,11.0,0.0
2279,58.0,0,300,12.0,0.0
2280,70.0,0,300,2.0,0.0
2281,54.0,0,300,3.0,0.0
2282,78.0,0,300,10.0,0.0
2283,54.0,0,960,13.0,0.0
2284,54.0,288,960,5.0,0.0
2285,78.0,0,300,0.0,0.0
2286,66.0,0,300,12.0,0.0
2287,64.0,0,150,12.0,0.0
2288,49.0,0,150,3.0,0.0
2289,61.0,0,150,3.0,0.0
2290,49.0,96,150,14.0,0.0
2291,64.0,0,1350,13.0,0.0
2292,61.0,96,300,3.0,0.0
2293,49.0,0,300,3.0,0.0
2294,66.0,0,300,2.0,0.0
2295,58.0,0,300,2.0,0.0
2296,66.0,384,390,10.0,0.0
2297,64.0,0,300,12.0,0.0
2298,78.0,0,300,0.0,0.0
2299,61.0,0,300,5.0,0.0
2300,49.0,0,300,14.0,0.0
2301,58.0,0,390,11.0,0.0
2302,66.0,0,390,11.0,0.0
2303,64.0,0,300,5.0,0.0
2304,64.0,0,1350,4.0,0.0
2305,58.0,0,300,3.0,0.0
2306,46.0,0,300,3.0,0.0
2307,46.0,480,300,14.0,0.0
2308,61.0,0,300,12.0,0.0
2309,70.0,0,390,10.0,0.0
2310,61.0,0,300,5.0,0.0
2311,58.0,0,300,5.0,0.0
2312,42.0,0,300,14.0,0.0
2313,70.0,384,390,11.0,0.0
2314,66.0,0,390,11.0,0.0
2315,78.0,0,390,10.0,0.0
2316,78.0,0,300,2.0,0.0
2317,70.0,0,300,2.0,0.0
2318,82.0,96,300,0.0,0.0
2319,58.0,0,300,12.0,0.0
2320,42.0,0,300,3.0,0.0
2321,54.0,0,300,3.0,0.0
2322,90.0,0,300,0.0,0.0
2323,38.0,0,300,3.0,0.0
2324,66.0,288,480,13.0,0.0
2325,50.0,96,300,3.0,0.0
2326,54.0,0,300,12.0,0.0
2327,66.0,96,390,4.0,0.0
2328,38.0,0,300,14.0,0.0
2329,64.0,384,480,13.0,0.0
2330,35.0,0,300,14.0,0.0
2331,62.0,96,390,11.0,0.0
2332,71.0,0,390,10.0,0.0
2333,71.0,0,390,11.0,0.0
2334,66.0,0,300,2.0,0.0
2335,47.0,96,300,3.0,0.0
2336,59.0,0,300,5.0,0.0
2337,62.0,0,300,5.0,0.0
2338,83.0,0,300,0.0,0.0
2339,35.0,0,300,3.0,0.0
2340,64.0,0,390,4.0,0.0
2341,50.0,0,300,12.0,0.0
2342,71.0,0,300,2.0,0.0
2343,62.0,888,450,13.0,0.0
2344,62.0,72,390,4.0,0.0
2345,67.0,336,900,4.0,0.0
2346,67.0,0,900,13.0,0.0
2347,50.0,0,150,14.0,0.0
2348,62.0,0,150,3.0,0.0
2349,66.0,48,150,12.0,0.0
2350,50.0,0,150,3.0,0.0
2351,59.0,0,390,11.0,0.0
2352,66.0,0,1410,4.0,0.0
2353,50.0,96,300,3.0,0.0
2354,62.0,0,300,3.0,0.0
2355,71.0,384,390,10.0,0.0
2356,66.0,312,1410,13.0,0.0
2357,71.0,0,300,2.0,0.0
2358,62.0,0,300,5.0,0.0
2359,59.0,0,300,5.0,0.0
2360,66.0,0,300,12.0,0.0
2361,71.0,0,300,0.0,0.0
2362,50.0,0,300,14.0,0.0
2363,59.0,0,300,3.0,0.0
2364,62.0,0,300,12.0,0.0
2365,47.0,0,300,14.0,0.0
2366,47.0,480,300,3.0,0.0
2367,83.0,72,390,10.0,0.0
2368,59.0,0,300,12.0,0.0
2369,79.0,0,300,2.0,0.0
2370,83.0,0,300,2.0,0.0
2371,55.0,0,300,5.0,0.0
2372,55.0,0,300,3.0,0.0
2373,59.0,0,300,5.0,0.0
2374,43.0,0,300,3.0,0.0
2375,67.0,0,390,11.0,0.0
2376,71.0,0,390,11.0,0.0
2377,79.0,0,300,0.0,0.0
2378,83.0,0,300,0.0,0.0
2379,43.0,96,300,14.0,0.0
2380,61.0,0,480,4.0,0.0
2381,61.0,288,480,13.0,0.0
2382,40.0,0,300,3.0,0.0
2383,52.0,192,300,3.0,0.0
2384,40.0,0,300,14.0,0.0
2385,55.0,0,300,12.0,0.0
2386,76.0,0,300,0.0,0.0
2387,79.0,96,300,0.0,0.0
2388,76.0,96,390,11.0,0.0
2389,67.0,0,390,11.0,0.0
2390,55.0,0,300,5.0,0.0
2391,64.0,0,300,5.0,0.0
2392,62.0,456,480,4.0,0.0
2393,62.0,0,480,13.0,0.0
2394,79.0,0,300,2.0,0.0
2395,76.0,0,300,2.0,0.0
2396,37.0,0,300,14.0,0.0
2397,37.0,0,300,3.0,0.0
2398,79.0,0,390,10.0,0.0
2399,52.0,0,300,12.0,0.0
2400,49.0,0,300,3.0,0.0
2401,64.0,888,450,4.0,0.0
2402,64.0,0,450,13.0,0.0
2403,58.0,336,900,13.0,0.0
2404,58.0,0,900,4.0,0.0
2405,55.0,0,150,3.0,0.0
2406,43.0,0,150,14.0,0.0
2407,59.0,48,150,12.0,0.0
2408,67.0,0,390,11.0,0.0
2409,71.0,0,390,11.0,0.0
2410,83.0,384,390,10.0,0.0
2411,59.0,0,300,5.0,0.0
2412,74.0,0,300,2.0,0.0
2413,71.0,0,300,2.0,0.0
2414,55.0,0,300,3.0,0.0
2415,83.0,0,300,0.0,0.0
2416,62.0,0,300,5.0,0.0
2417,43.0,0,300,14.0,0.0
2418,59.0,0,1350,13.0,0.0
2419,59.0,0,1350,4.0,0.0
2420,59.0,96,300,12.0,0.0
2421,52.0,0,300,3.0,0.0
2422,40.0,480,300,14.0,0.0
2423,55.0,0,300,12.0,0.0
2424,88.0,0,390,0.0,0.0
2425,52.0,0,300,12.0,0.0
2426,67.0,0,390,11.0,0.0
2427,76.0,384,390,11.0,0.0
2428,37.0,0,300,14.0,0.0
2429,55.0,96,300,5.0,0.0
2430,64.0,0,300,5.0,0.0
2431,49.0,0,300,3.0,0.0
2432,73.0,0,390,2.0,0.0
2433,76.0,0,390,2.0,0.0
2434,88.0,0,390,10.0,0.0
2435,61.0,0,480,4.0,0.0
2436,49.0,0,300,12.0,0.0
2437,46.0,0,300,3.0,0.0
2438,61.0,288,480,13.0,0.0
2439,34.0,192,300,14.0,0.0
2440,70.0,96,390,2.0,0.0
2441,58.0,0,300,5.0,0.0
2442,70.0,0,390,11.0,0.0
2443,64.0,0,390,11.0,0.0
2444,82.0,0,390,10.0,0.0
2445,73.0,0,390,2.0,0.0
2446,64.0,0,300,5.0,0.0
2447,30.0,0,300,14.0,0.0
2448,62.0,0,480,13.0,0.0
2449,62.0,384,480,4.0,0.0
2450,42.0,0,300,3.0,0.0
2451,82.0,0,390,0.0,0.0
2452,54.0,96,300,12.0,0.0
2453,58.0,72,390,4.0,0.0
2454,58.0,792,450,13.0,0.0
2455,85.0,0,900,1.0,0.0
2456,76.0,0,900,1.0,0.0
2457,64.0,0,900,4.0,0.0
2458,61.0,0,900,4.0,0.0
2459,73.0,0,900,2.0,0.0
2460,76.0,336,900,0.0,0.0
2461,85.0,0,900,0.0,0.0
2462,61.0,0,900,13.0,0.0
2463,64.0,0,900,2.0,0.0
2464,62.0,96,300,5.0,0.0
2465,59.0,0,300,5.0,0.0
2466,67.0,0,150,3.0,0.0
2467,55.0,48,150,14.0,0.0
2468,55.0,0,150,3.0,0.0
2469,71.0,0,150,12.0,0.0
2470,59.0,0,1350,4.0,0.0
2471,71.0,72,390,10.0,0.0
2472,62.0,24,450,4.0,0.0
2473,74.0,0,480,1.0,0.0
2474,67.0,0,300,3.0,0.0
2475,55.0,0,300,3.0,0.0
2476,83.0,0,1440,0.0,0.0
2477,62.0,0,390,11.0,0.0
2478,74.0,288,480,0.0,0.0
2479,71.0,0,390,11.0,0.0
2480,59.0,0,1350,13.0,0.0
2481,55.0,0,300,14.0,0.0
2482,71.0,96,300,12.0,0.0
2483,83.0,288,1440,1.0,0.0
2484,62.0,0,480,2.0,0.0
2485,71.0,0,1440,2.0,0.0
2486,67.0,0,300,12.0,0.0
2487,79.0,0,960,0.0,0.0
2488,64.0,480,300,3.0,0.0
2489,52.0,0,300,14.0,0.0
2490,67.0,0,960,2.0,0.0
2491,79.0,0,960,1.0,0.0
2492,52.0,0,300,3.0,0.0
2493,67.0,0,870,4.0,0.0
2494,76.0,0,390,11.0,0.0
2495,49.0,0,300,14.0,0.0
2496,67.0,0,390,11.0,0.0
2497,76.0,96,390,10.0,0.0
2498,55.0,96,300,5.0,0.0
2499,49.0,0,300,3.0,0.0
2500,61.0,0,300,3.0,0.0
2501,64.0,0,300,5.0,0.0
2502,64.0,0,300,12.0,0.0
2503,61.0,0,480,4.0,0.0
2504,58.0,0,300,3.0,0.0
2505,61.0,0,300,12.0,0.0
2506,64.0,0,480,2.0,0.0
2507,73.0,0,480,2.0,0.0
2508,61.0,0,480,13.0,0.0
2509,64.0,0,480,4.0,0.0
2510,46.0,192,300,3.0,0.0
2511,76.0,0,480,0.0,0.0
2512,46.0,0,300,14.0,0.0
2513,76.0,0,480,1.0,0.0
2514,85.0,288,480,1.0,0.0
2515,85.0,0,480,0.0,0.0
2516,66.0,0,480,2.0,0.0
2517,54.0,0,300,3.0,0.0
2518,42.0,96,300,3.0,0.0
2519,74.0,96,390,11.0,0.0
2520,66.0,0,390,11.0,0.0
2521,42.0,0,300,14.0,0.0
2522,74.0,288,480,2.0,0.0
2523,62.0,0,300,5.0,0.0
2524,66.0,0,480,4.0,0.0
2525,62.0,0,480,4.0,0.0
2526,62.0,0,480,13.0,0.0
2527,86.0,0,480,1.0,0.0
2528,78.0,0,480,0.0,0.0
2529,86.0,0,480,0.0,0.0
2530,59.0,0,300,5.0,0.0
2531,74.0,0,390,10.0,0.0
2532,66.0,0,300,12.0,0.0
2533,78.0,0,480,1.0,0.0
2534,83.0,0,450,1.0,0.0
2535,77.0,24,450,1.0,0.0
2536,77.0,0,450,0.0,0.0
2537,83.0,0,450,0.0,0.0
2538,59.0,288,480,13.0,0.0
2539,65.0,0,480,4.0,0.0
2540,59.0,0,480,4.0,0.0
2541,71.0,0,450,2.0,0.0
2542,65.0,0,450,2.0,0.0
2543,65.0,168,300,12.0,0.0
2544,66.0,0,300,12.0,0.0
2545,54.0,576,300,13.0,0.0
2546,66.0,0,300,4.0,0.0
2547,78.0,288,960,10.0,0.0
2548,66.0,0,960,11.0,0.0
2549,85.0,0,150,0.0,0.0
2550,46.0,0,150,13.0,0.0
2551,85.0,0,150,1.0,0.0
2552,73.0,0,150,1.0,0.0
2553,46.0,96,150,3.0,0.0
2554,34.0,0,150,14.0,0.0
2555,73.0,0,150,12.0,0.0
2556,73.0,0,150,2.0,0.0
2557,61.0,0,300,5.0,0.0
2558,66.0,0,300,4.0,0.0
2559,34.0,0,300,14.0,0.0
2560,73.0,480,300,12.0,0.0
2561,73.0,0,300,2.0,0.0
2562,76.0,312,1410,11.0,0.0
2563,73.0,0,300,1.0,0.0
2564,88.0,0,1410,10.0,0.0
2565,46.0,0,300,13.0,0.0
2566,85.0,0,300,0.0,0.0
2567,64.0,0,300,5.0,0.0
2568,85.0,0,300,1.0,0.0
2569,46.0,0,300,3.0,0.0
2570,42.0,0,300,13.0,0.0
2571,82.0,0,300,1.0,0.0
2572,73.0,480,300,1.0,0.0
2573,73.0,0,300,2.0,0.0
2574,82.0,0,300,0.0,0.0
2575,70.0,0,300,2.0,0.0
2576,42.0,0,300,3.0,0.0
2577,70.0,0,300,12.0,0.0
2578,30.0,0,300,14.0,0.0
2579,50.0,0,300,13.0,0.0
2580,38.0,0,300,14.0,0.0
2581,70.0,0,300,1.0,0.0
2582,78.0,0,300,1.0,0.0
2583,66.0,0,300,12.0,0.0
2584,78.0,0,300,0.0,0.0
2585,50.0,0,300,3.0,0.0
2586,58.0,0,300,5.0,0.0
2587,73.0,0,300,2.0,0.0
2588,70.0,168,300,2.0,0.0
2589,61.0,0,300,5.0,0.0
2590,66.0,0,300,4.0,0.0
2591,78.0,0,480,11.0,0.0
2592,47.0,0,300,13.0,0.0
2593,47.0,0,300,3.0,0.0
2594,74.0,0,300,0.0,0.0
2595,62.0,0,300,12.0,0.0
2596,74.0,0,300,2.0,0.0
2597,74.0,0,300,1.0,0.0
2598,71.0,192,300,1.0,0.0
2599,35.0,0,300,14.0,0.0
2600,90.0,288,480,10.0,0.0
2601,71.0,0,300,2.0,0.0
2602,67.0,0,300,2.0,0.0
2603,88.0,456,480,10.0,0.0
2604,67.0,0,300,5.0,0.0
2605,54.0,0,300,3.0,0.0
2606,71.0,192,300,0.0,0.0
2607,76.0,0,480,11.0,0.0
2608,67.0,0,300,1.0,0.0
2609,71.0,0,300,1.0,0.0
2610,55.0,0,300,5.0,0.0
2611,62.0,0,300,4.0,0.0
2612,71.0,0,300,2.0,0.0
2613,55.0,0,300,13.0,0.0
2614,43.0,0,300,14.0,0.0
2615,59.0,0,300,12.0,0.0
2616,59.0,0,300,4.0,0.0
2617,74.0,0,450,11.0,0.0
2618,86.0,888,450,10.0,0.0
2619,81.0,0,900,11.0,0.0
2620,93.0,336,900,10.0,0.0
2621,49.0,0,150,13.0,0.0
2622,76.0,48,150,2.0,0.0
2623,88.0,0,150,0.0,0.0
2624,76.0,0,150,1.0,0.0
2625,88.0,0,150,1.0,0.0
2626,37.0,0,150,14.0,0.0
2627,76.0,0,150,12.0,0.0
2628,49.0,0,150,3.0,0.0
2629,76.0,0,300,1.0,0.0
2630,88.0,0,300,0.0,0.0
2631,49.0,0,300,13.0,0.0
2632,37.0,0,300,14.0,0.0
2633,79.0,0,1410,11.0,0.0
2634,57.0,0,300,5.0,0.0
2635,67.0,0,300,5.0,0.0
2636,88.0,0,300,1.0,0.0
2637,91.0,312,1410,10.0,0.0
2638,64.0,0,300,4.0,0.0
2639,76.0,0,300,12.0,0.0
2640,76.0,480,300,2.0,0.0
2641,49.0,0,300,3.0,0.0
2642,45.0,0,300,13.0,0.0
2643,45.0,0,300,3.0,0.0
2644,33.0,0,300,14.0,0.0
2645,76.0,0,300,2.0,0.0
2646,73.0,0,300,12.0,0.0
2647,76.0,0,300,1.0,0.0
2648,85.0,0,300,0.0,0.0
2649,73.0,480,300,2.0,0.0
2650,85.0,0,300,1.0,0.0
2651,81.0,0,300,0.0,0.0
2652,42.0,0,300,14.0,0.0
2653,73.0,0,300,1.0,0.0
2654,76.0,0,300,2.0,0.0
2655,81.0,0,300,1.0,0.0
2656,73.0,0,300,2.0,0.0
2657,54.0,168,300,3.0,0.0
2658,61.0,0,300,4.0,0.0
2659,57.0,0,300,5.0,0.0
2660,64.0,0,300,5.0,0.0
2661,69.0,0,300,12.0,0.0
2662,54.0,0,300,13.0,0.0
2663,74.0,0,300,1.0,0.0
2664,78.0,0,480,11.0,0.0
2665,78.0,0,300,1.0,0.0
2666,66.0,0,300,12.0,0.0
2667,50.0,0,300,3.0,0.0
2668,90.0,288,480,10.0,0.0
2669,74.0,0,300,2.0,0.0
2670,78.0,192,300,0.0,0.0
2671,38.0,0,300,14.0,0.0
2672,78.0,0,300,2.0,0.0
2673,50.0,0,300,13.0,0.0
2674,74.0,0,300,1.0,0.0
2675,59.0,0,300,3.0,0.0
2676,59.0,0,300,4.0,0.0
2677,66.0,0,300,1.0,0.0
2678,66.0,192,300,5.0,0.0
2679,62.0,0,300,5.0,0.0
2680,62.0,0,300,12.0,0.0
2681,47.0,0,300,14.0,0.0
2682,66.0,0,300,2.0,0.0
2683,85.0,456,480,10.0,0.0
2684,59.0,0,300,13.0,0.0
2685,74.0,0,300,2.0,0.0
2686,73.0,0,480,11.0,0.0
2687,74.0,0,300,0.0,0.0
2688,74.0,0,450,11.0,0.0
2689,86.0,888,450,10.0,0.0
2690,70.0,336,900,11.0,0.0
2691,82.0,0,900,10.0,0.0
2692,83.0,0,150,2.0,0.0
2693,71.0,48,150,12.0,0.0
2694,43.0,0,150,3.0,0.0
2695,74.0,0,150,2.0,0.0
2696,74.0,0,150,1.0,0.0
2697,31.0,0,150,14.0,0.0
2698,43.0,0,150,13.0,0.0
2699,83.0,0,150,0.0,0.0
2700,86.0,0,150,0.0,0.0
2701,83.0,0,150,1.0,0.0
2702,83.0,0,300,2.0,0.0
2703,43.0,0,300,3.0,0.0
2704,74.0,0,300,1.0,0.0
2705,83.0,0,300,1.0,0.0
2706,59.0,0,300,4.0,0.0
2707,74.0,480,300,2.0,0.0
2708,31.0,0,300,14.0,0.0
2709,71.0,0,300,12.0,0.0
2710,62.0,0,300,5.0,0.0
2711,55.0,0,300,5.0,0.0
2712,71.0,0,1410,11.0,0.0
2713,43.0,0,300,13.0,0.0
2714,86.0,0,300,0.0,0.0
2715,55.0,0,300,4.0,0.0
2716,83.0,0,300,0.0,0.0
2717,83.0,312,1410,10.0,0.0
2718,79.0,0,300,2.0,0.0
2719,67.0,0,300,12.0,0.0
2720,28.0,0,300,14.0,0.0
2721,40.0,0,300,3.0,0.0
2722,40.0,480,300,13.0,0.0
2723,79.0,0,300,1.0,0.0
2724,76.0,0,300,1.0,0.0
2725,91.0,0,300,0.0,0.0
2726,83.0,0,300,0.0,0.0
2727,76.0,0,300,2.0,0.0
2728,64.0,0,300,12.0,0.0
2729,64.0,0,300,5.0,0.0
2730,67.0,0,300,1.0,0.0
2731,49.0,0,300,3.0,0.0
2732,79.0,0,300,0.0,0.0
2733,88.0,0,300,0.0,0.0
2734,55.0,0,300,5.0,0.0
2735,69.0,0,300,2.0,0.0
2736,76.0,0,300,1.0,0.0
2737,49.0,0,300,13.0,0.0
2738,52.0,0,300,4.0,0.0
2739,67.0,168,300,4.0,0.0
2740,76.0,0,300,2.0,0.0
2741,37.0,0,300,14.0,0.0
2742,73.0,192,300,1.0,0.0
2743,64.0,0,300,1.0,0.0
2744,85.0,288,480,10.0,0.0
2745,61.0,0,300,12.0,0.0
2746,46.0,0,300,13.0,0.0
2747,46.0,0,300,3.0,0.0
2748,34.0,0,300,14.0,0.0
2749,64.0,0,300,2.0,0.0
2750,76.0,0,300,0.0,0.0
2751,73.0,0,480,11.0,0.0
2752,73.0,0,300,2.0,0.0
2753,85.0,0,300,0.0,0.0
2754,74.0,456,480,11.0,0.0
2755,58.0,0,300,5.0,0.0
2756,58.0,0,300,12.0,0.0
2757,70.0,0,300,2.0,0.0
2758,54.0,0,300,3.0,0.0
2759,66.0,0,300,2.0,0.0
2760,78.0,0,300,0.0,0.0
2761,82.0,0,300,0.0,0.0
2762,70.0,0,300,1.0,0.0
2763,66.0,0,300,1.0,0.0
2764,42.0,0,300,14.0,0.0
2765,86.0,0,480,10.0,0.0
2766,64.0,0,300,5.0,0.0
2767,66.0,0,300,4.0,0.0
2768,52.0,192,300,4.0,0.0
2769,54.0,0,300,13.0,0.0
2770,82.0,888,450,10.0,0.0
2771,70.0,0,450,11.0,0.0
2772,85.0,0,900,10.0,0.0
2773,61.0,336,900,4.0,0.0
2774,76.0,0,900,11.0,0.0
2775,64.0,0,900,4.0,0.0
2776,64.0,0,900,12.0,0.0
2777,73.0,0,900,12.0,0.0
2778,83.0,0,150,0.0,0.0
2779,31.0,0,150,14.0,0.0
2780,83.0,0,150,1.0,0.0
2781,74.0,0,150,1.0,0.0
2782,43.0,0,150,13.0,0.0
2783,86.0,0,150,0.0,0.0
2784,83.0,48,150,2.0,0.0
2785,43.0,0,150,3.0,0.0
2786,74.0,0,150,2.0,0.0
2787,59.0,0,1440,4.0,0.0
2788,62.0,288,960,4.0,0.0
2789,74.0,0,900,11.0,0.0
2790,31.0,0,300,14.0,0.0
2791,71.0,48,900,12.0,0.0
2792,83.0,480,300,2.0,0.0
2793,83.0,0,300,0.0,0.0
2794,86.0,0,300,0.0,0.0
2795,62.0,0,900,12.0,0.0
2796,59.0,0,300,5.0,0.0
2797,43.0,0,300,3.0,0.0
2798,43.0,0,300,13.0,0.0
2799,62.0,0,300,5.0,0.0
2800,74.0,0,300,2.0,0.0
2801,83.0,24,1410,10.0,0.0
2802,83.0,0,300,1.0,0.0
2803,74.0,0,300,1.0,0.0
2804,28.0,0,300,14.0,0.0
2805,76.0,0,300,1.0,0.0
2806,79.0,0,300,1.0,0.0
2807,91.0,0,300,0.0,0.0
2808,79.0,0,300,2.0,0.0
2809,40.0,0,300,13.0,0.0
2810,76.0,0,300,2.0,0.0
2811,40.0,0,300,3.0,0.0
2812,83.0,144,300,0.0,0.0
2813,88.0,168,300,0.0,0.0
2814,79.0,0,300,0.0,0.0
2815,67.0,0,300,2.0,0.0
2816,76.0,0,300,2.0,0.0
2817,49.0,0,300,13.0,0.0
2818,49.0,0,300,3.0,0.0
2819,55.0,0,300,5.0,0.0
2820,64.0,0,300,5.0,0.0
2821,76.0,0,300,1.0,0.0
2822,67.0,0,300,1.0,0.0
2823,37.0,0,300,14.0,0.0
2824,64.0,0,480,12.0,0.0
2825,76.0,0,480,11.0,0.0
2826,64.0,288,15,4.0,0.0
2827,88.0,0,480,10.0,0.0
2828,46.0,0,300,3.0,0.0
2829,79.0,0,480,11.0,0.0
2830,67.0,0,15,12.0,0.0
2831,64.0,168,300,2.0,0.0
2832,73.0,0,300,2.0,0.0
2833,73.0,0,300,1.0,0.0
2834,46.0,0,300,13.0,0.0
2835,34.0,0,300,14.0,0.0
2836,64.0,0,300,1.0,0.0
2837,67.0,0,450,4.0,0.0
2838,85.0,0,300,0.0,0.0
2839,76.0,0,300,0.0,0.0
2840,76.0,288,480,12.0,0.0
2841,66.0,0,300,2.0,0.0
2842,70.0,0,300,2.0,0.0
2843,86.0,0,480,10.0,0.0
2844,58.0,0,300,5.0,0.0
2845,78.0,0,480,11.0,0.0
2846,78.0,0,300,0.0,0.0
2847,70.0,0,300,1.0,0.0
2848,54.0,0,300,13.0,0.0
2849,74.0,0,480,12.0,0.0
2850,82.0,0,300,0.0,0.0
2851,62.0,0,480,4.0,0.0
2852,66.0,288,480,4.0,0.0
2853,66.0,0,300,1.0,0.0
2854,66.0,0,480,12.0,0.0
2855,64.0,0,300,5.0,0.0
2856,42.0,192,300,14.0,0.0
2857,54.0,0,300,3.0,0.0
2858,82.0,0,450,10.0,0.0
2859,50.0,168,300,13.0,0.0
2860,38.0,0,300,14.0,0.0
2861,50.0,0,300,3.0,0.0
2862,61.0,0,450,4.0,0.0
2863,64.0,0,450,4.0,0.0
2864,76.0,600,450,11.0,0.0
2865,62.0,0,450,12.0,0.0
2866,73.0,0,450,12.0,0.0
2867,71.0,0,1290,12.0,0.0
2868,55.0,0,1290,6.0,0.0
2869,67.0,0,1290,6.0,0.0
2870,55.0,0,570,5.0,0.0
2871,59.0,0,1140,4.0,0.0
2872,62.0,0,1140,4.0,0.0
2873,71.0,0,1290,11.0,0.0
2874,74.0,0,1290,11.0,0.0
2875,67.0,0,570,2.0,0.0
2876,71.0,0,570,2.0,0.0
2877,83.0,0,1140,0.0,0.0
2878,43.0,0,1290,14.0,0.0
2879,83.0,160,1290,10.0,0.0
2880,67.0,0,1290,12.0,0.0
2881,55.0,0,1290,13.0,0.0
2882,67.0,0,570,1.0,0.0
2883,74.0,144,1140,0.0,0.0
2884,71.0,0,570,1.0,0.0
2885,55.0,264,570,3.0,0.0
2886,67.0,0,120,2.0,0.0
2887,55.0,120,120,5.0,0.0
2888,55.0,0,120,3.0,0.0
2889,67.0,0,120,1.0,0.0
2890,59.0,0,120,3.0,0.0
2891,71.0,0,120,1.0,0.0
2892,59.0,0,120,5.0,0.0
2893,71.0,176,120,2.0,0.0
2894,62.0,0,180,5.0,0.0
2895,74.0,0,180,2.0,0.0
2896,62.0,0,180,3.0,0.0
2897,74.0,16,180,1.0,0.0
2898,59.0,0,180,5.0,0.0
2899,59.0,0,180,3.0,0.0
2900,71.0,0,180,1.0,0.0
2901,71.0,320,180,2.0,0.0
2902,67.0,144,1620,4.0,0.0
2903,59.0,0,1620,4.0,0.0
2904,38.0,0,420,14.0,0.0
2905,63.0,0,1770,6.0,0.0
2906,67.0,0,1770,6.0,0.0
2907,50.0,624,420,13.0,0.0
2908,79.0,0,1620,0.0,0.0
2909,83.0,0,1620,0.0,0.0
2910,71.0,0,1770,11.0,0.0
2911,79.0,0,1770,11.0,0.0
2912,67.0,0,1770,12.0,0.0
2913,71.0,0,1770,12.0,0.0
2914,83.0,0,1770,10.0,0.0
2915,75.0,0,180,2.0,0.0
2916,75.0,96,180,1.0,0.0
2917,63.0,0,180,5.0,0.0
2918,63.0,0,180,3.0,0.0
2919,62.0,264,570,3.0,0.0
2920,74.0,0,570,1.0,0.0
2921,74.0,0,570,2.0,0.0
2922,43.0,160,1290,14.0,0.0
2923,55.0,0,1290,13.0,0.0
2924,62.0,0,570,5.0,0.0
2925,67.0,0,120,2.0,0.0
2926,55.0,0,120,3.0,0.0
2927,55.0,120,120,5.0,0.0
2928,67.0,0,120,1.0,0.0
2929,71.0,176,120,2.0,0.0
2930,59.0,0,120,3.0,0.0
2931,71.0,0,120,1.0,0.0
2932,59.0,0,120,5.0,0.0
2933,74.0,0,180,1.0,0.0
2934,62.0,0,180,3.0,0.0
2935,62.0,16,180,5.0,0.0
2936,74.0,0,180,2.0,0.0
2937,59.0,0,180,3.0,0.0
2938,59.0,320,180,5.0,0.0
2939,71.0,0,180,1.0,0.0
2940,71.0,0,180,2.0,0.0
2941,38.0,224,420,14.0,0.0
2942,71.0,0,900,11.0,0.0
2943,79.0,0,900,11.0,0.0
2944,83.0,0,900,10.0,0.0
2945,67.0,0,870,4.0,0.0
2946,63.0,64,900,6.0,0.0
2947,67.0,0,900,6.0,0.0
2948,59.0,48,870,4.0,0.0
2949,67.0,0,900,12.0,0.0
2950,79.0,0,870,0.0,0.0
2951,71.0,0,900,12.0,0.0
2952,50.0,0,420,13.0,0.0
2953,83.0,0,870,0.0,0.0
2954,63.0,96,180,5.0,0.0
2955,75.0,0,180,2.0,0.0
2956,63.0,0,180,3.0,0.0
2957,75.0,0,180,1.0,0.0
2958,43.0,24,360,14.0,0.0
2959,74.0,184,180,2.0,0.0
2960,62.0,0,180,3.0,0.0
2961,62.0,0,180,5.0,0.0
2962,55.0,0,360,13.0,0.0
2963,74.0,0,180,1.0,0.0
2964,59.0,320,180,5.0,0.0
2965,59.0,0,180,3.0,0.0
2966,71.0,0,180,1.0,0.0
2967,71.0,0,180,2.0,0.0
2968,67.0,0,870,6.0,0.0
2969,63.0,0,870,6.0,0.0
2970,50.0,296,360,13.0,0.0
2971,83.0,72,780,0.0,0.0
2972,79.0,0,780,0.0,0.0
2973,67.0,112,870,12.0,0.0
2974,71.0,0,870,11.0,0.0
2975,79.0,0,870,11.0,0.0
2976,59.0,0,780,4.0,0.0
2977,83.0,0,870,10.0,0.0
2978,67.0,0,780,4.0,0.0
2979,71.0,0,870,12.0,0.0
2980,38.0,0,360,14.0,0.0
2981,75.0,0,180,2.0,0.0
2982,63.0,0,180,3.0,0.0
2983,63.0,24,180,5.0,0.0
2984,75.0,0,180,1.0,0.0
2985,62.0,0,180,3.0,0.0
2986,43.0,0,360,14.0,0.0
2987,55.0,24,360,13.0,0.0
2988,74.0,0,180,1.0,0.0
2989,74.0,112,180,2.0,0.0
2990,62.0,0,180,5.0,0.0
2991,59.0,0,180,5.0,0.0
2992,59.0,0,180,3.0,0.0
2993,71.0,0,180,2.0,0.0
2994,71.0,344,180,1.0,0.0
2995,84.0,24,390,0.0,0.0
2996,63.0,0,390,4.0,0.0
2997,72.0,0,390,4.0,0.0
2998,93.0,0,390,0.0,0.0
2999,75.0,0,360,12.0,0.0
3000,81.0,0,360,11.0,0.0
3001,84.0,432,420,10.0,0.0
3002,38.0,24,360,14.0,0.0
3003,50.0,0,360,13.0,0.0
3004,43.0,0,360,14.0,0.0
3005,74.0,0,360,12.0,0.0
3006,79.0,0,360,11.0,0.0
3007,71.0,0,360,4.0,0.0
3008,83.0,0,390,0.0,0.0
3009,91.0,24,390,0.0,0.0
3010,55.0,24,360,13.0,0.0
3011,62.0,0,360,4.0,0.0
3012,83.0,432,420,10.0,0.0
3013,90.0,0,390,0.0,0.0
3014,81.0,24,390,0.0,0.0
3015,39.0,0,360,14.0,0.0
3016,81.0,432,420,10.0,0.0
3017,72.0,24,360,4.0,0.0
3018,69.0,0,360,4.0,0.0
3019,72.0,0,360,12.0,0.0
3020,51.0,0,360,13.0,0.0
3021,78.0,0,360,11.0,0.0
3022,47.0,0,360,14.0,0.0
3023,71.0,0,360,4.0,0.0
3024,67.0,0,360,4.0,0.0
3025,71.0,24,360,12.0,0.0
3026,88.0,0,390,0.0,0.0
3027,79.0,24,390,0.0,0.0
3028,67.0,0,360,11.0,0.0
3029,76.0,0,360,11.0,0.0
3030,79.0,432,420,10.0,0.0
3031,59.0,0,360,13.0,0.0
3032,75.0,0,360,11.0,0.0
3033,66.0,0,360,4.0,0.0
3034,69.0,0,360,4.0,0.0
3035,78.0,24,390,0.0,0.0
3036,87.0,0,390,0.0,0.0
3037,75.0,648,420,10.0,0.0
3038,66.0,0,360,11.0,0.0
3039,55.0,0,360,13.0,0.0
3040,66.0,0,360,12.0,0.0
3041,69.0,0,360,12.0,0.0
3042,43.0,24,360,14.0,0.0
3043,60.0,0,570,3.0,0.0
3044,67.0,0,1140,4.0,0.0
3045,48.0,0,1140,14.0,0.0
3046,64.0,0,1140,4.0,0.0
3047,48.0,264,570,3.0,0.0
3048,72.0,0,570,2.0,0.0
3049,67.0,0,1290,12.0,0.0
3050,60.0,0,570,2.0,0.0
3051,67.0,160,1290,11.0,0.0
3052,72.0,0,570,1.0,0.0
3053,76.0,0,1290,10.0,0.0
3054,72.0,0,1290,10.0,0.0
3055,64.0,0,1290,12.0,0.0
3056,60.0,0,1140,13.0,0.0
3057,60.0,0,570,5.0,0.0
3058,76.0,0,1290,11.0,0.0
3059,88.0,144,1140,0.0,0.0
3060,76.0,0,1140,6.0,0.0
3061,64.0,0,1140,6.0,0.0
3062,79.0,0,1140,0.0,0.0
3063,60.0,120,120,2.0,0.0
3064,60.0,0,120,3.0,0.0
3065,60.0,0,120,5.0,0.0
3066,72.0,0,120,1.0,0.0
3067,72.0,0,120,2.0,0.0
3068,48.0,0,120,3.0,0.0
3069,64.0,0,120,5.0,0.0
3070,76.0,0,120,1.0,0.0
3071,64.0,176,120,3.0,0.0
3072,52.0,0,120,3.0,0.0
3073,76.0,0,120,2.0,0.0
3074,64.0,0,120,2.0,0.0
3075,55.0,16,180,3.0,0.0
3076,79.0,0,180,2.0,0.0
3077,67.0,0,180,2.0,0.0
3078,79.0,0,180,1.0,0.0
3079,67.0,0,180,5.0,0.0
3080,67.0,0,180,3.0,0.0
3081,64.0,0,180,2.0,0.0
3082,76.0,0,180,2.0,0.0
3083,76.0,0,180,1.0,0.0
3084,64.0,320,180,5.0,0.0
3085,52.0,0,180,3.0,0.0
3086,64.0,0,180,3.0,0.0
3087,88.0,0,1620,0.0,0.0
3088,64.0,0,1770,12.0,0.0
3089,64.0,0,1620,6.0,0.0
3090,76.0,144,1620,6.0,0.0
3091,76.0,0,1770,10.0,0.0
3092,72.0,0,1770,11.0,0.0
3093,64.0,160,1770,11.0,0.0
3094,84.0,0,1620,0.0,0.0
3095,72.0,0,1770,12.0,0.0
3096,55.0,0,390,13.0,0.0
3097,72.0,0,1770,10.0,0.0
3098,64.0,0,1620,4.0,0.0
3099,43.0,672,390,14.0,0.0
3100,80.0,0,180,1.0,0.0
3101,80.0,0,180,2.0,0.0
3102,68.0,48,180,2.0,0.0
3103,68.0,0,180,5.0,0.0
3104,68.0,0,180,3.0,0.0
3105,56.0,0,180,3.0,0.0
3106,67.0,264,570,2.0,0.0
3107,79.0,0,570,2.0,0.0
3108,48.0,0,1140,14.0,0.0
3109,60.0,0,1140,13.0,0.0
3110,67.0,0,570,5.0,0.0
3111,55.0,0,570,3.0,0.0
3112,79.0,0,570,1.0,0.0
3113,67.0,0,570,3.0,0.0
3114,60.0,0,120,3.0,0.0
3115,48.0,0,120,3.0,0.0
3116,72.0,120,120,1.0,0.0
3117,60.0,0,120,5.0,0.0
3118,60.0,0,120,2.0,0.0
3119,72.0,0,120,2.0,0.0
3120,64.0,0,120,2.0,0.0
3121,64.0,0,120,5.0,0.0
3122,76.0,0,120,2.0,0.0
3123,64.0,176,120,3.0,0.0
3124,76.0,0,120,1.0,0.0
3125,52.0,0,120,3.0,0.0
3126,79.0,16,180,2.0,0.0
3127,67.0,0,180,5.0,0.0
3128,67.0,0,180,2.0,0.0
3129,67.0,0,180,3.0,0.0
3130,55.0,0,180,3.0,0.0
3131,79.0,0,180,1.0,0.0
3132,64.0,0,180,5.0,0.0
3133,76.0,0,180,2.0,0.0
3134,76.0,0,180,1.0,0.0
3135,64.0,320,180,2.0,0.0
3136,64.0,0,180,3.0,0.0
3137,52.0,0,180,3.0,0.0
3138,84.0,0,870,0.0,0.0
3139,72.0,0,900,11.0,0.0
3140,76.0,0,870,6.0,0.0
3141,64.0,0,900,11.0,0.0
3142,72.0,0,900,10.0,0.0
3143,64.0,48,870,6.0,0.0
3144,88.0,0,870,0.0,0.0
3145,64.0,0,870,4.0,0.0
3146,55.0,0,390,13.0,0.0
3147,72.0,64,900,12.0,0.0
3148,64.0,0,900,12.0,0.0
3149,43.0,272,390,14.0,0.0
3150,76.0,0,900,10.0,0.0
3151,68.0,0,180,3.0,0.0
3152,68.0,48,180,2.0,0.0
3153,80.0,0,180,1.0,0.0
3154,68.0,0,180,5.0,0.0
3155,56.0,0,180,3.0,0.0
3156,80.0,0,180,2.0,0.0
3157,67.0,0,180,5.0,0.0
3158,67.0,0,180,3.0,0.0
3159,48.0,96,300,14.0,0.0
3160,55.0,0,180,3.0,0.0
3161,67.0,0,180,2.0,0.0
3162,79.0,0,180,1.0,0.0
3163,60.0,0,300,13.0,0.0
3164,79.0,112,180,2.0,0.0
3165,76.0,0,180,2.0,0.0
3166,52.0,0,180,3.0,0.0
3167,76.0,0,180,1.0,0.0
3168,64.0,272,180,5.0,0.0
3169,64.0,0,180,2.0,0.0
3170,64.0,0,180,3.0,0.0
3171,72.0,0,870,10.0,0.0
3172,76.0,0,870,10.0,0.0
3173,55.0,0,300,13.0,0.0
3174,64.0,0,780,4.0,0.0
3175,64.0,0,870,12.0,0.0
3176,84.0,0,780,0.0,0.0
3177,88.0,0,780,0.0,0.0
3178,72.0,0,870,11.0,0.0
3179,43.0,48,300,14.0,0.0
3180,76.0,0,780,6.0,0.0
3181,64.0,0,780,6.0,0.0
3182,64.0,0,870,11.0,0.0
3183,72.0,112,870,12.0,0.0
3184,68.0,0,180,5.0,0.0
3185,56.0,0,180,3.0,0.0
3186,80.0,0,180,2.0,0.0
3187,68.0,0,180,2.0,0.0
3188,80.0,0,180,1.0,0.0
3189,68.0,320,180,3.0,0.0
3190,67.0,0,180,2.0,0.0
3191,79.0,0,180,2.0,0.0
3192,79.0,0,180,1.0,0.0
3193,60.0,96,300,13.0,0.0
3194,67.0,112,180,3.0,0.0
3195,55.0,0,180,3.0,0.0
3196,48.0,0,300,14.0,0.0
3197,67.0,0,180,5.0,0.0
3198,64.0,248,180,5.0,0.0
3199,64.0,0,180,2.0,0.0
3200,64.0,0,180,3.0,0.0
3201,52.0,0,180,3.0,0.0
3202,76.0,0,180,2.0,0.0
3203,76.0,0,180,1.0,0.0
3204,56.0,0,270,13.0,0.0
3205,80.0,0,270,10.0,0.0
3206,68.0,0,270,11.0,0.0
3207,68.0,0,270,12.0,0.0
3208,44.0,480,270,14.0,0.0
3209,67.0,408,270,12.0,0.0
3210,43.0,0,270,14.0,0.0
3211,55.0,0,270,13.0,0.0
3212,67.0,0,270,11.0,0.0
3213,79.0,0,270,10.0,0.0
3214,52.0,0,240,3.0,0.0
3215,76.0,48,180,0.0,0.0
3216,76.0,0,180,1.0,0.0
3217,64.0,0,240,2.0,0.0
3218,76.0,432,240,2.0,0.0
3219,72.0,0,180,1.0,0.0
3220,72.0,48,180,0.0,0.0
3221,48.0,624,240,3.0,0.0
3222,72.0,0,240,2.0,0.0
3223,60.0,0,240,2.0,0.0
3224,71.0,0,390,10.0,0.0
3225,59.0,0,390,12.0,0.0
3226,71.0,0,390,11.0,0.0
3227,35.0,0,390,14.0,0.0
3228,47.0,480,390,13.0,0.0
3229,70.0,0,390,11.0,0.0
3230,70.0,0,390,10.0,0.0
3231,34.0,0,390,14.0,0.0
3232,46.0,0,390,13.0,0.0
3233,58.0,288,390,12.0,0.0
3234,73.0,0,240,2.0,0.0
3235,61.0,432,240,2.0,0.0
3236,73.0,0,180,0.0,0.0
3237,73.0,48,180,1.0,0.0
3238,49.0,0,240,3.0,0.0
3239,76.0,0,180,1.0,0.0
3240,52.0,0,240,3.0,0.0
3241,64.0,0,240,2.0,0.0
3242,76.0,48,180,0.0,0.0
3243,76.0,624,240,2.0,0.0
3244,79.0,0,390,11.0,0.0
3245,43.0,480,390,14.0,0.0
3246,79.0,0,390,10.0,0.0
3247,55.0,0,390,13.0,0.0
3248,67.0,0,390,12.0,0.0
3249,54.0,0,390,13.0,0.0
3250,42.0,288,390,14.0,0.0
3251,78.0,0,390,10.0,0.0
3252,78.0,0,390,11.0,0.0
3253,66.0,0,390,12.0,0.0
3254,74.0,0,180,1.0,0.0
3255,62.0,432,240,2.0,0.0
3256,74.0,0,240,2.0,0.0
3257,74.0,48,180,0.0,0.0
3258,50.0,0,240,3.0,0.0
3259,71.0,624,240,2.0,0.0
3260,59.0,0,240,2.0,0.0
3261,71.0,0,180,0.0,0.0
3262,47.0,0,240,3.0,0.0
3263,71.0,48,180,1.0,0.0
3264,45.0,0,390,13.0,0.0
3265,69.0,0,390,10.0,0.0
3266,57.0,0,390,12.0,0.0
3267,33.0,0,390,14.0,0.0
3268,69.0,480,390,11.0,0.0
3269,44.0,0,390,13.0,0.0
3270,32.0,0,390,14.0,0.0
3271,56.0,0,390,12.0,0.0
3272,68.0,0,390,10.0,0.0
3273,68.0,288,390,11.0,0.0
3274,47.0,0,240,3.0,0.0
3275,71.0,48,180,1.0,0.0
3276,71.0,432,240,2.0,0.0
3277,59.0,0,240,2.0,0.0
3278,71.0,0,180,0.0,0.0
3279,74.0,624,240,2.0,0.0
3280,50.0,0,240,3.0,0.0
3281,74.0,48,180,0.0,0.0
3282,62.0,0,240,2.0,0.0
3283,74.0,0,180,1.0,0.0
3284,66.0,0,390,12.0,0.0
3285,78.0,0,390,11.0,0.0
3286,42.0,480,390,14.0,0.0
3287,78.0,0,390,10.0,0.0
3288,54.0,0,390,13.0,0.0
3289,31.0,288,390,14.0,0.0
3290,67.0,0,390,10.0,0.0
3291,55.0,0,390,12.0,0.0
3292,43.0,0,390,13.0,0.0
3293,67.0,0,390,11.0,0.0
3294,71.0,48,180,0.0,0.0
3295,71.0,0,180,1.0,0.0
3296,47.0,0,240,3.0,0.0
3297,71.0,0,240,2.0,0.0
3298,59.0,432,240,2.0,0.0
3299,74.0,0,180,0.0,0.0
3300,74.0,624,240,2.0,0.0
3301,74.0,48,180,1.0,0.0
3302,62.0,0,240,2.0,0.0
3303,50.0,0,240,3.0,0.0
3304,78.0,0,390,11.0,0.0
3305,66.0,0,390,12.0,0.0
3306,54.0,0,390,13.0,0.0
3307,42.0,0,390,14.0,0.0
3308,78.0,480,390,10.0,0.0
3309,43.0,288,390,13.0,0.0
3310,31.0,0,390,14.0,0.0
3311,67.0,0,390,11.0,0.0
3312,55.0,0,390,12.0,0.0
3313,67.0,0,390,10.0,0.0
3314,70.0,432,240,2.0,0.0
3315,70.0,0,180,0.0,0.0
3316,70.0,48,180,1.0,0.0
3317,58.0,0,240,2.0,0.0
3318,46.0,0,240,3.0,0.0
3319,61.0,0,240,2.0,0.0
3320,73.0,48,180,1.0,0.0
3321,73.0,624,240,2.0,0.0
3322,49.0,0,240,3.0,0.0
3323,73.0,0,180,0.0,0.0
3324,52.0,0,390,13.0,0.0
3325,76.0,0,390,10.0,0.0
3326,76.0,0,390,11.0,0.0
3327,40.0,480,390,14.0,0.0
3328,64.0,0,390,12.0,0.0
3329,54.0,0,390,12.0,0.0
3330,30.0,0,390,14.0,0.0
3331,42.0,288,390,13.0,0.0
3332,66.0,0,390,11.0,0.0
3333,66.0,0,390,10.0,0.0
3334,46.0,432,240,3.0,0.0
3335,70.0,0,180,0.0,0.0
3336,58.0,0,240,2.0,0.0
3337,70.0,0,240,2.0,0.0
3338,70.0,48,180,1.0,0.0
3339,73.0,0,180,0.0,0.0
3340,73.0,48,180,1.0,0.0
3341,61.0,0,240,2.0,0.0
3342,49.0,0,240,3.0,0.0
3343,73.0,528,240,2.0,0.0
3344,61.0,0,390,12.0,0.0
3345,66.0,0,300,4.0,0.0
3346,70.0,0,390,11.0,0.0
3347,76.0,0,390,10.0,0.0
3348,30.0,0,390,14.0,0.0
3349,42.0,480,390,13.0,0.0
3350,54.0,96,300,5.0,0.0
3351,47.0,384,960,3.0,0.0
3352,51.0,0,960,3.0,0.0
3353,47.0,384,390,13.0,0.0
3354,63.0,0,390,12.0,0.0
3355,75.0,0,390,10.0,0.0
3356,71.0,0,390,11.0,0.0
3357,30.0,0,390,14.0,0.0
3358,66.0,0,300,4.0,0.0
3359,87.0,0,900,0.0,0.0
3360,83.0,0,900,0.0,0.0
3361,66.0,96,390,10.0,0.0
3362,87.0,0,900,1.0,0.0
3363,83.0,0,900,1.0,0.0
3364,54.0,0,390,12.0,0.0
3365,71.0,336,900,2.0,0.0
3366,54.0,96,300,5.0,0.0
3367,75.0,0,900,2.0,0.0
3368,42.0,0,390,13.0,0.0
3369,66.0,0,390,11.0,0.0
3370,73.0,0,390,11.0,0.0
3371,52.0,0,960,3.0,0.0
3372,49.0,384,960,3.0,0.0
3373,64.0,48,390,12.0,0.0
3374,49.0,0,390,13.0,0.0
3375,76.0,0,390,10.0,0.0
3376,85.0,0,930,0.0,0.0
3377,42.0,0,390,13.0,0.0
3378,66.0,0,300,4.0,0.0
3379,66.0,0,390,10.0,0.0
3380,54.0,0,390,12.0,0.0
3381,82.0,312,930,0.0,0.0
3382,54.0,96,300,5.0,0.0
3383,70.0,0,930,2.0,0.0
3384,73.0,0,930,2.0,0.0
3385,82.0,0,930,1.0,0.0
3386,85.0,0,930,1.0,0.0
3387,66.0,96,390,11.0,0.0
3388,30.0,0,390,14.0,0.0
3389,50.0,384,960,3.0,0.0
3390,53.0,0,960,3.0,0.0
3391,74.0,0,390,11.0,0.0
3392,65.0,0,390,12.0,0.0
3393,50.0,0,390,13.0,0.0
3394,77.0,72,390,10.0,0.0
3395,66.0,0,300,4.0,0.0
3396,68.0,336,900,2.0,0.0
3397,42.0,0,390,13.0,0.0
3398,54.0,96,390,12.0,0.0
3399,80.0,0,900,1.0,0.0
3400,83.0,0,900,1.0,0.0
3401,71.0,0,900,2.0,0.0
3402,66.0,0,390,11.0,0.0
3403,83.0,0,900,0.0,0.0
3404,80.0,0,900,0.0,0.0
3405,54.0,96,300,5.0,0.0
3406,66.0,0,390,10.0,0.0
3407,30.0,0,390,14.0,0.0
3408,75.0,0,390,11.0,0.0
3409,51.0,384,960,3.0,0.0
3410,51.0,48,390,13.0,0.0
3411,54.0,0,960,3.0,0.0
3412,78.0,0,390,10.0,0.0
3413,66.0,0,390,12.0,0.0
3414,78.0,0,450,0.0,0.0
3415,82.0,24,450,0.0,0.0
3416,30.0,72,390,14.0,0.0
3417,66.0,0,390,11.0,0.0
3418,66.0,0,300,4.0,0.0
3419,54.0,0,390,12.0,0.0
3420,66.0,0,450,2.0,0.0
3421,82.0,0,450,1.0,0.0
3422,66.0,0,390,10.0,0.0
3423,54.0,96,300,5.0,0.0
3424,42.0,0,390,13.0,0.0
3425,70.0,0,450,2.0,0.0
3426,78.0,0,450,1.0,0.0
3427,80.0,0,390,10.0,0.0
3428,68.0,0,390,12.0,0.0
3429,42.0,0,1830,3.0,0.0
3430,80.0,0,1440,0.0,0.0
3431,72.0,288,480,0.0,0.0
3432,68.0,0,1440,4.0,0.0
3433,80.0,0,1440,1.0,0.0
3434,52.0,0,390,13.0,0.0
3435,68.0,0,390,11.0,0.0
3436,76.0,96,390,11.0,0.0
3437,72.0,0,390,11.0,0.0
3438,60.0,0,390,12.0,0.0
3439,68.0,288,1440,2.0,0.0
3440,76.0,0,1920,2.0,0.0
3441,72.0,0,480,1.0,0.0
3442,60.0,0,480,3.0,0.0
3443,73.0,0,960,1.0,0.0
3444,61.0,0,960,3.0,0.0
3445,54.0,96,300,5.0,0.0
3446,73.0,0,960,0.0,0.0
3447,42.0,480,390,13.0,0.0
3448,30.0,0,390,14.0,0.0
3449,52.0,0,390,13.0,0.0
3450,73.0,0,390,11.0,0.0
3451,76.0,96,390,11.0,0.0
3452,61.0,0,390,12.0,0.0
3453,68.0,0,390,11.0,0.0
3454,64.0,0,390,12.0,0.0
3455,73.0,0,390,12.0,0.0
3456,85.0,0,390,10.0,0.0
3457,42.0,0,390,13.0,0.0
3458,67.0,0,480,2.0,0.0
3459,59.0,0,390,3.0,0.0
3460,79.0,0,450,1.0,0.0
3461,71.0,0,450,1.0,0.0
3462,30.0,0,390,14.0,0.0
3463,71.0,24,450,0.0,0.0
3464,79.0,0,450,0.0,0.0
3465,67.0,72,390,11.0,0.0
3466,54.0,96,300,5.0,0.0
3467,67.0,0,480,4.0,0.0
3468,66.0,0,480,2.0,0.0
3469,66.0,0,390,11.0,0.0
3470,73.0,0,390,11.0,0.0
3471,78.0,264,1440,0.0,0.0
3472,71.0,0,480,0.0,0.0
3473,64.0,384,15,4.0,0.0
3474,66.0,0,1920,4.0,0.0
3475,78.0,0,1440,1.0,0.0
3476,71.0,0,480,1.0,0.0
3477,76.0,0,390,11.0,0.0
3478,42.0,0,1440,3.0,0.0
3479,76.0,0,1440,2.0,0.0
3480,85.0,0,390,10.0,0.0
3481,54.0,0,390,13.0,0.0
3482,64.0,96,390,12.0,0.0
3483,61.0,0,390,12.0,0.0
3484,73.0,0,390,12.0,0.0
3485,59.0,288,480,3.0,0.0
3486,42.0,480,390,13.0,0.0
3487,54.0,96,300,5.0,0.0
3488,70.0,0,960,0.0,0.0
3489,58.0,0,960,3.0,0.0
3490,70.0,0,960,1.0,0.0
3491,73.0,0,960,2.0,0.0
3492,30.0,0,390,14.0,0.0
3493,70.0,0,390,11.0,0.0
3494,78.0,96,390,11.0,0.0
3495,78.0,0,390,12.0,0.0
3496,90.0,0,390,10.0,0.0
3497,66.0,0,390,12.0,0.0
3498,47.0,0,390,3.0,0.0
3499,87.0,0,480,10.0,0.0
3500,75.0,0,480,2.0,0.0
3501,35.0,0,270,14.0,0.0
3502,59.0,72,390,3.0,0.0
3503,75.0,0,450,0.0,0.0
3504,71.0,0,450,1.0,0.0
3505,47.0,120,270,13.0,0.0
3506,71.0,24,450,0.0,0.0
3507,75.0,0,450,1.0,0.0
3508,63.0,0,480,4.0,0.0
3509,56.0,0,1920,4.0,0.0
3510,95.0,0,720,10.0,0.0
3511,83.0,48,720,11.0,0.0
3512,56.0,0,1920,3.0,0.0
3513,75.0,0,1530,2.0,0.0
3514,71.0,256,15,2.0,0.0
3515,83.0,0,3060,0.0,0.0
3516,71.0,0,3060,1.0,0.0
3517,75.0,144,1530,1.0,0.0
3518,44.0,0,270,13.0,0.0
3519,87.0,0,1530,0.0,0.0
3520,32.0,128,780,14.0,0.0
3521,63.0,0,270,12.0,0.0
3522,63.0,256,1920,5.0,0.0
3523,59.0,0,1920,5.0,0.0
3524,44.0,0,1920,3.0,0.0
3525,59.0,320,270,12.0,0.0
3526,59.0,0,270,13.0,0.0
3527,71.0,0,270,12.0,0.0
3528,63.0,144,270,12.0,0.0
3529,51.0,0,270,13.0,0.0
3530,63.0,0,480,4.0,0.0
3531,71.0,64,270,12.0,0.0
3532,63.0,0,270,12.0,0.0
3533,51.0,0,270,13.0,0.0
3534,59.0,0,270,13.0,0.0
3535,94.0,0,240,10.0,0.0
3536,82.0,256,240,11.0,0.0
3537,63.0,0,270,12.0,0.0
3538,71.0,0,720,4.0,0.0
3539,44.0,128,780,14.0,0.0
3540,51.0,0,270,13.0,0.0
3541,80.0,48,720,11.0,0.0
3542,92.0,0,720,10.0,0.0
3543,71.0,0,270,12.0,0.0
3544,59.0,320,270,13.0,0.0
3545,63.0,0,270,12.0,0.0
3546,44.0,0,270,13.0,0.0
3547,59.0,0,270,12.0,0.0
3548,63.0,0,270,12.0,0.0
3549,59.0,0,270,12.0,0.0
3550,44.0,60,270,13.0,0.0
3551,78.0,0,240,11.0,0.0
3552,90.0,4,240,10.0,0.0
3553,70.0,0,240,4.0,0.0
3554,59.0,320,270,12.0,0.0
3555,89.0,0,720,10.0,0.0
3556,37.0,0,1920,3.0,0.0
3557,49.0,0,1920,3.0,0.0
3558,56.0,0,270,12.0,0.0
3559,68.0,0,720,4.0,0.0
3560,61.0,0,1440,4.0,0.0
3561,37.0,128,780,14.0,0.0
3562,37.0,0,270,13.0,0.0
3563,65.0,0,1440,5.0,0.0
3564,77.0,48,720,11.0,0.0
3565,80.0,0,1140,1.0,0.0
3566,77.0,0,1140,2.0,0.0
3567,92.0,0,1140,0.0,0.0
3568,59.0,96,1440,5.0,0.0
3569,53.0,0,270,13.0,0.0
3570,49.0,0,270,13.0,0.0
3571,59.0,144,270,12.0,0.0
3572,68.0,0,270,12.0,0.0
3573,49.0,64,270,13.0,0.0
3574,53.0,0,270,13.0,0.0
3575,68.0,0,270,12.0,0.0
3576,59.0,0,270,12.0,0.0
3577,75.0,0,240,11.0,0.0
3578,66.0,192,240,4.0,0.0
3579,87.0,0,240,10.0,0.0
3580,73.0,0,720,11.0,0.0
3581,85.0,48,720,10.0,0.0
3582,37.0,96,780,14.0,0.0
3583,49.0,0,270,13.0,0.0
3584,53.0,0,270,13.0,0.0
3585,65.0,0,960,4.0,0.0
3586,68.0,0,270,12.0,0.0
3587,59.0,224,270,12.0,0.0
3588,65.0,144,270,12.0,0.0
3589,37.0,0,270,13.0,0.0
3590,56.0,0,270,12.0,0.0
3591,73.0,0,870,2.0,0.0
3592,89.0,0,390,0.0,0.0
3593,59.0,384,480,4.0,0.0
3594,71.0,0,390,2.0,0.0
3595,77.0,0,390,1.0,0.0
3596,71.0,0,390,1.0,0.0
3597,83.0,32,390,0.0,0.0
3598,65.0,0,270,12.0,0.0
3599,56.0,0,270,12.0,0.0
3600,37.0,60,270,13.0,0.0
3601,92.0,4,240,10.0,0.0
3602,80.0,0,240,11.0,0.0
3603,90.0,48,720,10.0,0.0
3604,82.0,0,390,0.0,0.0
3605,85.0,192,390,0.0,0.0
3606,30.0,0,1530,14.0,0.0
3607,78.0,0,780,1.0,0.0
3608,70.0,128,780,1.0,0.0
3609,42.0,0,780,13.0,0.0
3610,49.0,0,780,13.0,0.0
3611,58.0,0,960,4.0,0.0
3612,66.0,576,960,4.0,0.0
3613,70.0,0,390,2.0,0.0
3614,78.0,0,720,11.0,0.0
3615,66.0,144,270,12.0,0.0
3616,58.0,0,270,12.0,0.0
3617,66.0,60,270,12.0,0.0
3618,58.0,0,270,12.0,0.0
3619,87.0,0,240,10.0,0.0
3620,75.0,4,240,11.0,0.0
3621,73.0,48,720,11.0,0.0
3622,68.0,128,780,1.0,0.0
3623,73.0,192,1350,1.0,0.0
3624,42.0,0,780,13.0,0.0
3625,49.0,0,780,13.0,0.0
3626,65.0,0,960,4.0,0.0
3627,85.0,48,1680,10.0,0.0
3628,59.0,384,960,4.0,0.0
3629,59.0,0,270,12.0,0.0
3630,65.0,144,270,12.0,0.0
3631,59.0,60,270,12.0,0.0
3632,65.0,0,270,12.0,0.0
3633,80.0,4,240,11.0,0.0
3634,78.0,0,1680,11.0,0.0
3635,70.0,0,390,1.0,0.0
3636,30.0,0,1530,14.0,0.0
3637,66.0,480,960,4.0,0.0
3638,58.0,96,1440,4.0,0.0
3639,49.0,128,780,13.0,0.0
3640,42.0,0,780,13.0,0.0
3641,66.0,144,270,12.0,0.0
3642,58.0,0,270,12.0,0.0
3643,58.0,0,270,12.0,0.0
3644,66.0,60,270,12.0,0.0
3645,75.0,4,240,10.0,0.0
3646,73.0,48,720,10.0,0.0
3647,42.0,96,780,13.0,0.0
3648,64.0,32,870,4.0,0.0
3649,58.0,144,270,12.0,0.0
3650,64.0,0,270,12.0,0.0
3651,64.0,60,270,12.0,0.0
3652,58.0,0,270,12.0,0.0
3653,74.0,0,240,10.0,0.0
3654,70.0,136,240,11.0,0.0
3655,47.0,132,120,13.0,0.0
3656,75.0,0,900,2.0,0.0
3657,63.0,0,960,3.0,0.0
3658,59.0,132,960,3.0,0.0
3659,35.0,108,270,14.0,0.0
3660,63.0,0,900,4.0,0.0
3661,87.0,48,900,0.0,0.0
3662,47.0,240,120,13.0,0.0
3663,63.0,0,120,12.0,0.0
3664,59.0,0,120,12.0,0.0
3665,75.0,0,120,10.0,0.0
3666,71.0,240,120,11.0,0.0
3667,63.0,60,120,12.0,0.0
3668,59.0,0,120,12.0,0.0
3669,75.0,0,120,10.0,0.0
3670,71.0,0,120,11.0,0.0
3671,88.0,0,270,0.0,0.0
3672,58.0,132,960,3.0,0.0
3673,61.0,0,960,3.0,0.0
3674,73.0,0,120,10.0,0.0
3675,76.0,0,270,2.0,0.0
3676,61.0,0,120,12.0,0.0
3677,64.0,116,270,4.0,0.0
3678,70.0,0,120,11.0,0.0
3679,58.0,124,120,12.0,0.0
3680,58.0,0,120,12.0,0.0
3681,61.0,0,120,12.0,0.0
3682,73.0,0,120,10.0,0.0
3683,70.0,204,120,11.0,0.0
3684,65.0,0,270,4.0,0.0
3685,77.0,36,270,2.0,0.0
3686,89.0,0,270,0.0,0.0
3687,47.0,132,120,13.0,0.0
3688,35.0,108,270,14.0,0.0
3689,78.0,0,270,2.0,0.0
3690,90.0,0,270,0.0,0.0
3691,66.0,64,270,4.0,0.0
3692,47.0,44,120,13.0,0.0
3693,35.0,108,270,14.0,0.0
3694,78.0,0,480,2.0,0.0
3695,59.0,0,960,3.0,0.0
3696,56.0,132,960,3.0,0.0
3697,90.0,0,480,0.0,0.0
3698,66.0,132,480,4.0,0.0
3699,47.0,132,120,13.0,0.0
3700,47.0,108,120,13.0,0.0
3701,56.0,0,120,12.0,0.0
3702,59.0,0,120,12.0,0.0
3703,68.0,240,120,11.0,0.0
3704,71.0,0,120,10.0,0.0
3705,88.0,0,960,0.0,0.0
3706,76.0,0,960,2.0,0.0
3707,64.0,132,960,4.0,0.0
3708,68.0,0,120,11.0,0.0
3709,59.0,108,120,12.0,0.0
3710,56.0,0,120,12.0,0.0
3711,71.0,0,120,10.0,0.0
3712,70.0,0,120,10.0,0.0
3713,58.0,0,120,12.0,0.0
3714,66.0,0,120,11.0,0.0
3715,54.0,240,120,12.0,0.0
3716,58.0,0,960,3.0,0.0
3717,54.0,132,960,3.0,0.0
3718,70.0,0,120,10.0,0.0
3719,54.0,0,120,12.0,0.0
3720,58.0,0,120,12.0,0.0
3721,66.0,108,120,11.0,0.0
3722,75.0,0,450,2.0,0.0
3723,47.0,132,120,13.0,0.0
3724,35.0,108,270,14.0,0.0
3725,63.0,24,450,4.0,0.0
3726,87.0,0,450,0.0,0.0
3727,47.0,84,120,13.0,0.0
3728,84.0,48,900,0.0,0.0
3729,60.0,0,900,4.0,0.0
3730,40.0,108,270,14.0,0.0
3731,56.0,132,960,3.0,0.0
3732,72.0,0,900,2.0,0.0
3733,52.0,132,2880,3.0,0.0
3734,52.0,132,120,13.0,0.0
3735,52.0,240,120,13.0,0.0
3736,64.0,0,120,11.0,0.0
3737,52.0,0,120,12.0,0.0
3738,56.0,0,120,12.0,0.0
3739,68.0,240,120,10.0,0.0
3740,64.0,0,120,11.0,0.0
3741,68.0,0,120,10.0,0.0
3742,56.0,0,120,12.0,0.0
3743,52.0,60,120,12.0,0.0
3744,67.0,0,120,10.0,0.0
3745,73.0,0,270,2.0,0.0
3746,55.0,132,960,3.0,0.0
3747,64.0,0,120,11.0,0.0
3748,61.0,0,270,4.0,0.0
3749,52.0,0,120,12.0,0.0
3750,55.0,124,120,12.0,0.0
3751,85.0,116,270,0.0,0.0
3752,52.0,0,120,12.0,0.0
3753,55.0,204,120,12.0,0.0
3754,64.0,0,120,11.0,0.0
3755,67.0,0,120,10.0,0.0
3756,87.0,36,270,0.0,0.0
3757,63.0,0,270,4.0,0.0
3758,75.0,0,270,2.0,0.0
3759,37.0,108,270,14.0,0.0
3760,49.0,132,120,13.0,0.0
3761,88.0,0,270,0.0,0.0
3762,76.0,64,270,2.0,0.0
3763,64.0,0,270,4.0,0.0
3764,49.0,44,120,13.0,0.0
3765,52.0,132,120,13.0,0.0
3766,82.0,0,900,0.0,0.0
3767,40.0,108,270,14.0,0.0
3768,70.0,48,900,2.0,0.0
3769,58.0,0,900,4.0,0.0
3770,52.0,240,120,13.0,0.0
3771,61.0,240,120,11.0,0.0
3772,66.0,0,120,10.0,0.0
3773,54.0,0,120,12.0,0.0
3774,54.0,0,120,12.0,0.0
3775,66.0,0,120,10.0,0.0
3776,61.0,60,120,11.0,0.0
3777,66.0,124,120,10.0,0.0
3778,71.0,116,270,1.0,0.0
3779,54.0,0,120,12.0,0.0
3780,71.0,48,900,2.0,0.0
3781,83.0,0,900,0.0,0.0
3782,59.0,0,900,4.0,0.0
3783,59.0,0,120,11.0,0.0
3784,51.0,0,960,3.0,0.0
3785,59.0,0,120,11.0,0.0
3786,54.0,0,120,12.0,0.0
3787,66.0,204,120,10.0,0.0
3788,75.0,36,270,1.0,0.0
3789,51.0,132,120,13.0,0.0
3790,39.0,108,270,14.0,0.0
3791,78.0,16,270,1.0,0.0
3792,51.0,44,120,13.0,0.0
3793,50.0,132,120,13.0,0.0
3794,54.0,132,15,3.0,0.0
3795,50.0,132,1920,3.0,0.0
3796,83.0,0,720,1.0,0.0
3797,71.0,132,720,4.0,0.0
3798,38.0,108,270,14.0,0.0
3799,50.0,240,120,13.0,0.0
3800,66.0,108,120,10.0,0.0
3801,54.0,0,120,12.0,0.0
3802,69.0,0,240,4.0,0.0
3803,81.0,0,240,1.0,0.0
3804,54.0,0,120,12.0,0.0
3805,66.0,108,120,10.0,0.0
3806,68.0,0,720,4.0,0.0
3807,80.0,24,720,1.0,0.0
3808,71.0,0,120,10.0,0.0
3809,59.0,240,120,12.0,0.0
3810,59.0,0,1920,3.0,0.0
3811,59.0,240,120,12.0,0.0
3812,71.0,0,120,10.0,0.0
3813,35.0,108,270,14.0,0.0
3814,47.0,108,120,13.0,0.0
3815,66.0,0,240,4.0,0.0
3816,47.0,108,120,13.0,0.0
3817,78.0,0,240,1.0,0.0
3818,76.0,132,720,1.0,0.0
3819,32.0,108,270,14.0,0.0
3820,54.0,0,960,3.0,0.0
3821,64.0,0,720,4.0,0.0
3822,44.0,132,120,13.0,0.0
3823,44.0,240,120,13.0,0.0
3824,66.0,108,120,10.0,0.0
3825,54.0,0,120,12.0,0.0
3826,54.0,108,120,12.0,0.0
3827,62.0,132,240,4.0,0.0
3828,74.0,0,240,1.0,0.0
3829,66.0,0,120,10.0,0.0
3830,53.0,132,960,3.0,0.0
3831,65.0,0,120,10.0,0.0
3832,61.0,0,720,4.0,0.0
3833,53.0,240,120,12.0,0.0
3834,56.0,0,1920,3.0,0.0
3835,73.0,24,720,1.0,0.0
3836,65.0,0,120,10.0,0.0
3837,53.0,240,120,12.0,0.0
3838,49.0,108,120,13.0,0.0
3839,37.0,108,270,14.0,0.0
3840,80.0,48,180,1.0,0.0
3841,49.0,60,120,13.0,0.0
3842,52.0,132,120,13.0,0.0
3843,52.0,0,1920,3.0,0.0
3844,40.0,108,270,14.0,0.0
3845,85.0,132,720,1.0,0.0
3846,52.0,240,120,13.0,0.0
3847,68.0,0,120,10.0,0.0
3848,56.0,108,120,12.0,0.0
3849,56.0,0,120,12.0,0.0
3850,83.0,132,240,1.0,0.0
3851,68.0,108,120,10.0,0.0
3852,61.0,0,1920,3.0,0.0
3853,82.0,24,720,1.0,0.0
3854,73.0,240,120,10.0,0.0
3855,61.0,0,120,12.0,0.0
3856,73.0,240,120,10.0,0.0
3857,61.0,0,120,12.0,0.0
3858,37.0,108,270,14.0,0.0
3859,49.0,108,120,13.0,0.0
3860,49.0,108,120,13.0,0.0
3861,80.0,132,240,1.0,0.0
3862,46.0,132,120,13.0,0.0
3863,78.0,132,720,1.0,0.0
3864,56.0,0,960,3.0,0.0
3865,34.0,108,270,14.0,0.0
3866,46.0,240,120,13.0,0.0
3867,68.0,108,120,10.0,0.0
3868,56.0,0,120,12.0,0.0
3869,76.0,132,240,1.0,0.0
3870,56.0,0,120,12.0,0.0
3871,68.0,108,120,10.0,0.0
3872,67.0,0,120,10.0,0.0
3873,63.0,0,720,4.0,0.0
3874,55.0,240,120,12.0,0.0
3875,58.0,0,960,3.0,0.0
3876,75.0,24,720,1.0,0.0
3877,55.0,0,960,3.0,0.0
3878,67.0,240,120,10.0,0.0
3879,55.0,0,120,12.0,0.0
3880,49.0,108,120,13.0,0.0
3881,37.0,108,270,14.0,0.0
3882,76.0,48,180,1.0,0.0
3883,64.0,132,240,4.0,0.0
3884,49.0,60,120,13.0,0.0
3885,36.0,108,270,14.0,0.0
3886,56.0,0,3840,3.0,0.0
3887,63.0,132,480,4.0,0.0
3888,48.0,132,120,13.0,0.0
3889,75.0,132,720,1.0,0.0
3890,48.0,108,120,13.0,0.0
3891,56.0,0,120,12.0,0.0
3892,68.0,108,120,10.0,0.0
3893,68.0,0,120,10.0,0.0
3894,76.0,132,240,1.0,0.0
3895,56.0,108,120,12.0,0.0
3896,75.0,0,720,1.0,0.0
3897,63.0,24,720,4.0,0.0
3898,66.0,0,960,3.0,0.0
3899,66.0,0,120,10.0,0.0
3900,54.0,240,120,12.0,0.0
3901,54.0,240,120,12.0,0.0
3902,66.0,0,120,10.0,0.0
3903,32.0,108,270,14.0,0.0
3904,44.0,108,120,13.0,0.0
3905,44.0,108,120,13.0,0.0
3906,64.0,132,240,4.0,0.0
3907,76.0,0,240,1.0,0.0
3908,61.0,132,480,4.0,0.0
3909,65.0,132,1920,3.0,0.0
3910,73.0,132,720,1.0,0.0
3911,37.0,108,270,14.0,0.0
3912,49.0,132,120,13.0,0.0
3913,49.0,108,120,13.0,0.0
3914,53.0,108,120,12.0,0.0
3915,65.0,0,120,10.0,0.0
3916,75.0,132,240,1.0,0.0
3917,65.0,0,120,10.0,0.0
3918,53.0,108,120,12.0,0.0
3919,56.0,0,120,12.0,0.0
3920,68.0,240,120,10.0,0.0
3921,61.0,0,720,4.0,0.0
3922,73.0,24,720,1.0,0.0
3923,56.0,240,120,12.0,0.0
3924,68.0,0,120,10.0,0.0
3925,35.0,108,270,14.0,0.0
3926,47.0,108,120,13.0,0.0
3927,47.0,60,120,13.0,0.0
3928,63.0,0,240,4.0,0.0
3929,75.0,48,180,1.0,0.0
3930,54.0,0,2880,3.0,0.0
3931,46.0,132,120,13.0,0.0
3932,61.0,132,480,4.0,0.0
3933,66.0,132,960,3.0,0.0
3934,73.0,132,720,1.0,0.0
3935,34.0,108,270,14.0,0.0
3936,46.0,108,120,13.0,0.0
3937,54.0,108,120,12.0,0.0
3938,66.0,0,120,10.0,0.0
3939,54.0,0,120,12.0,0.0
3940,75.0,0,240,1.0,0.0
3941,66.0,108,120,10.0,0.0
3942,64.0,0,960,3.0,0.0
3943,61.0,24,720,4.0,0.0
3944,64.0,0,120,10.0,0.0
3945,52.0,240,120,12.0,0.0
3946,73.0,0,720,1.0,0.0
3947,52.0,240,120,12.0,0.0
3948,64.0,0,120,10.0,0.0
3949,30.0,108,270,14.0,0.0
3950,42.0,108,120,13.0,0.0
3951,75.0,48,180,1.0,0.0
3952,42.0,60,120,13.0,0.0
3953,63.0,132,240,4.0,0.0
3954,63.0,0,1920,3.0,0.0
3955,59.0,132,480,4.0,0.0
3956,35.0,108,270,14.0,0.0
3957,71.0,132,720,1.0,0.0
3958,47.0,132,120,13.0,0.0
3959,47.0,108,120,13.0,0.0
3960,51.0,0,120,12.0,0.0
3961,63.0,108,120,10.0,0.0
3962,63.0,108,120,10.0,0.0
3963,73.0,132,240,1.0,0.0
3964,51.0,0,120,12.0,0.0
3965,66.0,0,120,10.0,0.0
3966,59.0,96,960,3.0,0.0
3967,59.0,24,720,4.0,0.0
3968,71.0,0,720,1.0,0.0
3969,54.0,240,120,12.0,0.0
3970,66.0,348,120,10.0,0.0
3971,54.0,0,120,12.0,0.0
3972,46.0,168,270,13.0,0.0
3973,34.0,0,270,14.0,0.0
3974,73.0,48,180,1.0,0.0
3975,61.0,0,240,4.0,0.0
3976,86.0,0,6000,0.0,0.0
3977,83.0,0,6000,0.0,0.0
3978,47.0,120,90,7.0,0.0
3979,47.0,0,6000,4.0,0.0
3980,32.0,0,4800,14.0,0.0
3981,62.0,72,390,4.0,0.0
3982,44.0,96,240,13.0,0.0
3983,44.0,0,4800,3.0,0.0
3984,71.0,0,6000,2.0,0.0
3985,74.0,0,390,1.0,0.0
3986,59.0,0,6000,5.0,0.0
3987,74.0,0,6000,2.0,0.0
3988,62.0,0,6000,5.0,0.0
3989,47.0,24,90,7.0,0.0
3990,47.0,96,240,13.0,0.0
3991,59.0,0,240,11.0,0.0
3992,59.0,0,240,10.0,0.0
3993,47.0,48,90,7.0,0.0
3994,47.0,24,90,7.0,0.0
3995,47.0,120,90,7.0,0.0
3996,50.0,96,240,13.0,0.0
3997,62.0,0,240,10.0,0.0
3998,62.0,0,240,11.0,0.0
3999,47.0,24,90,7.0,0.0
4000,71.0,0,90,6.0,0.0
4001,59.0,120,90,6.0,0.0
4002,64.0,0,240,11.0,0.0
4003,64.0,96,240,10.0,0.0
4004,47.0,0,90,7.0,0.0
4005,52.0,0,240,13.0,0.0
4006,59.0,0,90,6.0,0.0
4007,71.0,24,90,6.0,0.0
4008,47.0,0,90,7.0,0.0
4009,59.0,0,1530,6.0,0.0
4010,67.0,0,240,11.0,0.0
4011,55.0,0,240,13.0,0.0
4012,47.0,120,90,7.0,0.0
4013,67.0,96,240,10.0,0.0
4014,71.0,0,1530,6.0,0.0
4015,47.0,24,90,7.0,0.0
4016,47.0,120,90,7.0,0.0
4017,64.0,0,240,11.0,0.0
4018,52.0,96,240,13.0,0.0
4019,64.0,0,240,10.0,0.0
4020,47.0,24,90,7.0,0.0
4021,65.0,0,240,10.0,0.0
4022,53.0,0,240,13.0,0.0
4023,47.0,120,90,7.0,0.0
4024,65.0,96,240,11.0,0.0
4025,53.0,0,240,12.0,0.0
4026,47.0,24,90,7.0,0.0
4027,47.0,120,90,7.0,0.0
4028,71.0,0,240,10.0,0.0
4029,59.0,0,240,12.0,0.0
4030,71.0,0,240,11.0,0.0
4031,59.0,96,240,13.0,0.0
4032,47.0,24,90,7.0,0.0
4033,74.0,0,240,10.0,0.0
4034,47.0,120,90,7.0,0.0
4035,62.0,0,240,11.0,0.0
4036,62.0,0,240,12.0,0.0
4037,62.0,96,240,13.0,0.0
4038,47.0,24,90,7.0,0.0
4039,64.0,96,240,11.0,0.0
4040,47.0,120,90,7.0,0.0
4041,64.0,0,240,12.0,0.0
4042,76.0,0,240,10.0,0.0
4043,47.0,24,90,7.0,0.0
4044,47.0,120,90,7.0,0.0
4045,79.0,0,240,10.0,0.0
4046,67.0,96,240,11.0,0.0
4047,67.0,0,240,12.0,0.0
4048,47.0,24,90,7.0,0.0
4049,47.0,0,90,7.0,0.0
4050,64.0,96,240,12.0,0.0
4051,76.0,0,240,10.0,0.0
4052,59.0,120,90,6.0,0.0
4053,71.0,0,90,6.0,0.0
4054,64.0,0,240,11.0,0.0
4055,47.0,0,90,7.0,0.0
4056,71.0,24,90,6.0,0.0
4057,59.0,0,90,6.0,0.0
4058,71.0,48,1740,6.0,0.0
4059,59.0,0,1740,6.0,0.0
4060,65.0,0,240,11.0,0.0
4061,65.0,96,240,12.0,0.0
4062,77.0,0,240,10.0,0.0
4063,47.0,120,90,7.0,0.0
4064,47.0,24,90,7.0,0.0
4065,83.0,0,240,10.0,0.0
4066,71.0,96,240,12.0,0.0
4067,71.0,0,240,11.0,0.0
4068,47.0,120,90,7.0,0.0
4069,47.0,24,90,7.0,0.0
4070,86.0,0,240,10.0,0.0
4071,74.0,96,240,11.0,0.0
4072,74.0,0,240,12.0,0.0
4073,47.0,120,90,7.0,0.0
4074,47.0,24,90,7.0,0.0
4075,83.0,0,240,10.0,0.0
4076,71.0,96,240,12.0,0.0
4077,47.0,120,90,7.0,0.0
4078,71.0,0,240,11.0,0.0
4079,47.0,24,90,7.0,0.0
4080,65.0,0,240,12.0,0.0
4081,77.0,96,240,10.0,0.0
4082,47.0,120,90,7.0,0.0
4083,65.0,0,240,11.0,0.0
4084,47.0,24,90,7.0,0.0
4085,47.0,120,90,7.0,0.0
4086,62.0,96,240,11.0,0.0
4087,74.0,0,240,10.0,0.0
4088,62.0,0,240,12.0,0.0
4089,47.0,24,90,7.0,0.0
4090,47.0,120,90,7.0,0.0
4091,59.0,0,240,11.0,0.0
4092,71.0,48,240,10.0,0.0
4093,59.0,0,240,12.0,0.0
4094,47.0,24,90,7.0,0.0
4095,64.0,0,240,12.0,0.0
4096,52.0,96,240,13.0,0.0
4097,64.0,0,240,10.0,0.0
4098,47.0,120,90,7.0,0.0
4099,47.0,24,90,7.0,0.0
4100,47.0,120,90,7.0,0.0
4101,43.0,556,1200,3.0,0.0
4102,65.0,96,240,12.0,0.0
4103,31.0,44,1140,14.0,0.0
4104,65.0,0,240,10.0,0.0
4105,71.0,0,1200,6.0,0.0
4106,53.0,0,240,13.0,0.0
4107,59.0,0,1200,6.0,0.0
4108,47.0,24,90,7.0,0.0
4109,62.0,96,240,10.0,0.0
4110,47.0,120,90,7.0,0.0
4111,50.0,0,240,13.0,0.0
4112,62.0,0,240,12.0,0.0
4113,47.0,24,90,7.0,0.0
4114,59.0,0,240,12.0,0.0
4115,47.0,96,240,13.0,0.0
4116,47.0,120,90,7.0,0.0
4117,59.0,0,240,10.0,0.0
4118,47.0,24,90,7.0,0.0
4119,47.0,120,90,7.0,0.0
4120,52.0,192,240,12.0,0.0
4121,43.0,0,240,13.0,0.0
4122,47.0,24,90,7.0,0.0
4123,53.0,0,180,13.0,0.0
4124,47.0,0,240,7.0,0.0
4125,53.0,0,180,12.0,0.0
4126,63.0,0,60,1.0,0.0
4127,66.0,0,60,4.0,0.0
4128,42.0,0,60,13.0,0.0
4129,59.0,120,60,4.0,0.0
4130,51.0,0,60,3.0,0.0
4131,59.0,0,60,3.0,0.0
4132,78.0,0,60,0.0,0.0
4133,71.0,0,60,1.0,0.0
4134,54.0,0,60,12.0,0.0
4135,54.0,0,60,3.0,0.0
4136,54.0,0,60,12.0,0.0
4137,73.0,0,60,1.0,0.0
4138,78.0,336,60,0.0,0.0
4139,42.0,0,60,13.0,0.0
4140,61.0,0,60,3.0,0.0
4141,66.0,0,60,1.0,0.0
4142,61.0,0,60,4.0,0.0
4143,66.0,0,60,4.0,0.0
4144,71.0,0,930,1.0,0.0
4145,63.0,0,930,4.0,0.0
4146,54.0,652,300,12.0,0.0
4147,66.0,0,930,4.0,0.0
4148,63.0,0,930,3.0,0.0
4149,78.0,0,930,0.0,0.0
4150,42.0,0,300,13.0,0.0
4151,59.0,812,930,3.0,0.0
4152,75.0,0,930,1.0,0.0
4153,54.0,0,60,12.0,0.0
4154,54.0,0,60,3.0,0.0
4155,78.0,0,60,0.0,0.0
4156,61.0,0,60,4.0,0.0
4157,66.0,0,60,4.0,0.0
4158,42.0,120,60,13.0,0.0
4159,66.0,0,60,1.0,0.0
4160,73.0,0,60,1.0,0.0
4161,61.0,0,60,3.0,0.0
4162,71.0,0,60,1.0,0.0
4163,78.0,0,60,0.0,0.0
4164,59.0,0,60,3.0,0.0
4165,63.0,0,60,3.0,0.0
4166,42.0,0,60,13.0,0.0
4167,66.0,0,60,4.0,0.0
4168,63.0,336,60,4.0,0.0
4169,75.0,0,60,1.0,0.0
4170,54.0,0,60,12.0,0.0
4171,64.0,0,930,3.0,0.0
4172,61.0,812,930,3.0,0.0
4173,42.0,0,300,13.0,0.0
4174,78.0,0,930,0.0,0.0
4175,76.0,0,930,1.0,0.0
4176,73.0,0,930,1.0,0.0
4177,64.0,0,930,4.0,0.0
4178,54.0,652,300,12.0,0.0
4179,66.0,0,930,4.0,0.0
4180,75.0,0,60,1.0,0.0
4181,71.0,0,60,1.0,0.0
4182,78.0,0,60,0.0,0.0
4183,54.0,120,60,12.0,0.0
4184,63.0,0,60,4.0,0.0
4185,59.0,0,60,3.0,0.0
4186,59.0,0,60,4.0,0.0
4187,42.0,0,60,13.0,0.0
4188,63.0,0,60,3.0,0.0
4189,61.0,0,60,4.0,0.0
4190,73.0,0,60,1.0,0.0
4191,78.0,0,60,0.0,0.0
4192,64.0,240,60,4.0,0.0
4193,42.0,0,60,13.0,0.0
4194,65.0,0,60,3.0,0.0
4195,54.0,0,60,12.0,0.0
4196,60.0,0,60,3.0,0.0
4197,76.0,0,60,1.0,0.0
4198,83.0,224,300,2.0,0.0
4199,63.0,0,180,4.0,0.0
4200,66.0,96,180,4.0,0.0
4201,78.0,0,300,0.0,0.0
4202,66.0,0,180,3.0,0.0
4203,75.0,0,180,1.0,0.0
4204,47.0,0,300,13.0,0.0
4205,63.0,0,180,3.0,0.0
4206,59.0,0,300,12.0,0.0
4207,78.0,0,180,1.0,0.0
4208,71.0,0,300,6.0,0.0
4209,71.0,0,300,2.0,0.0
4210,63.0,0,180,4.0,0.0
4211,59.0,0,180,4.0,0.0
4212,75.0,0,180,1.0,0.0
4213,71.0,0,180,1.0,0.0
4214,63.0,256,180,3.0,0.0
4215,59.0,0,180,3.0,0.0
4216,71.0,0,300,6.0,0.0
4217,71.0,64,300,2.0,0.0
4218,52.0,0,300,12.0,0.0
4219,40.0,0,300,13.0,0.0
4220,83.0,0,300,2.0,0.0
4221,64.0,0,180,4.0,0.0
4222,59.0,0,180,3.0,0.0
4223,56.0,320,180,3.0,0.0
4224,68.0,0,180,4.0,0.0
4225,80.0,0,180,1.0,0.0
4226,76.0,0,180,1.0,0.0
4227,71.0,0,300,6.0,0.0
4228,75.0,192,570,1.0,0.0
4229,63.0,0,180,3.0,0.0
4230,59.0,0,180,3.0,0.0
4231,63.0,64,180,4.0,0.0
4232,71.0,0,300,2.0,0.0
4233,47.0,0,300,13.0,0.0
4234,83.0,0,300,2.0,0.0
4235,66.0,0,180,4.0,0.0
4236,59.0,224,300,12.0,0.0
4237,78.0,32,270,1.0,0.0
4238,54.0,0,180,3.0,0.0
4239,59.0,64,180,3.0,0.0
4240,59.0,0,180,4.0,0.0
4241,63.0,0,180,4.0,0.0
4242,63.0,0,300,12.0,0.0
4243,78.0,0,300,2.0,0.0
4244,71.0,0,300,2.0,0.0
4245,51.0,64,300,13.0,0.0
4246,71.0,0,420,1.0,0.0
4247,83.0,256,270,1.0,0.0
4248,71.0,0,180,4.0,0.0
4249,51.0,64,180,3.0,0.0
4250,54.0,0,180,3.0,0.0
4251,59.0,0,180,4.0,0.0
4252,66.0,0,300,12.0,0.0
4253,66.0,64,180,4.0,0.0
4254,66.0,0,300,2.0,0.0
4255,78.0,0,300,2.0,0.0
4256,78.0,128,300,6.0,0.0
4257,58.0,0,180,3.0,0.0
4258,54.0,0,300,13.0,0.0
4259,70.0,96,420,1.0,0.0
4260,78.0,32,270,1.0,0.0
4261,54.0,0,180,3.0,0.0
4262,73.0,192,270,1.0,0.0
4263,61.0,64,180,3.0,0.0
4264,61.0,0,180,4.0,0.0
4265,70.0,160,420,1.0,0.0
4266,54.0,0,300,12.0,0.0
4267,42.0,64,300,13.0,0.0
4268,78.0,0,270,1.0,0.0
4269,66.0,0,180,4.0,0.0
4270,54.0,64,180,3.0,0.0
4271,80.0,0,4620,0.0,0.0
4272,83.0,0,4620,0.0,0.0
4273,47.0,24,4740,4.0,0.0
4274,71.0,48,4620,2.0,0.0
4275,68.0,0,4620,2.0,0.0
4276,41.0,0,4620,3.0,0.0
4277,29.0,20,4770,14.0,0.0
4278,41.0,96,240,13.0,0.0
4279,47.0,120,90,7.0,0.0
4280,47.0,24,90,7.0,0.0
4281,56.0,0,240,11.0,0.0
4282,44.0,96,240,13.0,0.0
4283,47.0,120,90,7.0,0.0
4284,56.0,0,240,10.0,0.0
4285,47.0,24,90,7.0,0.0
4286,59.0,0,240,10.0,0.0
4287,47.0,96,240,13.0,0.0
4288,59.0,0,240,11.0,0.0
4289,47.0,120,90,7.0,0.0
4290,47.0,24,90,7.0,0.0
4291,61.0,96,240,10.0,0.0
4292,71.0,0,90,6.0,0.0
4293,47.0,0,90,7.0,0.0
4294,49.0,0,240,13.0,0.0
4295,61.0,0,240,11.0,0.0
4296,59.0,120,90,6.0,0.0
4297,59.0,24,90,6.0,0.0
4298,47.0,0,90,7.0,0.0
4299,71.0,0,90,6.0,0.0
4300,52.0,0,240,13.0,0.0
4301,71.0,0,1530,6.0,0.0
4302,47.0,120,90,7.0,0.0
4303,64.0,96,240,10.0,0.0
4304,64.0,0,240,11.0,0.0
4305,59.0,120,1530,6.0,0.0
4306,47.0,24,90,7.0,0.0
4307,61.0,0,240,11.0,0.0
4308,61.0,96,240,10.0,0.0
4309,47.0,120,90,7.0,0.0
4310,49.0,0,240,13.0,0.0
4311,47.0,24,90,7.0,0.0
4312,62.0,96,240,11.0,0.0
4313,62.0,0,240,10.0,0.0
4314,47.0,120,90,7.0,0.0
4315,50.0,0,240,12.0,0.0
4316,50.0,0,240,13.0,0.0
4317,47.0,24,90,7.0,0.0
4318,68.0,96,240,10.0,0.0
4319,56.0,0,240,13.0,0.0
4320,47.0,120,90,7.0,0.0
4321,68.0,0,240,11.0,0.0
4322,56.0,0,240,12.0,0.0
4323,47.0,24,90,7.0,0.0
4324,71.0,96,240,10.0,0.0
4325,59.0,0,240,11.0,0.0
4326,59.0,0,240,12.0,0.0
4327,47.0,96,90,7.0,0.0
4328,59.0,24,180,13.0,0.0
4329,47.0,24,90,7.0,0.0
4330,61.0,96,240,11.0,0.0
4331,47.0,120,90,7.0,0.0
4332,73.0,0,240,10.0,0.0
4333,61.0,0,240,12.0,0.0
4334,47.0,24,90,7.0,0.0
4335,47.0,0,90,7.0,0.0
4336,64.0,0,240,12.0,0.0
4337,76.0,0,240,10.0,0.0
4338,64.0,96,240,11.0,0.0
4339,47.0,24,90,7.0,0.0
4340,59.0,0,90,6.0,0.0
4341,47.0,120,90,7.0,0.0
4342,61.0,0,240,11.0,0.0
4343,71.0,0,90,6.0,0.0
4344,61.0,0,240,12.0,0.0
4345,73.0,96,240,10.0,0.0
4346,47.0,24,90,7.0,0.0
4347,59.0,0,90,6.0,0.0
4348,71.0,0,90,6.0,0.0
4349,62.0,0,240,11.0,0.0
4350,62.0,96,240,12.0,0.0
4351,59.0,0,1740,6.0,0.0
4352,74.0,0,240,10.0,0.0
4353,71.0,0,1740,6.0,0.0
4354,47.0,120,90,7.0,0.0
4355,47.0,24,90,7.0,0.0
4356,80.0,96,240,10.0,0.0
4357,68.0,0,240,11.0,0.0
4358,47.0,120,90,7.0,0.0
4359,68.0,0,240,12.0,0.0
4360,47.0,24,90,7.0,0.0
4361,71.0,0,240,12.0,0.0
4362,83.0,96,240,10.0,0.0
4363,71.0,0,240,11.0,0.0
4364,47.0,120,90,7.0,0.0
4365,47.0,24,90,7.0,0.0
4366,47.0,120,90,7.0,0.0
4367,68.0,0,240,11.0,0.0
4368,68.0,0,240,12.0,0.0
4369,80.0,96,240,10.0,0.0
4370,47.0,24,90,7.0,0.0
4371,47.0,120,90,7.0,0.0
4372,62.0,96,240,11.0,0.0
4373,62.0,0,240,12.0,0.0
4374,74.0,0,240,10.0,0.0
4375,47.0,24,90,7.0,0.0
4376,59.0,96,240,11.0,0.0
4377,71.0,0,240,10.0,0.0
4378,47.0,120,90,7.0,0.0
4379,59.0,0,240,12.0,0.0
4380,47.0,24,90,7.0,0.0
4381,56.0,48,240,11.0,0.0
4382,47.0,96,90,7.0,0.0
4383,56.0,24,180,12.0,0.0
4384,68.0,0,240,10.0,0.0
4385,47.0,24,90,7.0,0.0
4386,47.0,96,90,7.0,0.0
4387,61.0,0,240,12.0,0.0
4388,49.0,0,240,13.0,0.0
4389,61.0,192,240,10.0,0.0
4390,47.0,4,90,7.0,0.0
4391,68.0,0,1740,2.0,0.0
4392,47.0,0,180,7.0,0.0
4393,71.0,144,1740,2.0,0.0
4394,83.0,0,1740,0.0,0.0
4395,50.0,0,240,13.0,0.0
4396,40.0,0,960,3.0,0.0
4397,52.0,0,960,3.0,0.0
4398,62.0,0,960,4.0,0.0
4399,47.0,0,1920,4.0,0.0
4400,80.0,0,1740,0.0,0.0
4401,62.0,240,240,12.0,0.0
4402,40.0,48,900,14.0,0.0
4403,71.0,0,1740,6.0,0.0
4404,62.0,48,180,10.0,0.0
4405,74.0,0,960,1.0,0.0
4406,59.0,0,1740,6.0,0.0
4407,47.0,240,240,13.0,0.0
4408,59.0,0,240,12.0,0.0
4409,56.0,0,240,12.0,0.0
4410,44.0,192,240,13.0,0.0
4411,40.0,0,240,13.0,0.0
4412,74.0,192,240,10.0,0.0
4413,62.0,0,240,11.0,0.0
4414,52.0,0,240,12.0,0.0
4415,39.0,48,900,14.0,0.0
4416,75.0,0,960,1.0,0.0
4417,39.0,0,960,3.0,0.0
4418,63.0,0,240,11.0,0.0
4419,51.0,0,960,3.0,0.0
4420,51.0,48,180,12.0,0.0
4421,63.0,0,960,4.0,0.0
4422,39.0,0,180,13.0,0.0
4423,75.0,240,240,10.0,0.0
4424,71.0,0,240,10.0,0.0
4425,59.0,240,240,11.0,0.0
4426,68.0,48,240,10.0,0.0
4427,56.0,0,240,11.0,0.0
4428,63.0,0,240,12.0,0.0
4429,51.0,0,240,13.0,0.0
4430,63.0,192,240,10.0,0.0
4431,38.0,240,960,3.0,0.0
4432,38.0,48,900,14.0,0.0
4433,64.0,0,960,4.0,0.0
4434,59.0,0,1920,4.0,0.0
4435,64.0,240,240,12.0,0.0
4436,80.0,0,1740,0.0,0.0
4437,83.0,0,1740,0.0,0.0
4438,52.0,0,240,13.0,0.0
4439,50.0,0,960,3.0,0.0
4440,59.0,0,1740,6.0,0.0
4441,71.0,0,1740,6.0,0.0
4442,68.0,0,1740,2.0,0.0
4443,71.0,144,1740,2.0,0.0
4444,64.0,48,180,10.0,0.0
4445,76.0,0,960,1.0,0.0
4446,59.0,240,240,12.0,0.0
4447,47.0,0,240,13.0,0.0
4448,56.0,0,240,12.0,0.0
4449,44.0,192,240,13.0,0.0
4450,50.0,0,240,12.0,0.0
4451,64.0,0,240,11.0,0.0
4452,76.0,0,240,10.0,0.0
4453,50.0,0,240,13.0,0.0
4454,37.0,0,900,14.0,0.0
4455,65.0,240,240,11.0,0.0
4456,77.0,0,960,1.0,0.0
4457,49.0,0,780,13.0,0.0
4458,65.0,0,960,4.0,0.0
4459,49.0,0,780,12.0,0.0
4460,49.0,0,960,3.0,0.0
4461,37.0,0,960,3.0,0.0
4462,77.0,0,240,10.0,0.0
4463,71.0,0,240,10.0,0.0
4464,59.0,192,240,11.0,0.0
4465,56.0,48,180,11.0,0.0
4466,68.0,48,240,10.0,0.0
4467,65.0,48,180,10.0,0.0
4468,65.0,240,240,11.0,0.0
4469,71.0,0,1350,6.0,0.0
4470,68.0,0,1350,2.0,0.0
4471,71.0,0,1350,2.0,0.0
4472,83.0,48,1350,0.0,0.0
4473,80.0,0,1350,0.0,0.0
4474,59.0,0,1350,6.0,0.0
4475,29.0,0,1350,14.0,0.0
4476,49.0,144,570,12.0,0.0
4477,41.0,0,1350,3.0,0.0
4478,83.0,0,1350,1.0,0.0
4479,71.0,0,1350,4.0,0.0
4480,68.0,0,1350,4.0,0.0
4481,71.0,0,240,11.0,0.0
4482,83.0,240,240,10.0,0.0
4483,41.0,0,1350,13.0,0.0
4484,49.0,0,1350,3.0,0.0
4485,68.0,96,240,11.0,0.0
4486,80.0,0,240,10.0,0.0
4487,77.0,192,240,10.0,0.0
4488,65.0,0,240,11.0,0.0
4489,73.0,192,240,10.0,0.0
4490,61.0,48,180,11.0,0.0
4491,61.0,0,180,12.0,0.0
4492,71.0,48,180,10.0,0.0
4493,71.0,144,240,11.0,0.0
4494,59.0,0,180,12.0,0.0
4495,56.0,48,180,12.0,0.0
4496,68.0,192,240,11.0,0.0
4497,49.0,126,180,12.0,0.0
4498,61.0,0,180,11.0,0.0
4499,30.0,102,90,14.0,0.0
4500,63.0,0,90,11.0,0.0
4501,59.0,0,90,12.0,0.0
4502,51.0,18,90,12.0,0.0
4503,71.0,0,90,10.0,0.0
4504,42.0,0,90,13.0,0.0
4505,30.0,840,90,14.0,0.0
4506,54.0,18,90,12.0,0.0
4507,66.0,0,90,11.0,0.0
4508,73.0,0,90,10.0,0.0
4509,42.0,0,90,13.0,0.0
4510,61.0,0,90,12.0,0.0
4511,75.0,0,1350,10.0,0.0
4512,71.0,0,1350,11.0,0.0
4513,54.0,192,1350,13.0,0.0
4514,59.0,0,1350,12.0,0.0
4515,63.0,0,1350,12.0,0.0
4516,42.0,0,1350,14.0,0.0
4517,66.0,120,90,4.0,0.0
4518,78.0,0,90,6.0,0.0
4519,78.0,408,90,6.0,0.0
4520,66.0,0,90,4.0,0.0
4521,66.0,0,570,4.0,0.0
4522,78.0,240,570,6.0,0.0
4523,42.0,0,90,13.0,0.0
4524,54.0,120,90,12.0,0.0
4525,61.0,0,90,12.0,0.0
4526,30.0,0,90,14.0,0.0
4527,66.0,0,90,11.0,0.0
4528,73.0,0,90,10.0,0.0
4529,59.0,0,90,12.0,0.0
4530,63.0,840,90,12.0,0.0
4531,30.0,0,90,14.0,0.0
4532,75.0,0,90,10.0,0.0
4533,71.0,0,90,11.0,0.0
4534,42.0,0,90,13.0,0.0
4535,54.0,0,1350,13.0,0.0
4536,42.0,0,1350,14.0,0.0
4537,61.0,0,1350,12.0,0.0
4538,73.0,192,1350,11.0,0.0
4539,76.0,0,1350,10.0,0.0
4540,64.0,0,1350,12.0,0.0
4541,66.0,120,90,4.0,0.0
4542,78.0,0,90,6.0,0.0
4543,78.0,408,90,6.0,0.0
4544,66.0,0,90,4.0,0.0
4545,78.0,0,570,6.0,0.0
4546,66.0,216,570,4.0,0.0
4547,71.0,0,60,11.0,0.0
4548,35.0,0,60,14.0,0.0
4549,47.0,0,60,13.0,0.0
4550,59.0,0,60,12.0,0.0
4551,75.0,0,60,10.0,0.0
4552,63.0,120,60,12.0,0.0
4553,64.0,0,60,12.0,0.0
4554,76.0,0,60,10.0,0.0
4555,73.0,0,60,11.0,0.0
4556,61.0,0,60,12.0,0.0
4557,47.0,0,60,13.0,0.0
4558,35.0,240,60,14.0,0.0
4559,78.0,0,180,10.0,0.0
4560,47.0,0,300,14.0,0.0
4561,75.0,0,180,11.0,0.0
4562,66.0,0,180,12.0,0.0
4563,63.0,96,180,12.0,0.0
4564,59.0,224,300,13.0,0.0
4565,71.0,256,180,11.0,0.0
4566,59.0,0,180,12.0,0.0
4567,63.0,0,180,12.0,0.0
4568,75.0,0,180,10.0,0.0
4569,71.0,288,390,4.0,0.0
4570,71.0,0,390,6.0,0.0
4571,59.0,0,390,6.0,0.0
4572,59.0,0,390,4.0,0.0
4573,52.0,0,300,13.0,0.0
4574,40.0,64,300,14.0,0.0
4575,68.0,0,180,12.0,0.0
4576,64.0,32,180,12.0,0.0
4577,80.0,0,180,10.0,0.0
4578,76.0,0,180,11.0,0.0
4579,78.0,0,180,10.0,0.0
4580,59.0,128,390,6.0,0.0
4581,71.0,0,390,6.0,0.0
4582,75.0,0,180,11.0,0.0
4583,63.0,96,180,12.0,0.0
4584,66.0,0,180,12.0,0.0
4585,71.0,0,390,4.0,0.0
4586,59.0,0,390,4.0,0.0
4587,59.0,0,300,13.0,0.0
4588,47.0,96,300,14.0,0.0
4589,59.0,256,180,12.0,0.0
4590,71.0,0,180,11.0,0.0
4591,63.0,0,180,12.0,0.0
4592,75.0,0,180,10.0,0.0
4593,59.0,0,390,4.0,0.0
4594,71.0,288,390,6.0,0.0
4595,56.0,0,300,13.0,0.0
4596,71.0,0,390,4.0,0.0
4597,59.0,0,390,6.0,0.0
4598,44.0,64,300,14.0,0.0
4599,76.0,0,180,11.0,0.0
4600,64.0,0,180,12.0,0.0
4601,71.0,0,180,12.0,0.0
4602,83.0,32,180,10.0,0.0
4603,78.0,0,180,10.0,0.0
4604,75.0,96,180,11.0,0.0
4605,66.0,0,180,12.0,0.0
4606,71.0,128,390,6.0,0.0
4607,59.0,0,390,4.0,0.0
4608,59.0,0,390,6.0,0.0
4609,63.0,0,180,12.0,0.0
4610,47.0,0,300,14.0,0.0
4611,59.0,96,300,13.0,0.0
4612,71.0,0,390,4.0,0.0
4613,63.0,0,180,12.0,0.0
4614,59.0,0,180,12.0,0.0
4615,71.0,0,180,11.0,0.0
4616,75.0,256,180,10.0,0.0
4617,51.0,0,300,13.0,0.0
4618,39.0,48,300,14.0,0.0
4619,59.0,0,180,12.0,0.0
4620,71.0,0,180,10.0,0.0
4621,66.0,0,180,11.0,0.0
4622,54.0,104,180,12.0,0.0
4623,78.0,16,90,6.0,0.0
4624,66.0,0,90,4.0,0.0
4625,66.0,600,90,4.0,0.0
4626,78.0,0,90,6.0,0.0
4627,61.0,0,570,12.0,0.0
4628,54.0,0,570,12.0,0.0
4629,73.0,0,570,10.0,0.0
4630,42.0,0,570,14.0,0.0
4631,70.0,0,570,11.0,0.0
4632,66.0,0,570,4.0,0.0
4633,54.0,240,570,13.0,0.0
4634,78.0,0,570,6.0,0.0
4635,78.0,120,90,6.0,0.0
4636,66.0,0,90,4.0,0.0
4637,66.0,0,90,4.0,0.0
4638,78.0,344,90,6.0,0.0
4639,66.0,64,2490,4.0,0.0
4640,54.0,320,330,3.0,0.0
4641,66.0,0,330,3.0,0.0
4642,78.0,0,2490,6.0,0.0
4643,66.0,0,960,1.0,0.0
4644,66.0,0,960,2.0,0.0
4645,78.0,0,960,0.0,0.0
4646,83.0,0,330,0.0,0.0
4647,71.0,0,330,1.0,0.0
4648,59.0,0,330,2.0,0.0
4649,51.0,0,330,3.0,0.0
4650,63.0,320,330,3.0,0.0
4651,61.0,0,330,2.0,0.0
4652,49.0,0,330,3.0,0.0
4653,85.0,0,330,0.0,0.0
4654,73.0,320,330,1.0,0.0
4655,61.0,0,330,3.0,0.0
4656,83.0,0,330,0.0,0.0
4657,87.0,0,330,0.0,0.0
4658,59.0,0,330,3.0,0.0
4659,63.0,0,330,2.0,0.0
4660,71.0,320,330,2.0,0.0
4661,47.0,0,330,3.0,0.0
4662,71.0,0,330,1.0,0.0
4663,75.0,0,330,1.0,0.0
4664,90.0,0,330,0.0,0.0
4665,66.0,0,330,2.0,0.0
4666,73.0,0,330,2.0,0.0
4667,85.0,320,330,0.0,0.0
4668,78.0,0,330,1.0,0.0
4669,42.0,0,330,3.0,0.0
4670,54.0,0,330,3.0,0.0
4671,73.0,0,330,1.0,0.0
4672,71.0,0,330,2.0,0.0
4673,75.0,0,330,2.0,0.0
4674,75.0,0,330,1.0,0.0
4675,51.0,0,330,3.0,0.0
4676,39.0,0,330,3.0,0.0
4677,83.0,0,330,1.0,0.0
4678,95.0,320,330,0.0,0.0
4679,87.0,0,330,0.0,0.0
4680,73.0,0,330,1.0,0.0
4681,78.0,0,330,1.0,0.0
4682,90.0,256,330,0.0,0.0
4683,85.0,0,330,0.0,0.0
4684,42.0,0,330,3.0,0.0
4685,54.0,0,330,3.0,0.0
4686,66.0,0,330,2.0,0.0
4687,73.0,0,330,2.0,0.0
4688,87.0,0,330,0.0,0.0
4689,59.0,0,330,3.0,0.0
4690,83.0,0,330,0.0,0.0
4691,47.0,0,330,3.0,0.0
4692,75.0,0,330,1.0,0.0
4693,63.0,0,330,2.0,0.0
4694,71.0,176,330,2.0,0.0
4695,78.0,0,330,0.0,0.0
4696,51.0,0,330,3.0,0.0
4697,63.0,576,330,3.0,0.0
4698,83.0,0,330,0.0,0.0
4699,71.0,0,15,1.0,0.0
4700,66.0,0,330,1.0,0.0
4701,59.0,0,330,2.0,0.0
4702,66.0,0,90,4.0,0.0
4703,78.0,120,90,6.0,0.0
4704,78.0,24,90,6.0,0.0
4705,66.0,0,90,4.0,0.0
4706,78.0,0,570,6.0,0.0
4707,66.0,0,15,2.0,0.0
4708,66.0,0,570,1.0,0.0
4709,73.0,240,570,2.0,0.0
4710,85.0,0,570,0.0,0.0
4711,61.0,0,570,3.0,0.0
4712,54.0,0,570,3.0,0.0
4713,73.0,0,570,1.0,0.0
4714,78.0,0,570,0.0,0.0
4715,66.0,0,570,4.0,0.0
4716,66.0,0,90,4.0,0.0
4717,74.0,0,90,10.0,0.0
4718,54.0,0,90,12.0,0.0
4719,62.0,0,90,12.0,0.0
4720,66.0,120,90,11.0,0.0
4721,78.0,0,90,6.0,0.0
4722,78.0,0,90,6.0,0.0
4723,57.0,0,90,12.0,0.0
4724,64.0,0,90,12.0,0.0
4725,76.0,840,90,10.0,0.0
4726,66.0,0,90,4.0,0.0
4727,69.0,0,90,11.0,0.0
4728,74.0,0,1350,11.0,0.0
4729,62.0,384,1350,12.0,0.0
4730,78.0,0,1350,6.0,0.0
4731,66.0,0,1350,12.0,0.0
4732,66.0,0,1350,4.0,0.0
4733,78.0,0,1350,10.0,0.0
4734,42.0,0,90,3.0,0.0
4735,54.0,0,90,3.0,0.0
4736,54.0,0,90,13.0,0.0
4737,30.0,120,90,14.0,0.0
4738,42.0,0,90,13.0,0.0
4739,42.0,0,90,3.0,0.0
4740,30.0,408,90,14.0,0.0
4741,54.0,0,90,13.0,0.0
4742,42.0,0,90,13.0,0.0
4743,54.0,0,90,3.0,0.0
4744,57.0,0,780,3.0,0.0
4745,57.0,0,780,13.0,0.0
4746,45.0,0,780,3.0,0.0
4747,45.0,0,780,13.0,0.0
4748,33.0,48,780,14.0,0.0
4749,64.0,0,90,4.0,0.0
4750,81.0,0,90,6.0,0.0
4751,76.0,0,90,10.0,0.0
4752,57.0,0,90,12.0,0.0
4753,76.0,0,90,6.0,0.0
4754,64.0,0,90,12.0,0.0
4755,69.0,0,90,4.0,0.0
4756,69.0,120,90,11.0,0.0
4757,76.0,0,90,6.0,0.0
4758,64.0,0,90,4.0,0.0
4759,69.0,0,90,4.0,0.0
4760,66.0,840,90,12.0,0.0
4761,62.0,0,90,12.0,0.0
4762,78.0,0,90,10.0,0.0
4763,81.0,0,90,6.0,0.0
4764,74.0,0,90,11.0,0.0
4765,64.0,0,1350,4.0,0.0
4766,69.0,0,1350,4.0,0.0
4767,79.0,0,1350,10.0,0.0
4768,76.0,384,1350,11.0,0.0
4769,67.0,0,1350,12.0,0.0
4770,76.0,0,1350,6.0,0.0
4771,81.0,0,1350,6.0,0.0
4772,64.0,0,1350,12.0,0.0
4773,45.0,120,90,13.0,0.0
4774,33.0,0,90,14.0,0.0
4775,45.0,0,90,3.0,0.0
4776,57.0,0,90,13.0,0.0
4777,57.0,0,90,3.0,0.0
4778,57.0,0,90,3.0,0.0
4779,33.0,408,90,14.0,0.0
4780,57.0,0,90,13.0,0.0
4781,45.0,0,90,13.0,0.0
4782,45.0,0,90,3.0,0.0
4783,50.0,0,780,3.0,0.0
4784,62.0,48,780,13.0,0.0
4785,38.0,0,780,14.0,0.0
4786,62.0,0,780,3.0,0.0
4787,50.0,0,780,13.0,0.0
4788,62.0,120,90,12.0,0.0
4789,62.0,0,90,5.0,0.0
4790,74.0,0,90,6.0,0.0
4791,78.0,0,90,10.0,0.0
4792,74.0,0,90,1.0,0.0
4793,74.0,0,90,11.0,0.0
4794,86.0,0,90,0.0,0.0
4795,66.0,0,90,12.0,0.0
4796,76.0,0,90,11.0,0.0
4797,86.0,0,90,0.0,0.0
4798,64.0,0,90,12.0,0.0
4799,67.0,0,90,12.0,0.0
4800,62.0,216,90,5.0,0.0
4801,79.0,0,90,10.0,0.0
4802,74.0,0,90,6.0,0.0
4803,74.0,0,90,1.0,0.0
4804,74.0,192,1530,6.0,0.0
4805,86.0,0,1530,0.0,0.0
4806,74.0,0,1530,1.0,0.0
4807,66.0,0,180,12.0,0.0
4808,78.0,0,180,11.0,0.0
4809,81.0,320,180,10.0,0.0
4810,62.0,0,1530,5.0,0.0
4811,69.0,0,180,12.0,0.0
4812,66.0,256,180,12.0,0.0
4813,62.0,0,180,12.0,0.0
4814,78.0,0,180,10.0,0.0
4815,74.0,0,180,11.0,0.0
4816,55.0,0,300,3.0,0.0
4817,43.0,64,300,3.0,0.0
4818,43.0,0,300,13.0,0.0
4819,31.0,0,300,14.0,0.0
4820,71.0,0,300,2.0,0.0
4821,67.0,0,300,2.0,0.0
4822,83.0,320,180,10.0,0.0
4823,79.0,0,180,11.0,0.0
4824,67.0,0,180,12.0,0.0
4825,71.0,0,180,12.0,0.0
4826,62.0,0,300,3.0,0.0
4827,78.0,0,180,11.0,0.0
4828,50.0,0,300,13.0,0.0
4829,50.0,0,300,3.0,0.0
4830,38.0,0,300,14.0,0.0
4831,69.0,0,180,12.0,0.0
4832,69.0,224,300,2.0,0.0
4833,66.0,0,300,2.0,0.0
4834,66.0,0,180,12.0,0.0
4835,81.0,96,180,10.0,0.0
4836,78.0,0,180,10.0,0.0
4837,74.0,64,180,11.0,0.0
4838,62.0,0,180,12.0,0.0
4839,66.0,0,180,12.0,0.0
4840,47.0,0,300,13.0,0.0
4841,67.0,0,300,2.0,0.0
4842,74.0,0,300,2.0,0.0
4843,59.0,0,300,3.0,0.0
4844,47.0,0,300,3.0,0.0
4845,35.0,48,300,14.0,0.0
4846,86.0,104,180,10.0,0.0
4847,67.0,0,180,12.0,0.0
4848,79.0,0,180,11.0,0.0
4849,74.0,0,180,12.0,0.0
4850,74.0,0,90,6.0,0.0
4851,86.0,0,90,0.0,0.0
4852,74.0,16,90,1.0,0.0
4853,62.0,0,90,5.0,0.0
4854,74.0,0,90,6.0,0.0
4855,86.0,216,90,0.0,0.0
4856,62.0,0,90,5.0,0.0
4857,74.0,0,90,1.0,0.0
4858,81.0,0,180,10.0,0.0
4859,38.0,0,300,14.0,0.0
4860,78.0,96,180,11.0,0.0
4861,62.0,0,570,5.0,0.0
4862,69.0,0,300,2.0,0.0
4863,66.0,224,300,2.0,0.0
4864,50.0,0,300,3.0,0.0
4865,50.0,0,300,13.0,0.0
4866,86.0,0,570,0.0,0.0
4867,69.0,0,180,12.0,0.0
4868,74.0,192,570,6.0,0.0
4869,74.0,0,570,1.0,0.0
4870,66.0,0,180,12.0,0.0
4871,62.0,0,300,3.0,0.0
4872,78.0,64,180,10.0,0.0
4873,74.0,0,180,11.0,0.0
4874,62.0,0,180,12.0,0.0
4875,66.0,0,180,12.0,0.0
4876,74.0,0,300,2.0,0.0
4877,47.0,0,300,13.0,0.0
4878,35.0,48,300,14.0,0.0
4879,47.0,0,300,3.0,0.0
4880,71.0,0,300,2.0,0.0
4881,59.0,0,300,3.0,0.0
4882,74.0,0,180,12.0,0.0
4883,71.0,0,180,12.0,0.0
4884,83.0,104,180,11.0,0.0
4885,86.0,0,180,10.0,0.0
4886,78.0,0,90,1.0,0.0
4887,66.0,0,90,4.0,0.0
4888,90.0,16,90,0.0,0.0
4889,78.0,0,90,6.0,0.0
4890,66.0,0,90,4.0,0.0
4891,78.0,0,90,6.0,0.0
4892,90.0,0,90,0.0,0.0
4893,78.0,216,90,1.0,0.0
4894,73.0,0,300,2.0,0.0
4895,66.0,0,1530,4.0,0.0
4896,85.0,0,180,10.0,0.0
4897,82.0,96,180,11.0,0.0
4898,54.0,224,300,3.0,0.0
4899,66.0,0,300,3.0,0.0
4900,78.0,192,1530,1.0,0.0
4901,90.0,0,1530,0.0,0.0
4902,54.0,0,300,13.0,0.0
4903,70.0,0,180,12.0,0.0
4904,73.0,0,180,12.0,0.0
4905,78.0,0,1530,6.0,0.0
4906,70.0,0,300,2.0,0.0
4907,42.0,0,300,14.0,0.0
4908,66.0,256,180,12.0,0.0
4909,70.0,0,180,12.0,0.0
4910,82.0,0,180,10.0,0.0
4911,78.0,0,180,11.0,0.0
4912,50.0,0,300,13.0,0.0
4913,78.0,0,300,2.0,0.0
4914,71.0,0,300,2.0,0.0
4915,38.0,0,300,14.0,0.0
4916,62.0,0,300,3.0,0.0
4917,50.0,64,300,3.0,0.0
4918,90.0,0,180,10.0,0.0
4919,83.0,0,180,11.0,0.0
4920,78.0,320,180,12.0,0.0
4921,71.0,0,180,12.0,0.0
4922,42.0,0,300,14.0,0.0
4923,54.0,0,300,13.0,0.0
4924,82.0,96,180,11.0,0.0
4925,66.0,224,300,3.0,0.0
4926,73.0,0,300,2.0,0.0
4927,85.0,0,180,10.0,0.0
4928,70.0,0,300,2.0,0.0
4929,73.0,0,180,12.0,0.0
4930,54.0,0,300,3.0,0.0
4931,70.0,0,180,12.0,0.0
4932,70.0,0,180,12.0,0.0
4933,82.0,64,180,10.0,0.0
4934,66.0,0,180,12.0,0.0
4935,78.0,0,180,11.0,0.0
4936,70.0,64,2790,2.0,0.0
4937,73.0,0,2790,2.0,0.0
4938,52.0,48,300,7.0,0.0
4939,42.0,0,300,3.0,0.0
4940,50.0,0,300,13.0,0.0
4941,38.0,0,300,14.0,0.0
4942,78.0,96,180,11.0,0.0
4943,64.0,0,120,12.0,0.0
4944,90.0,0,180,10.0,0.0
4945,73.0,0,120,12.0,0.0
4946,64.0,0,90,4.0,0.0
4947,90.0,16,90,0.0,0.0
4948,76.0,0,90,6.0,0.0
4949,76.0,0,90,1.0,0.0
4950,78.0,0,90,1.0,0.0
4951,88.0,0,90,0.0,0.0
4952,66.0,0,90,4.0,0.0
4953,78.0,0,90,6.0,0.0
4954,73.0,0,120,12.0,0.0
4955,64.0,8,120,12.0,0.0
4956,78.0,0,90,1.0,0.0
4957,64.0,0,90,4.0,0.0
4958,78.0,0,90,6.0,0.0
4959,76.0,0,90,6.0,0.0
4960,90.0,152,90,0.0,0.0
4961,76.0,0,90,1.0,0.0
4962,66.0,0,90,4.0,0.0
4963,88.0,0,90,0.0,0.0
4964,90.0,32,570,0.0,0.0
4965,76.0,0,180,11.0,0.0
4966,66.0,0,570,4.0,0.0
4967,73.0,0,120,12.0,0.0
4968,46.0,0,300,13.0,0.0
4969,64.0,0,570,4.0,0.0
4970,78.0,0,570,6.0,0.0
4971,76.0,0,570,6.0,0.0
4972,64.0,64,120,12.0,0.0
4973,34.0,160,300,14.0,0.0
4974,88.0,96,180,10.0,0.0
4975,88.0,0,570,0.0,0.0
4976,76.0,0,570,1.0,0.0
4977,78.0,0,570,1.0,0.0
4978,46.0,0,300,3.0,0.0
4979,73.0,0,120,12.0,0.0
4980,64.0,0,120,12.0,0.0
4981,73.0,0,120,12.0,0.0
4982,64.0,64,120,12.0,0.0
4983,85.0,0,180,10.0,0.0
4984,73.0,64,180,11.0,0.0
4985,49.0,0,300,3.0,0.0
4986,64.0,0,120,12.0,0.0
4987,49.0,0,300,13.0,0.0
4988,52.0,0,300,7.0,0.0
4989,37.0,48,300,14.0,0.0
4990,73.0,160,120,12.0,0.0
4991,73.0,0,120,12.0,0.0
4992,64.0,0,120,12.0,0.0
4993,90.0,0,180,10.0,0.0
4994,78.0,96,180,11.0,0.0
4995,78.0,0,90,6.0,0.0
4996,76.0,0,90,6.0,0.0
4997,76.0,0,90,1.0,0.0
4998,90.0,0,90,0.0,0.0
4999,66.0,16,90,4.0,0.0
5000,64.0,0,90,4.0,0.0
5001,88.0,0,90,0.0,0.0
5002,78.0,0,90,1.0,0.0
5003,73.0,8,120,12.0,0.0
5004,64.0,0,120,12.0,0.0
5005,76.0,0,90,6.0,0.0
5006,78.0,0,90,6.0,0.0
5007,64.0,0,90,4.0,0.0
5008,66.0,152,90,4.0,0.0
5009,76.0,0,90,1.0,0.0
5010,78.0,0,90,1.0,0.0
5011,88.0,0,90,0.0,0.0
5012,90.0,0,90,0.0,0.0
5013,76.0,96,180,11.0,0.0
5014,54.0,0,300,13.0,0.0
5015,66.0,0,570,4.0,0.0
5016,76.0,0,570,6.0,0.0
5017,88.0,0,180,10.0,0.0
5018,78.0,0,570,6.0,0.0
5019,76.0,0,570,1.0,0.0
5020,64.0,64,120,12.0,0.0
5021,42.0,0,300,14.0,0.0
5022,73.0,0,120,12.0,0.0
5023,54.0,0,300,3.0,0.0
5024,88.0,0,570,0.0,0.0
5025,90.0,0,570,0.0,0.0
5026,64.0,32,570,4.0,0.0
5027,78.0,0,570,1.0,0.0
5028,64.0,0,120,12.0,0.0
5029,73.0,160,120,12.0,0.0
5030,64.0,64,120,12.0,0.0
5031,73.0,0,120,12.0,0.0
5032,73.0,64,180,11.0,0.0
5033,85.0,0,180,10.0,0.0
5034,46.0,0,300,14.0,0.0
5035,52.0,0,300,7.0,0.0
5036,58.0,48,300,13.0,0.0
5037,64.0,0,120,12.0,0.0
5038,58.0,0,300,3.0,0.0
5039,73.0,160,120,12.0,0.0
5040,78.0,96,180,11.0,0.0
5041,90.0,0,180,10.0,0.0
5042,73.0,0,120,12.0,0.0
5043,64.0,0,120,12.0,0.0
5044,78.0,0,90,1.0,0.0
5045,66.0,16,90,4.0,0.0
5046,90.0,0,90,0.0,0.0
5047,76.0,0,90,1.0,0.0
5048,88.0,0,90,0.0,0.0
5049,78.0,0,90,6.0,0.0
5050,64.0,0,90,4.0,0.0
5051,76.0,0,90,6.0,0.0
5052,64.0,8,120,12.0,0.0
5053,73.0,0,120,12.0,0.0
5054,76.0,0,90,6.0,0.0
5055,90.0,0,90,0.0,0.0
5056,66.0,152,90,4.0,0.0
5057,78.0,0,90,6.0,0.0
5058,76.0,0,90,1.0,0.0
5059,88.0,0,90,0.0,0.0
5060,64.0,0,90,4.0,0.0
5061,78.0,0,90,1.0,0.0
5062,88.0,0,180,10.0,0.0
5063,64.0,0,570,4.0,0.0
5064,49.0,0,300,14.0,0.0
5065,61.0,0,300,3.0,0.0
5066,61.0,0,300,13.0,0.0
5067,66.0,0,570,4.0,0.0
5068,76.0,96,180,11.0,0.0
5069,76.0,0,570,1.0,0.0
5070,78.0,32,570,1.0,0.0
5071,78.0,0,570,6.0,0.0
5072,88.0,0,570,0.0,0.0
5073,90.0,0,570,0.0,0.0
5074,76.0,0,570,6.0,0.0
5075,73.0,0,120,12.0,0.0
5076,64.0,64,120,12.0,0.0
5077,64.0,96,120,12.0,0.0
5078,73.0,0,120,12.0,0.0
5079,85.0,64,180,10.0,0.0
5080,64.0,64,120,12.0,0.0
5081,73.0,0,120,12.0,0.0
5082,73.0,0,180,11.0,0.0
5083,73.0,160,120,12.0,0.0
5084,42.0,0,300,3.0,0.0
5085,47.0,0,300,7.0,0.0
5086,71.0,96,2580,2.0,0.0
5087,75.0,0,2580,2.0,0.0
5088,30.0,0,300,14.0,0.0
5089,64.0,0,120,12.0,0.0
5090,42.0,48,300,13.0,0.0
5091,63.0,0,120,12.0,0.0
5092,90.0,96,180,10.0,0.0
5093,78.0,0,180,11.0,0.0
5094,71.0,0,120,12.0,0.0
5095,59.0,0,90,4.0,0.0
5096,90.0,0,90,0.0,0.0
5097,87.0,16,90,0.0,0.0
5098,66.0,0,90,4.0,0.0
5099,71.0,0,90,6.0,0.0
5100,78.0,0,90,6.0,0.0
5101,75.0,0,90,1.0,0.0
5102,78.0,0,90,1.0,0.0
5103,63.0,8,120,12.0,0.0
5104,71.0,0,120,12.0,0.0
5105,75.0,0,90,1.0,0.0
5106,87.0,0,90,0.0,0.0
5107,90.0,0,90,0.0,0.0
5108,78.0,0,90,6.0,0.0
5109,71.0,0,90,6.0,0.0
5110,59.0,0,90,4.0,0.0
5111,66.0,152,90,4.0,0.0
5112,78.0,0,90,1.0,0.0
5113,66.0,32,570,4.0,0.0
5114,71.0,0,570,6.0,0.0
5115,78.0,0,570,6.0,0.0
5116,90.0,0,570,0.0,0.0
5117,87.0,0,570,0.0,0.0
5118,75.0,0,180,11.0,0.0
5119,78.0,0,570,1.0,0.0
5120,87.0,96,180,10.0,0.0
5121,75.0,0,570,1.0,0.0
5122,35.0,0,300,14.0,0.0
5123,63.0,64,120,12.0,0.0
5124,47.0,0,300,3.0,0.0
5125,47.0,0,300,13.0,0.0
5126,59.0,0,570,4.0,0.0
5127,71.0,0,120,12.0,0.0
5128,71.0,0,120,12.0,0.0
5129,63.0,160,120,12.0,0.0
5130,63.0,0,120,12.0,0.0
5131,71.0,64,120,12.0,0.0
5132,83.0,0,180,10.0,0.0
5133,71.0,64,180,11.0,0.0
5134,39.0,0,300,14.0,0.0
5135,51.0,0,300,3.0,0.0
5136,51.0,0,300,13.0,0.0
5137,63.0,160,120,12.0,0.0
5138,71.0,0,120,12.0,0.0
5139,47.0,0,300,7.0,0.0
5140,63.0,48,120,12.0,0.0
5141,71.0,0,120,12.0,0.0
5142,78.0,0,180,11.0,0.0
5143,90.0,96,180,10.0,0.0
5144,71.0,0,90,6.0,0.0
5145,78.0,16,90,6.0,0.0
5146,78.0,0,90,1.0,0.0
5147,66.0,0,90,4.0,0.0
5148,59.0,0,90,4.0,0.0
5149,75.0,0,90,1.0,0.0
5150,90.0,0,90,0.0,0.0
5151,87.0,0,90,0.0,0.0
5152,63.0,8,120,12.0,0.0
5153,71.0,0,120,12.0,0.0
5154,78.0,0,90,6.0,0.0
5155,66.0,0,90,4.0,0.0
5156,59.0,0,90,4.0,0.0
5157,71.0,0,90,6.0,0.0
5158,87.0,0,90,0.0,0.0
5159,75.0,0,90,1.0,0.0
5160,90.0,0,90,0.0,0.0
5161,78.0,152,90,1.0,0.0
5162,59.0,0,570,4.0,0.0
5163,66.0,0,570,4.0,0.0
5164,75.0,0,570,1.0,0.0
5165,78.0,0,570,1.0,0.0
5166,54.0,0,300,13.0,0.0
5167,71.0,64,120,12.0,0.0
5168,87.0,96,180,10.0,0.0
5169,63.0,0,120,12.0,0.0
5170,71.0,32,570,6.0,0.0
5171,78.0,0,570,6.0,0.0
5172,75.0,0,180,11.0,0.0
5173,54.0,0,300,3.0,0.0
5174,87.0,0,570,0.0,0.0
5175,42.0,0,300,14.0,0.0
5176,90.0,0,570,0.0,0.0
5177,71.0,0,120,12.0,0.0
5178,63.0,160,120,12.0,0.0
5179,63.0,0,120,12.0,0.0
5180,71.0,64,120,12.0,0.0
5181,83.0,64,180,10.0,0.0
5182,71.0,0,180,11.0,0.0
5183,47.0,0,300,14.0,0.0
5184,71.0,160,120,12.0,0.0
5185,47.0,0,300,7.0,0.0
5186,59.0,48,300,3.0,0.0
5187,59.0,0,300,13.0,0.0
5188,63.0,0,120,12.0,0.0
5189,63.0,0,120,12.0,0.0
5190,71.0,0,120,12.0,0.0
5191,90.0,96,180,10.0,0.0
5192,78.0,0,180,11.0,0.0
5193,78.0,0,90,6.0,0.0
5194,75.0,0,90,1.0,0.0
5195,78.0,0,90,1.0,0.0
5196,71.0,0,90,6.0,0.0
5197,59.0,16,90,4.0,0.0
5198,87.0,0,90,0.0,0.0
5199,90.0,0,90,0.0,0.0
5200,66.0,0,90,4.0,0.0
5201,71.0,0,120,12.0,0.0
5202,63.0,8,120,12.0,0.0
5203,66.0,0,90,4.0,0.0
5204,71.0,0,90,6.0,0.0
5205,78.0,0,90,6.0,0.0
5206,78.0,0,90,1.0,0.0
5207,59.0,0,90,4.0,0.0
5208,75.0,0,90,1.0,0.0
5209,90.0,0,90,0.0,0.0
5210,87.0,152,90,0.0,0.0
5211,63.0,0,300,3.0,0.0
5212,78.0,0,300,6.0,0.0
5213,71.0,160,300,6.0,0.0
5214,75.0,0,180,11.0,0.0
5215,87.0,0,180,10.0,0.0
5216,63.0,0,120,12.0,0.0
5217,71.0,64,120,12.0,0.0
5218,75.0,0,300,1.0,0.0
5219,78.0,0,300,1.0,0.0
5220,51.0,0,300,14.0,0.0
5221,87.0,0,300,0.0,0.0
5222,90.0,0,300,0.0,0.0
5223,63.0,0,300,13.0,0.0
5224,66.0,0,300,4.0,0.0
5225,59.0,0,300,4.0,0.0
5226,71.0,0,120,12.0,0.0
5227,63.0,0,120,12.0,0.0
5228,71.0,64,120,12.0,0.0
5229,71.0,96,180,11.0,0.0
5230,63.0,0,120,12.0,0.0
5231,83.0,0,180,10.0,0.0
5232,59.0,0,300,4.0,0.0
5233,71.0,0,120,12.0,0.0
5234,47.0,0,300,3.0,0.0
5235,47.0,0,300,13.0,0.0
5236,90.0,0,300,0.0,0.0
5237,63.0,160,120,12.0,0.0
5238,87.0,0,300,0.0,0.0
5239,75.0,0,390,2.0,0.0
5240,71.0,32,390,2.0,0.0
5241,71.0,0,300,6.0,0.0
5242,35.0,0,300,14.0,0.0
5243,59.0,0,300,6.0,0.0
5244,75.0,64,300,1.0,0.0
5245,47.0,0,300,4.0,0.0
5246,47.0,0,300,7.0,0.0
5247,83.0,0,300,1.0,0.0
5248,71.0,0,270,12.0,0.0
5249,63.0,208,270,12.0,0.0
5250,95.0,0,180,10.0,0.0
5251,83.0,32,180,11.0,0.0
5252,76.0,0,570,2.0,0.0
5253,80.0,48,570,1.0,0.0
5254,76.0,0,570,1.0,0.0
5255,64.0,0,300,4.0,0.0
5256,52.0,72,300,4.0,0.0
5257,52.0,0,150,3.0,0.0
5258,40.0,0,150,3.0,0.0
5259,68.0,0,570,2.0,0.0
5260,52.0,0,150,12.0,0.0
5261,40.0,0,570,14.0,0.0
5262,92.0,0,570,10.0,0.0
5263,92.0,0,570,0.0,0.0
5264,64.0,0,300,6.0,0.0
5265,88.0,0,570,0.0,0.0
5266,76.0,0,300,6.0,0.0
5267,40.0,168,150,13.0,0.0
5268,71.0,0,570,11.0,0.0
5269,80.0,0,570,11.0,0.0
5270,44.0,192,150,13.0,0.0
5271,44.0,0,150,3.0,0.0
5272,56.0,0,150,3.0,0.0
5273,56.0,0,150,12.0,0.0
5274,59.0,240,150,3.0,0.0
5275,59.0,0,150,12.0,0.0
5276,47.0,0,150,3.0,0.0
5277,47.0,0,150,13.0,0.0
5278,54.0,0,150,3.0,0.0
5279,78.0,0,180,11.0,0.0
5280,70.0,0,180,11.0,0.0
5281,73.0,0,180,2.0,0.0
5282,42.0,0,150,3.0,0.0
5283,42.0,48,150,13.0,0.0
5284,90.0,0,180,10.0,0.0
5285,70.0,0,180,2.0,0.0
5286,54.0,0,150,12.0,0.0
5287,78.0,0,180,1.0,0.0
5288,70.0,0,180,1.0,0.0
5289,42.0,0,180,14.0,0.0
5290,90.0,192,180,0.0,0.0
5291,82.0,0,180,0.0,0.0
5292,82.0,0,570,0.0,0.0
5293,58.0,0,150,3.0,0.0
5294,58.0,168,150,12.0,0.0
5295,78.0,0,300,6.0,0.0
5296,46.0,0,150,3.0,0.0
5297,42.0,0,570,14.0,0.0
5298,70.0,0,570,1.0,0.0
5299,78.0,0,570,1.0,0.0
5300,73.0,48,570,2.0,0.0
5301,46.0,0,150,13.0,0.0
5302,70.0,0,570,11.0,0.0
5303,78.0,0,570,11.0,0.0
5304,90.0,0,570,0.0,0.0
5305,66.0,72,300,4.0,0.0
5306,70.0,0,570,2.0,0.0
5307,90.0,0,570,10.0,0.0
5308,49.0,0,150,13.0,0.0
5309,61.0,0,150,3.0,0.0
5310,49.0,0,150,3.0,0.0
5311,61.0,192,150,12.0,0.0
5312,54.0,0,150,13.0,0.0
5313,66.0,240,150,12.0,0.0
5314,66.0,0,150,3.0,0.0
5315,54.0,0,150,3.0,0.0
5316,80.0,0,180,1.0,0.0
5317,80.0,0,180,11.0,0.0
5318,40.0,48,150,3.0,0.0
5319,52.0,0,150,3.0,0.0
5320,40.0,0,150,13.0,0.0
5321,92.0,0,180,10.0,0.0
5322,88.0,0,180,0.0,0.0
5323,92.0,0,180,0.0,0.0
5324,76.0,192,180,2.0,0.0
5325,68.0,0,180,2.0,0.0
5326,40.0,0,180,14.0,0.0
5327,52.0,0,150,12.0,0.0
5328,76.0,0,180,1.0,0.0
5329,71.0,0,180,11.0,0.0
5330,68.0,0,570,2.0,0.0
5331,44.0,0,150,13.0,0.0
5332,44.0,0,150,3.0,0.0
5333,56.0,168,150,3.0,0.0
5334,88.0,0,570,0.0,0.0
5335,92.0,0,570,0.0,0.0
5336,80.0,0,570,1.0,0.0
5337,76.0,0,570,1.0,0.0
5338,64.0,72,300,4.0,0.0
5339,76.0,0,570,2.0,0.0
5340,52.0,0,300,4.0,0.0
5341,92.0,0,570,10.0,0.0
5342,56.0,0,150,12.0,0.0
5343,80.0,0,570,11.0,0.0
5344,71.0,0,570,11.0,0.0
5345,40.0,48,570,14.0,0.0
5346,64.0,0,300,6.0,0.0
5347,76.0,0,300,6.0,0.0
5348,59.0,0,150,12.0,0.0
5349,59.0,192,150,3.0,0.0
5350,47.0,0,150,13.0,0.0
5351,47.0,0,150,3.0,0.0
5352,64.0,240,150,12.0,0.0
5353,52.0,0,150,13.0,0.0
5354,64.0,0,150,3.0,0.0
5355,52.0,0,150,3.0,0.0
5356,78.0,0,180,1.0,0.0
5357,90.0,0,180,10.0,0.0
5358,70.0,0,180,1.0,0.0
5359,70.0,0,180,11.0,0.0
5360,78.0,192,180,11.0,0.0
5361,70.0,0,180,2.0,0.0
5362,54.0,0,150,12.0,0.0
5363,42.0,0,150,13.0,0.0
5364,42.0,0,180,14.0,0.0
5365,42.0,0,150,3.0,0.0
5366,54.0,48,150,3.0,0.0
5367,90.0,0,180,0.0,0.0
5368,82.0,0,180,0.0,0.0
5369,73.0,0,180,2.0,0.0
5370,70.0,0,570,1.0,0.0
5371,78.0,0,300,6.0,0.0
5372,90.0,0,570,0.0,0.0
5373,78.0,48,570,1.0,0.0
5374,82.0,0,570,0.0,0.0
5375,78.0,0,570,11.0,0.0
5376,46.0,168,150,13.0,0.0
5377,42.0,0,570,14.0,0.0
5378,70.0,0,570,11.0,0.0
5379,58.0,0,150,3.0,0.0
5380,46.0,0,150,3.0,0.0
5381,90.0,0,570,10.0,0.0
5382,70.0,0,570,2.0,0.0
5383,58.0,0,150,12.0,0.0
5384,73.0,0,570,2.0,0.0
5385,66.0,72,300,4.0,0.0
5386,61.0,0,150,3.0,0.0
5387,49.0,0,150,13.0,0.0
5388,49.0,0,150,3.0,0.0
5389,61.0,192,150,12.0,0.0
5390,54.0,240,150,13.0,0.0
5391,54.0,0,150,3.0,0.0
5392,66.0,0,150,3.0,0.0
5393,66.0,0,150,12.0,0.0
5394,92.0,0,180,10.0,0.0
5395,40.0,48,150,13.0,0.0
5396,71.0,0,180,11.0,0.0
5397,80.0,0,180,11.0,0.0
5398,68.0,0,180,2.0,0.0
5399,76.0,0,180,2.0,0.0
5400,92.0,0,180,0.0,0.0
5401,88.0,0,180,0.0,0.0
5402,52.0,0,150,3.0,0.0
5403,80.0,360,180,1.0,0.0
5404,76.0,0,180,1.0,0.0
5405,52.0,0,150,12.0,0.0
5406,40.0,0,180,14.0,0.0
5407,40.0,0,150,3.0,0.0
5408,76.0,1848,390,1.0,0.0
5409,92.0,0,300,10.0,0.0
5410,52.0,0,390,4.0,0.0
5411,52.0,0,300,13.0,0.0
5412,80.0,0,390,1.0,0.0
5413,76.0,0,390,2.0,0.0
5414,76.0,0,390,6.0,0.0
5415,64.0,0,390,4.0,0.0
5416,68.0,0,390,2.0,0.0
5417,64.0,0,390,6.0,0.0
5418,40.0,0,300,14.0,0.0
5419,80.0,0,300,11.0,0.0
5420,71.0,0,300,11.0,0.0
5421,92.0,0,390,0.0,0.0
5422,64.0,72,300,12.0,0.0
5423,52.0,0,390,3.0,0.0
5424,88.0,0,390,0.0,0.0
5425,64.0,0,390,3.0,0.0
5426,78.0,0,390,1.0,0.0
5427,70.0,1536,390,1.0,0.0
5428,42.0,0,390,3.0,0.0
5429,78.0,0,390,6.0,0.0
5430,54.0,0,300,13.0,0.0
5431,54.0,0,390,3.0,0.0
5432,66.0,0,390,4.0,0.0
5433,42.0,0,300,14.0,0.0
5434,90.0,0,390,0.0,0.0
5435,78.0,0,300,11.0,0.0
5436,70.0,0,300,11.0,0.0
5437,73.0,0,390,2.0,0.0
5438,70.0,0,390,2.0,0.0
5439,82.0,0,390,0.0,0.0
5440,90.0,72,300,10.0,0.0
5441,61.0,0,300,12.0,0.0
5442,87.0,0,480,0.0,0.0
5443,54.0,240,480,3.0,0.0
5444,63.0,0,480,3.0,0.0
5445,78.0,0,480,0.0,0.0
5446,51.0,0,900,3.0,0.0
5447,35.0,144,780,14.0,0.0
5448,59.0,0,900,3.0,0.0
5449,83.0,0,900,0.0,0.0
5450,47.0,240,240,13.0,0.0
5451,75.0,0,900,0.0,0.0
5452,42.0,240,240,13.0,0.0
5453,66.0,48,420,11.0,0.0
5454,75.0,0,420,10.0,0.0
5455,47.0,48,240,13.0,0.0
5456,51.0,240,240,13.0,0.0
5457,54.0,96,390,13.0,0.0
5458,54.0,144,240,12.0,0.0
5459,51.0,240,240,12.0,0.0
5460,63.0,48,420,11.0,0.0
5461,71.0,0,420,10.0,0.0
5462,87.0,0,480,0.0,0.0
5463,78.0,0,480,0.0,0.0
5464,54.0,240,480,3.0,0.0
5465,54.0,192,240,12.0,0.0
5466,63.0,0,480,3.0,0.0
5467,59.0,0,240,12.0,0.0
5468,59.0,0,900,3.0,0.0
5469,51.0,48,900,3.0,0.0
5470,35.0,144,780,14.0,0.0
5471,47.0,144,240,13.0,0.0
5472,83.0,0,900,0.0,0.0
5473,75.0,0,900,0.0,0.0
5474,63.0,96,390,12.0,0.0
5475,42.0,240,240,13.0,0.0
5476,75.0,0,420,10.0,0.0
5477,66.0,0,420,11.0,0.0
5478,47.0,48,240,13.0,0.0
5479,51.0,240,240,13.0,0.0
5480,54.0,144,240,12.0,0.0
5481,54.0,96,390,13.0,0.0
5482,51.0,240,240,12.0,0.0
5483,66.0,0,480,2.0,0.0
5484,87.0,0,480,0.0,0.0
5485,78.0,0,480,0.0,0.0
5486,75.0,0,480,1.0,0.0
5487,51.0,240,480,3.0,0.0
5488,66.0,0,480,1.0,0.0
5489,63.0,0,480,2.0,0.0
5490,71.0,0,420,10.0,0.0
5491,54.0,192,240,12.0,0.0
5492,63.0,48,420,11.0,0.0
5493,59.0,0,240,12.0,0.0
5494,66.0,0,1920,4.0,0.0
5495,59.0,0,1920,4.0,0.0
5496,63.0,96,390,12.0,0.0
5497,71.0,0,2310,1.0,0.0
5498,47.0,144,240,13.0,0.0
5499,83.0,0,2310,0.0,0.0
5500,75.0,384,1920,0.0,0.0
5501,40.0,144,2700,14.0,0.0
5502,54.0,0,15,3.0,0.0
5503,57.0,0,1920,3.0,0.0
5504,63.0,0,1920,1.0,0.0
5505,66.0,0,1920,2.0,0.0
5506,69.0,0,1920,2.0,0.0
5507,40.0,240,240,13.0,0.0
5508,78.0,0,420,10.0,0.0
5509,69.0,288,420,11.0,0.0
5510,47.0,192,240,13.0,0.0
5511,51.0,0,180,13.0,0.0
5512,54.0,0,240,13.0,0.0
5513,63.0,240,240,12.0,0.0
5514,51.0,240,240,13.0,0.0
5515,59.0,0,240,12.0,0.0
5516,66.0,0,420,11.0,0.0
5517,63.0,0,240,12.0,0.0
5518,54.0,192,240,13.0,0.0
5519,75.0,48,420,10.0,0.0
5520,59.0,0,180,13.0,0.0
5521,66.0,0,240,12.0,0.0
5522,52.0,0,390,13.0,0.0
5523,64.0,0,390,1.0,0.0
5524,55.0,0,390,3.0,0.0
5525,52.0,0,390,3.0,0.0
5526,55.0,0,390,12.0,0.0
5527,64.0,0,390,2.0,0.0
5528,67.0,0,390,2.0,0.0
5529,67.0,0,390,4.0,0.0
5530,64.0,0,390,4.0,0.0
5531,76.0,384,390,0.0,0.0
5532,71.0,1008,420,10.0,0.0
5533,67.0,0,420,11.0,0.0
5534,72.0,240,480,2.0,0.0
5535,60.0,0,480,3.0,0.0
5536,84.0,0,480,0.0,0.0
5537,38.0,144,780,14.0,0.0
5538,38.0,240,240,13.0,0.0
5539,81.0,0,900,0.0,0.0
5540,57.0,0,900,3.0,0.0
5541,69.0,0,900,2.0,0.0
5542,45.0,240,240,13.0,0.0
5543,54.0,48,240,13.0,0.0
5544,69.0,48,420,11.0,0.0
5545,72.0,0,420,10.0,0.0
5546,57.0,240,240,13.0,0.0
5547,50.0,96,390,13.0,0.0
5548,66.0,144,240,12.0,0.0
5549,60.0,240,240,12.0,0.0
5550,66.0,192,240,12.0,0.0
5551,60.0,240,480,3.0,0.0
5552,72.0,0,480,2.0,0.0
5553,84.0,0,480,0.0,0.0
5554,69.0,0,420,10.0,0.0
5555,66.0,0,420,11.0,0.0
5556,69.0,48,180,12.0,0.0
5557,38.0,240,240,13.0,0.0
5558,57.0,0,900,3.0,0.0
5559,69.0,48,900,2.0,0.0
5560,81.0,0,900,0.0,0.0
5561,38.0,144,780,14.0,0.0
5562,45.0,240,240,13.0,0.0
5563,54.0,48,240,13.0,0.0
5564,69.0,0,420,11.0,0.0
5565,72.0,0,420,10.0,0.0
5566,57.0,240,240,13.0,0.0
5567,66.0,144,240,12.0,0.0
5568,50.0,96,390,13.0,0.0
5569,60.0,240,240,12.0,0.0
5570,66.0,48,420,11.0,0.0
5571,66.0,0,480,1.0,0.0
5572,72.0,0,480,2.0,0.0
5573,69.0,0,480,2.0,0.0
5574,60.0,0,480,3.0,0.0
5575,57.0,0,480,3.0,0.0
5576,84.0,0,480,0.0,0.0
5577,60.0,0,2790,5.0,0.0
5578,69.0,240,480,1.0,0.0
5579,66.0,192,240,12.0,0.0
5580,69.0,0,420,10.0,0.0
5581,69.0,0,180,12.0,0.0
5582,66.0,0,2310,4.0,0.0
5583,39.0,240,240,13.0,0.0
5584,66.0,0,2310,2.0,0.0
5585,81.0,0,2310,0.0,0.0
5586,69.0,0,2310,2.0,0.0
5587,57.0,96,2310,3.0,0.0
5588,78.0,0,2310,1.0,0.0
5589,51.0,0,2310,3.0,0.0
5590,39.0,144,2700,14.0,0.0
5591,72.0,0,2310,1.0,0.0
5592,45.0,240,240,13.0,0.0
5593,54.0,192,240,13.0,0.0
5594,69.0,0,420,11.0,0.0
5595,78.0,48,420,10.0,0.0
5596,57.0,240,240,13.0,0.0
5597,51.0,0,1740,13.0,0.0
5598,66.0,240,240,12.0,0.0
5599,60.0,240,240,12.0,0.0
5600,72.0,288,420,10.0,0.0
5601,66.0,192,240,12.0,0.0
5602,69.0,0,420,11.0,0.0
5603,69.0,0,180,12.0,0.0
5604,60.0,144,240,12.0,0.0
5605,57.0,240,240,12.0,0.0
5606,66.0,0,420,11.0,0.0
5607,60.0,48,240,12.0,0.0
5608,69.0,1008,420,10.0,0.0
5609,66.0,0,180,12.0,0.0
5610,83.0,0,480,10.0,0.0
5611,71.0,240,480,11.0,0.0
5612,64.0,0,3750,4.0,0.0
5613,79.0,96,780,10.0,0.0
5614,40.0,240,240,13.0,0.0
5615,52.0,0,3750,4.0,0.0
5616,67.0,0,780,11.0,0.0
5617,40.0,0,780,14.0,0.0
5618,47.0,240,240,13.0,0.0
5619,71.0,96,390,2.0,0.0
5620,83.0,0,390,0.0,0.0
5621,79.0,0,390,0.0,0.0
5622,55.0,0,390,3.0,0.0
5623,59.0,0,390,3.0,0.0
5624,67.0,0,390,2.0,0.0
5625,52.0,48,240,13.0,0.0
5626,59.0,240,240,13.0,0.0
5627,59.0,144,240,12.0,0.0
5628,55.0,0,240,12.0,0.0
5629,52.0,96,390,13.0,0.0
5630,59.0,0,240,12.0,0.0
5631,64.0,240,480,11.0,0.0
5632,67.0,0,240,12.0,0.0
5633,52.0,0,390,3.0,0.0
5634,55.0,0,390,3.0,0.0
5635,79.0,96,390,0.0,0.0
5636,64.0,240,15,12.0,0.0
5637,76.0,0,390,0.0,0.0
5638,64.0,0,390,2.0,0.0
5639,67.0,0,390,2.0,0.0
5640,76.0,0,480,10.0,0.0
5641,71.0,0,240,12.0,0.0
5642,67.0,0,240,12.0,0.0
5643,64.0,96,390,12.0,0.0
5644,84.0,0,780,10.0,0.0
5645,40.0,96,780,14.0,0.0
5646,40.0,144,240,13.0,0.0
5647,57.0,0,390,12.0,0.0
5648,72.0,0,780,11.0,0.0
5649,48.0,240,240,13.0,0.0
5650,57.0,48,240,13.0,0.0
5651,64.0,0,390,2.0,0.0
5652,60.0,96,390,2.0,0.0
5653,52.0,0,390,3.0,0.0
5654,48.0,0,390,3.0,0.0
5655,76.0,0,390,0.0,0.0
5656,72.0,0,390,0.0,0.0
5657,60.0,240,240,13.0,0.0
5658,52.0,96,390,13.0,0.0
5659,57.0,144,240,12.0,0.0
5660,60.0,0,15,12.0,0.0
5661,64.0,240,240,12.0,0.0
5662,69.0,0,390,2.0,0.0
5663,60.0,0,390,3.0,0.0
5664,57.0,0,390,3.0,0.0
5665,81.0,96,390,0.0,0.0
5666,84.0,0,390,0.0,0.0
5667,72.0,0,390,2.0,0.0
5668,81.0,0,480,10.0,0.0
5669,69.0,0,480,11.0,0.0
5670,64.0,144,240,12.0,0.0
5671,69.0,0,15,12.0,0.0
5672,72.0,0,240,12.0,0.0
5673,52.0,0,4230,4.0,0.0
5674,40.0,144,240,13.0,0.0
5675,59.0,0,1920,4.0,0.0
5676,63.0,96,390,12.0,0.0
5677,57.0,0,390,12.0,0.0
5678,66.0,0,780,11.0,0.0
5679,78.0,96,780,10.0,0.0
5680,40.0,0,780,14.0,0.0
5681,47.0,240,240,13.0,0.0
5682,54.0,48,240,13.0,0.0
5683,57.0,0,390,3.0,0.0
5684,54.0,0,390,3.0,0.0
5685,78.0,0,390,0.0,0.0
5686,81.0,0,390,0.0,0.0
5687,66.0,0,390,2.0,0.0
5688,69.0,96,390,2.0,0.0
5689,57.0,240,240,13.0,0.0
5690,54.0,0,240,12.0,0.0
5691,47.0,96,390,13.0,0.0
5692,63.0,240,240,12.0,0.0
5693,57.0,144,15,12.0,0.0
5694,75.0,0,480,10.0,0.0
5695,75.0,0,390,0.0,0.0
5696,78.0,0,390,0.0,0.0
5697,63.0,0,390,2.0,0.0
5698,66.0,0,390,2.0,0.0
5699,63.0,0,480,11.0,0.0
5700,66.0,144,240,12.0,0.0
5701,51.0,96,390,3.0,0.0
5702,54.0,0,390,3.0,0.0
5703,63.0,0,240,12.0,0.0
5704,66.0,240,240,12.0,0.0
5705,69.0,0,240,12.0,0.0
5706,55.0,0,2310,4.0,0.0
5707,83.0,96,780,10.0,0.0
5708,59.0,0,390,12.0,0.0
5709,40.0,144,240,13.0,0.0
5710,71.0,0,780,11.0,0.0
5711,55.0,96,390,12.0,0.0
5712,40.0,0,780,14.0,0.0
5713,47.0,240,240,13.0,0.0
5714,71.0,0,390,0.0,0.0
5715,55.0,48,240,13.0,0.0
5716,75.0,96,390,0.0,0.0
5717,63.0,0,390,2.0,0.0
5718,59.0,0,390,2.0,0.0
5719,51.0,0,390,3.0,0.0
5720,47.0,0,390,3.0,0.0
5721,59.0,240,240,13.0,0.0
5722,52.0,96,390,13.0,0.0
5723,52.0,0,240,12.0,0.0
5724,55.0,144,15,12.0,0.0
5725,76.0,0,480,11.0,0.0
5726,88.0,0,480,10.0,0.0
5727,64.0,0,240,12.0,0.0
5728,59.0,240,15,12.0,0.0
5729,59.0,96,390,3.0,0.0
5730,55.0,0,390,3.0,0.0
5731,79.0,0,390,0.0,0.0
5732,83.0,0,390,0.0,0.0
5733,67.0,0,390,2.0,0.0
5734,71.0,0,390,2.0,0.0
5735,67.0,240,240,12.0,0.0
5736,72.0,0,390,12.0,0.0
5737,64.0,0,900,11.0,0.0
5738,36.0,144,240,13.0,0.0
5739,36.0,96,780,14.0,0.0
5740,64.0,0,15,12.0,0.0
5741,76.0,48,900,10.0,0.0
5742,60.0,0,1920,5.0,0.0
5743,64.0,0,1920,5.0,0.0
5744,43.0,240,240,13.0,0.0
5745,76.0,0,390,2.0,0.0
5746,64.0,0,390,3.0,0.0
5747,52.0,48,240,13.0,0.0
5748,60.0,0,390,3.0,0.0
5749,72.0,48,390,2.0,0.0
5750,88.0,0,390,0.0,0.0
5751,84.0,0,390,0.0,0.0
5752,55.0,240,240,13.0,0.0
5753,48.0,96,390,13.0,0.0
5754,52.0,0,240,12.0,0.0
5755,60.0,144,240,12.0,0.0
5756,55.0,240,240,12.0,0.0
5757,64.0,0,240,12.0,0.0
5758,60.0,0,240,12.0,0.0
5759,67.0,144,240,12.0,0.0
5760,67.0,240,480,11.0,0.0
5761,76.0,96,390,0.0,0.0
5762,52.0,0,390,3.0,0.0
5763,48.0,0,390,3.0,0.0
5764,64.0,0,390,2.0,0.0
5765,60.0,0,390,2.0,0.0
5766,79.0,0,480,10.0,0.0
5767,72.0,0,390,0.0,0.0
5768,64.0,0,240,12.0,0.0
5769,72.0,0,240,12.0,0.0
5770,83.0,0,900,10.0,0.0
5771,62.0,0,390,12.0,0.0
5772,31.0,96,780,14.0,0.0
5773,71.0,48,900,11.0,0.0
5774,43.0,144,240,13.0,0.0
5775,71.0,96,390,12.0,0.0
5776,55.0,96,1830,5.0,0.0
5777,62.0,0,1830,5.0,0.0
5778,50.0,240,240,13.0,0.0
5779,50.0,48,390,3.0,0.0
5780,43.0,0,390,3.0,0.0
5781,71.0,0,390,0.0,0.0
5782,74.0,0,390,0.0,0.0
5783,55.0,48,240,13.0,0.0
5784,62.0,0,390,2.0,0.0
5785,59.0,0,390,2.0,0.0
5786,59.0,240,240,13.0,0.0
5787,59.0,0,240,12.0,0.0
5788,50.0,96,390,13.0,0.0
5789,55.0,144,240,12.0,0.0
5790,59.0,240,240,12.0,0.0
5791,62.0,0,240,12.0,0.0
5792,86.0,0,480,10.0,0.0
5793,59.0,0,390,3.0,0.0
5794,55.0,0,390,3.0,0.0
5795,83.0,0,390,0.0,0.0
5796,71.0,0,390,2.0,0.0
5797,74.0,240,480,11.0,0.0
5798,79.0,0,390,0.0,0.0
5799,62.0,144,240,12.0,0.0
5800,67.0,0,240,12.0,0.0
5801,67.0,0,390,2.0,0.0
5802,71.0,0,240,12.0,0.0
5803,67.0,0,240,12.0,0.0
5804,62.0,48,900,11.0,0.0
5805,38.0,144,240,13.0,0.0
5806,38.0,96,780,14.0,0.0
5807,74.0,0,900,10.0,0.0
5808,65.0,0,1920,5.0,0.0
5809,65.0,96,390,12.0,0.0
5810,74.0,0,390,12.0,0.0
5811,62.0,240,1920,5.0,0.0
5812,45.0,240,240,13.0,0.0
5813,77.0,0,390,0.0,0.0
5814,53.0,0,390,3.0,0.0
5815,74.0,0,390,2.0,0.0
5816,65.0,48,390,2.0,0.0
5817,86.0,0,390,0.0,0.0
5818,62.0,0,390,3.0,0.0
5819,53.0,48,240,13.0,0.0
5820,57.0,240,240,13.0,0.0
5821,62.0,0,240,12.0,0.0
5822,50.0,96,390,13.0,0.0
5823,53.0,144,240,12.0,0.0
5824,57.0,0,240,12.0,0.0
5825,65.0,240,240,12.0,0.0
5826,65.0,0,390,2.0,0.0
5827,62.0,0,390,2.0,0.0
5828,77.0,96,390,0.0,0.0
5829,74.0,0,390,0.0,0.0
5830,69.0,0,240,12.0,0.0
5831,53.0,0,390,3.0,0.0
5832,50.0,0,390,3.0,0.0
5833,65.0,0,480,11.0,0.0
5834,77.0,0,480,10.0,0.0
5835,62.0,144,240,12.0,0.0
5836,65.0,0,240,12.0,0.0
5837,74.0,0,240,12.0,0.0
5838,81.0,48,900,10.0,0.0
5839,45.0,144,240,13.0,0.0
5840,64.0,0,1830,5.0,0.0
5841,33.0,96,780,14.0,0.0
5842,69.0,0,900,11.0,0.0
5843,60.0,0,1830,5.0,0.0
5844,72.0,96,390,12.0,0.0
5845,64.0,0,390,12.0,0.0
5846,52.0,240,240,13.0,0.0
5847,64.0,0,390,2.0,0.0
5848,60.0,0,390,2.0,0.0
5849,52.0,0,390,3.0,0.0
5850,45.0,0,390,3.0,0.0
5851,76.0,48,390,0.0,0.0
5852,72.0,0,390,0.0,0.0
5853,57.0,48,240,13.0,0.0
5854,60.0,240,240,13.0,0.0
5855,52.0,96,390,13.0,0.0
5856,57.0,0,240,12.0,0.0
5857,60.0,144,15,12.0,0.0
5858,64.0,240,15,12.0,0.0
5859,76.0,0,390,0.0,0.0
5860,57.0,0,390,3.0,0.0
5861,60.0,0,390,3.0,0.0
5862,64.0,0,390,2.0,0.0
5863,69.0,96,390,2.0,0.0
5864,69.0,0,240,12.0,0.0
5865,81.0,0,390,0.0,0.0
5866,84.0,240,480,10.0,0.0
5867,72.0,0,240,12.0,0.0
5868,69.0,0,240,12.0,0.0
5869,70.0,0,240,12.0,0.0
5870,67.0,0,960,5.0,0.0
5871,72.0,144,1200,11.0,0.0
5872,70.0,240,960,2.0,0.0
5873,64.0,0,960,2.0,0.0
5874,48.0,48,1830,13.0,0.0
5875,72.0,96,390,10.0,0.0
5876,36.0,0,1830,14.0,0.0
5877,67.0,144,15,12.0,0.0
5878,64.0,0,240,12.0,0.0
5879,67.0,240,15,12.0,0.0
5880,70.0,0,240,12.0,0.0
5881,67.0,240,15,12.0,0.0
5882,64.0,0,240,12.0,0.0
5883,65.0,0,960,5.0,0.0
5884,65.0,96,390,12.0,0.0
5885,65.0,240,960,2.0,0.0
5886,69.0,0,960,2.0,0.0
5887,69.0,0,390,12.0,0.0
5888,71.0,240,240,11.0,0.0
5889,72.0,144,240,11.0,0.0
5890,69.0,48,180,11.0,0.0
5891,67.0,240,240,12.0,0.0
5892,58.0,0,960,2.0,0.0
5893,67.0,0,960,2.0,0.0
5894,48.0,48,1830,13.0,0.0
5895,64.0,0,960,5.0,0.0
5896,84.0,144,1200,10.0,0.0
5897,58.0,0,240,12.0,0.0
5898,36.0,0,1830,14.0,0.0
5899,60.0,240,240,12.0,0.0
5900,64.0,0,240,12.0,0.0
5901,58.0,0,240,12.0,0.0
5902,67.0,240,240,12.0,0.0
5903,60.0,240,240,12.0,0.0
5904,64.0,0,240,12.0,0.0
5905,57.0,0,390,12.0,0.0
5906,57.0,240,960,2.0,0.0
5907,65.0,0,960,2.0,0.0
5908,65.0,0,960,5.0,0.0
5909,65.0,96,390,12.0,0.0
5910,83.0,240,240,10.0,0.0
5911,84.0,144,240,10.0,0.0
5912,81.0,48,180,10.0,0.0
5913,55.0,0,960,13.0,0.0
5914,60.0,48,3060,5.0,0.0
5915,34.0,0,960,14.0,0.0
5916,72.0,0,720,11.0,0.0
5917,64.0,0,960,2.0,0.0
5918,67.0,240,960,2.0,0.0
5919,46.0,0,960,13.0,0.0
5920,52.0,0,240,12.0,0.0
5921,48.0,0,3060,5.0,0.0
5922,67.0,240,240,12.0,0.0
5923,55.0,240,240,12.0,0.0
5924,64.0,0,240,12.0,0.0
5925,67.0,0,240,12.0,0.0
5926,52.0,192,240,12.0,0.0
5927,71.0,0,240,11.0,0.0
5928,64.0,0,180,12.0,0.0
5929,55.0,48,180,12.0,0.0
5930,45.0,0,900,13.0,0.0
5931,53.0,0,900,13.0,0.0
5932,65.0,240,960,2.0,0.0
5933,65.0,192,240,12.0,0.0
5934,33.0,0,900,14.0,0.0
5935,72.0,0,240,11.0,0.0
5936,48.0,0,240,12.0,0.0
5937,53.0,240,240,12.0,0.0
5938,60.0,0,240,12.0,0.0
5939,69.0,48,180,11.0,0.0
5940,84.0,240,720,10.0,0.0
5941,65.0,192,240,12.0,0.0
5942,48.0,0,240,12.0,0.0
5943,53.0,48,180,12.0,0.0
5944,60.0,0,180,12.0,0.0
5945,48.0,0,240,12.0,0.0
5946,51.0,0,960,13.0,0.0
5947,63.0,0,240,12.0,0.0
5948,43.0,0,960,13.0,0.0
5949,57.0,0,1350,2.0,0.0
5950,63.0,0,960,2.0,0.0
5951,31.0,0,960,14.0,0.0
5952,60.0,0,240,12.0,0.0
5953,83.0,240,240,10.0,0.0
5954,57.0,0,240,12.0,0.0
5955,72.0,144,720,11.0,0.0
5956,48.0,0,240,12.0,0.0
5957,63.0,0,240,12.0,0.0
5958,84.0,192,240,10.0,0.0
5959,60.0,192,240,12.0,0.0
5960,57.0,0,240,12.0,0.0
5961,81.0,48,180,10.0,0.0
5962,62.0,0,390,12.0,0.0
5963,50.0,0,390,12.0,0.0
5964,42.0,0,900,13.0,0.0
5965,62.0,96,390,2.0,0.0
5966,30.0,0,900,14.0,0.0
5967,50.0,48,900,13.0,0.0
5968,71.0,240,240,11.0,0.0
5969,72.0,192,240,11.0,0.0
5970,86.0,240,480,0.0,0.0
5971,82.0,0,480,0.0,0.0
5972,74.0,144,720,10.0,0.0
5973,62.0,0,480,3.0,0.0
5974,58.0,0,480,3.0,0.0
5975,69.0,0,180,11.0,0.0
5976,31.0,0,390,14.0,0.0
5977,43.0,96,390,13.0,0.0
5978,60.0,240,480,3.0,0.0
5979,57.0,0,480,3.0,0.0
5980,81.0,0,480,0.0,0.0
5981,84.0,0,480,0.0,0.0
5982,73.0,0,240,10.0,0.0
5983,74.0,144,240,10.0,0.0
5984,58.0,0,390,12.0,0.0
5985,62.0,0,390,12.0,0.0
5986,82.0,0,390,0.0,0.0
5987,55.0,0,390,3.0,0.0
5988,58.0,0,390,3.0,0.0
5989,79.0,96,390,0.0,0.0
5990,69.0,240,240,10.0,0.0
5991,70.0,240,240,10.0,0.0
5992,66.0,240,240,10.0,0.0
5993,79.0,192,660,11.0,0.0
5994,62.0,96,390,12.0,0.0
5995,58.0,0,390,12.0,0.0
5996,67.0,144,240,10.0,0.0
5997,55.0,192,480,3.0,0.0
5998,79.0,0,480,0.0,0.0
5999,89.0,0,480,0.0,0.0
6000,86.0,192,480,0.0,0.0
6001,62.0,0,480,3.0,0.0
6002,65.0,0,480,3.0,0.0
6003,48.0,0,390,13.0,0.0
6004,36.0,48,390,14.0,0.0
6005,78.0,48,180,11.0,0.0
6006,60.0,0,390,3.0,0.0
6007,79.0,192,180,11.0,0.0
6008,63.0,0,390,3.0,0.0
6009,87.0,48,390,0.0,0.0
6010,63.0,0,390,12.0,0.0
6011,84.0,0,390,0.0,0.0
6012,55.0,0,390,12.0,0.0
6013,74.0,240,180,11.0,0.0
6014,75.0,240,180,11.0,0.0
6015,71.0,240,180,11.0,0.0
6016,72.0,192,180,11.0,0.0
6017,84.0,144,720,10.0,0.0
6018,81.0,0,480,0.0,0.0
6019,60.0,0,390,12.0,0.0
6020,60.0,240,480,3.0,0.0
6021,84.0,0,480,0.0,0.0
6022,63.0,96,390,12.0,0.0
6023,57.0,0,480,3.0,0.0
6024,38.0,96,390,14.0,0.0
6025,58.0,0,480,3.0,0.0
6026,50.0,0,390,13.0,0.0
6027,79.0,0,480,0.0,0.0
6028,82.0,0,480,0.0,0.0
6029,55.0,0,480,3.0,0.0
6030,83.0,240,240,10.0,0.0
6031,54.0,96,390,3.0,0.0
6032,57.0,0,390,3.0,0.0
6033,78.0,0,390,0.0,0.0
6034,57.0,0,390,12.0,0.0
6035,54.0,0,390,12.0,0.0
6036,81.0,0,390,0.0,0.0
6037,84.0,144,240,10.0,0.0
6038,80.0,240,240,10.0,0.0
6039,81.0,192,240,10.0,0.0
6040,74.0,432,180,10.0,0.0
6041,75.0,0,720,10.0,0.0
6042,50.0,0,480,3.0,0.0
6043,78.0,0,480,0.0,0.0
6044,63.0,0,390,12.0,0.0
6045,60.0,96,390,12.0,0.0
6046,72.0,144,720,11.0,0.0
6047,54.0,240,480,3.0,0.0
6048,43.0,96,390,13.0,0.0
6049,87.0,0,480,0.0,0.0
6050,31.0,0,390,14.0,0.0
6051,63.0,0,390,3.0,0.0
6052,60.0,0,390,3.0,0.0
6053,84.0,240,480,0.0,0.0
6054,73.0,0,240,10.0,0.0
6055,69.0,0,240,11.0,0.0
6056,58.0,96,390,12.0,0.0
6057,62.0,0,390,12.0,0.0
6058,74.0,144,240,10.0,0.0
6059,70.0,0,240,11.0,0.0
6060,86.0,0,390,0.0,0.0
6061,58.0,0,390,3.0,0.0
6062,62.0,0,390,3.0,0.0
6063,82.0,0,390,0.0,0.0
6064,66.0,240,240,11.0,0.0
6065,69.0,0,240,10.0,0.0
6066,70.0,0,240,10.0,0.0
6067,67.0,240,240,11.0,0.0
6068,66.0,240,240,10.0,0.0
6069,60.0,0,240,11.0,0.0
6070,63.0,0,390,12.0,0.0
6071,55.0,48,390,12.0,0.0
6072,58.0,0,240,11.0,0.0
6073,91.0,0,480,0.0,0.0
6074,87.0,0,480,0.0,0.0
6075,79.0,240,480,1.0,0.0
6076,67.0,144,240,10.0,0.0
6077,75.0,0,480,1.0,0.0
6078,57.0,48,180,11.0,0.0
6079,62.0,0,180,10.0,0.0
6080,51.0,96,390,13.0,0.0
6081,89.0,0,480,0.0,0.0
6082,82.0,0,480,0.0,0.0
6083,70.0,0,480,1.0,0.0
6084,77.0,0,480,1.0,0.0
6085,39.0,0,390,14.0,0.0
6086,55.0,144,240,11.0,0.0
6087,63.0,0,240,10.0,0.0
6088,65.0,0,240,10.0,0.0
6089,58.0,240,240,11.0,0.0
6090,67.0,144,240,10.0,0.0
6091,63.0,0,240,11.0,0.0
6092,79.0,0,390,0.0,0.0
6093,67.0,0,390,1.0,0.0
6094,75.0,96,390,1.0,0.0
6095,87.0,0,390,0.0,0.0
6096,67.0,0,390,12.0,0.0
6097,58.0,0,390,12.0,0.0
6098,70.0,240,240,10.0,0.0
6099,65.0,0,240,11.0,0.0
6100,67.0,240,240,11.0,0.0
6101,75.0,0,240,2.0,0.0
6102,75.0,0,240,10.0,0.0
6103,79.0,0,240,2.0,0.0
6104,70.0,240,240,2.0,0.0
6105,77.0,0,240,2.0,0.0
6106,75.0,0,240,2.0,0.0
6107,67.0,144,240,2.0,0.0
6108,79.0,0,480,0.0,0.0
6109,58.0,96,390,12.0,0.0
6110,55.0,0,480,3.0,0.0
6111,67.0,0,390,12.0,0.0
6112,75.0,192,480,0.0,0.0
6113,51.0,0,480,3.0,0.0
6114,69.0,0,240,2.0,0.0
6115,72.0,0,240,2.0,0.0
6116,74.0,0,240,10.0,0.0
6117,46.0,96,390,13.0,0.0
6118,58.0,0,480,3.0,0.0
6119,70.0,144,240,11.0,0.0
6120,74.0,48,180,2.0,0.0
6121,34.0,0,390,14.0,0.0
6122,46.0,0,480,3.0,0.0
6123,70.0,0,180,2.0,0.0
6124,82.0,0,480,0.0,0.0
6125,74.0,0,480,0.0,0.0
6126,72.0,240,240,10.0,0.0
6127,65.0,0,240,11.0,0.0
6128,62.0,0,240,11.0,0.0
6129,86.0,96,390,0.0,0.0
6130,77.0,0,390,0.0,0.0
6131,65.0,0,390,12.0,0.0
6132,62.0,0,390,12.0,0.0
6133,70.0,144,240,10.0,0.0
6134,62.0,0,390,3.0,0.0
6135,58.0,0,390,3.0,0.0
6136,60.0,240,240,11.0,0.0
6137,65.0,0,240,10.0,0.0
6138,58.0,0,240,2.0,0.0
6139,61.0,0,240,10.0,0.0
6140,58.0,240,240,11.0,0.0
6141,61.0,0,240,2.0,0.0
6142,65.0,0,240,2.0,0.0
6143,60.0,240,240,2.0,0.0
6144,85.0,0,480,0.0,0.0
6145,65.0,96,390,12.0,0.0
6146,61.0,0,390,12.0,0.0
6147,89.0,192,480,0.0,0.0
6148,65.0,0,480,3.0,0.0
6149,61.0,0,480,3.0,0.0
6150,61.0,144,240,2.0,0.0
6151,70.0,0,240,2.0,0.0
6152,72.0,0,240,2.0,0.0
6153,65.0,0,240,2.0,0.0
6154,73.0,144,240,10.0,0.0
6155,37.0,0,390,14.0,0.0
6156,65.0,0,240,11.0,0.0
6157,56.0,0,480,3.0,0.0
6158,87.0,0,480,0.0,0.0
6159,49.0,96,390,13.0,0.0
6160,63.0,0,480,3.0,0.0
6161,68.0,48,180,2.0,0.0
6162,73.0,0,180,2.0,0.0
6163,80.0,0,480,0.0,0.0
6164,68.0,0,240,11.0,0.0
6165,75.0,240,240,10.0,0.0
6166,56.0,0,390,12.0,0.0
6167,65.0,0,390,12.0,0.0
6168,85.0,0,390,0.0,0.0
6169,77.0,96,390,0.0,0.0
6170,73.0,0,240,11.0,0.0
6171,53.0,0,390,3.0,0.0
6172,61.0,0,390,3.0,0.0
6173,77.0,144,240,10.0,0.0
6174,75.0,192,240,11.0,0.0
6175,80.0,0,240,10.0,0.0
6176,77.0,240,240,2.0,0.0
6177,73.0,0,240,2.0,0.0
6178,85.0,48,180,10.0,0.0
6179,77.0,0,180,11.0,0.0
6180,75.0,240,240,2.0,0.0
6181,68.0,0,240,2.0,0.0
6182,73.0,0,480,0.0,0.0
6183,56.0,0,390,12.0,0.0
6184,53.0,0,480,3.0,0.0
6185,65.0,0,240,2.0,0.0
6186,73.0,144,240,2.0,0.0
6187,77.0,0,480,0.0,0.0
6188,65.0,96,390,12.0,0.0
6189,73.0,0,480,1.0,0.0
6190,65.0,0,480,1.0,0.0
6191,49.0,0,480,3.0,0.0
6192,70.0,192,240,2.0,0.0
6193,67.0,0,240,2.0,0.0
6194,68.0,0,480,1.0,0.0
6195,68.0,144,240,11.0,0.0
6196,44.0,0,480,3.0,0.0
6197,72.0,0,180,2.0,0.0
6198,44.0,0,390,13.0,0.0
6199,32.0,96,390,14.0,0.0
6200,72.0,0,480,0.0,0.0
6201,80.0,0,480,0.0,0.0
6202,68.0,48,180,2.0,0.0
6203,72.0,0,240,10.0,0.0
6204,72.0,0,480,1.0,0.0
6205,70.0,240,240,10.0,0.0
6206,63.0,0,240,11.0,0.0
6207,60.0,0,390,12.0,0.0
6208,63.0,96,390,12.0,0.0
6209,60.0,144,240,11.0,0.0
6210,75.0,0,390,0.0,0.0
6211,84.0,0,390,0.0,0.0
6212,56.0,0,15,3.0,0.0
6213,60.0,0,390,3.0,0.0
6214,68.0,0,240,10.0,0.0
6215,72.0,0,390,1.0,0.0
6216,75.0,0,390,1.0,0.0
6217,63.0,192,240,10.0,0.0
6218,58.0,0,240,11.0,0.0
6219,56.0,48,180,11.0,0.0
6220,60.0,0,180,10.0,0.0
6221,60.0,240,240,2.0,0.0
6222,56.0,0,240,2.0,0.0
6223,63.0,240,240,2.0,0.0
6224,58.0,0,240,2.0,0.0
6225,63.0,0,480,3.0,0.0
6226,60.0,240,240,2.0,0.0
6227,68.0,0,240,2.0,0.0
6228,87.0,0,480,0.0,0.0
6229,72.0,0,240,2.0,0.0
6230,68.0,240,240,2.0,0.0
6231,73.0,0,240,10.0,0.0
6232,51.0,96,390,3.0,0.0
6233,70.0,144,240,11.0,0.0
6234,75.0,144,1200,2.0,0.0
6235,75.0,0,390,0.0,0.0
6236,51.0,144,1530,13.0,0.0
6237,67.0,240,960,12.0,0.0
6238,39.0,0,1530,14.0,0.0
6239,72.0,240,240,10.0,0.0
6240,69.0,0,240,11.0,0.0
6241,70.0,240,240,11.0,0.0
6242,73.0,0,240,10.0,0.0
6243,70.0,0,240,10.0,0.0
6244,67.0,0,240,11.0,0.0
6245,72.0,96,390,10.0,0.0
6246,68.0,0,390,11.0,0.0
6247,63.0,0,390,12.0,0.0
6248,74.0,96,240,2.0,0.0
6249,75.0,192,240,2.0,0.0
6250,72.0,288,180,2.0,0.0
6251,70.0,240,240,10.0,0.0
6252,39.0,0,1530,14.0,0.0
6253,67.0,0,960,12.0,0.0
6254,51.0,144,1530,13.0,0.0
6255,63.0,144,1200,3.0,0.0
6256,87.0,0,1200,0.0,0.0
6257,61.0,0,240,11.0,0.0
6258,69.0,240,240,10.0,0.0
6259,60.0,0,240,11.0,0.0
6260,61.0,0,240,11.0,0.0
6261,70.0,240,240,10.0,0.0
6262,67.0,240,240,10.0,0.0
6263,58.0,0,240,11.0,0.0
6264,60.0,0,390,11.0,0.0
6265,68.0,0,390,10.0,0.0
6266,63.0,96,390,12.0,0.0
6267,62.0,0,240,3.0,0.0
6268,86.0,96,240,0.0,0.0
6269,63.0,192,240,3.0,0.0
6270,87.0,0,240,0.0,0.0
6271,84.0,288,180,0.0,0.0
6272,60.0,0,180,3.0,0.0
6273,75.0,240,720,1.0,0.0
6274,58.0,240,960,13.0,0.0
6275,37.0,0,960,14.0,0.0
6276,49.0,0,960,13.0,0.0
6277,70.0,240,240,11.0,0.0
6278,55.0,0,240,12.0,0.0
6279,58.0,240,240,12.0,0.0
6280,67.0,0,240,11.0,0.0
6281,70.0,0,240,11.0,0.0
6282,55.0,0,240,12.0,0.0
6283,67.0,0,240,11.0,0.0
6284,74.0,0,240,1.0,0.0
6285,58.0,0,240,12.0,0.0
6286,51.0,192,240,12.0,0.0
6287,36.0,0,960,14.0,0.0
6288,68.0,0,240,11.0,0.0
6289,48.0,0,960,13.0,0.0
6290,56.0,0,960,13.0,0.0
6291,75.0,0,240,1.0,0.0
6292,63.0,240,240,11.0,0.0
6293,72.0,48,180,1.0,0.0
6294,56.0,0,240,12.0,0.0
6295,51.0,240,240,12.0,0.0
6296,68.0,0,240,11.0,0.0
6297,87.0,0,720,10.0,0.0
6298,63.0,240,240,11.0,0.0
6299,56.0,0,240,12.0,0.0
6300,87.0,0,720,0.0,0.0
6301,51.0,0,240,12.0,0.0
6302,63.0,0,720,3.0,0.0
6303,46.0,240,960,13.0,0.0
6304,75.0,0,720,1.0,0.0
6305,54.0,0,960,13.0,0.0
6306,66.0,240,240,11.0,0.0
6307,34.0,0,960,14.0,0.0
6308,60.0,240,240,12.0,0.0
6309,63.0,0,240,11.0,0.0
6310,86.0,0,240,10.0,0.0
6311,66.0,0,240,11.0,0.0
6312,51.0,0,240,12.0,0.0
6313,87.0,192,240,10.0,0.0
6314,74.0,0,240,1.0,0.0
6315,84.0,48,180,10.0,0.0
6316,63.0,0,240,11.0,0.0
6317,62.0,0,240,3.0,0.0
6318,86.0,0,240,0.0,0.0
6319,60.0,0,240,12.0,0.0
6320,63.0,0,240,3.0,0.0
6321,53.0,48,390,12.0,0.0
6322,65.0,0,390,11.0,0.0
6323,75.0,0,240,1.0,0.0
6324,87.0,144,240,0.0,0.0
6325,33.0,0,780,14.0,0.0
6326,53.0,0,780,13.0,0.0
6327,45.0,24,780,13.0,0.0
6328,72.0,0,180,1.0,0.0
6329,84.0,0,180,0.0,0.0
6330,60.0,336,180,3.0,0.0
6331,73.0,0,300,12.0,0.0
6332,89.0,0,300,10.0,0.0
6333,65.0,360,300,12.0,0.0
6334,65.0,120,660,5.0,0.0
6335,85.0,0,300,11.0,0.0
6336,84.0,0,300,11.0,0.0
6337,72.0,0,300,12.0,0.0
6338,75.0,120,300,12.0,0.0
6339,87.0,0,300,10.0,0.0
6340,64.0,360,180,5.0,0.0
6341,82.0,0,300,11.0,0.0
6342,89.0,216,570,0.0,0.0
6343,34.0,0,300,14.0,0.0
6344,77.0,0,570,1.0,0.0
6345,85.0,0,300,10.0,0.0
6346,65.0,0,300,3.0,0.0
6347,46.0,0,300,13.0,0.0
6348,77.0,72,300,12.0,0.0
6349,65.0,192,390,5.0,0.0
6350,73.0,0,300,12.0,0.0
6351,61.0,0,300,3.0,0.0
6352,69.0,0,300,12.0,0.0
6353,63.0,120,300,3.0,0.0
6354,57.0,0,300,3.0,0.0
6355,36.0,0,300,14.0,0.0
6356,75.0,0,300,12.0,0.0
6357,48.0,0,300,13.0,0.0
6358,78.0,0,180,1.0,0.0
6359,90.0,360,180,0.0,0.0
6360,58.0,0,300,3.0,0.0
6361,73.0,0,300,12.0,0.0
6362,70.0,0,300,12.0,0.0
6363,37.0,0,300,14.0,0.0
6364,58.0,120,660,5.0,0.0
6365,49.0,0,300,13.0,0.0
6366,89.0,0,390,0.0,0.0
6367,77.0,288,390,1.0,0.0
6368,82.0,72,300,10.0,0.0
6369,77.0,0,300,11.0,0.0
6370,65.0,0,300,11.0,0.0
6371,61.0,0,300,3.0,0.0
6372,77.0,0,300,11.0,0.0
6373,80.0,120,300,11.0,0.0
6374,92.0,0,300,10.0,0.0
6375,57.0,360,180,5.0,0.0
6376,58.0,0,300,3.0,0.0
6377,39.0,0,300,14.0,0.0
6378,75.0,0,300,11.0,0.0
6379,78.0,72,300,11.0,0.0
6380,51.0,0,300,13.0,0.0
6381,82.0,216,570,0.0,0.0
6382,70.0,0,300,12.0,0.0
6383,90.0,0,300,10.0,0.0
6384,70.0,0,570,1.0,0.0
6385,82.0,0,570,1.0,0.0
6386,58.0,192,390,5.0,0.0
6387,66.0,0,300,12.0,0.0
6388,80.0,120,300,12.0,0.0
6389,62.0,0,300,12.0,0.0
6390,62.0,0,300,3.0,0.0
6391,68.0,0,300,3.0,0.0
6392,53.0,0,300,13.0,0.0
6393,41.0,0,300,14.0,0.0
6394,83.0,0,180,1.0,0.0
6395,71.0,0,180,1.0,0.0
6396,83.0,360,180,0.0,0.0
6397,87.0,0,300,10.0,0.0
6398,70.0,0,300,11.0,0.0
6399,82.0,288,390,0.0,0.0
6400,42.0,0,300,14.0,0.0
6401,78.0,0,300,12.0,0.0
6402,63.0,120,660,5.0,0.0
6403,66.0,72,300,3.0,0.0
6404,75.0,0,300,11.0,0.0
6405,63.0,0,300,3.0,0.0
6406,82.0,0,390,1.0,0.0
6407,70.0,0,390,1.0,0.0
6408,54.0,0,300,13.0,0.0
6409,63.0,0,300,12.0,0.0
6410,85.0,120,300,10.0,0.0
6411,82.0,0,300,11.0,0.0
6412,73.0,0,300,11.0,0.0
6413,62.0,360,180,5.0,0.0
6414,80.0,0,300,11.0,0.0
6415,44.0,0,300,14.0,0.0
6416,63.0,192,390,5.0,0.0
6417,75.0,216,570,1.0,0.0
6418,60.0,0,300,3.0,0.0
6419,63.0,0,300,3.0,0.0
6420,72.0,0,300,11.0,0.0
6421,75.0,0,300,12.0,0.0
6422,72.0,0,300,12.0,0.0
6423,87.0,0,570,0.0,0.0
6424,84.0,0,300,10.0,0.0
6425,56.0,72,300,13.0,0.0
6426,61.0,0,300,3.0,0.0
6427,46.0,0,300,14.0,0.0
6428,55.0,0,300,3.0,0.0
6429,67.0,0,300,12.0,0.0
6430,58.0,120,300,13.0,0.0
6431,73.0,0,300,12.0,0.0
6432,76.0,0,180,1.0,0.0
6433,88.0,360,180,0.0,0.0
6434,48.0,0,300,14.0,0.0
6435,60.0,0,300,3.0,0.0
6436,75.0,0,300,11.0,0.0
6437,68.0,0,300,11.0,0.0
6438,80.0,0,300,10.0,0.0
6439,60.0,72,300,13.0,0.0
6440,75.0,0,390,1.0,0.0
6441,87.0,288,390,0.0,0.0
6442,56.0,0,300,3.0,0.0
6443,68.0,0,300,12.0,0.0
6444,68.0,120,660,5.0,0.0
6445,72.0,0,300,12.0,0.0
6446,87.0,0,300,11.0,0.0
6447,90.0,120,300,10.0,0.0
6448,78.0,0,300,11.0,0.0
6449,67.0,360,180,5.0,0.0
6450,68.0,72,300,12.0,0.0
6451,68.0,408,390,5.0,0.0
6452,49.0,0,300,14.0,0.0
6453,65.0,0,300,12.0,0.0
6454,77.0,0,300,11.0,0.0
6455,80.0,0,300,1.0,0.0
6456,61.0,0,300,13.0,0.0
6457,89.0,0,300,10.0,0.0
6458,56.0,0,300,3.0,0.0
6459,80.0,0,300,0.0,0.0
6460,85.0,0,300,11.0,0.0
6461,92.0,0,300,0.0,0.0
6462,78.0,0,300,1.0,0.0
6463,51.0,0,300,14.0,0.0
6464,78.0,72,300,12.0,0.0
6465,66.0,0,300,3.0,0.0
6466,63.0,0,300,13.0,0.0
6467,90.0,0,300,0.0,0.0
6468,66.0,408,390,5.0,0.0
6469,72.0,0,300,12.0,0.0
6470,60.0,0,300,3.0,0.0
6471,78.0,0,300,0.0,0.0
6472,77.0,204,630,0.0,0.0
6473,53.0,0,300,14.0,0.0
6474,65.0,0,300,3.0,0.0
6475,81.0,0,300,10.0,0.0
6476,57.0,0,300,3.0,0.0
6477,72.0,0,300,11.0,0.0
6478,65.0,0,300,13.0,0.0
6479,65.0,252,390,5.0,0.0
6480,77.0,0,630,1.0,0.0
6481,89.0,0,630,0.0,0.0
6482,77.0,0,300,12.0,0.0
6483,69.0,0,300,12.0,0.0
6484,69.0,72,300,11.0,0.0
6485,51.0,36,360,14.0,0.0
6486,63.0,0,360,13.0,0.0
6487,88.0,396,150,0.0,0.0
6488,76.0,0,150,0.0,0.0
6489,76.0,0,150,1.0,0.0
6490,65.0,0,300,12.0,0.0
6491,77.0,0,300,12.0,0.0
6492,82.0,0,360,10.0,0.0
6493,77.0,0,570,2.0,0.0
6494,61.0,216,360,13.0,0.0
6495,65.0,216,570,3.0,0.0
6496,65.0,0,360,5.0,0.0
6497,49.0,0,360,14.0,0.0
6498,77.0,0,300,0.0,0.0
6499,89.0,48,300,0.0,0.0
6500,77.0,0,300,1.0,0.0
6501,70.0,0,300,11.0,0.0
6502,63.0,48,300,12.0,0.0
6503,84.0,72,360,10.0,0.0
6504,69.0,0,300,11.0,0.0
6505,63.0,0,360,5.0,0.0
6506,72.0,0,300,11.0,0.0
6507,75.0,0,300,12.0,0.0
6508,78.0,360,180,2.0,0.0
6509,66.0,0,180,3.0,0.0
6510,82.0,168,660,0.0,0.0
6511,46.0,0,360,14.0,0.0
6512,61.0,0,360,5.0,0.0
6513,85.0,0,360,10.0,0.0
6514,82.0,0,660,1.0,0.0
6515,58.0,24,360,13.0,0.0
6516,65.0,288,390,3.0,0.0
6517,77.0,0,390,2.0,0.0
6518,70.0,0,300,11.0,0.0
6519,73.0,48,300,11.0,0.0
6520,61.0,0,300,12.0,0.0
6521,70.0,0,660,1.0,0.0
6522,73.0,0,300,12.0,0.0
6523,56.0,0,360,14.0,0.0
6524,68.0,72,360,13.0,0.0
6525,69.0,0,180,1.0,0.0
6526,81.0,360,180,0.0,0.0
6527,81.0,0,180,1.0,0.0
6528,54.0,0,360,14.0,0.0
6529,58.0,216,570,3.0,0.0
6530,58.0,0,360,5.0,0.0
6531,82.0,0,390,0.0,0.0
6532,70.0,0,570,2.0,0.0
6533,82.0,0,570,2.0,0.0
6534,70.0,48,300,11.0,0.0
6535,66.0,0,360,13.0,0.0
6536,58.0,0,300,12.0,0.0
6537,82.0,0,390,1.0,0.0
6538,70.0,192,390,1.0,0.0
6539,70.0,0,300,12.0,0.0
6540,87.0,24,360,10.0,0.0
6541,75.0,0,300,11.0,0.0
6542,68.0,0,300,12.0,0.0
6543,68.0,72,360,5.0,0.0
6544,77.0,0,300,11.0,0.0
6545,74.0,0,300,11.0,0.0
6546,80.0,48,300,12.0,0.0
6547,89.0,0,360,10.0,0.0
6548,84.0,360,180,2.0,0.0
6549,60.0,0,180,3.0,0.0
6550,72.0,0,180,2.0,0.0
6551,66.0,0,300,12.0,0.0
6552,66.0,0,360,5.0,0.0
6553,75.0,168,660,1.0,0.0
6554,78.0,0,300,12.0,0.0
6555,58.0,0,390,3.0,0.0
6556,75.0,0,660,0.0,0.0
6557,75.0,48,300,11.0,0.0
6558,78.0,0,300,11.0,0.0
6559,70.0,288,390,2.0,0.0
6560,82.0,0,390,2.0,0.0
6561,63.0,0,360,13.0,0.0
6562,87.0,0,660,0.0,0.0
6563,90.0,24,360,10.0,0.0
6564,51.0,0,360,14.0,0.0
6565,49.0,0,360,14.0,0.0
6566,61.0,72,360,13.0,0.0
6567,86.0,0,180,0.0,0.0
6568,74.0,0,180,0.0,0.0
6569,74.0,360,180,1.0,0.0
6570,63.0,0,360,5.0,0.0
6571,75.0,0,390,1.0,0.0
6572,68.0,48,300,11.0,0.0
6573,63.0,216,570,3.0,0.0
6574,75.0,0,570,2.0,0.0
6575,75.0,0,300,12.0,0.0
6576,63.0,0,300,12.0,0.0
6577,87.0,0,390,0.0,0.0
6578,75.0,192,390,0.0,0.0
6579,60.0,24,360,13.0,0.0
6580,48.0,0,360,14.0,0.0
6581,63.0,0,300,11.0,0.0
6582,80.0,0,360,10.0,0.0
6583,61.0,0,300,12.0,0.0
6584,73.0,0,300,12.0,0.0
6585,70.0,0,300,11.0,0.0
6586,61.0,72,360,5.0,0.0
6587,82.0,0,360,10.0,0.0
6588,67.0,48,300,11.0,0.0
6589,64.0,0,180,3.0,0.0
6590,76.0,360,180,2.0,0.0
6591,44.0,0,360,14.0,0.0
6592,84.0,0,360,10.0,0.0
6593,80.0,168,660,0.0,0.0
6594,60.0,24,360,5.0,0.0
6595,63.0,288,390,3.0,0.0
6596,80.0,0,660,1.0,0.0
6597,68.0,0,660,1.0,0.0
6598,72.0,0,300,11.0,0.0
6599,75.0,0,390,2.0,0.0
6600,60.0,48,300,12.0,0.0
6601,72.0,0,300,12.0,0.0
6602,56.0,0,360,13.0,0.0
6603,68.0,0,300,11.0,0.0
6604,66.0,0,360,13.0,0.0
6605,54.0,72,360,14.0,0.0
6606,79.0,0,180,1.0,0.0
6607,79.0,0,180,0.0,0.0
6608,67.0,360,180,1.0,0.0
6609,68.0,0,300,12.0,0.0
6610,56.0,0,300,12.0,0.0
6611,73.0,48,300,11.0,0.0
6612,80.0,408,390,0.0,0.0
6613,68.0,0,300,11.0,0.0
6614,53.0,24,360,14.0,0.0
6615,80.0,0,390,1.0,0.0
6616,85.0,0,360,10.0,0.0
6617,61.0,0,360,5.0,0.0
6618,65.0,0,360,13.0,0.0
6619,87.0,432,360,10.0,0.0
6620,72.0,0,300,11.0,0.0
6621,78.0,0,300,12.0,0.0
6622,66.0,0,300,12.0,0.0
6623,66.0,0,360,5.0,0.0
6624,75.0,48,300,11.0,0.0
6625,41.0,480,360,14.0,0.0
6626,89.0,0,360,0.0,0.0
6627,65.0,0,360,2.0,0.0
6628,65.0,0,360,3.0,0.0
6629,53.0,0,360,3.0,0.0
6630,77.0,0,360,1.0,0.0
6631,53.0,0,360,13.0,0.0
6632,89.0,0,360,10.0,0.0
6633,65.0,0,360,5.0,0.0
6634,77.0,0,360,2.0,0.0
6635,77.0,48,300,11.0,0.0
6636,73.0,0,300,11.0,0.0
6637,77.0,0,300,12.0,0.0
6638,65.0,0,300,12.0,0.0
6639,57.0,408,390,3.0,0.0
6640,65.0,0,360,5.0,0.0
6641,60.0,0,390,3.0,0.0
6642,51.0,24,360,14.0,0.0
6643,69.0,0,360,2.0,0.0
6644,69.0,0,360,1.0,0.0
6645,63.0,0,360,13.0,0.0
6646,81.0,0,360,1.0,0.0
6647,81.0,0,360,0.0,0.0
6648,82.0,0,360,0.0,0.0
6649,65.0,24,360,5.0,0.0
6650,65.0,0,300,11.0,0.0
6651,61.0,408,390,3.0,0.0
6652,58.0,0,390,3.0,0.0
6653,70.0,0,300,11.0,0.0
6654,53.0,0,300,12.0,0.0
6655,65.0,48,300,12.0,0.0
6656,82.0,0,360,1.0,0.0
6657,49.0,0,360,14.0,0.0
6658,70.0,0,360,1.0,0.0
6659,61.0,0,360,13.0,0.0
6660,82.0,0,360,10.0,0.0
6661,70.0,0,360,2.0,0.0
6662,63.0,48,300,12.0,0.0
6663,72.0,0,300,11.0,0.0
6664,69.0,0,300,11.0,0.0
6665,75.0,0,300,12.0,0.0
6666,84.0,432,360,10.0,0.0
6667,70.0,48,300,11.0,0.0
6668,49.0,0,360,13.0,0.0
6669,49.0,24,360,3.0,0.0
6670,61.0,0,360,3.0,0.0
6671,73.0,0,300,11.0,0.0
6672,37.0,0,360,14.0,0.0
6673,61.0,456,390,5.0,0.0
6674,73.0,0,360,2.0,0.0
6675,85.0,0,360,10.0,0.0
6676,73.0,0,300,12.0,0.0
6677,61.0,0,300,12.0,0.0
6678,85.0,0,360,0.0,0.0
6679,85.0,0,360,1.0,0.0
6680,73.0,0,360,1.0,0.0
6681,77.0,0,360,2.0,0.0
6682,61.0,408,390,5.0,0.0
6683,65.0,0,360,2.0,0.0
6684,77.0,0,360,0.0,0.0
6685,77.0,0,360,1.0,0.0
6686,53.0,0,360,3.0,0.0
6687,56.0,0,360,3.0,0.0
6688,59.0,24,360,13.0,0.0
6689,47.0,0,360,14.0,0.0
6690,46.0,0,360,14.0,0.0
6691,78.0,0,360,1.0,0.0
6692,61.0,408,390,5.0,0.0
6693,78.0,0,360,0.0,0.0
6694,78.0,0,360,2.0,0.0
6695,66.0,0,300,11.0,0.0
6696,66.0,0,360,2.0,0.0
6697,78.0,24,360,10.0,0.0
6698,58.0,0,360,3.0,0.0
6699,61.0,0,300,12.0,0.0
6700,49.0,48,300,12.0,0.0
6701,58.0,0,360,13.0,0.0
6702,61.0,0,300,11.0,0.0
6703,54.0,0,360,3.0,0.0
6704,65.0,0,300,11.0,0.0
6705,80.0,432,360,10.0,0.0
6706,68.0,48,300,11.0,0.0
6707,59.0,0,300,12.0,0.0
6708,71.0,0,300,12.0,0.0
6709,70.0,0,300,11.0,0.0
6710,66.0,0,300,11.0,0.0
6711,46.0,0,360,14.0,0.0
6712,82.0,432,360,10.0,0.0
6713,58.0,0,360,13.0,0.0
6714,70.0,0,300,12.0,0.0
6715,58.0,48,300,12.0,0.0
6716,77.0,0,300,11.0,0.0
6717,50.0,0,360,13.0,0.0
6718,70.0,0,300,11.0,0.0
6719,80.0,0,300,11.0,0.0
6720,38.0,0,360,14.0,0.0
6721,58.0,48,300,12.0,0.0
6722,92.0,432,360,10.0,0.0
6723,65.0,0,300,12.0,0.0
6724,78.0,48,300,11.0,0.0
6725,75.0,0,300,11.0,0.0
6726,94.0,0,300,0.0,0.0
6727,39.0,0,360,14.0,0.0
6728,70.0,0,300,2.0,0.0
6729,82.0,0,300,1.0,0.0
6730,70.0,0,300,1.0,0.0
6731,58.0,24,360,5.0,0.0
6732,58.0,408,390,3.0,0.0
6733,70.0,0,300,11.0,0.0
6734,82.0,0,300,0.0,0.0
6735,82.0,0,300,2.0,0.0
6736,51.0,0,360,13.0,0.0
6737,66.0,0,300,12.0,0.0
6738,58.0,0,300,12.0,0.0
6739,90.0,0,360,10.0,0.0
6740,74.0,0,300,2.0,0.0
6741,70.0,48,300,1.0,0.0
6742,74.0,0,300,1.0,0.0
6743,68.0,24,360,5.0,0.0
6744,86.0,0,300,0.0,0.0
6745,68.0,408,390,3.0,0.0
6746,82.0,0,300,0.0,0.0
6747,65.0,0,390,3.0,0.0
6748,70.0,0,300,2.0,0.0
6749,70.0,0,300,12.0,0.0
6750,42.0,0,360,14.0,0.0
6751,54.0,0,360,13.0,0.0
6752,87.0,48,300,0.0,0.0
6753,82.0,0,300,0.0,0.0
6754,75.0,0,300,1.0,0.0
6755,75.0,0,300,2.0,0.0
6756,70.0,0,300,2.0,0.0
6757,66.0,0,360,5.0,0.0
6758,63.0,408,390,3.0,0.0
6759,58.0,0,300,12.0,0.0
6760,66.0,0,300,11.0,0.0
6761,78.0,24,360,10.0,0.0
6762,75.0,0,300,11.0,0.0
6763,70.0,0,300,1.0,0.0
6764,66.0,0,390,3.0,0.0
6765,46.0,0,360,13.0,0.0
6766,34.0,432,360,14.0,0.0
6767,66.0,0,300,11.0,0.0
6768,76.0,0,300,11.0,0.0
6769,73.0,0,300,11.0,0.0
6770,88.0,0,360,10.0,0.0
6771,73.0,0,300,12.0,0.0
6772,66.0,48,300,12.0,0.0
6773,66.0,0,360,4.0,0.0
6774,54.0,0,360,5.0,0.0
6775,66.0,0,390,3.0,0.0
6776,71.0,0,300,11.0,0.0
6777,66.0,48,300,2.0,0.0
6778,87.0,0,360,10.0,0.0
6779,66.0,0,300,11.0,0.0
6780,54.0,408,390,3.0,0.0
6781,78.0,0,360,6.0,0.0
6782,75.0,0,300,11.0,0.0
6783,35.0,0,360,14.0,0.0
6784,78.0,0,300,2.0,0.0
6785,75.0,0,300,12.0,0.0
6786,78.0,0,300,0.0,0.0
6787,47.0,24,360,13.0,0.0
6788,78.0,0,300,1.0,0.0
6789,90.0,0,300,0.0,0.0
6790,66.0,0,300,1.0,0.0
6791,66.0,0,300,12.0,0.0
6792,61.0,0,390,3.0,0.0
6793,64.0,408,390,3.0,0.0
6794,70.0,0,300,2.0,0.0
6795,78.0,0,360,6.0,0.0
6796,78.0,48,300,0.0,0.0
6797,70.0,0,300,1.0,0.0
6798,82.0,0,300,0.0,0.0
6799,64.0,24,360,5.0,0.0
6800,66.0,0,360,4.0,0.0
6801,71.0,0,300,1.0,0.0
6802,78.0,0,360,6.0,0.0
6803,63.0,0,390,3.0,0.0
6804,59.0,408,390,3.0,0.0
6805,54.0,0,360,13.0,0.0
6806,71.0,48,300,2.0,0.0
6807,66.0,24,360,4.0,0.0
6808,66.0,0,300,11.0,0.0
6809,63.0,0,360,5.0,0.0
6810,75.0,0,300,11.0,0.0
6811,42.0,0,360,14.0,0.0
6812,66.0,0,300,12.0,0.0
6813,78.0,0,300,0.0,0.0
6814,83.0,0,300,0.0,0.0
6815,78.0,0,360,10.0,0.0
6816,75.0,0,300,12.0,0.0
6817,66.0,0,300,12.0,0.0
6818,73.0,48,300,12.0,0.0
6819,88.0,0,360,10.0,0.0
6820,73.0,0,300,11.0,0.0
6821,34.0,432,360,14.0,0.0
6822,66.0,0,300,11.0,0.0
6823,76.0,0,300,11.0,0.0
6824,46.0,0,360,13.0,0.0
6825,71.0,0,300,11.0,0.0
6826,54.0,0,360,5.0,0.0
6827,66.0,0,360,4.0,0.0
6828,66.0,48,300,1.0,0.0
6829,78.0,0,300,1.0,0.0
6830,66.0,0,300,11.0,0.0
6831,74.0,0,300,11.0,0.0
6832,74.0,0,300,12.0,0.0
6833,66.0,0,300,12.0,0.0
6834,66.0,408,390,3.0,0.0
6835,35.0,0,360,14.0,0.0
6836,90.0,0,300,0.0,0.0
6837,78.0,0,360,6.0,0.0
6838,78.0,0,300,2.0,0.0
6839,78.0,0,300,0.0,0.0
6840,54.0,0,390,3.0,0.0
6841,86.0,24,360,10.0,0.0
6842,47.0,0,360,13.0,0.0
6843,66.0,0,300,2.0,0.0
6844,70.0,0,300,1.0,0.0
6845,70.0,0,300,2.0,0.0
6846,82.0,0,300,0.0,0.0
6847,78.0,48,300,0.0,0.0
6848,78.0,24,360,6.0,0.0
6849,61.0,0,390,3.0,0.0
6850,66.0,0,360,4.0,0.0
6851,64.0,408,390,3.0,0.0
6852,64.0,0,360,5.0,0.0
6853,54.0,0,360,14.0,0.0
6854,71.0,0,300,1.0,0.0
6855,71.0,0,300,2.0,0.0
6856,78.0,0,360,10.0,0.0
6857,66.0,0,360,13.0,0.0
6858,59.0,0,390,3.0,0.0
6859,62.0,408,390,3.0,0.0
6860,62.0,24,360,5.0,0.0
6861,74.0,0,300,11.0,0.0
6862,83.0,0,300,0.0,0.0
6863,78.0,0,300,0.0,0.0
6864,66.0,0,300,11.0,0.0
6865,66.0,0,360,4.0,0.0
6866,78.0,0,360,6.0,0.0
6867,74.0,48,300,12.0,0.0
6868,66.0,0,300,12.0,0.0
6869,64.0,0,360,5.0,0.0
6870,54.0,0,360,13.0,0.0
6871,73.0,408,390,2.0,0.0
6872,76.0,0,390,2.0,0.0
6873,66.0,0,300,12.0,0.0
6874,70.0,0,300,12.0,0.0
6875,73.0,0,300,11.0,0.0
6876,42.0,24,360,14.0,0.0
6877,76.0,48,300,11.0,0.0
6878,88.0,0,360,10.0,0.0
6879,43.0,0,360,14.0,0.0
6880,55.0,0,390,3.0,0.0
6881,43.0,408,390,3.0,0.0
6882,74.0,0,390,2.0,0.0
6883,71.0,0,390,2.0,0.0
6884,74.0,0,300,11.0,0.0
6885,62.0,0,300,12.0,0.0
6886,71.0,0,300,11.0,0.0
6887,86.0,0,300,0.0,0.0
6888,83.0,48,300,1.0,0.0
6889,55.0,0,360,13.0,0.0
6890,74.0,0,300,1.0,0.0
6891,71.0,0,300,12.0,0.0
6892,62.0,24,360,5.0,0.0
6893,86.0,0,360,10.0,0.0
6894,59.0,0,360,4.0,0.0
6895,71.0,0,360,6.0,0.0
6896,83.0,0,300,0.0,0.0
6897,73.0,0,300,11.0,0.0
6898,64.0,0,360,5.0,0.0
6899,82.0,48,300,0.0,0.0
6900,61.0,0,360,4.0,0.0
6901,70.0,0,300,12.0,0.0
6902,38.0,24,360,14.0,0.0
6903,76.0,0,300,11.0,0.0
6904,38.0,408,390,3.0,0.0
6905,76.0,0,300,1.0,0.0
6906,82.0,0,300,1.0,0.0
6907,50.0,0,360,13.0,0.0
6908,88.0,0,360,10.0,0.0
6909,50.0,0,390,3.0,0.0
6910,85.0,0,300,0.0,0.0
6911,76.0,0,390,2.0,0.0
6912,78.0,0,360,6.0,0.0
6913,73.0,0,390,2.0,0.0
6914,66.0,0,300,12.0,0.0
6915,40.0,0,390,3.0,0.0
6916,52.0,0,390,3.0,0.0
6917,74.0,528,390,2.0,0.0
6918,83.0,0,300,0.0,0.0
6919,71.0,0,390,2.0,0.0
6920,67.0,0,300,12.0,0.0
6921,86.0,0,360,10.0,0.0
6922,71.0,0,300,12.0,0.0
6923,86.0,0,300,0.0,0.0
6924,40.0,24,360,14.0,0.0
6925,74.0,0,300,11.0,0.0
6926,52.0,0,360,13.0,0.0
6927,67.0,0,360,4.0,0.0
6928,59.0,0,360,4.0,0.0
6929,62.0,0,360,5.0,0.0
6930,71.0,0,360,6.0,0.0
6931,83.0,48,300,1.0,0.0
6932,74.0,0,300,1.0,0.0
6933,71.0,0,300,11.0,0.0
6934,83.0,0,870,11.0,0.0
6935,71.0,0,780,2.0,0.0
6936,85.0,0,900,10.0,0.0
6937,83.0,816,900,1.0,0.0
6938,71.0,0,870,12.0,0.0
6939,61.0,0,870,12.0,0.0
6940,54.0,0,870,13.0,0.0
6941,85.0,0,900,0.0,0.0
6942,73.0,0,900,1.0,0.0
6943,73.0,96,780,2.0,0.0
6944,78.0,0,870,6.0,0.0
6945,83.0,0,900,0.0,0.0
6946,42.0,0,870,14.0,0.0
6947,66.0,0,870,4.0,0.0
6948,73.0,48,870,11.0,0.0
6949,61.0,336,420,5.0,0.0
6950,42.0,0,780,3.0,0.0
6951,54.0,0,780,3.0,0.0
6952,76.0,96,900,1.0,0.0
6953,82.0,0,900,1.0,0.0
6954,42.0,96,780,3.0,0.0
6955,70.0,0,870,12.0,0.0
6956,85.0,0,900,10.0,0.0
6957,85.0,0,900,0.0,0.0
6958,82.0,0,900,0.0,0.0
6959,82.0,0,870,11.0,0.0
6960,73.0,0,870,11.0,0.0
6961,66.0,0,870,4.0,0.0
6962,70.0,0,780,2.0,0.0
6963,78.0,48,870,6.0,0.0
6964,42.0,0,870,13.0,0.0
6965,30.0,0,870,14.0,0.0
6966,73.0,0,780,2.0,0.0
6967,64.0,0,870,12.0,0.0
6968,83.0,0,300,10.0,0.0
6969,31.0,0,8070,14.0,0.0
6970,43.0,0,390,3.0,0.0
6971,74.0,0,300,1.0,0.0
6972,83.0,60,300,1.0,0.0
6973,83.0,0,300,0.0,0.0
6974,83.0,0,300,11.0,0.0
6975,71.0,0,390,6.0,0.0
6976,47.0,0,8070,4.0,0.0
6977,59.0,0,8070,4.0,0.0
6978,71.0,24,390,2.0,0.0
6979,55.0,0,8070,5.0,0.0
6980,71.0,0,300,12.0,0.0
6981,62.0,0,300,12.0,0.0
6982,47.0,60,40,7.0,0.0
6983,59.0,0,390,6.0,0.0
6984,71.0,0,300,11.0,0.0
6985,43.0,0,8070,5.0,0.0
6986,43.0,0,300,13.0,0.0
6987,47.0,60,40,7.0,0.0
6988,47.0,60,40,7.0,0.0
6989,47.0,60,40,7.0,0.0
6990,47.0,0,40,7.0,0.0
6991,47.0,36,40,7.0,0.0
6992,47.0,60,40,7.0,0.0
6993,47.0,60,40,7.0,0.0
6994,47.0,60,40,7.0,0.0
6995,47.0,60,40,7.0,0.0
6996,47.0,60,40,7.0,0.0
6997,47.0,60,40,7.0,0.0
6998,55.0,48,120,11.0,0.0
6999,47.0,60,40,7.0,0.0
7000,43.0,0,120,13.0,0.0
7001,47.0,12,40,7.0,0.0
7002,47.0,0,120,13.0,0.0
7003,59.0,48,120,11.0,0.0
7004,47.0,60,40,7.0,0.0
7005,47.0,12,40,7.0,0.0
7006,62.0,28,330,11.0,0.0
7007,50.0,0,330,13.0,0.0
7008,47.0,60,40,7.0,0.0
7009,47.0,60,40,7.0,0.0
7010,47.0,60,40,7.0,0.0
7011,47.0,60,40,7.0,0.0
7012,47.0,32,40,7.0,0.0
7013,47.0,60,40,7.0,0.0
7014,59.0,0,330,11.0,0.0
7015,47.0,8,330,13.0,0.0
7016,47.0,60,40,7.0,0.0
7017,47.0,60,40,7.0,0.0
7018,47.0,60,40,7.0,0.0
7019,47.0,52,40,7.0,0.0
7020,47.0,60,40,7.0,0.0
7021,51.0,48,330,13.0,0.0
7022,63.0,0,330,11.0,0.0
7023,47.0,60,40,7.0,0.0
7024,55.0,0,120,10.0,0.0
7025,67.0,48,120,12.0,0.0
7026,47.0,60,40,7.0,0.0
7027,47.0,12,40,7.0,0.0
7028,47.0,60,40,7.0,0.0
7029,59.0,0,120,10.0,0.0
7030,71.0,0,120,12.0,0.0
7031,47.0,12,40,7.0,0.0
7032,50.0,0,480,13.0,0.0
7033,62.0,48,480,11.0,0.0
7034,47.0,60,40,7.0,0.0
7035,74.0,28,330,12.0,0.0
7036,62.0,0,330,10.0,0.0
7037,47.0,60,40,7.0,0.0
7038,47.0,60,40,7.0,0.0
7039,47.0,60,40,7.0,0.0
7040,47.0,32,40,7.0,0.0
7041,47.0,60,40,7.0,0.0
7042,59.0,0,330,10.0,0.0
7043,71.0,8,330,12.0,0.0
7044,47.0,60,40,7.0,0.0
7045,47.0,12,40,7.0,0.0
7046,47.0,60,40,7.0,0.0
7047,47.0,52,40,7.0,0.0
7048,47.0,60,40,7.0,0.0
7049,75.0,48,330,12.0,0.0
7050,63.0,0,330,10.0,0.0
7051,47.0,60,40,7.0,0.0
7052,79.0,48,120,11.0,0.0
7053,55.0,0,120,13.0,0.0
7054,47.0,60,40,7.0,0.0
7055,47.0,12,40,7.0,0.0
7056,47.0,60,40,7.0,0.0
7057,83.0,0,120,11.0,0.0
7058,59.0,0,120,13.0,0.0
7059,47.0,12,40,7.0,0.0
7060,62.0,0,480,10.0,0.0
7061,74.0,48,480,12.0,0.0
7062,86.0,28,330,11.0,0.0
7063,62.0,0,330,13.0,0.0
7064,47.0,60,40,7.0,0.0
7065,47.0,60,40,7.0,0.0
7066,47.0,60,40,7.0,0.0
7067,47.0,60,40,7.0,0.0
7068,47.0,32,40,7.0,0.0
7069,47.0,60,40,7.0,0.0
7070,59.0,0,330,13.0,0.0
7071,83.0,8,330,11.0,0.0
7072,47.0,60,40,7.0,0.0
7073,47.0,12,40,7.0,0.0
7074,47.0,60,40,7.0,0.0
7075,47.0,52,40,7.0,0.0
7076,47.0,60,40,7.0,0.0
7077,87.0,0,330,11.0,0.0
7078,63.0,48,330,13.0,0.0
7079,47.0,60,40,7.0,0.0
7080,47.0,60,40,7.0,0.0
7081,47.0,60,40,7.0,0.0
7082,47.0,60,40,7.0,0.0
7083,47.0,12,40,7.0,0.0
7084,86.0,0,330,11.0,0.0
7085,47.0,60,40,7.0,0.0
7086,62.0,28,330,13.0,0.0
7087,47.0,60,40,7.0,0.0
7088,47.0,60,40,7.0,0.0
7089,47.0,60,40,7.0,0.0
7090,47.0,32,40,7.0,0.0
7091,47.0,60,40,7.0,0.0
7092,83.0,8,330,11.0,0.0
7093,59.0,0,330,13.0,0.0
7094,47.0,60,40,7.0,0.0
7095,47.0,60,40,7.0,0.0
7096,47.0,60,40,7.0,0.0
7097,47.0,52,40,7.0,0.0
7098,47.0,60,40,7.0,0.0
7099,79.0,48,330,11.0,0.0
7100,67.0,0,330,13.0,0.0
7101,91.0,0,330,10.0,0.0
7102,47.0,60,40,7.0,0.0
7103,47.0,60,40,7.0,0.0
7104,47.0,60,40,7.0,0.0
7105,47.0,60,40,7.0,0.0
7106,47.0,12,40,7.0,0.0
7107,87.0,0,330,10.0,0.0
7108,63.0,28,330,13.0,0.0
7109,47.0,60,40,7.0,0.0
7110,47.0,60,40,7.0,0.0
7111,47.0,60,40,7.0,0.0
7112,47.0,60,40,7.0,0.0
7113,47.0,32,40,7.0,0.0
7114,47.0,60,40,7.0,0.0
7115,62.0,0,330,13.0,0.0
7116,86.0,8,330,10.0,0.0
7117,47.0,60,40,7.0,0.0
7118,47.0,60,40,7.0,0.0
7119,47.0,60,40,7.0,0.0
7120,47.0,52,40,7.0,0.0
7121,47.0,60,40,7.0,0.0
7122,59.0,0,330,13.0,0.0
7123,67.0,48,330,12.0,0.0
7124,79.0,0,330,11.0,0.0
7125,83.0,0,330,10.0,0.0
7126,47.0,60,40,7.0,0.0
7127,47.0,60,40,7.0,0.0
7128,47.0,60,40,7.0,0.0
7129,47.0,60,40,7.0,0.0
7130,47.0,12,40,7.0,0.0
7131,55.0,0,330,13.0,0.0
7132,75.0,0,330,11.0,0.0
7133,63.0,28,330,12.0,0.0
7134,47.0,60,40,7.0,0.0
7135,79.0,0,330,10.0,0.0
7136,47.0,60,40,7.0,0.0
7137,47.0,60,40,7.0,0.0
7138,47.0,60,40,7.0,0.0
7139,47.0,32,40,7.0,0.0
7140,47.0,60,40,7.0,0.0
7141,74.0,8,330,11.0,0.0
7142,62.0,0,330,12.0,0.0
7143,47.0,60,40,7.0,0.0
7144,47.0,60,40,7.0,0.0
7145,47.0,60,40,7.0,0.0
7146,47.0,52,40,7.0,0.0
7147,47.0,60,40,7.0,0.0
7148,59.0,0,330,12.0,0.0
7149,55.0,0,330,13.0,0.0
7150,67.0,0,330,10.0,0.0
7151,71.0,48,330,11.0,0.0
7152,47.0,60,40,7.0,0.0
7153,47.0,60,40,7.0,0.0
7154,47.0,60,40,7.0,0.0
7155,47.0,60,40,7.0,0.0
7156,47.0,12,40,7.0,0.0
7157,47.0,60,40,7.0,0.0
7158,63.0,0,330,10.0,0.0
7159,55.0,0,480,12.0,0.0
7160,67.0,48,480,11.0,0.0
7161,51.0,28,330,13.0,0.0
7162,47.0,60,40,7.0,0.0
7163,47.0,60,40,7.0,0.0
7164,47.0,60,40,7.0,0.0
7165,47.0,32,40,7.0,0.0
7166,47.0,60,40,7.0,0.0
7167,50.0,0,330,13.0,0.0
7168,62.0,8,330,10.0,0.0
7169,47.0,60,40,7.0,0.0
7170,47.0,12,40,7.0,0.0
7171,47.0,60,40,7.0,0.0
7172,47.0,52,40,7.0,0.0
7173,47.0,60,40,7.0,0.0
7174,59.0,384,330,10.0,0.0
7175,47.0,0,330,13.0,0.0
7176,47.0,60,40,7.0,0.0
7177,47.0,60,40,7.0,0.0
7178,47.0,60,40,7.0,0.0
7179,47.0,60,40,7.0,0.0
7180,47.0,12,40,7.0,0.0
7181,43.0,0,480,13.0,0.0
7182,47.0,96,390,7.0,0.0
7183,55.0,360,480,10.0,0.0
7184,41.0,0,120,3.0,0.0
7185,65.0,120,120,0.0,0.0
7186,53.0,0,120,2.0,0.0
7187,65.0,0,120,2.0,0.0
7188,53.0,0,120,3.0,0.0
7189,57.0,912,120,2.0,0.0
7190,69.0,0,120,2.0,0.0
7191,45.0,0,120,3.0,0.0
7192,57.0,0,120,3.0,0.0
7193,69.0,0,120,0.0,0.0
7194,72.0,0,900,0.0,0.0
7195,48.0,0,900,3.0,0.0
7196,60.0,0,900,3.0,0.0
7197,60.0,888,900,2.0,0.0
7198,72.0,0,900,2.0,0.0
7199,59.0,120,120,3.0,0.0
7200,71.0,0,120,2.0,0.0
7201,71.0,0,120,0.0,0.0
7202,47.0,0,120,3.0,0.0
7203,59.0,0,120,2.0,0.0
7204,74.0,912,120,2.0,0.0
7205,62.0,0,120,2.0,0.0
7206,62.0,0,120,3.0,0.0
7207,50.0,0,120,3.0,0.0
7208,74.0,0,120,0.0,0.0
7209,65.0,0,900,3.0,0.0
7210,53.0,0,900,3.0,0.0
7211,77.0,0,900,0.0,0.0
7212,77.0,0,900,2.0,0.0
7213,65.0,888,900,2.0,0.0
7214,52.0,0,120,3.0,0.0
7215,64.0,0,120,2.0,0.0
7216,76.0,120,120,2.0,0.0
7217,76.0,0,120,0.0,0.0
7218,79.0,0,120,2.0,0.0
7219,67.0,0,120,2.0,0.0
7220,55.0,320,120,3.0,0.0
7221,79.0,0,120,0.0,0.0
7222,82.0,0,330,2.0,0.0
7223,70.0,0,330,2.0,0.0
7224,58.0,320,330,3.0,0.0
7225,82.0,0,330,0.0,0.0
7226,67.0,0,330,2.0,0.0
7227,55.0,0,330,3.0,0.0
7228,79.0,320,330,2.0,0.0
7229,79.0,0,330,0.0,0.0
7230,60.0,0,330,3.0,0.0
7231,84.0,0,330,0.0,0.0
7232,72.0,320,330,2.0,0.0
7233,84.0,0,330,2.0,0.0
7234,80.0,320,330,0.0,0.0
7235,56.0,0,330,3.0,0.0
7236,80.0,0,330,2.0,0.0
7237,68.0,0,330,2.0,0.0
7238,65.0,0,330,2.0,0.0
7239,77.0,0,330,2.0,0.0
7240,53.0,0,330,3.0,0.0
7241,77.0,320,330,0.0,0.0
7242,74.0,0,330,2.0,0.0
7243,50.0,320,330,3.0,0.0
7244,62.0,0,330,3.0,0.0
7245,74.0,0,330,0.0,0.0
7246,62.0,0,330,2.0,0.0
7247,47.0,0,330,3.0,0.0
7248,71.0,0,330,2.0,0.0
7249,59.0,320,330,2.0,0.0
7250,71.0,0,330,0.0,0.0
7251,59.0,0,330,3.0,0.0
7252,55.0,0,330,3.0,0.0
7253,43.0,0,330,3.0,0.0
7254,67.0,0,330,2.0,0.0
7255,67.0,0,330,0.0,0.0
7256,55.0,320,330,2.0,0.0
7257,75.0,384,330,0.0,0.0
7258,75.0,0,330,2.0,0.0
7259,63.0,0,330,2.0,0.0
7260,51.0,0,330,3.0,0.0
7261,39.0,0,330,3.0,0.0
7262,60.0,0,390,2.0,0.0
7263,72.0,0,390,2.0,0.0
7264,48.0,0,390,3.0,0.0
7265,36.0,96,390,3.0,0.0
7266,72.0,0,390,1.0,0.0
7267,72.0,0,390,0.0,0.0
7268,36.0,144,5370,14.0,0.0
7269,36.0,0,1920,13.0,0.0
7270,55.0,0,240,10.0,0.0
7271,43.0,240,240,13.0,0.0
7272,48.0,240,240,13.0,0.0
7273,60.0,0,240,10.0,0.0
7274,51.0,0,240,13.0,0.0
7275,63.0,240,240,10.0,0.0
7276,56.0,240,240,13.0,0.0
7277,60.0,96,4710,11.0,0.0
7278,63.0,0,4710,11.0,0.0
7279,68.0,0,240,10.0,0.0
7280,63.0,240,240,10.0,0.0
7281,51.0,0,240,13.0,0.0
7282,67.0,0,240,10.0,0.0
7283,75.0,0,480,1.0,0.0
7284,55.0,240,240,13.0,0.0
7285,60.0,240,240,13.0,0.0
7286,72.0,0,240,10.0,0.0
7287,63.0,0,240,12.0,0.0
7288,75.0,0,240,10.0,0.0
7289,72.0,96,390,1.0,0.0
7290,63.0,144,240,13.0,0.0
7291,79.0,240,240,10.0,0.0
7292,36.0,0,3600,13.0,0.0
7293,67.0,0,240,12.0,0.0
7294,80.0,0,240,10.0,0.0
7295,68.0,240,240,12.0,0.0
7296,75.0,240,240,10.0,0.0
7297,63.0,0,240,12.0,0.0
7298,79.0,0,240,10.0,0.0
7299,67.0,240,240,12.0,0.0
7300,72.0,240,240,12.0,0.0
7301,84.0,0,240,10.0,0.0
7302,87.0,240,240,10.0,0.0
7303,79.0,0,480,1.0,0.0
7304,75.0,0,480,1.0,0.0
7305,75.0,0,240,12.0,0.0
7306,72.0,0,240,12.0,0.0
7307,84.0,240,240,10.0,0.0
7308,67.0,0,240,12.0,0.0
7309,79.0,240,240,10.0,0.0
7310,74.0,240,480,1.0,0.0
7311,77.0,0,480,1.0,0.0
7312,63.0,0,240,12.0,0.0
7313,75.0,0,240,10.0,0.0
7314,72.0,0,240,10.0,0.0
7315,75.0,96,390,1.0,0.0
7316,72.0,0,390,1.0,0.0
7317,60.0,144,240,12.0,0.0
7318,67.0,240,240,10.0,0.0
7319,55.0,0,240,12.0,0.0
7320,55.0,0,240,13.0,0.0
7321,56.0,0,240,13.0,0.0
7322,56.0,0,240,12.0,0.0
7323,68.0,240,240,10.0,0.0
7324,51.0,96,240,13.0,0.0
7325,63.0,0,240,10.0,0.0
7326,60.0,1882,480,3.0,0.0
7327,92.0,0,480,0.0,0.0
7328,68.0,0,480,3.0,0.0
7329,72.0,0,480,2.0,0.0
7330,84.0,0,480,0.0,0.0
7331,78.0,0,480,2.0,0.0
7332,60.0,144,240,10.0,0.0
7333,48.0,0,240,13.0,0.0
7334,55.0,0,240,10.0,0.0
7335,43.0,0,240,13.0,0.0
7336,56.0,0,1890,11.0,0.0
7337,87.0,0,1920,0.0,0.0
7338,78.0,0,1920,2.0,0.0
7339,75.0,0,1920,2.0,0.0
7340,44.0,38,1890,13.0,0.0
7341,36.0,0,1890,14.0,0.0
7342,56.0,0,1890,10.0,0.0
7343,36.0,0,1890,13.0,0.0
7344,90.0,0,1920,0.0,0.0
7345,66.0,0,1920,3.0,0.0
7346,63.0,384,1920,3.0,0.0
7347,37.0,0,5760,13.0,0.0
7348,88.0,0,390,0.0,0.0
7349,76.0,0,390,2.0,0.0
7350,61.0,0,390,3.0,0.0
7351,64.0,0,390,3.0,0.0
7352,73.0,0,390,2.0,0.0
7353,37.0,0,5670,14.0,0.0
7354,85.0,96,390,0.0,0.0
7355,52.0,0,240,12.0,0.0
7356,40.0,240,240,13.0,0.0
7357,57.0,0,240,10.0,0.0
7358,45.0,0,240,13.0,0.0
7359,57.0,240,240,12.0,0.0
7360,61.0,0,240,12.0,0.0
7361,49.0,0,240,13.0,0.0
7362,61.0,240,240,10.0,0.0
7363,54.0,0,240,13.0,0.0
7364,66.0,0,240,12.0,0.0
7365,66.0,240,240,10.0,0.0
7366,57.0,84,4710,11.0,0.0
7367,49.0,0,240,13.0,0.0
7368,61.0,240,240,12.0,0.0
7369,61.0,0,240,10.0,0.0
7370,52.0,240,240,13.0,0.0
7371,64.0,0,240,12.0,0.0
7372,73.0,240,480,1.0,0.0
7373,64.0,0,240,10.0,0.0
7374,69.0,0,240,10.0,0.0
7375,57.0,0,240,13.0,0.0
7376,57.0,0,240,12.0,0.0
7377,73.0,0,240,10.0,0.0
7378,61.0,0,240,13.0,0.0
7379,69.0,192,780,1.0,0.0
7380,61.0,240,240,12.0,0.0
7381,64.0,0,240,12.0,0.0
7382,76.0,240,240,10.0,0.0
7383,78.0,0,240,10.0,0.0
7384,66.0,48,240,12.0,0.0
7385,73.0,0,240,10.0,0.0
7386,61.0,240,240,12.0,0.0
7387,76.0,0,240,10.0,0.0
7388,64.0,240,240,12.0,0.0
7389,81.0,240,240,10.0,0.0
7390,69.0,0,240,12.0,0.0
7391,76.0,0,480,1.0,0.0
7392,73.0,240,240,12.0,0.0
7393,73.0,0,480,1.0,0.0
7394,85.0,0,240,10.0,0.0
7395,69.0,240,240,12.0,0.0
7396,81.0,0,240,10.0,0.0
7397,71.0,240,480,1.0,0.0
7398,74.0,0,480,1.0,0.0
7399,64.0,0,240,12.0,0.0
7400,76.0,240,240,10.0,0.0
7401,73.0,0,240,10.0,0.0
7402,61.0,0,240,12.0,0.0
7403,69.0,0,240,10.0,0.0
7404,69.0,0,390,1.0,0.0
7405,57.0,144,240,12.0,0.0
7406,57.0,0,240,13.0,0.0
7407,73.0,96,390,1.0,0.0
7408,52.0,0,240,13.0,0.0
7409,64.0,240,240,10.0,0.0
7410,64.0,0,240,12.0,0.0
7411,65.0,240,240,12.0,0.0
7412,53.0,0,240,13.0,0.0
7413,65.0,0,240,10.0,0.0
7414,49.0,0,240,13.0,0.0
7415,61.0,0,240,12.0,0.0
7416,61.0,240,240,10.0,0.0
7417,77.0,0,480,2.0,0.0
7418,81.0,1882,480,2.0,0.0
7419,45.0,0,240,13.0,0.0
7420,69.0,0,480,3.0,0.0
7421,57.0,0,240,10.0,0.0
7422,65.0,0,480,3.0,0.0
7423,57.0,144,240,12.0,0.0
7424,93.0,0,480,0.0,0.0
7425,89.0,0,480,0.0,0.0
7426,53.0,12,240,12.0,0.0
7427,41.0,0,240,13.0,0.0
7428,91.0,0,1920,0.0,0.0
7429,88.0,0,1920,0.0,0.0
7430,64.0,0,1920,3.0,0.0
7431,79.0,0,1920,2.0,0.0
7432,76.0,0,1920,2.0,0.0
7433,37.0,0,1890,13.0,0.0
7434,45.0,0,1890,13.0,0.0
7435,57.0,240,1920,11.0,0.0
7436,37.0,38,1890,14.0,0.0
7437,52.0,0,1920,12.0,0.0
7438,67.0,0,1920,3.0,0.0
7439,46.0,0,1890,13.0,0.0
7440,74.0,0,390,2.0,0.0
7441,38.0,38,1890,13.0,0.0
7442,89.0,96,390,0.0,0.0
7443,86.0,0,390,0.0,0.0
7444,50.0,0,390,12.0,0.0
7445,77.0,0,390,2.0,0.0
7446,58.0,0,390,11.0,0.0
7447,38.0,0,1890,14.0,0.0
7448,77.0,144,240,10.0,0.0
7449,65.0,0,390,3.0,0.0
7450,62.0,0,390,3.0,0.0
7451,74.0,240,240,10.0,0.0
7452,70.0,240,240,10.0,0.0
7453,65.0,240,240,10.0,0.0
7454,66.0,240,240,10.0,0.0
7455,66.0,0,240,12.0,0.0
7456,62.0,240,240,12.0,0.0
7457,62.0,0,240,10.0,0.0
7458,70.0,0,480,5.0,0.0
7459,58.0,0,480,5.0,0.0
7460,58.0,202,240,12.0,0.0
7461,78.0,1920,480,1.0,0.0
7462,82.0,0,480,1.0,0.0
7463,58.0,0,240,10.0,0.0
7464,54.0,0,240,12.0,0.0
7465,80.0,0,1920,1.0,0.0
7466,38.0,48,1920,13.0,0.0
7467,46.0,0,1920,13.0,0.0
7468,38.0,0,1920,14.0,0.0
7469,77.0,0,1920,1.0,0.0
7470,58.0,0,1920,11.0,0.0
7471,53.0,0,1920,12.0,0.0
7472,68.0,0,1920,5.0,0.0
7473,65.0,0,1920,5.0,0.0
7474,63.0,24,390,5.0,0.0
7475,47.0,60,40,7.0,0.0
7476,39.0,0,8070,14.0,0.0
7477,71.0,0,8070,6.0,0.0
7478,59.0,0,8070,6.0,0.0
7479,59.0,60,780,4.0,0.0
7480,47.0,0,8070,4.0,0.0
7481,78.0,0,390,1.0,0.0
7482,59.0,0,390,11.0,0.0
7483,78.0,48,240,10.0,0.0
7484,66.0,0,390,5.0,0.0
7485,39.0,96,8070,13.0,0.0
7486,47.0,0,8070,13.0,0.0
7487,75.0,0,390,1.0,0.0
7488,51.0,48,480,12.0,0.0
7489,47.0,60,40,7.0,0.0
7490,47.0,60,40,7.0,0.0
7491,47.0,12,40,7.0,0.0
7492,75.0,0,240,10.0,0.0
7493,47.0,60,40,7.0,0.0
7494,47.0,36,40,7.0,0.0
7495,47.0,60,40,7.0,0.0
7496,47.0,12,40,7.0,0.0
7497,71.0,48,240,10.0,0.0
7498,47.0,60,40,7.0,0.0
7499,47.0,60,40,7.0,0.0
7500,47.0,60,40,7.0,0.0
7501,47.0,12,40,7.0,0.0
7502,67.0,0,240,10.0,0.0
7503,59.0,0,120,2.0,0.0
7504,47.0,0,40,7.0,0.0
7505,47.0,48,120,3.0,0.0
7506,47.0,12,40,7.0,0.0
7507,51.0,0,120,3.0,0.0
7508,63.0,48,120,2.0,0.0
7509,47.0,60,40,7.0,0.0
7510,47.0,12,40,7.0,0.0
7511,66.0,0,240,10.0,0.0
7512,47.0,60,40,7.0,0.0
7513,66.0,0,330,2.0,0.0
7514,54.0,28,330,3.0,0.0
7515,66.0,48,240,12.0,0.0
7516,47.0,60,40,7.0,0.0
7517,47.0,60,40,7.0,0.0
7518,47.0,12,40,7.0,0.0
7519,59.0,48,240,12.0,0.0
7520,47.0,32,40,7.0,0.0
7521,47.0,60,40,7.0,0.0
7522,51.0,8,330,3.0,0.0
7523,63.0,0,330,2.0,0.0
7524,47.0,60,40,7.0,0.0
7525,47.0,12,40,7.0,0.0
7526,83.0,0,480,1.0,0.0
7527,67.0,48,240,12.0,0.0
7528,47.0,60,40,7.0,0.0
7529,71.0,0,480,4.0,0.0
7530,47.0,52,40,7.0,0.0
7531,47.0,60,40,7.0,0.0
7532,67.0,0,330,2.0,0.0
7533,55.0,0,330,3.0,0.0
7534,47.0,12,40,7.0,0.0
7535,47.0,60,40,7.0,0.0
7536,71.0,48,120,2.0,0.0
7537,63.0,0,240,12.0,0.0
7538,71.0,0,120,0.0,0.0
7539,59.0,0,120,3.0,0.0
7540,47.0,12,40,7.0,0.0
7541,63.0,0,120,3.0,0.0
7542,47.0,60,40,7.0,0.0
7543,75.0,0,120,2.0,0.0
7544,75.0,48,120,0.0,0.0
7545,47.0,12,40,7.0,0.0
7546,66.0,0,480,2.0,0.0
7547,66.0,48,240,12.0,0.0
7548,69.0,0,780,4.0,0.0
7549,47.0,60,40,7.0,0.0
7550,81.0,0,960,1.0,0.0
7551,54.0,48,480,3.0,0.0
7552,66.0,0,240,10.0,0.0
7553,66.0,0,330,3.0,0.0
7554,78.0,28,330,2.0,0.0
7555,78.0,0,330,0.0,0.0
7556,47.0,60,40,7.0,0.0
7557,47.0,60,40,7.0,0.0
7558,47.0,12,40,7.0,0.0
7559,59.0,0,240,10.0,0.0
7560,47.0,32,40,7.0,0.0
7561,47.0,60,40,7.0,0.0
7562,63.0,0,330,3.0,0.0
7563,75.0,8,330,2.0,0.0
7564,75.0,0,330,0.0,0.0
7565,47.0,60,40,7.0,0.0
7566,47.0,12,40,7.0,0.0
7567,47.0,60,40,7.0,0.0
7568,67.0,48,240,10.0,0.0
7569,47.0,52,40,7.0,0.0
7570,47.0,60,40,7.0,0.0
7571,79.0,0,330,0.0,0.0
7572,67.0,0,330,3.0,0.0
7573,79.0,0,330,2.0,0.0
7574,47.0,12,40,7.0,0.0
7575,63.0,0,240,10.0,0.0
7576,47.0,60,40,7.0,0.0
7577,59.0,0,120,3.0,0.0
7578,71.0,48,120,2.0,0.0
7579,83.0,0,120,0.0,0.0
7580,47.0,12,40,7.0,0.0
7581,75.0,48,120,2.0,0.0
7582,63.0,0,120,3.0,0.0
7583,87.0,0,120,0.0,0.0
7584,47.0,60,40,7.0,0.0
7585,47.0,12,40,7.0,0.0
7586,47.0,60,40,7.0,0.0
7587,90.0,0,330,0.0,0.0
7588,66.0,48,240,10.0,0.0
7589,78.0,28,330,0.0,0.0
7590,66.0,0,330,3.0,0.0
7591,66.0,0,240,12.0,0.0
7592,78.0,0,330,2.0,0.0
7593,47.0,60,40,7.0,0.0
7594,47.0,60,40,7.0,0.0
7595,47.0,12,40,7.0,0.0
7596,59.0,0,240,12.0,0.0
7597,47.0,32,40,7.0,0.0
7598,47.0,60,40,7.0,0.0
7599,75.0,0,330,2.0,0.0
7600,63.0,0,330,3.0,0.0
7601,87.0,8,330,0.0,0.0
7602,47.0,60,40,7.0,0.0
7603,47.0,12,40,7.0,0.0
7604,67.0,48,240,12.0,0.0
7605,83.0,0,480,1.0,0.0
7606,47.0,60,40,7.0,0.0
7607,71.0,0,480,4.0,0.0
7608,47.0,52,40,7.0,0.0
7609,47.0,60,40,7.0,0.0
7610,79.0,48,330,2.0,0.0
7611,67.0,0,330,3.0,0.0
7612,91.0,0,330,0.0,0.0
7613,47.0,12,40,7.0,0.0
7614,47.0,60,40,7.0,0.0
7615,63.0,0,240,12.0,0.0
7616,47.0,60,40,7.0,0.0
7617,47.0,60,40,7.0,0.0
7618,47.0,12,40,7.0,0.0
7619,90.0,0,330,0.0,0.0
7620,78.0,0,330,2.0,0.0
7621,66.0,28,330,3.0,0.0
7622,81.0,48,1440,1.0,0.0
7623,69.0,24,1350,4.0,0.0
7624,47.0,60,40,7.0,0.0
7625,66.0,48,240,12.0,0.0
7626,47.0,60,40,7.0,0.0
7627,47.0,60,40,7.0,0.0
7628,47.0,12,40,7.0,0.0
7629,47.0,32,40,7.0,0.0
7630,63.0,48,240,12.0,0.0
7631,47.0,60,40,7.0,0.0
7632,63.0,8,330,3.0,0.0
7633,87.0,0,330,0.0,0.0
7634,75.0,0,330,2.0,0.0
7635,47.0,60,40,7.0,0.0
7636,47.0,12,40,7.0,0.0
7637,66.0,48,240,12.0,0.0
7638,47.0,60,40,7.0,0.0
7639,47.0,52,40,7.0,0.0
7640,47.0,60,40,7.0,0.0
7641,71.0,0,330,2.0,0.0
7642,83.0,0,330,0.0,0.0
7643,71.0,0,330,3.0,0.0
7644,59.0,0,330,3.0,0.0
7645,95.0,0,330,0.0,0.0
7646,83.0,0,330,2.0,0.0
7647,47.0,12,40,7.0,0.0
7648,47.0,60,40,7.0,0.0
7649,63.0,48,240,12.0,0.0
7650,47.0,60,40,7.0,0.0
7651,47.0,60,40,7.0,0.0
7652,47.0,12,40,7.0,0.0
7653,67.0,0,330,3.0,0.0
7654,47.0,60,40,7.0,0.0
7655,91.0,0,330,0.0,0.0
7656,79.0,28,330,2.0,0.0
7657,59.0,48,240,12.0,0.0
7658,47.0,60,40,7.0,0.0
7659,47.0,60,40,7.0,0.0
7660,47.0,12,40,7.0,0.0
7661,47.0,32,40,7.0,0.0
7662,47.0,36,40,7.0,0.0
7663,66.0,0,330,3.0,0.0
7664,78.0,8,330,2.0,0.0
7665,90.0,0,330,0.0,0.0
7666,47.0,60,40,7.0,0.0
7667,47.0,12,40,7.0,0.0
7668,47.0,60,40,7.0,0.0
7669,47.0,52,40,7.0,0.0
7670,47.0,60,40,7.0,0.0
7671,87.0,48,330,0.0,0.0
7672,83.0,0,330,0.0,0.0
7673,63.0,0,330,3.0,0.0
7674,75.0,0,330,2.0,0.0
7675,71.0,0,330,2.0,0.0
7676,47.0,60,40,7.0,0.0
7677,47.0,60,40,7.0,0.0
7678,47.0,60,40,7.0,0.0
7679,47.0,60,40,7.0,0.0
7680,47.0,12,40,7.0,0.0
7681,47.0,60,40,7.0,0.0
7682,59.0,0,15,3.0,0.0
7683,55.0,0,330,3.0,0.0
7684,83.0,0,330,0.0,0.0
7685,79.0,0,330,0.0,0.0
7686,71.0,0,330,2.0,0.0
7687,67.0,0,330,2.0,0.0
7688,47.0,60,40,7.0,0.0
7689,47.0,60,40,7.0,0.0
7690,47.0,60,40,7.0,0.0
7691,47.0,32,40,7.0,0.0
7692,47.0,60,40,7.0,0.0
7693,66.0,0,330,2.0,0.0
7694,78.0,8,330,0.0,0.0
7695,54.0,0,330,3.0,0.0
7696,47.0,60,40,7.0,0.0
7697,47.0,60,40,7.0,0.0
7698,47.0,60,40,7.0,0.0
7699,47.0,52,40,7.0,0.0
7700,47.0,60,40,7.0,0.0
7701,63.0,0,330,2.0,0.0
7702,59.0,0,330,3.0,0.0
7703,51.0,48,330,3.0,0.0
7704,71.0,0,330,2.0,0.0
7705,75.0,0,330,0.0,0.0
7706,47.0,60,40,7.0,0.0
7707,47.0,60,40,7.0,0.0
7708,47.0,60,40,7.0,0.0
7709,47.0,60,40,7.0,0.0
7710,47.0,12,40,7.0,0.0
7711,71.0,0,480,0.0,0.0
7712,55.0,28,330,3.0,0.0
7713,59.0,48,480,2.0,0.0
7714,47.0,60,40,7.0,0.0
7715,67.0,0,330,2.0,0.0
7716,47.0,32,270,3.0,0.0
7717,47.0,60,40,7.0,0.0
7718,47.0,60,40,7.0,0.0
7719,47.0,28,40,7.0,0.0
7720,47.0,32,40,7.0,0.0
7721,47.0,60,40,7.0,0.0
7722,66.0,8,330,2.0,0.0
7723,42.0,12,270,3.0,0.0
7724,54.0,0,330,3.0,0.0
7725,47.0,60,40,7.0,0.0
7726,47.0,12,40,7.0,0.0
7727,47.0,48,40,7.0,0.0
7728,47.0,52,40,7.0,0.0
7729,47.0,60,40,7.0,0.0
7730,39.0,52,270,3.0,0.0
7731,51.0,0,330,3.0,0.0
7732,63.0,384,330,2.0,0.0
7733,47.0,60,40,7.0,0.0
7734,47.0,60,40,7.0,0.0
7735,47.0,60,40,7.0,0.0
7736,47.0,8,40,7.0,0.0
7737,47.0,12,40,7.0,0.0
7738,35.0,0,390,3.0,0.0
7739,47.0,0,480,3.0,0.0
7740,59.0,336,480,2.0,0.0
7741,47.0,0,390,7.0,0.0
7742,36.0,0,90,14.0,0.0
7743,64.0,0,90,5.0,0.0
7744,64.0,0,90,11.0,0.0
7745,69.0,24,180,12.0,0.0
7746,69.0,0,90,10.0,0.0
7747,64.0,0,180,12.0,0.0
7748,48.0,96,90,13.0,0.0
7749,45.0,0,90,13.0,0.0
7750,69.0,0,90,11.0,0.0
7751,33.0,0,90,14.0,0.0
7752,64.0,0,90,5.0,0.0
7753,72.0,840,90,10.0,0.0
7754,30.0,0,900,14.0,0.0
7755,69.0,0,900,12.0,0.0
7756,76.0,24,900,10.0,0.0
7757,72.0,0,900,12.0,0.0
7758,72.0,0,900,11.0,0.0
7759,64.0,0,900,5.0,0.0
7760,42.0,0,900,13.0,0.0
7761,66.0,0,90,4.0,0.0
7762,78.0,96,90,6.0,0.0
7763,66.0,774,120,4.0,0.0
7764,78.0,18,90,6.0,0.0
7765,78.0,48,780,6.0,0.0
7766,66.0,0,900,4.0,0.0
7767,54.0,0,90,13.0,0.0
7768,69.0,24,180,12.0,0.0
7769,69.0,0,90,11.0,0.0
7770,42.0,0,90,14.0,0.0
7771,66.0,0,180,12.0,0.0
7772,57.0,78,120,5.0,0.0
7773,69.0,0,120,5.0,0.0
7774,75.0,18,90,10.0,0.0
7775,39.0,0,90,14.0,0.0
7776,75.0,18,90,11.0,0.0
7777,78.0,0,90,10.0,0.0
7778,51.0,0,90,13.0,0.0
7779,57.0,0,120,5.0,0.0
7780,69.0,822,120,5.0,0.0
7781,47.0,0,900,13.0,0.0
7782,35.0,0,900,14.0,0.0
7783,69.0,0,900,12.0,0.0
7784,81.0,0,900,10.0,0.0
7785,75.0,0,900,12.0,0.0
7786,69.0,24,900,5.0,0.0
7787,57.0,0,900,5.0,0.0
7788,78.0,0,900,11.0,0.0
7789,59.0,78,120,4.0,0.0
7790,71.0,0,120,4.0,0.0
7791,71.0,18,90,6.0,0.0
7792,59.0,792,90,4.0,0.0
7793,71.0,0,90,4.0,0.0
7794,71.0,0,90,6.0,0.0
7795,59.0,24,780,4.0,0.0
7796,71.0,0,780,6.0,0.0
7797,71.0,0,780,4.0,0.0
7798,59.0,0,60,13.0,0.0
7799,80.0,0,60,10.0,0.0
7800,74.0,48,150,12.0,0.0
7801,71.0,0,150,12.0,0.0
7802,47.0,24,60,14.0,0.0
7803,62.0,48,90,5.0,0.0
7804,74.0,0,60,11.0,0.0
7805,80.0,0,60,11.0,0.0
7806,62.0,216,90,5.0,0.0
7807,44.0,24,60,14.0,0.0
7808,83.0,0,60,10.0,0.0
7809,56.0,0,60,13.0,0.0
7810,71.0,0,300,12.0,0.0
7811,68.0,0,300,12.0,0.0
7812,83.0,0,180,11.0,0.0
7813,86.0,96,180,10.0,0.0
7814,62.0,48,780,5.0,0.0
7815,40.0,0,300,14.0,0.0
7816,52.0,224,300,13.0,0.0
7817,80.0,256,180,11.0,0.0
7818,83.0,0,180,10.0,0.0
7819,44.0,0,300,14.0,0.0
7820,71.0,0,300,12.0,0.0
7821,56.0,0,300,13.0,0.0
7822,64.0,0,300,12.0,0.0
7823,88.0,104,180,10.0,0.0
7824,76.0,0,180,11.0,0.0
7825,64.0,0,90,4.0,0.0
7826,52.0,16,90,4.0,0.0
7827,76.0,0,90,6.0,0.0
7828,64.0,0,90,6.0,0.0
7829,52.0,216,90,4.0,0.0
7830,64.0,0,90,6.0,0.0
7831,76.0,0,90,6.0,0.0
7832,64.0,0,90,4.0,0.0
7833,64.0,0,180,12.0,0.0
7834,57.0,224,300,13.0,0.0
7835,64.0,0,300,6.0,0.0
7836,76.0,0,300,6.0,0.0
7837,64.0,0,300,4.0,0.0
7838,72.0,0,180,12.0,0.0
7839,84.0,0,180,10.0,0.0
7840,72.0,96,180,11.0,0.0
7841,52.0,0,300,4.0,0.0
7842,45.0,0,300,14.0,0.0
7843,69.0,256,180,11.0,0.0
7844,81.0,0,180,10.0,0.0
7845,69.0,0,180,12.0,0.0
7846,66.0,0,300,4.0,0.0
7847,78.0,0,300,6.0,0.0
7848,42.0,64,300,14.0,0.0
7849,54.0,0,300,13.0,0.0
7850,66.0,0,180,12.0,0.0
7851,66.0,320,180,11.0,0.0
7852,78.0,0,180,10.0,0.0
7853,39.0,224,300,14.0,0.0
7854,75.0,0,180,10.0,0.0
7855,51.0,0,300,13.0,0.0
7856,63.0,0,180,12.0,0.0
7857,63.0,96,180,11.0,0.0
7858,71.0,0,180,10.0,0.0
7859,59.0,0,180,12.0,0.0
7860,59.0,256,180,11.0,0.0
7861,47.0,0,300,13.0,0.0
7862,71.0,0,300,6.0,0.0
7863,59.0,0,300,6.0,0.0
7864,59.0,64,300,4.0,0.0
7865,35.0,0,300,14.0,0.0
7866,71.0,0,180,12.0,0.0
7867,75.0,0,180,11.0,0.0
7868,67.0,0,180,11.0,0.0
7869,79.0,0,180,10.0,0.0
7870,63.0,704,180,12.0,0.0
7871,48.0,0,570,3.0,0.0
7872,36.0,0,570,14.0,0.0
7873,48.0,0,570,13.0,0.0
7874,72.0,0,570,2.0,0.0
7875,64.0,0,570,4.0,0.0
7876,67.0,0,570,11.0,0.0
7877,60.0,0,570,5.0,0.0
7878,64.0,0,570,12.0,0.0
7879,76.0,264,570,11.0,0.0
7880,76.0,0,570,10.0,0.0
7881,72.0,0,570,1.0,0.0
7882,76.0,0,570,6.0,0.0
7883,64.0,0,570,6.0,0.0
7884,60.0,0,570,3.0,0.0
7885,67.0,0,570,12.0,0.0
7886,60.0,120,120,5.0,0.0
7887,60.0,0,120,3.0,0.0
7888,72.0,0,120,2.0,0.0
7889,72.0,0,120,1.0,0.0
7890,76.0,176,120,1.0,0.0
7891,64.0,0,120,3.0,0.0
7892,64.0,0,120,5.0,0.0
7893,76.0,0,120,2.0,0.0
7894,67.0,0,180,3.0,0.0
7895,79.0,0,180,2.0,0.0
7896,67.0,320,180,5.0,0.0
7897,79.0,0,180,1.0,0.0
7898,76.0,0,180,1.0,0.0
7899,64.0,320,180,5.0,0.0
7900,64.0,0,180,3.0,0.0
7901,76.0,0,180,2.0,0.0
7902,77.0,0,180,2.0,0.0
7903,80.0,0,180,2.0,0.0
7904,65.0,24,180,5.0,0.0
7905,68.0,0,180,3.0,0.0
7906,68.0,0,180,5.0,0.0
7907,65.0,0,180,3.0,0.0
7908,77.0,0,180,1.0,0.0
7909,80.0,0,180,1.0,0.0
7910,65.0,0,120,10.0,0.0
7911,53.0,0,120,12.0,0.0
7912,29.0,120,120,14.0,0.0
7913,65.0,0,120,11.0,0.0
7914,41.0,0,120,13.0,0.0
7915,56.0,0,120,10.0,0.0
7916,32.0,0,120,14.0,0.0
7917,56.0,0,120,11.0,0.0
7918,44.0,0,120,13.0,0.0
7919,56.0,384,120,12.0,0.0
7920,79.0,0,570,1.0,0.0
7921,60.0,0,570,11.0,0.0
7922,60.0,264,570,10.0,0.0
7923,36.0,0,570,14.0,0.0
7924,60.0,0,570,12.0,0.0
7925,64.0,0,570,3.0,0.0
7926,76.0,0,570,1.0,0.0
7927,48.0,0,570,13.0,0.0
7928,64.0,0,570,5.0,0.0
7929,67.0,0,570,5.0,0.0
7930,79.0,192,390,2.0,0.0
7931,76.0,0,390,2.0,0.0
7932,67.0,0,570,3.0,0.0
7933,64.0,0,180,3.0,0.0
7934,72.0,0,120,2.0,0.0
7935,84.0,72,120,0.0,0.0
7936,64.0,0,180,5.0,0.0
7937,76.0,48,180,1.0,0.0
7938,88.0,0,120,0.0,0.0
7939,76.0,176,120,2.0,0.0
7940,79.0,176,330,2.0,0.0
7941,60.0,304,510,3.0,0.0
7942,91.0,144,180,0.0,0.0
7943,72.0,0,510,1.0,0.0
7944,60.0,0,510,5.0,0.0
7945,76.0,0,180,2.0,0.0
7946,88.0,16,180,0.0,0.0
7947,60.0,0,180,3.0,0.0
7948,56.0,0,180,3.0,0.0
7949,72.0,24,180,2.0,0.0
7950,84.0,0,180,1.0,0.0
7951,84.0,0,180,0.0,0.0
7952,72.0,0,180,5.0,0.0
7953,68.0,0,180,5.0,0.0
7954,80.0,0,180,1.0,0.0
7955,41.0,0,120,14.0,0.0
7956,65.0,0,120,11.0,0.0
7957,53.0,0,120,13.0,0.0
7958,65.0,120,120,12.0,0.0
7959,65.0,0,120,10.0,0.0
7960,61.0,0,120,10.0,0.0
7961,49.0,176,120,13.0,0.0
7962,37.0,0,120,14.0,0.0
7963,61.0,0,120,11.0,0.0
7964,61.0,0,120,12.0,0.0
7965,58.0,0,390,10.0,0.0
7966,75.0,208,180,2.0,0.0
7967,58.0,0,180,3.0,0.0
7968,70.0,0,180,5.0,0.0
7969,73.0,0,180,5.0,0.0
7970,34.0,0,390,14.0,0.0
7971,82.0,0,180,2.0,0.0
7972,46.0,0,390,13.0,0.0
7973,58.0,0,390,11.0,0.0
7974,82.0,0,180,1.0,0.0
7975,85.0,0,180,1.0,0.0
7976,61.0,0,180,3.0,0.0
7977,58.0,112,390,12.0,0.0
7978,68.0,0,180,5.0,0.0
7979,72.0,0,180,5.0,0.0
7980,84.0,320,180,1.0,0.0
7981,72.0,0,180,2.0,0.0
7982,80.0,0,180,2.0,0.0
7983,80.0,0,180,1.0,0.0
7984,56.0,0,180,3.0,0.0
7985,60.0,0,180,3.0,0.0
7986,67.0,0,180,5.0,0.0
7987,70.0,0,180,5.0,0.0
7988,82.0,24,180,1.0,0.0
7989,79.0,0,180,1.0,0.0
7990,70.0,0,180,2.0,0.0
7991,79.0,0,180,2.0,0.0
7992,58.0,0,180,3.0,0.0
7993,55.0,0,180,3.0,0.0
7994,39.0,0,120,14.0,0.0
7995,51.0,0,120,13.0,0.0
7996,63.0,0,120,12.0,0.0
7997,63.0,0,120,11.0,0.0
7998,63.0,120,120,10.0,0.0
7999,48.0,0,120,13.0,0.0
8000,60.0,0,120,12.0,0.0
8001,60.0,0,120,11.0,0.0
8002,36.0,176,120,14.0,0.0
8003,60.0,0,120,10.0,0.0
8004,56.0,0,390,12.0,0.0
8005,56.0,0,390,11.0,0.0
8006,60.0,0,180,3.0,0.0
8007,80.0,0,180,2.0,0.0
8008,72.0,0,180,2.0,0.0
8009,56.0,112,390,10.0,0.0
8010,32.0,0,390,14.0,0.0
8011,84.0,0,180,1.0,0.0
8012,56.0,0,180,3.0,0.0
8013,68.0,208,180,5.0,0.0
8014,72.0,0,180,5.0,0.0
8015,80.0,0,180,1.0,0.0
8016,44.0,0,390,13.0,0.0
8017,82.0,0,180,1.0,0.0
8018,79.0,0,180,2.0,0.0
8019,70.0,0,180,2.0,0.0
8020,79.0,0,180,1.0,0.0
8021,55.0,0,180,3.0,0.0
8022,70.0,0,180,5.0,0.0
8023,67.0,320,180,5.0,0.0
8024,58.0,0,180,3.0,0.0
8025,77.0,0,180,2.0,0.0
8026,68.0,0,180,5.0,0.0
8027,56.0,0,180,3.0,0.0
8028,53.0,0,180,3.0,0.0
8029,65.0,24,180,5.0,0.0
8030,77.0,0,180,1.0,0.0
8031,68.0,0,180,2.0,0.0
8032,80.0,0,180,1.0,0.0
8033,68.0,0,120,10.0,0.0
8034,56.0,0,120,13.0,0.0
8035,68.0,0,120,11.0,0.0
8036,44.0,120,120,14.0,0.0
8037,56.0,0,120,12.0,0.0
8038,48.0,0,120,14.0,0.0
8039,60.0,0,120,13.0,0.0
8040,72.0,384,120,10.0,0.0
8041,60.0,0,120,12.0,0.0
8042,72.0,0,120,11.0,0.0
8043,82.0,0,570,1.0,0.0
8044,63.0,0,570,13.0,0.0
8045,63.0,0,570,12.0,0.0
8046,70.0,0,570,5.0,0.0
8047,67.0,0,570,5.0,0.0
8048,58.0,264,570,3.0,0.0
8049,75.0,0,570,11.0,0.0
8050,51.0,0,570,14.0,0.0
8051,79.0,192,390,2.0,0.0
8052,70.0,0,390,2.0,0.0
8053,79.0,0,570,1.0,0.0
8054,55.0,0,570,3.0,0.0
8055,75.0,0,570,10.0,0.0
8056,55.0,0,180,3.0,0.0
8057,67.0,48,180,5.0,0.0
8058,75.0,72,120,0.0,0.0
8059,75.0,0,120,2.0,0.0
8060,79.0,0,180,1.0,0.0
8061,87.0,0,120,0.0,0.0
8062,91.0,0,120,0.0,0.0
8063,79.0,0,120,2.0,0.0
8064,79.0,176,120,0.0,0.0
8065,51.0,48,780,3.0,0.0
8066,82.0,144,180,2.0,0.0
8067,82.0,176,330,0.0,0.0
8068,94.0,0,330,0.0,0.0
8069,75.0,0,780,1.0,0.0
8070,63.0,0,780,5.0,0.0
8071,79.0,272,180,2.0,0.0
8072,91.0,0,180,0.0,0.0
8073,79.0,0,180,0.0,0.0
8074,87.0,0,180,0.0,0.0
8075,75.0,0,180,2.0,0.0
8076,75.0,0,180,11.0,0.0
8077,63.0,0,180,12.0,0.0
8078,87.0,320,180,10.0,0.0
8079,75.0,16,180,0.0,0.0
8080,76.0,0,180,11.0,0.0
8081,64.0,0,180,12.0,0.0
8082,88.0,320,180,10.0,0.0
8083,87.0,0,180,10.0,0.0
8084,63.0,0,180,12.0,0.0
8085,75.0,256,180,11.0,0.0
8086,51.0,0,300,5.0,0.0
8087,63.0,64,300,5.0,0.0
8088,61.0,0,180,12.0,0.0
8089,85.0,0,180,10.0,0.0
8090,73.0,320,180,11.0,0.0
8091,75.0,0,180,11.0,0.0
8092,63.0,320,180,12.0,0.0
8093,87.0,0,180,10.0,0.0
8094,61.0,256,180,12.0,0.0
8095,85.0,0,180,10.0,0.0
8096,73.0,0,180,11.0,0.0
8097,63.0,0,300,5.0,0.0
8098,51.0,64,300,5.0,0.0
8099,71.0,0,180,11.0,0.0
8100,39.0,0,180,14.0,0.0
8101,59.0,320,180,12.0,0.0
8102,51.0,0,180,13.0,0.0
8103,83.0,0,180,10.0,0.0
8104,73.0,0,180,11.0,0.0
8105,61.0,0,180,12.0,0.0
8106,52.0,0,180,14.0,0.0
8107,64.0,0,180,13.0,0.0
8108,85.0,320,180,10.0,0.0
8109,59.0,0,180,12.0,0.0
8110,83.0,0,180,10.0,0.0
8111,51.0,0,180,14.0,0.0
8112,71.0,256,180,11.0,0.0
8113,63.0,0,180,13.0,0.0
8114,51.0,64,300,5.0,0.0
8115,63.0,0,300,5.0,0.0
8116,61.0,0,180,13.0,0.0
8117,49.0,320,180,14.0,0.0
8118,70.0,0,180,11.0,0.0
8119,58.0,0,180,12.0,0.0
8120,82.0,0,180,10.0,0.0
8121,71.0,0,180,11.0,0.0
8122,63.0,0,180,13.0,0.0
8123,51.0,0,180,14.0,0.0
8124,83.0,0,180,10.0,0.0
8125,59.0,320,180,12.0,0.0
8126,58.0,0,180,12.0,0.0
8127,82.0,0,180,10.0,0.0
8128,61.0,0,180,13.0,0.0
8129,70.0,256,180,11.0,0.0
8130,49.0,0,180,14.0,0.0
8131,80.0,0,300,6.0,0.0
8132,51.0,64,300,5.0,0.0
8133,63.0,0,300,5.0,0.0
8134,68.0,0,300,4.0,0.0
8135,63.0,0,180,3.0,0.0
8136,68.0,0,180,11.0,0.0
8137,75.0,320,180,1.0,0.0
8138,80.0,0,180,10.0,0.0
8139,59.0,0,180,13.0,0.0
8140,56.0,0,180,12.0,0.0
8141,47.0,0,180,14.0,0.0
8142,75.0,0,180,2.0,0.0
8143,87.0,0,180,0.0,0.0
8144,80.0,0,300,6.0,0.0
8145,76.0,0,180,2.0,0.0
8146,61.0,0,300,12.0,0.0
8147,68.0,0,300,11.0,0.0
8148,52.0,0,300,5.0,0.0
8149,88.0,0,180,0.0,0.0
8150,76.0,224,300,11.0,0.0
8151,70.0,0,300,12.0,0.0
8152,76.0,96,180,1.0,0.0
8153,64.0,0,180,3.0,0.0
8154,68.0,0,300,4.0,0.0
8155,49.0,0,300,13.0,0.0
8156,37.0,0,300,14.0,0.0
8157,64.0,0,300,5.0,0.0
8158,82.0,0,300,10.0,0.0
8159,63.0,320,180,3.0,0.0
8160,75.0,0,180,2.0,0.0
8161,87.0,0,180,0.0,0.0
8162,75.0,0,180,1.0,0.0
8163,73.0,0,180,1.0,0.0
8164,73.0,320,180,2.0,0.0
8165,85.0,0,180,0.0,0.0
8166,61.0,0,180,3.0,0.0
8167,73.0,0,180,2.0,0.0
8168,63.0,0,300,10.0,0.0
8169,79.0,0,300,10.0,0.0
8170,70.0,0,300,10.0,0.0
8171,76.0,0,180,1.0,0.0
8172,76.0,0,180,2.0,0.0
8173,51.0,0,300,5.0,0.0
8174,70.0,224,300,11.0,0.0
8175,73.0,0,300,11.0,0.0
8176,73.0,0,180,1.0,0.0
8177,67.0,0,300,4.0,0.0
8178,61.0,0,300,12.0,0.0
8179,51.0,0,300,13.0,0.0
8180,39.0,0,300,14.0,0.0
8181,70.0,0,300,12.0,0.0
8182,85.0,0,180,0.0,0.0
8183,64.0,0,180,3.0,0.0
8184,61.0,96,180,3.0,0.0
8185,88.0,0,180,0.0,0.0
8186,79.0,0,300,6.0,0.0
8187,63.0,0,300,5.0,0.0
8188,87.0,0,180,0.0,0.0
8189,63.0,0,180,3.0,0.0
8190,59.0,0,180,3.0,0.0
8191,71.0,0,180,1.0,0.0
8192,75.0,320,180,1.0,0.0
8193,71.0,0,180,2.0,0.0
8194,75.0,0,180,2.0,0.0
8195,83.0,0,180,0.0,0.0
8196,61.0,0,180,3.0,0.0
8197,58.0,0,180,3.0,0.0
8198,73.0,0,180,2.0,0.0
8199,70.0,0,180,2.0,0.0
8200,73.0,0,180,1.0,0.0
8201,70.0,0,180,1.0,0.0
8202,85.0,0,180,0.0,0.0
8203,82.0,320,180,0.0,0.0
8204,75.0,0,180,2.0,0.0
8205,44.0,0,300,13.0,0.0
8206,71.0,0,180,1.0,0.0
8207,71.0,0,180,2.0,0.0
8208,71.0,0,300,11.0,0.0
8209,63.0,0,300,5.0,0.0
8210,51.0,0,300,5.0,0.0
8211,68.0,0,300,4.0,0.0
8212,63.0,0,300,11.0,0.0
8213,32.0,0,300,14.0,0.0
8214,51.0,0,300,13.0,0.0
8215,68.0,0,300,12.0,0.0
8216,63.0,0,300,10.0,0.0
8217,71.0,224,300,10.0,0.0
8218,80.0,0,300,10.0,0.0
8219,80.0,0,300,6.0,0.0
8220,75.0,0,180,1.0,0.0
8221,59.0,0,180,3.0,0.0
8222,63.0,96,180,3.0,0.0
8223,87.0,0,180,0.0,0.0
8224,83.0,0,180,0.0,0.0
8225,59.0,0,300,12.0,0.0
8226,59.0,0,300,13.0,0.0
8227,73.0,0,180,1.0,0.0
8228,61.0,320,180,3.0,0.0
8229,58.0,0,180,3.0,0.0
8230,70.0,0,180,1.0,0.0
8231,73.0,0,180,2.0,0.0
8232,85.0,0,180,0.0,0.0
8233,70.0,0,180,2.0,0.0
8234,82.0,0,180,0.0,0.0
8235,80.0,0,180,0.0,0.0
8236,68.0,0,180,1.0,0.0
8237,83.0,1280,180,0.0,0.0
8238,71.0,0,180,1.0,0.0
8239,71.0,0,180,2.0,0.0
8240,68.0,0,180,2.0,0.0
8241,59.0,0,180,3.0,0.0
8242,56.0,0,180,3.0,0.0
8243,87.0,0,1140,0.0,0.0
8244,83.0,0,1140,0.0,0.0
8245,75.0,0,1140,2.0,0.0
8246,71.0,0,1140,2.0,0.0
8247,63.0,0,1140,3.0,0.0
8248,59.0,0,1140,3.0,0.0
8249,75.0,0,1140,1.0,0.0
8250,71.0,96,1140,1.0,0.0
8251,63.0,0,300,10.0,0.0
8252,56.0,0,300,4.0,0.0
8253,63.0,0,300,5.0,0.0
8254,51.0,0,300,5.0,0.0
8255,59.0,0,300,13.0,0.0
8256,51.0,0,300,13.0,0.0
8257,44.0,0,300,13.0,0.0
8258,71.0,224,300,11.0,0.0
8259,68.0,0,300,4.0,0.0
8260,59.0,0,300,12.0,0.0
8261,80.0,0,300,10.0,0.0
8262,71.0,0,300,10.0,0.0
8263,32.0,0,300,14.0,0.0
8264,68.0,0,300,12.0,0.0
8265,80.0,0,300,6.0,0.0
8266,68.0,0,300,6.0,0.0
8267,63.0,0,300,11.0,0.0
8268,73.0,0,180,2.0,0.0
8269,85.0,0,180,0.0,0.0
8270,82.0,0,180,0.0,0.0
8271,70.0,0,180,2.0,0.0
8272,58.0,0,180,3.0,0.0
8273,73.0,0,180,1.0,0.0
8274,70.0,0,180,1.0,0.0
8275,61.0,320,180,3.0,0.0
8276,56.0,0,180,3.0,0.0
8277,71.0,0,180,1.0,0.0
8278,68.0,0,180,1.0,0.0
8279,71.0,0,180,2.0,0.0
8280,68.0,896,180,2.0,0.0
8281,59.0,0,180,3.0,0.0
8282,83.0,0,180,0.0,0.0
8283,80.0,0,180,0.0,0.0
8284,59.0,64,1290,3.0,0.0
8285,63.0,0,1290,3.0,0.0
8286,83.0,0,780,0.0,0.0
8287,87.0,512,780,0.0,0.0
8288,71.0,0,1290,2.0,0.0
8289,75.0,0,1290,2.0,0.0
8290,75.0,256,1350,1.0,0.0
8291,71.0,0,1350,1.0,0.0
8292,32.0,0,390,14.0,0.0
8293,44.0,0,390,13.0,0.0
8294,61.0,0,330,3.0,0.0
8295,73.0,0,330,2.0,0.0
8296,70.0,0,330,2.0,0.0
8297,58.0,224,330,3.0,0.0
8298,63.0,0,390,12.0,0.0
8299,75.0,0,390,10.0,0.0
8300,87.0,0,390,10.0,0.0
8301,59.0,0,390,12.0,0.0
8302,83.0,0,390,0.0,0.0
8303,87.0,0,390,0.0,0.0
8304,71.0,32,390,11.0,0.0
8305,83.0,0,390,11.0,0.0
8306,71.0,0,270,2.0,0.0
8307,68.0,928,270,2.0,0.0
8308,56.0,0,270,3.0,0.0
8309,59.0,0,270,3.0,0.0
8310,59.0,0,1290,3.0,0.0
8311,71.0,64,1290,2.0,0.0
8312,75.0,0,1290,2.0,0.0
8313,63.0,0,1290,3.0,0.0
8314,83.0,0,390,10.0,0.0
8315,68.0,0,390,11.0,0.0
8316,71.0,0,390,10.0,0.0
8317,80.0,0,390,0.0,0.0
8318,59.0,0,390,12.0,0.0
8319,56.0,416,390,12.0,0.0
8320,80.0,0,390,11.0,0.0
8321,83.0,0,390,0.0,0.0
8322,37.0,0,390,14.0,0.0
8323,49.0,256,390,13.0,0.0
8324,73.0,0,330,2.0,0.0
8325,58.0,0,330,3.0,0.0
8326,61.0,224,330,3.0,0.0
8327,70.0,0,330,2.0,0.0
8328,52.0,0,390,12.0,0.0
8329,80.0,0,390,10.0,0.0
8330,76.0,0,390,0.0,0.0
8331,80.0,0,390,0.0,0.0
8332,64.0,32,390,11.0,0.0
8333,76.0,0,390,11.0,0.0
8334,68.0,0,390,10.0,0.0
8335,56.0,0,390,12.0,0.0
8336,71.0,0,270,2.0,0.0
8337,68.0,0,270,2.0,0.0
8338,56.0,0,270,3.0,0.0
8339,59.0,384,270,3.0,0.0
8340,71.0,0,330,2.0,0.0
8341,68.0,0,330,2.0,0.0
8342,56.0,320,330,3.0,0.0
8343,59.0,0,330,3.0,0.0
8344,58.0,0,330,3.0,0.0
8345,70.0,0,330,2.0,0.0
8346,66.0,0,330,2.0,0.0
8347,54.0,224,330,3.0,0.0
8348,85.0,0,390,0.0,0.0
8349,88.0,0,390,10.0,0.0
8350,76.0,0,390,10.0,0.0
8351,73.0,32,390,11.0,0.0
8352,85.0,0,390,11.0,0.0
8353,88.0,0,390,0.0,0.0
8354,61.0,0,390,12.0,0.0
8355,64.0,0,390,12.0,0.0
8356,68.0,384,270,2.0,0.0
8357,64.0,0,270,2.0,0.0
8358,52.0,0,270,3.0,0.0
8359,56.0,0,270,3.0,0.0
8360,70.0,0,330,2.0,0.0
8361,73.0,0,330,2.0,0.0
8362,42.0,256,390,13.0,0.0
8363,58.0,0,330,3.0,0.0
8364,30.0,0,390,14.0,0.0
8365,61.0,64,330,3.0,0.0
8366,56.0,224,330,3.0,0.0
8367,68.0,0,330,2.0,0.0
8368,71.0,0,330,2.0,0.0
8369,59.0,0,330,3.0,0.0
8370,73.0,0,390,10.0,0.0
8371,85.0,0,390,10.0,0.0
8372,70.0,0,390,11.0,0.0
8373,85.0,0,390,0.0,0.0
8374,82.0,0,390,11.0,0.0
8375,58.0,32,390,12.0,0.0
8376,82.0,0,390,0.0,0.0
8377,61.0,0,390,12.0,0.0
8378,66.0,928,270,2.0,0.0
8379,54.0,0,270,3.0,0.0
8380,70.0,0,270,2.0,0.0
8381,58.0,0,270,3.0,0.0
8382,58.0,0,1290,3.0,0.0
8383,70.0,64,1290,2.0,0.0
8384,73.0,0,1290,2.0,0.0
8385,61.0,0,1290,3.0,0.0
8386,78.0,0,390,11.0,0.0
8387,82.0,0,390,0.0,0.0
8388,78.0,0,390,0.0,0.0
8389,54.0,0,390,12.0,0.0
8390,70.0,416,390,10.0,0.0
8391,82.0,0,390,10.0,0.0
8392,58.0,0,390,12.0,0.0
8393,66.0,0,390,11.0,0.0
8394,35.0,0,390,14.0,0.0
8395,47.0,256,390,13.0,0.0
8396,68.0,0,330,2.0,0.0
8397,59.0,0,330,3.0,0.0
8398,56.0,0,330,3.0,0.0
8399,71.0,224,330,2.0,0.0
8400,54.0,0,390,12.0,0.0
8401,75.0,0,390,0.0,0.0
8402,78.0,0,390,0.0,0.0
8403,78.0,32,390,10.0,0.0
8404,66.0,0,390,10.0,0.0
8405,51.0,0,390,12.0,0.0
8406,75.0,0,390,11.0,0.0
8407,63.0,0,390,11.0,0.0
8408,70.0,384,270,2.0,0.0
8409,54.0,0,270,3.0,0.0
8410,58.0,0,270,3.0,0.0
8411,66.0,0,270,2.0,0.0
8412,70.0,0,330,2.0,0.0
8413,66.0,320,330,2.0,0.0
8414,54.0,0,330,3.0,0.0
8415,58.0,0,330,3.0,0.0
8416,64.0,0,330,2.0,0.0
8417,56.0,0,330,3.0,0.0
8418,52.0,224,330,3.0,0.0
8419,68.0,0,330,2.0,0.0
8420,75.0,0,390,10.0,0.0
8421,75.0,64,810,1.0,0.0
8422,83.0,0,390,11.0,0.0
8423,63.0,0,390,12.0,0.0
8424,87.0,32,390,0.0,0.0
8425,83.0,0,390,0.0,0.0
8426,87.0,0,390,10.0,0.0
8427,71.0,0,810,1.0,0.0
8428,71.0,0,390,11.0,0.0
8429,59.0,0,390,12.0,0.0
8430,54.0,384,270,3.0,0.0
8431,63.0,0,270,2.0,0.0
8432,51.0,0,270,3.0,0.0
8433,66.0,0,270,2.0,0.0
8434,56.0,0,1920,3.0,0.0
8435,40.0,256,390,13.0,0.0
8436,52.0,320,1920,3.0,0.0
8437,28.0,0,390,14.0,0.0
8438,70.0,224,330,1.0,0.0
8439,73.0,0,330,1.0,0.0
8440,88.0,0,390,0.0,0.0
8441,92.0,0,390,0.0,0.0
8442,76.0,0,390,11.0,0.0
8443,68.0,0,390,12.0,0.0
8444,92.0,32,390,10.0,0.0
8445,80.0,0,390,10.0,0.0
8446,88.0,0,390,11.0,0.0
8447,64.0,0,390,12.0,0.0
8448,71.0,384,270,1.0,0.0
8449,68.0,0,270,1.0,0.0
8450,76.0,320,330,1.0,0.0
8451,80.0,0,330,1.0,0.0
8452,75.0,224,330,1.0,0.0
8453,78.0,0,330,1.0,0.0
8454,80.0,0,390,0.0,0.0
8455,80.0,0,390,10.0,0.0
8456,76.0,0,390,0.0,0.0
8457,68.0,32,390,10.0,0.0
8458,56.0,0,390,12.0,0.0
8459,64.0,0,390,11.0,0.0
8460,76.0,0,390,11.0,0.0
8461,52.0,0,390,12.0,0.0
8462,73.0,0,270,1.0,0.0
8463,76.0,64,270,1.0,0.0
8464,59.0,0,1830,3.0,0.0
8465,35.0,256,390,14.0,0.0
8466,78.0,0,330,1.0,0.0
8467,75.0,64,330,1.0,0.0
8468,47.0,0,1830,3.0,0.0
8469,47.0,0,390,13.0,0.0
8470,76.0,0,330,1.0,0.0
8471,73.0,224,330,1.0,0.0
8472,83.0,32,390,10.0,0.0
8473,59.0,0,390,12.0,0.0
8474,71.0,0,390,10.0,0.0
8475,51.0,0,390,12.0,0.0
8476,75.0,0,390,11.0,0.0
8477,75.0,0,390,0.0,0.0
8478,83.0,0,390,0.0,0.0
8479,63.0,0,390,11.0,0.0
8480,71.0,0,270,1.0,0.0
8481,75.0,928,270,1.0,0.0
8482,75.0,368,900,1.0,0.0
8483,78.0,0,900,1.0,0.0
8484,71.0,0,390,11.0,0.0
8485,75.0,48,390,10.0,0.0
8486,87.0,0,390,10.0,0.0
8487,66.0,64,810,2.0,0.0
8488,69.0,0,810,2.0,0.0
8489,83.0,0,390,11.0,0.0
8490,83.0,0,390,0.0,0.0
8491,87.0,0,390,0.0,0.0
8492,63.0,0,390,12.0,0.0
8493,59.0,0,390,12.0,0.0
8494,54.0,0,1920,3.0,0.0
8495,42.0,0,390,13.0,0.0
8496,57.0,320,1920,3.0,0.0
8497,30.0,256,390,14.0,0.0
8498,68.0,0,330,2.0,0.0
8499,64.0,224,330,2.0,0.0
8500,81.0,0,390,0.0,0.0
8501,57.0,0,390,12.0,0.0
8502,78.0,0,390,10.0,0.0
8503,66.0,0,390,12.0,0.0
8504,90.0,0,390,0.0,0.0
8505,81.0,32,390,11.0,0.0
8506,69.0,0,390,11.0,0.0
8507,90.0,0,390,10.0,0.0
8508,63.0,0,270,2.0,0.0
8509,66.0,384,270,2.0,0.0
8510,69.0,320,330,2.0,0.0
8511,73.0,0,330,2.0,0.0
8512,71.0,224,330,2.0,0.0
8513,68.0,0,330,2.0,0.0
8514,66.0,32,390,11.0,0.0
8515,54.0,0,390,12.0,0.0
8516,81.0,0,390,10.0,0.0
8517,69.0,0,390,10.0,0.0
8518,81.0,0,390,0.0,0.0
8519,78.0,0,390,0.0,0.0
8520,78.0,0,390,11.0,0.0
8521,57.0,0,390,12.0,0.0
8522,69.0,0,270,2.0,0.0
8523,66.0,64,270,2.0,0.0
8524,68.0,0,330,2.0,0.0
8525,64.0,64,330,2.0,0.0
8526,61.0,480,1830,3.0,0.0
8527,49.0,0,1830,3.0,0.0
8528,37.0,256,390,14.0,0.0
8529,49.0,0,390,13.0,0.0
8530,63.0,224,330,2.0,0.0
8531,66.0,0,330,2.0,0.0
8532,85.0,0,390,10.0,0.0
8533,73.0,0,390,10.0,0.0
8534,52.0,0,390,12.0,0.0
8535,76.0,0,390,0.0,0.0
8536,64.0,0,390,11.0,0.0
8537,76.0,0,390,11.0,0.0
8538,61.0,0,390,12.0,0.0
8539,85.0,96,390,0.0,0.0
8540,64.0,768,330,2.0,0.0
8541,61.0,0,330,2.0,0.0
8542,64.0,96,780,2.0,0.0
8543,68.0,0,780,2.0,0.0
8544,64.0,0,390,12.0,0.0
8545,56.0,0,390,12.0,0.0
8546,80.0,0,390,11.0,0.0
8547,88.0,0,390,10.0,0.0
8548,76.0,0,390,10.0,0.0
8549,68.0,0,390,11.0,0.0
8550,70.0,0,1830,5.0,0.0
8551,58.0,0,1830,3.0,0.0
8552,87.0,816,390,10.0,0.0
8553,63.0,0,390,12.0,0.0
8554,55.0,0,390,12.0,0.0
8555,63.0,0,1830,5.0,0.0
8556,79.0,0,1830,1.0,0.0
8557,63.0,0,1830,2.0,0.0
8558,73.0,0,1830,1.0,0.0
8559,39.0,0,390,14.0,0.0
8560,75.0,0,390,10.0,0.0
8561,51.0,0,390,13.0,0.0
8562,75.0,0,1830,0.0,0.0
8563,85.0,240,1200,0.0,0.0
8564,67.0,0,390,11.0,0.0
8565,79.0,0,390,11.0,0.0
8566,67.0,48,1830,2.0,0.0
8567,51.0,0,1830,3.0,0.0
8568,84.0,240,240,0.0,0.0
8569,85.0,144,240,0.0,0.0
8570,82.0,1248,180,0.0,0.0
8571,58.0,0,1830,10.0,0.0
8572,73.0,240,1200,12.0,0.0
8573,56.0,0,1830,13.0,0.0
8574,52.0,0,1830,13.0,0.0
8575,70.0,48,1830,11.0,0.0
8576,68.0,0,1830,10.0,0.0
8577,61.0,0,1830,11.0,0.0
8578,72.0,240,240,12.0,0.0
8579,73.0,144,240,12.0,0.0
8580,70.0,1248,180,12.0,0.0
8581,51.0,0,1890,3.0,0.0
8582,49.0,0,1890,3.0,0.0
8583,63.0,0,1890,2.0,0.0
8584,67.0,0,1890,2.0,0.0
8585,58.0,0,1890,5.0,0.0
8586,67.0,1238,1890,4.0,0.0
8587,49.0,240,1200,13.0,0.0
8588,63.0,0,1890,5.0,0.0
8589,55.0,0,1890,4.0,0.0
8590,48.0,240,240,13.0,0.0
8591,49.0,192,240,13.0,0.0
8592,46.0,10,180,13.0,0.0
8593,70.0,0,1890,12.0,0.0
8594,67.0,0,1890,11.0,0.0
8595,55.0,0,1890,12.0,0.0
8596,48.0,0,1890,12.0,0.0
8597,64.0,0,1890,11.0,0.0
8598,36.0,0,1890,13.0,0.0
8599,43.0,1238,1890,13.0,0.0
8600,82.0,240,1200,10.0,0.0
8601,76.0,0,1890,11.0,0.0
8602,72.0,0,1890,11.0,0.0
8603,60.0,0,1890,12.0,0.0
8604,79.0,240,240,10.0,0.0
8605,76.0,192,240,10.0,0.0
8606,70.0,10,180,10.0,0.0
8607,53.0,0,1890,3.0,0.0
8608,60.0,0,1890,3.0,0.0
8609,65.0,0,1530,5.0,0.0
8610,72.0,144,1530,5.0,0.0
8611,69.0,0,1890,2.0,0.0
8612,69.0,0,1890,1.0,0.0
8613,75.0,0,1890,1.0,0.0
8614,72.0,1238,1890,2.0,0.0
8615,81.0,0,1890,0.0,0.0
8616,87.0,240,1200,0.0,0.0
8617,86.0,96,240,0.0,0.0
8618,87.0,192,240,0.0,0.0
8619,84.0,10,180,0.0,0.0
8620,60.0,0,1890,10.0,0.0
8621,72.0,0,1890,11.0,0.0
8622,63.0,1238,1890,11.0,0.0
8623,54.0,0,1890,13.0,0.0
8624,70.0,0,1890,10.0,0.0
8625,75.0,240,1200,12.0,0.0
8626,58.0,0,1890,13.0,0.0
8627,74.0,240,240,12.0,0.0
8628,75.0,192,240,12.0,0.0
8629,72.0,10,180,12.0,0.0
8630,53.0,0,1830,3.0,0.0
8631,51.0,0,1830,3.0,0.0
8632,57.0,0,1830,5.0,0.0
8633,60.0,0,1830,5.0,0.0
8634,65.0,96,1830,4.0,0.0
8635,69.0,0,1830,4.0,0.0
8636,69.0,0,1830,2.0,0.0
8637,65.0,0,1830,2.0,0.0
8638,51.0,240,1200,13.0,0.0
8639,50.0,240,240,13.0,0.0
8640,51.0,144,240,13.0,0.0
8641,48.0,1200,240,13.0,0.0
8642,66.0,0,1830,11.0,0.0
8643,45.0,0,1830,13.0,0.0
8644,62.0,0,1830,12.0,0.0
8645,57.0,0,1830,12.0,0.0
8646,50.0,0,1830,12.0,0.0
8647,72.0,0,1830,12.0,0.0
8648,69.0,48,1830,11.0,0.0
8649,78.0,0,1830,11.0,0.0
8650,74.0,0,1830,11.0,0.0
8651,84.0,240,1200,10.0,0.0
8652,38.0,0,1830,13.0,0.0
8653,81.0,240,240,10.0,0.0
8654,78.0,144,240,10.0,0.0
8655,72.0,1248,180,10.0,0.0
8656,65.0,144,1530,2.0,0.0
8657,55.0,0,1830,5.0,0.0
8658,77.0,240,1200,2.0,0.0
8659,55.0,0,1830,3.0,0.0
8660,71.0,0,1830,1.0,0.0
8661,62.0,0,1830,4.0,0.0
8662,59.0,48,1830,3.0,0.0
8663,67.0,0,1830,5.0,0.0
8664,59.0,0,1830,4.0,0.0
8665,76.0,96,240,2.0,0.0
8666,77.0,144,240,2.0,0.0
8667,74.0,1248,180,2.0,0.0
8668,44.0,0,1830,13.0,0.0
8669,52.0,0,1830,13.0,0.0
8670,74.0,0,1830,11.0,0.0
8671,64.0,0,1530,4.0,0.0
8672,76.0,0,1830,11.0,0.0
8673,83.0,0,1830,11.0,0.0
8674,86.0,240,1200,10.0,0.0
8675,52.0,144,1530,4.0,0.0
8676,52.0,0,1830,12.0,0.0
8677,59.0,0,1830,12.0,0.0
8678,64.0,48,1830,12.0,0.0
8679,74.0,0,1830,12.0,0.0
8680,71.0,0,1830,11.0,0.0
8681,83.0,96,240,10.0,0.0
8682,80.0,144,240,10.0,0.0
8683,74.0,1248,180,10.0,0.0
8684,69.0,0,1830,4.0,0.0
8685,73.0,48,1830,1.0,0.0
8686,64.0,0,1830,5.0,0.0
8687,57.0,0,1830,5.0,0.0
8688,64.0,0,1830,2.0,0.0
8689,64.0,0,1830,4.0,0.0
8690,79.0,240,1200,2.0,0.0
8691,61.0,0,1830,3.0,0.0
8692,57.0,0,1830,3.0,0.0
8693,78.0,240,240,2.0,0.0
8694,79.0,144,240,2.0,0.0
8695,76.0,1248,180,2.0,0.0
8696,85.0,0,1830,11.0,0.0
8697,73.0,48,1830,11.0,0.0
8698,66.0,0,1830,11.0,0.0
8699,66.0,144,1530,4.0,0.0
8700,88.0,240,1200,10.0,0.0
8701,46.0,0,1530,13.0,0.0
8702,54.0,0,1530,13.0,0.0
8703,66.0,0,1830,12.0,0.0
8704,76.0,0,1830,12.0,0.0
8705,61.0,0,1830,12.0,0.0
8706,54.0,0,1830,12.0,0.0
8707,76.0,0,1830,11.0,0.0
8708,85.0,96,240,10.0,0.0
8709,82.0,144,240,10.0,0.0
8710,76.0,1248,180,10.0,0.0
8711,71.0,1248,1860,1.0,0.0
8712,81.0,240,1200,1.0,0.0
8713,75.0,0,1530,2.0,0.0
8714,66.0,0,1530,4.0,0.0
8715,81.0,144,1530,0.0,0.0
8716,78.0,0,1530,0.0,0.0
8717,69.0,0,1530,2.0,0.0
8718,59.0,0,1530,4.0,0.0
8719,80.0,96,240,1.0,0.0
8720,81.0,192,240,1.0,0.0
8721,78.0,0,180,1.0,0.0
8722,64.0,144,1530,5.0,0.0
8723,52.0,0,1530,5.0,0.0
8724,78.0,0,1830,11.0,0.0
8725,60.0,0,1830,11.0,0.0
8726,69.0,0,1830,11.0,0.0
8727,88.0,240,1200,10.0,0.0
8728,66.0,0,1830,12.0,0.0
8729,57.0,0,1830,12.0,0.0
8730,76.0,0,1830,12.0,0.0
8731,81.0,0,1830,11.0,0.0
8732,57.0,48,1830,13.0,0.0
8733,48.0,0,1830,13.0,0.0
8734,84.0,96,240,10.0,0.0
8735,81.0,144,240,10.0,0.0
8736,78.0,1248,180,10.0,0.0
8737,66.0,144,1530,4.0,0.0
8738,59.0,0,1530,4.0,0.0
8739,69.0,240,1200,2.0,0.0
8740,59.0,0,1830,3.0,0.0
8741,63.0,48,1830,3.0,0.0
8742,68.0,96,240,2.0,0.0
8743,69.0,144,240,2.0,0.0
8744,66.0,1248,180,2.0,0.0
8745,76.0,240,1200,12.0,0.0
8746,66.0,0,1830,10.0,0.0
8747,54.0,0,1830,13.0,0.0
8748,60.0,0,1830,11.0,0.0
8749,64.0,0,1830,11.0,0.0
8750,64.0,0,1830,5.0,0.0
8751,45.0,0,1830,13.0,0.0
8752,57.0,84,1830,10.0,0.0
8753,52.0,0,1830,5.0,0.0
8754,72.0,240,240,12.0,0.0
8755,69.0,144,240,12.0,0.0
8756,66.0,396,240,12.0,0.0
8757,57.0,0,6240,12.0,0.0
8758,64.0,960,960,13.0,0.0
8759,60.0,0,6240,11.0,0.0
8760,64.0,480,5760,10.0,0.0
8761,54.0,0,6240,12.0,0.0
8762,30.0,576,390,14.0,0.0
8763,60.0,960,960,13.0,0.0
8764,57.0,912,960,13.0,0.0
8765,54.0,432,900,13.0,0.0
8766,35.0,1536,390,14.0,0.0
8767,47.0,0,390,13.0,0.0
8768,63.0,1440,480,10.0,0.0
8769,59.0,0,960,3.0,0.0
8770,59.0,0,960,2.0,0.0
8771,47.0,0,960,3.0,0.0
8772,71.0,1920,960,2.0,0.0
8773,71.0,0,960,1.0,0.0
8774,83.0,0,960,1.0,0.0
8775,67.0,0,1920,2.0,0.0
8776,55.0,0,1920,3.0,0.0
8777,67.0,0,1920,1.0,0.0
8778,79.0,1824,1920,1.0,0.0
8779,55.0,0,1920,2.0,0.0
8780,43.0,0,1920,3.0,0.0
8781,52.0,0,1830,2.0,0.0
8782,64.0,0,1830,2.0,0.0
8783,64.0,144,1830,1.0,0.0
8784,40.0,0,1830,3.0,0.0
8785,52.0,0,1830,3.0,0.0
8786,76.0,0,1830,1.0,0.0
8787,84.0,0,6150,0.0,0.0
8788,76.0,0,6150,0.0,0.0
8789,36.0,0,6150,3.0,0.0
8790,43.0,0,3840,3.0,0.0
8791,55.0,12,3450,4.0,0.0
8792,60.0,0,6150,2.0,0.0
8793,64.0,0,6150,6.0,0.0
8794,76.0,0,6150,6.0,0.0
8795,64.0,0,6150,4.0,0.0
8796,84.0,0,6150,1.0,0.0
8797,76.0,0,6150,1.0,0.0
8798,72.0,0,6150,2.0,0.0
8799,36.0,0,6150,5.0,0.0
8800,48.0,0,6150,5.0,0.0
8801,36.0,48,240,13.0,0.0
8802,36.0,24,390,14.0,0.0
8803,52.0,60,40,7.0,0.0
8804,52.0,60,40,7.0,0.0
8805,52.0,60,40,7.0,0.0
8806,52.0,12,40,7.0,0.0
8807,43.0,48,240,13.0,0.0
8808,55.0,0,240,12.0,0.0
8809,52.0,60,40,7.0,0.0
8810,55.0,0,240,10.0,0.0
8811,52.0,36,40,7.0,0.0
8812,52.0,60,40,7.0,0.0
8813,52.0,12,40,7.0,0.0
8814,60.0,0,240,12.0,0.0
8815,48.0,0,240,13.0,0.0
8816,60.0,48,240,10.0,0.0
8817,52.0,60,40,7.0,0.0
8818,52.0,60,40,7.0,0.0
8819,52.0,60,40,7.0,0.0
8820,52.0,12,40,7.0,0.0
8821,52.0,0,240,13.0,0.0
8822,64.0,48,240,10.0,0.0
8823,62.0,0,240,12.0,0.0
8824,52.0,60,40,7.0,0.0
8825,52.0,60,40,7.0,0.0
8826,52.0,60,40,7.0,0.0
8827,52.0,12,40,7.0,0.0
8828,52.0,60,40,7.0,0.0
8829,56.0,0,240,13.0,0.0
8830,68.0,48,240,12.0,0.0
8831,68.0,0,240,10.0,0.0
8832,52.0,60,40,7.0,0.0
8833,52.0,60,40,7.0,0.0
8834,52.0,12,40,7.0,0.0
8835,64.0,0,240,10.0,0.0
8836,64.0,48,240,12.0,0.0
8837,52.0,60,40,7.0,0.0
8838,52.0,0,240,13.0,0.0
8839,52.0,60,40,7.0,0.0
8840,52.0,60,40,7.0,0.0
8841,52.0,12,40,7.0,0.0
8842,67.0,0,240,10.0,0.0
8843,55.0,0,240,13.0,0.0
8844,55.0,48,240,11.0,0.0
8845,52.0,60,40,7.0,0.0
8846,67.0,0,240,12.0,0.0
8847,52.0,60,40,7.0,0.0
8848,52.0,60,40,7.0,0.0
8849,52.0,12,40,7.0,0.0
8850,60.0,0,240,12.0,0.0
8851,60.0,0,240,13.0,0.0
8852,72.0,0,240,10.0,0.0
8853,62.0,48,240,11.0,0.0
8854,52.0,60,40,7.0,0.0
8855,52.0,60,40,7.0,0.0
8856,52.0,60,40,7.0,0.0
8857,52.0,12,40,7.0,0.0
8858,64.0,0,240,11.0,0.0
8859,76.0,48,240,10.0,0.0
8860,64.0,0,240,12.0,0.0
8861,52.0,60,40,7.0,0.0
8862,64.0,0,240,13.0,0.0
8863,52.0,60,40,7.0,0.0
8864,52.0,60,40,7.0,0.0
8865,52.0,12,40,7.0,0.0
8866,67.0,0,240,12.0,0.0
8867,67.0,48,240,11.0,0.0
8868,52.0,60,40,7.0,0.0
8869,79.0,0,240,10.0,0.0
8870,52.0,60,40,7.0,0.0
8871,52.0,60,40,7.0,0.0
8872,52.0,12,40,7.0,0.0
8873,80.0,0,240,10.0,0.0
8874,68.0,0,240,12.0,0.0
8875,68.0,48,240,11.0,0.0
8876,52.0,60,40,7.0,0.0
8877,52.0,60,40,7.0,0.0
8878,52.0,60,40,7.0,0.0
8879,52.0,12,40,7.0,0.0
8880,76.0,48,240,10.0,0.0
8881,64.0,0,240,12.0,0.0
8882,64.0,0,240,11.0,0.0
8883,52.0,60,40,7.0,0.0
8884,52.0,60,40,7.0,0.0
8885,52.0,60,40,7.0,0.0
8886,52.0,12,40,7.0,0.0
8887,67.0,0,240,12.0,0.0
8888,79.0,48,240,10.0,0.0
8889,52.0,60,40,7.0,0.0
8890,67.0,0,240,11.0,0.0
8891,52.0,60,40,7.0,0.0
8892,52.0,60,40,7.0,0.0
8893,52.0,12,40,7.0,0.0
8894,84.0,48,240,10.0,0.0
8895,72.0,0,240,12.0,0.0
8896,72.0,0,240,11.0,0.0
8897,52.0,60,40,7.0,0.0
8898,52.0,60,40,7.0,0.0
8899,52.0,60,40,7.0,0.0
8900,52.0,12,40,7.0,0.0
8901,76.0,0,240,11.0,0.0
8902,88.0,48,240,10.0,0.0
8903,52.0,48,40,7.0,0.0
8904,76.0,0,240,12.0,0.0
8905,52.0,60,40,7.0,0.0
8906,52.0,60,40,7.0,0.0
8907,52.0,12,40,7.0,0.0
8908,52.0,60,40,7.0,0.0
8909,72.0,48,240,12.0,0.0
8910,72.0,0,240,11.0,0.0
8911,84.0,0,240,10.0,0.0
8912,52.0,60,40,7.0,0.0
8913,52.0,60,40,7.0,0.0
8914,52.0,12,40,7.0,0.0
8915,67.0,24,390,11.0,0.0
8916,48.0,0,2310,3.0,0.0
8917,52.0,1536,2310,4.0,0.0
8918,52.0,60,40,7.0,0.0
8919,79.0,0,240,10.0,0.0
8920,67.0,48,240,12.0,0.0
8921,52.0,60,40,7.0,0.0
8922,52.0,60,40,7.0,0.0
8923,52.0,12,40,7.0,0.0
8924,64.0,0,240,12.0,0.0
8925,76.0,48,240,10.0,0.0
8926,52.0,60,40,7.0,0.0
8927,52.0,36,40,7.0,0.0
8928,52.0,60,40,7.0,0.0
8929,52.0,12,40,7.0,0.0
8930,52.0,60,40,7.0,0.0
8931,72.0,0,240,10.0,0.0
8932,60.0,48,240,12.0,0.0
8933,52.0,60,40,7.0,0.0
8934,52.0,60,40,7.0,0.0
8935,52.0,12,40,7.0,0.0
8936,67.0,48,240,10.0,0.0
8937,67.0,0,240,12.0,0.0
8938,52.0,60,40,7.0,0.0
8939,52.0,60,40,7.0,0.0
8940,52.0,60,40,7.0,0.0
8941,52.0,12,40,7.0,0.0
8942,68.0,48,240,11.0,0.0
8943,68.0,24,390,10.0,0.0
8944,52.0,60,40,7.0,0.0
8945,68.0,0,240,12.0,0.0
8946,52.0,60,40,7.0,0.0
8947,52.0,60,40,7.0,0.0
8948,52.0,12,40,7.0,0.0
8949,64.0,0,240,11.0,0.0
8950,64.0,48,240,12.0,0.0
8951,52.0,60,40,7.0,0.0
8952,52.0,36,40,7.0,0.0
8953,52.0,60,40,7.0,0.0
8954,52.0,12,40,7.0,0.0
8955,60.0,48,240,11.0,0.0
8956,60.0,0,240,12.0,0.0
8957,52.0,60,40,7.0,0.0
8958,52.0,60,40,7.0,0.0
8959,52.0,60,40,7.0,0.0
8960,52.0,12,40,7.0,0.0
8961,52.0,60,40,7.0,0.0
8962,55.0,0,240,12.0,0.0
8963,55.0,384,240,11.0,0.0
8964,52.0,60,40,7.0,0.0
8965,52.0,60,40,7.0,0.0
8966,52.0,12,40,7.0,0.0
8967,56.0,0,390,11.0,0.0
8968,52.0,0,390,7.0,0.0
8969,56.0,0,390,12.0,0.0
8970,57.0,0,960,2.0,0.0
8971,45.0,0,960,3.0,0.0
8972,57.0,1920,960,3.0,0.0
8973,81.0,0,960,1.0,0.0
8974,69.0,0,960,1.0,0.0
8975,69.0,0,960,2.0,0.0
8976,66.0,1824,1920,2.0,0.0
8977,54.0,0,1920,2.0,0.0
8978,78.0,0,1920,1.0,0.0
8979,66.0,0,1920,1.0,0.0
8980,42.0,0,1920,3.0,0.0
8981,54.0,0,1920,3.0,0.0
8982,63.0,0,1830,1.0,0.0
8983,39.0,144,1830,3.0,0.0
8984,51.0,0,1830,3.0,0.0
8985,63.0,0,1830,2.0,0.0
8986,51.0,0,1830,2.0,0.0
8987,75.0,0,1830,1.0,0.0
8988,83.0,0,6150,0.0,0.0
8989,83.0,0,6150,1.0,0.0
8990,43.0,0,6150,3.0,0.0
8991,59.0,0,6150,3.0,0.0
8992,31.0,24,390,14.0,0.0
8993,59.0,0,6150,4.0,0.0
8994,47.0,0,6150,4.0,0.0
8995,47.0,60,40,7.0,0.0
8996,71.0,0,6150,1.0,0.0
8997,55.0,0,6150,5.0,0.0
8998,79.0,0,6150,0.0,0.0
8999,67.0,0,6150,2.0,0.0
9000,43.0,0,6150,5.0,0.0
9001,71.0,0,6150,2.0,0.0
9002,71.0,0,6150,6.0,0.0
9003,59.0,1536,6150,6.0,0.0
9004,47.0,60,40,7.0,0.0
9005,47.0,60,40,7.0,0.0
9006,47.0,60,40,7.0,0.0
9007,55.0,0,240,10.0,0.0
9008,47.0,60,40,7.0,0.0
9009,43.0,0,240,13.0,0.0
9010,55.0,48,240,12.0,0.0
9011,47.0,36,40,7.0,0.0
9012,47.0,60,40,7.0,0.0
9013,47.0,12,40,7.0,0.0
9014,47.0,60,40,7.0,0.0
9015,59.0,48,240,12.0,0.0
9016,59.0,0,240,10.0,0.0
9017,47.0,0,240,13.0,0.0
9018,47.0,60,40,7.0,0.0
9019,47.0,60,40,7.0,0.0
9020,47.0,12,40,7.0,0.0
9021,63.0,0,240,10.0,0.0
9022,51.0,0,240,13.0,0.0
9023,63.0,48,240,12.0,0.0
9024,47.0,60,40,7.0,0.0
9025,47.0,60,40,7.0,0.0
9026,47.0,60,40,7.0,0.0
9027,47.0,12,40,7.0,0.0
9028,66.0,0,240,10.0,0.0
9029,54.0,0,240,13.0,0.0
9030,47.0,60,40,7.0,0.0
9031,66.0,48,240,12.0,0.0
9032,47.0,60,40,7.0,0.0
9033,47.0,60,40,7.0,0.0
9034,47.0,12,40,7.0,0.0
9035,47.0,60,40,7.0,0.0
9036,63.0,48,240,10.0,0.0
9037,63.0,0,240,12.0,0.0
9038,51.0,0,240,13.0,0.0
9039,47.0,60,40,7.0,0.0
9040,47.0,60,40,7.0,0.0
9041,47.0,12,40,7.0,0.0
9042,64.0,48,240,12.0,0.0
9043,52.0,0,240,13.0,0.0
9044,47.0,60,40,7.0,0.0
9045,64.0,0,240,10.0,0.0
9046,47.0,60,40,7.0,0.0
9047,47.0,60,40,7.0,0.0
9048,47.0,12,40,7.0,0.0
9049,67.0,48,240,10.0,0.0
9050,67.0,0,240,12.0,0.0
9051,55.0,0,240,13.0,0.0
9052,47.0,60,40,7.0,0.0
9053,47.0,60,40,7.0,0.0
9054,47.0,60,40,7.0,0.0
9055,47.0,12,40,7.0,0.0
9056,59.0,48,240,12.0,0.0
9057,47.0,60,40,7.0,0.0
9058,59.0,0,240,13.0,0.0
9059,59.0,0,240,11.0,0.0
9060,71.0,0,240,10.0,0.0
9061,47.0,60,40,7.0,0.0
9062,47.0,60,40,7.0,0.0
9063,47.0,12,40,7.0,0.0
9064,63.0,48,240,12.0,0.0
9065,47.0,60,40,7.0,0.0
9066,75.0,0,240,10.0,0.0
9067,63.0,0,240,11.0,0.0
9068,47.0,60,40,7.0,0.0
9069,47.0,60,40,7.0,0.0
9070,47.0,12,40,7.0,0.0
9071,66.0,0,240,11.0,0.0
9072,78.0,0,240,10.0,0.0
9073,66.0,48,240,12.0,0.0
9074,47.0,60,40,7.0,0.0
9075,47.0,60,40,7.0,0.0
9076,47.0,60,40,7.0,0.0
9077,47.0,12,40,7.0,0.0
9078,71.0,0,240,10.0,0.0
9079,59.0,48,240,11.0,0.0
9080,47.0,60,40,7.0,0.0
9081,59.0,0,240,12.0,0.0
9082,47.0,60,40,7.0,0.0
9083,47.0,60,40,7.0,0.0
9084,47.0,12,40,7.0,0.0
9085,47.0,60,40,7.0,0.0
9086,64.0,0,240,12.0,0.0
9087,76.0,48,240,10.0,0.0
9088,64.0,0,240,11.0,0.0
9089,47.0,60,40,7.0,0.0
9090,47.0,60,40,7.0,0.0
9091,47.0,12,40,7.0,0.0
9092,67.0,48,240,11.0,0.0
9093,67.0,0,240,12.0,0.0
9094,79.0,0,240,10.0,0.0
9095,47.0,60,40,7.0,0.0
9096,47.0,60,40,7.0,0.0
9097,47.0,60,40,7.0,0.0
9098,47.0,12,40,7.0,0.0
9099,83.0,48,240,10.0,0.0
9100,71.0,0,240,12.0,0.0
9101,71.0,0,240,11.0,0.0
9102,47.0,60,40,7.0,0.0
9103,47.0,60,40,7.0,0.0
9104,47.0,60,40,7.0,0.0
9105,47.0,12,40,7.0,0.0
9106,79.0,0,240,10.0,0.0
9107,47.0,60,40,7.0,0.0
9108,67.0,48,240,11.0,0.0
9109,67.0,0,240,12.0,0.0
9110,47.0,60,40,7.0,0.0
9111,47.0,60,40,7.0,0.0
9112,47.0,12,40,7.0,0.0
9113,47.0,60,40,7.0,0.0
9114,76.0,0,240,10.0,0.0
9115,64.0,0,240,11.0,0.0
9116,64.0,48,240,13.0,0.0
9117,64.0,0,240,12.0,0.0
9118,47.0,60,40,7.0,0.0
9119,47.0,60,40,7.0,0.0
9120,47.0,12,40,7.0,0.0
9121,59.0,0,240,12.0,0.0
9122,59.0,48,240,11.0,0.0
9123,71.0,0,240,10.0,0.0
9124,59.0,0,240,13.0,0.0
9125,47.0,60,40,7.0,0.0
9126,47.0,60,40,7.0,0.0
9127,47.0,60,40,7.0,0.0
9128,47.0,12,40,7.0,0.0
9129,55.0,48,240,13.0,0.0
9130,55.0,0,240,12.0,0.0
9131,67.0,0,240,10.0,0.0
9132,47.0,60,40,7.0,0.0
9133,55.0,0,240,11.0,0.0
9134,47.0,60,40,7.0,0.0
9135,47.0,60,40,7.0,0.0
9136,47.0,12,40,7.0,0.0
9137,64.0,48,240,12.0,0.0
9138,47.0,60,40,7.0,0.0
9139,64.0,0,240,10.0,0.0
9140,52.0,0,240,13.0,0.0
9141,47.0,60,40,7.0,0.0
9142,47.0,60,40,7.0,0.0
9143,47.0,12,40,7.0,0.0
9144,53.0,0,240,13.0,0.0
9145,47.0,60,40,7.0,0.0
9146,65.0,24,390,10.0,0.0
9147,65.0,48,240,12.0,0.0
9148,47.0,60,40,7.0,0.0
9149,47.0,60,40,7.0,0.0
9150,47.0,12,40,7.0,0.0
9151,62.0,48,240,12.0,0.0
9152,50.0,0,240,13.0,0.0
9153,47.0,60,40,7.0,0.0
9154,47.0,36,40,7.0,0.0
9155,47.0,60,40,7.0,0.0
9156,47.0,12,40,7.0,0.0
9157,59.0,48,240,12.0,0.0
9158,47.0,0,240,13.0,0.0
9159,47.0,60,40,7.0,0.0
9160,47.0,60,40,7.0,0.0
9161,47.0,60,40,7.0,0.0
9162,47.0,12,40,7.0,0.0
9163,52.0,384,240,12.0,0.0
9164,43.0,0,240,13.0,0.0
9165,47.0,60,40,7.0,0.0
9166,47.0,60,40,7.0,0.0
9167,47.0,60,40,7.0,0.0
9168,47.0,12,40,7.0,0.0
9169,53.0,0,390,12.0,0.0
9170,47.0,0,390,7.0,0.0
9171,53.0,0,390,13.0,0.0
9172,63.0,0,480,11.0,0.0
9173,75.0,240,480,10.0,0.0
9174,64.0,0,1920,5.0,0.0
9175,76.0,0,780,10.0,0.0
9176,60.0,0,1920,5.0,0.0
9177,64.0,96,780,11.0,0.0
9178,36.0,0,780,14.0,0.0
9179,36.0,240,240,13.0,0.0
9180,43.0,240,240,13.0,0.0
9181,88.0,0,390,0.0,0.0
9182,60.0,0,390,3.0,0.0
9183,76.0,0,390,2.0,0.0
9184,64.0,96,390,3.0,0.0
9185,72.0,0,390,2.0,0.0
9186,84.0,0,390,0.0,0.0
9187,52.0,48,240,13.0,0.0
9188,55.0,240,240,13.0,0.0
9189,48.0,96,390,13.0,0.0
9190,52.0,0,240,12.0,0.0
9191,60.0,144,240,12.0,0.0
9192,64.0,0,240,12.0,0.0
9193,55.0,240,240,12.0,0.0
9194,76.0,0,390,0.0,0.0
9195,79.0,0,480,10.0,0.0
9196,67.0,0,240,12.0,0.0
9197,60.0,144,240,12.0,0.0
9198,52.0,0,390,3.0,0.0
9199,72.0,0,390,0.0,0.0
9200,60.0,0,390,2.0,0.0
9201,64.0,0,390,2.0,0.0
9202,48.0,96,390,3.0,0.0
9203,67.0,240,480,11.0,0.0
9204,72.0,0,240,12.0,0.0
9205,64.0,0,240,12.0,0.0
9206,62.0,0,390,12.0,0.0
9207,71.0,96,390,12.0,0.0
9208,62.0,0,1920,5.0,0.0
9209,55.0,0,1920,5.0,0.0
9210,83.0,96,780,10.0,0.0
9211,43.0,144,240,13.0,0.0
9212,71.0,0,780,11.0,0.0
9213,31.0,0,780,14.0,0.0
9214,50.0,240,240,13.0,0.0
9215,55.0,48,240,13.0,0.0
9216,62.0,96,390,2.0,0.0
9217,74.0,0,390,0.0,0.0
9218,71.0,0,390,0.0,0.0
9219,50.0,0,390,3.0,0.0
9220,43.0,0,390,3.0,0.0
9221,59.0,0,390,2.0,0.0
9222,59.0,240,240,13.0,0.0
9223,50.0,96,390,13.0,0.0
9224,55.0,144,240,12.0,0.0
9225,59.0,0,15,12.0,0.0
9226,62.0,240,240,12.0,0.0
9227,86.0,0,480,10.0,0.0
9228,67.0,0,390,2.0,0.0
9229,67.0,0,240,12.0,0.0
9230,62.0,144,240,12.0,0.0
9231,71.0,0,390,2.0,0.0
9232,74.0,240,480,11.0,0.0
9233,55.0,0,390,3.0,0.0
9234,79.0,96,390,0.0,0.0
9235,83.0,0,390,0.0,0.0
9236,59.0,0,390,3.0,0.0
9237,71.0,0,240,12.0,0.0
9238,67.0,0,240,12.0,0.0
9239,62.0,96,780,11.0,0.0
9240,74.0,0,390,12.0,0.0
9241,65.0,96,390,12.0,0.0
9242,38.0,144,240,13.0,0.0
9243,74.0,0,780,10.0,0.0
9244,38.0,0,780,14.0,0.0
9245,62.0,192,1920,5.0,0.0
9246,65.0,0,1920,5.0,0.0
9247,45.0,240,240,13.0,0.0
9248,62.0,0,390,3.0,0.0
9249,53.0,0,390,3.0,0.0
9250,86.0,0,390,0.0,0.0
9251,53.0,48,240,13.0,0.0
9252,74.0,0,390,2.0,0.0
9253,65.0,0,390,2.0,0.0
9254,77.0,96,390,0.0,0.0
9255,57.0,240,240,13.0,0.0
9256,50.0,96,390,13.0,0.0
9257,62.0,0,240,12.0,0.0
9258,53.0,144,240,12.0,0.0
9259,57.0,240,240,12.0,0.0
9260,65.0,0,240,12.0,0.0
9261,65.0,0,480,11.0,0.0
9262,77.0,0,480,10.0,0.0
9263,77.0,96,390,0.0,0.0
9264,74.0,0,390,0.0,0.0
9265,62.0,0,390,2.0,0.0
9266,65.0,0,390,2.0,0.0
9267,50.0,0,390,3.0,0.0
9268,53.0,0,390,3.0,0.0
9269,69.0,0,240,12.0,0.0
9270,62.0,144,240,12.0,0.0
9271,65.0,0,240,12.0,0.0
9272,74.0,0,240,12.0,0.0
9273,45.0,192,180,13.0,0.0
9274,33.0,96,780,14.0,0.0
9275,69.0,0,780,11.0,0.0
9276,64.0,0,390,12.0,0.0
9277,81.0,0,780,10.0,0.0
9278,72.0,48,390,12.0,0.0
9279,64.0,240,1920,5.0,0.0
9280,60.0,0,1920,5.0,0.0
9281,52.0,240,180,13.0,0.0
9282,45.0,0,390,3.0,0.0
9283,52.0,48,390,3.0,0.0
9284,76.0,0,390,0.0,0.0
9285,57.0,96,180,13.0,0.0
9286,64.0,0,390,2.0,0.0
9287,60.0,0,390,2.0,0.0
9288,72.0,0,390,0.0,0.0
9289,60.0,288,180,13.0,0.0
9290,60.0,144,240,12.0,0.0
9291,52.0,96,390,13.0,0.0
9292,57.0,0,240,12.0,0.0
9293,64.0,240,240,12.0,0.0
9294,60.0,0,240,12.0,0.0
9295,81.0,0,390,0.0,0.0
9296,72.0,0,480,11.0,0.0
9297,64.0,144,240,12.0,0.0
9298,69.0,0,240,12.0,0.0
9299,57.0,0,390,3.0,0.0
9300,72.0,0,390,0.0,0.0
9301,60.0,96,390,3.0,0.0
9302,84.0,0,480,10.0,0.0
9303,60.0,0,390,2.0,0.0
9304,69.0,0,390,2.0,0.0
9305,72.0,0,240,12.0,0.0
9306,69.0,0,240,12.0,0.0
9307,39.0,48,1140,14.0,0.0
9308,39.0,144,240,13.0,0.0
9309,57.0,96,390,12.0,0.0
9310,72.0,0,1200,10.0,0.0
9311,60.0,48,1200,11.0,0.0
9312,66.0,0,390,12.0,0.0
9313,48.0,240,240,13.0,0.0
9314,54.0,240,240,13.0,0.0
9315,81.0,0,780,0.0,0.0
9316,51.0,0,780,3.0,0.0
9317,78.0,0,780,0.0,0.0
9318,66.0,0,780,2.0,0.0
9319,57.0,0,780,3.0,0.0
9320,69.0,96,780,2.0,0.0
9321,60.0,0,780,5.0,0.0
9322,48.0,0,780,5.0,0.0
9323,57.0,192,240,13.0,0.0
9324,54.0,0,240,12.0,0.0
9325,48.0,96,390,13.0,0.0
9326,57.0,0,15,12.0,0.0
9327,71.0,240,240,10.0,0.0
9328,60.0,0,240,12.0,0.0
9329,59.0,0,240,11.0,0.0
9330,60.0,0,240,11.0,0.0
9331,60.0,0,390,5.0,0.0
9332,51.0,0,390,3.0,0.0
9333,57.0,0,390,3.0,0.0
9334,81.0,0,390,0.0,0.0
9335,69.0,0,390,2.0,0.0
9336,66.0,0,390,2.0,0.0
9337,60.0,0,240,12.0,0.0
9338,66.0,0,240,12.0,0.0
9339,39.0,0,390,14.0,0.0
9340,72.0,144,240,10.0,0.0
9341,78.0,84,390,0.0,0.0
9342,48.0,0,390,5.0,0.0
9343,66.0,0,240,12.0,0.0
9344,69.0,240,240,12.0,0.0
9345,57.0,0,240,11.0,0.0
9346,69.0,12,240,10.0,0.0
9347,84.0,0,1200,10.0,0.0
9348,40.0,48,1140,14.0,0.0
9349,40.0,144,240,13.0,0.0
9350,72.0,48,1200,11.0,0.0
9351,60.0,0,390,12.0,0.0
9352,57.0,96,390,12.0,0.0
9353,48.0,240,240,13.0,0.0
9354,81.0,0,780,0.0,0.0
9355,52.0,240,240,13.0,0.0
9356,52.0,96,780,3.0,0.0
9357,57.0,0,780,3.0,0.0
9358,69.0,0,780,2.0,0.0
9359,48.0,0,780,5.0,0.0
9360,64.0,0,780,2.0,0.0
9361,76.0,0,780,0.0,0.0
9362,60.0,0,780,5.0,0.0
9363,57.0,192,240,13.0,0.0
9364,48.0,96,390,13.0,0.0
9365,52.0,0,240,12.0,0.0
9366,57.0,0,240,12.0,0.0
9367,60.0,0,240,12.0,0.0
9368,57.0,0,240,12.0,0.0
9369,81.0,0,240,10.0,0.0
9370,69.0,240,240,11.0,0.0
9371,40.0,0,390,14.0,0.0
9372,76.0,0,240,10.0,0.0
9373,48.0,0,390,5.0,0.0
9374,60.0,0,390,5.0,0.0
9375,57.0,0,390,3.0,0.0
9376,64.0,144,240,11.0,0.0
9377,52.0,0,390,3.0,0.0
9378,69.0,84,390,2.0,0.0
9379,81.0,0,390,0.0,0.0
9380,60.0,0,390,2.0,0.0
9381,72.0,0,390,0.0,0.0
9382,64.0,0,240,12.0,0.0
9383,60.0,0,240,12.0,0.0
9384,62.0,0,240,11.0,0.0
9385,74.0,12,240,10.0,0.0
9386,64.0,0,240,12.0,0.0
9387,69.0,240,240,12.0,0.0
9388,72.0,0,1200,10.0,0.0
9389,60.0,96,390,12.0,0.0
9390,57.0,0,390,12.0,0.0
9391,60.0,0,1200,11.0,0.0
9392,41.0,48,1140,14.0,0.0
9393,41.0,144,240,13.0,0.0
9394,48.0,240,240,13.0,0.0
9395,69.0,0,780,2.0,0.0
9396,81.0,0,780,0.0,0.0
9397,75.0,0,780,0.0,0.0
9398,63.0,0,780,2.0,0.0
9399,48.0,0,780,5.0,0.0
9400,53.0,0,780,3.0,0.0
9401,60.0,0,780,5.0,0.0
9402,53.0,240,240,13.0,0.0
9403,57.0,96,780,3.0,0.0
9404,57.0,192,240,13.0,0.0
9405,48.0,96,390,13.0,0.0
9406,51.0,48,240,12.0,0.0
9407,59.0,0,240,11.0,0.0
9408,71.0,0,240,10.0,0.0
9409,57.0,0,15,12.0,0.0
9410,60.0,144,240,11.0,0.0
9411,60.0,0,390,5.0,0.0
9412,53.0,0,390,3.0,0.0
9413,57.0,84,390,3.0,0.0
9414,75.0,0,390,0.0,0.0
9415,48.0,0,390,5.0,0.0
9416,72.0,0,240,10.0,0.0
9417,81.0,0,390,0.0,0.0
9418,41.0,0,390,14.0,0.0
9419,63.0,0,390,2.0,0.0
9420,69.0,0,390,2.0,0.0
9421,63.0,0,240,12.0,0.0
9422,60.0,240,15,12.0,0.0
9423,57.0,0,240,11.0,0.0
9424,69.0,12,240,10.0,0.0
9425,69.0,240,240,12.0,0.0
9426,63.0,0,240,12.0,0.0
9427,42.0,144,240,13.0,0.0
9428,60.0,96,390,12.0,0.0
9429,57.0,0,390,12.0,0.0
9430,84.0,0,1200,10.0,0.0
9431,72.0,0,1200,11.0,0.0
9432,42.0,48,1140,14.0,0.0
9433,48.0,240,240,13.0,0.0
9434,48.0,0,780,5.0,0.0
9435,51.0,240,240,13.0,0.0
9436,81.0,0,780,0.0,0.0
9437,75.0,0,780,0.0,0.0
9438,60.0,0,780,5.0,0.0
9439,69.0,0,780,2.0,0.0
9440,57.0,0,780,3.0,0.0
9441,54.0,0,780,3.0,0.0
9442,75.0,96,780,2.0,0.0
9443,57.0,192,240,13.0,0.0
9444,48.0,96,390,13.0,0.0
9445,51.0,0,240,12.0,0.0
9446,60.0,0,240,12.0,0.0
9447,81.0,240,240,10.0,0.0
9448,57.0,48,15,12.0,0.0
9449,69.0,0,240,11.0,0.0
9450,84.0,0,390,0.0,0.0
9451,63.0,0,240,12.0,0.0
9452,42.0,0,390,14.0,0.0
9453,54.0,0,390,3.0,0.0
9454,60.0,0,390,5.0,0.0
9455,48.0,0,390,5.0,0.0
9456,72.0,0,390,2.0,0.0
9457,63.0,12,450,11.0,0.0
9458,69.0,72,390,2.0,0.0
9459,75.0,144,240,10.0,0.0
9460,75.0,0,390,0.0,0.0
9461,60.0,0,240,12.0,0.0
9462,57.0,0,390,3.0,0.0
9463,74.0,12,240,10.0,0.0
9464,63.0,0,240,12.0,0.0
9465,69.0,240,240,12.0,0.0
9466,43.0,144,240,13.0,0.0
9467,64.0,0,390,12.0,0.0
9468,60.0,96,390,12.0,0.0
9469,72.0,0,390,10.0,0.0
9470,43.0,0,390,14.0,0.0
9471,64.0,0,390,11.0,0.0
9472,52.0,240,240,13.0,0.0
9473,64.0,0,240,12.0,0.0
9474,67.0,0,390,5.0,0.0
9475,67.0,0,240,12.0,0.0
9476,76.0,0,390,2.0,0.0
9477,72.0,0,390,2.0,0.0
9478,60.0,144,240,13.0,0.0
9479,84.0,0,390,0.0,0.0
9480,64.0,96,390,5.0,0.0
9481,76.0,0,390,0.0,0.0
9482,55.0,0,390,3.0,0.0
9483,72.0,0,240,11.0,0.0
9484,55.0,0,240,12.0,0.0
9485,60.0,0,240,12.0,0.0
9486,76.0,240,240,10.0,0.0
9487,71.0,0,390,10.0,0.0
9488,65.0,0,390,11.0,0.0
9489,44.0,96,390,14.0,0.0
9490,44.0,144,240,13.0,0.0
9491,65.0,0,390,12.0,0.0
9492,62.0,0,390,12.0,0.0
9493,53.0,240,240,13.0,0.0
9494,59.0,144,240,13.0,0.0
9495,65.0,0,390,5.0,0.0
9496,56.0,0,390,3.0,0.0
9497,62.0,0,390,5.0,0.0
9498,77.0,0,390,2.0,0.0
9499,74.0,96,390,0.0,0.0
9500,83.0,0,390,0.0,0.0
9501,71.0,0,390,2.0,0.0
9502,59.0,240,240,12.0,0.0
9503,74.0,0,240,10.0,0.0
9504,71.0,0,240,11.0,0.0
9505,53.0,0,240,12.0,0.0
9506,45.0,144,240,13.0,0.0
9507,69.0,0,390,10.0,0.0
9508,64.0,0,390,11.0,0.0
9509,45.0,0,390,14.0,0.0
9510,64.0,0,390,12.0,0.0
9511,60.0,96,390,12.0,0.0
9512,52.0,240,240,13.0,0.0
9513,72.0,0,390,2.0,0.0
9514,60.0,96,390,5.0,0.0
9515,64.0,0,390,5.0,0.0
9516,60.0,144,240,13.0,0.0
9517,72.0,0,390,0.0,0.0
9518,69.0,0,390,2.0,0.0
9519,81.0,0,390,0.0,0.0
9520,57.0,0,390,3.0,0.0
9521,52.0,0,240,12.0,0.0
9522,72.0,240,240,10.0,0.0
9523,69.0,0,240,11.0,0.0
9524,57.0,0,240,12.0,0.0
9525,59.0,96,390,12.0,0.0
9526,35.0,0,390,14.0,0.0
9527,62.0,0,390,11.0,0.0
9528,62.0,0,390,12.0,0.0
9529,68.0,0,390,10.0,0.0
9530,47.0,144,240,13.0,0.0
9531,50.0,240,240,13.0,0.0
9532,56.0,0,390,3.0,0.0
9533,80.0,0,390,0.0,0.0
9534,47.0,0,390,3.0,0.0
9535,74.0,0,390,0.0,0.0
9536,56.0,144,240,13.0,0.0
9537,62.0,96,390,5.0,0.0
9538,59.0,0,390,5.0,0.0
9539,68.0,0,390,2.0,0.0
9540,74.0,0,390,2.0,0.0
9541,68.0,240,240,11.0,0.0
9542,50.0,0,240,12.0,0.0
9543,71.0,0,240,10.0,0.0
9544,36.0,0,1140,14.0,0.0
9545,48.0,288,1140,13.0,0.0
9546,48.0,240,1920,3.0,0.0
9547,76.0,18,3810,0.0,0.0
9548,64.0,0,3810,2.0,0.0
9549,57.0,0,960,3.0,0.0
9550,64.0,192,960,11.0,0.0
9551,52.0,240,240,12.0,0.0
9552,81.0,0,930,0.0,0.0
9553,64.0,0,3810,4.0,0.0
9554,69.0,0,480,10.0,0.0
9555,69.0,20,930,2.0,0.0
9556,52.0,0,3810,4.0,0.0
9557,48.0,240,240,12.0,0.0
9558,67.0,0,480,10.0,0.0
9559,52.0,220,240,12.0,0.0
9560,57.0,0,240,12.0,0.0
9561,82.0,0,1920,0.0,0.0
9562,58.0,0,930,12.0,0.0
9563,52.0,10,930,12.0,0.0
9564,58.0,0,960,3.0,0.0
9565,66.0,460,480,10.0,0.0
9566,70.0,0,1920,2.0,0.0
9567,58.0,0,930,11.0,0.0
9568,64.0,0,480,10.0,0.0
9569,48.0,0,480,13.0,0.0
9570,36.0,10,480,14.0,0.0
9571,61.0,0,960,3.0,0.0
9572,30.0,288,1140,14.0,0.0
9573,42.0,0,1890,3.0,0.0
9574,52.0,240,240,12.0,0.0
9575,70.0,240,480,10.0,0.0
9576,42.0,0,1140,13.0,0.0
9577,61.0,0,960,11.0,0.0
9578,49.0,0,240,12.0,0.0
9579,67.0,0,480,10.0,0.0
9580,52.0,240,240,12.0,0.0
9581,58.0,192,240,12.0,0.0
9582,66.0,442,480,10.0,0.0
9583,58.0,0,930,3.0,0.0
9584,85.0,0,930,0.0,0.0
9585,73.0,0,930,2.0,0.0
9586,61.0,10,930,12.0,0.0
9587,52.0,0,930,12.0,0.0
9588,58.0,240,960,11.0,0.0
9589,64.0,0,480,10.0,0.0
9590,30.0,0,480,14.0,0.0
9591,42.0,10,480,13.0,0.0
9592,64.0,384,1920,5.0,0.0
9593,47.0,0,3840,4.0,0.0
9594,59.0,0,3840,4.0,0.0
9595,79.0,0,1920,0.0,0.0
9596,76.0,0,1920,0.0,0.0
9597,64.0,0,1920,3.0,0.0
9598,47.0,0,780,13.0,0.0
9599,35.0,144,780,14.0,0.0
9600,59.0,0,240,11.0,0.0
9601,55.0,240,240,12.0,0.0
9602,55.0,144,1530,3.0,0.0
9603,67.0,0,1920,2.0,0.0
9604,59.0,0,720,10.0,0.0
9605,67.0,0,1920,5.0,0.0
9606,71.0,0,1920,2.0,0.0
9607,55.0,0,240,11.0,0.0
9608,52.0,240,240,12.0,0.0
9609,55.0,48,240,12.0,0.0
9610,59.0,0,240,11.0,0.0
9611,71.0,252,240,10.0,0.0
9612,59.0,0,180,12.0,0.0
9613,64.0,36,180,11.0,0.0
9614,71.0,0,720,1.0,0.0
9615,47.0,144,780,13.0,0.0
9616,64.0,0,240,12.0,0.0
9617,71.0,384,1410,10.0,0.0
9618,67.0,240,240,11.0,0.0
9619,35.0,0,780,14.0,0.0
9620,59.0,96,240,12.0,0.0
9621,64.0,0,240,11.0,0.0
9622,67.0,48,240,11.0,0.0
9623,64.0,0,240,12.0,0.0
9624,83.0,0,240,1.0,0.0
9625,67.0,0,180,12.0,0.0
9626,71.0,48,180,11.0,0.0
9627,59.0,144,1530,3.0,0.0
9628,66.0,0,390,5.0,0.0
9629,59.0,0,390,13.0,0.0
9630,66.0,480,960,3.0,0.0
9631,69.0,0,1920,0.0,0.0
9632,75.0,0,1920,0.0,0.0
9633,47.0,0,390,14.0,0.0
9634,66.0,72,390,12.0,0.0
9635,84.0,0,1440,1.0,0.0
9636,75.0,0,390,2.0,0.0
9637,63.0,0,390,5.0,0.0
9638,63.0,0,390,11.0,0.0
9639,69.0,0,390,2.0,0.0
9640,69.0,60,360,10.0,0.0
9641,71.0,60,60,10.0,0.0
9642,69.0,0,60,10.0,0.0
9643,63.0,0,960,3.0,0.0
9644,67.0,96,480,10.0,0.0
9645,83.0,216,240,11.0,0.0
9646,75.0,240,480,1.0,0.0
9647,66.0,24,450,10.0,0.0
9648,71.0,144,720,12.0,0.0
9649,71.0,0,240,11.0,0.0
9650,67.0,0,1920,4.0,0.0
9651,52.0,0,390,3.0,0.0
9652,67.0,0,390,0.0,0.0
9653,59.0,0,390,3.0,0.0
9654,76.0,0,390,0.0,0.0
9655,79.0,0,240,11.0,0.0
9656,64.0,24,450,10.0,0.0
9657,76.0,48,390,1.0,0.0
9658,67.0,24,180,11.0,0.0
9659,69.0,240,240,12.0,0.0
9660,40.0,96,390,14.0,0.0
9661,52.0,0,390,13.0,0.0
9662,67.0,144,240,12.0,0.0
9663,66.0,240,240,12.0,0.0
9664,67.0,240,240,12.0,0.0
9665,66.0,240,240,12.0,0.0
9666,76.0,0,720,2.0,0.0
9667,64.0,0,240,12.0,0.0
9668,64.0,144,240,10.0,0.0
9669,48.0,96,390,13.0,0.0
9670,64.0,144,720,3.0,0.0
9671,36.0,0,390,14.0,0.0
9672,63.0,0,240,12.0,0.0
9673,76.0,0,240,10.0,0.0
9674,64.0,48,390,12.0,0.0
9675,66.0,0,960,4.0,0.0
9676,64.0,240,15,4.0,0.0
9677,72.0,0,240,10.0,0.0
9678,74.0,240,240,2.0,0.0
9679,62.0,0,240,3.0,0.0
9680,84.0,48,180,10.0,0.0
9681,45.0,0,390,13.0,0.0
9682,33.0,96,390,14.0,0.0
9683,60.0,0,240,3.0,0.0
9684,72.0,144,240,2.0,0.0
9685,59.0,240,240,3.0,0.0
9686,71.0,0,240,2.0,0.0
9687,72.0,0,240,2.0,0.0
9688,60.0,240,240,3.0,0.0
9689,69.0,0,1920,4.0,0.0
9690,71.0,0,240,2.0,0.0
9691,59.0,240,240,3.0,0.0
9692,54.0,96,390,13.0,0.0
9693,81.0,0,720,1.0,0.0
9694,81.0,144,240,11.0,0.0
9695,69.0,0,240,2.0,0.0
9696,57.0,0,240,3.0,0.0
9697,69.0,144,720,12.0,0.0
9698,42.0,0,390,14.0,0.0
9699,67.0,0,240,2.0,0.0
9700,55.0,0,240,3.0,0.0
9701,69.0,240,240,11.0,0.0
9702,57.0,48,390,3.0,0.0
9703,78.0,0,240,11.0,0.0
9704,67.0,0,390,2.0,0.0
9705,66.0,48,180,11.0,0.0
9706,79.0,240,240,1.0,0.0
9707,67.0,0,240,12.0,0.0
9708,66.0,0,240,12.0,0.0
9709,39.0,0,390,14.0,0.0
9710,78.0,144,240,1.0,0.0
9711,51.0,96,390,13.0,0.0
9712,64.0,0,240,12.0,0.0
9713,76.0,240,240,1.0,0.0
9714,66.0,0,15,4.0,0.0
9715,66.0,240,240,12.0,0.0
9716,63.0,240,1920,4.0,0.0
9717,78.0,0,240,1.0,0.0
9718,64.0,0,240,12.0,0.0
9719,76.0,240,240,1.0,0.0
9720,63.0,0,720,3.0,0.0
9721,87.0,144,720,0.0,0.0
9722,63.0,144,240,12.0,0.0
9723,47.0,96,390,13.0,0.0
9724,35.0,0,390,14.0,0.0
9725,75.0,0,720,2.0,0.0
9726,63.0,0,240,10.0,0.0
9727,75.0,0,240,1.0,0.0
9728,61.0,0,240,12.0,0.0
9729,73.0,0,240,1.0,0.0
9730,75.0,240,240,10.0,0.0
9731,75.0,48,390,1.0,0.0
9732,63.0,0,390,12.0,0.0
9733,71.0,0,240,10.0,0.0
9734,61.0,240,240,3.0,0.0
9735,73.0,0,240,2.0,0.0
9736,83.0,48,180,10.0,0.0
9737,85.0,0,240,0.0,0.0
9738,31.0,0,390,14.0,0.0
9739,71.0,0,240,2.0,0.0
9740,83.0,0,240,0.0,0.0
9741,59.0,144,240,3.0,0.0
9742,43.0,96,390,13.0,0.0
9743,81.0,0,240,0.0,0.0
9744,69.0,0,240,2.0,0.0
9745,57.0,0,240,3.0,0.0
9746,59.0,0,240,3.0,0.0
9747,83.0,0,240,0.0,0.0
9748,71.0,240,240,2.0,0.0
9749,67.0,0,780,4.0,0.0
9750,64.0,96,780,4.0,0.0
9751,67.0,0,4800,5.0,0.0
9752,55.0,240,4800,5.0,0.0
9753,81.0,240,240,0.0,0.0
9754,57.0,0,240,3.0,0.0
9755,69.0,0,240,2.0,0.0
9756,67.0,0,240,2.0,0.0
9757,40.0,96,390,14.0,0.0
9758,88.0,0,240,10.0,0.0
9759,52.0,0,390,13.0,0.0
9760,55.0,0,240,3.0,0.0
9761,79.0,48,240,0.0,0.0
9762,54.0,0,240,3.0,0.0
9763,78.0,0,240,0.0,0.0
9764,75.0,0,240,10.0,0.0
9765,66.0,240,240,2.0,0.0
9766,76.0,144,240,10.0,0.0
9767,72.0,0,240,1.0,0.0
9768,67.0,48,390,2.0,0.0
9769,76.0,0,240,1.0,0.0
9770,64.0,0,240,12.0,0.0
9771,79.0,0,390,0.0,0.0
9772,60.0,0,240,12.0,0.0
9773,55.0,0,390,3.0,0.0
9774,62.0,240,240,12.0,0.0
9775,74.0,0,240,1.0,0.0
9776,67.0,0,240,1.0,0.0
9777,55.0,0,240,12.0,0.0
9778,64.0,48,180,10.0,0.0
9779,60.0,0,390,13.0,0.0
9780,48.0,96,390,14.0,0.0
9781,52.0,0,240,12.0,0.0
9782,60.0,0,240,12.0,0.0
9783,64.0,0,240,1.0,0.0
9784,72.0,144,240,1.0,0.0
9785,74.0,192,240,1.0,0.0
9786,55.0,0,240,12.0,0.0
9787,62.0,0,240,12.0,0.0
9788,67.0,0,240,1.0,0.0
9789,72.0,144,240,0.0,0.0
9790,48.0,48,180,3.0,0.0
9791,64.0,0,390,12.0,0.0
9792,60.0,0,390,12.0,0.0
9793,76.0,0,240,0.0,0.0
9794,52.0,0,180,3.0,0.0
9795,64.0,0,240,2.0,0.0
9796,60.0,0,240,2.0,0.0
9797,72.0,48,390,1.0,0.0
9798,76.0,0,390,1.0,0.0
9799,62.0,0,240,2.0,0.0
9800,50.0,0,180,3.0,0.0
9801,55.0,48,180,3.0,0.0
9802,74.0,192,240,0.0,0.0
9803,79.0,0,240,0.0,0.0
9804,67.0,0,240,2.0,0.0
9805,72.0,0,240,2.0,0.0
9806,48.0,48,390,13.0,0.0
9807,63.0,0,240,2.0,0.0
9808,67.0,144,240,11.0,0.0
9809,36.0,0,390,14.0,0.0
9810,51.0,48,180,3.0,0.0
9811,60.0,0,180,3.0,0.0
9812,84.0,0,240,0.0,0.0
9813,75.0,0,240,0.0,0.0
9814,69.0,0,240,2.0,0.0
9815,81.0,0,240,0.0,0.0
9816,57.0,48,180,3.0,0.0
9817,78.0,0,240,0.0,0.0
9818,79.0,240,240,11.0,0.0
9819,54.0,0,180,3.0,0.0
9820,66.0,0,240,2.0,0.0
9821,67.0,0,390,2.0,0.0
9822,59.0,0,390,3.0,0.0
9823,55.0,48,390,3.0,0.0
9824,83.0,0,390,0.0,0.0
9825,79.0,0,390,0.0,0.0
9826,74.0,0,240,1.0,0.0
9827,59.0,0,240,12.0,0.0
9828,71.0,0,390,2.0,0.0
9829,71.0,144,240,11.0,0.0
9830,71.0,0,240,1.0,0.0
9831,62.0,0,240,12.0,0.0
9832,69.0,240,240,1.0,0.0
9833,72.0,0,240,1.0,0.0
9834,60.0,0,240,12.0,0.0
9835,57.0,0,240,12.0,0.0
9836,83.0,48,180,11.0,0.0
9837,67.0,0,240,1.0,0.0
9838,31.0,0,390,14.0,0.0
9839,55.0,0,240,12.0,0.0
9840,71.0,0,240,1.0,0.0
9841,43.0,96,390,13.0,0.0
9842,59.0,144,240,12.0,0.0
9843,72.0,0,240,1.0,0.0
9844,69.0,0,240,1.0,0.0
9845,60.0,0,240,12.0,0.0
9846,57.0,240,240,12.0,0.0
9847,70.0,0,390,1.0,0.0
9848,74.0,0,390,1.0,0.0
9849,70.0,0,240,2.0,0.0
9850,82.0,0,240,0.0,0.0
9851,86.0,0,240,0.0,0.0
9852,74.0,144,240,2.0,0.0
9853,62.0,96,390,12.0,0.0
9854,58.0,0,390,12.0,0.0
9855,62.0,0,240,3.0,0.0
9856,58.0,0,240,3.0,0.0
9857,81.0,0,240,0.0,0.0
9858,57.0,0,240,3.0,0.0
9859,72.0,0,240,2.0,0.0
9860,69.0,0,240,2.0,0.0
9861,84.0,240,240,0.0,0.0
9862,60.0,0,240,3.0,0.0
9863,67.0,0,240,2.0,0.0
9864,70.0,0,240,2.0,0.0
9865,55.0,0,390,13.0,0.0
9866,86.0,144,240,10.0,0.0
9867,58.0,0,240,3.0,0.0
9868,82.0,0,240,0.0,0.0
9869,43.0,48,390,14.0,0.0
9870,79.0,0,15,0.0,0.0
9871,76.0,0,240,0.0,0.0
9872,55.0,0,15,3.0,0.0
9873,64.0,0,240,2.0,0.0
9874,52.0,0,240,3.0,0.0
9875,67.0,0,240,2.0,0.0
9876,73.0,48,180,10.0,0.0
9877,69.0,0,390,2.0,0.0
9878,66.0,48,390,2.0,0.0
9879,78.0,0,390,0.0,0.0
9880,81.0,0,390,0.0,0.0
9881,74.0,0,240,1.0,0.0
9882,74.0,0,240,10.0,0.0
9883,66.0,144,240,12.0,0.0
9884,57.0,0,390,3.0,0.0
9885,54.0,0,390,3.0,0.0
9886,62.0,0,1920,5.0,0.0
9887,66.0,240,1440,5.0,0.0
9888,62.0,0,240,12.0,0.0
9889,78.0,0,240,1.0,0.0
9890,62.0,48,180,10.0,0.0
9891,76.0,0,240,1.0,0.0
9892,69.0,0,240,1.0,0.0
9893,64.0,240,240,12.0,0.0
9894,57.0,0,240,12.0,0.0
9895,54.0,0,240,12.0,0.0
9896,66.0,144,240,1.0,0.0
9897,74.0,0,240,1.0,0.0
9898,50.0,0,390,13.0,0.0
9899,50.0,96,390,14.0,0.0
9900,62.0,0,240,12.0,0.0
9901,64.0,0,240,12.0,0.0
9902,57.0,240,240,12.0,0.0
9903,69.0,0,240,1.0,0.0
9904,76.0,0,240,1.0,0.0
9905,54.0,0,240,3.0,0.0
9906,78.0,0,240,0.0,0.0
9907,74.0,144,240,0.0,0.0
9908,50.0,0,240,3.0,0.0
9909,74.0,0,390,1.0,0.0
9910,78.0,0,390,1.0,0.0
9911,66.0,0,390,12.0,0.0
9912,62.0,96,390,12.0,0.0
9913,62.0,0,240,2.0,0.0
9914,57.0,0,240,3.0,0.0
9915,54.0,0,240,3.0,0.0
9916,66.0,0,15,2.0,0.0
9917,69.0,0,240,2.0,0.0
9918,81.0,0,240,0.0,0.0
9919,78.0,0,240,0.0,0.0
9920,77.0,0,240,0.0,0.0
9921,86.0,0,240,0.0,0.0
9922,53.0,144,240,3.0,0.0
9923,65.0,240,480,5.0,0.0
9924,62.0,0,240,3.0,0.0
9925,74.0,0,240,2.0,0.0
9926,65.0,0,240,2.0,0.0
9927,65.0,0,240,11.0,0.0
9928,38.0,96,390,14.0,0.0
9929,50.0,0,390,13.0,0.0
9930,59.0,0,240,3.0,0.0
9931,56.0,0,240,3.0,0.0
9932,80.0,0,240,0.0,0.0
9933,83.0,0,240,0.0,0.0
9934,71.0,0,240,2.0,0.0
9935,68.0,0,240,2.0,0.0
9936,77.0,0,240,11.0,0.0
9937,81.0,0,390,0.0,0.0
9938,61.0,0,390,3.0,0.0
9939,85.0,0,390,0.0,0.0
9940,57.0,0,390,3.0,0.0
9941,61.0,0,960,5.0,0.0
9942,64.0,0,1920,5.0,0.0
9943,69.0,0,240,11.0,0.0
9944,61.0,144,240,12.0,0.0
9945,64.0,0,240,12.0,0.0
9946,73.0,0,240,1.0,0.0
9947,76.0,0,240,1.0,0.0
9948,69.0,48,390,2.0,0.0
9949,73.0,0,390,2.0,0.0
9950,59.0,0,240,12.0,0.0
9951,71.0,0,240,1.0,0.0
9952,81.0,48,180,11.0,0.0
9953,74.0,0,240,1.0,0.0
9954,62.0,240,240,12.0,0.0
9955,33.0,96,390,14.0,0.0
9956,57.0,0,240,12.0,0.0
9957,61.0,144,240,12.0,0.0
9958,45.0,0,390,13.0,0.0
9959,73.0,0,240,1.0,0.0
9960,69.0,0,240,1.0,0.0
9961,62.0,240,240,12.0,0.0
9962,71.0,0,240,1.0,0.0
9963,59.0,0,240,12.0,0.0
9964,74.0,0,240,1.0,0.0
9965,60.0,0,960,5.0,0.0
9966,88.0,0,240,0.0,0.0
9967,64.0,0,240,3.0,0.0
9968,60.0,0,390,12.0,0.0
9969,60.0,144,240,3.0,0.0
9970,72.0,0,240,2.0,0.0
9971,72.0,96,390,1.0,0.0
9972,76.0,0,390,1.0,0.0
9973,64.0,0,390,12.0,0.0
9974,84.0,0,240,0.0,0.0
9975,76.0,0,240,2.0,0.0
9976,71.0,0,240,2.0,0.0
9977,74.0,0,240,2.0,0.0
9978,59.0,0,240,3.0,0.0
9979,83.0,0,240,0.0,0.0
9980,86.0,240,240,0.0,0.0
9981,62.0,0,240,3.0,0.0
9982,60.0,0,240,3.0,0.0
9983,57.0,0,240,3.0,0.0
9984,69.0,0,240,2.0,0.0
9985,57.0,96,390,13.0,0.0
9986,72.0,24,270,11.0,0.0
9987,60.0,0,270,12.0,0.0
9988,57.0,0,270,12.0,0.0
9989,45.0,0,390,14.0,0.0
9990,84.0,96,300,10.0,0.0
9991,72.0,24,240,2.0,0.0
9992,81.0,0,240,0.0,0.0
9993,84.0,0,240,0.0,0.0
9994,59.0,0,240,3.0,0.0
9995,55.0,240,240,3.0,0.0
9996,79.0,0,240,0.0,0.0
9997,83.0,0,240,0.0,0.0
9998,71.0,0,240,2.0,0.0
9999,67.0,0,240,2.0,0.0
10000,78.0,96,390,0.0,0.0
10001,39.0,144,240,13.0,0.0
10002,60.0,0,1200,11.0,0.0
10003,81.0,0,390,0.0,0.0
10004,54.0,0,390,3.0,0.0
10005,57.0,0,390,3.0,0.0
10006,39.0,48,1140,14.0,0.0
10007,54.0,0,780,12.0,0.0
10008,57.0,144,780,12.0,0.0
10009,72.0,48,1200,10.0,0.0
10010,69.0,0,390,2.0,0.0
10011,66.0,0,390,2.0,0.0
10012,45.0,240,240,13.0,0.0
10013,66.0,0,780,4.0,0.0
10014,69.0,0,780,4.0,0.0
10015,69.0,0,780,1.0,0.0
10016,72.0,0,780,1.0,0.0
10017,78.0,0,780,0.0,0.0
10018,57.0,0,780,3.0,0.0
10019,51.0,192,780,3.0,0.0
10020,54.0,48,240,13.0,0.0
10021,81.0,0,780,0.0,0.0
10022,60.0,0,780,5.0,0.0
10023,57.0,240,180,13.0,0.0
10024,51.0,96,780,13.0,0.0
10025,54.0,0,240,12.0,0.0
10026,59.0,0,240,11.0,0.0
10027,57.0,0,15,12.0,0.0
10028,60.0,0,240,12.0,0.0
10029,71.0,240,240,10.0,0.0
10030,72.0,0,390,1.0,0.0
10031,51.0,0,390,3.0,0.0
10032,57.0,0,390,3.0,0.0
10033,60.0,0,240,12.0,0.0
10034,60.0,0,240,11.0,0.0
10035,69.0,0,390,1.0,0.0
10036,72.0,48,240,10.0,0.0
10037,60.0,48,390,5.0,0.0
10038,66.0,0,240,12.0,0.0
10039,69.0,0,390,4.0,0.0
10040,81.0,0,390,0.0,0.0
10041,78.0,0,390,0.0,0.0
10042,66.0,0,390,4.0,0.0
10043,39.0,0,390,14.0,0.0
10044,57.0,252,240,11.0,0.0
10045,69.0,0,240,10.0,0.0
10046,66.0,36,180,12.0,0.0
10047,69.0,0,180,12.0,0.0
10048,38.0,240,240,13.0,0.0
10049,57.0,144,780,12.0,0.0
10050,84.0,0,1200,10.0,0.0
10051,72.0,48,1200,11.0,0.0
10052,38.0,48,1140,14.0,0.0
10053,54.0,0,780,12.0,0.0
10054,45.0,240,240,13.0,0.0
10055,50.0,0,780,3.0,0.0
10056,57.0,192,780,3.0,0.0
10057,84.0,0,780,0.0,0.0
10058,66.0,0,780,4.0,0.0
10059,69.0,0,780,1.0,0.0
10060,78.0,0,780,1.0,0.0
10061,60.0,0,780,5.0,0.0
10062,81.0,0,780,0.0,0.0
10063,69.0,0,780,4.0,0.0
10064,54.0,48,240,13.0,0.0
10065,57.0,240,180,13.0,0.0
10066,54.0,0,240,12.0,0.0
10067,50.0,96,780,13.0,0.0
10068,57.0,0,15,12.0,0.0
10069,81.0,0,240,10.0,0.0
10070,60.0,0,240,12.0,0.0
10071,69.0,240,240,11.0,0.0
10072,66.0,0,390,4.0,0.0
10073,69.0,0,390,4.0,0.0
10074,50.0,0,390,3.0,0.0
10075,57.0,0,390,3.0,0.0
10076,84.0,0,390,0.0,0.0
10077,81.0,0,390,0.0,0.0
10078,60.0,0,240,12.0,0.0
10079,78.0,0,240,10.0,0.0
10080,38.0,0,390,14.0,0.0
10081,60.0,0,390,5.0,0.0
10082,66.0,48,240,11.0,0.0
10083,78.0,0,390,1.0,0.0
10084,69.0,48,390,1.0,0.0
10085,66.0,0,15,12.0,0.0
10086,60.0,0,240,11.0,0.0
10087,69.0,0,180,12.0,0.0
10088,72.0,252,240,10.0,0.0
10089,57.0,0,780,12.0,0.0
10090,54.0,144,780,12.0,0.0
10091,73.0,48,1200,10.0,0.0
10092,37.0,48,1140,14.0,0.0
10093,61.0,0,1200,11.0,0.0
10094,37.0,240,240,13.0,0.0
10095,45.0,240,240,13.0,0.0
10096,69.0,0,780,4.0,0.0
10097,57.0,0,780,3.0,0.0
10098,54.0,48,240,13.0,0.0
10099,66.0,192,780,1.0,0.0
10100,69.0,0,780,1.0,0.0
10101,66.0,0,780,4.0,0.0
10102,61.0,0,780,5.0,0.0
10103,49.0,0,780,3.0,0.0
10104,81.0,0,780,0.0,0.0
10105,85.0,0,780,0.0,0.0
10106,57.0,240,180,13.0,0.0
10107,54.0,0,240,12.0,0.0
10108,49.0,96,780,13.0,0.0
10109,57.0,0,15,12.0,0.0
10110,60.0,0,240,11.0,0.0
10111,72.0,0,240,10.0,0.0
10112,81.0,0,390,0.0,0.0
10113,85.0,0,390,0.0,0.0
10114,61.0,0,240,11.0,0.0
10115,61.0,0,15,12.0,0.0
10116,66.0,0,240,12.0,0.0
10117,49.0,0,390,3.0,0.0
10118,61.0,0,390,5.0,0.0
10119,73.0,48,240,10.0,0.0
10120,69.0,0,390,4.0,0.0
10121,66.0,48,390,4.0,0.0
10122,57.0,0,390,3.0,0.0
10123,66.0,0,390,1.0,0.0
10124,69.0,0,390,1.0,0.0
10125,37.0,0,390,14.0,0.0
10126,66.0,0,180,12.0,0.0
10127,69.0,36,180,12.0,0.0
10128,69.0,252,240,10.0,0.0
10129,57.0,0,240,11.0,0.0
10130,36.0,48,1140,14.0,0.0
10131,74.0,48,1200,11.0,0.0
10132,54.0,144,780,12.0,0.0
10133,57.0,0,780,12.0,0.0
10134,86.0,0,1200,10.0,0.0
10135,36.0,240,240,13.0,0.0
10136,45.0,240,240,13.0,0.0
10137,48.0,192,780,3.0,0.0
10138,86.0,0,780,0.0,0.0
10139,69.0,0,780,4.0,0.0
10140,66.0,0,780,4.0,0.0
10141,62.0,0,780,5.0,0.0
10142,78.0,0,780,1.0,0.0
10143,69.0,0,780,1.0,0.0
10144,54.0,48,240,13.0,0.0
10145,81.0,0,780,0.0,0.0
10146,57.0,0,780,3.0,0.0
10147,57.0,240,180,13.0,0.0
10148,54.0,0,240,12.0,0.0
10149,48.0,96,780,13.0,0.0
10150,81.0,0,240,10.0,0.0
10151,57.0,0,15,12.0,0.0
10152,69.0,0,240,11.0,0.0
10153,66.0,0,240,11.0,0.0
10154,69.0,48,390,4.0,0.0
10155,66.0,0,390,4.0,0.0
10156,57.0,0,390,3.0,0.0
10157,36.0,0,390,14.0,0.0
10158,62.0,0,390,5.0,0.0
10159,48.0,0,390,3.0,0.0
10160,78.0,48,240,10.0,0.0
10161,81.0,0,390,0.0,0.0
10162,62.0,0,15,12.0,0.0
10163,86.0,0,390,0.0,0.0
10164,69.0,0,390,1.0,0.0
10165,78.0,0,390,1.0,0.0
10166,62.0,0,240,11.0,0.0
10167,66.0,0,15,12.0,0.0
10168,69.0,0,180,12.0,0.0
10169,74.0,396,240,10.0,0.0
10170,71.0,0,390,12.0,0.0
10171,66.0,0,390,11.0,0.0
10172,47.0,0,390,3.0,0.0
10173,54.0,480,390,3.0,0.0
10174,69.0,0,390,1.0,0.0
10175,35.0,0,390,14.0,0.0
10176,75.0,0,390,1.0,0.0
10177,63.0,0,390,5.0,0.0
10178,63.0,0,390,12.0,0.0
10179,66.0,0,390,4.0,0.0
10180,69.0,0,390,11.0,0.0
10181,69.0,0,390,4.0,0.0
10182,81.0,0,390,0.0,0.0
10183,87.0,0,390,0.0,0.0
10184,47.0,0,390,13.0,0.0
10185,75.0,0,390,10.0,0.0
10186,71.0,0,780,4.0,0.0
10187,67.0,0,780,4.0,0.0
10188,59.0,0,780,13.0,0.0
10189,83.0,0,390,1.0,0.0
10190,71.0,96,390,1.0,0.0
10191,79.0,0,780,0.0,0.0
10192,83.0,96,780,0.0,0.0
10193,47.0,0,780,14.0,0.0
10194,59.0,0,780,3.0,0.0
10195,67.0,0,780,2.0,0.0
10196,47.0,0,780,3.0,0.0
10197,71.0,0,780,2.0,0.0
10198,67.0,192,570,12.0,0.0
10199,71.0,0,570,11.0,0.0
10200,79.0,96,240,10.0,0.0
10201,84.0,0,780,1.0,0.0
10202,72.0,192,780,1.0,0.0
10203,72.0,96,390,10.0,0.0
10204,67.0,0,240,11.0,0.0
10205,64.0,288,240,12.0,0.0
10206,47.0,0,870,3.0,0.0
10207,35.0,48,900,14.0,0.0
10208,81.0,0,870,0.0,0.0
10209,69.0,0,870,4.0,0.0
10210,66.0,0,870,4.0,0.0
10211,35.0,0,870,3.0,0.0
10212,78.0,0,870,0.0,0.0
10213,66.0,0,870,2.0,0.0
10214,69.0,192,660,11.0,0.0
10215,69.0,0,870,2.0,0.0
10216,47.0,0,900,13.0,0.0
10217,66.0,0,660,12.0,0.0
10218,78.0,192,240,10.0,0.0
10219,83.0,96,780,1.0,0.0
10220,71.0,0,780,1.0,0.0
10221,71.0,48,390,10.0,0.0
10222,63.0,240,240,12.0,0.0
10223,66.0,0,240,11.0,0.0
10224,64.0,0,390,2.0,0.0
10225,67.0,48,240,11.0,0.0
10226,67.0,48,390,2.0,0.0
10227,64.0,0,240,12.0,0.0
10228,47.0,0,390,3.0,0.0
10229,59.0,0,420,13.0,0.0
10230,47.0,48,420,14.0,0.0
10231,79.0,0,390,0.0,0.0
10232,64.0,0,390,4.0,0.0
10233,67.0,0,390,4.0,0.0
10234,59.0,0,390,3.0,0.0
10235,76.0,0,390,0.0,0.0
10236,88.0,192,240,10.0,0.0
10237,67.0,0,180,12.0,0.0
10238,71.0,0,180,11.0,0.0
10239,76.0,0,240,11.0,0.0
10240,81.0,0,390,0.0,0.0
10241,67.0,144,240,12.0,0.0
10242,84.0,0,390,0.0,0.0
10243,72.0,0,390,1.0,0.0
10244,47.0,0,420,13.0,0.0
10245,72.0,0,390,4.0,0.0
10246,35.0,0,390,3.0,0.0
10247,47.0,0,390,3.0,0.0
10248,35.0,0,420,14.0,0.0
10249,69.0,0,390,4.0,0.0
10250,81.0,48,180,10.0,0.0
10251,69.0,0,390,2.0,0.0
10252,72.0,0,390,2.0,0.0
10253,81.0,48,390,1.0,0.0
10254,66.0,48,180,12.0,0.0
10255,74.0,0,180,11.0,0.0
10256,86.0,192,240,10.0,0.0
10257,47.0,0,420,14.0,0.0
10258,79.0,0,390,0.0,0.0
10259,59.0,48,390,3.0,0.0
10260,71.0,0,390,2.0,0.0
10261,67.0,0,390,2.0,0.0
10262,66.0,144,240,12.0,0.0
10263,59.0,48,420,13.0,0.0
10264,83.0,0,390,0.0,0.0
10265,79.0,48,180,10.0,0.0
10266,47.0,0,390,3.0,0.0
10267,71.0,0,390,4.0,0.0
10268,79.0,0,390,1.0,0.0
10269,71.0,0,390,1.0,0.0
10270,67.0,0,390,4.0,0.0
10271,74.0,0,240,11.0,0.0
10272,72.0,0,180,11.0,0.0
10273,84.0,192,240,10.0,0.0
10274,64.0,0,180,12.0,0.0
10275,64.0,0,240,12.0,0.0
10276,69.0,0,390,2.0,0.0
10277,66.0,0,390,4.0,0.0
10278,78.0,0,390,0.0,0.0
10279,81.0,48,390,0.0,0.0
10280,66.0,0,390,2.0,0.0
10281,69.0,0,390,4.0,0.0
10282,47.0,0,390,3.0,0.0
10283,35.0,0,390,3.0,0.0
10284,69.0,0,390,1.0,0.0
10285,78.0,0,390,1.0,0.0
10286,72.0,144,240,11.0,0.0
10287,35.0,0,420,14.0,0.0
10288,78.0,48,180,10.0,0.0
10289,47.0,0,420,13.0,0.0
10290,83.0,192,240,10.0,0.0
10291,62.0,48,180,12.0,0.0
10292,71.0,0,180,11.0,0.0
10293,67.0,0,390,4.0,0.0
10294,47.0,0,420,14.0,0.0
10295,59.0,0,420,13.0,0.0
10296,64.0,0,390,4.0,0.0
10297,76.0,0,390,0.0,0.0
10298,67.0,0,390,1.0,0.0
10299,79.0,0,390,0.0,0.0
10300,47.0,0,390,3.0,0.0
10301,59.0,48,390,3.0,0.0
10302,62.0,0,240,12.0,0.0
10303,76.0,0,390,1.0,0.0
10304,76.0,48,180,10.0,0.0
10305,64.0,0,390,2.0,0.0
10306,67.0,0,390,2.0,0.0
10307,71.0,144,240,11.0,0.0
10308,69.0,0,180,11.0,0.0
10309,81.0,240,240,10.0,0.0
10310,60.0,48,180,12.0,0.0
10311,60.0,0,240,12.0,0.0
10312,63.0,0,780,4.0,0.0
10313,35.0,0,420,14.0,0.0
10314,66.0,0,780,4.0,0.0
10315,75.0,36,690,10.0,0.0
10316,69.0,0,240,11.0,0.0
10317,57.0,0,240,3.0,0.0
10318,47.0,48,420,13.0,0.0
10319,60.0,0,240,3.0,0.0
10320,69.0,0,780,1.0,0.0
10321,72.0,192,240,2.0,0.0
10322,69.0,0,240,2.0,0.0
10323,75.0,48,870,0.0,0.0
10324,78.0,204,480,0.0,0.0
10325,75.0,96,780,1.0,0.0
10326,59.0,0,180,12.0,0.0
10327,67.0,0,180,11.0,0.0
10328,55.0,0,180,3.0,0.0
10329,59.0,0,180,3.0,0.0
10330,67.0,0,180,2.0,0.0
10331,71.0,0,180,2.0,0.0
10332,59.0,0,240,3.0,0.0
10333,55.0,0,240,3.0,0.0
10334,59.0,48,240,12.0,0.0
10335,67.0,0,240,2.0,0.0
10336,71.0,0,240,2.0,0.0
10337,47.0,0,420,14.0,0.0
10338,59.0,36,420,13.0,0.0
10339,67.0,0,240,11.0,0.0
10340,69.0,0,180,2.0,0.0
10341,66.0,0,180,2.0,0.0
10342,54.0,0,180,3.0,0.0
10343,57.0,0,180,3.0,0.0
10344,57.0,0,180,12.0,0.0
10345,66.0,0,180,11.0,0.0
10346,75.0,252,240,10.0,0.0
10347,67.0,0,390,1.0,0.0
10348,66.0,48,240,2.0,0.0
10349,69.0,0,240,2.0,0.0
10350,60.0,0,360,13.0,0.0
10351,76.0,0,390,1.0,0.0
10352,76.0,48,390,0.0,0.0
10353,54.0,0,240,3.0,0.0
10354,64.0,0,300,11.0,0.0
10355,60.0,0,390,5.0,0.0
10356,55.0,72,300,12.0,0.0
10357,48.0,24,360,14.0,0.0
10358,57.0,0,240,3.0,0.0
10359,64.0,0,390,4.0,0.0
10360,76.0,0,300,10.0,0.0
10361,64.0,48,180,2.0,0.0
10362,67.0,0,180,2.0,0.0
10363,55.0,240,240,3.0,0.0
10364,52.0,0,240,3.0,0.0
10365,40.0,24,360,14.0,0.0
10366,79.0,24,450,10.0,0.0
10367,69.0,0,240,11.0,0.0
10368,52.0,0,360,13.0,0.0
10369,79.0,360,480,1.0,0.0
10370,60.0,0,240,3.0,0.0
10371,60.0,0,240,12.0,0.0
10372,52.0,0,390,5.0,0.0
10373,67.0,48,390,4.0,0.0
10374,69.0,120,240,2.0,0.0
10375,72.0,0,240,2.0,0.0
10376,57.0,0,240,3.0,0.0
10377,59.0,24,180,12.0,0.0
10378,67.0,0,180,11.0,0.0
10379,59.0,0,180,3.0,0.0
10380,55.0,0,180,3.0,0.0
10381,67.0,0,180,2.0,0.0
10382,71.0,0,180,2.0,0.0
10383,55.0,0,780,5.0,0.0
10384,75.0,72,780,1.0,0.0
10385,59.0,0,480,3.0,0.0
10386,55.0,0,480,3.0,0.0
10387,67.0,0,480,2.0,0.0
10388,55.0,120,360,13.0,0.0
10389,71.0,0,480,2.0,0.0
10390,67.0,204,480,11.0,0.0
10391,75.0,84,690,10.0,0.0
10392,43.0,0,780,5.0,0.0
10393,67.0,0,480,4.0,0.0
10394,59.0,0,480,12.0,0.0
10395,43.0,0,360,14.0,0.0
10396,71.0,0,480,4.0,0.0
10397,69.0,0,390,4.0,0.0
10398,65.0,0,390,4.0,0.0
10399,43.0,0,360,13.0,0.0
10400,57.0,0,390,12.0,0.0
10401,53.0,0,390,3.0,0.0
10402,65.0,0,480,2.0,0.0
10403,69.0,288,480,2.0,0.0
10404,57.0,0,390,3.0,0.0
10405,65.0,84,390,11.0,0.0
10406,31.0,24,360,14.0,0.0
10407,75.0,12,240,10.0,0.0
10408,64.0,0,300,2.0,0.0
10409,60.0,0,300,5.0,0.0
10410,76.0,0,300,10.0,0.0
10411,48.0,0,300,5.0,0.0
10412,76.0,0,300,1.0,0.0
10413,64.0,0,300,4.0,0.0
10414,48.0,0,300,13.0,0.0
10415,55.0,0,300,3.0,0.0
10416,52.0,0,300,3.0,0.0
10417,64.0,672,300,11.0,0.0
10418,55.0,0,300,12.0,0.0
10419,67.0,0,300,2.0,0.0
10420,67.0,0,300,4.0,0.0
10421,36.0,0,300,14.0,0.0
10422,60.0,0,900,13.0,0.0
10423,91.0,432,480,10.0,0.0
10424,64.0,48,900,12.0,0.0
10425,79.0,0,480,11.0,0.0
10426,78.0,0,480,11.0,0.0
10427,90.0,480,480,10.0,0.0
10428,62.0,96,870,13.0,0.0
10429,76.0,0,480,11.0,0.0
10430,66.0,0,870,12.0,0.0
10431,88.0,384,480,10.0,0.0
10432,74.0,470,480,11.0,0.0
10433,86.0,0,480,10.0,0.0
10434,84.0,10,480,10.0,0.0
10435,67.0,480,480,13.0,0.0
10436,72.0,0,480,11.0,0.0
10437,64.0,0,480,12.0,0.0
10438,79.0,96,1350,10.0,0.0
10439,67.0,0,1350,11.0,0.0
10440,66.0,480,480,13.0,0.0
10441,62.0,0,480,12.0,0.0
10442,60.0,0,480,12.0,0.0
10443,64.0,384,480,13.0,0.0
10444,59.0,384,480,12.0,0.0
10445,62.0,0,480,13.0,0.0
10446,60.0,96,390,13.0,0.0
10447,57.0,0,390,12.0,0.0
10448,66.0,192,480,11.0,0.0
10449,78.0,0,480,10.0,0.0
10450,63.0,0,720,11.0,0.0
10451,55.0,240,2880,5.0,0.0
10452,47.0,0,2880,4.0,0.0
10453,55.0,0,900,2.0,0.0
10454,43.0,0,2880,5.0,0.0
10455,47.0,0,900,3.0,0.0
10456,59.0,0,2880,4.0,0.0
10457,43.0,0,180,13.0,0.0
10458,59.0,0,900,2.0,0.0
10459,43.0,36,900,3.0,0.0
10460,31.0,96,1740,14.0,0.0
10461,75.0,144,720,10.0,0.0
10462,59.0,240,180,12.0,0.0
10463,43.0,240,240,13.0,0.0
10464,55.0,48,180,12.0,0.0
10465,55.0,48,390,13.0,0.0
10466,59.0,288,660,12.0,0.0
10467,64.0,204,240,11.0,0.0
10468,76.0,0,240,10.0,0.0
10469,79.0,0,720,10.0,0.0
10470,43.0,0,180,13.0,0.0
10471,59.0,0,480,2.0,0.0
10472,47.0,0,480,3.0,0.0
10473,67.0,48,720,11.0,0.0
10474,52.0,0,480,3.0,0.0
10475,59.0,240,240,12.0,0.0
10476,55.0,0,240,13.0,0.0
10477,67.0,0,450,2.0,0.0
10478,64.0,0,15,2.0,0.0
10479,64.0,144,570,12.0,0.0
10480,59.0,0,390,13.0,0.0
10481,52.0,0,390,3.0,0.0
10482,55.0,72,390,3.0,0.0
10483,71.0,108,240,11.0,0.0
10484,83.0,0,240,10.0,0.0
10485,88.0,0,720,10.0,0.0
10486,67.0,0,480,2.0,0.0
10487,76.0,144,720,11.0,0.0
10488,55.0,0,480,3.0,0.0
10489,55.0,240,240,13.0,0.0
10490,43.0,264,1410,14.0,0.0
10491,59.0,240,240,13.0,0.0
10492,67.0,0,240,12.0,0.0
10493,64.0,0,240,13.0,0.0
10494,71.0,0,15,2.0,0.0
10495,76.0,0,450,2.0,0.0
10496,71.0,0,240,12.0,0.0
10497,59.0,0,15,3.0,0.0
10498,64.0,48,390,3.0,0.0
10499,79.0,12,240,11.0,0.0
10500,76.0,0,240,12.0,0.0
10501,91.0,0,240,10.0,0.0
10502,59.0,24,180,13.0,0.0
10503,59.0,0,300,3.0,0.0
10504,55.0,0,300,3.0,0.0
10505,55.0,0,300,13.0,0.0
10506,83.0,0,300,11.0,0.0
10507,76.0,72,390,2.0,0.0
10508,79.0,0,390,2.0,0.0
10509,64.0,96,300,12.0,0.0
10510,95.0,48,240,10.0,0.0
10511,41.0,144,780,3.0,0.0
10512,81.0,0,480,11.0,0.0
10513,57.0,0,780,3.0,0.0
10514,41.0,0,240,13.0,0.0
10515,96.0,240,480,10.0,0.0
10516,84.0,0,480,11.0,0.0
10517,57.0,240,240,12.0,0.0
10518,41.0,36,900,14.0,0.0
10519,48.0,0,240,13.0,0.0
10520,65.0,0,240,12.0,0.0
10521,79.0,0,480,11.0,0.0
10522,83.0,240,480,11.0,0.0
10523,95.0,0,480,10.0,0.0
10524,53.0,48,240,13.0,0.0
10525,69.0,0,240,12.0,0.0
10526,72.0,12,240,12.0,0.0
10527,57.0,0,240,13.0,0.0
10528,43.0,72,870,3.0,0.0
10529,59.0,240,240,12.0,0.0
10530,43.0,12,930,14.0,0.0
10531,59.0,0,870,3.0,0.0
10532,43.0,0,240,13.0,0.0
10533,93.0,240,480,10.0,0.0
10534,81.0,0,480,11.0,0.0
10535,77.0,0,480,11.0,0.0
10536,62.0,0,240,12.0,0.0
10537,47.0,0,240,13.0,0.0
10538,50.0,144,240,13.0,0.0
10539,67.0,0,240,12.0,0.0
10540,91.0,240,480,10.0,0.0
10541,76.0,0,480,11.0,0.0
10542,79.0,0,480,11.0,0.0
10543,55.0,12,240,13.0,0.0
10544,71.0,0,240,12.0,0.0
10545,69.0,0,480,5.0,0.0
10546,81.0,0,480,0.0,0.0
10547,72.0,0,480,5.0,0.0
10548,45.0,0,240,13.0,0.0
10549,77.0,24,450,11.0,0.0
10550,45.0,12,1890,14.0,0.0
10551,84.0,0,480,0.0,0.0
10552,45.0,0,1830,3.0,0.0
10553,60.0,216,240,12.0,0.0
10554,60.0,72,1830,3.0,0.0
10555,72.0,0,480,2.0,0.0
10556,89.0,0,450,10.0,0.0
10557,84.0,0,480,1.0,0.0
10558,81.0,240,480,2.0,0.0
10559,81.0,0,480,1.0,0.0
10560,65.0,0,240,12.0,0.0
10561,48.0,0,240,13.0,0.0
10562,67.0,240,480,5.0,0.0
10563,71.0,0,480,5.0,0.0
10564,79.0,0,480,1.0,0.0
10565,69.0,228,240,12.0,0.0
10566,71.0,0,480,2.0,0.0
10567,79.0,0,480,2.0,0.0
10568,83.0,0,480,0.0,0.0
10569,79.0,0,480,0.0,0.0
10570,72.0,0,1410,11.0,0.0
10571,84.0,0,1410,10.0,0.0
10572,83.0,0,480,1.0,0.0
10573,53.0,0,240,13.0,0.0
10574,57.0,12,240,13.0,0.0
10575,72.0,0,240,12.0,0.0
10576,77.0,0,480,1.0,0.0
10577,69.0,0,480,5.0,0.0
10578,45.0,0,240,13.0,0.0
10579,69.0,0,480,2.0,0.0
10580,77.0,240,480,2.0,0.0
10581,65.0,0,480,5.0,0.0
10582,81.0,0,480,1.0,0.0
10583,65.0,228,240,12.0,0.0
10584,81.0,0,480,0.0,0.0
10585,77.0,0,480,0.0,0.0
10586,69.0,12,240,12.0,0.0
10587,53.0,0,240,13.0,0.0
10588,67.0,0,480,2.0,0.0
10589,79.0,0,480,1.0,0.0
10590,76.0,0,480,1.0,0.0
10591,67.0,0,480,5.0,0.0
10592,57.0,144,240,13.0,0.0
10593,76.0,0,480,2.0,0.0
10594,76.0,240,480,0.0,0.0
10595,60.0,0,240,12.0,0.0
10596,79.0,0,480,0.0,0.0
10597,64.0,0,480,5.0,0.0
10598,65.0,0,240,12.0,0.0
10599,60.0,12,240,13.0,0.0
10600,56.0,0,390,3.0,0.0
10601,44.0,0,390,3.0,0.0
10602,74.0,0,480,11.0,0.0
10603,86.0,240,480,10.0,0.0
10604,44.0,12,450,14.0,0.0
10605,77.0,0,390,2.0,0.0
10606,65.0,0,390,5.0,0.0
10607,56.0,144,240,13.0,0.0
10608,77.0,0,390,1.0,0.0
10609,65.0,0,390,2.0,0.0
10610,77.0,72,390,0.0,0.0
10611,60.0,0,240,12.0,0.0
10612,65.0,12,240,12.0,0.0
10613,60.0,0,240,13.0,0.0
10614,55.0,228,240,13.0,0.0
10615,76.0,0,900,6.0,0.0
10616,77.0,0,720,11.0,0.0
10617,72.0,0,900,1.0,0.0
10618,48.0,144,780,5.0,0.0
10619,60.0,0,780,5.0,0.0
10620,43.0,0,900,14.0,0.0
10621,43.0,0,780,3.0,0.0
10622,89.0,0,720,10.0,0.0
10623,64.0,0,900,6.0,0.0
10624,55.0,0,780,3.0,0.0
10625,52.0,0,900,4.0,0.0
10626,64.0,36,900,4.0,0.0
10627,60.0,0,240,12.0,0.0
10628,67.0,0,240,12.0,0.0
10629,60.0,252,240,13.0,0.0
10630,55.0,48,240,13.0,0.0
10631,60.0,0,240,12.0,0.0
10632,88.0,252,240,10.0,0.0
10633,67.0,0,240,12.0,0.0
10634,76.0,0,240,11.0,0.0
10635,60.0,0,240,13.0,0.0
10636,40.0,0,900,14.0,0.0
10637,84.0,0,720,10.0,0.0
10638,72.0,0,720,11.0,0.0
10639,52.0,228,240,13.0,0.0
10640,40.0,96,780,3.0,0.0
10641,55.0,0,240,12.0,0.0
10642,52.0,0,780,3.0,0.0
10643,76.0,0,900,6.0,0.0
10644,64.0,0,900,4.0,0.0
10645,64.0,0,900,6.0,0.0
10646,72.0,0,900,1.0,0.0
10647,60.0,240,480,5.0,0.0
10648,64.0,0,480,5.0,0.0
10649,52.0,36,900,4.0,0.0
10650,55.0,0,240,13.0,0.0
10651,60.0,12,240,12.0,0.0
10652,55.0,48,240,12.0,0.0
10653,52.0,0,240,13.0,0.0
10654,67.0,48,390,5.0,0.0
10655,64.0,0,390,5.0,0.0
10656,67.0,0,240,11.0,0.0
10657,60.0,0,240,12.0,0.0
10658,55.0,252,240,13.0,0.0
10659,79.0,0,240,10.0,0.0
10660,67.0,0,480,5.0,0.0
10661,72.0,240,480,5.0,0.0
10662,46.0,96,780,3.0,0.0
10663,46.0,0,240,13.0,0.0
10664,64.0,36,900,6.0,0.0
10665,55.0,228,240,12.0,0.0
10666,52.0,0,900,4.0,0.0
10667,64.0,0,900,4.0,0.0
10668,64.0,0,720,11.0,0.0
10669,76.0,0,720,10.0,0.0
10670,34.0,0,900,14.0,0.0
10671,76.0,0,900,6.0,0.0
10672,72.0,0,900,1.0,0.0
10673,55.0,0,240,13.0,0.0
10674,64.0,12,240,12.0,0.0
10675,55.0,48,240,12.0,0.0
10676,64.0,48,390,5.0,0.0
10677,55.0,0,390,5.0,0.0
10678,46.0,0,240,13.0,0.0
10679,60.0,0,240,11.0,0.0
10680,64.0,0,240,12.0,0.0
10681,55.0,300,240,13.0,0.0
10682,72.0,0,240,10.0,0.0
10683,71.0,0,570,2.0,0.0
10684,59.0,0,570,2.0,0.0
10685,47.0,0,300,13.0,0.0
10686,71.0,0,570,1.0,0.0
10687,59.0,0,300,6.0,0.0
10688,47.0,264,570,3.0,0.0
10689,35.0,288,300,14.0,0.0
10690,54.0,0,300,5.0,0.0
10691,59.0,0,570,4.0,0.0
10692,47.0,0,570,4.0,0.0
10693,63.0,0,300,5.0,0.0
10694,71.0,0,300,10.0,0.0
10695,63.0,0,300,12.0,0.0
10696,54.0,0,300,12.0,0.0
10697,71.0,0,300,6.0,0.0
10698,59.0,0,300,11.0,0.0
10699,47.0,0,120,3.0,0.0
10700,71.0,120,120,1.0,0.0
10701,59.0,0,120,2.0,0.0
10702,59.0,0,120,4.0,0.0
10703,71.0,0,120,2.0,0.0
10704,63.0,0,120,4.0,0.0
10705,75.0,0,120,2.0,0.0
10706,51.0,0,120,3.0,0.0
10707,75.0,0,120,1.0,0.0
10708,63.0,176,120,2.0,0.0
10709,78.0,0,180,1.0,0.0
10710,54.0,0,180,3.0,0.0
10711,78.0,0,180,2.0,0.0
10712,66.0,320,180,2.0,0.0
10713,66.0,0,180,4.0,0.0
10714,75.0,0,180,1.0,0.0
10715,75.0,0,180,2.0,0.0
10716,51.0,0,180,3.0,0.0
10717,63.0,0,180,4.0,0.0
10718,63.0,320,180,2.0,0.0
10719,67.0,720,180,2.0,0.0
10720,79.0,0,180,2.0,0.0
10721,79.0,0,180,1.0,0.0
10722,55.0,0,180,3.0,0.0
10723,67.0,0,180,4.0,0.0
10724,66.0,0,570,2.0,0.0
10725,54.0,0,570,3.0,0.0
10726,66.0,0,570,4.0,0.0
10727,78.0,0,570,2.0,0.0
10728,78.0,336,570,1.0,0.0
10729,75.0,312,180,1.0,0.0
10730,63.0,0,180,2.0,0.0
10731,63.0,0,180,4.0,0.0
10732,75.0,0,180,2.0,0.0
10733,51.0,0,180,3.0,0.0
10734,59.0,0,270,2.0,0.0
10735,47.0,480,270,3.0,0.0
10736,59.0,0,270,4.0,0.0
10737,71.0,0,270,2.0,0.0
10738,71.0,0,270,1.0,0.0
10739,59.0,0,270,3.0,0.0
10740,59.0,0,270,4.0,0.0
10741,71.0,0,270,4.0,0.0
10742,71.0,0,270,2.0,0.0
10743,83.0,0,270,2.0,0.0
10744,83.0,792,270,1.0,0.0
10745,79.0,0,570,1.0,0.0
10746,67.0,336,570,4.0,0.0
10747,67.0,0,570,2.0,0.0
10748,55.0,0,570,3.0,0.0
10749,79.0,0,570,2.0,0.0
10750,78.0,0,180,1.0,0.0
10751,54.0,312,180,3.0,0.0
10752,66.0,0,180,4.0,0.0
10753,66.0,0,180,2.0,0.0
10754,78.0,0,180,2.0,0.0
10755,66.0,0,270,2.0,0.0
10756,78.0,0,270,2.0,0.0
10757,78.0,0,270,1.0,0.0
10758,66.0,480,270,4.0,0.0
10759,54.0,0,270,3.0,0.0
10760,71.0,0,270,12.0,0.0
10761,66.0,0,270,11.0,0.0
10762,75.0,0,270,11.0,0.0
10763,71.0,0,270,6.0,0.0
10764,59.0,0,270,6.0,0.0
10765,75.0,0,270,2.0,0.0
10766,87.0,0,270,0.0,0.0
10767,71.0,0,270,2.0,0.0
10768,75.0,480,270,1.0,0.0
10769,35.0,0,270,14.0,0.0
10770,83.0,0,270,0.0,0.0
10771,47.0,0,270,13.0,0.0
10772,47.0,0,270,3.0,0.0
10773,63.0,0,270,4.0,0.0
10774,83.0,0,270,10.0,0.0
10775,64.0,0,270,6.0,0.0
10776,76.0,0,570,2.0,0.0
10777,71.0,0,270,1.0,0.0
10778,76.0,120,270,6.0,0.0
10779,59.0,192,390,4.0,0.0
10780,71.0,0,570,11.0,0.0
10781,67.0,0,570,11.0,0.0
10782,79.0,0,570,10.0,0.0
10783,79.0,0,570,0.0,0.0
10784,52.0,0,570,13.0,0.0
10785,67.0,0,570,5.0,0.0
10786,64.0,0,570,5.0,0.0
10787,67.0,0,570,12.0,0.0
10788,52.0,276,570,3.0,0.0
10789,40.0,0,570,14.0,0.0
10790,67.0,0,570,2.0,0.0
10791,88.0,0,570,0.0,0.0
10792,82.0,60,120,0.0,0.0
10793,73.0,0,120,2.0,0.0
10794,61.0,0,120,12.0,0.0
10795,70.0,0,120,2.0,0.0
10796,42.0,0,120,14.0,0.0
10797,70.0,0,120,11.0,0.0
10798,85.0,0,120,0.0,0.0
10799,54.0,0,120,3.0,0.0
10800,61.0,312,180,5.0,0.0
10801,54.0,0,120,13.0,0.0
10802,66.0,0,120,11.0,0.0
10803,58.0,0,180,5.0,0.0
10804,78.0,0,120,10.0,0.0
10805,73.0,0,270,2.0,0.0
10806,61.0,0,390,5.0,0.0
10807,58.0,360,390,5.0,0.0
10808,66.0,0,270,11.0,0.0
10809,70.0,0,270,11.0,0.0
10810,42.0,120,270,14.0,0.0
10811,78.0,0,270,6.0,0.0
10812,54.0,0,270,3.0,0.0
10813,61.0,0,270,12.0,0.0
10814,54.0,0,270,13.0,0.0
10815,85.0,0,270,0.0,0.0
10816,82.0,0,270,0.0,0.0
10817,70.0,0,270,2.0,0.0
10818,78.0,0,270,10.0,0.0
10819,75.0,0,270,10.0,0.0
10820,59.0,0,390,5.0,0.0
10821,71.0,120,270,11.0,0.0
10822,63.0,0,270,11.0,0.0
10823,66.0,0,270,12.0,0.0
10824,63.0,360,390,5.0,0.0
10825,75.0,0,270,2.0,0.0
10826,63.0,0,270,12.0,0.0
10827,71.0,0,270,6.0,0.0
10828,47.0,0,270,13.0,0.0
10829,87.0,0,270,0.0,0.0
10830,83.0,0,270,0.0,0.0
10831,59.0,0,270,6.0,0.0
10832,35.0,0,270,14.0,0.0
10833,47.0,0,270,3.0,0.0
10834,71.0,0,270,2.0,0.0
10835,47.0,0,270,14.0,0.0
10836,63.0,0,390,5.0,0.0
10837,75.0,96,300,2.0,0.0
10838,59.0,0,300,3.0,0.0
10839,59.0,0,960,13.0,0.0
10840,71.0,0,300,2.0,0.0
10841,59.0,96,390,5.0,0.0
10842,87.0,0,300,0.0,0.0
10843,71.0,0,270,11.0,0.0
10844,63.0,0,270,12.0,0.0
10845,66.0,0,270,12.0,0.0
10846,63.0,0,270,11.0,0.0
10847,47.0,372,480,4.0,0.0
10848,59.0,264,960,4.0,0.0
10849,71.0,0,270,10.0,0.0
10850,71.0,24,270,6.0,0.0
10851,59.0,0,270,6.0,0.0
10852,83.0,0,300,0.0,0.0
10853,54.0,0,120,14.0,0.0
10854,54.0,108,120,3.0,0.0
10855,69.0,0,120,12.0,0.0
10856,66.0,0,120,3.0,0.0
10857,63.0,0,390,11.0,0.0
10858,71.0,0,300,0.0,0.0
10859,69.0,274,1440,13.0,0.0
10860,69.0,14,1410,4.0,0.0
10861,71.0,0,390,10.0,0.0
10862,54.0,0,270,3.0,0.0
10863,66.0,0,270,3.0,0.0
10864,69.0,96,300,2.0,0.0
10865,71.0,0,300,2.0,0.0
10866,71.0,360,390,11.0,0.0
10867,69.0,24,270,12.0,0.0
10868,54.0,0,270,14.0,0.0
10869,51.0,0,270,3.0,0.0
10870,66.0,0,270,12.0,0.0
10871,51.0,0,270,14.0,0.0
10872,63.0,480,270,3.0,0.0
10873,83.0,0,300,0.0,0.0
10874,83.0,0,390,10.0,0.0
10875,75.0,0,390,10.0,0.0
10876,75.0,0,390,11.0,0.0
10877,63.0,0,270,12.0,0.0
10878,83.0,0,300,2.0,0.0
10879,75.0,0,300,2.0,0.0
10880,75.0,96,300,0.0,0.0
10881,47.0,0,270,14.0,0.0
10882,71.0,72,390,11.0,0.0
10883,47.0,0,270,3.0,0.0
10884,59.0,24,270,3.0,0.0
10885,71.0,264,480,13.0,0.0
10886,71.0,0,480,4.0,0.0
10887,55.0,0,270,3.0,0.0
10888,43.0,0,270,14.0,0.0
10889,43.0,0,270,3.0,0.0
10890,59.0,216,270,12.0,0.0
10891,76.0,0,300,0.0,0.0
10892,76.0,96,300,2.0,0.0
10893,71.0,0,300,2.0,0.0
10894,76.0,0,390,11.0,0.0
10895,69.0,0,480,13.0,0.0
10896,55.0,0,270,12.0,0.0
10897,76.0,96,390,10.0,0.0
10898,67.0,0,390,11.0,0.0
10899,69.0,456,480,4.0,0.0
10900,40.0,24,270,3.0,0.0
10901,40.0,0,270,14.0,0.0
10902,52.0,0,270,3.0,0.0
10903,67.0,876,450,4.0,0.0
10904,67.0,0,450,13.0,0.0
10905,72.0,284,930,13.0,0.0
10906,72.0,0,930,4.0,0.0
10907,55.0,0,120,14.0,0.0
10908,71.0,0,120,12.0,0.0
10909,55.0,88,120,3.0,0.0
10910,67.0,0,120,3.0,0.0
10911,76.0,0,270,0.0,0.0
10912,55.0,0,270,14.0,0.0
10913,76.0,0,270,2.0,0.0
10914,64.0,0,270,2.0,0.0
10915,71.0,0,1440,13.0,0.0
10916,71.0,0,270,12.0,0.0
10917,76.0,360,390,10.0,0.0
10918,67.0,0,390,11.0,0.0
10919,76.0,0,390,11.0,0.0
10920,71.0,274,1440,4.0,0.0
10921,55.0,0,270,3.0,0.0
10922,67.0,120,270,3.0,0.0
10923,52.0,480,270,3.0,0.0
10924,64.0,0,270,3.0,0.0
10925,67.0,0,270,12.0,0.0
10926,52.0,0,270,14.0,0.0
10927,76.0,0,390,11.0,0.0
10928,67.0,86,390,11.0,0.0
10929,64.0,0,270,12.0,0.0
10930,67.0,0,270,2.0,0.0
10931,76.0,0,270,2.0,0.0
10932,88.0,0,390,10.0,0.0
10933,79.0,0,270,0.0,0.0
10934,88.0,120,270,0.0,0.0
10935,60.0,0,270,3.0,0.0
10936,48.0,0,270,3.0,0.0
10937,48.0,0,270,14.0,0.0
10938,66.0,0,480,4.0,0.0
10939,66.0,264,480,13.0,0.0
10940,60.0,0,270,12.0,0.0
10941,45.0,0,270,3.0,0.0
10942,57.0,0,270,3.0,0.0
10943,45.0,216,270,14.0,0.0
10944,67.0,470,480,4.0,0.0
10945,84.0,0,270,0.0,0.0
10946,72.0,0,270,2.0,0.0
10947,69.0,0,270,2.0,0.0
10948,81.0,0,270,0.0,0.0
10949,84.0,0,390,10.0,0.0
10950,42.0,0,270,14.0,0.0
10951,72.0,0,390,11.0,0.0
10952,67.0,0,480,13.0,0.0
10953,69.0,96,390,11.0,0.0
10954,57.0,0,270,12.0,0.0
10955,54.0,120,270,3.0,0.0
10956,42.0,0,270,3.0,0.0
10957,69.0,862,480,13.0,0.0
10958,69.0,0,480,4.0,0.0
10959,63.0,0,930,4.0,0.0
10960,63.0,284,930,13.0,0.0
10961,64.0,0,120,3.0,0.0
10962,48.0,88,120,14.0,0.0
10963,60.0,0,120,3.0,0.0
10964,64.0,0,120,12.0,0.0
10965,48.0,0,270,14.0,0.0
10966,64.0,0,270,12.0,0.0
10967,64.0,0,270,3.0,0.0
10968,60.0,120,270,3.0,0.0
10969,64.0,0,1440,13.0,0.0
10970,69.0,0,270,2.0,0.0
10971,69.0,0,390,10.0,0.0
10972,76.0,0,390,11.0,0.0
10973,81.0,0,270,0.0,0.0
10974,69.0,360,390,11.0,0.0
10975,64.0,274,1440,4.0,0.0
10976,45.0,0,270,14.0,0.0
10977,60.0,0,270,12.0,0.0
10978,60.0,0,270,3.0,0.0
10979,57.0,480,270,3.0,0.0
10980,69.0,86,390,11.0,0.0
10981,76.0,0,390,11.0,0.0
10982,54.0,0,270,3.0,0.0
10983,76.0,120,270,2.0,0.0
10984,88.0,0,270,0.0,0.0
10985,42.0,0,270,14.0,0.0
10986,57.0,0,270,3.0,0.0
10987,57.0,0,270,12.0,0.0
10988,81.0,0,270,2.0,0.0
10989,81.0,0,390,10.0,0.0
10990,93.0,0,270,0.0,0.0
10991,51.0,0,270,3.0,0.0
10992,66.0,264,480,13.0,0.0
10993,54.0,216,270,12.0,0.0
10994,66.0,0,480,4.0,0.0
10995,39.0,0,270,14.0,0.0
10996,54.0,0,270,3.0,0.0
10997,75.0,0,390,10.0,0.0
10998,75.0,96,390,11.0,0.0
10999,69.0,0,390,11.0,0.0
11000,35.0,0,270,14.0,0.0
11001,59.0,0,270,12.0,0.0
11002,87.0,120,270,0.0,0.0
11003,67.0,470,480,13.0,0.0
11004,67.0,0,480,4.0,0.0
11005,75.0,0,270,2.0,0.0
11006,47.0,0,270,3.0,0.0
11007,59.0,0,270,3.0,0.0
11008,63.0,0,480,13.0,0.0
11009,63.0,862,480,4.0,0.0
11010,81.0,0,930,0.0,0.0
11011,69.0,0,930,1.0,0.0
11012,90.0,0,930,0.0,0.0
11013,78.0,0,930,2.0,0.0
11014,69.0,0,930,2.0,0.0
11015,66.0,284,930,4.0,0.0
11016,66.0,0,930,13.0,0.0
11017,78.0,0,930,1.0,0.0
11018,60.0,0,120,3.0,0.0
11019,64.0,0,120,3.0,0.0
11020,64.0,88,120,12.0,0.0
11021,48.0,0,120,14.0,0.0
11022,67.0,284,930,1.0,0.0
11023,76.0,0,1440,1.0,0.0
11024,64.0,0,1440,4.0,0.0
11025,60.0,0,270,3.0,0.0
11026,76.0,0,390,10.0,0.0
11027,76.0,0,1440,2.0,0.0
11028,67.0,0,930,2.0,0.0
11029,48.0,0,270,14.0,0.0
11030,64.0,10,1440,13.0,0.0
11031,64.0,0,270,12.0,0.0
11032,88.0,0,1440,0.0,0.0
11033,67.0,360,390,11.0,0.0
11034,64.0,120,270,3.0,0.0
11035,76.0,0,390,11.0,0.0
11036,79.0,0,930,0.0,0.0
11037,60.0,0,270,12.0,0.0
11038,57.0,196,270,3.0,0.0
11039,45.0,0,270,14.0,0.0
11040,60.0,0,270,3.0,0.0
11041,57.0,0,270,3.0,0.0
11042,72.0,0,480,1.0,0.0
11043,54.0,0,270,3.0,0.0
11044,72.0,0,480,2.0,0.0
11045,84.0,264,480,0.0,0.0
11046,42.0,0,270,14.0,0.0
11047,72.0,86,390,11.0,0.0
11048,69.0,0,390,11.0,0.0
11049,57.0,120,270,12.0,0.0
11050,72.0,0,390,10.0,0.0
11051,78.0,0,480,2.0,0.0
11052,69.0,264,480,2.0,0.0
11053,54.0,216,270,12.0,0.0
11054,51.0,0,270,3.0,0.0
11055,54.0,0,270,3.0,0.0
11056,39.0,0,270,14.0,0.0
11057,66.0,0,480,13.0,0.0
11058,78.0,0,480,1.0,0.0
11059,69.0,0,480,1.0,0.0
11060,90.0,0,480,0.0,0.0
11061,66.0,0,480,4.0,0.0
11062,81.0,0,480,0.0,0.0
11063,67.0,0,480,13.0,0.0
11064,47.0,0,270,3.0,0.0
11065,91.0,0,480,0.0,0.0
11066,35.0,0,270,14.0,0.0
11067,79.0,0,480,1.0,0.0
11068,83.0,0,480,0.0,0.0
11069,59.0,0,270,3.0,0.0
11070,59.0,120,270,12.0,0.0
11071,67.0,470,480,4.0,0.0
11072,71.0,0,480,2.0,0.0
11073,79.0,0,960,2.0,0.0
11074,71.0,0,480,1.0,0.0
11075,71.0,0,390,11.0,0.0
11076,71.0,96,390,10.0,0.0
11077,76.0,0,480,1.0,0.0
11078,64.0,0,480,4.0,0.0
11079,70.0,0,480,1.0,0.0
11080,82.0,0,480,0.0,0.0
11081,64.0,0,480,13.0,0.0
11082,88.0,0,480,0.0,0.0
11083,70.0,394,480,2.0,0.0
11084,71.0,0,960,10.0,0.0
11085,59.0,0,390,4.0,0.0
11086,59.0,264,960,11.0,0.0
11087,59.0,468,390,13.0,0.0
11088,66.0,0,120,2.0,0.0
11089,39.0,108,120,14.0,0.0
11090,51.0,0,120,3.0,0.0
11091,39.0,0,120,3.0,0.0
11092,78.0,0,120,12.0,0.0
11093,78.0,0,120,2.0,0.0
11094,51.0,0,120,13.0,0.0
11095,90.0,0,120,0.0,0.0
11096,90.0,0,270,0.0,0.0
11097,81.0,0,1440,10.0,0.0
11098,66.0,480,270,2.0,0.0
11099,78.0,0,270,2.0,0.0
11100,69.0,274,1440,11.0,0.0
11101,51.0,0,270,3.0,0.0
11102,39.0,0,270,14.0,0.0
11103,51.0,0,270,13.0,0.0
11104,39.0,0,270,3.0,0.0
11105,78.0,0,270,12.0,0.0
11106,63.0,0,270,2.0,0.0
11107,75.0,0,270,2.0,0.0
11108,75.0,0,270,12.0,0.0
11109,35.0,0,270,14.0,0.0
11110,35.0,108,270,3.0,0.0
11111,47.0,0,270,13.0,0.0
11112,87.0,0,270,0.0,0.0
11113,47.0,0,270,3.0,0.0
11114,78.0,0,120,1.0,0.0
11115,75.0,60,120,1.0,0.0
11116,66.0,0,180,4.0,0.0
11117,59.0,312,180,4.0,0.0
11118,59.0,0,270,4.0,0.0
11119,43.0,0,270,3.0,0.0
11120,43.0,206,270,14.0,0.0
11121,55.0,0,270,3.0,0.0
11122,66.0,0,270,4.0,0.0
11123,71.0,0,270,2.0,0.0
11124,78.0,0,270,1.0,0.0
11125,75.0,0,270,1.0,0.0
11126,71.0,0,270,12.0,0.0
11127,55.0,0,270,13.0,0.0
11128,83.0,0,270,0.0,0.0
11129,40.0,0,270,3.0,0.0
11130,83.0,0,480,10.0,0.0
11131,52.0,0,270,13.0,0.0
11132,79.0,0,270,0.0,0.0
11133,67.0,216,270,2.0,0.0
11134,67.0,0,270,12.0,0.0
11135,40.0,0,270,14.0,0.0
11136,52.0,0,270,3.0,0.0
11137,71.0,264,480,11.0,0.0
11138,76.0,0,270,0.0,0.0
11139,48.0,0,270,14.0,0.0
11140,64.0,0,270,12.0,0.0
11141,60.0,0,270,3.0,0.0
11142,48.0,0,270,3.0,0.0
11143,60.0,216,270,13.0,0.0
11144,81.0,470,480,10.0,0.0
11145,64.0,0,270,2.0,0.0
11146,69.0,0,480,11.0,0.0
11147,67.0,0,270,4.0,0.0
11148,64.0,0,270,4.0,0.0
11149,76.0,0,270,1.0,0.0
11150,79.0,0,270,1.0,0.0
11151,67.0,0,480,11.0,0.0
11152,79.0,862,480,10.0,0.0
11153,74.0,0,930,11.0,0.0
11154,86.0,284,930,10.0,0.0
11155,54.0,0,120,3.0,0.0
11156,69.0,0,120,2.0,0.0
11157,81.0,0,120,2.0,0.0
11158,69.0,0,120,12.0,0.0
11159,81.0,0,120,0.0,0.0
11160,42.0,0,120,14.0,0.0
11161,42.0,0,120,3.0,0.0
11162,54.0,0,120,13.0,0.0
11163,93.0,88,120,0.0,0.0
11164,69.0,0,270,12.0,0.0
11165,42.0,0,270,14.0,0.0
11166,81.0,0,270,0.0,0.0
11167,93.0,480,270,0.0,0.0
11168,69.0,0,270,2.0,0.0
11169,72.0,274,1440,11.0,0.0
11170,81.0,0,270,2.0,0.0
11171,54.0,0,270,3.0,0.0
11172,42.0,0,270,3.0,0.0
11173,84.0,0,1440,10.0,0.0
11174,54.0,0,270,13.0,0.0
11175,50.0,0,270,3.0,0.0
11176,66.0,0,270,2.0,0.0
11177,66.0,0,270,12.0,0.0
11178,38.0,0,270,14.0,0.0
11179,78.0,0,270,2.0,0.0
11180,50.0,0,270,13.0,0.0
11181,38.0,108,270,3.0,0.0
11182,90.0,0,270,0.0,0.0
11183,78.0,372,120,1.0,0.0
11184,62.0,0,120,4.0,0.0
11185,69.0,0,120,4.0,0.0
11186,81.0,0,120,1.0,0.0
11187,47.0,206,270,14.0,0.0
11188,72.0,0,270,2.0,0.0
11189,78.0,0,270,1.0,0.0
11190,81.0,0,270,1.0,0.0
11191,59.0,0,270,3.0,0.0
11192,47.0,0,270,3.0,0.0
11193,62.0,0,270,4.0,0.0
11194,84.0,0,270,0.0,0.0
11195,59.0,0,270,13.0,0.0
11196,62.0,0,270,12.0,0.0
11197,69.0,0,270,4.0,0.0
11198,83.0,216,270,0.0,0.0
11199,71.0,264,480,11.0,0.0
11200,43.0,0,270,14.0,0.0
11201,59.0,0,270,12.0,0.0
11202,55.0,0,270,13.0,0.0
11203,43.0,0,270,3.0,0.0
11204,55.0,0,270,3.0,0.0
11205,71.0,0,270,2.0,0.0
11206,83.0,0,480,10.0,0.0
11207,64.0,0,270,13.0,0.0
11208,67.0,0,270,4.0,0.0
11209,55.0,216,270,12.0,0.0
11210,78.0,0,480,10.0,0.0
11211,83.0,0,270,1.0,0.0
11212,79.0,0,270,1.0,0.0
11213,71.0,0,270,4.0,0.0
11214,67.0,0,270,2.0,0.0
11215,66.0,470,480,11.0,0.0
11216,52.0,0,270,14.0,0.0
11217,64.0,0,270,3.0,0.0
11218,79.0,0,270,0.0,0.0
11219,52.0,0,270,3.0,0.0
11220,67.0,0,480,11.0,0.0
11221,79.0,862,480,10.0,0.0
11222,75.0,284,930,10.0,0.0
11223,63.0,0,930,11.0,0.0
11224,48.0,0,120,13.0,0.0
11225,76.0,0,120,12.0,0.0
11226,36.0,88,120,14.0,0.0
11227,48.0,0,120,3.0,0.0
11228,76.0,0,120,2.0,0.0
11229,88.0,0,120,0.0,0.0
11230,48.0,0,270,13.0,0.0
11231,48.0,0,270,3.0,0.0
11232,76.0,0,270,12.0,0.0
11233,36.0,0,270,14.0,0.0
11234,88.0,480,270,0.0,0.0
11235,76.0,0,270,2.0,0.0
11236,64.0,0,1440,11.0,0.0
11237,76.0,274,1440,10.0,0.0
11238,72.0,0,270,2.0,0.0
11239,72.0,108,270,12.0,0.0
11240,45.0,0,270,3.0,0.0
11241,45.0,0,270,13.0,0.0
11242,84.0,0,270,0.0,0.0
11243,33.0,0,270,14.0,0.0
11244,64.0,0,120,4.0,0.0
11245,76.0,372,120,1.0,0.0
11246,72.0,0,120,1.0,0.0
11247,69.0,0,270,2.0,0.0
11248,81.0,0,270,0.0,0.0
11249,42.0,0,270,14.0,0.0
11250,54.0,0,270,3.0,0.0
11251,81.0,206,270,1.0,0.0
11252,72.0,0,270,1.0,0.0
11253,54.0,0,270,13.0,0.0
11254,69.0,0,270,4.0,0.0
11255,66.0,0,270,4.0,0.0
11256,69.0,0,270,12.0,0.0
11257,78.0,0,270,0.0,0.0
11258,66.0,0,270,2.0,0.0
11259,66.0,0,480,11.0,0.0
11260,51.0,0,270,13.0,0.0
11261,39.0,216,270,14.0,0.0
11262,78.0,264,480,10.0,0.0
11263,51.0,0,270,3.0,0.0
11264,66.0,0,270,12.0,0.0
11265,63.0,0,270,4.0,0.0
11266,67.0,0,480,11.0,0.0
11267,71.0,0,270,4.0,0.0
11268,63.0,0,270,12.0,0.0
11269,59.0,0,270,13.0,0.0
11270,75.0,0,270,1.0,0.0
11271,71.0,0,270,1.0,0.0
11272,59.0,216,270,3.0,0.0
11273,47.0,0,270,14.0,0.0
11274,75.0,0,270,0.0,0.0
11275,63.0,0,270,2.0,0.0
11276,79.0,470,480,10.0,0.0
11277,63.0,0,480,11.0,0.0
11278,75.0,862,480,10.0,0.0
11279,78.0,0,960,11.0,0.0
11280,69.0,264,960,11.0,0.0
11281,90.0,0,960,10.0,0.0
11282,48.0,0,120,3.0,0.0
11283,36.0,0,120,14.0,0.0
11284,88.0,0,120,0.0,0.0
11285,76.0,0,120,2.0,0.0
11286,76.0,108,120,12.0,0.0
11287,48.0,0,120,13.0,0.0
11288,88.0,0,270,0.0,0.0
11289,36.0,0,270,14.0,0.0
11290,76.0,0,1440,11.0,0.0
11291,88.0,274,1440,10.0,0.0
11292,48.0,216,270,3.0,0.0
11293,76.0,0,270,12.0,0.0
11294,76.0,0,270,2.0,0.0
11295,48.0,0,270,13.0,0.0
11296,67.0,264,480,11.0,0.0
11297,45.0,0,270,3.0,0.0
11298,72.0,0,960,11.0,0.0
11299,72.0,0,270,12.0,0.0
11300,84.0,0,270,0.0,0.0
11301,72.0,0,270,2.0,0.0
11302,33.0,0,270,14.0,0.0
11303,45.0,108,270,13.0,0.0
11304,72.0,0,120,1.0,0.0
11305,64.0,0,120,4.0,0.0
11306,76.0,372,120,1.0,0.0
11307,69.0,0,270,2.0,0.0
11308,81.0,0,270,0.0,0.0
11309,72.0,0,270,1.0,0.0
11310,54.0,0,270,13.0,0.0
11311,69.0,0,270,4.0,0.0
11312,69.0,0,270,12.0,0.0
11313,54.0,206,270,3.0,0.0
11314,66.0,0,270,4.0,0.0
11315,42.0,0,270,14.0,0.0
11316,81.0,0,270,1.0,0.0
11317,66.0,0,270,2.0,0.0
11318,51.0,0,270,3.0,0.0
11319,93.0,0,480,10.0,0.0
11320,78.0,0,270,0.0,0.0
11321,39.0,0,270,14.0,0.0
11322,81.0,0,480,11.0,0.0
11323,72.0,264,480,11.0,0.0
11324,66.0,216,270,12.0,0.0
11325,51.0,0,270,13.0,0.0
11326,75.0,0,270,1.0,0.0
11327,63.0,24,270,12.0,0.0
11328,91.0,0,480,10.0,0.0
11329,79.0,0,480,11.0,0.0
11330,59.0,0,270,3.0,0.0
11331,75.0,0,270,0.0,0.0
11332,47.0,0,300,14.0,0.0
11333,71.0,0,270,1.0,0.0
11334,63.0,0,270,2.0,0.0
11335,63.0,0,270,4.0,0.0
11336,71.0,288,480,11.0,0.0
11337,71.0,0,270,4.0,0.0
11338,59.0,192,300,13.0,0.0
11339,87.0,0,480,10.0,0.0
11340,55.0,182,300,3.0,0.0
11341,69.0,0,480,11.0,0.0
11342,78.0,694,480,11.0,0.0
11343,43.0,0,300,3.0,0.0
11344,43.0,0,300,14.0,0.0
11345,55.0,0,300,13.0,0.0
11346,76.0,0,1380,10.0,0.0
11347,72.0,0,690,2.0,0.0
11348,60.0,0,690,2.0,0.0
11349,52.0,0,1380,4.0,0.0
11350,64.0,0,1380,4.0,0.0
11351,76.0,0,1380,11.0,0.0
11352,72.0,0,690,1.0,0.0
11353,67.0,0,1380,11.0,0.0
11354,60.0,0,1380,3.0,0.0
11355,84.0,0,1140,0.0,0.0
11356,88.0,64,1140,0.0,0.0
11357,48.0,0,1380,14.0,0.0
11358,72.0,0,1380,12.0,0.0
11359,88.0,0,1380,10.0,0.0
11360,60.0,156,690,5.0,0.0
11361,60.0,0,1380,13.0,0.0
11362,76.0,88,1380,6.0,0.0
11363,64.0,0,1380,12.0,0.0
11364,64.0,0,1380,6.0,0.0
11365,48.0,0,1380,3.0,0.0
11366,60.0,0,120,2.0,0.0
11367,72.0,0,120,1.0,0.0
11368,72.0,120,120,2.0,0.0
11369,60.0,0,120,5.0,0.0
11370,64.0,0,120,2.0,0.0
11371,76.0,0,120,2.0,0.0
11372,64.0,0,120,5.0,0.0
11373,76.0,192,120,1.0,0.0
11374,67.0,0,270,2.0,0.0
11375,79.0,152,270,2.0,0.0
11376,67.0,0,270,5.0,0.0
11377,79.0,0,270,1.0,0.0
11378,76.0,320,180,1.0,0.0
11379,64.0,0,180,5.0,0.0
11380,76.0,0,180,2.0,0.0
11381,64.0,0,180,2.0,0.0
11382,43.0,0,450,3.0,0.0
11383,55.0,0,450,3.0,0.0
11384,43.0,708,450,14.0,0.0
11385,76.0,0,1860,11.0,0.0
11386,72.0,88,1860,11.0,0.0
11387,52.0,0,1860,4.0,0.0
11388,64.0,0,1860,6.0,0.0
11389,88.0,64,1620,0.0,0.0
11390,76.0,0,1860,10.0,0.0
11391,88.0,0,1860,10.0,0.0
11392,76.0,0,1860,6.0,0.0
11393,64.0,0,1860,4.0,0.0
11394,64.0,0,1860,12.0,0.0
11395,55.0,0,450,13.0,0.0
11396,84.0,0,1620,0.0,0.0
11397,72.0,0,1860,12.0,0.0
11398,68.0,0,180,2.0,0.0
11399,80.0,0,180,1.0,0.0
11400,80.0,0,180,2.0,0.0
11401,68.0,120,180,5.0,0.0
11402,79.0,156,690,1.0,0.0
11403,79.0,0,690,2.0,0.0
11404,67.0,0,690,5.0,0.0
11405,48.0,0,1380,14.0,0.0
11406,67.0,0,690,2.0,0.0
11407,60.0,0,1380,13.0,0.0
11408,60.0,0,1380,3.0,0.0
11409,48.0,0,1380,3.0,0.0
11410,72.0,0,120,2.0,0.0
11411,60.0,0,120,2.0,0.0
11412,72.0,120,120,1.0,0.0
11413,60.0,0,120,5.0,0.0
11414,64.0,0,120,5.0,0.0
11415,76.0,0,120,2.0,0.0
11416,64.0,0,120,2.0,0.0
11417,76.0,192,120,1.0,0.0
11418,67.0,0,270,2.0,0.0
11419,79.0,152,270,1.0,0.0
11420,79.0,0,270,2.0,0.0
11421,67.0,0,270,5.0,0.0
11422,64.0,320,180,2.0,0.0
11423,76.0,0,180,1.0,0.0
11424,64.0,0,180,5.0,0.0
11425,76.0,0,180,2.0,0.0
11426,88.0,0,870,0.0,0.0
11427,52.0,0,930,4.0,0.0
11428,76.0,0,870,11.0,0.0
11429,55.0,0,450,13.0,0.0
11430,64.0,40,930,4.0,0.0
11431,64.0,0,870,12.0,0.0
11432,64.0,0,930,6.0,0.0
11433,88.0,0,870,10.0,0.0
11434,76.0,72,870,10.0,0.0
11435,76.0,0,930,6.0,0.0
11436,43.0,0,450,14.0,0.0
11437,43.0,200,450,3.0,0.0
11438,55.0,0,450,3.0,0.0
11439,84.0,0,870,0.0,0.0
11440,72.0,0,870,12.0,0.0
11441,72.0,0,870,11.0,0.0
11442,68.0,120,180,5.0,0.0
11443,68.0,0,180,2.0,0.0
11444,80.0,0,180,1.0,0.0
11445,80.0,0,180,2.0,0.0
11446,79.0,208,180,1.0,0.0
11447,48.0,0,390,14.0,0.0
11448,79.0,0,180,2.0,0.0
11449,67.0,0,180,2.0,0.0
11450,60.0,0,390,13.0,0.0
11451,60.0,0,390,3.0,0.0
11452,48.0,0,390,3.0,0.0
11453,67.0,0,180,5.0,0.0
11454,64.0,320,180,2.0,0.0
11455,76.0,0,180,1.0,0.0
11456,76.0,0,180,2.0,0.0
11457,64.0,0,180,5.0,0.0
11458,52.0,0,900,4.0,0.0
11459,88.0,0,780,10.0,0.0
11460,76.0,0,780,10.0,0.0
11461,64.0,0,900,4.0,0.0
11462,64.0,0,900,6.0,0.0
11463,76.0,64,900,6.0,0.0
11464,64.0,0,780,12.0,0.0
11465,72.0,96,780,12.0,0.0
11466,43.0,0,390,14.0,0.0
11467,55.0,272,390,3.0,0.0
11468,43.0,0,390,3.0,0.0
11469,88.0,0,780,0.0,0.0
11470,84.0,0,780,0.0,0.0
11471,72.0,0,780,11.0,0.0
11472,55.0,0,390,13.0,0.0
11473,76.0,0,780,11.0,0.0
11474,68.0,0,180,2.0,0.0
11475,80.0,0,180,1.0,0.0
11476,68.0,48,180,5.0,0.0
11477,80.0,0,180,2.0,0.0
11478,67.0,0,180,2.0,0.0
11479,67.0,112,180,5.0,0.0
11480,79.0,0,180,2.0,0.0
11481,79.0,0,180,1.0,0.0
11482,48.0,0,390,14.0,0.0
11483,60.0,0,390,13.0,0.0
11484,60.0,0,390,3.0,0.0
11485,48.0,48,390,3.0,0.0
11486,76.0,0,180,2.0,0.0
11487,76.0,368,180,1.0,0.0
11488,64.0,0,180,2.0,0.0
11489,64.0,0,180,5.0,0.0
11490,31.0,0,390,14.0,0.0
11491,86.0,0,390,0.0,0.0
11492,89.0,0,390,10.0,0.0
11493,89.0,0,390,0.0,0.0
11494,43.0,0,390,3.0,0.0
11495,68.0,0,390,12.0,0.0
11496,74.0,480,390,11.0,0.0
11497,77.0,0,390,11.0,0.0
11498,43.0,0,390,13.0,0.0
11499,88.0,0,390,0.0,0.0
11500,36.0,0,390,14.0,0.0
11501,84.0,480,390,0.0,0.0
11502,76.0,0,390,11.0,0.0
11503,48.0,0,390,3.0,0.0
11504,67.0,0,390,12.0,0.0
11505,48.0,0,390,13.0,0.0
11506,72.0,0,390,11.0,0.0
11507,88.0,0,390,10.0,0.0
11508,86.0,0,390,0.0,0.0
11509,83.0,0,390,0.0,0.0
11510,65.0,0,390,12.0,0.0
11511,86.0,0,390,10.0,0.0
11512,44.0,0,390,13.0,0.0
11513,71.0,0,390,11.0,0.0
11514,44.0,480,390,3.0,0.0
11515,32.0,0,390,14.0,0.0
11516,74.0,0,390,11.0,0.0
11517,69.0,0,390,11.0,0.0
11518,72.0,0,390,11.0,0.0
11519,52.0,0,390,3.0,0.0
11520,64.0,0,390,12.0,0.0
11521,84.0,480,390,0.0,0.0
11522,81.0,0,390,0.0,0.0
11523,40.0,0,390,14.0,0.0
11524,84.0,0,390,10.0,0.0
11525,52.0,0,390,13.0,0.0
11526,48.0,0,390,3.0,0.0
11527,62.0,672,390,12.0,0.0
11528,80.0,0,390,10.0,0.0
11529,48.0,0,390,13.0,0.0
11530,36.0,0,390,14.0,0.0
11531,68.0,0,390,11.0,0.0
11532,71.0,0,390,11.0,0.0
11533,72.0,0,1380,10.0,0.0
11534,65.0,0,570,1.0,0.0
11535,77.0,264,570,1.0,0.0
11536,41.0,216,1140,14.0,0.0
11537,81.0,0,1380,10.0,0.0
11538,72.0,0,1380,11.0,0.0
11539,69.0,88,1380,11.0,0.0
11540,53.0,0,570,3.0,0.0
11541,77.0,0,570,0.0,0.0
11542,65.0,0,570,2.0,0.0
11543,69.0,0,1380,12.0,0.0
11544,60.0,0,1380,12.0,0.0
11545,53.0,0,1140,13.0,0.0
11546,65.0,0,1140,4.0,0.0
11547,69.0,0,1140,4.0,0.0
11548,65.0,0,120,2.0,0.0
11549,65.0,120,120,1.0,0.0
11550,53.0,0,120,3.0,0.0
11551,77.0,0,120,0.0,0.0
11552,69.0,0,120,1.0,0.0
11553,57.0,0,120,3.0,0.0
11554,69.0,176,120,2.0,0.0
11555,81.0,0,120,0.0,0.0
11556,72.0,16,180,1.0,0.0
11557,60.0,0,180,5.0,0.0
11558,84.0,0,180,0.0,0.0
11559,60.0,0,180,3.0,0.0
11560,72.0,0,180,2.0,0.0
11561,57.0,0,180,3.0,0.0
11562,69.0,16,180,2.0,0.0
11563,69.0,0,180,1.0,0.0
11564,81.0,0,180,0.0,0.0
11565,57.0,304,180,5.0,0.0
11566,65.0,0,1860,12.0,0.0
11567,36.0,672,390,14.0,0.0
11568,69.0,0,1860,12.0,0.0
11569,77.0,0,1860,11.0,0.0
11570,69.0,0,1860,11.0,0.0
11571,69.0,88,1860,10.0,0.0
11572,81.0,0,1860,10.0,0.0
11573,48.0,0,390,13.0,0.0
11574,65.0,0,1620,4.0,0.0
11575,69.0,216,1620,4.0,0.0
11576,61.0,0,180,3.0,0.0
11577,73.0,0,180,2.0,0.0
11578,61.0,32,180,5.0,0.0
11579,85.0,0,180,0.0,0.0
11580,73.0,16,180,1.0,0.0
11581,60.0,72,780,5.0,0.0
11582,41.0,0,1140,14.0,0.0
11583,53.0,0,570,3.0,0.0
11584,65.0,192,570,1.0,0.0
11585,53.0,0,1140,13.0,0.0
11586,65.0,0,570,2.0,0.0
11587,77.0,0,570,0.0,0.0
11588,65.0,0,120,1.0,0.0
11589,65.0,0,120,2.0,0.0
11590,53.0,120,120,3.0,0.0
11591,77.0,0,120,0.0,0.0
11592,81.0,0,120,0.0,0.0
11593,57.0,176,120,3.0,0.0
11594,69.0,0,120,1.0,0.0
11595,69.0,0,120,2.0,0.0
11596,72.0,0,180,1.0,0.0
11597,72.0,0,180,2.0,0.0
11598,60.0,16,180,3.0,0.0
11599,60.0,0,180,5.0,0.0
11600,84.0,0,180,0.0,0.0
11601,57.0,16,180,3.0,0.0
11602,81.0,0,180,0.0,0.0
11603,69.0,0,180,1.0,0.0
11604,57.0,304,180,5.0,0.0
11605,69.0,0,180,2.0,0.0
11606,69.0,0,930,12.0,0.0
11607,65.0,0,930,12.0,0.0
11608,69.0,40,930,11.0,0.0
11609,36.0,272,390,14.0,0.0
11610,77.0,0,930,11.0,0.0
11611,48.0,0,390,13.0,0.0
11612,65.0,72,870,4.0,0.0
11613,69.0,0,870,4.0,0.0
11614,69.0,0,930,10.0,0.0
11615,81.0,0,930,10.0,0.0
11616,61.0,16,180,3.0,0.0
11617,85.0,0,180,0.0,0.0
11618,73.0,0,180,1.0,0.0
11619,73.0,0,180,2.0,0.0
11620,61.0,32,180,5.0,0.0
11621,84.0,0,180,0.0,0.0
11622,60.0,0,180,3.0,0.0
11623,72.0,0,180,1.0,0.0
11624,41.0,0,390,14.0,0.0
11625,72.0,16,180,2.0,0.0
11626,53.0,0,390,13.0,0.0
11627,60.0,192,180,5.0,0.0
11628,69.0,0,180,1.0,0.0
11629,57.0,304,180,5.0,0.0
11630,57.0,0,180,3.0,0.0
11631,69.0,16,180,2.0,0.0
11632,81.0,0,180,0.0,0.0
11633,69.0,0,900,11.0,0.0
11634,36.0,272,390,14.0,0.0
11635,48.0,0,390,13.0,0.0
11636,69.0,96,780,4.0,0.0
11637,77.0,0,900,11.0,0.0
11638,69.0,64,900,12.0,0.0
11639,65.0,0,900,12.0,0.0
11640,81.0,0,900,10.0,0.0
11641,69.0,0,900,10.0,0.0
11642,65.0,0,780,4.0,0.0
11643,73.0,0,180,2.0,0.0
11644,61.0,0,180,3.0,0.0
11645,73.0,0,180,1.0,0.0
11646,85.0,16,180,0.0,0.0
11647,61.0,32,180,5.0,0.0
11648,41.0,48,390,14.0,0.0
11649,84.0,0,180,0.0,0.0
11650,72.0,16,180,2.0,0.0
11651,53.0,0,390,13.0,0.0
11652,60.0,0,180,3.0,0.0
11653,72.0,0,180,1.0,0.0
11654,60.0,96,180,5.0,0.0
11655,57.0,0,180,3.0,0.0
11656,57.0,224,180,5.0,0.0
11657,69.0,0,180,1.0,0.0
11658,69.0,16,180,2.0,0.0
11659,81.0,0,180,0.0,0.0
11660,73.0,480,270,12.0,0.0
11661,49.0,0,270,14.0,0.0
11662,85.0,8,270,10.0,0.0
11663,73.0,0,270,11.0,0.0
11664,61.0,0,270,13.0,0.0
11665,48.0,8,270,14.0,0.0
11666,72.0,0,270,11.0,0.0
11667,72.0,0,270,12.0,0.0
11668,84.0,448,270,10.0,0.0
11669,60.0,0,270,13.0,0.0
11670,69.0,0,240,1.0,0.0
11671,81.0,0,240,1.0,0.0
11672,81.0,0,240,2.0,0.0
11673,81.0,0,240,0.0,0.0
11674,69.0,0,240,2.0,0.0
11675,57.0,480,240,3.0,0.0
11676,77.0,0,240,1.0,0.0
11677,65.0,0,240,1.0,0.0
11678,77.0,624,240,2.0,0.0
11679,65.0,0,240,2.0,0.0
11680,77.0,0,240,0.0,0.0
11681,53.0,0,240,3.0,0.0
11682,40.0,480,390,14.0,0.0
11683,64.0,0,390,12.0,0.0
11684,52.0,0,390,13.0,0.0
11685,64.0,0,390,11.0,0.0
11686,76.0,0,390,10.0,0.0
11687,51.0,0,390,13.0,0.0
11688,75.0,0,390,10.0,0.0
11689,63.0,0,390,12.0,0.0
11690,39.0,0,390,14.0,0.0
11691,63.0,336,390,11.0,0.0
11692,66.0,0,240,2.0,0.0
11693,54.0,0,240,3.0,0.0
11694,78.0,0,240,1.0,0.0
11695,78.0,0,240,2.0,0.0
11696,78.0,0,240,0.0,0.0
11697,66.0,480,240,1.0,0.0
11698,57.0,0,240,3.0,0.0
11699,81.0,0,240,1.0,0.0
11700,69.0,0,240,2.0,0.0
11701,81.0,0,240,2.0,0.0
11702,81.0,0,240,0.0,0.0
11703,69.0,624,240,1.0,0.0
11704,60.0,0,390,13.0,0.0
11705,84.0,0,390,10.0,0.0
11706,72.0,0,390,12.0,0.0
11707,72.0,480,390,11.0,0.0
11708,48.0,0,390,14.0,0.0
11709,47.0,0,390,14.0,0.0
11710,59.0,0,390,13.0,0.0
11711,71.0,0,390,12.0,0.0
11712,83.0,336,390,10.0,0.0
11713,71.0,0,390,11.0,0.0
11714,79.0,0,240,2.0,0.0
11715,79.0,0,240,1.0,0.0
11716,67.0,0,240,1.0,0.0
11717,67.0,0,240,2.0,0.0
11718,79.0,480,240,0.0,0.0
11719,55.0,0,240,3.0,0.0
11720,64.0,0,240,1.0,0.0
11721,64.0,624,240,2.0,0.0
11722,76.0,0,240,2.0,0.0
11723,76.0,0,240,0.0,0.0
11724,76.0,0,240,1.0,0.0
11725,52.0,0,240,3.0,0.0
11726,74.0,0,390,10.0,0.0
11727,62.0,0,390,12.0,0.0
11728,50.0,480,390,13.0,0.0
11729,62.0,0,390,11.0,0.0
11730,38.0,0,390,14.0,0.0
11731,37.0,0,390,14.0,0.0
11732,49.0,0,390,13.0,0.0
11733,61.0,0,390,11.0,0.0
11734,73.0,336,390,10.0,0.0
11735,61.0,0,390,12.0,0.0
11736,52.0,0,240,3.0,0.0
11737,76.0,0,240,2.0,0.0
11738,64.0,480,240,2.0,0.0
11739,76.0,0,240,0.0,0.0
11740,64.0,0,240,1.0,0.0
11741,76.0,0,240,1.0,0.0
11742,79.0,0,240,2.0,0.0
11743,79.0,0,240,1.0,0.0
11744,67.0,0,240,1.0,0.0
11745,55.0,0,240,3.0,0.0
11746,67.0,0,240,2.0,0.0
11747,79.0,624,240,0.0,0.0
11748,47.0,0,390,14.0,0.0
11749,71.0,0,390,12.0,0.0
11750,59.0,0,390,13.0,0.0
11751,71.0,480,390,11.0,0.0
11752,83.0,0,390,10.0,0.0
11753,72.0,336,390,10.0,0.0
11754,36.0,0,390,14.0,0.0
11755,60.0,0,390,11.0,0.0
11756,60.0,0,390,12.0,0.0
11757,48.0,0,390,13.0,0.0
11758,76.0,0,240,1.0,0.0
11759,64.0,0,240,1.0,0.0
11760,64.0,0,240,2.0,0.0
11761,76.0,480,240,2.0,0.0
11762,76.0,0,240,0.0,0.0
11763,52.0,0,240,3.0,0.0
11764,55.0,0,240,3.0,0.0
11765,67.0,0,240,2.0,0.0
11766,79.0,0,240,2.0,0.0
11767,79.0,624,240,0.0,0.0
11768,67.0,0,240,1.0,0.0
11769,79.0,0,240,1.0,0.0
11770,59.0,0,390,13.0,0.0
11771,71.0,0,390,11.0,0.0
11772,71.0,0,390,12.0,0.0
11773,47.0,480,390,14.0,0.0
11774,83.0,0,390,10.0,0.0
11775,60.0,0,390,12.0,0.0
11776,36.0,0,390,14.0,0.0
11777,48.0,336,390,13.0,0.0
11778,60.0,0,390,11.0,0.0
11779,72.0,0,390,10.0,0.0
11780,75.0,0,240,1.0,0.0
11781,63.0,0,240,1.0,0.0
11782,75.0,0,240,2.0,0.0
11783,63.0,0,240,2.0,0.0
11784,75.0,480,240,0.0,0.0
11785,51.0,0,240,3.0,0.0
11786,66.0,0,240,1.0,0.0
11787,78.0,624,240,1.0,0.0
11788,54.0,0,240,3.0,0.0
11789,78.0,0,240,2.0,0.0
11790,66.0,0,240,2.0,0.0
11791,78.0,0,240,0.0,0.0
11792,69.0,0,390,12.0,0.0
11793,57.0,480,390,13.0,0.0
11794,81.0,0,390,10.0,0.0
11795,69.0,0,390,11.0,0.0
11796,45.0,0,390,14.0,0.0
11797,35.0,336,390,14.0,0.0
11798,47.0,0,390,13.0,0.0
11799,59.0,0,390,11.0,0.0
11800,71.0,0,390,10.0,0.0
11801,59.0,0,390,12.0,0.0
11802,51.0,480,240,3.0,0.0
11803,63.0,0,240,1.0,0.0
11804,75.0,0,240,1.0,0.0
11805,63.0,0,240,2.0,0.0
11806,75.0,0,240,0.0,0.0
11807,75.0,0,240,2.0,0.0
11808,78.0,0,240,0.0,0.0
11809,78.0,624,240,1.0,0.0
11810,66.0,0,240,2.0,0.0
11811,78.0,0,240,2.0,0.0
11812,66.0,0,240,1.0,0.0
11813,54.0,0,240,3.0,0.0
11814,66.0,0,390,12.0,0.0
11815,81.0,480,390,10.0,0.0
11816,47.0,0,390,13.0,0.0
11817,35.0,0,390,14.0,0.0
11818,75.0,0,390,11.0,0.0
11819,76.0,0,390,11.0,0.0
11820,52.0,0,960,3.0,0.0
11821,68.0,384,390,12.0,0.0
11822,68.0,0,390,11.0,0.0
11823,56.0,384,960,3.0,0.0
11824,52.0,0,390,13.0,0.0
11825,80.0,0,390,10.0,0.0
11826,80.0,0,900,2.0,0.0
11827,76.0,0,900,2.0,0.0
11828,59.0,0,390,12.0,0.0
11829,68.0,0,900,4.0,0.0
11830,76.0,336,900,1.0,0.0
11831,59.0,96,300,5.0,0.0
11832,64.0,0,900,4.0,0.0
11833,92.0,0,900,0.0,0.0
11834,71.0,96,390,10.0,0.0
11835,80.0,0,900,1.0,0.0
11836,88.0,0,900,0.0,0.0
11837,35.0,0,390,14.0,0.0
11838,47.0,0,390,13.0,0.0
11839,69.0,0,390,12.0,0.0
11840,54.0,0,390,13.0,0.0
11841,57.0,384,960,3.0,0.0
11842,81.0,0,390,10.0,0.0
11843,78.0,48,390,11.0,0.0
11844,69.0,0,390,11.0,0.0
11845,54.0,0,960,3.0,0.0
11846,66.0,0,930,4.0,0.0
11847,78.0,0,930,2.0,0.0
11848,75.0,0,930,2.0,0.0
11849,63.0,0,930,4.0,0.0
11850,47.0,0,390,13.0,0.0
11851,78.0,0,930,1.0,0.0
11852,59.0,96,300,5.0,0.0
11853,75.0,0,930,1.0,0.0
11854,87.0,0,930,0.0,0.0
11855,90.0,312,930,0.0,0.0
11856,59.0,0,390,12.0,0.0
11857,71.0,96,390,10.0,0.0
11858,35.0,0,390,14.0,0.0
11859,58.0,0,960,3.0,0.0
11860,70.0,0,390,12.0,0.0
11861,82.0,0,390,10.0,0.0
11862,55.0,384,960,3.0,0.0
11863,79.0,0,390,11.0,0.0
11864,70.0,0,390,11.0,0.0
11865,55.0,72,390,13.0,0.0
11866,64.0,0,900,4.0,0.0
11867,61.0,336,900,4.0,0.0
11868,35.0,0,390,14.0,0.0
11869,59.0,96,390,12.0,0.0
11870,59.0,96,300,5.0,0.0
11871,47.0,0,390,13.0,0.0
11872,73.0,0,900,2.0,0.0
11873,76.0,0,900,2.0,0.0
11874,88.0,0,900,0.0,0.0
11875,76.0,0,900,1.0,0.0
11876,73.0,0,900,1.0,0.0
11877,85.0,0,900,0.0,0.0
11878,71.0,0,390,10.0,0.0
11879,83.0,0,390,10.0,0.0
11880,56.0,0,900,3.0,0.0
11881,59.0,24,900,3.0,0.0
11882,80.0,0,390,11.0,0.0
11883,71.0,0,390,11.0,0.0
11884,56.0,0,390,13.0,0.0
11885,71.0,48,390,12.0,0.0
11886,59.0,408,450,4.0,0.0
11887,83.0,0,450,0.0,0.0
11888,35.0,0,390,14.0,0.0
11889,59.0,0,390,12.0,0.0
11890,87.0,0,450,0.0,0.0
11891,75.0,0,450,1.0,0.0
11892,71.0,48,390,10.0,0.0
11893,47.0,0,390,13.0,0.0
11894,71.0,0,450,2.0,0.0
11895,75.0,0,450,2.0,0.0
11896,63.0,0,450,4.0,0.0
11897,71.0,0,450,1.0,0.0
11898,59.0,96,300,5.0,0.0
11899,73.0,0,390,11.0,0.0
11900,85.0,0,1440,0.0,0.0
11901,81.0,0,1830,0.0,0.0
11902,69.0,0,1440,4.0,0.0
11903,61.0,0,1440,4.0,0.0
11904,57.0,0,390,13.0,0.0
11905,77.0,288,480,1.0,0.0
11906,65.0,0,390,12.0,0.0
11907,73.0,0,1440,2.0,0.0
11908,77.0,0,480,2.0,0.0
11909,81.0,96,390,11.0,0.0
11910,73.0,0,1440,1.0,0.0
11911,61.0,0,1440,3.0,0.0
11912,57.0,288,1440,3.0,0.0
11913,85.0,0,390,10.0,0.0
11914,73.0,0,390,12.0,0.0
11915,78.0,0,960,1.0,0.0
11916,59.0,96,300,5.0,0.0
11917,47.0,480,390,13.0,0.0
11918,73.0,0,390,10.0,0.0
11919,35.0,0,390,14.0,0.0
11920,78.0,0,960,2.0,0.0
11921,69.0,0,390,12.0,0.0
11922,66.0,0,390,12.0,0.0
11923,90.0,0,390,10.0,0.0
11924,78.0,96,390,11.0,0.0
11925,69.0,0,390,11.0,0.0
11926,72.0,0,450,1.0,0.0
11927,47.0,0,390,13.0,0.0
11928,78.0,72,390,10.0,0.0
11929,72.0,0,450,2.0,0.0
11930,76.0,0,450,2.0,0.0
11931,59.0,96,300,5.0,0.0
11932,76.0,0,450,1.0,0.0
11933,35.0,0,390,14.0,0.0
11934,64.0,408,450,3.0,0.0
11935,60.0,0,450,4.0,0.0
11936,66.0,0,450,4.0,0.0
11937,60.0,0,450,3.0,0.0
11938,84.0,0,450,0.0,0.0
11939,83.0,0,1830,0.0,0.0
11940,76.0,0,480,2.0,0.0
11941,69.0,0,390,11.0,0.0
11942,78.0,0,390,11.0,0.0
11943,71.0,0,1440,2.0,0.0
11944,59.0,0,1350,4.0,0.0
11945,81.0,0,1440,0.0,0.0
11946,71.0,0,1440,1.0,0.0
11947,66.0,384,960,4.0,0.0
11948,76.0,0,480,1.0,0.0
11949,64.0,288,480,3.0,0.0
11950,90.0,96,390,10.0,0.0
11951,69.0,0,390,12.0,0.0
11952,66.0,0,390,12.0,0.0
11953,59.0,0,1440,3.0,0.0
11954,63.0,0,960,3.0,0.0
11955,75.0,0,960,1.0,0.0
11956,35.0,0,390,14.0,0.0
11957,59.0,96,300,5.0,0.0
11958,47.0,96,390,13.0,0.0
11959,75.0,288,960,2.0,0.0
11960,78.0,0,390,10.0,0.0
11961,71.0,96,390,12.0,0.0
11962,71.0,0,390,11.0,0.0
11963,83.0,0,390,11.0,0.0
11964,71.0,0,390,4.0,0.0
11965,59.0,0,390,12.0,0.0
11966,40.0,0,390,14.0,0.0
11967,59.0,96,300,5.0,0.0
11968,76.0,0,450,1.0,0.0
11969,80.0,0,450,1.0,0.0
11970,64.0,0,450,3.0,0.0
11971,80.0,256,480,10.0,0.0
11972,52.0,0,450,3.0,0.0
11973,52.0,72,390,13.0,0.0
11974,68.0,0,450,2.0,0.0
11975,80.0,24,450,0.0,0.0
11976,64.0,0,450,2.0,0.0
11977,80.0,256,1920,1.0,0.0
11978,88.0,0,3360,0.0,0.0
11979,76.0,0,3810,1.0,0.0
11980,52.0,0,780,5.0,0.0
11981,64.0,128,780,5.0,0.0
11982,37.0,0,780,14.0,0.0
11983,80.0,0,1920,0.0,0.0
11984,49.0,320,270,13.0,0.0
11985,88.0,48,720,10.0,0.0
11986,68.0,0,270,12.0,0.0
11987,64.0,0,270,12.0,0.0
11988,49.0,0,1920,3.0,0.0
11989,61.0,0,1920,3.0,0.0
11990,68.0,0,1920,2.0,0.0
11991,76.0,0,3810,2.0,0.0
11992,61.0,0,270,13.0,0.0
11993,68.0,144,270,12.0,0.0
11994,76.0,0,270,12.0,0.0
11995,68.0,0,270,4.0,0.0
11996,64.0,0,270,4.0,0.0
11997,68.0,0,480,11.0,0.0
11998,68.0,0,270,4.0,0.0
11999,61.0,0,270,13.0,0.0
12000,64.0,64,270,4.0,0.0
12001,76.0,0,270,12.0,0.0
12002,68.0,0,270,12.0,0.0
12003,87.0,256,240,10.0,0.0
12004,68.0,0,270,12.0,0.0
12005,85.0,48,720,10.0,0.0
12006,76.0,0,720,11.0,0.0
12007,68.0,36,900,4.0,0.0
12008,76.0,320,270,12.0,0.0
12009,49.0,128,780,14.0,0.0
12010,61.0,0,270,13.0,0.0
12011,64.0,0,900,4.0,0.0
12012,49.0,0,270,13.0,0.0
12013,52.0,144,270,5.0,0.0
12014,64.0,0,270,5.0,0.0
12015,68.0,0,270,12.0,0.0
12016,64.0,0,270,12.0,0.0
12017,64.0,0,270,12.0,0.0
12018,68.0,16,270,12.0,0.0
12019,49.0,0,270,13.0,0.0
12020,52.0,0,270,5.0,0.0
12021,64.0,0,270,5.0,0.0
12022,83.0,0,240,10.0,0.0
12023,75.0,12,240,11.0,0.0
12024,70.0,0,1440,2.0,0.0
12025,61.0,128,780,5.0,0.0
12026,30.0,0,780,14.0,0.0
12027,82.0,48,720,10.0,0.0
12028,54.0,24,4290,3.0,0.0
12029,42.0,256,1920,3.0,0.0
12030,64.0,0,780,5.0,0.0
12031,85.0,0,960,0.0,0.0
12032,73.0,0,720,11.0,0.0
12033,42.0,0,270,13.0,0.0
12034,85.0,96,1440,1.0,0.0
12035,64.0,320,270,12.0,0.0
12036,61.0,0,270,12.0,0.0
12037,64.0,0,270,4.0,0.0
12038,54.0,0,270,13.0,0.0
12039,73.0,144,270,12.0,0.0
12040,64.0,0,270,12.0,0.0
12041,66.0,0,270,4.0,0.0
12042,54.0,0,270,13.0,0.0
12043,64.0,0,270,4.0,0.0
12044,73.0,64,270,12.0,0.0
12045,66.0,0,270,4.0,0.0
12046,64.0,0,270,12.0,0.0
12047,80.0,0,240,10.0,0.0
12048,71.0,256,240,11.0,0.0
12049,78.0,0,720,10.0,0.0
12050,54.0,224,270,13.0,0.0
12051,66.0,24,900,4.0,0.0
12052,76.0,0,900,0.0,0.0
12053,42.0,128,780,14.0,0.0
12054,73.0,0,270,12.0,0.0
12055,64.0,0,270,12.0,0.0
12056,70.0,48,720,11.0,0.0
12057,64.0,0,900,4.0,0.0
12058,64.0,144,270,12.0,0.0
12059,61.0,0,270,5.0,0.0
12060,42.0,0,270,13.0,0.0
12061,70.0,0,270,12.0,0.0
12062,54.0,0,270,5.0,0.0
12063,73.0,0,450,2.0,0.0
12064,82.0,0,450,0.0,0.0
12065,82.0,12,450,1.0,0.0
12066,70.0,16,270,12.0,0.0
12067,61.0,0,270,5.0,0.0
12068,54.0,0,270,5.0,0.0
12069,42.0,0,270,13.0,0.0
12070,64.0,0,270,12.0,0.0
12071,85.0,12,240,10.0,0.0
12072,76.0,0,240,11.0,0.0
12073,47.0,0,270,13.0,0.0
12074,63.0,0,780,5.0,0.0
12075,75.0,576,960,2.0,0.0
12076,71.0,96,480,2.0,0.0
12077,83.0,0,960,0.0,0.0
12078,75.0,0,960,0.0,0.0
12079,75.0,0,720,11.0,0.0
12080,75.0,0,480,1.0,0.0
12081,63.0,0,270,12.0,0.0
12082,78.0,0,480,1.0,0.0
12083,54.0,128,780,5.0,0.0
12084,71.0,224,270,12.0,0.0
12085,35.0,32,1830,14.0,0.0
12086,83.0,48,720,10.0,0.0
12087,47.0,0,2370,3.0,0.0
12088,59.0,0,270,13.0,0.0
12089,71.0,0,270,12.0,0.0
12090,63.0,0,270,12.0,0.0
12091,63.0,144,270,4.0,0.0
12092,66.0,0,270,4.0,0.0
12093,66.0,0,480,2.0,0.0
12094,66.0,52,270,4.0,0.0
12095,63.0,0,270,4.0,0.0
12096,71.0,0,270,12.0,0.0
12097,63.0,0,270,12.0,0.0
12098,59.0,0,270,13.0,0.0
12099,80.0,12,240,10.0,0.0
12100,68.0,0,240,11.0,0.0
12101,64.0,0,960,4.0,0.0
12102,76.0,0,960,0.0,0.0
12103,66.0,144,720,11.0,0.0
12104,64.0,0,960,2.0,0.0
12105,70.0,0,960,2.0,0.0
12106,78.0,176,1680,10.0,0.0
12107,64.0,0,270,12.0,0.0
12108,70.0,0,270,12.0,0.0
12109,61.0,144,270,5.0,0.0
12110,47.0,0,270,13.0,0.0
12111,54.0,0,270,5.0,0.0
12112,54.0,0,270,5.0,0.0
12113,70.0,52,270,12.0,0.0
12114,47.0,0,270,13.0,0.0
12115,61.0,0,270,5.0,0.0
12116,64.0,0,270,12.0,0.0
12117,73.0,12,240,11.0,0.0
12118,35.0,32,1830,14.0,0.0
12119,63.0,72,390,4.0,0.0
12120,66.0,0,15,4.0,0.0
12121,71.0,36,1650,11.0,0.0
12122,71.0,96,480,2.0,0.0
12123,63.0,0,390,5.0,0.0
12124,75.0,12,1890,0.0,0.0
12125,63.0,144,1920,2.0,0.0
12126,78.0,384,15,0.0,0.0
12127,54.0,0,390,5.0,0.0
12128,63.0,0,270,12.0,0.0
12129,59.0,0,270,13.0,0.0
12130,71.0,144,270,12.0,0.0
12131,66.0,96,960,2.0,0.0
12132,71.0,52,270,12.0,0.0
12133,63.0,0,270,12.0,0.0
12134,59.0,0,270,13.0,0.0
12135,68.0,396,240,10.0,0.0
12136,66.0,144,720,10.0,0.0
12137,59.0,0,390,5.0,0.0
12138,63.0,24,390,5.0,0.0
12139,47.0,108,270,13.0,0.0
12140,57.0,0,270,12.0,0.0
12141,67.0,0,390,2.0,0.0
12142,79.0,0,450,0.0,0.0
12143,57.0,40,270,12.0,0.0
12144,47.0,0,270,13.0,0.0
12145,67.0,12,240,10.0,0.0
12146,63.0,0,240,11.0,0.0
12147,68.0,48,900,4.0,0.0
12148,40.0,96,300,14.0,0.0
12149,52.0,144,150,13.0,0.0
12150,64.0,144,960,3.0,0.0
12151,68.0,0,960,3.0,0.0
12152,80.0,0,900,1.0,0.0
12153,52.0,240,150,13.0,0.0
12154,68.0,0,150,10.0,0.0
12155,64.0,240,150,11.0,0.0
12156,56.0,0,150,12.0,0.0
12157,68.0,0,150,10.0,0.0
12158,56.0,48,150,12.0,0.0
12159,64.0,0,150,11.0,0.0
12160,54.0,0,150,12.0,0.0
12161,81.0,0,270,1.0,0.0
12162,63.0,112,150,11.0,0.0
12163,69.0,128,270,4.0,0.0
12164,63.0,144,960,3.0,0.0
12165,66.0,0,960,3.0,0.0
12166,66.0,0,150,10.0,0.0
12167,63.0,0,150,11.0,0.0
12168,54.0,192,150,12.0,0.0
12169,66.0,0,150,10.0,0.0
12170,82.0,48,270,1.0,0.0
12171,70.0,0,270,4.0,0.0
12172,40.0,96,300,14.0,0.0
12173,52.0,144,150,13.0,0.0
12174,83.0,0,270,1.0,0.0
12175,71.0,64,270,4.0,0.0
12176,52.0,32,150,13.0,0.0
12177,83.0,144,480,1.0,0.0
12178,61.0,0,960,3.0,0.0
12179,71.0,0,480,4.0,0.0
12180,64.0,144,960,3.0,0.0
12181,40.0,96,300,14.0,0.0
12182,52.0,144,150,13.0,0.0
12183,52.0,96,150,13.0,0.0
12184,52.0,0,150,12.0,0.0
12185,81.0,0,960,1.0,0.0
12186,61.0,240,150,11.0,0.0
12187,64.0,0,150,10.0,0.0
12188,69.0,144,960,4.0,0.0
12189,52.0,0,150,12.0,0.0
12190,64.0,96,150,10.0,0.0
12191,61.0,0,150,11.0,0.0
12192,51.0,0,150,12.0,0.0
12193,63.0,240,150,10.0,0.0
12194,59.0,0,150,11.0,0.0
12195,63.0,0,900,3.0,0.0
12196,59.0,24,900,3.0,0.0
12197,51.0,0,150,12.0,0.0
12198,59.0,0,150,11.0,0.0
12199,63.0,96,150,10.0,0.0
12200,80.0,168,450,1.0,0.0
12201,40.0,144,150,13.0,0.0
12202,28.0,96,300,14.0,0.0
12203,68.0,0,450,4.0,0.0
12204,40.0,48,150,13.0,0.0
12205,57.0,144,1920,3.0,0.0
12206,45.0,144,150,13.0,0.0
12207,33.0,96,300,14.0,0.0
12208,77.0,0,900,1.0,0.0
12209,61.0,144,960,3.0,0.0
12210,65.0,48,900,4.0,0.0
12211,45.0,240,150,13.0,0.0
12212,49.0,0,150,12.0,0.0
12213,57.0,0,150,11.0,0.0
12214,61.0,240,150,10.0,0.0
12215,57.0,0,150,11.0,0.0
12216,49.0,48,150,12.0,0.0
12217,61.0,0,150,10.0,0.0
12218,78.0,0,270,1.0,0.0
12219,60.0,0,960,3.0,0.0
12220,60.0,0,150,10.0,0.0
12221,66.0,128,270,4.0,0.0
12222,57.0,0,150,11.0,0.0
12223,48.0,112,150,12.0,0.0
12224,60.0,192,150,10.0,0.0
12225,48.0,0,150,12.0,0.0
12226,57.0,0,150,11.0,0.0
12227,80.0,0,270,1.0,0.0
12228,68.0,48,270,4.0,0.0
12229,42.0,144,150,13.0,0.0
12230,30.0,96,300,14.0,0.0
12231,81.0,0,270,1.0,0.0
12232,69.0,64,270,4.0,0.0
12233,42.0,32,150,13.0,0.0
12234,59.0,0,1860,3.0,0.0
12235,33.0,96,300,14.0,0.0
12236,54.0,144,960,3.0,0.0
12237,45.0,144,150,13.0,0.0
12238,75.0,48,900,1.0,0.0
12239,63.0,0,900,4.0,0.0
12240,45.0,240,150,13.0,0.0
12241,59.0,0,150,10.0,0.0
12242,54.0,240,150,12.0,0.0
12243,59.0,0,150,10.0,0.0
12244,54.0,48,150,12.0,0.0
12245,64.0,192,900,4.0,0.0
12246,76.0,0,900,1.0,0.0
12247,76.0,128,270,0.0,0.0
12248,59.0,0,150,10.0,0.0
12249,52.0,112,150,12.0,0.0
12250,52.0,0,900,3.0,0.0
12251,64.0,0,270,2.0,0.0
12252,59.0,0,150,10.0,0.0
12253,52.0,192,150,12.0,0.0
12254,80.0,48,270,0.0,0.0
12255,68.0,0,270,2.0,0.0
12256,32.0,96,300,14.0,0.0
12257,44.0,144,150,13.0,0.0
12258,71.0,16,270,2.0,0.0
12259,83.0,0,270,0.0,0.0
12260,44.0,32,150,13.0,0.0
12261,64.0,144,720,3.0,0.0
12262,31.0,96,300,14.0,0.0
12263,43.0,144,150,13.0,0.0
12264,76.0,0,720,2.0,0.0
12265,88.0,0,720,0.0,0.0
12266,43.0,240,150,13.0,0.0
12267,59.0,96,150,10.0,0.0
12268,52.0,0,150,12.0,0.0
12269,52.0,96,150,12.0,0.0
12270,86.0,144,240,0.0,0.0
12271,59.0,0,150,10.0,0.0
12272,62.0,0,240,3.0,0.0
12273,74.0,0,240,2.0,0.0
12274,76.0,0,1920,0.0,0.0
12275,73.0,0,720,2.0,0.0
12276,64.0,0,1920,2.0,0.0
12277,52.0,240,150,12.0,0.0
12278,85.0,48,720,0.0,0.0
12279,64.0,0,1920,4.0,0.0
12280,61.0,0,720,3.0,0.0
12281,55.0,0,960,4.0,0.0
12282,55.0,0,960,3.0,0.0
12283,64.0,0,150,10.0,0.0
12284,64.0,240,150,10.0,0.0
12285,52.0,0,150,12.0,0.0
12286,52.0,96,150,13.0,0.0
12287,40.0,96,300,14.0,0.0
12288,52.0,96,150,13.0,0.0
12289,83.0,0,240,0.0,0.0
12290,71.0,0,240,2.0,0.0
12291,59.0,144,240,3.0,0.0
12292,37.0,96,300,14.0,0.0
12293,81.0,0,720,0.0,0.0
12294,59.0,0,960,4.0,0.0
12295,69.0,144,720,2.0,0.0
12296,49.0,144,150,13.0,0.0
12297,57.0,0,720,3.0,0.0
12298,49.0,240,150,13.0,0.0
12299,59.0,96,150,10.0,0.0
12300,52.0,0,150,12.0,0.0
12301,52.0,96,150,12.0,0.0
12302,67.0,0,240,2.0,0.0
12303,79.0,0,240,0.0,0.0
12304,59.0,0,150,10.0,0.0
12305,55.0,144,240,3.0,0.0
12306,58.0,0,150,10.0,0.0
12307,58.0,0,390,4.0,0.0
12308,61.0,0,390,4.0,0.0
12309,58.0,0,780,3.0,0.0
12310,61.0,96,780,2.0,0.0
12311,78.0,0,720,0.0,0.0
12312,66.0,0,720,2.0,0.0
12313,73.0,0,780,0.0,0.0
12314,54.0,48,720,3.0,0.0
12315,49.0,240,150,12.0,0.0
12316,58.0,240,150,10.0,0.0
12317,49.0,0,150,12.0,0.0
12318,42.0,96,150,13.0,0.0
12319,30.0,0,300,14.0,0.0
12320,42.0,48,150,13.0,0.0
12321,85.0,0,180,0.0,0.0
12322,73.0,192,180,2.0,0.0
12323,61.0,0,180,3.0,0.0
12324,78.0,0,720,2.0,0.0
12325,45.0,144,150,13.0,0.0
12326,33.0,96,300,14.0,0.0
12327,90.0,144,720,0.0,0.0
12328,66.0,0,720,3.0,0.0
12329,45.0,240,150,13.0,0.0
12330,54.0,0,150,12.0,0.0
12331,61.0,96,150,10.0,0.0
12332,76.0,0,240,2.0,0.0
12333,54.0,96,150,12.0,0.0
12334,64.0,144,240,3.0,0.0
12335,61.0,0,150,10.0,0.0
12336,88.0,0,240,0.0,0.0
12337,54.0,240,150,12.0,0.0
12338,78.0,0,1920,0.0,0.0
12339,57.0,0,960,3.0,0.0
12340,87.0,0,720,0.0,0.0
12341,63.0,0,720,3.0,0.0
12342,66.0,0,1920,2.0,0.0
12343,75.0,48,720,2.0,0.0
12344,66.0,0,150,10.0,0.0
12345,66.0,0,150,10.0,0.0
12346,54.0,240,150,12.0,0.0
12347,42.0,96,300,14.0,0.0
12348,54.0,96,150,13.0,0.0
12349,54.0,96,150,13.0,0.0
12350,73.0,0,240,2.0,0.0
12351,85.0,0,240,0.0,0.0
12352,83.0,144,720,0.0,0.0
12353,51.0,144,150,13.0,0.0
12354,61.0,144,15,3.0,0.0
12355,71.0,0,720,2.0,0.0
12356,39.0,96,300,14.0,0.0
12357,59.0,0,720,3.0,0.0
12358,51.0,240,150,13.0,0.0
12359,54.0,96,150,12.0,0.0
12360,61.0,0,150,10.0,0.0
12361,57.0,0,240,3.0,0.0
12362,69.0,0,240,2.0,0.0
12363,81.0,0,240,0.0,0.0
12364,61.0,0,150,10.0,0.0
12365,54.0,96,150,12.0,0.0
12366,63.0,0,900,2.0,0.0
12367,56.0,72,390,3.0,0.0
12368,60.0,240,150,10.0,0.0
12369,75.0,48,900,0.0,0.0
12370,80.0,168,450,0.0,0.0
12371,68.0,0,450,2.0,0.0
12372,68.0,0,720,4.0,0.0
12373,51.0,0,150,12.0,0.0
12374,60.0,144,960,3.0,0.0
12375,80.0,48,720,1.0,0.0
12376,60.0,0,150,10.0,0.0
12377,51.0,0,150,12.0,0.0
12378,42.0,96,300,14.0,0.0
12379,54.0,96,150,13.0,0.0
12380,69.0,0,240,4.0,0.0
12381,81.0,0,240,1.0,0.0
12382,54.0,48,150,13.0,0.0
12383,68.0,0,390,4.0,0.0
12384,73.0,0,960,2.0,0.0
12385,61.0,0,3750,2.0,0.0
12386,53.0,144,150,13.0,0.0
12387,41.0,96,300,14.0,0.0
12388,56.0,0,720,3.0,0.0
12389,80.0,240,390,1.0,0.0
12390,80.0,144,720,0.0,0.0
12391,53.0,0,150,13.0,0.0
12392,49.0,0,150,12.0,0.0
12393,61.0,96,150,10.0,0.0
12394,49.0,96,150,12.0,0.0
12395,57.0,144,240,3.0,0.0
12396,81.0,0,240,0.0,0.0
12397,61.0,0,150,10.0,0.0
12398,71.0,0,960,2.0,0.0
12399,80.0,48,720,1.0,0.0
12400,80.0,240,390,0.0,0.0
12401,68.0,0,720,4.0,0.0
12402,59.0,240,150,10.0,0.0
12403,56.0,0,390,3.0,0.0
12404,49.0,0,150,12.0,0.0
12405,49.0,0,150,12.0,0.0
12406,59.0,0,150,10.0,0.0
12407,37.0,96,300,14.0,0.0
12408,49.0,96,150,13.0,0.0
12409,69.0,144,240,4.0,0.0
12410,49.0,96,150,13.0,0.0
12411,81.0,0,240,1.0,0.0
12412,78.0,144,720,0.0,0.0
12413,78.0,240,390,1.0,0.0
12414,54.0,0,720,3.0,0.0
12415,42.0,96,300,14.0,0.0
12416,54.0,144,150,13.0,0.0
12417,66.0,0,390,4.0,0.0
12418,70.0,0,1830,2.0,0.0
12419,54.0,0,150,13.0,0.0
12420,58.0,0,150,10.0,0.0
12421,49.0,96,150,12.0,0.0
12422,56.0,0,240,3.0,0.0
12423,49.0,0,150,12.0,0.0
12424,58.0,96,150,10.0,0.0
12425,80.0,144,240,0.0,0.0
12426,58.0,0,150,12.0,0.0
12427,54.0,0,390,3.0,0.0
12428,61.0,240,150,10.0,0.0
12429,66.0,48,720,4.0,0.0
12430,78.0,0,720,1.0,0.0
12431,78.0,0,390,0.0,0.0
12432,61.0,0,150,10.0,0.0
12433,58.0,240,150,12.0,0.0
12434,40.0,96,300,14.0,0.0
12435,52.0,96,150,13.0,0.0
12436,68.0,0,240,4.0,0.0
12437,80.0,144,240,1.0,0.0
12438,52.0,96,150,13.0,0.0
12439,71.0,0,960,2.0,0.0
12440,59.0,0,2880,2.0,0.0
12441,66.0,240,390,4.0,0.0
12442,51.0,144,150,13.0,0.0
12443,78.0,0,390,1.0,0.0
12444,78.0,0,720,0.0,0.0
12445,54.0,144,720,3.0,0.0
12446,39.0,96,300,14.0,0.0
12447,51.0,0,150,13.0,0.0
12448,54.0,0,150,12.0,0.0
12449,59.0,96,150,10.0,0.0
12450,80.0,144,240,0.0,0.0
12451,54.0,96,150,12.0,0.0
12452,56.0,0,240,3.0,0.0
12453,59.0,0,150,10.0,0.0
12454,54.0,0,390,3.0,0.0
12455,69.0,0,960,2.0,0.0
12456,78.0,48,720,1.0,0.0
12457,57.0,0,150,10.0,0.0
12458,78.0,240,390,0.0,0.0
12459,66.0,0,720,4.0,0.0
12460,54.0,240,150,12.0,0.0
12461,54.0,0,150,12.0,0.0
12462,57.0,0,150,10.0,0.0
12463,35.0,96,300,14.0,0.0
12464,47.0,96,150,13.0,0.0
12465,68.0,144,240,4.0,0.0
12466,80.0,0,240,1.0,0.0
12467,47.0,96,150,13.0,0.0
12468,68.0,0,1830,2.0,0.0
12469,64.0,240,390,4.0,0.0
12470,76.0,0,390,1.0,0.0
12471,76.0,144,720,0.0,0.0
12472,52.0,144,150,13.0,0.0
12473,52.0,0,720,3.0,0.0
12474,40.0,96,300,14.0,0.0
12475,52.0,0,150,13.0,0.0
12476,52.0,0,150,12.0,0.0
12477,56.0,96,150,10.0,0.0
12478,52.0,0,150,12.0,0.0
12479,56.0,96,150,10.0,0.0
12480,78.0,144,240,0.0,0.0
12481,54.0,0,240,3.0,0.0
12482,76.0,0,390,0.0,0.0
12483,52.0,0,390,3.0,0.0
12484,56.0,240,150,12.0,0.0
12485,64.0,48,900,2.0,0.0
12486,76.0,0,720,1.0,0.0
12487,59.0,0,150,10.0,0.0
12488,64.0,48,720,4.0,0.0
12489,56.0,336,150,12.0,0.0
12490,59.0,0,150,10.0,0.0
12491,39.0,96,300,14.0,0.0
12492,51.0,48,390,13.0,0.0
12493,78.0,48,240,1.0,0.0
12494,66.0,0,240,4.0,0.0
12495,76.0,0,5940,0.0,0.0
12496,79.0,0,5940,0.0,0.0
12497,37.0,48,240,13.0,0.0
12498,64.0,0,5940,5.0,0.0
12499,37.0,48,4800,14.0,0.0
12500,55.0,0,5940,3.0,0.0
12501,49.0,0,4800,3.0,0.0
12502,64.0,0,5940,2.0,0.0
12503,79.0,24,390,1.0,0.0
12504,67.0,0,5940,2.0,0.0
12505,52.0,60,40,7.0,0.0
12506,55.0,0,5940,5.0,0.0
12507,52.0,60,40,7.0,0.0
12508,52.0,60,40,7.0,0.0
12509,52.0,12,40,7.0,0.0
12510,52.0,60,40,7.0,0.0
12511,40.0,0,240,13.0,0.0
12512,52.0,48,240,12.0,0.0
12513,52.0,36,40,7.0,0.0
12514,52.0,60,40,7.0,0.0
12515,52.0,12,40,7.0,0.0
12516,52.0,60,40,7.0,0.0
12517,55.0,48,240,12.0,0.0
12518,43.0,0,240,13.0,0.0
12519,55.0,0,240,11.0,0.0
12520,52.0,60,40,7.0,0.0
12521,52.0,60,40,7.0,0.0
12522,52.0,12,40,7.0,0.0
12523,64.0,12,90,4.0,0.0
12524,52.0,48,40,7.0,0.0
12525,45.0,48,240,13.0,0.0
12526,57.0,0,240,12.0,0.0
12527,57.0,0,240,11.0,0.0
12528,52.0,60,40,7.0,0.0
12529,64.0,12,90,4.0,0.0
12530,52.0,48,40,7.0,0.0
12531,52.0,12,40,7.0,0.0
12532,60.0,0,240,11.0,0.0
12533,48.0,48,240,13.0,0.0
12534,52.0,60,40,7.0,0.0
12535,60.0,0,240,12.0,0.0
12536,64.0,12,1530,4.0,0.0
12537,52.0,60,40,7.0,0.0
12538,52.0,60,40,7.0,0.0
12539,52.0,12,40,7.0,0.0
12540,52.0,60,40,7.0,0.0
12541,57.0,0,240,12.0,0.0
12542,45.0,48,240,13.0,0.0
12543,57.0,0,240,11.0,0.0
12544,52.0,60,40,7.0,0.0
12545,52.0,60,40,7.0,0.0
12546,52.0,12,40,7.0,0.0
12547,58.0,48,240,12.0,0.0
12548,52.0,60,40,7.0,0.0
12549,58.0,0,240,11.0,0.0
12550,58.0,0,240,10.0,0.0
12551,46.0,0,240,13.0,0.0
12552,52.0,60,40,7.0,0.0
12553,52.0,60,40,7.0,0.0
12554,52.0,12,40,7.0,0.0
12555,64.0,48,240,11.0,0.0
12556,64.0,0,240,12.0,0.0
12557,52.0,0,240,13.0,0.0
12558,64.0,0,240,10.0,0.0
12559,52.0,60,40,7.0,0.0
12560,52.0,60,40,7.0,0.0
12561,52.0,60,40,7.0,0.0
12562,52.0,12,40,7.0,0.0
12563,55.0,0,240,13.0,0.0
12564,55.0,0,240,12.0,0.0
12565,55.0,0,240,11.0,0.0
12566,52.0,60,40,7.0,0.0
12567,67.0,48,240,10.0,0.0
12568,52.0,60,40,7.0,0.0
12569,52.0,60,40,7.0,0.0
12570,52.0,12,40,7.0,0.0
12571,57.0,0,240,12.0,0.0
12572,69.0,0,240,10.0,0.0
12573,52.0,60,40,7.0,0.0
12574,57.0,48,240,11.0,0.0
12575,52.0,60,40,7.0,0.0
12576,52.0,60,40,7.0,0.0
12577,52.0,12,40,7.0,0.0
12578,72.0,48,240,10.0,0.0
12579,52.0,48,40,7.0,0.0
12580,60.0,0,240,12.0,0.0
12581,60.0,0,240,11.0,0.0
12582,52.0,60,40,7.0,0.0
12583,52.0,60,40,7.0,0.0
12584,52.0,12,40,7.0,0.0
12585,57.0,0,240,12.0,0.0
12586,57.0,48,240,11.0,0.0
12587,64.0,12,90,4.0,0.0
12588,69.0,0,240,10.0,0.0
12589,52.0,48,40,7.0,0.0
12590,52.0,60,40,7.0,0.0
12591,64.0,12,90,4.0,0.0
12592,52.0,48,40,7.0,0.0
12593,52.0,12,40,7.0,0.0
12594,37.0,0,1920,13.0,0.0
12595,52.0,60,40,7.0,0.0
12596,58.0,0,240,12.0,0.0
12597,58.0,0,240,11.0,0.0
12598,70.0,48,240,10.0,0.0
12599,64.0,0,1740,4.0,0.0
12600,52.0,60,40,7.0,0.0
12601,52.0,60,40,7.0,0.0
12602,52.0,12,40,7.0,0.0
12603,64.0,48,240,11.0,0.0
12604,52.0,60,40,7.0,0.0
12605,64.0,0,240,12.0,0.0
12606,76.0,0,240,10.0,0.0
12607,52.0,60,40,7.0,0.0
12608,52.0,60,40,7.0,0.0
12609,52.0,12,40,7.0,0.0
12610,67.0,48,240,12.0,0.0
12611,67.0,0,240,11.0,0.0
12612,52.0,60,40,7.0,0.0
12613,79.0,0,240,10.0,0.0
12614,52.0,60,40,7.0,0.0
12615,52.0,60,40,7.0,0.0
12616,52.0,12,40,7.0,0.0
12617,76.0,0,240,10.0,0.0
12618,64.0,0,240,11.0,0.0
12619,64.0,48,240,12.0,0.0
12620,52.0,60,40,7.0,0.0
12621,52.0,60,40,7.0,0.0
12622,52.0,60,40,7.0,0.0
12623,52.0,12,40,7.0,0.0
12624,70.0,0,240,10.0,0.0
12625,58.0,0,240,11.0,0.0
12626,52.0,60,40,7.0,0.0
12627,58.0,48,240,12.0,0.0
12628,52.0,60,40,7.0,0.0
12629,52.0,60,40,7.0,0.0
12630,52.0,12,40,7.0,0.0
12631,67.0,48,240,10.0,0.0
12632,55.0,0,240,12.0,0.0
12633,52.0,60,40,7.0,0.0
12634,52.0,60,40,7.0,0.0
12635,52.0,60,40,7.0,0.0
12636,52.0,12,40,7.0,0.0
12637,52.0,0,240,12.0,0.0
12638,64.0,48,240,10.0,0.0
12639,52.0,60,40,7.0,0.0
12640,52.0,60,40,7.0,0.0
12641,52.0,60,40,7.0,0.0
12642,52.0,12,40,7.0,0.0
12643,52.0,60,40,7.0,0.0
12644,57.0,0,240,10.0,0.0
12645,57.0,0,240,12.0,0.0
12646,52.0,60,40,7.0,0.0
12647,52.0,60,40,7.0,0.0
12648,52.0,12,40,7.0,0.0
12649,58.0,0,240,10.0,0.0
12650,58.0,48,240,12.0,0.0
12651,64.0,0,1140,4.0,0.0
12652,36.0,0,240,13.0,0.0
12653,48.0,0,1140,3.0,0.0
12654,36.0,600,1140,14.0,0.0
12655,52.0,60,40,7.0,0.0
12656,52.0,60,40,7.0,0.0
12657,52.0,60,40,7.0,0.0
12658,52.0,12,40,7.0,0.0
12659,52.0,60,40,7.0,0.0
12660,43.0,0,240,13.0,0.0
12661,55.0,48,240,12.0,0.0
12662,52.0,60,40,7.0,0.0
12663,52.0,60,40,7.0,0.0
12664,52.0,12,40,7.0,0.0
12665,52.0,48,240,13.0,0.0
12666,52.0,0,240,12.0,0.0
12667,52.0,60,40,7.0,0.0
12668,52.0,60,40,7.0,0.0
12669,52.0,60,40,7.0,0.0
12670,52.0,12,40,7.0,0.0
12671,45.0,192,240,13.0,0.0
12672,52.0,60,40,7.0,0.0
12673,52.0,60,40,7.0,0.0
12674,52.0,60,40,7.0,0.0
12675,52.0,12,40,7.0,0.0
12676,46.0,0,180,13.0,0.0
12677,52.0,0,180,7.0,0.0
12678,59.0,0,60,12.0,0.0
12679,83.0,96,90,0.0,0.0
12680,76.0,0,90,1.0,0.0
12681,47.0,0,60,7.0,0.0
12682,71.0,0,90,6.0,0.0
12683,68.0,0,90,1.0,0.0
12684,59.0,0,90,6.0,0.0
12685,47.0,24,60,13.0,0.0
12686,56.0,0,90,4.0,0.0
12687,64.0,0,90,4.0,0.0
12688,47.0,0,60,7.0,0.0
12689,47.0,24,60,13.0,0.0
12690,71.0,0,90,1.0,0.0
12691,71.0,0,90,6.0,0.0
12692,59.0,0,90,6.0,0.0
12693,83.0,0,90,0.0,0.0
12694,78.0,0,90,1.0,0.0
12695,59.0,0,60,12.0,0.0
12696,59.0,0,90,4.0,0.0
12697,66.0,312,90,4.0,0.0
12698,71.0,0,900,6.0,0.0
12699,47.0,0,300,7.0,0.0
12700,47.0,0,300,13.0,0.0
12701,83.0,840,900,0.0,0.0
12702,76.0,0,900,1.0,0.0
12703,80.0,0,900,1.0,0.0
12704,68.0,0,900,4.0,0.0
12705,64.0,0,900,4.0,0.0
12706,59.0,624,300,12.0,0.0
12707,59.0,0,900,6.0,0.0
12708,83.0,96,90,0.0,0.0
12709,47.0,24,60,13.0,0.0
12710,59.0,0,60,12.0,0.0
12711,47.0,0,60,7.0,0.0
12712,59.0,0,90,6.0,0.0
12713,71.0,0,90,6.0,0.0
12714,66.0,0,90,4.0,0.0
12715,71.0,0,90,1.0,0.0
12716,59.0,0,90,4.0,0.0
12717,78.0,0,90,1.0,0.0
12718,47.0,24,60,13.0,0.0
12719,64.0,0,90,4.0,0.0
12720,80.0,0,90,1.0,0.0
12721,59.0,0,60,12.0,0.0
12722,83.0,0,90,0.0,0.0
12723,71.0,0,90,6.0,0.0
12724,59.0,312,90,6.0,0.0
12725,47.0,0,60,7.0,0.0
12726,68.0,0,90,4.0,0.0
12727,76.0,0,90,1.0,0.0
12728,59.0,0,300,12.0,0.0
12729,83.0,0,900,0.0,0.0
12730,69.0,0,900,4.0,0.0
12731,66.0,0,900,4.0,0.0
12732,47.0,624,300,13.0,0.0
12733,78.0,0,900,1.0,0.0
12734,81.0,0,900,1.0,0.0
12735,47.0,0,300,7.0,0.0
12736,59.0,0,900,6.0,0.0
12737,71.0,840,900,6.0,0.0
12738,71.0,0,60,6.0,0.0
12739,76.0,0,90,0.0,0.0
12740,47.0,24,60,7.0,0.0
12741,59.0,0,60,6.0,0.0
12742,59.0,0,60,12.0,0.0
12743,80.0,0,90,1.0,0.0
12744,47.0,0,60,13.0,0.0
12745,76.0,0,90,1.0,0.0
12746,68.0,0,90,4.0,0.0
12747,64.0,0,90,4.0,0.0
12748,80.0,96,90,0.0,0.0
12749,78.0,0,90,0.0,0.0
12750,71.0,24,60,6.0,0.0
12751,81.0,0,90,0.0,0.0
12752,69.0,0,90,4.0,0.0
12753,59.0,0,60,12.0,0.0
12754,66.0,0,90,4.0,0.0
12755,47.0,0,60,7.0,0.0
12756,59.0,0,60,6.0,0.0
12757,47.0,0,60,13.0,0.0
12758,78.0,0,90,1.0,0.0
12759,81.0,216,90,1.0,0.0
12760,71.0,0,180,2.0,0.0
12761,83.0,0,180,0.0,0.0
12762,80.0,0,180,0.0,0.0
12763,52.0,0,300,13.0,0.0
12764,71.0,0,180,4.0,0.0
12765,68.0,0,180,4.0,0.0
12766,52.0,0,300,7.0,0.0
12767,68.0,0,180,2.0,0.0
12768,64.0,0,300,12.0,0.0
12769,71.0,0,300,6.0,0.0
12770,64.0,224,300,6.0,0.0
12771,80.0,96,180,1.0,0.0
12772,83.0,0,180,1.0,0.0
12773,68.0,0,180,2.0,0.0
12774,80.0,0,180,0.0,0.0
12775,76.0,0,180,0.0,0.0
12776,80.0,0,180,1.0,0.0
12777,64.0,0,180,4.0,0.0
12778,68.0,256,180,4.0,0.0
12779,76.0,0,180,1.0,0.0
12780,64.0,0,180,2.0,0.0
12781,64.0,0,300,6.0,0.0
12782,45.0,64,300,13.0,0.0
12783,76.0,0,300,6.0,0.0
12784,57.0,0,300,12.0,0.0
12785,52.0,0,300,7.0,0.0
12786,64.0,320,180,4.0,0.0
12787,69.0,0,180,2.0,0.0
12788,81.0,0,180,1.0,0.0
12789,52.0,0,180,4.0,0.0
12790,85.0,0,180,1.0,0.0
12791,73.0,0,180,2.0,0.0
12792,81.0,0,180,0.0,0.0
12793,85.0,0,180,0.0,0.0
12794,76.0,0,300,6.0,0.0
12795,52.0,0,300,4.0,0.0
12796,83.0,0,180,0.0,0.0
12797,64.0,224,300,4.0,0.0
12798,71.0,96,180,2.0,0.0
12799,64.0,0,300,12.0,0.0
12800,52.0,0,300,13.0,0.0
12801,83.0,0,180,1.0,0.0
12802,80.0,0,180,1.0,0.0
12803,80.0,0,180,0.0,0.0
12804,52.0,0,300,7.0,0.0
12805,68.0,0,180,2.0,0.0
12806,64.0,0,300,6.0,0.0
12807,68.0,0,180,2.0,0.0
12808,76.0,0,180,0.0,0.0
12809,64.0,256,180,2.0,0.0
12810,76.0,0,180,1.0,0.0
12811,80.0,0,180,1.0,0.0
12812,80.0,0,180,0.0,0.0
12813,56.0,64,300,4.0,0.0
12814,64.0,0,300,4.0,0.0
12815,56.0,0,300,13.0,0.0
12816,52.0,0,300,7.0,0.0
12817,68.0,0,300,12.0,0.0
12818,88.0,0,180,0.0,0.0
12819,76.0,0,180,2.0,0.0
12820,64.0,0,180,2.0,0.0
12821,88.0,0,180,1.0,0.0
12822,76.0,0,180,1.0,0.0
12823,76.0,320,180,0.0,0.0
12824,47.0,224,300,7.0,0.0
12825,83.0,0,300,0.0,0.0
12826,75.0,0,300,0.0,0.0
12827,75.0,96,180,1.0,0.0
12828,59.0,0,300,13.0,0.0
12829,63.0,0,300,2.0,0.0
12830,71.0,0,300,2.0,0.0
12831,59.0,0,300,6.0,0.0
12832,83.0,0,180,1.0,0.0
12833,71.0,0,300,6.0,0.0
12834,66.0,0,300,4.0,0.0
12835,59.0,0,300,4.0,0.0
12836,71.0,0,300,12.0,0.0
12837,78.0,256,180,1.0,0.0
12838,59.0,0,300,4.0,0.0
12839,59.0,0,300,12.0,0.0
12840,47.0,64,300,13.0,0.0
12841,66.0,0,300,4.0,0.0
12842,47.0,0,300,7.0,0.0
12843,75.0,0,180,1.0,0.0
12844,83.0,176,180,1.0,0.0
12845,88.0,0,4620,0.0,0.0
12846,85.0,0,4620,0.0,0.0
12847,52.0,0,4740,3.0,0.0
12848,73.0,60,4620,2.0,0.0
12849,52.0,60,40,7.0,0.0
12850,46.0,36,180,13.0,0.0
12851,76.0,0,4620,2.0,0.0
12852,46.0,0,4740,3.0,0.0
12853,34.0,0,4740,14.0,0.0
12854,52.0,60,40,7.0,0.0
12855,52.0,24,40,7.0,0.0
12856,52.0,60,40,7.0,0.0
12857,52.0,60,40,7.0,0.0
12858,61.0,0,240,11.0,0.0
12859,49.0,36,180,13.0,0.0
12860,61.0,48,240,10.0,0.0
12861,52.0,60,40,7.0,0.0
12862,52.0,24,40,7.0,0.0
12863,52.0,12,40,7.0,0.0
12864,52.0,60,40,7.0,0.0
12865,64.0,0,240,11.0,0.0
12866,52.0,36,180,13.0,0.0
12867,64.0,48,240,10.0,0.0
12868,52.0,60,40,7.0,0.0
12869,52.0,24,40,7.0,0.0
12870,52.0,12,40,7.0,0.0
12871,54.0,24,180,13.0,0.0
12872,66.0,48,240,10.0,0.0
12873,64.0,0,90,4.0,0.0
12874,52.0,12,90,4.0,0.0
12875,66.0,0,240,11.0,0.0
12876,52.0,48,40,7.0,0.0
12877,52.0,60,40,7.0,0.0
12878,52.0,12,90,4.0,0.0
12879,64.0,0,90,4.0,0.0
12880,52.0,24,40,7.0,0.0
12881,52.0,12,40,7.0,0.0
12882,69.0,0,240,11.0,0.0
12883,52.0,0,1650,4.0,0.0
12884,64.0,24,1650,4.0,0.0
12885,52.0,60,40,7.0,0.0
12886,69.0,48,240,10.0,0.0
12887,64.0,0,1860,6.0,0.0
12888,76.0,24,1860,6.0,0.0
12889,57.0,36,180,13.0,0.0
12890,52.0,60,40,7.0,0.0
12891,52.0,24,40,7.0,0.0
12892,52.0,12,40,7.0,0.0
12893,66.0,48,240,11.0,0.0
12894,52.0,60,40,7.0,0.0
12895,54.0,36,180,13.0,0.0
12896,66.0,0,240,10.0,0.0
12897,52.0,60,40,7.0,0.0
12898,52.0,24,40,7.0,0.0
12899,52.0,12,40,7.0,0.0
12900,67.0,0,240,10.0,0.0
12901,67.0,48,240,11.0,0.0
12902,52.0,60,40,7.0,0.0
12903,55.0,36,180,13.0,0.0
12904,52.0,60,40,7.0,0.0
12905,52.0,24,40,7.0,0.0
12906,52.0,12,40,7.0,0.0
12907,52.0,60,40,7.0,0.0
12908,73.0,0,240,10.0,0.0
12909,61.0,36,180,13.0,0.0
12910,73.0,48,240,11.0,0.0
12911,52.0,60,40,7.0,0.0
12912,52.0,24,40,7.0,0.0
12913,52.0,12,40,7.0,0.0
12914,52.0,60,40,7.0,0.0
12915,76.0,0,240,10.0,0.0
12916,64.0,0,240,12.0,0.0
12917,64.0,48,240,11.0,0.0
12918,64.0,36,180,13.0,0.0
12919,52.0,60,40,7.0,0.0
12920,52.0,24,40,7.0,0.0
12921,52.0,12,40,7.0,0.0
12922,52.0,60,40,7.0,0.0
12923,78.0,48,240,10.0,0.0
12924,66.0,0,240,11.0,0.0
12925,66.0,0,240,12.0,0.0
12926,52.0,60,40,7.0,0.0
12927,52.0,60,40,7.0,0.0
12928,52.0,12,40,7.0,0.0
12929,69.0,48,240,11.0,0.0
12930,81.0,0,240,10.0,0.0
12931,69.0,0,240,12.0,0.0
12932,52.0,60,40,7.0,0.0
12933,52.0,60,40,7.0,0.0
12934,52.0,36,40,7.0,0.0
12935,52.0,12,40,7.0,0.0
12936,52.0,0,90,4.0,0.0
12937,64.0,12,90,4.0,0.0
12938,52.0,48,40,7.0,0.0
12939,66.0,0,240,12.0,0.0
12940,78.0,48,240,10.0,0.0
12941,66.0,0,240,11.0,0.0
12942,52.0,60,40,7.0,0.0
12943,52.0,24,40,7.0,0.0
12944,52.0,0,90,4.0,0.0
12945,64.0,12,90,4.0,0.0
12946,52.0,12,40,7.0,0.0
12947,79.0,48,240,10.0,0.0
12948,46.0,0,1860,13.0,0.0
12949,52.0,0,1860,4.0,0.0
12950,64.0,0,1860,4.0,0.0
12951,67.0,0,240,11.0,0.0
12952,67.0,0,240,12.0,0.0
12953,76.0,0,1860,6.0,0.0
12954,64.0,36,1860,6.0,0.0
12955,52.0,60,40,7.0,0.0
12956,52.0,60,40,7.0,0.0
12957,52.0,60,40,7.0,0.0
12958,52.0,12,40,7.0,0.0
12959,73.0,0,240,12.0,0.0
12960,73.0,0,240,11.0,0.0
12961,52.0,60,40,7.0,0.0
12962,85.0,48,240,10.0,0.0
12963,52.0,60,40,7.0,0.0
12964,52.0,60,40,7.0,0.0
12965,52.0,12,40,7.0,0.0
12966,52.0,60,40,7.0,0.0
12967,76.0,48,240,12.0,0.0
12968,76.0,0,240,11.0,0.0
12969,88.0,0,240,10.0,0.0
12970,52.0,60,40,7.0,0.0
12971,52.0,60,40,7.0,0.0
12972,52.0,12,40,7.0,0.0
12973,73.0,48,240,12.0,0.0
12974,85.0,0,240,10.0,0.0
12975,73.0,0,240,11.0,0.0
12976,52.0,60,40,7.0,0.0
12977,52.0,60,40,7.0,0.0
12978,52.0,60,40,7.0,0.0
12979,52.0,12,40,7.0,0.0
12980,79.0,0,240,10.0,0.0
12981,52.0,60,40,7.0,0.0
12982,67.0,0,240,12.0,0.0
12983,79.0,48,240,11.0,0.0
12984,52.0,60,40,7.0,0.0
12985,52.0,60,40,7.0,0.0
12986,52.0,12,40,7.0,0.0
12987,76.0,0,240,11.0,0.0
12988,52.0,60,40,7.0,0.0
12989,64.0,48,240,12.0,0.0
12990,52.0,60,40,7.0,0.0
12991,52.0,60,40,7.0,0.0
12992,52.0,12,40,7.0,0.0
12993,73.0,48,240,11.0,0.0
12994,61.0,36,180,12.0,0.0
12995,52.0,60,40,7.0,0.0
12996,52.0,60,40,7.0,0.0
12997,52.0,24,40,7.0,0.0
12998,52.0,12,40,7.0,0.0
12999,52.0,0,40,7.0,0.0
13000,66.0,0,240,12.0,0.0
13001,78.0,0,240,10.0,0.0
13002,66.0,192,240,11.0,0.0
13003,52.0,60,40,7.0,0.0
13004,52.0,24,40,7.0,0.0
13005,52.0,12,40,7.0,0.0
13006,61.0,0,1860,5.0,0.0
13007,79.0,0,960,0.0,0.0
13008,45.0,0,960,3.0,0.0
13009,57.0,240,960,3.0,0.0
13010,45.0,48,900,14.0,0.0
13011,57.0,0,900,13.0,0.0
13012,64.0,0,1860,4.0,0.0
13013,67.0,0,240,12.0,0.0
13014,52.0,48,1860,4.0,0.0
13015,64.0,0,1860,5.0,0.0
13016,76.0,0,1860,6.0,0.0
13017,52.0,48,180,7.0,0.0
13018,67.0,0,960,2.0,0.0
13019,67.0,0,240,11.0,0.0
13020,64.0,0,1860,6.0,0.0
13021,73.0,144,1740,1.0,0.0
13022,79.0,240,240,10.0,0.0
13023,76.0,0,1740,1.0,0.0
13024,76.0,0,240,10.0,0.0
13025,64.0,240,240,12.0,0.0
13026,61.0,192,240,12.0,0.0
13027,73.0,0,240,10.0,0.0
13028,79.0,0,240,11.0,0.0
13029,67.0,0,240,12.0,0.0
13030,67.0,0,240,10.0,0.0
13031,68.0,0,240,12.0,0.0
13032,80.0,240,960,0.0,0.0
13033,44.0,0,960,3.0,0.0
13034,56.0,0,900,13.0,0.0
13035,68.0,0,960,2.0,0.0
13036,44.0,0,900,14.0,0.0
13037,56.0,0,960,3.0,0.0
13038,80.0,240,240,11.0,0.0
13039,68.0,0,240,10.0,0.0
13040,64.0,0,240,12.0,0.0
13041,76.0,192,240,11.0,0.0
13042,61.0,48,180,12.0,0.0
13043,73.0,48,240,11.0,0.0
13044,68.0,0,240,12.0,0.0
13045,68.0,0,240,11.0,0.0
13046,80.0,0,240,10.0,0.0
13047,43.0,0,960,3.0,0.0
13048,61.0,0,1860,5.0,0.0
13049,55.0,0,960,3.0,0.0
13050,81.0,0,240,10.0,0.0
13051,55.0,48,900,13.0,0.0
13052,64.0,0,1860,5.0,0.0
13053,69.0,240,240,12.0,0.0
13054,73.0,144,1740,1.0,0.0
13055,69.0,0,240,11.0,0.0
13056,69.0,0,960,2.0,0.0
13057,52.0,0,1860,4.0,0.0
13058,76.0,0,1740,1.0,0.0
13059,76.0,0,1860,6.0,0.0
13060,43.0,0,900,14.0,0.0
13061,81.0,0,960,0.0,0.0
13062,64.0,0,1860,6.0,0.0
13063,64.0,0,1860,4.0,0.0
13064,64.0,192,240,12.0,0.0
13065,76.0,0,240,10.0,0.0
13066,73.0,192,240,10.0,0.0
13067,61.0,48,180,12.0,0.0
13068,69.0,0,240,12.0,0.0
13069,81.0,0,240,11.0,0.0
13070,69.0,240,240,10.0,0.0
13071,70.0,192,960,2.0,0.0
13072,54.0,0,900,13.0,0.0
13073,70.0,0,240,12.0,0.0
13074,42.0,48,900,14.0,0.0
13075,70.0,240,240,10.0,0.0
13076,54.0,0,900,3.0,0.0
13077,82.0,0,240,11.0,0.0
13078,82.0,0,960,0.0,0.0
13079,42.0,0,900,3.0,0.0
13080,64.0,192,240,12.0,0.0
13081,76.0,0,240,11.0,0.0
13082,61.0,48,180,12.0,0.0
13083,73.0,48,240,11.0,0.0
13084,76.0,0,240,10.0,0.0
13085,70.0,0,180,11.0,0.0
13086,76.0,0,1350,1.0,0.0
13087,61.0,0,1410,5.0,0.0
13088,64.0,0,1410,5.0,0.0
13089,61.0,0,1350,12.0,0.0
13090,54.0,72,1350,3.0,0.0
13091,73.0,0,1350,1.0,0.0
13092,85.0,0,1350,0.0,0.0
13093,88.0,0,1350,0.0,0.0
13094,88.0,240,240,10.0,0.0
13095,78.0,0,1410,6.0,0.0
13096,76.0,24,1410,6.0,0.0
13097,54.0,0,1350,12.0,0.0
13098,66.0,0,1410,4.0,0.0
13099,73.0,0,1350,2.0,0.0
13100,46.0,0,1350,3.0,0.0
13101,76.0,0,1350,2.0,0.0
13102,34.0,0,1350,14.0,0.0
13103,46.0,0,1350,13.0,0.0
13104,76.0,48,180,11.0,0.0
13105,73.0,0,240,11.0,0.0
13106,85.0,240,240,10.0,0.0
13107,70.0,0,240,11.0,0.0
13108,82.0,192,240,10.0,0.0
13109,78.0,240,240,10.0,0.0
13110,66.0,48,180,11.0,0.0
13111,76.0,0,240,10.0,0.0
13112,76.0,144,240,11.0,0.0
13113,73.0,0,240,11.0,0.0
13114,73.0,144,240,10.0,0.0
13115,66.0,0,150,11.0,0.0
13116,66.0,192,150,10.0,0.0
13117,68.0,0,90,11.0,0.0
13118,47.0,120,90,13.0,0.0
13119,64.0,0,90,12.0,0.0
13120,56.0,0,90,12.0,0.0
13121,35.0,0,90,14.0,0.0
13122,76.0,0,90,10.0,0.0
13123,71.0,0,90,11.0,0.0
13124,35.0,0,90,14.0,0.0
13125,47.0,0,90,13.0,0.0
13126,78.0,0,90,10.0,0.0
13127,59.0,0,90,12.0,0.0
13128,66.0,840,90,12.0,0.0
13129,68.0,192,1350,12.0,0.0
13130,47.0,0,1350,14.0,0.0
13131,76.0,0,1350,11.0,0.0
13132,59.0,0,1350,13.0,0.0
13133,64.0,0,1350,12.0,0.0
13134,80.0,0,1350,10.0,0.0
13135,47.0,0,90,7.0,0.0
13136,59.0,0,90,6.0,0.0
13137,71.0,0,90,4.0,0.0
13138,59.0,120,90,4.0,0.0
13139,71.0,0,90,6.0,0.0
13140,59.0,0,90,6.0,0.0
13141,59.0,408,90,4.0,0.0
13142,71.0,0,90,4.0,0.0
13143,47.0,0,90,7.0,0.0
13144,71.0,0,90,6.0,0.0
13145,71.0,0,570,6.0,0.0
13146,59.0,240,570,6.0,0.0
13147,59.0,0,570,4.0,0.0
13148,71.0,0,570,4.0,0.0
13149,47.0,0,390,7.0,0.0
13150,66.0,120,90,12.0,0.0
13151,78.0,0,90,10.0,0.0
13152,35.0,0,90,14.0,0.0
13153,47.0,0,90,13.0,0.0
13154,71.0,0,90,11.0,0.0
13155,59.0,0,90,12.0,0.0
13156,80.0,0,90,10.0,0.0
13157,68.0,0,90,12.0,0.0
13158,47.0,0,90,13.0,0.0
13159,35.0,0,90,14.0,0.0
13160,76.0,0,90,11.0,0.0
13161,64.0,840,90,12.0,0.0
13162,59.0,0,1350,13.0,0.0
13163,78.0,0,1350,11.0,0.0
13164,47.0,0,1350,14.0,0.0
13165,66.0,0,1350,12.0,0.0
13166,69.0,0,1350,12.0,0.0
13167,81.0,192,1350,10.0,0.0
13168,71.0,0,90,4.0,0.0
13169,59.0,120,90,4.0,0.0
13170,47.0,0,90,7.0,0.0
13171,71.0,0,90,6.0,0.0
13172,59.0,0,90,6.0,0.0
13173,71.0,0,90,4.0,0.0
13174,47.0,0,90,7.0,0.0
13175,71.0,0,90,6.0,0.0
13176,59.0,0,90,6.0,0.0
13177,59.0,408,90,4.0,0.0
13178,71.0,240,570,4.0,0.0
13179,59.0,0,570,6.0,0.0
13180,71.0,0,570,6.0,0.0
13181,47.0,0,390,7.0,0.0
13182,59.0,0,570,4.0,0.0
13183,76.0,0,90,11.0,0.0
13184,68.0,0,90,12.0,0.0
13185,40.0,0,90,13.0,0.0
13186,80.0,120,90,10.0,0.0
13187,28.0,0,90,14.0,0.0
13188,64.0,0,90,12.0,0.0
13189,81.0,0,90,10.0,0.0
13190,66.0,0,90,12.0,0.0
13191,69.0,216,90,12.0,0.0
13192,78.0,0,90,11.0,0.0
13193,28.0,0,90,14.0,0.0
13194,40.0,0,90,13.0,0.0
13195,71.0,0,180,12.0,0.0
13196,68.0,0,180,12.0,0.0
13197,40.0,0,300,14.0,0.0
13198,52.0,224,300,13.0,0.0
13199,83.0,96,180,10.0,0.0
13200,80.0,0,180,11.0,0.0
13201,64.0,256,180,12.0,0.0
13202,68.0,0,180,12.0,0.0
13203,76.0,0,180,11.0,0.0
13204,80.0,0,180,10.0,0.0
13205,45.0,0,300,13.0,0.0
13206,52.0,64,300,7.0,0.0
13207,76.0,0,300,6.0,0.0
13208,33.0,0,300,14.0,0.0
13209,64.0,0,300,6.0,0.0
13210,52.0,0,300,4.0,0.0
13211,64.0,0,300,4.0,0.0
13212,69.0,0,180,12.0,0.0
13213,73.0,0,180,12.0,0.0
13214,85.0,0,180,10.0,0.0
13215,81.0,320,180,11.0,0.0
13216,80.0,0,180,11.0,0.0
13217,71.0,96,180,12.0,0.0
13218,64.0,0,300,6.0,0.0
13219,52.0,224,300,7.0,0.0
13220,83.0,0,180,10.0,0.0
13221,76.0,0,300,6.0,0.0
13222,68.0,0,180,12.0,0.0
13223,40.0,0,300,14.0,0.0
13224,52.0,0,300,13.0,0.0
13225,52.0,0,300,4.0,0.0
13226,64.0,0,300,4.0,0.0
13227,68.0,256,180,12.0,0.0
13228,64.0,0,180,12.0,0.0
13229,76.0,0,180,11.0,0.0
13230,80.0,0,180,10.0,0.0
13231,49.0,0,300,13.0,0.0
13232,76.0,0,300,6.0,0.0
13233,64.0,0,300,6.0,0.0
13234,52.0,64,300,7.0,0.0
13235,37.0,0,300,14.0,0.0
13236,52.0,0,300,4.0,0.0
13237,64.0,0,300,4.0,0.0
13238,88.0,0,180,10.0,0.0
13239,81.0,320,180,11.0,0.0
13240,69.0,0,180,12.0,0.0
13241,76.0,0,180,12.0,0.0
13242,52.0,0,300,4.0,0.0
13243,40.0,0,300,14.0,0.0
13244,76.0,0,300,6.0,0.0
13245,52.0,0,300,13.0,0.0
13246,80.0,0,180,11.0,0.0
13247,64.0,0,300,4.0,0.0
13248,52.0,224,300,7.0,0.0
13249,83.0,0,180,10.0,0.0
13250,68.0,96,180,12.0,0.0
13251,71.0,0,180,12.0,0.0
13252,64.0,0,300,6.0,0.0
13253,76.0,0,180,11.0,0.0
13254,80.0,0,180,10.0,0.0
13255,68.0,0,180,12.0,0.0
13256,64.0,256,180,12.0,0.0
13257,56.0,48,300,13.0,0.0
13258,44.0,0,300,14.0,0.0
13259,64.0,0,180,12.0,0.0
13260,71.0,0,180,11.0,0.0
13261,59.0,104,180,12.0,0.0
13262,76.0,0,180,10.0,0.0
13263,47.0,0,90,7.0,0.0
13264,59.0,0,90,6.0,0.0
13265,59.0,0,90,4.0,0.0
13266,71.0,16,90,4.0,0.0
13267,71.0,0,90,6.0,0.0
13268,59.0,408,90,6.0,0.0
13269,71.0,0,90,4.0,0.0
13270,59.0,0,90,4.0,0.0
13271,71.0,0,90,6.0,0.0
13272,47.0,0,90,7.0,0.0
13273,78.0,0,570,10.0,0.0
13274,47.0,192,390,7.0,0.0
13275,66.0,0,570,12.0,0.0
13276,59.0,0,570,13.0,0.0
13277,59.0,0,570,12.0,0.0
13278,47.0,0,570,14.0,0.0
13279,71.0,0,570,4.0,0.0
13280,59.0,240,570,4.0,0.0
13281,75.0,0,570,11.0,0.0
13282,59.0,0,570,6.0,0.0
13283,71.0,0,570,6.0,0.0
13284,71.0,0,90,4.0,0.0
13285,59.0,120,90,4.0,0.0
13286,59.0,0,90,6.0,0.0
13287,71.0,0,90,6.0,0.0
13288,71.0,344,90,6.0,0.0
13289,59.0,0,90,6.0,0.0
13290,71.0,0,90,4.0,0.0
13291,59.0,0,90,4.0,0.0
13292,59.0,0,330,3.0,0.0
13293,71.0,0,330,1.0,0.0
13294,71.0,0,2490,6.0,0.0
13295,59.0,64,2490,6.0,0.0
13296,71.0,0,330,0.0,0.0
13297,71.0,0,2490,4.0,0.0
13298,59.0,0,2490,4.0,0.0
13299,59.0,320,330,2.0,0.0
13300,56.0,0,330,2.0,0.0
13301,76.0,0,330,1.0,0.0
13302,68.0,0,330,1.0,0.0
13303,64.0,0,330,3.0,0.0
13304,56.0,320,330,3.0,0.0
13305,76.0,0,330,0.0,0.0
13306,64.0,0,330,2.0,0.0
13307,68.0,0,330,0.0,0.0
13308,71.0,0,330,1.0,0.0
13309,59.0,0,330,2.0,0.0
13310,71.0,0,330,0.0,0.0
13311,78.0,0,330,0.0,0.0
13312,78.0,320,330,1.0,0.0
13313,66.0,0,330,2.0,0.0
13314,59.0,0,330,3.0,0.0
13315,54.0,0,330,3.0,0.0
13316,64.0,0,330,3.0,0.0
13317,80.0,0,330,1.0,0.0
13318,76.0,0,330,1.0,0.0
13319,52.0,320,330,3.0,0.0
13320,64.0,0,330,2.0,0.0
13321,68.0,0,330,2.0,0.0
13322,76.0,0,330,0.0,0.0
13323,80.0,0,330,0.0,0.0
13324,47.0,0,330,3.0,0.0
13325,59.0,0,330,3.0,0.0
13326,83.0,320,330,0.0,0.0
13327,78.0,0,330,0.0,0.0
13328,66.0,0,330,2.0,0.0
13329,71.0,0,330,2.0,0.0
13330,83.0,0,330,1.0,0.0
13331,78.0,0,330,1.0,0.0
13332,44.0,0,330,3.0,0.0
13333,80.0,320,330,1.0,0.0
13334,88.0,0,330,1.0,0.0
13335,88.0,0,330,0.0,0.0
13336,80.0,0,330,0.0,0.0
13337,76.0,0,330,2.0,0.0
13338,56.0,0,330,3.0,0.0
13339,68.0,0,330,2.0,0.0
13340,83.0,0,330,0.0,0.0
13341,78.0,0,330,0.0,0.0
13342,71.0,0,330,2.0,0.0
13343,66.0,256,330,2.0,0.0
13344,83.0,0,330,1.0,0.0
13345,59.0,0,330,3.0,0.0
13346,78.0,0,330,1.0,0.0
13347,47.0,0,330,3.0,0.0
13348,80.0,0,330,1.0,0.0
13349,64.0,0,330,3.0,0.0
13350,80.0,0,330,0.0,0.0
13351,52.0,0,330,3.0,0.0
13352,64.0,0,330,2.0,0.0
13353,68.0,176,330,2.0,0.0
13354,76.0,0,330,0.0,0.0
13355,76.0,0,15,1.0,0.0
13356,71.0,0,330,0.0,0.0
13357,76.0,0,330,0.0,0.0
13358,71.0,0,330,1.0,0.0
13359,56.0,576,330,3.0,0.0
13360,59.0,0,330,2.0,0.0
13361,64.0,0,330,2.0,0.0
13362,71.0,0,90,6.0,0.0
13363,59.0,0,90,6.0,0.0
13364,59.0,0,90,4.0,0.0
13365,71.0,120,90,4.0,0.0
13366,59.0,0,90,4.0,0.0
13367,71.0,24,90,6.0,0.0
13368,59.0,0,90,6.0,0.0
13369,71.0,0,90,4.0,0.0
13370,59.0,0,570,6.0,0.0
13371,71.0,0,570,6.0,0.0
13372,63.0,0,570,2.0,0.0
13373,66.0,0,570,2.0,0.0
13374,78.0,0,570,0.0,0.0
13375,75.0,0,570,0.0,0.0
13376,71.0,0,570,4.0,0.0
13377,59.0,240,570,4.0,0.0
13378,59.0,0,570,3.0,0.0
13379,78.0,0,570,1.0,0.0
13380,75.0,0,570,1.0,0.0
13381,80.0,0,90,10.0,0.0
13382,59.0,0,90,4.0,0.0
13383,71.0,0,90,6.0,0.0
13384,59.0,0,90,6.0,0.0
13385,71.0,120,90,11.0,0.0
13386,68.0,0,90,12.0,0.0
13387,59.0,0,90,12.0,0.0
13388,71.0,0,90,4.0,0.0
13389,63.0,0,90,12.0,0.0
13390,59.0,0,90,6.0,0.0
13391,71.0,0,90,6.0,0.0
13392,70.0,0,90,12.0,0.0
13393,59.0,0,90,4.0,0.0
13394,75.0,0,90,11.0,0.0
13395,82.0,0,90,10.0,0.0
13396,71.0,840,90,4.0,0.0
13397,83.0,0,1350,10.0,0.0
13398,68.0,0,1350,12.0,0.0
13399,80.0,192,1350,11.0,0.0
13400,71.0,0,1350,12.0,0.0
13401,59.0,0,1530,6.0,0.0
13402,71.0,0,1530,4.0,0.0
13403,59.0,240,1530,4.0,0.0
13404,71.0,0,1530,6.0,0.0
13405,47.0,120,90,13.0,0.0
13406,59.0,0,90,13.0,0.0
13407,35.0,0,90,14.0,0.0
13408,35.0,0,90,14.0,0.0
13409,47.0,0,90,13.0,0.0
13410,59.0,408,90,13.0,0.0
13411,39.0,24,900,14.0,0.0
13412,51.0,0,900,13.0,0.0
13413,63.0,0,900,13.0,0.0
13414,75.0,0,90,6.0,0.0
13415,63.0,0,90,5.0,0.0
13416,51.0,0,90,5.0,0.0
13417,75.0,0,90,11.0,0.0
13418,82.0,0,90,10.0,0.0
13419,63.0,0,90,12.0,0.0
13420,70.0,96,90,12.0,0.0
13421,75.0,0,90,6.0,0.0
13422,63.0,0,90,5.0,0.0
13423,80.0,0,90,11.0,0.0
13424,67.0,0,90,12.0,0.0
13425,51.0,0,90,5.0,0.0
13426,83.0,0,90,10.0,0.0
13427,71.0,840,90,12.0,0.0
13428,51.0,240,1530,5.0,0.0
13429,63.0,0,1530,5.0,0.0
13430,82.0,0,1350,11.0,0.0
13431,70.0,0,1350,12.0,0.0
13432,73.0,0,1350,12.0,0.0
13433,85.0,192,1350,10.0,0.0
13434,75.0,0,1530,6.0,0.0
13435,63.0,0,90,13.0,0.0
13436,51.0,120,90,13.0,0.0
13437,39.0,0,90,14.0,0.0
13438,39.0,0,90,14.0,0.0
13439,63.0,408,90,13.0,0.0
13440,51.0,0,90,13.0,0.0
13441,56.0,0,900,13.0,0.0
13442,68.0,0,900,13.0,0.0
13443,44.0,24,900,14.0,0.0
13444,80.0,96,90,11.0,0.0
13445,68.0,0,90,12.0,0.0
13446,71.0,0,90,12.0,0.0
13447,63.0,0,90,5.0,0.0
13448,83.0,0,90,10.0,0.0
13449,80.0,0,90,6.0,0.0
13450,68.0,0,90,6.0,0.0
13451,68.0,0,90,4.0,0.0
13452,56.0,0,90,4.0,0.0
13453,56.0,0,90,4.0,0.0
13454,80.0,0,90,6.0,0.0
13455,70.0,0,90,12.0,0.0
13456,63.0,216,90,5.0,0.0
13457,68.0,0,90,6.0,0.0
13458,82.0,0,90,11.0,0.0
13459,73.0,0,90,12.0,0.0
13460,68.0,0,90,4.0,0.0
13461,85.0,0,90,10.0,0.0
13462,71.0,0,2100,2.0,0.0
13463,75.0,0,180,12.0,0.0
13464,71.0,0,180,12.0,0.0
13465,87.0,0,2100,0.0,0.0
13466,83.0,0,2100,0.0,0.0
13467,75.0,0,2100,2.0,0.0
13468,83.0,96,180,11.0,0.0
13469,68.0,0,300,4.0,0.0
13470,63.0,0,2100,3.0,0.0
13471,59.0,0,2100,3.0,0.0
13472,56.0,0,300,4.0,0.0
13473,83.0,0,2100,1.0,0.0
13474,80.0,0,300,6.0,0.0
13475,68.0,224,300,6.0,0.0
13476,87.0,0,180,10.0,0.0
13477,63.0,0,300,5.0,0.0
13478,87.0,0,2100,1.0,0.0
13479,71.0,0,180,11.0,0.0
13480,71.0,0,180,12.0,0.0
13481,83.0,320,180,10.0,0.0
13482,80.0,0,180,11.0,0.0
13483,68.0,0,180,12.0,0.0
13484,80.0,320,180,10.0,0.0
13485,63.0,320,180,12.0,0.0
13486,75.0,0,180,11.0,0.0
13487,75.0,0,180,10.0,0.0
13488,71.0,0,180,10.0,0.0
13489,71.0,320,180,11.0,0.0
13490,59.0,0,180,12.0,0.0
13491,56.0,0,180,12.0,0.0
13492,68.0,320,180,11.0,0.0
13493,68.0,0,180,10.0,0.0
13494,51.0,0,180,14.0,0.0
13495,63.0,96,180,13.0,0.0
13496,63.0,0,300,10.0,0.0
13497,51.0,0,300,12.0,0.0
13498,63.0,224,300,11.0,0.0
13499,59.0,0,180,3.0,0.0
13500,83.0,0,180,1.0,0.0
13501,71.0,320,180,2.0,0.0
13502,59.0,0,180,13.0,0.0
13503,47.0,0,180,14.0,0.0
13504,83.0,0,180,0.0,0.0
13505,44.0,0,180,14.0,0.0
13506,56.0,320,180,13.0,0.0
13507,68.0,0,180,2.0,0.0
13508,80.0,0,180,1.0,0.0
13509,56.0,0,180,3.0,0.0
13510,80.0,0,180,0.0,0.0
13511,75.0,0,180,0.0,0.0
13512,51.0,0,180,13.0,0.0
13513,51.0,0,180,3.0,0.0
13514,63.0,0,180,2.0,0.0
13515,75.0,0,180,1.0,0.0
13516,39.0,320,180,14.0,0.0
13517,47.0,0,180,13.0,0.0
13518,59.0,304,180,2.0,0.0
13519,47.0,0,180,3.0,0.0
13520,71.0,0,180,0.0,0.0
13521,71.0,0,180,1.0,0.0
13522,35.0,0,180,14.0,0.0
13523,44.0,80,180,3.0,0.0
13524,68.0,0,180,0.0,0.0
13525,68.0,0,180,1.0,0.0
13526,32.0,0,180,14.0,0.0
13527,56.0,0,180,2.0,0.0
13528,44.0,0,180,13.0,0.0
13529,68.0,0,180,12.0,0.0
13530,63.0,24,180,12.0,0.0
13531,63.0,0,90,4.0,0.0
13532,68.0,16,90,10.0,0.0
13533,75.0,0,90,6.0,0.0
13534,63.0,0,90,11.0,0.0
13535,71.0,0,90,10.0,0.0
13536,63.0,792,90,4.0,0.0
13537,68.0,0,90,11.0,0.0
13538,75.0,0,90,6.0,0.0
13539,41.0,0,900,3.0,0.0
13540,29.0,48,780,14.0,0.0
13541,83.0,0,900,0.0,0.0
13542,75.0,0,900,10.0,0.0
13543,71.0,0,900,2.0,0.0
13544,68.0,0,900,2.0,0.0
13545,41.0,0,780,13.0,0.0
13546,71.0,0,900,11.0,0.0
13547,63.0,24,900,4.0,0.0
13548,68.0,0,900,12.0,0.0
13549,71.0,0,900,1.0,0.0
13550,75.0,0,900,1.0,0.0
13551,75.0,0,900,6.0,0.0
13552,71.0,0,900,12.0,0.0
13553,87.0,0,900,0.0,0.0
13554,65.0,96,90,5.0,0.0
13555,65.0,840,90,5.0,0.0
13556,65.0,0,900,5.0,0.0
13557,68.0,24,180,12.0,0.0
13558,41.0,0,90,14.0,0.0
13559,86.0,0,150,0.0,0.0
13560,80.0,0,90,6.0,0.0
13561,68.0,0,90,4.0,0.0
13562,80.0,0,150,0.0,0.0
13563,74.0,0,90,10.0,0.0
13564,68.0,0,90,11.0,0.0
13565,53.0,48,90,3.0,0.0
13566,74.0,48,150,1.0,0.0
13567,68.0,0,150,1.0,0.0
13568,68.0,0,90,6.0,0.0
13569,53.0,0,90,13.0,0.0
13570,65.0,0,180,12.0,0.0
13571,68.0,0,150,2.0,0.0
13572,74.0,0,150,2.0,0.0
13573,80.0,0,90,6.0,0.0
13574,38.0,0,90,14.0,0.0
13575,68.0,0,90,4.0,0.0
13576,50.0,0,90,3.0,0.0
13577,68.0,840,90,6.0,0.0
13578,50.0,0,90,13.0,0.0
13579,74.0,0,90,11.0,0.0
13580,77.0,0,90,10.0,0.0
13581,74.0,0,900,12.0,0.0
13582,77.0,0,900,11.0,0.0
13583,46.0,0,900,3.0,0.0
13584,86.0,0,900,0.0,0.0
13585,68.0,0,900,12.0,0.0
13586,80.0,0,900,6.0,0.0
13587,68.0,0,900,6.0,0.0
13588,74.0,0,900,1.0,0.0
13589,34.0,24,900,14.0,0.0
13590,68.0,0,900,4.0,0.0
13591,80.0,0,900,1.0,0.0
13592,92.0,0,900,0.0,0.0
13593,80.0,0,900,10.0,0.0
13594,68.0,0,900,2.0,0.0
13595,46.0,0,900,13.0,0.0
13596,74.0,0,900,2.0,0.0
13597,58.0,0,90,5.0,0.0
13598,70.0,96,90,5.0,0.0
13599,70.0,840,90,5.0,0.0
13600,58.0,0,90,5.0,0.0
13601,70.0,24,900,5.0,0.0
13602,58.0,0,900,5.0,0.0
13603,73.0,0,120,2.0,0.0
13604,58.0,36,90,3.0,0.0
13605,79.0,0,90,6.0,0.0
13606,70.0,0,180,12.0,0.0
13607,73.0,0,180,12.0,0.0
13608,73.0,0,90,11.0,0.0
13609,73.0,60,120,1.0,0.0
13610,58.0,0,90,13.0,0.0
13611,79.0,0,90,10.0,0.0
13612,79.0,0,120,1.0,0.0
13613,67.0,0,120,2.0,0.0
13614,91.0,0,120,0.0,0.0
13615,85.0,0,120,0.0,0.0
13616,67.0,0,90,4.0,0.0
13617,46.0,0,90,14.0,0.0
13618,82.0,0,90,10.0,0.0
13619,79.0,200,90,11.0,0.0
13620,79.0,0,90,6.0,0.0
13621,55.0,0,90,3.0,0.0
13622,55.0,0,90,13.0,0.0
13623,43.0,0,90,14.0,0.0
13624,67.0,0,90,4.0,0.0
13625,39.0,0,270,14.0,0.0
13626,51.0,0,270,13.0,0.0
13627,51.0,232,270,3.0,0.0
13628,67.0,0,270,12.0,0.0
13629,85.0,88,180,10.0,0.0
13630,79.0,0,270,6.0,0.0
13631,67.0,0,270,4.0,0.0
13632,85.0,0,270,0.0,0.0
13633,70.0,0,270,12.0,0.0
13634,91.0,0,270,0.0,0.0
13635,79.0,0,270,1.0,0.0
13636,67.0,0,270,2.0,0.0
13637,73.0,0,270,2.0,0.0
13638,73.0,0,270,1.0,0.0
13639,82.0,0,180,11.0,0.0
13640,82.0,248,180,10.0,0.0
13641,79.0,0,180,11.0,0.0
13642,43.0,0,270,14.0,0.0
13643,75.0,0,270,6.0,0.0
13644,55.0,0,270,3.0,0.0
13645,70.0,0,270,2.0,0.0
13646,63.0,0,270,12.0,0.0
13647,63.0,0,270,4.0,0.0
13648,75.0,0,270,2.0,0.0
13649,87.0,0,270,0.0,0.0
13650,55.0,0,270,13.0,0.0
13651,85.0,0,270,0.0,0.0
13652,70.0,0,270,12.0,0.0
13653,75.0,0,270,1.0,0.0
13654,73.0,72,270,1.0,0.0
13655,87.0,0,180,10.0,0.0
13656,75.0,0,180,11.0,0.0
13657,63.0,0,90,5.0,0.0
13658,51.0,120,90,5.0,0.0
13659,63.0,200,90,5.0,0.0
13660,51.0,0,90,5.0,0.0
13661,56.0,0,270,3.0,0.0
13662,72.0,0,270,2.0,0.0
13663,75.0,0,270,1.0,0.0
13664,63.0,0,270,5.0,0.0
13665,75.0,232,270,2.0,0.0
13666,71.0,0,270,1.0,0.0
13667,51.0,0,270,5.0,0.0
13668,63.0,0,180,12.0,0.0
13669,71.0,88,180,12.0,0.0
13670,87.0,0,270,0.0,0.0
13671,83.0,0,270,0.0,0.0
13672,83.0,0,180,10.0,0.0
13673,71.0,0,180,11.0,0.0
13674,56.0,0,270,13.0,0.0
13675,44.0,0,270,14.0,0.0
13676,68.0,0,180,12.0,0.0
13677,68.0,0,180,11.0,0.0
13678,80.0,248,180,10.0,0.0
13679,53.0,72,270,13.0,0.0
13680,65.0,0,270,5.0,0.0
13681,41.0,0,270,14.0,0.0
13682,65.0,0,180,11.0,0.0
13683,77.0,0,180,10.0,0.0
13684,65.0,320,180,12.0,0.0
13685,74.0,88,180,10.0,0.0
13686,62.0,0,180,11.0,0.0
13687,62.0,0,180,12.0,0.0
13688,50.0,232,270,13.0,0.0
13689,38.0,0,270,14.0,0.0
13690,58.0,0,180,12.0,0.0
13691,58.0,0,180,11.0,0.0
13692,70.0,248,180,10.0,0.0
13693,58.0,0,270,5.0,0.0
13694,46.0,0,270,13.0,0.0
13695,34.0,72,270,14.0,0.0
13696,70.0,0,180,12.0,0.0
13697,78.0,0,180,10.0,0.0
13698,62.0,720,180,12.0,0.0
13699,66.0,0,180,11.0,0.0
13700,74.0,0,180,11.0,0.0
13701,35.0,264,570,14.0,0.0
13702,63.0,0,570,5.0,0.0
13703,71.0,0,570,1.0,0.0
13704,63.0,0,570,12.0,0.0
13705,66.0,0,570,12.0,0.0
13706,71.0,0,570,6.0,0.0
13707,47.0,0,570,13.0,0.0
13708,75.0,0,570,10.0,0.0
13709,71.0,0,570,2.0,0.0
13710,59.0,0,570,3.0,0.0
13711,66.0,0,570,11.0,0.0
13712,75.0,0,570,11.0,0.0
13713,59.0,0,570,4.0,0.0
13714,59.0,0,570,6.0,0.0
13715,71.0,0,120,2.0,0.0
13716,59.0,120,120,4.0,0.0
13717,71.0,0,120,1.0,0.0
13718,59.0,0,120,3.0,0.0
13719,63.0,176,120,3.0,0.0
13720,75.0,0,120,2.0,0.0
13721,75.0,0,120,1.0,0.0
13722,63.0,0,120,4.0,0.0
13723,78.0,0,180,2.0,0.0
13724,78.0,0,180,1.0,0.0
13725,66.0,320,180,3.0,0.0
13726,66.0,0,180,4.0,0.0
13727,63.0,0,180,3.0,0.0
13728,75.0,0,180,1.0,0.0
13729,63.0,0,180,4.0,0.0
13730,75.0,320,180,2.0,0.0
13731,67.0,0,180,3.0,0.0
13732,79.0,0,180,2.0,0.0
13733,67.0,0,180,4.0,0.0
13734,79.0,24,180,1.0,0.0
13735,64.0,0,180,4.0,0.0
13736,76.0,0,180,1.0,0.0
13737,76.0,0,180,2.0,0.0
13738,64.0,0,180,3.0,0.0
13739,64.0,120,120,11.0,0.0
13740,40.0,0,120,14.0,0.0
13741,52.0,0,120,12.0,0.0
13742,52.0,0,120,13.0,0.0
13743,64.0,0,120,10.0,0.0
13744,67.0,0,120,11.0,0.0
13745,55.0,0,120,12.0,0.0
13746,43.0,0,120,14.0,0.0
13747,55.0,576,120,13.0,0.0
13748,67.0,0,120,10.0,0.0
13749,63.0,0,570,3.0,0.0
13750,66.0,0,570,3.0,0.0
13751,71.0,0,570,10.0,0.0
13752,47.0,0,570,14.0,0.0
13753,63.0,0,570,4.0,0.0
13754,71.0,0,570,11.0,0.0
13755,66.0,0,570,4.0,0.0
13756,75.0,0,570,1.0,0.0
13757,78.0,0,570,1.0,0.0
13758,59.0,0,570,13.0,0.0
13759,59.0,264,570,12.0,0.0
13760,78.0,0,570,2.0,0.0
13761,75.0,0,570,2.0,0.0
13762,63.0,48,180,4.0,0.0
13763,71.0,72,120,2.0,0.0
13764,83.0,0,120,0.0,0.0
13765,63.0,0,180,3.0,0.0
13766,75.0,0,180,1.0,0.0
13767,87.0,0,120,0.0,0.0
13768,75.0,176,120,2.0,0.0
13769,90.0,320,180,0.0,0.0
13770,59.0,304,510,4.0,0.0
13771,71.0,0,510,1.0,0.0
13772,78.0,0,180,2.0,0.0
13773,59.0,0,510,3.0,0.0
13774,87.0,16,180,0.0,0.0
13775,75.0,0,180,2.0,0.0
13776,71.0,0,180,2.0,0.0
13777,59.0,56,270,3.0,0.0
13778,83.0,24,180,0.0,0.0
13779,83.0,0,270,1.0,0.0
13780,71.0,0,270,4.0,0.0
13781,79.0,0,270,1.0,0.0
13782,67.0,0,270,4.0,0.0
13783,55.0,0,270,3.0,0.0
13784,64.0,64,120,11.0,0.0
13785,64.0,0,120,12.0,0.0
13786,64.0,0,120,10.0,0.0
13787,40.0,0,120,14.0,0.0
13788,52.0,0,120,13.0,0.0
13789,48.0,0,120,13.0,0.0
13790,36.0,176,120,14.0,0.0
13791,60.0,0,120,12.0,0.0
13792,60.0,0,120,10.0,0.0
13793,60.0,0,120,11.0,0.0
13794,84.0,0,180,1.0,0.0
13795,81.0,0,180,2.0,0.0
13796,84.0,0,180,2.0,0.0
13797,81.0,208,180,1.0,0.0
13798,57.0,0,180,3.0,0.0
13799,57.0,0,390,12.0,0.0
13800,45.0,0,390,13.0,0.0
13801,69.0,0,180,4.0,0.0
13802,72.0,0,180,4.0,0.0
13803,57.0,0,390,11.0,0.0
13804,57.0,112,390,10.0,0.0
13805,60.0,0,180,3.0,0.0
13806,33.0,0,390,14.0,0.0
13807,67.0,0,180,4.0,0.0
13808,79.0,0,180,1.0,0.0
13809,83.0,0,180,1.0,0.0
13810,79.0,0,180,2.0,0.0
13811,83.0,0,180,2.0,0.0
13812,71.0,0,180,4.0,0.0
13813,55.0,320,180,3.0,0.0
13814,59.0,0,180,3.0,0.0
13815,54.0,24,180,3.0,0.0
13816,57.0,0,180,3.0,0.0
13817,78.0,0,180,1.0,0.0
13818,66.0,0,180,4.0,0.0
13819,69.0,0,180,4.0,0.0
13820,81.0,0,180,1.0,0.0
13821,78.0,0,180,2.0,0.0
13822,81.0,0,180,2.0,0.0
13823,38.0,0,120,14.0,0.0
13824,62.0,0,120,12.0,0.0
13825,50.0,0,120,13.0,0.0
13826,62.0,0,120,10.0,0.0
13827,62.0,120,120,11.0,0.0
13828,59.0,0,120,11.0,0.0
13829,47.0,0,120,13.0,0.0
13830,59.0,176,120,10.0,0.0
13831,35.0,0,120,14.0,0.0
13832,59.0,0,120,12.0,0.0
13833,31.0,0,390,14.0,0.0
13834,55.0,0,390,12.0,0.0
13835,83.0,0,180,2.0,0.0
13836,79.0,0,180,2.0,0.0
13837,43.0,112,390,13.0,0.0
13838,79.0,0,180,1.0,0.0
13839,55.0,0,180,3.0,0.0
13840,83.0,0,180,1.0,0.0
13841,55.0,0,390,11.0,0.0
13842,67.0,0,180,4.0,0.0
13843,71.0,208,180,4.0,0.0
13844,55.0,0,390,10.0,0.0
13845,59.0,0,180,3.0,0.0
13846,54.0,0,180,3.0,0.0
13847,78.0,320,180,1.0,0.0
13848,81.0,0,180,1.0,0.0
13849,57.0,0,180,3.0,0.0
13850,81.0,0,180,2.0,0.0
13851,78.0,0,180,2.0,0.0
13852,66.0,0,180,4.0,0.0
13853,69.0,0,180,4.0,0.0
13854,79.0,0,180,1.0,0.0
13855,76.0,0,180,1.0,0.0
13856,55.0,24,180,3.0,0.0
13857,52.0,0,180,3.0,0.0
13858,64.0,0,180,4.0,0.0
13859,67.0,0,180,4.0,0.0
13860,76.0,0,180,2.0,0.0
13861,79.0,0,180,2.0,0.0
13862,55.0,0,120,12.0,0.0
13863,67.0,120,120,11.0,0.0
13864,67.0,0,120,10.0,0.0
13865,43.0,0,120,14.0,0.0
13866,55.0,0,120,13.0,0.0
13867,59.0,0,120,12.0,0.0
13868,59.0,0,120,13.0,0.0
13869,71.0,576,120,10.0,0.0
13870,71.0,0,120,11.0,0.0
13871,47.0,0,120,14.0,0.0
13872,78.0,264,570,2.0,0.0
13873,66.0,0,570,4.0,0.0
13874,78.0,0,570,1.0,0.0
13875,81.0,0,570,1.0,0.0
13876,74.0,0,570,11.0,0.0
13877,81.0,0,570,2.0,0.0
13878,62.0,0,570,12.0,0.0
13879,50.0,0,570,14.0,0.0
13880,57.0,0,570,3.0,0.0
13881,54.0,0,570,3.0,0.0
13882,62.0,0,570,13.0,0.0
13883,69.0,0,570,4.0,0.0
13884,74.0,0,570,10.0,0.0
13885,86.0,0,120,0.0,0.0
13886,66.0,0,180,4.0,0.0
13887,54.0,0,180,3.0,0.0
13888,74.0,72,120,2.0,0.0
13889,78.0,48,180,1.0,0.0
13890,90.0,0,120,0.0,0.0
13891,78.0,176,120,2.0,0.0
13892,93.0,80,180,0.0,0.0
13893,62.0,240,570,4.0,0.0
13894,74.0,0,570,1.0,0.0
13895,81.0,240,270,2.0,0.0
13896,50.0,0,570,3.0,0.0
13897,90.0,80,180,0.0,0.0
13898,78.0,0,270,2.0,0.0
13899,86.0,80,180,0.0,0.0
13900,74.0,0,180,11.0,0.0
13901,74.0,240,270,2.0,0.0
13902,86.0,0,180,10.0,0.0
13903,75.0,320,180,11.0,0.0
13904,87.0,0,180,10.0,0.0
13905,86.0,320,180,10.0,0.0
13906,71.0,0,180,12.0,0.0
13907,87.0,304,840,10.0,0.0
13908,75.0,0,840,10.0,0.0
13909,83.0,320,180,11.0,0.0
13910,71.0,320,180,12.0,0.0
13911,84.0,0,180,11.0,0.0
13912,83.0,16,180,11.0,0.0
13913,68.0,320,180,12.0,0.0
13914,68.0,0,180,13.0,0.0
13915,87.0,0,840,10.0,0.0
13916,72.0,304,840,11.0,0.0
13917,75.0,0,840,10.0,0.0
13918,84.0,0,840,11.0,0.0
13919,69.0,0,180,13.0,0.0
13920,69.0,320,180,12.0,0.0
13921,68.0,16,180,12.0,0.0
13922,65.0,320,180,13.0,0.0
13923,72.0,0,840,11.0,0.0
13924,84.0,0,840,11.0,0.0
13925,75.0,232,840,10.0,0.0
13926,87.0,0,840,10.0,0.0
13927,69.0,0,840,12.0,0.0
13928,66.0,320,180,13.0,0.0
13929,65.0,16,180,13.0,0.0
13930,38.0,392,270,14.0,0.0
13931,87.0,88,510,10.0,0.0
13932,75.0,0,510,10.0,0.0
13933,66.0,0,600,13.0,0.0
13934,69.0,24,570,11.0,0.0
13935,78.0,0,570,11.0,0.0
13936,72.0,0,510,12.0,0.0
13937,50.0,208,300,14.0,0.0
13938,70.0,0,180,12.0,0.0
13939,86.0,248,180,10.0,0.0
13940,38.0,0,300,14.0,0.0
13941,50.0,48,300,13.0,0.0
13942,78.0,24,270,11.0,0.0
13943,69.0,0,270,11.0,0.0
13944,84.0,0,180,10.0,0.0
13945,69.0,320,180,12.0,0.0
13946,79.0,0,270,11.0,0.0
13947,70.0,24,270,11.0,0.0
13948,43.0,208,300,14.0,0.0
13949,86.0,88,180,10.0,0.0
13950,70.0,0,180,12.0,0.0
13951,55.0,0,300,13.0,0.0
13952,69.0,248,180,12.0,0.0
13953,84.0,0,180,10.0,0.0
13954,79.0,24,270,11.0,0.0
13955,43.0,0,300,13.0,0.0
13956,70.0,0,270,11.0,0.0
13957,31.0,48,300,14.0,0.0
13958,67.0,0,180,12.0,0.0
13959,82.0,432,180,10.0,0.0
13960,53.0,288,300,13.0,0.0
13961,65.0,192,570,12.0,0.0
13962,84.0,0,570,10.0,0.0
13963,69.0,0,570,12.0,0.0
13964,81.0,0,570,11.0,0.0
13965,41.0,0,300,14.0,0.0
13966,72.0,0,570,11.0,0.0
13967,29.0,72,300,14.0,0.0
13968,41.0,0,300,13.0,0.0
13969,81.0,0,150,10.0,0.0
13970,89.0,0,120,0.0,0.0
13971,77.0,24,120,0.0,0.0
13972,77.0,0,120,1.0,0.0
13973,53.0,0,120,3.0,0.0
13974,65.0,0,120,2.0,0.0
13975,69.0,0,150,12.0,0.0
13976,65.0,0,150,12.0,0.0
13977,69.0,96,150,11.0,0.0
13978,77.0,0,120,2.0,0.0
13979,57.0,0,120,3.0,0.0
13980,81.0,0,120,1.0,0.0
13981,69.0,0,120,2.0,0.0
13982,81.0,0,120,2.0,0.0
13983,81.0,192,120,0.0,0.0
13984,93.0,0,120,0.0,0.0
13985,65.0,0,300,12.0,0.0
13986,72.0,0,180,2.0,0.0
13987,84.0,96,180,2.0,0.0
13988,69.0,224,300,12.0,0.0
13989,84.0,0,180,0.0,0.0
13990,65.0,0,180,11.0,0.0
13991,84.0,0,180,1.0,0.0
13992,60.0,0,180,3.0,0.0
13993,96.0,0,180,0.0,0.0
13994,77.0,0,180,10.0,0.0
13995,69.0,0,180,2.0,0.0
13996,81.0,0,180,1.0,0.0
13997,93.0,0,180,0.0,0.0
13998,57.0,0,180,3.0,0.0
13999,81.0,320,180,0.0,0.0
14000,81.0,0,180,2.0,0.0
14001,53.0,0,180,3.0,0.0
14002,74.0,0,180,11.0,0.0
14003,65.0,0,180,2.0,0.0
14004,77.0,0,180,2.0,0.0
14005,89.0,0,180,0.0,0.0
14006,86.0,0,180,10.0,0.0
14007,77.0,304,180,1.0,0.0
14008,77.0,0,180,0.0,0.0
14009,75.0,320,180,11.0,0.0
14010,87.0,0,180,10.0,0.0
14011,86.0,320,180,10.0,0.0
14012,75.0,272,870,10.0,0.0
14013,87.0,0,870,10.0,0.0
14014,71.0,320,180,12.0,0.0
14015,83.0,0,180,11.0,0.0
14016,72.0,0,180,12.0,0.0
14017,84.0,320,180,11.0,0.0
14018,83.0,48,180,11.0,0.0
14019,84.0,0,870,11.0,0.0
14020,87.0,272,870,10.0,0.0
14021,75.0,0,870,10.0,0.0
14022,68.0,320,180,13.0,0.0
14023,68.0,0,180,12.0,0.0
14024,72.0,0,870,11.0,0.0
14025,69.0,0,180,13.0,0.0
14026,69.0,320,180,12.0,0.0
14027,68.0,48,180,12.0,0.0
14028,65.0,320,180,13.0,0.0
14029,72.0,44,870,11.0,0.0
14030,75.0,0,870,10.0,0.0
14031,87.0,0,870,10.0,0.0
14032,69.0,0,870,12.0,0.0
14033,84.0,0,870,11.0,0.0
14034,66.0,320,180,13.0,0.0
14035,65.0,32,180,13.0,0.0
14036,75.0,0,780,1.0,0.0
14037,57.0,0,780,3.0,0.0
14038,63.0,208,780,3.0,0.0
14039,47.0,16,40,7.0,0.0
14040,35.0,24,270,14.0,0.0
14041,59.0,0,780,4.0,0.0
14042,71.0,0,780,6.0,0.0
14043,47.0,0,780,4.0,0.0
14044,69.0,0,780,2.0,0.0
14045,75.0,0,780,2.0,0.0
14046,87.0,0,780,0.0,0.0
14047,69.0,0,780,1.0,0.0
14048,59.0,0,780,6.0,0.0
14049,81.0,0,780,0.0,0.0
14050,47.0,60,40,7.0,0.0
14051,47.0,60,40,7.0,0.0
14052,75.0,96,510,10.0,0.0
14053,87.0,0,510,10.0,0.0
14054,66.0,0,510,12.0,0.0
14055,81.0,0,510,11.0,0.0
14056,66.0,12,180,13.0,0.0
14057,47.0,36,40,7.0,0.0
14058,47.0,48,40,7.0,0.0
14059,47.0,60,40,7.0,0.0
14060,47.0,60,40,7.0,0.0
14061,47.0,188,40,7.0,0.0
14062,48.0,0,180,14.0,0.0
14063,47.0,0,300,7.0,0.0
14064,60.0,16,180,13.0,0.0
14065,79.0,0,180,11.0,0.0
14066,88.0,256,180,10.0,0.0
14067,59.0,16,180,13.0,0.0
14068,47.0,0,180,14.0,0.0
14069,64.0,0,180,12.0,0.0
14070,63.0,0,300,3.0,0.0
14071,84.0,0,300,0.0,0.0
14072,87.0,0,300,0.0,0.0
14073,72.0,0,300,1.0,0.0
14074,75.0,0,300,1.0,0.0
14075,47.0,48,300,7.0,0.0
14076,59.0,0,300,6.0,0.0
14077,47.0,0,300,4.0,0.0
14078,59.0,0,300,4.0,0.0
14079,72.0,0,300,2.0,0.0
14080,75.0,0,300,2.0,0.0
14081,60.0,0,300,3.0,0.0
14082,71.0,0,300,6.0,0.0
14083,78.0,16,180,11.0,0.0
14084,90.0,304,180,10.0,0.0
14085,63.0,0,180,12.0,0.0
14086,57.0,0,180,13.0,0.0
14087,45.0,0,180,14.0,0.0
14088,47.0,0,180,14.0,0.0
14089,79.0,16,180,11.0,0.0
14090,64.0,0,180,12.0,0.0
14091,88.0,304,180,10.0,0.0
14092,59.0,0,180,13.0,0.0
14093,63.0,0,180,12.0,0.0
14094,57.0,0,180,13.0,0.0
14095,78.0,0,180,11.0,0.0
14096,45.0,16,180,14.0,0.0
14097,90.0,256,180,10.0,0.0
14098,64.0,0,300,3.0,0.0
14099,59.0,0,300,4.0,0.0
14100,47.0,48,300,4.0,0.0
14101,59.0,0,300,3.0,0.0
14102,71.0,0,300,1.0,0.0
14103,59.0,0,300,6.0,0.0
14104,47.0,0,300,7.0,0.0
14105,71.0,0,300,6.0,0.0
14106,88.0,0,300,0.0,0.0
14107,83.0,0,300,0.0,0.0
14108,76.0,0,300,1.0,0.0
14109,71.0,0,300,2.0,0.0
14110,76.0,0,300,2.0,0.0
14111,55.0,0,180,13.0,0.0
14112,76.0,0,180,11.0,0.0
14113,64.0,0,180,12.0,0.0
14114,91.0,304,180,10.0,0.0
14115,43.0,16,180,14.0,0.0
14116,75.0,0,180,10.0,0.0
14117,66.0,16,180,12.0,0.0
14118,47.0,304,180,7.0,0.0
14119,48.0,0,180,14.0,0.0
14120,69.0,0,180,11.0,0.0
14121,60.0,0,180,13.0,0.0
14122,67.0,0,180,11.0,0.0
14123,64.0,0,180,12.0,0.0
14124,76.0,0,180,10.0,0.0
14125,47.0,0,180,14.0,0.0
14126,59.0,16,180,13.0,0.0
14127,47.0,256,180,7.0,0.0
14128,75.0,0,300,2.0,0.0
14129,71.0,48,300,6.0,0.0
14130,63.0,0,300,3.0,0.0
14131,60.0,0,300,3.0,0.0
14132,84.0,0,300,0.0,0.0
14133,87.0,0,300,0.0,0.0
14134,72.0,0,300,2.0,0.0
14135,75.0,0,300,1.0,0.0
14136,59.0,0,300,6.0,0.0
14137,59.0,0,300,4.0,0.0
14138,47.0,0,300,4.0,0.0
14139,72.0,0,300,1.0,0.0
14140,63.0,0,180,12.0,0.0
14141,66.0,16,180,11.0,0.0
14142,78.0,304,180,10.0,0.0
14143,57.0,0,180,13.0,0.0
14144,45.0,0,180,14.0,0.0
14145,47.0,0,180,7.0,0.0
14146,47.0,16,180,14.0,0.0
14147,64.0,0,180,12.0,0.0
14148,59.0,0,180,13.0,0.0
14149,67.0,0,180,11.0,0.0
14150,47.0,0,180,7.0,0.0
14151,76.0,304,180,10.0,0.0
14152,57.0,16,180,13.0,0.0
14153,78.0,256,180,10.0,0.0
14154,63.0,0,180,12.0,0.0
14155,47.0,0,180,7.0,0.0
14156,66.0,0,180,11.0,0.0
14157,45.0,0,180,14.0,0.0
14158,71.0,0,300,2.0,0.0
14159,88.0,0,300,0.0,0.0
14160,71.0,0,300,1.0,0.0
14161,76.0,0,300,2.0,0.0
14162,83.0,0,300,0.0,0.0
14163,71.0,0,300,6.0,0.0
14164,59.0,0,300,6.0,0.0
14165,47.0,48,300,4.0,0.0
14166,59.0,0,300,4.0,0.0
14167,76.0,0,300,1.0,0.0
14168,59.0,0,300,3.0,0.0
14169,64.0,0,300,3.0,0.0
14170,64.0,0,180,12.0,0.0
14171,47.0,0,180,7.0,0.0
14172,79.0,304,180,10.0,0.0
14173,64.0,0,180,11.0,0.0
14174,43.0,0,180,14.0,0.0
14175,55.0,16,180,13.0,0.0
14176,45.0,0,180,14.0,0.0
14177,75.0,0,180,11.0,0.0
14178,72.0,16,180,12.0,0.0
14179,78.0,0,180,10.0,0.0
14180,47.0,304,180,7.0,0.0
14181,57.0,0,180,13.0,0.0
14182,71.0,0,180,12.0,0.0
14183,79.0,0,180,10.0,0.0
14184,55.0,16,180,13.0,0.0
14185,47.0,256,180,7.0,0.0
14186,43.0,0,180,14.0,0.0
14187,76.0,0,180,11.0,0.0
14188,78.0,0,300,2.0,0.0
14189,75.0,0,300,1.0,0.0
14190,78.0,48,300,1.0,0.0
14191,59.0,0,300,6.0,0.0
14192,71.0,0,300,6.0,0.0
14193,59.0,0,300,4.0,0.0
14194,47.0,0,300,4.0,0.0
14195,54.0,0,300,3.0,0.0
14196,63.0,0,300,3.0,0.0
14197,87.0,0,300,0.0,0.0
14198,90.0,0,300,0.0,0.0
14199,75.0,0,300,2.0,0.0
14200,69.0,16,180,12.0,0.0
14201,78.0,0,180,11.0,0.0
14202,47.0,304,180,7.0,0.0
14203,54.0,0,180,13.0,0.0
14204,42.0,0,180,14.0,0.0
14205,81.0,0,180,10.0,0.0
14206,43.0,0,180,14.0,0.0
14207,71.0,0,180,12.0,0.0
14208,79.0,0,180,10.0,0.0
14209,76.0,16,180,11.0,0.0
14210,47.0,304,180,7.0,0.0
14211,55.0,0,180,13.0,0.0
14212,81.0,0,180,10.0,0.0
14213,78.0,0,180,11.0,0.0
14214,54.0,0,180,13.0,0.0
14215,42.0,16,180,14.0,0.0
14216,47.0,256,180,7.0,0.0
14217,69.0,0,180,12.0,0.0
14218,76.0,0,300,1.0,0.0
14219,79.0,0,300,1.0,0.0
14220,76.0,0,300,2.0,0.0
14221,88.0,0,300,0.0,0.0
14222,59.0,0,300,4.0,0.0
14223,47.0,0,300,4.0,0.0
14224,71.0,0,300,6.0,0.0
14225,59.0,0,300,6.0,0.0
14226,79.0,0,300,2.0,0.0
14227,91.0,0,300,0.0,0.0
14228,52.0,48,300,3.0,0.0
14229,64.0,0,300,3.0,0.0
14230,79.0,0,180,11.0,0.0
14231,83.0,304,180,10.0,0.0
14232,52.0,16,180,13.0,0.0
14233,40.0,0,180,14.0,0.0
14234,67.0,0,180,12.0,0.0
14235,47.0,0,180,7.0,0.0
14236,79.0,0,300,11.0,0.0
14237,73.0,0,300,10.0,0.0
14238,85.0,0,300,10.0,0.0
14239,34.0,0,300,14.0,0.0
14240,76.0,0,300,6.0,0.0
14241,76.0,0,300,11.0,0.0
14242,64.0,0,180,5.0,0.0
14243,46.0,0,300,3.0,0.0
14244,46.0,0,300,13.0,0.0
14245,91.0,0,180,0.0,0.0
14246,64.0,0,300,6.0,0.0
14247,34.0,0,300,3.0,0.0
14248,64.0,0,300,12.0,0.0
14249,55.0,0,300,12.0,0.0
14250,79.0,0,180,1.0,0.0
14251,76.0,0,180,1.0,0.0
14252,79.0,0,180,2.0,0.0
14253,76.0,0,180,2.0,0.0
14254,67.0,0,180,5.0,0.0
14255,64.0,0,300,11.0,0.0
14256,64.0,208,300,4.0,0.0
14257,52.0,0,300,4.0,0.0
14258,52.0,0,300,7.0,0.0
14259,88.0,112,180,0.0,0.0
14260,63.0,0,180,5.0,0.0
14261,87.0,0,180,0.0,0.0
14262,90.0,320,180,0.0,0.0
14263,75.0,0,180,2.0,0.0
14264,78.0,0,180,2.0,0.0
14265,78.0,0,180,1.0,0.0
14266,75.0,0,180,1.0,0.0
14267,66.0,0,180,5.0,0.0
14268,76.0,0,180,1.0,0.0
14269,85.0,0,180,0.0,0.0
14270,61.0,0,180,5.0,0.0
14271,73.0,0,180,2.0,0.0
14272,76.0,432,180,2.0,0.0
14273,73.0,0,180,1.0,0.0
14274,64.0,0,180,5.0,0.0
14275,88.0,0,180,0.0,0.0
14276,85.0,0,300,10.0,0.0
14277,64.0,0,1140,5.0,0.0
14278,67.0,0,1140,5.0,0.0
14279,64.0,848,300,6.0,0.0
14280,73.0,0,300,10.0,0.0
14281,76.0,0,300,6.0,0.0
14282,64.0,0,300,11.0,0.0
14283,46.0,0,300,13.0,0.0
14284,76.0,0,300,11.0,0.0
14285,52.0,0,300,4.0,0.0
14286,64.0,0,300,4.0,0.0
14287,91.0,0,1140,0.0,0.0
14288,34.0,0,300,14.0,0.0
14289,79.0,0,300,11.0,0.0
14290,34.0,0,300,3.0,0.0
14291,88.0,0,1140,0.0,0.0
14292,52.0,0,300,7.0,0.0
14293,46.0,0,300,3.0,0.0
14294,76.0,320,1140,2.0,0.0
14295,79.0,0,1140,2.0,0.0
14296,79.0,0,1140,1.0,0.0
14297,55.0,0,300,12.0,0.0
14298,76.0,0,1140,1.0,0.0
14299,64.0,0,300,12.0,0.0
14300,78.0,0,180,2.0,0.0
14301,87.0,0,180,0.0,0.0
14302,90.0,0,180,0.0,0.0
14303,66.0,0,180,5.0,0.0
14304,75.0,320,180,2.0,0.0
14305,78.0,0,180,1.0,0.0
14306,75.0,0,180,1.0,0.0
14307,63.0,0,180,5.0,0.0
14308,76.0,0,180,1.0,0.0
14309,73.0,0,180,2.0,0.0
14310,76.0,0,180,2.0,0.0
14311,61.0,432,180,5.0,0.0
14312,64.0,0,180,5.0,0.0
14313,73.0,0,180,1.0,0.0
14314,85.0,0,180,0.0,0.0
14315,88.0,0,180,0.0,0.0
14316,73.0,0,300,10.0,0.0
14317,64.0,0,4710,5.0,0.0
14318,67.0,72,4710,5.0,0.0
14319,34.0,0,3330,3.0,0.0
14320,79.0,0,300,11.0,0.0
14321,64.0,0,300,11.0,0.0
14322,85.0,0,300,10.0,0.0
14323,46.0,0,300,13.0,0.0
14324,91.0,0,4710,0.0,0.0
14325,88.0,0,4710,0.0,0.0
14326,76.0,0,390,6.0,0.0
14327,76.0,0,300,11.0,0.0
14328,64.0,912,390,4.0,0.0
14329,64.0,0,390,6.0,0.0
14330,46.0,0,3330,3.0,0.0
14331,76.0,0,4710,2.0,0.0
14332,79.0,0,4710,2.0,0.0
14333,55.0,0,300,12.0,0.0
14334,64.0,0,300,12.0,0.0
14335,79.0,0,4710,1.0,0.0
14336,76.0,0,4710,1.0,0.0
14337,52.0,0,390,4.0,0.0
14338,34.0,0,300,14.0,0.0
14339,52.0,96,300,7.0,0.0
14340,61.0,0,90,10.0,0.0
14341,49.0,120,90,12.0,0.0
14342,61.0,0,90,11.0,0.0
14343,61.0,0,90,11.0,0.0
14344,49.0,0,90,12.0,0.0
14345,61.0,120,90,10.0,0.0
14346,64.0,0,90,10.0,0.0
14347,52.0,120,90,12.0,0.0
14348,64.0,0,90,11.0,0.0
14349,64.0,0,90,10.0,0.0
14350,64.0,120,90,11.0,0.0
14351,52.0,0,90,12.0,0.0
14352,66.0,0,90,10.0,0.0
14353,54.0,120,90,12.0,0.0
14354,66.0,0,90,11.0,0.0
14355,66.0,0,90,10.0,0.0
14356,66.0,0,90,11.0,0.0
14357,54.0,120,90,12.0,0.0
14358,69.0,120,90,10.0,0.0
14359,69.0,0,90,11.0,0.0
14360,57.0,0,90,12.0,0.0
14361,69.0,0,90,11.0,0.0
14362,69.0,0,90,10.0,0.0
14363,57.0,120,90,12.0,0.0
14364,66.0,0,90,10.0,0.0
14365,66.0,0,90,11.0,0.0
14366,54.0,120,90,12.0,0.0
14367,66.0,0,90,11.0,0.0
14368,66.0,0,90,10.0,0.0
14369,54.0,120,90,12.0,0.0
14370,67.0,0,90,10.0,0.0
14371,67.0,0,90,11.0,0.0
14372,55.0,120,90,12.0,0.0
14373,55.0,0,90,12.0,0.0
14374,67.0,120,90,11.0,0.0
14375,67.0,0,90,10.0,0.0
14376,61.0,0,90,12.0,0.0
14377,73.0,0,90,10.0,0.0
14378,73.0,120,90,11.0,0.0
14379,73.0,0,90,11.0,0.0
14380,73.0,120,90,10.0,0.0
14381,61.0,0,90,12.0,0.0
14382,76.0,0,90,11.0,0.0
14383,76.0,0,90,10.0,0.0
14384,64.0,120,90,12.0,0.0
14385,64.0,0,90,12.0,0.0
14386,76.0,120,90,11.0,0.0
14387,76.0,0,90,10.0,0.0
14388,66.0,0,90,12.0,0.0
14389,78.0,0,90,11.0,0.0
14390,78.0,120,90,10.0,0.0
14391,78.0,0,90,10.0,0.0
14392,78.0,120,90,11.0,0.0
14393,66.0,0,90,12.0,0.0
14394,81.0,0,90,10.0,0.0
14395,69.0,120,90,12.0,0.0
14396,81.0,0,90,11.0,0.0
14397,69.0,0,90,12.0,0.0
14398,81.0,120,90,10.0,0.0
14399,81.0,0,90,11.0,0.0
14400,78.0,0,90,10.0,0.0
14401,66.0,0,90,12.0,0.0
14402,78.0,120,90,11.0,0.0
14403,66.0,0,90,12.0,0.0
14404,78.0,0,90,10.0,0.0
14405,78.0,120,90,11.0,0.0
14406,79.0,120,90,10.0,0.0
14407,67.0,0,90,12.0,0.0
14408,79.0,0,90,11.0,0.0
14409,79.0,0,90,10.0,0.0
14410,79.0,0,90,11.0,0.0
14411,67.0,120,90,12.0,0.0
14412,85.0,0,90,11.0,0.0
14413,85.0,120,90,10.0,0.0
14414,73.0,0,90,12.0,0.0
14415,73.0,0,90,12.0,0.0
14416,85.0,0,90,11.0,0.0
14417,85.0,120,90,10.0,0.0
14418,76.0,0,90,12.0,0.0
14419,59.0,0,300,4.0,0.0
14420,88.0,0,90,11.0,0.0
14421,47.0,0,300,14.0,0.0
14422,71.0,0,300,4.0,0.0
14423,88.0,120,90,10.0,0.0
14424,59.0,48,300,13.0,0.0
14425,76.0,0,90,12.0,0.0
14426,88.0,0,90,10.0,0.0
14427,88.0,72,90,11.0,0.0
14428,91.0,48,90,10.0,0.0
14429,79.0,0,90,11.0,0.0
14430,67.0,0,90,12.0,0.0
14431,79.0,792,90,11.0,0.0
14432,67.0,0,90,12.0,0.0
14433,91.0,0,90,10.0,0.0
14434,55.0,0,780,4.0,0.0
14435,67.0,0,780,4.0,0.0
14436,43.0,0,780,14.0,0.0
14437,55.0,0,780,13.0,0.0
14438,59.0,0,300,3.0,0.0
14439,75.0,0,300,1.0,0.0
14440,66.0,0,300,12.0,0.0
14441,59.0,0,300,12.0,0.0
14442,59.0,0,300,6.0,0.0
14443,71.0,0,300,6.0,0.0
14444,47.0,0,300,3.0,0.0
14445,83.0,0,300,11.0,0.0
14446,95.0,0,300,10.0,0.0
14447,78.0,0,300,2.0,0.0
14448,83.0,960,300,1.0,0.0
14449,95.0,0,300,0.0,0.0
14450,75.0,0,300,2.0,0.0
14451,75.0,0,300,11.0,0.0
14452,87.0,0,300,0.0,0.0
14453,88.0,0,780,0.0,0.0
14454,64.0,0,780,6.0,0.0
14455,76.0,960,780,11.0,0.0
14456,79.0,0,780,11.0,0.0
14457,76.0,0,780,1.0,0.0
14458,79.0,0,780,1.0,0.0
14459,91.0,0,780,0.0,0.0
14460,91.0,0,780,10.0,0.0
14461,67.0,0,780,12.0,0.0
14462,64.0,0,780,12.0,0.0
14463,71.0,0,780,2.0,0.0
14464,67.0,0,780,2.0,0.0
14465,52.0,0,780,3.0,0.0
14466,76.0,0,780,6.0,0.0
14467,52.0,0,300,5.0,0.0
14468,64.0,0,300,5.0,0.0
14469,40.0,0,300,14.0,0.0
14470,52.0,0,300,13.0,0.0
14471,48.0,0,780,14.0,0.0
14472,72.0,0,780,5.0,0.0
14473,60.0,0,780,13.0,0.0
14474,60.0,0,780,5.0,0.0
14475,88.0,0,300,0.0,0.0
14476,80.0,0,300,0.0,0.0
14477,71.0,960,300,10.0,0.0
14478,68.0,0,300,1.0,0.0
14479,64.0,0,300,3.0,0.0
14480,64.0,0,300,12.0,0.0
14481,59.0,0,300,12.0,0.0
14482,52.0,0,300,12.0,0.0
14483,71.0,0,300,11.0,0.0
14484,74.0,0,300,11.0,0.0
14485,68.0,0,300,10.0,0.0
14486,76.0,0,300,10.0,0.0
14487,68.0,0,300,2.0,0.0
14488,64.0,0,300,2.0,0.0
14489,64.0,0,300,6.0,0.0
14490,52.0,0,300,3.0,0.0
14491,76.0,0,300,1.0,0.0
14492,76.0,0,300,6.0,0.0
14493,84.0,0,780,0.0,0.0
14494,72.0,960,780,11.0,0.0
14495,69.0,0,780,11.0,0.0
14496,57.0,0,780,3.0,0.0
14497,76.0,0,780,2.0,0.0
14498,69.0,0,780,2.0,0.0
14499,81.0,0,780,0.0,0.0
14500,69.0,0,780,1.0,0.0
14501,76.0,0,780,6.0,0.0
14502,64.0,0,780,12.0,0.0
14503,57.0,0,780,12.0,0.0
14504,69.0,0,780,10.0,0.0
14505,84.0,0,780,10.0,0.0
14506,64.0,0,780,6.0,0.0
14507,72.0,0,780,1.0,0.0
14508,69.0,0,300,4.0,0.0
14509,45.0,0,300,14.0,0.0
14510,57.0,0,300,13.0,0.0
14511,54.0,0,780,13.0,0.0
14512,42.0,0,780,14.0,0.0
14513,66.0,0,780,4.0,0.0
14514,76.0,0,300,2.0,0.0
14515,73.0,0,300,2.0,0.0
14516,61.0,0,300,5.0,0.0
14517,81.0,0,300,1.0,0.0
14518,64.0,0,300,6.0,0.0
14519,69.0,0,300,10.0,0.0
14520,66.0,0,300,12.0,0.0
14521,69.0,0,300,12.0,0.0
14522,81.0,0,300,10.0,0.0
14523,54.0,0,300,3.0,0.0
14524,42.0,0,300,3.0,0.0
14525,76.0,0,300,6.0,0.0
14526,73.0,0,300,1.0,0.0
14527,76.0,0,300,11.0,0.0
14528,85.0,0,300,0.0,0.0
14529,93.0,0,300,0.0,0.0
14530,73.0,960,300,11.0,0.0
14531,90.0,0,780,0.0,0.0
14532,66.0,0,780,2.0,0.0
14533,78.0,0,780,10.0,0.0
14534,69.0,0,780,10.0,0.0
14535,54.0,0,780,3.0,0.0
14536,66.0,0,780,11.0,0.0
14537,78.0,0,780,1.0,0.0
14538,75.0,0,780,11.0,0.0
14539,75.0,0,780,1.0,0.0
14540,69.0,0,780,12.0,0.0
14541,66.0,0,780,12.0,0.0
14542,87.0,0,780,0.0,0.0
14543,75.0,0,780,2.0,0.0
14544,66.0,0,780,3.0,0.0
14545,78.0,0,780,6.0,0.0
14546,63.0,0,780,5.0,0.0
14547,51.0,0,300,13.0,0.0
14548,63.0,960,300,4.0,0.0
14549,39.0,0,300,14.0,0.0
14550,47.0,0,780,14.0,0.0
14551,59.0,0,780,13.0,0.0
14552,71.0,0,780,4.0,0.0
14553,75.0,0,300,10.0,0.0
14554,69.0,0,300,2.0,0.0
14555,66.0,0,300,2.0,0.0
14556,59.0,0,300,3.0,0.0
14557,75.0,0,300,1.0,0.0
14558,81.0,0,300,0.0,0.0
14559,87.0,0,300,0.0,0.0
14560,66.0,960,300,11.0,0.0
14561,69.0,0,300,11.0,0.0
14562,59.0,0,300,5.0,0.0
14563,71.0,0,300,6.0,0.0
14564,59.0,0,300,6.0,0.0
14565,59.0,0,300,12.0,0.0
14566,66.0,0,300,12.0,0.0
14567,69.0,0,300,1.0,0.0
14568,83.0,0,780,1.0,0.0
14569,67.0,0,780,11.0,0.0
14570,67.0,0,780,1.0,0.0
14571,76.0,0,780,11.0,0.0
14572,83.0,0,780,0.0,0.0
14573,71.0,0,780,10.0,0.0
14574,64.0,0,780,5.0,0.0
14575,59.0,0,780,6.0,0.0
14576,71.0,0,780,6.0,0.0
14577,83.0,0,780,10.0,0.0
14578,64.0,320,780,12.0,0.0
14579,55.0,0,780,12.0,0.0
14580,55.0,0,780,3.0,0.0
14581,79.0,0,780,0.0,0.0
14582,67.0,0,780,2.0,0.0
14583,64.0,0,780,2.0,0.0
14584,64.0,16,900,13.0,0.0
14585,52.0,0,900,14.0,0.0
14586,64.0,48,870,4.0,0.0
14587,79.0,0,870,0.0,0.0
14588,76.0,0,780,6.0,0.0
14589,64.0,0,780,6.0,0.0
14590,67.0,0,870,2.0,0.0
14591,76.0,64,870,1.0,0.0
14592,72.0,0,870,1.0,0.0
14593,64.0,0,120,11.0,0.0
14594,72.0,0,120,11.0,0.0
14595,76.0,0,870,2.0,0.0
14596,88.0,0,870,0.0,0.0
14597,67.0,0,120,12.0,0.0
14598,52.0,0,300,3.0,0.0
14599,64.0,0,300,3.0,0.0
14600,88.0,0,870,10.0,0.0
14601,64.0,160,120,12.0,0.0
14602,64.0,96,120,11.0,0.0
14603,67.0,0,120,12.0,0.0
14604,64.0,0,120,12.0,0.0
14605,72.0,0,120,11.0,0.0
14606,67.0,0,120,12.0,0.0
14607,72.0,160,120,11.0,0.0
14608,64.0,0,120,11.0,0.0
14609,64.0,0,120,12.0,0.0
14610,64.0,160,120,11.0,0.0
14611,64.0,0,780,4.0,0.0
14612,40.0,0,780,3.0,0.0
14613,52.0,0,780,3.0,0.0
14614,52.0,0,870,13.0,0.0
14615,40.0,64,870,14.0,0.0
14616,64.0,0,120,12.0,0.0
14617,67.0,0,120,12.0,0.0
14618,52.0,0,780,4.0,0.0
14619,72.0,0,120,11.0,0.0
14620,72.0,0,120,11.0,0.0
14621,67.0,0,120,12.0,0.0
14622,64.0,96,120,12.0,0.0
14623,64.0,0,120,11.0,0.0
14624,72.0,0,120,11.0,0.0
14625,64.0,160,120,12.0,0.0
14626,67.0,0,120,12.0,0.0
14627,64.0,0,120,11.0,0.0
14628,71.0,0,120,11.0,0.0
14629,71.0,0,120,12.0,0.0
14630,67.0,64,870,2.0,0.0
14631,71.0,0,870,2.0,0.0
14632,64.0,0,780,6.0,0.0
14633,76.0,0,870,0.0,0.0
14634,67.0,0,120,11.0,0.0
14635,71.0,0,870,1.0,0.0
14636,67.0,0,870,1.0,0.0
14637,67.0,160,120,12.0,0.0
14638,76.0,0,870,10.0,0.0
14639,71.0,0,120,12.0,0.0
14640,67.0,0,120,11.0,0.0
14641,67.0,0,120,12.0,0.0
14642,71.0,96,120,11.0,0.0
14643,67.0,0,120,11.0,0.0
14644,71.0,160,120,11.0,0.0
14645,71.0,0,120,12.0,0.0
14646,67.0,0,120,12.0,0.0
14647,71.0,0,120,12.0,0.0
14648,55.0,0,870,4.0,0.0
14649,67.0,0,870,4.0,0.0
14650,67.0,160,120,12.0,0.0
14651,43.0,48,870,3.0,0.0
14652,43.0,0,900,14.0,0.0
14653,67.0,0,120,11.0,0.0
14654,76.0,0,120,11.0,0.0
14655,55.0,16,900,13.0,0.0
14656,55.0,0,870,3.0,0.0
14657,76.0,0,120,11.0,0.0
14658,67.0,0,120,12.0,0.0
14659,67.0,0,120,11.0,0.0
14660,71.0,96,120,12.0,0.0
14661,76.0,0,120,11.0,0.0
14662,67.0,0,120,12.0,0.0
14663,71.0,0,120,12.0,0.0
14664,67.0,160,120,11.0,0.0
14665,74.0,0,870,2.0,0.0
14666,71.0,0,870,1.0,0.0
14667,71.0,0,120,12.0,0.0
14668,62.0,160,120,12.0,0.0
14669,79.0,0,870,0.0,0.0
14670,74.0,0,120,11.0,0.0
14671,74.0,64,870,1.0,0.0
14672,71.0,0,870,2.0,0.0
14673,79.0,0,870,10.0,0.0
14674,71.0,0,120,11.0,0.0
14675,71.0,0,120,12.0,0.0
14676,71.0,0,120,11.0,0.0
14677,74.0,0,120,11.0,0.0
14678,62.0,96,120,12.0,0.0
14679,62.0,160,120,12.0,0.0
14680,71.0,0,120,11.0,0.0
14681,74.0,0,120,11.0,0.0
14682,71.0,0,120,12.0,0.0
14683,47.0,0,780,3.0,0.0
14684,59.0,0,780,3.0,0.0
14685,71.0,0,120,12.0,0.0
14686,79.0,0,120,11.0,0.0
14687,71.0,0,120,11.0,0.0
14688,59.0,0,780,4.0,0.0
14689,59.0,0,870,13.0,0.0
14690,47.0,64,870,14.0,0.0
14691,62.0,160,120,12.0,0.0
14692,71.0,0,780,4.0,0.0
14693,71.0,96,120,12.0,0.0
14694,79.0,0,120,11.0,0.0
14695,71.0,0,120,11.0,0.0
14696,62.0,0,120,12.0,0.0
14697,71.0,160,120,11.0,0.0
14698,79.0,0,120,11.0,0.0
14699,62.0,0,120,12.0,0.0
14700,71.0,0,120,12.0,0.0
14701,74.0,0,870,1.0,0.0
14702,66.0,0,120,12.0,0.0
14703,83.0,64,870,10.0,0.0
14704,78.0,0,870,1.0,0.0
14705,83.0,0,870,0.0,0.0
14706,62.0,0,120,12.0,0.0
14707,78.0,0,870,2.0,0.0
14708,74.0,0,870,2.0,0.0
14709,74.0,160,120,11.0,0.0
14710,78.0,0,120,11.0,0.0
14711,74.0,0,120,11.0,0.0
14712,62.0,96,120,12.0,0.0
14713,78.0,0,120,11.0,0.0
14714,66.0,0,120,12.0,0.0
14715,62.0,160,120,12.0,0.0
14716,74.0,0,120,11.0,0.0
14717,78.0,0,120,11.0,0.0
14718,66.0,0,120,12.0,0.0
14719,83.0,0,120,11.0,0.0
14720,74.0,0,120,11.0,0.0
14721,62.0,0,900,13.0,0.0
14722,66.0,0,120,12.0,0.0
14723,50.0,0,870,3.0,0.0
14724,62.0,0,870,3.0,0.0
14725,62.0,48,870,4.0,0.0
14726,74.0,0,870,4.0,0.0
14727,50.0,16,900,14.0,0.0
14728,62.0,160,120,12.0,0.0
14729,83.0,0,120,11.0,0.0
14730,74.0,0,120,11.0,0.0
14731,62.0,96,120,12.0,0.0
14732,66.0,0,120,12.0,0.0
14733,74.0,0,120,11.0,0.0
14734,66.0,0,120,12.0,0.0
14735,83.0,160,120,11.0,0.0
14736,62.0,0,120,12.0,0.0
14737,66.0,0,870,2.0,0.0
14738,74.0,0,780,6.0,0.0
14739,86.0,0,870,10.0,0.0
14740,69.0,0,870,2.0,0.0
14741,81.0,0,120,11.0,0.0
14742,78.0,0,870,1.0,0.0
14743,69.0,0,120,12.0,0.0
14744,81.0,0,870,1.0,0.0
14745,86.0,64,870,0.0,0.0
14746,78.0,160,120,11.0,0.0
14747,66.0,0,120,12.0,0.0
14748,66.0,0,120,12.0,0.0
14749,78.0,0,120,11.0,0.0
14750,81.0,0,120,11.0,0.0
14751,69.0,96,120,12.0,0.0
14752,69.0,0,120,12.0,0.0
14753,66.0,0,120,12.0,0.0
14754,78.0,160,120,11.0,0.0
14755,81.0,0,120,11.0,0.0
14756,69.0,0,120,11.0,0.0
14757,66.0,0,120,11.0,0.0
14758,66.0,160,120,12.0,0.0
14759,69.0,0,120,12.0,0.0
14760,50.0,64,870,13.0,0.0
14761,50.0,0,780,3.0,0.0
14762,38.0,0,780,3.0,0.0
14763,62.0,96,780,4.0,0.0
14764,38.0,0,870,14.0,0.0
14765,66.0,96,120,12.0,0.0
14766,69.0,0,120,12.0,0.0
14767,69.0,0,120,11.0,0.0
14768,66.0,0,120,11.0,0.0
14769,69.0,0,120,12.0,0.0
14770,69.0,0,120,11.0,0.0
14771,66.0,160,120,12.0,0.0
14772,66.0,0,120,11.0,0.0
14773,74.0,0,870,0.0,0.0
14774,74.0,0,870,10.0,0.0
14775,65.0,0,120,12.0,0.0
14776,74.0,0,780,6.0,0.0
14777,65.0,64,870,1.0,0.0
14778,57.0,160,120,12.0,0.0
14779,65.0,0,870,2.0,0.0
14780,69.0,0,120,11.0,0.0
14781,65.0,0,120,11.0,0.0
14782,69.0,0,870,1.0,0.0
14783,69.0,0,870,2.0,0.0
14784,57.0,0,120,12.0,0.0
14785,65.0,0,120,12.0,0.0
14786,65.0,0,120,11.0,0.0
14787,69.0,0,120,11.0,0.0
14788,57.0,0,120,12.0,0.0
14789,65.0,0,120,12.0,0.0
14790,69.0,0,120,11.0,0.0
14791,65.0,160,120,11.0,0.0
14792,41.0,16,900,14.0,0.0
14793,65.0,48,870,4.0,0.0
14794,53.0,0,900,13.0,0.0
14795,53.0,0,870,3.0,0.0
14796,41.0,0,870,3.0,0.0
14797,57.0,160,120,12.0,0.0
14798,65.0,0,120,12.0,0.0
14799,65.0,0,120,11.0,0.0
14800,74.0,0,120,11.0,0.0
14801,74.0,96,120,11.0,0.0
14802,65.0,0,120,12.0,0.0
14803,57.0,0,120,12.0,0.0
14804,65.0,0,120,11.0,0.0
14805,57.0,0,120,12.0,0.0
14806,65.0,0,120,12.0,0.0
14807,65.0,160,120,11.0,0.0
14808,74.0,0,120,11.0,0.0
14809,69.0,0,120,12.0,0.0
14810,72.0,64,870,2.0,0.0
14811,69.0,0,870,2.0,0.0
14812,77.0,0,870,10.0,0.0
14813,69.0,0,870,1.0,0.0
14814,60.0,0,120,12.0,0.0
14815,77.0,0,870,0.0,0.0
14816,69.0,160,120,11.0,0.0
14817,72.0,0,120,11.0,0.0
14818,72.0,0,870,1.0,0.0
14819,69.0,0,120,12.0,0.0
14820,60.0,0,120,12.0,0.0
14821,72.0,96,120,11.0,0.0
14822,69.0,0,120,11.0,0.0
14823,69.0,0,120,11.0,0.0
14824,72.0,160,120,11.0,0.0
14825,69.0,0,120,12.0,0.0
14826,60.0,0,120,12.0,0.0
14827,57.0,0,780,3.0,0.0
14828,69.0,0,780,4.0,0.0
14829,57.0,0,870,13.0,0.0
14830,45.0,96,780,3.0,0.0
14831,69.0,0,120,11.0,0.0
14832,77.0,0,120,11.0,0.0
14833,60.0,160,120,12.0,0.0
14834,69.0,0,120,12.0,0.0
14835,45.0,64,870,14.0,0.0
14836,60.0,0,120,12.0,0.0
14837,69.0,96,120,12.0,0.0
14838,77.0,0,120,11.0,0.0
14839,69.0,0,120,11.0,0.0
14840,77.0,0,120,11.0,0.0
14841,60.0,0,120,12.0,0.0
14842,69.0,160,120,12.0,0.0
14843,69.0,0,120,11.0,0.0
14844,72.0,0,120,11.0,0.0
14845,76.0,0,870,1.0,0.0
14846,72.0,0,870,1.0,0.0
14847,81.0,0,870,0.0,0.0
14848,81.0,64,870,10.0,0.0
14849,69.0,0,120,12.0,0.0
14850,76.0,0,870,2.0,0.0
14851,72.0,0,870,2.0,0.0
14852,76.0,160,120,11.0,0.0
14853,72.0,0,120,12.0,0.0
14854,69.0,0,120,12.0,0.0
14855,72.0,0,120,12.0,0.0
14856,76.0,0,120,11.0,0.0
14857,72.0,0,120,11.0,0.0
14858,76.0,0,120,11.0,0.0
14859,72.0,0,120,11.0,0.0
14860,72.0,0,120,12.0,0.0
14861,69.0,160,120,12.0,0.0
14862,60.0,0,300,13.0,0.0
14863,48.0,0,300,3.0,0.0
14864,69.0,160,120,12.0,0.0
14865,64.0,0,300,4.0,0.0
14866,72.0,0,120,12.0,0.0
14867,60.0,0,300,3.0,0.0
14868,48.0,0,300,14.0,0.0
14869,72.0,0,120,11.0,0.0
14870,69.0,0,300,4.0,0.0
14871,76.0,0,120,11.0,0.0
14872,72.0,0,120,11.0,0.0
14873,69.0,0,120,12.0,0.0
14874,76.0,96,120,11.0,0.0
14875,72.0,0,120,12.0,0.0
14876,76.0,0,120,11.0,0.0
14877,72.0,0,120,11.0,0.0
14878,69.0,160,120,12.0,0.0
14879,72.0,0,120,12.0,0.0
14880,63.0,0,870,3.0,0.0
14881,51.0,64,870,14.0,0.0
14882,69.0,0,300,4.0,0.0
14883,66.0,160,300,4.0,0.0
14884,69.0,160,120,11.0,0.0
14885,78.0,0,120,11.0,0.0
14886,72.0,0,120,12.0,0.0
14887,69.0,0,120,12.0,0.0
14888,51.0,0,870,3.0,0.0
14889,78.0,0,1830,2.0,0.0
14890,84.0,72,1170,10.0,0.0
14891,63.0,0,870,13.0,0.0
14892,78.0,64,1830,1.0,0.0
14893,60.0,0,300,5.0,0.0
14894,84.0,0,1830,0.0,0.0
14895,81.0,0,1830,0.0,0.0
14896,69.0,0,1830,1.0,0.0
14897,69.0,0,1830,2.0,0.0
14898,48.0,0,300,5.0,0.0
14899,72.0,0,120,12.0,0.0
14900,78.0,0,120,11.0,0.0
14901,69.0,0,120,11.0,0.0
14902,69.0,0,120,12.0,0.0
14903,69.0,0,120,11.0,0.0
14904,72.0,160,120,12.0,0.0
14905,69.0,0,120,12.0,0.0
14906,78.0,0,120,11.0,0.0
14907,66.0,64,870,4.0,0.0
14908,69.0,160,120,12.0,0.0
14909,78.0,0,120,11.0,0.0
14910,60.0,0,870,5.0,0.0
14911,69.0,0,120,11.0,0.0
14912,69.0,0,870,4.0,0.0
14913,48.0,0,870,5.0,0.0
14914,72.0,0,120,12.0,0.0
14915,69.0,0,120,12.0,0.0
14916,72.0,0,120,12.0,0.0
14917,78.0,0,120,11.0,0.0
14918,69.0,96,120,11.0,0.0
14919,69.0,0,120,12.0,0.0
14920,72.0,160,120,12.0,0.0
14921,78.0,0,120,11.0,0.0
14922,69.0,0,120,11.0,0.0
14923,51.0,0,870,3.0,0.0
14924,39.0,0,870,3.0,0.0
14925,66.0,0,120,12.0,0.0
14926,69.0,0,120,12.0,0.0
14927,72.0,0,120,11.0,0.0
14928,81.0,88,120,11.0,0.0
14929,51.0,0,870,13.0,0.0
14930,39.0,0,870,14.0,0.0
14931,72.0,0,120,11.0,0.0
14932,69.0,0,120,12.0,0.0
14933,81.0,0,120,11.0,0.0
14934,66.0,96,120,12.0,0.0
14935,83.0,152,210,10.0,0.0
14936,69.0,0,120,12.0,0.0
14937,72.0,0,120,11.0,0.0
14938,81.0,0,120,11.0,0.0
14939,66.0,8,120,12.0,0.0
14940,72.0,88,120,11.0,0.0
14941,81.0,0,120,11.0,0.0
14942,48.0,0,300,5.0,0.0
14943,69.0,0,300,4.0,0.0
14944,84.0,72,210,10.0,0.0
14945,69.0,0,120,12.0,0.0
14946,66.0,0,120,12.0,0.0
14947,66.0,0,300,4.0,0.0
14948,60.0,0,300,5.0,0.0
14949,81.0,0,120,11.0,0.0
14950,72.0,0,120,11.0,0.0
14951,66.0,96,120,12.0,0.0
14952,69.0,0,120,12.0,0.0
14953,81.0,152,210,10.0,0.0
14954,72.0,0,120,11.0,0.0
14955,81.0,0,120,11.0,0.0
14956,66.0,0,120,12.0,0.0
14957,69.0,8,120,12.0,0.0
14958,69.0,160,120,11.0,0.0
14959,69.0,0,300,4.0,0.0
14960,52.0,0,870,3.0,0.0
14961,64.0,0,870,3.0,0.0
14962,84.0,0,120,11.0,0.0
14963,69.0,0,120,12.0,0.0
14964,64.0,0,300,4.0,0.0
14965,72.0,0,1830,2.0,0.0
14966,72.0,0,1830,1.0,0.0
14967,72.0,0,120,12.0,0.0
14968,64.0,64,870,13.0,0.0
14969,81.0,0,1830,1.0,0.0
14970,96.0,72,1170,10.0,0.0
14971,52.0,0,870,14.0,0.0
14972,93.0,64,1830,0.0,0.0
14973,84.0,0,1830,0.0,0.0
14974,76.0,0,1830,2.0,0.0
14975,60.0,0,300,5.0,0.0
14976,72.0,0,300,5.0,0.0
14977,69.0,160,120,11.0,0.0
14978,84.0,0,120,11.0,0.0
14979,69.0,0,120,12.0,0.0
14980,72.0,0,120,12.0,0.0
14981,72.0,160,120,12.0,0.0
14982,69.0,0,120,12.0,0.0
14983,69.0,0,120,11.0,0.0
14984,84.0,0,120,11.0,0.0
14985,69.0,64,870,4.0,0.0
14986,60.0,0,870,5.0,0.0
14987,64.0,0,870,4.0,0.0
14988,69.0,0,120,12.0,0.0
14989,72.0,0,120,12.0,0.0
14990,72.0,0,870,5.0,0.0
14991,69.0,0,120,11.0,0.0
14992,84.0,160,120,11.0,0.0
14993,69.0,0,120,12.0,0.0
14994,84.0,0,120,11.0,0.0
14995,69.0,96,120,11.0,0.0
14996,72.0,0,120,12.0,0.0
14997,69.0,0,120,12.0,0.0
14998,69.0,0,120,11.0,0.0
14999,72.0,160,120,12.0,0.0
15000,84.0,0,120,11.0,0.0
15001,72.0,0,120,11.0,0.0
15002,40.0,0,870,3.0,0.0
15003,52.0,0,870,3.0,0.0
15004,40.0,0,870,14.0,0.0
15005,60.0,0,120,12.0,0.0
15006,69.0,0,120,12.0,0.0
15007,52.0,0,870,13.0,0.0
15008,81.0,88,120,11.0,0.0
15009,81.0,0,120,11.0,0.0
15010,72.0,96,120,11.0,0.0
15011,60.0,0,120,12.0,0.0
15012,69.0,0,120,12.0,0.0
15013,93.0,152,210,10.0,0.0
15014,69.0,0,120,12.0,0.0
15015,72.0,8,120,11.0,0.0
15016,81.0,0,120,11.0,0.0
15017,60.0,0,120,12.0,0.0
15018,69.0,0,300,4.0,0.0
15019,64.0,0,300,4.0,0.0
15020,72.0,0,120,11.0,0.0
15021,76.0,0,120,11.0,0.0
15022,88.0,72,210,10.0,0.0
15023,69.0,0,120,12.0,0.0
15024,72.0,0,300,5.0,0.0
15025,60.0,0,300,5.0,0.0
15026,60.0,88,120,12.0,0.0
15027,69.0,96,120,12.0,0.0
15028,60.0,0,120,12.0,0.0
15029,72.0,0,120,11.0,0.0
15030,76.0,0,120,11.0,0.0
15031,86.0,152,210,10.0,0.0
15032,69.0,0,120,12.0,0.0
15033,72.0,8,120,11.0,0.0
15034,60.0,0,120,12.0,0.0
15035,76.0,0,120,11.0,0.0
15036,53.0,64,870,14.0,0.0
15037,60.0,0,120,12.0,0.0
15038,63.0,0,120,12.0,0.0
15039,72.0,0,120,11.0,0.0
15040,69.0,160,120,11.0,0.0
15041,81.0,0,1830,0.0,0.0
15042,65.0,0,870,3.0,0.0
15043,84.0,64,1830,0.0,0.0
15044,63.0,0,300,4.0,0.0
15045,75.0,0,1830,1.0,0.0
15046,69.0,0,1830,1.0,0.0
15047,65.0,0,870,13.0,0.0
15048,60.0,0,300,5.0,0.0
15049,84.0,120,660,10.0,0.0
15050,72.0,0,1830,2.0,0.0
15051,69.0,0,1830,2.0,0.0
15052,53.0,0,870,3.0,0.0
15053,69.0,0,300,4.0,0.0
15054,69.0,160,120,11.0,0.0
15055,63.0,0,120,12.0,0.0
15056,72.0,0,120,11.0,0.0
15057,60.0,0,120,12.0,0.0
15058,63.0,0,120,12.0,0.0
15059,60.0,160,120,12.0,0.0
15060,69.0,0,120,11.0,0.0
15061,72.0,0,120,11.0,0.0
15062,69.0,0,120,11.0,0.0
15063,63.0,64,870,4.0,0.0
15064,69.0,0,870,4.0,0.0
15065,60.0,0,870,5.0,0.0
15066,72.0,0,120,11.0,0.0
15067,63.0,0,120,12.0,0.0
15068,60.0,40,120,12.0,0.0
15069,69.0,96,120,11.0,0.0
15070,60.0,0,120,12.0,0.0
15071,72.0,0,120,11.0,0.0
15072,63.0,0,120,12.0,0.0
15073,83.0,152,210,10.0,0.0
15074,63.0,0,120,12.0,0.0
15075,60.0,0,120,12.0,0.0
15076,69.0,0,120,11.0,0.0
15077,72.0,8,120,11.0,0.0
15078,84.0,72,210,10.0,0.0
15079,53.0,0,870,13.0,0.0
15080,41.0,0,870,3.0,0.0
15081,53.0,0,870,3.0,0.0
15082,41.0,0,870,14.0,0.0
15083,63.0,88,120,12.0,0.0
15084,60.0,0,120,12.0,0.0
15085,63.0,0,120,11.0,0.0
15086,69.0,0,120,11.0,0.0
15087,60.0,0,120,12.0,0.0
15088,69.0,96,120,11.0,0.0
15089,63.0,0,120,11.0,0.0
15090,63.0,0,120,12.0,0.0
15091,81.0,152,210,10.0,0.0
15092,60.0,8,120,12.0,0.0
15093,63.0,0,120,11.0,0.0
15094,69.0,0,120,11.0,0.0
15095,63.0,0,120,12.0,0.0
15096,69.0,0,300,4.0,0.0
15097,60.0,0,300,5.0,0.0
15098,75.0,72,210,10.0,0.0
15099,69.0,0,120,11.0,0.0
15100,63.0,0,120,11.0,0.0
15101,63.0,0,300,4.0,0.0
15102,63.0,88,120,12.0,0.0
15103,60.0,0,120,12.0,0.0
15104,63.0,0,120,11.0,0.0
15105,63.0,0,120,12.0,0.0
15106,69.0,0,120,11.0,0.0
15107,60.0,0,120,12.0,0.0
15108,74.0,152,210,10.0,0.0
15109,69.0,0,120,11.0,0.0
15110,63.0,8,120,11.0,0.0
15111,60.0,0,120,12.0,0.0
15112,63.0,0,120,12.0,0.0
15113,69.0,0,300,4.0,0.0
15114,63.0,160,300,5.0,0.0
15115,60.0,0,120,12.0,0.0
15116,75.0,0,1830,0.0,0.0
15117,81.0,0,1830,0.0,0.0
15118,48.0,160,120,12.0,0.0
15119,63.0,0,1830,2.0,0.0
15120,69.0,0,1830,2.0,0.0
15121,60.0,0,300,5.0,0.0
15122,42.0,0,870,3.0,0.0
15123,54.0,0,870,3.0,0.0
15124,54.0,0,870,13.0,0.0
15125,72.0,120,660,10.0,0.0
15126,60.0,0,120,11.0,0.0
15127,63.0,0,300,4.0,0.0
15128,63.0,0,1830,1.0,0.0
15129,69.0,0,1830,1.0,0.0
15130,42.0,64,870,14.0,0.0
15131,63.0,0,120,11.0,0.0
15132,48.0,0,120,12.0,0.0
15133,60.0,0,120,12.0,0.0
15134,63.0,0,120,11.0,0.0
15135,60.0,0,120,11.0,0.0
15136,60.0,0,120,11.0,0.0
15137,63.0,0,120,11.0,0.0
15138,60.0,160,120,12.0,0.0
15139,48.0,0,120,12.0,0.0
15140,63.0,0,870,4.0,0.0
15141,69.0,64,870,4.0,0.0
15142,60.0,0,120,12.0,0.0
15143,63.0,0,870,5.0,0.0
15144,48.0,0,120,12.0,0.0
15145,60.0,0,870,5.0,0.0
15146,63.0,0,120,11.0,0.0
15147,60.0,40,120,11.0,0.0
15148,60.0,0,120,11.0,0.0
15149,48.0,0,120,12.0,0.0
15150,60.0,96,120,12.0,0.0
15151,63.0,0,120,11.0,0.0
15152,71.0,152,210,10.0,0.0
15153,48.0,0,120,12.0,0.0
15154,60.0,0,120,12.0,0.0
15155,60.0,0,120,11.0,0.0
15156,63.0,8,120,11.0,0.0
15157,57.0,88,120,11.0,0.0
15158,42.0,0,870,13.0,0.0
15159,60.0,0,120,12.0,0.0
15160,42.0,0,870,3.0,0.0
15161,51.0,0,120,12.0,0.0
15162,72.0,72,210,10.0,0.0
15163,30.0,64,870,14.0,0.0
15164,60.0,96,120,12.0,0.0
15165,57.0,0,120,11.0,0.0
15166,51.0,0,120,12.0,0.0
15167,69.0,152,210,10.0,0.0
15168,51.0,0,120,12.0,0.0
15169,57.0,0,120,11.0,0.0
15170,60.0,8,120,12.0,0.0
15171,60.0,0,120,12.0,0.0
15172,63.0,0,300,5.0,0.0
15173,63.0,0,300,4.0,0.0
15174,69.0,0,300,4.0,0.0
15175,51.0,88,120,12.0,0.0
15176,60.0,0,300,5.0,0.0
15177,63.0,72,210,10.0,0.0
15178,57.0,0,120,11.0,0.0
15179,60.0,0,120,12.0,0.0
15180,51.0,0,120,12.0,0.0
15181,57.0,96,120,11.0,0.0
15182,62.0,152,210,10.0,0.0
15183,60.0,0,120,12.0,0.0
15184,51.0,0,120,12.0,0.0
15185,57.0,8,120,11.0,0.0
15186,67.0,48,390,4.0,0.0
15187,64.0,0,390,4.0,0.0
15188,72.0,0,960,2.0,0.0
15189,64.0,128,960,5.0,0.0
15190,79.0,0,390,0.0,0.0
15191,76.0,0,390,0.0,0.0
15192,43.0,0,300,3.0,0.0
15193,31.0,0,300,14.0,0.0
15194,64.0,0,390,1.0,0.0
15195,60.0,0,420,11.0,0.0
15196,60.0,0,960,5.0,0.0
15197,43.0,96,300,13.0,0.0
15198,60.0,160,120,12.0,0.0
15199,60.0,16,420,10.0,0.0
15200,64.0,0,960,2.0,0.0
15201,72.0,0,390,1.0,0.0
15202,52.0,0,120,12.0,0.0
15203,60.0,0,120,12.0,0.0
15204,52.0,0,120,12.0,0.0
15205,52.0,0,120,12.0,0.0
15206,60.0,160,120,12.0,0.0
15207,55.0,0,780,3.0,0.0
15208,43.0,0,780,14.0,0.0
15209,60.0,0,120,12.0,0.0
15210,52.0,160,120,12.0,0.0
15211,55.0,0,780,13.0,0.0
15212,52.0,160,120,12.0,0.0
15213,60.0,0,120,12.0,0.0
15214,64.0,0,240,11.0,0.0
15215,64.0,0,240,10.0,0.0
15216,60.0,0,120,12.0,0.0
15217,52.0,32,120,12.0,0.0
15218,62.0,0,390,5.0,0.0
15219,53.0,0,120,12.0,0.0
15220,59.0,0,420,10.0,0.0
15221,65.0,48,390,2.0,0.0
15222,71.0,0,390,2.0,0.0
15223,62.0,160,120,12.0,0.0
15224,65.0,0,390,5.0,0.0
15225,59.0,16,420,11.0,0.0
15226,53.0,96,120,12.0,0.0
15227,62.0,0,120,12.0,0.0
15228,62.0,160,120,12.0,0.0
15229,53.0,0,120,12.0,0.0
15230,44.0,0,300,3.0,0.0
15231,32.0,0,300,14.0,0.0
15232,53.0,0,120,12.0,0.0
15233,62.0,160,120,12.0,0.0
15234,44.0,0,300,13.0,0.0
15235,62.0,0,120,12.0,0.0
15236,53.0,160,120,12.0,0.0
15237,61.0,128,240,11.0,0.0
15238,61.0,0,240,10.0,0.0
15239,53.0,0,120,12.0,0.0
15240,62.0,32,120,12.0,0.0
15241,62.0,0,120,12.0,0.0
15242,62.0,0,960,5.0,0.0
15243,65.0,0,960,2.0,0.0
15244,53.0,160,120,12.0,0.0
15245,45.0,0,300,13.0,0.0
15246,62.0,0,420,11.0,0.0
15247,74.0,0,960,2.0,0.0
15248,45.0,144,300,3.0,0.0
15249,65.0,0,960,5.0,0.0
15250,33.0,0,300,14.0,0.0
15251,62.0,16,420,10.0,0.0
15252,53.0,0,120,12.0,0.0
15253,62.0,0,120,12.0,0.0
15254,53.0,160,120,12.0,0.0
15255,62.0,0,120,12.0,0.0
15256,57.0,0,780,13.0,0.0
15257,53.0,160,120,12.0,0.0
15258,62.0,0,120,12.0,0.0
15259,57.0,0,780,3.0,0.0
15260,45.0,0,780,14.0,0.0
15261,62.0,0,120,12.0,0.0
15262,53.0,160,120,12.0,0.0
15263,65.0,0,240,11.0,0.0
15264,65.0,128,240,10.0,0.0
15265,62.0,0,120,12.0,0.0
15266,53.0,32,120,12.0,0.0
15267,61.0,0,420,10.0,0.0
15268,67.0,0,390,2.0,0.0
15269,55.0,0,120,12.0,0.0
15270,61.0,16,420,11.0,0.0
15271,64.0,160,120,12.0,0.0
15272,73.0,48,390,2.0,0.0
15273,64.0,0,390,5.0,0.0
15274,67.0,0,390,5.0,0.0
15275,55.0,96,120,12.0,0.0
15276,64.0,0,120,12.0,0.0
15277,64.0,160,120,12.0,0.0
15278,55.0,0,120,12.0,0.0
15279,55.0,160,120,12.0,0.0
15280,34.0,0,300,14.0,0.0
15281,46.0,0,300,13.0,0.0
15282,46.0,160,300,3.0,0.0
15283,64.0,0,120,12.0,0.0
15284,64.0,0,120,12.0,0.0
15285,55.0,0,120,12.0,0.0
15286,63.0,0,240,11.0,0.0
15287,63.0,128,240,10.0,0.0
15288,64.0,32,120,12.0,0.0
15289,55.0,0,120,12.0,0.0
15290,67.0,0,480,2.0,0.0
15291,64.0,72,210,11.0,0.0
15292,64.0,0,480,5.0,0.0
15293,55.0,0,480,5.0,0.0
15294,35.0,0,420,14.0,0.0
15295,47.0,16,420,3.0,0.0
15296,76.0,128,480,2.0,0.0
15297,55.0,0,120,12.0,0.0
15298,64.0,88,120,12.0,0.0
15299,47.0,0,420,13.0,0.0
15300,64.0,0,210,10.0,0.0
15301,55.0,144,120,12.0,0.0
15302,64.0,0,120,12.0,0.0
15303,67.0,0,240,11.0,0.0
15304,67.0,0,240,10.0,0.0
15305,64.0,32,120,12.0,0.0
15306,55.0,0,120,12.0,0.0
15307,48.0,0,420,13.0,0.0
15308,36.0,0,420,14.0,0.0
15309,48.0,16,420,3.0,0.0
15310,63.0,0,210,11.0,0.0
15311,63.0,72,210,10.0,0.0
15312,63.0,88,120,12.0,0.0
15313,57.0,0,120,12.0,0.0
15314,63.0,48,390,5.0,0.0
15315,57.0,0,390,5.0,0.0
15316,66.0,0,390,2.0,0.0
15317,75.0,0,390,2.0,0.0
15318,57.0,96,120,12.0,0.0
15319,63.0,0,120,12.0,0.0
15320,66.0,128,240,11.0,0.0
15321,66.0,0,240,10.0,0.0
15322,63.0,32,120,12.0,0.0
15323,57.0,0,120,12.0,0.0
15324,64.0,0,210,10.0,0.0
15325,64.0,72,210,11.0,0.0
15326,47.0,0,420,13.0,0.0
15327,76.0,0,480,2.0,0.0
15328,67.0,0,480,2.0,0.0
15329,64.0,128,480,5.0,0.0
15330,55.0,88,120,12.0,0.0
15331,35.0,16,420,14.0,0.0
15332,64.0,0,120,12.0,0.0
15333,55.0,0,480,5.0,0.0
15334,47.0,0,420,3.0,0.0
15335,55.0,0,120,12.0,0.0
15336,64.0,144,120,12.0,0.0
15337,67.0,0,240,10.0,0.0
15338,67.0,0,240,11.0,0.0
15339,64.0,32,120,12.0,0.0
15340,55.0,0,120,12.0,0.0
15341,75.0,0,390,2.0,0.0
15342,66.0,0,390,2.0,0.0
15343,63.0,0,210,11.0,0.0
15344,57.0,88,120,12.0,0.0
15345,63.0,0,120,12.0,0.0
15346,60.0,0,390,5.0,0.0
15347,63.0,72,210,10.0,0.0
15348,45.0,0,420,3.0,0.0
15349,45.0,16,420,13.0,0.0
15350,33.0,0,420,14.0,0.0
15351,63.0,48,390,5.0,0.0
15352,57.0,0,120,12.0,0.0
15353,63.0,96,120,12.0,0.0
15354,66.0,128,240,11.0,0.0
15355,66.0,0,240,10.0,0.0
15356,57.0,32,120,12.0,0.0
15357,63.0,0,120,12.0,0.0
15358,60.0,0,480,5.0,0.0
15359,64.0,0,210,11.0,0.0
15360,76.0,0,480,2.0,0.0
15361,67.0,0,480,2.0,0.0
15362,64.0,0,210,10.0,0.0
15363,72.0,0,210,10.0,0.0
15364,64.0,0,480,5.0,0.0
15365,60.0,88,120,12.0,0.0
15366,64.0,0,120,12.0,0.0
15367,43.0,0,420,3.0,0.0
15368,31.0,0,420,14.0,0.0
15369,43.0,16,420,13.0,0.0
15370,72.0,72,210,11.0,0.0
15371,60.0,0,120,12.0,0.0
15372,64.0,144,120,12.0,0.0
15373,76.0,0,240,10.0,0.0
15374,76.0,128,240,11.0,0.0
15375,60.0,32,120,12.0,0.0
15376,64.0,0,120,12.0,0.0
15377,62.0,0,120,12.0,0.0
15378,74.0,48,390,2.0,0.0
15379,71.0,72,210,11.0,0.0
15380,65.0,88,120,12.0,0.0
15381,44.0,0,420,13.0,0.0
15382,44.0,0,420,3.0,0.0
15383,59.0,0,390,5.0,0.0
15384,62.0,0,390,5.0,0.0
15385,32.0,16,420,14.0,0.0
15386,71.0,0,210,10.0,0.0
15387,71.0,0,390,2.0,0.0
15388,62.0,96,120,12.0,0.0
15389,65.0,0,120,12.0,0.0
15390,74.0,0,240,11.0,0.0
15391,74.0,128,240,10.0,0.0
15392,62.0,32,120,12.0,0.0
15393,65.0,0,120,12.0,0.0
15394,43.0,0,420,13.0,0.0
15395,64.0,0,480,5.0,0.0
15396,60.0,128,480,5.0,0.0
15397,67.0,88,120,12.0,0.0
15398,64.0,0,120,12.0,0.0
15399,72.0,72,210,11.0,0.0
15400,72.0,0,480,2.0,0.0
15401,76.0,0,480,2.0,0.0
15402,31.0,0,420,14.0,0.0
15403,72.0,0,210,10.0,0.0
15404,43.0,16,420,3.0,0.0
15405,67.0,144,120,12.0,0.0
15406,64.0,0,120,12.0,0.0
15407,76.0,0,240,10.0,0.0
15408,76.0,0,240,11.0,0.0
15409,67.0,32,120,12.0,0.0
15410,64.0,0,120,12.0,0.0
15411,74.0,0,390,2.0,0.0
15412,71.0,0,390,2.0,0.0
15413,41.0,0,420,13.0,0.0
15414,62.0,48,390,5.0,0.0
15415,41.0,16,420,3.0,0.0
15416,68.0,0,120,12.0,0.0
15417,59.0,0,390,5.0,0.0
15418,59.0,88,120,12.0,0.0
15419,29.0,0,420,14.0,0.0
15420,71.0,0,210,11.0,0.0
15421,71.0,72,210,10.0,0.0
15422,59.0,96,120,12.0,0.0
15423,68.0,0,120,12.0,0.0
15424,74.0,0,240,10.0,0.0
15425,74.0,128,240,11.0,0.0
15426,68.0,32,120,12.0,0.0
15427,59.0,0,120,12.0,0.0
15428,76.0,0,960,0.0,0.0
15429,84.0,0,960,0.0,0.0
15430,67.0,0,120,12.0,0.0
15431,64.0,88,120,12.0,0.0
15432,72.0,48,390,2.0,0.0
15433,84.0,16,420,10.0,0.0
15434,40.0,0,210,3.0,0.0
15435,72.0,0,420,11.0,0.0
15436,72.0,0,960,1.0,0.0
15437,28.0,72,210,14.0,0.0
15438,40.0,0,210,13.0,0.0
15439,64.0,0,960,1.0,0.0
15440,64.0,0,960,4.0,0.0
15441,55.0,0,960,4.0,0.0
15442,60.0,128,960,5.0,0.0
15443,67.0,0,960,5.0,0.0
15444,64.0,0,120,12.0,0.0
15445,67.0,96,120,12.0,0.0
15446,52.0,0,240,3.0,0.0
15447,40.0,128,240,14.0,0.0
15448,52.0,0,240,13.0,0.0
15449,67.0,32,120,12.0,0.0
15450,64.0,0,120,12.0,0.0
15451,55.0,0,660,3.0,0.0
15452,60.0,160,120,12.0,0.0
15453,55.0,120,660,13.0,0.0
15454,64.0,0,120,12.0,0.0
15455,43.0,0,660,14.0,0.0
15456,60.0,160,120,12.0,0.0
15457,64.0,0,120,12.0,0.0
15458,88.0,0,240,10.0,0.0
15459,76.0,0,240,11.0,0.0
15460,64.0,0,120,12.0,0.0
15461,60.0,32,120,12.0,0.0
15462,71.0,16,420,11.0,0.0
15463,83.0,0,390,0.0,0.0
15464,77.0,48,390,0.0,0.0
15465,71.0,0,390,1.0,0.0
15466,62.0,0,390,5.0,0.0
15467,59.0,0,390,4.0,0.0
15468,62.0,0,390,4.0,0.0
15469,59.0,0,390,5.0,0.0
15470,62.0,40,120,12.0,0.0
15471,83.0,0,420,10.0,0.0
15472,65.0,0,120,12.0,0.0
15473,65.0,0,390,1.0,0.0
15474,65.0,0,120,12.0,0.0
15475,62.0,96,120,12.0,0.0
15476,43.0,0,240,13.0,0.0
15477,43.0,0,240,3.0,0.0
15478,31.0,128,240,14.0,0.0
15479,65.0,32,120,12.0,0.0
15480,62.0,0,120,12.0,0.0
15481,73.0,128,480,2.0,0.0
15482,73.0,160,120,12.0,0.0
15483,64.0,0,120,12.0,0.0
15484,44.0,0,690,3.0,0.0
15485,44.0,0,690,13.0,0.0
15486,32.0,72,690,14.0,0.0
15487,73.0,0,120,12.0,0.0
15488,64.0,160,120,12.0,0.0
15489,85.0,0,240,10.0,0.0
15490,73.0,0,240,11.0,0.0
15491,64.0,0,120,12.0,0.0
15492,73.0,32,120,12.0,0.0
15493,65.0,0,960,5.0,0.0
15494,86.0,16,420,10.0,0.0
15495,57.0,0,960,5.0,0.0
15496,77.0,0,960,0.0,0.0
15497,65.0,0,120,12.0,0.0
15498,86.0,0,960,0.0,0.0
15499,74.0,0,420,11.0,0.0
15500,74.0,88,120,12.0,0.0
15501,65.0,0,960,1.0,0.0
15502,74.0,128,960,1.0,0.0
15503,74.0,48,390,2.0,0.0
15504,69.0,0,960,4.0,0.0
15505,62.0,0,960,4.0,0.0
15506,65.0,96,120,12.0,0.0
15507,74.0,0,120,12.0,0.0
15508,56.0,0,240,3.0,0.0
15509,56.0,0,240,13.0,0.0
15510,44.0,128,240,14.0,0.0
15511,74.0,32,120,12.0,0.0
15512,65.0,0,120,12.0,0.0
15513,57.0,0,660,3.0,0.0
15514,57.0,0,660,13.0,0.0
15515,45.0,120,660,14.0,0.0
15516,65.0,160,120,12.0,0.0
15517,62.0,0,120,12.0,0.0
15518,65.0,160,120,12.0,0.0
15519,62.0,0,120,12.0,0.0
15520,89.0,0,240,10.0,0.0
15521,77.0,0,240,11.0,0.0
15522,62.0,0,120,12.0,0.0
15523,65.0,32,120,12.0,0.0
15524,61.0,0,390,5.0,0.0
15525,64.0,0,390,5.0,0.0
15526,61.0,0,390,4.0,0.0
15527,67.0,0,120,12.0,0.0
15528,85.0,0,420,10.0,0.0
15529,64.0,0,390,4.0,0.0
15530,64.0,40,120,12.0,0.0
15531,67.0,0,390,1.0,0.0
15532,79.0,0,390,0.0,0.0
15533,85.0,0,390,0.0,0.0
15534,73.0,48,390,1.0,0.0
15535,73.0,16,420,11.0,0.0
15536,67.0,96,120,12.0,0.0
15537,64.0,0,120,12.0,0.0
15538,45.0,0,240,13.0,0.0
15539,45.0,0,240,3.0,0.0
15540,33.0,128,240,14.0,0.0
15541,67.0,32,120,12.0,0.0
15542,64.0,0,120,12.0,0.0
15543,75.0,0,120,12.0,0.0
15544,46.0,0,690,3.0,0.0
15545,34.0,0,690,14.0,0.0
15546,46.0,72,690,13.0,0.0
15547,75.0,0,480,2.0,0.0
15548,66.0,160,120,12.0,0.0
15549,66.0,160,120,12.0,0.0
15550,75.0,0,120,12.0,0.0
15551,87.0,128,240,10.0,0.0
15552,75.0,0,240,11.0,0.0
15553,66.0,32,120,12.0,0.0
15554,75.0,0,120,12.0,0.0
15555,64.0,128,480,4.0,0.0
15556,76.0,0,480,1.0,0.0
15557,67.0,0,480,1.0,0.0
15558,76.0,64,390,2.0,0.0
15559,67.0,0,480,4.0,0.0
15560,88.0,0,210,10.0,0.0
15561,79.0,0,480,0.0,0.0
15562,88.0,0,480,0.0,0.0
15563,67.0,88,120,12.0,0.0
15564,76.0,0,120,12.0,0.0
15565,76.0,0,210,11.0,0.0
15566,52.0,0,120,7.0,0.0
15567,52.0,0,120,7.0,0.0
15568,67.0,96,120,12.0,0.0
15569,76.0,0,120,12.0,0.0
15570,46.0,0,240,14.0,0.0
15571,79.0,0,240,11.0,0.0
15572,91.0,0,240,10.0,0.0
15573,58.0,0,240,3.0,0.0
15574,46.0,0,240,3.0,0.0
15575,58.0,0,240,13.0,0.0
15576,67.0,32,120,12.0,0.0
15577,76.0,0,120,12.0,0.0
15578,52.0,0,120,7.0,0.0
15579,75.0,0,120,12.0,0.0
15580,87.0,0,390,0.0,0.0
15581,81.0,0,390,0.0,0.0
15582,78.0,0,480,2.0,0.0
15583,69.0,0,120,12.0,0.0
15584,59.0,0,210,3.0,0.0
15585,75.0,0,210,11.0,0.0
15586,47.0,88,120,7.0,0.0
15587,87.0,72,210,10.0,0.0
15588,59.0,0,210,13.0,0.0
15589,59.0,0,480,5.0,0.0
15590,75.0,0,390,1.0,0.0
15591,47.0,0,210,14.0,0.0
15592,66.0,64,390,4.0,0.0
15593,63.0,0,390,4.0,0.0
15594,69.0,0,390,1.0,0.0
15595,47.0,0,210,3.0,0.0
15596,47.0,0,120,7.0,0.0
15597,69.0,96,120,12.0,0.0
15598,75.0,0,120,12.0,0.0
15599,47.0,0,240,14.0,0.0
15600,59.0,0,240,3.0,0.0
15601,47.0,0,240,3.0,0.0
15602,78.0,0,240,11.0,0.0
15603,59.0,0,240,13.0,0.0
15604,90.0,128,240,10.0,0.0
15605,69.0,0,120,12.0,0.0
15606,47.0,0,120,7.0,0.0
15607,75.0,32,120,12.0,0.0
15608,60.0,64,390,5.0,0.0
15609,52.0,88,120,7.0,0.0
15610,67.0,0,120,12.0,0.0
15611,76.0,0,480,1.0,0.0
15612,67.0,0,480,1.0,0.0
15613,48.0,0,210,14.0,0.0
15614,76.0,0,120,12.0,0.0
15615,76.0,0,300,6.0,0.0
15616,60.0,0,210,13.0,0.0
15617,48.0,0,210,3.0,0.0
15618,60.0,72,210,3.0,0.0
15619,76.0,0,210,11.0,0.0
15620,79.0,0,480,0.0,0.0
15621,88.0,128,480,0.0,0.0
15622,64.0,0,480,4.0,0.0
15623,67.0,0,480,4.0,0.0
15624,88.0,0,210,10.0,0.0
15625,64.0,0,300,6.0,0.0
15626,76.0,0,390,2.0,0.0
15627,76.0,0,120,12.0,0.0
15628,52.0,96,120,7.0,0.0
15629,67.0,0,120,12.0,0.0
15630,60.0,0,240,3.0,0.0
15631,60.0,0,240,13.0,0.0
15632,79.0,0,240,11.0,0.0
15633,48.0,0,240,3.0,0.0
15634,48.0,0,240,14.0,0.0
15635,91.0,0,240,10.0,0.0
15636,52.0,0,120,7.0,0.0
15637,67.0,32,120,12.0,0.0
15638,76.0,0,120,12.0,0.0
15639,59.0,0,210,13.0,0.0
15640,75.0,0,210,11.0,0.0
15641,75.0,0,120,12.0,0.0
15642,69.0,0,120,12.0,0.0
15643,59.0,0,480,5.0,0.0
15644,47.0,0,210,14.0,0.0
15645,69.0,0,390,1.0,0.0
15646,66.0,0,390,4.0,0.0
15647,63.0,0,390,4.0,0.0
15648,47.0,0,210,3.0,0.0
15649,47.0,88,120,7.0,0.0
15650,87.0,72,210,10.0,0.0
15651,78.0,128,480,2.0,0.0
15652,81.0,0,390,0.0,0.0
15653,87.0,64,390,0.0,0.0
15654,75.0,0,390,1.0,0.0
15655,59.0,0,210,3.0,0.0
15656,75.0,96,120,12.0,0.0
15657,47.0,0,120,7.0,0.0
15658,69.0,0,120,12.0,0.0
15659,59.0,0,240,13.0,0.0
15660,47.0,0,240,3.0,0.0
15661,59.0,0,240,3.0,0.0
15662,78.0,0,240,11.0,0.0
15663,90.0,0,240,10.0,0.0
15664,47.0,0,240,14.0,0.0
15665,47.0,32,120,7.0,0.0
15666,69.0,0,120,12.0,0.0
15667,75.0,0,120,12.0,0.0
15668,67.0,128,480,4.0,0.0
15669,64.0,0,480,4.0,0.0
15670,67.0,0,480,1.0,0.0
15671,88.0,0,210,10.0,0.0
15672,88.0,0,480,0.0,0.0
15673,79.0,0,480,0.0,0.0
15674,76.0,0,480,1.0,0.0
15675,76.0,0,210,11.0,0.0
15676,60.0,0,210,13.0,0.0
15677,48.0,0,210,14.0,0.0
15678,76.0,0,300,6.0,0.0
15679,60.0,0,390,5.0,0.0
15680,64.0,0,300,6.0,0.0
15681,52.0,0,120,7.0,0.0
15682,48.0,72,210,3.0,0.0
15683,60.0,0,210,3.0,0.0
15684,76.0,88,120,12.0,0.0
15685,67.0,0,120,12.0,0.0
15686,76.0,64,390,2.0,0.0
15687,76.0,0,120,12.0,0.0
15688,52.0,0,120,7.0,0.0
15689,67.0,96,120,12.0,0.0
15690,79.0,0,240,11.0,0.0
15691,60.0,0,240,13.0,0.0
15692,91.0,0,240,10.0,0.0
15693,60.0,0,240,3.0,0.0
15694,48.0,0,240,3.0,0.0
15695,48.0,0,240,14.0,0.0
15696,52.0,32,120,7.0,0.0
15697,67.0,0,120,12.0,0.0
15698,76.0,0,120,12.0,0.0
15699,87.0,72,210,10.0,0.0
15700,55.0,0,210,3.0,0.0
15701,63.0,0,390,4.0,0.0
15702,66.0,0,390,4.0,0.0
15703,87.0,64,390,0.0,0.0
15704,43.0,0,210,14.0,0.0
15705,69.0,0,120,12.0,0.0
15706,66.0,0,120,12.0,0.0
15707,78.0,0,480,2.0,0.0
15708,75.0,0,390,1.0,0.0
15709,69.0,0,390,1.0,0.0
15710,55.0,128,480,5.0,0.0
15711,55.0,0,210,13.0,0.0
15712,81.0,0,390,0.0,0.0
15713,52.0,88,120,7.0,0.0
15714,75.0,0,210,11.0,0.0
15715,43.0,0,210,3.0,0.0
15716,52.0,0,120,7.0,0.0
15717,66.0,0,120,12.0,0.0
15718,69.0,96,120,12.0,0.0
15719,78.0,0,240,11.0,0.0
15720,55.0,0,240,13.0,0.0
15721,55.0,0,240,3.0,0.0
15722,43.0,0,240,3.0,0.0
15723,90.0,0,240,10.0,0.0
15724,43.0,0,240,14.0,0.0
15725,69.0,32,120,12.0,0.0
15726,52.0,0,120,7.0,0.0
15727,66.0,0,120,12.0,0.0
15728,52.0,0,120,7.0,0.0
15729,67.0,0,480,4.0,0.0
15730,64.0,0,480,4.0,0.0
15731,64.0,0,120,12.0,0.0
15732,67.0,88,120,12.0,0.0
15733,60.0,0,210,13.0,0.0
15734,67.0,0,480,1.0,0.0
15735,60.0,0,210,3.0,0.0
15736,76.0,0,480,1.0,0.0
15737,79.0,0,480,0.0,0.0
15738,88.0,0,480,0.0,0.0
15739,48.0,0,210,14.0,0.0
15740,88.0,0,210,10.0,0.0
15741,76.0,0,210,11.0,0.0
15742,76.0,64,390,2.0,0.0
15743,64.0,0,300,6.0,0.0
15744,60.0,0,390,5.0,0.0
15745,76.0,0,300,6.0,0.0
15746,48.0,72,210,3.0,0.0
15747,64.0,0,120,12.0,0.0
15748,67.0,96,120,12.0,0.0
15749,52.0,0,120,7.0,0.0
15750,91.0,128,240,10.0,0.0
15751,60.0,0,240,3.0,0.0
15752,48.0,0,240,14.0,0.0
15753,79.0,0,240,11.0,0.0
15754,60.0,0,240,13.0,0.0
15755,52.0,32,120,7.0,0.0
15756,64.0,0,120,12.0,0.0
15757,67.0,0,120,12.0,0.0
15758,81.0,0,390,0.0,0.0
15759,87.0,0,390,0.0,0.0
15760,36.0,0,210,14.0,0.0
15761,75.0,0,210,11.0,0.0
15762,48.0,0,15,3.0,0.0
15763,63.0,64,390,4.0,0.0
15764,66.0,0,390,4.0,0.0
15765,78.0,0,480,2.0,0.0
15766,36.0,0,210,3.0,0.0
15767,87.0,0,210,10.0,0.0
15768,48.0,0,480,5.0,0.0
15769,69.0,0,120,12.0,0.0
15770,66.0,0,120,12.0,0.0
15771,52.0,88,120,7.0,0.0
15772,75.0,0,390,1.0,0.0
15773,48.0,0,210,13.0,0.0
15774,69.0,0,390,1.0,0.0
15775,66.0,96,120,12.0,0.0
15776,52.0,0,120,7.0,0.0
15777,69.0,0,120,12.0,0.0
15778,36.0,0,240,3.0,0.0
15779,48.0,0,240,3.0,0.0
15780,36.0,0,240,14.0,0.0
15781,48.0,0,240,13.0,0.0
15782,90.0,0,240,10.0,0.0
15783,78.0,288,240,11.0,0.0
15784,52.0,0,120,7.0,0.0
15785,66.0,0,120,12.0,0.0
15786,69.0,32,120,12.0,0.0
15787,48.0,0,300,14.0,0.0
15788,60.0,0,300,5.0,0.0
15789,60.0,96,300,13.0,0.0
15790,64.0,0,300,4.0,0.0
15791,52.0,0,300,7.0,0.0
15792,48.0,0,300,3.0,0.0
15793,60.0,0,300,3.0,0.0
15794,67.0,0,300,4.0,0.0
15795,79.0,576,390,0.0,0.0
15796,64.0,0,300,12.0,0.0
15797,67.0,0,300,12.0,0.0
15798,88.0,0,300,10.0,0.0
15799,64.0,0,300,6.0,0.0
15800,76.0,0,300,6.0,0.0
15801,76.0,0,300,11.0,0.0
15802,76.0,0,300,2.0,0.0
15803,76.0,0,300,1.0,0.0
15804,88.0,0,300,0.0,0.0
15805,67.0,0,300,1.0,0.0
15806,88.0,288,480,0.0,0.0
15807,88.0,0,480,10.0,0.0
15808,60.0,0,780,13.0,0.0
15809,64.0,192,780,12.0,0.0
15810,84.0,0,480,0.0,0.0
15811,84.0,0,480,11.0,0.0
15812,76.0,0,480,11.0,0.0
15813,64.0,0,780,4.0,0.0
15814,60.0,0,780,5.0,0.0
15815,75.0,0,480,11.0,0.0
15816,87.0,480,480,10.0,0.0
15817,83.0,0,480,11.0,0.0
15818,87.0,0,480,0.0,0.0
15819,83.0,0,480,0.0,0.0
15820,60.0,96,870,13.0,0.0
15821,81.0,0,480,11.0,0.0
15822,72.0,0,480,11.0,0.0
15823,64.0,0,870,4.0,0.0
15824,60.0,96,780,5.0,0.0
15825,64.0,0,870,12.0,0.0
15826,84.0,288,480,10.0,0.0
15827,81.0,0,480,0.0,0.0
15828,84.0,0,480,0.0,0.0
15829,83.0,0,480,0.0,0.0
15830,83.0,480,480,10.0,0.0
15831,71.0,0,480,11.0,0.0
15832,80.0,0,480,11.0,0.0
15833,80.0,0,480,0.0,0.0
15834,60.0,0,780,13.0,0.0
15835,76.0,288,480,12.0,0.0
15836,72.0,0,480,12.0,0.0
15837,81.0,0,480,10.0,0.0
15838,81.0,0,480,11.0,0.0
15839,69.0,0,480,11.0,0.0
15840,81.0,0,480,0.0,0.0
15841,64.0,0,780,4.0,0.0
15842,60.0,192,780,5.0,0.0
15843,76.0,0,1140,0.0,0.0
15844,76.0,0,1140,11.0,0.0
15845,75.0,480,480,12.0,0.0
15846,71.0,0,480,12.0,0.0
15847,76.0,96,1140,10.0,0.0
15848,64.0,96,870,4.0,0.0
15849,60.0,96,780,5.0,0.0
15850,69.0,192,480,12.0,0.0
15851,72.0,0,480,12.0,0.0
15852,60.0,0,870,13.0,0.0
15853,68.0,0,480,12.0,0.0
15854,71.0,0,480,12.0,0.0
15855,74.0,0,240,11.0,0.0
15856,74.0,240,240,0.0,0.0
15857,74.0,0,240,10.0,0.0
15858,64.0,192,780,4.0,0.0
15859,60.0,0,780,5.0,0.0
15860,69.0,48,390,12.0,0.0
15861,71.0,0,240,10.0,0.0
15862,71.0,0,240,0.0,0.0
15863,60.0,0,780,13.0,0.0
15864,71.0,144,240,11.0,0.0
15865,72.0,288,180,10.0,0.0
15866,72.0,0,180,0.0,0.0
15867,72.0,0,180,11.0,0.0
15868,69.0,0,960,12.0,0.0
15869,71.0,0,480,12.0,0.0
15870,78.0,0,240,10.0,0.0
15871,78.0,48,240,11.0,0.0
15872,78.0,0,240,0.0,0.0
15873,75.0,192,240,10.0,0.0
15874,75.0,0,240,11.0,0.0
15875,75.0,0,240,0.0,0.0
15876,60.0,0,780,13.0,0.0
15877,76.0,0,180,11.0,0.0
15878,60.0,24,780,5.0,0.0
15879,48.0,72,780,14.0,0.0
15880,72.0,0,480,12.0,0.0
15881,76.0,0,180,0.0,0.0
15882,64.0,96,870,4.0,0.0
15883,76.0,288,180,10.0,0.0
15884,83.0,0,240,11.0,0.0
15885,83.0,240,240,10.0,0.0
15886,83.0,0,240,0.0,0.0
15887,80.0,0,240,11.0,0.0
15888,77.0,0,480,12.0,0.0
15889,74.0,0,480,12.0,0.0
15890,80.0,48,240,10.0,0.0
15891,80.0,0,240,0.0,0.0
15892,81.0,0,240,0.0,0.0
15893,81.0,192,240,11.0,0.0
15894,81.0,0,240,10.0,0.0
15895,76.0,24,300,12.0,0.0
15896,84.0,96,180,10.0,0.0
15897,72.0,0,300,12.0,0.0
15898,84.0,0,180,0.0,0.0
15899,60.0,0,780,5.0,0.0
15900,72.0,0,180,11.0,0.0
15901,64.0,0,780,4.0,0.0
15902,57.0,0,300,13.0,0.0
15903,45.0,168,300,14.0,0.0
15904,72.0,192,240,11.0,0.0
15905,84.0,0,240,0.0,0.0
15906,84.0,0,240,10.0,0.0
15907,88.0,96,180,10.0,0.0
15908,76.0,0,180,11.0,0.0
15909,72.0,0,300,12.0,0.0
15910,88.0,0,180,0.0,0.0
15911,69.0,24,300,12.0,0.0
15912,40.0,0,300,14.0,0.0
15913,52.0,168,300,13.0,0.0
15914,88.0,192,240,10.0,0.0
15915,88.0,0,240,0.0,0.0
15916,76.0,0,240,11.0,0.0
15917,93.0,0,180,0.0,0.0
15918,36.0,0,300,14.0,0.0
15919,64.0,672,780,4.0,0.0
15920,48.0,168,300,13.0,0.0
15921,69.0,0,300,12.0,0.0
15922,81.0,0,180,11.0,0.0
15923,93.0,0,180,10.0,0.0
15924,81.0,96,180,10.0,0.0
15925,60.0,0,780,5.0,0.0
15926,64.0,24,300,12.0,0.0
15927,93.0,0,240,0.0,0.0
15928,81.0,288,240,11.0,0.0
15929,81.0,0,240,10.0,0.0
15930,93.0,0,240,10.0,0.0
15931,60.0,0,300,12.0,0.0
15932,96.0,0,300,0.0,0.0
15933,84.0,0,300,10.0,0.0
15934,96.0,0,300,10.0,0.0
15935,33.0,0,300,14.0,0.0
15936,64.0,0,300,12.0,0.0
15937,45.0,0,300,13.0,0.0
15938,84.0,0,300,11.0,0.0
15939,79.0,384,480,2.0,0.0
15940,95.0,0,480,0.0,0.0
15941,91.0,0,480,0.0,0.0
15942,79.0,0,480,1.0,0.0
15943,83.0,0,480,1.0,0.0
15944,83.0,0,480,10.0,0.0
15945,55.0,0,870,12.0,0.0
15946,67.0,0,870,12.0,0.0
15947,55.0,0,870,13.0,0.0
15948,40.0,0,870,13.0,0.0
15949,43.0,0,870,3.0,0.0
15950,83.0,0,480,11.0,0.0
15951,79.0,0,480,11.0,0.0
15952,55.0,0,870,3.0,0.0
15953,28.0,96,870,14.0,0.0
15954,95.0,0,480,10.0,0.0
15955,83.0,0,480,2.0,0.0
15956,94.0,0,480,10.0,0.0
15957,78.0,0,480,1.0,0.0
15958,82.0,0,480,1.0,0.0
15959,78.0,0,480,11.0,0.0
15960,94.0,0,480,0.0,0.0
15961,90.0,0,480,0.0,0.0
15962,82.0,0,480,11.0,0.0
15963,78.0,480,480,2.0,0.0
15964,82.0,0,480,10.0,0.0
15965,82.0,0,480,2.0,0.0
15966,79.0,0,480,11.0,0.0
15967,76.0,0,480,11.0,0.0
15968,88.0,0,480,0.0,0.0
15969,79.0,0,480,1.0,0.0
15970,91.0,0,480,0.0,0.0
15971,91.0,0,480,10.0,0.0
15972,79.0,384,480,10.0,0.0
15973,76.0,0,480,1.0,0.0
15974,30.0,0,870,14.0,0.0
15975,58.0,48,900,3.0,0.0
15976,42.0,0,900,3.0,0.0
15977,76.0,0,480,2.0,0.0
15978,79.0,0,480,2.0,0.0
15979,70.0,0,870,12.0,0.0
15980,58.0,0,870,13.0,0.0
15981,42.0,48,870,13.0,0.0
15982,58.0,0,870,12.0,0.0
15983,78.0,0,480,11.0,0.0
15984,75.0,0,480,11.0,0.0
15985,78.0,0,480,10.0,0.0
15986,87.0,0,480,0.0,0.0
15987,90.0,0,480,10.0,0.0
15988,78.0,0,480,1.0,0.0
15989,75.0,0,480,2.0,0.0
15990,78.0,384,480,2.0,0.0
15991,90.0,0,480,0.0,0.0
15992,75.0,0,480,1.0,0.0
15993,76.0,480,480,10.0,0.0
15994,76.0,0,480,11.0,0.0
15995,88.0,0,480,0.0,0.0
15996,59.0,0,480,12.0,0.0
15997,71.0,0,480,12.0,0.0
15998,76.0,96,390,1.0,0.0
15999,76.0,0,390,2.0,0.0
16000,59.0,0,480,13.0,0.0
16001,31.0,0,480,14.0,0.0
16002,43.0,0,480,3.0,0.0
16003,88.0,0,480,10.0,0.0
16004,43.0,0,480,13.0,0.0
16005,59.0,0,480,3.0,0.0
16006,33.0,0,480,14.0,0.0
16007,71.0,288,480,2.0,0.0
16008,83.0,0,480,2.0,0.0
16009,83.0,96,780,0.0,0.0
16010,71.0,0,480,1.0,0.0
16011,83.0,0,480,1.0,0.0
16012,60.0,0,480,13.0,0.0
16013,45.0,0,480,13.0,0.0
16014,60.0,0,480,12.0,0.0
16015,83.0,240,1200,10.0,0.0
16016,72.0,0,480,12.0,0.0
16017,71.0,0,1200,11.0,0.0
16018,45.0,0,480,3.0,0.0
16019,60.0,0,480,3.0,0.0
16020,63.0,0,480,12.0,0.0
16021,75.0,0,480,12.0,0.0
16022,63.0,0,480,13.0,0.0
16023,47.0,0,480,13.0,0.0
16024,47.0,0,480,3.0,0.0
16025,69.0,0,390,1.0,0.0
16026,81.0,96,390,1.0,0.0
16027,81.0,0,390,2.0,0.0
16028,69.0,0,390,2.0,0.0
16029,63.0,240,480,3.0,0.0
16030,35.0,0,480,14.0,0.0
16031,36.0,0,480,14.0,0.0
16032,76.0,0,480,12.0,0.0
16033,48.0,0,480,3.0,0.0
16034,64.0,0,480,3.0,0.0
16035,69.0,0,870,1.0,0.0
16036,64.0,0,480,13.0,0.0
16037,64.0,240,480,12.0,0.0
16038,76.0,0,480,1.0,0.0
16039,69.0,0,870,2.0,0.0
16040,48.0,0,480,13.0,0.0
16041,76.0,0,480,2.0,0.0
16042,69.0,0,240,11.0,0.0
16043,81.0,0,240,10.0,0.0
16044,79.0,0,240,11.0,0.0
16045,51.0,0,390,3.0,0.0
16046,66.0,0,390,3.0,0.0
16047,78.0,0,390,1.0,0.0
16048,78.0,0,390,2.0,0.0
16049,66.0,0,390,13.0,0.0
16050,51.0,48,390,13.0,0.0
16051,39.0,0,390,14.0,0.0
16052,66.0,0,390,12.0,0.0
16053,91.0,144,240,10.0,0.0
16054,78.0,0,390,12.0,0.0
16055,90.0,176,180,10.0,0.0
16056,78.0,0,180,11.0,0.0
16057,52.0,0,390,13.0,0.0
16058,67.0,0,870,1.0,0.0
16059,59.0,64,390,13.0,0.0
16060,79.0,48,240,10.0,0.0
16061,67.0,0,870,2.0,0.0
16062,67.0,112,120,12.0,0.0
16063,71.0,0,120,12.0,0.0
16064,71.0,128,480,2.0,0.0
16065,40.0,0,390,14.0,0.0
16066,52.0,0,390,3.0,0.0
16067,59.0,0,390,3.0,0.0
16068,71.0,0,480,1.0,0.0
16069,67.0,0,240,11.0,0.0
16070,67.0,0,120,12.0,0.0
16071,71.0,96,120,12.0,0.0
16072,78.0,0,240,11.0,0.0
16073,90.0,0,240,10.0,0.0
16074,71.0,0,120,12.0,0.0
16075,67.0,32,120,12.0,0.0
16076,76.0,96,180,11.0,0.0
16077,48.0,0,390,5.0,0.0
16078,36.0,0,390,14.0,0.0
16079,64.0,0,390,13.0,0.0
16080,64.0,0,390,4.0,0.0
16081,48.0,64,390,13.0,0.0
16082,76.0,0,390,1.0,0.0
16083,67.0,0,120,12.0,0.0
16084,48.0,0,390,3.0,0.0
16085,64.0,0,390,3.0,0.0
16086,76.0,64,120,12.0,0.0
16087,88.0,0,180,10.0,0.0
16088,64.0,0,390,6.0,0.0
16089,76.0,0,390,2.0,0.0
16090,76.0,96,120,12.0,0.0
16091,67.0,0,120,12.0,0.0
16092,64.0,0,240,11.0,0.0
16093,76.0,128,240,10.0,0.0
16094,76.0,32,120,12.0,0.0
16095,67.0,0,120,12.0,0.0
16096,64.0,96,300,2.0,0.0
16097,66.0,0,300,1.0,0.0
16098,33.0,0,390,14.0,0.0
16099,66.0,0,300,2.0,0.0
16100,64.0,0,300,1.0,0.0
16101,66.0,0,120,12.0,0.0
16102,64.0,112,120,12.0,0.0
16103,66.0,0,390,4.0,0.0
16104,74.0,48,240,11.0,0.0
16105,45.0,0,390,3.0,0.0
16106,60.0,0,390,5.0,0.0
16107,76.0,64,390,6.0,0.0
16108,45.0,0,390,13.0,0.0
16109,64.0,0,390,6.0,0.0
16110,64.0,0,390,4.0,0.0
16111,86.0,0,240,10.0,0.0
16112,64.0,0,120,12.0,0.0
16113,66.0,0,120,12.0,0.0
16114,84.0,128,240,10.0,0.0
16115,72.0,0,240,11.0,0.0
16116,64.0,32,120,12.0,0.0
16117,66.0,0,120,12.0,0.0
16118,64.0,0,780,6.0,0.0
16119,76.0,0,780,6.0,0.0
16120,64.0,64,120,12.0,0.0
16121,66.0,0,120,12.0,0.0
16122,64.0,0,780,4.0,0.0
16123,45.0,0,780,14.0,0.0
16124,66.0,0,780,4.0,0.0
16125,81.0,0,180,10.0,0.0
16126,78.0,96,180,11.0,0.0
16127,60.0,0,780,5.0,0.0
16128,57.0,0,780,3.0,0.0
16129,57.0,0,780,13.0,0.0
16130,64.0,160,120,12.0,0.0
16131,66.0,0,120,12.0,0.0
16132,81.0,0,240,10.0,0.0
16133,78.0,128,240,11.0,0.0
16134,64.0,0,120,12.0,0.0
16135,66.0,32,120,12.0,0.0
16136,66.0,0,120,12.0,0.0
16137,78.0,96,180,10.0,0.0
16138,72.0,0,180,11.0,0.0
16139,64.0,64,120,12.0,0.0
16140,66.0,160,120,12.0,0.0
16141,64.0,0,120,12.0,0.0
16142,78.0,0,240,10.0,0.0
16143,72.0,128,240,11.0,0.0
16144,66.0,32,120,12.0,0.0
16145,64.0,0,120,12.0,0.0
16146,72.0,96,180,10.0,0.0
16147,76.0,0,390,6.0,0.0
16148,64.0,64,390,6.0,0.0
16149,60.0,0,390,5.0,0.0
16150,45.0,0,390,13.0,0.0
16151,64.0,64,120,12.0,0.0
16152,66.0,0,390,4.0,0.0
16153,64.0,0,390,4.0,0.0
16154,45.0,0,390,3.0,0.0
16155,66.0,0,120,12.0,0.0
16156,33.0,0,390,14.0,0.0
16157,66.0,0,180,11.0,0.0
16158,64.0,96,120,12.0,0.0
16159,66.0,0,120,12.0,0.0
16160,72.0,144,240,10.0,0.0
16161,66.0,0,240,11.0,0.0
16162,64.0,0,120,12.0,0.0
16163,66.0,32,120,12.0,0.0
16164,71.0,0,150,6.0,0.0
16165,67.0,0,150,12.0,0.0
16166,64.0,192,150,12.0,0.0
16167,67.0,0,150,4.0,0.0
16168,64.0,0,150,4.0,0.0
16169,67.0,0,150,11.0,0.0
16170,59.0,0,150,5.0,0.0
16171,35.0,0,150,14.0,0.0
16172,47.0,0,150,3.0,0.0
16173,47.0,0,150,13.0,0.0
16174,59.0,0,150,6.0,0.0
16175,71.0,0,150,10.0,0.0
16176,59.0,120,90,10.0,0.0
16177,59.0,0,90,11.0,0.0
16178,59.0,0,90,11.0,0.0
16179,59.0,120,90,10.0,0.0
16180,64.0,120,90,11.0,0.0
16181,64.0,0,90,10.0,0.0
16182,64.0,0,90,11.0,0.0
16183,64.0,120,90,10.0,0.0
16184,67.0,0,90,10.0,0.0
16185,67.0,120,90,11.0,0.0
16186,67.0,0,90,10.0,0.0
16187,67.0,120,90,11.0,0.0
16188,72.0,120,90,11.0,0.0
16189,72.0,0,480,1.0,0.0
16190,72.0,0,780,2.0,0.0
16191,76.0,0,780,2.0,0.0
16192,60.0,0,90,12.0,0.0
16193,48.0,0,480,14.0,0.0
16194,64.0,0,780,4.0,0.0
16195,60.0,0,480,13.0,0.0
16196,60.0,0,480,3.0,0.0
16197,48.0,96,480,3.0,0.0
16198,64.0,48,780,6.0,0.0
16199,60.0,0,480,5.0,0.0
16200,67.0,0,780,4.0,0.0
16201,84.0,0,480,0.0,0.0
16202,72.0,0,90,10.0,0.0
16203,76.0,0,780,6.0,0.0
16204,72.0,0,90,10.0,0.0
16205,72.0,0,90,11.0,0.0
16206,60.0,120,90,12.0,0.0
16207,55.0,0,90,12.0,0.0
16208,67.0,0,90,11.0,0.0
16209,67.0,120,90,10.0,0.0
16210,55.0,0,90,12.0,0.0
16211,67.0,0,90,11.0,0.0
16212,67.0,24,90,10.0,0.0
16213,71.0,96,90,11.0,0.0
16214,71.0,0,90,10.0,0.0
16215,59.0,0,390,13.0,0.0
16216,59.0,24,180,12.0,0.0
16217,47.0,0,390,14.0,0.0
16218,83.0,0,390,0.0,0.0
16219,47.0,0,390,3.0,0.0
16220,59.0,0,390,3.0,0.0
16221,71.0,72,390,1.0,0.0
16222,59.0,0,390,5.0,0.0
16223,71.0,72,90,11.0,0.0
16224,71.0,0,90,10.0,0.0
16225,76.0,48,90,10.0,0.0
16226,64.0,0,90,11.0,0.0
16227,64.0,120,90,11.0,0.0
16228,76.0,0,90,10.0,0.0
16229,79.0,120,90,10.0,0.0
16230,67.0,0,90,11.0,0.0
16231,79.0,0,90,10.0,0.0
16232,67.0,120,90,11.0,0.0
16233,71.0,0,90,11.0,0.0
16234,83.0,120,90,10.0,0.0
16235,83.0,0,90,10.0,0.0
16236,71.0,120,90,11.0,0.0
16237,60.0,0,480,5.0,0.0
16238,48.0,96,480,3.0,0.0
16239,64.0,0,780,4.0,0.0
16240,67.0,48,780,4.0,0.0
16241,76.0,0,780,2.0,0.0
16242,72.0,0,90,11.0,0.0
16243,60.0,0,480,3.0,0.0
16244,72.0,0,480,1.0,0.0
16245,64.0,0,780,6.0,0.0
16246,60.0,0,90,12.0,0.0
16247,76.0,0,780,6.0,0.0
16248,84.0,0,480,0.0,0.0
16249,48.0,0,480,14.0,0.0
16250,84.0,120,90,10.0,0.0
16251,72.0,0,780,2.0,0.0
16252,60.0,0,480,13.0,0.0
16253,72.0,0,90,11.0,0.0
16254,60.0,0,90,12.0,0.0
16255,84.0,120,90,10.0,0.0
16256,67.0,120,90,11.0,0.0
16257,79.0,0,90,10.0,0.0
16258,55.0,0,90,12.0,0.0
16259,67.0,0,90,11.0,0.0
16260,79.0,0,90,10.0,0.0
16261,55.0,24,90,12.0,0.0
16262,71.0,0,90,11.0,0.0
16263,59.0,72,390,5.0,0.0
16264,71.0,0,390,1.0,0.0
16265,83.0,0,390,0.0,0.0
16266,47.0,0,390,14.0,0.0
16267,83.0,96,90,10.0,0.0
16268,59.0,0,390,13.0,0.0
16269,59.0,0,390,3.0,0.0
16270,59.0,24,180,12.0,0.0
16271,47.0,0,390,3.0,0.0
16272,71.0,72,90,11.0,0.0
16273,83.0,0,90,10.0,0.0
16274,88.0,48,90,10.0,0.0
16275,76.0,0,90,11.0,0.0
16276,76.0,0,90,11.0,0.0
16277,88.0,120,90,10.0,0.0
16278,79.0,120,90,11.0,0.0
16279,91.0,0,90,10.0,0.0
16280,91.0,0,90,10.0,0.0
16281,79.0,120,90,11.0,0.0
16282,88.0,0,90,10.0,0.0
16283,76.0,120,90,11.0,0.0
16284,88.0,120,90,10.0,0.0
16285,76.0,0,90,11.0,0.0
16286,83.0,0,90,10.0,0.0
16287,71.0,120,90,11.0,0.0
16288,71.0,120,90,11.0,0.0
16289,83.0,0,90,10.0,0.0
16290,79.0,0,90,10.0,0.0
16291,67.0,120,90,11.0,0.0
16292,67.0,120,90,11.0,0.0
16293,79.0,0,90,10.0,0.0
16294,64.0,0,90,11.0,0.0
16295,76.0,120,90,10.0,0.0
16296,64.0,0,90,11.0,0.0
16297,76.0,120,90,10.0,0.0
16298,59.0,0,90,11.0,0.0
16299,71.0,120,90,10.0,0.0
16300,59.0,0,90,11.0,0.0
16301,71.0,120,90,10.0,0.0
16302,72.0,120,90,11.0,0.0
16303,64.0,0,780,4.0,0.0
16304,67.0,0,780,4.0,0.0
16305,64.0,0,780,6.0,0.0
16306,72.0,0,780,1.0,0.0
16307,36.0,0,780,14.0,0.0
16308,84.0,0,780,0.0,0.0
16309,76.0,0,780,2.0,0.0
16310,79.0,0,780,2.0,0.0
16311,60.0,0,90,12.0,0.0
16312,48.0,0,780,13.0,0.0
16313,72.0,0,780,10.0,0.0
16314,76.0,48,780,6.0,0.0
16315,36.0,0,780,3.0,0.0
16316,48.0,0,780,3.0,0.0
16317,60.0,0,780,5.0,0.0
16318,72.0,0,90,11.0,0.0
16319,60.0,120,90,12.0,0.0
16320,55.0,120,90,12.0,0.0
16321,67.0,0,90,11.0,0.0
16322,55.0,0,90,12.0,0.0
16323,67.0,120,90,11.0,0.0
16324,64.0,120,90,12.0,0.0
16325,64.0,0,90,11.0,0.0
16326,64.0,72,90,12.0,0.0
16327,64.0,0,90,11.0,0.0
16328,60.0,0,90,11.0,0.0
16329,60.0,120,90,12.0,0.0
16330,60.0,0,90,11.0,0.0
16331,60.0,120,90,12.0,0.0
16332,47.0,0,780,3.0,0.0
16333,71.0,0,780,1.0,0.0
16334,59.0,0,780,5.0,0.0
16335,79.0,0,780,2.0,0.0
16336,67.0,0,780,4.0,0.0
16337,71.0,120,90,11.0,0.0
16338,76.0,48,780,6.0,0.0
16339,64.0,0,780,6.0,0.0
16340,71.0,0,780,10.0,0.0
16341,47.0,0,780,13.0,0.0
16342,83.0,0,780,0.0,0.0
16343,76.0,0,780,2.0,0.0
16344,35.0,0,780,14.0,0.0
16345,59.0,0,90,12.0,0.0
16346,64.0,0,780,4.0,0.0
16347,35.0,0,780,3.0,0.0
16348,71.0,0,90,11.0,0.0
16349,59.0,120,90,12.0,0.0
16350,55.0,0,90,12.0,0.0
16351,67.0,120,90,11.0,0.0
16352,55.0,120,90,12.0,0.0
16353,67.0,0,90,11.0,0.0
16354,64.0,0,90,12.0,0.0
16355,64.0,120,90,11.0,0.0
16356,64.0,0,90,12.0,0.0
16357,64.0,72,90,11.0,0.0
16358,59.0,120,90,12.0,0.0
16359,59.0,0,90,11.0,0.0
16360,59.0,0,90,11.0,0.0
16361,59.0,120,90,12.0,0.0
16362,69.0,0,780,2.0,0.0
16363,91.0,48,720,10.0,0.0
16364,63.0,0,780,5.0,0.0
16365,79.0,0,720,1.0,0.0
16366,59.0,0,780,6.0,0.0
16367,71.0,0,780,6.0,0.0
16368,47.0,0,780,14.0,0.0
16369,57.0,0,90,12.0,0.0
16370,59.0,0,780,4.0,0.0
16371,91.0,0,720,0.0,0.0
16372,87.0,0,900,0.0,0.0
16373,69.0,0,780,4.0,0.0
16374,59.0,48,780,13.0,0.0
16375,75.0,24,900,1.0,0.0
16376,75.0,0,780,2.0,0.0
16377,63.0,120,90,12.0,0.0
16378,59.0,0,780,3.0,0.0
16379,69.0,0,900,11.0,0.0
16380,47.0,0,780,3.0,0.0
16381,79.0,0,720,11.0,0.0
16382,63.0,0,90,12.0,0.0
16383,57.0,120,90,12.0,0.0
16384,63.0,0,90,12.0,0.0
16385,57.0,120,90,12.0,0.0
16386,63.0,120,90,12.0,0.0
16387,57.0,0,90,12.0,0.0
16388,63.0,0,90,12.0,0.0
16389,57.0,120,90,12.0,0.0
16390,63.0,24,90,12.0,0.0
16391,57.0,0,90,12.0,0.0
16392,63.0,96,90,12.0,0.0
16393,57.0,0,90,12.0,0.0
16394,90.0,0,180,10.0,0.0
16395,78.0,0,180,11.0,0.0
16396,90.0,0,180,0.0,0.0
16397,78.0,0,180,1.0,0.0
16398,63.0,216,90,12.0,0.0
16399,57.0,0,90,12.0,0.0
16400,64.0,0,180,12.0,0.0
16401,64.0,0,180,5.0,0.0
16402,88.0,0,180,10.0,0.0
16403,67.0,0,180,11.0,0.0
16404,67.0,0,180,4.0,0.0
16405,64.0,0,180,4.0,0.0
16406,64.0,0,180,6.0,0.0
16407,52.0,0,180,13.0,0.0
16408,55.0,0,180,12.0,0.0
16409,40.0,0,180,14.0,0.0
16410,88.0,0,180,0.0,0.0
16411,52.0,0,180,3.0,0.0
16412,71.0,0,180,11.0,0.0
16413,76.0,0,180,1.0,0.0
16414,67.0,0,180,2.0,0.0
16415,76.0,0,180,2.0,0.0
16416,40.0,144,180,3.0,0.0
16417,59.0,0,90,10.0,0.0
16418,59.0,120,90,11.0,0.0
16419,59.0,0,90,11.0,0.0
16420,59.0,120,90,10.0,0.0
16421,64.0,120,90,11.0,0.0
16422,64.0,0,90,10.0,0.0
16423,64.0,0,90,10.0,0.0
16424,64.0,120,90,11.0,0.0
16425,67.0,0,90,10.0,0.0
16426,67.0,120,90,11.0,0.0
16427,67.0,120,90,11.0,0.0
16428,67.0,0,90,10.0,0.0
16429,60.0,0,480,5.0,0.0
16430,84.0,96,480,0.0,0.0
16431,67.0,0,780,6.0,0.0
16432,79.0,0,780,2.0,0.0
16433,67.0,0,780,2.0,0.0
16434,60.0,120,90,12.0,0.0
16435,51.0,0,480,3.0,0.0
16436,39.0,0,480,14.0,0.0
16437,51.0,0,480,13.0,0.0
16438,39.0,0,480,3.0,0.0
16439,72.0,0,480,1.0,0.0
16440,72.0,0,90,11.0,0.0
16441,55.0,0,780,4.0,0.0
16442,72.0,0,90,10.0,0.0
16443,67.0,48,780,4.0,0.0
16444,72.0,0,90,11.0,0.0
16445,60.0,120,90,12.0,0.0
16446,72.0,0,90,10.0,0.0
16447,67.0,0,90,10.0,0.0
16448,67.0,0,90,11.0,0.0
16449,55.0,120,90,12.0,0.0
16450,55.0,0,90,12.0,0.0
16451,67.0,0,90,10.0,0.0
16452,67.0,24,90,11.0,0.0
16453,71.0,0,90,10.0,0.0
16454,38.0,0,390,14.0,0.0
16455,71.0,96,90,11.0,0.0
16456,71.0,0,390,1.0,0.0
16457,50.0,72,390,13.0,0.0
16458,38.0,0,390,3.0,0.0
16459,59.0,0,390,5.0,0.0
16460,50.0,0,390,3.0,0.0
16461,59.0,24,180,12.0,0.0
16462,83.0,0,390,0.0,0.0
16463,71.0,0,90,10.0,0.0
16464,71.0,72,90,11.0,0.0
16465,62.0,0,90,11.0,0.0
16466,74.0,48,90,10.0,0.0
16467,74.0,120,90,10.0,0.0
16468,62.0,0,90,11.0,0.0
16469,67.0,120,90,11.0,0.0
16470,79.0,0,90,10.0,0.0
16471,79.0,120,90,10.0,0.0
16472,67.0,0,90,11.0,0.0
16473,83.0,0,90,10.0,0.0
16474,71.0,120,90,11.0,0.0
16475,71.0,0,90,11.0,0.0
16476,83.0,120,90,10.0,0.0
16477,48.0,0,480,13.0,0.0
16478,72.0,0,480,1.0,0.0
16479,84.0,0,480,0.0,0.0
16480,36.0,0,480,14.0,0.0
16481,75.0,96,480,2.0,0.0
16482,60.0,0,480,5.0,0.0
16483,55.0,48,780,4.0,0.0
16484,67.0,0,780,4.0,0.0
16485,84.0,0,90,10.0,0.0
16486,79.0,0,870,2.0,0.0
16487,36.0,0,480,3.0,0.0
16488,48.0,0,480,3.0,0.0
16489,63.0,120,90,12.0,0.0
16490,79.0,0,780,6.0,0.0
16491,67.0,0,780,6.0,0.0
16492,72.0,0,90,11.0,0.0
16493,63.0,0,480,5.0,0.0
16494,72.0,0,90,11.0,0.0
16495,63.0,0,90,12.0,0.0
16496,84.0,120,90,10.0,0.0
16497,55.0,0,90,12.0,0.0
16498,67.0,120,90,11.0,0.0
16499,79.0,0,90,10.0,0.0
16500,79.0,0,90,10.0,0.0
16501,55.0,24,90,12.0,0.0
16502,67.0,0,90,11.0,0.0
16503,55.0,0,390,3.0,0.0
16504,62.0,0,390,5.0,0.0
16505,71.0,96,90,11.0,0.0
16506,83.0,0,90,10.0,0.0
16507,83.0,0,390,0.0,0.0
16508,71.0,0,390,1.0,0.0
16509,59.0,0,390,5.0,0.0
16510,74.0,0,390,2.0,0.0
16511,43.0,0,390,3.0,0.0
16512,43.0,72,390,13.0,0.0
16513,31.0,0,390,14.0,0.0
16514,62.0,24,180,12.0,0.0
16515,83.0,72,90,10.0,0.0
16516,71.0,0,90,11.0,0.0
16517,74.0,48,90,11.0,0.0
16518,86.0,0,90,10.0,0.0
16519,74.0,120,90,11.0,0.0
16520,86.0,0,90,10.0,0.0
16521,91.0,0,90,10.0,0.0
16522,79.0,120,90,11.0,0.0
16523,91.0,0,90,10.0,0.0
16524,79.0,120,90,11.0,0.0
16525,86.0,0,90,10.0,0.0
16526,74.0,120,90,11.0,0.0
16527,74.0,120,90,11.0,0.0
16528,86.0,0,90,10.0,0.0
16529,71.0,120,90,11.0,0.0
16530,83.0,0,90,10.0,0.0
16531,71.0,0,90,11.0,0.0
16532,83.0,120,90,10.0,0.0
16533,67.0,0,90,11.0,0.0
16534,79.0,120,90,10.0,0.0
16535,79.0,120,90,10.0,0.0
16536,67.0,0,90,11.0,0.0
16537,62.0,0,90,11.0,0.0
16538,74.0,120,90,10.0,0.0
16539,62.0,0,90,11.0,0.0
16540,74.0,120,90,10.0,0.0
16541,59.0,120,90,11.0,0.0
16542,71.0,0,90,10.0,0.0
16543,71.0,0,90,10.0,0.0
16544,59.0,120,90,11.0,0.0
16545,84.0,0,780,1.0,0.0
16546,67.0,0,780,4.0,0.0
16547,79.0,0,780,1.0,0.0
16548,60.0,120,90,12.0,0.0
16549,72.0,0,90,11.0,0.0
16550,79.0,0,780,2.0,0.0
16551,79.0,72,870,0.0,0.0
16552,84.0,0,870,0.0,0.0
16553,60.0,0,780,5.0,0.0
16554,72.0,0,870,10.0,0.0
16555,67.0,0,870,10.0,0.0
16556,51.0,0,780,13.0,0.0
16557,39.0,0,780,3.0,0.0
16558,51.0,48,780,3.0,0.0
16559,72.0,0,780,2.0,0.0
16560,39.0,0,780,14.0,0.0
16561,72.0,0,90,11.0,0.0
16562,60.0,120,90,12.0,0.0
16563,67.0,0,90,11.0,0.0
16564,55.0,120,90,12.0,0.0
16565,67.0,120,90,11.0,0.0
16566,55.0,0,90,12.0,0.0
16567,63.0,0,90,11.0,0.0
16568,63.0,120,90,12.0,0.0
16569,63.0,0,90,12.0,0.0
16570,63.0,72,90,11.0,0.0
16571,60.0,48,90,12.0,0.0
16572,60.0,0,90,11.0,0.0
16573,60.0,0,90,12.0,0.0
16574,60.0,120,90,11.0,0.0
16575,83.0,0,870,0.0,0.0
16576,59.0,0,780,5.0,0.0
16577,67.0,72,870,10.0,0.0
16578,71.0,0,870,10.0,0.0
16579,71.0,0,90,11.0,0.0
16580,59.0,120,90,12.0,0.0
16581,50.0,48,780,13.0,0.0
16582,79.0,0,870,0.0,0.0
16583,38.0,0,780,14.0,0.0
16584,79.0,0,870,1.0,0.0
16585,83.0,0,870,1.0,0.0
16586,38.0,0,780,3.0,0.0
16587,50.0,0,780,3.0,0.0
16588,71.0,0,780,2.0,0.0
16589,79.0,0,780,2.0,0.0
16590,67.0,0,780,4.0,0.0
16591,71.0,120,90,11.0,0.0
16592,59.0,0,90,12.0,0.0
16593,67.0,120,90,11.0,0.0
16594,55.0,0,90,12.0,0.0
16595,55.0,120,90,12.0,0.0
16596,67.0,0,90,11.0,0.0
16597,62.0,0,90,12.0,0.0
16598,62.0,120,90,11.0,0.0
16599,62.0,0,90,12.0,0.0
16600,62.0,72,90,11.0,0.0
16601,59.0,48,90,12.0,0.0
16602,59.0,0,90,11.0,0.0
16603,59.0,120,90,11.0,0.0
16604,59.0,0,90,12.0,0.0
16605,82.0,0,870,1.0,0.0
16606,82.0,0,870,0.0,0.0
16607,58.0,0,780,5.0,0.0
16608,78.0,72,870,0.0,0.0
16609,70.0,120,90,11.0,0.0
16610,78.0,0,870,1.0,0.0
16611,37.0,0,780,14.0,0.0
16612,58.0,0,90,12.0,0.0
16613,37.0,0,780,3.0,0.0
16614,49.0,0,780,3.0,0.0
16615,66.0,0,780,4.0,0.0
16616,66.0,0,870,10.0,0.0
16617,70.0,0,870,10.0,0.0
16618,78.0,48,780,2.0,0.0
16619,70.0,0,780,2.0,0.0
16620,49.0,0,780,13.0,0.0
16621,58.0,120,90,12.0,0.0
16622,70.0,0,90,11.0,0.0
16623,66.0,120,90,11.0,0.0
16624,54.0,0,90,12.0,0.0
16625,66.0,0,90,11.0,0.0
16626,54.0,120,90,12.0,0.0
16627,61.0,120,90,12.0,0.0
16628,61.0,0,90,11.0,0.0
16629,61.0,72,90,12.0,0.0
16630,61.0,0,90,11.0,0.0
16631,58.0,48,90,12.0,0.0
16632,58.0,0,90,11.0,0.0
16633,58.0,0,90,12.0,0.0
16634,58.0,120,90,11.0,0.0
16635,81.0,0,870,0.0,0.0
16636,57.0,48,780,5.0,0.0
16637,81.0,0,870,1.0,0.0
16638,57.0,120,90,12.0,0.0
16639,66.0,72,870,10.0,0.0
16640,69.0,0,870,10.0,0.0
16641,54.0,0,870,13.0,0.0
16642,61.0,0,90,12.0,0.0
16643,73.0,0,870,2.0,0.0
16644,69.0,0,870,2.0,0.0
16645,42.0,0,870,3.0,0.0
16646,54.0,0,870,3.0,0.0
16647,66.0,0,780,4.0,0.0
16648,78.0,0,870,0.0,0.0
16649,73.0,0,870,1.0,0.0
16650,69.0,0,90,11.0,0.0
16651,42.0,0,870,14.0,0.0
16652,61.0,0,90,12.0,0.0
16653,69.0,0,90,11.0,0.0
16654,57.0,120,90,12.0,0.0
16655,66.0,0,90,11.0,0.0
16656,61.0,0,90,12.0,0.0
16657,57.0,120,90,12.0,0.0
16658,66.0,0,90,11.0,0.0
16659,61.0,0,90,12.0,0.0
16660,57.0,120,90,12.0,0.0
16661,57.0,0,90,12.0,0.0
16662,61.0,0,90,11.0,0.0
16663,61.0,120,90,12.0,0.0
16664,61.0,0,90,11.0,0.0
16665,57.0,0,90,12.0,0.0
16666,61.0,72,90,12.0,0.0
16667,61.0,0,90,12.0,0.0
16668,57.0,0,90,12.0,0.0
16669,57.0,48,90,11.0,0.0
16670,61.0,120,90,12.0,0.0
16671,57.0,0,90,12.0,0.0
16672,57.0,0,90,11.0,0.0
16673,57.0,0,780,5.0,0.0
16674,35.0,0,870,14.0,0.0
16675,47.0,0,870,13.0,0.0
16676,71.0,0,870,6.0,0.0
16677,91.0,0,720,0.0,0.0
16678,81.0,120,930,0.0,0.0
16679,59.0,0,870,6.0,0.0
16680,79.0,0,720,1.0,0.0
16681,69.0,0,870,2.0,0.0
16682,75.0,0,870,2.0,0.0
16683,69.0,0,900,11.0,0.0
16684,79.0,48,720,11.0,0.0
16685,59.0,0,780,4.0,0.0
16686,57.0,0,90,12.0,0.0
16687,47.0,48,780,4.0,0.0
16688,91.0,0,720,10.0,0.0
16689,35.0,48,870,3.0,0.0
16690,47.0,0,870,3.0,0.0
16691,47.0,120,90,7.0,0.0
16692,63.0,0,90,12.0,0.0
16693,75.0,0,930,1.0,0.0
16694,63.0,0,780,5.0,0.0
16695,63.0,0,90,12.0,0.0
16696,57.0,120,90,12.0,0.0
16697,47.0,0,90,7.0,0.0
16698,57.0,0,90,12.0,0.0
16699,47.0,0,90,7.0,0.0
16700,63.0,120,90,12.0,0.0
16701,47.0,0,90,7.0,0.0
16702,57.0,0,90,12.0,0.0
16703,63.0,120,90,12.0,0.0
16704,47.0,120,90,7.0,0.0
16705,57.0,0,90,12.0,0.0
16706,63.0,0,90,12.0,0.0
16707,47.0,24,90,7.0,0.0
16708,63.0,0,90,12.0,0.0
16709,57.0,0,90,12.0,0.0
16710,57.0,0,90,12.0,0.0
16711,63.0,48,90,12.0,0.0
16712,78.0,0,210,1.0,0.0
16713,90.0,0,210,10.0,0.0
16714,47.0,0,90,7.0,0.0
16715,90.0,0,210,0.0,0.0
16716,78.0,24,180,11.0,0.0
16717,47.0,0,90,7.0,0.0
16718,63.0,0,90,12.0,0.0
16719,57.0,0,90,12.0,0.0
16720,54.0,0,720,3.0,0.0
16721,55.0,120,90,12.0,0.0
16722,59.0,0,90,12.0,0.0
16723,66.0,0,720,4.0,0.0
16724,67.0,0,870,11.0,0.0
16725,71.0,48,870,11.0,0.0
16726,83.0,0,870,10.0,0.0
16727,71.0,0,870,2.0,0.0
16728,79.0,0,870,1.0,0.0
16729,67.0,0,870,2.0,0.0
16730,55.0,0,780,5.0,0.0
16731,83.0,0,870,0.0,0.0
16732,54.0,48,720,13.0,0.0
16733,79.0,0,870,0.0,0.0
16734,42.0,0,720,14.0,0.0
16735,59.0,0,870,6.0,0.0
16736,71.0,0,870,6.0,0.0
16737,47.0,72,390,7.0,0.0
16738,71.0,0,870,1.0,0.0
16739,59.0,48,780,5.0,0.0
16740,42.0,48,660,3.0,0.0
16741,55.0,0,90,12.0,0.0
16742,59.0,120,90,12.0,0.0
16743,55.0,48,90,12.0,0.0
16744,59.0,0,90,12.0,0.0
16745,55.0,120,90,12.0,0.0
16746,59.0,0,90,12.0,0.0
16747,55.0,0,90,12.0,0.0
16748,59.0,72,90,12.0,0.0
16749,59.0,24,90,12.0,0.0
16750,55.0,0,90,12.0,0.0
16751,52.0,0,210,13.0,0.0
16752,40.0,120,210,14.0,0.0
16753,40.0,0,210,3.0,0.0
16754,52.0,0,210,3.0,0.0
16755,64.0,0,180,4.0,0.0
16756,59.0,48,90,12.0,0.0
16757,55.0,0,90,12.0,0.0
16758,59.0,0,90,12.0,0.0
16759,55.0,0,90,12.0,0.0
16760,35.0,0,870,14.0,0.0
16761,91.0,0,720,0.0,0.0
16762,63.0,0,780,5.0,0.0
16763,47.0,0,870,13.0,0.0
16764,57.0,48,780,5.0,0.0
16765,91.0,0,720,10.0,0.0
16766,47.0,0,90,7.0,0.0
16767,59.0,0,870,6.0,0.0
16768,71.0,0,870,6.0,0.0
16769,79.0,48,720,1.0,0.0
16770,75.0,0,870,2.0,0.0
16771,75.0,0,930,1.0,0.0
16772,63.0,0,90,12.0,0.0
16773,57.0,120,90,12.0,0.0
16774,47.0,0,780,4.0,0.0
16775,59.0,0,780,4.0,0.0
16776,69.0,0,930,11.0,0.0
16777,47.0,0,870,3.0,0.0
16778,35.0,0,870,3.0,0.0
16779,79.0,0,720,11.0,0.0
16780,81.0,0,930,0.0,0.0
16781,69.0,72,870,2.0,0.0
16782,47.0,120,90,7.0,0.0
16783,57.0,0,90,12.0,0.0
16784,63.0,0,90,12.0,0.0
16785,47.0,120,90,7.0,0.0
16786,63.0,0,90,12.0,0.0
16787,57.0,0,90,12.0,0.0
16788,47.0,0,90,7.0,0.0
16789,63.0,120,90,12.0,0.0
16790,57.0,0,90,12.0,0.0
16791,47.0,0,90,7.0,0.0
16792,63.0,120,90,12.0,0.0
16793,57.0,0,90,12.0,0.0
16794,47.0,0,90,7.0,0.0
16795,57.0,0,90,12.0,0.0
16796,63.0,24,90,12.0,0.0
16797,78.0,0,210,11.0,0.0
16798,90.0,0,210,10.0,0.0
16799,90.0,0,210,0.0,0.0
16800,63.0,48,90,12.0,0.0
16801,57.0,0,90,12.0,0.0
16802,47.0,0,90,7.0,0.0
16803,78.0,0,210,1.0,0.0
16804,57.0,0,90,12.0,0.0
16805,63.0,0,90,12.0,0.0
16806,47.0,120,90,7.0,0.0
16807,71.0,0,870,2.0,0.0
16808,42.0,48,660,3.0,0.0
16809,45.0,0,720,14.0,0.0
16810,47.0,72,390,7.0,0.0
16811,83.0,0,870,10.0,0.0
16812,76.0,0,870,1.0,0.0
16813,83.0,0,870,1.0,0.0
16814,64.0,48,780,5.0,0.0
16815,59.0,0,780,5.0,0.0
16816,69.0,0,720,4.0,0.0
16817,67.0,48,870,11.0,0.0
16818,76.0,0,870,2.0,0.0
16819,71.0,0,870,11.0,0.0
16820,57.0,0,720,13.0,0.0
16821,57.0,0,720,3.0,0.0
16822,83.0,0,870,0.0,0.0
16823,59.0,0,870,6.0,0.0
16824,71.0,0,870,6.0,0.0
16825,59.0,120,90,12.0,0.0
16826,64.0,0,90,12.0,0.0
16827,64.0,0,90,12.0,0.0
16828,59.0,120,90,12.0,0.0
16829,64.0,48,90,12.0,0.0
16830,59.0,0,90,12.0,0.0
16831,59.0,120,90,12.0,0.0
16832,64.0,0,90,12.0,0.0
16833,64.0,72,90,12.0,0.0
16834,59.0,0,90,12.0,0.0
16835,64.0,0,90,12.0,0.0
16836,59.0,24,90,12.0,0.0
16837,55.0,0,210,3.0,0.0
16838,40.0,0,210,3.0,0.0
16839,59.0,48,90,12.0,0.0
16840,55.0,0,210,13.0,0.0
16841,67.0,0,180,4.0,0.0
16842,43.0,0,210,14.0,0.0
16843,64.0,0,90,12.0,0.0
16844,59.0,0,90,12.0,0.0
16845,64.0,120,90,12.0,0.0
16846,79.0,0,720,1.0,0.0
16847,75.0,0,930,1.0,0.0
16848,91.0,48,720,0.0,0.0
16849,87.0,0,930,0.0,0.0
16850,59.0,72,870,6.0,0.0
16851,69.0,0,90,12.0,0.0
16852,75.0,0,870,2.0,0.0
16853,63.0,120,90,12.0,0.0
16854,71.0,0,870,6.0,0.0
16855,47.0,0,870,3.0,0.0
16856,35.0,0,870,3.0,0.0
16857,59.0,0,780,4.0,0.0
16858,47.0,0,780,4.0,0.0
16859,63.0,48,780,5.0,0.0
16860,57.0,0,780,5.0,0.0
16861,69.0,0,870,2.0,0.0
16862,47.0,0,90,7.0,0.0
16863,35.0,0,870,14.0,0.0
16864,47.0,0,870,13.0,0.0
16865,69.0,48,660,11.0,0.0
16866,79.0,0,720,11.0,0.0
16867,91.0,0,90,10.0,0.0
16868,63.0,0,90,12.0,0.0
16869,69.0,0,90,12.0,0.0
16870,91.0,120,90,10.0,0.0
16871,47.0,0,90,7.0,0.0
16872,91.0,0,90,10.0,0.0
16873,63.0,120,90,12.0,0.0
16874,69.0,0,90,12.0,0.0
16875,47.0,0,90,7.0,0.0
16876,69.0,0,90,12.0,0.0
16877,91.0,0,90,10.0,0.0
16878,47.0,0,90,7.0,0.0
16879,63.0,120,90,12.0,0.0
16880,91.0,0,90,10.0,0.0
16881,63.0,0,90,12.0,0.0
16882,69.0,72,90,12.0,0.0
16883,47.0,0,90,7.0,0.0
16884,47.0,0,90,7.0,0.0
16885,91.0,0,90,10.0,0.0
16886,63.0,24,90,12.0,0.0
16887,69.0,0,90,12.0,0.0
16888,69.0,48,90,12.0,0.0
16889,47.0,0,90,7.0,0.0
16890,90.0,0,90,10.0,0.0
16891,63.0,0,90,12.0,0.0
16892,90.0,120,210,0.0,0.0
16893,78.0,0,210,11.0,0.0
16894,78.0,0,210,1.0,0.0
16895,69.0,0,90,12.0,0.0
16896,90.0,0,90,10.0,0.0
16897,63.0,0,90,12.0,0.0
16898,47.0,0,90,7.0,0.0
16899,60.0,0,720,5.0,0.0
16900,76.0,24,900,2.0,0.0
16901,64.0,0,90,12.0,0.0
16902,48.0,0,660,3.0,0.0
16903,52.0,0,90,7.0,0.0
16904,76.0,0,90,12.0,0.0
16905,60.0,48,720,13.0,0.0
16906,52.0,48,780,4.0,0.0
16907,64.0,0,900,5.0,0.0
16908,76.0,48,660,11.0,0.0
16909,81.0,0,720,11.0,0.0
16910,64.0,0,780,4.0,0.0
16911,93.0,120,90,10.0,0.0
16912,69.0,0,720,2.0,0.0
16913,81.0,0,720,1.0,0.0
16914,60.0,0,720,3.0,0.0
16915,76.0,48,870,6.0,0.0
16916,64.0,0,870,6.0,0.0
16917,88.0,0,900,0.0,0.0
16918,48.0,0,720,14.0,0.0
16919,93.0,0,720,0.0,0.0
16920,76.0,0,900,1.0,0.0
16921,93.0,0,90,10.0,0.0
16922,76.0,0,90,12.0,0.0
16923,64.0,0,90,12.0,0.0
16924,52.0,120,90,7.0,0.0
16925,64.0,0,90,12.0,0.0
16926,93.0,120,90,10.0,0.0
16927,76.0,0,90,12.0,0.0
16928,52.0,0,90,7.0,0.0
16929,93.0,0,90,10.0,0.0
16930,64.0,120,90,12.0,0.0
16931,76.0,0,90,12.0,0.0
16932,52.0,0,90,7.0,0.0
16933,93.0,0,90,10.0,0.0
16934,52.0,0,90,7.0,0.0
16935,76.0,0,90,12.0,0.0
16936,64.0,72,90,12.0,0.0
16937,64.0,24,90,12.0,0.0
16938,76.0,0,90,12.0,0.0
16939,52.0,0,90,7.0,0.0
16940,93.0,0,90,10.0,0.0
16941,79.0,0,180,1.0,0.0
16942,59.0,0,210,13.0,0.0
16943,59.0,0,180,5.0,0.0
16944,47.0,0,210,3.0,0.0
16945,59.0,0,210,3.0,0.0
16946,64.0,0,90,12.0,0.0
16947,76.0,0,90,12.0,0.0
16948,47.0,0,210,14.0,0.0
16949,79.0,0,210,11.0,0.0
16950,67.0,0,180,2.0,0.0
16951,91.0,0,180,0.0,0.0
16952,91.0,48,90,10.0,0.0
16953,52.0,0,90,7.0,0.0
16954,64.0,0,90,12.0,0.0
16955,52.0,0,90,7.0,0.0
16956,91.0,120,90,10.0,0.0
16957,76.0,0,90,12.0,0.0
16958,54.0,48,660,3.0,0.0
16959,52.0,0,90,7.0,0.0
16960,62.0,0,720,13.0,0.0
16961,76.0,0,660,11.0,0.0
16962,83.0,0,720,11.0,0.0
16963,88.0,0,900,0.0,0.0
16964,95.0,0,720,0.0,0.0
16965,62.0,0,720,3.0,0.0
16966,95.0,120,90,10.0,0.0
16967,64.0,48,780,4.0,0.0
16968,52.0,0,780,4.0,0.0
16969,76.0,24,900,1.0,0.0
16970,64.0,48,870,6.0,0.0
16971,64.0,0,90,12.0,0.0
16972,76.0,0,90,12.0,0.0
16973,64.0,0,900,5.0,0.0
16974,62.0,48,720,5.0,0.0
16975,83.0,0,720,1.0,0.0
16976,76.0,0,870,6.0,0.0
16977,76.0,0,900,2.0,0.0
16978,50.0,0,720,14.0,0.0
16979,71.0,0,720,2.0,0.0
16980,76.0,0,90,12.0,0.0
16981,95.0,0,90,10.0,0.0
16982,52.0,0,90,7.0,0.0
16983,64.0,120,90,12.0,0.0
16984,95.0,0,90,10.0,0.0
16985,76.0,0,90,12.0,0.0
16986,64.0,120,90,12.0,0.0
16987,52.0,0,90,7.0,0.0
16988,52.0,0,90,7.0,0.0
16989,95.0,120,90,10.0,0.0
16990,76.0,0,90,12.0,0.0
16991,64.0,0,90,12.0,0.0
16992,64.0,72,90,12.0,0.0
16993,52.0,0,90,7.0,0.0
16994,76.0,0,90,12.0,0.0
16995,95.0,0,90,10.0,0.0
16996,76.0,0,90,12.0,0.0
16997,52.0,24,90,7.0,0.0
16998,95.0,0,90,10.0,0.0
16999,64.0,0,90,12.0,0.0
17000,93.0,0,90,10.0,0.0
17001,76.0,48,90,12.0,0.0
17002,64.0,0,90,12.0,0.0
17003,60.0,0,210,3.0,0.0
17004,60.0,0,210,13.0,0.0
17005,81.0,0,180,1.0,0.0
17006,69.0,0,180,2.0,0.0
17007,60.0,0,180,5.0,0.0
17008,81.0,0,210,11.0,0.0
17009,48.0,0,210,3.0,0.0
17010,93.0,0,180,0.0,0.0
17011,52.0,0,90,7.0,0.0
17012,48.0,0,210,14.0,0.0
17013,52.0,120,90,7.0,0.0
17014,76.0,0,90,12.0,0.0
17015,93.0,0,90,10.0,0.0
17016,64.0,0,90,12.0,0.0
17017,76.0,0,1740,1.0,0.0
17018,78.0,120,90,12.0,0.0
17019,76.0,0,90,12.0,0.0
17020,69.0,0,90,12.0,0.0
17021,57.0,0,870,13.0,0.0
17022,45.0,0,870,14.0,0.0
17023,52.0,0,90,7.0,0.0
17024,45.0,0,870,3.0,0.0
17025,84.0,0,1740,11.0,0.0
17026,78.0,0,1740,6.0,0.0
17027,57.0,72,870,3.0,0.0
17028,69.0,0,1740,2.0,0.0
17029,96.0,0,90,10.0,0.0
17030,96.0,0,1740,0.0,0.0
17031,88.0,0,1740,0.0,0.0
17032,64.0,0,1740,5.0,0.0
17033,60.0,0,1740,5.0,0.0
17034,66.0,48,1740,4.0,0.0
17035,84.0,0,1740,1.0,0.0
17036,69.0,0,1740,11.0,0.0
17037,76.0,0,1740,6.0,0.0
17038,76.0,0,1740,2.0,0.0
17039,64.0,0,1740,4.0,0.0
17040,52.0,120,90,7.0,0.0
17041,69.0,0,90,12.0,0.0
17042,96.0,0,90,10.0,0.0
17043,78.0,0,90,12.0,0.0
17044,76.0,0,90,12.0,0.0
17045,78.0,0,90,12.0,0.0
17046,76.0,120,90,12.0,0.0
17047,96.0,0,90,10.0,0.0
17048,52.0,0,90,7.0,0.0
17049,69.0,0,90,12.0,0.0
17050,76.0,0,90,12.0,0.0
17051,69.0,0,90,12.0,0.0
17052,78.0,120,90,12.0,0.0
17053,52.0,0,90,7.0,0.0
17054,96.0,0,90,10.0,0.0
17055,78.0,120,90,12.0,0.0
17056,76.0,0,90,12.0,0.0
17057,69.0,0,90,12.0,0.0
17058,52.0,0,90,7.0,0.0
17059,96.0,0,90,10.0,0.0
17060,52.0,0,90,7.0,0.0
17061,78.0,0,90,12.0,0.0
17062,96.0,0,90,10.0,0.0
17063,76.0,120,90,12.0,0.0
17064,69.0,0,90,12.0,0.0
17065,52.0,48,90,7.0,0.0
17066,69.0,0,90,12.0,0.0
17067,78.0,0,90,12.0,0.0
17068,76.0,0,90,12.0,0.0
17069,96.0,0,90,10.0,0.0
17070,69.0,0,90,12.0,0.0
17071,76.0,120,90,12.0,0.0
17072,78.0,0,90,12.0,0.0
17073,52.0,0,90,7.0,0.0
17074,96.0,0,90,10.0,0.0
17075,96.0,0,90,10.0,0.0
17076,54.0,0,870,13.0,0.0
17077,52.0,0,90,7.0,0.0
17078,42.0,72,870,3.0,0.0
17079,42.0,0,870,14.0,0.0
17080,78.0,120,90,12.0,0.0
17081,76.0,0,90,12.0,0.0
17082,69.0,0,90,12.0,0.0
17083,54.0,0,870,3.0,0.0
17084,69.0,120,90,12.0,0.0
17085,96.0,0,90,10.0,0.0
17086,76.0,0,90,12.0,0.0
17087,52.0,0,90,7.0,0.0
17088,78.0,0,90,12.0,0.0
17089,52.0,0,90,7.0,0.0
17090,96.0,120,90,10.0,0.0
17091,78.0,0,90,12.0,0.0
17092,69.0,0,90,12.0,0.0
17093,76.0,0,90,12.0,0.0
17094,69.0,0,90,12.0,0.0
17095,78.0,0,90,12.0,0.0
17096,76.0,120,90,12.0,0.0
17097,52.0,0,90,7.0,0.0
17098,96.0,0,90,10.0,0.0
17099,76.0,0,90,12.0,0.0
17100,69.0,0,90,12.0,0.0
17101,78.0,0,90,12.0,0.0
17102,52.0,120,90,7.0,0.0
17103,96.0,0,90,10.0,0.0
17104,76.0,0,90,12.0,0.0
17105,69.0,0,90,12.0,0.0
17106,78.0,0,90,12.0,0.0
17107,52.0,0,90,7.0,0.0
17108,96.0,72,90,10.0,0.0
17109,78.0,0,90,12.0,0.0
17110,52.0,48,90,7.0,0.0
17111,76.0,0,90,12.0,0.0
17112,69.0,0,90,12.0,0.0
17113,96.0,0,90,10.0,0.0
17114,96.0,0,90,10.0,0.0
17115,76.0,0,90,12.0,0.0
17116,78.0,120,90,12.0,0.0
17117,52.0,0,90,7.0,0.0
17118,69.0,0,90,12.0,0.0
17119,87.0,0,90,10.0,0.0
17120,69.0,0,1740,2.0,0.0
17121,75.0,0,1740,1.0,0.0
17122,87.0,48,1740,0.0,0.0
17123,47.0,72,870,14.0,0.0
17124,78.0,0,1740,2.0,0.0
17125,87.0,0,1740,11.0,0.0
17126,78.0,0,1740,11.0,0.0
17127,59.0,0,870,13.0,0.0
17128,66.0,0,1740,4.0,0.0
17129,59.0,0,1740,4.0,0.0
17130,81.0,0,1740,1.0,0.0
17131,47.0,0,90,7.0,0.0
17132,57.0,0,1740,5.0,0.0
17133,71.0,0,1740,6.0,0.0
17134,75.0,0,90,12.0,0.0
17135,78.0,0,90,12.0,0.0
17136,69.0,120,90,12.0,0.0
17137,93.0,0,1740,0.0,0.0
17138,66.0,0,90,12.0,0.0
17139,78.0,0,1740,6.0,0.0
17140,59.0,0,870,3.0,0.0
17141,47.0,0,870,3.0,0.0
17142,63.0,0,1740,5.0,0.0
17143,87.0,120,90,10.0,0.0
17144,47.0,0,90,7.0,0.0
17145,66.0,0,90,12.0,0.0
17146,78.0,0,90,12.0,0.0
17147,69.0,0,90,12.0,0.0
17148,75.0,0,90,12.0,0.0
17149,69.0,0,90,12.0,0.0
17150,87.0,120,90,10.0,0.0
17151,66.0,0,90,12.0,0.0
17152,75.0,0,90,12.0,0.0
17153,47.0,0,90,7.0,0.0
17154,78.0,0,90,12.0,0.0
17155,75.0,0,90,12.0,0.0
17156,47.0,0,90,7.0,0.0
17157,66.0,120,90,12.0,0.0
17158,87.0,0,90,10.0,0.0
17159,78.0,0,90,12.0,0.0
17160,69.0,0,90,12.0,0.0
17161,87.0,120,90,10.0,0.0
17162,78.0,0,90,12.0,0.0
17163,69.0,0,90,12.0,0.0
17164,75.0,0,90,12.0,0.0
17165,66.0,0,90,12.0,0.0
17166,47.0,0,90,7.0,0.0
17167,87.0,0,90,10.0,0.0
17168,75.0,0,90,12.0,0.0
17169,47.0,0,90,7.0,0.0
17170,66.0,120,90,12.0,0.0
17171,69.0,0,90,12.0,0.0
17172,78.0,0,90,12.0,0.0
17173,66.0,48,90,12.0,0.0
17174,78.0,0,90,12.0,0.0
17175,47.0,0,90,7.0,0.0
17176,69.0,0,90,12.0,0.0
17177,75.0,0,90,12.0,0.0
17178,87.0,0,90,10.0,0.0
17179,87.0,0,90,10.0,0.0
17180,66.0,0,90,12.0,0.0
17181,78.0,0,90,12.0,0.0
17182,69.0,0,90,12.0,0.0
17183,75.0,120,90,12.0,0.0
17184,47.0,0,90,7.0,0.0
17185,66.0,0,90,12.0,0.0
17186,69.0,0,90,12.0,0.0
17187,47.0,0,870,3.0,0.0
17188,35.0,72,870,14.0,0.0
17189,75.0,0,90,12.0,0.0
17190,47.0,0,90,7.0,0.0
17191,78.0,0,90,12.0,0.0
17192,47.0,0,870,13.0,0.0
17193,35.0,0,870,3.0,0.0
17194,87.0,120,90,10.0,0.0
17195,47.0,0,90,7.0,0.0
17196,75.0,120,90,12.0,0.0
17197,87.0,0,90,10.0,0.0
17198,66.0,0,90,12.0,0.0
17199,69.0,0,90,12.0,0.0
17200,78.0,0,90,12.0,0.0
17201,47.0,120,90,7.0,0.0
17202,66.0,0,90,12.0,0.0
17203,69.0,0,90,12.0,0.0
17204,87.0,0,90,10.0,0.0
17205,75.0,0,90,12.0,0.0
17206,78.0,0,90,12.0,0.0
17207,47.0,0,90,7.0,0.0
17208,87.0,0,90,10.0,0.0
17209,75.0,0,90,12.0,0.0
17210,69.0,120,90,12.0,0.0
17211,66.0,0,90,12.0,0.0
17212,78.0,0,90,12.0,0.0
17213,66.0,0,90,12.0,0.0
17214,78.0,0,90,12.0,0.0
17215,87.0,0,90,10.0,0.0
17216,69.0,0,90,12.0,0.0
17217,75.0,0,90,12.0,0.0
17218,47.0,120,90,7.0,0.0
17219,75.0,0,90,12.0,0.0
17220,87.0,0,90,10.0,0.0
17221,78.0,0,90,12.0,0.0
17222,69.0,0,90,12.0,0.0
17223,66.0,0,90,12.0,0.0
17224,47.0,72,90,7.0,0.0
17225,47.0,0,90,7.0,0.0
17226,75.0,0,90,12.0,0.0
17227,78.0,0,90,12.0,0.0
17228,66.0,0,90,12.0,0.0
17229,69.0,48,90,12.0,0.0
17230,87.0,0,90,10.0,0.0
17231,78.0,0,90,12.0,0.0
17232,66.0,0,90,12.0,0.0
17233,87.0,0,90,10.0,0.0
17234,75.0,312,90,12.0,0.0
17235,47.0,0,90,7.0,0.0
17236,69.0,0,90,12.0,0.0
17237,52.0,0,390,4.0,0.0
17238,64.0,864,390,4.0,0.0
17239,52.0,0,300,13.0,0.0
17240,64.0,0,300,6.0,0.0
17241,76.0,0,300,6.0,0.0
17242,40.0,96,300,14.0,0.0
17243,88.0,0,300,10.0,0.0
17244,64.0,0,300,5.0,0.0
17245,88.0,0,300,0.0,0.0
17246,52.0,0,300,3.0,0.0
17247,40.0,0,300,3.0,0.0
17248,52.0,0,390,7.0,0.0
17249,71.0,0,300,12.0,0.0
17250,55.0,0,300,5.0,0.0
17251,67.0,0,300,2.0,0.0
17252,76.0,0,300,1.0,0.0
17253,79.0,0,300,1.0,0.0
17254,88.0,0,300,11.0,0.0
17255,79.0,0,300,11.0,0.0
17256,67.0,0,300,12.0,0.0
17257,76.0,0,300,2.0,0.0
17258,91.0,0,300,0.0,0.0
17259,59.0,0,300,11.0,0.0
17260,66.0,0,300,11.0,0.0
17261,95.0,0,300,10.0,0.0
17262,83.0,0,300,11.0,0.0
17263,69.0,96,300,2.0,0.0
17264,75.0,0,300,11.0,0.0
17265,47.0,0,300,13.0,0.0
17266,35.0,0,300,3.0,0.0
17267,47.0,0,300,3.0,0.0
17268,74.0,0,300,1.0,0.0
17269,86.0,0,300,0.0,0.0
17270,90.0,0,300,0.0,0.0
17271,66.0,0,390,4.0,0.0
17272,59.0,0,390,4.0,0.0
17273,71.0,0,300,6.0,0.0
17274,59.0,0,300,6.0,0.0
17275,63.0,0,300,5.0,0.0
17276,57.0,0,300,5.0,0.0
17277,66.0,0,300,12.0,0.0
17278,59.0,0,300,12.0,0.0
17279,47.0,864,390,7.0,0.0
17280,35.0,0,300,14.0,0.0
17281,83.0,0,300,1.0,0.0
17282,78.0,0,300,2.0,0.0
17283,64.0,0,300,5.0,0.0
17284,55.0,96,300,5.0,0.0
17285,52.0,0,300,3.0,0.0
17286,52.0,0,300,13.0,0.0
17287,40.0,0,300,3.0,0.0
17288,64.0,0,300,6.0,0.0
17289,76.0,0,300,1.0,0.0
17290,88.0,0,300,0.0,0.0
17291,40.0,0,300,14.0,0.0
17292,67.0,0,300,2.0,0.0
17293,91.0,0,300,0.0,0.0
17294,64.0,0,300,11.0,0.0
17295,76.0,0,300,11.0,0.0
17296,71.0,0,300,11.0,0.0
17297,67.0,0,300,12.0,0.0
17298,59.0,0,300,12.0,0.0
17299,52.0,0,390,4.0,0.0
17300,64.0,0,390,4.0,0.0
17301,76.0,0,300,2.0,0.0
17302,79.0,0,300,1.0,0.0
17303,52.0,864,390,7.0,0.0
17304,88.0,0,300,10.0,0.0
17305,90.0,0,300,0.0,0.0
17306,47.0,0,390,7.0,0.0
17307,35.0,0,300,14.0,0.0
17308,95.0,0,300,10.0,0.0
17309,47.0,0,300,3.0,0.0
17310,63.0,0,300,5.0,0.0
17311,35.0,0,300,3.0,0.0
17312,59.0,0,300,12.0,0.0
17313,86.0,0,300,0.0,0.0
17314,66.0,624,390,4.0,0.0
17315,59.0,0,390,4.0,0.0
17316,57.0,0,300,5.0,0.0
17317,66.0,0,300,12.0,0.0
17318,59.0,0,300,11.0,0.0
17319,78.0,0,300,2.0,0.0
17320,69.0,0,300,2.0,0.0
17321,83.0,0,300,1.0,0.0
17322,74.0,0,300,1.0,0.0
17323,71.0,96,300,6.0,0.0
17324,59.0,0,300,6.0,0.0
17325,75.0,0,300,11.0,0.0
17326,83.0,0,300,11.0,0.0
17327,66.0,0,300,11.0,0.0
17328,47.0,0,300,13.0,0.0
17329,52.0,60,40,7.0,0.0
17330,67.0,0,300,12.0,0.0
17331,59.0,0,300,12.0,0.0
17332,64.0,0,300,6.0,0.0
17333,76.0,0,300,1.0,0.0
17334,52.0,0,300,13.0,0.0
17335,64.0,0,300,10.0,0.0
17336,71.0,0,300,10.0,0.0
17337,76.0,0,300,10.0,0.0
17338,52.0,0,300,3.0,0.0
17339,40.0,0,300,3.0,0.0
17340,91.0,60,300,0.0,0.0
17341,88.0,0,300,0.0,0.0
17342,71.0,0,300,11.0,0.0
17343,76.0,0,300,2.0,0.0
17344,76.0,0,300,11.0,0.0
17345,52.0,24,390,4.0,0.0
17346,64.0,0,300,5.0,0.0
17347,55.0,0,300,5.0,0.0
17348,64.0,0,390,4.0,0.0
17349,40.0,0,300,14.0,0.0
17350,67.0,0,300,2.0,0.0
17351,64.0,0,300,11.0,0.0
17352,52.0,60,40,7.0,0.0
17353,52.0,60,40,7.0,0.0
17354,52.0,60,40,7.0,0.0
17355,52.0,0,40,7.0,0.0
17356,52.0,36,40,7.0,0.0
17357,52.0,60,40,7.0,0.0
17358,52.0,60,40,7.0,0.0
17359,52.0,60,40,7.0,0.0
17360,52.0,60,40,7.0,0.0
17361,52.0,60,40,7.0,0.0
17362,52.0,60,40,7.0,0.0
17363,52.0,60,40,7.0,0.0
17364,52.0,60,40,7.0,0.0
17365,52.0,60,40,7.0,0.0
17366,52.0,60,40,7.0,0.0
17367,52.0,60,40,7.0,0.0
17368,52.0,60,40,7.0,0.0
17369,52.0,60,40,7.0,0.0
17370,52.0,60,40,7.0,0.0
17371,52.0,60,40,7.0,0.0
17372,52.0,60,40,7.0,0.0
17373,52.0,60,40,7.0,0.0
17374,52.0,60,40,7.0,0.0
17375,52.0,60,40,7.0,0.0
17376,52.0,60,40,7.0,0.0
17377,52.0,60,40,7.0,0.0
17378,52.0,60,40,7.0,0.0
17379,52.0,60,40,7.0,0.0
17380,52.0,60,40,7.0,0.0
17381,52.0,60,40,7.0,0.0
17382,52.0,300,40,7.0,0.0
17383,28.0,0,300,14.0,0.0
17384,60.0,0,1830,5.0,0.0
17385,57.0,0,1830,5.0,0.0
17386,88.0,0,300,10.0,0.0
17387,64.0,0,1830,4.0,0.0
17388,52.0,480,390,7.0,0.0
17389,52.0,0,1830,4.0,0.0
17390,69.0,144,1830,2.0,0.0
17391,81.0,0,1830,1.0,0.0
17392,76.0,0,300,6.0,0.0
17393,64.0,0,300,6.0,0.0
17394,64.0,96,300,12.0,0.0
17395,60.0,0,300,12.0,0.0
17396,72.0,0,1830,2.0,0.0
17397,76.0,0,300,10.0,0.0
17398,69.0,0,300,11.0,0.0
17399,60.0,0,300,11.0,0.0
17400,69.0,0,300,12.0,0.0
17401,64.0,0,300,11.0,0.0
17402,88.0,0,1830,0.0,0.0
17403,40.0,0,300,13.0,0.0
17404,60.0,0,1830,3.0,0.0
17405,57.0,0,1830,3.0,0.0
17406,72.0,0,1830,1.0,0.0
17407,76.0,0,300,11.0,0.0
17408,52.0,480,390,7.0,0.0
17409,52.0,480,390,7.0,0.0
17410,52.0,0,390,7.0,0.0
17411,40.0,0,4230,13.0,0.0
17412,28.0,0,4230,14.0,0.0
17413,71.0,0,4230,2.0,0.0
17414,67.0,0,4230,2.0,0.0
17415,88.0,0,4230,0.0,0.0
17416,59.0,0,4230,12.0,0.0
17417,52.0,0,4230,12.0,0.0
17418,55.0,0,4230,10.0,0.0
17419,64.0,0,4230,10.0,0.0
17420,59.0,0,4230,3.0,0.0
17421,55.0,2304,4230,3.0,0.0
17422,79.0,0,4230,1.0,0.0
17423,64.0,0,4230,5.0,0.0
17424,64.0,0,4230,11.0,0.0
17425,52.0,0,4230,4.0,0.0
17426,52.0,60,40,7.0,0.0
17427,55.0,0,4230,11.0,0.0
17428,55.0,0,4230,5.0,0.0
17429,64.0,0,4230,6.0,0.0
17430,71.0,0,4230,1.0,0.0
17431,52.0,60,40,7.0,0.0
17432,52.0,60,40,7.0,0.0
17433,52.0,60,40,7.0,0.0
17434,52.0,60,40,7.0,0.0
17435,52.0,60,40,7.0,0.0
17436,52.0,60,40,7.0,0.0
17437,52.0,60,40,7.0,0.0
17438,52.0,60,40,7.0,0.0
17439,52.0,60,40,7.0,0.0
17440,52.0,60,40,7.0,0.0
17441,52.0,60,40,7.0,0.0
17442,52.0,60,40,7.0,0.0
17443,52.0,60,40,7.0,0.0
17444,52.0,60,40,7.0,0.0
17445,52.0,60,40,7.0,0.0
17446,52.0,60,40,7.0,0.0
17447,52.0,60,40,7.0,0.0
17448,52.0,60,40,7.0,0.0
17449,52.0,60,40,7.0,0.0
17450,52.0,60,40,7.0,0.0
17451,52.0,60,40,7.0,0.0
17452,52.0,60,40,7.0,0.0
17453,52.0,60,40,7.0,0.0
17454,52.0,60,40,7.0,0.0
17455,52.0,60,40,7.0,0.0
17456,52.0,60,40,7.0,0.0
17457,52.0,60,40,7.0,0.0
17458,52.0,60,40,7.0,0.0
17459,52.0,60,40,7.0,0.0
17460,52.0,60,40,7.0,0.0
17461,52.0,60,40,7.0,0.0
17462,52.0,60,40,7.0,0.0
17463,52.0,60,40,7.0,0.0
17464,52.0,60,40,7.0,0.0
17465,52.0,60,40,7.0,0.0
17466,52.0,60,40,7.0,0.0
17467,52.0,60,40,7.0,0.0
17468,52.0,60,40,7.0,0.0
17469,52.0,60,40,7.0,0.0
17470,52.0,60,40,7.0,0.0
17471,52.0,60,40,7.0,0.0
17472,52.0,60,40,7.0,0.0
17473,52.0,60,40,7.0,0.0
17474,52.0,60,40,7.0,0.0
17475,52.0,60,40,7.0,0.0
17476,52.0,60,40,7.0,0.0
17477,52.0,60,40,7.0,0.0
17478,52.0,60,40,7.0,0.0
17479,52.0,60,40,7.0,0.0
17480,52.0,60,40,7.0,0.0
17481,52.0,60,40,7.0,0.0
17482,52.0,60,40,7.0,0.0
17483,52.0,60,40,7.0,0.0
17484,52.0,60,40,7.0,0.0
17485,52.0,60,40,7.0,0.0
17486,52.0,60,40,7.0,0.0
17487,52.0,60,40,7.0,0.0
17488,52.0,60,40,7.0,0.0
17489,52.0,60,40,7.0,0.0
17490,52.0,60,40,7.0,0.0
17491,52.0,60,40,7.0,0.0
17492,52.0,60,40,7.0,0.0
17493,52.0,396,40,7.0,0.0
17494,52.0,0,390,7.0,0.0
17495,28.0,0,780,14.0,0.0
