,note,step,duration,channel,velocity
0,72.0,44,60,0.0,0.0
1,60.0,1,120,2.0,0.0
2,57.0,55,120,3.0,0.0
3,65.0,2,120,1.0,0.0
4,71.0,7,40,0.0,0.0
5,58.0,12,120,2.0,0.0
6,74.0,48,60,0.0,0.0
7,55.0,64,120,3.0,0.0
8,64.0,5,120,1.0,0.0
9,72.0,18,120,0.0,0.0
10,57.0,6,90,2.0,0.0
11,65.0,36,90,1.0,0.0
12,53.0,57,120,3.0,0.0
13,57.0,4,120,2.0,0.0
14,65.0,3,240,1.0,0.0
15,45.0,48,120,3.0,0.0
16,72.0,47,60,0.0,0.0
17,73.0,9,60,0.0,0.0
18,53.0,3,240,2.0,0.0
19,76.0,66,60,0.0,0.0
20,46.0,113,120,3.0,0.0
21,74.0,12,180,0.0,0.0
22,70.0,50,120,1.0,0.0
23,43.0,1,120,3.0,0.0
24,72.0,54,60,0.0,0.0
25,52.0,6,120,2.0,0.0
26,69.0,47,120,1.0,0.0
27,45.0,9,120,3.0,0.0
28,74.0,1,60,0.0,0.0
29,72.0,50,60,0.0,0.0
30,58.0,5,300,2.0,0.0
31,64.0,61,120,1.0,0.0
32,48.0,7,120,3.0,0.0
33,74.0,0,60,0.0,0.0
34,50.0,50,120,3.0,0.0
35,72.0,58,60,0.0,0.0
36,65.0,5,120,1.0,0.0
37,74.0,1,60,0.0,0.0
38,67.0,8,120,1.0,0.0
39,72.0,57,60,0.0,0.0
40,52.0,0,120,3.0,0.0
41,55.0,51,60,2.0,0.0
42,74.0,2,60,0.0,0.0
43,70.0,57,60,0.0,0.0
44,53.0,6,240,3.0,0.0
45,61.0,12,120,2.0,0.0
46,64.0,107,120,1.0,0.0
47,69.0,5,180,0.0,0.0
48,62.0,5,120,2.0,0.0
49,65.0,48,120,1.0,0.0
50,72.0,61,60,0.0,0.0
51,52.0,46,270,2.0,0.0
52,43.0,6,120,3.0,0.0
53,62.0,57,120,1.0,0.0
54,70.0,5,60,0.0,0.0
55,68.0,50,60,0.0,0.0
56,45.0,3,120,3.0,0.0
57,61.0,4,120,1.0,0.0
58,69.0,9,60,0.0,0.0
59,46.0,13,120,3.0,0.0
60,62.0,1,120,1.0,0.0
61,66.0,59,60,0.0,0.0
62,50.0,67,120,2.0,0.0
63,67.0,40,150,0.0,0.0
64,58.0,8,120,1.0,0.0
65,43.0,4,120,3.0,0.0
66,52.0,2,120,2.0,0.0
67,64.0,108,60,0.0,0.0
68,48.0,113,120,2.0,0.0
69,60.0,0,240,1.0,0.0
70,45.0,2,240,3.0,0.0
71,65.0,64,240,0.0,0.0
72,57.0,7,120,2.0,0.0
73,55.0,1,120,2.0,0.0
74,48.0,1,120,3.0,0.0
75,58.0,6,120,1.0,0.0
76,63.0,56,60,0.0,0.0
77,64.0,56,60,0.0,0.0
78,57.0,48,120,1.0,0.0
79,41.0,39,330,3.0,0.0
80,57.0,3,120,2.0,0.0
81,67.0,56,60,0.0,0.0
82,65.0,7,60,0.0,0.0
83,58.0,56,120,2.0,0.0
84,67.0,58,60,0.0,0.0
85,62.0,4,120,1.0,0.0
86,65.0,19,120,0.0,0.0
87,58.0,3,120,1.0,0.0
88,55.0,120,120,2.0,0.0
89,64.0,3,60,0.0,0.0
90,55.0,4,120,1.0,0.0
91,41.0,5,180,3.0,0.0
92,46.0,57,120,2.0,0.0
93,65.0,46,180,0.0,0.0
94,57.0,54,120,1.0,0.0
95,48.0,15,120,2.0,0.0
96,60.0,6,60,2.0,0.0
97,72.0,4,120,0.0,0.0
98,57.0,0,120,3.0,0.0
99,65.0,43,60,1.0,0.0
100,59.0,70,60,2.0,0.0
101,55.0,1,120,3.0,0.0
102,76.0,5,120,0.0,0.0
103,62.0,45,60,2.0,0.0
104,70.0,113,120,1.0,0.0
105,60.0,65,180,2.0,0.0
106,77.0,1,120,0.0,0.0
107,53.0,6,120,3.0,0.0
108,69.0,2,120,1.0,0.0
109,41.0,7,120,3.0,0.0
110,69.0,53,120,0.0,0.0
111,60.0,53,60,1.0,0.0
112,53.0,3,360,2.0,0.0
113,61.0,1,60,1.0,0.0
114,46.0,8,120,3.0,0.0
115,64.0,56,60,1.0,0.0
116,72.0,117,120,0.0,0.0
117,62.0,66,180,1.0,0.0
118,43.0,1,120,3.0,0.0
119,70.0,3,120,0.0,0.0
120,69.0,0,120,0.0,0.0
121,52.0,6,120,2.0,0.0
122,45.0,3,120,3.0,0.0
123,60.0,45,60,1.0,0.0
124,62.0,62,60,1.0,0.0
125,58.0,2,300,2.0,0.0
126,48.0,4,120,3.0,0.0
127,64.0,58,120,0.0,0.0
128,60.0,54,60,1.0,0.0
129,62.0,5,60,1.0,0.0
130,50.0,0,120,3.0,0.0
131,60.0,56,60,1.0,0.0
132,65.0,1,120,0.0,0.0
133,62.0,57,60,1.0,0.0
134,60.0,59,60,1.0,0.0
135,67.0,2,120,0.0,0.0
136,52.0,0,120,3.0,0.0
137,55.0,46,60,2.0,0.0
138,62.0,11,60,1.0,0.0
139,53.0,53,240,3.0,0.0
140,64.0,11,120,0.0,0.0
141,58.0,62,60,1.0,0.0
142,61.0,96,120,2.0,0.0
143,57.0,1,180,1.0,0.0
144,65.0,5,120,0.0,0.0
145,62.0,13,120,2.0,0.0
146,72.0,52,60,0.0,0.0
147,52.0,1,270,2.0,0.0
148,62.0,5,120,1.0,0.0
149,43.0,7,120,3.0,0.0
150,70.0,70,60,0.0,0.0
151,45.0,4,150,3.0,0.0
152,61.0,4,120,1.0,0.0
153,68.0,48,60,0.0,0.0
154,69.0,54,60,0.0,0.0
155,62.0,1,120,1.0,0.0
156,50.0,65,120,2.0,0.0
157,46.0,8,120,3.0,0.0
158,66.0,54,60,0.0,0.0
159,67.0,7,180,0.0,0.0
160,43.0,10,120,3.0,0.0
161,52.0,55,120,2.0,0.0
162,58.0,40,60,1.0,0.0
163,59.0,51,120,1.0,0.0
164,45.0,4,240,3.0,0.0
165,64.0,2,60,0.0,0.0
166,48.0,58,120,2.0,0.0
167,65.0,20,60,0.0,0.0
168,60.0,13,180,1.0,0.0
169,65.0,3,120,0.0,0.0
170,56.0,38,60,2.0,0.0
171,57.0,44,60,2.0,0.0
172,48.0,15,120,3.0,0.0
173,58.0,7,120,1.0,0.0
174,63.0,51,60,0.0,0.0
175,55.0,62,120,2.0,0.0
176,64.0,1,60,0.0,0.0
177,41.0,42,330,3.0,0.0
178,67.0,53,60,0.0,0.0
179,57.0,58,120,1.0,0.0
180,57.0,0,120,2.0,0.0
181,65.0,1,60,0.0,0.0
182,62.0,60,120,1.0,0.0
183,58.0,4,120,2.0,0.0
184,67.0,48,60,0.0,0.0
185,65.0,18,120,0.0,0.0
186,55.0,115,120,2.0,0.0
187,58.0,0,120,1.0,0.0
188,64.0,7,60,0.0,0.0
189,41.0,17,240,3.0,0.0
190,55.0,5,120,1.0,0.0
191,65.0,40,180,0.0,0.0
192,46.0,63,120,2.0,0.0
193,57.0,0,120,1.0,0.0
194,48.0,50,120,2.0,0.0
195,72.0,28,60,0.0,0.0
196,57.0,2,120,2.0,0.0
197,53.0,4,120,3.0,0.0
198,60.0,27,90,1.0,0.0
199,69.0,65,60,0.0,0.0
200,66.0,51,60,0.0,0.0
201,60.0,2,120,2.0,0.0
202,60.0,4,120,1.0,0.0
203,52.0,90,120,3.0,0.0
204,67.0,10,180,0.0,0.0
205,55.0,63,120,1.0,0.0
206,52.0,20,90,2.0,0.0
207,48.0,0,120,3.0,0.0
208,57.0,26,90,1.0,0.0
209,52.0,49,150,2.0,0.0
210,60.0,22,60,0.0,0.0
211,45.0,11,120,3.0,0.0
212,64.0,10,60,0.0,0.0
213,67.0,59,60,0.0,0.0
214,50.0,3,120,3.0,0.0
215,57.0,9,120,1.0,0.0
216,50.0,108,120,2.0,0.0
217,65.0,8,180,0.0,0.0
218,38.0,4,120,3.0,0.0
219,57.0,8,120,2.0,0.0
220,60.0,48,150,1.0,0.0
221,43.0,7,120,3.0,0.0
222,59.0,2,120,1.0,0.0
223,64.0,54,60,0.0,0.0
224,53.0,52,120,2.0,0.0
225,62.0,5,60,0.0,0.0
226,48.0,6,120,3.0,0.0
227,52.0,8,240,1.0,0.0
228,59.0,54,60,0.0,0.0
229,60.0,55,60,0.0,0.0
230,45.0,47,120,3.0,0.0
231,59.0,57,60,0.0,0.0
232,60.0,61,120,0.0,0.0
233,57.0,0,15,2.0,0.0
234,53.0,120,120,1.0,0.0
235,41.0,3,120,3.0,0.0
236,62.0,1,60,0.0,0.0
237,60.0,44,210,0.0,0.0
238,36.0,9,180,3.0,0.0
239,50.0,0,120,2.0,0.0
240,53.0,67,120,1.0,0.0
241,52.0,70,120,2.0,0.0
242,55.0,0,120,1.0,0.0
243,72.0,45,90,0.0,0.0
244,57.0,0,120,2.0,0.0
245,71.0,5,60,0.0,0.0
246,74.0,57,60,0.0,0.0
247,63.0,0,15,1.0,0.0
248,57.0,1,120,2.0,0.0
249,53.0,63,15,3.0,0.0
250,72.0,6,180,0.0,0.0
251,55.0,54,120,3.0,0.0
252,58.0,0,120,2.0,0.0
253,77.0,57,60,0.0,0.0
254,57.0,54,120,3.0,0.0
255,63.0,4,120,1.0,0.0
256,72.0,5,60,0.0,0.0
257,73.0,62,60,0.0,0.0
258,58.0,116,120,3.0,0.0
259,62.0,0,120,1.0,0.0
260,74.0,6,180,0.0,0.0
261,65.0,4,15,2.0,0.0
262,55.0,51,120,3.0,0.0
263,70.0,3,120,1.0,0.0
264,64.0,0,120,2.0,0.0
265,72.0,57,60,0.0,0.0
266,57.0,3,60,3.0,0.0
267,69.0,0,120,1.0,0.0
268,45.0,0,60,3.0,0.0
269,74.0,67,60,0.0,0.0
270,48.0,1,60,3.0,0.0
271,72.0,49,180,0.0,0.0
272,58.0,7,300,2.0,0.0
273,64.0,54,60,1.0,0.0
274,52.0,7,60,3.0,0.0
275,67.0,51,60,1.0,0.0
276,50.0,7,60,3.0,0.0
277,65.0,0,60,1.0,0.0
278,53.0,8,60,3.0,0.0
279,69.0,45,60,1.0,0.0
280,74.0,6,60,0.0,0.0
281,52.0,6,60,3.0,0.0
282,72.0,5,60,0.0,0.0
283,67.0,53,60,1.0,0.0
284,48.0,1,60,3.0,0.0
285,64.0,54,60,2.0,0.0
286,74.0,0,60,0.0,0.0
287,70.0,6,60,1.0,0.0
288,53.0,11,120,3.0,0.0
289,70.0,51,60,0.0,0.0
290,64.0,113,120,1.0,0.0
291,61.0,1,120,2.0,0.0
292,69.0,2,180,0.0,0.0
293,50.0,1,120,3.0,0.0
294,62.0,58,120,2.0,0.0
295,65.0,0,120,1.0,0.0
296,72.0,53,60,0.0,0.0
297,40.0,5,120,3.0,0.0
298,55.0,27,120,2.0,0.0
299,60.0,29,150,1.0,0.0
300,70.0,8,60,0.0,0.0
301,42.0,49,120,3.0,0.0
302,68.0,54,60,0.0,0.0
303,51.0,55,180,2.0,0.0
304,69.0,6,60,0.0,0.0
305,60.0,3,60,1.0,0.0
306,66.0,3,60,0.0,0.0
307,57.0,0,60,1.0,0.0
308,46.0,32,120,3.0,0.0
309,67.0,0,90,0.0,0.0
310,50.0,5,90,2.0,0.0
311,58.0,42,90,1.0,0.0
312,43.0,2,120,3.0,0.0
313,53.0,36,60,2.0,0.0
314,58.0,23,60,1.0,0.0
315,67.0,9,40,0.0,0.0
316,52.0,30,60,2.0,0.0
317,63.0,7,60,0.0,0.0
318,45.0,4,120,3.0,0.0
319,58.0,56,60,2.0,0.0
320,62.0,2,60,1.0,0.0
321,65.0,6,120,0.0,0.0
322,60.0,8,120,1.0,0.0
323,48.0,2,240,3.0,0.0
324,57.0,46,15,2.0,0.0
325,57.0,59,15,2.0,0.0
326,65.0,1,60,0.0,0.0
327,60.0,50,60,1.0,0.0
328,63.0,11,60,0.0,0.0
329,54.0,2,60,2.0,0.0
330,57.0,41,60,1.0,0.0
331,64.0,4,60,0.0,0.0
332,55.0,3,60,2.0,0.0
333,58.0,64,60,1.0,0.0
334,60.0,5,120,1.0,0.0
335,67.0,49,60,0.0,0.0
336,41.0,6,360,3.0,0.0
337,57.0,6,120,2.0,0.0
338,65.0,55,60,0.0,0.0
339,58.0,8,120,2.0,0.0
340,62.0,61,120,1.0,0.0
341,67.0,47,60,0.0,0.0
342,65.0,59,120,0.0,0.0
343,55.0,3,120,2.0,0.0
344,58.0,0,120,1.0,0.0
345,64.0,120,60,0.0,0.0
346,46.0,51,120,2.0,0.0
347,55.0,3,120,1.0,0.0
348,41.0,64,240,3.0,0.0
349,65.0,55,180,0.0,0.0
350,57.0,0,120,1.0,0.0
351,48.0,5,90,2.0,0.0
352,60.0,53,60,2.0,0.0
353,69.0,3,120,0.0,0.0
354,53.0,12,120,3.0,0.0
355,57.0,50,60,2.0,0.0
356,52.0,113,120,3.0,0.0
357,72.0,9,120,0.0,0.0
358,60.0,0,15,1.0,0.0
359,54.0,50,60,2.0,0.0
360,55.0,6,180,2.0,0.0
361,64.0,56,120,0.0,0.0
362,48.0,6,120,3.0,0.0
363,48.0,50,60,2.0,0.0
364,60.0,2,15,1.0,0.0
365,45.0,0,120,3.0,0.0
366,69.0,5,120,0.0,0.0
367,52.0,9,60,2.0,0.0
368,55.0,56,60,2.0,0.0
369,50.0,60,180,3.0,0.0
370,61.0,4,120,1.0,0.0
371,64.0,56,120,0.0,0.0
372,53.0,7,180,2.0,0.0
373,62.0,5,120,0.0,0.0
374,57.0,53,120,1.0,0.0
375,41.0,7,60,3.0,0.0
376,43.0,66,120,3.0,0.0
377,59.0,1,120,0.0,0.0
378,52.0,0,60,2.0,0.0
379,55.0,46,60,1.0,0.0
380,50.0,4,60,2.0,0.0
381,53.0,1,60,1.0,0.0
382,60.0,36,90,0.0,0.0
383,52.0,5,120,1.0,0.0
384,47.0,16,60,2.0,0.0
385,45.0,1,120,3.0,0.0
386,48.0,52,60,2.0,0.0
387,57.0,60,120,1.0,0.0
388,41.0,50,180,3.0,0.0
389,60.0,4,180,0.0,0.0
390,47.0,69,60,2.0,0.0
391,48.0,0,120,2.0,0.0
392,56.0,7,120,1.0,0.0
393,50.0,109,60,2.0,0.0
394,59.0,3,60,0.0,0.0
395,60.0,1,240,0.0,0.0
396,55.0,9,240,1.0,0.0
397,53.0,6,120,3.0,0.0
398,53.0,106,120,2.0,0.0
399,52.0,11,120,3.0,0.0
400,52.0,52,120,2.0,0.0
401,72.0,49,90,0.0,0.0
402,63.0,27,330,1.0,0.0
403,57.0,18,240,2.0,0.0
404,71.0,17,60,0.0,0.0
405,74.0,57,60,0.0,0.0
406,53.0,45,15,3.0,0.0
407,72.0,4,180,0.0,0.0
408,58.0,23,120,2.0,0.0
409,55.0,48,120,3.0,0.0
410,77.0,48,90,0.0,0.0
411,65.0,15,240,2.0,0.0
412,57.0,7,120,3.0,0.0
413,63.0,64,120,1.0,0.0
414,72.0,2,60,0.0,0.0
415,73.0,32,90,0.0,0.0
416,58.0,17,120,3.0,0.0
417,62.0,114,120,1.0,0.0
418,74.0,56,180,0.0,0.0
419,70.0,4,120,1.0,0.0
420,65.0,0,120,2.0,0.0
421,55.0,0,120,3.0,0.0
422,69.0,9,120,1.0,0.0
423,64.0,3,120,2.0,0.0
424,57.0,8,60,3.0,0.0
425,72.0,44,60,0.0,0.0
426,45.0,5,60,3.0,0.0
427,74.0,47,60,0.0,0.0
428,64.0,1,90,1.0,0.0
429,48.0,10,60,3.0,0.0
430,58.0,7,300,2.0,0.0
431,72.0,55,60,0.0,0.0
432,52.0,49,60,3.0,0.0
433,67.0,5,60,1.0,0.0
434,74.0,2,60,0.0,0.0
435,72.0,56,60,0.0,0.0
436,65.0,6,60,1.0,0.0
437,50.0,4,60,3.0,0.0
438,69.0,0,60,1.0,0.0
439,53.0,46,60,3.0,0.0
440,74.0,5,60,0.0,0.0
441,72.0,4,60,0.0,0.0
442,67.0,54,60,1.0,0.0
443,52.0,3,60,3.0,0.0
444,64.0,1,90,2.0,0.0
445,74.0,4,60,0.0,0.0
446,48.0,52,60,3.0,0.0
447,70.0,1,60,1.0,0.0
448,70.0,55,60,0.0,0.0
449,53.0,3,120,3.0,0.0
450,61.0,7,120,2.0,0.0
451,64.0,114,120,1.0,0.0
452,69.0,0,180,0.0,0.0
453,62.0,6,120,2.0,0.0
454,50.0,55,120,3.0,0.0
455,65.0,0,120,1.0,0.0
456,72.0,51,60,0.0,0.0
457,60.0,28,150,1.0,0.0
458,55.0,6,120,2.0,0.0
459,40.0,32,120,3.0,0.0
460,70.0,6,60,0.0,0.0
461,68.0,52,60,0.0,0.0
462,42.0,41,120,3.0,0.0
463,51.0,12,180,2.0,0.0
464,69.0,7,60,0.0,0.0
465,60.0,4,60,1.0,0.0
466,66.0,59,60,0.0,0.0
467,57.0,1,60,1.0,0.0
468,46.0,4,120,3.0,0.0
469,58.0,6,90,1.0,0.0
470,67.0,28,90,0.0,0.0
471,50.0,28,60,2.0,0.0
472,43.0,7,120,3.0,0.0
473,53.0,24,60,2.0,0.0
474,58.0,31,30,1.0,0.0
475,52.0,51,60,2.0,0.0
476,67.0,1,60,0.0,0.0
477,63.0,8,60,0.0,0.0
478,62.0,52,60,1.0,0.0
479,45.0,0,120,3.0,0.0
480,58.0,6,60,2.0,0.0
481,65.0,15,120,0.0,0.0
482,60.0,34,60,1.0,0.0
483,57.0,8,60,2.0,0.0
484,48.0,11,240,3.0,0.0
485,56.0,11,60,2.0,0.0
486,59.0,41,60,1.0,0.0
487,60.0,46,60,1.0,0.0
488,57.0,7,60,2.0,0.0
489,65.0,12,60,0.0,0.0
490,63.0,6,60,0.0,0.0
491,54.0,8,60,2.0,0.0
492,57.0,37,60,1.0,0.0
493,64.0,11,60,0.0,0.0
494,58.0,43,60,1.0,0.0
495,55.0,1,60,2.0,0.0
496,41.0,51,330,3.0,0.0
497,67.0,54,60,0.0,0.0
498,57.0,3,120,2.0,0.0
499,60.0,56,120,1.0,0.0
500,65.0,1,60,0.0,0.0
501,58.0,2,120,2.0,0.0
502,67.0,64,60,0.0,0.0
503,62.0,65,120,1.0,0.0
504,65.0,11,120,0.0,0.0
505,58.0,0,120,1.0,0.0
506,55.0,4,120,2.0,0.0
507,64.0,60,60,0.0,0.0
508,41.0,35,330,3.0,0.0
509,53.0,60,60,2.0,0.0
510,55.0,48,150,1.0,0.0
511,65.0,23,210,0.0,0.0
512,52.0,10,60,2.0,0.0
513,57.0,79,120,1.0,0.0
514,53.0,27,60,2.0,0.0
515,51.0,7,120,2.0,0.0
516,58.0,340,120,1.0,0.0
517,65.0,3,90,0.0,0.0
518,50.0,4,60,2.0,0.0
519,41.0,16,330,3.0,0.0
520,57.0,0,360,1.0,0.0
521,48.0,0,360,2.0,0.0
522,65.0,0,360,0.0,0.0
523,53.0,0,15,1.0,0.0
